<?xml version="1.0" encoding="utf-8"?>
<!-- Generator: Adobe Illustrator 18.0.0, SVG Export Plug-In . SVG Version: 6.00 Build 0)  -->
<!DOCTYPE svg PUBLIC "-//W3C//DTD SVG 1.1//EN" "http://www.w3.org/Graphics/SVG/1.1/DTD/svg11.dtd">
<svg version="1.1" id="Layer_1" xmlns="http://www.w3.org/2000/svg" xmlns:xlink="http://www.w3.org/1999/xlink" x="0px" y="0px"
	 viewBox="0 0 48 48" enable-background="new 0 0 48 48" xml:space="preserve">
<g>
	<g>
		<path fill="#F2F2F2" d="M11.2,48C5,48,0,43,0,36.8s5-11.2,11.2-11.2c6.2,0,11.2,5,11.2,11.2S17.3,48,11.2,48z M11.2,29.2
			c-4.2,0-7.6,3.4-7.6,7.6s3.4,7.6,7.6,7.6s7.6-3.4,7.6-7.6S15.4,29.2,11.2,29.2z"/>
	</g>
	<path fill="#FF7058" d="M15.2,26.4L14.5,30c-2.1-1-4.5-1-6.6,0l-0.8-3.5c0,0,0,0,0,0c1-0.4,1.7-1.3,1.7-2.4V0h4.7v24
		C13.5,25.1,14.2,26,15.2,26.4L15.2,26.4z"/>
	<g>
		<path fill="#F2F2F2" d="M36.8,48c-6.2,0-11.2-5-11.2-11.2s5-11.2,11.2-11.2c6.2,0,11.2,5,11.2,11.2S43,48,36.8,48z M36.8,29.2
			c-4.2,0-7.6,3.4-7.6,7.6s3.4,7.6,7.6,7.6s7.6-3.4,7.6-7.6S41,29.2,36.8,29.2z"/>
	</g>
	<path fill="#FF7058" d="M40.9,26.4L40.1,30c-2.1-1-4.5-1-6.6,0l-0.8-3.5c0,0,0,0,0,0c1-0.4,1.7-1.3,1.7-2.4V0h4.7v24
		C39.2,25.1,39.9,26,40.9,26.4L40.9,26.4z"/>
</g>
</svg>
