<?xml version="1.0" encoding="utf-8"?>
<!-- Generator: Adobe Illustrator 18.0.0, SVG Export Plug-In . SVG Version: 6.00 Build 0)  -->
<!DOCTYPE svg PUBLIC "-//W3C//DTD SVG 1.1//EN" "http://www.w3.org/Graphics/SVG/1.1/DTD/svg11.dtd">
<svg version="1.1" id="Layer_1" xmlns="http://www.w3.org/2000/svg" xmlns:xlink="http://www.w3.org/1999/xlink" x="0px" y="0px"
	 viewBox="0 0 48 48" enable-background="new 0 0 48 48" xml:space="preserve">
<g>
	<g>
		<g>
			<g>
				<path fill="#F05540" d="M14,44.6c-0.1-1.1-0.4-2.3-0.8-3.5c-2.9,1.2-5.8,2.4-8.7,3.5c5.6-6.5,13.4-16.5,9.9-26.1
					c4.1,0,8.3,0,12.4,0C28.7,27.4,21.6,38.9,14,44.6z"/>
			</g>
			<g>
				<path fill="#F05540" d="M43.9,44.6c-3-1.1-8.7-3.5-8.7-3.5L34,44.6c-7.6-5.7-14.7-17.2-12.8-26.1H34
					C30.6,28.1,38.4,38.1,43.9,44.6z"/>
			</g>
		</g>
		<g>
			<g>
				<g>
					<path fill="#F3705A" d="M24,17C24,17,7.6,0,2.5,4c-3.7,2.9-3.1,20.7,0,24.6C6.3,33.5,24,25.4,24,25.4V17z"/>
					<g>
						<path fill="#F05540" d="M24,17c-3-0.8-17-3.3-21.2-7.3C2.6,9.6,2.4,9.4,2.3,9.1c-1-1.4-1-3.6,0.1-4.9C2.4,4.2,2.5,4.1,2.5,4
							C7.6,0,24,17,24,17z"/>
					</g>
				</g>
				<g>
					<path fill="#F3705A" d="M24,17c0,0,16.4-17,21.5-13c3.7,2.9,3.1,20.7,0,24.6C41.7,33.5,24,25.4,24,25.4V17z"/>
					<g>
						<path fill="#F05540" d="M24,17c3-0.8,17-3.3,21.2-7.3c0.2-0.2,0.4-0.4,0.6-0.7c1-1.4,1-3.6-0.1-4.9c-0.1-0.1-0.1-0.1-0.2-0.2
							C40.4,0,24,17,24,17z"/>
					</g>
				</g>
			</g>
			<g>
				<path fill="#FFD15C" d="M27.9,13.3v13.7c0,1.5-7.7,1.5-7.7,0V13.3C20.1,12.2,27.9,12.2,27.9,13.3z"/>
			</g>
		</g>
	</g>
</g>
</svg>
