<?xml version="1.0" encoding="utf-8"?>
<!-- Generator: Adobe Illustrator 18.0.0, SVG Export Plug-In . SVG Version: 6.00 Build 0)  -->
<!DOCTYPE svg PUBLIC "-//W3C//DTD SVG 1.1//EN" "http://www.w3.org/Graphics/SVG/1.1/DTD/svg11.dtd">
<svg version="1.1" id="Layer_1" xmlns="http://www.w3.org/2000/svg" xmlns:xlink="http://www.w3.org/1999/xlink" x="0px" y="0px"
	 viewBox="0 0 512 512" enable-background="new 0 0 512 512" xml:space="preserve">
<g>
	<path fill="#334A5E" d="M493.1,55H23.2C11.5,55,2,64.5,2,76.2v283.4h508V71.9C510,62.6,502.4,55,493.1,55z"/>
	<path fill="#F2F2F2" d="M2,359.7V400c0,11.7,9.5,21.2,21.2,21.2h465.6c11.7,0,21.2-9.5,21.2-21.2v-40.3H2z"/>
	<circle fill="#CDD5DF" cx="256" cy="390.4" r="12.1"/>
	<rect x="158.7" y="421.2" fill="#CDD5DF" width="194.7" height="56.7"/>
	<rect x="158.7" y="421.2" fill="#ABB2B9" width="194.7" height="15.8"/>
	<path fill="#F2F2F2" d="M404.7,510H107.3v-29.1c0-1.7,1.4-3,3-3h291.4c1.7,0,3,1.4,3,3V510z"/>
	<polygon fill="#F2F2F2" points="351.7,2 95.2,2 95.2,335.3 416.8,335.3 416.8,67 	"/>
	<polygon fill="#CDD5DF" points="351.7,67 416.8,67 351.7,2 	"/>
	<rect x="142.9" y="86.9" fill="#FFD05C" width="70.8" height="70.8"/>
	<rect x="156.9" y="100.9" fill="#F6F7F7" width="42.7" height="42.7"/>
	<rect x="142.9" y="211.8" fill="#F2705B" width="70.8" height="70.8"/>
	<rect x="156.9" y="225.8" fill="#F6F7F7" width="42.7" height="42.7"/>
	<rect x="239" y="87.7" fill="#CDD5DF" width="130.1" height="18.7"/>
	<rect x="239" y="138.1" fill="#CDD5DF" width="130.1" height="18.7"/>
	<rect x="239" y="212.7" fill="#CDD5DF" width="130.1" height="18.7"/>
	<rect x="239" y="263" fill="#CDD5DF" width="130.1" height="18.7"/>
	<polygon fill="#89D6F7" points="448.3,86.9 416.8,335.3 476.3,335.3 476.3,86.9 	"/>
	<polygon fill="#89D6F7" points="35.7,86.9 35.7,335.3 95.2,335.3 63.7,86.9 	"/>
	<polygon fill="#334A5E" points="452.4,55 416.8,55 416.8,86.9 448.3,86.9 	"/>
	<polygon fill="#89D6F7" points="416.8,86.9 416.8,335.3 448.3,86.9 	"/>
	<polygon fill="#55BFE9" points="416.8,86.9 416.8,335.3 448.3,86.9 	"/>
	<polygon fill="#334A5E" points="95.2,55 59.6,55 63.7,86.9 95.2,86.9 	"/>
	<polygon fill="#89D6F7" points="63.7,86.9 95.2,335.3 95.2,86.9 	"/>
	<polygon fill="#55BFE9" points="63.7,86.9 95.2,335.3 95.2,86.9 	"/>
</g>
</svg>
