<?xml version="1.0" encoding="utf-8"?>
<!-- Generator: Adobe Illustrator 18.0.0, SVG Export Plug-In . SVG Version: 6.00 Build 0)  -->
<!DOCTYPE svg PUBLIC "-//W3C//DTD SVG 1.1//EN" "http://www.w3.org/Graphics/SVG/1.1/DTD/svg11.dtd">
<svg version="1.1" id="Layer_1" xmlns="http://www.w3.org/2000/svg" xmlns:xlink="http://www.w3.org/1999/xlink" x="0px" y="0px"
	 viewBox="0 0 48 48" enable-background="new 0 0 48 48" xml:space="preserve">
<g>
	<path fill="#CDD6E0" d="M33.2,44.7H14.8c0-1,0.2-2,0.5-3c1.2-3.6,4.7-6.2,8.7-6.2c2.5,0,4.8,1,6.5,2.7c1,1,1.7,2.2,2.2,3.5
		C33,42.7,33.2,43.7,33.2,44.7z"/>
	<path fill="#C3D0DB" d="M32.7,41.7H15.3c1.2-3.6,4.7-6.2,8.7-6.2c2.5,0,4.8,1,6.5,2.7C31.5,39.2,32.2,40.4,32.7,41.7z"/>
	<path fill="#40596B" d="M48,32.8H0V3.3c0-1.1,0.9-2,2-2h44c1.1,0,2,0.9,2,2V32.8z"/>
	<rect x="2.5" y="3.8" fill="#84DBFF" width="43" height="26.5"/>
	<path fill="#F2F2F2" d="M48,32.8H0v5.4c0,1.1,0.9,2,2,2h44c1.1,0,2-0.9,2-2V32.8z"/>
	<circle fill="#4CDBC4" cx="24" cy="36.5" r="1.2"/>
	<rect x="10.1" y="44.7" fill="#F2F2F2" width="27.7" height="2"/>
</g>
</svg>
