<?xml version="1.0" encoding="utf-8"?>
<!-- Generator: Adobe Illustrator 20.1.0, SVG Export Plug-In . SVG Version: 6.00 Build 0)  -->
<!DOCTYPE svg PUBLIC "-//W3C//DTD SVG 1.1//EN" "http://www.w3.org/Graphics/SVG/1.1/DTD/svg11.dtd">
<svg version="1.1" id="Layer_1" xmlns="http://www.w3.org/2000/svg" xmlns:xlink="http://www.w3.org/1999/xlink" x="0px" y="0px"
	 viewBox="0 0 49 49" enable-background="new 0 0 49 49" xml:space="preserve">
<g>
	<path fill="#FF7058" d="M24.5,0.5c-13.3,0-24,10.7-24,24c0,13.3,10.7,24,24,24c13.3,0,24-10.7,24-24C48.5,11.2,37.8,0.5,24.5,0.5z
		 M24.5,35.1c-5.8,0-10.6-4.7-10.6-10.6s4.7-10.6,10.6-10.6s10.6,4.7,10.6,10.6S30.3,35.1,24.5,35.1z"/>
	<path fill="#F1543F" d="M42.5,17c-1.1-2.5-0.6-6.2-2.5-8.1C38.1,7,34.5,7.5,32,6.5c-2.4-1-4.7-4-7.5-4s-5,3-7.5,4
		C14.5,7.5,10.9,7,8.9,8.9C7,10.9,7.5,14.5,6.5,17c-1,2.4-4,4.7-4,7.5c0,2.8,3,5,4,7.5c1.1,2.5,0.6,6.2,2.5,8.1
		c1.9,1.9,5.6,1.4,8.1,2.5c2.4,1,4.7,4,7.5,4s5-3,7.5-4c2.5-1.1,6.2-0.6,8.1-2.5c1.9-1.9,1.4-5.6,2.5-8.1c1-2.4,4-4.7,4-7.5
		S43.5,19.5,42.5,17z M24.5,37.2c-7,0-12.7-5.7-12.7-12.7c0-7,5.7-12.7,12.7-12.7s12.7,5.7,12.7,12.7C37.2,31.5,31.5,37.2,24.5,37.2
		z"/>
	<path fill="#F2F2F2" d="M8.8,22.6C8.8,22.6,8.8,22.6,8.8,22.6l-4,0c-0.4,0-0.8-0.4-0.8-0.8c0-0.4,0.3-0.8,0.8-0.8c0,0,0,0,0,0l4,0
		c0.4,0,0.8,0.4,0.8,0.8C9.5,22.3,9.2,22.6,8.8,22.6z"/>
	<path fill="#F2F2F2" d="M16.5,10.7c-0.3,0-0.5-0.2-0.7-0.4L14,6.7c-0.2-0.4,0-0.8,0.3-1c0.4-0.2,0.8,0,1,0.3l1.8,3.6
		C17.4,9.9,17.3,10.7,16.5,10.7z"/>
	<path fill="#FFD15C" d="M36.4,8C36.4,8,36.4,8,36.4,8l-4.1-0.2c-0.4,0-0.7-0.4-0.7-0.8c0-0.4,0.4-0.7,0.8-0.7l4,0.2
		c0.4,0,0.7,0.4,0.7,0.8C37.1,7.7,36.8,8,36.4,8z"/>
	<path fill="#FFD15C" d="M36,36c-0.4-0.2-0.6-0.6-0.4-1l1.6-3.7c0.2-0.4,0.6-0.6,1-0.4c0.4,0.2,0.6,0.6,0.4,1l-1.6,3.7
		C36.9,35.9,36.5,36.2,36,36z"/>
	<path fill="#F2F2F2" d="M19.1,46c-0.3-0.3-0.3-0.8,0-1.1l2.8-2.8c0.3-0.3,0.8-0.3,1.1,0c0.3,0.3,0.3,0.8,0,1.1L20.2,46
		C20,46.2,19.4,46.3,19.1,46z"/>
	<path fill="#84DBFF" d="M39.9,18.6l-2-3.5c-0.2-0.4-0.1-0.8,0.3-1c0.4-0.2,0.8-0.1,1,0.3l2,3.5c0.2,0.4,0.1,0.8-0.3,1
		C40.6,19.1,40.1,19,39.9,18.6z"/>
	<path fill="#84DBFF" d="M10.8,36.7l-2-3.5c-0.2-0.4-0.1-0.8,0.3-1c0.4-0.2,0.8-0.1,1,0.3l2,3.5c0.2,0.4,0.1,0.8-0.3,1
		C11.5,37.2,11,36.9,10.8,36.7z"/>
	<circle fill="#FF7058" cx="33.7" cy="39.2" r="1.3"/>
	<circle fill="#F2F2F2" cx="45.2" cy="30.1" r="1.3"/>
	<circle fill="#FFD15C" cx="5.4" cy="31.5" r="1.3"/>
	<circle fill="#FF7058" cx="24.8" cy="9.5" r="1.3"/>
	<circle fill="#84DBFF" cx="7.4" cy="12.6" r="1.3"/>
</g>
</svg>
