<?xml version="1.0" encoding="utf-8"?>
<!-- Generator: Adobe Illustrator 18.0.0, SVG Export Plug-In . SVG Version: 6.00 Build 0)  -->
<!DOCTYPE svg PUBLIC "-//W3C//DTD SVG 1.1//EN" "http://www.w3.org/Graphics/SVG/1.1/DTD/svg11.dtd">
<svg version="1.1" id="Layer_1" xmlns="http://www.w3.org/2000/svg" xmlns:xlink="http://www.w3.org/1999/xlink" x="0px" y="0px"
	 viewBox="0 0 48 48" enable-background="new 0 0 48 48" xml:space="preserve">
<g>
	<g>
		<g>
			<g>
				<g>
					<g>
						<path fill="#FFD15C" d="M4.5,48l2.8,0c0.2-1.1,0.4-2.1,0.6-2.6c0.6-1.1,1-4.8,1-4.8l-4.2-0.8c-0.6,1.7-0.5,6.3-0.5,6.3
							S4.5,46.9,4.5,48z"/>
					</g>
				</g>
			</g>
			<g>
				<g>
					<path fill="#F5B54C" d="M17.8,9.7l0.2,0.8c0,0-0.5,2.9-0.9,4c-0.4,1-0.9,1.9-1.4,2.2l-0.8,5.6l5.9,4.7l5-4.3l1.1-4.4l-2.5-2.5
						l-2.3-5.7C20.5,9.3,18.1,5.6,17.8,9.7z"/>
				</g>
			</g>
			<g>
				<g>
					<path fill="#FFFFFF" d="M29.9,47.9l-0.1-28l-3.8,0c-1.4,1.4-3.3,2.3-5.4,2.3c-2.1,0-4-0.8-5.4-2.2l-3.4,0L12,48L29.9,47.9z"/>
				</g>
			</g>
			<g>
				<g>
					<path fill="#48B9A5" d="M27.6,26.4l-0.4,13.2l1.3,8.3l3.1,0l-0.2-5.2l0.2-8.6l-0.1-6.9l5.2,5.1l0,0c0.5,1.3,2.9,1.3,2.9,1.3
						l1.5-6.1c-0.2-0.7-1.4-1.2-1.4-1.2s0-0.6-0.9-0.6c-0.9,0-1.2-1.1-1.2-1.1s-0.7-1.5-1.3-1.6c-0.5-0.2-1.1-0.7-1.1-0.7
						s-0.3-0.9-1-1.3c-0.7-0.4-1-1-1-1c-1.7-2.4-5.9-3-5.9-3s-0.8,0.1-1.1-0.1c-0.3-0.2-1.4-0.6-1.4-0.6l-0.3,1.6l0.9,2.8L27.6,26.4
						z"/>
				</g>
			</g>
			<g>
				<g>
					<path fill="#48B9A5" d="M4.5,37.9l5.2,1.4c0,0,0.5-0.9-0.2-1.6c0,0,1-0.2,0.9-1.3c0,0,0.3,0.3,0.4-0.3c0,0,0.2,2.3,0.1,3
						c-0.1,0.8-0.6,3.8-0.6,6.2c0,1.1,0,2-0.1,2.6l6,0l-0.6-7.4l-1-6.9c0,0-1.2-3.8-0.2-6.7c1-2.9,1.3-3.5,1.3-3.5s0.6-2.6,0.2-4
						c-0.3-1.4-0.7-2.1-0.7-2.1l-0.3-0.8c0,0-2.1,1-3,1.4c-0.9,0.3-4.7,1.9-5.3,5.9c0,0-1.7,7.6-1.2,9.4c0,0-0.6,0.8-0.4,1.6
						c0.2,0.8-0.4,0.5-0.4,0.5S4.4,36,5,36.1c0.6,0.1-0.4,0.6-0.4,0.6s-0.3,0.2,0,0.6C4.9,37.7,4.5,37.9,4.5,37.9z"/>
				</g>
			</g>
			<g>
				<g>
					<g>
						<path fill="#344A5E" d="M26.8,30.9c0,2.5,0.2,9.5,0.2,9.5s0.3,4.5,0.7,7.5l1.3,0l-0.4-4.3c0,0-0.6-7-0.6-7.7
							c0-0.7,0-7.1,0-7.1s0-5-0.6-6c-1-1.6-1.6-3.3-1.6-3.3l-0.4-0.4c0,0-0.3,0.3-0.3,0.8l1,2.5C26.4,23.1,26.8,28.5,26.8,30.9z"/>
					</g>
				</g>
			</g>
			<g>
				<g>
					<path fill="#344A5E" d="M15.7,16.5c-0.1-0.8,0.4-1.7,1.1-2.1l0.3-0.2c0,0-0.2,1.2-1.4,2.6C15.7,16.9,15.7,16.6,15.7,16.5z"/>
				</g>
			</g>
			<g>
				<g>
					<polygon fill="#425A6B" points="23.9,15.8 25.1,15.8 27.6,21.1 25.3,19.4 25.1,20 					"/>
				</g>
			</g>
			<g>
				<g>
					<path fill="#344A5E" d="M15.5,41.6c0,0,0.3,3.5,0.5,6.4l0.4,0c-0.2-2.3-0.2-6.2-0.2-6.2L15,34.2l-0.4-2.8
						c-0.3-1.8-0.1-3.5,0.6-5.2c0.1-0.3,0.2-0.5,0.3-0.8c1.3-3,1-3.5,0.8-4.9c-0.2-1.4-0.3-3.8-0.3-4.7l-0.5,1.3l0.1,0.5l0,2
						c0,0,0.3,1,0.2,1.8c-0.2,0.8-1.2,3.5-1.2,3.5s-0.5,2.2-0.6,3.4c-0.1,1.2,0,5.6,0,5.6L15.5,41.6z"/>
				</g>
			</g>
			<g>
				<g>
					<path fill="#FFD15C" d="M28.1,4.9l0,0.6c0,0,0.1,2.4,0,2.7c0,0,0.2,0.5-0.1,0.7c-0.3,0.3-0.3,0.3-0.3,0.3s0.1,0.5-0.2,0.6
						c-0.3,0.1-0.2,0.4-0.2,0.4s0.2,0.9-0.1,1.4c0,0,0.1,0.7-0.3,0.9c0,0-0.1,0.4,0,0.7c0,0,0.1,0.6-0.6,1.1
						c-0.8,0.5-0.9,1.5-0.9,1.5s-0.4,1.3-2.2,0.6c-0.6-0.3-1.2-0.6-1.7-0.9c-1.7-1-2.9-2.8-3-4.8c0-0.3,0-0.7,0.1-1l-0.3-2.4
						l0.1-1.3C18.3,5.7,23.2-3,28.1,4.9z"/>
				</g>
			</g>
			<g>
				<g>
					<path fill="#425A6B" d="M18.4,7c0.3-0.5,0.7-0.3,1,0c0.5,0.6,0.6,1.5,0.5,2.3c0,0.4-0.1,0.7-0.2,1l1,0c0-0.3-0.1-0.6-0.1-0.8
						c0-0.7,0.1-1.4,0.5-1.9c0.2-0.2,0.4-0.4,0.6-0.5c0.7-0.2,1.2-0.7,1-1.8c-0.2-1.1,0.5-1.2,2.1-1.1c1.6,0.2,3.3,1.2,3.3,1.2
						c1.1-1.2,0.4-2.5-0.5-3.5c-1.3-1.4-3.2-2.1-5.1-1.9c-3.1,0.2-4.2,2.3-4.2,2.3c-2.2,3.5-0.4,8.2-0.4,8.2S17.7,8.2,18.4,7z"/>
				</g>
			</g>
			<g>
				<g>
					<path fill="#F5B54C" d="M19.1,10.2c0-0.9-0.7-2.3-1.2-1.4C17.9,9.1,18.5,11.2,19.1,10.2z"/>
				</g>
			</g>
			<g>
				<g>
					<path fill="#FFD15C" d="M19.4,10c0,0-0.8,0.7-1.3-0.5c0,0-0.2-0.5-0.5-0.9c-0.2-0.4-0.4-2.4,0.9-2.1c0,0,0.4,0.2,0.8,0.9l0.2,2
						L19.4,10"/>
				</g>
			</g>
			<g>
				<g>
					<g>
						<path fill="#F5B54C" d="M18.4,8.7C18.5,8.8,18.7,9,18.9,9c0.1,0,0.1,0,0.2,0c0.1,0,0.1-0.1,0.1-0.2c0.1,0,0.1,0.1,0.1,0.2
							c0,0.1-0.1,0.2-0.2,0.2c-0.1,0-0.2,0-0.3-0.1c-0.2-0.1-0.4-0.3-0.5-0.5c-0.1-0.2-0.2-0.5,0-0.6c0.1-0.1,0.2-0.2,0.3-0.2
							c0.1,0,0.3,0,0.4,0c0-0.2,0-0.4-0.1-0.5s-0.2-0.3-0.3-0.4c-0.2-0.1-0.4-0.1-0.5,0C18,7,17.9,7.2,17.9,7.4
							c-0.1,0.4-0.1,0.9,0.1,1.3c-0.2-0.4-0.3-0.9-0.3-1.3c0-0.2,0.1-0.5,0.2-0.6c0.2-0.2,0.5-0.1,0.7,0c0.2,0.1,0.4,0.4,0.4,0.6
							c0.1,0.2,0.1,0.4,0.1,0.6c-0.2-0.2-0.4-0.2-0.6,0C18.4,8.1,18.3,8.4,18.4,8.7"/>
					</g>
				</g>
			</g>
			<g>
				<g>
					<g>
						<path fill="#F5B54C" d="M19.1,7.9c0.1,0.2,0.1,0.3,0.1,0.5c0,0.1,0,0.3,0,0.4c0,0.1,0,0.2,0,0.3c0,0,0,0.1-0.1,0.1
							c0-0.2,0-0.4-0.1-0.5c0,0-0.1-0.1-0.1-0.1c0,0,0-0.1,0-0.1c0-0.1,0.1-0.1,0.1-0.1c0.1-0.1,0.1-0.1,0.1-0.2
							C19.1,8,19.1,7.9,19.1,7.9"/>
					</g>
				</g>
			</g>
			<g>
				<g>
					<path fill="#F5B54C" d="M35.7,26.9c0,0,1.2,0.1,2,0.5c0.8,0.4,2.2,0.4,2.2,0.4s1.4-0.1,2.2,0.8c0.8,0.9,1.1,2.3,1.1,2.3
						l-0.9,1.6l-1.8,1.1c0,0-1.7-0.2-2.5-1.3c-0.8-1.1-2.1-1.9-2.1-1.9l-1.1-0.3L35.7,26.9z"/>
				</g>
			</g>
			<g>
				<g>
					<path fill="#F5B54C" d="M35.7,26.7"/>
				</g>
			</g>
			<g>
				<g>
					<path fill="#8AD6F7" d="M39.2,27.7c0,0,1.5,0,2.1,0.5s1.3,1.7,1.3,1.7s0.3,0.6,0.1,1c-0.2,0.5-1,1.6-1.5,1.8
						c-0.5,0.2-1.7,0.5-2.6,0c0,0,0.7,1.1,2.2,0.8c1.6-0.3,2.4-1.1,2.4-1.1s0.9-1.7,0.5-2.6c-0.4-1-2-2.1-2.7-2.3
						C40.2,27.3,39,27.5,39.2,27.7z"/>
				</g>
			</g>
			<g>
				<g>
					<path fill="#E8EAE8" d="M36.9,27.2l0.4-0.4c0,0,0.1-0.4-0.1-0.5c-0.2-0.1-0.5-0.1-0.5-0.1l0,0c-0.1-0.2-0.3-0.3-0.5-0.2
						c-0.4,0.1-1.2,0.2-1.6,0.4c-0.7,0.3-0.7,0.3-0.7,0.3l1.8,0.4C36.2,27,36.6,27,36.9,27.2z"/>
				</g>
			</g>
			<g>
				<g>
					<path fill="#CED6E0" d="M37.1,27l-0.2,0.2C36.6,27,36.2,27,35.7,27L35,26.8c-0.1-0.1,0-0.2,0.3-0.1c1,0.1,1.1-0.4,1.1-0.4
						c0.4,0,0.5,0.4,0.6,0.4C37,26.8,37.1,26.9,37.1,27z"/>
				</g>
			</g>
			<g>
				<g>
					<g>
						<path fill="#344A5E" d="M37.5,29.1c-0.1,0.3-0.2,0.5-0.4,0.8c-0.9,1-2.3,0.7-2.3,0.7l0.2-0.2c1.7-0.1,1.9-1.4,2.1-2
							c0.2-0.5-0.4-1.6-0.5-1.7c-0.1-0.1-0.1-0.4-0.1-0.4l0.8,0.1c0,0.1,0.1,0.4,0.3,1C37.8,28,37.6,28.7,37.5,29.1z"/>
					</g>
				</g>
				<g>
					<g>
						<path fill="#344A5E" d="M37.3,26.4"/>
					</g>
				</g>
			</g>
			<g>
				<g>
					<g>
						<path fill="#425A6B" d="M34.6,30.4c0,0,1.1,0.2,1.6-0.1c0.5-0.4,1-1.1,1-1.1s1.3-0.8,0.8-0.2c-0.4,0.7-1,1.8-2.1,1.8
							c-1,0-1.4-0.2-1.4-0.2L34.6,30.4z"/>
					</g>
				</g>
			</g>
			<g>
				<g>
					<path fill="#FFD15C" d="M30.1,32c0,0-0.2,0.8,0.9,0.6c0,0,0.8-0.3,0.9-0.4l0.1-0.1c0,0,0.5,0.2,0.7,0s0.2-0.3,0.2-0.3
						s0.3,0.1,0.5-0.1c0,0,0.2-0.2,0.2-0.3c0,0,0.9-0.3,1.2-0.5c0,0,1.7-0.7,2.2-1.6c0.5-1-0.3-2.1-1-2.4c-0.7-0.3-1.6-0.6-1.6-0.6
						s-0.5-0.4-1.2,0c0,0-0.6-0.4-1.2,0.3c0,0-1.2-0.4-1.4,0.9c0,0-0.2,0-0.6,0.4c-0.4,0.5-1,1.2-1,1.2s-0.4,0.3-0.1,1
						C29.2,30.7,30.1,32,30.1,32z"/>
				</g>
			</g>
			<g>
				<g>
					<path fill="#F5B54C" d="M33.5,27.4c0,0,0.3-0.1,0.4-0.4c0,0,0.1,0.2-0.1,0.4c0,0,0.3,0.6,0.8,0.2C35,27.1,35,27,35,27
						s0,0.6-0.9,1c0,0,0.5,0.5,1.5,0.5c0,0-1.5-0.1-1.8-0.2c0,0-0.4,0.2-0.3,0.6C33.4,28.3,33.4,27.8,33.5,27.4z"/>
				</g>
			</g>
			<g>
				<g>
					<g>
						<path fill="#F5B54C" d="M33.1,31.8c-0.2-0.2-0.4-0.4-0.6-0.6c-0.1-0.1-0.2-0.2-0.3-0.3c-0.1-0.1-0.2-0.3-0.2-0.4
							c-0.3-0.5-0.6-1-0.9-1.5l0,0l0,0c0-0.1,0-0.2,0-0.3c0-0.1,0-0.2,0-0.3c0-0.1,0.1-0.2,0.1-0.3c0-0.1,0.1-0.2,0.1-0.3
							c0.2-0.4,0.4-0.7,0.7-1.1c-0.2,0.4-0.4,0.8-0.6,1.1c0,0.1-0.1,0.2-0.1,0.3c0,0.1-0.1,0.2-0.1,0.3c0,0.1,0,0.2,0,0.3
							c0,0.1,0,0.2,0,0.3l0,0c0.3,0.5,0.6,1,0.9,1.5c0.1,0.1,0.1,0.3,0.2,0.4c0.1,0.1,0.2,0.2,0.3,0.4
							C32.7,31.3,32.9,31.6,33.1,31.8z"/>
					</g>
				</g>
				<g>
					<g>
						<path fill="#F5B54C" d="M33.3,30c-0.2,0-0.3,0-0.5,0c-0.1,0-0.2,0-0.2-0.1c-0.1,0-0.1-0.1-0.2-0.2c-0.1-0.1-0.1-0.2-0.1-0.2
							c0-0.1,0-0.2,0-0.2c0-0.2,0-0.3,0-0.5c0-0.3,0-0.6,0-0.9c0-0.3,0-0.6,0-0.9l0,0l0,0l0.6-0.4c0.2-0.1,0.4-0.3,0.6-0.4
							c-0.2,0.2-0.4,0.3-0.5,0.5L32.3,27l0,0c0,0.3,0,0.6,0,0.9c0,0.3,0,0.6,0,0.9c0,0.2,0,0.3,0,0.5c0,0.1,0,0.1,0,0.2
							c0,0.1,0,0.1,0.1,0.2c0.1,0.1,0.2,0.2,0.4,0.2C33,30,33.2,30,33.3,30z"/>
					</g>
				</g>
				<g>
					<g>
						<path fill="#F5B54C" d="M31.5,31.7c-0.3-0.3-0.5-0.6-0.8-1c-0.1-0.2-0.3-0.3-0.4-0.5c-0.1-0.2-0.3-0.3-0.4-0.5l0,0l0,0
							c0-0.1-0.1-0.2-0.1-0.3c0-0.1,0-0.2,0-0.3c0-0.1,0-0.2,0.1-0.3c0-0.1,0.1-0.2,0.1-0.3c0.2-0.4,0.3-0.7,0.5-1.1
							c-0.1,0.4-0.2,0.7-0.4,1.1c0,0.1-0.1,0.2-0.1,0.3c0,0.1-0.1,0.2-0.1,0.3c0,0.1,0,0.2,0,0.3c0,0.1,0,0.2,0.1,0.3l0,0
							c0.1,0.2,0.2,0.3,0.4,0.5c0.1,0.2,0.3,0.3,0.4,0.5C31,31,31.3,31.3,31.5,31.7z"/>
					</g>
				</g>
				<g>
					<g>
						<path fill="#F5B54C" d="M31,31.6C31,31.6,31,31.6,31,31.6c0,0.2,0,0.2-0.1,0.3c0,0.1-0.1,0.1-0.1,0.1c-0.1,0-0.1,0.1-0.2,0.1
							c0,0-0.1,0-0.1,0c0,0-0.1,0-0.1,0c-0.1,0-0.1-0.1-0.2-0.1c-0.3-0.1-0.5-0.3-0.6-0.5c-0.1-0.2-0.2-0.3-0.2-0.3s0,0,0.1,0.1
							c0,0,0.1,0.1,0.2,0.2c0.2,0.1,0.4,0.3,0.6,0.4c0.1,0,0.1,0.1,0.2,0.1c0.1,0,0.1,0,0.2,0c0.1,0,0.2-0.1,0.2-0.1
							C30.9,31.8,30.9,31.7,31,31.6C31,31.6,31,31.6,31,31.6z"/>
					</g>
				</g>
			</g>
			<g>
				<g>
					<g>
						<path fill="#8AD6F7" d="M4.3,37.8c0,0,0.4-0.5,1.2-0.1c0.5,0.2,2.1,0.7,3.1,1C9,38.7,9.4,39,9.7,39.4c0,0,0,0,0.1,0.1
							c0.2,0.3,0.6,1.2-0.1,1.6c0,0-0.3,0.1-0.6,0c-0.4-0.2-0.8-0.2-1.1-0.2l-0.4,0c0,0-3.2-0.2-3.3-0.4C4.3,40.4,4.2,38,4.3,37.8z"
							/>
					</g>
				</g>
			</g>
		</g>
		<g>
			<g>
				<path fill="#425A6B" d="M17.1,14.3c-0.4,0.3-1.2,1-1.3,3.1l-0.1,2.2c0,0-0.1-0.2-0.5,0.3c-0.4,0.5-1.4,1.1-1.9,1.2
					c0,0,0.3-1.7,0.6-2.8c0,0,0,0,0-0.1c0.2-0.7,0.6-1.4,1.1-1.9c0.4-0.5,1-1.2,1.1-1.5C16.1,14.6,16.8,14.4,17.1,14.3z"/>
			</g>
		</g>
	</g>
</g>
</svg>
