<?xml version="1.0" encoding="utf-8"?>
<!-- Generator: Adobe Illustrator 16.0.0, SVG Export Plug-In . SVG Version: 6.00 Build 0)  -->
<!DOCTYPE svg PUBLIC "-//W3C//DTD SVG 1.1//EN" "http://www.w3.org/Graphics/SVG/1.1/DTD/svg11.dtd">
<svg version="1.1" id="Layer_1" xmlns="http://www.w3.org/2000/svg" xmlns:xlink="http://www.w3.org/1999/xlink" x="0px" y="0px"
	 width="48px" height="48px" viewBox="0 0 48 48" enable-background="new 0 0 48 48" xml:space="preserve">
<g>
	<rect x="16.902" y="28.556" fill="#F8B64C" width="14.186" height="11.668"/>
	<rect x="13.561" y="39.395" fill="#54C0EB" width="20.87" height="8.54"/>
	<path fill="#40596B" d="M48,42.445v5.49H29.7l0.78-8.54l0.609-6.73v-0.03l13.971,5.49C46.83,38.825,48,40.535,48,42.445"/>
	<path fill="#40596B" d="M18.301,47.935H0v-5.49c0-1.91,1.16-3.62,2.94-4.32l13.97-5.49v0.03l0.609,6.73L18.301,47.935z"/>
	<path fill="#334A5E" d="M34.43,42.865c-0.1,0.04-0.119,0.18-0.039,0.26l0.039,0.04l4.851,4.77H29.7l0.78-8.54l0.609-6.73l8.99,7.43
		c0.09,0.07,0.07,0.22-0.04,0.27L34.43,42.865z"/>
	<path fill="#334A5E" d="M18.301,47.935h-9.58l4.84-4.76l0.05-0.05c0.08-0.08,0.05-0.22-0.05-0.26l-5.61-2.5
		c-0.11-0.05-0.13-0.2-0.04-0.27l9-7.43l0.609,6.73L18.301,47.935z"/>
	<g opacity="0.1">
		<g>
			<defs>
				<rect id="SVGID_1_" x="20.182" y="28.551" width="10.906" height="8.19"/>
			</defs>
			<clipPath id="SVGID_2_">
				<use xlink:href="#SVGID_1_"  overflow="visible"/>
			</clipPath>
			<polygon clip-path="url(#SVGID_2_)" fill="#40596B" points="31.088,28.556 31.086,32.665 26.021,36.744 20.182,32.403 
				23.299,28.556 			"/>
		</g>
	</g>
	<path fill="#F8B64C" d="M16.474,19.261c0.157,1.795-0.714,3.338-1.944,3.445c-1.232,0.108-2.358-1.26-2.516-3.055
		c-0.156-1.795,0.714-3.338,1.945-3.445C15.191,16.098,16.316,17.466,16.474,19.261"/>
	<path fill="#F8B64C" d="M35.98,19.651c-0.158,1.795-1.283,3.163-2.515,3.055c-1.231-0.107-2.103-1.65-1.946-3.445
		c0.157-1.795,1.283-3.163,2.516-3.055C35.266,16.313,36.137,17.856,35.98,19.651"/>
	<path fill="#FFD15C" d="M34.355,14.565v3.4c-0.01,0.72-0.051,1.44-0.141,2.15c-0.149,1.18-0.399,2.34-0.75,3.46
		c-0.85,2.71-2.279,5.21-4.209,7.32l-0.99,1.08c-0.9,0.99-2.18,1.55-3.521,1.55h-1.5c-1.33,0-2.61-0.57-3.51-1.55l-0.979-1.08
		c-1.371-1.49-2.49-3.19-3.32-5c-0.84-1.82-1.4-3.77-1.641-5.78c-0.09-0.71-0.14-1.43-0.14-2.15c-0.011-0.08-0.011-0.15-0.011-0.23
		v-3.11c0-0.98,0.141-1.94,0.4-2.84c1.23-4.33,5.221-7.51,9.961-7.51c4.729,0,8.719,3.18,9.949,7.51
		C34.215,12.665,34.355,13.605,34.355,14.565"/>
	<polygon fill="#84DBFF" points="23.997,38.386 31.088,32.633 30.02,44.434 	"/>
	<polygon fill="#84DBFF" points="23.997,38.386 16.906,32.633 17.975,44.434 	"/>
	<path fill="#FF7058" d="M35.542,12.626v0.655h-23.09v-0.655c0-3.991,2.097-7.495,5.251-9.463c1.713-1.075,3.743-1.699,5.911-1.699
		h0.766c2.169,0,4.194,0.619,5.906,1.694C33.439,5.128,35.542,8.632,35.542,12.626"/>
	<path fill="#F1543F" d="M30.684,6.375l-0.84,6.906l-0.133,1.106H18.283l-0.133-1.106l-0.84-6.906
		c-0.133-1.097,0.004-2.199,0.393-3.212c1.713-1.075,3.743-1.699,5.911-1.699h0.765c2.168,0,4.195,0.619,5.907,1.695
		C30.676,4.172,30.817,5.273,30.684,6.375"/>
	<path fill="#FF7058" d="M28.731,13.282h-9.47l-0.854-7.039C18,2.889,20.618-0.066,23.997-0.066c3.378,0,5.996,2.955,5.589,6.309
		L28.731,13.282z"/>
	<path fill="#F1543F" d="M35.551,16.469H12.442c-0.88,0-1.593-0.714-1.593-1.594s0.713-1.594,1.593-1.594h23.108
		c0.881,0,1.594,0.714,1.594,1.594S36.432,16.469,35.551,16.469"/>
	<path fill="#F8B64C" d="M34.355,16.465v1.5h-20.7c-0.011-0.08-0.011-0.15-0.011-0.23v-1.27H34.355z"/>
</g>
</svg>
