<?xml version="1.0" encoding="utf-8"?>
<!-- Generator: Adobe Illustrator 18.0.0, SVG Export Plug-In . SVG Version: 6.00 Build 0)  -->
<!DOCTYPE svg PUBLIC "-//W3C//DTD SVG 1.1//EN" "http://www.w3.org/Graphics/SVG/1.1/DTD/svg11.dtd">
<svg version="1.1" id="Layer_1" xmlns="http://www.w3.org/2000/svg" xmlns:xlink="http://www.w3.org/1999/xlink" x="0px" y="0px"
	 viewBox="0 0 48 48" enable-background="new 0 0 48 48" xml:space="preserve">
<g>
	<g>
		<g>
			<path fill="#F3F3F3" d="M17.7,45l23.9-23.9L26.9,6.4L3,30.3c-4,4-4,10.6,0,14.6l0,0C7.1,49,13.6,49,17.7,45z"/>
			<g>
				<path fill="#FFD15C" d="M18.4,20.9L6,33.3c-2.4,2.4-2.4,6.3,0,8.8c2.4,2.4,6.3,2.4,8.8,0l12.4-12.4L18.4,20.9z"/>
			</g>
		</g>
		<g>
			
				<rect x="30.8" y="4.8" transform="matrix(-0.7071 0.7071 -0.7071 -0.7071 66.7687 2.6904)" fill="#E8EAE9" width="4" height="20.7"/>
		</g>
		<g>
			<path fill="#F3F3F3" d="M41.4,21.2L26.8,6.6c-1.5-1.5-1.5-3.9,0-5.5s3.9-1.5,5.5,0l14.6,14.6c1.5,1.5,1.5,3.9,0,5.5
				C45.4,22.7,42.9,22.7,41.4,21.2z"/>
		</g>
		<g>
			<circle fill="#F7B64C" cx="13.2" cy="31.4" r="2"/>
		</g>
		<g>
			<circle fill="#F7B64C" cx="13.7" cy="38.6" r="1.3"/>
		</g>
		<g>
			<circle fill="#FFD15C" cx="27.1" cy="17.5" r="1.5"/>
		</g>
		<g>
			<circle fill="#FFD15C" cx="27.6" cy="24.7" r="1.3"/>
		</g>
	</g>
</g>
</svg>
