<?xml version="1.0" encoding="utf-8"?>
<!-- Generator: Adobe Illustrator 20.1.0, SVG Export Plug-In . SVG Version: 6.00 Build 0)  -->
<!DOCTYPE svg PUBLIC "-//W3C//DTD SVG 1.1//EN" "http://www.w3.org/Graphics/SVG/1.1/DTD/svg11.dtd">
<svg version="1.1" id="Layer_1" xmlns="http://www.w3.org/2000/svg" xmlns:xlink="http://www.w3.org/1999/xlink" x="0px" y="0px"
	 viewBox="0 0 49 49" enable-background="new 0 0 49 49" xml:space="preserve">
<g>
	<g>
		<path fill="#F2F2F2" d="M43.7,26.1v20.4c0,1.1-0.9,2-2,2H7.3c-1.1,0-2-0.9-2-2V26.1L24.5,6.9L43.7,26.1z"/>
		<path fill="#334A5E" d="M37.9,16.3h-5c-0.1,0-0.2-0.1-0.2-0.2V3.2c0-0.1,0.1-0.2,0.2-0.2h5c0.1,0,0.2,0.1,0.2,0.2v12.9
			C38.1,16.2,38,16.3,37.9,16.3z"/>
		<path fill="#E2E2E2" d="M43.7,26.1V28c-0.3-0.2-0.6-0.4-0.8-0.6L24.5,9L6.1,27.4c-0.3,0.3-0.5,0.5-0.8,0.6v-1.9L24.5,6.9
			L43.7,26.1z"/>
		
			<rect x="15.3" y="32.6" transform="matrix(-1.836970e-16 1 -1 -1.836970e-16 63.8086 14.8012)" fill="#54C0EB" width="18.4" height="13.3"/>
		<path fill="#FF7058" d="M24.5,16L24.5,16c-2,0-3.7,1.6-3.7,3.6c0,2,1.6,3.6,3.6,3.6h0c2,0,3.6-1.6,3.6-3.6
			C28.1,17.6,26.5,16,24.5,16z"/>
	</g>
	<path fill="#40596B" d="M3.2,27.1c-0.7,0-1.4-0.3-1.9-0.8c-1-1-1-2.7,0-3.7L22.6,1.3c1-1,2.7-1,3.7,0l21.3,21.3c1,1,1,2.7,0,3.7
		c-1,1-2.7,1-3.7,0L24.5,6.9L5.1,26.3C4.5,26.8,3.9,27.1,3.2,27.1z"/>
</g>
</svg>
