<?xml version="1.0" encoding="utf-8"?>
<!-- Generator: Adobe Illustrator 18.0.0, SVG Export Plug-In . SVG Version: 6.00 Build 0)  -->
<!DOCTYPE svg PUBLIC "-//W3C//DTD SVG 1.1//EN" "http://www.w3.org/Graphics/SVG/1.1/DTD/svg11.dtd">
<svg version="1.1" id="Layer_1" xmlns="http://www.w3.org/2000/svg" xmlns:xlink="http://www.w3.org/1999/xlink" x="0px" y="0px"
	 viewBox="0 0 48 48" enable-background="new 0 0 48 48" xml:space="preserve">
<g>
	<path fill="#CDD6E0" d="M46,45.9H2c-1.1,0-2-0.9-2-2V2c0-1.1,0.9-2,2-2h44c1.1,0,2,0.9,2,2v41.9C48,45,47.1,45.9,46,45.9z"/>
	<rect x="6" y="6" fill="#40596B" width="36" height="33.9"/>
	<rect x="4" y="45.9" fill="#ACB3BA" width="6.1" height="2.1"/>
	<rect x="37.9" y="45.9" fill="#ACB3BA" width="6.1" height="2.1"/>
	<circle fill="#CDD6E0" cx="16.9" cy="23" r="7.4"/>
	<circle fill="#40596B" cx="16.9" cy="23" r="2.9"/>
	<g>
		<circle fill="#ACB3BA" cx="16.9" cy="17.8" r="0.7"/>
		<circle fill="#ACB3BA" cx="16.9" cy="28.1" r="0.7"/>
		<circle fill="#ACB3BA" cx="20.5" cy="19.3" r="0.7"/>
		<circle fill="#ACB3BA" cx="13.2" cy="26.6" r="0.7"/>
		<circle fill="#ACB3BA" cx="22" cy="23" r="0.7"/>
		<circle fill="#ACB3BA" cx="11.7" cy="23" r="0.7"/>
		<circle fill="#ACB3BA" cx="20.5" cy="26.6" r="0.7"/>
		<circle fill="#ACB3BA" cx="13.2" cy="19.3" r="0.7"/>
	</g>
	<path fill="#FF7058" d="M16.1,22.3c-0.4,0.4-0.4,1,0,1.4c0.4,0.4,1,0.4,1.4,0c0.4-0.4,2.1-3.4,2.1-3.4S16.5,21.9,16.1,22.3z
		 M16.6,22.6c0.2-0.2,0.5-0.2,0.7,0c0.2,0.2,0.2,0.5,0,0.7c-0.2,0.2-0.5,0.2-0.7,0C16.4,23.1,16.4,22.8,16.6,22.6z"/>
	<path fill="#CDD6E0" d="M37.5,30.5h-0.2V15.4h0.2c0.7,0,1.2-0.6,1.2-1.2c0-0.7-0.6-1.2-1.2-1.2H34c-0.7,0-1.2,0.6-1.2,1.2
		c0,0.7,0.6,1.2,1.2,1.2h0.2v15.2H34c-0.7,0-1.2,0.6-1.2,1.2c0,0.7,0.6,1.2,1.2,1.2h3.5c0.7,0,1.2-0.6,1.2-1.2
		C38.7,31.1,38.2,30.5,37.5,30.5z"/>
</g>
</svg>
