<?xml version="1.0" encoding="utf-8"?>
<!-- Generator: Adobe Illustrator 18.0.0, SVG Export Plug-In . SVG Version: 6.00 Build 0)  -->
<!DOCTYPE svg PUBLIC "-//W3C//DTD SVG 1.1//EN" "http://www.w3.org/Graphics/SVG/1.1/DTD/svg11.dtd">
<svg version="1.1" id="Layer_1" xmlns="http://www.w3.org/2000/svg" xmlns:xlink="http://www.w3.org/1999/xlink" x="0px" y="0px"
	 viewBox="0 0 48 48" enable-background="new 0 0 48 48" xml:space="preserve">
<g>
	<path fill="#ACB3BA" d="M33.4,45.8H14.6v-1.6c0-2,1.6-3.6,3.6-3.6h11.5c2,0,3.6,1.6,3.6,3.6V45.8z"/>
	<rect x="20.2" y="30.1" fill="#40596B" width="7.6" height="10.5"/>
	<rect x="20.2" y="32.5" fill="#334A5E" width="7.6" height="1.5"/>
	<path fill="#F2F2F2" d="M46.4,32.5H1.6c-1.1,0-1.8-1-1.5-2.3L5.8,3.5c0.2-0.7,0.9-1.3,1.8-1.3h32.9c0.8,0,1.6,0.6,1.8,1.3l5.7,26.7
		C48.2,31.4,47.5,32.5,46.4,32.5z"/>
	<polygon fill="#54C0EB" points="14.3,4.1 7.9,4.1 6.9,9.6 13.6,9.6 	"/>
	<polygon fill="#54C0EB" points="22.9,4.1 16.5,4.1 16.1,9.6 22.8,9.6 	"/>
	<polygon fill="#54C0EB" points="31.9,9.6 31.5,4.1 25.1,4.1 25.2,9.6 	"/>
	<path fill="#54C0EB" d="M40.1,4.1h-6.3l0.6,5.4h0.8c1.8-0.5,3.7-0.9,5.6-1.2L40.1,4.1z"/>
	<path fill="#84DBFF" d="M40.9,8.4c-1.9,0.3-3.8,0.7-5.6,1.2h5.9L40.9,8.4z"/>
	<polygon fill="#54C0EB" points="13.4,11.9 6.5,11.9 5.3,18.4 12.6,18.4 	"/>
	<path fill="#84DBFF" d="M22.7,18.4l0.1-4c-2.4,1.3-4.7,2.6-6.7,4H22.7z"/>
	<path fill="#54C0EB" d="M15.9,11.9l-0.6,6.5H16c2-1.4,4.3-2.7,6.7-4l0-2.5H15.9z"/>
	<path fill="#54C0EB" d="M25.3,11.9l0,1.3c1-0.5,2-0.9,3-1.3H25.3z"/>
	<path fill="#84DBFF" d="M32.7,18.4l-0.6-6.5h-3.8c-1,0.4-2,0.8-3,1.3l0.1,5.2H32.7z"/>
	<polygon fill="#84DBFF" points="41.5,11.9 34.6,11.9 35.4,18.4 42.7,18.4 	"/>
	<path fill="#84DBFF" d="M3.3,29.1h8.1l0.9-7.9h-0.2C7.7,24.5,4.7,27.5,3.3,29.1z"/>
	<path fill="#54C0EB" d="M3.3,29.1L3.3,29.1c1.5-1.5,4.5-4.6,8.9-7.9H4.7L3.3,29.1z"/>
	<polygon fill="#84DBFF" points="14.4,29.1 22.5,29.1 22.6,21.1 15.1,21.1 	"/>
	<polygon fill="#84DBFF" points="25.4,21.1 25.5,29.1 33.6,29.1 32.9,21.1 	"/>
	<polygon fill="#84DBFF" points="35.7,21.1 36.6,29.1 44.7,29.1 43.3,21.1 	"/>
</g>
</svg>
