<?xml version="1.0" encoding="utf-8"?>
<!-- Generator: Adobe Illustrator 16.0.0, SVG Export Plug-In . SVG Version: 6.00 Build 0)  -->
<!DOCTYPE svg PUBLIC "-//W3C//DTD SVG 1.1//EN" "http://www.w3.org/Graphics/SVG/1.1/DTD/svg11.dtd">
<svg version="1.1" id="Layer_1" xmlns="http://www.w3.org/2000/svg" xmlns:xlink="http://www.w3.org/1999/xlink" x="0px" y="0px"
	 width="48px" height="48px" viewBox="0 0 48 48" enable-background="new 0 0 48 48" xml:space="preserve">
<g>
	<path fill="#ADB3BA" d="M46.595,9.305H18.698c-0.776,0-1.405,0.629-1.405,1.405v21.713c0,0.776,0.629,1.405,1.405,1.405h27.896
		c0.775,0,1.404-0.629,1.404-1.405V10.71C47.999,9.934,47.37,9.305,46.595,9.305"/>
	<rect x="20.869" y="12.305" fill="#CED6E0" width="3.362" height="18.523"/>
	<rect x="27.601" y="12.305" fill="#CED6E0" width="3.361" height="18.523"/>
	<rect x="34.331" y="12.305" fill="#CED6E0" width="3.361" height="18.523"/>
	<rect x="41.062" y="12.305" fill="#CED6E0" width="3.362" height="18.523"/>
	<path fill="#F3705A" d="M16.405,14.436v17.95c0,0.791-0.65,1.442-1.452,1.442H1.442c-0.791,0-1.441-0.651-1.441-1.442v-5.732
		c0-0.177,0.036-0.354,0.102-0.521l4.773-12.218c0.215-0.558,0.754-0.921,1.35-0.921h8.728
		C15.755,12.994,16.405,13.636,16.405,14.436"/>
	<path fill="#344A5E" d="M13.792,14.854H7.017c-0.309,0-0.584,0.189-0.697,0.475l-3.059,7.825c-0.191,0.49,0.17,1.02,0.696,1.02
		h3.022c0.222,0,0.431-0.098,0.572-0.266l1.413-1.678c0.142-0.169,0.351-0.266,0.572-0.266h4.255c0.413,0,0.748-0.335,0.748-0.748
		v-5.614C14.54,15.189,14.205,14.854,13.792,14.854"/>
	<path fill="#344A5E" d="M13.62,25.099h-1.244c-0.328,0-0.594,0.266-0.594,0.594c0,0.328,0.266,0.594,0.594,0.594h1.244
		c0.328,0,0.595-0.266,0.595-0.594C14.215,25.365,13.948,25.099,13.62,25.099"/>
	<path fill="#213544" d="M14.247,33.828H2.149c0-3.341,2.708-6.048,6.049-6.048C11.538,27.78,14.247,30.487,14.247,33.828"/>
	<path fill="#344A5E" d="M13.067,33.828c0,2.688-2.18,4.867-4.867,4.867s-4.866-2.179-4.866-4.867s2.179-4.867,4.866-4.867
		S13.067,31.14,13.067,33.828"/>
	<path fill="#CED6E0" d="M11.225,33.828c0,1.67-1.354,3.024-3.024,3.024s-3.023-1.354-3.023-3.024S6.53,30.804,8.2,30.804
		S11.225,32.158,11.225,33.828"/>
	<path fill="#ADB3BA" d="M9.243,33.828c0,0.576-0.467,1.043-1.043,1.043s-1.043-0.467-1.043-1.043c0-0.576,0.467-1.043,1.043-1.043
		S9.243,33.252,9.243,33.828"/>
	<path fill="#213544" d="M42.88,33.828H30.782c0-3.341,2.709-6.048,6.05-6.048C40.172,27.78,42.88,30.487,42.88,33.828"/>
	<path fill="#344A5E" d="M41.7,33.828c0,2.688-2.179,4.867-4.867,4.867c-2.687,0-4.865-2.179-4.865-4.867s2.179-4.867,4.865-4.867
		C39.521,28.961,41.7,31.14,41.7,33.828"/>
	<path fill="#CED6E0" d="M39.858,33.828c0,1.67-1.354,3.024-3.024,3.024s-3.024-1.354-3.024-3.024s1.354-3.024,3.024-3.024
		S39.858,32.158,39.858,33.828"/>
	<path fill="#ADB3BA" d="M37.876,33.828c0,0.576-0.467,1.043-1.043,1.043c-0.575,0-1.043-0.467-1.043-1.043
		c0-0.576,0.468-1.043,1.043-1.043C37.409,32.785,37.876,33.252,37.876,33.828"/>
</g>
</svg>
