<?xml version="1.0" encoding="utf-8"?>
<!-- Generator: Adobe Illustrator 18.0.0, SVG Export Plug-In . SVG Version: 6.00 Build 0)  -->
<!DOCTYPE svg PUBLIC "-//W3C//DTD SVG 1.1//EN" "http://www.w3.org/Graphics/SVG/1.1/DTD/svg11.dtd">
<svg version="1.1" id="Layer_1" xmlns="http://www.w3.org/2000/svg" xmlns:xlink="http://www.w3.org/1999/xlink" x="0px" y="0px"
	 viewBox="0 0 48 48" enable-background="new 0 0 48 48" xml:space="preserve">
<g>
	<path fill="#FFD15C" d="M33.4,16.3H14.6c-0.6,0-1.2,0.3-1.6,0.7l-7.6,9c-1.7,2-2.7,4.6-2.7,7.3v8c0,1.8,1.5,3.3,3.3,3.3h36
		c1.8,0,3.3-1.5,3.3-3.3v-8c0-2.7-1-5.3-2.7-7.3L35,17C34.6,16.5,34.1,16.3,33.4,16.3z"/>
	<g>
		<rect x="15.9" y="11.5" fill="#ACB3BA" width="4.4" height="4.7"/>
		<rect x="27.6" y="11.5" fill="#ACB3BA" width="4.4" height="4.7"/>
	</g>
	<g>
		<rect x="15.5" y="21.9" fill="#FF7058" width="4.2" height="4.2"/>
		<rect x="21.8" y="21.9" fill="#FF7058" width="4.2" height="4.2"/>
		<rect x="28.3" y="21.9" fill="#FF7058" width="4.2" height="4.2"/>
		<rect x="15.5" y="28.3" fill="#FF7058" width="4.2" height="4.2"/>
		<rect x="21.8" y="28.3" fill="#FF7058" width="4.2" height="4.2"/>
		<rect x="28.3" y="28.3" fill="#FF7058" width="4.2" height="4.2"/>
		<rect x="15.5" y="34.7" fill="#FF7058" width="4.2" height="4.2"/>
		<rect x="21.8" y="34.7" fill="#FF7058" width="4.2" height="4.2"/>
		<rect x="28.3" y="34.7" fill="#FF7058" width="4.2" height="4.2"/>
	</g>
	<g>
		<path fill="#FF7058" d="M47.8,13.8c-1-4.7-4-6.9-4-6.9c-9.1-6-30.5-6-39.7,0c0,0-3,2.2-4,6.9c-0.1,0.5-0.2,1-0.1,1.5l12.1-3.1
			c0-1.4,1-2.7,2.4-3c2.2-0.6,16.9-0.6,19.1,0c1.4,0.3,2.4,1.6,2.4,3L48,15.3C48.1,14.7,47.9,14.3,47.8,13.8z"/>
		<path fill="#40596B" d="M12.1,12.2C12.1,12.2,12.1,12.1,12.1,12.2L0,15.3c0.1,0.7,0.6,1.7,1.9,3.4c0.4,0.5,1.1,0.7,1.7,0.6l7.8-2
			c0.7-0.2,1.2-0.8,1.2-1.5C12.6,14.9,12.5,13.7,12.1,12.2z"/>
		<path fill="#40596B" d="M35.9,12.1C35.9,12.1,35.9,12.2,35.9,12.1c-0.4,1.5-0.5,2.7-0.5,3.5c0,0.7,0.5,1.3,1.2,1.5l7.8,2
			c0.6,0.2,1.3-0.1,1.7-0.6c1.3-1.7,1.8-2.6,1.9-3.4L35.9,12.1z"/>
	</g>
	<g>
		<rect x="8.6" y="44.6" fill="#F8B64C" width="4.8" height="1.1"/>
		<rect x="34.6" y="44.6" fill="#F8B64C" width="4.8" height="1.1"/>
	</g>
</g>
</svg>
