<?xml version="1.0" encoding="utf-8"?>
<!-- Generator: Adobe Illustrator 18.0.0, SVG Export Plug-In . SVG Version: 6.00 Build 0)  -->
<!DOCTYPE svg PUBLIC "-//W3C//DTD SVG 1.1//EN" "http://www.w3.org/Graphics/SVG/1.1/DTD/svg11.dtd">
<svg version="1.1" id="Layer_1" xmlns="http://www.w3.org/2000/svg" xmlns:xlink="http://www.w3.org/1999/xlink" x="0px" y="0px"
	 viewBox="0 0 512 512" enable-background="new 0 0 512 512" xml:space="preserve">
<g>
	<path fill="#40596B" d="M473.7,166.3L473.7,166.3c-20,0-36.3-16.2-36.3-36.3c0,20-16.2,36.3-36.3,36.3s-36.3-16.2-36.3-36.3
		c0,20-16.2,36.3-36.3,36.3c-20,0-36.3-16.2-36.3-36.3c0,20-16.2,36.3-36.3,36.3c-20,0-36.3-16.2-36.3-36.3
		c0,20-16.2,36.3-36.3,36.3c-20,0-36.3-16.2-36.3-36.3c0,20-16.2,36.3-36.3,36.3c-20,0-36.3-16.2-36.3-36.3
		c0,20-16.2,36.3-36.3,36.3c-3.3,0-6.4-0.6-9.4-1.4v210.6h454.3V164.9C480.1,165.7,477,166.3,473.7,166.3z"/>
	<path fill="#84DBFF" d="M437.6,131.6h-0.3c-0.8,19.3-16.6,34.7-36.1,34.7s-35.3-15.4-36.1-34.7h-0.3c-0.8,19.3-16.6,34.7-36.1,34.7
		c-19.5,0-35.3-15.4-36.1-34.7h-0.3c-0.8,19.3-16.6,34.7-36.1,34.7s-35.3-15.4-36.1-34.7h-0.3c-0.8,19.3-16.6,34.7-36.1,34.7
		s-35.3-15.4-36.1-34.7H147c-0.8,19.3-16.6,34.7-36.1,34.7s-35.3-15.4-36.1-34.7h-0.3c-0.5,11.6-6.4,21.8-15.4,28.1v194H453v-194
		C444,153.4,438.1,143.2,437.6,131.6z"/>
	<path fill="#F2F2F2" d="M28.8,375.6v33.8c0,11.7,9.5,21.2,21.2,21.2h412c11.7,0,21.2-9.5,21.2-21.2v-33.8H28.8z"/>
	<circle fill="#CDD6E0" cx="256" cy="403.1" r="10.8"/>
	<polygon fill="#CDD6E0" points="335.1,444.7 327.8,430.6 184.2,430.6 176.9,444.7 158,481.3 353.9,481.3 	"/>
	<rect x="106.2" y="481.2" fill="#F2F2F2" width="299.7" height="28.8"/>
	<polygon fill="#ACB3BA" points="327.8,430.6 184.2,430.6 176.9,444.7 335.1,444.7 	"/>
	<polygon fill="#FF7058" points="28.8,2 2,98.1 74.6,98.1 93.7,2 	"/>
	<polygon fill="#F2F2F2" points="93.7,2 74.6,98.1 147.1,98.1 158.6,2 	"/>
	<polygon fill="#FF7058" points="158.6,2 147.1,98.1 219.7,98.1 223.5,2 	"/>
	<polygon fill="#F2F2F2" points="288.5,2 223.5,2 219.7,98.1 292.3,98.1 	"/>
	<polygon fill="#FF7058" points="353.4,2 288.5,2 292.3,98.1 364.9,98.1 	"/>
	<polygon fill="#F2F2F2" points="418.3,2 353.4,2 364.9,98.1 437.4,98.1 	"/>
	<polygon fill="#FF7058" points="483.2,2 418.3,2 437.4,98.1 510,98.1 	"/>
	<g>
		<path fill="#FFFFFF" d="M315.3,216.5c-1-1.2-2.4-1.9-4-1.9h-82.8l-3.9-16c-0.6-2.3-2.6-3.9-4.9-3.9h-19c-2.8,0-5.1,2.3-5.1,5.1
			c0,2.8,2.3,5.1,5.1,5.1h15l16.8,68.9c0.6,2.3,2.6,3.9,4.9,3.9h61h5.8v9h-61.6c-2.8,0-5.1,2.3-5.1,5.1c0,2.8,2.3,5.1,5.1,5.1h66.6
			c2.8,0,5.1-2.3,5.1-5.1v-19.2c0-2.8-2.3-5.1-5.1-5.1h-4.4l11.4-46.6C316.6,219.3,316.3,217.7,315.3,216.5z M250,267.4h-8.6
			l-4-16.3H250V267.4z M250,241H235l-4-16.3H250V241z M275.7,267.4h-15.5v-16.3h15.5V267.4z M275.7,241h-15.5v-16.3h15.5V241z
			 M294.4,267.4h-8.6v-16.3h12.6L294.4,267.4z M300.9,241h-15.1v-16.3h19.1L300.9,241z"/>
		<circle fill="#FFFFFF" cx="256.4" cy="312.5" r="11.6"/>
		<circle fill="#FFFFFF" cx="289.1" cy="312.5" r="11.6"/>
	</g>
	<g>
		<g>
			<path fill="#CDD6E0" d="M74.6,130c0,20,16.2,36.3,36.3,36.3c20,0,36.3-16.2,36.3-36.3V98.1H74.6V130z"/>
			<path fill="#CDD6E0" d="M219.7,130c0,20,16.2,36.3,36.3,36.3c20,0,36.3-16.2,36.3-36.3V98.1h-72.6V130z"/>
			<path fill="#CDD6E0" d="M364.9,98.1V130c0,20,16.2,36.3,36.3,36.3s36.3-16.2,36.3-36.3V98.1H364.9z"/>
		</g>
		<g>
			<path fill="#F1543F" d="M2,130c0,20,16.2,36.3,36.3,36.3c20,0,36.3-16.2,36.3-36.3V98.1H2V130z"/>
			<path fill="#F1543F" d="M147.1,130c0,20,16.2,36.3,36.3,36.3c20,0,36.3-16.2,36.3-36.3V98.1h-72.6V130z"/>
			<path fill="#F1543F" d="M292.3,130c0,20,16.2,36.3,36.3,36.3c20,0,36.3-16.2,36.3-36.3V98.1h-72.6V130z"/>
			<path fill="#F1543F" d="M437.4,98.1V130c0,20,16.2,36.3,36.3,36.3h0c20,0,36.3-16.2,36.3-36.3V98.1H437.4z"/>
		</g>
	</g>
	<g>
		<path fill="#334A5E" d="M292.3,130c0,0.5-0.1,1-0.2,1.6h0.3C292.4,131.1,292.3,130.6,292.3,130z"/>
		<path fill="#334A5E" d="M147.1,130c0,0.5-0.1,1-0.2,1.6h0.3C147.3,131.1,147.1,130.6,147.1,130z"/>
		<path fill="#334A5E" d="M74.6,130c0,0.5-0.1,1-0.2,1.6h0.3C74.7,131.1,74.6,130.6,74.6,130z"/>
		<path fill="#334A5E" d="M219.7,130c0,0.5-0.1,1-0.2,1.6h0.3C219.8,131.1,219.7,130.6,219.7,130z"/>
		<path fill="#334A5E" d="M38.3,166.3c-3.3,0-6.4-0.6-9.4-1.4v11.4c3,0.8,6.2,1.3,9.4,1.3c7.7,0,14.9-2.4,20.8-6.6v-11.3
			C53.2,163.8,46,166.3,38.3,166.3z"/>
		<path fill="#334A5E" d="M364.9,130c0,0.5-0.1,1-0.2,1.6h0.3C365,131.1,364.9,130.6,364.9,130z"/>
		<path fill="#334A5E" d="M473.7,166.3L473.7,166.3c-7.7,0-14.9-2.5-20.7-6.6V171c5.9,4.1,13,6.5,20.8,6.5c3.3,0,6.4-0.5,9.4-1.3
			v-11.4C480.1,165.7,477,166.3,473.7,166.3z"/>
		<path fill="#334A5E" d="M437.4,130c0,0.5-0.1,1-0.2,1.6h0.3C437.6,131.1,437.4,130.6,437.4,130z"/>
	</g>
	<path fill="#54C0EB" d="M437.6,131.6h-0.3c-0.8,19.3-16.6,34.7-36.1,34.7s-35.3-15.4-36.1-34.7h-0.3c-0.8,19.3-16.6,34.7-36.1,34.7
		c-19.5,0-35.3-15.4-36.1-34.7h-0.3c-0.8,19.3-16.6,34.7-36.1,34.7s-35.3-15.4-36.1-34.7h-0.3c-0.8,19.3-16.6,34.7-36.1,34.7
		s-35.3-15.4-36.1-34.7H147c-0.8,19.3-16.6,34.7-36.1,34.7s-35.3-15.4-36.1-34.7h-0.3c-0.5,11.6-6.4,21.8-15.4,28.1V171
		c1.7-1.1,3.4-2.5,4.9-4c6.5-6.6,10.6-15.6,10.6-25.7c0,20,16.3,36.3,36.3,36.3s36.3-16.3,36.3-36.3c0,20,16.3,36.3,36.3,36.3
		c20,0,36.3-16.3,36.3-36.3c0,20,16.2,36.3,36.2,36.3c20,0,36.3-16.3,36.3-36.3c0,20,16.3,36.3,36.3,36.3c10,0,19.1-4.1,25.7-10.6
		c6.5-6.6,10.6-15.6,10.6-25.7c0,20,16.3,36.3,36.3,36.3c20,0,36.3-16.3,36.3-36.3c0,12.3,6.1,23.2,15.5,29.7v-11.3
		C444,153.4,438.1,143.2,437.6,131.6z"/>
</g>
</svg>
