<?xml version="1.0" encoding="utf-8"?>
<!-- Generator: Adobe Illustrator 18.0.0, SVG Export Plug-In . SVG Version: 6.00 Build 0)  -->
<!DOCTYPE svg PUBLIC "-//W3C//DTD SVG 1.1//EN" "http://www.w3.org/Graphics/SVG/1.1/DTD/svg11.dtd">
<svg version="1.1" id="Layer_1" xmlns="http://www.w3.org/2000/svg" xmlns:xlink="http://www.w3.org/1999/xlink" x="0px" y="0px"
	 viewBox="0 0 48 48" enable-background="new 0 0 48 48" xml:space="preserve">
<g>
	<g>
		<g>
			<g>
				<path fill="#354B5E" d="M27.4,26.2c6.6,0,12.7,0.1,19.5,0.2c-2.8,7.2-4.8,14.3-6.6,21.5c-4.4,0-8.7,0-13.1,0
					C27.3,40.8,27.3,33.6,27.4,26.2z"/>
			</g>
			<g>
				<g>
					<g>
						<path fill="#FFD15D" d="M33.7,39c-0.2,1.9-0.5,3.8-0.7,5.7c0.7,0,1.5,0,2.2,0c0.5-3,1-6.1,1.6-9.1C35.3,35.5,34,37.1,33.7,39z
							"/>
						<path fill="#354B5E" d="M35.4,45c-0.9,0-1.8,0-2.7,0c0.2-2,0.5-4,0.7-6.1c0.2-2.1,1.8-3.8,3.4-3.8c0.1,0,0.2,0,0.3,0
							C36.5,38.5,35.9,41.8,35.4,45z M33.3,44.3c0.6,0,1.1,0,1.7,0c0.4-2.8,0.9-5.5,1.4-8.3c-1.2,0.2-2.2,1.5-2.4,3
							C33.8,40.7,33.5,42.5,33.3,44.3z"/>
					</g>
					<g>
						<path fill="#FFD15D" d="M36.8,35.6c-0.6,3-1.1,6.1-1.6,9.1c0.7,0,1.5,0,2.2,0c0.4-1.9,0.8-3.8,1.2-5.7
							C39.1,37.1,38.3,35.6,36.8,35.6z"/>
						<path fill="#354B5E" d="M37.6,45c-0.9,0-1.8,0-2.7,0c0.5-3.3,1.1-6.6,1.7-9.9c0.1,0,0.2,0,0.3,0c1.6,0,2.5,1.7,2,3.8
							C38.4,41,38,43,37.6,45z M35.5,44.3c0.6,0,1.1,0,1.7,0c0.3-1.8,0.7-3.5,1.1-5.3c0.4-1.5-0.2-2.8-1.3-3
							C36.5,38.7,36,41.5,35.5,44.3z"/>
					</g>
				</g>
				<g>
					<path fill="#435B6C" d="M37.6,45.2c-1.7,0-3.3,0-5,0c0-0.4,0.1-0.7,0.1-1.1c1.7,0,3.4,0,5.1,0C37.8,44.5,37.7,44.8,37.6,45.2z"
						/>
				</g>
			</g>
			<path fill="#AEB4BA" d="M46.9,26.5c-6.8-0.2-13-0.2-19.5-0.2c0,2.1,0,4.3,0,6.4c6.4,0,14,0,20.7,0.1L46.9,26.5z"/>
			<path fill="#354B5E" d="M8.7,3.3C6.2,3.5,3.7,3.7,1.3,4c1.4,3.9,2.8,7.7,4.2,11.5c2.1-0.1,4.2-0.2,6.3-0.3
				C10.7,11.3,9.7,7.3,8.7,3.3z"/>
			<g>
				<g>
					<path fill="#435B6C" d="M16.3,7.5L16.3,7.5c-4.9,5.3-7.2,8.2-10.4,13.2c3.5,9.1,6.5,18.2,8.6,27.3c4.9,0,9.7,0,14.6,0
						c0.3-9.1,0.8-18.2,1.4-27.7C25.9,15.4,22.8,12.5,16.3,7.5z"/>
				</g>
				<path fill="#AEB4BA" d="M33.7,18.4c-4.2-4.8-9.5-9.8-16-14.6c-1.2-0.9-3.1-0.8-4,0.2c-5,5.3-8.8,10.3-11.8,15
					C1.3,19.9,2,21.2,3.2,22c1.2,0.8,2.6,0.8,3.2-0.1c2.6-4.2,5.9-8.5,10.1-13c5.6,4.2,10.1,8.4,13.9,12.6c0.8,0.9,2.1,0.9,3,0
					C34.3,20.7,34.5,19.3,33.7,18.4z"/>
			</g>
			<g>
				<path fill="#AEB4BA" d="M7.8,0C5.2,0.2,2.7,0.5,0.1,0.8C0.1,2,0,3.2,0,4.3C3.4,4,6.7,3.7,10.1,3.5C9.3,2.3,8.6,1.2,7.8,0z"/>
			</g>
			<g>
				<g>
					<g>
						<path fill="#FFD15D" d="M17.7,17c-2.7,0.1-4.3,2.2-3.7,4.7c0.6,2.5,1.1,5,1.7,7.5c1.3,0,2.6,0,3.8,0
							C19,25.1,18.4,21.1,17.7,17z"/>
						<path fill="#435B6C" d="M19.9,29.5c-1.5,0-3,0-4.5,0c-0.6-2.6-1.2-5.2-1.8-7.9c-0.7-2.7,1.1-5,4-5.1c0.1,0,0.3,0,0.4,0
							C18.7,21,19.3,25.3,19.9,29.5z M16,28.8c1.1,0,2.1,0,3.2,0c-0.5-3.7-1.1-7.5-1.7-11.3c-2.2,0.3-3.5,2.1-3,4.2
							C15,24,15.5,26.4,16,28.8z"/>
					</g>
					<g>
						<path fill="#FFD15D" d="M22.8,21.5c-0.1-2.5-2.4-4.6-5.1-4.5c0.6,4.1,1.2,8.1,1.8,12.1c1.3,0,2.5,0,3.8,0
							C23.2,26.6,23,24.1,22.8,21.5z"/>
						<path fill="#435B6C" d="M23.7,29.5c-1.5,0-3,0-4.4,0c-0.6-4.2-1.3-8.5-2-12.9c0.1,0,0.3,0,0.4,0c2.9-0.1,5.4,2.2,5.5,4.9
							C23.4,24.2,23.5,26.9,23.7,29.5z M19.8,28.7c1.1,0,2.1,0,3.2,0c-0.2-2.4-0.4-4.8-0.6-7.2c-0.1-2.2-2-4-4.2-4.1
							C18.8,21.2,19.3,25,19.8,28.7z"/>
					</g>
				</g>
				<g>
					<path fill="#354B5E" d="M24,29.8c-2.9,0-5.8,0-8.7,0.1c-0.1-0.5-0.2-0.9-0.3-1.4c3,0,6-0.1,9-0.1C23.9,28.9,23.9,29.3,24,29.8z
						"/>
				</g>
			</g>
			<g>
				<path fill="#354B5E" d="M23.9,37.3c-1.2-1.5-2.5-3-3.9-4.5c-1,1.5-1.9,3-2.8,4.6c0.7,3.6,1.3,7.2,1.8,10.7c1.8,0,3.6,0,5.4,0
					C24.3,44.4,24.1,40.9,23.9,37.3z"/>
				<path fill="#AEB4BA" d="M24.8,37c-1.3-1.7-2.7-3.4-4.3-5.1c-0.4-0.4-0.9-0.4-1.2,0c-1.1,1.7-2.1,3.4-3,5.1
					c-0.2,0.4-0.1,1,0.3,1.4c0.4,0.4,0.8,0.4,1,0c0.8-1.4,1.6-2.9,2.6-4.3c1.3,1.4,2.5,2.9,3.7,4.3c0.3,0.4,0.8,0.4,1,0
					C25.2,38.1,25.1,37.4,24.8,37z"/>
			</g>
		</g>
		<g>
			<circle fill="#AEB4BA" cx="22.6" cy="42.2" r="0.6"/>
		</g>
	</g>
</g>
</svg>
