<?xml version="1.0" encoding="utf-8"?>
<!-- Generator: Adobe Illustrator 18.0.0, SVG Export Plug-In . SVG Version: 6.00 Build 0)  -->
<!DOCTYPE svg PUBLIC "-//W3C//DTD SVG 1.1//EN" "http://www.w3.org/Graphics/SVG/1.1/DTD/svg11.dtd">
<svg version="1.1" id="Layer_1" xmlns="http://www.w3.org/2000/svg" xmlns:xlink="http://www.w3.org/1999/xlink" x="0px" y="0px"
	 viewBox="0 0 48 48" enable-background="new 0 0 48 48" xml:space="preserve">
<g>
	<g>
		<g>
			<g>
				<g>
					
						<rect x="24.5" y="25.9" transform="matrix(-0.7071 0.7071 -0.7071 -0.7071 68.6261 28.4259)" fill="#344A5E" width="7.9" height="5.1"/>
				</g>
			</g>
			<g>
				<g>
					<circle fill="#8AD7F8" cx="16.4" cy="16.4" r="14.7"/>
					<path fill="#415A6B" d="M28.1,28.1c-6.4,6.4-16.9,6.4-23.3,0s-6.4-16.9,0-23.3c6.4-6.4,16.9-6.4,23.3,0S34.5,21.7,28.1,28.1z
						 M7.3,7.3c-5,5-5,13.3,0,18.3s13.3,5,18.3,0c5-5,5-13.3,0-18.3S12.3,2.2,7.3,7.3z"/>
				</g>
			</g>
		</g>
		<g>
			<path fill="#F05540" d="M34.9,26.8c-0.7-0.7-1.8-0.7-2.5,0l-5.6,5.6c-0.7,0.7-0.7,1.8,0,2.5c0.7,0.7,1.8,0.7,2.5,0l5.6-5.6
				C35.6,28.6,35.6,27.5,34.9,26.8z"/>
		</g>
		<g>
			<path fill="#F3705A" d="M38.5,46.5c-6.2-5.6-9.1-11.6-9.1-11.6l5.6-5.6c0,0,6.1,3,11.6,9.1c2,2.3,2,5.7-0.2,7.9l0,0
				C44.2,48.5,40.7,48.6,38.5,46.5z"/>
		</g>
	</g>
</g>
</svg>
