<?xml version="1.0" encoding="utf-8"?>
<!-- Generator: Adobe Illustrator 18.0.0, SVG Export Plug-In . SVG Version: 6.00 Build 0)  -->
<!DOCTYPE svg PUBLIC "-//W3C//DTD SVG 1.1//EN" "http://www.w3.org/Graphics/SVG/1.1/DTD/svg11.dtd">
<svg version="1.1" id="Layer_1" xmlns="http://www.w3.org/2000/svg" xmlns:xlink="http://www.w3.org/1999/xlink" x="0px" y="0px"
	 viewBox="0 0 48 48" enable-background="new 0 0 48 48" xml:space="preserve">
<g>
	<path fill="#84DBFF" d="M27.9,40c-11,0-20-9-20-20c0-11,9-20,20-20c11,0,20,9,20,20C47.9,31.1,38.9,40,27.9,40z"/>
	<path fill="#F2F2F2" d="M27.9,36.5c-9.1,0-16.4-7.4-16.4-16.4c0-9.1,7.4-16.4,16.4-16.4c9.1,0,16.4,7.4,16.4,16.4
		C44.3,29.1,37,36.5,27.9,36.5z"/>
	<path fill="#E4EAEF" d="M27.9,5.7c8.7,0,15.9,6.8,16.4,15.4c0-0.3,0.1-0.7,0.1-1C44.3,11,37,3.7,27.9,3.7
		c-9.1,0-16.4,7.4-16.4,16.4c0,0.3,0,0.7,0.1,1C12.1,12.5,19.2,5.7,27.9,5.7z"/>
	<g>
		<path fill="#CDD6E0" d="M27.9,5.6c-0.2,0-0.4,0.2-0.4,0.4v2.2c0,0.2,0.2,0.4,0.4,0.4s0.4-0.2,0.4-0.4V6
			C28.3,5.8,28.2,5.6,27.9,5.6z"/>
		<path fill="#CDD6E0" d="M27.9,31.5c-0.2,0-0.4,0.2-0.4,0.4v2.2c0,0.2,0.2,0.4,0.4,0.4s0.4-0.2,0.4-0.4v-2.2
			C28.3,31.7,28.2,31.5,27.9,31.5z"/>
	</g>
	<g>
		<path fill="#CDD6E0" d="M42.4,20.1c0-0.2-0.2-0.4-0.4-0.4h-2.2c-0.2,0-0.4,0.2-0.4,0.4s0.2,0.4,0.4,0.4H42
			C42.2,20.5,42.4,20.3,42.4,20.1z"/>
		<path fill="#CDD6E0" d="M16.5,20.1c0-0.2-0.2-0.4-0.4-0.4h-2.2c-0.2,0-0.4,0.2-0.4,0.4s0.2,0.4,0.4,0.4h2.2
			C16.3,20.5,16.5,20.3,16.5,20.1z"/>
	</g>
	<g>
		<path fill="#40596B" d="M12,34.1C5.5,27.7-2.9,17,1.2,12.9l4.2-4.2c1.2-1.2,3.3-1.2,4.5,0l5.1,5.1c1.2,1.2,1.2,3.3,0,4.5l-3,3l0,0
			C16.1,27,21,31.9,26.7,36h0l3-3c1.2-1.2,3.3-1.2,4.5,0l5.1,5.1c1.2,1.2,1.2,3.3,0,4.5l-4.2,4.2C31,50.9,20.3,42.4,13.9,36
			C13.2,35.4,12.6,34.8,12,34.1z"/>
		<g>
			<path fill="#FF7058" d="M39.3,38.1L34.2,33c-1.2-1.2-3.3-1.2-4.5,0l-1.1,1.1l9.6,9.6l1.1-1.1C40.6,41.4,40.6,39.4,39.3,38.1z"/>
			<path fill="#FF7058" d="M15,13.8L9.9,8.7c-1.2-1.2-3.3-1.2-4.5,0L4.3,9.8l9.6,9.6l1.1-1.1C16.2,17,16.2,15,15,13.8z"/>
		</g>
	</g>
	<g>
		<g>
			<path fill="#ACB3BA" d="M23,20.7v-1c2.4-1.8,3.1-2.4,3.1-3.1c0-0.5-0.5-0.8-1-0.8c-0.7,0-1.2,0.3-1.6,0.7l-0.7-0.8
				c0.6-0.7,1.4-1,2.3-1c1.3,0,2.3,0.7,2.3,1.9c0,1-0.8,1.9-2.4,3h2.4v1.1H23z"/>
			<path fill="#ACB3BA" d="M30.9,20.7v-1.2h-2.8v-1l2.3-3.7h1.7v3.6H33v1.1h-0.8v1.2H30.9z M30.9,15.9l-1.6,2.5h1.6V15.9z"/>
		</g>
		<g>
			<path fill="#ACB3BA" d="M22.6,25.4v-1.6h-1.8v1.6H20v-3.8h0.8v1.5h1.8v-1.5h0.8v3.8H22.6z"/>
			<path fill="#ACB3BA" d="M24,23.5c0-1.1,0.8-2,2-2c1.1,0,2,0.8,2,2s-0.8,2-2,2C24.8,25.5,24,24.6,24,23.5z M27.1,23.5
				c0-0.7-0.5-1.2-1.2-1.2c-0.7,0-1.2,0.5-1.2,1.2c0,0.7,0.5,1.2,1.2,1.2C26.7,24.7,27.1,24.2,27.1,23.5z"/>
			<path fill="#ACB3BA" d="M28.5,23.9v-2.3h0.8v2.3c0,0.5,0.3,0.9,0.9,0.9c0.6,0,0.9-0.4,0.9-0.9v-2.3H32v2.3c0,0.9-0.6,1.6-1.7,1.6
				C29.1,25.5,28.5,24.8,28.5,23.9z"/>
			<path fill="#ACB3BA" d="M34.9,25.4L34.1,24h-0.6v1.4h-0.8v-3.8h1.8c0.8,0,1.3,0.5,1.3,1.2c0,0.7-0.4,1-0.8,1.1l0.9,1.4H34.9z
				 M35,22.8c0-0.3-0.2-0.5-0.6-0.5h-0.9v1h0.9C34.7,23.3,35,23.1,35,22.8z"/>
		</g>
	</g>
</g>
</svg>
