<?xml version="1.0" encoding="utf-8"?>
<!-- Generator: Adobe Illustrator 18.0.0, SVG Export Plug-In . SVG Version: 6.00 Build 0)  -->
<!DOCTYPE svg PUBLIC "-//W3C//DTD SVG 1.1//EN" "http://www.w3.org/Graphics/SVG/1.1/DTD/svg11.dtd">
<svg version="1.1" id="Layer_1" xmlns="http://www.w3.org/2000/svg" xmlns:xlink="http://www.w3.org/1999/xlink" x="0px" y="0px"
	 viewBox="0 0 48 48" enable-background="new 0 0 48 48" xml:space="preserve">
<rect x="21.7" y="30.9" fill="#CED6E0" width="4.7" height="12.5"/>
<g>
	<path fill="#F3F3F3" d="M47.9,32L41,1.4c-0.2-0.7-1-1.3-1.9-1.3L8.8,0C7.9,0,7.1,0.6,6.9,1.3L0.1,31.9c-0.3,1.4,0.5,2.7,1.8,2.7
		l44.3,0.1C47.5,34.7,48.3,33.5,47.9,32z"/>
	<g>
		<polygon fill="#8AD7F8" points="15.8,21 5.6,21 3.8,30.6 15,30.6 		"/>
		<polygon fill="#8AD7F8" points="9.2,2 8.1,8 16.9,8 17.4,2 		"/>
		<polygon fill="#8AD7F8" points="16,18 16.7,10.4 7.6,10.4 6.2,17.9 		"/>
		<polygon fill="#8AD7F8" points="31,8.1 39.8,8.1 38.6,2.1 30.5,2 		"/>
		<polygon fill="#8AD7F8" points="31.2,10.5 31.9,18 41.8,18.1 40.3,10.5 		"/>
		<polygon fill="#8AD7F8" points="32.2,21.1 33,30.7 44.2,30.7 42.3,21.1 		"/>
		<polygon fill="#8AD7F8" points="19.9,2 19.6,8 28.3,8.1 28,2 		"/>
		<polygon fill="#8AD7F8" points="29.1,21 18.9,21 18.4,30.7 29.6,30.7 		"/>
		<polygon fill="#8AD7F8" points="19.4,10.4 19.1,18 28.9,18 28.5,10.5 		"/>
	</g>
</g>
<g>
	<path fill="#E8EAE9" d="M35.2,48c-2.3-3.3-6.5-5.5-11.2-5.5c-4.7,0-8.9,2.2-11.2,5.5H35.2z"/>
</g>
</svg>
