<?xml version="1.0" encoding="utf-8"?>
<!-- Generator: Adobe Illustrator 19.0.1, SVG Export Plug-In . SVG Version: 6.00 Build 0)  -->
<svg version="1.1" id="Layer_1" xmlns="http://www.w3.org/2000/svg" xmlns:xlink="http://www.w3.org/1999/xlink" x="0px" y="0px"
	 viewBox="0 0 48 48" style="enable-background:new 0 0 48 48;" xml:space="preserve">
<style type="text/css">
	.st0{fill:#415A6B;}
	.st1{fill:#ADB3BA;}
	.st2{fill:#E8EAE9;}
	.st3{fill:#55C0EB;}
	.st4{fill:#F3705A;}
	.st5{fill:#FFFFFF;}
	.st6{fill:#FFD15C;}
	.st7{fill:#344A5E;}
	.st8{fill:#CED6E0;}
	.st9{fill:#F05540;}
	.st10{fill:#F7B64C;}
	.st11{fill:#F3F3F3;}
	.st12{fill:#66C6B9;}
	.st13{fill:#4ABAA5;}
	.st14{fill:#8AD7F8;}
	.st15{fill:none;}
	.st16{fill:#E53D35;}
</style>
<g>
	<g>
		<g>
			<g>
				<g>
					<polygon class="st8" points="32.1,44.2 32.4,39.3 28.4,27.4 21.9,30.2 16.4,28.1 11.6,31.1 11.4,44.2 					"/>
				</g>
				<g>
					<path class="st7" d="M43.7,37.3v6.9H29l1.8-16.1l8,2.5C41.8,31.6,43.7,34.3,43.7,37.3z"/>
					<path class="st7" d="M12.9,28.1l1.8,16.1H0v-6.9c0-3.1,2-5.8,4.9-6.7L12.9,28.1z"/>
				</g>
				<g>
					<g>
						<g>
							<polygon class="st12" points="25.2,44.2 23.4,34.6 20.4,34.6 18.6,44.2 							"/>
						</g>
						<g>
							<polygon class="st13" points="23.4,34.6 24.7,33.2 21.9,30.2 19,33.2 20.4,34.6 							"/>
						</g>
					</g>
					<g>
						<g>
							<g>
								
									<ellipse transform="matrix(-0.9869 0.1616 -0.1616 -0.9869 29.7743 26.8555)" class="st6" cx="13.8" cy="14.6" rx="1.4" ry="2.6"/>
							</g>
							<g>
								
									<ellipse transform="matrix(0.9869 0.1616 -0.1616 0.9869 2.7601 -4.651)" class="st6" cx="30" cy="14.6" rx="1.4" ry="2.6"/>
							</g>
						</g>
						<g>
							<path class="st10" d="M16.8,19.1v4.8c0,0,1.8,4.8,5.1,6.3c3.3-1.5,5.1-6.3,5.1-6.3v-4.8H16.8z"/>
						</g>
						<path class="st6" d="M28.7,8.4c0.6-1.7-0.3-4-2.7-4c-0.2,0-0.4,0-0.6,0.1c-1.1-0.7-2.2-1.1-3.5-1.1c-4.5,0-8.2,5-8.2,11.2
							c0,6.2,3.7,11.2,8.2,11.2c4.5,0,8.2-5,8.2-11.2C30,12.2,29.6,10.1,28.7,8.4z"/>
						<g>
							<path class="st7" d="M29.6,14.5h-0.2c0-0.9-0.6-6.6-1.7-8.2c-1-1.4-10.2-1.4-11.3,0c-1.2,1.5-1.8,7.3-1.7,8.2h-0.2
								c0,0-3.9-13.9,6.5-14.5c0.4,0,0.7,0,1,0h0c0.4,0,0.7,0,1,0C33.5,0.6,29.6,14.5,29.6,14.5z"/>
						</g>
					</g>
				</g>
			</g>
			<g>
				<g>
					<g>
						<path class="st2" d="M16.8,23.9l5.1,6.3l-3.8,4c0,0-2.9-5.2-3.2-7L16.8,23.9z"/>
					</g>
				</g>
				<g>
					<g>
						<path class="st2" d="M26.9,23.9l-5.1,6.3l3.8,4c0,0,2.9-5.2,3.2-7L26.9,23.9z"/>
					</g>
				</g>
			</g>
			<g>
				<polygon class="st0" points="8.7,35.6 13,44.2 18.8,44.2 16.2,24.9 8.2,31.1 12.2,33.3 				"/>
			</g>
			<g>
				<polygon class="st0" points="30.8,44.2 35,35.6 31.5,33.3 35.6,31.1 27.5,24.9 24.9,44.2 				"/>
			</g>
		</g>
		<g>
			<g>
				<path class="st4" d="M48,37.5V35l-3.4-1.2c-0.2-0.6-0.4-1.2-0.7-1.8l1.5-3.2L43.7,27l-3.2,1.5c-0.6-0.3-1.1-0.5-1.8-0.7
					l-1.2-3.4H35l-1.2,3.4c-0.6,0.2-1.2,0.4-1.8,0.7L28.8,27L27,28.8l1.5,3.2c-0.3,0.6-0.5,1.1-0.7,1.8L24.4,35v2.5l3.4,1.2
					c0.2,0.6,0.4,1.2,0.7,1.8L27,43.7l1.8,1.8l3.2-1.5c0.6,0.3,1.1,0.5,1.8,0.7L35,48h2.5l1.2-3.4c0.6-0.2,1.2-0.4,1.8-0.7l3.2,1.5
					l1.8-1.8l-1.5-3.2c0.3-0.6,0.5-1.1,0.7-1.8L48,37.5z M36.2,39.4c-1.7,0-3.2-1.4-3.2-3.2c0-1.7,1.4-3.2,3.2-3.2
					c1.7,0,3.2,1.4,3.2,3.2C39.4,37.9,37.9,39.4,36.2,39.4z"/>
			</g>
			<g>
				<path class="st9" d="M36.2,30c-3.4,0-6.2,2.8-6.2,6.2c0,3.4,2.8,6.2,6.2,6.2c3.4,0,6.2-2.8,6.2-6.2C42.4,32.8,39.6,30,36.2,30z
					 M36.2,39.4c-1.7,0-3.2-1.4-3.2-3.2c0-1.7,1.4-3.2,3.2-3.2c1.7,0,3.2,1.4,3.2,3.2C39.4,37.9,37.9,39.4,36.2,39.4z"/>
			</g>
		</g>
	</g>
</g>
</svg>
