<?xml version="1.0" encoding="utf-8"?>
<!-- Generator: Adobe Illustrator 18.0.0, SVG Export Plug-In . SVG Version: 6.00 Build 0)  -->
<!DOCTYPE svg PUBLIC "-//W3C//DTD SVG 1.1//EN" "http://www.w3.org/Graphics/SVG/1.1/DTD/svg11.dtd">
<svg version="1.1" id="Layer_1" xmlns="http://www.w3.org/2000/svg" xmlns:xlink="http://www.w3.org/1999/xlink" x="0px" y="0px"
	 viewBox="0 0 48 48" enable-background="new 0 0 48 48" xml:space="preserve">
<g>
	<g>
		<g>
			<path fill="#FF7058" d="M43.9,28.1l-6.7,1.7L25,11.2l8.1-2.1c0.9-0.2,1.8,0.1,2.3,0.9l9.7,14.9C46,26,45.3,27.7,43.9,28.1z"/>
			<path fill="#FF7058" d="M28.1,43.9l1.7-6.7L11.2,25l-2.1,8.1C8.8,34,9.2,34.9,10,35.4l14.9,9.7C26,46,27.7,45.3,28.1,43.9z"/>
		</g>
		<path fill="#F1543F" d="M11.2,25l18.6,12.2l-1,3.8c-6-2.3-13.3-5.8-19.1-10.6L11.2,25z"/>
		<path fill="#F1543F" d="M30.4,9.8c4.8,5.7,8.3,13.1,10.6,19.1l-3.8,1L25,11.2L30.4,9.8z"/>
		<path fill="#F2F2F2" d="M40.2,31.3C37.4,23.7,33.1,14.5,27,8.4C15.1-3.5,0.8,0.8,0.8,0.8S-3.6,15.1,8.4,27
			c6.1,6.1,15.4,10.4,22.9,13.2L40.2,31.3z"/>
		<path fill="#40596B" d="M13.8,0.8C6.6-1,0.8,0.8,0.8,0.8S-1,6.6,0.8,13.8L13.8,0.8z"/>
		<path fill="#CDD6E0" d="M31.6,39.9c0.6,0.2,1.2,0.5,1.8,0.7l7.2-7.2c-0.2-0.6-0.4-1.2-0.7-1.8L31.6,39.9z"/>
		<circle fill="#54C0EB" cx="17.7" cy="17.7" r="6.9"/>
		<circle fill="#84DBFF" cx="17.7" cy="17.7" r="4.9"/>
		<path fill="#65D8FC" d="M15.7,21.2c-1.9-1.9-1.9-5,0-6.9c0.8-0.8,1.7-1.2,2.7-1.4c-1.5-0.2-3.1,0.2-4.2,1.4c-1.9,1.9-1.9,5,0,6.9
			c1.2,1.2,2.7,1.6,4.2,1.4C17.5,22.4,16.5,21.9,15.7,21.2z"/>
	</g>
	<path fill="#FFD15C" d="M47.5,40.7l-6-2.1c0,0,5.4,6,6.5,9.4c-3.4-1.1-9.4-6.5-9.4-6.5l2.1,6c-2.3-1.3-6.3-6.5-6.3-6.5l0.6-0.6
		l2.6,2.4l-0.8-4.3c0,0,3.7,2.9,5.3,3.6c-0.7-1.6-3.6-5.3-3.6-5.3l4.3,0.8L40.4,35l0.6-0.6C41,34.4,46.2,38.4,47.5,40.7z"/>
</g>
</svg>
