<?xml version="1.0" encoding="utf-8"?>
<!-- Generator: Adobe Illustrator 20.1.0, SVG Export Plug-In . SVG Version: 6.00 Build 0)  -->
<!DOCTYPE svg PUBLIC "-//W3C//DTD SVG 1.1//EN" "http://www.w3.org/Graphics/SVG/1.1/DTD/svg11.dtd">
<svg version="1.1" id="Layer_1" xmlns="http://www.w3.org/2000/svg" xmlns:xlink="http://www.w3.org/1999/xlink" x="0px" y="0px"
	 viewBox="0 0 49 49" enable-background="new 0 0 49 49" xml:space="preserve">
<g>
	<path fill="#F2F2F2" d="M8.8,8.8l0.2,1.5l3.6,36.4c0.1,1,1,1.8,2,1.8h20c1,0,1.9-0.8,2-1.8l3.6-36.4l0.1-1.5H8.8z"/>
	<path fill="#FF7058" d="M40.2,3H8.8C7.2,3,5.9,4.3,5.9,5.9v0c0,1.6,1.3,2.9,2.9,2.9h31.4c1.6,0,2.9-1.3,2.9-2.9v0
		C43.1,4.3,41.8,3,40.2,3z"/>
	<polygon fill="#F2F2F2" points="36,3 13,3 15,0.5 34,0.5 	"/>
	<polygon fill="#E2E2E2" points="40.2,8.8 40.1,10.3 8.9,10.3 8.8,8.8 	"/>
	<polygon fill="#FF7058" points="38,31.7 38.7,23.8 10.3,23.8 11,31.7 	"/>
	<ellipse fill="#FF7058" cx="24.5" cy="27.8" rx="7.5" ry="10.8"/>
</g>
</svg>
