<?xml version="1.0" encoding="utf-8"?>
<!-- Generator: Adobe Illustrator 18.0.0, SVG Export Plug-In . SVG Version: 6.00 Build 0)  -->
<!DOCTYPE svg PUBLIC "-//W3C//DTD SVG 1.1//EN" "http://www.w3.org/Graphics/SVG/1.1/DTD/svg11.dtd">
<svg version="1.1" id="Layer_1" xmlns="http://www.w3.org/2000/svg" xmlns:xlink="http://www.w3.org/1999/xlink" x="0px" y="0px"
	 viewBox="0 0 48 48" enable-background="new 0 0 48 48" xml:space="preserve">
<g>
	<g>
		<path fill="#415A6B" d="M45,48H3c-1.7,0-3-1.3-3-3V3c0-1.7,1.3-3,3-3h42c1.7,0,3,1.3,3,3v42C48,46.7,46.7,48,45,48z"/>
		<rect x="4" y="4" fill="#8AD7F8" width="40" height="30.6"/>
		<circle fill="#F3705A" cx="9.9" cy="41.3" r="3.5"/>
		<g>
			<path fill="#F3705A" d="M39.9,38.4l-4.8,4.8c-0.8-1.3-0.7-3.1,0.5-4.3C36.8,37.7,38.6,37.5,39.9,38.4z"/>
			<path fill="#F3705A" d="M40.5,43.7c-1.2,1.2-2.9,1.3-4.3,0.5l4.8-4.8C41.8,40.8,41.7,42.6,40.5,43.7z"/>
		</g>
		<path fill="#55C0EB" d="M44,9.3V8.8h-4.5V4H39v4.8h-4.6V4h-0.5v4.8h-4.6V4h-0.5v4.8h-4.6V4h-0.5v4.8h-4.6V4h-0.5v4.8h-4.6V4h-0.5
			v4.8H9V4H8.5v4.8H4v0.5h4.5v4.6H4v0.5h4.5V19H4v0.5h4.5v4.6H4v0.5h4.5v4.6H4v0.5h4.5v4.8H9v-4.8h4.6v4.8h0.5v-4.8h4.6v4.8h0.5
			v-4.8h4.6v4.8h0.5v-4.8h4.6v4.8h0.5v-4.8h4.6v4.8h0.5v-4.8H39v4.8h0.5v-4.8H44v-0.5h-4.5v-4.6H44v-0.5h-4.5v-4.6H44V19h-4.5v-4.6
			H44v-0.5h-4.5V9.3H44z M33.9,9.3v4.6h-4.6V9.3H33.9z M23.7,19h-4.6v-4.6h4.6V19z M24.2,14.4h4.6V19h-4.6V14.4z M18.7,19h-4.6v-4.6
			h4.6V19z M18.7,19.5v4.6h-4.6v-4.6H18.7z M19.2,19.5h4.6v4.6h-4.6V19.5z M24.2,19.5h4.6v4.6h-4.6V19.5z M29.3,19.5h4.6v4.6h-4.6
			V19.5z M29.3,19v-4.6h4.6V19H29.3z M28.8,9.3v4.6h-4.6V9.3H28.8z M23.7,9.3v4.6h-4.6V9.3H23.7z M18.7,9.3v4.6h-4.6V9.3H18.7z
			 M9,9.3h4.6v4.6H9V9.3z M9,14.4h4.6V19H9V14.4z M9,19.5h4.6v4.6H9V19.5z M9,29.2v-4.6h4.6v4.6H9z M14.1,29.2v-4.6h4.6v4.6H14.1z
			 M19.2,29.2v-4.6h4.6v4.6H19.2z M24.2,29.2v-4.6h4.6v4.6H24.2z M29.3,29.2v-4.6h4.6v4.6H29.3z M39,29.2h-4.6v-4.6H39V29.2z
			 M39,24.1h-4.6v-4.6H39V24.1z M39,19h-4.6v-4.6H39V19z M39,13.9h-4.6V9.3H39V13.9z"/>
		<path fill="#FFFFFF" d="M20.2,29.7c-0.2,0-0.4-0.1-0.5-0.3l-2.9-8.3l-1.1,3.5c-0.1,0.2-0.3,0.3-0.5,0.3H4v-1h10.9l1.5-4.5
			c0.1-0.2,0.3-0.3,0.5-0.3c0,0,0,0,0,0c0.2,0,0.4,0.1,0.5,0.3l2.7,7.9l3.2-18c0-0.2,0.3-0.4,0.5-0.4c0,0,0,0,0,0
			c0.2,0,0.5,0.2,0.5,0.4l2.5,14.7h1.5c0.2,0,0.4,0.1,0.5,0.4l0.9,2.9l1.6-7.7c0-0.2,0.2-0.4,0.5-0.4c0.2,0,0.4,0.1,0.5,0.3l1.5,4.5
			H44v1H33.3c-0.2,0-0.4-0.1-0.5-0.3l-1-3.1l-1.6,7.9c0,0.2-0.2,0.4-0.5,0.4c-0.3,0-0.4-0.1-0.5-0.4l-1.3-4.5h-1.6
			c-0.2,0-0.5-0.2-0.5-0.4l-2.1-12.2l-3,17C20.7,29.6,20.5,29.7,20.2,29.7C20.3,29.7,20.3,29.7,20.2,29.7z"/>
	</g>
</g>
</svg>
