<?xml version="1.0" encoding="utf-8"?>
<!-- Generator: Adobe Illustrator 18.0.0, SVG Export Plug-In . SVG Version: 6.00 Build 0)  -->
<!DOCTYPE svg PUBLIC "-//W3C//DTD SVG 1.1//EN" "http://www.w3.org/Graphics/SVG/1.1/DTD/svg11.dtd">
<svg version="1.1" id="Layer_1" xmlns="http://www.w3.org/2000/svg" xmlns:xlink="http://www.w3.org/1999/xlink" x="0px" y="0px"
	 viewBox="0 0 48 48" enable-background="new 0 0 48 48" xml:space="preserve">
<g>
	<path fill="#F2F2F2" d="M37.8,10.2c1-0.7,1.6-1.9,1.4-3.3c-0.2-1.2-1.1-2.2-2.2-2.5c-1-0.3-1.9-0.2-2.6,0.3
		c-0.1-1.7-1.5-3.1-3.3-3.1c-0.6,0-1.2,0.2-1.7,0.5c-0.6-0.7-1.5-1.1-2.4-1.1c-0.6,0-1.1,0.2-1.6,0.4C24.8,0.5,23.9,0,22.8,0
		c-1,0-1.9,0.5-2.5,1.2c-0.7-0.6-1.7-0.8-2.8-0.6c-1.2,0.3-2.1,1.3-2.4,2.4c-0.3,1.3,0.2,2.5,1.1,3.3c0,0.1,0,0.2,0,0.3
		c0,1.8,1.5,3.3,3.3,3.3c0.9,0,1.6-0.3,2.2-0.9c0.4,1.4,1.6,2.4,3.1,2.4c1.1,0,2.1-0.6,2.7-1.4c0.6,0.9,1.6,1.4,2.7,1.4
		c0.3,0,0.6,0,0.9-0.1c0,0.1,0,0.1,0,0.2c0,1.1,1.1,2,2.5,2.2c0.3,1.6,1.8,2.7,3.6,2.4c1.2-0.2,2.1-1.1,2.4-2.3
		C39.9,12.2,39,10.8,37.8,10.2z"/>
	<polygon fill="#CDD6E0" points="14.1,19.2 2.4,23.4 2.4,29.5 14.1,29.5 	"/>
	<polygon fill="#CDD6E0" points="25.9,19.2 14.1,23.4 14.1,29.5 25.9,29.5 	"/>
	<rect x="2.4" y="29.5" fill="#F2F2F2" width="23.4" height="13.2"/>
	<rect y="42.8" fill="#ACB3BA" width="48" height="5.2"/>
	<polygon fill="#FF7058" points="43.5,12.8 28,12.8 25.9,30.8 25.9,42.8 45.6,42.8 45.6,30.8 	"/>
	<g>
		<rect x="4.3" y="30.5" fill="#84DBFF" width="2.6" height="2.6"/>
		<rect x="9.6" y="30.5" fill="#84DBFF" width="2.6" height="2.6"/>
		<rect x="4.3" y="34.3" fill="#84DBFF" width="2.6" height="2.6"/>
		<rect x="9.6" y="34.3" fill="#84DBFF" width="2.6" height="2.6"/>
	</g>
	<g>
		<rect x="16" y="30.5" fill="#84DBFF" width="2.6" height="2.6"/>
		<rect x="21.4" y="30.5" fill="#84DBFF" width="2.6" height="2.6"/>
		<rect x="16" y="34.3" fill="#84DBFF" width="2.6" height="2.6"/>
		<rect x="21.4" y="34.3" fill="#84DBFF" width="2.6" height="2.6"/>
	</g>
	<path fill="#F1543F" d="M43.6,12H27.8c-0.5,0-0.8,0.4-0.8,0.8v0c0,0.5,0.4,0.8,0.8,0.8h15.8c0.5,0,0.8-0.4,0.8-0.8v0
		C44.4,12.4,44,12,43.6,12z"/>
</g>
</svg>
