<?xml version="1.0" encoding="utf-8"?>
<!-- Generator: Adobe Illustrator 18.0.0, SVG Export Plug-In . SVG Version: 6.00 Build 0)  -->
<!DOCTYPE svg PUBLIC "-//W3C//DTD SVG 1.1//EN" "http://www.w3.org/Graphics/SVG/1.1/DTD/svg11.dtd">
<svg version="1.1" id="Layer_1" xmlns="http://www.w3.org/2000/svg" xmlns:xlink="http://www.w3.org/1999/xlink" x="0px" y="0px"
	 viewBox="0 0 48 48" enable-background="new 0 0 48 48" xml:space="preserve">
<g>
	<polygon fill="#334A5E" points="6.4,41.4 3.2,41.4 3.2,37.9 8.7,37.9 	"/>
	<polygon fill="#334A5E" points="41.6,41.4 44.8,41.4 44.8,37.9 39.3,37.9 	"/>
	<path fill="#40596B" d="M46,6.6H2c-1.1,0-2,0.9-2,2v28.9c0,1.1,0.9,2,2,2h44c1.1,0,2-0.9,2-2V8.6C48,7.5,47.1,6.6,46,6.6z"/>
	<rect x="4" y="10.6" fill="#F2F2F2" width="28.9" height="24.9"/>
	<rect x="35.4" y="10.6" fill="#84DBFF" width="10.1" height="4.3"/>
	<g>
		<rect x="35.4" y="16" fill="#FF7058" width="2.7" height="2.5"/>
	</g>
	<g>
		<rect x="39.1" y="16" fill="#FFD15C" width="2.7" height="2.5"/>
	</g>
	<g>
		<rect x="42.8" y="16" fill="#FFFFFF" width="2.7" height="2.5"/>
	</g>
	<g>
		<rect x="35.4" y="19.5" fill="#FFFFFF" width="2.7" height="2.5"/>
	</g>
	<g>
		<rect x="39.1" y="19.5" fill="#FFFFFF" width="2.7" height="2.5"/>
	</g>
	<g>
		<rect x="42.8" y="19.5" fill="#FFFFFF" width="2.7" height="2.5"/>
	</g>
	<g>
		<rect x="42.8" y="23" fill="#FFFFFF" width="2.7" height="2.5"/>
	</g>
	<g>
		<rect x="35.4" y="23" fill="#FFFFFF" width="2.7" height="2.5"/>
	</g>
	<g>
		<rect x="39.1" y="23" fill="#FFFFFF" width="2.7" height="2.5"/>
	</g>
	<circle fill="#F2F2F2" cx="40.4" cy="32.2" r="3.6"/>
	<circle fill="#FF7058" cx="40.4" cy="32.2" r="1.9"/>
	<polygon fill="#CDD6E0" points="13.5,10.6 4,29.3 4,33.7 15.7,10.6 	"/>
	<polygon fill="#CDD6E0" points="18.3,10.6 5.7,35.5 10.2,35.5 22.8,10.6 	"/>
</g>
</svg>
