<?xml version="1.0" encoding="utf-8"?>
<!-- Generator: Adobe Illustrator 16.0.0, SVG Export Plug-In . SVG Version: 6.00 Build 0)  -->
<!DOCTYPE svg PUBLIC "-//W3C//DTD SVG 1.1//EN" "http://www.w3.org/Graphics/SVG/1.1/DTD/svg11.dtd">
<svg version="1.1" id="Layer_1" xmlns="http://www.w3.org/2000/svg" xmlns:xlink="http://www.w3.org/1999/xlink" x="0px" y="0px"
	 width="48px" height="48px" viewBox="0 0 48 48" enable-background="new 0 0 48 48" xml:space="preserve">
<g>
	<polygon fill="#334A5E" points="10.432,48 47.998,48 29.215,12.165 	"/>
	<polygon fill="#F2F2F2" points="28.961,22.071 30.984,22.99 32.109,21.765 34.246,22.99 34.434,22.253 34.533,22.312 
		29.215,12.166 23.541,22.99 26.15,21.152 27.219,22.99 	"/>
	<polygon fill="#40596B" points="35.482,48 0.002,48 0.002,20.091 10.432,0.201 	"/>
	<polygon fill="#F2F2F2" points="12.547,11.424 15.852,16.888 17.523,13.736 10.432,0.203 2.863,14.642 6.344,12.19 9.039,15.808 	
		"/>
	<path fill="#FFD15C" d="M39.766,6.265c0,2.221-1.801,4.021-4.021,4.021s-4.021-1.8-4.021-4.021c0-2.221,1.801-4.021,4.021-4.021
		S39.766,4.043,39.766,6.265"/>
	<path fill="#FFD15C" d="M35.744,0c-0.17,0-0.307,0.138-0.307,0.307v1.162c0,0.169,0.137,0.307,0.307,0.307s0.307-0.138,0.307-0.307
		V0.307C36.051,0.138,35.914,0,35.744,0"/>
	<path fill="#FFD15C" d="M35.744,10.754c-0.17,0-0.307,0.138-0.307,0.307v1.162c0,0.169,0.137,0.307,0.307,0.307
		s0.307-0.138,0.307-0.307v-1.162C36.051,10.892,35.914,10.754,35.744,10.754"/>
	<path fill="#FFD15C" d="M40.174,1.834c-0.119-0.12-0.314-0.12-0.434,0l-0.822,0.821c-0.119,0.12-0.119,0.315,0,0.436
		c0.121,0.12,0.316,0.12,0.436,0l0.82-0.821C40.295,2.149,40.295,1.955,40.174,1.834"/>
	<path fill="#FFD15C" d="M32.57,9.439c-0.121-0.12-0.314-0.12-0.436,0l-0.82,0.821c-0.121,0.12-0.121,0.315,0,0.435
		c0.119,0.12,0.314,0.12,0.436,0l0.82-0.821C32.689,9.754,32.689,9.559,32.57,9.439"/>
	<path fill="#FFD15C" d="M42.01,6.265c0-0.17-0.139-0.307-0.307-0.307h-1.162c-0.17,0-0.307,0.137-0.307,0.307
		s0.137,0.307,0.307,0.307h1.162C41.871,6.571,42.01,6.435,42.01,6.265"/>
	<path fill="#FFD15C" d="M31.256,6.265c0-0.17-0.139-0.307-0.307-0.307h-1.162c-0.17,0-0.309,0.137-0.309,0.307
		s0.139,0.307,0.309,0.307h1.162C31.117,6.571,31.256,6.435,31.256,6.265"/>
	<path fill="#FFD15C" d="M40.174,10.695c0.121-0.12,0.121-0.315,0-0.435l-0.82-0.821c-0.119-0.12-0.314-0.12-0.436,0
		c-0.119,0.12-0.119,0.315,0,0.436l0.822,0.821C39.859,10.815,40.055,10.815,40.174,10.695"/>
	<path fill="#FFD15C" d="M32.57,3.09c0.119-0.12,0.119-0.315,0-0.435l-0.82-0.821c-0.121-0.12-0.316-0.12-0.436,0
		c-0.121,0.12-0.121,0.315,0,0.435l0.82,0.821C32.256,3.21,32.449,3.21,32.57,3.09"/>
	<path fill="#84DBFF" d="M46.602,9.614c0.074-0.309,0.119-0.63,0.119-0.962c0-2.277-1.846-4.122-4.123-4.122
		c-1.412,0-2.658,0.711-3.4,1.794c-0.412-0.194-0.873-0.306-1.359-0.306c-1.764,0-3.193,1.43-3.193,3.194
		c0,0.016,0.002,0.031,0.002,0.046c-1.268,0.217-2.234,1.313-2.234,2.642c0,1.485,1.203,2.688,2.688,2.688h10.105
		c1.484,0,2.688-1.203,2.688-2.688C47.893,10.93,47.375,10.086,46.602,9.614"/>
</g>
</svg>
