<?xml version="1.0" encoding="utf-8"?>
<!-- Generator: Adobe Illustrator 18.0.0, SVG Export Plug-In . SVG Version: 6.00 Build 0)  -->
<!DOCTYPE svg PUBLIC "-//W3C//DTD SVG 1.1//EN" "http://www.w3.org/Graphics/SVG/1.1/DTD/svg11.dtd">
<svg version="1.1" id="Layer_1" xmlns="http://www.w3.org/2000/svg" xmlns:xlink="http://www.w3.org/1999/xlink" x="0px" y="0px"
	 viewBox="0 0 512 512" enable-background="new 0 0 512 512" xml:space="preserve">
<g>
	<path fill="#F2F2F2" d="M282.3,2.1H23.2C11.5,2.1,2,11.6,2,23.3v465.4c0,11.7,9.5,21.2,21.2,21.2h369.5c11.7,0,21.2-9.5,21.2-21.2
		V133.6L282.3,2.1z"/>
	<path fill="#CDD6E0" d="M303.5,133.6h110.3L282.3,2.1v110.3C282.3,124.2,291.8,133.6,303.5,133.6z"/>
	<rect x="35.8" y="36" fill="#FFD15C" width="144.7" height="179.7"/>
	<rect x="35.8" y="267.8" fill="#CDD6E0" width="317.9" height="23"/>
	<rect x="35.8" y="339.8" fill="#CDD6E0" width="317.9" height="23"/>
	<rect x="35.8" y="411.8" fill="#CDD6E0" width="198.5" height="23"/>
	<polygon fill="#FFD15C" points="240.1,378.9 295,433.7 287.8,438.8 249.1,448.9 216.2,457.6 224.9,424.7 234.9,386.8 	"/>
	<path fill="#54C0EB" d="M441.2,214.3l18.3,18.3L266.6,425.6c-0.5,0.5-1.3,0.5-1.7,0L248.3,409c-0.5-0.5-0.5-1.3,0-1.7L441.2,214.3z
		"/>
	<path fill="#84DBFF" d="M459.5,232.6l18.3,18.3L284.9,443.8c-0.5,0.5-1.3,0.5-1.7,0l-16.6-16.6c-0.5-0.5-0.5-1.3,0-1.7L459.5,232.6
		z"/>
	<polygon fill="#334A5E" points="224.9,424.7 249.1,448.9 216.2,457.6 	"/>
	
		<rect x="418" y="208" transform="matrix(-0.7071 -0.7071 0.7071 -0.7071 626.3405 693.5332)" fill="#FF7058" width="77.6" height="18.2"/>
	<path fill="#F1543F" d="M498.6,175.2c-15.1-15.1-39.7-15.1-54.8,0l-8,8l54.8,54.8l8-8C513.8,214.9,513.8,190.4,498.6,175.2z"/>
	<path fill="#84DBFF" d="M423,196.1l18.3,18.3L248.3,407.3c-0.5,0.5-1.3,0.5-1.7,0L230,390.7c-0.5-0.5-0.5-1.3,0-1.7L423,196.1z"/>
</g>
</svg>
