<?xml version="1.0" encoding="utf-8"?>
<!-- Generator: Adobe Illustrator 16.0.0, SVG Export Plug-In . SVG Version: 6.00 Build 0)  -->
<!DOCTYPE svg PUBLIC "-//W3C//DTD SVG 1.1//EN" "http://www.w3.org/Graphics/SVG/1.1/DTD/svg11.dtd">
<svg version="1.1" id="Layer_1" xmlns="http://www.w3.org/2000/svg" xmlns:xlink="http://www.w3.org/1999/xlink" x="0px" y="0px"
	 width="48px" height="48px" viewBox="0 0 48 48" enable-background="new 0 0 48 48" xml:space="preserve">
<g>
	<path fill="#FFD15C" d="M40.443,2.111H7.557c-1.657,0-3,1.343-3,3V45c0,1.657,1.343,3,3,3h32.887c1.657,0,3-1.343,3-3V5.111
		C43.443,3.454,42.101,2.111,40.443,2.111"/>
	<rect x="8.556" y="6.11" fill="#F2F2F2" width="30.888" height="37.889"/>
	<rect x="12.556" y="37.278" fill="#CDD6E0" width="4.036" height="2.722"/>
	<rect x="19.659" y="37.278" fill="#CDD6E0" width="15.784" height="2.722"/>
	<rect x="12.556" y="29.054" fill="#4CDBC4" width="4.036" height="2.722"/>
	<rect x="19.659" y="29.054" fill="#4CDBC4" width="15.784" height="2.722"/>
	<rect x="12.556" y="20.829" fill="#FF7058" width="4.036" height="2.722"/>
	<rect x="19.659" y="20.829" fill="#FF7058" width="15.784" height="2.722"/>
	<rect x="12.556" y="12.605" fill="#84DBFF" width="4.036" height="2.722"/>
	<rect x="19.659" y="12.605" fill="#84DBFF" width="15.784" height="2.722"/>
	<path fill="#40596B" d="M33.175,9.007H14.824V1.344C14.824,0.601,15.426,0,16.168,0h15.663c0.742,0,1.344,0.601,1.344,1.344V9.007z
		"/>
</g>
</svg>
