<?xml version="1.0" encoding="utf-8"?>
<!-- Generator: Adobe Illustrator 18.0.0, SVG Export Plug-In . SVG Version: 6.00 Build 0)  -->
<!DOCTYPE svg PUBLIC "-//W3C//DTD SVG 1.1//EN" "http://www.w3.org/Graphics/SVG/1.1/DTD/svg11.dtd">
<svg version="1.1" id="Layer_1" xmlns="http://www.w3.org/2000/svg" xmlns:xlink="http://www.w3.org/1999/xlink" x="0px" y="0px"
	 viewBox="0 0 48 48" enable-background="new 0 0 48 48" xml:space="preserve">
<g>
	<path fill="#CDD6E0" d="M28.6,25.6h-9.2c0,0-6.3-9.3-19-1.3C0.2,25.9,0,27.5,0,29.1C0,42.4,10.7,48,24,48s24-5.6,24-18.9
		c0-1.6-0.2-3.2-0.5-4.8C34.9,16.4,28.6,25.6,28.6,25.6z"/>
	<circle fill="#40596B" cx="10.7" cy="10.7" r="10.7"/>
	<circle fill="#40596B" cx="37.3" cy="10.7" r="10.7"/>
	<path opacity="0.1" fill="#231F20" d="M1.6,16.4c1.9,3,5.2,5,9.1,5c5.9,0,10.7-4.8,10.7-10.7c0-3.3-1.5-6.2-3.8-8.1
		C10.9,4.6,5.1,9.6,1.6,16.4z"/>
	<path opacity="0.1" fill="#231F20" d="M37.3,21.4c3.8,0,7.2-2,9.1-5c-3.4-6.7-9.2-11.8-16-13.8c-2.3,2-3.8,4.9-3.8,8.1
		C26.6,16.6,31.4,21.4,37.3,21.4z"/>
	<path fill="#F2F2F2" d="M19.4,25.6h9.2c0,0,6.3-9.2,18.9-1.3C45.4,12.9,35.6,3.1,24,3.1C12.3,3.1,2.6,13,0.5,24.3
		C13.1,16.4,19.4,25.6,19.4,25.6z"/>
	<path fill="#F2F2F2" d="M24,40L24,40c-4.7,0-8-4.5-6.6-9l2.7-8.7h7.9l2.7,8.7C32,35.5,28.7,40,24,40z"/>
	<path fill="#40596B" d="M20,35.5l2.8,3.2c0.7,0.8,1.8,0.8,2.5,0l2.8-3.2c0.9-1.1,0.2-2.8-1.3-2.8h-5.6C19.8,32.7,19,34.4,20,35.5z"
		/>
	<g>
		<path fill="#40596B" d="M8.4,21.7L14,16c2.6-2.6,7.2-0.8,7.2,3v5.6c0,2.3-1.9,4.2-4.2,4.2h-5.6C7.6,28.8,5.7,24.3,8.4,21.7z"/>
		<g>
			<circle fill="#FFFFFF" cx="16.2" cy="22.8" r="3.2"/>
			<circle fill="#40596B" cx="16.2" cy="22.8" r="1.9"/>
			<circle fill="#FFFFFF" cx="15.2" cy="21.9" r="0.4"/>
		</g>
	</g>
	<g>
		<path fill="#40596B" d="M39.6,21.7L34,16c-2.6-2.6-7.2-0.8-7.2,3v5.6c0,2.3,1.9,4.2,4.2,4.2h5.6C40.4,28.8,42.3,24.3,39.6,21.7z"
			/>
		<g>
			<circle fill="#FFFFFF" cx="31.8" cy="22.8" r="3.2"/>
			<circle fill="#40596B" cx="31.8" cy="22.8" r="1.9"/>
			<circle fill="#FFFFFF" cx="32.8" cy="21.9" r="0.4"/>
		</g>
	</g>
	<path fill="#40596B" d="M28.6,40.3c-0.3-0.3-0.8-0.3-1.1,0c-0.8,0.8-1.7,1.2-2.8,1.4v-4.9c0-0.4-0.3-0.8-0.8-0.8
		c-0.4,0-0.8,0.3-0.8,0.8v4.9c-1-0.2-2-0.6-2.8-1.4c-0.3-0.3-0.8-0.3-1.1,0s-0.3,0.8,0,1.1c1.2,1.2,2.9,1.9,4.6,1.9
		c1.7,0,3.4-0.7,4.6-1.9C28.9,41.1,28.9,40.6,28.6,40.3z"/>
</g>
</svg>
