<?xml version="1.0" encoding="utf-8"?>
<!-- Generator: Adobe Illustrator 18.0.0, SVG Export Plug-In . SVG Version: 6.00 Build 0)  -->
<!DOCTYPE svg PUBLIC "-//W3C//DTD SVG 1.1//EN" "http://www.w3.org/Graphics/SVG/1.1/DTD/svg11.dtd">
<svg version="1.1" id="Layer_1" xmlns="http://www.w3.org/2000/svg" xmlns:xlink="http://www.w3.org/1999/xlink" x="0px" y="0px"
	 viewBox="0 0 48 48" enable-background="new 0 0 48 48" xml:space="preserve">
<path fill="#334A5E" d="M28,15.1h-8c-0.3,0-0.5-0.2-0.5-0.5l0,0c0-0.3,0.2-0.5,0.5-0.5h8c0.3,0,0.5,0.2,0.5,0.5l0,0
	C28.5,14.9,28.3,15.1,28,15.1z"/>
<g>
	<path fill="#40596B" d="M48,15.9L25.1,0.5c-0.7-0.5-1.6-0.5-2.2,0L0,15.9h0l24,18.7L48,15.9L48,15.9z"/>
	<path fill="#F2F2F2" d="M45,34.6H3V7.1c0-1.1,0.9-2,2-2H43c1.1,0,2,0.9,2,2V34.6z"/>
	<path fill="#84DBFF" d="M48,15.9L24,34.6L0,15.9h0v29.9c0,0.6,0.3,1.1,0.7,1.5C1,47.6,1.5,47.8,2,47.8h44c0.5,0,1-0.2,1.3-0.5
		c0.4-0.4,0.7-0.9,0.7-1.5L48,15.9L48,15.9z"/>
	<path fill="#54C0EB" d="M27.6,31.8h-7.2L0.7,47.3L2,47.8h44c0.5,0,1-0.2,1.3-0.5L27.6,31.8z"/>
	<circle fill="#CDD6E0" cx="24" cy="17.1" r="8.5"/>
	<g>
		<path fill="#FFFFFF" d="M17.9,17.8c0-3.7,3.3-6.8,6.8-6.8c3.3,0,5.4,2.4,5.4,5.3c0,2.9-1.9,4.3-3.4,4.3c-1,0-1.6-0.6-1.7-1.3
			l0-0.1c-0.6,0.8-1.6,1.4-2.5,1.4c-1.7,0-2.7-1.2-2.7-2.9c0-2.3,1.9-4.2,3.9-4.2c1.1,0,1.8,0.5,2.2,1.2l0.2-0.9h1.9l-0.9,4.2
			c0,0.1-0.1,0.3-0.1,0.4c0,0.5,0.3,0.8,0.6,0.8c0.7,0,1.6-0.8,1.6-2.8c0-2.7-1.8-4.6-4.8-4.6c-3.3,0-6.1,2.9-6.1,6.1
			c0,2.7,2.1,4.8,4.9,4.8c1.2,0,2.2-0.4,3.1-0.9l0.4,0.5c-1.1,0.7-2.3,1.1-3.6,1.1C20.2,23.2,17.9,20.8,17.9,17.8z M25.2,17.8l0.4-2
			C25.5,15.5,25,15,24.3,15c-1.4,0-2.4,1.2-2.4,2.5c0,0.9,0.5,1.5,1.4,1.5C24.2,19,24.8,18.4,25.2,17.8z"/>
	</g>
</g>
</svg>
