<?xml version="1.0" encoding="utf-8"?>
<!-- Generator: Adobe Illustrator 18.0.0, SVG Export Plug-In . SVG Version: 6.00 Build 0)  -->
<!DOCTYPE svg PUBLIC "-//W3C//DTD SVG 1.1//EN" "http://www.w3.org/Graphics/SVG/1.1/DTD/svg11.dtd">
<svg version="1.1" id="Layer_1" xmlns="http://www.w3.org/2000/svg" xmlns:xlink="http://www.w3.org/1999/xlink" x="0px" y="0px"
	 viewBox="0 0 48 48" enable-background="new 0 0 48 48" xml:space="preserve">
<g>
	<path fill="#84DBFF" d="M46.9,24.4l-35,18.1c-1,0.5-2.2,0.1-2.7-0.9l-9-17.4c-0.5-1-0.1-2.2,0.9-2.7l35-18.1c1-0.5,2.2-0.1,2.7,0.9
		l9,17.4C48.3,22.7,47.9,23.9,46.9,24.4z"/>
	
		<rect x="4.4" y="19.4" transform="matrix(0.4584 0.8887 -0.8887 0.4584 32.6224 2.5974)" fill="#FFFFFF" width="19.5" height="17.3"/>
	
		<rect x="5" y="21.8" transform="matrix(-0.8887 0.4584 -0.4584 -0.8887 32.419 38.1703)" fill="#FF7058" width="13.2" height="2.5"/>
	
		<rect x="7.6" y="26.8" transform="matrix(-0.8887 0.4584 -0.4584 -0.8887 39.6478 46.5076)" fill="#FF7058" width="13.2" height="2.5"/>
	
		<rect x="10.2" y="31.9" transform="matrix(-0.8887 0.4584 -0.4584 -0.8887 46.8766 54.8449)" fill="#FF7058" width="13.2" height="2.5"/>
	<path fill="#40596B" d="M35.3,18.2l6.1-1.3l-0.1-0.3c-0.6-1.1-1.7-1.7-3-1.6l-4.6,0.2l-1.9-3.8c-0.4-0.7-1.3-1-2-0.6
		c-0.7,0.4-1,1.3-0.6,2l1.9,3.8l-2.8,3.6c-0.8,0.9-1,2.3-0.4,3.3l0.1,0.3l4.6-4.2l1.5,2.9c0,0,0,0,0,0l-1.2,2.3l1.2,2.2l2.5-3.1
		l4-0.2l-1.2-2.2l-2.6-0.3c0,0,0,0,0,0L35.3,18.2z"/>
	<path fill="#84DBFF" d="M41.5,44.7H2.1c-1.1,0-2-0.9-2-2V23.2c0-1.1,0.9-2,2-2h39.4c1.1,0,2,0.9,2,2v19.5
		C43.5,43.8,42.6,44.7,41.5,44.7z"/>
	<rect x="2.1" y="23.2" fill="#FFFFFF" width="17.3" height="19.5"/>
	<rect x="4.2" y="26" fill="#FF7058" width="13.2" height="2.5"/>
	<rect x="4.2" y="31.7" fill="#FF7058" width="13.2" height="2.5"/>
	<rect x="4.2" y="37.4" fill="#FF7058" width="13.2" height="2.5"/>
	<path fill="#40596B" d="M34.1,33.9l6,1.6v-0.3c0-1.2-0.7-2.3-1.9-2.8l-4.1-1.9v-4.2c0-0.8-0.7-1.5-1.5-1.5c-0.8,0-1.5,0.7-1.5,1.5
		v4.2l-4.1,1.9C25.8,32.9,25,34,25,35.2v0.3l6-1.6v3.3c0,0,0,0,0,0l-2.2,1.5v2.5l3.6-1.6l3.6,1.6v-2.5l-2.2-1.5c0,0,0,0,0,0V33.9z"
		/>
	<g opacity="0.2">
		<path fill="#334A5E" d="M0.1,23.2c0-0.3,0.1-0.6,0.2-0.8c-0.3,0.5-0.3,1-0.2,1.5V23.2z"/>
		<path fill="#334A5E" d="M41.5,19.7H4.8l-3,1.5c0.1,0,0.2,0,0.3,0h39.4c1.1,0,2,0.9,2,2v3l1.5-0.8v-2.2
			C45,21.3,43.5,19.7,41.5,19.7z"/>
	</g>
</g>
</svg>
