<?xml version="1.0" encoding="utf-8"?>
<!-- Generator: Adobe Illustrator 18.0.0, SVG Export Plug-In . SVG Version: 6.00 Build 0)  -->
<!DOCTYPE svg PUBLIC "-//W3C//DTD SVG 1.1//EN" "http://www.w3.org/Graphics/SVG/1.1/DTD/svg11.dtd">
<svg version="1.1" id="Layer_1" xmlns="http://www.w3.org/2000/svg" xmlns:xlink="http://www.w3.org/1999/xlink" x="0px" y="0px"
	 viewBox="0 0 48 48" enable-background="new 0 0 48 48" xml:space="preserve">
<g>
	<g>
		<polygon fill="#435B6C" points="26.7,7.8 26.7,0 21.3,0 21.3,7.8 13.5,7.8 13.5,13.1 21.3,13.1 21.3,40.6 26.7,40.6 26.7,13.1 
			34.5,13.1 34.5,7.8 		"/>
		<g>
			<g>
				<g>
					<path fill="#FFD15D" d="M42.3,48c-0.1-1.4-0.9-2.5-2-2.5c-1.1,0-2,1.1-2,2.5H42.3z"/>
					<ellipse fill="#FFD15D" cx="38.2" cy="44.7" rx="2.1" ry="2.7"/>
					<ellipse fill="#FFD15D" cx="37.4" cy="39.4" rx="0.5" ry="0.7"/>
					<ellipse fill="#FFD15D" cx="41.1" cy="42.6" rx="0.5" ry="0.6"/>
					<path fill="#FFD15D" d="M45.4,48c0-0.2,0.1-0.3,0.1-0.5c0-1.1-0.7-2-1.6-2s-1.6,0.9-1.6,2c0,0.2,0,0.4,0.1,0.5H45.4z"/>
					<path fill="#FFD15D" d="M45.1,48c-0.2-0.7-0.8-1.2-1.4-1.2c-0.6,0-1.2,0.5-1.4,1.2H45.1z"/>
					<path fill="#FFD15D" d="M42,48h1.1c0.7-0.3,1.1-1.1,1.1-2c0-1.2-0.7-2.2-1.7-2.2c-0.9,0-1.7,1-1.7,2.2
						C40.8,46.9,41.3,47.7,42,48z"/>
					<ellipse fill="#FFD15D" cx="40.8" cy="43.7" rx="1.7" ry="2.2"/>
					<ellipse fill="#FFD15D" cx="37.7" cy="41" rx="2.8" ry="3.6"/>
					<ellipse fill="#FFD15D" cx="34.8" cy="38" rx="1.1" ry="1.4"/>
					<ellipse fill="#FFD15D" cx="34" cy="37.1" rx="1.3" ry="1.7"/>
					<ellipse fill="#FFD15D" cx="33" cy="35.1" rx="1.5" ry="2"/>
					<ellipse fill="#FFD15D" cx="36.1" cy="37.4" rx="1.3" ry="1.6"/>
					<g>
						<path fill="#FFD15D" d="M48,48c-0.1-1.1-0.8-2-1.7-2c-0.9,0-1.6,0.9-1.7,2H48z"/>
					</g>
				</g>
			</g>
			<g>
				<path fill="#FFD15D" d="M24,30.5c-5.5,0-11.5,6.1-15.4,17.5h30.7C35.5,36.6,29.4,30.5,24,30.5z"/>
				<g>
					<path fill="#FFD15D" d="M9.7,48c-0.1-1.4-0.9-2.5-2-2.5c-1.1,0-2,1.1-2,2.5H9.7z"/>
					<ellipse fill="#FFD15D" cx="9.8" cy="44.7" rx="2.1" ry="2.7"/>
					<ellipse fill="#FFD15D" cx="10.6" cy="39.4" rx="0.5" ry="0.7"/>
					<ellipse fill="#FFD15D" cx="6.9" cy="42.6" rx="0.5" ry="0.6"/>
					<path fill="#FFD15D" d="M5.6,48c0-0.2,0.1-0.3,0.1-0.5c0-1.1-0.7-2-1.6-2c-0.9,0-1.6,0.9-1.6,2c0,0.2,0,0.4,0.1,0.5H5.6z"/>
					<path fill="#FFD15D" d="M5.8,48c-0.2-0.7-0.8-1.2-1.4-1.2c-0.6,0-1.2,0.5-1.4,1.2H5.8z"/>
					<path fill="#FFD15D" d="M4.9,48H6c0.7-0.3,1.1-1.1,1.1-2c0-1.2-0.7-2.2-1.7-2.2c-0.9,0-1.7,1-1.7,2.2C3.8,46.9,4.3,47.7,4.9,48
						z"/>
					<ellipse fill="#FFD15D" cx="7.2" cy="43.7" rx="1.7" ry="2.2"/>
					<ellipse fill="#FFD15D" cx="10.3" cy="41" rx="2.8" ry="3.6"/>
					<ellipse fill="#FFD15D" cx="13.2" cy="38" rx="1.1" ry="1.4"/>
					<ellipse fill="#FFD15D" cx="14" cy="37.1" rx="1.3" ry="1.7"/>
					<ellipse fill="#FFD15D" cx="15.8" cy="35.4" rx="1.5" ry="2"/>
					<ellipse fill="#FFD15D" cx="12" cy="37.4" rx="1.5" ry="1.9"/>
					<g>
						<path fill="#FFD15D" d="M3.4,48c-0.1-1.1-0.8-2-1.7-2S0.1,46.9,0,48H3.4z"/>
					</g>
				</g>
			</g>
		</g>
		<circle fill="#FFD15D" cx="36" cy="40.3" r="0.6"/>
		<circle fill="#FFD15D" cx="12.1" cy="40.4" r="0.6"/>
	</g>
</g>
</svg>
