<?xml version="1.0" encoding="utf-8"?>
<!-- Generator: Adobe Illustrator 18.0.0, SVG Export Plug-In . SVG Version: 6.00 Build 0)  -->
<!DOCTYPE svg PUBLIC "-//W3C//DTD SVG 1.1//EN" "http://www.w3.org/Graphics/SVG/1.1/DTD/svg11.dtd">
<svg version="1.1" id="Layer_1" xmlns="http://www.w3.org/2000/svg" xmlns:xlink="http://www.w3.org/1999/xlink" x="0px" y="0px"
	 viewBox="0 0 48 48" enable-background="new 0 0 48 48" xml:space="preserve">
<g>
	<path fill="#F1543F" d="M45.4,25.4c0,7.1-5.8,12.9-12.9,12.9s-12.9-5.8-12.9-12.9c0-7.1,12.9-22.5,12.9-22.5S45.4,18.2,45.4,25.4z"
		/>
	<path fill="#FF7058" d="M37.7,30.5c0,9.7-7.9,17.5-17.5,17.5S2.6,40.1,2.6,30.5S20.1,0,20.1,0S37.7,20.8,37.7,30.5z"/>
	<path fill="#F1543F" d="M19.5,42.7c-6.6,0-11.9-5.4-11.9-11.9c0-0.6-0.4-1-1-1s-1,0.4-1,1c0,7.7,6.2,13.9,13.9,13.9
		c0.6,0,1-0.4,1-1C20.5,43.1,20.1,42.7,19.5,42.7z"/>
	<circle fill="#FFFFFF" cx="20.1" cy="27.7" r="7.9"/>
	<g>
		<rect x="15.6" y="26.7" fill="#FF7058" width="9" height="2"/>
		<rect x="19.2" y="23.2" fill="#FF7058" width="2" height="9"/>
	</g>
</g>
</svg>
