<?xml version="1.0" encoding="utf-8"?>
<!-- Generator: Adobe Illustrator 18.0.0, SVG Export Plug-In . SVG Version: 6.00 Build 0)  -->
<!DOCTYPE svg PUBLIC "-//W3C//DTD SVG 1.1//EN" "http://www.w3.org/Graphics/SVG/1.1/DTD/svg11.dtd">
<svg version="1.1" id="Layer_1" xmlns="http://www.w3.org/2000/svg" xmlns:xlink="http://www.w3.org/1999/xlink" x="0px" y="0px"
	 viewBox="0 0 48 48" enable-background="new 0 0 48 48" xml:space="preserve">
<g>
	<polygon fill="#F7B64C" points="11.6,43.2 11.6,48 14.9,48 17.3,43.2 	"/>
	<g>
		<path fill="#F7B64C" d="M19.6,4.9V3.6c0-0.7,0.5-1.2,1.2-1.2H26c0.7,0,1.2,0.5,1.2,1.2v1.3h2.4V3.6C29.6,1.6,28,0,26,0h-5.2
			c-2,0-3.6,1.6-3.6,3.6v1.3H19.6z"/>
	</g>
	<path fill="#FFD15C" d="M38.3,13.7v27.3c0,2-1.6,3.6-3.6,3.6h-23c-2,0-3.6-1.6-3.6-3.6V13.7H38.3z"/>
	<path fill="#F7B64C" d="M14.3,21.6v13.8c0,1.7,1.4,3.1,3.1,3.1h0c1.7,0,3.1-1.4,3.1-3.1V21.6c0-1.7-1.4-3.1-3.1-3.1h0
		C15.6,18.5,14.3,19.9,14.3,21.6z"/>
	<path fill="#F7B64C" d="M26.1,21.6v13.8c0,1.7,1.4,3.1,3.1,3.1h0c1.7,0,3.1-1.4,3.1-3.1V21.6c0-1.7-1.4-3.1-3.1-3.1h0
		C27.4,18.5,26.1,19.9,26.1,21.6z"/>
	<g>
		<path fill="#F7B64C" d="M39.6,14H7.2c-1.2,0-2.1-0.9-2.1-2.1s0.9-2.1,2.1-2.1h32.4c1.2,0,2.1,0.9,2.1,2.1S40.8,14,39.6,14z"/>
	</g>
	<g>
		<path fill="#FFD15C" d="M39.6,9.8C39.6,9.8,39.7,9.8,39.6,9.8c-0.8-2.9-3.5-5.1-6.8-5.1H14c-3.2,0-6,2.1-6.9,5.1c0,0,0.1,0,0.1,0
			H39.6z"/>
	</g>
	<g>
		<circle fill="#415A6B" cx="36.7" cy="41.8" r="6.2"/>
	</g>
	<g>
		<circle fill="#CED6E0" cx="36.7" cy="41.8" r="2.9"/>
	</g>
</g>
</svg>
