<?xml version="1.0" encoding="utf-8"?>
<!-- Generator: Adobe Illustrator 18.0.0, SVG Export Plug-In . SVG Version: 6.00 Build 0)  -->
<!DOCTYPE svg PUBLIC "-//W3C//DTD SVG 1.1//EN" "http://www.w3.org/Graphics/SVG/1.1/DTD/svg11.dtd">
<svg version="1.1" id="Layer_1" xmlns="http://www.w3.org/2000/svg" xmlns:xlink="http://www.w3.org/1999/xlink" x="0px" y="0px"
	 viewBox="0 0 48 48" enable-background="new 0 0 48 48" xml:space="preserve">
<g>
	<g>
		<g>
			<g>
				<g>
					<path fill="#415A6B" d="M37.7,24.2H25v-2.8h-2v2.8H10.3c-0.6,0-1,0.4-1,1V29h2v-2.8h25.5V29h2v-3.8
						C38.7,24.6,38.3,24.2,37.7,24.2z"/>
				</g>
			</g>
			<g>
				<g>
					<circle fill="#66C6B9" cx="24" cy="11.1" r="11.1"/>
				</g>
				<g>
					<path fill="#FFFFFF" d="M24,19.6c2.7,0,5.1-1.3,6.7-3.3v-0.3c0-1.1-0.7-2-1.7-2.4c-3.2-1.1-6.8-1.1-10,0
						c-1,0.3-1.7,1.3-1.7,2.4v0.3C18.9,18.3,21.3,19.6,24,19.6z"/>
					<circle fill="#FFFFFF" cx="24" cy="8.4" r="3.3"/>
				</g>
			</g>
			<g>
				<g>
					<circle fill="#F3705A" cx="10.3" cy="37.7" r="10.3"/>
				</g>
				<g>
					<path fill="#FFFFFF" d="M10.3,45.7c2.5,0,4.8-1.2,6.2-3v-0.3c0-1-0.6-1.9-1.6-2.2c-3-1-6.3-1-9.3,0C4.7,40.5,4,41.4,4,42.4v0.3
						C5.5,44.5,7.7,45.7,10.3,45.7z"/>
					<circle fill="#FFFFFF" cx="10.3" cy="35.3" r="3"/>
				</g>
			</g>
			<g>
				<g>
					<circle fill="#F3705A" cx="37.7" cy="37.7" r="10.3"/>
				</g>
				<g>
					<path fill="#FFFFFF" d="M37.7,45.7c2.5,0,4.8-1.2,6.2-3v-0.3c0-1-0.6-1.9-1.6-2.2c-3-1-6.3-1-9.3,0c-0.9,0.3-1.6,1.2-1.6,2.2
						v0.3C33,44.5,35.2,45.7,37.7,45.7z"/>
					<circle fill="#FFFFFF" cx="37.7" cy="35.3" r="3"/>
				</g>
			</g>
		</g>
	</g>
</g>
</svg>
