<?xml version="1.0" encoding="utf-8"?>
<!-- Generator: Adobe Illustrator 18.0.0, SVG Export Plug-In . SVG Version: 6.00 Build 0)  -->
<!DOCTYPE svg PUBLIC "-//W3C//DTD SVG 1.1//EN" "http://www.w3.org/Graphics/SVG/1.1/DTD/svg11.dtd">
<svg version="1.1" id="Layer_1" xmlns="http://www.w3.org/2000/svg" xmlns:xlink="http://www.w3.org/1999/xlink" x="0px" y="0px"
	 viewBox="0 0 48 48" enable-background="new 0 0 48 48" xml:space="preserve">
<g>
	<path fill="#F2F2F2" d="M29.3,38.9c0.7,0.3,1.3,0.5,1.9,0.8c0.1-0.3,0.2-0.6,0.3-1c-0.6-0.2-1.3-0.5-1.9-0.8
		C29.5,38.3,29.4,38.6,29.3,38.9z"/>
	<path fill="#F2F2F2" d="M18.7,9.1c-0.7-0.3-1.3-0.5-1.9-0.8c-0.1,0.3-0.2,0.6-0.3,1c0.6,0.2,1.3,0.5,1.9,0.8
		C18.5,9.8,18.6,9.4,18.7,9.1z"/>
	<path fill="#F2F2F2" d="M17.7,13.1c0.1-0.3,0.1-0.7,0.2-1c-0.7-0.3-1.3-0.5-1.9-0.8c-0.1,0.3-0.1,0.7-0.2,1
		C16.4,12.5,17.1,12.8,17.7,13.1z"/>
	<path fill="#ACB3BA" d="M8.2,18.7c-2.3-3.3-3-6.2-2-7.5c1-1.4,3.9-1.6,7.8-0.4c0.3,0.1,0.7,0.2,1,0.3c0.2-0.7,0.3-1.3,0.5-2
		c-0.3-0.1-0.7-0.2-1-0.3c-4.9-1.4-8.4-1-10,1.2c-1.6,2.2-0.9,5.7,2,9.9c1.8,2.6,4.3,5.3,7.2,7.9c-0.1-1-0.1-1.9-0.1-2.9
		C11.5,22.8,9.6,20.7,8.2,18.7z"/>
	<path fill="#ACB3BA" d="M32,36.7c-0.2,0.7-0.3,1.4-0.5,2c0.3,0.1,0.6,0.2,0.9,0.3c0.2-0.7,0.4-1.3,0.5-2
		C32.7,36.9,32.3,36.8,32,36.7z"/>
	<path fill="#ACB3BA" d="M19.4,10.5c-0.3-0.1-0.6-0.3-0.9-0.4c-0.2,0.6-0.4,1.3-0.5,2c0.3,0.1,0.6,0.3,0.9,0.4
		C19,11.8,19.2,11.1,19.4,10.5z"/>
	<path fill="#ACB3BA" d="M16,11.3c0.2-0.7,0.3-1.4,0.5-2c-0.3-0.1-0.6-0.2-0.9-0.3c-0.2,0.6-0.4,1.3-0.5,2
		C15.3,11.1,15.7,11.2,16,11.3z"/>
	<path fill="#ACB3BA" d="M30.1,35.9c-0.2,0.7-0.3,1.4-0.5,2c0.7,0.3,1.3,0.5,1.9,0.8c0.2-0.7,0.4-1.3,0.5-2
		C31.4,36.4,30.7,36.2,30.1,35.9z"/>
	<path fill="none" d="M41.8,11.1C41.2,10.3,40,10,38.4,10c-1.3,0-2.8,0.2-4.5,0.7c-0.6,0.2-1.3,0.4-2,0.6c0.5,2.1,0.8,4.3,1.1,6.6
		c0,0.5,0.1,0.9,0.1,1.4c0.4,0.3,0.7,0.6,1.1,0.9c0.8,0.7,1.7,1.5,2.4,2.3c1.2-1.3,2.2-2.6,3.1-3.9C42,15.3,42.8,12.5,41.8,11.1z"/>
	<path fill="none" d="M33.3,22.2c0,0.5,0,0.9,0,1.4c0,0.1,0,0.3,0,0.4c0,0.6,0,1.2,0,1.9c0.7-0.6,1.3-1.2,1.9-1.9
		c-0.3-0.3-0.6-0.6-0.9-0.9C34,22.8,33.7,22.5,33.3,22.2z"/>
	<path fill="none" d="M31.3,21.7c0-0.5,0-0.9-0.1-1.4c-0.3-0.3-0.7-0.6-1.1-0.9c-0.6-0.5-1.2-0.9-1.9-1.4c-1.4-1-2.9-2-4.3-2.8
		c-1.4,0.9-2.9,1.8-4.3,2.8c-1,0.7-2,1.5-2.9,2.2c-0.1,1.2-0.1,2.4-0.1,3.7c0,0.8,0,1.6,0,2.3c0,0.5,0,0.9,0.1,1.4
		c0.3,0.3,0.7,0.6,1.1,0.9c0.6,0.5,1.2,0.9,1.9,1.4c1.5,1.1,2.9,2,4.3,2.8c1.4-0.8,2.8-1.8,4.3-2.8c1-0.7,2-1.5,2.9-2.2
		c0.1-1.2,0.1-2.4,0.1-3.7C31.3,23.2,31.3,22.4,31.3,21.7z"/>
	<path fill="none" d="M31,30.5c-0.5,0.4-1,0.7-1.5,1.1c-1.2,0.8-2.3,1.6-3.5,2.3c1.1,0.6,2.1,1.1,3.1,1.6c0.3,0.1,0.6,0.3,0.9,0.4
		c0.1-0.3,0.2-0.6,0.2-1C30.6,33.5,30.8,32,31,30.5z"/>
	<path fill="none" d="M29.8,16.7c0.4,0.3,0.7,0.6,1.1,0.8c-0.1-0.5-0.1-0.9-0.2-1.4c-0.2-1.4-0.4-2.8-0.7-4c-1.3,0.6-2.7,1.2-4.1,2
		c1.2,0.7,2.3,1.5,3.5,2.3C29.6,16.5,29.7,16.6,29.8,16.7z"/>
	<path fill="none" d="M14.8,28.7c-0.4-0.3-0.7-0.6-1.1-0.9c-0.1-1-0.1-1.9-0.1-2.9c0.3,0.3,0.7,0.6,1,1c0-0.5,0-0.9,0-1.4
		c0-0.2,0-0.3,0-0.5c0-0.6,0-1.2,0-1.9c-7,6.3-10.1,12.4-8.5,14.7c1.2,1.6,4.9,1.6,9.8-0.2c-0.5-2.1-0.8-4.3-1.1-6.6
		C14.9,29.6,14.8,29.2,14.8,28.7z"/>
	<path fill="none" d="M18.2,31.3c-0.4-0.3-0.7-0.6-1.1-0.8c0.1,0.5,0.1,0.9,0.2,1.4c0.2,1.4,0.4,2.8,0.7,4c1.3-0.6,2.6-1.2,4-2
		c-1.2-0.7-2.3-1.5-3.5-2.3C18.4,31.5,18.3,31.4,18.2,31.3z"/>
	<path fill="#CDD6E0" d="M30.1,12.1c-0.2-0.7-0.3-1.4-0.5-2c-1.8,0.8-3.7,1.7-5.6,2.8c0.7,0.4,1.3,0.8,2,1.2
		C27.4,13.3,28.7,12.7,30.1,12.1z"/>
	<path fill="#CDD6E0" d="M19.7,18.1c1.4-1,2.9-2,4.3-2.8c-0.7-0.4-1.4-0.8-2-1.2c-1.2,0.7-2.3,1.5-3.5,2.3c-0.5,0.4-1,0.7-1.5,1.1
		c-0.1,0.9-0.2,1.8-0.2,2.8C17.7,19.6,18.7,18.8,19.7,18.1z"/>
	<path fill="#CDD6E0" d="M24,32.8c0.7,0.4,1.4,0.8,2,1.2c1.1-0.7,2.3-1.5,3.5-2.3c0.5-0.4,1-0.7,1.5-1.1c0.1-0.9,0.2-1.8,0.2-2.8
		c-0.9,0.8-1.9,1.5-2.9,2.2C26.8,31,25.4,31.9,24,32.8z"/>
	<path fill="#CDD6E0" d="M34,10.7c1.7-0.5,3.2-0.7,4.5-0.7c1.6,0,2.8,0.4,3.3,1.2c1,1.4,0.3,4.2-2,7.5c-0.9,1.3-1.9,2.6-3.1,3.9
		c0.5,0.5,1,1,1.4,1.5c1.3-1.4,2.4-2.8,3.4-4.2c2.9-4.2,3.6-7.7,2-9.9c-1.6-2.2-5.1-2.6-10-1.2c-0.6,0.2-1.3,0.4-1.9,0.6
		c0.2,0.6,0.4,1.3,0.5,2C32.7,11.1,33.3,10.9,34,10.7z"/>
	<path fill="#CDD6E0" d="M6.2,36.9c-1.7-2.3,1.5-8.4,8.5-14.7c0-1,0.1-1.9,0.2-2.9C7.1,25.8,1.5,33.8,4.6,38.1c1,1.4,2.7,2,5,2
		c2,0,4.3-0.5,6.9-1.4c-0.2-0.7-0.4-1.3-0.5-2C11.1,38.4,7.4,38.5,6.2,36.9z"/>
	<path fill="#CDD6E0" d="M35.3,24c-0.6,0.6-1.3,1.2-1.9,1.9c0,1-0.1,1.9-0.2,2.9c1.3-1.1,2.4-2.1,3.5-3.2C36.2,25,35.8,24.5,35.3,24
		z"/>
	<path fill="#CDD6E0" d="M17.9,35.9c0.2,0.7,0.3,1.4,0.5,2c1.8-0.7,3.6-1.7,5.6-2.8c-0.7-0.4-1.3-0.8-2-1.2
		C20.6,34.7,19.2,35.3,17.9,35.9z"/>
	<path fill="#F2F2F2" d="M24,48c3.2,0,5.6-3.4,7.2-8.3c-0.6-0.2-1.3-0.5-1.9-0.8c-1.4,4.4-3.4,7-5.3,7c-2,0-4.1-3-5.5-8
		c-0.7,0.3-1.3,0.5-1.9,0.8C18.1,44.1,20.6,48,24,48z"/>
	<path fill="#F2F2F2" d="M14.9,30.1c0.2,2.3,0.6,4.5,1.1,6.6c0.6-0.2,1.3-0.5,1.9-0.8c-0.3-1.3-0.5-2.6-0.7-4
		C16.4,31.3,15.7,30.7,14.9,30.1z"/>
	<path fill="#CDD6E0" d="M16,36.7c0.2,0.7,0.3,1.4,0.5,2c0.6-0.2,1.3-0.5,1.9-0.8c-0.2-0.6-0.4-1.3-0.5-2
		C17.3,36.2,16.6,36.4,16,36.7z"/>
	<path fill="#F2F2F2" d="M33.1,17.9c-0.2-2.3-0.6-4.5-1.1-6.6c-0.6,0.2-1.3,0.5-1.9,0.8c0.3,1.3,0.5,2.6,0.7,4
		C31.6,16.7,32.3,17.3,33.1,17.9z"/>
	<path fill="#F2F2F2" d="M24,0c-3.2,0-5.6,3.4-7.2,8.4c0.6,0.2,1.3,0.5,1.9,0.8c1.4-4.4,3.4-7.1,5.3-7.1c2,0,4.1,3,5.6,8
		c0.7-0.3,1.3-0.5,1.9-0.8C29.9,3.9,27.4,0,24,0z"/>
	<path fill="#F2F2F2" d="M32,11.3c-0.2-0.7-0.3-1.4-0.5-2c-0.6,0.2-1.3,0.5-1.9,0.8c0.2,0.6,0.4,1.3,0.5,2
		C30.7,11.8,31.4,11.6,32,11.3z"/>
	<path fill="#F2F2F2" d="M30.3,34.9c0.7,0.3,1.3,0.5,1.9,0.8c0.5-2.2,0.8-4.6,0.9-7c-0.7,0.6-1.5,1.2-2.2,1.8
		C30.8,32,30.6,33.5,30.3,34.9z"/>
	<path fill="#F2F2F2" d="M33.4,23.6c-0.7-0.6-1.3-1.2-2.1-1.9c0,0.8,0,1.5,0,2.3c0,1.3,0,2.5-0.1,3.7c0.7-0.6,1.4-1.2,2.1-1.8
		c0-0.6,0-1.2,0-1.9C33.4,23.9,33.4,23.7,33.4,23.6z"/>
	<path fill="#F2F2F2" d="M31.2,27.7c-0.1,1-0.1,1.9-0.2,2.8c0.8-0.6,1.5-1.2,2.2-1.8c0.1-0.9,0.1-1.9,0.2-2.9
		C32.6,26.5,31.9,27.1,31.2,27.7z"/>
	<path fill="#F2F2F2" d="M17.7,13.1c-0.7-0.3-1.3-0.5-1.9-0.8c-0.5,2.2-0.8,4.6-0.9,7c0.7-0.6,1.5-1.2,2.2-1.8
		C17.2,15.9,17.4,14.5,17.7,13.1z"/>
	<path fill="#F2F2F2" d="M14.6,24.5c0.7,0.6,1.4,1.3,2.1,1.9c0-0.8,0-1.5,0-2.3c0-1.3,0-2.5,0.1-3.7c-0.7,0.6-1.5,1.2-2.1,1.8
		c0,0.6,0,1.2,0,1.9C14.6,24.2,14.6,24.3,14.6,24.5z"/>
	<path fill="#F2F2F2" d="M16.8,20.3c0.1-1,0.1-1.9,0.2-2.8c-0.8,0.6-1.5,1.2-2.2,1.8c-0.1,0.9-0.1,1.9-0.2,2.9
		C15.4,21.5,16.1,20.9,16.8,20.3z"/>
	<path fill="#F2F2F2" d="M31,17.5c0.8,0.6,1.5,1.2,2.2,1.8c0-0.5-0.1-0.9-0.1-1.4c-0.7-0.6-1.5-1.2-2.3-1.8
		C30.9,16.6,30.9,17,31,17.5z"/>
	<path fill="#F2F2F2" d="M31.3,21.7c0.7,0.6,1.4,1.3,2.1,1.9c0-0.5,0-0.9,0-1.4c-0.7-0.6-1.4-1.2-2.1-1.8
		C31.2,20.8,31.3,21.2,31.3,21.7z"/>
	<path fill="#F2F2F2" d="M14.9,30.1c0.7,0.6,1.5,1.2,2.3,1.8c-0.1-0.5-0.1-0.9-0.2-1.4c-0.8-0.6-1.5-1.2-2.2-1.8
		C14.8,29.2,14.9,29.6,14.9,30.1z"/>
	<path fill="#F2F2F2" d="M14.7,25.8c0.7,0.6,1.4,1.2,2.1,1.8c0-0.4-0.1-0.9-0.1-1.4c-0.7-0.6-1.4-1.2-2.1-1.9
		C14.6,24.9,14.7,25.4,14.7,25.8z"/>
	<path fill="#F2F2F2" d="M30.1,35.9c0.7,0.3,1.3,0.5,1.9,0.8c0.1-0.3,0.1-0.7,0.2-1c-0.6-0.2-1.3-0.5-1.9-0.8
		C30.2,35.2,30.1,35.6,30.1,35.9z"/>
	<path fill="#ACB3BA" d="M17.9,28.5c0.1,1,0.2,1.9,0.3,2.8c0.1,0.1,0.2,0.2,0.4,0.3c1.2,0.8,2.3,1.6,3.5,2.3c0.7-0.4,1.3-0.8,2-1.2
		c-1.4-0.8-2.8-1.8-4.3-2.8C19.1,29.5,18.5,29,17.9,28.5z"/>
	<path fill="#ACB3BA" d="M26,33.9c-0.7,0.4-1.4,0.8-2,1.2c1.6,0.9,3.1,1.7,4.6,2.4c0.2-0.6,0.4-1.3,0.5-2C28.1,35,27.1,34.5,26,33.9
		z"/>
	<path fill="#CDD6E0" d="M24,32.8c-0.7,0.4-1.4,0.8-2,1.2c0.7,0.4,1.4,0.8,2,1.2c0.7-0.4,1.3-0.8,2-1.2C25.4,33.6,24.7,33.2,24,32.8
		z"/>
	<path fill="#ACB3BA" d="M38.1,24c-0.5,0.5-0.9,1-1.4,1.5c4.6,5,6.5,9.5,5.1,11.4c-1.1,1.5-4.4,1.6-8.8,0.1c-0.2,0.7-0.3,1.4-0.5,2
		c2.2,0.7,4.2,1.1,6,1.1c2.3,0,4-0.7,5-2C45.8,34.8,43,29.3,38.1,24z"/>
	<path fill="#ACB3BA" d="M34.4,23.1c0.3,0.3,0.6,0.6,0.9,0.9c0.5-0.5,1-1,1.4-1.5c-0.8-0.8-1.6-1.5-2.4-2.3
		C34.3,21.2,34.3,22.2,34.4,23.1z"/>
	<path fill="#ACB3BA" d="M36.7,22.5c-0.5,0.5-0.9,1-1.4,1.5c0.5,0.5,1,1,1.4,1.5c0.5-0.5,1-1,1.4-1.5C37.7,23.5,37.2,23,36.7,22.5z"
		/>
	<path fill="#ACB3BA" d="M19.4,10.5c-0.2,0.6-0.3,1.3-0.5,2c1,0.5,2,1,3.1,1.6c0.7-0.4,1.4-0.8,2-1.2C22.4,12,20.9,11.2,19.4,10.5z"
		/>
	<path fill="#ACB3BA" d="M30.1,19.5c-0.1-1-0.2-1.9-0.3-2.8c-0.1-0.1-0.2-0.2-0.4-0.3c-1.2-0.8-2.3-1.6-3.5-2.3
		c-0.7,0.4-1.3,0.8-2,1.2c1.4,0.9,2.9,1.8,4.3,2.8C28.9,18.5,29.5,19,30.1,19.5z"/>
	<path fill="#ACB3BA" d="M26,14.1c-0.7-0.4-1.3-0.8-2-1.2c-0.7,0.4-1.3,0.8-2,1.2c0.7,0.4,1.4,0.8,2,1.2
		C24.7,14.8,25.3,14.5,26,14.1z"/>
	<path fill="#ACB3BA" d="M34.4,23.1c0-1,0-1.9-0.1-2.9c-0.4-0.3-0.7-0.6-1.1-0.9c0.1,0.9,0.1,1.9,0.1,2.9
		C33.7,22.5,34,22.8,34.4,23.1z"/>
	<path fill="#ACB3BA" d="M13.6,24.9c0,1,0,1.9,0.1,2.9c0.4,0.3,0.7,0.6,1.1,0.9c-0.1-0.9-0.1-1.9-0.1-2.9
		C14.3,25.5,14,25.2,13.6,24.9z"/>
	<path fill="#ACB3BA" d="M18.2,31.3c-0.1-0.9-0.2-1.8-0.3-2.8c-0.4-0.3-0.7-0.6-1.1-0.9c0.1,1,0.1,1.9,0.2,2.8
		C17.4,30.8,17.8,31,18.2,31.3z"/>
	<path fill="#ACB3BA" d="M28.6,37.5c0.3,0.1,0.6,0.3,0.9,0.4c0.2-0.6,0.4-1.3,0.5-2c-0.3-0.1-0.6-0.3-0.9-0.4
		C29,36.2,28.8,36.9,28.6,37.5z"/>
	<path fill="#ACB3BA" d="M29.8,16.7c0.1,0.9,0.2,1.8,0.3,2.8c0.4,0.3,0.7,0.6,1.1,0.9c-0.1-1-0.1-1.9-0.2-2.8
		C30.6,17.2,30.2,17,29.8,16.7z"/>
	<path fill="#ACB3BA" d="M31.2,20.3c0.7,0.6,1.5,1.2,2.1,1.8c0-1-0.1-1.9-0.1-2.9c-0.7-0.6-1.5-1.2-2.2-1.8
		C31.1,18.4,31.1,19.4,31.2,20.3z"/>
	<path fill="#F2F2F2" d="M14.8,28.7c0.7,0.6,1.5,1.2,2.2,1.8c-0.1-0.9-0.2-1.8-0.2-2.8c-0.7-0.6-1.5-1.2-2.1-1.8
		C14.7,26.8,14.7,27.8,14.8,28.7z"/>
	<path fill="#F2F2F2" d="M17.9,12.1c0.2-0.7,0.3-1.4,0.5-2c-0.7-0.3-1.3-0.5-1.9-0.8c-0.2,0.6-0.4,1.3-0.5,2
		C16.6,11.6,17.3,11.8,17.9,12.1z"/>
	<g>
		<circle fill="#84DBFF" cx="38.3" cy="8.8" r="2.6"/>
		<circle fill="#FFFFFF" cx="38.3" cy="8.8" r="1.3"/>
	</g>
	<g>
		<circle fill="#FF7058" cx="6.9" cy="18.5" r="2.6"/>
		<circle fill="#FFFFFF" cx="6.9" cy="18.5" r="1.3"/>
	</g>
	<g>
		<circle fill="#FFD15C" cx="28.7" cy="43.3" r="2.6"/>
		<circle fill="#FFFFFF" cx="28.7" cy="43.3" r="1.3"/>
	</g>
	<circle fill="#84DBFF" cx="24" cy="24" r="5.1"/>
</g>
</svg>
