<?xml version="1.0" encoding="utf-8"?>
<!-- Generator: Adobe Illustrator 19.0.1, SVG Export Plug-In . SVG Version: 6.00 Build 0)  -->
<svg version="1.1" id="Layer_1" xmlns="http://www.w3.org/2000/svg" xmlns:xlink="http://www.w3.org/1999/xlink" x="0px" y="0px"
	 viewBox="0 0 48 48" style="enable-background:new 0 0 48 48;" xml:space="preserve">
<style type="text/css">
	.st0{fill:#66C6B9;}
	.st1{fill:#E8EAE9;}
	.st2{fill:#415A6B;}
	.st3{fill:#344A5E;}
	.st4{fill:#FFD15C;}
	.st5{fill:#F7B64C;}
</style>
<g>
	<g>
		<g>
			<g>
				<path class="st0" d="M33.6,28.3c-2.2,0-6.2,6.2-6.2,6.2c-1,1-2.7,1.2-4.7,0.6c-1.9-0.6-4.1-1.9-6-3.8c-3.8-3.8-5.3-8.6-3.2-10.7
					c0,0,6.2-4,6.2-6.2C19.7,9.3,10.4,0,5.2,0C4.4,0,2.9,2.4,2.9,2.4c-6.3,6.3-1.9,21,9.9,32.8c5.9,5.9,12.5,10,18.5,11.8
					c5.9,1.8,11.2,1.3,14.3-1.8c0,0,2.4-1.5,2.4-2.4C48,37.6,38.7,28.3,33.6,28.3z"/>
			</g>
			<g>
				<g>
					<path class="st1" d="M30.9,30c5.7,4.8,10.7,9.8,15,15c0.6-0.4,2.2-1.5,2.2-2.2c0-5.1-9.3-14.4-14.4-14.4
						C32.8,28.3,31.8,29.1,30.9,30z"/>
				</g>
				<path class="st1" d="M18,17.1c1-1,1.7-1.9,1.7-2.7C19.7,9.3,10.4,0,5.2,0C4.6,0,3.4,1.6,3,2.2C7.9,6.2,12.9,11.2,18,17.1z"/>
			</g>
		</g>
		<g>
			<g>
				<g>
					<g>
						<path class="st2" d="M48,7.6V5.7l-1.9-0.6c-0.1-0.2-0.2-0.5-0.3-0.7l0.9-1.8l-1.3-1.3l-1.8,0.9C43.5,2.1,43.2,2,43,1.9L42.4,0
							h-1.9l-0.6,1.9c-0.2,0.1-0.5,0.2-0.7,0.3l-1.8-0.9l-1.3,1.3L37,4.3c-0.1,0.2-0.2,0.5-0.3,0.7l-1.9,0.6v1.9l1.9,0.6
							c0.1,0.2,0.2,0.5,0.3,0.7l-1,1.8l1.3,1.3l1.8-0.9c0.2,0.1,0.5,0.2,0.7,0.3l0.6,1.9h1.9l0.6-1.9c0.2-0.1,0.5-0.2,0.7-0.3
							l1.8,0.9l1.3-1.3l-0.9-1.8c0.1-0.2,0.2-0.5,0.3-0.7L48,7.6z M42.5,6.6c0,0.6-0.5,1.1-1.1,1.1s-1.1-0.5-1.1-1.1
							s0.5-1.1,1.1-1.1S42.5,6,42.5,6.6z"/>
					</g>
				</g>
				<g>
					<path class="st3" d="M41.4,3.6c-1.7,0-3,1.3-3,3s1.4,3,3,3c1.7,0,3-1.3,3-3C44.4,5,43.1,3.6,41.4,3.6z M41.4,7.7
						c-0.6,0-1.1-0.5-1.1-1.1s0.5-1.1,1.1-1.1s1.1,0.5,1.1,1.1S42,7.7,41.4,7.7z"/>
				</g>
			</g>
			<g>
				<g>
					<path class="st4" d="M38.5,22.5l1-2.5l-2.2-1.8c0-0.4,0-0.7,0-1.1l2.2-1.9l-1.1-2.5L35.6,13c-0.2-0.3-0.5-0.5-0.8-0.7L35,9.5
						l-2.5-1l-1.8,2.2c-0.4,0-0.7,0-1.1,0l-1.9-2.2l-2.5,1.1l0.3,2.8c-0.3,0.2-0.5,0.5-0.7,0.8L22,13l-1,2.5l2.2,1.8
						c0,0.4,0,0.7,0,1.1L21,20.3l1.1,2.5l2.8-0.3c0.2,0.3,0.5,0.5,0.8,0.7L25.5,26l2.5,1l1.8-2.2c0.4,0,0.7,0,1.1,0l1.9,2.2l2.5-1.1
						L35,23.1c0.3-0.2,0.5-0.5,0.7-0.8L38.5,22.5z M32.5,18.6c-0.5,1.2-1.9,1.9-3.1,1.4s-1.9-1.9-1.4-3.1s1.9-1.8,3.1-1.4
						C32.4,16,33,17.4,32.5,18.6z"/>
				</g>
				<g>
					<path class="st5" d="M34.9,19.6c1-2.6-0.3-5.4-2.8-6.5c-2.6-1-5.5,0.3-6.5,2.8c-1,2.6,0.3,5.5,2.8,6.5
						C31,23.4,33.9,22.2,34.9,19.6z M28,16.9c0.5-1.2,1.9-1.8,3.1-1.4c1.2,0.5,1.9,1.9,1.4,3.1s-1.9,1.9-3.1,1.4
						C28.1,19.5,27.5,18.1,28,16.9z"/>
				</g>
			</g>
		</g>
	</g>
</g>
</svg>
