<?xml version="1.0" encoding="utf-8"?>
<!-- Generator: Adobe Illustrator 18.0.0, SVG Export Plug-In . SVG Version: 6.00 Build 0)  -->
<!DOCTYPE svg PUBLIC "-//W3C//DTD SVG 1.1//EN" "http://www.w3.org/Graphics/SVG/1.1/DTD/svg11.dtd">
<svg version="1.1" id="Layer_1" xmlns="http://www.w3.org/2000/svg" xmlns:xlink="http://www.w3.org/1999/xlink" x="0px" y="0px"
	 viewBox="0 0 48 48" enable-background="new 0 0 48 48" xml:space="preserve">
<g>
	<path fill="#CDD6E0" d="M46,41.5H2c-1.1,0-2-0.9-2-2V22.3c0-1.1,0.9-2,2-2h44c1.1,0,2,0.9,2,2v17.2C48,40.6,47.1,41.5,46,41.5z"/>
	<g>
		<rect x="2.5" y="22.9" fill="#F2F2F2" width="3.3" height="3.5"/>
		<rect x="7.4" y="22.9" fill="#F2F2F2" width="3.3" height="3.5"/>
		<rect x="12.4" y="22.9" fill="#F2F2F2" width="3.3" height="3.5"/>
		<rect x="17.4" y="22.9" fill="#F2F2F2" width="3.3" height="3.5"/>
		<rect x="22.3" y="22.9" fill="#F2F2F2" width="3.3" height="3.5"/>
		<rect x="27.3" y="22.9" fill="#F2F2F2" width="3.3" height="3.5"/>
		<rect x="32.3" y="22.9" fill="#F2F2F2" width="3.3" height="3.5"/>
		<rect x="37.2" y="22.9" fill="#F2F2F2" width="3.3" height="3.5"/>
		<rect x="42.2" y="22.9" fill="#F2F2F2" width="3.3" height="3.5"/>
	</g>
	<rect x="2.5" y="29.1" fill="#F2F2F2" width="8.3" height="3.5"/>
	<g>
		<rect x="12.4" y="29.1" fill="#F2F2F2" width="3.3" height="3.5"/>
		<rect x="17.4" y="29.1" fill="#F2F2F2" width="3.3" height="3.5"/>
		<rect x="22.3" y="29.1" fill="#F2F2F2" width="3.3" height="3.5"/>
		<rect x="27.3" y="29.1" fill="#F2F2F2" width="3.3" height="3.5"/>
		<rect x="32.3" y="29.1" fill="#F2F2F2" width="3.3" height="3.5"/>
	</g>
	<rect x="37.2" y="29.1" fill="#F2F2F2" width="8.3" height="3.5"/>
	<rect x="2.5" y="35.3" fill="#F2F2F2" width="3.3" height="3.5"/>
	<rect x="7.4" y="35.3" fill="#F2F2F2" width="3.3" height="3.5"/>
	<rect x="12.4" y="35.3" fill="#F2F2F2" width="23.2" height="3.5"/>
	<rect x="37.2" y="35.3" fill="#F2F2F2" width="3.3" height="3.5"/>
	<rect x="42.2" y="35.3" fill="#F2F2F2" width="3.3" height="3.5"/>
	<g>
		<path fill="#ACB3BA" d="M35.1,11.1C29,5,19,5,12.9,11.1c-0.4,0.4-0.4,0.9,0,1.3c0.4,0.4,0.9,0.4,1.3,0c2.6-2.6,6.1-4.1,9.8-4.1
			c3.7,0,7.2,1.4,9.8,4.1c0.2,0.2,0.4,0.3,0.7,0.3c0.2,0,0.5-0.1,0.7-0.3C35.5,12.1,35.5,11.5,35.1,11.1z"/>
		<path fill="#ACB3BA" d="M15.5,13.7c-0.4,0.4-0.4,0.9,0,1.3c0.4,0.4,0.9,0.4,1.3,0c4-4,10.5-4,14.4,0c0.2,0.2,0.4,0.3,0.7,0.3
			s0.5-0.1,0.7-0.3c0.4-0.4,0.4-0.9,0-1.3C27.8,9,20.2,9,15.5,13.7z"/>
		<path fill="#ACB3BA" d="M18.1,16.4c-0.4,0.4-0.4,0.9,0,1.3c0.4,0.4,0.9,0.4,1.3,0c2.5-2.5,6.7-2.5,9.2,0c0.2,0.2,0.4,0.3,0.7,0.3
			c0.2,0,0.5-0.1,0.7-0.3c0.4-0.4,0.4-0.9,0-1.3C26.7,13.1,21.3,13.1,18.1,16.4z"/>
	</g>
</g>
</svg>
