<?xml version="1.0" encoding="utf-8"?>
<!-- Generator: Adobe Illustrator 18.0.0, SVG Export Plug-In . SVG Version: 6.00 Build 0)  -->
<!DOCTYPE svg PUBLIC "-//W3C//DTD SVG 1.1//EN" "http://www.w3.org/Graphics/SVG/1.1/DTD/svg11.dtd">
<svg version="1.1" id="Layer_1" xmlns="http://www.w3.org/2000/svg" xmlns:xlink="http://www.w3.org/1999/xlink" x="0px" y="0px"
	 viewBox="0 0 48 48" enable-background="new 0 0 48 48" xml:space="preserve">
<g>
	<path fill="#FFD15C" d="M40.5,48H7.5c-1.1,0-2-0.9-2-2V8c0-1.1,0.9-2,2-2h33.1c1.1,0,2,0.9,2,2v38C42.5,47.1,41.6,48,40.5,48z"/>
	<rect x="8.6" y="9.1" fill="#F2F2F2" width="30.8" height="35.7"/>
	<path fill="#40596B" d="M28.2,4.2C28.2,1.9,26.3,0,24,0s-4.2,1.9-4.2,4.2h0c-2.9,0-5.3,2.4-5.3,5.3V12h19.1V9.5
		C33.5,6.6,31.2,4.2,28.2,4.2z M24,6c-1.1,0-2.1-0.9-2.1-2.1c0-1.1,0.9-2.1,2.1-2.1s2.1,0.9,2.1,2.1C26.1,5.1,25.1,6,24,6z"/>
	<rect x="11.6" y="14.9" fill="#FF7058" width="4.8" height="4.8"/>
	<g>
		<rect x="19.4" y="16.5" fill="#CDD6E0" width="17" height="1.6"/>
		<rect x="19.4" y="23.9" fill="#CDD6E0" width="17" height="1.6"/>
		<rect x="19.4" y="31.3" fill="#CDD6E0" width="17" height="1.6"/>
		<rect x="19.4" y="38.7" fill="#CDD6E0" width="17" height="1.6"/>
	</g>
	<rect x="11.6" y="22.3" fill="#FF7058" width="4.8" height="4.8"/>
	<rect x="11.6" y="29.7" fill="#FF7058" width="4.8" height="4.8"/>
	<rect x="11.6" y="37.1" fill="#FF7058" width="4.8" height="4.8"/>
</g>
</svg>
