<?xml version="1.0" encoding="utf-8"?>
<!-- Generator: Adobe Illustrator 18.0.0, SVG Export Plug-In . SVG Version: 6.00 Build 0)  -->
<!DOCTYPE svg PUBLIC "-//W3C//DTD SVG 1.1//EN" "http://www.w3.org/Graphics/SVG/1.1/DTD/svg11.dtd">
<svg version="1.1" id="Layer_1" xmlns="http://www.w3.org/2000/svg" xmlns:xlink="http://www.w3.org/1999/xlink" x="0px" y="0px"
	 viewBox="0 0 48 48" enable-background="new 0 0 48 48" xml:space="preserve">
<g>
	<rect y="45.3" fill="#CDD6E0" width="48" height="2.7"/>
	<rect x="3.5" y="19.9" fill="#F2F2F2" width="41.1" height="28.1"/>
	<rect x="8.5" y="26.9" fill="#4CDBC4" width="31.1" height="21.1"/>
	<rect x="7.3" y="24.9" fill="#3DC9AE" width="33.4" height="2"/>
	<path fill="#40596B" d="M23.4,0.2l-22.9,18c-0.8,0.6-0.4,1.8,0.6,1.8h45.9c1,0,1.5-1.2,0.6-1.8l-22.9-18
		C24.3-0.1,23.7-0.1,23.4,0.2z"/>
	<rect x="3.5" y="19.9" fill="#E4EAEF" width="41.1" height="1.5"/>
	<g>
		<g>
			<path fill="#F2F2F2" d="M13.8,37.6h-2.4c-0.6,0-1.1-0.5-1.1-1.1v-0.5c0-0.6,0.5-1.1,1.1-1.1h1.3c0.6,0,1.1,0.5,1.1,1.1V37.6z"/>
			<path fill="#F2F2F2" d="M34.2,37.6h2.4c0.6,0,1.1-0.5,1.1-1.1v-0.5c0-0.6-0.5-1.1-1.1-1.1h-1.3c-0.6,0-1.1,0.5-1.1,1.1V37.6z"/>
		</g>
		<path fill="#FF7058" d="M35.2,38.7H12.8l2.1-6.8c0.3-1.1,1.4-1.9,2.5-1.9h13c1.2,0,2.2,0.8,2.5,1.9L35.2,38.7z"/>
		<path fill="#54C0EB" d="M14.6,38.1l1.7-6c0.2-0.5,0.7-0.9,1.3-0.9h13c0.6,0,1.1,0.4,1.3,1l1.7,6H14.6z"/>
		<g>
			<polygon fill="#84DBFF" points="24.6,31.1 17.7,38.1 16.4,38.1 23.4,31.1 			"/>
			<polygon fill="#84DBFF" points="27.5,31.1 20.5,38.1 18.5,38.1 25.5,31.1 			"/>
		</g>
		<path fill="#FF7058" d="M36.7,44.8H11.3c-0.2,0-0.3-0.1-0.3-0.3l0-3.7c-0.1-2.8,2.2-3.6,5.1-4.3c5.2-1.2,10.6-1.2,15.7,0
			c3,0.8,5.2,1.5,5.1,4.3l0,3.7C37,44.7,36.8,44.8,36.7,44.8z"/>
		<g>
			<path fill="#40596B" d="M15,47.5h-2.2c-0.6,0-1-0.4-1-1v-1.7H16v1.7C16,47.1,15.6,47.5,15,47.5z"/>
			<path fill="#40596B" d="M35.2,47.5H33c-0.6,0-1-0.4-1-1v-1.7h4.2v1.7C36.2,47.1,35.8,47.5,35.2,47.5z"/>
		</g>
		<rect x="11.8" y="44.8" fill="#334A5E" width="4.2" height="0.7"/>
		<rect x="32" y="44.8" fill="#334A5E" width="4.2" height="0.7"/>
		<g>
			<path fill="#FFD15C" d="M16.4,43.3h-2.2c-1.1,0-2-0.9-2-2v0c0-0.9,0.8-1.6,1.7-1.4l2.8,0.6c0.7,0.1,1.2,0.7,1.2,1.4v0
				C17.8,42.7,17.2,43.3,16.4,43.3z"/>
			<path fill="#FFD15C" d="M31.6,43.3h2.2c1.1,0,2-0.9,2-2v0c0-0.9-0.8-1.6-1.7-1.4l-2.8,0.6c-0.7,0.1-1.2,0.7-1.2,1.4v0
				C30.2,42.7,30.8,43.3,31.6,43.3z"/>
		</g>
	</g>
	<path fill="#F1543F" d="M26.9,43h-5.7c-0.8,0-1.5-0.7-1.5-1.5v0c0-0.8,0.7-1.5,1.5-1.5h5.7c0.8,0,1.5,0.7,1.5,1.5v0
		C28.3,42.4,27.7,43,26.9,43z"/>
</g>
</svg>
