<?xml version="1.0" encoding="utf-8"?>
<!-- Generator: Adobe Illustrator 16.0.0, SVG Export Plug-In . SVG Version: 6.00 Build 0)  -->
<!DOCTYPE svg PUBLIC "-//W3C//DTD SVG 1.1//EN" "http://www.w3.org/Graphics/SVG/1.1/DTD/svg11.dtd">
<svg version="1.1" id="Layer_1" xmlns="http://www.w3.org/2000/svg" xmlns:xlink="http://www.w3.org/1999/xlink" x="0px" y="0px"
	 width="48px" height="48px" viewBox="0 0 48 48" enable-background="new 0 0 48 48" xml:space="preserve">
<g>
	<path fill="#FFD15C" d="M30.989,0H4C1.791,0,0,1.791,0,4v27.736c0,2.209,1.791,4,4,4h26.989c2.209,0,4-1.791,4-4V4
		C34.989,1.791,33.198,0,30.989,0"/>
	<rect x="14.034" fill="#F8B64C" width="6.922" height="8.037"/>
	<polygon fill="#F8B64C" points="11.122,23.84 14.416,23.84 14.416,18 16.764,18 12.763,14.012 8.773,18 11.122,18 	"/>
	<polygon fill="#F8B64C" points="20.573,23.84 23.867,23.84 23.867,18 26.216,18 22.215,14.012 18.226,18 20.573,18 	"/>
	<rect x="8.773" y="25.734" fill="#F8B64C" width="17.441" height="1.619"/>
	<path fill="#F2F2F2" d="M20.679,29.051V45c0,1.66,1.35,3,3,3h21.319c1.66,0,3-1.34,3-3V29.051H20.679z"/>
	<path fill="#FF7058" d="M45,20.684H23.684c-1.657,0-3,1.342-3,3v5.369H48v-5.369C48,22.025,46.656,20.684,45,20.684"/>
	<path fill="#FFFFFF" d="M29.008,24.869c0,0.996-0.809,1.803-1.804,1.803c-0.997,0-1.806-0.807-1.806-1.803
		c0-0.998,0.809-1.805,1.806-1.805C28.199,23.064,29.008,23.871,29.008,24.869"/>
	<path fill="#FFFFFF" d="M43.284,24.869c0,0.996-0.809,1.803-1.804,1.803c-0.997,0-1.806-0.807-1.806-1.803
		c0-0.998,0.809-1.805,1.806-1.805C42.476,23.064,43.284,23.871,43.284,24.869"/>
	<polygon fill="#40596B" points="27.881,33.641 31.837,33.641 31.837,43.41 29.74,43.41 29.74,35.5 27.881,35.5 	"/>
	<polygon fill="#40596B" points="33.737,36.771 33.737,33.641 40.797,33.641 40.797,35.291 36.84,43.41 34.465,43.41 38.238,35.514 
		35.778,35.514 35.778,36.771 	"/>
</g>
</svg>
