<?xml version="1.0" encoding="utf-8"?>
<!-- Generator: Adobe Illustrator 16.0.0, SVG Export Plug-In . SVG Version: 6.00 Build 0)  -->
<!DOCTYPE svg PUBLIC "-//W3C//DTD SVG 1.1//EN" "http://www.w3.org/Graphics/SVG/1.1/DTD/svg11.dtd">
<svg version="1.1" id="Layer_1" xmlns="http://www.w3.org/2000/svg" xmlns:xlink="http://www.w3.org/1999/xlink" x="0px" y="0px"
	 width="48px" height="48px" viewBox="0 0 48 48" enable-background="new 0 0 48 48" xml:space="preserve">
<g>
	<path fill="#4CDBC4" d="M42.086,34.05L31.15,31.196L16.965,31.2L5.914,34.05C2.391,35.175,0,38.45,0,42.149v5.852h48v-5.852
		C48,38.45,45.609,35.175,42.086,34.05"/>
	<path fill="#06B594" d="M40.131,48.001H24.02c0.031-0.119,0.051-0.24,0.09-0.35c0.121-0.35,0.311-0.67,0.512-0.98
		c0.51-0.799,1.209-1.559,2.148-1.49c0.691,0.061,1.371,0.111,2.061,0.16c0.16,0.01,0.33,0.031,0.48-0.029
		c0.189-0.07,0.311-0.23,0.439-0.381c0.529-0.67,1.07-1.34,1.609-2.01c0.201-0.25,0.41-0.52,0.451-0.84
		c0.09-0.67-0.57-1.369-0.24-1.949c0.24-0.42,0.83-0.441,1.311-0.391c0.709,0.08,1.43,0.211,2.07,0.541
		c0.639,0.33,1.189,0.859,1.43,1.539c0.119,0.381,0.16,0.791,0.389,1.119c0.4,0.57,1.23,0.611,1.82,0.98
		c0.531,0.33,0.85,0.92,1.02,1.52c0.182,0.592,0.23,1.221,0.361,1.83C40.02,47.511,40.09,47.751,40.131,48.001"/>
	<path fill="#06B594" d="M20.971,45.532c-0.031,0.949-0.25,1.959-1.1,2.379c-0.061,0.029-0.131,0.061-0.191,0.09H9.51
		c0-0.029-0.01-0.07-0.01-0.109c-0.039-0.4-0.34-0.721-0.439-1.1c-0.121-0.51,0.119-1.031,0.119-1.551
		c0.01-1.119-1.08-2.109-0.84-3.199c0.031-0.131,0.08-0.25,0.18-0.33c0.08-0.07,0.191-0.09,0.301-0.102
		c0.641-0.029,1.15,0.551,1.43,1.131c0.27,0.58,0.439,1.24,0.881,1.711c0.43,0.439,1.049,0.639,1.66,0.709
		c0.09,0.01,0.189,0.01,0.27-0.029c0.1-0.041,0.17-0.141,0.23-0.23c0.35-0.561,0.709-1.109,1.059-1.67
		c0.34-0.541,0.73-1.109,1.32-1.311c0.359-0.119,0.75-0.09,1.131-0.049c0.859,0.09,1.729,0.238,2.5,0.639
		c0.77,0.391,1.42,1.08,1.609,1.92C20.99,44.792,20.98,45.161,20.971,45.532"/>
	<path fill="#06B594" d="M47.42,39.062c-0.08,1.221-0.42,2.43-1.189,3.369c-0.25,0.301-0.561,0.58-0.951,0.67
		c-0.389,0.08-0.799-0.049-1.199-0.1c-0.801-0.109-1.609,0.121-2.41,0.131c-0.811,0.01-1.73-0.301-2.02-1.051
		c-0.109-0.289-0.109-0.609-0.1-0.93c0.029-0.631,0.119-1.26,0.25-1.881c0.199-0.908,0.459-2.029-0.24-2.648
		c-0.73-0.641-1.93-0.191-2.801-0.621c-0.98-0.48-1.139-1.799-1.15-2.889c-0.01-0.25-0.01-0.5,0.012-0.75l6.469,1.689
		C44.58,34.841,46.51,36.722,47.42,39.062"/>
	<path fill="#06B594" d="M25.932,31.198c0.457,0.641,0.234,1.623,0.057,2.438c-0.131,0.619-0.221,1.25-0.25,1.879
		c-0.01,0.32-0.01,0.641,0.1,0.932c0.289,0.75,1.211,1.059,2.02,1.049c0.801-0.01,1.611-0.24,2.41-0.129
		c0.4,0.049,0.811,0.18,1.201,0.1c0.389-0.09,0.699-0.371,0.949-0.67c0.77-0.939,1.109-2.15,1.189-3.371
		c-0.258-0.662-0.605-1.281-1.016-1.855l-1.502-0.373L25.932,31.198z"/>
	<path fill="#06B594" d="M22.061,33.251c-0.711,0.189-1.451,0.5-1.701,0.98c-0.17,0.33-0.42,0.76-0.77,0.66
		c-0.219-0.061-0.33-0.301-0.48-0.451c-0.369-0.369-1.02-0.279-1.43,0.041c-0.42,0.311-0.67,0.789-0.959,1.221
		c-0.541,0.809-1.24,1.52-2.051,2.068c-0.15,0.102-0.311,0.201-0.49,0.191s-0.33-0.131-0.449-0.26
		c-0.781-0.871-0.291-2.221-0.189-3.391c0.059-0.74-0.061-1.461-0.291-2.15l3.711-0.959h5.818c0.041,0.08,0.08,0.16,0.121,0.238
		C23.25,32.171,22.85,33.042,22.061,33.251"/>
	<path fill="#06B594" d="M4.621,42.142c-0.721,0.189-1.461,0.5-1.701,0.98c-0.17,0.33-0.42,0.76-0.779,0.66
		c-0.211-0.061-0.32-0.291-0.48-0.451c-0.369-0.359-1.01-0.27-1.42,0.041C0.15,43.44,0.07,43.511,0,43.591v-1.439
		c0-3.02,1.59-5.76,4.1-7.27c-0.049,0.27-0.09,0.539-0.109,0.809c-0.07,1.191,0.789,3.24,1.461,4.641
		C5.801,41.071,5.41,41.931,4.621,42.142"/>
	<path fill="#F8B64C" d="M31.09,31.726L31.09,31.726v-5.719H16.904v5.725C20.68,36.413,27.316,36.411,31.09,31.726"/>
	<path fill="#FFD15C" d="M34.355,12.179v3.4c0,0.059-0.09,3.314-0.891,5.609c-0.936,2.682-2.279,5.209-4.209,7.32l-0.99,1.08
		c-0.9,0.99-2.18,1.549-3.52,1.549h-1.5c-1.33,0-2.611-0.568-3.512-1.549l-0.979-1.08c-1.371-1.49-2.49-3.189-3.32-5
		c-0.721-1.551-1.791-4.584-1.791-8.16v-3.109c0-1.988,0.67-3.691,0.852-4.092c1.58-3.68,5.238-6.26,9.51-6.26
		c4.25,0,7.91,2.57,9.49,6.24C33.676,8.538,34.355,10.095,34.355,12.179"/>
	<path fill="#F8B64C" d="M16.875,15.724c0.156,1.795-0.715,3.338-1.945,3.445c-1.232,0.107-2.357-1.26-2.516-3.055
		c-0.156-1.795,0.715-3.338,1.947-3.445C15.592,12.56,16.717,13.929,16.875,15.724"/>
	<path fill="#F8B64C" d="M35.586,16.114c-0.158,1.795-1.283,3.162-2.514,3.055c-1.232-0.107-2.104-1.65-1.947-3.445
		c0.158-1.795,1.283-3.162,2.514-3.055C34.871,12.776,35.742,14.319,35.586,16.114"/>
	<path fill="#FFD15C" d="M34.355,12.179v3.4c0,0.059-0.09,3.314-0.891,5.609c-0.936,2.682-2.279,5.209-4.209,7.32l-0.99,1.08
		c-0.9,0.99-2.18,1.549-3.52,1.549h-1.5c-1.33,0-2.611-0.568-3.512-1.549l-0.979-1.08c-1.371-1.49-2.49-3.189-3.32-5
		c-0.721-1.551-1.791-4.584-1.791-8.16v-3.109c0-1.988,0.67-3.691,0.852-4.092c1.58-3.68,5.238-6.26,9.51-6.26
		c4.25,0,7.91,2.57,9.49,6.24C33.676,8.538,34.355,10.095,34.355,12.179"/>
	<g opacity="0.1">
		<g>
			<defs>
				<rect id="SVGID_207_" x="23.16" y="26.37" width="7.93" height="7.572"/>
			</defs>
			<clipPath id="SVGID_2_">
				<use xlink:href="#SVGID_207_"  overflow="visible"/>
			</clipPath>
			<path clip-path="url(#SVGID_2_)" fill="#40596B" d="M29.256,28.515l-0.99,1.08c-0.9,0.99-2.18,1.551-3.52,1.551h-1.5
				c-0.027,0-0.055-0.008-0.082-0.01l3.727,2.805c1.563-0.496,3.021-1.41,4.199-2.736v-0.002V26.37
				c-0.072,0.039-0.162,0.082-0.242,0.123C30.357,27.196,29.838,27.878,29.256,28.515"/>
		</g>
	</g>
	<path fill="#3DC9AE" d="M24.205,0.009c-0.068-0.01-0.135-0.01-0.205-0.01c-5.723,0-10.355,5.166-10.355,12.531
		c0,0.174,0.006,0.34,0.01,0.512c0.133-0.127,0.275-0.254,0.424-0.381l-0.027-0.008c0,0,5.637-3.119,10.129-2.705
		c4.492-0.414,10.031,2.971,10.168,3.098c0.004-0.172,0.008-0.342,0.008-0.516C34.355,5.253,29.826,0.146,24.205,0.009"/>
	<path fill="#3DC9AE" d="M24.205,0.009c-0.068-0.01-0.135-0.01-0.205-0.01c-5.723,0-10.355,5.166-10.355,12.531
		c0,0.174,0.006,0.34,0.01,0.512c0.133-0.127,0.275-0.254,0.424-0.381l-0.027-0.008c0,0,5.637-3.119,10.129-2.705
		c4.492-0.414,10.031,2.971,10.168,3.098c0.004-0.172,0.008-0.342,0.008-0.516C34.355,5.253,29.826,0.146,24.205,0.009"/>
	<path fill="#3DC9AE" d="M34.35,12.532v0.51c-0.059-0.051-1.189-0.75-2.83-1.48c-0.42-0.189-0.869-0.371-1.34-0.551
		c-0.77-0.289-1.59-0.549-2.439-0.75c-0.289-0.07-0.6-0.139-0.891-0.189c-0.01,0-0.029,0.01-0.039,0
		c-0.141-0.02-0.27-0.039-0.41-0.061c-0.75-0.1-1.5-0.129-2.221-0.059c-1.609-0.15-3.379,0.158-4.969,0.619
		c-2.852,0.801-5.16,2.08-5.16,2.08l0.029,0.01c-0.15,0.131-0.289,0.25-0.43,0.381v-0.51c0-2.801,0.67-5.291,1.82-7.291
		c0.98-1.721,2.32-3.09,3.879-3.99c1.4-0.811,2.98-1.25,4.65-1.25c0.07,0,0.141,0,0.211,0.01c0.039,0,0.068,0,0.109,0.01
		c1.49,0.041,2.9,0.451,4.17,1.15c1.699,0.939,3.15,2.42,4.17,4.311c0.721,1.311,1.23,2.82,1.49,4.49
		C34.279,10.792,34.35,11.642,34.35,12.532"/>
	<g opacity="0.1">
		<g>
			<defs>
				<rect id="SVGID_209_" x="18.699" y="10.741" width="15.66" height="11.432"/>
			</defs>
			<clipPath id="SVGID_4_">
				<use xlink:href="#SVGID_209_"  overflow="visible"/>
			</clipPath>
			<path clip-path="url(#SVGID_4_)" fill="#40596B" d="M34.346,13.03l-2.031,0.553c-0.904,0.246-1.881,0.027-2.564-0.615
				C27.152,10.522,24,10.745,24,10.745s-0.014,0-0.031,0c-0.311-0.014-2.855-0.061-5.256,1.82c-0.004,0.002-0.008,0.006-0.01,0.008
				l14.373,9.6c0.129-0.328,0.273-0.65,0.389-0.984c0.801-2.295,0.891-5.551,0.891-5.609L34.346,13.03z"/>
		</g>
	</g>
	<path fill="#06B594" d="M26.814,9.399c0.08,0.07,0.17,0.15,0.26,0.201c-0.75-0.102-1.5-0.131-2.221-0.061
		c-1.609-0.15-3.379,0.16-4.969,0.619c-0.021-0.01-0.041-0.029-0.061-0.049c-0.041-0.051-0.08-0.111-0.09-0.18
		c0-0.061,0.02-0.111,0.049-0.16c0.18-0.281,0.58-0.33,0.92-0.281c0.33,0.061,0.66,0.191,1,0.141c0.32-0.051,0.59-0.26,0.801-0.51
		c0.029-0.031,0.07-0.07,0.07-0.121c0.02-0.049-0.01-0.109-0.031-0.16c-0.129-0.33-0.27-0.648-0.398-0.969
		c-0.131-0.301-0.26-0.641-0.16-0.961c0.049-0.189,0.18-0.35,0.309-0.5c0.301-0.35,0.621-0.68,1.031-0.889
		c0.4-0.211,0.889-0.291,1.311-0.111c0.18,0.07,0.34,0.191,0.488,0.301c0.4,0.299,0.771,0.699,0.701,1.189
		c-0.061,0.359-0.121,0.721-0.17,1.07c-0.01,0.09-0.031,0.18,0,0.26c0.029,0.1,0.1,0.17,0.18,0.24
		C26.154,8.78,26.484,9.089,26.814,9.399"/>
	<path fill="#06B594" d="M28.961,3.702c0.01,0.25-0.25,0.42-0.48,0.529c-0.35,0.15-0.711,0.279-1.09,0.301
		c-0.371,0.02-0.77-0.07-1.051-0.32c-0.16-0.131-0.289-0.311-0.48-0.4c-0.33-0.15-0.719,0.051-1.09,0.039
		c-0.318-0.01-0.619-0.189-0.859-0.42c-0.24-0.219-0.43-0.49-0.65-0.729c-0.15-0.17-0.32-0.32-0.43-0.512
		c-0.119-0.189-0.189-0.43-0.129-0.639c0.119-0.371,0.549-0.51,0.908-0.641c0.371-0.129,0.781-0.4,0.74-0.789
		c-0.01-0.031-0.01-0.07-0.029-0.102c1.49,0.041,2.9,0.451,4.17,1.15c-0.051,0.41-0.119,0.801-0.17,1.211
		c-0.029,0.17-0.051,0.35,0.02,0.5C28.48,3.212,28.961,3.351,28.961,3.702"/>
	<path fill="#06B594" d="M21.43,5.651c-0.109,0.42-1.029-0.199-1.16,0.24c-0.039,0.129-0.039,0.27-0.029,0.4
		c0.02,0.779-0.141,1.6-0.641,2.209c-0.129,0.16-0.289,0.301-0.49,0.35c-0.209,0.041-0.42-0.029-0.639-0.049
		c-0.42-0.061-0.84,0.061-1.26,0.07c-0.432,0-0.91-0.16-1.061-0.561c-0.061-0.15-0.061-0.32-0.051-0.48
		c0.01-0.34,0.061-0.67,0.131-0.99c0.1-0.479,0.24-1.07-0.131-1.389c-0.17-0.15-0.4-0.191-0.629-0.211
		c0.979-1.721,2.32-3.09,3.879-3.99c0.35,0.41,0.781,0.76,1.211,1.09c0.48,0.371,1.01,0.801,1.02,1.4c0.01,0.34-0.15,0.66-0.24,0.99
		S21.551,5.302,21.43,5.651"/>
	<path fill="#06B594" d="M34.15,9.972c-0.131,0.07-0.23,0.16-0.279,0.27c-0.092,0.17-0.221,0.4-0.41,0.34
		c-0.111-0.029-0.17-0.15-0.25-0.23c-0.201-0.199-0.531-0.148-0.75,0.021c-0.221,0.16-0.352,0.41-0.5,0.639
		c-0.131,0.201-0.281,0.381-0.441,0.551c-0.199,0.199-0.42,0.379-0.648,0.539c-0.07,0.051-0.16,0.102-0.25,0.102
		c-0.092-0.012-0.182-0.07-0.24-0.141c-0.25-0.279-0.25-0.66-0.201-1.051c0.031-0.25,0.08-0.5,0.1-0.729
		c0.111-1.371-0.949-2.541-1.359-3.852c-0.07-0.229-0.119-0.479-0.061-0.709c0.07-0.221,0.281-0.43,0.521-0.41
		c0.289,0.029,0.449,0.34,0.59,0.609c0.289,0.58,0.709,1.1,1.209,1.52c0.17,0.141,0.381,0.281,0.6,0.23
		c0.33-0.07,0.422-0.469,0.48-0.799c0.09-0.471,0.221-0.941,0.4-1.391C33.381,6.792,33.891,8.302,34.15,9.972"/>
	<path fill="#4CDBC4" d="M24,8.487c-5.818,0.104-10.346,4.543-10.346,4.543l2.029,0.553c0.904,0.246,1.883,0.027,2.564-0.615
		c2.6-2.447,5.752-2.221,5.752-2.221s3.152-0.227,5.75,2.221c0.682,0.643,1.66,0.861,2.564,0.615l2.031-0.553
		C34.346,13.03,30.072,8.462,24,8.487"/>
	<rect x="22.982" y="35.218" fill="#06B594" width="2.018" height="12.783"/>
	<polygon fill="#CDD6E0" points="31.84,31.372 27.75,40.597 24,35.241 31.09,31.196 	"/>
	<polygon fill="#CDD6E0" points="24,35.241 20.25,40.597 16.18,31.401 16.904,31.2 	"/>
	<path fill="#ACB3BA" d="M31.84,31.372l-1.1,2.469c-0.141-0.129-0.26-0.279-0.43-0.359c-0.33-0.15-0.721,0.051-1.09,0.039
		c-0.32-0.01-0.621-0.189-0.861-0.42c-0.08-0.068-0.148-0.148-0.209-0.229l2.939-1.682L31.84,31.372z"/>
	<path fill="#ACB3BA" d="M20.859,36.001c0.012,0.25-0.25,0.42-0.479,0.531c-0.352,0.148-0.711,0.279-1.09,0.299
		c-0.262,0.01-0.541-0.029-0.771-0.141l-1.92-4.34c0.91,0.051,1.791,0.262,2.621,0.58c0.699,0.271,1.09,1,1,1.74v0.01
		c-0.031,0.17-0.051,0.352,0.02,0.5C20.381,35.511,20.859,35.651,20.859,36.001"/>
	<path fill="#ACB3BA" d="M22.77,37.001l-2.309,3.301c-0.121-0.061-0.23-0.141-0.33-0.24c-0.09-0.08-0.16-0.16-0.23-0.25l-0.83-1.881
		c0.189-0.189,0.49-0.289,0.76-0.389c0.371-0.131,0.779-0.4,0.74-0.791c-0.01-0.029-0.01-0.07-0.029-0.1
		C21.311,36.661,22.051,36.792,22.77,37.001"/>
	<path fill="#ACB3BA" d="M29.43,36.821l-1.559,3.51c-0.131-0.07-0.262-0.16-0.371-0.27c-0.221-0.199-0.391-0.439-0.59-0.66
		c-0.02-0.02-0.039-0.051-0.061-0.07c-0.15-0.17-0.32-0.32-0.43-0.51c-0.061-0.09-0.109-0.199-0.129-0.311
		c-0.031-0.109-0.031-0.219,0-0.33c0.119-0.369,0.549-0.51,0.908-0.639c0.371-0.131,0.781-0.4,0.74-0.791
		c-0.01-0.029-0.01-0.07-0.029-0.1C28.43,36.661,28.939,36.722,29.43,36.821"/>
</g>
</svg>
