<?xml version="1.0" encoding="utf-8"?>
<!-- Generator: Adobe Illustrator 18.0.0, SVG Export Plug-In . SVG Version: 6.00 Build 0)  -->
<!DOCTYPE svg PUBLIC "-//W3C//DTD SVG 1.1//EN" "http://www.w3.org/Graphics/SVG/1.1/DTD/svg11.dtd">
<svg version="1.1" id="Layer_1" xmlns="http://www.w3.org/2000/svg" xmlns:xlink="http://www.w3.org/1999/xlink" x="0px" y="0px"
	 viewBox="0 0 48 48" enable-background="new 0 0 48 48" xml:space="preserve">
<g>
	<g>
		<g>
			<g>
				<path fill="#E8EAE9" d="M29.1,27.3c0,8-6.5,14.6-14.5,14.6C6.5,41.9,0,35.4,0,27.3C0,21.4,3.6,16.3,8.7,14V2.8h11.7V14
					C25.5,16.3,29.1,21.4,29.1,27.3z"/>
				<g>
					<path fill="#FFD15C" d="M3,24.1c-0.3,1-0.5,2.1-0.5,3.2c0,6.6,5.4,12,12,12c6.6,0,12-5.4,12-12c0-1.1-0.2-2.2-0.5-3.2H3z"/>
				</g>
			</g>
			<g>
				<rect x="8.7" y="2.8" fill="#CED6E0" width="11.7" height="1.9"/>
			</g>
			<g>
				<path fill="#E8EAE9" d="M6.9,1.7L6.9,1.7c0,1,0.8,1.7,1.7,1.7h11.8c1,0,1.7-0.8,1.7-1.7l0,0c0-1-0.8-1.7-1.7-1.7H8.7
					C7.7,0,6.9,0.8,6.9,1.7z"/>
			</g>
		</g>
		<g>
			<g>
				<g>
					<path fill="#F3705A" d="M36.8,33.6l-1-2.7l-3.1,0.5c-0.5-0.7-1.2-1.4-1.9-1.9l0.6-3.1l-2.6-1.1l-1.9,2.5
						c-0.9-0.1-1.8-0.2-2.7,0l-1.8-2.6l-2.7,1l0.5,3.1c-0.7,0.5-1.4,1.2-1.9,1.9l-3.1-0.6l-1.2,2.6l2.5,1.9c-0.1,0.9-0.2,1.8,0,2.7
						l-2.6,1.8l1,2.7l3.1-0.5c0.5,0.8,1.2,1.4,1.9,1.9l-0.6,3.1l2.6,1.2l1.9-2.5c0.9,0.1,1.8,0.2,2.7,0l1.8,2.6l2.7-1l-0.5-3.1
						c0.7-0.5,1.4-1.2,1.9-1.9l3.1,0.6l1.2-2.6l-2.5-1.9c0.1-0.9,0.2-1.8,0-2.7L36.8,33.6z M26.6,39.7c-1.7,0.7-3.7-0.2-4.4-1.9
						c-0.7-1.7,0.2-3.7,1.9-4.4c1.7-0.7,3.7,0.2,4.4,1.9C29.2,37.1,28.3,39,26.6,39.7z"/>
				</g>
				<path fill="#F05540" d="M23.3,31.2c-3,1.2-4.4,4.5-3.3,7.5c1.2,3,4.5,4.4,7.5,3.3c3-1.2,4.4-4.5,3.3-7.5
					C29.6,31.5,26.2,30,23.3,31.2z M26.6,39.7c-1.7,0.7-3.7-0.2-4.4-1.9c-0.7-1.7,0.2-3.7,1.9-4.4c1.7-0.7,3.7,0.2,4.4,1.9
					C29.2,37.1,28.3,39,26.6,39.7z"/>
			</g>
			<g>
				<g>
					<path fill="#8AD7F8" d="M48,23.9v-2.2l-2.3-0.5c-0.2-0.7-0.4-1.3-0.8-1.9l1.3-2l-1.5-1.5l-2,1.3c-0.6-0.3-1.2-0.6-1.9-0.8
						l-0.5-2.3H38l-0.5,2.3c-0.7,0.2-1.3,0.4-1.9,0.8l-2-1.3L32,17.3l1.3,2c-0.3,0.6-0.6,1.2-0.8,1.9l-2.3,0.5v2.2l2.3,0.5
						c0.2,0.7,0.4,1.3,0.8,1.9l-1.3,2l1.5,1.5l2-1.3c0.6,0.3,1.2,0.6,1.9,0.8l0.5,2.3h2.2l0.5-2.3c0.7-0.2,1.3-0.4,1.9-0.8l2,1.3
						l1.5-1.5l-1.3-2c0.3-0.6,0.6-1.2,0.8-1.9L48,23.9z M39.1,25.4c-1.4,0-2.6-1.2-2.6-2.6c0-1.4,1.2-2.6,2.6-2.6
						c1.4,0,2.6,1.2,2.6,2.6C41.7,24.2,40.5,25.4,39.1,25.4z"/>
				</g>
				<path fill="#55C0EB" d="M39.1,18.4c-2.4,0-4.4,2-4.4,4.4c0,2.4,2,4.4,4.4,4.4s4.4-2,4.4-4.4C43.5,20.4,41.5,18.4,39.1,18.4z
					 M39.1,25.4c-1.4,0-2.6-1.2-2.6-2.6c0-1.4,1.2-2.6,2.6-2.6c1.4,0,2.6,1.2,2.6,2.6C41.7,24.2,40.5,25.4,39.1,25.4z"/>
			</g>
		</g>
	</g>
</g>
</svg>
