<?xml version="1.0" encoding="utf-8"?>
<!-- Generator: Adobe Illustrator 18.0.0, SVG Export Plug-In . SVG Version: 6.00 Build 0)  -->
<!DOCTYPE svg PUBLIC "-//W3C//DTD SVG 1.1//EN" "http://www.w3.org/Graphics/SVG/1.1/DTD/svg11.dtd">
<svg version="1.1" id="Layer_1" xmlns="http://www.w3.org/2000/svg" xmlns:xlink="http://www.w3.org/1999/xlink" x="0px" y="0px"
	 viewBox="0 0 48 48" enable-background="new 0 0 48 48" xml:space="preserve">
<g>
	<g>
		<g>
			<path fill="#E8EAE8" d="M20.7,46"/>
		</g>
	</g>
	<g>
		<g>
			<g>
				<g>
					<g>
						<path fill="#F26F5A" d="M26.4,47.1c0,0,0-0.2-0.2-0.4c-0.1-0.1-0.4-0.3-0.8-0.4c-0.4-0.1-0.7-0.5-0.8-0.6
							c-0.1-0.1-0.7-0.7-0.7-0.7c-1.7-0.4-3.6-1.1-4,0.4l1,0.8l2.9,1.2C23.8,47.4,26.1,47.9,26.4,47.1z"/>
					</g>
				</g>
			</g>
			<g>
				<g>
					<g>
						<path fill="#E8EAE8" d="M19.9,45.4c0,0,0.9,0.5,1.5,0.5c0.8,0,1.8,0.9,1.9,1.2c0,0,2.8,0.4,3,0.1c0.1-0.3,0-0.5,0-0.5
							s0.4,0.3,0,0.7C25.9,47.7,24.7,48,24,48c-0.6,0-1.4-0.3-1.7-0.4c-0.1,0-0.1-0.1-0.1-0.2c0-0.1,0-0.4-0.3-0.4
							c0,0-0.3,0.4-0.7,0.4s-1.2-0.3-1.5-0.5c-0.3-0.2-0.6-0.3-0.5-0.5c0.1-0.2,0.3-0.3,0.3-0.3C19.6,45.8,19.7,45.6,19.9,45.4z"/>
					</g>
				</g>
			</g>
		</g>
		<g>
			<g>
				<path fill="#344A5E" d="M19.7,45.4c0,0,1.1-0.1,2,0.2c0.9,0.3,2.7,0.1,2.8-0.2c0,0-0.3-0.7-0.4-1c-0.2-0.3,0.1-1.7,0.2-1.9
					c0.2-0.2,2.2-4.7,2.4-5.2c0.2-0.5,1.3-2.8,1.3-3.3c0-0.5-3.5-0.3-3.5-0.3s-2.6,5.1-3.2,6.9C20.7,42.5,19.7,45.4,19.7,45.4z"/>
			</g>
		</g>
		<g>
			<g>
				<g>
					<g>
						<path fill="#F26F5A" d="M14.8,42.4c0,0,0.2-0.1,0.3-0.2c0.1-0.1,0.2-0.4,0.3-0.8c0.1-0.4,0.4-0.8,0.5-0.9
							c0.1-0.1,0.6-0.8,0.6-0.8l-1-3.8l-0.6,1l-0.8,3C14.2,39.8,14,42.2,14.8,42.4z"/>
					</g>
				</g>
			</g>
			<g>
				<g>
					<g>
						<path fill="#E8EAE8" d="M15.7,35.7c0,0-0.4,0.9-0.3,1.6c0.1,0.8-0.7,1.9-1,2c0,0-0.1,2.9,0.2,3c0.3,0.1,0.5-0.1,0.5-0.1
							s-0.3,0.4-0.7,0.1c-0.4-0.3-0.8-1.5-0.8-2.2c0-0.6,0.1-1.4,0.2-1.8c0-0.1,0.1-0.1,0.2-0.1c0.1,0,0.4-0.1,0.4-0.3
							c0,0-0.4-0.3-0.4-0.6c0-0.3,0.2-1.2,0.3-1.6c0.2-0.3,0.3-0.6,0.4-0.5c0.2,0.1,0.3,0.2,0.3,0.2C15.3,35.6,15.6,35.5,15.7,35.7z
							"/>
					</g>
				</g>
			</g>
		</g>
		<g>
			<g>
				<g>
					<path fill="#425A6B" d="M24.9,20l-0.7,0.3c0,0-2.3,1.9-1.3,4.6c0,0,0.4,0.8,0.7,1.1c0.3,0.3,0.7,2.4,0.6,3.4
						c-0.1,1,0.3,2.7,0.3,2.7s0.3,0.4-0.5,0.8c-0.8,0.4-4.1,1.8-4.8,2.3c-0.7,0.5-1.1,0.7-1.7,0.6c-0.6-0.1-2.1-0.3-2.1-0.3
						s0.3,1.9,0.8,3.3c0.5,1.4,0.4,1.6,0.4,1.6s0.7-0.3,1.2-0.6c0.5-0.3,4.7-2,4.7-2s5.7-2.7,6.2-3.8c0.5-1.1,0.6-1.8,0.6-3.1
						c0-1.3-0.1-6-0.3-7.1c0,0,0.5-1,0.8-1.9L25,20"/>
				</g>
			</g>
		</g>
		<g>
			<g>
				<g>
					<path fill="#F5B54C" d="M24,9.8l0.7,3l-0.6,1.8l1.8,0.8l-0.5,2.1c0,0-1.6-0.5-2.3-0.9c0,0-0.5-0.2-0.7-0.3
						c-0.2-0.1-0.6-0.3-0.5-0.9c0.1-0.7,0.4-2.7,1.1-4.1S24,8.8,24,8.8L24,9.8z"/>
				</g>
			</g>
		</g>
		<g>
			<g>
				<g>
					<path fill="#425A6B" d="M27.1,6.3c-0.1,0.2-0.1,0.3-0.2,0.5c-0.2,0.4-0.4,0.8-0.8,1c-0.4,0.3-0.9,0.3-1.3,0.4
						c0-0.3,0.1-0.6,0.2-0.9c0.3-0.7,0.6-1.4,0.9-2.2c0.2-0.4,0.3-0.8,0.6-1.1c0.2-0.3,0.6-0.5,0.9-0.7C27.3,4.4,27.5,5.4,27.1,6.3z
						"/>
				</g>
			</g>
		</g>
		<g>
			<g>
				<g>
					<path fill="#FFD15C" d="M32.3,3.1l-0.2,0.5c0,0,0.1,0.3,0,0.4c-0.1,0.2-0.3,0.3-0.3,0.6c0,0.3,0,0.7-0.4,1.2
						c0,0-0.5,0.7-0.7,0.8c0,0-0.2,0.6-0.8,0.5c-0.5-0.1-0.6-0.3-0.6-0.3s-0.5,1.5-0.5,1.7c0,0.3,0.4,0.5,0.5,1.1l-1.7-1.5
						c0,0-0.6-0.5-0.9-0.4c-0.3,0-1.8,0.8-1.8,0.8l-0.2-0.3c0,0,1.1-1.1,1.4-1.7c0.3-0.6,1.2-2.5,1.2-3C27.4,3.1,31.1,0,32.3,3.1z"
						/>
				</g>
			</g>
			<g>
				<g>
					<g>
						<path fill="#F26F5A" d="M24.8,7.8c0,0,0,0.3,0.4,0.2c0.4-0.1,0.7-0.8,1.6-0.4c0.9,0.5,1.9,1.4,1.9,1.4s1.1,0.8,1.6,1.3
							c0.5,0.5,1,1.5,0.6,2.7c-0.4,1.1-0.5,0.9-0.5,1.7c0,0.8-0.1,3.8-0.4,5c-0.2,1.3-0.3,2.1-0.4,2.4c0,0.3,0.1,0.3-0.8,0
							c-0.9-0.3-2.2-0.5-2.8-0.9c-0.6-0.3-1.8-1-2-1c0,0,1-1,1.1-1.7c0.1-0.6-0.1-4.6-0.4-5.3c-0.4-0.7-1.2-2.4-1-3.7
							C24.1,8.3,24.8,7.8,24.8,7.8z"/>
					</g>
				</g>
			</g>
		</g>
		<g>
			<g>
				<g>
					<path fill="#425A6B" d="M29.4,3.3c0,0,0.2-0.3,0.2-0.4c0,0-1.4,0.3-1.5,1.9c0,0-0.1-0.7,0.4-1.4c0,0-0.9,0.6-0.7,2.1
						c0-0.1-0.2-1.3,0.6-2.3c0.1-0.2,0-0.4-0.2-0.3c-0.2,0.1-0.6,0.3-0.8,0.9c-0.3,0.9-0.9,0.9-1.1,1.8c-0.2,0.9-1.6,2.7-1.7,3.3
						c-0.1,0.7-0.2,2.4,0,3c0,0-0.8-0.4-0.9-1.3c-0.1-0.9,0.3-1.8,0.3-1.8c0,0-0.5,0.6-0.5,1.4c0,0-0.1-0.8,0.5-1.5
						c0.6-0.7,0.7-1.1,0.7-1.1s-0.3,0.6-1,0.7c0,0,0.9-0.3,1.3-1.4C25.3,5.7,26,4.3,26,4.3s0.7-1.8,0.8-2.2C26.9,1.7,27.7-0.1,29,0
						c1.3,0.1,2.5,0.5,3,1c0.5,0.5,0.9,1.9,0.1,2.6c0,0,0.2-0.4-0.1-0.4c-0.1,0-0.3,0-0.5,0c0.1-0.3,0.1-0.6,0.1-0.9
						c0,0-0.1,0.5-0.3,0.9C30.5,3.2,29.9,2.9,29.4,3.3z"/>
				</g>
			</g>
		</g>
		<g>
			<g>
				<g>
					<ellipse fill="#FFD15C" cx="27.7" cy="3.2" rx="0.5" ry="1"/>
				</g>
			</g>
		</g>
		<g>
			<g>
				<g>
					<path fill="#425A6B" d="M28.3,3.3c-0.8,1-0.6,2.2-0.6,2.2c-0.2-1.5,0.7-2.1,0.7-2.1C28,4,28.1,4.7,28.1,4.7
						c0.1-0.7,0.4-1.2,0.8-1.5H28.3z"/>
				</g>
			</g>
		</g>
		<g>
			<g>
				<g>
					<path fill="#F5B54C" d="M27.8,5.2c0,0,0.9,1.4,1.5,1.7l-0.3,0.8C28.5,7.1,28.1,6.2,27.8,5.2z"/>
				</g>
			</g>
		</g>
		<g>
			<g>
				<g>
					<path fill="#FFD15C" d="M25.8,8.4c0.7-0.5,1.8-0.3,2.3,0.4c0.2,0.3,0.4,0.6,0.5,0.9c0.3,0.6,0.6,1.4-0.1,2
						c-0.7,0.6-0.8,0.6-0.8,0.6l-1.1,3c0,0,0.9,0.3,1.3,0.6c0.4,0.3,2.6,0.9,3.2,0.9s0.7,0,1.1-0.3c0.4-0.3,0.6-0.4,0.6-0.4
						s0.5-0.1,0.6-0.3c0,0,0.3-0.1,0.4-0.1l0.5-0.1c0,0,0.1,0.5-0.6,0.7c0,0-0.4,0.1-0.4,0.2c0,0,0.1,0.3,0.4,0.2s0.5,0,0.6,0.2
						c0.1,0.2,0,0.4-0.1,0.5c0,0,0.2,0.2,0,0.4c-0.1,0.2-0.3,0.2-0.3,0.2s0.1,0.2-0.1,0.4c-0.2,0.1-0.3,0.2-0.3,0.3
						c0,0.1-0.2,0.4-0.8,0.3c-0.6-0.2-1.1-0.4-1.4-0.5c-0.3-0.1-0.7-0.2-0.9-0.2c-0.2,0-2.2,0-3.1-0.1c-0.9-0.1-2.1-0.5-2.1-0.5
						s-0.2-0.1-0.5-0.1c-0.3,0-0.5-0.2-0.6-0.6c0-0.4-0.2-1.9,0.2-3.5c0.4-1.7,0.4-2.4,0.4-2.4s-0.2-1.5,0.4-2.2
						C25.4,8.7,25.6,8.6,25.8,8.4z"/>
				</g>
			</g>
		</g>
	</g>
</g>
</svg>
