<?xml version="1.0" encoding="utf-8"?>
<!-- Generator: Adobe Illustrator 18.0.0, SVG Export Plug-In . SVG Version: 6.00 Build 0)  -->
<!DOCTYPE svg PUBLIC "-//W3C//DTD SVG 1.1//EN" "http://www.w3.org/Graphics/SVG/1.1/DTD/svg11.dtd">
<svg version="1.1" id="Layer_1" xmlns="http://www.w3.org/2000/svg" xmlns:xlink="http://www.w3.org/1999/xlink" x="0px" y="0px"
	 viewBox="0 0 48 48" enable-background="new 0 0 48 48" xml:space="preserve">
<g>
	<g>
		<g>
			<path fill="#66C6B9" d="M33,0c3.1,7.4-1,14.5-8.9,15.7C21.1,8.4,25.2,1.4,33,0z"/>
		</g>
		<g>
			<g>
				<path fill="#415A6B" d="M25.9,20.4c-0.4-3.7-1.7-8.7-5.4-12.6c-0.5-0.5-1.4-0.5-1.8,0.1c-0.4,0.5-0.4,1.2,0,1.7
					c3.1,3.2,4.3,7.6,4.7,10.9H25.9z"/>
			</g>
		</g>
		<g>
			<g>
				<path fill="#F3705A" d="M42.9,32.6c-1.5,9.3-8.1,16.2-14.7,15.3c-0.9-0.1-1.7-0.4-2.5-0.8c-1.1-0.5-2.3-0.5-3.4,0
					c-0.8,0.4-1.6,0.6-2.6,0.8c-6.6,0.9-13.2-6-14.7-15.3c-1.5-9.3,2.6-17.6,9.2-18.5c3.5-0.5,7,1.2,9.7,4.3
					c2.7-3.1,6.2-4.7,9.7-4.3C40.3,15.1,44.4,23.3,42.9,32.6z"/>
			</g>
		</g>
		<g>
			
				<ellipse transform="matrix(-0.719 -0.695 0.695 -0.719 46.1274 60.3974)" fill="#FFFFFF" cx="35.3" cy="20.9" rx="3.1" ry="1.5"/>
		</g>
	</g>
</g>
</svg>
