<?xml version="1.0" encoding="utf-8"?>
<!-- Generator: Adobe Illustrator 18.0.0, SVG Export Plug-In . SVG Version: 6.00 Build 0)  -->
<!DOCTYPE svg PUBLIC "-//W3C//DTD SVG 1.1//EN" "http://www.w3.org/Graphics/SVG/1.1/DTD/svg11.dtd">
<svg version="1.1" id="Layer_1" xmlns="http://www.w3.org/2000/svg" xmlns:xlink="http://www.w3.org/1999/xlink" x="0px" y="0px"
	 viewBox="0 0 48 48" enable-background="new 0 0 48 48" xml:space="preserve">
<g>
	<g>
		<g>
			<rect x="0" y="0" fill="#FFD15C" width="48" height="48"/>
		</g>
	</g>
	<g>
		<g>
			<rect x="0" y="0" fill="#FFD15C" width="48" height="48"/>
		</g>
	</g>
	<g>
		<g>
			<g>
				<g>
					<rect x="34" y="26.2" fill="#F7B64C" width="11.8" height="0.5"/>
				</g>
			</g>
			<g>
				<g>
					<rect x="34.3" y="21.5" fill="#F7B64C" width="13.1" height="0.5"/>
				</g>
			</g>
			<g>
				<g>
					<rect x="32.1" y="23.8" fill="#F7B64C" width="15.9" height="0.5"/>
				</g>
			</g>
			<g>
				<g>
					<g>
						<rect x="41.4" y="21.7" fill="#F7B64C" width="0.5" height="2.3"/>
					</g>
					<g>
						<rect x="37.5" y="21.7" fill="#F7B64C" width="0.5" height="2.3"/>
					</g>
				</g>
				<g>
					<g>
						<rect x="45.5" y="21.7" fill="#F7B64C" width="0.5" height="2.3"/>
					</g>
				</g>
			</g>
			<g>
				<g>
					<g>
						<rect x="35.2" y="24.1" fill="#F7B64C" width="0.5" height="2.3"/>
					</g>
				</g>
				<g>
					<g>
						<rect x="39.7" y="24.1" fill="#F7B64C" width="0.5" height="2.3"/>
					</g>
				</g>
			</g>
			<g>
				<g>
					<g>
						<rect x="44" y="24.1" fill="#F7B64C" width="0.5" height="2.3"/>
					</g>
				</g>
			</g>
		</g>
		<g>
			<g>
				<g>
					<g>
						<rect x="6.8" y="37.4" fill="#F7B64C" width="8.9" height="0.5"/>
					</g>
				</g>
				<g>
					<g>
						<rect x="4" y="44.4" fill="#F7B64C" width="16.1" height="0.5"/>
					</g>
				</g>
				<g>
					<g>
						<rect x="4.3" y="39.7" fill="#F7B64C" width="19.7" height="0.5"/>
					</g>
				</g>
				<g>
					<g>
						<rect x="2.1" y="42" fill="#F7B64C" width="21.5" height="0.5"/>
					</g>
				</g>
				<g>
					<g>
						<g>
							<rect x="9.8" y="37.6" fill="#F7B64C" width="0.5" height="2.3"/>
						</g>
					</g>
					<g>
						<g>
							<rect x="14.3" y="37.6" fill="#F7B64C" width="0.5" height="2.3"/>
						</g>
					</g>
				</g>
				<g>
					<g>
						<g>
							<rect x="12" y="40" fill="#F7B64C" width="0.5" height="2.3"/>
						</g>
						<g>
							<rect x="7.5" y="40" fill="#F7B64C" width="0.5" height="2.3"/>
						</g>
					</g>
					<g>
						<g>
							<rect x="16.5" y="40" fill="#F7B64C" width="0.5" height="2.3"/>
						</g>
					</g>
				</g>
				<g>
					<g>
						<g>
							<rect x="5.2" y="42.3" fill="#F7B64C" width="0.5" height="2.3"/>
						</g>
					</g>
					<g>
						<g>
							<rect x="9.8" y="42.3" fill="#F7B64C" width="0.5" height="2.3"/>
						</g>
					</g>
				</g>
				<g>
					<g>
						<g>
							<rect x="14.1" y="42.3" fill="#F7B64C" width="0.5" height="2.3"/>
						</g>
					</g>
					<g>
						<g>
							<rect x="18.6" y="42.3" fill="#F7B64C" width="0.5" height="2.3"/>
						</g>
					</g>
				</g>
			</g>
			<g>
				<g>
					<g>
						<rect x="21" y="40" fill="#F7B64C" width="0.5" height="2.3"/>
					</g>
				</g>
			</g>
		</g>
		<g>
			<g>
				<g>
					<g>
						<rect x="25.2" y="37.4" fill="#F7B64C" width="8.9" height="0.5"/>
					</g>
				</g>
				<g>
					<g>
						<rect x="20.1" y="44.4" fill="#F7B64C" width="18.4" height="0.5"/>
					</g>
				</g>
				<g>
					<g>
						<rect x="22.7" y="39.7" fill="#F7B64C" width="19.7" height="0.5"/>
					</g>
				</g>
				<g>
					<g>
						<rect x="20.5" y="42" fill="#F7B64C" width="21.5" height="0.5"/>
					</g>
				</g>
				<g>
					<g>
						<g>
							<rect x="28.2" y="37.6" fill="#F7B64C" width="0.5" height="2.3"/>
						</g>
					</g>
					<g>
						<g>
							<rect x="32.7" y="37.6" fill="#F7B64C" width="0.5" height="2.3"/>
						</g>
					</g>
				</g>
				<g>
					<g>
						<g>
							<rect x="30.4" y="40" fill="#F7B64C" width="0.5" height="2.3"/>
						</g>
						<g>
							<rect x="25.9" y="40" fill="#F7B64C" width="0.5" height="2.3"/>
						</g>
					</g>
					<g>
						<g>
							<rect x="34.9" y="40" fill="#F7B64C" width="0.5" height="2.3"/>
						</g>
					</g>
				</g>
				<g>
					<g>
						<g>
							<rect x="23.7" y="42.3" fill="#F7B64C" width="0.5" height="2.3"/>
						</g>
					</g>
					<g>
						<g>
							<rect x="28.2" y="42.3" fill="#F7B64C" width="0.5" height="2.3"/>
						</g>
					</g>
				</g>
				<g>
					<g>
						<g>
							<rect x="32.5" y="42.3" fill="#F7B64C" width="0.5" height="2.3"/>
						</g>
					</g>
					<g>
						<g>
							<rect x="37" y="42.3" fill="#F7B64C" width="0.5" height="2.3"/>
						</g>
					</g>
				</g>
			</g>
			<g>
				<g>
					<g>
						<rect x="39.5" y="40" fill="#F7B64C" width="0.5" height="2.3"/>
					</g>
				</g>
			</g>
		</g>
	</g>
	<g>
		<g>
			<g>
				<g>
					<rect x="6" y="1.1" fill="#F7B64C" width="8.9" height="0.5"/>
				</g>
			</g>
			<g>
				<g>
					<rect x="3.2" y="8.1" fill="#F7B64C" width="16.1" height="0.5"/>
				</g>
			</g>
			<g>
				<g>
					<rect x="3.5" y="3.5" fill="#F7B64C" width="19.7" height="0.5"/>
				</g>
			</g>
			<g>
				<g>
					<rect x="1.3" y="5.8" fill="#F7B64C" width="21.5" height="0.5"/>
				</g>
			</g>
			<g>
				<g>
					<g>
						<rect x="9" y="1.4" fill="#F7B64C" width="0.5" height="2.3"/>
					</g>
				</g>
				<g>
					<g>
						<rect x="13.5" y="1.4" fill="#F7B64C" width="0.5" height="2.3"/>
					</g>
				</g>
			</g>
			<g>
				<g>
					<g>
						<rect x="11.2" y="3.7" fill="#F7B64C" width="0.5" height="2.3"/>
					</g>
					<g>
						<rect x="6.7" y="3.7" fill="#F7B64C" width="0.5" height="2.3"/>
					</g>
				</g>
				<g>
					<g>
						<rect x="15.7" y="3.7" fill="#F7B64C" width="0.5" height="2.3"/>
					</g>
				</g>
			</g>
			<g>
				<g>
					<g>
						<rect x="4.5" y="6" fill="#F7B64C" width="0.5" height="2.3"/>
					</g>
				</g>
				<g>
					<g>
						<rect x="9" y="6" fill="#F7B64C" width="0.5" height="2.3"/>
					</g>
				</g>
			</g>
			<g>
				<g>
					<g>
						<rect x="13.3" y="6" fill="#F7B64C" width="0.5" height="2.3"/>
					</g>
				</g>
				<g>
					<g>
						<rect x="17.8" y="6" fill="#F7B64C" width="0.5" height="2.3"/>
					</g>
				</g>
			</g>
		</g>
		<g>
			<g>
				<g>
					<rect x="20.3" y="3.7" fill="#F7B64C" width="0.5" height="2.3"/>
				</g>
			</g>
		</g>
	</g>
	<g>
		<g>
			<g>
				<g>
					<rect x="29.8" y="29.2" fill="#F7B64C" width="8.9" height="0.5"/>
				</g>
			</g>
		</g>
	</g>
	<g>
		<g>
			<path fill="#415A6B" d="M38.8,37.5V6.7c0-1-0.8-1.8-1.8-1.8H11.1c-1,0-1.8,0.8-1.8,1.8v30.8H38.8z"/>
		</g>
		<g>
			<g>
				<rect x="12" y="7.6" fill="#8AD7F8" width="10.7" height="13.3"/>
			</g>
			<g>
				<rect x="25.4" y="7.6" fill="#8AD7F8" width="10.7" height="13.3"/>
			</g>
			<g>
				<rect x="25.4" y="23.6" fill="#8AD7F8" width="10.7" height="13.3"/>
			</g>
			<g>
				<rect x="12" y="23.6" fill="#8AD7F8" width="10.7" height="13.3"/>
			</g>
		</g>
		<g>
			<path fill="#FFFFFF" d="M36,29.8c-0.1,0.2-0.2,0.5-0.3,0.7c-0.3,0.8-0.4,1.6-0.6,2.3c-0.2,0.8-0.6,1.5-1.2,2s-1.6,0.6-2.2,0.2
				c-0.3-0.2-0.6-0.6-0.8-0.9c-0.3-0.3-0.6-0.6-1-0.6c-0.6,0-1,0.5-1.4,1c-0.4,0.5-1,0.9-1.5,0.7c-0.3-0.2-0.5-0.5-0.6-0.9
				s0-0.7-0.1-1.1c-0.1-0.4-0.3-0.7-0.6-0.9c0,0-0.1,0-0.1,0v4.5H36V29.8z"/>
		</g>
		<g>
			<g>
				<rect x="12" y="7.6" fill="#8AD7F8" width="10.7" height="13.3"/>
			</g>
			<g>
				<rect x="25.4" y="7.6" fill="#8AD7F8" width="10.7" height="13.3"/>
			</g>
		</g>
		<g>
			<g>
				<path fill="#344A5E" d="M41,38.4L41,38.4c0-0.9-0.7-1.6-1.6-1.6H8.6c-0.9,0-1.6,0.7-1.6,1.6v0C7,39.3,7.7,40,8.6,40h30.8
					C40.3,40,41,39.3,41,38.4z"/>
			</g>
		</g>
		<g>
			<g>
				<path fill="#415A6B" d="M37.2,41.6L37.2,41.6c0-0.9-0.7-1.6-1.6-1.6H12.3c-0.9,0-1.6,0.7-1.6,1.6v0c0,0.9,0.7,1.6,1.6,1.6h23.3
					C36.5,43.1,37.2,42.4,37.2,41.6z"/>
			</g>
		</g>
		<g>
			<path fill="#FFFFFF" d="M22.6,18.3v2.6H12v-6.4c0.3,0.1,0.5,0.5,0.5,0.9c0,0.4-0.1,0.8,0,1.2c0,0.4,0.3,0.8,0.7,0.9
				c0.3,0.1,0.7-0.2,1,0c0.4,0.2,0.3,0.7,0.4,1.2c0,0.6,0.5,1.2,1,1.1c0.7-0.1,0.9-1.2,1.5-1.3c0.4-0.1,0.7,0.2,1,0.5
				c0.2,0.3,0.4,0.7,0.6,0.9c0.6,0.6,1.5,0.8,2.3,0.9c0.2,0,0.5,0.1,0.7,0c0.2-0.1,0.5-0.2,0.6-0.4c0.1-0.2,0-0.5,0-0.8
				C22.1,19,22.3,18.6,22.6,18.3z"/>
		</g>
		<g>
			<g>
				<path fill="#FFFFFF" d="M33.5,19.6c1,0.2,1.9-2.5,2.5-3.7v4.9H25.4v-1.7c0.2,0.2,0.4,0.3,0.6,0.3c0.5,0.1,1,0,1.5,0.1
					c0.9,0.2,1.7,0.9,2.6,0.9c0.6,0,1.1-0.4,1.6-0.6C32.3,19.3,32.8,19.5,33.5,19.6z"/>
			</g>
		</g>
		<g>
			<path fill="#FFFFFF" d="M22.6,35.5c-0.2,0-0.4,0-0.6,0.1c-0.3,0.1-0.6,0.2-1,0.3c-0.7,0.1-1.4-0.2-1.8-0.7
				c-0.3-0.3-0.4-0.8-0.7-1c-0.5-0.4-1.3-0.3-1.9,0c-0.6,0.3-1.1,0.7-1.8,0.9c-0.8,0.2-1.7-0.1-2.4-0.6c-0.2-0.2-0.4-0.4-0.6-0.6v3
				h10.7V35.5z"/>
		</g>
	</g>
</g>
</svg>
