<?xml version="1.0" encoding="utf-8"?>
<!-- Generator: Adobe Illustrator 18.0.0, SVG Export Plug-In . SVG Version: 6.00 Build 0)  -->
<!DOCTYPE svg PUBLIC "-//W3C//DTD SVG 1.1//EN" "http://www.w3.org/Graphics/SVG/1.1/DTD/svg11.dtd">
<svg version="1.1" id="Layer_1" xmlns="http://www.w3.org/2000/svg" xmlns:xlink="http://www.w3.org/1999/xlink" x="0px" y="0px"
	 viewBox="0 0 512 512" enable-background="new 0 0 512 512" xml:space="preserve">
<g>
	<path fill="#FFD05C" d="M449.3,63.4H62.7c-12.2,0-22.1,9.9-22.1,22.1v402.4c0,12.2,9.9,22.1,22.1,22.1h386.6
		c12.2,0,22.1-9.9,22.1-22.1V85.5C471.4,73.3,461.5,63.4,449.3,63.4z"/>
	<path fill="#FFFFFF" d="M437,100.7v360.5c0,8-6.5,14.5-14.4,14.5H162.8L75,387.8V100.7c0-8,6.5-14.5,14.5-14.5h333.1
		C430.5,86.2,437,92.7,437,100.7z"/>
	<rect x="142.6" y="34.3" fill="#65C5B8" width="226.9" height="83.8"/>
	<rect x="183.9" y="2" fill="#CDD5DF" width="144.2" height="53.2"/>
	<path fill="#F2F2F2" d="M140.8,387.8H75l87.9,87.9v-65.8C162.9,397.7,153,387.8,140.8,387.8z"/>
	<circle fill="#F2705B" cx="256" cy="280.9" r="90.2"/>
	<polygon fill="#FFFFFF" points="323.7,242 309.1,227.4 231.3,305.2 202.9,276.8 188.3,291.5 231.3,334.4 231.3,334.4 231.3,334.4 	
		"/>
</g>
</svg>
