<?xml version="1.0" encoding="utf-8"?>
<!-- Generator: Adobe Illustrator 18.0.0, SVG Export Plug-In . SVG Version: 6.00 Build 0)  -->
<!DOCTYPE svg PUBLIC "-//W3C//DTD SVG 1.1//EN" "http://www.w3.org/Graphics/SVG/1.1/DTD/svg11.dtd">
<svg version="1.1" id="Layer_1" xmlns="http://www.w3.org/2000/svg" xmlns:xlink="http://www.w3.org/1999/xlink" x="0px" y="0px"
	 viewBox="0 0 48 48" enable-background="new 0 0 48 48" xml:space="preserve">
<g>
	<g>
		<g>
			<g>
				<g>
					<path fill="#F3F3F3" d="M2,4.3c-1.3,2.5-2,5.6-2,8.9c0,8.7,5.1,15.7,11.5,15.7c6.3,0,11.5-7,11.5-15.7c0-3.3-0.7-6.3-2-8.9H2z"
						/>
					<g>
						<path fill="#8AD7F8" d="M3.1,14.3c0.4,6.3,4.1,11.4,8.3,11.4s7.9-5.1,8.3-11.4H3.1z"/>
					</g>
				</g>
				<g>
					<path fill="#F3F3F3" d="M12.5,27.3h-2.1V33c0,7.6-1.7,7.8-4.5,10.8H17c-2.8-2.9-4.5-3.2-4.5-10.8V27.3z"/>
				</g>
			</g>
		</g>
		<g>
			<g>
				<g>
					<path fill="#F3F3F3" d="M27.1,4.3c-1.3,2.5-2,5.6-2,8.9c0,8.7,5.1,15.7,11.5,15.7c6.3,0,11.5-7,11.5-15.7c0-3.3-0.7-6.3-2-8.9
						H27.1z"/>
					<g>
						<path fill="#FFD15C" d="M28.2,14.3c0.4,6.3,4.1,11.4,8.3,11.4s7.9-5.1,8.3-11.4H28.2z"/>
					</g>
				</g>
				<g>
					<path fill="#F3F3F3" d="M37.6,27.3h-2.1V33c0,7.6-1.7,7.8-4.5,10.8h11.1c-2.8-2.9-4.5-3.2-4.5-10.8V27.3z"/>
				</g>
			</g>
		</g>
	</g>
</g>
</svg>
