<?xml version="1.0" encoding="utf-8"?>
<!-- Generator: Adobe Illustrator 18.0.0, SVG Export Plug-In . SVG Version: 6.00 Build 0)  -->
<!DOCTYPE svg PUBLIC "-//W3C//DTD SVG 1.1//EN" "http://www.w3.org/Graphics/SVG/1.1/DTD/svg11.dtd">
<svg version="1.1" id="Layer_1" xmlns="http://www.w3.org/2000/svg" xmlns:xlink="http://www.w3.org/1999/xlink" x="0px" y="0px"
	 viewBox="0 0 48 48" enable-background="new 0 0 48 48" xml:space="preserve">
<g>
	<path fill="#334A5E" d="M42.5,0H5.5c-1.1,0-2,0.9-2,2v44c0,1.1,0.9,2,2,2h37.1c1,0,1.7-0.7,1.9-1.6h-36C6.6,46.4,5,44.9,5,43
		c0-1.9,1.6-3.5,3.5-3.5h36V2C44.5,0.9,43.6,0,42.5,0z"/>
	<path fill="#40596B" d="M44.5,37.9h-33V0h31c1.1,0,2,0.9,2,2V37.9z"/>
	<g>
		<path fill="#ACB3BA" d="M44.5,46.4c-12,0-24,0-36,0C6.6,46.4,5,44.9,5,43c0,0,0,0,0,0c0-1.9,1.5-3.5,3.5-3.5c12,0,24,0,36,0
			C43.8,41.7,43.8,44.2,44.5,46.4z"/>
	</g>
	<g>
		<path fill="#ACB3BA" d="M44.5,39.5c-0.7,2.3-0.7,4.7,0,7c-12,0-24,0-36,0C6.6,46.4,5,44.9,5,43c0-0.7,0.2-1.4,0.6-1.9
			c0.1-0.2,0.3-0.4,0.4-0.6c0.6-0.6,1.5-1,2.5-1C20.5,39.5,32.5,39.5,44.5,39.5z"/>
	</g>
	<path fill="#CDD6E0" d="M44.5,46.4h-36c-0.7,0-1.4-0.2-1.9-0.6C5.6,45.2,5,44.2,5,43c0-0.7,0.2-1.4,0.6-1.9
		c0.1-0.2,0.3-0.4,0.5-0.5h0c0.6-0.6,1.5-1,2.5-1h36c-0.1,0.3-0.2,0.7-0.3,1C43.8,42.4,43.9,44.5,44.5,46.4z"/>
	<polygon fill="#FF7058" points="14.6,0 14.6,13 18,11 21.4,13 21.4,0 	"/>
	<rect x="18.9" y="23" fill="#F2F2F2" width="18.2" height="9.4"/>
	<path fill="#C3D0DB" d="M44.5,39.5c-0.1,0.3-0.2,0.7-0.3,1H9.5C7.6,40.5,6,42,6,44c0,0.7,0.2,1.4,0.6,1.9C5.6,45.2,5,44.2,5,43
		c0-0.7,0.2-1.4,0.6-1.9c0.1-0.2,0.3-0.4,0.5-0.5h0c0.6-0.6,1.5-1,2.5-1H44.5z"/>
</g>
</svg>
