<?xml version="1.0" encoding="utf-8"?>
<!-- Generator: Adobe Illustrator 18.0.0, SVG Export Plug-In . SVG Version: 6.00 Build 0)  -->
<!DOCTYPE svg PUBLIC "-//W3C//DTD SVG 1.1//EN" "http://www.w3.org/Graphics/SVG/1.1/DTD/svg11.dtd">
<svg version="1.1" id="Layer_1" xmlns="http://www.w3.org/2000/svg" xmlns:xlink="http://www.w3.org/1999/xlink" x="0px" y="0px"
	 viewBox="0 0 48 48" enable-background="new 0 0 48 48" xml:space="preserve">
<g>
	<path fill="#40596B" d="M38.8,23.5H9.2c-3.1,0-5.5,2.8-5,5.8l2.1,13.7h9.2c1.5,0,2.8,1,3.2,2.5v0C19.2,47,20.5,48,22,48h3.8
		c1.5,0,2.8-1,3.2-2.5l0,0c0.4-1.5,1.7-2.5,3.2-2.5h9.4l2.1-13.7C44.2,26.3,41.9,23.5,38.8,23.5z"/>
	<g>
		<path fill="#CDD6E0" d="M36.4,45.7h-4.2l-5.3-24.2c-0.1-0.2-1.5-7.1,5.1-12.8c0.9-0.8,1.1-2.3,0.3-3.2c-0.9-1.2-2.6-2.1-4.9-2.6
			c-2.3-0.5-4.7-0.5-7.1,0c-2.3,0.5-4,1.4-4.9,2.6c-0.7,1-0.6,2.4,0.3,3.2c6.6,5.7,5.2,12.6,5.1,12.9l-5.3,24.1h-4.2v-2.4h2.1
			l4.9-22.1c0.1-0.3,1.1-5.8-4.3-10.6C12.3,8.9,12,6,13.5,4c1.3-1.7,3.4-2.9,6.3-3.5c2.7-0.6,5.5-0.6,8.1,0c2.9,0.7,5,1.8,6.3,3.5
			c1.6,2,1.3,4.9-0.7,6.6c-5.5,4.8-4.3,10.5-4.3,10.5l5,22.2h2.1V45.7z"/>
	</g>
	<g>
		<path fill="#334A5E" d="M15.1,48H5.7c-0.7,0-1.3-0.6-1.3-1.3v-3.7c0-0.7,0.6-1.3,1.3-1.3h8.1l2.5,2.5v2.4
			C16.4,47.4,15.8,48,15.1,48z"/>
		<path fill="#334A5E" d="M32.9,48h9.4c0.7,0,1.3-0.6,1.3-1.3v-3.7c0-0.7-0.6-1.3-1.3-1.3h-8.1l-2.5,2.5v2.4
			C31.6,47.4,32.2,48,32.9,48z"/>
	</g>
	<path fill="#334A5E" d="M26.2,46.5h-4.5c-0.2,0-0.4-0.2-0.4-0.4v-0.2c0-0.2,0.2-0.4,0.4-0.4h4.5c0.2,0,0.4,0.2,0.4,0.4v0.2
		C26.7,46.3,26.5,46.5,26.2,46.5z"/>
	<path fill="#334A5E" d="M26.2,44.6h-4.5c-0.2,0-0.4-0.2-0.4-0.4v-0.2c0-0.2,0.2-0.4,0.4-0.4h4.5c0.2,0,0.4,0.2,0.4,0.4v0.2
		C26.7,44.4,26.5,44.6,26.2,44.6z"/>
</g>
</svg>
