<?xml version="1.0" encoding="utf-8"?>
<!-- Generator: Adobe Illustrator 18.0.0, SVG Export Plug-In . SVG Version: 6.00 Build 0)  -->
<!DOCTYPE svg PUBLIC "-//W3C//DTD SVG 1.1//EN" "http://www.w3.org/Graphics/SVG/1.1/DTD/svg11.dtd">
<svg version="1.1" id="Layer_1" xmlns="http://www.w3.org/2000/svg" xmlns:xlink="http://www.w3.org/1999/xlink" x="0px" y="0px"
	 viewBox="0 0 48 48" enable-background="new 0 0 48 48" xml:space="preserve">
<g>
	<g>
		<rect y="0" fill="#F3F3F3" width="48" height="48"/>
	</g>
	<g>
		<path fill="#E8EAE9" d="M3.8,3.8v40.5h40.5V3.8H3.8z M7.7,43.8H4.3v-3.5h3.5V43.8z M7.7,39.7H4.3v-3.5h3.5V39.7z M7.7,35.7H4.3
			v-3.5h3.5V35.7z M7.7,31.7H4.3v-3.5h3.5V31.7z M7.7,27.7H4.3v-3.5h3.5V27.7z M7.7,23.7H4.3v-3.5h3.5V23.7z M7.7,19.7H4.3v-3.5h3.5
			V19.7z M7.7,15.7H4.3v-3.5h3.5V15.7z M7.7,11.7H4.3V8.2h3.5V11.7z M7.7,7.7H4.3V4.3h3.5V7.7z M11.7,43.8H8.2v-3.5h3.5V43.8z
			 M11.7,39.7H8.2v-3.5h3.5V39.7z M11.7,35.7H8.2v-3.5h3.5V35.7z M11.7,31.7H8.2v-3.5h3.5V31.7z M11.7,27.7H8.2v-3.5h3.5V27.7z
			 M11.7,23.7H8.2v-3.5h3.5V23.7z M11.7,19.7H8.2v-3.5h3.5V19.7z M11.7,15.7H8.2v-3.5h3.5V15.7z M11.7,11.7H8.2V8.2h3.5V11.7z
			 M11.7,7.7H8.2V4.3h3.5V7.7z M15.7,43.8h-3.5v-3.5h3.5V43.8z M15.7,39.7h-3.5v-3.5h3.5V39.7z M15.7,35.7h-3.5v-3.5h3.5V35.7z
			 M15.7,31.7h-3.5v-3.5h3.5V31.7z M15.7,27.7h-3.5v-3.5h3.5V27.7z M15.7,23.7h-3.5v-3.5h3.5V23.7z M15.7,19.7h-3.5v-3.5h3.5V19.7z
			 M15.7,15.7h-3.5v-3.5h3.5V15.7z M15.7,11.7h-3.5V8.2h3.5V11.7z M15.7,7.7h-3.5V4.3h3.5V7.7z M19.7,43.8h-3.5v-3.5h3.5V43.8z
			 M19.7,39.7h-3.5v-3.5h3.5V39.7z M19.7,35.7h-3.5v-3.5h3.5V35.7z M19.7,31.7h-3.5v-3.5h3.5V31.7z M19.7,27.7h-3.5v-3.5h3.5V27.7z
			 M19.7,23.7h-3.5v-3.5h3.5V23.7z M19.7,19.7h-3.5v-3.5h3.5V19.7z M19.7,15.7h-3.5v-3.5h3.5V15.7z M19.7,11.7h-3.5V8.2h3.5V11.7z
			 M19.7,7.7h-3.5V4.3h3.5V7.7z M23.7,43.8h-3.5v-3.5h3.5V43.8z M23.7,39.7h-3.5v-3.5h3.5V39.7z M23.7,35.7h-3.5v-3.5h3.5V35.7z
			 M23.7,31.7h-3.5v-3.5h3.5V31.7z M23.7,27.7h-3.5v-3.5h3.5V27.7z M23.7,23.7h-3.5v-3.5h3.5V23.7z M23.7,19.7h-3.5v-3.5h3.5V19.7z
			 M23.7,15.7h-3.5v-3.5h3.5V15.7z M23.7,11.7h-3.5V8.2h3.5V11.7z M23.7,7.7h-3.5V4.3h3.5V7.7z M27.7,43.8h-3.5v-3.5h3.5V43.8z
			 M27.7,39.7h-3.5v-3.5h3.5V39.7z M27.7,35.7h-3.5v-3.5h3.5V35.7z M27.7,31.7h-3.5v-3.5h3.5V31.7z M27.7,27.7h-3.5v-3.5h3.5V27.7z
			 M27.7,23.7h-3.5v-3.5h3.5V23.7z M27.7,19.7h-3.5v-3.5h3.5V19.7z M27.7,15.7h-3.5v-3.5h3.5V15.7z M27.7,11.7h-3.5V8.2h3.5V11.7z
			 M27.7,7.7h-3.5V4.3h3.5V7.7z M31.7,43.8h-3.5v-3.5h3.5V43.8z M31.7,39.7h-3.5v-3.5h3.5V39.7z M31.7,35.7h-3.5v-3.5h3.5V35.7z
			 M31.7,31.7h-3.5v-3.5h3.5V31.7z M31.7,27.7h-3.5v-3.5h3.5V27.7z M31.7,23.7h-3.5v-3.5h3.5V23.7z M31.7,19.7h-3.5v-3.5h3.5V19.7z
			 M31.7,15.7h-3.5v-3.5h3.5V15.7z M31.7,11.7h-3.5V8.2h3.5V11.7z M31.7,7.7h-3.5V4.3h3.5V7.7z M35.7,43.8h-3.5v-3.5h3.5V43.8z
			 M35.7,39.7h-3.5v-3.5h3.5V39.7z M35.7,35.7h-3.5v-3.5h3.5V35.7z M35.7,31.7h-3.5v-3.5h3.5V31.7z M35.7,27.7h-3.5v-3.5h3.5V27.7z
			 M35.7,23.7h-3.5v-3.5h3.5V23.7z M35.7,19.7h-3.5v-3.5h3.5V19.7z M35.7,15.7h-3.5v-3.5h3.5V15.7z M35.7,11.7h-3.5V8.2h3.5V11.7z
			 M35.7,7.7h-3.5V4.3h3.5V7.7z M39.7,43.8h-3.5v-3.5h3.5V43.8z M39.7,39.7h-3.5v-3.5h3.5V39.7z M39.7,35.7h-3.5v-3.5h3.5V35.7z
			 M39.7,31.7h-3.5v-3.5h3.5V31.7z M39.7,27.7h-3.5v-3.5h3.5V27.7z M39.7,23.7h-3.5v-3.5h3.5V23.7z M39.7,19.7h-3.5v-3.5h3.5V19.7z
			 M39.7,15.7h-3.5v-3.5h3.5V15.7z M39.7,11.7h-3.5V8.2h3.5V11.7z M39.7,7.7h-3.5V4.3h3.5V7.7z M43.7,43.8h-3.5v-3.5h3.5V43.8z
			 M43.7,39.7h-3.5v-3.5h3.5V39.7z M43.7,35.7h-3.5v-3.5h3.5V35.7z M43.7,31.7h-3.5v-3.5h3.5V31.7z M43.7,27.7h-3.5v-3.5h3.5V27.7z
			 M43.7,23.7h-3.5v-3.5h3.5V23.7z M43.7,19.7h-3.5v-3.5h3.5V19.7z M43.7,15.7h-3.5v-3.5h3.5V15.7z M43.7,11.7h-3.5V8.2h3.5V11.7z
			 M43.7,7.7h-3.5V4.3h3.5V7.7z"/>
	</g>
	<path fill="#415A6B" d="M40.3,19.6l-14-12c-0.2-0.2-0.5-0.2-0.7,0l-14,12c-0.2,0.1-0.2,0.4-0.1,0.6c0.1,0.2,0.3,0.3,0.5,0.3h3.5V36
		c0,0.3,0.2,0.5,0.5,0.5h20c0.3,0,0.5-0.2,0.5-0.5V20.5H40c0.2,0,0.4-0.1,0.5-0.3C40.5,20,40.5,19.8,40.3,19.6z M28.8,35.5h-5.6v-7
		h5.6V35.5z M35.5,35.5h-5.7V28c0-0.3-0.2-0.5-0.5-0.5h-6.6c-0.3,0-0.5,0.2-0.5,0.5v7.5h-5.7v-15h19V35.5z M13.4,19.5L26,8.7
		l12.6,10.8H13.4z"/>
	<path fill="#F3705A" d="M9.1,35.6H8.4V20.4h0.7c0.2,0,0.4-0.2,0.4-0.4s-0.2-0.4-0.4-0.4H6.9c-0.2,0-0.4,0.2-0.4,0.4
		s0.2,0.4,0.4,0.4h0.7v15.2H6.9c-0.2,0-0.4,0.2-0.4,0.4s0.2,0.4,0.4,0.4h2.2c0.2,0,0.4-0.2,0.4-0.4S9.3,35.6,9.1,35.6z"/>
	<path fill="#F3705A" d="M36,38.5c-0.2,0-0.4,0.2-0.4,0.4v0.7H16.2v-0.7c0-0.2-0.2-0.4-0.4-0.4s-0.4,0.2-0.4,0.4v2.2
		c0,0.2,0.2,0.4,0.4,0.4s0.4-0.2,0.4-0.4v-0.7h19.4v0.7c0,0.2,0.2,0.4,0.4,0.4s0.4-0.2,0.4-0.4v-2.2C36.4,38.7,36.2,38.5,36,38.5z"
		/>
</g>
</svg>
