<?xml version="1.0" encoding="utf-8"?>
<!-- Generator: Adobe Illustrator 18.0.0, SVG Export Plug-In . SVG Version: 6.00 Build 0)  -->
<!DOCTYPE svg PUBLIC "-//W3C//DTD SVG 1.1//EN" "http://www.w3.org/Graphics/SVG/1.1/DTD/svg11.dtd">
<svg version="1.1" id="Layer_1" xmlns="http://www.w3.org/2000/svg" xmlns:xlink="http://www.w3.org/1999/xlink" x="0px" y="0px"
	 viewBox="0 0 48 48" enable-background="new 0 0 48 48" xml:space="preserve">
<g>
	<g>
		<path fill="#415A6B" d="M40.3,48H7.7c-1.7,0-3-1.4-3-3V3c0-1.7,1.4-3,3-3h32.6c1.7,0,3,1.4,3,3V45C43.3,46.6,42,48,40.3,48z"/>
		<rect x="8.7" y="5.4" fill="#FFFFFF" width="30.6" height="33.1"/>
		<g>
			<rect x="11.7" y="28" fill="#F05540" width="4.1" height="7.1"/>
			<rect x="18.5" y="25.2" fill="#8AD7F8" width="4.1" height="10"/>
			<rect x="25.4" y="20.9" fill="#FFD15C" width="4.1" height="14.3"/>
			<rect x="32.3" y="11.7" fill="#66C6B9" width="4.1" height="23.5"/>
		</g>
		<g>
			<g>
				<path fill="#F3705A" d="M31.5,14.4l-1.6-0.5c-2.4,7.2-10.1,11.2-17.4,8.8c-0.8-0.3-1.5-0.6-2.2-0.9c6.5,0.9,12.9-2.9,15-9.3
					l-1.6-0.5l5.7-4.4L31.5,14.4z"/>
			</g>
		</g>
		<g>
			<circle fill="#344A5E" cx="24" cy="43.2" r="2.6"/>
		</g>
	</g>
</g>
</svg>
