<?xml version="1.0" encoding="utf-8"?>
<!-- Generator: Adobe Illustrator 18.0.0, SVG Export Plug-In . SVG Version: 6.00 Build 0)  -->
<!DOCTYPE svg PUBLIC "-//W3C//DTD SVG 1.1//EN" "http://www.w3.org/Graphics/SVG/1.1/DTD/svg11.dtd">
<svg version="1.1" id="Layer_1" xmlns="http://www.w3.org/2000/svg" xmlns:xlink="http://www.w3.org/1999/xlink" x="0px" y="0px"
	 viewBox="0 0 48 48" enable-background="new 0 0 48 48" xml:space="preserve">
<g>
	<path fill="#F2F2F2" d="M40.6,42.8V2c0-1.1-0.9-2-2-2H2C0.9,0,0,0.9,0,2v44c0,1.1,0.9,2,2,2h42.3v-5.2H40.6z"/>
	<path fill="#CDD6E0" d="M46,48h-3.4c-1.1,0-2-0.9-2-2V12.5H46c1.1,0,2,0.9,2,2V46C48,47.1,47.1,48,46,48z"/>
	<polygon fill="#84DBFF" points="3.9,14.6 3.9,5.2 36.5,5.2 36.5,14.6 	"/>
	<rect x="3.9" y="18.6" fill="#FFD15C" width="14" height="18.8"/>
	<rect x="21.9" y="18.6" fill="#CDD6E0" width="14.6" height="2.5"/>
	<rect x="21.9" y="24" fill="#CDD6E0" width="14.6" height="2.5"/>
	<rect x="21.9" y="29.5" fill="#CDD6E0" width="14.6" height="2.5"/>
	<rect x="21.9" y="34.9" fill="#CDD6E0" width="14.6" height="2.5"/>
	<rect x="3.9" y="40.3" fill="#ACB3BA" width="32.6" height="2.5"/>
</g>
</svg>
