<?xml version="1.0" encoding="utf-8"?>
<!-- Generator: Adobe Illustrator 18.0.0, SVG Export Plug-In . SVG Version: 6.00 Build 0)  -->
<!DOCTYPE svg PUBLIC "-//W3C//DTD SVG 1.1//EN" "http://www.w3.org/Graphics/SVG/1.1/DTD/svg11.dtd">
<svg version="1.1" id="Layer_1" xmlns="http://www.w3.org/2000/svg" xmlns:xlink="http://www.w3.org/1999/xlink" x="0px" y="0px"
	 viewBox="0 0 48 48" enable-background="new 0 0 48 48" xml:space="preserve">
<g>
	<path fill="#40596B" d="M47.6,34.3c-3.5,5.3-8,9.9-13.4,13.4c-0.9,0.6-2.3,0.4-3.1-0.3C21,37.1,10.9,27,0.7,16.8
		c-0.8-0.8-0.9-2.2-0.3-3.1c3.5-5.3,8-9.9,13.4-13.4c0.9-0.6,2.3-0.4,3.1,0.3C27,10.9,37.1,21,47.3,31.2
		C48.1,32,48.2,33.3,47.6,34.3z"/>
	<g>
		<path fill="#CDD6E0" d="M7,14.7l-2,2c-0.4,0.4-0.9,0.4-1.3,0l-0.1-0.1c-0.4-0.4-0.4-0.9,0-1.3l2-2C6,13,6.6,13,7,13.3L7,13.4
			C7.4,13.8,7.4,14.3,7,14.7z"/>
		<path fill="#CDD6E0" d="M16.7,5l-2,2c-0.4,0.4-0.9,0.4-1.3,0L13.3,7C13,6.6,13,6,13.3,5.7l2-2c0.4-0.4,0.9-0.4,1.3,0l0.1,0.1
			C17,4.1,17,4.7,16.7,5z"/>
	</g>
	<g>
		<g>
			<path fill="#CDD6E0" d="M25.4,33.1l-2,2c-0.4,0.4-0.9,0.4-1.3,0L22.1,35c-0.4-0.4-0.4-0.9,0-1.3l2-2c0.4-0.4,0.9-0.4,1.3,0
				l0.1,0.1C25.8,32.1,25.8,32.7,25.4,33.1z"/>
			<path fill="#CDD6E0" d="M30.2,28.2l-2,2c-0.4,0.4-0.9,0.4-1.3,0l-0.1-0.1c-0.4-0.4-0.4-0.9,0-1.3l2-2c0.4-0.4,0.9-0.4,1.3,0
				l0.1,0.1C30.6,27.3,30.6,27.9,30.2,28.2z"/>
			<path fill="#CDD6E0" d="M35.1,23.4l-2,2c-0.4,0.4-0.9,0.4-1.3,0l-0.1-0.1c-0.4-0.4-0.4-0.9,0-1.3l2-2c0.4-0.4,0.9-0.4,1.3,0
				l0.1,0.1C35.4,22.5,35.4,23.1,35.1,23.4z"/>
		</g>
		<g>
			<path fill="#CDD6E0" d="M28.8,36.4l-2,2c-0.4,0.4-0.9,0.4-1.3,0l-0.1-0.1c-0.4-0.4-0.4-0.9,0-1.3l2-2c0.4-0.4,0.9-0.4,1.3,0
				l0.1,0.1C29.1,35.5,29.1,36.1,28.8,36.4z"/>
			<path fill="#CDD6E0" d="M33.6,31.6l-2,2c-0.4,0.4-0.9,0.4-1.3,0l-0.1-0.1c-0.4-0.4-0.4-0.9,0-1.3l2-2c0.4-0.4,0.9-0.4,1.3,0
				l0.1,0.1C34,30.7,34,31.3,33.6,31.6z"/>
			<path fill="#CDD6E0" d="M38.4,26.8l-2,2c-0.4,0.4-0.9,0.4-1.3,0l-0.1-0.1c-0.4-0.4-0.4-0.9,0-1.3l2-2c0.4-0.4,0.9-0.4,1.3,0
				l0.1,0.1C38.8,25.9,38.8,26.4,38.4,26.8z"/>
		</g>
		<g>
			<path fill="#CDD6E0" d="M32.2,39.8l-2,2c-0.4,0.4-0.9,0.4-1.3,0l-0.1-0.1c-0.4-0.4-0.4-0.9,0-1.3l2-2c0.4-0.4,0.9-0.4,1.3,0
				l0.1,0.1C32.5,38.9,32.5,39.5,32.2,39.8z"/>
			<path fill="#CDD6E0" d="M37,35l-2,2c-0.4,0.4-0.9,0.4-1.3,0l-0.1-0.1c-0.4-0.4-0.4-0.9,0-1.3l2-2c0.4-0.4,0.9-0.4,1.3,0l0.1,0.1
				C37.3,34.1,37.3,34.6,37,35z"/>
			<path fill="#CDD6E0" d="M41.8,30.2l-2,2c-0.4,0.4-0.9,0.4-1.3,0l-0.1-0.1c-0.4-0.4-0.4-0.9,0-1.3l2-2c0.4-0.4,0.9-0.4,1.3,0
				l0.1,0.1C42.2,29.2,42.2,29.8,41.8,30.2z"/>
		</g>
		<g>
			<path fill="#CDD6E0" d="M40.3,38.4l-2,2c-0.4,0.4-0.9,0.4-1.3,0L37,40.3c-0.4-0.4-0.4-0.9,0-1.3l2-2c0.4-0.4,0.9-0.4,1.3,0
				l0.1,0.1C40.7,37.4,40.7,38,40.3,38.4z"/>
		</g>
	</g>
	<path fill="#FFD15C" d="M22.1,16.6c0.6,0.6,1,1.3,1.1,2.1h3.4c-0.1-1.6-0.9-3.3-2.1-4.5c-1.3-1.3-2.9-2-4.5-2.1v3.4
		C20.8,15.7,21.5,16,22.1,16.6z"/>
	<path fill="#FFD15C" d="M16.6,22.1c-0.6-0.6-1-1.3-1.1-2.1l-3.4,0c0.1,1.6,0.9,3.3,2.1,4.5c1.3,1.3,2.9,2,4.5,2.1v-3.4
		C17.9,23.1,17.2,22.7,16.6,22.1z"/>
	<path fill="#FF7058" d="M23.2,20c-0.1,0.8-0.5,1.5-1.1,2.1c-0.6,0.6-1.3,1-2.1,1.1v3.4c1.6-0.1,3.3-0.9,4.5-2.1
		c1.3-1.3,2-2.9,2.1-4.5H23.2z"/>
	<path fill="#FF7058" d="M15.5,18.7c0.1-0.8,0.5-1.5,1.1-2.1c0.6-0.6,1.3-1,2.1-1.1v-3.4c-1.6,0.1-3.3,0.9-4.5,2.1s-2,2.9-2.1,4.5
		H15.5z"/>
</g>
</svg>
