<?xml version="1.0" encoding="utf-8"?>
<!-- Generator: Adobe Illustrator 18.0.0, SVG Export Plug-In . SVG Version: 6.00 Build 0)  -->
<!DOCTYPE svg PUBLIC "-//W3C//DTD SVG 1.1//EN" "http://www.w3.org/Graphics/SVG/1.1/DTD/svg11.dtd">
<svg version="1.1" id="Layer_1" xmlns="http://www.w3.org/2000/svg" xmlns:xlink="http://www.w3.org/1999/xlink" x="0px" y="0px"
	 viewBox="0 0 48 48" enable-background="new 0 0 48 48" xml:space="preserve">
<g>
	<g>
		<g>
			<g>
				<g>
					<g>
						<g>
							<g>
								<g>
									<path fill="#FFD15C" d="M44.1,5.4c-10.2,1.9-17.9,15-18.7,16.5v9.1c0.4,1.1,2.1,5.7,3,7.4c1.1,1.9,3.4,4.1,6.4,2.3
										c1.9-1.2,4-3.2,5.3-4.6c1.2-1.3,2.1-2.9,2.4-4.6c1-5.9-5.4-7.5-5.4-7.5s4.8,1,5.6-1.9l5-12c0,0,0-0.1,0.1-0.1
										C48.8,7.5,46.7,4.9,44.1,5.4z"/>
								</g>
							</g>
						</g>
						<g>
							<g>
								<g>
									<path fill="#F7B64C" d="M40.4,27.1c-4-1.9-8.1-1.4-8.2-1.4l0,0.3c0,0,4.3-0.5,8.3,1.5C40.5,27.4,40.5,27.3,40.4,27.1z"/>
								</g>
								<g>
									<path fill="#F7B64C" d="M30.7,25l-0.2-0.2c1.9-1.6,5.7-1.1,5.9-1l0,0.3C36.4,24.1,32.5,23.5,30.7,25z"/>
								</g>
							</g>
							<g>
								<g>
									<path fill="#F7B64C" d="M41.3,29.8c-3-2.1-7.2-2.4-7.2-2.4l0,0.3c0,0,4.3,0.3,7.2,2.5C41.3,30.1,41.3,30,41.3,29.8z"/>
								</g>
							</g>
							<g>
								<g>
									<path fill="#F7B64C" d="M32.3,26.1c0.1,0.2,0.5,1.1,1.9,1.8c1.4,0.7,1.5,2.1,1.5,2.2l0,0.1l0.1,0c0,0,2.6,0.3,4.5,3.3
										c0.1-0.1,0.2-0.1,0.2-0.2c-1.7-2.7-4-3.2-4.6-3.3c-0.1-0.4-0.3-1.6-1.7-2.3c-1.5-0.7-1.8-1.7-1.8-1.7l0-0.1L30.8,25
										l-3.9-0.1l-1.5,0.9l0.2,0.3l1.4-0.9l3.7,0.1L32.3,26.1z"/>
								</g>
							</g>
							<g>
								<g>
									<polygon fill="#F7B64C" points="35.8,30 34.7,30.6 31.5,29.5 25.3,25.8 25.3,26.1 31.3,29.7 34.7,30.9 36,30.2 									
										"/>
								</g>
							</g>
							<g>
								<g>
									<path fill="#F7B64C" d="M38.6,35.9c-1.6-2.8-3.8-5.3-3.8-5.3l-0.2,0.2c0,0,2.3,2.6,3.9,5.5C38.5,36.2,38.5,36.1,38.6,35.9z
										"/>
								</g>
							</g>
							<g>
								<g>
									<path fill="#F7B64C" d="M35.9,39.1c-0.8-4.2-4.2-9.4-4.4-9.6l-0.3,0.2c0,0.1,3.7,5.5,4.4,9.7
										C35.7,39.3,35.8,39.2,35.9,39.1z"/>
								</g>
							</g>
							<path fill="#F7B64C" d="M26,26.4c0,0.1-0.1,7,3.6,13.5c0.2,0.2,0.5,0.4,0.7,0.6c-4-6.6-4-14-4-14.1L26,26.4z"/>
							<g>
								<g>
									<path fill="#F7B64C" d="M34.2,40.4c-4.4-5-7.9-13.9-7.9-14L26,26.5c0,0.1,3.5,9,8,14.1C34,40.5,34.1,40.5,34.2,40.4z"/>
								</g>
							</g>
							<g>
								<g>
									<path fill="#F7B64C" d="M34.6,16.2l-2.7,2.7l-6.6,4.5v0.4l6.8-4.6l2.8-2.7l0,0l0,0c0,0,0.9-3.8,10.8-3.3
										c0.1-0.1,0.1-0.2,0.2-0.3C36.1,12.2,34.8,15.7,34.6,16.2z"/>
								</g>
							</g>
							<g>
								<g>
									<path fill="#F7B64C" d="M44,15.8c-4.9-0.7-9.2,0.4-9.3,0.4l0.1,0.3c0,0,4.3-1,9-0.4C43.9,16,44,15.9,44,15.8z"/>
								</g>
							</g>
							<g>
								<g>
									<path fill="#F7B64C" d="M42.5,19.3c-4.9-0.8-10.5-0.4-10.6-0.4l0,0.3c0.1,0,5.7-0.4,10.5,0.4
										C42.5,19.5,42.5,19.4,42.5,19.3z"/>
								</g>
							</g>
							<g>
								<g>
									<path fill="#F7B64C" d="M47.1,10.2c0-0.1,0-0.2,0.1-0.3c-8.3-0.3-12.4,3.4-12.4,3.5c0,0-0.4,0.2-0.3,0.3c0,0.1,0.4,0,0.4,0
										c0.7,0,1.3,0.2,1.9,0.7l0.2-0.2c-0.6-0.4-1.1-0.7-1.7-0.7C36.3,12.5,40.3,10,47.1,10.2z"/>
								</g>
							</g>
						</g>
						<g>
							<g>
								<path fill="#415A6B" d="M47.7,9.9c0,0,0,0.1-0.1,0.1l-5,12c-0.7,2.8-5.2,2-5.5,1.9c0.4,0.1,6.3,1.8,5.3,7.5
									c-0.3,1.7-1.2,3.3-2.4,4.6c-1.3,1.3-3.4,3.4-5.3,4.6c-1.4,0.8-2.7,0.8-3.7,0.3c0.6-0.1,1.2-0.3,1.9-0.7
									c1.9-1.2,4-3.2,5.3-4.6c1.2-1.3,2.1-2.9,2.4-4.6c1-5.7-5-7.4-5.3-7.5c0.3,0.1,4.8,0.9,5.6-1.9l5-12c0,0,0-0.1,0.1-0.1
									c0.8-1.7-0.1-3.6-1.6-4.3C46.8,5,48.8,7.6,47.7,9.9z"/>
							</g>
							<g>
								<path fill="#415A6B" d="M37.2,24C37.2,24,37.1,23.9,37.2,24C37.1,23.9,37.2,23.9,37.2,24C37.2,24,37.2,24,37.2,24z"/>
							</g>
							<circle fill="#FFFFFF" cx="46.4" cy="6.7" r="0.3"/>
							<circle fill="#FFFFFF" cx="46.7" cy="9.1" r="0.2"/>
							<circle fill="#FFFFFF" cx="46.9" cy="10.5" r="0.3"/>
							<circle fill="#FFFFFF" cx="45.9" cy="11.5" r="0.3"/>
							<circle fill="#FFFFFF" cx="44.7" cy="13" r="0.5"/>
							<circle fill="#FFFFFF" cx="45" cy="14.8" r="0.3"/>
							<circle fill="#FFFFFF" cx="44.3" cy="15.5" r="0.3"/>
							<circle fill="#FFFFFF" cx="43.5" cy="17.3" r="0.3"/>
							<circle fill="#FFFFFF" cx="44.4" cy="16.7" r="0.2"/>
							<ellipse fill="#FFFFFF" cx="43.5" cy="18.7" rx="0" ry="0.1"/>
							<circle fill="#FFFFFF" cx="42.6" cy="19" r="0.2"/>
							<circle fill="#FFFFFF" cx="43" cy="20.7" r="0.2"/>
							<circle fill="#FFFFFF" cx="42.1" cy="21" r="0.1"/>
							<circle fill="#FFFFFF" cx="43.4" cy="18.6" r="0.2"/>
							<circle fill="#FFFFFF" cx="42" cy="20.2" r="0.3"/>
							<circle fill="#FFFFFF" cx="41.9" cy="22.2" r="0.3"/>
							<circle fill="#FFFFFF" cx="41" cy="22.3" r="0.2"/>
							<circle fill="#FFFFFF" cx="41.2" cy="23.3" r="0.2"/>
							<circle fill="#FFFFFF" cx="40.6" cy="23.2" r="0.2"/>
							<circle fill="#FFFFFF" cx="39.9" cy="23.6" r="0.2"/>
							<circle fill="#FFFFFF" cx="39.2" cy="23.9" r="0.1"/>
							<circle fill="#FFFFFF" cx="38.2" cy="23.9" r="0.1"/>
							<circle fill="#FFFFFF" cx="36.7" cy="24" r="0.1"/>
							<circle fill="#FFFFFF" cx="37.2" cy="24.3" r="0.1"/>
							<circle fill="#FFFFFF" cx="37.8" cy="24.5" r="0.1"/>
							<circle fill="#FFFFFF" cx="38.3" cy="24.7" r="0.1"/>
							<circle fill="#FFFFFF" cx="38.8" cy="24.8" r="0.1"/>
							<circle fill="#FFFFFF" cx="38.8" cy="25.3" r="0.2"/>
							<circle fill="#FFFFFF" cx="39.4" cy="25.4" r="0.2"/>
							<circle fill="#FFFFFF" cx="39.9" cy="26.1" r="0.3"/>
							<circle fill="#FFFFFF" cx="40.8" cy="26.6" r="0.2"/>
							<circle fill="#FFFFFF" cx="40.7" cy="27.3" r="0.2"/>
							<circle fill="#FFFFFF" cx="41.6" cy="28.4" r="0.1"/>
							<circle fill="#FFFFFF" cx="40.9" cy="28.8" r="0.2"/>
							<circle fill="#FFFFFF" cx="42" cy="29.9" r="0.4"/>
							<circle fill="#FFFFFF" cx="41.4" cy="30.5" r="0.3"/>
							<circle fill="#FFFFFF" cx="41.9" cy="31.3" r="0.1"/>
							<circle fill="#FFFFFF" cx="41.2" cy="31.6" r="0.1"/>
							<circle fill="#FFFFFF" cx="41.8" cy="32.2" r="0"/>
							<circle fill="#FFFFFF" cx="40.7" cy="32.4" r="0.2"/>
							<circle fill="#FFFFFF" cx="41.4" cy="33" r="0.2"/>
							<circle fill="#FFFFFF" cx="40.3" cy="33.7" r="0.2"/>
							<circle fill="#FFFFFF" cx="41" cy="34.2" r="0.1"/>
							<circle fill="#FFFFFF" cx="40.8" cy="33.5" r="0.2"/>
							<circle fill="#FFFFFF" cx="40.1" cy="34.5" r="0.3"/>
							<circle fill="#FFFFFF" cx="39.6" cy="35.5" r="0.3"/>
							<circle fill="#FFFFFF" cx="38.9" cy="35.7" r="0.2"/>
							<circle fill="#FFFFFF" cx="39.4" cy="36.3" r="0.1"/>
							<circle fill="#FFFFFF" cx="40.4" cy="35.2" r="0.2"/>
							<circle fill="#FFFFFF" cx="38.2" cy="36.1" r="0.2"/>
							<circle fill="#FFFFFF" cx="38.7" cy="37" r="0.2"/>
							<circle fill="#FFFFFF" cx="37.8" cy="37" r="0.2"/>
							<circle fill="#FFFFFF" cx="37.1" cy="37.9" r="0.2"/>
							<circle fill="#FFFFFF" cx="37.7" cy="37.9" r="0.2"/>
							<circle fill="#FFFFFF" cx="36.4" cy="38.3" r="0.2"/>
							<circle fill="#FFFFFF" cx="37" cy="38.6" r="0.2"/>
							<circle fill="#FFFFFF" cx="36.4" cy="39.1" r="0.2"/>
							<circle fill="#FFFFFF" cx="35.7" cy="38.8" r="0.2"/>
							<circle fill="#FFFFFF" cx="35.8" cy="39.6" r="0.1"/>
							<circle fill="#FFFFFF" cx="35" cy="39.3" r="0.2"/>
							<circle fill="#FFFFFF" cx="34.9" cy="40.1" r="0.2"/>
							<circle fill="#FFFFFF" cx="33.9" cy="40.1" r="0.2"/>
							<circle fill="#FFFFFF" cx="33.8" cy="40.8" r="0.1"/>
							<circle fill="#FFFFFF" cx="33" cy="40.7" r="0.2"/>
							<g>
								<circle fill="#FFFFFF" cx="32.2" cy="41" r="0.2"/>
							</g>
						</g>
					</g>
					<g>
						<g>
							<g>
								<g>
									<path fill="#FFD15C" d="M3.9,5.4c10.2,1.9,17.9,15,18.7,16.5v9.1c-0.4,1.1-2.1,5.7-3,7.4c-1.1,1.9-3.4,4.1-6.4,2.3
										c-1.9-1.2-4-3.2-5.3-4.6c-1.2-1.3-2.1-2.9-2.4-4.6c-1-5.9,5.4-7.5,5.4-7.5s-4.8,1-5.6-1.9l-5-12c0,0,0-0.1-0.1-0.1
										C-0.8,7.5,1.3,4.9,3.9,5.4z"/>
								</g>
							</g>
						</g>
						<g>
							<g>
								<g>
									<path fill="#F7B64C" d="M7.6,27.1c4-1.9,8.1-1.4,8.2-1.4l0,0.3c0,0-4.3-0.5-8.3,1.5C7.5,27.4,7.5,27.3,7.6,27.1z"/>
								</g>
								<g>
									<path fill="#F7B64C" d="M17.3,25l0.2-0.2c-1.9-1.6-5.7-1.1-5.9-1l0,0.3C11.6,24.1,15.5,23.5,17.3,25z"/>
								</g>
							</g>
							<g>
								<g>
									<path fill="#F7B64C" d="M6.7,29.8c3-2.1,7.2-2.4,7.2-2.4l0,0.3c0,0-4.3,0.3-7.2,2.5C6.7,30.1,6.7,30,6.7,29.8z"/>
								</g>
							</g>
							<g>
								<g>
									<path fill="#F7B64C" d="M15.7,26.1c-0.1,0.2-0.5,1.1-1.9,1.8c-1.4,0.7-1.5,2.1-1.5,2.2l0,0.1l-0.1,0c0,0-2.6,0.3-4.5,3.3
										c-0.1-0.1-0.2-0.1-0.2-0.2c1.7-2.7,4-3.2,4.6-3.3c0.1-0.4,0.3-1.6,1.7-2.3c1.5-0.7,1.8-1.7,1.8-1.7l0-0.1l1.7-0.9l3.9-0.1
										l1.5,0.9l-0.2,0.3L21,25.3l-3.7,0.1L15.7,26.1z"/>
								</g>
							</g>
							<g>
								<g>
									<polygon fill="#F7B64C" points="12.2,30 13.3,30.6 16.5,29.5 22.7,25.8 22.7,26.1 16.7,29.7 13.3,30.9 12,30.2 									
										"/>
								</g>
							</g>
							<g>
								<g>
									<path fill="#F7B64C" d="M9.4,35.9c1.6-2.8,3.8-5.3,3.8-5.3l0.2,0.2c0,0-2.3,2.6-3.9,5.5C9.5,36.2,9.5,36.1,9.4,35.9z"/>
								</g>
							</g>
							<g>
								<g>
									<path fill="#F7B64C" d="M12.1,39.1c0.8-4.2,4.2-9.4,4.4-9.6l0.3,0.2c0,0.1-3.7,5.5-4.4,9.7C12.3,39.3,12.2,39.2,12.1,39.1z
										"/>
								</g>
							</g>
							<path fill="#F7B64C" d="M22,26.4c0,0.1,0.1,7-3.6,13.5c-0.2,0.2-0.5,0.4-0.7,0.6c4-6.6,4-14,4-14.1L22,26.4z"/>
							<g>
								<g>
									<path fill="#F7B64C" d="M13.8,40.4c4.4-5,7.9-13.9,7.9-14l0.3,0.1c0,0.1-3.5,9-8,14.1C14,40.5,13.9,40.5,13.8,40.4z"/>
								</g>
							</g>
							<g>
								<g>
									<path fill="#F7B64C" d="M13.4,16.2l2.7,2.7l6.6,4.5v0.4l-6.8-4.6l-2.8-2.7l0,0l0,0c0,0-0.9-3.8-10.8-3.3
										c-0.1-0.1-0.1-0.2-0.2-0.3C11.9,12.2,13.2,15.7,13.4,16.2z"/>
								</g>
							</g>
							<g>
								<g>
									<path fill="#F7B64C" d="M4,15.8c4.9-0.7,9.2,0.4,9.3,0.4l-0.1,0.3c0,0-4.3-1-9-0.4C4.1,16,4,15.9,4,15.8z"/>
								</g>
							</g>
							<g>
								<g>
									<path fill="#F7B64C" d="M5.5,19.3c4.9-0.8,10.5-0.4,10.6-0.4l0,0.3c-0.1,0-5.7-0.4-10.5,0.4C5.5,19.5,5.5,19.4,5.5,19.3z"
										/>
								</g>
							</g>
							<g>
								<g>
									<path fill="#F7B64C" d="M0.9,10.2c0-0.1,0-0.2-0.1-0.3c8.3-0.3,12.4,3.4,12.4,3.5c0,0,0.4,0.2,0.3,0.3c0,0.1-0.4,0-0.4,0
										c-0.7,0-1.3,0.2-1.9,0.7l-0.2-0.2c0.6-0.4,1.1-0.7,1.7-0.7C11.7,12.5,7.7,10,0.9,10.2z"/>
								</g>
							</g>
						</g>
						<g>
							<g>
								<path fill="#415A6B" d="M0.3,9.9c0,0,0,0.1,0.1,0.1l5,12c0.7,2.8,5.2,2,5.5,1.9c-0.4,0.1-6.3,1.8-5.3,7.5
									c0.3,1.7,1.2,3.3,2.4,4.6c1.3,1.3,3.4,3.4,5.3,4.6c1.4,0.8,2.7,0.8,3.7,0.3c-0.6-0.1-1.2-0.3-1.9-0.7
									c-1.9-1.2-4-3.2-5.3-4.6c-1.2-1.3-2.1-2.9-2.4-4.6c-1-5.7,5-7.4,5.3-7.5c-0.3,0.1-4.8,0.9-5.6-1.9l-5-12c0,0,0-0.1-0.1-0.1
									C1.4,7.9,2.2,6.1,3.7,5.3C1.2,5-0.8,7.6,0.3,9.9z"/>
							</g>
							<g>
								<path fill="#415A6B" d="M10.8,24C10.8,24,10.9,23.9,10.8,24C10.9,23.9,10.8,23.9,10.8,24C10.8,24,10.8,24,10.8,24z"/>
							</g>
							<circle fill="#FFFFFF" cx="1.6" cy="6.7" r="0.3"/>
							<circle fill="#FFFFFF" cx="1.3" cy="9.1" r="0.2"/>
							<circle fill="#FFFFFF" cx="2.3" cy="5.8" r="0.2"/>
							<circle fill="#FFFFFF" cx="1.1" cy="10.5" r="0.3"/>
							<circle fill="#FFFFFF" cx="0.9" cy="8" r="0.3"/>
							<circle fill="#FFFFFF" cx="2.1" cy="11.5" r="0.3"/>
							<circle fill="#FFFFFF" cx="2.8" cy="13.1" r="0.5"/>
							<circle fill="#FFFFFF" cx="3" cy="14.8" r="0.3"/>
							<circle fill="#FFFFFF" cx="3.7" cy="15.5" r="0.3"/>
							<circle fill="#FFFFFF" cx="4.5" cy="17.3" r="0.3"/>
							<circle fill="#FFFFFF" cx="3.6" cy="16.7" r="0.2"/>
							<ellipse fill="#FFFFFF" cx="4.5" cy="18.7" rx="0" ry="0.1"/>
							<circle fill="#FFFFFF" cx="5.4" cy="19" r="0.2"/>
							<circle fill="#FFFFFF" cx="5" cy="20.7" r="0.2"/>
							<circle fill="#FFFFFF" cx="5.9" cy="21" r="0.1"/>
							<circle fill="#FFFFFF" cx="4.6" cy="18.6" r="0.2"/>
							<circle fill="#FFFFFF" cx="6" cy="20.2" r="0.3"/>
							<circle fill="#FFFFFF" cx="6.1" cy="22.2" r="0.3"/>
							<circle fill="#FFFFFF" cx="7" cy="22.3" r="0.2"/>
							<circle fill="#FFFFFF" cx="6.8" cy="23.3" r="0.2"/>
							<circle fill="#FFFFFF" cx="7.4" cy="23.2" r="0.2"/>
							<circle fill="#FFFFFF" cx="8.1" cy="23.6" r="0.2"/>
							<circle fill="#FFFFFF" cx="8.8" cy="23.9" r="0.1"/>
							<circle fill="#FFFFFF" cx="9.8" cy="23.9" r="0.1"/>
							<circle fill="#FFFFFF" cx="11.3" cy="24" r="0.1"/>
							<circle fill="#FFFFFF" cx="10.8" cy="24.3" r="0.1"/>
							<circle fill="#FFFFFF" cx="10.2" cy="24.5" r="0.1"/>
							<circle fill="#FFFFFF" cx="9.7" cy="24.7" r="0.1"/>
							<circle fill="#FFFFFF" cx="9.2" cy="24.8" r="0.1"/>
							<circle fill="#FFFFFF" cx="9.2" cy="25.3" r="0.2"/>
							<circle fill="#FFFFFF" cx="8.6" cy="25.4" r="0.2"/>
							<circle fill="#FFFFFF" cx="8.1" cy="26.1" r="0.3"/>
							<circle fill="#FFFFFF" cx="7.2" cy="26.6" r="0.2"/>
							<circle fill="#FFFFFF" cx="7.3" cy="27.3" r="0.2"/>
							<circle fill="#FFFFFF" cx="6.4" cy="28.4" r="0.1"/>
							<circle fill="#FFFFFF" cx="7.1" cy="28.8" r="0.2"/>
							<circle fill="#FFFFFF" cx="6" cy="29.9" r="0.4"/>
							<circle fill="#FFFFFF" cx="6.6" cy="30.5" r="0.3"/>
							<circle fill="#FFFFFF" cx="6.1" cy="31.3" r="0.1"/>
							<circle fill="#FFFFFF" cx="6.8" cy="31.6" r="0.1"/>
							<circle fill="#FFFFFF" cx="6.2" cy="32.2" r="0"/>
							<circle fill="#FFFFFF" cx="7.3" cy="32.4" r="0.2"/>
							<circle fill="#FFFFFF" cx="6.6" cy="33" r="0.2"/>
							<circle fill="#FFFFFF" cx="7.7" cy="33.7" r="0.2"/>
							<circle fill="#FFFFFF" cx="7" cy="34.2" r="0.1"/>
							<circle fill="#FFFFFF" cx="7.2" cy="33.5" r="0.2"/>
							<circle fill="#FFFFFF" cx="7.9" cy="34.5" r="0.3"/>
							<circle fill="#FFFFFF" cx="8.4" cy="35.5" r="0.3"/>
							<circle fill="#FFFFFF" cx="9.1" cy="35.7" r="0.2"/>
							<circle fill="#FFFFFF" cx="8.6" cy="36.3" r="0.1"/>
							<circle fill="#FFFFFF" cx="7.6" cy="35.2" r="0.2"/>
							<circle fill="#FFFFFF" cx="9.8" cy="36.1" r="0.2"/>
							<circle fill="#FFFFFF" cx="9.3" cy="37" r="0.2"/>
							<circle fill="#FFFFFF" cx="10.2" cy="37" r="0.2"/>
							<circle fill="#FFFFFF" cx="10.9" cy="37.9" r="0.2"/>
							<circle fill="#FFFFFF" cx="10.3" cy="37.9" r="0.2"/>
							<circle fill="#FFFFFF" cx="11.6" cy="38.3" r="0.2"/>
							<circle fill="#FFFFFF" cx="11" cy="38.6" r="0.2"/>
							<circle fill="#FFFFFF" cx="11.6" cy="39.1" r="0.2"/>
							<circle fill="#FFFFFF" cx="12.3" cy="38.8" r="0.2"/>
							<circle fill="#FFFFFF" cx="12.2" cy="39.6" r="0.1"/>
							<circle fill="#FFFFFF" cx="13" cy="39.3" r="0.2"/>
							<circle fill="#FFFFFF" cx="13.1" cy="40.1" r="0.2"/>
							<circle fill="#FFFFFF" cx="14.1" cy="40.1" r="0.2"/>
							<circle fill="#FFFFFF" cx="14.2" cy="40.8" r="0.1"/>
							<circle fill="#FFFFFF" cx="15" cy="40.7" r="0.2"/>
							<g>
								<circle fill="#FFFFFF" cx="15.8" cy="41" r="0.2"/>
							</g>
						</g>
					</g>
				</g>
				<g>
					<g>
						<g>
							<path fill="#415A6B" d="M23.6,23.1c0,0,0.1-0.2,0.3-0.5c0.2-0.3,0.3-0.7,0.5-1.2c0.4-0.9,0.8-1.9,1.1-2.8
								c0.2-0.4,0.3-0.8,0.4-1.1c0,0,0-0.1,0-0.1c0,0,0-0.1,0-0.1c0-0.1,0-0.2,0-0.2c0-0.1,0.1-0.3,0.1-0.4c0.1-0.2,0.2-0.3,0.3-0.4
								c0.1-0.1,0.1-0.2,0.1-0.2c0.3-0.3,0.5-0.1,0.3,0.2c0,0,0,0-0.1,0.1c-0.1,0.1-0.2,0.2-0.3,0.4c-0.1,0.1-0.1,0.2-0.2,0.3
								c0,0.1,0,0.1,0,0.2c0,0,0,0.1,0,0.1c0,0,0,0.1,0,0.1c-0.1,0.4-0.2,0.7-0.4,1.1c-0.4,0.9-0.8,1.9-1.2,2.7
								c-0.2,0.5-0.4,0.9-0.6,1.2C23.8,23,23.7,23.1,23.6,23.1L23.6,23.1z"/>
						</g>
						<g>
							<path fill="#415A6B" d="M24.4,23.1c0,0-0.1-0.2-0.3-0.5c-0.2-0.3-0.3-0.7-0.5-1.2c-0.4-0.9-0.8-1.9-1.1-2.8
								c-0.2-0.4-0.3-0.8-0.4-1.1c0,0,0-0.1,0-0.1c0,0,0-0.1,0-0.1c0-0.1,0-0.2,0-0.2c0-0.1-0.1-0.3-0.1-0.4
								c-0.1-0.2-0.2-0.3-0.3-0.4c-0.1-0.1-0.1-0.2-0.1-0.2c-0.3-0.3-0.5-0.1-0.3,0.2c0,0,0,0,0.1,0.1c0.1,0.1,0.2,0.2,0.3,0.4
								c0.1,0.1,0.1,0.2,0.2,0.3c0,0.1,0,0.1,0,0.2c0,0,0,0.1,0,0.1c0,0,0,0.1,0,0.1c0.1,0.4,0.2,0.7,0.4,1.1
								c0.4,0.9,0.8,1.9,1.2,2.7c0.2,0.5,0.4,0.9,0.6,1.2C24.2,23,24.3,23.1,24.4,23.1L24.4,23.1z"/>
						</g>
					</g>
					<g>
						<g>
							<ellipse fill="#344A5E" cx="24" cy="22.4" rx="1.5" ry="1.6"/>
						</g>
						<g>
							<path fill="#415A6B" d="M25.1,25.7c0.2-0.5,0.7-2.2,0.2-2.7c-0.4-0.4-2.2-0.4-2.6,0c-0.5,0.4,0,2.2,0.2,2.7H25.1z"/>
							<path fill="#344A5E" d="M25.8,26.4c-0.2,2.4-0.7,5.4-0.7,7c0,1.5,0.1,9.1-1.1,9.4c-1.2-0.3-1.1-7.8-1.1-9.4
								c0-1.5-0.5-4.6-0.7-7c-0.1-1.6,0.8-1.8,1.4-1.9c0.3,0,0.6,0,0.9,0C25,24.5,26,24.8,25.8,26.4z"/>
						</g>
						<g>
							<g>
								<g>
									<ellipse fill="#415A6B" cx="23.1" cy="21.4" rx="0.4" ry="0.5"/>
								</g>
								<g>
									
										<ellipse transform="matrix(0.945 0.3272 -0.3272 0.945 8.1893 -6.3386)" fill="#FFFFFF" cx="22.9" cy="21.2" rx="0.1" ry="0.2"/>
								</g>
							</g>
							<g>
								<g>
									<ellipse fill="#415A6B" cx="24.9" cy="21.4" rx="0.4" ry="0.5"/>
								</g>
								<g>
									<path fill="#FFFFFF" d="M25,21.3c0,0.1,0.1,0.1,0.2,0.1c0.1,0,0.1-0.1,0-0.2c0-0.1-0.1-0.1-0.2-0.1
										C24.9,21.1,24.9,21.2,25,21.3z"/>
								</g>
							</g>
						</g>
					</g>
				</g>
				<g>
					<g>
						<g>
							<path fill="#415A6B" d="M23.6,23.1c0,0,0.1-0.2,0.3-0.5c0.2-0.3,0.3-0.7,0.5-1.2c0.4-0.9,0.8-1.9,1.1-2.8
								c0.2-0.4,0.3-0.8,0.4-1.1c0,0,0-0.1,0-0.1c0,0,0-0.1,0-0.1c0-0.1,0-0.2,0-0.2c0-0.1,0.1-0.3,0.1-0.4c0.1-0.2,0.2-0.3,0.3-0.4
								c0.1-0.1,0.1-0.2,0.1-0.2c0.3-0.3,0.5-0.1,0.3,0.2c0,0,0,0-0.1,0.1c-0.1,0.1-0.2,0.2-0.3,0.4c-0.1,0.1-0.1,0.2-0.2,0.3
								c0,0.1,0,0.1,0,0.2c0,0,0,0.1,0,0.1c0,0,0,0.1,0,0.1c-0.1,0.4-0.2,0.7-0.4,1.1c-0.4,0.9-0.8,1.9-1.2,2.7
								c-0.2,0.5-0.4,0.9-0.6,1.2C23.8,23,23.7,23.1,23.6,23.1L23.6,23.1z"/>
						</g>
						<g>
							<path fill="#415A6B" d="M24.4,23.1c0,0-0.1-0.2-0.3-0.5c-0.2-0.3-0.3-0.7-0.5-1.2c-0.4-0.9-0.8-1.9-1.1-2.8
								c-0.2-0.4-0.3-0.8-0.4-1.1c0,0,0-0.1,0-0.1c0,0,0-0.1,0-0.1c0-0.1,0-0.2,0-0.2c0-0.1-0.1-0.3-0.1-0.4
								c-0.1-0.2-0.2-0.3-0.3-0.4c-0.1-0.1-0.1-0.2-0.1-0.2c-0.3-0.3-0.5-0.1-0.3,0.2c0,0,0,0,0.1,0.1c0.1,0.1,0.2,0.2,0.3,0.4
								c0.1,0.1,0.1,0.2,0.2,0.3c0,0.1,0,0.1,0,0.2c0,0,0,0.1,0,0.1c0,0,0,0.1,0,0.1c0.1,0.4,0.2,0.7,0.4,1.1
								c0.4,0.9,0.8,1.9,1.2,2.7c0.2,0.5,0.4,0.9,0.6,1.2C24.2,23,24.3,23.1,24.4,23.1L24.4,23.1z"/>
						</g>
					</g>
					<g>
						<g>
							<ellipse fill="#344A5E" cx="24" cy="22.4" rx="1.5" ry="1.6"/>
						</g>
						<g>
							<g>
								<g>
									<ellipse fill="#415A6B" cx="23.1" cy="21.4" rx="0.4" ry="0.5"/>
								</g>
								<g>
									
										<ellipse transform="matrix(0.945 0.3272 -0.3272 0.945 8.1893 -6.3386)" fill="#FFFFFF" cx="22.9" cy="21.2" rx="0.1" ry="0.2"/>
								</g>
							</g>
							<g>
								<g>
									<ellipse fill="#415A6B" cx="24.9" cy="21.4" rx="0.4" ry="0.5"/>
								</g>
								<g>
									<path fill="#FFFFFF" d="M25,21.3c0,0.1,0.1,0.1,0.2,0.1c0.1,0,0.1-0.1,0-0.2c0-0.1-0.1-0.1-0.2-0.1
										C24.9,21.1,24.9,21.2,25,21.3z"/>
								</g>
							</g>
						</g>
					</g>
				</g>
				<path fill="#415A6B" d="M22.6,30C22.6,30.1,22.6,30.1,22.6,30c0.5-0.1,0.9-0.1,1.4-0.1c0.5,0,1,0.1,1.4,0.2c0,0,0,0,0-0.1
					c-0.4-0.3-0.9-0.4-1.4-0.4C23.5,29.6,23,29.8,22.6,30z"/>
				<path fill="#415A6B" d="M22.7,31.3c0,0,0,0.1,0,0.1c0.4-0.1,0.8-0.2,1.3-0.2c0.4,0,0.9,0.1,1.3,0.2c0,0,0-0.1,0-0.1
					c-0.4-0.2-0.8-0.3-1.3-0.3C23.5,30.9,23.1,31,22.7,31.3z"/>
				<path fill="#415A6B" d="M22.8,32.5c0,0.1,0,0.1,0,0.2c0.4-0.1,0.8-0.1,1.1-0.1c0.4,0,0.8,0,1.1,0.1c0,0,0-0.1,0-0.2
					c-0.3-0.2-0.7-0.3-1.2-0.3C23.6,32.2,23.2,32.3,22.8,32.5z"/>
				<path fill="#415A6B" d="M22.9,33.8c0,0.1,0,0.1,0,0.2c0.4-0.1,0.7-0.1,1.1-0.1c0.4,0,0.8,0,1.1,0.1c0-0.1,0-0.1,0-0.2
					c-0.3-0.2-0.7-0.3-1.1-0.3C23.6,33.5,23.2,33.6,22.9,33.8z"/>
				<path fill="#415A6B" d="M22.9,35c0,0.1,0,0.1,0,0.2c0.4-0.1,0.7-0.1,1.1-0.1c0.4,0,0.7,0,1.1,0.1c0-0.1,0-0.1,0-0.2
					c-0.3-0.2-0.7-0.3-1.1-0.3C23.6,34.8,23.2,34.9,22.9,35z"/>
				<path fill="#415A6B" d="M22.9,36.6C22.9,36.6,22.9,36.6,22.9,36.6c0.3-0.1,0.7-0.2,1.1-0.2c0.4,0,0.7,0.1,1.1,0.2c0,0,0,0,0-0.1
					c-0.3-0.3-0.7-0.5-1.1-0.5C23.6,36.1,23.2,36.3,22.9,36.6z"/>
				<path fill="#415A6B" d="M23,37.7c0,0,0,0.1,0,0.1c0.3-0.1,0.7-0.2,1-0.2c0.4,0,0.7,0.1,1,0.2c0,0,0-0.1,0-0.1
					c-0.3-0.2-0.7-0.4-1-0.4C23.6,37.4,23.3,37.5,23,37.7z"/>
				<path fill="#415A6B" d="M23,39c0,0,0,0.1,0,0.1c0.3-0.1,0.6-0.1,1-0.1c0.3,0,0.6,0,1,0.1c0,0,0-0.1,0-0.1
					c-0.3-0.2-0.6-0.3-1-0.3C23.7,38.7,23.3,38.8,23,39z"/>
				<path fill="#415A6B" d="M23.2,40.2c0,0.1,0,0.1,0,0.2c0.3-0.1,0.5-0.1,0.8-0.1c0.3,0,0.6,0,0.8,0.1c0-0.1,0-0.1,0-0.2
					C24.6,40.1,24.3,40,24,40C23.7,40,23.4,40.1,23.2,40.2z"/>
			</g>
			<path fill="#415A6B" d="M23.4,41.5c0,0.1,0,0.1,0,0.2c0.2-0.1,0.4-0.1,0.6-0.1c0.2,0,0.4,0,0.6,0.1c0-0.1,0-0.1,0-0.2
				c-0.2-0.1-0.4-0.2-0.6-0.2C23.8,41.3,23.6,41.3,23.4,41.5z"/>
		</g>
		<circle fill="#FFFFFF" cx="47.2" cy="7.8" r="0.3"/>
		<circle fill="#FFFFFF" cx="45.5" cy="5.8" r="0.1"/>
	</g>
</g>
</svg>
