<?xml version="1.0" encoding="utf-8"?>
<!-- Generator: Adobe Illustrator 18.0.0, SVG Export Plug-In . SVG Version: 6.00 Build 0)  -->
<!DOCTYPE svg PUBLIC "-//W3C//DTD SVG 1.1//EN" "http://www.w3.org/Graphics/SVG/1.1/DTD/svg11.dtd">
<svg version="1.1" id="Layer_1" xmlns="http://www.w3.org/2000/svg" xmlns:xlink="http://www.w3.org/1999/xlink" x="0px" y="0px"
	 viewBox="0 0 48 48" enable-background="new 0 0 48 48" xml:space="preserve">
<g>
	<path fill="#FFD15C" d="M48,13.3C48,6,42,0,34.7,0L0,34.7C0,42,6,48,13.3,48L48,13.3z"/>
	<g>
		<path fill="#334A5E" d="M36.3,16.6c-0.6,0.6-2.2,0-3.5-1.3c-1.3-1.3-1.9-2.9-1.3-3.5l5-5c0.6-0.6,2.2,0,3.5,1.3
			c1.3,1.3,1.9,2.9,1.3,3.5L36.3,16.6z"/>
	</g>
	
		<rect x="28.6" y="9.9" transform="matrix(0.7071 0.7071 -0.7071 0.7071 18.5278 -23.1515)" fill="#FFFFFF" width="17.2" height="1.8"/>
	<g>
		<path fill="#334A5E" d="M34.1,3l-2.6-2.6c-0.2-0.2-0.6-0.2-0.9,0l-3.8,3.8c-0.2,0.2-0.2,0.6,0,0.9l2.6,2.6c0.2,0.2,0.6,0.2,0.9,0
			l3.8-3.8C34.4,3.6,34.4,3.2,34.1,3z"/>
		<path fill="#334A5E" d="M47.6,16.4L45,13.9c-0.2-0.2-0.6-0.2-0.9,0l-3.8,3.8c-0.2,0.2-0.2,0.6,0,0.9l2.6,2.6
			c0.2,0.2,0.6,0.2,0.9,0l3.8-3.8C47.8,17.1,47.8,16.7,47.6,16.4z"/>
	</g>
	<g>
		<g>
			<path fill="#FFFFFF" d="M36.4,9.1c-0.5,0.1-1.1,0.2-1.4,0.6c-0.5,0.5-0.8,1.4-1,2.2c-0.3,1.3,0.8,2.4,2.1,2.1
				c0.9-0.2,1.7-0.5,2.2-1c0.4-0.4,0.5-0.9,0.6-1.4L36.4,9.1z"/>
		</g>
	</g>
	<g>
		<circle fill="#334A5E" cx="35.7" cy="12.3" r="0.7"/>
	</g>
	<path fill="#334A5E" d="M11.7,31.4c0.6-0.6,2.2,0,3.5,1.3c1.3,1.3,1.9,2.9,1.3,3.5l-5,5c-0.6,0.6-2.2,0-3.5-1.3
		c-1.3-1.3-1.9-2.9-1.3-3.5L11.7,31.4z"/>
	
		<rect x="2.2" y="36.3" transform="matrix(-0.7071 -0.7071 0.7071 -0.7071 -7.893 71.1518)" fill="#FFFFFF" width="17.2" height="1.8"/>
	<path fill="#334A5E" d="M21.1,42.9l-2.6-2.6c-0.2-0.2-0.6-0.2-0.9,0l-3.8,3.8c-0.2,0.2-0.2,0.6,0,0.9l2.6,2.6
		c0.2,0.2,0.6,0.2,0.9,0l3.8-3.8C21.4,43.5,21.4,43.1,21.1,42.9z"/>
	<path fill="#334A5E" d="M7.7,29.4l-2.6-2.6c-0.2-0.2-0.6-0.2-0.9,0l-3.8,3.8c-0.2,0.2-0.2,0.6,0,0.9L3,34.1c0.2,0.2,0.6,0.2,0.9,0
		l3.8-3.8C7.9,30.1,7.9,29.7,7.7,29.4z"/>
	<g>
		<path fill="#FFFFFF" d="M11.6,38.9c0.5-0.1,1.1-0.2,1.4-0.6c0.5-0.5,0.8-1.4,1-2.2c0.3-1.3-0.8-2.4-2.1-2.1
			c-0.9,0.2-1.7,0.5-2.2,1c-0.4,0.4-0.5,0.9-0.6,1.4L11.6,38.9z"/>
	</g>
	<circle fill="#334A5E" cx="12.3" cy="35.7" r="0.7"/>
</g>
</svg>
