<?xml version="1.0" encoding="utf-8"?>
<!-- Generator: Adobe Illustrator 18.0.0, SVG Export Plug-In . SVG Version: 6.00 Build 0)  -->
<!DOCTYPE svg PUBLIC "-//W3C//DTD SVG 1.1//EN" "http://www.w3.org/Graphics/SVG/1.1/DTD/svg11.dtd">
<svg version="1.1" id="Layer_1" xmlns="http://www.w3.org/2000/svg" xmlns:xlink="http://www.w3.org/1999/xlink" x="0px" y="0px"
	 viewBox="0 0 48 48" enable-background="new 0 0 48 48" xml:space="preserve">
<g>
	<g>
		<g>
			<g>
				<g>
					<path fill="#415A6B" d="M45.9,48c-4.6-9.7-7.1-20.2-7.1-31v-2.2C38.8,6.6,32.2,0,24,0C15.8,0,9.2,6.6,9.2,14.8V17
						c0,10.7-2.4,21.3-7.1,31H45.9z"/>
				</g>
			</g>
			<g>
				<g>
					<path fill="#F7B64C" d="M48,48l-1.5-5c-0.6-2.9-2.6-5.4-5.4-6.3c-2.4-0.8-4.8-1.5-7.1-2c-1.8-0.4-3.1-2-3.1-3.8V28L24,19.2
						L17.1,28v2.9c0,1.8-1.3,3.4-3.1,3.8c-2.4,0.5-4.8,1.2-7.1,2c-2.8,1-4.8,3.4-5.4,6.3L0,48H48z"/>
				</g>
			</g>
			<g>
				<g>
					<path fill="#4ABAA5" d="M48,48l-1.5-5c-0.6-2.9-2.6-5.4-5.4-6.3c-2.8-1-5.6-1.7-8.4-2.2l-2.4,8.3c-1.8,1.3-3.9,2-6.3,2
						c-2.7,0-5.2-1-7.1-2.6v-8c-0.3,0-0.7,0.1-1,0.2c-3,0.5-6,1.3-9,2.3c-2.8,1-4.8,3.4-5.4,6.3L0,48H48z"/>
				</g>
			</g>
			<g>
				<g>
					<path fill="#F3705A" d="M28.6,48l1.7-5.2c-1.8,1.3-3.9,2-6.3,2c-2.7,0-5.2-1-7.1-2.6l2,5.8H28.6z"/>
				</g>
			</g>
			<g>
				<g>
					<g>
						<polygon fill="#66C6B9" points="32.5,48 36,42 33.1,39.5 36.7,37.7 30.9,30.9 27.1,48 						"/>
					</g>
				</g>
				<g>
					<g>
						<polygon fill="#66C6B9" points="12,42 15.5,48 20.9,48 17.1,30.9 11.3,37.7 14.9,39.5 						"/>
					</g>
				</g>
			</g>
			<g>
				<g>
					<path fill="#FFD15C" d="M14,19c-0.4,7.7,4.1,14.4,10,14.4c5.9,0,10.4-6.7,10-14.4c-0.1-2.4-0.7-4.7-1.7-6.6
						c-2.9,0-5-1.1-6.4-3.1c-2.6,3.5-6.6,6-11.7,7.7C14.2,17,14,18.3,14,19z"/>
				</g>
			</g>
		</g>
		<g>
			<path fill="#F3F3F3" d="M12.4,17.3v-1.4c0-6.4,5.2-11.6,11.6-11.6c6.4,0,11.6,5.2,11.6,11.6v1.4h1.2v-1.4c0-7-5.7-12.7-12.7-12.7
				c-7,0-12.7,5.7-12.7,12.7v1.4H12.4z"/>
		</g>
		<g>
			<g>
				<path fill="#F3F3F3" d="M24.1,30.2L23.9,29c10.7-1.8,11.2-4,11.2-8.3h1.2C36.2,26.3,34.5,28.4,24.1,30.2z"/>
			</g>
		</g>
		<g>
			<g>
				<path fill="#F3705A" d="M35.8,22.5h-1.4v-6h1.4c0.9,0,1.6,0.7,1.6,1.6v2.8C37.4,21.8,36.6,22.5,35.8,22.5z"/>
			</g>
			<g>
				<g>
					<g>
						<path fill="#F3705A" d="M33.8,23.4c0.5,0,0.9-0.4,0.9-0.9v-6c0-0.5-0.4-0.9-0.9-0.9c-0.5,0-0.9,0.4-0.9,0.9v6
							C32.8,23,33.3,23.4,33.8,23.4z"/>
					</g>
				</g>
			</g>
			<g>
				<path fill="#F3705A" d="M12.1,22h1.3v-5.5h-1.3c-0.8,0-1.5,0.7-1.5,1.5v2.6C10.6,21.3,11.3,22,12.1,22z"/>
			</g>
			<g>
				<g>
					<g>
						<path fill="#F3705A" d="M14,22.9c-0.5,0-0.9-0.4-0.9-0.9v-5.5c0-0.5,0.4-0.9,0.9-0.9c0.5,0,0.9,0.4,0.9,0.9V22
							C14.8,22.5,14.4,22.9,14,22.9z"/>
					</g>
				</g>
			</g>
		</g>
		<g>
			<g>
				<ellipse fill="#415A6B" cx="24.3" cy="29.2" rx="2.4" ry="1.4"/>
			</g>
		</g>
	</g>
</g>
</svg>
