<?xml version="1.0" encoding="utf-8"?>
<!-- Generator: Adobe Illustrator 18.0.0, SVG Export Plug-In . SVG Version: 6.00 Build 0)  -->
<!DOCTYPE svg PUBLIC "-//W3C//DTD SVG 1.1//EN" "http://www.w3.org/Graphics/SVG/1.1/DTD/svg11.dtd">
<svg version="1.1" id="Layer_1" xmlns="http://www.w3.org/2000/svg" xmlns:xlink="http://www.w3.org/1999/xlink" x="0px" y="0px"
	 viewBox="0 0 48 48" enable-background="new 0 0 48 48" xml:space="preserve">
<g>
	<g>
		<g>
			<g>
				<g>
					<ellipse fill="#344A5E" cx="23.5" cy="4.3" rx="3.7" ry="4.3"/>
				</g>
				<g>
					<ellipse fill="#344A5E" cx="26.2" cy="4.2" rx="1.8" ry="3.4"/>
				</g>
			</g>
			<g>
				<g>
					<g>
						<polygon fill="#F3F3F3" points="26.4,10.4 24,12.2 26,14.5 27,11.8 						"/>
						<polygon fill="#F3F3F3" points="21.6,10.4 21,11.8 22,14.5 24,12.2 						"/>
					</g>
					<g>
						<g>
							<polygon fill="#55C0EB" points="24.9,14.8 25.8,13.9 24,12.2 22.2,13.9 23.1,14.8 							"/>
						</g>
						<g>
							<polygon fill="#8AD7F8" points="25.5,18.5 24.9,14.8 23.1,14.8 22.5,18.5 							"/>
						</g>
					</g>
				</g>
				<g>
					<g>
						<path fill="#344A5E" d="M33.2,18.5l-0.3-3c-0.1-1.2-1-2.2-2.1-2.6l-2.8-0.8l-2,6.4H33.2z"/>
						<g>
							<polygon fill="#415A6B" points="27.1,18.5 29.2,14.2 28,13.4 29,13.1 26.5,10.7 25.1,18.5 							"/>
						</g>
					</g>
					<g>
						<path fill="#344A5E" d="M22.1,18.5l-2-6.4l-2.8,0.8c-1.2,0.3-2,1.4-2.1,2.6l-0.3,3H22.1z"/>
						<g>
							<polygon fill="#415A6B" points="20.9,18.5 22.9,18.5 21.5,10.7 19,13.1 20,13.4 18.8,14.2 							"/>
						</g>
					</g>
				</g>
			</g>
			<g>
				<polygon fill="#F7B64C" points="26.4,8.7 24,6.9 21.6,8.7 21.6,10.4 24,12.2 26.4,10.4 				"/>
			</g>
			<g>
				<path fill="#FFD15C" d="M22.1,4.6c-0.6,0-1.2-0.1-1.7-0.2c-0.2,0.5-0.3,1.1-0.3,1.8c0,2.6,1.7,4.6,3.8,4.6s3.8-2.1,3.8-4.6
					c0-1.3-0.5-2.5-1.2-3.3C25.5,3.9,24,4.6,22.1,4.6z"/>
			</g>
			<g>
				<g>
					
						<ellipse transform="matrix(0.9841 0.1776 -0.1776 0.9841 1.5605 -4.7987)" fill="#FFD15C" cx="27.6" cy="6.3" rx="0.8" ry="1.2"/>
				</g>
				<g>
					
						<ellipse transform="matrix(-0.9841 0.1776 -0.1776 -0.9841 41.3631 8.927)" fill="#FFD15C" cx="20.3" cy="6.3" rx="0.8" ry="1.2"/>
				</g>
			</g>
		</g>
		<g>
			<g>
				<rect x="13.8" y="23.5" fill="#F3705A" width="20.3" height="18.3"/>
			</g>
			<g>
				<polygon fill="#FFD15C" points="36.1,23.5 11.9,23.5 10.4,18.5 37.6,18.5 				"/>
			</g>
		</g>
		<g>
			<g>
				<g>
					<g>
						<rect x="6" y="37.5" fill="#F7B64C" width="4.1" height="4.2"/>
					</g>
					<g>
						<g>
							<g>
								<path fill="#415A6B" d="M16,48l-0.6-2.9c-0.2-0.9-0.8-1.7-1.6-2.1l-3.3-1.6L8,41.1l-2.4,0.3L2.3,43
									c-0.8,0.4-1.4,1.2-1.6,2.1L0,48H16z"/>
							</g>
						</g>
					</g>
					<g>
						<g>
							<g>
								<path fill="#FFD15C" d="M11.9,36.2c-0.1,0.6-0.5,1-0.9,1c-0.4-0.1-0.5-0.6-0.4-1.2c0.1-0.6,0.5-1.1,0.9-1.1
									C11.9,35,12,35.5,11.9,36.2z"/>
							</g>
							<g>
								<path fill="#FFD15C" d="M4.1,36.2c0.1,0.6,0.5,1,0.9,1c0.4-0.1,0.5-0.6,0.4-1.2c-0.1-0.6-0.5-1.1-0.9-1.1
									C4.1,35,4,35.5,4.1,36.2z"/>
							</g>
						</g>
						<g>
							<path fill="#415A6B" d="M10.7,37.9C9.6,39.8,8,39.6,8,39.6s-1.6,0.2-2.7-1.7c-1.1-1.9-2-7,2.7-7.2
								C12.7,30.9,11.7,36,10.7,37.9z"/>
						</g>
					</g>
				</g>
				<g>
					<g>
						<path fill="#E8EAE9" d="M10.2,41v-0.7c0-0.5-1-0.8-2.2-0.8c-1.2,0-2.2,0.4-2.2,0.8V41H10.2z"/>
					</g>
				</g>
				<g>
					<g>
						<path fill="#344A5E" d="M11.3,41.8c0,0-2.5-0.6-3.3-0.6c-0.8,0-3.3,0.6-3.3,0.6c0.5-0.7,1.2-1.3,2-1.5
							c0.4-0.1,0.9-0.2,1.3-0.2c0.4,0,0.8,0.1,1.3,0.2C10.1,40.5,10.8,41.1,11.3,41.8z"/>
					</g>
				</g>
			</g>
			<g>
				<g>
					<g>
						<rect x="22" y="37.5" fill="#F7B64C" width="4.1" height="4.2"/>
					</g>
					<g>
						<g>
							<g>
								<path fill="#415A6B" d="M32,48l-0.6-2.9c-0.2-0.9-0.8-1.7-1.6-2.1l-3.3-1.6L24,41.1l-2.4,0.3L18.3,43
									c-0.8,0.4-1.4,1.2-1.6,2.1L16,48H32z"/>
							</g>
						</g>
					</g>
					<g>
						<g>
							<g>
								<path fill="#FFD15C" d="M27.9,36.2c-0.1,0.6-0.5,1-0.9,1c-0.4-0.1-0.5-0.6-0.4-1.2c0.1-0.6,0.5-1.1,0.9-1.1
									C27.9,35,28,35.5,27.9,36.2z"/>
							</g>
							<g>
								<path fill="#FFD15C" d="M20.1,36.2c0.1,0.6,0.5,1,0.9,1c0.4-0.1,0.5-0.6,0.4-1.2c-0.1-0.6-0.5-1.1-0.9-1.1
									C20.1,35,20,35.5,20.1,36.2z"/>
							</g>
						</g>
						<g>
							<path fill="#415A6B" d="M26.7,37.9c-1.1,1.9-2.7,1.7-2.7,1.7s-1.6,0.2-2.7-1.7c-1.1-1.9-2-7,2.7-7.2
								C28.7,30.9,27.7,36,26.7,37.9z"/>
						</g>
					</g>
				</g>
				<g>
					<g>
						<path fill="#E8EAE9" d="M26.2,41v-0.7c0-0.5-1-0.8-2.2-0.8c-1.2,0-2.2,0.4-2.2,0.8V41H26.2z"/>
					</g>
				</g>
				<g>
					<g>
						<path fill="#344A5E" d="M27.3,41.8c0,0-2.5-0.6-3.3-0.6c-0.8,0-3.3,0.6-3.3,0.6c0.5-0.7,1.2-1.3,2-1.5
							c0.4-0.1,0.9-0.2,1.3-0.2c0.4,0,0.8,0.1,1.3,0.2C26.1,40.5,26.8,41.1,27.3,41.8z"/>
					</g>
				</g>
			</g>
			<g>
				<g>
					<g>
						<rect x="38" y="37.5" fill="#F7B64C" width="4.1" height="4.2"/>
					</g>
					<g>
						<g>
							<g>
								<path fill="#415A6B" d="M48,48l-0.6-2.9c-0.2-0.9-0.8-1.7-1.6-2.1l-3.3-1.6L40,41.1l-2.4,0.3L34.3,43
									c-0.8,0.4-1.4,1.2-1.6,2.1L32,48H48z"/>
							</g>
						</g>
					</g>
					<g>
						<g>
							<g>
								<path fill="#FFD15C" d="M43.9,36.2c-0.1,0.6-0.5,1-0.9,1c-0.4-0.1-0.5-0.6-0.4-1.2c0.1-0.6,0.5-1.1,0.9-1.1
									C43.9,35,44,35.5,43.9,36.2z"/>
							</g>
							<g>
								<path fill="#FFD15C" d="M36.1,36.2c0.1,0.6,0.5,1,0.9,1c0.4-0.1,0.5-0.6,0.4-1.2c-0.1-0.6-0.5-1.1-0.9-1.1
									C36.1,35,36,35.5,36.1,36.2z"/>
							</g>
						</g>
						<g>
							<path fill="#415A6B" d="M42.7,37.9c-1.1,1.9-2.7,1.7-2.7,1.7s-1.6,0.2-2.7-1.7c-1.1-1.9-2-7,2.7-7.2
								C44.7,30.9,43.7,36,42.7,37.9z"/>
						</g>
					</g>
				</g>
				<g>
					<g>
						<path fill="#E8EAE9" d="M42.2,41v-0.7c0-0.5-1-0.8-2.2-0.8c-1.2,0-2.2,0.4-2.2,0.8V41H42.2z"/>
					</g>
				</g>
				<g>
					<g>
						<path fill="#344A5E" d="M43.3,41.8c0,0-2.5-0.6-3.3-0.6c-0.8,0-3.3,0.6-3.3,0.6c0.5-0.7,1.2-1.3,2-1.5
							c0.4-0.1,0.9-0.2,1.3-0.2c0.4,0,0.8,0.1,1.3,0.2C42.1,40.5,42.8,41.1,43.3,41.8z"/>
					</g>
				</g>
			</g>
		</g>
	</g>
</g>
</svg>
