<?xml version="1.0" encoding="utf-8"?>
<!-- Generator: Adobe Illustrator 18.0.0, SVG Export Plug-In . SVG Version: 6.00 Build 0)  -->
<!DOCTYPE svg PUBLIC "-//W3C//DTD SVG 1.1//EN" "http://www.w3.org/Graphics/SVG/1.1/DTD/svg11.dtd">
<svg version="1.1" id="Layer_1" xmlns="http://www.w3.org/2000/svg" xmlns:xlink="http://www.w3.org/1999/xlink" x="0px" y="0px"
	 viewBox="0 0 48 48" enable-background="new 0 0 48 48" xml:space="preserve">
<g>
	<g>
		<g>
			<path fill="#E8EAE9" d="M47.9,42.9c-2.6-6.8-5.2-13.6-7.9-20.4c-0.2-0.6-1-1-1.8-1c-3.4,0.3-6.7,0.3-9.8-0.1
				c-0.3,0-0.5,0-0.7,0.1c-2.7,0.8-5.5,1.5-8.4,1.8c-0.3,0-0.5,0-0.8-0.1c-2.9-0.9-5.6-2.1-8.2-3.5c-0.9-0.5-2.1-0.1-2.4,0.8
				C5.3,27.4,2.7,34.2,0.1,41c-0.2,0.6,0.3,1.5,1.4,2c4.5,2.1,9.3,3.8,14.2,4.9C16,48,16.5,48,16.9,48c4.6-0.2,9-0.8,13.3-1.8
				c0.4-0.1,0.8-0.1,1.2-0.1c4.6,0.2,9.3-0.1,14-0.8C47,45,48.3,43.8,47.9,42.9z"/>
			<g>
				<g>
					<path fill="#F6B64C" d="M18.7,25.2c3.3-0.3,6.5-1,9.6-2c0.8,7,1.5,14,2.3,21c-4.6,1.1-9.3,1.8-14.2,2
						C17.2,39.2,18,32.2,18.7,25.2z"/>
				</g>
				<g>
					<g>
						<path fill="#FFD15D" d="M28.3,23.3c3.2,0.4,6.5,0.4,9.9,0.1c2.3,6.7,4.5,13.5,6.8,20.2c-4.8,0.7-9.6,1-14.4,0.7
							C29.8,37.3,29.1,30.3,28.3,23.3z"/>
					</g>
					<g>
						<path fill="#FFD15D" d="M9.7,21.5c2.8,1.5,5.8,2.8,9,3.7c-0.8,7-1.5,14-2.3,21c-4.7-1.1-9.2-2.6-13.5-4.6
							C5.2,34.9,7.4,28.2,9.7,21.5z"/>
					</g>
				</g>
			</g>
		</g>
		<g>
			<path fill="#F15741" d="M23.5,29.3c-2.7,0-4.8,1.7-4.8,3.7c0,2,2.1,3.7,4.8,3.7c2.6,0,4.8-1.7,4.8-3.7
				C28.3,31,26.2,29.3,23.5,29.3z M23.5,35.9c-2.1,0-3.8-1.3-3.8-2.9c0-1.6,1.7-2.9,3.8-2.9c2.1,0,3.8,1.3,3.8,2.9
				C27.3,34.6,25.6,35.9,23.5,35.9z"/>
			<ellipse fill="#F15741" cx="23.5" cy="33" rx="1.7" ry="1.3"/>
		</g>
		<g>
			<path fill="#67C6B9" d="M23.5,0C17.7,0,13,4.7,13,10.5c0,7,10.5,22.5,10.5,22.5S34,17.8,34,10.5C34,4.7,29.3,0,23.5,0z"/>
			<circle fill="#FFFFFF" cx="23.5" cy="10.5" r="6.8"/>
		</g>
	</g>
</g>
</svg>
