<?xml version="1.0" encoding="utf-8"?>
<!-- Generator: Adobe Illustrator 20.1.0, SVG Export Plug-In . SVG Version: 6.00 Build 0)  -->
<!DOCTYPE svg PUBLIC "-//W3C//DTD SVG 1.1//EN" "http://www.w3.org/Graphics/SVG/1.1/DTD/svg11.dtd">
<svg version="1.1" id="Layer_1" xmlns="http://www.w3.org/2000/svg" xmlns:xlink="http://www.w3.org/1999/xlink" x="0px" y="0px"
	 viewBox="0 0 49 49" enable-background="new 0 0 49 49" xml:space="preserve">
<g>
	
		<rect x="32.8" y="34.6" transform="matrix(0.7071 -0.7071 0.7071 0.7071 -15.1157 36.4924)" fill="#40596B" width="7.5" height="3.8"/>
	<polygon fill="#CDD6E0" points="48.5,40.8 48.5,48.5 40.8,48.5 35.3,43.1 43.1,35.3 	"/>
	<path fill="#40596B" d="M43.3,33.7L43.3,33.7c-0.4-0.4-1-0.4-1.4,0L33.7,42c-0.4,0.4-0.4,1,0,1.4c0.4,0.4,1,0.4,1.4,0l8.3-8.3
		C43.7,34.7,43.7,34.1,43.3,33.7z"/>
	
		<ellipse transform="matrix(0.7071 -0.7071 0.7071 0.7071 -8.8477 21.3601)" fill="#40596B" cx="21.4" cy="21.4" rx="20.9" ry="20.9"/>
	<path fill="#FFFFFF" d="M33.1,33.1c-6.5,6.5-17,6.5-23.5,0c-6.5-6.5-6.5-17,0-23.5c6.5-6.5,17-6.5,23.5,0
		C39.6,16.1,39.6,26.6,33.1,33.1z"/>
	<g>
		<g>
			<path fill="#FF7058" d="M21.3,21.4L33.3,30c-2.9,3.9-7,6.1-11.9,6.1V21.4z"/>
		</g>
	</g>
	<g>
		<g>
			<path fill="#FFD15C" d="M21.3,21.4l14-4.6c1.5,4.6,0.8,9.3-2.1,13.2L21.3,21.4z"/>
		</g>
	</g>
	<g>
		<g>
			<path fill="#84DBFF" d="M21.3,21.4l4.6-14c4.6,1.5,7.9,4.8,9.5,9.5L21.3,21.4z"/>
		</g>
	</g>
	<g>
		<g>
			<path fill="#F2F2F2" d="M21.3,21.4v14.7c-8.1,0-14.7-6.6-14.7-14.7c0-8.1,6.6-14.7,14.7-14.7c1.6,0,3,0.2,4.6,0.7L21.3,21.4z"/>
		</g>
	</g>
</g>
</svg>
