<?xml version="1.0" encoding="utf-8"?>
<!-- Generator: Adobe Illustrator 18.0.0, SVG Export Plug-In . SVG Version: 6.00 Build 0)  -->
<!DOCTYPE svg PUBLIC "-//W3C//DTD SVG 1.1//EN" "http://www.w3.org/Graphics/SVG/1.1/DTD/svg11.dtd">
<svg version="1.1" id="Layer_1" xmlns="http://www.w3.org/2000/svg" xmlns:xlink="http://www.w3.org/1999/xlink" x="0px" y="0px"
	 viewBox="0 0 512 512" enable-background="new 0 0 512 512" xml:space="preserve">
<g>
	<path fill="#40596B" d="M313.1,190.7c0.5-4.8,0.8-9.7,0.8-14.7c0-5.3-0.3-10.5-0.9-15.6l28.1-19.6l-12-36.7l-34.3,0.8
		c-5.1-8.7-11-16.9-17.8-24.3l11.3-32.5l-31.3-22.7l-27.3,20.8c-9.1-4.1-18.7-7.3-28.8-9.4L191,4.1h-38.6l-9.9,32.7
		c-10.3,2.2-20.2,5.5-29.5,9.8L85.4,26L54.3,48.8l11.5,32.4c-6.7,7.5-12.6,15.6-17.7,24.4l-34.3-0.6L2,141.9l28.2,19.4
		c-0.5,4.8-0.8,9.7-0.8,14.7c0,5.3,0.3,10.5,0.9,15.6L2.2,211.2l12,36.7l34.3-0.8c5.1,8.7,11,16.9,17.8,24.3l-11.3,32.5l31.3,22.7
		l27.3-20.8c9.1,4.1,18.7,7.3,28.8,9.4l9.9,32.7H191l9.9-32.7c10.3-2.2,20.2-5.5,29.5-9.8l27.4,20.6l31.1-22.9l-11.5-32.4
		c6.7-7.5,12.6-15.6,17.7-24.4l34.3,0.6l11.8-36.8L313.1,190.7z M171.6,272.7c-53.4,0-96.7-43.3-96.7-96.7
		c0-53.4,43.3-96.7,96.7-96.7c53.4,0,96.7,43.3,96.7,96.7C268.4,229.4,225.1,272.7,171.6,272.7z"/>
	<circle fill="#FFD15C" cx="171.6" cy="176" r="53.6"/>
	<path fill="#40596B" d="M489.1,391.1c0.4-3.6,0.6-7.2,0.6-10.9c0-3.9-0.2-7.8-0.7-11.6l20.8-14.6l-8.9-27.3l-25.5,0.6
		c-3.8-6.5-8.2-12.5-13.2-18.1l8.4-24.1l-23.2-16.8L427,283.8c-6.8-3-13.9-5.4-21.4-7l-7.4-24.3h-28.7l-7.4,24.3
		c-7.7,1.6-15,4.1-21.9,7.3l-20.4-15.3l-23.1,17l8.5,24.1c-5,5.6-9.4,11.6-13.1,18.1l-25.5-0.4l-8.8,27.3l20.9,14.4
		c-0.4,3.6-0.6,7.2-0.6,10.9c0,3.9,0.2,7.8,0.7,11.6l-20.8,14.6l8.9,27.3l25.5-0.6c3.8,6.5,8.2,12.5,13.2,18.1l-8.4,24.1l23.2,16.8
		l20.3-15.4c6.8,3,13.9,5.4,21.4,7l7.4,24.3h28.7l7.4-24.3c7.7-1.6,15-4.1,21.9-7.3l20.4,15.3l23.1-17l-8.5-24.1
		c5-5.6,9.4-11.6,13.1-18.1l25.5,0.4l8.8-27.3L489.1,391.1z M384,452c-39.7,0-71.8-32.2-71.8-71.8c0-39.7,32.2-71.8,71.8-71.8
		s71.8,32.2,71.8,71.8C455.8,419.9,423.7,452,384,452z"/>
	<circle fill="#FF7058" cx="384" cy="380.2" r="39.8"/>
</g>
</svg>
