<?xml version="1.0" encoding="utf-8"?>
<!-- Generator: Adobe Illustrator 16.0.0, SVG Export Plug-In . SVG Version: 6.00 Build 0)  -->
<!DOCTYPE svg PUBLIC "-//W3C//DTD SVG 1.1//EN" "http://www.w3.org/Graphics/SVG/1.1/DTD/svg11.dtd">
<svg version="1.1" id="Layer_1" xmlns="http://www.w3.org/2000/svg" xmlns:xlink="http://www.w3.org/1999/xlink" x="0px" y="0px"
	 width="48px" height="48px" viewBox="0 0 48 48" enable-background="new 0 0 48 48" xml:space="preserve">
<g>
	<path fill="#F05540" d="M17.299,11.922H6.51c-1.465,0-2.653,1.188-2.653,2.652v9.906l-3.062,3.004C0.287,27.984,0,28.667,0,29.379
		v5.813h19.953V14.575C19.953,13.11,18.765,11.922,17.299,11.922"/>
	<rect x="7.002" y="15.167" fill="#FFFFFF" width="8.076" height="9.119"/>
	<path fill="#ADB3BA" d="M45.305,29.802H19.952v5.391h25.353c1.49,0,2.695-1.207,2.695-2.695S46.795,29.802,45.305,29.802"/>
	<path fill="#FFD15C" d="M43.969,6.969H23.279c-1.105,0-2,0.895-2,2v18.833c0,1.104,0.895,2,2,2h20.689c1.105,0,2-0.896,2-2V8.969
		C45.969,7.864,45.074,6.969,43.969,6.969"/>
	<rect x="30.848" y="6.969" fill="#F3705A" width="5.554" height="5.708"/>
	<path fill="#415A6B" d="M41.846,35.193c0,3.226-2.613,5.838-5.838,5.838s-5.839-2.612-5.839-5.838c0-3.225,2.614-5.838,5.839-5.838
		S41.846,31.968,41.846,35.193"/>
	<path fill="#CED6E0" d="M38.562,35.193c0,1.411-1.144,2.555-2.554,2.555c-1.412,0-2.555-1.144-2.555-2.555s1.143-2.554,2.555-2.554
		C37.418,32.639,38.562,33.782,38.562,35.193"/>
	<path fill="#415A6B" d="M15.44,35.193c0,3.226-2.614,5.838-5.838,5.838c-3.226,0-5.839-2.612-5.839-5.838
		c0-3.225,2.613-5.838,5.839-5.838C12.826,29.355,15.44,31.968,15.44,35.193"/>
	<path fill="#CED6E0" d="M12.156,35.193c0,1.411-1.145,2.555-2.555,2.555s-2.553-1.144-2.553-2.555s1.143-2.554,2.553-2.554
		S12.156,33.782,12.156,35.193"/>
</g>
</svg>
