<?xml version="1.0" encoding="utf-8"?>
<!-- Generator: Adobe Illustrator 18.0.0, SVG Export Plug-In . SVG Version: 6.00 Build 0)  -->
<!DOCTYPE svg PUBLIC "-//W3C//DTD SVG 1.1//EN" "http://www.w3.org/Graphics/SVG/1.1/DTD/svg11.dtd">
<svg version="1.1" id="Layer_1" xmlns="http://www.w3.org/2000/svg" xmlns:xlink="http://www.w3.org/1999/xlink" x="0px" y="0px"
	 viewBox="0 0 48 48" enable-background="new 0 0 48 48" xml:space="preserve">
<g>
	<g>
		<g>
			<circle fill="#F2F2F2" cx="33.5" cy="14.5" r="14.5"/>
			<circle fill="#E8EAEA" cx="33.5" cy="14.5" r="11"/>
			<g>
				<path fill="#F2F2F2" d="M33.1,22.1v-1.3c-1.7-0.2-3.2-0.8-4.5-2l1.3-1.6c1,0.9,2.1,1.4,3.2,1.6v-3.6c-1.4-0.3-2.4-0.8-3-1.3
					c-0.6-0.5-1-1.3-1-2.4c0-1.1,0.4-1.9,1.1-2.6c0.7-0.7,1.7-1,2.9-1.1V6.9h1.2v0.9c1.3,0.1,2.6,0.6,3.8,1.4l-1.2,1.7
					c-0.8-0.6-1.7-0.9-2.6-1.1v3.5h0.1c1.4,0.3,2.4,0.8,3.1,1.3c0.7,0.6,1,1.4,1,2.5c0,1.1-0.4,1.9-1.1,2.6c-0.8,0.7-1.8,1-3,1.1
					v1.3H33.1z M31.8,10.2c-0.3,0.3-0.5,0.6-0.5,1c0,0.4,0.1,0.7,0.4,1c0.2,0.2,0.7,0.5,1.4,0.7V9.8C32.6,9.8,32.1,10,31.8,10.2z
					 M35.7,18.3c0.3-0.3,0.5-0.6,0.5-1.1c0-0.4-0.1-0.8-0.4-1c-0.3-0.2-0.8-0.5-1.5-0.7v3.3C34.9,18.8,35.3,18.6,35.7,18.3z"/>
			</g>
		</g>
		<g>
			<circle fill="#FFD15C" cx="14.5" cy="33.5" r="14.5"/>
			<circle fill="#F8B64C" cx="14.5" cy="33.5" r="11"/>
			<g>
				<path fill="#FFD15C" d="M14.1,41.1v-1.3c-1.7-0.2-3.2-0.8-4.5-2l1.3-1.6c1,0.9,2.1,1.4,3.2,1.6v-3.6c-1.4-0.3-2.4-0.8-3-1.3
					c-0.6-0.5-1-1.3-1-2.4c0-1.1,0.4-1.9,1.1-2.6c0.7-0.7,1.7-1,2.9-1.1v-0.9h1.2v0.9c1.3,0.1,2.6,0.6,3.8,1.4l-1.2,1.7
					c-0.8-0.6-1.7-0.9-2.6-1.1v3.5h0.1c1.4,0.3,2.4,0.8,3.1,1.3c0.7,0.6,1,1.4,1,2.5c0,1.1-0.4,1.9-1.1,2.6c-0.8,0.7-1.8,1-3,1.1
					v1.3H14.1z M12.8,29.3c-0.3,0.3-0.5,0.6-0.5,1c0,0.4,0.1,0.7,0.4,1c0.2,0.2,0.7,0.5,1.4,0.7v-3.2C13.5,28.8,13.1,29,12.8,29.3z
					 M16.7,37.3c0.3-0.3,0.5-0.6,0.5-1.1c0-0.4-0.1-0.8-0.4-1c-0.3-0.2-0.8-0.5-1.5-0.7v3.3C15.9,37.8,16.3,37.6,16.7,37.3z"/>
			</g>
		</g>
	</g>
	<g>
		<g>
			<path fill="#40596B" d="M14.6,10.2v-3c-5.7,0-10.4,4.7-10.4,10.4H0C0,9.5,6.6,3,14.6,3V0l5.6,5.1L14.6,10.2z"/>
		</g>
		<g>
			<path fill="#40596B" d="M33.4,37.8l0,3c5.7,0,10.4-4.7,10.4-10.4H48C48,38.5,41.4,45,33.4,45v3l-5.6-5.1L33.4,37.8z"/>
		</g>
	</g>
</g>
</svg>
