<?xml version="1.0" encoding="utf-8"?>
<!-- Generator: Adobe Illustrator 18.0.0, SVG Export Plug-In . SVG Version: 6.00 Build 0)  -->
<!DOCTYPE svg PUBLIC "-//W3C//DTD SVG 1.1//EN" "http://www.w3.org/Graphics/SVG/1.1/DTD/svg11.dtd">
<svg version="1.1" id="Layer_1" xmlns="http://www.w3.org/2000/svg" xmlns:xlink="http://www.w3.org/1999/xlink" x="0px" y="0px"
	 viewBox="0 0 48 48" enable-background="new 0 0 48 48" xml:space="preserve">
<g>
	<g>
		<rect x="16.7" y="25" fill="#354B5E" width="31.3" height="23"/>
		<rect x="22.8" y="7" fill="#435B6C" width="19.1" height="18"/>
		<rect x="22.8" y="7" fill="#354B5E" width="19.1" height="2"/>
		<path fill="#FFD15D" d="M32.4,10c-2.4,0-4.4,2-4.4,4.4V22h8.8v-7.6C36.8,12,34.8,10,32.4,10z"/>
		<polygon fill="#F3705B" points="41.9,0 22.8,0 18.8,7 46,7 		"/>
		<g>
			<rect x="19.3" y="27.3" fill="#FFD15D" width="6.8" height="7.7"/>
		</g>
		<rect x="38.6" y="27.3" fill="#FFD15D" width="6.8" height="7.7"/>
		<polygon fill="#354B5E" points="45.4,30.6 42.5,30.6 42.5,27.3 41.5,27.3 41.5,30.6 38.6,30.6 38.6,31.6 41.5,31.6 41.5,35 
			42.5,35 42.5,31.6 45.4,31.6 		"/>
		<polygon fill="#354B5E" points="26.1,30.6 23.2,30.6 23.2,27.3 22.2,27.3 22.2,30.6 19.3,30.6 19.3,31.6 22.2,31.6 22.2,35 
			23.2,35 23.2,31.6 26.1,31.6 		"/>
		<path fill="#FFD15D" d="M32.4,34.1c-2.7,0-4.8,2.2-4.8,4.8V48h9.6v-9.1C37.2,36.2,35,34.1,32.4,34.1z"/>
		<rect x="2.6" y="10.8" fill="#435B6C" width="14.2" height="37.2"/>
		<rect x="2.6" y="10.8" fill="#354B5E" width="14.2" height="1.8"/>
		<circle fill="#354B5E" cx="34.8" cy="41.6" r="0.8"/>
		<path fill="#FFD15D" d="M9.7,16.4C7.6,16.4,6,18,6,20v7h7.3v-7C13.3,18,11.7,16.4,9.7,16.4z"/>
		<path fill="#FFD15D" d="M9.7,31.9c-2,0-3.6,1.6-3.6,3.6v7h7.3v-7C13.3,33.5,11.7,31.9,9.7,31.9z"/>
		<polygon fill="#F3705B" points="9.7,0 0,10.8 19.3,10.8 		"/>
		<path fill="#354B5E" d="M36.8,15.5h-3.9v-5.4c-0.2,0-0.3-0.1-0.5-0.1c-0.2,0-0.3,0-0.5,0.1v5.4H28v1h3.9V22h1v-5.5h3.9V15.5z"/>
		<path fill="#354B5E" d="M13.3,21.3h-3.1v-4.8c-0.2,0-0.3-0.1-0.5-0.1c-0.2,0-0.3,0-0.5,0.1v4.8H6v1h3.1v4.8h1v-4.8h3.1V21.3z"/>
		<path fill="#354B5E" d="M13.3,36.7h-3.1V32c-0.2,0-0.3-0.1-0.5-0.1c-0.2,0-0.3,0-0.5,0.1v4.8H6v1h3.1v4.8h1v-4.8h3.1V36.7z"/>
	</g>
</g>
</svg>
