<?xml version="1.0" encoding="utf-8"?>
<!-- Generator: Adobe Illustrator 18.0.0, SVG Export Plug-In . SVG Version: 6.00 Build 0)  -->
<!DOCTYPE svg PUBLIC "-//W3C//DTD SVG 1.1//EN" "http://www.w3.org/Graphics/SVG/1.1/DTD/svg11.dtd">
<svg version="1.1" id="Layer_1" xmlns="http://www.w3.org/2000/svg" xmlns:xlink="http://www.w3.org/1999/xlink" x="0px" y="0px"
	 viewBox="0 0 48 48" enable-background="new 0 0 48 48" xml:space="preserve">
<g>
	<g>
		<g>
			<g>
				<g>
					<path fill="#F3705A" d="M24,44.9c0,0-24-11.9-24-29.6C0,8.6,5.5,3.1,12.2,3.1c5.6,0,10.3,3.8,11.8,8.9
						c1.4-5.1,6.2-8.9,11.8-8.9C42.5,3.1,48,8.6,48,15.3C48,33,24,44.9,24,44.9z"/>
				</g>
				<g>
					<g>
						<g>
							<ellipse fill="#FFFFFF" cx="13.1" cy="18.6" rx="5.3" ry="6.2"/>
						</g>
						<g>
							<g>
								<ellipse fill="#344A5E" cx="13.2" cy="20.4" rx="2.9" ry="3.4"/>
							</g>
							<g>
								<g>
									<ellipse fill="#FFFFFF" cx="14.5" cy="19.4" rx="0.8" ry="1"/>
								</g>
								<g>
									<ellipse fill="#FFFFFF" cx="13" cy="21.1" rx="0.4" ry="0.5"/>
								</g>
							</g>
						</g>
					</g>
					<g>
						<g>
							<ellipse fill="#FFFFFF" cx="34.9" cy="18.6" rx="5.3" ry="6.2"/>
						</g>
						<g>
							<g>
								<ellipse fill="#344A5E" cx="34.6" cy="20.4" rx="2.9" ry="3.4"/>
							</g>
							<g>
								<g>
									<ellipse fill="#FFFFFF" cx="33.3" cy="19.4" rx="0.8" ry="1"/>
								</g>
								<g>
									<ellipse fill="#FFFFFF" cx="34.8" cy="21.1" rx="0.4" ry="0.5"/>
								</g>
							</g>
						</g>
					</g>
				</g>
			</g>
			<g>
				<g>
					<path fill="#344A5E" d="M32,30c-0.1,0.1-0.2,0.3-0.4,0.4c-0.2,0.2-0.4,0.4-0.7,0.7c-0.3,0.2-0.6,0.5-1,0.8
						c-0.4,0.2-0.8,0.5-1.2,0.8c-0.4,0.2-0.9,0.4-1.4,0.6c-0.3,0.1-0.5,0.2-0.8,0.2c-0.3,0.1-0.6,0.1-0.8,0.2
						c-0.3,0-0.6,0.1-0.9,0.1l-0.9,0l-0.9,0c-0.3,0-0.6-0.1-0.9-0.1c-0.3-0.1-0.6-0.1-0.8-0.2c-0.3-0.1-0.5-0.2-0.8-0.2
						c-0.5-0.2-1-0.4-1.4-0.6c-0.5-0.2-0.8-0.5-1.2-0.7c-0.4-0.3-0.7-0.5-1-0.8c-0.3-0.2-0.5-0.5-0.7-0.7c-0.2-0.2-0.3-0.4-0.4-0.5
						c0,0,0,0,0,0c0.1,0.1,0.2,0.3,0.3,0.6c0.1,0.2,0.3,0.5,0.5,0.8c0.2,0.3,0.5,0.6,0.8,1c0.3,0.3,0.7,0.7,1.2,1
						c0.4,0.3,1,0.6,1.5,0.8c0.6,0.2,1.2,0.4,1.8,0.6c0.3,0,0.6,0.1,0.9,0.1l1,0.1l1-0.1c0.3,0,0.6-0.1,0.9-0.1
						c0.6-0.1,1.2-0.3,1.8-0.6c0.6-0.2,1.1-0.5,1.5-0.8c0.5-0.3,0.8-0.6,1.2-1c0.3-0.3,0.6-0.6,0.9-1c0.2-0.3,0.4-0.6,0.5-0.8
						C31.9,30.3,32,30.1,32,30C32.1,30,32,30,32,30z"/>
				</g>
				<g>
					<g>
						<path fill="#344A5E" d="M30.9,28.6c0,0,0.2,0.2,0.5,0.4c0.3,0.3,0.7,0.5,1.1,0.8c0.4,0.2,0.8,0.5,1.2,0.6
							c0.3,0.1,0.6,0.2,0.6,0.2s-0.3,0.1-0.7,0c-0.4,0-0.9-0.1-1.4-0.4c-0.5-0.3-0.8-0.7-1-1.1C30.9,28.8,30.9,28.6,30.9,28.6z"/>
					</g>
					<g>
						<path fill="#344A5E" d="M17.1,28.6c0,0-0.1,0.3-0.3,0.6c-0.2,0.3-0.6,0.8-1,1.1c-0.5,0.3-1,0.4-1.4,0.4c-0.4,0-0.7,0-0.7,0
							s0.2-0.1,0.6-0.2c0.4-0.1,0.8-0.4,1.2-0.6c0.4-0.2,0.8-0.5,1.1-0.8C16.9,28.8,17.1,28.6,17.1,28.6z"/>
					</g>
				</g>
			</g>
		</g>
	</g>
	<g>
		<g>
			<path fill="#F3F3F3" d="M18.4,18.6c0,0.3,0,0.7-0.1,1c-0.4-2.9-2.6-5.2-5.2-5.2c-2.6,0-4.8,2.2-5.2,5.2c-0.1-0.3-0.1-0.7-0.1-1
				c0-3.4,2.4-6.2,5.3-6.2C16,12.5,18.4,15.2,18.4,18.6z"/>
		</g>
		<g>
			<path fill="#415A6B" d="M18.4,18.6c0,0.3,0,0.7-0.1,1c-0.4-2.9-2.6-5.2-5.2-5.2c-2.6,0-4.8,2.2-5.2,5.2c-0.1-0.3-0.1-0.7-0.1-1
				c0-3.4,2.4-6.2,5.3-6.2C16,12.5,18.4,15.2,18.4,18.6z"/>
		</g>
		<g>
			<path fill="#415A6B" d="M40.2,18.6c0,0.3,0,0.7-0.1,1c-0.4-2.9-2.6-5.2-5.2-5.2c-2.6,0-4.8,2.2-5.2,5.2c-0.1-0.3-0.1-0.7-0.1-1
				c0-3.4,2.4-6.2,5.3-6.2C37.8,12.5,40.2,15.2,40.2,18.6z"/>
		</g>
	</g>
</g>
</svg>
