<?xml version="1.0" encoding="utf-8"?>
<!-- Generator: Adobe Illustrator 18.0.0, SVG Export Plug-In . SVG Version: 6.00 Build 0)  -->
<!DOCTYPE svg PUBLIC "-//W3C//DTD SVG 1.1//EN" "http://www.w3.org/Graphics/SVG/1.1/DTD/svg11.dtd">
<svg version="1.1" id="Layer_1" xmlns="http://www.w3.org/2000/svg" xmlns:xlink="http://www.w3.org/1999/xlink" x="0px" y="0px"
	 viewBox="0 0 48 48" enable-background="new 0 0 48 48" xml:space="preserve">
<g>
	<g>
		<path fill="#CED6E0" d="M21.2,0h5.8c0,0,2,0,2.7,1.9s0.7,18.2-3.3,23.5s-2.9,3-2.9,3S10,2.6,21.2,0z"/>
	</g>
	<g>
		<g>
			<path fill="#F05540" d="M25.7,31.6c0,0,1.9,16.4-4.7,16.4c-6.7,0-12.9-1.4-12.7-2.9c3.4-10,5-18.5,2.4-26.6c0,0,1.2-7.4-1.8-12.5
				l7.5-3.1c0,0,1.9,17.3,1.9,17.5c0,0.2,6.7,8.7,6.7,8.7l0,0c0.4,0.5,0.7,1.1,0.7,1.7L25.7,31.6z"/>
		</g>
		<g>
			<path fill="#344A5E" d="M21.2,0c0,0-1.6,0.3-1.9,1.4c-0.4,1.1-2.5,14.3,5.4,26.6c0.7,1,1,2.2,1,3.4l0,0c0,0-0.2-2-1.3-2.6
				c-1.1-0.6-10.8-4.5-12.8-20.9l2.8,0.5c0,0-1.7-1.2-1.9-2.2C12.4,6.4,18.1-0.3,21.2,0z"/>
		</g>
	</g>
	<g>
		<g>
			<path fill="#F3705A" d="M22.3,31.6c0,0-1.9,16.4,4.7,16.4c6.7,0,12.9-1.4,12.7-2.9c-3.4-10-5-18.5-2.4-26.6c0,0-1.2-7.4,1.8-12.5
				l-7.5-3.1c0,0-1.9,17.3-1.9,17.5c0,0.2-6.7,8.7-6.7,8.7l0,0c-0.4,0.5-0.7,1.1-0.7,1.7L22.3,31.6z"/>
		</g>
		<g>
			<path fill="#415A6B" d="M26.8,0c0,0,1.6,0.3,1.9,1.4c0.4,1.1,2.5,14.3-5.4,26.6c-0.7,1-1,2.2-1,3.4l0,0c0,0,0.2-2,1.3-2.6
				c1.1-0.6,10.8-4.5,12.8-20.9l-2.8,0.5c0,0,1.7-1.2,1.9-2.2C35.6,6.4,29.9-0.3,26.8,0z"/>
		</g>
	</g>
	<g>
		<g>
			<circle fill="#344A5E" cx="24.2" cy="32.3" r="1"/>
		</g>
		<g>
			<circle fill="#344A5E" cx="24.2" cy="38.5" r="1"/>
		</g>
	</g>
</g>
</svg>
