<?xml version="1.0" encoding="utf-8"?>
<!-- Generator: Adobe Illustrator 18.0.0, SVG Export Plug-In . SVG Version: 6.00 Build 0)  -->
<!DOCTYPE svg PUBLIC "-//W3C//DTD SVG 1.1//EN" "http://www.w3.org/Graphics/SVG/1.1/DTD/svg11.dtd">
<svg version="1.1" id="Layer_1" xmlns="http://www.w3.org/2000/svg" xmlns:xlink="http://www.w3.org/1999/xlink" x="0px" y="0px"
	 viewBox="0 0 48 48" enable-background="new 0 0 48 48" xml:space="preserve">
<g>
	<g>
		<g>
			<path fill="#F3F3F3" d="M37,4H11C9.8,4,8.9,4.9,8.9,6v39.9c0,1.1,0.9,2.1,2.1,2.1h26c1.1,0,2.1-0.9,2.1-2.1V6
				C39.1,4.9,38.2,4,37,4z"/>
		</g>
		<g>
			<path fill="#F3705A" d="M39.1,17.6V6C39.1,4.9,38.2,4,37,4H11C9.8,4,8.9,4.9,8.9,6v11.6H39.1z"/>
		</g>
		<g>
			<polygon fill="#FFD15C" points="20,42.4 22.6,34.7 18.2,34.7 28,23.2 25.4,31 29.8,31 			"/>
		</g>
		<path fill="#415A6B" d="M28.2,0h-8.5c-0.6,0-1,0.5-1,1V4h10.6V1C29.3,0.5,28.8,0,28.2,0z"/>
	</g>
</g>
</svg>
