<?xml version="1.0" encoding="utf-8"?>
<!-- Generator: Adobe Illustrator 18.0.0, SVG Export Plug-In . SVG Version: 6.00 Build 0)  -->
<!DOCTYPE svg PUBLIC "-//W3C//DTD SVG 1.1//EN" "http://www.w3.org/Graphics/SVG/1.1/DTD/svg11.dtd">
<svg version="1.1" id="Layer_1" xmlns="http://www.w3.org/2000/svg" xmlns:xlink="http://www.w3.org/1999/xlink" x="0px" y="0px"
	 viewBox="0 0 48 48" enable-background="new 0 0 48 48" xml:space="preserve">
<g>
	<g>
		<circle fill="#FFD15C" cx="36" cy="42.7" r="5.1"/>
		<circle fill="#F8B64C" cx="36" cy="42.7" r="4.2"/>
		<path fill="#FFD15C" d="M35.8,44.9c-0.7-0.1-1.2-0.3-1.5-0.7l0.5-0.7c0.2,0.3,0.6,0.5,1,0.6v-1c-0.7-0.2-1.4-0.4-1.4-1.3
			c0-0.6,0.5-1.2,1.4-1.3v-0.6h0.6v0.6c0.5,0.1,1,0.3,1.3,0.6l-0.5,0.7c-0.2-0.2-0.5-0.3-0.8-0.4v0.9c0.7,0.2,1.4,0.4,1.4,1.3
			c0,0.7-0.5,1.3-1.4,1.4v0.6h-0.6V44.9z M35.8,42.1v-0.8c-0.3,0-0.4,0.2-0.4,0.4C35.3,41.9,35.5,42,35.8,42.1z M36.4,43.3v0.9
			c0.3-0.1,0.5-0.3,0.5-0.5C36.8,43.5,36.6,43.3,36.4,43.3z"/>
	</g>
	<path fill="#FF7058" d="M45.1,33.4C45.1,33.4,45.1,33.4,45.1,33.4C45.1,33.5,45.1,33.5,45.1,33.4c0.1,0.7,0.4,4.2-0.1,6
		c0,0,0,0,0,0.1c0,0.4,0.1,2.4-0.6,3.4c0,0,0,0,0,0c-0.2,0.3-0.6,0.5-1,0.4c-0.7-0.1-1.8-0.4-2.2-1.9c0,0-2.2-6.8-1.8-10.1
		c0,0-4.4-5-6.9-9.2c0,0-2.4-1.7-3.5,3.7c0,0-0.8,3.6,1.1,7.4c1.9,3.8,0.9,8,0.9,8s-0.5,3.8-3.3,3.6l0,0c-0.6,0-1.1-0.5-1.2-1
		c-0.1-0.5-0.2-1.1-0.1-2c0,0,0-0.7-0.2-1.9c-0.4-1.7-1.3-4.3-3.6-6.9c0,0-3.2-4.7-4.4-5.3c0,0-3.6-3.7-4.3-6.6c0,0-0.5-1.1-0.9-1.9
		c-0.1-0.2-0.2-0.3-0.2-0.5c-0.1-0.1-0.1-0.2-0.1-0.2l-0.4-0.4l8-11.6L20.8,7l0.4,0.3l5.2,3.5l11.2,1.4c0,0,2.9-0.3,3.4,2.6
		c0.5,2.9,2.8,7.1,2.8,7.1s2,2.6,1.9,6.8c0,0,0.2,0.4-0.1,2.3C45.4,31.6,45.3,32.4,45.1,33.4z"/>
	<rect x="6.6" y="0.7" transform="matrix(0.8223 0.569 -0.569 0.8223 7.1345 -4.1599)" fill="#507596" width="7.3" height="17.3"/>
	<path fill="#F1543F" d="M45.1,33.4c0-0.2-0.1-0.5-0.1-0.7c-0.1-0.8-0.2-1.7-0.3-2.5l-0.1-1.3l-0.1-0.6l0-0.5L43,24.6
		c-0.5-1.1-0.9-2.2-1.3-3.3l-1-2.5l-0.5-1.3L40,16.8l-0.1-0.3c0-0.1-0.1-0.2,0-0.4c0,0,0,0,0,0c0,0,0,0,0,0l0.5,0.6l0.2,0.6l0.5,1.3
		l1.1,2.5l0,0l0,0c0.2,0.5,0.4,1.1,0.6,1.6l0.3,0.8l0.4,0.8l1.6,3.1l0,0l0,0c0,0.2,0,0.4,0.1,0.6l0.1,0.6l0.2,1.3l0.1,0.8
		C45.4,31.6,45.3,32.4,45.1,33.4C45.1,33.4,45.1,33.4,45.1,33.4z"/>
	<path fill="#F2F2F2" d="M26.6,40.8c0.1,0.6,0.1,0.9,0.1,1v0l0,0c-0.1,1,0,1.6,0.1,2c0,0,0,0.1,0.1,0.1c0.2,0.1,0.9,0.1,1.1,0
		c0.3-0.2,0.4-0.7,0.5-1.1c0.2-0.8,0.1-1.6-0.3-2.1H26.6z"/>
	<path fill="#F2F2F2" d="M44.3,42.6c-0.3-0.5-0.4-1.1-0.3-1.7c0.1-0.5,0.4-0.9,0.8-1.2C44.8,40.3,44.7,41.7,44.3,42.6z"/>
	<path fill="#F1543F" d="M21.2,7.2l-8.3,11.9c-0.1-0.2-0.2-0.3-0.2-0.5c-0.1-0.1-0.1-0.2-0.1-0.2l-0.4-0.4l8-11.6L20.8,7L21.2,7.2z"
		/>
	<rect x="6.6" y="0.7" transform="matrix(0.8223 0.569 -0.569 0.8223 7.1345 -4.1599)" fill="#40596B" width="7.3" height="17.3"/>
	<rect x="12.9" y="4.1" transform="matrix(0.8223 0.569 -0.569 0.8223 9.6157 -6.0588)" fill="#F2F2F2" width="3.3" height="16.5"/>
	<circle fill="#F2F2F2" cx="7.3" cy="13.6" r="1.8"/>
</g>
</svg>
