<?xml version="1.0" encoding="utf-8"?>
<!-- Generator: Adobe Illustrator 18.0.0, SVG Export Plug-In . SVG Version: 6.00 Build 0)  -->
<!DOCTYPE svg PUBLIC "-//W3C//DTD SVG 1.1//EN" "http://www.w3.org/Graphics/SVG/1.1/DTD/svg11.dtd">
<svg version="1.1" id="Layer_1" xmlns="http://www.w3.org/2000/svg" xmlns:xlink="http://www.w3.org/1999/xlink" x="0px" y="0px"
	 viewBox="0 0 48 48" enable-background="new 0 0 48 48" xml:space="preserve">
<g>
	<polygon fill="#E8EAE9" points="24,6.6 4.6,19.1 4.6,48 43.4,48 43.4,19.1 	"/>
	<g>
		<g>
			<rect x="31.7" y="23.6" fill="#F3705A" width="4" height="18.5"/>
		</g>
		<g>
			<rect x="18.8" y="31.9" fill="#FFD15C" width="4" height="10.2"/>
		</g>
		<g>
			<rect x="25.2" y="27.8" fill="#4EC0AA" width="4" height="14.3"/>
		</g>
		<g>
			<rect x="12.3" y="36.1" fill="#F3705A" width="4" height="6"/>
		</g>
	</g>
	<g>
		<path fill="#F3705A" d="M43.4,19.1L24,6.6L4.6,19.1c-1.4,0.9-3.2,0.5-4.1-0.9l0,0c-0.9-1.4-0.5-3.2,0.9-4.1L22.4,0.5
			c1-0.6,2.3-0.6,3.3,0l21.1,13.6c1.4,0.9,1.8,2.8,0.9,4.1v0C46.7,19.6,44.8,20,43.4,19.1z"/>
	</g>
	<polygon fill="#CED6E0" points="24,6.6 4.6,19.1 4.6,22.1 24,9.5 43.4,22.1 43.4,19.1 	"/>
</g>
</svg>
