<?xml version="1.0" encoding="utf-8"?>
<!-- Generator: Adobe Illustrator 18.0.0, SVG Export Plug-In . SVG Version: 6.00 Build 0)  -->
<!DOCTYPE svg PUBLIC "-//W3C//DTD SVG 1.1//EN" "http://www.w3.org/Graphics/SVG/1.1/DTD/svg11.dtd">
<svg version="1.1" id="Layer_1" xmlns="http://www.w3.org/2000/svg" xmlns:xlink="http://www.w3.org/1999/xlink" x="0px" y="0px"
	 viewBox="0 0 48 48" enable-background="new 0 0 48 48" xml:space="preserve">
<g>
	<g>
		<g>
			<path fill="#F7B64C" d="M43.8,27.1V16c0-1.6-1.3-3-3-3H19.1l-1.7-3.7c-0.5-1-1.5-1.7-2.7-1.7H7.1c-1.6,0-3,1.3-3,3v16.5H43.8z"/>
		</g>
		<g>
			<path fill="#F3705A" d="M18.2,29.4c0,0-10.2-1-12.6-7.4c-0.9-2.4,0.3-5.1,2.7-6c2-0.8,4.2,0,5.4,1.6c-0.2-2,1-4,3-4.8
				c2.4-0.9,5.1,0.3,6,2.7C25.2,21.9,18.2,29.4,18.2,29.4z"/>
		</g>
		<g>
			<path fill="#F3705A" d="M35.3,22.8c0,0-4.4-0.4-5.4-3.2c-0.4-1,0.1-2.2,1.2-2.6c0.9-0.3,1.8,0,2.3,0.7c-0.1-0.9,0.4-1.7,1.3-2.1
				c1-0.4,2.2,0.1,2.6,1.2C38.3,19.6,35.3,22.8,35.3,22.8z"/>
		</g>
		<path fill="#FFD15C" d="M0.1,26.3l3.6,19.3C4,47,5.2,48,6.6,48h34.8c1.4,0,2.6-1,2.9-2.4l3.6-19.3c0.3-1.8-1.1-3.5-2.9-3.5H3
			C1.1,22.8-0.3,24.5,0.1,26.3z"/>
		<g>
			<path fill="#F3705A" d="M33,14.2c0,0-6.5-5.8-4.9-11.3c0.6-2.1,2.8-3.3,4.9-2.8c1.8,0.5,2.9,2.1,2.9,3.8c0.9-1.5,2.7-2.2,4.4-1.8
				C42.3,2.7,43.6,4.9,43,7C41.5,12.5,33,14.2,33,14.2z"/>
		</g>
		<g>
			<path fill="#FFFFFF" d="M8.7,39.6l-1.3-8.4h2l0.9,6.8H14l0.2,1.6H8.7z"/>
			<path fill="#FFFFFF" d="M22.3,38.6c-0.8,0.8-1.9,1.2-3.1,1.2s-2.3-0.4-3.2-1.2c-0.9-0.8-1.5-1.8-1.6-3c-0.1-1.2,0.2-2.3,1.1-3.2
				c0.8-0.9,1.9-1.3,3.3-1.3c1.4,0,2.5,0.4,3.4,1.3c0.9,0.9,1.4,1.9,1.4,3.2C23.6,36.8,23.2,37.8,22.3,38.6z M21.6,35.6
				c0-0.8-0.3-1.4-0.8-1.9c-0.5-0.5-1.2-0.8-1.9-0.8s-1.4,0.3-1.8,0.8c-0.5,0.5-0.7,1.2-0.6,1.9c0.1,0.7,0.3,1.4,0.9,1.9
				c0.5,0.5,1.1,0.8,1.8,0.8c0.7,0,1.3-0.2,1.8-0.8C21.4,36.9,21.6,36.3,21.6,35.6z"/>
			<path fill="#FFFFFF" d="M28.2,36.8l2.5-5.5H33l-4.1,8.4h-1.6l-3.4-8.4h2.2L28.2,36.8z"/>
			<path fill="#FFFFFF" d="M40.6,31.3L40.4,33h-4.5l-0.2,1.8h3.9l-0.2,1.6h-3.9l-0.2,1.7h4.4l-0.2,1.5h-6.2l0.8-8.4H40.6z"/>
		</g>
	</g>
</g>
</svg>
