<?xml version="1.0" encoding="utf-8"?>
<!-- Generator: Adobe Illustrator 16.0.0, SVG Export Plug-In . SVG Version: 6.00 Build 0)  -->
<!DOCTYPE svg PUBLIC "-//W3C//DTD SVG 1.1//EN" "http://www.w3.org/Graphics/SVG/1.1/DTD/svg11.dtd">
<svg version="1.1" id="Layer_1" xmlns="http://www.w3.org/2000/svg" xmlns:xlink="http://www.w3.org/1999/xlink" x="0px" y="0px"
	 width="48px" height="48px" viewBox="0 0 48 48" enable-background="new 0 0 48 48" xml:space="preserve">
<g>
	<rect x="2.016" y="44.693" fill="#ACB3BA" width="43.97" height="3.251"/>
	<rect x="7.502" y="5.533" fill="#FFD15C" width="6.069" height="8.664"/>
	<rect x="6.158" y="1.833" fill="#F8B64C" width="8.757" height="3.7"/>
	<rect x="5.667" y="22.835" fill="#FFD15C" width="36.67" height="25.109"/>
	<path fill="#FF7058" d="M22.616,0.562L0.763,19.056c-1.524,1.289-0.612,3.777,1.383,3.777h43.707c1.996,0,2.908-2.488,1.384-3.777
		L25.384,0.562C24.584-0.114,23.415-0.114,22.616,0.562"/>
	<path fill="#40596B" d="M30.276,47.944H17.727V34.574c0-3.466,2.809-6.274,6.273-6.274c3.466,0,6.275,2.809,6.275,6.274V47.944z"/>
	<rect x="5.667" y="22.835" fill="#F8B64C" width="36.67" height="1.5"/>
	<path fill="#F2F2F2" d="M26.994,8.229c0,1.653-1.34,2.994-2.994,2.994c-1.653,0-2.993-1.341-2.993-2.994S22.346,5.235,24,5.235
		C25.654,5.235,26.994,6.576,26.994,8.229"/>
	<path fill="#E1E3E5" d="M21.504,8.539c0-1.55,1.256-2.806,2.806-2.806c1.13,0,2.098,0.672,2.543,1.634
		C26.481,6.137,25.352,5.236,24,5.236c-1.654,0-2.994,1.34-2.994,2.993c0,1.352,0.901,2.48,2.131,2.853
		C22.176,10.637,21.504,9.668,21.504,8.539"/>
	<path fill="#ACB3BA" d="M19.954,40.013c0,0.295-0.239,0.534-0.534,0.534c-0.296,0-0.534-0.239-0.534-0.534s0.238-0.533,0.534-0.533
		C19.714,39.48,19.954,39.718,19.954,40.013"/>
</g>
</svg>
