<?xml version="1.0" encoding="utf-8"?>
<!-- Generator: Adobe Illustrator 18.0.0, SVG Export Plug-In . SVG Version: 6.00 Build 0)  -->
<!DOCTYPE svg PUBLIC "-//W3C//DTD SVG 1.1//EN" "http://www.w3.org/Graphics/SVG/1.1/DTD/svg11.dtd">
<svg version="1.1" id="Layer_1" xmlns="http://www.w3.org/2000/svg" xmlns:xlink="http://www.w3.org/1999/xlink" x="0px" y="0px"
	 viewBox="0 0 48 48" enable-background="new 0 0 48 48" xml:space="preserve">
<g>
	<g>
		<g>
			<g>
				<path fill="#415A6B" d="M30.1,1.5L31,3.2c-3.7,2-5.6,5.4-6,10.2l-2,0C23.4,8,25.7,4,30.1,1.5z"/>
			</g>
		</g>
		<g>
			<g>
				<path fill="#66C6B9" d="M23.5,9.7c-9.3-2.1-9.2-8.4-9.9-9.2C13.1-0.3,26.3-1.4,23.5,9.7z"/>
			</g>
			<g>
				<path fill="#415A6B" d="M24.3,10.5C24.4,10.5,24.4,10.4,24.3,10.5c-1.5-3.7-4.1-6.8-7.7-8.8c3.8,2.6,6,6.4,7,10.5
					C23.8,11.6,24.1,11,24.3,10.5z"/>
			</g>
		</g>
		<g>
			<g>
				<ellipse fill="#F05540" cx="20.2" cy="29.7" rx="14.9" ry="18.3"/>
			</g>
			<g>
				<ellipse fill="#F3705A" cx="27.8" cy="29.7" rx="14.9" ry="18.3"/>
			</g>
		</g>
		<g>
			
				<ellipse transform="matrix(0.9076 -0.4198 0.4198 0.9076 -5.9915 16.9536)" fill="#FFFFFF" cx="35.5" cy="22.1" rx="2.1" ry="4"/>
		</g>
	</g>
</g>
</svg>
