<?xml version="1.0" encoding="utf-8"?>
<!-- Generator: Adobe Illustrator 19.0.1, SVG Export Plug-In . SVG Version: 6.00 Build 0)  -->
<svg version="1.1" id="Layer_1" xmlns="http://www.w3.org/2000/svg" xmlns:xlink="http://www.w3.org/1999/xlink" x="0px" y="0px"
	 viewBox="0 0 48 48" style="enable-background:new 0 0 48 48;" xml:space="preserve">
<style type="text/css">
	.st0{fill:#66C6B9;}
	.st1{fill:#F3F3F3;}
	.st2{fill:#415A6B;}
	.st3{fill:#CED6E0;}
	.st4{fill:#F3705A;}
	.st5{fill:#E8EAE9;}
	.st6{fill:#4ABAA5;}
	.st7{fill:#F05540;}
	.st8{fill:#FFD15C;}
	.st9{fill:#55C0EB;}
	.st10{fill:#8AD7F8;}
	.st11{fill:#344A5E;}
	.st12{fill:#FFFFFF;}
	.st13{fill:#F7B64C;}
	.st14{fill:#ADB3BA;}
	.st15{fill:#38A892;}
	.st16{fill:#ED9845;}
	.st17{fill:#2D4251;}
	.st18{fill:#304556;}
	.st19{fill:#A5AAAD;}
	.st20{fill:#2D4456;}
	.st21{fill:#4FB0E0;}
	.st22{fill:#2D4354;}
	.st23{fill:#E54C38;}
	.st24{fill:#2B4456;}
	.st25{fill:#2B404F;}
</style>
<g>
	<g>
		<g>
			<path class="st8" d="M20.8,23.8l0.9,0.7c0,0,1.2,2.4,1.1,3.3s-0.2,0.9,0,1.5c0.2,0.6,0.8,1.6,0.8,1.6s0.3,0.6-0.3,0.9
				s-0.7,0.2-0.7,0.2s0.4,1.2,0,1.2c0,0,0.4,0.5,0,0.7c-0.4,0.2-0.4,1.3-0.4,1.7s-0.5,1.1-1.7,0.8c-1.2-0.3-2-0.6-2-0.6l-1.2,1.5
				L15,40.5l-4.6-6.7c0,0,0.3-0.7,0.6-0.9l0-0.4l0.3-0.7c0,0,0.1-7,2.2-8.2S20.8,23.8,20.8,23.8z"/>
		</g>
		<g>
			<polygon class="st14" points="14.1,48 12.2,40.9 17.6,39.7 19.4,45.3 19.2,48 			"/>
		</g>
		<g>
			<g>
				<path class="st11" d="M17.7,48c-0.4-2-0.9-4.5-1-5.4c-0.1-1.2,0.1-4.9,0.1-4.9l0.5-0.4c2.4,1.6,2.6,5.5,2.8,6.2
					c0.1,0.7,1,2,1.4,2.8c0.2,0.4,0.7,1.1,1.2,1.7H17.7z"/>
			</g>
			<g>
				<polygon class="st3" points="16.8,37.7 15.5,39 16,41.9 17.6,39.7 				"/>
			</g>
		</g>
		<g>
			<path class="st5" d="M11,32.9c0,0-0.4,0.3-0.2,0.7c0.2,0.5,6.2,6.6,6.2,6.6l-3.5,3.1L9.6,35c-0.1-0.3-0.1-0.6,0.1-0.8
				C10,33.7,10.5,33.1,11,32.9z"/>
		</g>
		<g>
			<g>
				<path class="st2" d="M13.3,39.9c0.4,1.2,1.6,5.6,2.3,8.1H0l0,0c0,0,0.5-5.5,2.7-8.2c2.2-2.7,5.8-4.8,5.8-4.8s1.7-1.9,2.1-1.8
					c0,0-0.4,0.3-0.2,0.8C10.6,34.4,12.8,38.3,13.3,39.9z"/>
			</g>
		</g>
		<g>
			<path class="st2" d="M21.6,24.5C21.6,24.5,21.6,24.5,21.6,24.5c-0.1,0-1.8-0.3-2.6-0.6c-0.8-0.3-1,0.2-0.8,0.9
				c0.2,0.5,0,1.8-0.5,2.8c-0.5,1-0.9,3.1-0.9,3.1l-0.7-0.2c0,0,0.4-1.9-0.8-2.6s-1.9,1-2,2.2s-0.7,2.5-2.3,2.4c0,0-0.3-1.6-0.8-2.9
				c-0.5-1.3-1.6-3.9-0.2-6.5s4.9-3,6.5-2.9c1.3,0.1,3.3,0.6,5.3,2C22.7,22.9,22.5,24.1,21.6,24.5z"/>
		</g>
		<g>
			<path class="st8" d="M34.7,35.6c0,0-1-0.3-1.5-0.3c-0.4,0-1.1-0.7-1.2-1.3c-0.1-0.7-0.7-0.6-0.4-1c0,0-0.2-0.1-0.2-0.5
				c0-0.4-0.1-0.9-0.1-0.9s-0.9,0-1.1-0.2c-0.2-0.2-0.1-0.7,0-1.2s0.5-1.3,0.4-1.8c-0.2-0.5-0.6-0.6-0.6-0.9c0-0.2,0.1-3,0.5-3.9
				c0.4-0.9,2.2-1.5,2.2-1.5l2.7,0l5,4l1.2,5c0,0,0.1,1.4,0.3,1.8s0.2,0.4,0.2,0.4l-6.6,2.4L34.7,35.6z"/>
		</g>
		<g>
			<path class="st11" d="M41.6,31c0,0-1.4-0.3-2-2.6s-1.4-2.7-2.1-2.5c-0.7,0.2-1.3,1.5-1.1,2.2l-0.7,0c0,0,0-1.6-0.7-2.2
				c-0.7-0.6-1.4-0.4-1.6-1.2C33.2,24,33,23.4,32,23.5c-1.1,0-1.9,1.2-1.9,1.8c0,0-1-0.5-1.1-1.6c-0.1-1.1,2.3-2.8,3-3.3
				c0.7-0.5,2.7-1.8,5-1.4c2.4,0.4,3.4,1.6,4,2.6s1,3.6,0.9,4.5C41.7,26.9,41.4,30,41.6,31z"/>
		</g>
		<g>
			<path class="st5" d="M42.2,33.4l-0.1-0.9c0-0.2-0.2-0.3-0.4-0.2c-0.5,0.1-1.7,0.4-2.8,1c-1.3,0.7-3.9,2.3-4.6,2.7
				c-0.1,0.1-0.1,0.2-0.1,0.3l0.1,0.1l-0.5,0.5c-0.1,0.1-0.1,0.2-0.1,0.3c0.1,0.5,0.5,1.8,0.4,2c-0.2,0.2,0.2,2.1,0.2,2.1l1.8-1.6
				L42.2,33.4z"/>
		</g>
		<g>
			<path class="st11" d="M30.2,48c1.3-3.3,2.6-6.6,3.3-7.4c1.2-1.4,4.3-4.4,6-5.8c1.7-1.4,2.9-1.7,2.9-1.7c0.7,1,0.7,2,0.7,2
				s2.7,1.4,3.6,2.6s1.4,3.1,1.3,6.8c0,1.1-0.4,2.3-0.8,3.5H30.2z"/>
		</g>
		<g>
			<path class="st2" d="M36.1,48c0.2-0.5,0.4-1.1,0.6-1.6c0.6-1.7,1.9-4.4,2.8-6.2c1.6-3.1,6-3.1,7.6,0c0,0,0,0.1,0.1,0.1
				c1,2.3-0.1,5.5-1.2,7.6H36.1z"/>
		</g>
		<g>
			<g>
				<path class="st4" d="M39.6,8.6c0,4.6-4.6,8.4-10.3,8.6l-5.8,4.2v-5.3c-3.3-1.5-5.4-4.3-5.4-7.5c0-4.8,4.8-8.6,10.8-8.6
					C34.8,0,39.6,3.9,39.6,8.6z"/>
			</g>
			<g>
				<circle class="st12" cx="22.9" cy="8.6" r="2"/>
				<circle class="st12" cx="28.9" cy="8.6" r="2"/>
				<circle class="st12" cx="34.8" cy="8.6" r="2"/>
			</g>
		</g>
	</g>
</g>
</svg>
