<?xml version="1.0" encoding="utf-8"?>
<!-- Generator: Adobe Illustrator 18.0.0, SVG Export Plug-In . SVG Version: 6.00 Build 0)  -->
<!DOCTYPE svg PUBLIC "-//W3C//DTD SVG 1.1//EN" "http://www.w3.org/Graphics/SVG/1.1/DTD/svg11.dtd">
<svg version="1.1" id="Layer_1" xmlns="http://www.w3.org/2000/svg" xmlns:xlink="http://www.w3.org/1999/xlink" x="0px" y="0px"
	 viewBox="0 0 48 48" enable-background="new 0 0 48 48" xml:space="preserve">
<g>
	<g>
		<g>
			<path fill="#FFD15C" d="M24.3,9.8c-3.9,0-3.9,6.1,0,6.1C28.2,15.8,28.3,9.8,24.3,9.8z"/>
			<path fill="#FFD15C" d="M13.8,9.5c-3.9,0-3.9,6.1,0,6.1C17.7,15.6,17.7,9.5,13.8,9.5z"/>
			<g>
				<g>
					<path fill="#344A5E" d="M38,39.2l-1.1-6.5c-0.5-2.8-2.5-5-5.2-5.7l-5.4-1.3L19,28.8l-7.2-3.1L6.3,27c-2.7,0.7-4.8,2.9-5.2,5.7
						L0,39.2H38z"/>
				</g>
				<g>
					<g>
						<g>
							<path fill="#E8EAE9" d="M15.6,39.2h6.7l1.6-9.8c0,0,0.1-1.4,0.2-2.9L19,28.8l-5.2-2.2c0.1,1.4,0.2,2.9,0.2,2.9L15.6,39.2z"/>
						</g>
						<g>
							<path fill="#F3705A" d="M16.5,39.2h5L20.6,33l1.3-1.3c0,0-1.9-2.9-2.9-2.9c-1,0-2.9,2.9-2.9,2.9l1.3,1.3L16.5,39.2z"/>
						</g>
						<g>
							<g>
								<path fill="#F3F3F3" d="M14.2,22.4c1,2.7,2.7,4.7,4.8,6.4c-1.5,1.1-2.7,2.3-3.5,3.5l-2.6-8C13.4,23.5,14,22.5,14.2,22.4z"/>
							</g>
						</g>
					</g>
					<g>
						<path fill="#F3F3F3" d="M23.8,22.4c-1,2.7-2.7,4.7-4.8,6.4c1.5,1.1,2.7,2.3,3.5,3.5l2.6-8C24.6,23.5,24,22.5,23.8,22.4z"/>
					</g>
				</g>
			</g>
			<g>
				<path fill="#F7B64C" d="M14.2,17.1v5.4c1,2.7,2.7,4.7,4.8,6.4c2.1-1.7,3.8-3.7,4.8-6.4v-5.4H14.2z"/>
			</g>
			<ellipse fill="#FFD15C" cx="19" cy="15" rx="7" ry="9.7"/>
			<g>
				<g>
					<g>
						<path fill="#FFD15C" d="M27.1,16.8c-0.3,1.3-1.2,2.3-2,2c-0.8-0.2-1.2-1.5-0.9-2.8c0.3-1.3,1.2-2.1,2-1.9
							C27,14.3,27.4,15.5,27.1,16.8z"/>
					</g>
					<g>
						<path fill="#FFD15C" d="M10.8,16.8c0.3,1.3,1.2,2.3,2,2c0.8-0.2,1.2-1.5,0.9-2.8c-0.3-1.3-1.2-2.1-2-1.9
							C11,14.3,10.6,15.5,10.8,16.8z"/>
					</g>
				</g>
			</g>
			<g>
				<path fill="#415A6B" d="M25.7,17.4c4.9-9.7,2.3-16.5-3.3-16.1C18.2-1.4,13,0.2,11,5.3c-0.8,2.1-1,4.4-0.6,6.6
					c0.5,3.1,1.9,5.5,1.9,5.5c-0.8-4.2-0.1-6.6-0.1-6.6c3.2-0.5,6-2.3,7.9-4.6l5.9,6.4C26,14.8,25.7,17.4,25.7,17.4z"/>
			</g>
			<g>
				<g>
					<polygon fill="#415A6B" points="25.5,39.2 28.4,33.3 26.3,30.9 29.2,28 24,22.7 21.2,39.2 					"/>
				</g>
				<g>
					<polygon fill="#415A6B" points="9.6,33.3 12.5,39.2 16.8,39.2 13.9,22.7 9,28.5 11.7,30.9 					"/>
				</g>
			</g>
		</g>
		<g>
			<g>
				<g>
					<path fill="#FFD15C" d="M41.5,48c3.5,0,6.4-2.7,6.5-6.2c0,0,0,0,0-0.1c0-5.9-4.8-14.5-10.6-14.5s-10.6,8.7-10.6,14.5
						c0,0,0,0,0,0.1c0,3.5,3,6.2,6.5,6.2H41.5z"/>
				</g>
			</g>
			<g>
				<g>
					<path fill="#F7B64C" d="M36.8,44.1v-1c-1.2-0.2-2.3-0.7-3.3-1.6l1.3-1.6c0.7,0.6,1.4,1.1,2,1.2v-2.1c-1-0.3-1.7-0.6-2.2-1
						c-0.5-0.4-0.7-1.1-0.7-1.9c0-0.8,0.3-1.5,0.8-2c0.5-0.5,1.2-0.8,2.1-0.9v-0.7h1.5v0.7c1,0.1,1.9,0.5,2.8,1.2L40,35.9
						c-0.6-0.4-1.2-0.7-1.7-0.9v2.1c1,0.3,1.8,0.6,2.3,1.1c0.5,0.4,0.7,1.1,0.7,1.9c0,0.8-0.3,1.5-0.8,2c-0.5,0.5-1.3,0.9-2.2,1v1
						H36.8z M36.8,35c-0.4,0.1-0.6,0.4-0.6,0.8c0,0.4,0.2,0.7,0.6,0.9V35z M39,40.2c0-0.2-0.1-0.4-0.2-0.5c-0.1-0.1-0.3-0.3-0.6-0.4
						v1.8C38.8,40.9,39,40.6,39,40.2z"/>
				</g>
			</g>
			<g>
				<g>
					<path fill="#FFD15C" d="M39.9,28.4c-1.7,0-3.4,0-5.1,0c-0.1-2.1-2.4-5.1-3.7-7.1c3.8-2.2,8.7-2.2,12.5,0
						C42.3,23.4,40,26.3,39.9,28.4z"/>
				</g>
			</g>
			<g>
				<g>
					<path fill="#415A6B" d="M34.5,27.9c-0.3,0-0.5-0.2-0.6-0.4c-0.1-0.3,0.1-0.6,0.4-0.7c2.1-0.6,4.1-0.6,6.2,0
						c0.3,0.1,0.5,0.4,0.4,0.7c-0.1,0.3-0.4,0.5-0.7,0.4c-1.8-0.5-3.7-0.5-5.5,0C34.6,27.9,34.5,27.9,34.5,27.9z"/>
				</g>
			</g>
			<g>
				<g>
					<path fill="#415A6B" d="M37.3,30.4c-0.3,0-0.6-0.3-0.6-0.6v-2.9c0-0.3,0.3-0.6,0.6-0.6c0.3,0,0.6,0.3,0.6,0.6v2.9
						C37.9,30.2,37.6,30.4,37.3,30.4z"/>
				</g>
			</g>
			<g>
				<g>
					<path fill="#415A6B" d="M40.6,31.5c-0.1,0-0.2,0-0.3-0.1c-1.2-0.6-3.2-3.1-2.7-4.5c0.1-0.3,0.4-0.5,0.7-0.4
						c0.3,0.1,0.5,0.4,0.4,0.7c-0.2,0.7,1.1,2.6,2.1,3.1c0.3,0.1,0.4,0.5,0.3,0.8C41,31.4,40.8,31.5,40.6,31.5z"/>
				</g>
			</g>
		</g>
	</g>
</g>
</svg>
