<?xml version="1.0" encoding="utf-8"?>
<!-- Generator: Adobe Illustrator 20.1.0, SVG Export Plug-In . SVG Version: 6.00 Build 0)  -->
<!DOCTYPE svg PUBLIC "-//W3C//DTD SVG 1.1//EN" "http://www.w3.org/Graphics/SVG/1.1/DTD/svg11.dtd">
<svg version="1.1" id="Layer_1" xmlns="http://www.w3.org/2000/svg" xmlns:xlink="http://www.w3.org/1999/xlink" x="0px" y="0px"
	 viewBox="0 0 49 49" enable-background="new 0 0 49 49" xml:space="preserve">
<g>
	<g>
		<path fill="#40596B" d="M27.7,41.1c-0.3-1-0.5-2.1-0.5-3.2c0-0.3,0-0.5,0-0.8h-5.4c0,0.3,0,0.5,0,0.8c0,1.1-0.2,2.2-0.5,3.2H27.7z
			 M12.2,27.2c1.4,0.1,2.7,0.5,3.9,1.2l4.3-7.4c-1.3-0.5-2.4-1.3-3.3-2.2L12.2,27.2z M31.9,18.8c-1,0.9-2.1,1.7-3.4,2.2l4.3,7.4
			c1.2-0.6,2.5-1,3.9-1.2L31.9,18.8z"/>
	</g>
	<g>
		<g>
			<path fill="#F2F2F2" d="M21.8,37.8c0,2.5-0.9,4.9-2.4,6.7c-2,2.4-4.9,4-8.3,4c-3.4,0-6.3-1.5-8.3-4c-1.5-1.8-2.4-4.2-2.4-6.7
				c0-5.9,4.8-10.7,10.7-10.7C17.1,27.2,21.8,31.9,21.8,37.8z"/>
			<path fill="#84DBFF" d="M19.5,44.5c-2,2.4-4.9,4-8.3,4c-3.4,0-6.3-1.5-8.3-4c0.4-0.5,1-0.9,1.6-1.2c1.3-0.6,3.1-1.4,3.9-1.9
				c0.1-0.1,0.2-0.1,0.2-0.2c0,0,0.2-1.5,0.2-1.6c0,0-0.8-1.2-1.2-2.3c0,0,0,0-0.1,0c-0.3,0.1-0.6-0.4-0.7-1.1
				c-0.1-0.7,0-1.2,0.3-1.3c0,0,0,0,0,0c-0.2-1.4-0.2-5.2,4.1-5.1c4.3-0.1,4.2,3.7,4.1,5.1c0,0,0,0,0,0c0.3,0.1,0.4,0.6,0.3,1.3
				c-0.1,0.7-0.5,1.1-0.7,1.1c0,0,0,0-0.1,0c-0.3,1.1-1.2,2.3-1.2,2.3c0,0.1,0.2,1.6,0.2,1.6c0.1,0.1,0.1,0.1,0.2,0.2
				c0.8,0.5,2.6,1.4,3.9,1.9C18.5,43.6,19,44,19.5,44.5z"/>
		</g>
		<g>
			<path fill="#F2F2F2" d="M48.5,37.8c0,2.5-0.9,4.9-2.4,6.7c-2,2.4-4.9,4-8.3,4c-3.4,0-6.3-1.5-8.3-4c-1.5-1.8-2.4-4.2-2.4-6.7
				c0-5.9,4.8-10.7,10.7-10.7C43.7,27.2,48.5,31.9,48.5,37.8z"/>
			<path fill="#84DBFF" d="M46.1,44.5c-2,2.4-4.9,4-8.3,4c-3.4,0-6.3-1.5-8.3-4c0.4-0.5,1-0.9,1.6-1.2c1.3-0.6,3.1-1.4,3.9-1.9
				c0.1-0.1,0.2-0.1,0.2-0.2c0,0,0.2-1.5,0.2-1.6c0,0-0.8-1.2-1.2-2.3c0,0,0,0-0.1,0c-0.3,0.1-0.6-0.4-0.7-1.1
				c-0.1-0.7,0-1.2,0.3-1.3c0,0,0,0,0,0c-0.2-1.4-0.2-5.2,4.1-5.1c4.3-0.1,4.2,3.7,4.1,5.1c0,0,0,0,0,0c0.3,0.1,0.4,0.6,0.3,1.3
				c-0.1,0.7-0.5,1.1-0.7,1.1c0,0,0,0-0.1,0c-0.3,1.1-1.2,2.3-1.2,2.3c0,0.1,0.2,1.6,0.2,1.6c0.1,0.1,0.1,0.1,0.2,0.2
				c0.8,0.5,2.6,1.4,3.9,1.9C45.2,43.6,45.7,44,46.1,44.5z"/>
		</g>
		<g>
			<path fill="#F2F2F2" d="M35.2,11.2c0,2.5-0.9,4.9-2.4,6.7c-2,2.4-4.9,4-8.3,4c-3.4,0-6.3-1.5-8.3-4c-1.5-1.8-2.4-4.2-2.4-6.7
				c0-5.9,4.8-10.7,10.7-10.7C30.4,0.5,35.2,5.3,35.2,11.2z"/>
			<path fill="#84DBFF" d="M32.8,17.9c-2,2.4-4.9,4-8.3,4c-3.4,0-6.3-1.5-8.3-4c0.4-0.5,1-0.9,1.6-1.2c1.3-0.6,3.1-1.4,3.9-1.9
				c0.1-0.1,0.2-0.1,0.2-0.2c0,0,0.2-1.5,0.2-1.6c0,0-0.8-1.2-1.2-2.3c0,0,0,0-0.1,0c-0.3,0.1-0.6-0.4-0.7-1.1
				c-0.1-0.7,0-1.2,0.3-1.3c0,0,0,0,0,0c-0.2-1.4-0.2-5.2,4.1-5.1c4.3-0.1,4.2,3.7,4.1,5.1c0,0,0,0,0,0c0.3,0.1,0.4,0.6,0.3,1.3
				c-0.1,0.7-0.5,1.1-0.7,1.1c0,0,0,0-0.1,0c-0.3,1.1-1.2,2.3-1.2,2.3c0,0.1,0.2,1.6,0.2,1.6c0.1,0.1,0.1,0.1,0.2,0.2
				c0.8,0.5,2.6,1.4,3.9,1.9C31.8,16.9,32.4,17.3,32.8,17.9z"/>
		</g>
	</g>
</g>
</svg>
