<?xml version="1.0" encoding="utf-8"?>
<!-- Generator: Adobe Illustrator 18.0.0, SVG Export Plug-In . SVG Version: 6.00 Build 0)  -->
<!DOCTYPE svg PUBLIC "-//W3C//DTD SVG 1.1//EN" "http://www.w3.org/Graphics/SVG/1.1/DTD/svg11.dtd">
<svg version="1.1" id="Layer_1" xmlns="http://www.w3.org/2000/svg" xmlns:xlink="http://www.w3.org/1999/xlink" x="0px" y="0px"
	 viewBox="0 0 48 48" enable-background="new 0 0 48 48" xml:space="preserve">
<g>
	<path fill="#FF7058" d="M29.2,5.2c0,5.6-9.4,11.9-9.4,11.9s-9.4-6.3-9.4-11.9c0-2.8,2.3-5.1,5.1-5.1c1.8,0,3.4,0.9,4.3,2.4
		C20.7,1,22.3,0,24.1,0C26.9,0,29.2,2.3,29.2,5.2z"/>
	<g>
		<path fill="#F8B64C" d="M14.7,36.8l-0.2,6.6l-4.3,2.9l-4.3-2.9l-0.2-6.6c0,0,1.4-1.3,1.1-2.7h6.9C13.3,35.5,14.7,36.8,14.7,36.8z"
			/>
		<path fill="#F2F2F2" d="M21.1,40.4l-3.2-1.8l-3.2-1.8l0,0l-1.6,1.6c-0.8,0.8-1.8,1.2-2.9,1.2c-1.1,0-2.1-0.4-2.9-1.2l-1.6-1.6
			l-3.2,1.8L0.1,40v8h24.1v-2.2C24.2,43.5,23,41.5,21.1,40.4z"/>
		<g>
			
				<ellipse transform="matrix(0.9244 -0.3814 0.3814 0.9244 -10.4817 3.8832)" fill="#F8B64C" cx="4.6" cy="28.4" rx="1.1" ry="1.5"/>
			
				<ellipse transform="matrix(-0.9244 -0.3814 0.3814 -0.9244 19.5526 60.647)" fill="#F8B64C" cx="15.8" cy="28.4" rx="1.1" ry="1.5"/>
		</g>
		<path fill="#FFD15C" d="M16.4,25.8c0,0.3,0,0.7-0.1,1.1v0c-0.5,3.7-3.1,9.7-6.2,9.7c-3.1,0-5.7-6-6.2-9.7c0-0.4-0.1-0.7-0.1-1.1
			c0-3.5,2.8-6.3,6.3-6.3C13.6,19.5,16.4,22.3,16.4,25.8z"/>
		<path fill="#40596B" d="M4.2,28c-0.1-0.9-0.1-2,0.4-2.7c0,0-0.5-4,2.5-3.7c0,0,2.4,0.8,6.7,0c0,0,1.8-0.1,1.5,1.8
			c0,0-0.4,1.7,0.5,2.1l0.4,2.4l0.4-1.8c0.7-3.3-0.1-6.6-3.1-8.1C13.3,18,13.3,18,13.3,18c0.4-0.5,1.2-0.3,1.2-0.3
			c-5.2-3.3-8.7-0.2-8.7-0.2c-3.7,3.3-2.5,7.3-2.5,7.3C2.9,26.2,4.2,28,4.2,28z"/>
		<path fill="#334A5E" d="M41.5,20.5c-0.2-4.2-3-5.2-8.1-5.1c-5-0.1-7.9,0.9-8.1,5.1c-0.4,5.4-2.1,12-5.7,20.6h27.5
			C43.5,32.6,41.8,25.9,41.5,20.5z"/>
		<path fill="#ACB3BA" d="M33.4,35.2C33.4,35.2,33.4,35.2,33.4,35.2L33.4,35.2C33.4,35.2,33.4,35.2,33.4,35.2z"/>
		<path fill="#ACB3BA" d="M33.4,35.2L33.4,35.2C33.4,35.2,33.4,35.2,33.4,35.2C33.4,35.2,33.4,35.2,33.4,35.2z"/>
		<path fill="#F8B64C" d="M39.9,32.4h-13c0.3,3.7,0.3,7.5,0,11.2h13C39.5,39.8,39.5,36.1,39.9,32.4z"/>
		<path fill="#84DBFF" d="M47.9,40.3c-1.9-1.8-4.4-2.9-7.2-2.9h-1.1l-6.2,6.1l-6.2-6.1H26c-5.8,0-10.6,4.7-10.6,10.6l0,0h32.4V40.3z
			"/>
		<g>
			<polygon fill="#F2F2F2" points="41.3,37.5 33.4,45.3 25.4,37.4 27.2,37.4 33.4,43.5 39.6,37.4 41.3,37.4 			"/>
		</g>
		<polygon opacity="0.1" fill="#40596B" points="39.8,33.5 30.1,36.5 35.3,41.7 39.6,37.4 39.6,37.4 		"/>
		<g>
			<ellipse transform="matrix(0.9738 -0.2272 0.2272 0.9738 -5.2436 6.2381)" fill="#F8B64C" cx="24.5" cy="25.9" rx="1.2" ry="3"/>
			
				<ellipse transform="matrix(-0.9738 -0.2272 0.2272 -0.9738 77.6091 60.7243)" fill="#F8B64C" cx="42.3" cy="25.9" rx="1.2" ry="3"/>
		</g>
		<path fill="#FFD15C" d="M33.2,14.4c-5.2,0.1-9.2,4.7-9.2,10v0.6c0,1.3,0.1,2.4,0.4,3.5c1.2,4.1,3.6,6.6,5.7,8.1c1,0.7,2.1,1,3.3,1
			h0c1.2,0,2.3-0.3,3.3-1c1.3-0.9,2.8-2.3,4-4.2c1.5-2.3,2.1-5.1,2.1-7.9l0-0.3C42.8,18.7,38.5,14.3,33.2,14.4z"/>
		<path fill="#40596B" d="M29.6,18.3c0,0,8.3,5.8,14,6.4c0,0,0.9-11.5-8.3-14c0,0-13-2.2-12.1,14h0C25.2,24.6,28.6,20.8,29.6,18.3z"
			/>
		<g>
			<circle fill="#40596B" cx="37.5" cy="24.6" r="1.3"/>
			<circle fill="#40596B" cx="29.3" cy="24.6" r="1.3"/>
		</g>
		<g>
			<circle fill="#40596B" cx="12.4" cy="26.9" r="1.1"/>
			<circle fill="#40596B" cx="8" cy="26.9" r="1.1"/>
		</g>
	</g>
</g>
</svg>
