<?xml version="1.0" encoding="utf-8"?>
<!-- Generator: Adobe Illustrator 20.1.0, SVG Export Plug-In . SVG Version: 6.00 Build 0)  -->
<!DOCTYPE svg PUBLIC "-//W3C//DTD SVG 1.1//EN" "http://www.w3.org/Graphics/SVG/1.1/DTD/svg11.dtd">
<svg version="1.1" id="Layer_1" xmlns="http://www.w3.org/2000/svg" xmlns:xlink="http://www.w3.org/1999/xlink" x="0px" y="0px"
	 viewBox="0 0 49 49" enable-background="new 0 0 49 49" xml:space="preserve">
<g>
	<path fill="#FFD15C" d="M46.3,10.9v35.5c0,1.1-0.9,2-2,2H4.7c-1.1,0-2-0.9-2-2V10.9H46.3z"/>
	
		<rect x="5.3" y="32.6" transform="matrix(-1.836970e-16 1 -1 -1.836970e-16 53.7808 24.7348)" fill="#40596B" width="18.4" height="13.3"/>
	<rect x="2" y="22.2" fill="#FF7058" width="44.9" height="4.5"/>
	<path fill="#FF7058" d="M24.5,0.5c-0.6,0-1.1,0.1-1.7,0.2L1.7,7.1c-1.9,0.9-1.3,3.8,0.9,3.8h44c2.1,0,2.8-2.9,0.9-3.8L26.2,0.8
		C25.6,0.6,25.1,0.5,24.5,0.5L24.5,0.5z"/>
	<rect x="26.8" y="33.5" fill="#FF7058" width="13.9" height="9.3"/>
	<rect x="25.9" y="42.8" fill="#40596B" width="15.8" height="1.1"/>
	<rect x="2.7" y="10.9" fill="#F8B64C" width="43.7" height="1.5"/>
	<rect x="9.3" y="14" fill="#FFFFFF" width="5.1" height="5.1"/>
	<rect x="21.9" y="14" fill="#FFFFFF" width="5.1" height="5.1"/>
	<rect x="34.6" y="14" fill="#FFFFFF" width="5.1" height="5.1"/>
</g>
</svg>
