<?xml version="1.0" encoding="utf-8"?>
<!-- Generator: Adobe Illustrator 18.0.0, SVG Export Plug-In . SVG Version: 6.00 Build 0)  -->
<!DOCTYPE svg PUBLIC "-//W3C//DTD SVG 1.1//EN" "http://www.w3.org/Graphics/SVG/1.1/DTD/svg11.dtd">
<svg version="1.1" id="Layer_1" xmlns="http://www.w3.org/2000/svg" xmlns:xlink="http://www.w3.org/1999/xlink" x="0px" y="0px"
	 viewBox="0 0 48 48" enable-background="new 0 0 48 48" xml:space="preserve">
<g>
	<g>
		<polygon fill="#F2F2F2" points="44.4,45.6 3.6,45.6 9.8,28 38.2,28 		"/>
		<path fill="#40596B" d="M47.7,45.6L40.4,28c-0.3-0.6-1.4-1.1-2.7-1.1H10.2c-1.2,0-2.4,0.5-2.7,1.1L0.3,45.6
			C-0.2,46.9,0.9,48,2.8,48h42.5C47.1,48,48.2,46.9,47.7,45.6z M3.6,45.6L9.8,28h28.3l6.2,17.6H3.6z"/>
		<polygon fill="#FF7058" points="38.6,29.2 38.2,28 9.8,28 9.4,29.2 16.1,29.2 15.1,34.5 7.6,34.5 7,36 30.4,36 31.4,43.4 
			4.4,43.4 3.6,45.6 44.4,45.6 43.6,43.4 34.6,43.4 33.2,36 41,36 40.4,34.5 17.8,34.5 18.5,29.2 		"/>
	</g>
	<path fill="#84DBFF" d="M24,0c-7.7,0-14,6.3-14,14c0,7.7,14,26.6,14,26.6S38,21.7,38,14C38,6.3,31.7,0,24,0z M24,20.7
		c-3.7,0-6.7-3-6.7-6.7c0-3.7,3-6.7,6.7-6.7c3.7,0,6.7,3,6.7,6.7C30.7,17.7,27.7,20.7,24,20.7z"/>
</g>
</svg>
