<?xml version="1.0" encoding="utf-8"?>
<!-- Generator: Adobe Illustrator 18.0.0, SVG Export Plug-In . SVG Version: 6.00 Build 0)  -->
<!DOCTYPE svg PUBLIC "-//W3C//DTD SVG 1.1//EN" "http://www.w3.org/Graphics/SVG/1.1/DTD/svg11.dtd">
<svg version="1.1" id="Layer_1" xmlns="http://www.w3.org/2000/svg" xmlns:xlink="http://www.w3.org/1999/xlink" x="0px" y="0px"
	 viewBox="0 0 512 512" enable-background="new 0 0 512 512" xml:space="preserve">
<g>
	<polygon fill="#F1543F" points="388.4,217.5 388.4,266.3 339.6,266.3 187.9,114.5 236.6,65.8 	"/>
	<polygon fill="#FF7058" points="249.6,2 176.6,2 140.1,58.4 176.6,114.8 249.6,114.8 286.2,58.4 	"/>
	<polygon fill="#FF7058" points="302.7,437.1 213.2,510 200.6,499.7 181.3,484 157.2,464.4 137.9,448.8 123.6,437.1 127.1,416 
		134,374 142.5,321.9 149.4,279.9 158.1,227.7 165,185.8 176.6,114.8 249.6,114.8 252.7,133.1 258.8,170.5 263.8,200.6 269.9,238.1 
		274.9,268.1 281.1,305.6 286,335.6 292.2,373.1 297.1,403.2 	"/>
	<polygon fill="#FFFFFF" points="252.7,133.1 158.1,227.7 165,185.8 236,114.8 249.6,114.8 	"/>
	<polygon fill="#FFFFFF" points="286,335.6 157.2,464.4 137.9,448.8 281.1,305.6 	"/>
	<polygon fill="#FFFFFF" points="297.1,403.2 200.6,499.7 181.3,484 292.2,373.1 	"/>
	<polygon fill="#FFFFFF" points="263.8,200.6 142.5,321.9 149.4,279.9 258.8,170.5 	"/>
	<polygon fill="#FFFFFF" points="274.9,268.1 127.1,416 134,374 269.9,238.1 	"/>
</g>
</svg>
