<?xml version="1.0" encoding="utf-8"?>
<!-- Generator: Adobe Illustrator 18.0.0, SVG Export Plug-In . SVG Version: 6.00 Build 0)  -->
<!DOCTYPE svg PUBLIC "-//W3C//DTD SVG 1.1//EN" "http://www.w3.org/Graphics/SVG/1.1/DTD/svg11.dtd">
<svg version="1.1" id="Layer_1" xmlns="http://www.w3.org/2000/svg" xmlns:xlink="http://www.w3.org/1999/xlink" x="0px" y="0px"
	 viewBox="0 0 48 48" enable-background="new 0 0 48 48" xml:space="preserve">
<g>
	<g>
		<g>
			<g>
				<path fill="#F3705B" d="M44.9,26.8c0,12.2-10,20.1-22.4,20.1C10,46.8,0,38.9,0,26.8c0-12.2,10-22,22.4-22
					C34.8,4.7,44.9,14.6,44.9,26.8z"/>
			</g>
			<g>
				<path fill="#F3705B" d="M43.8,0c-9.4,0.7-15.3,8.7-13.1,17.8c4.7-0.3,8.5-2.5,10.9-5.7C44,8.9,44.9,4.6,43.8,0z"/>
				<path fill="#F3705B" d="M1.1,0C0,4.6,0.9,8.9,3.3,12.1c2.4,3.2,6.2,5.4,10.9,5.7C16.4,8.7,10.5,0.7,1.1,0z"/>
			</g>
			<g>
				<path fill="#435B6C" d="M18.5,35.8c0,0,2.5,3.9,3.9,3.9c1.4,0,3.9-3.9,3.9-3.9C26.4,32.5,18.5,32.5,18.5,35.8z"/>
				<g>
					<path fill="#435B6C" d="M31.8,39.1c-0.5,0.4-1.2,0.8-2.2,1.3c-0.5,0.3-1,0.5-1.5,0.7c-0.5,0.2-1.2,0.4-1.8,0.6
						c-1.2,0.3-2.6,0.5-3.9,0.5c-1.4,0-2.7-0.2-3.9-0.5c-0.6-0.2-1.2-0.3-1.8-0.6c-0.6-0.2-1.1-0.4-1.5-0.7
						c-0.9-0.5-1.7-0.9-2.2-1.3c-0.5-0.4-0.8-0.6-0.8-0.6s0.2,0.3,0.6,0.7c0.4,0.4,1.1,1.1,2,1.7c0.4,0.3,0.9,0.6,1.5,0.9
						c0.5,0.3,1.2,0.5,1.8,0.8c0.7,0.2,1.3,0.4,2.1,0.5c0.7,0.1,1.4,0.1,2.2,0.2c0.7,0,1.5-0.1,2.2-0.2c0.7-0.1,1.4-0.3,2.1-0.5
						c0.6-0.3,1.3-0.5,1.8-0.8c0.6-0.3,1.1-0.6,1.5-0.9c0.9-0.6,1.6-1.2,2-1.7c0.4-0.5,0.6-0.7,0.6-0.7S32.3,38.7,31.8,39.1z"/>
					<rect x="21.9" y="35.2" fill="#435B6C" width="1.1" height="7.5"/>
				</g>
			</g>
			<g>
				<g>
					<g>
						<g>
							<g>
								<path fill="#FFFFFF" d="M18.7,25.9C14,29.7,8.8,28.1,7,22.3C11.6,18.6,16.9,20.2,18.7,25.9z"/>
							</g>
							<circle fill="#4ABAA5" cx="12.8" cy="24.1" r="2.9"/>
							
								<ellipse transform="matrix(0.1857 -0.9826 0.9826 0.1857 -13.2406 32.2596)" fill="#435B6C" cx="12.8" cy="24.1" rx="2.2" ry="0.6"/>
						</g>
					</g>
					<g>
						<circle fill="#FFFFFF" cx="13.5" cy="23.3" r="0.5"/>
					</g>
				</g>
				<g>
					<g>
						<g>
							<g>
								<path fill="#FFFFFF" d="M26.2,25.9c4.7,3.8,9.9,2.2,11.7-3.5C33.2,18.6,28,20.2,26.2,25.9z"/>
							</g>
							<circle fill="#4ABAA5" cx="32" cy="24.1" r="2.9"/>
							
								<ellipse transform="matrix(0.9826 -0.1855 0.1855 0.9826 -3.9181 6.3633)" fill="#435B6C" cx="32" cy="24.1" rx="0.6" ry="2.3"/>
						</g>
					</g>
					<g>
						<circle fill="#FFFFFF" cx="32.3" cy="23.1" r="0.5"/>
					</g>
				</g>
			</g>
		</g>
		<g>
			<g>
				<g>
					<path fill="#435B6C" d="M42.8,44.1c0,0,0-0.3-0.1-0.8c-0.1-0.5-0.4-1.2-0.9-2c-0.5-0.8-1.3-1.5-2.3-2.1c-1-0.6-2.1-1-3.3-1.4
						c-2.3-0.6-4.8-0.5-6.6-0.3c-1.8,0.2-3,0.4-3,0.4l0,0c0,0,1.2-0.4,3-0.7c1.8-0.3,4.3-0.4,6.7,0.3c1.2,0.3,2.3,0.8,3.3,1.5
						c1,0.6,1.8,1.4,2.3,2.2c0.5,0.8,0.7,1.5,0.8,2.1C42.9,43.8,42.9,44.1,42.8,44.1L42.8,44.1z"/>
				</g>
				<g>
					<path fill="#435B6C" d="M27.7,38.9c0,0,0.2,0,0.7-0.1c0.4,0,1-0.1,1.7,0c1.4,0.1,3.3,0.8,4.8,2.1c0.7,0.6,1.3,1.4,1.8,2.2
						c0.4,0.8,0.7,1.6,0.8,2.4c0.1,0.7,0.1,1.3,0.1,1.8c0,0.4-0.1,0.7-0.1,0.7l0,0c0,0,0-1-0.3-2.3c-0.3-1.4-1.1-3.1-2.5-4.4
						c-1.3-1.3-3.2-2-4.6-2.2c-0.7-0.1-1.3-0.1-1.7-0.1C28,38.9,27.7,39,27.7,38.9L27.7,38.9z"/>
				</g>
				<g>
					<path fill="#435B6C" d="M44.8,30.4c0,0-0.2,0.2-0.6,0.5c-0.4,0.3-1,0.8-1.8,1.3c-1.5,1-3.7,2-5.9,2.8c-2.2,0.8-4.6,1.4-6.4,1.6
						c-0.9,0.1-1.6,0.1-2.2,0.1c-0.5,0-0.8,0-0.8,0l0,0c0,0,1.2-0.1,2.9-0.4c1.7-0.3,4.1-0.9,6.3-1.6c2.2-0.8,4.4-1.7,6-2.6
						c0.8-0.4,1.4-0.9,1.8-1.2C44.5,30.6,44.7,30.4,44.8,30.4L44.8,30.4z"/>
				</g>
			</g>
			<g>
				<g>
					<path fill="#435B6C" d="M2.1,44.1c0,0,0-0.3,0.1-0.8c0.1-0.5,0.4-1.2,0.9-2c0.5-0.8,1.3-1.5,2.3-2.1c1-0.6,2.1-1,3.3-1.4
						c2.3-0.6,4.8-0.5,6.6-0.3c1.8,0.2,3,0.4,3,0.4l0,0c0,0-1.2-0.4-3-0.7c-1.8-0.3-4.3-0.4-6.7,0.3c-1.2,0.3-2.3,0.8-3.3,1.5
						c-1,0.6-1.8,1.4-2.3,2.2c-0.5,0.8-0.7,1.5-0.8,2.1C2,43.8,2,44.1,2.1,44.1L2.1,44.1z"/>
				</g>
				<g>
					<path fill="#435B6C" d="M17.2,38.9c0,0-0.2,0-0.7-0.1c-0.4,0-1-0.1-1.7,0C13.3,39,11.4,39.6,10,41c-0.7,0.6-1.3,1.4-1.8,2.2
						c-0.4,0.8-0.7,1.6-0.8,2.4c-0.1,0.7-0.1,1.3-0.1,1.8c0,0.4,0.1,0.7,0.1,0.7l0,0c0,0,0-1,0.3-2.3c0.3-1.4,1.1-3.1,2.5-4.4
						c1.3-1.3,3.2-2,4.6-2.2c0.7-0.1,1.3-0.1,1.7-0.1C16.9,38.9,17.2,39,17.2,38.9L17.2,38.9z"/>
				</g>
				<g>
					<path fill="#435B6C" d="M0.1,30.4c0,0,0.2,0.2,0.6,0.5c0.4,0.3,1,0.8,1.8,1.3c1.5,1,3.7,2,5.9,2.8c2.2,0.8,4.6,1.4,6.4,1.6
						c0.9,0.1,1.6,0.1,2.2,0.1c0.5,0,0.8,0,0.8,0l0,0c0,0-1.2-0.1-2.9-0.4c-1.7-0.3-4.1-0.9-6.3-1.6c-2.2-0.8-4.4-1.7-6-2.6
						c-0.8-0.4-1.4-0.9-1.8-1.2C0.4,30.6,0.2,30.4,0.1,30.4L0.1,30.4z"/>
				</g>
			</g>
		</g>
	</g>
</g>
</svg>
