<?xml version="1.0" encoding="utf-8"?>
<!-- Generator: Adobe Illustrator 18.0.0, SVG Export Plug-In . SVG Version: 6.00 Build 0)  -->
<!DOCTYPE svg PUBLIC "-//W3C//DTD SVG 1.1//EN" "http://www.w3.org/Graphics/SVG/1.1/DTD/svg11.dtd">
<svg version="1.1" id="Layer_1" xmlns="http://www.w3.org/2000/svg" xmlns:xlink="http://www.w3.org/1999/xlink" x="0px" y="0px"
	 viewBox="0 0 48 48" enable-background="new 0 0 48 48" xml:space="preserve">
<g>
	<circle fill="#FF7058" cx="24" cy="7.4" r="5.4"/>
	<polygon fill="#FFFFFF" points="28,6.5 25,6.5 25,3.4 23,3.4 23,6.5 20,6.5 20,8.4 23,8.4 23,11.4 25,11.4 25,8.4 28,8.4 	"/>
	<g>
		<path fill="#FFD15C" d="M2.2,9.5C1,9.5,0,10.5,0,11.7V46h4.3V11.7C4.3,10.5,3.4,9.5,2.2,9.5z"/>
		<path fill="#FFD15C" d="M45.8,17.9c-1.2,0-2.2,1-2.2,2.2v26H48V20C48,18.8,47,17.9,45.8,17.9z"/>
		<rect x="4.3" y="24.8" fill="#F2F2F2" width="39.3" height="8.3"/>
		<rect x="4.3" y="30.8" fill="#CDD6E0" width="39.3" height="2.3"/>
		<path fill="#FF7058" d="M43.7,40.4h-21c-1.1,0-2-0.9-2-2V23c0-1.1,0.9-2,2-2h21V40.4z"/>
		<rect x="38" y="21" fill="#F2F2F2" width="1.8" height="19.4"/>
		<path fill="#CDD6E0" d="M11.8,23.8c-0.2-3.3-3.1-6.2-6.4-6.4l0,0c-0.6,0-1.1,0.4-1,1v0c0.2,3.3,3.1,6.2,6.4,6.4
			C11.4,24.9,11.8,24.4,11.8,23.8z"/>
	</g>
</g>
</svg>
