<?xml version="1.0" encoding="utf-8"?>
<!-- Generator: Adobe Illustrator 18.0.0, SVG Export Plug-In . SVG Version: 6.00 Build 0)  -->
<!DOCTYPE svg PUBLIC "-//W3C//DTD SVG 1.1//EN" "http://www.w3.org/Graphics/SVG/1.1/DTD/svg11.dtd">
<svg version="1.1" id="Layer_1" xmlns="http://www.w3.org/2000/svg" xmlns:xlink="http://www.w3.org/1999/xlink" x="0px" y="0px"
	 viewBox="0 0 48 48" enable-background="new 0 0 48 48" xml:space="preserve">
<g>
	<g>
		<g>
			<g>
				<g>
					<g>
						<g>
							
								<rect x="40" y="3.4" transform="matrix(0.7071 -0.7071 0.7071 0.7071 8.7529 29.7727)" fill="#CED6E0" width="0.6" height="1.9"/>
						</g>
						<g>
							<path fill="#F3F3F3" d="M38.8,3.5c0,0.2,0.1,0.4,0.2,0.5c0.1,0.1,0.2,0.2,0.4,0.2C39.7,4,40,3.8,40.2,3.4
								c0-0.1-0.1-0.3-0.2-0.4c-0.1-0.1-0.3-0.2-0.5-0.2C39.2,2.9,38.9,3.2,38.8,3.5z"/>
						</g>
					</g>
					<g>
						<g>
							
								<rect x="41.4" y="2" transform="matrix(0.7071 -0.7071 0.7071 0.7071 10.1435 30.3487)" fill="#CED6E0" width="0.6" height="1.9"/>
						</g>
						<g>
							<path fill="#F3F3F3" d="M40.2,2.1c0,0.2,0.1,0.4,0.2,0.5c0.1,0.1,0.2,0.2,0.4,0.2c0.4-0.2,0.7-0.4,0.8-0.8
								c0-0.1-0.1-0.3-0.2-0.4c-0.1-0.1-0.3-0.2-0.5-0.2C40.5,1.5,40.3,1.8,40.2,2.1z"/>
						</g>
					</g>
					<g>
						<g>
							
								<rect x="42.8" y="0.6" transform="matrix(0.7071 -0.7071 0.7071 0.7071 11.5341 30.9247)" fill="#CED6E0" width="0.6" height="1.9"/>
						</g>
						<g>
							<path fill="#F3F3F3" d="M41.6,0.7c0,0.2,0.1,0.4,0.2,0.5c0.1,0.1,0.2,0.2,0.4,0.2C42.5,1.2,42.8,1,43,0.6
								c0-0.1-0.1-0.3-0.2-0.4C42.6,0.1,42.5,0,42.3,0C41.9,0.1,41.7,0.4,41.6,0.7z"/>
						</g>
					</g>
				</g>
				<g>
					<g>
						<g>
							
								<rect x="46.1" y="3.9" transform="matrix(-0.7071 0.7071 -0.7071 -0.7071 82.7807 -24.4816)" fill="#CED6E0" width="0.6" height="1.9"/>
						</g>
						<g>
							<path fill="#F3F3F3" d="M48,5.7c0-0.2-0.1-0.4-0.2-0.5c-0.1-0.1-0.2-0.2-0.4-0.2c-0.4,0.2-0.7,0.4-0.8,0.8
								c0,0.1,0.1,0.3,0.2,0.4c0.1,0.1,0.3,0.2,0.5,0.2C47.6,6.3,47.9,6.1,48,5.7z"/>
						</g>
					</g>
					<g>
						<g>
							
								<rect x="44.8" y="5.3" transform="matrix(-0.7072 0.707 -0.707 -0.7072 81.3932 -21.1203)" fill="#CED6E0" width="0.6" height="1.9"/>
						</g>
						<g>
							<path fill="#F3F3F3" d="M46.6,7.1c0-0.2-0.1-0.4-0.2-0.5c-0.1-0.1-0.2-0.2-0.4-0.2c-0.4,0.2-0.7,0.4-0.8,0.8
								c0,0.1,0.1,0.3,0.2,0.4c0.1,0.1,0.3,0.2,0.5,0.2C46.2,7.7,46.5,7.5,46.6,7.1z"/>
						</g>
					</g>
					<g>
						<g>
							
								<rect x="43.4" y="6.7" transform="matrix(-0.7071 0.7071 -0.7071 -0.7071 79.9995 -17.7672)" fill="#CED6E0" width="0.6" height="1.9"/>
						</g>
						<g>
							<path fill="#F3F3F3" d="M45.2,8.5c0-0.2-0.1-0.4-0.2-0.5c-0.1-0.1-0.2-0.2-0.4-0.2C44.2,8,44,8.3,43.8,8.6
								c0,0.1,0.1,0.3,0.2,0.4c0.1,0.1,0.3,0.2,0.5,0.2C44.8,9.1,45.1,8.8,45.2,8.5z"/>
						</g>
					</g>
				</g>
			</g>
			<g>
				<path fill="#F3705A" d="M29.5,18.5c3.7,3.7,5.8,7.7,1.4,12.1c-0.4,0.4-0.9,0.8-1.5,1.1c-2.5,1.3-4.2,3.8-4.3,6.7
					c-0.1,2.4-1,4.5-2.6,6.2c-6.2,6.2-11.8,3.3-17.1-2c-5.3-5.3-8.2-10.8-2-17.1c1.6-1.6,3.8-2.5,6.2-2.6c2.8-0.1,5.4-1.8,6.7-4.3
					c0.3-0.5,0.6-1,1.1-1.5C21.9,12.6,25.8,14.7,29.5,18.5z"/>
			</g>
			<g>
				<circle fill="#FFD15C" cx="22.7" cy="25.3" r="5"/>
			</g>
			<g>
				<circle fill="#415A6B" cx="22.7" cy="25.3" r="3.3"/>
			</g>
			<g>
				<polygon fill="#FFD15C" points="23.8,21.3 26.7,24.2 41.2,8.5 39.5,6.8 				"/>
			</g>
			<g>
				<path fill="#415A6B" d="M47.6,4.2l-4.9,4.3c-0.4-0.4-1.1-0.4-1.5,0l-1.7-1.7c0.4-0.4,0.4-1.1,0-1.5l4.3-4.9
					C45.8,1,47.1,2.3,47.6,4.2z"/>
			</g>
			<path fill="#415A6B" d="M10.9,29.1l-0.6,0.6c-0.2,0.2-0.2,0.6,0,0.9l7.1,7.1c0.2,0.2,0.6,0.2,0.9,0l0.6-0.6
				c0.2-0.2,0.2-0.6,0-0.9l-7.1-7.1C11.6,28.9,11.2,28.9,10.9,29.1z"/>
		</g>
		<g>
			<g>
				<circle fill="#F3F3F3" cx="41.1" cy="5.2" r="0.5"/>
			</g>
			<g>
				<circle fill="#F3F3F3" cx="42.4" cy="3.6" r="0.5"/>
			</g>
			<g>
				<circle fill="#F3F3F3" cx="43.7" cy="2.1" r="0.5"/>
			</g>
		</g>
		<g>
			<g>
				<circle fill="#F3F3F3" cx="42.8" cy="6.9" r="0.5"/>
			</g>
			<g>
				<circle fill="#F3F3F3" cx="44.4" cy="5.6" r="0.5"/>
			</g>
			<g>
				<circle fill="#F3F3F3" cx="45.9" cy="4.3" r="0.5"/>
			</g>
		</g>
		<g>
			<g>
				<circle fill="#E8EAE9" cx="12.6" cy="31.4" r="0.5"/>
			</g>
			<g>
				<circle fill="#E8EAE9" cx="13.9" cy="32.8" r="0.5"/>
			</g>
			<g>
				<circle fill="#E8EAE9" cx="15.2" cy="34.1" r="0.5"/>
			</g>
			<g>
				<circle fill="#E8EAE9" cx="16.6" cy="35.4" r="0.5"/>
			</g>
		</g>
	</g>
</g>
</svg>
