<?xml version="1.0" encoding="utf-8"?>
<!-- Generator: Adobe Illustrator 18.0.0, SVG Export Plug-In . SVG Version: 6.00 Build 0)  -->
<!DOCTYPE svg PUBLIC "-//W3C//DTD SVG 1.1//EN" "http://www.w3.org/Graphics/SVG/1.1/DTD/svg11.dtd">
<svg version="1.1" id="Layer_1" xmlns="http://www.w3.org/2000/svg" xmlns:xlink="http://www.w3.org/1999/xlink" x="0px" y="0px"
	 viewBox="0 0 48 48" enable-background="new 0 0 48 48" xml:space="preserve">
<g>
	<path fill="#CDD6E0" d="M47.7,5.3c-3.7-6.1-11.8-5.1-12.2-5C23.2,1.9,21.8,12.6,21.8,12.7L21.6,14l7.6-0.3l0.2-0.8
		c0,0,0.1-0.2,0.2-0.5c1-2.8,3.1-5,5.9-6c2.7-1,5.7-0.7,8.2,0.8l0,0c0.4,0.2,0.7,0.4,0.9,0.7c0.6,0.6,1.5,0.7,2.3,0.3
		c0.5-0.3,0.9-0.7,1.1-1.3C48.1,6.4,48,5.8,47.7,5.3z"/>
	<path fill="#F2F2F2" d="M47.9,32.8C44.4,25.7,40.7,17,40.7,17c-2.1-4.7-4.5-6.5-5.8-7.2c-0.8-0.4-1.5-0.8-2.2-1.3
		C28.4,5.7,24,6.6,24,6.6c-3.7,0.8-6.3,3-7.7,4.7c-1.3,1.5-2.7,2.8-4.3,4L3.8,21C1.5,22.8,1,26.1,1,26.1s-2.3,2.7,0,4.3
		c0,0,0.3,2.6,4.6,2.6c0,0,0.7,0.3,4.5-2.2c0,0,7.2,2,12.2,2.2c0,0-2.1,10.7-0.5,14.1c0,0-0.1,0.3-0.1,0.7l17.8,0l8.5,0L47.9,32.8z"
		/>
	<path fill="#40596B" d="M1.5,24.5c0,0,2.2-2.9,3.1-1.5c0,0,0.4,0.6-0.4,1.8c0,0,0-1.1-0.9-0.6s-1.7,0.8-1.7,0.8S1.3,24.8,1.5,24.5z
		"/>
	<path fill="#40596B" d="M11.1,27.2c0-0.3-1-0.5-1-0.5c-0.6-0.3-2.2,0.4-4.8,2.1C3.3,29.9,1,30,1,30l0,0c-0.1,0-0.3,0-0.4,0.1
		c0.1,0.1,0.3,0.3,0.5,0.4c0,0,0,0.5,0.4,1c2.1-0.2,4.5-1.6,4.6-1.7l0.1,0c1.1-1,4-2.1,4-2.1C10.1,27.6,11.1,27.5,11.1,27.2z"/>
	<g>
		<path fill="#40596B" d="M3.5,28.8c-0.1,0-0.1-0.1-0.2-0.2c0,0-0.1-0.1-0.1-0.1c0-0.1-0.1-0.1-0.1-0.2c-0.1-0.1-0.2-0.2-0.3-0.4
			c-0.1-0.1-0.1-0.3-0.2-0.4c0-0.1-0.1-0.3-0.1-0.4c0-0.2,0-0.4,0-0.4s-0.1,0.2-0.1,0.4c0,0.3,0,0.6,0.2,0.9c0,0.1,0.1,0.1,0.1,0.2
			c0,0.1,0.1,0.1,0.2,0.2C2.9,28.6,3,28.6,3,28.6c0.1,0,0.1,0.1,0.2,0.1C3.3,28.8,3.4,28.8,3.5,28.8C3.6,28.9,3.6,28.9,3.5,28.8
			C3.6,28.9,3.6,28.9,3.5,28.8z"/>
		<path fill="#40596B" d="M2.1,29.3c0,0-0.1-0.1-0.1-0.1c0-0.1-0.1-0.1-0.1-0.2c-0.1-0.1-0.2-0.2-0.3-0.4c-0.1-0.1-0.1-0.3-0.2-0.4
			c0-0.1-0.1-0.3-0.1-0.4c0-0.2,0-0.4,0-0.4s-0.1,0.2-0.1,0.4c0,0.3,0,0.6,0.2,0.9c0,0.1,0.1,0.1,0.1,0.2c0,0.1,0.1,0.1,0.2,0.2
			c0.1,0.1,0.1,0.1,0.2,0.1c0.1,0,0.1,0.1,0.2,0.1c0.1,0.1,0.2,0.1,0.3,0.1c0.1,0,0.1,0,0.1,0s0,0-0.1-0.1
			C2.3,29.4,2.2,29.4,2.1,29.3z"/>
		<path fill="#40596B" d="M1.3,29.5c0-0.1-0.1-0.1-0.2-0.2c0-0.1-0.1-0.1-0.1-0.2C1,29,1,28.9,1,28.9c-0.1-0.1-0.1-0.3-0.1-0.4
			c0-0.1,0-0.3-0.1-0.5c0-0.1,0-0.3,0-0.4c0-0.2,0.1-0.4,0.1-0.4s-0.1,0.1-0.2,0.4c-0.1,0.2-0.1,0.6-0.1,0.9c0,0.1,0,0.2,0.1,0.3
			c0,0.1,0.1,0.2,0.1,0.2c0,0.1,0.1,0.1,0.1,0.2c0,0.1,0.1,0.1,0.1,0.2C1.2,29.4,1.3,29.4,1.3,29.5C1.4,29.5,1.4,29.5,1.3,29.5
			C1.4,29.5,1.4,29.5,1.3,29.5z"/>
		<path fill="#40596B" d="M2.7,29c0,0-0.1-0.1-0.1-0.2c0-0.1-0.1-0.1-0.1-0.2c0-0.1-0.1-0.2-0.1-0.2c0-0.1-0.1-0.2-0.1-0.3
			C2.1,28,2.1,28,2,27.9C2,27.7,2,27.5,2,27.3c0-0.2,0-0.4,0-0.5c0-0.3,0.1-0.5,0.1-0.5S2,26.4,1.9,26.7c-0.1,0.3-0.2,0.8,0,1.2
			c0,0.1,0.1,0.2,0.1,0.3c0,0.1,0.1,0.2,0.1,0.3c0,0.1,0.1,0.2,0.2,0.2c0.1,0.1,0.1,0.1,0.2,0.2c0.1,0.1,0.2,0.2,0.3,0.2
			c0.1,0.1,0.1,0.1,0.1,0.1s0,0-0.1-0.1C2.7,29.1,2.7,29.1,2.7,29z"/>
	</g>
	<path fill="#ACB3BA" d="M21.3,44.8c0,0.2,0,0.4,0.1,0.5c0.1,0.7,0.2,1.3,0.5,1.8c0,0-0.1,0.3-0.1,0.7l15.3,0c0,0,0-0.1,0-0.1
		c0-0.3-0.2-0.5-0.3-0.7c-0.6-1.4-0.8-3-0.4-4.6c0.1-0.5,0.3-1.4,0.2-1.5c-0.5-0.5-0.6-1.3-0.3-2c0.6-1.2,1.1-1.9,1.1-4.3
		c0-0.5-0.1-1-0.4-1.5c-0.1-0.1-0.2-0.3-0.4-0.3c-0.2,0-0.3,0-0.5,0.1c-0.4,0.2-0.9,1-1.2,0.7c-1-1,1.5-2.5,1.3-3.9
		c-0.2-2-2.2-3.2-3.3-4.9l-0.2,0.3c-4.3,1.3-7.7,4.4-10.8,7.7c0.2,0,0.4,0,0.5,0C22.3,33.1,20.9,40.4,21.3,44.8z"/>
	<g>
		<path fill="#334A5E" d="M25.9,16.2c-0.6,0-1.3-0.6-1.3-0.6c-3.2-1.6-4.2,0.7-4.2,0.7c-0.2,0.3-0.4,0.7-0.7,1
			c-0.2,0.2,0,0.5,0.3,0.5c0.3,0,0.7,0,1.1,0.1c4,0.6,4.8-1.3,4.8-1.3C26,16.3,25.9,16.2,25.9,16.2z"/>
		<path fill="#F2F2F2" d="M25.8,16.6c0.2-0.3,0.1-0.4,0.1-0.4c-0.6,0-1.3-0.6-1.3-0.6c-0.9-0.4-1.6-0.6-2.1-0.5
			c-0.7,0.3-1.2,0.8-1.2,1.6c0,0.5,0.2,0.9,0.6,1.3C25.2,18.2,25.8,16.6,25.8,16.6z"/>
		<path fill="#40596B" d="M23.4,16.5c0,0-0.2,0.1-0.5,0.3c-0.4,0.3-1.1,0.3-1.2-0.3c0-0.6,0.8-0.6,1.2-0.3
			C23.2,16.4,23.4,16.5,23.4,16.5z"/>
		<path opacity="0.1" fill="#231F20" d="M25.9,16.2c-0.6,0-1.3-0.6-1.3-0.6c-3.2-1.6-4.2,0.7-4.2,0.7c-0.2,0.3-0.4,0.7-0.7,1
			c-0.1,0.1-0.1,0.3,0.1,0.4c0.1,0,0.2-0.1,0.3-0.2c0.3-0.4,0.5-0.7,0.7-1c0,0,0.3-0.6,1-0.9c0.6-0.2,1.2-0.2,2,0.1
			c0.3,0.1,0.6,0.3,0.8,0.4c0.3,0.2,0.7,0.4,1.2,0.4c0,0,0-0.1,0-0.1C26,16.3,25.9,16.2,25.9,16.2z"/>
	</g>
	<path fill="#ACB3BA" d="M29.8,29.6c1.7-1,3.2-3.2,4.4-5.4c0.5-1-0.6-2-1.5-1.4c0,0,0,0,0,0c-0.5,0.3-1.1,0.2-1.4-0.3
		c-0.4-0.7-0.7-1.8-0.8-2.7c-0.1-0.8-1.2-1.2-1.8-0.6c-0.6,0.6-1.1,1.2-1.3,1.6c-0.1,0.2-0.2,0.4-0.2,0.6c0,0.5-0.1,1-0.3,1.5
		c-1,2.5-3.6,4-6.3,3.7c-0.8-0.1-1.7-0.3-2.4-0.4c-2.5-0.6-5.2,0.5-6.6,2.7c-0.7,1.1-1.3,1.9-1.3,1.9s7,2,12.1,2.2
		C26.4,31.8,29.8,29.6,29.8,29.6z"/>
	<path fill="#40596B" d="M39.8,16.6c4.3-0.4,6.6-5.2,6.6-5.2c1.6-2.3-0.5-1.9-0.5-1.9C44.2,10,37.8,11,37.8,11c-3.7,0.1-5.3,2-5.3,2
		C29,13.9,30,14.6,30,14.6c2,0.4,2.2,1.3,2.2,1.3s1.2,1.8,3.5,0.7C37.9,15.5,39.8,16.6,39.8,16.6z"/>
</g>
</svg>
