<?xml version="1.0" encoding="utf-8"?>
<!-- Generator: Adobe Illustrator 18.0.0, SVG Export Plug-In . SVG Version: 6.00 Build 0)  -->
<!DOCTYPE svg PUBLIC "-//W3C//DTD SVG 1.1//EN" "http://www.w3.org/Graphics/SVG/1.1/DTD/svg11.dtd">
<svg version="1.1" id="Layer_1" xmlns="http://www.w3.org/2000/svg" xmlns:xlink="http://www.w3.org/1999/xlink" x="0px" y="0px"
	 viewBox="0 0 48 48" enable-background="new 0 0 48 48" xml:space="preserve">
<g>
	<g>
		<g>
			<g>
				<path fill="#425A6B" d="M27.6,48c-0.7,0.1-1.3,0-1.7-0.3c-0.4-0.3-0.7-0.7-1-1c-0.1-0.1-0.3-0.2-0.5-0.3l0.2,0.7l-0.3,0
					l-0.1-0.2c-0.1-0.4-0.4-0.7-0.7-0.9c0,0-0.1-0.1-0.1-0.1c-0.6-0.4-0.4-0.8-0.4-0.8l3.9,1.5c0,0,1.1-0.2,1.6,0.4
					C29.2,47.4,28.3,47.9,27.6,48z"/>
			</g>
		</g>
	</g>
	<g>
		<g>
			<path fill="#FFD15C" d="M29,26.4l0.4,0.4c0,0,1.3,3.4,1.4,4.1s0.3,2.6-1.2,2.6c-1.5,0.1-3-0.5-3-0.5s-0.2,1.3-0.4,1.8
				c-0.3,0.5-0.3,4.3-0.3,4.3l-2.4,1.1c0,0-0.2-1.3-0.3-1.8c-0.1-0.5-0.1-2.4,0.3-3.6c0.4-1.1-0.1-3.3-0.1-3.3s-1.1-3.6-1.1-4.9
				C22.4,25.4,29,26.4,29,26.4z"/>
		</g>
	</g>
	<g>
		<g>
			<g>
				<path fill="#F5B54C" d="M24.4,27.4c0,0,1.3,2.1,1.9,2.4c0,0,2.2-0.5,3.8,2c0,0-1.6-2.3-3.8-2l-1.2,0.1c0,0,0.2-0.8,0-1.1
					C25,28.7,24,27.3,24,27.3L24.4,27.4z"/>
			</g>
		</g>
	</g>
	<g>
		<g>
			<g>
				<path fill="#425A6B" d="M27.8,19c0,0,0.4,1.8,0,2.5c-0.4,0.8-0.3,1.2-0.1,1.5c0.1,0.4,1.8,3.7,1.8,3.7s-2.8,1.3-5.1,0.9
					c-2.4-0.4-2.4-0.4-2.4-0.4s-0.6-5,0.5-6.9S27.3,18.4,27.8,19z"/>
			</g>
		</g>
	</g>
	<g>
		<g>
			<g>
				<g>
					<path fill="#F05640" d="M20.7,5.6c0,0-0.1-3.7,0.8-5.4c0,0,0.2-0.5,0.7,0c0.5,0.5,3.2,4,3.2,4L20.7,5.6z"/>
				</g>
			</g>
		</g>
		<g>
			<g>
				<g>
					<polygon fill="#F05640" points="18.1,8 19.9,6.8 19.8,8.3 					"/>
				</g>
			</g>
		</g>
		<g>
			<g>
				<g>
					<g>
						<path fill="#F26F5A" d="M28.5,6.6c-0.2,0.5-0.5,1-1,1.2c-0.2,0-0.4,0-0.6,0.1c-0.3,0.1-0.6,0.3-0.8,0.4
							c-0.8,0.6-1.7,1-2.6,1.4c-0.3,0.1-0.6,0.3-1,0.4c-1.5,0.4-3.3-0.2-4.2-1.5C18.1,8.4,18,8.3,18,8.2c0,0,0,0,0,0
							c0-0.2,0.1-0.4,0.3-0.3c0.2,0,0.3,0.1,0.5,0c0.2-0.1,0.3-0.1,0.4-0.3c0.2-0.2,0.2-0.5,0.2-0.8c0-0.3,0.1-0.6,0.2-0.9
							c0.1-0.2,0.2-0.5,0.3-0.7c0.1-0.2,0.3-0.4,0.6-0.5c0.9-0.6,2-0.8,3.1-0.9c1.3-0.2,2.6-0.4,3.9-0.1C28,3.8,28.3,4,28.5,4.3
							c0.1,0.2,0.1,0.3,0.1,0.5C28.7,5.4,28.6,6,28.5,6.6z"/>
					</g>
				</g>
			</g>
			<g>
				<g>
					<path fill="#F05640" d="M18.3,8.5"/>
				</g>
			</g>
		</g>
	</g>
	<g>
		<g>
			<g>
				<path fill="#425A6B" d="M26.2,12.3c-1-0.6-1.6-1.8-1.5-3c0,0.6-0.1,1.1-0.1,1.7c-0.1-0.4-0.1-0.8-0.1-1.1c0-0.2,0-0.3,0-0.5
					c0-0.2,0.1-0.3,0.2-0.5c0.1-0.3,0.2-0.6,0.2-0.9c0,0,0,0.1-0.1,0.1c-0.2,0.5-0.5,0.9-0.7,1.4c-0.1,0.2-0.2,0.4-0.2,0.7
					c-0.1-0.7,0-1.4,0.3-2c0.1-0.2,0.2-0.4,0.3-0.7c0.1-0.3,0.2-0.7,0.3-1C25,6,25.1,5.1,25.1,4.5c0,0,0,0,0,0c0.1,0,0.2,0,0.3,0
					c0.2,0.1,0.3,0.3,0.4,0.5C26,5.3,26,5.7,26,6c0,0.4,0,0.8-0.1,1.2c-0.1,0.2-0.1,0.4-0.2,0.6c-0.2,0.5-0.3,1.1-0.3,1.7
					c0,0.2-0.1,0.4-0.1,0.7C25.3,11,25.7,11.7,26.2,12.3z"/>
			</g>
		</g>
	</g>
	<g>
		<g>
			<g>
				<path fill="#FFD15C" d="M27.1,12.8l-3.1,2l-0.6,0.1c0,0-0.5,2-0.7,2.4c-0.2,0.4-0.2,1.3,0,1.6c0.1,0.3-0.2,3.3-0.2,3.9
					c0,0.6-0.1,2.3-0.2,2.5c-0.1,0.1-0.2,1-0.3,1.5c0,0.1-0.1,0.3-0.1,0.4c-0.1,0.1-0.1,0.3-0.1,0.4c0,0.3,0,0.6,0,0.6l0.2,0.3
					c0,0-0.5,0.1-0.6-0.2l-0.1-0.2c0,0-0.1,0.1-0.2,0.3c-0.1,0.2-0.5,0.7-0.5,0.7l-0.4,0.4c-0.2,0.2-0.4,0-0.2-0.2l-0.4,0.3
					c-0.2,0.2-0.4-0.1-0.2-0.3c0,0,0.8-1.1,1-1.3l-0.9,1c-0.2,0.2-0.5-0.1-0.3-0.3l1-1.5l-0.9,1.1c-0.2,0.2-0.4,0-0.2-0.2l0.6-1
					c0,0,0.5-1.3,1-1.8c0,0,0.1-0.3,0.1-0.8c-0.1-0.5-0.3-4-0.3-4.5c0-0.5,0-1.7,0.2-2.6C20.8,16.4,21,13,21,13l0.6-2.2l0.5-2.4
					l0.2-3.1c0.8-0.5,1.7-0.8,2.8-0.8c0,0,0.1,0,0.1,0c0.1,0.4,0.2,1,0.1,1.2c0,0-0.1,0.1,0,0.4c0,0.2,0.1,1-0.2,1.4
					c-0.3,0.5-0.7,1.1-0.8,1.3C24.2,9.1,24,9.1,24,9.1s0.1,1.2,0.5,1.5c0.4,0.4,1.8,1.3,2.1,1.4L27.1,12.8z"/>
			</g>
		</g>
	</g>
	<g>
		<g>
			<g>
				<path fill="#F5B54C" d="M24.2,10.1c-1.1-0.3-1.8-1-2.2-1.5l0-0.1c0.9,0.6,2,0.5,2,0.5S24.1,9.7,24.2,10.1z"/>
			</g>
		</g>
	</g>
	<g>
		<g>
			<g>
				<path fill="#425A6B" d="M23.5,10.5c0-0.3,0.1-0.6,0.1-0.8c0-0.3-0.1-0.6-0.3-0.7c-0.1,0.5-0.3,0.9-0.6,1.3
					c-0.3,0.4-0.6,0.7-0.9,1.1c-0.7,1-1.1,2.2-0.9,3.5c-0.2-0.7-0.4-1.3-0.5-2c-0.1-0.5,0-1,0-1.5c0-0.5,0-1.1,0-1.6
					c0-0.6-0.1-1.3-0.1-1.9c0,0,0.3-1.3,1.4-2c0.7-0.5,1.4-0.9,2.1-1.1c-0.1,0.2-0.2,0.3-0.2,0.5C23.1,6,23,6.9,23.2,7.7
					c0.1,0.5,0.3,0.9,0.4,1.4C23.8,9.5,23.7,10.1,23.5,10.5z"/>
			</g>
		</g>
	</g>
	<g>
		<g>
			<g>
				<path fill="#48B9A5" d="M23.4,14.8l0.1-0.2c0,0,1.3-0.4,1.8-0.9c0.6-0.5,1-1.4,1-1.8c0,0,0.5,0,1.2,0.7c0.7,0.7,0.3,2,0.3,2.2
					c-0.1,0.3,0.1,2.2,0.2,2.3c0.1,0.1,0.2,2.7,0.2,2.7s-1.5-0.9-2.7-0.6c-1.2,0.3-3.1,1.3-3.1,1.3s0.2-1,0.4-1.3
					c0.3-0.3,0-2.2,0-2.2L23.4,14.8z"/>
			</g>
		</g>
	</g>
	<g>
		<g>
			<g>
				<path fill="#344A5E" d="M25.5,29.9c0,0,0.5,0.1,0.7,0.3c0.2,0.2,0.9,1.3,0.6,2.2c-0.3,0.8-1.2,0.9-1.2,0.9s-3.1-0.3-4.3-0.5
					c-0.4-0.1-0.8-0.1-1.1-0.1c-0.6,0-1.2,0.4-1.5,0.9c-0.3,0.5-0.8,1-1.3,0.8l0.6-2.7c0,0,0.7-0.8,1.4-1.2c0.7-0.4,1.1-1.6,1.1-1.6
					s0.8,0.2,1.4,0.7c0.6,0.4,0.9,0.3,1.7,0.2C24.5,29.6,25.5,29.9,25.5,29.9z"/>
			</g>
		</g>
	</g>
	<g>
		<g>
			<g>
				<path fill="#425A6B" d="M17.2,33.9c0,0.1,0,0.2,0.1,0.3c0.1,0.2,0.2,0.4,0.5,0c0.3-0.6,0.8-1.8,0.9-2.4c0.1-0.6,0.1-0.9,0.6-1
					c0.5-0.1,1.8-1,1.7-1.8s-0.9-0.1-1,0.1c-0.1,0.2-1,0.1-1,0.1v0.2c0,0,0.9,0.1,0.9,0.6c-0.1,0.4-0.4,0.6-0.7,0.6
					c-0.3,0.1-1.5,0.7-1.8,1.2C17,32.3,17.1,33.4,17.2,33.9z"/>
			</g>
		</g>
	</g>
	<g>
		<g>
			<g>
				<path fill="#344A5E" d="M23.2,39.6c0,0,0.3-0.6,1-0.7c0.7,0,1.8-0.6,1.8-0.6s0.2,4.1,0.1,4.4c0,0.1,0,0.1,0,0.2
					c0,0.5,0.1,1,0.3,1.4c0.3,0.6,0.6,1.5,0.7,1.6c0,0,0,0.1,0.5,0.3c0.5,0.2,1.3,0.4,1.2,0.9c-0.1,0.5-2,0.8-2.5,0.4
					c-0.3-0.2-0.5-0.4-0.7-0.6c-0.3-0.3-0.6-0.5-1-0.7c-0.2-0.1-0.3-0.2-0.5-0.3c-0.7-0.3-1-0.5-1-0.9c0-0.4,0-2.6,0-2.6
					S22.8,40,23.2,39.6z"/>
			</g>
		</g>
	</g>
	<g>
		<g>
			<path fill="#FFD15C" d="M22.6,18.3h-2.1c0,0.6-0.1,1.2,0,1.5c0,0.5,0.3,4,0.3,4.5c0.1,0.5-0.1,0.8-0.1,0.8c-0.5,0.5-1,1.8-1,1.8
				l-0.6,1c-0.2,0.2,0.1,0.4,0.2,0.2l0.9-1.1l-1,1.5c-0.2,0.2,0.1,0.5,0.3,0.3l0.9-1c-0.1,0.2-1,1.3-1,1.3c-0.2,0.2,0,0.5,0.2,0.3
				l0.4-0.3c-0.2,0.2,0.1,0.4,0.2,0.2l0.4-0.4c0,0,0.4-0.5,0.5-0.7c0.1-0.2,0.2-0.3,0.2-0.3l0.1,0.2c0.1,0.3,0.6,0.2,0.6,0.2
				l-0.2-0.3c0,0,0-0.3,0-0.6c0-0.1,0-0.3,0.1-0.4c0.1-0.1,0.1-0.3,0.1-0.4c0.1-0.4,0.2-1.3,0.3-1.5c0.1-0.2,0.1-1.9,0.2-2.5
				c0-0.6,0.3-3.6,0.2-3.9C22.6,18.8,22.6,18.6,22.6,18.3z"/>
		</g>
	</g>
</g>
</svg>
