<?xml version="1.0" encoding="utf-8"?>
<!-- Generator: Adobe Illustrator 18.0.0, SVG Export Plug-In . SVG Version: 6.00 Build 0)  -->
<!DOCTYPE svg PUBLIC "-//W3C//DTD SVG 1.1//EN" "http://www.w3.org/Graphics/SVG/1.1/DTD/svg11.dtd">
<svg version="1.1" id="Layer_1" xmlns="http://www.w3.org/2000/svg" xmlns:xlink="http://www.w3.org/1999/xlink" x="0px" y="0px"
	 viewBox="0 0 48 48" enable-background="new 0 0 48 48" xml:space="preserve">
<g>
	<g>
		<g>
			<path fill="#415A6B" d="M12.6,4c1.7-1.5,3.7-3.4,4.6-3.5c4.5-0.6,9.1-0.6,13.8,0c1,0.2,1.9,1,2.8,1.9l-9.9,18.3L12.6,4z"/>
		</g>
	</g>
	<g>
		<path fill="#F3F3F3" d="M26.9,15.9c0,0-0.1,0-0.1,0l-7.6-3.1c-0.1-0.1-0.2-0.2-0.2-0.4c0.1-0.1,0.2-0.2,0.4-0.2l7.6,3.1
			c0.1,0.1,0.2,0.2,0.2,0.4C27.1,15.8,27,15.9,26.9,15.9z"/>
	</g>
	<g>
		<path fill="#F3F3F3" d="M30.5,9.7C30.5,9.7,30.5,9.7,30.5,9.7L15.6,6.6c-0.2,0-0.3-0.2-0.2-0.3c0-0.2,0.2-0.3,0.3-0.2l14.9,3.1
			c0.2,0,0.3,0.2,0.2,0.3C30.8,9.6,30.7,9.7,30.5,9.7z"/>
	</g>
	<g>
		<path fill="#F3F3F3" d="M17.5,9.7c-0.1,0-0.3-0.1-0.3-0.2c0-0.2,0.1-0.3,0.2-0.3L32.3,6c0.2,0,0.3,0.1,0.3,0.2
			c0,0.2-0.1,0.3-0.2,0.3L17.5,9.7C17.5,9.7,17.5,9.7,17.5,9.7z"/>
	</g>
	<g>
		<path fill="#F3F3F3" d="M21.1,15.9c-0.1,0-0.2-0.1-0.3-0.2c-0.1-0.1,0-0.3,0.2-0.4l7.6-3.1c0.1-0.1,0.3,0,0.4,0.2
			c0.1,0.1,0,0.3-0.2,0.4l-7.6,3.1C21.2,15.8,21.1,15.9,21.1,15.9z"/>
	</g>
	<g>
		<g>
			<g>
				<path fill="#F3705A" d="M45.4,40.7h-6.1L37,17.9c-3.5,6.9-0.6,19.4,1.8,27.8c-9.9,3.1-19.9,3.1-29.7,0
					c2.4-8.3,5.3-20.8,1.8-27.8L8.7,40.7H2.6C2.9,29.2,3.7,13.6,5.8,7C6.4,5.4,7.5,4.1,9,3.4c2.4-1.1,6.6-3,8.1-2.9
					c0,0-1.9,1.1-1.3,2.6C16.4,4.5,24,16.9,24,16.9S31.6,4.5,32.2,3c0.6-1.5-1.3-2.6-1.3-2.6c1.5,0,5.6,1.8,8.1,2.9
					c1.5,0.7,2.7,2,3.2,3.6C44.3,13.6,45.1,29.2,45.4,40.7z"/>
			</g>
		</g>
	</g>
	<g>
		<g>
			<g>
				<g>
					<circle fill="#344A5E" cx="30.5" cy="9.4" r="0.7"/>
				</g>
			</g>
			<g>
				<g>
					<circle fill="#344A5E" cx="26.9" cy="15.6" r="0.7"/>
				</g>
			</g>
			<g>
				<g>
					<circle fill="#344A5E" cx="15.6" cy="6.3" r="0.7"/>
				</g>
			</g>
			<g>
				<g>
					<circle fill="#344A5E" cx="19.3" cy="12.5" r="0.7"/>
				</g>
			</g>
			<g>
				<g>
					
						<path fill="none" stroke="#E8EAE9" stroke-width="2" stroke-linecap="round" stroke-linejoin="round" stroke-miterlimit="10" d="
						M30.5,9.4"/>
				</g>
				<g>
					
						<path fill="none" stroke="#E8EAE9" stroke-width="2" stroke-linecap="round" stroke-linejoin="round" stroke-miterlimit="10" d="
						M15.6,6.3"/>
				</g>
			</g>
		</g>
		<g>
			<g>
				<g>
					<circle fill="#344A5E" cx="17.5" cy="9.4" r="0.7"/>
				</g>
			</g>
			<g>
				<g>
					<circle fill="#344A5E" cx="21.1" cy="15.6" r="0.7"/>
				</g>
			</g>
			<g>
				<g>
					<circle fill="#344A5E" cx="32.3" cy="6.3" r="0.7"/>
				</g>
			</g>
			<g>
				<g>
					<circle fill="#344A5E" cx="28.7" cy="12.5" r="0.7"/>
				</g>
			</g>
			<g>
				<g>
					
						<path fill="none" stroke="#E8EAE9" stroke-width="2" stroke-linecap="round" stroke-linejoin="round" stroke-miterlimit="10" d="
						M17.5,9.4"/>
				</g>
				<g>
					
						<path fill="none" stroke="#E8EAE9" stroke-width="2" stroke-linecap="round" stroke-linejoin="round" stroke-miterlimit="10" d="
						M32.3,6.3"/>
				</g>
			</g>
		</g>
	</g>
	<g>
		<path fill="#FFFFFF" d="M19.3,12.8c-0.1,0-0.2-0.1-0.3-0.2c0-0.2,0-0.3,0.2-0.4l11.3-3.1c0.2,0,0.3,0,0.4,0.2c0,0.2,0,0.3-0.2,0.4
			L19.3,12.8C19.3,12.8,19.3,12.8,19.3,12.8z"/>
	</g>
	<g>
		<path fill="#FFFFFF" d="M28.7,12.8C28.7,12.8,28.7,12.8,28.7,12.8L17.4,9.7c-0.2,0-0.2-0.2-0.2-0.4c0-0.2,0.2-0.2,0.4-0.2
			l11.3,3.1c0.2,0,0.2,0.2,0.2,0.4C29,12.7,28.9,12.8,28.7,12.8z"/>
	</g>
	<g>
		<path fill="#FFFFFF" d="M26.9,15.9h-5.8c-0.2,0-0.3-0.1-0.3-0.3s0.1-0.3,0.3-0.3h5.8c0.2,0,0.3,0.1,0.3,0.3S27.1,15.9,26.9,15.9z"
			/>
	</g>
	<g>
		<g>
			<path fill="#FFFFFF" d="M30.3,19.6c-0.1,0-0.1,0-0.2,0c-0.1-0.1-0.2-0.3-0.1-0.4c3.9-5.8,2.1-12.7,2-12.8c0-0.2,0-0.3,0.2-0.4
				c0.2,0,0.3,0,0.4,0.2c0,0.1,1.9,7.2-2.1,13.2C30.5,19.6,30.4,19.6,30.3,19.6z"/>
		</g>
	</g>
	<g>
		<g>
			<path fill="#FFFFFF" d="M17.9,19.6c-0.1,0-0.2,0-0.2-0.1c-3.4-3.7-2.3-12.8-2.3-13.2c0-0.2,0.2-0.3,0.3-0.3
				c0.2,0,0.3,0.2,0.3,0.3c0,0.1-1.1,9.3,2.1,12.8c0.1,0.1,0.1,0.3,0,0.4C18,19.6,17.9,19.6,17.9,19.6z"/>
		</g>
	</g>
</g>
</svg>
