<?xml version="1.0" encoding="utf-8"?>
<!-- Generator: Adobe Illustrator 18.0.0, SVG Export Plug-In . SVG Version: 6.00 Build 0)  -->
<!DOCTYPE svg PUBLIC "-//W3C//DTD SVG 1.1//EN" "http://www.w3.org/Graphics/SVG/1.1/DTD/svg11.dtd">
<svg version="1.1" id="Layer_1" xmlns="http://www.w3.org/2000/svg" xmlns:xlink="http://www.w3.org/1999/xlink" x="0px" y="0px"
	 viewBox="0 0 48 48" enable-background="new 0 0 48 48" xml:space="preserve">
<g>
	<g>
		<path fill="#415A6B" d="M45,40.1H3c-1.7,0-3-1.3-3-3V10.9c0-1.7,1.3-3,3-3h42c1.7,0,3,1.3,3,3v26.1C48,38.7,46.7,40.1,45,40.1z"/>
		<g>
			<rect x="4.2" y="33.3" fill="#344A5E" width="5.4" height="2.7"/>
			<rect x="12.4" y="33.3" fill="#344A5E" width="5.4" height="2.7"/>
			<rect x="20.6" y="33.3" fill="#344A5E" width="5.4" height="2.7"/>
			<rect x="28.8" y="33.3" fill="#344A5E" width="5.4" height="2.7"/>
			<rect x="37" y="33.3" fill="#344A5E" width="5.4" height="2.7"/>
			<path fill="#344A5E" d="M31.9,12.6c-4.5,1.7-6.8,6.8-5.1,11.3c1.7,4.5,6.8,6.8,11.3,5.1c4.5-1.7,6.8-6.8,5.1-11.3
				C41.5,13.2,36.4,10.9,31.9,12.6z M27.7,24l2.9-1.1c0.5,1.3,1.1,2.4,1.8,3.3l-2.3,0.9C29.1,26.3,28.2,25.3,27.7,24z M33.6,16
				l-1-2.8c1.1-0.2,2.4,0.5,3.6,1.8L33.6,16z M36.7,15.7c0.7,0.9,1.4,2,1.9,3.3l-3.4,1.3l-1.3-3.5L36.7,15.7z M31.8,13.5l1,2.8
				l-2.5,1C30.3,15.5,30.8,14.1,31.8,13.5z M33.1,17.1l1.3,3.5l-3.4,1.3c-0.4-1.3-0.7-2.6-0.8-3.7L33.1,17.1z M30.3,22.1l-2.9,1.1
				c-0.4-1.3-0.5-2.6-0.2-3.9l2.3-0.9C29.6,19.6,29.8,20.9,30.3,22.1z M31.3,22.6l3.4-1.3l1.3,3.5l-2.8,1.1
				C32.5,25,31.9,23.9,31.3,22.6z M36.3,25.6l1,2.8c-1.1,0.2-2.4-0.5-3.6-1.8L36.3,25.6z M38.2,28.1l-1-2.8l2.5-1
				C39.6,26.1,39.1,27.5,38.2,28.1z M36.8,24.5L35.5,21l3.4-1.3c0.4,1.3,0.7,2.6,0.8,3.7L36.8,24.5z M39.6,19.5l2.9-1.1
				c0.4,1.3,0.5,2.6,0.2,3.9l-2.3,0.9C40.4,22,40.1,20.8,39.6,19.5z M39.4,18.7c-0.5-1.3-1.1-2.4-1.8-3.3l2.3-0.9
				c1,0.8,1.9,1.8,2.4,3.1L39.4,18.7z M39,14L37,14.7c-0.7-0.9-1.5-1.5-2.4-1.9C36.2,12.8,37.7,13.2,39,14z M30,14.6
				c-0.3,0.8-0.5,1.8-0.5,3l-2.1,0.8C27.9,16.9,28.7,15.6,30,14.6z M30.9,27.7l2.1-0.8c0.7,0.8,1.5,1.5,2.3,1.9
				C33.8,28.8,32.2,28.4,30.9,27.7z M40,27c0.3-0.8,0.5-1.8,0.5-3l2.1-0.8C42.1,24.7,41.2,26,40,27z"/>
			<path fill="#FFFFFF" d="M6.2,17.6H4.3v-4.4H6c0.3,0,0.5,0,0.8,0.1c0.2,0.1,0.4,0.2,0.5,0.3c0.2,0.2,0.3,0.5,0.3,0.8
				c0,0.3-0.1,0.6-0.3,0.8c-0.1,0.1-0.1,0.1-0.2,0.1c0,0-0.1,0-0.2,0.1c0.3,0.1,0.5,0.2,0.6,0.4c0.2,0.2,0.2,0.4,0.2,0.7
				c0,0.3-0.1,0.6-0.3,0.8C7.2,17.4,6.8,17.6,6.2,17.6z M5.3,15h0.5c0.3,0,0.5,0,0.6-0.1c0.1-0.1,0.2-0.2,0.2-0.4s-0.1-0.3-0.2-0.4
				C6.2,14.1,6,14,5.7,14H5.3V15z M5.3,16.7h0.7c0.3,0,0.5,0,0.6-0.1c0.1-0.1,0.2-0.2,0.2-0.4c0-0.2-0.1-0.3-0.2-0.4
				c-0.1-0.1-0.4-0.1-0.7-0.1H5.3V16.7z"/>
			<path fill="#FFFFFF" d="M11.7,17.6l-0.4-0.9H9.4L9,17.6H8l1.9-4.4h0.9l1.9,4.4H11.7z M10.3,14.5l-0.5,1.3h1.1L10.3,14.5z"/>
			<path fill="#FFFFFF" d="M16.2,13.2h1v4.4h-1l-2.1-2.7v2.7h-1v-4.4h0.9l2.1,2.8V13.2z"/>
			<path fill="#FFFFFF" d="M18.3,13.2h1V15l1.6-1.8h1.2l-1.7,1.9c0.1,0.2,0.4,0.6,0.8,1.2c0.4,0.6,0.7,1,0.9,1.3H21l-1.3-1.7
				l-0.4,0.5v1.2h-1V13.2z"/>
			<g>
				<path fill="#FFD15C" d="M12.8,21.8H5.5c-0.6,0-1,0.5-1,1v6.5c0,0.6,0.5,1,1,1h7.2c0.6,0,1-0.5,1-1v-6.5
					C13.8,22.3,13.3,21.8,12.8,21.8z"/>
				<path fill="#F7B64C" d="M12.8,30.5H5.5c-0.7,0-1.2-0.5-1.2-1.2v-6.5c0-0.7,0.5-1.2,1.2-1.2h7.2c0.7,0,1.2,0.5,1.2,1.2v6.5
					C14,30,13.4,30.5,12.8,30.5z M5.5,22c-0.5,0-0.9,0.4-0.9,0.9v6.5c0,0.5,0.4,0.9,0.9,0.9h7.2c0.5,0,0.9-0.4,0.9-0.9v-6.5
					c0-0.5-0.4-0.9-0.9-0.9H5.5z"/>
			</g>
			<g>
				<path fill="#FFD15C" d="M7.1,23.4H4.5v1.8h2.6c0.5,0,0.9-0.4,0.9-0.9S7.6,23.4,7.1,23.4z"/>
				<path fill="#F7B64C" d="M7.1,25.4H4.3v-2.2h2.8c0.6,0,1.1,0.5,1.1,1.1S7.7,25.4,7.1,25.4z M4.7,25h2.4c0.4,0,0.7-0.3,0.7-0.7
					s-0.3-0.7-0.7-0.7H4.7V25z"/>
			</g>
			<g>
				<path fill="#FFD15C" d="M8,22.5c0-0.3-0.1-0.5-0.3-0.7H5.5c-0.6,0-1,0.5-1,1v0.6h2.6C7.6,23.4,8,23,8,22.5z"/>
				<path fill="#F7B64C" d="M7.1,23.6H4.3v-0.7c0-0.7,0.5-1.2,1.2-1.2h2.2l0,0c0.3,0.2,0.4,0.5,0.4,0.8C8.2,23.1,7.7,23.6,7.1,23.6z
					 M4.7,23.2h2.4c0.4,0,0.7-0.3,0.7-0.7c0-0.2-0.1-0.4-0.2-0.5H5.5c-0.5,0-0.9,0.4-0.9,0.9V23.2z"/>
			</g>
			<g>
				<path fill="#FFD15C" d="M7.1,25.2H4.5V27h2.6C7.6,27,8,26.6,8,26.1S7.6,25.2,7.1,25.2z"/>
				<path fill="#F7B64C" d="M7.1,27.2H4.3V25h2.8c0.6,0,1.1,0.5,1.1,1.1C8.2,26.7,7.7,27.2,7.1,27.2z M4.7,26.9h2.4
					c0.4,0,0.7-0.3,0.7-0.7s-0.3-0.7-0.7-0.7H4.7V26.9z"/>
			</g>
			<g>
				<path fill="#FFD15C" d="M7.1,27H4.5v1.8h2.6c0.5,0,0.9-0.4,0.9-0.9S7.6,27,7.1,27z"/>
				<path fill="#F7B64C" d="M7.1,29H4.3v-2.2h2.8c0.6,0,1.1,0.5,1.1,1.1C8.2,28.5,7.7,29,7.1,29z M4.7,28.7h2.4
					c0.4,0,0.7-0.3,0.7-0.7s-0.3-0.7-0.7-0.7H4.7V28.7z"/>
			</g>
			<g>
				<g>
					<path fill="#FFD15C" d="M11.2,28.5h2.6l0-1.8l-2.6,0c-0.5,0-0.9,0.4-0.9,0.9S10.7,28.5,11.2,28.5z"/>
					<path fill="#F7B64C" d="M14,28.7h-2.8c-0.6,0-1.1-0.5-1.1-1.1c0-0.6,0.5-1.1,1.1-1.1H14V28.7z M11.2,26.9
						c-0.4,0-0.7,0.3-0.7,0.7s0.3,0.7,0.7,0.7h2.4v-1.5H11.2z"/>
				</g>
				<g>
					<path fill="#FFD15C" d="M10.3,29.4c0,0.5,0.4,0.9,0.9,0.9h1.6c0.6,0,1-0.5,1-1v-0.8h-2.6C10.7,28.5,10.3,28.9,10.3,29.4z"/>
					<path fill="#F7B64C" d="M12.8,30.5h-1.6c-0.6,0-1.1-0.5-1.1-1.1s0.5-1.1,1.1-1.1H14v1C14,30,13.4,30.5,12.8,30.5z M11.2,28.7
						c-0.4,0-0.7,0.3-0.7,0.7s0.3,0.7,0.7,0.7h1.6c0.5,0,0.9-0.4,0.9-0.9v-0.6H11.2z"/>
				</g>
				<g>
					<path fill="#FFD15C" d="M11.2,26.7l2.6,0l0-1.8l-2.6,0c-0.5,0-0.9,0.4-0.9,0.9S10.7,26.7,11.2,26.7z"/>
					<path fill="#F7B64C" d="M14,26.9h-2.8c-0.6,0-1.1-0.5-1.1-1.1s0.5-1.1,1.1-1.1H14V26.9z M11.2,25.1c-0.4,0-0.7,0.3-0.7,0.7
						s0.3,0.7,0.7,0.7h2.4v-1.5H11.2z"/>
				</g>
			</g>
		</g>
	</g>
</g>
</svg>
