<?xml version="1.0" encoding="utf-8"?>
<!-- Generator: Adobe Illustrator 16.0.0, SVG Export Plug-In . SVG Version: 6.00 Build 0)  -->
<!DOCTYPE svg PUBLIC "-//W3C//DTD SVG 1.1//EN" "http://www.w3.org/Graphics/SVG/1.1/DTD/svg11.dtd">
<svg version="1.1" id="Layer_1" xmlns="http://www.w3.org/2000/svg" xmlns:xlink="http://www.w3.org/1999/xlink" x="0px" y="0px"
	 width="48px" height="48px" viewBox="0 0 48 48" enable-background="new 0 0 48 48" xml:space="preserve">
<g>
	<path fill="#40596B" d="M43.534,34.586v4.73c0,2.853-2.322,5.175-5.176,5.175H24.001v2h14.357c3.957,0,7.176-3.218,7.176-7.175
		v-4.73H43.534z"/>
	<path fill="#FFD15C" d="M27.323,45.617C27.323,46.934,25.836,48,24,48s-3.324-1.066-3.324-2.383s1.488-2.383,3.324-2.383
		S27.323,44.301,27.323,45.617"/>
	<path fill="#E8EAEA" d="M24,0.8c-13.233,0-24,10.767-24,24v5.345h5.706L3.5,24.8C3.5,13.496,12.696,4.3,24,4.3
		s20.5,9.196,20.5,20.5l-1.487,5.345H48V24.8C48,11.566,37.233,0.8,24,0.8"/>
	<path fill="#E8EAEA" d="M6.932,22.964c-3.851,0.14-6.931,3.297-6.931,7.181s3.08,7.041,6.931,7.18V22.964z"/>
	<path fill="#E8EAEA" d="M41.068,22.964c3.851,0.14,6.931,3.297,6.931,7.181s-3.08,7.041-6.931,7.18V22.964z"/>
	<path fill="#40596B" d="M8.288,20.951c-1.104,0-2,0.896-2,2v14.387c0,1.104,0.896,2,2,2c1.104,0,2-0.896,2-2V22.951
		C10.288,21.848,9.392,20.951,8.288,20.951"/>
	<path fill="#40596B" d="M39.712,20.951c-1.104,0-2,0.896-2,2v14.387c0,1.104,0.896,2,2,2c1.104,0,2-0.896,2-2V22.951
		C41.712,21.848,40.816,20.951,39.712,20.951"/>
	<path fill="#FF7058" d="M17.706,29.399c0.237-0.336,0.356-0.66,0.356-0.975c0-0.313-0.103-0.574-0.31-0.786
		c-0.205-0.21-0.469-0.314-0.793-0.314c-0.59,0-1.149,0.421-1.679,1.263l-1.679-0.995c0.439-0.68,0.921-1.194,1.443-1.545
		c0.524-0.348,1.192-0.522,2.002-0.522c0.811,0,1.523,0.258,2.137,0.772s0.92,1.215,0.92,2.103c0,0.482-0.123,0.945-0.369,1.39
		c-0.247,0.443-0.701,1.009-1.363,1.699l-1.693,1.76h3.707v1.88h-6.621v-1.557l2.754-2.822
		C17.073,30.186,17.47,29.735,17.706,29.399"/>
	<polygon fill="#FF7058" points="25.37,31.071 25.37,29.433 27.385,29.433 27.385,31.071 28.446,31.071 28.446,32.886 
		27.385,32.886 27.385,35.129 25.37,35.129 25.37,32.886 21.595,32.886 21.595,31.287 24.939,25.739 27.224,25.739 24.04,31.071 	
		"/>
	<path fill="#FF7058" d="M31.286,32.571v2.558h-1.323v-6.542h1.323v2.327c0.4-0.405,0.847-0.608,1.344-0.608s0.915,0.177,1.257,0.53
		c0.341,0.352,0.511,0.822,0.511,1.409v2.884h-1.322v-2.593c0-0.728-0.268-1.093-0.803-1.093c-0.265,0-0.494,0.096-0.691,0.286
		C31.384,31.921,31.286,32.201,31.286,32.571"/>
	<path fill="#40596B" d="M39.147,5.209C34.954,1.955,29.706,0,24.001,0C18.294,0,13.046,1.955,8.853,5.209
		C8.534,5.455,8.49,5.922,8.745,6.233l2.234,2.716c0.297,0.361,0.82,0.411,1.193,0.128c3.297-2.489,7.388-3.979,11.828-3.979
		c4.438,0,8.529,1.489,11.826,3.979c0.372,0.283,0.896,0.233,1.194-0.128l2.233-2.716C39.509,5.923,39.466,5.456,39.147,5.209"/>
</g>
</svg>
