<?xml version="1.0" encoding="utf-8"?>
<!-- Generator: Adobe Illustrator 18.0.0, SVG Export Plug-In . SVG Version: 6.00 Build 0)  -->
<!DOCTYPE svg PUBLIC "-//W3C//DTD SVG 1.1//EN" "http://www.w3.org/Graphics/SVG/1.1/DTD/svg11.dtd">
<svg version="1.1" id="Layer_1" xmlns="http://www.w3.org/2000/svg" xmlns:xlink="http://www.w3.org/1999/xlink" x="0px" y="0px"
	 viewBox="0 0 48 48" enable-background="new 0 0 48 48" xml:space="preserve">
<g>
	<g>
		<g>
			<path fill="#F3705A" d="M48,29.4V3c0-1.7-1.3-3-3-3H3C1.3,0,0,1.3,0,3v26.4c0,1.7,1.3,3,3,3h42C46.7,32.4,48,31,48,29.4z"/>
		</g>
		<g>
			<g>
				<g>
					<g>
						<g>
							<g>
								<g>
									<rect x="8.6" y="32.9" fill="#F7B64C" width="5.8" height="6"/>
								</g>
								<g>
									<g>
										<g>
											<path fill="#415A6B" d="M22.9,48L22,43.8c-0.3-1.3-1.1-2.4-2.3-3l-4.8-2.3l-3.4-0.4L8,38.5l-4.8,2.3
												c-1.2,0.6-2,1.7-2.3,3L0,48H22.9z"/>
										</g>
									</g>
								</g>
								<g>
									<g>
										<g>
											<path fill="#FFD15C" d="M17,31c-0.2,0.9-0.8,1.5-1.3,1.4c-0.5-0.1-0.8-0.8-0.6-1.7c0.2-0.9,0.8-1.6,1.3-1.5
												C17,29.3,17.2,30.2,17,31z"/>
										</g>
										<g>
											<path fill="#FFD15C" d="M5.9,31c0.2,0.9,0.8,1.5,1.3,1.4c0.5-0.1,0.8-0.8,0.6-1.7c-0.2-0.9-0.8-1.6-1.3-1.5
												C5.9,29.3,5.7,30.2,5.9,31z"/>
										</g>
									</g>
									<g>
										<path fill="#415A6B" d="M15.3,33.5c-1.5,2.7-3.8,2.4-3.8,2.4s-2.3,0.3-3.8-2.4c-1.5-2.7-2.9-10,3.8-10.3
											C18.2,23.5,16.8,30.8,15.3,33.5z"/>
									</g>
								</g>
							</g>
							<g>
								<g>
									<path fill="#E8EAE9" d="M14.6,37.9v-1c0-0.7-1.4-1.2-3.1-1.2c-1.7,0-3.1,0.5-3.1,1.2v1H14.6z"/>
								</g>
							</g>
							<g>
								<g>
									<path fill="#344A5E" d="M16.1,39.1c0,0-3.6-0.9-4.7-0.8c-1.1-0.1-4.7,0.8-4.7,0.8c0.7-1,1.7-1.8,2.9-2.2
										c0.6-0.2,1.2-0.3,1.8-0.3c0.5,0,1.2,0.1,1.8,0.3C14.5,37.3,15.5,38.1,16.1,39.1z"/>
								</g>
							</g>
						</g>
					</g>
				</g>
			</g>
			<g>
				<g>
					<g>
						<g>
							<g>
								<g>
									<rect x="33.6" y="32.9" fill="#F7B64C" width="5.8" height="6"/>
								</g>
								<g>
									<g>
										<g>
											<path fill="#415A6B" d="M48,48l-0.9-4.2c-0.3-1.3-1.1-2.4-2.3-3L40,38.5l-3.4-0.4l-3.4,0.4l-4.8,2.3
												c-1.2,0.6-2,1.7-2.3,3L25.1,48H48z"/>
										</g>
									</g>
								</g>
								<g>
									<g>
										<g>
											<path fill="#FFD15C" d="M42.1,31c-0.2,0.9-0.8,1.5-1.3,1.4c-0.5-0.1-0.8-0.8-0.6-1.7c0.2-0.9,0.8-1.6,1.3-1.5
												C42.1,29.3,42.3,30.2,42.1,31z"/>
										</g>
										<g>
											<path fill="#FFD15C" d="M31,31c0.2,0.9,0.8,1.5,1.3,1.4c0.5-0.1,0.8-0.8,0.6-1.7c-0.2-0.9-0.8-1.6-1.3-1.5
												C31,29.3,30.8,30.2,31,31z"/>
										</g>
									</g>
									<g>
										<path fill="#415A6B" d="M40.3,33.5c-1.5,2.7-3.8,2.4-3.8,2.4s-2.3,0.3-3.8-2.4c-1.5-2.7-2.9-10,3.8-10.3
											C43.2,23.5,41.9,30.8,40.3,33.5z"/>
									</g>
								</g>
							</g>
							<g>
								<g>
									<path fill="#E8EAE9" d="M39.7,37.9v-1c0-0.7-1.4-1.2-3.1-1.2c-1.7,0-3.1,0.5-3.1,1.2v1H39.7z"/>
								</g>
							</g>
							<g>
								<g>
									<path fill="#344A5E" d="M41.2,39.1c0,0-3.6-0.9-4.7-0.8c-1.1-0.1-4.7,0.8-4.7,0.8c0.7-1,1.7-1.8,2.9-2.2
										c0.6-0.2,1.2-0.3,1.8-0.3c0.5,0,1.2,0.1,1.8,0.3C39.5,37.3,40.6,38.1,41.2,39.1z"/>
								</g>
							</g>
						</g>
					</g>
				</g>
			</g>
		</g>
		<g>
			<g>
				<circle fill="#FFFFFF" cx="24" cy="10.7" r="4.3"/>
			</g>
			<g>
				<path fill="#FFFFFF" d="M31.2,18.5c-4.6-2.1-9.9-2.1-14.5,0c-1,0.5-1.7,1.6-1.7,2.7v2.3c2.5,1.9,5.6,3,8.9,3s6.4-1.1,8.9-3v-2.3
					C32.9,20.1,32.3,19,31.2,18.5z"/>
			</g>
		</g>
	</g>
</g>
</svg>
