<?xml version="1.0" encoding="utf-8"?>
<!-- Generator: Adobe Illustrator 20.1.0, SVG Export Plug-In . SVG Version: 6.00 Build 0)  -->
<!DOCTYPE svg PUBLIC "-//W3C//DTD SVG 1.1//EN" "http://www.w3.org/Graphics/SVG/1.1/DTD/svg11.dtd">
<svg version="1.1" id="Layer_1" xmlns="http://www.w3.org/2000/svg" xmlns:xlink="http://www.w3.org/1999/xlink" x="0px" y="0px"
	 viewBox="0 0 49 49" enable-background="new 0 0 49 49" xml:space="preserve">
<g>
	<path fill="#E2E7ED" d="M48.5,14.2v32.3c0,1.1-0.9,2-2,2h-44c-1.1,0-2-0.9-2-2V14.2H48.5z"/>
	<g>
		<rect x="17.7" y="34.6" fill="#54C0EB" width="13.9" height="9.3"/>
		<rect x="32.8" y="34.6" fill="#54C0EB" width="13.9" height="9.3"/>
	</g>
	<path fill="#40596B" d="M1.9,48.5V31.6c0-0.8,0.7-1.5,1.5-1.5h10.3c0.8,0,1.5,0.7,1.5,1.5v16.9H1.9z"/>
	<g>
		<polygon fill="#FF7058" points="22.2,30.1 18.2,30.1 16.3,34.5 20.8,34.5 		"/>
		<polygon fill="#F2F2F2" points="26.2,30.1 22.2,30.1 20.8,34.5 25.4,34.5 		"/>
		<polygon fill="#FF7058" points="30.2,30.1 26.2,30.1 25.4,34.5 29.9,34.5 		"/>
		<polygon fill="#F2F2F2" points="34.2,30.1 30.2,30.1 29.9,34.5 34.5,34.5 		"/>
		<polygon fill="#FF7058" points="38.2,30.1 34.2,30.1 34.5,34.5 39,34.5 		"/>
		<polygon fill="#F2F2F2" points="42.2,30.1 38.2,30.1 39,34.5 43.5,34.5 		"/>
		<polygon fill="#FF7058" points="46.2,30.1 42.2,30.1 43.5,34.5 48.1,34.5 		"/>
		<g>
			<path fill="#F1543F" d="M16.3,34.5v0.2c0,1.3,1,2.3,2.3,2.3c1.3,0,2.3-1,2.3-2.3v-0.2H16.3z"/>
			<path fill="#CDD6E0" d="M20.8,34.5v0.2c0,1.3,1,2.3,2.3,2.3c1.3,0,2.3-1,2.3-2.3v-0.2H20.8z"/>
			<path fill="#F1543F" d="M25.4,34.5v0.2c0,1.3,1,2.3,2.3,2.3c1.3,0,2.3-1,2.3-2.3v-0.2H25.4z"/>
			<path fill="#CDD6E0" d="M29.9,34.5v0.2c0,1.3,1,2.3,2.3,2.3c1.3,0,2.3-1,2.3-2.3v-0.2H29.9z"/>
			<path fill="#F1543F" d="M34.5,34.5v0.2c0,1.3,1,2.3,2.3,2.3c1.3,0,2.3-1,2.3-2.3v-0.2H34.5z"/>
			<path fill="#CDD6E0" d="M39,34.5v0.2c0,1.3,1,2.3,2.3,2.3s2.3-1,2.3-2.3v-0.2H39z"/>
			<path fill="#F1543F" d="M43.5,34.5v0.2c0,1.3,1,2.3,2.3,2.3c1.3,0,2.3-1,2.3-2.3v-0.2H43.5z"/>
		</g>
	</g>
	<g>
		<rect x="9.3" y="19.6" fill="#54C0EB" width="5.1" height="5.1"/>
		<rect x="21.9" y="19.6" fill="#54C0EB" width="5.1" height="5.1"/>
		<rect x="34.6" y="19.6" fill="#54C0EB" width="5.1" height="5.1"/>
	</g>
	<rect x="0.5" y="10.3" fill="#CDD6E0" width="48" height="4"/>
	<path fill="#F1543F" d="M47.7,0.5H1.3c-0.4,0-0.8,0.4-0.8,0.8v8.9h48V1.3C48.5,0.9,48.1,0.5,47.7,0.5z"/>
</g>
</svg>
