<?xml version="1.0" encoding="utf-8"?>
<!-- Generator: Adobe Illustrator 18.0.0, SVG Export Plug-In . SVG Version: 6.00 Build 0)  -->
<!DOCTYPE svg PUBLIC "-//W3C//DTD SVG 1.1//EN" "http://www.w3.org/Graphics/SVG/1.1/DTD/svg11.dtd">
<svg version="1.1" id="Layer_1" xmlns="http://www.w3.org/2000/svg" xmlns:xlink="http://www.w3.org/1999/xlink" x="0px" y="0px"
	 viewBox="0 0 512 512" enable-background="new 0 0 512 512" xml:space="preserve">
<g>
	<path fill="#41596B" d="M501.1,244.8L440.7,18.1c-3.1-11.6-14.9-18.4-26.5-15.4L28.5,105.4c-18,4.8-28.7,23.2-23.9,41.2l57.3,215.1
		c4.8,18,23.2,28.7,41.2,23.9L477.2,286C495.2,281.2,505.9,262.8,501.1,244.8z"/>
	
		<rect x="13.9" y="129.7" transform="matrix(-0.9663 0.2573 -0.2573 -0.9663 514.1843 243.7267)" fill="#334A5E" width="454.5" height="51.5"/>
	<path fill="#89D6F7" d="M487.4,216.6H69.8c-11.7,0-21.2,9.5-21.2,21.2v251c0,11.7,9.5,21.2,21.2,21.2h417.5
		c11.7,0,21.2-9.5,21.2-21.2v-251C508.5,226.1,499.1,216.6,487.4,216.6z"/>
	<path fill="#FFFFFF" d="M472.8,318.8H365.5c-1.1,0-2-0.9-2-2v-64.5c0-1.1,0.9-2,2-2h107.3c1.1,0,2,0.9,2,2v64.5
		C474.8,317.9,474,318.8,472.8,318.8z"/>
	<rect x="82.4" y="424.8" fill="#FFD05C" width="69.8" height="26.2"/>
	<rect x="189.9" y="424.8" fill="#F2705B" width="69.8" height="26.2"/>
	<rect x="297.5" y="424.8" fill="#FFD05C" width="69.8" height="26.2"/>
	<rect x="405.1" y="424.8" fill="#F2705B" width="69.8" height="26.2"/>
	<rect x="82.4" y="358.6" fill="#55BFE9" width="222.5" height="26.2"/>
	<rect x="82.4" y="292.5" fill="#F2F2F2" width="139.6" height="26.2"/>
</g>
</svg>
