<?xml version="1.0" encoding="utf-8"?>
<!-- Generator: Adobe Illustrator 16.0.0, SVG Export Plug-In . SVG Version: 6.00 Build 0)  -->
<!DOCTYPE svg PUBLIC "-//W3C//DTD SVG 1.1//EN" "http://www.w3.org/Graphics/SVG/1.1/DTD/svg11.dtd">
<svg version="1.1" id="Layer_1" xmlns="http://www.w3.org/2000/svg" xmlns:xlink="http://www.w3.org/1999/xlink" x="0px" y="0px"
	 width="48px" height="48px" viewBox="0 0 48 48" enable-background="new 0 0 48 48" xml:space="preserve">
<g>
	<path fill="#40596B" d="M39.446,34.362c-1.163-0.275-3.176,2.389-3.176,2.389c0.85,3.033-1.481,2.846-1.481,2.846
		c0.953-0.732-1.205-2.201-1.205-2.201c-2.156-1.473-0.699-3.309-0.699-3.309c1.27-0.641-2.537-3.674-2.537-3.674
		c-1.389-0.744-0.629-3.213,0.136-4.959c0.683-1.557,1.04-3.246,1.131-4.943c0.397-7.396-0.532-6.82-0.532-6.82
		c-2.843-1.66-3.773-4.77-3.773-4.77s-3.83,4.619-9.073,5.932c0,0-1.065,0.789-1.489,4.311c-0.279,2.322,0.135,4.662,0.999,6.834
		c0.668,1.68,1.159,3.746-0.092,4.416c0,0,0.635,2.848-0.528,3.674c0,0-0.555,1.836-2.709,3.309c0,0-2.156,1.469-1.205,2.201
		c0,0-2.33,0.188-1.484-2.846c0,0-3.489,0-1.799-1.654c0,0-0.209-1.01-1.373-0.734c0,0-3.914-0.182,0.738-5.416
		c0,0-1.798-2,0.85-3.803c0,0-1.27-2.354,0.211-4.375c0,0,0.318-5.324,1.906-9.002c0,0,1.015-8.814,11.74-8.814
		c10.727,0,11.742,8.814,11.742,8.814c1.588,3.678,1.906,9.002,1.906,9.002c1.48,2.021,0.21,4.375,0.21,4.375
		c2.647,1.803,0.845,3.803,0.845,3.803C43.36,34.18,39.446,34.362,39.446,34.362"/>
	<path fill="#CDD6E0" d="M45.995,48H2.005l0.659-6.24c0.761-4.459,3.71-8.07,7.64-9.809c1.24-0.561,2.58-0.932,3.98-1.07h0.01
		c0.45-0.061,0.91-0.08,1.37-0.08h16.671c0.469,0,0.93,0.02,1.379,0.08c1.43,0.139,2.791,0.52,4.051,1.1
		c3.89,1.75,6.81,5.35,7.57,9.779L45.995,48z"/>
	<rect x="23.536" y="30.254" fill="#FFD15C" width="0.003" height="0.005"/>
	<rect x="24.028" y="18.391" fill="#FFD15C" width="0.003" height="0.005"/>
	<path fill="#F8B64C" d="M15.496,17.807c0.396,1.701,0.187,3.205-0.469,3.357c-0.654,0.154-1.508-1.102-1.904-2.803
		c-0.397-1.701-0.188-3.205,0.468-3.357C14.246,14.852,15.098,16.108,15.496,17.807"/>
	<path fill="#F8B64C" d="M32.55,17.807c-0.397,1.701-0.188,3.205,0.467,3.357c0.656,0.154,1.394-1.133,1.906-2.803
		c0.305-0.996,0.165-3.033-0.469-3.357C33.855,14.698,32.947,16.108,32.55,17.807"/>
	<path fill="#FFD15C" d="M33.414,22.752c-2.755,8.742-9.357,9.406-9.357,9.406s-6.602-0.664-9.356-9.406
		c0,0-1.474-4.559-0.237-8.359c0,0,0.756-6.484,9.594-6.484c8.839,0,9.596,6.484,9.596,6.484
		C34.888,18.194,33.414,22.752,33.414,22.752"/>
	<path fill="#F8B64C" d="M33.72,30.877c-0.01,0.42-0.101,0.85-0.301,1.26c-1.81,3.59-5.42,5.811-9.42,5.811
		c-4-0.01-7.609-2.23-9.41-5.799c-0.199-0.41-0.3-0.842-0.31-1.271c0.46-0.049,0.92-0.08,1.39-0.08h1.641v-2.92
		c3.02,3.9,6.75,4.281,6.75,4.281s3.689-0.371,6.709-4.221v2.859h1.57C32.81,30.797,33.269,30.829,33.72,30.877"/>
	<g opacity="0.1">
		<g>
			<defs>
				<rect id="SVGID_9_" x="20.955" y="27.938" width="12.762" height="9.469"/>
			</defs>
			<clipPath id="SVGID_2_">
				<use xlink:href="#SVGID_9_"  overflow="visible"/>
			</clipPath>
			<path clip-path="url(#SVGID_2_)" fill="#40596B" d="M33.716,30.877c-0.45-0.049-0.91-0.08-1.381-0.08h-1.569v-2.859
				c-3.021,3.85-6.71,4.221-6.71,4.221s-1.327-0.143-3.036-1.076c-0.011-0.006-0.021-0.008-0.031-0.012l-0.032,0.01l6.325,6.328
				c2.619-0.857,4.841-2.705,6.134-5.271C33.616,31.727,33.707,31.297,33.716,30.877"/>
		</g>
	</g>
	<path fill="#40596B" d="M28.174,4.208h-8.776c-2.641,0-4.955,1.77-5.648,4.318l-0.716,3.865l-0.573,2.363l1.508,1.35
		c0,0,3.432-1.707,5.149-3.355c0,0,0.215,1.074-1.36,2.076c0,0,2.577-0.285,4.725-2.076c0,0-0.215,1.146-2.219,2.148
		c0,0,5.869,0.645,9.735-3.508c0,0,0.798,3.736,4.019,4.596l1.637-1.445l-1.719-5.656l-0.158-0.52
		C33.029,5.895,30.753,4.208,28.174,4.208"/>
	<path fill="#FF7058" d="M29.115,36.612L26.845,48h-5.69l-2.271-11.389h0.01v0.01c1.531,0.85,3.271,1.318,5.101,1.318h0.011
		C25.834,37.94,27.584,37.471,29.115,36.612"/>
	<path fill="#F2F2F2" d="M23.554,48h-7.149l-1.521-1.67l2.301-5.199l-6.92-4.891l4.02-5.359h0.01c0.01,0.42,0.1,0.84,0.301,1.25
		c0.979,1.939,2.479,3.48,4.289,4.48h0.01v0.01L23.554,48z"/>
	<path fill="#F2F2F2" d="M30.825,41.131l2.3,5.199L31.605,48h-7.15l4.66-11.389c1.811-0.99,3.32-2.541,4.3-4.48
		c0.2-0.41,0.29-0.83,0.3-1.25l4.03,5.359L30.825,41.131z"/>
	<path fill="#ACB3BA" d="M29.738,28.86h-2.907v-1.5h2.907c3.181,0,5.768-2.586,5.768-5.766h1.5
		C37.005,25.6,33.746,28.86,29.738,28.86"/>
	<path fill="#FF7058" d="M26.333,26.723h-2.576c-0.758,0-1.373,0.613-1.373,1.371s0.615,1.373,1.373,1.373h2.576
		c0.758,0,1.373-0.615,1.373-1.373S27.091,26.723,26.333,26.723"/>
	<path fill="#ACB3BA" d="M37.675,16.788l-1.487-0.184l0.147-1.174c0.441-3.525-0.653-7.076-3.004-9.738
		c-2.352-2.666-5.737-4.193-9.291-4.193c-3.553,0-6.938,1.527-9.289,4.193c-2.352,2.662-3.446,6.213-3.004,9.738l0.146,1.174
		l-1.486,0.184l-0.147-1.172c-0.495-3.951,0.731-7.932,3.367-10.918c2.635-2.986,6.431-4.699,10.413-4.699
		c3.984,0,7.779,1.713,10.414,4.699c2.636,2.986,3.863,6.967,3.367,10.918L37.675,16.788z"/>
	<path fill="#F1543F" d="M13.353,13.172h0.307c0.373,0,0.678,0.303,0.678,0.678v8.045c0,0.375-0.305,0.678-0.678,0.678h-0.307
		c-0.373,0-0.678-0.303-0.678-0.678V13.85C12.675,13.475,12.98,13.172,13.353,13.172"/>
	<path fill="#FF7058" d="M11.623,13.977h1.053v7.791h-1.053c-0.802,0-1.451-0.65-1.451-1.451v-4.889
		C10.171,14.627,10.821,13.977,11.623,13.977"/>
	<path fill="#F1543F" d="M34.781,22.573h-0.307c-0.374,0-0.678-0.303-0.678-0.678V13.85c0-0.375,0.304-0.678,0.678-0.678h0.307
		c0.373,0,0.678,0.303,0.678,0.678v8.045C35.458,22.27,35.154,22.573,34.781,22.573"/>
	<path fill="#FF7058" d="M36.511,21.766h-1.053v-7.789h1.053c0.801,0,1.45,0.65,1.45,1.451v4.889
		C37.961,21.118,37.312,21.766,36.511,21.766"/>
</g>
</svg>
