<?xml version="1.0" encoding="utf-8"?>
<!-- Generator: Adobe Illustrator 18.0.0, SVG Export Plug-In . SVG Version: 6.00 Build 0)  -->
<!DOCTYPE svg PUBLIC "-//W3C//DTD SVG 1.1//EN" "http://www.w3.org/Graphics/SVG/1.1/DTD/svg11.dtd">
<svg version="1.1" id="Layer_1" xmlns="http://www.w3.org/2000/svg" xmlns:xlink="http://www.w3.org/1999/xlink" x="0px" y="0px"
	 viewBox="0 0 48 48" enable-background="new 0 0 48 48" xml:space="preserve">
<g>
	<path fill="#CDD6E0" d="M18.1,4.8C8.1,4.8,0,10.8,0,18.3c0,3.8,2.1,7.2,5.4,9.6l-3,6.5l8.2-3.8c2.3,0.8,4.8,1.2,7.5,1.2
		c10,0,18.1-6.1,18.1-13.5S28.1,4.8,18.1,4.8z"/>
	<path fill="#F2F2F2" d="M29.9,13.6c10,0,18.1,6.1,18.1,13.5c0,3.8-2.1,7.2-5.4,9.6l3,6.5l-8.2-3.8c-2.3,0.8-4.8,1.2-7.5,1.2
		c-10,0-18.1-6.1-18.1-13.5C11.8,19.7,19.9,13.6,29.9,13.6z"/>
	<path opacity="0.1" fill="#231F20" d="M11.8,27.1c0-7.5,8.1-13.5,18.1-13.5c1.9,0,3.7,0.2,5.5,0.6c-0.2-0.6-0.5-1.2-0.9-1.7
		c-1.5-0.3-3-0.4-4.6-0.4c-10.8,0-19.6,6.7-19.6,15c0,1.2,0.2,2.4,0.6,3.5c0.6,0.2,1.2,0.4,1.7,0.5C12.1,29.9,11.8,28.5,11.8,27.1z"
		/>
	<g>
		<circle fill="#FFD15C" cx="19.7" cy="27.2" r="3.1"/>
		<circle fill="#FFD15C" cx="29.9" cy="27.2" r="3.1"/>
		<circle fill="#FFD15C" cx="40.1" cy="27.2" r="3.1"/>
	</g>
</g>
</svg>
