<?xml version="1.0" encoding="utf-8"?>
<!-- Generator: Adobe Illustrator 19.0.1, SVG Export Plug-In . SVG Version: 6.00 Build 0)  -->
<svg version="1.1" id="Layer_1" xmlns="http://www.w3.org/2000/svg" xmlns:xlink="http://www.w3.org/1999/xlink" x="0px" y="0px"
	 viewBox="0 0 48 48" style="enable-background:new 0 0 48 48;" xml:space="preserve">
<style type="text/css">
	.st0{fill:#66C6B9;}
	.st1{fill:#F3F3F3;}
	.st2{fill:#415A6B;}
	.st3{fill:#CED6E0;}
	.st4{fill:#F3705A;}
	.st5{fill:#E8EAE9;}
	.st6{fill:#4ABAA5;}
	.st7{fill:#F05540;}
	.st8{fill:#FFD15C;}
	.st9{fill:#55C0EB;}
	.st10{fill:#8AD7F8;}
	.st11{fill:#344A5E;}
	.st12{fill:#FFFFFF;}
	.st13{fill:#F7B64C;}
	.st14{fill:#ADB3BA;}
	.st15{fill:#38A892;}
	.st16{fill:#ED9845;}
	.st17{fill:#2D4251;}
	.st18{fill:#304556;}
	.st19{fill:#A5AAAD;}
	.st20{fill:#2D4456;}
	.st21{fill:#4FB0E0;}
	.st22{fill:#2D4354;}
	.st23{fill:#E54C38;}
	.st24{fill:#2B4456;}
	.st25{fill:#2B404F;}
</style>
<g>
	<g>
		<g>
			<g>
				<g>
					<path class="st0" d="M43.9,45.9l2-2l-1.3-2.3c0.4-0.6,0.6-1.3,0.8-1.9l2.6-0.8l0-2.9l-2.6-0.7c-0.2-0.7-0.5-1.3-0.8-1.9
						l1.3-2.3l-2-2l-2.3,1.3c-0.6-0.4-1.3-0.6-1.9-0.8l-0.8-2.6H36l-0.7,2.6c-0.7,0.2-1.3,0.5-1.9,0.8L31,29l-2,2l1.3,2.3
						c-0.4,0.6-0.6,1.3-0.8,1.9L26.9,36l0,2.9l2.6,0.7c0.2,0.7,0.5,1.3,0.8,1.9L29,43.9l2,2l2.3-1.3c0.6,0.4,1.3,0.6,1.9,0.8L36,48
						h2.9l0.7-2.6c0.7-0.2,1.3-0.5,1.9-0.8L43.9,45.9z M35.4,39.5c-1.1-1.1-1.1-3,0-4.1c1.1-1.1,3-1.1,4.1,0c1.1,1.1,1.1,3,0,4.1
						C38.4,40.6,36.5,40.6,35.4,39.5z"/>
				</g>
			</g>
			<g>
				<path class="st6" d="M41.3,41.3c2.1-2.1,2.1-5.6,0-7.7s-5.6-2.1-7.7,0c-2.1,2.1-2.1,5.6,0,7.7C35.7,43.4,39.2,43.4,41.3,41.3z
					 M35.4,35.4c1.1-1.1,3-1.1,4.1,0s1.1,3,0,4.1c-1.1,1.1-3,1.1-4.1,0C34.3,38.4,34.3,36.5,35.4,35.4z"/>
			</g>
		</g>
		<g>
			<path class="st4" d="M29.2,17h-4.3c-0.1-0.6-0.3-1.3-0.5-1.9c-0.7-1.7-2.1-3-3.9-3.7c-0.5-0.2-1.1-0.3-1.7-0.4V6.6
				c0-0.5-0.4-0.9-0.9-0.9c-0.5,0-0.9,0.4-0.9,0.9V11c-0.6,0.1-1.3,0.3-1.9,0.5c-1.7,0.7-3,2.1-3.7,3.9C11.2,15.9,11,16.5,11,17H6.6
				c-0.5,0-0.9,0.4-0.9,0.9s0.4,0.9,0.9,0.9H11c0.1,0.7,0.3,1.3,0.5,1.9c1,2.3,3.2,3.8,5.5,4.1v4.3c0,0.5,0.4,0.9,0.9,0.9
				c0.5,0,0.9-0.4,0.9-0.9v-4.3c0.6-0.1,1.3-0.2,1.9-0.5h0c1.7-0.7,3-2.1,3.7-3.9c0.2-0.5,0.3-1.1,0.4-1.7h4.3
				c0.5,0,0.9-0.4,0.9-0.9S29.7,17,29.2,17z M22.8,19.8c-0.5,1.3-1.5,2.3-2.8,2.9c-0.4,0.2-0.8,0.3-1.2,0.3v-1.8
				c0-0.5-0.4-0.9-0.9-0.9c-0.5,0-0.9,0.4-0.9,0.9v1.8c-1.7-0.3-3.2-1.4-3.9-3c-0.2-0.4-0.3-0.8-0.3-1.2h1.8c0.5,0,0.9-0.4,0.9-0.9
				S15.1,17,14.6,17h-1.8c0.1-0.3,0.2-0.7,0.3-1c0.5-1.3,1.5-2.3,2.8-2.9c0.4-0.2,0.8-0.3,1.2-0.3v1.8c0,0.5,0.4,0.9,0.9,0.9
				c0.5,0,0.9-0.4,0.9-0.9v-1.8c0.3,0.1,0.7,0.1,1,0.3c1.3,0.5,2.3,1.5,2.9,2.8c0.2,0.4,0.3,0.8,0.3,1.2h-1.8
				c-0.5,0-0.9,0.4-0.9,0.9s0.4,0.9,0.9,0.9h1.9C23,19.1,22.9,19.5,22.8,19.8z"/>
			<g>
				<path class="st2" d="M34,26.9l1.8-4.6l-3.7-2.8c0.1-1.2,0.1-2.4-0.1-3.6l3.5-3l-2-4.6l-4.5,0.6c-0.8-0.9-1.6-1.8-2.6-2.5
					l0.4-4.6L22.2,0l-2.8,3.7c-1.2-0.1-2.4-0.1-3.6,0.1l-3-3.5l-4.6,2l0.6,4.5C8,7.5,7.1,8.4,6.4,9.4L1.8,9L0,13.6l3.7,2.8
					c-0.1,1.2-0.1,2.4,0.1,3.6l-3.5,3l2,4.6l4.5-0.6c0.8,0.9,1.6,1.8,2.6,2.5L9,34l4.6,1.8l2.8-3.7c1.2,0.1,2.4,0.1,3.6-0.1l3,3.5
					l4.6-2l-0.6-4.5c0.9-0.8,1.8-1.6,2.5-2.6L34,26.9z M14,27.8C8.6,25.7,5.9,19.5,8,14c2.1-5.5,8.3-8.2,13.8-6s8.2,8.3,6,13.8
					C25.7,27.3,19.5,30,14,27.8z"/>
			</g>
		</g>
	</g>
</g>
</svg>
