<?xml version="1.0" encoding="utf-8"?>
<!-- Generator: Adobe Illustrator 19.0.1, SVG Export Plug-In . SVG Version: 6.00 Build 0)  -->
<svg version="1.1" id="Layer_1" xmlns="http://www.w3.org/2000/svg" xmlns:xlink="http://www.w3.org/1999/xlink" x="0px" y="0px"
	 viewBox="0 0 48 48" style="enable-background:new 0 0 48 48;" xml:space="preserve">
<style type="text/css">
	.st0{fill:#66C6B9;}
	.st1{fill:#F3F3F3;}
	.st2{fill:#415A6B;}
	.st3{fill:#CED6E0;}
	.st4{fill:#F3705A;}
	.st5{fill:#E8EAE9;}
	.st6{fill:#4ABAA5;}
	.st7{fill:#F05540;}
	.st8{fill:#FFD15C;}
	.st9{fill:#55C0EB;}
	.st10{fill:#8AD7F8;}
	.st11{fill:#344A5E;}
	.st12{fill:#FFFFFF;}
	.st13{fill:#F7B64C;}
	.st14{fill:#ADB3BA;}
	.st15{fill:#38A892;}
	.st16{fill:#ED9845;}
	.st17{fill:#2D4251;}
	.st18{fill:#304556;}
	.st19{fill:#A5AAAD;}
	.st20{fill:#2D4456;}
	.st21{fill:#4FB0E0;}
	.st22{fill:#2D4354;}
	.st23{fill:#E54C38;}
	.st24{fill:#2B4456;}
	.st25{fill:#2B404F;}
</style>
<g>
	<g>
		<g>
			<g>
				<g>
					<path class="st8" d="M28.9,18.6c0,0-0.6,1.9-1,2.2c-0.3,0.3,0.1,0.5,0.1,0.5s1.5,0.2,2,0.1c0.5-0.1,1-0.5,1.6-0.1
						c0.7,0.3,1.7,1.7,1,2.9c0,0,0.8,0.3,0.8,1.3s-0.1,1.5-0.5,1.7c0,0,0.2,0.8,0.1,1.2c-0.1,0.4-0.3,0.5-0.2,0.9
						c0,0.3,0,0.9-0.2,1.5c-0.2,0.6-0.8,1.5-1.6,1.8c-0.8,0.3-3.8,0.4-5.2,0c0,0-0.8,0.3-1.8,0.3c-1,0-5,0.7-6.5,1.2l-1.2-7.3
						c0,0,4.4-0.8,5.2-0.9c0.7-0.1,1.3-0.5,1.6-1.2c0.3-0.7,1.1-3.5,2-4.4c0.9-0.8,2.3-2.7,2.3-3.7l0.1-1.8
						C29.4,14.8,29.6,16.5,28.9,18.6z"/>
				</g>
				<g>
					<path class="st5" d="M27.4,14.7l-0.1,1.8C28.6,16.3,27.4,14.7,27.4,14.7z"/>
				</g>
			</g>
			<g>
				<g>
					
						<rect x="17.2" y="28.8" transform="matrix(-0.1299 -0.9915 0.9915 -0.1299 -5.2448 55.2676)" class="st1" width="8.8" height="2.2"/>
				</g>
				<g>
					
						<rect x="10.6" y="25.1" transform="matrix(-0.1299 -0.9915 0.9915 -0.1299 -12.8774 50.5966)" class="st2" width="10.4" height="11.7"/>
				</g>
			</g>
			<g>
				<circle class="st11" cx="19.2" cy="33.5" r="1.1"/>
			</g>
		</g>
		<g>
			<g>
				<path class="st4" d="M48,27.1v-6.2l-6.4-1.8c-0.4-1.4-1-2.8-1.7-4.1l3.3-5.8l-4.4-4.4L33,8.1c-1.3-0.7-2.6-1.3-4.1-1.7L27.1,0
					h-6.2l-1.8,6.4c-1.4,0.4-2.8,1-4.1,1.7L9.2,4.8L4.8,9.2L8.1,15c-0.7,1.3-1.3,2.6-1.7,4.1L0,20.9v6.2l6.4,1.8
					c0.4,1.4,1,2.8,1.7,4.1l-3.3,5.8l4.4,4.4l5.8-3.3c1.3,0.7,2.6,1.3,4.1,1.7l1.8,6.4h6.2l1.8-6.4c1.4-0.4,2.8-1,4.1-1.7l5.8,3.3
					l4.4-4.4L39.9,33c0.7-1.3,1.3-2.6,1.7-4.1L48,27.1z M24,36c-6.6,0-12-5.4-12-12c0-6.6,5.4-12,12-12s12,5.4,12,12
					C36,30.6,30.6,36,24,36z"/>
			</g>
			<path class="st7" d="M24,9.1C15.8,9.1,9.1,15.8,9.1,24c0,8.2,6.7,14.9,14.9,14.9S38.9,32.2,38.9,24C38.9,15.8,32.2,9.1,24,9.1z
				 M24,36c-6.6,0-12-5.4-12-12c0-6.6,5.4-12,12-12s12,5.4,12,12C36,30.6,30.6,36,24,36z"/>
		</g>
	</g>
</g>
</svg>
