<?xml version="1.0" encoding="utf-8"?>
<!-- Generator: Adobe Illustrator 18.0.0, SVG Export Plug-In . SVG Version: 6.00 Build 0)  -->
<!DOCTYPE svg PUBLIC "-//W3C//DTD SVG 1.1//EN" "http://www.w3.org/Graphics/SVG/1.1/DTD/svg11.dtd">
<svg version="1.1" id="Layer_1" xmlns="http://www.w3.org/2000/svg" xmlns:xlink="http://www.w3.org/1999/xlink" x="0px" y="0px"
	 viewBox="0 0 48 48" enable-background="new 0 0 48 48" xml:space="preserve">
<g>
	<g>
		<g>
			<circle fill="#55C0EB" cx="24" cy="14.1" r="14.1"/>
			<g>
				<path fill="#E8EAE9" d="M34.7,5.6C34.7,5.6,34.7,5.6,34.7,5.6c0,0.2,0,0.2,0,0.3c0,0-0.1,0.1-0.1,0.1c-0.1,0-0.2,0-0.3,0
					c0,0,0-0.1,0-0.1c0-0.1,0-0.1-0.1-0.1c-0.1,0-0.1,0-0.2,0c0,0-0.1,0-0.1,0c0,0-0.1,0.1-0.1,0.1c0,0-0.1-0.1-0.1-0.1
					c0,0,0-0.1,0-0.1c0,0,0,0,0-0.1c0-0.1,0-0.1-0.1-0.1c0,0,0,0-0.1,0c0,0,0,0-0.1,0c0,0,0-0.1,0.1-0.1c0.1-0.2,0.1-0.2,0-0.3
					c-0.1-0.1-0.1-0.3-0.3-0.3c-0.1,0-0.2-0.1-0.3-0.1c-0.1,0-0.2,0-0.3,0.1c0,0,0,0,0,0c0,0,0,0,0-0.1c-0.1,0-0.2,0-0.3,0
					c0-0.1,0.1-0.1,0.1-0.2c-0.1-0.1-0.2-0.1-0.3-0.1c0,0,0,0,0,0c-0.1,0.1-0.1,0.3-0.2,0.4c0,0,0,0.1,0,0.1c0,0,0,0.1,0,0.1
					c0,0,0,0-0.1,0c-0.1,0-0.1,0-0.1,0.2c0,0-0.1,0.1-0.1,0.1c0,0,0,0,0,0c0,0,0,0,0,0c0,0,0,0-0.1,0c0,0-0.1,0.1-0.1,0.1
					c-0.1,0.1-0.1,0.1-0.2,0.1c-0.1,0-0.1,0-0.1,0.1c0,0.1-0.1,0.2-0.2,0.2C30.9,6,30.9,6,30.8,6.1c-0.1,0.1-0.1,0.2-0.1,0.2
					c-0.1,0.1,0,0.3,0,0.4c0,0,0,0,0,0c0,0,0,0-0.1,0c-0.2,0.1-0.3,0.2-0.5,0.3c-0.1,0-0.1,0.1,0,0.1c0,0.1,0.1,0.2,0.1,0.2
					c0,0.1,0.1,0.1,0.1,0.1c0.1,0,0.1,0,0.1,0.1c-0.1,0-0.1,0-0.1,0c-0.1,0-0.2-0.1-0.3-0.1c0,0-0.1,0-0.1-0.1c0,0-0.1,0-0.1,0
					c0,0,0,0.1-0.1,0.1c-0.1,0-0.1-0.1-0.1-0.1c0-0.1-0.1-0.1-0.2-0.1c0,0,0,0-0.1,0c0,0,0,0.1,0,0.2c0.1,0,0.1,0.1,0.1,0.2
					c0,0,0,0.1,0,0.1c-0.1,0-0.1,0.1-0.1,0.2c0,0,0,0.1,0,0.1c0,0,0,0,0-0.1c0-0.1,0-0.1,0-0.2c0,0,0-0.1,0-0.1
					c0-0.1-0.1-0.1-0.1-0.1c0,0,0,0-0.1,0c0-0.1,0-0.2-0.1-0.2c0,0,0,0,0,0c0,0-0.1,0.1-0.1,0.1c0,0,0,0.1,0,0.1c0,0.2,0,0.3,0,0.5
					c0,0.1,0,0.1-0.1,0.2c-0.1,0.1,0,0.2,0,0.3c0.1,0,0.1,0.1,0.1,0.2c0,0.1,0,0.1,0,0.2c0,0,0.1,0,0.1,0c0.1,0,0.1,0.1,0.1,0.2
					c0-0.1-0.1-0.1-0.1-0.1c-0.1,0-0.1,0-0.2,0c-0.1,0-0.1,0-0.1,0c-0.1,0-0.1,0-0.2,0c0,0-0.1,0-0.1,0c-0.1,0-0.2,0-0.2-0.1
					c0,0,0,0-0.1,0c0,0,0,0-0.1,0c0,0,0,0,0,0C28.1,9,28.1,9,28.3,9.1c0.1,0,0.2,0.1,0.2,0.2c0,0,0,0,0,0c0,0,0,0-0.1,0c0,0,0,0,0,0
					c-0.1,0-0.1,0-0.1,0c0,0,0,0,0,0c-0.1,0.1-0.2,0.2-0.3,0.2c0,0-0.1,0-0.1,0.1c0,0,0,0,0,0c-0.1-0.1-0.1-0.1-0.2,0
					c-0.1,0.2-0.3,0.3-0.4,0.5c0,0,0,0,0,0.1c0,0.1,0,0.1,0,0.2c0,0,0,0.1-0.1,0.1c0,0,0,0-0.1,0c0,0-0.1-0.1-0.2-0.1
					c0.1,0,0.1-0.1,0.1-0.1c0,0,0,0,0,0C27.1,10,27.1,9.9,27,9.9c0,0,0,0,0,0c-0.1,0-0.2,0-0.3,0c0,0,0,0,0,0c0,0,0,0,0,0.1
					c0,0,0,0,0,0c0.1,0,0.1,0.1,0.1,0.2c0,0,0,0,0,0.1c0,0.1,0,0.1,0.1,0.1c0,0,0.1,0.1,0.1,0.1c0,0,0,0.1-0.1,0.1c0,0-0.1,0-0.1,0
					c-0.1,0-0.1,0-0.1,0c0-0.1,0-0.2-0.1-0.3c0-0.1-0.1-0.1-0.1-0.1c-0.1-0.1-0.3-0.1-0.4-0.2c-0.1,0-0.2,0-0.2,0
					c-0.1,0-0.1,0-0.2,0c0,0,0,0,0,0c0,0,0-0.1-0.1-0.1c-0.1,0-0.2,0-0.2,0c0,0,0,0-0.1,0c0-0.1,0.1-0.1,0-0.2c0,0-0.1,0-0.2-0.1
					c-0.1,0-0.1,0-0.2,0c-0.1,0-0.1,0-0.2,0c0,0,0,0.1,0,0.1l-0.1,0c0,0,0,0,0-0.1c0,0-0.1,0-0.1,0c0,0.1-0.1,0.1-0.1,0.2
					c-0.1,0-0.1,0-0.1,0.1c0,0,0,0.1-0.1,0.1c0,0.1-0.1,0.1-0.1,0.1c0,0-0.1,0-0.1,0.1c0,0-0.1,0-0.1,0.1c0,0,0,0.1,0,0.1
					c0,0,0,0.1,0,0.1c0,0-0.1,0.1-0.1,0.2c-0.1,0.1-0.1,0.1-0.2,0.2c0,0,0,0,0,0c0,0,0,0,0,0c-0.1,0.1-0.1,0.1-0.1,0.2c0,0,0,0,0,0
					c0,0,0,0,0,0c0,0,0.1-0.1,0.1-0.1c0,0,0,0,0.1,0c0,0,0,0.1,0,0.1c0,0.2-0.1,0.3-0.1,0.5c0,0.1,0,0.1-0.1,0.2c0,0,0,0.1,0,0.1
					c0,0.1,0,0.2,0,0.2c-0.1,0-0.1,0-0.1,0.1c0,0,0,0.1,0,0.1c0,0,0,0.1-0.1,0.1c0,0-0.1,0.1-0.1,0.1c0,0.1-0.1,0.1-0.1,0.2
					c0,0,0,0,0,0.1c0,0.1,0,0.3,0.2,0.4c0,0.1,0,0.1,0.1,0.2c0,0,0,0.1,0,0.1c0.1,0.1,0.2,0.1,0.3,0c0-0.1,0.1-0.1,0.1-0.2
					c0,0,0.1-0.1,0.1-0.1c0.1,0.1,0.1,0.2,0.2,0.3c0,0,0.1,0.1,0.1,0.1c0,0,0,0,0,0c0,0,0,0.1-0.1,0.1c0,0,0-0.1,0-0.1
					c-0.1,0-0.1-0.1-0.1-0.1c0,0,0-0.1,0-0.1c0,0-0.1,0-0.1,0c0,0-0.1,0.1-0.1,0.1c-0.1,0.1-0.1,0.2-0.1,0.3c0,0,0,0.1,0,0.1
					c0.1,0.1,0.1,0.1,0.1,0.1c0,0,0,0.1,0,0.1c0,0,0,0,0,0c0,0-0.1,0-0.1,0c0,0,0,0.1,0,0.1c0,0-0.1,0-0.1,0.1c0,0,0,0.1-0.1,0.1
					c0,0,0,0,0,0.1c0,0,0,0.1,0,0.1c0,0.1-0.1,0.2-0.2,0.2c0,0,0,0,0,0c0-0.1,0-0.1,0.1-0.2c0,0-0.1-0.1-0.2-0.1
					c-0.1,0-0.1-0.1-0.2-0.1c0,0,0-0.1-0.1-0.1c-0.1,0-0.1-0.1-0.2-0.1c0-0.1-0.1-0.1-0.2-0.1c0,0,0-0.1,0-0.1c0,0,0-0.1,0-0.1
					c0-0.1,0-0.2-0.1-0.1c0,0,0,0-0.1,0c0-0.1,0-0.1,0-0.1c0,0,0,0,0-0.1c0,0,0-0.1,0-0.1c0,0-0.1,0-0.1,0c0,0-0.1,0,0,0.1
					c0,0,0,0,0.1,0.1c0,0,0,0-0.1,0c-0.1,0-0.1,0.1-0.1,0.1c0,0,0,0,0,0c0,0,0,0,0,0c0,0,0,0,0,0c0,0,0,0,0,0c0,0,0-0.1,0-0.1
					c0,0,0,0-0.1,0c-0.1,0.1-0.1,0.2,0,0.3c0.1,0,0.1,0.1,0.2,0.1c0,0.1,0,0.1,0,0.2c0,0,0,0.1,0,0.1c0,0,0,0,0,0c0,0-0.1,0-0.1,0
					c-0.1,0-0.1,0.1-0.2,0.1c0,0,0,0.1,0,0.1C22,14.9,22,14.9,22,15c0,0,0,0,0,0.1c0,0,0.1,0,0.1,0.1c0,0.1,0,0.1,0,0.1
					c0,0,0,0.1,0,0.1c0,0,0.1,0.1,0.2,0.1c0.1-0.1,0.2-0.2,0.3-0.3c0-0.1,0-0.2-0.1-0.3c0-0.1,0-0.1,0-0.1c0,0,0.1,0,0.1,0
					c0,0,0.1,0,0.1,0.1c0,0,0,0.1,0,0.1c0,0-0.1,0-0.1,0.1c0,0,0,0.1,0,0.1c0,0,0,0.1,0.1,0.1c0,0,0,0-0.1,0.1c0,0,0,0.1,0,0.1
					c0,0,0.1,0,0.1,0c0,0,0,0.1,0,0.1c0,0,0,0.1,0,0.1c0,0.1,0,0.1,0.1,0.1c0,0,0,0,0.1,0c0,0,0,0,0,0c0,0,0-0.1,0.1-0.1
					c0,0,0,0,0-0.1c0,0,0,0,0.1,0c0,0,0,0,0,0c0,0.1,0,0.1,0.1,0.2c0,0,0,0,0,0c0,0-0.1,0-0.1,0c-0.1,0.1-0.1,0.1-0.2,0.2
					c0,0,0,0,0,0.1c0,0,0,0,0,0.1c0.1,0,0.1,0,0.2,0c0,0,0.1,0,0.1,0c0,0,0,0,0.1,0c0.1,0,0.1,0.1,0.1,0.2c0,0.1,0,0.1,0,0.2
					c0,0,0,0.1,0,0.1c0,0-0.1,0-0.1,0c-0.1,0.1-0.1,0.1-0.2,0.1c-0.1,0-0.2,0-0.3,0c0,0-0.1,0.1-0.1,0.1c0,0.1,0,0.1,0,0.1
					c0,0,0,0,0,0.1c0.1,0.1,0.1,0.2,0.1,0.3c0,0,0,0.1,0,0.1c0,0,0,0.1,0,0.1c0,0,0.1,0.1,0.1,0.1c0,0,0,0.1,0,0.1
					c0,0,0.1,0.1,0.1,0c0,0,0.1-0.1,0.1-0.1c0,0,0.1,0.1,0.1,0.1c0,0.1,0,0.1,0,0.2c0,0.1,0,0.1-0.1,0.1c0,0-0.1,0.1-0.1,0.1
					c0,0.1-0.1,0.2-0.1,0.3c0,0,0,0.1,0.1,0.1c0,0.1,0,0.1,0,0.2c0,0.1-0.1,0.2-0.3,0.2c0,0,0-0.1,0-0.1c0,0,0,0,0,0c0,0,0,0-0.1,0
					c0,0.1-0.1,0.1,0,0.2c0,0,0.1,0,0.1,0c0,0.1,0,0.1,0,0.1c0,0,0,0.1,0,0.1c0,0.1,0,0.2,0,0.2c0,0.1,0,0.1-0.1,0.2
					c0,0.1,0,0.2,0.1,0.3c0,0,0,0,0,0.1c0,0,0,0.1,0.1,0.1c0,0,0,0,0,0.1c0,0.1,0,0.1,0,0.2c0,0,0,0.1,0,0.1c0,0,0,0,0,0.1
					c0,0,0,0.1,0,0.1c0.1,0,0.1,0.1,0.1,0.2c0,0,0,0,0,0.1c0,0,0.1,0,0.1,0c0,0.1,0.1,0.1,0.1,0.1c0.1,0,0.1,0,0.2,0.1
					c0,0,0.1,0,0.1,0.1c0,0.1,0.1,0.1,0.2,0.1c0.1,0,0.1,0,0.2,0c0.1,0,0.2,0.1,0.3,0.1c0.1,0,0.2,0,0.3-0.1c0,0,0.1-0.1,0.1-0.1
					c0.1,0,0.2-0.1,0.3-0.1c0.1,0,0.1,0,0.1-0.1c0.1,0,0.1-0.1,0.2-0.1c0.1-0.1,0.2-0.1,0.3-0.2c0.1,0,0.1,0,0.1,0c0,0,0,0,0,0.1
					c0,0,0.1,0.1,0.1,0c0,0,0.1,0,0.1,0c0,0,0.1,0,0.1,0c0,0,0,0.1,0.1,0.1c0,0,0.1,0,0.1,0c0,0,0,0.1,0,0.1c0,0,0,0.1,0,0.1
					c0,0,0,0.1,0,0.1c0,0,0,0.1,0,0.1c0.1,0.1,0.2,0.2,0.3,0.3c0.2,0.1,0.3,0.2,0.4,0.3c0,0,0,0,0,0.1c0,0,0,0.1,0,0.1
					c0,0,0,0,0.1,0.1c0.1,0.1,0.1,0.1,0,0.2c0,0,0,0.1,0,0.1c0,0.1,0,0.2,0,0.2c0,0.1,0,0.2,0.1,0.3c0.1,0.1,0.2,0.2,0.3,0.3
					c0,0,0.1,0.1,0.1,0.1c0,0.1,0,0.1,0.1,0.1c0,0.1,0.1,0.1,0.1,0.2c0,0.1,0.1,0.1,0.1,0.2c0.2,0.1,0.3,0.3,0.4,0.4
					c0,0,0,0.1,0,0.1c0,0.1,0.1,0.1,0.1,0.2c0,0,0,0,0.1,0c0,0,0,0,0.1,0c0,0,0.1,0,0.1,0c0,0,0.1,0,0.1-0.1
					c0.1-0.1,0.2-0.1,0.3-0.1c0.1,0,0.1,0,0.2-0.1c0,0,0.1,0,0.1-0.1c0.1-0.1,0.2-0.2,0.2-0.3c0-0.1,0.1-0.2,0.1-0.3
					c0-0.1,0-0.1,0.1-0.2c0,0,0-0.1,0-0.1c0-0.1,0-0.2-0.1-0.3c0,0,0.1-0.1,0.1-0.1c0,0,0.1-0.1,0.1-0.1c0,0,0-0.1,0-0.1
					c0-0.1-0.1-0.1-0.1-0.2c0-0.1-0.1-0.1-0.1-0.2c0.1-0.1,0.1-0.2,0.2-0.3c0,0,0,0,0.1-0.1c0.1,0,0.1-0.1,0.1-0.2c0,0,0-0.1,0-0.1
					c0,0,0-0.1,0-0.1c0-0.1-0.1-0.3-0.1-0.4c0,0,0-0.1-0.1-0.1c-0.1,0-0.1-0.1-0.1-0.2c0-0.1,0-0.1-0.1-0.1c0,0,0,0-0.1-0.1
					c0-0.1,0-0.2,0.1-0.3c0,0,0,0,0,0c0-0.1,0.1-0.2,0.1-0.3c0-0.1,0.1-0.2,0.2-0.2c0.1-0.1,0.2-0.3,0.3-0.4c0,0,0,0,0,0
					c0.1-0.1,0.1-0.3,0.1-0.4c0-0.1,0-0.2,0-0.3c0-0.1,0-0.2,0-0.2c0,0,0-0.1-0.1,0c0,0-0.1,0-0.1,0.1c0,0-0.1,0.1-0.1,0.1
					c-0.1,0.1-0.3,0.1-0.4,0.2c0,0-0.1,0-0.1,0c0,0-0.1-0.1,0-0.1c0.1,0,0.1-0.1,0.2-0.1c0,0,0,0,0.1,0c0.1,0,0.1,0,0.1-0.1
					c0.1-0.1,0.2-0.2,0.4-0.3c0.1,0,0.1,0,0.1-0.1c0.1,0,0.1-0.1,0.2-0.1c0,0,0.1,0,0.1-0.1c0,0,0-0.1,0.1-0.1
					c0-0.1,0.1-0.2,0.2-0.2c0,0,0-0.1-0.1-0.1c0-0.1,0.1-0.2,0.1-0.4c0,0,0,0-0.1-0.1c-0.1-0.1-0.1-0.1-0.2-0.1c0,0-0.1,0-0.1,0
					c0,0-0.1,0,0-0.1c0,0,0,0,0.1,0c0.1,0,0.2,0,0.3-0.1c0.1,0,0.1,0,0.2,0c0.1,0,0.2-0.1,0.3-0.1c0,0,0.1,0,0.1,0c0,0,0.1,0,0.1,0
					c0,0,0.1,0.1,0.1,0.1c0,0,0.1,0,0.2,0.1c0,0,0,0,0,0c0,0,0,0.1,0.1,0.1c0,0,0,0,0.1,0c0.1,0.1,0.2,0.1,0.3,0c0,0,0,0,0,0
					c0.1,0.2,0.2,0.3,0.3,0.5c0.2,0.2,0.3,0.4,0.5,0.6c0,0.1,0.1,0.1,0.1,0.1c0.1,0,0.1,0,0.1-0.1c0,0,0-0.1,0.1-0.1
					c0.1,0.1,0.1,0.2,0.2,0.3c0.1,0,0.2-0.1,0.2-0.1c0,0,0-0.1,0-0.1c0,0,0-0.1-0.1-0.1c-0.1-0.1-0.2-0.1-0.3-0.2
					c0-0.1-0.1-0.2-0.1-0.3c0,0,0-0.1,0-0.1c0,0,0-0.1,0-0.1c0,0,0.1,0,0.1-0.1c0,0,0-0.1,0.1-0.1c0,0,0,0,0-0.1c0,0,0-0.1,0-0.1
					c0.1-0.1,0.2-0.2,0.2-0.3c0-0.1,0.1-0.1,0.1-0.2c0,0,0-0.1,0-0.1c0,0,0.1,0,0.1,0c0,0,0.1,0,0.1,0c0,0,0.1,0,0.1-0.1
					c0,0,0,0,0.1-0.1c0,0,0.1,0.1,0.1,0.1c0,0,0.1,0,0.2,0.1c0,0.1,0.1,0.1,0.1,0.2c0.1,0,0.1,0.1,0.1,0.2c0,0,0,0,0,0.1
					c0,0,0,0.1,0.1,0.1c0.1,0,0.1,0,0.2,0c0-0.1,0.1-0.1,0.1-0.2c0,0,0,0,0,0c0.1,0.1,0.1,0.2,0.2,0.2c0,0,0,0,0,0
					c0.1,0,0.1,0,0.2,0.1c0,0,0,0,0.1,0c0,0,0-0.1,0-0.1c0,0,0.1,0,0.1,0c0,0,0,0,0.1,0c0.1,0,0.1,0.1,0.2,0.1c0.1,0,0.1,0,0.2,0.1
					c0,0,0,0.1,0.1,0.2c0.1,0,0.1-0.1,0.2-0.1c0,0,0-0.1,0-0.1c0.1-0.1,0.1-0.1,0.2-0.2c0-0.1-0.1-0.3-0.1-0.4
					c0-0.1-0.1-0.1-0.1-0.1c-0.1-0.1-0.2-0.1-0.3-0.2c0,0,0,0-0.1,0c0-0.1,0.1-0.3,0.2-0.3c0,0,0,0,0,0c0,0,0,0,0,0c0,0,0,0,0,0.1
					c0,0-0.1,0.1-0.1,0.1c0.1,0.1,0.1,0.1,0.2,0.1c0.1-0.1,0.1-0.2,0.1-0.3c0-0.1-0.1,0-0.1-0.1c0,0,0,0,0,0
					c0.1-0.1,0.2-0.1,0.3-0.2c0.1-0.1,0.1-0.1,0.2-0.1c0,0,0,0,0.1-0.1c0-0.1,0.1-0.1,0.1-0.2c0,0,0.1-0.1,0.1-0.2c0,0,0-0.1,0-0.1
					c0-0.1,0.1-0.2,0.1-0.2c0.1,0,0.1-0.1,0.1-0.1c0,0,0-0.1,0-0.1c0,0,0,0,0-0.1c0,0,0,0-0.1,0c0,0,0-0.1,0-0.1c0,0,0-0.1-0.1-0.1
					c-0.1,0-0.1-0.1-0.2-0.2c0-0.1-0.1-0.1-0.1-0.1c0,0,0,0,0,0c0-0.1,0-0.1,0-0.2c0-0.1,0.1-0.1,0.1-0.1c0,0,0,0,0.1,0
					c0,0,0-0.1,0-0.1c0,0,0-0.1-0.1,0c-0.1,0-0.2,0-0.3,0.1c0,0,0,0,0,0c-0.1,0-0.1-0.1-0.2-0.1c0,0,0.1,0,0.1-0.1
					c0-0.1,0.1-0.2,0.2-0.3c0,0,0,0,0,0c0,0.1,0,0.2,0,0.2c0,0,0,0,0.1,0c0,0,0,0,0,0c0,0,0.1-0.1,0.1-0.1c0-0.1,0.1-0.1,0.2,0
					c0,0,0,0,0,0c0,0,0,0,0,0.1c0,0.1,0,0.2,0.1,0.2c0,0,0,0,0.1,0c0,0,0,0.1,0,0.1c0,0,0.1,0.1,0.1,0.2c0,0,0,0.1,0.1,0.1
					c0,0,0.1,0,0.1,0c0.1-0.1,0.1-0.1,0.2-0.2c0,0,0-0.1,0-0.1c0-0.1-0.1-0.3-0.2-0.3c-0.1,0-0.1-0.1-0.2-0.1c0,0,0,0,0-0.1
					c0,0,0.1-0.1,0.1-0.1c0,0,0.1-0.1,0-0.1c0,0,0,0,0,0c0-0.1,0.1-0.2,0.1-0.2c0,0,0,0,0.1,0c0,0,0.1,0,0.1,0
					c-0.3-2.5-1.3-4.7-2.7-6.6c0,0-0.1,0-0.1,0C34.9,5.5,34.8,5.6,34.7,5.6z M23.4,15.3C23.4,15.3,23.4,15.3,23.4,15.3
					c-0.1,0.1-0.1,0.1-0.1,0.2c0,0-0.1,0-0.1-0.1c0,0,0-0.1,0.1-0.1C23.3,15.3,23.4,15.2,23.4,15.3C23.5,15.2,23.4,15.3,23.4,15.3z
					 M26.1,10.8c0.1,0,0.2,0,0.2,0c0.2,0,0.1,0,0.3-0.1c0,0,0.1,0,0.1-0.1c0,0,0,0,0,0c0,0.1-0.1,0.1-0.1,0.2c0,0,0.1,0.1,0.1,0.1
					c0,0,0,0-0.1,0c-0.1,0-0.1,0-0.2,0c0,0,0,0-0.1,0c0,0,0,0.1,0,0.1c0,0.1,0,0.1,0,0.1c0,0,0,0,0.1,0c0,0,0,0,0,0
					c0,0-0.1,0-0.2-0.1c0-0.1-0.1-0.2-0.1-0.2C26.1,11,26.1,10.9,26.1,10.8C26,10.8,26,10.8,26.1,10.8z M24.5,14
					C24.5,14,24.6,14,24.5,14c0.1-0.1,0.1-0.1,0.1-0.2c0,0,0.1,0,0.1-0.1c0,0,0,0,0-0.1c0-0.1,0-0.2,0-0.3c0-0.1,0-0.2,0.1-0.2
					c0,0,0-0.1,0-0.1c0,0,0-0.1,0-0.1c0,0,0,0-0.1-0.1c0,0-0.1-0.1-0.1-0.1c-0.1,0-0.1-0.1-0.1-0.1c0,0,0-0.1,0-0.1
					c-0.1-0.1,0-0.2,0-0.3c0-0.1,0.1-0.1,0.1-0.2c0-0.1,0.1-0.2,0.1-0.2c0,0,0-0.1,0-0.1c0,0,0-0.1-0.1-0.1c0,0,0,0,0-0.1
					c0,0,0,0,0-0.1c0-0.1,0.1-0.1,0.2-0.1c0.1,0,0.1,0.1,0.1,0.1c-0.1,0.2-0.1,0.4-0.2,0.6c0,0,0,0.1,0,0.1c0,0,0,0.1,0,0.1
					c0,0.1,0.1,0.1,0.1,0.2c0,0.1,0,0.1,0,0.2c0,0.1,0.1,0.1,0.2,0.1c0.1,0,0.1,0,0.2,0.1c0.1-0.1,0.2-0.1,0.3-0.2
					c0,0,0.1-0.1,0.1-0.1c0,0,0.1,0,0.1,0c0,0.1-0.1,0.1-0.1,0.1c-0.1,0-0.1,0-0.2,0.1c-0.1,0-0.1,0.1-0.2,0.1c0,0,0,0,0,0
					c0,0-0.1,0.1,0,0.1c0,0,0,0.1,0,0.1c0,0.1,0,0.1,0.1,0.1c0,0,0,0.1,0,0.1c0,0.1,0,0.2,0,0.2c0,0,0,0,0,0.1c0,0.1,0,0.2,0,0.2
					c0,0,0,0.1-0.1,0.1c0,0,0,0,0,0c0-0.1-0.1-0.1-0.2,0c-0.1,0.1-0.2,0.1-0.3,0.2c0,0,0,0-0.1,0C24.6,14.1,24.6,14.1,24.5,14
					C24.5,14.1,24.5,14.1,24.5,14C24.4,14.1,24.4,14.1,24.5,14C24.5,14,24.5,14,24.5,14z M25.3,15.9c0.1,0,0.2,0.1,0.3,0.1
					c0,0,0.1,0,0.1,0c0,0.1,0,0.1,0,0.2c-0.1,0-0.1,0-0.2-0.1c0,0,0,0-0.1,0c0,0,0-0.1-0.1-0.1c0,0-0.1,0-0.1,0
					c-0.1,0-0.1,0-0.2-0.1c-0.1-0.1-0.1-0.1-0.2-0.2c-0.1,0-0.1-0.1-0.1-0.1c0,0,0,0,0,0c0,0,0,0,0,0.1c0,0,0.1,0,0.1,0c0,0,0,0,0,0
					c0,0,0,0,0,0C25.2,15.8,25.2,15.8,25.3,15.9z M25.3,13.2c0-0.1,0.1-0.1,0.1,0c0,0,0,0,0,0c0,0,0,0,0,0.1
					C25.4,13.2,25.4,13.2,25.3,13.2z M27.8,16.8c-0.1,0.1-0.1,0.1-0.2,0.1c-0.1,0-0.1,0-0.2,0c0,0,0,0,0,0c-0.1,0.1-0.1,0.1-0.2,0.1
					c-0.1,0-0.1,0-0.2,0c-0.1,0-0.2,0-0.3,0c0,0,0,0,0,0c0,0-0.1,0-0.1,0c-0.1,0-0.1,0-0.1,0.1c-0.1,0.1-0.1,0.1-0.1,0.3
					c0,0,0,0,0,0.1c-0.1,0-0.1,0-0.2,0c-0.1,0-0.1,0-0.2,0c0,0-0.1,0-0.1,0c-0.1-0.1-0.2-0.1-0.3-0.1c0,0-0.1,0-0.1,0
					c-0.1,0-0.2,0-0.3,0c0,0,0-0.1,0-0.1c0,0,0-0.1,0-0.1c0,0,0,0-0.1-0.1c0,0,0,0,0,0c0-0.1,0-0.1-0.1-0.1c0,0-0.1,0-0.1,0
					c0,0-0.1,0-0.1,0C24.8,17,24.7,17,24.6,17c0,0-0.1,0-0.1,0c-0.1,0-0.1,0.1-0.2,0.1c-0.2,0-0.3,0.1-0.4,0.2
					c-0.1,0.1-0.1,0.1-0.2,0.2c0,0-0.1,0-0.1,0c0,0-0.1,0-0.1,0c0,0-0.1,0-0.1,0c0-0.1,0-0.1,0.1-0.1c0,0,0,0,0,0
					c0.1,0,0.2-0.1,0.3-0.2c0,0,0-0.1,0.1-0.1c0,0,0-0.1,0-0.1c0,0,0,0,0,0c0-0.1,0-0.2,0.1-0.3c0,0,0.1-0.1,0.1-0.1
					c0,0,0-0.1,0-0.1c0-0.1,0-0.1,0.1-0.1c0,0,0.1,0,0.1,0c0.1,0,0.1,0,0.2-0.1c0,0,0.1-0.1,0.1-0.1c0,0,0.1-0.1,0.1-0.1
					c0,0,0.1,0,0.1,0c0,0,0.1,0.1,0.1,0.1c0,0,0,0,0.1,0c0.1,0,0.1,0,0.2,0.1c0,0,0.1,0,0.1,0c0.1,0,0.1,0,0.2,0c0,0,0.1,0,0.1,0.1
					c0.1,0,0.1,0.1,0.1,0.1c0,0,0,0.1,0,0.1c-0.1,0-0.1,0.1-0.2,0.1c-0.1,0-0.1,0-0.1,0.1c0,0,0,0.1,0,0.1c0,0,0.1,0.1,0.2,0.1
					c0.1,0,0.1,0,0.2,0c0.1,0,0.1,0,0.1-0.1c0-0.1,0-0.2,0.1-0.3c0,0,0-0.1,0-0.1c0,0,0,0,0,0c0.1,0,0.1,0,0.1-0.1c0,0,0,0,0,0
					c0.1,0.1,0.2,0.1,0.3,0.2c0,0,0,0,0,0c0,0,0,0,0,0c0.1,0,0.1,0.1,0.2,0.1c0,0,0,0,0,0c0,0,0.1,0,0.1,0l0-0.1c0,0,0,0,0,0
					c0.1,0,0.1-0.1,0.1-0.2c0,0-0.1-0.1-0.1-0.1c-0.1,0-0.1,0-0.1-0.1c0-0.1,0-0.1,0-0.1c0,0,0,0,0,0c0.1,0,0.1,0,0.2,0.1
					c0,0,0,0.1,0,0.1c0,0,0,0.1,0,0.1c0,0,0,0,0.1,0c0,0,0.1,0,0.1,0.1c0,0,0,0.1,0,0.1c0,0,0,0,0.1,0c0,0.1,0,0.1,0.1,0.1
					c0,0,0,0,0,0c0,0,0,0,0-0.1c0,0,0.1,0,0.1,0c0.1,0,0.1-0.1,0.1-0.1c0.1,0,0.1,0,0.2,0.1c0,0,0,0,0,0c0,0-0.1,0-0.1,0.1
					c0,0,0.1,0.1,0.1,0.1c0,0,0.1,0,0.1,0c0,0,0.1,0,0.1,0c0,0,0-0.1,0-0.1c0-0.1,0-0.1-0.1-0.1c0-0.1,0-0.1,0.1-0.1
					c0,0,0,0.1,0.1,0.2C27.8,16.5,27.8,16.7,27.8,16.8z M30,8.9C30,8.9,29.9,8.9,30,8.9L30,8.9C30,8.9,30,8.9,30,8.9z M29.9,8.9
					L29.9,8.9C29.9,8.8,29.9,8.9,29.9,8.9z M30,9.4c0,0,0-0.1,0.1-0.1c0-0.1,0-0.1,0-0.2c0,0,0-0.1,0-0.1c0.1,0.2,0.1,0.4-0.1,0.6
					c0,0,0,0-0.1,0c0,0,0,0,0,0C29.9,9.5,29.9,9.5,30,9.4z M29.9,14.1c0,0,0.1-0.1,0.1-0.1c0,0,0,0.1,0,0.1c0,0,0,0,0.1,0.1
					c0,0,0,0.1,0,0.1c0,0,0,0.1,0,0.1c0,0-0.1,0-0.1,0.1c0,0,0,0-0.1,0c0,0,0-0.1-0.1-0.1C29.8,14.2,29.8,14.2,29.9,14.1z M29.8,8.5
					c-0.1-0.1-0.1-0.1-0.1-0.2C29.8,8.3,29.8,8.4,29.8,8.5z M29.3,12.2C29.3,12.2,29.3,12.2,29.3,12.2
					C29.3,12.2,29.3,12.2,29.3,12.2C29.3,12.2,29.3,12.2,29.3,12.2C29.3,12.2,29.3,12.2,29.3,12.2z M29.3,18.6
					c-0.1,0-0.1-0.1-0.2-0.1c0,0-0.1,0-0.1-0.1c0,0-0.1-0.1-0.1-0.1c0,0,0,0-0.1-0.1c-0.1,0-0.1-0.1-0.1-0.1c0-0.1-0.1-0.1-0.1-0.2
					c0,0,0-0.1-0.1-0.1c-0.1,0-0.1-0.1-0.1-0.1c0,0-0.1-0.1-0.1-0.1c-0.1-0.1-0.2-0.2-0.2-0.2c0,0,0,0,0-0.1c0,0,0,0,0.1,0
					c0.1,0.1,0.1,0.1,0.2,0.2c0.1,0.1,0.2,0.1,0.3,0.2c0,0,0.1,0,0.1,0.1c0,0,0,0.1,0,0.1c0,0.1,0.1,0.1,0.1,0.1
					c0.1,0,0.2,0.1,0.4,0.2c0,0,0,0,0,0C29.2,18.4,29.3,18.5,29.3,18.6C29.3,18.6,29.3,18.6,29.3,18.6z M29.2,15.5
					C29.2,15.5,29.2,15.5,29.2,15.5c-0.1-0.1-0.1-0.2,0-0.3c0-0.1,0-0.1,0-0.1c-0.1,0-0.2-0.2-0.3-0.2c0,0,0,0,0,0
					c0-0.1-0.1-0.2-0.2-0.2c0-0.1,0-0.1,0-0.1c0.1,0,0.1-0.1,0.2-0.2c0-0.1,0.1-0.2,0.2-0.2c0.1,0,0.2,0,0.2,0.1c0,0,0,0,0,0
					c0,0-0.1,0-0.1,0c-0.1,0-0.1,0-0.2,0.1c0,0,0,0,0,0.1c0,0,0,0,0,0.1c0,0,0,0.1,0,0.1c0.1,0,0.2,0.1,0.2,0.2c0,0,0,0,0,0.1
					c0,0,0,0,0,0.1c0.1,0.1,0.1,0.1,0.1,0.2c0,0,0,0.1,0.1,0.1c0,0,0,0,0.1,0c0,0,0.1,0.1,0.1,0.1c0,0,0,0.1,0.1,0.1
					c-0.1,0-0.1,0.1-0.2,0.1C29.4,15.6,29.3,15.6,29.2,15.5z M30.2,16.9C30.2,17,30.2,17,30.2,16.9c-0.1,0.1-0.1,0.1-0.2,0.2
					c0,0-0.1,0-0.1,0c-0.1-0.2-0.1-0.2-0.1-0.2c0,0,0,0-0.1,0c-0.1-0.1-0.2-0.2-0.3-0.3c0,0,0-0.1,0-0.1c0.1,0,0.1,0,0.2,0.1
					c0.1,0.1,0.2,0.2,0.3,0.2c0,0,0.1,0,0.1,0c0.1,0,0.1,0,0.2,0C30.3,16.9,30.2,16.9,30.2,16.9z M30.9,6.6
					C30.9,6.6,30.9,6.6,30.9,6.6C30.9,6.6,30.9,6.6,30.9,6.6z M33.1,6.3C33.1,6.3,33.1,6.2,33.1,6.3c0-0.1,0.1-0.1,0.1-0.1
					c0,0,0,0,0.1-0.1c0,0,0,0,0.1,0.1C33.2,6.2,33.2,6.3,33.1,6.3z M33.6,6c-0.1,0-0.2,0-0.2-0.1c0,0,0,0,0,0
					C33.4,5.8,33.5,5.9,33.6,6C33.5,5.9,33.6,5.9,33.6,6C33.6,5.9,33.6,6,33.6,6z"/>
				<path fill="#E8EAE9" d="M10.2,11.6C10.2,11.6,10.2,11.6,10.2,11.6c0,0.1,0,0.2,0.1,0.2c0,0.1,0,0.1,0,0.2c0,0.1,0,0.2,0,0.3
					c0,0.1,0,0.1,0,0.2c0,0.1,0,0.1,0,0.2c0,0,0,0.1,0,0.1c0,0,0,0.1,0,0.1c0,0.1,0,0.1,0.1,0.2c0,0,0,0,0,0c0,0.1,0,0.1,0.1,0.1
					c0,0,0,0,0,0c0,0.1,0,0.1,0,0.1c0.1,0.1,0.1,0.1,0.1,0.2c0.1,0,0.2,0.1,0.3,0.1c0,0,0.1,0.1,0.1,0.1c0,0.1,0.1,0.2,0.1,0.3
					c0,0.1,0.1,0.1,0.1,0.2c0,0,0,0,0.1,0.1c0,0,0,0,0,0c0,0,0,0,0,0c0,0.1,0.1,0.1,0.1,0.1c0,0,0.1,0,0.1,0
					c0.1,0.1,0.1,0.1,0.1,0.2c0,0,0,0,0,0c0,0,0.1,0.1,0.1,0.1c0.1,0,0.1,0.1,0.1,0.1c0,0,0,0,0,0c0.1,0,0.1,0,0.1-0.1c0,0,0,0,0,0
					c-0.1-0.1-0.2-0.2-0.2-0.3c0,0,0-0.1-0.1-0.1c0,0,0,0,0.1,0c0.1,0.1,0.2,0.1,0.2,0.3c0.1,0,0.2,0.1,0.3,0.2
					c0.1,0.1,0.2,0.2,0.2,0.3c0,0,0,0.1,0,0.1c0.1,0.1,0.2,0.2,0.3,0.3c0.1,0,0.1,0.1,0.2,0.1c0,0,0,0,0,0c0.2,0.1,0.3,0.1,0.5,0.2
					c0.1,0,0.1,0,0.2,0c0,0,0.1,0,0.1,0c0,0,0.1,0.1,0.1,0.1c0.1,0.1,0.3,0.2,0.4,0.2c0,0,0.1,0,0.1,0c0.1,0.1,0.1,0.1,0.1,0.1
					c0.1,0,0.1,0.1,0.1,0.2c0,0.1,0,0.1,0.1,0.1c0,0,0,0,0,0c0,0,0.1,0,0.1,0c0,0,0,0,0,0.1c0.1,0,0.1,0,0.2,0c0,0,0.1,0,0.1,0
					c0.1,0,0.1,0,0.2,0c0,0,0,0,0-0.1c0,0,0,0,0,0c0,0,0,0,0,0c0,0,0,0,0.1,0c0,0,0,0,0,0c0,0.1,0,0.1,0.1,0.2c0,0,0,0,0,0
					c0,0.1,0,0.2,0,0.3c0,0-0.1,0-0.1,0c0,0.1-0.1,0.1-0.1,0.2c0,0-0.1,0.1-0.1,0.1c0,0,0,0,0,0c-0.1,0-0.1,0.1-0.1,0.2
					c0,0,0,0.1,0,0.1c0,0,0,0,0.1,0.1c0,0-0.1,0-0.1,0.1c0,0,0,0,0,0.1c0,0.1,0,0.1,0,0.2c0,0,0,0,0.1,0c0.1,0,0.1,0.1,0.2,0.2
					c0,0.1,0.1,0.2,0.1,0.2c0.1,0.2,0.2,0.3,0.2,0.5c0,0.1,0.1,0.1,0.1,0.2c0.1,0.1,0.3,0.2,0.4,0.3c0.1,0.1,0.1,0.1,0.1,0.2
					c0,0,0,0,0,0.1c0,0.2,0,0.3,0,0.5c0,0.2,0,0.3-0.1,0.5c0,0.1,0,0.1,0,0.2c0,0,0,0.1,0,0.1c0,0.1,0,0.2,0,0.2c0,0.1,0,0.1,0,0.2
					c0,0.1-0.1,0.3-0.1,0.4c0,0,0,0.1,0,0.1c-0.1,0.1-0.1,0.2-0.1,0.3c0,0,0,0.1,0,0.1c0,0.1,0,0.2,0,0.2c0,0.1,0,0.2,0,0.3
					c0,0,0,0.1,0,0.1c0,0,0,0.1,0,0.1c0,0.1,0,0.2-0.1,0.3c0,0,0,0.1,0,0.1c0,0,0.1,0,0.1,0c0,0,0,0,0,0c0,0,0,0,0,0
					c-0.1,0-0.1,0-0.1,0.1c0,0.1,0,0.2,0,0.2c0,0.1,0,0.1,0,0.2c0,0,0,0,0,0c0,0,0,0.1,0,0.1c0.1,0,0.1,0.1,0.1,0.2
					c0,0,0,0.1,0.1,0.1c0,0,0,0,0,0.1c0,0.1,0,0.1,0.1,0.1c0,0,0,0,0,0c0,0,0.1,0.1,0.1,0.1c0.1,0,0.1,0.1,0.2,0.1c0,0,0,0,0,0
					c0,0,0,0,0.1,0c0,0,0.1,0,0.1,0c0,0,0.1,0,0.1,0c0,0,0,0,0,0c0,0,0.1,0,0.1,0c0.1,0,0.1,0,0.1-0.1c0-0.1,0-0.1,0-0.1
					c0,0,0,0,0,0c-0.1,0-0.1-0.1-0.2-0.1c0-0.1-0.1-0.1-0.1-0.2c0,0,0,0,0-0.1c0,0,0-0.1,0-0.1c0-0.1,0-0.1,0-0.1
					c0.1,0,0.1-0.1,0.1-0.2c0-0.1,0-0.1,0.1-0.1c0.1,0,0.1-0.1,0.2-0.1c0-0.1,0-0.1,0-0.2c-0.1,0-0.2,0-0.2-0.1
					c0-0.1,0.1-0.1,0.1-0.1c0,0,0.1,0,0.1,0c0-0.1,0.1-0.1,0.1-0.2c0,0,0,0,0,0c0-0.1,0.1-0.1,0.2-0.1c0,0,0-0.1,0-0.1
					c0,0,0-0.1,0-0.1c0,0,0,0,0-0.1c0,0,0.1,0,0.1,0c0.1,0,0.1-0.1,0.1-0.1c0-0.1,0-0.1,0.1-0.2c0.1,0,0.2-0.1,0.4-0.1
					c0.1,0,0.2-0.1,0.2-0.2c0,0,0,0,0,0c0,0,0-0.1,0-0.1c0,0,0-0.1,0-0.1c0.1,0,0.1,0,0.2,0c0.1,0,0.2,0,0.2-0.1
					c0.1-0.1,0.1-0.2,0.2-0.2c0.1,0,0.1-0.1,0.1-0.2c0-0.1,0.1-0.2,0.2-0.3c0,0,0-0.1,0-0.1c0-0.1,0-0.1,0-0.2c0,0,0-0.1,0-0.1
					c0.1-0.1,0.2-0.2,0.3-0.2c0,0,0,0,0,0c0.1,0,0.2-0.1,0.2-0.1c0,0,0,0,0.1,0c0.1,0,0.1-0.1,0.2-0.1c0-0.1,0-0.2,0.1-0.3
					c0,0,0-0.1,0-0.1c0,0,0-0.1,0-0.1c0,0,0-0.1,0-0.1c0-0.1,0-0.2,0-0.4c0,0,0-0.1,0-0.1c0.1-0.1,0.2-0.2,0.3-0.3
					c0.1-0.1,0.1-0.2,0.1-0.3c0,0,0,0,0,0c0-0.1,0-0.2-0.1-0.3c0,0-0.1,0-0.1,0c-0.1,0-0.1,0-0.2-0.1c-0.1-0.1-0.1-0.1-0.2-0.2
					c0,0-0.1,0-0.1,0c-0.1,0-0.1,0-0.2,0c-0.1,0-0.1,0-0.2,0c-0.1-0.1-0.1-0.1-0.2-0.2c0,0-0.1,0-0.1,0c0,0,0,0-0.1,0
					c0-0.1-0.1,0-0.1,0c0,0-0.1,0-0.1,0c0.1-0.1,0.1-0.1,0-0.2c0,0,0,0-0.1,0c0,0,0-0.1,0-0.1c0-0.1,0-0.1-0.1-0.1
					c-0.1,0-0.1-0.1-0.2-0.1C18.2,17,18.2,17,18.1,17c-0.1,0-0.1,0-0.2,0c0,0-0.1,0-0.1,0c0,0-0.1-0.1-0.1-0.1
					c0-0.1-0.1-0.1-0.1-0.1c0,0-0.1,0-0.2-0.1c0,0,0,0,0,0c0,0,0-0.1,0-0.1c0-0.1,0-0.1-0.1-0.1c-0.1,0-0.1,0-0.2,0
					c-0.1,0-0.1,0-0.2,0.1c-0.1-0.1-0.2,0-0.3,0c0-0.1-0.1-0.1-0.1-0.1c0,0,0,0,0,0c0,0-0.1,0-0.1,0c0,0-0.1,0-0.1,0
					c-0.1-0.1-0.1,0-0.2,0c0,0,0,0,0,0c0,0-0.1,0.1-0.2,0.1c-0.1,0-0.1,0-0.2,0c0,0.1,0,0.1,0,0.1c0,0-0.1,0.1-0.1,0.1c0,0,0,0,0,0
					c-0.1-0.1-0.2-0.1-0.3-0.1c0,0-0.1,0-0.1,0c-0.1,0-0.1,0-0.2-0.1c0,0,0,0,0-0.1c0,0,0-0.1,0-0.1c0-0.1,0-0.1,0-0.2
					c0-0.1,0-0.1,0-0.2c0,0,0,0,0-0.1c-0.1,0-0.2-0.1-0.3-0.1c-0.1,0-0.2-0.1-0.2-0.2c0-0.1,0.1-0.2,0.1-0.3c0-0.1,0-0.1-0.1-0.1
					c-0.1,0-0.2,0-0.3,0c-0.1,0-0.1,0-0.2,0.2c0,0.1,0,0.1-0.1,0.1c-0.1,0-0.1,0-0.1,0c0,0-0.1,0-0.1,0c-0.1,0-0.1-0.1-0.1-0.1
					c0-0.1-0.1-0.1-0.1-0.2c0,0,0,0,0,0c0-0.1,0-0.2,0-0.3c0-0.1,0-0.2,0-0.3c0,0,0,0,0-0.1c0.1-0.1,0.2-0.2,0.3-0.2
					c0,0,0.1,0,0.1,0c0.1,0,0.1,0,0.1,0.1c0,0,0,0,0.1,0c0.1,0,0.1,0,0.2,0c0,0,0.1,0,0.1-0.1c0,0,0,0,0-0.1c0-0.1,0-0.1,0.1-0.1
					c0,0,0.1,0,0.1,0c0,0,0.1,0,0.1,0c0,0,0,0.1,0.1,0.1c0.1,0,0.1,0,0.2,0c0.1,0.1,0.1,0.1,0.1,0.2c0,0.1,0,0.2,0.1,0.2
					c0,0,0,0.1,0.1,0.1c0,0,0,0,0,0.1c0,0,0,0,0,0c0,0,0,0,0,0c0,0,0.1,0,0.1-0.1c0,0,0,0,0,0c0,0,0.1-0.1,0.1-0.1c0,0,0-0.1,0-0.1
					c0.1,0,0.1,0,0.2,0.1c0,0,0,0,0,0c0,0,0,0,0,0c0.1,0,0.1,0.1,0.2,0.2c0,0,0,0,0,0c0,0,0,0.1,0,0.1c0,0,0.1,0.1,0.1,0.1
					c0,0,0,0,0,0c0,0,0,0,0.1,0c0,0-0.1,0.1-0.1,0.1c0,0,0,0-0.1,0c-0.1-0.1-0.1-0.1-0.2-0.1c-0.1-0.1-0.3-0.1-0.4-0.2
					c-0.1,0-0.2,0-0.3,0c-0.1,0-0.2,0.1-0.3,0.1c0,0,0,0.1,0,0.1c0.1,0,0.1,0,0.2,0.1c0,0,0,0,0,0c0,0,0.1,0,0.1,0c0,0,0,0,0.1-0.1
					c0.1,0,0.1,0,0.2,0c0.1,0,0.2,0.1,0.2,0.1c0,0,0,0,0,0c0,0.1,0,0.1,0.1,0.1c0,0,0.1,0,0.1,0c0.1,0,0.2,0,0.3,0c0,0,0,0,0,0.1
					c-0.1,0-0.1,0-0.1,0c0,0,0,0.1,0,0.1c0,0,0.1,0.1,0.2,0.1c0,0,0.1,0,0.1,0c0,0,0.1,0,0.1,0c0,0,0.1-0.1,0.1-0.1c0,0,0.1,0,0.1,0
					c0,0,0,0,0.1,0c0.1,0,0.1,0,0.1-0.1c0,0,0,0,0-0.1c0,0-0.1,0-0.1,0c0-0.1-0.1-0.1-0.2-0.1c0,0-0.1,0-0.1,0c-0.1,0-0.1,0-0.2,0
					c0,0,0-0.1,0-0.1c0,0,0.1,0,0.1,0c0,0,0,0,0,0c0,0,0,0,0,0c0,0,0,0,0,0c-0.1,0-0.1-0.1-0.2-0.1c-0.1,0-0.1-0.1-0.2-0.1
					c0,0-0.1,0-0.1-0.1c0-0.1-0.1-0.1-0.1-0.2c0,0,0,0-0.1,0c0,0,0,0,0-0.1c0-0.1-0.1-0.1-0.1-0.1c-0.1,0-0.1,0-0.2,0
					c0-0.1-0.1-0.3-0.1-0.4c0-0.1,0-0.1,0-0.2c0.1-0.1,0.2-0.2,0.3-0.3c0.1-0.1,0.2-0.1,0.3-0.2c0.1-0.1,0-0.2-0.1-0.2
					c0,0,0.1-0.1,0.1-0.1c0,0,0-0.1,0-0.1c0-0.1,0.1-0.2,0.1-0.3c0.1,0,0.1,0,0.2,0c0,0,0.1,0,0.1,0c0,0,0,0,0.1-0.1
					c0,0,0.1,0,0.1,0c0,0,0.1,0,0.1-0.1c0,0,0,0,0-0.1c0,0-0.1,0-0.1,0c0-0.1,0-0.1,0-0.1c0.1,0,0.2-0.1,0.3-0.1
					c0.1,0,0.1,0,0.1,0.1c0,0,0,0.1,0.1,0.1c0,0,0.1,0,0.1-0.1c0.1-0.1,0.1-0.1,0.2-0.1c0.1,0,0.1,0,0.2-0.1c0,0,0,0,0,0
					c0-0.1,0.1-0.1,0.1-0.1c0,0,0,0,0.1-0.1c0,0,0,0,0-0.1c0,0,0,0,0-0.1c-0.1-0.1-0.1-0.1-0.2,0c0,0,0,0,0,0c0,0,0,0,0,0
					c0,0-0.1,0-0.1,0c-0.1,0-0.1-0.1-0.1-0.1c0,0,0,0,0,0c0,0,0-0.1,0-0.1c0,0,0.1,0,0.1-0.1c0-0.1,0-0.1,0-0.1c0,0,0,0,0,0
					c0.1,0,0.1,0,0.2,0c0,0,0.1-0.1,0-0.1c0,0-0.1,0-0.1-0.1c0,0,0.1,0,0.1,0c0.1,0,0.2,0,0.2-0.1c0,0,0,0,0.1-0.1c0,0,0.1,0,0.1,0
					c0,0,0,0,0,0c0,0.1-0.1,0.2-0.1,0.3c0,0,0,0.1-0.1,0.1c0,0,0,0,0,0.1c0,0,0,0,0,0.1c0,0,0,0,0.1,0c0.1,0,0.2,0,0.3,0
					c0,0,0,0.1,0.1,0.1c0.1,0,0.1,0,0.1-0.1c0.1,0.1,0.1,0.1,0.2,0.1c0,0,0.1-0.1,0.1-0.2c0,0,0-0.1,0-0.1c0,0,0-0.1,0-0.1
					c0,0,0-0.1-0.1-0.1c0,0,0,0,0,0c0,0,0-0.1,0-0.1c-0.1,0-0.2,0-0.2,0c0,0,0-0.1,0-0.1c0,0,0,0-0.1-0.1c0-0.1,0-0.1,0.1-0.1
					c0-0.1,0-0.1,0-0.2c0,0,0-0.1,0-0.1c0-0.1,0-0.2-0.1-0.2c0,0-0.1,0-0.1-0.1c0,0,0-0.1-0.1-0.1c0,0-0.1,0-0.1,0
					c0-0.1-0.1-0.1-0.1-0.1c0-0.1-0.1-0.1-0.1-0.1c0,0,0,0,0,0c0,0-0.1-0.1,0-0.1c0,0,0-0.1,0-0.1c-0.1-0.2-0.2-0.4-0.3-0.6
					c0,0,0,0-0.1-0.1c-0.1,0-0.1,0.1-0.2,0.2c0,0,0,0,0,0c0,0.1,0,0.1-0.1,0.1c0,0-0.1,0.1-0.1,0.1c0,0-0.1-0.1-0.1-0.1
					c0,0,0-0.1,0-0.1c0-0.1,0-0.2,0-0.2c0,0,0-0.1,0-0.1c-0.1,0-0.1,0-0.2-0.1c0-0.1,0-0.1-0.1-0.1c0,0-0.1-0.1-0.1-0.1
					c-0.1,0-0.1-0.1-0.2,0c-0.1,0-0.2,0-0.2,0c0,0,0,0-0.1,0c-0.1,0-0.1,0-0.1,0.1c0,0,0,0.1,0,0.1c0,0,0,0.1,0,0.1
					c0,0.1,0,0.2,0,0.2c0,0,0,0.1,0,0.1c0,0,0,0.1,0,0.1c0,0-0.1,0.1-0.1,0.1c0,0,0,0.1,0.1,0.1c0,0,0.1,0.1,0.1,0.1
					c0,0.1,0,0.2,0,0.2c0,0.1,0,0.2-0.1,0.3c0,0-0.1,0-0.1,0c0,0,0,0-0.1,0.1c0,0.2,0.1,0.3,0.1,0.5c0,0-0.1,0.1-0.1,0.1
					c0,0-0.1-0.1-0.1-0.1c0.1-0.1,0-0.1,0-0.2c0,0-0.1,0-0.1,0c0,0,0-0.1,0-0.1c0-0.1,0-0.1,0-0.2c0-0.1,0-0.1-0.1-0.1
					c-0.1,0-0.1,0-0.2,0c0,0-0.1,0-0.1,0c-0.1-0.1-0.2-0.1-0.3-0.2c0-0.1-0.1-0.1-0.2-0.1c-0.1-0.1-0.1-0.1-0.3,0
					c-0.1-0.1,0-0.2-0.1-0.3c-0.1,0-0.1,0-0.1,0c0-0.1,0-0.2,0-0.3c0-0.1,0.1-0.2,0.1-0.3c0,0,0-0.1,0.1-0.1c0,0,0,0,0-0.1
					c0,0,0-0.1,0.1-0.1c0,0,0.1,0,0.1-0.1c0-0.1,0-0.2,0.1-0.2c0,0,0.1,0,0.2,0c0,0,0-0.1,0.1-0.1c0,0,0-0.1,0.1-0.1
					c0,0.1,0,0.1,0,0.2c0,0,0,0,0,0c0,0,0,0.1,0,0.1c0,0,0.1,0,0.1,0c0,0,0,0.1,0,0.1c0,0,0.1,0,0.1,0c0,0,0.1,0,0.1,0
					c0,0,0,0,0.1-0.1c0,0,0-0.1,0.1-0.1c0.1,0,0.1,0.1,0.2,0.1c0.1,0,0.1-0.1,0.1-0.1c0,0,0-0.1,0-0.1c-0.1,0-0.1-0.1-0.1-0.1
					c0-0.1-0.1-0.1-0.2-0.2c0,0-0.1,0-0.1-0.1c0,0-0.1-0.1-0.1-0.1c0.1,0,0.1,0,0.2-0.1c0.1,0,0.1-0.1,0.2-0.1
					c0.1,0,0.1-0.1,0.1-0.1c0,0,0-0.1,0-0.1c0,0,0,0,0,0c0,0,0,0,0,0c-0.1-0.1-0.1-0.1,0-0.2c0,0,0,0,0-0.1c0-0.1,0-0.2,0-0.2
					c0,0-0.1,0-0.1,0c0,0,0-0.1,0-0.1c0,0,0.1,0,0.1,0c0,0,0.1,0.1,0.1,0.1c0,0,0.1,0,0.1,0c0.1,0,0.1-0.1,0.1-0.1
					c0.1,0.1,0.1,0.1,0.2,0.2c0,0,0,0.1,0,0.1c0,0,0,0.1,0,0.1c0,0,0.1,0,0.1,0c0,0,0,0,0.1,0c0,0,0.1,0.1,0.1,0.1
					C16,7.3,16,7.3,16,7.4c0,0,0,0.1,0,0.1c0,0-0.1,0.1-0.1,0.1c0,0.1-0.1,0.1-0.1,0.1c0,0,0,0.1,0,0.1c0,0,0,0.1,0.1,0.1
					c-0.1,0-0.1,0-0.1,0c-0.1,0-0.1,0-0.2,0c-0.1,0-0.1,0-0.1,0.1c0,0,0,0,0,0.1c0,0.1-0.1,0.2,0,0.2c0,0,0,0,0,0c0.1,0,0.1,0,0.2,0
					c0,0,0.1,0,0.1,0c0.1,0,0.2,0.1,0.3,0.2c0,0.1,0,0.1,0.1,0.2c0,0,0.1,0,0.1,0c0.1,0,0.1,0,0.2,0.1c0.1,0.1,0.2,0.1,0.3,0.1
					c0,0,0.1,0,0.1-0.1c0-0.1,0-0.1,0-0.2c0.1,0,0.1,0,0.2,0c0,0,0-0.1,0-0.2c0,0,0-0.1,0-0.1c0,0-0.1-0.1,0-0.2c0,0,0-0.1,0-0.1
					c0,0-0.1-0.1-0.1-0.1c-0.1,0-0.1-0.1-0.1-0.2c0,0,0,0,0-0.1c0.1,0,0.1,0.1,0.1,0.2c0,0.1,0.1,0.1,0.1,0.2c0,0,0.1,0,0.1,0
					c0,0,0-0.1,0-0.1c0,0,0,0,0,0c0.1,0,0.1-0.1,0.1-0.1c0,0,0-0.1,0.1-0.1c0-0.1,0-0.1,0-0.2c-0.1-0.1-0.2-0.2-0.2-0.2
					c-0.1-0.1-0.2-0.1-0.3-0.1c0,0-0.1,0-0.1-0.1c0,0,0-0.1,0-0.1c0,0,0,0,0,0c0,0,0,0,0,0c0,0,0-0.1,0-0.1c0,0-0.1-0.1-0.1-0.1
					c0-0.1,0-0.1,0-0.2c0-0.1-0.1-0.2-0.1-0.2c-0.1-0.1-0.1-0.1-0.2-0.2C16.3,6.1,16.2,6.1,16,6c0,0,0,0-0.1,0c0,0,0,0,0-0.1
					c0-0.1,0-0.1,0-0.2c0,0,0-0.1-0.1-0.1c0,0-0.1,0-0.1,0c0,0-0.1,0-0.1,0c0-0.1,0-0.2,0-0.4c0,0-0.1-0.1-0.1-0.1
					c-0.1,0-0.2-0.1-0.3,0c0,0-0.1,0-0.1,0c0,0-0.1-0.1-0.1-0.1c-0.1,0-0.1,0.1-0.2,0.1c-0.1,0-0.1,0-0.2,0c-0.1,0-0.1,0-0.2,0
					c-0.1,0-0.1,0-0.1,0c-0.1,0.1-0.1,0.1-0.2,0.2c0,0,0,0.1-0.1,0.1c0,0.1,0,0.1,0,0.2c0,0.1,0,0.2,0,0.3c0,0,0,0.1,0,0.1
					c0.1,0.1,0.1,0.2,0.2,0.3c0,0,0.1,0.1,0.1,0.1c0,0,0.1,0.1,0.1,0.1c0,0.1,0,0.2,0,0.3c0,0.1,0,0.2,0,0.3
					c-0.1,0.1-0.1,0.1-0.1,0.2c-0.1,0-0.1-0.1-0.1-0.2c0-0.1,0-0.1,0-0.2c0,0,0,0,0-0.1c0-0.1-0.1-0.1-0.1-0.1c0,0-0.1,0-0.1,0
					c0,0,0,0.1-0.1,0.1c-0.1-0.1-0.1-0.2-0.2-0.3c0,0,0.1-0.1,0.1-0.1c-0.1-0.2-0.2-0.4-0.3-0.6c0-0.1,0.1-0.2,0-0.2
					c0-0.1,0.1,0,0.1,0c0,0,0.1,0,0.1-0.1c0.1-0.1,0.1-0.2,0.2-0.4c0,0,0,0,0-0.1c0,0,0,0,0,0c-0.1-0.1-0.2-0.1-0.4-0.1c0,0,0,0,0,0
					c-0.1,0-0.1,0-0.2,0c-0.1,0-0.1,0-0.1,0.1c0,0.1,0,0.2,0,0.3c0,0.1,0,0.3,0,0.4c0,0.1,0,0.1-0.1,0.2c0,0,0,0,0,0.1
					c0,0.1-0.1,0.2-0.1,0.3c0,0,0,0.1,0,0.1c0.1,0.1,0.1,0.2,0.2,0.2c0,0,0.1,0,0.1,0.1c0,0,0,0.1-0.1,0.1c0-0.1-0.1-0.1-0.1-0.1
					c0-0.1-0.1-0.1-0.1-0.2c0,0-0.1,0-0.1,0c0,0,0,0,0,0.1c0,0.1-0.1,0.1-0.1,0.2c0,0,0,0,0,0c0,0,0,0.1,0,0.1c0,0,0.1,0.1,0.1,0.1
					c0,0.1,0,0.1-0.1,0.2c-0.1,0-0.1,0-0.2,0c-0.1,0-0.2-0.1-0.3-0.2c0,0-0.1-0.1-0.1-0.1c0,0-0.1-0.1-0.1-0.1c0,0-0.1,0-0.1,0
					c0,0,0.1-0.1,0.1-0.1C12.4,7,12.5,7,12.5,7c0,0,0.1,0,0.1,0c0.1,0,0.2-0.1,0.2-0.1c0,0,0-0.1,0-0.1c0,0,0,0,0,0c0,0,0.1,0,0.1,0
					c0,0,0-0.1,0-0.1c0,0,0-0.1,0-0.1c0,0-0.1,0-0.1,0c-0.1,0-0.1-0.1-0.2-0.1c-0.1,0-0.1-0.1-0.1-0.1c0,0,0-0.1,0-0.1
					c0,0,0-0.1,0-0.1c0,0,0-0.1,0-0.1c-0.3,0.4-0.5,0.8-0.7,1.2c0,0,0,0,0,0c0.1,0,0.2,0,0.3-0.1c0,0-0.1,0.1-0.1,0.1
					c0,0,0,0.1,0,0.1c0,0-0.1,0-0.1,0c0,0-0.1,0-0.1,0c0,0-0.1,0-0.1,0.1v0c-0.7,1.3-1.2,2.7-1.5,4.2C10.2,11.5,10.2,11.6,10.2,11.6
					z M17,22.8C17,22.8,17,22.8,17,22.8C17,22.8,17,22.8,17,22.8C17,22.8,17,22.8,17,22.8C17,22.8,17,22.8,17,22.8z M16.8,11.3
					c0,0,0.1,0,0.1,0c0,0,0,0,0.1,0.1C16.9,11.4,16.9,11.4,16.8,11.3C16.8,11.4,16.8,11.4,16.8,11.3C16.7,11.3,16.7,11.3,16.8,11.3z
					 M15,11.7c0.1,0,0.1,0,0.2,0c0,0,0.1,0,0.1,0.1c-0.1,0-0.1-0.1-0.1-0.1c0,0-0.1,0-0.1,0c0,0,0,0,0,0.1c0,0.1,0,0.1,0,0.2
					c0,0,0,0,0,0C15,11.9,15,11.8,15,11.7C15,11.7,15,11.7,15,11.7z M14.6,12.3c0,0,0,0.1,0,0.1C14.4,12.4,14.5,12.3,14.6,12.3
					c-0.1-0.1-0.1-0.1-0.1-0.2c0,0,0,0,0,0C14.5,12.1,14.5,12.2,14.6,12.3C14.6,12.3,14.6,12.3,14.6,12.3z M14.5,12
					C14.5,12,14.5,12,14.5,12C14.5,12,14.5,12,14.5,12C14.5,12,14.5,12,14.5,12C14.5,12,14.5,12,14.5,12z M14.6,11.9
					C14.6,11.9,14.5,11.9,14.6,11.9C14.5,11.8,14.6,11.8,14.6,11.9C14.6,11.8,14.6,11.8,14.6,11.9C14.6,11.9,14.6,11.9,14.6,11.9z
					 M14.1,11.5C14.1,11.5,14.1,11.5,14.1,11.5c0.2-0.1,0.2-0.2,0.3-0.2c0,0,0,0,0.1,0c0,0,0,0,0.1,0c0,0,0,0.1,0.1,0.1c0,0,0,0,0,0
					c0,0,0,0,0,0.1c0,0.1-0.1,0.1-0.2,0.1c0,0-0.1,0-0.1,0c0,0,0-0.1,0-0.1c0,0,0-0.1-0.1,0c0,0-0.1,0-0.1,0.1
					C14.2,11.5,14.1,11.6,14.1,11.5C14,11.6,14,11.5,14.1,11.5z M15.2,5.7c0.1,0,0.1,0,0.2,0.1c-0.1,0-0.1,0-0.2,0.1
					C15.2,5.7,15.2,5.7,15.2,5.7z M14.7,5.4C14.7,5.4,14.7,5.4,14.7,5.4C14.7,5.5,14.7,5.5,14.7,5.4C14.7,5.5,14.7,5.5,14.7,5.4
					C14.7,5.5,14.7,5.4,14.7,5.4z M13.4,7.2c0.1,0,0.1-0.1,0.2-0.1c0,0,0,0,0,0.1c0,0.1-0.1,0.1-0.1,0.2C13.4,7.3,13.4,7.3,13.4,7.2
					z M12.2,7L12.2,7L12.2,7L12.2,7z M12.1,7.3C12,7.3,12,7.3,12.1,7.3C12,7.3,12,7.3,12.1,7.3z M11.4,14.1
					C11.5,14.1,11.5,14.1,11.4,14.1c0.1,0.1,0.1,0.1,0.1,0.1c0,0.1,0.1,0.2,0.1,0.2c0,0,0,0,0,0c-0.1-0.1-0.1-0.2-0.2-0.3
					C11.4,14.2,11.4,14.1,11.4,14.1z M11.3,14.2C11.3,14.2,11.3,14.2,11.3,14.2C11.3,14.2,11.3,14.2,11.3,14.2
					C11.3,14.2,11.3,14.2,11.3,14.2C11.3,14.2,11.3,14.2,11.3,14.2z M11.3,14.2C11.3,14.2,11.3,14.2,11.3,14.2
					C11.3,14.2,11.3,14.2,11.3,14.2z"/>
				<path fill="#E8EAE9" d="M16.7,2.2c0,0,0.1,0,0.1,0c0,0,0.1,0,0.1,0c0,0.1,0.1,0.2,0,0.3c0,0,0,0.1,0,0.1c0,0,0,0.1-0.1,0.1
					c0,0-0.1,0-0.1,0c-0.1,0-0.2,0.1-0.3,0.2c0,0-0.1,0.1-0.2,0.1c0,0-0.1,0-0.1,0.1c0,0-0.1,0-0.1,0.1c0,0.1,0,0.1-0.1,0.2
					c0.1,0.1,0.2,0.2,0.3,0.2c0,0,0,0.1,0,0.1c0,0,0.1,0.1,0.1,0.1c-0.1,0-0.1,0.1-0.2,0.1c0,0,0,0,0,0.1C16.2,4,16.3,4,16.4,4.1
					c0,0,0,0,0,0c0,0.1,0,0.1,0,0.1c0.1,0.1,0.2,0.2,0.4,0.2c0,0,0,0,0,0c0.1-0.1,0.1-0.1,0.2-0.1c0,0,0,0,0,0c0.2,0,0.1,0,0.3,0.1
					c0.1,0.1,0.1,0.1,0.2,0.1c0,0,0,0,0,0c0,0.1,0,0.2,0.1,0.2c0,0,0.1,0.1,0.1,0.1c0,0.1,0.1,0.1,0.1,0.2c0,0.1,0,0.1,0,0.1
					c0,0.1,0.1,0.2,0,0.2c0,0.1,0,0.1,0,0.2c0,0.1,0,0.1,0,0.2c0,0,0,0.1,0,0.1c0,0,0,0,0,0.1c0,0.1,0,0.2,0.1,0.2
					c0.1,0,0.1,0,0.2,0c0,0,0,0.1,0,0.1c0,0-0.1,0-0.1,0c0,0-0.1,0-0.1,0c0,0.1,0,0.3-0.1,0.4c0,0,0.1,0.1,0.1,0.1c0,0,0.1,0,0.1,0
					c0.1,0,0.1,0,0.2-0.1c0.1,0.1,0,0.2,0,0.2c0,0-0.1,0-0.1,0c0,0-0.1,0-0.1,0c0,0.1-0.1,0.1-0.1,0.2c0,0.2,0,0.3,0,0.5
					c0,0.1,0,0.1,0.1,0.2c0,0,0.1,0.1,0.1,0.1c0,0.1,0,0.1,0,0.2c0,0,0,0.1,0,0.1c0,0,0,0.1,0,0.1c0,0,0,0,0,0.1
					c0.1,0.2,0.2,0.3,0.2,0.5c0.1,0.1,0.1,0.2,0.3,0.2c0,0,0,0,0,0c0.1,0,0.1,0,0.2,0.1c0,0,0.1,0.1,0.1,0.1c0,0,0.1,0,0.1,0
					c0,0,0.1,0,0.1-0.1c0-0.1,0.1-0.2,0.1-0.3c0-0.1,0-0.1,0-0.2c0,0,0,0,0-0.1c0.1,0,0.1-0.1,0.2-0.1c0,0,0.1-0.1,0.1-0.1
					c0-0.1,0-0.2,0-0.3c0,0,0,0,0-0.1c0,0,0-0.1,0-0.1c0.1,0,0.2,0,0.2,0c0.1,0,0.2-0.1,0.2-0.1c0.1-0.1,0.2-0.2,0.2-0.3
					c0-0.1,0.1-0.2,0.2-0.3c0,0,0,0,0.1,0c0.1,0,0.1,0,0.2,0c0.1,0,0.2-0.1,0.3-0.1c0.2-0.1,0.3-0.2,0.4-0.3c0,0,0,0,0,0
					c0,0,0.1-0.1,0.1-0.1c0,0,0-0.1,0-0.1c0,0,0,0,0,0c0,0,0.1,0,0.1,0c0-0.1,0-0.2,0-0.2c0-0.1,0-0.1-0.1-0.2c0,0,0,0,0-0.1
					c0.1,0,0.1-0.1,0.1-0.2c0-0.1,0-0.2-0.1-0.2c0-0.1,0.1-0.1,0.2-0.1c0.1,0,0.1,0,0.1-0.1c0,0,0-0.1,0-0.1c0,0,0-0.1,0-0.1
					C22,5.2,22,5.1,22.1,5c0-0.1,0-0.1-0.1-0.1c0,0,0,0,0,0c0,0,0.1,0,0.1,0c0.1,0,0.1,0,0.1-0.1c0-0.1-0.1-0.1-0.1-0.1
					c0,0,0,0,0-0.1C22,4.4,22,4.3,22,4.3c0,0,0,0-0.1-0.1c0,0-0.1,0-0.1,0c0-0.1,0-0.1,0.1-0.2C21.9,4,22,4,22,4c0,0,0,0,0.1,0
					c0,0,0-0.1,0-0.1c0-0.1,0-0.1,0-0.2c0-0.1-0.1-0.2-0.1-0.2c0-0.1-0.1-0.1,0-0.2c0-0.1,0-0.2,0-0.3c0-0.1,0-0.1,0-0.1
					c0-0.1,0.1-0.1,0.1-0.2c0-0.1,0.1-0.2,0.1-0.3c0-0.1,0.1-0.1,0.1-0.2c0-0.1,0.1-0.2,0.2-0.3c0.1-0.1,0.2-0.3,0.3-0.4
					c0.1-0.1,0.1-0.1,0-0.2c0-0.1-0.1-0.1-0.1-0.2c0,0,0-0.1-0.1-0.1c-0.1,0-0.1,0-0.2-0.1c-0.2,0-0.1-0.1-0.2,0.1
					c0,0-0.1,0.1-0.1,0.1C22,1.1,22,1,21.9,1c-0.1,0-0.1,0.1-0.1,0.1c-0.1,0.1-0.1,0.2-0.2,0.2c0,0-0.1,0.1-0.2,0.1
					c0-0.1,0-0.2,0.1-0.3c0.1-0.1,0.1-0.2,0.2-0.2c0,0,0-0.1,0-0.1c0-0.1,0-0.1,0-0.2c0,0,0-0.1-0.1,0c-0.1,0-0.2,0-0.2,0.1
					c0,0-0.1,0-0.1,0.1c0,0,0,0.1,0,0.1c0,0,0,0,0,0c0,0,0,0-0.1,0c0-0.1,0-0.1,0-0.1c0-0.1,0-0.1,0-0.2c0,0,0.1,0,0.1,0
					c0.2,0,0.3-0.1,0.4-0.2c0.1-0.1,0.1-0.1,0-0.2c0,0,0,0,0,0c-1.9,0.3-3.7,1-5.3,2C16.6,2.2,16.6,2.2,16.7,2.2z M21.4,6.5
					c0-0.1,0-0.1,0-0.1c0,0,0,0,0,0C21.4,6.4,21.4,6.4,21.4,6.5z M21.4,6.3C21.4,6.3,21.4,6.4,21.4,6.3C21.4,6.4,21.4,6.4,21.4,6.3
					C21.4,6.3,21.4,6.3,21.4,6.3z"/>
			</g>
		</g>
		<g>
			<path fill="#415A6B" d="M42.5,31.4c0,2.3-0.9,4.2-2.1,4.2s-2.1-1.9-2.1-4.2s0.9-3.9,2.1-3.9S42.5,29.1,42.5,31.4z"/>
			<ellipse fill="#415A6B" cx="34.8" cy="31.4" rx="2.1" ry="4.2"/>
			<polygon fill="#F3705A" points="39,48 38.6,43.7 37,43.7 36.6,48 			"/>
			<path fill="#415A6B" d="M48,48l-0.8-4c-0.2-1.1-1-2.1-2.1-2.5l-3-1.1c-1,1.5-2,4.3-3,7.6H48z"/>
			<path fill="#415A6B" d="M36.4,48c-1-3.2-2-6.1-3-7.5l-3,1.1c-1.1,0.4-1.9,1.3-2.1,2.5L27.6,48H36.4z"/>
			<path fill="#F7B64C" d="M35,36v3.3c1.9,3.1,3.7,3.1,5.6,0V36H35z"/>
			<polygon fill="#F3705A" points="38.6,43.7 39.2,43 37.8,41.5 36.4,43 37,43.7 			"/>
			<polygon fill="#F3F3F3" points="40.6,39.3 37.8,41.5 39.9,43.7 			"/>
			<polygon fill="#F3F3F3" points="35,39.3 37.8,41.5 35.7,43.7 			"/>
			<polygon fill="#344A5E" points="40,48 42,44.5 40.9,43.2 42.2,43.5 42.2,40.4 40.6,39.3 38.8,48 			"/>
			<polygon fill="#344A5E" points="33.6,44.5 35.6,48 36.8,48 35,39.3 33.4,40.4 33.4,43.5 34.7,43.2 			"/>
			<path fill="#FFD15C" d="M42.2,33.2c0,3-2,6.5-4.4,6.5c-2.5,0-4.4-3.5-4.4-6.5c0-3,2-5.4,4.4-5.4C40.2,27.8,42.2,30.2,42.2,33.2z"
				/>
			<path fill="#415A6B" d="M41.5,28.3c-2.1-2.6-5.5-2.6-7.7,0l0,0C35.8,30.4,39.7,30.1,41.5,28.3L41.5,28.3L41.5,28.3z"/>
			<g>
				<path fill="#FFD15C" d="M42.9,34.7c-0.1,0.8-0.6,1.4-1.1,1.4c-0.5-0.1-0.8-0.8-0.7-1.6c0.1-0.8,0.6-1.4,1.1-1.4
					C42.7,33.1,43,33.8,42.9,34.7z"/>
				<g>
					<path fill="#FFD15C" d="M32.6,34.7c0.1,0.8,0.6,1.4,1.1,1.4c0.5-0.1,0.8-0.8,0.7-1.6c-0.1-0.8-0.6-1.4-1.1-1.4
						C32.8,33.1,32.4,33.8,32.6,34.7z"/>
				</g>
			</g>
		</g>
		<g>
			<path fill="#415A6B" d="M14.8,31.4c0,2.3-0.9,4.2-2.1,4.2s-2.1-1.9-2.1-4.2s0.9-3.9,2.1-3.9S14.8,29.1,14.8,31.4z"/>
			<ellipse fill="#415A6B" cx="7.2" cy="31.4" rx="2.1" ry="4.2"/>
			<polygon fill="#F3705A" points="11.4,48 10.9,43.7 9.4,43.7 8.9,48 			"/>
			<path fill="#415A6B" d="M20.4,48l-0.8-4c-0.2-1.1-1-2.1-2.1-2.5l-3-1.1c-1,1.5-2,4.3-3,7.6H20.4z"/>
			<path fill="#415A6B" d="M8.8,48c-1-3.2-2-6.1-3-7.5l-3,1.1C1.8,42,1,42.9,0.8,44.1L0,48H8.8z"/>
			<path fill="#F7B64C" d="M7.4,36v3.3c1.9,3.1,3.7,3.1,5.6,0V36H7.4z"/>
			<polygon fill="#F3705A" points="10.9,43.7 11.6,43 10.2,41.5 8.7,43 9.4,43.7 			"/>
			<polygon fill="#F3F3F3" points="13,39.3 10.2,41.5 12.2,43.7 			"/>
			<polygon fill="#F3F3F3" points="7.4,39.3 10.2,41.5 8.1,43.7 			"/>
			<polygon fill="#344A5E" points="12.4,48 14.4,44.5 13.3,43.2 14.6,43.5 14.6,40.4 13,39.3 11.2,48 			"/>
			<polygon fill="#344A5E" points="5.9,44.5 7.9,48 9.1,48 7.4,39.3 5.8,40.4 5.8,43.5 7.1,43.2 			"/>
			<path fill="#FFD15C" d="M14.5,33.2c0,3-2,6.5-4.4,6.5s-4.4-3.5-4.4-6.5c0-3,2-5.4,4.4-5.4S14.5,30.2,14.5,33.2z"/>
			<path fill="#415A6B" d="M13.9,28.3c-2.1-2.6-5.5-2.6-7.7,0l0,0C8.2,30.4,12,30.1,13.9,28.3L13.9,28.3L13.9,28.3z"/>
			<g>
				<path fill="#FFD15C" d="M15.2,34.7c-0.1,0.8-0.6,1.4-1.1,1.4c-0.5-0.1-0.8-0.8-0.7-1.6c0.1-0.8,0.6-1.4,1.1-1.4
					C15,33.1,15.4,33.8,15.2,34.7z"/>
				<g>
					<path fill="#FFD15C" d="M4.9,34.7C5,35.5,5.5,36.1,6,36c0.5-0.1,0.8-0.8,0.7-1.6C6.7,33.6,6.2,33,5.7,33
						C5.1,33.1,4.8,33.8,4.9,34.7z"/>
				</g>
			</g>
		</g>
		<g>
			<g>
				<g>
					<polygon fill="#415A6B" points="29.2,40 27.7,41.5 24,37.7 20.3,41.5 18.8,40 22.9,35.8 22.9,29.9 25.1,29.9 25.1,35.8 					
						"/>
				</g>
			</g>
		</g>
	</g>
</g>
</svg>
