<?xml version="1.0" encoding="utf-8"?>
<!-- Generator: Adobe Illustrator 18.0.0, SVG Export Plug-In . SVG Version: 6.00 Build 0)  -->
<!DOCTYPE svg PUBLIC "-//W3C//DTD SVG 1.1//EN" "http://www.w3.org/Graphics/SVG/1.1/DTD/svg11.dtd">
<svg version="1.1" id="Layer_1" xmlns="http://www.w3.org/2000/svg" xmlns:xlink="http://www.w3.org/1999/xlink" x="0px" y="0px"
	 viewBox="0 0 512 512" enable-background="new 0 0 512 512" xml:space="preserve">
<g>
	<path fill="#F2F2F2" d="M442.4,2H174.5L48.4,128.1v360.7c0,11.7,9.5,21.2,21.2,21.2h372.8c11.7,0,21.2-9.5,21.2-21.2V23.2
		C463.6,11.5,454.1,2,442.4,2z"/>
	<path fill="#CDD6E0" d="M153.4,128.1c11.7,0,21.2-9.5,21.2-21.2V2L48.4,128.1H153.4z"/>
	<rect x="94.2" y="226.3" fill="#FFD15C" width="323.5" height="23"/>
	<rect x="94.2" y="292.9" fill="#CDD6E0" width="323.5" height="23"/>
	<rect x="94.2" y="359.5" fill="#CDD6E0" width="323.5" height="23"/>
	<rect x="94.2" y="426.1" fill="#FF7058" width="146.1" height="23"/>
	<rect x="279" y="48.8" fill="#CDD6E0" width="138.8" height="147.2"/>
</g>
</svg>
