<?xml version="1.0" encoding="utf-8"?>
<!-- Generator: Adobe Illustrator 18.0.0, SVG Export Plug-In . SVG Version: 6.00 Build 0)  -->
<!DOCTYPE svg PUBLIC "-//W3C//DTD SVG 1.1//EN" "http://www.w3.org/Graphics/SVG/1.1/DTD/svg11.dtd">
<svg version="1.1" id="Layer_1" xmlns="http://www.w3.org/2000/svg" xmlns:xlink="http://www.w3.org/1999/xlink" x="0px" y="0px"
	 viewBox="0 0 48 48" enable-background="new 0 0 48 48" xml:space="preserve">
<g>
	<g>
		<path fill="#415A6B" d="M0,29.5v15.5C0,46.6,1.4,48,3.1,48h6.5V29.5H0z"/>
		<path fill="#E8EAE9" d="M37.3,0H3.1C1.4,0,0,1.4,0,3.1v27.4L5.9,48h31.3c1.7,0,3.1-1.4,3.1-3.1V3.1C40.3,1.4,38.9,0,37.3,0z"/>
		<rect x="5.2" y="5.1" fill="#CED6E0" width="30.1" height="2"/>
		<rect x="5.2" y="12.3" fill="#CED6E0" width="30.1" height="2"/>
		<rect x="5.2" y="19.4" fill="#CED6E0" width="30.1" height="2"/>
		<rect x="5.2" y="26.6" fill="#CED6E0" width="30.1" height="2"/>
		<rect x="16" y="33.7" fill="#CED6E0" width="19.2" height="2"/>
		<rect x="16" y="40.9" fill="#CED6E0" width="19.2" height="2"/>
		<path fill="#66C6B9" d="M7.8,37.6L0,30.5L5.9,48c0-1.4,0.6-3.2,1.9-4.4C9.5,41.9,9.6,39.2,7.8,37.6z"/>
		<path fill="#F7B64C" d="M25.7,27.2l-6.3,1.5l1.5-6.3c0,0,3-0.2,4,0.8C25.9,24.2,25.7,27.2,25.7,27.2z"/>
		<path fill="#FFD15C" d="M23.9,25.8l-4.5,2.8l2.8-4.5c0.8-0.8,1.6-0.8,2-0.3C24.7,24.2,24.7,25,23.9,25.8z"/>
		<path fill="#415A6B" d="M21.6,28.1l-2.2,0.5l0.5-2.2C20.8,26.6,21.4,27.3,21.6,28.1z"/>
		<path fill="#F05540" d="M39.3,3.9L20.9,22.3c0.4,0,0.8,0.1,1,0.4c0.4,0.4,0.5,0.9,0.3,1.4L40.9,5.4L39.3,3.9z"/>
		<path fill="#F3705A" d="M40.9,5.4L22.2,24.1c0.5-0.2,1-0.1,1.4,0.3c0,0,0,0,0,0c0.4,0.4,0.5,0.9,0.3,1.4L42.6,7.1L40.9,5.4z"/>
		<path fill="#F05540" d="M42.6,7.1L23.9,25.8c0.5-0.2,1-0.1,1.4,0.3c0.3,0.3,0.4,0.7,0.4,1L44.2,8.7L42.6,7.1z"/>
		<path fill="#8AD7F8" d="M44.4,8.4l3.1-3.1c0.6-0.6,0.6-1.5,0-2l-2.8-2.8c-0.6-0.6-1.5-0.6-2,0l-3.1,3.1L44.4,8.4z"/>
		
			<rect x="41.5" y="2.4" transform="matrix(0.7071 -0.7071 0.7071 0.7071 8.2851 31.5725)" fill="#E8EAE9" width="1.6" height="6.8"/>
	</g>
</g>
</svg>
