<?xml version="1.0" encoding="utf-8"?>
<!-- Generator: Adobe Illustrator 18.0.0, SVG Export Plug-In . SVG Version: 6.00 Build 0)  -->
<!DOCTYPE svg PUBLIC "-//W3C//DTD SVG 1.1//EN" "http://www.w3.org/Graphics/SVG/1.1/DTD/svg11.dtd">
<svg version="1.1" id="Layer_1" xmlns="http://www.w3.org/2000/svg" xmlns:xlink="http://www.w3.org/1999/xlink" x="0px" y="0px"
	 viewBox="0 0 48 48" enable-background="new 0 0 48 48" xml:space="preserve">
<g>
	<g>
		<g>
			<g>
				<path fill="#415A6B" d="M5.3,22v22.9c0,1.7,1.4,3.1,3.1,3.1h10.9c1.7,0,3.1-1.4,3.1-3.1V22H5.3z"/>
			</g>
			<g>
				<rect x="7.3" y="19" fill="#F3F3F3" width="13.1" height="3"/>
			</g>
			<path fill="#F3705A" d="M11.2,0C9.7,0,8.5,1.2,8.5,2.7V19h10.8V8C19.3,3.6,15.7,0,11.2,0z"/>
		</g>
		<g>
			<g>
				<path fill="#415A6B" d="M42.7,48c-0.2-27.4-4-29.9-8.5-29.9c-4.6,0-8.3,2.5-8.5,29.9H42.7z"/>
			</g>
			<g>
				<path fill="#F3F3F3" d="M25.7,44.9c0,1,0,2,0,3.1h17c0-1.1,0-2.1,0-3.1H25.7z"/>
			</g>
		</g>
	</g>
</g>
</svg>
