<?xml version="1.0" encoding="utf-8"?>
<!-- Generator: Adobe Illustrator 18.0.0, SVG Export Plug-In . SVG Version: 6.00 Build 0)  -->
<!DOCTYPE svg PUBLIC "-//W3C//DTD SVG 1.1//EN" "http://www.w3.org/Graphics/SVG/1.1/DTD/svg11.dtd">
<svg version="1.1" id="Layer_1" xmlns="http://www.w3.org/2000/svg" xmlns:xlink="http://www.w3.org/1999/xlink" x="0px" y="0px"
	 viewBox="0 0 48 48" enable-background="new 0 0 48 48" xml:space="preserve">
<g>
	<g>
		<path fill="#F3F3F3" d="M3.1,45V3c0-1.7,1.3-3,3-3h28.1l10.7,10.7V45c0,1.7-1.3,3-3,3H6.1C4.4,48,3.1,46.7,3.1,45z"/>
		<g>
			<rect x="7.1" y="28.6" fill="#CED6E0" width="33.8" height="2.5"/>
			<rect x="7.1" y="35" fill="#CED6E0" width="33.8" height="2.5"/>
			<rect x="7.1" y="41.5" fill="#CED6E0" width="33.8" height="2.5"/>
		</g>
		<polygon fill="#CED6E0" points="34.2,0 44.9,10.7 34.2,10.7 		"/>
		<g>
			<path fill="#F3705A" d="M16.8,6.4c-5.4,0-9.7,4.4-9.7,9.7c0,5.4,4.4,9.7,9.7,9.7c5.4,0,9.7-4.4,9.7-9.7v0h-9.7V6.4z"/>
			<path fill="#8AD7F8" d="M26.3,8.2c-1.8-2.5-4.7-4.2-8-4.2c0,0,0,0,0,0l0,9.7L26.3,8.2z"/>
			<path fill="#FFD15C" d="M16.8,16.1h9.7c0-2.1-0.6-4-1.7-5.5L16.8,16.1z"/>
		</g>
	</g>
</g>
</svg>
