<?xml version="1.0" encoding="utf-8"?>
<!-- Generator: Adobe Illustrator 16.0.0, SVG Export Plug-In . SVG Version: 6.00 Build 0)  -->
<!DOCTYPE svg PUBLIC "-//W3C//DTD SVG 1.1//EN" "http://www.w3.org/Graphics/SVG/1.1/DTD/svg11.dtd">
<svg version="1.1" id="Layer_1" xmlns="http://www.w3.org/2000/svg" xmlns:xlink="http://www.w3.org/1999/xlink" x="0px" y="0px"
	 width="48px" height="48px" viewBox="0 0 48 48" enable-background="new 0 0 48 48" xml:space="preserve">
<g>
	<path fill="#F8B64C" d="M17.495,31.024c0.08,0.109,0.07,0.109-0.01,0H17.495z"/>
	<path fill="#F8B64C" d="M30.524,31.024c-0.08,0.109-0.09,0.109-0.01,0H30.524z"/>
	<rect x="30.515" y="31.018" fill="#F8B64C" width="0.01" height="0.01"/>
	<rect x="30.515" y="31.018" fill="#F8B64C" width="0.01" height="0.01"/>
	<path fill="#F8B64C" d="M17.485,18.448c0.146,1.676-0.666,3.115-1.816,3.217c-1.148,0.1-2.201-1.176-2.346-2.852
		c-0.148-1.676,0.666-3.115,1.814-3.215C16.288,15.497,17.337,16.774,17.485,18.448"/>
	<path fill="#F8B64C" d="M34.69,18.813c-0.146,1.674-1.197,2.951-2.348,2.85c-1.148-0.1-1.961-1.539-1.814-3.215
		s1.197-2.951,2.346-2.852C34.024,15.698,34.837,17.137,34.69,18.813"/>
	<path fill="#FFD15C" d="M24.007,4.461c-5.338,0-9.664,4.328-9.664,9.664v2.902c0,0.74,0.045,1.48,0.137,2.213v0.004
		c0.459,3.754,2.076,7.27,4.627,10.063l0.916,1.004c0.842,0.922,2.033,1.449,3.281,1.449h1.4c1.248,0,2.439-0.525,3.281-1.447
		l0.92-1.006c2.553-2.793,4.17-6.313,4.631-10.066c0.092-0.736,0.135-1.473,0.135-2.213v-2.902
		C33.671,8.79,29.343,4.461,24.007,4.461"/>
	<path fill="#F8B64C" d="M30.515,31.028v-0.01h0.01v-3.771h-0.002c-0.488,0.721-1.025,1.412-1.617,2.059l-0.92,1.008
		c-0.842,0.922-2.033,1.445-3.281,1.445h-1.4c-1.248,0-2.439-0.525-3.281-1.447l-0.916-1.006c-0.59-0.645-1.125-1.336-1.615-2.055
		c0,0-0.006-0.002-0.006-0.004v3.771l-0.9,0.328c3.877,4.59,10.945,4.592,14.826,0.006l0.004-0.006l-0.891-0.318H30.515z"/>
	<path fill="#40596B" d="M47.815,43.549c0-3.779-2.381-7.158-5.93-8.43l-10.471-3.771l-0.004,0.004
		c-3.881,4.586-10.949,4.584-14.826-0.004L6.114,35.12c-3.549,1.271-5.93,4.65-5.93,8.43V48h47.631V43.549z"/>
	<g opacity="0.1">
		<g>
			<defs>
				<rect id="SVGID_11_" x="20.063" y="27.247" width="11.35" height="7.518"/>
			</defs>
			<clipPath id="SVGID_2_">
				<use xlink:href="#SVGID_11_"  overflow="visible"/>
			</clipPath>
			<path clip-path="url(#SVGID_2_)" fill="#40596B" d="M30.515,31.028v-0.012h0.01v-3.77c-0.002,0.002-0.006,0.006-0.008,0.008
				c-0.486,0.717-1.021,1.406-1.611,2.051l-0.92,1.008c-0.842,0.922-2.033,1.445-3.281,1.445h-1.4c-1.229,0-2.396-0.512-3.236-1.408
				h-0.004l4.443,4.412c2.564-0.133,5.086-1.26,6.904-3.41l0.002-0.004l0.002-0.002l-0.891-0.318H30.515z"/>
		</g>
	</g>
	<path fill="#334A5E" d="M39.694,41.68c-0.943-3.883-0.898-6.225-0.645-7.582l-5.908-2.131h-0.016
		c-1.969,2.943-5.318,2.797-9.125,2.797c-3.809,0-7.158,0.146-9.125-2.797h-0.012l-5.896,2.125c0.252,1.357,0.297,3.703-0.643,7.588
		c0,0-1.289,3.631-2.01,6.32h35.379C40.985,45.311,39.694,41.68,39.694,41.68"/>
	<polygon fill="#40596B" points="17.485,31.016 14.864,31.967 19.817,41.125 23.999,34.79 	"/>
	<polygon fill="#40596B" points="30.521,31.016 33.142,31.967 28.188,41.125 24.007,34.79 	"/>
	<rect x="28.126" y="45.266" fill="#40596B" width="9.928" height="2.734"/>
	<rect x="9.958" y="45.266" fill="#40596B" width="9.926" height="2.734"/>
	<path fill="#F2F2F2" d="M24.831,39.674c0,0.455-0.371,0.826-0.826,0.826s-0.826-0.371-0.826-0.826c0-0.457,0.371-0.826,0.826-0.826
		S24.831,39.217,24.831,39.674"/>
	<path fill="#F2F2F2" d="M24.831,45.963c0,0.457-0.371,0.826-0.826,0.826s-0.826-0.369-0.826-0.826c0-0.455,0.371-0.826,0.826-0.826
		S24.831,45.508,24.831,45.963"/>
	<g opacity="0.1">
		<g>
			<defs>
				<rect id="SVGID_13_" x="17.55" y="4.575" width="16.119" height="24.131"/>
			</defs>
			<clipPath id="SVGID_4_">
				<use xlink:href="#SVGID_13_"  overflow="visible"/>
			</clipPath>
			<path clip-path="url(#SVGID_4_)" fill="#40596B" d="M17.55,16.842l11.863,11.863c2.252-2.689,3.693-5.973,4.123-9.465
				c0.092-0.736,0.135-1.473,0.135-2.213v-2.902c0-4.859-3.592-8.869-8.262-9.551L17.55,16.842z"/>
		</g>
	</g>
	<path fill="#334A5E" d="M33.649,19.139c0,0-0.834-0.109-0.555-1.912c0,0,0.273-0.662-0.029-1.346
		c-0.398-0.902-0.564-1.887-0.76-2.854c-0.303-1.514-1.004-3.264-2.611-3.324c0,0-4.057,0.518-5.686,0.518
		c-1.635,0-5.691-0.518-5.691-0.518c-1.6,0.061-2.299,1.799-2.605,3.309c-0.197,0.979-0.379,1.971-0.771,2.889
		c-0.291,0.676-0.023,1.326-0.023,1.326c0.279,1.803-0.555,1.912-0.555,1.912c-2.219-1.664-0.83-8.016-0.83-8.016
		c2.357-8.396,10.477-7.91,10.477-7.91s8.113-0.486,10.471,7.91C34.479,11.124,35.87,17.475,33.649,19.139"/>
	<path fill="#40596B" d="M35.716,9.78c0,0,1.34,7.871-11.711,8.051C10.966,17.651,12.284,9.78,12.284,9.78l-2.279-4.219l5.701-3.891
		L24.005,0l8.291,1.67l5.709,3.891L35.726,9.78H35.716z"/>
	<path fill="#ACB3BA" d="M34.603,13.952c0.686-0.963,0.977-1.934,1.088-2.699c-3.248-1.08-7.146-1.672-11.725-1.734
		c-4.543,0.063-8.42,0.652-11.652,1.725c0.111,0.766,0.402,1.738,1.088,2.703c2.887-0.973,6.422-1.514,10.564-1.57
		C28.144,12.432,31.702,12.977,34.603,13.952"/>
	<path fill="#F2F2F2" d="M24.622,7.782c0,0-0.582,0.08-0.615,0.264c0-0.184-0.617-0.264-0.617-0.264
		c-2.477-0.133-1.879-2.479-1.879-2.479c0.684-0.898,0-1.928,0-1.928l0.982-1.049c0.781,0.799,1.514,0,1.514,0s0.748,0.799,1.514,0
		l0.98,1.049c0,0-0.682,1.029,0,1.928C26.501,5.303,27.099,7.649,24.622,7.782"/>
	<polygon fill="#40596B" points="24.007,3.413 24.405,4.643 25.7,4.643 24.653,5.405 25.054,6.633 24.007,5.874 22.96,6.633 
		23.358,5.405 22.312,4.643 23.606,4.643 	"/>
</g>
</svg>
