<?xml version="1.0" encoding="utf-8"?>
<!-- Generator: Adobe Illustrator 18.0.0, SVG Export Plug-In . SVG Version: 6.00 Build 0)  -->
<!DOCTYPE svg PUBLIC "-//W3C//DTD SVG 1.1//EN" "http://www.w3.org/Graphics/SVG/1.1/DTD/svg11.dtd">
<svg version="1.1" id="Layer_1" xmlns="http://www.w3.org/2000/svg" xmlns:xlink="http://www.w3.org/1999/xlink" x="0px" y="0px"
	 viewBox="0 0 48 48" enable-background="new 0 0 48 48" xml:space="preserve">
<g>
	<g>
		<path fill="#F8B64C" d="M29.8,30l-0.2,8.4L24,42.2l-5.5-3.7L18.2,30c0,0,1.8-1.7,1.3-3.4h8.8C28,28.3,29.8,30,29.8,30z"/>
		<path fill="#F2F2F2" d="M41.9,44.3v-2.9c0-2.8-1.5-5.4-3.9-6.8l-4.1-2.3l-4.1-2.3l0,0l-3.6,8.7l-1.4-5.9l1-1.1h-3.6l1,1.1
			l-1.4,5.9L18.3,30l-4.1,2.3l-4.1,2.3c-2.4,1.4-3.9,4-3.9,6.8v2.9H41.9z"/>
		<g>
			<ellipse transform="matrix(0.9244 -0.3814 0.3814 0.9244 -6.0946 7.883)" fill="#F8B64C" cx="16.8" cy="19.3" rx="1.4" ry="2"/>
			
				<ellipse transform="matrix(-0.9244 -0.3814 0.3814 -0.9244 52.6009 49.0598)" fill="#F8B64C" cx="31.2" cy="19.3" rx="1.4" ry="2"/>
		</g>
		<path fill="#FFD15C" d="M32,16c0,0.4,0,0.9-0.1,1.4v0C31.3,22.1,28,29.7,24,29.7c-4,0-7.3-7.6-7.9-12.4C16,16.9,16,16.4,16,16
			c0-4.4,3.6-8,8-8C28.4,8,32,11.6,32,16z"/>
		<path fill="#40596B" d="M16.3,18.8c-0.2-1.1-0.1-2.6,0.6-3.4c0,0-0.6-5.1,3.1-4.8c0,0,3,1,8.6,0c0,0,2.3-0.1,1.9,2.3
			c0,0-0.6,2.2,0.6,2.7l0.5,3.1l0.5-2.3c0.9-4.2-0.1-8.4-4-10.3C28,6.1,28,6.1,28,6.1c0.5-0.7,1.5-0.4,1.5-0.4
			c-6.6-4.2-11-0.3-11-0.3c-4.7,4.3-3.2,9.3-3.2,9.3C14.8,16.5,16.3,18.8,16.3,18.8z"/>
	</g>
	<path fill="#ACB3BA" d="M9.3,33.4l4.1-2.3l3.7-2.1c0,0,0-0.1,0-0.1h0c0.4-0.5,0.7-1.1,1-1.7c-0.9-1.4-1.7-3-2.3-4.8
		c-0.7-0.4-1.3-1.1-1.6-1.9c-0.4-0.9-0.4-1.9-0.1-2.8c-0.4-1.1-0.6-2.1-0.4-3c-0.1-0.6-0.3-1.9-0.1-3.4c-2.6-0.1-4.1,1.3-4.1,1.3
		c-3.6,3.3-2.5,7.1-2.5,7.1c-0.2,0.8,0.1,1.7,0.5,2.4c-0.3,0.3-0.4,1-0.1,1.6c0.2,0.6,0.7,0.9,1.1,1c0.5,1.5,1.2,3,2,4.2h0
		c0.3,1.3-1,2.6-1,2.6l0,0l-3.2,1.8L3,35c-1.9,1.1-3,3-3,5.2v1h4.6C4.7,38,6.5,35,9.3,33.4z"/>
	<path fill="#ACB3BA" d="M45,35l-3.1-1.8l-3.2-1.8l0,0l0,0c0,0-1.3-1.3-1-2.6h0c0.8-1.2,1.5-2.7,2-4.2c0.4-0.1,0.9-0.5,1.1-1
		c0.3-0.8,0.1-1.6-0.4-1.8l0.2-0.8c0.7-3.2-0.1-6.5-3-7.9c-0.1-0.1-0.2-0.1-0.2-0.1c0.4-0.5,1.1-0.3,1.1-0.3
		c-1.8-1.2-3.4-1.5-4.8-1.5c0.4,1.7,0.3,3.6-0.1,5.6l0,0.2c0.6,0.9,0.8,2.2,0.2,3.4c-0.3,0.8-0.9,1.5-1.6,1.9
		c-0.6,1.8-1.4,3.4-2.3,4.8c0.3,0.6,0.6,1.2,1,1.7h0c0,0,0,0.1,0,0.1l7.7,4.4c2.9,1.6,4.6,4.6,4.7,7.9H48v-1
		C48,38.1,46.8,36.1,45,35z"/>
	<g>
		<polygon fill="#FF7058" points="36.3,39.1 34.4,39.1 34.4,37.2 33.1,37.2 33.1,39.1 31.2,39.1 31.2,40.4 33.1,40.4 33.1,42.3 
			34.4,42.3 34.4,40.4 36.3,40.4 		"/>
	</g>
</g>
</svg>
