<?xml version="1.0" encoding="utf-8"?>
<!-- Generator: Adobe Illustrator 18.0.0, SVG Export Plug-In . SVG Version: 6.00 Build 0)  -->
<!DOCTYPE svg PUBLIC "-//W3C//DTD SVG 1.1//EN" "http://www.w3.org/Graphics/SVG/1.1/DTD/svg11.dtd">
<svg version="1.1" id="Layer_1" xmlns="http://www.w3.org/2000/svg" xmlns:xlink="http://www.w3.org/1999/xlink" x="0px" y="0px"
	 viewBox="0 0 48 48" enable-background="new 0 0 48 48" xml:space="preserve">
<g>
	<g>
		<g>
			<path fill="#FC644F" d="M36.5,25.4l11.3,15.3c-8.5,2.8-28.1,2.2-35.7-1.7V11.8c7.5,3.9,27.2,4.6,35.7,1.7L36.5,25.4L36.5,25.4z"
				/>
		</g>
		<g>
			<polygon fill="#F1543F" points="12.1,38.9 18.2,35.9 13.7,22.3 12.1,24.6 			"/>
		</g>
		<g>
			<path fill="#FF7058" d="M3.8,4.4v27.1c0,0,7.1-1.9,14.3,4.3V8.8C10.9,2.5,3.8,4.4,3.8,4.4z"/>
		</g>
	</g>
	<path fill="#40596B" d="M3,0L3,0C1.5,0,0.2,1.2,0.2,2.7V48h5.5V2.7C5.7,1.2,4.5,0,3,0z"/>
</g>
</svg>
