<?xml version="1.0" encoding="utf-8"?>
<!-- Generator: Adobe Illustrator 20.1.0, SVG Export Plug-In . SVG Version: 6.00 Build 0)  -->
<!DOCTYPE svg PUBLIC "-//W3C//DTD SVG 1.1//EN" "http://www.w3.org/Graphics/SVG/1.1/DTD/svg11.dtd">
<svg version="1.1" id="Layer_1" xmlns="http://www.w3.org/2000/svg" xmlns:xlink="http://www.w3.org/1999/xlink" x="0px" y="0px"
	 viewBox="0 0 49 49" enable-background="new 0 0 49 49" xml:space="preserve">
<g>
	<path fill="#E2E2E2" d="M31.5,46.2h-1.7l-1.6-6.5h-1.6L25,46.2h-1.7c-1.3,0-2.3,1-2.3,2.3h12.8C33.8,47.2,32.8,46.2,31.5,46.2z"/>
	<circle fill="#FFD15C" cx="15.6" cy="8.7" r="8.2"/>
	<circle fill="#F8B64C" cx="15.6" cy="8.7" r="4.9"/>
	<path fill="#F2F2F2" d="M40.6,22.6L40.6,22.6c-0.9-2.3-1.4-4.8-1.4-7.2V8.7H15.6v6.7c0,2.5-0.5,4.9-1.4,7.2l0,0
		C10.6,31.9,17.4,42,27.4,42S44.3,31.9,40.6,22.6z"/>
	<path fill="#54C0EB" d="M37.6,23.1H17.2c-0.1,0.2-0.1,0.4-0.2,0.6c-1.4,3.5-0.9,7.3,1.2,10.4c2.1,3.1,5.5,4.9,9.2,4.9
		c3.8,0,7.1-1.8,9.2-4.9c2.1-3.1,2.5-6.9,1.2-10.4C37.7,23.5,37.7,23.3,37.6,23.1z"/>
	<path fill="#FF7058" d="M41.6,2.9c-0.2-0.5-0.7-0.8-1.2-0.7l-8.8,2.6c-2,0.6-3.7,2.1-4.4,4.1l-5,14.2h2.1l4.8-13.6
		c0.5-1.4,1.6-2.5,3-2.9l8.8-2.6C41.4,3.9,41.7,3.4,41.6,2.9z"/>
</g>
</svg>
