<?xml version="1.0" encoding="utf-8"?>
<!-- Generator: Adobe Illustrator 16.0.0, SVG Export Plug-In . SVG Version: 6.00 Build 0)  -->
<!DOCTYPE svg PUBLIC "-//W3C//DTD SVG 1.1//EN" "http://www.w3.org/Graphics/SVG/1.1/DTD/svg11.dtd">
<svg version="1.1" id="Layer_1" xmlns="http://www.w3.org/2000/svg" xmlns:xlink="http://www.w3.org/1999/xlink" x="0px" y="0px"
	 width="48px" height="48px" viewBox="0 0 48 48" enable-background="new 0 0 48 48" xml:space="preserve">
<g>
	<path fill="#CED6E0" d="M39.647,38.623H27.19c-0.279,0-0.547-0.113-0.744-0.313l-2.254-2.297c-0.396-0.405-0.398-1.054,0-1.46
		l8.484-8.658c0.195-0.199,0.463-0.313,0.744-0.313c0.279,0,0.547,0.113,0.744,0.313l8.482,8.658c0.396,0.406,0.396,1.055,0,1.46
		l-2.254,2.297C40.196,38.51,39.927,38.623,39.647,38.623 M27.63,36.537h11.58l1.232-1.255l-7.021-7.167l-7.023,7.167L27.63,36.537z
		"/>
	<path fill="#CED6E0" d="M33.421,27.876c-0.25,0-0.498-0.089-0.697-0.267l-6.564-5.889c-0.221-0.197-0.348-0.48-0.348-0.776
		c0-0.295,0.125-0.577,0.348-0.776l6.564-5.899c0.395-0.357,0.996-0.357,1.395,0l6.564,5.899c0.219,0.199,0.344,0.481,0.344,0.776
		c0,0.296-0.125,0.579-0.346,0.776l-6.564,5.889C33.917,27.787,33.669,27.876,33.421,27.876 M28.417,20.943l5.004,4.489l5.002-4.489
		l-5.002-4.497L28.417,20.943z"/>
	<path fill="#CED6E0" d="M36.155,11.491l-2.734,2.454l-2.736-2.454H27.56l5.164,4.631c0.199,0.179,0.447,0.267,0.697,0.267
		c0.248,0,0.498-0.088,0.695-0.267l5.162-4.631H36.155z"/>
	<path fill="#415A6B" d="M41.067,12.25H25.772c-1.104,0-2-0.895-2-2V0h19.295v10.25C43.067,11.355,42.171,12.25,41.067,12.25"/>
	<path fill="#8AD7F8" d="M21.733,34.015V18.981c0-1.559-1.262-2.82-2.818-2.82h-5.248c-7.549,0-13.666,6.119-13.666,13.667v8.447
		c0,1.632,1.322,2.956,2.955,2.956h43.043c1.105,0,2-0.896,2-2v-3.217c0-1.105-0.895-2-2-2H21.733z"/>
	<path fill="#E8EAE9" d="M18.21,31.749V19.687h-4.543c-5.594,0-10.143,4.55-10.143,10.142v1.921H18.21z"/>
	<path fill="#F3F3F3" d="M18.21,22.886l-3.061-3.199h-1.482c-0.15,0-0.299,0.016-0.449,0.023l4.992,5.215V22.886z"/>
	<path fill="#F3F3F3" d="M7.462,21.823l9.498,9.926h1.25v-2.774l-8.219-8.588C9.075,20.745,8.226,21.229,7.462,21.823"/>
	<path fill="#415A6B" d="M17.636,41.231c0,3.738-3.031,6.769-6.768,6.769c-3.74,0-6.77-3.03-6.77-6.769
		c0-3.739,3.029-6.77,6.77-6.77C14.604,34.462,17.636,37.492,17.636,41.231"/>
	<path fill="#344A5E" d="M13.948,41.231c0,1.701-1.379,3.081-3.082,3.081c-1.701,0-3.08-1.38-3.08-3.081s1.379-3.081,3.08-3.081
		C12.569,38.15,13.948,39.53,13.948,41.231"/>
	<path fill="#415A6B" d="M44.241,41.231c0,3.738-3.031,6.769-6.77,6.769s-6.768-3.03-6.768-6.769c0-3.739,3.029-6.77,6.768-6.77
		S44.241,37.492,44.241,41.231"/>
	<path fill="#344A5E" d="M40.552,41.231c0,1.701-1.379,3.081-3.08,3.081s-3.08-1.38-3.08-3.081s1.379-3.081,3.08-3.081
		S40.552,39.53,40.552,41.231"/>
</g>
</svg>
