<?xml version="1.0" encoding="utf-8"?>
<!-- Generator: Adobe Illustrator 18.0.0, SVG Export Plug-In . SVG Version: 6.00 Build 0)  -->
<!DOCTYPE svg PUBLIC "-//W3C//DTD SVG 1.1//EN" "http://www.w3.org/Graphics/SVG/1.1/DTD/svg11.dtd">
<svg version="1.1" id="Layer_1" xmlns="http://www.w3.org/2000/svg" xmlns:xlink="http://www.w3.org/1999/xlink" x="0px" y="0px"
	 viewBox="0 0 48 48" enable-background="new 0 0 48 48" xml:space="preserve">
<g>
	<rect x="1.4" y="21.1" fill="#CDD6E0" width="45.2" height="26.9"/>
	<rect y="16.5" fill="#ACB3BA" width="48" height="4.6"/>
	<rect x="1.4" y="21.1" opacity="0.1" fill="#231F20" width="45.2" height="1.5"/>
	<polygon fill="#F2F2F2" points="35.6,48 12.4,48 12.4,10.9 24,2 35.6,10.9 	"/>
	<polygon opacity="0.1" fill="#231F20" points="12.4,10.9 12.4,15.6 24,6.4 35.6,15.7 35.6,10.9 24,2 	"/>
	<path fill="#40596B" d="M36.8,14.2c-0.4,0-0.9-0.1-1.2-0.4L24,4.5l-11.6,9.2c-0.9,0.7-2.1,0.5-2.8-0.4c-0.7-0.9-0.5-2.1,0.4-2.8
		L22.8,0.4c0.7-0.6,1.7-0.6,2.4,0L38,10.6c0.9,0.7,1,1.9,0.4,2.8C38,13.9,37.4,14.2,36.8,14.2z"/>
	<g>
		<rect x="18.4" y="37.5" fill="#40596B" width="5.6" height="10.5"/>
		<rect x="24" y="37.5" fill="#334A5E" width="5.6" height="10.5"/>
	</g>
	<rect x="15.7" y="16.4" fill="#54C0EB" width="3.8" height="3.8"/>
	<rect x="22.1" y="16.4" fill="#54C0EB" width="3.8" height="3.8"/>
	<rect x="15.7" y="23.1" fill="#54C0EB" width="3.8" height="3.8"/>
	<rect x="22.1" y="23.1" fill="#54C0EB" width="3.8" height="3.8"/>
	<rect x="15.7" y="29.8" fill="#54C0EB" width="3.8" height="3.8"/>
	<rect x="22.1" y="29.8" fill="#54C0EB" width="3.8" height="3.8"/>
	<rect x="28.6" y="16.4" fill="#54C0EB" width="3.8" height="3.8"/>
	<rect x="28.6" y="23.1" fill="#54C0EB" width="3.8" height="3.8"/>
	<rect x="28.6" y="29.8" fill="#54C0EB" width="3.8" height="3.8"/>
	<g>
		<rect x="39.2" y="26" fill="#ACB3BA" width="3.8" height="3.8"/>
		<rect x="39.2" y="32.7" fill="#ACB3BA" width="3.8" height="3.8"/>
		<rect x="39.2" y="39.3" fill="#ACB3BA" width="3.8" height="3.8"/>
	</g>
	<g>
		<rect x="5" y="26" fill="#ACB3BA" width="3.8" height="3.8"/>
		<rect x="5" y="32.7" fill="#ACB3BA" width="3.8" height="3.8"/>
		<rect x="5" y="39.3" fill="#ACB3BA" width="3.8" height="3.8"/>
	</g>
</g>
</svg>
