<?xml version="1.0" encoding="utf-8"?>
<!-- Generator: Adobe Illustrator 16.0.0, SVG Export Plug-In . SVG Version: 6.00 Build 0)  -->
<!DOCTYPE svg PUBLIC "-//W3C//DTD SVG 1.1//EN" "http://www.w3.org/Graphics/SVG/1.1/DTD/svg11.dtd">
<svg version="1.1" id="Layer_1" xmlns="http://www.w3.org/2000/svg" xmlns:xlink="http://www.w3.org/1999/xlink" x="0px" y="0px"
	 width="48px" height="48px" viewBox="0 0 48 48" enable-background="new 0 0 48 48" xml:space="preserve">
<g>
	<rect y="-0.002" fill="#F7B64C" width="48" height="48.004"/>
	<rect y="12.648" fill="#FFD15C" width="14.531" height="10.059"/>
	<rect x="11.93" y="-0.002" fill="#FFD15C" width="14.531" height="10.07"/>
	<rect y="37.938" fill="#FFD15C" width="14.531" height="10.061"/>
	<rect x="28.66" y="-0.002" fill="#FFD15C" width="19.34" height="10.07"/>
	<rect x="33.471" y="12.648" fill="#FFD15C" width="14.529" height="10.059"/>
	<rect y="-0.002" fill="#FFD15C" width="9.721" height="10.07"/>
	<rect y="25.297" fill="#FFD15C" width="14.531" height="10.061"/>
	<rect x="33.471" y="25.297" fill="#FFD15C" width="14.529" height="10.061"/>
	<rect x="16.73" y="25.297" fill="#FFD15C" width="14.529" height="10.061"/>
	<rect x="33.471" y="37.938" fill="#FFD15C" width="14.529" height="10.061"/>
	<rect x="16.73" y="37.938" fill="#FFD15C" width="14.529" height="10.061"/>
	<rect x="16.73" y="12.648" fill="#FFD15C" width="14.529" height="10.059"/>
	<path fill="#F3F3F3" d="M44.094,34.492c-4.211-7.178-13.389-10.893-20.859-7.23c-2.072,1.018-8.139-1.84-7.373-14.613
		c0-8.539-4.965-9.492-7.781-12.65H0v48.004h48C47.77,42.555,46.203,38.088,44.094,34.492"/>
</g>
</svg>
