<?xml version="1.0" encoding="utf-8"?>
<!-- Generator: Adobe Illustrator 18.0.0, SVG Export Plug-In . SVG Version: 6.00 Build 0)  -->
<!DOCTYPE svg PUBLIC "-//W3C//DTD SVG 1.1//EN" "http://www.w3.org/Graphics/SVG/1.1/DTD/svg11.dtd">
<svg version="1.1" id="Layer_1" xmlns="http://www.w3.org/2000/svg" xmlns:xlink="http://www.w3.org/1999/xlink" x="0px" y="0px"
	 viewBox="0 0 48 48" enable-background="new 0 0 48 48" xml:space="preserve">
<g>
	<g>
		<g>
			<path fill="#66C6B9" d="M32.8,14.1L34,8.8c0.4-1.6-0.6-3.2-2.2-3.5L12,0.5C10.4,0.1,8.9,1,8.5,2.6L5.7,14.1H32.8z"/>
			<path fill="#E8EAE9" d="M29.1,14.1l0.2-0.7c-2.7-0.7-4.3-3.3-3.7-6l-9-2.2c-0.7,2.7-3.3,4.3-6,3.7l-1.3,5.2H29.1z"/>
		</g>
		<g>
			<circle fill="#66C6B9" cx="19.9" cy="11.3" r="1.8"/>
		</g>
		<g>
			<path fill="#4EC0AA" d="M42.8,12.1l-3.8-9.3c-0.6-1.5-2.3-2.2-3.8-1.6L8.8,12.1H42.8z"/>
			<path fill="#E8EAE9" d="M39,12.1l-1.2-2.8c-2.5,1.1-5.5-0.2-6.5-2.7L18,12.1H39z"/>
		</g>
		<path fill="#FFD15C" d="M43.3,11.3H4c-2.2,0-4,1.8-4,4v28.3c0,2.2,1.8,4,4,4h39.3c2.2,0,4-1.8,4-4V15.3
			C47.3,13.1,45.5,11.3,43.3,11.3z"/>
		<g>
			<g>
				<path fill="#F7B64C" d="M42.1,43.4H5.2c-0.5,0-1-0.4-1-1v-26c0-0.5,0.4-1,1-1h36.9c0.5,0,1,0.4,1,1v26
					C43.1,43,42.6,43.4,42.1,43.4z M5.7,42h35.9v-25H5.7V42z"/>
			</g>
		</g>
		<g>
			<path fill="#F3705A" d="M39.1,24.2c-3.1,0-5.6,2.7-5.3,5.8c0.3,2.8,2.7,4.8,5.5,4.8l7.9,0c0.4,0,0.8-0.3,0.8-0.8v-9
				c0-0.4-0.3-0.8-0.8-0.8H39.1z"/>
			<circle fill="#415A6B" cx="39.1" cy="29.5" r="2.3"/>
		</g>
	</g>
</g>
</svg>
