<?xml version="1.0" encoding="utf-8"?>
<!-- Generator: Adobe Illustrator 18.0.0, SVG Export Plug-In . SVG Version: 6.00 Build 0)  -->
<!DOCTYPE svg PUBLIC "-//W3C//DTD SVG 1.1//EN" "http://www.w3.org/Graphics/SVG/1.1/DTD/svg11.dtd">
<svg version="1.1" id="Layer_1" xmlns="http://www.w3.org/2000/svg" xmlns:xlink="http://www.w3.org/1999/xlink" x="0px" y="0px"
	 viewBox="0 0 48 48" enable-background="new 0 0 48 48" xml:space="preserve">
<g>
	<g>
		<g>
			<path fill="#E8EAE9" d="M44,2.3v43.3c0,1.3-1,2.3-2.3,2.3H13.2V0h28.4C42.9,0,44,1,44,2.3z"/>
		</g>
		<g>
			<path fill="#F3705A" d="M13.2,0H7.5C5.6,0,4,1.6,4,3.5v41C4,46.4,5.6,48,7.5,48h5.7V0z"/>
		</g>
		<g>
			<path fill="#415A6B" d="M36.5,19.8L36.5,19.8c0,1-0.8,1.8-1.8,1.8h-4.2v12.7c0,1-0.8,1.8-1.8,1.8h0c-1,0-1.8-0.8-1.8-1.8V21.6
				h-4.2c-1,0-1.8-0.8-1.8-1.8l0,0c0-1,0.8-1.8,1.8-1.8h4.2v-4.2c0-1,0.8-1.8,1.8-1.8h0c1,0,1.8,0.8,1.8,1.8V18h4.2
				C35.7,18,36.5,18.8,36.5,19.8z"/>
		</g>
	</g>
</g>
</svg>
