<?xml version="1.0" encoding="utf-8"?>
<!-- Generator: Adobe Illustrator 18.0.0, SVG Export Plug-In . SVG Version: 6.00 Build 0)  -->
<!DOCTYPE svg PUBLIC "-//W3C//DTD SVG 1.1//EN" "http://www.w3.org/Graphics/SVG/1.1/DTD/svg11.dtd">
<svg version="1.1" id="Layer_1" xmlns="http://www.w3.org/2000/svg" xmlns:xlink="http://www.w3.org/1999/xlink" x="0px" y="0px"
	 viewBox="0 0 48 48" enable-background="new 0 0 48 48" xml:space="preserve">
<g>
	<rect x="21.5" y="24.7" fill="#40596B" width="3.7" height="19.7"/>
	<polygon fill="#334A5E" points="21.5,30.6 21.5,28.2 25.2,28.2 25.2,30.1 	"/>
	<path fill="#40596B" d="M23.3,39c-3.4,0-6.2,2.8-6.2,6.2h12.4C29.6,41.8,26.8,39,23.3,39z"/>
	<g>
		<g>
			<path fill="#40596B" d="M9.1,9c0,0-0.3-2.5,1.3-2.9l0,0c0.5,0,0.8,0.5,0.4,0.9c-0.6,0.7-1.4,1.7-1.4,2.6C9.3,11.3,9.1,9,9.1,9z"
				/>
			<path fill="#FF7058" d="M13.4,7.9c-1.1-0.2-2.2,0-3.1,0.7C9.6,9,8.8,9.1,8.1,8.7C7,8.3,5.9,8.2,4.9,8.6c-2.7,1-3.8,4.6-2.5,8.2
				c1.3,3.6,4.5,5.7,7.2,4.7c0,0,0,0,0,0c0.4-0.1,0.8-0.2,1.2-0.1c0,0,0,0,0,0c2.8,0.5,5.6-2,6.4-5.8C17.9,11.9,16.2,8.5,13.4,7.9z"
				/>
			<path fill="#4CDBC4" d="M8.9,7.5c-2,0.9-4.3,0-5.2-2C5.7,4.6,8,5.5,8.9,7.5z"/>
		</g>
		<path fill="#4CDBC4" d="M45.4,10.5l-15.7,1.2c0.2,2.9,2,5.4,4.5,6.5l0.1,1.5l7.7-0.6l-0.1-1.5C44.2,16.1,45.6,13.5,45.4,10.5z"/>
		<path fill="#CDD6E0" d="M46.6,4.7l-13.1,1c-0.4,0-0.7,0.4-0.7,0.8s0.4,0.7,0.8,0.7l13.1-1L46.6,4.7z"/>
		<g>
			<g>
				<path fill="#F2F2F2" d="M35.3,9.5c-0.1,0-0.2,0-0.3-0.1C34,8.5,33.9,7,34.7,6C35,5.7,35.1,5.4,35,5c0-0.4-0.2-0.7-0.5-1
					c-0.2-0.2-0.2-0.5-0.1-0.7c0.2-0.2,0.5-0.2,0.7-0.1c0.5,0.4,0.8,1,0.8,1.6c0,0.6-0.2,1.2-0.6,1.7c-0.2,0.3-0.4,0.7-0.3,1
					c0,0.4,0.2,0.7,0.5,1c0.2,0.2,0.2,0.5,0.1,0.7C35.5,9.4,35.4,9.5,35.3,9.5z"/>
			</g>
			<g>
				<path fill="#F2F2F2" d="M38,9.3c-0.1,0-0.2,0-0.3-0.1c-1-0.9-1.1-2.4-0.3-3.3c0.3-0.3,0.4-0.7,0.3-1c0-0.4-0.2-0.7-0.5-1
					c-0.2-0.2-0.2-0.5-0.1-0.7c0.2-0.2,0.5-0.2,0.7-0.1c0.5,0.4,0.8,1,0.8,1.6c0,0.6-0.2,1.2-0.6,1.7c-0.2,0.3-0.4,0.7-0.3,1
					c0,0.4,0.2,0.7,0.5,1c0.2,0.2,0.2,0.5,0.1,0.7C38.3,9.2,38.2,9.3,38,9.3z"/>
			</g>
			<g>
				<path fill="#F2F2F2" d="M40.8,9.1c-0.1,0-0.2,0-0.3-0.1c-1-0.9-1.1-2.3-0.3-3.3c0.5-0.6,0.4-1.5-0.2-2c-0.2-0.2-0.2-0.5-0.1-0.7
					c0.2-0.2,0.5-0.2,0.7-0.1c1,0.9,1.1,2.4,0.3,3.3c-0.2,0.3-0.4,0.7-0.3,1c0,0.4,0.2,0.7,0.5,1c0.2,0.2,0.2,0.5,0.1,0.7
					C41,9,40.9,9.1,40.8,9.1z"/>
			</g>
		</g>
	</g>
	<path fill="#FFD15C" d="M48,22.8c-0.1-1.9-1.8-3.4-3.7-3.2l-41,3.1c-1.9,0.1-3.4,1.8-3.2,3.7l0,0.1c0.1,1.9,1.8,3.4,3.7,3.2l41-3.1
		C46.7,26.5,48.1,24.8,48,22.8L48,22.8z"/>
	<path fill="#F8B64C" d="M44.7,26.6c1.5-0.1,2.6-1.1,3.1-2.4L0.4,27.8c0.6,1.2,1.9,2,3.4,1.9l27.3-2.1L44.7,26.6z"/>
</g>
</svg>
