<?xml version="1.0" encoding="utf-8"?>
<!-- Generator: Adobe Illustrator 18.0.0, SVG Export Plug-In . SVG Version: 6.00 Build 0)  -->
<!DOCTYPE svg PUBLIC "-//W3C//DTD SVG 1.1//EN" "http://www.w3.org/Graphics/SVG/1.1/DTD/svg11.dtd">
<svg version="1.1" id="Layer_1" xmlns="http://www.w3.org/2000/svg" xmlns:xlink="http://www.w3.org/1999/xlink" x="0px" y="0px"
	 viewBox="0 0 512 512" enable-background="new 0 0 512 512" xml:space="preserve">
<g>
	<path fill="#F2F2F2" d="M82.1,84.2l2,15.2l51.1,392.1c1.4,10.5,10.4,18.4,21,18.4h199.8c10.6,0,19.6-7.9,21-18.4l51-392.1l2-15.2
		H82.1z"/>
	<path fill="#F2705B" d="M435.3,2H76.7c-10.2,0-18.4,8.2-18.4,18.4v63.8h395.4V20.4C453.7,10.2,445.4,2,435.3,2z"/>
	<path fill="#F2705B" d="M410.5,193.8h-309c-5.7,0-10.2,5.1-9.4,10.7L115.9,388c0.6,4.7,4.7,8.3,9.4,8.3h261.3
		c4.8,0,8.8-3.5,9.4-8.3L420,204.6C420.7,198.9,416.3,193.8,410.5,193.8z"/>
	<ellipse fill="#FFFFFF" cx="256" cy="288.9" rx="62.2" ry="76.5"/>
</g>
</svg>
