<?xml version="1.0" encoding="utf-8"?>
<!-- Generator: Adobe Illustrator 18.0.0, SVG Export Plug-In . SVG Version: 6.00 Build 0)  -->
<!DOCTYPE svg PUBLIC "-//W3C//DTD SVG 1.1//EN" "http://www.w3.org/Graphics/SVG/1.1/DTD/svg11.dtd">
<svg version="1.1" id="Layer_1" xmlns="http://www.w3.org/2000/svg" xmlns:xlink="http://www.w3.org/1999/xlink" x="0px" y="0px"
	 viewBox="0 0 48 48" enable-background="new 0 0 48 48" xml:space="preserve">
<g>
	<path fill="#40596B" d="M46.1,0H1.9C0.8,0,0,0.8,0,1.9v35.8c0,1,0.8,1.9,1.9,1.9h44.3c1,0,1.9-0.8,1.9-1.9V1.9
		C48,0.8,47.2,0,46.1,0z"/>
	<rect x="17.1" y="4" fill="#84DBFF" width="26.9" height="6.9"/>
	<polygon fill="#54C0EB" points="44,10.9 44,4 17.1,10.9 	"/>
	<path fill="#E8EAEA" d="M11,4H6.1C5,4,4,5,4,6.1v27.5c0,1.2,1,2.1,2.1,2.1H11c1.2,0,2.1-1,2.1-2.1V6.1C13.1,5,12.2,4,11,4z"/>
	<rect x="17.1" y="13.2" fill="#FF7058" width="4" height="4"/>
	<rect x="40" y="13.2" fill="#F2F2F2" width="4" height="4"/>
	<rect x="32.4" y="13.2" fill="#F2F2F2" width="4" height="4"/>
	<rect x="24.8" y="13.2" fill="#FFD15C" width="4" height="4"/>
	<rect x="17.1" y="19.5" fill="#F2F2F2" width="4" height="4"/>
	<rect x="40" y="19.5" fill="#F2F2F2" width="4" height="4"/>
	<rect x="32.4" y="19.5" fill="#F2F2F2" width="4" height="4"/>
	<rect x="24.8" y="19.5" fill="#F2F2F2" width="4" height="4"/>
	<rect x="17.1" y="25.8" fill="#F2F2F2" width="4" height="4"/>
	<rect x="40" y="25.8" fill="#F2F2F2" width="4" height="4"/>
	<rect x="32.4" y="25.8" fill="#F2F2F2" width="4" height="4"/>
	<rect x="24.8" y="25.8" fill="#F2F2F2" width="4" height="4"/>
	<rect x="16.5" y="32.7" fill="#334A5E" width="28.2" height="4"/>
	<rect x="18.5" y="34.7" fill="#F2F2F2" width="24.2" height="13.3"/>
	<rect x="22.5" y="37.7" fill="#CDD6E0" width="16.2" height="2.1"/>
	<rect x="22.5" y="42.9" fill="#CDD6E0" width="16.2" height="2.1"/>
</g>
</svg>
