<?xml version="1.0" encoding="utf-8"?>
<!-- Generator: Adobe Illustrator 18.0.0, SVG Export Plug-In . SVG Version: 6.00 Build 0)  -->
<!DOCTYPE svg PUBLIC "-//W3C//DTD SVG 1.1//EN" "http://www.w3.org/Graphics/SVG/1.1/DTD/svg11.dtd">
<svg version="1.1" id="Layer_1" xmlns="http://www.w3.org/2000/svg" xmlns:xlink="http://www.w3.org/1999/xlink" x="0px" y="0px"
	 viewBox="0 0 512 512" enable-background="new 0 0 512 512" xml:space="preserve">
<g>
	<path fill="#CDD6E0" d="M76.5,60.9H2V39.3C2,18.7,18.7,2,39.3,2l0,0c20.6,0,37.3,16.7,37.3,37.3V60.9z"/>
	<path fill="#F2F2F2" d="M449.1,2H39.3c20.6,0,37.3,16.6,37.3,37.2v433.6c0,20.6,16.7,37.3,37.3,37.3h0h356.4v-58.9V60.9V23.2
		C470.2,11.5,460.8,2,449.1,2z"/>
	<path fill="#CDD6E0" d="M148.9,451.1L148.9,451.1v21.7c0,20.5-16.7,37.2-37.3,37.2l0,0h361.1h-2.5c20.6,0,39.8-16.6,39.8-37.2
		v-21.7H148.9z"/>
	<rect x="310.8" y="167" fill="#CDD6E0" width="121.2" height="23.1"/>
	<rect x="113.9" y="239" fill="#CDD6E0" width="318.1" height="23.1"/>
	<rect x="113.9" y="311.1" fill="#CDD6E0" width="318.1" height="23.1"/>
	<rect x="113.9" y="383.2" fill="#4CDBC4" width="117.1" height="23.1"/>
	<rect x="112.2" y="46.9" fill="#FFD15C" width="120.5" height="143.1"/>
	<g>
		<polygon fill="#84DBFF" points="462.2,180.1 450.8,168.7 439.5,157.4 239.8,357 251.2,368.4 262.5,379.8 273.9,391.1 473.6,191.5 
					"/>
		<polygon fill="#FFD15C" points="273.9,391.1 242.6,402.4 220.7,410.3 228.6,388.3 239.8,357 		"/>
		
			<rect x="437.5" y="162.2" transform="matrix(0.7071 0.7071 -0.7071 0.7071 254.9444 -276.794)" fill="#F1543F" width="48.2" height="14.3"/>
		<path fill="#40596B" d="M495.3,131.5c-8.3-8.3-21.7-8.3-29.9,0l-15.8,15.8l34.1,34.1l15.8-15.8
			C517.8,147.3,495.3,131.5,495.3,131.5z"/>
		<polygon fill="#334A5E" points="242.6,402.4 220.7,410.3 228.6,388.3 		"/>
	</g>
</g>
</svg>
