<?xml version="1.0" encoding="utf-8"?>
<!-- Generator: Adobe Illustrator 18.0.0, SVG Export Plug-In . SVG Version: 6.00 Build 0)  -->
<!DOCTYPE svg PUBLIC "-//W3C//DTD SVG 1.1//EN" "http://www.w3.org/Graphics/SVG/1.1/DTD/svg11.dtd">
<svg version="1.1" id="Layer_1" xmlns="http://www.w3.org/2000/svg" xmlns:xlink="http://www.w3.org/1999/xlink" x="0px" y="0px"
	 viewBox="0 0 512 512" enable-background="new 0 0 512 512" xml:space="preserve">
<g>
	<path fill="#FFD15C" d="M23.2,142.4c-11.7,0-21.2,9.5-21.2,21.2v140.4c0,11.7,9.5,21.2,21.2,21.2h4.1V142.4H23.2z"/>
	<path fill="#40596B" d="M48.5,115.5c-11.7,0-21.2,9.5-21.2,21.2v194.1c0,11.7,9.5,21.2,21.2,21.2h169.9V115.5H48.5z"/>
	<path fill="#CDD6E0" d="M193.1,448.7l-17.3-96.7H69.8L90.3,467c4.4,24.9,26.1,43,51.4,43C174.2,510,198.8,480.7,193.1,448.7z"/>
	<path fill="#F8B64C" d="M179.9,374.7l9.6,53.9c7.7-5.5,12.7-14.5,12.7-24.6C202.2,390,192.8,378.3,179.9,374.7z"/>
	<path fill="#F2F2F2" d="M430.3,5L218.4,115.5v236.4l211.9,110.5c22.5,10.1,48-6.3,48-31V36C478.2,11.4,452.8-5.1,430.3,5z"/>
	<path fill="#FFD15C" d="M430.3,5L417,11v445.4l13.3,6c22.5,10.1,48-6.3,48-31V36C478.2,11.4,452.8-5.1,430.3,5z"/>
	<path fill="#FF7058" d="M478.2,163.9v139.6c19.4-17,31.8-42,31.8-69.8C510,205.9,497.7,180.9,478.2,163.9z"/>
</g>
</svg>
