<?xml version="1.0" encoding="utf-8"?>
<!-- Generator: Adobe Illustrator 16.0.0, SVG Export Plug-In . SVG Version: 6.00 Build 0)  -->
<!DOCTYPE svg PUBLIC "-//W3C//DTD SVG 1.1//EN" "http://www.w3.org/Graphics/SVG/1.1/DTD/svg11.dtd">
<svg version="1.1" id="Layer_1" xmlns="http://www.w3.org/2000/svg" xmlns:xlink="http://www.w3.org/1999/xlink" x="0px" y="0px"
	 width="48px" height="48px" viewBox="0 0 48 48" enable-background="new 0 0 48 48" xml:space="preserve">
<g>
	<path fill="#E8EAE9" d="M44.789,22.423l-6.09-1.759l-9.332-8.85c-0.43-0.407-0.998-0.635-1.59-0.635H3.854
		c-1.277,0-2.313,1.035-2.313,2.313v17.542c0,1.276,1.035,2.312,2.313,2.312h40.293c1.277,0,2.313-1.035,2.313-2.312v-6.391
		C46.459,23.615,45.777,22.709,44.789,22.423"/>
	<path fill="#55C0EB" d="M35.314,20.64l-6.979-6.617c-0.359-0.341-0.836-0.53-1.33-0.53h-2.877c-0.639,0-1.156,0.517-1.156,1.155
		v6.83c0,0.639,0.518,1.155,1.156,1.155H34.52C35.564,22.633,36.072,21.359,35.314,20.64"/>
	<path fill="#CED6E0" d="M46.361,30.069H1.639C0.734,30.069,0,30.802,0,31.708s0.734,1.64,1.639,1.64h44.723
		c0.904,0,1.639-0.734,1.639-1.64S47.266,30.069,46.361,30.069"/>
	<path fill="#415A6B" d="M33.063,31.708c0,2.824,2.289,5.112,5.113,5.112s5.113-2.288,5.113-5.112S41,26.595,38.176,26.595
		S33.063,28.883,33.063,31.708"/>
	<path fill="#ADB3BA" d="M35.854,31.708c0,1.282,1.041,2.322,2.322,2.322s2.322-1.04,2.322-2.322s-1.041-2.322-2.322-2.322
		S35.854,30.425,35.854,31.708"/>
	<path fill="#415A6B" d="M4.5,31.708c0,2.824,2.289,5.112,5.111,5.112c2.824,0,5.113-2.288,5.113-5.112s-2.289-5.112-5.113-5.112
		C6.789,26.595,4.5,28.883,4.5,31.708"/>
	<path fill="#ADB3BA" d="M7.289,31.708c0,1.282,1.041,2.322,2.322,2.322c1.283,0,2.322-1.04,2.322-2.322s-1.039-2.322-2.322-2.322
		C8.33,29.385,7.289,30.425,7.289,31.708"/>
	<polygon fill="#F3705A" points="7.143,17.213 7.143,18.012 5.254,18.012 5.254,18.89 7.051,18.89 7.051,19.69 5.254,19.69 
		5.254,21.288 4.344,21.288 4.344,17.213 	"/>
	<path fill="#F3705A" d="M11.217,18.564c0,0.653-0.258,1.076-0.775,1.267l1.031,1.457h-1.119l-0.904-1.3H8.82v1.3H7.912v-4.074
		h1.543c0.635,0,1.086,0.106,1.357,0.321C11.082,17.747,11.217,18.092,11.217,18.564 M10.119,19.048
		c0.115-0.101,0.172-0.26,0.172-0.48c0-0.22-0.059-0.369-0.178-0.451c-0.115-0.081-0.32-0.123-0.611-0.123H8.82v1.207h0.666
		C9.795,19.201,10.008,19.15,10.119,19.048"/>
	<polygon fill="#F3705A" points="15.086,17.213 15.086,18.024 13.057,18.024 13.057,18.863 14.883,18.863 14.883,19.638 
		13.057,19.638 13.057,20.483 15.15,20.483 15.15,21.288 12.148,21.288 12.148,17.213 	"/>
	<polygon fill="#F3705A" points="18.896,17.213 18.896,18.024 16.869,18.024 16.869,18.863 18.693,18.863 18.693,19.638 
		16.869,19.638 16.869,20.483 18.961,20.483 18.961,21.288 15.959,21.288 15.959,17.213 	"/>
</g>
</svg>
