<?xml version="1.0" encoding="utf-8"?>
<!-- Generator: Adobe Illustrator 20.1.0, SVG Export Plug-In . SVG Version: 6.00 Build 0)  -->
<!DOCTYPE svg PUBLIC "-//W3C//DTD SVG 1.1//EN" "http://www.w3.org/Graphics/SVG/1.1/DTD/svg11.dtd">
<svg version="1.1" id="Layer_1" xmlns="http://www.w3.org/2000/svg" xmlns:xlink="http://www.w3.org/1999/xlink" x="0px" y="0px"
	 viewBox="0 0 49 49" enable-background="new 0 0 49 49" xml:space="preserve">
<g>
	<path fill="#F2F2F2" d="M45.4,25.5c-0.2,0.8-0.4,1.7-0.6,2.5c-0.3,0.9-0.6,1.8-1.1,2.7C40.3,37.8,33,42.8,24.5,42.8
		c-8.5,0-15.8-5-19.2-12.1c-0.4-0.9-0.8-1.8-1.1-2.7c-0.3-0.8-0.5-1.6-0.6-2.5H45.4z"/>
	<path fill="#F2F2F2" d="M29.1,43.1h-9.1c-1.5,1.3-2.5,3.2-2.5,5.4h14.1C31.6,46.4,30.6,44.4,29.1,43.1z"/>
	<path fill="#84DBFF" d="M29.9,42.1H19.1c-0.5,0-0.8,0.4-0.8,0.8v0c0,0.5,0.4,0.8,0.8,0.8h10.9c0.5,0,0.8-0.4,0.8-0.8v0
		C30.8,42.5,30.4,42.1,29.9,42.1z"/>
	<path fill="#F2F2F2" d="M34.6,16.2c0.6-1.4,1-2.9,1-4.6c0-6.1-5-11.1-11.1-11.1c-6.1,0-11.1,5-11.1,11.1c0,1.6,0.4,3.2,1,4.6H34.6z
		"/>
	<path fill="#FF7058" d="M24.8,25.5c0.6-1.4,1-2.9,1-4.6c0-6.1-5-11.1-11.1-11.1c-6.1,0-11.1,5-11.1,11.1c0,1.6,0.4,3.2,1,4.6H24.8z
		"/>
	<path fill="#FFD15C" d="M44.4,25.5c0.6-1.4,1-2.9,1-4.6c0-6.1-5-11.1-11.1-11.1s-11.1,5-11.1,11.1c0,1.6,0.4,3.2,1,4.6H44.4z"/>
	<path fill="#84DBFF" d="M16.7,22.7c-0.1,0-0.2,0-0.3-0.1c-0.2-0.2-0.2-0.4,0-0.5l1.6-1.6c0.2-0.2,0.4-0.2,0.5,0
		c0.2,0.2,0.2,0.4,0,0.5l-1.6,1.6C16.9,22.6,16.8,22.7,16.7,22.7z"/>
	<path fill="#FFFFFF" d="M23.7,4.2c-0.1,0-0.2,0-0.3-0.1c-0.2-0.2-0.2-0.4,0-0.5L25,2c0.2-0.2,0.4-0.2,0.5,0c0.2,0.2,0.2,0.4,0,0.5
		L24,4.1C23.9,4.1,23.8,4.2,23.7,4.2z"/>
	<path fill="#FFFFFF" d="M40,17.8c-0.1-0.1-0.1-0.2-0.1-0.3c0-0.2,0.2-0.4,0.4-0.3l2.2,0.2c0.2,0,0.4,0.2,0.3,0.4
		c0,0.2-0.2,0.4-0.4,0.3L40.3,18C40.2,18,40.1,17.9,40,17.8z"/>
	<path fill="#FFFFFF" d="M19.2,14.4c0.1-0.1,0.2-0.1,0.3-0.1c0.2,0,0.4,0.2,0.3,0.4L19.6,17c0,0.2-0.2,0.4-0.4,0.3
		c-0.2,0-0.4-0.2-0.3-0.4l0.2-2.2C19.1,14.6,19.1,14.5,19.2,14.4z"/>
	<path fill="#84DBFF" d="M20.1,7.5c0.1,0,0.2,0,0.3-0.1c0.2-0.2,0.2-0.4,0-0.5l-1.6-1.6c-0.2-0.2-0.4-0.2-0.5,0
		c-0.2,0.2-0.2,0.4,0,0.5l1.6,1.6C19.9,7.5,20,7.5,20.1,7.5z"/>
	<path fill="#FFFFFF" d="M27,7.5c-0.1,0-0.2,0-0.3-0.1c-0.2-0.2-0.2-0.4,0-0.5l1.6-1.6c0.2-0.2,0.4-0.2,0.5,0c0.2,0.2,0.2,0.4,0,0.5
		l-1.6,1.6C27.2,7.5,27.1,7.5,27,7.5z"/>
	<path fill="#FF7058" d="M30.2,12.8c-0.1-0.1-0.1-0.2-0.1-0.3c0-0.2,0.2-0.4,0.4-0.3l2.2,0.2c0.2,0,0.4,0.2,0.3,0.4
		c0,0.2-0.2,0.4-0.4,0.3l-2.2-0.2C30.3,12.9,30.2,12.8,30.2,12.8z"/>
	<path fill="#FFFFFF" d="M7.9,15.9c0.1-0.1,0.2-0.1,0.3-0.1c0.2,0,0.4,0.2,0.3,0.4l-0.2,2.2c0,0.2-0.2,0.4-0.4,0.3
		c-0.2,0-0.4-0.2-0.3-0.4l0.2-2.2C7.8,16.1,7.8,16,7.9,15.9z"/>
	<path fill="#54C0EB" d="M30.9,20.6c0.1,0,0.2,0,0.3-0.1c0.2-0.2,0.2-0.4,0-0.5l-1.6-1.6c-0.2-0.2-0.4-0.2-0.5,0
		c-0.2,0.2-0.2,0.4,0,0.5l1.6,1.6C30.7,20.6,30.8,20.6,30.9,20.6z"/>
</g>
</svg>
