<?xml version="1.0" encoding="utf-8"?>
<!-- Generator: Adobe Illustrator 18.0.0, SVG Export Plug-In . SVG Version: 6.00 Build 0)  -->
<!DOCTYPE svg PUBLIC "-//W3C//DTD SVG 1.1//EN" "http://www.w3.org/Graphics/SVG/1.1/DTD/svg11.dtd">
<svg version="1.1" id="Layer_1" xmlns="http://www.w3.org/2000/svg" xmlns:xlink="http://www.w3.org/1999/xlink" x="0px" y="0px"
	 viewBox="0 0 48 48" enable-background="new 0 0 48 48" xml:space="preserve">
<g>
	<g>
		<g>
			<g>
				<g>
					<g>
						<path fill="#415A6B" d="M21.2,46H1.7l0,0c2.2-1.9,3.5-4.8,3.5-7.8v-4.6c0-3.5,2.8-6.3,6.3-6.3h0c3.5,0,6.3,2.8,6.3,6.3v4.6
							C17.7,41.2,19,44,21.2,46L21.2,46z"/>
						<g>
							<path fill="#4EC0AA" d="M10.4,48c-1-2.4-2.2-5.2-2.8-6.1l-5.4,2.5C1,45,0.2,46.3,0,47.6L0,48H10.4z"/>
							<g>
								<path fill="#4EC0AA" d="M22.9,48l0-0.4c-0.2-1.4-1-2.6-2.2-3.2l-5.4-2.5c-0.5,0.9-1.7,3.7-2.8,6.1H22.9z"/>
							</g>
							<g>
								<polygon fill="#F7B64C" points="10.3,48 12.6,48 14.4,41.3 14.4,35.2 8.5,35.2 8.5,41.3 								"/>
								<g>
									<path fill="#E8EAE9" d="M14.1,43.2L12.7,48h-2.5l-1.4-4.8c0.7,0.5,1.6,0.8,2.6,0.8C12.4,44,13.4,43.7,14.1,43.2z"/>
								</g>
								<g>
									<g>
										<g>
											<polygon fill="#66C6B9" points="14.8,48 17.7,43.6 14.4,41.3 12.6,48 											"/>
										</g>
									</g>
								</g>
								<g>
									<g>
										<g>
											<polygon fill="#66C6B9" points="10.3,48 8.5,41.3 5.2,43.6 8.1,48 											"/>
										</g>
									</g>
								</g>
								<g>
									<path fill="#FFD15C" d="M16.3,36.3c0,3.2-2.2,5.8-4.8,5.8c-2.7,0-4.8-2.6-4.8-5.8c0-1.4,0.4-2.6,1.1-3.6
										c2.5,0.6,5.1,0.6,7.5,0C15.9,33.6,16.3,34.9,16.3,36.3z"/>
								</g>
							</g>
						</g>
					</g>
					<g>
						<g>
							<path fill="#415A6B" d="M46.3,46.1H26.7l0,0c2.2-1.9,3.5-4.8,3.5-7.8v-4.6c0-3.5,2.8-6.3,6.3-6.3h0c3.5,0,6.3,2.8,6.3,6.3
								v4.6C42.8,41.4,44.1,44.2,46.3,46.1L46.3,46.1z"/>
							<g>
								<path fill="#F7B64C" d="M48,46.4V48H25.1v-1.6c0-1,0.6-1.9,1.6-2.3c2.1-0.8,4.3-1.4,6.6-1.7c0.5-0.1,0.8-0.4,0.8-0.9v-5.3h5
									v5.3c0,0.5,0.3,0.8,0.8,0.9c2.2,0.3,4.4,0.8,6.6,1.7C47.4,44.5,48,45.4,48,46.4z"/>
							</g>
							<g>
								<g>
									<g>
										<path fill="#FFD15C" d="M41.4,34.6c0,4.3-2.2,7.8-4.8,7.8c-2.7,0-4.8-3.5-4.8-7.8c0,0,4.4-0.8,6.2-3.4l0,0
											c0.1,0.1,0.9,1.5,3.4,2.4C41.4,33.9,41.4,34.3,41.4,34.6z"/>
									</g>
								</g>
							</g>
						</g>
						<g>
							<g>
								<path fill="#4EC0AA" d="M48,46.4V48H25.1v-1.6c0-1,0.6-1.9,1.6-2.3c2-0.8,4.1-1.4,6.3-1.6c0.6,1.7,2,2.9,3.6,2.9
									c1.6,0,2.9-1.2,3.6-2.9c2.1,0.3,4.2,0.8,6.3,1.6C47.4,44.5,48,45.4,48,46.4z"/>
							</g>
						</g>
					</g>
				</g>
				<g>
					<g>
						<path fill="#F7B64C" d="M35,20.8v5.8H13v-5.8c0-1.5,1-2.8,2.5-3.2c1.2-0.3,2.4-0.6,3.6-0.7c1.2-0.2,2-1.2,2-2.4v-2.2h5.8v2.2
							c0,1.2,0.9,2.2,2,2.4c1.2,0.2,2.4,0.4,3.6,0.7C34,18,35,19.3,35,20.8z"/>
					</g>
					<g>
						<path fill="#F3705A" d="M35,20.8v5.8H13v-5.8c0-1.5,1-2.8,2.5-3.2c1.2-0.3,2.4-0.5,3.6-0.7c0.2,0,0.3-0.1,0.5-0.1
							c1.2,2,4.5,3.4,4.5,3.4s3.2-1.4,4.5-3.4c0.1,0.1,0.3,0.1,0.5,0.1c1.2,0.2,2.4,0.4,3.6,0.7C34,18,35,19.3,35,20.8z"/>
					</g>
					<path fill="#FFD15C" d="M28,5.7c-0.9-0.1-1.9-0.6-2.6-1.3c-1.1,0.8-2.5-0.6-3.6-0.4c-0.7,0.1-1.4,1.9-2,1.8
						c-0.2,0.7-0.3,1.5-0.3,2.3c0,3.8,2,6.9,4.5,6.9s4.5-3.1,4.5-6.9c0-0.8-0.1-1.7-0.3-2.4C28.1,5.8,28.1,5.8,28,5.7z"/>
					<g>
						<path fill="#415A6B" d="M18,27.6c0-0.6-0.2-1.2-0.2-1.8c0-1.4,0.9-2.5,1.8-3.5c0.9-1,1.7-2.1,2.3-3.4s0.8-2.7,0.4-4
							c-0.3-1-1-1.9-1.4-3c-0.3-0.9-0.5-1.9-0.4-2.8c0-1,0.7-3.9,2-4.9C23.6,6,27,4.5,27.8,6.4c0.6,1.3,0.1,3.6-0.5,5
							c-0.6,1.4-1.2,2.8-0.9,4.3c0.2,1,0.8,1.9,1.6,2.5c0.7,0.6,1.6,0.9,2.5,1.1c-0.3-0.4-0.6-0.8-0.9-1.1c-0.3-0.3-0.5-0.7-0.6-1.1
							c-0.1-0.4,0.1-0.9,0.3-1.3c0.5-1,1.4-1.8,1.7-2.9c0.2-0.6,0.2-1.3,0.1-2c-0.2-2-0.7-3.9-1.3-5.8c-0.2-0.7-0.4-1.5-0.8-2.1
							c-0.4-0.7-1-1.2-1.6-1.6c-0.6-0.5-1.2-0.9-1.9-1.2C24.8-0.1,24,0,23.5,0.5c-0.1,0.1-0.3,0.3-0.5,0.4c-0.2,0-0.4-0.1-0.5-0.1
							c-0.5-0.2-1,0-1.4,0.3c-0.4,0.3-0.7,0.8-1,1.2c-1.7,2.9-2.8,6.3-3,9.7c-0.1,1.6-0.1,3.3,0.6,4.7c0.4,0.9,1,2,0.5,2.8
							c-0.2,0.3-1.8,1.6-1.9,3.5c1-1.5,1.8-2.1,2.7-3c-0.4,0.5-0.8,1.1-1.2,1.6c-0.6,0.8-1.2,1.6-1.3,2.6c-0.1,0.7,0.2,1.4,0.5,2
							c0.3,0.7,0.7,1.3,1.2,1.8"/>
					</g>
				</g>
			</g>
		</g>
		<g>
			<path fill="#344A5E" d="M27.9,37.4L25,34.5v-4.2c0-0.6-0.4-1-1-1h0c-0.6,0-1,0.4-1,1v4.2l-2.9,2.9c-0.4,0.4-0.4,1,0,1.4l0,0
				c0.4,0.4,1,0.4,1.4,0l2.5-2.5l2.5,2.5c0.4,0.4,1,0.4,1.4,0C28.3,38.4,28.3,37.8,27.9,37.4z"/>
		</g>
	</g>
</g>
</svg>
