<?xml version="1.0" encoding="utf-8"?>
<!-- Generator: Adobe Illustrator 20.1.0, SVG Export Plug-In . SVG Version: 6.00 Build 0)  -->
<!DOCTYPE svg PUBLIC "-//W3C//DTD SVG 1.1//EN" "http://www.w3.org/Graphics/SVG/1.1/DTD/svg11.dtd">
<svg version="1.1" id="Layer_1" xmlns="http://www.w3.org/2000/svg" xmlns:xlink="http://www.w3.org/1999/xlink" x="0px" y="0px"
	 viewBox="0 0 49 49" enable-background="new 0 0 49 49" xml:space="preserve">
<g>
	<rect x="0.5" y="5.5" fill="#F2F2F2" width="37.1" height="43"/>
	<rect x="0.5" y="0.5" fill="#84DBFF" width="37.1" height="5"/>
	<g>
		<g>
			<rect x="10.8" y="29.5" fill="#CDD6E0" width="2.3" height="4.8"/>
			<rect x="6.6" y="26.5" fill="#CDD6E0" width="2.3" height="7.9"/>
			<rect x="2.5" y="31" fill="#CDD6E0" width="2.3" height="3.4"/>
			<rect x="19.1" y="22.3" fill="#CDD6E0" width="2.3" height="12"/>
			<rect x="14.9" y="24.1" fill="#CDD6E0" width="2.3" height="10.2"/>
		</g>
		<rect x="2.5" y="35.2" fill="#40596B" width="18.9" height="0.9"/>
	</g>
	<g>
		<rect x="2.5" y="39.8" fill="#FFD15C" width="18.9" height="2.3"/>
		<rect x="2.5" y="43.9" fill="#FF7058" width="18.9" height="2.3"/>
	</g>
	<g>
		<rect x="2.5" y="9.7" fill="#FFD15C" width="8.8" height="8.4"/>
		<rect x="14.6" y="9.7" fill="#FF7058" width="8.8" height="8.4"/>
		<rect x="26.8" y="9.7" fill="#ACB3BA" width="8.8" height="8.4"/>
	</g>
	<rect x="35.4" y="24.8" fill="#CDD6E0" width="4.4" height="4.4"/>
	
		<rect x="27.6" y="27.6" transform="matrix(0.7071 -0.7071 0.7071 0.7071 -12.3452 29.804)" fill="#CDD6E0" width="4.4" height="4.4"/>
	<rect x="34" y="22" fill="#ACB3BA" width="7.2" height="2.8"/>
	<circle fill="#4CDBC4" cx="37.6" cy="37.6" r="10.9"/>
	<path fill="#FFFFFF" d="M37.6,46c-4.6,0-8.4-3.8-8.4-8.4c0-4.6,3.8-8.4,8.4-8.4c4.6,0,8.4,3.8,8.4,8.4C46,42.2,42.2,46,37.6,46z"/>
	
		<rect x="37.1" y="23.1" transform="matrix(-1.836970e-16 1 -1 -1.836970e-16 62.9474 -12.2652)" fill="#B8CAD8" width="1" height="4.4"/>
	<g>
		<rect x="37.5" y="30.2" fill="#ACB3BA" width="0.2" height="0.9"/>
		<rect x="37.5" y="44.1" fill="#ACB3BA" width="0.2" height="0.9"/>
		<polygon fill="#ACB3BA" points="36.2,30.3 36.4,31.2 36.6,31.2 36.4,30.3 		"/>
		<polygon fill="#ACB3BA" points="38.6,44 38.8,44.9 39,44.9 38.8,44 		"/>
		
			<rect x="35.1" y="30.6" transform="matrix(0.9398 -0.3416 0.3416 0.9398 -8.4928 13.903)" fill="#ACB3BA" width="0.2" height="0.9"/>
		
			<rect x="39.9" y="43.7" transform="matrix(0.9398 -0.3416 0.3416 0.9398 -12.6756 16.3151)" fill="#ACB3BA" width="0.2" height="0.9"/>
		<polygon fill="#ACB3BA" points="33.8,31.2 34.3,32 34.4,31.9 34,31.1 		"/>
		<polygon fill="#ACB3BA" points="40.8,43.3 41.2,44.1 41.4,44 41,43.2 		"/>
		<polygon fill="#ACB3BA" points="32.8,32 33.3,32.7 33.5,32.5 32.9,31.9 		"/>
		<polygon fill="#ACB3BA" points="41.7,42.7 42.3,43.3 42.4,43.2 41.9,42.5 		"/>
		<polygon fill="#ACB3BA" points="31.9,32.9 32.5,33.5 32.7,33.3 32,32.8 		"/>
		<polygon fill="#ACB3BA" points="42.5,41.9 43.2,42.4 43.3,42.3 42.7,41.7 		"/>
		<polygon fill="#ACB3BA" points="32,34.3 31.2,33.8 31.1,34 31.9,34.4 		"/>
		<polygon fill="#ACB3BA" points="43.2,41 44,41.4 44.1,41.2 43.3,40.8 		"/>
		
			<rect x="31" y="34.8" transform="matrix(0.3416 -0.9398 0.9398 0.3416 -12.6541 52.3849)" fill="#ACB3BA" width="0.2" height="0.9"/>
		<polygon fill="#ACB3BA" points="43.7,39.9 44.5,40.2 44.6,40 43.8,39.7 		"/>
		<polygon fill="#ACB3BA" points="31.2,36.4 30.3,36.2 30.3,36.4 31.2,36.6 		"/>
		<polygon fill="#ACB3BA" points="44,38.8 44.9,39 44.9,38.8 44,38.6 		"/>
		<rect x="30.2" y="37.5" fill="#ACB3BA" width="0.9" height="0.2"/>
		<rect x="44.1" y="37.5" fill="#ACB3BA" width="0.9" height="0.2"/>
		<polygon fill="#ACB3BA" points="31.2,38.6 30.3,38.8 30.3,39 31.2,38.8 		"/>
		<polygon fill="#ACB3BA" points="44,36.6 44.9,36.4 44.9,36.2 44,36.4 		"/>
		
			<rect x="30.6" y="39.9" transform="matrix(0.9398 -0.3416 0.3416 0.9398 -11.792 13.0182)" fill="#ACB3BA" width="0.9" height="0.2"/>
		<polygon fill="#ACB3BA" points="43.8,35.5 44.6,35.2 44.5,35 43.7,35.3 		"/>
		<polygon fill="#ACB3BA" points="31.9,40.8 31.1,41.2 31.2,41.4 32,41 		"/>
		<polygon fill="#ACB3BA" points="43.3,34.4 44.1,34 44,33.8 43.2,34.3 		"/>
		<polygon fill="#ACB3BA" points="31.9,42.3 32,42.4 32.7,41.9 32.5,41.7 		"/>
		<polygon fill="#ACB3BA" points="43.3,32.9 43.2,32.8 42.5,33.3 42.7,33.5 		"/>
		<polygon fill="#ACB3BA" points="32.8,43.2 32.9,43.3 33.5,42.7 33.3,42.5 		"/>
		<polygon fill="#ACB3BA" points="42.3,31.9 41.7,32.5 41.9,32.7 42.4,32 		"/>
		<polygon fill="#ACB3BA" points="34.3,43.2 33.8,44 34,44.1 34.4,43.3 		"/>
		<polygon fill="#ACB3BA" points="41.2,31.1 40.8,31.9 41,32 41.4,31.2 		"/>
		
			<rect x="34.8" y="44" transform="matrix(0.3427 -0.9394 0.9394 0.3427 -18.3221 62.1104)" fill="#ACB3BA" width="0.9" height="0.2"/>
		
			<rect x="39.5" y="31" transform="matrix(0.3416 -0.9398 0.9398 0.3416 -2.8672 58.0327)" fill="#ACB3BA" width="0.9" height="0.2"/>
		<polygon fill="#ACB3BA" points="36.4,44 36.2,44.9 36.4,44.9 36.6,44 		"/>
		<polygon fill="#ACB3BA" points="38.8,30.3 38.6,31.2 38.8,31.2 39,30.3 		"/>
	</g>
	<g>
		<path fill="#FF7058" d="M38.8,37.7c0,0.7-0.5,1.2-1.2,1.2c-0.7,0-1.2-0.5-1.2-1.2c0-0.7,1.2-4.2,1.2-4.2S38.8,37,38.8,37.7z"/>
		<circle fill="#FFFFFF" cx="37.6" cy="37.7" r="0.6"/>
	</g>
</g>
</svg>
