<?xml version="1.0" encoding="utf-8"?>
<!-- Generator: Adobe Illustrator 18.0.0, SVG Export Plug-In . SVG Version: 6.00 Build 0)  -->
<!DOCTYPE svg PUBLIC "-//W3C//DTD SVG 1.1//EN" "http://www.w3.org/Graphics/SVG/1.1/DTD/svg11.dtd">
<svg version="1.1" id="Layer_1" xmlns="http://www.w3.org/2000/svg" xmlns:xlink="http://www.w3.org/1999/xlink" x="0px" y="0px"
	 viewBox="0 0 48 48" enable-background="new 0 0 48 48" xml:space="preserve">
<g>
	<g>
		<g>
			<path fill="#66C6B9" d="M47.9,39.5c-6-4-10.5-9-13.6-13.7c0,0,0,0,0,0C28.6,18.1,32.6,8,34.4,5.4c0.7-1,0.9-2.2,0.5-3.3
				c-1.5-4.3-9.4-1-10.5,1.4c-1-2.4-8.9-5.7-10.5-1.4c-0.4,1.1-0.2,2.4,0.5,3.3c1.8,2.5,5.8,12.6,0.1,20.4c0,0,0,0,0,0
				c-3.2,5-8.2,10.4-14.6,14.6c0,0,0.6,1.5,1.4,1.7c1.5,0.4,2.8-1,2.8-1C5.9,40,7.4,40.2,7.5,43c-0.2,2.6,3.8,2.3,3,1
				c-0.8-1.2-0.1-3.6,2.2-1.6c2.1,1.8,8.1,8.6,8.3,4.1c0.2-4.3,3.2-3.6,7.3-0.5c1.5,1.8,2.8,2,5,1.6c1.1-0.2,2.1-0.8,2.9-1.5
				c0.9-0.8,2.2-0.9,3.7,0.3c2,1.6,3.7-1.7,2.9-3.2c-0.7-1.6,2.3-2.1,4-1.3C48.5,42.6,47.9,39.5,47.9,39.5z"/>
			<g>
				<path fill="#49BAA4" d="M42.3,45.7c-4.5-5.1-8.3-10.3-11-15.1c2,4.8,5,10,8.4,15.7C40.8,47.2,41.8,46.6,42.3,45.7z"/>
				<g>
					<path fill="#49BAA4" d="M33.1,47.6c-3.3-7.9-5.6-14-7.4-19.8c0.6,5.3,1.4,10.8,2.5,18.1C29.6,47.7,30.9,48,33.1,47.6z"/>
				</g>
				<g>
					<path fill="#49BAA4" d="M23.1,30.8c-0.5,4.2-1.2,8.8-2,14.4c-0.1,0.4-0.1,0.8-0.2,1.2c-0.1,2.4-1.9,1.6-3.8,0
						C19.6,40.4,21.5,35.4,23.1,30.8z"/>
				</g>
				<g>
					<path fill="#49BAA4" d="M20.9,25c-0.1,0.3-0.2,0.6-0.3,0.8c-2,5.1-4.6,10.3-8.3,16.3c-2-1.4-2.6,0.7-1.8,1.9
						c0.8,1.3-3.1,1.6-3-1c0-0.1,0-0.3,0-0.4c5.8-5.7,9.9-11.5,13-16.8C20.6,25.6,20.8,25.3,20.9,25z"/>
				</g>
				<g>
					<path fill="#49BAA4" d="M13.5,31.9C11,35,7.8,38.2,4.1,41.1c0,0,0,0,0,0c-0.3,0.2-0.6,0.5-0.9,0.7c0,0,0,0,0,0
						c-0.5,0.3-1.2,0.5-1.9,0.3c-0.1,0-0.1,0-0.2-0.1C6,39.2,10.3,35.4,13.5,31.9z"/>
				</g>
			</g>
		</g>
	</g>
	<g>
		<g>
			<circle fill="#415A6B" cx="24.4" cy="6.7" r="0.7"/>
		</g>
		<g>
			<circle fill="#415A6B" cx="24.4" cy="10.7" r="0.7"/>
		</g>
	</g>
</g>
</svg>
