<?xml version="1.0" encoding="utf-8"?>
<!-- Generator: Adobe Illustrator 18.0.0, SVG Export Plug-In . SVG Version: 6.00 Build 0)  -->
<!DOCTYPE svg PUBLIC "-//W3C//DTD SVG 1.1//EN" "http://www.w3.org/Graphics/SVG/1.1/DTD/svg11.dtd">
<svg version="1.1" id="Layer_1" xmlns="http://www.w3.org/2000/svg" xmlns:xlink="http://www.w3.org/1999/xlink" x="0px" y="0px"
	 viewBox="0 0 48 48" enable-background="new 0 0 48 48" xml:space="preserve">
<g>
	<g>
		<path fill="#F2F2F2" d="M42.9,30.4h-3.2v-6.6c0-8.7-7-15.7-15.7-15.7c-8.7,0-15.7,7-15.7,15.7v6.6H5.1v-6.6
			C5.1,13.4,13.6,4.9,24,4.9s18.9,8.5,18.9,18.9V30.4z"/>
	</g>
	<g>
		<path fill="#CDD6E0" d="M44.4,23.8h-6.3C38.1,16,31.8,9.7,24,9.7C16.2,9.7,9.9,16,9.9,23.8H3.6C3.6,12.5,12.7,3.3,24,3.3
			C35.3,3.3,44.4,12.5,44.4,23.8z"/>
	</g>
	<path fill="#40596B" d="M42.8,27.6h-3.5v15.6h3.5c1.2,0,2.1-0.9,2.1-2.1V29.7C44.9,28.5,44,27.6,42.8,27.6z"/>
	<path fill="#FF7058" d="M44.9,29.5v11.6c1.7,0,3.1-1.4,3.1-3.1v-5.5C48,30.9,46.6,29.5,44.9,29.5z"/>
	<path fill="#FF7058" d="M0,32.6v5.5c0,1.7,1.4,3.1,3.1,3.1V29.5C1.4,29.5,0,30.9,0,32.6z"/>
	<path fill="#334A5E" d="M38.1,26.1L38.1,26.1c-0.8,0-1.4,0.6-1.4,1.3v15.9c0,0.7,0.6,1.3,1.3,1.3h0c0.7,0,1.3-0.6,1.3-1.3V27.4
		C39.4,26.7,38.8,26.1,38.1,26.1z"/>
	<path fill="#40596B" d="M5.2,27.6c-1.2,0-2.1,0.9-2.1,2.1v11.4c0,1.2,0.9,2.1,2.1,2.1h3.5V27.6H5.2z"/>
	<path fill="#334A5E" d="M10,26.1L10,26.1c-0.8,0-1.4,0.6-1.4,1.3v15.9c0,0.7,0.6,1.3,1.3,1.3h0c0.7,0,1.3-0.6,1.3-1.3V27.4
		C11.3,26.7,10.7,26.1,10,26.1z"/>
</g>
</svg>
