<?xml version="1.0" encoding="utf-8"?>
<!-- Generator: Adobe Illustrator 18.0.0, SVG Export Plug-In . SVG Version: 6.00 Build 0)  -->
<!DOCTYPE svg PUBLIC "-//W3C//DTD SVG 1.1//EN" "http://www.w3.org/Graphics/SVG/1.1/DTD/svg11.dtd">
<svg version="1.1" id="Layer_1" xmlns="http://www.w3.org/2000/svg" xmlns:xlink="http://www.w3.org/1999/xlink" x="0px" y="0px"
	 viewBox="0 0 48 48" enable-background="new 0 0 48 48" xml:space="preserve">
<g>
	<g>
		<rect x="17" y="39.7" fill="#CED6E0" width="13.9" height="4.4"/>
		<path fill="#E8EAE9" d="M11.4,48L11.4,48l25.2,0v0c0-2.4-1.9-4.3-4.3-4.3H15.7C13.3,43.7,11.4,45.6,11.4,48z"/>
		<path fill="#415A6B" d="M48,6.3v26.6H0V6.3c0-1.2,1-2.2,2.2-2.2h43.7C47,4.1,48,5.1,48,6.3z"/>
		<path fill="#E8EAE9" d="M48,32.8v5.8c0,1.3-1,2.3-2.3,2.3H2.3C1,41,0,39.9,0,38.7v-5.8H48z"/>
		<rect x="2.7" y="6.8" fill="#8AD7F8" width="42.5" height="26"/>
		<rect x="7.2" y="6.4" fill="#FFFFFF" width="33.6" height="26.4"/>
		<path fill="#F3705A" d="M40.8,6.4V2.1c0-1.2-1-2.1-2.1-2.1H9.3C8.2,0,7.2,1,7.2,2.1v4.3H40.8z"/>
		<circle fill="#FFFFFF" cx="36.4" cy="3.2" r="1.2"/>
		<circle fill="#FFFFFF" cx="32.2" cy="3.2" r="1.2"/>
		<circle fill="#FFFFFF" cx="28" cy="3.2" r="1.2"/>
		<polygon fill="#66C6B9" points="33.4,18.8 24,9.4 14.6,18.8 		"/>
		<rect x="17.1" y="18.8" fill="#E8EAE9" width="13.9" height="11.2"/>
		<rect x="21.8" y="25.3" fill="#415A6B" width="4.3" height="4.6"/>
		<g>
			<circle fill="#F3705A" cx="39.7" cy="36.9" r="1.3"/>
			<circle fill="#415A6B" cx="44" cy="36.9" r="1.3"/>
		</g>
	</g>
</g>
</svg>
