<?xml version="1.0" encoding="utf-8"?>
<!-- Generator: Adobe Illustrator 18.0.0, SVG Export Plug-In . SVG Version: 6.00 Build 0)  -->
<!DOCTYPE svg PUBLIC "-//W3C//DTD SVG 1.1//EN" "http://www.w3.org/Graphics/SVG/1.1/DTD/svg11.dtd">
<svg version="1.1" id="Layer_1" xmlns="http://www.w3.org/2000/svg" xmlns:xlink="http://www.w3.org/1999/xlink" x="0px" y="0px"
	 viewBox="0 0 512 512" enable-background="new 0 0 512 512" xml:space="preserve">
<g>
	<path fill="#F2F2F2" d="M2,2.4v507.2h507.2L2,2.4z M80.9,192.9l237.8,237.8H80.9V192.9z"/>
	<polygon fill="#F05540" points="393.7,334.8 456.8,271.7 510,324.8 446.9,387.9 	"/>
	<polygon fill="#CDD5DF" points="373.9,315 437,251.9 456.9,271.6 393.7,334.8 	"/>
	<polygon fill="#334A5E" points="137.2,43.5 124.3,2.6 165.3,15.4 	"/>
	<path fill="#FFCF5C" d="M153.2,94.5L134.7,36L124.2,2.4l33.6,10.5l58.4,18.3l0.5,0.5c1.4,5.9,0.2,12-4,16.2
		c-4.5,4.5-11.4,5.6-17.8,3.6c2,6.4,0.9,13.3-3.6,17.8c-4.5,4.5-11.4,5.6-17.8,3.6c2,6.4,1,13.3-3.6,17.8
		C165.7,94.9,159.3,96.1,153.2,94.5z"/>
	<g>
		<path fill="#65C5B8" d="M212.7,47.9c-4.5,4.5-11.3,5.6-17.8,3.6c2,6.5,0.9,13.3-3.6,17.8c-4.5,4.5-11.3,5.6-17.8,3.6
			c2,6.5,0.9,13.3-3.6,17.8c-4.3,4.3-10.7,5.5-16.8,3.9L373.8,315l63.1-63.1L216.8,31.8C218.1,37.7,216.8,43.7,212.7,47.9z"/>
		<polygon fill="#89D6F7" points="153.2,94.5 153.2,94.5 153.2,94.5 		"/>
	</g>
	<polygon fill="#334A5E" points="134.7,36 124.2,2.4 157.8,12.9 	"/>
	<rect x="52.7" y="472.8" fill="#ABB2B9" width="11.3" height="36.8"/>
	<rect x="109.1" y="472.8" fill="#ABB2B9" width="11.3" height="36.8"/>
	<rect x="165.4" y="472.8" fill="#ABB2B9" width="11.3" height="36.8"/>
	<rect x="221.8" y="472.8" fill="#ABB2B9" width="11.3" height="36.8"/>
	<rect x="278.1" y="472.8" fill="#ABB2B9" width="11.3" height="36.8"/>
	<rect x="334.5" y="472.8" fill="#ABB2B9" width="11.3" height="36.8"/>
	<rect x="390.8" y="472.8" fill="#ABB2B9" width="11.3" height="36.8"/>
	<rect x="447.2" y="472.8" fill="#ABB2B9" width="11.3" height="36.8"/>
	<rect x="2" y="53.1" fill="#ABB2B9" width="36.8" height="11.3"/>
	<rect x="2" y="109.5" fill="#ABB2B9" width="36.8" height="11.3"/>
	<rect x="2" y="165.8" fill="#ABB2B9" width="36.8" height="11.3"/>
	<rect x="2" y="222.2" fill="#ABB2B9" width="36.8" height="11.3"/>
	<rect x="2" y="278.5" fill="#ABB2B9" width="36.8" height="11.3"/>
	<rect x="2" y="334.9" fill="#ABB2B9" width="36.8" height="11.3"/>
	<rect x="2" y="391.3" fill="#ABB2B9" width="36.8" height="11.3"/>
	<rect x="2" y="447.6" fill="#ABB2B9" width="36.8" height="11.3"/>
</g>
</svg>
