<?xml version="1.0" encoding="utf-8"?>
<!-- Generator: Adobe Illustrator 18.0.0, SVG Export Plug-In . SVG Version: 6.00 Build 0)  -->
<!DOCTYPE svg PUBLIC "-//W3C//DTD SVG 1.1//EN" "http://www.w3.org/Graphics/SVG/1.1/DTD/svg11.dtd">
<svg version="1.1" id="Layer_1" xmlns="http://www.w3.org/2000/svg" xmlns:xlink="http://www.w3.org/1999/xlink" x="0px" y="0px"
	 viewBox="0 0 48 48" enable-background="new 0 0 48 48" xml:space="preserve">
<g>
	<g>
		<path fill="#415A6B" d="M6.5,36.8C4.2,33.3,2.9,29.2,2.9,25C2.9,13.4,12.4,3.9,24,3.9c11.6,0,21.1,9.5,21.1,21.1
			c0,4.2-1.3,8.3-3.6,11.8h3.4c2-3.6,3.1-7.6,3.1-11.8C48,11.8,37.2,1,24,1C10.8,1,0,11.8,0,25c0,4.2,1.1,8.2,3.1,11.8H6.5z"/>
		<g>
			<path fill="#FFD15C" d="M41.1,8.3l-2,2c-0.4,0.4-1.1,0.4-1.5,0C34.1,6.9,29.3,4.9,24,4.9c-5.3,0-10.1,2-13.6,5.4
				c-0.4,0.4-1.1,0.4-1.5,0l-2-2c-0.4-0.4-0.4-1.1,0-1.5C11.4,2.6,17.4,0,24,0c6.6,0,12.6,2.6,17.1,6.8C41.5,7.2,41.5,7.9,41.1,8.3z
				"/>
		</g>
		<g>
			<g>
				<path fill="#F3F3F3" d="M8.7,31.6c-0.9-0.1-1.9-0.1-2.8,0.2c-4.1,1-6.7,5.2-5.6,9.3s5.2,6.7,9.3,5.6c0.9-0.2,1.8-0.6,2.5-1.2
					L8.7,31.6z"/>
			</g>
			<g>
				<g>
					<path fill="#F3705A" d="M13.8,47.9c-1.3,0.3-2.7-0.5-3-1.8L7.2,31.7c-0.3-1.3,0.5-2.7,1.8-3c1.3-0.3,2.7,0.5,3,1.8l3.6,14.4
						C15.9,46.2,15.1,47.6,13.8,47.9z"/>
				</g>
			</g>
		</g>
		<g>
			<g>
				<path fill="#F3F3F3" d="M39.3,31.6c0.9-0.1,1.9-0.1,2.8,0.2c4.1,1,6.7,5.2,5.6,9.3s-5.2,6.7-9.3,5.6c-0.9-0.2-1.8-0.6-2.5-1.2
					L39.3,31.6z"/>
			</g>
			<g>
				<g>
					<path fill="#F3705A" d="M34.2,47.9c1.3,0.3,2.7-0.5,3-1.8l3.6-14.4c0.3-1.3-0.5-2.7-1.8-3c-1.3-0.3-2.7,0.5-3,1.8l-3.6,14.4
						C32.1,46.2,32.9,47.6,34.2,47.9z"/>
				</g>
			</g>
		</g>
	</g>
</g>
</svg>
