<?xml version="1.0" encoding="utf-8"?>
<!-- Generator: Adobe Illustrator 18.0.0, SVG Export Plug-In . SVG Version: 6.00 Build 0)  -->
<!DOCTYPE svg PUBLIC "-//W3C//DTD SVG 1.1//EN" "http://www.w3.org/Graphics/SVG/1.1/DTD/svg11.dtd">
<svg version="1.1" id="Layer_1" xmlns="http://www.w3.org/2000/svg" xmlns:xlink="http://www.w3.org/1999/xlink" x="0px" y="0px"
	 viewBox="0 0 512 512" enable-background="new 0 0 512 512" xml:space="preserve">
<g>
	<path fill="#FFD15C" d="M488.8,2H23.2C11.5,2,2,11.5,2,23.2v465.7c0,11.7,9.5,21.2,21.2,21.2h465.7c11.7,0,21.2-9.5,21.2-21.2V23.2
		C510,11.5,500.5,2,488.8,2z"/>
	<rect x="140.6" y="209.4" fill="#FFFFFF" width="230.9" height="93.2"/>
	<polygon fill="#FF7058" points="206.9,139.1 231.4,114.5 256,139.1 280.6,114.5 305.1,139.1 328.9,115.3 328.9,2 183.1,2 
		183.1,115.3 	"/>
	<g>
		<polygon fill="#FF7058" points="105.9,432.5 73.7,400.3 41.5,432.5 61.4,432.5 61.4,470.5 86,470.5 86,432.5 		"/>
		<polygon fill="#FF7058" points="178.8,432.5 146.6,400.3 114.4,432.5 134.3,432.5 134.3,470.5 158.9,470.5 158.9,432.5 		"/>
	</g>
	<g>
		<rect x="156.3" y="222.3" fill="#334A5E" width="13.7" height="67.4"/>
		<rect x="208.2" y="222.3" fill="#334A5E" width="13.7" height="67.4"/>
		<rect x="290.1" y="222.3" fill="#334A5E" width="13.7" height="67.4"/>
		<rect x="178.1" y="222.3" fill="#334A5E" width="6.9" height="55.5"/>
		<rect x="193.2" y="222.3" fill="#334A5E" width="6.9" height="55.5"/>
		<rect x="342" y="222.3" fill="#334A5E" width="13.7" height="67.4"/>
		<rect x="312" y="222.3" fill="#334A5E" width="6.9" height="55.5"/>
		<rect x="327" y="222.3" fill="#334A5E" width="6.9" height="55.5"/>
		<rect x="230" y="222.3" fill="#334A5E" width="6.9" height="55.5"/>
		<rect x="245.1" y="222.3" fill="#334A5E" width="6.9" height="55.5"/>
		<rect x="260.1" y="222.3" fill="#334A5E" width="6.9" height="55.5"/>
		<rect x="275.1" y="222.3" fill="#334A5E" width="6.9" height="55.5"/>
	</g>
</g>
</svg>
