<?xml version="1.0" encoding="utf-8"?>
<!-- Generator: Adobe Illustrator 18.0.0, SVG Export Plug-In . SVG Version: 6.00 Build 0)  -->
<!DOCTYPE svg PUBLIC "-//W3C//DTD SVG 1.1//EN" "http://www.w3.org/Graphics/SVG/1.1/DTD/svg11.dtd">
<svg version="1.1" id="Layer_1" xmlns="http://www.w3.org/2000/svg" xmlns:xlink="http://www.w3.org/1999/xlink" x="0px" y="0px"
	 viewBox="0 0 48 48" enable-background="new 0 0 48 48" xml:space="preserve">
<g>
	<g>
		<g>
			<g>
				<path fill="#F3705A" d="M13.5,47.8c-5.9-2.4-11-7.4-13.3-13.3c-0.4-1.1-0.1-2.4,0.7-3.2c7.9-7.9,14.8-14.8,22.8-22.8
					c5,5,10.8,10.8,15.9,15.9L16.8,47.1C15.9,47.9,14.6,48.2,13.5,47.8z"/>
				
					<rect x="31.6" y="2.4" transform="matrix(0.7071 -0.7071 0.7071 0.7071 4.138 29.831)" fill="#F3F3F3" width="12.9" height="15.1"/>
				
					<rect x="31" y="6.6" transform="matrix(0.7071 -0.7071 0.7071 0.7071 -1.3991 27.5373)" fill="#F7B64C" width="3.2" height="17.8"/>
				<path fill="#FFD15C" d="M39.5,24.3l-2.4,2.4c-2.8-1.4-5.8-3.6-8.6-6.5s-5.8-6.6-7.2-9.4l2.4-2.4L39.5,24.3z"/>
				<g>
					
						<rect x="34.8" y="6.1" transform="matrix(0.7071 0.7071 -0.7071 0.7071 15.932 -23.5009)" fill="#CED6E0" width="3" height="2.7"/>
				</g>
				<g>
					
						<rect x="39" y="10.3" transform="matrix(0.7071 0.7071 -0.7071 0.7071 20.1156 -25.2339)" fill="#CED6E0" width="3" height="2.7"/>
				</g>
			</g>
		</g>
		<g>
			<g>
				<g>
					<path fill="#FFFFFF" d="M22.7,28.9l2.2,2.2l-2.2,2.2l-0.6-0.6l-2,2c-0.2,0.2-0.4,0.2-0.7,0.2l-4.1-1.2l-2.9,2.9
						c0.4,0.7,0.2,1.7-0.4,2.3c-0.8,0.8-2,0.8-2.8,0c-0.8-0.8-0.8-2,0-2.8c0.6-0.6,1.5-0.7,2.3-0.4l1.7-1.7L12,29.8
						c-0.1-0.2,0-0.5,0.2-0.7l2-2c-0.2-0.6-0.1-1.2,0.4-1.6c0.6-0.6,1.6-0.6,2.2,0c0.6,0.6,0.6,1.6,0,2.2c-0.4,0.4-1.1,0.6-1.6,0.4
						l-1.8,1.8l0.9,3l7.2-7.2L19.8,24l5.9-1.6L24,28.3l-1.7-1.7l-6,6l3,0.9l1.7-1.7l-0.6-0.6L22.7,28.9z"/>
				</g>
			</g>
		</g>
	</g>
</g>
</svg>
