<?xml version="1.0" encoding="utf-8"?>
<!-- Generator: Adobe Illustrator 18.0.0, SVG Export Plug-In . SVG Version: 6.00 Build 0)  -->
<!DOCTYPE svg PUBLIC "-//W3C//DTD SVG 1.1//EN" "http://www.w3.org/Graphics/SVG/1.1/DTD/svg11.dtd">
<svg version="1.1" id="Layer_1" xmlns="http://www.w3.org/2000/svg" xmlns:xlink="http://www.w3.org/1999/xlink" x="0px" y="0px"
	 viewBox="0 0 48 48" enable-background="new 0 0 48 48" xml:space="preserve">
<g>
	<path fill="#F2F2F2" d="M46,7H33.7c-1.4-4.1-5.2-7-9.7-7c-4.5,0-8.4,2.9-9.7,7H2C0.9,7,0,7.9,0,9v37c0,1.1,0.9,2,2,2h44
		c1.1,0,2-0.9,2-2V9C48,7.9,47.1,7,46,7z"/>
	<g>
		<g>
			<path fill="#ACB3BA" d="M39.9,21.5L39.9,21.5c-0.7-0.3-1.5-0.5-2.3-0.5c-2.9,0-5.3,2.1-5.3,4.7c0,1.7,1,3.1,2.4,4c0,0,0,0,0.1,0
				c0,0,0.1,0,0.1,0c3.4,1.7,3.3,3.6,3.3,3.6s0.2,1.1-1.3,3.4C35,40,35.4,42,35.4,42s0.3,4.4,4.2,3.8c2.4-0.4,3.3-2.5,3.6-4.2
				c0.2-0.8,0.2-1.7,0-2.5c-0.3-1.8,0-4.8,0-4.8C45.9,23.1,39.9,21.5,39.9,21.5z"/>
			
				<ellipse transform="matrix(0.1695 0.9855 -0.9855 0.1695 46.2976 -16.7549)" fill="#ACB3BA" cx="33.1" cy="19.1" rx="2.8" ry="1.9"/>
			
				<ellipse transform="matrix(-2.564034e-002 0.9997 -0.9997 -2.564034e-002 56.333 -17.167)" fill="#ACB3BA" cx="36.5" cy="18.9" rx="1.9" ry="1.3"/>
			
				<ellipse transform="matrix(-2.562151e-002 0.9997 -0.9997 -2.562151e-002 59.5086 -19.4279)" fill="#ACB3BA" cx="39.2" cy="19.3" rx="1.6" ry="1.2"/>
			
				<ellipse transform="matrix(-2.562068e-002 0.9997 -0.9997 -2.562068e-002 62.7744 -20.8575)" fill="#ACB3BA" cx="41.6" cy="20.2" rx="1.6" ry="1.2"/>
			
				<ellipse transform="matrix(-2.560018e-002 0.9997 -0.9997 -2.560018e-002 66.4724 -20.7433)" fill="#ACB3BA" cx="43.3" cy="22" rx="1.3" ry="0.9"/>
		</g>
		<g>
			<path fill="#ACB3BA" d="M8.1,21.5L8.1,21.5c0.7-0.3,1.5-0.5,2.3-0.5c2.9,0,5.3,2.1,5.3,4.7c0,1.7-1,3.1-2.4,4c0,0,0,0-0.1,0
				c0,0-0.1,0-0.1,0c-3.4,1.7-3.3,3.6-3.3,3.6s-0.2,1.1,1.3,3.4C13,40,12.6,42,12.6,42s-0.3,4.4-4.2,3.8c-2.4-0.4-3.3-2.5-3.6-4.2
				c-0.2-0.8-0.2-1.7,0-2.5c0.3-1.8,0-4.8,0-4.8C2.1,23.1,8.1,21.5,8.1,21.5z"/>
			
				<ellipse transform="matrix(-0.1695 0.9855 -0.9855 -0.1695 36.2537 7.6352)" fill="#ACB3BA" cx="14.9" cy="19.1" rx="2.8" ry="1.9"/>
			
				<ellipse transform="matrix(2.564407e-002 0.9997 -0.9997 2.564407e-002 30.0368 6.9224)" fill="#ACB3BA" cx="11.5" cy="18.9" rx="1.9" ry="1.3"/>
			
				<ellipse transform="matrix(2.565241e-002 0.9997 -0.9997 2.565241e-002 27.8334 10.0182)" fill="#ACB3BA" cx="8.8" cy="19.3" rx="1.6" ry="1.2"/>
			
				<ellipse transform="matrix(2.562071e-002 0.9997 -0.9997 2.562071e-002 26.4404 13.202)" fill="#ACB3BA" cx="6.4" cy="20.2" rx="1.6" ry="1.2"/>
			
				<ellipse transform="matrix(2.564455e-002 0.9997 -0.9997 2.564455e-002 26.552 16.8067)" fill="#ACB3BA" cx="4.7" cy="22" rx="1.3" ry="0.9"/>
		</g>
	</g>
	<path fill="#FFD15C" d="M24,18.6c-4.6,0-8.3-3.7-8.3-8.3C15.7,5.7,19.4,2,24,2c4.6,0,8.3,3.7,8.3,8.3C32.3,14.9,28.6,18.6,24,18.6z
		"/>
	<g>
		<g>
			<path fill="#FF7058" d="M24,3c-0.1,0-0.2,0.1-0.2,0.2v1c0,0.1,0.1,0.2,0.2,0.2c0.1,0,0.2-0.1,0.2-0.2v-1C24.2,3.1,24.1,3,24,3z"
				/>
			<path fill="#FF7058" d="M24,16.3c-0.1,0-0.2,0.1-0.2,0.2v1c0,0.1,0.1,0.2,0.2,0.2c0.1,0,0.2-0.1,0.2-0.2v-1
				C24.2,16.3,24.1,16.3,24,16.3z"/>
		</g>
		<g>
			<path fill="#FF7058" d="M20.4,4c-0.1,0-0.1,0.1-0.1,0.2l0.5,0.9c0,0.1,0.1,0.1,0.2,0.1c0.1,0,0.1-0.1,0.1-0.2L20.6,4
				C20.5,4,20.4,3.9,20.4,4z"/>
			<path fill="#FF7058" d="M27,15.5c-0.1,0-0.1,0.1-0.1,0.2l0.5,0.9c0,0.1,0.1,0.1,0.2,0.1c0.1,0,0.1-0.1,0.1-0.2l-0.5-0.9
				C27.2,15.5,27.1,15.4,27,15.5z"/>
		</g>
		<g>
			<path fill="#FF7058" d="M17.7,6.7c0,0.1,0,0.2,0.1,0.2l0.9,0.5c0.1,0,0.2,0,0.2-0.1c0-0.1,0-0.2-0.1-0.2l-0.9-0.5
				C17.8,6.6,17.7,6.6,17.7,6.7z"/>
			<path fill="#FF7058" d="M29.2,13.3c0,0.1,0,0.2,0.1,0.2l0.9,0.5c0.1,0,0.2,0,0.2-0.1c0-0.1,0-0.2-0.1-0.2l-0.9-0.5
				C29.3,13.2,29.2,13.2,29.2,13.3z"/>
		</g>
		<g>
			<path fill="#FF7058" d="M16.7,10.3c0,0.1,0.1,0.2,0.2,0.2h1c0.1,0,0.2-0.1,0.2-0.2s-0.1-0.2-0.2-0.2h-1
				C16.8,10.1,16.7,10.2,16.7,10.3z"/>
			<path fill="#FF7058" d="M30,10.3c0,0.1,0.1,0.2,0.2,0.2h1c0.1,0,0.2-0.1,0.2-0.2s-0.1-0.2-0.2-0.2h-1C30,10.1,30,10.2,30,10.3z"
				/>
		</g>
		<g>
			<path fill="#FF7058" d="M17.7,13.9c0,0.1,0.1,0.1,0.2,0.1l0.9-0.5c0.1,0,0.1-0.1,0.1-0.2c0-0.1-0.1-0.1-0.2-0.1l-0.9,0.5
				C17.7,13.8,17.6,13.9,17.7,13.9z"/>
			<path fill="#FF7058" d="M29.2,7.3c0,0.1,0.1,0.1,0.2,0.1l0.9-0.5c0.1,0,0.1-0.1,0.1-0.2c0-0.1-0.1-0.1-0.2-0.1l-0.9,0.5
				C29.2,7.1,29.1,7.2,29.2,7.3z"/>
		</g>
		<g>
			<path fill="#FF7058" d="M20.4,16.6c0.1,0,0.2,0,0.2-0.1l0.5-0.9c0-0.1,0-0.2-0.1-0.2c-0.1,0-0.2,0-0.2,0.1l-0.5,0.9
				C20.3,16.5,20.3,16.6,20.4,16.6z"/>
			<path fill="#FF7058" d="M27,5.1c0.1,0,0.2,0,0.2-0.1l0.5-0.9c0-0.1,0-0.2-0.1-0.2c-0.1,0-0.2,0-0.2,0.1l-0.5,0.9
				C26.9,5,26.9,5.1,27,5.1z"/>
		</g>
	</g>
	<path fill="#FF7058" d="M24.9,10.3c0-0.5-0.4-0.9-0.9-0.9c-0.5,0-0.9,0.4-0.9,0.9c0,0.4,0.2,0.7,0.5,0.8l0.4,4.2l0.4-4.2
		C24.7,11,24.9,10.7,24.9,10.3z"/>
</g>
</svg>
