<?xml version="1.0" encoding="utf-8"?>
<!-- Generator: Adobe Illustrator 18.0.0, SVG Export Plug-In . SVG Version: 6.00 Build 0)  -->
<!DOCTYPE svg PUBLIC "-//W3C//DTD SVG 1.1//EN" "http://www.w3.org/Graphics/SVG/1.1/DTD/svg11.dtd">
<svg version="1.1" id="Layer_1" xmlns="http://www.w3.org/2000/svg" xmlns:xlink="http://www.w3.org/1999/xlink" x="0px" y="0px"
	 viewBox="0 0 48 48" enable-background="new 0 0 48 48" xml:space="preserve">
<g>
	<g>
		<g>
			<g>
				<g>
					<path fill="#344A5E" d="M43.3,15.2c0,0,0.1-1.4,0.9-1.3C44.2,13.9,43.9,15.2,43.3,15.2z"/>
				</g>
			</g>
		</g>
		<g>
			<g>
				<g>
					<path fill="#F5B54C" d="M45.6,13.9l0.4-0.3c0,0,0,0.2,0,0.3c0,0.2,0.1,0.3,0.2,0.4c0.2,0,1.8,1.4,1.8,1.7
						c0,0.3-0.2,0.5-0.2,0.5L47,16.7l-2-0.3l-0.2-0.9L45.6,13.9"/>
				</g>
			</g>
		</g>
		<g>
			<g>
				<g>
					<ellipse transform="matrix(0.915 -0.4034 0.4034 0.915 -3.4633 9.5339)" fill="#FFD15C" cx="20.9" cy="13" rx="0.6" ry="1.4"/>
				</g>
			</g>
		</g>
		<g>
			<g>
				<g>
					<path fill="#F26F5A" d="M26.6,12.6c-0.4,0.8-0.5,1.8-0.5,2.7c0,0.2,0,0.4,0.1,0.5c0.1,0.2,0.2,0.4,0.3,0.6
						c0.3,0.5,0.8,0.9,1.2,1.3c0.3,0.3,0.7,0.5,1,0.8c0.3,0.3,0.5,0.6,0.6,1c0-0.4,0.1-0.8,0.1-1.2c0-0.5,0.1-1,0-1.5
						c-0.3-1.9-2.1-3.4-2.4-5.3"/>
				</g>
			</g>
		</g>
		<g>
			<g>
				<g>
					<path fill="#FFD15C" d="M26.7,9.8c0,0,0.5,1.7,0.4,2.5c0,0,0.2,1.8-0.1,2.7c-0.2,0.9-0.2,1,0,1.5c0.2,0.5,0.7,1.4,1.9,1.8
						c1.2,0.5,1.6,0.5,1.6,0.5s1.8-0.6,3.2-0.2s1.7,1.5,2.5,1.5c0.8,0,3.2,0.2,3.1,0.4c0,0,0.5-0.6,1.5-0.9c0.9-0.3,3.5-1.8,3.6-2.2
						c0,0-0.4-1-0.5-1.1c0-0.2,0-0.3,0.1-0.5c0.1-0.2,0.3-0.7,0.4-0.8v-0.7c0,0,0.4-0.1,0.7,0.3s0.1,0.8,0.1,0.8l0.8,0.9l1.2,0.1
						c0,0,0.8,0,0.8-0.5c0,0-0.1,0.6-0.1,0.7c0,0,0,0.9-0.3,1.1c-0.3,0.3-0.5,0.7-0.6,0.8c-0.1,0.1-0.4,0.3-0.4,0.3
						s-1.9,1.6-2.6,2.2c-0.7,0.6-2.1,1.9-3.2,2.4c-1.1,0.5-1.6,0.4-2.1,0.4c-0.5,0-3.1,0.2-5.2-0.5c0,0-0.4-0.4-0.9,0.4
						C32,24.7,32,24.7,32,24.7l-6.4,0.3l-7.2,0.5c0,0-0.5-1.3-0.7-1.6c-0.2-0.4-0.3-0.4-0.7-0.3s-2.8,0.8-5.6-0.1
						c0,0-0.6,0.1-1.4-0.2c-0.8-0.3-3.5-1.2-5-2.2S2,19.3,2,19.3s-0.4-0.1-0.8-0.6c-0.5-0.5-0.9-1.5-0.9-1.5l1-1.1
						c0-0.7,0.2-1.3,0.9-0.8c-1.4-0.3-0.4,1.1,0.2,2.3l0.7,0.2h1.3c0,0,1.2,0.5,1.5,0.7c0.3,0.2,3.1,0.8,3.9,0.9
						c0.8,0.1,1.5,0.8,1.5,0.8c0.1-0.2,3.4-0.3,3.7-0.2c0.4,0.1,1.9-1.7,5-0.9c0,0,2.3-0.7,2.4-1.6c0,0,0.2-0.5-0.4-1.5
						c-0.6-1-0.5-0.8-0.9-2c-0.4-1.2-0.7-1.8-0.1-2.9C21.4,9.9,24.9,6.5,26.7,9.8z"/>
				</g>
			</g>
		</g>
		<g>
			<g>
				<g>
					<path fill="#344A5E" d="M44.5,17.9c0,0,0.1,0.7,1.3,0.8C45.8,18.7,45.5,17.9,44.5,17.9z"/>
				</g>
			</g>
		</g>
		<g>
			<g>
				<path fill="#F5B54C" d="M0.1,16.8L0.1,16.8L0.1,16.8l0.1,0.1c0,0,0,0,0,0c0,0,0,0,0,0c0,0,0,0,0,0c0,0,0,0,0.1,0.1
					c0,0,0,0,0.1,0.1c0,0,0,0,0.1,0.1c0,0,0.1,0.1,0.1,0.1l0,0c0.1,0,0.1,0,0.2,0.1c0.1,0,0.1,0,0.2,0.1l0,0l0,0c0,0,0.1,0,0.1,0.1
					c0,0,0.1,0,0.1,0.1c0,0,0.1,0,0.1,0.1c0,0,0.1,0,0.1,0c0,0,0.1,0,0.1,0c0,0,0,0,0,0c0,0,0,0,0,0c0,0,0,0,0,0
					c0-0.1,0.1-0.1,0.1-0.2c0,0.1,0,0.1,0,0.2c0,0,0,0,0,0c0,0,0,0,0,0c0,0,0,0,0,0c0,0-0.1,0-0.1,0c0,0-0.1,0-0.1,0c0,0,0,0-0.1,0
					c0,0,0,0,0,0c0,0-0.1,0-0.1-0.1c0,0-0.1,0-0.1-0.1l0,0c-0.1,0-0.1,0-0.2-0.1c-0.1,0-0.1,0-0.2-0.1l0,0l0,0c0,0-0.1-0.1-0.1-0.1
					c0,0-0.1-0.1-0.1-0.1c0,0-0.1-0.1-0.1-0.1c0,0,0,0,0,0L0.1,16.8L0.1,16.8L0.1,16.8z"/>
			</g>
		</g>
		<g>
			<g>
				<g>
					
						<ellipse transform="matrix(0.9996 2.883384e-002 -2.883384e-002 0.9996 0.3539 -0.7789)" fill="#FFD15C" cx="27.2" cy="11.9" rx="0.6" ry="1.4"/>
				</g>
			</g>
		</g>
		<g>
			<g>
				<g>
					<path fill="#425A6B" d="M32.2,41.9H16.8c0,0,0.3-3.8,0.8-5c0.5-1.2,2.2-6,1.6-7.5c-0.5-1.5-0.9-3.8-0.9-3.8s0-0.4,0.4-1.3
						c0.4-0.8,1.5-3.2,1.8-3.8c0.4-0.6,0.7-1,0.7-1s0.5-1,0.5-1.4c0.1-0.1,0.2-0.2,0.3-0.3c-0.1,0.3-0.2,1.2,0,1.8
						c0.2,0.7,1,1.2,1.9,1.6c0.9,0.4,1.5,0.8,1.5,0.8s1.4-0.7,1.7-1.1c0.4-0.4,1.1-1,0.9-1.9c-0.2-0.9-0.7-1.7-0.7-1.7
						c0,0,0.3,0.4,0.6,0.7c0.1,0.3,0.3,1.1,0.6,1.4c0.4,0.4,1.2,1.2,1.7,1.7c0,0,0,0,0,0c0.4,0.5,0.8,1,0.9,1.4
						c0.4,1,0.7,2.1,0.7,2.1s-0.2,2.3-0.5,3.3c-0.3,1.1-0.9,6.2-0.4,7.7C31.8,37,32.5,40.2,32.2,41.9z"/>
				</g>
			</g>
		</g>
		<g>
			<g>
				<path fill="#344A5E" d="M4.5,13.9c0,0,0.6,0.5,0.7,1.4C5.2,15.2,3.7,14.4,4.5,13.9z"/>
			</g>
		</g>
		<g>
			<g>
				<g>
					<polygon fill="#48B9A5" points="4.8,14.7 21.2,16.3 21.3,16.7 4.9,15.1 					"/>
				</g>
			</g>
		</g>
		<g>
			<g>
				<g>
					<path fill="#425A6B" d="M1.5,18.2c0,0,1-0.1,1.6-0.6c0,0-0.6-0.1-0.7-0.6c0-0.5,0.8-1.3,1.4-1.4c0.6-0.1,1.4-0.3,1.4-0.3
						s-0.7-0.9-0.7-1.4c0,0-2.5,0.7-2.9,1.3C1.3,15.7,1.2,17.7,1.5,18.2z"/>
				</g>
			</g>
		</g>
		<g>
			<g>
				<g>
					<path fill="#FFD15C" d="M2.8,17.2c-0.1,0.2-0.5,0-0.5,0l-0.5,0l-0.5-0.1c0.1,0.1,0.1,0.2,0.1,0.3c0,0.1,0,0.2-0.1,0.3
						c0,0-0.1,0-0.1,0c-0.2-0.1-0.4-0.2-0.4-0.2l-0.4-0.1c0,0-0.4-0.3-0.5-0.5C0,16.7,0,16.6,0,16.5c0-0.1,0-0.2,0.1-0.2l0.5-0.5
						c0-0.2,0.3-0.3,0.3-0.3C0.7,15.3,0.8,15,1,14.9c0.2-0.1,0.6-0.1,0.6-0.1l0-0.6c0,0,0-0.3,0.4-0.3c0.3,0,0.7,0.3,0.9,0.5
						c0,0-0.1,0-0.1,0.1l-0.3-0.1l-0.2,0.5c0,0,0.2,0.2,0.3,0.5c0.1,0.1,0,0.2,0,0.3c-0.1,0.1-0.2,0.1-0.3,0
						c-0.1-0.1-0.3-0.2-0.5-0.3l0.3,0.4c0.1,0,0.2,0.1,0.2,0.1c0.5,0.3,0.3,0.8,0.3,0.8C2.8,16.8,2.9,17,2.8,17.2z"/>
				</g>
			</g>
		</g>
		<g>
			<g>
				<g>
					<path fill="#F5B54C" d="M2,14.7C2,14.7,2,14.7,2,14.7c0,0.1,0,0.1,0,0.1c0,0,0,0,0,0.1l0,0c0,0,0,0,0,0c0,0,0,0,0,0l0,0
						c0,0,0,0,0,0c0,0,0,0.1,0.1,0.1c0,0,0.1,0,0.1,0.1c0,0,0.1,0,0.1,0.1c0,0,0,0,0.1,0c0,0,0,0,0,0l0,0l-0.1-0.1
						c0,0,0-0.1-0.1-0.1c0,0,0-0.1-0.1-0.1c0,0,0,0,0,0l0,0c0,0,0,0,0,0c0,0,0,0,0,0l0,0c0,0,0,0,0,0c0,0,0,0,0,0
						C2.1,14.7,2.1,14.7,2,14.7c0.1,0,0.1-0.1,0.1-0.1l0,0l0,0c0-0.1,0-0.1,0-0.2c0-0.1,0-0.1,0.1-0.2c0,0,0-0.1,0.1-0.1
						c0,0,0,0,0,0c0,0-0.1,0-0.1,0c0,0,0,0,0,0c0,0,0,0.1-0.1,0.1c0,0,0,0.1-0.1,0.1l0,0.1c0,0,0,0,0,0.1c0,0.1,0,0.1,0,0.2
						c0,0,0,0,0,0.1l0,0.1C2,14.6,2,14.6,2,14.7z"/>
				</g>
			</g>
			<g>
				<g>
					<path fill="#F5B54C" d="M2.8,14.4c-0.1-0.1-0.1-0.1-0.2-0.2c0,0,0,0,0,0c-0.1-0.1-0.2-0.1-0.3-0.2c0,0,0.1,0.1,0.1,0.1
						c0.1,0.1,0.1,0.1,0.2,0.2C2.6,14.3,2.7,14.4,2.8,14.4C2.8,14.4,2.8,14.5,2.8,14.4C2.8,14.5,2.8,14.5,2.8,14.4
						C2.8,14.4,2.8,14.4,2.8,14.4z"/>
				</g>
			</g>
		</g>
		<g>
			<g>
				<g>
					<path fill="#FFD15C" d="M2.3,13.9c0,0-0.7,0.7,0.2,1.5c0,0,0.5,0.5,0.3,0.8c-0.2,0.3-0.1,0.9-0.4,1.2c0,0,0.6,0.4,1.5,0.3h0.3
						c0,0-0.1,0-0.1-0.5c0.1-0.4,0.3-1.1,0.1-1.4c-0.1-0.2-0.9-1-0.9-1s-0.2-0.1-0.4-0.3L2.3,13.9z"/>
				</g>
			</g>
		</g>
		<g>
			<g>
				<g>
					<path fill="#344A5E" d="M1.5,18.2c0,0,1.9,0.1,1.6-0.6C3.1,17.6,1.6,17.6,1.5,18.2z"/>
				</g>
			</g>
		</g>
		<g>
			<g>
				<g>
					<path fill="#67C5B8" d="M3.1,17.6l18.2-1.2v0.3L2.2,18C2.2,18,2.3,17.5,3.1,17.6z"/>
				</g>
			</g>
		</g>
		<g>
			<g>
				<g>
					<path fill="#F5B54C" d="M2.4,17.3C2.4,17.3,2.4,17.3,2.4,17.3c0.1,0,0.1,0,0.2,0c0.1,0,0.1,0,0.2,0c0,0,0.1,0,0.1,0
						c0,0,0,0,0,0c0,0,0,0,0,0c0,0,0-0.1,0-0.1c0,0,0-0.1,0-0.1c0,0,0-0.1,0-0.1c0,0,0,0,0,0c0,0,0,0,0,0c0,0,0,0,0,0c0,0,0,0,0,0
						c0,0,0,0,0,0c0,0,0,0,0,0c0,0,0,0,0,0s0,0,0,0c0,0,0,0,0,0c0,0,0,0,0.1,0c0,0,0,0,0,0c0,0,0,0,0,0c0,0,0,0,0,0c0,0,0,0,0,0
						c0,0,0,0.1,0,0.1c0,0,0,0.1,0,0.1c0,0,0,0.1,0,0.1c0,0,0,0,0,0.1c0,0,0,0,0,0.1c0,0-0.1,0.1-0.1,0.1c0,0-0.1,0-0.1,0
						c0,0-0.1,0-0.1,0C2.5,17.3,2.4,17.3,2.4,17.3C2.4,17.3,2.4,17.3,2.4,17.3z"/>
				</g>
			</g>
		</g>
		<g>
			<g>
				<g>
					<path fill="#425A6B" d="M2.4,17c0-0.1,0-0.3,0.1-0.4H1.3c0,0.7,0,1.3,0.1,1.6c0,0,1-0.1,1.6-0.6C3.1,17.6,2.4,17.5,2.4,17z"/>
				</g>
			</g>
		</g>
		<g>
			<g>
				<g>
					<path fill="#FFD15C" d="M2.6,16.7c0,0,0.2-0.5-0.3-0.8c0,0,0,0,0,0H0.5l-0.4,0.4C0,16.3,0,16.4,0,16.5c0,0.1,0,0.2,0.1,0.3
						c0.1,0.2,0.5,0.5,0.5,0.5l0.4,0.1c0,0,0.2,0.2,0.4,0.2c0.1,0,0.1,0,0.1,0c0.1,0,0.1-0.2,0.1-0.3c0-0.1,0-0.2-0.1-0.3l0.5,0.1
						l0.5,0c0,0,0.4,0.2,0.5,0C2.9,17,2.8,16.8,2.6,16.7z"/>
				</g>
			</g>
		</g>
		<g>
			<g>
				<g>
					<g>
						<path fill="#FEFEFF" d="M1.4,17.6c0,0-0.1,0-0.1,0c0,0-0.1-0.1-0.1-0.1c0,0,0,0,0-0.1c0,0,0-0.1,0-0.1c0,0,0,0,0-0.1
							c0,0,0,0,0,0c0,0,0,0,0,0c0.1,0,0.1,0.1,0.2,0.1l0,0c0,0,0,0,0,0.1C1.4,17.5,1.4,17.6,1.4,17.6z"/>
					</g>
				</g>
			</g>
			<g>
				<g>
					<g>
						<path fill="#FFFFFF" d="M2.4,15.7l-0.1-0.2l0,0c0,0,0-0.1,0-0.1c0,0,0-0.1,0.1-0.1c0,0,0.1,0,0.1,0c0.1,0,0.1,0.1,0.2,0.1
							C2.5,15.7,2.4,15.7,2.4,15.7z"/>
					</g>
				</g>
			</g>
			<g>
				<g>
					<g>
						<path fill="#FFFFFF" d="M2.6,16.5c0,0.1-0.1,0.1-0.2,0.1c-0.1,0-0.1-0.1-0.2-0.1c0,0-0.1,0-0.1-0.1c0,0,0,0,0-0.1
							c0,0,0-0.1,0.1-0.1c0,0,0.1,0,0.1,0c0,0,0.1,0,0.1,0c0,0,0.1,0,0.1,0l0,0c0,0,0.1,0.1,0.1,0.1C2.6,16.5,2.6,16.5,2.6,16.5z"/>
					</g>
				</g>
			</g>
			<g>
				<g>
					<g>
						<path fill="#FEFEFF" d="M2.8,17.2C2.8,17.2,2.7,17.2,2.8,17.2c-0.1,0.1-0.1,0.1-0.2,0.1c-0.1,0-0.2-0.1-0.2-0.1c0,0,0,0,0,0
							c0,0,0,0,0-0.1c0-0.1,0-0.1,0-0.2c0,0,0,0,0,0c0,0,0,0,0,0c0.1,0,0.2,0,0.3,0.1c0,0,0.1,0.1,0.1,0.1
							C2.8,17.1,2.8,17.1,2.8,17.2z"/>
					</g>
				</g>
			</g>
			<g>
				<g>
					<g>
						<g>
							<path fill="#F5B54C" d="M2.6,16.7c-0.2,0-0.3,0-0.5-0.1l0,0l0,0l-0.1,0l-0.1,0c-0.1,0-0.2,0-0.2,0l0,0l0,0
								c-0.1-0.1-0.2-0.1-0.2-0.2c-0.1-0.1-0.2-0.2-0.2-0.2c0,0,0,0-0.1-0.1c0,0,0,0-0.1-0.1c0,0-0.1-0.1-0.1-0.1c0,0,0,0,0-0.1
								c0,0,0,0,0-0.1c0,0,0,0,0-0.1l0-0.1l0,0.1c0,0,0,0,0,0.1c0,0,0,0,0,0.1c0,0,0,0,0.1,0.1l0.1,0.1l0.1,0.1c0,0,0,0,0.1,0.1
								c0,0,0,0,0.1,0.1c0,0,0.1,0.1,0.1,0.1l0.1,0.1c0,0,0.1,0.1,0.1,0.1c0,0,0.1,0.1,0.1,0.1l0,0c0.1,0,0.2,0,0.2,0l0.1,0l0.1,0
								l0,0c0,0,0,0,0,0C2.3,16.6,2.5,16.6,2.6,16.7z"/>
						</g>
					</g>
				</g>
				<g>
					<g>
						<g>
							<path fill="#F5B54C" d="M0.4,16C0.4,16,0.4,16,0.4,16c0,0.1,0.1,0.2,0.1,0.2c0,0,0,0,0,0.1c0,0,0,0,0,0.1c0,0,0,0.1,0.1,0.1
								c0,0,0,0,0,0.1c0,0,0,0,0,0.1c0,0,0,0,0,0.1c0,0,0,0,0,0.1c0,0,0,0,0.1,0.1c0,0,0,0,0.1,0c0,0,0.1,0.1,0.1,0.1
								c0.1,0.1,0.1,0.1,0.2,0.2c0.1,0.1,0.2,0.2,0.2,0.2s-0.1,0-0.2-0.1c-0.1,0-0.1-0.1-0.2-0.1c0,0,0,0-0.1,0c0,0,0,0-0.1,0
								c0,0,0,0-0.1,0c0,0,0,0-0.1-0.1c0,0,0,0-0.1-0.1c0,0,0,0,0-0.1c0,0-0.1-0.1-0.1-0.1c0,0,0-0.1-0.1-0.1c0,0,0-0.1,0-0.1
								c0,0,0-0.1,0-0.1C0.4,16.1,0.4,16.1,0.4,16C0.4,16,0.4,16,0.4,16z"/>
						</g>
					</g>
				</g>
				<g>
					<g>
						<g>
							<path fill="#F5B54C" d="M1.5,14.8C1.5,14.8,1.5,14.8,1.5,14.8C1.5,14.9,1.6,15,1.6,15c0,0,0,0.1,0.1,0.1c0,0,0,0.1,0.1,0.1
								c0,0,0,0.1,0.1,0.1c0,0.1,0.1,0.1,0.1,0.1s0,0,0,0c0,0,0,0-0.1-0.1c0,0,0-0.1-0.1-0.1c0,0,0-0.1-0.1-0.1c0,0,0,0,0-0.1
								c0,0,0,0,0-0.1c0,0,0-0.1,0-0.1C1.5,14.8,1.5,14.8,1.5,14.8z"/>
						</g>
					</g>
				</g>
			</g>
		</g>
		<g>
			<g>
				<g>
					<path fill="#FFFFFF" d="M2.3,13.9c0,0,0,1,0.6,0.6L2.3,13.9z"/>
				</g>
			</g>
		</g>
		<g>
			<g>
				<g>
					<path fill="#F5B54C" d="M27,15c-0.2,0.9-0.2,1,0,1.4c-1.5,1.3-3.3,1.1-3.3,1.1v-0.4C25.7,17.5,27,15.3,27,15C27,15,27,15,27,15
						z"/>
				</g>
			</g>
		</g>
		<g>
			<g>
				<g>
					<g>
						<polygon fill="#48B9A5" points="43.8,14.8 23.6,16.5 23.5,16.9 43.6,15.1 						"/>
					</g>
				</g>
			</g>
		</g>
		<g>
			<g>
				<g>
					<path fill="#67C5B8" d="M45.7,18L45.7,18c-0.3,0.3-0.7,0.5-1.2,0.4l-21-1.5v-0.3L44.4,18c0.1,0,0.1,0,0.2,0l0.3,0
						c0.3,0,0.1-0.2,0.1-0.2L45.7,18z"/>
				</g>
			</g>
		</g>
		<g>
			<g>
				<g>
					<path fill="#425A6B" d="M21.1,16c0,0,0,0.8,0,1c0,0.2,0,0.5,0,0.5h2.8c0,0-0.1-1.4,0-1.6C23.8,15.9,21.6,16.1,21.1,16z"/>
				</g>
			</g>
		</g>
		<g>
			<g>
				<g>
					<path fill="#425A6B" d="M44.5,17.9c0,0,1.1,0.4,1.3,0.8c0,0,1-1.7,1-2c0-0.4-0.8-1.7-1.4-2.1c-0.6-0.5-1.2-0.7-1.2-0.7
						c-0.3,0.5-0.6,1-0.9,1.3c0,0,0.6,0.2,1.2,0.3c0.6,0.1,1.1,0.9,1,1.2C45.4,17,44.5,17.9,44.5,17.9z"/>
				</g>
			</g>
		</g>
		<g>
			<g>
				<g>
					<path fill="#FFD15C" d="M45.9,16.3l-0.8-0.9c0,0,0.2-0.4-0.1-0.8s-0.7-0.3-0.7-0.3V15c-0.2,0.2-0.3,0.6-0.4,0.8
						c-0.1,0.2-0.1,0.3-0.1,0.5H45.9z"/>
				</g>
			</g>
		</g>
		<g>
			<g>
				<g>
					<path fill="#F5B54C" d="M45.2,15.1L45.2,15.1C45.2,15.1,45.2,15.1,45.2,15.1C45.2,15.1,45.2,15.1,45.2,15.1c-0.1,0-0.1,0-0.1,0
						c0,0-0.1-0.1-0.1-0.1c0,0,0-0.1,0-0.1c0,0,0-0.1,0-0.1c0-0.1,0-0.2,0-0.2c0,0,0,0,0,0c0,0,0.1,0,0.1,0.1c0,0.1,0,0.1,0,0.2
						c0,0.1,0,0.1,0.1,0.2C45.1,15,45.1,15,45.2,15.1C45.2,15,45.2,15.1,45.2,15.1C45.2,15.1,45.2,15.1,45.2,15.1z"/>
				</g>
			</g>
		</g>
		<g>
			<g>
				<g>
					<g>
						<path fill="#F5B54C" d="M48,16c0,0,0,0.1-0.1,0.1c0,0-0.1,0.1-0.1,0.1c-0.1,0.1-0.2,0.1-0.2,0.2c-0.1,0.1-0.2,0.1-0.2,0.2
							c-0.1,0-0.2,0.1-0.2,0.1l0,0c-0.1,0.1-0.3,0.2-0.4,0.3c0,0-0.1,0-0.1,0.1c0,0-0.1,0-0.1,0.1c0,0-0.1,0-0.1,0.1l-0.1,0l-0.1,0
							c0,0,0,0-0.1,0c0,0,0,0-0.1,0l-0.1,0l0,0l0,0l0,0l0,0l0,0c0,0,0,0-0.1,0c-0.1,0-0.1,0-0.1,0c0,0-0.1,0-0.1-0.1
							c0,0-0.1-0.1-0.1-0.1c0,0,0-0.1,0-0.1c0,0,0-0.1,0-0.1l0.1,0.1l-0.1,0.1l0,0l0,0l0,0l0,0c0,0,0,0,0,0l0,0c0,0,0,0,0,0
							c0,0,0,0,0,0c0,0-0.1,0-0.1,0c0,0-0.1,0-0.1,0c0,0,0,0-0.1-0.1c0,0,0,0,0-0.1c0,0,0,0,0,0c0,0,0,0,0,0c0,0,0-0.1,0-0.1
							c0,0,0,0,0,0l0,0l0,0c0,0,0,0,0-0.1c0,0,0-0.1,0.1-0.1c0,0,0,0,0-0.1c0,0,0,0,0,0c0,0,0,0,0,0l0,0c0,0,0,0,0,0l0,0.1
							c0,0-0.1,0-0.1,0c0,0-0.1,0-0.1,0c0,0-0.1,0-0.1,0c0,0-0.1,0-0.1,0c0,0-0.1,0-0.1,0c0,0,0,0,0,0c0,0,0,0,0,0c0,0,0,0,0,0
							c0,0,0,0,0,0c0,0,0-0.1,0-0.1c0,0,0-0.1,0-0.1l0-0.1l0.1-0.1l0.2-0.2l0,0c0.1-0.1,0.2-0.3,0.2-0.4c0-0.1,0.1-0.1,0.1-0.2
							c0,0,0-0.1,0.1-0.1c0,0,0,0,0,0c0,0,0,0,0,0c0,0,0,0,0,0c0,0,0,0,0,0c0,0,0,0.1-0.1,0.1c0,0.1-0.1,0.1-0.1,0.2
							c-0.1,0.1-0.2,0.3-0.2,0.4l0,0l0,0l-0.2,0.3L45,15.9l0,0.1c0,0,0,0,0,0.1c0,0,0,0,0,0.1c0,0,0,0,0,0c0,0,0,0,0,0c0,0,0,0,0,0
							c0,0,0,0,0,0c0,0,0,0,0.1,0c0,0,0,0,0.1,0c0,0,0,0,0.1,0c0,0,0,0,0.1,0c0,0,0,0,0.1,0l0,0.1c0,0,0,0,0,0l0,0c0,0,0,0,0,0
							c0,0,0,0,0,0c0,0,0,0,0,0.1c0,0,0,0.1-0.1,0.1c0,0,0,0,0,0.1l0,0l0,0c0,0,0,0,0,0c0,0,0,0,0,0.1l0,0c0,0,0,0,0,0c0,0,0,0,0,0
							c0,0,0,0,0,0c0,0,0,0,0,0c0,0,0,0,0,0c0,0,0,0,0,0c0,0,0,0,0,0l0,0c0,0,0,0,0,0l0,0l0,0l0,0l0,0c0,0,0,0,0,0l0,0l0,0l0,0
							l0.1-0.1l0.1-0.1l-0.1,0.2c0,0,0,0.1,0,0.1c0,0,0,0.1,0,0.1c0,0,0,0.1,0.1,0.1c0,0,0.1,0,0.1,0.1c0,0,0,0,0,0c0,0,0,0,0,0
							c0,0,0,0,0,0c0,0,0,0,0.1,0l0.1,0l0.1,0c0,0,0,0,0.1,0c0,0,0,0,0.1,0l0.1,0l0.1,0c0,0,0.1,0,0.1-0.1c0,0,0.1,0,0.1-0.1
							c0,0,0.1,0,0.1-0.1c0.1-0.1,0.3-0.2,0.4-0.3l0,0l0,0c0.1,0,0.2-0.1,0.3-0.1c0.1,0,0.2-0.1,0.2-0.1c0.1,0,0.2-0.1,0.2-0.2
							c0,0,0.1-0.1,0.1-0.1C47.9,16.1,48,16.1,48,16z"/>
					</g>
				</g>
			</g>
			<g>
				<g>
					<g>
						<g>
							<path fill="#FFD15C" d="M45,14.3c0,0-0.1,0.7,0.2,0.8c0.3,0,0.4-0.5,0.5-0.7l0.3-0.6c0,0,0.1-0.3-0.2-0.5
								c-0.4-0.2-0.6,0.2-0.6,0.2L45,14.3z"/>
						</g>
					</g>
				</g>
				<g>
					<g>
						<g>
							<path fill="#FFD15C" d="M45.9,14.5c0.2-0.2,0.4-0.2,0.6-0.2c0.1,0,0.1,0,0.2,0.1c0.2,0.1,0.1,0.3,0.2,0.3
								c0,0,0.1,0.1,0.3,0.1c0.1,0,0.3,0.2,0.4,0.4c0,0,0,0.1,0.2,0.2s0.3,0.4,0.2,0.6c-0.1,0.2-0.9,0.7-0.9,0.7s-0.6,0.4-0.9,0.5
								c-0.1,0-0.2,0-0.2,0c-0.2,0.1-0.4-0.2-0.3-0.4c0,0,0,0,0,0l-0.1,0.1c-0.1,0.1-0.3,0-0.3-0.2c0,0,0-0.1,0-0.1
								c0.1-0.3,0.2-0.3,0.2-0.3s-0.4,0-0.4-0.2c0,0,0-0.1,0-0.1l0.3-0.4c0,0,0.3-0.6,0.5-0.8C45.8,14.7,45.9,14.6,45.9,14.5z"/>
						</g>
					</g>
				</g>
				<g>
					<g>
						<g>
							<g>
								<path fill="#F5B54C" d="M45.3,16.3c0.1,0,0.1-0.1,0.2-0.1c0.1,0,0.1-0.1,0.2-0.1l0,0l0.1-0.2l0.1-0.2l0.1-0.2l0.1-0.1
									c0,0,0.1-0.1,0.1-0.1c0,0,0.1-0.1,0.2-0.1c0.1-0.1,0.2-0.2,0.3-0.3c-0.1,0.1-0.2,0.2-0.3,0.3c0,0-0.1,0.1-0.1,0.1
									c0,0-0.1,0.1-0.1,0.2l-0.1,0.2L46,15.8L45.8,16l-0.1,0.1l0,0l0,0c-0.1,0-0.1,0.1-0.2,0.1S45.4,16.3,45.3,16.3z"/>
							</g>
						</g>
					</g>
					<g>
						<g>
							<g>
								<path fill="#F5B54C" d="M45.6,16.8l0.3-0.2l0.1-0.1c0,0,0,0,0.1,0c0,0,0,0,0.1,0c0,0,0.1-0.1,0.1-0.1c0,0,0.1-0.1,0.1-0.1
									c0.1-0.1,0.2-0.1,0.3-0.2l0,0l0,0l0.4-0.3c0.1,0,0.1-0.1,0.2-0.1l0,0c0,0,0,0,0,0c0,0,0,0,0,0l0,0l0,0l0,0l0,0c0,0,0,0,0,0
									c0,0-0.1,0.1-0.1,0.1c-0.1,0.1-0.1,0.1-0.2,0.1c-0.1,0-0.1,0.1-0.2,0.1c-0.1,0-0.1,0.1-0.2,0.1l0,0
									c-0.1,0.1-0.2,0.1-0.3,0.2c-0.1,0.1-0.2,0.1-0.3,0.2c0,0,0,0-0.1,0c0,0-0.1,0-0.1,0c0,0-0.1,0-0.2,0.1
									C45.8,16.8,45.7,16.8,45.6,16.8z"/>
							</g>
						</g>
					</g>
				</g>
			</g>
			<g>
				<g>
					<g>
						<path fill="#FFFFFF" d="M45.3,16.2C45.3,16.2,45.3,16.3,45.3,16.2c-0.1,0.1-0.1,0-0.1,0c0,0-0.1,0-0.1-0.1
							c0,0-0.1-0.1-0.1-0.1c0,0,0-0.1,0-0.1c0,0,0,0,0.1,0c0,0,0.1,0,0.1,0c0,0,0.1,0.1,0.1,0.1C45.3,16.1,45.3,16.2,45.3,16.2z"/>
					</g>
				</g>
			</g>
			<g>
				<g>
					<path fill="#FFFFFF" d="M45.5,16.8C45.5,16.8,45.5,16.8,45.5,16.8C45.4,16.8,45.4,16.8,45.5,16.8
						C45.4,16.8,45.4,16.9,45.5,16.8c-0.1,0.1-0.1,0.1-0.1,0.1c0,0-0.1,0-0.1,0c0,0,0-0.1,0-0.1c0,0,0,0,0,0c0,0,0,0,0,0
						c0,0,0,0,0-0.1l0,0c0,0,0,0.1,0.1,0.1C45.4,16.7,45.4,16.8,45.5,16.8C45.5,16.8,45.5,16.8,45.5,16.8z"/>
				</g>
			</g>
			<g>
				<g>
					<g>
						<path fill="#FFFFFF" d="M45.9,17.1C45.9,17.1,45.9,17.1,45.9,17.1c-0.1,0-0.1,0.1-0.1,0.1c0,0,0,0,0,0c0,0,0,0,0,0
							c-0.1,0-0.1-0.1-0.1-0.2c0,0,0-0.1,0-0.1c0,0,0,0,0.1,0c0.1,0,0.1,0,0.2,0C45.9,16.9,45.9,17,45.9,17.1
							C46,17.1,46,17.1,45.9,17.1z"/>
					</g>
				</g>
			</g>
			<g>
				<g>
					<g>
						<path fill="#FFFEFF" d="M45.1,14.6c0.1,0.1,0.2,0,0.4,0c0,0.1,0,0.1,0,0.2c0,0.1,0,0.1,0,0.2c0,0.1-0.1,0.1-0.1,0.1
							c-0.1,0-0.1,0-0.2-0.1c0,0,0-0.1-0.1-0.2C45.1,14.7,45.1,14.6,45.1,14.6z"/>
					</g>
				</g>
			</g>
		</g>
		<g>
			<g>
				<g>
					<path fill="#FFFEFF" d="M44.3,15c0,0,0.4,0,0-0.7V15z"/>
				</g>
			</g>
		</g>
	</g>
	<g>
		<g>
			<g>
				<path fill="#F26F5A" d="M24.4,8.6c0.8-0.1,1.5,0.7,2.1,1.4c0.5,0.7,0.7,1.6,0.5,2.4c0.1,0,0.1-0.1,0.1-0.1
					c0.1-0.3,0.1-0.5,0.2-0.8c0.1-0.3,0.1-0.5,0.2-0.8c0.1-1-0.2-2-0.5-2.9c0,0-1-1.7-3.2-1.6s-3.9,1.9-4,3.1s-0.2,2-0.2,2
					s0.1-0.5,0.2-0.8c0,0,0.2,0.4,0.1,1.1c-0.1,0.7-0.2,2.6,0.6,3.9c0,0-0.5-1.2-0.5-2.4c0,0,0.1,0.4,0.3,0.8c0,0-0.1-0.7,0-1
					c0,0,0.2,1.7,0.5,2.6c0,0-0.5-2.3-0.4-2.6c0.1-0.4,0.2-0.8,0.8-1c0.6-0.2,1.1-0.8,1.5-1.5C23.1,9.5,24.1,8.7,24.4,8.6z"/>
			</g>
		</g>
	</g>
</g>
</svg>
