<?xml version="1.0" encoding="utf-8"?>
<!-- Generator: Adobe Illustrator 18.0.0, SVG Export Plug-In . SVG Version: 6.00 Build 0)  -->
<!DOCTYPE svg PUBLIC "-//W3C//DTD SVG 1.1//EN" "http://www.w3.org/Graphics/SVG/1.1/DTD/svg11.dtd">
<svg version="1.1" id="Layer_1" xmlns="http://www.w3.org/2000/svg" xmlns:xlink="http://www.w3.org/1999/xlink" x="0px" y="0px"
	 viewBox="0 0 48 48" enable-background="new 0 0 48 48" xml:space="preserve">
<g>
	<path fill="#F2F2F2" d="M36.1,0H5.4c-1.1,0-2,0.9-2,2v44c0,1.1,0.9,2,2,2h37.1c1.1,0,2-0.9,2-2V8.5L36.1,0z"/>
	<path fill="#CDD6E0" d="M36.1,5.9c0,1.4,1.1,2.6,2.6,2.6h5.9L36.1,0V5.9z"/>
	<rect x="18.9" y="10.1" fill="#ACB3BA" width="25.7" height="4.7"/>
	<path fill="#40596B" d="M5.4,0c-1.1,0-2,0.9-2,2v44c0,1.1,0.9,2,2,2h13.4V0H5.4z"/>
	<circle fill="#FF7058" cx="11.2" cy="12.4" r="5.3"/>
	<rect x="5.2" y="40.6" fill="#ACB3BA" width="11.8" height="2"/>
	<rect x="5.2" y="34.4" fill="#ACB3BA" width="11.8" height="2"/>
	<g>
		<rect x="21.7" y="22.1" fill="#84DBFF" width="20" height="2"/>
		<rect x="21.7" y="28.3" fill="#84DBFF" width="20" height="2"/>
		<rect x="21.7" y="34.4" fill="#84DBFF" width="20" height="2"/>
		<rect x="31.7" y="40.6" fill="#84DBFF" width="10" height="2"/>
	</g>
	<rect x="25.5" y="11.4" fill="#CDD6E0" width="12.4" height="2"/>
	<g>
		<path fill="#F2F2F2" d="M9,11c0.6,2.4,2.2,2.5,2.2,2.5s1.5-0.2,2.2-2.5c0,0,0.3-0.3,0.1-1.3c0,0-0.2-2.1-2.2-2.1S8.9,9.7,8.9,9.7
			C8.7,10.7,9,11,9,11z"/>
		<path fill="#F2F2F2" d="M15.1,14.3c-0.7,1.5-2.2,2.5-4,2.5s-3.3-1-4-2.5c0.1-0.1,0.3-0.1,0.4-0.2l1.7-0.6l0.2-0.1
			c0.8,0.8,1.6,0.9,1.6,0.9l0.1,0l0.1,0c0,0,0.8-0.1,1.6-0.9l0.2,0.1l1.7,0.6C14.9,14.2,15,14.2,15.1,14.3z"/>
	</g>
</g>
</svg>
