<?xml version="1.0" encoding="utf-8"?>
<!-- Generator: Adobe Illustrator 16.0.0, SVG Export Plug-In . SVG Version: 6.00 Build 0)  -->
<!DOCTYPE svg PUBLIC "-//W3C//DTD SVG 1.1//EN" "http://www.w3.org/Graphics/SVG/1.1/DTD/svg11.dtd">
<svg version="1.1" id="Layer_1" xmlns="http://www.w3.org/2000/svg" xmlns:xlink="http://www.w3.org/1999/xlink" x="0px" y="0px"
	 width="48px" height="48px" viewBox="0 0 48 48" enable-background="new 0 0 48 48" xml:space="preserve">
<g>
	<path fill="#F8B64C" d="M17.5,31.26c0.078,0.111,0.068,0.111-0.012,0H17.5z"/>
	<path fill="#F8B64C" d="M30.529,31.26c-0.08,0.111-0.09,0.111-0.01,0H30.529z"/>
	<path fill="#F8B64C" d="M31.133,28.893v4.201c-1.41,2-3.479,3.189-5.66,3.549c-0.479,0.08-0.979,0.193-1.459,0.193
		c-2.67,0-5.373-1.314-7.104-3.744l0.033-4.199H31.133z"/>
	<g opacity="0.1">
		<g>
			<defs>
				<rect id="SVGID_23_" x="21.424" y="29.014" width="9.709" height="7.629"/>
			</defs>
			<clipPath id="SVGID_2_">
				<use xlink:href="#SVGID_23_"  overflow="visible"/>
			</clipPath>
			<path clip-path="url(#SVGID_2_)" fill="#40596B" d="M31.133,29.012v4.08c-1.41,2-3.479,3.191-5.66,3.551l-4.049-3.01
				c0.59,0.26,1.219,0.4,1.869,0.4h1.5c1.34,0,2.621-0.561,3.52-1.551l0.99-1.08C29.984,30.652,30.584,29.842,31.133,29.012"/>
		</g>
	</g>
	<path fill="#F8B64C" d="M16.723,17.967c0.148,1.676-0.666,3.115-1.814,3.215c-1.15,0.102-2.201-1.176-2.348-2.852
		c-0.146-1.674,0.666-3.115,1.816-3.215C15.527,15.014,16.576,16.291,16.723,17.967"/>
	<path fill="#F8B64C" d="M35.465,18.33c-0.146,1.676-1.195,2.953-2.346,2.852c-1.15-0.1-1.963-1.539-1.816-3.215
		s1.197-2.951,2.348-2.852C34.799,15.215,35.613,16.656,35.465,18.33"/>
	<path fill="#FFD15C" d="M34.063,21.514c-0.299,1.691-0.789,3.34-1.51,4.891c-0.83,1.811-1.949,3.51-3.318,5l-0.98,1.08
		c-0.9,0.98-2.18,1.551-3.51,1.551h-1.461c-1.32,0-2.609-0.57-3.51-1.551l-0.98-1.08c-1.369-1.49-2.49-3.189-3.32-5
		c-0.709-1.551-1.209-3.199-1.51-4.891c-0.279-1.629-0.629-6.559,0.121-9.219c1.219-4.301,5.039-7.391,9.93-7.51
		c4.891,0.119,8.709,3.209,9.93,7.51C34.693,14.955,34.344,19.885,34.063,21.514"/>
	<path fill="#CDD6E0" d="M15.279,34.248c2.004,2.826,5.266,4.514,8.727,4.514c3.475,0,6.74-1.689,8.734-4.518
		c0.094-0.135,0.164-0.277,0.221-0.422l-1.855-0.73c-1.721,2.439-4.42,3.67-7.1,3.67c-2.67,0-5.365-1.23-7.096-3.67l-1.855,0.73
		C15.113,33.969,15.184,34.113,15.279,34.248"/>
	<path fill="#F2F2F2" d="M48,42.9V48H0v-5.1c0-1.91,1.17-3.631,2.949-4.32l5.762-2.26l5.17-2.039l1.17-0.461h0.01
		c0.049,0.15,0.119,0.291,0.219,0.43c2,2.82,5.271,4.51,8.73,4.51c3.471,0,6.74-1.689,8.73-4.52c0.09-0.129,0.16-0.27,0.221-0.42
		l1.17,0.461l5.17,2.029l5.76,2.27C46.83,39.281,48,40.99,48,42.9"/>
	<path fill="#FFD15C" d="M42.541,48H26.26v-5.449c0-0.07,0-0.131,0.01-0.201c0.01-0.33,0.07-0.648,0.16-0.949
		c0.041-0.15,0.09-0.289,0.15-0.43c0.051-0.141,0.119-0.27,0.189-0.4l0.01-0.01c0.031-0.07,0.07-0.131,0.121-0.199
		c0.07-0.111,0.141-0.221,0.23-0.33c0.09-0.121,0.189-0.23,0.299-0.342c0.26-0.27,0.57-0.5,0.91-0.68
		c1.561-0.84,3.631-2.379,5-5.029l6.471,2.539c0.02,0.891,0.119,1.932,0.33,3.17c0.129,0.801,0.309,1.682,0.549,2.65l0.01,0.01
		c0.041,0.121,0.4,1.141,0.852,2.5c0.068,0.201,0.129,0.41,0.199,0.631c0.141,0.43,0.291,0.881,0.43,1.34
		c0.07,0.23,0.15,0.461,0.221,0.689C42.439,47.68,42.49,47.84,42.541,48"/>
	<path fill="#FFD15C" d="M21.75,42.551V48H5.461c0.049-0.16,0.1-0.32,0.148-0.49L5.82,46.82c0.141-0.461,0.289-0.91,0.43-1.34
		c0.07-0.221,0.131-0.43,0.199-0.631c0.451-1.359,0.811-2.379,0.861-2.5v-0.01c0.119-0.48,0.219-0.949,0.311-1.389
		c0.09-0.441,0.17-0.861,0.238-1.262c0.211-1.229,0.311-2.279,0.34-3.158l6.471-2.551c1.371,2.65,3.439,4.189,5,5.029
		c0.34,0.18,0.65,0.41,0.91,0.68c0.109,0.111,0.211,0.221,0.301,0.342c0.09,0.109,0.16,0.219,0.229,0.328
		c0.051,0.07,0.09,0.131,0.121,0.201l0.01,0.01c0.07,0.131,0.141,0.26,0.189,0.4c0.061,0.139,0.111,0.279,0.15,0.43
		c0.09,0.301,0.15,0.619,0.16,0.949C21.75,42.42,21.75,42.48,21.75,42.551"/>
	<path fill="#F8B64C" d="M21.74,42.35H7.311v-0.01c0.23-0.969,0.41-1.85,0.549-2.65H20.58C21.279,40.391,21.701,41.34,21.74,42.35"
		/>
	<path fill="#F8B64C" d="M21.75,44.85v2.66H5.609c0.281-0.92,0.58-1.85,0.84-2.66H21.75z"/>
	<path fill="#F8B64C" d="M40.701,42.35H26.27c0.041-1.01,0.461-1.959,1.16-2.66h12.711c0.129,0.801,0.311,1.682,0.549,2.65
		L40.701,42.35z"/>
	<path fill="#F8B64C" d="M42.4,47.51H26.26v-2.66h15.291C41.811,45.66,42.109,46.59,42.4,47.51"/>
	<path fill="#40596B" d="M33.658,19.105c0,0-0.834-0.109-0.557-1.912c0,0,0.273-0.664-0.029-1.346
		c-0.398-0.902-0.564-1.887-0.758-2.855C32.01,11.48,31.309,9.73,29.703,9.67c0,0-4.057,0.518-5.688,0.518
		c-1.635,0-5.691-0.518-5.691-0.518c-1.6,0.061-2.299,1.799-2.605,3.309c-0.197,0.979-0.379,1.971-0.771,2.889
		c-0.289,0.676-0.023,1.326-0.023,1.326c0.279,1.803-0.555,1.912-0.555,1.912c-2.219-1.664-0.83-8.016-0.83-8.016
		c2.359-8.396,10.477-7.91,10.477-7.91s8.113-0.486,10.473,7.91C34.488,11.09,35.877,17.441,33.658,19.105"/>
	<path fill="#FF7058" d="M35.518,12.916v-0.455c0-6.352-5.148-11.5-11.502-11.5c-6.352,0-11.5,5.148-11.5,11.5v0.455H35.518z"/>
	<path fill="#F1543F" d="M32.23,13.459h-16.43c0.17-0.66,0.32-1.311,0.43-1.971C16.42,10.5,16.541,9.51,16.59,8.52
		C16.631,4.879,17.939,0,24.02,0c6.07,0,7.381,4.879,7.42,8.52c0.061,0.99,0.182,1.98,0.371,2.969
		C31.92,12.148,32.061,12.799,32.23,13.459"/>
	<polygon fill="#FFD15C" points="20.738,4.004 20.738,8.572 24.016,10.721 27.293,8.572 27.293,4.004 	"/>
	<path fill="#ED4735" d="M32.23,13.459h-16.43c0.17-0.66,0.32-1.311,0.43-1.971h15.58C31.92,12.148,32.061,12.799,32.23,13.459"/>
	<path fill="#F1543F" d="M13.262,12.488h21.4c1.447,0,2.623,1.174,2.623,2.621v0.199c0,0.547-0.443,0.99-0.99,0.99H11.631
		c-0.547,0-0.99-0.443-0.99-0.99v-0.199C10.641,13.662,11.814,12.488,13.262,12.488"/>
</g>
</svg>
