<?xml version="1.0" encoding="utf-8"?>
<!-- Generator: Adobe Illustrator 18.0.0, SVG Export Plug-In . SVG Version: 6.00 Build 0)  -->
<!DOCTYPE svg PUBLIC "-//W3C//DTD SVG 1.1//EN" "http://www.w3.org/Graphics/SVG/1.1/DTD/svg11.dtd">
<svg version="1.1" id="Layer_1" xmlns="http://www.w3.org/2000/svg" xmlns:xlink="http://www.w3.org/1999/xlink" x="0px" y="0px"
	 viewBox="0 0 48 48" enable-background="new 0 0 48 48" xml:space="preserve">
<g>
	<g>
		<path fill="#415A6B" d="M38.3,48H9.7c-1.7,0-3-1.4-3-3V3c0-1.7,1.4-3,3-3h28.6c1.7,0,3,1.4,3,3V45C41.3,46.6,40,48,38.3,48z"/>
		<rect x="10.7" y="5.4" fill="#66C6B9" width="26.6" height="33.1"/>
		<g>
			<circle fill="#344A5E" cx="24" cy="43.2" r="2.6"/>
		</g>
		<g>
			<g>
				<g>
					<path fill="#F3F3F3" d="M34.3,17c0,2.3-1.9,4.2-4.2,4.2H18.2c-2.5,0-4.5-2-4.5-4.5c0-2.4,1.8-4.3,4.1-4.5
						c0.2-0.6,0.6-1.1,1.2-1.5c0.9-0.5,1.9-0.5,2.7,0c0.8-1.3,2.3-2.1,4-2.1c2.4,0,4.5,1.8,4.7,4.2C32.6,12.9,34.3,14.7,34.3,17z"/>
				</g>
			</g>
			<g>
				<polygon fill="#FFFFFF" points="29.5,29.6 23.8,35.3 18.1,29.6 21.6,29.6 21.6,23.8 26.1,23.8 26.1,29.6 				"/>
			</g>
		</g>
	</g>
</g>
</svg>
