<?xml version="1.0" encoding="utf-8"?>
<!-- Generator: Adobe Illustrator 18.0.0, SVG Export Plug-In . SVG Version: 6.00 Build 0)  -->
<!DOCTYPE svg PUBLIC "-//W3C//DTD SVG 1.1//EN" "http://www.w3.org/Graphics/SVG/1.1/DTD/svg11.dtd">
<svg version="1.1" id="Layer_1" xmlns="http://www.w3.org/2000/svg" xmlns:xlink="http://www.w3.org/1999/xlink" x="0px" y="0px"
	 viewBox="0 0 48 48" enable-background="new 0 0 48 48" xml:space="preserve">
<g>
	<path fill="#40596B" d="M32.2,13.5c-0.3-1.2-0.8-2.4-1.4-3.5L32,7.2l-4.1-4.1l-2.8,1.2c-1.1-0.6-2.2-1.1-3.5-1.4L20.5,0h-5.9
		l-1.1,2.9c-1.2,0.3-2.4,0.8-3.5,1.4L7.2,3.1L3.1,7.2L4.3,10c-0.6,1.1-1.1,2.2-1.4,3.5L0,14.6v5.9l2.9,1.1c0.3,1.2,0.8,2.4,1.4,3.5
		l-1.2,2.8L7.2,32l2.8-1.2c1.1,0.6,2.2,1.1,3.5,1.4l1.1,2.9h5.9l1.1-2.9c1.2-0.3,2.4-0.8,3.5-1.4l2.8,1.2l4.1-4.1L30.8,25
		c0.6-1.1,1.1-2.2,1.4-3.5l2.9-1.1v-5.9L32.2,13.5z M17.5,24.7c-4,0-7.2-3.2-7.2-7.2c0-4,3.2-7.2,7.2-7.2c4,0,7.2,3.2,7.2,7.2
		C24.7,21.5,21.5,24.7,17.5,24.7z"/>
	<path fill="#4CDBC4" d="M33.9,41c0.1-0.6,0.1-1.1,0-1.7l1-1l-1-2.5l-1.4,0c-0.3-0.4-0.8-0.8-1.2-1.2l0-1.4l-2.5-1l-1,1
		c-0.6-0.1-1.1-0.1-1.7,0l-1-1l-2.5,1l0,1.4c-0.4,0.3-0.8,0.8-1.2,1.2l-1.4,0l-1,2.5l1,1c-0.1,0.6-0.1,1.1,0,1.7l-1,1l1,2.5l1.4,0
		c0.3,0.4,0.8,0.8,1.2,1.2l0,1.4l2.5,1l1-1c0.6,0.1,1.1,0.1,1.7,0l1,1l2.5-1l0-1.4c0.4-0.3,0.8-0.8,1.2-1.2l1.4,0l1-2.5L33.9,41z
		 M25.9,43.1c-1.7-0.7-2.5-2.6-1.8-4.2c0.7-1.7,2.6-2.5,4.2-1.8c1.7,0.7,2.5,2.6,1.8,4.2C29.4,43,27.5,43.8,25.9,43.1z"/>
	<path fill="#FF7058" d="M47,27.9c0.1-0.6,0.1-1.1,0-1.7l1-1l-1-2.5l-1.4,0c-0.3-0.4-0.8-0.8-1.2-1.2l0-1.4l-2.5-1l-1,1
		c-0.6-0.1-1.1-0.1-1.7,0l-1-1l-2.5,1l0,1.4c-0.4,0.3-0.8,0.8-1.2,1.2l-1.4,0l-1,2.5l1,1c-0.1,0.6-0.1,1.1,0,1.7l-1,1l1,2.5l1.4,0
		c0.3,0.4,0.8,0.8,1.2,1.2l0,1.4l2.5,1l1-1c0.6,0.1,1.1,0.1,1.7,0l1,1l2.5-1l0-1.4c0.4-0.3,0.8-0.8,1.2-1.2l1.4,0l1-2.5L47,27.9z
		 M38.9,30.1c-1.7-0.7-2.5-2.6-1.8-4.2c0.7-1.7,2.6-2.5,4.2-1.8c1.7,0.7,2.5,2.6,1.8,4.2C42.4,30,40.5,30.8,38.9,30.1z"/>
	<g>
		<circle fill="#FFD15C" cx="17.5" cy="17.5" r="10.5"/>
		<circle fill="#F8B64C" cx="17.5" cy="17.5" r="8.6"/>
		<path fill="#FFD15C" d="M17,22.1c-1.4-0.1-2.4-0.6-3.1-1.4l1-1.5c0.5,0.5,1.2,1,2.1,1.1v-2.1c-1.4-0.3-2.8-0.8-2.8-2.6
			c0-1.3,1.1-2.5,2.8-2.7v-1.2h1.2V13c1.1,0.1,2,0.5,2.7,1.2l-1,1.4c-0.5-0.4-1.1-0.7-1.7-0.9v1.8c1.4,0.3,2.9,0.9,2.9,2.7
			c0,1.5-1,2.6-2.9,2.8v1.2H17V22.1z M17,16.3v-1.6c-0.6,0.1-0.9,0.4-0.9,0.8C16.1,15.9,16.5,16.1,17,16.3z M18.3,18.6v1.8
			c0.7-0.1,1-0.5,1-0.9C19.3,19,18.9,18.8,18.3,18.6z"/>
	</g>
</g>
</svg>
