<?xml version="1.0" encoding="utf-8"?>
<!-- Generator: Adobe Illustrator 18.0.0, SVG Export Plug-In . SVG Version: 6.00 Build 0)  -->
<!DOCTYPE svg PUBLIC "-//W3C//DTD SVG 1.1//EN" "http://www.w3.org/Graphics/SVG/1.1/DTD/svg11.dtd">
<svg version="1.1" id="Layer_1" xmlns="http://www.w3.org/2000/svg" xmlns:xlink="http://www.w3.org/1999/xlink" x="0px" y="0px"
	 viewBox="0 0 512 512" enable-background="new 0 0 512 512" xml:space="preserve">
<g>
	<path fill="#40596B" d="M403.5,2h-295c-11.7,0-21.1,9.5-21.1,21.1v465.7c0,11.7,9.5,21.1,21.1,21.1h295c11.7,0,21.1-9.5,21.1-21.1
		V23.1C424.7,11.5,415.2,2,403.5,2z"/>
	<rect x="132.5" y="58.2" fill="#FFFFFF" width="247" height="346.2"/>
	<path fill="#ACB3BA" d="M299,37.6h-86c-0.4,0-0.7-0.3-0.7-0.7V23.3c0-0.4,0.3-0.7,0.7-0.7h86c0.4,0,0.7,0.3,0.7,0.7v13.7
		C299.7,37.3,299.4,37.6,299,37.6z"/>
	<circle fill="#ACB3BA" cx="256" cy="457.2" r="28.4"/>
	<g>
		<path fill="#FFD05C" d="M329.6,193.7l-73.7,37.6l58.5,58.5C340.2,264,346.2,226.3,329.6,193.7z"/>
		<path fill="#89D6F7" d="M268.8,149.5l-12.9,81.8l73.7-37.6C317.1,169.3,295.9,153.8,268.8,149.5z"/>
		<path fill="#F2705B" d="M255.9,231.3l12.9-81.8c-27.1-4.3-52.1,3.8-71.4,23.2c-32.3,32.3-32.3,84.7,0,117.1
			c32.3,32.3,84.7,32.3,117,0L255.9,231.3z"/>
	</g>
</g>
</svg>
