<?xml version="1.0" encoding="utf-8"?>
<!-- Generator: Adobe Illustrator 18.0.0, SVG Export Plug-In . SVG Version: 6.00 Build 0)  -->
<!DOCTYPE svg PUBLIC "-//W3C//DTD SVG 1.1//EN" "http://www.w3.org/Graphics/SVG/1.1/DTD/svg11.dtd">
<svg version="1.1" id="Layer_1" xmlns="http://www.w3.org/2000/svg" xmlns:xlink="http://www.w3.org/1999/xlink" x="0px" y="0px"
	 viewBox="0 0 48 48" enable-background="new 0 0 48 48" xml:space="preserve">
<g>
	<g>
		<g>
			<g>
				<polygon fill="#66C6B9" points="48,40.8 45.6,43.2 48,45.6 45.6,48 45.6,48 43.2,45.6 40.8,48 38.4,45.6 36,48 33.6,45.6 
					31.2,48 28.8,45.6 26.4,48 24,45.6 21.6,48 19.2,45.6 16.8,48 14.4,45.6 12,48 9.6,45.6 7.2,48 4.8,45.6 2.4,48 0,45.6 
					2.4,43.2 0,40.8 2.4,38.4 0,36 2.4,33.6 0,31.2 2.4,28.8 0,26.4 2.4,24 0,21.6 2.4,19.2 0,16.8 2.4,14.4 0,12 2.4,9.6 0,7.2 
					2.4,4.8 0,2.4 2.4,0 2.4,0 2.4,0 4.8,2.4 7.2,0 9.6,2.4 12,0 14.4,2.4 16.8,0 19.2,2.4 21.6,0 24,2.4 26.4,0 28.8,2.4 31.2,0 
					33.6,2.4 36,0 38.4,2.4 40.8,0 43.2,2.4 45.6,0 48,2.4 45.6,4.8 48,7.2 45.6,9.6 48,12 45.6,14.4 48,16.8 45.6,19.2 48,21.6 
					45.6,24 48,26.4 45.6,28.8 48,31.2 45.6,33.6 48,36 45.6,38.4 				"/>
			</g>
		</g>
		<g>
			<rect x="7.8" y="7.8" fill="#FFFFFF" width="32.4" height="32.4"/>
		</g>
		<g>
			<g>
				<path fill="#F05540" d="M28.9,25c0,0,7.5-4.5,7.5-9.4c0-2.1-1.7-3.8-3.8-3.8c-1.7,0-3.1,1.1-3.6,2.6c-0.5-1.5-2-2.6-3.6-2.6
					c-2.1,0-3.8,1.7-3.8,3.8C21.5,20.6,28.9,25,28.9,25z"/>
			</g>
			<g>
				<path fill="#F3705A" d="M20.8,36.3c0,0,9.2-5.6,9.2-11.6c0-2.6-2.1-4.7-4.7-4.7c-2.1,0-3.8,1.3-4.5,3.1
					c-0.7-1.8-2.4-3.1-4.5-3.1c-2.6,0-4.7,2.1-4.7,4.7C11.6,30.9,20.8,36.3,20.8,36.3z"/>
			</g>
		</g>
	</g>
</g>
</svg>
