<?xml version="1.0" encoding="utf-8"?>
<!-- Generator: Adobe Illustrator 16.0.0, SVG Export Plug-In . SVG Version: 6.00 Build 0)  -->
<!DOCTYPE svg PUBLIC "-//W3C//DTD SVG 1.1//EN" "http://www.w3.org/Graphics/SVG/1.1/DTD/svg11.dtd">
<svg version="1.1" id="Layer_1" xmlns="http://www.w3.org/2000/svg" xmlns:xlink="http://www.w3.org/1999/xlink" x="0px" y="0px"
	 width="48px" height="48px" viewBox="0 0 48 48" enable-background="new 0 0 48 48" xml:space="preserve">
<g>
	<polygon fill="#E8EAE9" points="12.838,48 0,35.162 0,0 38.098,0 38.098,48 	"/>
	<rect x="5" y="5" fill="#ADB3BA" width="28.098" height="2.91"/>
	<rect x="5" y="12.91" fill="#ADB3BA" width="28.098" height="2.909"/>
	<rect x="5" y="20.819" fill="#ADB3BA" width="28.098" height="2.91"/>
	<rect x="5" y="28.73" fill="#ADB3BA" width="28.098" height="2.91"/>
	<polygon fill="#55C0EB" points="12.838,48 0,35.162 12.838,35.162 	"/>
	<path fill="#F3705A" d="M23.73,35.865c0-6.702,5.434-12.135,12.135-12.135S48,29.163,48,35.865S42.566,48,35.865,48
		S23.73,42.567,23.73,35.865"/>
	<path fill="#FFFFFF" d="M42.635,31.165c-0.568-0.568-1.488-0.568-2.057,0l-6.316,6.316l-3.109-3.108
		c-0.568-0.568-1.488-0.568-2.057,0c-0.566,0.568-0.566,1.488,0,2.056l4.137,4.137c0.568,0.567,1.488,0.567,2.057,0l7.346-7.345
		C43.203,32.653,43.203,31.733,42.635,31.165"/>
</g>
</svg>
