<?xml version="1.0" encoding="utf-8"?>
<!-- Generator: Adobe Illustrator 18.0.0, SVG Export Plug-In . SVG Version: 6.00 Build 0)  -->
<!DOCTYPE svg PUBLIC "-//W3C//DTD SVG 1.1//EN" "http://www.w3.org/Graphics/SVG/1.1/DTD/svg11.dtd">
<svg version="1.1" id="Layer_1" xmlns="http://www.w3.org/2000/svg" xmlns:xlink="http://www.w3.org/1999/xlink" x="0px" y="0px"
	 viewBox="0 0 48 48" enable-background="new 0 0 48 48" xml:space="preserve">
<g>
	<g>
		<g>
			<g>
				<g>
					<rect x="4.4" y="31" fill="#FFD15C" width="39.1" height="5.1"/>
				</g>
				<g>
					<polygon fill="#FFD15C" points="38.3,48 40.7,36.1 7.3,36.1 9.7,48 					"/>
				</g>
				<g>
					<polygon fill="#F7B64C" points="40.2,38.8 40.7,36.1 7.3,36.1 7.8,38.8 					"/>
				</g>
			</g>
			<g>
				<g>
					<rect x="18.4" y="20" fill="#CED6E0" width="10.4" height="11"/>
				</g>
				<g>
					<g>
						<g>
							<polygon fill="#F05540" points="26.5,31 25.2,24.3 22.8,24.3 21.5,31 							"/>
						</g>
						<g>
							<path fill="#415A6B" d="M25.4,31h12.7l-0.9-6.7c-0.2-1.4-1.1-2.7-2.5-3.2l-5.1-2l-1.9-2.6l1.1,4.9L25.4,31z"/>
							<path fill="#415A6B" d="M22.6,31l-3.4-9.6l1.1-4.9l-1.9,2.6l-5.1,2c-1.3,0.5-2.3,1.8-2.5,3.2L9.9,31H22.6z"/>
						</g>
						<g>
							<polygon fill="#F05540" points="25.2,24.3 26.1,23.3 24,21.2 21.9,23.3 22.8,24.3 							"/>
						</g>
					</g>
					<g>
						<path fill="#F7B64C" d="M27.7,16.5c0,6.3-7.5,6.3-7.5,0l0-6.8h7.5L27.7,16.5z"/>
					</g>
					<g>
						<g>
							<path fill="#F3F3F3" d="M27.7,16.5c0,0-0.6,2.9-3.7,4.7c0.9,1,1.7,2,1.8,3l3-5L27.7,16.5z"/>
						</g>
						<g>
							<path fill="#344A5E" d="M25.3,31h1l4.8-5.1l-2.8-1.9l3.2-2.3l-3.8-5.3C28.4,19.8,26.9,25.3,25.3,31z"/>
						</g>
					</g>
					<g>
						<g>
							<path fill="#F3F3F3" d="M20.3,16.5c0,0,0.6,2.9,3.7,4.7c-0.9,1-1.7,2-1.8,3l-3-5L20.3,16.5z"/>
						</g>
						<g>
							<path fill="#344A5E" d="M16.9,25.9l4.8,5.1h1c-1.6-5.7-3.1-11.2-2.4-14.5l-3.8,5.3l3.2,2.3L16.9,25.9z"/>
						</g>
					</g>
					<g>
						<g>
							<g>
								
									<ellipse transform="matrix(0.9721 0.2344 -0.2344 0.9721 3.4593 -6.6693)" fill="#FFD15C" cx="29.8" cy="11.2" rx="1.1" ry="2"/>
							</g>
							<g>
								
									<ellipse transform="matrix(-0.9721 0.2344 -0.2344 -0.9721 38.5584 17.8479)" fill="#FFD15C" cx="18.2" cy="11.2" rx="1.1" ry="2"/>
							</g>
						</g>
						<path fill="#344A5E" d="M29.4,11.9c0.6-1.2,2.4-5.7,0.5-9.5c-2.3-4.4-9-1.6-9,0.3c0,0-2.4-0.9-3.3,2.3
							c-0.4,1.4-0.3,2.9,0.1,4.2c0.3,0.8,0.7,1.8,1,2.7H29.4z"/>
						<path fill="#FFD15C" d="M28.9,6.5c-1,0.3-3.4,0.4-3.4,0.4c0.9,0,2.6-0.6,3.1-0.8c0,0,0,0,0,0c-5.3,1.1-8.5-0.3-9-0.5
							c-0.9,1.3-1.5,3.1-1.5,5c0,4.1,2.6,7.5,5.8,7.5c3.2,0,5.8-3.3,5.8-7.5C29.8,9,29.5,7.7,28.9,6.5z"/>
					</g>
					<path fill="none" stroke="#F7B64C" stroke-width="0.25" stroke-miterlimit="10" d="M27.6,16.3"/>
				</g>
			</g>
		</g>
	</g>
</g>
</svg>
