<?xml version="1.0" encoding="utf-8"?>
<!-- Generator: Adobe Illustrator 18.0.0, SVG Export Plug-In . SVG Version: 6.00 Build 0)  -->
<!DOCTYPE svg PUBLIC "-//W3C//DTD SVG 1.1//EN" "http://www.w3.org/Graphics/SVG/1.1/DTD/svg11.dtd">
<svg version="1.1" id="Layer_1" xmlns="http://www.w3.org/2000/svg" xmlns:xlink="http://www.w3.org/1999/xlink" x="0px" y="0px"
	 viewBox="0 0 48 48" enable-background="new 0 0 48 48" xml:space="preserve">
<g>
	<g>
		<path fill="#435B6C" d="M45,3.7H3c-1.7,0-3,1.3-3,3v34.5c0,1.7,1.3,3,3,3h42c1.7,0,3-1.3,3-3V6.7C48,5.1,46.7,3.7,45,3.7z"/>
		<rect x="4" y="7.7" fill="#FFD15D" width="40" height="28.9"/>
		<path fill="#FFFFFF" d="M44,23.1H28.8L26.7,10h-5.3l-1.6,9.9c-3.1-0.1-9,1.1-15.7,8.6v2.4c2.8-3.6,5.3-5.9,7.5-7.2l-1.6,13h1.9
			l1.5-14c2.5-1.2,4.7-1.3,6.1-1.2L17,36.7H31l-1.9-11.7H44V23.1z"/>
		<g>
			<rect x="4" y="7.7" fill="#57C0EC" width="40" height="9.5"/>
		</g>
		<circle fill="#354B5E" cx="24" cy="40.5" r="2.1"/>
		<g>
			<polygon fill="#F3705B" points="29,32.7 24,29.5 19,32.7 24,21.1 			"/>
		</g>
	</g>
</g>
</svg>
