<?xml version="1.0" encoding="utf-8"?>
<!-- Generator: Adobe Illustrator 18.0.0, SVG Export Plug-In . SVG Version: 6.00 Build 0)  -->
<!DOCTYPE svg PUBLIC "-//W3C//DTD SVG 1.1//EN" "http://www.w3.org/Graphics/SVG/1.1/DTD/svg11.dtd">
<svg version="1.1" id="Layer_1" xmlns="http://www.w3.org/2000/svg" xmlns:xlink="http://www.w3.org/1999/xlink" x="0px" y="0px"
	 viewBox="0 0 48 48" enable-background="new 0 0 48 48" xml:space="preserve">
<g>
	<g>
		<polygon fill="#FFD15C" points="16,8 13.8,9.6 14.9,12 12.3,12.3 12,14.9 9.6,13.8 8,16 6.4,13.8 4,14.9 3.7,12.3 1.1,12 2.2,9.6 
			0,8 2.2,6.4 1.1,4 3.7,3.7 4,1.1 6.4,2.2 8,0 9.6,2.2 12,1.1 12.3,3.7 14.9,4 13.8,6.4 		"/>
		<circle fill="#F8B64C" cx="8" cy="8" r="4.4"/>
	</g>
	<g>
		<rect x="23.8" y="31.4" fill="#ACB3BA" width="8.4" height="13.6"/>
		<path fill="#CDD6E0" d="M35.6,48H20.4c-0.7,0-1.3-0.6-1.3-1.3v-0.4c0-0.7,0.6-1.3,1.3-1.3h15.2c0.7,0,1.3,0.6,1.3,1.3v0.4
			C36.9,47.4,36.3,48,35.6,48z"/>
		<path fill="#F2F2F2" d="M47.9,38l-4.7-21C43,16,42,15.3,40.8,15.3l-27.6,0.1c-1.1,0-2.2,0.8-2.4,1.7L6.4,38.2
			C6,39.8,7,41.1,8.5,41.1l37.2-0.2C47.3,40.9,48.3,39.6,47.9,38z"/>
		<polygon fill="#84DBFF" points="21.3,25.1 12.6,25.2 13.8,18 21.8,17.9 		"/>
		<polygon fill="#54C0EB" points="12.6,25.2 13.8,18 21.8,17.9 		"/>
		<polygon fill="#84DBFF" points="31.5,25.1 22.8,25.1 23.1,17.9 31.1,17.9 		"/>
		<polygon fill="#84DBFF" points="41.5,25 32.8,25.1 32.3,17.9 40.2,17.8 		"/>
		<polygon fill="#84DBFF" points="20.6,36.7 10.7,36.8 12.2,27.5 21.2,27.5 		"/>
		<polygon fill="#84DBFF" points="32.2,36.7 22.2,36.7 22.7,27.5 31.6,27.4 		"/>
		<polygon fill="#84DBFF" points="43.6,36.6 33.7,36.7 33,27.4 42,27.4 		"/>
		<polygon fill="#54C0EB" points="22.8,25.1 23.1,17.9 31.1,17.9 		"/>
		<polygon fill="#54C0EB" points="32.8,25.1 32.3,17.9 40.2,17.8 		"/>
		<polygon fill="#54C0EB" points="10.7,36.8 12.2,27.5 21.2,27.5 		"/>
		<polygon fill="#54C0EB" points="22.2,36.7 22.7,27.5 31.6,27.4 		"/>
		<polygon fill="#54C0EB" points="33.7,36.7 33,27.4 42,27.4 		"/>
		<rect x="23.8" y="41" fill="#9CABB5" width="8.4" height="1.1"/>
	</g>
</g>
</svg>
