<?xml version="1.0" encoding="utf-8"?>
<!-- Generator: Adobe Illustrator 16.0.0, SVG Export Plug-In . SVG Version: 6.00 Build 0)  -->
<!DOCTYPE svg PUBLIC "-//W3C//DTD SVG 1.1//EN" "http://www.w3.org/Graphics/SVG/1.1/DTD/svg11.dtd">
<svg version="1.1" id="Layer_1" xmlns="http://www.w3.org/2000/svg" xmlns:xlink="http://www.w3.org/1999/xlink" x="0px" y="0px"
	 width="48px" height="48px" viewBox="0 0 48 48" enable-background="new 0 0 48 48" xml:space="preserve">
<g>
	<path fill="#FFD15C" d="M46.822,25.323v5.114c0,0.602-0.488,1.085-1.086,1.085h-4.201c0-0.798-0.186-1.553-0.521-2.226
		c-0.826-1.667-2.541-2.817-4.521-2.817c-1.982,0-3.697,1.15-4.523,2.817c-0.336,0.673-0.52,1.428-0.52,2.226H14.934
		c0-0.798-0.184-1.553-0.52-2.226c-0.826-1.667-2.541-2.817-4.523-2.817c-1.986,0-3.701,1.15-4.521,2.817
		c-0.336,0.673-0.521,1.428-0.521,2.226H2.264c-0.602,0-1.086-0.483-1.086-1.085v-7.178c0-0.51,0.348-0.949,0.842-1.058l5.516-1.563
		c0.232-0.055,0.439-0.186,0.592-0.364l4.842-5.787c0.207-0.249,0.51-0.39,0.832-0.39h14.156c0.266,0,0.521,0.097,0.723,0.271
		l7.525,6.693c0.123,0.104,0.266,0.185,0.418,0.228l9.418,2.992C46.502,24.416,46.822,24.839,46.822,25.323"/>
	<path fill="#F8B64C" d="M5.369,29.296c-0.338,0.673-0.521,1.428-0.521,2.226H1.113C0.5,31.522,0,31.022,0,30.41
		c0-0.311,0.125-0.586,0.326-0.787s0.482-0.326,0.787-0.326H5.369z"/>
	<path fill="#F8B64C" d="M31.969,29.296c-0.336,0.673-0.52,1.428-0.52,2.226H14.934c0-0.798-0.184-1.553-0.52-2.226H31.969z"/>
	<path fill="#F8B64C" d="M48,30.41c0,0.304-0.125,0.586-0.326,0.786c-0.201,0.201-0.482,0.326-0.787,0.326h-5.352
		c0-0.798-0.186-1.553-0.521-2.226h5.873C47.502,29.296,48,29.791,48,30.41"/>
	<polygon fill="#FF7058" points="19.039,14.095 19.479,12.518 22.41,12.518 22.852,14.095 	"/>
	<path fill="#F2F2F2" d="M46.822,28.378h-2.285c-0.574,0-1.037-0.464-1.037-1.037v-0.806c0-0.572,0.463-1.036,1.037-1.036h2.285
		V28.378z"/>
	<rect x="1.178" y="23.799" fill="#F2F2F2" width="2.379" height="2.067"/>
	<polygon fill="#54C0EB" points="34.33,21.57 27.752,15.723 22.51,15.723 22.51,21.57 	"/>
	<polygon fill="#54C0EB" points="14.055,15.723 9.166,21.571 20.443,21.571 20.443,15.723 	"/>
	<polygon fill="#54C0EB" points="34.33,21.572 22.508,21.572 22.508,15.724 27.752,15.724 28.186,16.111 28.994,16.833 	"/>
	<polygon fill="#54C0EB" points="20.445,15.725 20.445,21.572 9.164,21.572 14.055,15.725 	"/>
	<rect x="1.178" y="26.533" fill="#FF7058" width="2.379" height="1.033"/>
	<path fill="#40596B" d="M12.652,22.997h-2.375c-0.301,0-0.543,0.243-0.543,0.543s0.242,0.543,0.543,0.543h2.375
		c0.301,0,0.543-0.243,0.543-0.543S12.953,22.997,12.652,22.997"/>
	<path fill="#40596B" d="M24.645,22.997H22.27c-0.301,0-0.543,0.243-0.543,0.543s0.242,0.543,0.543,0.543h2.375
		c0.301,0,0.543-0.243,0.543-0.543S24.945,22.997,24.645,22.997"/>
	<path fill="#40596B" d="M13.848,31.524c0,2.186-1.773,3.958-3.959,3.958s-3.957-1.772-3.957-3.958c0-2.187,1.771-3.958,3.957-3.958
		S13.848,29.337,13.848,31.524"/>
	<path fill="#40596B" d="M40.449,31.524c0,2.186-1.771,3.958-3.957,3.958s-3.957-1.772-3.957-3.958c0-2.187,1.771-3.958,3.957-3.958
		S40.449,29.337,40.449,31.524"/>
	<path fill="#CDD6E0" d="M12.119,31.524c0,1.23-0.998,2.229-2.23,2.229c-1.23,0-2.23-0.999-2.23-2.229c0-1.231,1-2.23,2.23-2.23
		C11.121,29.293,12.119,30.292,12.119,31.524"/>
	<path fill="#CDD6E0" d="M38.721,31.524c0,1.23-0.998,2.229-2.229,2.229c-1.232,0-2.23-0.999-2.23-2.229
		c0-1.231,0.998-2.23,2.23-2.23C37.723,29.293,38.721,30.292,38.721,31.524"/>
	<rect x="15.307" y="26.939" fill="#FFFFFF" width="1.449" height="1.448"/>
	<rect x="16.756" y="25.49" fill="#FFFFFF" width="1.449" height="1.449"/>
	<rect x="18.205" y="26.939" fill="#FFFFFF" width="1.447" height="1.448"/>
	<rect x="19.652" y="25.49" fill="#FFFFFF" width="1.449" height="1.449"/>
	<rect x="21.102" y="26.939" fill="#FFFFFF" width="1.449" height="1.448"/>
	<rect x="22.551" y="25.49" fill="#FFFFFF" width="1.449" height="1.449"/>
	<rect x="24" y="26.939" fill="#FFFFFF" width="1.449" height="1.448"/>
	<rect x="25.449" y="25.49" fill="#FFFFFF" width="1.449" height="1.449"/>
	<rect x="26.898" y="26.939" fill="#FFFFFF" width="1.449" height="1.448"/>
	<rect x="28.348" y="25.49" fill="#FFFFFF" width="1.449" height="1.449"/>
	<rect x="29.797" y="26.939" fill="#FFFFFF" width="1.449" height="1.448"/>
	<polygon fill="#84DBFF" points="16.688,15.725 10.84,21.572 10.07,21.572 15.916,15.725 	"/>
	<polygon fill="#84DBFF" points="19.723,15.725 13.881,21.572 12.34,21.572 18.191,15.725 	"/>
	<polygon fill="#84DBFF" points="27.072,15.725 22.508,20.291 22.508,19.52 26.303,15.725 	"/>
	<polygon fill="#84DBFF" points="28.994,16.833 24.26,21.571 22.725,21.571 28.186,16.11 	"/>
</g>
</svg>
