<?xml version="1.0" encoding="utf-8"?>
<!-- Generator: Adobe Illustrator 18.0.0, SVG Export Plug-In . SVG Version: 6.00 Build 0)  -->
<!DOCTYPE svg PUBLIC "-//W3C//DTD SVG 1.1//EN" "http://www.w3.org/Graphics/SVG/1.1/DTD/svg11.dtd">
<svg version="1.1" id="Layer_1" xmlns="http://www.w3.org/2000/svg" xmlns:xlink="http://www.w3.org/1999/xlink" x="0px" y="0px"
	 viewBox="0 0 48 48" enable-background="new 0 0 48 48" xml:space="preserve">
<g>
	<g>
		<path fill="#F2F2F2" d="M19.1,36l-0.5,1.1c-0.8,1.8-2.6,3-4.5,3H2.2c-0.9,0-1.6,0.6-1.8,1.4c-0.6,2.1-1,5.9,3.2,6.2
			c2.9,0.1,6.3-0.2,9-0.5c2.9-0.4,5.4-2.3,6.6-5l2.6-6.2H19.1z"/>
		<g>
			<g>
				<polygon fill="#40596B" points="34.4,0.3 18.9,36.5 21.6,36.5 37.1,0.3 				"/>
			</g>
		</g>
	</g>
	<g>
		<path fill="#F2F2F2" d="M47.6,41.5c-0.2-0.8-1-1.4-1.8-1.4H33.9c-2,0-3.7-1.2-4.5-3L28.9,36h-2.7l2.6,6.2c1.2,2.7,3.7,4.6,6.6,5
			c2.7,0.4,6.1,0.7,9,0.5C48.7,47.4,48.2,43.6,47.6,41.5z"/>
		<g>
			<g>
				<polygon fill="#334A5E" points="13,0.3 28.5,36.5 25.8,36.5 10.3,0.3 				"/>
			</g>
		</g>
	</g>
</g>
</svg>
