<?xml version="1.0" encoding="utf-8"?>
<!-- Generator: Adobe Illustrator 18.0.0, SVG Export Plug-In . SVG Version: 6.00 Build 0)  -->
<!DOCTYPE svg PUBLIC "-//W3C//DTD SVG 1.1//EN" "http://www.w3.org/Graphics/SVG/1.1/DTD/svg11.dtd">
<svg version="1.1" id="Layer_1" xmlns="http://www.w3.org/2000/svg" xmlns:xlink="http://www.w3.org/1999/xlink" x="0px" y="0px"
	 viewBox="0 0 48 48" enable-background="new 0 0 48 48" xml:space="preserve">
<g>
	<g>
		<path fill="#8AD7F8" d="M39,5.4H9c-1.6,0-2.9,1.3-2.9,2.9v36.8C6.1,46.7,7.4,48,9,48h30c1.6,0,2.9-1.3,2.9-2.9V8.3
			C41.9,6.7,40.6,5.4,39,5.4z"/>
		<rect x="10" y="9.3" fill="#F3F3F3" width="28" height="34.8"/>
		<g>
			<path fill="#415A6B" d="M27.7,3.7C27.7,1.6,26,0,24,0c-2,0-3.7,1.6-3.7,3.7h-2.1c-1.1,0-1.9,0.9-1.9,1.9V11h15.5V5.6
				c0-1.1-0.9-1.9-1.9-1.9H27.7z M24,4.7c-0.6,0-1-0.4-1-1c0-0.5,0.4-1,1-1c0.5,0,1,0.4,1,1C25,4.2,24.6,4.7,24,4.7z"/>
		</g>
		<g>
			<polygon fill="#F3705A" points="32.7,20.7 24,13.1 15.3,20.7 			"/>
			<g>
				<rect x="17.8" y="20.7" fill="#FFD15C" width="12.4" height="8.5"/>
			</g>
			<g>
				<rect x="22.1" y="24.5" fill="#415A6B" width="3.8" height="4.7"/>
			</g>
		</g>
		<g>
			<g>
				<polygon fill="#ADB3BA" points="34.6,29.2 33.4,33.6 32.4,32.6 24.7,40.3 20.1,35.7 14.5,41.3 13.4,40.2 20.1,33.4 24.7,38 
					31.2,31.4 30.2,30.4 				"/>
			</g>
		</g>
	</g>
</g>
</svg>
