<?xml version="1.0" encoding="utf-8"?>
<!-- Generator: Adobe Illustrator 18.0.0, SVG Export Plug-In . SVG Version: 6.00 Build 0)  -->
<!DOCTYPE svg PUBLIC "-//W3C//DTD SVG 1.1//EN" "http://www.w3.org/Graphics/SVG/1.1/DTD/svg11.dtd">
<svg version="1.1" id="Layer_1" xmlns="http://www.w3.org/2000/svg" xmlns:xlink="http://www.w3.org/1999/xlink" x="0px" y="0px"
	 viewBox="0 0 48 48" enable-background="new 0 0 48 48" xml:space="preserve">
<g>
	<g>
		<g>
			<g>
				<g>
					<g>
						<path fill="#F3F3F3" d="M45,41.7c-8.4,0.5-21.1-15.3-21.1-15.3l0.9-0.9c0,0,23.5,6.3,23.3,13.1C48,40.2,46.2,41.6,45,41.7z"/>
					</g>
					<g>
						<path fill="#F3F3F3" d="M6.3,3c-0.5,8.4,15.3,21.1,15.3,21.1l0.9-0.9c0,0-6.3-23.5-13.1-23.3C7.8,0,6.4,1.8,6.3,3z"/>
					</g>
				</g>
				<g>
					<g>
						<path fill="#F3F3F3" d="M34.4,44.6c0.4-6.7-12.2-16.9-12.2-16.9l-0.7,0.7c0,0,5,18.8,10.5,18.6C33.2,47,34.3,45.6,34.4,44.6z"
							/>
					</g>
					<g>
						<path fill="#F3F3F3" d="M3.4,13.6c6.7-0.4,16.9,12.2,16.9,12.2l-0.7,0.7c0,0-18.8-5-18.6-10.5C1,14.8,2.4,13.7,3.4,13.6z"/>
					</g>
				</g>
			</g>
			<g>
				<path fill="#FFD15C" d="M18,33.9C11.4,40.4,0.6,48.6,0,48C-0.6,47.4,7.6,36.6,14.1,30s9-6.4,9.6-5.8
					C24.4,24.9,24.5,27.4,18,33.9z"/>
			</g>
			<circle fill="#415A6B" cx="26.8" cy="21.2" r="3.8"/>
			<g>
				<g>
					<circle fill="#344A5E" cx="25.8" cy="18.1" r="1.5"/>
				</g>
				<g>
					<ellipse fill="#FFFFFF" cx="25.8" cy="17.2" rx="0.4" ry="0.2"/>
				</g>
			</g>
			<g>
				<g>
					<circle fill="#344A5E" cx="29.9" cy="22.2" r="1.5"/>
				</g>
				<g>
					<ellipse fill="#FFFFFF" cx="30.8" cy="22.2" rx="0.2" ry="0.4"/>
				</g>
			</g>
			<g>
				<g>
					
						<ellipse transform="matrix(0.7071 0.7071 -0.7071 0.7071 24.8582 -7.8696)" fill="#344A5E" cx="21.9" cy="26.1" rx="3.8" ry="5.2"/>
				</g>
			</g>
		</g>
		<path fill="#F7B64C" d="M2.5,43.7c-0.1,0.1-0.1,0.2-0.2,0.3c0,0.4,0.1,0.9,0.5,1.2c0.3,0.3,0.8,0.5,1.2,0.5
			c0.1-0.1,0.2-0.1,0.3-0.2c-0.4-0.1-0.9-0.2-1.2-0.6C2.7,44.6,2.6,44.2,2.5,43.7z"/>
		<path fill="#F7B64C" d="M5.7,42.3c-0.5-0.5-0.7-1.1-0.8-1.7c-0.1,0.1-0.1,0.2-0.2,0.3c-0.1,0.7,0.1,1.3,0.6,1.9
			c0.5,0.5,1.2,0.7,1.9,0.6c0.1-0.1,0.2-0.1,0.3-0.2C6.8,43,6.2,42.8,5.7,42.3z"/>
		<path fill="#F7B64C" d="M8.4,39.6c-0.6-0.6-0.9-1.4-1-2.2c0,0.1-0.1,0.1-0.1,0.2c-0.2,0.9,0,1.8,0.6,2.5c0.7,0.7,1.6,0.9,2.5,0.6
			c0.1,0,0.1-0.1,0.2-0.1C9.8,40.5,9,40.2,8.4,39.6z"/>
		<path fill="#F7B64C" d="M11.1,36.9c-0.7-0.7-1-1.5-1.1-2.4c-0.1,0.1-0.1,0.1-0.2,0.2c-0.2,1,0,2,0.8,2.8c0.8,0.8,1.8,1,2.8,0.8
			c0.1-0.1,0.1-0.1,0.2-0.2C12.6,38,11.7,37.6,11.1,36.9z"/>
		<path fill="#F7B64C" d="M13.7,34.3c-0.7-0.7-1.1-1.6-1.2-2.5c-0.1,0.1-0.1,0.1-0.2,0.2c-0.2,1,0.1,2.1,0.9,2.9
			c0.8,0.8,1.9,1.1,2.9,0.9c0.1-0.1,0.1-0.1,0.2-0.2C15.3,35.4,14.4,35,13.7,34.3z"/>
		<path fill="#F7B64C" d="M15.2,28.9c0,0-0.1,0.1-0.1,0.1c-0.3,1.1-0.1,2.3,0.7,3.1c0.8,0.8,2,1.1,3.1,0.7c0,0,0.1-0.1,0.1-0.1
			c-1-0.1-1.9-0.5-2.6-1.2C15.7,30.9,15.3,29.9,15.2,28.9z"/>
	</g>
</g>
</svg>
