<?xml version="1.0" encoding="utf-8"?>
<!-- Generator: Adobe Illustrator 18.0.0, SVG Export Plug-In . SVG Version: 6.00 Build 0)  -->
<!DOCTYPE svg PUBLIC "-//W3C//DTD SVG 1.1//EN" "http://www.w3.org/Graphics/SVG/1.1/DTD/svg11.dtd">
<svg version="1.1" id="Layer_1" xmlns="http://www.w3.org/2000/svg" xmlns:xlink="http://www.w3.org/1999/xlink" x="0px" y="0px"
	 viewBox="0 0 48 48" enable-background="new 0 0 48 48" xml:space="preserve">
<g>
	<path fill="#F2F2F2" d="M16.2,15.5v18.6h-3.1c-0.5-2.2-2.4-3.8-4.8-3.8c-2.3,0-4.3,1.6-4.8,3.8H1v-8.4c0-0.4,0.1-0.8,0.3-1.1
		l5.5-8.3c0.4-0.6,1-0.9,1.7-0.9H16.2z"/>
	<polygon fill="#84DBFF" points="14.2,23.5 14.2,17.5 8.5,17.5 4.5,23.5 	"/>
	<path fill="#F2F2F2" d="M47,11v23.1h-2.6c-0.5-2.2-2.4-3.8-4.8-3.8c-2.3,0-4.3,1.6-4.8,3.8H16.2V11c0-1.1,0.9-2,2-2H45
		C46.1,9,47,9.9,47,11z"/>
	<path fill="#40596B" d="M3.5,34.1H1c-0.6,0-1,0.5-1,1c0,0.6,0.5,1,1,1h2.5c-0.1-0.3-0.1-0.7-0.1-1C3.4,34.8,3.5,34.5,3.5,34.1z"/>
	<path fill="#40596B" d="M34.9,34.1H13.1c0.1,0.3,0.1,0.7,0.1,1c0,0.4,0,0.7-0.1,1h21.8c-0.1-0.3-0.1-0.7-0.1-1
		C34.8,34.8,34.8,34.5,34.9,34.1z"/>
	<path fill="#40596B" d="M47,34.1h-2.5c0.1,0.3,0.1,0.7,0.1,1c0,0.4,0,0.7-0.1,1H47c0.6,0,1-0.5,1-1C48,34.6,47.5,34.1,47,34.1z"/>
	<circle fill="#40596B" cx="8.3" cy="35.2" r="3.8"/>
	<path fill="#FF7058" d="M13.5,15.5H11V15c0-0.7,0.6-1.2,1.2-1.2l0,0c0.7,0,1.2,0.6,1.2,1.2V15.5z"/>
	<g>
		<path fill="#FF7058" d="M12.3,11.6c-0.1,0-0.2,0.1-0.2,0.2V13c0,0.1,0.1,0.2,0.2,0.2c0.1,0,0.2-0.1,0.2-0.2v-1.2
			C12.4,11.7,12.4,11.6,12.3,11.6z"/>
		<path fill="#FF7058" d="M12.3,11.6c-0.1,0-0.2,0.1-0.2,0.2V13c0,0.1,0.1,0.2,0.2,0.2c0.1,0,0.2-0.1,0.2-0.2v-1.2
			C12.4,11.7,12.4,11.6,12.3,11.6z"/>
		<path fill="#FF7058" d="M14.3,12.3c-0.1-0.1-0.2-0.1-0.3,0l-0.8,0.8c-0.1,0.1-0.1,0.2,0,0.3c0.1,0.1,0.2,0.1,0.3,0l0.8-0.8
			C14.3,12.5,14.3,12.4,14.3,12.3z"/>
		<path fill="#FF7058" d="M10.3,12.3c0.1-0.1,0.2-0.1,0.3,0l0.8,0.8c0.1,0.1,0.1,0.2,0,0.3c-0.1,0.1-0.2,0.1-0.3,0l-0.8-0.8
			C10.2,12.5,10.2,12.4,10.3,12.3z"/>
	</g>
	<circle fill="#40596B" cx="39.7" cy="35.2" r="3.8"/>
	<circle fill="#FFFFFF" cx="39.7" cy="35.2" r="1.1"/>
	<circle fill="#FFFFFF" cx="8.3" cy="35.2" r="1.1"/>
	<rect x="1" y="27" fill="#FF7058" width="46" height="2.3"/>
	<rect x="27" y="11" fill="#84DBFF" width="9.1" height="9.1"/>
	<rect x="37.7" y="11" fill="#84DBFF" width="7.3" height="9.1"/>
	<rect x="18.2" y="11" fill="#84DBFF" width="7.3" height="9.1"/>
</g>
</svg>
