<?xml version="1.0" encoding="utf-8"?>
<!-- Generator: Adobe Illustrator 18.0.0, SVG Export Plug-In . SVG Version: 6.00 Build 0)  -->
<!DOCTYPE svg PUBLIC "-//W3C//DTD SVG 1.1//EN" "http://www.w3.org/Graphics/SVG/1.1/DTD/svg11.dtd">
<svg version="1.1" id="Layer_1" xmlns="http://www.w3.org/2000/svg" xmlns:xlink="http://www.w3.org/1999/xlink" x="0px" y="0px"
	 viewBox="0 0 512 512" enable-background="new 0 0 512 512" xml:space="preserve">
<g>
	<path fill="#F2705B" d="M49.1,2C37.5,2,28,11.5,28,23.2v465.7c0,11.7,9.5,21.2,21.2,21.2h93.6V2H49.1z"/>
	<path fill="#F2F2F2" d="M142.7,2v508h287.5c11.7,0,21.2-9.5,21.2-21.2V23.2c0-11.7-9.5-21.2-21.2-21.2H142.7z"/>
	<path fill="#89D6F7" d="M472.7,47.7h-21.4v81.7h21.4c6.3,0,11.3-5,11.3-11.3V59C484,52.8,479,47.7,472.7,47.7z"/>
	<path fill="#CDD5DF" d="M472.7,136.4h-21.4v81.7h21.4c6.3,0,11.3-5.1,11.3-11.3v-59.2C484,141.4,479,136.4,472.7,136.4z"/>
	<path fill="#FFD05C" d="M472.7,225h-21.4v81.7h21.4c6.3,0,11.3-5,11.3-11.3v-59.2C484,230.1,479,225,472.7,225z"/>
	<rect x="451.3" y="47.7" fill="#55BFE9" width="11.3" height="81.7"/>
	<rect x="451.3" y="136.4" fill="#ABB2B9" width="11.3" height="81.7"/>
	<rect x="451.3" y="225" fill="#F6B44B" width="11.3" height="81.7"/>
	<g>
		<rect x="186.5" y="414.8" fill="#89D6F7" width="221.1" height="26.4"/>
		<rect x="186.5" y="348.3" fill="#89D6F7" width="221.1" height="26.4"/>
		<rect x="186.5" y="281.9" fill="#89D6F7" width="221.1" height="26.4"/>
	</g>
</g>
</svg>
