<?xml version="1.0" encoding="utf-8"?>
<!-- Generator: Adobe Illustrator 18.0.0, SVG Export Plug-In . SVG Version: 6.00 Build 0)  -->
<!DOCTYPE svg PUBLIC "-//W3C//DTD SVG 1.1//EN" "http://www.w3.org/Graphics/SVG/1.1/DTD/svg11.dtd">
<svg version="1.1" id="Layer_1" xmlns="http://www.w3.org/2000/svg" xmlns:xlink="http://www.w3.org/1999/xlink" x="0px" y="0px"
	 viewBox="0 0 48 48" enable-background="new 0 0 48 48" xml:space="preserve">
<g>
	<circle fill="#F2F2F2" cx="24" cy="24" r="18.5"/>
	<path fill="#CDD6E0" d="M48,22h-3.5c-1-9.8-8.7-17.6-18.5-18.5V0H22v3.5C12.2,4.4,4.4,12.2,3.5,22H0V26h3.5
		c1,9.8,8.7,17.6,18.5,18.5V48H26v-3.5c9.8-1,17.6-8.7,18.5-18.5H48V22z M26,40.5v-3H22v3C14.4,39.6,8.4,33.6,7.5,26h3V22h-3
		C8.4,14.4,14.4,8.4,22,7.5v3H26v-3c7.6,0.9,13.6,6.9,14.5,14.5h-3V26h3C39.6,33.6,33.6,39.6,26,40.5z"/>
	<g>
		<circle fill="#FFD15C" cx="24" cy="24" r="11"/>
		<circle fill="#F8B64C" cx="24" cy="24" r="9"/>
		<path fill="#FFD15C" d="M23.5,28.7c-1.4-0.1-2.5-0.7-3.3-1.4l1.1-1.5c0.5,0.5,1.3,1,2.2,1.2v-2.1c-1.4-0.3-3-0.9-3-2.8
			c0-1.4,1.1-2.6,3-2.8V18h1.3v1.3c1.1,0.1,2.1,0.5,2.8,1.2L26.5,22c-0.5-0.5-1.1-0.7-1.7-0.9V23c1.4,0.4,3,0.9,3,2.8
			c0,1.5-1,2.7-3,2.9V30h-1.3V28.7z M23.5,22.7V21c-0.6,0.1-0.9,0.4-0.9,0.9C22.5,22.3,22.9,22.5,23.5,22.7z M24.8,25.1V27
			c0.7-0.1,1-0.5,1-1C25.8,25.6,25.4,25.3,24.8,25.1z"/>
	</g>
</g>
</svg>
