<?xml version="1.0" encoding="utf-8"?>
<!-- Generator: Adobe Illustrator 18.0.0, SVG Export Plug-In . SVG Version: 6.00 Build 0)  -->
<!DOCTYPE svg PUBLIC "-//W3C//DTD SVG 1.1//EN" "http://www.w3.org/Graphics/SVG/1.1/DTD/svg11.dtd">
<svg version="1.1" id="Layer_1" xmlns="http://www.w3.org/2000/svg" xmlns:xlink="http://www.w3.org/1999/xlink" x="0px" y="0px"
	 viewBox="0 0 48 48" enable-background="new 0 0 48 48" xml:space="preserve">
<g>
	<g>
		<path fill="#F3F3F3" d="M43.8,7.6H11.9v1.5h31.9c1.5,0,2.7,1.2,2.7,2.7c0,1.5-1.2,2.7-2.7,2.7H24c-0.4,0-0.8,0.3-0.8,0.8v5h1.5
			v-4.2h19c2.3,0,4.2-1.9,4.2-4.2C48,9.5,46.1,7.6,43.8,7.6z"/>
		<g>
			<path fill="#F3F3F3" d="M45,43.3H3c-1.7,0-3-1.3-3-3V24.2c0-1.7,1.3-3,3-3h42c1.7,0,3,1.3,3,3v16.1C48,42,46.7,43.3,45,43.3z"/>
			<rect x="7.3" y="24.3" fill="#415A6B" width="3.1" height="3.1"/>
			<rect x="41.9" y="24.3" fill="#415A6B" width="3.1" height="3.1"/>
			<rect x="41.9" y="28.6" fill="#415A6B" width="3.1" height="3.1"/>
			<rect x="15.9" y="24.3" fill="#415A6B" width="3.2" height="3.1"/>
			<rect x="20.3" y="24.3" fill="#415A6B" width="3.1" height="3.1"/>
			<rect x="11.6" y="24.3" fill="#415A6B" width="3.1" height="3.1"/>
			<rect x="28.9" y="37.2" fill="#415A6B" width="3.2" height="3.1"/>
			<rect x="37.5" y="37.2" fill="#415A6B" width="3.1" height="3.1"/>
			<rect x="3" y="24.3" fill="#415A6B" width="3.1" height="3.1"/>
			<rect x="3" y="37.2" fill="#415A6B" width="3.1" height="3.1"/>
			<rect x="11.6" y="37.2" fill="#415A6B" width="16.1" height="3.1"/>
			<rect x="3" y="32.9" fill="#415A6B" width="3.1" height="3.1"/>
			<rect x="24.6" y="24.3" fill="#415A6B" width="3.1" height="3.1"/>
			<rect x="7.3" y="37.2" fill="#415A6B" width="3.1" height="3.1"/>
			<rect x="11.6" y="28.6" fill="#415A6B" width="3.1" height="3.1"/>
			<rect x="41.9" y="32.9" fill="#415A6B" width="3.1" height="3.1"/>
			<rect x="41.9" y="37.2" fill="#415A6B" width="3.1" height="3.1"/>
			<rect x="20.3" y="32.9" fill="#415A6B" width="3.1" height="3.1"/>
			<rect x="15.9" y="32.9" fill="#415A6B" width="3.2" height="3.1"/>
			<rect x="11.6" y="32.9" fill="#415A6B" width="3.1" height="3.1"/>
			<rect x="28.9" y="28.6" fill="#415A6B" width="3.2" height="3.1"/>
			<rect x="33.2" y="28.6" fill="#415A6B" width="3.1" height="3.1"/>
			<rect x="24.6" y="28.6" fill="#415A6B" width="3.1" height="3.1"/>
			<rect x="20.3" y="28.6" fill="#415A6B" width="3.1" height="3.1"/>
			<rect x="15.9" y="28.6" fill="#415A6B" width="3.2" height="3.1"/>
			<rect x="7.3" y="32.9" fill="#415A6B" width="3.1" height="3.1"/>
			<rect x="24.6" y="32.9" fill="#415A6B" width="3.1" height="3.1"/>
			<rect x="37.5" y="28.6" fill="#415A6B" width="3.1" height="3.1"/>
			<rect x="37.5" y="32.9" fill="#415A6B" width="3.1" height="3.1"/>
			<rect x="37.5" y="24.3" fill="#415A6B" width="3.1" height="3.1"/>
			<rect x="28.9" y="24.2" fill="#415A6B" width="7.5" height="3.2"/>
			<rect x="28.9" y="32.9" fill="#415A6B" width="3.2" height="3.1"/>
			<rect x="33.2" y="32.9" fill="#415A6B" width="3.1" height="7.4"/>
			<rect x="3" y="28.6" fill="#415A6B" width="7.5" height="3.1"/>
			<g>
				<rect x="22" y="19.7" fill="#CED6E0" width="4.2" height="1.5"/>
			</g>
		</g>
		<g>
			<g>
				<path fill="#415A6B" d="M11,12.1H5.1V4.7H11c0.9,0,1.6,0.7,1.6,1.6v4.3C12.6,11.4,11.9,12.1,11,12.1z"/>
			</g>
			<g>
				<rect x="0.3" y="5.6" fill="#F3F3F3" width="4.8" height="5.5"/>
			</g>
			<g>
				<g>
					<rect x="1.7" y="6.7" fill="#CED6E0" width="1.5" height="1"/>
				</g>
				<g>
					<rect x="1.7" y="9" fill="#CED6E0" width="1.5" height="1"/>
				</g>
			</g>
		</g>
	</g>
</g>
</svg>
