<?xml version="1.0" encoding="utf-8"?>
<!-- Generator: Adobe Illustrator 18.0.0, SVG Export Plug-In . SVG Version: 6.00 Build 0)  -->
<!DOCTYPE svg PUBLIC "-//W3C//DTD SVG 1.1//EN" "http://www.w3.org/Graphics/SVG/1.1/DTD/svg11.dtd">
<svg version="1.1" id="Layer_1" xmlns="http://www.w3.org/2000/svg" xmlns:xlink="http://www.w3.org/1999/xlink" x="0px" y="0px"
	 viewBox="0 0 48 48" enable-background="new 0 0 48 48" xml:space="preserve">
<g>
	<g>
		<polygon fill="#CDD6E0" points="48,40.4 34.9,40.4 31,31.5 33.7,30.3 36.9,37.4 48,37.4 		"/>
	</g>
	<path fill="#ACB3BA" d="M26,29.3c0.8,2.2,3.3,3.3,5.5,2.5l1.7-0.6c2.3-0.8,3.4-3.3,2.6-5.4L26,29.3z"/>
	<path fill="#CDD6E0" d="M46.6,24L16.6,34.9c-1,0.4-2.2-0.2-2.6-1.2L9,19.9c-0.4-1,0.2-2.2,1.2-2.6L40.2,6.4c1-0.4,2.2,0.2,2.6,1.2
		l5,13.8C48.2,22.5,47.6,23.6,46.6,24z"/>
	
		<rect x="9.1" y="21.7" transform="matrix(-0.9397 0.342 -0.342 -0.9397 29.3453 49.2897)" fill="#ACB3BA" width="2.4" height="11.1"/>
	<path fill="#CDD6E0" d="M0,22.7l5.3,14.5c0.2,0.7,1.1,0.8,1.6,0.3l4.2-4.8L7.3,22.5l-6.2-1C0.3,21.4-0.2,22.1,0,22.7z"/>
	
		<rect x="27.3" y="11.7" transform="matrix(0.9397 -0.342 0.342 0.9397 -2.5231 12.5598)" fill="#40596B" width="14.1" height="3.6"/>
	<circle fill="#4CDBC4" cx="36.2" cy="38.4" r="3.3"/>
	<circle fill="#FFFFFF" cx="36.2" cy="38.4" r="1.9"/>
</g>
</svg>
