<?xml version="1.0" encoding="utf-8"?>
<!-- Generator: Adobe Illustrator 16.0.0, SVG Export Plug-In . SVG Version: 6.00 Build 0)  -->
<!DOCTYPE svg PUBLIC "-//W3C//DTD SVG 1.1//EN" "http://www.w3.org/Graphics/SVG/1.1/DTD/svg11.dtd">
<svg version="1.1" id="Layer_1" xmlns="http://www.w3.org/2000/svg" xmlns:xlink="http://www.w3.org/1999/xlink" x="0px" y="0px"
	 width="48px" height="48px" viewBox="0 0 48 48" enable-background="new 0 0 48 48" xml:space="preserve">
<g>
	<rect x="20.906" y="-0.054" fill="#F2F2F2" width="27.094" height="40.469"/>
	<rect x="39.229" y="2.786" fill="#ACB3BA" width="5.217" height="17.952"/>
	<rect x="39.229" y="28.523" fill="#4CDBC4" width="5.217" height="9.051"/>
	<path fill="#40596B" d="M37.02,48.054H7.934c-1.105,0-2-0.895-2-2.001V10.051c0-1.105,0.895-2,2-2H37.02V48.054z"/>
	<path fill="#FFFFFF" d="M21.475,14.506c-4.811,0-8.725,3.915-8.725,8.727s3.914,8.726,8.725,8.726c4.813,0,8.727-3.914,8.727-8.726
		S26.287,14.506,21.475,14.506 M21.475,30.927c-1.055,0-2.154-1.34-2.789-3.56c0.873,0.142,1.809,0.221,2.789,0.221
		c0.982,0,1.918-0.078,2.789-0.221C23.631,29.587,22.531,30.927,21.475,30.927 M21.475,26.559c-1.111,0-2.133-0.104-3.047-0.278
		c-0.176-0.913-0.277-1.935-0.277-3.048s0.102-2.134,0.277-3.048c0.914-0.176,1.936-0.278,3.047-0.278
		c1.113,0,2.137,0.103,3.049,0.278c0.176,0.913,0.277,1.935,0.277,3.048s-0.102,2.135-0.277,3.048
		C23.611,26.455,22.588,26.559,21.475,26.559 M17.34,26.021c-2.219-0.634-3.559-1.734-3.559-2.789c0-1.056,1.34-2.156,3.559-2.789
		c-0.143,0.873-0.221,1.809-0.221,2.789C17.119,24.212,17.197,25.148,17.34,26.021 M21.475,15.537c1.057,0,2.156,1.34,2.789,3.561
		c-0.871-0.143-1.807-0.222-2.789-0.222c-0.98,0-1.916,0.079-2.789,0.222C19.32,16.877,20.42,15.537,21.475,15.537 M25.611,20.443
		c2.219,0.633,3.559,1.733,3.559,2.789c0,1.055-1.338,2.155-3.557,2.789c0.141-0.873,0.219-1.81,0.219-2.789
		C25.832,22.252,25.754,21.315,25.611,20.443 M28.781,20.83c-0.836-0.643-2.008-1.162-3.398-1.504
		c-0.342-1.392-0.861-2.562-1.504-3.4C26.189,16.689,28.02,18.519,28.781,20.83 M19.072,15.926c-0.643,0.839-1.162,2.009-1.502,3.4
		c-1.393,0.342-2.563,0.861-3.4,1.504C14.932,18.518,16.76,16.689,19.072,15.926 M14.17,25.634c0.838,0.644,2.008,1.162,3.396,1.504
		c0.342,1.391,0.859,2.56,1.5,3.398C16.758,29.772,14.932,27.945,14.17,25.634 M23.883,30.536c0.641-0.839,1.16-2.008,1.5-3.397
		c1.391-0.343,2.563-0.861,3.398-1.505C28.02,27.945,26.193,29.772,23.883,30.536"/>
	<path fill="#FFD15C" d="M12.539,42.717v2.232h-1.461v-6.481h2.287c1.635,0,2.449,0.688,2.449,2.065c0,0.651-0.232,1.177-0.701,1.58
		c-0.469,0.402-1.096,0.604-1.879,0.604H12.539z M12.539,39.589v2.021h0.574c0.777,0,1.166-0.341,1.166-1.021
		c0-0.666-0.389-0.999-1.166-0.999H12.539z"/>
	<path fill="#FFD15C" d="M21.752,44.949H20.16l-0.461-1.441h-2.307l-0.457,1.441h-1.58l2.359-6.481h1.73L21.752,44.949z
		 M19.365,42.387l-0.697-2.179c-0.051-0.163-0.088-0.357-0.109-0.583h-0.035c-0.016,0.189-0.053,0.378-0.113,0.564l-0.705,2.197
		H19.365z"/>
	<path fill="#FFD15C" d="M22.262,44.701v-1.447c0.262,0.221,0.547,0.386,0.854,0.495c0.309,0.11,0.619,0.165,0.934,0.165
		c0.182,0,0.344-0.016,0.48-0.049s0.252-0.079,0.344-0.138c0.092-0.06,0.16-0.128,0.205-0.208c0.047-0.08,0.068-0.167,0.068-0.261
		c0-0.127-0.037-0.239-0.107-0.339c-0.074-0.1-0.172-0.19-0.299-0.275c-0.125-0.084-0.271-0.166-0.443-0.244
		s-0.357-0.158-0.557-0.24c-0.506-0.211-0.885-0.468-1.133-0.772s-0.373-0.673-0.373-1.104c0-0.337,0.068-0.627,0.203-0.87
		c0.137-0.242,0.32-0.441,0.555-0.599s0.504-0.272,0.813-0.347c0.307-0.072,0.631-0.109,0.975-0.109c0.338,0,0.639,0.02,0.898,0.061
		c0.26,0.04,0.5,0.104,0.721,0.188v1.352c-0.107-0.075-0.227-0.142-0.355-0.199c-0.127-0.057-0.26-0.104-0.395-0.142
		c-0.137-0.038-0.271-0.066-0.406-0.084c-0.133-0.018-0.26-0.027-0.381-0.027c-0.166,0-0.316,0.017-0.453,0.048
		c-0.135,0.031-0.25,0.075-0.342,0.134c-0.094,0.057-0.166,0.126-0.217,0.205c-0.053,0.08-0.078,0.17-0.078,0.269
		c0,0.109,0.029,0.206,0.086,0.292c0.059,0.086,0.139,0.167,0.244,0.244s0.234,0.152,0.385,0.226c0.15,0.074,0.32,0.15,0.512,0.229
		c0.258,0.108,0.49,0.224,0.697,0.346s0.385,0.26,0.531,0.414c0.148,0.154,0.26,0.329,0.34,0.526
		c0.078,0.197,0.117,0.428,0.117,0.689c0,0.361-0.068,0.665-0.207,0.911c-0.137,0.245-0.322,0.444-0.557,0.596
		c-0.236,0.153-0.508,0.263-0.82,0.328c-0.313,0.066-0.643,0.101-0.988,0.101c-0.355,0-0.693-0.03-1.016-0.091
		C22.775,44.912,22.498,44.822,22.262,44.701"/>
	<path fill="#FFD15C" d="M27.451,44.701v-1.447c0.262,0.221,0.547,0.386,0.855,0.495c0.307,0.11,0.617,0.165,0.932,0.165
		c0.182,0,0.344-0.016,0.48-0.049s0.252-0.079,0.344-0.138c0.092-0.06,0.16-0.128,0.205-0.208c0.047-0.08,0.068-0.167,0.068-0.261
		c0-0.127-0.037-0.239-0.107-0.339c-0.074-0.1-0.172-0.19-0.297-0.275c-0.125-0.084-0.273-0.166-0.445-0.244
		s-0.357-0.158-0.557-0.24c-0.506-0.211-0.885-0.468-1.133-0.772s-0.373-0.673-0.373-1.104c0-0.337,0.068-0.627,0.203-0.87
		c0.137-0.242,0.322-0.441,0.555-0.599c0.234-0.157,0.504-0.272,0.813-0.347c0.307-0.072,0.631-0.109,0.977-0.109
		c0.338,0,0.637,0.02,0.896,0.061c0.26,0.04,0.5,0.104,0.721,0.188v1.352c-0.107-0.075-0.227-0.142-0.355-0.199
		c-0.127-0.057-0.258-0.104-0.395-0.142c-0.137-0.038-0.271-0.066-0.404-0.084c-0.135-0.018-0.262-0.027-0.383-0.027
		c-0.164,0-0.316,0.017-0.451,0.048c-0.137,0.031-0.25,0.075-0.344,0.134c-0.094,0.057-0.166,0.126-0.217,0.205
		c-0.051,0.08-0.078,0.17-0.078,0.269c0,0.109,0.029,0.206,0.086,0.292c0.059,0.086,0.139,0.167,0.244,0.244
		s0.234,0.152,0.385,0.226c0.15,0.074,0.32,0.15,0.512,0.229c0.258,0.108,0.492,0.224,0.697,0.346
		c0.207,0.122,0.385,0.26,0.531,0.414c0.148,0.154,0.262,0.329,0.34,0.526s0.117,0.428,0.117,0.689c0,0.361-0.068,0.665-0.207,0.911
		c-0.137,0.245-0.322,0.444-0.557,0.596c-0.236,0.153-0.508,0.263-0.82,0.328c-0.313,0.066-0.643,0.101-0.988,0.101
		c-0.355,0-0.693-0.03-1.016-0.091C27.965,44.912,27.688,44.822,27.451,44.701"/>
</g>
</svg>
