<?xml version="1.0" encoding="utf-8"?>
<!-- Generator: Adobe Illustrator 18.0.0, SVG Export Plug-In . SVG Version: 6.00 Build 0)  -->
<!DOCTYPE svg PUBLIC "-//W3C//DTD SVG 1.1//EN" "http://www.w3.org/Graphics/SVG/1.1/DTD/svg11.dtd">
<svg version="1.1" id="Layer_1" xmlns="http://www.w3.org/2000/svg" xmlns:xlink="http://www.w3.org/1999/xlink" x="0px" y="0px"
	 viewBox="0 0 48 48" enable-background="new 0 0 48 48" xml:space="preserve">
<g>
	<path fill="#F2F2F2" d="M38.5,0H9.5c-1.7,0-3,1.3-3,3v42c0,1.7,1.3,3,3,3h28.9c1.7,0,3-1.3,3-3V3C41.5,1.3,40.1,0,38.5,0z"/>
	<g>
		<g>
			<path fill="#FF7058" d="M15.9,25.3c0-4.7,6.6-5.9,8.1-10.5c1.5,4.7,8.1,5.9,8.1,10.5c0,2.6-2.1,4.7-4.7,4.7
				c-1.4,0-2.6-0.6-3.5-1.6c-0.8,1-2.1,1.6-3.5,1.6C17.9,30,15.9,27.9,15.9,25.3z"/>
		</g>
		<path fill="#FF7058" d="M27.5,33.2c-2-0.4-3.5-2.2-3.5-4.3c0,2.1-1.5,3.9-3.5,4.3H27.5z"/>
	</g>
	<g>
		<g>
			<path fill="#FF7058" d="M10,9c0-2.4,3.4-3.1,4.2-5.5c0.8,2.4,4.2,3.1,4.2,5.5c0,1.3-1.1,2.4-2.4,2.4c-0.7,0-1.4-0.3-1.8-0.8
				c-0.4,0.5-1.1,0.8-1.8,0.8C11.1,11.4,10,10.3,10,9z"/>
		</g>
		<path fill="#FF7058" d="M16.1,13.1c-1-0.2-1.8-1.1-1.8-2.3c0,1.1-0.8,2-1.8,2.3H16.1z"/>
	</g>
	<g>
		<g>
			<path fill="#FF7058" d="M38,39c0,2.4-3.4,3.1-4.2,5.5c-0.8-2.4-4.2-3.1-4.2-5.5c0-1.3,1.1-2.4,2.4-2.4c0.7,0,1.4,0.3,1.8,0.8
				c0.4-0.5,1.1-0.8,1.8-0.8C36.9,36.6,38,37.7,38,39z"/>
		</g>
		<path fill="#FF7058" d="M31.9,34.9c1,0.2,1.8,1.1,1.8,2.3c0-1.1,0.8-2,1.8-2.3H31.9z"/>
	</g>
</g>
</svg>
