<?xml version="1.0" encoding="utf-8"?>
<!-- Generator: Adobe Illustrator 16.0.0, SVG Export Plug-In . SVG Version: 6.00 Build 0)  -->
<!DOCTYPE svg PUBLIC "-//W3C//DTD SVG 1.1//EN" "http://www.w3.org/Graphics/SVG/1.1/DTD/svg11.dtd">
<svg version="1.1" id="Layer_1" xmlns="http://www.w3.org/2000/svg" xmlns:xlink="http://www.w3.org/1999/xlink" x="0px" y="0px"
	 width="48px" height="48px" viewBox="0 0 48 48" enable-background="new 0 0 48 48" xml:space="preserve">
<g>
	<path fill="#40596B" d="M47.815,42.164c0-3.781-2.381-7.16-5.93-8.43l-10.471-3.773l-0.004,0.004
		c-3.879,4.586-10.949,4.584-14.826-0.004L6.116,33.734c-3.551,1.27-5.932,4.648-5.932,8.43v5.84h47.631V42.164z"/>
	<polygon fill="#CDD6E0" points="19.819,39.85 24.001,33.402 28.188,39.85 24.003,47.611 	"/>
	<path fill="#F8B64C" d="M17.495,29.637c0.08,0.109,0.07,0.109-0.01,0H17.495z"/>
	<path fill="#F8B64C" d="M30.526,29.637c-0.08,0.109-0.09,0.109-0.012,0H30.526z"/>
	<rect x="30.515" y="29.629" fill="#F8B64C" width="0.012" height="0.012"/>
	<rect x="30.515" y="29.629" fill="#F8B64C" width="0.012" height="0.012"/>
	<path fill="#F8B64C" d="M17.485,17.063c0.146,1.674-0.666,3.113-1.816,3.215c-1.148,0.1-2.199-1.176-2.346-2.852
		s0.666-3.115,1.816-3.215C16.288,14.109,17.339,15.387,17.485,17.063"/>
	<path fill="#F8B64C" d="M34.69,17.426c-0.146,1.676-1.197,2.951-2.348,2.852c-1.148-0.102-1.961-1.541-1.814-3.215
		c0.146-1.678,1.197-2.953,2.346-2.854C34.024,14.311,34.837,15.75,34.69,17.426"/>
	<path fill="#FFD15C" d="M24.007,3.074c-5.338,0-9.664,4.328-9.664,9.664v2.902c0,0.74,0.045,1.48,0.139,2.213v0.004
		c0.457,3.754,2.074,7.271,4.627,10.063l0.914,1.004c0.842,0.924,2.033,1.449,3.281,1.449h1.4c1.248,0,2.439-0.525,3.281-1.447
		l0.92-1.006c2.553-2.791,4.17-6.313,4.631-10.066c0.092-0.736,0.135-1.473,0.135-2.213v-2.902
		C33.671,7.402,29.343,3.074,24.007,3.074z"/>
	<path fill="#F8B64C" d="M30.517,29.641v-0.01h0.01v-3.771h-0.002c-0.49,0.721-1.027,1.412-1.619,2.061l-0.92,1.006
		c-0.842,0.922-2.031,1.447-3.281,1.447h-1.4c-1.248,0-2.439-0.527-3.281-1.449l-0.914-1.004c-0.592-0.646-1.127-1.336-1.615-2.055
		c-0.002-0.002-0.006-0.002-0.008-0.006v3.771l-0.9,0.33c3.877,4.588,10.947,4.59,14.826,0.004l0.004-0.004l-0.889-0.32H30.517z"/>
	<g opacity="0.1">
		<g>
			<defs>
				<rect id="SVGID_19_" x="20.065" y="25.859" width="11.35" height="7.516"/>
			</defs>
			<clipPath id="SVGID_2_">
				<use xlink:href="#SVGID_19_"  overflow="visible"/>
			</clipPath>
			<path clip-path="url(#SVGID_2_)" fill="#40596B" d="M30.517,29.641v-0.01h0.01v-3.771c-0.002,0.002-0.006,0.006-0.008,0.01
				c-0.488,0.717-1.023,1.404-1.613,2.051l-0.92,1.006c-0.842,0.922-2.033,1.447-3.281,1.447h-1.4c-1.227,0-2.396-0.514-3.234-1.408
				c-0.002,0-0.006,0-0.006,0l4.443,4.412c2.564-0.133,5.086-1.262,6.904-3.412l0.002-0.002l0.002-0.002l-0.889-0.32H30.517z"/>
		</g>
	</g>
	<polygon fill="#F2F2F2" points="17.485,29.631 14.866,30.58 19.819,39.74 24.001,33.402 	"/>
	<polygon fill="#F2F2F2" points="30.522,29.631 33.142,30.58 28.188,39.74 24.007,33.402 	"/>
	<path fill="#40596B" d="M31.026,4.201H16.987c-1.43,1.174-2.721,2.924-3.455,5.537c0,0-1.389,6.35,0.83,8.016
		c0,0,0.834-0.111,0.555-1.914c0,0-0.266-0.65,0.023-1.326c0.393-0.918,0.574-1.91,0.773-2.889c0.305-1.508,1.004-3.248,2.604-3.309
		c0,0,4.057,0.52,5.691,0.52c1.631,0,5.688-0.52,5.688-0.52c1.607,0.061,2.307,1.811,2.611,3.322
		c0.193,0.967,0.359,1.953,0.758,2.855c0.303,0.684,0.031,1.346,0.031,1.346c-0.279,1.803,0.555,1.914,0.555,1.914
		c2.219-1.666,0.83-8.016,0.83-8.016C33.747,7.125,32.456,5.375,31.026,4.201"/>
	<polygon fill="#FF7058" points="26.718,37.52 24.001,33.402 21.284,37.52 22.644,38.879 21.284,48.006 26.718,48.006 
		25.358,38.879 	"/>
	<path fill="#3DC9AE" d="M35.55,29.148l-3.738-5.502l-1.287,2.213c-0.109,12.354-6.521,21.514-6.521,21.514v0.631h6.982
		l5.842-11.031l-3.686-4.311L35.55,29.148z"/>
	<path fill="#3DC9AE" d="M12.47,29.148l3.738-5.502l1.287,2.213c0.109,12.354,6.521,21.514,6.521,21.514v0.631h-6.982l-5.842-11.031
		l3.686-4.311L12.47,29.148z"/>
	<path fill="#40596B" d="M34.282,4.594c-0.598-2.766-3.117-4.68-5.928-4.596c-0.521,0.016-1.014,0.236-1.375,0.611
		c-0.01,0.01-0.02,0.02-0.029,0.029c-1.605,1.668-4.281,1.666-5.887,0l-0.029-0.031c-0.361-0.373-0.855-0.594-1.375-0.609
		c-2.809-0.086-5.33,1.83-5.928,4.596c-0.539,2.564-1.098,5.127-1.674,7.686c-0.094,1.152,0.867,2.17,2.146,2.25
		c6.529,0.416,13.076,0.416,19.605,0c1.279-0.078,2.24-1.096,2.146-2.25C35.38,9.721,34.821,7.158,34.282,4.594"/>
	<path fill="#40596B" d="M32.394,13.98c-0.168-1.08-1.855-1.072-1.855-1.072h-2.98c-2.328,0-2.871,0.977-2.996,1.504
		c-0.367-0.063-0.744-0.063-1.109,0c-0.125-0.527-0.668-1.504-2.996-1.504h-2.98c0,0-1.688-0.008-1.855,1.072
		c0,0-0.785,4.236,2.352,4.811c0,0,4.197,0.676,5.285-2.902c0.473-0.205,1.025-0.205,1.5,0c1.088,3.578,5.285,2.902,5.285,2.902
		C33.179,18.217,32.394,13.98,32.394,13.98"/>
	<path fill="#334A5E" d="M36.511,12.406h-25.01c-0.75,0-1.357,0.693-1.357,1.547s0.607,1.545,1.357,1.545h25.01
		c0.75,0,1.359-0.691,1.359-1.545S37.261,12.406,36.511,12.406"/>
</g>
</svg>
