<?xml version="1.0" encoding="utf-8"?>
<!-- Generator: Adobe Illustrator 20.1.0, SVG Export Plug-In . SVG Version: 6.00 Build 0)  -->
<!DOCTYPE svg PUBLIC "-//W3C//DTD SVG 1.1//EN" "http://www.w3.org/Graphics/SVG/1.1/DTD/svg11.dtd">
<svg version="1.1" id="Layer_1" xmlns="http://www.w3.org/2000/svg" xmlns:xlink="http://www.w3.org/1999/xlink" x="0px" y="0px"
	 viewBox="0 0 49 49" enable-background="new 0 0 49 49" xml:space="preserve">
<g>
	<path fill="#F2F2F2" d="M45.5,16.2v30.3c0,1.1-0.9,2-2,2h-38c-1.1,0-2-0.9-2-2V16.2H45.5z"/>
	<rect x="3.4" y="4.1" fill="#FFD15C" width="42.2" height="12.2"/>
	<path fill="#F8B64C" d="M45.6,4.1H3.4V0.7c0-0.1,0.1-0.2,0.2-0.2h41.8c0.1,0,0.2,0.1,0.2,0.2V4.1z"/>
	<polygon fill="#FF7058" points="9.4,16.3 3.4,16.3 0.5,22.9 7.4,22.9 	"/>
	<polygon fill="#F2F2F2" points="15.5,16.3 9.4,16.3 7.4,22.9 14.2,22.9 	"/>
	<polygon fill="#FF7058" points="21.5,16.3 15.4,16.3 14.2,22.9 21.1,22.9 	"/>
	<polygon fill="#F2F2F2" points="27.5,16.3 21.5,16.3 21.1,22.9 27.9,22.9 	"/>
	<polygon fill="#FF7058" points="33.5,16.3 27.5,16.3 27.9,22.9 34.8,22.9 	"/>
	<polygon fill="#F2F2F2" points="39.6,16.3 33.5,16.3 34.8,22.9 41.6,22.9 	"/>
	<polygon fill="#FF7058" points="45.6,16.3 39.6,16.3 41.6,22.9 48.5,22.9 	"/>
	<path fill="#E6EBEF" d="M45.5,23.5v3.7c-0.1,0-0.3,0-0.4,0c-1.9,0-3.4-1.5-3.4-3.4c0,1.9-1.5,3.4-3.4,3.4c-1.9,0-3.4-1.5-3.4-3.4
		c0,1.9-1.5,3.4-3.4,3.4c-1.9,0-3.4-1.5-3.4-3.4c0,1.9-1.5,3.4-3.4,3.4c-1.9,0-3.4-1.5-3.4-3.4c0,1.9-1.5,3.4-3.4,3.4
		c-1.9,0-3.4-1.5-3.4-3.4c0,1.9-1.5,3.4-3.4,3.4c-1.9,0-3.4-1.5-3.4-3.4c0,1.9-1.5,3.4-3.4,3.4c-0.1,0-0.3,0-0.5,0v-3.7H45.5z"/>
	
		<rect x="5.2" y="32.6" transform="matrix(-1.836970e-16 1 -1 -1.836970e-16 53.7438 24.8659)" fill="#40596B" width="18.4" height="13.3"/>
	<g>
		<rect x="26.4" y="34.1" fill="#54C0EB" width="13.9" height="9.3"/>
		<rect x="25.4" y="43.4" fill="#CDD6E0" width="15.8" height="1.1"/>
	</g>
	<g>
		<path fill="#F1543F" d="M0.5,22.9v0.3c0,1.9,1.5,3.4,3.4,3.4c1.9,0,3.4-1.5,3.4-3.4v-0.3H0.5z"/>
		<path fill="#CDD6E0" d="M7.4,22.9v0.3c0,1.9,1.5,3.4,3.4,3.4c1.9,0,3.4-1.5,3.4-3.4v-0.3H7.4z"/>
		<path fill="#F1543F" d="M14.2,22.9v0.3c0,1.9,1.5,3.4,3.4,3.4c1.9,0,3.4-1.5,3.4-3.4v-0.3H14.2z"/>
		<path fill="#CDD6E0" d="M21.1,22.9v0.3c0,1.9,1.5,3.4,3.4,3.4c1.9,0,3.4-1.5,3.4-3.4v-0.3H21.1z"/>
		<path fill="#F1543F" d="M27.9,22.9v0.3c0,1.9,1.5,3.4,3.4,3.4c1.9,0,3.4-1.5,3.4-3.4v-0.3H27.9z"/>
		<path fill="#CDD6E0" d="M34.8,22.9v0.3c0,1.9,1.5,3.4,3.4,3.4c1.9,0,3.4-1.5,3.4-3.4v-0.3H34.8z"/>
		<path fill="#F1543F" d="M41.6,22.9v0.3c0,1.9,1.5,3.4,3.4,3.4c1.9,0,3.4-1.5,3.4-3.4v-0.3H41.6z"/>
	</g>
	<g>
		<rect x="9.3" y="7.6" fill="#40596B" width="5.1" height="5.1"/>
		<rect x="21.9" y="7.6" fill="#40596B" width="5.1" height="5.1"/>
		<rect x="34.6" y="7.6" fill="#40596B" width="5.1" height="5.1"/>
	</g>
</g>
</svg>
