<?xml version="1.0" encoding="utf-8"?>
<!-- Generator: Adobe Illustrator 18.0.0, SVG Export Plug-In . SVG Version: 6.00 Build 0)  -->
<!DOCTYPE svg PUBLIC "-//W3C//DTD SVG 1.1//EN" "http://www.w3.org/Graphics/SVG/1.1/DTD/svg11.dtd">
<svg version="1.1" id="Layer_1" xmlns="http://www.w3.org/2000/svg" xmlns:xlink="http://www.w3.org/1999/xlink" x="0px" y="0px"
	 viewBox="0 0 48 48" enable-background="new 0 0 48 48" xml:space="preserve">
<g>
	<rect x="9.1" y="13.7" fill="#CDD6E0" width="29.8" height="17.4"/>
	<rect x="11.2" y="6.1" fill="#F2F2F2" width="25.5" height="7.5"/>
	<g>
		<rect x="12.8" y="16.7" fill="#ACB3BA" width="2.5" height="2.5"/>
		<rect x="17.8" y="16.7" fill="#ACB3BA" width="2.5" height="2.5"/>
		<rect x="22.7" y="16.7" fill="#ACB3BA" width="2.5" height="2.5"/>
		<rect x="27.7" y="16.7" fill="#ACB3BA" width="2.5" height="2.5"/>
		<rect x="32.7" y="16.7" fill="#ACB3BA" width="2.5" height="2.5"/>
	</g>
	<g>
		<polygon fill="#334A5E" points="36.4,48 23.9,48 23.9,21.3 42.3,28.8 		"/>
		<polygon fill="#40596B" points="11.6,48 24.1,48 24.1,21.3 5.7,28.8 		"/>
	</g>
	<g>
		<rect x="17.8" y="8.6" fill="#54C0EB" width="2.5" height="2.5"/>
		<rect x="22.7" y="8.6" fill="#54C0EB" width="2.5" height="2.5"/>
		<rect x="27.7" y="8.6" fill="#54C0EB" width="2.5" height="2.5"/>
	</g>
	<g>
		<rect x="14.3" y="1.6" fill="#40596B" width="5.2" height="4.5"/>
		<path fill="#FF7058" d="M19.5,0l-5.2,0c-0.4,0-0.8,0.4-0.8,0.8v0c0,0.4,0.4,0.8,0.8,0.8h5.2c0.4,0,0.8-0.4,0.8-0.8v0
			C20.3,0.4,20,0,19.5,0z"/>
		<rect x="28.5" y="1.6" fill="#40596B" width="5.2" height="4.5"/>
		<path fill="#FF7058" d="M33.7,0l-5.2,0c-0.4,0-0.8,0.4-0.8,0.8v0c0,0.4,0.4,0.8,0.8,0.8h5.2c0.4,0,0.8-0.4,0.8-0.8v0
			C34.5,0.4,34.1,0,33.7,0z"/>
	</g>
</g>
</svg>
