<?xml version="1.0" encoding="utf-8"?>
<!-- Generator: Adobe Illustrator 18.0.0, SVG Export Plug-In . SVG Version: 6.00 Build 0)  -->
<!DOCTYPE svg PUBLIC "-//W3C//DTD SVG 1.1//EN" "http://www.w3.org/Graphics/SVG/1.1/DTD/svg11.dtd">
<svg version="1.1" id="Layer_1" xmlns="http://www.w3.org/2000/svg" xmlns:xlink="http://www.w3.org/1999/xlink" x="0px" y="0px"
	 viewBox="0 0 48 48" enable-background="new 0 0 48 48" xml:space="preserve">
<g>
	<path fill="#40596B" d="M48,14.1H0V2c0-1.1,0.9-2,2-2h44c1.1,0,2,0.9,2,2V14.1z"/>
	<path fill="#CDD6E0" d="M46,48H2c-1.1,0-2-0.9-2-2V14.1h48V46C48,47.1,47.1,48,46,48z"/>
	<rect x="4" y="18.1" fill="#F2F2F2" width="40" height="25.9"/>
	<g>
		<g>
			<circle fill="#334A5E" cx="12.1" cy="7.1" r="2.6"/>
			<circle fill="#FFFFFF" cx="12.1" cy="7.1" r="1.7"/>
		</g>
		<g>
			<circle fill="#334A5E" cx="35.9" cy="7.1" r="2.6"/>
			<circle fill="#FFFFFF" cx="35.9" cy="7.1" r="1.7"/>
		</g>
	</g>
	<path fill="#FFD15C" d="M34.9,8.3H13.1c-0.7,0-1.3-0.6-1.3-1.3v0c0-0.7,0.6-1.3,1.3-1.3h21.9c0.7,0,1.3,0.6,1.3,1.3v0
		C36.2,7.8,35.6,8.3,34.9,8.3z"/>
	<g>
		<g>
			<path fill="#FFD15C" d="M25.6,32.9c0,0,3.4-5.5,10.5-5.4c0.2,0,0.4,0.1,0.6,0.2l0,0c0.9,0.6,0.4,1.9-0.6,1.9
				C33.1,29.6,29.1,30.2,25.6,32.9z"/>
			<path fill="#84DBFF" d="M22.6,32.7c0,0-3.6-5.3-10.7-5c-0.2,0-0.4,0.1-0.6,0.2l0,0c-0.8,0.6-0.3,1.8,0.7,1.8
				C14.8,29.6,18.9,30,22.6,32.7z"/>
		</g>
		<path fill="#84DBFF" d="M24.5,33.8c0,0,6.3-0.1,10.1,5.7c0.2,0.3,0.2,0.7,0.1,1l0,0c-0.4,0.7-1.4,0.8-1.8,0.1
			C31.8,38.6,29.4,35.6,24.5,33.8z"/>
		<path fill="#FFD15C" d="M22.9,33.8c0,0-6.4-0.1-10.2,5.9c-0.1,0.2-0.2,0.5-0.1,0.7l0,0c0.2,0.8,1.2,1,1.7,0.3
			C15.6,38.6,18.2,35.5,22.9,33.8z"/>
		<path fill="#FFD15C" d="M23.6,30.8c0,0-0.7-6.3-7-9.4c-0.3-0.1-0.6-0.1-0.8,0l0,0c-0.9,0.3-1,1.6-0.1,2
			C18.1,24.5,21.5,26.6,23.6,30.8z"/>
		<path fill="#84DBFF" d="M28.5,27.5h-0.8l0.6-0.6c0.1-0.1,0.1-0.1,0-0.2s-0.1-0.1-0.2,0l-0.6,0.6v-0.8c0-0.1-0.1-0.1-0.1-0.1
			c-0.1,0-0.1,0.1-0.1,0.1v0.8l-0.6-0.6c-0.1-0.1-0.1-0.1-0.2,0s-0.1,0.1,0,0.2l0.6,0.6h-0.8c-0.1,0-0.1,0.1-0.1,0.1
			s0.1,0.1,0.1,0.1H27l-0.6,0.6c-0.1,0.1-0.1,0.1,0,0.2c0,0,0.1,0,0.1,0c0,0,0.1,0,0.1,0l0.6-0.6v0.8c0,0.1,0.1,0.1,0.1,0.1
			c0.1,0,0.1-0.1,0.1-0.1V28l0.6,0.6c0,0,0.1,0,0.1,0c0,0,0.1,0,0.1,0c0.1-0.1,0.1-0.1,0-0.2l-0.6-0.6h0.8c0.1,0,0.1-0.1,0.1-0.1
			S28.6,27.5,28.5,27.5z"/>
		<path fill="#FFD15C" d="M16.3,33h-1.1l0.7-0.7c0.1-0.1,0.1-0.2,0-0.2c-0.1-0.1-0.2-0.1-0.2,0L15,32.7v-1.1c0-0.1-0.1-0.2-0.2-0.2
			s-0.2,0.1-0.2,0.2v1.1L13.9,32c-0.1-0.1-0.2-0.1-0.2,0c-0.1,0.1-0.1,0.2,0,0.2l0.7,0.7h-1.1c-0.1,0-0.2,0.1-0.2,0.2
			c0,0.1,0.1,0.2,0.2,0.2h1.1l-0.7,0.7c-0.1,0.1-0.1,0.2,0,0.2c0,0,0.1,0.1,0.1,0.1s0.1,0,0.1-0.1l0.7-0.7v1.1
			c0,0.1,0.1,0.2,0.2,0.2s0.2-0.1,0.2-0.2v-1.1l0.7,0.7c0,0,0.1,0.1,0.1,0.1s0.1,0,0.1-0.1c0.1-0.1,0.1-0.2,0-0.2l-0.7-0.7h1.1
			c0.1,0,0.2-0.1,0.2-0.2C16.5,33.1,16.4,33,16.3,33z"/>
		<polygon fill="#FF7058" points="34.1,30.9 34.1,32.5 35.4,33.4 33.9,33.9 33.5,35.4 32.6,34.1 31,34.1 31.9,32.9 31.4,31.4 
			32.9,31.9 		"/>
		<polygon fill="#FF7058" points="25.1,35.7 25.1,36.5 24.5,36.9 25.2,37.2 25.4,37.9 25.9,37.3 26.7,37.3 26.2,36.7 26.5,36 
			25.7,36.2 		"/>
		<polygon fill="#FF7058" points="26.5,21.2 26.5,22.8 27.8,23.7 26.3,24.2 25.8,25.7 24.9,24.4 23.3,24.5 24.3,23.2 23.8,21.7 
			25.2,22.2 		"/>
		<polygon fill="#84DBFF" points="23.2,36.8 23.2,37.8 24,38.4 23.1,38.7 22.8,39.7 22.2,38.9 21.2,38.9 21.8,38.1 21.5,37.1 
			22.4,37.4 		"/>
	</g>
</g>
</svg>
