<?xml version="1.0" encoding="utf-8"?>
<!-- Generator: Adobe Illustrator 18.0.0, SVG Export Plug-In . SVG Version: 6.00 Build 0)  -->
<!DOCTYPE svg PUBLIC "-//W3C//DTD SVG 1.1//EN" "http://www.w3.org/Graphics/SVG/1.1/DTD/svg11.dtd">
<svg version="1.1" id="Layer_1" xmlns="http://www.w3.org/2000/svg" xmlns:xlink="http://www.w3.org/1999/xlink" x="0px" y="0px"
	 viewBox="0 0 48 48" enable-background="new 0 0 48 48" xml:space="preserve">
<g>
	<polygon fill="#CDD6E0" points="47.5,48.1 0.3,48.1 0.3,47.3 0.9,46.3 47.5,46.3 	"/>
	<g>
		<polygon fill="#FFD15C" points="19.9,39 9.4,28.4 3.9,28.4 0.3,47.3 19.1,43.6 		"/>
		<path fill="#84DBFF" d="M24.9,14.2l-9.3,9.3l-6.2,6.2C9,32,9.7,34.4,11.5,36.1c1.8,1.8,4.2,2.5,6.4,2.1l6.2-6.2l9.3-9.3L24.9,14.2
			z"/>
		<path fill="#54C0EB" d="M21.5,10.9L14.3,18L3.9,28.4c1.6,1.1,3.6,1.5,5.4,1.2c0,0,0,0,0,0l6.2-6.2l9.3-9.3L21.5,10.9z"/>
		<path fill="#54C0EB" d="M33.4,22.7L24.1,32l-6.2,6.2c0,0,0,0,0,0c-0.3,1.9,0.1,3.8,1.2,5.4l10.4-10.4l7.2-7.2L33.4,22.7z"/>
		<path fill="#FF7058" d="M45.9,8.4l-6.8-6.8c-2.3-2.3-6.1-2.3-8.5,0l-3.9,3.9l15.2,15.2l3.9-3.9C48.3,14.6,48.3,10.8,45.9,8.4z"/>
		<polyline fill="#40596B" points="36.7,26.1 42.6,20.2 27.4,5 21.5,10.9 		"/>
		<path fill="#F2F2F2" d="M35.6,27.1c-4.1-5.9-9.2-11-15.1-15.1c-0.5-0.3-0.6-1-0.3-1.5l0,0c0.3-0.5,1-0.6,1.5-0.3
			c6.1,4.2,11.4,9.5,15.6,15.7c0.4,0.5,0.2,1.2-0.3,1.5l0,0C36.6,27.7,35.9,27.6,35.6,27.1z"/>
		<path fill="#F2F2F2" d="M38.4,24.2c-4.1-5.9-9.2-11-15.1-15.1c-0.5-0.3-0.6-1-0.3-1.5l0,0c0.3-0.5,1-0.6,1.5-0.3
			C30.7,11.6,36,16.9,40.2,23c0.4,0.5,0.2,1.2-0.3,1.5l0,0C39.4,24.9,38.8,24.7,38.4,24.2z"/>
		<path fill="#F2F2F2" d="M41.3,21.4c-4.1-5.9-9.2-11-15.1-15.1c-0.5-0.3-0.6-1-0.3-1.5l0,0c0.3-0.5,1-0.6,1.5-0.3
			c6.1,4.2,11.4,9.5,15.6,15.7c0.4,0.5,0.2,1.2-0.3,1.5l0,0C42.3,22,41.6,21.9,41.3,21.4z"/>
		<polygon fill="#40596B" points="1.4,41.7 0.3,47.3 5.9,46.2 		"/>
	</g>
</g>
</svg>
