<?xml version="1.0" encoding="utf-8"?>
<!-- Generator: Adobe Illustrator 18.0.0, SVG Export Plug-In . SVG Version: 6.00 Build 0)  -->
<!DOCTYPE svg PUBLIC "-//W3C//DTD SVG 1.1//EN" "http://www.w3.org/Graphics/SVG/1.1/DTD/svg11.dtd">
<svg version="1.1" id="Layer_1" xmlns="http://www.w3.org/2000/svg" xmlns:xlink="http://www.w3.org/1999/xlink" x="0px" y="0px"
	 viewBox="0 0 48 48" enable-background="new 0 0 48 48" xml:space="preserve">
<g>
	<g>
		<g>
			<g>
				<g>
					<path fill="#415A6B" d="M34.9,48c-1-7.6-2.9-8-2.9-8c-1.5,0.3-3.1,6.4-3.5,8H34.9z"/>
				</g>
				<g>
					<path fill="#415A6B" d="M6.4,48c-0.4-1.6-2.1-7.7-3.5-8c0,0-1.9,0.4-2.9,8H6.4z"/>
				</g>
				<g>
					<path fill="#344A5E" d="M5.6,48h23.7c1-4.2,2.1-7.6,2.7-8l-7.9-3.7l-6.6,2.1l-6.6-2.1L2.9,40C3.5,40.4,4.6,43.8,5.6,48z"/>
				</g>
				<g>
					<polygon fill="#CED6E0" points="21.3,48 21.5,37.1 17.5,38.3 13.5,37.1 13.6,48 					"/>
				</g>
				<g>
					<polygon fill="#F3705A" points="15,48 19.9,48 18.6,42.5 19.7,40.6 17.5,38.3 15.2,40.6 16.3,42.5 					"/>
				</g>
				<g>
					<g>
						<path fill="#E8EAE9" d="M17.5,38.3c0,0,4-2.5,4.3-4.8l1.5,2.6l-2.8,6L17.5,38.3z"/>
					</g>
					<g>
						<polygon fill="#415A6B" points="22.3,48 26.4,40.8 24.1,39.6 26.5,38.6 22.6,34.8 19.4,48 						"/>
					</g>
				</g>
				<g>
					<g>
						<path fill="#E8EAE9" d="M17.5,38.3c0,0-4-2.5-4.3-4.8l-1.5,2.6l2.8,6L17.5,38.3z"/>
					</g>
					<g>
						<polygon fill="#415A6B" points="8.5,40.8 12.6,48 15.5,48 12.3,34.8 8.4,38.6 10.8,39.6 						"/>
					</g>
				</g>
			</g>
			<g>
				<path fill="#F7B64C" d="M13.2,30.7v2.7c0.3,2.3,4.3,4.8,4.3,4.8s4-2.5,4.3-4.8l0-2.7H13.2z"/>
			</g>
			<g>
				<g>
					<path fill="#415A6B" d="M17.5,22.5c0,3.6-1.5,6.5-3.4,6.5s-3.6-2.8-3.7-6.5c-0.2-3.8,1.4-7,3.4-7
						C15.8,15.5,17.5,18.7,17.5,22.5z"/>
					<g>
						<path fill="#415A6B" d="M25.1,21.7c-0.2,4-3.1,7.1-6.6,7.1s-6.4-3.1-6.5-7.1c-0.1-4.2,2.8-7.7,6.6-7.7
							C22.4,14,25.3,17.5,25.1,21.7z"/>
					</g>
				</g>
				<g>
					<path fill="#FFD15C" d="M23.8,22c-3-0.3-6-1.3-8.5-2.9c-1.1,1.8-2.5,3.2-4.4,4.1c-0.1,0.5-0.1,1-0.1,1.5c0.2,4.5,3.1,8,6.6,8
						c3.5,0,6.4-3.5,6.6-8C24.2,23.8,24.1,22.8,23.8,22z"/>
				</g>
				<g>
					<g>
						<g>
							<path fill="#FFD15C" d="M25.1,25.8c-0.4,1.3-1.2,2.2-2,2.1c-0.7-0.1-1.1-1.3-0.7-2.6c0.3-1.3,1.2-2.3,2-2.2
								C25.1,23.3,25.4,24.5,25.1,25.8z"/>
						</g>
					</g>
					<g>
						<g>
							<path fill="#FFD15C" d="M9.8,25.8c0.4,1.3,1.2,2.2,2,2.1c0.7-0.1,1.1-1.3,0.7-2.6c-0.3-1.3-1.2-2.3-2-2.2
								C9.8,23.3,9.5,24.5,9.8,25.8z"/>
						</g>
					</g>
				</g>
				<g>
					<g>
						<path fill="#415A6B" d="M21.2,30.1c-0.9-2.2-3.4-2.6-3.8-2.6c-0.4,0-2.9,0.4-3.8,2.6c-0.9-0.6-2-2.3-2.8-4.3
							c0,0,0.3,8.8,6.5,8.8c6.2-0.1,6.5-8.7,6.5-8.8C23.2,27.8,22.1,29.4,21.2,30.1z M18.9,31.2c0,0-1.7,0.5-0.9-0.5
							c0.4-0.5,0.3-0.8,0-1c-0.2-0.1-0.4-0.2-0.6-0.2c-0.2,0-0.4,0.1-0.6,0.2c-0.2,0.2-0.4,0.5,0,1c0.9,0.9-0.9,0.5-0.9,0.5
							s-2.9-2,1.4-2.6C21.8,29.3,18.9,31.2,18.9,31.2z"/>
					</g>
				</g>
			</g>
		</g>
		<g>
			<g>
				<path fill="#F3705A" d="M28.3,25.5v-6.7c-3.3-1.9-5.4-5-5.4-8.5C22.9,4.6,28.5,0,35.5,0C42.4,0,48,4.6,48,10.3
					c0,5.7-5.6,10.3-12.5,10.3L28.3,25.5z"/>
			</g>
		</g>
		<g>
			<g>
				<circle fill="#FFFFFF" cx="29" cy="10.3" r="2.1"/>
			</g>
			<circle fill="#FFFFFF" cx="35.5" cy="10.3" r="2.1"/>
			<circle fill="#FFFFFF" cx="42" cy="10.3" r="2.1"/>
		</g>
	</g>
</g>
</svg>
