<?xml version="1.0" encoding="utf-8"?>
<!-- Generator: Adobe Illustrator 18.0.0, SVG Export Plug-In . SVG Version: 6.00 Build 0)  -->
<!DOCTYPE svg PUBLIC "-//W3C//DTD SVG 1.1//EN" "http://www.w3.org/Graphics/SVG/1.1/DTD/svg11.dtd">
<svg version="1.1" id="Layer_1" xmlns="http://www.w3.org/2000/svg" xmlns:xlink="http://www.w3.org/1999/xlink" x="0px" y="0px"
	 viewBox="0 0 48 48" enable-background="new 0 0 48 48" xml:space="preserve">
<g>
	<path fill="#ACB3BA" d="M26.5,20.9h-5c-0.9,0-1.6-0.7-1.6-1.6v0c0-0.9,0.7-1.6,1.6-1.6h5c0.9,0,1.6,0.7,1.6,1.6v0
		C28.1,20.2,27.4,20.9,26.5,20.9z"/>
	<path fill="#F2F2F2" d="M46,48H2c-1.1,0-2-0.9-2-2V21.3c0-1.1,0.9-2,2-2h44c1.1,0,2,0.9,2,2V46C48,47.1,47.1,48,46,48z"/>
	<rect x="2.9" y="22.2" fill="#CDD6E0" width="4.4" height="4.4"/>
	<rect x="2.9" y="29.4" fill="#CDD6E0" width="4.4" height="4.4"/>
	<rect x="8.3" y="29.4" fill="#CDD6E0" width="4.4" height="4.4"/>
	<rect x="13.7" y="29.4" fill="#CDD6E0" width="4.4" height="4.4"/>
	<rect x="19.1" y="29.4" fill="#CDD6E0" width="4.4" height="4.4"/>
	<rect x="24.5" y="29.4" fill="#CDD6E0" width="4.4" height="4.4"/>
	<rect x="29.9" y="29.4" fill="#CDD6E0" width="4.4" height="4.4"/>
	<rect x="35.3" y="29.4" fill="#CDD6E0" width="4.4" height="4.4"/>
	<rect x="40.7" y="29.4" fill="#CDD6E0" width="4.4" height="4.4"/>
	<rect x="2.9" y="35" fill="#CDD6E0" width="4.4" height="4.4"/>
	<rect x="8.3" y="35" fill="#CDD6E0" width="4.4" height="4.4"/>
	<rect x="13.7" y="35" fill="#CDD6E0" width="4.4" height="4.4"/>
	<rect x="19.1" y="35" fill="#CDD6E0" width="4.4" height="4.4"/>
	<rect x="24.5" y="35" fill="#CDD6E0" width="4.4" height="4.4"/>
	<rect x="29.9" y="35" fill="#CDD6E0" width="4.4" height="4.4"/>
	<rect x="35.3" y="35" fill="#CDD6E0" width="4.4" height="4.4"/>
	<rect x="8.3" y="40.7" fill="#CDD6E0" width="4.4" height="4.4"/>
	<rect x="35.3" y="40.7" fill="#CDD6E0" width="4.4" height="4.4"/>
	<rect x="40.7" y="35" fill="#CDD6E0" width="4.4" height="4.4"/>
	<rect x="2.9" y="40.7" fill="#CDD6E0" width="4.4" height="4.4"/>
	<rect x="13.7" y="40.7" fill="#CDD6E0" width="20.6" height="4.4"/>
	<rect x="40.7" y="40.7" fill="#CDD6E0" width="4.4" height="4.4"/>
	<rect x="11.2" y="22.2" fill="#CDD6E0" width="4.4" height="4.4"/>
	<rect x="16.7" y="22.2" fill="#CDD6E0" width="4.4" height="4.4"/>
	<rect x="22.2" y="22.2" fill="#CDD6E0" width="4.4" height="4.4"/>
	<rect x="27.7" y="22.2" fill="#CDD6E0" width="4.4" height="4.4"/>
	<rect x="35.2" y="22.2" fill="#CDD6E0" width="4.4" height="4.4"/>
	<rect x="40.7" y="22.2" fill="#CDD6E0" width="4.4" height="4.4"/>
	<g>
		<path fill="#4CDBC4" d="M25,17.7h-2v-2.4c0-2.1,1.7-3.9,3.9-3.9h13.6c1,0,1.9-0.8,1.9-1.9s-0.8-1.9-1.9-1.9H14
			c-2.5,0-4.5-2-4.5-4.5V0h2v3.1c0,1.4,1.1,2.5,2.5,2.5h26.5c2.1,0,3.9,1.7,3.9,3.9c0,2.1-1.7,3.9-3.9,3.9H26.9
			c-1,0-1.9,0.8-1.9,1.9V17.7z"/>
	</g>
</g>
</svg>
