<?xml version="1.0" encoding="utf-8"?>
<!-- Generator: Adobe Illustrator 18.0.0, SVG Export Plug-In . SVG Version: 6.00 Build 0)  -->
<!DOCTYPE svg PUBLIC "-//W3C//DTD SVG 1.1//EN" "http://www.w3.org/Graphics/SVG/1.1/DTD/svg11.dtd">
<svg version="1.1" id="Layer_1" xmlns="http://www.w3.org/2000/svg" xmlns:xlink="http://www.w3.org/1999/xlink" x="0px" y="0px"
	 viewBox="0 0 48 48" enable-background="new 0 0 48 48" xml:space="preserve">
<g>
	<g>
		<g>
			<path fill="#ACB3BA" d="M43.6,32.6h-4.2v-9.9c0-8.4-6.8-15.2-15.2-15.2c-8.4,0-15.2,6.8-15.2,15.2v9.9H4.9v-9.9
				C4.9,12,13.6,3.3,24.3,3.3c10.7,0,19.3,8.7,19.3,19.3V32.6z"/>
		</g>
		<g>
			<path fill="#40596B" d="M36.4,13.7c-0.4,0.3-1,0.2-1.4-0.2c-2.7-3.2-6.6-5-10.8-5c-4.2,0-8.1,1.8-10.8,5
				c-0.3,0.4-0.9,0.5-1.4,0.2l-3.4-2.5c-0.5-0.3-0.6-1-0.2-1.4c3.9-4.7,9.7-7.5,15.8-7.5S36.2,5.1,40,9.8c0.4,0.4,0.3,1.1-0.2,1.4
				L36.4,13.7z"/>
		</g>
		<g>
			<path fill="#40596B" d="M45.7,25.3h-0.8v9.5h0.8c1.8,0,2.2-1.5,2.2-3.3v-2.9C47.9,26.8,47.5,25.3,45.7,25.3z"/>
			<path fill="#FF7058" d="M43.4,36.1h-3.9c-1.1,0-2-0.9-2-2v-8c0-1.1,0.9-2,2-2h3.9c1.1,0,2,0.9,2,2v8
				C45.4,35.2,44.5,36.1,43.4,36.1z"/>
		</g>
		<g>
			<path fill="#40596B" d="M2.3,34.8h0.8v-9.5H2.3c-1.8,0-2.2,1.5-2.2,3.3v2.9C0.1,33.3,0.5,34.8,2.3,34.8z"/>
			<path fill="#FF7058" d="M4.6,24h3.9c1.1,0,2,0.9,2,2v8c0,1.1-0.9,2-2,2H4.6c-1.1,0-2-0.9-2-2v-8C2.6,24.9,3.5,24,4.6,24z"/>
		</g>
	</g>
	<g>
		<circle fill="#F2F2F2" cx="24" cy="33.2" r="12.5"/>
		<circle fill="#CDD6E0" cx="24" cy="33.2" r="3.4"/>
		<circle fill="#40596B" cx="24" cy="33.2" r="2.4"/>
		<circle fill="#FFFFFF" cx="24" cy="33.2" r="1"/>
		<g>
			<path fill="#CDD6E0" d="M35.2,30.4c-0.5-1.9-1.5-3.8-3-5.3s-3.4-2.5-5.3-3L23.1,29c1.4-0.3,2.9,0.1,3.9,1.2
				c1.1,1.1,1.5,2.6,1.2,3.9L35.2,30.4z"/>
			<path fill="#CDD6E0" d="M21,36.3c-1.1-1.1-1.5-2.6-1.2-3.9l-6.9,3.7c0.5,1.9,1.5,3.8,3,5.3s3.4,2.5,5.3,3l3.7-6.9
				C23.5,37.7,22,37.4,21,36.3z"/>
		</g>
	</g>
</g>
</svg>
