<?xml version="1.0" encoding="utf-8"?>
<!-- Generator: Adobe Illustrator 19.0.1, SVG Export Plug-In . SVG Version: 6.00 Build 0)  -->
<svg version="1.1" id="Layer_1" xmlns="http://www.w3.org/2000/svg" xmlns:xlink="http://www.w3.org/1999/xlink" x="0px" y="0px"
	 viewBox="0 0 48 48" style="enable-background:new 0 0 48 48;" xml:space="preserve">
<style type="text/css">
	.st0{fill:#415A6B;}
	.st1{fill:#ADB3BA;}
	.st2{fill:#E8EAE9;}
	.st3{fill:#55C0EB;}
	.st4{fill:#F3705A;}
	.st5{fill:#FFFFFF;}
	.st6{fill:#FFD15C;}
	.st7{fill:#344A5E;}
	.st8{fill:#CED6E0;}
	.st9{fill:#F05540;}
	.st10{fill:#F7B64C;}
	.st11{fill:#F3F3F3;}
	.st12{fill:#66C6B9;}
	.st13{fill:#4ABAA5;}
	.st14{fill:#8AD7F8;}
	.st15{fill:none;}
	.st16{fill:#E53D35;}
</style>
<g>
	<g>
		<g>
			<g>
				<path class="st12" d="M29.8,7.8c0,4.3-4.3,7.8-9.5,7.8c-0.6,0-1.1,0-1.7-0.1l-5,2.6v-4.7c-1.8-1.4-2.8-3.4-2.8-5.5
					C10.7,3.5,15,0,20.3,0C25.5,0,29.8,3.5,29.8,7.8z"/>
			</g>
			<g>
				<g>
					<path class="st5" d="M26.6,7.8c0,0.8-0.7,1.5-1.5,1.5c-0.8,0-1.5-0.7-1.5-1.5c0-0.8,0.7-1.5,1.5-1.5
						C25.9,6.2,26.6,6.9,26.6,7.8z"/>
				</g>
				<g>
					<path class="st5" d="M21.8,7.8c0,0.8-0.7,1.5-1.5,1.5c-0.8,0-1.5-0.7-1.5-1.5c0-0.8,0.7-1.5,1.5-1.5
						C21.1,6.2,21.8,6.9,21.8,7.8z"/>
				</g>
				<g>
					<path class="st5" d="M17,7.8c0,0.8-0.7,1.5-1.5,1.5c-0.8,0-1.5-0.7-1.5-1.5c0-0.8,0.7-1.5,1.5-1.5C16.3,6.2,17,6.9,17,7.8z"/>
				</g>
			</g>
		</g>
		<g>
			<g>
				<g>
					<path class="st0" d="M25.3,19.7c0,0,0.6,7.6-1.2,11.6s-3.3,5-3.4,5c-0.2,0,5.5-1.3,5.5-1.3l4-5.6l0.2-5.3L25.3,19.7"/>
				</g>
				<g>
					<path class="st10" d="M28.3,24.4h7.3v5.3c0.8,3.6,1.4,7.1,0,9.2c0,5.3-7.3,5.3-7.3,0c-1.7-3.3-2-6.5,0-9.2V24.4z"/>
				</g>
				<g>
					<path class="st11" d="M37,43.1l-1-7.7c-0.8,1.4-2.3,2.4-4,2.4c-1.7,0-3.3-1-4-2.4l-1,7.7H37z"/>
				</g>
				<g>
					<path class="st0" d="M38.6,19.7c0,3.7-3,6.7-6.7,6.7c-3.7,0-6.7-3-6.7-6.7s3-6.7,6.7-6.7C35.7,13,38.6,16,38.6,19.7z"/>
				</g>
				<g>
					<path class="st6" d="M37.4,23c0,4.3-2.4,7.8-5.4,7.8c-3,0-5.4-3.5-5.4-7.8c0-1.2,0.2-2.4,0.5-3.4c0.3-0.8,1.1-1.3,1.9-1.1
						c0.9,0.2,1.9,0.3,3,0.3c1,0,2-0.1,3-0.3c0.8-0.2,1.7,0.3,1.9,1.1C37.2,20.6,37.4,21.8,37.4,23z"/>
				</g>
				<g>
					<g>
						<g>
							<path class="st9" d="M29.3,43.1l-2.4-11.4l-0.7-0.5l-6.2,2.2c0,0-1.2-0.3-2,2.4c-0.4,1.3-1.2,4.4-2,7.2H29.3z"/>
						</g>
						<g>
							<path class="st4" d="M26.8,43.1h3.6c-0.6-2.2-1.1-4.3-1.5-5.4c-1.1-3.4-0.6-8-0.6-8c-0.1,0.1-0.3,0.3-0.5,0.4
								c-1.5,1-2.9,2-4.1,3.3l-0.1,0.1l2,1.1l-2,1.2C24.6,38.4,25.7,40.9,26.8,43.1z"/>
						</g>
					</g>
					<g>
						<g>
							<path class="st9" d="M48,43.1c-0.8-2.9-1.6-5.9-2-7.2c-0.8-2.7-2-2.4-2-2.4l-6.2-2.2L37,31.7l-2.4,11.4H48z"/>
						</g>
						<g>
							<path class="st4" d="M33.5,43.1h3.6c1.2-2.3,2.3-4.7,3.3-7.3l-2-1.2l2-1.1l-0.1-0.1c-1.3-1.3-2.7-2.4-4.2-3.3
								c-0.2-0.2-0.4-0.3-0.5-0.4c0,0,0.4,4.7-0.7,8C34.6,38.9,34.1,40.9,33.5,43.1z"/>
						</g>
					</g>
				</g>
				<g>
					<g>
						<path class="st0" d="M41.8,38.9c-0.4,1.1-1.8,2.1-1.8,2.1s-2-1.9-2.6-3.1c-0.6-1.2-1-2.5-1.4-3.9c-0.4-1.5-0.9-3.1-0.6-4.6
							c0.2-1.1,0.7-2.2,1.1-3.2c0.9-2.5,1.3-5.3,1.1-8l0.5,0.1c0.8-0.7,0.8,5.2,1.6,8.1c0.4,1.6,1,3.1,1.7,4.6
							C42.6,33.4,42.9,36.3,41.8,38.9z"/>
					</g>
					<path class="st0" d="M27.3,25.4c0.5,1.6,1.3,3.1,1,4.7c-0.2,1.1-0.9,2.1-1.6,3c-0.8,0.9-1.6,1.6-2.3,2.6
						c-0.7,0.9-1.2,2.1-1,3.2c-0.7-1.8-0.7-4,0.1-5.8c0.5-1.3,1.3-2.4,1.8-3.6c1.4-3.6-0.2-7.8,1.4-11.3l0.9-0.4
						C26.6,20.3,26.5,23,27.3,25.4z"/>
				</g>
			</g>
			<g>
				<path class="st0" d="M27.8,27.6c0,0,0,0.2,0.1,0.6c0,0.4,0.1,0.9,0,1.6c-0.1,1.3-0.5,3-1.5,4.4c-0.5,0.7-1,1.3-1.4,1.9
					c-0.4,0.6-0.8,1.2-0.9,1.8c-0.2,0.6-0.1,1.1-0.1,1.4c0.1,0.3,0.2,0.5,0.2,0.5s-0.1-0.2-0.2-0.5c-0.1-0.3-0.2-0.9,0-1.5
					c0.1-0.6,0.4-1.3,0.8-2c0.4-0.7,0.9-1.3,1.3-2c0.8-1.4,1.1-3,1-4.1c0-0.6-0.1-1.1-0.1-1.4c-0.1-0.3-0.1-0.5-0.1-0.5L27.8,27.6z"
					/>
			</g>
		</g>
		<g>
			<g>
				<g>
					<rect x="9.5" y="31.5" class="st6" width="8" height="4.6"/>
				</g>
				<g>
					<g>
						
							<ellipse transform="matrix(-0.9903 0.1389 -0.1389 -0.9903 21.3962 57.588)" class="st6" cx="8.7" cy="29.5" rx="0.7" ry="1.8"/>
					</g>
					<g>
						
							<ellipse transform="matrix(0.9903 0.1389 -0.1389 0.9903 4.2809 -2.2472)" class="st6" cx="18.2" cy="29.5" rx="0.7" ry="1.8"/>
					</g>
				</g>
				<g>
					<path class="st0" d="M17.8,31.4c0.1-0.4,0.9-4.6,0.8-5.7c-0.1-1.1-0.7-3.7-2.2-4.5c-1.4-0.7-4.5-0.9-6.1,0.2
						c-1.6,1.1-1.9,3.6-1.9,4.2s0.5,4.6,1,5.8C10,33.8,17.4,33.7,17.8,31.4z"/>
				</g>
				<g>
					<path class="st11" d="M18.5,37l-4.7,0.5L9,37l0.4-1.4c0,0,0.1-1.1,1.1-1.7c1-0.5,2.6-0.7,3.3-0.7c0.6,0,2.3,0.2,3.3,0.7
						c1,0.5,1.1,1.7,1.1,1.7L18.5,37z"/>
				</g>
				<g>
					<path class="st7" d="M0.6,48h25.9c0.3-2.1,0.5-4.2,0.6-5c0.2-1.8-0.9-3.6-2.6-4.2L19.2,37c-0.8-0.9-4-1.5-5.6-1.6
						c-1.7,0.1-4.7,0.4-5.5,1.4l-5.5,2c-1.7,0.6-2.8,2.4-2.6,4.2C0.1,43.8,0.4,45.9,0.6,48z"/>
				</g>
				<g>
					<path class="st0" d="M8.1,36.7c0,0,1.7-0.6,3.4-0.6s6.1-0.1,7.7,0.9c0,0-1.3-1.5-2.2-2c-0.8-0.5-3-0.8-3.6-0.8
						c-0.5,0-2.9,0.2-3.8,1.1S8.1,36.7,8.1,36.7z"/>
				</g>
			</g>
		</g>
	</g>
</g>
</svg>
