<?xml version="1.0" encoding="utf-8"?>
<!-- Generator: Adobe Illustrator 18.0.0, SVG Export Plug-In . SVG Version: 6.00 Build 0)  -->
<!DOCTYPE svg PUBLIC "-//W3C//DTD SVG 1.1//EN" "http://www.w3.org/Graphics/SVG/1.1/DTD/svg11.dtd">
<svg version="1.1" id="Layer_1" xmlns="http://www.w3.org/2000/svg" xmlns:xlink="http://www.w3.org/1999/xlink" x="0px" y="0px"
	 viewBox="0 0 48 48" enable-background="new 0 0 48 48" xml:space="preserve">
<g>
	<g>
		<g>
			<g>
				<g>
					<g>
						<rect x="20.5" y="17" fill="#F5B54C" width="7" height="9.5"/>
					</g>
				</g>
			</g>
			<g>
				<g>
					<g>
						<polygon fill="#E8EAE8" points="31,33.8 31,23.6 24,23.6 18.1,23.8 18.1,33.8 						"/>
					</g>
				</g>
			</g>
			<g>
				<g>
					<g>
						<g>
							<polygon fill="#F05640" points="25.1,26.9 26.2,25.8 24,23.6 21.8,25.8 22.9,26.9 							"/>
						</g>
					</g>
				</g>
				<g>
					<g>
						<g>
							<polygon fill="#F26F5A" points="26.1,33.8 25.1,26.9 22.9,26.9 21.9,33.8 							"/>
						</g>
					</g>
				</g>
			</g>
			<g>
				<g>
					<g>
						<g>
							<path fill="#FFD15C" d="M27.8,17.5c-1.6,1.7-2,1.8-2,1.8c-1.2,0.5-2.4,0.5-3.7,0c0,0-0.3-0.1-2-1.8c-1.6-1.7-1.3-8.1-1.3-8.1
								v-4h10.1v4C29.1,9.4,29.4,15.8,27.8,17.5z"/>
						</g>
					</g>
				</g>
				<g>
					<g>
						<g>
							<path fill="#425A6B" d="M29.9,9.8c0,0.1-0.1,0.2-0.1,0.4c-0.1,0.5-0.3,1.1-0.5,1.6c-0.1,0.2-0.1,0.3-0.2,0.6
								c0,0,0.3-5.9-1.6-6.2c-1.9-0.3-2.4,0.3-2.4,0.3c-0.7,0.5-1.5,0.5-2.2,0c0,0-0.5-0.6-2.4-0.3c-1.9,0.3-1.6,6.2-1.6,6.2
								c-0.1-0.2-0.1-0.4-0.2-0.5c-0.2-0.5-0.4-1.1-0.5-1.6c0-0.1-0.1-0.2-0.1-0.4c0-0.1-0.1-0.2-0.1-0.4c-0.5-2,0-4.1,1.5-5.6
								C20.9,2.4,22.7,2,24,2c1.3,0,3.1,0.4,4.5,1.8c1.5,1.5,2,3.6,1.5,5.6C29.9,9.5,29.9,9.7,29.9,9.8z"/>
						</g>
					</g>
				</g>
				<g>
					<g>
						<g>
							<g>
								<path fill="#FFD15C" d="M29.9,13.1c-0.1,1.1-0.5,2-0.9,2c-0.4,0-0.7-1-0.6-2.1c0.1-1.1,0.5-2,0.9-2C29.8,11,30,12,29.9,13.1
									z"/>
							</g>
						</g>
					</g>
					<g>
						<g>
							<g>
								<path fill="#FFD15C" d="M18.1,13.1c0.1,1.1,0.5,2,0.9,2c0.4,0,0.7-1,0.6-2.1c-0.1-1.1-0.5-2-0.9-2C18.2,11,18,12,18.1,13.1z
									"/>
							</g>
						</g>
					</g>
				</g>
			</g>
			<g>
				<g>
					<g>
						<path fill="#F3F3F3" d="M27.5,19.3c0,0,0.4,1.3-3.5,4.4l3.1,2.9l1.3-3.5c0.3-0.8,0.3-1.6,0-2.4c-0.3-0.7-0.6-1.5-0.9-1.8
							C27.5,18.8,27.5,19,27.5,19.3z"/>
					</g>
				</g>
			</g>
			<g>
				<g>
					<g>
						<path fill="#F3F3F3" d="M20.5,19.3c0,0-0.4,1.3,3.5,4.4l-3.1,2.9L19.5,23c-0.3-0.8-0.3-1.6,0-2.4c0.3-0.7,0.6-1.5,0.9-1.8
							C20.5,18.8,20.5,19,20.5,19.3z"/>
					</g>
				</g>
			</g>
			<g>
				<g>
					<g>
						<g>
							<g>
								<path fill="#344A5E" d="M39.7,33.8c-1.3-10.7-3.3-10-3.3-10l-4.7,8.8c0,0,0.1,0.4,0.4,1.1H39.7z"/>
							</g>
						</g>
					</g>
					<g>
						<g>
							<g>
								<path fill="#344A5E" d="M27.3,33.8h7.6c1.2-3.5,1.4-10,1.4-10l-7.1-2.9l1,5.5C30.2,26.5,28.8,30.1,27.3,33.8z"/>
							</g>
						</g>
					</g>
					<g>
						<g>
							<g>
								<path fill="#425A6B" d="M27.3,33.8h7.6c1.2-3.5,1.4-10,1.4-10l-7.1-2.9l1,5.5C30.2,26.5,28.8,30.1,27.3,33.8z"/>
							</g>
						</g>
					</g>
					<g>
						<g>
							<g>
								<path fill="#344A5E" d="M27.7,21.1c-0.1,0.8,0,7.5-1.4,12.7h2.5c0.2-0.5,0.5-1,0.7-1.5c1.4-3.6,2.2-7.5,2.2-7.5l-1.8-1.4
									l1.2-0.7c0,0-1.1-1.3-1.9-1.8c-0.8-0.5-1.5-1.9-1.7-2.1C27.5,18.8,27.7,20.2,27.7,21.1z"/>
							</g>
						</g>
					</g>
				</g>
				<g>
					<g>
						<g>
							<g>
								<path fill="#425A6B" d="M16,33.8c0.2-0.7,0.4-1.1,0.4-1.1l-4.7-8.8c0,0-2-0.8-3.3,10H16z"/>
							</g>
						</g>
					</g>
					<g>
						<g>
							<g>
								<path fill="#344A5E" d="M20.7,33.8c-1.5-3.7-2.9-7.4-2.9-7.4l1-5.5l-7.1,2.9c0,0,0.2,6.5,1.4,10H20.7z"/>
							</g>
						</g>
					</g>
					<g>
						<g>
							<g>
								<path fill="#425A6B" d="M18.6,32.3c0.2,0.5,0.4,1,0.6,1.5h2.5c-1.4-5.3-1.4-12-1.4-12.7c-0.1-0.9,0.2-2.3,0.2-2.3
									c-0.2,0.2-0.9,1.6-1.7,2.1c-0.8,0.5-1.9,1.8-1.9,1.8l1.2,0.7l-1.8,1.4C16.4,24.8,17.2,28.7,18.6,32.3z"/>
							</g>
						</g>
					</g>
				</g>
			</g>
		</g>
		<g>
			<g>
				<g>
					<polygon fill="#F26F5A" points="47.5,9.4 45.2,7.1 39.7,12.5 35.5,8.3 41,2.8 38.6,0.5 48,0 					"/>
				</g>
			</g>
		</g>
		<g>
			<g>
				<g>
					<polygon fill="#425A6B" points="9.4,0.5 7.1,2.8 12.5,8.3 8.3,12.5 2.8,7 0.5,9.4 0,0 					"/>
				</g>
			</g>
		</g>
		<g>
			<g>
				<g>
					<polygon fill="#67C5B8" points="0.5,38.6 2.8,40.9 8.3,35.5 12.5,39.7 7,45.2 9.4,47.5 0,48 					"/>
				</g>
			</g>
		</g>
		<g>
			<g>
				<g>
					<polygon fill="#FFD15C" points="38.6,47.5 40.9,45.2 35.5,39.7 39.7,35.5 45.2,41 47.5,38.6 48,48 					"/>
				</g>
			</g>
		</g>
	</g>
</g>
</svg>
