<?xml version="1.0" encoding="utf-8"?>
<!-- Generator: Adobe Illustrator 18.0.0, SVG Export Plug-In . SVG Version: 6.00 Build 0)  -->
<!DOCTYPE svg PUBLIC "-//W3C//DTD SVG 1.1//EN" "http://www.w3.org/Graphics/SVG/1.1/DTD/svg11.dtd">
<svg version="1.1" id="Layer_1" xmlns="http://www.w3.org/2000/svg" xmlns:xlink="http://www.w3.org/1999/xlink" x="0px" y="0px"
	 viewBox="0 0 48 48" enable-background="new 0 0 48 48" xml:space="preserve">
<g>
	<g>
		<g>
			<path fill="#55C0EB" d="M34.3,25.2l-10,10c-3.2,3.2-8.4,3.2-11.5,0c-3.2-3.2-3.2-8.4,0-11.5l10-10l-7.4-7.4l-10,10
				c-7.3,7.3-7.3,19,0,26.3l0,0c7.3,7.3,19,7.3,26.3,0l10-10L34.3,25.2z"/>
		</g>
		<g>
			<path fill="#F3705A" d="M41.7,32.6l-10,10c-3.6,3.6-8.4,5.5-13.2,5.5c-4.8,0-9.5-1.8-13.1-5.5l7.4-7.4c3.2,3.2,8.4,3.2,11.5,0
				l10-10L41.7,32.6z"/>
		</g>
		
			<rect x="36.7" y="20.5" transform="matrix(-0.7071 0.7071 -0.7071 -0.7071 88.4843 14.8375)" fill="#E8EAE9" width="8.9" height="10.4"/>
		
			<rect x="17.8" y="1.6" transform="matrix(-0.7071 0.7071 -0.7071 -0.7071 42.8168 -4.0788)" fill="#E8EAE9" width="8.9" height="10.4"/>
		<g>
			<g>
				<g>
					<g>
						<path fill="#415A6B" d="M23.2,8.6l-2.7-2.7c-0.2-0.2-0.2-0.5,0-0.7v0c0.2-0.2,0.5-0.2,0.7,0L24,7.8c0.2,0.2,0.2,0.5,0,0.7l0,0
							C23.8,8.8,23.5,8.8,23.2,8.6z"/>
					</g>
				</g>
			</g>
			<path fill="#415A6B" d="M42.9,26.7l-1-1l1-1c0.2-0.2,0.2-0.5,0-0.7c-0.2-0.2-0.5-0.2-0.7,0l-1,1l-1-1c-0.2-0.2-0.5-0.2-0.7,0
				c-0.2,0.2-0.2,0.5,0,0.7l1,1l-1,1c-0.2,0.2-0.2,0.5,0,0.7c0.2,0.2,0.5,0.2,0.7,0l1-1l1,1c0.2,0.2,0.5,0.2,0.7,0
				S43.1,26.9,42.9,26.7z"/>
		</g>
	</g>
</g>
</svg>
