<?xml version="1.0" encoding="utf-8"?>
<!-- Generator: Adobe Illustrator 18.0.0, SVG Export Plug-In . SVG Version: 6.00 Build 0)  -->
<!DOCTYPE svg PUBLIC "-//W3C//DTD SVG 1.1//EN" "http://www.w3.org/Graphics/SVG/1.1/DTD/svg11.dtd">
<svg version="1.1" id="Layer_1" xmlns="http://www.w3.org/2000/svg" xmlns:xlink="http://www.w3.org/1999/xlink" x="0px" y="0px"
	 viewBox="0 0 512 512" enable-background="new 0 0 512 512" xml:space="preserve">
<g>
	<path fill="#FF7058" d="M510,317.3c-4.2-5.7-8.7-11.2-13.9-16.4c-26-26-59.9-39.6-94-40.4c-36.6-1-73.4,12.5-101.4,40.4
		c-27.8,27.8-41.3,64.6-40.3,101.2c0.7,34.2,14.2,68,40.3,94.1c5.2,5.2,10.8,9.7,16.5,13.9c-41.3-3.2-81.5-20.4-113-51.9
		c-32-32-49.4-73-52.2-114.8c-3.3-49.9,14.1-100.9,52.2-139.1c38.2-38.2,89.4-55.6,139.4-52c41.7,2.8,82.5,20.1,114.4,52
		C489.6,235.8,506.8,276.1,510,317.3z"/>
	<polygon fill="#ACB3BA" points="441.5,334.1 334.1,441.5 316.3,401.8 401.8,316.2 	"/>
	<circle fill="#ACB3BA" cx="214.8" cy="214.7" r="5.2"/>
	<circle fill="#ACB3BA" cx="229" cy="190.1" r="5.2"/>
	<circle fill="#ACB3BA" cx="122.7" cy="190.1" r="5.2"/>
	<circle fill="#ACB3BA" cx="229" cy="161.6" r="5.2"/>
	<circle fill="#ACB3BA" cx="137" cy="214.7" r="5.2"/>
	<circle fill="#ACB3BA" cx="161.6" cy="229" r="5.2"/>
	<circle fill="#ACB3BA" cx="190.1" cy="229" r="5.2"/>
	<path fill="#FFD15C" d="M457.6,333.5c4.3,7.4,6.8,16,6.8,25.2v12.5h-12.5c-9.1,0-17.7-2.5-25.1-6.7c0,0-0.1,0-0.1-0.1c0,0,0,0,0,0
		c0,0,0,0,0,0c0,0,0,0.1,0.1,0.1c8.5,14.8,13.5,32,13.5,50.3v25.1H415c-18.3,0-35.5-4.9-50.3-13.5c0,0-0.1-0.1-0.1-0.1c0,0,0,0,0,0
		c0,0,0,0,0,0c0,0,0.1,0.1,0.1,0.1c4.2,7.4,6.7,16,6.7,25.1v12.5h-12.5c-9.2,0-17.8-2.5-25.2-6.8c8.8,15.2,25.1,25.5,44,25.5h12.5
		v-12.5c0-6.1-1.2-11.9-3.2-17.3c17.7,15.1,40.5,24.4,65.6,24.4h25.1v-25.1c0-25.1-9.3-47.9-24.4-65.6c5.4,2,11.2,3.2,17.3,3.2h12.5
		v-12.5C483.1,358.7,472.8,342.3,457.6,333.5z"/>
	<path fill="#F1543F" d="M402.2,260.5c-36.6-1-73.4,12.5-101.4,40.4c-27.8,27.8-41.3,64.6-40.3,101.2
		c-38.9-14.1-75.3-33.9-108.4-58.7c-3.3-49.9,14.1-100.9,52.2-139.1c38.2-38.2,89.4-55.6,139.4-52
		C368.2,184.9,388,221.2,402.2,260.5z"/>
	<path fill="#40596B" d="M401.9,316.2l-85.7,85.7C240,385,172.4,346.9,119.5,294c-50.3-50.3-87.1-114-105.1-185.5
		C5.9,74.5,1.5,38.9,2,2.1c36.8-0.5,72.5,3.8,106.4,12.4C255.3,51.3,368.9,167.7,401.9,316.2z"/>
	<circle fill="#F2F2F2" cx="175.9" cy="175.8" r="68.7"/>
	<circle fill="#ACB3BA" cx="137" cy="136.9" r="5.2"/>
	<circle fill="#ACB3BA" cx="122.7" cy="161.6" r="5.2"/>
	<circle fill="#ACB3BA" cx="214.8" cy="136.9" r="5.2"/>
	<circle fill="#ACB3BA" cx="190.1" cy="122.7" r="5.2"/>
	<circle fill="#ACB3BA" cx="161.6" cy="122.7" r="5.2"/>
	<path fill="#CDD6E0" d="M108.4,14.4c-9,18.4-22.5,37.2-39.7,54.3c-17.3,17.3-36,30.7-54.3,39.7C5.9,74.5,1.5,38.9,2,2.1
		C38.9,1.5,74.5,5.9,108.4,14.4z"/>
	<circle fill="#84DBFF" cx="175.9" cy="175.8" r="44.1"/>
	<path fill="#54C0EB" d="M219.6,181.1c-1.2-9.5-5.4-18.6-12.6-25.9c-17.1-17.1-45.1-17.1-62.3,0c-7.3,7.3-11.4,16.4-12.5,25.9
		c-1.7-13,2.5-26.6,12.5-36.5c17.2-17.1,45.2-17.1,62.3,0C217,154.5,221.2,168.1,219.6,181.1z"/>
</g>
</svg>
