<?xml version="1.0" encoding="utf-8"?>
<!-- Generator: Adobe Illustrator 16.0.0, SVG Export Plug-In . SVG Version: 6.00 Build 0)  -->
<!DOCTYPE svg PUBLIC "-//W3C//DTD SVG 1.1//EN" "http://www.w3.org/Graphics/SVG/1.1/DTD/svg11.dtd">
<svg version="1.1" id="Layer_1" xmlns="http://www.w3.org/2000/svg" xmlns:xlink="http://www.w3.org/1999/xlink" x="0px" y="0px"
	 width="48px" height="48px" viewBox="0 0 48 48" enable-background="new 0 0 48 48" xml:space="preserve">
<g>
	<path fill="#E8EAE9" d="M23.069,12.122c-1.971-0.817-4.093-1.122-6.227-1.14c-0.348-0.003-0.698-0.062-1.035-0.179
		c-0.463-0.161-0.979-0.246-1.545-0.232c-1.539,0.039-2.878,1.072-3.408,2.518c-0.003,0.01-0.007,0.021-0.01,0.031l-5.432-2.252
		c-0.229,0.262-0.848,0.279-1.484,0.014c-0.415-0.171-0.721-0.469-0.842-0.835L0.393,8.746L0,9.696l6.912,6.868l4.678,1.939
		l0.4-0.967c0.265,0.221,0.562,0.41,0.888,0.56c1.808,0.828,4.014,0.147,5.024-1.566c0.332-0.564,0.508-1.173,0.543-1.772
		l3.088,1.281l1.611-3.886L23.069,12.122z"/>
	<path fill="#CED6E0" d="M19.074,15.019c0.167-1.525-0.444-3.042-1.622-4.021c-0.203-0.007-0.406-0.014-0.609-0.016
		c-0.348-0.003-0.698-0.061-1.035-0.179c-0.463-0.161-0.99-0.343-1.544-0.231c-1.472,0.297-2.597,1.377-3.408,2.517
		c-0.007,0.009-0.008,0.021-0.011,0.031l-0.596-0.247c-0.746,1.933-0.093,4.072,1.486,5.282l0.256-0.619
		c0.266,0.221,0.561,0.411,0.887,0.56c1.81,0.828,4.015,0.147,5.024-1.566c0.332-0.564,0.509-1.173,0.544-1.771L19.074,15.019z"/>
	<path fill="#FFD05C" d="M42.422,19.91l2.26,1.158c0.01,0.006,0.022,0.012,0.033,0.018c1.172,0.599,2.605,0.051,3.109-1.164
		c0.436-1.05,0.035-2.271-0.954-2.832c-0.366-0.207-0.726-0.424-1.082-0.65c-4.406-2.802-9.438-4.469-14.646-4.853
		c-1.869-0.138-3.66-0.812-5.156-1.94L25.61,9.491c-0.713-0.296-1.531,0.043-1.828,0.756c-0.188,0.456-0.643,0.744-1.135,0.721
		l-1.596-0.075l0.205,5.276l7.84,0.275C33.739,16.606,38.29,17.79,42.422,19.91"/>
	<path fill="#F6B44B" d="M21.136,9.653c-0.524,0.02-0.932,0.461-0.911,0.985l0.205,5.275c0.02,0.524,0.461,0.932,0.984,0.912
		c0.523-0.021,0.932-0.462,0.911-0.985l-0.204-5.276C22.1,10.041,21.661,9.633,21.136,9.653"/>
	<polygon fill="#CED6E0" points="10.088,13.439 5.463,11.522 5.413,10.868 10.313,12.899 	"/>
	<path fill="#E8EAE9" d="M16.569,6.917L9.705,0l-0.95,0.393l1.301,2.693c0.364,0.122,0.662,0.427,0.834,0.842
		c0.264,0.637,0.246,1.257-0.016,1.485l2.248,5.432c-0.012,0.003-0.021,0.007-0.032,0.011c-1.446,0.529-2.481,1.869-2.519,3.408
		c-0.014,0.565,0.07,1.08,0.23,1.542c0.116,0.336,0.176,0.685,0.178,1.032c0.019,2.135,0.319,4.257,1.137,6.23l0.031,0.076
		l3.887-1.608l-1.278-3.088c0.599-0.036,1.207-0.211,1.772-0.543c1.714-1.009,2.396-3.214,1.568-5.023
		c-0.148-0.326-0.338-0.622-0.559-0.887l-0.219-1.425L16.569,6.917z"/>
	<path fill="#FFD05C" d="M11.575,31.14L11.575,31.14c0.379,5.208,2.045,10.24,4.844,14.648c0.226,0.355,0.441,0.716,0.648,1.081
		c0.561,0.989,1.781,1.392,2.831,0.957c1.216-0.503,1.765-1.937,1.167-3.108c-0.006-0.011-0.012-0.023-0.017-0.034l-1.157-2.259
		c-2.118-4.134-3.298-8.684-3.458-13.327l-0.269-7.839l-5.276-0.208l0.073,1.612c0.023,0.497-0.285,0.929-0.742,1.126
		c-0.857,0.37-1.145,1.446-0.581,2.195C10.765,27.481,11.437,29.271,11.575,31.14"/>
	<path fill="#F6B44B" d="M15.909,20.432l-5.275-0.208c-0.523-0.021-0.965,0.387-0.985,0.91c-0.021,0.524,0.387,0.965,0.909,0.986
		l5.277,0.208c0.523,0.02,0.965-0.387,0.985-0.911C16.84,20.894,16.432,20.453,15.909,20.432"/>
	<path fill="#CED6E0" d="M15.989,13.914c0.334,0.812-0.051,1.74-0.86,2.075c-0.812,0.336-1.74-0.05-2.076-0.86
		c-0.335-0.811,0.05-1.74,0.861-2.075C14.723,12.718,15.653,13.103,15.989,13.914"/>
	<polygon fill="#CED6E0" points="13.326,9.809 11.527,5.463 10.874,5.413 12.901,10.312 	"/>
</g>
</svg>
