<?xml version="1.0" encoding="utf-8"?>
<!-- Generator: Adobe Illustrator 16.0.0, SVG Export Plug-In . SVG Version: 6.00 Build 0)  -->
<!DOCTYPE svg PUBLIC "-//W3C//DTD SVG 1.1//EN" "http://www.w3.org/Graphics/SVG/1.1/DTD/svg11.dtd">
<svg version="1.1" id="Layer_1" xmlns="http://www.w3.org/2000/svg" xmlns:xlink="http://www.w3.org/1999/xlink" x="0px" y="0px"
	 width="48px" height="48px" viewBox="0 0 48 48" enable-background="new 0 0 48 48" xml:space="preserve">
<g>
	<path fill="#84DBFF" d="M48,44.265v3.69H0v-3.69c0-1.91,1.16-3.63,2.94-4.32l4.03-1.58l3.789-1.5l6.141-2.41h0.01
		c1.77,2.35,4.43,3.53,7.09,3.53c2.65,0,5.301-1.18,7.08-3.53l0.01,0.03v-0.03l6.15,2.42l3.79,1.49l4.03,1.58
		C46.83,40.645,48,42.354,48,44.265"/>
	<path fill="#F8B64C" d="M16.911,34.455v-0.004l0.003,0.003l0.001-0.001v0.002c3.553,4.706,10.621,4.706,14.175,0.001l0.003-0.005
		v0.004v-5.193H16.906v5.194L16.911,34.455z"/>
	<path fill="#F8B64C" d="M16.479,19.578c0.156,1.795-0.714,3.338-1.945,3.445c-1.232,0.108-2.357-1.26-2.515-3.055
		s0.714-3.337,1.946-3.445C15.195,16.416,16.321,17.783,16.479,19.578"/>
	<path fill="#F8B64C" d="M35.984,19.968c-0.156,1.795-1.283,3.163-2.514,3.055c-1.232-0.108-2.104-1.65-1.945-3.445
		c0.156-1.795,1.282-3.163,2.514-3.055C35.271,16.63,36.142,18.173,35.984,19.968"/>
	<path fill="#FFD15C" d="M34.363,13.774v3.4c0,0.11,0,0.22-0.01,0.33c-0.01,0.61-0.05,1.22-0.13,1.82
		c-0.149,1.18-0.399,2.34-0.75,3.46c-0.85,2.71-2.28,5.21-4.21,7.32l-0.99,1.08c-0.899,0.99-2.18,1.55-3.52,1.55h-1.5
		c-1.33,0-2.609-0.57-3.51-1.55l-0.98-1.08c-1.369-1.49-2.49-3.19-3.32-5c-0.84-1.82-1.399-3.77-1.64-5.78
		c-0.069-0.57-0.12-1.15-0.12-1.729c0-0.01-0.01-0.01-0.01-0.021c-0.01-0.13-0.01-0.27-0.01-0.4c-0.01-0.08-0.01-0.15-0.01-0.23
		v-3.11c0-0.98,0.14-1.94,0.399-2.84c1.229-4.33,5.22-7.51,9.96-7.51c4.73,0,8.721,3.18,9.95,7.51
		C34.224,11.874,34.363,12.814,34.363,13.774"/>
	<g opacity="0.1">
		<g>
			<defs>
				<rect id="SVGID_25_" x="20.533" y="29.267" width="10.561" height="8.4"/>
			</defs>
			<clipPath id="SVGID_2_">
				<use xlink:href="#SVGID_25_"  overflow="visible"/>
			</clipPath>
			<path clip-path="url(#SVGID_2_)" fill="#40596B" d="M29.26,31.601l-0.99,1.08c-0.899,0.99-2.18,1.55-3.52,1.55h-1.5
				c-0.977,0-1.925-0.313-2.717-0.865l5.785,4.3c1.804-0.483,3.481-1.532,4.731-3.165c0.015-0.018,0.026-0.032,0.04-0.05
				l0.003-5.189h-0.034C30.514,30.08,29.928,30.871,29.26,31.601"/>
		</g>
	</g>
	<path fill="#F8B64C" d="M20.201,33.089l-0.016,0.019l0.232,0.173C20.34,33.224,20.275,33.151,20.201,33.089"/>
	<path fill="#40596B" d="M34.363,13.774v3.4c0,0.11,0,0.22-0.01,0.33c-0.029,0.11-0.05,0.17-0.05,0.17s-2.03-2.34-2.97-5.29
		c-0.2-0.63-0.91-0.94-1.5-0.63c-1.45,0.75-3.971,1.88-5.83,1.72c-1.859,0.16-4.38-0.97-5.83-1.72c-0.59-0.31-1.3,0-1.5,0.63
		c-0.939,2.95-2.971,5.29-2.971,5.29s-0.01-0.03-0.02-0.08c0-0.01-0.01-0.01-0.01-0.021c-0.01-0.13-0.01-0.27-0.01-0.4
		c-0.01-0.08-0.01-0.15-0.01-0.23v-3.11c0-0.98,0.14-1.94,0.399-2.84c1.229-4.33,5.22-7.51,9.96-7.51c4.73,0,8.721,3.18,9.95,7.51
		C34.224,11.874,34.363,12.814,34.363,13.774"/>
	<path fill="#40596B" d="M32.27,25.502l-2.49,2.613c0.061-4.193-5.773-3.524-5.773-3.524s-5.832-0.669-5.771,3.524l-2.491-2.613
		l-2.077-6.638l0.012,3.843l0.109,1.175c0.27,2.882,1.24,5.681,2.966,8.005c1.601,2.154,3.968,4.165,7.253,4.249
		c3.287-0.084,5.654-2.095,7.254-4.249c1.728-2.324,2.696-5.123,2.967-8.005l0.109-1.175l0.016-3.874L32.27,25.502z M27.174,29.564
		c0,0-0.826,0.551-3.168,0c-2.34,0.551-3.166,0-3.166,0c-1.238-0.895,1.067-2.087,1.067-2.087c1.479-0.263,2.099-1.734,2.099-1.734
		s0.62,1.471,2.1,1.734C26.105,27.477,28.412,28.669,27.174,29.564"/>
	<polygon fill="#40596B" points="13.654,16.586 14.535,16.581 14.249,20.726 13.666,18.864 	"/>
	<polygon fill="#40596B" points="34.363,16.586 33.482,16.581 33.77,20.726 34.352,18.864 	"/>
	<path fill="#FF7058" d="M35.554,12.738v0.655h-23.09v-0.655c0-3.991,2.097-7.495,5.251-9.463c1.713-1.075,3.743-1.699,5.911-1.699
		h0.767c2.168,0,4.193,0.619,5.905,1.694C33.451,5.239,35.554,8.743,35.554,12.738"/>
	<path fill="#F1543F" d="M30.696,6.487l-0.841,6.906l-0.133,1.106H18.295l-0.133-1.106l-0.84-6.906
		c-0.133-1.097,0.004-2.199,0.393-3.212c1.713-1.075,3.743-1.699,5.911-1.699h0.765c2.168,0,4.195,0.619,5.908,1.695
		C30.688,4.284,30.829,5.385,30.696,6.487"/>
	<path fill="#FF7058" d="M28.743,13.393h-9.47l-0.854-7.039C18.012,3,20.63,0.045,24.01,0.045c3.377,0,5.995,2.955,5.588,6.309
		L28.743,13.393z"/>
	<path fill="#F1543F" d="M35.563,16.581H12.454c-0.88,0-1.593-0.714-1.593-1.594s0.713-1.594,1.593-1.594h23.108
		c0.881,0,1.595,0.714,1.595,1.594S36.443,16.581,35.563,16.581"/>
	<polygon fill="#54C0EB" points="41.039,38.365 41.039,47.955 6.979,47.955 6.979,38.365 10.769,36.865 10.769,43.455 
		37.248,43.455 37.248,36.875 	"/>
</g>
</svg>
