<?xml version="1.0" encoding="utf-8"?>
<!-- Generator: Adobe Illustrator 18.0.0, SVG Export Plug-In . SVG Version: 6.00 Build 0)  -->
<!DOCTYPE svg PUBLIC "-//W3C//DTD SVG 1.1//EN" "http://www.w3.org/Graphics/SVG/1.1/DTD/svg11.dtd">
<svg version="1.1" id="Layer_1" xmlns="http://www.w3.org/2000/svg" xmlns:xlink="http://www.w3.org/1999/xlink" x="0px" y="0px"
	 viewBox="0 0 48 48" enable-background="new 0 0 48 48" xml:space="preserve">
<g>
	<path fill="#40596B" d="M38.3,48H9.7c-1.1,0-2-0.9-2-2V2c0-1.1,0.9-2,2-2h28.6c1.1,0,2,0.9,2,2v44C40.3,47.1,39.4,48,38.3,48z"/>
	<rect x="11.7" y="6" fill="#F2F2F2" width="24.6" height="31.6"/>
	<path fill="#334A5E" d="M28.3,2.1h-8.6c-0.4,0-0.8,0.4-0.8,0.8v0c0,0.4,0.4,0.8,0.8,0.8h8.6c0.4,0,0.8-0.4,0.8-0.8v0
		C29.1,2.5,28.7,2.1,28.3,2.1z"/>
	<circle fill="#334A5E" cx="24" cy="42.8" r="2.6"/>
	<g>
		<path fill="#FF7058" d="M27.4,14.8c-1.3,0-2.5,0.5-3.4,1.4c-0.9-0.8-2.1-1.4-3.4-1.4c-2.8,0-5,2.2-5,5c0,3.9,8.4,9,8.4,9
			s8.4-5.1,8.4-9C32.4,17.1,30.2,14.8,27.4,14.8z"/>
		<g>
			<path fill="#FFD15C" d="M24.4,27.2C24.4,27.2,24.4,27.2,24.4,27.2c-0.3,0-0.5-0.2-0.5-0.5l-1-5.8l-1.7,3.4
				c-0.1,0.2-0.3,0.3-0.5,0.3c-0.2,0-0.4-0.1-0.5-0.2L18.7,22H15c-0.3,0-0.5-0.2-0.5-0.5c0-0.3,0.2-0.5,0.5-0.5h4
				c0.2,0,0.4,0.1,0.5,0.3l1.2,1.8l2-4.1c0.1-0.2,0.3-0.3,0.6-0.3c0.2,0,0.4,0.2,0.5,0.5l0.8,4.9l1.9-7.3c0.1-0.2,0.2-0.4,0.5-0.4
				c0.2,0,0.4,0.1,0.5,0.3l2.2,4.3H33c0.3,0,0.5,0.2,0.5,0.5S33.3,22,33,22h-3.6c-0.2,0-0.4-0.1-0.5-0.3l-1.7-3.3L25,26.8
				C24.9,27.1,24.7,27.2,24.4,27.2z"/>
		</g>
	</g>
</g>
</svg>
