<?xml version="1.0" encoding="utf-8"?>
<!-- Generator: Adobe Illustrator 18.0.0, SVG Export Plug-In . SVG Version: 6.00 Build 0)  -->
<!DOCTYPE svg PUBLIC "-//W3C//DTD SVG 1.1//EN" "http://www.w3.org/Graphics/SVG/1.1/DTD/svg11.dtd">
<svg version="1.1" id="Layer_1" xmlns="http://www.w3.org/2000/svg" xmlns:xlink="http://www.w3.org/1999/xlink" x="0px" y="0px"
	 viewBox="0 0 512 512" enable-background="new 0 0 512 512" xml:space="preserve">
<g>
	<path fill="#84DBFF" d="M488.8,179.9H23.2C11.5,179.9,2,189.4,2,201v287.8c0,11.7,9.5,21.1,21.2,21.1h465.7
		c11.7,0,21.2-9.5,21.2-21.1V201C510,189.4,500.5,179.9,488.8,179.9z"/>
	<rect x="40.7" y="224.4" fill="#FFFFFF" width="417.7" height="239.9"/>
	<path fill="#F2F2F2" d="M225.1,98.8l-117.5,80.5H32.4L198.6,60.9C200.9,77.3,211,91.3,225.1,98.8z"/>
	<path fill="#F2F2F2" d="M251.7,80.6l-2.2,1.5l-2.2-1.5c0.7-0.3,1.4-0.7,2.2-1.1C250.4,79.9,251,80.3,251.7,80.6z"/>
	<path fill="#F2F2F2" d="M249.5,79.5c0.8,0.4,1.5,0.8,2.2,1.1l-2.2,1.5l-2.2-1.5C248,80.3,248.7,79.9,249.5,79.5z"/>
	<path fill="#F2F2F2" d="M466.7,179.3h-75.1L274,98.8c14.1-7.6,24.3-21.5,26.6-37.9L466.7,179.3z"/>
	<g>
		<path fill="#FF7058" d="M71.7,344.9c0-8.6,1.3-15.8,3.9-21.7c1.9-4.3,4.5-8.2,7.9-11.6c3.3-3.4,7-6,10.9-7.6
			c5.3-2.2,11.3-3.3,18.2-3.3c12.5,0,22.4,3.9,29.9,11.6s11.2,18.5,11.2,32.2c0,13.6-3.7,24.3-11.1,32c-7.4,7.7-17.3,11.6-29.8,11.6
			c-12.6,0-22.6-3.8-30-11.5S71.7,358.4,71.7,344.9z M89.3,344.3c0,9.6,2.2,16.8,6.6,21.8c4.4,4.9,10,7.4,16.8,7.4
			s12.4-2.4,16.8-7.3c4.4-4.9,6.5-12.2,6.5-22c0-9.7-2.1-16.9-6.4-21.7c-4.2-4.8-9.9-7.1-16.9-7.1s-12.7,2.4-17,7.2
			C91.5,327.3,89.3,334.6,89.3,344.3z"/>
		<path fill="#FF7058" d="M178.9,386.6v-84.5h27.4c10.4,0,17.2,0.4,20.3,1.3c4.8,1.3,8.9,4,12.2,8.3s4.9,9.7,4.9,16.5
			c0,5.2-0.9,9.5-2.8,13.1c-1.9,3.5-4.3,6.3-7.2,8.3c-2.9,2-5.9,3.4-8.9,4c-4.1,0.8-10,1.2-17.7,1.2H196v31.9H178.9z M196,316.4v24
			h9.3c6.7,0,11.2-0.4,13.5-1.3c2.3-0.9,4-2.3,5.3-4.1c1.3-1.9,1.9-4.1,1.9-6.6c0-3.1-0.9-5.6-2.7-7.6s-4.1-3.2-6.9-3.7
			c-2-0.4-6.1-0.6-12.3-0.6H196z"/>
		<path fill="#FF7058" d="M269.5,386.6v-84.5h62.7v14.3h-45.6v18.7H329v14.2h-42.5v23h47.2v14.2H269.5z"/>
		<path fill="#FF7058" d="M360.3,386.6v-84.5h16.6l34.6,56.4v-56.4h15.9v84.5h-17.1l-34.1-55.1v55.1H360.3z"/>
	</g>
	<ellipse fill="#4CDBC4" cx="249.5" cy="53.5" rx="51.6" ry="51.5"/>
	<path fill="#4CDBC4" d="M251.7,80.6l-2.2,1.5l-2.2-1.5c0.7-0.3,1.4-0.7,2.2-1.1C250.4,79.9,251,80.3,251.7,80.6z"/>
</g>
</svg>
