<?xml version="1.0" encoding="utf-8"?>
<!-- Generator: Adobe Illustrator 18.0.0, SVG Export Plug-In . SVG Version: 6.00 Build 0)  -->
<!DOCTYPE svg PUBLIC "-//W3C//DTD SVG 1.1//EN" "http://www.w3.org/Graphics/SVG/1.1/DTD/svg11.dtd">
<svg version="1.1" id="Layer_1" xmlns="http://www.w3.org/2000/svg" xmlns:xlink="http://www.w3.org/1999/xlink" x="0px" y="0px"
	 viewBox="0 0 48 48" enable-background="new 0 0 48 48" xml:space="preserve">
<g>
	<path fill="#FFD15C" d="M35.9,14.3h-5.6h-6.6H6.4V17l16.5,8.3c0.5,0.3,0.9,0.8,0.9,1.4v1.6c0,2.8,2.3,5.1,5.1,5.1h14.1
		c2.8,0,5.1-2.3,5.1-5.1v-2C48,19.7,42.6,14.3,35.9,14.3z"/>
	<path fill="#FFFFFF" d="M44.5,25c-0.6-4.1-4.2-7.3-8.5-7.3h-0.6V25H44.5z"/>
	<polygon fill="#FFD15C" points="31.9,14.3 27.3,14.3 28.2,13 31,13 	"/>
	<rect x="28.5" y="11.8" fill="#F1543F" width="2.2" height="1.2"/>
	<path fill="#FF7058" d="M16.1,10.9L16.1,10.9c0-0.5,0.4-0.8,0.8-0.8h25.2c0.5,0,0.8,0.4,0.8,0.8l0,0c0,0.5-0.4,0.8-0.8,0.8H16
		C15.5,11.8,16.1,11.4,16.1,10.9z"/>
	<rect x="30.8" y="33.4" fill="#CDD6E0" width="2" height="3.3"/>
	<rect x="39" y="33.4" fill="#CDD6E0" width="2" height="3.3"/>
	<path fill="#ACB3BA" d="M46.7,34.3c-0.3-0.4-1-0.5-1.4-0.2L43,35.9H28.7l-2.3-1.8c-0.4-0.3-1.1-0.3-1.4,0.2
		c-0.3,0.4-0.3,1.1,0.2,1.4l2.5,2c0.2,0.1,0.4,0.2,0.6,0.2h15c0.2,0,0.4-0.1,0.6-0.2l2.5-2C47,35.3,47,34.7,46.7,34.3z"/>
	<circle fill="#40596B" cx="4.4" cy="15.9" r="4.4"/>
	<circle fill="#FFFFFF" cx="4.4" cy="15.9" r="2"/>
	<circle fill="#FF7058" cx="29.3" cy="21.9" r="3.9"/>
	<g>
		<rect x="26.7" y="21.3" fill="#FFFFFF" width="5.3" height="1.2"/>
		<rect x="28.7" y="19.2" fill="#FFFFFF" width="1.2" height="5.3"/>
	</g>
</g>
</svg>
