<?xml version="1.0" encoding="utf-8"?>
<!-- Generator: Adobe Illustrator 18.0.0, SVG Export Plug-In . SVG Version: 6.00 Build 0)  -->
<!DOCTYPE svg PUBLIC "-//W3C//DTD SVG 1.1//EN" "http://www.w3.org/Graphics/SVG/1.1/DTD/svg11.dtd">
<svg version="1.1" id="Layer_1" xmlns="http://www.w3.org/2000/svg" xmlns:xlink="http://www.w3.org/1999/xlink" x="0px" y="0px"
	 viewBox="0 0 48 48" enable-background="new 0 0 48 48" xml:space="preserve">
<g>
	<g>
		<path fill="#344A5E" d="M48,27.2v-6.4l-6.1-2.3c-0.4-1.1-0.8-2.2-1.4-3.3l2.6-5.9l-4.5-4.5l-5.9,2.6c-1-0.6-2.1-1-3.3-1.4L27.2,0
			h-6.4l-2.3,6.1c-1.1,0.4-2.2,0.8-3.3,1.4L9.3,4.8L4.8,9.3l2.6,5.9c-0.6,1-1,2.1-1.4,3.3L0,20.8v6.4l6.1,2.3
			c0.4,1.1,0.8,2.2,1.4,3.3l-2.6,5.9l4.5,4.5l5.9-2.6c1,0.6,2.1,1,3.3,1.4l2.3,6.1h6.4l2.3-6.1c1.1-0.4,2.2-0.8,3.3-1.4l5.9,2.6
			l4.5-4.5l-2.6-5.9c0.6-1,1-2.1,1.4-3.3L48,27.2z"/>
	</g>
	<g>
		<g>
			<g>
				<path fill="#F3F3F3" d="M38.4,24l-3.9,4.4L30.6,24h1.9c0-4.7-3.8-8.5-8.5-8.5c-1.1,0-2.1,0.2-3.1,0.6l-1.7-3.6
					c1.5-0.6,3.2-1,4.8-1c6.9,0,12.5,5.6,12.5,12.5H38.4z"/>
			</g>
		</g>
		<g>
			<g>
				<path fill="#F3F3F3" d="M9.6,24l3.9-4.4l3.9,4.4h-1.9c0,4.7,3.8,8.5,8.5,8.5c1.1,0,2.1-0.2,3.1-0.6l1.7,3.6
					c-1.5,0.6-3.2,1-4.8,1c-6.9,0-12.5-5.6-12.5-12.5H9.6z"/>
			</g>
		</g>
	</g>
</g>
</svg>
