<?xml version="1.0" encoding="utf-8"?>
<!-- Generator: Adobe Illustrator 16.0.0, SVG Export Plug-In . SVG Version: 6.00 Build 0)  -->
<!DOCTYPE svg PUBLIC "-//W3C//DTD SVG 1.1//EN" "http://www.w3.org/Graphics/SVG/1.1/DTD/svg11.dtd">
<svg version="1.1" id="Layer_1" xmlns="http://www.w3.org/2000/svg" xmlns:xlink="http://www.w3.org/1999/xlink" x="0px" y="0px"
	 width="48px" height="48px" viewBox="0 0 48 48" enable-background="new 0 0 48 48" xml:space="preserve">
<g>
	<path fill="#8AD7F8" d="M45,0H3C1.342,0,0,1.343,0,3v27.011c0,1.657,1.342,3,3,3h42c1.656,0,3-1.343,3-3V3C48,1.343,46.656,0,45,0"
		/>
	<path fill="#55C0EB" d="M18.025,24.54H5.416C4.635,24.54,4,25.174,4,25.956c0,0.781,0.635,1.416,1.416,1.416h12.609
		c0.783,0,1.416-0.635,1.416-1.416C19.441,25.174,18.809,24.54,18.025,24.54"/>
	<path fill="#55C0EB" d="M18.025,18.97H5.416C4.635,18.97,4,19.604,4,20.386c0,0.782,0.635,1.416,1.416,1.416h12.609
		c0.783,0,1.416-0.634,1.416-1.416C19.441,19.604,18.809,18.97,18.025,18.97"/>
	<rect y="7.011" fill="#344A5E" width="48" height="6.863"/>
	<path fill="#F3F3F3" d="M28.139,32.37V28.77c0-3.097,2.521-5.618,5.617-5.618c3.098,0,5.619,2.521,5.619,5.618v3.601h2.5V28.77
		c0-4.477-3.643-8.118-8.119-8.118c-4.475,0-8.117,3.642-8.117,8.118v3.601H28.139z"/>
	<path fill="#344A5E" d="M41.336,31.676H26.178c-1.656,0-3,1.343-3,3V45c0,1.656,1.344,3,3,3h15.158c1.656,0,3-1.344,3-3V34.676
		C44.336,33.019,42.992,31.676,41.336,31.676"/>
	<path fill="#FFFFFF" d="M34.9,40.417l0.711,2.151h-3.707l0.709-2.151c-0.436-0.346-0.709-0.871-0.709-1.46
		c0-1.018,0.832-1.85,1.855-1.85c1.018,0,1.852,0.832,1.852,1.85C35.611,39.553,35.328,40.078,34.9,40.417"/>
</g>
</svg>
