<?xml version="1.0" encoding="utf-8"?>
<!-- Generator: Adobe Illustrator 20.1.0, SVG Export Plug-In . SVG Version: 6.00 Build 0)  -->
<!DOCTYPE svg PUBLIC "-//W3C//DTD SVG 1.1//EN" "http://www.w3.org/Graphics/SVG/1.1/DTD/svg11.dtd">
<svg version="1.1" id="Layer_1" xmlns="http://www.w3.org/2000/svg" xmlns:xlink="http://www.w3.org/1999/xlink" x="0px" y="0px"
	 viewBox="0 0 49 49" enable-background="new 0 0 49 49" xml:space="preserve">
<g>
	<path fill="#FFD15C" d="M23.6,41.5V29.3c0-1-1.2-1.4-1.8-0.8l-8.6,8.6c-0.4,0.4-0.4,1.2,0.1,1.6c2.6,2.1,5.8,3.4,9.2,3.8
		C23,42.7,23.6,42.1,23.6,41.5z"/>
	<path fill="#FFD15C" d="M10.2,13.2c-2.1,2.6-3.4,5.8-3.8,9.2c-0.1,0.6,0.4,1.2,1.1,1.2h12.2c1,0,1.4-1.2,0.8-1.8l-8.6-8.6
		C11.4,12.7,10.6,12.7,10.2,13.2z"/>
	<path fill="#FFD15C" d="M6.4,26.6c0.4,3.5,1.8,6.6,3.8,9.2c0.4,0.5,1.1,0.5,1.6,0.1l8.6-8.6c0.7-0.7,0.2-1.8-0.8-1.8H7.5
		C6.9,25.4,6.3,26,6.4,26.6z"/>
	<path fill="#FFD15C" d="M42.6,22.4c-0.4-3.5-1.8-6.6-3.8-9.2c-0.4-0.5-1.1-0.5-1.6-0.1l-8.6,8.6c-0.7,0.7-0.2,1.8,0.8,1.8h12.2
		C42.1,23.6,42.7,23,42.6,22.4z"/>
	<path fill="#FFD15C" d="M23.6,19.7V7.5c0-0.6-0.5-1.1-1.2-1.1c-3.5,0.4-6.6,1.8-9.2,3.8c-0.5,0.4-0.5,1.1-0.1,1.6l8.6,8.6
		C22.4,21.1,23.6,20.7,23.6,19.7z"/>
	<path fill="#FFD15C" d="M25.4,7.5v12.2c0,1,1.2,1.4,1.8,0.8l8.6-8.6c0.4-0.4,0.4-1.2-0.1-1.6c-2.6-2.1-5.8-3.4-9.2-3.8
		C26,6.3,25.4,6.8,25.4,7.5z"/>
	<path fill="#FFD15C" d="M38.8,35.8c2.1-2.6,3.4-5.8,3.8-9.2c0.1-0.6-0.4-1.2-1.1-1.2H29.3c-1,0-1.4,1.2-0.8,1.8l8.6,8.6
		C37.6,36.3,38.4,36.3,38.8,35.8z"/>
	<path fill="#FFD15C" d="M26.6,42.6c3.5-0.4,6.6-1.8,9.2-3.8c0.5-0.4,0.5-1.1,0.1-1.6l-8.6-8.6c-0.7-0.7-1.8-0.2-1.8,0.8v12.2
		C25.4,42.1,26,42.7,26.6,42.6z"/>
	<path fill="none" d="M24.5,3.7C13,3.7,3.7,13,3.7,24.5c0,0.3,0,0.6,0,0.9c0.5,11.1,9.6,19.9,20.8,19.9c11.2,0,20.3-8.9,20.8-19.9
		c0-0.3,0-0.6,0-0.9C45.3,13,36,3.7,24.5,3.7z"/>
	<path fill="#FFD15C" d="M24.5,0.5c-13.3,0-24,10.7-24,24c0,0.3,0,0.6,0,0.9c0.5,12.8,11,23.1,24,23.1s23.5-10.3,24-23.1
		c0-0.3,0-0.6,0-0.9C48.5,11.2,37.8,0.5,24.5,0.5z M24.5,45.3c-11.2,0-20.3-8.9-20.8-19.9c0-0.3,0-0.6,0-0.9C3.7,13,13,3.7,24.5,3.7
		S45.3,13,45.3,24.5c0,0.3,0,0.6,0,0.9C44.8,36.5,35.7,45.3,24.5,45.3z"/>
</g>
</svg>
