<?xml version="1.0" encoding="utf-8"?>
<!-- Generator: Adobe Illustrator 18.0.0, SVG Export Plug-In . SVG Version: 6.00 Build 0)  -->
<!DOCTYPE svg PUBLIC "-//W3C//DTD SVG 1.1//EN" "http://www.w3.org/Graphics/SVG/1.1/DTD/svg11.dtd">
<svg version="1.1" id="Layer_1" xmlns="http://www.w3.org/2000/svg" xmlns:xlink="http://www.w3.org/1999/xlink" x="0px" y="0px"
	 viewBox="0 0 48 48" enable-background="new 0 0 48 48" xml:space="preserve">
<g>
	<g>
		<g>
			<g>
				<circle fill="#344A5E" cx="24" cy="24" r="24"/>
			</g>
		</g>
		<g>
			<g>
				<circle fill="#FFFFFF" cx="24" cy="24" r="19.3"/>
			</g>
		</g>
		<g>
			<path fill="#FFD15C" d="M32.4,25.1H24c-0.6,0-1.1-0.5-1.1-1.1c0-0.6,0.5-1.1,1.1-1.1h8.4c0.6,0,1.1,0.5,1.1,1.1
				C33.5,24.6,33,25.1,32.4,25.1z"/>
		</g>
		<g>
			<g>
				<path fill="#F3705A" d="M24,25.1c-0.6,0-1.1-0.5-1.1-1.1V11.6c0-0.6,0.5-1.1,1.1-1.1c0.6,0,1.1,0.5,1.1,1.1V24
					C25.1,24.6,24.6,25.1,24,25.1z"/>
			</g>
		</g>
		<g>
			<g>
				<circle fill="#8AD7F8" cx="24" cy="24" r="3.2"/>
			</g>
		</g>
		<g>
			<g>
				<circle fill="#55C0EB" cx="24" cy="24" r="1.8"/>
			</g>
		</g>
		<g>
			<g>
				<circle fill="#E8EAE9" cx="24" cy="7.8" r="1.3"/>
			</g>
		</g>
		<g>
			<g>
				<circle fill="#E8EAE9" cx="12.6" cy="12.6" r="1.3"/>
			</g>
		</g>
		<g>
			<g>
				<circle fill="#E8EAE9" cx="7.8" cy="24" r="1.3"/>
			</g>
		</g>
		<g>
			<g>
				<circle fill="#E8EAE9" cx="12.6" cy="35.4" r="1.3"/>
			</g>
		</g>
		<g>
			<g>
				<circle fill="#E8EAE9" cx="24" cy="40.2" r="1.3"/>
			</g>
		</g>
		<g>
			<g>
				<circle fill="#E8EAE9" cx="35.4" cy="35.4" r="1.3"/>
			</g>
		</g>
		<g>
			<g>
				<circle fill="#E8EAE9" cx="40.2" cy="24" r="1.3"/>
			</g>
		</g>
		<g>
			<g>
				<circle fill="#E8EAE9" cx="35.4" cy="12.6" r="1.3"/>
			</g>
		</g>
	</g>
</g>
</svg>
