<?xml version="1.0" encoding="utf-8"?>
<!-- Generator: Adobe Illustrator 18.0.0, SVG Export Plug-In . SVG Version: 6.00 Build 0)  -->
<!DOCTYPE svg PUBLIC "-//W3C//DTD SVG 1.1//EN" "http://www.w3.org/Graphics/SVG/1.1/DTD/svg11.dtd">
<svg version="1.1" id="Layer_1" xmlns="http://www.w3.org/2000/svg" xmlns:xlink="http://www.w3.org/1999/xlink" x="0px" y="0px"
	 viewBox="0 0 48 48" enable-background="new 0 0 48 48" xml:space="preserve">
<g>
	<path fill="#40596B" d="M48,27.2v-6.5l-4.6-1.9c-0.5-1.8-1.2-3.4-2.1-5l1.9-4.6l-4.6-4.6l-4.6,1.9c-1.5-0.9-3.2-1.6-5-2.1L27.2,0
		h-6.5l-1.9,4.6c-1.8,0.5-3.4,1.2-5,2.1L9.3,4.7L4.7,9.3l1.9,4.6c-0.9,1.5-1.6,3.2-2.1,5L0,20.8v6.5l4.6,1.9c0.5,1.8,1.2,3.4,2.1,5
		l-1.9,4.6l4.6,4.6l4.6-1.9c1.5,0.9,3.2,1.6,5,2.1l1.9,4.6h6.5l1.9-4.6c1.8-0.5,3.4-1.2,5-2.1l4.6,1.9l4.6-4.6l-1.9-4.6
		c0.9-1.5,1.6-3.2,2.1-5L48,27.2z"/>
	<circle fill="#FFFFFF" cx="24" cy="24" r="14.4"/>
	<g>
		<path fill="#84DBFF" d="M24,12.1V24h11.9C35.9,17.5,30.5,12.1,24,12.1z"/>
		<path fill="#F2F2F2" d="M24,24l8.4,8.4c2.1-2.1,3.5-5.1,3.5-8.4H24z"/>
		<path fill="#FF7058" d="M32.4,32.4c-2.1,2.1-5.1,3.5-8.4,3.5c-3.3,0-6.2-1.3-8.4-3.5c-2.1-2.1-3.5-5.1-3.5-8.4
			c0-6.5,5.3-11.8,11.9-11.8V24L32.4,32.4z"/>
	</g>
</g>
</svg>
