<?xml version="1.0" encoding="utf-8"?>
<!-- Generator: Adobe Illustrator 18.0.0, SVG Export Plug-In . SVG Version: 6.00 Build 0)  -->
<!DOCTYPE svg PUBLIC "-//W3C//DTD SVG 1.1//EN" "http://www.w3.org/Graphics/SVG/1.1/DTD/svg11.dtd">
<svg version="1.1" id="Layer_1" xmlns="http://www.w3.org/2000/svg" xmlns:xlink="http://www.w3.org/1999/xlink" x="0px" y="0px"
	 viewBox="0 0 48 48" enable-background="new 0 0 48 48" xml:space="preserve">
<g>
	<g>
		<g>
			<g>
				<ellipse fill="#FFD15D" cx="13.2" cy="33.1" rx="6.1" ry="14.9"/>
				<ellipse fill="#F6B64C" cx="17.9" cy="32.6" rx="6.1" ry="14.9"/>
			</g>
			<g>
				<ellipse fill="#FFD15D" cx="34.8" cy="33.1" rx="6.1" ry="14.9"/>
				<ellipse fill="#F6B64C" cx="30.1" cy="32.6" rx="6.1" ry="14.9"/>
				<ellipse fill="#FFD15D" cx="24" cy="32.1" rx="6.1" ry="14.9"/>
			</g>
		</g>
		<g>
			<g>
				<g>
					<path fill="#F6B64C" d="M22,29.8c0.1,1-3.6,1.9-5.4,1.5c-1.8-0.3-3.1-2-3.1-3.3c0-1.3,1.3-3,3.1-3.3
						C18.4,24.7,22.1,29.4,22,29.8z"/>
					<path fill="#435B6C" d="M16.6,30.3c-1.3-0.1-2.3-1.3-2.3-2.4c0-1.1,1-2.2,2.3-2.4c1.1-0.1,4,3.4,4.5,4.2
						c-0.3,0.1-1,0.5-2.8,0.6C17.8,30.4,17.2,30.4,16.6,30.3z"/>
				</g>
			</g>
			<g>
				<g>
					<path fill="#F6B64C" d="M26,29.8c-0.1,1,3.6,1.9,5.4,1.5c1.8-0.3,3.1-2,3.1-3.3c0-1.3-1.3-3-3.1-3.3
						C29.6,24.7,25.9,29.4,26,29.8z"/>
					<path fill="#435B6C" d="M31.4,30.3c1.3-0.1,2.3-1.3,2.3-2.4c0-1.1-1-2.2-2.3-2.4c-1.1-0.1-4,3.4-4.5,4.2c0.3,0.1,1,0.5,2.8,0.6
						C30.2,30.4,30.8,30.4,31.4,30.3z"/>
				</g>
			</g>
		</g>
		<g>
			<g>
				<path fill="#435B6C" d="M14.6,34.9c1.2-0.7,4.5,2.3,9.4,2.1c4.8,0.2,8.1-2.8,9.4-2.1c1.5,0.6-0.6,8.2-9.4,8.2
					C15.2,43,13.1,35.5,14.6,34.9z"/>
			</g>
			<g>
				<path fill="#FFFFFF" d="M21.1,39.2v-2.5c-0.6-0.1-1.3-0.3-1.8-0.5l-0.6,2.2c0.4,0.4,1,0.6,1.6,0.8H21.1z"/>
				<path fill="#FFFFFF" d="M22,40.8l-1.4-0.4l-0.4,2c0.7,0.2,1.5,0.4,2.3,0.5l-0.1-1.8L22,40.8z"/>
				<path fill="#FFFFFF" d="M24.1,36.9l0.3,2.9l1.4,0.4l1.2-0.7l-0.7-2.8C25.7,36.9,24.9,37,24.1,36.9z"/>
				<path fill="#FFFFFF" d="M30.8,39.1h-0.8l-1.5,0.6L29,42c1.1-0.5,2-1.2,2.7-1.9L30.8,39.1z"/>
			</g>
		</g>
		<ellipse fill="#354B5E" cx="24" cy="20.1" rx="18.8" ry="3.4"/>
		<path fill="#435B6C" d="M35.2,0.3C23.9-1.9,15.7,8.9,12.1,19c0,2.8,23.8,2.8,23.8,0C29.6,10,27,2,35.2,0.3z"/>
		<g>
			
				<line fill="none" stroke="#FFFFFF" stroke-width="0.5" stroke-linejoin="round" stroke-miterlimit="10" x1="19.1" y1="15.8" x2="18.5" y2="20.1"/>
		</g>
		<path fill="#F3705B" d="M33.6,15.4c-1.9,0.7-5.1,1.3-9.6,1.3c-5.1,0-8.6-0.8-10.3-1.6c-0.4,0.9-0.8,1.8-1.1,2.7
			c0.6,0.3,1.2,0.5,2,0.7c2.5,0.7,5.8,1.1,9.4,1.1c4.1,0,8.3-0.5,11.2-1.7C34.6,17.1,34.1,16.3,33.6,15.4z"/>
		<polygon fill="none" stroke="#FFFFFF" stroke-width="0.5" stroke-linejoin="round" stroke-miterlimit="10" points="17,15.6 
			16.4,19.8 20.6,20.3 21.2,16.1 		"/>
	</g>
</g>
</svg>
