<?xml version="1.0" encoding="utf-8"?>
<!-- Generator: Adobe Illustrator 18.0.0, SVG Export Plug-In . SVG Version: 6.00 Build 0)  -->
<!DOCTYPE svg PUBLIC "-//W3C//DTD SVG 1.1//EN" "http://www.w3.org/Graphics/SVG/1.1/DTD/svg11.dtd">
<svg version="1.1" id="Layer_1" xmlns="http://www.w3.org/2000/svg" xmlns:xlink="http://www.w3.org/1999/xlink" x="0px" y="0px"
	 viewBox="0 0 48 48" enable-background="new 0 0 48 48" xml:space="preserve">
<g>
	<g>
		<g>
			<g>
				<path fill="#FFD15C" d="M15.7,35.8c0,0-0.6-2.4-0.5-2.7c0.1-0.3,0.4-0.5,0.4-0.5s1-1.5,1.4-1.7c0.4-0.2,5.1-0.4,5.1-0.4l6.1,0.7
					c0,0-0.4,0.9-0.4,1.9c0,0,0,2.5-0.2,2.9c-0.1,0.4-0.7,1.1-0.7,1.1S21.3,39.5,15.7,35.8z"/>
			</g>
		</g>
	</g>
	<g>
		<g>
			<g>
				<g>
					<g>
						<path fill="#FFD15C" d="M29.7,25.2c0,0,1.5,2.4,2.9,2.9c1.3,0.4,1.5,0,1.5-0.3c0.1-0.3,0.6-1.3,1-1.9s1.6-3.7,2.1-5.2
							c0.5-1.6,0.9-2.1,0.9-2.1s0.5-1.1,0.6-1.7c0.1-0.6,0.6-2.1,0.6-2.1l-0.6-0.1l-0.1,0.1c0,0-0.1,0.3-0.1,0.5
							c0,0.1-0.4,0.9-0.4,1.1L37.9,16l0.4-1.6c0,0,0.2-0.9-0.2-1c-0.3-0.1-0.5,0.5-0.6,0.9c-0.1,0.4-0.3,0.9-0.3,1.4
							c0,0-0.1,0.2-0.1,0c0-0.2,0.3-1.2,0.3-1.2s0.2-0.5-0.2-0.7c-0.4-0.1-0.6,0.3-0.6,0.3s-0.2-0.3-0.5-0.2
							c-0.3,0.1-0.3,0.3-0.3,0.3l0,0.4l-0.1,1.1L35,16c0,0,0,0.9,0.2,1.2c0.2,0.3,0.4,1.2,0.2,1.5c-0.2,0.3-0.9,2.1-1.1,2.6
							c-0.2,0.5-1.2,1.9-1.6,2.1C32.3,23.8,29.7,25.2,29.7,25.2z"/>
					</g>
				</g>
			</g>
			<g>
				<g>
					<g>
						<path fill="#F5B54C" d="M32.9,23.4C32.9,23.4,32.9,23.4,32.9,23.4c-0.1,0.2-0.1,0.2-0.2,0.3c0,0.1-0.1,0.2-0.1,0.4
							c0,0.1,0,0.1-0.1,0.2c0,0,0,0.1,0,0.1l0,0.1l0,0.1c0,0.2-0.1,0.3-0.1,0.4c0,0.1-0.1,0.3-0.1,0.4c0,0.1-0.1,0.2-0.1,0.3
							c0,0,0,0.1,0,0.1c0,0,0,0,0,0s0,0,0,0c0,0,0,0,0-0.1c0-0.1,0-0.2,0.1-0.3c0-0.1,0.1-0.2,0.1-0.4c0-0.1,0.1-0.3,0.1-0.4l0-0.1
							l0-0.1c0,0,0-0.1,0-0.1c0-0.1,0-0.2,0-0.2c0-0.1,0.1-0.3,0.1-0.4c0-0.1,0.1-0.2,0.1-0.3c0-0.1,0-0.1,0-0.1L32.9,23.4z"/>
					</g>
				</g>
			</g>
			<g>
				<g>
					<g>
						<path fill="#425A6B" d="M10.7,17l0.2-0.1c0.2,0,0.4,0.8,0.1,0.9C10.8,17.8,10.7,17,10.7,17z"/>
					</g>
				</g>
			</g>
			<g>
				<g>
					<g>
						<path fill="#F3F3F3" d="M42.1,13.9c-0.7,0.1-1.4,0.2-2.2,0.2C34.2,14.6,10.9,17,10.9,17l-0.3,0.6c0.6-0.2,21.8-2.3,31.6-3.2
							V13.9z"/>
					</g>
				</g>
				<g>
					<g>
						<path fill="#F3F3F3" d="M48,16.2c0-0.5-0.7-1.7-1.4-2.2c-0.7-0.5-1.9-0.5-2.3-0.4c-0.1,0.1-0.5,0.1-0.9,0.2v0.5
							c0.1,0,0.1,0,0.2,0c0.6,0,0.8,0.5,0.8,0.5s0.4,1,0.7,1.5c0.3,0.5,1,2,1.8,1.9C47.7,18.2,48,16.7,48,16.2z"/>
					</g>
				</g>
			</g>
			<g>
				<g>
					<g>
						<path fill="#E8EAE8" d="M48,16.2c0-0.5-0.7-1.7-1.4-2.2c-0.7-0.5-1.9-0.5-2.3-0.4c-0.1,0.1-0.5,0.1-0.9,0.2v0.5
							c0.1,0,0.1,0,0.2,0c0.6,0,0.8,0.5,0.8,0.5s0.4,1,0.7,1.5c0.3,0.5,1,2,1.8,1.9C47.7,18.2,48,16.7,48,16.2z"/>
					</g>
				</g>
				<g>
					<g>
						<path fill="#E8EAE8" d="M42.1,13.9c-0.7,0.1-1.4,0.2-2.2,0.2C34.2,14.6,10.9,17,10.9,17l-0.3,0.6c0.6-0.2,21.8-2.3,31.6-3.2
							V13.9z"/>
					</g>
				</g>
			</g>
			<g>
				<g>
					<g>
						<path fill="#F5B54C" d="M35.4,15.2c0-0.1,0.1-0.2,0.2-0.3c0.1-0.1,0.1-0.2,0.2-0.3l0,0l0,0c0.1,0,0.1-0.1,0.2-0.1
							c0.1,0,0.1-0.1,0.2-0.1c0.1-0.1,0.3-0.2,0.4-0.2l0,0l0,0c0,0,0,0,0,0.1c0,0,0,0,0,0.1c0,0,0,0.1,0,0.1c0,0,0,0,0,0l0,0
							c0,0,0,0.1,0,0.1c0,0,0,0,0,0l0,0c0,0,0,0,0,0l0,0c0,0,0,0,0,0.1c0,0,0,0,0,0.1l-0.1,0.1c0,0,0,0-0.1,0.1c0,0,0,0-0.1,0.1
							l-0.1,0c0,0,0,0-0.1,0l-0.1,0.1l0,0c0,0.1,0,0.1,0,0.2c0,0.1,0,0.1-0.1,0.2c0,0.1,0,0.1-0.1,0.2c0,0,0,0.1,0,0.1
							c0,0,0,0.1,0,0.1c0,0,0-0.1,0-0.1c0,0,0,0,0,0c0,0,0,0,0,0c0-0.1,0-0.1,0.1-0.2c0-0.1,0.1-0.2,0.1-0.3l0,0l0,0l0.1-0.1
							c0,0,0,0,0.1,0l0.1,0c0,0,0,0,0.1,0c0,0,0,0,0.1-0.1l0-0.1c0,0,0,0,0-0.1c0,0,0,0,0-0.1l0,0c0,0,0,0,0,0l0,0c0,0,0,0,0,0
							c0,0,0,0,0-0.1l0,0c0,0,0,0,0,0c0,0,0,0,0-0.1c0,0,0,0,0-0.1c0,0,0,0,0-0.1l0.1,0c-0.2,0.1-0.3,0.1-0.5,0.2
							c-0.1,0-0.2,0.1-0.2,0.1c-0.1,0-0.2,0.1-0.2,0.1l0,0c-0.1,0.1-0.1,0.2-0.2,0.2C35.5,15,35.5,15.1,35.4,15.2z"/>
					</g>
				</g>
			</g>
			<g>
				<g>
					<g>
						<path fill="#425A6B" d="M46.9,18.2c-0.8,0-1.6-1.4-1.8-1.9c-0.3-0.5-0.7-1.5-0.7-1.5s-0.2-0.4-0.8-0.5c-0.6,0-1.6,0.1-1.6,0.1
							l0,0l0-0.5c0,0,0,0,0,0s2-0.1,2.4-0.3c0.4-0.2,1.5-0.2,2.3,0.4c0.7,0.5,1.3,1.7,1.4,2.2C48,16.7,47.7,18.2,46.9,18.2z"/>
					</g>
				</g>
			</g>
			<g>
				<g>
					<g>
						<path fill="#425A6B" d="M17.7,9.9c0,0-0.3,5.6,1.5,7.2C21,18.8,19.4,10.4,17.7,9.9z"/>
					</g>
				</g>
			</g>
			<g>
				<g>
					<g>
						<path fill="#425A6B" d="M25,10.3l0.3,6.5l-2.9,0.1c-0.9-3.2-0.2-5.5,2.7-6.6"/>
					</g>
				</g>
			</g>
			<g>
				<g>
					<g>
						<path fill="#FFD15C" d="M18.1,10.1c0,0,0.4,2.4,0.4,2.8c0,0.5,0.2,0.8,0.2,0.8l0.2,2.5c0,0-0.4,0.8-1.3,1.5
							c-0.8,0.7,2.3,7,2.3,7l4.6,1.4l2.8-5.1l-1.1-4.6l-0.9-1c0,0-1.3,0.2-1.8-0.2l-0.2-0.5c0,0,0.8-1.4,1-2.5
							c0.1-0.4,0.1-1.1,0.1-1.9c0-2.1-1.6-3.9-3.7-4c-0.6-0.1-1.1,0-1.4,0.3C17.9,8,17.9,9.4,18.1,10.1z"/>
					</g>
				</g>
			</g>
			<g>
				<g>
					<g>
						<path fill="#425A6B" d="M19.7,22.2c0,0,1.9,1,2.3,1.6c0.4,0.6,0.6,0.6,0.8,0.5c0.2,0,0.5-0.3,0.5-0.6s1-2.5,2.4-3
							c1.5-0.5,1.5,3,1.5,3s-1,2-2.9,2.1C22.6,25.9,18.9,23.2,19.7,22.2z"/>
					</g>
				</g>
			</g>
			<g>
				<g>
					<g>
						<path fill="#F5B54C" d="M26.2,16.5l-0.2-0.2c-0.4-0.4-0.9-0.6-1.4-0.6c-0.4,0-0.8-0.1-1-0.2l-0.2-0.5c0,0-1.3,1.2-2.4,1
							c-1.1-0.3-2.3-2.1-2.3-2.2c0,0,0,0,0,0c0,0.1,0.1,0.1,0.1,0.1l0,0.2l0,0c0.1,0.4,0.3,0.8,0.6,1.3c1.8,2.5,5.4,2.9,7.3,2.9
							L26.2,16.5z"/>
					</g>
				</g>
			</g>
			<g>
				<g>
					<g>
						<path fill="#67C5B8" d="M23.5,15.3c0,0,1.9,3.4,2,4.5c0.1,1.1-1.5,4.4-2.4,5.4c0,0-1.5-1.3-2.5-2.1c-1-0.8-2.7-4.2-2.7-5.5
							c0,0-0.9,0.9-1.5,1c-0.6,0.1-1.9,0-2.4,1.4c-0.5,1.4-1.3,4.7-2.5,6.9c0,0,1.9,0.9,2.4,1.1s0.9,0.6,0.9,0.6s1.6-2.5,1.8-4.1
							c0,0,0.4-0.3,0.4-0.4c0,0,0.2,2.1,0.5,2.8c0.3,0.7,0.2,3.5-0.7,4.1c0,0,3,1.7,6.8,0.7c0,0,4.1-0.2,4.7,0.1c0,0,0.1-1,0.5-2.2
							c0.4-1.2,0.5-5.5,0.5-5.5l0.5,1c0,0,2.3-0.2,3.3-1.6c0,0-1.4-2.9-1.4-3.3c0-0.4-1.1-3.9-2.2-4.7c-1-0.8-1.6-0.1-2.3,0
							S23.5,15.3,23.5,15.3z"/>
					</g>
				</g>
			</g>
			<g>
				<g>
					<g>
						<path fill="#425A6B" d="M19.8,7.7c0,0,3.3,3,4.2,3.6c0.9,0.6,1,5.5,0.2,6.7c0,0,0.7,0.4,1.1-0.1c0.3-0.5,0.3-1.4,0.3-1.4
							s0.2,0.9-0.1,1.6c0,0,2.4-0.2,2-1.7s-1.1-1.7-1.2-3.2s-0.5-4.8-1.8-6.2c-1.3-1.4-2.7-2-3.9-1.6c0,0-0.8-0.5-1.8,0.4
							c-1,0.9-1.9,3.6-2.2,5c-0.3,1.4-0.8,6.2,0.6,7.9c0,0-0.5-0.8-0.5-1.3c0,0,0.4,1.2,1.5,1.7c0,0-0.4-0.6,0.2-1.1
							c0.6-0.5,0.4-2.7,0.1-3.4c-0.3-0.8-0.9-3.5,0-4.7C19.5,8.7,19.8,7.7,19.8,7.7z"/>
					</g>
				</g>
			</g>
			<g>
				<g>
					<g>
						<path fill="#425A6B" d="M0.4,17.9c-0.6,0-0.5,1.2,0.1,1.2c2.8-0.5,6.6-0.9,10.7-1.3c-0.2-0.3-0.2-0.6-0.1-0.9
							C6.8,17.3,2.9,17.7,0.4,17.9z"/>
					</g>
				</g>
			</g>
			<g>
				<g>
					<g>
						<path fill="#FFD15C" d="M6.1,16.4c0,0-0.2,0.3,0.1,0.6S7,17.5,7,17.5s0.3,0.5,0.3,0.5l-0.1,0.2l-2.5,0.3c0,0,0.3,0.8,0.4,1.2
							C5.3,20,5.8,20.8,6,21c0.2,0.2,0.8,1,0.9,1.3c0,0.3,0.9,4.3,1.5,5.4c0.6,1.1,1.6,2.6,1.6,2.9c0,0.3,0.3,0.7,0.7,0.7
							c0.5,0,1.3,0,2.2-0.9c0.9-0.9,1.7-1.9,1.7-1.9l-0.5-1.5l-2.7-0.1c0,0-1.5-2.5-1.9-3.7c-0.4-1.2-1.1-2.4-1.1-2.4
							S8.4,20.3,8.4,20c0-0.3,0-1.4,0-1.8c0-0.1,0-0.2-0.1-0.3l-0.9-1c-0.1-0.1-0.2-0.1-0.3-0.2C6.8,16.7,6.5,16.7,6.1,16.4z"/>
					</g>
				</g>
			</g>
			<g>
				<g>
					<g>
						<g>
							<path fill="#FFD15C" d="M4.4,17.5c0,0,0-0.1,0.1-0.2c0.1-0.1,0.3-0.3,0.3-0.3s0.1,0,0.1,0.1c0,0,0.3-0.5,0.7-0.3
								c0.1-0.1,0.2-0.3,0.3-0.3l0.4-0.1c0,0,0.3-0.3,0.6-0.1c0.3,0.2,0.5,0.6,0.5,0.6L7,17.3L7,17.4c0,0,0.2,0.4,0,0.5
								c-0.2,0.1-0.4-0.3-0.4-0.3v0.2c0,0.1,0,0.2-0.1,0.2c-0.1,0.1-0.2,0.1-0.3,0.1c-0.1,0-0.1-0.1-0.1-0.1
								c-0.1-0.1-0.2-0.3-0.2-0.4c0,0-0.2,0.4-0.4,0.3c-0.2-0.1-0.4-0.5-0.4-0.5L4.4,17.5z"/>
						</g>
					</g>
				</g>
				<g>
					<g>
						<g>
							<g>
								<path fill="#F5B54C" d="M4.9,17.5C4.9,17.5,4.9,17.4,4.9,17.5c0-0.1,0-0.1,0-0.2c0,0,0-0.1,0-0.1c0,0,0,0,0,0s0,0,0,0
									c0,0,0,0.1,0,0.1C4.9,17.4,4.9,17.4,4.9,17.5C4.9,17.4,4.9,17.5,4.9,17.5z"/>
							</g>
						</g>
					</g>
					<g>
						<g>
							<g>
								<g>
									<path fill="#F5B54C" d="M5.6,16.9C5.6,16.9,5.6,16.9,5.6,16.9c0,0.1,0,0.1,0,0.1c0,0,0,0.1,0,0.1c0,0,0,0.1,0,0.2
										c0,0,0,0,0,0.1c0,0,0,0,0,0.1c0,0,0,0.1,0,0.1c0,0,0,0.1,0,0.1c0,0,0,0,0,0s0,0,0,0c0,0,0,0,0-0.1c0,0,0-0.1-0.1-0.1
										c0,0,0,0,0-0.1c0,0,0-0.1,0-0.1c0-0.1,0-0.2,0-0.3C5.6,17,5.6,16.9,5.6,16.9C5.6,16.9,5.6,16.9,5.6,16.9z"/>
								</g>
							</g>
						</g>
						<g>
							<g>
								<g>
									<path fill="#F5B54C" d="M6.5,17.6C6.5,17.6,6.5,17.6,6.5,17.6c0-0.1,0-0.1-0.1-0.2c0-0.1,0-0.1-0.1-0.2
										c0-0.1,0-0.1-0.1-0.2c0-0.1,0-0.1-0.1-0.2c0,0,0-0.1,0-0.1c0,0,0-0.1,0-0.1c0-0.1,0-0.1,0-0.1c0,0,0,0,0,0s0,0,0,0.1
										c0,0,0,0.1,0,0.1c0,0,0,0.1,0,0.1c0,0,0,0.1,0,0.1c0,0.1,0,0.1,0.1,0.2c0,0.1,0,0.1,0.1,0.2c0,0.1,0,0.1,0,0.2
										C6.5,17.5,6.5,17.5,6.5,17.6C6.5,17.6,6.5,17.6,6.5,17.6z"/>
								</g>
							</g>
						</g>
					</g>
				</g>
				<g>
					<g>
						<g>
							<path fill="#F3F3F3" d="M6.4,17.9C6.4,17.9,6.4,17.9,6.4,17.9c-0.1,0-0.2,0.1-0.3,0.2c0,0,0,0,0,0c0,0,0,0,0,0
								c0-0.2-0.1-0.2-0.1-0.3c0,0,0-0.1,0-0.1c0.1,0,0.1-0.1,0.2-0.1c0,0,0.1,0,0.1,0C6.3,17.6,6.3,17.7,6.4,17.9
								C6.4,17.9,6.4,17.9,6.4,17.9z"/>
						</g>
					</g>
				</g>
				<g>
					<g>
						<g>
							<path fill="#F3F3F3" d="M7,17.8c-0.1,0-0.1,0-0.2,0.1c0,0,0,0,0,0c0,0,0,0,0,0c-0.1-0.1-0.1-0.1-0.2-0.2c0,0,0,0,0,0
								c0,0,0,0,0,0c0,0,0-0.1,0-0.1c0,0,0,0,0.1,0c0,0,0.1,0,0.1,0c0,0,0.1,0,0.1,0.1C6.9,17.6,6.9,17.7,7,17.8z"/>
						</g>
					</g>
				</g>
				<g>
					<g>
						<g>
							<path fill="#F3F3F3" d="M5.5,17.8c-0.1,0-0.1,0.1-0.2,0.1c-0.1,0-0.1-0.1-0.2-0.1c0,0-0.1-0.1-0.1-0.1v0c0,0,0,0,0-0.1
								c0,0,0.1-0.1,0.1,0c0,0,0.1,0.1,0.1,0.1C5.4,17.7,5.5,17.7,5.5,17.8z"/>
						</g>
					</g>
				</g>
			</g>
			<g>
				<g>
					<g>
						<g>
							<path fill="#F5B54C" d="M7,16.6c-0.1,0-0.1,0-0.2,0c-0.1,0-0.1,0-0.2,0c-0.1,0-0.1,0-0.2,0c-0.1,0-0.1,0-0.2,0
								c-0.1,0-0.1,0-0.2-0.1c0,0,0,0,0,0l-0.1,0l0,0c0,0,0.1,0,0.1,0c0,0,0.1,0,0.1,0c0,0,0.1,0,0.1,0c0.1,0,0.1,0,0.2,0
								c0.1,0,0.1,0,0.2,0c0.1,0,0.1,0,0.2,0C6.9,16.7,7,16.7,7,16.6c0,0.1,0.1,0.1,0.2,0.1c0,0,0.1,0,0.1,0.1c0,0,0,0,0.1,0.1l0,0
								c0,0,0,0-0.1-0.1C7.3,16.7,7.2,16.6,7,16.6z"/>
						</g>
					</g>
					<g>
						<g>
							<path fill="#F5B54C" d="M7,17.5C7,17.4,7,17.4,7,17.5L7,17.5c-0.1-0.1-0.2-0.1-0.3-0.2c0,0-0.1,0-0.1,0c0,0-0.1,0-0.1,0
								c0,0-0.1,0-0.1-0.1c0,0-0.1,0-0.1-0.1c0,0,0,0-0.1-0.1l0,0l0,0l0,0c0,0,0,0,0,0l0,0c0,0,0,0,0,0c0,0,0,0,0,0c0,0,0,0,0,0
								c0,0,0,0,0,0c0,0,0,0,0,0c0,0,0,0,0,0c0,0,0-0.1,0-0.1c0,0,0,0,0,0l-0.1,0c0,0,0,0.1,0,0.1c0,0,0,0,0,0.1c0,0,0,0,0,0.1
								c0,0,0,0,0,0.1c0,0,0,0,0,0.1c0,0,0,0,0,0.1c0,0,0,0,0,0l0,0c0,0,0,0,0,0l0,0l0,0l0,0c0,0,0.1,0.1,0.1,0.1c0,0,0.1,0,0.1,0.1
								c0,0,0.1,0,0.1,0.1c0,0,0.1,0,0.1,0c0,0,0.1,0,0.1,0c0.1,0,0.1,0,0.2,0.1C6.9,17.5,6.9,17.5,7,17.5z"/>
						</g>
					</g>
				</g>
				<g>
					<g>
						<g>
							<path fill="#FFD15C" d="M7,17.5c0,0,0.1,0.2,0.2,0.3h1.1l-0.9-1c-0.1-0.1-0.2-0.1-0.3-0.2c-0.3,0-0.6,0-1-0.2
								c0,0-0.2,0.3,0.1,0.6S7,17.5,7,17.5z"/>
						</g>
					</g>
				</g>
				<g>
					<g>
						<g>
							<path fill="#F3F3F3" d="M6.7,16.7c-0.1,0.2-0.3,0.2-0.5,0.1c-0.2-0.1-0.2-0.3-0.2-0.3C6.3,16.6,6.6,16.7,6.7,16.7z"/>
						</g>
					</g>
				</g>
			</g>
			<g>
				<g>
					<g>
						<path fill="#F3F3F3" d="M4.8,17.1c0,0,0,0.3-0.2,0.2L4.8,17.1z"/>
					</g>
				</g>
			</g>
			<g>
				<g>
					<g>
						<path fill="#FFD15C" d="M36.7,14.2c0,0,0.4,0.5-0.4,0.9c0,0-0.1,0.5-0.2,0.7c0,0-0.1,0.6,0,0.7s-0.5,0.2-0.5,0.2L35,16
							l0.4-0.9l0.3-0.5L36.7,14.2z"/>
					</g>
				</g>
			</g>
			<g>
				<g>
					<g>
						<path fill="#FFFFFF" d="M36.7,14.2c0,0-0.3,0.8-0.8,0.4L36.7,14.2z"/>
					</g>
				</g>
			</g>
		</g>
		<g>
			<g>
				<g>
					<path fill="#F26F5A" d="M10.7,41.2c0,0.2,0.2,0,0.6,0.1c0.4,0.1,0.3,0.9,0.3,0.9l1.1,0.6h16.3c-0.1-2.4-1.6-5.2-1.6-5.2
						l0.3-1.5c-0.3,0.7-1.2,0.9-1.2,0.9c-2.6,0.4-6.7-0.6-7.8-1c-0.9-0.3-2.6-1.1-3.1-1.9c-0.5-0.8,0.1-1.4,0.1-1.4
						c-0.5,0.3-1.1,1.9-1.1,1.9c-0.8,0.6-2.9,3-3.2,3.7c-0.2,0.7-0.9,2.1-0.9,2.1l0.5,0.1C10.9,40.5,10.7,40.9,10.7,41.2z"/>
				</g>
			</g>
		</g>
		<g>
			<g>
				<g>
					<path fill="#F05640" d="M28.1,42.8c-0.4-1.5-0.9-3.4-1.3-3.9c0,0,0.6,2.1,0.8,3.9H28.1z"/>
				</g>
			</g>
			<g>
				<g>
					<polygon fill="#F05640" points="20,42.8 20.2,38.3 19.5,42.8 					"/>
				</g>
			</g>
			<g>
				<g>
					<path fill="#F05640" d="M14,35.3c-0.5,0.2-0.9,0.6-1.4,1.1c-0.6,0.8-1.2,1.5-1.3,1.9c-0.2,0.7-0.9,2.1-0.9,2.1l0.5,0.1
						C10.9,40.5,13,35.9,14,35.3z"/>
				</g>
			</g>
			<g>
				<g>
					<polygon fill="#F05640" points="26.9,42.8 26,39 26,39 26.3,42.8 					"/>
				</g>
			</g>
			<g>
				<g>
					<polygon fill="#F05640" points="21.6,42.8 21.7,38.5 21.2,42.8 					"/>
				</g>
			</g>
			<g>
				<g>
					<polygon fill="#F05640" points="13.5,42.8 16.4,37.3 12.6,42.8 12.6,42.8 					"/>
				</g>
			</g>
			<g>
				<g>
					<path fill="#F05640" d="M10.7,41.2c0,0.2,0.2,0,0.6,0.1c0,0,0,0,0,0l3.2-5.5C13.4,36.5,10.7,41.2,10.7,41.2z"/>
				</g>
			</g>
			<g>
				<g>
					<polygon fill="#F05640" points="11.5,42.2 12.3,42.6 15.4,36.4 11.5,42.2 					"/>
				</g>
			</g>
			<g>
				<g>
					<polygon fill="#F05640" points="24.8,42.8 24.6,38.9 24.5,42.8 					"/>
				</g>
			</g>
			<g>
				<g>
					<polygon fill="#F05640" points="18.3,42.8 18.8,38 18,42.8 					"/>
				</g>
			</g>
			<g>
				<g>
					<polygon fill="#F05640" points="23.2,42.8 23.2,38.8 22.9,42.8 					"/>
				</g>
			</g>
		</g>
	</g>
	<g>
		<g>
			<g>
				<path fill="#67C5B8" d="M12.5,24.7c-0.3,0.8-0.6,1.5-1,2.1c0,0,1.9,0.7,2.4,0.9s0.9,0.8,0.9,0.8s1.4-2.3,1.7-3.8H12.5z"/>
			</g>
		</g>
	</g>
</g>
</svg>
