<?xml version="1.0" encoding="utf-8"?>
<!-- Generator: Adobe Illustrator 18.0.0, SVG Export Plug-In . SVG Version: 6.00 Build 0)  -->
<!DOCTYPE svg PUBLIC "-//W3C//DTD SVG 1.1//EN" "http://www.w3.org/Graphics/SVG/1.1/DTD/svg11.dtd">
<svg version="1.1" id="Layer_1" xmlns="http://www.w3.org/2000/svg" xmlns:xlink="http://www.w3.org/1999/xlink" x="0px" y="0px"
	 viewBox="0 0 512 512" enable-background="new 0 0 512 512" xml:space="preserve">
<g>
	<path fill="#FFD15C" d="M442.7,168.2L342.2,73.7l-62.9-59l-39.1,34.2l68.3,67.2l72.5,71.3c-0.3,0.3-0.3,0.6-0.6,1
		c-14.2,13.7-23.1,32.8-23.1,54c0,27.7,15.2,51.8,37.6,64.8c0.6,0.4,1.1,1,1.9,1.5l-37,60.1l-60.9,98.6H360l48.5-78.6l46-74.7
		c30.8-9.5,53.3-37.8,53.3-71.7C507.8,204.4,479.4,173.3,442.7,168.2z M432.6,277.5c-19.4,0-35-15.7-35-35c0-19.3,15.7-34.9,35-34.9
		c19.3,0,34.9,15.7,34.9,34.9C467.5,261.8,451.8,277.5,432.6,277.5z"/>
	<path fill="#F8B64C" d="M408.4,388.8L360,467.5h-61.1l60.9-98.6C377.9,371.1,394.6,378.2,408.4,388.8z"/>
	<path fill="#CDD6E0" d="M346.2,383.7c-48.2,0-87.3,39.1-87.3,87.3h174.6C433.5,422.8,394.4,383.7,346.2,383.7z"/>
	<path fill="#ACB3BA" d="M475.3,510H217v-37c0-1.1,0.9-2,2-2h254.3c1.1,0,2,0.9,2,2V510z"/>
	<path fill="#F8B64C" d="M342.2,73.7c-1.5,7-4.9,13.7-10.3,19.1l-23.4,23.4l-68.3-67.2l39.1-34.2L342.2,73.7z"/>
	<path fill="#334A5E" d="M320.7,81.5l-34.6,34.6l13.3,13.3c8.3,8.4,8.3,21.7,0,30l-65.2,65.2l-130.1-130l65.3-65.2
		c8.3-8.3,21.6-8.3,29.8,0l13.4,13.3l34.6-34.6c8.3-8.3,21.7-8.3,30,0l43.4,43.4C329,59.8,329,73.3,320.7,81.5z"/>
	<path fill="#FF7058" d="M184.2,270.8c-12.2,12.2-27,20.1-42.7,23.7c-29,7-60.8-1-83.5-23.7c-22.7-22.7-30.6-54.3-23.7-83.4
		c3.5-15.7,11.4-30.5,23.7-42.8c34.9-34.8,91.3-34.8,126.2,0C219.1,179.6,219.1,236,184.2,270.8z"/>
	<path fill="#F1543F" d="M184.2,270.8c-12.2,12.2-27,20.1-42.7,23.7L34.3,187.4c3.5-15.7,11.4-30.5,23.7-42.8
		c34.9-34.8,91.3-34.8,126.2,0C219.1,179.6,219.1,236,184.2,270.8z"/>
	<path fill="#40596B" d="M231,97.8L231,97.8c-52.4-52.4-137.5-52.4-189.9,0L4.2,134.8l189.9,189.9l36.9-36.9
		C283.5,235.3,283.5,150.3,231,97.8z"/>
</g>
</svg>
