<?xml version="1.0" encoding="utf-8"?>
<!-- Generator: Adobe Illustrator 18.0.0, SVG Export Plug-In . SVG Version: 6.00 Build 0)  -->
<!DOCTYPE svg PUBLIC "-//W3C//DTD SVG 1.1//EN" "http://www.w3.org/Graphics/SVG/1.1/DTD/svg11.dtd">
<svg version="1.1" id="Layer_1" xmlns="http://www.w3.org/2000/svg" xmlns:xlink="http://www.w3.org/1999/xlink" x="0px" y="0px"
	 viewBox="0 0 512 512" enable-background="new 0 0 512 512" xml:space="preserve">
<g>
	<path fill="#F2F2F2" d="M430.8,2H81.2C69.5,2,60,11.5,60,23.2V488c0,11.7,9.5,21.2,21.2,21.2h349.6c11.7,0,21.2-9.5,21.2-21.2V23.2
		C452,11.5,442.5,2,430.8,2z"/>
	<rect x="102.4" y="44.4" fill="#84DBFF" width="137.5" height="159.6"/>
	<rect x="263.2" y="158.3" fill="#CDD6E0" width="148.3" height="23.1"/>
	<rect x="100.8" y="225.7" fill="#CDD6E0" width="310.7" height="23.1"/>
	<rect x="100.2" y="293" fill="#FFD15C" width="311.6" height="23.1"/>
	<path fill="#CDD6E0" d="M174,509.8c0.1-45.3,37.1-82,82.4-81.9c45.2,0.1,81.9,37,81.9,82.1h47.6c0-4.8-0.3-9.5-0.8-14.2l25.6-17.9
		l-11-33.5l-31.3,0.7c-4.6-8-10.1-15.4-16.2-22.2l10.3-29.6l-28.5-20.7l-24.9,18.9c-8.3-3.7-17.1-6.7-26.2-8.6l-9-29.8h-35.2
		l-9,29.8c-9.4,2-18.4,5-26.9,8.9l-25-18.8l-28.4,20.8l10.4,29.6c-6.1,6.8-11.5,14.3-16.1,22.3l-31.3-0.5l-10.8,33.5l25.7,17.7
		c-0.5,4.4-0.7,8.9-0.7,13.4H174C174,509.9,174,509.8,174,509.8z"/>
</g>
</svg>
