<?xml version="1.0" encoding="utf-8"?>
<!-- Generator: Adobe Illustrator 18.0.0, SVG Export Plug-In . SVG Version: 6.00 Build 0)  -->
<!DOCTYPE svg PUBLIC "-//W3C//DTD SVG 1.1//EN" "http://www.w3.org/Graphics/SVG/1.1/DTD/svg11.dtd">
<svg version="1.1" id="Layer_1" xmlns="http://www.w3.org/2000/svg" xmlns:xlink="http://www.w3.org/1999/xlink" x="0px" y="0px"
	 viewBox="0 0 48 48" enable-background="new 0 0 48 48" xml:space="preserve">
<g>
	
		<rect x="31.2" y="31.9" transform="matrix(0.7093 -0.7049 0.7049 0.7093 -14.2179 34.1452)" fill="#334A5E" width="6.1" height="4.9"/>
	<path fill="#40596B" d="M33.7,5.8C26-1.9,13.6-1.9,5.9,5.7s-7.7,20.1-0.1,27.8s20.1,7.7,27.8,0.1S41.3,13.5,33.7,5.8z"/>
	<path fill="#F2F2F2" d="M8.8,30.5c-6-6-6-15.8,0.1-21.8c6-6,15.8-6,21.8,0.1c6,6,6,15.8-0.1,21.8C24.6,36.6,14.8,36.6,8.8,30.5z"/>
	<path fill="#54C0EB" d="M29,29C23.9,34,15.5,34,10.5,28.9c-5.1-5.1-5.1-13.4,0.1-18.5S23.9,5.3,29,10.4C34.1,15.6,34.1,23.9,29,29z
		"/>
	<path fill="#40596B" d="M25.8,25.8c-3.3,3.3-8.7,3.3-12.1,0c-3.3-3.3-3.3-8.7,0-12.1c3.3-3.3,8.7-3.3,12.1,0
		C29.2,17.1,29.2,22.5,25.8,25.8z"/>
	<path fill="#FF7058" d="M46.2,38L40,31.8c-0.4-0.4-1-0.4-1.4,0l-6.9,6.9c-0.4,0.4-0.4,1,0,1.4l6.2,6.2c2.3,2.3,6,2.3,8.3,0
		C48.5,44,48.5,40.3,46.2,38z"/>
	<circle fill="#FFFFFF" cx="15.8" cy="14" r="2.7"/>
	<circle fill="#FFFFFF" cx="19.4" cy="17.5" r="1.6"/>
</g>
</svg>
