<?xml version="1.0" encoding="utf-8"?>
<!-- Generator: Adobe Illustrator 18.0.0, SVG Export Plug-In . SVG Version: 6.00 Build 0)  -->
<!DOCTYPE svg PUBLIC "-//W3C//DTD SVG 1.1//EN" "http://www.w3.org/Graphics/SVG/1.1/DTD/svg11.dtd">
<svg version="1.1" id="Layer_1" xmlns="http://www.w3.org/2000/svg" xmlns:xlink="http://www.w3.org/1999/xlink" x="0px" y="0px"
	 viewBox="0 0 48 48" enable-background="new 0 0 48 48" xml:space="preserve">
<g>
	<g>
		<g>
			<path fill="#E8EAE9" d="M39.6,10.3h-3.2l-8.4,16.6c0,5.5,4.5,10,10,10c5.5,0,10-4.5,10-10L39.6,10.3z M31.4,26.9L38,13.8
				l6.6,13.1H31.4z"/>
		</g>
		<g>
			<path fill="#E8EAE9" d="M11.6,10.3H8.4L0,26.9c0,5.5,4.5,10,10,10c5.5,0,10-4.5,10-10L11.6,10.3z M3.4,26.9L10,13.8l6.6,13.1H3.4
				z"/>
		</g>
		<path fill="#415A6B" d="M26.4,41.6V2.4C26.4,1.1,25.3,0,24,0s-2.4,1.1-2.4,2.4v39.2H26.4z"/>
		<g>
			<g>
				<path fill="#415A6B" d="M10,48L10,48L38,48v0c0-2.1-1.7-3.9-3.9-3.9H13.8C11.7,44.1,10,45.9,10,48z"/>
			</g>
			<g>
				<path fill="#344A5E" d="M32.8,44.1L32.8,44.1c0-2.1-1.7-3.9-3.9-3.9h-9.9c-2.1,0-3.9,1.7-3.9,3.9v0H32.8z"/>
			</g>
		</g>
		<g>
			<path fill="#415A6B" d="M0,9.6L0,9.6c0-1.3,1.1-2.4,2.4-2.4l43.1,0c1.3,0,2.4,1.1,2.4,2.4v0c0,1.3-1.1,2.4-2.4,2.4L2.4,12
				C1.1,12,0,10.9,0,9.6z"/>
		</g>
	</g>
</g>
</svg>
