<?xml version="1.0" encoding="utf-8"?>
<!-- Generator: Adobe Illustrator 18.0.0, SVG Export Plug-In . SVG Version: 6.00 Build 0)  -->
<!DOCTYPE svg PUBLIC "-//W3C//DTD SVG 1.1//EN" "http://www.w3.org/Graphics/SVG/1.1/DTD/svg11.dtd">
<svg version="1.1" id="Layer_1" xmlns="http://www.w3.org/2000/svg" xmlns:xlink="http://www.w3.org/1999/xlink" x="0px" y="0px"
	 viewBox="0 0 512 512" enable-background="new 0 0 512 512" xml:space="preserve">
<g>
	<path fill="#40596B" d="M506.8,132.6c0,0-32.9-83.9-64.4-79.9c-1.9,0.3-3.6,0.8-5.5,1.6c0,0-125.1,117.9-199.9,232.2
		c0,0-20,36.9-104.6,43c-1.8,0.2-3.9,0.3-5.9,0.3c0,0-31.9,5.9-63.6,18.3c-23.4,9.1-46.7,21.7-57.1,38c-6.2,9.8-4.5,22.5,4,30.5
		c11.3,10.7,36.1,24.9,90.6,34c25.5,4.3,57.5,7.4,97.7,8.6c34.1,1,68-9.4,93.5-31.7c15.3-13.4,29.5-32.1,37.7-58.1
		c5.5-17.6,13.6-34.2,23.4-49.9c19.4-31,51.2-73,75.7-63.5l8.6,185.6h26.4l2.2-131.8c0.5-29.8,7.5-59.3,21.3-85.9
		C501.4,196,516.8,157.1,506.8,132.6z"/>
	<path fill="#334A5E" d="M395.5,127.7c-33.6,41.2-134.8,189.5-134.8,189.5s-33.5,51.3-100.5,48c-38-1.9-36.4-20.2-27.9-35.6
		c84.6-6.1,104.6-43,104.6-43C311.8,172.3,436.9,54.3,436.9,54.3c1.9-0.9,3.6-1.3,5.5-1.6C444.6,62.3,429.8,85.6,395.5,127.7z"/>
	<path fill="#CDD6E0" d="M62.8,348.2c-23.4,9.1-46.7,21.7-57.1,38c-6.2,9.8-4.5,22.5,4,30.5c11.3,10.7,36.1,24.9,90.6,34
		c1.5-7.1,2.3-14.5,2.3-22.1C102.5,394.4,86.6,364.5,62.8,348.2z"/>
</g>
</svg>
