<?xml version="1.0" encoding="utf-8"?>
<!-- Generator: Adobe Illustrator 18.0.0, SVG Export Plug-In . SVG Version: 6.00 Build 0)  -->
<!DOCTYPE svg PUBLIC "-//W3C//DTD SVG 1.1//EN" "http://www.w3.org/Graphics/SVG/1.1/DTD/svg11.dtd">
<svg version="1.1" id="Layer_1" xmlns="http://www.w3.org/2000/svg" xmlns:xlink="http://www.w3.org/1999/xlink" x="0px" y="0px"
	 viewBox="0 0 48 48" enable-background="new 0 0 48 48" xml:space="preserve">
<g>
	<polygon fill="#40596B" points="23.7,43.1 21.4,45.6 19.7,43.1 19.7,22.3 23.7,22.3 	"/>
	<path fill="#4CDBC4" d="M38.2,17.1c-4.9,1.5-9.2,4.4-12.3,8.5c-5.9,7.9-2.6,13.8-2.6,13.8c6.7,3.1,15.3-5.7,15.3-5.7
		c9.1-8.8,9.2-18.3,9.2-18.3C44.4,15.4,41,16.2,38.2,17.1z"/>
	<path fill="#3DC9AE" d="M22.5,48c1.6-7.7,5.2-14.9,10.5-20.9c1-1.1,1.6-1.6,1.6-1.6c-0.1,0.1-0.3,0.2-0.4,0.3
		C26.9,31.2,22.1,39.2,20.6,48H22.5z"/>
	<path fill="#4CDBC4" d="M8,23c3.9,1.2,7.5,3.6,9.9,6.9C22.7,36.3,20,41,20,41c-5.4,2.5-12.3-4.6-12.3-4.6
		c-7.3-7.1-7.4-14.8-7.4-14.8C2.9,21.7,5.7,22.3,8,23z"/>
	<path fill="#3DC9AE" d="M20.6,48c-1.3-6.2-4.2-12.1-8.5-16.9c-0.8-0.9-1.3-1.3-1.3-1.3c0.1,0.1,0.2,0.2,0.3,0.2
		c5.9,4.4,9.8,10.8,11,17.9H20.6z"/>
	<polygon fill="#40596B" points="26.6,20.7 16.8,20.7 11.9,15.8 11.9,9.8 31.4,9.8 31.4,15.8 	"/>
	<g>
		<path fill="#F2F2F2" d="M17.4,9.8h-3.5V1.7c0-1,0.8-1.7,1.7-1.7h0c1,0,1.7,0.8,1.7,1.7V9.8z"/>
		<path fill="#F2F2F2" d="M29.4,9.8H26V1.7c0-1,0.8-1.7,1.7-1.7h0c1,0,1.7,0.8,1.7,1.7V9.8z"/>
	</g>
	<rect x="16.8" y="20.7" fill="#ACB3BA" width="9.8" height="2.2"/>
	<path fill="#FF7058" d="M31.5,11H11.8c-0.6,0-1.1-0.5-1.1-1.1v0c0-0.6,0.5-1.1,1.1-1.1h19.6c0.6,0,1.1,0.5,1.1,1.1v0
		C32.6,10.5,32.1,11,31.5,11z"/>
</g>
</svg>
