<?xml version="1.0" encoding="utf-8"?>
<!-- Generator: Adobe Illustrator 19.0.1, SVG Export Plug-In . SVG Version: 6.00 Build 0)  -->
<svg version="1.1" id="Layer_1" xmlns="http://www.w3.org/2000/svg" xmlns:xlink="http://www.w3.org/1999/xlink" x="0px" y="0px"
	 viewBox="0 0 48 48" style="enable-background:new 0 0 48 48;" xml:space="preserve">
<style type="text/css">
	.st0{fill:#66C6B9;}
	.st1{fill:#F3F3F3;}
	.st2{fill:#415A6B;}
	.st3{fill:#CED6E0;}
	.st4{fill:#F3705A;}
	.st5{fill:#E8EAE9;}
	.st6{fill:#4ABAA5;}
	.st7{fill:#F05540;}
	.st8{fill:#FFD15C;}
	.st9{fill:#55C0EB;}
	.st10{fill:#8AD7F8;}
	.st11{fill:#344A5E;}
	.st12{fill:#FFFFFF;}
	.st13{fill:#F7B64C;}
	.st14{fill:#ADB3BA;}
	.st15{fill:#38A892;}
	.st16{fill:#ED9845;}
	.st17{fill:#2D4251;}
	.st18{fill:#304556;}
	.st19{fill:#A5AAAD;}
	.st20{fill:#2D4456;}
	.st21{fill:#4FB0E0;}
	.st22{fill:#2D4354;}
	.st23{fill:#E54C38;}
	.st24{fill:#2B4456;}
	.st25{fill:#2B404F;}
</style>
<g>
	<g>
		<g>
			<g>
				<g>
					<path class="st2" d="M31.5,11.3c0,5.5-4.5,12.6-10,12.6s-10-7.1-10-12.6c0-8.5,4.5-11.3,10-11.3S31.5,2.8,31.5,11.3z"/>
				</g>
				<g>
					<g>
						<path class="st11" d="M43,48.1l-2-12.7c-0.7-2.7-2.9-4.8-5.6-5.2l-13.8-2.4L7.7,30.1c-2.8,0.5-5,2.5-5.6,5.2L0,48.1H43z"/>
					</g>
					<g>
						<path class="st13" d="M15.9,23.6v3.6c0,3,5.6,5.1,5.6,5.1s5.6-2.1,5.6-5.1v-3.6H15.9z"/>
					</g>
					<g>
						<polygon class="st3" points="24.8,48.1 28.5,32.5 27.5,31.5 21.5,32.3 14.8,31.5 17.1,48.1 						"/>
					</g>
					<g>
						<g>
							<polygon class="st7" points="22.9,36 24,34.8 21.5,32.3 19,34.8 20.1,36 							"/>
						</g>
						<g>
							<polygon class="st7" points="25.5,48.1 22.9,36 20.1,36 17.5,48.1 							"/>
						</g>
					</g>
					<path class="st8" d="M10.6,16c0.1,1.6,1,2.7,2,2.6c1-0.1,1.7-1.4,1.6-3c-0.1-1.5-1-2.7-2-2.6C11.2,13.1,10.5,14.4,10.6,16z"/>
					<path class="st8" d="M32.4,16c-0.1,1.6-1,2.7-2,2.6c-1-0.1-1.7-1.4-1.6-3c0.1-1.5,1-2.7,2-2.6C31.8,13.1,32.5,14.4,32.4,16z"/>
					<g>
						<g>
							<g>
								<polygon class="st1" points="27.1,26.1 21.5,32.3 24.9,35.7 28.7,28.1 								"/>
							</g>
							<g>
								<path class="st2" d="M28.3,48.1c1.7-3,3.2-10.7,4.1-14l-2.6-2.7l2.6-1.2l-4.6-3.3c-0.8,5-2.1,15.1-3.6,21.2H28.3z"/>
							</g>
						</g>
						<g>
							<g>
								<polygon class="st1" points="15.9,26.1 21.5,32.3 18.1,35.7 14.3,28.1 								"/>
							</g>
							<g>
								<path class="st2" d="M14.7,48.1h4.2c-1.6-6.1-2.8-16.2-3.6-21.2l-4.6,3.3l2.6,1.2l-2.6,2.7C11.6,37.4,13,45,14.7,48.1z"/>
							</g>
						</g>
					</g>
				</g>
			</g>
			<g>
				<path class="st8" d="M22.3,9.2c-2.1,0-4-0.4-5.6-1.1c-1.1-0.5-2.4,0-2.8,1.1c-0.8,1.8-1.2,3.8-1.2,6c0,6.6,4,12,8.9,12
					s8.9-5.4,8.9-12c0-1.9-0.3-3.8-1-5.4c-0.4-1.1-1.6-1.7-2.7-1.3C25.5,8.9,24,9.2,22.3,9.2z"/>
			</g>
		</g>
		<g>
			<g>
				<circle class="st9" cx="37.5" cy="37.4" r="10.5"/>
			</g>
			<g>
				<g>
					<g>
						<path class="st1" d="M34.2,40.6C34.1,40.6,34.1,40.5,34.2,40.6c-0.2-0.1-0.2-0.2-0.3-0.2c0,0-0.1-0.1-0.1-0.1c0,0-0.1,0-0.1,0
							c0,0,0,0-0.1,0c-0.1,0.1-0.1,0-0.2-0.1c-0.1-0.1-0.3-0.1-0.4,0c0,0,0,0-0.1,0.1c0-0.1,0.1-0.1,0.1-0.2
							c-0.2-0.1-0.2,0.1-0.4,0.2c0.1-0.1,0.1-0.2,0.2-0.3c0.1-0.1,0.1-0.2,0-0.3c-0.1-0.1-0.1-0.2-0.3-0.3c-0.2-0.1-0.1-0.1-0.3,0
							c0,0,0,0,0,0c-0.1-0.1-0.1-0.2-0.2-0.2c0,0,0-0.1-0.1-0.1c-0.2,0-0.2-0.1-0.2-0.3c-0.1,0-0.2,0-0.3,0.1c-0.1,0-0.3,0-0.3,0
							c-0.1,0-0.2-0.2-0.3-0.2c-0.1,0-0.2-0.1-0.2,0.1c0,0,0,0,0,0c-0.1,0-0.2,0-0.2,0.2c0,0,0,0,0,0.1c0,0-0.1,0.1-0.1,0.2
							c0,0,0,0,0,0c-0.1-0.1-0.2-0.1-0.3-0.1c-0.1,0-0.2,0-0.2-0.1c0,0,0-0.1-0.1-0.1c0,0,0-0.1,0-0.1c0-0.1,0-0.3,0.1-0.4
							c-0.1,0-0.2-0.2-0.4,0c0-0.1,0-0.2,0-0.3c0-0.1,0.1-0.2,0.1-0.3c0-0.1,0-0.1-0.1-0.1c-0.1,0-0.2,0-0.3,0.1
							c-0.1,0.2-0.4,0.3-0.6,0.1c0,0,0,0,0-0.1c0-0.1-0.1-0.3-0.1-0.4c0-0.1,0-0.3,0.1-0.4c0,0,0,0,0-0.1c0.1-0.1,0.1-0.1,0.2-0.2
							c0,0,0.1-0.1,0.1-0.1c0,0,0.1,0.1,0.1,0.1c0-0.1,0.1-0.1,0.1-0.1c0,0,0,0,0,0c0,0,0,0.1,0,0.1c0.1,0,0.1,0,0.2,0
							c0-0.1,0-0.1,0-0.1c0.1-0.1,0.2-0.1,0.3-0.1c0,0,0.1,0,0.1,0c0.1,0,0.2,0.1,0.2,0.2c0,0.2,0,0.4,0.3,0.5c0-0.1,0-0.1,0-0.2
							c0-0.1-0.1-0.3-0.1-0.4c0-0.1,0-0.2,0-0.3c0-0.1,0.2-0.2,0.2-0.2c0,0,0.1-0.1,0.1-0.1c0.2-0.1,0.3-0.2,0.1-0.4c0,0,0,0,0,0
							c0.1-0.1,0.2-0.1,0.1-0.3c0,0,0-0.1,0.1-0.1c0.1-0.1,0.2-0.2,0.4-0.2c0,0,0,0,0,0c-0.1-0.1-0.1-0.2,0.1-0.2
							c0.1-0.1,0.3-0.2,0.4-0.3c0,0,0.1-0.1,0.1-0.1c0,0,0.1,0,0.1,0c0,0,0,0,0,0c-0.1,0.1-0.1,0.1-0.2,0.2c0,0,0,0.1-0.1,0.1
							c0,0,0.1,0,0.1,0c0.1,0,0.1-0.1,0.2-0.1c0.1,0,0.1-0.1,0.2-0.1c-0.1,0-0.1-0.1-0.2-0.1c0,0,0,0,0,0c-0.2-0.1-0.2-0.1-0.1-0.3
							c-0.2-0.2-0.3,0.1-0.4,0.1c0.1-0.1,0.3-0.3,0.4-0.3c0.1,0,0.3,0,0.4,0c0,0,0.1,0,0.1,0c0.1-0.1,0.2-0.1,0.3-0.1
							c0,0,0.1,0,0.1-0.1c0-0.1,0-0.2-0.1-0.3c0,0-0.1,0-0.1,0c0,0-0.1,0-0.1,0.1c0,0,0,0,0,0c0.1-0.1,0.1-0.1,0.2-0.2
							c-0.1,0-0.2-0.1-0.2-0.1c0-0.1-0.1-0.1-0.1-0.2c0,0,0,0,0.1-0.1c-0.1-0.1-0.2-0.3-0.2-0.4c-0.1,0.2-0.2,0.4-0.4,0.3
							c0,0,0,0,0-0.1c0-0.1,0-0.2,0-0.3c-0.1-0.1-0.1-0.1-0.2-0.2c0,0-0.1,0-0.1,0c-0.1,0-0.2,0-0.3-0.1c-0.1,0.1-0.1,0.2-0.1,0.3
							c0,0.1,0,0.2-0.1,0.2c0,0,0,0.1,0,0.1c0,0.1,0,0.2,0.1,0.3c0,0,0,0.1-0.1,0.1c-0.1,0-0.1,0.1-0.1,0.2c0,0.1,0,0.2,0,0.3
							c-0.1,0-0.1,0-0.1,0c-0.1,0.1-0.2,0-0.2-0.1c0-0.1,0-0.2,0-0.3c0,0,0-0.1-0.1-0.1c-0.2,0-0.3-0.1-0.4-0.2
							c-0.1,0-0.1-0.1-0.2-0.1c-0.2,0-0.2,0-0.2-0.2c0,0,0-0.1-0.1-0.1c-0.1,0-0.1-0.1-0.1-0.2c0.1-0.2,0.2-0.3,0.4-0.4
							c0.1-0.1,0.2-0.2,0.4-0.3c0,0,0.1-0.1,0.1-0.1c0,0-0.1,0-0.1-0.1c0,0-0.1-0.1-0.1-0.1c0,0,0,0,0,0c0,0,0.1,0,0.1,0
							c0.1,0,0.2,0.1,0.2-0.1c0-0.1,0.1-0.1,0.2,0c0,0.1,0.1,0.1,0.1,0c0.1,0,0.1-0.1,0.2-0.1c0-0.1-0.1-0.2,0-0.2c0,0,0,0,0,0
							c0-0.1-0.1-0.1-0.2-0.1c-0.1,0-0.1,0-0.1,0.1c0,0,0,0.1-0.1,0.1c0,0-0.1,0.1-0.1,0.1c0,0,0,0-0.1,0.1c0,0,0-0.1,0-0.1
							c0-0.1,0-0.2,0-0.2c0,0,0,0,0,0c0,0-0.1,0.1-0.1,0.1c0-0.1,0-0.1-0.1-0.2c-0.1-0.1-0.1-0.1-0.1-0.2c0,0,0-0.1-0.1-0.1
							c0,0-0.1,0-0.1,0c-0.1,0.1-0.1,0.1-0.2,0.2c0.2,0.2,0.2,0.3-0.1,0.4c-0.1-0.1-0.1-0.1-0.3,0c0,0,0,0,0,0c-0.1,0-0.1,0-0.2,0
							c-1.1,1.6-1.7,3.4-1.9,5.5c0,0,0,0,0,0c0,0.1,0.1,0.2,0.2,0.3c0.1,0.1,0.2,0.3,0.2,0.5c0.2,0.1,0.3,0.2,0.5,0.3
							c0.1,0.1,0.3,0.2,0.4,0.1c0.2,0,0.3,0,0.4,0.1c0,0,0.1,0.1,0.2,0.1c0.1,0,0.3,0.1,0.3,0.2c0,0.1,0.1,0.2,0.1,0.3
							c0.1,0.1,0.2,0,0.2,0.2c0,0,0,0,0,0c0.1,0,0.1,0,0.2,0.1c0,0,0.1,0,0.1,0c0,0,0-0.1,0-0.1c0,0,0,0,0-0.1
							c0.1,0.1,0.1,0.1,0.1,0.1c0,0.1,0.1,0.2,0.1,0.4c0,0.1,0.1,0.2-0.1,0.2c0,0,0,0,0,0.1c0,0-0.1,0.1-0.1,0.1c0,0,0,0.1-0.1,0.1
							c-0.1,0.1-0.1,0.3,0,0.4c0,0,0,0,0,0.1c-0.1,0-0.1,0.1-0.1,0.1c0,0.1,0,0.1,0.1,0.1c0,0.1,0.1,0.2,0.1,0.4
							c0.1,0.2,0.2,0.3,0.2,0.5c0,0.2,0.2,0.3,0.3,0.3c0.2,0.1,0.4,0.3,0.4,0.5c0,0.1,0,0.2,0,0.4c0,0.1,0.1,0.1,0,0.2
							c0,0,0,0,0,0.1c0,0.1,0,0.2-0.1,0.4c0,0.1-0.1,0.3,0,0.3c0.1,0.2,0,0.3,0,0.5c0,0.1,0,0.2,0,0.3c0,0.1,0,0.2,0,0.3
							c0,0.1,0,0.2,0,0.3c0,0,0.1,0,0.1,0.1c0,0.1,0,0.2,0,0.3c0,0,0,0.1,0,0.1c0.2,0.2,0.4,0.3,0.6,0.5c0.1,0,0.1-0.1,0.1-0.2
							c0,0,0-0.1,0.1-0.1c0.1-0.1,0.1-0.2,0-0.2c-0.1,0-0.1-0.1-0.1-0.2c0.1-0.1,0.1-0.2,0.2-0.3c0.1-0.1,0-0.2,0-0.2
							c0,0,0-0.1,0-0.1c0,0,0,0,0,0c0,0,0,0,0.1,0c0,0,0.1,0,0.1,0c0-0.1,0-0.1,0-0.2c0-0.1,0-0.1,0.1-0.1c0.1,0,0.2-0.1,0.4-0.1
							c0,0,0-0.1,0-0.1c0-0.1,0-0.1-0.1-0.2c0,0,0,0-0.1,0c0-0.1,0.1-0.1,0.2,0c0.1,0,0.1,0,0.2,0c0.1-0.1,0.2-0.2,0.2-0.3
							c0-0.1,0-0.1,0-0.2c0,0,0,0,0,0v0.1c0,0,0,0,0,0c0-0.1,0.1-0.2,0.1-0.2c0,0,0-0.1,0-0.1c0.1,0,0.1-0.1,0.1-0.2
							c0-0.2,0.1-0.3,0.2-0.4c0.1-0.1,0.3-0.1,0.5-0.2c0-0.1,0.1-0.2,0.1-0.3c0-0.1,0-0.2,0-0.2c0.1-0.1,0.1-0.2,0-0.4
							c0-0.1,0-0.2,0-0.2c0.1,0,0.1-0.1,0.1-0.2c0,0,0,0,0-0.1c0.1-0.1,0.2-0.2,0.2-0.4c0,0,0,0,0,0C34.1,40.7,34.2,40.6,34.2,40.6z
							"/>
						<path class="st1" d="M27,37.4c0,0,0.1,0.1,0.1,0.1c0,0,0-0.1,0-0.1c0-0.1-0.1-0.1-0.1-0.2C27,37.2,27,37.3,27,37.4z"/>
					</g>
					<path class="st1" d="M35.6,31c-0.1,0.1-0.2,0.2-0.4,0.3c-0.1,0-0.1,0-0.2,0c-0.2-0.1-0.3,0-0.3,0.2c0,0.1-0.1,0.2-0.2,0.2
						c-0.1,0-0.2,0-0.3,0c-0.1,0-0.1,0.1-0.1,0.1c0,0.1,0,0.1-0.1,0.2c0,0.1-0.1,0.2-0.1,0.3c0,0.1,0,0.1-0.1,0.2
						c-0.1,0.1-0.2,0.1-0.2,0c0,0-0.1-0.1-0.1-0.1c-0.1,0-0.2-0.1-0.2-0.2C33.1,32,33,31.8,33,31.6c0-0.1,0-0.1,0-0.2
						c0-0.1,0-0.1,0.1-0.2c0,0,0.1,0,0.1-0.1c0.1-0.1,0-0.2-0.1-0.2c0,0-0.1,0-0.1,0c0.1-0.1,0.2,0,0.1-0.2c0,0-0.1,0-0.2,0
						c0-0.1,0-0.2-0.1-0.3c0-0.1-0.1-0.3-0.1-0.4c0-0.1-0.1-0.1-0.3-0.1c-0.1,0-0.3,0-0.4,0c-0.2,0-0.3-0.1-0.3-0.2
						c0.1,0,0.1,0,0.1,0c0,0,0.1,0,0.1,0c0-0.1-0.1-0.1-0.2-0.1c-0.1,0-0.1,0-0.2,0c0,0,0,0-0.1,0c0,0,0-0.1,0.1-0.1
						c0.1,0,0.2-0.1,0.3-0.2c0,0,0.1-0.1,0.2-0.1c0.1,0,0.1,0,0.1-0.1c0-0.1,0-0.1,0.1-0.1c0.1,0,0.2,0,0.3-0.1
						c0.1-0.2,0.3-0.2,0.5-0.1c0,0,0,0,0.1,0c0,0,0-0.1,0-0.1c0.1,0,0.1,0,0.1,0.1c0,0.1,0.1,0.1,0.2,0.1v-0.2c0.1,0,0.3,0,0.3,0.1
						c0,0,0,0,0,0c0-0.1,0-0.2,0-0.3c0.1,0,0.1,0.1,0.2,0.1c0.1,0,0.1,0.1,0.2,0c0.1-0.2,0.3-0.2,0.5-0.2c0,0,0.1,0,0.1,0h0.2
						c0,0,0,0,0,0c0,0,0,0,0.1,0.1c0,0,0,0-0.1,0c-0.1,0-0.1,0-0.2,0c0,0-0.1,0-0.1,0.1c0,0,0.1,0,0.1,0c0.1,0,0.2-0.1,0.3-0.1
						c0.1,0,0.3,0,0.4,0c0,0,0.1,0,0.1,0.1c-0.3,0.1-0.6,0.1-0.9,0.2c0,0,0,0,0,0.1c0.1,0,0.1,0,0.2,0c0.1,0,0.1,0,0.2-0.1
						c0.2,0,0.2,0,0.2,0.2c0.1-0.1,0.2-0.1,0.3-0.2c0,0,0,0,0,0c-0.1,0.1-0.1,0.2-0.2,0.2c0,0,0,0,0,0c0.1,0,0.1,0,0.2-0.1
						c0.2-0.2,0.5-0.2,0.7-0.2c0,0,0.1,0,0.1,0c0,0,0,0.1-0.1,0.1c-0.1,0.1-0.3,0.1-0.4,0.1c-0.1,0-0.1,0-0.2,0.1c0,0,0.1,0,0.2,0.1
						c-0.1,0.1-0.3,0.1-0.3,0.4c0.1,0,0.1,0,0.2,0c0,0,0.1,0,0.1,0.1c0,0.1,0,0.1-0.1,0.1c0,0-0.1,0.1-0.1,0.1c0,0,0.1,0.1,0.1,0.1
						c0,0,0,0,0.1,0c0,0.2-0.1,0.2-0.2,0.2c0,0,0,0.1,0,0.1c-0.1,0-0.1,0.1-0.2,0.1c0,0-0.1,0-0.1,0c0,0-0.1,0-0.1,0.1
						c0,0,0,0.1,0.1,0.1c0.1,0,0.2,0.1,0.2,0.2c0,0,0,0.1,0,0.1c0,0-0.1,0-0.1,0c0,0-0.1-0.1-0.1-0.1c0,0-0.1,0-0.2,0
						c0,0-0.1,0.1-0.1,0.1c0,0,0.1,0.1,0.1,0.1c0.1,0,0.2,0,0.3,0C35.6,31,35.6,31,35.6,31z"/>
					<path class="st1" d="M44.3,41.1c0.1,0.2,0.3,0.3,0.2,0.6c0,0.1,0,0.2,0,0.4c0,0.1,0,0.2-0.1,0.2c-0.1,0.1-0.1,0.1-0.2,0.2
						c0,0,0,0.1,0,0.1c-0.1,0.1-0.1,0.2-0.2,0.3c0,0.1-0.1,0.1-0.2,0.1c-0.3,0.2-0.5,0.1-0.8,0c-0.1,0-0.1-0.1,0-0.2
						c0,0,0-0.1,0-0.1c0,0,0-0.1-0.1-0.1c0,0-0.1,0-0.1,0.1c0,0,0,0,0,0c0-0.1,0.1-0.2,0.1-0.2c0,0,0,0,0,0
						c-0.1,0.1-0.1,0.2-0.2,0.2c0-0.1-0.1-0.2-0.1-0.3c-0.1-0.1-0.3-0.1-0.4-0.1c-0.1,0-0.2,0-0.2,0.1c-0.1,0-0.2,0-0.2,0.1
						c-0.1,0.2-0.3,0.2-0.5,0.1c-0.1,0-0.1,0-0.1,0.1c0,0-0.1,0-0.1,0c0,0-0.1,0-0.1-0.1c-0.1-0.1-0.1-0.2,0-0.2
						c0.1-0.1,0.1-0.1,0-0.2c0,0,0-0.1,0-0.1c0-0.1,0-0.1-0.1-0.2c0-0.1,0-0.2-0.1-0.3c0,0,0,0,0,0c0,0,0.1,0,0.1,0.1c0,0,0,0,0,0
						c0,0,0-0.1,0-0.1c0-0.1-0.1-0.1-0.1-0.2c0-0.1,0-0.1,0.1-0.1c0,0,0.1,0,0.1,0c0.1-0.1,0.2-0.2,0.4-0.2c0.1,0,0.3-0.1,0.3-0.2
						c0-0.1,0-0.1,0.1-0.2c0,0,0.1,0,0.1,0c0.1-0.1,0.1-0.1,0.2-0.2c0,0,0.1-0.1,0.1-0.1c0,0,0.1-0.1,0.1-0.1c0,0,0.1,0.1,0.1,0.1
						c0,0,0.1,0.1,0.1,0.1c0,0,0.1-0.1,0.1-0.1c0-0.1,0.1-0.2,0.2-0.2c0,0,0,0,0.1,0c0,0-0.1-0.1-0.1-0.1c0,0,0,0,0,0
						c0.2,0.1,0.4,0.1,0.6,0.2c-0.1,0.1-0.1,0.2-0.2,0.3c0.1,0.1,0.3,0.2,0.4,0.3c0.1,0.1,0.2,0,0.2-0.2c0-0.1,0-0.1,0-0.2
						c0-0.2,0-0.3,0.1-0.4c0.1,0.1,0.1,0.1,0.1,0.2c0,0.1,0,0.2,0.1,0.2c0.1,0.1,0.2,0.3,0.2,0.4c0,0.1,0,0.2,0.1,0.2
						c0,0,0.1,0.1,0.1,0.1C44.2,41,44.3,41,44.3,41.1z"/>
					<path class="st1" d="M47.8,35.4c0,0-0.1-0.1-0.1-0.1c0,0,0,0,0.1-0.1c-0.4-1.9-1.3-3.6-2.5-4.9c0,0-0.1,0-0.1,0
						c-0.1,0-0.3,0-0.4,0.1c0,0-0.1,0-0.1,0c0,0,0,0,0,0c0,0,0.1-0.1,0.1-0.1c0.1-0.1,0.2-0.1,0.3-0.2c0,0,0,0,0,0
						c-0.1-0.1-0.2-0.2-0.4-0.4c0,0-0.1,0-0.1,0c-0.1,0.1-0.1,0-0.1,0c0,0-0.1-0.1-0.1-0.1c-0.1-0.1-0.2,0-0.2,0
						c0,0.1-0.1,0.1,0,0.3h-0.5c0-0.1-0.1,0-0.2,0c0,0-0.1,0.1-0.1,0.1c-0.1,0-0.3,0.1-0.4,0.1c0,0,0,0,0,0.1c0,0,0,0.1,0,0.1
						c0,0,0.1,0.1,0.1,0.1c-0.1,0-0.3,0-0.4,0c-0.1,0-0.1,0-0.1,0.1c0,0.1,0,0.1,0.1,0.1c0.1,0,0.2,0.2,0.1,0.2
						c-0.1-0.1-0.2-0.1-0.3-0.2c0,0,0,0,0,0c0,0-0.1,0-0.1,0c0,0,0,0.1,0,0.1c0,0,0,0.1,0,0.1c0,0,0,0,0,0c-0.1,0-0.1-0.1-0.2-0.1
						c0-0.1,0-0.1-0.1-0.2c-0.1,0-0.1,0.3-0.1,0.3C42,30.8,42,30.9,42,31c0,0,0,0.1,0.1,0.1c0,0,0.1,0,0.1,0c0,0,0,0,0,0
						c0.1,0.1,0.2,0.2,0.3,0.3c0,0,0,0,0,0c-0.1-0.1-0.1-0.1-0.2-0.2c-0.1-0.1-0.1-0.1-0.2,0.1c0,0.1,0,0.1-0.1,0.2
						c0,0.1-0.1,0.1-0.2,0.1c0,0-0.1,0-0.1-0.1c0,0,0.1-0.1,0.1-0.1c0.2-0.1,0.2-0.1,0.1-0.3c0-0.1,0-0.1-0.1-0.2
						c0-0.2-0.1-0.3-0.1-0.5c0-0.1-0.1-0.1-0.1-0.1c0,0-0.1,0.1-0.1,0.1c0,0,0,0.1,0,0.1c0,0,0,0.1,0,0.1c-0.1,0.1-0.1,0.1,0,0.2
						c0.1,0.1,0.1,0.2,0.2,0.3c-0.1,0.1-0.1,0.1-0.1,0C41.3,31,41.1,31,41,31c-0.1,0-0.1,0-0.1,0.1c0,0.1,0,0.1-0.1,0.1
						c0,0,0-0.1,0-0.1c0,0,0,0,0,0c-0.1,0.2-0.3,0.1-0.4,0.2c0,0,0-0.1-0.1-0.1c-0.1,0.1-0.3,0.2-0.4,0.3c-0.1,0.1-0.2,0.1-0.2-0.1
						c0-0.1-0.1-0.2-0.2-0.1c0,0.1,0.1,0.3,0.1,0.4c0,0,0,0,0,0c-0.1-0.1-0.2-0.1-0.3,0c0,0,0,0,0,0c-0.1,0-0.1,0.1,0,0.1
						c0,0,0,0.1,0,0.1c0,0-0.1,0-0.1,0.1c0,0,0,0,0,0c0-0.1,0-0.1-0.1-0.1c0,0-0.1,0-0.1,0c0,0,0.1,0.1,0.1,0.1c0,0,0,0,0,0.1
						c0,0,0,0-0.1,0c0,0-0.1,0-0.1-0.1c-0.1-0.1-0.1-0.3-0.2-0.4c0.2,0,0.3,0.1,0.4,0c0,0,0.1-0.1,0.1-0.1c0,0-0.1-0.1-0.1-0.1
						c-0.2-0.1-0.4-0.2-0.6-0.3c0,0-0.1-0.1-0.1-0.1c0-0.1-0.1-0.1-0.2-0.1c-0.1,0-0.1,0-0.1,0c0,0,0,0,0,0c0,0,0,0,0,0
						c-0.1,0-0.1,0-0.1,0v0.1c0,0-0.1,0-0.1,0c0,0,0,0-0.1,0c0,0-0.1,0-0.1,0c0,0-0.1,0-0.1,0c0,0,0.1,0.1,0.1,0.1
						c-0.1,0.1-0.1,0.1-0.1,0.2c-0.1,0-0.1,0-0.2,0.1c-0.2,0-0.3,0.2-0.4,0.4c0,0.1-0.1,0.2-0.2,0.2c0,0,0,0.1,0,0.1
						c-0.1,0.1-0.3,0.1-0.4,0.2c-0.1,0.1-0.1,0.2,0,0.3c0,0,0,0,0,0.1c0,0.1,0,0.2,0,0.3c0.1,0,0.2-0.1,0.3-0.1c0.1,0,0.2-0.1,0.2,0
						c0.1,0.1,0.1,0.2,0.2,0.4c0,0,0,0.1,0,0.1c0,0,0.1,0,0.1,0c0.1-0.1,0.2-0.2,0.2-0.3c0,0,0-0.1,0-0.1c0.1-0.1,0.1-0.1,0-0.2
						c0,0,0.1,0,0.1-0.1c0-0.1-0.1-0.1-0.1-0.1c-0.1-0.1,0-0.3,0.1-0.4c0.1,0,0.2-0.2,0.2-0.3c0-0.1,0.1-0.2,0.2-0.1
						c0.1,0,0.2,0,0.2,0.2c0,0-0.1,0-0.1,0c0,0,0,0,0,0c-0.1,0.1-0.1,0.1-0.2,0.2c-0.1,0-0.1,0.1-0.1,0.2c0,0.1,0,0.2,0.1,0.2
						c0.1,0.1,0.2,0.1,0.3,0.1c0.1-0.1,0.2-0.1,0.2,0.1c0,0-0.1,0-0.1,0c-0.1-0.1-0.2,0-0.3,0c-0.1,0.1-0.1,0.1,0,0.1
						c0,0,0,0.1,0,0.1c0,0-0.1,0-0.1,0c0,0,0-0.1-0.1-0.1c0,0.1,0,0.1-0.1,0.2c0,0.1,0,0.2-0.1,0.3c0,0.1-0.1,0.1-0.2,0.1
						c0,0-0.1,0-0.1,0c-0.1,0.1-0.2,0.1-0.4,0.1c-0.1,0-0.1,0-0.2-0.1c0-0.1,0-0.1,0-0.2c0-0.1,0-0.2,0-0.2c0,0-0.1,0.1-0.1,0.1
						c-0.1,0-0.1,0.1-0.1,0.2c0.1,0.1,0.1,0.2,0.1,0.3c-0.2,0.1-0.4,0-0.4,0.3c0,0-0.1,0-0.1,0c-0.1,0-0.1,0-0.1,0.1
						c0,0.1-0.1,0.1-0.2,0.2c0,0-0.1,0-0.1-0.1c0,0,0,0,0,0c0,0,0,0.1,0,0.1c0,0-0.1,0-0.2,0.1c0,0-0.1,0-0.1,0c0,0,0,0.1,0,0.1
						c0.2,0,0.2,0.2,0.2,0.2c0,0.1-0.1,0.2-0.1,0.3c-0.2,0-0.3,0-0.4-0.1c0,0-0.1,0-0.1,0c-0.1,0-0.2,0.1-0.1,0.2c0,0,0,0.1,0,0.1
						c0,0,0,0.1,0,0.1c0,0,0,0.1-0.1,0.1c-0.1,0.1-0.1,0.1,0,0.2c0,0,0,0,0,0.1c0,0.1,0.1,0.1,0.2,0.1c0,0,0.1,0,0.1,0
						c0,0.1,0.1,0.1,0.2,0.1c0,0,0.1,0,0.1,0c0.1,0.1,0.1-0.1,0.2-0.1c0,0,0-0.1,0.1-0.1c0,0,0,0,0,0c-0.1-0.1,0-0.2,0.1-0.2
						c0.1-0.1,0.2-0.2,0.2-0.3c0,0,0.1-0.1,0.1-0.1c0.1,0,0.2,0,0.2,0.1c0.1,0,0.1-0.1,0.2-0.1c0.1-0.1,0.1,0,0.1,0
						c0,0.1,0.1,0.2,0.2,0.2c0.1,0.1,0.2,0.1,0.3,0.2c0,0,0.1,0.1,0,0.1c0,0,0,0.1,0,0.1c0,0,0,0,0,0c0,0,0.1-0.1,0.1-0.1
						c0-0.1,0-0.1,0.1-0.1c0,0,0,0,0.1,0c-0.1-0.1-0.1-0.2-0.2-0.2c0,0,0,0,0,0c-0.1,0-0.1,0-0.1-0.1c-0.1-0.1-0.1-0.2-0.2-0.2
						c-0.1-0.1,0-0.2,0-0.3c0.1,0.3,0.3,0.4,0.6,0.6c0,0.1,0.1,0.4,0.3,0.4c0,0-0.1,0-0.1,0c0,0.1,0.1,0.2,0.2,0.1c0,0,0,0,0-0.1
						c0,0,0.1,0,0.1,0c-0.1,0-0.1-0.1-0.2-0.1c0,0,0.1,0,0.1-0.1c0,0,0,0,0,0c0-0.1,0.1-0.1,0.1-0.1c0.1,0,0.1,0,0.1-0.1
						c0,0,0-0.1,0-0.1c0-0.1,0.1-0.2,0.1-0.4c0.1,0.1,0.1,0,0.1,0c0,0,0-0.1,0-0.1c0,0,0-0.1,0.1-0.1c0,0,0.1,0,0.1,0.1
						c0,0,0.1,0.1,0.1,0.1c0,0-0.1,0.1-0.1,0.2c0.2,0,0.3,0,0.4-0.1c-0.1,0-0.1-0.1-0.2-0.1v-0.1c0.1,0,0.2-0.1,0.4-0.1
						c0,0,0,0,0.1,0c0,0,0,0,0,0.1c-0.1,0.1-0.1,0.1-0.2,0.2c0.2,0.1,0.3,0.2,0.4,0.3c0.1,0,0.1,0.1,0.1,0.2c0,0-0.1,0.1-0.1,0.1
						c-0.2,0-0.3,0-0.4-0.1c0,0-0.1,0-0.1,0c-0.2,0-0.3,0.1-0.5,0.1c0,0-0.1,0-0.1,0c0,0.1-0.1,0.1-0.1,0.2c0,0,0,0.1,0,0.1
						c0,0,0,0.1,0,0.1c0.1,0.1,0.1,0.1,0.2,0.2c0,0,0.1,0,0.1,0c0,0,0.1,0,0.1,0c0.1,0,0.1,0,0.2,0c0.1,0,0.1,0,0.2,0
						c0,0.1,0,0.3-0.1,0.4c-0.1,0.2-0.1,0.2-0.3,0.2c-0.1,0-0.2,0-0.2,0.1c-0.1,0-0.3-0.1-0.4-0.1c0,0-0.3-0.2-0.4-0.2
						c-0.1,0-0.1,0.1-0.1,0.2c0,0.1,0,0.1-0.1,0.1c-0.1,0-0.2-0.1-0.3-0.1c0,0,0,0,0,0c0,0-0.1-0.1-0.1-0.1c-0.1,0-0.2,0-0.3-0.1
						c-0.1,0,0-0.1,0-0.1c0.1,0,0.1-0.1,0-0.2c0,0,0-0.1,0-0.1c-0.1,0-0.1,0-0.2,0c-0.2,0-0.4,0-0.6,0c-0.1,0-0.3,0.1-0.4,0.2
						c0,0-0.1,0-0.1,0c-0.1,0-0.2-0.1-0.2-0.1c0,0-0.1,0.1-0.1,0.1c0,0,0,0.1-0.1,0.1c-0.1,0-0.2,0.1-0.2,0.2c0,0.2,0,0.3-0.2,0.4
						c-0.1,0-0.1,0.1-0.2,0.1c0,0.1,0,0.1,0,0.1c-0.1,0.1-0.1,0.2-0.2,0.3c-0.1,0.2-0.1,0.4-0.1,0.7c0,0.2,0,0.3-0.2,0.4
						c0.2,0.1,0.1,0.2,0.1,0.3c0.1,0,0.1,0.1,0.1,0.1c0.1,0.1,0.1,0.2,0.2,0.3c0.1,0.1,0.2,0.2,0.3,0.4c0,0.1,0.1,0.1,0.2,0.1
						c0,0,0.1,0,0.1,0c0.1-0.2,0.3-0.1,0.5-0.1c0,0,0.1,0,0.1,0c0.1,0,0.2-0.1,0.3-0.1c0.1-0.1,0.3,0,0.3,0.1c0,0.1,0.1,0.1,0.1,0.1
						c0.1,0,0.2,0,0.3,0.1c0,0,0.1,0.1,0.1,0.1c0,0.1,0,0.2,0,0.2c0,0.1,0,0.1,0,0.2c0,0,0,0,0,0c0.1,0.1,0.1,0.1,0.2,0.2
						c0.1,0.1,0.3,0.2,0.2,0.4c0,0,0,0,0,0c0,0.1,0.1,0.2,0.1,0.3c0,0.1,0,0.2,0.1,0.2c0,0,0,0.1,0,0.1c-0.1,0.1-0.1,0.2-0.2,0.3
						c0,0.1-0.1,0.3,0,0.4c0.1,0.2,0.2,0.3,0.2,0.5c0,0.1,0,0.3,0,0.5c0,0,0.1,0.1,0.1,0.1c0,0.1,0.1,0.2,0.1,0.3
						c0,0.1,0.2,0.2,0,0.3c0,0,0,0,0,0c0,0.1,0.1,0.1,0.2,0.1c0,0,0.1,0,0.2,0c0.1-0.1,0.2-0.1,0.3,0c0.1,0,0.2-0.1,0.3-0.1
						c0,0,0.1-0.1,0.1-0.1c0.1,0,0.1-0.1,0.1-0.2c0.1-0.1,0.1-0.1,0.2-0.2c0,0,0-0.1,0-0.1c0,0,0.1-0.1,0.1-0.1c0-0.1,0-0.2,0-0.3
						c0.2,0,0.3-0.2,0.2-0.4c-0.1-0.1,0-0.3,0.1-0.3c0,0,0,0,0.1-0.1c0.1-0.1,0.1-0.1,0.2-0.2c0.1-0.1,0.2-0.1,0.2-0.3
						c0-0.2,0-0.4-0.1-0.5c0-0.1-0.1-0.3,0-0.5c0,0,0,0,0-0.1c0-0.1,0-0.1,0.1-0.2c0.2-0.2,0.3-0.4,0.5-0.5c0.2-0.1,0.3-0.3,0.4-0.5
						c0.1-0.2,0.2-0.4,0.2-0.5c0,0,0-0.1-0.1-0.1c0,0-0.1,0-0.1,0c-0.1,0-0.2,0.1-0.3,0.1c-0.1,0.1-0.5,0-0.5-0.1c0,0,0,0,0-0.1
						c0-0.1-0.1-0.3-0.2-0.3c-0.1-0.1-0.1-0.2-0.2-0.4c0-0.1-0.1-0.1-0.1-0.2c0-0.1-0.1-0.2-0.1-0.2c0,0-0.1-0.1,0-0.2
						c0-0.1,0-0.1,0-0.2c-0.1-0.1-0.2-0.2-0.2-0.3c0-0.1-0.1-0.1-0.1-0.2c0,0,0,0,0,0c0,0,0.1,0.1,0.1,0.1c0,0,0,0.1,0.1,0.1
						c0.1,0,0.2,0.1,0.2,0.2c0,0,0,0.1,0.1,0.1c0.1,0.1,0.1,0.2,0.2,0.3c0.1,0.2,0.2,0.4,0.4,0.6c0,0.1,0.1,0.2,0.1,0.2
						c0,0.1,0,0.1,0,0.2c0,0.1,0.1,0.1,0.1,0.1c0,0,0.1,0,0.1-0.1c0.1-0.1,0.2-0.1,0.3-0.1c0.1,0,0.2-0.1,0.3-0.1c0,0,0,0,0,0
						c0-0.1,0.1-0.1,0.2-0.2c0,0,0,0,0.1,0c0.1-0.1,0.2-0.2,0.3-0.2c0-0.1,0-0.2,0.1-0.3c0,0,0-0.1,0-0.2c0,0-0.1-0.1-0.1-0.1
						c-0.1,0-0.2-0.1-0.2-0.2c-0.1,0.1-0.1,0.2-0.2,0.2c-0.1,0-0.2,0-0.3-0.1c0-0.1,0-0.1-0.1-0.2c-0.1-0.1-0.3-0.2-0.3-0.4h0.3
						c0,0.1,0.1,0.2,0.2,0.3c0.2,0.1,0.3,0.1,0.4,0c0,0,0,0,0,0.1c0,0.2,0.1,0.2,0.3,0.2c0.1,0,0.2,0,0.2,0c0,0,0,0,0-0.1
						c0.1,0,0.1,0.1,0.2,0.1c0.1,0,0.1,0,0.2,0c0,0,0,0,0,0c0.1,0.1,0.2,0.2,0.3,0.3c0,0.1,0,0.1,0.1,0.2c0,0,0.1,0.1,0.2,0.1
						c0,0,0.1-0.1,0.1-0.2c0,0.1,0,0.3,0,0.4c0,0.1,0,0.3,0.1,0.4c0.1,0.3,0.2,0.5,0.3,0.7c0,0.1,0.1,0.1,0.2,0.1
						c0.1-0.1,0.2-0.2,0.1-0.3c0,0,0-0.1,0-0.1c0.1-0.1,0-0.1,0-0.2c0-0.1,0-0.2,0.1-0.2c0,0,0.1-0.1,0.1-0.1c0-0.1,0.2-0.2,0.2-0.2
						c0.1-0.1,0.2-0.1,0.2-0.3c0,0,0.1-0.1,0.1-0.1c0,0,0.1,0,0.1,0c0.1-0.1,0.1-0.1,0.1-0.2c0,0,0,0,0,0c0,0,0,0,0,0
						c0,0.2,0.1,0.3,0.2,0.4c0,0.1,0.1,0.1,0.1,0.2c0,0,0,0.1,0,0.1c0,0,0,0.1,0.1,0.1c0,0,0.1,0,0.1,0c0,0,0-0.1,0.1-0.1
						c0.1,0.1,0.1,0.1,0.1,0.2c0,0.1,0,0.1,0,0.2c0,0.1,0.1,0.1,0.1,0.2c0,0.1,0,0.2,0.1,0.2c0.1,0.1,0.1,0.2,0.1,0.3
						c0,0.1,0,0.1,0,0.2c0,0.2,0.1,0.3,0.3,0.5c0,0,0.1,0,0.2,0c0,0,0-0.1,0-0.1c0-0.2-0.1-0.4-0.3-0.5c0,0,0,0-0.1-0.1
						c0-0.1-0.1-0.2-0.1-0.3c0-0.1,0-0.1,0-0.2c0,0,0.1,0,0.1,0c0.1,0,0.1,0.1,0.1,0.2c0,0,0,0,0,0.1c0.1-0.1,0.2,0,0.2,0.1
						c0,0,0,0,0,0c0,0,0,0.1,0,0.1c0,0,0.1,0,0.1,0c0.1,0,0.1-0.1,0.2-0.2c0.2-0.2,0.2-0.5,0-0.7C46.2,38,46.1,38,46,37.9
						c-0.1-0.1-0.1-0.2,0-0.2c0.1-0.1,0.1-0.1,0.2-0.2c0,0,0,0.1,0.1,0.2c0,0,0,0,0,0c0.1-0.1,0.3-0.2,0.5-0.2c0,0,0.1,0,0.1-0.1
						c0.1-0.1,0.1-0.2,0.2-0.2c0,0,0.1,0,0.1-0.1c0-0.1,0-0.1,0.1-0.2c0,0,0.1-0.1,0.1-0.1c0-0.2-0.1-0.4-0.1-0.5
						c0-0.1-0.1-0.2-0.2-0.2c-0.1-0.2-0.1-0.2,0.1-0.3c0,0,0.1-0.1,0.1-0.1c0,0,0-0.1-0.1-0.1c0,0-0.1,0-0.1,0c-0.1,0.1-0.2,0-0.2,0
						c0,0,0-0.1,0-0.1c0-0.1,0.1-0.1,0.2-0.2c0,0,0.1,0,0.1-0.1c0,0.1,0,0.2,0,0.3c0.1,0,0.1-0.1,0.2-0.1c0,0,0.1,0,0.1,0
						c0,0,0,0.1,0,0.1c0,0,0,0,0,0c0.1,0,0.2,0.1,0.2,0.2c0,0,0,0,0,0c0.1,0,0.1,0.1,0,0.1c0,0,0,0.1,0,0.1c0,0,0.1,0,0.1,0
						C47.9,35.8,47.8,35.6,47.8,35.4z"/>
				</g>
			</g>
		</g>
	</g>
</g>
</svg>
