<?xml version="1.0" encoding="utf-8"?>
<!-- Generator: Adobe Illustrator 18.0.0, SVG Export Plug-In . SVG Version: 6.00 Build 0)  -->
<!DOCTYPE svg PUBLIC "-//W3C//DTD SVG 1.1//EN" "http://www.w3.org/Graphics/SVG/1.1/DTD/svg11.dtd">
<svg version="1.1" id="Layer_1" xmlns="http://www.w3.org/2000/svg" xmlns:xlink="http://www.w3.org/1999/xlink" x="0px" y="0px"
	 viewBox="0 0 48 48" enable-background="new 0 0 48 48" xml:space="preserve">
<g>
	<g>
		<g>
			<path fill="#FFD15C" d="M30.9,18.2c0,0,6.9-1.5,12.2,4.9l-1.1,1.1C41.9,24.2,39.1,19.7,30.9,18.2z"/>
			<path fill="#FFD15C" d="M29.8,17.1c0,0,1.5-6.9-4.9-12.2l-1.1,1.1C23.8,6.1,28.2,8.9,29.8,17.1z"/>
		</g>
		<g>
			<path fill="#84DBFF" d="M35.4,14c0,0,7-1.7,12.5,4.2l-1.2,1.2C46.8,19.3,44.2,15.1,35.4,14z"/>
			<path fill="#84DBFF" d="M34.3,12.6c0,0,1.4-7.1-4.6-12.3l-1.1,1.2C28.6,1.4,32.9,3.9,34.3,12.6z"/>
		</g>
		<path fill="#84DBFF" d="M41.5,19.2L41,18.7h0.7c0.1,0,0.1-0.1,0.1-0.1s-0.1-0.1-0.1-0.1H41l0.5-0.5c0,0,0-0.1,0-0.2
			c0,0-0.1,0-0.2,0l-0.5,0.5v-0.7c0-0.1-0.1-0.1-0.1-0.1c-0.1,0-0.1,0.1-0.1,0.1v0.7L40,17.7c0,0-0.1,0-0.2,0c0,0,0,0.1,0,0.2
			l0.5,0.5h-0.7c-0.1,0-0.1,0.1-0.1,0.1c0,0,0,0.1,0,0.1c0,0,0.1,0,0.1,0h0.7l-0.5,0.5c0,0,0,0.1,0,0.2s0.1,0,0.2,0l0.5-0.5v0.7
			c0,0,0,0.1,0,0.1s0.1,0,0.1,0c0.1,0,0.1-0.1,0.1-0.1v-0.7l0.5,0.5c0,0,0.1,0,0.2,0C41.5,19.3,41.5,19.2,41.5,19.2z"/>
		<path fill="#FFD15C" d="M40.5,9.9l-0.8-0.8h1.1c0.1,0,0.2-0.1,0.2-0.2c0-0.1-0.1-0.2-0.2-0.2h-1.1l0.8-0.8c0.1-0.1,0.1-0.2,0-0.3
			c-0.1-0.1-0.2-0.1-0.3,0l-0.8,0.8V7.3c0-0.1-0.1-0.2-0.2-0.2c-0.1,0-0.2,0.1-0.2,0.2v1.1l-0.8-0.8c-0.1-0.1-0.2-0.1-0.3,0
			c-0.1,0.1-0.1,0.2,0,0.3l0.8,0.8h-1.1c-0.1,0-0.2,0.1-0.2,0.2c0,0.1,0,0.1,0.1,0.1s0.1,0.1,0.1,0.1h1.1L38,9.9
			c-0.1,0.1-0.1,0.2,0,0.3c0.1,0.1,0.2,0.1,0.3,0l0.8-0.8v1.1c0,0.1,0,0.1,0.1,0.1s0.1,0.1,0.1,0.1c0.1,0,0.2-0.1,0.2-0.2V9.3
			l0.8,0.8c0.1,0.1,0.2,0.1,0.3,0C40.6,10.1,40.6,9.9,40.5,9.9z"/>
		<path fill="#FFD15C" d="M26.4,14.4l-0.8-0.8h1.1c0.1,0,0.2-0.1,0.2-0.2c0-0.1-0.1-0.2-0.2-0.2h-1.1l0.8-0.8c0.1-0.1,0.1-0.2,0-0.3
			s-0.2-0.1-0.3,0l-0.8,0.8v-1.1c0-0.1-0.1-0.2-0.2-0.2s-0.2,0.1-0.2,0.2v1.1l-0.8-0.8c-0.1-0.1-0.2-0.1-0.3,0
			c-0.1,0.1-0.1,0.2,0,0.3l0.8,0.8h-1.1c-0.1,0-0.2,0.1-0.2,0.2c0,0.1,0,0.1,0.1,0.1c0,0,0.1,0.1,0.1,0.1h1.1l-0.8,0.8
			c-0.1,0.1-0.1,0.2,0,0.3c0.1,0.1,0.2,0.1,0.3,0l0.8-0.8V15c0,0.1,0,0.1,0.1,0.1c0,0,0.1,0.1,0.1,0.1c0.1,0,0.2-0.1,0.2-0.2v-1.1
			l0.8,0.8c0.1,0.1,0.2,0.1,0.3,0C26.4,14.6,26.4,14.4,26.4,14.4z"/>
		<g>
			<polygon fill="#FF7058" points="47.3,24.7 46.1,25.9 46.4,27.6 44.9,26.8 43.4,27.7 43.7,26 42.4,24.8 44.1,24.5 44.9,23 
				45.6,24.5 			"/>
			<polygon fill="#FF7058" points="22.9,1.1 21.7,2.3 20,2 20.7,3.5 19.9,5 21.6,4.7 22.8,6 23.1,4.3 24.6,3.6 23.1,2.8 			"/>
		</g>
		<polygon fill="#84DBFF" points="47.6,13.3 46.8,14.1 47,15.1 46,14.6 45,15.2 45.2,14.1 44.4,13.3 45.5,13.1 46,12.2 46.5,13.1 		
			"/>
		<polygon fill="#84DBFF" points="36,1.2 35.2,2 35.4,3.1 34.4,2.6 33.5,3.1 33.6,2 32.9,1.2 33.9,1.1 34.4,0.1 34.9,1.1 		"/>
		<polygon fill="#84DBFF" points="36,22 35.2,22.8 35.4,23.9 34.4,23.4 33.5,23.9 33.6,22.8 32.9,22 33.9,21.9 34.4,20.9 34.9,21.9 
					"/>
	</g>
	<polygon fill="#FF7058" points="0.1,47.9 17.8,10.2 37.8,30.2 	"/>
	<g>
		<polygon fill="#F2F2F2" points="25.3,17.8 14.2,17.8 15.1,15.9 23.4,15.9 		"/>
		<polygon fill="#F2F2F2" points="30.4,22.9 11.8,22.9 12.7,21 28.5,21 		"/>
		<polygon fill="#F2F2F2" points="35.5,28 9.4,28 10.3,26.1 33.6,26.1 		"/>
		<polygon fill="#F2F2F2" points="35.7,31.2 31.6,33.1 7,33.1 7.9,31.2 		"/>
		<polygon fill="#F2F2F2" points="24.8,36.3 20.7,38.2 4.6,38.2 5.5,36.3 		"/>
		<polygon fill="#F2F2F2" points="13.9,41.4 9.9,43.3 2.2,43.3 3.1,41.4 		"/>
	</g>
	<path opacity="0.1" fill="#231F20" d="M17.8,10.2l-1.3,2.8c0.1,0.2,0.2,0.4,0.3,0.6c0.1,0.1,0.1,0.2,0.2,0.3
		c0.5,0.5,1.2,0.8,1.9,0.9c0.1,0.7,0.4,1.4,0.9,1.9s1.2,0.8,1.9,0.9c0.1,0.7,0.4,1.4,0.9,1.9s1.2,0.8,1.9,0.9
		c0.1,0.7,0.4,1.4,0.9,1.9s1.2,0.8,1.9,0.9c0.1,0.7,0.4,1.4,0.9,1.9c0.5,0.5,1.2,0.8,1.9,0.9c0.1,0.7,0.4,1.4,0.9,1.9
		c0.5,0.5,1.2,0.8,1.9,0.9c0.1,0.7,0.4,1.4,0.9,1.9c0.2,0.2,0.5,0.4,0.8,0.5c0,0,0,0,0.1,0l2.9-1.3L17.8,10.2z"/>
	<path fill="#FFD15C" d="M17.8,10.3l-0.2,0.2c-0.8,0.8-1,2-0.4,2.9c0,0.1,0.1,0.1,0.2,0.2c0.6,0.6,1.3,0.8,2.1,0.8
		c0,0.7,0.2,1.5,0.8,2.1c0.6,0.6,1.3,0.8,2.1,0.8c0,0.7,0.2,1.5,0.8,2.1c0.6,0.6,1.3,0.8,2.1,0.8c0,0.7,0.2,1.5,0.8,2.1
		c0.6,0.6,1.3,0.8,2.1,0.8c0,0.7,0.2,1.5,0.8,2.1c0.6,0.6,1.3,0.8,2.1,0.8c0,0.7,0.2,1.5,0.8,2.1c0.6,0.6,1.3,0.8,2.1,0.8
		c0,0.7,0.2,1.5,0.8,2.1c0.2,0.2,0.4,0.3,0.6,0.4c0.8,0.3,1.8,0.1,2.4-0.6l0.2-0.2L17.8,10.3z"/>
</g>
</svg>
