<?xml version="1.0" encoding="utf-8"?>
<!-- Generator: Adobe Illustrator 18.0.0, SVG Export Plug-In . SVG Version: 6.00 Build 0)  -->
<!DOCTYPE svg PUBLIC "-//W3C//DTD SVG 1.1//EN" "http://www.w3.org/Graphics/SVG/1.1/DTD/svg11.dtd">
<svg version="1.1" id="Layer_1" xmlns="http://www.w3.org/2000/svg" xmlns:xlink="http://www.w3.org/1999/xlink" x="0px" y="0px"
	 viewBox="0 0 48 48" enable-background="new 0 0 48 48" xml:space="preserve">
<g>
	<g>
		<g>
			<path fill="#344A5E" d="M33.4,42.1c-0.4-1.7-1.5-3.1-3.1-3.8l-8.2-3.5l-4.7,1.5l-4.7-1.5l-8.2,3.5C3,39,1.8,40.4,1.5,42.1L0.2,48
				h34.4L33.4,42.1z"/>
			<polygon fill="#CED6E0" points="18.9,48 22.9,35.1 22.1,34.8 17.4,36.4 12.7,34.8 11.8,35.2 16,48 			"/>
			<polygon fill="#F3705A" points="18.8,40.6 20.2,39.2 17.4,36.4 14.7,39.2 16.1,40.6 			"/>
			<polygon fill="#F3705A" points="19.8,48 18.8,40.6 16.1,40.6 15,48 			"/>
			<rect x="14" y="28.3" fill="#F7B64C" width="6.9" height="8.1"/>
			<g>
				<ellipse fill="#415A6B" cx="17.3" cy="21.8" rx="6.9" ry="7.7"/>
			</g>
			<g>
				<path fill="#FFD15C" d="M24.7,25.7c-0.2,1.2-0.9,2.1-1.5,1.9c-0.6-0.2-0.8-1.3-0.6-2.6c0.2-1.2,0.9-2.1,1.5-1.9
					C24.7,23.3,24.9,24.4,24.7,25.7z"/>
			</g>
			<g>
				<path fill="#FFD15C" d="M10.2,25.7c0.2,1.2,0.9,2.1,1.5,1.9c0.6-0.2,0.8-1.3,0.6-2.6c-0.2-1.2-0.9-2.1-1.5-1.9
					C10.2,23.3,9.9,24.4,10.2,25.7z"/>
			</g>
			<g>
				<polygon fill="#F3F3F3" points="17.4,36.4 14.9,40.4 12,35.1 14,33 				"/>
			</g>
			<g>
				<polygon fill="#F3F3F3" points="17.4,36.4 20,40.4 22.9,35.1 20.9,33 				"/>
			</g>
			<path fill="#FFD15C" d="M19.6,17.8c-0.8,1-2.4,1.6-4.2,2c-2.4,0.5-4.2,2.6-4.2,5.1v1.5c0,3.2,2.3,6.1,5.5,6.4
				c3.7,0.4,6.7-2.5,6.7-6.2v-3.1c0-1.9-0.9-3.6-2.6-4.5C20.4,18.7,20,18.4,19.6,17.8z"/>
			<g>
				<g>
					<polygon fill="#415A6B" points="20.8,48 26.4,42.3 23.1,40.6 26.4,38.2 22.9,35.1 18.6,48 					"/>
				</g>
				<g>
					<polygon fill="#415A6B" points="14,48 16.3,48 12,35.1 8.5,38.2 11.8,40.6 8.5,42.3 					"/>
				</g>
			</g>
		</g>
		<g>
			<path fill="#8AD7F8" d="M45.1,0H26.7C25.2,0,24,1.2,24,2.7v13.5c0,1.5,1.2,2.7,2.7,2.7h0.7v6.1l10.8-6.1h6.9
				c1.5,0,2.7-1.2,2.7-2.7V2.7C47.8,1.2,46.6,0,45.1,0z"/>
			<g>
				<g>
					<g>
						<polygon fill="#F3705A" points="43,8.4 35.9,2.6 28.7,8.4 						"/>
					</g>
					<rect x="30.6" y="8.4" fill="#FFFFFF" width="10.5" height="8"/>
				</g>
				<rect x="34.3" y="12.7" fill="#415A6B" width="3.1" height="3.7"/>
			</g>
		</g>
	</g>
</g>
</svg>
