<?xml version="1.0" encoding="utf-8"?>
<!-- Generator: Adobe Illustrator 20.1.0, SVG Export Plug-In . SVG Version: 6.00 Build 0)  -->
<!DOCTYPE svg PUBLIC "-//W3C//DTD SVG 1.1//EN" "http://www.w3.org/Graphics/SVG/1.1/DTD/svg11.dtd">
<svg version="1.1" id="Layer_1" xmlns="http://www.w3.org/2000/svg" xmlns:xlink="http://www.w3.org/1999/xlink" x="0px" y="0px"
	 viewBox="0 0 49 49" enable-background="new 0 0 49 49" xml:space="preserve">
<g>
	<path fill="#FFD15C" d="M7.3,47.4c0,0-7.9-1.5-6.6-12.8c0,0-0.1-2.5,8.7-12.5c0,0,8.4-14.8,14.4-18.1c0,0,6-4.3,12.3-3.1
		c9.1,1.7,11.7,11.7,11.7,11.7s3.7,10.3-5.2,21.3c-8.8,11-19.7,13.5-19.7,13.5S14.6,49.7,7.3,47.4z"/>
	<g>
		<path fill="#F8B64C" d="M23.6,12.2c-1,0-2-0.7-2.3-1.7c-0.1-0.3,0.1-0.5,0.3-0.6c0.3-0.1,0.5,0.1,0.6,0.3c0.2,0.6,0.7,1,1.3,1
			s1.1-0.4,1.3-1c0.1-0.3,0.4-0.4,0.6-0.3c0.3,0.1,0.4,0.4,0.3,0.6C25.5,11.5,24.6,12.2,23.6,12.2z"/>
	</g>
	<g>
		<path fill="#F8B64C" d="M40.5,11.8c-1,0-2-0.7-2.3-1.7c-0.1-0.3,0.1-0.5,0.3-0.6c0.3-0.1,0.5,0.1,0.6,0.3c0.2,0.6,0.7,1,1.3,1
			c0.6,0,1.1-0.4,1.3-1c0.1-0.3,0.4-0.4,0.6-0.3c0.3,0.1,0.4,0.4,0.3,0.6C42.4,11.1,41.5,11.8,40.5,11.8z"/>
	</g>
	<g>
		<path fill="#F8B64C" d="M37.3,25.5c-1,0-2-0.7-2.3-1.7c-0.1-0.3,0.1-0.5,0.3-0.6c0.3-0.1,0.5,0.1,0.6,0.3c0.2,0.6,0.7,1,1.3,1
			c0.6,0,1.1-0.4,1.3-1c0.1-0.3,0.4-0.4,0.6-0.3c0.3,0.1,0.4,0.4,0.3,0.6C39.3,24.8,38.3,25.5,37.3,25.5z"/>
	</g>
	<g>
		<path fill="#F8B64C" d="M30.1,21.1c-1,0-2-0.7-2.3-1.7c-0.1-0.3,0.1-0.5,0.3-0.6c0.3-0.1,0.5,0.1,0.6,0.3c0.2,0.6,0.7,1,1.3,1
			s1.1-0.4,1.3-1c0.1-0.3,0.4-0.4,0.6-0.3c0.3,0.1,0.4,0.4,0.3,0.6C32.1,20.4,31.2,21.1,30.1,21.1z"/>
	</g>
	<g>
		<path fill="#F8B64C" d="M30.1,36.6c-1,0-2-0.7-2.3-1.7c-0.1-0.3,0.1-0.5,0.3-0.6c0.3-0.1,0.5,0.1,0.6,0.3c0.2,0.6,0.7,1,1.3,1
			s1.1-0.4,1.3-1c0.1-0.3,0.4-0.4,0.6-0.3c0.3,0.1,0.4,0.4,0.3,0.6C32.1,35.9,31.2,36.6,30.1,36.6z"/>
	</g>
	<g>
		<path fill="#F8B64C" d="M16.6,29.1c-1,0-2-0.7-2.3-1.7c-0.1-0.3,0.1-0.5,0.3-0.6c0.3-0.1,0.5,0.1,0.6,0.3c0.2,0.6,0.7,1,1.3,1
			c0.6,0,1.1-0.4,1.3-1c0.1-0.3,0.4-0.4,0.6-0.3c0.3,0.1,0.4,0.4,0.3,0.6C18.5,28.4,17.6,29.1,16.6,29.1z"/>
	</g>
	<g>
		<path fill="#F8B64C" d="M8.7,40.9c-1,0-2-0.7-2.3-1.7c-0.1-0.3,0.1-0.5,0.3-0.6c0.3-0.1,0.5,0.1,0.6,0.3c0.2,0.6,0.7,1,1.3,1
			c0.6,0,1.1-0.4,1.3-1c0.1-0.3,0.4-0.4,0.6-0.3c0.3,0.1,0.4,0.4,0.3,0.6C10.6,40.2,9.7,40.9,8.7,40.9z"/>
	</g>
	<path fill="#FCC956" d="M47.7,12.5c0,0-0.1-0.3-0.3-0.9c0.3,4-0.5,10.5-5.9,17.2c-8.8,11-19.7,13.5-19.7,13.5s-8.3,2.3-15.6,0
		c0,0-3.9-0.7-5.8-5.1c0.2,8.8,6.8,10.1,6.8,10.1c7.3,2.3,15.6,0,15.6,0s10.9-2.5,19.7-13.5C51.4,22.8,47.7,12.5,47.7,12.5z"/>
</g>
</svg>
