<?xml version="1.0" encoding="utf-8"?>
<!-- Generator: Adobe Illustrator 20.1.0, SVG Export Plug-In . SVG Version: 6.00 Build 0)  -->
<!DOCTYPE svg PUBLIC "-//W3C//DTD SVG 1.1//EN" "http://www.w3.org/Graphics/SVG/1.1/DTD/svg11.dtd">
<svg version="1.1" id="Layer_1" xmlns="http://www.w3.org/2000/svg" xmlns:xlink="http://www.w3.org/1999/xlink" x="0px" y="0px"
	 viewBox="0 0 49 49" enable-background="new 0 0 49 49" xml:space="preserve">
<g>
	<path fill="#F2F2F2" d="M46.5,12.4h-44c-1.1,0-2,0.9-2,2v32.1c0,1.1,0.9,2,2,2h44c1.1,0,2-0.9,2-2V14.4
		C48.5,13.3,47.6,12.4,46.5,12.4z"/>
	<path fill="#FFFFFF" d="M30.4,15H18.6c-0.5,0-0.9,0.4-0.9,0.9c0,0.5,0.4,0.9,0.9,0.9h11.9c0.5,0,0.9-0.4,0.9-0.9
		C31.3,15.4,30.9,15,30.4,15z"/>
	<rect x="19.5" y="0.5" fill="#FF7058" width="10" height="15.4"/>
	<rect x="5" y="19.1" fill="#84DBFF" width="17.3" height="19.2"/>
	<rect x="27.1" y="24.7" fill="#CDD6E0" width="16.9" height="2.3"/>
	<rect x="27.1" y="30.3" fill="#CDD6E0" width="16.9" height="2.3"/>
	<rect x="27.1" y="36" fill="#CDD6E0" width="16.9" height="2.3"/>
	<rect x="5.1" y="41.6" fill="#CDD6E0" width="38.9" height="2.3"/>
	<ellipse transform="matrix(0.9806 -0.1961 0.1961 0.9806 -5.0373 2.5527)" fill="#F8B64C" cx="10.4" cy="26.7" rx="0.4" ry="1"/>
	<ellipse transform="matrix(0.1961 -0.9806 0.9806 0.1961 -12.5664 38.0884)" fill="#F8B64C" cx="16.9" cy="26.7" rx="1" ry="0.4"/>
	<path fill="#FFFFFF" d="M22,38.3H5.3c0,0,0.3-3.4,1.4-5c0,0,0,0,0.1,0C7.5,33,10.2,32,11.5,31l0.1-0.6c0,0,0.5,1.1,1.7,1.2
		c0.1,0,0.2,0,0.4,0c0.1,0,0.3,0,0.4,0c1.2-0.2,1.7-1.2,1.7-1.2l0.1,0.6c1.3,1,4,2,4.6,2.2c0.1,0,0.1,0,0.1,0
		C21.7,34.8,22,38.3,22,38.3z"/>
	<path fill="#CDD6E0" d="M11.7,32.9l0.5,0.9l0.8-1.2l-0.2-0.2l-0.6,0.9L11.5,32C11.5,32.3,11.6,32.6,11.7,32.9z"/>
	<path fill="#F8B64C" d="M15.7,30.4c0,0-0.5,1.1-1.7,1.2c-0.1,0-0.2,0-0.4,0c-0.1,0-0.3,0-0.4,0c-1.2-0.2-1.7-1.2-1.7-1.2
		s0-0.2,0-0.4c0-0.1,0-0.2,0-0.3c1,1.2,2,1.4,2,1.4s1.1-0.2,2-1.4c0,0.1,0,0.2,0,0.3C15.7,30.2,15.7,30.4,15.7,30.4z"/>
	<path fill="#F7AF48" d="M15.7,30c-0.9,1.1-1.9,1.2-2,1.2l0,0l0,0c-0.1,0-1.1-0.2-2-1.2c0-0.1,0-0.2,0-0.3c1,1.2,2,1.4,2,1.4
		s1.1-0.2,2-1.4C15.7,29.7,15.7,29.9,15.7,30z"/>
	<path fill="#FFD15C" d="M17.1,25.8c0,0.2-0.1,0.3-0.1,0.3c-0.6,4.5-3.4,4.9-3.4,4.9s-2.8-0.5-3.4-4.9c0,0,0-0.1-0.1-0.3v0
		c-0.1-1.1-0.3-4.5,3.4-4.5C17.4,21.3,17.2,24.7,17.1,25.8z"/>
	<path fill="#40596B" d="M13.7,37.1v1.1h5.6l1.3-4.9l-0.1-0.1C19.8,33,17.1,32,15.8,31h0c0,0,0.3,1.1-0.7,3.2
		C15.1,34.2,14.2,35.9,13.7,37.1z"/>
	<path fill="#CDD6E0" d="M15.6,32.9l-0.5,0.9l-0.8-1.2l0.2-0.2l0.6,0.9l0.7-1.3C15.8,32.3,15.7,32.6,15.6,32.9z"/>
	<path fill="#FF7058" d="M14,33.1l0.4,2.5c-0.3,0.5-0.5,1.1-0.8,1.6c-0.2-0.5-0.5-1.1-0.8-1.6l0.4-2.5l-0.5-0.6l0.5-0.8c0,0,0,0,0,0
		c0.1,0,0.2,0,0.4,0c0.1,0,0.3,0,0.4,0c0,0,0,0,0,0l0.5,0.8L14,33.1z"/>
	<path fill="#334A5E" d="M14.2,38.3H8l-1.3-4.9l0.1-0.1C7.5,33,10.2,32,11.5,31v0l0,0c0,0-0.3,1.1,0.7,3.2c0,0,0.9,1.7,1.5,2.9
		C13.9,37.7,14.1,38.1,14.2,38.3z"/>
	<path fill="#334A5E" d="M17.1,25.8L17,25.9c0,0-0.2-1.8-1-3c0,0-0.5,0.8-2.3,0.8c-1.8,0-2.3-0.8-2.3-0.8c-0.8,1.3-1,3-1,3l-0.1-0.1
		v0c-0.1-1.1-0.3-4.5,3.4-4.5C17.4,21.3,17.2,24.7,17.1,25.8z"/>
</g>
</svg>
