<?xml version="1.0" encoding="utf-8"?>
<!-- Generator: Adobe Illustrator 16.0.0, SVG Export Plug-In . SVG Version: 6.00 Build 0)  -->
<!DOCTYPE svg PUBLIC "-//W3C//DTD SVG 1.1//EN" "http://www.w3.org/Graphics/SVG/1.1/DTD/svg11.dtd">
<svg version="1.1" id="Layer_1" xmlns="http://www.w3.org/2000/svg" xmlns:xlink="http://www.w3.org/1999/xlink" x="0px" y="0px"
	 width="48px" height="48px" viewBox="0 0 48 48" enable-background="new 0 0 48 48" xml:space="preserve">
<g>
	<path fill="#FFFFFF" d="M31.427,24.618c0.488-0.076,0.977-0.154,1.465-0.231c0.002,0,0.004-0.001,0.006-0.001
		c-0.4-0.349-0.818-0.683-1.252-1.003c-0.087,0.182-0.24,0.34-0.348,0.517C31.151,24.141,31.153,24.543,31.427,24.618"/>
	<path fill="#54C0EB" d="M43.796,37.564c-7.492,10.934-22.428,13.723-33.361,6.232C-0.498,36.305-3.288,21.369,4.202,10.436
		C11.694-0.498,26.631-3.287,37.563,4.204C48.498,11.696,51.288,26.632,43.796,37.564"/>
	<path fill="#84DBFF" d="M12.456,37.568c-0.176-0.074-0.379-0.021-0.566-0.063c-0.301-0.064-0.498-0.346-0.743-0.531
		s-0.681-0.229-0.793,0.057c0.028,0.539,0.056,1.076,0.083,1.613c0.016,0.287,0.025,0.594-0.116,0.844
		c-0.144,0.25-0.499,0.4-0.728,0.225c0.281-0.189,0.27-0.664,0.002-0.875c-0.268-0.209-0.693-0.141-0.918,0.113
		c0.256-0.184,0.424-0.482,0.447-0.797c0.016-0.225-0.037-0.455,0.023-0.67c0.173-0.613,1.008-0.635,1.633-0.76
		c1.008-0.203,1.881-1.127,1.848-2.154c-0.018-0.5-0.197-1.102,0.182-1.43c0.109-0.094,0.251-0.146,0.365-0.232
		c0.476-0.355,0.17-1.281-0.424-1.285c-0.592-0.004-0.922,0.66-1.17,1.199s-0.777,1.139-1.322,0.902
		c-0.368-0.16-0.494-0.625-0.807-0.877c-0.41-0.33-1.117-0.148-1.318,0.338c-0.198,0.486,0.177,1.113,0.699,1.166
		c-0.293,0.262-0.738-0.07-0.943-0.402c-0.206-0.334-0.477-0.754-0.862-0.684c-0.015,0.262-0.03,0.521-0.046,0.785
		c-0.704-0.121-1.408-0.242-2.113-0.363c-0.428-0.074-0.984-0.328-0.878-0.748c1.257-0.428,2.564-0.701,3.886-0.813
		c0.328-0.027,0.658-0.043,0.983-0.002c0.345,0.047,0.681,0.158,1.026,0.182c0.851,0.059,1.666-0.43,2.214-1.084
		c0.548-0.652,0.875-1.459,1.194-2.25c0.383-0.949,0.774-1.955,0.637-2.971c-0.139-1.016-1.014-2.009-2.031-1.888
		c-0.309-0.574-0.925-0.621-1.568-0.516c-0.644,0.104-1.24,0.407-1.883,0.519c-0.642,0.112-1.408-0.03-1.736-0.594
		c-0.137-0.232-0.18-0.507-0.293-0.751c-0.196-0.418-0.58-0.712-0.871-1.07c-0.561-0.685-0.777-1.637-0.569-2.497l-0.033,0.211
		c-0.735-0.278-1.069-1.104-1.379-1.827c-0.31-0.724-0.801-1.52-1.585-1.581c-0.241-0.02-0.46,0.035-0.657,0.138
		c-1.456,4.194-1.687,8.646-0.786,12.865c0.223,0.113,0.437,0.256,0.645,0.398c1.029,0.705,2.094,1.447,2.709,2.533
		c-1.043-0.688-2.085-1.377-3.128-2.064c-0.011-0.008-0.021-0.014-0.03-0.02c1.033,4.111,3.15,7.957,6.268,11.08
		c0.24-0.119,0.526-0.068,0.791-0.016c1.115,0.223,2.312,0.316,3.359-0.127s1.88-1.564,1.66-2.682
		C12.768,37.893,12.665,37.656,12.456,37.568"/>
	<path fill="#84DBFF" d="M41.872,33.861c0.346-0.006,0.713-0.104,0.936-0.367c0.145-0.172,0.215-0.393,0.279-0.605
		c0.361-1.184,0.721-2.363,1.082-3.545c0.638,0.131,0.898,0.957,0.721,1.584s-0.639,1.125-0.982,1.68
		c-0.344,0.553-0.568,1.281-0.238,1.842c0.324,0.027,0.548-0.33,0.599-0.652c0.052-0.32,0.019-0.67,0.187-0.949
		c0.197-0.326,0.609-0.449,0.986-0.51c0.336-0.051,0.709-0.043,1.051,0.035c2.478-6.64,1.844-13.985-1.525-20.047
		c-0.499-0.055-0.824-0.554-0.997-1.027c-0.174-0.477-0.292-1.011-0.674-1.345c-0.193-0.169-0.446-0.276-0.589-0.491
		c-0.127-0.189-0.143-0.423-0.131-0.655c-0.642-0.782-1.332-1.532-2.082-2.239c-0.166,0.033-0.323,0.117-0.414,0.26
		c-0.199,0.32-0.074,0.782,0.232,1.002c-0.232-0.261-0.584-0.412-0.933-0.399c-0.249,0.008-0.497,0.093-0.742,0.051
		c-0.698-0.12-0.819-1.04-1.032-1.716c-0.341-1.089-1.463-1.946-2.594-1.787c-0.55,0.077-1.195,0.346-1.602-0.035
		c-0.116-0.11-0.188-0.259-0.299-0.377c-0.447-0.483-1.436-0.037-1.369,0.619c0.064,0.654,0.836,0.942,1.461,1.153
		c0.623,0.21,1.348,0.725,1.15,1.354c-0.133,0.426-0.631,0.62-0.873,0.995c-0.316,0.491-0.033,1.251,0.526,1.415
		c0.562,0.164,1.209-0.324,1.207-0.907c0.323,0.292,0.01,0.823-0.335,1.089c-0.344,0.267-0.777,0.614-0.654,1.032
		c0.291-0.014,0.581-0.027,0.872-0.041c-0.052,0.792-0.103,1.584-0.153,2.376c-0.031,0.481-0.246,1.126-0.725,1.058
		c-0.619-1.337-1.074-2.751-1.35-4.197c-0.069-0.358-0.127-0.722-0.117-1.085c0.009-0.387,0.094-0.771,0.08-1.156
		c-0.034-0.946-0.67-1.789-1.457-2.318c-0.785-0.529-1.713-0.796-2.625-1.056c-1.094-0.313-2.25-0.627-3.356-0.356
		c-1.106,0.271-2.101,1.354-1.848,2.465c-0.599,0.408-0.577,1.095-0.388,1.792c0.191,0.698,0.596,1.323,0.795,2.02
		s0.129,1.558-0.453,1.988c-0.24,0.177-0.539,0.258-0.795,0.411c-0.439,0.266-0.719,0.723-1.08,1.088
		c-0.691,0.698-1.719,1.05-2.693,0.921l0.238,0.011c-0.223,0.844-1.096,1.311-1.858,1.737c-0.763,0.426-1.584,1.063-1.562,1.936
		c0.029,1.099,1.326,1.657,2.41,1.843c1.191,0.205,2.399,0.287,3.605,0.368c0.521,0.035,1.053,0.069,1.559-0.066
		c0.504-0.137,0.949-0.436,1.447-0.595c1.932-0.619,4.024,0.977,5.986,0.463c-0.465-0.206-0.684-0.771-0.641-1.277
		c0.041-0.507,0.287-0.972,0.529-1.419c0.659-1.221,1.355-2.483,2.483-3.289c-0.64,1.231-1.278,2.464-1.917,3.696
		c-0.126,0.243-0.256,0.5-0.25,0.774c0.011,0.595,0.617,0.977,1.148,1.246c0.422,0.214,0.858,0.431,1.33,0.464
		c0.471,0.032,0.991-0.168,1.193-0.595c0.225-0.479-0.008-1.03-0.098-1.55c-0.09-0.521,0.125-1.221,0.654-1.223
		c-0.109,1.423,0.047,2.866,0.457,4.234c0.139,0.464,0.309,0.942,0.232,1.42c-0.088,0.549-0.482,0.991-0.86,1.398
		c-0.7,0.756-1.399,1.51-2.099,2.266c0.979-0.33,2.078-0.284,3.027,0.125c0.732,0.317,1.435,1.196,0.963,1.841
		c-0.305,0.416-1.039,0.639-0.922,1.143c0.064,0.275,0.377,0.418,0.513,0.668c0.26,0.48-0.233,1.004-0.636,1.373
		s-0.742,1.076-0.297,1.393c-1.254-0.031-2.324,1.029-2.725,2.219s-0.279,2.482-0.154,3.732c0.451-0.129,0.44-0.766,0.348-1.227
		c-0.172-0.861-0.19-1.955,0.572-2.395c0.387-0.225,0.9-0.209,1.23-0.512c0.313-0.287,0.387-0.801,0.757-1.01
		c0.384-0.217,0.896,0,1.294-0.188c0.404-0.191,0.518-0.697,0.659-1.121c0.14-0.424,0.492-0.895,0.927-0.787
		c0.287,0.07,0.45,0.363,0.6,0.619C39.672,32.967,40.687,33.877,41.872,33.861"/>
	
		<rect x="32.31" y="27.118" transform="matrix(0.707 -0.7072 0.7072 0.707 -11.869 33.9231)" fill="#E8EAEA" width="5.394" height="8.335"/>
	<path fill="#334A5E" d="M33.004,29.283c-5.84,5.84-15.343,5.84-21.183,0c-5.84-5.84-5.84-15.342,0-21.182s15.343-5.84,21.183,0
		S38.844,23.443,33.004,29.283 M14.569,10.848c-4.326,4.325-4.326,11.363,0,15.688c4.324,4.325,11.362,4.325,15.688,0
		c4.325-4.325,4.325-11.363,0-15.688S18.894,6.523,14.569,10.848"/>
	<path fill="#FF7058" d="M47.705,38.047l-8.683-8.682c-0.393-0.395-1.029-0.395-1.422,0l-4.516,4.516
		c-0.393,0.391-0.393,1.029,0,1.422l8.682,8.682c0.394,0.393,1.03,0.393,1.424,0l4.515-4.516
		C48.099,39.078,48.099,38.439,47.705,38.047"/>
	
		<rect x="34.294" y="33.128" transform="matrix(-0.7071 0.7071 -0.7071 -0.7071 90.299 32.1419)" fill="#FFD15C" width="8.397" height="3.289"/>
</g>
</svg>
