<?xml version="1.0" encoding="utf-8"?>
<!-- Generator: Adobe Illustrator 18.0.0, SVG Export Plug-In . SVG Version: 6.00 Build 0)  -->
<!DOCTYPE svg PUBLIC "-//W3C//DTD SVG 1.1//EN" "http://www.w3.org/Graphics/SVG/1.1/DTD/svg11.dtd">
<svg version="1.1" id="Layer_1" xmlns="http://www.w3.org/2000/svg" xmlns:xlink="http://www.w3.org/1999/xlink" x="0px" y="0px"
	 viewBox="0 0 48 48" enable-background="new 0 0 48 48" xml:space="preserve">
<g>
	<g>
		<rect x="27.8" y="17.1" fill="#F8B64C" width="9.2" height="7.5"/>
		<rect x="25.7" y="24.1" fill="#54C0EB" width="13.5" height="6.2"/>
		
			<rect x="30.9" y="24.1" transform="matrix(0.7071 0.7071 -0.7071 0.7071 27.5519 -15.4317)" fill="#FFFFFF" width="2.9" height="2.9"/>
		<polygon fill="#FFFFFF" points="33.9,30.3 30.9,30.3 31.4,25.9 33.4,25.9 		"/>
		<path fill="#40596B" d="M47.9,26.1v4.2H36.1l0.5-6.2l0.4-4.3v0l9,3.5C47.1,23.8,47.9,24.9,47.9,26.1z"/>
		<path fill="#40596B" d="M28.7,30.3H16.9v-4.2c0-1.2,0.7-2.3,1.9-2.8l9-3.5v0l0.4,4.3L28.7,30.3z"/>
		<path fill="#334A5E" d="M39.1,26.4c-0.1,0-0.1,0.1,0,0.2l0,0l3.1,3.7h-6.2l0.5-6.2l0.4-4.3l4.5,4.2c0.1,0,0,0.1,0,0.2L39.1,26.4z"
			/>
		<path fill="#334A5E" d="M25.7,26.4c0.1,0,0.1,0.1,0,0.2l0,0l-3.1,3.7h6.2l-0.5-6.2l-0.4-4.3l-4.5,4.2c-0.1,0,0,0.1,0,0.2
			L25.7,26.4z"/>
		<polygon opacity="0.1" fill="#40596B" points="37,17.1 37,19.8 33.7,22.4 29.9,19.6 32,17.1 		"/>
		
			<ellipse transform="matrix(0.9962 -8.715574e-002 8.715574e-002 0.9962 -0.8821 2.3183)" fill="#F8B64C" cx="26.1" cy="11.3" rx="1.4" ry="2.1"/>
		
			<ellipse transform="matrix(0.9962 8.715574e-002 -8.715574e-002 0.9962 1.1288 -3.3301)" fill="#F8B64C" cx="38.7" cy="11.3" rx="1.4" ry="2.1"/>
		<path fill="#FFD15C" d="M39.1,8.1v2.2c0,0.5,0,0.9-0.1,1.4c-0.1,0.8-0.3,1.5-0.5,2.2c-0.5,1.7-1.5,3.4-2.7,4.7l-0.6,0.7
			c-0.6,0.6-1.4,1-2.3,1h-1c-0.9,0-1.7-0.4-2.3-1L29,18.6c-0.9-1-1.6-2.1-2.1-3.2c-0.5-1.2-0.9-2.4-1.1-3.7
			c-0.1-0.5-0.1-0.9-0.1-1.4c0-0.1,0-0.1,0-0.1v-2c0-0.6,0.1-1.3,0.3-1.8c0.8-2.8,3.4-4.8,6.4-4.8c3.1,0,5.6,2.1,6.4,4.8
			C39,6.9,39.1,7.5,39.1,8.1z"/>
		<polygon fill="#84DBFF" points="32.4,23.5 37,19.8 36.3,27.4 		"/>
		<polygon fill="#84DBFF" points="32.4,23.5 27.8,19.8 28.5,27.4 		"/>
		<path fill="#2A425A" d="M38.3,11.6l0.6-0.2l0.4-1C39.7,9.2,40,7.8,40,6.5c0-3.7-1.9-3.3-1.9-3.3C36.7,0,32.3,0,32.3,0
			c-6.5-0.2-7.4,4.6-7.4,7.2c0,0.8,0.2,1.6,0.4,2.4c0.2,0.8,0.6,1.7,0.6,1.7h0.4c0,0-0.8-4.8,0.9-5.8c0,0,1.8,2.8,7.5,2.2
			c0,0-2.2,0-2.6-0.8c0,0,3.7,1.4,5.6-1.5C37.6,5.5,38.7,8.6,38.3,11.6z"/>
	</g>
	<g>
		<rect x="11" y="34.8" fill="#F8B64C" width="9.2" height="7.5"/>
		<rect x="8.9" y="41.8" fill="#54C0EB" width="13.5" height="6.2"/>
		
			<rect x="14.1" y="41.8" transform="matrix(0.7071 0.7071 -0.7071 0.7071 35.15 1.6427)" fill="#FFFFFF" width="2.9" height="2.9"/>
		<polygon fill="#FFFFFF" points="17.1,48 14.1,48 14.6,43.6 16.6,43.6 		"/>
		<path fill="#40596B" d="M31.1,43.8V48H19.3l0.5-6.2l0.4-4.3v0l9,3.5C30.3,41.5,31.1,42.6,31.1,43.8z"/>
		<path fill="#40596B" d="M11.9,48H0.1v-4.2c0-1.2,0.7-2.3,1.9-2.8l9-3.5v0l0.4,4.3L11.9,48z"/>
		<path fill="#334A5E" d="M22.3,44.1c-0.1,0-0.1,0.1,0,0.2l0,0l3.1,3.7h-6.2l0.5-6.2l0.4-4.3l4.5,4.2c0.1,0,0,0.1,0,0.2L22.3,44.1z"
			/>
		<path fill="#334A5E" d="M8.9,44.1c0.1,0,0.1,0.1,0,0.2l0,0L5.7,48h6.2l-0.5-6.2L11,37.5l-4.5,4.2c-0.1,0,0,0.1,0,0.2L8.9,44.1z"/>
		<polygon opacity="0.1" fill="#40596B" points="20.2,34.8 20.2,37.5 16.9,40.1 13.1,37.3 15.1,34.8 		"/>
		
			<ellipse transform="matrix(0.9962 -8.715574e-002 8.715574e-002 0.9962 -2.4895 0.9204)" fill="#F8B64C" cx="9.3" cy="29" rx="1.4" ry="2.1"/>
		
			<ellipse transform="matrix(0.9962 8.715574e-002 -8.715574e-002 0.9962 2.6082 -1.7974)" fill="#F8B64C" cx="21.9" cy="29" rx="1.4" ry="2.1"/>
		<path fill="#FFD15C" d="M22.3,25.8V28c0,0.5,0,0.9-0.1,1.4c-0.1,0.8-0.3,1.5-0.5,2.2c-0.5,1.7-1.5,3.4-2.7,4.7l-0.6,0.7
			c-0.6,0.6-1.4,1-2.3,1h-1c-0.9,0-1.7-0.4-2.3-1l-0.6-0.7c-0.9-1-1.6-2.1-2.1-3.2C9.5,32,9.2,30.7,9,29.4c-0.1-0.5-0.1-0.9-0.1-1.4
			c0-0.1,0-0.1,0-0.1v-2c0-0.6,0.1-1.3,0.3-1.8c0.8-2.8,3.4-4.8,6.4-4.8c3.1,0,5.6,2.1,6.4,4.8C22.2,24.6,22.3,25.2,22.3,25.8z"/>
		<polygon fill="#84DBFF" points="15.6,41.2 20.2,37.5 19.5,45.1 		"/>
		<polygon fill="#84DBFF" points="15.6,41.2 11,37.5 11.7,45.1 		"/>
		<path fill="#2A425A" d="M21.5,29.3l0.6-0.2l0.4-1c0.4-1.3,0.7-2.6,0.7-3.9c0-3.7-1.9-3.3-1.9-3.3c-1.4-3.2-5.9-3.2-5.9-3.2
			C8.9,17.6,8,22.3,8,25c0,0.8,0.2,1.6,0.4,2.4c0.2,0.8,0.6,1.7,0.6,1.7h0.4c0,0-0.8-4.8,0.9-5.8c0,0,1.8,2.8,7.5,2.2
			c0,0-2.2,0-2.6-0.8c0,0,3.7,1.4,5.6-1.5C20.8,23.2,21.9,26.3,21.5,29.3z"/>
	</g>
</g>
</svg>
