<?xml version="1.0" encoding="utf-8"?>
<!-- Generator: Adobe Illustrator 18.0.0, SVG Export Plug-In . SVG Version: 6.00 Build 0)  -->
<!DOCTYPE svg PUBLIC "-//W3C//DTD SVG 1.1//EN" "http://www.w3.org/Graphics/SVG/1.1/DTD/svg11.dtd">
<svg version="1.1" id="Layer_1" xmlns="http://www.w3.org/2000/svg" xmlns:xlink="http://www.w3.org/1999/xlink" x="0px" y="0px"
	 viewBox="0 0 512 512" enable-background="new 0 0 512 512" xml:space="preserve">
<g>
	<polygon fill="#4CDBC4" points="333.8,67.7 333.8,3.3 282.7,3.3 282.7,67.7 243.2,67.7 308.3,132.8 373.4,67.7 	"/>
	<path fill="#ACB3BA" d="M487.5,441.3H148.6c-18.3,0-33.2-14.9-33.2-33.2c0-18.3,14.9-33.2,33.2-33.2h11c5.9,0,11.5-2.6,15.3-7.2
		c3.8-4.6,5.3-10.6,4.2-16.4L122.4,56c-1.8-9.4-10-16.1-19.5-16.1h-81C10.9,39.9,2,48.8,2,59.8s8.9,19.9,19.9,19.9h64.6l49.3,256.8
		c-34.1,6.1-60.1,36-60.1,71.8c0,40.2,32.7,72.9,72.9,72.9h338.9c11,0,19.9-8.9,19.9-19.9C507.3,450.2,498.5,441.3,487.5,441.3z"/>
	<path fill="#40596B" d="M212.2,508.7c-26.2,0-47.5-21.3-47.5-47.5c0-26.2,21.3-47.5,47.5-47.5c26.2,0,47.5,21.3,47.5,47.5
		C259.7,487.4,238.4,508.7,212.2,508.7z"/>
	<path fill="#40596B" d="M387.6,508.7c-26.2,0-47.5-21.3-47.5-47.5c0-26.2,21.3-47.5,47.5-47.5c26.2,0,47.5,21.3,47.5,47.5
		C435,487.4,413.8,508.7,387.6,508.7z"/>
	<path fill="#FFFFFF" d="M387.6,441c-11.2,0-20.2,9.1-20.2,20.2c0,11.2,9.1,20.2,20.2,20.2c11.2,0,20.2-9.1,20.2-20.2
		C407.8,450.1,398.7,441,387.6,441z"/>
	<path fill="#FFFFFF" d="M212.2,441c-11.2,0-20.2,9.1-20.2,20.2c0,11.2,9.1,20.2,20.2,20.2s20.2-9.1,20.2-20.2
		C232.5,450.1,223.4,441,212.2,441z"/>
	<g>
		<path fill="#CDD6E0" d="M488.9,160.8H127.6c-13.2,0-23.1,12-20.7,24.9l33.3,177.9c3,16.1,17.1,27.8,33.5,27.8h280.1
			c10.1,0,18.8-7.2,20.7-17.2l35.3-188.5C512.1,172.7,502.1,160.8,488.9,160.8z M242.4,334.4c0,9-7.9,16.3-17.7,16.3
			s-17.7-7.3-17.7-16.3V217.8c0-9,7.9-16.3,17.7-16.3s17.7,7.3,17.7,16.3V334.4z M326,334.4c0,9-7.9,16.3-17.7,16.3
			c-9.8,0-17.7-7.3-17.7-16.3V217.8c0-9,7.9-16.3,17.7-16.3c9.8,0,17.7,7.3,17.7,16.3V334.4z M409.5,334.4c0,9-7.9,16.3-17.7,16.3
			s-17.7-7.3-17.7-16.3V217.8c0-9,7.9-16.3,17.7-16.3s17.7,7.3,17.7,16.3V334.4z"/>
	</g>
</g>
</svg>
