<?xml version="1.0" encoding="utf-8"?>
<!-- Generator: Adobe Illustrator 16.0.0, SVG Export Plug-In . SVG Version: 6.00 Build 0)  -->
<!DOCTYPE svg PUBLIC "-//W3C//DTD SVG 1.1//EN" "http://www.w3.org/Graphics/SVG/1.1/DTD/svg11.dtd">
<svg version="1.1" id="Layer_1" xmlns="http://www.w3.org/2000/svg" xmlns:xlink="http://www.w3.org/1999/xlink" x="0px" y="0px"
	 width="48px" height="48px" viewBox="0 0 48 48" enable-background="new 0 0 48 48" xml:space="preserve">
<g>
	<path fill="#ACB3BA" d="M20.454,39.75c2.668,3.201,3.334,6.523,3.498,8.174h0.096c0.164-1.65,0.83-4.973,3.498-8.174
		c1.729-2.076,2.838-4.611,3.011-7.307c0.02-0.318,0.03-0.648,0.03-0.99H17.413c0,0.342,0.01,0.672,0.03,0.99
		C17.616,35.139,18.725,37.674,20.454,39.75"/>
	<path fill="#FF7058" d="M33.479,34.282c-5.873-3.438-12.971-3.438-18.846,0c-3.402-5.074-3.716-12.217-3.16-19.66
		c1.527-7.176,6.502-12.543,12.584-12.527c6.082-0.018,11.057,5.352,12.584,12.527C37.196,22.065,36.884,29.208,33.479,34.282"/>
	<rect x="24.057" y="28.408" fill="#FFD15C" width="0.002" height="0.003"/>
	<rect x="24.057" y="16.545" fill="#FFD15C" width="0.002" height="0.003"/>
	<rect x="23.537" y="30.834" fill="#FFD15C" width="0.002" height="0.004"/>
	<path fill="#F8B64C" d="M33.72,31.459c-0.01,0.42-0.1,0.85-0.3,1.26C31.61,36.309,28,38.53,24,38.53c-4-0.012-7.61-2.23-9.41-5.801
		c-0.2-0.41-0.3-0.84-0.31-1.27c0.459-0.051,0.92-0.08,1.39-0.08h1.64v-2.92c3.021,3.9,6.75,4.279,6.75,4.279
		s3.69-0.369,6.711-4.221v2.861h1.569C32.81,31.379,33.271,31.409,33.72,31.459"/>
	<g opacity="0.1">
		<g>
			<defs>
				<rect id="SVGID_55_" x="20.956" y="28.52" width="12.76" height="9.469"/>
			</defs>
			<clipPath id="SVGID_2_">
				<use xlink:href="#SVGID_55_"  overflow="visible"/>
			</clipPath>
			<path clip-path="url(#SVGID_2_)" fill="#40596B" d="M33.716,31.459c-0.449-0.051-0.91-0.08-1.38-0.08h-1.569v-2.861
				c-3.021,3.852-6.711,4.221-6.711,4.221s-1.326-0.141-3.035-1.074c-0.01-0.006-0.021-0.008-0.031-0.014l-0.033,0.012l6.326,6.326
				c2.619-0.855,4.84-2.703,6.134-5.27C33.616,32.309,33.706,31.879,33.716,31.459"/>
		</g>
	</g>
	<path fill="#F2F2F2" d="M27.546,39.75c-2.668,3.201-3.334,6.523-3.498,8.174h0.58c3.358-5.02,10.203-6.492,10.203-6.492
		l-2.101-6.443c2.801-0.98,6.722,2.102,6.722,2.102c-2.381-5.883-9.244-9.018-9.244-9.018c0.354,1.615,0.432,3.08,0.348,4.371
		C30.384,35.139,29.275,37.674,27.546,39.75"/>
	<path fill="#F2F2F2" d="M15.271,34.989l-2.102,6.443c0,0,6.844,1.475,10.203,6.492h0.58c-0.164-1.65-0.831-4.973-3.498-8.174
		c-1.729-2.076-2.838-4.611-3.01-7.307c-0.084-1.289-0.008-2.756,0.347-4.371c0,0-6.863,3.135-9.244,9.018
		C8.547,37.09,12.469,34.008,15.271,34.989"/>
	<path fill="#CDD6E0" d="M24.628,47.924h21.297l-0.59-5.58c-0.76-4.461-3.71-8.07-7.64-9.811c-0.24-0.109-0.58-0.27-1.021-0.42
		c-0.3-0.111-0.656-0.223-1.049-0.322c1.504,1.393,2.962,3.162,3.827,5.299c0,0-3.922-3.082-6.724-2.102l2.102,6.443
		C34.831,41.432,27.986,42.905,24.628,47.924"/>
	<path fill="#CDD6E0" d="M23.372,47.924c-3.358-5.02-10.203-6.492-10.203-6.492l2.101-6.443c-2.801-0.98-6.723,2.102-6.723,2.102
		c0.864-2.137,2.323-3.906,3.827-5.299c-0.393,0.1-0.75,0.211-1.049,0.322c-0.44,0.15-0.78,0.311-1.021,0.42
		c-3.931,1.74-6.88,5.35-7.64,9.811l-0.59,5.58H23.372z"/>
	<rect x="24.029" y="18.973" fill="#FFD15C" width="0.002" height="0.003"/>
	<path fill="#F8B64C" d="M15.495,18.389c0.397,1.701,0.188,3.205-0.468,3.357s-1.508-1.102-1.905-2.803
		c-0.396-1.703-0.188-3.205,0.469-3.359C14.245,15.432,15.099,16.688,15.495,18.389"/>
	<path fill="#F8B64C" d="M32.55,18.389c-0.396,1.701-0.188,3.205,0.468,3.357s1.394-1.133,1.905-2.803
		c0.307-0.998,0.166-3.035-0.469-3.359C33.856,15.28,32.946,16.688,32.55,18.389"/>
	<path fill="#FFD15C" d="M33.414,23.334c-2.755,8.742-9.356,9.406-9.356,9.406s-6.603-0.664-9.357-9.406
		c0,0-1.475-4.561-0.237-8.359c0,0,0.757-6.484,9.595-6.484s9.595,6.484,9.595,6.484C34.888,18.774,33.414,23.334,33.414,23.334"/>
	<path fill="#FF7058" d="M12.85,17.174c0,0,10.136-2.34,11.11-9.357c0,0,1.559,5.068,7.211,4.678c0,0,3.898,0.82,4.094,5.693v-2.924
		c0-6.191-5.018-11.209-11.207-11.209S12.85,9.073,12.85,15.264V17.174z"/>
	<rect x="40.288" y="8.19" fill="#ACB3BA" width="1.182" height="9.76"/>
	<polygon fill="#ACB3BA" points="42.019,22.208 39.739,22.208 40.288,17.329 41.47,17.329 	"/>
	<path fill="#FF7058" d="M42.305,16.608c0,0.787-0.638,1.426-1.426,1.426s-1.427-0.639-1.427-1.426c0-0.789,0.639-1.426,1.427-1.426
		S42.305,15.819,42.305,16.608"/>
	<path fill="#334A5E" d="M34.923,8.665V15.7c-4.728-0.285-10.865,3.275-10.865,3.275S17.919,15.415,13.19,15.7V8.665H34.923z"/>
	<path fill="#40596B" d="M23.835,0.116L5.169,6.829c-0.582,0.209-0.582,1.029,0,1.238l18.666,6.711c0.144,0.053,0.301,0.053,0.445,0
		l18.666-6.711c0.581-0.209,0.581-1.029,0-1.238L24.28,0.116C24.136,0.063,23.979,0.063,23.835,0.116"/>
</g>
</svg>
