<?xml version="1.0" encoding="utf-8"?>
<!-- Generator: Adobe Illustrator 18.0.0, SVG Export Plug-In . SVG Version: 6.00 Build 0)  -->
<!DOCTYPE svg PUBLIC "-//W3C//DTD SVG 1.1//EN" "http://www.w3.org/Graphics/SVG/1.1/DTD/svg11.dtd">
<svg version="1.1" id="Layer_1" xmlns="http://www.w3.org/2000/svg" xmlns:xlink="http://www.w3.org/1999/xlink" x="0px" y="0px"
	 viewBox="0 0 48 48" enable-background="new 0 0 48 48" xml:space="preserve">
<g>
	<g>
		<path fill="#E8EAE9" d="M32.1,35.1c0.3-2.4,1.5-4.7,3.3-6.4c3.6-3.4,5.7-8.5,5.1-14C39.7,7.2,33.5,1,25.9,0.1
			C15.9-1,7.3,6.8,7.3,16.7c0,4.7,2,9,5.1,12c1.8,1.7,3.1,4,3.4,6.5H32.1z"/>
		<g>
			<g>
				<g>
					<path fill="#4ABAA5" d="M22.8,21.6c-0.7-2.6,0.6-5.3,3-6c1.3-0.4,2.8-0.2,4.1-0.5c2-0.4,3.5-2,3.8-4c1.3,2.4,1.8,5.1,1.3,7.6
						c-0.4,2.4-1.8,4.6-3.8,5.9c-0.8,0.6-1.8,1-2.9,1.1c-1.1,0.1-2.4-0.1-3.5-0.7C23.7,24,23,22.9,22.8,21.6z"/>
				</g>
				<g>
					<path fill="#415A6B" d="M24.4,35.7c0,0,0-0.1,0-0.1c-0.4-2.5-0.5-6,0.2-9.1c0.7-3.2,2.7-5.8,4.8-6.9c1.1-0.6,1.9-1.1,2.4-1.7
						c0.5-0.5,0.5-1,0.5-1s-0.1,0.4-0.6,0.9c-0.5,0.5-1.4,0.9-2.6,1.4c-0.6,0.2-1.2,0.5-1.8,1c-0.6,0.4-1.1,1-1.6,1.6
						c-1,1.2-1.8,2.7-2.3,4.3c-1.1,3.2-1.4,6.8-1.4,9.4c0,0.1,0,0.2,0,0.3H24.4z"/>
				</g>
			</g>
			<g>
				<g>
					<path fill="#4ABAA5" d="M21.4,25.7c0-1.2-1-2.4-2.2-2.7c-0.6-0.2-1.3-0.1-2-0.2c-0.9-0.2-1.8-0.9-2.3-1.8
						c-0.3,1.1-0.1,2.3,0.4,3.4c0.5,1.1,1.4,2.1,2.5,2.7c0.5,0.3,1,0.5,1.5,0.5c0.5,0,1.1,0,1.5-0.3C21.3,26.8,21.5,26.3,21.4,25.7z
						"/>
				</g>
				<g>
					<path fill="#415A6B" d="M22.7,34.1c0,0,0-0.8-0.3-1.9c-0.2-1.1-0.6-2.7-1.4-4.1c-0.4-0.7-0.8-1.4-1.4-1.9
						c-0.5-0.5-1.1-0.9-1.6-1.2c-0.5-0.3-1-0.6-1.3-0.8c-0.3-0.3-0.4-0.5-0.4-0.5s0.1,0.2,0.4,0.4c0.3,0.2,0.8,0.4,1.4,0.5
						c0.6,0.1,1.3,0.6,1.9,1.2c0.6,0.6,1.2,1.3,1.7,2c0.9,1.5,1.5,3.1,1.8,4.4c0.3,1.2,0.4,2,0.4,2L22.7,34.1z"/>
				</g>
			</g>
		</g>
		<g>
			<g>
				<path fill="#344A5E" d="M18.7,44.9c1,1.9,3,3.1,5.3,3.1c2.3,0,4.3-1.3,5.3-3.1H18.7z"/>
			</g>
			<path fill="#415A6B" d="M15.9,35.1v8.3c0,1,0.8,1.8,1.8,1.8h12.6c1,0,1.8-0.8,1.8-1.8v-8.3H15.9z"/>
			<path fill="#344A5E" d="M32.1,37.9H15.9c-0.7,0-1.4-0.6-1.4-1.4v0c0-0.7,0.6-1.4,1.4-1.4h16.2c0.7,0,1.4,0.6,1.4,1.4v0
				C33.4,37.3,32.8,37.9,32.1,37.9z"/>
			<path fill="#344A5E" d="M32.1,42.6H15.9c-0.7,0-1.4-0.6-1.4-1.4v0c0-0.7,0.6-1.4,1.4-1.4h16.2c0.7,0,1.4,0.6,1.4,1.4v0
				C33.4,42,32.8,42.6,32.1,42.6z"/>
		</g>
	</g>
</g>
</svg>
