<?xml version="1.0" encoding="utf-8"?>
<!-- Generator: Adobe Illustrator 18.0.0, SVG Export Plug-In . SVG Version: 6.00 Build 0)  -->
<!DOCTYPE svg PUBLIC "-//W3C//DTD SVG 1.1//EN" "http://www.w3.org/Graphics/SVG/1.1/DTD/svg11.dtd">
<svg version="1.1" id="Layer_1" xmlns="http://www.w3.org/2000/svg" xmlns:xlink="http://www.w3.org/1999/xlink" x="0px" y="0px"
	 viewBox="0 0 512 512" enable-background="new 0 0 512 512" xml:space="preserve">
<g>
	<rect x="226" y="345.2" fill="#40596B" width="59.9" height="64.8"/>
	<rect x="245.8" y="388.2" fill="#40596B" width="20.4" height="85.3"/>
	<path fill="#40596B" d="M394.3,455.5h-22.1c0-15.7-45.3-38.4-116.2-38.4c-70.9,0-116.2,22.7-116.2,38.4h-22.1
		c0-39.3,71.3-60.5,138.3-60.5C323,395,394.3,416.2,394.3,455.5z"/>
	<path fill="#FFD15C" d="M381.5,285H130.4V4c0-1.1,0.9-2,2-2h247.1c1.1,0,2,0.9,2,2V285z"/>
	<path fill="#FF7058" d="M447.6,167.5L447.6,167.5c0,6.8-5.5,12.2-12.2,12.2h-23.8v144.4c0,11.7-9.5,21.2-21.2,21.2H121.5
		c-11.7,0-21.2-9.5-21.2-21.2V179.7H76.6c-6.8,0-12.2-5.5-12.2-12.2l0,0c0-6.8,5.5-12.2,12.2-12.2h53.8V285h251V155.3h53.9
		C442.1,155.3,447.6,160.7,447.6,167.5z"/>
	<circle fill="#334A5E" cx="256" cy="481.5" r="28.5"/>
	<g>
		<circle fill="#334A5E" cx="379.5" cy="459.4" r="28.5"/>
		<circle fill="#334A5E" cx="132.4" cy="459.4" r="28.5"/>
	</g>
	<g>
		<circle fill="#F8B64C" cx="333" cy="173.8" r="15.8"/>
		<circle fill="#F8B64C" cx="256" cy="173.8" r="15.8"/>
		<circle fill="#F8B64C" cx="178.9" cy="173.8" r="15.8"/>
		<g>
			<circle fill="#F8B64C" cx="289.2" cy="113.2" r="15.8"/>
			<circle fill="#F8B64C" cx="222.7" cy="113.2" r="15.8"/>
		</g>
	</g>
</g>
</svg>
