<?xml version="1.0" encoding="utf-8"?>
<!-- Generator: Adobe Illustrator 20.1.0, SVG Export Plug-In . SVG Version: 6.00 Build 0)  -->
<!DOCTYPE svg PUBLIC "-//W3C//DTD SVG 1.1//EN" "http://www.w3.org/Graphics/SVG/1.1/DTD/svg11.dtd">
<svg version="1.1" id="Layer_1" xmlns="http://www.w3.org/2000/svg" xmlns:xlink="http://www.w3.org/1999/xlink" x="0px" y="0px"
	 viewBox="0 0 49 49" enable-background="new 0 0 49 49" xml:space="preserve">
<g>
	<path fill="#FFD15C" d="M46.5,48.5h-44c-1.1,0-2-0.9-2-2V16.9c0-1.1,0.9-2,2-2h44c1.1,0,2,0.9,2,2v29.6
		C48.5,47.6,47.6,48.5,46.5,48.5z"/>
	<path fill="#FF7058" d="M36.8,48.5H12.2V12.1c0-1.1,0.9-2,2-2h20.6c1.1,0,2,0.9,2,2V48.5z"/>
	<path fill="#F2F2F2" d="M29.6,5.3H19.4c-1.1,0-2,0.9-2,2v2.8h14.2V7.3C31.6,6.2,30.7,5.3,29.6,5.3z"/>
	<rect x="22.1" y="0.5" fill="#CDD6E0" width="4.8" height="4.8"/>
	<g>
		<path fill="#40596B" d="M31.6,40.5v8H17.4v-8c0-3.9,3.2-7.1,7.1-7.1c2,0,3.7,0.8,5,2.1C30.8,36.8,31.6,38.5,31.6,40.5z"/>
	</g>
	<g>
		<rect x="16.2" y="14.9" fill="#F1543F" width="5" height="5"/>
		<rect x="27.8" y="14.9" fill="#F1543F" width="5" height="5"/>
	</g>
	<g>
		<rect x="16.2" y="24.5" fill="#F1543F" width="5" height="5"/>
		<rect x="27.8" y="24.5" fill="#F1543F" width="5" height="5"/>
	</g>
	
		<rect x="40.2" y="33.7" transform="matrix(-1.836970e-16 1 -1 -1.836970e-16 78.8211 -6.4848)" fill="#F8B64C" width="5" height="5"/>
	
		<rect x="40.2" y="18" transform="matrix(-1.836970e-16 1 -1 -1.836970e-16 63.1518 -22.1541)" fill="#F8B64C" width="5" height="5"/>
	
		<rect x="40.2" y="25.3" transform="matrix(-1.836970e-16 1 -1 -1.836970e-16 70.4865 -14.8195)" fill="#F8B64C" width="5" height="5"/>
	
		<rect x="3.9" y="33.7" transform="matrix(-1.836970e-16 1 -1 -1.836970e-16 42.5153 29.821)" fill="#F8B64C" width="5" height="5"/>
	<rect x="3.9" y="18" transform="matrix(-1.836970e-16 1 -1 -1.836970e-16 26.846 14.1517)" fill="#F8B64C" width="5" height="5"/>
	
		<rect x="3.9" y="25.3" transform="matrix(-1.836970e-16 1 -1 -1.836970e-16 34.1806 21.4864)" fill="#F8B64C" width="5" height="5"/>
</g>
</svg>
