<?xml version="1.0" encoding="utf-8"?>
<!-- Generator: Adobe Illustrator 20.1.0, SVG Export Plug-In . SVG Version: 6.00 Build 0)  -->
<!DOCTYPE svg PUBLIC "-//W3C//DTD SVG 1.1//EN" "http://www.w3.org/Graphics/SVG/1.1/DTD/svg11.dtd">
<svg version="1.1" id="Layer_1" xmlns="http://www.w3.org/2000/svg" xmlns:xlink="http://www.w3.org/1999/xlink" x="0px" y="0px"
	 viewBox="0 0 49 49" enable-background="new 0 0 49 49" xml:space="preserve">
<g>
	<g>
		<path fill="#CDD6E0" d="M43.5,21.6h3c-1.3-10-9.2-17.9-19.1-19.2v3C35.7,6.7,42.3,13.3,43.5,21.6z M27.4,43.5v3
			c9.9-1.3,17.9-9.2,19.1-19.1h-3C42.3,35.7,35.7,42.3,27.4,43.5z M5.5,27.4h-3c1.3,10,9.2,17.9,19.1,19.1v-3
			C13.3,42.3,6.7,35.7,5.5,27.4z M2.5,21.6h3c1.3-8.3,7.8-14.9,16.1-16.1v-3C11.7,3.8,3.8,11.7,2.5,21.6z"/>
	</g>
	<g>
		<path fill="#F2F2F2" d="M35.6,21.6h3.1C37.5,16,33,11.5,27.4,10.4v3.1C31.4,14.5,34.5,17.6,35.6,21.6z M27.4,35.6v3.1
			C33,37.5,37.5,33,38.6,27.4h-3.1C34.5,31.4,31.4,34.5,27.4,35.6z M13.4,27.4h-3.1C11.5,33,16,37.5,21.6,38.6v-3.1
			C17.6,34.5,14.5,31.4,13.4,27.4z M10.4,21.6h3.1c1-4,4.2-7.1,8.2-8.2v-3.1C16,11.5,11.5,16,10.4,21.6z"/>
	</g>
	<rect x="23.1" y="0.5" fill="#40596B" width="2.8" height="48"/>
	
		<rect x="23.1" y="0.5" transform="matrix(-1.836970e-16 1 -1 -1.836970e-16 49 3.552714e-15)" fill="#40596B" width="2.8" height="48"/>
	<circle fill="#FF7058" cx="24.5" cy="24.5" r="5.1"/>
</g>
</svg>
