<?xml version="1.0" encoding="utf-8"?>
<!-- Generator: Adobe Illustrator 18.0.0, SVG Export Plug-In . SVG Version: 6.00 Build 0)  -->
<!DOCTYPE svg PUBLIC "-//W3C//DTD SVG 1.1//EN" "http://www.w3.org/Graphics/SVG/1.1/DTD/svg11.dtd">
<svg version="1.1" id="Layer_1" xmlns="http://www.w3.org/2000/svg" xmlns:xlink="http://www.w3.org/1999/xlink" x="0px" y="0px"
	 viewBox="0 0 48 48" enable-background="new 0 0 48 48" xml:space="preserve">
<g>
	<g>
		<path fill="#415A6B" d="M42.8,2.7v42.6c0,1.5-1.2,2.7-2.7,2.7H7.9c-1.5,0-2.7-1.2-2.7-2.7V32.7l2.6-2.3v-5.3H5.2v-4.6L9.9,17V2.7
			c0-1.5,1.2-2.7,2.7-2.7h27.5C41.6,0,42.8,1.2,42.8,2.7z"/>
		<rect x="14.7" y="24.5" fill="#FFFFFF" width="22.8" height="18.1"/>
		<path fill="#415A6B" d="M19,31.1c0.4-0.3,0.8-0.4,1.4-0.4c0.6,0,1,0.1,1.4,0.4c0.4,0.3,0.6,0.7,0.6,1.1c0,0.4-0.2,0.8-0.5,1.1
			c0.5,0.4,0.7,0.8,0.7,1.4c0,0.5-0.2,0.9-0.6,1.2c-0.4,0.3-0.9,0.5-1.5,0.5c-0.6,0-1.1-0.2-1.5-0.5c-0.4-0.3-0.6-0.7-0.6-1.2
			c0-0.6,0.2-1.1,0.7-1.4c-0.3-0.3-0.5-0.7-0.5-1.1S18.6,31.4,19,31.1z M19.8,35.2c0.2,0.1,0.4,0.2,0.6,0.2c0.2,0,0.4-0.1,0.6-0.2
			c0.2-0.1,0.3-0.3,0.3-0.5c0-0.2-0.1-0.4-0.3-0.6c-0.2-0.1-0.4-0.2-0.6-0.2c-0.2,0-0.4,0.1-0.6,0.2c-0.2,0.1-0.3,0.3-0.3,0.6
			C19.5,34.9,19.6,35.1,19.8,35.2z M19.8,32.8c0.2,0.1,0.3,0.2,0.5,0.2c0.2,0,0.4-0.1,0.5-0.2c0.2-0.1,0.2-0.3,0.2-0.5
			c0-0.2-0.1-0.3-0.2-0.5c-0.1-0.1-0.3-0.2-0.5-0.2c-0.2,0-0.4,0.1-0.5,0.2c-0.1,0.1-0.2,0.3-0.2,0.5C19.6,32.5,19.7,32.6,19.8,32.8
			z"/>
		<path fill="#415A6B" d="M27.3,33.5h1.3v2c-0.6,0.6-1.3,0.9-2.3,0.9c-0.8,0-1.5-0.3-2.1-0.8s-0.8-1.2-0.8-2.1
			c0-0.8,0.3-1.5,0.9-2.1c0.6-0.6,1.3-0.8,2.1-0.8s1.5,0.3,2.1,0.8l-0.6,0.9c-0.3-0.2-0.5-0.4-0.7-0.5c-0.2-0.1-0.4-0.1-0.7-0.1
			c-0.5,0-0.9,0.2-1.2,0.5c-0.3,0.3-0.5,0.7-0.5,1.3s0.2,1,0.5,1.3c0.3,0.3,0.7,0.5,1.1,0.5c0.4,0,0.8-0.1,1.1-0.2V33.5z"/>
		<path fill="#415A6B" d="M32.1,36.4h-2.4v-5.6h2.2c0.4,0,0.7,0,1,0.1c0.3,0.1,0.5,0.2,0.6,0.4c0.3,0.3,0.4,0.6,0.4,1
			c0,0.4-0.1,0.8-0.4,1c-0.1,0.1-0.2,0.1-0.2,0.1c0,0-0.1,0-0.2,0.1c0.3,0.1,0.6,0.2,0.8,0.5c0.2,0.2,0.3,0.5,0.3,0.9
			c0,0.4-0.1,0.7-0.4,1C33.4,36.2,32.8,36.4,32.1,36.4z M30.9,33h0.6c0.3,0,0.6,0,0.8-0.1c0.2-0.1,0.3-0.2,0.3-0.5
			c0-0.2-0.1-0.4-0.2-0.5c-0.2-0.1-0.4-0.1-0.8-0.1h-0.6V33z M30.9,35.3h0.9c0.4,0,0.6,0,0.8-0.1c0.2-0.1,0.3-0.3,0.3-0.5
			c0-0.3-0.1-0.4-0.3-0.5C32.3,34.1,32,34,31.6,34h-0.7V35.3z"/>
		<g>
			<polygon fill="#FFD15C" points="22.7,4.4 22.7,13.5 25.4,13.5 25.4,5.7 25.4,4.4 			"/>
			<rect x="31.1" y="4.4" fill="#FFD15C" width="2.8" height="9.1"/>
			<rect x="35.4" y="6" fill="#FFD15C" width="2.8" height="7.4"/>
			<rect x="14.2" y="6" fill="#FFD15C" width="2.8" height="7.4"/>
			<rect x="26.9" y="6" fill="#FFD15C" width="2.8" height="7.4"/>
			<rect x="18.4" y="6" fill="#FFD15C" width="2.8" height="7.4"/>
		</g>
	</g>
</g>
</svg>
