<?xml version="1.0" encoding="utf-8"?>
<!-- Generator: Adobe Illustrator 18.0.0, SVG Export Plug-In . SVG Version: 6.00 Build 0)  -->
<!DOCTYPE svg PUBLIC "-//W3C//DTD SVG 1.1//EN" "http://www.w3.org/Graphics/SVG/1.1/DTD/svg11.dtd">
<svg version="1.1" id="Layer_1" xmlns="http://www.w3.org/2000/svg" xmlns:xlink="http://www.w3.org/1999/xlink" x="0px" y="0px"
	 viewBox="0 0 48 48" enable-background="new 0 0 48 48" xml:space="preserve">
<g>
	<g>
		<g>
			<polygon fill="#F3F3F3" points="31.3,15.5 48,20.3 48,48 31.3,48 			"/>
		</g>
		<polygon fill="#E8EAE9" points="33.6,16.1 31.3,15.5 31.3,48 		"/>
		<g>
			<rect x="35.3" y="23.3" fill="#55C0EB" width="8.7" height="3.1"/>
			<rect x="35.3" y="41" fill="#55C0EB" width="8.7" height="3.1"/>
			<rect x="35.3" y="35.1" fill="#55C0EB" width="8.7" height="3.1"/>
			<rect x="35.3" y="29.2" fill="#55C0EB" width="8.7" height="3.1"/>
		</g>
		<rect x="2" y="4.6" fill="#F3F3F3" width="29.4" height="43.4"/>
		<g>
			<g>
				<rect x="12.8" y="38.9" fill="#415A6B" width="7.6" height="9.1"/>
			</g>
		</g>
		<g>
			<rect x="0" y="0" fill="#415A6B" width="33.7" height="4.6"/>
		</g>
		<rect x="7" y="9.6" fill="#8AD7F8" width="19.4" height="3.6"/>
		<rect x="7" y="17.1" fill="#8AD7F8" width="19.4" height="3.6"/>
		<rect x="7" y="24.6" fill="#8AD7F8" width="19.4" height="3.6"/>
		<rect x="7" y="32.2" fill="#8AD7F8" width="19.4" height="3.6"/>
	</g>
</g>
</svg>
