<?xml version="1.0" encoding="utf-8"?>
<!-- Generator: Adobe Illustrator 18.0.0, SVG Export Plug-In . SVG Version: 6.00 Build 0)  -->
<!DOCTYPE svg PUBLIC "-//W3C//DTD SVG 1.1//EN" "http://www.w3.org/Graphics/SVG/1.1/DTD/svg11.dtd">
<svg version="1.1" id="Layer_1" xmlns="http://www.w3.org/2000/svg" xmlns:xlink="http://www.w3.org/1999/xlink" x="0px" y="0px"
	 viewBox="0 0 48 48" enable-background="new 0 0 48 48" xml:space="preserve">
<g>
	<g>
		<path fill="#FF7058" d="M46.2,25.8C46.2,38,36.2,48,24,48S1.8,38,1.8,25.8S11.7,3.6,24,3.6V0l9,6.8l-9,6.9v-3.6
			c-8.6,0-15.7,7-15.7,15.7c0,8.6,7,15.7,15.7,15.7s15.7-7,15.7-15.7H46.2z"/>
	</g>
	<circle fill="#84DBFF" cx="24" cy="25.8" r="11.4"/>
	<g>
		<path fill="#FFFFFF" d="M17.3,29.9v-1.3c3.3-2.4,4.2-3.2,4.2-4.2c0-0.7-0.6-1-1.3-1c-0.9,0-1.6,0.4-2.1,0.9l-1-1.1
			c0.8-0.9,2-1.3,3.1-1.3c1.7,0,3.1,1,3.1,2.6c0,1.4-1.1,2.6-3.2,4.1h3.3v1.5H17.3z"/>
		<path fill="#FFFFFF" d="M28.1,29.9v-1.7h-3.8v-1.3l3.2-5h2.4v4.8h1v1.5h-1v1.7H28.1z M28.1,23.4l-2.2,3.3h2.2V23.4z"/>
	</g>
</g>
</svg>
