<?xml version="1.0" encoding="utf-8"?>
<!-- Generator: Adobe Illustrator 18.0.0, SVG Export Plug-In . SVG Version: 6.00 Build 0)  -->
<!DOCTYPE svg PUBLIC "-//W3C//DTD SVG 1.1//EN" "http://www.w3.org/Graphics/SVG/1.1/DTD/svg11.dtd">
<svg version="1.1" id="Layer_1" xmlns="http://www.w3.org/2000/svg" xmlns:xlink="http://www.w3.org/1999/xlink" x="0px" y="0px"
	 viewBox="0 0 48 48" enable-background="new 0 0 48 48" xml:space="preserve">
<g>
	<g>
		<g>
			<path fill="#F3F3F3" d="M6.3,0h26.5l12,12v33c0,1.7-1.3,3-3,3H6.3c-1.7,0-3-1.3-3-3V3C3.3,1.3,4.6,0,6.3,0z"/>
		</g>
		<g>
			<polygon fill="#CED6E0" points="32.7,0 44.7,12 32.7,12 			"/>
		</g>
		<g>
			<g>
				<rect x="24.6" y="20.3" fill="#CED6E0" width="10.3" height="2.4"/>
				<rect x="24.6" y="15.2" fill="#CED6E0" width="16" height="2.4"/>
			</g>
			<g>
				<g>
					<path fill="#55C0EB" d="M19.7,13.6L15.3,18l4.2,4.2c1.1-1.2,1.7-2.7,1.7-4.4C21.3,16.2,20.7,14.7,19.7,13.6z"/>
				</g>
				<path fill="#F3705A" d="M13.7,19.1c-0.1-0.1-0.1-0.2-0.1-0.3v-6.7c-3.4,0.2-6.1,3-6.1,6.5c0,3.6,2.9,6.5,6.5,6.5
					c1.6,0,3.1-0.6,4.2-1.6L13.7,19.1z"/>
				<path fill="#FFD15C" d="M15.2,10.1v5.7l4-4C18.1,10.8,16.7,10.2,15.2,10.1z"/>
			</g>
		</g>
		<g>
			<g>
				<rect x="24.6" y="38.8" fill="#CED6E0" width="10.3" height="2.4"/>
				<rect x="24.6" y="33.7" fill="#CED6E0" width="16" height="2.4"/>
			</g>
			<g>
				<g>
					<path fill="#F3705A" d="M19.7,32.1l-4.4,4.4l4.2,4.2c1.1-1.2,1.7-2.7,1.7-4.4C21.3,34.7,20.7,33.2,19.7,32.1z"/>
				</g>
				<path fill="#55C0EB" d="M13.7,37.6c-0.1-0.1-0.1-0.2-0.1-0.3v-6.7c-3.4,0.2-6.1,3-6.1,6.5c0,3.6,2.9,6.5,6.5,6.5
					c1.6,0,3.1-0.6,4.2-1.6L13.7,37.6z"/>
				<path fill="#FFD15C" d="M15.2,28.6v5.7l4-4C18.1,29.3,16.7,28.7,15.2,28.6z"/>
			</g>
		</g>
	</g>
</g>
</svg>
