<?xml version="1.0" encoding="utf-8"?>
<!-- Generator: Adobe Illustrator 18.0.0, SVG Export Plug-In . SVG Version: 6.00 Build 0)  -->
<!DOCTYPE svg PUBLIC "-//W3C//DTD SVG 1.1//EN" "http://www.w3.org/Graphics/SVG/1.1/DTD/svg11.dtd">
<svg version="1.1" id="Layer_1" xmlns="http://www.w3.org/2000/svg" xmlns:xlink="http://www.w3.org/1999/xlink" x="0px" y="0px"
	 viewBox="0 0 512 512" enable-background="new 0 0 512 512" xml:space="preserve">
<g>
	<path fill="#ACB3BA" d="M482.7,482.7H29.3V29.3h453.5V482.7z M61,451h390V61H61V451z"/>
	<rect x="116.4" y="308.5" fill="#F2F2F2" width="286.3" height="23.1"/>
	<rect x="116.4" y="354.6" fill="#F2F2F2" width="286.3" height="23.1"/>
	<rect x="284.5" y="400.6" fill="#F2F2F2" width="118.3" height="23.1"/>
	<rect x="2" y="2" fill="#CDD6E0" width="86.3" height="86.3"/>
	<rect x="423.7" y="2" fill="#CDD6E0" width="86.3" height="86.3"/>
	<rect x="2" y="423.7" fill="#CDD6E0" width="86.3" height="86.3"/>
	<rect x="423.7" y="423.7" fill="#CDD6E0" width="86.3" height="86.3"/>
	<path fill="#FFD15C" d="M402.7,109.5v147.3c0,6.3-2.8,12.1-7.1,15.9c-3.8,3.3-8.7,5.3-14.1,5.3H130.4c-5.4,0-10.3-2-14-5.3
		c-4.4-3.8-7.2-9.5-7.2-15.9V109.5c0-6,2.5-11.5,6.7-15.3c3.8-3.6,8.9-5.8,14.5-5.8h251.1c5.6,0,10.7,2.2,14.6,5.8
		C400.2,97.9,402.7,103.4,402.7,109.5z"/>
	<path fill="#F8B64C" d="M395.6,272.7c-3.8,3.3-8.7,5.3-14.1,5.3H130.4c-5.4,0-10.3-2-14-5.3l109.6-81.1l30-22.1l30,22.1
		L395.6,272.7z"/>
	<path fill="#FF7058" d="M381.6,88.3H130.4c-5.6,0-10.7,2.2-14.5,5.8l110.2,97.5l15.9,14.1c8,7.1,20,7.1,28,0l15.9-14.1l110.2-97.5
		L381.6,88.3z"/>
</g>
</svg>
