<?xml version="1.0" encoding="utf-8"?>
<!-- Generator: Adobe Illustrator 18.0.0, SVG Export Plug-In . SVG Version: 6.00 Build 0)  -->
<!DOCTYPE svg PUBLIC "-//W3C//DTD SVG 1.1//EN" "http://www.w3.org/Graphics/SVG/1.1/DTD/svg11.dtd">
<svg version="1.1" id="Layer_1" xmlns="http://www.w3.org/2000/svg" xmlns:xlink="http://www.w3.org/1999/xlink" x="0px" y="0px"
	 viewBox="0 0 48 48" enable-background="new 0 0 48 48" xml:space="preserve">
<g>
	<g>
		<rect x="14" y="17.4" fill="#ADB3BA" width="20.1" height="23.9"/>
		<g>
			<polygon fill="#E8EAE9" points="48,15.2 48,17.9 0,17.9 0,15.2 24,0 			"/>
			<polygon fill="#CED6E0" points="9.5,13.9 24,4.7 38.5,13.9 			"/>
		</g>
		<g>
			<rect x="0" y="44.3" fill="#CED6E0" width="48" height="3.7"/>
		</g>
		<g>
			<rect x="3.5" y="40.6" fill="#E8EAE9" width="41.1" height="3.7"/>
		</g>
		<g>
			<g>
				<g>
					<g>
						<rect x="8.5" y="21.2" fill="#E8EAE9" width="6.6" height="16.1"/>
					</g>
				</g>
				<g>
					<g>
						<g>
							<rect x="9.7" y="22.7" fill="#CED6E0" width="1.5" height="13.1"/>
						</g>
					</g>
					<g>
						<g>
							<rect x="12.5" y="22.7" fill="#CED6E0" width="1.5" height="13.1"/>
						</g>
					</g>
				</g>
				<g>
					<g>
						<path fill="#CED6E0" d="M16.2,20.2v-2.3H7.4v2.3c0,0.5,0.4,1,1,1h6.8C15.8,21.2,16.2,20.8,16.2,20.2z"/>
					</g>
					<g>
						<path fill="#CED6E0" d="M16.2,40.6v-2.3c0-0.5-0.4-1-1-1H8.4c-0.5,0-1,0.4-1,1v2.3H16.2z"/>
					</g>
				</g>
			</g>
			<g>
				<g>
					<g>
						<rect x="32.9" y="21.2" fill="#E8EAE9" width="6.6" height="16.1"/>
					</g>
				</g>
				<g>
					<g>
						<g>
							<rect x="34" y="22.7" fill="#CED6E0" width="1.5" height="13.1"/>
						</g>
					</g>
					<g>
						<g>
							<rect x="36.8" y="22.7" fill="#CED6E0" width="1.5" height="13.1"/>
						</g>
					</g>
				</g>
				<g>
					<g>
						<path fill="#CED6E0" d="M40.6,20.2v-2.3h-8.8v2.3c0,0.5,0.4,1,1,1h6.8C40.1,21.2,40.6,20.8,40.6,20.2z"/>
					</g>
					<g>
						<path fill="#CED6E0" d="M40.6,40.6v-2.3c0-0.5-0.4-1-1-1h-6.8c-0.5,0-1,0.4-1,1v2.3H40.6z"/>
					</g>
				</g>
			</g>
		</g>
	</g>
</g>
</svg>
