<?xml version="1.0" encoding="utf-8"?>
<!-- Generator: Adobe Illustrator 18.0.0, SVG Export Plug-In . SVG Version: 6.00 Build 0)  -->
<!DOCTYPE svg PUBLIC "-//W3C//DTD SVG 1.1//EN" "http://www.w3.org/Graphics/SVG/1.1/DTD/svg11.dtd">
<svg version="1.1" id="Layer_1" xmlns="http://www.w3.org/2000/svg" xmlns:xlink="http://www.w3.org/1999/xlink" x="0px" y="0px"
	 viewBox="0 0 48 48" enable-background="new 0 0 48 48" xml:space="preserve">
<g>
	<g>
		<g>
			<path fill="#66C6B9" d="M45,0H3C1.3,0,0,1.3,0,3v42c0,1.7,1.3,3,3,3h33.6L48,36.6L48,3C48,1.3,46.7,0,45,0z"/>
		</g>
		<g>
			<polygon fill="#E8EAE9" points="36.6,48 48,36.6 36.6,36.6 			"/>
		</g>
		<g>
			<path fill="#344A5E" d="M4.6,4.9v13.7v7.2v12.4h25.2v-1H17C16.7,31,11.8,26,5.6,25.8v-7.2h12.7V5.9h8.2v15.6H21v1h6.4V5.9h9.4
				v5.7h-4.2v1h4.2v16.7h1V4.9H4.6z M16,37.1H5.6V26.7C11.2,27,15.8,31.5,16,37.1z M17.3,17.5H5.6V5.9h11.7V17.5z"/>
			<polygon fill="#344A5E" points="43.7,9.9 43.7,8.9 40,8.9 40,9.9 41.3,9.9 41.3,21 40,21 40,22 41.3,22 41.3,33.1 40,33.1 
				40,34.1 43.7,34.1 43.7,33.1 42.3,33.1 42.3,22 43.7,22 43.7,21 42.3,21 42.3,9.9 			"/>
			<polygon fill="#344A5E" points="32.9,41.1 21.8,41.1 21.8,39.8 20.8,39.8 20.8,41.1 9.6,41.1 9.6,39.8 8.6,39.8 8.6,43.4 
				9.6,43.4 9.6,42.1 20.8,42.1 20.8,43.4 21.8,43.4 21.8,42.1 32.9,42.1 32.9,43.4 33.9,43.4 33.9,39.8 32.9,39.8 			"/>
		</g>
	</g>
</g>
</svg>
