<?xml version="1.0" encoding="utf-8"?>
<!-- Generator: Adobe Illustrator 18.0.0, SVG Export Plug-In . SVG Version: 6.00 Build 0)  -->
<!DOCTYPE svg PUBLIC "-//W3C//DTD SVG 1.1//EN" "http://www.w3.org/Graphics/SVG/1.1/DTD/svg11.dtd">
<svg version="1.1" id="Layer_1" xmlns="http://www.w3.org/2000/svg" xmlns:xlink="http://www.w3.org/1999/xlink" x="0px" y="0px"
	 viewBox="0 0 48 48" enable-background="new 0 0 48 48" xml:space="preserve">
<g>
	<g>
		<g>
			<g>
				<g>
					<g>
						<g>
							<g>
								<g>
									<g>
										<g>
											<g>
												<g>
													<g>
														<g>
															<g>
																<polygon fill="#66C6B9" points="26.6,29.8 21.8,29.8 21.8,42.3 0,42.3 0,47.1 48,47.1 48,42.3 26.6,42.3 
																																	"/>
															</g>
														</g>
														<g>
															<polygon fill="#415A6B" points="30.6,41.4 30.6,48 17.8,48 17.8,41.4 20.9,41.4 20.9,37.5 27.5,37.5 27.5,41.4 
																															"/>
														</g>
													</g>
												</g>
											</g>
										</g>
									</g>
								</g>
							</g>
						</g>
					</g>
				</g>
			</g>
		</g>
		<g>
			<path fill="#CED6E0" d="M44.3,0H3.7C1.7,0,0,1.7,0,3.7v23c0,2.1,1.7,3.7,3.7,3.7h40.6c2.1,0,3.7-1.7,3.7-3.7v-23
				C48,1.7,46.3,0,44.3,0z"/>
			<path fill="#ADB3BA" d="M1.2,29.4c0.7,0.6,1.6,1,2.5,1l40.6,0c1,0,1.9-0.4,2.5-1L24,9.4L1.2,29.4z"/>
			<path fill="#E8EAE9" d="M24,21L46.8,1c-0.7-0.6-1.6-1-2.5-1H3.7c-1,0-1.9,0.4-2.5,1L24,21z"/>
		</g>
	</g>
</g>
</svg>
