<?xml version="1.0" encoding="utf-8"?>
<!-- Generator: Adobe Illustrator 18.0.0, SVG Export Plug-In . SVG Version: 6.00 Build 0)  -->
<!DOCTYPE svg PUBLIC "-//W3C//DTD SVG 1.1//EN" "http://www.w3.org/Graphics/SVG/1.1/DTD/svg11.dtd">
<svg version="1.1" id="Layer_1" xmlns="http://www.w3.org/2000/svg" xmlns:xlink="http://www.w3.org/1999/xlink" x="0px" y="0px"
	 viewBox="0 0 512 512" enable-background="new 0 0 512 512" xml:space="preserve">
<g>
	<path fill="#CDD6E0" d="M390,314.3c0,65.3-47,119.8-108.9,131.6V158.5h-50.2v287.4C169,434,122,379.6,122,314.3H71.7
		c0,101.6,82.7,184.3,184.3,184.3s184.3-82.7,184.3-184.3H390z"/>
	<g>
		<path fill="#FF7058" d="M256,183.6c-46.9,0-85.1-38.2-85.1-85.1c0-46.9,38.2-85.1,85.1-85.1c46.9,0,85.1,38.2,85.1,85.1
			C341.1,145.4,302.9,183.6,256,183.6z M256,63.7c-19.2,0-34.8,15.6-34.8,34.8s15.6,34.8,34.8,34.8s34.8-15.6,34.8-34.8
			S275.2,63.7,256,63.7z"/>
	</g>
	<g>
		<rect x="180.4" y="215.3" fill="#ACB3BA" width="151.2" height="50.2"/>
	</g>
	<g>
		<polygon fill="#ACB3BA" points="167.1,314.3 26.6,314.3 96.9,216.8 		"/>
	</g>
	<g>
		<polygon fill="#ACB3BA" points="485.4,314.3 344.9,314.3 415.1,216.8 		"/>
	</g>
</g>
</svg>
