<?xml version="1.0" encoding="utf-8"?>
<!-- Generator: Adobe Illustrator 16.0.0, SVG Export Plug-In . SVG Version: 6.00 Build 0)  -->
<!DOCTYPE svg PUBLIC "-//W3C//DTD SVG 1.1//EN" "http://www.w3.org/Graphics/SVG/1.1/DTD/svg11.dtd">
<svg version="1.1" id="Layer_1" xmlns="http://www.w3.org/2000/svg" xmlns:xlink="http://www.w3.org/1999/xlink" x="0px" y="0px"
	 width="48px" height="48px" viewBox="0 0 48 48" enable-background="new 0 0 48 48" xml:space="preserve">
<g>
	<path fill="#FFD15C" d="M47.962,33.826L44.416,7.772c-0.303-2.22-2.338-4.021-4.547-4.021H8.574c-2.209,0-3.754,1.801-3.453,4.021
		l3.547,26.054c0.303,2.219,2.339,4.02,4.548,4.02h31.294C46.718,37.846,48.264,36.045,47.962,33.826"/>
	<polygon fill="#415A6B" points="28.167,3.751 20.274,3.751 21.525,12.942 29.419,12.942 	"/>
	<path fill="#415A6B" d="M23.905,37.846c0,3.535-2.867,6.402-6.403,6.402c-3.537,0-6.404-2.867-6.404-6.402s2.867-6.402,6.404-6.402
		C21.038,31.443,23.905,34.311,23.905,37.846"/>
	<path fill="#CED6E0" d="M20.275,37.846c0,1.531-1.242,2.773-2.773,2.773c-1.532,0-2.773-1.242-2.773-2.773s1.241-2.773,2.773-2.773
		C19.033,35.072,20.275,36.314,20.275,37.846"/>
	<path fill="#415A6B" d="M45.734,37.846c0,3.535-2.867,6.402-6.402,6.402c-3.537,0-6.404-2.867-6.404-6.402s2.867-6.402,6.404-6.402
		C42.867,31.443,45.734,34.311,45.734,37.846"/>
	<path fill="#CED6E0" d="M42.105,37.846c0,1.531-1.242,2.773-2.774,2.773s-2.774-1.242-2.774-2.773s1.242-2.773,2.774-2.773
		S42.105,36.314,42.105,37.846"/>
	<path fill="#F3705A" d="M12.199,14.312H1.24C0.555,14.312,0,13.757,0,13.073s0.555-1.24,1.239-1.24h10.959
		c0.686,0,1.24,0.556,1.24,1.24S12.884,14.312,12.199,14.312"/>
	<path fill="#F3705A" d="M15.791,20.378H4.831c-0.685,0-1.239-0.556-1.239-1.239c0-0.685,0.555-1.24,1.239-1.24h10.96
		c0.686,0,1.24,0.556,1.24,1.24C17.031,19.823,16.476,20.378,15.791,20.378"/>
	<path fill="#F3705A" d="M8.683,26.443H1.24c-0.685,0-1.24-0.555-1.24-1.238c0-0.685,0.556-1.24,1.24-1.24h7.443
		c0.686,0,1.24,0.555,1.24,1.24C9.923,25.889,9.369,26.443,8.683,26.443"/>
</g>
</svg>
