<?xml version="1.0" encoding="utf-8"?>
<!-- Generator: Adobe Illustrator 16.0.0, SVG Export Plug-In . SVG Version: 6.00 Build 0)  -->
<!DOCTYPE svg PUBLIC "-//W3C//DTD SVG 1.1//EN" "http://www.w3.org/Graphics/SVG/1.1/DTD/svg11.dtd">
<svg version="1.1" id="Layer_1" xmlns="http://www.w3.org/2000/svg" xmlns:xlink="http://www.w3.org/1999/xlink" x="0px" y="0px"
	 width="48px" height="48px" viewBox="0 0 48 48" enable-background="new 0 0 48 48" xml:space="preserve">
<g>
	<path fill="#F2F2F2" d="M41.885,35.576l-11.35-4.09h-0.011l-0.01,0.01c-0.04,0.051-0.06,0.08-0.06,0.07
		c-1.601,2.17-4.021,3.24-6.451,3.24c-2.42,0-4.84-1.07-6.449-3.24c0,0-0.02-0.02-0.051-0.07h-0.01l-0.01-0.01h-0.01l-11.359,4.09
		c-3.551,1.27-5.931,4.65-5.931,8.43v3.945h47.63v-3.945C47.815,40.226,45.435,36.845,41.885,35.576"/>
	<path fill="#ACB3BA" d="M24.021,35.064C24.01,35.076,24,35.076,24,35.076v-0.021C24.01,35.054,24.021,35.064,24.021,35.064"/>
	<path fill="#ACB3BA" d="M24.021,35.054v0.02c0,0-0.011,0-0.021-0.01C24,35.064,24.01,35.054,24.021,35.054"/>
	<path fill="#F8B64C" d="M17.5,31.484c0.079,0.111,0.069,0.111-0.011,0H17.5z"/>
	<path fill="#F8B64C" d="M30.53,31.484c-0.08,0.111-0.09,0.111-0.01,0H30.53z"/>
	<path fill="#F8B64C" d="M17.489,18.91c0.146,1.676-0.666,3.115-1.816,3.217c-1.148,0.1-2.199-1.178-2.346-2.854
		c-0.146-1.674,0.666-3.113,1.814-3.215C16.292,15.958,17.342,17.234,17.489,18.91"/>
	<path fill="#F8B64C" d="M34.694,19.273c-0.146,1.676-1.197,2.953-2.347,2.852c-1.149-0.1-1.962-1.539-1.815-3.215
		s1.197-2.951,2.347-2.852C34.028,16.16,34.841,17.599,34.694,19.273"/>
	<path fill="#FFD15C" d="M24.01,4.923c-5.337,0-9.664,4.326-9.664,9.664v2.902c0,0.74,0.047,1.479,0.139,2.213v0.002
		c0.457,3.754,2.074,7.271,4.627,10.064l0.914,1.004c0.842,0.922,2.033,1.449,3.283,1.449h1.399c1.248,0,2.438-0.525,3.28-1.447
		l0.92-1.006c2.553-2.793,4.17-6.314,4.632-10.066c0.092-0.738,0.134-1.473,0.134-2.213v-2.902
		C33.674,9.25,29.347,4.923,24.01,4.923z"/>
	<path fill="#F8B64C" d="M28.909,29.765l-0.92,1.01c-0.84,0.92-2.029,1.449-3.279,1.449h-1.4c-1.25,0-2.439-0.529-3.279-1.449
		l-0.92-1.01c-0.59-0.65-1.131-1.34-1.621-2.061v3.779l6.508,2.846l6.533-2.846v-3.779C30.04,28.425,29.5,29.125,28.909,29.765"/>
	<g opacity="0.1">
		<g>
			<defs>
				<rect id="SVGID_57_" x="20.208" y="27.705" width="10.321" height="6.625"/>
			</defs>
			<clipPath id="SVGID_2_">
				<use xlink:href="#SVGID_57_"  overflow="visible"/>
			</clipPath>
			<path clip-path="url(#SVGID_2_)" fill="#40596B" d="M28.909,29.765l-0.92,1.01c-0.84,0.92-2.029,1.449-3.279,1.449h-1.4
				c-1.16,0-2.258-0.473-3.083-1.275l-0.019,0.008l3.789,3.373l6.533-2.846v-3.779C30.04,28.425,29.5,29.125,28.909,29.765"/>
		</g>
	</g>
	<path fill="#40596B" d="M23.663,4.271c-2.262,0.008-4.523,0.363-6.672,1.07c-2.182,0.938-3.065,3.547-2.914,5.641l0.094,7.373
		c0,0,0.424-0.061,0.566-0.547l1.492-2.992c0.824-1.65,0.588-3.475-0.246-5.121c-0.107-0.213-0.099-0.4,0.117-0.549
		c0.392-0.268,0.871-0.555,1.441-0.828c1.165-0.559,2.58-0.463,3.736,0.107c0.777,0.383,1.664,0.529,2.385,0.539V4.271z"/>
	<path fill="#40596B" d="M24.358,4.271c2.263,0.008,4.524,0.363,6.672,1.07c2.183,0.938,3.065,3.547,2.914,5.641l-0.094,7.373
		c0,0-0.424-0.061-0.566-0.547l-1.492-2.992c-0.823-1.65-0.588-3.475,0.246-5.121c0.107-0.213,0.099-0.4-0.116-0.549
		c-0.392-0.268-0.871-0.555-1.442-0.828c-1.164-0.559-2.58-0.463-3.736,0.107c-0.776,0.383-1.663,0.529-2.385,0.539V4.271z"/>
	<path fill="#40596B" d="M33.793,17.72l-2.026,5.16c-0.832,1.418-3.544,3.533-4.504,2.238l-0.005-0.006
		c-0.424-0.574-1.033-0.902-1.672-0.902h-3.16c-0.639,0-1.248,0.328-1.674,0.904c-0.959,1.299-3.672-0.816-4.504-2.234l-2.086-5.16
		c-0.457,14.441,9.846,14.887,9.846,14.887S34.256,32.162,33.793,17.72 M21.333,28.667c0-1.023,0.828-1.85,1.851-1.85h1.646
		c1.022,0,1.852,0.826,1.852,1.85H21.333z"/>
	<polygon fill="#CDD6E0" points="30.53,31.484 28.17,39.333 24.007,34.871 19.848,39.333 17.489,31.484 23.997,34.33 	"/>
	<polygon fill="#FF7058" points="25.846,36.843 24.007,34.873 23.977,34.904 22.17,36.841 23.311,37.982 20.954,47.937 
		27.065,47.937 24.708,37.982 	"/>
	<path fill="#54C0EB" d="M33.647,32.607L24,47.937l-9.653-15.324l-5.703,2.053c2.177,6.621,1.463,10.508,0.89,13.283h28.925
		c-0.572-2.775-1.283-6.664,0.898-13.285L33.647,32.607z"/>
	<path fill="#4CDBC4" d="M33.961,14.968c-6.225-3.17-13.678-3.17-19.901,0V2.425c6.224-3.168,13.677-3.168,19.901,0V14.968z"/>
	<path fill="#40596B" d="M27.896,15.224c-1.345,0-2.483,0.857-2.927,2.049c-0.609-0.273-1.309-0.273-1.918,0
		c-0.441-1.191-1.582-2.049-2.926-2.049c-1.727,0-3.133,1.406-3.133,3.131c0,1.729,1.406,3.131,3.133,3.131
		c1.726,0,3.13-1.402,3.13-3.131c0-0.01-0.002-0.018-0.003-0.027c0.46-0.322,1.057-0.322,1.516,0c0,0.01-0.003,0.018-0.003,0.027
		c0,1.729,1.403,3.131,3.131,3.131s3.132-1.402,3.132-3.131C31.028,16.63,29.624,15.224,27.896,15.224 M20.125,20.486
		c-1.176,0-2.133-0.955-2.133-2.131s0.957-2.131,2.133-2.131c1.174,0,2.13,0.955,2.13,2.131S21.299,20.486,20.125,20.486
		 M27.896,20.486c-1.175,0-2.131-0.955-2.131-2.131s0.956-2.131,2.131-2.131c1.177,0,2.132,0.955,2.132,2.131
		S29.073,20.486,27.896,20.486"/>
</g>
</svg>
