<?xml version="1.0" encoding="utf-8"?>
<!-- Generator: Adobe Illustrator 18.0.0, SVG Export Plug-In . SVG Version: 6.00 Build 0)  -->
<!DOCTYPE svg PUBLIC "-//W3C//DTD SVG 1.1//EN" "http://www.w3.org/Graphics/SVG/1.1/DTD/svg11.dtd">
<svg version="1.1" id="Layer_1" xmlns="http://www.w3.org/2000/svg" xmlns:xlink="http://www.w3.org/1999/xlink" x="0px" y="0px"
	 viewBox="0 0 512 512" enable-background="new 0 0 512 512" xml:space="preserve">
<g>
	<polygon fill="#FFD05C" points="507.1,191.4 451.6,220.7 346,220.7 303,191.4 363.2,79.5 404.9,2 446.4,78.9 	"/>
	<path fill="#334A5E" d="M446.4,78.9c-13.5,3.5-27.8,5.3-42.5,5.3c-14.1,0-27.7-1.6-40.7-4.7L404.9,2L446.4,78.9z"/>
	<path fill="#CDD5DF" d="M440,205.4V510h-69.9V205.4c0-9.7,3.9-18.5,10.2-24.8c6.3-6.3,15.1-10.2,24.7-10.2
		C424.4,170.4,440,186,440,205.4z"/>
	<path fill="#F2F2F2" d="M370.1,205.4V510h-70V205.4c0-5,1.1-9.7,2.9-14l0.1-0.2c0.8-1.9,1.8-3.7,2.9-5.4c0.1-0.1,0.1-0.1,0.1-0.1
		c1.2-1.9,2.7-3.6,4.2-5.1c6.4-6.3,15.1-10.2,24.8-10.2C354.4,170.4,370.1,186,370.1,205.4z"/>
	<path fill="#F2F2F2" d="M510,205.4V510h-70V205.4c0-9.7,3.9-18.5,10.3-24.8c6.3-6.3,15.1-10.2,24.7-10.2c12.1,0,22.7,6.1,29.1,15.4
		c0.1,0.2,0.3,0.5,0.4,0.7l2.2,4.1c0.1,0.1,0.2,0.3,0.2,0.5c0.1,0.1,0.1,0.2,0.2,0.4C509,195.7,510,200.4,510,205.4z"/>
	<path fill="#F2705B" d="M219.9,2H23.2C11.5,2,2,11.5,2,23.2V510h239.1V23.2C241.1,11.5,231.6,2,219.9,2z M121.5,90.8
		c-15.6,0-28.3-12.7-28.3-28.3c0-15.6,12.7-28.3,28.3-28.3s28.3,12.7,28.3,28.3C149.8,78.1,137.2,90.8,121.5,90.8z"/>
	<path fill="#F05540" d="M72.5,2H23.2C11.5,2,2,11.5,2,23.2V510h70.5V2z"/>
	<rect x="203.7" y="180.8" fill="#F2F2F2" width="37.4" height="18.8"/>
	<rect x="203.7" y="289.8" fill="#F2F2F2" width="37.4" height="18.8"/>
	<rect x="203.7" y="398.7" fill="#F2F2F2" width="37.4" height="18.8"/>
	<rect x="190.4" y="126.3" fill="#F2F2F2" width="50.7" height="18.8"/>
	<rect x="190.4" y="235.3" fill="#F2F2F2" width="50.7" height="18.8"/>
	<rect x="190.4" y="344.2" fill="#F2F2F2" width="50.7" height="18.8"/>
	<rect x="190.4" y="453.2" fill="#F2F2F2" width="50.7" height="18.8"/>
</g>
</svg>
