<?xml version="1.0" encoding="utf-8"?>
<!-- Generator: Adobe Illustrator 18.0.0, SVG Export Plug-In . SVG Version: 6.00 Build 0)  -->
<!DOCTYPE svg PUBLIC "-//W3C//DTD SVG 1.1//EN" "http://www.w3.org/Graphics/SVG/1.1/DTD/svg11.dtd">
<svg version="1.1" id="Layer_1" xmlns="http://www.w3.org/2000/svg" xmlns:xlink="http://www.w3.org/1999/xlink" x="0px" y="0px"
	 viewBox="0 0 48 48" enable-background="new 0 0 48 48" xml:space="preserve">
<g>
	<path fill="#FFD15C" d="M38.3,48H9.7V10.5c0-1.1,0.9-2,2-2h24.7c1.1,0,2,0.9,2,2V48z"/>
	<path fill="#FF7058" d="M38.3,48H46c1.1,0,2-0.9,2-2V18.8c0-1.1-0.9-2-2-2h-7.7V48z"/>
	<path fill="#FF7058" d="M2,48h7.7V16.8H2c-1.1,0-2,0.9-2,2V46C0,47.1,0.9,48,2,48z"/>
	<rect x="24" y="37.3" fill="#334A5E" width="6.2" height="10.7"/>
	<rect x="17.8" y="37.3" fill="#40596B" width="6.2" height="10.7"/>
	<rect x="2" y="20.1" fill="#F2F2F2" width="5.6" height="5.6"/>
	<rect x="2" y="28.8" fill="#F2F2F2" width="5.6" height="5.6"/>
	<rect x="2" y="37.4" fill="#F2F2F2" width="5.6" height="5.6"/>
	<rect x="40.3" y="20.1" fill="#F2F2F2" width="5.6" height="5.6"/>
	<rect x="40.3" y="28.8" fill="#F2F2F2" width="5.6" height="5.6"/>
	<rect x="40.3" y="37.4" fill="#F2F2F2" width="5.6" height="5.6"/>
	<g>
		<rect x="21.2" y="20.1" fill="#F8B64C" width="5.6" height="5.6"/>
		<g>
			<rect x="12.7" y="11.5" fill="#F8B64C" width="5.6" height="5.6"/>
			<rect x="29.7" y="11.5" fill="#F8B64C" width="5.6" height="5.6"/>
			<rect x="21.2" y="11.5" fill="#F8B64C" width="5.6" height="5.6"/>
			<rect x="12.7" y="20.1" fill="#F8B64C" width="5.6" height="5.6"/>
			<rect x="29.7" y="20.1" fill="#F8B64C" width="5.6" height="5.6"/>
			<rect x="12.7" y="28.8" fill="#F8B64C" width="5.6" height="5.6"/>
			<rect x="29.7" y="28.8" fill="#F8B64C" width="5.6" height="5.6"/>
			<rect x="21.2" y="28.8" fill="#F8B64C" width="5.6" height="5.6"/>
		</g>
	</g>
	<g>
		<rect x="18.7" y="6.2" fill="#334A5E" width="0.9" height="2.2"/>
		<rect x="28.4" y="6.2" fill="#334A5E" width="0.9" height="2.2"/>
	</g>
	<rect x="16.1" y="0" fill="#40596B" width="15.9" height="7"/>
	<polygon fill="#FFFFFF" points="26.2,2.8 24.7,2.8 24.7,1.4 23.3,1.4 23.3,2.8 21.8,2.8 21.8,4.2 23.3,4.2 23.3,5.7 24.7,5.7 
		24.7,4.2 26.2,4.2 	"/>
</g>
</svg>
