<?xml version="1.0" encoding="utf-8"?>
<!-- Generator: Adobe Illustrator 18.0.0, SVG Export Plug-In . SVG Version: 6.00 Build 0)  -->
<!DOCTYPE svg PUBLIC "-//W3C//DTD SVG 1.1//EN" "http://www.w3.org/Graphics/SVG/1.1/DTD/svg11.dtd">
<svg version="1.1" id="Layer_1" xmlns="http://www.w3.org/2000/svg" xmlns:xlink="http://www.w3.org/1999/xlink" x="0px" y="0px"
	 viewBox="0 0 48 48" enable-background="new 0 0 48 48" xml:space="preserve">
<g>
	<path fill="#F8B64C" d="M22.8,4.3c-4,4-5.2,9.7-3.7,14.7l-2.3,2.3l9.8,9.8l2.3-2.3c5.1,1.5,10.8,0.3,14.7-3.7
		c5.8-5.8,5.8-15.1,0-20.9C37.9-1.4,28.6-1.4,22.8,4.3z M39,20.5L27.5,9c3.2-3.2,8.4-3.2,11.6,0C42.2,12.2,42.2,17.3,39,20.5z"/>
	<polygon fill="#FFD15C" points="8.4,46.8 8.5,43.1 12.3,43 13.8,41.4 13.9,37.6 17.7,37.5 20.1,35.1 20.2,31.4 24,31.2 25.3,29.9 
		18.1,22.7 0,40.8 0,48 7.2,48 	"/>
</g>
</svg>
