<?xml version="1.0" encoding="utf-8"?>
<!-- Generator: Adobe Illustrator 19.0.1, SVG Export Plug-In . SVG Version: 6.00 Build 0)  -->
<svg version="1.1" id="Layer_1" xmlns="http://www.w3.org/2000/svg" xmlns:xlink="http://www.w3.org/1999/xlink" x="0px" y="0px"
	 viewBox="0 0 48 48" style="enable-background:new 0 0 48 48;" xml:space="preserve">
<style type="text/css">
	.st0{fill:#66C6B9;}
	.st1{fill:#F3F3F3;}
	.st2{fill:#415A6B;}
	.st3{fill:#CED6E0;}
	.st4{fill:#F3705A;}
	.st5{fill:#E8EAE9;}
	.st6{fill:#4ABAA5;}
	.st7{fill:#F05540;}
	.st8{fill:#FFD15C;}
	.st9{fill:#55C0EB;}
	.st10{fill:#8AD7F8;}
	.st11{fill:#344A5E;}
	.st12{fill:#FFFFFF;}
	.st13{fill:#F7B64C;}
	.st14{fill:#ADB3BA;}
	.st15{fill:#38A892;}
	.st16{fill:#ED9845;}
	.st17{fill:#2D4251;}
	.st18{fill:#304556;}
	.st19{fill:#A5AAAD;}
	.st20{fill:#2D4456;}
	.st21{fill:#4FB0E0;}
	.st22{fill:#2D4354;}
	.st23{fill:#E54C38;}
	.st24{fill:#2B4456;}
	.st25{fill:#2B404F;}
</style>
<g>
	<g>
		<g>
			<g>
				<path class="st5" d="M38.8,10.9v22.9c0,1.9-1.6,3.5-3.5,3.5H3.5c-1.9,0-3.5-1.6-3.5-3.5V10.9H38.8z"/>
			</g>
			<g>
				<path class="st0" d="M38.8,10.9V3.5c0-1.9-1.6-3.5-3.5-3.5H3.5C1.6,0,0,1.6,0,3.5v7.4H38.8z"/>
			</g>
			<g>
				<circle class="st12" cx="9.4" cy="5.4" r="2.2"/>
				<circle class="st12" cx="29.4" cy="5.4" r="2.2"/>
			</g>
			<g>
				<path class="st2" d="M29.4,5.4c0,0.8-0.6,1.4-1.4,1.4H10.8c-0.8,0-1.4-0.6-1.4-1.4c0-0.8,0.6-1.4,1.4-1.4H28
					C28.7,4,29.4,4.6,29.4,5.4z"/>
			</g>
			<g>
				<g>
					<rect x="5.1" y="15.3" class="st2" width="4.3" height="4"/>
					<rect x="13.2" y="15.3" class="st2" width="4.3" height="4"/>
					<rect x="21.3" y="15.3" class="st2" width="4.3" height="4"/>
					<rect x="29.4" y="15.3" class="st2" width="4.3" height="4"/>
				</g>
				<g>
					<rect x="5.1" y="22.1" class="st2" width="4.3" height="4"/>
					<rect x="13.2" y="22.1" class="st2" width="4.3" height="4"/>
					<rect x="21.3" y="22.1" class="st2" width="4.3" height="4"/>
					<rect x="29.4" y="22.1" class="st2" width="4.3" height="4"/>
				</g>
				<g>
					<rect x="5.1" y="28.8" class="st2" width="4.3" height="4"/>
					<rect x="13.2" y="28.8" class="st2" width="4.3" height="4"/>
					<rect x="21.3" y="28.8" class="st2" width="4.3" height="4"/>
					<rect x="29.4" y="28.8" class="st2" width="4.3" height="4"/>
				</g>
			</g>
		</g>
		<g>
			<g>
				<g>
					<g>
						<circle class="st4" cx="32.4" cy="32.4" r="15.6"/>
					</g>
				</g>
				<g>
					<g>
						<circle class="st12" cx="32.4" cy="32.4" r="12.6"/>
					</g>
				</g>
				<g>
					<g>
						<path class="st2" d="M36.1,37.3c-0.3,0-0.6-0.1-0.8-0.3l-3.7-3.7c-0.2-0.2-0.3-0.5-0.3-0.8v-6.9c0-0.6,0.5-1.2,1.2-1.2
							c0.6,0,1.2,0.5,1.2,1.2v6.4l3.4,3.4c0.5,0.5,0.5,1.2,0,1.7C36.7,37.2,36.4,37.3,36.1,37.3z"/>
					</g>
				</g>
				<g>
					<g>
						<circle class="st8" cx="32.4" cy="32.4" r="2.5"/>
					</g>
				</g>
			</g>
			<g>
				<g>
					<circle class="st3" cx="32.4" cy="22.3" r="0.9"/>
				</g>
				<g>
					<circle class="st3" cx="32.4" cy="42.5" r="0.9"/>
				</g>
			</g>
			<g>
				<g>
					<circle class="st3" cx="39.5" cy="25.2" r="0.9"/>
				</g>
				<g>
					<circle class="st3" cx="25.2" cy="39.5" r="0.9"/>
				</g>
			</g>
			<g>
				<g>
					<circle class="st3" cx="42.5" cy="32.4" r="0.9"/>
				</g>
				<g>
					<circle class="st3" cx="22.3" cy="32.4" r="0.9"/>
				</g>
			</g>
			<g>
				<g>
					<circle class="st3" cx="39.5" cy="39.5" r="0.9"/>
				</g>
				<g>
					<circle class="st3" cx="25.2" cy="25.2" r="0.9"/>
				</g>
			</g>
		</g>
	</g>
</g>
</svg>
