<?xml version="1.0" encoding="utf-8"?>
<!-- Generator: Adobe Illustrator 20.1.0, SVG Export Plug-In . SVG Version: 6.00 Build 0)  -->
<!DOCTYPE svg PUBLIC "-//W3C//DTD SVG 1.1//EN" "http://www.w3.org/Graphics/SVG/1.1/DTD/svg11.dtd">
<svg version="1.1" id="Layer_1" xmlns="http://www.w3.org/2000/svg" xmlns:xlink="http://www.w3.org/1999/xlink" x="0px" y="0px"
	 viewBox="0 0 49 49" enable-background="new 0 0 49 49" xml:space="preserve">
<g>
	<path fill="#40596B" d="M46.5,9.9h-44c-1.1,0-2,0.9-2,2v33.3c0,1.1,0.9,2,2,2h44c1.1,0,2-0.9,2-2V11.9C48.5,10.8,47.6,9.9,46.5,9.9
		z"/>
	<path fill="#ACB3BA" d="M15.7,9V5.3c0-0.3,0.2-0.5,0.5-0.5h16.5c0.3,0,0.5,0.2,0.5,0.5V9h3V5.3c0-1.9-1.6-3.5-3.5-3.5H16.2
		c-1.9,0-3.5,1.6-3.5,3.5V9H15.7z"/>
	<rect x="12.3" y="9" fill="#334A5E" width="4" height="1"/>
	<rect x="32.8" y="9" fill="#334A5E" width="4" height="1"/>
	<path fill="#ACB3BA" d="M30.7,31.3L30.7,31.3L28,28.6c-0.9,0.9-2.1,1.5-3.5,1.5c-2.7,0-5-2.2-5-5c0-1.4,0.6-2.6,1.5-3.5l-2.7-2.7
		l0,0c-0.2,0.2-0.4,0.5-0.6,0.7l-2.1-0.4l-1.1,2.1l1.5,1.5c-0.2,0.6-0.3,1.2-0.3,1.8l-1.9,0.9l0.4,2.4l2.1,0.3
		c0.2,0.6,0.5,1.1,0.8,1.7l-1,1.9l1.7,1.7l1.9-1c0.5,0.4,1.1,0.6,1.7,0.9l0.3,2.1l2.4,0.4l0.9-1.9c0.6,0,1.2-0.1,1.8-0.3l1.5,1.5
		l2.1-1.1l-0.4-2.1C30.3,31.7,30.5,31.5,30.7,31.3z"/>
	<path fill="#CDD6E0" d="M24.5,20.1c2.7,0,5,2.2,5,5c0,1.4-0.6,2.6-1.5,3.5l2.7,2.7c0.2-0.2,0.4-0.5,0.6-0.7l2.1,0.4l1.1-2.1
		L33,27.3c0.2-0.6,0.3-1.2,0.3-1.8l1.9-0.9l-0.4-2.4l-2.1-0.3c-0.2-0.6-0.5-1.1-0.8-1.7l1-1.9l-1.7-1.7l-1.9,1
		c-0.5-0.4-1.1-0.6-1.7-0.9l-0.3-2.1l-2.4-0.4L24,16.2c-0.6,0-1.2,0.1-1.8,0.3L20.7,15l-2.1,1.1l0.4,2.1c-0.2,0.2-0.5,0.4-0.7,0.6
		l2.7,2.7C21.9,20.6,23.1,20.1,24.5,20.1z"/>
	<path fill="#FF7058" d="M47,41.9L47,41.9c0-1-0.8-1.8-1.8-1.8h-2.6v3.6h2.6C46.2,43.7,47,42.9,47,41.9z"/>
	<rect x="5.3" y="41.2" fill="#D8AB53" width="0" height="0"/>
	<polygon fill="#FFD05C" points="6.5,40.1 6.5,43.7 4.3,42.9 2,41.9 4.3,41 	"/>
	<polygon fill="#ACB3BA" points="4.3,41 4.3,42.9 2,41.9 	"/>
	<polygon fill="#84DBFF" points="6.5,40.1 6.5,41.2 40.9,41.2 40.9,41.2 40.9,40.1 	"/>
	<rect x="6.5" y="41.2" fill="#54C0EB" width="34.4" height="1.4"/>
	<rect x="6.5" y="42.6" fill="#84DBFF" width="34.4" height="1.1"/>
	<rect x="40.9" y="40.1" fill="#FFFFFF" width="1.7" height="3.6"/>
	<polygon fill="#55BFE9" points="40.9,40.1 42.6,40.1 40.9,40.1 	"/>
	<polygon fill="#FFD15C" points="42.6,41.2 42.6,41.2 42.6,40.1 	"/>
	<polygon fill="#55BFE9" points="42.6,42.6 42.6,42.6 42.6,41.2 42.6,41.2 	"/>
</g>
</svg>
