<?xml version="1.0" encoding="utf-8"?>
<!-- Generator: Adobe Illustrator 18.0.0, SVG Export Plug-In . SVG Version: 6.00 Build 0)  -->
<!DOCTYPE svg PUBLIC "-//W3C//DTD SVG 1.1//EN" "http://www.w3.org/Graphics/SVG/1.1/DTD/svg11.dtd">
<svg version="1.1" id="Layer_1" xmlns="http://www.w3.org/2000/svg" xmlns:xlink="http://www.w3.org/1999/xlink" x="0px" y="0px"
	 viewBox="0 0 512 512" enable-background="new 0 0 512 512" xml:space="preserve">
<g>
	<path fill="#65C5B8" d="M2,317.8v98.8c0,11.7,9.5,21.2,21.2,21.2h465.6c11.7,0,21.2-9.5,21.2-21.2v-98.8H2z"/>
	<rect x="2" y="317.8" fill="#334A5E" width="508" height="13.4"/>
	<path fill="#41596B" d="M488.8,113.9H23.2c-11.7,0-21.2,9.5-21.2,21.2v182.7h508V135.1C510,123.4,500.5,113.9,488.8,113.9z"/>
	<rect x="102.2" y="348.4" fill="#4FBFA8" width="307.6" height="89.4"/>
	<path fill="#F2F2F2" d="M115.9,359.1v129.8c0,11.7,9.5,21.2,21.2,21.2h230.6c11.7,0,21.2-9.5,21.2-21.2V359.1H115.9z"/>
	<rect x="139.5" y="466.2" fill="#CDD5DF" width="125.7" height="21.3"/>
	<rect x="139.5" y="421.6" fill="#CDD5DF" width="233" height="21.3"/>
	<rect x="139.5" y="377.1" fill="#CDD5DF" width="233" height="21.3"/>
	<path fill="#F2F2F2" d="M322.4,2H140.7c-11.7,0-21.2,9.5-21.2,21.2v90.7h273V72L322.4,2z"/>
	<path fill="#CDD5DF" d="M322.4,2v48.8c0,11.7,9.5,21.2,21.2,21.2h48.8L322.4,2z"/>
	<circle fill="#FFD05C" cx="375.2" cy="174.7" r="19.2"/>
	<circle fill="#F2705B" cx="444.3" cy="174.7" r="19.2"/>
</g>
</svg>
