<?xml version="1.0" encoding="utf-8"?>
<!-- Generator: Adobe Illustrator 18.0.0, SVG Export Plug-In . SVG Version: 6.00 Build 0)  -->
<!DOCTYPE svg PUBLIC "-//W3C//DTD SVG 1.1//EN" "http://www.w3.org/Graphics/SVG/1.1/DTD/svg11.dtd">
<svg version="1.1" id="Layer_1" xmlns="http://www.w3.org/2000/svg" xmlns:xlink="http://www.w3.org/1999/xlink" x="0px" y="0px"
	 viewBox="0 0 48 48" enable-background="new 0 0 48 48" xml:space="preserve">
<g>
	<g>
		<g>
			<rect x="36.2" y="6.9" fill="#F7B64C" width="4.7" height="10.9"/>
			<g>
				<rect x="34.7" y="3.3" fill="#FFD15C" width="7.8" height="5.1"/>
			</g>
		</g>
		<g>
			<g>
				<polygon fill="#F3F3F3" points="43.1,23.8 43.1,47.2 4.9,47.2 4.9,23.8 24,4.7 				"/>
			</g>
			<path fill="#FFD15C" d="M47.3,23.1L25.7,1.6c-1-1-2.5-1-3.5,0L0.7,23.1c-1,1-1,2.5,0,3.5c1,1,2.5,1,3.5,0L24,6.7l19.8,19.8
				c1,1,2.5,1,3.5,0S48.2,24.1,47.3,23.1z"/>
		</g>
		<g>
			<g>
				<path fill="#415A6B" d="M23.8,40.7l0.8-1.3l-1.1-1.9c0.1-0.3,0.1-0.6,0.2-0.9l1.7-1.4L25,33.8l-2.1-0.6
					c-0.2-0.3-0.3-0.5-0.5-0.8l0.2-2.2l-1.3-0.8l-1.9,1.1c-0.3-0.1-0.6-0.1-0.9-0.2l-1.4-1.7l-1.5,0.3L15,31.1
					c-0.3,0.2-0.5,0.3-0.8,0.5L12,31.4l-0.8,1.3l1.1,1.9c-0.1,0.3-0.1,0.6-0.2,0.9l-1.7,1.4l0.3,1.5l2.1,0.6
					c0.2,0.3,0.3,0.5,0.5,0.8l-0.2,2.2l1.3,0.8l1.9-1.1c0.3,0.1,0.6,0.1,0.9,0.2l1.4,1.7l1.5-0.3l0.6-2.1c0.3-0.2,0.5-0.3,0.8-0.5
					L23.8,40.7z M16.3,38.5c-1.4-0.9-1.7-2.7-0.9-4c0.9-1.4,2.7-1.7,4-0.9s1.7,2.7,0.9,4C19.5,39,17.7,39.4,16.3,38.5z"/>
			</g>
			<g>
				<path fill="#66C6B9" d="M37.3,29.7l0.3-1.5l-1.8-1.3c0-0.3-0.1-0.6-0.2-0.9l1.1-1.9l-0.8-1.2l-2.2,0.3c-0.3-0.2-0.5-0.4-0.8-0.5
					l-0.6-2.1l-1.5-0.3L29.3,22c-0.3,0-0.6,0.1-0.9,0.2l-1.9-1.1L25.2,22l0.3,2.2c-0.2,0.3-0.4,0.5-0.5,0.8l-2.1,0.6l-0.3,1.5
					l1.8,1.3c0,0.3,0.1,0.6,0.2,0.9l-1.1,1.9l0.8,1.2l2.2-0.3c0.3,0.2,0.5,0.4,0.8,0.5l0.6,2.1l1.5,0.3l1.3-1.8
					c0.3,0,0.6-0.1,0.9-0.2l1.9,1.1l1.2-0.8l-0.3-2.2c0.2-0.3,0.4-0.5,0.5-0.8L37.3,29.7z M29.6,30.5c-1.6-0.3-2.6-1.8-2.3-3.4
					c0.3-1.6,1.8-2.6,3.4-2.3s2.6,1.8,2.3,3.4C32.7,29.8,31.1,30.8,29.6,30.5z"/>
			</g>
		</g>
	</g>
</g>
</svg>
