<?xml version="1.0" encoding="utf-8"?>
<!-- Generator: Adobe Illustrator 18.0.0, SVG Export Plug-In . SVG Version: 6.00 Build 0)  -->
<!DOCTYPE svg PUBLIC "-//W3C//DTD SVG 1.1//EN" "http://www.w3.org/Graphics/SVG/1.1/DTD/svg11.dtd">
<svg version="1.1" id="Layer_1" xmlns="http://www.w3.org/2000/svg" xmlns:xlink="http://www.w3.org/1999/xlink" x="0px" y="0px"
	 viewBox="0 0 48 48" enable-background="new 0 0 48 48" xml:space="preserve">
<g>
	<path fill="#40596B" d="M31.2,0h-27c-1.1,0-2,0.9-2,2v44c0,1.1,0.9,2,2,2h27c1.1,0,2-0.9,2-2V2C33.2,0.9,32.3,0,31.2,0z"/>
	<rect x="6.2" y="5.9" fill="#FFFFFF" width="23" height="32.2"/>
	<path fill="#334A5E" d="M24.5,2.9L24.5,2.9c0-0.4-0.3-0.8-0.8-0.8h-9.8c-0.4,0-0.8,0.3-0.8,0.8l0,0c0,0.4,0.3,0.8,0.8,0.8h9.8
		C24.1,3.7,24.5,3.4,24.5,2.9z"/>
	<circle fill="#334A5E" cx="17.7" cy="43.1" r="2.6"/>
	<g>
		<path fill="#CDD6E0" d="M17.7,27.7c-4.7,0-8.5-3.3-8.5-7.3V9c0-0.6,0.4-1,1-1h2.3v2h-1.3v10.5c0,2.9,2.9,5.3,6.5,5.3
			s6.5-2.4,6.5-5.3V10h-1.3V8h2.3c0.6,0,1,0.4,1,1v11.5C26.3,24.4,22.4,27.7,17.7,27.7z"/>
	</g>
	<g>
		<path fill="#CDD6E0" d="M25.7,35.2h-2.5c-3.6,0-6.5-2.9-6.5-6.5v-2h2v2c0,2.5,2,4.5,4.5,4.5h2.5c2.5,0,4.5-2,4.5-4.5v-8.3
			c0-3.6,2.9-6.5,6.5-6.5s6.5,2.9,6.5,6.5v2.9h-2v-2.9c0-2.5-2-4.5-4.5-4.5c-2.5,0-4.5,2-4.5,4.5v8.3C32.2,32.3,29.3,35.2,25.7,35.2
			z"/>
	</g>
	<path fill="#FF7058" d="M42.1,29.3c-2,0-3.7-1.6-3.7-3.7c0-2,1.6-3.7,3.7-3.7s3.7,1.6,3.7,3.7C45.8,27.7,44.1,29.3,42.1,29.3z"/>
	<circle fill="#FFFFFF" cx="42.1" cy="25.7" r="1.6"/>
	<g>
		<path fill="#54C0EB" d="M17.7,28.2c-5,0-9-3.5-9-7.8h3c0,2.6,2.7,4.8,6,4.8c3.3,0,6-2.1,6-4.8h3C26.8,24.7,22.7,28.2,17.7,28.2z"
			/>
	</g>
	<path fill="#ACB3BA" d="M13.3,7.8h-0.7v2.3h0.7c0.6,0,1.2-0.5,1.2-1.1l0,0C14.4,8.3,13.9,7.8,13.3,7.8z"/>
	<path fill="#ACB3BA" d="M22.2,10.1H23V7.8h-0.7c-0.6,0-1.1,0.5-1.1,1.2l0,0C21.1,9.6,21.6,10.1,22.2,10.1z"/>
</g>
</svg>
