<?xml version="1.0" encoding="utf-8"?>
<!-- Generator: Adobe Illustrator 20.1.0, SVG Export Plug-In . SVG Version: 6.00 Build 0)  -->
<!DOCTYPE svg PUBLIC "-//W3C//DTD SVG 1.1//EN" "http://www.w3.org/Graphics/SVG/1.1/DTD/svg11.dtd">
<svg version="1.1" id="Layer_1" xmlns="http://www.w3.org/2000/svg" xmlns:xlink="http://www.w3.org/1999/xlink" x="0px" y="0px"
	 viewBox="0 0 49 49" enable-background="new 0 0 49 49" xml:space="preserve">
<g>
	<path fill="#CDD6E0" d="M46.5,0.5h-44c-1.1,0-2,0.9-2,2v44c0,1.1,0.9,2,2,2h44c1.1,0,2-0.9,2-2v-44C48.5,1.4,47.6,0.5,46.5,0.5z"/>
	
		<rect x="6.1" y="6.1" transform="matrix(-1.836970e-16 1 -1 -1.836970e-16 51.0768 2.076)" fill="#FFFFFF" width="36.8" height="41"/>
	<circle fill="#F2F2F2" cx="42.5" cy="4.3" r="1.3"/>
	<circle fill="#F2F2F2" cx="38.3" cy="4.3" r="1.3"/>
	<circle fill="#F2F2F2" cx="34" cy="4.3" r="1.3"/>
	<rect x="19.5" y="20.8" fill="#4CDBC4" width="22.6" height="2.3"/>
	<rect x="19.5" y="16.7" fill="#4CDBC4" width="22.6" height="2.3"/>
	<rect x="32" y="40.3" fill="#CDD6E0" width="6.1" height="2.3"/>
	<rect x="32" y="36.1" fill="#CDD6E0" width="10" height="2.3"/>
	<rect x="19.5" y="40.3" fill="#CDD6E0" width="6.1" height="2.3"/>
	<rect x="19.5" y="36.1" fill="#CDD6E0" width="10" height="2.3"/>
	<rect x="6.9" y="40.3" fill="#CDD6E0" width="6.1" height="2.3"/>
	<rect x="6.9" y="36.1" fill="#CDD6E0" width="10" height="2.3"/>
	<rect x="6.9" y="26" fill="#FFD15C" width="10" height="7.2"/>
	<rect x="19.5" y="26" fill="#FF7058" width="10" height="7.2"/>
	<rect x="32" y="26" fill="#ACB3BA" width="10" height="7.2"/>
	
		<rect x="5.8" y="12" transform="matrix(-1.836970e-16 1 -1 -1.836970e-16 28.9893 5.0911)" fill="#F1543F" width="12.2" height="10"/>
	<path fill="#FFFFFF" d="M15.3,17.2l0.7-0.4L15.8,16l-0.8-0.1c-0.1-0.2-0.2-0.4-0.3-0.6l0.4-0.7l-0.6-0.6l-0.7,0.4
		c-0.2-0.1-0.4-0.2-0.6-0.3L13,13.1L12.1,13l-0.3,0.7c-0.2,0-0.5,0-0.7,0.1l-0.6-0.6l-0.8,0.4l0.1,0.8c-0.1,0.1-0.2,0.1-0.3,0.2v0
		c-0.1,0.1-0.2,0.2-0.2,0.3l-0.8-0.1l-0.4,0.8l0.6,0.6c-0.1,0.2-0.1,0.5-0.1,0.7l-0.7,0.4l0.1,0.9l0.8,0.1c0.1,0.2,0.2,0.4,0.3,0.6
		l-0.4,0.7l0.6,0.6l0.7-0.4c0.2,0.1,0.4,0.2,0.6,0.3l0.1,0.8l0.9,0.1l0.3-0.7c0.2,0,0.5,0,0.7-0.1l0.6,0.6l0.8-0.4L14,19.6
		c0.1-0.1,0.2-0.1,0.3-0.2l0,0c0.1-0.1,0.2-0.2,0.2-0.3l0.8,0.1l0.4-0.8l-0.6-0.6C15.2,17.7,15.3,17.4,15.3,17.2z M11.9,18.9
		c-1,0-1.9-0.8-1.9-1.9c0-0.5,0.2-1,0.6-1.3c0.3-0.3,0.8-0.6,1.3-0.6c1,0,1.9,0.8,1.9,1.9c0,0.5-0.2,1-0.6,1.3
		C12.9,18.7,12.5,18.9,11.9,18.9z"/>
</g>
</svg>
