<?xml version="1.0" encoding="utf-8"?>
<!-- Generator: Adobe Illustrator 18.0.0, SVG Export Plug-In . SVG Version: 6.00 Build 0)  -->
<!DOCTYPE svg PUBLIC "-//W3C//DTD SVG 1.1//EN" "http://www.w3.org/Graphics/SVG/1.1/DTD/svg11.dtd">
<svg version="1.1" id="Layer_1" xmlns="http://www.w3.org/2000/svg" xmlns:xlink="http://www.w3.org/1999/xlink" x="0px" y="0px"
	 viewBox="0 0 48 48" enable-background="new 0 0 48 48" xml:space="preserve">
<g>
	<g>
		<path fill="#FFD15C" d="M45.5,47.3H28l-2.6-12.9c-0.3-1.5-2.4-1.5-2.7,0L20,47.3H2.5c-3.3-15.5-3.3-31,0-46.5
			c14.3,3.2,28.7,3.2,43,0C48.8,16.2,48.8,31.8,45.5,47.3z"/>
		<g>
			<g>
				<path fill="#F7B64C" d="M47.9,20.5C39.2,20.2,34.5,5.4,34.5,5.4L44.7,2l1-0.2C47,8.1,47.7,14.3,47.9,20.5z"/>
			</g>
			<g>
				<path fill="#F7B64C" d="M13.5,5.4c0,0-4.7,14.8-13.5,15.2C0.3,14.3,1,8.1,2.3,1.9l1,0.2L13.5,5.4z"/>
			</g>
		</g>
		<g>
			<path fill="#F7B64C" d="M21.2,28.7l0-22.5h5.7V23C26.8,26.1,24.3,28.7,21.2,28.7z"/>
		</g>
		<g>
			<g>
				<path fill="#415A6B" d="M46.5,5.8C39,7.4,31.5,8.2,24,8.2c-7.5,0-15.1-0.8-22.5-2.5c0.3-1.7,0.6-3.4,1-5c14.3,3.2,28.7,3.2,43,0
					C45.9,2.4,46.2,4.1,46.5,5.8z"/>
			</g>
		</g>
	</g>
</g>
</svg>
