<?xml version="1.0" encoding="utf-8"?>
<!-- Generator: Adobe Illustrator 20.1.0, SVG Export Plug-In . SVG Version: 6.00 Build 0)  -->
<!DOCTYPE svg PUBLIC "-//W3C//DTD SVG 1.1//EN" "http://www.w3.org/Graphics/SVG/1.1/DTD/svg11.dtd">
<svg version="1.1" id="Layer_1" xmlns="http://www.w3.org/2000/svg" xmlns:xlink="http://www.w3.org/1999/xlink" x="0px" y="0px"
	 viewBox="0 0 49 49" enable-background="new 0 0 49 49" xml:space="preserve">
<g>
	<path fill="#ACB3BA" d="M46.5,48.5h-44c-1.1,0-2-0.9-2-2V9.4c0-1.1,0.9-2,2-2h44c1.1,0,2,0.9,2,2v37.1
		C48.5,47.6,47.6,48.5,46.5,48.5z"/>
	<path fill="#CDD6E0" d="M41.8,48.5H7.2v-46c0-1.1,0.9-2,2-2h30.6c1.1,0,2,0.9,2,2V48.5z"/>
	<g>
		<rect x="43.5" y="12.1" fill="#CDD6E0" width="3.2" height="3.1"/>
		<rect x="43.5" y="21.6" fill="#CDD6E0" width="3.2" height="3.1"/>
		<rect x="43.5" y="31.1" fill="#CDD6E0" width="3.2" height="3.1"/>
		<rect x="43.5" y="40.6" fill="#CDD6E0" width="3.2" height="3.1"/>
	</g>
	<g>
		<rect x="18" y="35.5" fill="#40596B" width="6.5" height="13"/>
		<rect x="24.5" y="35.5" fill="#334A5E" width="6.5" height="13"/>
	</g>
	<g>
		<rect x="12.5" y="5.6" fill="#40596B" width="8.4" height="3.9"/>
		<rect x="28.1" y="5.6" fill="#40596B" width="8.4" height="3.9"/>
		<rect x="12.5" y="16" fill="#40596B" width="8.4" height="4"/>
		<rect x="28.1" y="16" fill="#40596B" width="8.4" height="4"/>
		<rect x="12.5" y="26.4" fill="#40596B" width="8.4" height="4"/>
		<rect x="28.1" y="26.4" fill="#40596B" width="8.4" height="4"/>
	</g>
	<g>
		<rect x="2.2" y="12.1" fill="#CDD6E0" width="3.2" height="3.1"/>
		<rect x="2.2" y="21.6" fill="#CDD6E0" width="3.2" height="3.1"/>
		<rect x="2.2" y="31.1" fill="#CDD6E0" width="3.2" height="3.1"/>
		<rect x="2.2" y="40.6" fill="#CDD6E0" width="3.2" height="3.1"/>
	</g>
</g>
</svg>
