<?xml version="1.0" encoding="utf-8"?>
<!-- Generator: Adobe Illustrator 18.0.0, SVG Export Plug-In . SVG Version: 6.00 Build 0)  -->
<!DOCTYPE svg PUBLIC "-//W3C//DTD SVG 1.1//EN" "http://www.w3.org/Graphics/SVG/1.1/DTD/svg11.dtd">
<svg version="1.1" id="Layer_1" xmlns="http://www.w3.org/2000/svg" xmlns:xlink="http://www.w3.org/1999/xlink" x="0px" y="0px"
	 viewBox="0 0 48 48" enable-background="new 0 0 48 48" xml:space="preserve">
<g>
	<path fill="#FFD15C" d="M39.4,45.7L26.7,34.9l6.8-7.9l12.6,10.9c2.2,1.9,2.4,5.2,0.6,7.3l0,0C44.9,47.4,41.6,47.6,39.4,45.7z"/>
	<path fill="#F8B64C" d="M24.9,37L24.9,37c-0.5-0.4-0.6-1.2-0.1-1.8l8.9-10.4c0.4-0.5,1.2-0.6,1.8-0.1l0,0c0.5,0.4,0.6,1.2,0.1,1.8
		l-8.9,10.4C26.2,37.4,25.4,37.5,24.9,37z"/>
	<circle fill="#F2F2F2" cx="15.4" cy="18.3" r="15.4"/>
	<path fill="#F2F2F2" d="M27.1,28.3c-0.3,0.4-0.6,0.7-1,1.1c-5.6,5.5-14.6,5.8-20.7,0.6c-6.1-5.2-7.1-14.1-2.6-20.6
		c0.3-0.4,0.6-0.8,0.9-1.1C9.2,1.9,19,1.1,25.4,6.6C31.9,12.2,32.6,21.9,27.1,28.3z"/>
	<path fill="#CDD6E0" d="M26.6,33.1L13.3,21.8c-1.7-1.4-1.9-4-0.4-5.6l0,0c1.4-1.7,4-1.9,5.6-0.4l13.3,11.3L26.6,33.1z"/>
	<circle fill="#ACB3BA" cx="15.4" cy="18.3" r="1.8"/>
	<path opacity="0.2" fill="#334A5E" d="M28,30.2c0.2-0.2,0.4-0.4,0.6-0.6c5.5-6.5,3.3-17.4-3.2-22.9C19,1.1,9.2,1.9,3.7,8.3
		C3.5,8.5,3.4,8.8,3.2,9L28,30.2z"/>
	<path fill="#40596B" d="M26.7,5.2C19.4-1,8.5-0.2,2.2,7.1l26.3,22.5C34.8,22.3,33.9,11.4,26.7,5.2z"/>
</g>
</svg>
