<?xml version="1.0" encoding="utf-8"?>
<!-- Generator: Adobe Illustrator 18.0.0, SVG Export Plug-In . SVG Version: 6.00 Build 0)  -->
<!DOCTYPE svg PUBLIC "-//W3C//DTD SVG 1.1//EN" "http://www.w3.org/Graphics/SVG/1.1/DTD/svg11.dtd">
<svg version="1.1" id="Layer_1" xmlns="http://www.w3.org/2000/svg" xmlns:xlink="http://www.w3.org/1999/xlink" x="0px" y="0px"
	 viewBox="0 0 48 48" enable-background="new 0 0 48 48" xml:space="preserve">
<g>
	<g>
		<g>
			<path fill="#F7B64C" d="M43.1,7.1v21.7c0,1.3-1,2.3-2.3,2.3h-33c-1.3,0-2.3-1-2.3-2.3V2.3C5.5,1,6.6,0,7.8,0h6.8
				c0.8,0,1.6,0.4,2,1.2l2.1,3.7h22.1C42.1,4.8,43.1,5.8,43.1,7.1z"/>
		</g>
		<g>
			<path fill="#FFD15C" d="M43.1,14.1v21.7c0,1.3-1,2.3-2.3,2.3h-33c-1.3,0-2.3-1-2.3-2.3V9.3C5.5,8,6.6,7,7.8,7h6.8
				c0.8,0,1.6,0.4,2,1.2l2.1,3.7h22.1C42.1,11.8,43.1,12.8,43.1,14.1z"/>
		</g>
		<g>
			<g>
				<path fill="#415A6B" d="M46,27.5H2c-1.1,0-2,0.9-2,2V46c0,1.1,0.9,2,2,2h44c1.1,0,2-0.9,2-2V29.5C48,28.4,47.1,27.5,46,27.5z"/>
			</g>
			<path fill="#344A5E" d="M30.4,36H17.6c-1,0-1.8,0.8-1.8,1.8c0,1,0.8,1.8,1.8,1.8h12.7c1,0,1.8-0.8,1.8-1.8
				C32.2,36.8,31.4,36,30.4,36z"/>
		</g>
	</g>
</g>
</svg>
