<?xml version="1.0" encoding="utf-8"?>
<!-- Generator: Adobe Illustrator 18.0.0, SVG Export Plug-In . SVG Version: 6.00 Build 0)  -->
<!DOCTYPE svg PUBLIC "-//W3C//DTD SVG 1.1//EN" "http://www.w3.org/Graphics/SVG/1.1/DTD/svg11.dtd">
<svg version="1.1" id="Layer_1" xmlns="http://www.w3.org/2000/svg" xmlns:xlink="http://www.w3.org/1999/xlink" x="0px" y="0px"
	 viewBox="0 0 48 48" enable-background="new 0 0 48 48" xml:space="preserve">
<g>
	<g>
		<path fill="#CFD7E1" d="M41.9,20c-0.7-0.5-1.6-0.4-2.1,0.3L27.9,35.4l-5.3-17.6c-0.2-0.6-0.7-1-1.3-1.1c-0.6-0.1-1.2,0.2-1.5,0.7
			L5.7,41.6c-0.4,0.7-0.2,1.6,0.5,2.1c0.2,0.1,0.5,0.2,0.8,0.2c0.5,0,1-0.3,1.3-0.7l12.4-21.2L25.9,39c0.2,0.5,0.6,0.9,1.2,1
			c0.5,0.1,1.1-0.1,1.5-0.5l13.7-17.4C42.7,21.5,42.6,20.5,41.9,20z"/>
		<g>
			<circle fill="#FFD15D" cx="41" cy="21.2" r="5.7"/>
			<g>
				<g>
					<circle fill="#F3F3F3" cx="41" cy="21.2" r="2.6"/>
				</g>
			</g>
		</g>
		<g>
			<circle fill="#435B6C" cx="7" cy="42.3" r="5.7"/>
			<g>
				<g>
					<circle fill="#F3F3F3" cx="7" cy="42.3" r="2.6"/>
				</g>
			</g>
		</g>
		<g>
			<circle fill="#F3705B" cx="21.1" cy="18.2" r="5.7"/>
			<g>
				<g>
					<circle fill="#F3F3F3" cx="21.1" cy="18.2" r="2.6"/>
				</g>
			</g>
		</g>
		<g>
			<circle fill="#67C6B9" cx="27.3" cy="38.6" r="5.7"/>
			<g>
				<g>
					<circle fill="#F3F3F3" cx="27.3" cy="38.6" r="2.6"/>
				</g>
			</g>
		</g>
		<g>
			<path fill="#F3705B" d="M41,0c-3.9,0-7,3.1-7,7s7,14.2,7,14.2S48,10.9,48,7S44.9,0,41,0z"/>
			<g>
				<g>
					<circle fill="#F3F3F3" cx="41" cy="7" r="3.9"/>
				</g>
			</g>
		</g>
		<g>
			<path fill="#FFD15D" d="M7,21.1c-3.9,0-7,3.1-7,7s7,14.2,7,14.2s7-10.3,7-14.2S10.9,21.1,7,21.1z"/>
			<g>
				<g>
					<circle fill="#F3F3F3" cx="7" cy="28.2" r="3.9"/>
				</g>
			</g>
		</g>
	</g>
</g>
</svg>
