<?xml version="1.0" encoding="utf-8"?>
<!-- Generator: Adobe Illustrator 19.0.1, SVG Export Plug-In . SVG Version: 6.00 Build 0)  -->
<svg version="1.1" id="Layer_1" xmlns="http://www.w3.org/2000/svg" xmlns:xlink="http://www.w3.org/1999/xlink" x="0px" y="0px"
	 viewBox="0 0 48 48" style="enable-background:new 0 0 48 48;" xml:space="preserve">
<style type="text/css">
	.st0{fill:#66C6B9;}
	.st1{fill:#F3F3F3;}
	.st2{fill:#415A6B;}
	.st3{fill:#CED6E0;}
	.st4{fill:#F3705A;}
	.st5{fill:#E8EAE9;}
	.st6{fill:#4ABAA5;}
	.st7{fill:#F05540;}
	.st8{fill:#FFD15C;}
	.st9{fill:#55C0EB;}
	.st10{fill:#8AD7F8;}
	.st11{fill:#344A5E;}
	.st12{fill:#FFFFFF;}
	.st13{fill:#F7B64C;}
	.st14{fill:#ADB3BA;}
	.st15{fill:#38A892;}
	.st16{fill:#ED9845;}
	.st17{fill:#2D4251;}
	.st18{fill:#304556;}
	.st19{fill:#A5AAAD;}
	.st20{fill:#2D4456;}
	.st21{fill:#4FB0E0;}
	.st22{fill:#2D4354;}
	.st23{fill:#E54C38;}
	.st24{fill:#2B4456;}
	.st25{fill:#2B404F;}
</style>
<g>
	<g>
		<g>
			<g>
				<path class="st2" d="M48,3v42c0,1.7-1.3,3-3,3H3c-1.7,0-3-1.3-3-3V3c0-1.7,1.3-3,3-3h42C46.7,0,48,1.3,48,3z"/>
			</g>
			<rect x="5" y="5" class="st5" width="37.9" height="16.4"/>
			<circle class="st2" cx="24" cy="13.2" r="2.6"/>
		</g>
		<g>
			<path class="st13" d="M39,20.7v14c0,0.9-0.8,1.7-1.7,1.7H10.7c-0.9,0-1.7-0.8-1.7-1.7V17.5c0-0.9,0.8-1.7,1.7-1.7h5.5
				c0.6,0,1.2,0.4,1.5,0.9l1.7,2.3h17.9C38.2,19,39,19.8,39,20.7z"/>
		</g>
		<g>
			<rect x="5" y="26.6" class="st5" width="37.9" height="16.4"/>
			<circle class="st2" cx="24" cy="34.8" r="2.6"/>
		</g>
	</g>
</g>
</svg>
