<?xml version="1.0" encoding="utf-8"?>
<!-- Generator: Adobe Illustrator 18.0.0, SVG Export Plug-In . SVG Version: 6.00 Build 0)  -->
<!DOCTYPE svg PUBLIC "-//W3C//DTD SVG 1.1//EN" "http://www.w3.org/Graphics/SVG/1.1/DTD/svg11.dtd">
<svg version="1.1" id="Layer_1" xmlns="http://www.w3.org/2000/svg" xmlns:xlink="http://www.w3.org/1999/xlink" x="0px" y="0px"
	 viewBox="0 0 48 48" enable-background="new 0 0 48 48" xml:space="preserve">
<g>
	<g>
		<g>
			<g>
				<g>
					<path fill="#415A6B" d="M11.7,21.1H9.8v9.1c0,0.5,0.4,1,1,1h3.1v-1.9h-2.2V21.1z"/>
				</g>
			</g>
		</g>
		<g>
			<g>
				<g>
					<path fill="#415A6B" d="M9.9,21.6h2.9c0.3,0,0.6-0.3,0.6-0.6v-2.3c0-0.3-0.3-0.6-0.6-0.6H9.9c-0.3,0-0.6,0.3-0.6,0.6v2.3
						C9.3,21.4,9.6,21.6,9.9,21.6z"/>
				</g>
			</g>
		</g>
		<g>
			<g>
				<path fill="#CED6E0" d="M34.8,46.5c-3-3.2-6.9-5.1-10.9-5c-3.9,0-7.7,1.8-10.5,5l-1.6-1.4c3.2-3.6,7.5-5.7,12.1-5.7
					c0.1,0,0.1,0,0.2,0c4.6,0,9,2,12.4,5.7L34.8,46.5z"/>
			</g>
			<g>
				<rect x="22.9" y="36.6" fill="#CED6E0" width="2.2" height="9.2"/>
			</g>
			<g>
				<rect x="21.4" y="25.1" fill="#415A6B" width="5.2" height="2.1"/>
			</g>
			<g>
				<path fill="#66C6B9" d="M35.4,4.2c-2.1,5.7-2.8,12-2.5,19c0.1,1.3-1,2.3-2.2,2.3H17.4c-1.3,0-2.3-1.1-2.2-2.3
					c0.3-6.9-0.4-13.2-2.5-19c-0.4-1.2,0.3-2.6,1.5-2.9C17.5,0.4,20.7,0,24,0c0,0,0,0,0,0c3.3,0,6.5,0.4,9.8,1.3
					C35.1,1.6,35.8,3,35.4,4.2z"/>
			</g>
			<g>
				<g>
					<g>
						<path fill="#415A6B" d="M36.3,21.1v8.1h-2.2v1.9h3.1c0.5,0,1-0.4,1-1v-9.1H36.3z"/>
					</g>
				</g>
			</g>
			<g>
				<g>
					<g>
						<path fill="#415A6B" d="M38.1,21.6h-2.9c-0.3,0-0.6-0.3-0.6-0.6v-2.3c0-0.3,0.3-0.6,0.6-0.6h2.9c0.3,0,0.6,0.3,0.6,0.6v2.3
							C38.7,21.4,38.4,21.6,38.1,21.6z"/>
					</g>
				</g>
			</g>
			<path fill="#4EC0AA" d="M32.2,27H15.8c-1.8,0-3.2,1.4-3.2,3.2s1.4,3.2,3.2,3.2h16.4c1.8,0,3.2-1.4,3.2-3.2S34,27,32.2,27z"/>
			<g>
				<g>
					<rect x="22.1" y="33.4" fill="#344A5E" width="3.9" height="3.4"/>
				</g>
			</g>
			<g>
				<g>
					<circle fill="#344A5E" cx="12.7" cy="45.8" r="2.2"/>
				</g>
				<g>
					<circle fill="#344A5E" cx="35.3" cy="45.8" r="2.2"/>
				</g>
			</g>
			<g>
				<circle fill="#344A5E" cx="24.1" cy="45.8" r="2.2"/>
			</g>
		</g>
	</g>
</g>
</svg>
