<?xml version="1.0" encoding="utf-8"?>
<!-- Generator: Adobe Illustrator 18.0.0, SVG Export Plug-In . SVG Version: 6.00 Build 0)  -->
<!DOCTYPE svg PUBLIC "-//W3C//DTD SVG 1.1//EN" "http://www.w3.org/Graphics/SVG/1.1/DTD/svg11.dtd">
<svg version="1.1" id="Layer_1" xmlns="http://www.w3.org/2000/svg" xmlns:xlink="http://www.w3.org/1999/xlink" x="0px" y="0px"
	 viewBox="0 0 48 48" enable-background="new 0 0 48 48" xml:space="preserve">
<g>
	<path fill="#ACB3BA" d="M38.1,48H9.9c-1.1,0-2-0.9-2-2V2c0-1.1,0.9-2,2-2h28.3c1.1,0,2,0.9,2,2v44C40.1,47.1,39.2,48,38.1,48z"/>
	<rect x="11.9" y="5.2" fill="#FFFFFF" width="24.3" height="34.1"/>
	<path fill="#CDD6E0" d="M28.8,3.4h-9.7c-0.4,0-0.8-0.3-0.8-0.8l0,0c0-0.4,0.3-0.8,0.8-0.8h9.7c0.4,0,0.8,0.3,0.8,0.8l0,0
		C29.6,3,29.3,3.4,28.8,3.4z"/>
	<circle fill="#CDD6E0" cx="24" cy="43.6" r="2.6"/>
	<path fill="#84DBFF" d="M24,12.6v9.6h9.6C33.6,16.9,29.3,12.6,24,12.6z"/>
	<path fill="#F2F2F2" d="M24,22.3l6.8,6.8c1.7-1.7,2.8-4.1,2.8-6.8H24z"/>
	<path fill="#FF7058" d="M30.8,29.1c-1.7,1.7-4.1,2.8-6.8,2.8c-2.7,0-5.1-1.1-6.8-2.8c-1.7-1.7-2.8-4.1-2.8-6.8
		c0-5.3,4.3-9.6,9.6-9.6v9.6L30.8,29.1z"/>
	<path fill="#FFD15C" d="M24,22.3l-6.8,6.8c1.7,1.7,4.1,2.8,6.8,2.8c2.6,0,5.1-1.1,6.8-2.8L24,22.3z"/>
</g>
</svg>
