<?xml version="1.0" encoding="utf-8"?>
<!-- Generator: Adobe Illustrator 18.0.0, SVG Export Plug-In . SVG Version: 6.00 Build 0)  -->
<!DOCTYPE svg PUBLIC "-//W3C//DTD SVG 1.1//EN" "http://www.w3.org/Graphics/SVG/1.1/DTD/svg11.dtd">
<svg version="1.1" id="Layer_1" xmlns="http://www.w3.org/2000/svg" xmlns:xlink="http://www.w3.org/1999/xlink" x="0px" y="0px"
	 viewBox="0 0 48 48" enable-background="new 0 0 48 48" xml:space="preserve">
<g>
	<g>
		<g>
			<g>
				<path fill="#E8EAE9" d="M20,44.3L3.7,28c-1.1-1.1-1.1-2.8,0-3.9L26.4,1.4c1.9-1.9,4.9-1.9,6.8,0l13.4,13.4
					c1.9,1.9,1.9,4.9,0,6.8L23.9,44.3C22.8,45.4,21.1,45.4,20,44.3z"/>
			</g>
			<g>
				
					<rect x="17.6" y="9.6" transform="matrix(-0.7071 0.7071 -0.7071 -0.7071 58.0794 23.6658)" fill="#66C6B9" width="13.1" height="28.6"/>
			</g>
			<g>
				<path fill="#FFD15C" d="M1,47L1,47c-1.3-1.3-1.3-3.5,0-4.8l8.5-8.5l4.8,4.8L5.8,47C4.4,48.3,2.3,48.3,1,47z"/>
			</g>
		</g>
		<g>
			<path fill="#415A6B" d="M46.6,21.6L46.6,21.6c-0.3,1.1-0.7,2-1.2,3c-0.2,0.4-0.4,0.8-0.8,1.2c-0.7,0.6-1.7,0.9-2,1.7
				c-0.2,0.5,0,1.1,0.2,1.6c0.2,0.5,0.6,0.9,0.7,1.5c0.1,0.5,0.1,1.2-0.3,1.5c-0.4,0.4-1.2,0.2-1.3-0.4c0-0.3,0.1-0.6,0.2-0.9
				c0.1-0.3,0-0.7-0.3-0.7c-0.3,0-0.4,0.2-0.5,0.5c-1.5,2.9-2.4,6-2.6,9.2c0.1,1.9,0.3,3.8,0.6,5.1c0.1,0.8,0.1,1.8-0.7,2
				c-0.4,0.1-0.9-0.3-1.1-0.7c-0.2-0.4-0.2-0.9-0.1-1.4c0.6-3.8,1.9-8.8-0.3-9.1c-2.2-0.3-5.4,0.9-3.6,6.3c0.4,1.3-1.3,3-2.2,0.1
				c-0.2-0.8,0.4-1.9,0.3-2.8c-0.4-4.3-1.8-8.3-2.1-12.6c-0.1-1.7-0.4-3.6-1.8-4.6c-1-0.7-2.2-0.7-3.4-0.8c-1.2-0.1-2.5-0.5-3-1.5
				c-0.7-1.2,0-2.8-0.5-4.1c-0.3-0.8-2-1.7-2.7-2.2c-0.7-0.6,0.4-3.1,0-3.9l8.2-8.1c1.9-1.9,4.9-1.9,6.8,0l13.4,13.4
				C48.5,16.7,48.5,19.7,46.6,21.6z"/>
		</g>
	</g>
</g>
</svg>
