<?xml version="1.0" encoding="utf-8"?>
<!-- Generator: Adobe Illustrator 18.0.0, SVG Export Plug-In . SVG Version: 6.00 Build 0)  -->
<!DOCTYPE svg PUBLIC "-//W3C//DTD SVG 1.1//EN" "http://www.w3.org/Graphics/SVG/1.1/DTD/svg11.dtd">
<svg version="1.1" id="Layer_1" xmlns="http://www.w3.org/2000/svg" xmlns:xlink="http://www.w3.org/1999/xlink" x="0px" y="0px"
	 viewBox="0 0 48 48" enable-background="new 0 0 48 48" xml:space="preserve">
<g>
	<g>
		<path fill="#ACB3BA" d="M31,3.4c3.7,0,6.8,2.7,7.5,6.2c0.1,0.8,0.9,1.4,1.7,1.4h0c1.1,0,1.8-1,1.6-2c-1-5.1-5.5-9-10.8-9h-3
			c-6,0-11,4.9-11,10.9c0,0.8,0.5,1.5,1.2,1.8c1.1,0.3,2.2-0.6,2.2-1.6c0-4.2,3.4-7.6,7.6-7.6H31z"/>
	</g>
	<polygon fill="#FFD15C" points="30.7,15.1 30.5,13.8 30.3,15.1 29,15.3 30.3,15.5 30.5,16.9 30.7,15.5 32,15.3 	"/>
	<path fill="#F2F2F2" d="M36.2,13.3c-1.2-0.2-2.1-1.1-2.3-2.3l0-0.1l0,0.1c-0.2,1.2-1.1,2.1-2.3,2.3l0,0c1.2,0.2,2.1,1.1,2.3,2.3
		l0,0.1l0-0.1C34.1,14.5,35,13.6,36.2,13.3l0.1,0L36.2,13.3z"/>
	<path fill="#CDD6E0" d="M37.7,16.7c-0.7-0.1-1.2-0.7-1.3-1.3l0,0l0,0.1c-0.1,0.7-0.7,1.2-1.3,1.3l0,0c0.7,0.1,1.2,0.7,1.3,1.3l0,0
		l0,0C36.4,17.4,37,16.9,37.7,16.7L37.7,16.7L37.7,16.7z"/>
	<g>
		<polygon fill="#FFD15C" points="45.9,6.7 42.7,7.6 44.2,4.6 41.7,6.8 41.7,3.5 40.5,6.6 39,3.6 39.2,6.9 36.7,4.8 38.3,7.7 35,7 
			37.8,8.9 34.5,9.6 37.8,10.1 35.2,12.2 38.4,11.3 36.9,14.3 39.4,12 39.4,15.4 40.6,12.3 42.1,15.3 41.9,12 44.5,14 42.8,11.1 
			46.1,11.9 43.3,10 46.6,9.3 43.3,8.7 		"/>
		<polygon fill="#F8B64C" points="39.3,8.5 37.4,8 39,9.1 37.1,9.5 39,9.8 37.5,11 39.3,10.5 38.5,12.2 39.9,10.9 39.9,12.8 
			40.6,11 41.4,12.8 41.3,10.9 42.8,12.1 41.8,10.4 43.7,10.8 42.1,9.7 44,9.3 42.1,9 43.6,7.8 41.8,8.4 42.6,6.7 41.2,8 41.2,6.1 
			40.5,7.8 39.7,6.1 39.8,8 38.3,6.8 		"/>
	</g>
	<rect x="13.6" y="11" fill="#40596B" width="10.3" height="4.3"/>
	<circle fill="#40596B" cx="18.7" cy="30.7" r="17.3"/>
	<g>
		<path fill="#334A5E" d="M6.5,31.8c-0.6,0-1.1-0.5-1.1-1.1c0-7.3,6-13.3,13.3-13.3c0.6,0,1.1,0.5,1.1,1.1s-0.5,1.1-1.1,1.1
			c-6.1,0-11,5-11,11C7.7,31.3,7.2,31.8,6.5,31.8z"/>
	</g>
</g>
</svg>
