<?xml version="1.0" encoding="utf-8"?>
<!-- Generator: Adobe Illustrator 16.0.0, SVG Export Plug-In . SVG Version: 6.00 Build 0)  -->
<!DOCTYPE svg PUBLIC "-//W3C//DTD SVG 1.1//EN" "http://www.w3.org/Graphics/SVG/1.1/DTD/svg11.dtd">
<svg version="1.1" id="Layer_1" xmlns="http://www.w3.org/2000/svg" xmlns:xlink="http://www.w3.org/1999/xlink" x="0px" y="0px"
	 width="48px" height="48px" viewBox="0 0 48 48" enable-background="new 0 0 48 48" xml:space="preserve">
<g>
	<rect x="3.354" y="38.789" fill="#344A5E" width="6.005" height="6.006"/>
	<rect x="20.996" y="38.789" fill="#344A5E" width="6.006" height="6.006"/>
	<rect x="38.639" y="38.789" fill="#344A5E" width="6.006" height="6.006"/>
	<rect y="35.584" fill="#415A6B" width="48" height="3.596"/>
	<rect y="44.404" fill="#415A6B" width="48" height="3.596"/>
	<path fill="#E8EAE9" d="M38.154,0H8.57c-1.656,0-3,1.343-3,3v29.584c0,1.656,1.344,3,3,3h29.584c1.656,0,3-1.344,3-3V3
		C41.154,1.343,39.811,0,38.154,0"/>
	<polygon fill="#8AD7F8" points="27.781,0.001 27.781,8.621 26.4,7.221 24.881,8.741 23.361,7.221 21.841,8.741 20.32,7.221 
		18.941,8.621 18.941,0.001 	"/>
	<path fill="#F3705A" d="M21.531,25.856c-0.117-2.896-2.308-5.212-5.013-5.212c-2.706,0-4.896,2.315-5.013,5.212H21.531z"/>
	<path fill="#F3705A" d="M15.689,30.584c-0.686,0-1.243-0.559-1.243-1.244c0-0.23,0.187-0.416,0.415-0.416s0.415,0.186,0.415,0.416
		c0,0.227,0.185,0.414,0.413,0.414s0.414-0.188,0.414-0.414v-4.678c0-0.229,0.186-0.415,0.415-0.415s0.415,0.186,0.415,0.415v4.678
		C16.934,30.025,16.375,30.584,15.689,30.584"/>
	<polygon fill="#F3705A" points="29.989,22.819 28.906,22.819 28.906,28.146 26.727,28.146 26.727,22.819 25.648,22.819 
		27.819,20.645 	"/>
	<polygon fill="#F3705A" points="35.219,22.819 34.135,22.819 34.135,28.146 31.957,28.146 31.957,22.819 30.879,22.819 
		33.049,20.645 	"/>
	<rect x="25.684" y="29.393" fill="#F3705A" width="9.5" height="1.191"/>
</g>
</svg>
