<?xml version="1.0" encoding="utf-8"?>
<!-- Generator: Adobe Illustrator 18.0.0, SVG Export Plug-In . SVG Version: 6.00 Build 0)  -->
<!DOCTYPE svg PUBLIC "-//W3C//DTD SVG 1.1//EN" "http://www.w3.org/Graphics/SVG/1.1/DTD/svg11.dtd">
<svg version="1.1" id="Layer_1" xmlns="http://www.w3.org/2000/svg" xmlns:xlink="http://www.w3.org/1999/xlink" x="0px" y="0px"
	 viewBox="0 0 48 48" enable-background="new 0 0 48 48" xml:space="preserve">
<g>
	<g>
		<g>
			<g>
				<g>
					<path fill="#344A5E" d="M10.8,32.2L9,9.2c0-0.4-0.4-0.7-0.9-0.7S7.3,8.9,7.3,9.2l-1.8,23H10.8z"/>
				</g>
			</g>
			<g>
				<g>
					<circle fill="#344A5E" cx="8.1" cy="9.5" r="2.2"/>
				</g>
				<g>
					<g>
						<path fill="#8AD7F8" d="M15.7,18c0-0.2,0.1-0.5,0.3-0.7c2.1-2.1,3.3-4.9,3.3-7.9S18.1,3.7,16,1.6c-0.4-0.4-0.4-0.9,0-1.3
							c0.4-0.4,0.9-0.4,1.3,0c2.5,2.5,3.8,5.7,3.8,9.2s-1.4,6.8-3.8,9.2c-0.4,0.4-0.9,0.4-1.3,0C15.8,18.5,15.7,18.3,15.7,18z"/>
					</g>
					<g>
						<path fill="#8AD7F8" d="M13.1,15.4c0-0.2,0.1-0.5,0.3-0.7c2.9-2.9,2.9-7.7,0-10.6c-0.4-0.4-0.4-0.9,0-1.3
							c0.4-0.4,0.9-0.4,1.3,0c3.6,3.6,3.6,9.5,0,13.2c-0.4,0.4-0.9,0.4-1.3,0C13.2,15.9,13.1,15.7,13.1,15.4z"/>
					</g>
					<g>
						<path fill="#8AD7F8" d="M10.5,12.8c0-0.2,0.1-0.5,0.3-0.7c1.5-1.5,1.5-3.9,0-5.3c-0.4-0.4-0.4-0.9,0-1.3
							c0.4-0.4,0.9-0.4,1.3,0c2.2,2.2,2.2,5.8,0,7.9c-0.4,0.4-0.9,0.4-1.3,0C10.5,13.3,10.5,13,10.5,12.8z"/>
					</g>
				</g>
			</g>
		</g>
		<g>
			<path fill="#F3F3F3" d="M45.9,31.3H2.1c-1.2,0-2.1,1-2.1,2.1v10.7c0,1.2,1,2.1,2.1,2.1h43.7c1.2,0,2.1-1,2.1-2.1V33.4
				C48,32.2,47,31.3,45.9,31.3z"/>
			<g>
				<g>
					<rect x="11.3" y="34.5" fill="#CED6E0" width="33.2" height="8.5"/>
				</g>
				<g>
					<g>
						<g>
							<g>
								<polygon fill="#415A6B" points="27.3,37.9 27.3,41.4 21.8,41.4 21.8,37.9 22.9,37.9 22.9,37 23.6,37 23.6,36.1 25.5,36.1 
									25.5,37 26.2,37 26.2,37.9 								"/>
							</g>
						</g>
						<g>
							<g>
								<polygon fill="#415A6B" points="34.3,37.9 34.3,41.4 28.9,41.4 28.9,37.9 30,37.9 30,37 30.6,37 30.6,36.1 32.6,36.1 
									32.6,37 33.2,37 33.2,37.9 								"/>
							</g>
						</g>
						<g>
							<g>
								<polygon fill="#415A6B" points="41.4,37.9 41.4,41.4 35.9,41.4 35.9,37.9 37,37.9 37,37 37.7,37 37.7,36.1 39.6,36.1 
									39.6,37 40.3,37 40.3,37.9 								"/>
							</g>
						</g>
					</g>
				</g>
				<g>
					<g>
						<polygon fill="#415A6B" points="20.2,37.9 20.2,41.4 14.7,41.4 14.7,37.9 15.8,37.9 15.8,37 16.5,37 16.5,36.1 18.4,36.1 
							18.4,37 19.1,37 19.1,37.9 						"/>
					</g>
				</g>
				<g>
					<g>
						<circle fill="#CED6E0" cx="5.5" cy="38.7" r="2"/>
					</g>
					<circle fill="#F3705A" cx="5.5" cy="38.7" r="1.2"/>
				</g>
			</g>
			<g>
				<g>
					<rect x="5.2" y="46.2" fill="#CED6E0" width="4.7" height="1.8"/>
				</g>
				<g>
					<rect x="38.1" y="46.2" fill="#CED6E0" width="4.7" height="1.8"/>
				</g>
			</g>
		</g>
	</g>
</g>
</svg>
