<?xml version="1.0" encoding="utf-8"?>
<!-- Generator: Adobe Illustrator 20.1.0, SVG Export Plug-In . SVG Version: 6.00 Build 0)  -->
<!DOCTYPE svg PUBLIC "-//W3C//DTD SVG 1.1//EN" "http://www.w3.org/Graphics/SVG/1.1/DTD/svg11.dtd">
<svg version="1.1" id="Layer_1" xmlns="http://www.w3.org/2000/svg" xmlns:xlink="http://www.w3.org/1999/xlink" x="0px" y="0px"
	 viewBox="0 0 49 49" enable-background="new 0 0 49 49" xml:space="preserve">
<g>
	<path fill="#FFD15C" d="M40.3,48.5H0.5V8.7C10.7,9.6,20.2,14,27.6,21.4C35,28.8,39.4,38.3,40.3,48.5z"/>
	<path fill="#FF7058" d="M34.4,14.6C25.8,5.9,13.8,0.5,0.5,0.5v8.2C10.7,9.6,20.3,14,27.6,21.4c7.4,7.4,11.8,16.9,12.7,27.1h8.2
		C48.5,35.2,43.1,23.2,34.4,14.6z"/>
	<circle fill="#F8B64C" cx="10.5" cy="39.6" r="2.2"/>
	<path fill="#F8B64C" d="M40.3,48.5h-1.5c-0.9-9.9-5.2-18.9-12.3-26c-7.1-7.1-16.1-11.3-26-12.3V8.7C10.7,9.6,20.2,14,27.6,21.4
		C35,28.8,39.4,38.3,40.3,48.5z"/>
	<path fill="#F2F2F2" d="M7.5,32.3c0-1.3-1.1-2.4-2.4-2.4c-1.3,0-2.4,1.1-2.4,2.4c0,0.5,0.6,0.8,1.3,0.9v2.3h2v-2.3
		C6.9,33,7.5,32.7,7.5,32.3z"/>
	<path fill="#F2F2F2" d="M30.3,37.6c1-0.8,1.2-2.3,0.3-3.3c-0.8-1-2.3-1.2-3.3-0.3c-0.4,0.3-0.2,0.9,0.2,1.6L25.7,37l1.3,1.6
		l1.8-1.5C29.3,37.6,29.9,37.9,30.3,37.6z"/>
	<path fill="#FF7058" d="M16,16.9c-1.2,0-2.2,1-2.2,2.2c0,1.2,1,2.2,2.2,2.2c1.2,0,2.2-1,2.2-2.2C18.3,17.9,17.3,16.9,16,16.9z
		 M16,20.5c-0.8,0-1.4-0.6-1.4-1.4c0-0.8,0.6-1.4,1.4-1.4s1.4,0.6,1.4,1.4C17.4,19.9,16.8,20.5,16,20.5z"/>
	<path fill="#FF7058" d="M16,39.6c-1.2,0-2.2,1-2.2,2.2c0,1.2,1,2.2,2.2,2.2c1.2,0,2.2-1,2.2-2.2C18.3,40.6,17.3,39.6,16,39.6z
		 M16,43.2c-0.8,0-1.4-0.6-1.4-1.4c0-0.8,0.6-1.4,1.4-1.4s1.4,0.6,1.4,1.4C17.4,42.6,16.8,43.2,16,43.2z"/>
	<path fill="#FF7058" d="M25.6,26.5c-1.2,0-2.2,1-2.2,2.2c0,1.2,1,2.2,2.2,2.2c1.2,0,2.2-1,2.2-2.2C27.8,27.5,26.8,26.5,25.6,26.5z
		 M25.6,30c-0.8,0-1.4-0.6-1.4-1.4c0-0.8,0.6-1.4,1.4-1.4c0.8,0,1.4,0.6,1.4,1.4C27,29.4,26.4,30,25.6,30z"/>
	<circle fill="#F8B64C" cx="9.2" cy="25.3" r="2.6"/>
	<circle fill="#F8B64C" cx="28.4" cy="44.1" r="2.6"/>
	<g>
		<path fill="#F8B64C" d="M9.1,18.8c-0.1,0.4-0.5,0.6-0.9,0.5C6.8,19,5.4,19.8,5,21.1c-0.1,0.4-0.5,0.6-0.9,0.5
			c-0.4-0.1-0.6-0.5-0.5-0.9c0.6-2.2,2.9-3.4,5.1-2.8C9,18,9.2,18.4,9.1,18.8z"/>
	</g>
	<g>
		<path fill="#F8B64C" d="M20.3,34c-0.4-0.1-0.7-0.5-0.6-0.9c0.2-1.4-0.7-2.7-2.1-3c-0.4-0.1-0.7-0.4-0.6-0.9
			c0.1-0.4,0.4-0.7,0.9-0.6c2.2,0.4,3.7,2.5,3.4,4.7C21,33.8,20.7,34.1,20.3,34z"/>
	</g>
	<g>
		<path fill="#F8B64C" d="M8,46.3c-0.3,0.3-0.8,0.2-1.1-0.1C6,45.1,4.4,45,3.3,45.9c-0.3,0.3-0.8,0.2-1.1-0.1C2,45.5,2,45,2.3,44.8
			c1.7-1.5,4.3-1.2,5.8,0.5C8.3,45.6,8.3,46,8,46.3z"/>
	</g>
</g>
</svg>
