<?xml version="1.0" encoding="utf-8"?>
<!-- Generator: Adobe Illustrator 18.0.0, SVG Export Plug-In . SVG Version: 6.00 Build 0)  -->
<!DOCTYPE svg PUBLIC "-//W3C//DTD SVG 1.1//EN" "http://www.w3.org/Graphics/SVG/1.1/DTD/svg11.dtd">
<svg version="1.1" id="Layer_1" xmlns="http://www.w3.org/2000/svg" xmlns:xlink="http://www.w3.org/1999/xlink" x="0px" y="0px"
	 viewBox="0 0 48 48" enable-background="new 0 0 48 48" xml:space="preserve">
<g>
	<g>
		<rect x="34.5" y="37.4" fill="#FF7058" width="3.4" height="9.8"/>
		<rect x="32.8" y="33.7" fill="#ACB3BA" width="6.9" height="3.7"/>
		<rect x="32.8" y="23.9" fill="#ACB3BA" width="6.9" height="9.7"/>
		<circle fill="#CDD6E0" cx="36.2" cy="12.6" r="11.8"/>
		<path fill="#F2F2F2" d="M36.2,21.4c-4.9,0-8.8-4-8.8-8.8s4-8.8,8.8-8.8c4.9,0,8.8,4,8.8,8.8S41.1,21.4,36.2,21.4z"/>
		<path fill="#CDD6E0" d="M36.2,15.9c-1.8,0-3.3-1.5-3.3-3.3s1.5-3.3,3.3-3.3c1.8,0,3.3,1.5,3.3,3.3S38.1,15.9,36.2,15.9z"/>
		<rect x="35" y="27.6" fill="#CDD6E0" width="2.5" height="2.5"/>
	</g>
	<g>
		<rect x="10.1" y="37.4" fill="#FF7058" width="3.4" height="9.8"/>
		<rect x="8.3" y="33.7" fill="#ACB3BA" width="6.9" height="3.7"/>
		<rect x="8.3" y="23.9" fill="#ACB3BA" width="6.9" height="9.7"/>
		<circle fill="#CDD6E0" cx="11.8" cy="12.6" r="11.8"/>
		<path fill="#F2F2F2" d="M11.8,21.4c-4.9,0-8.8-4-8.8-8.8s4-8.8,8.8-8.8c4.9,0,8.8,4,8.8,8.8S16.6,21.4,11.8,21.4z"/>
		<path fill="#CDD6E0" d="M11.8,15.9c-1.8,0-3.3-1.5-3.3-3.3s1.5-3.3,3.3-3.3s3.3,1.5,3.3,3.3S13.6,15.9,11.8,15.9z"/>
		<rect x="10.6" y="27.6" fill="#CDD6E0" width="2.5" height="2.5"/>
	</g>
</g>
</svg>
