<?xml version="1.0" encoding="utf-8"?>
<!-- Generator: Adobe Illustrator 20.1.0, SVG Export Plug-In . SVG Version: 6.00 Build 0)  -->
<!DOCTYPE svg PUBLIC "-//W3C//DTD SVG 1.1//EN" "http://www.w3.org/Graphics/SVG/1.1/DTD/svg11.dtd">
<svg version="1.1" id="Layer_1" xmlns="http://www.w3.org/2000/svg" xmlns:xlink="http://www.w3.org/1999/xlink" x="0px" y="0px"
	 viewBox="0 0 49 49" enable-background="new 0 0 49 49" xml:space="preserve">
<g>
	<path fill="#40596B" d="M46.9,4.5H2.5c-1.1,0-2,0.9-2,2v30.8h48V6.1C48.5,5.2,47.8,4.5,46.9,4.5z"/>
	<path fill="#F2F2F2" d="M0.5,37.3v3.8c0,1.1,0.9,2,2,2h44c1.1,0,2-0.9,2-2v-3.8H0.5z"/>
	<circle fill="#CDD6E0" cx="24.5" cy="40.2" r="1.1"/>
	<rect x="15.3" y="43.1" fill="#CDD6E0" width="18.4" height="3.8"/>
	<rect x="11.4" y="46.9" fill="#F2F2F2" width="26.1" height="1.6"/>
	<rect x="15.3" y="43.1" fill="#ACB3BA" width="18.4" height="1.5"/>
	<rect x="3.7" y="7.4" fill="#84DBFF" width="41.6" height="27"/>
	<polygon fill="#334A5E" points="32.1,7.4 32.1,4.5 32.1,4.5 33.6,4.5 33.6,7.4 33.6,7.4 	"/>
	<polygon fill="#334A5E" points="15.4,7.4 15.4,4.5 15.4,4.5 16.9,4.5 16.9,7.4 16.9,7.4 	"/>
	<path fill="#40596B" d="M30.9,0.5H18.1c-0.7,0-1.2,0.5-1.2,1.2v22.8c0,0.7,0.5,1.2,1.2,1.2h12.8c0.7,0,1.2-0.5,1.2-1.2V1.7
		C32.1,1,31.6,0.5,30.9,0.5z"/>
	
		<rect x="14.9" y="6.2" transform="matrix(-1.836970e-16 1 -1 -1.836970e-16 37.0081 -11.9919)" fill="#FFFFFF" width="19.3" height="12.6"/>
	<circle fill="#ACB3BA" cx="24.5" cy="23.9" r="1"/>
	<path fill="#ACB3BA" d="M26.2,1.4h-3.4c-0.2,0-0.3,0.1-0.3,0.3v0c0,0.2,0.1,0.3,0.3,0.3h3.4c0.2,0,0.3-0.1,0.3-0.3v0
		C26.5,1.5,26.4,1.4,26.2,1.4z"/>
	<rect x="19.2" y="4.4" fill="#FFD15C" width="5" height="5"/>
	<rect x="24.8" y="4.4" fill="#FFD15C" width="5" height="5"/>
	<rect x="19.2" y="10" fill="#FF7058" width="10.6" height="4.2"/>
	<rect x="19.2" y="15.2" fill="#CDD6E0" width="10.6" height="2.3"/>
	<rect x="19.2" y="18.8" fill="#CDD6E0" width="10.6" height="2.3"/>
</g>
</svg>
