<?xml version="1.0" encoding="utf-8"?>
<!-- Generator: Adobe Illustrator 18.0.0, SVG Export Plug-In . SVG Version: 6.00 Build 0)  -->
<!DOCTYPE svg PUBLIC "-//W3C//DTD SVG 1.1//EN" "http://www.w3.org/Graphics/SVG/1.1/DTD/svg11.dtd">
<svg version="1.1" id="Layer_1" xmlns="http://www.w3.org/2000/svg" xmlns:xlink="http://www.w3.org/1999/xlink" x="0px" y="0px"
	 viewBox="0 0 48 48" enable-background="new 0 0 48 48" xml:space="preserve">
<g>
	<g>
		<path fill="#F2F2F2" d="M41,28.2L29.1,40.1L8.9,19.9c-0.8-0.8-0.8-2,0-2.8L18,8c0.8-0.8,2-0.8,2.8,0L41,28.2z"/>
		<path fill="#84DBFF" d="M27.1,16l-6.7-6.7c-0.5-0.5-1.3-0.5-1.8,0l-8.2,8.2c-0.5,0.5-0.5,1.3,0,1.8l12.2,12.2L27.1,16z"/>
		
			<rect x="34.2" y="32.6" transform="matrix(0.7071 -0.7071 0.7071 0.7071 -15.42 38.5586)" fill="#CDD6E0" width="9.3" height="10.6"/>
		<path fill="#40596B" d="M15.6,9.1c-0.4-0.4-1-0.4-1.4,0L10,13.2c-0.4,0.4-0.4,1,0,1.4l0.6,0.6l5.5-5.5L15.6,9.1z"/>
		<polygon fill="#F2F2F2" points="1.9,1 11.1,12.2 13.1,10.2 		"/>
		<path fill="#40596B" d="M42.3,26.9L42.3,26.9c-0.5-0.5-1.2-0.5-1.6-0.1l-13,13c-0.4,0.4-0.4,1.1,0,1.5l0.1,0.1
			c0.4,0.4,1.1,0.4,1.5,0l13-13C42.8,28,42.8,27.4,42.3,26.9z"/>
		<path fill="#40596B" d="M47.7,36.7L47.7,36.7c-0.5-0.5-1.2-0.5-1.6-0.1l-8.6,8.6c-0.4,0.4-0.4,1.1,0,1.5l0.1,0.1
			c0.4,0.4,1.1,0.4,1.5,0l8.6-8.6C48.1,37.7,48.1,37.1,47.7,36.7z"/>
	</g>
	<path fill="#84DBFF" d="M6.6,11.1c0,1.8-1.5,3.3-3.3,3.3c-1.8,0-3.3-1.5-3.3-3.3s3.3-6.8,3.3-6.8S6.6,9.3,6.6,11.1z"/>
</g>
</svg>
