<?xml version="1.0" encoding="utf-8"?>
<!-- Generator: Adobe Illustrator 18.0.0, SVG Export Plug-In . SVG Version: 6.00 Build 0)  -->
<!DOCTYPE svg PUBLIC "-//W3C//DTD SVG 1.1//EN" "http://www.w3.org/Graphics/SVG/1.1/DTD/svg11.dtd">
<svg version="1.1" id="Layer_1" xmlns="http://www.w3.org/2000/svg" xmlns:xlink="http://www.w3.org/1999/xlink" x="0px" y="0px"
	 viewBox="0 0 48 48" enable-background="new 0 0 48 48" xml:space="preserve">
<g>
	<g>
		<g>
			<g>
				<g>
					<path fill="#415A6B" d="M5.6,48H3.5c-0.6,0-1-0.4-1-1v-2.3h4.1V47C6.6,47.6,6.1,48,5.6,48z"/>
				</g>
			</g>
			<g>
				<g>
					<path fill="#415A6B" d="M22.4,48h-2.1c-0.6,0-1-0.4-1-1v-2.3h4.1V47C23.4,47.6,23,48,22.4,48z"/>
				</g>
			</g>
		</g>
		<g>
			<g>
				<path fill="#E8EAE9" d="M36.5,41.4h2.7V11.9C39.3,5.3,33.9,0,27.3,0c-6.6,0-11.9,5.3-11.9,11.9v1.7h2.7v-1.7
					c0-5.1,4.1-9.2,9.2-9.2c5.1,0,9.2,4.1,9.2,9.2V41.4z"/>
			</g>
		</g>
		<g>
			<g>
				<g>
					<rect x="14.1" y="12.5" fill="#F05540" width="5.5" height="5.3"/>
				</g>
			</g>
			<g>
				<g>
					<path fill="#F3705A" d="M13,15.2L13,15.2c-5.7,0-10.4,4.3-11,9.9L0,42c-0.2,1.5,0.8,2.9,2.4,3.3c7.1,1.5,14.1,1.5,21.2,0
						c1.5-0.3,2.5-1.7,2.4-3.3l-1.9-17C23.4,19.5,18.6,15.2,13,15.2z"/>
				</g>
			</g>
			<g>
				<path fill="#F05540" d="M21,42.2l-0.3-5.9c-0.2-4.1-3.6-7.4-7.8-7.4s-7.6,3.2-7.8,7.4l-0.3,5.9H21z"/>
			</g>
			<g>
				<circle fill="#FFD15C" cx="13" cy="22.9" r="2.5"/>
			</g>
		</g>
		<g>
			<g>
				<polygon fill="#415A6B" points="46.7,43.4 29.1,43.4 27.8,48 48,48 				"/>
			</g>
			<g>
				<rect x="34.7" y="40.9" fill="#ADB3BA" width="6.3" height="2.5"/>
			</g>
		</g>
	</g>
</g>
</svg>
