<?xml version="1.0" encoding="utf-8"?>
<!-- Generator: Adobe Illustrator 16.0.0, SVG Export Plug-In . SVG Version: 6.00 Build 0)  -->
<!DOCTYPE svg PUBLIC "-//W3C//DTD SVG 1.1//EN" "http://www.w3.org/Graphics/SVG/1.1/DTD/svg11.dtd">
<svg version="1.1" id="Layer_1" xmlns="http://www.w3.org/2000/svg" xmlns:xlink="http://www.w3.org/1999/xlink" x="0px" y="0px"
	 width="48px" height="48px" viewBox="0 0 48 48" enable-background="new 0 0 48 48" xml:space="preserve">
<g>
	<path fill="#CED6E0" d="M43.869,11.375l-6.646-6.647c-1.031-1.03-2.701-1.03-3.73,0l-6.648,6.647H43.869z"/>
	<path fill="#FFD15C" d="M48,13.565V29.17H18.238V11.126h-7.188v-1.59c0-1.347,1.094-2.439,2.441-2.439h7.098
		c0.742,0,1.445,0.338,1.908,0.919l2.48,3.11h20.582C46.908,11.126,48,12.218,48,13.565"/>
	<path fill="#F7B64C" d="M39.152,16.435v6.815c0,1.223,0.99,2.212,2.211,2.212c1.223,0,2.213-0.989,2.213-2.212v-6.815
		c0-1.223-0.99-2.212-2.213-2.212C40.143,14.223,39.152,15.212,39.152,16.435"/>
	<path fill="#F7B64C" d="M30.305,16.435v6.815c0,1.223,0.99,2.212,2.211,2.212c1.223,0,2.213-0.989,2.213-2.212v-6.815
		c0-1.223-0.99-2.212-2.213-2.212C31.295,14.223,30.305,15.212,30.305,16.435"/>
	<path fill="#F7B64C" d="M21.457,16.435v6.815c0,1.223,0.988,2.212,2.211,2.212s2.213-0.989,2.213-2.212v-6.815
		c0-1.223-0.99-2.212-2.213-2.212S21.457,15.212,21.457,16.435"/>
	<path fill="#F3705A" d="M48,34.719v-5.543H18.238V15.185c0-1.347-1.092-2.44-2.441-2.44H6.336c-0.891,0-1.711,0.485-2.139,1.267
		l-3.895,7.094C0.105,21.465,0,21.867,0,22.278v12.44c0,1.348,1.094,2.439,2.441,2.439h43.119C46.908,37.158,48,36.066,48,34.719"/>
	<polygon fill="#FFFFFF" points="12.711,16.101 6.877,16.101 3.355,22.514 3.355,27.523 12.711,27.523 	"/>
	<path fill="#F7B64C" d="M48,34.719v-5.543H18.238v7.982h27.322C46.908,37.158,48,36.066,48,34.719"/>
	<path fill="#415A6B" d="M16.508,37.159c0,3.804-3.084,6.887-6.887,6.887c-3.805,0-6.887-3.083-6.887-6.887
		c0-3.805,3.082-6.888,6.887-6.888C13.424,30.271,16.508,33.354,16.508,37.159"/>
	<path fill="#ADB3BA" d="M12.744,37.159c0,1.725-1.398,3.123-3.123,3.123s-3.123-1.398-3.123-3.123c0-1.726,1.398-3.123,3.123-3.123
		S12.744,35.434,12.744,37.159"/>
	<path fill="#415A6B" d="M43.299,37.159c0,3.804-3.082,6.887-6.887,6.887c-3.803,0-6.887-3.083-6.887-6.887
		c0-3.805,3.084-6.888,6.887-6.888C40.217,30.271,43.299,33.354,43.299,37.159"/>
	<path fill="#ADB3BA" d="M39.535,37.159c0,1.725-1.398,3.123-3.123,3.123s-3.123-1.398-3.123-3.123c0-1.726,1.398-3.123,3.123-3.123
		S39.535,35.434,39.535,37.159"/>
</g>
</svg>
