<?xml version="1.0" encoding="utf-8"?>
<!-- Generator: Adobe Illustrator 18.0.0, SVG Export Plug-In . SVG Version: 6.00 Build 0)  -->
<!DOCTYPE svg PUBLIC "-//W3C//DTD SVG 1.1//EN" "http://www.w3.org/Graphics/SVG/1.1/DTD/svg11.dtd">
<svg version="1.1" id="Layer_1" xmlns="http://www.w3.org/2000/svg" xmlns:xlink="http://www.w3.org/1999/xlink" x="0px" y="0px"
	 viewBox="0 0 48 48" enable-background="new 0 0 48 48" xml:space="preserve">
<g>
	<g>
		<path fill="#F3F3F3" d="M38.5,48H12L0,36V3c0-1.7,1.3-3,3-3h35.5c1.7,0,3,1.3,3,3v42C41.5,46.7,40.1,48,38.5,48z"/>
		<rect x="5" y="24.3" fill="#CED6E0" width="31.5" height="2.6"/>
		<rect x="5" y="31.1" fill="#CED6E0" width="12.9" height="2.6"/>
		<polygon fill="#CED6E0" points="12,48 0,36 12,36 		"/>
		<g>
			<g>
				<path fill="#8AD7F8" d="M28,20.2c-0.1-3.9-3.4-7-7.3-7c-3.9,0-7.2,3.1-7.3,7H28z"/>
			</g>
			<circle fill="#8AD7F8" cx="20.7" cy="8.4" r="3.4"/>
		</g>
		<g>
			<g>
				<g>
					<path fill="#FFD15C" d="M24.5,25.1l-4.9,7.4l8.8,1C34.2,30.7,30.3,22.3,24.5,25.1z"/>
				</g>
				<path fill="#415A6B" d="M47.9,22.7L45.2,17c-0.4-0.8-1.2-1.1-2-0.7l-3.9,1.8l3.9,8.4l3.9-1.8C47.9,24.3,48.2,23.4,47.9,22.7z"/>
				<g>
					
						<rect x="39.7" y="18" transform="matrix(0.9059 -0.4234 0.4234 0.9059 -5.7823 19.2946)" fill="#E8EAE9" width="1.6" height="9.2"/>
				</g>
				<g>
					<path fill="#415A6B" d="M21.3,29.9l-1.7,2.6l3,0.3C22.7,31.7,22.2,30.5,21.3,29.9z"/>
				</g>
			</g>
			<path fill="#F3705A" d="M28.4,33.4c1.2-1.7,0.7-2.6-1.3-2.8c1.2-1.7,0.7-2.6-1.3-2.8c1.2-1.7,0.7-2.6-1.3-2.8l13.4-6.3l3.9,8.4
				L28.4,33.4z"/>
		</g>
	</g>
</g>
</svg>
