<?xml version="1.0" encoding="utf-8"?>
<!-- Generator: Adobe Illustrator 18.0.0, SVG Export Plug-In . SVG Version: 6.00 Build 0)  -->
<!DOCTYPE svg PUBLIC "-//W3C//DTD SVG 1.1//EN" "http://www.w3.org/Graphics/SVG/1.1/DTD/svg11.dtd">
<svg version="1.1" id="Layer_1" xmlns="http://www.w3.org/2000/svg" xmlns:xlink="http://www.w3.org/1999/xlink" x="0px" y="0px"
	 viewBox="0 0 48 48" enable-background="new 0 0 48 48" xml:space="preserve">
<g>
	<path fill="#F2F2F2" d="M37.6,12.7H10.4c-4.6,0-8.4,3.8-8.4,8.4v5.7c0,4.6,3.8,8.4,8.4,8.4c2.2,0,4.4-0.9,6-2.5l1.7-1.7
		c3.3-3.3,8.6-3.3,11.9,0l1.7,1.7c1.6,1.6,3.7,2.5,6,2.5c4.6,0,8.4-3.8,8.4-8.4v-5.7C46,16.5,42.3,12.7,37.6,12.7z"/>
	<path fill="#54C0EB" d="M37.6,33.1c-1.7,0-3.3-0.7-4.4-1.8l-1.7-1.7c-2-2-4.6-3.1-7.5-3.1s-5.5,1.1-7.5,3.1l-1.7,1.7
		c-1.2,1.2-2.8,1.8-4.4,1.8c-3.5,0-6.3-2.8-6.3-6.3v-5.7c0-3.5,2.8-6.3,6.3-6.3h27.2c3.5,0,6.3,2.8,6.3,6.3v5.7
		C43.9,30.3,41.1,33.1,37.6,33.1z"/>
	<path fill="#40596B" d="M1,26.9h1v-5.7H1c-0.6,0-1,0.4-1,1v3.7C0,26.4,0.4,26.9,1,26.9z"/>
	<path fill="#40596B" d="M47,21.1h-1v5.7h1c0.6,0,1-0.4,1-1v-3.7C48,21.6,47.6,21.1,47,21.1z"/>
	<g>
		<path fill="#84DBFF" d="M17.8,14.9L5,30.1c-0.3-0.5-0.5-1-0.6-1.5l11.5-13.7H17.8z"/>
		<path fill="#84DBFF" d="M22,14.9L7.4,32.4c-0.7-0.4-1.3-0.9-1.8-1.5l13.5-16H22z"/>
	</g>
</g>
</svg>
