<?xml version="1.0" encoding="utf-8"?>
<!-- Generator: Adobe Illustrator 18.0.0, SVG Export Plug-In . SVG Version: 6.00 Build 0)  -->
<!DOCTYPE svg PUBLIC "-//W3C//DTD SVG 1.1//EN" "http://www.w3.org/Graphics/SVG/1.1/DTD/svg11.dtd">
<svg version="1.1" id="Layer_1" xmlns="http://www.w3.org/2000/svg" xmlns:xlink="http://www.w3.org/1999/xlink" x="0px" y="0px"
	 viewBox="0 0 48 48" enable-background="new 0 0 48 48" xml:space="preserve">
<g>
	<g>
		<g>
			<g>
				<path fill="#F3F3F3" d="M40.7,48H7.3c-1.7,0-3-1.3-3-3V11.3L15.6,0h25.1c1.7,0,3,1.3,3,3v42C43.7,46.7,42.4,48,40.7,48z"/>
			</g>
			<g>
				<rect x="9.3" y="40.4" fill="#CED6E0" width="29.4" height="2.3"/>
				<rect x="9.3" y="34.3" fill="#CED6E0" width="29.4" height="2.3"/>
			</g>
			<g>
				<polygon fill="#55C0EB" points="15.6,11.3 4.3,11.3 15.6,0 				"/>
			</g>
			<g>
				<path fill="#F3705A" d="M28,21.2c0,0-10-4-10-11.4c0-2.8,2.3-5.1,5.1-5.1c2.3,0,4.3,1.6,4.9,3.7c0.6-2.2,2.6-3.7,4.9-3.7
					c2.8,0,5.1,2.3,5.1,5.1C38.1,17.2,28,21.2,28,21.2z"/>
			</g>
			<g>
				<path fill="#FFD15C" d="M9.1,29.6V24h1.3v4.5h2.4v1.1H9.1z"/>
				<path fill="#FFD15C" d="M17.7,24v1.1h-2.8v1.2h2.5v1.1h-2.5v1.2h2.9v1.1h-4.1V24H17.7z"/>
				<path fill="#FFD15C" d="M21.3,25.1v4.5h-1.3v-4.5h-1.6V24h4.4v1.1H21.3z"/>
				<path fill="#FFD15C" d="M26.2,25.1v4.5H25v-4.5h-1.6V24h4.4v1.1H26.2z"/>
				<path fill="#FFD15C" d="M32.8,24v1.1H30v1.2h2.5v1.1H30v1.2h2.9v1.1h-4.1V24H32.8z"/>
				<path fill="#FFD15C" d="M38.5,25.9c0,0.9-0.4,1.5-1.1,1.7l1.4,2h-1.5l-1.2-1.8h-0.9v1.8H34V24h2.1c0.9,0,1.5,0.1,1.9,0.4
					C38.3,24.7,38.5,25.2,38.5,25.9z M37,26.5c0.2-0.1,0.2-0.4,0.2-0.7c0-0.3-0.1-0.5-0.2-0.6c-0.2-0.1-0.4-0.2-0.8-0.2h-0.9v1.7
					h0.9C36.6,26.7,36.9,26.7,37,26.5z"/>
			</g>
		</g>
		<g>
			<path fill="#FFFFFF" d="M35.4,7.7c0.7,0.9,1,1.9,0.6,2.2c-0.4,0.4-1.3-0.1-2-0.9c-0.7-0.9-1-1.9-0.6-2.2
				C33.7,6.4,34.7,6.8,35.4,7.7z"/>
		</g>
	</g>
</g>
</svg>
