<?xml version="1.0" encoding="utf-8"?>
<!-- Generator: Adobe Illustrator 19.0.1, SVG Export Plug-In . SVG Version: 6.00 Build 0)  -->
<svg version="1.1" id="Layer_1" xmlns="http://www.w3.org/2000/svg" xmlns:xlink="http://www.w3.org/1999/xlink" x="0px" y="0px"
	 viewBox="0 0 48 48" style="enable-background:new 0 0 48 48;" xml:space="preserve">
<style type="text/css">
	.st0{fill:#66C6B9;}
	.st1{fill:#F3F3F3;}
	.st2{fill:#415A6B;}
	.st3{fill:#CED6E0;}
	.st4{fill:#F3705A;}
	.st5{fill:#E8EAE9;}
	.st6{fill:#4ABAA5;}
	.st7{fill:#F05540;}
	.st8{fill:#FFD15C;}
	.st9{fill:#55C0EB;}
	.st10{fill:#8AD7F8;}
	.st11{fill:#344A5E;}
	.st12{fill:#FFFFFF;}
	.st13{fill:#F7B64C;}
	.st14{fill:#ADB3BA;}
	.st15{fill:#38A892;}
	.st16{fill:#ED9845;}
	.st17{fill:#2D4251;}
	.st18{fill:#304556;}
	.st19{fill:#A5AAAD;}
	.st20{fill:#2D4456;}
	.st21{fill:#4FB0E0;}
	.st22{fill:#2D4354;}
	.st23{fill:#E54C38;}
	.st24{fill:#2B4456;}
	.st25{fill:#2B404F;}
</style>
<g>
	<g>
		<path class="st5" d="M34,18l0.7,0.3c0,0,0.5,0.5,0.7,1.2c0.2,0.7,1.5,4.6,1.8,5.5c0.3,0.9,1.5,5.7,1.8,6.4
			c0.3,0.6,0.4,1.6,0.2,2.4s-0.5,2.8-0.7,3.8c-0.2,1-1,4.7-1.1,5.5c-0.1,0.7-0.7,3-0.7,3s-1-1.8-2.8-2.3l0.7-2.3
			c0,0-0.8-3.6-0.8-4.3s0.3-0.8,0.4-1.5s0.1-1.1,0.1-1.5c-0.1-0.4-0.3-0.4-0.3-0.9c0-0.5-2.2-3.6-2.2-3.6L34,18z"/>
	</g>
	<g>
		<path class="st2" d="M17.2,41.7c0,0-1.1,3.6-0.8,6.3h19.5c0,0,0.8-1.7,0.1-3.2s-1.5-2.2-1.7-2.8c-0.1-0.6-0.2-1.9-0.2-1.9
			L17.2,41.7z"/>
	</g>
	<g>
		<path class="st8" d="M27.5,9.6c0,0,0.1,1-0.5,2.2v5.9h-6.1l-0.2-4.3v-2.2c0,0-1-2.6-1-4.8s0.4-5.5,4.1-5.6
			c3.8-0.1,3.7,4.8,3.7,5.9S27.5,9.6,27.5,9.6z"/>
	</g>
	<g>
		<g>
			<ellipse transform="matrix(0.9889 0.1489 -0.1489 0.9889 1.5285 -4.0359)" class="st8" cx="27.7" cy="8.2" rx="0.7" ry="1.4"/>
		</g>
		<g>
			
				<ellipse transform="matrix(-0.9889 0.1489 -0.1489 -0.9889 40.6097 13.3393)" class="st8" cx="19.8" cy="8.2" rx="0.7" ry="1.4"/>
		</g>
	</g>
	<g>
		<path class="st3" d="M11.7,20.9c0,0,1-1.7,2.7-2.4c1.6-0.7,2.2-1.4,3.3-2c1.1-0.6,2.3-1.3,2.3-1.3s4.5,1.2,4.5,1.2
			c0,0,0.8,0,0.8,0l2-1.7c0,0,0.7,0.2,2.8,1c2.2,0.8,3.3,1.2,3.8,1.6s0.8,0.9,0.8,0.9s-1.1,3.5-1.4,7.4c0,0-0.4,3.9,0.3,8.4
			s1.1,6.6,1.1,6.6s-3.1,1.6-5.4,1.8c-2.3,0.2-2.8,0.2-5.8,0.5s-6.5-0.5-7.3-1c-0.8-0.5-2.1-5.2-2.1-5.2s1.9-4.2,1.5-7.4
			S11.7,20.9,11.7,20.9z"/>
	</g>
	<g>
		<path class="st2" d="M24.5,16.5H25l1.8-0.1c-0.6,0.9-1.2,1.7-1.3,2.4c-0.4-0.2-0.8-0.1-1.2,0.2c-0.2-0.5-0.7-1.1-1.4-1.5
			L24.5,16.5z"/>
	</g>
	<g>
		<path class="st2" d="M25.5,18.7c0,0,0.2,1.8,1.1,5.5c0.9,3.7,0.9,15.6,0.9,15.6l-2.2,1.8l-1.7-2c0,0,0.8-13.5,0.5-16
			c-0.3-2.4,0.2-4.8,0.2-4.8l0.2-0.9L25.5,18.7z"/>
	</g>
	<g>
		<path class="st0" d="M33.7,31.8l-10.4,9.8c-0.3,0.2-0.7,0.2-0.9,0l-7.6-8c-0.2-0.3-0.2-0.7,0-0.9l10.4-9.8c0.3-0.2,0.7-0.2,0.9,0
			l7.6,8C33.9,31.2,33.9,31.6,33.7,31.8z"/>
		<g>
			
				<rect x="17.6" y="27.3" transform="matrix(0.7257 -0.688 0.688 0.7257 -15.6833 25.5002)" class="st12" width="13.2" height="10.3"/>
		</g>
		<g>
			<g>
				
					<rect x="17.4" y="32.3" transform="matrix(0.7257 -0.688 0.688 0.7257 -17.3851 21.8136)" class="st9" width="2.6" height="0.9"/>
			</g>
			<g>
				
					<rect x="18.5" y="33.2" transform="matrix(0.7257 -0.688 0.688 0.7257 -17.5921 23.2144)" class="st2" width="3.7" height="0.9"/>
			</g>
			<g>
				
					<rect x="19.9" y="35.1" transform="matrix(0.7257 -0.688 0.688 0.7257 -18.6691 24.167)" class="st8" width="2.1" height="0.9"/>
			</g>
			<g>
				
					<rect x="20.9" y="35.9" transform="matrix(0.7257 -0.688 0.688 0.7257 -18.8367 25.4935)" class="st0" width="3.2" height="0.9"/>
			</g>
			<g>
				
					<rect x="23.7" y="35.2" transform="matrix(0.688 0.7257 -0.7257 0.688 34.6119 -5.8917)" class="st4" width="0.9" height="4.3"/>
			</g>
		</g>
		<g>
			<path class="st2" d="M28.2,30.4c0-0.7-0.3-1.4-0.7-1.9l-1.9,1.8L28.2,30.4z"/>
			<path class="st4" d="M25.7,27.8c-1.4,0-2.6,1.1-2.7,2.5c0,1.4,1.1,2.6,2.5,2.7l0.1-2.6L25.7,27.8z"/>
			<path class="st9" d="M28.7,31.2l-2.6-0.1l-0.1,2.6C27.5,33.8,28.7,32.6,28.7,31.2z"/>
			<path class="st8" d="M27.5,28.6c-0.5-0.5-1.1-0.8-1.8-0.8l-0.1,2.6L27.5,28.6z"/>
		</g>
	</g>
	<g>
		<path class="st2" d="M20.1,8.7h0.3c-0.1-0.5-0.2-1.3-0.1-1.8c0.1-0.7,0.2-1.1,0-1.9c-0.2-0.8-0.1-2.2,1-2.3s3.9,0.1,4.6,0
			s1.1,1.2,1,1.8c-0.2,0.7,0.3,1.8,0.4,2.3c0,0.4,0,1.2,0,1.8h0.4c0-0.5,0-1.4,0.1-1.9C28.1,6,29.7,1.7,27.3,2c0,0-0.4-2.4-4.9-1.9
			c-4.5,0.5-3.4,6.5-3.1,7C19.5,7.6,20,7.9,20.1,8.7z"/>
	</g>
	<path class="st13" d="M23.9,13.5c-1.5,0-3.2-2.3-3.2-2.3v2.2l0.1,1.8c5.6-0.7,6.2-3.4,6.2-3.4C26.6,12.6,25.3,13.5,23.9,13.5z"/>
	<g>
		<path class="st1" d="M27,13.5c0,0,0,1.6-2,2.9c0,0,2,1,2.8,2c0,0,0.1-2.3-0.1-3S27,13.5,27,13.5z"/>
	</g>
	<path class="st1" d="M24.5,16.5c0,0-1.9,1.4-2.7,2.6c0,0-1.9-2.4-1.9-3.4c0-1,0.9-2.6,0.9-2.6s0,0.8,0.7,1.5
		C22.1,15.2,24.5,16.5,24.5,16.5z"/>
	<g>
		<path class="st8" d="M23.1,35c0,0,0.5,0,0.9-0.4c0.3-0.3,1.4-0.8,1.9-1c0.2-0.1,0.3-0.1,0.5-0.1c0.4,0,1.1,0.1,1.3,0.1
			c0.4,0,0.8,0.3,0.8,0.3l1,0.1c0,0,0.6,1.3-1.7,1h-0.6c0,0,0.4,0.3,0.6,0.5s1,0.1,1.3,0.1s0.6,0,0.7-0.1s0.3-0.2,0.3-0.2
			s0.3,0.2,0.2,0.7c-0.1,0.4-0.6,0.9-0.7,0.9c0,0,0.1,0.4-0.2,0.7c-0.3,0.2-0.6,0.2-0.6,0.2s-0.1,0.3-0.7,0.6c0,0-0.2,0.4-0.5,0.6
			c-0.3,0.2-0.4,0.3-0.4,0.4s-0.7,0.2-1.2,0.1s-1.3-0.3-1.6-0.6c-0.3-0.3-0.7-0.5-1.5-0.5c-0.7-0.1-0.7-0.1-0.7-0.1
			C22.2,36.9,22.2,35.6,23.1,35z"/>
	</g>
	<g>
		<path class="st5" d="M11.5,21.2c0.3-0.7,1-1,1.7-0.7c0.7,0.4,1.7,1.2,2.4,2.8c1.1,3,0.7,4.8,0.7,5.7C16.2,30,14.6,33,14.6,33
			s0.2,0.7-0.3,1.1c0,0,1,0.6,1.5,0.7c0.5,0.1,0.8,0,1.3,0.1c0.6,0.1,2.2,0.3,2.5,0.4c0.3,0.1,3.4-0.2,3.4-0.2s-1,1.9,0.1,3.3
			l-2.8,1c0,0-0.8,1.1-2.3,0.8c-1.4-0.3-2-0.4-3.1-0.6c-1.1-0.2-1.5,0.4-2.3,0.1c-0.8-0.2-1.4-0.4-2-0.7c-0.6-0.2-1.4-0.4-1.6-1.3
			c-0.2-0.8-0.3-2-0.2-2.8c0.2-0.8,1-6.3,1.3-7.3C10.4,26.8,10.8,23.1,11.5,21.2z"/>
	</g>
	<g>
		<g>
			<path class="st2" d="M30.6,37.7c-0.5-0.1-0.9-0.4-1.3-0.7l-4.5-4.5l0.6-0.6l4.5,4.5C30.2,36.8,30.4,37.2,30.6,37.7z"/>
		</g>
		<g>
			<path class="st11" d="M24.9,31.7l0.3,0.3l-0.4,0.4l-0.3-0.3c-0.1-0.1-0.1-0.3,0-0.4v0C24.7,31.6,24.8,31.6,24.9,31.7z"/>
		</g>
	</g>
	<g>
		<path class="st8" d="M30.3,35.8c-0.1,0.4-0.6,0.9-0.7,0.9c0,0,0.1,0.4-0.2,0.7c-0.3,0.2-0.6,0.2-0.6,0.2s-0.1,0.3-0.7,0.5
			c0,0-0.2,0.4-0.5,0.6c-0.3,0.2-0.4,0.3-0.4,0.4c-0.1,0.1-0.7,0.2-1.2,0.1c-0.6-0.1-1.3-0.3-1.6-0.6c-0.1-0.1-0.2-0.1-0.3-0.2
			l3-3.6c0,0,0.4,0.3,0.6,0.5c0.2,0.1,1,0.1,1.3,0.1c0.3,0,0.6,0,0.7-0.1c0.2-0.1,0.3-0.2,0.3-0.2S30.4,35.4,30.3,35.8z"/>
	</g>
</g>
</svg>
