<?xml version="1.0" encoding="utf-8"?>
<!-- Generator: Adobe Illustrator 16.0.0, SVG Export Plug-In . SVG Version: 6.00 Build 0)  -->
<!DOCTYPE svg PUBLIC "-//W3C//DTD SVG 1.1//EN" "http://www.w3.org/Graphics/SVG/1.1/DTD/svg11.dtd">
<svg version="1.1" id="Layer_1" xmlns="http://www.w3.org/2000/svg" xmlns:xlink="http://www.w3.org/1999/xlink" x="0px" y="0px"
	 width="48px" height="48px" viewBox="0 0 48 48" enable-background="new 0 0 48 48" xml:space="preserve">
<g>
	<path fill="#ACB3BA" d="M45.995,48H2.005l0.66-7.703c0.76-4.461,3.711-8.07,7.641-9.811c1.24-0.559,2.58-0.93,3.979-1.07h0.012
		c0.449-0.059,0.91-0.08,1.369-0.08h16.67c0.471,0,0.93,0.021,1.381,0.08c1.43,0.141,2.789,0.521,4.049,1.102
		c3.891,1.75,6.811,5.35,7.57,9.779L45.995,48z"/>
	<rect x="23.537" y="28.791" fill="#FFD15C" width="0.002" height="0.003"/>
	<rect x="24.029" y="16.927" fill="#FFD15C" width="0.002" height="0.003"/>
	<path fill="#F8B64C" d="M15.495,16.344c0.398,1.701,0.188,3.205-0.467,3.357c-0.656,0.152-1.508-1.102-1.906-2.803
		c-0.396-1.703-0.188-3.205,0.469-3.359C14.245,13.387,15.099,14.643,15.495,16.344"/>
	<path fill="#F8B64C" d="M32.55,16.344c-0.396,1.701-0.188,3.205,0.469,3.357c0.654,0.152,1.393-1.133,1.904-2.803
		c0.307-0.998,0.166-3.035-0.469-3.359C33.856,13.234,32.946,14.643,32.55,16.344"/>
	<path fill="#F8B64C" d="M33.72,29.414c-0.01,0.42-0.1,0.85-0.299,1.26c-1.811,3.59-5.42,5.811-9.42,5.811
		c-4-0.01-7.611-2.23-9.41-5.801c-0.201-0.41-0.301-0.84-0.311-1.27c0.459-0.051,0.92-0.08,1.391-0.08h1.639v-2.92
		c3.021,3.9,6.75,4.279,6.75,4.279s3.691-0.369,6.711-4.219v2.859h1.57C32.81,29.334,33.271,29.363,33.72,29.414"/>
	<g opacity="0.1">
		<g>
			<defs>
				<rect id="SVGID_61_" x="20.956" y="26.475" width="12.76" height="9.469"/>
			</defs>
			<clipPath id="SVGID_2_">
				<use xlink:href="#SVGID_61_"  overflow="visible"/>
			</clipPath>
			<path clip-path="url(#SVGID_2_)" fill="#40596B" d="M33.716,29.414c-0.449-0.051-0.91-0.08-1.379-0.08h-1.57v-2.859
				c-3.02,3.85-6.711,4.219-6.711,4.219s-1.326-0.141-3.035-1.074c-0.01-0.006-0.021-0.008-0.031-0.014l-0.033,0.012l6.326,6.326
				c2.619-0.855,4.84-2.703,6.135-5.27C33.616,30.264,33.706,29.834,33.716,29.414"/>
		</g>
	</g>
	<path fill="#FFD15C" d="M33.415,21.289c-2.756,8.742-9.357,9.406-9.357,9.406s-6.602-0.664-9.357-9.406
		c0,0-1.475-4.561-0.238-8.359c0,0,0.758-6.484,9.596-6.484s9.594,6.484,9.594,6.484C34.888,16.729,33.415,21.289,33.415,21.289"/>
	<path fill="#40596B" d="M24.81,5.568c-10.842,0-11.77,7.951-11.77,7.951c-0.111,0.346-0.201,0.699-0.279,1.053
		c1.875-0.646,4.189-1.719,6.314-3.49c0,0-0.457,2.438-4.721,4.568c0,0,11.709,1.285,19.916-6.654
		C32.593,7.207,29.728,5.568,24.81,5.568"/>
	<polygon fill="#94A3AF" points="11.562,48 9.872,48 11.562,39.805 	"/>
	<polygon fill="#94A3AF" points="36.438,48 38.128,48 36.438,39.805 	"/>
	<path fill="#40596B" d="M23.825,0.002c-6.816,0.125-12.148,5.973-12.148,12.789v19.102c0,3.193,2.588,5.783,5.781,5.783h0.467
		c0.146,0,0.264-0.117,0.264-0.264c0-1.574-0.684-3.039-1.779-4.172c-0.719-0.742-1.336-1.598-1.818-2.557
		c-0.201-0.41-0.301-0.84-0.311-1.27c0.461-0.051,0.92-0.08,1.391-0.08h1.639v-2.906c-1-1.289-1.924-2.963-2.609-5.139
		c0,0-0.25-0.781-0.457-1.959c-0.445-0.479-0.873-1.369-1.121-2.432c-0.396-1.703-0.188-3.205,0.469-3.359
		c0.201-0.047,0.422,0.055,0.643,0.246c0.064-0.287,0.139-0.574,0.229-0.855c0,0,0.758-6.484,9.596-6.484s9.594,6.484,9.594,6.484
		c0.082,0.252,0.15,0.508,0.211,0.766c0.211-0.172,0.416-0.246,0.594-0.156c0.633,0.324,0.773,2.361,0.467,3.359
		c-0.287,0.934-0.643,1.736-1.018,2.244c-0.213,1.285-0.49,2.146-0.49,2.146c-0.725,2.293-1.713,4.023-2.777,5.338
		c0.045-0.053,0.09-0.098,0.133-0.152v2.859h1.57c0.469,0,0.93,0.029,1.379,0.08c-0.01,0.42-0.1,0.85-0.299,1.26
		c-0.475,0.939-1.074,1.777-1.773,2.51c-1.061,1.113-1.721,2.547-1.721,4.084v0.145c0,0.146,0.117,0.264,0.262,0.264h0.543
		c3.152,0,5.707-2.557,5.707-5.707V12.381C36.438,5.467,30.769-0.125,23.825,0.002"/>
</g>
</svg>
