<?xml version="1.0" encoding="utf-8"?>
<!-- Generator: Adobe Illustrator 18.0.0, SVG Export Plug-In . SVG Version: 6.00 Build 0)  -->
<!DOCTYPE svg PUBLIC "-//W3C//DTD SVG 1.1//EN" "http://www.w3.org/Graphics/SVG/1.1/DTD/svg11.dtd">
<svg version="1.1" id="Layer_1" xmlns="http://www.w3.org/2000/svg" xmlns:xlink="http://www.w3.org/1999/xlink" x="0px" y="0px"
	 viewBox="0 0 48 48" enable-background="new 0 0 48 48" xml:space="preserve">
<g>
	<g>
		<g>
			<g>
				<g>
					<polygon fill="#344A5E" points="48,48 23.1,48 26.8,41.6 29.5,39 29.5,39.6 33.3,35.1 33,37.2 35.6,33.2 39.4,38.3 39.4,36.8 
						42.8,41.6 42.6,40.3 45.8,44.2 					"/>
				</g>
				<g>
					<polygon fill="#CED6E0" points="33.3,35.1 33,37.2 35.6,33.2 39.4,38.3 39.4,36.8 42.8,41.6 42.6,40.3 45.8,44.2 45.8,44.2 
						35.6,26.7 26.8,41.6 29.5,39 29.5,39.6 					"/>
				</g>
			</g>
			<g>
				<g>
					<polygon fill="#415A6B" points="35.6,48 0,48 5.3,39.6 9.1,36.2 8.6,38.3 14.5,31.1 15.1,33.6 17.8,28.6 23.2,35.3 23.2,33.3 
						28.1,39.6 27.8,37.9 32.4,43 					"/>
				</g>
				<g>
					<polygon fill="#F3F3F3" points="14.5,31.1 15.1,33.6 17.8,28.6 23.2,35.3 23.2,33.3 28.1,39.6 27.8,37.9 32.4,43 32.4,43 
						17.8,20 5.3,39.6 9.1,36.2 8.6,38.3 					"/>
				</g>
			</g>
		</g>
		<g>
			<g>
				<circle fill="#FFD15C" cx="31.2" cy="11" r="5.4"/>
			</g>
			<path fill="#FFD15C" d="M33.3,4.6L31.2,0l-2.1,4.6c0.7-0.2,1.4-0.3,2.1-0.3C31.9,4.2,32.6,4.4,33.3,4.6z"/>
			<path fill="#FFD15C" d="M28.2,5l-4.7-1.8l1.8,4.7C25.8,6.7,26.9,5.6,28.2,5z"/>
			<path fill="#FFD15C" d="M24.8,8.9L20.2,11l4.6,2.1c-0.2-0.7-0.3-1.4-0.3-2.1C24.5,10.2,24.6,9.5,24.8,8.9z"/>
			<path fill="#FFD15C" d="M25.2,14l-1.8,4.7l4.7-1.8C26.9,16.3,25.8,15.2,25.2,14z"/>
			<path fill="#FFD15C" d="M29.1,17.3l2.1,4.6l2.1-4.6c-0.7,0.2-1.4,0.3-2.1,0.3C30.4,17.7,29.7,17.5,29.1,17.3z"/>
			<path fill="#FFD15C" d="M34.2,16.9l4.7,1.8L37.2,14C36.5,15.2,35.5,16.3,34.2,16.9z"/>
			<path fill="#FFD15C" d="M37.5,13l4.6-2.1l-4.6-2.1c0.2,0.7,0.3,1.4,0.3,2.1C37.9,11.7,37.8,12.4,37.5,13z"/>
			<path fill="#FFD15C" d="M37.2,7.9l1.8-4.7L34.2,5C35.5,5.6,36.5,6.7,37.2,7.9z"/>
		</g>
	</g>
</g>
</svg>
