<?xml version="1.0" encoding="utf-8"?>
<!-- Generator: Adobe Illustrator 18.0.0, SVG Export Plug-In . SVG Version: 6.00 Build 0)  -->
<!DOCTYPE svg PUBLIC "-//W3C//DTD SVG 1.1//EN" "http://www.w3.org/Graphics/SVG/1.1/DTD/svg11.dtd">
<svg version="1.1" id="Layer_1" xmlns="http://www.w3.org/2000/svg" xmlns:xlink="http://www.w3.org/1999/xlink" x="0px" y="0px"
	 viewBox="0 0 48 48" enable-background="new 0 0 48 48" xml:space="preserve">
<g>
	<g>
		<g>
			<path fill="#67C6B9" d="M38.1,5.8c-7.8-7.8-20.4-7.8-28.1,0c-7.8,7.8-7.8,20.3,0,28.1L24,48l14-14C45.8,26.2,45.8,13.6,38.1,5.8z
				"/>
			<g>
				<path fill="#FFFFFF" d="M24,33.7c-7.6,0-13.8-6.2-13.8-13.8c0-7.6,6.2-13.8,13.8-13.8c7.6,0,13.8,6.2,13.8,13.8
					C37.8,27.5,31.6,33.7,24,33.7z"/>
			</g>
		</g>
		<g>
			<g>
				<polygon fill="#E8EAE9" points="20.8,19.9 24,12.2 27.2,19.9 24,27.6 				"/>
			</g>
			<g>
				<polygon fill="#E8EAE9" points="24,16.7 31.7,19.9 24,23 16.3,19.9 				"/>
				<g>
					<polyline fill="#FFD15D" points="27,22.9 16.6,27.3 21,16.8 					"/>
				</g>
			</g>
		</g>
		<g>
			<polyline fill="#F3705B" points="21,16.8 31.4,12.5 27,22.9 			"/>
		</g>
		<path fill="#435B6C" d="M24,15.5c-2.4,0-4.4,2-4.4,4.4c0,2.4,2,4.4,4.4,4.4c2.4,0,4.4-2,4.4-4.4C28.4,17.4,26.4,15.5,24,15.5z"/>
		<g>
			<circle fill="#F3F3F3" cx="24" cy="19.9" r="2.1"/>
		</g>
		<g>
			<circle fill="#CFD7E1" cx="24" cy="9.6" r="1.4"/>
			<circle fill="#CFD7E1" cx="24" cy="30.2" r="1.4"/>
			<circle fill="#CFD7E1" cx="34.3" cy="19.9" r="1.4"/>
			<circle fill="#CFD7E1" cx="13.7" cy="19.9" r="1.4"/>
		</g>
	</g>
</g>
</svg>
