<?xml version="1.0" encoding="utf-8"?>
<!-- Generator: Adobe Illustrator 18.0.0, SVG Export Plug-In . SVG Version: 6.00 Build 0)  -->
<!DOCTYPE svg PUBLIC "-//W3C//DTD SVG 1.1//EN" "http://www.w3.org/Graphics/SVG/1.1/DTD/svg11.dtd">
<svg version="1.1" id="Layer_1" xmlns="http://www.w3.org/2000/svg" xmlns:xlink="http://www.w3.org/1999/xlink" x="0px" y="0px"
	 viewBox="0 0 48 48" enable-background="new 0 0 48 48" xml:space="preserve">
<g>
	<g>
		<path fill="#415A6B" d="M3.5,8v27.9c0,1.1,0.9,2,2,2h37.3c1.1,0,2-0.9,2-2V8c0-1.1-0.9-2-2-2H5.5C4.4,6,3.5,6.8,3.5,8z"/>
		<rect x="6.5" y="9" fill="#8AD7F8" width="35.3" height="24.1"/>
		<path fill="#E8EAE9" d="M0,35.8L0,35.8C0,39.3,2.8,42,6.2,42h35.5c3.4,0,6.2-2.8,6.2-6.2l0,0H0z"/>
		<polygon fill="#CED6E0" points="29,38.6 19,38.6 17.4,35.8 30.6,35.8 		"/>
		<g>
			<rect x="10.6" y="15.9" fill="#FFFFFF" width="5.6" height="4.1"/>
			<rect x="12.6" y="18" fill="#415A6B" width="1.7" height="2.1"/>
			<polygon fill="#F3705A" points="17.4,15.9 9.5,15.9 10.9,14.5 10.9,12.6 11.8,12.6 11.8,13.6 13.4,12 			"/>
		</g>
		<g>
			<rect x="10.6" y="25.9" fill="#FFFFFF" width="5.6" height="4.1"/>
			<rect x="12.6" y="28" fill="#F3705A" width="1.7" height="2.1"/>
			<polygon fill="#415A6B" points="17.4,25.9 9.5,25.9 10.9,24.6 10.9,22.7 11.8,22.7 11.8,23.7 13.4,22 			"/>
		</g>
		<g>
			<g>
				<rect x="20.4" y="17.3" fill="#FFFFFF" width="18.3" height="1.3"/>
				<rect x="20.4" y="13.4" fill="#FFFFFF" width="18.3" height="1.3"/>
			</g>
			<g>
				<rect x="20.4" y="27.3" fill="#FFFFFF" width="18.3" height="1.3"/>
				<rect x="20.4" y="23.4" fill="#FFFFFF" width="18.3" height="1.3"/>
			</g>
		</g>
	</g>
</g>
</svg>
