<?xml version="1.0" encoding="utf-8"?>
<!-- Generator: Adobe Illustrator 18.0.0, SVG Export Plug-In . SVG Version: 6.00 Build 0)  -->
<!DOCTYPE svg PUBLIC "-//W3C//DTD SVG 1.1//EN" "http://www.w3.org/Graphics/SVG/1.1/DTD/svg11.dtd">
<svg version="1.1" id="Layer_1" xmlns="http://www.w3.org/2000/svg" xmlns:xlink="http://www.w3.org/1999/xlink" x="0px" y="0px"
	 viewBox="0 0 48 48" enable-background="new 0 0 48 48" xml:space="preserve">
<g>
	<g>
		<g>
			<path fill="#F05540" d="M4,1.2l21.9,21.9c0.8,0.8,0.8,2,0,2.8c-0.8,0.8-2,0.8-2.8,0L1.5,4.3C2.8,3.7,3.6,2.5,4,1.2z"/>
		</g>
		<g>
			<g>
				<g>
					<g>
						<g>
							<path fill="#F3705A" d="M6.8,23.5C6.8,36.8,27.4,48,27.4,48S48,36.8,48,23.5c0-5.9-4.8-10.7-10.7-10.7
								c-4.4,0-8.3,2.7-9.9,6.5c-1.6-3.8-5.4-6.5-9.9-6.5C11.6,12.8,6.8,17.6,6.8,23.5z"/>
						</g>
					</g>
				</g>
				<g>
					<g>
						<g>
							<path fill="#F05540" d="M27.4,48C27.4,48,27.4,48,27.4,48c0,0-20.6-11.2-20.6-24.4c0-5.9,4.8-10.7,10.7-10.7
								c3,0,5.7,1.3,7.7,3.3c-1-0.3-2.1-0.5-3.2-0.5c-5.9,0-10.7,4.8-10.7,10.7C11.3,35.6,21.3,43.9,27.4,48z"/>
						</g>
					</g>
				</g>
				<g>
					<g>
						<g>
							<path fill="#F05540" d="M2,12.8c1.1,0,2-0.9,2-2V4h6.8c1.1,0,2-0.9,2-2c0-1.1-0.9-2-2-2H2C0.9,0,0,0.9,0,2v8.8
								C0,11.9,0.9,12.8,2,12.8z"/>
						</g>
					</g>
				</g>
			</g>
			<g>
				<path fill="#FFFFFF" d="M43.1,21c1,2.3,0.8,4.6-0.4,5.2c-1.3,0.6-3.1-0.9-4.1-3.2c-1-2.3-0.8-4.6,0.4-5.2
					C40.2,17.3,42,18.7,43.1,21z"/>
			</g>
		</g>
	</g>
</g>
</svg>
