<?xml version="1.0" encoding="utf-8"?>
<!-- Generator: Adobe Illustrator 20.1.0, SVG Export Plug-In . SVG Version: 6.00 Build 0)  -->
<!DOCTYPE svg PUBLIC "-//W3C//DTD SVG 1.1//EN" "http://www.w3.org/Graphics/SVG/1.1/DTD/svg11.dtd">
<svg version="1.1" id="Layer_1" xmlns="http://www.w3.org/2000/svg" xmlns:xlink="http://www.w3.org/1999/xlink" x="0px" y="0px"
	 viewBox="0 0 49 49" enable-background="new 0 0 49 49" xml:space="preserve">
<g>
	<g>
		<path fill="#F2F2F2" d="M24.8,0.5v5c-0.1,0-0.2,0-0.3,0c-0.1,0-0.2,0-0.3,0v-5H24.8z"/>
		<path fill="#F2F2F2" d="M24.8,36.7v5h-0.5v-5c0.1,0,0.2,0,0.3,0C24.6,36.7,24.7,36.7,24.8,36.7z"/>
	</g>
	<g>
		<path fill="#F2F2F2" d="M18.1,4.9l0.7,1.7c-0.1,0-0.2,0.1-0.2,0.1c-0.1,0-0.2,0.1-0.2,0.1l-0.7-1.7L18.1,4.9z"/>
		<path fill="#F2F2F2" d="M30.7,35.4l0.7,1.7l-0.5,0.2l-0.7-1.7c0.1,0,0.2-0.1,0.2-0.1C30.5,35.5,30.6,35.4,30.7,35.4z"/>
	</g>
	<g>
		<path fill="#F2F2F2" d="M8.5,14.2l1.7,0.7c0,0.1-0.1,0.2-0.1,0.2c0,0.1-0.1,0.2-0.1,0.2l-1.7-0.7L8.5,14.2z"/>
		<path fill="#F2F2F2" d="M39,26.8l1.7,0.7L40.5,28l-1.7-0.7c0-0.1,0.1-0.2,0.1-0.2C38.9,27,39,26.9,39,26.8z"/>
	</g>
	<g>
		<path fill="#F2F2F2" d="M8.3,27.5l1.7-0.7c0,0.1,0.1,0.2,0.1,0.2c0,0.1,0.1,0.2,0.1,0.2L8.5,28L8.3,27.5z"/>
		<path fill="#F2F2F2" d="M38.8,14.9l1.7-0.7l0.2,0.5L39,15.4c0-0.1-0.1-0.2-0.1-0.2C38.9,15.1,38.8,15,38.8,14.9z"/>
	</g>
	<g>
		<path fill="#F2F2F2" d="M30.9,4.9l-0.7,1.7c0.1,0,0.2,0.1,0.2,0.1c0.1,0,0.2,0.1,0.2,0.1l0.7-1.7L30.9,4.9z"/>
		<path fill="#F2F2F2" d="M18.3,35.4l-0.7,1.7l0.5,0.2l0.7-1.7c-0.1,0-0.2-0.1-0.2-0.1C18.5,35.5,18.4,35.4,18.3,35.4z"/>
	</g>
	<g>
		<path fill="#F2F2F2" d="M40.5,14.2l-1.7,0.7c0,0.1,0.1,0.2,0.1,0.2c0,0.1,0.1,0.2,0.1,0.2l1.7-0.7L40.5,14.2z"/>
		<path fill="#F2F2F2" d="M10,26.8l-1.7,0.7L8.5,28l1.7-0.7c0-0.1-0.1-0.2-0.1-0.2C10.1,27,10,26.9,10,26.8z"/>
	</g>
	<g>
		<path fill="#F2F2F2" d="M40.7,27.5L39,26.8c0,0.1-0.1,0.2-0.1,0.2c0,0.1-0.1,0.2-0.1,0.2l1.7,0.7L40.7,27.5z"/>
		<path fill="#F2F2F2" d="M10.2,14.9l-1.7-0.7l-0.2,0.5l1.7,0.7c0-0.1,0.1-0.2,0.1-0.2C10.1,15.1,10.2,15,10.2,14.9z"/>
	</g>
	<g>
		<path fill="#F2F2F2" d="M39.3,6.7l-3.6,3.6c-0.1-0.1-0.1-0.1-0.2-0.2c-0.1-0.1-0.1-0.1-0.2-0.2l3.6-3.6L39.3,6.7z"/>
		<path fill="#F2F2F2" d="M13.7,32.3l-3.6,3.6l-0.4-0.4l3.6-3.6c0.1,0.1,0.1,0.1,0.2,0.2C13.5,32.2,13.6,32.3,13.7,32.3z"/>
	</g>
	<g>
		<path fill="#F2F2F2" d="M45.1,21.4h-5c0-0.1,0-0.2,0-0.3s0-0.2,0-0.3h5V21.4z"/>
		<path fill="#F2F2F2" d="M8.9,21.4h-5v-0.5h5c0,0.1,0,0.2,0,0.3S8.9,21.3,8.9,21.4z"/>
	</g>
	<g>
		<path fill="#F2F2F2" d="M38.9,35.9l-3.6-3.6c0.1-0.1,0.1-0.1,0.2-0.2c0.1-0.1,0.1-0.1,0.2-0.2l3.6,3.6L38.9,35.9z"/>
		<path fill="#F2F2F2" d="M13.3,10.3L9.7,6.7l0.4-0.4l3.6,3.6c-0.1,0.1-0.1,0.1-0.2,0.2C13.4,10.1,13.3,10.2,13.3,10.3z"/>
	</g>
	<path fill="#FFD05C" d="M39.3,20.8c0-8.5-7.2-15.4-15.9-14.8c-7.4,0.5-13.3,6.5-13.8,13.8c-0.3,4.6,1.5,8.8,4.6,11.7
		c1.9,1.8,3,4.3,3,6.9l14.4,0c0-2.6,1.1-5.1,3-6.9C37.6,28.9,39.3,25,39.3,20.8z"/>
	<path fill="#4FBFA8" d="M20.9,46c0.5,1.5,1.9,2.5,3.6,2.5c1.6,0,3-1.1,3.6-2.5H20.9z"/>
	<path fill="#CDD5DF" d="M17.3,38.4v6.3c0,0.7,0.6,1.3,1.3,1.3h11.9c0.7,0,1.3-0.6,1.3-1.3v-6.3H17.3z"/>
	<g>
		<path fill="#ABB2B9" d="M32,43.8H17c-0.3,0-0.5,0.2-0.5,0.5v0.1c0,0.3,0.2,0.5,0.5,0.5h15c0.3,0,0.5-0.2,0.5-0.5v-0.1
			C32.5,44,32.3,43.8,32,43.8z"/>
		<path fill="#ABB2B9" d="M32,41.7H17c-0.3,0-0.5,0.2-0.5,0.5v0.1c0,0.3,0.2,0.5,0.5,0.5h15c0.3,0,0.5-0.2,0.5-0.5v-0.1
			C32.5,41.9,32.3,41.7,32,41.7z"/>
		<path fill="#ABB2B9" d="M32,39.6H17c-0.3,0-0.5,0.2-0.5,0.5v0.1c0,0.3,0.2,0.5,0.5,0.5h15c0.3,0,0.5-0.2,0.5-0.5v-0.1
			C32.5,39.8,32.3,39.6,32,39.6z"/>
	</g>
	<path fill="#F6B44B" d="M23.4,7.9c8.3-0.6,15.4,5.8,15.9,13.9c0-0.3,0-0.6,0-0.9c0-8.5-7.2-15.4-15.9-14.8
		c-7.4,0.5-13.3,6.5-13.8,13.8c0,0.6,0,1.3,0,1.9C10.2,14.4,16.1,8.4,23.4,7.9z"/>
	<polygon fill="#FFFFFF" points="19.3,24 24.5,24 24.5,15.4 	"/>
	<polygon fill="#FFFFFF" points="29.7,24 24.5,24 24.5,32.6 	"/>
</g>
</svg>
