<?xml version="1.0" encoding="utf-8"?>
<!-- Generator: Adobe Illustrator 16.0.0, SVG Export Plug-In . SVG Version: 6.00 Build 0)  -->
<!DOCTYPE svg PUBLIC "-//W3C//DTD SVG 1.1//EN" "http://www.w3.org/Graphics/SVG/1.1/DTD/svg11.dtd">
<svg version="1.1" id="Layer_1" xmlns="http://www.w3.org/2000/svg" xmlns:xlink="http://www.w3.org/1999/xlink" x="0px" y="0px"
	 width="48px" height="48px" viewBox="0 0 48 48" enable-background="new 0 0 48 48" xml:space="preserve">
<g>
	<path fill="#4CDBC4" d="M47.998,5.852c0-1.105-0.895-2.004-2-2.004h-44c-1.104,0-2,0.898-2,2.006L0,13.512h0.006
		c0.043-1.057,0.914-1.904,1.992-1.904h44c1.078,0,1.949,0.848,1.992,1.904H48L47.998,5.852z"/>
	<path fill="#FFFFFF" d="M44.801,11.607V9.672c-0.209,0-0.41-0.02-0.609-0.07c-1.18-0.27-2.061-1.332-2.061-2.576H5.861
		c0,1.244-0.881,2.307-2.051,2.576c-0.189,0.051-0.4,0.07-0.609,0.07v1.936H44.801z"/>
	<path fill="#4CDBC4" d="M23.611,8.52c-1.061,0-2.051,0.391-2.9,1.082h5.801C25.662,8.91,24.672,8.52,23.611,8.52"/>
	<path fill="#3DC9AE" d="M1.998,11.607h1.203V9.672c0.211,0,0.42-0.02,0.609-0.07H2.002c-0.73,0-1.41,0.201-2,0.541v3.42
		C0.018,12.48,0.902,11.607,1.998,11.607"/>
	<path fill="#3DC9AE" d="M46.002,9.602h-1.811c0.199,0.051,0.4,0.07,0.609,0.07v1.936h1.197c0.949,0,1.738,0.658,1.945,1.537
		l0.059,0.025v-3.027C47.41,9.803,46.73,9.602,46.002,9.602"/>
	<path fill="#F2F2F2" d="M28.18,11.607h16.621V9.672c-0.209,0-0.41-0.02-0.609-0.07h-17.68
		C27.158,10.107,27.721,10.799,28.18,11.607"/>
	<path fill="#F2F2F2" d="M19.053,11.607c0.449-0.809,1.012-1.5,1.658-2.006h-16.9c-0.189,0.051-0.4,0.07-0.609,0.07v1.936H19.053z"
		/>
	<path fill="#3DC9AE" d="M28.18,11.607c-0.459-0.809-1.021-1.5-1.668-2.006h-5.801c-0.646,0.506-1.209,1.197-1.658,2.006H28.18z"/>
	<path fill="#4CDBC4" d="M45.998,19.303h-44c-1.105,0-2,0.889-2,1.982V42.17c0,1.096,0.895,1.982,2,1.982h44
		c1.105,0,2-0.887,2-1.982V21.285C47.998,20.191,47.104,19.303,45.998,19.303"/>
	<path fill="#FFFFFF" d="M3.199,38.338V25.119c1.473,0,2.666-1.184,2.666-2.645h36.266c0,1.461,1.195,2.645,2.668,2.645v13.219
		c-1.473,0-2.668,1.184-2.668,2.643H5.865C5.865,39.521,4.672,38.338,3.199,38.338"/>
	<path fill="#4CDBC4" d="M14.666,31.729c0,0.977-0.799,1.771-1.787,1.771c-0.986,0-1.785-0.795-1.785-1.771
		c0-0.979,0.799-1.773,1.785-1.773C13.867,29.955,14.666,30.75,14.666,31.729"/>
	<path fill="#4CDBC4" d="M36.133,31.729c0,0.977-0.801,1.771-1.787,1.771s-1.787-0.795-1.787-1.771c0-0.979,0.801-1.773,1.787-1.773
		S36.133,30.75,36.133,31.729"/>
	<path fill="#4CDBC4" d="M29.342,31.729c0,4.283-2.564,7.756-5.729,7.756s-5.73-3.473-5.73-7.756c0-4.285,2.566-7.756,5.73-7.756
		S29.342,27.443,29.342,31.729"/>
	<path fill="#FFFFFF" d="M25.822,31.789c-0.32-0.381-0.918-0.682-1.797-0.92v-2.131c0.355,0.152,0.576,0.443,0.66,0.873l1.393-0.182
		c-0.096-0.545-0.32-0.982-0.662-1.305c-0.346-0.328-0.811-0.523-1.391-0.592v-0.539H23.23v0.539
		c-0.635,0.063-1.137,0.295-1.516,0.697c-0.383,0.406-0.57,0.908-0.57,1.502c0,0.592,0.166,1.09,0.502,1.502
		s0.863,0.723,1.584,0.924v2.285c-0.203-0.096-0.379-0.248-0.539-0.461c-0.166-0.205-0.271-0.459-0.33-0.75l-1.436,0.152
		c0.107,0.715,0.363,1.27,0.758,1.66c0.395,0.398,0.912,0.629,1.547,0.703v0.715h0.795v-0.74c0.715-0.102,1.273-0.375,1.674-0.824
		c0.4-0.455,0.604-1.004,0.604-1.666C26.303,32.646,26.143,32.164,25.822,31.789 M23.23,30.605c-0.24-0.102-0.416-0.234-0.533-0.398
		c-0.117-0.168-0.176-0.342-0.176-0.539c0-0.211,0.063-0.402,0.191-0.576c0.127-0.174,0.299-0.301,0.518-0.371V30.605z
		 M24.697,34.141c-0.172,0.201-0.395,0.328-0.672,0.383v-2.133c0.33,0.096,0.564,0.234,0.715,0.408
		c0.143,0.18,0.213,0.387,0.213,0.629C24.953,33.703,24.867,33.941,24.697,34.141"/>
	<path fill="#4CDBC4" d="M47.998,13.547c0-1.107-0.895-2.004-2-2.004h-44c-1.104,0-2,0.898-2,2.004L0,21.207h0.006
		c0.043-1.059,0.914-1.904,1.992-1.904h44c1.078,0,1.949,0.846,1.992,1.904H48L47.998,13.547z"/>
	<path fill="#FFFFFF" d="M44.801,19.303v-1.936c-0.209,0-0.41-0.02-0.609-0.07c-1.18-0.271-2.061-1.334-2.061-2.576H5.861
		c0,1.242-0.881,2.305-2.051,2.576c-0.189,0.051-0.4,0.07-0.609,0.07v1.936H44.801z"/>
	<path fill="#4CDBC4" d="M23.611,16.215c-1.061,0-2.051,0.391-2.9,1.082h5.801C25.662,16.605,24.672,16.215,23.611,16.215"/>
	<path fill="#3DC9AE" d="M1.998,19.303h1.203v-1.936c0.211,0,0.42-0.02,0.609-0.07H2.002c-0.73,0-1.41,0.199-2,0.541v3.418
		C0.018,20.176,0.902,19.303,1.998,19.303"/>
	<path fill="#3DC9AE" d="M46.002,17.297h-1.811c0.199,0.051,0.4,0.07,0.609,0.07v1.936h1.197c0.949,0,1.738,0.656,1.945,1.535
		l0.059,0.027v-3.027C47.41,17.498,46.73,17.297,46.002,17.297"/>
	<path fill="#F2F2F2" d="M28.18,19.303h16.621v-1.936c-0.209,0-0.41-0.02-0.609-0.07h-17.68
		C27.158,17.803,27.721,18.494,28.18,19.303"/>
	<path fill="#F2F2F2" d="M19.053,19.303c0.449-0.809,1.012-1.5,1.658-2.006h-16.9c-0.189,0.051-0.4,0.07-0.609,0.07v1.936H19.053z"
		/>
	<path fill="#3DC9AE" d="M28.18,19.303c-0.459-0.809-1.021-1.5-1.668-2.006h-5.801c-0.646,0.506-1.209,1.197-1.658,2.006H28.18z"/>
</g>
</svg>
