<?xml version="1.0" encoding="utf-8"?>
<!-- Generator: Adobe Illustrator 18.0.0, SVG Export Plug-In . SVG Version: 6.00 Build 0)  -->
<!DOCTYPE svg PUBLIC "-//W3C//DTD SVG 1.1//EN" "http://www.w3.org/Graphics/SVG/1.1/DTD/svg11.dtd">
<svg version="1.1" id="Layer_1" xmlns="http://www.w3.org/2000/svg" xmlns:xlink="http://www.w3.org/1999/xlink" x="0px" y="0px"
	 viewBox="0 0 48 48" enable-background="new 0 0 48 48" xml:space="preserve">
<g>
	<g>
		<g>
			<g>
				<polygon fill="#F3F3F3" points="43.9,48 43.9,25.7 24,5.9 4.1,25.7 4.1,48 				"/>
				<g>
					<path fill="#F3705A" d="M0.7,25.7L0.7,25.7c-0.9-0.9-0.9-2.5,0-3.4L22.3,0.7c0.9-0.9,2.5-0.9,3.4,0l21.6,21.6
						c0.9,0.9,0.9,2.5,0,3.4l0,0c-0.9,0.9-2.5,0.9-3.4,0L24,5.9L4.1,25.7C3.2,26.7,1.7,26.7,0.7,25.7z"/>
				</g>
			</g>
		</g>
		<g>
			<path fill="#4EC0AA" d="M23.2,18.6c0,0.6-0.2,1.2-0.7,1.6c-0.4,0.4-1,0.7-1.7,0.7s-1.2-0.2-1.7-0.7c-0.5-0.4-0.7-1-0.7-1.6
				c0-0.6,0.2-1.2,0.7-1.6c0.4-0.4,1-0.7,1.7-0.7s1.2,0.2,1.7,0.7C23,17.5,23.2,18,23.2,18.6z M29.4,16.1l-8,11.2h-2.8l8.1-11.2
				H29.4z M20.4,19.2c0.1,0.1,0.3,0.2,0.5,0.2c0.2,0,0.4-0.1,0.5-0.2c0.1-0.1,0.2-0.3,0.2-0.6s-0.1-0.4-0.2-0.6
				c-0.1-0.2-0.3-0.2-0.5-0.2c-0.2,0-0.3,0.1-0.5,0.2c-0.1,0.2-0.2,0.3-0.2,0.6S20.2,19.1,20.4,19.2z M29.5,25.2
				c0,0.6-0.2,1.2-0.7,1.6c-0.4,0.4-1,0.6-1.7,0.6c-0.7,0-1.2-0.2-1.7-0.7c-0.4-0.4-0.7-1-0.7-1.6c0-0.6,0.2-1.2,0.7-1.6
				s1-0.7,1.7-0.7c0.7,0,1.2,0.2,1.7,0.7C29.3,24,29.5,24.6,29.5,25.2z M26.7,25.8c0.1,0.1,0.3,0.2,0.5,0.2c0.2,0,0.4-0.1,0.5-0.2
				c0.1-0.1,0.2-0.3,0.2-0.6s-0.1-0.4-0.2-0.6c-0.1-0.2-0.3-0.2-0.5-0.2c-0.2,0-0.3,0.1-0.5,0.2c-0.1,0.2-0.2,0.4-0.2,0.6
				S26.6,25.6,26.7,25.8z"/>
		</g>
		<g>
			<polygon fill="#415A6B" points="27.9,30.3 20.1,30.3 20.1,39.3 17.1,39.3 24,46.2 30.9,39.3 27.9,39.3 			"/>
		</g>
	</g>
</g>
</svg>
