<?xml version="1.0" encoding="utf-8"?>
<!-- Generator: Adobe Illustrator 18.0.0, SVG Export Plug-In . SVG Version: 6.00 Build 0)  -->
<!DOCTYPE svg PUBLIC "-//W3C//DTD SVG 1.1//EN" "http://www.w3.org/Graphics/SVG/1.1/DTD/svg11.dtd">
<svg version="1.1" id="Layer_1" xmlns="http://www.w3.org/2000/svg" xmlns:xlink="http://www.w3.org/1999/xlink" x="0px" y="0px"
	 viewBox="0 0 48 48" enable-background="new 0 0 48 48" xml:space="preserve">
<g>
	<path fill="#40596B" d="M38.5,0h-29c-1.1,0-2,0.9-2,2v44c0,1.1,0.9,2,2,2h29c1.1,0,2-0.9,2-2V2C40.5,0.9,39.6,0,38.5,0z"/>
	<rect x="11.5" y="5.9" fill="#FF7058" width="25" height="32.2"/>
	<path fill="#334A5E" d="M30.7,2.9L30.7,2.9c0-0.4-0.3-0.8-0.8-0.8h-9.8c-0.4,0-0.8,0.3-0.8,0.8l0,0c0,0.4,0.3,0.8,0.8,0.8H30
		C30.4,3.7,30.7,3.4,30.7,2.9z"/>
	<circle fill="#334A5E" cx="24" cy="43.1" r="2.9"/>
	<g>
		<path fill="#FFFFFF" d="M27.7,14.2c-1.5,0-2.8,0.6-3.7,1.6c-0.9-1-2.2-1.6-3.7-1.6c-2.7,0-5,2.2-5,5c0,4.2,8.6,10.6,8.6,10.6
			s8.6-6.3,8.6-10.6C32.6,16.5,30.4,14.2,27.7,14.2z"/>
		<g>
			<path fill="#40596B" d="M24.8,25.4C24.8,25.4,24.8,25.4,24.8,25.4c-0.2,0-0.4-0.2-0.4-0.4l-0.7-6.4l-1.6,4.2
				c-0.1,0.2-0.2,0.3-0.4,0.3c0,0,0,0,0,0c-0.2,0-0.3-0.1-0.4-0.3l-1-2.7L19,21.4c-0.1,0.1-0.2,0.1-0.3,0.1h-4
				c-0.2,0-0.4-0.2-0.4-0.4c0-0.2,0.2-0.4,0.4-0.4h3.9l1.6-1.6c0.1-0.1,0.2-0.1,0.4-0.1c0.1,0,0.2,0.1,0.3,0.3l0.9,2.4l1.8-4.8
				c0.1-0.2,0.2-0.3,0.4-0.3c0.2,0,0.3,0.2,0.3,0.4l0.7,6.6l1.9-4.1c0.1-0.1,0.2-0.2,0.3-0.2c0.2,0,0.3,0.1,0.4,0.2l1.4,2.5l0.5-1
				c0.1-0.1,0.2-0.2,0.4-0.2h3.3c0.2,0,0.4,0.2,0.4,0.4c0,0.2-0.2,0.4-0.4,0.4h-3.1L29.4,23c-0.1,0.1-0.2,0.2-0.3,0.2c0,0,0,0,0,0
				c-0.1,0-0.3-0.1-0.3-0.2l-1.4-2.5l-2.2,4.6C25.1,25.3,25,25.4,24.8,25.4z"/>
		</g>
	</g>
</g>
</svg>
