<?xml version="1.0" encoding="utf-8"?>
<!-- Generator: Adobe Illustrator 18.0.0, SVG Export Plug-In . SVG Version: 6.00 Build 0)  -->
<!DOCTYPE svg PUBLIC "-//W3C//DTD SVG 1.1//EN" "http://www.w3.org/Graphics/SVG/1.1/DTD/svg11.dtd">
<svg version="1.1" id="Layer_1" xmlns="http://www.w3.org/2000/svg" xmlns:xlink="http://www.w3.org/1999/xlink" x="0px" y="0px"
	 viewBox="0 0 48 48" enable-background="new 0 0 48 48" xml:space="preserve">
<g>
	<path fill="#FF7058" d="M46.8,36.4L31.3,20.9L20.9,31.3l15.5,15.5c1.6,1.6,4.3,1.6,5.9,0l4.5-4.5C48.4,40.7,48.4,38,46.8,36.4z"/>
	<polygon fill="#F2F2F2" points="5.2,0 0,5.2 6.3,13.9 12.3,17.4 23.5,28.7 28.7,23.5 17.4,12.3 13.9,6.3 	"/>
	<g>
		<path fill="#F1543F" d="M38.2,41.7l-0.7,0.7c-0.3,0.3-0.7,0.3-1,0l-8.2-8.2c-0.3-0.3-0.3-0.7,0-1l0.7-0.7c0.3-0.3,0.7-0.3,1,0
			l8.2,8.2C38.5,40.9,38.5,41.4,38.2,41.7z"/>
		<path fill="#F1543F" d="M42.4,37.5l-0.7,0.7c-0.3,0.3-0.7,0.3-1,0L32.5,30c-0.3-0.3-0.3-0.7,0-1l0.7-0.7c0.3-0.3,0.7-0.3,1,0
			l8.2,8.2C42.7,36.7,42.7,37.2,42.4,37.5z"/>
	</g>
	
		<rect x="22.6" y="21" transform="matrix(-0.7071 -0.7071 0.7071 -0.7071 24.6412 59.489)" fill="#E4EAEF" width="4.1" height="7.3"/>
	<path fill="#F1543F" d="M29.6,19.1L19.1,29.6c-0.9,0.9-0.9,2.5,0,3.4l0,0c0.9,0.9,2.5,0.9,3.4,0l10.5-10.5c0.9-0.9,0.9-2.5,0-3.4
		l0,0C32.1,18.2,30.6,18.2,29.6,19.1z"/>
</g>
</svg>
