<?xml version="1.0" encoding="utf-8"?>
<!-- Generator: Adobe Illustrator 18.0.0, SVG Export Plug-In . SVG Version: 6.00 Build 0)  -->
<!DOCTYPE svg PUBLIC "-//W3C//DTD SVG 1.1//EN" "http://www.w3.org/Graphics/SVG/1.1/DTD/svg11.dtd">
<svg version="1.1" id="Layer_1" xmlns="http://www.w3.org/2000/svg" xmlns:xlink="http://www.w3.org/1999/xlink" x="0px" y="0px"
	 viewBox="0 0 48 48" enable-background="new 0 0 48 48" xml:space="preserve">
<g>
	<g>
		<path fill="#40596B" d="M36.3,11.4V5.9H11.7v5.5h-4V5.9c0-2.2,1.8-4,4-4h24.7c2.2,0,4,1.8,4,4v5.5H36.3z"/>
	</g>
	<path fill="#CDD6E0" d="M2,11.1h44c1.1,0,2,0.9,2,2v4.5c-16,7.9-32-7.9-48,0v-4.5C0,12,0.9,11.1,2,11.1z"/>
	<path fill="#F2F2F2" d="M0,17.6v25.3c0,1.1,0.9,2,2,2h44c1.1,0,2-0.9,2-2V17.6C32,25.5,16,9.7,0,17.6z"/>
	<path fill="#FF7058" d="M35.9,22.5H43c1.1,0,2,0.9,2,2v14c0,1.1-0.9,2-2,2h-7.1c-1.1,0-2-0.9-2-2v-14
		C33.9,23.4,34.8,22.5,35.9,22.5z"/>
	<path fill="#FF7058" d="M29.1,24.5v14c0,1.1-0.9,2-2,2H5c-1.1,0-2-0.9-2-2v-14c0-1.1,0.9-2,2-2h22.1C28.2,22.5,29.1,23.4,29.1,24.5
		z"/>
	<g>
		<rect x="36.5" y="44.9" fill="#CDD6E0" width="6.5" height="1.2"/>
		<rect x="5" y="44.9" fill="#CDD6E0" width="6.5" height="1.2"/>
	</g>
	<g>
		<rect x="29" y="9.3" fill="#FF7058" width="2.9" height="1.8"/>
		<rect x="24.7" y="9.3" fill="#FF7058" width="2.9" height="1.8"/>
		<rect x="20.4" y="9.3" fill="#FF7058" width="2.9" height="1.8"/>
		<rect x="16.1" y="9.3" fill="#FF7058" width="2.9" height="1.8"/>
	</g>
	<path fill="#F1543F" d="M25.4,31.5L25.4,31.5c0-2.1-1.7-3.7-3.7-3.7H10.3c-2.1,0-3.7,1.7-3.7,3.7l0,0c0,2.1,1.7,3.7,3.7,3.7h11.4
		C23.8,35.2,25.4,33.5,25.4,31.5z"/>
	<g>
		<path fill="#F1543F" d="M24.1,31.5L24.1,31.5c0-1.5-1.2-2.7-2.7-2.7H10.7C9.2,28.7,8,30,8,31.5l0,0c0,1.5,1.2,2.7,2.7,2.7h10.6
			C22.9,34.2,24.1,33,24.1,31.5z"/>
		<path fill="#FFFFFF" d="M9,31.5c0,0.9,0.8,1.7,1.7,1.7h10.6c0.9,0,1.6-0.7,1.7-1.5c0-0.1,0-0.1,0-0.2c0-0.1,0-0.1,0-0.2
			c-0.1-0.9-0.8-1.5-1.7-1.5H10.7C9.8,29.8,9,30.5,9,31.5z"/>
		<path fill="#40596B" d="M17.2,31.5c0,0.6,0.2,1.2,0.5,1.7h3.6c0.9,0,1.6-0.7,1.7-1.5c0-0.1,0-0.1,0-0.2c0-0.1,0-0.1,0-0.2
			c-0.1-0.9-0.8-1.5-1.7-1.5h-3.6C17.4,30.3,17.2,30.8,17.2,31.5z"/>
		<path fill="#FFD15C" d="M18.8,31.5c0,0.6,0.2,1.2,0.5,1.7h2c0.9,0,1.6-0.7,1.7-1.5c0-0.1,0-0.1,0-0.2c0-0.1,0-0.1,0-0.2
			c-0.1-0.9-0.8-1.5-1.7-1.5h-2C19,30.3,18.8,30.8,18.8,31.5z"/>
		<path fill="#40596B" d="M14.8,31.5c0,0.6-0.2,1.2-0.5,1.7h-3.6c-0.9,0-1.6-0.7-1.7-1.5c0-0.1,0-0.1,0-0.2c0-0.1,0-0.1,0-0.2
			c0.1-0.9,0.8-1.5,1.7-1.5h3.6C14.6,30.3,14.8,30.8,14.8,31.5z"/>
		<circle fill="#FFFFFF" cx="21.4" cy="31.5" r="1.7"/>
		<path fill="#FFD15C" d="M13.2,31.5c0,0.6-0.2,1.2-0.5,1.7h-2c-0.9,0-1.6-0.7-1.7-1.5c0-0.1,0-0.1,0-0.2c0-0.1,0-0.1,0-0.2
			c0.1-0.9,0.8-1.5,1.7-1.5h2C13,30.3,13.2,30.8,13.2,31.5z"/>
		<circle fill="#FFFFFF" cx="10.7" cy="31.5" r="1.7"/>
	</g>
	<g>
		<g>
			<rect x="33.9" y="24.2" fill="#F1543F" width="11.1" height="0.8"/>
			<rect x="33.9" y="26.5" fill="#F1543F" width="11.1" height="0.8"/>
			<rect x="33.9" y="28.8" fill="#F1543F" width="11.1" height="0.8"/>
			<rect x="33.9" y="31.1" fill="#F1543F" width="11.1" height="0.8"/>
			<rect x="33.9" y="26.5" fill="#F1543F" width="11.1" height="0.8"/>
			<rect x="33.9" y="28.8" fill="#F1543F" width="11.1" height="0.8"/>
			<rect x="33.9" y="31.1" fill="#F1543F" width="11.1" height="0.8"/>
			<rect x="33.9" y="33.4" fill="#F1543F" width="11.1" height="0.8"/>
		</g>
		<rect x="33.9" y="35.7" fill="#F1543F" width="11.1" height="0.8"/>
		<rect x="33.9" y="38" fill="#F1543F" width="11.1" height="0.8"/>
		<rect x="33.9" y="35.7" fill="#F1543F" width="11.1" height="0.8"/>
		<rect x="33.9" y="38" fill="#F1543F" width="11.1" height="0.8"/>
	</g>
</g>
</svg>
