<?xml version="1.0" encoding="utf-8"?>
<!-- Generator: Adobe Illustrator 18.0.0, SVG Export Plug-In . SVG Version: 6.00 Build 0)  -->
<!DOCTYPE svg PUBLIC "-//W3C//DTD SVG 1.1//EN" "http://www.w3.org/Graphics/SVG/1.1/DTD/svg11.dtd">
<svg version="1.1" id="Layer_1" xmlns="http://www.w3.org/2000/svg" xmlns:xlink="http://www.w3.org/1999/xlink" x="0px" y="0px"
	 viewBox="0 0 48 48" enable-background="new 0 0 48 48" xml:space="preserve">
<g>
	<g>
		<path fill="#FFD15C" d="M44,0H4C1.8,0,0,1.8,0,4v40c0,2.2,1.8,4,4,4h40c2.2,0,4-1.8,4-4V4C48,1.8,46.2,0,44,0z"/>
		<g>
			<rect x="17.7" y="0" fill="#F7B64C" width="12.5" height="10.6"/>
		</g>
		<g>
			<rect x="9.6" y="24" fill="#FFFFFF" width="28.8" height="17.5"/>
			<g>
				<rect x="14.5" y="25.7" fill="#415A6B" width="1" height="14"/>
				<rect x="11.4" y="25.7" fill="#415A6B" width="2.3" height="14"/>
				<rect x="16.2" y="25.7" fill="#415A6B" width="2.9" height="14"/>
				<rect x="20" y="25.7" fill="#415A6B" width="1.6" height="14"/>
				<rect x="25.9" y="25.7" fill="#415A6B" width="1" height="14"/>
				<rect x="22.7" y="25.7" fill="#415A6B" width="2.3" height="14"/>
				<rect x="30.7" y="25.7" fill="#415A6B" width="1" height="14"/>
				<rect x="27.6" y="25.7" fill="#415A6B" width="2.3" height="14"/>
				<rect x="35.1" y="25.7" fill="#415A6B" width="1.6" height="14"/>
				<rect x="32.7" y="25.7" fill="#415A6B" width="1" height="14"/>
			</g>
		</g>
	</g>
</g>
</svg>
