<?xml version="1.0" encoding="utf-8"?>
<!-- Generator: Adobe Illustrator 18.0.0, SVG Export Plug-In . SVG Version: 6.00 Build 0)  -->
<!DOCTYPE svg PUBLIC "-//W3C//DTD SVG 1.1//EN" "http://www.w3.org/Graphics/SVG/1.1/DTD/svg11.dtd">
<svg version="1.1" id="Layer_1" xmlns="http://www.w3.org/2000/svg" xmlns:xlink="http://www.w3.org/1999/xlink" x="0px" y="0px"
	 viewBox="0 0 48 48" enable-background="new 0 0 48 48" xml:space="preserve">
<g>
	<g>
		<g>
			<path fill="#F3F3F3" d="M10.9,0L0,10.9V45c0,1.7,1.3,3,3,3h32c1.7,0,3-1.3,3-3V3c0-1.7-1.3-3-3-3H10.9z"/>
			<polygon fill="#CED6E0" points="10.9,0 0,10.9 10.9,10.9 			"/>
		</g>
		<g>
			<path fill="#FFD15C" d="M19,28.9c2.5,0,4.8-1,6.5-2.7L19,19.7V28.9z"/>
			<path fill="#F3705A" d="M19,10.5v18.4c-5.1,0-9.2-4.1-9.2-9.2C9.8,14.6,13.9,10.5,19,10.5z"/>
			<g>
				<path fill="#66C6B9" d="M28.2,19.7c0,2.5-1,4.8-2.7,6.5L19,19.7v-9.2c2.5,0,4.8,1,6.5,2.7C27.2,14.9,28.2,17.2,28.2,19.7z"/>
			</g>
		</g>
		<g>
			<g>
				<rect x="4" y="33" fill="#CED6E0" width="30" height="2.4"/>
			</g>
			<g>
				<rect x="4" y="39.8" fill="#CED6E0" width="30" height="2.4"/>
			</g>
		</g>
		<g>
			<g>
				<g>
					<g>
						
							<rect x="33.4" y="34.2" transform="matrix(0.7071 -0.7071 0.7071 0.7071 -14.9276 36.0385)" fill="#344A5E" width="5.2" height="3.7"/>
					</g>
				</g>
				<g>
					<path fill="#F3705A" d="M39.5,35.2l-4.3,4.3c-0.6,0.6-0.6,1.5,0,2.1l5.2,5.2c1.7,1.7,4.6,1.7,6.3,0s1.7-4.6,0-6.3l-5.2-5.2
						C41,34.7,40.1,34.7,39.5,35.2z"/>
				</g>
			</g>
			<g>
				<g>
					<path fill="#415A6B" d="M36,36c-5,5-13.2,5-18.2,0s-5-13.2,0-18.2s13.2-5,18.2,0S41,31,36,36z M20.3,20.3
						c-3.6,3.6-3.6,9.5,0,13.2c3.6,3.6,9.5,3.6,13.2,0c3.6-3.6,3.6-9.5,0-13.2S23.9,16.7,20.3,20.3z"/>
				</g>
			</g>
		</g>
	</g>
</g>
</svg>
