<?xml version="1.0" encoding="utf-8"?>
<!-- Generator: Adobe Illustrator 18.0.0, SVG Export Plug-In . SVG Version: 6.00 Build 0)  -->
<!DOCTYPE svg PUBLIC "-//W3C//DTD SVG 1.1//EN" "http://www.w3.org/Graphics/SVG/1.1/DTD/svg11.dtd">
<svg version="1.1" id="Layer_1" xmlns="http://www.w3.org/2000/svg" xmlns:xlink="http://www.w3.org/1999/xlink" x="0px" y="0px"
	 viewBox="0 0 48 48" enable-background="new 0 0 48 48" xml:space="preserve">
<g>
	<path fill="#F2F2F2" d="M45.6,45.7H2.4c-1.3,0-2.4-1.1-2.4-2.4l0,0c0-1.3,1.1-2.4,2.4-2.4h43.2c1.3,0,2.4,1.1,2.4,2.4l0,0
		C48,44.6,46.9,45.7,45.6,45.7z"/>
	<polygon fill="#ACB3BA" points="39.6,48 8.4,48 4.3,45.7 43.7,45.7 	"/>
	<path fill="#40596B" d="M45.4,40.9H2.6V11.5c0-1.1,0.9-2,2-2h38.8c1.1,0,2,0.9,2,2V40.9z"/>
	<rect x="6.6" y="13.5" fill="#FFFFFF" width="34.8" height="23.3"/>
	<path fill="#ACB3BA" d="M28.1,44.1h-8.2c-0.5,0-0.8-0.4-0.8-0.8l0,0c0-0.5,0.4-0.8,0.8-0.8h8.2c0.5,0,0.8,0.4,0.8,0.8l0,0
		C28.9,43.7,28.5,44.1,28.1,44.1z"/>
	<path fill="#334A5E" d="M45.9,30.5H29.3c-1.1,0-2-0.9-2-2V2c0-1.1,0.9-2,2-2h16.5c1.1,0,2,0.9,2,2v26.5
		C47.9,29.7,47,30.5,45.9,30.5z"/>
	<rect x="29.9" y="3.3" fill="#84DBFF" width="15.5" height="21.7"/>
	<path fill="#ACB3BA" d="M40.8,2.2h-6.3C34.2,2.2,34,2,34,1.8V1.6c0-0.2,0.2-0.4,0.4-0.4h6.3c0.2,0,0.4,0.2,0.4,0.4v0.2
		C41.2,2,41,2.2,40.8,2.2z"/>
	<circle fill="#ACB3BA" cx="37.6" cy="27.8" r="1.6"/>
	<polygon fill="#FF7058" points="39.6,15.9 32.5,11 32.5,13.5 26.1,13.5 26.1,18.3 32.5,18.3 32.5,20.9 	"/>
	<polygon fill="#FFD15C" points="18.4,21.8 25.4,16.8 25.4,19.4 31.8,19.4 31.8,24.2 25.4,24.2 25.4,26.7 	"/>
</g>
</svg>
