<?xml version="1.0" encoding="utf-8"?>
<!-- Generator: Adobe Illustrator 18.0.0, SVG Export Plug-In . SVG Version: 6.00 Build 0)  -->
<!DOCTYPE svg PUBLIC "-//W3C//DTD SVG 1.1//EN" "http://www.w3.org/Graphics/SVG/1.1/DTD/svg11.dtd">
<svg version="1.1" id="Layer_1" xmlns="http://www.w3.org/2000/svg" xmlns:xlink="http://www.w3.org/1999/xlink" x="0px" y="0px"
	 viewBox="0 0 48 48" enable-background="new 0 0 48 48" xml:space="preserve">
<g>
	<g>
		<g>
			<g>
				<path fill="#E8EAE9" d="M27.5,48H3c-1.7,0-3-1.3-3-3V3c0-1.7,1.3-3,3-3h24.6c1.7,0,3,1.3,3,3v42C30.5,46.7,29.2,48,27.5,48z"/>
				<rect x="0" y="6.1" fill="#415A6B" width="30.6" height="32.7"/>
			</g>
			<circle fill="#ADB3BA" cx="14.9" cy="43.4" r="2.7"/>
			<g>
				<path fill="#ADB3BA" d="M19.1,2.6H12c-0.4,0-0.7,0.3-0.7,0.7S11.6,4,12,4h7.1c0.4,0,0.7-0.3,0.7-0.7S19.5,2.6,19.1,2.6z"/>
			</g>
		</g>
		<g>
			<g>
				<g>
					<g>
						<path fill="#8AD7F8" d="M48,5.1v17.6c0,1-0.8,1.8-1.8,1.8H34.3L24,31.1v-6.6h-1.7c-1,0-1.8-0.8-1.8-1.8V5.1
							c0-1,0.8-1.8,1.8-1.8h23.9C47.2,3.3,48,4.1,48,5.1z"/>
					</g>
				</g>
				<g>
					<circle fill="#FFFFFF" cx="34.2" cy="9.6" r="3.2"/>
					<path fill="#FFFFFF" d="M41.1,21.5c0-3.7-3.1-6.8-6.8-6.8s-6.8,3-6.8,6.8H41.1z"/>
				</g>
			</g>
		</g>
	</g>
</g>
</svg>
