<?xml version="1.0" encoding="utf-8"?>
<!-- Generator: Adobe Illustrator 18.0.0, SVG Export Plug-In . SVG Version: 6.00 Build 0)  -->
<!DOCTYPE svg PUBLIC "-//W3C//DTD SVG 1.1//EN" "http://www.w3.org/Graphics/SVG/1.1/DTD/svg11.dtd">
<svg version="1.1" id="Layer_1" xmlns="http://www.w3.org/2000/svg" xmlns:xlink="http://www.w3.org/1999/xlink" x="0px" y="0px"
	 viewBox="0 0 48 48" enable-background="new 0 0 48 48" xml:space="preserve">
<g>
	<g>
		<g>
			<path fill="#FFD15C" d="M24.9,9.1c-1.2-0.5-2.5-0.4-3.6,0.2l-1.7,0.9c-1.8,1-3.8,1.3-5.8,0.9v6.3h12V9.5L24.9,9.1z"/>
		</g>
		<g>
			<g>
				<path fill="#FFD15C" d="M25.5,12.2c0,0,1.9,0.8,4.7,3.2c2.8,2.4,4.3,3.9,4.5,5.1c0.2,0.8,0.1,1.7-0.4,2.3
					c-0.5,0.6-1.3,0.9-2,0.5c-0.2-0.1-0.3-0.2-0.4-0.4c0,0,0.3,1.7-0.9,2.2c-1.2,0.5-1.6,0-1.6,0s0.3,1.4-0.7,1.8
					c-1,0.5-2.3-0.4-2.3-0.5c0,0-0.2,1.5-1.5,1.4c-1.3-0.1-1.7-1-1.7-1s-5.5-4.5-7-5.1c-1.6-0.6-2.6-1.1-4.7-1.4
					c-2-0.3-2.4-0.3-2.4-0.3l1-9.6c0,0,5.4,1,7.2,1.9c0,0,2.6,0.9,4.6,0.3S25.5,12.2,25.5,12.2z"/>
			</g>
			<g>
				<path fill="#F7B64C" d="M32,22.5c0-0.1-0.1-0.3-0.2-0.4c-0.1-0.1-0.2-0.3-0.2-0.4c-0.2-0.3-0.4-0.6-0.6-0.8
					c-0.1-0.1-0.2-0.3-0.3-0.4c-0.1-0.1-0.2-0.3-0.3-0.4c-0.1-0.3-0.2-0.6-0.3-0.8c-0.1-0.5-0.2-0.9-0.2-0.9s0,0.3,0.1,0.9
					c0.1,0.3,0.1,0.6,0.3,0.9c0.1,0.2,0.1,0.3,0.2,0.4c0.1,0.1,0.2,0.3,0.3,0.4c0.2,0.3,0.4,0.5,0.6,0.8c0.1,0.1,0.2,0.3,0.2,0.4
					c0.1,0.1,0.1,0.3,0.2,0.4c0.1,0.2,0.1,0.3,0.1,0.5c0.1,0.1,0.2,0.2,0.3,0.3l0,0c0,0,0-0.1-0.1-0.2C32.1,22.9,32.1,22.7,32,22.5z
					"/>
				<path fill="#F7B64C" d="M29.6,25.1c-0.2-0.3-0.5-0.7-0.8-1.1c-0.2-0.2-0.3-0.4-0.5-0.6c-0.1-0.2-0.3-0.3-0.4-0.5
					c-0.1-0.2-0.1-0.3-0.1-0.4c0-0.1,0-0.2,0-0.2s0,0.1,0,0.2c0,0.1,0,0.3,0.1,0.4c0,0.1,0.1,0.2,0.1,0.3c0.1,0.1,0.1,0.2,0.2,0.3
					c0.1,0.2,0.3,0.4,0.4,0.6c0.3,0.4,0.5,0.8,0.7,1.1c0,0,0,0,0,0s0.1,0.1,0.3,0.2C29.7,25.3,29.7,25.2,29.6,25.1z"/>
				<path fill="#F7B64C" d="M26,25.7c-0.2-0.3-0.3-0.5-0.5-0.7c-0.1-0.2-0.2-0.3-0.2-0.3s0.1,0.1,0.2,0.3c0.1,0.2,0.3,0.5,0.4,0.7
					c0.1,0.3,0.2,0.6,0.3,0.8c0,0.1,0.1,0.2,0.1,0.2c0.1-0.2,0.1-0.4,0.1-0.4C26.3,26.3,26.2,26,26,25.7z"/>
			</g>
			<g>
				<path fill="#F7B64C" d="M34.7,20.8l5.7-1.2L38.7,10c0,0-4.3,1.1-5.5,1.4c-1.2,0.4-2.2-0.3-2.2-0.3s-2.2-1.5-3.5-2.2
					c-1.2-0.8-2.3-0.2-2.3-0.2s-0.5,0.2-2.6,0.7c-2,0.5-1.8,2.6-1.8,2.6l-0.9,1.7c0,0,0.7,1.3,2.4,0.3c1-0.6,1.3-1,1.5-1.3
					c0.1-0.2,0.3-0.3,0.6-0.4c0.5,0,1.2-0.1,1.7,0.2c0.9,0.4,4.3,3,5,3.8C31.9,17.1,34.4,19.4,34.7,20.8z"/>
			</g>
			<path fill="#EAA43F" d="M24.1,10.8c0,0,0,0.1,0,0.3c0,0.5,0,0.9-0.2,1.4c0.1-0.1,0.2-0.1,0.2-0.1c0.1-0.4,0.1-0.8,0-1.2
				C24.2,10.9,24.1,10.8,24.1,10.8z"/>
			<g>
				<path fill="#F3F3F3" d="M21.5,13l0.5-1.1c0.1-0.7-0.5-0.4-1.1-0.1c0,0,0,0,0,0l-0.9,1.7C20.6,14,21.5,13,21.5,13z"/>
			</g>
			<g>
				<g>
					<path fill="#F7B64C" d="M15.5,21.6c-0.3-0.5-2.5-0.9-2.5-0.9s-0.5,1.5,0.6,2s1.7-0.6,1.7-0.6S15,23.3,16,24
						c1.1,0.7,1.9,0.1,1.9,0.1s-0.4,1.1,0.5,1.7c0.9,0.7,1.9,0,1.9,0l0,0c0,0.5,0.3,1,0.7,1.3c1.1,0.8,2.3-0.3,2.3-0.3
						c-0.1-0.4-0.1-0.7-0.3-0.7c0,0,0.8-1.8-0.2-2.5c-1-0.7-1.6,0.2-1.6,0.2s0.9-1.8-0.3-2.4c-1.3-0.6-1.8,0.6-2,0.9
						c0,0-0.2-1.3-1-1.5c-0.8-0.2-1.6-0.1-2.1,0.8L15.5,21.6z"/>
				</g>
				<g>
					<path fill="#F3F3F3" d="M16.5,21.5c0,0-0.5,1-0.2,1.4c0.3,0.3,0.7,0.5,1.1,0.4c0.4-0.1,0.6-0.6,0.6-0.6
						C18.1,22.3,17.2,21.4,16.5,21.5z"/>
				</g>
				<g>
					<path fill="#F3F3F3" d="M19.7,21.7c0,0,0.9,0.2,1.3,1.1c0,0-0.5,1.1-1.4,0.8c0,0-0.7-0.3-0.3-1.1
						C19.6,21.7,19.7,21.7,19.7,21.7z"/>
				</g>
				<g>
					<path fill="#F3F3F3" d="M21.2,24.7c0,0,0.3-0.8,0.3-0.9c0,0,0.7,0,1,1c0,0-0.3,0.9-1.1,0.7C21.5,25.4,20.9,25.2,21.2,24.7z"/>
				</g>
				<g>
					<path fill="#EAA43F" d="M20.3,25.9c0,0,0-0.1,0.1-0.3c0.1-0.2,0.2-0.5,0.3-0.7c0.1-0.3,0.2-0.5,0.3-0.7
						c0.1-0.2,0.2-0.3,0.2-0.3s0,0.1-0.1,0.3c-0.1,0.2-0.2,0.5-0.3,0.7c-0.1,0.3-0.2,0.5-0.3,0.7C20.4,25.7,20.3,25.9,20.3,25.9z"/>
				</g>
				<path fill="#EAA43F" d="M17.9,24.1c0,0,0.1-0.1,0.2-0.3c0.1-0.2,0.2-0.4,0.3-0.6c0.1-0.2,0.2-0.4,0.3-0.6c0-0.1,0.1-0.2,0.1-0.2
					c0-0.1,0-0.1,0-0.1s0,0.1,0,0.3c0,0.2-0.1,0.4-0.3,0.7c-0.1,0.2-0.3,0.4-0.4,0.6C18,24,17.9,24.1,17.9,24.1z"/>
				<g>
					<path fill="#EAA43F" d="M15.5,21.8C15.5,21.8,15.5,21.8,15.5,21.8c-0.1,0.1-0.1,0.2-0.1,0.2c0,0.1-0.1,0.1-0.1,0.2c0,0,0,0,0,0
						c0-0.1,0.1-0.1,0.1-0.1S15.5,21.9,15.5,21.8C15.5,21.8,15.5,21.8,15.5,21.8C15.5,21.8,15.5,21.8,15.5,21.8z"/>
				</g>
			</g>
		</g>
		<g>
			<g>
				<g>
					
						<rect x="35" y="10.1" transform="matrix(0.9733 -0.2295 0.2295 0.9733 -2.7295 8.7946)" fill="#E8EAE9" width="3" height="12.1"/>
				</g>
				<g>
					
						<rect x="36.9" y="7.3" transform="matrix(0.9733 -0.2294 0.2294 0.9733 -2.3105 9.9505)" fill="#415A6B" width="9.5" height="15.2"/>
				</g>
				<g>
					<circle fill="#344A5E" cx="43.3" cy="18.7" r="1.7"/>
				</g>
			</g>
			<g>
				<g>
					
						<rect x="10.1" y="10.1" transform="matrix(-0.9733 -0.2295 0.2295 -0.9733 19.092 34.4867)" fill="#E8EAE9" width="3" height="12.1"/>
				</g>
				<g>
					
						<rect x="1.6" y="7.3" transform="matrix(-0.9733 -0.2294 0.2294 -0.9733 9.1402 30.8844)" fill="#415A6B" width="9.5" height="15.2"/>
				</g>
				<g>
					<circle fill="#344A5E" cx="4.7" cy="18.7" r="1.7"/>
				</g>
			</g>
		</g>
	</g>
</g>
</svg>
