<?xml version="1.0" encoding="utf-8"?>
<!-- Generator: Adobe Illustrator 16.0.0, SVG Export Plug-In . SVG Version: 6.00 Build 0)  -->
<!DOCTYPE svg PUBLIC "-//W3C//DTD SVG 1.1//EN" "http://www.w3.org/Graphics/SVG/1.1/DTD/svg11.dtd">
<svg version="1.1" id="Layer_1" xmlns="http://www.w3.org/2000/svg" xmlns:xlink="http://www.w3.org/1999/xlink" x="0px" y="0px"
	 width="48px" height="48px" viewBox="0 0 48 48" enable-background="new 0 0 48 48" xml:space="preserve">
<g>
	<path fill="#8AD7F8" d="M48,48c-4.104-7.563-11.703-13.072-20.902-14.123C15.699,32.576,5.148,38.498,0,48H48z"/>
	<path fill="#FFFFFF" d="M10.119,48c0.566-0.65,1.234-1.234,1.535-2.041c0.424-1.135-0.1-1.521-0.625-2.414
		c-1.078-1.834,0.943-2.855,2.688-1.984c0.797,0.398,0.791,1.197,1.338,1.67c1.082,0.936,2.188,0.025,3.262-0.193
		c2.725-0.555,6.014,0.732,8.275,2.072c1.928,1.141,4.141,1.498,3.799-1.551c-0.139-1.246-0.543-2.594-1.719-3.162
		c-0.822-0.398-2.988-0.043-3.391-0.865c-0.555-1.131,1.156-2.396,2.07-2.576c0.871-0.172,1.92,0.061,2.668,0.539
		c1.715,1.096,0.549,1.531,0.385,2.977c-0.127,1.107,0.422,1.803,1.605,1.615c1.256-0.201,1.32-1.447,2.654-1.674
		c1.957-0.332,1.232,1.055,0.553,2.182c-0.557,0.924-1.574,2.412-1.574,3.52c0.002,1.627,0.82,0.947,1.861,0.773
		c1.41-0.236,2.156,0.65,3.559,0.223c1.354-0.412,2.041-0.584,1.297-1.969c-0.791-1.471-1.6-3.135-2.604-4.461
		c-0.773-1.021-2.141-1.301-2.678-2.352c-0.385-0.748-0.133-1.58-0.309-2.379c-6.051-2.604-13.045-3.064-19.756-0.725
		c-0.131,0.047-0.252,0.109-0.383,0.158c-0.982,0.568-1.918,1.176-2.77,1.803c-1.201,0.887-2.959,2.336-3.654,3.619
		C7.168,42.717,7.414,45.668,7.684,48H10.119z"/>
	<path fill="#F3705A" d="M40.924,16.925C40.924,7.577,33.348,0,24,0S7.074,7.577,7.074,16.925c0,4.727,1.943,8.996,5.066,12.067
		h-0.01L24.01,40.85l11.955-11.955c0.002-0.002,0.004-0.002,0.004-0.004l0.004-0.004C39.031,25.824,40.924,21.596,40.924,16.925"/>
	<path fill="#FFFFFF" d="M35.283,16.925c0,6.28-5.09,11.372-11.371,11.372c-6.279,0-11.371-5.092-11.371-11.372
		S17.633,5.554,23.912,5.554C30.193,5.554,35.283,10.645,35.283,16.925"/>
	<path fill="#FFD15C" d="M29.672,10.165H18.32c-0.598,0-1.084,0.484-1.084,1.084V22.6c0,0.6,0.486,1.084,1.084,1.084h11.352
		c0.6,0,1.084-0.484,1.084-1.084V11.249C30.756,10.649,30.271,10.165,29.672,10.165"/>
	<rect x="22.16" y="10.165" fill="#F7B64C" width="3.67" height="3.91"/>
</g>
</svg>
