<?xml version="1.0" encoding="utf-8"?>
<!-- Generator: Adobe Illustrator 18.0.0, SVG Export Plug-In . SVG Version: 6.00 Build 0)  -->
<!DOCTYPE svg PUBLIC "-//W3C//DTD SVG 1.1//EN" "http://www.w3.org/Graphics/SVG/1.1/DTD/svg11.dtd">
<svg version="1.1" id="Layer_1" xmlns="http://www.w3.org/2000/svg" xmlns:xlink="http://www.w3.org/1999/xlink" x="0px" y="0px"
	 viewBox="0 0 48 48" enable-background="new 0 0 48 48" xml:space="preserve">
<g>
	<path fill="#F2F2F2" d="M29.6,13.5V5.5H18.4v8.1c-7,2.3-12.1,9-12.1,16.8C6.3,40.1,14.2,48,24,48c9.8,0,17.7-7.9,17.7-17.7
		C41.7,22.5,36.6,15.8,29.6,13.5z"/>
	<path fill="#F2F2F2" d="M30.7,0H17.3c-0.6,0-1,0.4-1,1v3.5c0,0.6,0.4,1,1,1h13.3c0.6,0,1-0.4,1-1V1C31.7,0.4,31.2,0,30.7,0z"/>
	<rect x="18.4" y="5.5" fill="#E4EAEF" width="11.1" height="1.5"/>
	<path fill="#54C0EB" d="M38.2,23.7c0.9,2,1.5,4.3,1.5,6.6C39.7,39,32.7,46,24,46c-8.7,0-15.7-7-15.7-15.7c0-2.4,0.5-4.6,1.5-6.6
		c0,0,2.8-3.5,13.5,0C32.6,26.7,38.2,23.7,38.2,23.7z"/>
	<path fill="#84DBFF" d="M9.8,23.7c-0.9,2-1.5,4.3-1.5,6.6C8.3,39,15.3,46,24,46c8.7,0,15.7-7,15.7-15.7c0-2.4-0.5-4.6-1.5-6.6
		c0,0-2.8-3.5-13.5,0C15.4,26.7,9.8,23.7,9.8,23.7z"/>
	<circle fill="#84DBFF" cx="23.1" cy="19" r="2.1"/>
	<circle fill="#84DBFF" cx="27.2" cy="16.3" r="1.4"/>
	<circle fill="#84DBFF" cx="23.1" cy="14" r="0.9"/>
</g>
</svg>
