<?xml version="1.0" encoding="utf-8"?>
<!-- Generator: Adobe Illustrator 18.0.0, SVG Export Plug-In . SVG Version: 6.00 Build 0)  -->
<!DOCTYPE svg PUBLIC "-//W3C//DTD SVG 1.1//EN" "http://www.w3.org/Graphics/SVG/1.1/DTD/svg11.dtd">
<svg version="1.1" id="Layer_1" xmlns="http://www.w3.org/2000/svg" xmlns:xlink="http://www.w3.org/1999/xlink" x="0px" y="0px"
	 viewBox="0 0 48 48" enable-background="new 0 0 48 48" xml:space="preserve">
<g>
	<g>
		<g>
			<g>
				<path fill="#F7B64C" d="M23.3,41.5L23.3,41.5c-0.8-0.7-1.1-1.8-1-2.8l0,0c0.2-1-0.2-2.1-1-2.8c-0.8-0.7-1.1-1.7-1-2.8l0,0
					c0.2-1-0.2-2.1-1-2.8c-0.7-0.6-1-1.5-1-2.5l-8.1,2.8l5.1,15l8.6-2.9C24,42.3,23.7,41.9,23.3,41.5z"/>
				<path fill="#FFD15C" d="M26.1,43L26.1,43c-0.3-0.8-1.1-1.2-1.9-0.9l-8.7,3c-0.8,0.3-1.2,1.1-0.9,1.9c0.3,0.8,1.1,1.2,1.9,0.9
					l8.7-3C26,44.7,26.4,43.8,26.1,43z"/>
			</g>
			<g>
				<path fill="#344A5E" d="M41.8,12.3c-0.5,0.1-1,0.2-1.4,0.4L42,22.9c0.5,0.1,1,0.1,1.5,0c2.9-0.5,4.9-3.2,4.5-6.1
					C47.5,13.8,44.7,11.8,41.8,12.3z"/>
			</g>
			<g>
				<g>
					<path fill="#344A5E" d="M8.6,27.6l0.8,4.9c0.1,0.6,0.6,0.9,1.2,0.9l10.7-1.7c0.6-0.1,0.9-0.6,0.9-1.2l-0.8-4.9
						c-0.1-0.6-0.6-0.9-1.2-0.9L9.4,26.5C8.9,26.5,8.5,27.1,8.6,27.6z"/>
				</g>
				<path fill="#344A5E" d="M4.1,17.6c-2.7,0.9-4.5,3.7-4,6.6c0.5,2.9,3,5,5.8,5.1L4.1,17.6z"/>
				<g>
					<path fill="#E8EAE9" d="M12.9,14.1l-8.2,1.3c-1.2,0.2-2,1.3-1.8,2.5l1.8,11.6c0.2,1.2,1.3,2,2.5,1.8l8.2-1.3
						c8.8-1.4,17.9,0,25.9,4l-5-31.7C29.9,8.6,21.8,12.7,12.9,14.1z"/>
				</g>
				<g>
					<g>
						<path fill="#FFD15C" d="M43.4,35.8c-1.1,0.2-2.2-0.6-2.3-1.7l-5-31.7c-0.2-1.1,0.6-2.2,1.7-2.3s2.2,0.6,2.3,1.7l5,31.7
							C45.3,34.5,44.6,35.6,43.4,35.8z"/>
					</g>
				</g>
			</g>
		</g>
		<g>
			<path fill="#ADB3BA" d="M16.1,17.5L16.1,17.5c-0.1-0.7-0.8-1.2-1.5-1.1l-7.4,1.2c-0.7,0.1-1.2,0.8-1.1,1.5l0,0
				c0.1,0.7,0.8,1.2,1.5,1.1l7.4-1.2C15.7,18.8,16.2,18.2,16.1,17.5z"/>
			<path fill="#ADB3BA" d="M16.7,21.6L16.7,21.6c-0.1-0.7-0.8-1.2-1.5-1.1l-7.4,1.2c-0.7,0.1-1.2,0.8-1.1,1.5l0,0
				c0.1,0.7,0.8,1.2,1.5,1.1l7.4-1.2C16.4,23,16.9,22.3,16.7,21.6z"/>
			<path fill="#ADB3BA" d="M17.4,25.8L17.4,25.8c-0.1-0.7-0.8-1.2-1.5-1.1l-7.4,1.2c-0.7,0.1-1.2,0.8-1.1,1.5l0,0
				c0.1,0.7,0.8,1.2,1.5,1.1l7.4-1.2C17,27.1,17.5,26.5,17.4,25.8z"/>
		</g>
	</g>
</g>
</svg>
