<?xml version="1.0" encoding="utf-8"?>
<!-- Generator: Adobe Illustrator 18.0.0, SVG Export Plug-In . SVG Version: 6.00 Build 0)  -->
<!DOCTYPE svg PUBLIC "-//W3C//DTD SVG 1.1//EN" "http://www.w3.org/Graphics/SVG/1.1/DTD/svg11.dtd">
<svg version="1.1" id="Layer_1" xmlns="http://www.w3.org/2000/svg" xmlns:xlink="http://www.w3.org/1999/xlink" x="0px" y="0px"
	 viewBox="0 0 512 512" enable-background="new 0 0 512 512" xml:space="preserve">
<g>
	<path fill="#41596B" d="M498,71.9l-54.5,54.5l-55.9-10.7L377,59.8l54.5-54.5c-29.6-7.1-62,0.8-85.1,23.8
		c-19.3,19.3-28,45.1-26.2,70.4L219.9,200l-34.4,34.4l-86.2,86.2c-25.2-1.8-51.1,6.9-70.4,26.2C5.7,369.8-2.1,402.3,5,431.9
		l54.5-54.5l55.9,10.7l10.7,55.9l-54.5,54.5c29.6,7.1,62-0.8,85.1-23.8c19.3-19.3,28-45.1,26.2-70.3L231,356l110.5-110.5l62.3-62.3
		c25.2,1.8,51.1-6.9,70.4-26.2C497.3,133.9,505.2,101.5,498,71.9z"/>
	<path fill="#334A5E" d="M341.5,245.5L231,356l-26.4-26.4c-10.8-10.8-10.8-28.3,0-39.2L223,272l-37.6-37.6l34.4-34.4l37.6,37.6
		l18.5-18.4c10.8-10.8,28.3-10.8,39.1,0L341.5,245.5z"/>
	<g>
		<path fill="#89D6F7" d="M507.8,406.2l-102,102c-2.3,2.3-6.1,2.3-8.5,0l-201-201c-2.3-2.3-2.3-6.1,0-8.5l102-102
			c2.3-2.3,6.1-2.3,8.5,0l201,201C510.1,400,510.1,403.8,507.8,406.2z"/>
		<polygon fill="#F2F2F2" points="29.1,2.8 2.5,29.4 33.7,76.3 66.6,101.4 230.1,264.9 264.6,230.5 101,67 75.9,34 		"/>
	</g>
	<g>
		<path fill="#55BFE9" d="M395.1,456L395.1,456c-4.6,4.6-12,4.6-16.5,0l-130-130c-4.6-4.6-4.6-12,0-16.5l0,0c4.6-4.6,12-4.6,16.5,0
			l130,130C399.7,444,399.7,451.4,395.1,456z"/>
		<path fill="#55BFE9" d="M463.1,388l-14.9,14.9c-0.4,0.4-1.2,0.4-1.6,0l-145-145c-0.4-0.4-0.4-1.2,0-1.6l14.9-14.9
			c0.4-0.4,1.2-0.4,1.6,0l145,145C463.5,386.8,463.5,387.5,463.1,388z"/>
	</g>
</g>
</svg>
