<?xml version="1.0" encoding="utf-8"?>
<!-- Generator: Adobe Illustrator 19.0.1, SVG Export Plug-In . SVG Version: 6.00 Build 0)  -->
<svg version="1.1" id="Layer_1" xmlns="http://www.w3.org/2000/svg" xmlns:xlink="http://www.w3.org/1999/xlink" x="0px" y="0px"
	 viewBox="0 0 48 48" style="enable-background:new 0 0 48 48;" xml:space="preserve">
<style type="text/css">
	.st0{fill:#66C6B9;}
	.st1{fill:#F3F3F3;}
	.st2{fill:#415A6B;}
	.st3{fill:#CED6E0;}
	.st4{fill:#F3705A;}
	.st5{fill:#E8EAE9;}
	.st6{fill:#4ABAA5;}
	.st7{fill:#F05540;}
	.st8{fill:#FFD15C;}
	.st9{fill:#55C0EB;}
	.st10{fill:#8AD7F8;}
	.st11{fill:#344A5E;}
	.st12{fill:#FFFFFF;}
	.st13{fill:#F7B64C;}
	.st14{fill:#ADB3BA;}
	.st15{fill:#38A892;}
	.st16{fill:#ED9845;}
	.st17{fill:#2D4251;}
	.st18{fill:#304556;}
	.st19{fill:#A5AAAD;}
	.st20{fill:#2D4456;}
	.st21{fill:#4FB0E0;}
	.st22{fill:#2D4354;}
	.st23{fill:#E54C38;}
	.st24{fill:#2B4456;}
	.st25{fill:#2B404F;}
</style>
<g>
	<g>
		<g>
			<g>
				<g>
					<g>
						<path class="st3" d="M20.7,36.7c-2.5,0-4.5-2-4.5-4.5c0-0.7,0.6-1.3,1.3-1.3s1.3,0.6,1.3,1.3c0,1.1,0.9,2,2,2c1.1,0,2-0.9,2-2
							v-31C22.7,0.6,23.3,0,24,0s1.3,0.6,1.3,1.3v31C25.3,34.7,23.2,36.7,20.7,36.7z"/>
					</g>
				</g>
				<g>
					<g>
						<path class="st2" d="M25.3,3.5V1.3C25.3,0.6,24.7,0,24,0s-1.3,0.6-1.3,1.3v2.3H25.3z"/>
					</g>
				</g>
				<g>
					<g>
						<path class="st9" d="M8.3,20.5c2.7,0,5.2,1,7.1,2.7c2-2.6,5.1-4.2,8.6-4.2s6.6,1.7,8.6,4.2c1.9-1.7,4.4-2.7,7.1-2.7
							c1.7,0,3.2,0.4,4.6,1.1c0-11.2-9.1-20.3-20.3-20.3c-11.2,0-20.3,9.1-20.3,20.3C5.1,20.9,6.7,20.5,8.3,20.5z"/>
					</g>
				</g>
				<g>
					<g>
						<path class="st10" d="M32.6,23.2c0,0-0.1-0.8-0.2-2.1c-0.1-1.3-0.3-3.2-0.8-5.5c-0.2-1.1-0.5-2.3-0.8-3.6
							c-0.3-1.3-0.8-2.5-1.3-3.8c-0.6-1.3-1.2-2.6-2.1-3.7c-0.9-1.1-2.1-2-3.4-2.1c-0.2,0.1-0.8,0-1,0.2c-0.1,0.1-0.3,0.1-0.4,0.2
							c-0.1,0.1-0.3,0.2-0.4,0.3c-0.6,0.4-1.1,0.9-1.5,1.4c-0.9,1.1-1.6,2.4-2.1,3.7c-0.5,1.3-1,2.6-1.3,3.8
							c-0.4,1.2-0.6,2.5-0.8,3.6c-0.4,2.2-0.6,4.1-0.8,5.5c-0.1,1.3-0.2,2.1-0.2,2.1s0-0.8-0.1-2.1c0-0.7,0-1.5,0-2.4
							c0.1-0.9,0.1-2,0.3-3.1c0.1-1.1,0.3-2.4,0.6-3.7c0.3-1.3,0.7-2.7,1.2-4c0.6-1.4,1.2-2.8,2.2-4c0.5-0.6,1.1-1.2,1.8-1.7
							C21.7,2,21.8,1.9,22,1.7l0.7-0.3L23,1.4l0.3,0L24,1.3c1.9,0.1,3.4,1.3,4.3,2.6c1,1.3,1.6,2.7,2.2,4c0.5,1.4,0.9,2.7,1.2,4
							c0.3,1.3,0.5,2.5,0.6,3.7c0.2,1.1,0.2,2.2,0.3,3.1c0,0.9,0,1.7,0,2.4C32.6,22.4,32.6,23.2,32.6,23.2z"/>
					</g>
				</g>
			</g>
		</g>
		<g>
			<g>
				<g>
					<path class="st11" d="M20.7,29.2v-2.7c0-0.3,0.3-0.6,0.6-0.6h5.4c0.3,0,0.6,0.3,0.6,0.6v2.7h2.1v-2.7c0-1.5-1.2-2.7-2.7-2.7
						h-5.4c-1.5,0-2.7,1.2-2.7,2.7v2.7H20.7z"/>
				</g>
				<path class="st11" d="M38.2,30.7v15.2c0,1.2-0.9,2.1-2.1,2.1H12c-1.2,0-2.1-1-2.1-2.1V30.7c0-1.2,1-2.1,2.1-2.1H36
					C37.2,28.5,38.2,29.5,38.2,30.7z"/>
			</g>
			<g>
				<g>
					<path class="st2" d="M33.3,28.5v10.3c0,0.8-0.6,1.4-1.4,1.4H16.1c-0.8,0-1.4-0.6-1.4-1.4V28.5H33.3z"/>
				</g>
				<g>
					<path class="st5" d="M25.5,38.9v2.7c0,0.4-0.3,0.7-0.7,0.7h-1.6c-0.4,0-0.7-0.3-0.7-0.7v-2.7c0-0.4,0.3-0.7,0.7-0.7h1.6
						C25.2,38.1,25.5,38.5,25.5,38.9z"/>
				</g>
			</g>
		</g>
	</g>
</g>
</svg>
