<?xml version="1.0" encoding="utf-8"?>
<!-- Generator: Adobe Illustrator 18.0.0, SVG Export Plug-In . SVG Version: 6.00 Build 0)  -->
<!DOCTYPE svg PUBLIC "-//W3C//DTD SVG 1.1//EN" "http://www.w3.org/Graphics/SVG/1.1/DTD/svg11.dtd">
<svg version="1.1" id="Layer_1" xmlns="http://www.w3.org/2000/svg" xmlns:xlink="http://www.w3.org/1999/xlink" x="0px" y="0px"
	 viewBox="0 0 48 48" enable-background="new 0 0 48 48" xml:space="preserve">
<g>
	<g>
		<g>
			<g>
				<g>
					<circle fill="#E8EAE8" cx="13" cy="14.8" r="1.7"/>
				</g>
			</g>
		</g>
		<g>
			<g>
				<g>
					<path fill="#CED6E0" d="M14.6,14.4c0,0-0.1-0.1-0.1-0.1c-0.1-0.1-0.2-0.1-0.3-0.1c-0.4,0-0.8,0.1-1.2,0.2c-0.3,0-0.6,0-0.9,0
						c-0.2,0-0.4-0.1-0.4-0.3c0-0.1,0-0.1,0-0.2c0,0,0-0.1,0-0.1c0.3-0.4,0.9-0.7,1.4-0.6C13.9,13.2,14.4,13.7,14.6,14.4z"/>
				</g>
			</g>
		</g>
	</g>
	<g>
		<g>
			<g>
				<g>
					<path fill="#F26F5A" d="M21.9,48c0.6-1.5,1.8-4.8,2-5.3c0.2-0.6,0.8-1.1,0.8-1.1s0.4,0,0.5,0.7c0.1,0.5,0.7,3.8,1,5.7h6.7
						l0.2-3.5L32.1,36l-14-1.1l-2.4,9.7L15.6,48H21.9z"/>
				</g>
			</g>
		</g>
		<g>
			<g>
				<g>
					<path fill="#E8EAE8" d="M33.5,13.5c0,0,3.6,1.5,4,4.2c0.3,2.7-0.7,6.7-0.7,6.7s0.8,1.4,0.1,2.9c-0.7,1.5-1.5,2.3-1.5,2.3
						s-2.2-0.2-2.5-0.4c0,0,1.1,4.5,1.3,6.9s0.2,4.5,0,5.6c-0.2,1.1-0.4,2.1-0.3,3.1c0.1,1-0.1,1.3,0,1.6c0.1,0.2-0.2,0.6-0.2,0.6
						s-0.9-0.1-0.8-2.4c0.1-2.3-0.4-5.5-0.4-5.5l-1.2-11.8l1.4-11.3L33.5,13.5z"/>
				</g>
			</g>
		</g>
		<g>
			<g>
				<g>
					
						<ellipse transform="matrix(0.9988 4.864063e-002 -4.864063e-002 0.9988 0.3585 -1.4701)" fill="#FFD15C" cx="30.4" cy="6.6" rx="0.6" ry="1.3"/>
				</g>
			</g>
		</g>
		<g>
			<g>
				<g>
					
						<ellipse transform="matrix(0.9873 -0.1589 0.1589 0.9873 -0.7319 3.9411)" fill="#FFD15C" cx="24.3" cy="6.5" rx="0.6" ry="1.3"/>
				</g>
			</g>
		</g>
		<g>
			<g>
				<g>
					<path fill="#FFD15C" d="M30.5,4.7c0,0-0.2,3.7-0.7,4.5c0,0-0.7,2.2,1.1,3.2l-0.3,4.1l-7.9-0.7l0.7-3.1c0,0,0.8-0.8,0.8-0.8
						s0.6-0.1,0.6-0.8S24.8,9,24.8,9s-0.6-1.6-0.4-2.5c0.2-0.9,3.4-4.7,3.4-4.7S31.2,2.3,30.5,4.7z"/>
				</g>
			</g>
		</g>
		<g>
			<g>
				<g>
					<path fill="#67C5B8" d="M32.8,35.3c-0.1-0.2-0.1-0.4-0.2-0.6c0-0.1-0.1-0.2-0.1-0.2c0.1,0.2,0,0,0-0.1c-0.2-0.5-0.3-1-0.5-1.4
						c-0.3-1-0.6-2-0.7-3c-0.2-1.1-0.2-2.2-0.1-3.3c0.1-1,0.3-2.1,0.6-3.1l-0.1-0.7l0.6-9.3c0,0-0.7-1.3-1.8-1.4
						c0,0,0.5,0.1,0.2,0.5c-0.3,0.4-2.1,2-3.5,1.9c-1.4,0-3.7-1.4-3.4-2.4l-1.2,0.6L18,35.4c0,0,0.2,1.4,5,1.9
						c4.9,0.5,7.9,0.4,9.2-0.9c0.3-0.3,0.5-0.6,0.6-0.9C32.8,35.4,32.8,35.4,32.8,35.3z"/>
				</g>
			</g>
		</g>
		<g>
			<g>
				<g>
					<path fill="#425A6B" d="M33.7,46.9l-1.1,0.8c0,0-0.2-0.5-0.1-1.1c0-0.7-0.6-7.4-0.8-8c-0.2-0.6-0.9-6.9-1-7.4
						c-0.1-0.6-0.3-5.6-0.2-6c0.1-0.4,0-2.5,0-2.5s1-7.9,1.1-8.9c0-0.8-0.4-1.3-0.7-1.5c1.1,0.3,2.1,0.8,2.9,1.4c0,0.3,0,0.7,0,1
						c0,0.7-0.9,4-1.5,5.9c-0.6,1.9-0.5,5.3-0.5,7s0.8,6.2,1,7.3c0.2,1.1,0.6,5.8,0.7,7s0,3.9-0.1,4.2
						C33.5,46.4,33.7,46.9,33.7,46.9z"/>
				</g>
			</g>
		</g>
		<g>
			<g>
				<g>
					<path fill="#E8EAE8" d="M22.7,19.5l-3,9.5l-2.8,10.4l-1.6,5.4l-0.3,0c0,0,0.3-1.4,0.4-2.1c0-0.7,0.3-2.4,0.3-2.4
						c-0.1-2.3,1.1-4.1,1.1-4.1s0.1-2.4,0.2-3.1c0.2-0.7,1.4-7.5,1.4-7.5l-2.8-3.9c0.3-2.2,2.6-7.1,3.4-7.7c0.8-0.6,1.8-1,2.4-1.1
						c0.3-0.1,0.9-0.2,1.5-0.4C22.7,14.5,22.7,19.5,22.7,19.5z"/>
				</g>
			</g>
		</g>
		<g>
			<g>
				<g>
					<path fill="#425A6B" d="M24.1,11.9c0,0-0.6,0.9-0.6,2.3c0,1.4,0.2,3.2,0.2,3.4c0.1,0.3,0,1.8-0.3,2.6c-0.4,0.8-1.5,4.9-1.5,4.9
						s-0.7,2.7-0.7,3.1c-0.1,0.4-1.3,3.6-1.4,3.9c-0.1,0.3-0.7,3-1,3.7c-0.3,0.7-1.7,4.3-1.8,4.8c-0.2,0.4-0.8,2.9-0.8,2.9
						s-0.1,1.6-0.7,1.9l-0.6-0.6c0,0,0.5-0.9,0.5-1.5c0-0.6,0.8-4,0.9-4.6c0.2-0.6,1.3-4,1.3-4s0.7-2.9,1-3.8
						c0.3-0.8,0.6-1.8,0.8-2.3c0.2-0.5,1-3.8,1.1-4.3s0.9-4,1.1-4.7c0.1-0.6-0.3-4.4-0.3-4.4s-0.2-1.8,0.4-2.5
						C22.4,12.6,23.2,12.3,24.1,11.9z"/>
				</g>
			</g>
		</g>
		<g>
			<g>
				<g>
					<path fill="#425A6B" d="M28.5,2.3c0,0,1,0.5,1.4,1.4c0.4,0.9,0.6,3.2,0.6,3.9c-0.1,0.7-0.4,1.8-0.6,2.2c0,0,0.8-1.5,0.8-2.6
						c0,0,0,0.5,0,0.6c0,0,0.3-1.2,0.3-1.8c0-0.6-0.1-0.8-0.1-0.8s0.4,0.8,0.2,1.5c0,0,0.5-1.1,0.3-2.4C31.3,4,29.4,2.2,28.5,2.3z"
						/>
				</g>
			</g>
		</g>
		<g>
			<g>
				<g>
					<path fill="#ACB2BA" d="M30.6,1.8l-7.2,1.4l-0.3,0.5c0,0,0-1.1,0.4-1.7c0.4-0.6,1.1-1.1,1.1-1.1c0.7-0.4,1.5-0.7,2.4-0.8
						C27.1,0,29.4-0.3,30.6,1.8z"/>
				</g>
			</g>
		</g>
		<g>
			<g>
				<g>
					<path fill="#425A6B" d="M29.3,2.4c-1,0.1-0.5,0.6-1.7,1c-0.7,0.3-1.2,1-1.4,1.2c-0.5,0.6-1.4,0.9-1.7,1.6
						c-0.1,0.3-0.1,0.6-0.2,0.8c-0.1,1.1-0.4,2.2-0.8,3.3c0,0,0.6-2.9,0.6-3.4c0,0-0.2,0.6-0.4,1.1c0,0-0.2-2.2,0.2-3.3
						C24.5,3.7,27.7,1.7,29.3,2.4z"/>
				</g>
			</g>
		</g>
		<g>
			<g>
				<g>
					<path fill="#E8EAE8" d="M23.8,6.9c0,0-0.2-2.2,1.2-3.1c1.4-1,3.7-1.5,4.7-1c1,0.6,1.6,1.4,1.7,1.5c0,0-0.2-2.9-1.7-3.3
						c-1.6-0.4-3.3,0.1-4.1,0.4c-0.8,0.3-2.6,1-2.8,1.8c-0.3,0.9,0.7,2.6,0.7,2.6S23.4,6.5,23.8,6.9z"/>
				</g>
			</g>
		</g>
		<g>
			<g>
				<g>
					<path fill="#F5B54C" d="M29.7,10.6c-1.3,1.7-4.5,0.7-4.9-1.5c0,0,0,0,0-0.1c0,0,0.9,1.5,2.1,1.8c1.2,0.3,2.3-0.7,2.9-1.6
						C29.8,9.2,29.6,9.9,29.7,10.6z"/>
				</g>
			</g>
		</g>
		<g>
			<g>
				<g>
					<g>
						<path fill="#F26F5A" d="M29.6,21.8c1.5-5.6,3-10.8,4.5-15.1c0.2-0.9,2.2-0.4,2,0.4c-1.4,4.9-3.1,9.9-5,15.1L29.6,21.8z"/>
					</g>
				</g>
			</g>
			<g>
				<g>
					<g>
						<path fill="#F5B54C" d="M33.4,17.5c-0.1,0-0.1-0.1-0.2-0.1c-0.1,0-0.1-0.1-0.2-0.1c-0.1,0-0.1-0.1-0.2-0.1
							c-0.1,0-0.1-0.1-0.2-0.1L32.4,17l-0.2-0.1c-0.1-0.1-0.2-0.2-0.4-0.2l0,0c0,0,0,0,0,0c0,0,0,0,0,0c0,0,0,0,0,0c0,0,0,0-0.1,0
							c0,0-0.1,0-0.1,0c0,0-0.1,0-0.1,0c0,0,0,0-0.1,0c0,0,0,0-0.1,0c0,0-0.1,0-0.1,0.1c0,0-0.1,0-0.1,0.1c0,0-0.1,0-0.1,0.1
							s-0.1,0-0.1,0.1c-0.1,0-0.1,0.1-0.2,0.2c0,0-0.1,0.1-0.1,0.1c0,0-0.1,0.1-0.1,0.1c-0.1,0.1-0.1,0.1-0.1,0.2c0,0,0,0.1-0.1,0.1
							c0,0,0,0,0,0.1c0,0,0,0,0,0.1c0,0,0,0,0-0.1c0,0,0,0,0-0.1c0,0,0-0.1,0-0.1c0,0,0-0.1,0.1-0.1c0,0,0-0.1,0.1-0.1
							c0,0,0.1-0.1,0.1-0.1c0,0,0.1-0.1,0.1-0.1c0.1-0.1,0.1-0.1,0.2-0.2c0,0,0.1-0.1,0.1-0.1c0,0,0.1,0,0.1-0.1c0,0,0.1,0,0.1-0.1
							c0,0,0,0,0.1,0c0,0,0,0,0.1,0c0,0,0,0,0.1,0c0,0,0,0,0.1,0c0,0,0.1,0,0.1,0c0,0,0.1,0,0.1,0c0,0,0,0,0.1,0c0,0,0,0,0,0
							c0,0,0,0,0,0c0,0,0,0,0,0l0,0c0.1,0.1,0.2,0.2,0.4,0.2c0.1,0.1,0.2,0.2,0.4,0.2l0.2,0.1l0.2,0.1L33.4,17.5z"/>
					</g>
				</g>
			</g>
			<g>
				<g>
					<g>
						<g>
							
								<ellipse transform="matrix(0.9965 8.300330e-002 -8.300330e-002 0.9965 1.9578 -2.4295)" fill="#F05640" cx="30.2" cy="22.3" rx="1.2" ry="1"/>
						</g>
					</g>
				</g>
				<g>
					<g>
						<g>
							
								<ellipse transform="matrix(0.9965 8.300201e-002 -8.300201e-002 0.9965 1.9789 -2.4266)" fill="#F26F5A" cx="30.2" cy="22.6" rx="0.9" ry="0.7"/>
						</g>
					</g>
				</g>
			</g>
		</g>
		<g>
			<g>
				<g>
					<path fill="#FFD15C" d="M30,18.9c0,0,0.2,0.3,0.5,0c0,0,0.4-0.1,0.4-0.1c0,0,0.6,0.2,0.6,0.2c0,0,0.4,0.5,0.4,0.6l-0.7,1.9
						c0,0,0.4,0.8,0.5,1c0.1,0.2,0.2,1.1,0.2,1.6c0,0.5,0.1,2.3,0.4,2.9c0.3,0.6,0.3,1,0.4,1.4c0.1,0.3,0.6,0.6,0.8,0.9
						s0.7,0.2,0.9,0.1c0.2-0.1,1-0.4,1-0.4s0.4-2.2,0.2-2.8c-0.2-0.6-0.4-1.3-0.8-1.7c0,0-1.2-2.6-1.4-2.8l0.1-2.3
						c0,0,0.2-0.5,0.3-0.7c0.1-0.3,0-0.5-0.2-0.6c0,0,0.1-0.4-0.3-0.7c-0.4-0.3-1.5-0.9-1.5-0.9s-0.1-0.1-0.4,0
						c-0.3,0.1-0.7,0.5-0.7,0.5s-0.3,0.3-0.4,0.6L30.1,18c-0.1,0.1-0.1,0.3,0,0.5L30,18.9z"/>
				</g>
			</g>
		</g>
		<g>
			<g>
				<g>
					<path fill="#F5B54C" d="M32.5,18.8c-0.1-0.1-0.2-0.2-0.3-0.3c0,0,0,0-0.1-0.1c0,0-0.1,0-0.1,0c0,0-0.1,0-0.1,0c0,0-0.1,0-0.1,0
						c0,0-0.1,0-0.1,0c0,0-0.1,0-0.1,0c-0.1,0-0.1,0-0.2,0c-0.1,0-0.2,0-0.3-0.1c-0.1,0-0.2,0-0.3-0.1l0,0l0,0c0,0,0,0-0.1,0
						c0,0,0,0,0,0c0,0-0.1,0-0.1,0c0,0,0,0,0,0c0,0,0,0,0,0c0,0,0,0,0,0c0,0,0,0,0,0c-0.1,0-0.1,0.1-0.2,0.1c-0.1,0-0.1,0.1-0.2,0.1
						l0,0c0.1,0,0.1,0,0.2-0.1c0.1,0,0.1-0.1,0.2-0.1l0,0l0,0c0,0,0,0,0,0c0,0,0,0,0,0c0,0,0,0,0,0c0,0,0,0,0,0c0,0,0.1,0,0.1,0
						c0,0,0,0,0,0c0,0,0,0,0,0c0.1,0,0.2,0,0.3,0.1c0.1,0,0.2,0,0.3,0.1c0.1,0,0.1,0,0.2,0c0,0,0.1,0,0.1,0c0,0,0.1,0,0.1,0
						c0,0,0.1,0,0.1,0c0,0,0.1,0,0.1,0c0,0,0,0,0.1,0c0,0,0,0,0.1,0.1l0,0C32.2,18.7,32.4,18.8,32.5,18.8l0.1,0.2
						c0.1,0,0.1,0.1,0.2,0.1c-0.1-0.1-0.1-0.1-0.2-0.2L32.5,18.8z"/>
				</g>
			</g>
			<g>
				<g>
					<path fill="#F5B54C" d="M32.6,18.2L32.4,18l-0.2-0.2l0,0c0,0-0.1,0-0.1-0.1c0,0-0.1,0-0.1,0c0,0-0.1,0-0.1,0c0,0-0.1,0-0.1,0
						c0,0,0,0-0.1,0l0,0l0,0l0,0c0,0-0.1,0-0.1,0c0,0-0.1,0-0.1,0c0,0-0.1,0-0.1,0c-0.1,0-0.1,0-0.2,0.1c-0.1,0-0.1,0-0.2,0.1
						c-0.1,0-0.3,0.1-0.4,0.1l0,0l0,0l-0.1,0.1l-0.1,0.1c0,0,0,0,0,0l0,0c0,0-0.1,0.1-0.1,0.1c0,0,0,0,0,0c0,0,0.1-0.1,0.1-0.1l0,0
						c0,0,0,0,0,0l0.1-0.1l0.1-0.1c0.1,0,0.3-0.1,0.4-0.1c0.1,0,0.3-0.1,0.4-0.1c0,0,0.1,0,0.1,0c0,0,0.1,0,0.1,0c0,0,0.1,0,0.1,0
						l0,0l0,0l0,0c0,0,0,0,0.1,0c0,0,0.1,0,0.1,0c0,0,0.1,0,0.1,0c0,0,0.1,0,0.1,0c0,0,0.1,0,0.1,0l0,0l0.2,0.1L32.6,18.2
						c0.1,0.1,0.1,0.1,0.2,0.2c0.1,0,0.2,0.1,0.2,0.1c-0.1-0.1-0.2-0.1-0.2-0.2C32.7,18.3,32.7,18.2,32.6,18.2z"/>
				</g>
			</g>
			<g>
				<g>
					<path fill="#F5B54C" d="M32.3,17.4L32,17.3l-0.3-0.1l0,0l0,0c0,0,0,0-0.1,0c0,0,0,0-0.1,0c0,0-0.1,0-0.1,0c0,0,0,0-0.1,0
						c0,0,0,0-0.1,0c0,0-0.1,0-0.1,0c-0.2,0.1-0.3,0.1-0.5,0.2c-0.1,0-0.1,0.1-0.2,0.1l-0.1,0.1l0,0c0,0,0,0,0,0l0,0l0,0l0,0
						c0,0,0,0,0,0l0,0l0.1,0l0.2-0.1c0.2-0.1,0.3-0.1,0.5-0.2c0,0,0.1,0,0.1,0l0.1,0c0,0,0,0,0.1,0c0,0,0.1,0,0.1,0c0,0,0,0,0.1,0
						c0,0,0,0,0.1,0l0.3,0.1L32.3,17.4c0.1,0.1,0.2,0.1,0.3,0.2c0.1,0,0.2,0.1,0.3,0.1c-0.1,0-0.2-0.1-0.3-0.1
						C32.5,17.5,32.4,17.5,32.3,17.4z"/>
				</g>
			</g>
		</g>
		<g>
			<g>
				<g>
					<g>
						<path fill="#FFD15C" d="M18.3,25.3c-0.2,0.8-0.4,2.2-0.7,3.5c-0.5-0.5-1.6-1.8-1.8-2.1c-0.2-0.4-1.5-3-1.8-3.9
							c-0.4-0.9-0.6-1.5-0.6-1.5s-0.2-0.3-0.3-0.7c0,0-0.7-0.9-0.9-1.4c-0.2-0.5-0.7-0.7-0.7-0.7s-0.2-0.1-0.2-0.5
							c0,0-0.3-0.2-0.3-0.5c0-0.3,0.2-0.9,0.2-0.9l-0.7-1.1c0,0-0.1-0.2,0-0.4c0.1-0.1,0.4-0.4,0.7-0.6c0.1-0.1,0.2-0.1,0.3-0.2
							c0.3-0.1,0.5-0.1,0.5-0.1s0.3,0.3,0,0.5c-0.3,0.2-0.4,0.3-0.5,0.4c0,0-0.1,0.2-0.1,0.3c0,0,0,0,0,0l0.2,0.3c0,0,0,0,0-0.1
							c0,0,0.1-0.1,0.2-0.1c0.2,0,1.1,0.1,1.3,0.2c0.1,0.1,0.3,0.2,0.3,0.4c0,0,0,0.1,0,0.1c0,0,0.4,0,0.4-0.3c0,0,0,0,0,0
							c0.5-0.3,0.8-0.8,0.9-1.3c0-0.3,0-0.7-0.2-1c0.5-0.1,0.3,0.9,0.3,1.1c0,0.3,0,1.7,0.1,1.9c0,0,0.2,1.3,0.1,1.8
							c-0.1,0.5,0.2,1.8,0.9,2.9C16.4,22.5,17.8,24.5,18.3,25.3z"/>
					</g>
				</g>
			</g>
			<g>
				<g>
					<g>
						<path fill="#F5B54C" d="M13.8,17.3L13.8,17.3L13.8,17.3L13.8,17.3c0-0.1,0-0.1,0-0.1l0,0c0,0,0,0,0,0c0,0,0,0,0,0l0,0l0,0
							c0,0,0,0,0,0c0,0,0,0,0,0c0,0,0,0,0,0c0,0,0,0,0,0c0,0,0,0-0.1,0c0,0,0,0,0,0c0,0,0,0,0,0c0,0,0,0,0,0c0,0,0,0,0-0.1
							c0,0,0-0.1,0-0.1l0-0.1c0,0,0-0.1,0-0.1l0,0.2v0v0c0,0,0,0.1,0,0.1c0,0,0,0,0,0.1c0,0,0,0,0,0c0,0,0,0,0,0c0,0,0,0,0,0l0,0
							l0,0c0,0,0,0,0.1,0c0,0,0,0,0.1,0c0,0,0,0,0,0c0,0,0,0,0,0c0,0,0,0,0,0c0,0,0,0,0,0l0,0l0,0c0,0,0,0,0,0c0,0,0,0,0,0l0,0
							L13.8,17.3L13.8,17.3L13.8,17.3L13.8,17.3c-0.1,0.1-0.1,0.1-0.1,0.2c0,0,0,0.1,0,0.1c0,0,0,0,0,0.1l0,0l0,0l0,0l0,0
							c0,0.1-0.1,0.2-0.1,0.3c0,0,0,0,0,0c0,0,0,0,0,0c0,0,0,0,0,0c0,0,0,0,0,0c0,0,0,0,0,0l0,0l0,0c0,0,0,0,0,0c0,0,0,0,0,0
							c0,0,0,0,0,0c0,0,0,0,0,0l0,0l0,0l0,0c0,0,0,0,0,0c0,0,0,0,0,0c0,0,0,0,0,0.1l0,0v0c0,0,0,0,0,0.1c0,0,0,0,0,0.1
							c0,0,0,0.1,0,0.1c0,0,0,0,0,0c0,0,0,0,0,0c0,0,0,0,0,0c0,0,0,0,0,0c0,0,0,0,0,0l0,0l0,0c0,0,0,0,0,0c0,0,0,0,0,0c0,0,0,0,0,0
							c0,0,0,0,0,0c0,0,0,0,0,0c0,0,0-0.1,0-0.1c0,0,0,0,0-0.1c0,0,0,0,0,0c0,0,0,0,0,0c0,0,0,0,0,0c0,0,0,0,0,0l0,0c0,0,0,0,0,0
							c0,0,0,0,0.1,0c0,0,0,0,0,0c0,0,0,0,0,0l0,0l0,0c0,0,0,0,0,0c0,0,0,0,0,0c0,0,0,0,0.1,0c0,0,0,0,0,0c0,0,0,0,0,0l0,0l0,0
							c0-0.1,0.1-0.2,0.1-0.3l0,0l0,0c0,0,0,0,0-0.1c0,0,0-0.1,0-0.1C13.7,17.5,13.8,17.4,13.8,17.3L13.8,17.3L13.8,17.3z"/>
					</g>
				</g>
			</g>
			<g>
				<g>
					<g>
						<g>
							<path fill="#F5B54C" d="M11.9,18.4c0,0,0,0,0-0.1c0-0.1,0-0.2,0.1-0.3c0-0.1,0-0.1,0.1-0.2c0,0,0-0.1,0-0.1
								c0,0,0-0.1,0.1-0.1c0-0.1,0.1-0.1,0.2-0.2c0.1,0,0.2,0,0.2-0.1c0.1,0,0.2,0,0.2,0c0.1,0,0.2,0,0.2,0c0,0,0.1,0,0.1,0l0,0
								c0,0,0,0,0,0c0,0,0,0,0.1,0c0.1,0,0.1,0,0.2,0.1c0,0,0.1,0.1,0.1,0.1c0,0,0,0,0,0.1c0,0,0,0,0,0.1c0,0.1,0,0.1,0,0.1
								s0,0,0-0.1c0,0,0,0,0-0.1c0,0,0,0,0-0.1c0,0,0-0.1-0.1-0.1c0,0,0,0,0,0c0,0,0,0,0,0c0,0-0.1,0-0.1,0c0,0,0,0,0,0c0,0,0,0,0,0
								l0,0c0,0-0.1,0-0.1,0c-0.1,0-0.1,0-0.2,0c-0.1,0-0.2,0-0.2,0c-0.1,0-0.2,0-0.2,0c-0.1,0-0.1,0.1-0.2,0.1c0,0,0,0.1-0.1,0.1
								c0,0,0,0.1,0,0.1c0,0.1,0,0.1-0.1,0.2c0,0.1-0.1,0.2-0.1,0.3C12,18.3,11.9,18.4,11.9,18.4z"/>
						</g>
					</g>
				</g>
				<g>
					<g>
						<g>
							<path fill="#F5B54C" d="M13.4,16.9c0,0-0.1,0-0.3-0.1c-0.1,0-0.2,0-0.3-0.1c-0.1,0-0.1,0-0.2,0c0,0-0.1,0-0.1,0c0,0,0,0,0,0
								c0,0,0,0,0,0c-0.1,0-0.1,0-0.2,0.1c0,0,0,0-0.1,0.1c0,0,0,0.1-0.1,0.1c-0.1,0.1-0.1,0.2-0.2,0.3c-0.1,0.2-0.2,0.3-0.2,0.3
								s0.1-0.1,0.2-0.3c0.1-0.1,0.1-0.2,0.2-0.3c0,0,0-0.1,0.1-0.1c0,0,0-0.1,0.1-0.1c0.1-0.1,0.1-0.1,0.2-0.1c0,0,0,0,0.1,0
								c0,0,0,0,0.1,0c0,0,0.1,0,0.1,0c0.1,0,0.1,0,0.2,0c0.1,0,0.2,0.1,0.3,0.1C13.3,16.8,13.4,16.9,13.4,16.9z"/>
						</g>
					</g>
				</g>
			</g>
			<g>
				<g>
					<g>
						<polygon fill="#F5B54C" points="11.6,16 11.3,16.8 11.2,16.8 11.6,15.9 						"/>
					</g>
				</g>
			</g>
			<g>
				<g>
					<g>
						<path fill="#FFFFFF" d="M12.2,14.5c0,0-0.2,0.5-0.5,0.1C11.6,14.6,12,14.5,12.2,14.5z"/>
					</g>
				</g>
			</g>
		</g>
	</g>
</g>
</svg>
