<?xml version="1.0" encoding="utf-8"?>
<!-- Generator: Adobe Illustrator 18.0.0, SVG Export Plug-In . SVG Version: 6.00 Build 0)  -->
<!DOCTYPE svg PUBLIC "-//W3C//DTD SVG 1.1//EN" "http://www.w3.org/Graphics/SVG/1.1/DTD/svg11.dtd">
<svg version="1.1" id="Layer_1" xmlns="http://www.w3.org/2000/svg" xmlns:xlink="http://www.w3.org/1999/xlink" x="0px" y="0px"
	 viewBox="0 0 48 48" enable-background="new 0 0 48 48" xml:space="preserve">
<g>
	<g>
		<path fill="#ACB3BA" d="M5.8,42.2c-0.1-0.1-0.2-0.1-0.3,0l-0.7,0.7c-0.1,0.1-0.1,0.2,0,0.3c0.1,0.1,0.2,0.1,0.3,0l0.7-0.7
			C5.9,42.4,5.9,42.3,5.8,42.2z"/>
		<path fill="#ACB3BA" d="M9.5,38.5c-0.1-0.1-0.2-0.1-0.3,0L6.7,41c-0.1,0.1-0.1,0.2,0,0.3c0.1,0.1,0.2,0.1,0.3,0l2.6-2.6
			C9.6,38.7,9.6,38.6,9.5,38.5z"/>
		<path fill="#ACB3BA" d="M9,42.3c-0.1-0.1-0.2,0-0.2,0L8.2,43c-0.1,0.1,0,0.2,0,0.2c0,0,0,0,0,0c0.1,0.1,0.2,0,0.2,0L9,42.6
			C9.1,42.5,9,42.4,9,42.3z"/>
		<path fill="#ACB3BA" d="M9.8,41.5l1.1-1.6c0.1-0.1,0-0.2,0-0.2c-0.1-0.1-0.2,0-0.2,0l-1.1,1.6c-0.1,0.1,0,0.2,0,0.2c0,0,0,0,0,0
			C9.6,41.6,9.7,41.6,9.8,41.5z"/>
		<path fill="#ACB3BA" d="M10,45.5c-0.1,0-0.2,0-0.2,0.1l-0.3,0.6c0,0.1,0,0.1,0,0.2c0,0,0,0,0.1,0c0.1,0,0.2,0,0.2-0.1l0.3-0.6
			C10.2,45.7,10.1,45.6,10,45.5z"/>
		<path fill="#ACB3BA" d="M12.4,40.5c-0.1,0-0.2,0-0.2,0.1l-1.9,4.1c0,0.1,0,0.1,0,0.2c0,0,0,0,0.1,0c0.1,0,0.2,0,0.2-0.1l1.9-4.1
			C12.5,40.6,12.5,40.5,12.4,40.5z"/>
		<path fill="#ACB3BA" d="M13.6,43.3c0-0.1,0-0.2-0.1-0.2c-0.1,0-0.2,0-0.2,0.1l-0.5,2c0,0.1,0,0.1,0,0.2c0,0,0,0,0.1,0
			c0.1,0,0.2,0,0.2-0.1L13.6,43.3z"/>
		<path fill="#ACB3BA" d="M14,41.1c-0.1,0-0.2,0-0.2,0.1l-0.2,0.9c0,0.1,0,0.1,0,0.2c0,0,0,0,0.1,0c0.1,0,0.2,0,0.2-0.1l0.2-0.9
			C14.2,41.2,14.1,41.1,14,41.1z"/>
		<path fill="#ACB3BA" d="M15.5,46.7c0-0.1-0.1-0.2-0.2-0.2c-0.1,0-0.2,0.1-0.2,0.2L15,47.8c0,0.1,0,0.1,0.1,0.1c0,0,0.1,0,0.1,0.1
			c0.1,0,0.2-0.1,0.2-0.2L15.5,46.7z"/>
		<path fill="#ACB3BA" d="M15.9,41.6c0-0.1-0.1-0.2-0.2-0.2c-0.1,0-0.2,0.1-0.2,0.2l-0.3,3.7c0,0.1,0,0.1,0.1,0.1c0,0,0.1,0,0.1,0.1
			c0.1,0,0.2-0.1,0.2-0.2L15.9,41.6z"/>
		<path fill="#ACB3BA" d="M18,44.7c0-0.1-0.1-0.2-0.2-0.2c-0.1,0-0.2,0.1-0.2,0.2l0.1,1c0,0,0,0.1,0.1,0.1c0,0,0.1,0.1,0.1,0.1
			c0.1,0,0.2-0.1,0.2-0.2L18,44.7z"/>
		<path fill="#ACB3BA" d="M17.9,43.8l-0.2-2.2c0-0.1-0.1-0.2-0.2-0.2c-0.1,0-0.2,0.1-0.2,0.2l0.2,2.2c0,0,0,0.1,0.1,0.1
			c0,0,0.1,0.1,0.1,0.1C17.9,44,17.9,43.9,17.9,43.8z"/>
		<path fill="#ACB3BA" d="M6.4,30.3l-0.5,0c-0.1,0-0.2,0.1-0.2,0.2c0,0.1,0,0.1,0.1,0.1c0,0,0.1,0,0.1,0.1l0.5,0
			c0.1,0,0.2-0.1,0.2-0.2C6.6,30.4,6.5,30.3,6.4,30.3z"/>
		<path fill="#ACB3BA" d="M4.7,30.3c0-0.1-0.1-0.2-0.2-0.2l-2.2-0.2c-0.1,0-0.2,0.1-0.2,0.2c0,0.1,0,0.1,0.1,0.1c0,0,0.1,0,0.1,0.1
			l2.2,0.2C4.6,30.5,4.7,30.4,4.7,30.3z"/>
		<path fill="#ACB3BA" d="M6.4,32.1l-0.9,0.1c-0.1,0-0.2,0.1-0.2,0.2c0,0,0,0.1,0.1,0.1c0,0,0.1,0.1,0.1,0.1l0.9-0.1
			c0.1,0,0.2-0.1,0.2-0.2C6.6,32.1,6.5,32,6.4,32.1z"/>
		<path fill="#ACB3BA" d="M4.1,32.3l-3.9,0.3c-0.1,0-0.2,0.1-0.2,0.2c0,0,0,0.1,0.1,0.1c0,0,0.1,0.1,0.1,0.1l3.9-0.3
			c0.1,0,0.2-0.1,0.2-0.2C4.2,32.3,4.2,32.3,4.1,32.3z"/>
		<path fill="#ACB3BA" d="M6.7,33.8l-1.2,0.3c-0.1,0-0.2,0.1-0.1,0.2c0,0,0,0.1,0,0.1c0,0,0.1,0.1,0.2,0l1.2-0.3
			c0.1,0,0.2-0.1,0.1-0.2C6.9,33.9,6.8,33.8,6.7,33.8z"/>
		<path fill="#ACB3BA" d="M4.1,34.5l-1.5,0.4c-0.1,0-0.2,0.1-0.1,0.2c0,0,0,0.1,0,0.1c0,0,0.1,0.1,0.2,0l1.5-0.4
			c0.1,0,0.2-0.1,0.1-0.2C4.3,34.5,4.2,34.5,4.1,34.5z"/>
		<path fill="#ACB3BA" d="M7.5,35.6c0-0.1-0.1-0.1-0.2-0.1l-2.2,1C5,36.6,5,36.7,5,36.8c0,0,0,0,0,0.1c0.1,0.1,0.1,0.1,0.2,0l2.2-1
			C7.5,35.8,7.5,35.7,7.5,35.6z"/>
		<path fill="#ACB3BA" d="M3.2,37.6c0-0.1-0.1-0.1-0.2-0.1l-1.4,0.6c-0.1,0-0.1,0.1-0.1,0.2c0,0,0,0,0,0.1c0.1,0.1,0.1,0.1,0.2,0
			l1.4-0.6C3.2,37.8,3.2,37.7,3.2,37.6z"/>
		<path fill="#ACB3BA" d="M8.4,37.1c-0.1-0.1-0.2-0.1-0.2,0l-0.5,0.3c-0.1,0.1-0.1,0.2,0,0.2c0,0,0,0,0,0c0.1,0.1,0.2,0.1,0.2,0
			l0.5-0.3C8.4,37.3,8.4,37.2,8.4,37.1z"/>
		<path fill="#ACB3BA" d="M7,38.1c-0.1-0.1-0.2-0.1-0.2,0l-2,1.4c-0.1,0.1-0.1,0.2,0,0.2c0,0,0,0,0,0c0.1,0.1,0.2,0.1,0.2,0l2-1.4
			C7,38.3,7,38.2,7,38.1z"/>
	</g>
	<path fill="#FFD15C" d="M20.8,40.7L7.3,27.2c-0.8-0.8-0.8-2,0-2.8L26.6,5.2l16.3,16.3L23.6,40.7C22.8,41.4,21.6,41.4,20.8,40.7z"/>
	<path fill="#FF7058" d="M46.7,0L25.2,0.8c-1.1,0-1.6,1.4-0.9,2.2l20.7,20.7c0.8,0.8,2.1,0.3,2.2-0.9L48,1.3C48,0.6,47.4,0,46.7,0z"
		/>
	<polygon fill="#F2F2F2" points="36.4,15 22.5,9.2 20.9,10.8 40.2,18.8 	"/>
	<polygon fill="#F2F2F2" points="39.5,24.8 16.5,15.2 18.1,13.6 41.1,23.2 	"/>
	<polygon fill="#F2F2F2" points="35.1,29.2 12.1,19.6 13.7,18 36.7,27.6 	"/>
	<polygon fill="#F2F2F2" points="30.7,33.6 7.7,24 9.3,22.4 32.2,32 	"/>
	<polygon fill="#F2F2F2" points="12.3,32.2 26.3,38 27.8,36.4 8.5,28.4 	"/>
	
		<rect x="22.5" y="13" transform="matrix(-0.7071 -0.7071 0.7071 -0.7071 48.2006 47.9164)" opacity="0.1" fill="#231F20" width="23" height="1.9"/>
	<path fill="#F8B64C" d="M10.5,30.4c-2,2-2,5.2,0,7.1c2,2,5.2,2,7.1,0L10.5,30.4z"/>
</g>
</svg>
