<?xml version="1.0" encoding="utf-8"?>
<!-- Generator: Adobe Illustrator 18.0.0, SVG Export Plug-In . SVG Version: 6.00 Build 0)  -->
<!DOCTYPE svg PUBLIC "-//W3C//DTD SVG 1.1//EN" "http://www.w3.org/Graphics/SVG/1.1/DTD/svg11.dtd">
<svg version="1.1" id="Layer_1" xmlns="http://www.w3.org/2000/svg" xmlns:xlink="http://www.w3.org/1999/xlink" x="0px" y="0px"
	 viewBox="0 0 48 48" enable-background="new 0 0 48 48" xml:space="preserve">
<g>
	<g>
		<g>
			<g>
				<path fill="#CED6E0" d="M35.6,9.4L14.5,39.5l2.8,2l4.6-6.6l2.7,0.9c0.7,0.2,1.5-0.1,1.9-0.8l11.2-21.2L35.6,9.4z"/>
			</g>
			<g>
				<path fill="#F3705A" d="M17.9,34.1c-0.5,0.7-1.1,1.2-1.8,1.6c-1.2,0.7-2.6,0.7-3.9,0.2c-3.1-1.4-6.9-0.1-8.4,3.3
					c-1,2.2-0.5,4.9,1.2,6.7c2.8,3,7.6,2.6,9.8-0.6l6.3-9L17.9,34.1z M7.6,44.5c-1.5-1.1-1.9-3.2-0.8-4.7c1.1-1.5,3.2-1.9,4.7-0.8
					s1.9,3.2,0.8,4.7C11.3,45.2,9.2,45.6,7.6,44.5z"/>
			</g>
		</g>
		<g>
			<g>
				<path fill="#4EC0AA" d="M45.2,23.4V2.6C45.2,1.2,44,0,42.5,0h-37C4,0,2.8,1.2,2.8,2.6v20.8c0,1.5,1.2,2.6,2.6,2.6h37
					C44,26.1,45.2,24.9,45.2,23.4z"/>
				<path fill="#FFFFFF" d="M6.4,18.1V7.9c2.4,0,4.4-2,4.4-4.4h26.4c0,2.4,2,4.4,4.4,4.4v10.2c-2.4,0-4.4,2-4.4,4.4H10.8
					C10.8,20.1,8.8,18.1,6.4,18.1z"/>
			</g>
			<g>
				<g>
					<ellipse fill="#4EC0AA" cx="24" cy="13" rx="5.2" ry="6.3"/>
				</g>
				<g>
					<g>
						<path fill="#F3F3F3" d="M23.8,17v-0.7c-0.9-0.1-1.7-0.4-2.3-1l0.7-0.8c0.5,0.5,1.1,0.7,1.7,0.8v-1.9c-0.7-0.2-1.2-0.4-1.6-0.7
							c-0.3-0.3-0.5-0.7-0.5-1.2c0-0.6,0.2-1,0.6-1.4c0.4-0.4,0.9-0.5,1.5-0.6V9.1h0.6v0.5c0.7,0.1,1.4,0.3,2,0.7l-0.6,0.9
							c-0.4-0.3-0.9-0.5-1.4-0.6v1.8h0c0.7,0.2,1.3,0.4,1.6,0.7c0.3,0.3,0.5,0.7,0.5,1.3c0,0.6-0.2,1-0.6,1.4
							c-0.4,0.3-0.9,0.5-1.6,0.6V17H23.8z M23.1,10.8c-0.2,0.1-0.2,0.3-0.2,0.5c0,0.2,0.1,0.4,0.2,0.5c0.1,0.1,0.4,0.2,0.7,0.4v-1.7
							C23.5,10.6,23.3,10.7,23.1,10.8z M25.1,15c0.2-0.1,0.3-0.3,0.3-0.6c0-0.2-0.1-0.4-0.2-0.5c-0.1-0.1-0.4-0.3-0.8-0.4v1.7
							C24.7,15.3,24.9,15.2,25.1,15z"/>
					</g>
				</g>
				<g>
					<circle fill="#4EC0AA" cx="12.1" cy="13" r="1.8"/>
					<circle fill="#4EC0AA" cx="35.9" cy="13" r="1.8"/>
				</g>
			</g>
		</g>
		<g>
			<g>
				<path fill="#E8EAE9" d="M12.4,9.4l21.1,30.1l-2.8,2l-4.6-6.6l-2.7,0.9c-0.7,0.2-1.5-0.1-1.9-0.8L10.4,13.8L12.4,9.4z"/>
				<g>
					<g>
						<path fill="#F3705A" d="M27,36.4l6.3,9c2.3,3.2,7,3.7,9.8,0.6c1.7-1.8,2.1-4.5,1.2-6.7c-1.5-3.4-5.3-4.7-8.4-3.3
							c-1.2,0.6-2.7,0.5-3.9-0.2c-0.7-0.4-1.3-0.9-1.8-1.6L27,36.4z M35.6,43.6c-1.1-1.5-0.7-3.7,0.8-4.7c1.5-1.1,3.7-0.7,4.7,0.8
							c1.1,1.5,0.7,3.7-0.8,4.7S36.7,45.2,35.6,43.6z"/>
					</g>
				</g>
				<circle fill="#ADB3BA" cx="23.7" cy="31.7" r="1.3"/>
			</g>
		</g>
	</g>
</g>
</svg>
