<?xml version="1.0" encoding="utf-8"?>
<!-- Generator: Adobe Illustrator 18.0.0, SVG Export Plug-In . SVG Version: 6.00 Build 0)  -->
<!DOCTYPE svg PUBLIC "-//W3C//DTD SVG 1.1//EN" "http://www.w3.org/Graphics/SVG/1.1/DTD/svg11.dtd">
<svg version="1.1" id="Layer_1" xmlns="http://www.w3.org/2000/svg" xmlns:xlink="http://www.w3.org/1999/xlink" x="0px" y="0px"
	 viewBox="0 0 48 48" enable-background="new 0 0 48 48" xml:space="preserve">
<g>
	<path fill="#ACB3BA" d="M31.3,0H16.7c-2,0-3.6,1.6-3.6,3.6v4.1h3.5V3.6c0,0,0-0.1,0.1-0.1h14.7c0,0,0.1,0,0.1,0.1v4.1h3.5V3.6
		C34.9,1.6,33.3,0,31.3,0z"/>
	<rect y="22.8" fill="#FF7058" width="48" height="22.9"/>
	<path fill="#40596B" d="M42,8.6H6c-3.3,0-6,2.7-6,6l0,0v8.1h48v-8.1v0C48,11.3,45.3,8.6,42,8.6z"/>
	<rect y="19.9" fill="#FFD15C" width="48" height="2.9"/>
	<polygon fill="#40596B" points="6.8,48 0,48 0,45.7 7.8,45.7 	"/>
	<polygon fill="#40596B" points="48,48 41.2,48 40.2,45.7 48,45.7 	"/>
	<rect x="12.3" y="7.2" fill="#CDD6E0" width="5.1" height="1.5"/>
	<rect x="30.6" y="7.2" fill="#CDD6E0" width="5.1" height="1.5"/>
	<rect x="6.7" y="19" fill="#40596B" width="5.6" height="8.7"/>
	<rect x="35.7" y="19" fill="#40596B" width="5.6" height="8.7"/>
	<circle fill="#CDD6E0" cx="9.5" cy="24.4" r="1.6"/>
	<circle fill="#CDD6E0" cx="38.5" cy="24.4" r="1.6"/>
	<path fill="#F2F2F2" d="M30.8,34.5l-13.5,0c-0.7-1.4-2.2-2.4-3.9-2.4c-1.7,0-3.2,1-3.9,2.4l3.6,0l0.7,2l-0.7,2l-3.6,0
		c0.7,1.4,2.2,2.4,3.9,2.4c1.7,0,3.2-1,3.9-2.4l13.5,0c0.7,1.4,2.2,2.4,3.9,2.4c1.7,0,3.2-1,3.9-2.4l-3.6,0l-0.7-2l0.7-2l3.6,0
		c-0.7-1.4-2.2-2.4-3.9-2.4C33,32.1,31.5,33,30.8,34.5z"/>
</g>
</svg>
