<?xml version="1.0" encoding="utf-8"?>
<!-- Generator: Adobe Illustrator 16.0.0, SVG Export Plug-In . SVG Version: 6.00 Build 0)  -->
<!DOCTYPE svg PUBLIC "-//W3C//DTD SVG 1.1//EN" "http://www.w3.org/Graphics/SVG/1.1/DTD/svg11.dtd">
<svg version="1.1" id="Layer_1" xmlns="http://www.w3.org/2000/svg" xmlns:xlink="http://www.w3.org/1999/xlink" x="0px" y="0px"
	 width="48px" height="48px" viewBox="0 0 48 48" enable-background="new 0 0 48 48" xml:space="preserve">
<g>
	<polygon fill="#F7B64C" points="46.595,33.341 46.595,27.365 3.634,27.365 0.888,33.341 	"/>
	<path fill="#F3705A" d="M20.589,33.341v-4.942l-4.83-14.383c-0.176-0.524-0.67-0.88-1.225-0.88H5.017
		c-0.523,0-0.996,0.316-1.195,0.799l-3.725,9.037c-0.064,0.156-0.098,0.323-0.098,0.492v8.786c0,0.603,0.488,1.091,1.092,1.091
		H20.589z"/>
	<polygon fill="#8AD7F8" points="13.534,23.557 13.534,15.073 5.903,15.073 2.405,23.557 	"/>
	<path fill="#FFD15C" d="M47.872,23.46l-3.176-8.868c-0.309-0.867-1.131-1.446-2.053-1.446h-16.18l-6.977-4.87
		c-0.365-0.256-0.801-0.393-1.248-0.393H10.7c-0.826,0-1.496,0.67-1.496,1.496c0,0.827,0.67,1.497,1.496,1.497h3.834
		c1.525,0,2.881,0.976,3.367,2.421l5.496,16.362h22.506l1.93-4.625C48.042,24.533,48.056,23.973,47.872,23.46"/>
	<path fill="#415A6B" d="M17.069,33.341c0,3.742-3.033,6.776-6.775,6.776s-6.775-3.034-6.775-6.776s3.033-6.776,6.775-6.776
		S17.069,29.599,17.069,33.341"/>
	<path fill="#ADB3BA" d="M13.534,33.341c0,1.789-1.451,3.239-3.24,3.239s-3.238-1.45-3.238-3.239s1.449-3.239,3.238-3.239
		S13.534,31.552,13.534,33.341"/>
	<path fill="#415A6B" d="M41.606,33.341c0,3.742-3.033,6.776-6.775,6.776s-6.775-3.034-6.775-6.776s3.033-6.776,6.775-6.776
		S41.606,29.599,41.606,33.341"/>
	<path fill="#ADB3BA" d="M38.071,33.341c0,1.789-1.451,3.239-3.24,3.239s-3.238-1.45-3.238-3.239s1.449-3.239,3.238-3.239
		S38.071,31.552,38.071,33.341"/>
	<polygon fill="#F7B64C" points="39.042,16.417 39.042,26.389 43.521,26.389 43.521,21.014 41.876,16.417 	"/>
	<rect x="30.087" y="16.417" fill="#F7B64C" width="4.477" height="9.971"/>
	<polygon fill="#F7B64C" points="25.435,16.417 21.472,13.65 25.608,25.967 25.608,16.417 	"/>
</g>
</svg>
