<?xml version="1.0" encoding="utf-8"?>
<!-- Generator: Adobe Illustrator 18.0.0, SVG Export Plug-In . SVG Version: 6.00 Build 0)  -->
<!DOCTYPE svg PUBLIC "-//W3C//DTD SVG 1.1//EN" "http://www.w3.org/Graphics/SVG/1.1/DTD/svg11.dtd">
<svg version="1.1" id="Layer_1" xmlns="http://www.w3.org/2000/svg" xmlns:xlink="http://www.w3.org/1999/xlink" x="0px" y="0px"
	 viewBox="0 0 48 48" enable-background="new 0 0 48 48" xml:space="preserve">
<g>
	<g>
		<g>
			<path fill="#55C0EB" d="M24,11c0,0-8.1-13.4-12.6-10.7C8.8,2,9,10.8,11.4,12.7c2.5,2,10.9,0.1,12.6-0.6
				c1.7,0.7,10.1,2.6,12.6,0.6c2.4-1.9,2.6-10.7,0-12.3C31.4-2,24,11,24,11z"/>
		</g>
		<g>
			<g>
				<path fill="#E8EAE9" d="M37.2,35.7L37.2,35.7l-26.4,0v0c4.8,4.8,7.5,7.5,12.3,12.3H25C29.7,43.2,32.4,40.5,37.2,35.7z"/>
			</g>
			<g>
				<path fill="#55C0EB" d="M11.2,30.6C11.2,30.6,11.2,30.6,11.2,30.6c10.2-3.5,11.9-11.2,11.9-17.9v-1.9h1.6v1.9
					c0,6.7,3.3,14.5,12,17.9l0,0l0.5,5.1h0c0,0,0,0,0,0v0h0C30.4,35.8,25,41.2,25,48H23c0-6.8-5.5-12.2-12.2-12.3h0v0c0,0,0,0,0,0h0
					L11.2,30.6z"/>
			</g>
		</g>
		<g>
			<path fill="#E8EAE9" d="M24.9,12.4c0.1-0.4,0.2-0.6,0.2-1c0-0.6-0.1-1.2-0.4-1.6c-0.5-0.5-1-0.5-1.4,0c-0.2,0.4-0.4,1-0.4,1.6
				c0,0.5,0.1,0.7,0.2,1C23.7,12.8,24.3,12.8,24.9,12.4z"/>
		</g>
	</g>
</g>
</svg>
