<?xml version="1.0" encoding="utf-8"?>
<!-- Generator: Adobe Illustrator 18.0.0, SVG Export Plug-In . SVG Version: 6.00 Build 0)  -->
<!DOCTYPE svg PUBLIC "-//W3C//DTD SVG 1.1//EN" "http://www.w3.org/Graphics/SVG/1.1/DTD/svg11.dtd">
<svg version="1.1" id="Layer_1" xmlns="http://www.w3.org/2000/svg" xmlns:xlink="http://www.w3.org/1999/xlink" x="0px" y="0px"
	 viewBox="0 0 48 48" enable-background="new 0 0 48 48" xml:space="preserve">
<g>
	<g>
		<path fill="#CDD6E0" d="M14.1,6.2c0.6-1.8,0-3.7-1.6-4.8c1,1.6,0.5,3.1,0,4.7c-0.6,1.8,0,3.7,1.6,4.8C13.1,9.3,13.6,7.7,14.1,6.2z
			"/>
		<path fill="#CDD6E0" d="M26.7,6.2c0.6-1.8,0-3.7-1.6-4.8c1,1.6,0.5,3.1,0,4.7c-0.6,1.8,0,3.7,1.6,4.8C25.6,9.3,26.1,7.7,26.7,6.2z
			"/>
		<path fill="#CDD6E0" d="M20.4,4.8C21,3,20.3,1.1,18.8,0c1,1.6,0.5,3.1,0,4.7c-0.6,1.8,0,3.7,1.6,4.8C19.3,7.9,19.8,6.3,20.4,4.8z"
			/>
	</g>
	<path fill="#F8B64C" d="M41.8,16.4H30.1v20.9h11.7c2.2,0,4-1.8,4-4V20.4C45.8,18.2,44,16.4,41.8,16.4z M34.1,33.4V20.4h7.7l0,12.9
		H34.1z"/>
	<rect x="37" y="16.4" opacity="0.15" fill="#231F20" width="1.1" height="4"/>
	<rect x="37" y="33.4" opacity="0.15" fill="#231F20" width="1.1" height="4"/>
	<polygon fill="#FFD15C" points="2.2,11.7 2.2,42.7 6.2,48 33,48 37,42.7 37,11.7 	"/>
	<polygon fill="#F8B64C" points="33,48 6.2,48 2.2,42.7 37,42.7 	"/>
	<polygon fill="#FF7058" points="14.7,24 13,24 13,11.7 10.9,11.7 10.9,24 9.2,24 7.4,26.7 7.4,32.4 16.5,32.4 16.5,26.7 	"/>
</g>
</svg>
