<?xml version="1.0" encoding="utf-8"?>
<!-- Generator: Adobe Illustrator 18.0.0, SVG Export Plug-In . SVG Version: 6.00 Build 0)  -->
<!DOCTYPE svg PUBLIC "-//W3C//DTD SVG 1.1//EN" "http://www.w3.org/Graphics/SVG/1.1/DTD/svg11.dtd">
<svg version="1.1" id="Layer_1" xmlns="http://www.w3.org/2000/svg" xmlns:xlink="http://www.w3.org/1999/xlink" x="0px" y="0px"
	 viewBox="0 0 48 48" enable-background="new 0 0 48 48" xml:space="preserve">
<g>
	<g>
		<g>
			<g>
				<g>
					<path fill="#E8EAE9" d="M12.9,26.9c-0.6-0.9-0.3-2.1,0.7-2.6c1.6-0.8,3.9-1.4,4.7,0.7c1.3,3.4,1.2,3.9,1.2,3.9l-6-1L12.9,26.9z
						"/>
				</g>
				<g>
					<path fill="#F3F3F3" d="M33.7,5.8c0,0,3.1-2.9,3-5.4c0-0.4,0-0.7-0.2,0c0,0-1,3.5-3.9,5.1"/>
				</g>
				<g>
					<path fill="#E8EAE9" d="M16.2,28.7c0,0-0.1,4.1,0.9,5.5c1,1.4,2.4,2.5,4.2,1.6c1.9-0.8,3-2.4,3-5.7c0-3.3,0.7-4.1,0.7-4.1
						l-7.8,2.8L16.2,28.7z"/>
				</g>
				<g>
					<path fill="#4ABAA5" d="M17.2,34.3c0.7,1.7,2.3,2.9,4.1,2c0.8-0.4,1.5-1.4,2-2C21.2,35.7,19.1,35.9,17.2,34.3z"/>
				</g>
				<g>
					<path fill="#CED6E0" d="M17.6,21l1.3,7l3.1-2c1.6-0.7,2.7-2.3,2.9-4.1l0,0c0,0-5.4-0.9-5.6-0.9C19.2,20.9,17.6,21,17.6,21z"/>
				</g>
				<g>
					<path fill="#F3F3F3" d="M31.8,20.6c1.9-2.2,3.3-4.8,3.9-7.6c1-5.1-1.1-7.1-1.3-7.9c-0.2-1-7.6-0.4-10.3,0.8
						c-2.3,1.1-9.7,5.2-8.3,11.8c0.5,2.3,2,4.3,4.1,5.6c1.1,0.7,2.7,0.9,3.8,0.7c0,0-3.8,5.5-9.6,3.6c-1.2-0.4-1.6-2.1-0.6-2.9
						c0.3-0.3,0.8-0.6,1.5-0.8c0,0-3,0.5-3.6,2.2c-0.4,0.8-0.2,2,1.2,2.6C20.3,30.9,26.2,27,31.8,20.6z"/>
				</g>
				<g>
					<path fill="#E8EAE9" d="M22.6,13.7c-0.3,0.3-0.3,0.7-0.3,1.2c-0.1,1.5-1,3-2.4,3.7c-0.6,0.3-1.2,0.5-1.7,1
						c-0.1,0.1-0.2,0.2-0.2,0.4c-0.4,0.7-0.2,1.6,0.4,2.1c0.5,0.5,1,0.9,1.6,1.2c0.4,0.2,0.7,0.4,1.1,0.6c1.2,0.6,2.7,0.4,3.8-0.5
						c0,0,0,0,0,0c0.7-0.6,1.4-1.2,2.2-1.8c0.2-0.2,0.4-0.4,0.3-0.7c-0.1-0.2-0.4-0.1-0.5,0c-0.2,0.1-0.3,0.2-0.5,0.3
						s-0.4-0.1-0.4-0.3c0.1-0.5,0.4-0.9,0.6-1.4c0.2-0.4,0.4-1,0.3-1.4c-0.2-0.6-0.7-0.9-1.1-1.3c-0.7-0.9-0.8-2.3-1.8-2.9
						C23.3,13.6,22.9,13.5,22.6,13.7z"/>
				</g>
				<path fill="#F7B64C" d="M20.5,23.6c0.2,0.1,0.5,0.2,0.7,0.3c0.5,0.2,1,0.3,1.6,0.2l-0.2-4.3c0-0.5-0.4-0.9-0.9-0.9
					c-0.5,0-0.8,0.4-0.9,0.8L20.5,23.6z"/>
			</g>
		</g>
		<g>
			<path fill="#4ABAA5" d="M22.6,48h-2.5c-1-3.9-1.2-7.9-0.4-11.9l1,0.1C20.4,40.2,21.1,44.2,22.6,48z"/>
		</g>
	</g>
</g>
</svg>
