<?xml version="1.0" encoding="utf-8"?>
<!-- Generator: Adobe Illustrator 16.0.0, SVG Export Plug-In . SVG Version: 6.00 Build 0)  -->
<!DOCTYPE svg PUBLIC "-//W3C//DTD SVG 1.1//EN" "http://www.w3.org/Graphics/SVG/1.1/DTD/svg11.dtd">
<svg version="1.1" id="Layer_1" xmlns="http://www.w3.org/2000/svg" xmlns:xlink="http://www.w3.org/1999/xlink" x="0px" y="0px"
	 width="48px" height="48px" viewBox="0 0 48 48" enable-background="new 0 0 48 48" xml:space="preserve">
<g>
	<path fill="#E8EAEA" d="M44.801,0H3.199C1.434,0,0,1.433,0,3.2v41.601C0,46.566,1.434,48,3.199,48h41.602
		C46.566,48,48,46.566,48,44.801V3.2C48,1.433,46.566,0,44.801,0"/>
	<rect x="4.797" y="4.799" fill="#CDD6E0" width="7.68" height="38.4"/>
	<rect x="12.477" y="4.799" fill="#ACB3BA" width="7.682" height="38.4"/>
	<rect x="20.158" y="4.799" fill="#CDD6E0" width="7.68" height="38.4"/>
	<rect x="27.838" y="4.799" fill="#ACB3BA" width="7.682" height="38.4"/>
	<rect x="35.518" y="4.799" fill="#CDD6E0" width="7.682" height="38.4"/>
	<polygon fill="#E8EAEA" points="46.352,5.52 42.473,1.647 24,20.12 5.527,1.647 1.648,5.52 20.125,23.996 1.648,42.473 
		5.52,46.352 24,27.873 42.48,46.352 46.352,42.473 27.877,23.996 	"/>
</g>
</svg>
