<?xml version="1.0" encoding="utf-8"?>
<!-- Generator: Adobe Illustrator 18.0.0, SVG Export Plug-In . SVG Version: 6.00 Build 0)  -->
<!DOCTYPE svg PUBLIC "-//W3C//DTD SVG 1.1//EN" "http://www.w3.org/Graphics/SVG/1.1/DTD/svg11.dtd">
<svg version="1.1" id="Layer_1" xmlns="http://www.w3.org/2000/svg" xmlns:xlink="http://www.w3.org/1999/xlink" x="0px" y="0px"
	 viewBox="0 0 48 48" enable-background="new 0 0 48 48" xml:space="preserve">
<g>
	<g>
		<path fill="#F3705B" d="M38.1,5.8c-7.8-7.8-20.4-7.8-28.1,0c-7.8,7.8-7.8,20.3,0,28.1L24,48l14-14C45.8,26.2,45.8,13.6,38.1,5.8z"
			/>
		<path fill="#FFFFFF" d="M24,33.7c-7.6,0-13.8-6.2-13.8-13.8c0-7.6,6.2-13.8,13.8-13.8c7.6,0,13.8,6.2,13.8,13.8
			C37.8,27.5,31.6,33.7,24,33.7z"/>
		<path fill="#435B6C" d="M30.5,13.1c-1.2-1-3-1.5-5.6-1.5h-5.9v16.6h3.7v-4.6H25c2.5,0,4.3-0.5,5.5-1.4c1.2-1,1.8-2.5,1.8-4.5
			C32.3,15.6,31.7,14.1,30.5,13.1z M27.8,19.6c-0.4,0.5-1.3,0.7-2.5,0.7h-2.5v-5.6h2.1c1.2,0,2.1,0.2,2.7,0.6c0.6,0.4,0.9,1.1,0.9,2
			C28.5,18.4,28.2,19.1,27.8,19.6z"/>
	</g>
</g>
</svg>
