<?xml version="1.0" encoding="utf-8"?>
<!-- Generator: Adobe Illustrator 18.0.0, SVG Export Plug-In . SVG Version: 6.00 Build 0)  -->
<!DOCTYPE svg PUBLIC "-//W3C//DTD SVG 1.1//EN" "http://www.w3.org/Graphics/SVG/1.1/DTD/svg11.dtd">
<svg version="1.1" id="Layer_1" xmlns="http://www.w3.org/2000/svg" xmlns:xlink="http://www.w3.org/1999/xlink" x="0px" y="0px"
	 viewBox="0 0 48 48" enable-background="new 0 0 48 48" xml:space="preserve">
<g>
	<g>
		<path fill="#F3F3F3" d="M30.7,35.1c0.9-2.8,2.5-5.4,4.6-7.5c3.1-3,5-7.3,4.8-11.9C39.9,7.4,33.1,0.4,24.7,0
			C15.5-0.4,7.9,7,7.9,16.1c0,4.6,1.9,8.7,5,11.6c2.1,2,3.7,4.6,4.5,7.3H30.7z"/>
		<g>
			<g>
				<path fill="#FFD15C" d="M23.3,35c-0.3-6.5-1.5-12.5-3.7-17.5c0.9-0.1,1.9-0.5,2.6-1.2c1-1,2.7-1,3.7,0c0.7,0.7,1.6,1.1,2.6,1.2
					c-2.2,5-3.5,11-3.7,17.5h1.8c0.3-6.7,1.6-12.8,4-17.7c0.6-0.2,1.1-0.5,1.6-1c0.4-0.4,0.4-0.9,0-1.3c-0.4-0.4-0.9-0.4-1.3,0
					c-1,1-2.7,1-3.7,0c-1.7-1.7-4.5-1.7-6.3,0c-1,1-2.7,1-3.7,0c-0.4-0.4-0.9-0.4-1.3,0c-0.4,0.4-0.4,0.9,0,1.3c0.5,0.5,1,0.8,1.6,1
					c2.3,5,3.7,11,4,17.7H23.3z"/>
				<path fill="#344A5E" d="M17.3,35.1v7.5c0,1.1,0.9,2,2,2h0.4C20.3,46.6,22,48,24,48s3.7-1.4,4.2-3.3h0.5c1.1,0,2-0.9,2-2v-7.5
					H17.3z"/>
			</g>
		</g>
		<path fill="#415A6B" d="M30.7,37.9H17.3c-0.8,0-1.5-0.7-1.5-1.5s0.7-1.5,1.5-1.5h13.4c0.8,0,1.5,0.7,1.5,1.5S31.6,37.9,30.7,37.9z
			"/>
		<path fill="#415A6B" d="M30.7,43H17.3c-0.8,0-1.5-0.7-1.5-1.5s0.7-1.5,1.5-1.5h13.4c0.8,0,1.5,0.7,1.5,1.5S31.6,43,30.7,43z"/>
	</g>
</g>
</svg>
