<?xml version="1.0" encoding="utf-8"?>
<!-- Generator: Adobe Illustrator 18.0.0, SVG Export Plug-In . SVG Version: 6.00 Build 0)  -->
<!DOCTYPE svg PUBLIC "-//W3C//DTD SVG 1.1//EN" "http://www.w3.org/Graphics/SVG/1.1/DTD/svg11.dtd">
<svg version="1.1" id="Layer_1" xmlns="http://www.w3.org/2000/svg" xmlns:xlink="http://www.w3.org/1999/xlink" x="0px" y="0px"
	 viewBox="0 0 48 48" enable-background="new 0 0 48 48" xml:space="preserve">
<g>
	<path fill="#F2F2F2" d="M46,48H2c-1.1,0-2-0.9-2-2V2c0-1.1,0.9-2,2-2h44c1.1,0,2,0.9,2,2v44C48,47.1,47.1,48,46,48z"/>
	<g>
		<path fill="#40596B" d="M20.6,13.4V3.6c0-1-0.8-1.8-1.8-1.8l0,0c-1,0-1.8,0.8-1.8,1.8v9.8H20.6z"/>
		<path fill="#40596B" d="M10.1,35.3V3.6c0-1-0.8-1.8-1.8-1.8l0,0c-1,0-1.8,0.8-1.8,1.8v31.8c0,0.2,0.1,0.3,0.3,0.3h3
			C9.9,35.7,10.1,35.5,10.1,35.3z"/>
		<path fill="#84DBFF" d="M6.4,36v8.3c0,0.9,0.6,1.8,1.6,2c1.1,0.2,2.1-0.7,2.1-1.8V36c0,0,0-0.1-0.1-0.1L6.4,36
			C6.4,35.9,6.4,36,6.4,36z"/>
		<path fill="#84DBFF" d="M16.9,13.4v30.9c0,0.9,0.6,1.8,1.6,2c1.1,0.2,2.1-0.7,2.1-1.8v-31c0,0,0-0.1-0.1-0.1L16.9,13.4
			C16.9,13.3,16.9,13.4,16.9,13.4z"/>
		<path fill="#40596B" d="M31.1,30.7V3.6c0-1-0.8-1.8-1.8-1.8s-1.8,0.8-1.8,1.8v27.1H31.1z"/>
		<path fill="#84DBFF" d="M27.4,28.3v16.2c0,1,0.8,1.8,1.8,1.8l0,0c1,0,1.8-0.8,1.8-1.8V28.3H27.4z"/>
		<path fill="#40596B" d="M41.6,17.5V3.6c0-1-0.8-1.8-1.8-1.8l0,0c-1,0-1.8,0.8-1.8,1.8v13.9c0,0.2,0.1,0.3,0.3,0.3h3
			C41.5,17.9,41.6,17.7,41.6,17.5z"/>
		<path fill="#84DBFF" d="M37.9,17.6v26.7c0,0.9,0.6,1.8,1.6,2c1.1,0.2,2.1-0.7,2.1-1.8V17.6c0,0,0-0.1-0.1-0.1L37.9,17.6
			C38,17.5,37.9,17.6,37.9,17.6z"/>
		<circle fill="#FF7058" cx="8.2" cy="35" r="4.8"/>
		<circle fill="#FFFFFF" cx="8.2" cy="35" r="2.7"/>
		<circle fill="#FF7058" cx="18.7" cy="13" r="4.8"/>
		<circle fill="#FF7058" cx="29.3" cy="29" r="4.8"/>
		<circle fill="#FF7058" cx="39.8" cy="19" r="4.8"/>
		<circle fill="#FFFFFF" cx="18.7" cy="13" r="2.7"/>
		<circle fill="#FFFFFF" cx="29.3" cy="29" r="2.7"/>
		<circle fill="#FFFFFF" cx="39.8" cy="19" r="2.7"/>
	</g>
</g>
</svg>
