<?xml version="1.0" encoding="utf-8"?>
<!-- Generator: Adobe Illustrator 18.0.0, SVG Export Plug-In . SVG Version: 6.00 Build 0)  -->
<!DOCTYPE svg PUBLIC "-//W3C//DTD SVG 1.1//EN" "http://www.w3.org/Graphics/SVG/1.1/DTD/svg11.dtd">
<svg version="1.1" id="Layer_1" xmlns="http://www.w3.org/2000/svg" xmlns:xlink="http://www.w3.org/1999/xlink" x="0px" y="0px"
	 viewBox="0 0 48 48" enable-background="new 0 0 48 48" xml:space="preserve">
<g>
	<g>
		<g>
			<path fill="#E8EAE9" d="M23.5,17.9V4.7c0-1-0.8-1.8-1.8-1.8s-1.8,0.8-1.8,1.8v13.2H23.5z"/>
		</g>
		<g>
			<path fill="#F3705A" d="M31.7,2c-1.8,0-3.5,1-4.4,2.7h-3.8v2.9h8.2c1.5,0,2.8-1.2,2.8-2.8S33.3,2,31.7,2z"/>
			<path fill="#F3705A" d="M16.1,4.7C15.3,3.1,13.6,2,11.7,2C10.2,2,9,3.3,9,4.8s1.2,2.8,2.8,2.8h8.2V4.7H16.1z"/>
		</g>
		<g>
			<rect x="16.4" y="17.4" fill="#415A6B" width="10.6" height="5.1"/>
			<rect x="13.7" y="21.2" fill="#ADB3BA" width="16.1" height="4.1"/>
			<g>
				<path fill="#CED6E0" d="M11.8,34.1c1.6,3.5,5.4,5.9,9.9,5.9c4.5,0,8.3-2.4,9.9-5.9H11.8z"/>
			</g>
		</g>
		<g>
			<path fill="#E8EAE9" d="M45.4,44.6h-10V39c0-2-1.6-3.6-3.6-3.6H2.4v-10h29.4c7.5,0,13.6,6.1,13.6,13.6V44.6z"/>
		</g>
		<path fill="#CED6E0" d="M2.4,22.7c-1.3,0-2.4,1.1-2.4,2.4v10.5C0,37,1.1,38,2.4,38s2.4-1.1,2.4-2.4V25.1
			C4.7,23.8,3.7,22.7,2.4,22.7z"/>
		<path fill="#CED6E0" d="M48,43.6c0-1.3-1.1-2.4-2.4-2.4l-10.5,0c-1.3,0-2.4,1.1-2.4,2.4c0,1.3,1.1,2.4,2.4,2.4l10.5,0
			C46.9,46,48,44.9,48,43.6z"/>
	</g>
</g>
</svg>
