<?xml version="1.0" encoding="utf-8"?>
<!-- Generator: Adobe Illustrator 18.0.0, SVG Export Plug-In . SVG Version: 6.00 Build 0)  -->
<!DOCTYPE svg PUBLIC "-//W3C//DTD SVG 1.1//EN" "http://www.w3.org/Graphics/SVG/1.1/DTD/svg11.dtd">
<svg version="1.1" id="Layer_1" xmlns="http://www.w3.org/2000/svg" xmlns:xlink="http://www.w3.org/1999/xlink" x="0px" y="0px"
	 viewBox="0 0 48 48" enable-background="new 0 0 48 48" xml:space="preserve">
<g>
	<g>
		<rect x="3.3" y="45.8" fill="#CDD6E0" width="6.7" height="2.2"/>
		<rect x="38" y="45.8" fill="#CDD6E0" width="6.7" height="2.2"/>
	</g>
	<path fill="#F2F2F2" d="M46,45.8H2c-1.1,0-2-0.9-2-2v-13c0-1.1,0.9-2,2-2h44c1.1,0,2,0.9,2,2v13C48,44.9,47.1,45.8,46,45.8z"/>
	<rect x="3" y="31.8" fill="#40596B" width="42" height="11"/>
	<rect x="34.5" y="9.8" fill="#F2F2F2" width="2.4" height="19"/>
	<g>
		<circle fill="#CDD6E0" cx="35.7" cy="9.8" r="1.9"/>
		<g>
			<path fill="#CDD6E0" d="M42.6,18.4c4.8-4.8,4.8-12.5,0-17.3L43.7,0c5.4,5.4,5.4,14.2,0,19.6L42.6,18.4z"/>
		</g>
		<g>
			<path fill="#CDD6E0" d="M40.2,16.1c3.5-3.5,3.5-9.1,0-12.5l1.2-1.2c4.1,4.1,4.1,10.8,0,14.9L40.2,16.1z"/>
		</g>
		<g>
			<path fill="#CDD6E0" d="M37.8,13.7c2.2-2.2,2.2-5.7,0-7.8L39,4.7c2.8,2.8,2.8,7.4,0,10.2L37.8,13.7z"/>
		</g>
	</g>
	<g>
		<g>
			<path fill="#CDD6E0" d="M28.7,1.2c-4.8,4.8-4.8,12.5,0,17.3l-1.2,1.2c-5.4-5.4-5.4-14.2,0-19.6L28.7,1.2z"/>
		</g>
		<g>
			<path fill="#CDD6E0" d="M31.1,3.5c-3.5,3.5-3.5,9.1,0,12.5l-1.2,1.2c-4.1-4.1-4.1-10.8,0-14.9L31.1,3.5z"/>
		</g>
		<g>
			<path fill="#CDD6E0" d="M33.5,5.9c-2.2,2.2-2.2,5.7,0,7.8l-1.2,1.2c-2.8-2.8-2.8-7.4,0-10.2L33.5,5.9z"/>
		</g>
	</g>
	<g>
		<circle fill="#FFD15C" cx="8.4" cy="37.3" r="2.6"/>
	</g>
	<path fill="#FF7058" d="M25.2,38.4h-3.6c-0.6,0-1.1-0.5-1.1-1.1l0,0c0-0.6,0.5-1.1,1.1-1.1h3.6c0.6,0,1.1,0.5,1.1,1.1l0,0
		C26.3,37.9,25.8,38.4,25.2,38.4z"/>
	<path fill="#84DBFF" d="M33.1,38.4h-3.6c-0.6,0-1.1-0.5-1.1-1.1l0,0c0-0.6,0.5-1.1,1.1-1.1h3.6c0.6,0,1.1,0.5,1.1,1.1l0,0
		C34.2,37.9,33.7,38.4,33.1,38.4z"/>
	<path fill="#4CDBC4" d="M41.1,38.4h-3.6c-0.6,0-1.1-0.5-1.1-1.1l0,0c0-0.6,0.5-1.1,1.1-1.1h3.6c0.6,0,1.1,0.5,1.1,1.1l0,0
		C42.2,37.9,41.7,38.4,41.1,38.4z"/>
</g>
</svg>
