<?xml version="1.0" encoding="utf-8"?>
<!-- Generator: Adobe Illustrator 18.0.0, SVG Export Plug-In . SVG Version: 6.00 Build 0)  -->
<!DOCTYPE svg PUBLIC "-//W3C//DTD SVG 1.1//EN" "http://www.w3.org/Graphics/SVG/1.1/DTD/svg11.dtd">
<svg version="1.1" id="Layer_1" xmlns="http://www.w3.org/2000/svg" xmlns:xlink="http://www.w3.org/1999/xlink" x="0px" y="0px"
	 viewBox="0 0 48 48" enable-background="new 0 0 48 48" xml:space="preserve">
<g>
	<g>
		<g>
			<path fill="#F3F3F3" d="M44.2,10v32.9c0,1.7-1.4,3.1-3.1,3.1H6.8c-1.7,0-3.1-1.4-3.1-3.1V10H44.2z"/>
		</g>
		<g>
			<path fill="#415A6B" d="M44.2,10V3.1c0-1.7-1.4-3.1-3.1-3.1H6.9C5.1,0,3.8,1.4,3.8,3.1V10H44.2z"/>
		</g>
		<g>
			<g>
				<g>
					<circle fill="#CED6E0" cx="11.4" cy="5" r="2.8"/>
				</g>
				<g>
					<path fill="#E8EAE9" d="M12.2,3.4L9.8,5.8C9.4,6.2,8.7,6,8.6,5.5C8.4,4.6,8.7,3.7,9.4,3c0.7-0.7,1.6-1,2.5-0.8
						C12.4,2.3,12.6,3,12.2,3.4z"/>
					<path fill="#E8EAE9" d="M13.4,7c-0.7,0.7-1.6,0.9-2.5,0.8c-0.5-0.1-0.7-0.8-0.3-1.2L13,4.1c0.4-0.4,1.1-0.2,1.2,0.3
						C14.3,5.4,14.1,6.3,13.4,7z"/>
				</g>
			</g>
			<g>
				<g>
					<path fill="#8AD7F8" d="M29,6.5H19c-0.8,0-1.5-0.7-1.5-1.5v0c0-0.8,0.7-1.5,1.5-1.5h10c0.8,0,1.5,0.7,1.5,1.5v0
						C30.5,5.8,29.8,6.5,29,6.5z"/>
				</g>
				<g>
					<g>
						<circle fill="#F3705A" cx="34.6" cy="5" r="1.2"/>
					</g>
					<g>
						<circle fill="#FFD15C" cx="38.2" cy="5" r="1.2"/>
					</g>
				</g>
			</g>
		</g>
		<circle fill="#415A6B" cx="24" cy="28" r="11.9"/>
		<g>
			<circle fill="#FFFFFF" cx="24" cy="28" r="9.4"/>
		</g>
		<g>
			<g>
				<path fill="#55C0EB" d="M24.8,27.5c-3.4-1.4-7-2.7-10.2,0.5c0,0.5,0.1,1.1,0.1,1.6h10V27.5z"/>
			</g>
			<g>
				<path fill="#8AD7F8" d="M33.4,28c0,5.2-4.2,9.4-9.4,9.4c-5.2,0-9.4-4.2-9.4-9.4C19.3,32.7,27.1,21.7,33.4,28z"/>
			</g>
		</g>
		<g>
			<path fill="#415A6B" d="M7.9,47.5c0,0.3,0.2,0.5,0.5,0.5H12c0.3,0,0.5-0.2,0.5-0.5V46H7.9V47.5z"/>
			<path fill="#415A6B" d="M35.5,46v1.5c0,0.3,0.2,0.5,0.5,0.5h3.6c0.3,0,0.5-0.2,0.5-0.5V46H35.5z"/>
		</g>
	</g>
</g>
</svg>
