<?xml version="1.0" encoding="utf-8"?>
<!-- Generator: Adobe Illustrator 18.0.0, SVG Export Plug-In . SVG Version: 6.00 Build 0)  -->
<!DOCTYPE svg PUBLIC "-//W3C//DTD SVG 1.1//EN" "http://www.w3.org/Graphics/SVG/1.1/DTD/svg11.dtd">
<svg version="1.1" id="Layer_1" xmlns="http://www.w3.org/2000/svg" xmlns:xlink="http://www.w3.org/1999/xlink" x="0px" y="0px"
	 viewBox="0 0 48 48" enable-background="new 0 0 48 48" xml:space="preserve">
<g>
	<g>
		<path fill="#FF7058" d="M15.2,18.2H1.6c-0.9,0-1.6-0.7-1.6-1.6c0-0.9,0.7-1.6,1.6-1.6h13.5c0.9,0,1.6,0.7,1.6,1.6
			C16.8,17.4,16.1,18.2,15.2,18.2z"/>
	</g>
	<path fill="#F2F2F2" d="M34.5,0h-21C8.3,0,4.1,7.4,4.1,16.5c0,9.1,4.2,16.5,9.4,16.5h21c5.2,0,9.4-7.4,9.4-16.5
		C43.9,7.4,39.7,0,34.5,0z"/>
	<path fill="#E8EAEA" d="M34.5,33.1H13.5c-5.2,0-9.4-7.4-9.4-16.5C4.1,7.4,8.3,0,13.5,0h20.9c-5.2,0-9.4,7.4-9.4,16.5
		C25.1,25.7,29.3,33.1,34.5,33.1z"/>
	<ellipse fill="#CDD6E0" cx="34.5" cy="16.5" rx="9.4" ry="16.5"/>
	<ellipse fill="#E8EAEA" cx="34.5" cy="16.5" rx="2.4" ry="4.3"/>
	<path fill="#F2F2F2" d="M34.5,0c-5.2,0-9.4,7.4-9.4,16.5v29.2h-3.5V48h-2.3v-2.3h-3.5V48h-2.3v-2.3H9.9V48H7.7v-2.3H4.1V16.5
		C4.1,7.4,8.3,0,13.5,0H34.5z"/>
	<rect x="4.1" y="19.5" fill="#E8EAEA" width="3.5" height="2.3"/>
	<rect x="9.9" y="19.5" fill="#E8EAEA" width="3.5" height="2.3"/>
	<rect x="15.7" y="19.5" fill="#E8EAEA" width="3.5" height="2.3"/>
	<rect x="21.5" y="19.5" fill="#E8EAEA" width="3.5" height="2.3"/>
	<path fill="#FF7058" d="M46.4,14.9H32.2C32.1,15.4,32,16,32,16.5c0,0.6,0.1,1.1,0.2,1.6h14.1c0.9,0,1.6-0.7,1.6-1.6
		C48,15.6,47.3,14.9,46.4,14.9z"/>
</g>
</svg>
