<?xml version="1.0" encoding="utf-8"?>
<!-- Generator: Adobe Illustrator 18.0.0, SVG Export Plug-In . SVG Version: 6.00 Build 0)  -->
<!DOCTYPE svg PUBLIC "-//W3C//DTD SVG 1.1//EN" "http://www.w3.org/Graphics/SVG/1.1/DTD/svg11.dtd">
<svg version="1.1" id="Layer_1" xmlns="http://www.w3.org/2000/svg" xmlns:xlink="http://www.w3.org/1999/xlink" x="0px" y="0px"
	 viewBox="0 0 48 48" enable-background="new 0 0 48 48" xml:space="preserve">
<g>
	<path fill="#F2F2F2" d="M41.8,17.1C32,7.3,16,7.3,6.2,17.1l-5.7,5.7c-0.7,0.7-0.7,1.7,0,2.4l5.7,5.7c9.9,9.9,25.8,9.9,35.7,0
		l5.7-5.7c0.7-0.7,0.7-1.7,0-2.4L41.8,17.1z"/>
	<path fill="#FFFFFF" d="M41.5,19.4c-9.6-6.6-25.3-6.6-35,0l-5.4,3.7c-0.6,0.4-0.6,1.3,0,1.7l5.4,3.7c9.6,6.6,25.3,6.6,35,0l5.4-3.7
		c0.6-0.4,0.6-1.3,0-1.7L41.5,19.4z"/>
	<path fill="#84DBFF" d="M18.2,15c-3,1.9-4.9,5.2-4.9,9c0,3.8,2,7.1,4.9,9c3.8,0.6,7.8,0.6,11.6,0c3-1.9,4.9-5.2,4.9-9
		c0-3.8-2-7.1-4.9-9C26,14.4,22,14.4,18.2,15z"/>
	<circle fill="#40596B" cx="24" cy="24" r="6.1"/>
	<circle fill="#FFFFFF" cx="19.8" cy="19.8" r="1.9"/>
	<circle fill="#FFFFFF" cx="22" cy="22" r="0.9"/>
</g>
</svg>
