<?xml version="1.0" encoding="utf-8"?>
<!-- Generator: Adobe Illustrator 20.1.0, SVG Export Plug-In . SVG Version: 6.00 Build 0)  -->
<!DOCTYPE svg PUBLIC "-//W3C//DTD SVG 1.1//EN" "http://www.w3.org/Graphics/SVG/1.1/DTD/svg11.dtd">
<svg version="1.1" id="Layer_1" xmlns="http://www.w3.org/2000/svg" xmlns:xlink="http://www.w3.org/1999/xlink" x="0px" y="0px"
	 viewBox="0 0 49 49" enable-background="new 0 0 49 49" xml:space="preserve">
<g>
	<path fill="#40596B" d="M47.1,28l-0.9,0.2L42,29.3l-1-3.8l5.1-1.3c0,0,0.1,0,0.1,0c1-0.2,2,0.4,2.3,1.4
		C48.7,26.6,48.1,27.7,47.1,28z"/>
	<path fill="#40596B" d="M8,26.4l-1.9,3.4l-3.3-1.8l-1.3-0.7c-0.9-0.5-1.3-1.7-0.8-2.6c0.4-0.8,1.3-1.1,2.1-1c0.2,0,0.4,0.1,0.5,0.2
		L8,26.4z"/>
	<path fill="#334A5E" d="M3.4,24L8,26.4l-1.9,3.4l-3.3-1.8v-4.3C3,23.8,3.2,23.9,3.4,24z"/>
	<path fill="#334A5E" d="M46.2,24.2v4L42,29.3l-1-3.8l5.1-1.3C46.1,24.2,46.1,24.2,46.2,24.2z"/>
	<circle fill="#334A5E" cx="24.5" cy="4.4" r="2.6"/>
	<path fill="#F2F2F2" d="M44.6,20.1H4.4c0,0-0.1,0-0.1,0v25c0,1.1,0.9,2.1,2.1,2.1h36.2c1.2,0,2.1-0.9,2.1-2.1v-25
		C44.6,20.1,44.6,20.1,44.6,20.1z"/>
	<path fill="#E2E2E2" d="M4.3,42.2v3c0,1.2,0.9,2.1,2.1,2.1h36.2c1.2,0,2.1-0.9,2.1-2.1v-3H4.3z"/>
	<path fill="#40596B" d="M26,6H23C15.3,6,8.2,10.1,4.3,16.8l0,0h40.3l0,0C40.8,10.1,33.7,6,26,6z"/>
	<path fill="#CDD6E0" d="M44.6,16.8H4.4c-0.9,0-1.6,0.7-1.6,1.6v0.1c0,0.9,0.7,1.6,1.6,1.6h40.3c0.9,0,1.6-0.7,1.6-1.6v-0.1
		C46.2,17.5,45.5,16.8,44.6,16.8z"/>
	<path fill="#CDD6E0" d="M44.7,18.5v3.2c0,0-0.1,0-0.1,0H4.4c0,0-0.1,0-0.1,0v-3.2H44.7z"/>
	<path fill="#E2E2E2" d="M44.7,20.1v1.6c0,0-0.1,0-0.1,0H4.4c0,0-0.1,0-0.1,0v-1.6c0,0,0.1,0,0.1,0h40.1
		C44.6,20.1,44.6,20.1,44.7,20.1z"/>
</g>
</svg>
