<?xml version="1.0" encoding="utf-8"?>
<!-- Generator: Adobe Illustrator 18.0.0, SVG Export Plug-In . SVG Version: 6.00 Build 0)  -->
<!DOCTYPE svg PUBLIC "-//W3C//DTD SVG 1.1//EN" "http://www.w3.org/Graphics/SVG/1.1/DTD/svg11.dtd">
<svg version="1.1" id="Layer_1" xmlns="http://www.w3.org/2000/svg" xmlns:xlink="http://www.w3.org/1999/xlink" x="0px" y="0px"
	 viewBox="0 0 48 48" enable-background="new 0 0 48 48" xml:space="preserve">
<g>
	<path fill="#F2F2F2" d="M48,48H13.6V2c0-1.1,0.9-2,2-2H46c1.1,0,2,0.9,2,2V48z"/>
	<path fill="#CDD6E0" d="M13.6,48H0V14.5c0-1.1,0.9-2,2-2h11.6V48z"/>
	<rect x="11.8" y="12.5" fill="#BDCCDB" width="1.8" height="35.5"/>
	<rect x="17.6" y="4" fill="#54C0EB" width="6.1" height="6.1"/>
	<rect x="27.8" y="4" fill="#54C0EB" width="6.1" height="6.1"/>
	<rect x="17.6" y="14.1" fill="#54C0EB" width="6.1" height="6.1"/>
	<rect x="27.8" y="14.1" fill="#54C0EB" width="6.1" height="6.1"/>
	<rect x="37.9" y="4" fill="#54C0EB" width="6.1" height="6.1"/>
	<rect x="37.9" y="14.1" fill="#54C0EB" width="6.1" height="6.1"/>
	<rect x="17.6" y="24.3" fill="#54C0EB" width="6.1" height="6.1"/>
	<rect x="27.8" y="24.3" fill="#54C0EB" width="6.1" height="6.1"/>
	<rect x="37.9" y="24.3" fill="#54C0EB" width="6.1" height="6.1"/>
	<g>
		<rect x="24.7" y="34.4" fill="#334A5E" width="6.1" height="13.6"/>
		<rect x="30.8" y="34.4" fill="#40596B" width="6.1" height="13.6"/>
	</g>
	<rect x="1.8" y="15.8" fill="#F2F2F2" width="3.5" height="3.5"/>
	<rect x="7.2" y="15.8" fill="#F2F2F2" width="3.5" height="3.5"/>
	<rect x="1.8" y="24.3" fill="#F2F2F2" width="3.5" height="3.5"/>
	<rect x="7.2" y="24.3" fill="#F2F2F2" width="3.5" height="3.5"/>
	<rect x="1.8" y="32.7" fill="#F2F2F2" width="3.5" height="3.5"/>
	<rect x="7.2" y="32.7" fill="#F2F2F2" width="3.5" height="3.5"/>
	<rect x="1.8" y="41.2" fill="#F2F2F2" width="3.5" height="3.5"/>
	<rect x="7.2" y="41.2" fill="#F2F2F2" width="3.5" height="3.5"/>
</g>
</svg>
