<?xml version="1.0" encoding="utf-8"?>
<!-- Generator: Adobe Illustrator 18.0.0, SVG Export Plug-In . SVG Version: 6.00 Build 0)  -->
<!DOCTYPE svg PUBLIC "-//W3C//DTD SVG 1.1//EN" "http://www.w3.org/Graphics/SVG/1.1/DTD/svg11.dtd">
<svg version="1.1" id="Layer_1" xmlns="http://www.w3.org/2000/svg" xmlns:xlink="http://www.w3.org/1999/xlink" x="0px" y="0px"
	 viewBox="0 0 48 48" enable-background="new 0 0 48 48" xml:space="preserve">
<g>
	<path fill="#40596B" d="M17.4,40.9c-2-0.6-2.4-4.3-4.1-5.5c-1.1-0.8-3-0.8-4.5-1.1l-0.6,1l-3.6,6c-0.4,0.6,0.2,1.4,0.9,1.3l5.7-1.3
		c0.4-0.1,0.9,0.2,1,0.6l1.6,5.5c0.2,0.7,1.2,0.8,1.5,0.2l3.4-5.6l0.8-1.4C18.8,40.9,18.1,41.1,17.4,40.9z"/>
	<path fill="#40596B" d="M39.2,34.3c-1.5,0.3-3.5,0.3-4.5,1.1c-1.7,1.2-2.1,4.9-4.1,5.5c-0.6,0.2-1.4,0-2.1-0.3l0.8,1.4l3.4,5.6
		c0.4,0.6,1.3,0.5,1.5-0.2l1.6-5.5c0.1-0.4,0.6-0.7,1-0.6l5.7,1.3c0.7,0.2,1.3-0.6,0.9-1.3l-3.6-6L39.2,34.3z"/>
	<path fill="#334A5E" d="M39.8,35.3c-0.6,0.2-1.3,0.2-1.9,0.3c-1,0.1-2,0.3-2.6,0.6c-0.5,0.4-1,1.3-1.4,2.2c-0.7,1.4-1.5,3-3,3.5
		c-0.3,0.1-0.6,0.1-0.9,0.1c-0.2,0-0.4,0-0.7-0.1L24,33.2L18.7,42c-0.2,0-0.4,0.1-0.7,0.1c-0.3,0-0.6,0-0.9-0.1
		c-1.6-0.5-2.3-2.1-3-3.5c-0.4-0.9-0.9-1.8-1.4-2.2c-0.5-0.4-1.6-0.5-2.6-0.6c-0.6-0.1-1.3-0.2-1.9-0.3l6.1-10.1l9.7,5.7l9.7-5.7
		L39.8,35.3z"/>
	<path fill="#FF7058" d="M45.3,20.9c0-1-0.8-1.9-1.7-2.7c0.6-1.1,1.1-2.1,0.9-3c-0.3-1.2-1.8-1.8-3.2-2.6c0.3-1.5,0.6-3-0.1-4
		c-0.6-0.8-1.7-1-3-1.2c-0.1-1.2-0.3-2.4-1.1-3c-1-0.7-2.5-0.4-4.1-0.2c-0.7-1.4-1.3-2.8-2.5-3.2c-0.9-0.3-2,0.2-3.1,0.8
		c-0.8-0.9-1.7-1.8-2.7-1.8c-1.3,0-2.4,1.1-3.5,2.2c-1.4-0.7-2.7-1.5-3.9-1.2c-1,0.3-1.6,1.3-2.1,2.4c-1.2-0.3-2.4-0.4-3.2,0.1
		c-1,0.7-1.2,2.2-1.5,3.7C9.1,7.5,7.5,7.6,6.7,8.6c-0.6,0.8-0.5,1.9-0.2,3.1c-1.1,0.5-2.2,1.1-2.5,2c-0.4,1.2,0.3,2.5,1,3.9
		c-1.1,1-2.3,2.1-2.3,3.3c0,1,0.8,1.9,1.7,2.7c-0.6,1.1-1.1,2.1-0.9,3c0.3,1.2,1.8,1.8,3.2,2.6c-0.3,1.5-0.6,3,0.1,4
		c0.6,0.8,1.7,1,3,1.2c0.1,1.2,0.3,2.4,1.1,3c1,0.7,2.5,0.4,4.1,0.2c0.7,1.4,1.3,2.8,2.5,3.2c0.9,0.3,2-0.2,3.1-0.8
		c0.8,0.9,1.7,1.8,2.7,1.8c1.3,0,2.4-1.1,3.5-2.2c1.4,0.7,2.7,1.5,3.9,1.2c1-0.3,1.6-1.3,2.1-2.4c1.2,0.3,2.4,0.4,3.2-0.1
		c1-0.7,1.2-2.2,1.5-3.7c1.5-0.2,3.1-0.3,3.9-1.3c0.6-0.8,0.5-1.9,0.2-3.1c1.1-0.5,2.2-1.1,2.5-2c0.4-1.2-0.3-2.5-1-3.9
		C44.2,23.2,45.3,22.2,45.3,20.9z"/>
	<path fill="#FFD15C" d="M36.8,20.9c0,6.7-5.4,12.3-12.2,12.6c-0.2,0-0.4,0-0.6,0c-7,0-12.6-5.5-12.8-12.3v-0.1c0-0.1,0-0.2,0-0.2
		C11.2,14,16.9,8.4,24,8.4C31.1,8.4,36.8,14,36.8,20.9z"/>
	<path fill="#F8B64C" d="M12.3,22.2L12.3,22.2c0-0.1,0-0.2,0-0.3C12.2,15,18,9.4,25,9.4c3.3,0,6.2,1.2,8.5,3.2
		C31.2,10,27.8,8.4,24,8.4c-7.1,0-12.8,5.6-12.8,12.6c0,0.1,0,0.2,0,0.2v0.1c0.1,3.6,1.7,6.8,4.3,9.1C13.5,28.1,12.3,25.3,12.3,22.2
		z"/>
	<polygon fill="#FFFFFF" points="24,11.9 26.1,18.2 32.8,18.2 27.3,22.1 29.4,28.3 24,24.5 18.6,28.3 20.6,22.1 15.2,18.2 
		21.9,18.2 	"/>
</g>
</svg>
