<?xml version="1.0" encoding="utf-8"?>
<!-- Generator: Adobe Illustrator 18.0.0, SVG Export Plug-In . SVG Version: 6.00 Build 0)  -->
<!DOCTYPE svg PUBLIC "-//W3C//DTD SVG 1.1//EN" "http://www.w3.org/Graphics/SVG/1.1/DTD/svg11.dtd">
<svg version="1.1" id="Layer_1" xmlns="http://www.w3.org/2000/svg" xmlns:xlink="http://www.w3.org/1999/xlink" x="0px" y="0px"
	 viewBox="0 0 48 48" enable-background="new 0 0 48 48" xml:space="preserve">
<g>
	<g>
		<g>
			<path fill="#F3705A" d="M36.4,48c-9.3,0.3-17.6-1.6-24.7-5.8c0.1-2.6,0.3-5.3,0.5-7.9c0.6-6.3,2.1-12.5,4.4-18.3h15.6
				c2.2,6.3,3.5,12.9,3.7,19.5L36.4,48z"/>
		</g>
	</g>
	<g>
		<path fill="#F05540" d="M23.5,17.5c0.2-0.3,0.4-0.6,0.6-1c0.2,0.3,0.4,0.7,0.6,1c2,2.6,5.5,3.7,8,1.6c0.1-0.1,0.3-0.2,0.4-0.4
			c-0.3-0.9-0.6-1.9-0.9-2.8H16.6c-0.4,1-0.8,2.1-1.2,3.1c0,0,0,0,0.1,0.1C18,21.2,21.6,20.1,23.5,17.5z"/>
	</g>
	<g>
		<g>
			<path fill="#F3705A" d="M33.9,10.7C33.9,10.7,33.9,10.7,33.9,10.7c-1-1.5-2.9-2.2-4.6-1.7c-2,0.6-3.7,2.5-5.2,5.7
				c-1.5-3.1-3.2-5-5.2-5.7c-1.7-0.5-3.5,0.1-4.5,1.6c0,0,0,0,0,0.1c-1.5,2.3-1.2,5.5,0.9,7.4c2.5,2.2,6.3,1.9,8.3-0.7
				c0.2-0.3,0.4-0.6,0.6-0.9c0.2,0.3,0.4,0.6,0.6,0.9c2,2.6,5.8,2.9,8.3,0.7C35.1,16.2,35.5,13,33.9,10.7z"/>
		</g>
	</g>
	<g>
		<g>
			<g>
				<path fill="#F3705A" d="M17.4,10.9c0.1-5.6,2.8-9.4,6.7-9.4s6.6,3.9,6.7,9.4h0.8c-0.1-6-3.2-10.2-7.5-10.2
					c-4.4,0-7.4,4.2-7.5,10.2H17.4z"/>
			</g>
		</g>
		<g>
			<g>
				<g>
					<path fill="#F3705A" d="M25.2,4.1c-0.6,0-1.2-0.4-1.3-0.9c-0.1-0.4-0.2-1.9-0.2-2.2c0-0.2,0.1-0.3,0.2-0.4
						c0.1-0.1,0.3,0,0.4,0.1c2,1.7,2.1,2.1,2.1,2.2c0.1,0.6-0.4,1-1.1,1.1C25.3,4.1,25.2,4.1,25.2,4.1z M24.5,1.9
						c0,0.5,0.1,0.9,0.1,1.1c0,0.2,0.3,0.3,0.7,0.3c0.2,0,0.4-0.1,0.4-0.2C25.5,2.9,25.1,2.4,24.5,1.9z"/>
				</g>
			</g>
		</g>
		<g>
			<g>
				<path fill="#F3705A" d="M22.5,3.9C22.5,3.9,22.5,3.9,22.5,3.9c-0.3-0.1-0.4-0.3-0.4-0.5c0.4-1.7,1.5-2.6,1.7-2.7
					c0.7-0.6,2.5-1.3,4-0.1C28,0.7,28,1,27.9,1.2c-0.1,0.2-0.4,0.2-0.5,0.1c-1.4-1.1-3,0.1-3,0.1c0,0,0,0,0,0c0,0-1.1,0.7-1.4,2.2
					C22.9,3.8,22.7,3.9,22.5,3.9z"/>
			</g>
		</g>
	</g>
</g>
</svg>
