<?xml version="1.0" encoding="utf-8"?>
<!-- Generator: Adobe Illustrator 16.0.0, SVG Export Plug-In . SVG Version: 6.00 Build 0)  -->
<!DOCTYPE svg PUBLIC "-//W3C//DTD SVG 1.1//EN" "http://www.w3.org/Graphics/SVG/1.1/DTD/svg11.dtd">
<svg version="1.1" id="Layer_1" xmlns="http://www.w3.org/2000/svg" xmlns:xlink="http://www.w3.org/1999/xlink" x="0px" y="0px"
	 width="48px" height="48px" viewBox="0 0 48 48" enable-background="new 0 0 48 48" xml:space="preserve">
<g>
	<rect x="19.055" y="37.268" fill="#CED6E0" width="10.734" height="6.701"/>
	<path fill="#E8EAE9" d="M44,0.104H4c-2.209,0-4,1.791-4,4v30.623c0,2.211,1.791,4,4,4h40c2.209,0,4-1.789,4-4V4.104
		C48,1.895,46.209,0.104,44,0.104"/>
	<rect x="4.422" y="3.895" fill="#54C0EB" width="40" height="26.209"/>
	<path fill="#FF7058" d="M43.256,34.311c0,0.717-0.58,1.299-1.299,1.299c-0.717,0-1.297-0.582-1.297-1.299s0.58-1.299,1.297-1.299
		C42.676,33.012,43.256,33.594,43.256,34.311"/>
	<path fill="#FFD15C" d="M38.643,34.311c0,0.717-0.58,1.299-1.299,1.299c-0.717,0-1.297-0.582-1.297-1.299s0.58-1.299,1.297-1.299
		C38.063,33.012,38.643,33.594,38.643,34.311"/>
	<path fill="#E8EAE9" d="M32.102,42.592H16.742c-2.93,0-5.305,2.375-5.305,5.305h25.969C37.406,44.967,35.031,42.592,32.102,42.592"
		/>
</g>
</svg>
