<?xml version="1.0" encoding="utf-8"?>
<!-- Generator: Adobe Illustrator 18.0.0, SVG Export Plug-In . SVG Version: 6.00 Build 0)  -->
<!DOCTYPE svg PUBLIC "-//W3C//DTD SVG 1.1//EN" "http://www.w3.org/Graphics/SVG/1.1/DTD/svg11.dtd">
<svg version="1.1" id="Layer_1" xmlns="http://www.w3.org/2000/svg" xmlns:xlink="http://www.w3.org/1999/xlink" x="0px" y="0px"
	 viewBox="0 0 48 48" enable-background="new 0 0 48 48" xml:space="preserve">
<g>
	<g>
		<path fill="#415A6B" d="M32.7,20.2H3.2c-1.8,0-3.2,1.4-3.2,3.2v18.8c0,1.8,1.4,3.2,3.2,3.2h29.5c1.8,0,3.2-1.4,3.2-3.2V23.4
			C36,21.6,34.5,20.2,32.7,20.2z"/>
		<g>
			<g>
				<path fill="#344A5E" d="M18.2,24.5H5.5c-0.7,0-1.2,0.5-1.2,1.2v6.8c0,0.7,0.5,1.2,1.2,1.2h12.7c0.7,0,1.2-0.5,1.2-1.2v-6.8
					C19.4,25.1,18.9,24.5,18.2,24.5z"/>
			</g>
			<rect x="36" y="26.7" fill="#344A5E" width="3.6" height="12.3"/>
			<polygon fill="#415A6B" points="48,42.2 39.6,39 39.6,26.7 48,23.5 			"/>
			<g>
				<circle fill="#66C6B9" cx="24.9" cy="28.6" r="1.6"/>
			</g>
			<g>
				<circle fill="#F3705A" cx="29.7" cy="28.6" r="1.6"/>
			</g>
		</g>
		<g>
			<g>
				<g>
					<circle fill="#415A6B" cx="9.5" cy="10.5" r="8"/>
				</g>
				<g>
					<circle fill="#344A5E" cx="9.5" cy="10.5" r="1.6"/>
				</g>
				<g>
					<g>
						<circle fill="#344A5E" cx="9.5" cy="5.9" r="1.6"/>
					</g>
					<g>
						<circle fill="#344A5E" cx="9.5" cy="15" r="1.6"/>
					</g>
				</g>
				<g>
					<g>
						<path fill="#344A5E" d="M14.1,12.1c0.9,0,1.6-0.7,1.6-1.6c0-0.9-0.8-1.6-1.7-1.6c-0.9,0-1.6,0.7-1.6,1.6
							C12.4,11.4,13.2,12.1,14.1,12.1z"/>
					</g>
					<g>
						<path fill="#344A5E" d="M4.9,12.1c0.9,0,1.6-0.7,1.6-1.6S5.7,8.8,4.8,8.8s-1.6,0.7-1.6,1.6S3.9,12.1,4.9,12.1z"/>
					</g>
				</g>
			</g>
			<g>
				<g>
					<circle fill="#415A6B" cx="27.1" cy="10.5" r="8"/>
				</g>
				<g>
					<circle fill="#344A5E" cx="27.1" cy="10.5" r="1.6"/>
				</g>
				<g>
					<g>
						<circle fill="#344A5E" cx="27.1" cy="5.9" r="1.6"/>
					</g>
					<g>
						<circle fill="#344A5E" cx="27.1" cy="15" r="1.6"/>
					</g>
				</g>
				<g>
					<g>
						<path fill="#344A5E" d="M31.7,12.1c0.9,0,1.6-0.7,1.6-1.6c0-0.9-0.8-1.6-1.7-1.6c-0.9,0-1.6,0.7-1.6,1.6
							C30.1,11.4,30.8,12.1,31.7,12.1z"/>
					</g>
					<g>
						<path fill="#344A5E" d="M22.5,12.1c0.9,0,1.6-0.7,1.6-1.6c0-0.9-0.8-1.6-1.7-1.6c-0.9,0-1.6,0.7-1.6,1.6
							C20.9,11.4,21.6,12.1,22.5,12.1z"/>
					</g>
				</g>
			</g>
		</g>
	</g>
</g>
</svg>
