<?xml version="1.0" encoding="utf-8"?>
<!-- Generator: Adobe Illustrator 18.0.0, SVG Export Plug-In . SVG Version: 6.00 Build 0)  -->
<!DOCTYPE svg PUBLIC "-//W3C//DTD SVG 1.1//EN" "http://www.w3.org/Graphics/SVG/1.1/DTD/svg11.dtd">
<svg version="1.1" id="Layer_1" xmlns="http://www.w3.org/2000/svg" xmlns:xlink="http://www.w3.org/1999/xlink" x="0px" y="0px"
	 viewBox="0 0 48 48" enable-background="new 0 0 48 48" xml:space="preserve">
<g>
	<g>
		<path fill="#435B6C" d="M39.5,22.3c0,0-0.9,0.2-2.5,0.5c-1.6,0.4-3.9,0.9-6.6,1.7C29,24.9,27.5,25.4,26,26
			c-1.5,0.6-3.2,1.4-4.8,2.6c-0.4,0.3-0.8,0.7-1.2,1.1l-0.3,0.4l-0.1,0.2l-0.2,0.3c-0.1,0.2-0.2,0.3-0.3,0.5L19,31.4L19,31.5
			c0,0-0.1,0.3-0.1,0.2l0,0l0,0.1l0,0.2c0,0.2-0.1,0.5,0,0.7c0,0.2,0,0.5,0.1,0.7c0,0.2,0.1,0.4,0.2,0.6c0.3,0.7,0.7,1.2,1,1.7
			c1.5,1.7,3,2.8,4.5,4c0.7,0.6,1.4,1.1,2,1.7c0.3,0.2,0.5,0.5,0.6,0.7c-0.3,0.2-0.8,0.3-1.3,0.5c-1.3,0.4-2.9,0.5-4.3,0.6
			c-1.5,0.1-2.9,0.1-4.3,0c-2.7-0.1-4.9-0.3-6.5-0.4c-0.8-0.1-1.4-0.2-1.8-0.2c-0.4-0.1-0.6-0.1-0.6-0.1L8,47.8c0,0,1,0.1,2.6,0.2
			c1.7,0.1,4,0.1,6.9,0.1c1.4,0,3-0.1,4.6-0.3c1.7-0.2,3.4-0.5,5.3-1.1c0.9-0.3,1.9-0.7,2.8-1.5c0.2-0.2,0.5-0.4,0.7-0.7
			c0.1-0.1,0.2-0.3,0.3-0.4l0.1-0.2l0.1-0.1l0,0l0.1-0.2l0,0l0.1-0.2l0-0.1l0-0.2c0.1-0.3,0.1-0.6,0-0.8c0-0.5-0.2-0.8-0.3-1.2
			c-0.7-1.3-1.5-1.9-2.2-2.6c-0.8-0.6-1.6-1.2-2.3-1.7c-1.5-1.1-3.1-2.1-4.1-3.2c-0.3-0.3-0.4-0.5-0.5-0.7c-0.1-0.2-0.1-0.2,0-0.2
			l0.1-0.3c0,0,0.1-0.1,0.1-0.1c0,0,0.2-0.2,0.2-0.3c0.2-0.2,0.5-0.5,0.7-0.7c1.1-1,2.6-1.7,4-2.4c1.4-0.7,2.8-1.2,4-1.7
			c2.6-0.9,4.8-1.6,6.3-2c0.8-0.2,1.4-0.4,1.8-0.5c0.4-0.1,0.6-0.2,0.6-0.2L39.5,22.3z M27.7,42.5c0,0,0-0.1,0-0.2
			C27.7,42.5,27.7,42.6,27.7,42.5C27.7,42.6,27.7,42.6,27.7,42.5z M27.7,41.8C27.7,41.8,27.7,41.8,27.7,41.8L27.7,41.8z"/>
		<g>
			<g>
				<path fill="#67C6B9" d="M8.2,23.5c-4.5,0-8.2,3.6-8.2,8.1s8.2,16.2,8.2,16.2s8.2-11.7,8.2-16.2S12.7,23.5,8.2,23.5z"/>
				<g>
					<ellipse fill="#FFFFFF" cx="8.2" cy="31.7" rx="4.8" ry="4.8"/>
				</g>
			</g>
			<g>
				<path fill="#F3705B" d="M9.6,34.1l-0.4-1h-2l-0.4,1H5.6l2.1-4.8h1l2.1,4.8H9.6z M8.2,30.7l-0.6,1.4h1.2L8.2,30.7z"/>
			</g>
		</g>
		<g>
			<g>
				<path fill="#FFD15D" d="M39.8,0c-4.5,0-8.2,3.6-8.2,8.1s8.2,16.2,8.2,16.2S48,12.6,48,8.1S44.3,0,39.8,0z"/>
				<g>
					<ellipse fill="#FFFFFF" cx="39.8" cy="8.1" rx="4.8" ry="4.8"/>
				</g>
			</g>
			<path fill="#F3705B" d="M41.9,8.5c-0.2-0.2-0.4-0.3-0.7-0.4C41.3,8,41.4,8,41.4,8c0,0,0.1-0.1,0.2-0.1c0.2-0.2,0.4-0.5,0.4-0.8
				c0-0.3-0.1-0.6-0.3-0.8c-0.1-0.1-0.3-0.2-0.5-0.3c-0.2-0.1-0.5-0.1-0.8-0.1h-1.9v4.8h2.1c0.7,0,1.1-0.1,1.4-0.4
				c0.2-0.3,0.3-0.6,0.3-0.9C42.2,8.9,42.1,8.7,41.9,8.5z M39.4,6.7H40c0.3,0,0.5,0,0.7,0.1c0.1,0.1,0.2,0.2,0.2,0.4
				c0,0.2-0.1,0.4-0.2,0.4c-0.1,0.1-0.4,0.1-0.7,0.1h-0.5V6.7z M40.9,9.5c-0.2,0.1-0.4,0.1-0.7,0.1h-0.7V8.5h0.6
				c0.4,0,0.6,0,0.8,0.1c0.2,0.1,0.2,0.2,0.2,0.4C41.1,9.3,41,9.5,40.9,9.5z"/>
		</g>
	</g>
</g>
</svg>
