<?xml version="1.0" encoding="utf-8"?>
<!-- Generator: Adobe Illustrator 18.0.0, SVG Export Plug-In . SVG Version: 6.00 Build 0)  -->
<!DOCTYPE svg PUBLIC "-//W3C//DTD SVG 1.1//EN" "http://www.w3.org/Graphics/SVG/1.1/DTD/svg11.dtd">
<svg version="1.1" id="Layer_1" xmlns="http://www.w3.org/2000/svg" xmlns:xlink="http://www.w3.org/1999/xlink" x="0px" y="0px"
	 viewBox="0 0 48 48" enable-background="new 0 0 48 48" xml:space="preserve">
<g>
	<g>
		<path fill="#FFD15C" d="M40.3,4.9H7.7c-1.7,0-3,1.3-3,3V45c0,1.7,1.3,3,3,3h32.5c1.7,0,3-1.3,3-3V7.9C43.3,6.3,41.9,4.9,40.3,4.9z
			"/>
		<rect x="8.7" y="8.9" fill="#FFFFFF" width="30.5" height="35"/>
		<g>
			<path fill="#415A6B" d="M27.4,3.3L27.4,3.3C27.3,1.4,25.8,0,24,0c-1.8,0-3.3,1.4-3.4,3.3h0c-3.6,0-6.4,2.9-6.4,6.4h19.6
				C33.8,6.1,30.9,3.3,27.4,3.3z"/>
			<circle fill="#FFFFFF" cx="24" cy="3.3" r="1.1"/>
		</g>
		<g>
			<g>
				<g>
					<g>
						<path fill="#F3705A" d="M15.7,20.5c-0.1,0.1-0.3,0.2-0.5,0.3c-0.3,0.1-0.6,0-0.8-0.3l-2.3-2.3c-0.4-0.4-0.4-1,0-1.3
							c0,0,0,0,0,0c0.4-0.4,1-0.4,1.3,0l1.4,1.3c1-1.7,2.2-3.2,3.8-4.4c0.4-0.3,1-0.2,1.3,0.2c0.3,0.4,0.2,1-0.2,1.3
							c-1.6,1.3-2.9,2.9-3.8,4.8C15.9,20.3,15.8,20.4,15.7,20.5z"/>
					</g>
				</g>
				<g>
					<g>
						<rect x="22" y="14.5" fill="#E8EAE9" width="14.1" height="1.4"/>
					</g>
					<g>
						<rect x="22" y="18.4" fill="#E8EAE9" width="7.3" height="1.4"/>
					</g>
				</g>
			</g>
			<g>
				<g>
					<g>
						<path fill="#66C6B9" d="M15.7,30.2c-0.1,0.1-0.3,0.2-0.5,0.3c-0.3,0.1-0.6,0-0.8-0.3L12.1,28c-0.4-0.4-0.4-1,0-1.3
							c0,0,0,0,0,0c0.4-0.4,1-0.4,1.3,0l1.4,1.3c1-1.7,2.2-3.2,3.8-4.4c0.4-0.3,1-0.2,1.3,0.2c0.3,0.4,0.2,1-0.2,1.3
							c-1.6,1.3-2.9,2.9-3.8,4.8C15.9,30,15.8,30.1,15.7,30.2z"/>
					</g>
				</g>
				<g>
					<g>
						<rect x="22" y="24.3" fill="#E8EAE9" width="14.1" height="1.4"/>
					</g>
					<g>
						<rect x="22" y="28.2" fill="#E8EAE9" width="7.3" height="1.4"/>
					</g>
				</g>
			</g>
			<g>
				<g>
					<g>
						<path fill="#F3705A" d="M15.7,40c-0.1,0.1-0.3,0.2-0.5,0.3c-0.3,0.1-0.6,0-0.8-0.3l-2.3-2.3c-0.4-0.4-0.4-1,0-1.3c0,0,0,0,0,0
							c0.4-0.4,1-0.4,1.3,0l1.4,1.3c1-1.7,2.2-3.2,3.8-4.4c0.4-0.3,1-0.2,1.3,0.2c0.3,0.4,0.2,1-0.2,1.3c-1.6,1.3-2.9,2.9-3.8,4.8
							C15.9,39.8,15.8,39.9,15.7,40z"/>
					</g>
				</g>
				<g>
					<g>
						<rect x="22" y="34" fill="#E8EAE9" width="14.1" height="1.4"/>
					</g>
					<g>
						<rect x="22" y="37.9" fill="#E8EAE9" width="7.3" height="1.4"/>
					</g>
				</g>
			</g>
		</g>
	</g>
</g>
</svg>
