<?xml version="1.0" encoding="utf-8"?>
<!-- Generator: Adobe Illustrator 18.0.0, SVG Export Plug-In . SVG Version: 6.00 Build 0)  -->
<!DOCTYPE svg PUBLIC "-//W3C//DTD SVG 1.1//EN" "http://www.w3.org/Graphics/SVG/1.1/DTD/svg11.dtd">
<svg version="1.1" id="Layer_1" xmlns="http://www.w3.org/2000/svg" xmlns:xlink="http://www.w3.org/1999/xlink" x="0px" y="0px"
	 viewBox="0 0 48 48" enable-background="new 0 0 48 48" xml:space="preserve">
<g>
	<g>
		<path fill="#40596B" d="M21.7,23.4l2.9,7.2c0.3,0.7,0.3,1.5,0.1,2.2c-0.2,0.5-0.5,1-1,1.3l-5.9,3.3c-0.6,0.3-1.2,0.3-1.7,0.2
			c-0.7-0.2-1.3-0.7-1.8-1.2L9.8,30c-4.9-5.9-4.2-10.9-4.2-10.9C5.8,10.5,1.5,5.3,1.5,5.3l3.7-2.1c0,0,2.1,6.4,9.5,10.8
			C14.7,14,19.3,16.1,21.7,23.4z"/>
		<path fill="#FFD15C" d="M5.5,16.8l7.3-4C7,8.5,5.2,3.2,5.2,3.2L1.5,5.3C1.5,5.3,5,9.6,5.5,16.8z"/>
		<path fill="#F2F2F2" d="M11.5,11.7l-2.7,2.4l-3.5,1C5.5,16,5.6,17,5.6,18l2-0.6c0.9,0.8,2.2,1.1,3.3,0.4c1.1-0.6,1.6-1.9,1.4-3
			l1.6-1.4C13,12.9,12.2,12.3,11.5,11.7z"/>
		<path opacity="0.1" fill="#231F20" d="M6.3,5.4c-0.7-1.3-1-2.2-1-2.2L1.5,5.3c0,0,0.6,0.7,1.3,2.1L6.3,5.4z"/>
		<path fill="#FF7058" d="M4,1.1l-3.7,2C0.1,3.2,0,3.6,0.1,3.8l1.3,2.3c0.1,0.3,0.5,0.4,0.7,0.2l3.7-2C6,4.1,6.1,3.8,6,3.5L4.7,1.3
			C4.6,1,4.3,0.9,4,1.1z"/>
		<path fill="#FFD15C" d="M22.6,29.6l-8,4.4c0,0-5-5.8-4.4-8s5.8-5,8-4.4S22.6,29.6,22.6,29.6z"/>
		<path fill="#FF7058" d="M18.5,25.5c0.1-0.3-0.2-0.5-0.4-0.4l-1.5,0.8c-0.1,0.1-0.3,0-0.3,0L15,24.7c-0.2-0.2-0.6,0-0.5,0.3
			l0.3,1.7c0,0.1,0,0.3-0.1,0.3l-1.5,0.8c-0.3,0.1-0.2,0.5,0.1,0.6l1.7,0.2c0.1,0,0.2,0.1,0.3,0.2l0.3,1.7c0.1,0.3,0.4,0.3,0.6,0.1
			l0.7-1.5c0.1-0.1,0.2-0.2,0.3-0.2l1.7,0.2c0.3,0,0.5-0.3,0.2-0.5l-1.2-1.2c-0.1-0.1-0.1-0.2-0.1-0.3L18.5,25.5z"/>
	</g>
	<polygon fill="#F2F2F2" points="26,47 6.4,47 1.5,24.5 30.8,24.5 	"/>
	<polygon opacity="0.1" fill="#231F20" points="2.1,27.5 30.2,27.5 30.8,24.5 1.5,24.5 	"/>
	<path fill="#ACB3BA" d="M30.5,22.7H1.9c-1,0-1.8,0.8-1.8,1.8s0.8,1.8,1.8,1.8h28.6c1,0,1.8-0.8,1.8-1.8S31.5,22.7,30.5,22.7z"/>
	<circle fill="#40596B" cx="16.3" cy="30.3" r="1.6"/>
	<g>
		<path fill="#ACB3BA" d="M26.4,39.9c-2.4,0-4.7-0.8-6.6-2.2c-2.4-1.8-3.9-4.4-4.4-7.3c-0.1-0.5,0.2-0.9,0.7-0.9
			c0.5-0.1,0.9,0.2,0.9,0.7c0.4,2.5,1.7,4.7,3.7,6.2c2,1.5,4.5,2.1,7,1.8c0.5-0.1,0.9,0.2,0.9,0.7c0.1,0.5-0.2,0.9-0.7,0.9
			C27.5,39.8,27,39.9,26.4,39.9z"/>
	</g>
	<path fill="#F2F2F2" d="M47.9,31l-1.3-11.4H35.4L34.1,31c-0.4,3.7,2.3,7,5.8,7.5l0,6.3l-4.2,1.7l0,0.5l10.5,0l0-0.5L42,44.8l0-6.3
		C45.6,37.9,48.3,34.7,47.9,31z"/>
	<path fill="#84DBFF" d="M46.6,31.1L46.6,31.1C46.6,31.1,46.6,31.1,46.6,31.1l-0.8-8.2h-9.5l-0.8,8.2c-0.2,1.6,0.3,3.1,1.4,4.3
		c1.1,1.2,2.5,1.8,4.1,1.8c1.6,0,3.1-0.6,4.1-1.8C46.2,34.2,46.7,32.7,46.6,31.1z"/>
	<path fill="#FFFFFF" d="M39.5,35.6c-0.6-0.2-1.2-0.6-1.7-1.1c-0.8-0.9-1.2-2.1-1.1-3.3c0-0.2,0.2-0.4,0.5-0.4
		c0.2,0,0.4,0.2,0.4,0.5c-0.1,1,0.2,1.9,0.8,2.6C39.2,34.6,40,35,41,35c0.2,0,0.4,0.2,0.4,0.4s-0.2,0.4-0.4,0.4
		C40.5,35.9,40,35.8,39.5,35.6z"/>
	<polygon fill="#ACB3BA" points="26.5,44.7 5.9,44.7 6.4,47 26,47 	"/>
</g>
</svg>
