<?xml version="1.0" encoding="utf-8"?>
<!-- Generator: Adobe Illustrator 18.0.0, SVG Export Plug-In . SVG Version: 6.00 Build 0)  -->
<!DOCTYPE svg PUBLIC "-//W3C//DTD SVG 1.1//EN" "http://www.w3.org/Graphics/SVG/1.1/DTD/svg11.dtd">
<svg version="1.1" id="Layer_1" xmlns="http://www.w3.org/2000/svg" xmlns:xlink="http://www.w3.org/1999/xlink" x="0px" y="0px"
	 viewBox="0 0 48 48" enable-background="new 0 0 48 48" xml:space="preserve">
<g>
	<g>
		<path fill="#F8B64C" d="M37.9,1.3L37,0.4c-0.6-0.6-1.6-0.5-2,0.2l-0.8,1.3l2.2,2.2l1.3-0.8C38.4,2.9,38.5,1.9,37.9,1.3z"/>
		<path fill="#40596B" d="M21.5,25.4l1.2-1.2c1.5-1.5,3.1-4,4.1-5.9c0.6-1.1,1.1-2.3,1.6-3.5c1.1-3.2,6.9-9.2,6.9-9.2L34,4.3
			l-1.4-1.4c0,0-6,5.8-9.2,6.9c-1.2,0.4-2.4,0.9-3.5,1.6c-1.8,1-4.4,2.6-5.9,4.1l-1.2,1.2v8.7H21.5z"/>
		<path fill="#FFD15C" d="M23.4,9.9c-0.5,0.2-1,0.4-1.4,0.6l5.8,5.8c0.2-0.5,0.4-1,0.6-1.4c0.1-0.3,0.2-0.6,0.4-0.9l-4.5-4.5
			C24,9.6,23.7,9.8,23.4,9.9z"/>
		<circle fill="#FFD15C" cx="25.8" cy="12.5" r="2.6"/>
		<circle fill="#F8B64C" cx="25.8" cy="12.5" r="2"/>
		<path fill="#FF7058" d="M33.6,7.4c-1-0.6-2.2-1.8-2.8-2.8c-0.3-0.5,0.1-0.9,0.4-1.3c0.7-0.7,1.5-1.5,2.2-2.2
			c0.3-0.3,1-0.5,1.5-0.2c1,0.6,1.8,1.4,2.3,2.3c0.3,0.5,0.1,1.2-0.2,1.5c-0.7,0.7-1.5,1.5-2.2,2.2C34.6,7.3,34.1,7.7,33.6,7.4z"/>
		<path opacity="0.1" fill="#231F20" d="M34.2,6.8c-1-0.6-2.2-1.8-2.8-2.8c-0.3-0.5,0.1-0.9,0.4-1.3c-0.2,0.2-0.4,0.4-0.6,0.6
			c-0.3,0.3-0.7,0.8-0.4,1.3c0.6,1,1.8,2.2,2.8,2.8c0.5,0.3,0.9-0.1,1.3-0.4c0.2-0.2,0.4-0.4,0.6-0.6C35.1,6.7,34.7,7.1,34.2,6.8z"
			/>
	</g>
	<polygon fill="#F2F2F2" points="35.8,48 12.2,48 6.3,18.5 41.7,18.5 	"/>
	<polygon fill="#ACB3BA" points="11.2,42.2 12.2,48 35.8,48 36.8,42.2 	"/>
	<polygon fill="#CDD6E0" points="36.3,45.2 37.5,38.3 10.5,38.3 11.7,45.2 	"/>
	<polygon opacity="0.1" fill="#231F20" points="7.1,22.1 40.9,22.1 41.7,18.5 6.3,18.5 	"/>
	<path fill="#CDD6E0" d="M41.2,16.3H6.8c-1.2,0-2.2,1-2.2,2.2s1,2.2,2.2,2.2h34.4c1.2,0,2.2-1,2.2-2.2S42.4,16.3,41.2,16.3z"/>
	<circle fill="#40596B" cx="24.2" cy="25.4" r="1.9"/>
	<g>
		<path fill="#ACB3BA" d="M36.4,37c-2.8,0-5.6-0.9-7.9-2.6c-2.9-2.1-4.7-5.2-5.3-8.8c-0.1-0.5,0.3-1.1,0.8-1.1
			c0.5-0.1,1.1,0.3,1.1,0.8c0.4,3,2,5.7,4.5,7.5c2.4,1.8,5.4,2.6,8.4,2.1c0.5-0.1,1.1,0.3,1.1,0.8s-0.3,1.1-0.8,1.1
			C37.7,36.9,37,37,36.4,37z"/>
	</g>
</g>
</svg>
