<?xml version="1.0" encoding="utf-8"?>
<!-- Generator: Adobe Illustrator 20.1.0, SVG Export Plug-In . SVG Version: 6.00 Build 0)  -->
<!DOCTYPE svg PUBLIC "-//W3C//DTD SVG 1.1//EN" "http://www.w3.org/Graphics/SVG/1.1/DTD/svg11.dtd">
<svg version="1.1" id="Layer_1" xmlns="http://www.w3.org/2000/svg" xmlns:xlink="http://www.w3.org/1999/xlink" x="0px" y="0px"
	 viewBox="0 0 49 49" enable-background="new 0 0 49 49" xml:space="preserve">
<g>
	<circle fill="#FF7058" cx="24.5" cy="10" r="9.5"/>
	<circle fill="#FFD15C" cx="18.5" cy="20.6" r="11.5"/>
	<circle fill="#84DBFF" cx="33.4" cy="18.9" r="10.7"/>
	<path fill="#E2E2E2" d="M4.9,18.9c0,1.6,0.2,3.2,0.6,4.7c2.1,8.6,9.8,14.9,19,14.9c9.2,0,17-6.4,19-14.9c0.4-1.5,0.6-3.1,0.6-4.7
		H4.9z"/>
	<path fill="#F2F2F2" d="M31,48.5c0-3.6-2.9-6.5-6.5-6.5c-3.6,0-6.5,2.9-6.5,6.5H31z"/>
	<path fill="#CDD6E0" d="M27.1,38.3v4.3c-0.8-0.4-1.7-0.5-2.6-0.5s-1.8,0.2-2.6,0.5v-4.3c0.9,0.1,1.7,0.2,2.6,0.2
		C25.4,38.5,26.2,38.4,27.1,38.3z"/>
	<path fill="#F2F2F2" d="M44.1,18.2H4.9c-1,0-1.8,0.8-1.8,1.8v0.2c0,1,0.8,1.8,1.8,1.8h39.2c1,0,1.8-0.8,1.8-1.8V20
		C45.9,19,45.1,18.2,44.1,18.2z"/>
	<path fill="#ACB3BA" d="M27.1,38.3v1.5c-0.9,0.1-1.7,0.2-2.6,0.2c-0.9,0-1.7-0.1-2.6-0.2v-1.5c0.9,0.1,1.7,0.2,2.6,0.2
		C25.4,38.5,26.2,38.4,27.1,38.3z"/>
</g>
</svg>
