<?xml version="1.0" encoding="utf-8"?>
<!-- Generator: Adobe Illustrator 18.0.0, SVG Export Plug-In . SVG Version: 6.00 Build 0)  -->
<!DOCTYPE svg PUBLIC "-//W3C//DTD SVG 1.1//EN" "http://www.w3.org/Graphics/SVG/1.1/DTD/svg11.dtd">
<svg version="1.1" id="Layer_1" xmlns="http://www.w3.org/2000/svg" xmlns:xlink="http://www.w3.org/1999/xlink" x="0px" y="0px"
	 viewBox="0 0 48 48" enable-background="new 0 0 48 48" xml:space="preserve">
<g>
	<g>
		<g>
			<g>
				<g>
					<path fill="#415A6B" d="M8.4,29V27l0,0c-2.7-2.5-3.8-6.3-2.8-9.8c0.9-3,2.5-5.7,4.8-8C14,5.5,18.9,3.5,24,3.5
						c5.1,0,10,2,13.6,5.6c2.3,2.3,3.9,5.1,4.8,8c1.1,3.5-0.1,7.3-2.8,9.8V29h8.2c-0.1-0.5-0.3-1-0.5-1.5c-0.8-1.6-1-3.4-1.1-5.1
						c-0.1-5.7-2.3-11.3-6.5-15.5C35.5,2.8,29.9,0.5,24,0.5C18.1,0.5,12.5,2.8,8.3,7C4,11.3,1.8,17.1,1.8,23c0,1.6-0.4,3.1-1.1,4.6
						c-0.2,0.5-0.4,1-0.5,1.5H8.4z"/>
				</g>
				<g>
					<path fill="#55C0EB" d="M10.4,9.2c0.2,0.2,0.5,0.2,0.6,0C14.6,5.8,19.2,4,24,4s9.4,1.8,12.9,5.2c0.2,0.2,0.5,0.2,0.6,0L39.7,7
						c0.2-0.2,0.2-0.5,0-0.7C35.5,2.2,29.9,0,24,0C18.1,0,12.5,2.2,8.3,6.3C8.1,6.5,8.1,6.8,8.3,7L10.4,9.2z"/>
				</g>
			</g>
			<g>
				<g>
					<path fill="#415A6B" d="M43.9,32.7c-0.5,0-1,0.4-1.1,0.9l-0.7,8.4l-16.8,2.3v2L43.1,44c0.5-0.1,0.8-0.4,0.9-0.9l0.8-9.2
						C44.8,33.3,44.4,32.8,43.9,32.7z"/>
				</g>
			</g>
			<g>
				<path fill="#E8EAE9" d="M10,40.5L10,40.5c-1.3,0-2.3-1-2.3-2.2V22.7c0-1.2,1-2.2,2.2-2.2H10c1.2,0,2.2,1,2.2,2.2v15.6
					C12.2,39.5,11.2,40.5,10,40.5z"/>
			</g>
			<g>
				<g>
					<path fill="#55C0EB" d="M8.4,22.5c-0.2,0-0.3,0-0.5,0c-4.4,0-7.9,3.6-7.9,7.9c0,4.4,3.6,7.9,7.9,7.9c0.2,0,0.3,0,0.5,0V22.5z"
						/>
				</g>
				<g>
					<path fill="#55C0EB" d="M39.6,22.5c0.2,0,0.3,0,0.5,0c4.4,0,7.9,3.6,7.9,7.9c0,4.4-3.6,7.9-7.9,7.9c-0.2,0-0.3,0-0.5,0V22.5z"
						/>
				</g>
			</g>
			<g>
				<path fill="#E8EAE9" d="M38,40.5L38,40.5c1.3,0,2.3-1,2.3-2.2V22.7c0-1.2-1-2.2-2.2-2.2H38c-1.2,0-2.2,1-2.2,2.2v15.6
					C35.8,39.5,36.8,40.5,38,40.5z"/>
			</g>
			<g>
				<ellipse fill="#E8EAE9" cx="24.4" cy="45.5" rx="3.7" ry="2.5"/>
			</g>
		</g>
	</g>
	<g>
		<g>
			<path fill="#FFD15C" d="M24,16.8c-6.1,0-11,4-11,9c0,2.8,1.5,5.3,3.9,6.9v6.5l7.1-4.4c6.1,0,11-4,11-9S30.1,16.8,24,16.8z"/>
		</g>
		<g>
			<circle fill="#FFFFFF" cx="17.9" cy="25.8" r="1.9"/>
			<circle fill="#FFFFFF" cx="24" cy="25.8" r="1.9"/>
			<circle fill="#FFFFFF" cx="30" cy="25.8" r="1.9"/>
		</g>
	</g>
</g>
</svg>
