<?xml version="1.0" encoding="utf-8"?>
<!-- Generator: Adobe Illustrator 16.0.0, SVG Export Plug-In . SVG Version: 6.00 Build 0)  -->
<!DOCTYPE svg PUBLIC "-//W3C//DTD SVG 1.1//EN" "http://www.w3.org/Graphics/SVG/1.1/DTD/svg11.dtd">
<svg version="1.1" id="Layer_1" xmlns="http://www.w3.org/2000/svg" xmlns:xlink="http://www.w3.org/1999/xlink" x="0px" y="0px"
	 width="48px" height="48px" viewBox="0 0 48 48" enable-background="new 0 0 48 48" xml:space="preserve">
<g>
	<path fill="#FFD15C" d="M16.242,5.924c-5.697,0-10.318,4.619-10.318,10.318c0,5.698,4.621,10.318,10.318,10.318
		c5.698,0,10.318-4.62,10.318-10.318C26.561,10.543,21.94,5.924,16.242,5.924"/>
	<path fill="#FFD15C" d="M16.242,4.869c0.219,0,0.396-0.177,0.396-0.396V0.396C16.639,0.178,16.461,0,16.242,0
		s-0.396,0.178-0.396,0.396v4.076C15.846,4.692,16.023,4.869,16.242,4.869"/>
	<path fill="#FFD15C" d="M16.242,27.614c-0.219,0-0.396,0.177-0.396,0.396v4.076c0,0.22,0.178,0.397,0.396,0.397
		s0.396-0.178,0.396-0.397v-4.076C16.639,27.791,16.461,27.614,16.242,27.614"/>
	<path fill="#FFD15C" d="M11.371,5.521c0.084,0.203,0.316,0.299,0.52,0.215c0.202-0.084,0.298-0.315,0.214-0.519l-1.559-3.766
		c-0.084-0.203-0.316-0.299-0.519-0.215c-0.203,0.084-0.3,0.316-0.216,0.519L11.371,5.521z"/>
	<path fill="#FFD15C" d="M21.113,26.963c-0.084-0.202-0.316-0.299-0.52-0.215c-0.201,0.084-0.298,0.316-0.214,0.52l1.56,3.765
		c0.084,0.203,0.315,0.299,0.519,0.215s0.299-0.315,0.215-0.518L21.113,26.963z"/>
	<path fill="#FFD15C" d="M7.64,8.2c0.155,0.155,0.405,0.155,0.562,0c0.154-0.154,0.154-0.405,0-0.561L5.318,4.758
		c-0.154-0.156-0.406-0.156-0.561,0c-0.155,0.154-0.155,0.405,0,0.561L7.64,8.2z"/>
	<path fill="#FFD15C" d="M24.846,24.283c-0.156-0.155-0.406-0.155-0.562,0s-0.155,0.406,0,0.562l2.882,2.882
		c0.155,0.154,0.406,0.154,0.561,0c0.155-0.155,0.155-0.406,0-0.562L24.846,24.283z"/>
	<path fill="#FFD15C" d="M1.451,10.545l3.767,1.56c0.202,0.084,0.434-0.012,0.518-0.215s-0.012-0.435-0.215-0.519l-3.765-1.56
		c-0.203-0.084-0.436,0.013-0.52,0.215S1.248,10.461,1.451,10.545"/>
	<path fill="#FFD15C" d="M31.033,21.938l-3.766-1.56c-0.202-0.084-0.435,0.012-0.519,0.215s0.013,0.436,0.216,0.52l3.765,1.559
		c0.202,0.084,0.435-0.012,0.519-0.214C31.332,22.255,31.236,22.022,31.033,21.938"/>
	<path fill="#FFD15C" d="M4.87,16.242c0-0.22-0.179-0.397-0.397-0.397H0.396C0.178,15.845,0,16.022,0,16.242
		c0,0.219,0.178,0.396,0.396,0.396h4.076C4.691,16.639,4.87,16.461,4.87,16.242"/>
	<path fill="#FFD15C" d="M32.088,15.845h-4.076c-0.219,0-0.397,0.178-0.397,0.397c0,0.219,0.179,0.396,0.397,0.396h4.076
		c0.219,0,0.396-0.178,0.396-0.396C32.484,16.022,32.307,15.845,32.088,15.845"/>
	<path fill="#FFD15C" d="M5.736,20.594c-0.084-0.203-0.316-0.299-0.52-0.215l-3.766,1.56c-0.203,0.084-0.299,0.316-0.215,0.52
		c0.084,0.202,0.316,0.298,0.52,0.214l3.765-1.559C5.724,21.029,5.82,20.797,5.736,20.594"/>
	<path fill="#FFD15C" d="M26.749,11.89c0.084,0.203,0.315,0.299,0.519,0.215l3.766-1.56c0.203-0.084,0.299-0.316,0.215-0.519
		s-0.316-0.299-0.52-0.215l-3.765,1.56C26.761,11.455,26.665,11.687,26.749,11.89"/>
	<path fill="#FFD15C" d="M7.64,24.283l-2.882,2.882c-0.155,0.155-0.155,0.406,0,0.562c0.154,0.154,0.406,0.154,0.561,0l2.883-2.882
		c0.154-0.155,0.154-0.406,0-0.562C8.045,24.128,7.795,24.128,7.64,24.283"/>
	<path fill="#FFD15C" d="M24.846,8.2l2.881-2.882c0.155-0.155,0.155-0.406,0-0.561c-0.154-0.156-0.405-0.156-0.561,0L24.284,7.64
		c-0.155,0.155-0.155,0.406,0,0.561C24.439,8.355,24.689,8.355,24.846,8.2"/>
	<path fill="#FFD15C" d="M11.891,26.748c-0.203-0.084-0.436,0.013-0.52,0.216l-1.559,3.765c-0.084,0.203,0.012,0.435,0.214,0.519
		c0.203,0.084,0.435-0.012,0.519-0.215l1.561-3.765C12.189,27.064,12.094,26.833,11.891,26.748"/>
	<path fill="#FFD15C" d="M20.594,5.735c0.203,0.084,0.436-0.012,0.52-0.215l1.559-3.766c0.084-0.203-0.012-0.435-0.213-0.519
		c-0.203-0.084-0.436,0.012-0.52,0.215l-1.561,3.765C20.295,5.419,20.391,5.651,20.594,5.735"/>
	<path fill="#F2F2F2" d="M44.746,28.682c0.338-1.208,0.533-2.478,0.533-3.793c0-7.761-6.291-14.052-14.052-14.052
		c-5.429,0-10.13,3.084-12.47,7.59c-1.103-0.391-2.285-0.613-3.522-0.613c-5.63,0-10.218,4.406-10.533,9.958
		C1.918,29.153,0,32.017,0,35.335c0,4.667,3.783,8.449,8.45,8.449h5.527C15.662,46.323,18.545,48,21.819,48
		c3.276,0,6.157-1.677,7.842-4.216h9.89c4.666,0,8.449-3.782,8.449-8.449C48,32.63,46.725,30.229,44.746,28.682"/>
	<path fill="#E4EAEF" d="M4.702,29.771c0.315-5.551,4.903-9.958,10.533-9.958c1.237,0,2.42,0.225,3.522,0.615
		c2.34-4.507,7.041-7.59,12.471-7.59c7.449,0,13.527,5.801,14.004,13.13c0.029-0.357,0.047-0.716,0.047-1.079
		c0-7.76-6.291-14.051-14.051-14.051c-5.43,0-10.131,3.083-12.471,7.59c-1.103-0.391-2.285-0.615-3.522-0.615
		c-5.63,0-10.218,4.407-10.533,9.958C1.918,29.152,0,32.017,0,35.336c0,0.35,0.028,0.693,0.07,1.033
		C0.402,33.469,2.194,31.016,4.702,29.771"/>
</g>
</svg>
