<?xml version="1.0" encoding="utf-8"?>
<!-- Generator: Adobe Illustrator 20.1.0, SVG Export Plug-In . SVG Version: 6.00 Build 0)  -->
<!DOCTYPE svg PUBLIC "-//W3C//DTD SVG 1.1//EN" "http://www.w3.org/Graphics/SVG/1.1/DTD/svg11.dtd">
<svg version="1.1" id="Layer_1" xmlns="http://www.w3.org/2000/svg" xmlns:xlink="http://www.w3.org/1999/xlink" x="0px" y="0px"
	 viewBox="0 0 49 49" enable-background="new 0 0 49 49" xml:space="preserve">
<g>
	<rect x="0.5" y="44.8" fill="#E2E2E2" width="48" height="3.7"/>
	<path fill="#F8B64C" d="M14.6,15.4H7.3V4.7c0-1.1,0.9-2,2-2h3.2c1.1,0,2,0.9,2,2V15.4z"/>
	<rect x="7.3" y="23" fill="#F2F2F2" width="34.3" height="25.5"/>
	<path fill="#FFD15C" d="M47.6,18.9L26,1c-0.9-0.7-2.1-0.7-3,0L1.4,18.9C-0.3,20.3,0.6,23,2.9,23h43.3C48.4,23,49.3,20.3,47.6,18.9z
		"/>
	<rect x="7.3" y="23" fill="#E2E2E2" width="34.3" height="1.5"/>
	<g>
		<path fill="#40596B" d="M31,39v9.5H18V39c0-3.6,2.9-6.5,6.5-6.5l0,0C28.1,32.5,31,35.4,31,39z"/>
	</g>
</g>
</svg>
