<?xml version="1.0" encoding="utf-8"?>
<!-- Generator: Adobe Illustrator 18.0.0, SVG Export Plug-In . SVG Version: 6.00 Build 0)  -->
<!DOCTYPE svg PUBLIC "-//W3C//DTD SVG 1.1//EN" "http://www.w3.org/Graphics/SVG/1.1/DTD/svg11.dtd">
<svg version="1.1" id="Layer_1" xmlns="http://www.w3.org/2000/svg" xmlns:xlink="http://www.w3.org/1999/xlink" x="0px" y="0px"
	 viewBox="0 0 48 48" enable-background="new 0 0 48 48" xml:space="preserve">
<g>
	<path fill="#CDD6E0" d="M46,11.7h-6.7v32c0,2.4,1.9,4.3,4.3,4.3c2.4,0,4.3-1.9,4.3-4.3v-30C48,12.6,47.1,11.7,46,11.7z"/>
	<path fill="#F2F2F2" d="M39.3,43.7V2c0-1.1-0.9-2-2-2H2C0.9,0,0,0.9,0,2v41.7C0,46.1,1.9,48,4.3,48h39.3
		C41.3,48,39.3,46.1,39.3,43.7z"/>
	<path fill="#FF7058" d="M10.1,3.8h1.5v6.8h-1.5L6.8,6.4v4.3H5.3V3.8h1.4l3.3,4.4V3.8z"/>
	<path fill="#FF7058" d="M18.2,3.8v1.4h-3.4v1.4h3.1v1.3h-3.1v1.4h3.5v1.3h-5V3.8H18.2z"/>
	<path fill="#FF7058" d="M21.8,7.8L23,3.8h1.6l1.2,3.9l1.4-3.9h1.6l-2.4,6.8h-1.1l-1.5-4.7l-1.5,4.7h-1.1l-2.4-6.8h1.6L21.8,7.8z"/>
	<path fill="#FF7058" d="M31.2,5.2C31,5.3,31,5.5,31,5.7C31,5.9,31,6,31.2,6.2c0.2,0.1,0.6,0.3,1.2,0.4C33.1,6.7,33.6,7,34,7.3
		c0.4,0.3,0.5,0.8,0.5,1.4c0,0.6-0.2,1.1-0.7,1.5c-0.5,0.4-1.1,0.6-1.8,0.6c-1.1,0-2.1-0.4-2.9-1.2L30,8.4c0.7,0.6,1.4,1,2,1
		c0.3,0,0.5-0.1,0.7-0.2c0.2-0.1,0.2-0.3,0.2-0.5c0-0.2-0.1-0.4-0.3-0.5c-0.2-0.1-0.5-0.2-1-0.4c-0.8-0.2-1.4-0.4-1.7-0.7
		c-0.4-0.3-0.6-0.8-0.6-1.4c0-0.6,0.2-1.1,0.7-1.5c0.5-0.4,1-0.5,1.7-0.5c0.5,0,0.9,0.1,1.4,0.2c0.5,0.2,0.9,0.4,1.2,0.7l-0.8,1.1
		C33,5.2,32.4,5,31.8,5C31.5,5,31.3,5.1,31.2,5.2z"/>
	<rect x="4" y="16.6" fill="#CDD6E0" width="13.9" height="2.3"/>
	<rect x="4" y="12.2" fill="#40596B" width="31.3" height="1.3"/>
	<rect x="4" y="22.8" fill="#CDD6E0" width="13.9" height="2.3"/>
	<rect x="4" y="29.1" fill="#CDD6E0" width="13.9" height="2.3"/>
	<rect x="4" y="35.4" fill="#CDD6E0" width="31.3" height="2.3"/>
	<rect x="4" y="41.7" fill="#CDD6E0" width="31.3" height="2.3"/>
	<rect x="20.5" y="16.6" fill="#84DBFF" width="14.9" height="14.9"/>
</g>
</svg>
