<?xml version="1.0" encoding="utf-8"?>
<!-- Generator: Adobe Illustrator 18.0.0, SVG Export Plug-In . SVG Version: 6.00 Build 0)  -->
<!DOCTYPE svg PUBLIC "-//W3C//DTD SVG 1.1//EN" "http://www.w3.org/Graphics/SVG/1.1/DTD/svg11.dtd">
<svg version="1.1" id="Layer_1" xmlns="http://www.w3.org/2000/svg" xmlns:xlink="http://www.w3.org/1999/xlink" x="0px" y="0px"
	 viewBox="0 0 48 48" enable-background="new 0 0 48 48" xml:space="preserve">
<g>
	<path fill="#F1543F" d="M30.3,20h-7.7v-4.6c0-0.6,0.4-1,1-1h5.7c0.6,0,1,0.4,1,1V20z"/>
	<rect x="24.3" y="10.2" fill="#FFD15C" width="4.4" height="4.2"/>
	<rect x="24.3" y="10.2" fill="#F8B64C" width="4.4" height="0.5"/>
	<rect x="21.7" y="11" fill="#CDD6E0" width="2.6" height="2.6"/>
	<rect x="19.8" y="9.5" fill="#CDD6E0" width="2.7" height="5.6"/>
	<polygon fill="#F2F2F2" points="7.1,4.5 19.8,10.2 19.8,14.4 7.1,20.1 	"/>
	<path fill="#40596B" d="M39.3,3l-9.8,2.4v4.9h-5.2c-0.6,0-1.1-0.5-1.1-1.1V5c0-0.8,0.6-1.5,1.4-1.6l14-3.4c0.1,0,0.2,0,0.3,0
		c0.7,0,1.3,0.5,1.5,1.2C40.6,2,40.1,2.8,39.3,3z"/>
	<path fill="#334A5E" d="M29.5,7.2v3l9.8,0c0.8,0,1.5-0.7,1.5-1.5v0c0-0.8-0.7-1.5-1.5-1.5H29.5z"/>
	<circle fill="#CDD6E0" cx="26.5" cy="6.9" r="1.2"/>
	<path fill="#FF7058" d="M27.4,18h-1.8c-2.3,0-4.6,0.9-6.2,2.6l0,0c-1.7,1.7-2.6,3.9-2.6,6.2v17.7c0,1.9,1.5,3.4,3.4,3.4h12.6
		c1.9,0,3.4-1.5,3.4-3.4V26.8c0-2.3-0.9-4.6-2.6-6.2l0,0C32,18.9,29.7,18,27.4,18z"/>
	<ellipse fill="#FFD15C" cx="26.5" cy="33" rx="3.9" ry="6.5"/>
	<rect x="18.1" y="29.8" fill="#FFD15C" width="16.8" height="6.5"/>
</g>
</svg>
