<?xml version="1.0" encoding="utf-8"?>
<!-- Generator: Adobe Illustrator 18.0.0, SVG Export Plug-In . SVG Version: 6.00 Build 0)  -->
<!DOCTYPE svg PUBLIC "-//W3C//DTD SVG 1.1//EN" "http://www.w3.org/Graphics/SVG/1.1/DTD/svg11.dtd">
<svg version="1.1" id="Layer_1" xmlns="http://www.w3.org/2000/svg" xmlns:xlink="http://www.w3.org/1999/xlink" x="0px" y="0px"
	 viewBox="0 0 48 48" enable-background="new 0 0 48 48" xml:space="preserve">
<path fill="#40596B" d="M21.5,28.3c2.1,1.4,11.1,0.8,11.1,0.8l-0.3-1.8c-0.7-3.7-4.1-6.5-7.3-8.5l0,0h-6.7l-2.9,1.7l0.7,1.8
	C17.2,24.9,19.2,26.8,21.5,28.3z"/>
<path fill="#40596B" d="M25.8,27.9c-2.6,2.1-6.9,1-6.9,1l1.4-3.8l0.4-3.2l5.5-2.9l2.9-0.2l0,1.4C29,22.4,27.7,26.4,25.8,27.9z"/>
<g>
	<path fill="#40596B" d="M37.7,12.6C40,21.6,33.9,31.6,24,31.9c-9.9-0.4-16-10.4-13.6-19.3C12.8,3.3,17.7,0,24,0
		C30.3,0,35.3,3.3,37.7,12.6z"/>
	<polygon fill="#F8B64C" points="31.2,29.6 31.2,35.7 30.1,38.7 26.6,48 21.5,48 18,38.7 16.8,35.7 16.8,29.6 18.7,29 18.7,27.2 
		29.4,27.2 29.4,29 	"/>
	<path fill="#FFD15C" d="M34.5,17.8C31.5,29.3,24,30.1,24,30.1s-7.4-0.9-10.5-12.3c0,0-1.7-1.3-0.3-6.3c0,0,0.8-10,10.8-10
		c9.9,0,10.8,10,10.8,10C36.2,16.5,34.5,17.8,34.5,17.8z"/>
	<path fill="#84DBFF" d="M33.6,36v12H14.5V36c0.2,0.2,0.3,0.4,0.5,0.5c0.9,0.9,1.9,1.6,3,2.2c0,0,0.1,0.1,0.1,0.1
		c0.5,0.3,1.1,0.5,1.6,0.7c2.8,1,5.8,1,8.6,0c0.6-0.2,1.1-0.4,1.6-0.7c0,0,0.1,0,0.1-0.1c1.1-0.6,2.1-1.3,3-2.2
		C33.3,36.3,33.4,36.1,33.6,36z"/>
	<path fill="#CDD6E0" d="M48,42.4V48H26.5l3.5-9.2l1.3-3.3l0.9-2.5l1.2-2.8l8,2.9C45.4,34.5,48,38.2,48,42.4z"/>
	<path fill="#CDD6E0" d="M18.1,38.7l3.5,9.3H0l0-5.6c0-4.2,2.7-7.9,6.6-9.4l8.1-2.9l1.2,2.8l0.9,2.4L18.1,38.7z"/>
	<polygon fill="#F2F2F2" points="35.4,38.8 33.6,41.4 29.2,48 25.8,48 28.3,39.5 31.2,29.7 31.2,29.7 31.2,29.6 31.3,29.6 
		31.3,29.6 33.4,30.1 34.8,34 32.5,35.9 33.1,36.5 33.6,37 	"/>
	<polygon fill="#F2F2F2" points="19.7,39.5 22.3,48 18.8,48 14.5,41.4 12.7,38.8 14.5,37 15,36.5 15.6,35.9 13.3,34 14.7,30.1 
		16.7,29.6 16.8,29.6 16.8,29.6 16.8,29.7 	"/>
</g>
</svg>
