<?xml version="1.0" encoding="utf-8"?>
<!-- Generator: Adobe Illustrator 18.0.0, SVG Export Plug-In . SVG Version: 6.00 Build 0)  -->
<!DOCTYPE svg PUBLIC "-//W3C//DTD SVG 1.1//EN" "http://www.w3.org/Graphics/SVG/1.1/DTD/svg11.dtd">
<svg version="1.1" id="Layer_1" xmlns="http://www.w3.org/2000/svg" xmlns:xlink="http://www.w3.org/1999/xlink" x="0px" y="0px"
	 viewBox="0 0 48 48" enable-background="new 0 0 48 48" xml:space="preserve">
<g>
	<path fill="#334A5E" d="M28.4,33.7l0,2.6L27.3,38c-0.4,0.6-1.1,0.8-1.8,0.6l-0.2-0.1c-0.4-0.2-0.9,0-1.1,0.3l0,0
		c-0.2,0.3,0,0.7,0.4,0.7h5.2c0.3,0,0.5-0.3,0.5-0.5l0,0c0-0.3-0.3-0.4-0.6-0.4c0,0-0.5-0.2-0.5-0.3c-0.2-0.4,0.4-1.6,0.4-1.6l0,0
		c0.8-0.4,1.2-1.2,1.2-2.1v-0.9H28.4z"/>
	<path fill="#334A5E" d="M22.1,33.7l0,2.6L21.1,38c-0.4,0.6-1.1,0.8-1.8,0.6l-0.2-0.1c-0.4-0.2-0.9,0-1.1,0.3l0,0
		c-0.2,0.3,0,0.7,0.4,0.7h5.2c0.3,0,0.5-0.3,0.5-0.5l0,0c0-0.3-0.3-0.4-0.6-0.4c0,0-0.5-0.2-0.5-0.3c-0.2-0.4,0.4-1.6,0.4-1.6l0,0
		c0.8-0.4,1.2-1.2,1.2-2.1v-0.9H22.1z"/>
	<path fill="#40596B" d="M7.1,16.9c0,0-2.3,13.9,18.6,18.3c0,0,2.3,0.3,5.6-0.9c0,0,4.2-2.9,7.4-1.6c3.2,1.3,2.4,1.1,4,2.4
		c0.7,0.5,1.8-0.1,2.9-1c1.6-1.3,0.4-3.4-1.5-4.1L7.1,16.9z"/>
	<path fill="#40596B" d="M0.2,13.8c0,0,0.2-0.9,4.2-2.8L7.1,13c0,0-2.4,0.6-2.7,0.8C4.4,13.8,2.5,13.6,0.2,13.8z"/>
	<path fill="#334A5E" d="M4.4,11.1c0,0,6.4-6.8,11.9,1.2c1,1.4,2.4,2.5,4,3c2.3,0.7,5.8,2,9.3,4.1c0,0,5.6,1.4,7,2.6
		c0,0,1.3,2.1,4.2,2.3l6.6,1.5c0.3,0,0.3,0.5,0,0.5l-3.7,1.5c-0.2,0.1-0.3,0.4-0.1,0.5l1.8,1.7c0.3,0.2,0.1,0.6-0.2,0.5
		c-2.1-0.7-4.7-1.3-6.7-0.9c0,0-16.7,1.6-25.4-4.5c-2.4-1.7-4.5-2-6.6-9.6c0,0-1.5-1.1-2.3-1.7V11.1z"/>
	<circle fill="#F2F2F2" cx="7.6" cy="12" r="1"/>
	<circle fill="#40596B" cx="7.6" cy="12" r="0.7"/>
	<circle fill="#FFFFFF" cx="7.2" cy="11.6" r="0.3"/>
</g>
</svg>
