<?xml version="1.0" encoding="utf-8"?>
<!-- Generator: Adobe Illustrator 16.0.0, SVG Export Plug-In . SVG Version: 6.00 Build 0)  -->
<!DOCTYPE svg PUBLIC "-//W3C//DTD SVG 1.1//EN" "http://www.w3.org/Graphics/SVG/1.1/DTD/svg11.dtd">
<svg version="1.1" id="Layer_1" xmlns="http://www.w3.org/2000/svg" xmlns:xlink="http://www.w3.org/1999/xlink" x="0px" y="0px"
	 width="48px" height="48px" viewBox="0 0 48 48" enable-background="new 0 0 48 48" xml:space="preserve">
<g>
	<path fill="#FF7058" d="M31.639,31.657H0.001v-21.8c0-1.104,0.896-2,2-2h27.638c1.105,0,2,0.896,2,2V31.657z"/>
	<path fill="#F1543F" d="M3.295,27.386V12.129c0-0.754,0.611-1.365,1.363-1.365c0.754,0,1.364,0.611,1.364,1.365v15.257
		c0,0.753-0.61,1.364-1.364,1.364C3.906,28.75,3.295,28.139,3.295,27.386"/>
	<path fill="#F1543F" d="M8.875,27.386V12.129c0-0.754,0.611-1.365,1.364-1.365c0.754,0,1.364,0.611,1.364,1.365v15.257
		c0,0.753-0.61,1.364-1.364,1.364C9.486,28.75,8.875,28.139,8.875,27.386"/>
	<path fill="#F1543F" d="M14.456,27.386V12.129c0-0.754,0.61-1.365,1.364-1.365s1.363,0.611,1.363,1.365v15.257
		c0,0.753-0.609,1.364-1.363,1.364S14.456,28.139,14.456,27.386"/>
	<path fill="#F1543F" d="M20.037,27.386V12.129c0-0.754,0.61-1.365,1.363-1.365c0.754,0,1.364,0.611,1.364,1.365v15.257
		c0,0.753-0.61,1.364-1.364,1.364C20.647,28.75,20.037,28.139,20.037,27.386"/>
	<path fill="#F1543F" d="M25.617,27.386V12.129c0-0.754,0.611-1.365,1.364-1.365c0.754,0,1.364,0.611,1.364,1.365v15.257
		c0,0.753-0.61,1.364-1.364,1.364C26.229,28.75,25.617,28.139,25.617,27.386"/>
	<path fill="#F2F2F2" d="M39.087,14.066h-7.448v17.592h14.793V21.41c0-0.796-0.316-1.559-0.88-2.122l-4.344-4.343
		C40.646,14.382,39.883,14.066,39.087,14.066"/>
	<polygon fill="#84DBFF" points="43.689,25.378 43.689,21.301 39.194,16.808 34.381,16.808 34.381,25.378 	"/>
	<path fill="#334A5E" d="M46.431,34.798H3.142C1.408,34.798,0,33.393,0,31.658h46.431c0.867,0,1.569,0.703,1.569,1.57v0.001
		C48,34.096,47.298,34.798,46.431,34.798"/>
	<path fill="#40596B" d="M15.699,34.798c0,2.952-2.393,5.344-5.346,5.344c-2.95,0-5.344-2.392-5.344-5.344
		c0-2.952,2.394-5.345,5.344-5.345C13.307,29.454,15.699,31.847,15.699,34.798"/>
	<path fill="#CDD6E0" d="M13.04,34.798c0,1.483-1.202,2.686-2.687,2.686c-1.482,0-2.684-1.203-2.684-2.686
		c0-1.483,1.201-2.686,2.684-2.686C11.838,32.113,13.04,33.315,13.04,34.798"/>
	<path fill="#40596B" d="M42.979,34.798c0,2.952-2.394,5.344-5.345,5.344s-5.344-2.392-5.344-5.344c0-2.952,2.393-5.345,5.344-5.345
		S42.979,31.847,42.979,34.798"/>
	<path fill="#CDD6E0" d="M40.32,34.798c0,1.483-1.201,2.686-2.686,2.686c-1.483,0-2.686-1.203-2.686-2.686
		c0-1.483,1.202-2.686,2.686-2.686C39.119,32.113,40.32,33.315,40.32,34.798"/>
</g>
</svg>
