<?xml version="1.0" encoding="utf-8"?>
<!-- Generator: Adobe Illustrator 18.0.0, SVG Export Plug-In . SVG Version: 6.00 Build 0)  -->
<!DOCTYPE svg PUBLIC "-//W3C//DTD SVG 1.1//EN" "http://www.w3.org/Graphics/SVG/1.1/DTD/svg11.dtd">
<svg version="1.1" id="Layer_1" xmlns="http://www.w3.org/2000/svg" xmlns:xlink="http://www.w3.org/1999/xlink" x="0px" y="0px"
	 viewBox="0 0 48 48" enable-background="new 0 0 48 48" xml:space="preserve">
<g>
	<g>
		<polygon fill="#354B5E" points="37.7,9 38.7,0.7 32.7,0 31.7,8.3 23.4,7.4 22.7,13.4 31,14.4 28.3,38.2 34.3,38.9 37,15.1 
			45.4,16 46.1,10 		"/>
		<polygon fill="#354B5E" points="20.6,20.4 20,16.1 14,16.8 13.2,10.8 8.9,11.3 9.7,17.4 3.6,18.2 4.2,22.5 10.2,21.7 12.4,39 
			16.8,38.4 14.6,21.2 		"/>
		<path fill="#FFD15D" d="M47.1,46.3c-1.3-1.9-2.8-3.7-4.4-5.3c-1.5-1.4-3.1-2.7-4.8-3.9c-1.6-1.3-3.3-2.5-4.9-3.8
			c-2-1.6-4.1-3.2-6.6-3.9c-2.5-0.7-5.2-0.4-7.4,0.9c-2.3,1.2-4.1,3.4-5,6c-0.3,0.8-0.6,1.7-1.4,1.9C11.5,38.5,5.5,41,4.6,42
			c-0.9,1.1-2.3,1.7-3.3,2.6c-0.9,0.8-1.6,2.2-1.2,3.4H48C47.7,47.4,47.4,46.8,47.1,46.3z"/>
	</g>
</g>
</svg>
