<?xml version="1.0" encoding="utf-8"?>
<!-- Generator: Adobe Illustrator 20.1.0, SVG Export Plug-In . SVG Version: 6.00 Build 0)  -->
<!DOCTYPE svg PUBLIC "-//W3C//DTD SVG 1.1//EN" "http://www.w3.org/Graphics/SVG/1.1/DTD/svg11.dtd">
<svg version="1.1" id="Layer_1" xmlns="http://www.w3.org/2000/svg" xmlns:xlink="http://www.w3.org/1999/xlink" x="0px" y="0px"
	 viewBox="0 0 49 49" enable-background="new 0 0 49 49" xml:space="preserve">
<g>
	<rect x="3" y="5.9" fill="#F2F2F2" width="43" height="28.4"/>
	<path fill="#E4EAEF" d="M46,5.9v1.5c-0.1,0-0.1,0-0.2,0H3.2c-0.1,0-0.1,0-0.2,0V5.9H46z"/>
	<g>
		<path fill="#40596B" d="M19.2,15.5c0,1.7-0.6,3.2-1.6,4.4c-1.3,1.6-3.3,2.7-5.5,2.7c-3.9,0-7.1-3.2-7.1-7.1c0-3.9,3.2-7.1,7.1-7.1
			C16,8.4,19.2,11.6,19.2,15.5z"/>
		<path fill="#FFD15C" d="M19.2,15.5h-7.1V8.4C16,8.4,19.2,11.6,19.2,15.5z"/>
		<path fill="#ACB3BA" d="M19.2,15.5c0,1.7-0.6,3.2-1.6,4.4l-5.5-4.4H19.2z"/>
	</g>
	<g>
		<g>
			<rect x="38.7" y="15.8" fill="#4CDBC4" width="2.3" height="13"/>
			<rect x="34.2" y="18.5" fill="#84DBFF" width="2.3" height="10.4"/>
			<rect x="29.8" y="21.2" fill="#FFD05C" width="2.3" height="7.6"/>
			<rect x="25.4" y="15.2" fill="#F2705B" width="2.3" height="13.6"/>
			<rect x="20.9" y="24.1" fill="#84DBFF" width="2.3" height="4.7"/>
		</g>
		<rect x="17.9" y="30" fill="#3DC9AE" width="26.1" height="2.3"/>
	</g>
	<g>
		<polygon fill="#FFD15C" points="23.5,35 21,41.1 17.9,48.5 11.8,48.5 14.8,41.1 17.4,35 		"/>
		<polygon fill="#FFD15C" points="37.2,48.5 31.1,48.5 28,41.1 25.5,35 31.6,35 34.2,41.1 		"/>
	</g>
	<polygon fill="#F8B64C" points="17.4,35 23.5,35 21,41.1 14.8,41.1 	"/>
	<polygon fill="#F8B64C" points="34.2,41.1 28,41.1 25.5,35 31.6,35 	"/>
	<g>
		<path fill="#FF7058" d="M3.2,5.9h42.6c1.5,0,2.7-1.2,2.7-2.7s-1.2-2.7-2.7-2.7H3.2c-1.5,0-2.7,1.2-2.7,2.7S1.7,5.9,3.2,5.9z"/>
		<path fill="#FF7058" d="M45.8,34.3H3.2c-1.5,0-2.7,1.2-2.7,2.7c0,1.5,1.2,2.7,2.7,2.7h42.6c1.5,0,2.7-1.2,2.7-2.7
			C48.5,35.5,47.3,34.3,45.8,34.3z"/>
	</g>
</g>
</svg>
