<?xml version="1.0" encoding="utf-8"?>
<!-- Generator: Adobe Illustrator 18.0.0, SVG Export Plug-In . SVG Version: 6.00 Build 0)  -->
<!DOCTYPE svg PUBLIC "-//W3C//DTD SVG 1.1//EN" "http://www.w3.org/Graphics/SVG/1.1/DTD/svg11.dtd">
<svg version="1.1" id="Layer_1" xmlns="http://www.w3.org/2000/svg" xmlns:xlink="http://www.w3.org/1999/xlink" x="0px" y="0px"
	 viewBox="0 0 48 48" enable-background="new 0 0 48 48" xml:space="preserve">
<g>
	<g>
		<g>
			<g>
				<polygon fill="#F05540" points="38,45 32.1,42.7 28.7,48 20,21.3 29.3,18.2 				"/>
			</g>
			<g>
				<polygon fill="#F3705A" points="10,45 15.9,42.7 19.3,48 28,21.3 18.7,18.2 				"/>
			</g>
		</g>
		<g>
			<g>
				<g>
					<path fill="#FFD15C" d="M40.6,16.6c0,1.4-2.4,2.4-2.7,3.7c-0.4,1.3,1.2,3.4,0.5,4.6c-0.7,1.2-3.2,0.9-4.2,1.9
						c-1,1-0.7,3.5-1.9,4.2c-1.2,0.7-3.2-0.8-4.6-0.5c-1.3,0.3-2.3,2.7-3.7,2.7c-1.4,0-2.4-2.4-3.7-2.7c-1.3-0.4-3.4,1.2-4.6,0.5
						c-1.2-0.7-0.9-3.2-1.9-4.2c-1-1-3.5-0.7-4.2-1.9c-0.7-1.2,0.8-3.2,0.5-4.6c-0.3-1.3-2.7-2.3-2.7-3.7c0-1.4,2.4-2.4,2.7-3.7
						c0.4-1.3-1.2-3.4-0.5-4.6c0.7-1.2,3.2-0.9,4.2-1.9s0.7-3.5,1.9-4.2c1.2-0.7,3.2,0.8,4.6,0.5C21.6,2.4,22.6,0,24,0
						c1.4,0,2.4,2.4,3.7,2.7c1.3,0.4,3.4-1.2,4.6-0.5c1.2,0.7,0.9,3.2,1.9,4.2c1,1,3.5,0.7,4.2,1.9c0.7,1.2-0.8,3.2-0.5,4.6
						C38.2,14.1,40.6,15.2,40.6,16.6z"/>
				</g>
				<g>
					<circle fill="#F7B64C" cx="24" cy="16.6" r="10"/>
				</g>
				<g>
					<path fill="#FFD15C" d="M20.8,10.5h4.9v12.1h-2.6v-9.8h-2.3V10.5z"/>
				</g>
			</g>
		</g>
	</g>
</g>
</svg>
