<?xml version="1.0" encoding="utf-8"?>
<!-- Generator: Adobe Illustrator 18.0.0, SVG Export Plug-In . SVG Version: 6.00 Build 0)  -->
<!DOCTYPE svg PUBLIC "-//W3C//DTD SVG 1.1//EN" "http://www.w3.org/Graphics/SVG/1.1/DTD/svg11.dtd">
<svg version="1.1" id="Layer_1" xmlns="http://www.w3.org/2000/svg" xmlns:xlink="http://www.w3.org/1999/xlink" x="0px" y="0px"
	 viewBox="0 0 48 48" enable-background="new 0 0 48 48" xml:space="preserve">
<g>
	<g>
		<path fill="#F7B64C" d="M48,17.2V10c0-1.7-1.3-3-3-3H21.9l-3.1-3.7c-0.6-0.7-1.4-1.1-2.3-1.1H3c-1.7,0-3,1.3-3,3v11.9H48z"/>
		<path fill="#FFD15C" d="M23.1,11.8l3.1-3.7C26.7,7.4,27.6,7,28.5,7H45c1.7,0,3,1.3,3,3v32.7c0,1.7-1.3,3-3,3H3c-1.7,0-3-1.3-3-3
			l0-27.9c0-1.7,1.3-3,3-3H23.1z"/>
		<g>
			<path fill="#415A6B" d="M26.4,29.9l1.7,5h-8.1l1.7-5c-1-0.7-1.7-1.9-1.7-3.3c0-2.3,1.8-4.1,4.1-4.1c2.3,0,4.1,1.8,4.1,4.1
				C28.1,28,27.4,29.2,26.4,29.9z"/>
		</g>
	</g>
</g>
</svg>
