<?xml version="1.0" encoding="utf-8"?>
<!-- Generator: Adobe Illustrator 16.0.0, SVG Export Plug-In . SVG Version: 6.00 Build 0)  -->
<!DOCTYPE svg PUBLIC "-//W3C//DTD SVG 1.1//EN" "http://www.w3.org/Graphics/SVG/1.1/DTD/svg11.dtd">
<svg version="1.1" id="Layer_1" xmlns="http://www.w3.org/2000/svg" xmlns:xlink="http://www.w3.org/1999/xlink" x="0px" y="0px"
	 width="48px" height="48px" viewBox="0 0 48 48" enable-background="new 0 0 48 48" xml:space="preserve">
<g>
	<path fill="#84DBFF" d="M39.953,28.186C39.953,39.125,31.01,48,19.975,48C8.943,48,0,39.125,0,28.186
		c0-4.051,1.225-7.814,3.334-10.955c0.205-0.299,0.408-0.598,0.633-0.885c2.898-3.869,7.205-6.645,12.164-7.602
		c0.059-0.012,0.119-0.021,0.178-0.033c1.186-0.223,2.414-0.336,3.666-0.336c0.51,0,1.008,0.018,1.502,0.055
		c0.613,0.049,1.213,0.117,1.809,0.219c8.145,1.346,14.617,7.568,16.256,15.545c0.043,0.197,0.08,0.398,0.117,0.602
		C39.852,25.896,39.953,27.025,39.953,28.186"/>
	<path fill="#54C0EB" d="M18.9,12.123c-0.027,0.629-0.934,0.678-1.529,0.9c-0.424,0.166-0.758,0.506-1.09,0.82
		c-0.756,0.709-1.611,1.32-2.529,1.814c-0.949,0.512-2.27,0.83-2.979,0.021c2.266-0.92,3.982-2.943,4.768-5.238
		c-1.09,0.59-1.918,1.543-2.867,2.342c-1.074,0.895-2.309,1.586-3.344,2.52c-1.031,0.941-1.879,2.225-1.826,3.609
		c-0.01-0.795-0.498-1.539-1.17-1.98c-0.67-0.443-1.498-0.602-2.297-0.592c-0.021,0-0.049,0-0.07,0.006
		c2.898-3.871,7.203-6.645,12.164-7.604c0.059-0.01,0.117-0.02,0.176-0.031c0.242,1.012,0.893,1.928,1.783,2.48
		C18.461,11.422,18.928,11.688,18.9,12.123"/>
	<path fill="#54C0EB" d="M23.285,8.646c0.49,0.277,0.967,0.576,1.301,0.996c0.09,0.117,0.182,0.262,0.148,0.4
		c-0.068,0.355-0.605,0.281-0.938,0.432c-0.559,0.254-0.377,1.143,0.123,1.496c0.504,0.355,1.158,0.398,1.707,0.68
		c0.215,0.107,0.424,0.303,0.391,0.539c-0.016,0.127-0.107,0.229-0.193,0.324c-0.654,0.729-1.309,1.463-1.965,2.199
		c-0.17,0.18-0.342,0.377-0.574,0.484c-0.295,0.148-0.643,0.139-0.98,0.127c-1.273-0.037-2.873,0.24-3.211,1.459
		c-0.08,0.299-0.08,0.65-0.295,0.877c-0.193,0.215-0.527,0.273-0.688,0.518c-0.246,0.379,0.096,0.852,0.16,1.299
		c0.098,0.709-0.74,1.363-1.406,1.098c-0.025-0.768-0.047-1.539-0.063-2.307c-0.006-0.127-0.012-0.26-0.082-0.361
		c-0.08-0.123-0.236-0.176-0.381-0.219c-0.734-0.223-1.652-0.377-2.162,0.193C13.66,19.443,13.92,20.35,14.326,21
		c0.408,0.639,0.961,1.271,0.982,2.027c0.012,0.377-0.176,0.797-0.541,0.877c-0.543,0.113-0.891-0.574-0.924-1.127
		c-0.697,1.432-0.939,3.082-0.654,4.652c-1.123,0.283-2.238,0.564-3.361,0.842C9.422,28.377,8.98,28.5,8.713,28.83
		c-0.252,0.314-0.279,0.744-0.275,1.139c0.018,1.369,0.371,2.727,1.01,3.93c0.227,0.41,0.488,0.82,0.865,1.096
		c1.047,0.783,2.549,0.379,3.816,0.725c1.078,0.303,1.943,1.15,2.484,2.125c0.543,0.973,0.816,2.076,1.068,3.162
		c0.119,0.5,0.248,1.033,0.607,1.398c0.424,0.428,1.057,0.543,1.646,0.635c1.01,0.164,2.111,0.309,2.996-0.188
		c0.762-0.424,1.252-1.266,2.066-1.574c0.553-0.209,1.17-0.133,1.75-0.262c0.574-0.127,1.17-0.623,1.047-1.197
		c-0.117-0.543-0.854-0.938-0.688-1.469c0.119-0.369,0.57-0.475,0.936-0.598c1.646-0.553,2.527-2.709,1.717-4.242
		c-0.123-0.24-0.289-0.484-0.313-0.756c-0.059-0.836,1.111-1.119,1.682-1.736c0.52-0.559,0.531-1.4,0.605-2.156
		c0.082-0.756,0.377-1.623,1.111-1.836c0.719-0.213,1.439,0.336,1.879,0.938c0.43,0.602,0.768,1.318,1.395,1.719
		c0.018-1.309,0.033-2.629,0.055-3.939c0.006-0.475,0.027-0.98,0.328-1.342c0.516-0.605,1.471-0.453,2.254-0.287
		c0.252,0.059,0.531,0.105,0.783,0.08C37.902,16.219,31.43,9.994,23.285,8.646 M27.211,21.516l0.074-0.027
		c0.227,0.006,0.439,0.012,0.66,0.021c-0.113,0.469,0.021,0.99,0.344,1.357c0.145,0.16,0.316,0.287,0.461,0.453
		c0.35,0.395,0.457,0.984,0.264,1.475c-0.424,0.031-0.865,0.059-1.289-0.043c-0.412-0.107-0.816-0.361-0.992-0.75
		c-0.102-0.246-0.113-0.508-0.123-0.773C26.594,22.596,26.652,21.834,27.211,21.516 M21.32,28.314
		c-0.652-0.113-1.213-0.521-1.793-0.832c-0.848-0.447-1.803-0.686-2.758-0.691c-0.338-0.012-0.682,0.021-1.01-0.059
		c-0.326-0.086-0.645-0.303-0.74-0.623c-0.113-0.41,0.172-0.83,0.52-1.076c0.35-0.238,0.764-0.373,1.117-0.611l0.07-0.627
		c0.768,0.771,1.707,1.373,2.732,1.756c0.488,0.186,1.004,0.314,1.523,0.367c0.549,0.053,1.096,0.01,1.637-0.027
		c0.184-0.021,0.361-0.031,0.533-0.043c0.369-0.025,0.734-0.057,1.105-0.084c0.439-0.027,0.906-0.074,1.262-0.34
		c0.139,0.543-0.113,1.111-0.51,1.5c-0.393,0.383-0.912,0.629-1.422,0.857C22.873,28.105,22.1,28.436,21.32,28.314 M29.029,32.193
		c-0.033,0.123-0.092,0.246-0.199,0.311c-0.08,0.047-0.172,0.063-0.262,0.068c-0.848,0.111-1.799,0.197-2.465-0.33
		c-0.311-0.244-0.514-0.592-0.707-0.922c-0.264-0.441-0.516-0.883-0.773-1.318c-0.264-0.447-0.531-0.943-0.414-1.449
		c0.396-0.047,0.816-0.021,1.209,0.064l0.117,0.121c-0.135,0.32,0.012,0.699,0.258,0.934c0.24,0.238,0.578,0.377,0.896,0.5
		c0.268,0.111,0.547,0.213,0.822,0.324c0.385,0.154,0.783,0.314,1.094,0.592C28.912,31.363,29.127,31.791,29.029,32.193
		 M30.494,28.025c-0.074,0.074-0.172,0.123-0.277,0.15c-0.795,0.26-1.762-0.367-1.836-1.199l0.123-0.1
		c0.586,0,1.17-0.006,1.76-0.006c0.102-0.006,0.221,0,0.301,0.068c0.08,0.074,0.096,0.193,0.104,0.303
		C30.688,27.516,30.699,27.828,30.494,28.025"/>
	<path fill="#40596B" d="M36.789,0c-6.191,0-11.211,4.979-11.211,11.119s11.211,21.537,11.211,21.537S48,17.26,48,11.119
		S42.982,0,36.789,0"/>
	<path fill="#FFFFFF" d="M36.789,16.143c-2.797,0-5.064-2.248-5.064-5.023c0-2.773,2.268-5.023,5.064-5.023s5.066,2.25,5.066,5.023
		C41.855,13.895,39.586,16.143,36.789,16.143"/>
	<path fill="#FF7058" d="M9.348,24.824c-3.119,0-5.646,2.506-5.646,5.6c0,3.092,5.646,10.848,5.646,10.848s5.646-7.756,5.646-10.848
		C14.994,27.33,12.467,24.824,9.348,24.824"/>
	<path fill="#FFFFFF" d="M9.348,32.953c-1.408,0-2.551-1.133-2.551-2.529c0-1.398,1.143-2.531,2.551-2.531s2.551,1.133,2.551,2.531
		C11.898,31.82,10.756,32.953,9.348,32.953"/>
</g>
</svg>
