<?xml version="1.0" encoding="utf-8"?>
<!-- Generator: Adobe Illustrator 16.0.0, SVG Export Plug-In . SVG Version: 6.00 Build 0)  -->
<!DOCTYPE svg PUBLIC "-//W3C//DTD SVG 1.1//EN" "http://www.w3.org/Graphics/SVG/1.1/DTD/svg11.dtd">
<svg version="1.1" id="Layer_1" xmlns="http://www.w3.org/2000/svg" xmlns:xlink="http://www.w3.org/1999/xlink" x="0px" y="0px"
	 width="48px" height="48px" viewBox="0 0 48 48" enable-background="new 0 0 48 48" xml:space="preserve">
<g>
	<path fill="#415A6B" d="M22.66,25.804v17.771c0,0.959-0.781,1.738-1.738,1.738c-0.959,0-1.74-0.779-1.74-1.738v-1.076
		c0-0.74-0.598-1.34-1.338-1.34s-1.34,0.6-1.34,1.34v1.076c0,2.436,1.98,4.418,4.418,4.418c2.436,0,4.416-1.982,4.416-4.418V25.804
		H22.66z"/>
	<path fill="#415A6B" d="M25.338,11.663V9.032c0-0.74-0.598-1.339-1.338-1.339s-1.34,0.599-1.34,1.339v2.631H25.338z"/>
	<path fill="#F3705A" d="M10.656,28.156c2.73,0,4.02,0.516,5.688,1.865c1.799-1.35,4.564-2.213,7.656-2.213
		c3.09,0,5.857,0.863,7.654,2.213c1.668-1.35,2.957-1.865,5.688-1.865c3.215,0,6.002,1.07,7.398,2.635
		C43.883,18.766,34.936,9.301,24,9.301S4.115,18.766,3.26,30.791C4.654,29.227,7.441,28.156,10.656,28.156"/>
	<path fill="#F05540" d="M24,9.302L24,9.302c-3.449,0-6.652,8.37-7.625,20.698c1.797-1.336,4.551-2.191,7.625-2.191
		s5.826,0.855,7.623,2.191C30.65,17.672,27.449,9.302,24,9.302"/>
	<path fill="#8AD7F8" d="M10.715,12.712c0,1.37-1.109,2.481-2.48,2.481c-1.369,0-2.48-1.111-2.48-2.481
		c0-1.369,2.48-4.579,2.48-4.579S10.715,11.343,10.715,12.712"/>
	<path fill="#FFFFFF" d="M8.234,14.402c-0.932,0-1.689-0.758-1.689-1.689c0-0.146,0.119-0.265,0.264-0.265s0.264,0.119,0.264,0.265
		c0,0.641,0.521,1.161,1.162,1.161c0.145,0,0.264,0.119,0.264,0.265S8.379,14.402,8.234,14.402"/>
	<path fill="#8AD7F8" d="M26.48,4.588c0,1.37-1.111,2.481-2.48,2.481c-1.371,0-2.482-1.111-2.482-2.481S24,0.008,24,0.008
		S26.48,3.218,26.48,4.588"/>
	<path fill="#FFFFFF" d="M24,6.278c-0.932,0-1.691-0.758-1.691-1.69c0-0.145,0.119-0.264,0.264-0.264
		c0.146,0,0.266,0.119,0.266,0.264c0,0.642,0.52,1.162,1.162,1.162c0.145,0,0.264,0.119,0.264,0.264
		C24.264,6.16,24.145,6.278,24,6.278"/>
	<path fill="#8AD7F8" d="M41.006,8.742c0,1.37-1.111,2.481-2.482,2.481c-1.369,0-2.48-1.111-2.48-2.481s2.48-4.58,2.48-4.58
		S41.006,7.372,41.006,8.742"/>
	<path fill="#FFFFFF" d="M38.523,10.433c-0.932,0-1.689-0.758-1.689-1.69c0-0.145,0.119-0.264,0.264-0.264s0.264,0.119,0.264,0.264
		c0,0.642,0.521,1.162,1.162,1.162c0.145,0,0.264,0.119,0.264,0.264C38.787,10.314,38.668,10.433,38.523,10.433"/>
	<path fill="#8AD7F8" d="M16.504,22.267c0,1.37-1.111,2.481-2.48,2.481c-1.371,0-2.48-1.111-2.48-2.481s2.48-4.58,2.48-4.58
		S16.504,20.896,16.504,22.267"/>
	<path fill="#FFFFFF" d="M14.023,23.957c-0.932,0-1.691-0.758-1.691-1.69c0-0.145,0.119-0.264,0.266-0.264
		c0.145,0,0.264,0.119,0.264,0.264c0,0.642,0.52,1.162,1.162,1.162c0.145,0,0.264,0.119,0.264,0.265S14.168,23.957,14.023,23.957"/>
	<path fill="#8AD7F8" d="M35.066,19.028c0,1.37-1.111,2.481-2.48,2.481c-1.371,0-2.482-1.111-2.482-2.481s2.482-4.58,2.482-4.58
		S35.066,17.658,35.066,19.028"/>
	<path fill="#FFFFFF" d="M32.586,20.719c-0.932,0-1.691-0.758-1.691-1.69c0-0.145,0.119-0.264,0.264-0.264
		c0.146,0,0.266,0.119,0.266,0.264c0,0.642,0.52,1.162,1.162,1.162c0.145,0,0.264,0.119,0.264,0.265S32.73,20.719,32.586,20.719"/>
</g>
</svg>
