<?xml version="1.0" encoding="utf-8"?>
<!-- Generator: Adobe Illustrator 16.0.0, SVG Export Plug-In . SVG Version: 6.00 Build 0)  -->
<!DOCTYPE svg PUBLIC "-//W3C//DTD SVG 1.1//EN" "http://www.w3.org/Graphics/SVG/1.1/DTD/svg11.dtd">
<svg version="1.1" id="Layer_1" xmlns="http://www.w3.org/2000/svg" xmlns:xlink="http://www.w3.org/1999/xlink" x="0px" y="0px"
	 width="48px" height="48px" viewBox="0 0 48 48" enable-background="new 0 0 48 48" xml:space="preserve">
<g>
	<path fill="#F3705A" d="M16.596,35.732l6.102,6.091l6.08-2.508c1.609-0.664,3.461-0.29,4.686,0.948l6.217,6.282
		c1.881,1.945,4.99,1.973,6.902,0.06c1.914-1.914,1.887-5.026-0.063-6.905l-6.295-6.225c-1.232-1.22-1.611-3.061-0.959-4.665
		l2.443-6.016l-6.092-6.101L16.596,35.732z M44.43,44.536c-0.613,0.613-1.797,0.423-2.645-0.424
		c-0.846-0.848-1.037-2.031-0.424-2.644c0.613-0.613,1.797-0.424,2.645,0.424C44.854,42.739,45.043,43.923,44.43,44.536"/>
	<path fill="#E8EAE9" d="M0,25.858c5.729,2.823,11.369,5.856,16.596,9.874l19.021-19.038c-4.072-5.027-7.139-10.723-9.758-16.717
		C14.563,4.807,6.316,13.964,0,25.858"/>
	<polygon fill="#415A6B" points="41.688,22.774 35.619,16.694 16.596,35.732 22.668,41.795 	"/>
	<path fill="#8AD7F8" d="M28.666,11.754c1.229-0.216,1.846-1.013,2.09-2.11c-1.832-3.09-3.438-6.328-4.896-9.665
		C14.563,4.807,6.316,13.963,0,25.858c5.141,2.534,10.193,5.276,14.957,8.709c2.656-6.384,1.143-13.719,1.639-18.636
		C17.295,8.97,22.74,12.798,28.666,11.754"/>
	<path fill="#8AD7F8" d="M12.322,30.556c0.08,0.58,0.131,1.17,0.16,1.76l-1.17-1.06c-0.59,1.021-0.32,4.01-0.131,5.59
		c0,0.04,0.01,0.07,0.01,0.101c0,0.5-0.398,0.92-0.908,0.949c-0.561,0.021-1.012-0.449-0.961-1.01c0.221-2.57-0.5-6.439-1.5-7.13
		C6.682,28.966,12.322,30.556,12.322,30.556"/>
	<path fill="#8AD7F8" d="M13.682,42.576c0.01,0.54-0.398,0.989-0.939,0.989h-0.08c-0.58,0-1.029-0.529-0.92-1.109
		c0.359-1.92,1-6.061,0.74-10.141l2.48,2.25C14.963,34.565,13.592,39.815,13.682,42.576"/>
</g>
</svg>
