<?xml version="1.0" encoding="utf-8"?>
<!-- Generator: Adobe Illustrator 18.0.0, SVG Export Plug-In . SVG Version: 6.00 Build 0)  -->
<!DOCTYPE svg PUBLIC "-//W3C//DTD SVG 1.1//EN" "http://www.w3.org/Graphics/SVG/1.1/DTD/svg11.dtd">
<svg version="1.1" id="Layer_1" xmlns="http://www.w3.org/2000/svg" xmlns:xlink="http://www.w3.org/1999/xlink" x="0px" y="0px"
	 viewBox="0 0 48 48" enable-background="new 0 0 48 48" xml:space="preserve">
<g>
	<g>
		<rect x="13.2" y="11.8" fill="#FF7058" width="3.8" height="8.1"/>
	</g>
	<g>
		<path fill="#FFD15C" d="M17,8.3c0-1-1.9-3.3-1.9-3.3s-1.9,2.3-1.9,3.3c0,1,0.8,1.9,1.9,1.9C16.1,10.2,17,9.4,17,8.3z"/>
	</g>
	<g>
		<rect x="22.1" y="6.8" fill="#FF7058" width="3.8" height="13.1"/>
	</g>
	<g>
		<path fill="#FFD15C" d="M25.9,3.3C25.9,2.3,24,0,24,0s-1.9,2.3-1.9,3.3c0,1,0.8,1.9,1.9,1.9C25,5.2,25.9,4.4,25.9,3.3z"/>
	</g>
	<g>
		<rect x="31" y="11.8" fill="#FF7058" width="3.8" height="8.1"/>
	</g>
	<g>
		<path fill="#FFD15C" d="M34.8,8.3c0-1-1.9-3.3-1.9-3.3S31,7.3,31,8.3c0,1,0.8,1.9,1.9,1.9C34,10.2,34.8,9.4,34.8,8.3z"/>
	</g>
	<path fill="#F2F2F2" d="M40.3,18.3v13.6H7.7V18.3c0-1.7,1.4-3.1,3.1-3.1h26.4C38.9,15.2,40.3,16.6,40.3,18.3z"/>
	<rect x="7.7" y="21.8" fill="#CDD6E0" width="32.6" height="4.5"/>
	<path fill="#CDD6E0" d="M44.8,35v8.7H3.2V35c0-1.7,1.4-3.1,3.1-3.1h35.4C43.4,31.9,44.8,33.3,44.8,35z"/>
	<rect x="3.2" y="35.6" fill="#E8EAEA" width="41.6" height="4.3"/>
	<path fill="#40596B" d="M45.8,43.7H2.2c-1.2,0-2.2,1-2.2,2.2C0,47,1,48,2.2,48h43.7c1.2,0,2.2-1,2.2-2.2C48,44.6,47,43.7,45.8,43.7
		z"/>
	<path fill="#E8EAEA" d="M37.2,15.2H10.8c-1.7,0-3.1,1.4-3.1,3.1v6.6c2.3,1.6,6.9,4.1,9.4-0.4c3.4-6.1,3.3-0.3,3.3-0.3
		c0,0.6,0.5,1.1,1.1,1.1c0.6,0,1.1-0.5,1.1-1.1V22c0-1.9,1.8-3.2,3.5-2.7c4,1.1,10.3,2.3,14.1-0.5v-0.5
		C40.3,16.6,38.9,15.2,37.2,15.2z"/>
</g>
</svg>
