<?xml version="1.0" encoding="utf-8"?>
<!-- Generator: Adobe Illustrator 18.0.0, SVG Export Plug-In . SVG Version: 6.00 Build 0)  -->
<!DOCTYPE svg PUBLIC "-//W3C//DTD SVG 1.1//EN" "http://www.w3.org/Graphics/SVG/1.1/DTD/svg11.dtd">
<svg version="1.1" id="Layer_1" xmlns="http://www.w3.org/2000/svg" xmlns:xlink="http://www.w3.org/1999/xlink" x="0px" y="0px"
	 viewBox="0 0 48 48" enable-background="new 0 0 48 48" xml:space="preserve">
<g>
	<path fill="#CDD6E0" d="M41.1,48h-35v0c0-3.9,3.2-7.2,7.2-7.2h20.7C37.9,40.8,41.1,44.1,41.1,48L41.1,48z"/>
	<path fill="#CDD6E0" d="M41.1,48h-35c0-2,0.8-3.8,2.1-5.1c1-1,2.4-1.8,3.9-2c0.4-0.1,0.8-0.1,1.1-0.1H34c0.6,0,1.2,0.1,1.8,0.2
		C38.8,41.8,41.1,44.7,41.1,48z"/>
	<path fill="#C3D0DB" d="M35.7,41.1c-3.4,2.1-7.4,3.2-11.7,3.2c-4.4,0-8.5-1.2-11.9-3.4c0.4-0.1,0.8-0.1,1.1-0.1H34
		C34.6,40.8,35.2,40.9,35.7,41.1z"/>
	<circle fill="#F2F2F2" cx="24" cy="21.4" r="21.4"/>
	<circle fill="#40596B" cx="24" cy="21.4" r="15.5"/>
	<path fill="#54C0EB" d="M24,32.1c-5.9,0-10.7-4.8-10.7-10.7c0-5.9,4.8-10.7,10.7-10.7c5.9,0,10.7,4.8,10.7,10.7
		C34.7,27.3,29.9,32.1,24,32.1z"/>
	<path fill="#40596B" d="M24,27.3c-3.3,0-5.9-2.7-5.9-5.9s2.7-5.9,5.9-5.9s5.9,2.7,5.9,5.9S27.3,27.3,24,27.3z"/>
	<circle fill="#FFFFFF" cx="27.8" cy="17.6" r="2.9"/>
	<circle fill="#FF7058" cx="24" cy="3" r="1.1"/>
</g>
</svg>
