<?xml version="1.0" encoding="utf-8"?>
<!-- Generator: Adobe Illustrator 18.0.0, SVG Export Plug-In . SVG Version: 6.00 Build 0)  -->
<!DOCTYPE svg PUBLIC "-//W3C//DTD SVG 1.1//EN" "http://www.w3.org/Graphics/SVG/1.1/DTD/svg11.dtd">
<svg version="1.1" id="Layer_1" xmlns="http://www.w3.org/2000/svg" xmlns:xlink="http://www.w3.org/1999/xlink" x="0px" y="0px"
	 viewBox="0 0 48 48" enable-background="new 0 0 48 48" xml:space="preserve">
<g>
	<g>
		<path fill="#E8EAE9" d="M15.5,22.3V13c0-4.8,3.9-8.7,8.7-8.7s8.7,3.9,8.7,8.7v9.3h4.3V13c0-7.2-5.9-13-13-13c-7.2,0-13,5.9-13,13
			v9.3H15.5z"/>
		<path fill="#F7B64C" d="M38.3,20.2H9.7c-2.2,0-4,1.8-4,4V44c0,2.2,1.8,4,4,4h28.6c2.2,0,4-1.8,4-4V24.2
			C42.3,21.9,40.5,20.2,38.3,20.2z"/>
		<rect x="10" y="24.5" fill="#FFD15C" width="27.9" height="19.2"/>
		<path fill="#415A6B" d="M25.9,35.3l1.4,3.6h-6.7l1.4-3.6c-0.9-0.6-1.4-1.6-1.4-2.7c0-1.8,1.5-3.3,3.3-3.3s3.3,1.5,3.3,3.3
			C27.3,33.7,26.8,34.7,25.9,35.3z"/>
	</g>
</g>
</svg>
