<?xml version="1.0" encoding="utf-8"?>
<!-- Generator: Adobe Illustrator 18.0.0, SVG Export Plug-In . SVG Version: 6.00 Build 0)  -->
<!DOCTYPE svg PUBLIC "-//W3C//DTD SVG 1.1//EN" "http://www.w3.org/Graphics/SVG/1.1/DTD/svg11.dtd">
<svg version="1.1" id="Layer_1" xmlns="http://www.w3.org/2000/svg" xmlns:xlink="http://www.w3.org/1999/xlink" x="0px" y="0px"
	 viewBox="0 0 48 48" enable-background="new 0 0 48 48" xml:space="preserve">
<g>
	<circle fill="#40596B" cx="24.6" cy="43.1" r="4.9"/>
	<circle fill="#40596B" cx="40.3" cy="43.1" r="4.9"/>
	<path fill="#40596B" d="M45.8,8.8H14.2l-1.6-7.1c-0.2-1-1.1-1.7-2.1-1.7H2.2C1,0,0,1,0,2.2s1,2.2,2.2,2.2h6.6l7.3,33.1
		c0.2,1,1.1,1.7,2.1,1.7h2.2c1.1-1.1,2.6-1.9,4.3-1.9c1.7,0,3.2,0.7,4.3,1.9h7.2c1.1-1.1,2.6-1.9,4.3-1.9c1.7,0,3.2,0.7,4.3,1.9h0.1
		c1.2,0,2.2-1,2.2-2.2c0-1.2-1-2.2-2.2-2.2H19.9l-0.8-3.4L46,29.4c1.1-0.1,2-1,2-2.2V10.9C48,9.7,47,8.8,45.8,8.8z"/>
	<circle fill="#FFFFFF" cx="40.3" cy="43.1" r="1.9"/>
	<circle fill="#FFFFFF" cx="24.6" cy="43.1" r="1.9"/>
	<g>
		<circle fill="#FF7058" cx="29.8" cy="19.7" r="6.8"/>
		<polygon fill="#FFFFFF" points="34.8,18.5 31.1,18.5 31.1,14.7 28.6,14.7 28.6,18.5 24.8,18.5 24.8,20.9 28.6,20.9 28.6,24.7 
			31.1,24.7 31.1,20.9 34.8,20.9 		"/>
	</g>
</g>
</svg>
