<?xml version="1.0" encoding="utf-8"?>
<!-- Generator: Adobe Illustrator 18.0.0, SVG Export Plug-In . SVG Version: 6.00 Build 0)  -->
<!DOCTYPE svg PUBLIC "-//W3C//DTD SVG 1.1//EN" "http://www.w3.org/Graphics/SVG/1.1/DTD/svg11.dtd">
<svg version="1.1" id="Layer_1" xmlns="http://www.w3.org/2000/svg" xmlns:xlink="http://www.w3.org/1999/xlink" x="0px" y="0px"
	 viewBox="0 0 48 48" enable-background="new 0 0 48 48" xml:space="preserve">
<g>
	<g>
		<g>
			<rect x="2.6" y="15" fill="#F3F3F3" width="42.8" height="29.8"/>
		</g>
		<g>
			<g>
				<g>
					<path fill="#F05540" d="M0,12.7v2.8c0,2.7,2.1,4.8,4.8,4.8c2.7,0,4.8-2.1,4.8-4.8v-2.8H0z"/>
				</g>
				<g>
					<path fill="#CED6E0" d="M9.6,12.7v2.8c0,2.7,2.1,4.8,4.8,4.8c2.7,0,4.8-2.1,4.8-4.8v-2.8H9.6z"/>
				</g>
				<g>
					<path fill="#F05540" d="M19.2,12.7v2.8c0,2.7,2.1,4.8,4.8,4.8c2.7,0,4.8-2.1,4.8-4.8v-2.8H19.2z"/>
				</g>
				<g>
					<path fill="#CED6E0" d="M28.8,12.7v2.8c0,2.7,2.1,4.8,4.8,4.8c2.7,0,4.8-2.1,4.8-4.8v-2.8H28.8z"/>
				</g>
				<g>
					<path fill="#F05540" d="M38.4,12.7v2.8c0,2.7,2.1,4.8,4.8,4.8c2.7,0,4.8-2.1,4.8-4.8v-2.8H38.4z"/>
				</g>
				<polygon fill="#F3705A" points="9.6,12.7 13.2,5.9 6.1,5.9 0,12.7 				"/>
				<polygon fill="#E8EAE9" points="19.2,12.7 20.4,5.9 13.2,5.9 9.6,12.7 				"/>
				<polygon fill="#F3705A" points="28.8,12.7 27.6,5.9 20.4,5.9 19.2,12.7 				"/>
				<polygon fill="#E8EAE9" points="38.4,12.7 34.8,5.9 27.6,5.9 28.8,12.7 				"/>
				<polygon fill="#F3705A" points="48,12.7 41.9,5.9 34.8,5.9 38.4,12.7 				"/>
			</g>
			<rect x="6.1" y="0" fill="#415A6B" width="35.9" height="5.9"/>
		</g>
		<g>
			<rect x="6.6" y="25.5" fill="#415A6B" width="14.4" height="19.3"/>
		</g>
		<g>
			<g>
				<rect x="24.8" y="25.5" fill="#415A6B" width="17.9" height="16.5"/>
			</g>
			<rect x="26.8" y="27.5" fill="#8AD7F8" width="13.9" height="12.5"/>
			<g>
				<g>
					<g>
						<path fill="#55C0EB" d="M35,30.3l-5.6,5.6c-0.3,0.3-0.7,0.3-0.9,0c-0.3-0.3-0.3-0.7,0-0.9l5.6-5.6c0.3-0.3,0.7-0.3,0.9,0
							C35.3,29.6,35.3,30,35,30.3z"/>
					</g>
				</g>
				<g>
					<g>
						<path fill="#55C0EB" d="M35.8,32.9L32,36.7c-0.3,0.3-0.7,0.3-0.9,0c-0.3-0.3-0.3-0.7,0-0.9l3.8-3.8c0.3-0.3,0.7-0.3,0.9,0
							C36.1,32.2,36.1,32.7,35.8,32.9z"/>
					</g>
				</g>
			</g>
		</g>
		<rect y="44.8" fill="#CED6E0" width="48" height="3.2"/>
	</g>
</g>
</svg>
