<?xml version="1.0" encoding="utf-8"?>
<!-- Generator: Adobe Illustrator 18.0.0, SVG Export Plug-In . SVG Version: 6.00 Build 0)  -->
<!DOCTYPE svg PUBLIC "-//W3C//DTD SVG 1.1//EN" "http://www.w3.org/Graphics/SVG/1.1/DTD/svg11.dtd">
<svg version="1.1" id="Layer_1" xmlns="http://www.w3.org/2000/svg" xmlns:xlink="http://www.w3.org/1999/xlink" x="0px" y="0px"
	 viewBox="0 0 48 48" enable-background="new 0 0 48 48" xml:space="preserve">
<g>
	<path fill="#40596B" d="M13.8,22H4c-2.2,0-4-1.8-4-4V7.6h17.8V18C17.8,20.2,16,22,13.8,22z"/>
	<rect x="2.1" y="-0.1" fill="#F2F2F2" width="13.6" height="7.8"/>
	<path fill="#40596B" d="M34.2,25.8H44c2.2,0,4,1.8,4,4v10.4H30.2V29.8C30.2,27.6,32,25.8,34.2,25.8z"/>
	<rect x="32.3" y="40.1" fill="#F2F2F2" width="13.6" height="7.8"/>
	<g>
		<path fill="#CDD6E0" d="M17.6,48.1c-5.6,0-10.2-4.6-10.2-10.2V22.2h3v15.7c0,4,3.2,7.2,7.2,7.2c4,0,7.2-3.2,7.2-7.2V7.8
			c0-4.3,3.5-7.9,7.9-7.9s7.9,3.5,7.9,7.9v18h-3v-18c0-2.7-2.2-4.9-4.9-4.9c-2.7,0-4.9,2.2-4.9,4.9v30.1
			C27.9,43.5,23.3,48.1,17.6,48.1z"/>
	</g>
	<g>
		<rect x="5.4" y="2.1" fill="#CDD6E0" width="1.5" height="3.4"/>
		<rect x="11" y="2.1" fill="#CDD6E0" width="1.5" height="3.4"/>
	</g>
	<g>
		<rect x="35.5" y="42.3" fill="#CDD6E0" width="1.5" height="3.4"/>
		<rect x="41.1" y="42.3" fill="#CDD6E0" width="1.5" height="3.4"/>
	</g>
	<rect x="5.8" y="22" fill="#ACB3BA" width="6.3" height="3.5"/>
	<rect x="35.9" y="22.3" fill="#ACB3BA" width="6.3" height="3.5"/>
</g>
</svg>
