<?xml version="1.0" encoding="utf-8"?>
<!-- Generator: Adobe Illustrator 18.0.0, SVG Export Plug-In . SVG Version: 6.00 Build 0)  -->
<!DOCTYPE svg PUBLIC "-//W3C//DTD SVG 1.1//EN" "http://www.w3.org/Graphics/SVG/1.1/DTD/svg11.dtd">
<svg version="1.1" id="Layer_1" xmlns="http://www.w3.org/2000/svg" xmlns:xlink="http://www.w3.org/1999/xlink" x="0px" y="0px"
	 viewBox="0 0 512 512" enable-background="new 0 0 512 512" xml:space="preserve">
<g>
	<rect x="2.1" y="467.2" fill="#65C5B8" width="507.7" height="42.5"/>
	<polygon fill="#F2F2F2" points="453,249.8 453,509.7 59,509.7 59,249.8 256,94.6 	"/>
	<polygon fill="#CDD5DF" points="161.4,52.1 161.4,151.8 66,196.4 66,52.1 	"/>
	<rect x="42.1" y="2" fill="#CDD5DF" width="143.2" height="50.1"/>
	<g>
		<path fill="#F2705B" d="M481.4,264.4c-6.1,0-12.3-2-17.4-6L256,94.6L48.1,258.4c-12.2,9.6-30,7.5-39.6-4.7
			c-9.6-12.2-7.5-30,4.7-39.6L238.5,36.6c10.2-8.1,24.7-8.1,34.9,0L498.8,214c12.2,9.6,14.3,27.4,4.7,39.6
			C498,260.7,489.7,264.4,481.4,264.4z"/>
	</g>
	<g>
		<polygon opacity="0.5" fill="#CDD5DF" points="453,249.8 453,261 256,105.9 59,261 59,249.8 256,94.6 		"/>
	</g>
	<rect x="66" y="52.1" fill="#ABB2B9" width="95.5" height="15.2"/>
	<path fill="#FFD05C" d="M341.2,510H170.8V279.7c0-2.8,2.2-5,5-5h160.4c2.8,0,5,2.2,5,5V510z"/>
	<circle fill="#41596B" cx="317" cy="392.4" r="14.6"/>
</g>
</svg>
