<?xml version="1.0" encoding="utf-8"?>
<!-- Generator: Adobe Illustrator 19.0.1, SVG Export Plug-In . SVG Version: 6.00 Build 0)  -->
<svg version="1.1" id="Layer_1" xmlns="http://www.w3.org/2000/svg" xmlns:xlink="http://www.w3.org/1999/xlink" x="0px" y="0px"
	 viewBox="0 0 48 48" style="enable-background:new 0 0 48 48;" xml:space="preserve">
<style type="text/css">
	.st0{fill:#66C6B9;}
	.st1{fill:#F3F3F3;}
	.st2{fill:#415A6B;}
	.st3{fill:#CED6E0;}
	.st4{fill:#F3705A;}
	.st5{fill:#E8EAE9;}
	.st6{fill:#4ABAA5;}
	.st7{fill:#F05540;}
	.st8{fill:#FFD15C;}
	.st9{fill:#55C0EB;}
	.st10{fill:#8AD7F8;}
	.st11{fill:#344A5E;}
	.st12{fill:#FFFFFF;}
	.st13{fill:#F7B64C;}
	.st14{fill:#ADB3BA;}
	.st15{fill:#38A892;}
	.st16{fill:#ED9845;}
	.st17{fill:#2D4251;}
	.st18{fill:#304556;}
	.st19{fill:#A5AAAD;}
	.st20{fill:#2D4456;}
	.st21{fill:#4FB0E0;}
	.st22{fill:#2D4354;}
	.st23{fill:#E54C38;}
	.st24{fill:#2B4456;}
	.st25{fill:#2B404F;}
</style>
<g>
	<g>
		<g>
			<g>
				<g>
					<path class="st0" d="M40.9,8v37.3c0,1.5-1.2,2.7-2.7,2.7H9.8c-1.5,0-2.7-1.2-2.7-2.7V8c0-1.5,1.2-2.7,2.7-2.7h28.5
						C39.7,5.4,40.9,6.6,40.9,8z"/>
					<g>
						<rect x="10.6" y="8.9" class="st12" width="26.7" height="35.5"/>
						<g>
							<rect x="14.2" y="38.2" class="st3" width="19.6" height="2.7"/>
						</g>
					</g>
				</g>
			</g>
		</g>
		<g>
			<g>
				<path class="st4" d="M23.2,17.3c-5,0-9,4-9,9c0,5,4,9,9,9s9-4,9-9h-9V17.3z"/>
			</g>
			<g>
				<path class="st8" d="M24.8,15.7v9h9C33.8,19.7,29.8,15.7,24.8,15.7z"/>
			</g>
		</g>
		<path class="st2" d="M29.6,4.3h-2.2V3.4C27.4,1.5,25.9,0,24,0h0c-1.9,0-3.4,1.5-3.4,3.4v0.9h-2.2c-1,0-1.8,0.8-1.8,1.8v4.7h14.7
			V6.1C31.3,5.1,30.5,4.3,29.6,4.3z M24,4.9c-0.8,0-1.5-0.7-1.5-1.5c0-0.8,0.7-1.5,1.5-1.5s1.5,0.7,1.5,1.5
			C25.5,4.2,24.8,4.9,24,4.9z"/>
	</g>
</g>
</svg>
