<?xml version="1.0" encoding="utf-8"?>
<!-- Generator: Adobe Illustrator 18.0.0, SVG Export Plug-In . SVG Version: 6.00 Build 0)  -->
<!DOCTYPE svg PUBLIC "-//W3C//DTD SVG 1.1//EN" "http://www.w3.org/Graphics/SVG/1.1/DTD/svg11.dtd">
<svg version="1.1" id="Layer_1" xmlns="http://www.w3.org/2000/svg" xmlns:xlink="http://www.w3.org/1999/xlink" x="0px" y="0px"
	 viewBox="0 0 48 48" enable-background="new 0 0 48 48" xml:space="preserve">
<g>
	<g>
		<g>
			<path fill="#E8EAE9" d="M17,18.4c1.4-1,2.9-2.5,2.9-3.9c0-4.4-6.8-11.9-12.2-14.2C6.2-0.4,4.4,0.1,3.4,1.4c-0.5,0.7-1,1.3-1.4,2
				l0,0c6.5,3.2,11.7,8.3,14.9,14.7L17,18.4z"/>
			<path fill="#E8EAE9" d="M29.5,30.9l0.3,0.1c6.4,3.2,11.6,8.4,14.8,14.8l0,0c0.7-0.4,1.4-0.9,2-1.4c1.3-1,1.8-2.8,1.1-4.4
				C45.4,34.8,37.9,28,33.4,28C32,28,30.6,29.4,29.5,30.9z"/>
		</g>
		<g>
			<path fill="#F3705A" d="M29.8,31l-0.3-0.1c-1,1.3-1.6,2.6-1.6,2.6c-1.8,1.8-5.4,1.3-9.5-2.8c-4.1-4.1-5.9-8.9-4.1-10.7
				c0,0,1.3-0.6,2.7-1.6l-0.1-0.3C13.7,11.7,8.4,6.6,2,3.4C-3.2,12.1,2,22,14.6,34.5s21.3,16.4,30,11.3C41.4,39.4,36.2,34.2,29.8,31
				z"/>
		</g>
	</g>
</g>
</svg>
