<?xml version="1.0" encoding="utf-8"?>
<!-- Generator: Adobe Illustrator 18.0.0, SVG Export Plug-In . SVG Version: 6.00 Build 0)  -->
<!DOCTYPE svg PUBLIC "-//W3C//DTD SVG 1.1//EN" "http://www.w3.org/Graphics/SVG/1.1/DTD/svg11.dtd">
<svg version="1.1" id="Layer_1" xmlns="http://www.w3.org/2000/svg" xmlns:xlink="http://www.w3.org/1999/xlink" x="0px" y="0px"
	 viewBox="0 0 512 512" enable-background="new 0 0 512 512" xml:space="preserve">
<g>
	<path fill="#CDD6E0" d="M483.1,370.6H28.9C14.1,370.6,2,382.6,2,397.5c0,14.9,12.1,26.9,26.9,26.9h454.1
		c14.9,0,26.9-12.1,26.9-26.9C510,382.6,497.9,370.6,483.1,370.6z"/>
	<path fill="#40596B" d="M480.4,370.6H31.6V66.9c0-1.1,0.9-2,2-2h444.8c1.1,0,2,0.9,2,2V370.6z"/>
	<rect x="63.3" y="96.6" fill="#F2F2F2" width="385.3" height="242.2"/>
	<path fill="#ACB3BA" d="M442.8,447.1H69.2c-4.7,0-9.3-1.6-13-4.5l-23.3-18.2h446.3l-23.3,18.2C452.1,445.5,447.6,447.1,442.8,447.1
		z"/>
	<path fill="#ACB3BA" d="M308.2,381.6H203.8c-3.1,0-5.5-2.5-5.5-5.5l0,0c0-3.1,2.5-5.5,5.5-5.5h104.3c3.1,0,5.5,2.5,5.5,5.5l0,0
		C313.7,379.2,311.2,381.6,308.2,381.6z"/>
	<g>
		<path fill="#FF7058" d="M218.3,257.5h-17.5l-6.9-18.1h-31.8l-6.6,18.1h-17l31-79.5h17L218.3,257.5z M188.7,226l-11-29.5L167,226
			H188.7z"/>
		<path fill="#FF7058" d="M226.9,178h31.8c6.3,0,11,0.3,14.1,0.8c3.1,0.5,5.9,1.6,8.3,3.3c2.4,1.7,4.5,3.9,6.1,6.6
			c1.6,2.8,2.4,5.9,2.4,9.3c0,3.7-1,7.1-3,10.3c-2,3.1-4.7,5.4-8.2,7c4.8,1.4,8.6,3.8,11.2,7.2c2.6,3.4,3.9,7.4,3.9,12
			c0,3.6-0.8,7.1-2.5,10.6c-1.7,3.4-4,6.1-6.9,8.2c-2.9,2-6.5,3.3-10.8,3.8c-2.7,0.3-9.1,0.5-19.4,0.5h-27.1V178z M242.9,191.2v18.4
			h10.5c6.3,0,10.1-0.1,11.7-0.3c2.7-0.3,4.9-1.3,6.5-2.8c1.6-1.6,2.4-3.6,2.4-6.2c0-2.5-0.7-4.5-2-6c-1.4-1.5-3.4-2.5-6.1-2.8
			c-1.6-0.2-6.2-0.3-13.7-0.3H242.9z M242.9,222.8v21.3h14.9c5.8,0,9.5-0.2,11-0.5c2.4-0.4,4.3-1.5,5.8-3.2c1.5-1.7,2.3-3.9,2.3-6.8
			c0-2.4-0.6-4.4-1.7-6.1c-1.2-1.7-2.8-2.9-5-3.6s-6.9-1.1-14.2-1.1H242.9z"/>
		<path fill="#FF7058" d="M358,228.3l15.6,4.9c-2.4,8.7-6.4,15.1-11.9,19.3c-5.6,4.2-12.6,6.3-21.1,6.3c-10.6,0-19.2-3.6-26-10.8
			c-6.8-7.2-10.2-17.1-10.2-29.6c0-13.2,3.4-23.5,10.3-30.8c6.8-7.3,15.8-11,27-11c9.7,0,17.6,2.9,23.7,8.6
			c3.6,3.4,6.3,8.3,8.1,14.6l-15.9,3.8c-0.9-4.1-2.9-7.4-5.9-9.8s-6.6-3.6-10.9-3.6c-5.9,0-10.7,2.1-14.4,6.3
			c-3.7,4.2-5.5,11.1-5.5,20.6c0,10.1,1.8,17.2,5.4,21.5c3.6,4.3,8.3,6.4,14.1,6.4c4.3,0,7.9-1.4,11-4.1
			C354.4,238.3,356.6,234.1,358,228.3z"/>
	</g>
</g>
</svg>
