<?xml version="1.0" encoding="utf-8"?>
<!-- Generator: Adobe Illustrator 16.0.0, SVG Export Plug-In . SVG Version: 6.00 Build 0)  -->
<!DOCTYPE svg PUBLIC "-//W3C//DTD SVG 1.1//EN" "http://www.w3.org/Graphics/SVG/1.1/DTD/svg11.dtd">
<svg version="1.1" id="Layer_1" xmlns="http://www.w3.org/2000/svg" xmlns:xlink="http://www.w3.org/1999/xlink" x="0px" y="0px"
	 width="48px" height="48px" viewBox="0 0 48 48" enable-background="new 0 0 48 48" xml:space="preserve">
<g>
	<path fill="#40596B" d="M36.147,24.813c1.31,0.736,2.886-0.389,2.612-1.865c-0.303-1.619-0.547-3.479-0.406-4.746
		c0.48-4.328-0.755-13.261-6.566-16.136C29.994,1.18,27.63,0,24.056,0s-5.938,1.18-7.73,2.066C10.514,4.941,9.28,13.874,9.76,18.202
		c0.141,1.268-0.105,3.127-0.406,4.746c-0.274,1.477,1.302,2.602,2.612,1.865c-0.907,2.152-0.098,4.646,1.9,5.857l10.189,6.178
		l10.191-6.178C36.246,29.46,37.053,26.966,36.147,24.813L36.147,24.813z"/>
	<path fill="#F2F2F2" d="M45.335,40.999c-0.76-4.461-3.71-8.07-7.641-9.811c-0.649-0.301-1.978-0.885-3.975-1.074H14.279
		c-1.996,0.189-3.324,0.773-3.975,1.074c-3.93,1.74-6.88,5.35-7.64,9.811l-0.82,7.002h44.312L45.335,40.999z"/>
	<path fill="#84DBFF" d="M46.154,48.001H1.844l0.819-7.002c0.76-4.461,3.711-8.07,7.641-9.811c0.24-0.109,0.58-0.27,1.02-0.42
		c0.721-0.27,1.711-0.539,2.961-0.66h19.439c1.24,0.121,2.23,0.391,2.949,0.66c0.441,0.15,0.781,0.311,1.021,0.42
		c3.931,1.74,6.88,5.35,7.64,9.811L46.154,48.001z"/>
	<rect x="23.535" y="29.49" fill="#FFD15C" width="0.004" height="0.004"/>
	<path fill="#F8B64C" d="M36.674,30.769c-0.08,0.67-0.261,1.311-0.56,1.92c-2.341,4.641-6.971,7.49-12.111,7.49
		c-5.149-0.01-9.779-2.859-12.09-7.439c-0.319-0.641-0.51-1.301-0.59-1.971c0.721-0.27,1.711-0.539,2.961-0.66
		c0.459-0.049,0.92-0.08,1.39-0.08h1.64v-2.92c3.02,3.9,6.75,4.281,6.75,4.281s3.689-0.371,6.71-4.221v2.859h1.57
		c0.47,0,0.93,0.031,1.38,0.08C34.964,30.229,35.955,30.499,36.674,30.769"/>
	<rect x="24.027" y="17.627" fill="#FFD15C" width="0.004" height="0.004"/>
	<path fill="#F8B64C" d="M15.495,17.044c0.397,1.701,0.187,3.205-0.468,3.357c-0.655,0.152-1.508-1.102-1.905-2.803
		c-0.397-1.703-0.188-3.205,0.468-3.359C14.245,14.087,15.097,15.343,15.495,17.044"/>
	<path fill="#F8B64C" d="M32.548,17.044c-0.396,1.701-0.187,3.205,0.469,3.357c0.654,0.152,1.393-1.133,1.904-2.803
		c0.307-0.998,0.166-3.035-0.467-3.359C33.855,13.935,32.946,15.343,32.548,17.044"/>
	<polygon fill="#3AB7DD" points="12.449,48.001 9.878,48.001 12.449,42.716 	"/>
	<polygon fill="#3AB7DD" points="35.549,48.001 38.119,48.001 35.549,42.716 	"/>
	<g opacity="0.1">
		<g>
			<defs>
				<rect id="SVGID_27_" x="20.994" y="27.181" width="15.681" height="11.789"/>
			</defs>
			<clipPath id="SVGID_2_">
				<use xlink:href="#SVGID_27_"  overflow="visible"/>
			</clipPath>
			<path clip-path="url(#SVGID_2_)" fill="#40596B" d="M33.724,30.108c-0.447-0.049-0.904-0.078-1.372-0.08
				c-0.004,0.002-0.015,0.006-0.017,0.006h-1.57v-2.855c-0.004,0.006-0.014,0.012-0.018,0.018c-3.012,3.826-6.691,4.199-6.691,4.199
				s-1.34-0.143-3.063-1.088l8.614,8.662c2.759-1.252,5.067-3.426,6.507-6.281c0.299-0.609,0.479-1.25,0.56-1.92
				C35.955,30.499,34.964,30.229,33.724,30.108"/>
		</g>
	</g>
	<path fill="#FFD15C" d="M33.414,21.989c-2.756,8.742-9.357,9.406-9.357,9.406s-6.602-0.664-9.357-9.406
		c0,0-1.474-4.561-0.237-8.359c0,0,0.757-6.485,9.595-6.485s9.596,6.485,9.596,6.485C34.887,17.429,33.414,21.989,33.414,21.989"/>
	<path fill="#40596B" d="M11.964,13.452c0,0,9.137,5.463,14.152-2.418c0,0,1.074,0.895-1.701,3.762c0,0,2.148-0.717,3.402-4.389
		c0,0,2.688,4.926,8.33,3.852v-0.807c0-4.896-3.971-8.868-8.867-8.868h-6.449C15.935,4.584,11.964,8.556,11.964,13.452"/>
	<path fill="#84DBFF" d="M38.564,31.622c-0.14,0.689-0.359,1.34-0.66,1.949c-2.68,5.32-8,8.611-13.9,8.611
		c-5.909-0.012-11.219-3.291-13.879-8.541c-0.32-0.641-0.551-1.32-0.69-2.02c0.28-0.16,0.569-0.301,0.87-0.43
		c0.24-0.111,0.58-0.271,1.02-0.42c0.08,0.67,0.271,1.33,0.59,1.969c2.311,4.58,6.94,7.43,12.09,7.441
		c5.141,0,9.771-2.852,12.111-7.49c0.299-0.611,0.479-1.25,0.56-1.92c0.44,0.148,0.78,0.309,1.021,0.42
		C37.994,31.321,38.285,31.462,38.564,31.622"/>
</g>
</svg>
