<?xml version="1.0" encoding="utf-8"?>
<!-- Generator: Adobe Illustrator 18.0.0, SVG Export Plug-In . SVG Version: 6.00 Build 0)  -->
<!DOCTYPE svg PUBLIC "-//W3C//DTD SVG 1.1//EN" "http://www.w3.org/Graphics/SVG/1.1/DTD/svg11.dtd">
<svg version="1.1" id="Layer_1" xmlns="http://www.w3.org/2000/svg" xmlns:xlink="http://www.w3.org/1999/xlink" x="0px" y="0px"
	 viewBox="0 0 48 48" enable-background="new 0 0 48 48" xml:space="preserve">
<g>
	<g>
		<g>
			<path fill="#425A6B" d="M25.6,33.5c0,0-8.9-1.4-12.1-2.8L25.6,33.5z"/>
		</g>
	</g>
	<g>
		<g>
			<path fill="#425A6B" d="M25.6,33.5c0,0-8.9-1.4-12.1-2.8L25.6,33.5z"/>
		</g>
	</g>
	<g>
		<g>
			<g>
				<path fill="#425A6B" d="M14.6,3c-0.3,0.3-0.3,0.5-0.2,0.9c0.1,0.4,0.3,0.7,0.4,1.1c0.2,0.7,0.2,1.4,0.3,2.1c0,2,0.1,4.1-0.4,6.1
					c-0.3,1.2-0.7,2.3-1,3.5c-0.5,1.9-0.5,4-0.1,5.9c-0.2-0.4-0.6-0.7-0.9-1c-1-0.9-1.5-2.2-1.7-3.6c-0.2-1.3,0-2.7-0.1-4.1
					c0-0.4,0-0.9,0.1-1.3c0.1-0.4,0.3-0.8,0.5-1.2c0.8-1.7,1.3-3.5,1.3-5.4c0-0.7,0-1.4,0.2-2.1c0.2-0.7,0.8-1.5,1.5-1.5L14.6,3z"/>
			</g>
		</g>
	</g>
	<g>
		<g>
			<g>
				<path fill="#F5B54C" d="M32.4,35.2c0,0,0,1.6,0.3,2.9c0.3,1.4,0.5,5.3,0.3,6c-0.2,0.7-0.6,1.9-0.2,2.4c0.4,0.5,1.2,0.3,1.6,0.3
					c0.4,0,2.8,0,3.5,0.1c0.7,0.1,1.9,0.2,2.2,0.1c0,0,0.7,0.2,0.9,0c0,0,0.4,0.2,0.5-0.1c0,0,0.4,0.2,0.5-0.2c0,0,0.4,0,0.1-0.6
					l-0.6,0c0,0-0.4-0.2-0.6-0.2c-0.2,0-3.4-1.7-3.6-1.9c-0.2-0.1-0.9-1-0.9-1.8c0-0.9,0.3-8.6,0.3-8.6L32.4,35.2z"/>
			</g>
		</g>
	</g>
	<g>
		<g>
			<g>
				<path fill="#FFD15C" d="M32.5,36c0,0,0,1.5,0.4,2.9c0.4,1.4,0.7,5.3,0.5,6c-0.2,0.7-0.5,1.9-0.1,2.3c0.4,0.5,1.2,0.3,1.6,0.3
					c0.4,0,2.8,0,3.5,0.1c0.7,0.1,1.9,0.2,2.2,0.1c0,0,0.7,0.2,0.9,0c0,0,0.4,0.2,0.5-0.1c0,0,0.4,0.2,0.5-0.2c0,0,0.4,0,0.1-0.6
					l-0.6,0c0,0-0.4-0.2-0.6-0.2c-0.2,0-3.4-1.7-3.7-1.9c-0.2-0.1-1-1-1-1.8c0-0.9,0-8.6,0-8.6L32.5,36z"/>
			</g>
		</g>
	</g>
	<g>
		<g>
			<g>
				<path fill="#344A5E" d="M37.8,31.7c-0.3-0.9-0.7-2-1-2.8c-0.6-1.6-1.5-2.5-2.5-2.7c-1-0.2-5.3,0.2-7.4,0.5
					c-2,0.3-4.8,1.1-4.8,1.1l-0.3-0.5l-2.5,3.6L37.8,31.7z"/>
			</g>
		</g>
	</g>
	<g>
		<g>
			<g>
				<path fill="#FFD15C" d="M21.2,1.2c0,0,0.7,0.4,0.9,0.8s0.5,1.6,0.5,2.1c0,0.6-0.2,0.6-0.1,0.9c0.1,0.3,0.7,1.3,0.7,1.3
					s0.2,0.4-0.2,0.4c-0.5,0.1-0.5,0.1-0.5,0.1s-0.1,0.3-0.1,0.5c0,0.3-0.1,0.2-0.2,0.1c0,0,0.2,0.2,0.1,0.4
					c-0.2,0.2-0.3,0.5-0.5,0.9c-0.3,0.5-1.8-0.1-1.8-0.1s-1,0.8-1.1,1.2c-0.1,0.4,0.1,0.9,0.1,0.9s1.4,1,1.6,2.3l-2.3,3.8l-4.8,1.2
					c0,0-0.3-2.4-0.4-3.1c-0.1-0.7-0.1-2.1-0.1-2.1s-1.2-0.3-1.5-0.5c-0.3-0.2-0.6-1.1-0.6-1.1s1.5-2.1,3-1.6c0,0,0.1-0.6,1.2-0.5
					c0,0,1-1.9,0.7-3.5C15.4,3.9,16.8,2,16.8,2S20.4,0.8,21.2,1.2z"/>
			</g>
		</g>
	</g>
	<g>
		<g>
			<g>
				<path fill="#425A6B" d="M20.8,3.4C20.8,3.4,20.8,3.4,20.8,3.4c0,0,0.1,0.1,0,0.2c0,0,0,0,0,0c0,0,0,0-0.1,0
					c-0.3,0.1-0.5,0.4-0.6,0.7C20,4.7,19.8,5,19.4,5c-0.3,0-0.6-0.2-0.7-0.5c0-0.1-0.1-0.2-0.1-0.3c-0.1-0.3-0.5-0.5-0.9-0.4
					c-0.4,0.1-0.6,0.4-0.7,0.8c-0.1,0.4-0.1,0.7-0.1,1.1c0,0.1,0,0.2,0,0.3c-0.1,0.3-0.3,0.4-0.6,0.5c-0.3,0.1-0.7,0.3-0.8,0
					c-0.9-1.4-0.3-3.2-0.3-3.2c0-0.2-0.5-0.3-0.5-0.3l0-0.6c0,0,0,0,0.1,0c0.3-0.1,0.7-0.3,0.7-0.3c0.5-1.4,2.5-2,2.5-2
					c2.7-0.5,4,1.4,4.2,1.8c0,0,0,0,0,0.1c0,0,0,0,0,0l0,0C22.1,1.9,20,1.9,20.8,3.4z"/>
			</g>
		</g>
	</g>
	<g>
		<g>
			<g>
				<g>
					<g>
						<g>
							<path fill="#56BFEB" d="M6.4,10.2c-0.3,0-0.5,0.5-0.4,1.1c0,0.6,0.3,1,0.6,1L9,12.1c0.3,0,0.5-0.5,0.4-1.1c0-0.6-0.3-1-0.6-1
								L6.4,10.2z"/>
						</g>
					</g>
				</g>
			</g>
			<g>
				<g>
					<g>
						
							<ellipse transform="matrix(0.9976 -6.926534e-002 6.926534e-002 0.9976 -0.7444 0.6433)" fill="#8AD6F7" cx="8.9" cy="11.1" rx="0.5" ry="1.1"/>
					</g>
				</g>
			</g>
			<g>
				<g>
					<g>
						<path fill="#8AD6F7" d="M9.4,11c0,0.3,0,0.5-0.1,0.7C9.3,12,9.1,12.1,9,12.1c-0.2,0-0.3-0.1-0.4-0.3c-0.1-0.2-0.2-0.4-0.2-0.7
							c0-0.3,0-0.5,0.1-0.7C8.5,10.2,8.7,10,8.8,10c0.2,0,0.3,0.1,0.4,0.3C9.3,10.5,9.4,10.8,9.4,11z"/>
					</g>
				</g>
			</g>
		</g>
		<g>
			<g>
				<g>
					<g>
						<path fill="#425A6B" d="M13.6,10.7c0,0.4-0.3,0.7-0.7,0.7l-4.1,0.3c-0.1,0-0.1-0.1-0.2-0.2c-0.1-0.1-0.1-0.3-0.1-0.5
							c0-0.2,0-0.4,0.1-0.5c0-0.1,0.1-0.2,0.1-0.2l4.1-0.3C13.2,10.1,13.6,10.3,13.6,10.7z"/>
					</g>
				</g>
			</g>
		</g>
		<g>
			<g>
				<g>
					<g>
						<g>
							<path fill="#56BFEB" d="M12.8,9.7c-0.3,0-0.5,0.5-0.4,1.1c0,0.6,0.3,1,0.6,1l2.4-0.2c0.3,0,0.5-0.5,0.4-1.1
								c0-0.6-0.3-1-0.6-1L12.8,9.7z"/>
						</g>
					</g>
				</g>
			</g>
			<g>
				<g>
					<g>
						
							<ellipse transform="matrix(0.9976 -6.926534e-002 6.926534e-002 0.9976 -0.6984 1.0845)" fill="#8AD6F7" cx="15.3" cy="10.6" rx="0.5" ry="1.1"/>
					</g>
				</g>
			</g>
			<g>
				<g>
					<g>
						
							<ellipse transform="matrix(0.9976 -6.929567e-002 6.929567e-002 0.9976 -0.698 1.0916)" fill="#E8EAE8" cx="15.4" cy="10.6" rx="0.3" ry="0.6"/>
					</g>
				</g>
			</g>
		</g>
	</g>
	<g>
		<g>
			<path fill="#FFD15C" d="M20.7,1.2"/>
		</g>
	</g>
	<g>
		<g>
			<g>
				<path fill="#F5B54C" d="M15.7,12.6c-0.1,0.1-1.9,1.9-2.7,3.3c-0.1-0.4-0.1-0.7-0.1-0.9c-0.1-0.7-0.1-2.1-0.1-2.1
					S14,13.9,15.7,12.6z"/>
			</g>
		</g>
	</g>
	<g>
		<g>
			<g>
				<g>
					<path fill="#FFD15C" d="M11.7,9c0,0,1.2-0.2,0.8,0.7c-0.3,0.8-0.4,1-0.4,1s-0.2,1.1-0.2,1.3c0,0-0.3,0.6-0.6,0
						c0,0,0.1,0.4-0.3,0.4c-0.4,0-0.5-0.4-0.5-0.4s0.2,0.5-0.2,0.4c-0.4,0-0.6-0.4-0.6-0.4s0,0.4-0.2,0.3c-0.2,0-0.4-0.3-0.4-0.5
						c0-0.1-0.1-0.4-0.1-0.6C9,11,9,10.8,9,10.6l0.1-1c0,0,0.1-0.7,0.7-0.6c0,0,0.6-0.4,0.9-0.2C10.7,8.9,11.2,8.4,11.7,9L11.7,9z"
						/>
				</g>
			</g>
		</g>
		<g>
			<g>
				<g>
					<g>
						<path fill="#F5B54C" d="M11.4,12c0,0,0,0,0-0.1c0-0.1,0-0.2-0.1-0.3c0-0.1,0-0.3-0.1-0.4c0-0.1,0-0.2,0-0.3c0,0,0,0,0-0.1l0,0
							l0,0l0,0l0,0l0,0l0,0l0-0.1c0-0.2,0.1-0.3,0.1-0.5c0-0.2,0.1-0.3,0.1-0.4c0-0.1,0.1-0.2,0.1-0.3c0-0.1,0-0.1,0-0.1s0,0,0,0.1
							c0,0.1,0,0.2-0.1,0.3c0,0.1-0.1,0.3-0.1,0.4c0,0.2-0.1,0.3-0.1,0.5l0,0.1l0,0l0,0l0,0c0,0,0,0,0,0l0,0l0,0l0,0c0,0,0,0,0,0.1
							c0,0.1,0,0.2,0,0.2c0,0.2,0,0.3,0,0.4c0,0.1,0,0.2,0,0.3C11.4,11.9,11.4,12,11.4,12z"/>
					</g>
				</g>
			</g>
			<g>
				<g>
					<g>
						<path fill="#F5B54C" d="M10.6,12c0,0,0,0,0-0.1c0-0.1,0-0.2-0.1-0.3c0-0.1-0.1-0.3-0.1-0.4c0,0,0-0.1,0-0.1c0,0,0-0.1,0-0.1
							c0-0.1,0-0.2,0-0.2c0-0.2,0.1-0.3,0.1-0.5c0-0.2,0.1-0.3,0.1-0.4c0-0.1,0.1-0.2,0.1-0.3c0-0.1,0-0.1,0-0.1s0,0,0,0.1
							c0,0.1,0,0.2,0,0.3c0,0.1,0,0.3-0.1,0.4c0,0.2-0.1,0.3-0.1,0.5c0,0.1,0,0.2,0,0.2c0,0,0,0.1,0,0.1c0,0,0,0.1,0,0.1
							c0,0.2,0,0.3,0.1,0.4c0,0.1,0,0.2,0,0.3C10.6,12,10.6,12,10.6,12z"/>
					</g>
				</g>
			</g>
			<g>
				<g>
					<g>
						<path fill="#F5B54C" d="M9.8,12c0-0.1-0.1-0.1-0.1-0.2c0-0.1-0.1-0.1-0.1-0.2c-0.1-0.1-0.1-0.3-0.2-0.4l0,0l0,0
							c0.1-0.2,0.1-0.5,0.2-0.7c0-0.1,0.1-0.2,0.1-0.4c0-0.1,0-0.1,0.1-0.2c0-0.1,0-0.1,0.1-0.2c0,0.1,0,0.1,0,0.2
							c0,0.1,0,0.1,0,0.2c0,0.1,0,0.2-0.1,0.4c0,0.2-0.1,0.5-0.2,0.7l0,0c0,0.1,0.1,0.3,0.1,0.5c0,0.1,0,0.2,0.1,0.2
							C9.8,11.8,9.8,11.9,9.8,12z"/>
					</g>
				</g>
			</g>
		</g>
	</g>
	<g>
		<g>
			<g>
				<path fill="#FFD15C" d="M13.9,16.3l-0.6,1.8c0,0,0.6,3.1,0.7,3.7c0.1,0.6,0.6,4.8,0.2,5.8c-0.4,1,0,1.7,0,1.7l8-1.7
					c0,0-0.3-2.3-0.5-3.1s0.1-1.7,0.1-1.7s0.5-2.7,0.2-4c0,0,0.9-1.9-0.6-4.5c-0.8-1.4-1.5-2.2-1.9-2.7c-0.3-0.3-0.7-0.3-1,0
					l-1.6,2.2L13.9,16.3z"/>
			</g>
		</g>
	</g>
	<g>
		<g>
			<g>
				<path fill="#F5B54C" d="M19.3,9.3c0.3-0.3,0.6-0.5,0.6-0.5c-0.8-0.5-1.4-1.2-1.9-2C18.3,7.8,18.7,8.6,19.3,9.3z"/>
			</g>
		</g>
	</g>
	<g>
		<g>
			<g>
				<path fill="#F3F3F3" d="M22.1,18.7c0,0.2,0.1,0.5,0.1,0.8c-1.2,0.1-3.4,0.5-4.8,0.9c-1.6,0.5-3.5,0.6-3.5,0.6
					c-0.2-1.1-0.6-2.9-0.6-2.9s-0.1-0.6-0.2-1.3c0.3,0.3,0.9,0.4,2.3,0.1c1.4-0.3,3.4-2.4,3.3-3.7c-0.1-1.3-2-3-2-3
					c0,0,1.6,0.9,2.3,1.4c0,0,0,0,0,0c0.7,0.5,1.3,1.1,1.7,1.7c0.2,0.3,0.4,0.6,0.7,1C23,16.8,22.1,18.7,22.1,18.7z"/>
			</g>
		</g>
	</g>
	<g>
		<g>
			<g>
				<path fill="#425A6B" d="M14.3,27.2c0,0,1.3-1.3,4-1.3s3.7,0.4,3.7,0.4s0.2,0.9,0.1,1.5l0,0.3c0,0,2.8-0.8,4.8-1.1
					c2-0.3,6.4-0.7,7.4-0.5c1,0.2,1.9,1.2,2.5,2.7c0.6,1.6,1.6,4.1,1.9,4.3c0,0-1.1,1.3-1.9,1.7c-0.8,0.4-3.1,1.9-4.5,1.3
					c0,0-0.4-3.3-0.4-4.4l-6.3,1.3c0,0-9.1-1.2-12.3-2.5C13.3,31,13.8,27.7,14.3,27.2z"/>
			</g>
		</g>
	</g>
	<g>
		<g>
			<g>
				<g>
					<path fill="#F26F5A" d="M30.5,39.3c0,2.7-0.9,5.2-2.4,7.2c-0.5,0.7-1.3,1.2-2.2,1.2c-5.2,0.3-10.5,0.3-15.9,0
						c-0.9-0.1-1.7-0.5-2.2-1.2c-1.5-2.1-2.5-4.7-2.5-7.5c0-2.5,0.7-4.9,2-6.8c1-1.6,3.1-2.3,4.9-1.7c4.6,1.4,10.6,2.6,14.7,3.2
						c1.9,0.3,3.3,1.8,3.6,3.7C30.4,38,30.5,38.7,30.5,39.3z"/>
				</g>
			</g>
		</g>
	</g>
	<g>
		<g>
			<g>
				<path fill="#F26F5A" d="M14.4,3.5c0.2-0.1,0.3-0.2,0.4-0.4c-0.1-0.3-0.1-0.5,0-0.8c-0.4-0.2-0.7,0-1,0.4
					C14.1,2.8,14.3,3.1,14.4,3.5z"/>
			</g>
		</g>
	</g>
</g>
</svg>
