<?xml version="1.0" encoding="utf-8"?>
<!-- Generator: Adobe Illustrator 18.0.0, SVG Export Plug-In . SVG Version: 6.00 Build 0)  -->
<!DOCTYPE svg PUBLIC "-//W3C//DTD SVG 1.1//EN" "http://www.w3.org/Graphics/SVG/1.1/DTD/svg11.dtd">
<svg version="1.1" id="Layer_1" xmlns="http://www.w3.org/2000/svg" xmlns:xlink="http://www.w3.org/1999/xlink" x="0px" y="0px"
	 viewBox="0 0 512 512" enable-background="new 0 0 512 512" xml:space="preserve">
<g>
	<path fill="#41596B" d="M465.1,91.8v100.8c0,138.1-82.2,262.9-209.1,317.4C129.1,455.5,46.9,330.7,46.9,192.6V91.8
		c75.7-12.9,147.3-43.7,208.8-89.6L256,2l0.3,0.2C317.8,48.2,389.4,78.9,465.1,91.8z"/>
	<path fill="#FFD05C" d="M411.8,252.4c4-19.4,6-39.4,6-59.8v-62.5C360.5,115.7,305.6,91.8,256,59.5l0,0v192.9H411.8z"/>
	<path fill="#F2F2F2" d="M411.8,252.4H256v205.4C337.1,416.2,393.9,340.3,411.8,252.4z"/>
	<path fill="#F2F2F2" d="M256,59.5c-49.6,32.2-104.5,56.2-161.9,70.6v62.5c0,20.4,2.1,40.4,6,59.8H256V59.5z"/>
	<path fill="#FFD05C" d="M100.2,252.4c17.9,87.9,74.8,163.8,155.8,205.4l0,0l0-205.4H100.2z"/>
</g>
</svg>
