<?xml version="1.0" encoding="utf-8"?>
<!-- Generator: Adobe Illustrator 18.0.0, SVG Export Plug-In . SVG Version: 6.00 Build 0)  -->
<!DOCTYPE svg PUBLIC "-//W3C//DTD SVG 1.1//EN" "http://www.w3.org/Graphics/SVG/1.1/DTD/svg11.dtd">
<svg version="1.1" id="Layer_1" xmlns="http://www.w3.org/2000/svg" xmlns:xlink="http://www.w3.org/1999/xlink" x="0px" y="0px"
	 viewBox="0 0 48 48" enable-background="new 0 0 48 48" xml:space="preserve">
<g>
	<g>
		<g>
			<path fill="#415A6B" d="M29.5,23.5L28.1,9.2c-0.2-2.3-2.1-4-4.4-4H13.5c-2.3,0-4.2,1.7-4.4,4L7.8,23.5H29.5z"/>
		</g>
		<g>
			<g>
				<rect y="20.5" fill="#FFD15C" width="48" height="4.2"/>
			</g>
			<g>
				<g>
					<g>
						<rect x="6" y="43.3" fill="#FFD15C" width="3.7" height="2.2"/>
					</g>
					<g>
						<rect x="38.3" y="43.3" fill="#FFD15C" width="3.7" height="2.2"/>
					</g>
				</g>
				<g>
					<rect x="3.2" y="24.7" fill="#F7B64C" width="41.6" height="18.6"/>
				</g>
			</g>
		</g>
		<g>
			<polyline fill="none" stroke="#CED6E0" stroke-width="1.5" stroke-miterlimit="10" points="41.1,19.4 44.2,13.8 39.2,5.2 			"/>
		</g>
		<g>
			<circle fill="#415A6B" cx="44.2" cy="13.8" r="1.5"/>
		</g>
		<g>
			<circle fill="#344A5E" cx="44.2" cy="13.8" r="0.6"/>
		</g>
		<path fill="#E8EAE9" d="M35.4,20.5L35.4,20.5l11.3,0v0c0-1.2-1-2.3-2.3-2.3h-6.8C36.4,18.3,35.4,19.3,35.4,20.5z"/>
		<g>
			<path fill="#FFD15C" d="M35.5,10.1c-0.8,0.8-2,0.8-2.7,0s-0.8-2,0-2.7L35.5,10.1z"/>
			<g>
				<g>
					<path fill="#F3705A" d="M37.5,12l-6.6-6.6c1.8-1.8,4.8-1.8,6.6,0C39.3,7.2,39.3,10.2,37.5,12z"/>
				</g>
				<path fill="#F3705A" d="M39.8,3.2c-0.8-0.8-2.2-0.8-3,0l-1.5,1.5l3,3l1.5-1.5C40.6,5.4,40.6,4,39.8,3.2z"/>
			</g>
		</g>
	</g>
</g>
</svg>
