<?xml version="1.0" encoding="utf-8"?>
<!-- Generator: Adobe Illustrator 18.0.0, SVG Export Plug-In . SVG Version: 6.00 Build 0)  -->
<!DOCTYPE svg PUBLIC "-//W3C//DTD SVG 1.1//EN" "http://www.w3.org/Graphics/SVG/1.1/DTD/svg11.dtd">
<svg version="1.1" id="Layer_1" xmlns="http://www.w3.org/2000/svg" xmlns:xlink="http://www.w3.org/1999/xlink" x="0px" y="0px"
	 viewBox="0 0 48 48" enable-background="new 0 0 48 48" xml:space="preserve">
<g>
	<g>
		
			<rect x="6.4" y="27.4" transform="matrix(0.7071 0.7071 -0.7071 0.7071 25.8842 -5.3974)" fill="#ACB3BA" width="26.1" height="2.2"/>
		
			<rect x="10.9" y="22.9" transform="matrix(0.7071 0.7071 -0.7071 0.7071 24.0019 -9.9417)" fill="#ACB3BA" width="26.1" height="2.2"/>
		
			<rect x="15.5" y="18.4" transform="matrix(0.7071 0.7071 -0.7071 0.7071 22.1196 -14.4859)" fill="#ACB3BA" width="26.1" height="2.2"/>
	</g>
	<g>
		
			<rect x="0.8" y="40" transform="matrix(0.7071 0.7071 -0.7071 0.7071 31.0933 7.1787)" fill="#ACB3BA" width="12.1" height="2.2"/>
		
			<rect x="35" y="5.8" transform="matrix(0.7071 0.7071 -0.7071 0.7071 16.9102 -27.062)" fill="#ACB3BA" width="12.1" height="2.2"/>
	</g>
	<g>
		<path fill="none" d="M18.2,15.1c-1.6,0.3-2.8,1.6-3.1,3.1c-0.9,5-0.1,9.5,0.5,14.2c4.7,0.6,9.2,1.4,14.2,0.5
			c1.6-0.3,2.8-1.6,3.1-3.1c0.9-5,0.1-9.5-0.5-14.2C27.8,15,23.2,14.2,18.2,15.1z"/>
		<path fill="#F2F2F2" d="M28.8,39.3c-1.1,0.2-2.1,0.3-2.9,0.3c-3.4,0.1-6.7-0.5-9.9-1c0-2.1-0.2-4.2-0.5-6.2
			c4.7,0.6,9.2,1.4,14.2,0.5c1.6-0.3,2.8-1.6,3.1-3.1c0.9-5,0.1-9.5-0.5-14.2c-0.3-2-0.5-4.1-0.5-6.2c0-0.3,0-0.5,0-0.8
			C32,4.1,35.8,0.2,40.2,0c-1.7,3.5-2.2,6.7-2.2,9.9c0,2.1,0.3,4.1,0.6,6.1c0.5,3.2,1,6.5,1,9.9c0,0.8-0.1,1.8-0.3,2.9
			C38.6,34.1,34.2,38.6,28.8,39.3z"/>
		<path fill="#F2F2F2" d="M8.6,31.9C4.1,32,0.2,35.7,0,40.2c3.5-1.7,6.7-2.2,9.9-2.1c0-2.1-0.3-4.1-0.6-6.1
			C9.1,31.9,8.8,31.9,8.6,31.9z"/>
		<path fill="#CDD6E0" d="M39.4,16.1c4.5-0.1,8.4-3.8,8.6-8.3l0,0c-3.5,1.7-6.7,2.2-9.9,2.1c0,2.1,0.3,4.1,0.6,6.1
			C38.9,16.1,39.2,16.1,39.4,16.1z"/>
		<path fill="#CDD6E0" d="M7.8,48c1.7-3.4,2.2-6.7,2.1-9.9c0-2.1-0.3-4.1-0.6-6.1c-0.5-3.2-1-6.5-1-9.9c0-0.8,0.1-1.8,0.3-2.9
			c0.8-5.3,5.2-9.8,10.5-10.5c1.1-0.2,2.1-0.3,2.9-0.3c3.4-0.1,6.7,0.5,9.9,1c0,2.1,0.2,4.2,0.5,6.2c-4.7-0.6-9.2-1.4-14.2-0.5
			c-1.6,0.3-2.8,1.6-3.1,3.1c-0.9,5-0.1,9.5,0.5,14.2c0.3,2,0.5,4.1,0.5,6.2c0,0.3,0,0.5,0,0.8C16,43.9,12.3,47.8,7.8,48z"/>
	</g>
</g>
</svg>
