<?xml version="1.0" encoding="utf-8"?>
<!-- Generator: Adobe Illustrator 18.0.0, SVG Export Plug-In . SVG Version: 6.00 Build 0)  -->
<!DOCTYPE svg PUBLIC "-//W3C//DTD SVG 1.1//EN" "http://www.w3.org/Graphics/SVG/1.1/DTD/svg11.dtd">
<svg version="1.1" id="Layer_1" xmlns="http://www.w3.org/2000/svg" xmlns:xlink="http://www.w3.org/1999/xlink" x="0px" y="0px"
	 viewBox="0 0 48 48" enable-background="new 0 0 48 48" xml:space="preserve">
<g>
	<rect x="22.7" y="37.3" fill="#CDD6E0" width="2.6" height="8.2"/>
	<path fill="#F2F2F2" d="M46,37.3H2c-1.1,0-2-0.9-2-2v-6.5c0-1.1,0.9-2,2-2h44c1.1,0,2,0.9,2,2v6.5C48,36.4,47.1,37.3,46,37.3z"/>
	<rect x="9.9" y="43.6" fill="#CDD6E0" width="28.2" height="3"/>
	<rect x="21.1" y="42.3" fill="#FF7058" width="5.7" height="5.7"/>
	<path fill="#F2F2F2" d="M46,11.5H2c-1.1,0-2-0.9-2-2V2c0-1.1,0.9-2,2-2h44c1.1,0,2,0.9,2,2v7.5C48,10.6,47.1,11.5,46,11.5z"/>
	<path fill="#F2F2F2" d="M46,24.9H2c-1.1,0-2-0.9-2-2v-7.5c0-1.1,0.9-2,2-2h44c1.1,0,2,0.9,2,2v7.5C48,24,47.1,24.9,46,24.9z"/>
	<rect x="9.1" y="11.5" fill="#ACB3BA" width="32.3" height="1.9"/>
	<rect x="9.1" y="24.9" fill="#ACB3BA" width="32.3" height="1.9"/>
	<g>
		<g>
			<rect x="40.4" y="2.3" fill="#54C0EB" width="2.6" height="7"/>
			<rect x="34.5" y="2.3" fill="#54C0EB" width="2.6" height="7"/>
			<rect x="28.5" y="2.3" fill="#54C0EB" width="2.6" height="7"/>
		</g>
		<rect x="5" y="3.9" fill="#FFD15C" width="3.8" height="3.8"/>
	</g>
	<g>
		<g>
			<rect x="40.4" y="15.7" fill="#54C0EB" width="2.6" height="7"/>
			<rect x="34.5" y="15.7" fill="#54C0EB" width="2.6" height="7"/>
			<rect x="28.5" y="15.7" fill="#54C0EB" width="2.6" height="7"/>
		</g>
		<rect x="5" y="17.2" fill="#FFD15C" width="3.8" height="3.8"/>
	</g>
	<g>
		<g>
			<rect x="40.4" y="28.5" fill="#54C0EB" width="2.6" height="7"/>
			<rect x="34.5" y="28.5" fill="#54C0EB" width="2.6" height="7"/>
			<rect x="28.5" y="28.5" fill="#54C0EB" width="2.6" height="7"/>
		</g>
		<rect x="5" y="30.1" fill="#FFD15C" width="3.8" height="3.8"/>
	</g>
</g>
</svg>
