<?xml version="1.0" encoding="utf-8"?>
<!-- Generator: Adobe Illustrator 18.0.0, SVG Export Plug-In . SVG Version: 6.00 Build 0)  -->
<!DOCTYPE svg PUBLIC "-//W3C//DTD SVG 1.1//EN" "http://www.w3.org/Graphics/SVG/1.1/DTD/svg11.dtd">
<svg version="1.1" id="Layer_1" xmlns="http://www.w3.org/2000/svg" xmlns:xlink="http://www.w3.org/1999/xlink" x="0px" y="0px"
	 viewBox="0 0 48 48" enable-background="new 0 0 48 48" xml:space="preserve">
<g>
	<circle fill="#40596B" cx="20.1" cy="20.1" r="20.1"/>
	<g>
		<path fill="#334A5E" d="M20.1,36.8c-9.2,0-16.6-7.5-16.6-16.6c0-0.3-0.2-0.5-0.5-0.5s-0.5,0.2-0.5,0.5c0,9.8,8,17.7,17.7,17.7
			c0.3,0,0.5-0.2,0.5-0.5C20.7,37,20.4,36.8,20.1,36.8z"/>
		<path fill="#334A5E" d="M20.1,2.4c-0.3,0-0.5,0.2-0.5,0.5s0.2,0.5,0.5,0.5c9.2,0,16.6,7.5,16.6,16.6c0,0.3,0.2,0.5,0.5,0.5
			s0.5-0.2,0.5-0.5C37.9,10.3,29.9,2.4,20.1,2.4z"/>
		<path fill="#334A5E" d="M20.1,32.2C13.5,32.2,8,26.8,8,20.1c0-0.3-0.2-0.5-0.5-0.5c-0.3,0-0.5,0.2-0.5,0.5
			c0,7.3,5.9,13.2,13.2,13.2c0.3,0,0.5-0.2,0.5-0.5C20.7,32.5,20.4,32.2,20.1,32.2z"/>
		<path fill="#334A5E" d="M20.1,6.9c-0.3,0-0.5,0.2-0.5,0.5S19.8,8,20.1,8c6.7,0,12.1,5.4,12.1,12.1c0,0.3,0.2,0.5,0.5,0.5
			s0.5-0.2,0.5-0.5C33.3,12.8,27.4,6.9,20.1,6.9z"/>
	</g>
	<circle fill="#CDD6E0" cx="20.1" cy="20.1" r="8.2"/>
	<circle fill="#FFFFFF" cx="20.1" cy="20.1" r="2.8"/>
	<path fill="#FFD15C" d="M45.7,25c-1.1,0.1-2,1.1-2,2.2v4.5c0,0.2-0.1,0.3-0.3,0.3h0c-0.2,0-0.3-0.1-0.3-0.3v-8.9
		c0-1.1-0.9-2.1-2-2.2c-1.2-0.1-2.3,0.9-2.3,2.1v8.9c0,0.2-0.1,0.3-0.3,0.3h0c-0.2,0-0.3-0.1-0.3-0.3V20.4c0-1.2-1-2.1-2.1-2.1
		s-2.1,1-2.1,2.1v11.2c0,0.2-0.1,0.3-0.3,0.3h0c-0.2,0-0.3-0.1-0.3-0.3v-7.8c0-1.2-1-2.1-2.1-2.1c-1.2,0-2.1,1-2.1,2.1v15v0.8
		c0,0-4-3.7-6.2-2.4c0,0-2.3,1.6-0.7,3.1l6.7,7.7H48V27.1C48,25.9,47,24.9,45.7,25z"/>
</g>
</svg>
