<?xml version="1.0" encoding="utf-8"?>
<!-- Generator: Adobe Illustrator 19.0.1, SVG Export Plug-In . SVG Version: 6.00 Build 0)  -->
<svg version="1.1" id="Layer_1" xmlns="http://www.w3.org/2000/svg" xmlns:xlink="http://www.w3.org/1999/xlink" x="0px" y="0px"
	 viewBox="0 0 48 48" style="enable-background:new 0 0 48 48;" xml:space="preserve">
<style type="text/css">
	.st0{fill:#66C6B9;}
	.st1{fill:#F3F3F3;}
	.st2{fill:#415A6B;}
	.st3{fill:#CED6E0;}
	.st4{fill:#F3705A;}
	.st5{fill:#E8EAE9;}
	.st6{fill:#4ABAA5;}
	.st7{fill:#F05540;}
	.st8{fill:#FFD15C;}
	.st9{fill:#55C0EB;}
	.st10{fill:#8AD7F8;}
	.st11{fill:#344A5E;}
	.st12{fill:#FFFFFF;}
	.st13{fill:#F7B64C;}
	.st14{fill:#ADB3BA;}
	.st15{fill:#38A892;}
	.st16{fill:#ED9845;}
	.st17{fill:#2D4251;}
	.st18{fill:#304556;}
	.st19{fill:#A5AAAD;}
	.st20{fill:#2D4456;}
	.st21{fill:#4FB0E0;}
	.st22{fill:#2D4354;}
	.st23{fill:#E54C38;}
	.st24{fill:#2B4456;}
	.st25{fill:#2B404F;}
</style>
<g>
	<g>
		<g>
			<g>
				<g>
					<g>
						<path class="st3" d="M27.9,40.9c0.3-0.6,0.4-1.2,0.4-1.8V27.7c0-2.3-1.9-4.2-4.2-4.2H15c-2.3,0-4.2,1.9-4.2,4.2v11.3
							c0,0.7,0.1,1.3,0.4,1.8H27.9z"/>
					</g>
				</g>
				<g>
					<g>
						<g>
							<polygon class="st4" points="22.5,40.9 21,27.9 18.1,27.9 16.7,40.9 							"/>
						</g>
					</g>
					<g>
						<polygon class="st4" points="21,27.9 22.5,26.4 19.6,23.5 16.6,26.4 18.1,27.9 						"/>
					</g>
				</g>
				<g>
					<g>
						<g>
							<path class="st11" d="M39.1,40.9L36,27.5c-0.3-1.4-1.4-2.4-2.8-2.7l-7.3-1.4l-3.5,17.5H39.1z"/>
						</g>
					</g>
					<g>
						<g>
							<g>
								<path class="st1" d="M24,20.5c0,0,0,0.5-2,1.6s-2.4,1.4-2.4,1.4l4.2,4.1c0,0,1.6-4.1,1.6-4.2C25.3,23.4,24.2,21.3,24,20.5z"
									/>
							</g>
						</g>
					</g>
					<g>
						<g>
							<path class="st2" d="M24.1,40.9c0.6-1.6,1.2-2.9,1.4-3.7c1-2.8,3.3-10,3.3-10L26.7,26l1.4-0.5c0,0-1.2-1.8-2.2-2.4
								c-1-0.6-1-1.4-1.6-1.8c0,0-0.1,2-0.3,3.2c-0.2,1.2-1.6,9-2,11.4c-0.1,0.8-0.4,2.7-0.7,5H24.1z"/>
						</g>
					</g>
				</g>
				<g>
					<g>
						<g>
							<path class="st11" d="M16.7,40.9l-3.5-17.5l-7.3,1.4c-1.4,0.3-2.5,1.3-2.8,2.7L0,40.9H16.7z"/>
						</g>
					</g>
					<g>
						<g>
							<g>
								<path class="st1" d="M15.1,20.5c0,0,0,0.5,2,1.6s2.4,1.4,2.4,1.4l-4.2,4.1c0,0-1.6-4.1-1.6-4.2
									C13.8,23.4,14.9,21.3,15.1,20.5z"/>
							</g>
						</g>
					</g>
					<g>
						<g>
							<path class="st2" d="M13.5,37.2c0.3,0.7,0.8,2.1,1.4,3.7h2.8c-0.3-2.3-0.5-4.2-0.7-5c-0.4-2.4-1.8-10.2-2-11.4
								c-0.2-1.2-0.3-3.2-0.3-3.2c-0.6,0.4-0.6,1.2-1.6,1.8c-1,0.6-2.2,2.4-2.2,2.4l1.4,0.5l-2.2,1.1C10.2,27.1,12.5,34.4,13.5,37.2
								z"/>
						</g>
					</g>
				</g>
			</g>
			<g>
				<g>
					<path class="st13" d="M15.1,14l0,6.6c0,0,0,0.5,2,1.6s2.4,1.4,2.4,1.4s0.4-0.3,2.4-1.4s2-1.6,2-1.6V14H15.1z"/>
				</g>
			</g>
			<g>
				<g>
					<path class="st8" d="M24.5,7.5c0-0.6-0.2-1.3-0.6-1.8c-0.4-0.5-0.8-0.8-1.4-1c-0.5-0.2-1.1-0.2-1.6-0.2c-1-0.1-2-0.1-3,0.2
						c0,0,0,0-0.1,0c-0.7-0.3-1.4-0.5-2.2-0.5c-0.8,0-1.6,0.4-2,1.2c-0.3,0.6-0.4,1.4-0.4,2.1C13.5,8,13.6,8.7,14,9.3
						c-0.4,1.1-0.7,2.3-0.7,3.7c0,4.5,2.9,8.2,6.4,8.2s6.4-3.7,6.4-8.2C26.1,10.9,25.5,9,24.5,7.5z"/>
				</g>
			</g>
			<g>
				<g>
					<ellipse transform="matrix(0.9894 0.1455 -0.1455 0.9894 2.151 -3.5992)" class="st8" cx="25.7" cy="12.9" rx="1.1" ry="2.3"/>
				</g>
			</g>
			<g>
				<g>
					
						<ellipse transform="matrix(-0.9894 0.1455 -0.1455 -0.9894 28.2982 23.748)" class="st8" cx="13.3" cy="12.9" rx="1.1" ry="2.3"/>
				</g>
			</g>
			<g>
				<g>
					<path class="st2" d="M13.7,14.5l0.3-0.1c0,0-0.6-1.3,0-2.9c0.6-1.7,0.6-2.2,0.5-3.1c-0.1-0.9-0.3-2.6,1.5-2.9
						c1.8-0.3,5.7-0.2,7,0c1.3,0.2,1.8,1.9,1.6,2.6s0.2,2.2,0.3,3.1s-0.1,3-0.1,3l0.3-0.1c0,0,0-1.5,0.4-2.4s0.6-1.8,0.6-3.9
						c0-2.6-0.7-3.2-0.7-3.2s1-2.8-2.4-4S18,0.3,16.1,1.2s-3.2,2.9-3.7,4c-0.5,1.1,0.2,6,0.6,6.7C13.3,12.4,13.7,14.5,13.7,14.5z"/>
				</g>
			</g>
		</g>
		<g>
			<g>
				<path class="st0" d="M46.5,27.2c0.9,0.1,1.5,0.8,1.5,1.7v4.5c0,3.4-1.2,6.6-3.1,9.2c-1.9,2.5-4.5,4.3-7.6,5.3
					c-0.3,0.1-0.7,0.1-1,0c-6.4-1.9-10.7-7.8-10.7-14.5v-4.5c0-0.9,0.6-1.6,1.5-1.7c4-0.5,6.5-2.1,8.5-4.4c0.7-0.7,1.8-0.7,2.5,0
					C40,25.1,42.5,26.7,46.5,27.2z"/>
			</g>
			<path class="st12" d="M36.8,44.9c-4.9-1.7-8.2-6.2-8.2-11.5V30c3.2-0.6,5.9-1.9,8.2-4.1c2.3,2.2,5,3.5,8.2,4.1v3.4
				c0,2.7-0.9,5.2-2.5,7.4C41,42.7,39.1,44.1,36.8,44.9z"/>
		</g>
		<g>
			<g>
				<path class="st4" d="M35.6,39.9c-0.4,0-0.8-0.1-1.1-0.4l-2.9-2.9c-0.6-0.6-0.6-1.5,0-2.1s1.5-0.6,2.1,0l1.9,1.9l4.2-4.2
					c0.6-0.6,1.5-0.6,2.1,0c0.6,0.6,0.6,1.5,0,2.1l-5.2,5.2C36.4,39.8,36,39.9,35.6,39.9z"/>
			</g>
		</g>
	</g>
</g>
</svg>
