<?xml version="1.0" encoding="utf-8"?>
<!-- Generator: Adobe Illustrator 16.0.0, SVG Export Plug-In . SVG Version: 6.00 Build 0)  -->
<!DOCTYPE svg PUBLIC "-//W3C//DTD SVG 1.1//EN" "http://www.w3.org/Graphics/SVG/1.1/DTD/svg11.dtd">
<svg version="1.1" id="Layer_1" xmlns="http://www.w3.org/2000/svg" xmlns:xlink="http://www.w3.org/1999/xlink" x="0px" y="0px"
	 width="48px" height="48px" viewBox="0 0 48 48" enable-background="new 0 0 48 48" xml:space="preserve">
<g>
	<path fill="#CED6E0" d="M24.567,14.854l9.587-9.587c1.205-1.205,1.205-3.159,0-4.364s-3.158-1.205-4.363,0l-9.587,9.588
		L24.567,14.854z"/>
	<path fill="#CED6E0" d="M37.51,27.798l9.586-9.587c1.205-1.205,1.205-3.159,0-4.364s-3.157-1.205-4.362,0l-9.587,9.588
		L37.51,27.798z"/>
	<path fill="#F3705A" d="M36.512,35.587l-1.771,1.771c-3.533,3.534-13.756,7.338-18.703,9.037c-1.664,0.571-3.506,0.149-4.752-1.095
		v-0.002l-2.702,2.703L0,39.417l2.701-2.702c-1.244-1.245-1.666-3.088-1.094-4.753c1.701-4.947,5.51-15.165,9.049-18.704
		l1.764-1.764L36.512,35.587z"/>
	
		<rect x="22.715" y="7.225" transform="matrix(-0.7071 0.7071 -0.7071 -0.7071 57.6831 24.6313)" fill="#F05540" width="2.05" height="34.074"/>
	<path fill="#F3705A" d="M12.553,6.315L12.553,6.315c-1.467,1.466-1.467,3.843,0,5.309L36.376,35.45c1.466,1.466,3.843,1.466,5.31,0
		c1.465-1.466,1.465-3.843,0-5.309L17.861,6.315C16.395,4.85,14.018,4.85,12.553,6.315"/>
	<polygon fill="#FFFFFF" points="10.654,35.455 14.957,32.01 12.652,29.706 22.195,27.696 17.891,31.146 20.193,33.45 	"/>
</g>
</svg>
