<?xml version="1.0" encoding="utf-8"?>
<!-- Generator: Adobe Illustrator 20.1.0, SVG Export Plug-In . SVG Version: 6.00 Build 0)  -->
<!DOCTYPE svg PUBLIC "-//W3C//DTD SVG 1.1//EN" "http://www.w3.org/Graphics/SVG/1.1/DTD/svg11.dtd">
<svg version="1.1" id="Layer_1" xmlns="http://www.w3.org/2000/svg" xmlns:xlink="http://www.w3.org/1999/xlink" x="0px" y="0px"
	 viewBox="0 0 49 49" enable-background="new 0 0 49 49" xml:space="preserve">
<g>
	<g>
		<polygon fill="#FFD15C" points="23.3,26.8 16.8,44.6 15.4,48.5 8.4,48.5 10.9,41.5 16.2,26.8 		"/>
		<polygon fill="#FFD15C" points="40.6,48.5 33.6,48.5 32.2,44.6 25.7,26.8 32.8,26.8 38.1,41.5 		"/>
	</g>
	<path fill="#F8B64C" d="M16.2,26.8h7.1l-6.4,17.8c-2.1-0.7-4.1-1.8-6-3.1L16.2,26.8z"/>
	<path fill="#F8B64C" d="M38.1,41.5c-1.8,1.3-3.8,2.3-6,3.1l-6.4-17.8h7.1L38.1,41.5z"/>
	<circle fill="#FF7058" cx="24.5" cy="22.5" r="22"/>
	<circle fill="#FFFFFF" cx="24.5" cy="22.5" r="17.3"/>
	<circle fill="#FF7058" cx="24.5" cy="22.5" r="12.7"/>
	<circle fill="#FFFFFF" cx="24.5" cy="22.5" r="8.1"/>
	<circle fill="#FF7058" cx="24.5" cy="22.5" r="3.5"/>
	<path fill="#40596B" d="M41.1,8.7L25.1,23c0,0-0.1,0-0.1,0L24,22c0,0,0-0.1,0-0.1L40,7.5c0,0,0.1,0,0.1,0l0.9,1
		C41.1,8.6,41.1,8.6,41.1,8.7z"/>
	<g>
		<polygon fill="#334A5E" points="38.9,9.7 33.1,14.9 32.3,10.7 38.1,5.5 		"/>
		<polygon fill="#334A5E" points="37.2,16.1 43,11 38.9,9.7 33.1,14.9 		"/>
	</g>
</g>
</svg>
