<?xml version="1.0" encoding="utf-8"?>
<!-- Generator: Adobe Illustrator 18.0.0, SVG Export Plug-In . SVG Version: 6.00 Build 0)  -->
<!DOCTYPE svg PUBLIC "-//W3C//DTD SVG 1.1//EN" "http://www.w3.org/Graphics/SVG/1.1/DTD/svg11.dtd">
<svg version="1.1" id="Layer_1" xmlns="http://www.w3.org/2000/svg" xmlns:xlink="http://www.w3.org/1999/xlink" x="0px" y="0px"
	 viewBox="0 0 48 48" enable-background="new 0 0 48 48" xml:space="preserve">
<g>
	<g>
		<g>
			<g>
				<path fill="#415A6B" d="M17.9,48h12.8c-0.5-1-0.9-2.6-1.4-4.5c-0.8-6.5-1.2-15.4,7.9-19.9c0,0-5.8,0.6-10,6.8
					c-0.9-6.8-1.7-14.5-2.5-21.6c-1,9.2-1.6,18-2.7,25.4c-2.4-4.3-5.8-8-10.3-11L11.1,24c2.3,2.1,4.3,4.2,5.8,6.4
					C20.6,35.6,21,42.5,17.9,48z"/>
			</g>
		</g>
		<g>
			<g>
				<path fill="#4ABAA5" d="M43.4,23.8c0.2,2.2-1.4,4.1-3.5,4.3c-1.3,0.1-2.4-0.4-3.2-1.2c-0.4,0.9-1.2,1.6-2.3,1.7
					c-1.5,0.1-2.8-1-3-2.5c0-0.5,0-0.9,0.2-1.4c-0.3-0.4-0.4-0.9-0.5-1.4c-0.1-1.3,0.7-2.6,1.8-3c0,0,0-0.1,0-0.1
					c-0.2-2.2,1.4-4.2,3.6-4.4c2.2-0.2,4.2,1.4,4.4,3.7c0,0.3,0,0.7,0,1C42.2,21.1,43.2,22.3,43.4,23.8z"/>
			</g>
		</g>
		<g>
			<path fill="#4ABAA5" d="M21,23.5c0,3-2.4,5.4-5.4,5.4c-0.2,0-0.3,0-0.5,0c-0.3,1.5-1.6,2.6-3.1,2.6c-1,0-1.9-0.5-2.5-1.2
				c-0.2,0.1-0.4,0.1-0.7,0.1c-2.3,0-4.2-1.9-4.2-4.2c0-1.7,1-3.1,2.4-3.7c0-0.2,0-0.3,0-0.5c0-2.1,1.7-3.8,3.8-3.8
				c0.8,0,1.6,0.3,2.2,0.7c0.8-0.5,1.7-0.7,2.7-0.7C18.6,18.1,21,20.5,21,23.5z"/>
		</g>
		<g>
			<path fill="#66C6B9" d="M37.1,14.9c0,3.9-3.1,7-7,7c-1.6,0-3-0.5-4.2-1.4c-1.2,1.8-3.2,3.1-5.6,3.1c-3.7,0-6.6-3-6.6-6.6
				c0-0.6,0.1-1.2,0.2-1.7c-1.4-0.8-2.4-2.3-2.4-4.1c0-2.6,2.1-4.7,4.7-4.7c0.4,0,0.7,0,1.1,0.1c0.5-1.5,1.9-2.6,3.6-2.6
				c0.5,0,0.9,0.1,1.3,0.2c0.4-2.4,2.5-4.3,5-4.3c2.8,0,5.1,2.3,5.1,5c1.7,0,3.1,1.4,3.1,3.1c0,0.6-0.2,1.2-0.5,1.7
				C36.3,11.1,37.1,12.9,37.1,14.9z"/>
		</g>
	</g>
</g>
</svg>
