<?xml version="1.0" encoding="utf-8"?>
<!-- Generator: Adobe Illustrator 18.0.0, SVG Export Plug-In . SVG Version: 6.00 Build 0)  -->
<!DOCTYPE svg PUBLIC "-//W3C//DTD SVG 1.1//EN" "http://www.w3.org/Graphics/SVG/1.1/DTD/svg11.dtd">
<svg version="1.1" id="Layer_1" xmlns="http://www.w3.org/2000/svg" xmlns:xlink="http://www.w3.org/1999/xlink" x="0px" y="0px"
	 viewBox="0 0 48 48" enable-background="new 0 0 48 48" xml:space="preserve">
<g>
	<path fill="#40596B" d="M32.6,48H4.4c-1.1,0-2-0.9-2-2V2c0-1.1,0.9-2,2-2h28.3c1.1,0,2,0.9,2,2v44C34.6,47.1,33.7,48,32.6,48z"/>
	<rect x="6.4" y="5.2" fill="#F2F2F2" width="24.3" height="34.1"/>
	<path fill="#334A5E" d="M23.3,3.4h-9.7c-0.4,0-0.8-0.3-0.8-0.8l0,0c0-0.4,0.3-0.8,0.8-0.8h9.7c0.4,0,0.8,0.3,0.8,0.8l0,0
		C24.1,3,23.8,3.4,23.3,3.4z"/>
	<circle fill="#334A5E" cx="18.5" cy="43.6" r="2.6"/>
	<path fill="#E4EAEF" d="M30.6,8.2v28.2c-6.8-1.1-12-7-12-14.1S23.8,9.3,30.6,8.2z"/>
	<circle fill="#FFD15C" cx="32.9" cy="22.3" r="12.8"/>
	<circle fill="#F8B64C" cx="32.9" cy="22.3" r="10.4"/>
	<path fill="#FFD15C" d="M32.3,27.8c-1.7-0.1-2.9-0.8-3.8-1.7l1.3-1.8c0.6,0.6,1.5,1.2,2.5,1.4v-2.5c-1.7-0.4-3.4-1-3.4-3.2
		c0-1.6,1.3-3,3.4-3.2v-1.5h1.5v1.5c1.3,0.1,2.4,0.6,3.3,1.4l-1.3,1.7c-0.6-0.5-1.3-0.9-2-1v2.2c1.7,0.4,3.5,1.1,3.5,3.3
		c0,1.8-1.2,3.2-3.5,3.4v1.4h-1.5V27.8z M32.3,20.7v-1.9c-0.7,0.1-1.1,0.5-1.1,1C31.2,20.3,31.6,20.5,32.3,20.7z M33.8,23.6v2.1
		c0.8-0.2,1.2-0.6,1.2-1.1C35,24.1,34.5,23.8,33.8,23.6z"/>
</g>
</svg>
