<?xml version="1.0" encoding="utf-8"?>
<!-- Generator: Adobe Illustrator 18.0.0, SVG Export Plug-In . SVG Version: 6.00 Build 0)  -->
<!DOCTYPE svg PUBLIC "-//W3C//DTD SVG 1.1//EN" "http://www.w3.org/Graphics/SVG/1.1/DTD/svg11.dtd">
<svg version="1.1" id="Layer_1" xmlns="http://www.w3.org/2000/svg" xmlns:xlink="http://www.w3.org/1999/xlink" x="0px" y="0px"
	 viewBox="0 0 48 48" enable-background="new 0 0 48 48" xml:space="preserve">
<g>
	<g>
		<g>
			<path fill="#415A6B" d="M5.2,3.6h37.7c1.1,0,2.1,0.9,2.1,2.1v26.6H3.1V5.7C3.1,4.6,4,3.6,5.2,3.6z"/>
			<rect x="6.2" y="6.7" fill="#8AD7F8" width="35.6" height="21.8"/>
			<path fill="#E8EAE9" d="M38.3,24H9.7c-0.6,0-1,0.5-1,1c0,0.6,0.5,1,1,1h28.6c0.6,0,1-0.5,1-1C39.3,24.5,38.9,24,38.3,24z"/>
			<g>
				<path fill="#F3705A" d="M17.6,24H9.7c-0.6,0-1,0.5-1,1c0,0.6,0.5,1,1,1h7.9V24z"/>
			</g>
			<path fill="#E8EAE9" d="M44.9,32.3H3.1l-3,9.4c-0.4,1.3,0.6,2.7,2,2.7h43.9c1.4,0,2.4-1.4,2-2.7L44.9,32.3z"/>
			<g>
				<polygon fill="#ADB3BA" points="19.2,40.8 20.8,35.9 27.2,35.9 28.8,40.8 				"/>
			</g>
			<g>
				<g>
					<circle fill="#FFFFFF" cx="24" cy="11.8" r="2.6"/>
					<g>
						<path fill="#FFFFFF" d="M29.6,21.2c-0.1-3-2.6-5.4-5.6-5.4s-5.5,2.4-5.6,5.4H29.6z"/>
					</g>
				</g>
			</g>
			<g>
				<circle fill="#415A6B" cx="17.6" cy="25" r="2"/>
				<circle fill="#344A5E" cx="17.6" cy="25" r="1"/>
			</g>
		</g>
	</g>
</g>
</svg>
