<?xml version="1.0" encoding="utf-8"?>
<!-- Generator: Adobe Illustrator 18.0.0, SVG Export Plug-In . SVG Version: 6.00 Build 0)  -->
<!DOCTYPE svg PUBLIC "-//W3C//DTD SVG 1.1//EN" "http://www.w3.org/Graphics/SVG/1.1/DTD/svg11.dtd">
<svg version="1.1" id="Layer_1" xmlns="http://www.w3.org/2000/svg" xmlns:xlink="http://www.w3.org/1999/xlink" x="0px" y="0px"
	 viewBox="0 0 48 48" enable-background="new 0 0 48 48" xml:space="preserve">
<g>
	<g>
		<path fill="#D7D8DB" d="M41.8,17.2v21.7c0,4.3-3.5,7.7-7.7,7.7s-7.7-3.5-7.7-7.7v-8.7c0-2.6-2.1-4.7-4.7-4.7h-0.8v-3h0.8
			c4.3,0,7.7,3.5,7.7,7.7v8.7c0,2.6,2.1,4.7,4.7,4.7c2.6,0,4.7-2.1,4.7-4.7V17.2H41.8z"/>
	</g>
	<path fill="#ACB3BA" d="M20.4,28.4L20.4,28.4c-0.5,0-0.9-0.4-0.9-0.9v-6.9c0-0.5,0.4-0.9,0.9-0.9h0c0.5,0,0.9,0.4,0.9,0.9v6.9
		C21.3,28,20.9,28.4,20.4,28.4z"/>
	<g>
		<path fill="#FFD15C" d="M10.1,48L10.1,48C4.6,48,0,43.5,0,37.9V10.1C0,4.5,4.6,0,10.1,0l0,0c5.6,0,10.1,4.5,10.1,10.1v27.8
			C20.2,43.5,15.7,48,10.1,48z"/>
		<rect x="10.1" y="21.4" fill="#F7A64D" width="5.6" height="5.2"/>
		<rect x="4.5" y="21.4" fill="#F8B64C" width="5.6" height="5.2"/>
		<path fill="#FF7058" d="M2.1,37.3L2.1,37.3c0-2.5,2-4.5,4.5-4.5h7c2.5,0,4.5,2,4.5,4.5l0,0c0,2.5-2,4.5-4.5,4.5h-7
			C4.1,41.7,2.1,39.7,2.1,37.3z"/>
		<path fill="#40596B" d="M5.8,35.5H5.4c-1,0-1.8,0.8-1.8,1.8S4.4,39,5.4,39h0.4v0.6h1.5v-4.7H5.8V35.5z"/>
		<path fill="#40596B" d="M14.5,39h0.4c1,0,1.8-0.8,1.8-1.8s-0.8-1.8-1.8-1.8h-0.4v-0.6h-1.5v4.7h1.5V39z"/>
		<path fill="#FF7058" d="M2.1,10.7L2.1,10.7c0-2.5,2-4.5,4.5-4.5h7c2.5,0,4.5,2,4.5,4.5l0,0c0,2.5-2,4.5-4.5,4.5h-7
			C4.1,15.2,2.1,13.2,2.1,10.7z"/>
		<path fill="#40596B" d="M5.8,9H5.4c-1,0-1.8,0.8-1.8,1.8s0.8,1.8,1.8,1.8h0.4v0.6h1.5V8.4H5.8V9z"/>
		<path fill="#40596B" d="M14.5,12.5h0.4c1,0,1.8-0.8,1.8-1.8S15.9,9,14.9,9h-0.4V8.4h-1.5v4.7h1.5V12.5z"/>
	</g>
	<rect x="38.8" y="17.2" fill="#C5CAD6" width="3" height="2.2"/>
	<g>
		<path fill="#F2F2F2" d="M45.6,8h-2.5V1.2c0-0.7,0.6-1.2,1.2-1.2l0,0c0.7,0,1.2,0.6,1.2,1.2V8z"/>
		<path fill="#F2F2F2" d="M37.6,8h-2.5V1.2c0-0.7,0.6-1.2,1.2-1.2l0,0c0.7,0,1.2,0.6,1.2,1.2V8z"/>
	</g>
	<polygon fill="#ACB3BA" points="43.7,17.9 37,17.9 32.7,13.6 32.7,8 48,8 48,13.6 	"/>
</g>
</svg>
