<?xml version="1.0" encoding="utf-8"?>
<!-- Generator: Adobe Illustrator 18.0.0, SVG Export Plug-In . SVG Version: 6.00 Build 0)  -->
<!DOCTYPE svg PUBLIC "-//W3C//DTD SVG 1.1//EN" "http://www.w3.org/Graphics/SVG/1.1/DTD/svg11.dtd">
<svg version="1.1" id="Layer_1" xmlns="http://www.w3.org/2000/svg" xmlns:xlink="http://www.w3.org/1999/xlink" x="0px" y="0px"
	 viewBox="0 0 48 48" enable-background="new 0 0 48 48" xml:space="preserve">
<g>
	<path fill="#F2F2F2" d="M46.3,14.1V46c0,1.1-0.9,2-2,2H3.8c-1.1,0-2-0.9-2-2V14.1c0-1.1,0.9-2,2-2h40.5
		C45.4,12.1,46.3,13,46.3,14.1z"/>
	<path fill="#ACB3BA" d="M5.4,48V34.6c0-4.2,3.4-7.6,7.6-7.6h0c4.2,0,7.6,3.4,7.6,7.6V48H5.4z"/>
	<polygon fill="#F2705B" points="1.7,0 0,12.1 6.9,12.1 8.1,0 	"/>
	<polygon fill="#F2F2F2" points="8.1,0 6.9,12.1 13.7,12.1 14.4,0 	"/>
	<polygon fill="#F2705B" points="14.4,0 13.7,12.1 20.6,12.1 20.8,0 	"/>
	<polygon fill="#F2F2F2" points="20.8,0 20.6,12.1 27.4,12.1 27.2,0 	"/>
	<polygon fill="#F2705B" points="27.2,0 27.4,12.1 34.3,12.1 33.6,0 	"/>
	<polygon fill="#F2F2F2" points="33.6,0 34.3,12.1 41.1,12.1 39.9,0 	"/>
	<polygon fill="#F2705B" points="39.9,0 41.1,12.1 48,12.1 46.3,0 	"/>
	<path fill="#E4EAEF" d="M46.3,20.2v-6.8h-5.1h0h-6.9h0h-6.9h0h-6.9h0h-6.9h0H6.9h0H1.8v6.8c0.5,0.3,1.1,0.5,1.7,0.5
		c1.9,0,3.4-1.5,3.4-3.4c0,1.9,1.5,3.4,3.4,3.4c1.9,0,3.4-1.5,3.4-3.4c0,1.9,1.5,3.4,3.4,3.4c1.9,0,3.4-1.5,3.4-3.4
		c0,1.9,1.5,3.4,3.4,3.4c1.9,0,3.4-1.5,3.4-3.4c0,1.9,1.5,3.4,3.4,3.4c1.9,0,3.4-1.5,3.4-3.4c0,1.9,1.5,3.4,3.4,3.4
		c1.9,0,3.4-1.5,3.4-3.4c0,1.9,1.5,3.4,3.4,3.4C45.2,20.7,45.8,20.5,46.3,20.2z"/>
	<path fill="#F05540" d="M0,12.1v3.8c0,1.9,1.5,3.4,3.4,3.4c1.9,0,3.4-1.5,3.4-3.4v-3.8H0z"/>
	<path fill="#CDD5DF" d="M6.9,12.1v3.8c0,1.9,1.5,3.4,3.4,3.4c1.9,0,3.4-1.5,3.4-3.4v-3.8H6.9z"/>
	<path fill="#F05540" d="M13.7,12.1v3.8c0,1.9,1.5,3.4,3.4,3.4c1.9,0,3.4-1.5,3.4-3.4v-3.8H13.7z"/>
	<path fill="#CDD5DF" d="M20.6,12.1v3.8c0,1.9,1.5,3.4,3.4,3.4c1.9,0,3.4-1.5,3.4-3.4v-3.8H20.6z"/>
	<path fill="#F05540" d="M27.4,12.1v3.8c0,1.9,1.5,3.4,3.4,3.4c1.9,0,3.4-1.5,3.4-3.4v-3.8H27.4z"/>
	<path fill="#CDD5DF" d="M34.3,12.1v3.8c0,1.9,1.5,3.4,3.4,3.4c1.9,0,3.4-1.5,3.4-3.4v-3.8H34.3z"/>
	<path fill="#F05540" d="M41.1,12.1v3.8c0,1.9,1.5,3.4,3.4,3.4c1.9,0,3.4-1.5,3.4-3.4v-3.8H41.1z"/>
	<g>
		<rect x="26.3" y="32.2" fill="#54C0EB" width="13.9" height="9.3"/>
		<rect x="25.4" y="41.6" fill="#CDD6E0" width="15.8" height="1.1"/>
	</g>
	<circle fill="#40596B" cx="18.7" cy="39.1" r="0.9"/>
</g>
</svg>
