<?xml version="1.0" encoding="utf-8"?>
<!-- Generator: Adobe Illustrator 16.0.0, SVG Export Plug-In . SVG Version: 6.00 Build 0)  -->
<!DOCTYPE svg PUBLIC "-//W3C//DTD SVG 1.1//EN" "http://www.w3.org/Graphics/SVG/1.1/DTD/svg11.dtd">
<svg version="1.1" id="Layer_1" xmlns="http://www.w3.org/2000/svg" xmlns:xlink="http://www.w3.org/1999/xlink" x="0px" y="0px"
	 width="48px" height="48px" viewBox="0 0 48 48" enable-background="new 0 0 48 48" xml:space="preserve">
<g>
	<path fill="#F7B64C" d="M43.513,26.229c0.08,1.075,0.975,1.906,2.051,1.906c1.078,0,1.973-0.831,2.053-1.906V3.782
		c-0.08-1.074-0.975-1.906-2.053-1.906c-1.076,0-1.971,0.832-2.051,1.906V26.229z"/>
	<path fill="#FFD15C" d="M47.458,0.935L47.458,0.935c0.963,0.962,1.02,2.503,0.129,3.532L25.499,30.054
		c-0.986,1.143-2.734,1.206-3.801,0.14L18.2,26.695c-1.066-1.066-1.002-2.814,0.14-3.801L43.927,0.806
		C44.956-0.083,46.497-0.027,47.458,0.935"/>
	<path fill="#415A6B" d="M25.508,38.798H4.733c-2.494,0-4.514,2.021-4.514,4.515c0,2.492,2.02,4.513,4.514,4.513h20.774
		c2.493,0,4.514-2.021,4.514-4.513C30.021,40.819,28.001,38.798,25.508,38.798"/>
	<path fill="#344A5E" d="M6.747,43.312c0,1.112-0.902,2.014-2.015,2.014S2.72,44.424,2.72,43.312s0.9-2.014,2.013-2.014
		S6.747,42.199,6.747,43.312"/>
	<path fill="#344A5E" d="M27.521,43.312c0,1.112-0.901,2.014-2.015,2.014c-1.111,0-2.012-0.901-2.012-2.014s0.9-2.014,2.012-2.014
		C26.62,41.298,27.521,42.199,27.521,43.312"/>
	<path fill="#344A5E" d="M20.597,43.312c0,1.112-0.902,2.014-2.014,2.014c-1.113,0-2.014-0.901-2.014-2.014s0.9-2.014,2.014-2.014
		C19.694,41.298,20.597,42.199,20.597,43.312"/>
	<path fill="#344A5E" d="M13.671,43.312c0,1.112-0.901,2.014-2.014,2.014c-1.111,0-2.013-0.901-2.013-2.014s0.901-2.014,2.013-2.014
		C12.77,41.298,13.671,42.199,13.671,43.312"/>
	<rect x="4.999" y="36.894" fill="#F7B64C" width="20.242" height="1.904"/>
	<path fill="#FFD15C" d="M28.865,26.79H1.781c-1.104,0-2,0.895-2,2v6.154c0,1.104,0.896,2,2,2h27.084c1.104,0,2-0.896,2-2V28.79
		C30.865,27.685,29.97,26.79,28.865,26.79"/>
	<path fill="#415A6B" d="M15.842,16.135h6.612c4.645,0,8.41,3.767,8.41,8.411v8.595H15.972c-1.104,0-2-0.896-2-2V18.005
		C13.972,16.972,14.81,16.135,15.842,16.135"/>
	<path fill="#8AD7F8" d="M28.865,30.177v-5.631c0-3.535-2.876-6.411-6.411-6.411h-6.482v12.042H28.865z"/>
	<path fill="#415A6B" d="M46.95,2.829c0,0.765-0.621,1.386-1.387,1.386c-0.764,0-1.385-0.621-1.385-1.386s0.621-1.386,1.385-1.386
		C46.329,1.443,46.95,2.064,46.95,2.829"/>
	<path fill="#415A6B" d="M46.345,34.021c-2.471,2.576-6.563,2.669-9.154,0.213l8.984-9.368
		C48.737,27.352,48.815,31.444,46.345,34.021"/>
	
		<rect x="34.437" y="27.779" transform="matrix(0.6922 -0.7217 0.7217 0.6922 -8.2066 38.4114)" fill="#ADB3BA" width="12.977" height="2.095"/>
</g>
</svg>
