<?xml version="1.0" encoding="utf-8"?>
<!-- Generator: Adobe Illustrator 20.1.0, SVG Export Plug-In . SVG Version: 6.00 Build 0)  -->
<!DOCTYPE svg PUBLIC "-//W3C//DTD SVG 1.1//EN" "http://www.w3.org/Graphics/SVG/1.1/DTD/svg11.dtd">
<svg version="1.1" id="Layer_1" xmlns="http://www.w3.org/2000/svg" xmlns:xlink="http://www.w3.org/1999/xlink" x="0px" y="0px"
	 viewBox="0 0 49 49" enable-background="new 0 0 49 49" xml:space="preserve">
<g>
	<polygon fill="#FF7058" points="32.5,10.5 38.5,1.7 36.7,0.5 29.9,10.5 	"/>
	<polygon fill="#F2F2F2" points="36,5.4 35.1,2.9 35.9,1.6 36.9,4.1 	"/>
	<polygon fill="#F2F2F2" points="33.7,8.7 32.8,6.2 33.7,4.9 34.6,7.4 	"/>
	<polygon fill="#FF7058" points="34.5,13.5 45,5.5 43.6,3.8 34.5,10.7 	"/>
	<polygon fill="#F2F2F2" points="41.5,8.2 41.4,5.5 42.6,4.6 42.7,7.3 	"/>
	<polygon fill="#F2F2F2" points="38.2,10.6 38.1,8 39.4,7 39.5,9.7 	"/>
	<polygon fill="#F2F2F2" points="35,13.1 34.9,10.4 36.2,9.5 36.3,12.1 	"/>
	<circle fill="#FFD15C" cx="21.1" cy="9.7" r="9.2"/>
	<circle fill="#FF7058" cx="13.4" cy="17.3" r="9.2"/>
	<circle fill="#54C0EB" cx="28.7" cy="17.3" r="9.2"/>
	<path fill="#E2E2E2" d="M28.9,46.8c0,1-0.8,1.7-1.7,1.7H15c-1,0-1.8-0.8-1.8-1.7c0-1,0.8-1.8,1.8-1.8h4.1v-4.9
		c0.6,0.1,1.3,0.1,1.9,0.1s1.3,0,1.9-0.1V45h4.1C28.1,45,28.9,45.8,28.9,46.8z"/>
	<path fill="#F2F2F2" d="M38.1,23.2c0,9.4-7.6,17-17,17s-17-7.6-17-17c0-0.3,0-0.6,0-0.8c0-0.9,0.2-1.7,0.3-2.5h33.3
		c0.2,0.8,0.3,1.7,0.3,2.5C38.1,22.7,38.1,23,38.1,23.2z"/>
	<path fill="#CDD6E0" d="M38.1,22.4h-34c0-0.9,0.2-1.7,0.3-2.5h33.3C37.9,20.7,38,21.5,38.1,22.4z"/>
	<path fill="#CDD6E0" d="M23,40.1v1.5c-0.6,0.1-1.3,0.1-1.9,0.1s-1.3,0-1.9-0.1v-1.5c0.6,0.1,1.3,0.1,1.9,0.1S22.4,40.2,23,40.1z"/>
	<path fill="#FF7058" d="M12.4,27.9h-2.3c0,0-0.1,0-0.1-0.1V17.7h2.4L12.4,27.9C12.4,27.8,12.4,27.9,12.4,27.9z"/>
	<path fill="#FF7058" d="M14.8,25.4h-2.3c0,0-0.1,0-0.1-0.1v-7.6h2.4L14.8,25.4C14.9,25.4,14.8,25.4,14.8,25.4z"/>
</g>
</svg>
