<?xml version="1.0" encoding="utf-8"?>
<!-- Generator: Adobe Illustrator 18.0.0, SVG Export Plug-In . SVG Version: 6.00 Build 0)  -->
<!DOCTYPE svg PUBLIC "-//W3C//DTD SVG 1.1//EN" "http://www.w3.org/Graphics/SVG/1.1/DTD/svg11.dtd">
<svg version="1.1" id="Layer_1" xmlns="http://www.w3.org/2000/svg" xmlns:xlink="http://www.w3.org/1999/xlink" x="0px" y="0px"
	 viewBox="0 0 512 512" enable-background="new 0 0 512 512" xml:space="preserve">
<g>
	<path fill="#4CDBC4" d="M174.4,120.1v207.5H91.3c-33.7,0-63-18.6-78.2-46.1c-3.9-7.1-7-14.9-8.8-23.1C2.8,251.9,2,245.2,2,238.3
		v-28.9c0-6.9,0.7-13.7,2.3-20.1c1.8-8.1,4.9-16,8.8-23.1c15.2-27.5,44.6-46.1,78.2-46.1H174.4z"/>
	<path fill="#4CDBC4" d="M431,2h-6.2c-10.7,0-19.3,8.6-19.3,19.3v405c0,10.7,8.6,19.3,19.3,19.3h6.2c10.7,0,19.3-8.6,19.3-19.3v-405
		C450.3,10.6,441.7,2,431,2z"/>
	<polygon fill="#F2F2F2" points="405.5,21.3 174.4,120 174.4,327.6 405.5,426.3 	"/>
	<path fill="#CDD6E0" d="M450.3,144.2v159.2c34.5-10.1,59.7-41.9,59.7-79.6C510,186.1,484.8,154.3,450.3,144.2z"/>
	<path fill="#40596B" d="M181.1,446.9l-15.3-119.3H91.3c-14.2,0-27.6-3.4-39.5-9.3l18.4,142.9c3.6,27.9,27.3,48.8,55.5,48.8
		C159.4,510,185.4,480.4,181.1,446.9z"/>
	<g>
		<path fill="#F2F2F2" d="M67.4,177.7c0,6.3-5.2,11.5-11.5,11.5H4.3c1.8-8.1,4.9-16,8.8-23.1h42.8C62.2,166.2,67.4,171.4,67.4,177.7
			z"/>
		<path fill="#F2F2F2" d="M67.4,223.8c0,6.5-5.2,11.5-11.5,11.5H2v-23.1h53.9C62.2,212.2,67.4,217.4,67.4,223.8z"/>
		<path fill="#F2F2F2" d="M67.4,269.9c0,6.3-5.2,11.5-11.5,11.5H13.1c-3.9-7.1-7-14.9-8.8-23.1h51.5
			C62.2,258.4,67.4,263.6,67.4,269.9z"/>
	</g>
	<polygon fill="#FF7058" points="169.1,353.6 176.9,414.2 180.4,414.2 191.7,353.6 	"/>
</g>
</svg>
