<?xml version="1.0" encoding="utf-8"?>
<!-- Generator: Adobe Illustrator 18.0.0, SVG Export Plug-In . SVG Version: 6.00 Build 0)  -->
<!DOCTYPE svg PUBLIC "-//W3C//DTD SVG 1.1//EN" "http://www.w3.org/Graphics/SVG/1.1/DTD/svg11.dtd">
<svg version="1.1" id="Layer_1" xmlns="http://www.w3.org/2000/svg" xmlns:xlink="http://www.w3.org/1999/xlink" x="0px" y="0px"
	 viewBox="0 0 48 48" enable-background="new 0 0 48 48" xml:space="preserve">
<g>
	<path fill="#40596B" d="M40.6,48H7.4c-1.1,0-2-0.9-2-2V2c0-1.1,0.9-2,2-2h33.2c1.1,0,2,0.9,2,2v44C42.6,47.1,41.7,48,40.6,48z"/>
	<g>
		<circle fill="#ACB3BA" cx="38.3" cy="4.3" r="1.3"/>
		<circle fill="#ACB3BA" cx="9.7" cy="4.3" r="1.3"/>
	</g>
	<g>
		<circle fill="#ACB3BA" cx="38.3" cy="43.7" r="1.3"/>
		<circle fill="#ACB3BA" cx="9.7" cy="43.7" r="1.3"/>
	</g>
	<circle fill="#F2F2F2" cx="24" cy="17" r="12.4"/>
	<circle fill="#40596B" cx="24" cy="17" r="3"/>
	<path fill="#FF7058" d="M36.7,39.9H25.1c-1.9,0-3.4-1.5-3.4-3.4l0,0c0-1.9,1.5-3.4,3.4-3.4h11.6c1.9,0,3.4,1.5,3.4,3.4l0,0
		C40.1,38.4,38.6,39.9,36.7,39.9z"/>
	<path fill="#FFD15C" d="M21.1,22.6c0,0-9.7,8.3-10.8,10.3c-1.2,2-0.5,4.6,1.5,5.7c2,1.2,4.6,0.5,5.7-1.5
		C18.7,35,21.1,22.6,21.1,22.6z M13,36.4c-0.8-0.5-1.1-1.5-0.6-2.4c0.5-0.8,1.5-1.1,2.4-0.6c0.8,0.5,1.1,1.5,0.6,2.4
		C14.9,36.6,13.9,36.9,13,36.4z"/>
</g>
</svg>
