<?xml version="1.0" encoding="utf-8"?>
<!-- Generator: Adobe Illustrator 19.0.1, SVG Export Plug-In . SVG Version: 6.00 Build 0)  -->
<svg version="1.1" id="Layer_1" xmlns="http://www.w3.org/2000/svg" xmlns:xlink="http://www.w3.org/1999/xlink" x="0px" y="0px"
	 viewBox="0 0 48 48" style="enable-background:new 0 0 48 48;" xml:space="preserve">
<style type="text/css">
	.st0{fill:#66C6B9;}
	.st1{fill:#F3F3F3;}
	.st2{fill:#415A6B;}
	.st3{fill:#CED6E0;}
	.st4{fill:#F3705A;}
	.st5{fill:#E8EAE9;}
	.st6{fill:#4ABAA5;}
	.st7{fill:#F05540;}
	.st8{fill:#FFD15C;}
	.st9{fill:#55C0EB;}
	.st10{fill:#8AD7F8;}
	.st11{fill:#344A5E;}
	.st12{fill:#FFFFFF;}
	.st13{fill:#F7B64C;}
	.st14{fill:#ADB3BA;}
	.st15{fill:#38A892;}
	.st16{fill:#ED9845;}
	.st17{fill:#2D4251;}
	.st18{fill:#304556;}
	.st19{fill:#A5AAAD;}
	.st20{fill:#2D4456;}
	.st21{fill:#4FB0E0;}
	.st22{fill:#2D4354;}
	.st23{fill:#E54C38;}
	.st24{fill:#2B4456;}
	.st25{fill:#2B404F;}
</style>
<g>
	<g>
		<g>
			<g>
				<g>
					<path class="st8" d="M24.1,24c0,0-0.8,3.4-1.7,4.6c-0.9,1.3-1.2,1.3-1.2,1.3s-1,3.6-1.2,4.5c-0.2,0.9-0.8,4.2-0.8,4.2L13,38.3
						l-1.8-7.7c0,0,0.7-3.3,0.6-3.8s-0.3-1.9-0.3-1.9s-0.4-4.1,0-6.2c0.4-2.1,1.7-6.4,4.9-6.9c3.3-0.5,6.3,1.4,7.1,2.2
						c0.7,0.8,1.1,3,1.1,3L24.1,24z"/>
				</g>
				<g>
					<path class="st11" d="M31.5,48c0.2-1.6,0.2-3,0-3.7c-0.8-3.1-2.9-6.3-3.9-7.2c-1-0.9-2.4-0.8-3.4-1.2c-1.1-0.4-3-1-3-1
						l-0.3,0.3l-1.7,0.6l-0.7,0.7c0,0,0-0.6-0.2-0.9c-0.3-0.3-0.7-0.8-0.7-0.8L13,34.4l-2-3.9l-1.5,0.9c0,0-5.5,2.2-7,3.8
						c-1.5,1.6-2.1,2.6-2.2,3.3c-0.1,0.8,0,4.2-0.3,5.6c-0.1,0.5,0.1,2,0.4,3.9H31.5z"/>
				</g>
				<g>
					<path class="st8" d="M11.7,22.7c0.1,1.6-0.4,2.9-1,2.9c-0.6,0-1.2-1.3-1.3-2.9s0.4-2.9,1-2.9C11.1,19.7,11.7,21,11.7,22.7z"/>
				</g>
				<g>
					<path class="st8" d="M22.4,23.6c-0.1,1.6,0.4,2.9,1,2.9s1.2-1.3,1.3-2.9c0.1-1.6-0.4-2.9-1-2.9S22.5,21.9,22.4,23.6z"/>
				</g>
				<g>
					<path class="st2" d="M11.3,23.6l0.3-0.1c0,0-0.4-3.6,0.4-4.6c0.7-1,1.6-2.5,1.6-2.9s-0.6-1.8,0.8-2.6s6.2-0.5,7.9,0.4
						c0.5,0.3,0.9,0.6,1.1,1c0.4,0.6,0.5,1.4,0.3,2.1c-0.1,0.3-0.1,0.8,0.2,1.2c0.6,0.8,0.3,4.5,0.3,5S24.1,24,24.1,24h0.2
						c0,0,0.2-2.7,0.3-3.6s0.5-2.8,0.2-4.3c-0.5-2.7-2.7-4.6-5.9-5.3c-3.2-0.7-5.9,1.4-7,3s-1.2,3.6-1.3,4.5s0,1.7,0,1.7
						S11.2,20.8,11.3,23.6z"/>
				</g>
			</g>
			<path class="st13" d="M11.7,26.8c0.1,0.5-0.6,3.8-0.6,3.8l0.3,1.1c0.7,0.1,1.9,0.3,3.7,0.5c3.7,0.5,6-2.3,6-2.3
				C17,33.5,11.7,26.8,11.7,26.8z"/>
			<g>
				<g>
					<path class="st5" d="M20.5,32.2c0,0-0.7,3-2.1,4.2c0,0,1.2-0.4,1.8-0.7c0,0,0.7,0.2,0.9,0.7c0.2,0.4,0.8,1.6,1.3,1.9
						s0.7,0.6,0.7,0.6s-0.4-0.7-0.7-1.2c-0.3-0.6-1-2-1.1-2.5C21.3,34.7,20.8,32.7,20.5,32.2z"/>
				</g>
				<g>
					<path class="st5" d="M11.5,28.5c0,0,0.5,1.3,1.2,1.9c0.7,0.6,4.8,4.5,4.8,4.5s-1.5,1.3-1.9,2.1c-0.4,0.8-0.8,1.7-0.8,1.7
						s-3.4-4.1-4.2-5.4c-0.4-0.7-0.7-1.2-0.9-1.4c-0.2-0.2-0.2-0.5,0-0.7c0.2-0.4,0.6-1.1,0.7-1.5C10.6,28.9,11.2,28.5,11.5,28.5z"
						/>
				</g>
			</g>
		</g>
		<g>
			<g>
				<path class="st4" d="M48,3v11.2c0,1.7-1.4,3-3,3h-9.1l-7.2,5.5v-5.5h-0.4c-1.7,0-3-1.3-3-3V3c0-1.6,1.3-3,3-3H45
					C46.7,0,48,1.3,48,3z"/>
			</g>
			<g>
				<g>
					<path class="st12" d="M38.8,8.8L39,7.4l-1.4-0.5c0-0.2-0.1-0.5-0.2-0.7L38.3,5l-0.8-1l-1.3,0.6c-0.2-0.1-0.4-0.3-0.6-0.3
						l-0.2-1.5l-1.3-0.1L33.4,4c-0.2,0-0.5,0.1-0.7,0.2l-1.2-0.9l-1,0.8L31,5.5c-0.1,0.2-0.3,0.4-0.4,0.6l-1.5,0.2l-0.1,1.3l1.4,0.5
						c0,0.2,0.1,0.5,0.2,0.7l-0.9,1.2l0.8,1l1.3-0.6c0.2,0.1,0.4,0.3,0.6,0.3l0.2,1.5l1.3,0.1l0.5-1.4c0.2,0,0.5-0.1,0.7-0.2
						l1.2,0.9l1-0.8L37,9.6c0.1-0.2,0.3-0.4,0.4-0.6L38.8,8.8z M33.8,9.6c-1.1-0.1-1.9-1.1-1.8-2.2c0.1-1.1,1.1-1.9,2.2-1.8
						c1.1,0.1,1.9,1.1,1.8,2.2C35.9,8.9,34.9,9.7,33.8,9.6z"/>
				</g>
				<g>
					<path class="st12" d="M44.2,11L44,10.2l-0.9,0c-0.1-0.1-0.2-0.3-0.3-0.4L43,9l-0.7-0.4l-0.6,0.7c-0.1,0-0.3,0-0.5,0l-0.5-0.8
						l-0.8,0.2l0,0.9c-0.1,0.1-0.2,0.2-0.4,0.3l-0.9-0.2l-0.4,0.7l0.7,0.6c0,0.1,0,0.3,0,0.5L38,11.9l0.2,0.8l0.9,0
						c0.1,0.1,0.2,0.2,0.3,0.4L39.2,14l0.7,0.4l0.6-0.7c0.1,0,0.3,0,0.5,0l0.5,0.8l0.8-0.2l0-0.9c0.1-0.1,0.2-0.2,0.4-0.3l0.9,0.2
						l0.4-0.7l-0.7-0.6c0-0.1,0-0.3,0-0.5L44.2,11z M41.5,12.7c-0.7,0.2-1.4-0.2-1.6-0.9c-0.2-0.7,0.2-1.4,0.9-1.6
						c0.7-0.2,1.4,0.2,1.6,0.9C42.5,11.8,42.1,12.5,41.5,12.7z"/>
				</g>
			</g>
		</g>
	</g>
</g>
</svg>
