<?xml version="1.0" encoding="utf-8"?>
<!-- Generator: Adobe Illustrator 18.0.0, SVG Export Plug-In . SVG Version: 6.00 Build 0)  -->
<!DOCTYPE svg PUBLIC "-//W3C//DTD SVG 1.1//EN" "http://www.w3.org/Graphics/SVG/1.1/DTD/svg11.dtd">
<svg version="1.1" id="Layer_1" xmlns="http://www.w3.org/2000/svg" xmlns:xlink="http://www.w3.org/1999/xlink" x="0px" y="0px"
	 viewBox="0 0 48 48" enable-background="new 0 0 48 48" xml:space="preserve">
<g>
	<g>
		<path fill="#66C6B9" d="M46.9,21.4L26.6,1.1c-1.4-1.4-3.8-1.4-5.2,0L1.1,21.4c-1.4,1.4-1.4,3.8,0,5.2c1.4,1.4,3.8,1.4,5.2,0
			L24,8.8l17.7,17.7c1.4,1.4,3.8,1.4,5.2,0C48.4,25.2,48.4,22.8,46.9,21.4z"/>
		<polygon fill="#E8EAE9" points="41.7,48 41.7,26.6 24,8.8 6.3,26.6 6.3,48 		"/>
		<g>
			<polygon fill="#CED6E0" points="6.3,26.6 6.3,29.8 24,12 41.7,29.8 41.7,26.6 24,8.8 			"/>
		</g>
		<polygon fill="#F3705A" points="25.7,35.5 26.5,26.1 26.5,21.6 21.5,21.6 21.5,26.1 22.3,35.5 		"/>
		<g>
			<circle fill="#F3705A" cx="24" cy="39.9" r="2.5"/>
		</g>
	</g>
</g>
</svg>
