<?xml version="1.0" encoding="utf-8"?>
<!-- Generator: Adobe Illustrator 18.0.0, SVG Export Plug-In . SVG Version: 6.00 Build 0)  -->
<!DOCTYPE svg PUBLIC "-//W3C//DTD SVG 1.1//EN" "http://www.w3.org/Graphics/SVG/1.1/DTD/svg11.dtd">
<svg version="1.1" id="Layer_1" xmlns="http://www.w3.org/2000/svg" xmlns:xlink="http://www.w3.org/1999/xlink" x="0px" y="0px"
	 viewBox="0 0 48 48" enable-background="new 0 0 48 48" xml:space="preserve">
<g>
	<g>
		<g>
			<g>
				<g>
					<g>
						<path fill="#415A6B" d="M45.9,44.3c-1.9-3.9-2.8-8.2-2.8-12.5v-1.3c0-4.3-3.3-8.1-7.7-8.3c-4.5-0.1-8.2,3.5-8.2,7.9v1.6
							c0,4.3-1,8.6-2.8,12.5H45.9z"/>
					</g>
				</g>
				<g>
					<g>
						<path fill="#F7B64C" d="M38.8,38.8v-1.6l-3.7-4.7l-3.7,4.7v1.6c0,0.4-0.1,0.7-0.3,1.1V45h8.4v-4.5
							C39.1,40,38.8,39.5,38.8,38.8z"/>
					</g>
				</g>
				<path fill="#F05540" d="M48,48l-0.4-2.9c-0.3-2-1.8-3.6-3.8-3.9l-4-0.6l-1.3,4.6c-1,0.7-2.1,1.1-3.4,1.1c-1.4,0-2.8-0.5-3.8-1.4
					v-4.3l-4.8,0.6c-2,0.3-3.6,1.9-3.8,3.9L22.3,48H48z"/>
				<g>
					<g>
						<path fill="#4ABAA5" d="M37.3,48l1.2-5.1c-1,0.9-2.1,1.5-3.4,1.5c-1.4,0-2.8-0.7-3.8-1.9l1.4,5.5H37.3z"/>
					</g>
				</g>
				<g>
					<g>
						<g>
							<path fill="#F3705A" d="M39.7,48l1.9-3.2L40,43.4l2-1l-3.1-3.7c0.1,2.6-0.8,5.8-2,9.2L39.7,48z"/>
						</g>
					</g>
					<g>
						<g>
							<path fill="#F3705A" d="M28.7,44.8l1.9,3.2l2.9,0c-1.2-3.5-2.2-6.8-2-9.2l-3.1,3.7l2,1L28.7,44.8z"/>
						</g>
					</g>
				</g>
			</g>
			<g>
				<path fill="#FFD15C" d="M37.4,26.4c-1.2,2.7-3.7,4.9-7.4,5c-0.1,0.5-0.1,1-0.1,1.5c0,4,2.4,7.2,5.4,7.2c3,0,5.4-3.2,5.4-7.2
					C40.5,30,39.2,27.5,37.4,26.4z"/>
			</g>
		</g>
		<g>
			<g>
				<g>
					<path fill="#344A5E" d="M26.8,25l-0.9-5.2c-0.2-1.3-1.2-2.4-2.5-2.8l-4.9-1.5l-5.1,2.2l-5.1-2.2L3.4,17
						c-1.3,0.4-2.3,1.5-2.5,2.8L0,25H26.8z"/>
					<g>
						<g>
							<g>
								<path fill="#E8EAE9" d="M11,25h4.7l1.1-6.9c0,0,0.1-1,0.1-2l-3.6,1.6l-3.6-1.6c0.1,1,0.1,2,0.1,2L11,25z"/>
							</g>
							<g>
								<path fill="#F3705A" d="M11.6,25h3.5l-0.6-4.4l0.9-0.9c0,0-1.3-2.1-2.1-2.1c-0.7,0-2.1,2.1-2.1,2.1l0.9,0.9L11.6,25z"/>
							</g>
							<g>
								<g>
									<path fill="#F3F3F3" d="M10,13.1l3.4,4.5l-2.4,2.5l-1.9-5.6C9.4,13.9,10,13.1,10,13.1z"/>
								</g>
							</g>
						</g>
						<g>
							<path fill="#F3F3F3" d="M16.7,13.1l-3.4,4.5l2.4,2.5l1.9-5.6C17.3,13.9,16.7,13.1,16.7,13.1z"/>
						</g>
					</g>
				</g>
				<g>
					<polygon fill="#F7B64C" points="10,9.4 10,13.1 13.4,17.6 16.7,13.1 16.7,9.4 					"/>
				</g>
				<g>
					<g>
						<g>
							<g>
								<path fill="#FFD15C" d="M19.1,9.2c-0.2,0.9-0.8,1.6-1.4,1.4c-0.6-0.2-0.9-1.1-0.7-2c0.2-0.9,0.8-1.5,1.4-1.3
									C19,7.4,19.3,8.3,19.1,9.2z"/>
							</g>
							<g>
								<path fill="#FFD15C" d="M7.6,9.2c0.2,0.9,0.8,1.6,1.4,1.4c0.6-0.2,0.9-1.1,0.7-2C9.5,7.7,8.9,7.1,8.3,7.3
									C7.8,7.4,7.5,8.3,7.6,9.2z"/>
							</g>
						</g>
						<g>
							<path fill="#344A5E" d="M19,5.6c-0.1,1.5-0.2,2.9-1,4.5l-9.2,0.1C8,8.7,7.9,7.1,7.8,5.8C7.5,1.4,9.9,0,13.3,0
								C16.7,0,19.2,1.3,19,5.6z"/>
						</g>
					</g>
					<g>
						<path fill="#FFD15C" d="M15.6,4.6c-1.2,1.2-2.9,2.1-5.1,2.1c-0.7,0-1.3-0.1-1.9-0.2C8.5,7,8.5,7.6,8.5,8.1
							c0,3.7,2.2,6.7,4.9,6.7c2.7,0,4.9-3,4.9-6.7c0-0.7-0.1-1.5-0.3-2.1C17.1,5.7,16.3,5.2,15.6,4.6z"/>
					</g>
				</g>
			</g>
			<g>
				<g>
					<polygon fill="#415A6B" points="16.5,25 20.1,19.3 18.3,17.7 20.5,16.1 17,13.5 14.5,25 					"/>
				</g>
				<g>
					<polygon fill="#415A6B" points="6.7,19.3 10.2,25 12.2,25 9.7,13.5 6.3,16.1 8.4,17.7 					"/>
				</g>
			</g>
		</g>
		<g>
			<path fill="#66C6B9" d="M36,12.8l2.2-1.1c-2.2-4.3-7-6.4-11.5-5.5c0.7-0.7,1.5-1.2,2.4-1.7C34.3,1.8,40.7,3.8,43.4,9l2.2-1.1
				l-1.5,8.9L36,12.8z"/>
		</g>
		<g>
			<path fill="#66C6B9" d="M12,35.2l-2.2,1.1c2.2,4.3,7,6.4,11.5,5.5c-0.7,0.7-1.5,1.2-2.4,1.7C13.7,46.2,7.3,44.2,4.6,39l-2.2,1.1
				l1.5-8.9L12,35.2z"/>
		</g>
	</g>
</g>
</svg>
