<?xml version="1.0" encoding="utf-8"?>
<!-- Generator: Adobe Illustrator 16.0.0, SVG Export Plug-In . SVG Version: 6.00 Build 0)  -->
<!DOCTYPE svg PUBLIC "-//W3C//DTD SVG 1.1//EN" "http://www.w3.org/Graphics/SVG/1.1/DTD/svg11.dtd">
<svg version="1.1" id="Layer_1" xmlns="http://www.w3.org/2000/svg" xmlns:xlink="http://www.w3.org/1999/xlink" x="0px" y="0px"
	 width="48px" height="48px" viewBox="0 0 48 48" enable-background="new 0 0 48 48" xml:space="preserve">
<g>
	<path fill="#F3705A" d="M43.984,7.063c-0.145-1.676-1.62-2.918-3.296-2.773L15.64,6.441c-1.678,0.145-2.92,1.621-2.775,3.297
		l2.152,25.037c0.146,1.676,1.621,2.92,3.299,2.775l25.048-2.152c1.677-0.146,2.918-1.621,2.774-3.297L43.984,7.063z"/>
	<path fill="#E8EAE9" d="M45.476,35.164l-30.15,2.592L12.451,4.328c-0.082-0.965-0.754-1.775-1.685-2.039l-7.81-2.201
		C1.722-0.26,0.436,0.457,0.087,1.693C-0.26,2.93,0.458,4.215,1.695,4.563l6.262,1.764l2.937,34.143
		c0.11,1.279,1.237,2.227,2.515,2.117l32.467-2.791c1.278-0.109,2.227-1.236,2.117-2.516C47.882,36.002,46.755,35.055,45.476,35.164
		"/>
	<path fill="#FFFFFF" d="M29.947,25.568l0.301,3.473c0.002,0.016-0.01,0.027-0.024,0.029l-2.242,0.191
		c-0.015,0.002-0.028-0.01-0.028-0.025l-0.301-3.473c-0.002-0.016-0.016-0.025-0.029-0.025l-0.969,0.084l1.811-3.852
		c0.009-0.02,0.033-0.021,0.045-0.004l2.437,3.488l-0.976,0.084C29.957,25.539,29.946,25.553,29.947,25.568"/>
	<path fill="#FFFFFF" d="M24.617,26.02l0.301,3.473c0.002,0.016-0.01,0.027-0.023,0.029l-2.242,0.191
		c-0.016,0.002-0.028-0.01-0.029-0.025l-0.301-3.473c-0.002-0.014-0.014-0.025-0.028-0.025l-0.97,0.084l1.811-3.852
		c0.01-0.02,0.034-0.021,0.046-0.004l2.437,3.488l-0.975,0.084C24.627,25.992,24.617,26.004,24.617,26.02"/>
	
		<rect x="20.651" y="30.812" transform="matrix(0.9963 -0.0855 0.0855 0.9963 -2.6115 2.3972)" fill="#FFFFFF" width="12.033" height="1.721"/>
	<path fill="#415A6B" d="M20.914,39.607c0.365,4.254-2.787,7.998-7.041,8.363c-4.256,0.367-8.002-2.785-8.367-7.039
		c-0.366-4.252,2.787-7.996,7.042-8.363C16.801,32.203,20.547,35.355,20.914,39.607"/>
	<path fill="#E8EAE9" d="M16.476,39.99c0.155,1.803-1.182,3.391-2.986,3.545c-1.804,0.156-3.392-1.18-3.548-2.984
		c-0.155-1.803,1.183-3.391,2.986-3.547C14.733,36.85,16.322,38.186,16.476,39.99"/>
	
		<rect x="24.092" y="5.977" transform="matrix(0.0856 0.9963 -0.9963 0.0856 35.8661 -19.4777)" fill="#FFD15C" width="8.906" height="7.649"/>
</g>
</svg>
