<?xml version="1.0" encoding="utf-8"?>
<!-- Generator: Adobe Illustrator 18.0.0, SVG Export Plug-In . SVG Version: 6.00 Build 0)  -->
<!DOCTYPE svg PUBLIC "-//W3C//DTD SVG 1.1//EN" "http://www.w3.org/Graphics/SVG/1.1/DTD/svg11.dtd">
<svg version="1.1" id="Layer_1" xmlns="http://www.w3.org/2000/svg" xmlns:xlink="http://www.w3.org/1999/xlink" x="0px" y="0px"
	 viewBox="0 0 48 48" enable-background="new 0 0 48 48" xml:space="preserve">
<g>
	<g>
		<g>
			<g>
				<g>
					<path fill="#E8EAE9" d="M39.7,34.5c-0.7,0-1.3,0.6-1.3,1.3c0,4-3,7.3-7,7.7l-5.9,0.6v2.5l6.1-0.6c5.3-0.5,9.2-4.9,9.2-10.2
						C40.9,35,40.4,34.5,39.7,34.5z"/>
				</g>
			</g>
			<g>
				<ellipse fill="#415A6B" cx="24" cy="45.5" rx="3.1" ry="2.5"/>
			</g>
		</g>
		<g>
			<g>
				<g>
					<path fill="#E8EAE9" d="M8.6,27.2c-1-2.1-1.5-4.5-1.5-6.9c0-9.3,7.6-16.9,16.9-16.9s16.9,7.6,16.9,16.9c0,2.4-0.5,4.7-1.5,6.9
						h3.2c0.8-2.2,1.2-4.5,1.2-6.9C43.9,9.4,35,0.5,24,0.5S4.1,9.4,4.1,20.4c0,2.4,0.4,4.7,1.2,6.9H8.6z"/>
				</g>
			</g>
			<g>
				<g>
					<g>
						<g>
							<path fill="#F3705A" d="M12.2,21.8C7.6,21.9,4,25.6,4,30.1c0,4.6,3.7,8.3,8.2,8.3V21.8z"/>
						</g>
					</g>
					<g>
						<g>
							<path fill="#E8EAE9" d="M13.8,40.2c-1,0-1.8-0.8-1.8-1.8V21.8c0-1,0.8-1.8,1.8-1.8s1.8,0.8,1.8,1.8v16.7
								C15.6,39.4,14.8,40.2,13.8,40.2z"/>
						</g>
					</g>
				</g>
				<g>
					<g>
						<g>
							<path fill="#F3705A" d="M35.8,21.8c4.5,0.1,8.2,3.8,8.2,8.3c0,4.6-3.7,8.3-8.2,8.3V21.8z"/>
						</g>
					</g>
					<g>
						<g>
							<path fill="#E8EAE9" d="M34.2,40.2c1,0,1.8-0.8,1.8-1.8V21.8c0-1-0.8-1.8-1.8-1.8s-1.8,0.8-1.8,1.8v16.7
								C32.4,39.4,33.2,40.2,34.2,40.2z"/>
						</g>
					</g>
				</g>
			</g>
			<path fill="#F3705A" d="M35.6,4.2L34,6.8c-0.1,0.2-0.4,0.3-0.6,0.1C30.7,5.1,27.5,4,24,4c-3.5,0-6.7,1.1-9.3,2.9
				C14.5,7.1,14.2,7,14,6.8l-1.7-2.6c-0.1-0.2-0.1-0.5,0.1-0.6C15.8,1.3,19.7,0,24,0s8.2,1.3,11.5,3.6C35.7,3.7,35.8,4,35.6,4.2z"/>
		</g>
	</g>
</g>
</svg>
