<?xml version="1.0" encoding="utf-8"?>
<!-- Generator: Adobe Illustrator 18.0.0, SVG Export Plug-In . SVG Version: 6.00 Build 0)  -->
<!DOCTYPE svg PUBLIC "-//W3C//DTD SVG 1.1//EN" "http://www.w3.org/Graphics/SVG/1.1/DTD/svg11.dtd">
<svg version="1.1" id="Layer_1" xmlns="http://www.w3.org/2000/svg" xmlns:xlink="http://www.w3.org/1999/xlink" x="0px" y="0px"
	 viewBox="0 0 48 48" enable-background="new 0 0 48 48" xml:space="preserve">
<g>
	<g>
		<g>
			<path fill="#40596B" d="M14.8,48h18.4c0.1-3.5,1.4-6.9,3.8-9.5H11l0,0C13.4,41.1,14.7,44.5,14.8,48z"/>
		</g>
		<g>
			<path fill="#40596B" d="M33.2,0L14.8,0c-0.1,3.5-1.4,6.9-3.8,9.5l26.1,0l0,0C34.6,6.9,33.3,3.5,33.2,0z"/>
		</g>
	</g>
	<g>
		<path fill="#4CDBC4" d="M37.2,9.1H10.8c-1.1,0-2,0.9-2,2v25.9c0,1.1,0.9,2,2,2h26.5c1.1,0,2-0.9,2-2V11.1
			C39.2,10,38.4,9.1,37.2,9.1z"/>
		<rect x="11.7" y="12" fill="#FFFFFF" width="24.6" height="24"/>
	</g>
	<g>
		<path fill="#FF7058" d="M31,17.7c-1.9-1.9-5.1-1.9-7,0c-1.9-1.9-5-1.9-7,0c-1.9,1.9-1.9,5.1,0,7l7,7l7-7
			C32.9,22.8,32.9,19.7,31,17.7z"/>
		<g>
			<g>
				<path fill="#F2F2F2" d="M22.8,26.3l-1.9-4.6L19.5,24c-0.1,0.2-0.3,0.3-0.5,0.3h-3.5c-0.3,0-0.5-0.2-0.5-0.5
					c0-0.3,0.2-0.5,0.5-0.5h3.2l1.7-3c0.2-0.4,0.8-0.3,0.9,0.1l1.9,4.6l1.9-3.5c0.2-0.4,0.7-0.4,0.9,0l1,1.9h5.3
					c0.3,0,0.5,0.2,0.5,0.5c0,0.3-0.2,0.5-0.5,0.5h-5.6c-0.2,0-0.4-0.1-0.5-0.3l-0.7-1.3l-1.9,3.6C23.5,26.7,22.9,26.7,22.8,26.3z"
					/>
			</g>
		</g>
	</g>
</g>
</svg>
