<?xml version="1.0" encoding="utf-8"?>
<!-- Generator: Adobe Illustrator 18.0.0, SVG Export Plug-In . SVG Version: 6.00 Build 0)  -->
<!DOCTYPE svg PUBLIC "-//W3C//DTD SVG 1.1//EN" "http://www.w3.org/Graphics/SVG/1.1/DTD/svg11.dtd">
<svg version="1.1" id="Layer_1" xmlns="http://www.w3.org/2000/svg" xmlns:xlink="http://www.w3.org/1999/xlink" x="0px" y="0px"
	 viewBox="0 0 48 48" enable-background="new 0 0 48 48" xml:space="preserve">
<g>
	<circle fill="#FF7058" cx="25.8" cy="29.5" r="3"/>
	<path fill="#ACB3BA" d="M32.8,31.5l-2.5-7.2c-0.5-1.5-1.8-2.7-3.3-2.9c-2-0.3-3.5,0.8-4.2,2.2c-0.6,1.3-0.3,2.8,0.7,3.8
		c0.6,0.6,1.4,1.5,1.7,2.6c0.3,0.8,0.3,1.6,0.3,2.4c0,2.2,2.2,4,4.3,3.3l0,0l0,0C32,35.6,33.5,33.5,32.8,31.5z"/>
	<path fill="#CDD6E0" d="M41.6,44.2H31.3l-8.9-23.5h17.2l4,20.9C43.9,42.9,43,44.2,41.6,44.2z"/>
	<path fill="#CDD6E0" d="M41.6,44.2H31.3L23,22.3l-0.6-1.6h17.2l0.3,1.6l3.7,19.3C43.9,42.9,42.9,44.2,41.6,44.2z"/>
	<path fill="#CDD6E0" d="M41.3,44.2H28.8c-1.2,0-2.2-1-2.2-2.2v-0.2c0-1.2,1-2.2,2.2-2.2h12.6c0.3,0,0.6,0.3,0.6,0.6v3.4
		C41.9,43.9,41.7,44.2,41.3,44.2z"/>
	<path fill="#FF7058" d="M45.4,8.9H1.9L0,3.8h45.4C46.9,3.8,48,5,48,6.4l0,0C48,7.8,46.9,8.9,45.4,8.9z"/>
	<path fill="#F2F2F2" d="M41.4,20.7H11.7c-0.7,0-1.3-0.3-1.7-0.9L3.3,8.9h42.1l-2,10C43.3,20,42.4,20.7,41.4,20.7z"/>
	<polygon fill="#BCCDDD" points="39.9,22.3 23,22.3 22.4,20.7 39.6,20.7 	"/>
	<polygon fill="#E1E8EF" points="45.4,8.9 45.1,10.5 4.3,10.5 3.3,8.9 	"/>
</g>
</svg>
