<?xml version="1.0" encoding="utf-8"?>
<!-- Generator: Adobe Illustrator 18.0.0, SVG Export Plug-In . SVG Version: 6.00 Build 0)  -->
<!DOCTYPE svg PUBLIC "-//W3C//DTD SVG 1.1//EN" "http://www.w3.org/Graphics/SVG/1.1/DTD/svg11.dtd">
<svg version="1.1" id="Layer_1" xmlns="http://www.w3.org/2000/svg" xmlns:xlink="http://www.w3.org/1999/xlink" x="0px" y="0px"
	 viewBox="0 0 48 48" enable-background="new 0 0 48 48" xml:space="preserve">
<g>
	<g>
		<g>
			<g>
				<path fill="#FFD15C" d="M30.7,19.2c0.5,0.6,1.3,2.5,1.5,3.5c-0.2,0.6-0.4,0.6-0.7,1.2c-0.3,0.7-1.2,1.6-2.3,1.1
					c0,0-0.3-0.7-0.8-1.7c-0.5-0.9-0.5-4.7-0.5-4.7s-0.2-4.3-0.3-5c-0.2-0.7,0.3-1.2,0.3-1.2l0.7-1.1l-0.3-0.2l-0.2,0.1
					c0,0,0.2-0.4,0.5-0.5c0.2-0.1,0.3,0.1,0.3,0.1s0.3-0.4,0.6-0.2c0,0,0.2-0.4,0.7,0c0,0,0.4-0.4,0.8,0c0.4,0.4,0.4,0.8,0.4,0.8
					s0.2,0.3,0,0.7c-0.2,0.4-1.2,1.3-1.2,1.3s-0.5,0.2-0.4,0.8C29.7,14.9,30,18.4,30.7,19.2z"/>
			</g>
		</g>
	</g>
	<g>
		<g>
			<g>
				<path fill="#F5B54C" d="M29.6,14.3c0,0,0.4,0.5,0.7,1.2c0.2,0.4,0.3,0.8,0.5,1.2c0.2,0.4,0.3,0.9,0.4,1.3
					c0.1,0.2,0.1,0.4,0.2,0.5c0,0.1,0.3,0.5,0.4,0.7c0.2,0.5,0.3,1,0.3,1.5c0,0.4-0.1,0.8-0.1,1.1c-0.1,0.3-0.2,0.4-0.2,0.4
					s-0.1-0.1-0.2-0.3c-0.1-0.2-0.3-0.4-0.5-0.7c-0.2-0.3-0.5-0.6-0.8-0.9c-0.1-0.2-0.2-0.2-0.5-0.5c-0.2-0.4-0.3-0.6-0.4-0.9
					c-0.3-1.1-0.3-2.2-0.1-3c0.1-0.4,0.2-0.7,0.3-1C29.6,14.4,29.6,14.3,29.6,14.3z"/>
			</g>
		</g>
	</g>
	<g>
		<g>
			<g>
				<path fill="#F5B54C" d="M32.1,12.6c0.3,0.1,0.6,0.3,0.8,0.5c0.2,0.2,0.5,0.5,0.6,0.8c0.2,0.3,0.3,0.7,0.3,1c0.1,0.4,0,0.7,0,1.1
					l-0.6,3.2l0-0.1c0,0.9-0.1,1.7-0.3,2.6c0,0.2-0.1,0.4-0.2,0.7c0,0.1-0.1,0.3-0.1,0.4c0,0.1-0.1,0.2-0.2,0.3
					c-0.1,0.2-0.3,0.4-0.5,0.5c-0.2,0.1-0.4,0.2-0.5,0.4c0-0.2,0.1-0.5,0.1-0.7c0.1-0.2,0.1-0.4,0.1-0.5l0-0.3c0-0.1,0-0.2,0-0.3
					l-0.1-0.6c-0.1-0.8-0.2-1.6-0.3-2.4l0,0l0-0.1c0-0.3,0.1-0.6,0.1-0.9c0.1-0.3,0.1-0.6,0.2-0.9c0.1-0.6,0.3-1.2,0.6-1.7
					c0.2-0.4,0.3-0.8,0.3-1.3C32.5,13.7,32.3,13.2,32.1,12.6z"/>
			</g>
		</g>
	</g>
	<g>
		<g>
			<g>
				<path fill="#F5B54C" d="M32.1,12.6c0.4,0.4,0.8,0.9,1,1.4c0.2,0.6,0.2,1.2,0.1,1.8c-0.3,1.1-0.5,2.2-0.6,3.4l0,0
					c0,0.7,0.1,1.3,0.1,2c0,0.3,0,0.7,0,1c0,0.2,0,0.3-0.1,0.5c0,0.2-0.1,0.4-0.2,0.5c-0.1,0.2-0.2,0.4-0.3,0.5
					c-0.1,0.1-0.2,0.2-0.2,0.4c-0.1,0.1-0.2,0.3-0.3,0.5c-0.1,0.2-0.2,0.3-0.3,0.4c-0.3,0.3-0.6,0.5-1,0.6c-0.4,0.1-0.9,0.1-1.3-0.1
					l-0.1-0.1l-0.1-0.2l-0.7-1.4c-0.1-0.2-0.3-0.5-0.3-0.9c-0.1-0.3-0.1-0.6-0.2-0.8c-0.1-1.1-0.2-2.2-0.2-3.3c0-0.2,0-0.5,0-0.8
					l0-0.8l-0.1-1.6c0-0.5-0.1-1.1-0.1-1.6c0-0.2,0-0.2-0.1-0.4c0-0.2,0-0.4,0-0.6c0.1-0.4,0.2-0.7,0.5-1l-0.1,0.1l0.7-1.1l0.2,0.6
					l-0.3-0.2l0.4,0l-0.2,0.1l-1.3,0.5l0.7-1.2c0.1-0.2,0.2-0.4,0.4-0.5c0,0,0.1-0.1,0.2-0.1l0.1,0l0.1,0c0,0,0.1,0,0.2,0
					c0.1,0,0.4,0,0.5,0.1c0.1,0.1,0.1,0.1,0.1,0.2c0,0.1,0,0.1,0.1,0.2l-0.8-0.2c0-0.1,0.1-0.1,0.1-0.1c0,0,0.1-0.1,0.1-0.1
					c0.1-0.1,0.2-0.1,0.3-0.2c0.2-0.1,0.5-0.1,0.7,0L29,10.3c0-0.1,0.1-0.1,0.1-0.1c0,0,0.1-0.1,0.1-0.1c0.1,0,0.1-0.1,0.2-0.1
					c0.1-0.1,0.3-0.1,0.4-0.1c0.3,0,0.4,0.1,0.6,0.2l-0.5,0c0.1-0.1,0.1-0.1,0.2-0.1c0.1,0,0.1-0.1,0.2-0.1c0.1,0,0.2-0.1,0.4-0.1
					c0.3,0,0.6,0.2,0.7,0.3c0,0,0.1,0.1,0.2,0.2c0.1,0.1,0.1,0.2,0.1,0.2c0,0.1,0.1,0.2,0.1,0.3c0,0.1,0.1,0.2,0.1,0.3l0-0.1
					c0.1,0.1,0.1,0.2,0.1,0.2c0,0.1,0,0.2,0,0.2c0,0.2,0,0.3-0.1,0.5c0,0.1-0.1,0.1-0.1,0.2c0,0-0.1,0.1-0.1,0.2
					c-0.1,0.1-0.2,0.2-0.2,0.3c-0.3,0.3-0.6,0.6-1,0.9l0,0l0,0c-0.1,0-0.2,0.1-0.2,0.2c-0.1,0.1-0.1,0.2-0.1,0.4
					c0,0.4,0,0.8,0.1,1.1c0.1,0.8,0.2,1.5,0.3,2.3c0.1,0.4,0.2,0.7,0.3,1.1c0.2,0.3,0.4,0.6,0.6,1c0.2,0.4,0.3,0.7,0.4,1.1
					c0.1,0.4,0.2,0.8,0.1,1.2c0-0.4-0.1-0.8-0.2-1.1c-0.1-0.4-0.3-0.7-0.5-1c-0.2-0.4-0.4-0.6-0.7-1c-0.2-0.4-0.3-0.7-0.4-1.1
					c-0.2-0.8-0.4-1.5-0.5-2.3c-0.1-0.4-0.1-0.8-0.1-1.2c0-0.2,0-0.5,0.1-0.7c0.1-0.2,0.3-0.4,0.5-0.6l-0.1,0.1
					c0.3-0.3,0.6-0.6,0.9-0.9c0.1-0.1,0.1-0.2,0.2-0.2c0,0,0-0.1,0.1-0.1c0,0,0-0.1,0-0.1c0-0.1,0-0.1,0-0.2c0,0,0-0.1,0-0.1
					c0,0,0-0.1,0-0.1l0,0L31,11.4c0,0,0-0.1,0-0.1c0-0.1,0-0.1-0.1-0.2c0,0-0.1-0.1-0.1-0.1c0-0.1-0.1-0.1-0.1-0.1
					c-0.1-0.1-0.1-0.1-0.1-0.1c0,0,0,0-0.1,0l0,0c0,0,0,0,0,0l-0.5,0c-0.1-0.1-0.2-0.1-0.2-0.1c0,0,0,0,0,0l0,0l0,0c0,0,0,0,0,0
					l-0.6,0.2c0,0,0,0,0,0c0,0,0,0,0,0l0,0c0,0,0,0,0,0l-0.8-0.2c0,0,0,0,0,0.1c0,0,0,0,0.1,0.1c0.1,0.1,0.2,0.1,0.2,0.1
					c0,0,0.1,0,0,0c0,0-0.1,0,0,0l0,0c0,0,0,0,0,0c-0.1,0.1-0.2,0.2-0.3,0.3l-0.6-0.6l0.2-0.1l0.2-0.1l0.2,0.1l0.3,0.2l0.4,0.2
					l-0.2,0.4l-0.7,1.1l0,0l0,0.1c-0.1,0.1-0.2,0.3-0.2,0.5c0,0.1,0,0.1,0,0.2c0,0.1,0.1,0.3,0.1,0.4c0.1,0.6,0.1,1.1,0.2,1.6
					l0.1,1.6l0,0.8c0,0.3,0,0.5,0,0.8c0,1.1,0,2.1,0.2,3.2c0,0.3,0.1,0.5,0.1,0.8c0,0.2,0.1,0.4,0.2,0.7l0.7,1.5l-0.2-0.2
					c0.4,0.2,0.9,0.1,1.3-0.3c0.1-0.1,0.2-0.2,0.3-0.3c0.1-0.1,0.1-0.2,0.2-0.4c0.1-0.2,0.2-0.3,0.3-0.4c0.1-0.1,0.2-0.2,0.2-0.3
					c0.1-0.1,0.1-0.2,0.1-0.4c0-0.1,0.1-0.3,0.1-0.4c0-0.3,0.1-0.6,0.1-0.9c0-0.6,0-1.3,0-1.9v0l0,0c0.2-1.2,0.5-2.3,0.8-3.4
					c0.2-0.5,0.2-1.1,0.1-1.6C32.8,13.5,32.5,13,32.1,12.6z"/>
			</g>
		</g>
	</g>
	<g>
		<g>
			<g>
				<g>
					<path fill="#FFD15C" d="M35.5,12c-0.1,0.5-0.3,0.8-0.3,0.8s0,1.4-0.1,2.1c-0.1,0.7-0.4,3.1-0.4,3.1s-0.6,3.1-0.7,3.7
						c-0.1,0.6-0.6,4.8-0.2,5.8c0.4,1,0,1.7,0,1.7l-8-1.7c0,0,0.3-2.3,0.5-3.1c0.2-0.8-0.1-1.7-0.1-1.7s-0.5-2.7-0.2-4
						c0,0-0.9-1.9,0.6-4.5c0.7-1.1,1.2-1.9,1.6-2.4c0,0,0,0,0,0c0.5-0.6,1-1,1-1s0.2-0.5,0.1-0.9c-0.1-0.4-1.1-1.2-1.1-1.2
						s-1.6,0.6-1.8,0.1C26.1,8.4,26,8.2,25.8,8c-0.2-0.2,0-0.4,0.1-0.4c-0.1,0.1-0.3,0.1-0.2-0.1c0-0.3-0.1-0.5-0.1-0.5
						s-0.1,0-0.5-0.1c-0.5-0.1-0.2-0.4-0.2-0.4s0.6-1,0.7-1.3c0.1-0.3,0-0.3-0.1-0.9c0-0.6,0.3-1.8,0.5-2.1c0.2-0.3,0.9-0.8,0.9-0.8
						C27.6,0.8,31.2,2,31.2,2s1.4,1.9,1.2,3.6c-0.2,1.6,0.7,3.5,0.7,3.5c0,0,0,0,0,0C34.7,8.9,36,10.5,35.5,12z"/>
				</g>
			</g>
		</g>
		<g>
			<g>
				<path fill="#425A6B" d="M22.4,33.5c0,0,8.9-1.4,12.1-2.8L22.4,33.5z"/>
			</g>
		</g>
		<g>
			<g>
				<path fill="#425A6B" d="M22.4,33.5c0,0,8.9-1.4,12.1-2.8L22.4,33.5z"/>
			</g>
		</g>
		<g>
			<g>
				<g>
					<path fill="#F5B54C" d="M15.6,35.2c0,0,0,1.6-0.3,2.9c-0.3,1.4-0.5,5.3-0.3,6s0.6,1.9,0.2,2.4c-0.4,0.5-1.2,0.3-1.6,0.3
						c-0.4,0-2.8,0-3.5,0.1C9.5,46.9,8.2,47,8,46.9c0,0-0.7,0.2-0.9,0c0,0-0.4,0.2-0.5-0.1c0,0-0.4,0.2-0.5-0.2c0,0-0.4,0-0.1-0.6
						l0.6,0c0,0,0.4-0.2,0.6-0.2c0.2,0,3.4-1.7,3.6-1.9c0.2-0.1,0.9-1,0.9-1.8c0-0.9-0.3-8.6-0.3-8.6L15.6,35.2z"/>
				</g>
			</g>
		</g>
		<g>
			<g>
				<g>
					<path fill="#FFD15C" d="M15.5,36c0,0,0,1.5-0.4,2.9c-0.4,1.4-0.7,5.3-0.5,6c0.2,0.7,0.5,1.9,0.1,2.3c-0.4,0.5-1.2,0.3-1.6,0.3
						c-0.4,0-2.8,0-3.5,0.1c-0.7,0.1-1.9,0.2-2.2,0.1c0,0-0.7,0.2-0.9,0c0,0-0.4,0.2-0.5-0.1c0,0-0.4,0.2-0.5-0.2c0,0-0.4,0-0.1-0.6
						l0.6,0c0,0,0.4-0.2,0.6-0.2c0.2,0,3.4-1.7,3.7-1.9c0.2-0.1,1-1,1-1.8c0-0.9,0-8.6,0-8.6L15.5,36z"/>
				</g>
			</g>
		</g>
		<g>
			<g>
				<g>
					<path fill="#344A5E" d="M10.2,31.7c0.3-0.9,0.7-2,1-2.8c0.6-1.6,1.5-2.5,2.5-2.7c1-0.2,5.3,0.2,7.4,0.5c2,0.3,4.8,1.1,4.8,1.1
						l0.3-0.5l2.5,3.6L10.2,31.7z"/>
				</g>
			</g>
		</g>
		<g>
			<g>
				<g>
					<path fill="#FFD15C" d="M33.1,9.1C33.1,9.1,33.1,9.1,33.1,9.1c0,0-1-1.9-0.8-3.5C32.6,3.9,31.2,2,31.2,2s-3.6-1.2-4.4-0.9
						c0,0-0.7,0.4-0.9,0.8c-0.2,0.3-0.5,1.6-0.5,2.1c0,0.6,0.2,0.6,0.1,0.9c-0.1,0.3-0.7,1.3-0.7,1.3S24.5,6.7,25,6.7
						c0.5,0.1,0.5,0.1,0.5,0.1s0.1,0.3,0.1,0.5c0,0.3,0.1,0.2,0.2,0.1c0,0-0.2,0.2-0.1,0.4c0.2,0.2,0.3,0.5,0.5,0.9
						c0.3,0.5,1.8-0.1,1.8-0.1s1,0.8,1.1,1.2c0.1,0.4-0.1,0.9-0.1,0.9s-1.4,1-1.6,2.3l2.3,3.8l4.8,1.2c0,0,0.3-2.4,0.4-3.1
						c0.1-0.7,0.1-2.1,0.1-2.1s0.2-0.3,0.3-0.8C36,10.5,34.7,8.9,33.1,9.1z"/>
				</g>
			</g>
		</g>
		<g>
			<g>
				<g>
					<path fill="#425A6B" d="M27.2,3.4C27.2,3.4,27.2,3.4,27.2,3.4c0,0-0.1,0.1,0,0.2c0,0,0,0,0,0c0,0,0,0,0.1,0
						c0.3,0.1,0.5,0.4,0.6,0.7C28,4.7,28.2,5,28.6,5c0.3,0,0.6-0.2,0.7-0.5c0-0.1,0.1-0.2,0.1-0.3c0.1-0.3,0.5-0.5,0.9-0.4
						c0.4,0.1,0.6,0.4,0.7,0.8c0.1,0.4,0.1,0.7,0.1,1.1c0,0.1,0,0.2,0,0.3c0.1,0.3,0.3,0.4,0.6,0.5c0.3,0.1,0.7,0.3,0.8,0
						c0.9-1.4,0.3-3.2,0.3-3.2c0-0.2,0.5-0.3,0.5-0.3l0-0.6c0,0,0,0-0.1,0c-0.3-0.1-0.7-0.3-0.7-0.3c-0.5-1.4-2.5-2-2.5-2
						c-2.7-0.5-4,1.4-4.2,1.8c0,0,0,0,0,0.1c0,0,0,0,0,0l0,0C25.9,1.9,28,1.9,27.2,3.4z"/>
				</g>
			</g>
		</g>
		<g>
			<g>
				<path fill="#FFD15C" d="M27.3,1.2"/>
			</g>
		</g>
		<g>
			<g>
				<g>
					<path fill="#F5B54C" d="M35.2,12.1c0,0,0-0.1,0-0.1c0-0.1,0-0.1,0-0.2c0-0.1-0.1-0.3-0.1-0.4l0-0.1c0,0,0-0.1,0-0.1
						c0-0.1-0.1-0.1-0.1-0.2c0-0.1-0.1-0.1-0.1-0.2c0-0.1-0.1-0.1-0.1-0.2c-0.1-0.1-0.2-0.2-0.3-0.3c-0.1-0.1-0.2-0.2-0.3-0.3
						c0.1,0.1,0.2,0.2,0.3,0.3c0.1,0.1,0.2,0.2,0.2,0.4c0,0.1,0.1,0.1,0.1,0.2c0,0.1,0.1,0.1,0.1,0.2c0,0.1,0,0.1,0.1,0.2
						c0,0,0,0.1,0,0.1l0,0.1c0,0.1,0.1,0.3,0.1,0.4l0,0.2c0,0,0,0.1,0,0.1l0,0.1c0,0.1,0,0.1,0,0.2l0,0.2c0,0.1,0,0.1,0,0.2L34.9,13
						l-0.1,0.4c0,0.1-0.1,0.3-0.1,0.4c-0.1,0.3-0.2,0.6-0.2,0.8c-0.1,0.3-0.1,0.6-0.2,0.9c0,0.1-0.1,0.3-0.1,0.4
						c0,0.1,0,0.3-0.1,0.4l0,0l0,0c0,0.6,0,1.3,0,1.9c0,0.3,0,0.6-0.1,1c0,0.1,0,0.2,0,0.2c0,0.1,0,0.1,0,0.2l0,0.1l0,0.1
						c0,0.1,0,0.1-0.1,0.2c-0.1,0.1-0.1,0.2-0.2,0.3c-0.1,0.1-0.2,0.3-0.3,0.4l-0.1,0.1l-0.1,0.1c0,0.1-0.1,0.1-0.1,0.2
						c-0.1,0.1-0.2,0.2-0.3,0.3c-0.1,0.1-0.2,0.2-0.3,0.3c-0.1,0.1-0.2,0.1-0.4,0.2c-0.1,0-0.2,0-0.4,0c-0.1,0-0.2,0-0.2-0.1
						c-0.1-0.2-0.2-0.4-0.3-0.6c-0.1-0.2-0.2-0.5-0.4-0.7l-0.1-0.2l0,0l0,0l0,0l0-0.1c0-0.1,0-0.1-0.1-0.2c0-0.1,0-0.1,0-0.2
						c0-0.1-0.1-0.2-0.1-0.4c0-0.1,0-0.3-0.1-0.4c0-0.1,0-0.3,0-0.4c0-0.1,0-0.3,0-0.4c0-0.3,0-0.5-0.1-0.8c0-0.5,0-1.1,0-1.6l0-0.1
						l0,0l0-0.1l0-0.2l0-0.4l0-0.8c0-0.5-0.1-1.1-0.1-1.6c0-0.3,0-0.5-0.1-0.8c0-0.3,0-0.5-0.1-0.8c0-0.1,0-0.1,0-0.2l0-0.2
						c0,0,0,0,0,0l0,0c0,0,0,0,0-0.1c0,0,0-0.1,0-0.1c0-0.1,0-0.2,0.1-0.3c0,0,0-0.1,0.1-0.1c0,0,0,0,0-0.1l0,0c0,0,0,0,0,0l0.1-0.1
						c0.2-0.4,0.4-0.8,0.7-1.1L31,8.5l-0.3-0.2l-0.3-0.2L31,8.3c0,0,0,0,0,0l0,0c0,0,0,0,0,0c0,0,0,0,0,0c0,0,0,0,0,0c0,0,0,0,0,0
						c0,0,0,0,0,0c0,0,0,0,0,0c0,0,0,0,0,0c0,0,0,0,0,0c0,0,0,0,0,0L31.7,8l0,0l0,0c0,0,0,0,0,0c0,0,0,0,0,0c0,0,0,0,0,0
						c0,0,0,0,0,0c0,0,0,0,0,0c0,0,0,0,0,0c0,0,0,0,0,0c0,0,0,0,0,0c0,0,0,0,0,0c0,0,0,0,0.1,0l0.1,0l0.4,0c0,0,0,0,0,0c0,0,0,0,0,0
						c0,0,0,0,0.1,0c0,0,0.1,0,0.1,0c0,0,0,0,0,0c0,0,0,0,0,0c0,0,0,0,0,0c0,0,0,0,0,0c0,0,0,0,0,0c0,0,0,0,0,0
						c-0.1-0.2-0.1-0.5-0.2-0.7c0,0-0.1,0-0.1,0c-0.1,0-0.1,0-0.2,0.1c0,0,0,0-0.1,0c0,0,0,0,0,0c0,0,0,0-0.1,0c0,0,0,0-0.1,0
						l-0.1,0c0,0-0.1,0-0.1,0c0,0-0.1,0-0.1,0c0,0-0.1,0-0.1,0c0,0-0.1,0-0.1,0c0,0-0.1,0-0.1,0c0,0-0.1,0-0.1,0.1c0,0,0,0-0.1,0
						c0,0-0.1,0-0.1,0c0,0-0.1,0-0.1,0c-0.1,0-0.1,0-0.2,0c0,0,0,0-0.1,0c0,0,0,0-0.1,0c0,0,0,0,0,0c0,0,0,0,0,0c-0.1,0-0.2,0-0.2,0
						c0,0-0.1,0-0.1,0l0,0l0,0l0,0l0,0l0,0l0,0l0,0l-0.1,0c-0.1,0-0.1,0.1-0.2,0.1c0,0-0.1,0.1-0.1,0.1c0,0-0.1,0.1-0.1,0.1
						c0,0-0.1,0.1-0.1,0.1l0,0.1l0,0.1l-0.6,1l0.8-0.3c-0.1,0.2-0.2,0.4-0.3,0.6c0,0,0,0,0,0c0,0,0,0,0,0.1c0,0-0.1,0.1-0.1,0.1
						c0,0.1-0.1,0.1-0.1,0.2c0,0,0,0,0,0.1c0.1,0.4-0.1,0.9-0.1,0.9s0,0-0.1,0.1c0,0,0,0,0,0l0,0.1l0,0.1c0,0,0,0.1,0,0.2
						c0,0.3,0.1,0.5,0.1,0.8c0,0.3,0,0.5,0.1,0.8l0,0.8l0,0.8l0,0.8l0,0.4l0,0.2l0,0l0,0v0l0,0.1l0,0.1c0,0.5,0,1.1,0.1,1.6
						c0,0.3,0,0.5,0.1,0.8c0,0.1,0,0.3,0,0.4c0,0.1,0,0.3,0,0.4l0,0.2l0,0.2c0,0.1,0.1,0.3,0.1,0.4c0,0.1,0,0.2,0.1,0.2
						c0,0.1,0.1,0.2,0.1,0.2l0,0.1l0,0l0,0l0,0l0,0l0.1,0.2c0.1,0.2,0.2,0.5,0.4,0.7c0.1,0.2,0.2,0.5,0.3,0.7l0.1,0.1l0.1,0
						c0.1,0,0.2,0.1,0.3,0.1c0.1,0,0.2,0,0.3,0.1c0.2,0,0.4,0,0.6-0.1c0.2-0.1,0.4-0.2,0.5-0.3c0.2-0.1,0.3-0.2,0.4-0.4
						c0.1-0.1,0.2-0.3,0.3-0.4c0-0.1,0.1-0.2,0.1-0.2l0.1-0.2c0.1-0.1,0.1-0.2,0.2-0.4c0-0.1,0.1-0.1,0.1-0.2
						c0.1-0.7,0.3-1.6,0.4-2.2c0,0,0-0.1,0-0.1c0-0.7,0-1.3-0.1-2c0-0.1,0-0.3,0-0.4c0-0.1,0-0.3,0.1-0.4c0-0.3,0.1-0.6,0.1-0.8
						c0.1-0.3,0.1-0.6,0.2-0.8c0-0.1,0.1-0.3,0.1-0.4l0.1-0.4l0-0.2c0,0,0,0,0,0s0,0,0,0c0-0.1,0-0.1,0-0.2l0-0.2c0-0.1,0-0.1,0-0.2
						L35.2,12.1z M30.6,8.3C30.6,8.3,30.6,8.3,30.6,8.3L30.6,8.3C30.6,8.3,30.6,8.3,30.6,8.3z"/>
				</g>
			</g>
			<g>
				<g>
					<rect x="31.6" y="8.1" fill="#F5B54C" width="0" height="0"/>
				</g>
			</g>
			<g>
				<g>
					<path fill="#F5B54C" d="M32.2,11L32.2,11C32.2,11,32.2,11,32.2,11z"/>
				</g>
			</g>
			<g>
				<g>
					<path fill="#F5B54C" d="M33.1,9.1C33.1,9.1,33.1,9.1,33.1,9.1c0,0,0,0.1,0,0.1c0,0,0,0.1,0,0.1c0,0,0,0.1,0,0.1l0,0
						c0,0-0.1,0.1-0.1,0.1c0,0-0.1,0.1-0.1,0.1c-0.1,0.2-0.3,0.3-0.4,0.5l-0.2,0.2l-0.2,0.2c0,0,0,0,0,0c0,0,0,0,0,0
						c0,0-0.1,0-0.1,0.1c0,0-0.1,0.1-0.1,0.1c-0.1,0.1-0.1,0.2-0.2,0.3c0,0.1-0.1,0.2-0.1,0.4c0,0.1,0,0.1,0,0.2l0,0.2
						c0,0.4,0.1,0.8,0.1,1.2c0.1,0.8,0.3,1.5,0.5,2.3c0.1,0.2,0.1,0.4,0.2,0.6c0.1,0.2,0.1,0.4,0.2,0.6c0,0,0.1,0.1,0.1,0.1l0,0.1
						l0,0.1l0.1,0.1l0.1,0.1c0.1,0.2,0.2,0.3,0.3,0.5c0.1,0.2,0.2,0.3,0.3,0.5c0.1,0.2,0.1,0.4,0.2,0.5c0.1,0.2,0.1,0.4,0.2,0.6
						c0,0.2,0.1,0.4,0,0.6c0-0.2,0-0.4,0-0.6c0-0.2-0.1-0.4-0.1-0.6c0-0.2-0.1-0.4-0.2-0.6c-0.1-0.2-0.1-0.4-0.2-0.5
						c-0.1-0.2-0.2-0.4-0.3-0.5l-0.1-0.1l-0.1-0.1l0,0c0,0,0,0,0,0l0-0.1c0,0,0-0.1-0.1-0.1c-0.1-0.2-0.1-0.3-0.2-0.5
						c-0.1-0.2-0.1-0.4-0.1-0.5c-0.1-0.4-0.1-0.7-0.2-1.1c-0.1-0.4-0.1-0.8-0.1-1.1c0-0.4-0.1-0.8-0.1-1.1l0-0.1c0,0,0-0.1,0-0.1
						c0-0.1,0-0.1,0.1-0.2c0-0.1,0.1-0.1,0.1-0.2c0,0,0,0,0.1-0.1c0,0,0,0,0,0c0,0,0,0,0,0c0,0,0,0,0,0l0.1,0l0.2-0.2l0.2-0.2
						c0.2-0.2,0.3-0.3,0.5-0.5c0,0,0.1-0.1,0.1-0.1c0,0,0.1-0.1,0.1-0.1l0.1-0.1c0,0,0,0,0-0.1l0,0l0,0l0,0l0,0c0,0,0-0.1,0-0.1
						c0-0.1,0.1-0.2,0.1-0.3C33.5,9.1,33.3,9.1,33.1,9.1z"/>
				</g>
			</g>
		</g>
		<g>
			<g>
				<g>
					<path fill="#F5B54C" d="M28.7,9.3c-0.3-0.3-0.6-0.5-0.6-0.5c0.8-0.5,1.4-1.2,1.9-2C29.7,7.8,29.3,8.6,28.7,9.3z"/>
				</g>
			</g>
		</g>
		<g>
			<g>
				<g>
					<path fill="#F3F3F3" d="M31.7,16.5c-1.2-0.7-2.5-2.3-2.4-3.3c0.1-1.3,2-3,2-3c0,0-1.6,0.9-2.3,1.4c0,0,0,0,0,0
						c-0.7,0.5-1.3,1.1-1.7,1.7c-0.2,0.3-0.4,0.6-0.7,1c-1.6,2.6-0.6,4.5-0.6,4.5c0,0.2-0.1,0.5-0.1,0.8c1.2,0.1,3.4,0.5,4.8,0.9
						c0.3,0.1,0.7,0.2,1,0.2V16.5z"/>
				</g>
			</g>
		</g>
		<g>
			<g>
				<g>
					<path fill="#F5B54C" d="M34.1,9.9c0.3,0.1,0.6,0.3,0.8,0.5c0.2,0.2,0.5,0.5,0.6,0.8c0.2,0.3,0.3,0.6,0.3,1c0.1,0.4,0,0.7,0,1.1
						l-0.6,3.2l0-0.1c0,0.9-0.1,1.7-0.3,2.6c0,0.2-0.1,0.4-0.2,0.7c0,0.1-0.1,0.3-0.1,0.4c0,0.1-0.1,0.2-0.2,0.3
						c-0.1,0.2-0.3,0.4-0.5,0.5c-0.2,0.1-0.4,0.2-0.5,0.4c0-0.2,0.1-0.5,0.2-0.7c0.1-0.2,0.1-0.4,0.1-0.5l0-0.3c0-0.1,0-0.2,0-0.3
						l-0.1-0.6c-0.1-0.8-0.2-1.6-0.3-2.4l0,0l0-0.1c0-0.3,0.1-0.6,0.1-0.9c0.1-0.3,0.1-0.6,0.2-0.9c0.1-0.6,0.3-1.2,0.6-1.7
						c0.2-0.4,0.3-0.8,0.3-1.3C34.5,11,34.3,10.5,34.1,9.9z"/>
				</g>
			</g>
		</g>
		<g>
			<g>
				<g>
					<path fill="#425A6B" d="M33.7,27.2c0,0-1.3-1.3-4-1.3c-2.7-0.1-3.7,0.4-3.7,0.4s-0.2,0.9-0.1,1.5l0,0.3c0,0-2.8-0.8-4.8-1.1
						c-2-0.3-6.4-0.7-7.4-0.5c-1,0.2-1.9,1.2-2.5,2.7c-0.6,1.6-1.6,4.1-1.9,4.3c0,0,1.1,1.3,1.9,1.7s3.1,1.9,4.5,1.3
						c0,0,0.4-3.3,0.4-4.4l6.3,1.3c0,0,9.1-1.2,12.3-2.5C34.7,31,34.2,27.7,33.7,27.2z"/>
				</g>
			</g>
		</g>
		<g>
			<g>
				<g>
					<g>
						<path fill="#67C5B8" d="M17.5,39.3c0,2.7,0.9,5.2,2.4,7.2c0.5,0.7,1.3,1.2,2.2,1.2c5.2,0.3,10.5,0.3,15.9,0
							c0.9-0.1,1.7-0.5,2.2-1.2c1.5-2.1,2.5-4.7,2.5-7.5c0-2.5-0.7-4.9-2-6.8c-1-1.6-3.1-2.3-4.9-1.7c-4.6,1.4-10.6,2.6-14.7,3.2
							c-1.9,0.3-3.3,1.8-3.6,3.7C17.6,38,17.5,38.7,17.5,39.3z"/>
					</g>
				</g>
			</g>
		</g>
		<g>
			<g>
				<g>
					<path fill="#425A6B" d="M33.4,3c0.3,0.3,0.3,0.5,0.2,0.9c-0.1,0.4-0.3,0.7-0.4,1.1c-0.2,0.7-0.2,1.4-0.3,2.1
						c0,2-0.1,4.1,0.4,6.1c0.3,1.2,0.7,2.3,1,3.5c0.5,1.9,0.5,4,0.1,5.9c0.2-0.4,0.6-0.7,0.9-1c1-0.9,1.5-2.2,1.7-3.6
						c0.2-1.3,0-2.7,0.1-4.1c0-0.4,0-0.9-0.1-1.3c-0.1-0.4-0.3-0.8-0.5-1.2c-0.8-1.7-1.3-3.5-1.3-5.4c0-0.7,0-1.4-0.2-2.1
						c-0.2-0.7-0.8-1.5-1.5-1.5L33.4,3z"/>
				</g>
			</g>
		</g>
		<g>
			<g>
				<g>
					<g>
						<g>
							<g>
								<path fill="#56BFEB" d="M35.6,7.8c0.3,0,0.5,0.5,0.5,1c0,0.6-0.2,1.1-0.5,1.1L33.2,10c-0.3,0-0.5-0.5-0.5-1
									c0-0.6,0.2-1.1,0.5-1.1L35.6,7.8z"/>
							</g>
						</g>
					</g>
				</g>
				<g>
					<g>
						<g>
							
								<ellipse transform="matrix(-0.9993 3.868321e-002 -3.868321e-002 -0.9993 66.7191 16.6481)" fill="#8AD6F7" cx="33.2" cy="9" rx="0.5" ry="1.1"/>
						</g>
					</g>
				</g>
				<g>
					<g>
						<g>
							<path fill="#8AD6F7" d="M32.7,9c0,0.3,0.1,0.5,0.1,0.7c0.1,0.2,0.2,0.4,0.4,0.4c0.2,0,0.3-0.2,0.4-0.4
								c0.1-0.2,0.1-0.4,0.1-0.7c0-0.3-0.1-0.5-0.1-0.7c-0.1-0.2-0.2-0.4-0.4-0.4c-0.2,0-0.3,0.2-0.4,0.4C32.7,8.5,32.7,8.7,32.7,9z
								"/>
						</g>
					</g>
				</g>
			</g>
			<g>
				<g>
					<g>
						<g>
							<path fill="#425A6B" d="M28.5,9.2c0,0.4,0.3,0.7,0.7,0.7l4.1-0.2c0.1,0,0.1-0.1,0.1-0.2c0-0.1,0.1-0.3,0.1-0.5
								c0-0.2,0-0.3-0.1-0.5c0-0.1-0.1-0.2-0.2-0.2l-4.1,0.2C28.8,8.4,28.5,8.8,28.5,9.2z"/>
						</g>
					</g>
				</g>
			</g>
			<g>
				<g>
					<g>
						<g>
							<g>
								<path fill="#56BFEB" d="M29.2,8.1c0.3,0,0.5,0.5,0.5,1c0,0.6-0.2,1.1-0.5,1.1l-2.4,0.1c-0.3,0-0.5-0.5-0.5-1
									c0-0.6,0.2-1.1,0.5-1.1L29.2,8.1z"/>
							</g>
						</g>
					</g>
				</g>
				<g>
					<g>
						<g>
							
								<ellipse transform="matrix(-0.9993 3.868321e-002 -3.868321e-002 -0.9993 53.9619 17.39)" fill="#8AD6F7" cx="26.8" cy="9.2" rx="0.5" ry="1.1"/>
						</g>
					</g>
				</g>
				<g>
					<g>
						<g>
							
								<ellipse transform="matrix(-0.9993 3.862794e-002 -3.862794e-002 -0.9993 53.7706 17.4025)" fill="#E8EAE8" cx="26.7" cy="9.2" rx="0.3" ry="0.6"/>
						</g>
					</g>
				</g>
			</g>
		</g>
		<g>
			<g>
				<path fill="#FFD15C" d="M32.7,16.5c0.5,0.6,1.2,0.8,1.4,1.8c0.2,1.5-0.3,2.3-0.6,3c-0.3,0.7-1.2,1.6-2.3,1.1
					c0,0-0.3-0.7-0.8-1.7c-0.5-0.9-0.5-4.7-0.5-4.7s-0.2-4.3-0.3-5c-0.2-0.7,0.3-1.2,0.3-1.2l0.7-1.1l-0.3-0.2l-0.2,0.1
					c0,0,0.2-0.4,0.5-0.5c0.2-0.1,0.3,0.1,0.3,0.1s0.3-0.4,0.6-0.2c0,0,0.2-0.4,0.7,0c0,0,0.4-0.4,0.8,0c0.4,0.4,0.4,0.8,0.4,0.8
					s0.2,0.3,0,0.7c-0.2,0.4-1.2,1.3-1.2,1.3s-0.5,0.2-0.4,0.8C31.6,12.2,32,15.7,32.7,16.5z"/>
			</g>
		</g>
		<g>
			<g>
				<path fill="#F5B54C" d="M31.6,11.6c0,0,0.4,0.5,0.7,1.2c0.2,0.4,0.3,0.8,0.5,1.2c0.2,0.4,0.3,0.9,0.4,1.3
					c0.1,0.2,0.1,0.4,0.2,0.5c0,0.1,0.3,0.5,0.4,0.7c0.2,0.5,0.3,1,0.3,1.5c0,0.4-0.1,0.8-0.1,1.1c-0.1,0.3-0.2,0.4-0.2,0.4
					s-0.1-0.1-0.2-0.3c-0.1-0.2-0.3-0.4-0.5-0.7c-0.2-0.3-0.5-0.6-0.8-0.9c-0.2-0.2-0.2-0.2-0.5-0.5c-0.2-0.4-0.3-0.6-0.4-0.9
					c-0.3-1.1-0.3-2.2-0.1-3c0.1-0.4,0.2-0.7,0.3-1C31.6,11.7,31.6,11.6,31.6,11.6z"/>
			</g>
		</g>
	</g>
</g>
</svg>
