<?xml version="1.0" encoding="utf-8"?>
<!-- Generator: Adobe Illustrator 19.0.1, SVG Export Plug-In . SVG Version: 6.00 Build 0)  -->
<svg version="1.1" id="Layer_1" xmlns="http://www.w3.org/2000/svg" xmlns:xlink="http://www.w3.org/1999/xlink" x="0px" y="0px"
	 viewBox="0 0 48 48" style="enable-background:new 0 0 48 48;" xml:space="preserve">
<style type="text/css">
	.st0{fill:#415A6B;}
	.st1{fill:#344A5E;}
	.st2{fill:#F7B64C;}
	.st3{fill:#FFD15C;}
	.st4{fill:#CED6E0;}
	.st5{fill:#ADB3BA;}
	.st6{fill:#F3F3F3;}
	.st7{fill:#F3705A;}
	.st8{fill:#66C6B9;}
	.st9{fill:#FFFFFF;}
</style>
<g>
	<g>
		<g>
			<polygon class="st0" points="24.5,48 23.7,43.6 14.7,46.6 15.2,48 			"/>
		</g>
		<g>
			<path class="st1" d="M26.3,30.1l0.9-0.8c0,0,3.2,2.8,2,3.8C28.1,34.2,26.2,31,26.3,30.1z"/>
		</g>
		<g>
			<path class="st2" d="M26.7,30.1c0,0,0.5-0.3,0.5-0.5s0.3-0.6,0.6-1.1c0.4-0.5,1-0.9,1.2-1.1s0.9-1.5,1.2-1.7c0.2-0.2,0.5,0,0.6,0
				c0.1,0.1,0,0.4-0.1,0.7c-0.1,0.3-1,1.4-1.1,1.6s0.1,0.3,0.4,0.4c0.3,0,1.6,0.1,2-0.2c0.4-0.2,0.5-0.2,0.8-0.2
				c0.2-0.1,1.4-0.8,1.7,0l-0.6,0.4c0,0-0.7,0.4-1.1,0.6c-0.4,0.1-1,0.4-1,0.4s0,0.3,0.1,0.5s-0.1,0.6-0.3,0.7c0,0,0,0.4-0.2,0.7
				s-0.2,0.3-0.3,0.5s-0.5,0.4-0.8,0.4s-1.2,0.4-1.7,0.5c-0.5,0.2-2.9,0.4-2.9,0.4S24.8,30.9,26.7,30.1z"/>
		</g>
		<g>
			<path class="st0" d="M27.2,29.3c0,0-1,0.8,0,2.6s2,1.3,2,1.3s-3.1,2.6-4.5,3.1s-2.2,0.5-2.2,0.5L21.8,32c0,0,1.9-0.8,2.5-0.9
				s0.6-0.6,1-0.7C25.8,30.3,27.2,29.3,27.2,29.3z"/>
		</g>
		<g>
			<path class="st1" d="M22.2,37.7l0.6,3c0,0,0.5,4.6,1.1,5.3c0.3,0.4,0.4,1.3,0.5,2h1.3c-0.1-0.5-0.3-1.1-0.6-1.7
				c-0.7-1.3-1.2-3.4-1.3-4.5s-0.7-11-1-12.4s-0.7-2-0.9-3.2c-0.2-1.2-0.3-3.7-0.8-4.2c-0.5-0.4-2.5-0.6-2.5-0.6s0.7,2.8,1.2,3.8
				C20.2,26.2,22.1,35.8,22.2,37.7z"/>
		</g>
		<g>
			<path class="st1" d="M20,26.1c0,0.1,0,0.1,0.1,0.2C20,26.3,20,26.2,20,26.1z"/>
		</g>
		<g>
			<path class="st3" d="M20.4,12.5l1.4,1.6c0,0,0.1,1.2,0.3,1.6c0.1,0.4-0.6,0.9-0.7,1.1s0.4,1.5,0.4,2s-0.6,0.5-0.9,0.5
				c0,0,0,1-0.5,0.8c0,0,0.4,0.4,0,0.7c-0.4,0.3,0.1,1.6-1.1,1.5S17,22.2,17,22.2l0.1,4.3l-4.4-1.3l-1.3-5.1c0,0,0.6-1,0.9-1.5
				c0.2-0.5,2.4-4.8,2.4-4.8L20.4,12.5z"/>
		</g>
		<path class="st2" d="M17,22.2c0,0,0.6,0.1,1.4,0.1c-0.2-0.1-2.4-1.7-3.2-3.5c0,0,0.4,2.8,1.8,4.6V22.2z"/>
		<g>
			<path class="st4" d="M23.4,44.6L23.4,44.6c-0.6,1.2-2.4,2.7-8.5,2.2l-4.2-21.6l3.3-1.3l1,0.4c0,0,0.6,0.5,0.8,0.9
				s0.6,0.5,0.6,0.5s0.6-1.4,0.6-2.1c0-0.6,2.2,0.6,2.2,0.6s0.2,0.4,0.5,1.1l0,0c0.1,0.1,0.2,0.4,0.3,0.9c0,0.1,0,0.1,0.1,0.2
				c0.1,0.2,0.1,0.4,0.2,0.7c0,0.1,0,0.1,0,0.2v0.1v0.1c0,0.1,0,0.2,0.1,0.3v0.1V28c0,0.1,0,0.1,0,0.2s0,0.2,0.1,0.3
				c0,0.1,0,0.1,0,0.2l0,0v0.1v0.1c0,0.1,0,0.1,0,0.2c0.1,0.3,0.1,0.6,0.2,0.9v0.1c0.1,0.5,0.2,1.1,0.3,1.7c0,0.1,0,0.1,0,0.2
				c0.1,0.3,0.1,0.6,0.2,0.8c0,0.1,0,0.2,0,0.3s0,0.2,0,0.3s0,0.2,0.1,0.3c0,0.1,0,0.1,0,0.2c0,0.1,0,0.2,0.1,0.3c0,0.1,0,0.1,0,0.2
				c0,0.1,0,0.2,0.1,0.3v0.1c0,0.1,0,0.2,0.1,0.3l0,0c0,0.2,0.1,0.4,0.1,0.5s0,0.2,0,0.2c0,0.1,0,0.2,0,0.3c0,0.2,0,0.3,0.1,0.5v0.1
				c0,0.1,0,0.2,0,0.3s0,0.2,0,0.3v0.1v0.1c0,0.1,0,0.2,0,0.3l0.6,3C22.8,40.7,23,42.9,23.4,44.6z"/>
		</g>
		<path class="st5" d="M19.5,46.7c0.2-0.5,0.5-1,0.5-1.4c0.1-0.7-0.3-2.8-0.9-4.3s-1.7-5.3-1.9-6.5c-0.2-1.2-0.2-2.7-0.6-4.2
			s-0.4-3.1-0.4-3.1c0,0.6,0.1,2.5,0.3,3.1c0.2,0.6,0.6,4.2,0.6,4.2c0.2,1.5,1.4,5.2,2,6.6s0.8,3.7,0.8,4.2
			C19.9,45.5,19.7,46.2,19.5,46.7L19.5,46.7z"/>
		<g>
			<path class="st1" d="M15.9,48c0.3-1.3,0.6-3.5,0.6-4.9c0-2.2-1.1-4.9-1.1-4.9l-6-16.6c0,0-3.5,1.3-5.2,2s-2.1,1.6-2.1,1.6L4.4,48
				H15.9z"/>
		</g>
		<g>
			<path class="st0" d="M10.9,20.3c0,0-1.8,1.1-2.1,1.7s-0.3,1.7-0.3,1.7l1.2,0.7l-0.9,0.8c0,0,7.7,14.3,7.9,17.8c0,0-1-5.9-1.7-9
				S10.9,21.4,10.9,20.3z"/>
		</g>
		<g>
			<path class="st3" d="M15,40h3c0,0,0.2,0.1,0.5,0.3c0.2,0.1,1,0.6,1.3,0.6c0.3,0.1,0.4,0.2,0.4,0.2l0.8,0.1c0,0,0.4,1.3-1.7,0.7
				l-1.2-0.5c0,0,0.9,0.5,1,0.7c0.2,0.2,1,0.6,1.2,0.7c0.1,0.1,0.6,0.3,0.7,0.4s1,0,1.1,0.5c0.1,0.4-0.5,0.4-0.5,0.4h-1.2
				c0,0-0.2,0.7-0.5,0.6c-0.4-0.1-0.4-0.1-0.4-0.1s0.1,0.3,0,0.5s-0.4,0.3-0.7,0.2s-0.3-0.1-0.3-0.1s0.1,0.6-0.7,0.4
				c-0.8-0.1-0.8-0.3-1.1-0.4c-0.2,0-0.4-0.1-0.6-0.3c-0.3-0.2-1.6-1-1.6-1S14.7,40.5,15,40z"/>
		</g>
		<g>
			<path class="st0" d="M22.8,40.7c-0.1-0.2-1.8-5.2-1.9-7.1c-0.2-2-1.4-6.7-2.5-8.8c-0.7-1.3-0.4-2-0.1-2.5c0.2,0,0.5,0.1,0.8,0.1
				l0.5,0.8h0.5c0,0,1.4,4.6,2,8C22.6,34.5,22.6,39.5,22.8,40.7z"/>
		</g>
		<g>
			<g>
				<path class="st5" d="M29.4,40.5c0,0-2.4-0.2-2.9-0.7s-0.5-3.2,0.1-3.5S29.4,40.5,29.4,40.5z"/>
			</g>
			<g>
				<path class="st2" d="M25,35.9c0,0-1.4-0.4-0.9-1.4l1.7,0.3c0,0,1.4,0.3,2.2,0.8c0.8,0.5,0,3.7,0,3.7s-0.2,0.2-0.9,0.2
					c-0.7,0-1.4-0.1-1.8-0.3c-0.5-0.2-1.6-0.5-2.1-1C22.7,37.8,21,36,21,36s0.2-0.5,1.2,0c0,0,0.8,0.3,0.9,0.4l1,0.2
					c0,0,1.2,0,1.4,0c0.2-0.1,0.4-0.3,0.4-0.3S25.3,36.1,25,35.9z"/>
			</g>
			<g>
				<path class="st1" d="M27.6,36.9c0,0,0.8,3.6-1,2.9l5.5,3.5l1.4-4.2L27.6,36.9z"/>
			</g>
			<g>
				<g>
					<g>
						<g>
							<path class="st3" d="M26,35.6c0,0-0.1-0.2-0.6-0.3s-1.4-0.5-1.7-0.6c-0.3-0.1-0.3-0.1-0.6-0.4c-0.3-0.3-1.6-1.8-1.6-1.8
								s0.3-0.3,0.5-0.1L21.5,32c0,0,0.7-0.5,1.4,0.2c0,0,0.9,0.3,1.2,0.8l0.9,0.4l1.7,0.2l0.7-0.3c0,0-0.7-0.3-0.7-0.9
								c0-0.6,0.7-0.5,1.1-0.3c0.4,0.3,0.3,0.4,0.8,0.5s0.9,0.3,1,0.5s0.1,0.2,0.1,0.2s-0.9,2.4-2,2.4C26.7,35.6,26,35.6,26,35.6z"
								/>
						</g>
						<g>
							<path class="st2" d="M22,32.3c0,0,0,0,0.1,0.1s0.2,0.2,0.3,0.3c0.1,0.1,0.3,0.3,0.4,0.4c0.2,0.2,0.3,0.3,0.5,0.5
								s0.4,0.3,0.5,0.5l0.1,0.1l0.1,0.1c0.1,0,0.2,0.1,0.3,0.1c0.2,0.1,0.3,0.2,0.4,0.2l0.1,0.1l0,0l0,0c0,0-0.1,0-0.1-0.1
								c0,0-0.1-0.1-0.2-0.1s-0.1-0.1-0.2-0.1s-0.2-0.1-0.3-0.1c0,0-0.1,0-0.1-0.1c-0.1,0-0.1-0.1-0.1-0.1c-0.2-0.1-0.4-0.3-0.6-0.5
								s-0.4-0.3-0.5-0.5c-0.1-0.1-0.1-0.2-0.2-0.2c-0.1-0.1-0.1-0.2-0.2-0.2c-0.1-0.1-0.2-0.2-0.3-0.3C22.1,32.4,22,32.3,22,32.3z"
								/>
						</g>
					</g>
					<g>
						<path class="st2" d="M22.6,32.3c0,0,0,0,0.1,0.1s0.2,0.2,0.3,0.4c0.1,0.1,0.2,0.3,0.4,0.5c0.2,0.1,0.4,0.3,0.6,0.5
							c0.1,0.1,0.2,0.2,0.3,0.2c0.1,0.1,0.2,0.1,0.3,0.2c0.2,0.1,0.4,0.2,0.6,0.2c0.2,0.1,0.3,0.1,0.4,0.1s0.2,0.1,0.2,0.1
							s-0.1,0-0.2,0s-0.3-0.1-0.4-0.1s-0.2-0.1-0.3-0.1c-0.1,0-0.2-0.1-0.3-0.1c-0.2-0.1-0.4-0.3-0.6-0.4c-0.1-0.1-0.2-0.2-0.3-0.2
							c-0.1-0.1-0.2-0.2-0.3-0.2c-0.1-0.1-0.2-0.2-0.2-0.3C23.1,33.1,23.1,33,23,33c-0.1-0.2-0.2-0.3-0.2-0.4
							C22.6,32.3,22.6,32.3,22.6,32.3z"/>
					</g>
				</g>
				<g>
					<path class="st3" d="M39.8,17L37,16.7c0,0-1.1,2.4-1.1,2.9c0,0,0.2,0.5,0,0.9s-1.1,1.2-1.2,1.6c-0.1,0.4,0.1,0.6,0.3,0.8
						c0.2,0.1,0.4,0.2,0.4,0.2s-0.6,0.9,0,1.1c0,0-0.4,0.1-0.2,0.6s-0.8,1.7,0.8,2s2.2,1.2,2.1,1.9s-1.9,3.1-1.9,3.1
						c-3.2,4.3,2.1,2,3.1,0.7l5.1-3.8L43.7,21L39.8,17z"/>
				</g>
				<g>
					<path class="st4" d="M37,31.7L35.6,33l1-3c0,0-1.8,1.5-2.6,2.9s-2.6,7.5-2.2,10.4c0.4,3,0.4,3,0.4,3L40,31.4l1-2.3L37,31.7z"/>
				</g>
				<g>
					<path class="st0" d="M36.4,29.7c0,0-1.9,2.7-2.2,4.1s-2.2,5.7-2.3,8c-0.1,2.4-0.1,2.4-0.1,2.4s-0.5-5.7,0.6-8.7
						c1.1-3,3.1-5.7,3.1-5.7L36.4,29.7z"/>
				</g>
				<g>
					<path class="st1" d="M44.2,48c-0.2-0.4-0.4-0.8-0.6-1c-0.5-0.6-0.1-2.1-0.2-3c-0.1-0.9,2-4.4,2.7-6c0.6-1.7,1.5-7,0.6-8.7
						S44,27.5,44,27.5s-4.5,3.6-6.8,5.5c-2.3,1.9-5.8,6.4-6.4,10c-0.4,2.1-0.4,4-0.4,5.1L44.2,48L44.2,48z"/>
				</g>
				<g>
					<path class="st0" d="M42.5,27.3l1.6,1.3c0,0-3,1.5-5.5,3.6s-5.4,5.4-6,6.6c0,0,2.1-4.5,5.6-7.6C41.6,28.1,42.5,27.3,42.5,27.3z
						"/>
				</g>
				<path class="st2" d="M36.4,26.9L36.4,26.9c0.8,0.3,1.3,0.7,1.5,1.1c2-1.1,2.7-3.3,2.8-3.3C38.5,27.3,36.4,26.9,36.4,26.9z"/>
				<g>
					<path class="st6" d="M42.9,26.7l0.7,1.2c-0.9,0.7-2,1.5-3.3,2.2l-0.5-0.3c0,0-0.5,1.1-2.8,2c1-1.7,4.2-4.4,5.6-5.1
						C42.7,26.6,42.8,26.6,42.9,26.7z"/>
				</g>
				<g>
					<g>
						<path class="st7" d="M36.9,16.7c0,0,0.4,1.2,1.3,3.1c0.9,1.9,1.5,3,2.7,2.8s1.3-0.9,1.8-0.2c0.5,0.7-0.2,3.7,0.7,5.2
							c0.9,1.5,3.6,4.1,3.2,7.3c-0.5,3.2-0.5,3.2-0.5,3.2s1.7-1.5,1.9-3.9s-0.4-3.6-0.6-7.1s-0.1-7.9-1.5-9.7S39.3,13.7,36.9,16.7z"
							/>
					</g>
					<g>
						<ellipse transform="matrix(0.3644 -0.9313 0.9313 0.3644 4.786 53.7974)" class="st3" cx="41.8" cy="23.4" rx="1.6" ry="1"/>
					</g>
				</g>
				<g>
					<path class="st0" d="M38,35.5c0,0,1.1-4.8,4.7-4.8c3.6,0,3.6,3.1,3.4,4.7c-0.2,1.5-1.1,3-1.8,3.8C43.5,40,38,45.6,38,45.6
						s-1.2,1.4-2.4,0.9s-4.5-4-4.8-4.7s-1.1-1.7-1.7-2.2c-0.6-0.4-3.9-4-3.9-4s3.4-0.9,4.1-1.8c0.7-0.9,0.4-1.2,0.4-1.2
						s1.5,1.8,1.9,2.4s1.9,1.9,2.4,2.8c0.5,0.9,0.9,1.8,1.2,2.2s0.9,0.7,1,0.7s0.1-0.7,0.2-0.9C36.4,39.6,38,35.5,38,35.5z"/>
				</g>
				<path class="st7" d="M36.9,16.7c0,0,0,1.6,0.8,3.2s1.1,2.1,1.1,2.1s-1.4-3.6-1.3-4.4"/>
				<g>
					<path class="st6" d="M37.9,27.9L35.2,30c0,0,0.9,1.6,0.7,2.3C35.6,33,35.6,33,35.6,33s2.5-3.9,2.6-4.3
						C38.3,28.3,37.9,27.9,37.9,27.9z"/>
				</g>
			</g>
		</g>
		<g>
			<path class="st1" d="M12.2,18.6c0,0,0.6,0.4,1.1-0.6s0.5-1.9,1.3-2.1c0.8-0.2,1.4,1.1,1.5,2.2h0.6c0,0-0.1-1.3,0.7-1.9
				c0.7-0.6,2.9-1.3,3.3-1.7s1.2-0.4,1.2-0.4s1.5-0.8,0.6-2.4c-1-1.6-4.4-4.3-7.7-2.4C9.8,12.1,13.1,16,12.2,18.6z"/>
		</g>
		<g>
			<path class="st6" d="M11.6,19.7c0,0,2.5,3.9,3.4,4.6c0,0-0.5-0.1-1.2,0.2c-0.7,0.3-2.7,1-2.7,1s-0.1-3.4-0.3-4.1
				C10.7,20.7,10.9,20.1,11.6,19.7z"/>
		</g>
		<g>
			<path class="st6" d="M16.8,22.7c-0.1-0.2-0.2-0.4-0.2-0.5l0,0C16.7,22.4,16.8,22.5,16.8,22.7z"/>
		</g>
		<g>
			<path class="st6" d="M18.9,23.7c0.1,0.2,0.6,0.8-1.3,2.5c-0.4,0.4-1.2,0.3-1.4,1.1c0,0,0-1.1,0.1-1.6s0.7-1.7,0.4-2.9
				c0-0.2-0.1-0.4-0.2-0.5l0,0l1.1-0.1c0.3,0,0.5,0.1,0.7,0.2l1.3,1.3C19.7,23.6,18.9,23.5,18.9,23.7z"/>
		</g>
		<g>
			<path class="st0" d="M1.2,29.3c0,0-0.3-4.1,1.6-4.4c2-0.3,3.3,5.2,3.6,6.8c0.2,1.6,0.2,5.6,0,5.8s0.5,1,0.6,1.3s1.3-0.1,1.9,0.2
				s1.2,0.9,1.5,0.9s4.8,0,4.8,0s-0.9,4.8-0.6,6.4c0,0-5.4-1-6.4-1.4s-4.9-1.8-6-2.3S0,41.2,0,40.2S1.2,29.3,1.2,29.3z"/>
		</g>
	</g>
	<g>
		<g>
			<g>
				<g>
					<path class="st8" d="M30,5.3c0,3,3.5,5.3,7.9,5.3H38l5.4,2.9V9.1c1.4-1,2.3-2.3,2.3-3.8c0-3-3.5-5.3-7.9-5.3
						C33.6,0,30,2.4,30,5.3z"/>
				</g>
			</g>
			<g>
				<g>
					<circle class="st9" cx="42.1" cy="5.3" r="1.3"/>
				</g>
				<g>
					<circle class="st9" cx="37.9" cy="5.3" r="1.3"/>
				</g>
				<g>
					<circle class="st9" cx="33.8" cy="5.3" r="1.3"/>
				</g>
			</g>
		</g>
		<g>
			<g>
				<g>
					<path class="st7" d="M38.4,9.4c0,3-3.5,5.3-7.9,5.3h-0.1L25,17.6v-4.4c-1.4-1-2.3-2.3-2.3-3.8c0-3,3.5-5.3,7.9-5.3
						C34.9,4.1,38.4,6.5,38.4,9.4z"/>
				</g>
			</g>
			<g>
				<g>
					<circle class="st9" cx="26.4" cy="9.4" r="1.3"/>
				</g>
				<g>
					<circle class="st9" cx="30.5" cy="9.4" r="1.3"/>
				</g>
				<g>
					<circle class="st9" cx="34.7" cy="9.4" r="1.3"/>
				</g>
			</g>
		</g>
	</g>
</g>
</svg>
