<?xml version="1.0" encoding="utf-8"?>
<!-- Generator: Adobe Illustrator 20.1.0, SVG Export Plug-In . SVG Version: 6.00 Build 0)  -->
<!DOCTYPE svg PUBLIC "-//W3C//DTD SVG 1.1//EN" "http://www.w3.org/Graphics/SVG/1.1/DTD/svg11.dtd">
<svg version="1.1" id="Layer_1" xmlns="http://www.w3.org/2000/svg" xmlns:xlink="http://www.w3.org/1999/xlink" x="0px" y="0px"
	 viewBox="0 0 49 49" enable-background="new 0 0 49 49" xml:space="preserve">
<g>
	<path fill="#F2F2F2" d="M44.4,34.9c0,2.2-0.1,4.5-0.3,6.7c-0.2,1.8-0.5,3.5-0.9,5.3c-12.4-1-24.8-1-37.2,0
		c-0.4-1.8-0.7-3.5-0.9-5.3c-0.3-2.2-0.4-4.5-0.3-6.7c-2.5-2.4-4.1-5.8-4.1-9.5c0-6.6,4.9-12,11.2-12.9c1.2-5.9,6.5-10.4,12.8-10.4
		c6.3,0,11.6,4.4,12.8,10.4c6.3,0.9,11.2,6.3,11.2,12.9C48.5,29.1,46.9,32.5,44.4,34.9z"/>
	<path fill="#CDD6E0" d="M44,41.6c-0.2,1.8-0.5,3.5-0.9,5.3c-12.4-1-24.8-1-37.2,0c-0.4-1.8-0.7-3.5-0.9-5.3
		C18,40.4,31,40.4,44,41.6z"/>
</g>
</svg>
