<?xml version="1.0" encoding="utf-8"?>
<!-- Generator: Adobe Illustrator 18.0.0, SVG Export Plug-In . SVG Version: 6.00 Build 0)  -->
<!DOCTYPE svg PUBLIC "-//W3C//DTD SVG 1.1//EN" "http://www.w3.org/Graphics/SVG/1.1/DTD/svg11.dtd">
<svg version="1.1" id="Layer_1" xmlns="http://www.w3.org/2000/svg" xmlns:xlink="http://www.w3.org/1999/xlink" x="0px" y="0px"
	 viewBox="0 0 48 48" enable-background="new 0 0 48 48" xml:space="preserve">
<g>
	<g>
		<g>
			<g>
				<path fill="#4ABAA5" d="M22.4,27.9c-1.8-0.8-3.6-2-4.6-3.6c-3.5-3.9-2-10.6-1.9-12.2c0-1.7-2.2-4.4-4.3-2.4
					c-4.3,1.8-2.9,13.9,3,18c2.2,2.2,5.2,3.1,7.9,3.2V27.9z"/>
			</g>
			<g>
				<path fill="#4ABAA5" d="M15.5,11.5c0-0.1-0.1-0.2-0.1-0.3c0.5-0.4,1.1-0.7,1.7-1C16.5,10.6,15.9,11,15.5,11.5z"/>
			</g>
			<g>
				<path fill="#4ABAA5" d="M14.9,10.6c-0.1-0.1-0.1-0.1-0.2-0.2c0.6-0.8,1.4-1.5,2.3-2.2C16.1,9,15.4,9.8,14.9,10.6z"/>
			</g>
			<g>
				<path fill="#4ABAA5" d="M15.8,12.9c0-0.1-0.1-0.2-0.1-0.3c0.5-0.3,1-0.5,1.6-0.7C16.8,12.1,16.3,12.5,15.8,12.9z"/>
			</g>
			<g>
				<path fill="#4ABAA5" d="M14.1,9.4c0.5-0.6,1-1.2,1.7-1.8c-0.6,0.6-1.1,1.3-1.6,2C14.2,9.6,14.2,9.5,14.1,9.4z"/>
			</g>
			<g>
				<path fill="#4ABAA5" d="M13.3,9.3c0.4-0.8,0.9-1.6,1.5-2.4c-0.7,0.8-1.3,1.6-1.7,2.4"/>
			</g>
			<g>
				<path fill="#4ABAA5" d="M12.1,9.7c0-0.6,0-1.2,0.1-1.8c-0.2,0.8-0.4,1.5-0.4,2.2"/>
			</g>
			<g>
				<path fill="#4ABAA5" d="M10.7,11.5c-0.4-0.1-0.7-0.2-1.1-0.2c0.3,0.4,0.5,0.7,0.8,1"/>
			</g>
			<g>
				<path fill="#4ABAA5" d="M9.7,14.1c-0.3-0.2-0.7-0.4-1-0.6c0.3,0.6,0.5,1.1,0.8,1.6"/>
			</g>
			<g>
				<path fill="#4ABAA5" d="M9.4,15.9c-0.3,0.2-0.7,0.4-1,0.5c0.3,0.1,0.7,0.1,1,0.2"/>
			</g>
			<g>
				<path fill="#4ABAA5" d="M15.3,14.4c0.5-0.4,1.1-0.7,1.7-1c-0.6,0.4-1.2,0.9-1.6,1.5"/>
			</g>
			<g>
				<path fill="#4ABAA5" d="M15.2,15.2c0.5,0.1,1,0.3,1.4,0.4c-0.6,0-1.1,0.1-1.7,0.2"/>
			</g>
			<g>
				<path fill="#4ABAA5" d="M15,17c0.6,0.1,1.1,0.2,1.7,0.3c-0.6,0-1.2,0-1.8,0.1"/>
			</g>
			<g>
				<path fill="#4ABAA5" d="M9.5,18.7c-0.3,0.2-0.6,0.4-0.9,0.6c0.3,0,0.7-0.1,1-0.1"/>
			</g>
			<g>
				<path fill="#4ABAA5" d="M15.2,18.4c0.3,0.1,0.6,0.2,0.9,0.2c-0.3,0.1-0.6,0.2-0.9,0.3"/>
			</g>
			<g>
				<path fill="#4ABAA5" d="M15,19.6c0.6,0.1,1.2,0.1,1.8,0.1c-0.6,0.2-1.1,0.3-1.7,0.4"/>
			</g>
			<g>
				<path fill="#4ABAA5" d="M10,20.9c-0.2,0.4-0.5,0.8-0.7,1.2c0.3-0.2,0.6-0.5,0.9-0.7"/>
			</g>
			<g>
				<path fill="#4ABAA5" d="M10.9,22.9c-0.2,0.7-0.4,1.4-0.5,2.2c0.2-0.7,0.5-1.4,0.7-2"/>
			</g>
			<g>
				<path fill="#4ABAA5" d="M12,24.8c-0.1,0.5-0.2,1-0.3,1.5c0.2-0.3,0.5-0.7,0.8-1"/>
			</g>
			<g>
				<path fill="#4ABAA5" d="M13.2,26.2c0,0.6-0.1,1.2,0,1.8c0.2-0.5,0.3-0.9,0.5-1.4"/>
			</g>
			<path fill="#4ABAA5" d="M14.7,27.7c0.1,0.7,0.3,1.4,0.6,2.1c-0.1-0.6-0.1-1.2-0.1-1.8"/>
			<g>
				<path fill="#4ABAA5" d="M16.4,29c0.2,0.6,0.5,1.3,0.9,1.9c-0.1-0.5-0.2-1.1-0.3-1.6"/>
			</g>
			<path fill="#4ABAA5" d="M18.2,29.8c0.2,0.5,0.4,1,0.7,1.5c-0.1-0.4-0.1-0.9-0.1-1.3"/>
			<path fill="#4ABAA5" d="M15.8,21.1c0.5,0.1,0.9,0.2,1.4,0.2c-0.5,0.2-1.1,0.3-1.7,0.4"/>
			<g>
				<path fill="#4ABAA5" d="M16,23c0.6-0.2,1.3-0.4,1.9-0.6c-0.6,0.4-1.2,0.8-1.8,1.1"/>
			</g>
			<g>
				<path fill="#4ABAA5" d="M16.9,24.4c0.6-0.2,1.3-0.5,1.9-0.8c-0.5,0.5-1,1-1.6,1.5"/>
			</g>
			<g>
				<path fill="#4ABAA5" d="M18.3,26.1c0.6-0.4,1.2-0.8,1.7-1.3c-0.4,0.6-0.8,1.1-1.2,1.7"/>
			</g>
			<g>
				<path fill="#4ABAA5" d="M19.9,27.3c0.5-0.5,1-1,1.4-1.6c-0.4,0.6-0.8,1.3-1.2,1.9"/>
			</g>
			<g>
				<path fill="#4ABAA5" d="M20.7,30.5c0.5,0.6,1,1.1,1.7,1.6c-0.5-0.6-0.9-1.2-1.3-1.8"/>
			</g>
		</g>
		<g>
			<g>
				<path fill="#4ABAA5" d="M25.6,21.1c1.8-0.8,3.6-2,4.6-3.6c3.5-3.9,2-10.6,1.9-12.2c0-1.7,2.2-4.4,4.3-2.4c4.3,1.8,2.9,13.9-3,18
					c-2.2,2.2-5.2,3.1-7.9,3.2V21.1z"/>
			</g>
			<g>
				<path fill="#4ABAA5" d="M32.5,4.7c0-0.1,0.1-0.2,0.1-0.3c-0.5-0.4-1.1-0.7-1.7-1C31.5,3.7,32.1,4.2,32.5,4.7z"/>
			</g>
			<g>
				<path fill="#4ABAA5" d="M33.1,3.8c0.1-0.1,0.1-0.1,0.2-0.2C32.7,2.8,31.9,2,31,1.4C31.9,2.1,32.6,2.9,33.1,3.8z"/>
			</g>
			<g>
				<path fill="#4ABAA5" d="M32.2,6c0-0.1,0.1-0.2,0.1-0.3c-0.5-0.3-1-0.5-1.6-0.7C31.2,5.3,31.7,5.6,32.2,6z"/>
			</g>
			<g>
				<path fill="#4ABAA5" d="M33.9,2.6c-0.5-0.6-1-1.2-1.7-1.8c0.6,0.6,1.1,1.3,1.6,2C33.8,2.8,33.8,2.7,33.9,2.6z"/>
			</g>
			<g>
				<path fill="#4ABAA5" d="M34.7,2.4c-0.4-0.8-0.9-1.6-1.5-2.4c0.7,0.8,1.3,1.6,1.7,2.4"/>
			</g>
			<g>
				<path fill="#4ABAA5" d="M35.9,2.8c0-0.6,0-1.2-0.1-1.8c0.2,0.8,0.4,1.5,0.4,2.2"/>
			</g>
			<g>
				<path fill="#4ABAA5" d="M37.3,4.7c0.4-0.1,0.7-0.2,1.1-0.2c-0.3,0.4-0.5,0.7-0.8,1"/>
			</g>
			<g>
				<path fill="#4ABAA5" d="M38.3,7.2c0.3-0.2,0.7-0.4,1-0.6c-0.3,0.6-0.5,1.1-0.8,1.6"/>
			</g>
			<g>
				<path fill="#4ABAA5" d="M38.6,9.1c0.3,0.2,0.7,0.4,1,0.5c-0.3,0.1-0.7,0.1-1,0.2"/>
			</g>
			<g>
				<path fill="#4ABAA5" d="M32.7,7.6c-0.5-0.4-1.1-0.7-1.7-1c0.6,0.4,1.2,0.9,1.6,1.5"/>
			</g>
			<g>
				<path fill="#4ABAA5" d="M32.8,8.3c-0.5,0.1-1,0.3-1.4,0.4c0.6,0,1.1,0.1,1.7,0.2"/>
			</g>
			<g>
				<path fill="#4ABAA5" d="M33,10.1c-0.6,0.1-1.1,0.2-1.7,0.3c0.6,0,1.2,0,1.8,0.1"/>
			</g>
			<g>
				<path fill="#4ABAA5" d="M38.5,11.8c0.3,0.2,0.6,0.4,0.9,0.6c-0.3,0-0.7-0.1-1-0.1"/>
			</g>
			<g>
				<path fill="#4ABAA5" d="M32.8,11.5c-0.3,0.1-0.6,0.2-0.9,0.2c0.3,0.1,0.6,0.2,0.9,0.3"/>
			</g>
			<g>
				<path fill="#4ABAA5" d="M33,12.8c-0.6,0.1-1.2,0.1-1.8,0.1c0.6,0.2,1.1,0.3,1.7,0.4"/>
			</g>
			<g>
				<path fill="#4ABAA5" d="M38,14.1c0.2,0.4,0.5,0.8,0.7,1.2c-0.3-0.2-0.6-0.5-0.9-0.7"/>
			</g>
			<g>
				<path fill="#4ABAA5" d="M37.1,16c0.2,0.7,0.4,1.4,0.5,2.2c-0.2-0.7-0.5-1.4-0.7-2"/>
			</g>
			<g>
				<path fill="#4ABAA5" d="M36,17.9c0.1,0.5,0.2,1,0.3,1.5c-0.2-0.3-0.5-0.7-0.8-1"/>
			</g>
			<g>
				<path fill="#4ABAA5" d="M34.8,19.4c0,0.6,0.1,1.2,0,1.8c-0.2-0.5-0.3-0.9-0.5-1.4"/>
			</g>
			<path fill="#4ABAA5" d="M33.3,20.8c-0.1,0.7-0.3,1.4-0.6,2.1c0.1-0.6,0.1-1.2,0.1-1.8"/>
			<g>
				<path fill="#4ABAA5" d="M31.6,22.1c-0.2,0.6-0.5,1.3-0.9,1.9c0.1-0.5,0.2-1.1,0.3-1.6"/>
			</g>
			<path fill="#4ABAA5" d="M29.8,22.9c-0.2,0.5-0.4,1-0.7,1.5c0.1-0.4,0.1-0.9,0.1-1.3"/>
			<path fill="#4ABAA5" d="M32.2,14.2c-0.5,0.1-0.9,0.2-1.4,0.2c0.5,0.2,1.1,0.3,1.7,0.4"/>
			<g>
				<path fill="#4ABAA5" d="M32,16.1c-0.6-0.2-1.3-0.4-1.9-0.6c0.6,0.4,1.2,0.8,1.8,1.1"/>
			</g>
			<g>
				<path fill="#4ABAA5" d="M31.1,17.5c-0.6-0.2-1.3-0.5-1.9-0.8c0.5,0.5,1,1,1.6,1.5"/>
			</g>
			<g>
				<path fill="#4ABAA5" d="M29.7,19.2c-0.6-0.4-1.2-0.8-1.7-1.3c0.4,0.6,0.8,1.1,1.2,1.7"/>
			</g>
			<g>
				<path fill="#4ABAA5" d="M28.1,20.4c-0.5-0.5-1-1-1.4-1.6c0.4,0.6,0.8,1.3,1.2,1.9"/>
			</g>
			<g>
				<path fill="#4ABAA5" d="M27.3,23.7c-0.5,0.6-1,1.1-1.7,1.6c0.5-0.6,0.9-1.2,1.3-1.8"/>
			</g>
		</g>
		<g>
			<g>
				<g>
					<path fill="#66C6B9" d="M25.8,34.6c2.4-7.6,6.7-23.3,2.7-27.3c-1.9-1.9-8.6-2.3-10.1,0c-2.9,4.5,0.5,19.9,2.4,27.3H25.8z"/>
				</g>
				<g>
					<polygon fill="#66C6B9" points="27.1,6.9 26.5,6.6 27.9,4.6 					"/>
				</g>
				<g>
					<polygon fill="#66C6B9" points="25,6.4 24.5,6.3 25.1,3.2 					"/>
				</g>
				<g>
					<polygon fill="#66C6B9" points="29,8.2 28.5,7.9 30.5,6 					"/>
				</g>
				<g>
					<polygon fill="#66C6B9" points="22.4,5.8 22.6,3.6 22.9,5.9 					"/>
				</g>
				<g>
					<polyline fill="#66C6B9" points="20.8,6.1 20,3.7 20.4,6.2 					"/>
				</g>
				<g>
					<polyline fill="#66C6B9" points="19.2,7 17.3,5.7 19,7.4 					"/>
				</g>
				<g>
					<polyline fill="#66C6B9" points="18.3,8.9 16,9.1 18.3,9.6 					"/>
				</g>
				<g>
					<polyline fill="#66C6B9" points="17.8,11.3 15.6,11 17.8,12.2 					"/>
				</g>
				<g>
					<polyline fill="#66C6B9" points="17.7,13 15.6,13.5 17.7,13.6 					"/>
				</g>
				<g>
					<polyline fill="#66C6B9" points="29.2,10.3 31.7,8.2 29.5,11 					"/>
				</g>
				<g>
					<polyline fill="#66C6B9" points="29.2,11.4 32.2,11.6 28.9,12.2 					"/>
				</g>
				<g>
					<polyline fill="#66C6B9" points="29.1,13.8 32.5,14.4 28.9,14.4 					"/>
				</g>
				<g>
					<polyline fill="#66C6B9" points="17.7,15.4 15.6,15.8 17.7,15.8 					"/>
				</g>
				<g>
					<polyline fill="#66C6B9" points="29.4,15.8 31.1,16.4 29.1,16.6 					"/>
				</g>
				<g>
					<polyline fill="#66C6B9" points="28.4,17.5 31.9,18.5 28.3,18.3 					"/>
				</g>
				<g>
					<polyline fill="#66C6B9" points="18,17.5 15.9,18.4 18.1,18 					"/>
				</g>
				<g>
					<polyline fill="#66C6B9" points="18.3,19.4 15.4,21 18.6,19.7 					"/>
				</g>
				<g>
					<polyline fill="#66C6B9" points="18.6,21.5 16.5,22.5 18.9,22.2 					"/>
				</g>
				<g>
					<polyline fill="#66C6B9" points="18.9,23.2 16.5,24.4 19.1,23.8 					"/>
				</g>
				<polyline fill="#66C6B9" points="19.2,25.2 16.8,26.8 19.5,25.7 				"/>
				<g>
					<polyline fill="#66C6B9" points="19.5,27.2 17.2,28.8 19.7,27.9 					"/>
				</g>
				<polyline fill="#66C6B9" points="20.1,29.1 17.9,30.3 20.2,29.7 				"/>
				<polyline fill="#66C6B9" points="28.9,19.8 31.3,21 27.9,20.4 				"/>
				<g>
					<polyline fill="#66C6B9" points="27.5,22.2 31.3,23.1 26.9,22.8 					"/>
				</g>
				<g>
					<polyline fill="#66C6B9" points="27.1,24.3 31,25.3 26.5,25.2 					"/>
				</g>
				<g>
					<polyline fill="#66C6B9" points="26.5,27.1 30.7,28 26.5,27.9 					"/>
				</g>
				<g>
					<polyline fill="#66C6B9" points="26.2,29.4 30.3,30.3 25.8,29.9 					"/>
				</g>
				<polyline fill="#66C6B9" points="25.6,31.6 29.3,32.7 25.4,32.3 				"/>
				<g>
					<polyline fill="#66C6B9" points="20.7,31.6 18.3,33.4 21.4,31.9 					"/>
				</g>
			</g>
			<g>
				<g>
					<path fill="#FFD15C" d="M31.7,33.6H13.9c-0.3,0-0.6,0.3-0.6,0.6V36c0,0.3,0.3,0.6,0.6,0.6h17.9c0.3,0,0.6-0.3,0.6-0.6v-1.8
						C32.3,33.9,32.1,33.6,31.7,33.6z"/>
				</g>
				<g>
					<polygon fill="#FFD15C" points="29.1,48 31.5,36.6 14.1,36.6 16.4,48 					"/>
				</g>
				<g>
					<polygon fill="#F7B64C" points="31.3,37.9 31.5,36.6 14.1,36.6 14.3,37.9 					"/>
				</g>
			</g>
		</g>
	</g>
</g>
</svg>
