<?xml version="1.0" encoding="utf-8"?>
<!-- Generator: Adobe Illustrator 18.0.0, SVG Export Plug-In . SVG Version: 6.00 Build 0)  -->
<!DOCTYPE svg PUBLIC "-//W3C//DTD SVG 1.1//EN" "http://www.w3.org/Graphics/SVG/1.1/DTD/svg11.dtd">
<svg version="1.1" id="Layer_1" xmlns="http://www.w3.org/2000/svg" xmlns:xlink="http://www.w3.org/1999/xlink" x="0px" y="0px"
	 viewBox="0 0 48 48" enable-background="new 0 0 48 48" xml:space="preserve">
<g>
	<path fill="#CDD6E0" d="M7,5.6H0l0-2C0,1.6,1.6,0,3.5,0h0C5.5,0,7,1.6,7,3.5V5.6z"/>
	<path fill="#F2F2F2" d="M42.2,0H7H3.5C5.5,0,7,1.6,7,3.5v2.1v36.9v2c0,1.9,1.6,3.5,3.5,3.5h0h33.7v-5.6V5.6V2
		C44.2,0.9,43.3,0,42.2,0z"/>
	<path fill="#CDD6E0" d="M13.9,42.4L13.9,42.4v2.1c0,1.9-1.6,3.5-3.5,3.5l0,0h34.1h-0.2c1.9,0,3.8-1.6,3.8-3.5v-2.1H13.9z"/>
	<g>
		<path fill="#FF7058" d="M35.2,14.7c0-0.3,0-0.6,0-0.9c0.7-0.4,1.3-0.9,2-1.3c-0.2-0.9-0.5-1.9-0.9-2.7c-0.8,0-1.6,0.1-2.4,0.1
			c-0.3-0.5-0.7-1-1.1-1.5c0.3-0.7,0.5-1.5,0.8-2.2c-0.7-0.6-1.5-1.2-2.3-1.7c-0.6,0.5-1.3,1-1.9,1.5c-0.5-0.2-1.1-0.4-1.7-0.6
			c-0.2-0.8-0.4-1.5-0.6-2.3c-1-0.1-1.9-0.1-2.9,0c-0.2,0.8-0.4,1.5-0.6,2.3c-0.6,0.1-1.2,0.3-1.7,0.6c-0.6-0.5-1.2-1-1.9-1.5
			c-0.8,0.5-1.6,1.1-2.3,1.7c0.3,0.8,0.6,1.5,0.8,2.2c-0.4,0.5-0.8,0.9-1.1,1.5c-0.8,0-1.6-0.1-2.4-0.1c-0.4,0.9-0.7,1.8-0.9,2.7
			c0.7,0.4,1.3,0.9,2,1.3c0,0.3,0,0.6,0,0.9c0,0.3,0,0.6,0,0.9c-0.7,0.4-1.3,0.9-2,1.3c0.2,0.9,0.5,1.9,0.9,2.7
			c0.8,0,1.6-0.1,2.4-0.1c0.3,0.5,0.7,1,1.1,1.5c-0.3,0.7-0.5,1.5-0.8,2.2c0.7,0.6,1.5,1.2,2.3,1.7c0.6-0.5,1.3-1,1.9-1.5
			c0.5,0.2,1.1,0.4,1.7,0.6c0.2,0.8,0.4,1.5,0.6,2.3c1,0.1,1.9,0.1,2.9,0c0.2-0.8,0.4-1.5,0.6-2.3c0.6-0.1,1.2-0.3,1.7-0.6
			c0.6,0.5,1.2,1,1.9,1.5c0.8-0.5,1.6-1.1,2.3-1.7c-0.3-0.8-0.6-1.5-0.8-2.2c0.4-0.5,0.8-0.9,1.1-1.5c0.8,0,1.6,0.1,2.4,0.1
			c0.4-0.9,0.7-1.8,0.9-2.7c-0.7-0.4-1.3-0.9-2-1.3C35.2,15.3,35.2,15,35.2,14.7z M25.6,19.6c-2.8,0-5-2.2-5-5s2.2-5,5-5s5,2.2,5,5
			S28.4,19.6,25.6,19.6z"/>
		<g>
			<path fill="#F8B64C" d="M30.6,9.7L30.6,9.7l-1.8,1.8l0,0c1.7,1.7,1.7,4.6,0,6.3c-1.7,1.7-4.5,1.7-6.3,0l0,0l-1.8,1.8l0,0
				c2.7,2.7,7.2,2.7,9.9,0C33.3,16.9,33.3,12.4,30.6,9.7z"/>
			<path fill="#FFD15C" d="M22.5,11.5c1.7-1.7,4.6-1.7,6.3,0l1.8-1.8c-2.7-2.7-7.2-2.7-9.9,0c-2.7,2.7-2.7,7.2,0,9.9l1.8-1.8
				C20.8,16.1,20.8,13.2,22.5,11.5z"/>
		</g>
	</g>
	<g>
		<rect x="12.3" y="29.6" fill="#4CB5D6" width="26.3" height="1"/>
		<rect x="12.3" y="30.5" fill="#54C0EB" width="26.3" height="1"/>
		<rect x="12.3" y="31.5" fill="#84DBFF" width="26.3" height="1"/>
		<polygon fill="#FFD15C" points="12.3,32.5 11.1,31.9 10.5,31.6 9.2,31 10.5,30.4 11.1,30.1 12.3,29.6 		"/>
		<rect x="38.6" y="29.6" fill="#FF7058" width="0.9" height="2.9"/>
		<path fill="#40596B" d="M42.1,31L42.1,31c0-0.8-0.7-1.5-1.5-1.5h-1.2v2.9h1.2C41.4,32.5,42.1,31.8,42.1,31z"/>
		<polygon fill="#334A5E" points="10.5,31.6 9.2,31 10.5,30.4 		"/>
	</g>
	<g>
		<rect x="9.4" y="34.7" fill="#FFD15C" width="32.5" height="5.4"/>
		<g>
			<rect x="39.9" y="34.7" fill="#F2F2F2" width="0.4" height="1.5"/>
			<rect x="36.7" y="34.7" fill="#F2F2F2" width="0.4" height="1.5"/>
			<rect x="33.5" y="34.7" fill="#F2F2F2" width="0.4" height="1.5"/>
			<rect x="30.3" y="34.7" fill="#F2F2F2" width="0.4" height="1.5"/>
			<rect x="27.1" y="34.7" fill="#F2F2F2" width="0.4" height="1.5"/>
			<rect x="23.9" y="34.7" fill="#F2F2F2" width="0.4" height="1.5"/>
			<rect x="20.6" y="34.7" fill="#F2F2F2" width="0.4" height="1.5"/>
			<rect x="17.4" y="34.7" fill="#F2F2F2" width="0.4" height="1.5"/>
			<rect x="14.2" y="34.7" fill="#F2F2F2" width="0.4" height="1.5"/>
			<rect x="11" y="34.7" fill="#F2F2F2" width="0.4" height="1.5"/>
		</g>
	</g>
</g>
</svg>
