<?xml version="1.0" encoding="utf-8"?>
<!-- Generator: Adobe Illustrator 18.0.0, SVG Export Plug-In . SVG Version: 6.00 Build 0)  -->
<!DOCTYPE svg PUBLIC "-//W3C//DTD SVG 1.1//EN" "http://www.w3.org/Graphics/SVG/1.1/DTD/svg11.dtd">
<svg version="1.1" id="Layer_1" xmlns="http://www.w3.org/2000/svg" xmlns:xlink="http://www.w3.org/1999/xlink" x="0px" y="0px"
	 viewBox="0 0 512 512" enable-background="new 0 0 512 512" xml:space="preserve">
<g>
	<path fill="#40596B" d="M253.9,336.2c0-49.1,38.3-89.2,86.7-92.3V23.1c0-11.7-9.5-21.1-21.1-21.1h-295C12.7,2,3.2,11.5,3.2,23.1
		v465.7c0,11.7,9.5,21.1,21.1,21.1h295c11.7,0,21.1-9.5,21.1-21.1v-60.4C292.2,425.4,253.9,385.3,253.9,336.2z"/>
	<rect x="48.4" y="58.2" fill="#FFFFFF" width="247" height="346.2"/>
	<path fill="#334A5E" d="M214.8,37.6h-86c-0.4,0-0.7-0.3-0.7-0.7V23.3c0-0.4,0.3-0.7,0.7-0.7h86c0.4,0,0.7,0.3,0.7,0.7v13.7
		C215.6,37.3,215.2,37.6,214.8,37.6z"/>
	<circle fill="#334A5E" cx="171.9" cy="457.2" r="28.4"/>
	<path fill="#CDD6E0" d="M481.9,350.3c0.5-4.6,0.4-24.1-0.1-29l26.9-18.8l-11.5-35.1l-32.8,0.8c-4.8-8.4-10.6-16.1-17-23.3
		l10.8-31.1L428,192.1l-26.1,19.9c-8.7-3.9-17.9-7-27.5-9l-9.5-31.3h-37l-9.5,31.3c-9.9,2.1-19.3,5.3-28.3,9.4l-26.3-19.7
		l-29.8,21.9l11,31c-6.4,7.2-12.1,15-16.9,23.4l-32.8-0.6l-11.3,35.2l26.9,18.6c-0.5,4.6-0.4,24.1,0.1,29l-26.9,18.8l11.5,35.1
		l32.8-0.8c4.8,8.4,10.6,16.1,17,23.3l-10.8,31.1l29.9,21.7l26.1-19.9c8.7,3.9,17.9,7,27.5,9l9.5,31.3h37l9.5-31.3
		c9.9-2.1,19.3-5.3,28.3-9.4l26.3,19.7l29.8-21.9l-11-31c6.4-7.2,12.1-15,16.9-23.4l32.8,0.6l11.3-35.2L481.9,350.3z M346.4,387.5
		c-28.3,0-51.3-23-51.3-51.3c0-28.3,23-51.3,51.3-51.3c28.3,0,51.3,23,51.3,51.3C397.7,364.5,374.7,387.5,346.4,387.5z"/>
	<path fill="#ACB3BA" d="M346.4,243.6c-51.1,0-92.6,41.4-92.6,92.6c0,51.1,41.4,92.6,92.6,92.6s92.6-41.4,92.6-92.6
		C439,285.1,397.6,243.6,346.4,243.6z M346.4,387.5c-28.3,0-51.3-23-51.3-51.3c0-28.3,23-51.3,51.3-51.3c28.3,0,51.3,23,51.3,51.3
		C397.7,364.5,374.7,387.5,346.4,387.5z"/>
</g>
</svg>
