<?xml version="1.0" encoding="utf-8"?>
<!-- Generator: Adobe Illustrator 18.0.0, SVG Export Plug-In . SVG Version: 6.00 Build 0)  -->
<!DOCTYPE svg PUBLIC "-//W3C//DTD SVG 1.1//EN" "http://www.w3.org/Graphics/SVG/1.1/DTD/svg11.dtd">
<svg version="1.1" id="Layer_1" xmlns="http://www.w3.org/2000/svg" xmlns:xlink="http://www.w3.org/1999/xlink" x="0px" y="0px"
	 viewBox="0 0 48 48" enable-background="new 0 0 48 48" xml:space="preserve">
<g>
	<rect x="9.4" y="16.2" fill="#40596B" width="29.2" height="22.1"/>
	<g>
		<rect x="0" y="43.1" fill="#CDD6E0" width="48" height="4.9"/>
		<rect x="2" y="38.3" fill="#F2F2F2" width="44" height="4.9"/>
		<path fill="#CDD6E0" d="M34.3,2.9L34.3,2.9C28-1,20-1,13.7,2.9h0C10.6,4.8,7.1,5.7,3.5,5.7H2c-1.1,0-2,0.9-2,2v10.4h48V7.7
			c0-1.1-0.9-2-2-2h-1.5C40.9,5.7,37.4,4.8,34.3,2.9z"/>
		<path fill="#F2F2F2" d="M2,16.2V7.7h1.5c4,0,7.9-1.1,11.3-3.2C17.6,2.9,20.7,2,24,2c3.3,0,6.4,0.9,9.2,2.6
			c3.4,2.1,7.3,3.2,11.3,3.2H46v8.4H2z"/>
		<rect x="5" y="18.2" fill="#CDD6E0" width="8.8" height="20.1"/>
		<rect x="3.7" y="18.2" fill="#ACB3BA" width="11.3" height="3.5"/>
		<rect x="3.7" y="34.7" fill="#ACB3BA" width="11.3" height="3.5"/>
		<rect x="19.6" y="18.2" fill="#CDD6E0" width="8.8" height="20.1"/>
		<rect x="34.2" y="18.2" fill="#CDD6E0" width="8.8" height="20.1"/>
		<rect x="18.3" y="18.2" fill="#ACB3BA" width="11.3" height="3.5"/>
		<rect x="18.3" y="34.7" fill="#ACB3BA" width="11.3" height="3.5"/>
		<rect x="33" y="18.2" fill="#ACB3BA" width="11.3" height="3.5"/>
		<rect x="33" y="34.7" fill="#ACB3BA" width="11.3" height="3.5"/>
		<rect x="3.7" y="18.2" opacity="0.1" fill="#231F20" width="11.3" height="1.5"/>
		<rect x="18.3" y="18.2" opacity="0.1" fill="#231F20" width="11.3" height="1.5"/>
		<rect x="33" y="18.2" opacity="0.1" fill="#231F20" width="11.3" height="1.5"/>
		<circle fill="#4CDBC4" cx="24" cy="9.1" r="4.4"/>
		<path opacity="0.1" fill="#231F20" d="M20.6,10.1c0-2.4,2-4.4,4.4-4.4c1,0,1.8,0.3,2.6,0.8c-0.8-1.1-2.1-1.8-3.6-1.8
			c-2.4,0-4.4,2-4.4,4.4c0,1.5,0.7,2.8,1.8,3.6C20.9,11.9,20.6,11,20.6,10.1z"/>
	</g>
</g>
</svg>
