<?xml version="1.0" encoding="utf-8"?>
<!-- Generator: Adobe Illustrator 18.0.0, SVG Export Plug-In . SVG Version: 6.00 Build 0)  -->
<!DOCTYPE svg PUBLIC "-//W3C//DTD SVG 1.1//EN" "http://www.w3.org/Graphics/SVG/1.1/DTD/svg11.dtd">
<svg version="1.1" id="Layer_1" xmlns="http://www.w3.org/2000/svg" xmlns:xlink="http://www.w3.org/1999/xlink" x="0px" y="0px"
	 viewBox="0 0 48 48" enable-background="new 0 0 48 48" xml:space="preserve">
<g>
	<g>
		<g>
			<g>
				<path fill="#55C0EB" d="M48,24c0,13.3-10.7,24-24,24S0,37.3,0,24S10.7,0,24,0S48,10.7,48,24z"/>
			</g>
			<g>
				<path fill="#F3F3F3" d="M1.8,32.6c0-0.1,0-0.1,0-0.1C1.9,32.5,1.9,32.6,1.8,32.6c0.2,0.1,0.2,0,0.3-0.1c0,0-0.1,0-0.1-0.1
					c0-0.2,0.1-0.3,0.3-0.4c0,0.1,0,0.2,0.1,0.2c0.1,0.1,0.2,0.2,0.3,0.2c0.1-0.1,0.2-0.2,0.3-0.3c0.2,0.1,0.4,0.3,0.6,0.4
					c0.1,0.1,0.5,0.1,0.6,0c0,0,0-0.1,0.1-0.1c0,0,0-0.1,0.1-0.1c0.1-0.1,0.1-0.1,0.1-0.2c0-0.1,0-0.1,0-0.2
					c0.1,0.1,0.2,0.3,0.2,0.4c0.1,0.3,0.2,0.3,0.5,0.3c0.3,0,0.5-0.1,0.8,0c0.1,0,0.1,0,0.2,0c0.2,0,0.3-0.1,0.4-0.1
					c0.3,0,0.4-0.1,0.6-0.3c0.1-0.1,0.2-0.1,0.3-0.1c0.1,0,0.2,0,0.4,0c0.2,0.1,0.5,0.1,0.7,0.3c0.1,0.1,0.2,0.1,0.3,0.2
					c0.2,0,0.3-0.1,0.5-0.1c0.3,0,0.5-0.2,0.7-0.3c0.2-0.1,0.3-0.2,0.4-0.3c0.1-0.1,0.2-0.2,0.4-0.1c0,0,0.1,0,0.1,0
					c0.1,0,0.3,0,0.4,0c0.4,0,0.7-0.1,0.9-0.4c0.1-0.1,0.1-0.2,0-0.3c-0.1-0.1-0.1-0.2-0.1-0.4c0-0.1,0-0.2,0-0.2
					c0-0.2-0.1-0.3-0.2-0.4c-0.1-0.1-0.2-0.2-0.2-0.4c-0.1-0.1-0.1-0.2-0.2-0.3c0.1-0.1,0-0.2,0-0.4c0-0.1-0.1-0.2-0.1-0.3
					c-0.1-0.2-0.3,0-0.5-0.1c0,0,0,0,0-0.1c0,0,0,0,0,0c0.1,0,0.2,0,0.3,0c0-0.1-0.1-0.1-0.1-0.2c-0.1-0.1-0.1-0.1-0.2-0.2
					c0.1,0,0.1,0,0.1,0c0.1,0,0.3,0.1,0.3-0.2c0,0,0-0.1,0-0.1c0.1-0.1,0.2-0.3,0.1-0.4c0-0.3-0.1-0.6-0.3-0.8
					c-0.1-0.1-0.3-0.2-0.2-0.4c0,0,0-0.1,0-0.1c0,0,0-0.1,0-0.1c0.1-0.2,0-0.4-0.1-0.5c0.1-0.1,0.1-0.2,0-0.4
					c-0.1-0.1-0.1-0.2,0.1-0.2c-0.1-0.1-0.3-0.2-0.4-0.3c-0.1-0.1-0.1-0.1-0.2-0.2c-0.1-0.1-0.1-0.2-0.1-0.2
					c-0.1-0.1-0.2-0.1-0.1-0.3c0,0,0-0.1,0-0.1c0-0.1-0.1-0.2-0.1-0.3c0,0,0,0-0.1,0.1c0,0,0,0,0,0c-0.2-0.1-0.3-0.1-0.4,0.1
					c0,0-0.1,0-0.1,0.1c0,0,0,0,0-0.1c0-0.1,0.1-0.1,0.1-0.2c0.1-0.1,0.2-0.1,0.2-0.2c0,0,0,0,0,0c0.1,0,0.1,0,0.2,0
					c0-0.1,0-0.2-0.1-0.2c-0.1,0-0.2-0.1-0.3-0.1c-0.1,0-0.2-0.1-0.3-0.2c-0.1,0-0.1,0-0.2,0c-0.1,0-0.1,0-0.2,0c-0.1,0-0.2,0-0.2,0
					c0-0.1,0-0.2,0-0.2c0-0.2-0.1-0.2-0.2-0.3C8.2,22.3,8,22.3,8,22.1c0-0.1,0-0.3,0.1-0.5c0-0.1,0.1-0.2,0.1-0.2
					c0.1-0.1,0.2-0.2,0.4-0.2c0.2-0.1,0.2-0.2,0.1-0.4c-0.1-0.2-0.3-0.3-0.4-0.5l-0.2-0.2c0.2-0.1,0.4-0.2,0.6-0.3
					c0.1-0.1,0.3-0.1,0.4-0.2c0,0,0.1-0.1,0.1-0.1c-0.1-0.1-0.1-0.2-0.2-0.2c-0.2-0.2-0.4-0.2-0.6,0c0,0,0,0,0,0c-0.1,0-0.2,0-0.3,0
					C8,19.2,8,19.1,7.9,19c-0.2-0.1-0.2-0.3-0.2-0.5c0.1-0.3,0.2-0.6,0.4-0.8c0.1,0,0.1-0.1,0.2-0.2c0.1-0.1,0.1-0.1,0.3-0.1
					c0,0,0.1,0,0.1,0c0,0,0-0.1,0.1-0.1c0.1-0.1,0.2-0.2,0.2-0.2c0.1,0.1,0.2,0,0.3,0c0.1,0.2,0.2,0.2,0.3,0.1
					c0.1,0,0.1,0.1,0.1,0.1c0.1,0.1,0.3,0.2,0.3,0.4c0,0.2,0.2,0.3,0.3,0.4c0-0.1,0.1-0.1,0.1-0.2c0,0-0.1-0.1-0.1-0.1
					c0,0,0.1,0,0.1,0.1c0.1,0.1,0.3,0.2,0.4,0.4c0.1,0.1,0.1,0.2,0.1,0.3c0,0.1,0.1,0.1,0.1,0.2c0.2,0.1,0.2,0.3,0.1,0.5
					c-0.1,0.1-0.2,0.2-0.2,0.3c-0.1,0.2-0.1,0.3-0.1,0.5c0.1,0.1,0.2,0.1,0.3,0c0.1-0.1,0.2-0.2,0.2-0.2c0.1-0.2,0.2-0.4,0.3-0.6
					c0.1-0.1,0.4-0.2,0.5-0.2c0.1,0,0.2,0,0.4,0.1c0,0,0.1,0,0.1,0c0.2,0.1,0.3,0.1,0.5,0.2c0,0,0.1-0.1,0.1-0.1
					c0.1,0,0.1,0,0.2,0.1c0,0,0,0,0,0c0,0,0-0.1-0.1-0.1c0.1,0,0.1,0.1,0.2,0.1c0.1-0.2,0.2-0.3,0.3-0.5c0,0,0,0,0,0
					c0.1-0.1,0.2-0.1,0.2-0.2c0,0.1-0.1,0.2-0.2,0.2c-0.1,0.1-0.1,0.1-0.2,0.2c0.2-0.1,0.4-0.1,0.5-0.3c0,0,0,0.1,0,0.1
					c0.2,0,0.3,0,0.4-0.2c0.1,0.1,0.2,0.1,0.3,0.2c0,0,0,0,0,0c-0.1,0-0.1-0.1-0.2-0.1c0,0,0,0,0,0c0.2,0.1,0.4,0.2,0.5,0.4
					c0-0.1,0.1-0.2,0.1-0.2c0.1-0.1,0.3-0.2,0.5-0.1c0.1,0,0.1,0,0.2,0c0.1,0.1,0.2,0.2,0.4,0.1c0,0,0.1,0,0.1,0
					c0.1,0.1,0.3,0.2,0.4,0.2c0,0-0.1,0-0.1,0.1c0,0-0.1,0-0.2-0.1c-0.2,0-0.3,0.1-0.2,0.3c0.4-0.1,0.6,0.2,0.9,0.3c0,0,0-0.1,0-0.1
					l0,0l0,0l0,0c0-0.1,0-0.2-0.2-0.2c-0.1,0-0.1-0.4-0.1-0.5c0.1-0.1,0.1-0.3,0.2-0.3c-0.1-0.1-0.1-0.2-0.1-0.3c0,0,0,0,0,0
					c0,0,0.1,0.1,0.1,0.1c0.1,0,0.2,0.1,0.3,0c0.1-0.1,0.1-0.2,0-0.3c-0.1-0.1-0.2-0.2-0.4-0.3c-0.2-0.1-0.4-0.1-0.7-0.2
					c0.2,0,0.5,0,0.7,0c0,0,0,0,0.1,0c0.1,0,0.1,0,0.2,0c0.1,0,0.2,0,0.3,0c0.2,0.2,0.4,0.4,0.6,0.7c0.1,0.1,0.3,0.3,0.4,0.3
					c0.2,0,0.4,0,0.5,0.2c0.1,0.1,0.3,0.1,0.4,0c0,0,0.1-0.1,0.1-0.1c0.1,0,0.1-0.1,0.1-0.2c0-0.1-0.1-0.1-0.1-0.2
					c0,0,0.1-0.1,0.1-0.1c-0.1-0.1-0.2-0.1-0.3-0.1c0-0.1,0-0.1,0.1-0.1c0.1,0,0.1,0.1,0.2,0.1l0,0c-0.1-0.2-0.1-0.4-0.2-0.6
					c0.1-0.1,0.1-0.1,0-0.2c0,0,0-0.1,0-0.1c0-0.1,0-0.2,0-0.3c0.1,0,0.2,0,0.2,0c0.1-0.1,0.1-0.2,0.1-0.3c0-0.1,0.1-0.1,0.1-0.2
					c0,0-0.1,0-0.1,0c0,0,0.1,0,0.1,0c0,0,0-0.1-0.1-0.1c0,0,0.1-0.1,0.1-0.1c0-0.1,0.1-0.1,0.1-0.2c0-0.1,0.1-0.2,0.1-0.4
					c0,0,0-0.1,0-0.1c-0.1,0-0.2,0-0.3,0.1c-0.1,0.1-0.2,0.1-0.3,0.1c0,0-0.1,0-0.1,0c-0.1,0-0.2,0-0.3,0c0-0.1,0-0.2,0.1-0.4
					c-0.1-0.1-0.1-0.1-0.2-0.2c0.1,0,0.1,0,0.2,0c0.1-0.1,0.3-0.2,0.2-0.4c0,0,0.1,0.1,0.1,0.1l0.3-0.3c0,0-0.1-0.1-0.1-0.1
					c0-0.1,0-0.1-0.1-0.2c-0.1-0.1-0.1-0.1,0-0.2c0-0.1,0.1-0.2,0.1-0.3c0.1-0.1,0.1-0.4-0.1-0.4c-0.1,0-0.2-0.1-0.2-0.2
					c0-0.1-0.1-0.2-0.1-0.2c0,0-0.1-0.1-0.1-0.1c-0.2,0-0.3,0.1-0.2,0.3c-0.3,0-0.4,0.3-0.5,0.4c-0.1,0.1-0.2,0.2-0.4,0.1
					c-0.1-0.1-0.2,0-0.2,0.1c0,0.2-0.1,0.4-0.2,0.6c-0.1,0.1-0.2,0.2-0.2,0.3l0.1,0.1c0,0,0,0-0.1,0c0,0-0.1,0-0.1,0
					c-0.2,0.1-0.3,0-0.5,0c-0.1,0-0.1,0-0.2,0l0,0c-0.2,0.2-0.3,0.4-0.5,0.7c0,0-0.1,0-0.1,0c0,0-0.1,0.1-0.1,0.2
					c-0.1-0.1-0.1-0.2-0.2-0.1c0-0.1-0.1-0.1-0.1-0.2C16,15.2,16,15.1,16,15c0,0,0.1-0.1,0.1-0.1c0-0.1,0-0.2,0.1-0.2
					c0.2-0.2,0.3-0.3,0.5-0.5c-0.1-0.1-0.1-0.2-0.2-0.3c-0.1-0.1-0.2-0.2-0.2-0.2c0-0.2-0.1-0.3-0.1-0.4c0,0,0-0.1,0-0.1
					c0-0.4,0-0.7-0.4-0.9c0.1-0.1,0.2-0.3,0.3-0.4c0.1-0.1,0.1-0.2,0-0.3c0,0-0.1-0.2,0-0.2c0.2-0.2,0.4-0.3,0.6-0.4
					c0.1-0.1,0.2-0.1,0.3-0.2c0.2,0.1,0.5,0,0.7-0.1c0.1,0.1,0.2,0.1,0.3,0.1c0.1,0,0.1-0.1,0.2-0.2c0,0.1,0.1,0.1,0.2,0
					c0.1,0,0.1-0.1,0.2,0c0,0.1,0.2,0.1,0.2,0.1c0.2,0,0.3-0.1,0.5-0.1c-0.1-0.2-0.3-0.4-0.2-0.7c0,0.1,0.1,0.3,0.1,0.4
					c0,0,0,0.1,0.1,0.1c0.1,0.1,0.5,0,0.5,0c0,0,0-0.1,0-0.1c0,0,0-0.1,0-0.1c0,0,0.1,0,0.1,0c0,0,0.1,0.1,0.1,0.1
					c-0.2,0.2,0.1,0.2,0.1,0.3c0-0.1,0.1-0.1,0.1-0.2c0,0.1,0,0.2,0,0.3c0.2,0,0.4,0,0.6,0c0.1,0,0.1-0.1,0.2-0.2
					c0.1-0.1,0.1-0.3,0.2-0.4c0.2,0.1,0.3,0.2,0.3-0.1c0,0,0.1,0,0.1,0c-0.1-0.1-0.1-0.3,0-0.4c0,0,0-0.1,0-0.1
					c-0.1-0.1-0.2-0.3-0.3-0.4c-0.1,0.1-0.3,0.2-0.2,0.4c-0.1,0-0.1,0.1-0.2,0.1c-0.1,0-0.1-0.1-0.2-0.1c-0.2,0.1-0.3,0.1-0.5,0.2
					c-0.1,0.1-0.2,0.1-0.3,0c0-0.1,0.1-0.2,0.1-0.3c0-0.1,0.1-0.2,0.3-0.1c0,0,0,0,0,0c0.1-0.1,0.1-0.3,0.2-0.4c0-0.1,0-0.1-0.1-0.1
					c-0.1,0-0.1,0.1-0.2,0.1C20,8.9,20,9,19.9,9c0.1-0.2,0.2-0.3,0.2-0.4c0-0.1,0-0.1,0.1-0.1c0,0,0-0.1,0-0.1
					c0-0.1-0.1-0.2-0.1-0.2c0.1,0,0.2-0.1,0.3-0.1c0,0,0,0,0.1,0c0-0.1,0-0.3,0.1-0.4c0-0.1,0.1-0.2,0.2-0.3c0,0,0-0.1,0-0.1
					c0-0.1,0.1-0.2,0.1-0.2c0,0,0,0,0,0c0,0,0,0,0,0c0-0.1,0-0.1,0.1-0.2c0,0,0,0,0,0c-0.1,0.1-0.2,0.1-0.4,0.2
					c-0.1-0.1-0.3,0-0.4,0.3c0,0-0.1,0-0.1,0c-0.1,0-0.2,0.1-0.2,0.3c0,0.2-0.1,0.4,0.1,0.5c-0.1,0-0.2,0.1-0.4,0.2
					c0.1,0,0.1,0.1,0.2,0.1c-0.1,0.2-0.4,0.2-0.6,0c-0.1,0.1-0.2,0.2-0.3,0.3c-0.1-0.3,0.2-0.3,0.3-0.4c0,0-0.1,0-0.1,0
					c0.1-0.2,0-0.3-0.2-0.4c0,0.1-0.1,0.2-0.1,0.3c0,0,0.1,0.1,0.1,0.1c0,0-0.1,0-0.2,0.1c0-0.2,0-0.3,0-0.4c0,0-0.1,0.1-0.1,0.1
					c-0.1-0.1-0.3-0.3-0.4-0.4C18,7.4,17.9,7.4,18,7.2c0-0.1,0-0.2-0.1-0.3c-0.1,0-0.1-0.3,0-0.4c0.2-0.3,0.1-0.3-0.1-0.4
					c0,0-0.1,0-0.1-0.1c-0.1,0-0.2,0-0.3,0c0,0.3,0,0.3,0.2,0.2c0,0.1,0.1,0.1,0.1,0.1c0.1,0,0.2,0,0.2,0c0,0,0,0,0,0
					c-0.1,0.1-0.2,0.1-0.4,0c-0.1-0.1-0.3,0-0.3,0.1c0,0.1-0.1,0.2-0.1,0.2c0,0-0.1,0-0.2,0c0-0.1,0-0.1,0-0.1c0.1,0,0.2,0,0.1-0.1
					c0-0.1,0-0.1,0-0.2c0,0,0-0.1,0-0.1c0-0.1,0-0.2-0.1-0.3c-0.4-0.1-0.6-0.4-0.7-0.7c0.2-0.1,0.2,0,0.4,0.1c0-0.2,0.1-0.3,0.1-0.4
					c0,0-0.1-0.1-0.1-0.1c-0.1,0-0.1-0.1-0.1-0.1c-0.1-0.3-0.3-0.6-0.3-1c0-0.1-0.1-0.2-0.2-0.3c0,0-0.1,0-0.2,0
					c-0.1,0-0.1,0-0.2-0.1c0.1-0.1,0.2-0.2,0.3-0.4c-0.2,0-0.3,0.1-0.4,0.1c0,0-0.1,0-0.1,0c0,0-0.1-0.1,0-0.1
					c0-0.1,0.1-0.3,0.2-0.4c0-0.1,0.1-0.2,0.1-0.3c0,0,0,0-0.1,0c0,0.1,0,0.1-0.1,0.2c-0.1,0-0.2,0.1-0.3-0.1c0,0-0.1-0.1-0.2-0.1
					c0.3,0,0.3,0,0.3-0.1c-0.3-0.1-0.6-0.1-0.8-0.2c-1.6,0.7-3,1.5-4.4,2.5c0,0,0,0,0,0c0,0.2,0,0.3,0,0.5c0,0,0.1,0,0.1,0.1
					c0,0,0-0.1,0.1-0.1c0,0,0-0.1,0-0.2l0.1,0c0,0.1,0,0.3,0,0.4c0,0,0,0,0,0c0.1-0.1,0.1-0.2,0.2-0.3c0,0.1,0,0.1-0.1,0.2
					c0,0.1-0.1,0.1-0.1,0.2c0,0.2,0,0.3-0.1,0.4c0,0,0,0.1-0.1,0.1c0,0.1-0.1,0.2-0.1,0.3c0,0,0,0.1,0,0.1c-0.1,0-0.1,0-0.2,0.1
					l0.1,0.1c0,0,0,0.1,0,0.2c0,0,0,0.1,0.1,0.1c0,0-0.1,0-0.2,0c0.1,0,0.1,0.1,0.2,0.1C9.9,6.9,9.8,7,9.8,7c0,0,0,0.1-0.1,0.1
					C9.7,7.3,9.7,7.5,9.6,7.7c0,0,0,0,0,0.1c0,0.1-0.1,0.4-0.1,0.4c-0.2,0.1-0.1,0.1,0,0.2c0,0,0,0.1,0,0.2c0,0,0,0,0,0
					C9.3,8.4,9.3,8.3,9.2,8.1c0,0,0,0,0,0c0,0,0,0.1,0,0.1c-0.1,0-0.1,0.1-0.1,0.1c0,0.1,0.1,0.2,0,0.4c0,0.1,0,0.3,0,0.5
					c-0.1,0-0.4,0.5-0.4,0.6c-0.1,0-0.1,0-0.2,0.1c-0.2,0.1-0.3,0.2-0.5,0.4c-0.1,0.1-0.2,0.2-0.3,0.3c-0.1,0.1-0.2,0.2-0.3,0.3
					c0,0-0.1,0.1-0.1,0.1c-0.1,0.1-0.1,0.2-0.1,0.2c-0.1,0.2-0.1,0.3,0,0.4c0,0-0.1,0.1-0.1,0.1C7.1,11.8,7,12,7,12.1
					c0,0.1,0,0.1,0,0.2c-0.1,0.1,0,0.2,0,0.3C7,12.8,7.1,13,7,13.1c0,0.2-0.2,0.4-0.2,0.6c-0.1,0.1-0.1,0.3-0.1,0.4
					c0,0.1,0,0.2,0,0.2c0,0.1-0.1,0.1-0.1,0.1c0,0-0.1-0.1-0.1-0.1c0,0.1,0,0.3,0,0.4c0.1,0.2,0,0.3-0.1,0.4c0,0-0.1,0.1-0.1,0.1
					c0,0.2,0,0.4,0,0.6c0.1,0,0.2-0.1,0.2-0.2c0-0.1,0-0.2,0-0.2c0.2-0.3,0.2-0.6,0.3-0.9c0,0,0-0.1,0-0.1c0-0.3,0.1-0.5,0.3-0.7
					c0,0.2,0.2,0.3,0,0.5c-0.1,0.1-0.1,0.3-0.2,0.4c0,0,0,0.1,0,0.1c0,0.2,0,0.4,0,0.6c0,0.1,0,0.2-0.1,0.2c0,0,0,0.1,0,0.2
					c0,0,0,0.1,0,0.1c0,0.2-0.1,0.4-0.1,0.6c0,0.2-0.1,0.4-0.3,0.5c-0.1,0.1-0.2,0.1-0.1,0.2c0,0.2,0,0.5,0.2,0.7c0,0,0,0.1,0,0.1
					c0,0.1,0.1,0.3,0.1,0.4c0,0.1,0.1,0.3,0.1,0.4C6.9,18.8,7,19,7.1,19c0.2,0.1,0.3,0.2,0.3,0.5c0,0.5,0.2,0.8,0.4,1.1
					c0,0.1,0,0.1-0.1,0.2c0,0.2,0,0.3-0.1,0.4c0,0,0,0.2,0,0.2c0.1,0.1,0.1,0.2,0.1,0.3c0,0.1,0,0.2,0.1,0.3c0,0.1,0.1,0.1,0.1,0.2
					c0,0.1,0,0.1,0,0.2c0,0,0.1,0,0.1,0c0-0.2,0-0.2,0.4-0.1c0,0.1,0,0.2,0,0.2c-0.1,0.1-0.2,0.3-0.2,0.4c-0.1,0.1-0.3,0.2-0.3,0.4
					c-0.1,0-0.2,0-0.3-0.1c0,0,0,0,0,0c-0.2,0.1-0.5,0-0.8,0.1c0,0,0,0,0,0c-0.1,0.1-0.2,0.1-0.2,0.2c0,0,0.1,0.1,0.1,0.1
					c-0.1,0.1-0.1,0.1-0.3,0c-0.1,0-0.3,0.2-0.3,0.3c0,0.3-0.1,0.6-0.2,0.9c-0.1,0.2-0.1,0.3-0.2,0.5c0,0.1-0.1,0.2-0.2,0.3
					c0,0,0,0.1,0,0.1c0,0.3,0,0.5,0.1,0.8c0.1,0.3,0.2,0.6-0.1,0.8c-0.3,0.3-0.7,0.6-1,0.8c-0.1,0.1-0.2,0.2-0.4,0.2
					c-0.4,0.2-0.7,0.4-1,0.7c0,0,0,0.1-0.1,0.1c-0.3,0.1-0.6,0.3-0.9,0.4c-0.2,0.1-0.5,0.2-0.6,0.4c0,0-0.1,0.1-0.1,0.1
					c-0.1,0-0.1,0.1-0.2,0.1c0.2,0.6,0.4,1.3,0.6,1.9C1.7,32.6,1.7,32.6,1.8,32.6z"/>
				<path fill="#F3F3F3" d="M47.5,19.3C47.5,19.3,47.5,19.3,47.5,19.3c-0.3,0.2-0.3,0.2-0.6,0.1c0,0-0.1,0-0.1-0.1
					c-0.2-0.1-0.2-0.1-0.3,0.1c-0.3,0-0.3-0.2-0.4-0.4c0,0.2-0.1,0.3-0.1,0.4c0,0.1-0.1,0.3-0.1,0.4c-0.1-0.1-0.1-0.1-0.1-0.1
					c-0.1,0-0.2-0.1-0.2-0.3c0-0.1-0.1-0.1-0.1-0.2c-0.1-0.1,0-0.2,0-0.2c0.1-0.1,0.1-0.2,0.1-0.3c0,0,0-0.1,0-0.1
					c0.1-0.2,0-0.3-0.2-0.5c-0.1-0.1-0.3-0.2-0.4-0.1c-0.1-0.1-0.3-0.2-0.4-0.2c-0.1-0.1-0.2,0-0.2,0.1c0,0.1,0,0.2,0,0.2
					c0,0.1,0,0.2-0.1,0.2c-0.3,0.1-0.5,0-0.7-0.1c-0.1-0.1-0.2-0.1-0.1-0.3c-0.5-0.2-0.8-0.2-1.1,0c0.1,0,0.1,0.1,0.2,0.1
					c-0.1,0-0.1,0.1-0.2,0.1c0-0.1,0-0.2,0-0.3c0-0.1-0.1-0.2-0.1-0.2c0,0.1-0.1,0.2-0.1,0.2c-0.1,0-0.2,0-0.3-0.2
					c-0.1,0-0.2,0-0.2-0.1c-0.1,0.1-0.1,0.1-0.1,0.3c0.2-0.1,0.2-0.1,0.2,0c-0.1,0-0.2,0.1-0.3,0.1c0,0.1-0.3,0.2-0.6,0.2
					c0.1-0.1,0.2-0.2,0.3-0.3c0.1,0,0.2,0,0.2-0.1c0-0.1,0.1-0.2,0.2-0.2c0.1-0.2,0.2-0.4,0.4-0.4c0,0,0,0,0.1,0
					c0.1-0.1,0.2-0.2,0.2-0.3c0.1-0.1,0.1-0.2,0.1-0.3c0-0.1-0.1-0.2,0-0.4c0,0,0-0.1,0-0.1c0-0.1-0.1-0.2-0.1-0.2c0,0,0,0-0.1,0.1
					c0-0.1,0-0.2-0.1-0.2c-0.2-0.2-0.3-0.4-0.6-0.3c0,0-0.1,0-0.1,0c-0.1,0-0.2,0-0.2,0.1c-0.1,0.1-0.2,0.2-0.3,0.1
					c0.1-0.1,0.1-0.1,0.2-0.2c0.1-0.2,0.1-0.2-0.1-0.3c-0.1,0-0.1,0-0.2-0.1c0,0,0,0,0,0c0,0-0.1,0-0.1,0c0-0.1,0.1-0.1,0.1-0.2
					c0.1-0.1,0.1-0.2,0-0.3c-0.1,0-0.1-0.1-0.2-0.1c-0.1-0.1-0.3,0-0.3,0.1c-0.1,0.1-0.2,0.3-0.3,0.4c0,0.1-0.1,0.2-0.1,0.3
					c0,0.1,0,0.1,0,0.2c-0.2,0-0.3,0-0.5,0.1c0.1,0.1,0.2,0.2,0.1,0.4c-0.1-0.1-0.1-0.1-0.2-0.2C39,15.8,39,15.9,38.9,16
					c-0.1,0-0.1,0.1-0.2,0.1c0,0-0.1,0-0.1-0.1c0.1-0.1,0-0.1-0.1-0.1c-0.1,0-0.2,0-0.4,0c-0.1,0-0.1,0-0.2,0c0,0,0.1,0.1,0.1,0.1
					c-0.1,0-0.1,0-0.1,0.1c-0.2,0.1-0.4,0.1-0.5,0.2c-0.1,0-0.3,0.1-0.3,0.2c-0.1,0.1-0.2,0.2-0.3,0.1c0,0,0.1,0.1,0.1,0.1
					c0,0.1-0.1,0.2-0.1,0.3c-0.1,0-0.1-0.1-0.2-0.1c-0.1,0.2,0.1,0.1,0.1,0.2c0,0-0.1,0.1-0.1,0.1c0,0,0,0,0,0
					c0,0.1,0.1,0.1,0.1,0.2c0,0.1-0.1,0.2-0.2,0.2c-0.3,0-0.6,0.1-0.9,0.2c-0.2,0-0.3,0.3-0.2,0.4c0,0.1,0.1,0.1,0.1,0.2
					c0,0.1,0,0.2,0.2,0.3c0.1,0.1,0.3,0.2,0.4,0.3c0,0,0,0.1,0,0.1c-0.1,0.2,0,0.4,0,0.6c0,0.1,0,0.2-0.1,0.2c0,0,0,0.1,0,0.1
					c-0.1,0-0.2-0.1-0.1-0.2c0-0.2-0.1-0.4,0.1-0.6c0,0,0-0.1,0.1-0.2c0,0-0.1,0-0.1,0c-0.2,0-0.3,0-0.4-0.2
					c-0.1-0.2-0.3-0.2-0.6-0.2c-0.1,0-0.1,0-0.1,0.1c0,0,0.1,0.1,0.1,0.1c-0.2,0.2-0.2,0.2-0.3,0c-0.1,0.1,0,0.2,0,0.2
					c0.1,0.1,0.2,0.2,0.3,0.2c0,0.1,0,0.1,0.1,0.2c-0.2-0.1-0.4-0.2-0.6-0.2c0-0.1,0-0.2,0-0.3c0-0.1,0-0.2,0-0.3
					c0.1-0.2,0-0.4-0.1-0.5c0,0,0,0.1,0,0.1c0.1,0.2,0,0.4-0.2,0.5c0,0,0,0,0,0c-0.1,0.1-0.1,0.2-0.1,0.4c0.1,0.1,0.1,0.2,0.1,0.3
					c0,0.1,0.1,0.1,0,0.2c-0.1,0.3-0.1,0.5,0,0.9c0.1,0,0.2,0,0.3,0c0.1,0,0.2,0,0.3,0c0.2,0.1,0.2,0.3,0.3,0.4
					c0,0.1-0.1,0.2-0.1,0.2s0.1,0.1,0.2,0.2c-0.2,0-0.2,0-0.2-0.1c0.1-0.2,0-0.4-0.2-0.6c-0.1,0-0.1,0-0.2,0.1
					c-0.3,0.1-0.3,0.1-0.2,0.4c0,0.1,0,0.2,0,0.3c0,0.1-0.1,0.2-0.1,0.3c0,0,0,0.1-0.1,0.1c-0.1,0.1-0.2,0.2-0.3,0.3
					c-0.1,0-0.2,0-0.2,0c-0.1,0-0.2-0.1-0.1-0.2c0.1,0.1,0.2,0.2,0.3,0.1c0-0.1,0-0.3,0-0.3c0.2,0,0.1-0.2,0.2-0.3
					c0.1-0.2,0.1-0.4,0.1-0.5c0,0,0-0.1,0-0.1c-0.3-0.3,0-0.6-0.1-0.9c0,0,0,0,0,0c0-0.2,0.1-0.4-0.1-0.6c-0.1-0.1-0.1-0.2,0-0.3
					c0.1-0.2,0.1-0.4,0.1-0.5c0,0,0-0.1-0.1-0.1c-0.2,0-0.4-0.1-0.6-0.1c0,0.1-0.1,0.2-0.1,0.3c0,0.3-0.1,0.6-0.4,0.7
					c0,0-0.1,0.1-0.1,0.1c0,0.1,0,0.1,0,0.2c0,0,0.1,0,0.1,0.1c0,0.2-0.1,0.4-0.1,0.7c0.2,0,0.3,0.1,0.3,0.2c0,0.1,0.1,0.1,0.1,0.2
					c0,0.1-0.1,0.2-0.1,0.3c-0.1-0.1-0.2-0.3-0.3-0.3c-0.3-0.2-0.6-0.5-1-0.5c-0.1,0-0.2,0-0.3,0.1c0,0,0,0.1,0,0.2
					c0,0.1,0.1,0.2,0,0.3c-0.1,0-0.2,0.1-0.1,0.2c0,0-0.1,0-0.1,0.1c0,0,0-0.1,0-0.1c0-0.1,0-0.2-0.1-0.3c-0.1,0.1-0.2,0.2-0.3,0.2
					c-0.1,0-0.1,0.1-0.2,0.1c-0.2,0-0.4,0-0.5,0.3c-0.1-0.1-0.1-0.2-0.1-0.2c0-0.1,0-0.2,0-0.2c0,0,0,0,0,0c0,0.1-0.1,0.1-0.1,0.2
					c-0.2-0.1-0.1,0.1-0.1,0.1c-0.1,0-0.2,0-0.2,0.1c-0.2,0.1-0.4,0.2-0.5,0.3c-0.1,0.1-0.2,0.1-0.2,0.3c0,0.2-0.1,0.2-0.2,0.3
					c-0.1,0-0.2-0.1-0.2-0.1c-0.2-0.2-0.2-0.4,0.1-0.5c0,0,0,0,0,0c0-0.4-0.2-0.4-0.7-0.4c0.2,0.1,0.2,0.3,0.2,0.4
					c0,0.1,0,0.1,0,0.2c0,0,0,0.1,0,0.1c0.1,0.1,0.1,0.2,0.1,0.3c0,0.1,0,0.2-0.1,0.3c0,0-0.1-0.1-0.1-0.1c-0.1-0.1-0.3-0.1-0.4,0
					c-0.1,0.1-0.2,0.2-0.3,0.2c-0.2,0.1-0.2,0.2-0.1,0.3c0,0.1,0.1,0.2,0.1,0.3c0,0,0,0,0,0c-0.3-0.1-0.5-0.2-0.8-0.3
					c0,0.1,0,0.2,0,0.2c0,0.1,0.1,0.1,0.2,0.2c0,0,0,0,0,0c0,0.1,0,0.1,0.1,0.2c-0.1,0.1-0.3,0-0.4-0.1c-0.1-0.1-0.2-0.1-0.2-0.2
					c0-0.1-0.1-0.2-0.1-0.3c0,0,0-0.1,0-0.1c0-0.1,0.1-0.2,0-0.3c-0.2-0.2-0.3-0.3-0.5-0.5c0,0,0,0,0,0c0,0,0.1,0,0.1,0.1
					c0.2,0.1,0.3,0.2,0.5,0.3c0.2,0.1,0.4,0.1,0.6,0.2c0.1,0,0.3,0,0.4,0c0.2-0.1,0.3-0.2,0.3-0.4c0-0.3-0.1-0.5-0.5-0.6
					c-0.1,0-0.1-0.1-0.2-0.1c-0.1-0.1-0.2-0.2-0.4-0.4c0,0-0.1-0.1-0.1-0.1c-0.2,0-0.5-0.1-0.6-0.2c0,0,0-0.1-0.1-0.1c0,0,0,0,0,0
					c0,0,0.1,0,0.1,0.1c0-0.1,0-0.1-0.2-0.2c0,0,0,0.1-0.1,0.1l-0.3,0c-0.1-0.1-0.1-0.2-0.2-0.3c0.2,0.1,0.3,0,0.4-0.2
					c-0.1-0.1-0.3-0.2-0.4-0.3c0,0.1-0.1,0.2-0.1,0.2c0,0,0,0,0,0c0-0.1,0-0.2,0-0.3c0,0-0.1,0-0.1-0.1c-0.1,0.2-0.1,0.3-0.2,0.4
					c0,0,0,0,0,0c0-0.1,0-0.2,0-0.3c-0.1,0.2-0.2,0.3-0.3,0.5c0,0,0,0,0,0c0.1-0.1,0.1-0.3,0.2-0.4c-0.1,0-0.1-0.1-0.2-0.1
					c0,0-0.1,0.1-0.1,0.1c0.1,0.1,0,0.2-0.1,0.2c-0.1,0.1-0.1,0.2-0.2,0.2c-0.1,0-0.2-0.1-0.3-0.1c0,0.1,0.1,0.2,0.1,0.2
					c-0.2-0.1-0.3,0-0.3,0.2c0-0.1,0-0.2,0-0.2c0,0-0.1,0.1-0.1,0.1c-0.2-0.1-0.1,0.1-0.2,0.1c0,0-0.1,0-0.1,0c0,0.1,0,0.1,0,0.2
					c-0.1-0.1-0.2-0.1-0.3-0.2c0,0.1-0.1,0.2-0.1,0.3c0.1,0,0.1,0,0.2,0c0.1,0.2-0.1,0.2-0.2,0.3c0.1,0,0.1,0,0.2,0.1c0,0,0,0,0,0
					l-0.2,0l0,0.2c0-0.1-0.1-0.1-0.1-0.1c0,0.1,0,0.2-0.1,0.2c0,0,0,0.1-0.1,0.1c-0.1,0-0.1,0.1-0.2,0.2c0,0,0,0.1-0.1,0.1
					c-0.2,0.1-0.1,0.4-0.3,0.5c-0.1,0.1-0.1,0.1-0.1,0.2c0,0,0,0.1,0,0.1c0,0,0,0.1,0,0.1c-0.1,0-0.2,0.1-0.1,0.3
					c-0.2,0-0.2,0.2-0.3,0.4c0,0.1,0.1,0.1,0.1,0.2c-0.1,0-0.1-0.1-0.2,0c-0.1,0-0.2,0.1-0.3,0.2c-0.1,0.1-0.2,0.1-0.2,0.2
					c0,0,0.1,0,0.1,0.1c-0.1,0.1-0.2,0.1-0.2,0.2c-0.1,0-0.1,0.1-0.2,0.2c0,0,0.1,0,0.1,0.1c-0.1,0-0.2,0.2-0.1,0.2
					c0,0,0,0.1,0.1,0.1c0.1,0,0.3,0,0.4,0c0,0,0,0.1-0.1,0.1c-0.1-0.1-0.2,0-0.3,0c-0.1,0-0.1,0.1,0,0.2c0,0,0,0.2,0,0.2
					c0.2-0.2,0.2-0.2,0.3-0.2c-0.1,0.1-0.2,0.2-0.2,0.3c-0.1,0-0.1,0.1-0.2,0.1c0,0,0,0,0,0c0.1,0,0.1,0,0.2,0
					c0,0.1-0.1,0.1-0.1,0.2c0,0,0,0.1,0,0.1c0.1,0.1,0.2,0.2,0.3,0.3c0,0,0.1,0,0.2-0.1c0.2-0.1,0.2-0.3,0.4-0.3c0,0,0-0.1,0-0.1
					c0-0.1,0-0.1,0-0.2c0,0.1,0.1,0.3,0.1,0.4c0.1,0.3,0.1,0.5,0.3,0.8c0.1,0.1,0,0.3-0.1,0.3c-0.1,0-0.1,0.1-0.2,0.1
					c0.1,0.1,0.2,0.2,0.2,0.3c0-0.1,0.1-0.2,0.1-0.3c0.1,0.2,0.2,0.1,0.3,0.1c0.1-0.2,0.1-0.2,0.3-0.3c0,0,0.1,0,0.1,0
					c0.1-0.3,0.1-0.5,0.2-0.8c0-0.1,0.1-0.3,0.2-0.3c0.1,0,0.1-0.1,0.1-0.1c-0.1,0-0.2,0-0.3,0c0,0,0,0,0-0.1c0.1,0,0.2,0.1,0.3,0
					c0.1,0,0.2-0.1,0.2-0.2c0-0.2-0.2-0.3-0.4-0.2c0-0.3,0.1-0.5,0.1-0.8c0,0,0,0,0,0c0.1-0.2,0.2-0.4,0.5-0.5
					c0.1-0.1,0.2-0.2,0.3-0.3c0,0,0-0.1,0-0.2c-0.1-0.2,0-0.3,0.1-0.4c0-0.1,0.1-0.1,0.2-0.2c0.1,0,0.2,0,0.3,0c0,0,0,0,0-0.1
					c0,0,0.1,0.1,0.1,0.1c0,0.1,0.1,0.2,0.1,0.3c0,0-0.1,0.1-0.1,0.1c0,0,0,0,0,0c-0.1,0.2-0.2,0.4-0.4,0.6c0,0.1-0.1,0.1-0.2,0.1
					c-0.1,0.1-0.2,0.2-0.2,0.4c0,0.2,0.1,0.4,0,0.6c0,0.1,0,0.2,0.1,0.2c0.1,0.1,0.2,0.1,0.3,0.2c0,0,0.1,0,0.1,0
					c0.1,0,0.2-0.1,0.3-0.1c0.2-0.1,0.5-0.1,0.7-0.2c0,0,0,0,0,0c-0.1,0.1,0,0.2,0.1,0.2c0.1,0,0.1,0,0.2,0.1
					c-0.2,0.1-0.3,0.1-0.5,0.2c-0.2,0-0.4-0.1-0.7,0c-0.1,0.1-0.2,0.1-0.1,0.2c0,0.1,0,0.3,0.2,0.2c0,0.2,0,0.4-0.1,0.5
					c-0.2,0-0.2-0.2-0.4-0.3c-0.1,0-0.1,0.1-0.2,0.1c-0.1,0.2-0.2,0.4-0.1,0.6c0,0.1,0,0.2,0,0.4c-0.2-0.1-0.2,0-0.3,0.1
					c0,0.1-0.1,0.1-0.2,0.1c0,0,0-0.1-0.1-0.2c-0.2,0-0.8,0.2-0.9,0.4c-0.1-0.1-0.1-0.1-0.2-0.1c0-0.1,0-0.1,0-0.2
					c-0.2,0.1-0.4,0.2-0.6,0.3c0-0.1,0-0.1,0-0.1c-0.1,0-0.2,0-0.2-0.1c-0.1-0.1-0.1-0.2-0.1-0.4c0.1,0.1,0.1,0.1,0.1,0.1
					c0,0,0.1,0,0.1,0c0-0.1,0-0.1,0-0.2c-0.1,0-0.1,0-0.2,0.1c0-0.1,0.1-0.1,0.1-0.2c0-0.1,0.1-0.1,0.2-0.2c-0.2,0-0.2-0.1-0.2-0.2
					c0-0.1,0-0.2,0-0.3c-0.1,0.1-0.2,0.2-0.3,0.2c-0.2,0.2-0.3,0.4-0.1,0.7c0,0,0,0.1,0,0.1c0,0.1,0,0.3,0,0.4c0,0,0,0,0,0
					c0,0.1-0.1,0.1-0.1,0.2c-0.1-0.1-0.2-0.1-0.3,0c0,0,0,0-0.1,0c-0.2,0-0.2,0-0.3,0.2c0,0,0,0.1,0,0.1c0,0,0,0,0,0l0-0.2
					c0,0,0,0,0,0c0,0.1-0.1,0.3-0.2,0.5c-0.1,0-0.2,0.1-0.4,0.2c0,0-0.1,0.1-0.1,0.1c0,0.1-0.1,0.2-0.2,0.3c0,0-0.1,0-0.1,0.1
					c-0.1,0.1-0.2,0.1-0.3,0c0,0-0.1,0-0.1,0c0,0.1,0,0.2,0.1,0.3c-0.1,0-0.2,0-0.3,0c-0.2-0.1-0.3,0-0.4,0c0,0.2,0.1,0.2,0.2,0.2
					c0.2,0,0.3,0.1,0.3,0.3c0,0,0,0.1,0.1,0.1c0.2,0.1,0.1,0.2,0.1,0.3c0,0.1,0,0.2,0,0.2c0,0.3-0.1,0.4-0.4,0.3
					c-0.3,0-0.7-0.1-1-0.1c-0.1,0-0.2,0.1-0.3,0.2c0,0,0,0.1,0,0.1c0,0,0,0.1,0,0.1c0.1,0.3,0,0.6-0.1,0.9c0,0.1,0,0.2,0.1,0.2
					c0,0.1,0,0.2,0,0.3c0,0,0.1,0,0.1,0c0.2,0,0.4-0.1,0.5,0.2c0,0.1,0.1,0.1,0.2,0c0.1-0.1,0.2-0.1,0.4-0.1
					c0.3,0.1,0.4-0.2,0.5-0.3c0.1,0,0.1-0.2,0.2-0.3c-0.1-0.1-0.1-0.2,0-0.3c0.1-0.2,0.3-0.4,0.5-0.5c0.1-0.1,0.2-0.1,0.1-0.3
					c0-0.1,0-0.2,0.1-0.2c0.1,0,0.2,0,0.4,0c0.1,0,0.1,0,0.2,0c0.2-0.1,0.3-0.2,0.4-0.3c0.1-0.1,0.1-0.1,0.2,0
					c0.1,0,0.2,0.1,0.2,0.2c0,0.1,0.1,0.2,0.2,0.3c0,0,0.1,0.1,0.2,0.1c0.2,0.1,0.3,0.2,0.5,0.4c0.1,0.1,0.2,0.1,0.2,0.2
					c0,0.1,0.1,0.2,0.1,0.3c-0.1,0.1-0.3,0.2-0.5,0.2c-0.1,0-0.1,0-0.2,0c0,0,0,0.1,0.1,0.1c0.1,0.1,0.2,0.1,0.3,0.2
					c0.1,0,0.1,0,0.1-0.1c0-0.1,0-0.2,0-0.3c0,0,0,0,0,0c0,0,0.1,0,0.1,0c0-0.1,0.1-0.2,0.1-0.2c0.1-0.1,0.1-0.1,0-0.2
					c0,0,0-0.1,0-0.2c0,0,0.1,0,0.1,0c0.1,0,0.1,0.1,0.2,0.1c-0.1-0.3-0.3-0.3-0.5-0.4c0,0,0-0.1,0-0.1c-0.3,0-0.4-0.1-0.5-0.3
					c0-0.1-0.1-0.2-0.2-0.3c-0.2-0.1-0.1-0.2-0.1-0.4c0,0,0.1-0.1,0.2-0.1c0,0.1,0.1,0.2,0.1,0.3c0.1-0.1,0.1-0.1,0.1-0.2
					c0.1,0.1,0.1,0.2,0.2,0.3c0,0.1,0.1,0.2,0.1,0.2c0.1,0,0.2,0.1,0.3,0.2c0.1,0.1,0.3,0.2,0.3,0.3c0,0.2,0,0.4,0.1,0.5
					c0,0.1,0.1,0.2,0.2,0.3c0.1,0.1,0.1,0.2,0.2,0.3c-0.1,0.2,0.1,0.4,0.3,0.4c0-0.1,0-0.1,0-0.2c0,0,0.1,0,0.1,0c0,0,0-0.1-0.1-0.2
					c0.1,0,0.1,0.1,0.2,0.1c0,0,0-0.1,0-0.1c0,0,0.1,0,0.1,0c-0.1-0.2-0.2-0.3-0.3-0.3c0-0.1,0-0.2,0-0.2c0-0.1,0-0.1,0-0.2
					c0.1,0,0.2,0,0.2,0.1c0,0,0-0.1,0-0.2c0.2-0.2,0.3,0,0.5,0c0,0.1-0.1,0.3-0.1,0.4c0,0,0,0,0,0c0,0,0.1-0.1,0.1-0.1
					c0,0.1,0,0.1,0,0.1c0,0,0,0.1,0,0.1c0,0-0.1,0-0.1,0c0,0,0,0.1,0,0.1c0.1,0,0.1,0.1,0.2,0.2c0.1,0.1,0.1,0.2,0.3,0.2
					c0,0,0.1,0,0.1,0.1c0.2,0.1,0.2,0.1,0.3-0.1c0,0,0,0,0,0c0.1,0,0.1,0.1,0.2,0.1c0.2,0.1,0.3,0.1,0.5,0c0,0,0.1,0,0.1,0
					c0.1,0,0.1,0,0.2,0c0,0.1,0,0.2,0,0.2c0,0.1,0,0.2,0,0.3c-0.1,0.2-0.2,0.4-0.3,0.7c-0.1,0.2-0.3,0.3-0.5,0.2
					c-0.1-0.1-0.2-0.1-0.3-0.1c-0.1,0-0.2,0.1-0.3,0.1c-0.1,0-0.2,0-0.2,0c-0.2,0-0.4-0.1-0.5-0.1c-0.2,0-0.3-0.1-0.5-0.2
					c0,0,0,0-0.1-0.1c-0.1,0-0.1-0.1-0.2-0.1c-0.1,0-0.3,0-0.4,0.1c-0.1,0.1-0.1,0.2-0.1,0.3c0,0,0,0.1-0.1,0.1
					c-0.1,0-0.2,0.1-0.2,0c-0.2,0-0.3-0.1-0.5-0.2c-0.1,0-0.1-0.1-0.1-0.1c-0.1-0.2-0.3-0.3-0.5-0.3c-0.3,0-0.5-0.2-0.7-0.3
					c0.1-0.1,0.2-0.1,0.2-0.2c0.1-0.1,0.1-0.2,0.1-0.2c-0.1-0.1-0.1-0.2,0-0.3c0,0,0-0.1,0-0.1c-0.1,0-0.1,0-0.2,0.1
					c0-0.2-0.1-0.1-0.2-0.1c-0.1,0.1-0.2,0.1-0.4,0c-0.1,0-0.2,0-0.4,0c0,0-0.1,0-0.1,0c-0.3-0.1-0.6,0-0.9,0.1
					c-0.3,0.1-0.5,0.3-0.9,0.3c0,0-0.1,0-0.1,0c-0.1,0-0.2,0-0.2-0.1c-0.1-0.1-0.2-0.1-0.2,0c-0.1,0.2-0.2,0.4-0.4,0.5
					c-0.2,0.1-0.4,0.4-0.4,0.6c0,0.2-0.1,0.3-0.2,0.4c-0.2,0.2-0.5,0.2-0.6,0.5c0,0,0,0-0.1,0.1c0,0,0,0.1-0.1,0.1
					c-0.1,0.3-0.3,0.5-0.4,0.8c0,0.1-0.1,0.2,0,0.3c0.1,0.1,0.1,0.2,0,0.3c0,0,0,0.1,0,0.1c0,0.1,0,0.3,0,0.4c0,0.1-0.1,0.2-0.1,0.2
					c0,0.1-0.1,0.2-0.2,0.3c0.1,0.1,0.2,0.2,0.2,0.4c0,0.1,0.1,0.2,0.2,0.2c0,0,0.1,0,0.1,0c0.1,0.2,0.3,0.3,0.4,0.5
					c0,0,0.1,0.1,0.1,0.2c0,0.1,0.1,0.2,0.2,0.3c0.2,0.1,0.4,0.3,0.6,0.4c0.2,0.1,0.4,0.3,0.7,0.1c0.2-0.1,0.5-0.1,0.7,0
					c0.1,0,0.2,0,0.3,0c0.3-0.2,0.6-0.3,1-0.3c0.2,0,0.3,0.1,0.4,0.3c0,0.1,0.1,0.2,0.2,0.1c0.1,0,0.2,0,0.3,0
					c0.2,0,0.4,0.2,0.4,0.4c0,0.1,0,0.2-0.1,0.4c0,0.1-0.1,0.2-0.1,0.3c0,0,0,0.1,0,0.2c0.1,0.2,0.3,0.4,0.5,0.6
					c0.1,0.1,0.2,0.2,0.2,0.3c0.1,0.1,0.1,0.3,0.1,0.4c0,0.1,0,0.2,0,0.3c0,0.1,0,0.2,0.1,0.2c0.1,0.1,0.1,0.4,0,0.4
					c-0.2,0.2-0.3,0.5-0.3,0.7c-0.1,0.3-0.1,0.5,0.1,0.7c0.3,0.4,0.4,0.9,0.5,1.4c0,0.2,0,0.4,0.2,0.6c0.2,0.1,0.2,0.3,0.3,0.5
					c0.1,0.1,0.1,0.3,0.2,0.4c0.1,0.1,0.1,0.2,0,0.3c0,0,0,0.1,0.1,0.1c0.5,0,1,0.1,1.4,0.1c0.1,0,0.2,0,0.3,0
					c0.1-0.1,0.2-0.1,0.3-0.1c0.3-0.2,0.5-0.5,0.6-0.8c0.1-0.1,0.1-0.2,0.2-0.3c0.2-0.2,0.2-0.4,0.2-0.6c0-0.2,0-0.2,0.1-0.2
					c0.1,0,0.2-0.1,0.2-0.1c0.1,0,0.2-0.1,0.2-0.2c0-0.2,0.1-0.5-0.1-0.7c-0.1-0.1-0.1-0.2,0.1-0.3c0.1-0.1,0.2-0.2,0.3-0.2
					c0.1-0.1,0.1-0.2,0.2-0.2c0.2-0.1,0.4-0.2,0.5-0.4c0.1-0.1,0.1-0.2,0.1-0.3c0-0.2-0.1-0.4,0-0.6c0-0.1,0-0.2,0-0.2
					c-0.1-0.2-0.2-0.3-0.2-0.5c0,0,0-0.1,0-0.2c-0.1-0.1-0.1-0.2,0-0.3c0-0.1,0.1-0.2,0.1-0.3c0.1-0.4,0.4-0.5,0.7-0.8
					c0.2-0.2,0.4-0.3,0.6-0.5c0.3-0.3,0.6-0.6,0.7-1c0,0,0-0.1,0.1-0.1c0.2-0.2,0.2-0.4,0.2-0.7c0-0.1-0.1-0.1-0.2-0.1
					c-0.1,0-0.2,0.1-0.2,0.1c-0.2,0-0.3,0.1-0.5,0.1c-0.1,0-0.3,0-0.4,0.1c0,0-0.1,0-0.1-0.1c-0.1-0.1-0.2-0.1-0.2-0.2
					c0.1-0.1,0.1-0.1,0-0.2c-0.1-0.1-0.2-0.2-0.3-0.3c-0.1-0.1-0.1-0.1-0.2-0.2c-0.2-0.1-0.3-0.2-0.3-0.3c0-0.1-0.1-0.3-0.2-0.3
					c-0.2-0.1-0.2-0.3-0.2-0.5c0-0.1-0.1-0.3-0.2-0.4c-0.1-0.1-0.3-0.2-0.2-0.4c0,0,0,0,0,0c-0.1-0.1-0.2-0.2-0.2-0.4
					c-0.1-0.2-0.2-0.5-0.4-0.7c0,0,0-0.1,0-0.2c0.1,0.1,0.1,0.2,0.2,0.3c0,0.1,0.1,0.1,0.2,0.1c0-0.1,0.1-0.1,0.1-0.2
					c0,0,0.1,0.1,0.1,0.2c0.1,0.2,0.3,0.5,0.4,0.7c0,0,0,0.1,0.1,0.1c0.2,0.1,0.3,0.3,0.3,0.5c0,0.2,0,0.3,0.2,0.4
					c0.1,0,0.1,0.2,0.2,0.2c0.1,0.1,0.1,0.2,0.2,0.3c0.1,0.1,0.1,0.3,0.2,0.4c0.1,0.2,0.1,0.4,0.1,0.6c0,0,0.1,0.1,0.1,0.1
					c0.1,0,0.2,0,0.3-0.1c0,0,0.1,0,0.1-0.1c0.1,0,0.2-0.1,0.3-0.1c0.1-0.1,0.3-0.1,0.4-0.2c0.1-0.1,0.3-0.1,0.4-0.2
					c0,0,0.1-0.1,0.1-0.1c0.1-0.1,0.1-0.1,0.2-0.2c0.2-0.1,0.4,0,0.5-0.2c0,0,0.1,0,0.1,0c0.1-0.1,0.2-0.2,0.3-0.3c0,0,0-0.1,0-0.1
					c0-0.1,0-0.1,0.1-0.2c0.2-0.1,0.2-0.2,0.3-0.4c0,0,0-0.1,0-0.1c-0.1-0.1-0.3-0.3-0.5-0.3c-0.1,0-0.2-0.2-0.2-0.3
					c0-0.1,0-0.1,0-0.2c-0.1,0.2-0.3,0.3-0.4,0.4c0,0-0.1,0.1-0.1,0.1c-0.1,0-0.3,0-0.4,0c0,0-0.1-0.1-0.1-0.1c0-0.1,0-0.1,0-0.2
					c0,0,0-0.1,0-0.1c0,0,0,0,0,0c0,0.1-0.1,0.1-0.1,0.2c-0.1-0.1-0.1-0.2-0.1-0.3c0,0,0-0.1-0.1-0.1c-0.1-0.1-0.2-0.2-0.3-0.3
					c-0.1-0.2-0.1-0.3,0-0.5c0,0,0,0,0,0c0.1,0,0.2,0.1,0.3,0.1c0.1,0.1,0.2,0.2,0.2,0.4c0,0,0,0.1,0.1,0.1c0.1,0.1,0.3,0.2,0.4,0.2
					c0.1,0.1,0.4,0.1,0.5,0c0.1-0.1,0.2-0.1,0.2,0c0,0.2,0.2,0.2,0.3,0.2c0.1,0,0.2,0,0.3,0c0.1,0,0.2,0.1,0.4,0c0.3,0,0.6,0,0.9,0
					c0,0,0.1,0,0.1,0c0.1,0.1,0.3,0.3,0.4,0.4c0.1,0.1,0.2,0.1,0.3,0.1l0.1,0c0,0,0,0,0,0c-0.1,0-0.2,0.1-0.3,0.1
					c0.1,0.1,0.2,0.1,0.2,0.2c0.2,0.2,0.4,0.1,0.5-0.1c0,0,0-0.1,0.1-0.1c0,0.1,0,0.2,0,0.3c0,0.1,0,0.2,0,0.2c0,0.3,0,0.6,0.2,0.9
					c0.2,0.4,0.4,0.9,0.6,1.3c0,0.1,0.1,0.1,0.1,0.2c0.1,0.1,0.1,0.1,0.2,0c0-0.1,0.1-0.1,0.1-0.1c0,0,0,0,0.1-0.1
					c0-0.1,0.1-0.1,0.2-0.2c0-0.2,0.2-0.5,0.1-0.8c0,0,0-0.1,0-0.2c0,0,0.1-0.1,0.1-0.1c0.1-0.1,0.2-0.1,0.3-0.2
					c0.3-0.2,0.5-0.4,0.8-0.6c0.1-0.1,0.2-0.1,0.2-0.2c0-0.2,0.1-0.2,0.2-0.3c0.2,0.1,0.3,0,0.4,0c0.1,0,0.1-0.1,0.2-0.2
					c0.1,0,0.2,0.1,0.2,0.2c0.1,0.1,0.1,0.3,0.2,0.4c0.1,0.1,0.2,0.2,0.3,0.4c0.1,0.1,0,0.3,0,0.5c0.1,0.1,0.4,0,0.5-0.2
					c0.2,0,0.2,0.2,0.2,0.4c0,0.1,0,0.2,0.1,0.3c0.1,0.2,0.1,0.5,0.1,0.7c0,0.2,0,0.3-0.1,0.4c0.1,0.1,0.1,0.1,0.2,0.1
					c0.2,0.2,0.3,0.4,0.3,0.6c0,0.3,0.3,0.5,0.6,0.7c0,0,0.1,0,0.2,0c0-0.1,0-0.1,0-0.2c0-0.1-0.1-0.2-0.1-0.3
					c0-0.3-0.2-0.5-0.4-0.6c-0.2,0-0.2-0.1-0.2-0.2c0-0.1,0-0.3-0.2-0.3c0-0.1,0-0.2,0-0.2c0-0.2,0.1-0.4,0.1-0.6
					c0,0,0.1-0.1,0.1-0.1c0,0,0.1,0,0.1,0.1c0,0,0,0.1,0,0.1c0.2,0,0.3,0,0.4,0.1c0.1,0.2,0.2,0.3,0.4,0.3c0.1,0,0.1,0.1,0.1,0.2
					c0,0.1,0,0.1,0,0.2c0,0,0,0,0,0c0.1-0.1,0.1-0.1,0.2-0.2c0.1-0.1,0.1-0.2,0.3-0.2c0.2,0,0.4-0.1,0.4-0.4c0-0.2,0-0.4-0.1-0.6
					c0-0.1-0.1-0.1-0.1-0.2c-0.2-0.2-0.3-0.3-0.5-0.5c0,0,0-0.1,0-0.2c0.1-0.2,0.2-0.4,0.5-0.5c0.1,0,0.2,0,0.3,0
					c0.1,0.1,0.1,0.2,0.1,0.3c0,0,0,0,0,0c0-0.2,0-0.2,0.2-0.3c0.1,0,0.1,0,0.2,0c0.1,0,0.2,0,0.2-0.1c0.1,0,0.1-0.1,0.2,0
					c0,0,0,0,0.1,0c0.1,0,0.2-0.1,0.3-0.1c0.1,0,0.1-0.1,0.2-0.1c0.1-0.1,0.2-0.2,0.3-0.3c0.2-0.1,0.3-0.2,0.3-0.4c0,0,0,0,0,0
					c0.2-0.2,0.4-0.5,0.5-0.8c-0.1,0-0.1-0.1-0.2-0.1c0.1,0,0.1-0.1,0.2-0.1c0,0-0.1-0.1-0.1-0.1c0,0,0.1-0.1,0.1-0.1
					c-0.1-0.1-0.2-0.2-0.2-0.3c-0.1-0.2-0.1-0.4-0.3-0.4c0.1-0.1,0.1-0.1,0.1-0.2c0.1-0.1,0.2-0.1,0.2-0.1c0-0.1,0.2-0.1,0.3-0.2
					c0,0,0.1,0,0.1-0.1c0,0,0,0,0,0c0,0-0.1,0-0.1,0c-0.2-0.1-0.3-0.1-0.4,0c0,0-0.1,0-0.1,0c-0.1-0.1-0.1-0.1-0.2-0.2
					c0,0-0.1-0.1-0.1-0.2c0,0,0.1-0.1,0.1-0.1c0.1,0,0.1,0,0.2-0.1c0.1-0.1,0.3-0.3,0.4-0.4c0,0,0.1,0,0.1,0c0,0,0,0.1,0,0.2
					c0,0.1-0.1,0.1-0.1,0.2c0.1,0.1,0.1,0.1,0,0.2c0.1-0.1,0.2-0.1,0.3-0.2c0.1,0,0.2-0.1,0.2-0.1c0.1,0,0.2,0.1,0.3,0.1
					c0,0.1-0.1,0.2-0.1,0.4c0,0,0.1,0.1,0.1,0.1c0.2-0.1,0.3,0,0.3,0.2c0,0-0.1,0-0.1,0.1c0.3,0.2,0,0.4,0.1,0.6
					c0.1-0.1,0.3-0.1,0.4-0.2c0.2-0.1,0.2-0.2,0.2-0.4c0-0.2-0.2-0.4-0.3-0.6c-0.1-0.1-0.1-0.2,0-0.3c0.2-0.1,0.4-0.2,0.3-0.4
					c0,0,0-0.1,0.1-0.1c0.1-0.1,0.2-0.3,0.4-0.4c0.1,0,0.1,0.1,0.2,0.1c0.2,0.1,0.4-0.1,0.5-0.2c0.2-0.2,0.4-0.5,0.6-0.8
					c0.2-0.8,0.4-1.6,0.5-2.5c0,0,0,0,0,0c-0.1-0.1-0.2-0.1-0.3-0.1c0,0.1,0,0.1,0,0.2c-0.1,0-0.2,0-0.2,0c0-0.1,0-0.1,0-0.2
					c0,0.1-0.1,0.1-0.1,0.1c0,0,0,0,0,0c0-0.1,0-0.2,0-0.2c-0.1,0-0.2,0-0.3-0.1c0-0.1,0-0.1,0-0.1c0.3-0.3,0.6-0.7,1-1
					c0,0,0.1-0.1,0.1-0.1c0-0.1,0.1-0.1,0.1-0.2c0-0.6,0.1-1.2,0.1-1.8C48,22.4,47.8,20.8,47.5,19.3z"/>
			</g>
		</g>
		<g>
			<path fill="#415A6B" d="M45,32.4H3c-1.7,0-3-1.3-3-3V18.6c0-1.7,1.3-3,3-3h42c1.7,0,3,1.3,3,3v10.7C48,31,46.7,32.4,45,32.4z"/>
		</g>
		<g>
			<path fill="#FFFFFF" d="M9.5,27.9H7.2l-2.7-7.8h2.2l1.5,4.7l1.5-4.7H12l1.5,4.7l1.5-4.7h2.3l-2.7,7.8h-2.3l-1.4-4.2L9.5,27.9z"/>
			<path fill="#FFFFFF" d="M22.5,27.9h-2.2l-2.7-7.8h2.2l1.5,4.7l1.5-4.7H25l1.5,4.7l1.5-4.7h2.3l-2.7,7.8h-2.3L24,23.7L22.5,27.9z"
				/>
			<path fill="#FFFFFF" d="M35.6,27.9h-2.2l-2.7-7.8H33l1.5,4.7l1.5-4.7h2.1l1.5,4.7l1.5-4.7h2.3l-2.7,7.8h-2.3l-1.4-4.2L35.6,27.9z
				"/>
		</g>
	</g>
</g>
</svg>
