<?xml version="1.0" encoding="utf-8"?>
<!-- Generator: Adobe Illustrator 19.0.1, SVG Export Plug-In . SVG Version: 6.00 Build 0)  -->
<svg version="1.1" id="Layer_1" xmlns="http://www.w3.org/2000/svg" xmlns:xlink="http://www.w3.org/1999/xlink" x="0px" y="0px"
	 viewBox="0 0 48 48" style="enable-background:new 0 0 48 48;" xml:space="preserve">
<style type="text/css">
	.st0{fill:#344A5E;}
	.st1{fill:#F05540;}
	.st2{fill:#FFD15C;}
	.st3{fill:#F7B64C;}
	.st4{fill:#CED6E0;}
	.st5{fill:#415A6B;}
	.st6{fill:#F3705A;}
	.st7{fill:#E8EAE9;}
	.st8{fill:#F3F3F3;}
	.st9{fill:#66C6B9;}
	.st10{fill:#FFFFFF;}
</style>
<g>
	<g>
		<g>
			<g>
				<g>
					<g>
						<path class="st0" d="M7.2,42.4V48h13.9c-0.1-0.3-0.2-0.5-0.4-0.8c-1.9-3-0.6-5-0.5-6.8c0-1.8-1.9-4.1-1.9-4.1S17,36,15.7,35.7
							s-1.8-0.8-1.8-0.8s1.9,4.7,2.2,6.6c0.3,1.9-0.9,6.3-0.9,6.3s-0.4-1.6-1.5-3.5s-7-9.4-7-9.4l-1.4-0.2c0,0-1.3,0.6-2.2,1.1
							c-0.9,0.4-1.8,0.9-1.8,0.9C5.4,36,7.2,42.4,7.2,42.4z"/>
					</g>
				</g>
				<g>
					<g>
						<path class="st1" d="M12.4,37.3l0.9,0.5c0,0,0.5,1.4,0.9,2.8c0.5,1.4,1.1,6.6,1.1,6.6l-0.4,0.5l-1.6-4.3c0,0,0-1.9-0.3-2.8
							c-0.3-1-0.7-2.4-0.7-2.4L12.4,37.3z"/>
					</g>
				</g>
				<g>
					<g>
						<g>
							<polygon class="st2" points="15.8,23.7 15.7,23.7 15.7,23.7 							"/>
						</g>
						<g>
							<path class="st2" d="M17,31.1c-0.3,0-0.4,0-0.4,0s0,0.3,0,0.5c0.1,0.1,0,0.4-0.3,0.4c0,0,0.3,0.3-0.1,0.7c0,0-0.4,0.4-0.3,1
								c0.1,0.7-0.7,0.8-1.2,0.7s-1.4-0.5-1.4-0.5L12.7,37l-5.1-3.7c0,0,0.6-1.7,0.7-2s0.1-0.5,0.1-0.5s-0.1-3.7,0.7-5
								c0.7-1.3,6.1-2.1,6.7-2.1l1.2,1.2c0,0,0.4,2.4,0.5,3c0,0,0,0.3-0.2,0.4C17,28.5,17,28.9,17,29s0.5,1.2,0.5,1.5
								C17.5,30.9,17.4,31.1,17,31.1z"/>
						</g>
					</g>
					<g>
						<g>
							<path class="st0" d="M11.2,29.7h1c0,0-0.4-1.3,0.1-2.1c0.4-0.8,1.4-1,1.8-1.1c0.4-0.1,0.1-1.2-0.2-1.7
								c-0.3-0.4,0.6-0.4,1.4-0.2c0.8,0.2,1.5,0.5,1.7,0.4s1.4-1.6,0.5-2.4s-3.3-1.8-5.5-1.9s-3.2,1.1-4.1,2.2
								c-0.9,1-0.9,3.7-0.5,4.8s1,3.1,0.9,3.6c0,0,0.6-0.6,0.9-2.3c0.4-2.1,1.6-1.6,1.9-1.2C11.3,28.1,11.2,29.7,11.2,29.7z"/>
						</g>
					</g>
					<g>
						<g>
							
								<ellipse transform="matrix(-0.2329 -0.9725 0.9725 -0.2329 -15.2027 44.5979)" class="st2" cx="10" cy="28.3" rx="1.7" ry="1"/>
						</g>
					</g>
					<g>
						<g>
							<path class="st3" d="M10,31.2c0,0.1,1.2,3,2.9,5.2l0.5-2.5C13.3,33.9,10.9,32.5,10,31.2z"/>
						</g>
					</g>
					<g>
						<g>
							<path class="st4" d="M11,35.2h1.7h0.9l1.1,1.5c0,0,1.1,4.8,0.9,7.8s-0.4,3.3-0.4,3.3S14,44.4,13,42.9s-4.1-5.5-4.1-5.5
								L11,35.2z"/>
						</g>
					</g>
					<g>
						<g>
							<path class="st5" d="M14.9,40.4c0.2,1.1,0.3,5.7,0.1,7.6h0.1c0.3-0.8,1.1-2.9,1.4-5.4c0.3-3.2-1.2-6.2-1.2-6.2l-0.8-0.3
								l0.2-0.3l-1.1-1l0.4,0.6C13.8,35.5,14.8,39.1,14.9,40.4z"/>
						</g>
					</g>
					<g>
						<g>
							<path class="st6" d="M10.4,35.4l2-0.3h0.2c0,0,0.7-0.3,1,0c0.2,0.3-0.4,1.3-0.3,2.7c0,0-0.8,0-1.1,0.3c0,0-0.5-1.2-1.3-1.8
								C10.1,35.7,10.4,35.4,10.4,35.4z"/>
						</g>
					</g>
				</g>
				<g>
					<g>
						<path class="st7" d="M13.3,33.9c0,0-0.5,0.8-0.7,1.2c0,0,0.5,0,0.8,0.3c0.3,0.2,0.3,1.7,0.3,1.7s0.4-0.2,0.5-0.8
							c0-0.6-0.4-1.9-0.4-2c-0.1-0.1-0.1-0.1-0.1-0.1L13.3,33.9z"/>
					</g>
				</g>
				<g>
					<g>
						<path class="st7" d="M8.1,31.8c0,0,0.2,0.7,0.8,1.2s3.5,2,3.5,2l-2.2,3.3l-3.5-4.1c0,0,0.4-1.1,0.7-1.5
							C7.6,32.3,7.9,31.8,8.1,31.8z"/>
					</g>
				</g>
				<g>
					<g>
						<path class="st5" d="M6,35.5c0.3,0.2,1.2,0.4,1.2,0.4l-0.4,0.7c1.9,1.7,4.3,5.3,5.9,7.2c0.8,1,1.6,2.8,2.1,4.3h0.5
							c-0.6-2.3-1.8-5.3-3.1-7.7c-2-3.5-3.5-5.2-4.3-6c-0.8-1-0.7-1.4-0.7-1.4c-0.5,0.1-1.1,0.5-1.5,1.1c-0.4,0.5-0.4,0.6-0.4,0.6
							S5.7,35.3,6,35.5z"/>
					</g>
				</g>
				<g>
					<g>
						<path class="st5" d="M1.7,48h7.4c-0.4-1.4-2-5.6-2-5.6S5.4,36,1.3,36.5c-1.7,1.1-1.5,5.6-0.7,8.3C0.8,45.7,1.2,46.8,1.7,48z"
							/>
					</g>
				</g>
				<g>
					<g>
						<path class="st5" d="M20.1,40.4c0,0.6-0.2,1.1-0.3,1.8l0,0l0,0c0,0-0.7,1-0.9,2.1c-0.1,1,1.4,3,2,3.7h4.6c-0.6-1-1.4-2-2-2.6
							c-1-1.2-1.6-2.7-1.6-3.5s-1.3-2.8-2-4.1s-1.8-1.5-1.8-1.5S20.2,38.6,20.1,40.4z"/>
					</g>
				</g>
			</g>
			<g>
				<g>
					<g>
						<path class="st0" d="M30.7,37.3c0,0-2.5,0.7-3.4,3c-0.8,1.8-0.1,3.8-0.1,3.8s2.8-4.4,2.9-4.4S30.7,37.3,30.7,37.3z"/>
					</g>
				</g>
				<g>
					<g>
						<g>
							<path class="st2" d="M37.3,31.4L37.1,32L37,33.6l-5.3,4.1c0,0-0.1-1.3-0.2-1.6s-0.1-0.4-0.4-0.5c-0.4-0.1-0.9-0.7-1-1.1
								c-0.2-0.4-0.6-0.9-0.8-1.3c-0.2-0.3-0.7-2.2-0.7-3.1s0-1.3-0.1-1.6c0-0.4,0-0.5,0-0.5s-0.2-2.6,0.4-3.9s6.4-1.3,7.3,0.4
								C37.2,26,37.5,29.7,37.3,31.4z"/>
						</g>
					</g>
					<g>
						<g>
							<path class="st5" d="M37.4,23.9c0,0-0.8-2.5-5-3c-4-0.5-4.7,2.8-3.9,3.4c0,0-0.6,0.7-0.4,2c0.2,1.1,0.3,1.5,0.4,1.7
								c0-0.2,0-0.6,0.1-1.4c0.1-1.1,0.7-2.1,0.7-2.1s0.8,0.1,2.6-0.2c1.7-0.3,2.8,0,2.7,0.7s-0.4,1.1,0,1.7s0.7,0.9,0.7,2.4
								c0,0.9,0,1.2,0,1.4H36c0-0.3,0.1-1.1,0.4-1.5c0.4-0.5,0.8,0,0.8,0.6s-0.1,2.5-0.1,2.5s0.4-0.3,0.6-1.5
								C37.9,29.3,38.5,27,37.4,23.9z"/>
						</g>
					</g>
					<g>
						<g>
							
								<ellipse transform="matrix(0.2473 -0.9689 0.9689 0.2473 -1.3792 58.2458)" class="st2" cx="36.8" cy="30" rx="1.5" ry="0.9"/>
						</g>
					</g>
					<g>
						<g>
							<path class="st3" d="M35.6,32.7c-2.8,3.3-4.3,2.9-4.5,2.8c0.3,0.1,0.3,0.2,0.4,0.5s0.2,1.6,0.2,1.6c-1.9,1.4-1.9,2.8-0.3,4.3
								c2.5-1.2,4-3,3-6.4C35.1,34.1,35.6,32.7,35.6,32.7z"/>
						</g>
					</g>
					<g>
						<g>
							<path class="st4" d="M35.1,48l1.5-8.8l-4.4-2.3l-0.8,0.7l-1.9,2.7c0,0-2.2,4.5-2.6,7.6L35.1,48L35.1,48z"/>
						</g>
					</g>
				</g>
				<g>
					<g>
						<path class="st0" d="M27.9,48c0.4-2.6,0.9-4.9,0.9-4.9l-0.9,0.3L27.1,48H27.9z"/>
					</g>
				</g>
				<g>
					<g>
						<path class="st5" d="M27.5,48c0.1-1.1,0.3-2,0.4-2.5c0.4-1.3,2.1-5.2,2.5-6.1c0.4-0.9,0.5-1,0.5-1l-0.4-0.7l-1.7,1.9l0.3,0.8
							c0,0-0.9,0.8-1.3,1.1c0,0-0.9,1.8-1.2,4c-0.1,0.6-0.2,1.5-0.2,2.5H27.5z"/>
					</g>
				</g>
				<g>
					<g>
						<path class="st0" d="M40.2,48c-0.4-1.2-0.8-2.1-0.8-2.5c-0.1-1.2,0.1-3.9,1-5.6c0.8-1.7,2.1-2.7,3.2-2.7
							c1.1,0.1,1.9,0.5,1.9,0.5s-0.4-0.6-2.8-1.2c-2.4-0.5-3.8-1.3-3.8-1.3L38,35.1l-3.2,3.7L32.6,48H40.2z"/>
					</g>
				</g>
				<g>
					<g>
						<path class="st8" d="M38,34.9c0,0-2.5,3.1-3.2,3.7C34,39.2,33,40.2,33,40.2c0-0.5-0.8-3.3-0.8-3.3s2.9-2,3.8-2.6
							c0.9-0.6,1.1-1,1.1-1C37.5,33.5,38,34.9,38,34.9z"/>
					</g>
				</g>
				<g>
					<g>
						<path class="st8" d="M31.4,35.9c0.1,0,0.4,1.5,0.4,2.4s-0.4,1.1-0.4,1.1s-0.1-0.5-0.2-1.1c0-0.1-0.1-0.1-0.1,0
							c0,0.4,0,1-0.1,1.3c-0.2,0.7-0.2,0.7-0.2,0.7s0.1-0.6-0.1-1.2c-0.1-0.6-0.5-1.1-0.3-1.6s0.3-0.7,0.5-0.9S31.2,35.7,31.4,35.9z
							"/>
					</g>
				</g>
				<g>
					<g>
						<path class="st5" d="M33.4,48c0.4-2.2,0.8-4.1,2.8-7.1l-0.6-1.2l1.8-0.9c0,0,0.9-2.3,1.3-3c0.4-0.6-0.1-1.1-0.5-1.4
							c-0.4-0.3-0.2-0.8-0.8-0.9c0,0,0,0.3-0.2,0.7s-2.7,3.6-3.8,7c-1,3-1.5,4-1.7,6.7h1.7V48z"/>
					</g>
				</g>
				<g>
					<g>
						<path class="st5" d="M39.6,48H48c-0.2-1.8-0.4-3.3-0.5-3.8c-0.2-1.2,0.1-5.3-2.1-6.5l0,0l0,0c-0.1,0-0.9-0.4-1.9-0.5
							c-1.1-0.1-2.3,1-3.2,2.7c-0.8,1.7-1.1,4.4-1,5.6C39.4,45.5,39.5,46.6,39.6,48z"/>
					</g>
				</g>
			</g>
		</g>
		<g>
			<g>
				<g>
					<g>
						<path class="st9" d="M21,6.5v8c0,0.8,0.6,1.4,1.4,1.4h6.4l4.9,3v-3h0.9c0.8,0,1.4-0.6,1.4-1.4v-8c0-0.8-0.6-1.4-1.4-1.4H22.4
							C21.7,5.1,21,5.8,21,6.5z"/>
					</g>
				</g>
				<g>
					<circle class="st10" cx="32.7" cy="10.5" r="1.3"/>
				</g>
			</g>
			<g>
				<g>
					<g>
						<path class="st6" d="M30.2,1.7v9.7c0,0.9-0.8,1.7-1.7,1.7h-7.8l-5.9,3.6v-3.6h-1.1c-0.9,0-1.7-0.8-1.7-1.7V1.7
							C12,0.8,12.8,0,13.7,0h14.8C29.5,0,30.2,0.8,30.2,1.7z"/>
					</g>
				</g>
				<g>
					<circle class="st10" cx="16" cy="6.6" r="1.6"/>
					<circle class="st10" cx="21.1" cy="6.6" r="1.6"/>
					<circle class="st10" cx="26.2" cy="6.6" r="1.6"/>
				</g>
			</g>
		</g>
	</g>
</g>
</svg>
