<?xml version="1.0" encoding="utf-8"?>
<!-- Generator: Adobe Illustrator 18.0.0, SVG Export Plug-In . SVG Version: 6.00 Build 0)  -->
<!DOCTYPE svg PUBLIC "-//W3C//DTD SVG 1.1//EN" "http://www.w3.org/Graphics/SVG/1.1/DTD/svg11.dtd">
<svg version="1.1" id="Layer_1" xmlns="http://www.w3.org/2000/svg" xmlns:xlink="http://www.w3.org/1999/xlink" x="0px" y="0px"
	 viewBox="0 0 48 48" enable-background="new 0 0 48 48" xml:space="preserve">
<g>
	<g>
		<g>
			<g>
				<path fill="#8AD7F8" d="M47.2,18.7l-18-18c-1-1-2.6-1-3.6,0l-18,18c-1,1-1,2.6,0,3.6c1,1,2.6,1,3.6,0L27.5,6.2l16.1,16.1
					c1,1,2.6,1,3.6,0v0C48.3,21.3,48.3,19.7,47.2,18.7z"/>
			</g>
			<g>
				<polygon fill="#E8EAE9" points="43.6,41.8 43.6,22.3 27.5,6.2 11.3,22.3 11.3,41.8 				"/>
			</g>
		</g>
		<g>
			<path fill="#F3705A" d="M21.6,38.9c1.7-2.4,2.8-6,2.8-10.1c0-7.4-3.7-13.4-8.2-13.4c-1,0-1.9,0.3-2.8,0.8c-0.3-0.1-0.7-0.2-1-0.2
				C8.8,16.1,6,21.8,6,28.8c0,4.1,1,7.7,2.5,10.1H21.6z"/>
			<polygon fill="#E8EAE9" points="20.5,48 19.3,35.4 11.2,35.4 9.9,48 			"/>
			<g>
				<g>
					<polygon fill="#4EC0AA" points="16.3,40.3 17.2,39.5 15.2,37.5 13.3,39.5 14.1,40.3 					"/>
				</g>
				<g>
					<polygon fill="#66C6B9" points="17,48 16.3,40.3 14.1,40.3 13.5,48 					"/>
				</g>
			</g>
			<g>
				<polygon fill="#F7B64C" points="18.7,32.7 18.7,34 15.2,37.5 15.2,37.5 11.8,34 11.8,32.7 				"/>
			</g>
			<path fill="#415A6B" d="M30.5,48l-1.7-7.1c-0.3-1.1-1-2-2.1-2.5l-7.4-3.1l-4,12.6H30.5z"/>
			<polygon fill="#F3F3F3" points="18.7,34 19.3,35.4 17.9,39.9 15.2,37.5 			"/>
			<polygon fill="#344A5E" points="17.5,48 22.2,41.4 19.5,39.7 22.5,38.4 19.3,35.4 15.3,48 			"/>
			<path fill="#415A6B" d="M15.2,48l-4-12.6l-7.4,3.1c-1.1,0.4-1.8,1.4-2.1,2.5L0,48H15.2z"/>
			<polygon fill="#F3F3F3" points="11.8,34 11.2,35.4 12.6,39.9 15.2,37.5 			"/>
			<polygon fill="#344A5E" points="8.2,41.4 12.9,48 15.2,48 11.2,35.4 8,38.4 11,39.7 			"/>
			<path fill="#FFD15C" d="M16.8,20.4C15.2,22,12.9,23,10,23c-0.4,0-0.7,0-1.1-0.1c-0.2,0.9-0.4,1.8-0.4,2.8c0,4.7,3,8.6,6.7,8.6
				c3.7,0,6.7-3.8,6.7-8.6c0-1.4-0.3-2.6-0.7-3.8C19.5,21.8,18,21.2,16.8,20.4z"/>
		</g>
	</g>
</g>
</svg>
