<?xml version="1.0" encoding="utf-8"?>
<!-- Generator: Adobe Illustrator 18.0.0, SVG Export Plug-In . SVG Version: 6.00 Build 0)  -->
<!DOCTYPE svg PUBLIC "-//W3C//DTD SVG 1.1//EN" "http://www.w3.org/Graphics/SVG/1.1/DTD/svg11.dtd">
<svg version="1.1" id="Layer_1" xmlns="http://www.w3.org/2000/svg" xmlns:xlink="http://www.w3.org/1999/xlink" x="0px" y="0px"
	 viewBox="0 0 48 48" enable-background="new 0 0 48 48" xml:space="preserve">
<g>
	<g>
		<g>
			<path fill="#415A6B" d="M43.5,36.2H4.5c-1.2,0-2.1-0.9-2.1-2.1V6.9c0-1.2,0.9-2.1,2.1-2.1h38.9c1.2,0,2.1,0.9,2.1,2.1v27.2
				C45.6,35.3,44.6,36.2,43.5,36.2z"/>
			<g>
				<rect x="5.9" y="8.4" fill="#FFFFFF" width="36.1" height="24.3"/>
			</g>
		</g>
		<g>
			<g>
				<path fill="#E8EAE9" d="M48,38L48,38H0l0,0c0,2.9,2.3,5.2,5.2,5.2h37.6C45.7,43.1,48,40.8,48,38z"/>
			</g>
			<g>
				<polygon fill="#CED6E0" points="29,40.2 29.8,38 18.2,38 19,40.2 				"/>
			</g>
		</g>
		<g>
			<g>
				<g>
					<g>
						<rect x="10.7" y="20.1" fill="#E8EAE9" width="2.4" height="8.7"/>
					</g>
					<g>
						<rect x="16.8" y="17.4" fill="#E8EAE9" width="2.4" height="11.4"/>
					</g>
					<g>
						<rect x="22.8" y="22" fill="#E8EAE9" width="2.4" height="6.9"/>
					</g>
					<g>
						<rect x="28.9" y="17.7" fill="#E8EAE9" width="2.4" height="11.1"/>
					</g>
					<g>
						<rect x="34.9" y="14.1" fill="#E8EAE9" width="2.4" height="14.7"/>
					</g>
				</g>
				<g>
					<g>
						<path fill="#ADB3BA" d="M34.6,13.3l-4.8,3L24,20.8l-6-5.5l-5.1,2.9c0.2,0.2,0.4,0.6,0.4,0.9l4.5-2.6l6.1,5.6l6.3-4.8l4.7-3
							C34.8,14,34.7,13.7,34.6,13.3z"/>
					</g>
				</g>
			</g>
			<g>
				<circle fill="#415A6B" cx="11.9" cy="19.4" r="2.1"/>
			</g>
			<g>
				<circle fill="#66C6B9" cx="18" cy="15.9" r="2.1"/>
			</g>
			<g>
				<circle fill="#FFD15C" cx="24" cy="21.4" r="2.1"/>
			</g>
			<g>
				<circle fill="#F3705A" cx="36.1" cy="13.3" r="2.1"/>
			</g>
			<g>
				<g>
					<circle fill="#8AD7F8" cx="30" cy="16.8" r="2.1"/>
				</g>
			</g>
		</g>
	</g>
</g>
</svg>
