<?xml version="1.0" encoding="utf-8"?>
<!-- Generator: Adobe Illustrator 18.0.0, SVG Export Plug-In . SVG Version: 6.00 Build 0)  -->
<!DOCTYPE svg PUBLIC "-//W3C//DTD SVG 1.1//EN" "http://www.w3.org/Graphics/SVG/1.1/DTD/svg11.dtd">
<svg version="1.1" id="Layer_1" xmlns="http://www.w3.org/2000/svg" xmlns:xlink="http://www.w3.org/1999/xlink" x="0px" y="0px"
	 viewBox="0 0 48 48" enable-background="new 0 0 48 48" xml:space="preserve">
<g>
	<g>
		<path fill="#F1543F" d="M17.6,48h-6.9c-0.8,0-1.3-0.7-1.2-1.4l1-5.4h7.2l1,5.4C18.9,47.3,18.3,48,17.6,48z"/>
		<path fill="#F1543F" d="M35.9,48H29c-0.8,0-1.3-0.7-1.2-1.4l1-5.4h7.2l1,5.4C37.2,47.3,36.7,48,35.9,48z"/>
	</g>
	<path fill="#FF7058" d="M48,18c0-0.5-0.1-0.8-0.1-0.8s-0.1,0.3-0.1,0.7c0,0.2-0.1,0.5-0.2,0.8c-0.1,0.3-0.2,0.7-0.4,1
		c-0.1,0.4-0.3,0.8-0.6,1.1c-0.2,0.4-0.5,0.8-0.8,1.2c-0.3,0.4-0.6,0.8-1,1.1c-0.2,0.2-0.4,0.4-0.7,0.6
		c-2.4-7.6-10.8-13.3-20.9-13.3C13.9,10.5,6,15.4,3,22.2l-1.4-0.3C0.8,21.7,0,22.3,0,23.1v10.3c0,0.8,0.8,1.3,1.6,1.2L3,34.2
		C6,41,13.9,45.9,23.3,45.9c11.3,0,20.5-7.1,21.5-16.1c0.2-0.3,0.5-0.6,0.7-0.8c0.4-0.5,0.7-1,1-1.5c0.3-0.5,0.5-1,0.7-1.5
		c0.2-0.5,0.4-1,0.4-1.5c0.1-0.5,0.2-0.9,0.2-1.4c0.1-0.4,0.1-0.8,0.1-1.2C48,21.5,48,18.2,48,18z"/>
	<circle fill="#40596B" cx="8.3" cy="25.2" r="2.3"/>
	<circle fill="#F2F2F2" cx="7.4" cy="24.1" r="0.8"/>
	<path fill="#F1543F" d="M32.7,20.3c-0.3,0-0.5-0.1-0.7-0.3c-2.1-2.1-5-3.3-8-3.3s-5.9,1.2-8,3.3c-0.4,0.4-1,0.4-1.4,0
		c-0.4-0.4-0.4-1,0-1.4c2.5-2.5,5.9-3.9,9.4-3.9s6.9,1.4,9.4,3.9c0.4,0.4,0.4,1,0,1.4C33.2,20.2,33,20.3,32.7,20.3z"/>
	<path fill="#FFD15C" d="M16.2,9.5c0-4.3,3.5-7.8,7.8-7.8c4.3,0,7.8,3.5,7.8,7.8c0,2.9-1.6,5.5-4,6.8c0.7,0.2,1.3,0.5,1.9,0.8
		c2.3-1.7,3.8-4.5,3.8-7.6C33.5,4.2,29.2,0,24,0s-9.5,4.2-9.5,9.5c0,3.1,1.5,5.9,3.8,7.6c0.6-0.3,1.3-0.6,1.9-0.8
		C17.9,15,16.2,12.4,16.2,9.5z"/>
	<path fill="#F8B64C" d="M24.7,10.5v1.6c0.6-0.1,0.9-0.5,0.9-0.8C25.6,10.8,25.2,10.6,24.7,10.5z"/>
	<path fill="#F8B64C" d="M22.7,7.7c0,0.3,0.3,0.5,0.8,0.7V6.9C23,7,22.7,7.3,22.7,7.7z"/>
	<path fill="#F8B64C" d="M31.8,9.5c0-4.3-3.5-7.8-7.8-7.8c-4.3,0-7.8,3.5-7.8,7.8c0,2.9,1.6,5.5,4,6.8c1.2-0.4,2.4-0.6,3.7-0.6
		s2.5,0.2,3.7,0.6C30.1,15,31.8,12.4,31.8,9.5z M24.7,13.6v1.1h-1.1v-1.1c-1.2-0.1-2.2-0.6-2.8-1.2l0.9-1.3c0.4,0.5,1.1,0.9,1.9,1
		v-1.8C22.3,9.9,21,9.4,21,7.8c0-1.2,1-2.2,2.6-2.4V4.3h1.1v1.1c1,0.1,1.8,0.5,2.4,1.1l-0.9,1.3c-0.4-0.4-1-0.6-1.5-0.8v1.6
		c1.2,0.3,2.6,0.8,2.6,2.4C27.3,12.4,26.4,13.4,24.7,13.6z"/>
	<path fill="#FFD15C" d="M24.7,8.6V7c0.5,0.1,1.1,0.4,1.5,0.8l0.9-1.3c-0.6-0.6-1.5-1-2.4-1.1V4.3h-1.1v1.1C21.9,5.6,21,6.6,21,7.8
		c0,1.6,1.3,2.1,2.6,2.4V12c-0.8-0.1-1.5-0.6-1.9-1l-0.9,1.3c0.7,0.7,1.6,1.1,2.8,1.2v1.1h1.1v-1.1c1.8-0.2,2.6-1.2,2.6-2.5
		C27.3,9.4,25.9,8.9,24.7,8.6z M23.5,8.4c-0.5-0.2-0.8-0.3-0.8-0.7c0-0.4,0.3-0.7,0.8-0.8V8.4z M24.7,12.1v-1.6
		c0.5,0.2,0.9,0.4,0.9,0.8C25.6,11.6,25.3,11.9,24.7,12.1z"/>
</g>
</svg>
