<?xml version="1.0" encoding="utf-8"?>
<!-- Generator: Adobe Illustrator 16.0.0, SVG Export Plug-In . SVG Version: 6.00 Build 0)  -->
<!DOCTYPE svg PUBLIC "-//W3C//DTD SVG 1.1//EN" "http://www.w3.org/Graphics/SVG/1.1/DTD/svg11.dtd">
<svg version="1.1" id="Layer_1" xmlns="http://www.w3.org/2000/svg" xmlns:xlink="http://www.w3.org/1999/xlink" x="0px" y="0px"
	 width="48px" height="48px" viewBox="0 0 48 48" enable-background="new 0 0 48 48" xml:space="preserve">
<g>
	<path fill="#ADB3BA" d="M35.905,21.342c-0.104,0-0.209-0.027-0.306-0.082l-11.598-6.721L12.403,21.26
		c-0.295,0.168-0.668,0.068-0.838-0.223c-0.168-0.293-0.068-0.668,0.224-0.838l11.905-6.896c0.189-0.109,0.424-0.109,0.615,0
		l11.904,6.896c0.293,0.17,0.393,0.545,0.223,0.838C36.323,21.232,36.116,21.342,35.905,21.342"/>
	<path fill="#415A6B" d="M24.001,17.289c-2.305,0-4.178-1.875-4.178-4.178c0-1.877,1.245-3.469,2.953-3.994V6.256
		c0-0.676,0.549-1.225,1.225-1.225s1.224,0.549,1.224,1.225v3.902c0,0.678-0.548,1.225-1.224,1.225
		c-0.953,0-1.729,0.775-1.729,1.729s0.776,1.729,1.729,1.729s1.729-0.775,1.729-1.729c0-0.676,0.548-1.225,1.225-1.225
		c0.676,0,1.225,0.549,1.225,1.225C28.179,15.414,26.305,17.289,24.001,17.289"/>
	<path fill="#F3705A" d="M15.933,0v5.379c0,1.658,1.344,3,3,3h10.135c1.658,0,3-1.342,3-3V0H15.933z"/>
	<path fill="#ADB3BA" d="M19.228,17.307l4.561-2.643c-0.406-0.195-0.672-0.549-0.801-0.953l-3.76,2.18V17.307z"/>
	<rect x="13.562" y="25.871" fill="#CED6E0" width="20.875" height="5.287"/>
	<rect x="13.562" y="31.158" fill="#ADB3BA" width="20.875" height="5.287"/>
	<rect x="13.562" y="36.445" fill="#CED6E0" width="20.875" height="5.287"/>
	<path fill="#E8EAE9" d="M37.961,19.605H10.04c-1.623,0-2.939,1.316-2.939,2.939v22.518C7.101,46.686,8.417,48,10.04,48h27.921
		c1.623,0,2.938-1.314,2.938-2.938V22.545C40.899,20.922,39.584,19.605,37.961,19.605 M13.558,25.871h16.344L13.558,38.561V25.871z
		 M34.435,41.734H18.091l16.344-12.689V41.734z"/>
	<path fill="#ADB3BA" d="M11.952,23.227c0,0.625-0.507,1.133-1.132,1.133s-1.131-0.508-1.131-1.133s0.506-1.133,1.131-1.133
		S11.952,22.602,11.952,23.227"/>
	<path fill="#ADB3BA" d="M38.31,23.227c0,0.625-0.508,1.133-1.133,1.133s-1.131-0.508-1.131-1.133s0.506-1.133,1.131-1.133
		S38.31,22.602,38.31,23.227"/>
	<path fill="#ADB3BA" d="M11.952,44.375c0,0.625-0.507,1.133-1.132,1.133S9.689,45,9.689,44.375s0.506-1.131,1.131-1.131
		S11.952,43.75,11.952,44.375"/>
	<path fill="#ADB3BA" d="M38.31,44.375c0,0.625-0.508,1.133-1.133,1.133S36.046,45,36.046,44.375s0.506-1.131,1.131-1.131
		S38.31,43.75,38.31,44.375"/>
</g>
</svg>
