<?xml version="1.0" encoding="utf-8"?>
<!-- Generator: Adobe Illustrator 18.0.0, SVG Export Plug-In . SVG Version: 6.00 Build 0)  -->
<!DOCTYPE svg PUBLIC "-//W3C//DTD SVG 1.1//EN" "http://www.w3.org/Graphics/SVG/1.1/DTD/svg11.dtd">
<svg version="1.1" id="Layer_1" xmlns="http://www.w3.org/2000/svg" xmlns:xlink="http://www.w3.org/1999/xlink" x="0px" y="0px"
	 viewBox="0 0 48 48" enable-background="new 0 0 48 48" xml:space="preserve">
<g>
	<rect x="31.2" y="7.4" fill="#ACB3BA" width="4.6" height="2"/>
	<rect x="21.7" y="7.4" fill="#ACB3BA" width="4.6" height="2"/>
	<rect x="12.2" y="7.4" fill="#ACB3BA" width="4.6" height="2"/>
	<g>
		<rect x="39.6" y="4.2" fill="#FF7058" width="3.5" height="5.2"/>
		<rect x="5" y="4.2" fill="#FF7058" width="3.5" height="5.2"/>
	</g>
	<rect x="1.7" y="14.4" fill="#F2F2F2" width="44.5" height="25.2"/>
	<rect x="0.7" y="9.3" fill="#CDD6E0" width="46.5" height="5"/>
	<path fill="#40596B" d="M47,39.6H1c-0.6,0-1,0.4-1,1v3.3h48v-3.3C48,40,47.6,39.6,47,39.6z"/>
	<g>
		<rect x="33.8" y="20.2" fill="#ACB3BA" width="7" height="1.7"/>
		<polygon fill="#ACB3BA" points="11.6,17.6 9.9,17.6 9.9,20.2 7.3,20.2 7.3,21.9 9.9,21.9 9.9,24.5 11.6,24.5 11.6,21.9 14.2,21.9 
			14.2,20.2 11.6,20.2 		"/>
	</g>
	<polygon fill="#FFD15C" points="26.7,31 22.3,28.7 16.7,34.2 21.2,22.9 25.7,25.3 31.2,19.7 	"/>
</g>
</svg>
