<?xml version="1.0" encoding="utf-8"?>
<!-- Generator: Adobe Illustrator 20.1.0, SVG Export Plug-In . SVG Version: 6.00 Build 0)  -->
<!DOCTYPE svg PUBLIC "-//W3C//DTD SVG 1.1//EN" "http://www.w3.org/Graphics/SVG/1.1/DTD/svg11.dtd">
<svg version="1.1" id="Layer_1" xmlns="http://www.w3.org/2000/svg" xmlns:xlink="http://www.w3.org/1999/xlink" x="0px" y="0px"
	 viewBox="0 0 49 49" enable-background="new 0 0 49 49" xml:space="preserve">
<g>
	<path fill="#40596B" d="M46.9,4.5H2.5c-1.1,0-2,0.9-2,2v30.8h48V6.1C48.5,5.2,47.8,4.5,46.9,4.5z"/>
	<path fill="#F2F2F2" d="M0.5,37.3v3.8c0,1.1,0.9,2,2,2h44c1.1,0,2-0.9,2-2v-3.8H0.5z"/>
	<circle fill="#CDD6E0" cx="24.5" cy="40.2" r="1.1"/>
	<rect x="15.3" y="43.1" fill="#CDD6E0" width="18.4" height="3.8"/>
	<rect x="11.4" y="46.9" fill="#F2F2F2" width="26.1" height="1.6"/>
	<rect x="15.3" y="43.1" fill="#ACB3BA" width="18.4" height="1.5"/>
	<rect x="3.7" y="7.4" fill="#84DBFF" width="41.6" height="27"/>
	<path fill="#F2F2F2" d="M25.6,6.8v8.1c0,0.6,0.4,1.1,1,1.2v2.2l2.2-2.2H40c0.7,0,1.2-0.5,1.2-1.2V6.8c0-0.7-0.5-1.2-1.2-1.2H26.8
		C26.1,5.6,25.6,6.1,25.6,6.8z"/>
	<g>
		<path fill="#CDD6E0" d="M27.9,10.9L27.9,10.9c0,0.7,0.5,1.2,1.2,1.2h0c0.7,0,1.2-0.5,1.2-1.2l0,0c0-0.7-0.5-1.2-1.2-1.2h0
			C28.4,9.7,27.9,10.2,27.9,10.9z"/>
		<g>
			<path fill="#CDD6E0" d="M32.2,10.9L32.2,10.9c0,0.7,0.5,1.2,1.2,1.2h0c0.7,0,1.2-0.5,1.2-1.2l0,0c0-0.7-0.5-1.2-1.2-1.2h0
				C32.7,9.7,32.2,10.2,32.2,10.9z"/>
		</g>
		<g>
			<path fill="#CDD6E0" d="M36.4,10.9L36.4,10.9c0,0.7,0.5,1.2,1.2,1.2h0c0.7,0,1.2-0.5,1.2-1.2l0,0c0-0.7-0.5-1.2-1.2-1.2h0
				C37,9.7,36.4,10.2,36.4,10.9z"/>
		</g>
	</g>
	<path fill="#FFD15C" d="M7.4,0.5h14.9c0.7,0,1.3,0.6,1.3,1.3V11c0,0.7-0.6,1.3-1.3,1.3h-0.7v3.1l-3.1-3.1H7.4
		c-0.7,0-1.3-0.6-1.3-1.3V1.8C6.1,1.1,6.7,0.5,7.4,0.5z"/>
	<rect x="9.3" y="2.6" fill="#F8B64C" width="11.1" height="1.5"/>
	<rect x="7.3" y="5.6" fill="#F8B64C" width="15.1" height="1.5"/>
	<rect x="9.3" y="8.8" fill="#F8B64C" width="11.1" height="1.5"/>
</g>
</svg>
