<?xml version="1.0" encoding="utf-8"?>
<!-- Generator: Adobe Illustrator 18.0.0, SVG Export Plug-In . SVG Version: 6.00 Build 0)  -->
<!DOCTYPE svg PUBLIC "-//W3C//DTD SVG 1.1//EN" "http://www.w3.org/Graphics/SVG/1.1/DTD/svg11.dtd">
<svg version="1.1" id="Layer_1" xmlns="http://www.w3.org/2000/svg" xmlns:xlink="http://www.w3.org/1999/xlink" x="0px" y="0px"
	 viewBox="0 0 48 48" enable-background="new 0 0 48 48" xml:space="preserve">
<g>
	<g>
		<g>
			<path fill="#435B6C" d="M38.7,6.4c-4.5,4-11.2,5.8-18.1,4.5C13.7,9.6,8.2,5.3,5.5,0C2.9,2.9,1,6.5,0,10.5c0.9-0.2,2-0.2,3.1,0
				c5,1,6.8,5.3,6.2,9.2c0.6,0,1.1,0.1,1.7,0.2c4.7,0.9,6.6,4.7,6.3,8.4c1.1-3.5,4.3-6.3,8.9-5.4c0.6,0.1,1.2,0.3,1.7,0.5
				c0.8-3.9,4.1-7.3,9.2-6.3c1.1,0.2,2.1,0.6,2.9,1.1C40.6,14.1,40.1,10.1,38.7,6.4z"/>
			<g>
				<path fill="#435B6C" d="M26.7,2.3c-0.4,0.6-0.8,1.5-0.9,2.5c0.3-1.6-7.4-3.1-7.7-1.5c0.3-1,0.2-2,0.1-2.7
					c-1.4,0.9-2.5,2.4-2.8,4.2c-0.7,3.4,1.6,6.8,5,7.4c3.4,0.7,6.8-1.6,7.4-5C28.2,5.4,27.7,3.6,26.7,2.3z"/>
				<g>
					<g>
						<path fill="#FFD15D" d="M17.2,4.8c-0.3,1.8,0.9,3.1,2.7,3.1C20.2,6.1,19,4.7,17.2,4.8z"/>
					</g>
					<g>
						<path fill="#FFD15D" d="M26.2,6.5c-0.4,1.7-2,2.6-3.6,1.8C22.9,6.6,24.5,5.8,26.2,6.5z"/>
					</g>
				</g>
			</g>
		</g>
		<g>
			<path fill="#435B6C" d="M40.9,22.4c-0.8,4.9-4.1,9.7-9.3,12.5c-5.2,2.8-11,3-15.5,1c-0.2,3.3,0.5,6.6,2,9.7
				c0.5-0.6,1.2-1.2,2-1.6c3.8-2.1,7.2-0.2,8.9,2.7c0.4-0.3,0.8-0.6,1.2-0.8c3.5-1.9,6.7-0.5,8.5,2.1c-1.2-2.9-0.6-6.4,2.9-8.3
				c0.5-0.3,0.9-0.4,1.3-0.6c-1.5-3-1.2-6.9,2.6-8.9c0.8-0.5,1.7-0.7,2.5-0.8C46.2,26.4,43.7,24.1,40.9,22.4z"/>
			<g>
				<path fill="#435B6C" d="M34.3,28.7c-0.7-1.3-1.9-2.3-3.3-2.6c0.1,0.6,0.3,1.4,0.8,2.1c-0.7-1.2-6.5,1.9-5.8,3.2
					c-0.3-0.8-0.9-1.4-1.4-1.8c-0.5,1.4-0.3,2.9,0.4,4.2c1.4,2.6,4.6,3.5,7.2,2.1C34.8,34.5,35.7,31.3,34.3,28.7z"/>
				<g>
					<g>
						<path fill="#FFD15D" d="M26.1,32.8c0.7,1.3,2.2,1.6,3.4,0.5C28.8,32.1,27.3,31.8,26.1,32.8z"/>
					</g>
					<g>
						<path fill="#FFD15D" d="M32.9,29.2c0.7,1.3,0.1,2.7-1.4,3.1C30.8,31,31.4,29.6,32.9,29.2z"/>
					</g>
				</g>
			</g>
		</g>
	</g>
</g>
</svg>
