<?xml version="1.0" encoding="utf-8"?>
<!-- Generator: Adobe Illustrator 18.0.0, SVG Export Plug-In . SVG Version: 6.00 Build 0)  -->
<!DOCTYPE svg PUBLIC "-//W3C//DTD SVG 1.1//EN" "http://www.w3.org/Graphics/SVG/1.1/DTD/svg11.dtd">
<svg version="1.1" id="Layer_1" xmlns="http://www.w3.org/2000/svg" xmlns:xlink="http://www.w3.org/1999/xlink" x="0px" y="0px"
	 viewBox="0 0 48 48" enable-background="new 0 0 48 48" xml:space="preserve">
<g>
	<g>
		<rect x="17.8" y="11.9" fill="#344A5E" width="4.3" height="3.4"/>
		<path fill="#415A6B" d="M20.6,0.6C20.6,0.3,20.3,0,20,0c-0.3,0-0.6,0.3-0.6,0.6l-0.9,11.3h3.1L20.6,0.6z"/>
		<path fill="#415A6B" d="M30.9,15c-4.6-1-9.1-1-13.7,0c-1.3,0.3-2.1,1.4-2.1,2.7l1.1,27.8c0.1,1.4,1.2,2.5,2.6,2.5h10.5
			c1.4,0,2.6-1.1,2.6-2.5L33,17.7C33,16.4,32.1,15.3,30.9,15z"/>
		<g>
			<polygon fill="#55C0EB" points="17.1,23.5 17.5,31.3 30.5,31.3 30.9,23.5 			"/>
		</g>
		<g>
			<g>
				<path fill="#ADB3BA" d="M28.9,45h-1.1c-0.4,0-0.8-0.3-0.8-0.8v0c0-0.4,0.3-0.8,0.8-0.8h1.1c0.4,0,0.8,0.3,0.8,0.8v0
					C29.7,44.7,29.3,45,28.9,45z"/>
			</g>
			<g>
				<path fill="#ADB3BA" d="M24.6,45h-1.1c-0.4,0-0.8-0.3-0.8-0.8v0c0-0.4,0.3-0.8,0.8-0.8h1.1c0.4,0,0.8,0.3,0.8,0.8v0
					C25.3,44.7,25,45,24.6,45z"/>
			</g>
			<g>
				<path fill="#ADB3BA" d="M20.2,45h-1.1c-0.4,0-0.8-0.3-0.8-0.8v0c0-0.4,0.3-0.8,0.8-0.8h1.1c0.4,0,0.8,0.3,0.8,0.8v0
					C21,44.7,20.6,45,20.2,45z"/>
			</g>
			<g>
				<path fill="#ADB3BA" d="M28.9,41.9h-1.1c-0.4,0-0.8-0.3-0.8-0.8l0,0c0-0.4,0.3-0.8,0.8-0.8h1.1c0.4,0,0.8,0.3,0.8,0.8l0,0
					C29.7,41.5,29.3,41.9,28.9,41.9z"/>
			</g>
			<g>
				<path fill="#ADB3BA" d="M24.6,41.9h-1.1c-0.4,0-0.8-0.3-0.8-0.8l0,0c0-0.4,0.3-0.8,0.8-0.8h1.1c0.4,0,0.8,0.3,0.8,0.8l0,0
					C25.3,41.5,25,41.9,24.6,41.9z"/>
			</g>
			<g>
				<path fill="#ADB3BA" d="M20.2,41.9h-1.1c-0.4,0-0.8-0.3-0.8-0.8l0,0c0-0.4,0.3-0.8,0.8-0.8h1.1c0.4,0,0.8,0.3,0.8,0.8l0,0
					C21,41.5,20.6,41.9,20.2,41.9z"/>
			</g>
			<g>
				<path fill="#ADB3BA" d="M28.9,38.7h-1.1c-0.4,0-0.8-0.3-0.8-0.8l0,0c0-0.4,0.3-0.8,0.8-0.8h1.1c0.4,0,0.8,0.3,0.8,0.8l0,0
					C29.7,38.3,29.3,38.7,28.9,38.7z"/>
			</g>
			<g>
				<path fill="#ADB3BA" d="M24.6,38.7h-1.1c-0.4,0-0.8-0.3-0.8-0.8l0,0c0-0.4,0.3-0.8,0.8-0.8h1.1c0.4,0,0.8,0.3,0.8,0.8l0,0
					C25.3,38.3,25,38.7,24.6,38.7z"/>
			</g>
			<g>
				<path fill="#ADB3BA" d="M20.2,38.7h-1.1c-0.4,0-0.8-0.3-0.8-0.8l0,0c0-0.4,0.3-0.8,0.8-0.8h1.1c0.4,0,0.8,0.3,0.8,0.8l0,0
					C21,38.3,20.6,38.7,20.2,38.7z"/>
			</g>
			<path fill="#F3705A" d="M28.9,35.5h-1.1c-0.4,0-0.8-0.3-0.8-0.8v0c0-0.4,0.3-0.8,0.8-0.8h1.1c0.4,0,0.8,0.3,0.8,0.8v0
				C29.7,35.1,29.3,35.5,28.9,35.5z"/>
			<path fill="#FFD15C" d="M24.6,35.5h-1.1c-0.4,0-0.8-0.3-0.8-0.8v0c0-0.4,0.3-0.8,0.8-0.8h1.1c0.4,0,0.8,0.3,0.8,0.8v0
				C25.3,35.1,25,35.5,24.6,35.5z"/>
			<path fill="#4EC0AA" d="M20.2,35.5h-1.1c-0.4,0-0.8-0.3-0.8-0.8v0c0-0.4,0.3-0.8,0.8-0.8h1.1c0.4,0,0.8,0.3,0.8,0.8v0
				C21,35.1,20.6,35.5,20.2,35.5z"/>
		</g>
		<g>
			<g>
				<g>
					<circle fill="#344A5E" cx="19.4" cy="17.4" r="0.6"/>
				</g>
				<g>
					<circle fill="#344A5E" cx="21.3" cy="17.4" r="0.6"/>
				</g>
				<g>
					<circle fill="#344A5E" cx="23.1" cy="17.4" r="0.6"/>
				</g>
				<g>
					<circle fill="#344A5E" cx="24.9" cy="17.4" r="0.6"/>
				</g>
				<g>
					<circle fill="#344A5E" cx="26.7" cy="17.4" r="0.6"/>
				</g>
				<g>
					<circle fill="#344A5E" cx="28.6" cy="17.4" r="0.6"/>
				</g>
			</g>
			<g>
				<g>
					<circle fill="#344A5E" cx="19.4" cy="19.2" r="0.6"/>
				</g>
				<g>
					<circle fill="#344A5E" cx="21.3" cy="19.2" r="0.6"/>
				</g>
				<g>
					<circle fill="#344A5E" cx="23.1" cy="19.2" r="0.6"/>
				</g>
				<g>
					<circle fill="#344A5E" cx="24.9" cy="19.2" r="0.6"/>
				</g>
				<g>
					<circle fill="#344A5E" cx="26.7" cy="19.2" r="0.6"/>
				</g>
				<g>
					<circle fill="#344A5E" cx="28.6" cy="19.2" r="0.6"/>
				</g>
			</g>
			<g>
				<g>
					<circle fill="#344A5E" cx="19.4" cy="20.9" r="0.6"/>
				</g>
				<g>
					<circle fill="#344A5E" cx="21.3" cy="20.9" r="0.6"/>
				</g>
				<g>
					<circle fill="#344A5E" cx="23.1" cy="20.9" r="0.6"/>
				</g>
				<g>
					<circle fill="#344A5E" cx="24.9" cy="20.9" r="0.6"/>
				</g>
				<g>
					<circle fill="#344A5E" cx="26.7" cy="20.9" r="0.6"/>
				</g>
				<g>
					<circle fill="#344A5E" cx="28.6" cy="20.9" r="0.6"/>
				</g>
			</g>
		</g>
	</g>
</g>
</svg>
