<?xml version="1.0" encoding="utf-8"?>
<!-- Generator: Adobe Illustrator 18.0.0, SVG Export Plug-In . SVG Version: 6.00 Build 0)  -->
<!DOCTYPE svg PUBLIC "-//W3C//DTD SVG 1.1//EN" "http://www.w3.org/Graphics/SVG/1.1/DTD/svg11.dtd">
<svg version="1.1" id="Layer_1" xmlns="http://www.w3.org/2000/svg" xmlns:xlink="http://www.w3.org/1999/xlink" x="0px" y="0px"
	 viewBox="0 0 48 48" enable-background="new 0 0 48 48" xml:space="preserve">
<g>
	<g>
		<polygon fill="#F3F3F3" points="18.5,0 3.8,14.6 3.8,48 44.2,48 44.2,0 		"/>
		<rect x="8.8" y="40.1" fill="#CED6E0" width="30.3" height="2.9"/>
		<rect x="8.8" y="33.3" fill="#CED6E0" width="30.3" height="2.9"/>
		<rect x="8.8" y="26.4" fill="#CED6E0" width="30.3" height="2.9"/>
		<rect x="8.8" y="19.5" fill="#CED6E0" width="30.3" height="2.9"/>
		<polygon fill="#E8EAE9" points="18.5,0 3.8,14.6 18.5,14.6 		"/>
		<g>
			<path fill="#F3705A" d="M29.2,7.4c0,0.6-0.2,1.1-0.6,1.5c-0.4,0.4-1,0.6-1.6,0.6s-1.2-0.2-1.6-0.6C25,8.5,24.8,8,24.8,7.4
				s0.2-1.1,0.6-1.5c0.4-0.4,1-0.6,1.6-0.6s1.2,0.2,1.6,0.6C29,6.3,29.2,6.9,29.2,7.4z M35,5.1l-7.5,10.5h-2.6l7.6-10.5H35z M26.6,8
				c0.1,0.1,0.3,0.2,0.4,0.2c0.2,0,0.3-0.1,0.5-0.2c0.1-0.1,0.2-0.3,0.2-0.5c0-0.2-0.1-0.4-0.2-0.5c-0.1-0.1-0.3-0.2-0.4-0.2
				c-0.2,0-0.3,0.1-0.4,0.2c-0.1,0.1-0.2,0.3-0.2,0.5C26.4,7.7,26.4,7.8,26.6,8z M35.2,13.6c0,0.6-0.2,1.1-0.6,1.5
				c-0.4,0.4-1,0.6-1.6,0.6c-0.6,0-1.2-0.2-1.6-0.6c-0.4-0.4-0.6-0.9-0.6-1.5s0.2-1.1,0.6-1.5c0.4-0.4,1-0.6,1.6-0.6
				c0.6,0,1.2,0.2,1.6,0.6C35,12.5,35.2,13,35.2,13.6z M32.5,14.1c0.1,0.1,0.3,0.2,0.4,0.2c0.2,0,0.3-0.1,0.5-0.2
				c0.1-0.1,0.2-0.3,0.2-0.5c0-0.2-0.1-0.4-0.2-0.6c-0.1-0.1-0.3-0.2-0.4-0.2c-0.2,0-0.3,0.1-0.4,0.2c-0.1,0.1-0.2,0.3-0.2,0.6
				C32.3,13.8,32.4,14,32.5,14.1z"/>
		</g>
	</g>
</g>
</svg>
