<?xml version="1.0" encoding="utf-8"?>
<!-- Generator: Adobe Illustrator 20.1.0, SVG Export Plug-In . SVG Version: 6.00 Build 0)  -->
<!DOCTYPE svg PUBLIC "-//W3C//DTD SVG 1.1//EN" "http://www.w3.org/Graphics/SVG/1.1/DTD/svg11.dtd">
<svg version="1.1" id="Layer_1" xmlns="http://www.w3.org/2000/svg" xmlns:xlink="http://www.w3.org/1999/xlink" x="0px" y="0px"
	 viewBox="0 0 49 49" enable-background="new 0 0 49 49" xml:space="preserve">
<g>
	<rect x="14.5" y="37.7" fill="#F8B64C" width="20" height="3.8"/>
	<path fill="#FFD05C" d="M39.7,46.6c0,0.7-0.4,1.3-1,1.7c-0.9,0.5-2.1,0.2-2.6-0.8L29.8,36l-0.2-0.4L29,34.5L27,30.7h4.3l2.1,3.8
		l0.6,1.1l0.2,0.4l5.3,9.7C39.6,46,39.7,46.3,39.7,46.6z"/>
	<path fill="#FFD05C" d="M22,30.7L20,34.5l-0.6,1.1L19.2,36l-6.3,11.5c-0.5,0.9-1.7,1.3-2.6,0.8c-0.6-0.3-1-1-1-1.7
		c0-0.3,0.1-0.6,0.2-0.9l5.3-9.7l0.2-0.4l0.6-1.1l2.1-3.8H22z"/>
	<rect x="3.4" y="4.3" fill="#F2F2F2" width="42.2" height="26.4"/>
	<g>
		<path fill="#ACB3BA" d="M2.4,4.3h44.2c1,0,1.9-0.8,1.9-1.9s-0.8-1.9-1.9-1.9H2.4c-1,0-1.9,0.8-1.9,1.9S1.3,4.3,2.4,4.3z"/>
		<path fill="#ACB3BA" d="M47.9,31.3c-0.3-0.3-0.8-0.6-1.3-0.6H2.4c-1,0-1.9,0.8-1.9,1.9c0,0.5,0.2,1,0.6,1.3
			c0.3,0.3,0.8,0.6,1.3,0.6h44.2c1.1,0,1.9-0.8,1.9-1.9C48.5,32.1,48.3,31.6,47.9,31.3z"/>
	</g>
	<rect x="3.4" y="4.3" fill="#E4EAEF" width="42.2" height="1.5"/>
	<polygon fill="#F8B64C" points="15.7,34.5 20,34.5 19.4,35.6 19.2,36 14.8,36 15.1,35.6 	"/>
	<polygon fill="#F8B64C" points="34.2,36 29.8,36 29.6,35.6 29,34.5 33.3,34.5 33.9,35.6 	"/>
	<rect x="38.2" y="11.4" fill="#4CDBC4" width="2.3" height="17"/>
	<rect x="30.8" y="14.1" fill="#84DBFF" width="2.3" height="14.4"/>
	<rect x="23.3" y="16.8" fill="#FFD05C" width="2.3" height="11.6"/>
	<rect x="15.9" y="10.8" fill="#F2705B" width="2.3" height="17.6"/>
	<rect x="8.4" y="19.8" fill="#84DBFF" width="2.3" height="8.7"/>
</g>
</svg>
