<?xml version="1.0" encoding="utf-8"?>
<!-- Generator: Adobe Illustrator 18.0.0, SVG Export Plug-In . SVG Version: 6.00 Build 0)  -->
<!DOCTYPE svg PUBLIC "-//W3C//DTD SVG 1.1//EN" "http://www.w3.org/Graphics/SVG/1.1/DTD/svg11.dtd">
<svg version="1.1" id="Layer_1" xmlns="http://www.w3.org/2000/svg" xmlns:xlink="http://www.w3.org/1999/xlink" x="0px" y="0px"
	 viewBox="0 0 48 48" enable-background="new 0 0 48 48" xml:space="preserve">
<g>
	<g>
		<polygon fill="#F2F2F2" points="48,48 0,48 8.4,30.8 39.6,30.8 		"/>
		<polygon fill="#4CDBC4" points="3.9,45.8 9.9,31.8 38.1,31.8 44.1,45.8 		"/>
		<polygon fill="#54C0EB" points="19,38.7 18.2,45.8 44.1,45.8 43.4,44.4 		"/>
		<polygon fill="#54C0EB" points="18.1,37.6 19,31.8 9.9,31.8 8.5,35.2 		"/>
		<polygon fill="#FFFFFF" points="15,45.8 19.7,45.8 21,31.8 17.7,31.8 		"/>
		<polygon fill="#FFFFFF" points="8.8,34.4 7.8,36.7 41.8,45.8 44.1,45.8 42.9,43 		"/>
	</g>
	<path fill="#FF7058" d="M35,4.6c-6.1-6.1-16-6.1-22.1,0c-6.1,6.1-6.1,16,0,22.1l11,11l11-11C41.1,20.6,41.1,10.7,35,4.6z"/>
	<path fill="#FFFFFF" d="M15.7,15.6c0-4.6,3.7-8.3,8.3-8.3c4.6,0,8.3,3.7,8.3,8.3c0,4.6-3.7,8.3-8.3,8.3
		C19.4,23.9,15.7,20.2,15.7,15.6z"/>
</g>
</svg>
