<?xml version="1.0" encoding="utf-8"?>
<!-- Generator: Adobe Illustrator 18.0.0, SVG Export Plug-In . SVG Version: 6.00 Build 0)  -->
<!DOCTYPE svg PUBLIC "-//W3C//DTD SVG 1.1//EN" "http://www.w3.org/Graphics/SVG/1.1/DTD/svg11.dtd">
<svg version="1.1" id="Layer_1" xmlns="http://www.w3.org/2000/svg" xmlns:xlink="http://www.w3.org/1999/xlink" x="0px" y="0px"
	 viewBox="0 0 48 48" enable-background="new 0 0 48 48" xml:space="preserve">
<g>
	<g>
		<g>
			<g>
				<path fill="#415A6B" d="M38.8,38.7c-5.1-5.8-7.4-13.6-7.4-22.5H16c-0.4,9.1-3.2,16.9-8.8,22.6c-0.7,0.7-1.4,1.4-2.1,2.1
					c0.3,0.8,0.7,1.7,1.3,2.4c0.6,0.7,1.4,1.4,2.5,1.5c1.3,0.2,2.6-0.4,3.7-0.9c1.2-0.5,2.5-1,3.7-0.6c1,0.4,1.7,1.4,2.4,2.3
					c1.8,2,4.9,2.9,7.5,2.1c1.7-0.6,3.2-1.7,4.7-2.6c1.5-1,3.1-1.7,4.9-1.6c1.2,0.1,2.4,0.6,3.7,0.8c1.3,0.2,2.8,0,3.4-1
					C41.4,41.7,40.1,40.2,38.8,38.7z"/>
			</g>
			<path fill="#415A6B" d="M30.8,12.3c1.5,0.9,1.3,5.8,0,7c-2.6,2.4-11.4,2.2-14.1,0c-1.4-1.1-1.5-6.1,0-7c1.7-1,7.1,3.5,7.1,3.5
				S29.1,11.3,30.8,12.3z"/>
			<g>
				<path fill="#344A5E" d="M31.5,18c-0.3,0.7-0.8,1.2-1.2,1.5c-1.5,1-6.6-1.7-6.6-1.7c0.2,0.8,5,4,6.8,2.7c0.2-0.1,0.3-0.3,0.4-0.4
					c0.3-0.4,0.4-0.9,0.5-1.3C31.4,18.5,31.5,18.3,31.5,18z"/>
				<path fill="#344A5E" d="M17,19.6c-0.4-0.3-0.9-0.9-1.2-1.7c0,0.2,0,0.4,0,0.6c0,0.4,0.1,0.8,0.2,1.1c0.2,0.4,0.4,0.7,0.7,0.9
					c1.8,1.2,6.6-2.1,6.8-2.7C23.6,17.8,18.5,20.5,17,19.6z"/>
			</g>
		</g>
		<g>
			<g>
				<g>
					<path fill="#E8EAE9" d="M24,0.7c0.5,0,0.9,0.4,0.9,0.9c0,0.3-0.1,0.5-0.3,0.7c-0.6,0.6-1,1.3-1,2.1v0.5h0.6V4.4
						c0-0.6,0.3-1.2,0.8-1.6c0.3-0.3,0.5-0.8,0.5-1.2C25.6,0.7,24.9,0,24,0c-0.4,0-0.8,0.1-1.2,0.5c-0.3,0.3-0.5,0.7-0.5,1.1
						c0,0.2,0.1,0.3,0.3,0.3c0.2,0,0.3-0.1,0.3-0.3c0-0.3,0.1-0.5,0.3-0.7C23.5,0.7,23.8,0.6,24,0.7z"/>
				</g>
			</g>
			<g>
				<path fill="#FFD15C" d="M28,7.7c-0.4-1.9-2.1-3.2-4-3.2c-1.8,0-3.5,1.3-4,3.2H28z"/>
			</g>
			<g>
				<path fill="#FFD15C" d="M37.5,10.5L37.5,10.5c0,0.6-0.6,1-1.2,0.8c-2.1-1-4.8-1.8-7.2-2.4C25.7,8,22.3,8,18.9,8.9
					c-2.4,0.6-5.1,1.5-7.2,2.4c-0.6,0.3-1.2-0.2-1.2-0.8v0c0-0.3,0.2-0.6,0.5-0.8c1.9-0.9,4.7-2,9-3.3c0.5-0.1,0.8-0.4,1.2-0.7h5.7
					C27.2,6,27.6,6.3,28,6.4c4.2,1.3,7.1,2.5,9,3.3C37.3,9.9,37.5,10.2,37.5,10.5z"/>
			</g>
			<g>
				<polygon fill="#415A6B" points="30.1,15.9 28.2,15.5 30.6,7.2 32.4,7.9 				"/>
			</g>
			<g>
				<polygon fill="#415A6B" points="17.9,15.9 19.8,15.5 17.4,7.2 15.6,7.9 				"/>
			</g>
		</g>
	</g>
</g>
</svg>
