<?xml version="1.0" encoding="utf-8"?>
<!-- Generator: Adobe Illustrator 18.0.0, SVG Export Plug-In . SVG Version: 6.00 Build 0)  -->
<!DOCTYPE svg PUBLIC "-//W3C//DTD SVG 1.1//EN" "http://www.w3.org/Graphics/SVG/1.1/DTD/svg11.dtd">
<svg version="1.1" id="Layer_1" xmlns="http://www.w3.org/2000/svg" xmlns:xlink="http://www.w3.org/1999/xlink" x="0px" y="0px"
	 viewBox="0 0 48 48" enable-background="new 0 0 48 48" xml:space="preserve">
<g>
	<g>
		<g>
			<path fill="#415A6B" d="M46.5,45.1H2.9V1.5C2.9,0.7,2.3,0,1.5,0S0,0.7,0,1.5v45.1C0,47.3,0.7,48,1.5,48h45.1
				c0.8,0,1.5-0.7,1.5-1.5l0,0C48,45.7,47.3,45.1,46.5,45.1z"/>
		</g>
		<g>
			<g>
				<g>
					<rect x="7.5" y="24" fill="#FFD15C" width="5.9" height="16.9"/>
				</g>
				<g>
					<rect x="7.5" y="28.6" fill="#F7B64C" width="5.9" height="12.3"/>
				</g>
			</g>
			<g>
				<g>
					<rect x="17.7" y="30" fill="#F3705A" width="5.9" height="10.9"/>
				</g>
				<g>
					<rect x="17.7" y="34.6" fill="#F05540" width="5.9" height="6.3"/>
				</g>
			</g>
			<g>
				<g>
					<rect x="27.9" y="18" fill="#415A6B" width="5.9" height="22.9"/>
				</g>
				<g>
					<rect x="27.9" y="22.6" fill="#344A5E" width="5.9" height="18.3"/>
				</g>
			</g>
			<g>
				<g>
					<rect x="38.1" y="10" fill="#8AD7F8" width="5.9" height="30.9"/>
				</g>
				<g>
					<rect x="38.1" y="14.6" fill="#55C0EB" width="5.9" height="26.3"/>
				</g>
			</g>
		</g>
	</g>
</g>
</svg>
