<?xml version="1.0" encoding="utf-8"?>
<!-- Generator: Adobe Illustrator 19.0.1, SVG Export Plug-In . SVG Version: 6.00 Build 0)  -->
<svg version="1.1" id="Layer_1" xmlns="http://www.w3.org/2000/svg" xmlns:xlink="http://www.w3.org/1999/xlink" x="0px" y="0px"
	 viewBox="0 0 48 48" style="enable-background:new 0 0 48 48;" xml:space="preserve">
<style type="text/css">
	.st0{fill:#66C6B9;}
	.st1{fill:#F3F3F3;}
	.st2{fill:#415A6B;}
	.st3{fill:#CED6E0;}
	.st4{fill:#F3705A;}
	.st5{fill:#E8EAE9;}
	.st6{fill:#4ABAA5;}
	.st7{fill:#F05540;}
	.st8{fill:#FFD15C;}
	.st9{fill:#55C0EB;}
	.st10{fill:#8AD7F8;}
	.st11{fill:#344A5E;}
	.st12{fill:#FFFFFF;}
	.st13{fill:#F7B64C;}
	.st14{fill:#ADB3BA;}
	.st15{fill:#38A892;}
	.st16{fill:#ED9845;}
	.st17{fill:#2D4251;}
	.st18{fill:#304556;}
	.st19{fill:#A5AAAD;}
	.st20{fill:#2D4456;}
	.st21{fill:#4FB0E0;}
	.st22{fill:#2D4354;}
	.st23{fill:#E54C38;}
	.st24{fill:#2B4456;}
	.st25{fill:#2B404F;}
</style>
<g>
	<g>
		<g>
			<g>
				<g>
					<path class="st11" d="M9.1,34v-2.9h14.1V34h2v-2.9h14.1V34h2v-3.9c0-0.5-0.4-1-1-1H25.2v-2.7h-2v2.7H8.1c-0.5,0-1,0.5-1,1V34
						H9.1z"/>
				</g>
			</g>
		</g>
		<g>
			<g>
				<g>
					<g>
						<path class="st4" d="M26.7,16.7c0,0,0.9-1.3,1.3-2.2c0.4-0.8,1-4.2,1-4.2l-1.2,0.2C27.9,10.5,26.6,15.5,26.7,16.7z"/>
					</g>
				</g>
				<g>
					<g>
						<path class="st4" d="M20.3,14.6l1.3,0.9l0.7-3.1l-3.1-3.9C19.3,8.5,17.1,12.4,20.3,14.6z"/>
					</g>
				</g>
				<g>
					<g>
						<path class="st8" d="M27.2,25.1c0.8-3.5,1.2-6.7,0-9.1l0-1.6c1.3-1.9,1.4-4.7,1.4-4.7l-0.9-5.1c0,0-0.5-2.1-2.4-1.9
							c-1.9,0.2-3.8,1.4-3.8,1.4l-1.9,5.3c-0.5,0-1.4,2.1,1.6,4.9l0,1.8c-1,3.1-0.9,6.1,0,9.1H27.2z"/>
					</g>
				</g>
				<g>
					<g>
						<path class="st13" d="M21.2,14.2L21.2,14.2l-0.7,4.2c5.6-1.6,6.8-4,6.8-4C25.2,16,23.2,16,21.2,14.2z"/>
					</g>
				</g>
				<g>
					<g>
						<path class="st5" d="M27.4,27l-0.2-5.2c0.1,3-6.4,3-6.3,0L20.8,27H27.4z"/>
					</g>
				</g>
				<g>
					<g>
						<path class="st11" d="M21.3,27l-1.9-9.5l-4.7,2c-1,0.5-1.9,3.8-2.5,7.5H21.3z"/>
					</g>
					<g>
						<path class="st11" d="M35.9,27c-0.6-3.6-1.5-7-2.5-7.5l-4.7-2L26.7,27H35.9z"/>
					</g>
				</g>
				<g>
					<g>
						<g>
							<path class="st2" d="M28.9,27l2.5-5.7l-1.9-1.2l1.2-0.3l-3.4-3.8c0,0-0.8,6.3-1.4,11H28.9z"/>
						</g>
					</g>
				</g>
				<g>
					<g>
						<g>
							<path class="st2" d="M19.1,27h3.1c-0.6-4.8-1.4-11-1.4-11l-3.4,3.8l1.2,0.3l-1.9,1.2L19.1,27z"/>
						</g>
					</g>
				</g>
				<g>
					<g>
						<path class="st4" d="M29.9,5.9c-0.3-2-1.9-4.5-4-5.6s-6.4,0.6-7.4,3.5s-0.8,6.2,0.3,9.5c0.3,0.8,0.6,1.5,1,2.1
							c0.2-0.4,0.5-0.8,1-1c-1.2-1.7-1.4-4.2-1.2-4.6c0.3-0.5,1.2-0.8,3.1-2.6c1.9-1.8,4.5-2.8,4.5-2.8s1.6,5.3,1.4,7.3
							c-0.2,1.9-1.1,3-1.5,5c-0.2,1.3,0.4,2.6,0.4,2.6s0.2-2.3,1-3.3c1.4-2.7,1.6-4,1.7-5.2C30.2,9.6,30.2,7.9,29.9,5.9z"/>
					</g>
				</g>
			</g>
			<g>
				<g>
					<path class="st4" d="M17.8,8.7c0,0,2.2,9.9,1.3,13c-0.8,3.1-1.5,3.7-1.5,3.7c5.4-4.3,4.2-10.1,3.6-11.2
						c-1.6,0.2-3.7-5.6-2.9-6.6"/>
				</g>
			</g>
			<g>
				<g>
					<path class="st4" d="M29.5,7.2c0.3,0.8,0.6,1.7,0.6,2.6c0.1,1.6-0.2,3.2-0.5,4.8s-0.6,3.2-0.4,4.8s0.9,3.2,2.3,4.1
						c-1,0.2-2,0-2.8-0.5s-1.5-1.2-1.9-2.1c-0.5-1.1-0.4-2.4-0.1-3.6s0.9-2.3,1.3-3.4c0.5-1.1,1-2.3,1.1-3.5"/>
				</g>
			</g>
		</g>
		<g>
			<g>
				<g>
					<g>
						<circle class="st4" cx="40.5" cy="40.5" r="7.5"/>
					</g>
				</g>
				<g>
					<g>
						<g>
							<circle class="st1" cx="40.5" cy="37.9" r="2.6"/>
						</g>
					</g>
					<g>
						<path class="st1" d="M40.5,48c2.1,0,4-0.9,5.4-2.3c-0.8-2.2-2.9-3.8-5.4-3.8s-4.6,1.6-5.4,3.8C36.4,47.1,38.4,48,40.5,48z"/>
					</g>
				</g>
			</g>
			<g>
				<g>
					<g>
						<circle class="st4" cx="24" cy="40.5" r="7.5"/>
					</g>
				</g>
				<g>
					<g>
						<g>
							<circle class="st1" cx="24" cy="37.9" r="2.6"/>
						</g>
					</g>
					<g>
						<path class="st1" d="M24,48c2.1,0,4-0.9,5.4-2.3c-0.8-2.2-2.9-3.8-5.4-3.8s-4.6,1.6-5.4,3.8C20,47.1,21.9,48,24,48z"/>
					</g>
				</g>
			</g>
			<g>
				<g>
					<g>
						<circle class="st0" cx="7.5" cy="40.5" r="7.5"/>
					</g>
				</g>
				<g>
					<g>
						<g>
							<circle class="st1" cx="7.5" cy="37.9" r="2.6"/>
						</g>
					</g>
					<g>
						<path class="st1" d="M7.5,48c2.1,0,4-0.9,5.4-2.3c-0.8-2.2-2.9-3.8-5.4-3.8s-4.6,1.6-5.4,3.8C3.5,47.1,5.4,48,7.5,48z"/>
					</g>
				</g>
			</g>
		</g>
	</g>
</g>
</svg>
