<?xml version="1.0" encoding="utf-8"?>
<!-- Generator: Adobe Illustrator 18.0.0, SVG Export Plug-In . SVG Version: 6.00 Build 0)  -->
<!DOCTYPE svg PUBLIC "-//W3C//DTD SVG 1.1//EN" "http://www.w3.org/Graphics/SVG/1.1/DTD/svg11.dtd">
<svg version="1.1" id="Layer_1" xmlns="http://www.w3.org/2000/svg" xmlns:xlink="http://www.w3.org/1999/xlink" x="0px" y="0px"
	 viewBox="0 0 48 48" enable-background="new 0 0 48 48" xml:space="preserve">
<g>
	<g>
		
			<rect x="31.5" y="29.5" transform="matrix(-0.7071 -0.7071 0.7071 -0.7071 33.0828 79.8684)" fill="#344A5E" width="3.2" height="7.1"/>
		<g>
			<circle fill="#F3F3F3" cx="19" cy="19" r="16.7"/>
		</g>
		<path fill="#415A6B" d="M32.5,32.5c-7.4,7.4-19.5,7.4-26.9,0S-1.9,13,5.6,5.6s19.5-7.4,26.9,0S39.9,25.1,32.5,32.5z M8.9,8.9
			c-5.6,5.6-5.6,14.7,0,20.3s14.7,5.6,20.3,0s5.6-14.7,0-20.3S14.5,3.3,8.9,8.9z"/>
		<g>
			<path fill="#F3705A" d="M32.6,40.5l5.9,5.9c2.2,2.2,5.7,2.2,7.9,0c2.2-2.2,2.2-5.7,0-7.9l-5.9-5.9L32.6,40.5z"/>
		</g>
		<g>
			
				<rect x="36.3" y="31.6" transform="matrix(-0.7071 -0.7071 0.7071 -0.7071 37.1534 89.6964)" fill="#F05540" width="1.7" height="11.1"/>
		</g>
		<g>
			<path fill="#F3705A" d="M40.6,32.7l-7.9,7.9c-0.7,0.7-1.9,0.7-2.6,0c-0.7-0.7-0.7-1.9,0-2.6l7.9-7.9c0.7-0.7,1.9-0.7,2.6,0
				C41.3,30.9,41.3,32,40.6,32.7z"/>
		</g>
		<g>
			<path fill="#55C0EB" d="M45.5,18.4H27.8l-1.7-6.5c-0.2-0.9-1.4-1-1.9-0.2l-6.1,11.8L16.4,19c-0.1-0.4-0.5-0.6-0.9-0.6l-6.3,0
				c-0.6,0-1,0.5-1,1s0.4,1,1,1c0,0,0,0,0,0l5.6,0l2.2,5.9c0.3,0.8,1.4,0.9,1.8,0.1l5.9-11.5l1.3,4.7c0.1,0.4,0.5,0.7,1,0.7h18.4
				c0.6,0,1-0.4,1-1S46,18.4,45.5,18.4z"/>
		</g>
	</g>
</g>
</svg>
