<?xml version="1.0" encoding="utf-8"?>
<!-- Generator: Adobe Illustrator 19.0.1, SVG Export Plug-In . SVG Version: 6.00 Build 0)  -->
<svg version="1.1" id="Layer_1" xmlns="http://www.w3.org/2000/svg" xmlns:xlink="http://www.w3.org/1999/xlink" x="0px" y="0px"
	 viewBox="0 0 48 48" style="enable-background:new 0 0 48 48;" xml:space="preserve">
<style type="text/css">
	.st0{fill:#66C6B9;}
	.st1{fill:#F3705A;}
	.st2{fill:#FFD15C;}
	.st3{fill:#F7B64C;}
	.st4{fill:#E8EAE9;}
	.st5{fill:#CED6E0;}
	.st6{fill:#344A5E;}
	.st7{fill:#F3F3F3;}
	.st8{fill:#415A6B;}
	.st9{fill:#8AD7F8;}
	.st10{fill:#FFFFFF;}
</style>
<g>
	<g>
		<g>
			<g>
				<g>
					<g>
						<path class="st0" d="M22.3,43.7c0-0.2,0-0.4,0-0.5c0.2-1.4-0.4-5.8,1.5-6.7c0.7,2.4,1.2,4.8,1.6,7.1h-3.1V43.7z"/>
					</g>
					<path class="st1" d="M38.4,22.5c0,2.9-0.1,5.8-0.1,8.7c0,1,0,2.1-0.7,2.9c-0.6,0.8-1.8,1.1-2.8,1.3c-1.1,0.2-2.3,0.3-3.5,0.3
						c-0.5,0-1,0-1.4-0.2c-0.7-0.3-1.1-0.9-1.4-1.6s-0.3-1.4-0.3-2.2c0-1-0.1-2,0-3s0.5-2,1.1-2.7c0.7-0.8,1.7-1.4,2.7-1.7
						c1-0.3,2.1-0.4,3.2-0.5"/>
					<g>
						<path class="st2" d="M39,34.2l-1.3-2.1c0,0-0.7-0.5-0.8-1.2s0-1.3,0-1.3s0.9-2.6,0.6-6.6l-2.8-4.3L31,17.9l-3.2,5.3
							c0,0-0.1,4.9,2.4,7.5c0,0,0.5,1.7,0.4,2l-1.3,1.8l-0.7,4l3.4,1.7C32,40.2,37.7,37.6,39,34.2z"/>
					</g>
					<path class="st3" d="M38.4,33.9l-0.5-1.6L37.7,32c0,0-0.7-0.5-0.8-1.2s0-1.3,0-1.3c-3.9,5.2-6.8,1.2-6.8,1.2
						C33.6,36.2,38.4,33.9,38.4,33.9z"/>
					<g>
						<path class="st4" d="M27.3,43.7c0.4-4.3,1.1-8.5,2-9.1c0,0-0.2,2.3,0.6,3.4c0.7,1.1,6-1.3,7.3-4.2l1.7,0.2l-2.5,9.7H27.3z"/>
					</g>
					<g>
						<path class="st0" d="M41.8,43.7l-0.6-5.4c0-0.1,4.6-2.9,4.6-2.9s1.1,0.3,1.4,1.6c0.2,0.8,0.6,3.9,0.9,6.7
							C48.1,43.7,41.8,43.7,41.8,43.7z"/>
					</g>
					<g>
						<path class="st0" d="M43,43.7H32.8c0.5-1.6,1.1-3.1,1.8-4.4c1.4-2.8,3.1-7.2,3.1-7.2c0.4,0.2,2.3,1,3,1.3
							c2.2,0.7,5.1,2.1,5.1,2.1C43.6,36.5,43.1,40.8,43,43.7z"/>
						<path class="st0" d="M23.9,43.7c0-0.1,0-0.2-0.1-0.3c-0.6-3.1,0-6.8,0-6.8s4-1.9,4.7-2.3s2.1-1.4,2.1-1.4
							c-0.9,1.6-2.5,6.5-2.9,10.9h-3.8V43.7z"/>
					</g>
					<g>
						<path class="st1" d="M33,19.6c0,0,0.8,0,2.4,1.6c1.7,1.6,2.2,2.6,2.3,3.4S36.9,31,36.9,31c0.8,2.8,1.6,5.3,5,7.7
							c0,0-2-6.8-2.6-9.1s0.6-4.3-0.6-8.4S34.9,15.7,32,16c-2.9,0.3-4.5,2.9-4.8,4.6c-0.3,1.6-0.1,7.5,0.3,8.8s1.3,7.4,1.3,7.4
							l-0.2-8.7c0,0-0.6-1.8-0.2-3c0.5-1.2,0.1-3.5,1-4.3C30.3,19.8,31.7,19.3,33,19.6z"/>
					</g>
					<path class="st1" d="M27.3,28.3c0,0,0.5,5.4-0.2,8.5c-0.8,3.1-1.3,3.8-1.3,3.8s3.2-1.2,3.7-4.5s0-4.4,0-4.4"/>
					<g>
						<path class="st1" d="M30.7,37.4c-0.5,1-1.2,1.9-1.7,2.9s-0.8,2.2-0.4,3.3c-0.9-0.7-1.2-2.1-1-3.3s0.7-2.3,1-3.5
							c0.4-1.7,0.3-3.4,0.2-5.1l1.4-1C31.6,32.6,31.7,35.2,30.7,37.4z"/>
					</g>
					<path class="st1" d="M36.9,29.5c-0.3,1.3-0.1,3.5,0.4,4.8c0.4,1,1,2,1.4,3c0.3,1.1,0.3,2.2-0.1,3.3c0.6-0.2,1.1-0.9,1.1-1.6
						c0.1-0.7-0.1-1.4-0.4-2c-0.3-0.6-0.6-1.2-0.9-1.9c-0.7-1.6-0.6-3.5,0.1-5.1"/>
				</g>
				<g>
					<path class="st1" d="M37.1,29.3c-0.6,1.3-0.5,2.9-0.2,4.3s0.9,2.8,1.2,4.3c0.3,1.7,0,3.5-0.7,5.1c1.8-1.2,2.7-3.5,2.3-5.6
						c-0.2-0.9-0.6-1.8-0.9-2.7c-0.5-1.5-0.7-3.1-0.6-4.7"/>
				</g>
			</g>
			<g>
				<g>
					<g>
						<g>
							<path class="st5" d="M7.7,48v-6.8c0-1.8,1.5-3.3,3.3-3.3h7.2c1.8,0,3.3,1.5,3.3,3.3V48H7.7z"/>
						</g>
					</g>
					<g>
						<g>
							<g>
								<polygon class="st1" points="12.8,48 13.5,41.4 15.8,41.4 16.5,48 								"/>
							</g>
						</g>
						<g>
							<polygon class="st1" points="13.5,41.4 12.3,40.2 14.6,37.9 17,40.2 15.8,41.4 							"/>
						</g>
					</g>
					<g>
						<g>
							<g>
								<path class="st6" d="M0,48l1.6-7c0.3-1.1,1.1-1.9,2.2-2.1l5.7-1.1L11.6,48H0z"/>
							</g>
						</g>
						<g>
							<g>
								<g>
									<path class="st7" d="M11.1,35.5c0,0,0,0.4,1.6,1.3s1.9,1.1,1.9,1.1l-3.3,3.3c0,0-1.3-3.2-1.3-3.3S11,36.2,11.1,35.5z"/>
								</g>
							</g>
						</g>
						<g>
							<g>
								<path class="st8" d="M9.6,48c-0.9-2.5-2.4-7.2-2.4-7.2l1.7-0.9l-1.1-0.4c0,0,0.9-1.4,1.8-1.9c0.8-0.5,0.8-1.1,1.3-1.4
									c0,0,0.1,1.6,0.3,2.5s1.3,7.1,1.6,9c0,0.1,0,0.2,0,0.3C12.8,48,9.6,48,9.6,48z"/>
							</g>
						</g>
					</g>
					<g>
						<g>
							<g>
								<path class="st6" d="M17.6,48l2.1-10.3l5.7,1.1c1.1,0.2,2,1.1,2.2,2.1l1.6,7H17.6V48z"/>
							</g>
						</g>
						<g>
							<g>
								<g>
									<path class="st7" d="M18.2,35.5c0,0,0,0.4-1.6,1.3s-1.9,1.1-1.9,1.1l3.3,3.3c0,0,1.3-3.2,1.3-3.3S18.3,36.2,18.2,35.5z"/>
								</g>
							</g>
						</g>
						<g>
							<g>
								<path class="st8" d="M19.7,48h-3.2c0-0.1,0-0.2,0-0.3c0.3-1.9,1.4-8,1.6-9c0.2-0.9,0.3-2.5,0.3-2.5c0.5,0.3,0.5,1,1.3,1.4
									c0.8,0.5,1.8,1.9,1.8,1.9l-1.1,0.4l1.7,0.9C22,40.8,20.6,45.5,19.7,48z"/>
							</g>
						</g>
					</g>
				</g>
				<g>
					<g>
						<path class="st3" d="M18.2,30.3v5.2c0,0,0,0.4-1.6,1.3s-1.9,1.1-1.9,1.1s-0.3-0.2-1.9-1.1s-1.6-1.3-1.6-1.3v-5.2H18.2z"/>
					</g>
				</g>
				<g>
					<g>
						<path class="st2" d="M10.7,25.2c0-0.5,0.1-1,0.5-1.4c0.3-0.4,0.6-0.7,1.1-0.8c0.4-0.1,0.8-0.2,1.2-0.2
							c0.8-0.1,1.6-0.1,2.4,0.1c0,0,0,0,0.1,0c0.5-0.2,1.1-0.4,1.7-0.4c0.7,0,1.2,0.3,1.6,0.9c0.3,0.5,0.4,1.1,0.3,1.6
							s-0.2,1-0.4,1.5c0.3,0.9,0.5,1.9,0.5,2.9c0,3.6-2.3,6.5-5.1,6.5S9.5,33,9.5,29.4C9.5,27.9,9.9,26.4,10.7,25.2z"/>
					</g>
				</g>
				<g>
					<g>
						
							<ellipse transform="matrix(0.1455 0.9894 -0.9894 0.1455 37.5431 15.5423)" class="st2" cx="9.8" cy="29.5" rx="1.9" ry="0.9"/>
					</g>
				</g>
				<g>
					<g>
						
							<ellipse transform="matrix(0.1455 -0.9894 0.9894 0.1455 -12.4385 44.5998)" class="st2" cx="19.6" cy="29.5" rx="1.9" ry="0.9"/>
					</g>
				</g>
				<g>
					<g>
						<path class="st8" d="M19.3,30.8L19,30.7c0,0,0.5-1,0-2.3c-0.4-1.3-0.5-1.7-0.4-2.5c0.1-0.7,0.3-2-1.2-2.3
							c-1.4-0.2-4.5-0.1-5.5,0s-1.4,1.5-1.3,2.1c0.2,0.6-0.2,1.7-0.3,2.4c-0.1,0.7,0,2.4,0,2.4l-0.2-0.1c0,0,0-1.2-0.3-1.9
							S9.3,27,9.3,25.4c0-2,0.6-2.6,0.6-2.6s-0.8-2.2,1.9-3.2c2.6-1,4.1-0.3,5.6,0.4c1.5,0.7,2.6,2.3,2.9,3.2s-0.1,4.7-0.5,5.3
							C19.6,29.1,19.3,30.8,19.3,30.8z"/>
					</g>
				</g>
			</g>
		</g>
		<g>
			<g>
				<path class="st9" d="M25.8,2v11c0,1.1-0.9,2-2,2H23v5.2L15.8,15H5.5c-1.1,0-2-0.9-2-2V2c0-1.1,0.9-2,2-2h18.3
					C24.9,0,25.8,0.9,25.8,2z"/>
			</g>
			<g>
				<g>
					<circle class="st10" cx="8.3" cy="7.5" r="2"/>
					<circle class="st10" cx="14.6" cy="7.5" r="2"/>
					<circle class="st10" cx="21" cy="7.5" r="2"/>
				</g>
			</g>
		</g>
	</g>
</g>
</svg>
