<?xml version="1.0" encoding="utf-8"?>
<!-- Generator: Adobe Illustrator 18.0.0, SVG Export Plug-In . SVG Version: 6.00 Build 0)  -->
<!DOCTYPE svg PUBLIC "-//W3C//DTD SVG 1.1//EN" "http://www.w3.org/Graphics/SVG/1.1/DTD/svg11.dtd">
<svg version="1.1" id="Layer_1" xmlns="http://www.w3.org/2000/svg" xmlns:xlink="http://www.w3.org/1999/xlink" x="0px" y="0px"
	 viewBox="0 0 48 48" enable-background="new 0 0 48 48" xml:space="preserve">
<g>
	<g>
		<g>
			<path fill="#FFD15D" d="M43.2,15.1c-0.9-0.7-1.6-0.9-1.6-0.9l-2.2-0.7c0,0-1.9,0.7-0.3,2.3l1.3,0.8l-1,2.5c0,0-2.7,1.9-3.4,2
				c-0.7,0.1-1.3-0.2-1.3-0.2l2.6-4.4c0,0,1.5-2.4,1.4-4.7c-0.1-2.3-0.2-4.3-0.2-4.3s0.2-0.6-1-1.5C36.3,5,36.3,5,36.3,5l-1.8-0.6
				c0,0-1.9,0.7-0.7,2.5l0.8,0.7l0.2,1.8l-0.3,3.2c0,0-1.6,1.9-2.1,2.9c0,0-2.6,2.1-2.6,1.1c0-1.1,1.5-6.8,1.5-6.8l-0.5-5.4
				c0,0,0.6-1.9-1.1-3c-1.8-1.2-3.3-0.3-3.3-0.3S24.6,2.4,26.8,4l-0.3,4.9c0,0-0.1,3.3-0.9,5.6c-0.3,0.8-0.9,1.4-1.7,1.5
				c-0.8,0.1-1.7-0.3-2.3-2.2c-1.2-3.8-1.5-6.5-1.5-6.5s-1.3-2.9-1.3-3.8c0-0.9-1.5-2.6-1.5-2.6S15.6,0,14.7,1.2
				c-0.8,1.3-0.1,3.6-0.1,3.6s0.6,1.4,0.4,2.7c-0.2,1.3,0.7,2.7,0.7,2.7s1.5,3.5,1.4,6.2c-0.1,2.7,0,4.3-1.5,7.9c0,0-0.8,1.4-3.1,2
				c0,0-1.8,0.3-2.1-1.2c-0.3-1.4-0.6-2.4-0.6-2.4l0.5-1.8c0,0,2.3-4.8-0.7-5.3l-2.6,3.1c0,0-0.9,0.9-1.8,1.7
				C4.3,21.2,4,22,4.4,23.3c0.4,1.3,1.7,4.5,1.8,5.1C6.4,29,6,31.2,9,33.3c0,0,3.9,3.8,4.1,5.1c0.2,1.4,1.8,3.8,1.8,3.8
				s1,2.7,1.7,5.8h15.6c0-1.7,0.1-3.2,0.2-4.1c0.6-4.1,1.8-7.9,1.8-7.9s1.2-6.1,3.9-10.3l3.1-3.2c0,0,1.5-0.8,1.9-2.8
				c0.3-2,0.4-2.6,0.4-2.6S44.2,15.8,43.2,15.1z"/>
			<g>
				<path fill="#435B6C" d="M14.8,1.3c0,0,1.1-1.2,2.6-0.3c0,0,0.3-0.3-0.2-0.7c-0.5-0.4-1.7-0.6-2.5,0.5
					C14.7,0.8,14.3,1.8,14.8,1.3z"/>
			</g>
			<g>
				<path fill="#435B6C" d="M38.3,13.4c0,0,0.7,0.3,1.1,0.6c0.4,0.3,1.6,0.7,1.9,0.6c0,0,0.6-0.2-0.2-0.7
					C40.4,13.2,38.9,13.2,38.3,13.4z"/>
			</g>
			<g>
				<path fill="#435B6C" d="M33.5,4.3c0,0,1.3,0.5,2.2,1.2C36.6,6.2,37,5.8,37,5.8S37,5,35.7,4.4C34.4,3.9,33.7,4.3,33.5,4.3z"/>
			</g>
			<g>
				<path fill="#435B6C" d="M25.8,1.6c0,0,0.7-0.5,2.5,0.4h0.7c0,0,0.4,0.1-0.2-0.6c-0.6-0.7-1.4-0.7-1.4-0.7S25.6,1.1,25.8,1.6z"/>
			</g>
			<g>
				<path fill="#435B6C" d="M7.3,18.4c0,0,0.3,1.9,1.8,0.6l2.3-5c0,0,0.7-1.1-0.4-0.3C10,14.5,7.7,16.6,7.3,18.4z"/>
			</g>
		</g>
		<g>
			<path fill="#F3705B" d="M10.3,23.8c-0.1-0.9,0.3-1.8,0.5-2.7c0.3-1.4,0.2-3-0.4-4.4c-0.1-1.6-4.5,3.3-4,7.3
				c0.1,0.5,0.2,1,0.1,1.5c-0.1,0.6-0.6,1.1-0.8,1.7c-0.3,0.7-0.2,1.5,0.3,2.2c0.1-0.2,0.2-0.5,0.4-0.7c0.2-0.2,0.5-0.2,0.7,0
				c0.2,0.2,0.1,0.6,0,1c-0.2,0.6-0.3,1.2-0.3,1.9c0,0.3,0.1,0.7,0.4,0.7c0.2,0,0.3-0.1,0.5-0.3c1-1.1,1.6-2.6,1.7-4.1
				c0-0.3,0-0.6,0.2-0.7c0.3-0.2,0.8,0,0.9,0.4c0.1,0.4,0.1,0.7,0.2,1.1c0.1,0.4,0.4,0.7,0.8,0.7c0.4-0.1,0.5-0.6,0.5-1
				C11.9,26.8,10.4,25.5,10.3,23.8z"/>
			<g>
				<path fill="#F3705B" d="M9.1,39.3c-0.1,0.3-0.4,0.6-0.7,0.5c-0.4-0.1-0.5-0.6-0.4-0.9c0.1-1.1,0.5-2.2,0.4-3.2
					c0.2,0.9,0.5,1.8,0.7,2.7C9.1,38.6,9.2,39,9.1,39.3z"/>
			</g>
			<g>
				<path fill="#F3705B" d="M9.8,31.2c-0.5,0.5-0.4,1.3-0.2,1.9c0.2,0.6,0.7,1.2,1,1.8c0.2,0.3,0.3,0.7,0.2,1.1
					c-0.1,0.4-0.5,0.7-0.8,0.6c-0.3-0.1-0.5-0.3-0.5-0.6s-0.1-0.6-0.1-0.9c-0.1-0.5-0.4-1-0.6-1.5c-0.2-0.5-0.4-1-0.3-1.5
					c0.1-0.6,0.6-1,1-1.4c0.4-0.4,0.8-1,0.6-1.6c0.5,0.7,0.3,1.8-0.4,2.3"/>
			</g>
		</g>
		<path fill="#F3705B" d="M42.4,19.3c0.2-0.4,0.7-0.7,0.7-1.2c0-0.6-0.8-0.8-1.2-1.2c-0.4-0.4-0.5-0.9-0.5-1.4
			c-0.1-0.5-0.1-1-0.5-1.5c-0.3-0.4-0.9-0.6-1.3-0.3l-0.5,0c-0.3,0.3-0.4,0.7-0.3,1c0.1,0.4,0.4,0.6,0.8,0.7c0.1,0,0.3,0,0.4,0.1
			c0.3,0.2-0.1,0.6,0,1c0,0.3,0.4,0.4,0.6,0.7c0.3,0.3,0.3,0.8,0.3,1.2c0,0.7,0,1.4-0.1,2.1c-0.1,1-0.1,2,0.2,2.9
			c0.1,0.4,0.4,0.8,0.8,0.7c0.2-0.1,0.3-0.4,0.3-0.7c0-0.3-0.1-0.5,0-0.8c0.1-0.3,0.4-0.4,0.6-0.2C42.8,21.4,41.9,20.2,42.4,19.3z"
			/>
		<g>
			<path fill="#F3705B" d="M41.6,24.9c0,0.2,0,0.4-0.2,0.4c-0.2,0.1-0.3,0-0.4-0.2c-0.1-0.1-0.1-0.3-0.1-0.5c0-0.6,0-1.3,0-1.9
				l0.2,0.2c0,0.5,0,1.1,0.3,1.6C41.4,24.6,41.5,24.7,41.6,24.9z"/>
		</g>
		<g>
			<path fill="#F3705B" d="M39.6,19.5c0,0.2,0,0.5,0.2,0.6c0.2,0.1,0.3,0,0.4-0.3c0.1-0.2,0.1-0.5,0.1-0.7c0-0.9,0-1.8,0-2.7
				l-0.2,0.2c0,0.8,0,1.6-0.3,2.3C39.7,19.1,39.6,19.3,39.6,19.5z"/>
		</g>
		<g>
			<path fill="#F3705B" d="M6.5,35.9c-0.1,0.4,0,0.8,0.3,1c0.3,0.2,0.6-0.1,0.7-0.4c0.1-0.3,0.1-0.8,0.1-1.2c0-1.5,0-2.9,0-4.4
				l-0.3,0.4c0,1.2-0.1,2.5-0.5,3.6C6.7,35.2,6.5,35.5,6.5,35.9z"/>
		</g>
	</g>
</g>
</svg>
