<?xml version="1.0" encoding="utf-8"?>
<!-- Generator: Adobe Illustrator 18.0.0, SVG Export Plug-In . SVG Version: 6.00 Build 0)  -->
<!DOCTYPE svg PUBLIC "-//W3C//DTD SVG 1.1//EN" "http://www.w3.org/Graphics/SVG/1.1/DTD/svg11.dtd">
<svg version="1.1" id="Layer_1" xmlns="http://www.w3.org/2000/svg" xmlns:xlink="http://www.w3.org/1999/xlink" x="0px" y="0px"
	 viewBox="0 0 48 48" enable-background="new 0 0 48 48" xml:space="preserve">
<g>
	<g>
		<polygon fill="#40596B" points="20.2,40.2 19.1,36 17.9,36.2 19,40.4 		"/>
		<polygon fill="#40596B" points="27.8,40.2 28.9,36 30.1,36.2 29,40.4 		"/>
	</g>
	<path fill="#84DBFF" d="M18,36.7h12c5.7-7.5,12.7-10.6,12.7-18C42.7,8.4,34.3,0,24,0S5.3,8.4,5.3,18.7C5.3,26.2,12.2,29.2,18,36.7z
		"/>
	<path fill="#54C0EB" d="M27.7,36.7c3.6-7.5,7.9-10.6,7.9-18C35.7,8.4,30.4,0,24,0S12.3,8.4,12.3,18.7c0,7.4,4.3,10.5,7.9,18H27.7z"
		/>
	<path fill="#84DBFF" d="M25.5,36.7c1.5-7.5,3.3-10.6,3.3-18C28.8,8.4,26.7,0,24,0s-4.8,8.4-4.8,18.7c0,7.4,1.8,10.5,3.3,18H25.5z"
		/>
	<path fill="#FF7058" d="M29,39.7H19c-0.6,0-1,0.4-1,1V47c0,0.6,0.4,1,1,1H29c0.6,0,1-0.4,1-1v-6.3C30,40.1,29.5,39.7,29,39.7z"/>
</g>
</svg>
