<?xml version="1.0" encoding="utf-8"?>
<!-- Generator: Adobe Illustrator 20.1.0, SVG Export Plug-In . SVG Version: 6.00 Build 0)  -->
<!DOCTYPE svg PUBLIC "-//W3C//DTD SVG 1.1//EN" "http://www.w3.org/Graphics/SVG/1.1/DTD/svg11.dtd">
<svg version="1.1" id="Layer_1" xmlns="http://www.w3.org/2000/svg" xmlns:xlink="http://www.w3.org/1999/xlink" x="0px" y="0px"
	 viewBox="0 0 49 49" enable-background="new 0 0 49 49" xml:space="preserve">
<g>
	<path fill="#40596B" d="M38.3,0.5H10.7c-1.1,0-2,0.9-2,2v44c0,1.1,0.9,2,2,2h27.6c1.1,0,2-0.9,2-2v-44C40.3,1.4,39.4,0.5,38.3,0.5z
		"/>
	
		<rect x="7.1" y="10.3" transform="matrix(-1.836970e-16 1 -1 -1.836970e-16 48.1309 -0.869)" fill="#F2F2F2" width="34.9" height="26.6"/>
	<path fill="#334A5E" d="M26.7,43.6h-4.9c-0.6,0-1.1,0.5-1.1,1.1s0.5,1.1,1.1,1.1h4.9c0.6,0,1.1-0.5,1.1-1.1S27.3,43.6,26.7,43.6z"
		/>
	<path fill="#334A5E" d="M28.5,2.9h-8c-0.3,0-0.5,0.2-0.5,0.5c0,0.3,0.2,0.5,0.5,0.5h8c0.3,0,0.5-0.2,0.5-0.5
		C29,3.1,28.8,2.9,28.5,2.9z"/>
	<circle fill="#FF7058" cx="23.2" cy="28.4" r="1.4"/>
	<circle fill="#FF7058" cx="29.4" cy="28.4" r="1.4"/>
	<path fill="#FF7058" d="M33.4,15.6H20.6L20,12.8c-0.1-0.4-0.5-0.7-0.9-0.7H16c-0.5,0-0.9,0.4-0.9,0.9c0,0.5,0.4,0.9,0.9,0.9h2.3
		l2.5,11.9c0.1,0.4,0.5,0.7,0.9,0.7h9.1c0.5,0,0.9-0.4,0.9-0.9s-0.4-0.9-0.9-0.9h-8.4l-0.3-1.3H32c0.2,0,0.4-0.2,0.5-0.4l1.4-6.8
		C34,15.9,33.7,15.6,33.4,15.6z M23.8,21.1c0,0.5-0.4,0.8-0.8,0.8c-0.5,0-0.8-0.4-0.8-0.8v-3.4c0-0.5,0.4-0.8,0.8-0.8
		c0.5,0,0.8,0.4,0.8,0.8V21.1z M27.1,21.1c0,0.5-0.4,0.8-0.8,0.8c-0.5,0-0.8-0.4-0.8-0.8v-3.4c0-0.5,0.4-0.8,0.8-0.8
		c0.5,0,0.8,0.4,0.8,0.8V21.1z M30.4,21.1c0,0.5-0.4,0.8-0.8,0.8s-0.8-0.4-0.8-0.8v-3.4c0-0.5,0.4-0.8,0.8-0.8s0.8,0.4,0.8,0.8V21.1
		z"/>
	<path fill="#FFD15C" d="M32.5,32.2H16.5c-0.6,0-1,0.4-1,1v5c0,0.6,0.4,1,1,1h16.1c0.6,0,1-0.4,1-1v-5
		C33.5,32.6,33.1,32.2,32.5,32.2z"/>
	<path fill="#FFFFFF" d="M20.1,38h-1.4v-4.5c0.6,0,1,0,1.3,0c0.5,0,0.8,0.1,1.1,0.3c0.3,0.2,0.4,0.5,0.4,0.9c0,0.4-0.2,0.6-0.6,0.9
		c0.6,0.2,0.8,0.6,0.8,1.2c0,0.4-0.2,0.7-0.5,1C21,37.8,20.6,38,20.1,38z M19.6,34.1v1.1c0.1,0,0.3,0,0.4,0c0.5,0,0.8-0.2,0.8-0.6
		c0-0.3-0.2-0.5-0.7-0.5C19.9,34,19.7,34.1,19.6,34.1z M19.6,35.8v1.5c0.2,0,0.3,0,0.4,0c0.4,0,0.6-0.1,0.8-0.2
		c0.2-0.1,0.2-0.3,0.2-0.6c0-0.3-0.1-0.4-0.2-0.6c-0.2-0.1-0.4-0.2-0.8-0.2C19.9,35.8,19.7,35.8,19.6,35.8z"/>
	<path fill="#FFFFFF" d="M22.5,33.4h0.8v3.1c0,0.2,0.1,0.4,0.2,0.6c0.1,0.2,0.4,0.2,0.6,0.2c0.3,0,0.5-0.1,0.7-0.2
		c0.2-0.2,0.2-0.4,0.2-0.6v-3.1h0.8v3.1c0,0.5-0.2,0.8-0.5,1.1c-0.3,0.3-0.7,0.4-1.3,0.4c-0.5,0-0.9-0.1-1.2-0.4
		c-0.3-0.3-0.4-0.6-0.4-1.1V33.4z"/>
	<path fill="#FFFFFF" d="M28.7,36.1V38h-0.8v-1.9l-1.5-2.7h0.9l1.1,1.9l1.1-1.9h0.9L28.7,36.1z"/>
</g>
</svg>
