<?xml version="1.0" encoding="utf-8"?>
<!-- Generator: Adobe Illustrator 18.0.0, SVG Export Plug-In . SVG Version: 6.00 Build 0)  -->
<!DOCTYPE svg PUBLIC "-//W3C//DTD SVG 1.1//EN" "http://www.w3.org/Graphics/SVG/1.1/DTD/svg11.dtd">
<svg version="1.1" id="Layer_1" xmlns="http://www.w3.org/2000/svg" xmlns:xlink="http://www.w3.org/1999/xlink" x="0px" y="0px"
	 viewBox="0 0 48 48" enable-background="new 0 0 48 48" xml:space="preserve">
<g>
	<g>
		<g>
			<g>
				<path fill="#E8EAE9" d="M36.4,33.8c0,7.8-6.4,14.2-14.2,14.2c-7.8,0-14.2-6.4-14.2-14.2c0-4.9,2.5-9.2,6.2-11.7V8
					c0-4.4,3.6-8,8-8c4.4,0,8,3.6,8,8v14.1C34,24.7,36.4,29,36.4,33.8z"/>
			</g>
			<g>
				<path fill="#F05540" d="M25.8,24.8V14.3h-7v10.6c-3.6,1.4-6.1,4.9-6.1,9c0,5.3,4.3,9.6,9.6,9.6c5.3,0,9.6-4.3,9.6-9.6
					C31.9,29.7,29.4,26.2,25.8,24.8z"/>
			</g>
			<g>
				<path fill="#FFFFFF" d="M28.4,29.3c0.9,1.2,1.2,2.5,0.6,3c-0.6,0.5-1.9-0.1-2.8-1.3c-0.9-1.2-1.2-2.5-0.6-3
					C26.2,27.6,27.4,28.1,28.4,29.3z"/>
			</g>
		</g>
		<g>
			<g>
				<rect x="35.3" y="5.2" fill="#E8EAE9" width="4.6" height="1.3"/>
			</g>
			<g>
				<rect x="35.3" y="9.6" fill="#E8EAE9" width="4.6" height="1.3"/>
			</g>
			<g>
				<rect x="35.3" y="14" fill="#E8EAE9" width="4.6" height="1.3"/>
			</g>
			<g>
				<rect x="35.3" y="18.4" fill="#E8EAE9" width="4.6" height="1.3"/>
			</g>
		</g>
	</g>
</g>
</svg>
