<?xml version="1.0" encoding="utf-8"?>
<!-- Generator: Adobe Illustrator 18.0.0, SVG Export Plug-In . SVG Version: 6.00 Build 0)  -->
<!DOCTYPE svg PUBLIC "-//W3C//DTD SVG 1.1//EN" "http://www.w3.org/Graphics/SVG/1.1/DTD/svg11.dtd">
<svg version="1.1" id="Layer_1" xmlns="http://www.w3.org/2000/svg" xmlns:xlink="http://www.w3.org/1999/xlink" x="0px" y="0px"
	 viewBox="0 0 48 48" enable-background="new 0 0 48 48" xml:space="preserve">
<g>
	<g>
		<g>
			<g>
				<path fill="#FFD15C" d="M32,30.9v-4l-4.4-1.3c-0.3-0.9-0.6-1.8-1.1-2.6l2.2-4l-2.8-2.8l-4,2.2c-0.8-0.5-1.7-0.8-2.6-1.1L18,12.9
					h-4l-1.3,4.4c-0.9,0.3-1.8,0.6-2.6,1.1l-4-2.2L3.3,19l2.2,4c-0.5,0.8-0.8,1.7-1.1,2.6L0,26.9v4l4.4,1.3C4.6,33.1,5,34,5.5,34.8
					l-2.2,4l2.8,2.8l4-2.2c0.8,0.5,1.7,0.8,2.6,1.1l1.3,4.4h4l1.3-4.4c0.9-0.3,1.8-0.6,2.6-1.1l4,2.2l2.8-2.8l-2.2-4
					c0.5-0.8,0.8-1.7,1.1-2.6L32,30.9z M16,34.8c-3.3,0-5.9-2.7-5.9-5.9c0-3.3,2.7-5.9,5.9-5.9c3.3,0,5.9,2.6,5.9,5.9
					C21.9,32.1,19.3,34.8,16,34.8z"/>
			</g>
			<g>
				<path fill="#8AD7F8" d="M43.8,15.6l1-2.5l-2.4-1.9c0.1-0.6,0.1-1.3,0-1.9l2.4-1.9l-1-2.5l-3,0.4c-0.4-0.5-0.8-0.9-1.3-1.3l0.3-3
					l-2.5-1l-1.9,2.4c-0.6-0.1-1.3-0.1-1.9,0L31.5,0l-2.5,1l0.4,3c-0.5,0.4-0.9,0.8-1.3,1.3l-3-0.3l-1,2.5l2.4,1.9
					c-0.1,0.6-0.1,1.3,0,1.9l-2.4,1.9l1,2.5l3-0.4c0.4,0.5,0.8,0.9,1.3,1.3l-0.3,3l2.5,1l1.9-2.4c0.6,0.1,1.3,0.1,1.9,0l1.9,2.4
					l2.5-1l-0.4-3c0.5-0.4,0.9-0.8,1.3-1.3L43.8,15.6z M32.9,14c-2-0.8-3-3.1-2.2-5.1c0.8-2,3.1-3,5.1-2.2c2,0.8,3,3.1,2.2,5.1
					C37.3,13.8,35,14.8,32.9,14z"/>
			</g>
		</g>
		<g>
			<g>
				<polygon fill="#344A5E" points="34.9,38.5 37.1,40.7 40.7,37.1 38.5,34.9 				"/>
				<g>
					<path fill="#415A6B" d="M37.2,37.2c-5.1,5.1-13.4,5.1-18.5,0s-5.1-13.4,0-18.5s13.4-5.1,18.5,0S42.3,32.1,37.2,37.2z
						 M20.9,20.9c-3.8,3.8-3.8,10.1,0,14s10.1,3.8,13.9,0s3.8-10.1,0-14S24.8,17.1,20.9,20.9z"/>
				</g>
				<g>
					<path fill="#F3705A" d="M37,42.7l4,4c1.5,1.5,3.9,1.7,5.5,0.4c1.8-1.5,1.9-4.3,0.3-5.9l-4.2-4.2c-0.5-0.5-1.4-0.5-2,0L37,40.7
						C36.5,41.3,36.5,42.2,37,42.7z"/>
				</g>
			</g>
		</g>
		<g opacity="0.25">
			<path fill="#FFFFFF" d="M20.9,20.9c-3.8,3.8-3.8,10.1,0,14s10.1,3.8,13.9,0s3.8-10.1,0-14S24.8,17.1,20.9,20.9z"/>
		</g>
	</g>
</g>
</svg>
