<?xml version="1.0" encoding="utf-8"?>
<!-- Generator: Adobe Illustrator 18.0.0, SVG Export Plug-In . SVG Version: 6.00 Build 0)  -->
<!DOCTYPE svg PUBLIC "-//W3C//DTD SVG 1.1//EN" "http://www.w3.org/Graphics/SVG/1.1/DTD/svg11.dtd">
<svg version="1.1" id="Layer_1" xmlns="http://www.w3.org/2000/svg" xmlns:xlink="http://www.w3.org/1999/xlink" x="0px" y="0px"
	 viewBox="0 0 48 48" enable-background="new 0 0 48 48" xml:space="preserve">
<g>
	<g>
		<path fill="#84DBFF" d="M17.3,22.1c-0.2-0.4-0.3-0.7-0.3-1.2c0-1.5,1.2-2.6,2.6-2.6c1.5,0,2.6,1.2,2.6,2.6c0,0.4-0.1,0.8-0.3,1.2
			h11.6c0-0.4,0.1-0.8,0.1-1.2c0-7.7-6.3-14-14-14c-7.7,0-14,6.3-14,14c0,0.4,0,0.8,0.1,1.2H17.3z"/>
		<path fill="#40596B" d="M17.3,22.1c-0.2-0.4-0.3-0.7-0.3-1.2c0-1.5,1.2-2.6,2.6-2.6c1.5,0,2.6,1.2,2.6,2.6c0,0.4-0.1,0.8-0.3,1.2
			h3.2c0.1-0.4,0.1-0.8,0.1-1.2c0-3.1-2.6-5.7-5.7-5.7c-3.1,0-5.7,2.6-5.7,5.7c0,0.4,0,0.8,0.1,1.2H17.3z"/>
		<path fill="#FF7058" d="M17.3,22.1c-0.2-0.4-0.3-0.7-0.3-1.2c0-1.5,1.2-2.6,2.6-2.6c1.5,0,2.6,1.2,2.6,2.6c0,0.4-0.1,0.8-0.3,1.2
			h1c0.1-0.4,0.2-0.8,0.2-1.2c0-2-1.6-3.6-3.6-3.6c-2,0-3.6,1.6-3.6,3.6c0,0.4,0.1,0.8,0.2,1.2H17.3z"/>
		<path fill="#FFFFFF" d="M16.1,15.4c-0.8,0.5-1.5,1.2-2,2l-5.3-3.8c0.9-1.4,2.2-2.6,3.6-3.6L16.1,15.4z"/>
	</g>
	<g>
		<rect x="37.7" y="39.3" fill="#ACB3BA" width="7.7" height="1.8"/>
		<rect x="2.6" y="39.3" fill="#ACB3BA" width="7.7" height="1.8"/>
	</g>
	<path fill="#F2F2F2" d="M46,39.3H2c-1.1,0-2-0.9-2-2V22.9c0-1.1,0.9-2,2-2h44c1.1,0,2,0.9,2,2v14.4C48,38.4,47.1,39.3,46,39.3z"/>
	<path fill="#40596B" d="M32.7,28.1H6.6c-0.7,0-1.3-0.6-1.3-1.3l0,0c0-0.7,0.6-1.3,1.3-1.3h26.1c0.7,0,1.3,0.6,1.3,1.3l0,0
		C34,27.5,33.4,28.1,32.7,28.1z"/>
	<g>
		<circle fill="#CDD6E0" cx="15.8" cy="34.3" r="1.6"/>
		<circle fill="#CDD6E0" cx="8" cy="34.3" r="1.6"/>
		<circle fill="#CDD6E0" cx="23.6" cy="34.3" r="1.6"/>
		<circle fill="#CDD6E0" cx="31.3" cy="34.3" r="1.6"/>
	</g>
	<circle fill="#FFD15C" cx="41.5" cy="30.1" r="3.9"/>
</g>
</svg>
