<?xml version="1.0" encoding="utf-8"?>
<!-- Generator: Adobe Illustrator 18.0.0, SVG Export Plug-In . SVG Version: 6.00 Build 0)  -->
<!DOCTYPE svg PUBLIC "-//W3C//DTD SVG 1.1//EN" "http://www.w3.org/Graphics/SVG/1.1/DTD/svg11.dtd">
<svg version="1.1" id="Layer_1" xmlns="http://www.w3.org/2000/svg" xmlns:xlink="http://www.w3.org/1999/xlink" x="0px" y="0px"
	 viewBox="0 0 48 48" enable-background="new 0 0 48 48" xml:space="preserve">
<g>
	<g>
		<g>
			<g>
				<g>
					<path fill="#FFD15C" d="M10.1,34c1.3,1.3,2.6,2.6,3.9,3.9c-1.3,2.3-0.8,6.8,0.9,10.1C7.2,46.9,1.1,40.8,0,33.1
						C3.4,34.8,7.8,35.4,10.1,34z"/>
				</g>
				<g>
					<path fill="#F7B64C" d="M11.5,35.4C9.2,36.8,6.1,37.7,1.4,38c-0.3-0.6-0.5-1.2-0.7-1.8C5.3,37.2,9.1,36.6,11.5,35.4z"/>
				</g>
				<g>
					<path fill="#F7B64C" d="M12.4,35.9c-0.1,0.1-0.1,0.1-0.2,0.2c-1.9,1.9-3.6,3.8-6.8,7.4c-0.4-0.4-0.9-0.8-1.2-1.3
						c3.9-2.7,5.9-4.4,8-6.1C12.3,36,12.3,36,12.4,35.9z"/>
				</g>
				<g>
					<path fill="#F7B64C" d="M12.6,36.5c-1.2,2.5-1.8,6.2-0.8,10.8c-0.6-0.2-1.2-0.4-1.8-0.7C10.3,41.9,11.2,38.8,12.6,36.5z"/>
				</g>
			</g>
			<g>
				<g>
					<path fill="#FFD15C" d="M37.9,14c-1.3-1.3-2.6-2.6-3.9-3.9c1.3-2.3,0.8-6.8-0.9-10.1C40.8,1.1,46.9,7.2,48,14.9
						C44.6,13.2,40.2,12.6,37.9,14z"/>
				</g>
				<g>
					<path fill="#F7B64C" d="M36.5,12.6c2.4-1.4,5.4-2.2,10.1-2.6c0.3,0.6,0.5,1.2,0.7,1.8C42.7,10.8,38.9,11.4,36.5,12.6z"/>
				</g>
				<g>
					<path fill="#F7B64C" d="M35.6,12.1c0.1-0.1,0.1-0.1,0.2-0.2c1.9-1.9,3.6-3.8,6.8-7.4c0.4,0.4,0.9,0.8,1.2,1.3
						c-3.9,2.7-5.9,4.4-8,6.1C35.7,12,35.7,12,35.6,12.1z"/>
				</g>
				<g>
					<path fill="#F7B64C" d="M35.4,11.5c1.2-2.5,1.8-6.2,0.8-10.8c0.6,0.2,1.2,0.4,1.8,0.7C37.7,6.1,36.8,9.2,35.4,11.5z"/>
				</g>
			</g>
		</g>
		<g>
			
				<ellipse transform="matrix(0.7071 -0.7071 0.7071 0.7071 -9.9411 23.9999)" fill="#FFD15C" cx="24" cy="24" rx="18.3" ry="11.8"/>
		</g>
		<g>
			<g>
				<path fill="#F7B64C" d="M10.9,36.8c0,0-0.1-0.1-0.3-0.3c-0.2-0.2-0.5-0.6-0.7-1.2c-0.2-0.6-0.4-1.3-0.4-2.1
					c0-0.8,0.2-1.8,0.4-2.8c0.5-2,1.6-4.2,3-6.3c0.7-1.1,1.5-2.1,2.4-3.1c0.9-1,1.8-2,2.8-2.9c1-0.9,2-1.8,3-2.7
					c1-0.8,2.1-1.6,3.2-2.3c2.1-1.4,4.3-2.4,6.2-2.9c1.9-0.6,3.7-0.6,4.8-0.2c0.6,0.2,1,0.4,1.2,0.6c0.2,0.2,0.4,0.3,0.4,0.3
					s-0.1-0.1-0.4-0.3c-0.3-0.2-0.7-0.4-1.2-0.6c-1.1-0.3-2.8-0.2-4.7,0.4c-1.9,0.6-3.9,1.7-6,3.1c-1,0.7-2,1.5-3,2.3
					c-1,0.8-2,1.7-2.9,2.7c-0.9,1-1.8,2-2.6,3c-0.8,1-1.6,2-2.3,3.1c-1.4,2-2.4,4.1-3.1,5.9c-0.7,1.8-0.8,3.5-0.5,4.6
					c0.1,0.6,0.3,1,0.5,1.2C10.8,36.7,10.9,36.8,10.9,36.8z"/>
			</g>
			<g>
				<path fill="#F7B64C" d="M37.1,11.2c0,0,0.1,0.1,0.3,0.3c0.2,0.2,0.5,0.6,0.7,1.2c0.2,0.6,0.4,1.3,0.4,2.1c0,0.8-0.2,1.8-0.4,2.8
					c-0.5,2-1.6,4.2-3,6.3c-0.7,1.1-1.5,2.1-2.4,3.1c-0.9,1-1.8,2-2.8,2.9c-1.9,1.9-4,3.6-6.2,5c-2.1,1.4-4.3,2.4-6.2,2.9
					c-1.9,0.6-3.7,0.6-4.8,0.2c-0.6-0.2-1-0.4-1.2-0.6c-0.2-0.2-0.4-0.3-0.4-0.3s0.1,0.1,0.4,0.3c0.3,0.2,0.7,0.4,1.2,0.6
					c1.1,0.3,2.8,0.2,4.7-0.4c1.9-0.6,3.9-1.7,6-3.1c2-1.4,4.1-3.1,5.9-5c0.9-1,1.8-2,2.6-3c0.8-1,1.6-2,2.3-3.1
					c1.4-2,2.4-4.1,3.1-5.9c0.7-1.8,0.8-3.5,0.5-4.6c-0.1-0.6-0.3-1-0.5-1.2C37.2,11.3,37.1,11.2,37.1,11.2z"/>
			</g>
		</g>
		<g>
			<path fill="#F3705A" d="M22.3,16.9c-1.3,1.3-1.5,3.1-0.8,4.6c-1.5-0.7-3.3-0.4-4.6,0.8c-1.6,1.6-1.6,4.2,0,5.8
				c2.3,2.3,11.5,0.4,11.5,0.4s1.9-9.2-0.4-11.5C26.4,15.3,23.9,15.3,22.3,16.9z"/>
		</g>
	</g>
</g>
</svg>
