<?xml version="1.0" encoding="utf-8"?>
<!-- Generator: Adobe Illustrator 18.0.0, SVG Export Plug-In . SVG Version: 6.00 Build 0)  -->
<!DOCTYPE svg PUBLIC "-//W3C//DTD SVG 1.1//EN" "http://www.w3.org/Graphics/SVG/1.1/DTD/svg11.dtd">
<svg version="1.1" id="Layer_1" xmlns="http://www.w3.org/2000/svg" xmlns:xlink="http://www.w3.org/1999/xlink" x="0px" y="0px"
	 viewBox="0 0 48 48" enable-background="new 0 0 48 48" xml:space="preserve">
<g>
	<path fill="#40596B" d="M46,0H2C0.9,0,0,0.9,0,2v31.4c0,0.8,0.5,1.6,1.3,1.9l11.3,4.1h22.9l11.3-4.1c0.8-0.3,1.3-1,1.3-1.9V2
		C48,0.9,47.1,0,46,0z"/>
	<rect x="4" y="4" fill="#54C0EB" width="40" height="26.8"/>
	<rect x="12.6" y="39.4" fill="#CDD6E0" width="22.9" height="4.1"/>
	<path fill="#ACB3BA" d="M40,43.5H8c-1.2,0-2.2,1-2.2,2.2C5.8,47,6.8,48,8,48H40c1.2,0,2.2-1,2.2-2.2C42.2,44.5,41.2,43.5,40,43.5z"
		/>
	<circle fill="#F2F2F2" cx="24" cy="34.6" r="1.9"/>
	<g>
		<polygon fill="#84DBFF" points="7.3,30.8 31.5,4 28.2,4 4,30.8 		"/>
		<polygon fill="#84DBFF" points="19.8,30.8 44,4 34.4,4 10.2,30.8 		"/>
	</g>
</g>
</svg>
