<?xml version="1.0" encoding="utf-8"?>
<!-- Generator: Adobe Illustrator 18.0.0, SVG Export Plug-In . SVG Version: 6.00 Build 0)  -->
<!DOCTYPE svg PUBLIC "-//W3C//DTD SVG 1.1//EN" "http://www.w3.org/Graphics/SVG/1.1/DTD/svg11.dtd">
<svg version="1.1" id="Layer_1" xmlns="http://www.w3.org/2000/svg" xmlns:xlink="http://www.w3.org/1999/xlink" x="0px" y="0px"
	 viewBox="0 0 48 48" enable-background="new 0 0 48 48" xml:space="preserve">
<g>
	<path fill="#40596B" d="M6,21.1h40c1.1,0,2,0.9,2,2v23c0,1.1-0.9,2-2,2H6c-1.1,0-2-0.9-2-2v-23C4,21.9,4.9,21.1,6,21.1z"/>
	<rect x="4" y="29.6" fill="#ACB3BA" width="44" height="5"/>
	<g>
		<rect x="12.7" y="38.4" fill="#334A5E" width="6.7" height="2.1"/>
		<rect x="32.7" y="38.4" fill="#334A5E" width="6.7" height="2.1"/>
	</g>
	<path fill="#F2F2F2" d="M42,26.9H2c-1.1,0-2-0.9-2-2v-23c0-1.1,0.9-2,2-2h40c1.1,0,2,0.9,2,2v23C44,26.1,43.1,26.9,42,26.9z"/>
	<path fill="#CDD6E0" d="M37.7,5.1c-1.2-0.9-2.7-1.5-4.2-1.5c-1.5,0-3,0.5-4.2,1.5c-1.7,1.3-2.6,3.3-2.6,5.4s0.9,4.1,2.6,5.4
		c1.2,1,2.7,1.5,4.2,1.5c1.5,0,3-0.5,4.2-1.5c1.7-1.3,2.6-3.3,2.6-5.4S39.4,6.4,37.7,5.1z M39.6,10.1h-2.4c0-1.4-0.3-2.7-0.7-3.6
		c0.4-0.2,0.7-0.4,1-0.6C38.7,6.9,39.5,8.4,39.6,10.1z M33.8,4.4C33.8,4.4,33.9,4.4,33.8,4.4c0.7,0.2,1.2,0.8,1.7,1.6
		c-0.5,0.2-1.1,0.3-1.7,0.3V4.4z M35.1,4.6c0.6,0.2,1.2,0.4,1.7,0.8c0,0,0,0,0,0c-0.2,0.2-0.5,0.3-0.7,0.4
		C35.8,5.3,35.5,4.9,35.1,4.6z M30.1,5.4c0.5-0.4,1.1-0.6,1.8-0.8c-0.4,0.3-0.7,0.7-1,1.2C30.6,5.7,30.3,5.5,30.1,5.4
		C30.1,5.4,30.1,5.4,30.1,5.4z M33.1,4.4C33.1,4.4,33.1,4.4,33.1,4.4l0,2c-0.6,0-1.1-0.1-1.7-0.3C31.9,5.2,32.5,4.6,33.1,4.4z
		 M33.1,7.1v3h-2.6c0-1.3,0.3-2.4,0.6-3.4C31.8,6.9,32.4,7.1,33.1,7.1z M33.1,10.8v3c-0.7,0-1.3,0.2-2,0.4c-0.4-1-0.6-2.1-0.6-3.4
		H33.1z M33.1,14.6v2c0,0,0,0,0,0c-0.6-0.2-1.2-0.8-1.7-1.6C32,14.7,32.5,14.6,33.1,14.6z M31.8,16.3c-0.6-0.2-1.2-0.4-1.8-0.8
		c0,0,0,0,0,0c0.2-0.2,0.5-0.3,0.8-0.4C31.1,15.6,31.5,16,31.8,16.3z M36.9,15.5c-0.5,0.4-1.1,0.6-1.7,0.8c0.4-0.3,0.7-0.7,1-1.2
		C36.4,15.2,36.6,15.4,36.9,15.5C36.9,15.5,36.9,15.5,36.9,15.5z M33.8,16.5C33.8,16.5,33.8,16.5,33.8,16.5l0-2
		c0.6,0,1.1,0.1,1.7,0.3C35.1,15.8,34.5,16.4,33.8,16.5z M33.8,13.8v-3h2.6c0,1.3-0.3,2.4-0.6,3.4C35.2,14,34.5,13.8,33.8,13.8z
		 M33.8,10.1v-3c0.7,0,1.3-0.2,2-0.4c0.4,1,0.6,2.1,0.6,3.4H33.8z M29.5,5.8c0.3,0.2,0.7,0.4,1,0.6c-0.4,1-0.7,2.2-0.7,3.6h-2.4
		C27.5,8.4,28.2,6.9,29.5,5.8z M27.4,10.8h2.4c0,1.4,0.3,2.7,0.7,3.6c-0.4,0.2-0.7,0.4-1,0.6C28.2,14,27.5,12.5,27.4,10.8z
		 M37.5,15.1c-0.3-0.2-0.7-0.4-1-0.6c0.4-1,0.7-2.2,0.7-3.7h2.4C39.5,12.5,38.7,14,37.5,15.1z"/>
	<circle fill="#FF7058" cx="6.7" cy="6.7" r="3"/>
	<circle fill="#84DBFF" cx="10.6" cy="6.7" r="3"/>
	<rect x="3.7" y="20.7" fill="#FFD15C" width="6.7" height="2.1"/>
	<rect x="3.7" y="13.9" fill="#ACB3BA" width="16.3" height="2.1"/>
	<rect x="13.7" y="20.7" fill="#CDD6E0" width="6.7" height="2.1"/>
	<rect x="23.7" y="20.7" fill="#FFD15C" width="6.7" height="2.1"/>
	<rect x="33.7" y="20.7" fill="#CDD6E0" width="6.7" height="2.1"/>
</g>
</svg>
