<?xml version="1.0" encoding="utf-8"?>
<!-- Generator: Adobe Illustrator 18.0.0, SVG Export Plug-In . SVG Version: 6.00 Build 0)  -->
<!DOCTYPE svg PUBLIC "-//W3C//DTD SVG 1.1//EN" "http://www.w3.org/Graphics/SVG/1.1/DTD/svg11.dtd">
<svg version="1.1" id="Layer_1" xmlns="http://www.w3.org/2000/svg" xmlns:xlink="http://www.w3.org/1999/xlink" x="0px" y="0px"
	 viewBox="0 0 48 48" enable-background="new 0 0 48 48" xml:space="preserve">
<g>
	<g>
		<g>
			<circle fill="#8AD7F8" cx="24" cy="24" r="24"/>
			<g>
				<path fill="#F3F3F3" d="M23.1,32.7c-0.5-0.2-1.1-0.3-1.7-0.4c-0.6-0.1-1.2-0.2-1.6-0.2c0,0,0.2-0.4,0.2-0.4
					c-0.5-0.3-0.8-0.9-1.5-0.8c-0.4,0-1-0.2-1.3-0.6c-0.3-0.4-0.6-0.3-0.8-0.3c-0.3,0-0.6,0.1-0.9,0.2c-0.3,0-0.6,0.1-0.9,0.2
					c0,0,0-0.2,0-0.6c-0.5,0.5-0.8,0.8-1.2,1.1c-0.2,0-0.5-0.1-0.7-0.1c-0.9,0.2-1,0.2-1-0.8c0-0.5-0.2-0.6-0.6-0.5
					c-0.2,0-0.4,0.1-0.6,0.1c0.1-0.5,0.1-0.9,0.2-1.3c-0.4,0.1-0.9-0.2-1,0.5C9.6,28.8,9,29,8.7,29c-0.6-0.2-1.1-1.1-0.8-1.8
					c0.2-0.4,0.6-0.8,1.2-0.7c0.2,0,0.4-0.1,0.5-0.1c0.3-0.1,0.7-0.2,1-0.1c0.4,0.2,0.8,0.6,1.2,0.9c0.1,0,0.1,0,0.2,0
					c-0.2-0.4-0.3-0.9-0.5-1.4c0.2-0.2,0.5-0.5,0.7-0.7c0.2-0.2,0.4-0.4,0.4-0.5c0-0.8,0.4-1.3,1-1.4c0.1-0.3,0.1-0.6,0.3-0.7
					c0.2-0.1,0.5-0.1,0.7-0.1c0.1,0,0.2,0.1,0.3,0c0.4-0.2,0.8-0.4,1.3-0.6c-0.8-0.3-1.5-0.5-2.2-0.7c0.2-0.1,0.7-0.4,0.8-0.3
					c0.4,0.3,0.6,0,0.9-0.1c0.2-0.1,0.5-0.3,0.8-0.5c-0.1,0.4-0.2,0.6-0.4,1l1.4-0.2c0-0.1,0-0.1,0.1-0.2c-0.3-0.1-0.6-0.3-0.9-0.4
					c0-0.2,0.1-0.4,0.1-0.6c-0.8-0.5-1.7-1-2.5-1.5c0,0.1,0,0.1,0,0.2c-0.3,0-0.8,0.2-0.9,0.1c-0.5-0.6-1.1-0.5-1.7-0.5
					c-0.5,0-0.7,0.7-0.4,1c0.7,0.6,0.1,0.6-0.3,0.8c0.1,0.3,2.3,0.6,2.4,0.9c-0.1,0-2.1,0-2.2,0c-0.1-0.1-0.3-0.1-0.4-0.2
					c-0.3-0.3-0.7-0.6-1.2-0.6c-0.8,0-1.6,0-2.3-0.6c0.7-1.4,2-1.4,3.3-1.3c0-0.1,0-0.2,0-0.2c-0.4-0.1-0.8-0.2-1.3-0.3
					c0.4-0.2,1.2,0,0.9-0.9c1.1-0.3,1.2-0.3,1.2,0.4c0.2-0.1,0.5-0.3,0.7-0.4c0,0.1,0.1,0.1,0.1,0.2c-0.4,0.2-0.8,0.5-1.2,0.7
					c0,0.1,0,0.1,0,0.2c1.1-0.5,2.2,0.5,3.4-0.2c-0.3-0.2-0.5-0.3-0.9-0.6c0.6,0,1.2,0.5,1.4-0.3c-0.2,0-0.4-0.1-0.6-0.1
					c-0.5-0.2-1-0.5-1.5-0.6c-0.6-0.2-1.2-0.3-1.8-0.3c-0.8-0.1-1.5-0.1-2,0.5c-0.4-0.1-0.6-0.2-0.8-0.1c-0.1,0-0.3,0.3-0.4,0.4
					c0.3,0.1,0.5,0.2,0.8,0.3c0.1,0,0.2,0,0.3,0c0.1,0,0.1,0,0.3,0.1C9.2,16.9,9.1,17,9,17.1c-0.6-0.3-1.2-0.5-1.9-0.8
					c0.1,0.3,0.2,0.4,0.2,0.5c0,0.2,0,0.4,0,0.6c-0.2-0.1-0.3-0.2-0.5-0.3C6.6,17,6.5,17,6.2,16.9c0.1,0.3,0.1,0.4,0.1,0.6l-1.6,0.2
					c0,0,0-0.1,0-0.1c0.3-0.2,0.6-0.3,0.9-0.5c-0.9-0.2-1.2-0.7-1.3-1.3c-0.8,0-1.6,0.2-2.4,0c-0.2,0-0.3,0-0.5,0
					c-0.1,0.2-0.1,0.3-0.2,0.5l0.3,0c-0.1,0.2-0.3,0.3-0.4,0.4c-0.1,0.3-0.2,0.5-0.2,0.8l0.5-0.1c0.1,0.1,0.3,0.3,0.5,0.4
					c-0.4,0-0.7,0-1.1,0.1C0.4,19.3,0.1,21,0,22.6c0,0,0,0,0.1,0C0.7,23,0.9,23.4,0.9,24c0.1,0.5,0.3,1,0.6,1.3
					c0.6,0.7,1.5,1.2,2.1,2c0.4,0.6,1,0.9,1.5,1.2c0,0,0.1-0.1,0.1-0.1c-0.4-0.4-0.7-0.8-1.1-1.2C4.8,27.6,5.6,28,6,28.6
					c0.4,0.9,1.2,0.9,1.9,1.1c0.4,0.2,0.9,0,1.4,0.1c0.3,0,0.6,0.2,1,0.3c0.3,0.1,0.6,0.2,0.8,0.5c0.5,0.6,1.3,0.8,1.8,0.4
					c0.7,0.7,0.7,1,0.1,1.8c-0.1,0.2-0.2,0.4-0.2,0.6c0,0.3,0.1,0.6,0.1,1c0.3,0.3,0.6,0.7,0.9,1.1c0.4,0.5,0.7,1.1,1.5,1.3
					c0.6,0.1,0.8,0.6,0.7,1.1c-0.1,1.2-0.2,2.4-0.3,3.6c-0.1,0.8,0,1.6-0.1,2.4c-0.2,1.1,0.5,1.9,1.7,2.1l0.3,0
					c0.2-0.1,0.5-0.3,0.7-0.5c-1.1-0.2-1.2-0.4-0.6-1.3c0.1-0.1,0-0.4,0-0.6c-0.1,0-0.1,0-0.2,0c0.1-0.4,0.9-0.7,0.4-1.2
					c0.2-0.2,0.4-0.5,0.7-0.6c0.6-0.2,1.1-0.3,1-1.1c0,0,0.1-0.1,0.2-0.1c1-0.3,1.3-1.3,1.5-2c0.2-0.7,0.5-1,1-1.2
					c0.8-0.2,0.9-0.8,1-1.5c0-0.7,0.1-1.3,0.5-1.9C24.2,33.4,24,33,23.1,32.7z"/>
				<path fill="#F3F3F3" d="M22.4,13.4c-0.8,0.3-1.5,0.5-2.2,0.9c-0.6,0.3-1.2,0.5-1.8,0.9c-0.2,0.1-0.5,0.5-0.5,0.7
					c-0.1,1.2-1,0.6-1.3,0.5c-0.7-0.2-1.3-0.6-1.6-1.5c-0.4-1.3-2.1-2.1-3.4-1.5c-0.7,0.3-0.9-0.4-1.3-0.1c0.5-0.5,1-1,1.5-1.4
					c0.7-0.4,1.3-1.2,2.3-0.9c0.6,0.1,1-0.1,1-0.6c0.3-0.1,0.5-0.2,0.7-0.3c0.3-0.1,0.6-0.3,0.9-0.4c1.5-0.2,2.9-0.5,4.4-0.6
					c0.3,0,0.7,0.3,0.8,0.5c0.5,0.7,0.4,0.7,1.2,0.2c0.3-0.2,0.6-0.2,1.1-0.1c-1,0.7-1.7,1.5-1.1,2.7c-0.4,0.1-0.6,0.2-0.9,0.2
					C22.2,12.9,22.3,13.1,22.4,13.4z"/>
			</g>
			<path fill="#F3F3F3" d="M46.4,15.3c-0.1,0-0.1,0-0.2,0c0-0.1,0-0.3-0.1-0.4c-0.1-0.2-0.2-0.4-0.3-0.6c-0.2,0.2-0.3,0.3-0.5,0.5
				c-0.2,0.2-0.3,0.5-0.4,0.8c-0.1,0-0.1,0-0.2-0.1c0.2-0.7,0.5-1.4-0.1-2.1c0.2-0.2,0.3-0.6,0.4-0.9c-0.4-0.7-0.9-1.5-1.3-2.1
				c0,0.1-0.1,0.1-0.1,0.2c-0.5,0.4-1.1,0.6-1.6,0.9c0.1,0.1,0.2,0.3,0.3,0.4c0.4-0.2,0.8-0.4,1.3-0.6c0,0.1,0.1,0.2,0.1,0.3
				c-0.8,0.3-1.7,0.6-2.6,0.9c0.1,0.1,0.2,0.3,0.3,0.5c0.1,0.1,0.2,0.2,0.3,0.3c-1.4-0.2-1.3,0.9-1.8,1.5c-0.7-0.4-0.8-0.6-0.5-1.3
				c0.4-0.8,1.3-1.3,1-2.3c0-0.1,0.1-0.2,0.1-0.2c0.4-0.3,0.8-0.6,1.1-1c0.5,0.4,0.7,0.4,0.9-0.2c0.1-0.2,0.1-0.4,0.2-0.6
				c-1.4-1.8-3.1-3.4-5-4.7c0,0.1,0,0.2-0.1,0.3c-0.1,0.4-0.2,0.8-0.3,1.1c0,0.4-0.1,0.6-0.5,0.6c-0.1,0-0.3,0.2-0.4,0.4
				c-0.1,0.4-0.2,0.5-0.6,0.1c-0.3-0.3-0.6-0.5-1.1-0.3c-0.8,0.2-1.6,0.3-2.1-0.6c-0.1-0.2-0.5-0.3-0.8-0.3
				c-1.1-0.1-2.2-0.2-3.3-0.2c-0.1,0-0.4,0.1-0.4,0.2c-0.2,0.7-0.7,1.4-0.3,2.2c0.4,0.8,0.6,1.7,1.6,2c0.1,0,0.2,0.3,0.2,0.5
				c0.2,1.1,0.4,1.3,1.6,1.4c0.3,0,0.7,0.2,0.8,0.4c0.3,0.5,0.4,1.1,0.6,1.7c0.3,0.7,0.6,1.4,1.4,1.9c0.1-0.4,0.1-0.8,0.1-1.1
				c0.1-0.5,0.2-0.7,0.7-0.4c-0.1,1-0.3,2-0.2,3c0.1,0.9,0.5,1,1.3,0.6c0.1,0,0.1-0.1,0.1-0.1c0-0.3,0-0.5-0.1-0.7
				c1.3-0.3,1.3-0.3,1.5,0c-0.7,0.2-0.7,0.2-1.3,1c0,0.1-0.2,0.1-0.2,0.1c-0.3,0.4-0.7,0.7-0.8,1.2c-0.1,0.6-0.5,0.5-0.9,0.7
				c-0.2,0.1-0.4,0.2-0.6,0.2c-1-0.1-2-0.1-3-0.1L30.7,20c0.3,0.3,0.7,0.7,1,1c0.1,0.1,0.4,0.2,0.4,0.4c0.1,0.8,0.7,1.5,0.1,2.5
				c-0.4,0-1,0-1.5,0c0,0.2,0,0.4,0.1,0.6c-0.4-0.1-0.8-0.2-1.4-0.3c0-0.1,0-0.1,0-0.2c-0.6,0-1.3,0.1-1.9,0.1
				c0,0.1-0.1,0.2-0.2,0.5c0.8-0.1,1.5-0.2,2.2-0.3c0.2,0.3,0.3,0.4,0.4,0.6c-0.5,0.1-0.9,0.3-1.2,0.4c0,0.3,0,0.5,0.1,0.8
				c0.1,0.4,0.3,0.6,0.7,0.6c0.2,0,0.5-0.1,0.7-0.2c0.5-0.1,0.6,0,0.6,0.6c-0.2-0.1-0.5-0.3-0.7-0.4c-0.1,0.1-0.1,0.2-0.2,0.2
				c0.2,0.2,0.4,0.4,0.7,0.5c-0.1,0.2-0.1,0.5-0.2,0.8c-0.2,1.4,0.6,2.3,1.9,2.1c0.1,0.2,0.1,0.4,0.2,0.6c0.2-0.3,0.4-0.5,0.7-0.8
				c0,0.4,0,0.7,0.1,0.9c0,0-0.1,0-0.1-0.1c-0.1,0.2-0.3,0.4-0.4,0.5c-0.2,0-0.4,0.1-0.7,0.2c-0.1,0-0.2-0.1-0.5-0.4
				c0,0.3,0,0.6,0.1,0.7c0.2,0.2,0.5,0.2,0.9,0.3c0.1,0.2,0.3,0.7,0.2,0.9c-0.2,0.5-0.1,0.8,0,1.2c0.2,0.4,0.4,0.9,0.6,1.3
				c-0.3-0.1-0.6-0.2-0.9-0.3c0,0.1-0.1,0.2-0.1,0.3l1.3,0.6c0.3-0.5,0.6-0.8,1-1.3c0.1,1.4,0.1,1.4-0.2,2.5
				c-0.2,0.6-0.8,1.1-0.5,1.9c0.2,0.5,0.1,0.5-0.6,0.6c0.4-1.3-0.4-1.6-1.3-1.8c0,0.2,0.1,0.4,0.2,0.7c0.2,0.4,0.2,1,0.5,1.2
				c0.5,0.4,0.4,0.7,0.2,1.1c-0.2,0.4-0.2,0.8-0.3,1.2c-0.1,0.4-0.2,0.8-0.2,1.2c0.1,0.1,0.4,0.1,0.3,0.2c-0.3,0.8,0.3,1.6,1.1,2.2
				C42.1,42.3,48,33.8,48,24C48,20.9,47.4,18,46.4,15.3z"/>
		</g>
		<g>
			<path fill="#F3705A" d="M42.3,15.8L38,20l-4.3-4.3c-2.4-2.4-2.4-6.2,0-8.5c2.4-2.4,6.2-2.4,8.5,0C44.6,9.6,44.6,13.4,42.3,15.8z"
				/>
			<circle fill="#FFFFFF" cx="38" cy="11.5" r="3.6"/>
		</g>
		<g>
			<path fill="#F3705A" d="M31.5,39.5l-4.3,4.3L23,39.5c-2.4-2.4-2.4-6.2,0-8.5c2.4-2.4,6.2-2.4,8.5,0
				C33.9,33.3,33.9,37.1,31.5,39.5z"/>
			<circle fill="#FFFFFF" cx="27.3" cy="35.2" r="3.6"/>
		</g>
		<g>
			<path fill="#F3705A" d="M12.2,17l-4.3,4.3L3.7,17c-2.4-2.4-2.4-6.2,0-8.5c2.4-2.4,6.2-2.4,8.5,0C14.6,10.8,14.6,14.7,12.2,17z"/>
			<circle fill="#FFFFFF" cx="7.9" cy="12.7" r="3.6"/>
		</g>
	</g>
</g>
</svg>
