<?xml version="1.0" encoding="utf-8"?>
<!-- Generator: Adobe Illustrator 18.0.0, SVG Export Plug-In . SVG Version: 6.00 Build 0)  -->
<!DOCTYPE svg PUBLIC "-//W3C//DTD SVG 1.1//EN" "http://www.w3.org/Graphics/SVG/1.1/DTD/svg11.dtd">
<svg version="1.1" id="Layer_1" xmlns="http://www.w3.org/2000/svg" xmlns:xlink="http://www.w3.org/1999/xlink" x="0px" y="0px"
	 viewBox="0 0 48 48" enable-background="new 0 0 48 48" xml:space="preserve">
<g>
	<g>
		<g>
			<g>
				<path fill="#F5B54C" d="M41.2,17.5c-0.1,0.1-0.1,0.2-0.1,0.3v0.7H43c0-0.2-0.1-0.4-0.3-0.5c0,0,0-0.8-0.2-1.3
					c-0.2-0.5-0.1-1.3-0.4-1.7L41.7,14c0,0-0.7,0.1-0.6,1C41.2,15.9,41.3,17.2,41.2,17.5z"/>
			</g>
		</g>
	</g>
	<g>
		<g>
			<g>
				<path fill="#F05640" d="M43.2,13.6c-0.1,0.1-0.2,0.2-0.3,0.3c-0.3,0.3-1.3,1.2-2.9,1.1c0,0-2.2,2.2-5.6,4.4s-11.6,1.2-13.8,0.8
					c-2.3-0.5-4.7,0.4-5.9,0.6c-1.2,0.3-2.7,0.2-4.1-1.5c-1.4-1.7-2.6-5-2.8-7.3c-0.2-2.3,1.1-4.3,3.5-5C12,6.8,13,6.7,14,6.7
					l-0.1,0c0,0,6.9-0.4,8.2-0.3c1.3,0.1,7.7-1.7,11.9,0.1c4.2,1.8,10.9,2.1,10.9,2.1S45.6,11.3,43.2,13.6z"/>
			</g>
		</g>
	</g>
	<g>
		<g>
			<g>
				<path fill="#344A5E" d="M31.1,8.1c0.9,0.6,1.5,0.5,2,1.4c0.4,0.7,0.7,2.3,0.7,3.3c-0.1,2.2-2,4.1-1.8,6.3
					c-0.2-0.7-0.2-1.4-0.2-2.1c-0.3,1.7-1.7,3.2-3.4,3.6c-0.8,0.2-1.5,0.2-2.3,0.2c-0.3,0-0.6,0-0.8-0.2c-0.2-0.1-0.3-0.4-0.3-0.6
					c-0.2-0.7-0.2-1.4-0.2-2c0-0.6,0-1.3,0.1-1.9c0.2-1.4,0.9-2.7,1.8-3.8c0.9-1.1,2-2,3.2-2.7c0.7-0.4,1.4-0.9,2.2-1.1"/>
			</g>
		</g>
	</g>
	<g>
		<g>
			<g>
				<path fill="#FFD15C" d="M31.2,16.5c0,0-0.7,3.2-0.2,4.4c0.5,1.2,2.1,1.7,2.1,1.7s3.7,1.1,4.1,1.1c0.4,0,3.3-0.3,3.7,1.6
					c0.4,1.9-0.7,6.2-0.7,6.2l-1.7,11.9l-19.8-2.7c0,0-3.1-7.7-3.3-8c-0.2-0.3-0.5-0.2-0.5-0.1c-0.1,0.1-3.2,3.8-3.6,4.2
					c-0.4,0.4-2.4,3.9-3.3,4.6c-0.9,0.7-1.3,1.8-1.1,2.4c0.2,0.7,2.1,3.3,2.3,4H3.8c0,0-1.4-2-1.6-2.5c-0.2-0.5-0.6-1.7-0.2-2.5
					c0.3-0.8,1.3-2.7,1.5-3.2s2.8-4.5,3.5-5.3c0.6-0.8,1.8-3.1,2.7-4.8c0.9-1.7,1.5-2.8,1.9-3.5c0.4-0.7,1.8-2.2,3.5-2.7
					c1.7-0.4,1.8-0.5,1.8-0.5l6.9-2.8v-4.9L31.2,16.5z"/>
			</g>
		</g>
		<g>
			<g>
				<g>
					<path fill="#F5B54C" d="M37.3,34.2c0,0,0-0.1,0-0.2c0-0.1,0-0.2,0-0.3c0-0.1,0-0.2,0-0.4c0-0.1,0-0.3,0-0.4
						c0-0.1,0-0.3,0.1-0.5c0-0.2,0.1-0.3,0.1-0.5c0-0.1,0.1-0.2,0.1-0.2c0-0.1,0.1-0.2,0.1-0.2c0-0.2,0.1-0.3,0.1-0.5
						c0-0.2,0.1-0.3,0.1-0.5c0-0.2,0.1-0.3,0.1-0.5c0-0.1,0-0.3,0.1-0.4c0.1-0.5,0.1-0.8,0.1-0.8s0,0.1,0,0.2c0,0.1,0,0.2,0,0.3
						c0,0.1,0,0.2,0,0.4c0,0.1,0,0.3,0,0.4c0,0.1,0,0.1,0,0.2c0,0.1,0,0.2,0,0.2c0,0.2-0.1,0.3-0.1,0.5c0,0.2-0.1,0.3-0.1,0.5
						c0,0.1-0.1,0.2-0.1,0.3c0,0.1-0.1,0.2-0.1,0.2c-0.1,0.1-0.1,0.3-0.2,0.5c0,0.2-0.1,0.3-0.1,0.4c0,0.1,0,0.3-0.1,0.4
						c0,0.1,0,0.2,0,0.3c0,0.1,0,0.2,0,0.3C37.3,34.1,37.3,34.1,37.3,34.2C37.3,34.2,37.3,34.2,37.3,34.2z"/>
				</g>
			</g>
		</g>
	</g>
	<g>
		<g>
			<g>
				<path fill="#F5B54C" d="M39.9,24.2c0,0,0,0.1,0,0.2c0,0.1,0,0.3,0,0.5c0,0.2,0,0.5,0,0.8c0,0.3,0,0.6,0,1c0,0.2,0,0.4,0,0.6
					c0,0.1,0,0.2,0,0.3c0,0.1,0,0.1,0,0.2c0,0,0,0.1,0,0.1l0,0l0,0l0,0c-0.1,0.4-0.2,0.8-0.3,1.3c-0.1,0.4-0.2,0.9-0.3,1.4
					c-0.1,0.5-0.2,0.9-0.3,1.4c-0.1,0.5-0.2,0.9-0.4,1.4c0,0.1-0.1,0.2-0.1,0.4c0,0,0,0.1,0,0.1l0,0.1c0,0.1-0.1,0.1-0.1,0.2
					c0,0.1-0.1,0.1-0.1,0.2c0,0.1-0.1,0.1-0.1,0.2c-0.1,0.1-0.1,0.2-0.1,0.3c-0.2,0.4-0.4,0.8-0.6,1.2c-0.2,0.4-0.3,0.7-0.5,1.1
					c-0.1,0.3-0.3,0.6-0.4,0.9c-0.1,0.1-0.1,0.3-0.2,0.4c0,0.1-0.1,0.2-0.1,0.3C36,38.7,36,38.9,35.9,39c0,0.1-0.1,0.2-0.1,0.2
					s0-0.1,0-0.2c0-0.1,0.1-0.3,0.1-0.5c0.1-0.2,0.1-0.5,0.2-0.7c0.1-0.3,0.2-0.6,0.3-0.9c0.1-0.2,0.1-0.4,0.2-0.5
					c0.1-0.2,0.1-0.4,0.2-0.6c0.2-0.4,0.3-0.8,0.5-1.2c0-0.1,0.1-0.2,0.1-0.3c0-0.1,0-0.1,0.1-0.2c0-0.1,0.1-0.1,0.1-0.2
					c0-0.1,0.1-0.1,0.1-0.2l0-0.1c0,0,0,0,0-0.1c0-0.1,0.1-0.2,0.1-0.3c0.1-0.5,0.3-0.9,0.4-1.4c0.1-0.5,0.2-0.9,0.3-1.4
					c0.1-0.5,0.2-0.9,0.3-1.4c0.1-0.4,0.2-0.9,0.3-1.3l0,0l0,0l0,0l0,0c0,0,0,0,0-0.1c0,0,0-0.1,0-0.1c0-0.1,0-0.2,0-0.3
					c0-0.2,0-0.4,0.1-0.6C39.8,25.1,39.9,24.2,39.9,24.2z"/>
			</g>
		</g>
	</g>
	<g>
		<g>
			<g>
				<path fill="#67C5B8" d="M16.6,23c0,0,0.7,0.7,0.5,1.9c-0.2,1.3-1.4,8.5-1.4,8.5s-0.7,4.8-0.5,7.5c0.2,2.8,1.3,7,1.3,7H37
					c0,0-0.4-10.3,0.4-14.7c0,0-1.2-7-0.9-9.7c-1-0.4-2.2-0.7-3.4-0.9c0,0-1.1,2.8-6,3.8c0,0-4.5-0.7-5.7-4.5l-1-0.4
					C20.2,21.2,16.4,22.7,16.6,23z"/>
			</g>
		</g>
	</g>
	<g>
		<g>
			<g>
				<path fill="#F5B54C" d="M31.2,16.5c0,0-0.1,0.4-0.2,1c-0.9,1.6-2.1,2.7-3.5,2.7c-1.5,0-2.9-1.2-3.7-3.2v-1.8L31.2,16.5z"/>
			</g>
		</g>
	</g>
	<g>
		<g>
			<g>
				<path fill="#FFD15C" d="M24.7,6.7c-1.2,1.2-2,3.2-2,5.3c0,3.8,2.3,6.8,5.2,6.8c2.8,0,5.2-3,5.2-6.8c0-2.2-0.8-4.1-2-5.3H24.7z"
					/>
			</g>
		</g>
	</g>
	<g>
		<g>
			<g>
				<path fill="#FFD15C" d="M24.7,6.7c-1.2,1.2-2,3.2-2,5.3c0,3.8,2.3,6.8,5.2,6.8c2.8,0,5.2-3,5.2-6.8c0-2.2-0.8-4.1-2-5.3H24.7z"
					/>
			</g>
		</g>
	</g>
	<g>
		<g>
			<path fill="#F05640" d="M20.2,6.3c0,0-0.3-3.4,1.9-4.8c2.2-1.4,6.7-2.1,8.6-1.2s3,4.1,3.5,7.1C34.2,7.5,22.2,7.1,20.2,6.3"/>
		</g>
	</g>
	<g>
		<g>
			<g>
				<g>
					<path fill="#344A5E" d="M18.7,23.4c0,0-2.4-0.2-3.6,0c0,0,2.3-0.6,2.8-1.2c0.5-0.6,2.3-2.8,2.6-4.3
						C20.6,16.5,22.3,22.8,18.7,23.4z"/>
				</g>
			</g>
		</g>
		<g>
			<g>
				<g>
					<path fill="#344A5E" d="M20,35.4c-0.6,0.8-1.3,1.4-2.5,1.7c1.4,0,2.7-0.6,4-1.7c0,0,0,1-2.3,2.2c-2.3,1.2-3.3,1.4-3.6,0
						c-0.2-1.4,0.1-2.8-0.4-3.9c-0.5-1.1-1.3-4.7-0.2-6.6c1.1-1.9,4.8-4.9,5.1-7.7c0.3-2.8-1.7-13.6,5.9-12.8c0,0-2.6,1.7-2.7,3.5
						c-0.1,1.7,0.6,6.6,0.4,7.6c-0.3,1,1.3,3.4,2.1,4.6c0.8,1.2,0.8,5.2-0.3,6.7c-1,1.5-0.2,2.9,0.5,3.6c0.7,0.6,0.4,4-1.6,4.2
						c-2,0.3,1.2,1.9,2.5,2.4c0,0-3-0.8-3.9-0.8c-0.9,0-1.7-1.2-1.7-2c0-0.7,2.7-0.9,1.4-2.1c-1.2-1.2-4.4,0.6-4.5-2.9
						c0,0-0.9,0.3-1,2.2c-0.1,1.7-1.2,3.8-0.6,3.4c0.3-0.2,0.7-0.4,1.1-0.5C18.7,36.4,19.4,36,20,35.4z"/>
				</g>
			</g>
		</g>
	</g>
	<g>
		<g>
			<g>
				<path fill="#F26F5A" d="M43.2,13.6c-0.1,0.1-0.2,0.2-0.3,0.3c-0.3,0.3-1.3,1.2-2.9,1.1c0,0-1.9-0.3-4-2
					c-2.1-1.7-7.2-5.8-16.5-6.3c0,0-3-0.2-5.5-0.1l-0.1,0c0,0,6.9-0.4,8.2-0.3c1.3,0.1,7.7-1.7,11.9,0.1c4.2,1.8,10.9,2.1,10.9,2.1
					S45.6,11.3,43.2,13.6z"/>
			</g>
		</g>
	</g>
	<g>
		<g>
			<g>
				<g>
					<path fill="#FFD15C" d="M41.3,16.3c0,0,0.4,0.1,0.5,0.5c0.1,0.4-0.4,1.7-0.7,1.8c0,0-0.2,0.9-0.3,1.3c0,0,0.4-0.1,0.7,0.3
						c0.3,0.4,0.3,0.8,0.3,0.8l-1.5,3.5l-0.4-0.3l-0.7-2.9l0,0c-0.1-0.3-0.2-0.7,0-1.1c0.2-0.7,0.6-1.8,0.6-2.1c0,0,0.1-0.3,0.3-0.5
						C40.2,17.5,41,16.6,41.3,16.3z"/>
				</g>
			</g>
		</g>
		<g>
			<g>
				<g>
					<path fill="#FFD15C" d="M35,43.2c0,0,0.3,1.1,0,1.7c-0.3,0.6,1.2,2.2,2.2,2.3c0.9,0.1,2.5,0,3-1.4c0.6-1.4,1.8-2.8,1.8-4.3
						c0-1.5,0.5-10.6,1.5-13.7c0,0,0.3-0.9,0.3-2c0,0,0.5-1.4,0.9-1.9c0.4-0.5,0.8-1.6,1.1-2c0.3-0.4,0.5-0.9,0.3-1.4
						c-0.2-0.4-0.9-1.6-1.2-2.1c-0.1-0.1-0.2-0.2-0.4-0.2l0,0c0,0-0.1-0.8-0.7-1c0,0-0.2-0.8-0.6-1.1c-0.4-0.4-0.5-1.2-0.9-1.5
						l-0.6-0.8c0,0-0.6,0.3-0.3,1.2c0.3,0.8,0.9,2.1,0.9,2.3s0,0.3,0,0.3s-0.7,0.2-0.9,0.7c0,0-0.4,0.4-0.5,0.6c0,0.1-0.1,0.1,0,0.2
						c0,0.1,0.1,0.3,0.4,0.4L41.1,20l-1.2,4.1c0,0-0.2,3-0.3,3.6c-0.1,0.5-1.1,5.3-1.5,6c-0.4,0.6-2.1,4.6-2.2,5.5
						C35.5,40.9,34.7,42.1,35,43.2z"/>
				</g>
			</g>
		</g>
		<g>
			<g>
				<g>
					<path fill="#FFFFFF" d="M42.5,19.3c-0.2,0.2-0.6,0.2-0.6,0.2c0.2-0.3,0.4-0.5,0.7-0.7l0,0C42.8,18.9,42.7,19.1,42.5,19.3z"/>
				</g>
			</g>
		</g>
		<g>
			<g>
				<g>
					<path fill="#FFFFFF" d="M41.8,18.8c0,0,0-0.1,0-0.1c0-0.1-0.1-0.2-0.3-0.2c-0.1,0-0.2,0-0.3,0.1c-0.1,0.1-0.2,0.3-0.3,0.4
						c0,0.1,0.1,0.3,0.4,0.3C41.5,19.2,41.7,19,41.8,18.8z"/>
				</g>
			</g>
		</g>
		<g>
			<g>
				<g>
					<g>
						<path fill="#F5B54C" d="M41.3,19.5c0.3-0.1,0.5-0.3,0.8-0.5c0.2-0.2,0.4-0.4,0.7-0.5l0.2-0.1l-0.1,0.1c-0.3,0.3-0.7,0.6-0.9,1
							l0,0c0.2,0.2,0.5,0.3,0.8,0.2c0.3-0.1,0.5-0.3,0.8-0.4l0,0l0,0c0.2,0,0.4,0.1,0.7,0l0,0l0,0c0,0.2,0.2,0.4,0.4,0.6
							c0.2,0.1,0.5,0.2,0.7,0.2c-0.2,0-0.5,0-0.7-0.2c-0.2-0.1-0.4-0.3-0.4-0.6l0,0c-0.2,0-0.5,0-0.7,0l0,0
							c-0.2,0.2-0.5,0.4-0.8,0.5c-0.3,0.1-0.7,0-0.9-0.3l0,0l0,0c0.2-0.4,0.6-0.7,1-1l0,0.1c-0.3,0.1-0.5,0.3-0.7,0.5
							C41.8,19.2,41.6,19.4,41.3,19.5z"/>
					</g>
				</g>
			</g>
			<g>
				<g>
					<g>
						<path fill="#F5B54C" d="M42,19.7c0,0,0.2,0.1,0.6,0.3c0.2,0.1,0.3,0.3,0.5,0.4c0.2,0.2,0.3,0.4,0.5,0.5c0.4,0.3,1,0.1,1.4,0.2
							c0.4,0,0.6,0.2,0.6,0.2s-0.2-0.2-0.6-0.2c-0.4,0-0.9,0.1-1.4-0.2c-0.2-0.1-0.4-0.4-0.5-0.5c-0.2-0.2-0.3-0.3-0.5-0.4
							C42.3,19.8,42,19.7,42,19.7z"/>
					</g>
				</g>
			</g>
			<g>
				<g>
					<g>
						<path fill="#F5B54C" d="M43,21c0,0-0.1-0.2-0.2-0.3c-0.1-0.1-0.2-0.1-0.4-0.2c-0.1-0.1-0.2-0.2-0.3-0.3
							c-0.1-0.3-0.4-0.4-0.6-0.5c-0.1,0-0.2,0-0.3,0v0c0.1,0,0.2,0,0.3,0c0.2,0,0.5,0.2,0.7,0.5c0.1,0.1,0.2,0.3,0.3,0.3
							c0.1,0.1,0.3,0.1,0.3,0.2C43,20.8,43,21,43,21z"/>
					</g>
				</g>
			</g>
		</g>
	</g>
</g>
</svg>
