<?xml version="1.0" encoding="utf-8"?>
<!-- Generator: Adobe Illustrator 16.0.0, SVG Export Plug-In . SVG Version: 6.00 Build 0)  -->
<!DOCTYPE svg PUBLIC "-//W3C//DTD SVG 1.1//EN" "http://www.w3.org/Graphics/SVG/1.1/DTD/svg11.dtd">
<svg version="1.1" id="Layer_1" xmlns="http://www.w3.org/2000/svg" xmlns:xlink="http://www.w3.org/1999/xlink" x="0px" y="0px"
	 width="48px" height="48px" viewBox="0 0 48 48" enable-background="new 0 0 48 48" xml:space="preserve">
<g>
	<path fill="#F2F2F2" d="M33.051-0.001H3c-1.656,0-3,1.344-3,3v34.402l10.598,10.598h22.453c1.658,0,3-1.342,3-3v-42
		C36.051,1.343,34.709-0.001,33.051-0.001"/>
	<path fill="#CDD6E0" d="M45.666,41.927c1.16-1.162,1.646-2.813,1.301-4.416c-0.344-1.605-1.469-2.91-3.004-3.49l-4.385-1.656
		c-1.504-0.568-2.41-2.08-2.203-3.674l0.129-0.988c0.049-0.373-0.213-0.715-0.586-0.764s-0.715,0.213-0.766,0.586l-0.129,0.988
		c-0.289,2.225,0.975,4.334,3.074,5.127l4.383,1.656c1.223,0.461,2.08,1.563,2.215,2.887c0.109,1.064-0.326,2.113-1.084,2.869
		l-0.391,0.393l0.963,0.963L45.666,41.927z"/>
	<path fill="#3DC9AE" d="M47.381,42.362c-5.648-7.352-13.83-12.166-20.473-18.523l-3.068,3.068
		c6.357,6.643,11.172,14.826,18.523,20.473c1.371,0.986,3.516,0.75,4.641-0.377C48.129,45.878,48.365,43.733,47.381,42.362"/>
	<polygon fill="#334A5E" points="34.25,39.347 39.348,34.249 40.623,35.349 35.35,40.624 	"/>
	<polygon fill="#FFD15C" points="23.762,26.306 21.025,25.532 19.717,19.716 25.533,21.024 26.309,23.761 	"/>
	<path fill="#334A5E" d="M26.783,23.286l-3.496,3.496c-0.189,0.189-0.189,0.494,0,0.684l0.26,0.26c0.188,0.188,0.494,0.188,0.682,0
		l3.496-3.498c0.189-0.188,0.189-0.492,0-0.682l-0.26-0.26C27.277,23.099,26.971,23.099,26.783,23.286"/>
	<path fill="#FFFFFF" d="M23.719,22.833c-0.244-0.242-0.641-0.242-0.885,0c-0.244,0.244-0.244,0.641,0,0.885s0.641,0.244,0.885,0
		S23.963,23.077,23.719,22.833"/>
	<rect x="4" y="5.601" fill="#CDD6E0" width="28.051" height="2.461"/>
	<rect x="4" y="12.386" fill="#CDD6E0" width="28.051" height="2.461"/>
	<rect x="4.002" y="19.169" fill="#CDD6E0" width="12.352" height="2.461"/>
	<polygon fill="#CDD6E0" points="0,37.401 10.598,48.001 10.598,37.401 	"/>
</g>
</svg>
