<?xml version="1.0" encoding="utf-8"?>
<!-- Generator: Adobe Illustrator 18.0.0, SVG Export Plug-In . SVG Version: 6.00 Build 0)  -->
<!DOCTYPE svg PUBLIC "-//W3C//DTD SVG 1.1//EN" "http://www.w3.org/Graphics/SVG/1.1/DTD/svg11.dtd">
<svg version="1.1" id="Layer_1" xmlns="http://www.w3.org/2000/svg" xmlns:xlink="http://www.w3.org/1999/xlink" x="0px" y="0px"
	 viewBox="0 0 512 512" enable-background="new 0 0 512 512" xml:space="preserve">
<g>
	<polygon fill="#CDD5DF" points="338.1,418.3 337.5,417.3 174.5,417.3 173.9,418.3 162.8,436.9 143.3,469.8 368.7,469.8 
		349.2,436.9 	"/>
	<polygon fill="#ABB2B9" points="349.2,436.9 162.8,436.9 173.9,418.3 338.1,418.3 	"/>
	<path fill="#F2F2F2" d="M2,337.3v59.9c0,11.7,9.5,21.2,21.2,21.2h465.7c11.7,0,21.2-9.5,21.2-21.2v-59.9H2z"/>
	<path fill="#334A5E" d="M476.1,2h-453C11.5,2,2,11.5,2,23.2v314.1h508V35.9C510,17.2,494.8,2,476.1,2z"/>
	<rect x="42.7" y="38.1" fill="#FFFFFF" width="426.6" height="263"/>
	<path fill="#F2F2F2" d="M374.6,469.8H137.4c-22.2,0-40.2,18-40.2,40.2h317.6C414.8,487.8,396.8,469.8,374.6,469.8z"/>
	<circle fill="#CDD5DF" cx="256" cy="377.8" r="13.2"/>
	<path fill="#FFD05C" d="M256,76.6c-31.1,0-56.4,25.3-56.4,56.4v24.7h19.3V133c0-20.5,16.7-37.2,37.2-37.2
		c20.5,0,37.2,16.7,37.2,37.2v24.7h19.3V133C312.4,101.9,287.1,76.6,256,76.6z"/>
	<path fill="#F2705B" d="M309,157.7H203c-12.8,0-23.1,10.3-23.1,23.1v58.7c0,12.8,10.3,23.1,23.1,23.1h106
		c12.8,0,23.1-10.3,23.1-23.1v-58.7C332.1,168.1,321.8,157.7,309,157.7z M263,213.7V224c0,3.9-3.1,7-7,7c-3.9,0-7-3.1-7-7v-10.3
		c-3.7-2.3-6.2-6.4-6.2-11.2c0-7.3,5.9-13.2,13.2-13.2c7.3,0,13.2,5.9,13.2,13.2C269.2,207.3,266.7,211.4,263,213.7z"/>
</g>
</svg>
