<?xml version="1.0" encoding="utf-8"?>
<!-- Generator: Adobe Illustrator 19.0.1, SVG Export Plug-In . SVG Version: 6.00 Build 0)  -->
<svg version="1.1" id="Layer_1" xmlns="http://www.w3.org/2000/svg" xmlns:xlink="http://www.w3.org/1999/xlink" x="0px" y="0px"
	 viewBox="-475 477 48 48" style="enable-background:new -475 477 48 48;" xml:space="preserve">
<style type="text/css">
	.st0{fill:#344A5E;}
	.st1{fill:#415A6B;}
	.st2{fill:#4ABAA5;}
	.st3{fill:#FFD15C;}
	.st4{fill:#F7B64C;}
	.st5{fill:#CED6E0;}
	.st6{fill:#F05540;}
	.st7{fill:#F3705A;}
	.st8{fill:#F3F3F3;}
	.st9{fill:#38A892;}
	.st10{fill:#66C6B9;}
</style>
<g>
	<g>
		<g>
			<g>
				<path class="st0" d="M-450.1,523l0-0.2c0,0,0.1-0.8,0.4-1c0.3-0.2,0.3-0.2,0.3-0.2l1.9,0.2c0,0,0.1,0.5,0.4,0.9
					c0.2,0.4,1,1.5,0.8,1.8c-0.2,0.3-0.2,0.3-0.2,0.3s-1.4,0.1-1.8-0.1c-0.5-0.2-0.5-0.3-0.8-0.9c-0.1-0.2-0.4-0.4-0.6-0.5
					C-450,523.3-450.1,523.1-450.1,523z"/>
			</g>
			<g>
				<path class="st1" d="M-450.1,522.8c0,0,0.2,0.3,0.6,0.5c0.3,0.2,0.6,0.7,0.6,1c0.1,0.2,0.2,0.4,0.9,0.4c0.7,0,1.5,0.1,1.6-0.1
					c0,0,0.1,0.2-0.1,0.3c-0.2,0.2-1.6,0.1-1.9,0c-0.4-0.1-0.5-0.2-0.6-0.5c-0.1-0.3-0.2-0.4-0.3-0.6v0.2c0,0-0.4-0.1-0.6-0.3
					C-450.1,523.5-450.3,523.2-450.1,522.8z"/>
			</g>
		</g>
		<g>
			<g>
				<path class="st0" d="M-452.8,522.8l0-0.2c0,0-0.1-0.8-0.4-1c-0.3-0.2-0.3-0.2-0.3-0.2c-0.6-0.3-1.2-0.3-1.7,0
					c0,0-0.3,0.7-0.5,1.2c-0.2,0.4-1,1.5-0.8,1.8c0.2,0.3,0.2,0.3,0.2,0.3s1.4,0.1,1.8-0.1c0.5-0.2,0.5-0.3,0.8-0.9
					c0.1-0.2,0.4-0.4,0.6-0.5C-452.9,523.1-452.8,522.9-452.8,522.8z"/>
			</g>
			<g>
				<path class="st1" d="M-452.8,522.6c0,0-0.2,0.3-0.6,0.5c-0.3,0.2-0.6,0.7-0.6,1c-0.1,0.2-0.2,0.4-0.9,0.4
					c-0.7,0-1.5,0.1-1.6-0.1c0,0-0.1,0.2,0.1,0.3c0.2,0.2,1.6,0.1,1.9,0c0.4-0.1,0.5-0.2,0.6-0.5c0.1-0.3,0.2-0.4,0.3-0.6v0.2
					c0,0,0.4-0.2,0.6-0.4C-452.8,523.3-452.6,523-452.8,522.6z"/>
			</g>
		</g>
		<g>
			<path class="st1" d="M-446.7,502.7c0,0,0.2,0.5,0.1,0.8c-0.1,0.4-0.4,3.1-0.4,3.8c0,0.6,0,1.4-0.1,1.9c-0.1,0.4-0.2,1.6-0.1,2.1
				c0,0.5,0.1,5.5,0.1,6.4s-0.1,2.1-0.1,2.6c0,0.5-0.2,1.6-0.2,1.8c0,0-0.9-0.3-1.5-0.1c-0.6,0.2-1.1,0.1-1.1,0.1s-0.2-0.6-0.1-1.3
				c0.1-0.7,0.2-2.9,0.2-3.4c0.1-0.5-0.2-2.7,0-3.7c0,0-0.4-2.6-0.4-3.1c0,0-0.5-1.2-0.5-2.4c0-1.2-0.8-3.1-0.8-3.1
				s-0.4,1.5-0.5,2.4c-0.1,1,0,1.4-0.1,2.1c-0.1,0.7-0.3,1.3-0.3,1.7s-0.1,1.1-0.1,1.2c0,0.1,0,2.2,0,3c0,0.8-0.3,2.8-0.3,3.3
				s0.2,1.5,0.2,2c0,0.5-0.1,1-0.1,1s-0.2-0.6-1-0.6c-0.8-0.1-1.3,0.1-1.3,0.1s-0.3-2.7-0.3-3.5c0-0.9-0.2-6.8-0.2-6.8l-0.2-9.4
				l3.4-4.2l4.2,0.1l1.3,3.2L-446.7,502.7z"/>
		</g>
		<g>
			<path class="st2" d="M-457.1,505.7c0,0,0.2-0.9,0.3-1.3c0.1-0.4,0.2-0.5,0.2-0.5s0.6,0,0.7,0.4c0,0.5-0.3,1.3-0.3,1.7l0.3,0.1
				c0,0,0-0.6,0.1-1c0.1-0.3,0.2-1,0.2-1.4c0-0.4-0.2-0.6-0.4-0.7c-0.2-0.1-0.9,0.1-1,0.3c-0.1,0.3-0.3,1.2-0.4,1.4
				c-0.1,0.3-0.1,0.5-0.1,0.5S-457.3,505.7-457.1,505.7z"/>
		</g>
		<g>
			<path class="st3" d="M-446.8,499.7l-1.5,0.9c0,0,0.1,0.5,0.7,0.3c0.6-0.3,0.6-0.3,0.6-0.3l-0.2,0.3c0,0,0.5,1.1,0.5,1.9
				c0,0,0.3-0.2,0.4-0.5c0.1-0.3,0.7-1.4,0.7-1.4L-446.8,499.7z"/>
		</g>
		<g>
			<g>
				<g>
					<g>
						
							<ellipse transform="matrix(0.9716 0.2365 -0.2365 0.9716 101.0601 119.9166)" class="st3" cx="-449.4" cy="481.3" rx="0.3" ry="0.7"/>
					</g>
					<g>
						
							<ellipse transform="matrix(-0.9716 0.2365 -0.2365 -0.9716 -779.9575 1056.1166)" class="st3" cx="-453.3" cy="481.3" rx="0.3" ry="0.7"/>
					</g>
				</g>
				<g>
					<path class="st3" d="M-449.4,480.3l-0.1,0.6c0,0,0,1.5-0.3,2.1v2.2h-3l-0.1-2c0,0-0.4-1.2-0.4-2.2c0,0-0.3-1-0.2-1.6
						c0.1-0.6,1.1-1.3,1.9-1.4S-449.1,477.9-449.4,480.3z"/>
				</g>
				<g>
					<path class="st1" d="M-453.2,481c0,0,0-0.7,0-1c0-0.3,0.2-0.9,0.5-1.2c0.3-0.3,0.9-0.5,1.6-0.4c0.7,0.2,1,0.2,1.2,0.6
						c0.3,0.3,0.1,0.3,0.3,0.5c0.2,0.2,0.1,1.3,0.1,1.4l0.1,0c0,0,0.1-0.3,0.2-1c0.1-0.7,0-1.6-0.5-2.2c-0.5-0.6-2.1-1.3-3,0.1
						c0,0-0.6-0.2-0.8,0.8c-0.1,1,0.1,1.7,0.2,1.9C-453.3,480.8-453.2,481-453.2,481z"/>
				</g>
				<path class="st4" d="M-451.7,483.9c-0.9-0.2-1.2-0.8-1.2-0.8c0,0,0,0,0,0l0.1,1.8c0.6-0.1,1.3-0.2,1.8-0.5
					c1-0.5,1.2-1.5,1.2-1.5C-450,483.3-450.8,484.1-451.7,483.9z"/>
				<g>
					<polygon class="st5" points="-451.3,485.1 -449.3,485.1 -450.6,493 -452.4,492.3 -453.8,485.4 					"/>
				</g>
				<g>
					<path class="st6" d="M-451.5,486.1l-0.1,0.5c0,0-0.3,0.5-0.4,1.1c-0.1,0.6-0.1,2.4-0.1,2.4l1.4,2.8c0,0,0-1.9,0-2.6
						c0-0.7,0-2.2,0-2.6c-0.1-0.4-0.4-0.9-0.4-1.1c0-0.1,0-0.4,0-0.4L-451.5,486.1z"/>
				</g>
				<g>
					<path class="st7" d="M-452,485.5c0,0,0.5,0.8,0.5,1c0,0,0.3-0.1,0.5,0c0,0,0.4-0.8,0.7-0.9l0-0.2
						C-450.3,485.2-451.8,484.8-452,485.5z"/>
				</g>
				<g>
					<g>
						<g>
							<path class="st8" d="M-449.8,484c0,0-0.1,0.3-0.3,0.5c-0.2,0.2-1.2,0.7-1.2,0.7l1.4,1.3l0.6-1.6
								C-449.4,484.8-449.6,484.1-449.8,484z"/>
						</g>
					</g>
				</g>
				<g>
					<path class="st1" d="M-447.3,486.5l1.4-0.6c0,0,0.4,0.1,0.7,0.7c0.3,0.7,0.4,1.6,0.6,1.9c0.2,0.3,0.3,0.6,0.5,1
						c0.2,0.4,1.4,3.7,1.4,4.6c0,0.9-0.1,1.9-0.4,2.8c-0.3,0.9-2.1,4.6-2.1,4.6s-0.9-1.3-1.7-1.8c0,0,0.5-0.7,0.6-0.8
						c0,0,0.4-0.9,0.6-1.5c0.3-0.6,0.2-1,0.3-1.3c0.1-0.4,0.3-0.4,0.3-0.7c0-0.3-0.2-1-0.4-1.6c-0.2-0.6-0.6-2.1-0.8-2.3
						c-0.2-0.2-0.2-0.2-0.2-0.2S-447.8,488-447.3,486.5z"/>
				</g>
				<g>
					<path class="st0" d="M-453.5,484.8c0,0-1.4,0.7-2,1c-0.6,0.3-1,0.5-1,0.5s0.8,2.4,1,3.5c0.2,1.2,0.5,2.6,0.5,2.6
						s-0.2,4.3-0.7,5.9c-0.5,1.6-0.9,3.6-0.9,3.6s2.6,0.7,3.5,0.4c0.9-0.3,1.4-2.1,1.8-3.1c0.4-1,0.2-4.4,0.2-4.4l0.2-2.4
						c0,0-0.7-1.6-1.2-2.7c-0.6-1-1.1-4.3-1.1-4.3L-453.5,484.8z"/>
				</g>
				<g>
					<g>
						<path class="st0" d="M-446.4,491.5c0,0-0.7,2-0.7,3.4c0,0,0.3,3.1,0.2,3.6c0,0.5-0.2,0.6-0.1,0.9c0.1,0.4,0.1,1.4,0.1,1.4
							s-0.7,0.3-1.8-0.4c-1.1-0.7-2.5-2.3-2.7-3.3c-0.2-1-0.1-2,0-3.2c0.2-2.8,1.7-5,1.7-5s0.7-2.9,0.7-4.2c0,0,1.9,0.9,3,1.2
							C-445.9,485.9-447.3,489.3-446.4,491.5z"/>
					</g>
					<g>
						<path class="st1" d="M-449.7,484.1c0,0,0.1,0.4,0,0.7c0,0.3-0.1,2.4-0.3,3.4c-0.2,0.7-0.6,2.2-0.9,3.2c-0.2,0.7-0.3,1.3-0.4,2
							c0,0.2,0,0.3,0,0.5c0,0,0.2-0.8,0.4-1.4c0.2-0.5,1.2-2.6,1.6-3.4c0.4-0.8,0.8-2,0.9-2.6s0.2-0.8,0.2-0.8l-0.6-0.5l0.3,0
							c0,0-0.3-0.4-0.5-0.5c-0.2-0.1-0.5-0.3-0.6-0.5C-449.6,484.1-449.6,484.1-449.7,484.1z"/>
					</g>
				</g>
				<g>
					<path class="st1" d="M-452.9,484.2c0,0,0,1.5,0.1,2.2c0.1,0.6,1.1,4,1.4,4.6c0.3,0.6,0.4,1.4,0.4,1.4s-0.2-0.2-0.7-1
						c-0.5-0.8-1.8-3.3-2.1-4c-0.3-0.6-0.6-1.5-0.6-1.5l0.6-0.4l-0.2,0C-453.9,485-453.3,484.7-452.9,484.2z"/>
				</g>
				<g>
					<path class="st1" d="M-455.8,497.4c0,0.2,0,0.6,0,1c0,0.5,0.1,1,0.1,1.5c0,0.7,0.1,1.6,0.1,2.2c0,0.3,0,0.5,0,0.5
						s-0.2-0.1-0.8,0c-0.6,0.1-1.4,0.7-1.4,0.7s-0.1-0.8-0.1-1.5c0-0.7,0-4.3,0-5.1c0-0.8,0.2-5.7,0.2-6.5c0.1-0.7,0.5-2.8,0.7-3.4
						c0.2-0.6,0.4-0.5,0.4-0.5s0.8,2.4,1,3.5c0.2,1.2,0.5,2.6,0.5,2.6s-0.2,0.8-0.3,1.3C-455.4,494.3-455.8,496.9-455.8,497.4z"/>
				</g>
			</g>
		</g>
		<g>
			<path class="st8" d="M-452.8,484.1c0,0,1.1,0.9,1.5,1c0,0-0.8,0.7-1.2,1.3c0,0-0.3-0.7-0.4-0.9s-0.2-0.3-0.2-0.4
				C-453.1,485.1-453,484.4-452.8,484.1z"/>
		</g>
		<g>
			<path class="st2" d="M-459.2,511.4c0,0-0.2,0.7,0.4,1c0.5,0.3,2.2,1.4,2.5,1.5c0.3,0.1,0.6,0.1,0.8-0.1c0,0,0.5,0.3,0.8-0.4
				c0.2-0.7,0.3-3.7,0.3-4.2c0-0.4,0.1-2.1-0.4-3c-0.5-0.9-2-1.4-2.4-1.4c-0.5,0-1.1,0.2-1.2,0.9c-0.1,0.7,0.5,2,0.5,2
				S-458.4,511-459.2,511.4z"/>
		</g>
		<g>
			<path class="st9" d="M-457.5,505.6c0,0,0.2-0.9,0.3-1.3c0.1-0.4,0.2-0.5,0.2-0.5s0.6,0,0.7,0.4c0,0.5-0.3,1.3-0.3,1.7l0.3,0.1
				c0,0,0-0.6,0.1-1c0.1-0.3,0.2-1,0.2-1.4c0-0.4-0.2-0.6-0.4-0.7c-0.2-0.1-0.9,0.1-1,0.3c-0.1,0.3-0.3,1.2-0.4,1.4
				c-0.1,0.3-0.1,0.5-0.1,0.5S-457.7,505.6-457.5,505.6z"/>
		</g>
		<g>
			<path class="st3" d="M-457.7,502.8c0,0,0,0.5-0.1,0.7c0,0.2,0,0.3,0.1,0.3s0.5,0.2,0.7,0.3c0.2,0.1,0.4,0.4,0.6,0.3
				c0,0,0.1-0.2-0.1-0.4c-0.2-0.2-0.2-0.5-0.2-0.6c0,0,0,0,0,0c0.1-0.2,0.3-0.3,0.5-0.1c0.2,0.1,0.4,0.4,0.4,0.6
				c0.1,0.4,0.1,0.4,0.1,0.4s0.1-0.2,0.1-0.6c0-0.3-0.1-0.4-0.1-0.7c0-0.2-0.3-0.7-0.4-0.7c-0.1-0.1-0.1-0.1-0.1-0.1
				S-457.4,502.4-457.7,502.8z"/>
		</g>
		<g>
			<path class="st10" d="M-459.1,510.2c0,0.2-0.1,0.5-0.1,0.7c-0.1,0.3-0.1,0.8,0.3,1.2c0.6,0.6,2.4,1.5,2.4,1.5s0.4,0.3,0.5-0.4
				c0.1-0.6,0.4-5.7,0.4-6s-0.4-0.8-0.9-1.1c-0.5-0.3-1.3-0.8-1.7-0.7c-0.3,0.1-0.5,0.2-0.6,1.3C-458.8,507.5-459,509.4-459.1,510.2
				z"/>
		</g>
		<g>
			<g>
				<g>
					<path class="st1" d="M-449.7,484.1c0,0,0.1,0.4,0,0.7c0,0.3-0.1,2.4-0.3,3.4c-0.2,0.7-0.6,2.2-0.9,3.2c-0.2,0.7-0.3,1.3-0.4,2
						c0,0.2,0,0.3,0,0.5c0,0,0.2-0.8,0.4-1.4c0.2-0.5,1.2-2.6,1.6-3.4c0.4-0.8,0.8-2,0.9-2.6s0.2-0.8,0.2-0.8l-0.6-0.5l0.3,0
						c0,0-0.3-0.4-0.5-0.5c-0.2-0.1-0.5-0.3-0.6-0.5C-449.6,484.1-449.6,484.1-449.7,484.1z"/>
				</g>
			</g>
			<g>
				<path class="st1" d="M-452.9,484.2c0,0,0,1.5,0.1,2.2c0.1,0.6,1.1,4,1.4,4.6c0.3,0.6,0.4,1.4,0.4,1.4s-0.2-0.2-0.7-1
					c-0.5-0.8-1.8-3.3-2.1-4c-0.3-0.6-0.6-1.5-0.6-1.5l0.6-0.4l-0.2,0C-453.9,485-453.3,484.7-452.9,484.2z"/>
			</g>
			<g>
				<path class="st1" d="M-455.8,497.4c0,0.2,0,0.6,0,1c0,0.5,0.1,1,0.1,1.5c0,0.7,0.1,1.6,0.1,2.2c0,0.3,0,0.5,0,0.5
					s-0.2-0.1-0.8,0c-0.6,0.1-1.4,0.7-1.4,0.7s-0.1-0.8-0.1-1.5c0-0.7,0-4.3,0-5.1c0-0.8,0.2-5.7,0.2-6.5c0.1-0.7,0.5-2.8,0.7-3.4
					c0.2-0.6,0.4-0.5,0.4-0.5s0.8,2.4,1,3.5c0.2,1.2,0.5,2.6,0.5,2.6s-0.2,0.8-0.3,1.3C-455.4,494.3-455.8,496.9-455.8,497.4z"/>
			</g>
		</g>
	</g>
</g>
</svg>
