<?xml version="1.0" encoding="utf-8"?>
<!-- Generator: Adobe Illustrator 18.0.0, SVG Export Plug-In . SVG Version: 6.00 Build 0)  -->
<!DOCTYPE svg PUBLIC "-//W3C//DTD SVG 1.1//EN" "http://www.w3.org/Graphics/SVG/1.1/DTD/svg11.dtd">
<svg version="1.1" id="Layer_1" xmlns="http://www.w3.org/2000/svg" xmlns:xlink="http://www.w3.org/1999/xlink" x="0px" y="0px"
	 viewBox="0 0 48 48" enable-background="new 0 0 48 48" xml:space="preserve">
<g>
	<g>
		<g>
			<g>
				<g>
					<path fill="#E8EAE9" d="M24,6.5c-0.2,0-0.3-0.2-0.3-0.3V5.3c0-0.8,0.4-1.6,1.1-2.2c0.3-0.3,0.5-0.7,0.5-1.1
						c0-0.7-0.6-1.3-1.3-1.3c-0.4,0-0.7,0.1-1,0.4c-0.3,0.3-0.4,0.6-0.4,1c0,0.2-0.2,0.3-0.3,0.3S22,2.2,22,2c0-0.5,0.2-1.1,0.6-1.4
						C23,0.2,23.5,0,24.1,0c1,0,1.9,0.9,2,2c0,0.7-0.3,1.3-0.8,1.7c-0.6,0.4-0.9,1-0.9,1.6v0.9C24.3,6.3,24.2,6.5,24,6.5z"/>
				</g>
			</g>
			<g>
				<path fill="#415A6B" d="M39,16.4c-0.8,0.6-4.8-2.7-8.2-4.9C27.5,9.2,24,9.2,24,9.2s-3.5,0-6.9,2.2c-3.4,2.2-7.4,5.5-8.2,4.9
					c-0.4-1-0.1-2.4,1.1-3.2c1.2-0.8,3.8-2.1,5.3-2.7c1.3-0.5,4.7-2.1,6.1-4c0.4-0.6,1-1,1.6-1.3c0.6-0.2,1.3-0.2,1.9,0
					c0.7,0.2,1.2,0.7,1.6,1.3c1.4,1.9,4.8,3.4,6.1,4c1.4,0.6,4,1.9,5.2,2.7S39.5,15.4,39,16.4z"/>
			</g>
		</g>
	</g>
	<g>
		<path fill="#FFD15C" d="M42.5,17.3c-0.8-2.3-2.6-4.1-4.8-5L31,9.4c-0.3,3.6-7,6.5-7,6.5s-6.7-2.8-7-6.5l-6.8,2.9
			c-2.2,1-3.9,2.8-4.8,5l-3.2,8.9l6.9,3.5l3.4-6.5l0.4,3.7c0.8,7.2-0.1,14.4-2.9,21.1l0,0h27.8l0,0c-2.7-6.7-3.7-13.9-2.8-21.1
			l0.4-3.7l3.4,6.5l6.9-3.5L42.5,17.3z"/>
	</g>
	<path fill="#F7B64C" d="M23.4,17.3l0.6,0.3l0.6-0.3c0.7-0.3,7-3.1,7.9-7.3L31,9.4c-0.3,3.6-7,6.5-7,6.5s-6.7-2.8-7-6.5L15.5,10
		C16.3,14.2,22.6,17,23.4,17.3z"/>
	<g>
		<g>
			<circle fill="#415A6B" cx="24" cy="20.4" r="0.7"/>
		</g>
		<g>
			<circle fill="#415A6B" cx="24" cy="24.3" r="0.7"/>
		</g>
	</g>
</g>
</svg>
