<?xml version="1.0" encoding="utf-8"?>
<!-- Generator: Adobe Illustrator 18.0.0, SVG Export Plug-In . SVG Version: 6.00 Build 0)  -->
<!DOCTYPE svg PUBLIC "-//W3C//DTD SVG 1.1//EN" "http://www.w3.org/Graphics/SVG/1.1/DTD/svg11.dtd">
<svg version="1.1" id="Layer_1" xmlns="http://www.w3.org/2000/svg" xmlns:xlink="http://www.w3.org/1999/xlink" x="0px" y="0px"
	 viewBox="0 0 48 48" enable-background="new 0 0 48 48" xml:space="preserve">
<g>
	<path fill="#CDD6E0" d="M34.3,20.7H23.9c-0.7,0-1.3-0.6-1.3-1.3v-1.4h-1.4v1.4c0,1.5,1.2,2.7,2.7,2.7h10.3c0.7,0,1.3,0.6,1.3,1.3
		c0,0.7-0.6,1.3-1.3,1.3H16.8c-1.5,0-2.7,1.2-2.7,2.7v0.5h1.4v-0.5c0-0.7,0.6-1.3,1.3-1.3h17.5c1.5,0,2.7-1.2,2.7-2.7
		S35.8,20.7,34.3,20.7z"/>
	<path fill="#4CDBC4" d="M46,48H2c-1.1,0-2-0.9-2-2V29.2c0-1.1,0.9-2,2-2h44c1.1,0,2,0.9,2,2V46C48,47.1,47.1,48,46,48z"/>
	<rect x="2" y="29.2" fill="#F2F2F2" width="4.6" height="4.6"/>
	<rect x="7.6" y="29.2" fill="#F2F2F2" width="4.6" height="4.6"/>
	<rect x="13.2" y="29.2" fill="#F2F2F2" width="4.6" height="4.6"/>
	<rect x="18.9" y="29.2" fill="#F2F2F2" width="4.6" height="4.6"/>
	<rect x="24.5" y="29.2" fill="#F2F2F2" width="4.6" height="4.6"/>
	<rect x="30.2" y="29.2" fill="#F2F2F2" width="4.6" height="4.6"/>
	<rect x="35.8" y="29.2" fill="#F2F2F2" width="4.6" height="4.6"/>
	<rect x="41.4" y="29.2" fill="#F2F2F2" width="4.6" height="4.6"/>
	<rect x="7.6" y="41.4" fill="#F2F2F2" width="4.6" height="4.6"/>
	<rect x="35.8" y="41.4" fill="#F2F2F2" width="4.6" height="4.6"/>
	<g>
		<rect x="2" y="35.3" fill="#F2F2F2" width="4.6" height="4.6"/>
		<rect x="7.6" y="35.3" fill="#F2F2F2" width="4.6" height="4.6"/>
		<rect x="13.2" y="35.3" fill="#F2F2F2" width="4.6" height="4.6"/>
		<rect x="18.9" y="35.3" fill="#F2F2F2" width="4.6" height="4.6"/>
		<rect x="24.5" y="35.3" fill="#F2F2F2" width="4.6" height="4.6"/>
		<rect x="30.2" y="35.3" fill="#F2F2F2" width="4.6" height="4.6"/>
		<rect x="35.8" y="35.3" fill="#F2F2F2" width="4.6" height="4.6"/>
		<rect x="41.4" y="35.3" fill="#F2F2F2" width="4.6" height="4.6"/>
	</g>
	<rect x="2" y="41.4" fill="#F2F2F2" width="4.6" height="4.6"/>
	<rect x="13.2" y="41.4" fill="#F2F2F2" width="21.5" height="4.6"/>
	<rect x="41.4" y="41.4" fill="#F2F2F2" width="4.6" height="4.6"/>
	<g>
		<circle fill="#54C0EB" cx="22" cy="9.5" r="9.5"/>
		<path fill="#84DBFF" d="M31.5,9.5c-0.2,0.3-0.4,0.5-0.6,0.8c-0.7,1.1-1,2.4-1.4,3.7c-0.1,0.3-0.4,0.9-0.7,0.7
			c-0.9-0.7,0-2.5-0.7-3.6c-0.2-0.4-0.5-0.7-0.9-0.9c-0.8-0.4-1.7,0-2.5-0.3c-0.7-0.2-1.2-1-1.2-1.7c0-0.8,0.4-1.5,0.9-2
			c0.5-0.5,1.3-0.7,1.9-0.5C26.5,5.8,26.7,6,27,6.1c0.7,0.2,1.3-0.1,2-0.4c0.3-0.1,0.6-0.3,0.5-0.6c-0.1-0.2-0.3-0.3-0.5-0.3
			c-0.4,0-0.8,0.1-1.2,0.1c-0.4,0.1-0.9,0-1.2-0.3c-0.2-0.2-0.4-0.4-0.6-0.4c-0.1,0-0.2,0.1-0.2,0.2c-0.4,0.4-1,0.4-1.5,0.3
			c-0.1,0-0.2,0-0.2-0.1c-0.1-0.1,0-0.3,0.1-0.5c0.3-0.4,0.7-0.7,0.9-1.2c0,0,0,0,0,0c0.3-0.6-0.1-1.3-0.8-1.4c-0.4,0-0.7-0.1-1-0.4
			c-0.3-0.3-0.5-0.8-0.4-1.2C27.7,0.5,31.5,4.5,31.5,9.5z"/>
		<path fill="#84DBFF" d="M19.9,2.8c-0.3,0.8-1.2,1.1-1.8,1.7c-0.4,0.4-0.7,0.9-1,1.4L17,6.1c-0.3,0.6-1,0.8-1.7,0.6
			c-0.1,0-0.2-0.1-0.3-0.1c-0.5,0-1.1,0.4-1.1,0.9c0,0.1,0,0.2,0,0.4c0.1,0.2,0.4,0.4,0.6,0.4c0,0,0,0,0,0c0.4,0,0.8,0.2,1,0.7
			c0,0,0,0,0,0c0.2,0.5-0.4,0.9-0.9,0.6c-0.6-0.4-1-1.1-1.2-1.7c-0.2-0.6-0.3-1.1-0.3-1.7v0c1.1-2.9,3.5-5,6.5-5.8
			c0.1,0.2,0.2,0.5,0.3,0.7C20,1.6,20.1,2.2,19.9,2.8z"/>
		<path fill="#84DBFF" d="M22.5,12.7c-0.2,0.2-0.4,0.4-0.6,0.6c-1,1.1-0.9,3.1-2.1,4c-0.2,0.2-0.5,0.3-0.5,0.6c0,0.1,0,0.2,0,0.3
			c0,0.2,0.1,0.3,0.1,0.5c-0.4-0.1-0.8-0.2-1.1-0.4c-0.2-0.4-0.5-0.8-0.6-1.2c-0.1-0.6,0.1-1.3,0-1.9c-0.3-1.1-1.5-1.6-1.9-2.6
			c-0.2-0.7,0-1.4,0.3-2.1c0.2-0.4,0.5-0.8,0.9-0.9c0.3-0.1,0.7-0.1,1,0.1c1.3,0.4,2.2,1.8,3.6,1.9c0.4,0,0.9,0,1.1,0.4
			C22.7,12.1,22.6,12.5,22.5,12.7z"/>
	</g>
</g>
</svg>
