<?xml version="1.0" encoding="utf-8"?>
<!-- Generator: Adobe Illustrator 20.1.0, SVG Export Plug-In . SVG Version: 6.00 Build 0)  -->
<!DOCTYPE svg PUBLIC "-//W3C//DTD SVG 1.1//EN" "http://www.w3.org/Graphics/SVG/1.1/DTD/svg11.dtd">
<svg version="1.1" id="Layer_1" xmlns="http://www.w3.org/2000/svg" xmlns:xlink="http://www.w3.org/1999/xlink" x="0px" y="0px"
	 viewBox="0 0 49 49" enable-background="new 0 0 49 49" xml:space="preserve">
<g>
	<path fill="#F2F2F2" d="M45.7,18.6v27.9c0,1.1-0.9,2-2,2H5.1c-1.1,0-2-0.9-2-2V18.6H45.7z"/>
	<polygon fill="#FF7058" points="10.1,18.6 0.5,18.6 4.2,9.6 12.3,9.6 	"/>
	<polygon fill="#FFD15C" points="19.7,18.6 10.1,18.6 12.3,9.6 20.4,9.6 	"/>
	<polygon fill="#FF7058" points="29.3,18.6 19.7,18.6 20.4,9.6 28.6,9.6 	"/>
	<polygon fill="#FFD15C" points="38.9,18.6 29.3,18.6 28.6,9.6 36.7,9.6 	"/>
	<polygon fill="#FF7058" points="48.5,18.6 38.9,18.6 36.7,9.6 44.8,9.6 	"/>
	<path fill="#E4EAEF" d="M45.7,19.6v5.2c-0.6,0.3-1.3,0.5-2,0.5c-2.6,0-4.8-2.1-4.8-4.8c0,2.6-2.2,4.8-4.8,4.8
		c-2.7,0-4.8-2.1-4.8-4.8c0,1.3-0.5,2.5-1.4,3.4c-0.9,0.9-2.1,1.4-3.4,1.4c-2.6,0-4.8-2.1-4.8-4.8c0,2.6-2.2,4.8-4.8,4.8
		s-4.8-2.1-4.8-4.8c0,2.6-2.2,4.8-4.8,4.8c-0.8,0-1.5-0.2-2.2-0.5v-5.1H45.7z"/>
	<path fill="#F1543F" d="M44.3,0.5H4.7c-0.3,0-0.6,0.3-0.6,0.6v8.5h40.6V1.1C44.8,0.8,44.6,0.5,44.3,0.5z"/>
	<g>
		<path fill="#F1543F" d="M9.7,24.2H0.9c-0.2,0-0.4-0.2-0.4-0.4v-5.3h9.6v5.3C10.1,24.1,9.9,24.2,9.7,24.2z"/>
		<path fill="#F8B64C" d="M19.3,24.2h-8.9c-0.2,0-0.4-0.2-0.4-0.4v-5.3h9.6v5.3C19.7,24.1,19.5,24.2,19.3,24.2z"/>
		<path fill="#F1543F" d="M28.9,24.2h-8.9c-0.2,0-0.4-0.2-0.4-0.4v-5.3h9.6v5.3C29.3,24.1,29.1,24.2,28.9,24.2z"/>
		<path fill="#F8B64C" d="M38.5,24.2h-8.9c-0.2,0-0.4-0.2-0.4-0.4v-5.3h9.6v5.3C38.9,24.1,38.7,24.2,38.5,24.2z"/>
		<path fill="#F1543F" d="M48.1,24.2h-8.9c-0.2,0-0.4-0.2-0.4-0.4v-5.3h9.6v5.3C48.5,24.1,48.3,24.2,48.1,24.2z"/>
	</g>
	
		<rect x="15.2" y="32.6" transform="matrix(-1.836970e-16 1 -1 -1.836970e-16 63.717 14.8894)" fill="#40596B" width="18.4" height="13.3"/>
	<g>
		<rect x="35.4" y="36.7" fill="#54C0EB" width="5.1" height="5.1"/>
		<g>
			<rect x="8.3" y="36.7" fill="#54C0EB" width="5.1" height="5.1"/>
		</g>
	</g>
	<g>
		<path fill="#FFFFFF" d="M15.6,5.8l0.9-0.1c0.1,0.3,0.2,0.5,0.3,0.7c0.2,0.1,0.4,0.2,0.7,0.2c0.3,0,0.5-0.1,0.7-0.2
			c0.2-0.1,0.2-0.3,0.2-0.4c0-0.1,0-0.2-0.1-0.3S18.2,5.6,18,5.5c-0.1,0-0.4-0.1-0.7-0.2c-0.5-0.1-0.8-0.3-1-0.5
			c-0.3-0.3-0.4-0.6-0.4-0.9c0-0.2,0.1-0.5,0.2-0.7c0.1-0.2,0.3-0.4,0.6-0.5c0.3-0.1,0.6-0.2,0.9-0.2c0.6,0,1,0.1,1.3,0.4
			s0.4,0.6,0.5,1l-0.9,0c0-0.2-0.1-0.4-0.3-0.5c-0.1-0.1-0.3-0.2-0.6-0.2c-0.3,0-0.5,0.1-0.6,0.2c-0.1,0.1-0.1,0.2-0.1,0.3
			c0,0.1,0,0.2,0.1,0.3c0.1,0.1,0.4,0.2,0.9,0.3c0.5,0.1,0.8,0.2,1,0.3c0.2,0.1,0.4,0.3,0.5,0.5s0.2,0.4,0.2,0.7
			c0,0.3-0.1,0.5-0.2,0.7C19,7,18.8,7.1,18.5,7.3c-0.3,0.1-0.6,0.2-1,0.2c-0.6,0-1-0.1-1.3-0.4C15.9,6.8,15.7,6.4,15.6,5.8z"/>
		<path fill="#FFFFFF" d="M20.2,7.3V2.7h0.9v1.8h1.8V2.7h0.9v4.6h-0.9v-2h-1.8v2H20.2z"/>
		<path fill="#FFFFFF" d="M24.6,5.1c0-0.5,0.1-0.9,0.2-1.2c0.1-0.2,0.2-0.4,0.4-0.6c0.2-0.2,0.4-0.3,0.6-0.4c0.3-0.1,0.6-0.2,1-0.2
			c0.7,0,1.2,0.2,1.6,0.6c0.4,0.4,0.6,1,0.6,1.8c0,0.7-0.2,1.3-0.6,1.7c-0.4,0.4-0.9,0.6-1.6,0.6c-0.7,0-1.2-0.2-1.6-0.6
			C24.8,6.4,24.6,5.8,24.6,5.1z M25.6,5c0,0.5,0.1,0.9,0.4,1.2c0.2,0.3,0.5,0.4,0.9,0.4c0.4,0,0.7-0.1,0.9-0.4C28,6,28.1,5.6,28.1,5
			c0-0.5-0.1-0.9-0.3-1.2c-0.2-0.3-0.5-0.4-0.9-0.4c-0.4,0-0.7,0.1-0.9,0.4C25.7,4.1,25.6,4.5,25.6,5z"/>
		<path fill="#FFFFFF" d="M29.8,7.3V2.7h1.5c0.6,0,0.9,0,1.1,0.1c0.3,0.1,0.5,0.2,0.7,0.5c0.2,0.2,0.3,0.5,0.3,0.9
			c0,0.3-0.1,0.5-0.2,0.7c-0.1,0.2-0.2,0.3-0.4,0.5c-0.2,0.1-0.3,0.2-0.5,0.2c-0.2,0-0.5,0.1-1,0.1h-0.6v1.7H29.8z M30.8,3.5v1.3
			h0.5c0.4,0,0.6,0,0.7-0.1c0.1,0,0.2-0.1,0.3-0.2c0.1-0.1,0.1-0.2,0.1-0.4c0-0.2,0-0.3-0.1-0.4c-0.1-0.1-0.2-0.2-0.4-0.2
			c-0.1,0-0.3,0-0.7,0H30.8z"/>
	</g>
</g>
</svg>
