<?xml version="1.0" encoding="utf-8"?>
<!-- Generator: Adobe Illustrator 16.0.0, SVG Export Plug-In . SVG Version: 6.00 Build 0)  -->
<!DOCTYPE svg PUBLIC "-//W3C//DTD SVG 1.1//EN" "http://www.w3.org/Graphics/SVG/1.1/DTD/svg11.dtd">
<svg version="1.1" id="Layer_1" xmlns="http://www.w3.org/2000/svg" xmlns:xlink="http://www.w3.org/1999/xlink" x="0px" y="0px"
	 width="48px" height="48px" viewBox="0 0 48 48" enable-background="new 0 0 48 48" xml:space="preserve">
<g>
	<path fill="#40596B" d="M30.413,6.355c0,3.511-2.846,6.356-6.355,6.356s-6.355-2.846-6.355-6.356c0-3.51,2.846-6.355,6.355-6.355
		S30.413,2.846,30.413,6.355"/>
	<path fill="#ACB3BA" d="M18.433,5.178c-0.223,0.074-0.439,0.172-0.658,0.264c-0.043,0.299-0.072,0.604-0.072,0.914
		c0,0.441,0.045,0.871,0.131,1.287c0.398-0.227,0.807-0.426,1.229-0.564c3.682-1.221,7.742-0.877,11.107,1.007
		c0.156-0.552,0.244-1.13,0.244-1.729c0-0.146-0.012-0.289-0.021-0.434C26.749,4.158,22.396,3.867,18.433,5.178"/>
	<path fill="#F2F2F2" d="M45.995,48.001H2.005l0.66-4.883c0.76-4.459,3.709-8.068,7.639-9.809c1.24-0.561,2.58-0.932,3.98-1.07h0.01
		c0.451-0.061,0.91-0.08,1.371-0.08h16.67c0.469,0,0.93,0.02,1.379,0.08c1.43,0.139,2.791,0.52,4.051,1.1
		c3.889,1.75,6.811,5.35,7.57,9.779L45.995,48.001z"/>
	<path fill="#FFD15C" d="M38.095,33.503c-0.111,0.67-0.33,1.33-0.631,1.961c-2.6,5.16-7.75,8.34-13.459,8.34
		c-5.721-0.01-10.861-3.18-13.43-8.27c-0.342-0.691-0.561-1.352-0.672-2.031c0.131-0.07,0.271-0.129,0.4-0.189
		c0.49-0.221,2.553-1.16,5.371-1.16h1.639v-2.92c3.012,3.9,6.75,4.279,6.75,4.279s3.691-0.369,6.701-4.219v2.859h1.57
		c0.479,0,0.93,0.029,1.389,0.08v0.01c0.852,0.08,1.67,0.25,2.461,0.5c0.539,0.16,1.07,0.369,1.58,0.6
		C37.874,33.394,37.983,33.442,38.095,33.503"/>
	<rect x="23.534" y="31.611" fill="#FFD15C" width="0.004" height="0.006"/>
	<rect x="24.026" y="19.748" fill="#FFD15C" width="0.004" height="0.006"/>
	<polygon fill="#CDD6E0" points="11.562,48.001 9.872,48.001 11.562,42.628 	"/>
	<polygon fill="#CDD6E0" points="36.438,48.001 38.126,48.001 36.438,42.628 	"/>
	<path fill="#FFD15C" d="M33.413,24.112c-2.754,8.74-9.357,9.404-9.357,9.404s-6.602-0.664-9.355-9.404c0,0-1.475-4.561-0.238-8.361
		c0,0,0.756-6.484,9.594-6.484s9.596,6.484,9.596,6.484C34.888,19.552,33.413,24.112,33.413,24.112"/>
	<path fill="#40596B" d="M19.487,13.255c0,0,11.641,4.42,14.672,9.74c0,0,4.586-10.51-3.354-15.558
		c-3.479-2.211-7.832-2.656-11.744-1.359c-4.768,1.576-8.338,8.905-5.09,16.917C13.972,22.995,14.169,16.696,19.487,13.255"/>
	<path fill="#F2F2F2" d="M33.165,32.183c-1.281,3.781-4.861,6.5-9.061,6.5c-4.211,0-7.791-2.729-9.07-6.51
		c0.209-0.01,0.42-0.02,0.641-0.02h0.949c1.199,2.949,4.1,5.029,7.48,5.029c3.369,0,6.27-2.08,7.48-5.029h0.75
		C32.624,32.153,32.894,32.163,33.165,32.183"/>
	<g opacity="0.1">
		<g>
			<defs>
				<rect id="SVGID_43_" x="20.954" y="29.298" width="17.141" height="12.916"/>
			</defs>
			<clipPath id="SVGID_2_">
				<use xlink:href="#SVGID_43_"  overflow="visible"/>
			</clipPath>
			<path clip-path="url(#SVGID_2_)" fill="#40596B" d="M37.765,33.343c-0.51-0.23-2.568-1.184-5.43-1.188h-1.57v-0.002l0,0v-2.855
				c-3.016,3.846-6.709,4.219-6.709,4.219s-1.342-0.141-3.064-1.088c-0.01,0.002-0.035,0.01-0.035,0.01l9.773,9.775
				c2.846-1.426,5.223-3.75,6.734-6.75c0.301-0.631,0.52-1.291,0.631-1.961C37.983,33.442,37.874,33.394,37.765,33.343"/>
		</g>
	</g>
</g>
</svg>
