<?xml version="1.0" encoding="utf-8"?>
<!-- Generator: Adobe Illustrator 18.0.0, SVG Export Plug-In . SVG Version: 6.00 Build 0)  -->
<!DOCTYPE svg PUBLIC "-//W3C//DTD SVG 1.1//EN" "http://www.w3.org/Graphics/SVG/1.1/DTD/svg11.dtd">
<svg version="1.1" id="Layer_1" xmlns="http://www.w3.org/2000/svg" xmlns:xlink="http://www.w3.org/1999/xlink" x="0px" y="0px"
	 viewBox="0 0 48 48" enable-background="new 0 0 48 48" xml:space="preserve">
<g>
	<path fill="#84DBFF" d="M47.8,0.1C46.3-1,39,6.4,30.1,15.2c-8.9,8.8-16.4,16-15.4,17.4c1,1.4,10.6-3.6,19.9-12.9
		C44,10.6,49.2,1.1,47.8,0.1z"/>
	<g>
		<path fill="#FFD15C" d="M22.6,33.3c-1.1-3.7-3.4-6.4-6.7-8.4c-3.9,0.4-8.2,4.4-15.9,4.4C0.9,35.3,6.8,45,12.3,48
			C16,40.5,21.2,37.2,22.6,33.3z"/>
	</g>
	<g>
		<g>
			<path fill="#F8B64C" d="M15.5,38.6c1-1.3,1.8-2.3,2.3-3c0.5-0.8,0.8-1.2,0.8-1.2s-0.3,0.4-0.8,1.1c-0.6,0.7-1.4,1.7-2.4,2.9
				c-1.6,1.9-3.6,4.4-5.3,8c0.2,0.1,0.3,0.3,0.5,0.4C12.1,43.1,14,40.6,15.5,38.6z"/>
		</g>
		<g>
			<path fill="#F8B64C" d="M14.4,35.7c0.4-0.7,0.7-1,0.7-1C15.1,34.6,14.8,35,14.4,35.7c-0.5,0.6-1.2,1.5-2.1,2.6
				c-1.3,1.6-2.9,3.5-4.5,6c0.2,0.2,0.3,0.4,0.4,0.5c1.4-2.7,3-4.7,4.2-6.4C13.3,37.2,13.9,36.3,14.4,35.7z"/>
		</g>
		<g>
			<path fill="#F8B64C" d="M11.2,36.5c1.1-1.3,1.7-2.3,1.7-2.3c0,0-0.7,0.9-1.9,2.1c-1.2,1.2-2.9,2.8-4.6,4.4
				c-0.3,0.3-0.6,0.5-0.9,0.8c0.2,0.3,0.4,0.6,0.6,0.8c0.3-0.3,0.5-0.6,0.8-0.9C8.6,39.6,10.1,37.8,11.2,36.5z"/>
		</g>
		<g>
			<path fill="#F8B64C" d="M3,37.4c0.2,0.4,0.5,0.8,0.7,1.3c2-1.1,4-2.4,5.9-3.7C7.6,36.1,5.4,36.9,3,37.4z"/>
		</g>
		<g>
			<path fill="#F8B64C" d="M12.9,29c0.8-0.3,1.3-0.5,1.3-0.5C14.1,28.5,13.7,28.7,12.9,29c-0.8,0.2-2,0.7-3.5,1.2
				c-2.2,0.7-5.2,1.6-8.9,1.3c0.1,0.2,0.1,0.4,0.2,0.6c3.7,0.1,6.6-0.9,8.8-1.7C10.9,29.8,12,29.3,12.9,29z"/>
		</g>
		<g>
			<path fill="#F8B64C" d="M11.9,32.2c0.7-0.2,1.2-0.4,1.2-0.4C13,31.8,12.6,31.9,11.9,32.2c-0.8,0.2-1.8,0.5-3.1,0.9
				c-1.9,0.6-4.3,1.2-7.2,1.3c0.1,0.2,0.2,0.4,0.3,0.6c2.7-0.3,5.1-1.1,7-1.7C10.1,32.8,11.1,32.5,11.9,32.2z"/>
		</g>
	</g>
	<g>
		<path fill="#334A5E" d="M22.6,33.5c-1.6-3.7-4-6.4-6.8-8.5c0,0,0.1,0,0.1,0C20.4,24.7,24,28.8,22.6,33.5
			C22.6,33.4,22.6,33.5,22.6,33.5z"/>
	</g>
	<g>
		<ellipse fill="#40596B" cx="22" cy="40.3" rx="0.9" ry="1.4"/>
		<ellipse fill="#40596B" cx="27.4" cy="38.3" rx="0.6" ry="1.1"/>
		<path fill="#40596B" d="M23.3,44.2c-0.6,0.4-0.8,0.9-0.6,1.1c0.2,0.2,0.8,0,1.4-0.5c0.6-0.4,0.8-0.9,0.6-1.1
			C24.4,43.5,23.8,43.7,23.3,44.2z"/>
		<path fill="#40596B" d="M27.2,46.6c-0.6-0.4-1.3-0.5-1.4-0.4c-0.2,0.2,0.2,0.6,0.8,1c0.6,0.4,1.3,0.5,1.4,0.4
			C28.2,47.5,27.8,47,27.2,46.6z"/>
		<ellipse fill="#40596B" cx="32.6" cy="45.2" rx="1.7" ry="0.5"/>
		<ellipse fill="#40596B" cx="27.1" cy="40.9" rx="0.9" ry="0.8"/>
		<path fill="#40596B" d="M21.4,45.5c-0.6-0.1-1.1,0.1-1.2,0.4c-0.1,0.3,0.3,0.6,0.9,0.7c0.6,0.1,1.1-0.1,1.2-0.4
			C22.4,46,22,45.6,21.4,45.5z"/>
		<ellipse fill="#40596B" cx="18.2" cy="45.6" rx="0.7" ry="1.4"/>
		<ellipse fill="#40596B" cx="29.2" cy="42.9" rx="0.6" ry="0.4"/>
		<ellipse fill="#40596B" cx="30.8" cy="38.3" rx="0.6" ry="0.6"/>
		<ellipse fill="#40596B" cx="24.4" cy="36.6" rx="0.4" ry="0.3"/>
		<ellipse fill="#40596B" cx="27.7" cy="44.5" rx="0.4" ry="0.5"/>
		<ellipse fill="#40596B" cx="20.3" cy="42.5" rx="0.8" ry="0.6"/>
	</g>
</g>
</svg>
