<?xml version="1.0" encoding="utf-8"?>
<!-- Generator: Adobe Illustrator 18.0.0, SVG Export Plug-In . SVG Version: 6.00 Build 0)  -->
<!DOCTYPE svg PUBLIC "-//W3C//DTD SVG 1.1//EN" "http://www.w3.org/Graphics/SVG/1.1/DTD/svg11.dtd">
<svg version="1.1" id="Layer_1" xmlns="http://www.w3.org/2000/svg" xmlns:xlink="http://www.w3.org/1999/xlink" x="0px" y="0px"
	 viewBox="0 0 48 48" enable-background="new 0 0 48 48" xml:space="preserve">
<g>
	<g>
		<path fill="#CDD6E0" d="M46,19H2c-1.1,0-2,0.9-2,2v25c0,1.1,0.9,2,2,2h44c1.1,0,2-0.9,2-2V21C48,19.9,47.1,19,46,19z"/>
		<rect x="2.7" y="21.7" fill="#F2F2F2" width="4.8" height="4.7"/>
		<rect x="9" y="21.7" fill="#F2F2F2" width="4.8" height="4.7"/>
		<rect x="21.6" y="21.7" fill="#F2F2F2" width="4.8" height="4.7"/>
		<rect x="34.2" y="21.7" fill="#F2F2F2" width="4.8" height="4.7"/>
		<rect x="21.6" y="28" fill="#F2F2F2" width="4.8" height="4.7"/>
		<rect x="34.2" y="28" fill="#F2F2F2" width="4.8" height="4.7"/>
		<rect x="9" y="34.3" fill="#F2F2F2" width="4.8" height="4.7"/>
		<rect x="21.6" y="34.3" fill="#F2F2F2" width="4.8" height="4.7"/>
		<rect x="9" y="40.6" fill="#F2F2F2" width="4.8" height="4.7"/>
		<rect x="34.2" y="40.6" fill="#F2F2F2" width="4.8" height="4.7"/>
		<rect x="15.3" y="21.7" fill="#F2F2F2" width="4.8" height="4.7"/>
		<rect x="27.9" y="21.7" fill="#F2F2F2" width="4.8" height="4.7"/>
		<rect x="40.5" y="21.7" fill="#F2F2F2" width="4.8" height="4.7"/>
		<rect x="2.7" y="28" fill="#F2F2F2" width="11.1" height="4.7"/>
		<rect x="15.3" y="28" fill="#F2F2F2" width="4.8" height="4.7"/>
		<rect x="27.9" y="28" fill="#F2F2F2" width="4.8" height="4.7"/>
		<rect x="40.5" y="28" fill="#F2F2F2" width="4.8" height="4.7"/>
		<rect x="2.7" y="34.3" fill="#F2F2F2" width="4.8" height="4.7"/>
		<rect x="15.3" y="34.3" fill="#F2F2F2" width="4.8" height="4.7"/>
		<rect x="27.9" y="34.3" fill="#F2F2F2" width="4.8" height="4.7"/>
		<rect x="34.2" y="34.3" fill="#F2F2F2" width="11.1" height="4.7"/>
		<rect x="2.7" y="40.6" fill="#F2F2F2" width="4.8" height="4.7"/>
		<rect x="9" y="40.6" fill="#F2F2F2" width="30" height="4.7"/>
		<rect x="40.5" y="40.6" fill="#F2F2F2" width="4.8" height="4.7"/>
	</g>
	<path fill="#ACB3BA" d="M36.6,19h-6.3v-0.5c0-0.6,0.4-1,1-1h4.3c0.6,0,1,0.4,1,1V19z"/>
	<g>
		<path fill="#40596B" d="M34.7,17.5h-2.5v-1.3c0-1.3-1.1-2.4-2.4-2.4H17.7c-2.7,0-4.9-2.2-4.9-4.9C12.8,6.2,15,4,17.7,4h22.1
			c1.3,0,2.4-1.1,2.4-2.4V0h2.5v1.6c0,2.7-2.2,4.9-4.9,4.9H17.7c-1.3,0-2.4,1.1-2.4,2.4c0,1.3,1.1,2.4,2.4,2.4h12.1
			c2.7,0,4.9,2.2,4.9,4.9V17.5z"/>
	</g>
</g>
</svg>
