<?xml version="1.0" encoding="utf-8"?>
<!-- Generator: Adobe Illustrator 18.0.0, SVG Export Plug-In . SVG Version: 6.00 Build 0)  -->
<!DOCTYPE svg PUBLIC "-//W3C//DTD SVG 1.1//EN" "http://www.w3.org/Graphics/SVG/1.1/DTD/svg11.dtd">
<svg version="1.1" id="Layer_1" xmlns="http://www.w3.org/2000/svg" xmlns:xlink="http://www.w3.org/1999/xlink" x="0px" y="0px"
	 viewBox="0 0 48 48" enable-background="new 0 0 48 48" xml:space="preserve">
<g>
	<g>
		<g>
			<path fill="#E8EAE9" d="M24,6.5L4.6,20.1v16.7c0,1.7,1.3,3,3,3h1.5V48L22,39.8h18.4c1.7,0,3-1.3,3-3V20.1L24,6.5z"/>
			<g>
				<circle fill="#F3705A" cx="12.9" cy="25.7" r="2.9"/>
				<circle fill="#F3705A" cx="24" cy="25.7" r="2.9"/>
				<circle fill="#F3705A" cx="35.1" cy="25.7" r="2.9"/>
			</g>
		</g>
	</g>
	<path fill="#415A6B" d="M46.7,15.2l-5.6-3.9V3h-5.4v4.6l-10.1-7c-1-0.7-2.4-0.7-3.4,0L1.3,15.2C0,16.1-0.4,18,0.6,19.3l0,0
		C1.5,20.6,3.4,21,4.7,20L24,6.5L43.4,20c1.3,0.9,3.2,0.6,4.1-0.7C48.4,18,48.1,16.2,46.7,15.2z"/>
</g>
</svg>
