<?xml version="1.0" encoding="utf-8"?>
<!-- Generator: Adobe Illustrator 18.0.0, SVG Export Plug-In . SVG Version: 6.00 Build 0)  -->
<!DOCTYPE svg PUBLIC "-//W3C//DTD SVG 1.1//EN" "http://www.w3.org/Graphics/SVG/1.1/DTD/svg11.dtd">
<svg version="1.1" id="Layer_1" xmlns="http://www.w3.org/2000/svg" xmlns:xlink="http://www.w3.org/1999/xlink" x="0px" y="0px"
	 viewBox="0 0 48 48" enable-background="new 0 0 48 48" xml:space="preserve">
<g>
	<path fill="#CDD6E0" d="M46.4,30.7c0-0.9,0.7-1.6,1.6-1.6v-1.3c-0.9,0-1.6-0.7-1.6-1.6c0-0.9,0.7-1.6,1.6-1.6v-1.3
		c-0.9,0-1.6-0.7-1.6-1.6c0-0.9,0.7-1.6,1.6-1.6v-1.3c-0.9,0-1.6-0.7-1.6-1.6s0.7-1.6,1.6-1.6v-1.4c-2,0-3.6-1.6-3.6-3.6H3.6
		c0,2-1.6,3.6-3.6,3.6v1.4c0.9,0,1.6,0.7,1.6,1.6S0.9,18.9,0,18.9v1.3c0.9,0,1.6,0.7,1.6,1.6c0,0.9-0.7,1.6-1.6,1.6v1.3
		c0.9,0,1.6,0.7,1.6,1.6c0,0.9-0.7,1.6-1.6,1.6v1.3c0.9,0,1.6,0.7,1.6,1.6c0,0.9-0.7,1.6-1.6,1.6v1.4c2,0,3.6,1.6,3.6,3.6h40.8
		c0-2,1.6-3.6,3.6-3.6v-1.4C47.1,32.3,46.4,31.6,46.4,30.7z"/>
	<rect x="8.5" y="16.4" fill="#FFFFFF" width="29.8" height="15.2"/>
	<rect x="9.7" y="17.6" fill="#F2F2F2" width="27.4" height="12.8"/>
	<g>
		<path fill="#F2F2F2" d="M5.1,11.9c-0.1,0-0.2,0.1-0.2,0.1v1.6c0,0.1,0.1,0.2,0.2,0.2c0.1,0,0.2-0.1,0.2-0.2v-1.6
			C5.2,12,5.2,11.9,5.1,11.9z"/>
		<path fill="#F2F2F2" d="M5.1,15.6c-0.1,0-0.2,0.1-0.2,0.1v1.6c0,0.1,0.1,0.1,0.2,0.1c0.1,0,0.2-0.1,0.2-0.1v-1.6
			C5.2,15.7,5.2,15.6,5.1,15.6z"/>
		<path fill="#F2F2F2" d="M5.1,19.3c-0.1,0-0.2,0.1-0.2,0.1v1.6c0,0.1,0.1,0.2,0.2,0.2c0.1,0,0.2-0.1,0.2-0.2v-1.6
			C5.2,19.4,5.2,19.3,5.1,19.3z"/>
		<path fill="#F2F2F2" d="M5.1,23.1c-0.1,0-0.2,0.1-0.2,0.2v1.6c0,0.1,0.1,0.1,0.2,0.1c0.1,0,0.2-0.1,0.2-0.1v-1.6
			C5.2,23.1,5.2,23.1,5.1,23.1z"/>
		<path fill="#F2F2F2" d="M5.1,26.8c-0.1,0-0.2,0.1-0.2,0.1v1.6c0,0.1,0.1,0.1,0.2,0.1c0.1,0,0.2-0.1,0.2-0.1v-1.6
			C5.2,26.8,5.2,26.8,5.1,26.8z"/>
		<path fill="#F2F2F2" d="M5.1,30.5c-0.1,0-0.2,0.1-0.2,0.1v1.6c0,0.1,0.1,0.2,0.2,0.2c0.1,0,0.2-0.1,0.2-0.2v-1.6
			C5.2,30.6,5.2,30.5,5.1,30.5z"/>
		<path fill="#F2F2F2" d="M5.1,34.2c-0.1,0-0.2,0.1-0.2,0.1v1.6c0,0.1,0.1,0.2,0.2,0.2c0.1,0,0.2-0.1,0.2-0.2v-1.6
			C5.2,34.3,5.2,34.2,5.1,34.2z"/>
	</g>
	<g>
		<path fill="#F2F2F2" d="M41.8,11.9c-0.1,0-0.1,0.1-0.1,0.1v1.6c0,0.1,0.1,0.2,0.1,0.2c0.1,0,0.2-0.1,0.2-0.2v-1.6
			C41.9,12,41.8,11.9,41.8,11.9z"/>
		<path fill="#F2F2F2" d="M41.8,15.6c-0.1,0-0.1,0.1-0.1,0.1v1.6c0,0.1,0.1,0.1,0.1,0.1c0.1,0,0.2-0.1,0.2-0.1v-1.6
			C41.9,15.7,41.8,15.6,41.8,15.6z"/>
		<path fill="#F2F2F2" d="M41.8,19.3c-0.1,0-0.1,0.1-0.1,0.1v1.6c0,0.1,0.1,0.2,0.1,0.2c0.1,0,0.2-0.1,0.2-0.2v-1.6
			C41.9,19.4,41.8,19.3,41.8,19.3z"/>
		<path fill="#F2F2F2" d="M41.8,23.1c-0.1,0-0.1,0.1-0.1,0.2v1.6c0,0.1,0.1,0.1,0.1,0.1c0.1,0,0.2-0.1,0.2-0.1v-1.6
			C41.9,23.1,41.8,23.1,41.8,23.1z"/>
		<path fill="#F2F2F2" d="M41.8,26.8c-0.1,0-0.1,0.1-0.1,0.1v1.6c0,0.1,0.1,0.1,0.1,0.1c0.1,0,0.2-0.1,0.2-0.1v-1.6
			C41.9,26.8,41.8,26.8,41.8,26.8z"/>
		<path fill="#F2F2F2" d="M41.8,30.5c-0.1,0-0.1,0.1-0.1,0.1v1.6c0,0.1,0.1,0.2,0.1,0.2c0.1,0,0.2-0.1,0.2-0.2v-1.6
			C41.9,30.6,41.8,30.5,41.8,30.5z"/>
		<path fill="#F2F2F2" d="M41.8,34.2c-0.1,0-0.1,0.1-0.1,0.1v1.6c0,0.1,0.1,0.2,0.1,0.2c0.1,0,0.2-0.1,0.2-0.2v-1.6
			C41.9,34.3,41.8,34.2,41.8,34.2z"/>
	</g>
	<g>
		<path fill="#FF7058" d="M21.7,19.7l-3.4,8.6h-1.5l-3.4-8.6h1.7l2.4,6.4l2.4-6.4H21.7z"/>
		<path fill="#FF7058" d="M24.5,28.3h-1.6v-8.6h1.6V28.3z"/>
		<path fill="#FF7058" d="M26.6,19.7h3.3c0.4,0,0.9,0,1.3,0.1c0.4,0.1,0.8,0.2,1.1,0.4c0.3,0.2,0.6,0.5,0.7,0.8s0.3,0.8,0.3,1.3
			c0,0.9-0.3,1.6-0.8,2.1c-0.6,0.5-1.4,0.7-2.5,0.7h-1.8v3.2h-1.6V19.7z M28.2,23.6H30c0.3,0,0.5,0,0.8-0.1s0.4-0.1,0.5-0.2
			c0.1-0.1,0.2-0.2,0.3-0.4c0.1-0.2,0.1-0.3,0.1-0.5c0-0.2,0-0.4-0.1-0.6s-0.2-0.3-0.4-0.4c-0.2-0.1-0.3-0.1-0.5-0.2
			c-0.2,0-0.4,0-0.6,0h-1.8V23.6z"/>
	</g>
</g>
</svg>
