<?xml version="1.0" encoding="utf-8"?>
<!-- Generator: Adobe Illustrator 18.0.0, SVG Export Plug-In . SVG Version: 6.00 Build 0)  -->
<!DOCTYPE svg PUBLIC "-//W3C//DTD SVG 1.1//EN" "http://www.w3.org/Graphics/SVG/1.1/DTD/svg11.dtd">
<svg version="1.1" id="Layer_1" xmlns="http://www.w3.org/2000/svg" xmlns:xlink="http://www.w3.org/1999/xlink" x="0px" y="0px"
	 viewBox="0 0 48 48" enable-background="new 0 0 48 48" xml:space="preserve">
<g>
	<path fill="#CDD6E0" d="M47.9,41.1c-0.2,0.3-0.5,1-0.9,1H1c-0.3,0-0.7-0.7-0.9-1c0,0-0.7,2.2,0.9,2.2h46
		C48.5,43.4,47.9,41.1,47.9,41.1z"/>
	<path fill="#ACB3BA" d="M43.1,32.4H4.9c-0.6,0-1.2,0.5-1.5,1.1l-3.2,7.2C0,41.5,0.3,42.2,1,42.2H47c0.7,0,1.1-0.7,0.8-1.5l-3.2-7.2
		C44.4,32.9,43.7,32.4,43.1,32.4z"/>
	<polygon fill="#CDD6E0" points="29.1,40.6 18,40.6 19.2,36.9 28,36.9 	"/>
	<path fill="#334A5E" d="M42,32.4H6c-1.1,0-2-0.9-2-2V6.6c0-1.1,0.9-2,2-2H42c1.1,0,2,0.9,2,2v23.8C44,31.5,43.1,32.4,42,32.4z"/>
	<rect x="6.1" y="6.8" fill="#40596B" width="35.7" height="23.5"/>
	<rect x="7.8" y="17.4" fill="#FFD15C" width="5.7" height="2.1"/>
	<rect x="15.7" y="17.4" fill="#4CDBC4" width="14" height="2.1"/>
	<rect x="31.8" y="17.4" fill="#4CDBC4" width="8.5" height="2.1"/>
	<rect x="7.8" y="23.8" fill="#FF7058" width="11.8" height="2.1"/>
	<rect x="21.8" y="23.8" fill="#CDD6E0" width="10.8" height="2.1"/>
	<rect x="34.6" y="23.8" fill="#FF7058" width="5.7" height="2.1"/>
	<rect x="7.6" y="11" fill="#FF7058" width="7.6" height="2.1"/>
	<rect x="34.4" y="11" fill="#FFD15C" width="6" height="2.1"/>
	<rect x="17.3" y="11" fill="#CDD6E0" width="14.9" height="2.1"/>
</g>
</svg>
