<?xml version="1.0" encoding="utf-8"?>
<!-- Generator: Adobe Illustrator 18.0.0, SVG Export Plug-In . SVG Version: 6.00 Build 0)  -->
<!DOCTYPE svg PUBLIC "-//W3C//DTD SVG 1.1//EN" "http://www.w3.org/Graphics/SVG/1.1/DTD/svg11.dtd">
<svg version="1.1" id="Layer_1" xmlns="http://www.w3.org/2000/svg" xmlns:xlink="http://www.w3.org/1999/xlink" x="0px" y="0px"
	 viewBox="0 0 48 48" enable-background="new 0 0 48 48" xml:space="preserve">
<g>
	<g>
		<g>
			<path fill="#F3F3F3" d="M38.4,0L3,0C1.3,0,0,1.3,0,3v28c0,1.7,1.3,3,3,3l42,0c1.7,0,3-1.3,3-3V9.6L38.4,0z"/>
			<polygon fill="#CED6E0" points="48,9.6 38.4,0 38.4,9.6 			"/>
		</g>
		<g>
			<g>
				<rect x="5" y="15.9" fill="#CED6E0" width="38" height="2"/>
				<rect x="5" y="21.3" fill="#CED6E0" width="38" height="2"/>
				<rect x="5" y="27.2" fill="#CED6E0" width="38" height="2"/>
			</g>
		</g>
		<g>
			<g>
				<g>
					<polygon fill="#F05540" points="21.8,35.4 28.6,48 30.3,43.8 34.8,44.7 29.9,35.4 					"/>
				</g>
				<g>
					<polygon fill="#F3705A" points="18.1,35.4 13.2,44.7 17.7,43.8 19.4,48 26.2,35.4 					"/>
				</g>
			</g>
			<g>
				<g>
					<g>
						<circle fill="#FFD15C" cx="24" cy="27.6" r="10.1"/>
					</g>
					<circle fill="#F7B64C" cx="24" cy="27.6" r="6.9"/>
				</g>
			</g>
		</g>
		<g>
			<rect x="5" y="5.6" fill="#66C6B9" width="16" height="2"/>
		</g>
	</g>
</g>
</svg>
