<?xml version="1.0" encoding="utf-8"?>
<!-- Generator: Adobe Illustrator 18.0.0, SVG Export Plug-In . SVG Version: 6.00 Build 0)  -->
<!DOCTYPE svg PUBLIC "-//W3C//DTD SVG 1.1//EN" "http://www.w3.org/Graphics/SVG/1.1/DTD/svg11.dtd">
<svg version="1.1" id="Layer_1" xmlns="http://www.w3.org/2000/svg" xmlns:xlink="http://www.w3.org/1999/xlink" x="0px" y="0px"
	 viewBox="0 0 48 48" enable-background="new 0 0 48 48" xml:space="preserve">
<g>
	<path fill="#ACB3BA" d="M46,2.2H2c-1.1,0-2,0.9-2,2v35.2c0,1.1,0.9,2,2,2h44c1.1,0,2-0.9,2-2V4.2C48,3.1,47.1,2.2,46,2.2z"/>
	<rect x="4" y="6.2" fill="#F2F2F2" width="38.1" height="31.2"/>
	<circle fill="#40596B" cx="2" cy="22.1" r="0.9"/>
	<rect x="44" y="20.2" fill="#40596B" width="3.2" height="3.2"/>
	<g>
		<path fill="#FFD15C" d="M46.3,31.5c0-0.5-0.1-1-0.5-1.3c-0.5-0.6-1.2-0.8-2-0.9c-0.2,0-0.3,0.1-0.5-0.1c0,0,0,0,0,0
			c-0.1-0.2-0.3-0.4-0.6-0.5l-0.1-0.1c-0.2-0.1-0.5-0.1-0.8,0c0,0-0.2,0.1-0.3,0.2c-0.3,0.1-0.5,0.1-0.6-0.3
			c-0.1-0.1-0.4-0.7-1.4-0.8c-0.2,0-0.3,0-0.5,0c-0.3,0-0.7,0.1-1,0.3c-0.1,0.1-0.2,0-0.2,0c-0.7-0.7-1.5-1-2.5-0.8
			c-0.1,0-0.2,0.1-0.3,0.1c-0.1,0-0.1,0.1-0.2,0c-0.1-0.1,0-0.2,0-0.3c0,0,0-7.5,0-8.1c0-0.9-0.4-1.6-1.1-2.1
			c-0.7-0.5-1.7-0.5-2.5-0.1c-0.7,0.4-1.1,1-1.1,1.9c0,0.9,0.1,17,0.1,17.4c-0.2-0.3-0.4-0.5-0.6-0.8c-0.4-0.6-0.9-1.1-1.4-1.6
			c-0.1,0-0.1-0.2-0.2-0.2c-0.4-0.3-0.8-0.6-1.1-1c-0.1,0-0.1,0-0.1-0.1l0,0l0,0c-0.4-0.2-0.7-0.5-1.1-0.7c-0.7-0.4-1.3-0.7-2.1-0.8
			c-0.6,0-1.1,0-1.5,0.5c-0.1,0.1-0.2,0.2-0.2,0.3c0.6-0.3,1.1-0.3,1.7,0c0.1,0.1,0.2,0.2,0.3,0.3c0.2,0.2,0.4,0.5,0.6,0.7
			c0.3,0.3,0.3,0.6,0.1,1c-0.2,0.4-0.5,0.8-1,1c-0.1,0.1-0.3,0.1-0.5,0.1c0.3,0.5,0.7,0.9,1.1,1.3c0.3,0.3,0.6,0.6,0.8,0.9
			c0,0,0,0,0,0c0,0,0,0,0,0c0.3,0.2,0.5,0.5,0.7,0.7c0.7,0.8,1.4,1.6,2,2.5c0.3,0.4,0.5,0.9,0.7,1.4c0.6,1.2,1.3,2.2,2.2,3.2
			c0.3,0.3,0.7,0.6,1,0.9h13.7c0.4-1,0.6-2,0.7-3.1c0.1-0.6,0.2-1.3,0.2-1.9c0-0.9,0-1.8,0-2.8c0-1,0-2.1,0-3.1
			C46.3,33.8,46.3,32.6,46.3,31.5z"/>
		<polygon fill="#FFD15C" points="30.2,36.2 30.2,36.2 30.2,36.2 		"/>
		<path fill="#FFFFFF" d="M30.6,19.6c0-0.5,0-0.8,0-0.8c0-0.7,0.3-1.1,0.8-1.4c0.3-0.1,0.6-0.2,0.9-0.2c0.4,0,0.8,0.1,1.1,0.3
			c0.6,0.4,0.9,0.9,0.9,1.6c0,0.1,0,0.3,0,0.5H30.6z"/>
		<path fill="#FFFFFF" d="M23.1,34.9c-0.6-0.7-1.1-1.5-1.3-2.4c0-0.2,0-0.4,0-0.6c0.6-0.4,1.2-0.3,1.7,0c0.1,0.1,0.2,0.2,0.3,0.3
			c0.2,0.2,0.4,0.4,0.6,0.7c0.3,0.3,0.3,0.6,0.1,1c-0.2,0.4-0.5,0.8-1,1C23.4,34.9,23.3,34.9,23.1,34.9z"/>
	</g>
	<g>
		<path fill="#FF7058" d="M21.3,9.4c-1.5,0-2.8,0.6-3.7,1.6c-0.9-1-2.2-1.6-3.7-1.6c-2.7,0-5,2.2-5,5c0,4.2,8.6,10.6,8.6,10.6
			s8.6-6.3,8.6-10.6C26.3,11.6,24.1,9.4,21.3,9.4z"/>
		<g>
			<path fill="#FFFFFF" d="M18.5,20.6C18.4,20.6,18.4,20.6,18.5,20.6c-0.2,0-0.4-0.2-0.4-0.4l-0.7-6.4L15.7,18
				c-0.1,0.2-0.2,0.3-0.4,0.3c0,0,0,0,0,0c-0.2,0-0.3-0.1-0.4-0.3l-1-2.7l-1.3,1.3c-0.1,0.1-0.2,0.1-0.3,0.1h-4
				c-0.2,0-0.4-0.2-0.4-0.4c0-0.2,0.2-0.4,0.4-0.4h3.9l1.6-1.6c0.1-0.1,0.2-0.1,0.4-0.1c0.1,0,0.2,0.1,0.3,0.3l0.9,2.4l1.8-4.8
				c0.1-0.2,0.2-0.3,0.4-0.3c0.2,0,0.3,0.2,0.3,0.4l0.7,6.6l1.9-4.1c0.1-0.1,0.2-0.2,0.3-0.2c0.2,0,0.3,0.1,0.4,0.2l1.4,2.5l0.5-1
				c0.1-0.1,0.2-0.2,0.4-0.2h3.3c0.2,0,0.4,0.2,0.4,0.4c0,0.2-0.2,0.4-0.4,0.4h-3.1l-0.8,1.5c-0.1,0.1-0.2,0.2-0.3,0.2c0,0,0,0,0,0
				c-0.1,0-0.3-0.1-0.3-0.2L21,15.7l-2.2,4.6C18.8,20.5,18.6,20.6,18.5,20.6z"/>
		</g>
	</g>
</g>
</svg>
