<?xml version="1.0" encoding="utf-8"?>
<!-- Generator: Adobe Illustrator 18.0.0, SVG Export Plug-In . SVG Version: 6.00 Build 0)  -->
<!DOCTYPE svg PUBLIC "-//W3C//DTD SVG 1.1//EN" "http://www.w3.org/Graphics/SVG/1.1/DTD/svg11.dtd">
<svg version="1.1" id="Layer_1" xmlns="http://www.w3.org/2000/svg" xmlns:xlink="http://www.w3.org/1999/xlink" x="0px" y="0px"
	 viewBox="0 0 48 48" enable-background="new 0 0 48 48" xml:space="preserve">
<g>
	<g>
		<g>
			<g>
				<g>
					<g>
						<polygon fill="#E8EAE9" points="29.9,13.2 26.1,9.4 6.6,28.8 6.6,34.1 18,45.5 25.6,45.5 11.6,31.5 						"/>
					</g>
				</g>
			</g>
			<g>
				<g>
					<g>
						<circle fill="#344A5E" cx="8.9" cy="31.5" r="5"/>
					</g>
				</g>
				<g>
					<g>
						<circle fill="#415A6B" cx="8.9" cy="31.5" r="2.5"/>
					</g>
				</g>
			</g>
		</g>
		<g>
			<path fill="#344A5E" d="M0,48L0,48l42.3,0v0c0-2.9-2.4-5.3-5.3-5.3H5.3C2.4,42.7,0,45.1,0,48z"/>
		</g>
		<g>
			<g>
				<g>
					<path fill="#FFD15C" d="M41.4,15.6c2.1,2.1,2.1,5.5,0,7.6c-2.1,2.1-5.5,2.1-7.6,0L41.4,15.6z"/>
				</g>
			</g>
			<path fill="#F3705A" d="M21,2.7c-5.3,5.3-2.7,16.4,5.7,24.8L45.8,8.5C37.4,0,26.3-2.5,21,2.7z"/>
			<path fill="#F05540" d="M45.8,8.5L26.7,27.5c-0.9-0.9-1.8-1.9-2.6-2.9L42.9,5.9C43.9,6.7,44.9,7.5,45.8,8.5z"/>
			<g>
				<path fill="#F3705A" d="M47.4,6.9c-0.9-0.9-2.3-0.9-3.1,0L25.2,26c-0.9,0.9-0.9,2.3,0,3.1c0.9,0.9,2.3,0.9,3.1,0L47.4,10
					C48.2,9.2,48.2,7.8,47.4,6.9z"/>
			</g>
		</g>
		<g>
			<path fill="#66C6B9" d="M33.7,42.7h-3.8v-1.5c0-0.4,0.3-0.7,0.7-0.7H33c0.4,0,0.7,0.3,0.7,0.7V42.7z"/>
		</g>
	</g>
</g>
</svg>
