<?xml version="1.0" encoding="utf-8"?>
<!-- Generator: Adobe Illustrator 16.0.0, SVG Export Plug-In . SVG Version: 6.00 Build 0)  -->
<!DOCTYPE svg PUBLIC "-//W3C//DTD SVG 1.1//EN" "http://www.w3.org/Graphics/SVG/1.1/DTD/svg11.dtd">
<svg version="1.1" id="Layer_1" xmlns="http://www.w3.org/2000/svg" xmlns:xlink="http://www.w3.org/1999/xlink" x="0px" y="0px"
	 width="48px" height="48px" viewBox="0 0 48 48" enable-background="new 0 0 48 48" xml:space="preserve">
<g>
	<path fill="#F3F3F3" d="M44,3.752H4c-2.209,0-4,1.791-4,4V44c0,2.209,1.791,4,4,4h40c2.209,0,4-1.791,4-4V7.752
		C48,5.543,46.209,3.752,44,3.752"/>
	<path fill="#F3705A" d="M44,3.752H4c-2.209,0-4,1.791-4,4v8.035h48V7.752C48,5.543,46.209,3.752,44,3.752"/>
	<path fill="#FFFFFF" d="M14.137,9.77c0,1.703-1.383,3.084-3.086,3.084S7.965,11.473,7.965,9.77c0-1.705,1.383-3.086,3.086-3.086
		S14.137,8.064,14.137,9.77"/>
	<path fill="#FFFFFF" d="M40.035,9.77c0,1.703-1.381,3.084-3.086,3.084c-1.703,0-3.084-1.381-3.084-3.084
		c0-1.705,1.381-3.086,3.084-3.086C38.654,6.684,40.035,8.064,40.035,9.77"/>
	<path fill="#415A6B" d="M11.105,0c-1.15,0-2.084,0.934-2.084,2.084v6.719c0,1.152,0.934,2.084,2.084,2.084s2.084-0.932,2.084-2.084
		V2.084C13.189,0.934,12.256,0,11.105,0"/>
	<path fill="#415A6B" d="M39.088,2.084c0-1.15-0.932-2.084-2.084-2.084c-1.15,0-2.084,0.934-2.084,2.084v6.719
		c0,1.152,0.934,2.084,2.084,2.084c1.152,0,2.084-0.932,2.084-2.084V2.084z"/>
	<polygon fill="#55C0EB" points="10.707,21.93 18.578,21.93 18.578,41.371 14.406,41.371 14.406,25.629 10.707,25.629 	"/>
	<path fill="#55C0EB" d="M28.703,37.867c1.207,0,2.137-0.402,2.795-1.211c0.66-0.805,1.063-1.906,1.211-3.295
		c-1.188,0.797-2.467,1.195-3.838,1.195c-1.818,0-3.334-0.598-4.549-1.793c-1.215-1.197-1.822-2.777-1.822-4.742
		s0.654-3.547,1.961-4.744c1.309-1.195,2.953-1.795,4.938-1.795c1.373,0,2.564,0.266,3.574,0.793
		c1.012,0.529,1.805,1.266,2.379,2.211c1.094,1.838,1.641,4.137,1.641,6.9c0,1.779-0.217,3.342-0.654,4.686
		c-0.434,1.346-1.023,2.406-1.766,3.186c-1.52,1.557-3.365,2.336-5.535,2.336c-0.91,0-1.779-0.133-2.613-0.404
		c-0.836-0.268-1.467-0.535-1.893-0.805c-0.428-0.27-0.918-0.615-1.473-1.043l2.168-3.061c0.129,0.111,0.301,0.256,0.516,0.432
		c0.213,0.178,0.625,0.412,1.236,0.709C27.592,37.719,28.166,37.867,28.703,37.867 M29.301,30.857c0.861,0,1.582-0.25,2.156-0.752
		c0.576-0.5,0.863-1.158,0.863-1.973c0-0.816-0.279-1.523-0.836-2.115c-0.555-0.594-1.25-0.889-2.086-0.889
		c-0.834,0-1.514,0.264-2.045,0.791c-0.527,0.527-0.791,1.203-0.791,2.018s0.24,1.508,0.723,2.07
		C27.766,30.574,28.439,30.857,29.301,30.857"/>
</g>
</svg>
