<?xml version="1.0" encoding="utf-8"?>
<!-- Generator: Adobe Illustrator 18.0.0, SVG Export Plug-In . SVG Version: 6.00 Build 0)  -->
<!DOCTYPE svg PUBLIC "-//W3C//DTD SVG 1.1//EN" "http://www.w3.org/Graphics/SVG/1.1/DTD/svg11.dtd">
<svg version="1.1" id="Layer_1" xmlns="http://www.w3.org/2000/svg" xmlns:xlink="http://www.w3.org/1999/xlink" x="0px" y="0px"
	 viewBox="0 0 48 48" enable-background="new 0 0 48 48" xml:space="preserve">
<g>
	<g>
		<g>
			<g>
				<rect y="10.9" fill="#F3F3F3" width="48" height="25.4"/>
			</g>
			<g>
				<rect y="10.9" fill="#66C6B9" width="48" height="4.7"/>
			</g>
		</g>
		<g>
			<g>
				<rect x="3.9" y="19.7" fill="#CED6E0" width="40.3" height="1.6"/>
			</g>
			<g>
				<rect x="3.9" y="25" fill="#CED6E0" width="40.3" height="1.6"/>
			</g>
			<g>
				<rect x="3.9" y="30.4" fill="#CED6E0" width="9.3" height="1.6"/>
			</g>
		</g>
		<g>
			<g>
				<g>
					<g>
						<path fill="#F3705A" d="M46.3,17.2l-9.6,9.6c-1.8,1.8-3.9,3.4-6.1,4.7l-0.7-0.7c1.3-2.2,2.9-4.3,4.7-6.1l9.6-9.6L46.3,17.2z"
							/>
					</g>
				</g>
				<g>
					<g>
						<path fill="#CED6E0" d="M29.9,30.9c-0.3,0.5-0.6,1-0.8,1.5c0.5-0.3,1-0.5,1.5-0.8L29.9,30.9z"/>
					</g>
				</g>
				<g>
					<g>
						<path fill="#F3705A" d="M36.2,27.2c0.1-0.1,0.3-0.3,0.4-0.4l0.2-0.2l-2.1-2.1l-0.2,0.2c-0.1,0.1-0.3,0.3-0.4,0.4L36.2,27.2z"
							/>
					</g>
				</g>
				<g>
					<g>
						<path fill="#F3705A" d="M46,17l-1.5-1.5l0.9-0.9c0.3-0.3,0.8-0.3,1.1,0l0.4,0.4c0.3,0.3,0.3,0.8,0,1.1L46,17z"/>
					</g>
				</g>
				<g>
					
						<rect x="41.9" y="17.2" transform="matrix(0.7071 0.7071 -0.7071 0.7071 25.3763 -25.5659)" fill="#F3705A" width="3.3" height="1.3"/>
				</g>
				<g>
					<g>
						<path fill="#F3705A" d="M41,24.1c-0.1-0.1-0.1-0.3,0-0.5l3.9-3.9l-1.6-1.6c-0.1-0.1-0.1-0.3,0-0.5c0.1-0.1,0.3-0.1,0.5,0
							l1.8,1.8c0.1,0.1,0.1,0.3,0,0.5l-4.2,4.2C41.3,24.2,41.1,24.2,41,24.1z"/>
					</g>
				</g>
			</g>
			<g>
				<path fill="#F7B64C" d="M31.8,26.1c0.7,0,1.4-0.4,2.1-0.4c1-0.1,2.1,0.3,3.2,0.2c0.3,0,0.5-0.1,0.8-0.1c0.2,0,0.5,0,0.7,0
					c0.2,0,0.3-0.1,0.5-0.1c0.2-0.1,0.4-0.2,0.7-0.2c0.3-0.1,0.6-0.2,0.7-0.4c1-0.4,1.7-1.3,1.8-2.3c0,0.2,0,0.3,0,0.5
					c0.3-0.3,0.4-0.8,0.1-1.1c-0.1-0.1-0.2-0.3-0.3-0.4c-0.2-0.3-0.2-0.6-0.2-0.9c-0.1-0.3-0.2-0.6-0.3-0.9
					c-0.1-0.3-0.2-0.6-0.3-0.9c0,0,0,0,0-0.1c0,0,0,0-0.1,0c-0.1,0-0.2,0.1-0.3,0.1c0.1-0.3,0.1-0.7,0.2-1c-0.1,0.3-0.2,0.5-0.2,0.8
					c0,0.1-0.1,0.3-0.2,0.4c-0.1,0.2-0.4,0.3-0.5,0.6c0-0.3,0-0.5,0-0.8c-0.3,0.4-0.3,0.9-0.5,1.3c-0.2,0.4-0.6,0.7-0.9,1
					c-0.5,0.4-0.9,1-1.6,1.1c-0.3,0-0.5-0.2-0.6-0.4c-0.2-0.3-0.4-0.5-0.5-0.8c0,0.4,0,0.8,0,1.3c0,0.2,0,0.5,0,0.7
					c-0.1,0.8-0.5,1.6-1.2,2.1c-0.1,0.1-0.3,0.2-0.5,0.2c-0.1,0-0.2,0-0.4,0c-0.2-0.1-0.4-0.1-0.6-0.2c-0.2-0.1-0.4-0.2-0.5-0.4
					c0.1,0.2,0.1,0.5,0,0.7s-0.3,0.3-0.5,0.5C32.2,25.9,32,26,31.8,26.1L31.8,26.1z"/>
			</g>
			<g>
				<g>
					<path fill="#FFD15C" d="M31,29.9c0.2,0.1,1.3,0.7,3.6,1.2c0.1,0,0.1,0,0.2,0c0.2,0,0.8,0,1.3-0.1c0.1,0,0.3,0,0.4,0
						c0.6,0.1,2.6,0.6,4.4,2.5c2.2,2.4,5.7,3.4,7.2,3.6l0-20.2l-0.7-0.6c-0.9-0.7-2.1-0.8-3.2-0.4l-6,2.4c-1.7,0.7-3.1,1.8-4.1,3.3
						c-0.9,1.3-2,2.9-2.6,3.4c-1,0.8-1.6,2-1.9,2.5c-0.1,0.2-0.1,0.4,0,0.6c0.1,0.3,0.3,0.8,0.8,1C30.5,29.5,30.8,29.7,31,29.9
						C30.9,29.8,31,29.9,31,29.9z"/>
				</g>
			</g>
			<g>
				<path fill="#F7B64C" d="M33,25.8L33,25.8c0,0-0.4,0-1,0.2c-0.3,0.1-0.6,0.2-1,0.4c-0.1,0-0.2,0.1-0.2,0.2
					c-0.1,0.1-0.2,0.1-0.2,0.2c-0.1,0.1-0.3,0.3-0.4,0.5c0,0.1-0.1,0.2-0.1,0.3c0,0.1-0.1,0.2-0.1,0.3c0,0.2,0,0.4,0,0.6
					c0,0.2,0.1,0.4,0.1,0.5c0,0,0,0.1,0,0.1c-0.1,0-0.1-0.1-0.2-0.1c-0.1-0.2-0.1-0.3-0.1-0.5c0-0.2,0-0.4,0-0.6
					c0-0.1,0-0.2,0.1-0.3c0-0.1,0.1-0.2,0.1-0.3c0-0.1,0.1-0.2,0.2-0.3c0.1-0.1,0.1-0.2,0.2-0.2c0.1-0.1,0.2-0.1,0.2-0.2
					c0.1-0.1,0.2-0.1,0.3-0.2c0.3-0.2,0.7-0.3,1-0.4C32.6,25.9,33,25.8,33,25.8z"/>
			</g>
			<g>
				<path fill="#F7B64C" d="M31.8,26.1c0.7,0,1.4-0.4,2.1-0.4c1-0.1,2.1,0.4,3.2,0.2c4.6-0.6,5.1-2.8,5.1-2.8
					c0.3-0.3,0.4-0.8,0.1-1.1c-0.1-0.1-0.2-0.3-0.3-0.4c-0.2-0.3-0.2-0.6-0.2-0.9c-0.1-0.3-0.2-0.6-0.3-0.9
					c-0.1-0.3-0.2-0.6-0.3-0.9c0,0,0,0,0-0.1c0,0,0,0-0.1,0c-0.1,0-0.2,0.1-0.3,0.1c0.1-0.3,0.1-0.7,0.2-1c-0.1,0.3-0.2,0.5-0.2,0.8
					c0,0.1-0.1,0.3-0.2,0.4c-0.1,0.2-0.4,0.3-0.5,0.6c0-0.3,0-0.5,0-0.8c-0.3,0.4-0.3,0.9-0.5,1.3c-0.2,0.4-0.6,0.7-0.9,1
					c-0.5,0.4-0.9,1-1.6,1.1c-0.3,0-0.5-0.2-0.6-0.4c-0.2-0.3-0.4-0.5-0.5-0.8c0,0.4,0.4,1.1,0.4,1.4c0.4,1.1-0.6,1.9-1.2,2.5
					C35,25,33.9,25.4,33.3,25c-0.2-0.1-0.4-0.2-0.5-0.4c0.1,0.2,0.2,0.5,0.1,0.7c-0.1,0.2-0.3,0.3-0.5,0.5
					C32.3,25.9,32,26,31.8,26.1L31.8,26.1z"/>
			</g>
			<g>
				<path fill="#FFFFFF" d="M32.4,30.1c0,0,0.7,0.1,0.6-0.4c-0.1-0.5-0.4-1.7-0.1-2.3c0,0-0.3-0.7-1.3-0.7c-0.1,0-0.3,0-0.4,0.1
					c-0.3,0.2-0.7,0.6-0.7,1.3c0,0.3,0.1,0.7,0.3,0.9c0.2,0.3,0.5,0.7,1,0.9C31.7,30,32.2,30.1,32.4,30.1z"/>
			</g>
			<g>
				<g>
					<g>
						<path fill="#415A6B" d="M46,17l-1.5-1.5l0.9-0.9c0.3-0.3,0.8-0.3,1.1,0l0.4,0.4c0.3,0.3,0.3,0.8,0,1.1L46,17z"/>
					</g>
				</g>
				<g>
					<path fill="#F3705A" d="M44.2,15.1l-9.6,9.6c-0.3,0.3-0.6,0.6-0.9,0.9c0.1,0,0.2,0,0.3,0c1-0.1,2.1,0.3,3.2,0.2
						c0.2,0,0.4,0,0.6-0.1l8.6-8.6L44.2,15.1z"/>
				</g>
				<g>
					<path fill="#415A6B" d="M34.5,24.8c-0.1,0.1-0.3,0.3-0.4,0.4l0.5,0.5c0.5,0,1,0.1,1.5,0.2l-1.3-1.3L34.5,24.8z"/>
				</g>
				<g>
					<g>
						
							<rect x="41.9" y="17.2" transform="matrix(0.7071 0.7071 -0.7071 0.7071 25.3763 -25.5659)" fill="#415A6B" width="3.3" height="1.3"/>
					</g>
					<g>
						<g>
							<path fill="#415A6B" d="M41,24.1c-0.1-0.1-0.1-0.3,0-0.5l3.9-3.9l-1.6-1.6c-0.1-0.1-0.1-0.3,0-0.5c0.1-0.1,0.3-0.1,0.5,0
								l1.8,1.8c0.1,0.1,0.1,0.3,0,0.5l-4.2,4.2C41.3,24.2,41.1,24.2,41,24.1z"/>
						</g>
					</g>
				</g>
			</g>
		</g>
		<g>
			<g>
				<path fill="#415A6B" d="M20.8,33.4c-0.2,0-0.4-0.1-0.6-0.2c-0.4-0.3-0.4-0.9-0.3-1.3c0.1-0.4,0.1-0.8,0.3-1.2
					c0.3-0.5,0.7-0.7,1.2-0.7c0.1,0,0.2,0.1,0.2,0.3c0,0.1-0.1,0.2-0.3,0.2c-0.3,0-0.6,0.2-0.7,0.5c-0.2,0.3-0.2,0.7-0.3,1
					c-0.1,0.5,0,0.8,0.1,0.9c0.2,0.1,0.5,0.1,0.6,0c0,0,0.1-0.1,0.1-0.1c-0.2-0.2-0.3-0.5-0.3-0.9c0-0.5,0.3-0.9,0.6-1
					c0.1,0,0.2,0,0.2,0c0.4,0.2,0.5,0.6,0.5,0.8c0,0.3-0.1,0.6-0.3,0.8c0.2,0,0.4-0.2,0.6-0.3c0.1-0.1,0.3-0.3,0.4-0.5
					c0.1-0.2,0.3-0.4,0.5-0.6C23.8,31,24,31,24.2,31c0,0,0,0,0,0c1,0,1.6,0.6,1.9,1c0.2,0.2,0.4,0.4,0.5,0.4c0,0,0,0,0,0
					c0.1,0,0.3-0.1,0.7-0.5c0.1-0.1,0.3-0.1,0.4,0s0.1,0.3,0,0.4c-0.4,0.5-0.8,0.7-1.1,0.7c0,0,0,0,0,0c-0.4,0-0.6-0.3-0.9-0.6
					c-0.3-0.4-0.7-0.9-1.6-0.9c-0.1,0-0.2,0-0.2,0.1c-0.2,0.1-0.3,0.3-0.4,0.5c-0.1,0.2-0.3,0.4-0.5,0.6c-0.6,0.4-1,0.5-1.3,0.4
					c-0.1,0.1-0.2,0.2-0.3,0.3C21.3,33.3,21.1,33.4,20.8,33.4z M21.8,31.3c-0.2,0.1-0.2,0.4-0.2,0.5c0,0.2,0,0.3,0.1,0.5
					c0.2-0.2,0.3-0.5,0.3-0.7C22,31.6,22,31.5,21.8,31.3z"/>
			</g>
		</g>
	</g>
</g>
</svg>
