<?xml version="1.0" encoding="utf-8"?>
<!-- Generator: Adobe Illustrator 20.1.0, SVG Export Plug-In . SVG Version: 6.00 Build 0)  -->
<!DOCTYPE svg PUBLIC "-//W3C//DTD SVG 1.1//EN" "http://www.w3.org/Graphics/SVG/1.1/DTD/svg11.dtd">
<svg version="1.1" id="Layer_1" xmlns="http://www.w3.org/2000/svg" xmlns:xlink="http://www.w3.org/1999/xlink" x="0px" y="0px"
	 viewBox="0 0 49 49" enable-background="new 0 0 49 49" xml:space="preserve">
<g>
	<path fill="#334A5E" d="M46.9,5.5H2.5c-1.1,0-2,0.9-2,2v26.8h48V7.1C48.5,6.2,47.8,5.5,46.9,5.5z"/>
	<path fill="#F2F2F2" d="M0.5,34.3v3.8c0,1.1,0.9,2,2,2h44c1.1,0,2-0.9,2-2v-3.8H0.5z"/>
	<circle fill="#CDD5DF" cx="24.5" cy="37.2" r="1.1"/>
	<rect x="15.3" y="40.1" fill="#CDD5DF" width="18.4" height="5.4"/>
	<rect x="15.3" y="40.1" fill="#ABB2B9" width="18.4" height="1.5"/>
	<rect x="10.4" y="45.5" fill="#F2F2F2" width="28.1" height="3"/>
	<path fill="#F2F2F2" d="M33.5,0.5H11.3c-1.1,0-2,0.9-2,2V32h30.4V6.6L33.5,0.5z"/>
	<path fill="#CDD5DF" d="M35.5,6.6h4.1l-6.1-6.1v4.1C33.5,5.7,34.4,6.6,35.5,6.6z"/>
	<polygon fill="#89D6F7" points="42.7,8.5 39.7,32 45.3,32 45.3,8.5 	"/>
	<polygon fill="#89D6F7" points="3.7,8.5 3.7,32 9.3,32 6.3,8.5 	"/>
	<polygon fill="#334A5E" points="43.1,5.5 39.7,5.5 39.7,8.5 42.7,8.5 	"/>
	<polygon fill="#89D6F7" points="39.7,8.5 39.7,32 42.7,8.5 	"/>
	<polygon fill="#55BFE9" points="39.7,8.5 39.7,32 42.7,8.5 	"/>
	<polygon fill="#334A5E" points="9.3,5.5 5.9,5.5 6.3,8.5 9.3,8.5 	"/>
	<polygon fill="#89D6F7" points="6.3,8.5 9.3,32 9.3,8.5 	"/>
	<polygon fill="#55BFE9" points="6.3,8.5 9.3,32 9.3,8.5 	"/>
	<rect x="18.2" y="2.2" fill="#CDD6E0" width="12.6" height="12.6"/>
	<path fill="#40596B" d="M29.1,8.1L30,7.5l-0.4-1.2l-1.1,0C28.4,6,28.2,5.7,28,5.5l0.4-1l-1-0.8l-0.9,0.7c-0.3-0.1-0.6-0.3-1-0.3
		L25.2,3l-1.3,0L23.6,4c-0.3,0.1-0.6,0.2-0.9,0.3l-0.9-0.7l-1,0.7l0.3,1.1c-0.1,0.1-0.2,0.2-0.3,0.4v0c-0.1,0.1-0.2,0.3-0.3,0.4
		l-1.1,0L19,7.3L19.9,8c0,0.3,0,0.7,0,1L19,9.6l0.4,1.2l1.1,0c0.2,0.3,0.3,0.6,0.6,0.8l-0.4,1l1,0.8l0.9-0.7c0.3,0.1,0.6,0.3,1,0.3
		l0.3,1.1l1.3,0l0.3-1.1c0.3-0.1,0.6-0.2,0.9-0.3l0.9,0.7l1-0.7l-0.3-1.1c0.1-0.1,0.2-0.2,0.3-0.4l0,0c0.1-0.1,0.2-0.3,0.3-0.4
		l1.1,0L30,9.7l-0.9-0.6C29.1,8.8,29.1,8.4,29.1,8.1z M26.6,10.1c-0.4,0.5-1,0.9-1.7,1c-1.4,0.2-2.7-0.8-2.9-2.2
		C21.8,8.2,22,7.5,22.4,7c0.4-0.5,1-0.9,1.7-1c1.4-0.2,2.7,0.8,2.9,2.2C27.2,8.9,27,9.6,26.6,10.1z"/>
	<path fill="#40596B" d="M38.1,29.5L38.1,29.5c0-0.6-0.5-1.1-1.1-1.1h-1.6v2.2h1.6C37.7,30.5,38.1,30.1,38.1,29.5z"/>
	<rect x="12.8" y="29" fill="#D8AB53" width="0" height="0"/>
	<polygon fill="#FFD05C" points="13.6,28.4 13.6,30.5 12.3,30 10.9,29.5 12.3,28.9 	"/>
	<polygon fill="#40596B" points="12.3,28.9 12.3,30 10.9,29.5 	"/>
	<polygon fill="#FF7058" points="13.6,28.4 13.6,29 34.4,29 34.4,29 34.4,28.4 	"/>
	<rect x="13.6" y="29" fill="#F1543F" width="20.8" height="0.9"/>
	<rect x="13.6" y="29.9" fill="#FF7058" width="20.8" height="0.7"/>
	<rect x="34.4" y="28.4" fill="#FFD15C" width="1" height="2.2"/>
	<polygon fill="#55BFE9" points="34.4,28.4 35.5,28.4 34.4,28.4 	"/>
	<polygon fill="#FFD15C" points="35.5,29 35.5,29 35.5,28.4 	"/>
	<polygon fill="#55BFE9" points="35.5,29.9 35.5,29.9 35.5,29 35.5,29 	"/>
	<rect x="15" y="18.1" fill="#4CDBC4" width="18.9" height="2.3"/>
	<rect x="15" y="22.8" fill="#4CDBC4" width="18.9" height="2.3"/>
</g>
</svg>
