<?xml version="1.0" encoding="utf-8"?>
<!-- Generator: Adobe Illustrator 18.0.0, SVG Export Plug-In . SVG Version: 6.00 Build 0)  -->
<!DOCTYPE svg PUBLIC "-//W3C//DTD SVG 1.1//EN" "http://www.w3.org/Graphics/SVG/1.1/DTD/svg11.dtd">
<svg version="1.1" id="Layer_1" xmlns="http://www.w3.org/2000/svg" xmlns:xlink="http://www.w3.org/1999/xlink" x="0px" y="0px"
	 viewBox="0 0 48 48" enable-background="new 0 0 48 48" xml:space="preserve">
<g>
	<path fill="#CFD7E1" d="M47.9,32.9c-0.1-0.1-0.2-0.2-0.3-0.2c-4.9-5-5-13.1-0.2-18.2c0.1,0,0.2-0.1,0.2-0.2c0,0,0-0.1,0-0.1l0,0
		c0-0.1,0-0.1,0-0.2c0-0.1,0-0.1,0-0.2c0,0,0,0,0,0l0,0l0,0c0-0.1-0.1-0.1-0.1-0.2c0,0,0,0,0,0c0,0-0.1-0.1-0.1-0.1c0,0,0,0,0,0
		c0,0,0,0,0,0c-0.1,0-0.2,0-0.3,0l0,0c-3.4,0-6.6-1.4-9-3.8c-2.4-2.4-3.8-5.6-3.9-9c0-0.1,0-0.2,0-0.3c0-0.1-0.1-0.2-0.2-0.2
		c0,0-0.1-0.1-0.2-0.1c0,0,0,0,0,0l0,0c0,0,0,0,0,0c-0.1,0-0.1,0-0.2,0c0,0,0,0,0,0c-0.1,0-0.1,0-0.2,0.1c0,0,0,0,0,0c0,0,0,0,0,0
		c-0.1,0.1-0.1,0.1-0.2,0.2l0,0c-2.5,2.4-6,3.8-9.6,3.8c-3.6,0-6.9-1.3-9.3-3.7l0,0c-0.1-0.1-0.1-0.1-0.2-0.1c0,0,0,0-0.1,0
		c-0.1,0-0.2,0-0.3,0c-0.1,0-0.1,0.1-0.2,0.2c0,0,0,0,0,0c0,0.1-0.1,0.2-0.1,0.2l0,0c0.3,7-5.6,13.5-12.8,13.9l0,0
		c-0.2-0.1-0.5,0-0.6,0.3c0,0,0,0,0,0c0,0,0,0,0,0c-0.1,0.2,0,0.3,0.1,0.5c0.1,0.1,0.2,0.1,0.3,0.2c5.1,4.9,5.4,12.9,0.7,18.2l0,0
		c-0.2,0.1-0.4,0.4-0.2,0.6c0,0,0,0,0,0c0,0,0,0,0,0c0.1,0.1,0.2,0.3,0.4,0.3c0.1,0,0.2,0,0.3-0.1c3.4,0,6.6,1.2,9.1,3.5
		c2.5,2.3,3.9,5.5,4.1,8.9c0,0.1-0.1,0.2,0,0.3c0,0.2,0.2,0.3,0.3,0.3l0,0c0,0,0,0,0,0l0,0l0,0c0.1,0,0.1,0,0.2,0
		c0.1,0,0.2,0,0.3-0.1c0,0,0,0,0,0c0,0,0,0,0.1-0.1c0,0,0.1-0.1,0.1-0.2l0,0c2.4-2.4,5.6-3.8,9-3.9c3.4-0.1,6.7,1.1,9.2,3.4
		c0,0.1,0.1,0.2,0.2,0.2c0.1,0.1,0.2,0.1,0.3,0.1l0,0c0.1,0,0.1,0,0.2,0l0,0c0,0,0,0,0,0c0,0,0,0,0,0c0.1,0,0.1-0.1,0.1-0.1
		c0,0,0,0,0-0.1c0,0,0-0.1,0.1-0.1c0,0,0,0,0,0c0,0,0,0,0,0c0,0,0,0,0-0.1c0,0,0-0.1,0-0.1c0,0,0,0,0,0l0,0c0-7,5.6-12.9,12.5-13.1
		l0,0c0.1,0,0.1,0,0.2,0c0.1,0,0.2-0.1,0.3-0.2l0,0c0,0,0.1-0.1,0.1-0.1c0,0,0,0,0,0c0,0,0,0,0,0C48,33.2,48,33,47.9,32.9z
		 M33.3,2.6c0.5,3,1.8,5.7,4,7.8c2.2,2.1,4.9,3.5,7.8,3.9L39.3,17c0,0,0,0,0,0c-0.1,0-0.2,0-0.3,0c-2.1,0-4.2-0.9-5.7-2.4
		c-1.5-1.5-2.4-3.5-2.5-5.6L33.3,2.6z M24.3,23l-2.5-5.8c1.5,0.7,3.4,0.6,4.9-0.2L24.3,23z M27.4,17.8c0.3,0.6,0.6,1.2,1.1,1.7
		c0.6,0.6,1.4,1,2.2,1.3l-5.4,2.4L27.4,17.8z M23.4,23.4l-6-2.3c1.6-0.5,2.9-1.8,3.5-3.4L23.4,23.4z M17.6,22.3l5.2,2l-5.3,2.3
		C18.2,25.2,18.2,23.6,17.6,22.3z M23.5,25l-2.2,5.5c-0.3-0.8-0.7-1.5-1.3-2.1c-0.5-0.5-1.1-0.8-1.7-1.1L23.5,25z M24.3,25.6
		l2.2,4.9c-0.7-0.3-1.4-0.4-2.1-0.4c-0.7,0-1.3,0.2-2,0.5L24.3,25.6z M25.2,25.2l4.9,1.9c-1.3,0.6-2.3,1.7-2.7,3.1L25.2,25.2z
		 M25.4,24.2l5.4-2.4c-0.6,1.5-0.5,3.2,0.4,4.6L25.4,24.2z M29.2,18.8c-0.7-0.7-1.1-1.6-1.2-2.6l2.1-5.4c0.4,1.7,1.2,3.2,2.5,4.4
		c1.3,1.3,3,2.2,4.8,2.5l-5,2.2c0,0-0.1,0-0.1,0c-0.1,0-0.1,0-0.2,0C31,20,30,19.5,29.2,18.8z M27.3,15.4
		C27.2,15.4,27.2,15.4,27.3,15.4c-0.1,0.1-0.2,0.1-0.2,0.2c-0.8,0.8-1.9,1.2-3,1.2c-1.1,0-2.2-0.4-3-1.2c0,0,0,0,0,0l-2.2-5.1
		c1.5,0.9,3.2,1.4,5,1.4c2,0,3.9-0.6,5.5-1.6L27.3,15.4z M20.2,16.1c0,2.2-1.8,4.1-4.1,4.3c-0.1,0-0.1,0-0.2,0
		c-0.1,0-0.1,0.1-0.2,0.1l-5.2-2c3.7-0.9,6.6-4,7.3-7.6L20.2,16.1z M16.1,21.7c1.3,1.6,1.3,3.9-0.1,5.4c-0.1,0-0.1,0.1-0.1,0.1
		c0,0,0,0.1,0,0.1l-5.1,2.3c1.9-3.1,1.8-7-0.2-10L16.1,21.7z M16.8,28c1,0.1,1.8,0.4,2.6,1.1c0.8,0.7,1.2,1.7,1.3,2.8
		c0,0.1,0,0.2,0,0.2c0,0,0,0.1,0,0.1l-2,5.2c-0.4-1.8-1.3-3.4-2.7-4.7c-1.3-1.2-2.8-2-4.5-2.3L16.8,28z M21.8,32.1
		c0.7-0.6,1.6-1,2.6-1c1,0,2,0.3,2.8,1l2.3,5.3c-1.5-0.9-3.3-1.4-5-1.3c-1.7,0-3.4,0.6-4.8,1.5L21.8,32.1z M28.2,31.9
		c0-0.1,0-0.1,0-0.2c0-2,1.5-3.7,3.5-4.1l5.5,2.1c-3.4,0.9-6,3.7-6.7,7.2L28.2,31.9z M32.7,27c0-0.1,0-0.2-0.1-0.2
		c0-0.1-0.1-0.1-0.2-0.1c-1.5-1.5-1.5-3.9-0.3-5.5l5.3-2.3C35.6,22,35.8,26,37.9,29L32.7,27z M23.6,5.1c3.2,0,6.4-1,8.9-2.9L30,8.3
		c-0.1,0-0.1,0.1-0.2,0.2c-1.6,1.5-3.8,2.4-6.1,2.4c-2.3,0-4.4-0.8-5.9-2.4l-2.6-6C17.6,4.2,20.5,5.1,23.6,5.1z M14.4,2.9l2.7,6.2
		c0.1,4.4-3.6,8.4-8.1,8.7c-0.1,0-0.2,0-0.3,0c0,0,0,0,0,0l-6.1-2.3C8.7,14.2,13.6,9,14.4,2.9z M2.3,16.4l6.5,2.5
		c3,3.1,3.2,8.1,0.3,11.4c-0.1,0-0.1,0.1-0.1,0.1l-6,2.7C6.4,28,6.1,21.2,2.3,16.4z M15.5,45.5c-0.5-3-2-5.7-4.2-7.8
		c-2.2-2.1-5-3.4-7.9-3.7l6.3-2.8c2.1,0,4.1,0.8,5.6,2.2c1.6,1.5,2.5,3.5,2.6,5.6c0,0.1,0,0.2,0,0.3c0,0,0,0,0,0L15.5,45.5z
		 M24.6,42.8c-3,0.1-5.8,1.1-8.1,2.9l2.5-6.4c1.5-1.5,3.4-2.3,5.5-2.3c2.2,0,4.2,0.7,5.8,2.2l2.7,6.2C30.6,43.6,27.7,42.7,24.6,42.8
		z M33.9,44.8l-2.7-6c0,0,0-0.1,0-0.1c0-4.4,3.4-7.9,7.7-8.3l6.4,2.5C39.3,34,34.7,38.8,33.9,44.8z M39.8,29.7c0,0,0-0.1,0-0.1
		c-0.1-0.1-0.1-0.1-0.2-0.2c-3.1-3.2-3.2-8.2-0.2-11.4l6.2-2.8c-3.6,5-3.5,11.9,0.3,16.8L39.8,29.7z"/>
</g>
</svg>
