<?xml version="1.0" encoding="utf-8"?>
<!-- Generator: Adobe Illustrator 18.0.0, SVG Export Plug-In . SVG Version: 6.00 Build 0)  -->
<!DOCTYPE svg PUBLIC "-//W3C//DTD SVG 1.1//EN" "http://www.w3.org/Graphics/SVG/1.1/DTD/svg11.dtd">
<svg version="1.1" id="Layer_1" xmlns="http://www.w3.org/2000/svg" xmlns:xlink="http://www.w3.org/1999/xlink" x="0px" y="0px"
	 viewBox="0 0 48 48" enable-background="new 0 0 48 48" xml:space="preserve">
<g>
	<g>
		<g>
			<g>
				<g>
					<path fill="#F3705A" d="M31.8,43.2c-7.3,3.3-21.3,8.2-28.3,1.3c-7-6.9-2-20.7,1.3-27.9c2-4.3,5.3-7.8,9.6-9.9
						c12.9-6.4,22,5.4,22,5.4s12,9,5.4,21.7C39.8,37.9,36.2,41.2,31.8,43.2z"/>
				</g>
				<g>
					<g>
						<path fill="#F3F3F3" d="M22.4,9.7c-0.3,0.3-1.8,0.7-1.8,0.7s0.4-1.5,0.7-1.8c0.3-0.3,1.1-0.6,1.4-0.3
							C22.9,8.7,22.7,9.4,22.4,9.7z"/>
					</g>
					<g>
						<path fill="#F3F3F3" d="M25.9,14.4c-0.3,0.3-1.8,0.7-1.8,0.7s0.4-1.5,0.7-1.8c0.3-0.3,1.1-0.6,1.4-0.3
							C26.4,13.3,26.2,14.1,25.9,14.4z"/>
					</g>
					<g>
						<path fill="#F3F3F3" d="M29.9,18.6c-0.3,0.3-1.8,0.7-1.8,0.7s0.4-1.5,0.7-1.8c0.3-0.3,1.1-0.6,1.4-0.3
							C30.4,17.5,30.2,18.3,29.9,18.6z"/>
					</g>
					<g>
						<path fill="#F3F3F3" d="M34.1,22.5c-0.3,0.3-1.8,0.7-1.8,0.7s0.4-1.5,0.7-1.8c0.3-0.3,1.1-0.6,1.4-0.3
							C34.7,21.5,34.4,22.2,34.1,22.5z"/>
					</g>
					<g>
						<path fill="#F3F3F3" d="M38.9,26c-0.3,0.3-1.8,0.7-1.8,0.7s0.4-1.5,0.7-1.8c0.3-0.3,1.1-0.6,1.4-0.3
							C39.5,24.9,39.2,25.7,38.9,26z"/>
					</g>
				</g>
				<g>
					<g>
						<path fill="#F3F3F3" d="M15.2,11.5c-0.3,0.3-1.7,0.7-1.7,0.7s0.4-1.4,0.7-1.7c0.3-0.3,1-0.5,1.3-0.3
							C15.7,10.5,15.5,11.2,15.2,11.5z"/>
					</g>
					<g>
						<path fill="#F3F3F3" d="M18.2,16c-0.3,0.3-1.7,0.7-1.7,0.7s0.4-1.4,0.7-1.7s1-0.5,1.3-0.3C18.8,15,18.5,15.7,18.2,16z"/>
					</g>
					<g>
						<path fill="#F3F3F3" d="M21.5,20.3c-0.3,0.3-1.7,0.7-1.7,0.7s0.4-1.4,0.7-1.7c0.3-0.3,1-0.5,1.3-0.3
							C22,19.4,21.8,20.1,21.5,20.3z"/>
					</g>
					<g>
						<path fill="#F3F3F3" d="M25.2,24.2c-0.3,0.3-1.7,0.7-1.7,0.7s0.4-1.4,0.7-1.7s1-0.5,1.3-0.3C25.7,23.2,25.4,23.9,25.2,24.2z"
							/>
					</g>
					<g>
						<path fill="#F3F3F3" d="M29.1,27.8c-0.3,0.3-1.7,0.7-1.7,0.7s0.4-1.4,0.7-1.7c0.3-0.3,1-0.5,1.3-0.3
							C29.6,26.9,29.4,27.6,29.1,27.8z"/>
					</g>
					<g>
						<path fill="#F3F3F3" d="M33.5,31c-0.3,0.3-1.7,0.7-1.7,0.7s0.4-1.4,0.7-1.7s1-0.5,1.3-0.3C34,30.1,33.8,30.8,33.5,31z"/>
					</g>
					<g>
						<path fill="#F3F3F3" d="M38.1,34c-0.3,0.3-1.7,0.7-1.7,0.7s0.4-1.4,0.7-1.7c0.3-0.3,1-0.5,1.3-0.3
							C38.6,33.1,38.4,33.8,38.1,34z"/>
					</g>
				</g>
				<g>
					<g>
						<path fill="#F3F3F3" d="M10.4,14.1c-0.3,0.3-1.8,0.7-1.8,0.7s0.4-1.5,0.7-1.8c0.3-0.3,1.1-0.6,1.4-0.3
							C11,13.1,10.7,13.8,10.4,14.1z"/>
					</g>
					<g>
						<path fill="#F3F3F3" d="M10.8,18.7c-0.3,0.3-1.8,0.7-1.8,0.7s0.4-1.5,0.7-1.8c0.3-0.3,1.1-0.6,1.4-0.3
							C11.3,17.6,11.1,18.4,10.8,18.7z"/>
					</g>
					<g>
						<path fill="#F3F3F3" d="M14.3,23.3c-0.3,0.3-1.8,0.7-1.8,0.7s0.4-1.5,0.7-1.8c0.3-0.3,1.1-0.6,1.4-0.3
							C14.8,22.3,14.6,23,14.3,23.3z"/>
					</g>
					<g>
						<path fill="#F3F3F3" d="M18.3,27.6c-0.3,0.3-1.8,0.7-1.8,0.7s0.4-1.5,0.7-1.8c0.3-0.3,1.1-0.6,1.4-0.3S18.6,27.3,18.3,27.6z"
							/>
					</g>
					<g>
						<path fill="#F3F3F3" d="M22.5,31.5c-0.3,0.3-1.8,0.7-1.8,0.7s0.4-1.5,0.7-1.8c0.3-0.3,1.1-0.6,1.4-0.3
							C23.1,30.4,22.8,31.2,22.5,31.5z"/>
					</g>
					<g>
						<path fill="#F3F3F3" d="M27.1,36.2c-0.3,0.3-1.8,0.7-1.8,0.7s0.4-1.5,0.7-1.8c0.3-0.3,1.1-0.6,1.4-0.3
							C27.7,35.2,27.4,35.9,27.1,36.2z"/>
					</g>
					<g>
						<path fill="#F3F3F3" d="M31.8,39.3c-0.3,0.3-1.8,0.7-1.8,0.7s0.4-1.5,0.7-1.8s1.1-0.6,1.4-0.3C32.4,38.2,32.1,39,31.8,39.3z"
							/>
					</g>
				</g>
				<g>
					<g>
						<path fill="#F3F3F3" d="M4.8,23.6c-0.3,0.3-1.7,0.7-1.7,0.7s0.4-1.4,0.7-1.7C4,22.3,4.8,22,5,22.3C5.3,22.6,5.1,23.3,4.8,23.6
							z"/>
					</g>
					<g>
						<path fill="#F3F3F3" d="M8,27.9c-0.3,0.3-1.7,0.7-1.7,0.7s0.4-1.4,0.7-1.7c0.3-0.3,1-0.5,1.3-0.3C8.6,26.9,8.3,27.6,8,27.9z"
							/>
					</g>
					<g>
						<path fill="#F3F3F3" d="M11.7,31.8c-0.3,0.3-1.7,0.7-1.7,0.7s0.4-1.4,0.7-1.7c0.3-0.3,1-0.5,1.3-0.3
							C12.3,30.8,12,31.5,11.7,31.8z"/>
					</g>
					<g>
						<path fill="#F3F3F3" d="M15.7,35.4c-0.3,0.3-1.7,0.7-1.7,0.7s0.4-1.4,0.7-1.7c0.3-0.3,1-0.5,1.3-0.3
							C16.2,34.4,15.9,35.1,15.7,35.4z"/>
					</g>
					<g>
						<path fill="#F3F3F3" d="M20,38.6c-0.3,0.3-1.7,0.7-1.7,0.7s0.4-1.4,0.7-1.7c0.3-0.3,1-0.5,1.3-0.3
							C20.6,37.6,20.3,38.3,20,38.6z"/>
					</g>
					<g>
						<path fill="#F3F3F3" d="M24.6,41.6c-0.3,0.3-1.7,0.7-1.7,0.7s0.4-1.4,0.7-1.7c0.3-0.3,1-0.5,1.3-0.3
							C25.2,40.6,24.9,41.3,24.6,41.6z"/>
					</g>
				</g>
				<g>
					<g>
						<path fill="#F3F3F3" d="M4.6,33.3c-0.3,0.3-1.7,0.7-1.7,0.7s0.4-1.4,0.7-1.7c0.3-0.3,1-0.5,1.3-0.3C5.1,32.3,4.9,33,4.6,33.3z
							"/>
					</g>
					<g>
						<path fill="#F3F3F3" d="M7.9,37.6c-0.3,0.3-1.7,0.7-1.7,0.7s0.4-1.4,0.7-1.7c0.3-0.3,1-0.5,1.3-0.3
							C8.4,36.6,8.1,37.3,7.9,37.6z"/>
					</g>
					<g>
						<path fill="#F3F3F3" d="M11.5,41.5c-0.3,0.3-1.7,0.7-1.7,0.7s0.4-1.4,0.7-1.7s1-0.5,1.3-0.3C12.1,40.5,11.8,41.2,11.5,41.5z"
							/>
					</g>
					<g>
						<path fill="#F3F3F3" d="M15.5,45.1c-0.3,0.3-1.7,0.7-1.7,0.7s0.4-1.4,0.7-1.7c0.3-0.3,1-0.5,1.3-0.3
							C16,44.1,15.8,44.8,15.5,45.1z"/>
					</g>
					<g>
						<path fill="#F3F3F3" d="M5.8,42.2c-0.3,0.3-1.7,0.7-1.7,0.7s0.4-1.4,0.7-1.7c0.3-0.3,1-0.5,1.3-0.3C6.4,41.3,6.1,42,5.8,42.2z
							"/>
					</g>
				</g>
			</g>
			<g>
				<path fill="#66C6B9" d="M40.4,12.4c0.7,0.8,1.2,1.8,1.6,2.8c0.6,1.4,1.5,2.6,2.8,3.5c0.6,0.5,1.4,0.9,1.9,1.5
					c0.7,0.9,0.8,2.1,1,3.2c0.1,1.6,0.3,3.1,0.4,4.7c-1.7-2.5-4.8-4-6.1-6.8c0.5,2.4-0.5,5-2.5,6.4c-0.7,0.5-1.4,1-2.2,1.4
					c1.1-0.8,1.7-2.1,1.7-3.4c0-0.8-0.4-1.6-0.6-2.4c-0.7-2.2-1.1-4.4-1.1-6.7c-0.9,1.4-1.9,2.9-3.5,3.6c-0.7,0.3-1.6,0.4-2.4,0.6
					c-1.1,0.3-2.2,0.7-3.2,1.3c0.3-0.3,0.3-0.7,0.3-1.2c0-0.4,0-0.9,0-1.3c0-1.3,0.5-2.6,1.1-3.8c0.6-1.2,1.4-2.3,2.3-3.3
					c-1.1-0.4-2.1-0.7-3.3-0.9c-2.9-0.6-6,0-8.9,0.7c1.2-1,2.2-2.2,3.4-3.3c1.2-1,2.6-1.9,4.2-1.9c-0.8-0.2-1.7-0.4-2.5-0.5
					c-0.9-0.1-1.9-0.1-2.8-0.4c-1.7-0.5-3-1.9-3.4-3.6c3.2,1.2,7,0.4,10.1,1.6C28.2,2.6,29,0.8,30.5,0c0.4,0.8,0.8,1.7,1.2,2.6
					c0.3,0.7,0.5,1.5,0.6,2.3c0,0.3,0,0.6,0.1,0.9c0.1,0.2,0.3,0.4,0.5,0.6c0.5,0.5,1.1,0.8,1.7,1.2c1.3,0.7,2.6,1.6,3.7,2.6
					C39,10.9,39.7,11.6,40.4,12.4z"/>
			</g>
		</g>
		<g>
			<path fill="#66C6B9" d="M47.3,5.1l-0.1,1.6c-4-0.7-7.4,1.8-9.6,6l-1.5-1.5C39.2,6.5,43,4,47.3,5.1z"/>
		</g>
	</g>
</g>
</svg>
