<?xml version="1.0" encoding="utf-8"?>
<!-- Generator: Adobe Illustrator 18.0.0, SVG Export Plug-In . SVG Version: 6.00 Build 0)  -->
<!DOCTYPE svg PUBLIC "-//W3C//DTD SVG 1.1//EN" "http://www.w3.org/Graphics/SVG/1.1/DTD/svg11.dtd">
<svg version="1.1" id="Layer_1" xmlns="http://www.w3.org/2000/svg" xmlns:xlink="http://www.w3.org/1999/xlink" x="0px" y="0px"
	 viewBox="0 0 48 48" enable-background="new 0 0 48 48" xml:space="preserve">
<g>
	<g>
		<g>
			<g>
				<path fill="#415A6B" d="M20.2,0.7C19.4,3.3,24,11.1,24,11.1s4.6-7.8,3.8-10.4C25.3-0.3,22.7-0.3,20.2,0.7z"/>
			</g>
			<g>
				<g>
					<g>
						<g>
							<path fill="#E8EAE9" d="M34.9,19.4c0,0-1.6,18.7,2.6,25.2c0,0-7.4,3.4-13.4,3.4c-6,0-13.4-3.4-13.4-3.4
								c4.1-6.5,2.5-25.2,2.5-25.2L12.4,24c-4.6,0.4-7.8-3.4-7.8-3.4l1.7-8.1c0.5-2.6,2.3-4.7,4.7-5.7l7.2-3L24,6.7l5.7-2.9l7.2,3
								c2.4,1,4.2,3.1,4.7,5.7l1.7,8.1c0,0-3.2,3.9-7.8,3.4L34.9,19.4z"/>
						</g>
						<g>
							<path fill="#CED6E0" d="M4.6,20.6c0,0,3.2,3.9,7.8,3.4l0.7-4.6c0,0-0.5-7.6-3.9-11.6c-1.5,1.1-2.5,2.8-2.9,4.7L4.6,20.6z"/>
						</g>
					</g>
				</g>
				<path fill="#ADB3BA" d="M22.9,48c0.4,0,0.7,0,1.1,0c0.4,0,0.7,0,1.1,0V6.7h-2.2V48z"/>
				<g>
					<g>
						<path fill="#CED6E0" d="M27.8,0.7c0.3,0.2,1.3,2.2,2.2,3.7l-3.6,5.9L24,6.7C24,6.7,28.6,3.3,27.8,0.7z"/>
					</g>
					<g>
						<path fill="#CED6E0" d="M20.2,0.7c-0.3,0.2-1.3,2.2-2.2,3.7l3.6,5.9L24,6.7C24,6.7,19.4,3.3,20.2,0.7z"/>
					</g>
				</g>
				<circle fill="#415A6B" cx="24" cy="12.8" r="0.6"/>
				<circle fill="#415A6B" cx="24" cy="22.2" r="0.6"/>
				<circle fill="#415A6B" cx="24" cy="31.6" r="0.6"/>
				<circle fill="#415A6B" cx="24" cy="41" r="0.6"/>
			</g>
		</g>
		<g>
			<g>
				<path fill="#CED6E0" d="M43.4,20.6c0,0-3.2,3.9-7.8,3.4l-0.7-4.6c0,0,0.5-7.6,3.9-11.6c1.5,1.1,2.5,2.8,2.9,4.7L43.4,20.6z"/>
			</g>
		</g>
	</g>
</g>
</svg>
