<?xml version="1.0" encoding="utf-8"?>
<!-- Generator: Adobe Illustrator 18.0.0, SVG Export Plug-In . SVG Version: 6.00 Build 0)  -->
<!DOCTYPE svg PUBLIC "-//W3C//DTD SVG 1.1//EN" "http://www.w3.org/Graphics/SVG/1.1/DTD/svg11.dtd">
<svg version="1.1" id="Layer_1" xmlns="http://www.w3.org/2000/svg" xmlns:xlink="http://www.w3.org/1999/xlink" x="0px" y="0px"
	 viewBox="0 0 48 48" enable-background="new 0 0 48 48" xml:space="preserve">
<g>
	<path fill="#F8B64C" d="M5.7,18.4l0.2-1.5H3.1l0.2,1.7c0.2,1.7-0.3,3.4-1,5C2,24,2,24.6,2.1,25.2C2.3,26,3,26.7,3.8,26.9
		c1.6,0.4,3.1-0.8,3.1-2.4c0-0.4-0.1-0.7-0.2-1C6,21.9,5.5,20.1,5.7,18.4z"/>
	<path fill="#F8B64C" d="M9.6,22.9l0.1-1.2H7.5L7.7,23c0.2,1.4-0.2,2.8-0.8,4c-0.2,0.4-0.2,0.9-0.1,1.4c0.2,0.7,0.7,1.2,1.4,1.4
		c1.3,0.3,2.5-0.6,2.5-1.9c0-0.3-0.1-0.6-0.2-0.8C9.9,25.8,9.5,24.4,9.6,22.9z"/>
	<g>
		<path fill="#FFD15C" d="M0.6,15.1l27,27.9C39,32.3,43.3,17.1,39.2,2L1.6,11.6C0.1,12-0.5,13.9,0.6,15.1z"/>
		<path fill="#FFD15C" d="M31.1,46.7L27.6,43C39,32.3,43.3,17.1,39.2,2l4.9-1.3c1.1-0.3,2.3,0.4,2.6,1.6
			c3.7,16.2-0.9,32.5-12.6,44.4C33.3,47.5,32,47.6,31.1,46.7z"/>
		<path opacity="0.1" fill="#231F20" d="M27.6,43l-1.1-1.1l0,0c5.4-5.1,9.3-11.3,11.2-18.2c1.9-6.8,1.9-14.2,0-21.3l0,0L39.2,2
			C43.3,17.1,39,32.3,27.6,43z"/>
		<circle fill="#FF7058" cx="12" cy="14.3" r="2.6"/>
		<circle fill="#FF7058" cx="18.6" cy="26.9" r="2.6"/>
		<circle fill="#FF7058" cx="28.9" cy="9.6" r="2.6"/>
		<circle fill="#FF7058" cx="32.4" cy="25.8" r="2.6"/>
		<g>
			<path fill="#F2F2F2" d="M17.4,13.7c0.1-0.4,0.5-0.7,1-0.5c2.8,0.8,4.4,3.7,3.6,6.4c-0.1,0.4-0.5,0.7-1,0.5
				c-0.4-0.1-0.7-0.5-0.5-1c0.5-1.9-0.6-4-2.5-4.5C17.5,14.6,17.3,14.1,17.4,13.7z"/>
		</g>
		<g>
			<path fill="#F2F2F2" d="M22.2,32.9c-0.4-0.1-0.7-0.5-0.5-1c0.8-2.8,3.7-4.4,6.4-3.6c0.4,0.1,0.7,0.5,0.5,1
				c-0.1,0.4-0.5,0.7-1,0.5c-1.9-0.5-4,0.6-4.5,2.5C23,32.7,22.6,33,22.2,32.9z"/>
		</g>
		<g>
			<path fill="#F2F2F2" d="M36.4,13.7c0.4,0.1,0.7,0.5,0.5,1c-0.8,2.8-3.7,4.4-6.4,3.6c-0.4-0.1-0.7-0.5-0.5-1
				c0.1-0.4,0.5-0.7,1-0.5c1.9,0.5,4-0.6,4.5-2.5C35.6,13.8,36,13.6,36.4,13.7z"/>
		</g>
	</g>
</g>
</svg>
