<?xml version="1.0" encoding="utf-8"?>
<!-- Generator: Adobe Illustrator 18.0.0, SVG Export Plug-In . SVG Version: 6.00 Build 0)  -->
<!DOCTYPE svg PUBLIC "-//W3C//DTD SVG 1.1//EN" "http://www.w3.org/Graphics/SVG/1.1/DTD/svg11.dtd">
<svg version="1.1" id="Layer_1" xmlns="http://www.w3.org/2000/svg" xmlns:xlink="http://www.w3.org/1999/xlink" x="0px" y="0px"
	 viewBox="0 0 512 512" enable-background="new 0 0 512 512" xml:space="preserve">
<g>
	<circle fill="#F8B64C" cx="235.1" cy="235" r="233"/>
	<circle fill="#FFD15C" cx="235.1" cy="235" r="199"/>
	<circle fill="#F8B64C" cx="235.1" cy="235" r="160.8"/>
	<path fill="#FFD15C" d="M225.9,296.7V242c-17-4.9-29.6-12.2-37.5-22.1s-11.9-21.9-11.9-35.9c0-14.3,4.5-26.2,13.5-35.9
		s21-15.3,35.9-16.8v-12.9h18.9v12.9c13.8,1.7,24.8,6.4,33,14.2c8.2,7.8,13.4,18.2,15.7,31.2l-33,4.3c-2-10.3-7.2-17.2-15.7-20.9v51
		c20.9,5.7,35.1,13,42.7,22c7.6,9,11.4,20.6,11.4,34.6c0,15.7-4.8,29-14.3,39.8c-9.5,10.8-22.8,17.4-39.7,19.8v24.4h-18.9V328
		c-15-1.8-27.3-7.4-36.7-16.8c-9.4-9.4-15.4-22.7-18-39.8l34.1-3.7c1.4,7,4,13,7.8,18S221.2,294.4,225.9,296.7z M225.9,159.7
		c-5.1,1.7-9.2,4.7-12.3,8.9c-3,4.2-4.6,8.8-4.6,13.8c0,4.6,1.4,8.9,4.2,12.9c2.8,4,7,7.2,12.7,9.6V159.7z M244.9,298.5
		c6.5-1.2,11.8-4.2,15.9-9.1c4.1-4.8,6.1-10.5,6.1-17c0-5.8-1.7-10.9-5.2-15.1c-3.4-4.2-9.1-7.5-16.9-9.7V298.5z"/>
	<polygon fill="#40596B" points="453.3,392.7 493.1,352.9 313.4,313.4 352.8,493.1 392.6,453.3 449.3,510 509.9,449.3 	"/>
</g>
</svg>
