<?xml version="1.0" encoding="utf-8"?>
<!-- Generator: Adobe Illustrator 18.0.0, SVG Export Plug-In . SVG Version: 6.00 Build 0)  -->
<!DOCTYPE svg PUBLIC "-//W3C//DTD SVG 1.1//EN" "http://www.w3.org/Graphics/SVG/1.1/DTD/svg11.dtd">
<svg version="1.1" id="Layer_1" xmlns="http://www.w3.org/2000/svg" xmlns:xlink="http://www.w3.org/1999/xlink" x="0px" y="0px"
	 viewBox="0 0 48 48" enable-background="new 0 0 48 48" xml:space="preserve">
<g>
	<g>
		<g>
			<g>
				<g>
					<g>
						<path fill="#344A5E" d="M21.1,8.9L21.1,8.9c3-0.6,5.9-2,8.2-4l3-2.5l3.5,1L25.4,14L21.1,8.9z"/>
					</g>
					<g>
						<path fill="#344A5E" d="M39.1,26.9L39.1,26.9c0.6-3,2-5.9,4-8.2l2.5-3l-1-3.5L34,22.6L39.1,26.9z"/>
					</g>
				</g>
				<g>
					<path fill="#66C6B9" d="M32.8,8.8l6.4,6.4c0.6,0.6,1.6,0.6,2.2,0L48,8.6L39.4,0l-6.6,6.6C32.2,7.2,32.2,8.2,32.8,8.8z"/>
				</g>
			</g>
			<g>
				<g>
					<g>
						<path fill="#344A5E" d="M26.9,39.1L26.9,39.1c-3,0.6-5.9,2-8.2,4l-3,2.5l-3.5-1L22.6,34L26.9,39.1z"/>
					</g>
					<g>
						<path fill="#344A5E" d="M8.9,21.1L8.9,21.1c-0.6,3-2,5.9-4,8.2l-2.5,3l1,3.5L14,25.4L8.9,21.1z"/>
					</g>
				</g>
				<g>
					<path fill="#66C6B9" d="M15.2,39.2l-6.4-6.4c-0.6-0.6-1.6-0.6-2.2,0L0,39.4L8.6,48l6.6-6.6C15.8,40.8,15.8,39.8,15.2,39.2z"/>
				</g>
			</g>
		</g>
		<g>
			<g>
				<circle fill="#415A6B" cx="24" cy="24" r="15.6"/>
			</g>
			<g>
				<circle fill="#FFFFFF" cx="24" cy="24" r="12.9"/>
			</g>
			<g>
				<circle fill="#E8EAE9" cx="31.6" cy="16.4" r="0.8"/>
			</g>
			<g>
				<circle fill="#E8EAE9" cx="24" cy="13.3" r="0.8"/>
			</g>
			<g>
				<circle fill="#E8EAE9" cx="16.4" cy="16.4" r="0.8"/>
			</g>
			<g>
				<circle fill="#E8EAE9" cx="13.3" cy="24" r="0.8"/>
			</g>
			<g>
				<circle fill="#E8EAE9" cx="16.4" cy="31.6" r="0.8"/>
			</g>
			<g>
				<circle fill="#E8EAE9" cx="24" cy="34.7" r="0.8"/>
			</g>
			<g>
				<circle fill="#E8EAE9" cx="31.6" cy="31.6" r="0.8"/>
			</g>
			<g>
				<circle fill="#E8EAE9" cx="34.7" cy="24" r="0.8"/>
			</g>
			<g>
				<g>
					<polygon fill="#FFD15C" points="26.7,22.9 24,24 25.1,21.3 30.3,17.7 					"/>
				</g>
				<g>
					<polygon fill="#F3705A" points="23.2,26.2 24,24 24.8,26.2 24,30.2 					"/>
				</g>
				<g>
					<polygon fill="#CED6E0" points="15.3,24.1 15.3,23.9 27.7,23.6 27.7,24.4 					"/>
				</g>
				<g>
					<g>
						<circle fill="#344A5E" cx="24" cy="24" r="1.3"/>
					</g>
					<g>
						<circle fill="#415A6B" cx="24" cy="24" r="0.6"/>
					</g>
				</g>
			</g>
		</g>
	</g>
</g>
</svg>
