<?xml version="1.0" encoding="utf-8"?>
<!-- Generator: Adobe Illustrator 18.0.0, SVG Export Plug-In . SVG Version: 6.00 Build 0)  -->
<!DOCTYPE svg PUBLIC "-//W3C//DTD SVG 1.1//EN" "http://www.w3.org/Graphics/SVG/1.1/DTD/svg11.dtd">
<svg version="1.1" id="Layer_1" xmlns="http://www.w3.org/2000/svg" xmlns:xlink="http://www.w3.org/1999/xlink" x="0px" y="0px"
	 viewBox="0 0 48 48" enable-background="new 0 0 48 48" xml:space="preserve">
<g>
	<g>
		<rect x="14.2" y="0" fill="#F3F3F3" width="32.2" height="48"/>
		<path fill="#55C0EB" d="M9.8,0c-2.2,0-4,1.8-4,4v40c0,2.2,1.8,4,4,4h4.4V0H9.8z"/>
		<g>
			<path fill="#415A6B" d="M3.8,12.6h3.9c1.2,0,2.3-1,2.3-2.3c0-1.2-1-2.3-2.3-2.3H3.8c-1.2,0-2.3,1-2.3,2.3
				C1.6,11.6,2.6,12.6,3.8,12.6z"/>
			<path fill="#415A6B" d="M7.7,35.4H3.8c-1.2,0-2.3,1-2.3,2.3c0,1.2,1,2.3,2.3,2.3h3.9c1.2,0,2.3-1,2.3-2.3
				C10,36.4,9,35.4,7.7,35.4z"/>
		</g>
		<g>
			<path fill="#F3705A" d="M41.6,23.1l-10-10c-0.7-0.7-1.8-0.7-2.5,0l-10,10c-0.7,0.7-0.7,1.8,0,2.5c0.7,0.7,1.8,0.7,2.5,0l8.7-8.7
				l8.7,8.7c0.7,0.7,1.8,0.7,2.5,0C42.3,25,42.3,23.8,41.6,23.1z"/>
			<polygon fill="#FFD15C" points="30.3,17 21.6,25.7 21.6,35.4 39,35.4 39,25.7 			"/>
			<rect x="27.4" y="28.6" fill="#415A6B" width="5.8" height="6.7"/>
		</g>
	</g>
</g>
</svg>
