<?xml version="1.0" encoding="utf-8"?>
<!-- Generator: Adobe Illustrator 18.0.0, SVG Export Plug-In . SVG Version: 6.00 Build 0)  -->
<!DOCTYPE svg PUBLIC "-//W3C//DTD SVG 1.1//EN" "http://www.w3.org/Graphics/SVG/1.1/DTD/svg11.dtd">
<svg version="1.1" id="Layer_1" xmlns="http://www.w3.org/2000/svg" xmlns:xlink="http://www.w3.org/1999/xlink" x="0px" y="0px"
	 viewBox="0 0 48 48" enable-background="new 0 0 48 48" xml:space="preserve">
<g>
	<g>
		<path fill="#4ABAA5" d="M26.7,48c2.3-15.8,6.7-20.2,6.7-20.2c-4.3,2.7-8.3,11.1-10.7,20.2H26.7z"/>
		<g>
			<g>
				<path fill="#4ABAA5" d="M22.4,48c0-9-2.1-18.1-2.1-18.1s3.4,10.2,3.4,18.1H22.4z"/>
			</g>
			<g>
				<g>
					<g>
						<g>
							<path fill="#E8EAE9" d="M24.7,12.9c-0.1-6.2,2.6-10.7,4.6-12.6c2.4-1.3-0.5,1.7,3,8.3c3.7,8.2,4.2,11.5-0.4,12.5
								C27.8,23.5,24.6,19.2,24.7,12.9z"/>
						</g>
						<g>
							<path fill="#E8EAE9" d="M35.1,18.1c0.1,0.2-0.5,4.8-11.1,9.4c-10.6-4.5-11.3-9.5-11.2-9.6c1-0.8,1.9-1.5,2.8-2.1
								c3.1-1,5.7-0.9,8.4-0.5c2.6-0.4,5.3-0.5,8.4,0.5C33.3,16.3,34.1,17.3,35.1,18.1z"/>
						</g>
						<g>
							<path fill="#E8EAE9" d="M15.7,8.6c3.5-6.6,0.6-9.6,3-8.3c2,1.9,4.7,6.4,4.6,12.6c0.1,6.3-3.1,10.6-7.1,8.2
								C11.6,20.1,12,16.8,15.7,8.6z"/>
						</g>
					</g>
					<g>
						<path fill="#F3F3F3" d="M16.8,12.4c3.1-7,6-12.1,7.2-12.4c1.2,0.3,4.1,5.4,7.2,12.4c2.9,6.1,0.3,12.1-7.2,15
							C16.5,24.5,13.9,18.5,16.8,12.4z"/>
					</g>
				</g>
				<g>
					<path fill="#66C6B9" d="M13.1,19.4c0,0.8,1.8,6.3,10.9,8.1c9.1-1.8,10.3-7.4,10.9-8.1c-2.8,0.9-4,2.1-7.3,3.3
						c-2.4-3.5-3.4-7.1-3.6-10.7c-1.5,3.9-2.4,7.4-2.9,10.8C18.1,21.9,16.6,20,13.1,19.4z"/>
				</g>
			</g>
			<g>
				<rect x="22.9" y="24.8" fill="#66C6B9" width="2.2" height="23.2"/>
			</g>
			<g>
				<path fill="#66C6B9" d="M21,48c-1.9-13-5.5-16.6-5.5-16.6c3.5,2.2,6.8,9.2,8.8,16.6H21z"/>
			</g>
		</g>
	</g>
</g>
</svg>
