<?xml version="1.0" encoding="utf-8"?>
<!-- Generator: Adobe Illustrator 16.0.0, SVG Export Plug-In . SVG Version: 6.00 Build 0)  -->
<!DOCTYPE svg PUBLIC "-//W3C//DTD SVG 1.1//EN" "http://www.w3.org/Graphics/SVG/1.1/DTD/svg11.dtd">
<svg version="1.1" id="Layer_1" xmlns="http://www.w3.org/2000/svg" xmlns:xlink="http://www.w3.org/1999/xlink" x="0px" y="0px"
	 width="48px" height="48px" viewBox="0 0 48 48" enable-background="new 0 0 48 48" xml:space="preserve">
<g>
	<path fill="#40596B" d="M29.324,0H4C1.791,0,0,1.791,0,4v40c0,2.209,1.791,4,4,4h25.324c2.209,0,4-1.791,4-4V4
		C33.324,1.791,31.533,0,29.324,0"/>
	<rect x="4" y="4" fill="#FFFFFF" width="25.324" height="33.277"/>
	<path fill="#334A5E" d="M18.91,42.787c0,1.242-1.006,2.248-2.248,2.248s-2.25-1.006-2.25-2.248s1.008-2.25,2.25-2.25
		S18.91,41.545,18.91,42.787"/>
	<path fill="#84DBFF" d="M16.814,18.971H7.289V9.447h9.525V18.971z M8.789,17.471h6.525v-6.523H8.789V17.471z"/>
	<polygon fill="#FF7058" points="12.533,16.479 9.238,13.184 10.299,12.125 12.533,14.357 18.721,8.168 19.783,9.229 	"/>
	<path fill="#84DBFF" d="M16.814,33.109H7.289v-9.525h9.525V33.109z M8.789,31.609h6.525v-6.525H8.789V31.609z"/>
	<polygon fill="#FF7058" points="12.533,30.615 9.238,27.32 10.299,26.262 12.533,28.494 18.721,22.305 19.783,23.365 	"/>
	<path fill="#FFD15C" d="M46.205,13.221H27.256c-0.992,0-1.795,0.805-1.795,1.797v17.939c0,0.992,0.803,1.797,1.795,1.797h18.949
		c0.99,0,1.795-0.805,1.795-1.797V15.018C48,14.025,47.195,13.221,46.205,13.221"/>
	<rect x="34.182" y="13.221" fill="#F8B64C" width="5.096" height="5.709"/>
</g>
</svg>
