<?xml version="1.0" encoding="utf-8"?>
<!-- Generator: Adobe Illustrator 20.1.0, SVG Export Plug-In . SVG Version: 6.00 Build 0)  -->
<!DOCTYPE svg PUBLIC "-//W3C//DTD SVG 1.1//EN" "http://www.w3.org/Graphics/SVG/1.1/DTD/svg11.dtd">
<svg version="1.1" id="Layer_1" xmlns="http://www.w3.org/2000/svg" xmlns:xlink="http://www.w3.org/1999/xlink" x="0px" y="0px"
	 viewBox="0 0 49 49" enable-background="new 0 0 49 49" xml:space="preserve">
<g>
	<path fill="#FFD15C" d="M43.6,29.2L41.1,43c-0.7,2.3-2.2,4.2-4.2,5.5H12.1c-2-1.3-3.5-3.2-4.2-5.5L5.4,29.2H43.6z"/>
	<path fill="#FF7058" d="M5.2,29.2h38.2C47.8,23.3,44,17,44,17C40.7,6.8,29,0.9,29,0.9c-0.1,0-0.1-0.1-0.2-0.1
		c-0.4-0.3-0.8-0.3-1.2-0.2c0,0-0.1,0-0.1,0.1c-0.1,0.1-0.2,0.1-0.3,0.2c0,0-0.1,0-0.1,0.1c-0.3,0.3-0.5,0.8-0.3,1.3
		c0.6,2.8-2,7.7-9.8,9.8c-9.4,2.5-11.6,7.6-11.6,7.6C2.4,24.5,3.4,27.4,5.2,29.2z"/>
	<path fill="#F2F2F2" d="M17.9,29.2c-1.3-2.3-1.2-5.6,4.6-9.5c0,0,17.3-8.5,4.7-18.8c0,0-0.1,0-0.1,0.1c1.6,1.9,6.2,9-8.3,13.9
		C7.8,18.6,7.1,25.1,8,29.2H17.9z"/>
	<path fill="#F2F2F2" d="M32.4,29.2c-0.7-1.4-0.5-3.3,1.3-6c0,0,13.6-12.6-6.1-22.6c0,0-0.1,0-0.1,0.1c2.6,1.9,11.9,9.5,2.2,16.9
		c-7.6,5.8-7.8,9.7-7.2,11.7H32.4z"/>
</g>
</svg>
