<?xml version="1.0" encoding="utf-8"?>
<!-- Generator: Adobe Illustrator 18.0.0, SVG Export Plug-In . SVG Version: 6.00 Build 0)  -->
<!DOCTYPE svg PUBLIC "-//W3C//DTD SVG 1.1//EN" "http://www.w3.org/Graphics/SVG/1.1/DTD/svg11.dtd">
<svg version="1.1" id="Layer_1" xmlns="http://www.w3.org/2000/svg" xmlns:xlink="http://www.w3.org/1999/xlink" x="0px" y="0px"
	 viewBox="0 0 48 48" enable-background="new 0 0 48 48" xml:space="preserve">
<g>
	<g>
		<path fill="#4CDBC4" d="M46.5,16.3v15.8c0,1.3-1,2.3-2.3,2.3H9.3c-1.3,0-2.3-1-2.3-2.3V16.3c0-1.3,1-2.3,2.3-2.3h34.8
			C45.4,14,46.5,15.1,46.5,16.3z"/>
		<path fill="#F2F2F2" d="M9.3,28.2v-7.9c2.2,0,4-1.8,4-4h27c0,2.2,1.8,4,4,4v7.9c-2.2,0-4,1.8-4,4h-27C13.3,30,11.5,28.2,9.3,28.2z
			"/>
		<g>
			<circle fill="#4CDBC4" cx="17.3" cy="24.2" r="1.3"/>
			<circle fill="#4CDBC4" cx="36.2" cy="24.2" r="1.3"/>
		</g>
		<g>
			<path fill="#4CDBC4" d="M31.8,24.2c0,3.5-2.2,6.3-5,6.3c-0.4,0-0.7-0.1-1.1-0.1c-2.2-0.6-3.9-3.2-3.9-6.2c0-0.1,0-0.3,0-0.4
				c0.2-3.3,2.3-5.9,5-5.9C29.5,17.9,31.8,20.7,31.8,24.2z"/>
			<path fill="#FFFFFF" d="M26.4,26.7v-2.2c-0.7-0.2-1.2-0.5-1.5-0.9c-0.3-0.4-0.5-0.9-0.5-1.5c0-0.6,0.2-1.1,0.5-1.5
				c0.4-0.4,0.9-0.6,1.5-0.7v-0.5h0.8V20c0.6,0.1,1,0.3,1.3,0.6c0.3,0.3,0.5,0.7,0.6,1.3L27.8,22c-0.1-0.4-0.3-0.7-0.6-0.9v2.1
				c0.9,0.2,1.4,0.5,1.7,0.9c0.3,0.4,0.5,0.8,0.5,1.4c0,0.6-0.2,1.2-0.6,1.6c-0.4,0.4-0.9,0.7-1.6,0.8v1h-0.8v-1
				c-0.6-0.1-1.1-0.3-1.5-0.7c-0.4-0.4-0.6-0.9-0.7-1.6l1.4-0.1c0.1,0.3,0.2,0.5,0.3,0.7C26,26.5,26.2,26.6,26.4,26.7z M26.4,21.2
				c-0.2,0.1-0.4,0.2-0.5,0.4c-0.1,0.2-0.2,0.4-0.2,0.6c0,0.2,0.1,0.4,0.2,0.5c0.1,0.2,0.3,0.3,0.5,0.4V21.2z M27.1,26.8
				c0.3,0,0.5-0.2,0.6-0.4C28,26.2,28,26,28,25.7c0-0.2-0.1-0.4-0.2-0.6c-0.1-0.2-0.4-0.3-0.7-0.4V26.8z"/>
		</g>
	</g>
	<g>
		<path fill="#4CDBC4" d="M42,8.3l3.7,15.3c0.3,1.2-0.5,2.5-1.7,2.8l-33.8,8.2c-1.2,0.3-2.5-0.5-2.8-1.7L3.7,17.6
			c-0.3-1.2,0.5-2.5,1.7-2.8l33.8-8.2C40.5,6.3,41.7,7.1,42,8.3z"/>
		<path fill="#F2F2F2" d="M8.7,28.5l-1.9-7.7c2.1-0.5,3.5-2.7,2.9-4.8l26.2-6.4c0.5,2.1,2.7,3.5,4.8,2.9l1.9,7.7
			c-2.1,0.5-3.5,2.7-2.9,4.8l-26.2,6.4C13,29.3,10.8,28,8.7,28.5z"/>
		<g>
			<circle fill="#4CDBC4" cx="15.6" cy="22.8" r="1.3"/>
			<circle fill="#4CDBC4" cx="33.9" cy="18.4" r="1.3"/>
		</g>
		<g>
			<path fill="#4CDBC4" d="M29.6,19.4c0.8,3.4-0.7,6.7-3.4,7.3c-0.4,0.1-0.7,0.1-1.1,0.1c-2.3-0.1-4.6-2.1-5.3-5.1
				c0-0.1-0.1-0.3-0.1-0.4c-0.6-3.3,0.9-6.3,3.5-7C25.9,13.8,28.8,16,29.6,19.4z"/>
			<path fill="#FFFFFF" d="M25,23.1l-0.5-2.2c-0.7,0-1.3-0.2-1.7-0.5c-0.4-0.3-0.7-0.8-0.8-1.3c-0.1-0.6-0.1-1.1,0.2-1.6
				c0.3-0.5,0.7-0.8,1.3-1l-0.1-0.5l0.7-0.2l0.1,0.5c0.6-0.1,1,0,1.4,0.2c0.4,0.2,0.7,0.6,0.9,1.1l-1.3,0.5
				c-0.2-0.4-0.5-0.6-0.8-0.7l0.5,2c0.9,0,1.5,0.2,1.9,0.5c0.4,0.3,0.6,0.7,0.8,1.3c0.2,0.6,0.1,1.2-0.2,1.7
				c-0.3,0.5-0.7,0.9-1.4,1.2l0.2,1l-0.7,0.2l-0.2-0.9c-0.6,0.1-1.2,0-1.6-0.3c-0.5-0.3-0.8-0.7-1.1-1.4l1.3-0.5
				c0.1,0.3,0.3,0.5,0.5,0.6C24.5,23,24.7,23.1,25,23.1z M23.6,17.7c-0.2,0.1-0.3,0.3-0.4,0.5c-0.1,0.2-0.1,0.4,0,0.6
				c0,0.2,0.1,0.3,0.3,0.5c0.1,0.1,0.3,0.2,0.6,0.3L23.6,17.7z M25.7,23c0.2-0.1,0.4-0.3,0.5-0.5c0.1-0.2,0.1-0.5,0.1-0.7
				c-0.1-0.2-0.2-0.4-0.3-0.5c-0.2-0.1-0.4-0.2-0.8-0.2L25.7,23z"/>
		</g>
	</g>
	<g>
		<path fill="#4CDBC4" d="M35.3,1.2l7.2,14c0.6,1.1,0.1,2.5-1,3.1L10.6,34.3c-1.1,0.6-2.5,0.1-3.1-1l-7.2-14c-0.6-1.1-0.1-2.5,1-3.1
			L32.2,0.3C33.4-0.3,34.8,0.1,35.3,1.2z"/>
		<path fill="#F2F2F2" d="M7.7,28.8l-3.6-7c2-1,2.7-3.4,1.7-5.4L29.8,4c1,2,3.4,2.7,5.4,1.7l3.6,7c-2,1-2.7,3.4-1.7,5.4l-24,12.3
			C12.1,28.6,9.7,27.8,7.7,28.8z"/>
		<g>
			<circle fill="#4CDBC4" cx="13.1" cy="21.6" r="1.3"/>
			<circle fill="#4CDBC4" cx="29.8" cy="13" r="1.3"/>
		</g>
		<g>
			<path fill="#4CDBC4" d="M25.9,15c1.6,3.1,0.9,6.7-1.5,7.9c-0.3,0.2-0.7,0.3-1,0.4c-2.3,0.5-4.9-1-6.3-3.7
				c-0.1-0.1-0.1-0.2-0.2-0.3c-1.4-3-0.6-6.4,1.7-7.6C21,10.4,24.3,11.9,25.9,15z"/>
			<path fill="#FFFFFF" d="M22.3,19.7l-1-2c-0.7,0.1-1.3,0.1-1.8-0.1c-0.5-0.2-0.8-0.6-1.1-1.1c-0.3-0.5-0.3-1-0.2-1.6
				c0.1-0.5,0.5-0.9,1-1.3l-0.2-0.5l0.7-0.4l0.2,0.5c0.5-0.2,1-0.2,1.5-0.1c0.4,0.1,0.8,0.4,1.1,0.8l-1.1,0.8
				c-0.3-0.3-0.6-0.5-1-0.5l1,1.8c0.9-0.2,1.5-0.2,2,0c0.4,0.2,0.8,0.5,1.1,1c0.3,0.6,0.4,1.1,0.2,1.7c-0.1,0.6-0.5,1.1-1.1,1.5
				l0.5,0.9l-0.7,0.4l-0.4-0.9c-0.6,0.2-1.1,0.2-1.6,0.1c-0.5-0.2-1-0.5-1.4-1.1L21,19c0.2,0.2,0.4,0.4,0.6,0.5
				C21.8,19.6,22,19.7,22.3,19.7z M19.7,14.7c-0.2,0.2-0.2,0.3-0.3,0.6c0,0.2,0,0.4,0.1,0.6c0.1,0.2,0.2,0.3,0.4,0.4
				s0.4,0.1,0.6,0.1L19.7,14.7z M23,19.4c0.2-0.2,0.3-0.4,0.4-0.6c0.1-0.3,0-0.5-0.1-0.7c-0.1-0.2-0.3-0.4-0.5-0.4
				c-0.2-0.1-0.5-0.1-0.8,0L23,19.4z"/>
		</g>
	</g>
	<g>
		<g>
			<path fill="#F8B64C" d="M47.9,43.2c0,2.7-4.7,4.8-10.5,4.8C31.7,48,27,45.8,27,43.2v-3.2h21V43.2z"/>
			<g>
				<ellipse fill="#FFD15C" cx="37.5" cy="39.9" rx="10.5" ry="4.8"/>
				<ellipse fill="#F8B64C" cx="37.5" cy="39.9" rx="8.6" ry="4"/>
				<g>
					<path fill="#FFD15C" d="M36.9,41.6v-1.5c-1-0.1-1.8-0.3-2.3-0.6c-0.5-0.3-0.7-0.6-0.7-1c0-0.4,0.3-0.7,0.8-1
						c0.5-0.3,1.3-0.4,2.2-0.5v-0.4h1.1V37c0.8,0,1.5,0.2,2,0.4c0.5,0.2,0.8,0.5,0.9,0.9l-2,0.1c-0.1-0.3-0.4-0.5-0.9-0.6v1.4
						c1.3,0.2,2.1,0.4,2.6,0.6c0.5,0.2,0.7,0.6,0.7,1c0,0.4-0.3,0.8-0.9,1.1c-0.6,0.3-1.4,0.5-2.4,0.6v0.7h-1.1v-0.7
						c-0.9-0.1-1.6-0.2-2.2-0.5c-0.6-0.3-0.9-0.6-1.1-1.1l2.1-0.1c0.1,0.2,0.2,0.4,0.5,0.5C36.4,41.5,36.6,41.6,36.9,41.6z
						 M36.9,37.8c-0.3,0-0.6,0.1-0.7,0.2c-0.2,0.1-0.3,0.2-0.3,0.4c0,0.1,0.1,0.2,0.3,0.4c0.2,0.1,0.4,0.2,0.8,0.3V37.8z M38.1,41.7
						c0.4,0,0.7-0.1,1-0.3c0.2-0.1,0.4-0.3,0.4-0.5c0-0.2-0.1-0.3-0.3-0.4c-0.2-0.1-0.5-0.2-1-0.3V41.7z"/>
				</g>
			</g>
		</g>
		<g>
			<path fill="#F8B64C" d="M47.9,39.1c0,2.7-4.7,4.8-10.5,4.8C31.7,44,27,41.8,27,39.1v-3.2h21V39.1z"/>
			<g>
				<ellipse fill="#FFD15C" cx="37.5" cy="35.9" rx="10.5" ry="4.8"/>
				<ellipse fill="#F8B64C" cx="37.5" cy="35.9" rx="8.6" ry="4"/>
				<g>
					<path fill="#FFD15C" d="M36.9,37.6v-1.5c-1-0.1-1.8-0.3-2.3-0.6c-0.5-0.3-0.7-0.6-0.7-1c0-0.4,0.3-0.7,0.8-1
						c0.5-0.3,1.3-0.4,2.2-0.5v-0.4h1.1V33c0.8,0,1.5,0.2,2,0.4c0.5,0.2,0.8,0.5,0.9,0.9l-2,0.1c-0.1-0.3-0.4-0.5-0.9-0.6v1.4
						c1.3,0.2,2.1,0.4,2.6,0.6c0.5,0.2,0.7,0.6,0.7,1c0,0.4-0.3,0.8-0.9,1.1c-0.6,0.3-1.4,0.5-2.4,0.6v0.7h-1.1v-0.7
						c-0.9-0.1-1.6-0.2-2.2-0.5c-0.6-0.3-0.9-0.6-1.1-1.1l2.1-0.1c0.1,0.2,0.2,0.4,0.5,0.5C36.4,37.4,36.6,37.5,36.9,37.6z
						 M36.9,33.8c-0.3,0-0.6,0.1-0.7,0.2c-0.2,0.1-0.3,0.2-0.3,0.4c0,0.1,0.1,0.2,0.3,0.4c0.2,0.1,0.4,0.2,0.8,0.3V33.8z M38.1,37.6
						c0.4,0,0.7-0.1,1-0.3c0.2-0.1,0.4-0.3,0.4-0.5c0-0.2-0.1-0.3-0.3-0.4c-0.2-0.1-0.5-0.2-1-0.3V37.6z"/>
				</g>
			</g>
		</g>
		<g>
			<path fill="#F8B64C" d="M47.9,35.1c0,2.7-4.7,4.8-10.5,4.8c-5.8,0-10.5-2.2-10.5-4.8v-3.2h21V35.1z"/>
			<g>
				<ellipse fill="#FFD15C" cx="37.5" cy="31.8" rx="10.5" ry="4.8"/>
				<ellipse fill="#F8B64C" cx="37.5" cy="31.8" rx="8.6" ry="4"/>
				<g>
					<path fill="#FFD15C" d="M36.9,33.6V32c-1-0.1-1.8-0.3-2.3-0.6c-0.5-0.3-0.7-0.6-0.7-1c0-0.4,0.3-0.7,0.8-1
						c0.5-0.3,1.3-0.4,2.2-0.5v-0.4h1.1V29c0.8,0,1.5,0.2,2,0.4c0.5,0.2,0.8,0.5,0.9,0.9l-2,0.1c-0.1-0.3-0.4-0.5-0.9-0.6v1.4
						c1.3,0.2,2.1,0.4,2.6,0.6c0.5,0.2,0.7,0.6,0.7,1c0,0.4-0.3,0.8-0.9,1.1c-0.6,0.3-1.4,0.5-2.4,0.6v0.7h-1.1v-0.7
						c-0.9-0.1-1.6-0.2-2.2-0.5c-0.6-0.3-0.9-0.6-1.1-1.1l2.1-0.1c0.1,0.2,0.2,0.4,0.5,0.5C36.4,33.4,36.6,33.5,36.9,33.6z
						 M36.9,29.7c-0.3,0-0.6,0.1-0.7,0.2c-0.2,0.1-0.3,0.2-0.3,0.4c0,0.1,0.1,0.2,0.3,0.4c0.2,0.1,0.4,0.2,0.8,0.3V29.7z M38.1,33.6
						c0.4,0,0.7-0.1,1-0.3c0.2-0.1,0.4-0.3,0.4-0.5c0-0.2-0.1-0.3-0.3-0.4c-0.2-0.1-0.5-0.2-1-0.3V33.6z"/>
				</g>
			</g>
		</g>
		<g>
			<path fill="#F8B64C" d="M47.9,31c0,2.7-4.7,4.8-10.5,4.8C31.7,35.9,27,33.7,27,31v-3.2h21V31z"/>
			<g>
				<ellipse fill="#FFD15C" cx="37.5" cy="27.8" rx="10.5" ry="4.8"/>
				<ellipse fill="#F8B64C" cx="37.5" cy="27.8" rx="8.6" ry="4"/>
				<g>
					<path fill="#FFD15C" d="M36.9,29.5V28c-1-0.1-1.8-0.3-2.3-0.6c-0.5-0.3-0.7-0.6-0.7-1c0-0.4,0.3-0.7,0.8-1
						c0.5-0.3,1.3-0.4,2.2-0.5v-0.4h1.1v0.4c0.8,0,1.5,0.2,2,0.4c0.5,0.2,0.8,0.5,0.9,0.9l-2,0.1c-0.1-0.3-0.4-0.5-0.9-0.6v1.4
						c1.3,0.2,2.1,0.4,2.6,0.6c0.5,0.2,0.7,0.6,0.7,1c0,0.4-0.3,0.8-0.9,1.1c-0.6,0.3-1.4,0.5-2.4,0.6V31h-1.1v-0.7
						c-0.9-0.1-1.6-0.2-2.2-0.5c-0.6-0.3-0.9-0.6-1.1-1.1l2.1-0.1c0.1,0.2,0.2,0.4,0.5,0.5C36.4,29.3,36.6,29.4,36.9,29.5z
						 M36.9,25.7c-0.3,0-0.6,0.1-0.7,0.2c-0.2,0.1-0.3,0.2-0.3,0.4c0,0.1,0.1,0.2,0.3,0.4c0.2,0.1,0.4,0.2,0.8,0.3V25.7z M38.1,29.6
						c0.4,0,0.7-0.1,1-0.3c0.2-0.1,0.4-0.3,0.4-0.5c0-0.2-0.1-0.3-0.3-0.4c-0.2-0.1-0.5-0.2-1-0.3V29.6z"/>
				</g>
			</g>
		</g>
		<g>
			<path fill="#F8B64C" d="M47.9,27c0,2.7-4.7,4.8-10.5,4.8C31.7,31.8,27,29.7,27,27v-3.2h21V27z"/>
			<g>
				<ellipse fill="#FFD15C" cx="37.5" cy="23.8" rx="10.5" ry="4.8"/>
				<ellipse fill="#F8B64C" cx="37.5" cy="23.8" rx="8.6" ry="4"/>
				<g>
					<path fill="#FFD15C" d="M36.9,25.5v-1.5c-1-0.1-1.8-0.3-2.3-0.6c-0.5-0.3-0.7-0.6-0.7-1c0-0.4,0.3-0.7,0.8-1
						c0.5-0.3,1.3-0.4,2.2-0.5v-0.4h1.1v0.4c0.8,0,1.5,0.2,2,0.4c0.5,0.2,0.8,0.5,0.9,0.9l-2,0.1c-0.1-0.3-0.4-0.5-0.9-0.6v1.4
						c1.3,0.2,2.1,0.4,2.6,0.6c0.5,0.2,0.7,0.6,0.7,1c0,0.4-0.3,0.8-0.9,1.1c-0.6,0.3-1.4,0.5-2.4,0.6V27h-1.1v-0.7
						c-0.9-0.1-1.6-0.2-2.2-0.5c-0.6-0.3-0.9-0.6-1.1-1.1l2.1-0.1c0.1,0.2,0.2,0.4,0.5,0.5C36.4,25.3,36.6,25.4,36.9,25.5z
						 M36.9,21.7c-0.3,0-0.6,0.1-0.7,0.2c-0.2,0.1-0.3,0.2-0.3,0.4c0,0.1,0.1,0.2,0.3,0.4c0.2,0.1,0.4,0.2,0.8,0.3V21.7z M38.1,25.5
						c0.4,0,0.7-0.1,1-0.3c0.2-0.1,0.4-0.3,0.4-0.5c0-0.2-0.1-0.3-0.3-0.4c-0.2-0.1-0.5-0.2-1-0.3V25.5z"/>
				</g>
			</g>
		</g>
	</g>
</g>
</svg>
