<?xml version="1.0" encoding="utf-8"?>
<!-- Generator: Adobe Illustrator 18.0.0, SVG Export Plug-In . SVG Version: 6.00 Build 0)  -->
<!DOCTYPE svg PUBLIC "-//W3C//DTD SVG 1.1//EN" "http://www.w3.org/Graphics/SVG/1.1/DTD/svg11.dtd">
<svg version="1.1" id="Layer_1" xmlns="http://www.w3.org/2000/svg" xmlns:xlink="http://www.w3.org/1999/xlink" x="0px" y="0px"
	 viewBox="0 0 512 512" enable-background="new 0 0 512 512" xml:space="preserve">
<g>
	<path fill="#F2F2F2" d="M505.1,92.3c-3.2-4.1-8.1-6.4-13.3-6.4h-399V19c0-9.4-7.6-17-17-17H20.2c-9.4,0-17,7.6-17,17s7.6,17,17,17
		h38.6v404.5c0,9.4,7.6,17,17,17H322c9.4,0,17-7.6,17-17s-7.6-17-17-17H92.7v-69.2h344.5c7.9,0,14.8-5.4,16.5-13.1l54.5-234.5
		C509.5,101.6,508.3,96.3,505.1,92.3z M163.9,283.9c0,9.9-8,17.8-17.8,17.8c-9.8,0-17.8-8-17.8-17.8V156.2c0-9.9,8-17.8,17.8-17.8
		c9.9,0,17.8,8,17.8,17.8V283.9z M248.1,283.9c0,9.9-8,17.8-17.8,17.8s-17.8-8-17.8-17.8V156.2c0-9.9,8-17.8,17.8-17.8
		s17.8,8,17.8,17.8V283.9z M332.4,283.9c0,9.9-8,17.8-17.8,17.8c-9.8,0-17.8-8-17.8-17.8V156.2c0-9.9,8-17.8,17.8-17.8
		c9.9,0,17.8,8,17.8,17.8V283.9z M416.7,283.9c0,9.9-8,17.8-17.8,17.8c-9.8,0-17.8-8-17.8-17.8V156.2c0-9.9,8-17.8,17.8-17.8
		c9.9,0,17.8,8,17.8,17.8V283.9z"/>
	<path fill="#40596B" d="M375.3,510c-38.4,0-69.6-31.2-69.6-69.6s31.2-69.6,69.6-69.6s69.6,31.2,69.6,69.6S413.7,510,375.3,510z"/>
	<path fill="#FFFFFF" d="M375.3,404.7c-19.7,0-35.6,16-35.6,35.6c0,19.7,16,35.6,35.6,35.6c19.7,0,35.6-16,35.6-35.6
		C411,420.7,395,404.7,375.3,404.7z"/>
	<path fill="#40596B" d="M128.4,510c-38.4,0-69.6-31.2-69.6-69.6s31.2-69.6,69.6-69.6S198,402,198,440.4S166.8,510,128.4,510z"/>
	<path fill="#FFFFFF" d="M128.4,404.7c-19.7,0-35.6,16-35.6,35.6c0,19.7,16,35.6,35.6,35.6s35.6-16,35.6-35.6
		C164,420.7,148.1,404.7,128.4,404.7z"/>
</g>
</svg>
