<?xml version="1.0" encoding="utf-8"?>
<!-- Generator: Adobe Illustrator 19.0.1, SVG Export Plug-In . SVG Version: 6.00 Build 0)  -->
<svg version="1.1" id="Layer_1" xmlns="http://www.w3.org/2000/svg" xmlns:xlink="http://www.w3.org/1999/xlink" x="0px" y="0px"
	 viewBox="0 0 48 48" style="enable-background:new 0 0 48 48;" xml:space="preserve">
<style type="text/css">
	.st0{fill:#415A6B;}
	.st1{fill:#ADB3BA;}
	.st2{fill:#E8EAE9;}
	.st3{fill:#55C0EB;}
	.st4{fill:#F3705A;}
	.st5{fill:#FFFFFF;}
	.st6{fill:#FFD15C;}
	.st7{fill:#344A5E;}
	.st8{fill:#CED6E0;}
	.st9{fill:#F05540;}
	.st10{fill:#F7B64C;}
	.st11{fill:#F3F3F3;}
	.st12{fill:#66C6B9;}
	.st13{fill:#4ABAA5;}
	.st14{fill:#8AD7F8;}
	.st15{fill:none;}
	.st16{fill:#E53D35;}
</style>
<g>
	<g>
		<g>
			<g>
				<g>
					<g>
						<path class="st8" d="M41.1,21.8c0,0-0.2,0.1-0.3,0.1c0,0,0.1,2,0.1,2.1s1.4,1,1.4,1s1.3-2,0.7-2.5
							C42.4,22,41.1,21.8,41.1,21.8z"/>
					</g>
					<g>
						<path class="st7" d="M43.5,28.5l2.6-0.7l1.9,1.5V48H26.8C26.8,48,40,29.5,43.5,28.5z"/>
					</g>
					<g>
						<path class="st6" d="M41.6,18l-0.7,3.3c0,0,0.4,2.8,1.6,3.9l-11,8.2c0,0-0.6-4.9-1.1-5.8c0,0-1.9,0.2-2.7-1.8
							s-1.4-3.3-1.7-4.2C25.8,20.5,25,18,25,16.3c0-1.6-0.4-2-0.4-2.5c0-0.6,0.1-1.6,0.1-1.6s0.2-3.5,0.5-4.3c0,0,2.6-1.8,6.2-2.1
							S39.1,6,39.1,6L41.6,18z"/>
					</g>
					<g>
						<path class="st6" d="M42.5,25.1L29,35.9c0,0,1.7-7.9,1.5-8.4c0,0-1.9,0.2-2.7-1.8c-0.8-2-1.4-3.3-1.7-4.2
							C25.8,20.5,25,18,25,16.3c0-1.6-0.4-2-0.4-2.5c0-0.6,0.1-1.6,0.1-1.6s0.2-3.5,0.5-4.3c0,0,2.6-1.8,6.2-2.1
							C34.9,5.5,39.1,6,39.1,6l2.4,12l-0.7,3.3C40.9,21.2,41.3,24,42.5,25.1z"/>
					</g>
					<g>
						<path class="st0" d="M24.6,12.2c0,0,0.3-3.3,0.5-3.8c0.3-0.5,1.4-0.9,2.2-0.5c0.8,0.4,4.9,0.1,5.9-0.3c1-0.3,3.8-0.5,4,1
							c0.2,1.5,0,2,0.6,3c0.6,1,1.4,2.9,1.4,3.6l0.9,0.2c0,0,0.3-1,0.7-1.4c0.4-0.4,1,0,1.1,0.5c0.1,0.5-1.3,5.4-1,6.7
							c0,0,0.4-1.5,0.6-2.1c0.2-0.6,1.1-7,1.2-8.7s-0.4-5-2.1-7.1S36.5,0.3,33.9,0S28.1,1.9,27,3c-1.2,1-2.7,2.3-2.2,5.2
							C24.8,8.2,24.4,11,24.6,12.2z"/>
					</g>
					<g>
						<path class="st0" d="M24.6,12.2c0,0,0.3-3.3,0.5-3.8c0.3-0.5,1.4-0.9,2.2-0.5c0.8,0.4,4.9,0.1,5.9-0.3c1-0.3,3.8-0.5,4,1
							c0.2,1.5,0,2,0.6,3c0.6,1,1.4,2.9,1.3,4.3L40,16c0,0,0.4-1.7,0.8-2c0.4-0.4,1,0,1.1,0.5c0.1,0.5-1.3,5.4-1,6.7
							c0,0,0.4-1.5,0.6-2.1c0.2-0.6,1.1-7,1.2-8.7s-0.4-5-2.1-7.1S36.5,0.3,33.9,0S28.1,1.9,27,3c-1.2,1-2.7,2.3-2.2,5.2
							C24.8,8.2,24.4,11,24.6,12.2z"/>
					</g>
					<g>
						
							<ellipse transform="matrix(0.9485 0.3167 -0.3167 0.9485 7.341 -12.2175)" class="st6" cx="41.2" cy="16.5" rx="1.7" ry="3.2"/>
					</g>
					<g>
						<path class="st10" d="M39.8,21c-0.3,0.9-1.7,7.7-10,11.4c-0.2-1.5,0.9-4.4,0.6-4.9c0,0,2.3,0.1,4.8-1.5
							C37.7,24.4,39.4,22,39.8,21z"/>
					</g>
					<g>
						<polyline class="st8" points="31,29.9 30,34.7 33.2,30 36.6,32.2 37.4,37.5 25,48 23.2,48 28.6,32.5 31,29.9 						"/>
					</g>
					<g>
						<path class="st0" d="M30.4,28.1l-0.1-0.4c0,0-1.2-0.1-2.5,1s-4.2,6.4-4.6,7.9c-0.4,1.5-3,11.5-3,11.5h3.1
							c0,0,5.3-13.9,5.6-14.7c0.3-0.8,1-2.9,1-2.9L30.4,28.1z"/>
					</g>
					<g>
						<path class="st2" d="M30.4,27.5c0,0,0.3,1,0.4,1.7c0.1,0.7,0.1,0.7,0.1,0.7c-0.6,1.5-1.3,2.6-2.2,3.4l0-0.1
							c-0.1-0.6,0.1-1.2,0.5-1.8c0.1-0.2,0.2-0.3,0.2-0.6l-0.8-1.2L30.4,27.5"/>
					</g>
					<g>
						<path class="st2" d="M44,25.7l-7.7,9.7L33.2,30c0,0,7.6-5.2,8.1-5.6c0.5-0.4,1.5-1.2,1.4-1.7c-0.1-0.4-1.7-0.8-1.7-0.8
							L41,21.6c2.2,0.3,2.3,1.2,2.3,1.2L44,25.7z"/>
					</g>
					<g>
						<path class="st0" d="M43.5,23.8c0,0,0.2,0.9-0.7,1.7c-0.9,0.9-2.7,2.6-3.6,3.5c-0.9,0.9-4.7,5.8-6.7,8S25,48,25,48h3.8
							l13-12.9l-0.7-2.7l3.2-0.7c0,0,1.4-2.2,1.8-3.6c0.1-0.4,0-0.7-0.2-1c-0.3-0.4-0.9-1.2-1.1-1.6C44.6,24.9,44.2,24.1,43.5,23.8"
							/>
					</g>
				</g>
			</g>
		</g>
	</g>
	<g>
		<g>
			<g>
				<circle class="st4" cx="14.3" cy="33.7" r="14.3"/>
			</g>
		</g>
		<g>
			<g>
				<circle class="st11" cx="14.3" cy="33.7" r="11"/>
			</g>
		</g>
		<g>
			<g>
				<circle class="st8" cx="20.9" cy="27.1" r="0.6"/>
			</g>
		</g>
		<g>
			<g>
				<circle class="st8" cx="23.6" cy="33.7" r="0.6"/>
			</g>
		</g>
		<g>
			<g>
				<circle class="st8" cx="20.9" cy="40.4" r="0.6"/>
			</g>
		</g>
		<g>
			<g>
				<circle class="st8" cx="14.3" cy="43.1" r="0.6"/>
			</g>
		</g>
		<g>
			<g>
				<circle class="st8" cx="7.6" cy="40.4" r="0.6"/>
			</g>
		</g>
		<g>
			<g>
				<circle class="st8" cx="4.9" cy="33.7" r="0.6"/>
			</g>
		</g>
		<g>
			<g>
				<circle class="st8" cx="7.6" cy="27.1" r="0.6"/>
			</g>
		</g>
		<g>
			<g>
				<circle class="st8" cx="14.3" cy="24.4" r="0.6"/>
			</g>
		</g>
		<g>
			<g>
				<path class="st6" d="M17.5,38c-0.3,0-0.5-0.1-0.7-0.3l-3.3-3.3c-0.4-0.4-0.4-1,0-1.4s1-0.4,1.4,0l3.3,3.3c0.4,0.4,0.4,1,0,1.4
					C18,37.9,17.8,38,17.5,38z"/>
			</g>
		</g>
		<g>
			<g>
				<path class="st12" d="M14.3,34.7c-0.6,0-1-0.4-1-1v-6.6c0-0.6,0.4-1,1-1s1,0.4,1,1v6.6C15.3,34.3,14.8,34.7,14.3,34.7z"/>
			</g>
		</g>
		<g>
			<g>
				<circle class="st0" cx="14.3" cy="33.7" r="2.2"/>
			</g>
		</g>
	</g>
</g>
</svg>
