<?xml version="1.0" encoding="utf-8"?>
<!-- Generator: Adobe Illustrator 18.0.0, SVG Export Plug-In . SVG Version: 6.00 Build 0)  -->
<!DOCTYPE svg PUBLIC "-//W3C//DTD SVG 1.1//EN" "http://www.w3.org/Graphics/SVG/1.1/DTD/svg11.dtd">
<svg version="1.1" id="Layer_1" xmlns="http://www.w3.org/2000/svg" xmlns:xlink="http://www.w3.org/1999/xlink" x="0px" y="0px"
	 viewBox="0 0 48 48" enable-background="new 0 0 48 48" xml:space="preserve">
<g>
	<g>
		<g>
			<path fill="#FF7058" d="M12.1,48h23.8c0.9,0,1.6-0.6,1.9-1.4l6.3-18.1c0.5-1.4-0.5-2.8-1.9-2.8H5.8c-1.4,0-2.4,1.5-1.9,2.8
				l6.3,18.1C10.5,47.4,11.2,48,12.1,48z"/>
		</g>
		<path opacity="0.1" fill="#231F20" d="M5.8,25.7h36.4c1.4,0,2.4,1.5,1.9,2.8l-0.6,1.8c-6.4,1.5-12.9,2.3-19.5,2.3
			c-6.6,0-13.1-0.8-19.5-2.3l-0.6-1.8C3.4,27.1,4.4,25.7,5.8,25.7z"/>
		<g>
			<path fill="#FFD15C" d="M44.1,28.6c0.5-1.4-0.5-2.8-1.9-2.9c-12.1,0-24.3,0-36.4,0c-1.4,0.1-2.4,1.4-1.9,2.9
				C17.1,31.9,30.9,31.9,44.1,28.6z"/>
			<path fill="#FFD15C" d="M41.9,28.5c0,0,5.7-3-0.6-3.7c0,0,3-3.5-2.8-4c0,0,4-3.4-2.3-4.7c0,0,6-7.6-18.2-16c0,0-1.8-0.8,0.6,3
				c0,0,2.1,5.4-0.5,7.1c0,0-4.8,0.9-4.4,4.1c0,0-3.7,1.7-2.8,5.5c0,0-3.3,1.2-2.9,4.1c0,0-4.5-0.3-4.2,4.7H41.9z"/>
		</g>
		<g>
			<path fill="#F8B64C" d="M36.8,16.2c0-0.3-0.2-0.6-0.5-0.6c0,0-0.9-0.1-2.5-0.3c0.2-0.4,0.3-0.8,0.3-1.4c-0.2-3.3-5.2-7.7-15.1-13
				c0,0,0,0-0.1,0c0,0-0.1,0-0.1,0c0,0-0.1,0-0.1,0c0,0-0.1,0-0.1,0c0,0-0.1,0-0.1,0c0,0-0.1,0-0.1,0.1c0,0-0.1,0-0.1,0.1
				c0,0,0,0-0.1,0c0,0,0,0,0,0c0,0,0,0,0,0c0,0,0,0,0,0.1c0,0,0,0.1,0,0.1c0,0,0,0.1,0,0.1c0,0,0,0.1,0,0.1c0,0,0,0.1,0,0.1
				c0,0,0,0.1,0.1,0.1c0,0,0,0.1,0.1,0.1c0,0,0,0,0,0.1c7.3,5.6,8,8.5,7.9,9.8c-0.2,1.1-1.2,1.6-1.2,1.6c0,0-0.1,0-0.1,0.1
				c-2.4-0.7-5-1.7-7.5-2.9c-0.3-0.1-0.6,0-0.8,0.3c-0.1,0.3,0,0.6,0.3,0.8c9.1,4.4,19.2,5.3,19.3,5.3c0,0,0,0,0,0
				C36.5,16.7,36.8,16.5,36.8,16.2z M32.5,15c-1.7-0.3-3.8-0.7-6.2-1.4c0.4-0.4,0.9-1,1-1.9c0.3-1.8-0.9-4.2-3.7-6.9
				c7.7,4.8,9.1,7.6,9.2,8.9C33,14.6,32.6,15,32.5,15z"/>
			<path fill="#F8B64C" d="M39,21.5C38.9,21.5,38.9,21.5,39,21.5c-0.9-0.1-20.9-1.3-25.8-6.8c-0.2-0.2-0.2-0.6,0.1-0.8
				c0.2-0.2,0.6-0.2,0.8,0.1c4.5,5.1,24.7,6.4,24.9,6.4c0.3,0,0.6,0.3,0.5,0.6C39.5,21.2,39.3,21.5,39,21.5z"/>
			<path fill="#F8B64C" d="M7.4,23.5c0.1-0.3,0.5-0.4,0.8-0.2c0.1,0.1,9.2,4.7,26.6,1.8c-7.5-0.5-19.4-1.8-24.3-4.9
				c-0.3-0.2-0.3-0.5-0.2-0.8c0.2-0.3,0.5-0.3,0.8-0.2c7,4.4,30,5,30.2,5c0.3,0,0.6,0.3,0.6,0.6c0,0.3-0.3,0.6-0.6,0.6c0,0,0,0,0,0
				c-0.1,0-0.8,0-1.7-0.1c-6.2,1.4-11.5,1.9-15.8,1.9c-10.4,0-15.8-2.8-16.1-2.9C7.4,24.2,7.3,23.8,7.4,23.5z"/>
		</g>
		<g>
			<path fill="#FFFFFF" d="M24,34.2c0.8,0,1.4,0.6,1.4,1.4v8.8c0,0.8-0.6,1.4-1.4,1.4c-0.8,0-1.4-0.6-1.4-1.4v-8.8
				C22.6,34.8,23.2,34.2,24,34.2z"/>
			<g>
				<path fill="#FFFFFF" d="M12.5,34.4c0.7-0.2,1.5,0.2,1.7,0.9l2.5,8.5c0.2,0.7-0.2,1.5-0.9,1.7c-0.7,0.2-1.5-0.2-1.7-0.9l-2.5-8.5
					C11.4,35.4,11.8,34.7,12.5,34.4z"/>
				<path fill="#FFFFFF" d="M35.5,34.4c-0.7-0.2-1.5,0.2-1.7,0.9l-2.5,8.5c-0.2,0.7,0.2,1.5,0.9,1.7c0.7,0.2,1.5-0.2,1.7-0.9
					l2.5-8.5C36.6,35.4,36.2,34.7,35.5,34.4z"/>
			</g>
		</g>
	</g>
	<g>
		<g>
			<circle fill="#FF7058" cx="27.2" cy="5.6" r="4.2"/>
		</g>
		<g>
			<path fill="#ACB3BA" d="M27.4,4.1c-0.3,0-0.6-0.3-0.6-0.6c0-1.9,1.6-3.5,3.5-3.5c0.3,0,0.6,0.3,0.6,0.6s-0.3,0.6-0.6,0.6
				c-1.3,0-2.3,1-2.3,2.3C28,3.9,27.7,4.1,27.4,4.1z"/>
		</g>
	</g>
</g>
</svg>
