<?xml version="1.0" encoding="utf-8"?>
<!-- Generator: Adobe Illustrator 18.0.0, SVG Export Plug-In . SVG Version: 6.00 Build 0)  -->
<!DOCTYPE svg PUBLIC "-//W3C//DTD SVG 1.1//EN" "http://www.w3.org/Graphics/SVG/1.1/DTD/svg11.dtd">
<svg version="1.1" id="Layer_1" xmlns="http://www.w3.org/2000/svg" xmlns:xlink="http://www.w3.org/1999/xlink" x="0px" y="0px"
	 viewBox="0 0 48 48" enable-background="new 0 0 48 48" xml:space="preserve">
<g>
	<g>
		<g>
			<g>
				<g>
					<g>
						<g>
							<rect x="13.5" y="14.6" fill="#415A6B" width="2.1" height="10.5"/>
						</g>
					</g>
					<g>
						<g>
							<path fill="#F3705A" d="M20.4,12.1c0,3.2-2.6,5.7-5.7,5.7s-5.7-2.6-5.7-5.7S14.7,0,14.7,0S20.4,9,20.4,12.1z"/>
						</g>
						<g>
							<path fill="#FFD15C" d="M17.8,14.7c0,1.8-1.4,3.2-3.2,3.2s-3.2-1.4-3.2-3.2s3.2-6.7,3.2-6.7S17.8,12.9,17.8,14.7z"/>
						</g>
					</g>
				</g>
				<path fill="#F3F3F3" d="M23,31.4c-0.2,1.4,0.1,2.9,0.8,4.1c0.3,0.5,0.7,1,1,1.6c0.3,0.6,0.5,1.2,0.4,1.8s-0.7,1.2-1.3,1.2
					c-0.5,0-1-0.4-1.2-0.8c-0.2-0.5-0.3-1-0.3-1.5c-0.2-2.8,0.2-5.6,0.6-8.4c0.1,0.7,0.1,1.4,0.2,2.2"/>
				<path fill="#F3F3F3" d="M22.6,40c0,1.2,0.3,2.3,1,3.3c0.3,0.4,0.7,0.8,1,1.2c0.3,0.4,0.5,0.9,0.5,1.4s-0.4,1-0.9,1.1
					c-0.4,0-0.8-0.2-1.1-0.6c-0.2-0.4-0.3-0.8-0.4-1.2c-0.4-2.3-0.4-4.6-0.3-6.9C22.4,38.9,22.5,39.5,22.6,40"/>
				<g>
					<rect x="6.5" y="21.9" fill="#F3F3F3" width="16.4" height="26.1"/>
				</g>
				<g>
					<path fill="#E8EAE9" d="M7.4,18.3c0.6-0.1,1.2,0.2,1.5,0.8C9,19.4,9.1,19.7,9.2,20c0.3,0.5,0.9,0.7,1.4,0.7
						c1.9,0.2,3.9,0.1,5.7-0.5c1.1-0.3,2.1-0.8,3.2-0.9c1.1-0.1,2.3,0.2,3,1.1c0.7,0.9,0.9,2.2,1,3.5c0.2,2.3,0.2,4.6,0.1,7
						c0,0.2,0,0.5-0.1,0.7c-0.1,0.2-0.3,0.3-0.5,0.2c-0.2-0.1-0.3-0.4-0.3-0.7c-0.3-2-1.2-3.9-2.6-5.2c0,0,0,0,0,0
						c-1.7-1.5-4.3-0.5-4.9,1.7c-0.9,3.1-4.1,4.5-7.2,1.1C7,27.6,6.4,26.3,6,25C5.1,21.7,5.4,18.6,7.4,18.3z"/>
				</g>
			</g>
			<g>
				<g>
					<g>
						<g>
							<rect x="33.8" y="23" fill="#415A6B" width="1.5" height="7.8"/>
						</g>
					</g>
					<g>
						<g>
							<path fill="#F3705A" d="M38.9,21.2c0,2.4-1.9,4.3-4.3,4.3c-2.4,0-4.3-1.9-4.3-4.3s4.3-9.1,4.3-9.1S38.9,18.9,38.9,21.2z"/>
						</g>
						<g>
							<path fill="#FFD15C" d="M37,23.1c0,1.3-1.1,2.4-2.4,2.4c-1.3,0-2.4-1.1-2.4-2.4c0-1.3,2.4-5,2.4-5S37,21.8,37,23.1z"/>
						</g>
					</g>
				</g>
				<path fill="#8AD7F8" d="M40.8,35.6c-0.1,1.1,0.1,2.2,0.6,3.1c0.2,0.4,0.5,0.8,0.7,1.2s0.4,0.9,0.3,1.4s-0.5,0.9-1,0.9
					c-0.4,0-0.7-0.3-0.9-0.6c-0.2-0.3-0.2-0.7-0.3-1.1c-0.2-2.1,0.1-4.2,0.5-6.3C40.8,34.6,40.9,35.2,40.8,35.6"/>
				<path fill="#8AD7F8" d="M40.6,42c0,0.9,0.3,1.7,0.8,2.5c0.2,0.3,0.5,0.6,0.7,0.9s0.4,0.7,0.3,1.1c0,0.4-0.3,0.8-0.7,0.8
					c-0.3,0-0.6-0.2-0.8-0.4c-0.2-0.3-0.3-0.6-0.3-0.9c-0.3-1.7-0.3-3.4-0.2-5.2C40.4,41.2,40.5,41.7,40.6,42"/>
				<g>
					<rect x="28.5" y="28.5" fill="#8AD7F8" width="12.3" height="19.5"/>
				</g>
				<path fill="#55C0EB" d="M28.7,32.2c-0.6-1.2-1-2.6-0.9-4c0-0.5,0.1-1.1,0.4-1.5c0.2-0.5,0.6-0.8,1-0.9s0.9,0.1,1.1,0.6
					c0.1,0.2,0.1,0.5,0.3,0.7c0.2,0.4,0.7,0.5,1.1,0.6c1.4,0.2,2.9,0,4.3-0.4c0.8-0.3,1.6-0.6,2.4-0.7c0.8-0.1,1.7,0.1,2.3,0.8
					c0.5,0.7,0.6,1.7,0.7,2.6c0.1,1.7,0.2,3.5,0,5.2c0,0.2,0,0.3-0.1,0.5c-0.1,0.1-0.2,0.2-0.4,0.2c-0.2-0.1-0.2-0.3-0.2-0.5
					c-0.2-1.5-0.9-2.9-2-3.9c0,0,0,0,0,0c-1.3-1.1-3.2-0.4-3.7,1.3C34.2,35.4,31.1,36.4,28.7,32.2z"/>
			</g>
		</g>
	</g>
</g>
</svg>
