<?xml version="1.0" encoding="utf-8"?>
<!-- Generator: Adobe Illustrator 18.0.0, SVG Export Plug-In . SVG Version: 6.00 Build 0)  -->
<!DOCTYPE svg PUBLIC "-//W3C//DTD SVG 1.1//EN" "http://www.w3.org/Graphics/SVG/1.1/DTD/svg11.dtd">
<svg version="1.1" id="Layer_1" xmlns="http://www.w3.org/2000/svg" xmlns:xlink="http://www.w3.org/1999/xlink" x="0px" y="0px"
	 viewBox="0 0 48 48" enable-background="new 0 0 48 48" xml:space="preserve">
<path opacity="0.2" fill="#F8B64C" d="M22.8,23.7c-0.4,1.7-0.2,3.2,0.5,3.4s1.4-1.1,1.9-2.8c0.3-1,0.2-3-0.5-3.4
	C24.1,20.6,23.2,22,22.8,23.7z"/>
<g>
	<path fill="#F2F2F2" d="M30.7,32.7c-0.7-0.2-1.4-0.4-2-0.7c-0.7,0.6-1.5,1.1-2.2,1.7c-1-0.6-1.9-1.3-2.7-2c0.3-0.9,0.7-1.8,1-2.6
		c-0.5-0.5-0.9-1.1-1.2-1.7c-0.9,0-1.9,0.1-2.8,0.1c-0.4-1-0.8-2.1-1-3.2c0.8-0.5,1.6-1,2.3-1.6c0-0.3-0.1-0.7-0.1-1.1
		c0-0.4,0-0.7,0.1-1.1c-0.8-0.5-1.5-1-2.3-1.6c0.3-1.1,0.6-2.2,1-3.2c0.9,0,1.9,0.1,2.8,0.1c0.4-0.6,0.8-1.2,1.2-1.7
		c-0.3-0.9-0.6-1.7-1-2.6c0.9-0.7,1.8-1.4,2.7-2c0.7,0.6,1.5,1.2,2.2,1.7c0.6-0.3,1.3-0.5,2-0.7C31,9.9,31.2,9,31.5,8.1
		C32,8,32.6,8,33.2,8V2c0-1.1-0.9-2-2-2H3.3c-1.1,0-2,0.9-2,2v44c0,1.1,0.9,2,2,2h27.9c1.1,0,2-0.9,2-2V35.5c-0.6,0-1.1,0-1.7-0.1
		C31.2,34.5,31,33.6,30.7,32.7z"/>
	<circle fill="#CDD6E0" cx="17.2" cy="43" r="2.4"/>
	<path fill="#CDD6E0" d="M20.5,3.2H14c-0.3,0-0.5-0.2-0.5-0.5v0c0-0.3,0.2-0.5,0.5-0.5l6.6,0c0.3,0,0.5,0.2,0.5,0.5v0
		C21,3,20.8,3.2,20.5,3.2z"/>
	<path fill="#FF7058" d="M44.4,21.7c0-0.4,0-0.7-0.1-1.1c0.8-0.5,1.5-1,2.3-1.6c-0.3-1.1-0.6-2.2-1-3.2c-0.9,0-1.9,0.1-2.8,0.1
		c-0.4-0.6-0.8-1.2-1.2-1.7c0.3-0.9,0.6-1.7,1-2.6c-0.9-0.7-1.8-1.4-2.7-2c-0.7,0.6-1.5,1.2-2.2,1.7c-0.6-0.3-1.3-0.5-2-0.7
		c-0.3-0.9-0.5-1.8-0.8-2.7c-1.1-0.1-2.3-0.1-3.4,0C31.2,9,31,9.9,30.7,10.8c-0.7,0.2-1.4,0.4-2,0.7c-0.7-0.6-1.5-1.2-2.2-1.7
		c-1,0.6-1.9,1.3-2.7,2c0.3,0.9,0.7,1.8,1,2.6c-0.5,0.5-0.9,1.1-1.2,1.7c-0.9,0-1.9-0.1-2.8-0.1c-0.4,1-0.8,2.1-1,3.2
		c0.8,0.5,1.6,1,2.3,1.6c0,0.3-0.1,0.7-0.1,1.1c0,0.4,0,0.7,0.1,1.1c-0.8,0.5-1.5,1-2.3,1.6c0.3,1.1,0.6,2.2,1,3.2
		c0.9,0,1.9-0.1,2.8-0.1c0.4,0.6,0.8,1.2,1.2,1.7c-0.3,0.9-0.6,1.7-1,2.6c0.9,0.7,1.8,1.4,2.7,2c0.7-0.6,1.5-1.2,2.2-1.7
		c0.6,0.3,1.3,0.5,2,0.7c0.3,0.9,0.5,1.8,0.8,2.7c1.1,0.1,2.3,0.1,3.4,0c0.3-0.9,0.5-1.8,0.8-2.7c0.7-0.2,1.4-0.4,2-0.7
		c0.7,0.6,1.5,1.2,2.2,1.7c1-0.6,1.9-1.3,2.7-2c-0.3-0.9-0.7-1.8-1-2.6c0.5-0.5,0.9-1.1,1.2-1.7c0.9,0,1.9,0.1,2.8,0.1
		c0.4-1,0.8-2.1,1-3.2c-0.8-0.5-1.6-1-2.3-1.6C44.4,22.4,44.4,22.1,44.4,21.7z"/>
	<circle fill="#40596B" cx="33.2" cy="21.7" r="5.8"/>
	<path fill="#84DBFF" d="M28.7,32c-0.7,0.6-1.5,1.1-2.2,1.7c-1-0.6-1.9-1.3-2.7-2c0.3-0.9,0.7-1.8,1-2.6c-0.5-0.5-0.9-1.1-1.2-1.7
		c-0.9,0-1.9,0.1-2.8,0.1c-0.4-1-0.8-2.1-1-3.2c0.8-0.5,1.6-1,2.3-1.6c0-0.3-0.1-0.7-0.1-1.1c0-0.4,0-0.7,0.1-1.1
		c-0.8-0.5-1.5-1-2.3-1.6c0.3-1.1,0.6-2.2,1-3.2c0.9,0,1.9,0.1,2.8,0.1c0.4-0.6,0.8-1.2,1.2-1.7c-0.3-0.9-0.6-1.7-1-2.6
		c0.9-0.7,1.8-1.4,2.7-2c0.7,0.6,1.5,1.2,2.2,1.7c0.2-0.1,0.3-0.1,0.5-0.2V5.5H5.3V38h23.9v-5.8C29,32.2,28.9,32.1,28.7,32z"/>
	<path fill="#F8B64C" d="M39,15.9L39,15.9L36.9,18l0,0c2,2,2,5.3,0,7.4s-5.3,2-7.4,0l0,0l-2.1,2.1l0,0c3.2,3.2,8.4,3.2,11.6,0
		C42.2,24.3,42.2,19.1,39,15.9z"/>
	<path fill="#FFD15C" d="M29.5,18c2-2,5.3-2,7.4,0l2.1-2.1c-3.2-3.2-8.4-3.2-11.6,0c-3.2,3.2-3.2,8.4,0,11.6l2.1-2.1
		C27.4,23.4,27.4,20.1,29.5,18z"/>
</g>
</svg>
