<?xml version="1.0" encoding="utf-8"?>
<!-- Generator: Adobe Illustrator 18.0.0, SVG Export Plug-In . SVG Version: 6.00 Build 0)  -->
<!DOCTYPE svg PUBLIC "-//W3C//DTD SVG 1.1//EN" "http://www.w3.org/Graphics/SVG/1.1/DTD/svg11.dtd">
<svg version="1.1" id="Layer_1" xmlns="http://www.w3.org/2000/svg" xmlns:xlink="http://www.w3.org/1999/xlink" x="0px" y="0px"
	 viewBox="0 0 48 48" enable-background="new 0 0 48 48" xml:space="preserve">
<g>
	<g>
		<g>
			<g>
				<path fill="#E8EAE8" d="M2.3,3.7v27.4c0,1.1,0.9,2,2,2h34.9c1.1,0,2-0.9,2-2V3.7H2.3z"/>
			</g>
		</g>
		<g>
			<g>
				<g>
					<g>
						<rect x="5.3" y="14.4" fill="#F5B54C" width="3.2" height="5.9"/>
					</g>
				</g>
			</g>
			<g>
				<g>
					<g>
						<rect x="10.9" y="12.2" fill="#67C5B8" width="3.2" height="8.1"/>
					</g>
				</g>
			</g>
			<g>
				<g>
					<g>
						<rect x="16.6" y="16.4" fill="#F26F5A" width="3.2" height="4"/>
					</g>
				</g>
			</g>
			<g>
				<g>
					<g>
						<rect x="22.3" y="7.8" fill="#344A5E" width="3.2" height="12.5"/>
					</g>
				</g>
			</g>
		</g>
		<g>
			<g>
				<g>
					<path fill="#F26F5A" d="M41.4,0H2.1C0.9,0,0,0.9,0,2.1s0.9,2.1,2.1,2.1h39.3c1.1,0,2.1-0.9,2.1-2.1S42.5,0,41.4,0z"/>
				</g>
			</g>
		</g>
		<g>
			<g>
				<path fill="#E8EAE8" d="M22.4,38.1v-7.4h-1.3v7.4c-0.8,0.3-1.5,1-1.5,2c0,1.2,0.9,2.1,2.1,2.1c1.2,0,2.1-0.9,2.1-2.1
					C23.8,39.2,23.2,38.4,22.4,38.1z M21.7,41c-0.5,0-0.8-0.4-0.8-0.8c0-0.5,0.4-0.8,0.8-0.8c0.5,0,0.8,0.4,0.8,0.8
					C22.6,40.6,22.2,41,21.7,41z"/>
			</g>
		</g>
	</g>
	<g>
		<g>
			<path fill="#425A6B" d="M30.7,36.2c0,0,2.3,2.3,5.4,2.1c3.1-0.1,6.4-1.8,6.4-1.8c2.5,2.7,2.8,6.7,1.8,11.5H29.5
				C29.5,45.1,29.7,38.3,30.7,36.2z"/>
		</g>
	</g>
	<g>
		<g>
			<g>
				<g>
					<path fill="#FFD15C" d="M18.8,21.7c0,0-0.1-0.3,0.1-0.4c0,0,0,0,0.1,0c0,0,0.2,0.4,0.8,0.6c0.6,0.2,1,0.3,1.2,0.3
						c0,0,0.2,0,0.4,0.2c0.2,0.2,0.8,0.7,0.8,0.7s0.2,0.2,0.4,0.6s0.6,0.6,0.6,0.6l1,0.7l-1,2.4l-1-0.9c0,0-0.5-0.4-0.9-0.4
						c-0.5,0-0.8-0.2-0.8-0.2l-0.8-0.5c0,0-0.5-0.3-0.4-0.9c0,0-0.4-0.4-0.3-0.9c0,0-0.6-0.3-0.6-0.5s0-0.4,0.1-0.4
						c0,0-0.8-0.6-0.7-1.2c0.1-0.6,1.1,0.6,1.1,0.6L18.8,21.7z"/>
				</g>
			</g>
			<g>
				<g>
					<g>
						<g>
							<path fill="#48B9A5" d="M43.5,27.6h4.4l0-0.9c0,0,0,0,0-2.6c0-2.6-1-3.4-1-3.4s-2-2.3-2.5-2.7c-0.4-0.4-2.6-1.9-2.6-2
								c0,0,0,0,0,0L39,17.3l-2.3,0.1l-0.1-0.1L36.1,17l-0.8,0.7l-0.2,0l-1.8,1.1c0,0-0.6,0.3-0.8,0.9c-0.1,0.3-0.3,0.9-0.5,1.4
								c0,0.2-0.1,0.4-0.1,0.6c-0.1,0.4-0.2,0.7-0.3,1.1c-0.1,0.2-0.1,0.4-0.2,0.6c-0.1,0.4-0.1,0.4,0,0.1c0,0.4-0.1,0.8-0.2,1.1
								c0,0,0,0,0,0c0,0,0.1,0.6-0.5,1.3c-0.6,0.7-0.4,1.6-0.4,1.6s-0.2,0-0.3,0.2c0,0-0.9-0.6-3.3-1.2l-2.4-1.5
								c0,0-0.7,1.9-1.2,2.4l-0.2,0.7l2.1,1.2c0,0,2.1,1.8,4,2.5c1.8,0.7,1.8,0.9,1.8,0.9c0,0-0.1,2.7,0.2,3.6c0.3,0.8,0.3,1,0.3,1
								c2.1,1.2,4.5,1.5,7.2,0.8l3.8-0.4l0.7-0.6c-0.5-1,1-3.8,1.8-6.1L43.5,27.6z"/>
						</g>
					</g>
				</g>
				<g>
					<g>
						<path fill="#425A6B" d="M35.3,33.6c0,0-0.9,2.4,0.9,2.9C37.9,37.1,36.7,33.6,35.3,33.6z"/>
					</g>
				</g>
				<g>
					<g>
						<g>
							<path fill="#F5B54C" d="M38.3,17.7l2.7-2.3l-0.4-2.1l-0.2-1.5l-1.1-1.2l-5.6,3.7c0.4,0.6,0.9,0.9,1.3,1.1
								c0.4,0.2,0.7,0.4,0.9,0.7c0,0,0,0,0,0c0.2,0.4,0.5,1,0.8,1.6H38.3z"/>
						</g>
					</g>
				</g>
				<g>
					<g>
						<g>
							<path fill="#FFD15C" d="M35.7,6.3l-0.6,0.6c0,0-1.1,1.4-1.3,1.9c-0.2,0.5-0.1,0.7-0.1,0.7s0.1,0.4,0,0.6
								c-0.1,0.2-0.7,0.9-0.8,1.1c-0.1,0.2-0.2,0.7,0.2,0.7l0.3,0c0,0,0.2,0.1,0.2,0.3c0,0.2,0,0.5,0.2,0.5c0,0-0.2,0.1-0.2,0.3
								c0,0,0.2,0.1,0.2,0.4c0,0.3-0.4,0.8,0.3,1.2c0.7,0.4,3.9-0.1,5.4-3.6C40.9,7.6,37.4,5.8,35.7,6.3z"/>
						</g>
					</g>
				</g>
				<g>
					<g>
						<g>
							<path fill="#344A5E" d="M37.1,11.2"/>
						</g>
					</g>
					<g>
						<g>
							<g>
								<path fill="#344A5E" d="M41.3,12.2c-0.4,0.2-0.7,1.1-0.7,1.1c-0.2-0.4-1.3-0.2-1.3-0.2c-0.1-0.4-0.2-1.3-0.2-1.8
									c0-0.3-0.1-0.5-0.2-0.8c-0.2-0.2-0.4-0.4-0.8-0.3c-0.6,0.1-0.9,0.7-1,1l-0.6-0.2c0.3-0.6,0.5-1.7,0.1-1.9c0,0,0,0,0,0
									c-0.5-0.3-0.5-0.9-0.2-1.3c0.7-0.8,1.1-0.7,1.2-0.7c0,0-0.1,0-0.7-0.3c-0.7-0.3-1.7-0.1-1.7-0.1s-0.4-0.1-0.4-0.7
									c0-0.2,0.1-0.3,0.2-0.5c0.2-0.4,0.7-0.7,1.2-0.7c1.3-0.1,3.4,0.5,4.5,1.2C41.9,7,42,8.4,42,9.6C42.1,10.8,41.7,12,41.3,12.2
									z"/>
							</g>
						</g>
					</g>
				</g>
				<g>
					<g>
						<path fill="#67C5B8" d="M37.4,17.7l-0.2,1l-1,1.8c0,0-0.2,0.3-0.2,0.5c0,0.2-1,2.3-1,2.3s-0.3,0.8-0.3,1
							c0,0.2-0.5,1.9-0.5,1.9S34,27.5,34,27.9c0,0.4-0.7,7.5,0,9.3c0.1,0.4,0.3,0.7,0.3,0.9c-0.4-0.1-0.8-0.1-1.2-0.3L33,37.1
							c0,0-0.3-5.5,0-7.7c0.3-2.2,0.8-3.7,0.8-3.7s0.3-1.2,0.4-1.7c0.1-0.5,0.9-2.2,1.1-3.2c0.2-1,1.1-2.2,1.1-2.2l0-0.8l0.5-0.3
							l0.2-0.1l0.1,0.1L37.4,17.7z"/>
					</g>
				</g>
				<g>
					<g>
						<path fill="#F3F3F3" d="M42.7,36.1l0.4,1.2c0,0-1.8,1.4-5.3,1.6c-3.4,0.2-3.4,0.2-3.4,0.2l-2-0.9c0,0-1.7-1.3-1.8-2l0.3-0.9
							v0.2c0,0,1.1,1.6,2.1,1.9c1,0.3,3.7,0.1,5.5-0.2C40.4,37,42.3,36.5,42.7,36.1z"/>
					</g>
				</g>
				<g>
					<g>
						<g>
							<path fill="#F26F5A" d="M34.7,37.9l0.2,1.2c0,0.1,0,0.1-0.1,0.1c-0.3,0-1.1,0.1-2.2-0.4c0,0-0.1-0.1-0.1-0.1l-0.1-1.3
								c0-0.1,0.1-0.2,0.2-0.1c0.4,0.2,1.3,0.5,2,0.5C34.7,37.8,34.7,37.8,34.7,37.9z"/>
						</g>
					</g>
				</g>
				<g>
					<g>
						<path fill="#67C5B8" d="M35.9,17.2c0,0-0.6,0.4-0.8,0.6L35,18.6c0,0,0.9-0.1,1.1-0.9c0.2-0.8,0.6-0.1,0.6-0.1
							c-0.3-0.6-0.5-1.2-0.8-1.6C35.9,16.1,35.8,16.8,35.9,17.2z"/>
					</g>
				</g>
				<g>
					<g>
						<polyline fill="#CED6E0" points="27.2,33.3 31.7,32.1 34.8,32.4 31.9,33.5 27.2,33.6 						"/>
					</g>
				</g>
				<g>
					<g>
						<polygon fill="#E8EAE8" points="27,34 27.2,33.3 31.5,33.3 35.5,31.2 38.9,30.1 40.4,31.9 37.6,32.6 31.6,33.7 30.3,33.8 
													"/>
					</g>
				</g>
				<g>
					<g>
						<path fill="#F26F5A" d="M35.9,31.8l-3.3,1.5l-2.1,0.5L26.8,34c-0.2,0-0.2,0.1,0,0.1l9.8-0.6l3.7-1.6L35.9,31.8z"/>
					</g>
				</g>
				<g>
					<g>
						<g>
							<path fill="#FFD15C" d="M32.9,32.5c0,0-0.9-0.1-1.9,0.2c0,0-0.2-0.1-0.8,0.2c0,0-0.1-0.3-0.5,0c-0.4,0.3-0.7,0.5-0.7,0.5
								l0,1.1l1.2,0.5l0.8,0.7c0,0,0.4,0.1,1.2,0c0.8-0.1,1.9,0.1,1.9,0.1s1,0.2,1.2,0.1c0.2,0,1.1,0,1.1,0l-0.4-2l-0.8-0.2
								c0,0-0.2,0.1-0.4,0.1c0,0-0.1-0.6-1-0.6l-0.4,0.1c0,0-0.5-0.4-1-0.3C32.5,32.9,33,32.9,32.9,32.5z"/>
						</g>
					</g>
				</g>
				<g>
					<g>
						<g>
							<path fill="#F5B54C" d="M32.4,32.8c-0.2,0-0.7,0.3-0.3,0.7c0.1,0.2,0.7,0.5,0.7,0.5l0.4,0.2l-0.5-0.1l0.3,0.3l-0.4-0.2
								c0,0,0.1,0.3-0.1,0.4c0,0,0.1-0.2,0-0.3L32.3,34c0,0-0.5-0.4-0.5-0.6c0-0.2,0.1-0.3-0.2-0.4c0,0,0.1-0.1,0.2,0
								C31.8,33,32.1,32.7,32.4,32.8z"/>
						</g>
					</g>
				</g>
				<g>
					<g>
						<g>
							<path fill="#F5B54C" d="M30.8,32.8c0,0-0.1,0.1-0.1,0.1c0,0,0,0.1,0,0.1c0,0.2,0,0.3,0,0.5c0,0.2,0.1,0.3,0.1,0.5
								c0,0.2,0.1,0.3,0.1,0.5c-0.1-0.3-0.1-0.7-0.2-1c0-0.2,0-0.3,0-0.5C30.8,32.9,30.8,32.9,30.8,32.8c0.1,0,0.1,0,0.1,0l0.1-0.1
								l0,0l0,0c0,0,0,0,0,0c0,0,0,0,0,0c0,0,0,0,0,0L31,32.7C30.9,32.7,30.9,32.7,30.8,32.8z"/>
						</g>
					</g>
					<g>
						<g>
							<path fill="#F5B54C" d="M30.3,32.8L30.3,32.8C30.3,32.8,30.3,32.8,30.3,32.8c0,0.1-0.1,0.2-0.1,0.2c0,0.1-0.1,0.2,0,0.3
								c0,0,0,0.1,0,0.1l0,0.1l0.1,0.2c0.1,0.3,0.2,0.7,0.3,1c-0.1-0.3-0.2-0.7-0.3-1l-0.1-0.2c0-0.1-0.1-0.2-0.1-0.2
								c0-0.1,0-0.2,0-0.2C30.3,33,30.3,32.9,30.3,32.8L30.3,32.8L30.3,32.8C30.3,32.8,30.3,32.8,30.3,32.8
								C30.3,32.8,30.3,32.8,30.3,32.8C30.3,32.8,30.3,32.8,30.3,32.8C30.3,32.8,30.3,32.8,30.3,32.8L30.3,32.8z"/>
						</g>
					</g>
					<g>
						<g>
							<path fill="#F5B54C" d="M29.6,33.7c0-0.1,0-0.1,0-0.1c0-0.1,0-0.1,0-0.1c0,0,0.1-0.1,0.1-0.1c0.2-0.2,0.3-0.3,0.5-0.5l0,0
								c0,0,0,0,0,0l0,0c0,0,0,0,0,0c-0.2,0.2-0.3,0.3-0.5,0.5c0,0-0.1,0.1-0.1,0.1c0,0.1-0.1,0.1-0.1,0.2
								C29.5,33.6,29.5,33.6,29.6,33.7l0,0.2c0.2,0.4,0.4,0.7,0.6,1.1l0,0c-0.2-0.4-0.4-0.8-0.5-1.1L29.6,33.7z"/>
						</g>
					</g>
				</g>
				<g>
					<g>
						<path fill="#67C5B8" d="M47.9,26.7c0,0,0,0,0-2.6c0,0,0,0,0-0.1c0-1.8-1.5-3.3-3.3-3.3l0,0c-2.3,0-3.9,2.3-3.1,4.5
							c0.1,0.4,0.2,0.6,0.2,0.6c-0.2,2.4,1.3,4.9,1.4,5c0.2,0.1,0,0.2-0.1,0.2c-0.1,0-0.1,0.2-0.2,0.4c-0.1,0.2,0.1,0.2,0.3,0.4
							c0.2,0.2,0,0.2,0,0.2l-3.1,1c0,0-0.1,0.3-0.7,0.2c-0.6-0.1-0.8,0.4-0.8,0.4l-3.1,0.2c1.4,0.7,0.6,3.1,0.6,3.1
							c2.5,0.7,2.9,0,2.9,0l3.5-0.1c0,0,2.6-0.5,3.7-0.6c1.2-0.1,1-0.7,1.5-1.8C48.1,33,48,32,48,32L47.9,26.7z"/>
					</g>
				</g>
				<g>
					<g>
						<g>
							<path fill="#67C5B8" d="M36.8,17.4c0,0,2.5-1.4,3.2-2c0.7-0.5,1.3-0.8,0.8-1.2c0,0,0.4,0.1,0.4,0.4c0.1,0.3,0.6,1.3,0.6,1.3
								s-1,1.2-2,1.9c-1,0.7-1.5,1.3-1.5,1.3S36.9,17.7,36.8,17.4z"/>
						</g>
					</g>
				</g>
			</g>
			<g>
				<g>
					<path fill="#425A6B" d="M10.6,11.4l11.1,13.9c0.1,0.1,0.1,0.3,0,0.4c-0.1,0.1-0.3,0.1-0.4,0c0,0,0,0,0,0L10.5,11.5
						C10.5,11.4,10.5,11.4,10.6,11.4C10.6,11.3,10.6,11.3,10.6,11.4z"/>
				</g>
			</g>
			<g>
				<g>
					<g>
						<path fill="#F5B54C" d="M20.4,24.5l0.4,0l0.2,0c0.1,0,0.1,0,0.2,0c0.1,0,0.1,0,0.2-0.1c0-0.1,0-0.1,0-0.2c0,0,0-0.1,0-0.1
							c0,0,0,0-0.1-0.1c-0.1,0-0.1,0-0.2,0h0l0-0.1c0.1,0,0.1,0,0.1-0.1c0-0.1,0.1-0.1,0-0.2c0-0.1,0-0.1-0.1-0.2c0,0,0,0-0.1-0.1
							c0,0-0.1,0-0.1,0c-0.1,0-0.1,0-0.2,0c-0.1,0-0.1,0-0.2,0c-0.1,0-0.3,0-0.4,0c0.1,0,0.3,0,0.4,0c0.1,0,0.1,0,0.2,0
							c0.1,0,0.1,0,0.2,0c0,0,0.1,0,0.1,0c0,0,0.1,0,0.1,0.1c0.1,0.1,0.1,0.1,0.1,0.2c0,0.1,0,0.2,0,0.2c0,0,0,0.1-0.1,0.1
							c0,0-0.1,0-0.1,0l0-0.1h0c0.1,0,0.1,0,0.2,0.1c0,0,0.1,0,0.1,0.1c0,0,0,0.1,0,0.1c0,0.1,0,0.2,0,0.2c0,0.1-0.1,0.1-0.2,0.1
							c-0.1,0-0.1,0-0.2,0l-0.2,0L20.4,24.5z"/>
					</g>
				</g>
			</g>
			<g>
				<g>
					<g>
						<path fill="#F5B54C" d="M19.4,23.1c0,0,0.2,0,0.4,0c0.1,0,0.1,0,0.2,0c0.1,0,0.1,0,0.2-0.1c0.1,0,0.1-0.1,0.1-0.2
							c0-0.1,0-0.2-0.1-0.2c0-0.1-0.1-0.1-0.2-0.1c-0.1,0-0.2,0-0.2-0.1c-0.1,0-0.1,0-0.2,0c-0.1,0-0.1,0-0.2,0c-0.3,0-0.4,0-0.4,0
							s0.2,0,0.4-0.1c0.1,0,0.1,0,0.2,0c0,0,0.1,0,0.1,0c0,0,0.1,0,0.1,0c0.1,0,0.2,0,0.2,0.1c0,0,0.1,0,0.1,0c0,0,0,0,0.1,0
							c0,0,0,0,0,0c0,0,0,0,0,0c0.1,0.1,0.1,0.2,0.1,0.3c0,0.1,0,0.2-0.1,0.2c-0.1,0-0.2,0.1-0.2,0.1c-0.1,0-0.1,0-0.2,0
							C19.6,23.1,19.4,23.1,19.4,23.1z"/>
					</g>
				</g>
			</g>
			<g>
				<g>
					<path fill="#FFD15C" d="M21.5,24.1c0-0.2-0.3-0.2-0.3-0.2c0.2,0,0.2-0.2,0.2-0.3c0-0.1,0-0.2-0.2-0.3c-0.2-0.1-0.9,0-0.9,0
						s-0.6,0-0.8,0c-0.4,0,0-0.2,0-0.2h0.5c0.1,0,0.2,0,0.4-0.1c0.2-0.1,0.1-0.4,0-0.5c-0.1-0.1-0.5-0.2-0.6-0.2
						c-0.1,0-0.5,0-0.7,0.1c-0.2,0-0.5,0.3-0.5,0.3c0,0,0,0,0,0c-0.1,0-0.1,0.2-0.1,0.4s0.6,0.5,0.6,0.5c-0.1,0.5,0.3,0.9,0.3,0.9
						c-0.2,0.6,0.4,0.9,0.4,0.9l0.1,0.1l0.6-1c0,0,0.6-0.1,0.8-0.1C21.4,24.4,21.5,24.3,21.5,24.1z"/>
				</g>
			</g>
			<g>
				<g>
					<g>
						<g>
							<polygon fill="#F5B54C" points="19.4,24.6 19.4,24.6 19.4,24.6 							"/>
						</g>
					</g>
					<g>
						<g>
							<g>
								<path fill="#F5B54C" d="M21.1,23.9L21.1,23.9L21.1,23.9c-0.2,0-0.5,0-0.7,0c-0.1,0-0.2,0-0.3,0c-0.1,0-0.2,0-0.3,0
									c-0.1,0.1-0.1,0.2-0.2,0.2c-0.1,0.1-0.1,0.2-0.2,0.3l-0.1,0.1c0.1-0.2,0.2-0.3,0.3-0.5c0-0.1,0.1-0.1,0.1-0.2l0,0l0,0
									c0.1,0,0.2,0,0.3-0.1c0.1,0,0.1,0,0.2,0C20.5,23.9,20.8,23.9,21.1,23.9z"/>
							</g>
						</g>
					</g>
				</g>
				<g>
					<g>
						<g>
							<path fill="#F5B54C" d="M19.4,23.3c-0.1,0.1-0.2,0.2-0.2,0.2c0,0.1-0.1,0.1-0.1,0.2c0-0.1,0.1-0.2,0.1-0.2
								S19.3,23.3,19.4,23.3z"/>
						</g>
					</g>
				</g>
			</g>
			<g>
				<g>
					<g>
						<g>
							<path fill="#F3F3F3" d="M19.8,22.9c0,0,0,0.1,0.2,0.1s0.2,0,0.2,0s0.2,0,0.2-0.2c0,0,0,0,0-0.1c0-0.1-0.1-0.2-0.2-0.2
								c-0.1,0-0.2,0-0.2,0c0,0-0.1,0-0.1,0.1C19.8,22.7,19.8,22.9,19.8,22.9z"/>
						</g>
					</g>
				</g>
				<g>
					<g>
						<g>
							<path fill="#F3F3F3" d="M20.8,23.4c0,0,0.1,0.2,0,0.3c0,0,0.3,0.2,0.4,0.1c0.1-0.1,0.1-0.3,0-0.4
								C21.2,23.4,20.9,23.4,20.8,23.4z"/>
						</g>
					</g>
				</g>
				<g>
					<g>
						<g>
							<path fill="#F3F3F3" d="M21.3,24.3c-0.1,0-0.2,0-0.3-0.1c0-0.1,0-0.2,0-0.2c0,0,0.2,0,0.3,0C21.5,24.1,21.5,24.3,21.3,24.3z"
								/>
						</g>
					</g>
				</g>
			</g>
		</g>
	</g>
	<g>
		<g>
			<polygon fill="#344A5E" points="34.9,48 33.2,48 34.6,43.1 			"/>
		</g>
	</g>
</g>
</svg>
