<?xml version="1.0" encoding="utf-8"?>
<!-- Generator: Adobe Illustrator 16.0.0, SVG Export Plug-In . SVG Version: 6.00 Build 0)  -->
<!DOCTYPE svg PUBLIC "-//W3C//DTD SVG 1.1//EN" "http://www.w3.org/Graphics/SVG/1.1/DTD/svg11.dtd">
<svg version="1.1" id="Layer_1" xmlns="http://www.w3.org/2000/svg" xmlns:xlink="http://www.w3.org/1999/xlink" x="0px" y="0px"
	 width="48px" height="48px" viewBox="0 0 48 48" enable-background="new 0 0 48 48" xml:space="preserve">
<g>
	<path fill="#E7E9E8" d="M17.091,46.001c-4.013,4.012-14.78,0.742-14.78,0.742S-2.521,35.529,1.79,31.202l7.647-7.646l2.457,2.463
		c1.895,1.9,4.971,1.9,6.867,0.002l13.743-13.765l3.256,3.255L22,29.283c-1.893,1.893-1.893,4.96-0.003,6.855l2.47,2.475
		L17.091,46.001z"/>
	<polygon fill="#65C5B8" points="24.189,27.092 35.761,15.511 32.505,12.255 20.938,23.842 	"/>
	<path fill="#41596B" d="M35.932,12.097c-1.307-1.31-1.905-3.597,0.99-7.226c1.801,2.342,3.873,4.416,6.213,6.221
		C39.51,13.99,37.241,13.407,35.932,12.097 M37.01,0l-0.44,0.44c-0.603,0.604-1.156,1.223-1.677,1.847v0.001
		c-4.424,5.305-4.487,9.807-1.73,12.567c3.082,3.086,8.667,2.327,14.398-3.411L48,11.004C45.016,6.656,41.352,2.988,37.01,0"/>
</g>
</svg>
