<?xml version="1.0" encoding="utf-8"?>
<!-- Generator: Adobe Illustrator 18.0.0, SVG Export Plug-In . SVG Version: 6.00 Build 0)  -->
<!DOCTYPE svg PUBLIC "-//W3C//DTD SVG 1.1//EN" "http://www.w3.org/Graphics/SVG/1.1/DTD/svg11.dtd">
<svg version="1.1" id="Layer_1" xmlns="http://www.w3.org/2000/svg" xmlns:xlink="http://www.w3.org/1999/xlink" x="0px" y="0px"
	 viewBox="0 0 48 48" enable-background="new 0 0 48 48" xml:space="preserve">
<g>
	<g>
		<g>
			<g>
				<path fill="#E8EAE9" d="M47,15.3v19.6C47,41.4,23.8,48,23.8,48V12.5c2.1-1.7,6.2-2.9,10.8-2.9C41.4,9.6,47,12.1,47,15.3z"/>
			</g>
			<g>
				<g>
					<g>
						<path fill="#F3F3F3" d="M23.8,12.5V48c0,0-23.2-6.6-23.2-13.1V15.3c0-3.1,5.6-5.7,12.4-5.7C17.6,9.6,21.7,10.7,23.8,12.5z"/>
					</g>
				</g>
			</g>
			<g>
				<g>
					<g>
						<path fill="#FFD15C" d="M23.8,34.9v6.5c0,0-23.2-6.6-23.2-13.1v-6.6C0.6,28.3,23.8,34.9,23.8,34.9z"/>
					</g>
				</g>
			</g>
			<path fill="#F7B64C" d="M47,21.8v6.6c0,6.5-23.2,13.1-23.2,13.1v-6.5C23.8,34.9,47,28.3,47,21.8z"/>
			<g>
				<g>
					<path fill="#344A5E" d="M0.7,14.6c-0.7,4-0.9,7.6-0.4,11.6c0,0.3,0.1,0.6,0.4,0.7C1,27,1.3,26.5,1.3,26.1
						c0-0.4-0.2-0.8-0.1-1.2c0.2-0.6,1.1-0.5,1.5-0.1c0.4,0.4,0.5,1.1,0.6,1.7c0.2,1.9,0.4,3.7,0.7,5.6c0.1,1.1,0.3,2.2,0.9,3.1
						c0.7,0.9,2,1.3,2.8,0.6c0.4-0.4,0.6-0.9,1-1.4c0.3-0.5,1-0.8,1.4-0.5c0.7,0.5,0.2,1.9,1,2.2c0.5,0.2,1.1-0.3,1.2-0.9
						s-0.1-1.1,0-1.7c0.1-1.4,1.6-2.3,2.9-2.8c1.3-0.5,2.8-0.9,3.6-2c0.8-1.2,0.6-2.9-0.3-4.2c-0.8-1.2-2.1-2-3.4-2.7
						c-3.9-2.1-8.3-3.8-11.1-7.3"/>
				</g>
				<path fill="#344A5E" d="M12.4,32.3c0.8-1,2-1.4,3.2-1.7c1.2-0.3,2.5-0.5,3.5-1.2c0.6-0.4,1.2-0.9,1.8-0.6c0.5,0.2,0.8,0.8,1,1.3
					c0.2,0.5,0.7,1,1.2,0.9c0-0.6,0.4-1.1,0.9-1.4c-0.7,0.7-0.6,1.9,0.1,2.5c0.7,0.6,2,0.4,2.5-0.4c0.4-0.6,0.4-1.4,1-1.7
					c0.5-0.2,1.3,0.1,1.7-0.3c0.3-0.3,0.3-0.8,0.1-1.2c-0.6-1.8-2.5-3-4.3-3.5c-1.9-0.4-3.8-0.3-5.8-0.5c-1.1-0.1-2.1-0.2-3.1,0.1
					c-1.1,0.4-1.9,1.3-2.2,2.4"/>
				<g>
					<path fill="#344A5E" d="M24.4,28.1c-0.2,1-0.3,1.9-0.1,2.8c0.3,0.9,1.1,1.5,2,1.2c0.5-0.2,0.9-0.7,1.4-0.9
						c0.7-0.2,1.3,0.2,1.6,0.8c0.3,0.6,0.4,1.3,0.5,2c0.1,0.7,0.4,1.4,0.9,1.7c0.9,0.5,2.1,0,2.9-0.9c0.8-0.9,1.3-2,2.1-2.9
						c0.7-0.9,1.9-1.7,2.9-1.4c0.8,0.2,1.3,1,1.5,1.9c0.3,0.8,0.4,1.7,0.8,2.5c0.4,0.7,1.3,1.3,2.1,0.9c0.8-0.4,1.5-1.4,1.5-2.3
						c0.2-3.9,2.8-3.8,2.5-5.6c0.3,0.1,0.6-0.2,0.8-0.5c0.1-0.3,0.1-0.7,0.1-1c-0.1-1.6-0.3-3.3-0.4-4.9c-0.1-1.8-0.3-3.6-0.4-5.4
						c-0.1-0.8-0.2-1.7-0.8-2.2c-0.8-0.7-2-0.1-3,0.5c-3.2,1.9-7.1,3.9-10.4,5.8c-3.3,2-6.6,4-9.2,7L24.4,28.1z"/>
				</g>
			</g>
			<g>
				<path fill="#415A6B" d="M0.6,15.3c0,5.2,15,10.5,20.9,12.4c1.5,0.5,3.1,0.5,4.6,0C32,25.8,47,20.5,47,15.3
					c0-3.1-5.6-5.7-12.4-5.7c-4.6,0-8.6,1.2-10.8,2.9c-2.1-1.7-6.1-2.9-10.8-2.9C6.2,9.6,0.6,12.1,0.6,15.3z"/>
			</g>
		</g>
		<g>
			<path fill="#344A5E" d="M21,18.4c-0.2,0.6-0.5,1.3-0.4,1.9c0,0.7,0.4,1.3,1.1,1.7c0.4,0.2,0.8,0.3,1.1,0.5
				c0.3,0.2,0.5,0.4,0.7,0.6c1.1,1,3.1,1.5,4.8,1.2c0.5-0.1,1-0.3,1-0.7c0-0.3-0.4-0.5-0.5-0.8c-0.2-0.3-0.1-0.6,0-0.9
				c0.2-1.3-0.5-2.6-1.7-3.4c-0.7-0.5-1.6-0.8-2.5-0.9c-0.9-0.1-1.9,0.1-2.6,0.5"/>
		</g>
		<g>
			<g>
				<path fill="#F3F3F3" d="M20.7,7.6v12.1c0,0.6,0.4,1.2,0.9,1.4c1.4,0.6,2.8,0.6,4.3,0c0.6-0.2,0.9-0.8,0.9-1.4V7.6H20.7z"/>
			</g>
			<g>
				<g>
					<path fill="#FFD15C" d="M26.2,4.4C26.2,3,23.8,0,23.8,0s-2.4,3-2.4,4.4c0,1.3,1.1,2.4,2.4,2.4C25.1,6.8,26.2,5.7,26.2,4.4z"/>
				</g>
				<g>
					<path fill="#F3705A" d="M25.1,5.5c0-0.7-1.3-2.3-1.3-2.3s-1.3,1.6-1.3,2.3s0.6,1.3,1.3,1.3C24.5,6.8,25.1,6.2,25.1,5.5z"/>
				</g>
			</g>
			<g>
				<path fill="#E8EAE9" d="M27.3,9.3c0,0.1-0.1,0.2-0.2,0.2c-0.1,0-0.1,0-0.2-0.1C27,9.8,27,10.3,27,10.7c0,0.1,0,0.2,0,0.3
					c0,0.1-0.1,0.2-0.2,0.2c-0.2,0-0.3-0.2-0.3-0.3c-0.1-0.2,0-0.5-0.1-0.7c0-0.2-0.2-0.5-0.4-0.5c-0.2,0-0.4,0.1-0.5,0.3
					c-0.1,0.2,0,0.5-0.2,0.6c-0.4,0-0.3-0.7-0.7-0.9c-0.2-0.1-0.5-0.2-0.7-0.1c-0.3,0.1-0.6,0.3-0.8,0.6c-0.3,0.2-0.5,0.4-0.9,0.4
					c-0.3,0-0.5-0.2-0.6-0.5c-0.1-0.2-0.1-0.5-0.1-0.8c0-0.2,0-0.5-0.2-0.5c-0.1,0-0.3,0-0.3,0.1c-0.1,0.1-0.1,0.4-0.2,0.4
					c-0.5,0.1-0.4-1-0.3-1.5c0-0.1,0-0.2,0.1-0.4c0.1-0.1,0.2-0.2,0.3-0.2c0.2,0,0.4,0.2,0.6,0.3c0.2,0.1,0.5,0.1,0.7,0
					c0.2-0.1,0.4-0.2,0.6-0.3c0.5-0.2,1.1,0,1.6,0.1c0.5,0.2,1.1,0.3,1.6,0.2c0.2,0,0.3-0.1,0.5-0.1c0.1,0,0.3,0,0.5,0.1
					c0.2,0.1,0.2,0.4,0.2,0.6c0,0.3,0.1,0.6,0.1,0.9C27.3,9.1,27.3,9.2,27.3,9.3z"/>
			</g>
		</g>
		<g>
			<path fill="#344A5E" d="M13.4,22.2c-0.1,0.4-0.2,0.9-0.2,1.4c0,0.5,0.2,0.9,0.6,1.2c0.4,0.3,0.9,0.4,1.4,0.4
				c0.9,0.1,1.9,0.2,2.8,0.3c0.7,0.1,1.5,0.1,1.9-0.4c0.2-0.3,0.3-0.7,0.2-1.1c-0.1-0.4-0.2-0.7-0.4-1c-0.3-0.6-0.6-1.2-1.2-1.5
				c-0.7-0.4-1.6-0.3-2.3,0.1c-0.8,0.3-1.5,0.7-2.2,0.9"/>
		</g>
		<g>
			<g>
				<path fill="#344A5E" d="M31.9,14c-0.1,0.6-0.1,1.2,0.1,1.8c0.2,0.6,0.7,1.1,1.3,1.1c0.3,0,0.6-0.1,0.9-0.2
					c0.5-0.1,1.1,0.1,1.6,0.2c0.5,0.1,1.1,0.1,1.6-0.1c0.5-0.3,0.7-0.8,0.7-1.4c0-0.6-0.2-1.1-0.5-1.5c-0.5-0.7-1.2-1.3-2-1.4
					c-0.6-0.1-1.2,0.1-1.8,0.3c-0.5,0.3-1,0.6-1.5,1"/>
			</g>
			<g>
				<g>
					<circle fill="#F3705A" cx="34.6" cy="13.6" r="2.6"/>
				</g>
				<g>
					
						<ellipse transform="matrix(0.9543 -0.2987 0.2987 0.9543 -2.1861 11.2991)" fill="#FFFFFF" cx="35.9" cy="12.8" rx="0.5" ry="0.8"/>
				</g>
				<g>
					<g>
						<path fill="#415A6B" d="M34.2,11.4c0,0,0.1,0.1,0.2,0.1c0.1,0.1,0.2,0.1,0.3,0.1c0.3,0.1,0.6,0,0.6-0.1c0,0,0,0.1-0.1,0.2
							c-0.1,0.1-0.3,0.2-0.5,0.1c-0.2,0-0.3-0.2-0.4-0.3C34.2,11.5,34.2,11.4,34.2,11.4z"/>
					</g>
				</g>
				<g>
					<path fill="#415A6B" d="M34.5,11.7c0,0,0.1-0.3,0.2-0.6c0.2-0.4,0.5-0.8,0.8-1.2C36,9.4,36.5,9.1,36.8,9
						c0.2-0.1,0.3-0.1,0.5-0.2c0.1-0.1,0.2-0.1,0.2-0.1L37.5,9c0,0-0.3,0-0.6,0.2c-0.3,0.2-0.8,0.4-1.1,0.8
						c-0.4,0.4-0.6,0.8-0.8,1.2c-0.1,0.4-0.2,0.6-0.2,0.6L34.5,11.7z"/>
				</g>
			</g>
		</g>
		<g>
			<g>
				<g>
					<circle fill="#F3705A" cx="15.9" cy="21.6" r="2.9"/>
				</g>
				<g>
					
						<ellipse transform="matrix(0.9543 -0.2987 0.2987 0.9543 -5.3971 6.1147)" fill="#FFFFFF" cx="17.3" cy="20.7" rx="0.5" ry="0.9"/>
				</g>
				<g>
					<g>
						<path fill="#415A6B" d="M15.4,19.1c0,0,0.1,0.1,0.2,0.1c0.1,0.1,0.2,0.2,0.4,0.2c0.3,0.1,0.6-0.1,0.6-0.1c0,0,0,0.1-0.1,0.2
							c-0.1,0.1-0.3,0.2-0.5,0.1c-0.2,0-0.4-0.2-0.5-0.3C15.4,19.2,15.4,19.1,15.4,19.1z"/>
					</g>
				</g>
				<g>
					<path fill="#344A5E" d="M15.8,19.5c0,0,0.1-0.3,0.3-0.7c0.2-0.4,0.5-0.9,0.9-1.4c0.4-0.4,1-0.8,1.4-0.9
						c0.2-0.1,0.4-0.1,0.5-0.2c0.1-0.1,0.2-0.1,0.2-0.1l0.1,0.4c0,0-0.3,0-0.7,0.2c-0.4,0.2-0.9,0.5-1.3,0.9
						c-0.4,0.4-0.7,0.9-0.9,1.3c-0.2,0.4-0.2,0.7-0.2,0.7L15.8,19.5z"/>
				</g>
			</g>
		</g>
	</g>
</g>
</svg>
