<?xml version="1.0" encoding="utf-8"?>
<!-- Generator: Adobe Illustrator 18.0.0, SVG Export Plug-In . SVG Version: 6.00 Build 0)  -->
<!DOCTYPE svg PUBLIC "-//W3C//DTD SVG 1.1//EN" "http://www.w3.org/Graphics/SVG/1.1/DTD/svg11.dtd">
<svg version="1.1" id="Layer_1" xmlns="http://www.w3.org/2000/svg" xmlns:xlink="http://www.w3.org/1999/xlink" x="0px" y="0px"
	 viewBox="0 0 48 48" enable-background="new 0 0 48 48" xml:space="preserve">
<g>
	<g>
		<g>
			<g>
				<path fill="#F3705B" d="M38.1,5.8c-7.8-7.8-20.4-7.8-28.1,0c-7.8,7.8-7.8,20.3,0,28.1L24,48l14-14C45.8,26.2,45.8,13.6,38.1,5.8
					z"/>
				<g>
					<path fill="#E8EAE9" d="M24,34c-7.8,0-14.1-6.3-14.1-14.1c0-7.8,6.3-14.1,14.1-14.1c7.8,0,14.1,6.3,14.1,14.1
						C38.1,27.7,31.8,34,24,34z"/>
				</g>
			</g>
		</g>
		<path fill="#435B6C" d="M24,22c-3.9,0-7.3,1.8-9.6,4.6c2.1,3,5.6,5,9.6,5c4,0,7.5-2,9.6-5C31.3,23.8,27.9,22,24,22z"/>
		<circle fill="#435B6C" cx="24" cy="14" r="5"/>
	</g>
</g>
</svg>
