<?xml version="1.0" encoding="utf-8"?>
<!-- Generator: Adobe Illustrator 18.0.0, SVG Export Plug-In . SVG Version: 6.00 Build 0)  -->
<!DOCTYPE svg PUBLIC "-//W3C//DTD SVG 1.1//EN" "http://www.w3.org/Graphics/SVG/1.1/DTD/svg11.dtd">
<svg version="1.1" id="Layer_1" xmlns="http://www.w3.org/2000/svg" xmlns:xlink="http://www.w3.org/1999/xlink" x="0px" y="0px"
	 viewBox="0 0 48 48" enable-background="new 0 0 48 48" xml:space="preserve">
<g>
	<g>
		<g>
			
				<rect x="30.3" y="29.2" transform="matrix(-0.7071 -0.7071 0.7071 -0.7071 33.4319 80.7117)" fill="#CED6E0" width="6.3" height="8.4"/>
		</g>
		<g>
			<path fill="#F3705A" d="M31.7,40l6.3,6.3c2.3,2.3,6,2.3,8.2,0s2.3-6,0-8.2L40,31.7L31.7,40z"/>
		</g>
		<g>
			
				<rect x="35.5" y="30.9" transform="matrix(-0.7071 -0.7071 0.7071 -0.7071 36.6887 88.5742)" fill="#F05540" width="2.4" height="11.7"/>
		</g>
		<g>
			<path fill="#E8EAE9" d="M9,9c-5.3,5.3-5.3,14,0,19.3s14,5.3,19.3,0s5.3-14,0-19.3S14.4,3.7,9,9z"/>
		</g>
		<g>
			<g>
				<path fill="#415A6B" d="M31.9,31.9c-7.3,7.3-19.1,7.3-26.4,0c-7.3-7.3-7.3-19.1,0-26.4s19.1-7.3,26.4,0
					C39.2,12.8,39.2,24.6,31.9,31.9z M9,9c-5.3,5.3-5.3,14,0,19.3s14,5.3,19.3,0s5.3-14,0-19.3S14.4,3.7,9,9z"/>
			</g>
		</g>
		<g>
			<g>
				<path fill="#F3705A" d="M40.2,32L32,40.2c-0.7,0.7-1.8,0.7-2.4,0c-0.7-0.7-0.7-1.8,0-2.4l8.2-8.2c0.7-0.7,1.8-0.7,2.4,0
					C40.9,30.2,40.9,31.3,40.2,32z"/>
			</g>
		</g>
		<g>
			<g>
				<g>
					<path fill="#F3705A" d="M24.7,16.5H12.7c-1.2,0-2.1,1-2.1,2.1s1,2.1,2.1,2.1h11.9c1.2,0,2.1-1,2.1-2.1S25.8,16.5,24.7,16.5z"/>
				</g>
			</g>
			<g>
				<g>
					<path fill="#F3705A" d="M20.8,24.7l0-11.9c0-1.2-1-2.1-2.1-2.1c-1.2,0-2.1,1-2.1,2.1l0,11.9c0,1.2,1,2.1,2.1,2.1
						C19.9,26.8,20.8,25.8,20.8,24.7z"/>
				</g>
			</g>
		</g>
	</g>
</g>
</svg>
