<?xml version="1.0" encoding="utf-8"?>
<!-- Generator: Adobe Illustrator 16.0.0, SVG Export Plug-In . SVG Version: 6.00 Build 0)  -->
<!DOCTYPE svg PUBLIC "-//W3C//DTD SVG 1.1//EN" "http://www.w3.org/Graphics/SVG/1.1/DTD/svg11.dtd">
<svg version="1.1" id="Layer_1" xmlns="http://www.w3.org/2000/svg" xmlns:xlink="http://www.w3.org/1999/xlink" x="0px" y="0px"
	 width="48px" height="48px" viewBox="0 0 48 48" enable-background="new 0 0 48 48" xml:space="preserve">
<g>
	<path fill="#ACB3BA" d="M30.838,25.318l2.024-4.833l-2.922-2.753c0.074-0.826,0.078-1.637,0.006-2.448l2.949-2.743l-1.982-4.843
		l-4.026,0.113c-0.517-0.629-1.089-1.205-1.721-1.741l0.151-4.012l-4.832-2.025l-2.754,2.923c-0.824-0.075-1.637-0.079-2.447-0.007
		L12.541,0L7.698,1.982L7.815,6C7.187,6.517,6.597,7.094,6.071,7.73L2.058,7.577L0.032,12.41l2.924,2.754
		c-0.084,0.821-0.083,1.646-0.012,2.457L0,20.355l1.983,4.842l4.025-0.113c0.518,0.629,1.089,1.205,1.721,1.741l-0.152,4.013
		l4.832,2.025l2.755-2.923c0.825,0.074,1.637,0.078,2.448,0.006l2.742,2.95l4.842-1.983l-0.111-4.026
		c0.628-0.518,1.204-1.09,1.74-1.722L30.838,25.318z M13.758,22.867c-3.543-1.485-5.214-5.566-3.729-9.109s5.566-5.214,9.109-3.73
		c3.543,1.485,5.215,5.566,3.729,9.11C21.383,22.681,17.301,24.352,13.758,22.867"/>
	<path fill="#4CDBC4" d="M48,38.184v-3.653l-2.622-0.983c-0.174-0.551-0.39-1.074-0.654-1.576l1.156-2.559l-2.578-2.579l-2.56,1.157
		c-0.502-0.265-1.024-0.481-1.575-0.655l-0.982-2.621H34.53l-0.982,2.621c-0.551,0.174-1.074,0.39-1.576,0.655l-2.559-1.157
		l-2.579,2.579l1.157,2.552c-0.266,0.502-0.488,1.032-0.655,1.583l-2.622,0.983v3.653l2.622,0.983
		c0.167,0.551,0.39,1.08,0.655,1.582l-1.157,2.552l2.579,2.58l2.559-1.158c0.502,0.265,1.025,0.481,1.576,0.656L34.53,48h3.654
		l0.982-2.621c0.551-0.175,1.073-0.391,1.575-0.656l2.56,1.158l2.578-2.58l-1.156-2.559c0.265-0.501,0.48-1.024,0.654-1.575
		L48,38.184z M36.357,42.063c-3.149,0-5.706-2.556-5.706-5.706c0-3.149,2.557-5.705,5.706-5.705s5.706,2.556,5.706,5.705
		C42.063,39.507,39.507,42.063,36.357,42.063"/>
	<path fill="#4CDBC4" d="M36.357,38.847c-1.374,0-2.49-1.116-2.49-2.49s1.116-2.49,2.49-2.49s2.489,1.116,2.489,2.49
		S37.731,38.847,36.357,38.847"/>
</g>
</svg>
