<?xml version="1.0" encoding="utf-8"?>
<!-- Generator: Adobe Illustrator 18.0.0, SVG Export Plug-In . SVG Version: 6.00 Build 0)  -->
<!DOCTYPE svg PUBLIC "-//W3C//DTD SVG 1.1//EN" "http://www.w3.org/Graphics/SVG/1.1/DTD/svg11.dtd">
<svg version="1.1" id="Layer_1" xmlns="http://www.w3.org/2000/svg" xmlns:xlink="http://www.w3.org/1999/xlink" x="0px" y="0px"
	 viewBox="0 0 48 48" enable-background="new 0 0 48 48" xml:space="preserve">
<g>
	<path fill="#FF7058" d="M29.6,0H18.4c-1.1,0-2,0.9-2,2v44c0,1.1,0.9,2,2,2h11.2c1.1,0,2-0.9,2-2V2C31.6,0.9,30.7,0,29.6,0z"/>
	<path fill="#84DBFF" d="M13.2,0H2C0.9,0,0,0.9,0,2v44c0,1.1,0.9,2,2,2h11.2c1.1,0,2-0.9,2-2V2C15.2,0.9,14.3,0,13.2,0z"/>
	<rect x="2" y="2" fill="#F2F2F2" width="11.2" height="17.5"/>
	<rect x="18.4" y="2" fill="#F1543F" width="11.2" height="17.5"/>
	<path fill="#FFD15C" d="M46,0H34.8c-1.1,0-2,0.9-2,2v44c0,1.1,0.9,2,2,2H46c1.1,0,2-0.9,2-2V2C48,0.9,47.1,0,46,0z"/>
	<rect x="34.8" y="2" fill="#F8B64C" width="11.2" height="17.5"/>
	<g>
		<rect x="3.1" y="4.4" fill="#CDD6E0" width="9" height="2.5"/>
		<rect x="3.1" y="9.5" fill="#CDD6E0" width="9" height="2.5"/>
		<rect x="3.1" y="14.6" fill="#CDD6E0" width="6.3" height="2.5"/>
	</g>
	<g>
		<rect x="19.5" y="4.4" fill="#F2F2F2" width="9" height="2.5"/>
		<rect x="19.5" y="9.5" fill="#F2F2F2" width="9" height="2.5"/>
		<rect x="19.5" y="14.6" fill="#F2F2F2" width="6.3" height="2.5"/>
	</g>
	<g>
		<rect x="35.9" y="4.4" fill="#F2F2F2" width="9" height="2.5"/>
		<rect x="35.9" y="9.5" fill="#F2F2F2" width="9" height="2.5"/>
		<rect x="35.9" y="14.6" fill="#F2F2F2" width="6.3" height="2.5"/>
	</g>
	<g>
		<circle fill="#F2F2F2" cx="7.6" cy="38.8" r="4.5"/>
		<circle fill="#40596B" cx="7.6" cy="38.8" r="3.4"/>
	</g>
	<g>
		<circle fill="#F2F2F2" cx="24" cy="38.8" r="4.5"/>
		<circle fill="#40596B" cx="24" cy="38.8" r="3.4"/>
	</g>
	<g>
		<circle fill="#F2F2F2" cx="40.4" cy="38.8" r="4.5"/>
		<circle fill="#40596B" cx="40.4" cy="38.8" r="3.4"/>
	</g>
</g>
</svg>
