<?xml version="1.0" encoding="utf-8"?>
<!-- Generator: Adobe Illustrator 18.0.0, SVG Export Plug-In . SVG Version: 6.00 Build 0)  -->
<!DOCTYPE svg PUBLIC "-//W3C//DTD SVG 1.1//EN" "http://www.w3.org/Graphics/SVG/1.1/DTD/svg11.dtd">
<svg version="1.1" id="Layer_1" xmlns="http://www.w3.org/2000/svg" xmlns:xlink="http://www.w3.org/1999/xlink" x="0px" y="0px"
	 viewBox="0 0 48 48" enable-background="new 0 0 48 48" xml:space="preserve">
<g>
	<g>
		<g>
			<path fill="#E8EAE9" d="M37.1,6.1c-1.4-2.3-3.7-3.7-6-4.7c-4.5-1.8-9.6-1.8-14.2,0c-2.3,0.9-4.7,2.4-6,4.7
				c-3.4,5.8-2.8,14.5-2.8,14.5S8.4,31.3,9,32.4c0,0,1.5,8.3,4.9,9.3c0,0,2.1,2.4,3.8,2.7c0,0,1.2,3.5,2.9,3.6
				c0.9,0.1,1.6,0.1,2.1,0c0.8-0.1,1.6-0.1,2.5,0c0.6,0.1,1.3,0.1,2.1,0c1.7-0.1,2.9-3.6,2.9-3.6c1.7-0.3,3.8-2.7,3.8-2.7
				c3.4-0.9,4.9-9.3,4.9-9.3c0.7-1,0.9-11.8,0.9-11.8S40.6,11.8,37.1,6.1z"/>
			<g>
				<g>
					<path fill="#CFD7E1" d="M26,28.8c1.3,0.7,2.8,1.2,4.2,1.5c0.7,0.2,1.5,0.3,2.1,0.8c0.7,0.6,1,1.6,0.9,2.6
						c0,0.9-0.3,1.9-0.4,2.8c0.8-1.3,1.2-2.8,1.1-4.3c0-0.5-0.2-1.1-0.5-1.5c-0.4-0.4-0.9-0.6-1.5-0.8c-1.2-0.4-2.4-0.7-3.6-1.1
						c-0.6-0.2-1.2-0.4-1.8-0.3c-0.6,0.1-1.2,0.5-1.3,1.1"/>
				</g>
				<g>
					<path fill="#CFD7E1" d="M22,28.8c-1.3,0.7-2.8,1.2-4.2,1.5c-0.7,0.2-1.5,0.3-2.1,0.8c-0.7,0.6-1,1.6-0.9,2.6
						c0,0.9,0.3,1.9,0.4,2.8c-0.8-1.3-1.2-2.8-1.1-4.3c0-0.5,0.2-1.1,0.5-1.5c0.4-0.4,0.9-0.6,1.5-0.8c1.2-0.4,2.4-0.7,3.6-1.1
						c0.6-0.2,1.2-0.4,1.8-0.3c0.6,0.1,1.2,0.5,1.3,1.1"/>
				</g>
			</g>
			<g>
				<path fill="#CFD7E1" d="M36,35c-0.3,1.5-0.6,3.1-1.1,4.5c-0.2,0.7-0.5,1.4-0.9,2.1c0,0,0,0,0,0c0.5-0.1,0.9-0.5,1.1-0.9
					c0.5-0.9,0.9-1.8,1.2-2.8c0.7-2.7,0.3-5.7,1.5-8.2l-0.1,0.1C36.9,31.4,36.4,33.2,36,35z"/>
				<path fill="#CFD7E1" d="M14,41.7c-0.4-0.7-0.6-1.4-0.9-2.1c-0.5-1.5-0.7-3-1.1-4.5c-0.4-1.8-0.9-3.6-1.8-5.2l-0.1-0.1
					c1.3,2.5,0.9,5.5,1.5,8.2c0.3,1,0.7,2,1.2,2.9C13.1,41.2,13.5,41.5,14,41.7L14,41.7z"/>
			</g>
			<g>
				<path fill="#E8EAE9" d="M44.5,20.2c-0.2-0.7-0.8-1.3-1.5-1.6c-0.7-0.3-1.4-0.3-2.2-0.3c-0.4,0-0.7,0-1.1-0.1
					c-0.3-0.1-0.7-0.5-0.5-0.8c-0.7,1.7-1.1,2.6-1.2,4.4c-0.1,2.5-0.2,5,0.1,7.5c0.1,0.6,0.2,1.3,0.4,1.8c0.3,0.6,0.7,1.1,1.3,1.4
					c0.6,0.3,1.3,0.2,1.8-0.3c0.6-0.6,0.5-1.5,0.5-2.3c0-1.7,0.3-3.3,1-4.8c0.5-1,0.9-2.1,1.2-3.2C44.5,21.4,44.6,20.8,44.5,20.2z"
					/>
				<path fill="#CFD7E1" d="M42.1,20.2c-0.1,0-0.2,0-0.3,0C41,20.4,40,21.7,40,21.8c-0.1,0.2-0.3,1-0.4,1.1
					c-0.2,0.5-0.2,1.1-0.1,1.6c0.2,0.6,0.6,1.2,0.7,1.8c0.2,0.8-0.2,1.5-0.5,2.2l0.1-0.1c-0.2,0.6-0.3,1.3-0.2,1.9
					c0,0.4,0.2,0.7,0.5,0.9c0.3,0.1,0.6,0,0.8-0.2c0.2-0.2,0.3-0.5,0.4-0.8c0.2-0.6,0.2-1.2,0.3-1.7c0.1-1.2,0.4-2.4,0.9-3.5
					c0.3-0.6,0.6-1.3,0.9-1.9c0.1-0.2,0.2-0.4,0.2-0.6C44.1,21.4,43.3,20.2,42.1,20.2z"/>
			</g>
			<g>
				<path fill="#F15741" d="M31.2,32.8c-1.8,0.9-3.9,1.1-5.8,0.3c-0.5-0.2-0.9-0.4-1.4-0.5c-0.1,0-0.2,0-0.3,0c-0.1,0-0.2,0-0.3,0
					c-0.5,0-1,0.3-1.4,0.5c-1.9,0.7-4,0.6-5.8-0.3c-0.6-0.3-1.2,0.2-1.1,0.8c0.5,2,1.7,5.2,4.2,6.7c1.2,0.8,2.9,0.9,4.3,0.9
					c1.4,0,3.1-0.1,4.3-0.9c2.5-1.6,3.7-4.7,4.2-6.7C32.4,33,31.7,32.5,31.2,32.8z"/>
				<g>
					<path fill="#354B5E" d="M31,33.7c-1.3,5.6-6.4,5.6-7.3,5.5c-0.9,0.1-6,0-7.3-5.5c0,0,3,1.8,6.3,1c0.3-0.1,0.7-0.1,1-0.1
						c0.3,0,0.7,0.1,1,0.1C28,35.5,31,33.7,31,33.7z"/>
				</g>
				<g>
					<g>
						<path fill="#F3F3F3" d="M21.9,36.8c-0.1,0-0.2-0.1-0.2-0.2c0-0.1,0-0.2,0.1-0.3c0.1-0.3,0.2-0.5,0.2-0.8
							c0.1-0.2,0.1-0.4,0.3-0.5c0.2-0.1,0.4,0,0.6,0.2c0.3,0.3,0.6,0.8,0.6,1.2c0,0.2,0,0.4-0.1,0.5C23.4,37,23.2,37,23,37
							C22.7,37,22.3,37,21.9,36.8"/>
					</g>
					<g>
						<path fill="#F3F3F3" d="M21.4,36.8c-0.1,0.1-0.2,0.1-0.3,0.2c-0.1,0-0.2,0-0.3,0c-0.2,0-0.3-0.1-0.4-0.2
							c-0.1-0.1-0.3-0.2-0.3-0.4c-0.1-0.3,0-0.7,0.1-0.9c0.1-0.1,0.2-0.2,0.3-0.4c0.2-0.2,0.5-0.2,0.6,0c0.2,0.3,0.3,0.7,0.4,1.2
							C21.5,36.5,21.4,36.7,21.4,36.8z"/>
					</g>
					<g>
						<path fill="#E8EAE9" d="M19.5,35c0.2,0.4,0.2,0.9,0,1.4c-0.1,0.2-0.1,0.3-0.3,0.4c-0.1,0.1-0.3,0-0.4-0.1
							c-0.1,0-0.2-0.1-0.2-0.2c-0.1-0.1-0.1-0.2-0.1-0.3c0-0.1,0-0.2,0.1-0.3c0.1-0.2,0.1-0.3,0.2-0.5c0.1-0.1,0.1-0.2,0.2-0.3
							c0.1-0.1,0.2-0.2,0.3-0.2C19.3,34.9,19.5,34.9,19.5,35"/>
					</g>
					<g>
						<path fill="#E8EAE9" d="M18.3,35.7c0,0.1-0.1,0.2-0.2,0.3c-0.1,0-0.2,0-0.3-0.1c-0.1-0.1-0.3-0.2-0.3-0.4c0-0.1,0-0.3,0.1-0.4
							c0.1-0.1,0.2-0.2,0.3-0.3c0.1-0.1,0.1-0.1,0.2-0.2c0,0,0,0,0,0c0.1-0.1,0.3,0,0.3,0.1C18.4,35,18.4,35.3,18.3,35.7z"/>
					</g>
				</g>
				<g>
					<path fill="#E8EAE9" d="M25.5,36.3c-0.1-0.3-0.2-0.5-0.2-0.8c-0.1-0.2-0.1-0.4-0.3-0.5c-0.2-0.1-0.4,0-0.6,0.2
						c-0.3,0.3-0.6,0.8-0.6,1.2c0,0.2,0,0.4,0.1,0.5C24,37,24.1,37,24.3,37c0.4,0,0.8-0.1,1.1-0.2c0.1,0,0.2-0.1,0.2-0.2
						C25.6,36.5,25.6,36.4,25.5,36.3z"/>
					<path fill="#E8EAE9" d="M27.2,35.5c-0.1-0.1-0.2-0.2-0.3-0.4c-0.2-0.2-0.5-0.2-0.6,0c-0.2,0.3-0.3,0.7-0.4,1.2
						c0,0.2,0,0.3,0.1,0.5c0.1,0.1,0.2,0.1,0.3,0.2c0.1,0,0.2,0,0.3,0c0.2,0,0.3-0.1,0.4-0.2c0.1-0.1,0.3-0.2,0.3-0.4
						C27.4,36.1,27.3,35.7,27.2,35.5z"/>
					<g>
						<path fill="#E8EAE9" d="M27.8,35c-0.2,0.4-0.2,0.9,0,1.4c0.1,0.2,0.1,0.3,0.3,0.4c0.1,0.1,0.3,0,0.4-0.1
							c0.1,0,0.2-0.1,0.2-0.2c0.1-0.1,0.1-0.2,0.1-0.3c0-0.1,0-0.2-0.1-0.3c-0.1-0.2-0.1-0.3-0.2-0.5c-0.1-0.1-0.1-0.2-0.2-0.3
							c-0.1-0.1-0.2-0.2-0.3-0.2C28,34.9,27.9,34.9,27.8,35"/>
					</g>
					<g>
						<path fill="#E8EAE9" d="M29,35.7c0,0.1,0.1,0.2,0.2,0.3c0.1,0,0.2,0,0.3-0.1c0.1-0.1,0.3-0.2,0.3-0.4c0-0.1,0-0.3-0.1-0.4
							c-0.1-0.1-0.2-0.2-0.3-0.3c-0.1-0.1-0.1-0.1-0.2-0.2c0,0,0,0,0,0c-0.1-0.1-0.3,0-0.3,0.1C28.9,35,28.9,35.3,29,35.7z"/>
					</g>
				</g>
				<g>
					<g>
						<path fill="#E8EAE9" d="M20.2,37.7c0,0.2-0.1,0.3-0.2,0.4c-0.1,0.1-0.3,0.1-0.5,0.1c-0.2-0.1-0.3-0.3-0.4-0.6
							c0-0.1-0.1-0.3,0-0.4c0-0.1,0.1-0.3,0.2-0.3c0.2,0,0.3,0,0.5,0.1c0.2,0.1,0.3,0.2,0.3,0.3C20.2,37.5,20.2,37.6,20.2,37.7z"/>
					</g>
					<g>
						<path fill="#E8EAE9" d="M21.8,38.3c-0.1,0.1-0.1,0.3-0.2,0.4c-0.1,0.1-0.3,0.2-0.4,0.1c-0.2,0-0.3-0.2-0.4-0.4
							c-0.1-0.3-0.2-0.6-0.1-0.8c0-0.1,0.1-0.2,0.2-0.2l0,0c0.2,0,0.4,0,0.6,0c0.2,0.1,0.4,0.2,0.5,0.4C22,38,21.9,38.2,21.8,38.3z"
							/>
					</g>
					<g>
						<path fill="#E8EAE9" d="M23.6,37.9c0,0.2-0.1,0.4-0.1,0.7c-0.1,0.2-0.1,0.4-0.3,0.5c-0.2,0.1-0.4,0-0.6-0.1
							c-0.1-0.1-0.2-0.3-0.3-0.5c-0.1-0.4-0.1-0.6,0-1l0,0c0.3,0,0.6-0.1,0.9,0c0.1,0,0.3,0.1,0.4,0.2
							C23.6,37.6,23.6,37.8,23.6,37.9z"/>
					</g>
					<g>
						<path fill="#E8EAE9" d="M25.2,37.9c0,0.2,0,0.4-0.1,0.5c-0.1,0.2-0.2,0.3-0.4,0.4c-0.2,0.1-0.4,0-0.6-0.1
							c-0.2-0.1-0.2-0.4-0.3-0.6c0-0.2,0-0.3,0-0.5c0,0,0,0,0,0c0-0.1,0.1-0.2,0.2-0.2c0.1,0,0.2,0,0.3,0c0.1,0,0.3-0.1,0.4-0.1
							c0.1,0,0.3,0,0.4,0.1C25.2,37.5,25.2,37.7,25.2,37.9z"/>
					</g>
					<g>
						<path fill="#E8EAE9" d="M26.9,37.7c0-0.1-0.2-0.3-0.2-0.3c-0.1-0.3-0.5-0.3-1-0.1c-0.2,0.1-0.3,0.2-0.3,0.4
							c0,0.1,0,0.3,0.1,0.4c0.1,0.2,0.2,0.4,0.4,0.5c0.2,0.1,0.5,0.1,0.7,0c0.1-0.1,0.2-0.2,0.3-0.3C26.8,38.1,26.9,37.9,26.9,37.7z
							"/>
					</g>
					<g>
						<path fill="#E8EAE9" d="M28,37.2c0,0.2,0,0.3,0,0.5c0,0.1,0,0.2-0.1,0.3c0,0.1-0.1,0.2-0.2,0.3c-0.2,0.1-0.4,0-0.5-0.1
							c-0.1-0.1-0.2-0.3-0.2-0.5c0-0.1,0-0.2-0.1-0.3c0-0.2,0.3-0.3,0.3-0.3c0.1-0.1,0.3-0.1,0.5-0.1c0.1,0,0.2,0,0.3,0.1
							C28,37.1,28,37.1,28,37.2z"/>
					</g>
				</g>
			</g>
			<g>
				<g>
					<path fill="#E8EAE9" d="M9.9,21.8C9.9,20,9.5,19,8.7,17.4c0.1,0.3-0.2,0.7-0.5,0.8c-0.3,0.1-0.7,0.1-1.1,0.1
						c-0.7,0-1.5,0-2.2,0.3c-0.7,0.3-1.3,0.9-1.5,1.6c-0.1,0.6,0,1.2,0.1,1.8c0.3,1.1,0.7,2.2,1.2,3.2c0.7,1.5,0.9,3.2,1,4.8
						c0,0.8,0,1.7,0.5,2.3c0.4,0.4,1.2,0.5,1.8,0.3c0.6-0.3,1-0.8,1.3-1.4c0.3-0.6,0.4-1.2,0.4-1.8C10.1,26.8,10,24.3,9.9,21.8z"/>
					<path fill="#CFD7E1" d="M8.5,24.5c0.2-0.5,0.1-1.1-0.1-1.6c-0.1-0.2-0.4-1-0.4-1.1c0,0-0.9-1.3-1.8-1.6c-0.1,0-0.2,0-0.3,0
						c-1.2,0-2,1.3-1.6,2.4c0.1,0.2,0.1,0.4,0.2,0.6c0.3,0.6,0.6,1.2,0.9,1.9c0.5,1.1,0.8,2.3,0.9,3.5c0,0.6,0.1,1.2,0.3,1.7
						C6.7,30.6,6.8,30.8,7,31c0.2,0.2,0.5,0.3,0.8,0.2c0.3-0.1,0.4-0.5,0.5-0.9c0.1-0.6,0-1.3-0.2-1.9l0.1,0.1
						c-0.3-0.7-0.6-1.4-0.5-2.2C7.9,25.7,8.3,25.2,8.5,24.5z"/>
				</g>
			</g>
			<circle fill="#F3705B" cx="23.8" cy="28.1" r="3.3"/>
			<g>
				<g>
					<path fill="#F15741" d="M27,28.6c-0.3,1.5-1.6,2.7-3.2,2.7c-1.6,0-3-1.2-3.2-2.7c0.8,0.9,2,1.4,3.2,1.4
						C25.1,30.1,26.2,29.5,27,28.6z"/>
				</g>
			</g>
			<g>
				<g>
					<g>
						<path fill="#CFD7E1" d="M12.7,10c0,0,0.1-0.1,0.2-0.2c0.1-0.1,0.1-0.1,0.2-0.2c0.1-0.1,0.2-0.2,0.3-0.3c0.3-0.2,0.6-0.4,1-0.6
							c0.4-0.2,0.9-0.4,1.4-0.5c0.5-0.1,1.1-0.2,1.7-0.2c0.6,0,1.3,0.1,1.9,0.3c0.3,0.1,0.6,0.2,1,0.3c0.2,0.1,0.3,0.1,0.5,0.2
							l0.1,0l0.1,0L21.4,9l0.2,0.1c0.1,0,0.2,0,0.2,0.1c0.2,0,0.3,0.1,0.5,0.1c0.3,0.1,0.7,0.1,1,0.1c0.7,0,1.3-0.1,2-0.3L25.6,9
							l0.2-0.1c0.2-0.1,0.3-0.1,0.5-0.2c0.3-0.1,0.6-0.2,1-0.3c0.2-0.1,0.3-0.1,0.5-0.1c0.2,0,0.3-0.1,0.5-0.1c0.1,0,0.2,0,0.2,0
							c0.1,0,0.2,0,0.2,0c0.1,0,0.2,0,0.2,0c0.1,0,0.2,0,0.2,0c0.6,0,1.2,0.1,1.7,0.2c0.5,0.1,1,0.3,1.4,0.5c0.4,0.2,0.7,0.4,1,0.6
							c0.1,0.1,0.2,0.2,0.3,0.3c0.1,0.1,0.2,0.1,0.2,0.2C34,9.9,34,10,34,10S34,9.9,33.8,9.8c-0.1,0-0.1-0.1-0.3-0.2
							c-0.1-0.1-0.2-0.1-0.3-0.2c-0.1-0.1-0.3-0.2-0.4-0.2C32.6,9.1,32.4,9,32.2,9c-0.4-0.1-0.9-0.3-1.4-0.4
							c-0.5-0.1-1.1-0.1-1.7-0.1c-0.1,0-0.1,0-0.2,0c-0.1,0-0.1,0-0.2,0c-0.1,0-0.1,0-0.2,0c-0.1,0-0.1,0-0.2,0
							c-0.1,0-0.3,0.1-0.5,0.1c-0.1,0-0.3,0.1-0.4,0.1c-0.3,0.1-0.6,0.2-0.9,0.4c-0.2,0.1-0.3,0.1-0.5,0.2c-0.1,0-0.2,0.1-0.3,0.1
							l-0.3,0.1c-0.7,0.2-1.4,0.3-2.1,0.4c-0.4,0-0.7,0-1.1-0.1c-0.2,0-0.4-0.1-0.5-0.1c-0.1,0-0.2-0.1-0.3-0.1l-0.2-0.1l-0.2-0.1
							l-0.2-0.1c-0.2-0.1-0.3-0.1-0.5-0.2c-0.3-0.1-0.6-0.2-0.9-0.4c-0.6-0.2-1.2-0.3-1.8-0.4c-0.6,0-1.1,0-1.7,0.1
							c-0.5,0.1-1,0.2-1.4,0.4c-0.2,0.1-0.4,0.2-0.5,0.2c-0.2,0.1-0.3,0.2-0.4,0.2c-0.1,0.1-0.2,0.2-0.3,0.2
							c-0.1,0.1-0.2,0.1-0.3,0.2C12.7,9.9,12.7,10,12.7,10z"/>
					</g>
					<g>
						<path fill="#CFD7E1" d="M11.9,12.2c0,0,0.1-0.1,0.2-0.2c0.1-0.1,0.1-0.2,0.2-0.3c0-0.1,0.1-0.1,0.1-0.2
							c0.1-0.1,0.1-0.1,0.2-0.2c0.1-0.1,0.3-0.2,0.4-0.4c0.2-0.1,0.3-0.3,0.5-0.4c0.4-0.3,0.9-0.5,1.5-0.7c0.6-0.2,1.2-0.3,1.9-0.3
							c0.2,0,0.4,0,0.5,0c0.1,0,0.2,0,0.3,0c0.1,0,0.2,0,0.3,0c0.4,0.1,0.7,0.2,1.1,0.3c0.2,0.1,0.4,0.1,0.5,0.2
							c0.1,0,0.2,0.1,0.3,0.1l0.1,0l0.1,0c0.2,0.1,0.4,0.1,0.5,0.2c0.2,0.1,0.4,0.1,0.5,0.2c0.7,0.2,1.4,0.3,2.2,0.3
							c0.7,0,1.5-0.2,2.2-0.3c0.2-0.1,0.4-0.1,0.5-0.2c0.2-0.1,0.4-0.1,0.5-0.2c0.4-0.1,0.7-0.2,1.1-0.3c0.4-0.1,0.7-0.2,1.1-0.3
							c0.1,0,0.2,0,0.3,0l0.1,0l0.1,0l0.1,0c0.1,0,0.2,0,0.3,0c0.1,0,0.2,0,0.3,0c0.7,0,1.3,0.1,1.9,0.3c0.6,0.2,1.1,0.4,1.5,0.7
							c0.2,0.1,0.4,0.3,0.5,0.4c0.2,0.1,0.3,0.3,0.4,0.4c0.1,0.1,0.1,0.1,0.2,0.2c0.1,0.1,0.1,0.1,0.1,0.2c0.1,0.1,0.2,0.2,0.2,0.3
							c0.1,0.1,0.2,0.2,0.2,0.2s-0.1-0.1-0.2-0.2c-0.1-0.1-0.1-0.1-0.2-0.2c0,0-0.1-0.1-0.2-0.1c-0.1,0-0.1-0.1-0.2-0.2
							c-0.1-0.1-0.3-0.2-0.4-0.3c-0.2-0.1-0.4-0.2-0.6-0.3c-0.4-0.2-0.9-0.4-1.4-0.6C31.1,10,30.5,10,29.8,10c-0.1,0-0.2,0-0.2,0
							c-0.1,0-0.2,0-0.3,0l-0.1,0l-0.1,0l-0.1,0c-0.1,0-0.2,0-0.2,0.1c-0.3,0.1-0.7,0.2-1,0.3c-0.3,0.1-0.7,0.2-1,0.4
							c-0.2,0.1-0.4,0.1-0.5,0.2c-0.2,0.1-0.4,0.1-0.6,0.2c-0.8,0.2-1.5,0.4-2.4,0.4c-0.8,0-1.6-0.1-2.4-0.3
							c-0.4-0.1-0.7-0.3-1.1-0.4l-0.1,0c0,0,0,0-0.1,0l-0.1,0c-0.1,0-0.2-0.1-0.3-0.1c-0.2-0.1-0.3-0.1-0.5-0.2
							c-0.3-0.1-0.7-0.2-1-0.3c-0.1,0-0.2,0-0.2-0.1c-0.1,0-0.2,0-0.2,0c-0.2,0-0.3,0-0.5-0.1c-0.6,0-1.3,0-1.8,0.2
							c-0.6,0.1-1,0.3-1.4,0.6c-0.2,0.1-0.4,0.2-0.6,0.3c-0.2,0.1-0.3,0.2-0.4,0.3c-0.1,0.1-0.1,0.1-0.2,0.2
							c-0.1,0.1-0.1,0.1-0.2,0.1c-0.1,0.1-0.2,0.2-0.2,0.2C11.9,12.1,11.9,12.2,11.9,12.2z"/>
					</g>
				</g>
			</g>
			<g>
				<g>
					<g>
						<path fill="#F3705B" d="M36.3,22.1c-0.1-0.3-0.2-0.5-0.3-0.8c0.4,0.2,0.8,0,1-0.4c-0.4,0.3-1,0.2-1.4-0.1
							c-0.4-0.3-0.6-0.8-0.8-1.3c-1-2.5-1.6-4-2.7-6.5c-0.7,3.3-2.5,5.3-4.5,8l0.2,0.2c-0.2,0.9,0.2,1.9,0.9,2.6
							c0.7,0.7,1.5,1.1,2.4,1.5c0.6,0.3,1.1,0.6,1.7,0.8c0.4,0.2,0.9,0.4,1.3,0.3c0.4-0.1,0.7-0.4,0.9-0.8c0.6-0.8,0.9-1.8,0.9-2.8
							c0.4,0.3,0.9,0.5,1.4,0.8C36.8,23.4,36.5,22.7,36.3,22.1z"/>
						<g>
							<g>
								<path fill="#CFD7E1" d="M29.9,22.7c0.3,1.3,3.9,1.5,4.8-0.3c0.3-1.5-0.7-2.1-2.6-2.1C30.3,20.5,29.4,21.2,29.9,22.7z"/>
							</g>
							<g>
								<circle fill="#354B5E" cx="32" cy="22.3" r="1.3"/>
							</g>
							<g>
								<circle fill="#FFD15D" cx="32" cy="22.3" r="1"/>
							</g>
							<circle fill="#354B5E" cx="32" cy="22.3" r="0.3"/>
							<g>
								<g>
									<path fill="#AEB4BA" d="M30.8,20.9c-0.2,0.2-0.3,0.4-0.5,0.7C30.2,21.8,30,22,30,22.2c0,0.3,0.1,0.5,0.3,0.7
										c0.1,0.2,0.3,0.4,0.5,0.5c0.2,0.1,0.4,0.2,0.7,0.2c-1,0.2-2.1-0.2-2.6-1.1c-0.1-0.2-0.2-0.3-0.2-0.5c0-0.2,0-0.4,0.1-0.5
										c0.1-0.2,0.3-0.2,0.5-0.3c0.6-0.2,1.1-0.3,1.7-0.4"/>
								</g>
								<g>
									<path fill="#AEB4BA" d="M33.7,20.9c0.5,0.2,0.9,0.6,0.9,1c0,0.3-0.2,0.7-0.4,0.9c-0.2,0.2-0.6,0.4-0.9,0.6
										c0.5-0.1,0.9-0.2,1.3-0.5c0.4-0.3,0.6-0.8,0.4-1.2c-0.1-0.2-0.2-0.3-0.3-0.4c-0.3-0.3-0.7-0.5-1.1-0.7"/>
								</g>
							</g>
							<path fill="#354B5E" d="M30.8,23.5c-0.3-0.1-0.5-0.2-0.8-0.3c-0.2-0.2-0.4-0.4-0.5-0.7c0.4-0.7,1.1-1.3,1.9-1.6
								c0.8-0.2,1.7-0.1,2.5,0.3c0.8,0.4,1.4,1.2,2.3,1.4c-0.2-0.3-0.4-0.6-0.6-0.8c0.2,0,0.3,0,0.5,0c-0.7-0.9-1.6-1.6-2.7-2
								c-1.1-0.4-2.2-0.5-3.3-0.2c0.1-0.1,0.1-0.1,0.2-0.2c0,0-0.1,0-0.1,0c0,0,0,0,0,0c0,0,0,0,0,0c-0.2,0.2-0.4,0.3-0.6,0.3
								c-0.3,0.3-0.6,0.5-0.9,0.7c-0.5,0.3-1.2,0.4-1.8,0.2c0.2,0.2,0.2,0.5,0.1,0.7c-0.2,0.3-0.5,0.4-0.8,0.5
								c-0.3,0.1-0.6,0.2-0.9,0.4c0.5-0.1,0.9-0.3,1.4-0.4c0.2,0,0.3-0.1,0.5,0c0.2,0.1,0.3,0.2,0.3,0.4c0,0.1-0.1,0.2-0.2,0.3
								c0.2,0,0.5,0.1,0.6,0.4c0.2,0.3,0.2,0.6,0.4,0.8c0.2,0.2,0.5,0.3,0.8,0.4c0.3,0.1,0.6,0.3,0.7,0.6c0.3,0.2,0.6,0.4,0.8,0.6
								c-0.3-0.3-0.6-0.6-0.9-0.9c-0.2-0.2-0.4-0.4-0.7-0.6c-0.1-0.1-0.2-0.1-0.3-0.2c-0.1-0.1-0.1-0.3-0.1-0.4
								c0.5,0.2,0.9,0.3,1.4,0.5c0.3,0.1,0.7,0.2,1,0.3c0.8,0.2,1.6,0.1,2.4-0.1c0.4-0.1,0.8-0.3,1.1-0.6c0.3-0.3,0.6-0.7,0.6-1.1
								c-0.5,0.6-1.2,1-2,1.2C32.3,23.7,31.5,23.7,30.8,23.5z"/>
						</g>
					</g>
					<g>
						<path fill="#CFD7E1" d="M26.5,21.4C26.5,21.4,26.4,21.4,26.5,21.4c-0.2-0.1-0.2-0.2-0.3-0.3C26.1,21,26,21,26,20.9
							c-0.1-0.1-0.1-0.1-0.2-0.2c-0.1-0.1-0.1-0.2-0.2-0.3c-0.1-0.1-0.1-0.2-0.2-0.3c-0.1-0.2-0.3-0.5-0.4-0.7
							c-0.1-0.3-0.2-0.6-0.3-0.9c-0.1-0.3-0.2-0.6-0.2-1c0-0.3-0.1-0.7-0.1-1c0-0.3,0.1-0.7,0.1-1c0.1-0.3,0.2-0.7,0.3-1
							c0.1-0.3,0.3-0.6,0.4-0.8c0.1-0.1,0.1-0.2,0.2-0.4c0.1-0.1,0.2-0.2,0.2-0.3c0.1-0.1,0.2-0.2,0.2-0.3c0.1-0.1,0.2-0.2,0.2-0.2
							c0.1-0.1,0.1-0.1,0.2-0.2c0.1-0.1,0.1-0.1,0.2-0.2c0.1-0.1,0.2-0.2,0.3-0.2c0.1,0,0.1-0.1,0.1-0.1s0,0-0.1,0.1
							c0,0.1-0.1,0.1-0.2,0.3c-0.1,0.1-0.2,0.3-0.3,0.4c-0.1,0.2-0.2,0.4-0.3,0.6c-0.1,0.2-0.2,0.4-0.3,0.7
							c-0.1,0.2-0.2,0.5-0.3,0.8c-0.1,0.3-0.2,0.6-0.2,0.9c-0.1,0.3-0.1,0.6-0.1,0.9c0,0.3,0,0.6,0,0.9c0,0.3,0.1,0.6,0.1,0.9
							c0.1,0.3,0.1,0.6,0.2,0.8c0.1,0.3,0.2,0.5,0.3,0.7c0.1,0.1,0.1,0.2,0.2,0.3c0.1,0.1,0.1,0.2,0.2,0.3c0.1,0.2,0.2,0.3,0.3,0.4
							C26.3,21.1,26.4,21.2,26.5,21.4C26.5,21.3,26.5,21.4,26.5,21.4z"/>
					</g>
					<g>
						<path fill="#CFD7E1" d="M25.6,15.6c0,0,0,0,0-0.1c0-0.1,0-0.2,0.1-0.4c0-0.1,0.1-0.2,0.1-0.3c0-0.1,0.1-0.2,0.1-0.3
							c0.1-0.1,0.1-0.2,0.2-0.3c0.1-0.1,0.1-0.2,0.2-0.3c0.1-0.1,0.2-0.2,0.3-0.4c0.1-0.1,0.2-0.2,0.3-0.3c0.2-0.2,0.5-0.5,0.8-0.7
							c0.3-0.2,0.6-0.4,1-0.5c0.2-0.1,0.4-0.1,0.5-0.2c0.1,0,0.2-0.1,0.3-0.1l0.3-0.1c0.4-0.1,0.8-0.1,1.1-0.1
							c0.4,0,0.8,0.1,1.1,0.2c0.3,0.1,0.7,0.2,1,0.4c0.1,0.1,0.3,0.2,0.4,0.2c0.1,0.1,0.3,0.2,0.4,0.2c0.1,0.1,0.2,0.2,0.3,0.3
							c0.1,0.1,0.2,0.2,0.3,0.3c0.1,0.1,0.2,0.2,0.2,0.2c0.1,0.1,0.1,0.1,0.2,0.2c0.1,0.1,0.2,0.2,0.2,0.3c0,0.1,0.1,0.1,0.1,0.1
							s0,0-0.1-0.1c-0.1-0.1-0.2-0.1-0.3-0.3c-0.1-0.1-0.1-0.1-0.2-0.2c-0.1-0.1-0.2-0.1-0.2-0.2c-0.1-0.1-0.2-0.1-0.3-0.2
							C34,13.1,33.9,13,33.8,13c-0.2-0.1-0.5-0.3-0.8-0.4c-0.3-0.1-0.6-0.2-0.9-0.3c-0.3-0.1-0.7-0.1-1-0.1c-0.4,0-0.7,0-1,0.1
							l-0.2,0c-0.1,0-0.2,0-0.3,0.1c-0.2,0-0.3,0.1-0.5,0.2c-0.3,0.1-0.6,0.3-0.9,0.4c-0.3,0.2-0.6,0.3-0.8,0.5
							c-0.2,0.2-0.4,0.4-0.6,0.6c-0.1,0.1-0.2,0.2-0.3,0.3c-0.1,0.1-0.1,0.2-0.2,0.3c-0.1,0.1-0.1,0.2-0.2,0.3
							c-0.1,0.1-0.1,0.2-0.1,0.2c-0.1,0.1-0.1,0.3-0.2,0.3C25.7,15.5,25.6,15.6,25.6,15.6z"/>
					</g>
					<g>
						<g>
							<path fill="#354B5E" d="M28.8,20.1C28.8,20.1,28.8,20.1,28.8,20.1c0.1,0,0.1-0.1,0.2-0.1c0.1-0.1,0.3-0.1,0.5-0.3
								c0.2-0.1,0.4-0.3,0.7-0.5c0.2-0.2,0.4-0.5,0.6-0.7c0.2-0.3,0.4-0.5,0.6-0.8c0.1-0.1,0.2-0.2,0.4-0.3c0.1-0.1,0.3-0.1,0.4-0.2
								c0.3-0.1,0.5-0.1,0.6,0c0.1,0,0.1,0,0.2,0.1c0,0,0.1,0,0.1,0l0,0c0,0,0,0-0.1,0c0,0-0.1,0-0.2,0c-0.1,0-0.2,0-0.2,0
								c-0.1,0-0.2,0.1-0.3,0.1c-0.1,0.1-0.2,0.1-0.3,0.2c-0.1,0.1-0.2,0.2-0.3,0.3c-0.2,0.2-0.4,0.4-0.7,0.7
								c-0.2,0.3-0.5,0.5-0.7,0.7c-0.2,0.2-0.5,0.3-0.7,0.5C29.4,20,29.2,20,29,20.1C29,20.1,28.9,20.1,28.8,20.1
								C28.8,20.1,28.8,20.1,28.8,20.1L28.8,20.1z"/>
						</g>
						<g>
							<path fill="#354B5E" d="M28.3,20.4c0,0,0.1-0.1,0.3-0.2c0.2-0.1,0.5-0.3,0.9-0.4c0.4-0.2,0.8-0.3,1.4-0.4
								c0.3-0.1,0.5-0.1,0.8-0.1c0.3,0,0.6,0,0.8,0c0.3,0,0.6,0.1,0.8,0.2c0.3,0.1,0.5,0.2,0.8,0.4c0.2,0.2,0.4,0.3,0.6,0.5
								c0.2,0.2,0.4,0.3,0.5,0.4c0.2,0.1,0.3,0.2,0.5,0.2c0.2,0,0.3,0.1,0.4,0c0.1,0,0.2,0,0.3-0.1c0.1,0,0.1,0,0.1,0l0,0
								c0,0,0,0-0.1,0.1c-0.1,0-0.1,0.1-0.3,0.1c-0.1,0-0.3,0-0.5,0c-0.2,0-0.4-0.1-0.6-0.2c-0.2-0.1-0.4-0.2-0.6-0.4
								c-0.2-0.1-0.4-0.3-0.6-0.4c-0.4-0.3-0.9-0.5-1.4-0.6c-0.3,0-0.5-0.1-0.8-0.1c-0.3,0-0.5,0-0.8,0.1c-0.5,0.1-1,0.2-1.4,0.4
								c-0.4,0.1-0.7,0.3-0.9,0.4C28.5,20.4,28.3,20.4,28.3,20.4L28.3,20.4z"/>
						</g>
					</g>
					<g>
						<path fill="#CFD7E1" d="M27.4,20.8C27.4,20.8,27.4,20.7,27.4,20.8c-0.1-0.1-0.1-0.1-0.2-0.2c-0.1-0.1-0.1-0.1-0.2-0.2
							c-0.1-0.1-0.1-0.2-0.2-0.3c-0.1-0.1-0.2-0.2-0.2-0.4c-0.1-0.1-0.1-0.3-0.2-0.4c-0.1-0.3-0.2-0.7-0.3-1c0-0.2,0-0.4-0.1-0.5
							c0-0.2,0-0.4,0-0.5c0-0.2,0.1-0.3,0.1-0.5c0.1-0.1,0.1-0.3,0.2-0.4c0.1-0.1,0.1-0.2,0.2-0.3c0.1-0.1,0.1-0.2,0.2-0.2
							c0.1-0.1,0.1-0.1,0.1-0.1c0,0,0.1,0,0.1,0l0.1,0c0,0,0,0,0,0.1c0,0,0,0.1,0,0.2c0,0.1,0,0.2-0.1,0.3c0,0.1,0,0.1,0,0.2
							c0,0.1,0,0.1,0,0.2c-0.1,0.2-0.1,0.5-0.1,0.8c0,0.1-0.1,0.3-0.1,0.5c0,0.2,0,0.3,0,0.5c0,0.3,0.1,0.7,0.1,1
							c0.1,0.3,0.2,0.6,0.3,0.8c0.1,0.1,0.1,0.2,0.2,0.3c0.1,0.1,0.1,0.2,0.1,0.2C27.4,20.6,27.4,20.6,27.4,20.8
							C27.5,20.7,27.5,20.7,27.4,20.8L27.4,20.8z"/>
					</g>
				</g>
				<g>
					<g>
						<path fill="#F3705B" d="M20.3,21.1c-2-2.7-3.8-4.7-4.5-8c-1,2.5-1.6,4-2.7,6.5c-0.2,0.5-0.4,0.9-0.8,1.3
							c-0.4,0.3-1,0.4-1.4,0.1c0.2,0.3,0.7,0.5,1,0.4c-0.1,0.3-0.2,0.5-0.3,0.8c-0.2,0.6-0.5,1.3-1,1.7c0.4-0.3,0.9-0.5,1.4-0.8
							c0.1,1,0.4,2,0.9,2.8c0.2,0.3,0.5,0.7,0.9,0.8c0.4,0.1,0.9-0.1,1.3-0.3c0.6-0.3,1.1-0.6,1.7-0.8c0.8-0.4,1.7-0.9,2.4-1.5
							c0.7-0.7,1.1-1.7,0.9-2.6L20.3,21.1z"/>
						<g>
							<g>
								<path fill="#CFD7E1" d="M18.1,22.7c-0.3,1.3-3.9,1.5-4.8-0.3c-0.3-1.5,0.7-2.1,2.6-2.1C17.7,20.5,18.6,21.2,18.1,22.7z"/>
							</g>
							<g>
								<circle fill="#354B5E" cx="16" cy="22.3" r="1.3"/>
							</g>
							<g>
								<circle fill="#FFD15D" cx="16" cy="22.3" r="1"/>
							</g>
							<g>
								<circle fill="#354B5E" cx="16" cy="22.3" r="0.3"/>
							</g>
							<g>
								<g>
									<path fill="#AEB4BA" d="M17.2,20.9c0.2,0.2,0.3,0.4,0.5,0.7c0.1,0.2,0.3,0.4,0.3,0.6c0,0.3-0.1,0.5-0.3,0.7
										c-0.1,0.2-0.3,0.4-0.5,0.5c-0.2,0.1-0.4,0.2-0.7,0.2c1,0.2,2.1-0.2,2.6-1.1c0.1-0.2,0.2-0.3,0.2-0.5c0-0.2,0-0.4-0.1-0.5
										c-0.1-0.2-0.3-0.2-0.5-0.3c-0.6-0.2-1.1-0.3-1.7-0.4"/>
								</g>
								<g>
									<path fill="#AEB4BA" d="M14.3,20.9c-0.5,0.2-0.9,0.6-0.9,1c0,0.3,0.2,0.7,0.4,0.9c0.2,0.2,0.6,0.4,0.9,0.6
										c-0.5-0.1-0.9-0.2-1.3-0.5c-0.4-0.3-0.6-0.8-0.4-1.2c0.1-0.2,0.2-0.3,0.3-0.4c0.3-0.3,0.7-0.5,1.1-0.7"/>
								</g>
							</g>
							<path fill="#354B5E" d="M21.9,21.9c-0.3-0.1-0.6-0.2-0.8-0.5c-0.1-0.2-0.1-0.5,0.1-0.7c-0.6,0.3-1.3,0.1-1.8-0.2
								c-0.3-0.2-0.6-0.5-0.9-0.7c-0.2-0.1-0.5-0.2-0.6-0.3c0,0,0,0,0,0c0,0,0,0,0,0c0,0-0.1,0-0.1,0c0.1,0.1,0.1,0.1,0.2,0.2
								c-1.1-0.3-2.3-0.2-3.3,0.2c-1.1,0.4-2,1.1-2.7,2c0.2,0,0.3,0,0.5,0c-0.2,0.3-0.4,0.6-0.6,0.8c0.9-0.2,1.5-1,2.3-1.4
								c0.7-0.4,1.6-0.5,2.5-0.3c0.8,0.2,1.5,0.8,1.9,1.6c-0.1,0.3-0.3,0.5-0.5,0.7c-0.2,0.2-0.5,0.3-0.8,0.3
								c-0.7,0.2-1.5,0.2-2.3,0c-0.7-0.2-1.4-0.6-2-1.2c0,0.4,0.3,0.8,0.6,1.1c0.3,0.3,0.7,0.5,1.1,0.6c0.8,0.3,1.6,0.3,2.4,0.1
								c0.3-0.1,0.7-0.2,1-0.3c0.5-0.2,0.9-0.3,1.4-0.5c0.1,0.1,0,0.3-0.1,0.4c-0.1,0.1-0.2,0.1-0.3,0.2c-0.3,0.1-0.5,0.4-0.7,0.6
								c-0.3,0.3-0.6,0.6-0.9,0.9c0.3-0.2,0.6-0.4,0.8-0.6c0.1-0.3,0.4-0.5,0.7-0.6c0.3-0.1,0.6-0.2,0.8-0.4
								c0.2-0.2,0.3-0.6,0.4-0.8c0.1-0.2,0.4-0.4,0.6-0.4c-0.1-0.1-0.2-0.2-0.2-0.3c0-0.2,0.1-0.4,0.3-0.4c0.2-0.1,0.3,0,0.5,0
								c0.5,0.1,0.9,0.3,1.4,0.4C22.6,22.1,22.3,22,21.9,21.9z"/>
						</g>
					</g>
					<g>
						<path fill="#CFD7E1" d="M21.5,21.4C21.5,21.4,21.5,21.3,21.5,21.4c0.1-0.2,0.2-0.3,0.3-0.4c0.1-0.1,0.2-0.3,0.3-0.4
							c0-0.1,0.1-0.2,0.2-0.3c0-0.1,0.1-0.2,0.2-0.3c0.1-0.2,0.2-0.5,0.3-0.7c0.1-0.3,0.2-0.5,0.2-0.8c0.1-0.3,0.1-0.6,0.1-0.9
							c0-0.3,0-0.6,0-0.9c0-0.3,0-0.6-0.1-0.9c-0.1-0.3-0.1-0.6-0.2-0.9c-0.1-0.3-0.2-0.6-0.3-0.8c-0.1-0.3-0.2-0.5-0.3-0.7
							c-0.1-0.2-0.2-0.4-0.3-0.6c-0.1-0.2-0.2-0.3-0.3-0.4c-0.1-0.1-0.2-0.2-0.2-0.3c0-0.1-0.1-0.1-0.1-0.1s0,0,0.1,0.1
							c0.1,0,0.2,0.1,0.3,0.2c0.1,0,0.1,0.1,0.2,0.2c0.1,0.1,0.1,0.1,0.2,0.2c0.1,0.1,0.1,0.2,0.2,0.2c0.1,0.1,0.2,0.2,0.2,0.3
							c0.1,0.1,0.2,0.2,0.2,0.3c0.1,0.1,0.2,0.2,0.2,0.4c0.1,0.3,0.3,0.5,0.4,0.8c0.1,0.3,0.2,0.6,0.3,1c0.1,0.3,0.1,0.7,0.1,1
							c0,0.3,0,0.7-0.1,1c0,0.3-0.1,0.7-0.2,1c-0.1,0.3-0.2,0.6-0.3,0.9c-0.1,0.3-0.3,0.5-0.4,0.7c-0.1,0.1-0.1,0.2-0.2,0.3
							c-0.1,0.1-0.1,0.2-0.2,0.3c-0.1,0.1-0.1,0.1-0.2,0.2C22,21,21.9,21,21.9,21.1C21.8,21.2,21.7,21.2,21.5,21.4
							C21.6,21.4,21.5,21.4,21.5,21.4z"/>
					</g>
					<g>
						<path fill="#CFD7E1" d="M22.4,15.6c0,0,0,0-0.1-0.1c0-0.1-0.1-0.2-0.2-0.3c0-0.1-0.1-0.1-0.1-0.2c-0.1-0.1-0.1-0.2-0.2-0.3
							c-0.1-0.1-0.1-0.2-0.2-0.3c-0.1-0.1-0.2-0.2-0.3-0.3c-0.2-0.2-0.4-0.4-0.6-0.6c-0.2-0.2-0.5-0.4-0.8-0.5
							c-0.3-0.2-0.6-0.3-0.9-0.4c-0.3-0.1-0.7-0.2-1-0.3l-0.3,0c-0.1,0-0.2,0-0.3,0c-0.2,0-0.3,0-0.5,0c-0.3,0-0.7,0.1-1,0.1
							c-0.3,0.1-0.6,0.2-0.9,0.3c-0.3,0.1-0.5,0.2-0.8,0.4c-0.1,0.1-0.2,0.1-0.3,0.2c-0.1,0.1-0.2,0.1-0.3,0.2
							c-0.1,0.1-0.2,0.1-0.2,0.2c-0.1,0.1-0.1,0.1-0.2,0.2c-0.1,0.1-0.2,0.2-0.3,0.3c-0.1,0.1-0.1,0.1-0.1,0.1s0,0,0.1-0.1
							c0-0.1,0.1-0.2,0.2-0.3c0.1-0.1,0.1-0.1,0.2-0.2c0.1-0.1,0.1-0.2,0.2-0.2c0.1-0.1,0.2-0.2,0.3-0.3c0.1-0.1,0.2-0.2,0.3-0.3
							c0.1-0.1,0.2-0.2,0.4-0.2c0.1-0.1,0.3-0.2,0.4-0.2c0.3-0.2,0.6-0.3,1-0.4c0.3-0.1,0.7-0.2,1.1-0.2c0.2,0,0.4,0,0.6,0
							c0.1,0,0.2,0,0.3,0l0.3,0c0.4,0.1,0.8,0.2,1.1,0.3c0.4,0.1,0.7,0.3,1,0.5c0.3,0.2,0.6,0.4,0.8,0.7c0.1,0.1,0.2,0.2,0.3,0.3
							c0.1,0.1,0.2,0.2,0.3,0.4c0.1,0.1,0.2,0.2,0.2,0.3c0.1,0.1,0.1,0.2,0.2,0.3c0,0.1,0.1,0.2,0.1,0.3c0,0.1,0.1,0.2,0.1,0.3
							c0.1,0.2,0.1,0.3,0.1,0.4C22.3,15.5,22.4,15.6,22.4,15.6z"/>
					</g>
					<g>
						<g>
							<path fill="#354B5E" d="M19.2,20.1C19.2,20.1,19.2,20.1,19.2,20.1c-0.1,0-0.2,0-0.2-0.1c-0.1,0-0.3-0.1-0.6-0.2
								c-0.2-0.1-0.5-0.3-0.7-0.5c-0.3-0.2-0.5-0.4-0.7-0.7c-0.2-0.3-0.4-0.5-0.7-0.7c-0.1-0.1-0.2-0.2-0.3-0.3
								c-0.1-0.1-0.2-0.1-0.3-0.2c-0.1,0-0.2-0.1-0.3-0.1c-0.1,0-0.2,0-0.2,0c-0.1,0-0.1,0-0.2,0c0,0-0.1,0-0.1,0l0,0c0,0,0,0,0.1,0
								c0,0,0.1,0,0.2-0.1c0.1,0,0.4,0,0.6,0c0.1,0,0.3,0.1,0.4,0.2c0.1,0.1,0.3,0.2,0.4,0.3c0.2,0.2,0.4,0.5,0.6,0.8
								c0.2,0.3,0.4,0.5,0.6,0.7c0.2,0.2,0.5,0.4,0.7,0.5c0.2,0.1,0.4,0.2,0.5,0.3C19.1,20.1,19.1,20.1,19.2,20.1
								C19.2,20.1,19.2,20.1,19.2,20.1L19.2,20.1z"/>
						</g>
						<g>
							<path fill="#354B5E" d="M19.7,20.4c0,0-0.1-0.1-0.3-0.2c-0.2-0.1-0.5-0.2-0.9-0.4c-0.4-0.1-0.9-0.3-1.4-0.4
								c-0.3,0-0.5-0.1-0.8-0.1c-0.3,0-0.5,0-0.8,0.1c-0.5,0.1-1,0.3-1.4,0.6c-0.2,0.1-0.4,0.3-0.6,0.4c-0.2,0.1-0.4,0.3-0.6,0.4
								c-0.2,0.1-0.4,0.2-0.6,0.2c-0.2,0-0.3,0-0.5,0c-0.1,0-0.2-0.1-0.3-0.1c-0.1,0-0.1-0.1-0.1-0.1l0,0c0,0,0,0,0.1,0
								c0.1,0,0.1,0,0.3,0.1c0.1,0,0.3,0,0.4,0c0.2,0,0.3-0.1,0.5-0.2c0.2-0.1,0.3-0.2,0.5-0.4c0.2-0.2,0.4-0.3,0.6-0.5
								c0.2-0.1,0.5-0.3,0.8-0.4c0.3-0.1,0.5-0.2,0.8-0.2c0.3,0,0.6,0,0.8,0c0.3,0,0.6,0,0.8,0.1c0.5,0.1,1,0.3,1.4,0.4
								c0.4,0.2,0.7,0.3,0.9,0.4C19.5,20.4,19.7,20.4,19.7,20.4L19.7,20.4z"/>
						</g>
					</g>
					<g>
						<path fill="#CFD7E1" d="M20.5,20.7C20.5,20.7,20.5,20.7,20.5,20.7c0.1-0.1,0.1-0.1,0.1-0.2c0-0.1,0.1-0.1,0.1-0.2
							c0.1-0.1,0.1-0.2,0.2-0.3c0.1-0.2,0.2-0.5,0.3-0.8c0.1-0.3,0.1-0.6,0.1-1c0-0.2,0-0.3,0-0.5c0-0.2-0.1-0.3-0.1-0.5
							c0-0.3-0.1-0.6-0.1-0.8c0-0.1,0-0.1,0-0.2c0-0.1,0-0.1,0-0.2c0-0.1,0-0.2-0.1-0.3c0-0.1,0-0.1,0-0.2c0,0,0-0.1,0-0.1l0.1,0
							c0,0,0,0,0.1,0c0,0,0.1,0.1,0.1,0.1c0.1,0.1,0.1,0.1,0.2,0.2c0.1,0.1,0.1,0.2,0.2,0.3c0.1,0.1,0.1,0.3,0.2,0.4
							c0.1,0.1,0.1,0.3,0.1,0.5c0,0.2,0,0.4,0,0.5c0,0.2,0,0.4-0.1,0.5c-0.1,0.4-0.1,0.7-0.3,1c-0.1,0.2-0.1,0.3-0.2,0.4
							c-0.1,0.1-0.2,0.3-0.2,0.4c-0.1,0.1-0.2,0.2-0.2,0.3c-0.1,0.1-0.1,0.2-0.2,0.2C20.7,20.6,20.6,20.7,20.5,20.7
							C20.6,20.7,20.6,20.8,20.5,20.7L20.5,20.7z"/>
					</g>
				</g>
			</g>
			<g>
				
					<ellipse transform="matrix(0.5907 0.8069 -0.8069 0.5907 31.8935 -9.565)" fill="#FFFFFF" cx="25.4" cy="26.7" rx="0.8" ry="0.5"/>
			</g>
		</g>
		<g>
			<path fill="#CFD7E1" d="M27.7,44.1C27.7,44.1,27.6,44,27.7,44.1c-0.1-0.1-0.1-0.1-0.1-0.2c0,0-0.1-0.1-0.1-0.1
				c0,0-0.1-0.1-0.1-0.1c0-0.1-0.1-0.1-0.2-0.2c-0.1-0.1-0.1-0.1-0.2-0.2c0,0-0.1-0.1-0.1-0.1c0,0-0.1-0.1-0.1-0.1
				c-0.2-0.1-0.4-0.2-0.6-0.3c-0.2-0.1-0.4-0.2-0.7-0.3c-0.1,0-0.2-0.1-0.4-0.1c-0.1,0-0.3-0.1-0.4-0.1c-0.3,0-0.5-0.1-0.8-0.1
				c-0.1,0-0.3,0-0.4,0c-0.1,0-0.3,0-0.4,0c-0.1,0-0.3,0-0.4,0.1c-0.1,0-0.2,0.1-0.4,0.1c-0.2,0.1-0.5,0.2-0.7,0.3
				c-0.2,0.1-0.4,0.2-0.6,0.3c0,0-0.1,0.1-0.1,0.1c0,0-0.1,0.1-0.1,0.1c-0.1,0.1-0.1,0.1-0.2,0.2c-0.1,0.1-0.1,0.1-0.2,0.2
				c0,0.1-0.1,0.1-0.1,0.2c0,0-0.1,0.1-0.1,0.1c0,0,0,0.1-0.1,0.1c0,0.1-0.1,0.1-0.1,0.1s0,0,0-0.1c0-0.1,0.1-0.1,0.1-0.3
				c0-0.1,0.1-0.1,0.1-0.2c0-0.1,0.1-0.1,0.1-0.2c0.1-0.1,0.1-0.1,0.2-0.2c0.1-0.1,0.1-0.1,0.2-0.2c0.2-0.1,0.3-0.3,0.6-0.4
				c0.2-0.1,0.4-0.2,0.7-0.3c0.2-0.1,0.5-0.2,0.8-0.2c0.1,0,0.3,0,0.4-0.1c0.1,0,0.3,0,0.4,0c0.3,0,0.6,0,0.8,0.1
				c0.3,0,0.5,0.1,0.8,0.2c0.2,0.1,0.5,0.2,0.7,0.3c0.2,0.1,0.4,0.2,0.6,0.4c0.1,0.1,0.2,0.1,0.2,0.2c0.1,0.1,0.1,0.1,0.2,0.2
				c0.1,0.1,0.1,0.1,0.1,0.2c0,0.1,0.1,0.1,0.1,0.2C27.6,43.8,27.6,43.9,27.7,44.1C27.7,44,27.7,44.1,27.7,44.1z"/>
		</g>
	</g>
</g>
</svg>
