<?xml version="1.0" encoding="utf-8"?>
<!-- Generator: Adobe Illustrator 18.0.0, SVG Export Plug-In . SVG Version: 6.00 Build 0)  -->
<!DOCTYPE svg PUBLIC "-//W3C//DTD SVG 1.1//EN" "http://www.w3.org/Graphics/SVG/1.1/DTD/svg11.dtd">
<svg version="1.1" id="Layer_1" xmlns="http://www.w3.org/2000/svg" xmlns:xlink="http://www.w3.org/1999/xlink" x="0px" y="0px"
	 viewBox="0 0 48 48" enable-background="new 0 0 48 48" xml:space="preserve">
<g>
	<path fill="#FFD15C" d="M33.4,26.5l-3.6,3.2L11.2,46.3c-2.7,2.4-6.7,2.3-9.2-0.3c-2.5-2.5-2.6-6.6-0.3-9.2l16.7-18.7l3.2-3.6
		L33.4,26.5z"/>
	<path fill="#F8B64C" d="M33.4,26.5l-3.6,3.2c-2.7-0.7-5.2-2.1-7.3-4.2c-2.1-2.1-3.5-4.6-4.2-7.3l3.2-3.6L33.4,26.5z"/>
	<g>
		<path fill="#CDD6E0" d="M43.9,24.4c-0.2,0.2-0.4,0.3-0.5,0.5c-4-1.8-8-4.7-11.8-8.4c-3.8-3.8-6.6-7.9-8.4-11.8
			c0.2-0.2,0.3-0.4,0.5-0.5c0.6-0.6,1.2-1.1,1.9-1.6c1.6,3.9,4.4,8.1,8.2,11.8s7.9,6.5,11.8,8.2C45,23.2,44.5,23.8,43.9,24.4z"/>
	</g>
	<path fill="#F2F2F2" d="M45.5,22.5c3.9-5.6,3.4-13.4-1.6-18.4c-5-5-12.8-5.5-18.4-1.6c1.6,3.9,4.4,8.1,8.2,11.8
		S41.6,20.9,45.5,22.5z"/>
	<path fill="#F2F2F2" d="M23,4.7C18,10.3,18.1,19,23.6,24.4C29,29.9,37.7,30,43.3,25c-4-1.8-8-4.7-11.8-8.4
		C27.7,12.7,24.9,8.6,23,4.7z"/>
	<path fill="#40596B" d="M9.3,38.8L9.3,38.8c-0.7-0.7-0.7-1.8-0.1-2.5l3.9-3.9c0.7-0.7,1.8-0.7,2.4,0l0.1,0.1c0.7,0.7,0.7,1.8,0,2.4
		l-3.9,3.9C11,39.5,9.9,39.5,9.3,38.8z"/>
</g>
</svg>
