<?xml version="1.0" encoding="utf-8"?>
<!-- Generator: Adobe Illustrator 18.0.0, SVG Export Plug-In . SVG Version: 6.00 Build 0)  -->
<!DOCTYPE svg PUBLIC "-//W3C//DTD SVG 1.1//EN" "http://www.w3.org/Graphics/SVG/1.1/DTD/svg11.dtd">
<svg version="1.1" id="Layer_1" xmlns="http://www.w3.org/2000/svg" xmlns:xlink="http://www.w3.org/1999/xlink" x="0px" y="0px"
	 viewBox="0 0 48 48" enable-background="new 0 0 48 48" xml:space="preserve">
<g>
	<g>
		<rect x="11.2" y="0" fill="#F7B64C" width="6.3" height="2.9"/>
	</g>
	<g>
		<g>
			<g>
				<rect x="7.7" y="5.8" fill="#F7B64C" width="32.5" height="38.5"/>
			</g>
		</g>
		<g>
			<g>
				<path fill="#FFD15C" d="M40.3,48H7.7c-1.1,0-2-0.9-2-2c0-1.1,0.9-2,2-2h32.5c1.1,0,2,0.9,2,2C42.3,47.1,41.4,48,40.3,48z"/>
			</g>
			<g>
				<path fill="#FFD15C" d="M40.3,6.3H7.7c-1.1,0-2-0.9-2-2s0.9-2,2-2h32.5c1.1,0,2,0.9,2,2S41.4,6.3,40.3,6.3z"/>
			</g>
		</g>
		<g>
			<g>
				<path fill="#FFD15C" d="M40.3,14.3H7.7c-1.1,0-2-0.9-2-2s0.9-2,2-2h32.5c1.1,0,2,0.9,2,2S41.4,14.3,40.3,14.3z"/>
			</g>
			<g>
				<path fill="#FFD15C" d="M40.3,40.1H7.7c-1.1,0-2-0.9-2-2c0-1.1,0.9-2,2-2h32.5c1.1,0,2,0.9,2,2C42.3,39.2,41.4,40.1,40.3,40.1z"
					/>
			</g>
		</g>
	</g>
	<g>
		<path fill="#415A6B" d="M28.9,27.7c0-2.7-4.9-10-4.9-10s-4.9,7.3-4.9,10s2.2,4.9,4.9,4.9S28.9,30.4,28.9,27.7z"/>
		<g>
			<g>
				<path fill="#ADB3BA" d="M24,31.2c-1.9,0-3.5-1.6-3.5-3.5c0-0.3,0.3-0.6,0.6-0.6c0.3,0,0.6,0.3,0.6,0.6c0,1.2,1,2.3,2.3,2.3
					c0.3,0,0.6,0.3,0.6,0.6S24.3,31.2,24,31.2z"/>
			</g>
		</g>
	</g>
</g>
</svg>
