<?xml version="1.0" encoding="utf-8"?>
<!-- Generator: Adobe Illustrator 18.0.0, SVG Export Plug-In . SVG Version: 6.00 Build 0)  -->
<!DOCTYPE svg PUBLIC "-//W3C//DTD SVG 1.1//EN" "http://www.w3.org/Graphics/SVG/1.1/DTD/svg11.dtd">
<svg version="1.1" id="Layer_1" xmlns="http://www.w3.org/2000/svg" xmlns:xlink="http://www.w3.org/1999/xlink" x="0px" y="0px"
	 viewBox="0 0 512 512" enable-background="new 0 0 512 512" xml:space="preserve">
<g>
	<g>
		<path fill="#FFD15C" d="M380.5,146.3l-124.7,63.6l99,99C398.4,265.1,408.5,201.4,380.5,146.3z"/>
		<path fill="#84DBFF" d="M277.7,71.5l-21.9,138.3l124.7-63.6C359.4,104.9,323.5,78.8,277.7,71.5z"/>
		<path fill="#FF7058" d="M255.8,209.9l21.9-138.3c-45.8-7.3-88.1,6.5-120.9,39.3c-54.7,54.7-54.7,143.3,0,198
			c54.7,54.7,143.3,54.7,197.9,0L255.8,209.9z"/>
	</g>
	<path fill="#ACB3BA" d="M307.8,442.7H204.2c-11.7,0-21.2,9.5-21.2,21.2V510H329v-46.1C329,452.2,319.5,442.7,307.8,442.7z"/>
	<path fill="#40596B" d="M256,2C141.2,2,48.2,95,48.2,209.8c0,114.8,93,207.8,207.8,207.8c114.8,0,207.8-93,207.8-207.8
		C463.8,95,370.8,2,256,2z M256,372.5c-89.7,0-162.7-73-162.7-162.7S166.3,47.1,256,47.1s162.7,73,162.7,162.7
		S345.7,372.5,256,372.5z"/>
	<path fill="#334A5E" d="M256,417.6c-11.8,0-23.4-1.2-34.7-3.1v28.3h69.3v-28.3C279.4,416.3,267.8,417.6,256,417.6z"/>
</g>
</svg>
