<?xml version="1.0" encoding="utf-8"?>
<!-- Generator: Adobe Illustrator 18.0.0, SVG Export Plug-In . SVG Version: 6.00 Build 0)  -->
<!DOCTYPE svg PUBLIC "-//W3C//DTD SVG 1.1//EN" "http://www.w3.org/Graphics/SVG/1.1/DTD/svg11.dtd">
<svg version="1.1" id="Layer_1" xmlns="http://www.w3.org/2000/svg" xmlns:xlink="http://www.w3.org/1999/xlink" x="0px" y="0px"
	 viewBox="0 0 48 48" enable-background="new 0 0 48 48" xml:space="preserve">
<g>
	<g>
		<g>
			<g>
				<g>
					<rect x="6.1" y="14" fill="#E8EAE9" width="35.7" height="15"/>
				</g>
				<g>
					<path fill="#4ABAA5" d="M41.9,19.9c-3.9,0-7.4-3.4-8-3c-1,0.3,2.9,8.1,8,8.1V19.9z"/>
				</g>
				<g>
					<path fill="#4ABAA5" d="M34.4,16.9c-0.9-0.6-3.6,4.5-10.4,4.3c-6.8,0.2-9.5-4.9-10.4-4.3c-1.3,0.4,0.9,10.4,10.4,10.4
						C33.5,27.3,35.7,17.2,34.4,16.9z"/>
				</g>
				<g>
					<path fill="#4ABAA5" d="M14.1,16.9c-0.6-0.3-4.6,3-8,3v5.1C11.6,24.9,15,17.1,14.1,16.9z"/>
				</g>
				<g>
					<g>
						<circle fill="#344A5E" cx="34.2" cy="17.6" r="2.3"/>
					</g>
					<g>
						<circle fill="#415A6B" cx="34.2" cy="17.6" r="1.1"/>
					</g>
				</g>
				<g>
					<g>
						<circle fill="#344A5E" cx="13.8" cy="17.6" r="2.3"/>
					</g>
					<g>
						<circle fill="#415A6B" cx="13.8" cy="17.6" r="1.1"/>
					</g>
				</g>
			</g>
			<g>
				<g>
					<rect y="29" fill="#F3F3F3" width="48" height="19"/>
				</g>
				<g>
					<path fill="#66C6B9" d="M48,36.4c-5.3,0-9.9-4.5-10.7-4C36,32.7,41.2,43.2,48,43.2V36.4z"/>
				</g>
				<g>
					<path fill="#66C6B9" d="M38,32.3c-1.2-0.8-4.8,6.1-14,5.8c-9.2,0.3-12.7-6.6-14-5.8c-1.8,0.5,1.2,13.9,14,13.9
						C36.7,46.3,39.7,32.8,38,32.3z"/>
				</g>
				<g>
					<path fill="#66C6B9" d="M10.7,32.3c-0.9-0.5-6.2,4-10.7,4l0,6.8C7.3,43.2,12,32.7,10.7,32.3z"/>
				</g>
				<g>
					<g>
						<circle fill="#344A5E" cx="37.6" cy="33.3" r="3.1"/>
					</g>
					<g>
						<circle fill="#415A6B" cx="37.6" cy="33.3" r="1.5"/>
					</g>
				</g>
				<g>
					<g>
						<circle fill="#344A5E" cx="10.4" cy="33.3" r="3.1"/>
					</g>
					<g>
						<circle fill="#415A6B" cx="10.4" cy="33.3" r="1.5"/>
					</g>
				</g>
			</g>
		</g>
		<g>
			<g>
				<g>
					<rect x="13.1" y="7.6" fill="#F3705A" width="5" height="6.4"/>
				</g>
				<g>
					<g>
						<path fill="#FFD15C" d="M17.2,5.2c0,0.6-0.2,1.2-0.7,1.5C16.3,6.9,16,7,15.7,7c-0.6,0-1.2-0.2-1.5-0.7
							c-0.4-0.4-0.5-1.1-0.4-1.6l0,0c0.1-0.2,0.2-0.4,0.3-0.6c0.3-0.3,0.7-0.4,1-0.6c0.5-0.3,0.7-1,0.5-1.5
							C16.7,2.7,17.3,4,17.2,5.2z"/>
					</g>
					<g>
						<path fill="#F3705A" d="M16.4,6c0,0.3-0.1,0.6-0.4,0.8C15.9,6.9,15.7,7,15.6,7c-0.3,0-0.6-0.1-0.8-0.3
							c-0.2-0.2-0.3-0.6-0.2-0.9l0,0c0-0.1,0.1-0.2,0.2-0.3c0.2-0.1,0.4-0.2,0.6-0.3c0.2-0.2,0.4-0.5,0.3-0.8
							C16.1,4.7,16.5,5.4,16.4,6z"/>
					</g>
				</g>
			</g>
			<g>
				<g>
					<rect x="21.5" y="5.6" fill="#F3705A" width="5" height="8.4"/>
				</g>
				<g>
					<g>
						<path fill="#FFD15C" d="M25.6,3.2c0,0.6-0.2,1.2-0.7,1.5C24.7,4.9,24.4,5,24.1,5c-0.6,0-1.2-0.2-1.5-0.7
							c-0.4-0.4-0.5-1.1-0.4-1.6l0,0c0.1-0.2,0.2-0.4,0.3-0.6c0.3-0.3,0.7-0.4,1-0.6c0.5-0.3,0.7-1,0.5-1.5
							C25.1,0.7,25.7,2,25.6,3.2z"/>
					</g>
					<g>
						<path fill="#F3705A" d="M24.8,4c0,0.3-0.1,0.6-0.4,0.8C24.3,4.9,24.1,5,24,5c-0.3,0-0.6-0.1-0.8-0.3c-0.2-0.2-0.3-0.6-0.2-0.9
							l0,0c0-0.1,0.1-0.2,0.2-0.3c0.2-0.1,0.4-0.2,0.6-0.3C23.9,3,24,2.6,24,2.3C24.5,2.7,24.8,3.4,24.8,4z"/>
					</g>
				</g>
			</g>
			<g>
				<g>
					<rect x="29.9" y="7.6" fill="#F3705A" width="5" height="6.4"/>
				</g>
				<g>
					<g>
						<path fill="#FFD15C" d="M34,5.2c0,0.6-0.2,1.2-0.7,1.5C33.1,6.9,32.8,7,32.5,7c-0.6,0-1.2-0.2-1.5-0.7
							c-0.4-0.4-0.5-1.1-0.4-1.6l0,0c0.1-0.2,0.2-0.4,0.3-0.6c0.3-0.3,0.7-0.4,1-0.6c0.5-0.3,0.7-1,0.5-1.5C33.5,2.7,34.1,4,34,5.2z
							"/>
					</g>
					<g>
						<path fill="#F3705A" d="M33.2,6c0,0.3-0.1,0.6-0.4,0.8C32.7,6.9,32.5,7,32.4,7c-0.3,0-0.6-0.1-0.8-0.3
							c-0.2-0.2-0.3-0.6-0.2-0.9l0,0c0-0.1,0.1-0.2,0.2-0.3c0.2-0.1,0.4-0.2,0.6-0.3c0.2-0.2,0.4-0.5,0.3-0.8
							C32.9,4.7,33.2,5.4,33.2,6z"/>
					</g>
				</g>
			</g>
		</g>
	</g>
</g>
</svg>
