<?xml version="1.0" encoding="utf-8"?>
<!-- Generator: Adobe Illustrator 18.0.0, SVG Export Plug-In . SVG Version: 6.00 Build 0)  -->
<!DOCTYPE svg PUBLIC "-//W3C//DTD SVG 1.1//EN" "http://www.w3.org/Graphics/SVG/1.1/DTD/svg11.dtd">
<svg version="1.1" id="Layer_1" xmlns="http://www.w3.org/2000/svg" xmlns:xlink="http://www.w3.org/1999/xlink" x="0px" y="0px"
	 viewBox="0 0 512 512" enable-background="new 0 0 512 512" xml:space="preserve">
<g>
	<path fill="#F1543F" d="M75.8,454.6v34.2c0,11.7,9.5,21.2,21.2,21.2h318.1c11.7,0,21.2-9.5,21.2-21.2v-34.2H75.8z"/>
	<path fill="#FF7058" d="M75.8,134.6v311.9c0,2.7,0.2,5.4,0.6,8.1h359.3c0.3-2.7,0.6-5.3,0.6-8.1V134.6H75.8z"/>
	<path fill="#FFFFFF" d="M358.7,309.5L358.7,309.5c-6.3-4.7-8.3-13.3-4.6-20.2l0,0c4.9-9.5-0.6-21-11.1-23.1
		c-7.7-1.5-13.2-8.3-12.9-16.2l0,0c0.3-10.7-9.7-18.6-20-16l-0.1,0c-7.6,2-15.5-1.8-18.6-9l0,0c-4.3-9.8-16.8-12.6-25-5.7l0,0
		c-6,5.1-14.7,5.1-20.7,0l0,0c-8.1-6.9-20.6-4.1-25,5.7l0,0c-3.2,7.2-11.1,11-18.6,9l0,0c-10.3-2.7-20.3,5.3-20,16l0,0
		c0.2,7.8-5.2,14.7-12.9,16.2h0c-10.5,2-16,13.6-11.1,23.1l0,0c3.6,6.9,1.7,15.5-4.6,20.2l-0.1,0c-8.5,6.4-8.5,19.2,0,25.6l0.1,0
		c6.3,4.7,8.2,13.2,4.6,20.2l0,0c-4.9,9.5,0.6,21,11.1,23.1c7.7,1.5,13.2,8.3,12.9,16.2l0,0c-0.3,10.7,9.7,18.6,20,16l0.1,0
		c7.6-2,15.5,1.8,18.6,9l0,0c4.3,9.8,16.8,12.6,25,5.7l0,0c6-5.1,14.7-5.1,20.7,0l0,0c8.1,6.9,20.6,4.1,25-5.7l0,0
		c3.2-7.2,11.1-11,18.6-9l0,0c10.3,2.7,20.3-5.3,20-16l0,0c-0.2-7.8,5.2-14.7,12.9-16.2h0c10.5-2,16-13.6,11.1-23.1l0,0
		c-3.6-6.9-1.7-15.5,4.6-20.2l0.1,0C367.2,328.7,367.2,315.9,358.7,309.5z"/>
	<path fill="#FF7058" d="M179.3,335.6l11-1.1c0.3,2.5,1.2,4.5,2.8,5.9s3.3,2.2,5.3,2.2c2.3,0,4.2-0.9,5.8-2.8
		c1.6-1.9,2.4-4.7,2.4-8.5c0-3.5-0.8-6.2-2.4-7.9c-1.6-1.8-3.6-2.6-6.2-2.6c-3.2,0-6,1.4-8.5,4.2l-8.9-1.3l5.6-29.9h29.1V304h-20.8
		l-1.7,9.8c2.5-1.2,5-1.8,7.5-1.8c4.9,0,9,1.8,12.4,5.3c3.4,3.6,5.1,8.2,5.1,13.8c0,4.7-1.4,9-4.1,12.7c-3.7,5.1-8.9,7.6-15.6,7.6
		c-5.3,0-9.6-1.4-13-4.3C181.9,344.2,179.9,340.4,179.3,335.6z"/>
	<path fill="#FF7058" d="M242.4,292.6c5.6,0,9.9,2,13.1,6c3.7,4.7,5.6,12.5,5.6,23.4c0,10.9-1.9,18.7-5.6,23.5
		c-3.1,3.9-7.5,5.9-13,5.9c-5.6,0-10.1-2.2-13.5-6.5c-3.4-4.3-5.1-12-5.1-23c0-10.8,1.9-18.6,5.6-23.4
		C232.5,294.6,236.9,292.6,242.4,292.6z M242.4,301.8c-1.3,0-2.5,0.4-3.6,1.3c-1,0.9-1.9,2.4-2.4,4.6c-0.8,2.9-1.1,7.6-1.1,14.4
		c0,6.7,0.3,11.4,1,13.9s1.5,4.2,2.6,5c1,0.8,2.2,1.3,3.5,1.3c1.3,0,2.5-0.4,3.6-1.3c1-0.8,1.9-2.4,2.4-4.6
		c0.8-2.8,1.1-7.6,1.1-14.4c0-6.7-0.3-11.4-1-13.9s-1.5-4.2-2.6-5.1C244.9,302.2,243.8,301.8,242.4,301.8z"/>
	<path fill="#FF7058" d="M268.6,307.1c0-5.2,1.1-9,3.4-11.5c2.3-2.5,5.3-3.7,9.2-3.7c4,0,7.1,1.2,9.4,3.7c2.3,2.5,3.4,6.3,3.4,11.5
		c0,5.2-1.1,9-3.4,11.5c-2.3,2.5-5.3,3.7-9.2,3.7c-4,0-7.1-1.2-9.4-3.7C269.7,316.1,268.6,312.2,268.6,307.1z M277.1,307
		c0,3.7,0.4,6.2,1.3,7.5c0.7,0.9,1.6,1.4,2.7,1.4c1.2,0,2.1-0.5,2.7-1.4c0.8-1.3,1.3-3.8,1.3-7.5c0-3.7-0.4-6.2-1.3-7.5
		c-0.7-1-1.6-1.5-2.7-1.5c-1.2,0-2.1,0.5-2.7,1.4C277.6,300.7,277.1,303.2,277.1,307z M289.5,352.6h-8.2l30.6-60.7h7.9L289.5,352.6z
		 M307.3,337.5c0-5.2,1.1-9,3.4-11.5c2.3-2.5,5.4-3.7,9.3-3.7c3.9,0,7.1,1.2,9.3,3.7c2.3,2.5,3.4,6.3,3.4,11.5c0,5.2-1.1,9-3.4,11.5
		c-2.3,2.5-5.3,3.7-9.2,3.7c-4,0-7.1-1.2-9.4-3.7C308.5,346.5,307.3,342.6,307.3,337.5z M315.9,337.4c0,3.7,0.4,6.2,1.3,7.5
		c0.7,1,1.6,1.5,2.7,1.5c1.2,0,2.1-0.5,2.7-1.4c0.9-1.3,1.3-3.8,1.3-7.5c0-3.7-0.4-6.2-1.3-7.5c-0.7-0.9-1.6-1.4-2.7-1.4
		c-1.2,0-2.1,0.5-2.7,1.4C316.4,331.2,315.9,333.7,315.9,337.4z"/>
	<circle fill="#FFFFFF" cx="174" cy="197.5" r="12.6"/>
	<circle fill="#FFFFFF" cx="338" cy="197.5" r="12.6"/>
	<path fill="#40596B" d="M338,204.1c-4.7,0-8.5-3.8-8.5-8.5V92.5c0-40.5-33-73.5-73.5-73.5s-73.5,33-73.5,73.5v103.2
		c0,4.7-3.8,8.5-8.5,8.5s-8.5-3.8-8.5-8.5V92.5C165.5,42.6,206.1,2,256,2s90.5,40.6,90.5,90.5v103.2
		C346.5,200.3,342.7,204.1,338,204.1z"/>
</g>
</svg>
