<?xml version="1.0" encoding="utf-8"?>
<!-- Generator: Adobe Illustrator 18.0.0, SVG Export Plug-In . SVG Version: 6.00 Build 0)  -->
<!DOCTYPE svg PUBLIC "-//W3C//DTD SVG 1.1//EN" "http://www.w3.org/Graphics/SVG/1.1/DTD/svg11.dtd">
<svg version="1.1" id="Layer_1" xmlns="http://www.w3.org/2000/svg" xmlns:xlink="http://www.w3.org/1999/xlink" x="0px" y="0px"
	 viewBox="0 0 48 48" enable-background="new 0 0 48 48" xml:space="preserve">
<g>
	<g>
		<path fill="#415A6B" d="M43.8,6.4v26H4.2v-26c0-1.1,0.9-2,2-2h35.6C42.9,4.4,43.8,5.3,43.8,6.4z"/>
		<polygon fill="#E8EAE9" points="43.8,32.4 4.2,32.4 0,40.4 48,40.4 		"/>
		<g>
			<polygon fill="#ADB3BA" points="18.3,38.5 20.9,34.4 27.1,34.4 29.7,38.5 			"/>
		</g>
		<g>
			<path fill="#ADB3BA" d="M44.9,43.6H3.1c-1.7,0-3.1-1.4-3.1-3.1v0h48v0C48,42.2,46.6,43.6,44.9,43.6z"/>
		</g>
		<rect x="7.2" y="7.4" fill="#8AD7F8" width="33.6" height="22"/>
		<g>
			<g>
				<polygon fill="#F3705A" points="24.4,18.6 17,11.2 9.5,18.6 				"/>
				<rect x="11.3" y="18.6" fill="#FFFFFF" width="11.2" height="6.8"/>
				<rect x="15.4" y="21.7" fill="#415A6B" width="3.2" height="3.7"/>
			</g>
			<g>
				<g>
					<path fill="#FFFFFF" d="M26.8,11.6c0,0.6-0.2,1-0.7,1.2l0.9,1.3h-1l-0.8-1.2h-0.6v1.2h-0.8v-3.7h1.4c0.6,0,1,0.1,1.2,0.3
						C26.6,10.9,26.8,11.2,26.8,11.6z M25.7,12.1c0.1-0.1,0.2-0.2,0.2-0.4s-0.1-0.3-0.2-0.4c-0.1-0.1-0.3-0.1-0.6-0.1h-0.6v1.1h0.6
						C25.4,12.2,25.6,12.2,25.7,12.1z"/>
					<path fill="#FFFFFF" d="M30.3,10.4v0.7h-1.9v0.8h1.7v0.7h-1.7v0.8h1.9v0.7h-2.8v-3.7H30.3z"/>
					<path fill="#FFFFFF" d="M33.7,10.4h0.8v3.7h-0.8l-1.8-2.3v2.3h-0.8v-3.7h0.8l1.8,2.4V10.4z"/>
					<path fill="#FFFFFF" d="M37.1,11.1v3h-0.8v-3h-1.1v-0.7h3v0.7H37.1z"/>
				</g>
			</g>
		</g>
		<g>
			<polygon fill="#FFFFFF" points="34.8,21.5 32.8,21.8 34,23.5 32.2,24.6 31.1,22.9 30.1,24.6 29.3,18.3 			"/>
		</g>
	</g>
</g>
</svg>
