<?xml version="1.0" encoding="utf-8"?>
<!-- Generator: Adobe Illustrator 16.0.0, SVG Export Plug-In . SVG Version: 6.00 Build 0)  -->
<!DOCTYPE svg PUBLIC "-//W3C//DTD SVG 1.1//EN" "http://www.w3.org/Graphics/SVG/1.1/DTD/svg11.dtd">
<svg version="1.1" id="Layer_1" xmlns="http://www.w3.org/2000/svg" xmlns:xlink="http://www.w3.org/1999/xlink" x="0px" y="0px"
	 width="48px" height="48px" viewBox="0 0 48 48" enable-background="new 0 0 48 48" xml:space="preserve">
<g>
	<path fill="#FFD15C" d="M32.532,19.506H15.468c-1.104,0-2-0.896-2-2V2c0-1.104,0.896-2,2-2h17.064c1.105,0,2,0.896,2,2v15.506
		C34.532,18.609,33.638,19.506,32.532,19.506"/>
	<rect x="21.755" fill="#F3705A" width="4.492" height="5.053"/>
	
		<rect x="31.68" y="12.964" transform="matrix(0.9989 0.0458 -0.0458 0.9989 0.6769 -1.5839)" fill="#415A6B" width="6.391" height="2.01"/>
	
		<rect x="9.928" y="12.964" transform="matrix(-0.9989 0.0458 -0.0458 -0.9989 26.8745 27.3212)" fill="#415A6B" width="6.391" height="2.01"/>
	<path fill="#8AD7F8" d="M33.864,21.078c-0.084-2.146-1.539-4.023-3.672-4.738l-6.191-2.076l-6.193,2.076
		c-2.133,0.715-3.588,2.592-3.672,4.738l-0.791,12.867c-0.098,2.492,1.672,4.703,4.229,5.281c4.23,0.959,8.623,0.959,12.855,0
		c2.557-0.578,4.324-2.789,4.229-5.281L33.864,21.078z"/>
	<path fill="#55C0EB" d="M21.097,13.232c-0.244,1.406-0.383,3.008-0.383,4.711c0,5.564,1.471,10.078,3.287,10.078
		c1.814,0,3.285-4.514,3.285-10.078c0-1.703-0.139-3.305-0.383-4.711H21.097z"/>
	<path fill="#415A6B" d="M24.001,30.988c-1.701,0-3.08,1.379-3.08,3.08v10.854c0,1.701,1.379,3.078,3.08,3.078
		c1.699,0,3.078-1.377,3.078-3.078V34.068C27.079,32.367,25.7,30.988,24.001,30.988"/>
	<path fill="#55C0EB" d="M28.646,39.568v-5.67c0-2.566-2.08-4.646-4.646-4.646c-2.564,0-4.645,2.08-4.645,4.646v5.67
		C22.433,40.066,25.569,40.066,28.646,39.568"/>
	<path fill="#344A5E" d="M33.532,15.633H14.468v-3.385c6.355-1.023,12.709-1.023,19.064,0V15.633z"/>
	<path fill="#344A5E" d="M28.927,13.557c0,2.721-2.205,4.926-4.928,4.926c-2.719,0-4.924-2.205-4.924-4.926s2.205-4.926,4.924-4.926
		C26.722,8.631,28.927,10.836,28.927,13.557"/>
	<path fill="#E8EAE9" d="M27.173,13.557c0,1.752-1.42,3.174-3.172,3.174s-3.174-1.422-3.174-3.174s1.422-3.174,3.174-3.174
		S27.173,11.805,27.173,13.557"/>
	<path fill="#F3F3F3" d="M24.001,16.73c-1.752,0-3.174-1.422-3.174-3.174s1.422-3.174,3.174-3.174V16.73z"/>
</g>
</svg>
