<?xml version="1.0" encoding="utf-8"?>
<!-- Generator: Adobe Illustrator 18.0.0, SVG Export Plug-In . SVG Version: 6.00 Build 0)  -->
<!DOCTYPE svg PUBLIC "-//W3C//DTD SVG 1.1//EN" "http://www.w3.org/Graphics/SVG/1.1/DTD/svg11.dtd">
<svg version="1.1" id="Layer_1" xmlns="http://www.w3.org/2000/svg" xmlns:xlink="http://www.w3.org/1999/xlink" x="0px" y="0px"
	 viewBox="0 0 48 48" enable-background="new 0 0 48 48" xml:space="preserve">
<g>
	<g>
		<g>
			<g>
				<g>
					<g>
						<g>
							<g>
								<g>
									<g>
										<g>
											<g>
												<g>
													<g>
														<g>
															<g>
																<g>
																	<g>
																		<polygon fill="#66C6B9" points="26.1,43.4 26.1,35.3 22.2,35.3 22.2,43.4 0,43.4 0,47.3 48,47.3 48,43.4 
																																					"/>
																	</g>
																</g>
																<g>
																	<polygon fill="#415A6B" points="29.3,42.7 29.3,48 19,48 19,42.7 21.5,42.7 21.5,39.6 26.8,39.6 26.8,42.7 
																																			"/>
																</g>
															</g>
														</g>
													</g>
												</g>
											</g>
										</g>
									</g>
								</g>
							</g>
						</g>
					</g>
				</g>
			</g>
		</g>
		<g>
			<g>
				<path fill="#415A6B" d="M32,0H16c-1.6,0-3,1.3-3,3v30.6c0,1.6,1.3,3,3,3H32c1.6,0,3-1.3,3-3V3C34.9,1.3,33.6,0,32,0z"/>
			</g>
			<g>
				<rect x="16.5" y="3.5" fill="#344A5E" width="14.9" height="4.1"/>
			</g>
			<g>
				<rect x="16.5" y="11.6" fill="#344A5E" width="14.9" height="4.1"/>
			</g>
			<g>
				<circle fill="#F3705A" cx="24" cy="25.4" r="2.2"/>
			</g>
		</g>
	</g>
</g>
</svg>
