<?xml version="1.0" encoding="utf-8"?>
<!-- Generator: Adobe Illustrator 18.0.0, SVG Export Plug-In . SVG Version: 6.00 Build 0)  -->
<!DOCTYPE svg PUBLIC "-//W3C//DTD SVG 1.1//EN" "http://www.w3.org/Graphics/SVG/1.1/DTD/svg11.dtd">
<svg version="1.1" id="Layer_1" xmlns="http://www.w3.org/2000/svg" xmlns:xlink="http://www.w3.org/1999/xlink" x="0px" y="0px"
	 viewBox="0 0 48 48" enable-background="new 0 0 48 48" xml:space="preserve">
<g>
	<path fill="#F2F2F2" d="M46,0H2C0.9,0,0,0.9,0,2v44c0,1.1,0.9,2,2,2h44c1.1,0,2-0.9,2-2V2C48,0.9,47.1,0,46,0z"/>
	<path fill="#FF7058" d="M17.4,13.9V6c0-1.1-0.9-2-2-2H6C4.9,4,4,4.9,4,6v7.9c0,1.1,0.8,1.9,1.9,2v16.2c-1,0.1-1.9,0.9-1.9,2V42
		c0,1.1,0.9,2,2,2h9.4c1.1,0,2-0.9,2-2v-7.9c0-1.1-0.8-1.9-1.9-2V15.9C16.6,15.8,17.4,15,17.4,13.9z"/>
	<g>
		<rect x="21.4" y="7" fill="#54C0EB" width="22.6" height="8.8"/>
	</g>
	<g>
		<circle fill="#4CDBC4" cx="24.2" cy="26" r="2.5"/>
		<circle fill="#4CDBC4" cx="32.7" cy="26" r="2.5"/>
		<circle fill="#4CDBC4" cx="41.2" cy="26" r="2.5"/>
		<circle fill="#4CDBC4" cx="24.2" cy="32.7" r="2.5"/>
		<circle fill="#4CDBC4" cx="32.7" cy="32.7" r="2.5"/>
		<circle fill="#4CDBC4" cx="41.2" cy="32.7" r="2.5"/>
		<circle fill="#4CDBC4" cx="24.2" cy="39.5" r="2.5"/>
		<circle fill="#4CDBC4" cx="32.7" cy="39.5" r="2.5"/>
		<circle fill="#4CDBC4" cx="41.2" cy="39.5" r="2.5"/>
	</g>
	<g>
		<rect x="30.2" y="18.6" fill="#FF7058" width="5.1" height="2"/>
		<rect x="21.6" y="18.6" fill="#FFD15C" width="5.1" height="2"/>
		<rect x="38.7" y="18.6" fill="#ACB3BA" width="5.1" height="2"/>
	</g>
	<g>
		<polygon fill="#84DBFF" points="24.3,15.8 33.1,7 31.2,7 22.4,15.8 		"/>
		<polygon fill="#84DBFF" points="28.8,15.8 37.7,7 34.2,7 25.4,15.8 		"/>
	</g>
</g>
</svg>
