<?xml version="1.0" encoding="utf-8"?>
<!-- Generator: Adobe Illustrator 16.0.0, SVG Export Plug-In . SVG Version: 6.00 Build 0)  -->
<!DOCTYPE svg PUBLIC "-//W3C//DTD SVG 1.1//EN" "http://www.w3.org/Graphics/SVG/1.1/DTD/svg11.dtd">
<svg version="1.1" id="Layer_1" xmlns="http://www.w3.org/2000/svg" xmlns:xlink="http://www.w3.org/1999/xlink" x="0px" y="0px"
	 width="48px" height="48px" viewBox="0 0 48 48" enable-background="new 0 0 48 48" xml:space="preserve">
<g>
	<path fill="#40596B" d="M18.837,1.699c0,0,6.473-3.809,12.803,0.102c3.299,2.037,5.26,5.646,5.609,9.509
		c0.273,3.002-0.004,6.965-2.15,10.928c0,0-4.777,8.633-11.148,7.879c0,0-10.395,2.516-12.908-16.01
		C11.042,14.106,10.771,1.684,18.837,1.699"/>
	<path fill="#F2F2F2" d="M45.995,47.964H2.005l0.66-7.703c0.76-4.459,3.709-8.07,7.639-9.811c1.24-0.559,2.58-0.93,3.98-1.068h0.01
		c0.451-0.061,0.91-0.08,1.371-0.08h16.67c0.469,0,0.93,0.02,1.379,0.08c1.43,0.139,2.791,0.52,4.051,1.1
		c3.889,1.75,6.811,5.35,7.57,9.779L45.995,47.964z"/>
	<path fill="#F8B64C" d="M25.495,43.778l-1.439,0.742l-1.467-0.75c-5.566-2.848-10.027-7.469-12.678-13.133
		c0.131-0.068,0.271-0.129,0.4-0.189c0.49-0.221,2.553-1.16,5.371-1.16h1.639v-2.92c3.01,3.9,6.75,4.279,6.75,4.279
		s3.691-0.369,6.701-4.219v2.859h1.57c0.479,0,0.93,0.031,1.389,0.08v0.01c0.85,0.08,1.67,0.25,2.461,0.5
		c0.631,0.188,1.32,0.484,1.91,0.76l-0.021,0.043C35.448,36.317,31.022,40.923,25.495,43.778"/>
	<rect x="23.534" y="28.754" fill="#FFD15C" width="0.004" height="0.004"/>
	<rect x="24.026" y="16.89" fill="#FFD15C" width="0.004" height="0.004"/>
	<path fill="#F8B64C" d="M15.495,16.308c0.396,1.701,0.188,3.205-0.469,3.357c-0.654,0.152-1.508-1.102-1.904-2.803
		s-0.188-3.205,0.467-3.357C14.245,13.351,15.099,14.606,15.495,16.308"/>
	<path fill="#F8B64C" d="M32.55,16.308c-0.398,1.701-0.188,3.205,0.467,3.357c0.656,0.152,1.393-1.133,1.906-2.803
		c0.305-0.998,0.166-3.033-0.469-3.357C33.854,13.198,32.946,14.606,32.55,16.308"/>
	<path fill="#FFD15C" d="M33.413,21.253c-2.754,8.742-9.357,9.406-9.357,9.406s-6.602-0.664-9.355-9.406
		c0,0-1.475-4.559-0.238-8.359c0,0,0.756-6.485,9.594-6.485s9.596,6.485,9.596,6.485C34.888,16.694,33.413,21.253,33.413,21.253"/>
	<polygon fill="#CDD6E0" points="11.562,47.964 9.872,47.964 11.562,39.771 	"/>
	<polygon fill="#CDD6E0" points="36.438,47.964 38.126,47.964 36.438,39.771 	"/>
	<g opacity="0.1">
		<g>
			<defs>
				<rect id="SVGID_37_" x="20.868" y="26.536" width="17.23" height="13.363"/>
			</defs>
			<clipPath id="SVGID_2_">
				<use xlink:href="#SVGID_37_"  overflow="visible"/>
			</clipPath>
			<path clip-path="url(#SVGID_2_)" fill="#40596B" d="M32.253,29.317h-1.57v-0.004h-0.002v-2.777
				c-2.059,2.576-4.412,3.557-5.682,3.914c-0.631,0.186-1.025,0.229-1.025,0.229s-1.342-0.143-3.064-1.088
				c-0.01,0.002-0.037,0.01-0.037,0.01l10.299,10.299c2.896-2.549,5.258-5.68,6.91-9.219l0.02-0.041
				c-0.242-0.115-0.512-0.232-0.777-0.344C36.335,29.905,34.489,29.323,32.253,29.317"/>
		</g>
	</g>
	<path fill="#40596B" d="M25.249,1.141h-1.016c-6.084,0-11.016,3.484-11.016,9.569l1.059,3.006l2.055,0.105
		c4.391,0,9.48-2.857,11.252-6.575c1.412,4.966,6.277,6.403,6.277,6.403l1.76-4.025C35.62,9.396,30.54,1.141,25.249,1.141"/>
	<path fill="#F2F2F2" d="M14.683,11.788c0,0,0.74-6.335,9.373-6.335c8.635,0,9.373,6.335,9.373,6.335
		c0.209,0.639,0.334,1.299,0.406,1.955c0.145-1.479,0.127-3.252-0.406-4.887c0,0-0.738-6.333-9.373-6.333
		c-8.633,0-9.373,6.333-9.373,6.333c-0.531,1.635-0.549,3.408-0.404,4.887C14.351,13.087,14.476,12.427,14.683,11.788"/>
</g>
</svg>
