<?xml version="1.0" encoding="utf-8"?>
<!-- Generator: Adobe Illustrator 19.0.1, SVG Export Plug-In . SVG Version: 6.00 Build 0)  -->
<svg version="1.1" id="Layer_1" xmlns="http://www.w3.org/2000/svg" xmlns:xlink="http://www.w3.org/1999/xlink" x="0px" y="0px"
	 viewBox="0 0 48 48" style="enable-background:new 0 0 48 48;" xml:space="preserve">
<style type="text/css">
	.st0{fill:#66C6B9;}
	.st1{fill:#F3F3F3;}
	.st2{fill:#415A6B;}
	.st3{fill:#CED6E0;}
	.st4{fill:#F3705A;}
	.st5{fill:#E8EAE9;}
	.st6{fill:#4ABAA5;}
	.st7{fill:#F05540;}
	.st8{fill:#FFD15C;}
	.st9{fill:#55C0EB;}
	.st10{fill:#8AD7F8;}
	.st11{fill:#344A5E;}
	.st12{fill:#FFFFFF;}
	.st13{fill:#F7B64C;}
	.st14{fill:#ADB3BA;}
	.st15{fill:#38A892;}
	.st16{fill:#ED9845;}
	.st17{fill:#2D4251;}
	.st18{fill:#304556;}
	.st19{fill:#A5AAAD;}
	.st20{fill:#2D4456;}
	.st21{fill:#4FB0E0;}
	.st22{fill:#2D4354;}
	.st23{fill:#E54C38;}
	.st24{fill:#2B4456;}
	.st25{fill:#2B404F;}
</style>
<g>
	<g>
		<g>
			<g>
				<path class="st13" d="M34.2,28.7c-0.1,0.7-0.3,1.2-0.8,1.3c-0.5,0.1-1.5,0-2.8-0.6c-1.3-0.6-2.4-1.3-2.4-1.3s0.1,0.3,0.3,0.5
					c0.2,0.2,1.5,1.1,2,1.4c0.2,0.1,0.4,0.1,0.5-0.1c0,0,0.1,0.1,0.2,0.2c0.1,0.1,0.2,0.3,0.2,0.5c0.1,0.3,0.3,0.9-0.4,1.6
					c-0.7,0.7-1.7,0.4-1.9,0.4c0,0,0.1,1.1-0.6,1.4c-0.7,0.3-1.4,0.1-1.4,0.1s-0.4,1.2-1.5,1c-1.1-0.2-9.5-4.4-9.5-4.4l-0.9-1.2
					c0,0-1-0.8-1.8-1.3c-0.6-0.4-3-1.3-4.1-1.8V16.2c1.1,0.5,3.6,1.7,4.1,2.1c0.7,0.5,2.7,1.4,3.9,1.3c0.9,0,3.4-0.6,4.7-0.8
					c0.5-0.1,1.1-0.1,1.6,0.1l2.9,1.3l7.4,7.4C33.9,27.5,34.4,28,34.2,28.7z"/>
			</g>
			<g>
				<path class="st1" d="M24.7,34.6c0,0-0.2,0.4,0.1,0.6c0.2,0.2,0.6,0.1,0.6,0s0.6-0.5,0.6-0.5s-0.6-0.4-0.6-0.7L24.7,34.6z"/>
			</g>
			<g>
				<path class="st8" d="M38.9,14.4v9.8c-1.2,0.6-2.2,1.1-2.4,1.2c-0.8,0.4-1.6,0.9-1.6,0.9c-0.3,0.6-1,1.2-1,1.2s-4-2.2-5.3-3
					c-1.3-0.8-4-1.8-4-1.8c-0.8,0.1-1.7,0.5-1.7,0.5c-2.9,3.4-4.8,0.7-4.8,0.7l1.3-1.5c0,0,0.9-1,1.2-1.6c0.3-0.5,1.2-0.5,1.9-0.8
					s1.4-0.8,2.6-1c1.2-0.2,4.7,1.1,4.7,1.1l0.9-0.5c0,0,2.2-1.4,3.4-2.3C34.8,16.8,37.3,15.3,38.9,14.4z"/>
			</g>
			<g>
				<path class="st1" d="M19.4,22.6c0,0,0.4-0.3,0.7-0.1c0.4,0.2,0.7,0.6,0.6,0.8c-0.1,0.2-0.6,1-1.5,0.8c-0.9-0.2-1-0.4-1-0.4
					S18.9,22.8,19.4,22.6z"/>
			</g>
			<g>
				<path class="st8" d="M15.3,29.7c0,0,1.1,0.7,1.7,0.9c0,0,3.3-0.7,3,1.3c0,0,0.5-0.2,0.9-0.1c0,0,1.6-1.6,2.7-1.2
					c1.2,0.4,1,1.1,1,1.1s0.9-0.5,1.4,0c0.6,0.5,0.4,1.4-0.3,2c0,0,0.6,0.5,0.3,1.1c-0.3,0.6-1.1,1.4-1.6,1.5
					c-0.5,0.1-1.5-0.2-2-0.6c0,0-0.6,0-0.9,0.1c-0.3,0.1-1.5-0.2-1.6-1.1c0,0-0.5,0.1-0.9,0.1s-0.7,0-1.3-0.4
					c-0.6-0.4-0.4-1.3-0.4-1.3s-0.8-0.3-1.2-0.8c-0.4-0.5-0.7-1.4-0.8-1.7S15.3,29.7,15.3,29.7z"/>
			</g>
			<g>
				<path class="st1" d="M23.5,32.7c0,0-1,0-1-0.8c0,0,0.2-0.7,0.6-0.8c0.4-0.1,1.5,0,1.4,0.5C24.6,31.7,23.7,32.6,23.5,32.7z"/>
			</g>
			<g>
				<path class="st1" d="M25.6,31.8c-0.1,0-0.2-0.1-0.3,0c-0.1,0-0.1,0-0.2,0.1c-0.1,0.1-0.5,0.5-0.5,0.8c0,0.3,0.3,0.7,0.7,0.7
					c0.3-0.1,0.7-0.5,0.9-0.7c0.1-0.1,0.1-0.3,0-0.5c0,0-0.1-0.1-0.1-0.1C25.9,32,25.7,31.9,25.6,31.8z"/>
			</g>
			<g>
				<path class="st1" d="M19,32.4c0,0-0.6,0.2-0.8-0.1c-0.2-0.3-0.2-0.6-0.1-0.7c0.1-0.1,0.6-0.4,0.6-0.4s0.1-0.1,0.4,0.1
					c0.3,0.2,0.6,0.5,0.8,0.5C19.8,31.9,19.1,32.3,19,32.4z"/>
			</g>
			<g>
				<g>
					<g>
						<path class="st13" d="M17.3,33.1C17.3,33.1,17.3,33.1,17.3,33.1c0.1,0,0.1,0,0.1,0c0.1,0,0.2,0,0.3-0.1c0.1,0,0.1,0,0.2-0.1
							c0.1,0,0.1-0.1,0.2-0.1c0.1,0,0.2-0.1,0.2-0.1c0,0,0.1,0,0.1-0.1c0,0,0.1-0.1,0.1-0.1c0.1-0.1,0.1-0.1,0.2-0.2
							c0.1-0.1,0.1-0.1,0.2-0.1c0.1,0,0.1-0.1,0.2-0.1c0.1,0,0.1-0.1,0.2-0.1c0.1-0.1,0.2-0.1,0.3-0.1c0.1,0,0.1,0,0.1,0
							s-0.2,0.1-0.4,0.2c-0.1,0-0.1,0.1-0.2,0.1c-0.1,0-0.1,0.1-0.2,0.1c-0.1,0-0.1,0.1-0.2,0.2c-0.1,0.1-0.1,0.1-0.2,0.2
							c0,0-0.1,0.1-0.1,0.1c0,0-0.1,0-0.1,0.1c-0.1,0-0.2,0.1-0.2,0.1C18.2,33,18.1,33,18,33c-0.1,0-0.2,0-0.2,0c-0.1,0-0.3,0-0.3,0
							C17.4,33.1,17.3,33.1,17.3,33.1z"/>
					</g>
					<g>
						<path class="st13" d="M19.9,34.7c0,0,0.1,0,0.1,0c0,0,0.1,0,0.1,0c0.1,0,0.2,0,0.3,0c0.1,0,0.2,0,0.3-0.1c0,0,0.1,0,0.1,0
							l0.1,0c0.1,0,0.2-0.1,0.3-0.1c0.1,0,0.2-0.1,0.3-0.1c0.1,0,0.2-0.1,0.3-0.1c0,0,0.1,0,0.1-0.1c0,0,0.1,0,0.1-0.1
							c0.1,0,0.2-0.1,0.2-0.1c0.1,0,0.1-0.1,0.2-0.1c0.1-0.1,0.1-0.1,0.2-0.2c0.1-0.1,0.1-0.1,0.2-0.2c0.1-0.1,0.2-0.3,0.4-0.4
							c0.1-0.1,0.1-0.1,0.2-0.2c0.1-0.1,0.1-0.1,0.2-0.2l0,0l0,0c0.1-0.1,0.2-0.2,0.3-0.3c0.1-0.1,0.2-0.2,0.3-0.3
							c0,0,0.1-0.1,0.1-0.1c0,0,0.1-0.1,0.1-0.1c0,0,0.1-0.1,0.1-0.1c0,0,0-0.1,0.1-0.1c0,0,0-0.1,0.1-0.1c0,0,0,0.1,0,0.1
							c0,0,0,0.1-0.1,0.1c0,0.1-0.1,0.1-0.1,0.2c0,0.1-0.1,0.1-0.1,0.2c0,0-0.1,0.1-0.1,0.1c-0.2,0.2-0.4,0.4-0.5,0.6l0,0
							c-0.1,0.1-0.1,0.1-0.2,0.2c-0.1,0.1-0.1,0.1-0.2,0.2c-0.1,0.1-0.2,0.3-0.4,0.4c-0.1,0.1-0.1,0.1-0.2,0.2
							c-0.1,0.1-0.1,0.1-0.2,0.2c-0.1,0.1-0.2,0.1-0.2,0.2c-0.1,0-0.2,0.1-0.2,0.1c0,0-0.1,0-0.1,0.1c0,0-0.1,0-0.1,0.1
							c-0.1,0-0.2,0.1-0.3,0.1c-0.1,0-0.2,0.1-0.3,0.1c-0.1,0-0.2,0.1-0.3,0.1l-0.1,0c0,0-0.1,0-0.1,0c-0.1,0-0.2,0-0.3,0
							c-0.1,0-0.2,0-0.3,0c0,0,0,0-0.1,0c0,0,0,0-0.1,0C20,34.7,19.9,34.7,19.9,34.7z"/>
					</g>
					<g>
						<path class="st13" d="M22.5,35.7C22.5,35.7,22.5,35.7,22.5,35.7c0.1,0,0.1,0,0.2,0c0.1,0,0.1,0,0.2,0c0.1,0,0.2,0,0.2-0.1
							c0.1,0,0.2-0.1,0.3-0.1c0.1,0,0.2-0.1,0.3-0.2c0.1-0.1,0.2-0.1,0.3-0.2c0.1-0.1,0.2-0.2,0.3-0.2c0.1-0.1,0.2-0.2,0.3-0.2
							c0.1-0.1,0.2-0.2,0.3-0.2c0.2-0.2,0.3-0.3,0.5-0.4c0.3-0.2,0.5-0.4,0.5-0.4s0,0-0.1,0.1c-0.1,0.1-0.2,0.2-0.3,0.3
							c-0.1,0.1-0.3,0.3-0.5,0.4c-0.1,0.1-0.2,0.2-0.3,0.2c-0.1,0.1-0.2,0.2-0.3,0.2c-0.1,0.1-0.2,0.2-0.3,0.2
							c-0.1,0.1-0.2,0.1-0.3,0.2c-0.1,0.1-0.2,0.1-0.3,0.2c-0.1,0-0.2,0.1-0.3,0.1c-0.2,0-0.3,0-0.5,0
							C22.6,35.7,22.5,35.7,22.5,35.7C22.5,35.7,22.5,35.7,22.5,35.7z"/>
					</g>
				</g>
				<g>
					<path class="st16" d="M29.2,32.6c0,0-0.2-0.1-0.4-0.2c-0.1,0-0.1-0.1-0.2-0.1c-0.1,0-0.1-0.1-0.2-0.1c-0.1,0-0.2-0.1-0.2-0.2
						c0,0-0.1-0.1-0.1-0.1c0,0-0.1-0.1-0.1-0.1c-0.1-0.1-0.1-0.1-0.2-0.2c-0.1-0.1-0.2-0.1-0.2-0.2c-0.1,0-0.1-0.1-0.2-0.1
						c-0.1,0-0.1-0.1-0.2-0.1c-0.1-0.1-0.2-0.1-0.3-0.2c-0.1,0-0.1-0.1-0.1-0.1l0,0c0,0,0.2,0.1,0.4,0.2c0.1,0,0.1,0.1,0.2,0.1
						c0.1,0,0.1,0.1,0.2,0.1c0.1,0.1,0.1,0.1,0.2,0.2c0.1,0.1,0.1,0.1,0.2,0.2c0,0,0.1,0.1,0.1,0.1c0,0,0.1,0.1,0.1,0.1
						c0.1,0.1,0.1,0.1,0.2,0.2c0.1,0.1,0.1,0.1,0.2,0.1c0.1,0,0.1,0.1,0.2,0.1c0.1,0.1,0.2,0.1,0.3,0.2
						C29.1,32.6,29.2,32.6,29.2,32.6L29.2,32.6z"/>
				</g>
			</g>
		</g>
		<g>
			<g>
				<g>
					
						<rect x="33.6" y="17.6" transform="matrix(0.8222 -0.5692 0.5692 0.8222 -6.9529 24.0109)" class="st5" width="2.6" height="11.1"/>
				</g>
				<g>
					<g>
						
							<rect x="34.5" y="13.7" transform="matrix(0.8222 -0.5692 0.5692 0.8222 -4.7294 26.2969)" class="st2" width="10.4" height="14.1"/>
					</g>
					<g>
						<circle class="st11" cx="40.7" cy="25.2" r="1.4"/>
					</g>
				</g>
			</g>
			<g>
				<g>
					
						<rect x="11.7" y="17.3" transform="matrix(-0.8222 -0.5692 0.5692 -0.8222 10.743 49.1319)" class="st5" width="2.6" height="11.1"/>
				</g>
				<g>
					<g>
						
							<rect x="3.1" y="13.4" transform="matrix(-0.8222 -0.5692 0.5692 -0.8222 3.4253 42.0145)" class="st2" width="10.4" height="14.1"/>
					</g>
					<g>
						<circle class="st11" cx="7.3" cy="24.9" r="1.4"/>
					</g>
				</g>
			</g>
		</g>
	</g>
</g>
</svg>
