<?xml version="1.0" encoding="utf-8"?>
<!-- Generator: Adobe Illustrator 18.0.0, SVG Export Plug-In . SVG Version: 6.00 Build 0)  -->
<!DOCTYPE svg PUBLIC "-//W3C//DTD SVG 1.1//EN" "http://www.w3.org/Graphics/SVG/1.1/DTD/svg11.dtd">
<svg version="1.1" id="Layer_1" xmlns="http://www.w3.org/2000/svg" xmlns:xlink="http://www.w3.org/1999/xlink" x="0px" y="0px"
	 viewBox="0 0 512 512" enable-background="new 0 0 512 512" xml:space="preserve">
<g>
	<path fill="#F2F2F2" d="M477.8,339c-24.9-24.9-59.7-33.7-91.7-26.7L198.8,125c7-32-1.8-66.8-26.7-91.7
		c-26.7-26.7-64.9-35.1-98.8-25l61.9,61.9l-17.5,49.4L68.4,137L6.5,75.1c-10.1,33.9-1.8,72,25,98.8c24.9,24.9,59.7,33.7,91.7,26.7
		L310.5,388c-7,32,1.8,66.8,26.7,91.7c26.7,26.7,64.9,35.1,98.8,25l-61.9-61.9l17.4-49.4l49.4-17.4l61.9,61.9
		C512.9,403.9,504.6,365.7,477.8,339z"/>
	<polygon fill="#F2705B" points="127.1,493.4 125.7,493.6 125,493.7 2.7,510 18.7,387.4 18.8,386.4 18.9,385.6 308.4,95.4 
		319.9,83.9 327.1,76.7 435.1,184.7 427.9,191.9 416.5,203.4 	"/>
	<polygon fill="#89D6F7" points="311.3,92.5 308.4,95.4 18.9,385.6 18.8,386.4 18.7,387.4 53.8,422.5 347.6,128.7 	"/>
	<polygon fill="#89D6F7" points="383.4,164.6 89.6,458.4 125,493.7 125.7,493.6 127.1,493.4 419.7,200.8 	"/>
	
		<rect x="11" y="267.9" transform="matrix(0.7071 -0.7071 0.7071 0.7071 -143.5539 240.6251)" fill="#55BFE9" width="415.5" height="51.3"/>
	<path fill="#F2705B" d="M451.6,168.2l-108-108l51.4-51.5c8.8-8.8,23.1-8.8,31.9,0L503,84.7c8.8,8.8,8.8,23.1,0,31.9L451.6,168.2z"
		/>
	<polygon fill="#F2F2F2" points="416.5,203.4 308.4,95.4 343.5,60.2 451.6,168.2 	"/>
	<path fill="#FFD05C" d="M125.7,493.6l-123,16.4l16.1-123.6c9.5-2,19.8,0.7,27.2,8.1c7.6,7.6,10.2,18.2,7.9,28
		c9.7-2.3,20.4,0.3,28,7.9c7.6,7.6,10.2,18.2,7.9,28c9.7-2.3,20.4,0.3,28,7.9C125.1,473.5,127.8,484,125.7,493.6z"/>
	<path fill="#41596B" d="M48.5,503.9L2.7,510l6-46.4c8.7,3.4,16.8,8.5,23.9,15.6C39.9,486.4,45.2,494.8,48.5,503.9z"/>
</g>
</svg>
