<?xml version="1.0" encoding="utf-8"?>
<!-- Generator: Adobe Illustrator 20.1.0, SVG Export Plug-In . SVG Version: 6.00 Build 0)  -->
<!DOCTYPE svg PUBLIC "-//W3C//DTD SVG 1.1//EN" "http://www.w3.org/Graphics/SVG/1.1/DTD/svg11.dtd">
<svg version="1.1" id="Layer_1" xmlns="http://www.w3.org/2000/svg" xmlns:xlink="http://www.w3.org/1999/xlink" x="0px" y="0px"
	 viewBox="0 0 49 49" enable-background="new 0 0 49 49" xml:space="preserve">
<g>
	<path fill="#F2F2F2" d="M2.5,14.6v31.9c0,1.1,0.9,2,2,2h40c1.1,0,2-0.9,2-2V14.6H2.5z"/>
	<path fill="#FFFFFF" d="M24.8,23.4v4.7c-0.1,0-0.2,0-0.3,0s-0.2,0-0.3,0v-4.7H24.8z"/>
	<path fill="#FFFFFF" d="M24.8,41.8v4.7h-0.5v-4.7c0.1,0,0.2,0,0.3,0S24.7,41.8,24.8,41.8z"/>
	<path fill="#FFFFFF" d="M32.9,27l-3.3,3.3c-0.1-0.1-0.2-0.3-0.4-0.4l3.4-3.3L32.9,27z"/>
	<path fill="#FFFFFF" d="M19.9,40l-3.4,3.3L16.1,43l3.3-3.3C19.6,39.8,19.7,39.9,19.9,40z"/>
	<path fill="#FFFFFF" d="M36.1,34.7v0.5h-4.7c0-0.1,0-0.2,0-0.2c0-0.1,0-0.2,0-0.3H36.1z"/>
	<path fill="#FFFFFF" d="M17.7,35c0,0.1,0,0.2,0,0.2h-4.7v-0.5h4.7C17.7,34.8,17.7,34.9,17.7,35z"/>
	<path fill="#FFFFFF" d="M32.9,43l-0.4,0.4L29.1,40c0.1-0.1,0.3-0.2,0.4-0.4L32.9,43z"/>
	<path fill="#FFFFFF" d="M19.9,30c-0.1,0.1-0.3,0.2-0.4,0.4L16.1,27l0.4-0.4L19.9,30z"/>
	<path fill="#FFFFFF" d="M22.1,28.6c-0.2,0-0.3,0.1-0.5,0.2l-1.1-2.7l0.5-0.2L22.1,28.6z"/>
	<path fill="#FFFFFF" d="M28.5,43.9L28,44.1l-1.1-2.7c0.2-0.1,0.3-0.1,0.5-0.2L28.5,43.9z"/>
	<path fill="#FFFFFF" d="M18.3,32.2c-0.1,0.1-0.1,0.3-0.2,0.5l-2.7-1.1l0.2-0.5L18.3,32.2z"/>
	<path fill="#FFFFFF" d="M33.6,38.5l-0.2,0.5l-2.7-1.1c0.1-0.1,0.1-0.3,0.2-0.5L33.6,38.5z"/>
	<path fill="#FFFFFF" d="M18.3,37.8l-2.7,1.1l-0.2-0.5l2.7-1.1C18.1,37.5,18.2,37.7,18.3,37.8z"/>
	<path fill="#FFFFFF" d="M33.6,31.5l-2.7,1.1c0-0.2-0.1-0.3-0.2-0.5l2.7-1.1L33.6,31.5z"/>
	<path fill="#FFFFFF" d="M22.1,41.4L21,44.1l-0.5-0.2l1.1-2.7C21.8,41.3,22,41.3,22.1,41.4z"/>
	<path fill="#FFFFFF" d="M28.5,26.1l-1.1,2.7c-0.1-0.1-0.3-0.1-0.5-0.2l1.1-2.7L28.5,26.1z"/>
	<path fill="#FFD15C" d="M44.5,0.5h-40c-1.1,0-2,0.9-2,2v7h44v-7C46.5,1.4,45.6,0.5,44.5,0.5z"/>
	<polygon fill="#40596B" points="33.4,33.4 35.8,41.9 38,39.8 40.1,41.9 42,40 39.9,37.9 42,35.8 	"/>
	<circle fill="#FF7058" cx="19" cy="5" r="1.5"/>
	<circle fill="#F2F2F2" cx="13.2" cy="5" r="1.5"/>
	<circle fill="#40596B" cx="7.4" cy="5" r="1.5"/>
	<path fill="#E4EAEF" d="M46.5,15.6v5.9c-0.8,0.6-1.8,0.9-2.8,0.9c-2.7,0-4.8-2.1-4.8-4.8c0,2.6-2.2,4.8-4.8,4.8
		c-2.6,0-4.8-2.1-4.8-4.8c0,2.6-2.2,4.8-4.8,4.8s-4.8-2.1-4.8-4.8c0,2.6-2.1,4.8-4.8,4.8s-4.8-2.1-4.8-4.8c0,2.6-2.2,4.8-4.8,4.8
		c-1.1,0-2-0.3-2.8-0.9v-5.9H46.5z"/>
	<polygon fill="#FF7058" points="10.1,14.6 0.5,14.6 2.5,9.5 11.3,9.5 	"/>
	<polygon fill="#CDD6E0" points="19.7,14.6 10.1,14.6 11.3,9.5 20.1,9.5 	"/>
	<polygon fill="#FF7058" points="29.3,14.6 19.7,14.6 20.1,9.5 28.9,9.5 	"/>
	<polygon fill="#CDD6E0" points="38.9,14.6 29.3,14.6 28.9,9.5 37.7,9.5 	"/>
	<polygon fill="#FF7058" points="48.5,14.6 38.9,14.6 37.7,9.5 46.5,9.5 	"/>
	<g>
		<path fill="#ACB3BA" d="M10.1,16.7c0,2.7,2.1,4.8,4.8,4.8c2.7,0,4.8-2.1,4.8-4.8v-2.1h-9.6V16.7z"/>
		<path fill="#ACB3BA" d="M29.3,14.6v2.1c0,2.7,2.1,4.8,4.8,4.8c2.7,0,4.8-2.1,4.8-4.8v-2.1H29.3z"/>
	</g>
	<g>
		<path fill="#F1543F" d="M0.5,16.7c0,2.7,2.1,4.8,4.8,4.8h0c2.7,0,4.8-2.1,4.8-4.8v-2.1H0.5V16.7z"/>
		<path fill="#F1543F" d="M19.7,16.7c0,2.7,2.1,4.8,4.8,4.8s4.8-2.1,4.8-4.8v-2.1h-9.6V16.7z"/>
		<path fill="#F1543F" d="M38.9,14.6v2.1c0,2.7,2.1,4.8,4.8,4.8c2.7,0,4.8-2.1,4.8-4.8v-2.1H38.9z"/>
	</g>
	<circle fill="#FF7058" cx="24.5" cy="35" r="7.5"/>
	<path fill="#FFFFFF" d="M23.3,37.2L23,36.3h5.8v-4.4h-6.9l-0.4-1.6h-2v0.7h1.5l1.8,6.9H29v-0.7H23.3z M28.1,32.7v2.9h-5.2l-0.8-2.9
		H28.1z"/>
	<g>
		<circle fill="#FFFFFF" cx="24.3" cy="39.4" r="0.9"/>
		<circle fill="#FFFFFF" cx="27.6" cy="39.4" r="0.9"/>
	</g>
</g>
</svg>
