<?xml version="1.0" encoding="utf-8"?>
<!-- Generator: Adobe Illustrator 18.0.0, SVG Export Plug-In . SVG Version: 6.00 Build 0)  -->
<!DOCTYPE svg PUBLIC "-//W3C//DTD SVG 1.1//EN" "http://www.w3.org/Graphics/SVG/1.1/DTD/svg11.dtd">
<svg version="1.1" id="Layer_1" xmlns="http://www.w3.org/2000/svg" xmlns:xlink="http://www.w3.org/1999/xlink" x="0px" y="0px"
	 viewBox="0 0 48 48" enable-background="new 0 0 48 48" xml:space="preserve">
<g>
	<g>
		<path fill="#F3705A" d="M27.2,0h-6.5c-1,0-1.9,0.8-1.9,1.9v8.2h10.3V1.9C29.1,0.8,28.3,0,27.2,0z"/>
		<path fill="#344A5E" d="M26.3,2.9c-1.5,0.5-3,0.5-4.6,0c-0.6-0.2-1.2,0.2-1.2,0.8v6.4h6.9V3.7C27.4,3.1,26.9,2.7,26.3,2.9z"/>
		<circle fill="#F3F3F3" cx="24" cy="6.6" r="1.6"/>
		<circle fill="#344A5E" cx="24" cy="6.6" r="0.6"/>
		<rect x="17.6" y="10.1" fill="#E8EAE9" width="12.9" height="6.2"/>
		<path fill="#F3F3F3" d="M22.3,47.4C19.2,44.9,3.9,32.1,3.9,24c0-6.5,5.3-11.7,11.7-11.7c3.2,0,6.2,1.3,8.4,3.6
			c2.1-2.2,5.2-3.6,8.4-3.6c6.5,0,11.7,5.3,11.7,11.7c0,8.1-15.3,20.9-18.4,23.4l0,0C24.7,48.2,23.3,48.2,22.3,47.4L22.3,47.4z"/>
		<path fill="#66C6B9" d="M7.3,26.8C10.4,34.3,24,45.3,24,45.3s13.6-11,16.7-18.5C30.4,16.4,17.8,34.9,7.3,26.8z"/>
		<g>
			<g>
				<path fill="#4ABAA5" d="M27.6,36.7C23.1,31.6,23,23.5,23,10.1h2C25,23,25.1,30.9,29.1,35.4L27.6,36.7z"/>
			</g>
		</g>
	</g>
</g>
</svg>
