<?xml version="1.0" encoding="utf-8"?>
<!-- Generator: Adobe Illustrator 18.0.0, SVG Export Plug-In . SVG Version: 6.00 Build 0)  -->
<!DOCTYPE svg PUBLIC "-//W3C//DTD SVG 1.1//EN" "http://www.w3.org/Graphics/SVG/1.1/DTD/svg11.dtd">
<svg version="1.1" id="Layer_1" xmlns="http://www.w3.org/2000/svg" xmlns:xlink="http://www.w3.org/1999/xlink" x="0px" y="0px"
	 viewBox="0 0 48 48" enable-background="new 0 0 48 48" xml:space="preserve">
<g>
	<g>
		<rect x="22.7" y="0.5" fill="#CDD6E0" width="2" height="6.1"/>
		<g>
			<path fill="#40596B" d="M23.7,12.1c-1.7,0-3.1-1.4-3.1-3.1s1.4-3.1,3.1-3.1c1.7,0,3.1,1.4,3.1,3.1S25.5,12.1,23.7,12.1z
				 M23.7,7.3c-0.9,0-1.6,0.7-1.6,1.6c0,0.9,0.7,1.6,1.6,1.6s1.6-0.7,1.6-1.6C25.4,8.1,24.7,7.3,23.7,7.3z"/>
		</g>
		<g>
			<path fill="#54C0EB" d="M31.2,46c0.1-0.8,0.1-1.6,0.2-2.3c1.5-0.1,2.9-0.2,4.3-0.4c0.5-0.4,0.9-0.8,1.4-1.2
				c-1.9,0.2-3.8,0.4-5.7,0.5c0.1-2.1,0.2-4.3,0.3-6.4c2.1-0.1,4.3-0.1,6.4-0.3c-0.1,1.9-0.3,3.8-0.5,5.7c0.4-0.4,0.8-0.9,1.2-1.4
				c0.1-1.4,0.3-2.9,0.4-4.3c0.8,0,1.6-0.1,2.3-0.2c0.2-0.4,0.3-0.7,0.4-1.1c-0.9,0.1-1.8,0.1-2.7,0.2c0.1-2,0.2-4,0.2-6H43
				c0-0.2,0-0.4,0-0.5s0-0.4,0-0.5h-3.6c0-2-0.1-4-0.2-6c0.9,0.1,1.8,0.1,2.7,0.2c-0.1-0.4-0.3-0.7-0.4-1.1
				c-0.8-0.1-1.6-0.1-2.3-0.2c-0.1-1.5-0.2-2.9-0.4-4.3c-0.4-0.5-0.8-0.9-1.2-1.4c0.2,1.9,0.4,3.8,0.5,5.7c-2.1-0.1-4.3-0.2-6.4-0.3
				c-0.1-2.1-0.1-4.3-0.3-6.4c1.9,0.1,3.8,0.3,5.7,0.5c-0.4-0.4-0.9-0.8-1.4-1.2c-1.4-0.1-2.9-0.3-4.3-0.4c0-0.8-0.1-1.6-0.2-2.3
				c-0.4-0.2-0.7-0.3-1.1-0.4c0.1,0.9,0.1,1.8,0.2,2.7c-2-0.1-4-0.2-6-0.2V9c-0.2,0-0.4,0-0.5,0c-0.2,0-0.4,0-0.5,0v3.6
				c-2,0-4,0.1-6,0.2c0.1-0.9,0.1-1.8,0.2-2.7c-0.4,0.1-0.7,0.3-1.1,0.4c-0.1,0.8-0.1,1.6-0.2,2.3c-1.5,0.1-2.9,0.2-4.3,0.4
				c-0.5,0.4-0.9,0.8-1.4,1.2c1.9-0.2,3.8-0.4,5.7-0.5c-0.1,2.1-0.2,4.3-0.3,6.4c-2.1,0.1-4.3,0.1-6.4,0.3c0.1-1.9,0.3-3.8,0.5-5.7
				c-0.4,0.4-0.8,0.9-1.2,1.4c-0.1,1.4-0.3,2.9-0.4,4.3c-0.8,0-1.6,0.1-2.3,0.2c-0.2,0.4-0.3,0.7-0.4,1.1c0.9-0.1,1.8-0.1,2.7-0.2
				c-0.1,2-0.2,4-0.2,6H4.5c0,0.2,0,0.4,0,0.5s0,0.4,0,0.5h3.6c0,2,0.1,4,0.2,6c-0.9-0.1-1.8-0.1-2.7-0.2C5.7,35,5.8,35.4,6,35.7
				c0.8,0.1,1.6,0.1,2.3,0.2c0.1,1.5,0.2,2.9,0.4,4.3c0.4,0.5,0.8,0.9,1.2,1.4c-0.2-1.9-0.4-3.8-0.5-5.7c2.1,0.1,4.3,0.2,6.4,0.3
				c0.1,2.1,0.1,4.3,0.3,6.4c-1.9-0.1-3.8-0.3-5.7-0.5c0.4,0.4,0.9,0.8,1.4,1.2c1.4,0.1,2.9,0.3,4.3,0.4c0,0.8,0.1,1.6,0.2,2.3
				c0.4,0.2,0.7,0.3,1.1,0.4c-0.1-0.9-0.1-1.8-0.2-2.7c2,0.1,4,0.2,6,0.2v3.6c0.2,0,0.4,0,0.5,0c0.2,0,0.4,0,0.5,0v-3.6
				c2,0,4-0.1,6-0.2c-0.1,0.9-0.1,1.8-0.2,2.7C30.5,46.3,30.9,46.2,31.2,46z M38.2,21.6c0.1,2,0.2,4.1,0.2,6.1h-6.5
				c0-2.1,0-4.3-0.1-6.4C33.9,21.4,36,21.5,38.2,21.6z M31.9,28.8h6.5c0,2-0.1,4.1-0.2,6.1c-2.1,0.1-4.3,0.2-6.4,0.3
				C31.8,33,31.8,30.9,31.9,28.8z M9.3,34.9c-0.1-2-0.2-4.1-0.2-6.1h6.5c0,2.1,0,4.3,0.1,6.4C13.6,35.1,11.4,35,9.3,34.9z
				 M15.6,27.7H9.1c0-2,0.1-4.1,0.2-6.1c2.1-0.1,4.3-0.2,6.4-0.3C15.7,23.5,15.6,25.6,15.6,27.7z M23.2,42.9c-2,0-4.1-0.1-6.1-0.2
				c-0.1-2.1-0.2-4.3-0.3-6.4c2.1,0.1,4.3,0.1,6.4,0.1V42.9z M23.2,35.3c-2.1,0-4.3,0-6.4-0.1c-0.1-2.1-0.1-4.3-0.1-6.4h6.5V35.3z
				 M23.2,27.7h-6.5c0-2.1,0-4.3,0.1-6.4c2.1-0.1,4.3-0.1,6.4-0.1V27.7z M23.2,20.1c-2.1,0-4.3,0-6.4,0.1c0.1-2.1,0.2-4.3,0.3-6.4
				c2-0.1,4.1-0.2,6.1-0.2V20.1z M24.3,13.6c2,0,4.1,0.1,6.1,0.2c0.1,2.1,0.2,4.3,0.3,6.4c-2.1-0.1-4.3-0.1-6.4-0.1V13.6z
				 M24.3,21.2c2.1,0,4.3,0,6.4,0.1c0.1,2.1,0.1,4.3,0.1,6.4h-6.5V21.2z M24.3,28.8h6.5c0,2.1,0,4.3-0.1,6.4
				c-2.1,0.1-4.3,0.1-6.4,0.1V28.8z M24.3,42.9v-6.5c2.1,0,4.3,0,6.4-0.1c-0.1,2.1-0.2,4.3-0.3,6.4C28.4,42.8,26.3,42.9,24.3,42.9z"
				/>
			<path fill="#FFD15C" d="M24.3,42.9c2,0,4.1-0.1,6.1-0.2c0.1-2.1,0.2-4.3,0.3-6.4c-2.1,0.1-4.3,0.1-6.4,0.1V42.9z"/>
			<path fill="#FF7058" d="M30.1,46.4c0.1-0.9,0.1-1.8,0.2-2.7c-2,0.1-4,0.2-6,0.2v3.6C26.3,47.5,28.3,47.1,30.1,46.4z"/>
			<path fill="#84DBFF" d="M30.8,28.8h-6.5v6.5c2.1,0,4.3,0,6.4-0.1C30.8,33.1,30.8,30.9,30.8,28.8z"/>
			<path fill="#FFFFFF" d="M23.2,13.6c-2,0-4.1,0.1-6.1,0.2c-0.1,2.1-0.2,4.3-0.3,6.4c2.1-0.1,4.3-0.1,6.4-0.1V13.6z"/>
			<path fill="#FFD15C" d="M24.3,12.6c2,0,4,0.1,6,0.2c-0.1-0.9-0.1-1.8-0.2-2.7c-1.8-0.6-3.8-1-5.9-1.1V12.6z"/>
			<path fill="#84DBFF" d="M24.3,21.2v6.5h6.5c0-2.1,0-4.3-0.1-6.4C28.6,21.2,26.4,21.2,24.3,21.2z"/>
			<path fill="#FF7058" d="M30.4,13.8c-2-0.1-4.1-0.2-6.1-0.2v6.5c2.1,0,4.3,0,6.4,0.1C30.6,18.1,30.5,16,30.4,13.8z"/>
			<path fill="#FF7058" d="M31.9,27.7h6.5c0-2-0.1-4.1-0.2-6.1c-2.1-0.1-4.3-0.2-6.4-0.3C31.8,23.5,31.8,25.6,31.9,27.7z"/>
			<path fill="#84DBFF" d="M39.4,27.7H43c-0.1-2-0.4-4-1.1-5.9c-0.9-0.1-1.8-0.1-2.7-0.2C39.4,23.7,39.4,25.7,39.4,27.7z"/>
			<path fill="#84DBFF" d="M38.8,16.3c0.1,1.4,0.3,2.9,0.4,4.3c0.8,0,1.6,0.1,2.3,0.2c0.1,0.3,0.2,0.5,0.3,0.8
				c-0.9-2.5-2.4-4.8-4.2-6.7C38,15.3,38.4,15.8,38.8,16.3z"/>
			<path fill="#FFD15C" d="M38.2,34.9c0.1-2,0.2-4.1,0.2-6.1h-6.5c0,2.1,0,4.3-0.1,6.4C33.9,35.1,36,35,38.2,34.9z"/>
			<path fill="#84DBFF" d="M43,28.8h-3.6c0,2-0.1,4-0.2,6c0.9-0.1,1.8-0.1,2.7-0.2c0.7-2,1.1-4.1,1.1-6.4C43,28.4,43,28.6,43,28.8z"
				/>
			<path fill="#84DBFF" d="M31.2,10.5c0.1,0.8,0.1,1.6,0.2,2.3c1.5,0.1,2.9,0.2,4.3,0.4c0.5,0.4,0.9,0.8,1.4,1.2
				c-1.9-0.2-3.8-0.4-5.7-0.5c0.1,2.1,0.2,4.3,0.3,6.4c2.1,0.1,4.3,0.1,6.4,0.3c-0.1-1.9-0.3-3.8-0.5-5.7c-1.9-2-4.2-3.5-6.8-4.5
				C31,10.4,31.1,10.4,31.2,10.5z"/>
			<path fill="#84DBFF" d="M41.8,35.1c-0.1,0.2-0.1,0.4-0.2,0.6c-0.8,0.1-1.6,0.1-2.3,0.2c-0.1,1.4-0.2,2.9-0.4,4.3
				c-0.4,0.5-0.8,0.9-1.2,1.4C39.4,39.8,40.8,37.6,41.8,35.1z"/>
			<path fill="#FFD15C" d="M16,42.6c-0.1-2.1-0.2-4.3-0.3-6.4c-2.1-0.1-4.3-0.1-6.4-0.3c0.1,1.9,0.3,3.8,0.5,5.7
				c0.2,0.2,0.3,0.3,0.5,0.5C12.3,42.3,14.1,42.5,16,42.6z"/>
			<path fill="#84DBFF" d="M6,35.7c0-0.1-0.1-0.2-0.1-0.3c0.7,1.7,1.6,3.3,2.8,4.8c-0.1-1.4-0.3-2.9-0.4-4.3
				C7.5,35.9,6.7,35.8,6,35.7z"/>
			<path fill="#FFD15C" d="M9.3,21.6c-0.1,2-0.2,4.1-0.2,6.1h6.5c0-2.1,0-4.3,0.1-6.4C13.6,21.4,11.4,21.5,9.3,21.6z"/>
			<path fill="#84DBFF" d="M9.9,41.6c-0.4-0.4-0.8-0.9-1.2-1.4C9,40.7,9.5,41.2,9.9,41.6z"/>
			<path fill="#84DBFF" d="M16.7,27.7h6.5v-6.5c-2.1,0-4.3,0-6.4,0.1C16.7,23.4,16.7,25.6,16.7,27.7z"/>
			<path fill="#F2F2F2" d="M4.5,27.7h3.6c0-2,0.1-4,0.2-6c-0.9,0.1-1.8,0.1-2.7,0.2C4.9,23.7,4.5,25.7,4.5,27.7z"/>
			<path fill="#84DBFF" d="M15.6,28.8H9.1c0,2,0.1,4.1,0.2,6.1c2.1,0.1,4.3,0.2,6.4,0.3C15.7,33,15.6,30.9,15.6,28.8z"/>
			<path fill="#84DBFF" d="M8.2,34.8c-0.1-2-0.2-4-0.2-6H4.5c0-0.2,0-0.4,0-0.5c0,2.2,0.4,4.4,1.1,6.4C6.5,34.7,7.3,34.8,8.2,34.8z"
				/>
			<path fill="#F2F2F2" d="M38.1,36c-2.1,0.1-4.3,0.2-6.4,0.3c-0.1,2.1-0.1,4.3-0.3,6.4c1.9-0.1,3.8-0.3,5.7-0.5
				c-0.4,0.4-0.9,0.8-1.4,1.2c-1.4,0.1-2.9,0.3-4.3,0.4c0,0.8-0.1,1.6-0.2,2.3c2.4-1,4.6-2.5,6.4-4.4C37.8,39.7,38,37.9,38.1,36z"/>
			<path fill="#84DBFF" d="M23.2,43.9c-2,0-4-0.1-6-0.2c0.1,0.9,0.1,1.8,0.2,2.7c1.8,0.6,3.8,1,5.9,1.1V43.9z"/>
			<path fill="#FFFFFF" d="M23.2,42.9v-6.5c-2.1,0-4.3,0-6.4-0.1c0.1,2.1,0.2,4.3,0.3,6.4C19.1,42.8,21.2,42.9,23.2,42.9z"/>
			<path fill="#84DBFF" d="M10.4,42.1c1.7,1.6,3.7,3,5.9,3.9c-0.1-0.8-0.1-1.6-0.2-2.3c-1.5-0.1-2.9-0.2-4.3-0.4
				C11.3,43,10.8,42.6,10.4,42.1z"/>
			<path fill="#FF7058" d="M23.2,35.3v-6.5h-6.5c0,2.1,0,4.3,0.1,6.4C18.9,35.3,21.1,35.3,23.2,35.3z"/>
			<path fill="#FF7058" d="M17.3,10.1C17.4,10.1,17.4,10.1,17.3,10.1c0,0.9-0.1,1.8-0.2,2.7c2-0.1,4-0.2,6-0.2V9
				C21.2,9.1,19.2,9.4,17.3,10.1z"/>
			<path fill="#84DBFF" d="M6,20.8c0.8-0.1,1.6-0.1,2.3-0.2c0.1-1.5,0.2-2.9,0.4-4.3c0.4-0.5,0.8-0.9,1.2-1.4
				c-0.2,1.9-0.4,3.8-0.5,5.7c2.1-0.1,4.3-0.2,6.4-0.3c0.1-2.1,0.1-4.3,0.3-6.4c-1.9,0.1-3.8,0.3-5.7,0.5c0.4-0.4,0.9-0.8,1.4-1.2
				c1.4-0.1,2.9-0.3,4.3-0.4c0-0.8,0.1-1.6,0.2-2.3c-4.9,2.1-8.8,6.1-10.6,11.2C5.7,21.4,5.8,21.1,6,20.8z"/>
		</g>
		<polygon fill="#FFD15C" points="48,7.5 42.8,6.7 42,1.6 41.2,6.8 36.3,7.5 41.2,8.3 42,13.4 42.8,8.3 		"/>
		<polygon fill="#CDD6E0" points="37.2,0.5 36.8,3 34.1,3.4 36.7,3.9 37.2,6.6 37.6,3.9 40.2,3.4 37.6,3 		"/>
		<polygon fill="#FFD15C" points="6.2,5.6 5.9,7.2 4.3,7.4 5.9,7.7 6.2,9.4 6.5,7.7 8.1,7.4 6.5,7.2 		"/>
		<polygon fill="#CDD6E0" points="3.8,10.9 3.3,7.9 2.9,10.9 0,11.4 2.9,11.8 3.3,14.8 3.8,11.8 6.9,11.4 		"/>
	</g>
	<polygon fill="#FFFFFF" points="37.6,20.3 32.4,19.4 31.6,14.4 30.8,19.5 25.9,20.3 30.8,21 31.6,26.1 32.4,21.1 	"/>
	<polygon fill="#FFFFFF" points="23.2,26.1 22.8,28.7 20.2,29.1 22.8,29.5 23.2,32.2 23.6,29.5 26.3,29.1 23.6,28.7 	"/>
</g>
</svg>
