<?xml version="1.0" encoding="utf-8"?>
<!-- Generator: Adobe Illustrator 18.0.0, SVG Export Plug-In . SVG Version: 6.00 Build 0)  -->
<!DOCTYPE svg PUBLIC "-//W3C//DTD SVG 1.1//EN" "http://www.w3.org/Graphics/SVG/1.1/DTD/svg11.dtd">
<svg version="1.1" id="Layer_1" xmlns="http://www.w3.org/2000/svg" xmlns:xlink="http://www.w3.org/1999/xlink" x="0px" y="0px"
	 viewBox="0 0 48 48" enable-background="new 0 0 48 48" xml:space="preserve">
<g>
	<g>
		<path fill="#F05540" d="M10.6,44.3c0,0,6.8-0.3,6.1,2.3s13.9,1,15-0.9c1.1-1.8,3.8,0.8,3.8-0.1c0.1-1-0.9-2,1.8-1.4
			C37.4,33.7,10.6,35.5,10.6,44.3z"/>
	</g>
	<g>
		<g>
			<path fill="#E8EAE9" d="M24,0.6c0.5,0,0.9,0.4,0.9,0.9c0,0.3-0.1,0.5-0.3,0.7c-0.6,0.6-0.9,1.3-0.9,2.1v0.5h0.6V4.3
				c0-0.6,0.3-1.1,0.7-1.6c0.3-0.3,0.5-0.7,0.5-1.2C25.5,0.7,24.8,0,24,0c-0.4,0-0.8,0.1-1.1,0.4c-0.3,0.3-0.5,0.7-0.5,1.1
				c0,0.2,0.1,0.3,0.3,0.3c0.2,0,0.3-0.1,0.3-0.3c0-0.3,0.1-0.5,0.3-0.7C23.5,0.7,23.8,0.6,24,0.6z"/>
		</g>
	</g>
	<g>
		<g>
			<path fill="#FFD15C" d="M27.9,7.6c-0.4-1.9-2.1-3.2-3.9-3.2s-3.5,1.3-3.9,3.2H27.9z"/>
		</g>
		<g>
			<path fill="#F05540" d="M14.8,8.1c6.1,3.6,12.3,3.6,18.4,0C36.4,10,32.8,15,28,20.6c-0.3,0.3-8.4,0.5-8.4,0.5
				C17,16.3,11.6,9.8,14.8,8.1z"/>
		</g>
		<g>
			<path fill="#FFD15C" d="M38.6,10.8c0,0-2.4-1.8-11-4.5c-0.4-0.1-0.8-0.3-1.1-0.6h-5.2c-0.3,0.3-0.7,0.5-1.1,0.6
				c-8.6,2.7-11,4.5-11,4.5c-1.3,0.9-0.1,2.5,1.1,1.4c1.5-1.5,5.7-2.8,9-3.6c3-0.8,6.2-0.8,9.2,0c3.3,0.9,7.4,2.2,9,3.6
				C38.8,13.3,39.9,11.7,38.6,10.8z"/>
		</g>
		<g>
			<path fill="#F3705A" d="M38.9,27.7l-1.5,16.6c0,0-4.1-0.8-4.3-3.7c-0.3-1.1-2.5-0.2-3.2-0.5c-0.7-0.3-1.8-2.8-2.9-1.5
				c-1.7,2.1-3,0.5-3,0.5s-1.4-1.4-2.5-0.8c-0.3,0.1-0.4,0.4-0.6,0.6c-0.6,1.3-2.8,1.2-2.8,1.2s-2.9-0.6-3.2,0.5
				c-0.2,2.9-4.3,3.7-4.3,3.7L9.1,27.7c6.3-2.2,3.8-16.2,3.3-18.4c0-0.2,0.1-0.3,0.2-0.4l2.1-0.7c0,0-0.1,0.1,0,0.3
				C16.9,15,20,18.7,24,19.1c4-0.4,7.1-4.1,9.3-10.6c0.1-0.3,0-0.3,0-0.3l2.1,0.7c0.2,0.1,0.3,0.2,0.2,0.4
				C35.1,11.4,32.6,25.5,38.9,27.7z"/>
		</g>
	</g>
</g>
</svg>
