<?xml version="1.0" encoding="utf-8"?>
<!-- Generator: Adobe Illustrator 18.0.0, SVG Export Plug-In . SVG Version: 6.00 Build 0)  -->
<!DOCTYPE svg PUBLIC "-//W3C//DTD SVG 1.1//EN" "http://www.w3.org/Graphics/SVG/1.1/DTD/svg11.dtd">
<svg version="1.1" id="Layer_1" xmlns="http://www.w3.org/2000/svg" xmlns:xlink="http://www.w3.org/1999/xlink" x="0px" y="0px"
	 viewBox="0 0 48 48" enable-background="new 0 0 48 48" xml:space="preserve">
<g>
	<g>
		<g>
			<g>
				<g>
					<g>
						<path fill="#F5B54C" d="M20.5,44.5L20,43.7c0,0,0.5-2.3,0.8-2.9c0.2-0.6,0.6-0.6,0.7-0.6s1.6,0.5,1.6,0.5l0,2
							C22.4,43.5,21.5,44,20.5,44.5"/>
					</g>
				</g>
			</g>
			<g>
				<g>
					<g>
						<g>
							<path fill="#F05640" d="M23,47.6l-0.3,0l0-1.9c0,0,0.1-0.9-0.5-0.5c-0.6,0.4-1.4,2-1.7,2.4c-0.3,0.4-2.5,0.6-3.1-0.1
								c-0.1-0.1-0.1-0.2-0.1-0.3c0-0.1,0.1-0.1,0.2-0.1l0.5,0.1c0.2-0.2,0.3-0.5,0.4-0.7c0-0.1,0.1-0.2,0.2-0.2
								c0.1,0,0.1,0,0.3-0.1c0.2-0.1,0.4-0.3,0.5-0.6c0.2-0.4,0.8-1.9,0.8-1.9c1.4,0.4,2.9-1.1,2.9-1.1s1.3,0.8,0.7,1.6
								C22.9,45,23,47.6,23,47.6z"/>
						</g>
					</g>
				</g>
				<g>
					<g>
						<g>
							<path fill="#344A5E" d="M23,47.6l-0.3,0l0-1.9c0,0,0.1-0.9-0.5-0.5c-0.6,0.4-1.4,2-1.7,2.4c-0.3,0.4-2.5,0.6-3.1-0.1
								c-0.1-0.1-0.1-0.2-0.1-0.3c0-0.1,0.1-0.1,0.2-0.1l0.5,0.1c0,0,0.6,0.1,0.9,0.2c0.3,0.1,1.7-0.1,1.9-0.3
								c0.1-0.2,0.5-0.8,0.9-1.2c0.3-0.5,0.7-0.8,1.2-1.2c0.3-0.2,0.6-0.4,0.9-0.5c0,0,0,0,0,0.1C22.9,45,23,47.6,23,47.6z"/>
						</g>
					</g>
				</g>
			</g>
			<g>
				<g>
					<g>
						<path fill="#425A6B" d="M24.8,20.3c0,0,0.9,2.4-0.8,3.6c0,0-0.5,0.9-0.6,1.9c-0.1,1-0.4,3.4-0.5,3.8c-0.1,0.4-0.2,1.5,0,2.2
							c0.2,0.7,1,5.5,0.3,10.3c0,0-0.7-0.1-1.4,0c-0.8,0.1-1.3-0.3-1.3-0.3s0.3-1.4,0.1-3.7c-0.2-2.2-0.4-3.8-0.4-3.8
							s-0.6-1.9-0.8-3.2c-0.2-1.2-0.7-5.7-0.5-8.2c0,0-0.2-2.8,0-3.4c0.1-0.6,1.4-1,1.4-1h3.2C24,19,24.5,19.5,24.8,20.3z"/>
					</g>
				</g>
			</g>
			<g>
				<g>
					<g>
						<g>
							<path fill="#FFD15C" d="M23.8,39.4l-2,0.7c0,0,1.6,2.5,2.3,3.3l1.1-1.1l-0.4-1.9C24.9,40.3,24.4,39.9,23.8,39.4z"/>
						</g>
					</g>
				</g>
				<g>
					<g>
						<g>
							<path fill="#344A5E" d="M19.6,29.7c0,0-0.5,2.3,0.3,3.6c0.8,1.3,4.4,5.6,5.1,6.7c0,0-1.1,0.7-1.7,1.3c0,0-0.4,0.4-0.6,0.4
								c0,0-2.1-3.1-2.6-3.5c-0.5-0.4-2.9-3.6-2.9-3.6s-1.6-1.3-1.4-2.6s0.7-4.8,1-6c0.3-1.2,0.9-3,1.1-3.5c0.2-0.6,0.3-3,0.3-3
								l1.4,0.1l-0.1,1.6L19.6,29.7z"/>
						</g>
					</g>
				</g>
				<g>
					<g>
						<g>
							<path fill="#F26F5A" d="M29.2,43L29,43.2l-1.6-1c0,0-0.8-0.6-0.7,0.1c0,0.7,0.9,2.2,1.1,2.7c0.2,0.5-0.9,2.5-1.8,2.5
								c-0.2,0-0.3,0-0.4-0.1c-0.1,0-0.1-0.1,0-0.2l0.4-0.3c-0.1-0.3-0.3-0.5-0.4-0.7c-0.1-0.1-0.1-0.2,0-0.3c0-0.1,0-0.1,0.1-0.3
								c0.1-0.2,0-0.5-0.2-0.7c-0.2-0.4-1.2-1.7-1.2-1.7c1.1-1,0.7-3,0.7-3s1.4-0.6,1.7,0.3C26.9,41.5,29.2,43,29.2,43z"/>
						</g>
					</g>
				</g>
				<g>
					<g>
						<g>
							<path fill="#425A6B" d="M29.2,43L29,43.2l-1.6-1c0,0-0.8-0.6-0.7,0.1c0,0.7,0.9,2.2,1.1,2.7c0.2,0.5-0.9,2.5-1.8,2.5
								c-0.2,0-0.3,0-0.4-0.1c-0.1,0-0.1-0.1,0-0.2l0.4-0.3c0,0,0.4-0.4,0.7-0.6c0.2-0.2,0.9-1.4,0.7-1.7c-0.1-0.2-0.4-0.9-0.5-1.4
								c-0.2-0.5-0.3-1.1-0.3-1.6c0-0.4,0-0.7,0.1-1c0,0,0,0,0,0.1C26.9,41.5,29.2,43,29.2,43z"/>
						</g>
					</g>
				</g>
			</g>
			<g>
				<g>
					<g>
						<path fill="#FFD15C" d="M19.5,10.5l-1.4,3.1c0,0,0.7,0.2,1.2,0.2c0.5,0,0.9,0.3,1.1,0.3c0.2,0,0.7,0.1,1.1,0.1
							c0.4,0,0.8,0.2,0.8,0.2l0.6,0.2l0.3,0.3l0.4,0.2c0,0-0.1,0.4-0.6,0.2l0.3,0.3l0.2,0.4c0,0,0.2,0.1,0,0.3s-0.3-0.1-0.3-0.1
							s0.6,0.4,0.5,0.6c-0.1,0.2-0.1,0.2-0.3,0.2c0,0,0.1,0.1,0,0.3c-0.1,0.1-0.7-0.2-0.7-0.2s0.2,0.4-0.2,0.3
							c-0.4-0.1-1.3-0.5-1.3-0.5s-0.9-0.3-1.2-0.7c-0.3-0.5-0.5-0.5-0.8-0.5c-0.2,0-1.8,0.3-2.9-0.2c0,0-0.5,0-0.5-0.5
							s0.2-1.1,0.5-1.6c0.3-0.5,0.9-1.5,1.1-1.8c0.2-0.3,0.9-1.3,1.2-2c0.3-0.7,0.8-1,0.8-1L19.5,10.5z"/>
					</g>
				</g>
			</g>
			<g>
				<g>
					<g>
						<ellipse fill="#F26F5A" cx="26" cy="5" rx="1.3" ry="2.4"/>
					</g>
				</g>
			</g>
			<g>
				<g>
					<g>
						<path fill="#F26F5A" d="M23.9,1.3C23.9,1.3,23.8,1.3,23.9,1.3c-0.8,0-1.3,1.4-1.3,3.2s0.6,3.2,1.3,3.2c0,0,0,0,0.1,0V1.3z"/>
					</g>
				</g>
			</g>
			<g>
				<g>
					<g>
						<path fill="#FFD15C" d="M24,1.1c0,0-1.3,1.9-1,3.9c0,0,0.1,0.7,0.5,1.2l-0.2,1.3L21,10l3.3,0.7l1.9-1.8c0,0-0.7-0.8-0.3-2.7
							c0,0,1.1-0.8,0.8-3.6C26.3-0.4,24,1.1,24,1.1z"/>
					</g>
				</g>
			</g>
			<g>
				<g>
					<g>
						<path fill="#E8EAE8" d="M18.4,12.2c-0.1,0.3-0.1,0.6-0.1,0.9c0,0.1,0,0.3,0,0.4c0,0.7-0.5,2.1-0.6,2.9
							c-0.2,0.7-0.4,3.4-0.4,3.4s0,1.2,0.3,1c0.3-0.2,1.6-0.9,2-1.1c0.4-0.2,2.9,0,3.9,0.1s1.3,0.6,1.3,0.6c0.2-0.6-0.3-1-0.3-1
							c0-0.2-0.1-0.9-0.1-0.9c0.8-0.8-0.4-1.4-0.6-1.5c-0.2-0.1-0.1-0.1,0-0.4c0.1-0.3-0.1-0.8-0.1-0.8s0.6,0,2.2-0.9
							c1.6-0.9,2.6-2.8,2.6-2.8L28,11.7c-1.7,0.6-1.8,0.2-1.7-0.1c0.1-0.3,1.2-1.8,1.8-2.3c0.6-0.5,1.3,0.1,1.3,0.1
							c-0.2-0.4-1.3-1.2-2.3-1.4c-0.9-0.1-2.8,1-3.3,1.3c-0.5,0.3-1.7,0.2-1.7,0.2c0.4-0.5,0.7-1.9,0.7-1.9l-0.5-0.3
							c-0.2,0-1.5-0.4-2.1,0C19.5,7.7,19,8.8,19,8.8c-0.3,1,0.6,1.7,0.6,1.7s-0.2,0.2-0.3,0.2C18.8,11.2,18.6,11.6,18.4,12.2z"/>
					</g>
				</g>
			</g>
			<g>
				<g>
					<g>
						<g>
							<path fill="#F26F5A" d="M24.1,1.3c0.2-0.1,0.4-0.1,0.7-0.1C25,1.3,25.7,1.6,26,2c0.3,0.5,0.9,1.8,0.7,2.9s-1.8,2.5-1.9,3.4
								c-0.1,0.9,0.1,1.7,0.1,1.7S25,9,25.5,8.7c0.5-0.3,1.6-0.3,1.6-0.3s2,0.6,2.1,1.8c0.1,1.2-2,3.2-2,3.2s-0.6,0.4-0.6,1.4
								c0,1.1-0.2,1.5-0.2,1.5s1.1-0.5,1.1-1.4c0.1-1,0-1.2,0.2-1.5c0.2-0.2,1.2-1.3,1.5-1.9c0.2-0.6,0.7-2-0.1-3
								c-0.7-1-0.7-1.2-0.7-1.2s1.1,0.3,1.5,1c0,0-0.3-0.9-0.8-1.5c-0.5-0.6-0.6-3.2-1-4.2c-0.4-1-1.1-2.7-2.6-2.8s-2.2,0.7-2.4,1.1
								c-0.2,0.3-1.4,2.6-1.1,3.4c0.2,0.8,0.6,1.8,0.2,2.3c-0.2,0.2-0.3,0.3-0.4,0.4c-0.3,0.1-0.5,0.3-0.7,0.5
								c-0.1,0.1-0.2,0.2-0.5,0.2c-0.7,0.1-1.2,1.8-1.1,2.7c0.1,0.9-0.7,1.1-0.7,1.1s1.4,0.1,1.9-1.5c0,0,0.2-0.3,1.1-0.6
								c0.9-0.3,1.6-0.9,1.7-1.7c0-0.8-0.6-2.5-0.6-3.5C22.7,3.6,23.2,1.8,24.1,1.3z"/>
						</g>
					</g>
				</g>
				<g>
					<g>
						<g>
							<path fill="#F26F5A" d="M29.3,11.2C29.3,11.2,29.3,11.2,29.3,11.2c0,0.1,0,0.1,0,0.1c0,0,0,0.1,0,0.2c0,0.1,0,0.1,0,0.2
								c0,0.1-0.1,0.3-0.1,0.4c-0.1,0.2-0.1,0.3-0.2,0.5c0,0.1-0.1,0.2-0.1,0.2c-0.1,0.1-0.1,0.1-0.2,0.2c-0.1,0.1-0.2,0.2-0.3,0.3
								c0,0-0.1,0.1-0.1,0.1c0,0-0.1,0.1-0.1,0.1c0,0,0,0.1,0,0.1c0,0,0,0,0,0s0,0,0,0c0,0,0,0,0-0.1c0,0,0-0.1,0.1-0.1
								c0,0,0.1-0.1,0.1-0.1c0.1-0.1,0.2-0.2,0.3-0.3c0.1-0.1,0.1-0.1,0.1-0.2c0-0.1,0.1-0.1,0.1-0.2c0.1-0.2,0.1-0.3,0.1-0.5
								c0-0.2,0.1-0.3,0.1-0.4c0-0.1,0-0.2,0-0.3c0,0,0-0.1,0-0.1c0,0,0,0,0,0L29.3,11.2z"/>
						</g>
					</g>
				</g>
				<g>
					<g>
						<g>
							<path fill="#F26F5A" d="M22.5,4.8c0,0,0,0.2,0,0.4c0,0.1,0,0.3,0,0.5c0,0.1,0,0.2,0,0.3c0,0,0,0,0,0.1c0,0,0,0,0,0.1
								c0,0,0,0.1,0,0.1c-0.1,0.2-0.1,0.3-0.3,0.5c-0.1,0.1-0.1,0.1-0.2,0.2c-0.1,0-0.1,0.1-0.2,0.1c-0.1,0-0.1,0-0.2,0
								c-0.1,0-0.1,0-0.1,0c0,0,0,0-0.1,0c0,0,0,0,0,0c0,0,0,0,0,0s0,0,0,0c0,0,0,0,0,0c0,0,0,0,0.1,0c0,0,0.1,0,0.1,0
								c0.1,0,0.1,0,0.2,0c0.1,0,0.1-0.1,0.2-0.1c0.1,0,0.1-0.1,0.2-0.2c0.1-0.1,0.2-0.3,0.2-0.4c0,0,0-0.1,0-0.1c0,0,0,0,0-0.1
								l0-0.1c0-0.1,0-0.2,0-0.2c0-0.2,0-0.3,0-0.4c0-0.3-0.1-0.4-0.1-0.4L22.5,4.8z"/>
						</g>
					</g>
				</g>
				<g>
					<g>
						<g>
							<path fill="#F26F5A" d="M23.2,7.1c0,0,0,0.3,0,0.8c0,0.1,0,0.1,0,0.2c0,0,0,0.1,0,0.1l0,0l0,0c0,0,0,0,0,0.1
								c0,0.1-0.1,0.3-0.1,0.4C23,8.9,23,9,22.9,9.2c0,0,0,0.1-0.1,0.1c0,0-0.1,0.1-0.1,0.1l-0.1,0.1c0,0,0,0,0,0c0,0,0,0-0.1,0
								c-0.1,0.1-0.1,0.1-0.2,0.1c-0.1,0-0.1,0.1-0.2,0.1c-0.1,0.1-0.3,0.1-0.4,0.2c-0.1,0-0.3,0.1-0.4,0.1c-0.1,0-0.2,0.1-0.3,0.2
								c0,0-0.1,0.1-0.1,0.1c0,0-0.1,0.1-0.1,0.1c-0.1,0.1-0.1,0.2-0.1,0.2c0,0.1,0,0.1,0,0.2c0,0,0,0,0,0c0,0,0,0,0,0s0,0,0,0
								c0,0,0,0,0,0c0,0,0-0.1,0-0.2c0-0.1,0-0.2,0.1-0.2c0,0,0.1-0.1,0.1-0.1c0,0,0.1-0.1,0.1-0.1c0.1-0.1,0.2-0.1,0.3-0.2
								c0.1-0.1,0.3-0.1,0.4-0.2c0.1,0,0.3-0.1,0.4-0.2c0.1,0,0.1-0.1,0.2-0.1c0.1,0,0.1-0.1,0.2-0.1c0,0,0,0,0,0c0,0,0,0,0,0
								l0.1-0.1c0,0,0-0.1,0.1-0.1c0,0,0-0.1,0.1-0.1c0.1-0.1,0.1-0.3,0.2-0.4c0-0.1,0.1-0.3,0.1-0.4c0,0,0,0,0,0l0,0l0,0
								c0,0,0-0.1,0-0.1C23,8,23,8,23,7.9c0-0.5-0.1-0.8-0.1-0.8L23.2,7.1z"/>
						</g>
					</g>
				</g>
				<g>
					<g>
						<g>
							<path fill="#F26F5A" d="M22,9.1C22,9.1,22,9.1,22,9.1c0,0.1,0,0.1,0,0.1c0,0,0,0.1,0,0.1c0,0,0,0.1,0,0.1c0,0,0,0.1,0,0.1
								c0,0.1,0,0.1,0,0.2c0,0.1,0,0.2-0.1,0.2c0,0.1-0.1,0.2-0.1,0.2c0,0.1-0.1,0.2-0.1,0.2c0,0.1-0.1,0.1-0.2,0.2
								c-0.1,0.1-0.1,0.1-0.2,0.1c-0.1,0-0.1,0.1-0.2,0.1C21,10.9,21,11,20.9,11c-0.1,0.1-0.2,0.1-0.3,0.2c-0.1,0-0.1,0.1-0.1,0.1
								s0,0,0.1-0.1c0.1,0,0.1-0.1,0.2-0.2c0.1,0,0.1-0.1,0.2-0.1c0.1,0,0.1-0.1,0.2-0.1c0.1,0,0.1-0.1,0.2-0.1
								c0.1-0.1,0.1-0.1,0.1-0.2c0-0.1,0.1-0.1,0.1-0.2c0-0.1,0.1-0.2,0.1-0.2c0-0.1,0-0.1,0-0.2c0-0.1,0-0.1,0-0.2c0,0,0-0.1,0-0.1
								c0,0,0-0.1,0-0.1c0,0,0-0.1,0-0.1c0,0,0-0.1,0-0.1c0,0,0,0,0,0L22,9.1z"/>
						</g>
					</g>
				</g>
				<g>
					<g>
						<g>
							<path fill="#F26F5A" d="M25.3,7.7C25.3,7.7,25.3,7.7,25.3,7.7c-0.1,0.2-0.2,0.3-0.3,0.4c-0.1,0.1-0.2,0.2-0.3,0.4
								c0,0.1-0.1,0.1-0.1,0.2c0,0.1-0.1,0.2-0.1,0.2c0,0.2-0.1,0.3,0,0.5c0,0.1,0,0.2,0.1,0.2c0,0.1,0.1,0.1,0.1,0.2
								c0,0.1,0,0.1,0,0.2c0,0.1,0,0.1,0,0.1c0,0,0,0.1,0,0.1c0,0,0,0,0,0s0,0,0,0c0,0,0-0.1,0-0.1c0,0,0-0.1,0-0.1
								c0-0.1,0-0.1-0.1-0.2c-0.1-0.1-0.1-0.3-0.2-0.4c0-0.2,0-0.4,0-0.5c0-0.2,0.1-0.4,0.2-0.5c0.1-0.2,0.2-0.3,0.2-0.4
								C25,7.8,25,7.7,25.1,7.7c0-0.1,0.1-0.1,0.1-0.1L25.3,7.7z"/>
						</g>
					</g>
				</g>
				<g>
					<g>
						<g>
							<path fill="#F26F5A" d="M25,10c0,0,0-0.1,0-0.1c0-0.1,0.1-0.2,0.1-0.4c0-0.1,0.1-0.2,0.1-0.2c0-0.1,0.1-0.2,0.1-0.3
								c0.1-0.1,0.1-0.2,0.2-0.3c0,0,0.1-0.1,0.1-0.1c0,0,0.1-0.1,0.1-0.1c0.1-0.1,0.2-0.1,0.3-0.2c0.1,0,0.2-0.1,0.3-0.1
								c0,0,0.1,0,0.1,0c0,0,0.1,0,0.1,0c0.1,0,0.1,0,0.2,0c0.1,0,0.2,0,0.3,0c0.1,0,0.2,0,0.2,0c0.1,0,0.1,0,0.2,0
								c0.1,0,0.1,0,0.1,0c0,0,0,0,0,0l-0.1,0.2c0,0,0,0,0,0c0,0-0.1,0-0.1,0c0,0-0.1,0-0.2,0c-0.1,0-0.1,0-0.2,0
								c-0.1,0-0.2,0-0.3,0c0,0-0.1,0-0.1,0c0,0,0,0-0.1,0c0,0,0,0-0.1,0c-0.1,0-0.2,0.1-0.3,0.1c-0.1,0-0.2,0.1-0.3,0.1
								c-0.1,0.1-0.2,0.1-0.3,0.2c-0.1,0.1-0.2,0.1-0.2,0.2c-0.1,0.1-0.1,0.2-0.2,0.3c0,0.1-0.1,0.2-0.1,0.2
								c-0.1,0.1-0.1,0.3-0.2,0.4C25,9.9,25,10,25,10z"/>
						</g>
					</g>
				</g>
				<g>
					<g>
						<g>
							<path fill="#F26F5A" d="M28,2.4c0,0,0,0.1,0.1,0.3c0,0.1,0.1,0.2,0.1,0.3c0,0.1,0.1,0.2,0.1,0.3c0.1,0.1,0.1,0.2,0.2,0.3
								c0,0,0.1,0.1,0.1,0.1c0,0,0.1,0,0.1,0.1c0,0,0.1,0,0.1,0c0,0,0.1,0,0.1,0c0,0,0,0,0,0c0,0,0,0,0,0s0,0,0,0c0,0,0,0,0,0.1
								c0,0,0,0-0.1,0.1c0,0-0.1,0-0.1,0c0,0-0.1,0-0.2,0c0,0-0.1-0.1-0.1-0.1c-0.1-0.1-0.2-0.2-0.2-0.3c-0.1-0.1-0.1-0.2-0.2-0.3
								C28,2.9,28,2.8,28,2.7c-0.1-0.2-0.1-0.3-0.1-0.3L28,2.4z"/>
						</g>
					</g>
				</g>
				<g>
					<g>
						<g>
							<path fill="#F26F5A" d="M28.1,6.9C28.1,6.9,28.1,6.9,28.1,6.9c0,0.1,0,0.1,0,0.2c0,0,0,0.1,0,0.1c0,0,0,0.1,0,0.1
								c0,0.1,0.1,0.1,0.1,0.2c0,0,0,0.1,0.1,0.1c0,0,0,0.1,0.1,0.1c0.1,0.1,0.1,0.2,0.2,0.3c0.1,0.1,0.1,0.2,0.2,0.3
								c0.1,0.1,0.2,0.2,0.3,0.2c0.1,0.1,0.2,0.1,0.3,0.2c0,0,0.1,0.1,0.1,0.1c0,0,0,0,0.1,0.1c0,0,0,0,0.1,0.1
								C29.8,9,30,9.2,30.1,9.3c0,0.1,0.1,0.2,0.1,0.2c0,0.1,0,0.1,0.1,0.2c0,0.1,0,0.1,0,0.1c0,0,0,0,0,0s0,0,0,0c0,0,0-0.1,0-0.1
								c0-0.1,0-0.1-0.1-0.2c0-0.1-0.1-0.1-0.1-0.2c-0.1-0.2-0.2-0.3-0.4-0.5c0,0,0,0-0.1-0.1c0,0,0,0-0.1-0.1c0,0-0.1-0.1-0.1-0.1
								c-0.1-0.1-0.2-0.1-0.3-0.2c-0.1-0.1-0.2-0.1-0.3-0.2c-0.1-0.1-0.2-0.2-0.2-0.3c-0.1-0.1-0.1-0.2-0.2-0.3c0,0-0.1-0.1-0.1-0.1
								c0,0,0-0.1-0.1-0.1c0-0.1-0.1-0.2-0.1-0.2c0,0,0-0.1,0-0.1c0,0,0-0.1,0-0.1c0-0.1,0-0.1,0-0.1c0,0,0,0,0,0L28.1,6.9z"/>
						</g>
					</g>
				</g>
				<g>
					<g>
						<path fill="#F26F5A" d="M28.3,7.1c0,0,0.1,0.1,0.3,0.3c0.1,0.1,0.2,0.2,0.3,0.3C28.9,7.8,29,7.9,29,7.9
							c0.1,0.1,0.1,0.1,0.1,0.2c0.1,0.2,0.1,0.3,0.2,0.4c0.1,0.1,0.1,0.3,0.2,0.4c0,0.1,0.1,0.2,0.1,0.3c0,0,0,0.1,0,0.1
							c0,0,0,0,0,0s0,0,0,0c0,0,0,0,0-0.1c0-0.1,0-0.2-0.1-0.3c0-0.1-0.1-0.2-0.2-0.4c-0.1-0.1-0.2-0.3-0.2-0.4
							C29,8.1,29,8.1,28.9,8c-0.1-0.1-0.1-0.1-0.2-0.2c-0.1-0.1-0.2-0.2-0.3-0.3c-0.2-0.2-0.3-0.3-0.3-0.3L28.3,7.1z"/>
					</g>
				</g>
			</g>
			<g>
				<g>
					<path fill="#FFD15C" d="M28.2,4.8"/>
				</g>
			</g>
			<g>
				<g>
					<g>
						<path fill="#FFD15C" d="M26.7,4c0,0-0.1-0.2,0.1-0.3c0.2,0,0.9,0.1,0.9,0.1l1,0.8l-0.2,0.5l-0.8-0.7l-0.3-0.1
							C27.4,4.3,26.8,4.2,26.7,4z"/>
					</g>
				</g>
			</g>
			<g>
				<g>
					<g>
						<path fill="#425A6B" d="M27.1,3.9c0,0-0.1,0-0.1,0c-0.3-0.1-0.3-0.3-0.4-0.4c-0.1-0.2-0.6-0.3-1-0.4c-0.5,0-0.8,0.3-0.8,0.3
							l-0.2,0c-0.1-0.2-0.4-0.5-1-0.7c-0.6-0.1-0.7,0.2-0.7,0.2s-0.4,1.2,0.5,1.5c0.9,0.3,1-0.5,1.2-0.7c0.2-0.1,0.2,0.1,0.2,0.1
							s0,0.2,0.1,0.5c0.1,0.3,0.2,0.5,0.9,0.6c0.7,0.1,1-0.6,1-0.6c0.1,0,0.3,0,0.5,0V3.9z"/>
					</g>
				</g>
			</g>
			<g>
				<g>
					<path fill="#F26F5A" d="M27.2,3.6c0,0.1,0,0.2,0,0.3c0,0.1,0,0.2,0.1,0.3c0,0-0.1,0-0.1-0.1c0,0,0,0-0.1-0.1c0,0,0-0.1,0-0.1
						c0,0,0-0.1-0.1-0.1c0,0,0-0.1-0.1-0.1c0,0,0-0.1-0.1-0.1c0,0-0.1-0.1-0.1-0.1c0-0.1,0-0.1,0-0.2c0-0.1,0.1-0.1,0.2-0.1
						c0.1,0,0.1,0,0.2,0"/>
				</g>
			</g>
			<g>
				<g>
					<g>
						<path fill="#FFD15C" d="M26.7,3.6c0,0-0.1-0.2,0.1-0.2c0.2,0,0.8,0.1,0.8,0.1l1,0.8l-0.2,0.4L27.7,4l-0.3-0.1
							C27.4,3.9,26.8,3.8,26.7,3.6z"/>
					</g>
				</g>
			</g>
			<g>
				<g>
					<path fill="#F5B54C" d="M27.3,3.8C27.3,3.8,27.4,3.8,27.3,3.8L27.3,3.8C27.3,3.8,27.3,3.8,27.3,3.8C27.3,3.8,27.3,3.8,27.3,3.8
						c-0.1,0-0.2,0-0.3,0l-0.1,0c0,0,0,0-0.1,0c0,0,0,0-0.1,0c0,0,0,0-0.1,0c0,0,0,0,0.1,0c0,0,0,0,0.1,0c0,0,0,0,0.1,0l0.1,0
						C27.1,3.8,27.2,3.8,27.3,3.8C27.3,3.8,27.3,3.8,27.3,3.8z"/>
				</g>
			</g>
			<g>
				<g>
					<path fill="#F5B54C" d="M28.4,4.5L28.4,4.5C28.4,4.5,28.4,4.5,28.4,4.5c-0.1-0.1-0.2-0.1-0.2-0.2L28,4.1c0,0-0.1-0.1-0.1-0.1
						c0,0,0,0,0,0c0,0,0,0,0.1,0h0c0,0,0,0,0.1,0c0,0,0.1,0.1,0.1,0.1l0.3,0.2C28.3,4.3,28.3,4.4,28.4,4.5
						C28.4,4.4,28.4,4.4,28.4,4.5C28.4,4.5,28.4,4.5,28.4,4.5z"/>
				</g>
			</g>
			<g>
				<g>
					<g>
						<path fill="#FFD15C" d="M26.9,4.5c0,0,0-0.2,0.1-0.2c0.2,0,0.7,0.2,0.7,0.2l0.8,0.7l-0.2,0.4l-0.6-0.6l-0.3-0.1
							C27.4,4.7,26.9,4.6,26.9,4.5z"/>
					</g>
				</g>
			</g>
			<g>
				<g>
					<g>
						<path fill="#FFD15C" d="M29.4,9.5c0,0-0.7-0.6-1.3-0.1c-0.6,0.5-1.7,2-1.8,2.3c-0.1,0.3,0,0.7,1.7,0.1c0,0,1.2,0.5,2,0.6
							c0.8,0.1,1.8-0.2,1.8-0.2s0.5-0.1,0.3-1.2c0,0,0.1-1.1-0.5-2.2c0,0-1.7-2.1-1.9-2.5c-0.2-0.4-0.3-0.5-0.3-0.5l-0.2-1.3
							l-0.7-0.9h-0.8l-0.5,0.2c0,0,0.2,0.3,0.6,0.1h0.4l0.2,0.2l0,1l-0.2,0.2c0,0-0.1-0.3-0.7-0.4c0,0-0.3-0.3-0.5-0.4
							c0,0,0-0.5-0.4-0.6l0,0.7c0,0.1,0,0.1,0.1,0.2c0.1,0.2,0.4,0.5,0.4,0.6c0.1,0.1,0.7,0.8,1,1c0,0,1.2,1.8,1.4,2.2
							c0.2,0.3,0.3,1.2,0.3,1.2L29.4,9.5z"/>
					</g>
				</g>
			</g>
			<g>
				<g>
					<circle fill="#FFD15C" cx="28.2" cy="5.1" r="0.7"/>
				</g>
			</g>
			<g>
				<g>
					<g>
						<path fill="#F5B54C" d="M27,4.2C27,4.2,27.1,4.2,27,4.2C27.1,4.2,27.1,4.2,27,4.2c0.1,0,0.2,0,0.2,0c0.1,0,0.1,0,0.2,0
							c0.1,0,0.2,0.1,0.3,0.1l0,0l0,0c0.1,0.1,0.3,0.2,0.4,0.4L28.3,5c0,0,0.1,0.1,0.1,0.1c0,0,0.1,0.1,0.1,0.1c0,0-0.1-0.1-0.1-0.1
							c0,0-0.1-0.1-0.1-0.1l-0.2-0.2c-0.1-0.1-0.3-0.2-0.4-0.4l0,0c-0.1,0-0.1,0-0.2-0.1c-0.1,0-0.1,0-0.2-0.1c-0.1,0-0.1,0-0.2-0.1
							C27.2,4.3,27.1,4.3,27,4.2C27.1,4.3,27.1,4.3,27,4.2C27.1,4.2,27,4.2,27,4.2z"/>
					</g>
				</g>
			</g>
			<g>
				<g>
					<path fill="#F5B54C" d="M28.2,4l0.2,0.2c0,0.1,0,0.1,0,0.2h0c0-0.1,0-0.1,0-0.2l0,0l0,0L28.2,4L28.2,4L28.2,4
						c-0.1,0-0.2,0-0.3,0h0l0,0c0,0,0,0-0.1,0c0,0,0,0-0.1,0l0,0c0,0,0,0,0,0c0,0,0,0,0,0l0,0l0,0c0,0,0,0,0,0c0,0,0,0,0,0
						c0,0,0,0,0,0c0,0,0,0-0.1,0c0,0,0,0,0,0l0.2-0.1l0.2-0.1l0.1,0l-0.1,0h0l0,0l-0.2,0.1l-0.2,0.1l0,0l0,0c0,0,0,0,0.1,0.1
						c0,0,0,0,0.1,0c0,0,0,0,0,0c0,0,0,0,0,0c0,0,0,0,0,0l0,0l0,0c0,0,0,0,0,0c0,0,0,0,0,0l0,0c0,0,0.1,0,0.1,0c0,0,0,0,0.1,0
						C27.9,4,28.1,4,28.2,4z"/>
				</g>
			</g>
			<g>
				<g>
					<g>
						<path fill="#FFD15C" d="M23.4,16.2c0,0,0.1,0,0.1-0.1c0.2-0.2,0-0.3,0-0.3l-0.2-0.4L23,15.3c0.5,0.2,0.6-0.2,0.6-0.2l-0.4-0.2
							l-0.3-0.3l-0.6-0.2c0,0-0.4-0.1-0.8-0.2c-0.4,0-0.9-0.1-1.1-0.1c-0.2,0-0.6-0.3-1.1-0.3c-0.5,0-1.2-0.2-1.2-0.2l0.1-0.1h-2
							c-0.2,0.4-0.3,0.9-0.3,1.3c0,0.5,0.5,0.5,0.5,0.5c1.1,0.5,2.7,0.3,2.9,0.2c0.2,0,0.5,0,0.8,0.5c0.3,0.5,1.2,0.7,1.2,0.7
							s0.9,0.5,1.3,0.5c0.4,0.1,0.2-0.3,0.2-0.3s0.6,0.4,0.7,0.2c0.1-0.1,0-0.3,0-0.3c0.2,0,0.2,0,0.3-0.2
							C23.8,16.5,23.6,16.4,23.4,16.2z"/>
					</g>
				</g>
			</g>
		</g>
		<g>
			<g>
				<g>
					<path fill="#FFFFFF" d="M26.6,4.1c0,0,0.3,0.5,0,0.5L26.6,4.1z"/>
				</g>
			</g>
		</g>
	</g>
	<g>
		<g>
			<g>
				<path fill="#F26F5A" d="M28.4,12.6C28.4,12.6,28.4,12.6,28.4,12.6c0,0.1-0.1,0.1-0.1,0.1c-0.1,0.1-0.1,0.2-0.3,0.3
					c-0.1,0.1-0.2,0.3-0.3,0.5c0,0.1-0.1,0.2-0.1,0.3c0,0.1,0,0.2,0,0.3c0,0.2,0,0.5,0.1,0.7c0,0.2,0,0.4,0,0.6c0,0.1,0,0.2,0,0.2
					c0,0.1,0,0.1-0.1,0.2c0,0,0,0.1-0.1,0.1c0,0,0,0,0,0s0,0,0,0c0,0,0-0.1,0.1-0.1c0,0,0-0.1,0.1-0.2c0-0.1,0-0.1,0-0.2
					c0-0.2,0-0.4,0-0.6c0-0.2-0.1-0.4-0.1-0.7c0-0.1,0-0.2,0-0.3c0-0.1,0-0.2,0.1-0.3c0.1-0.2,0.2-0.4,0.3-0.5
					c0.1-0.1,0.2-0.3,0.2-0.3c0,0,0-0.1,0.1-0.1c0,0,0,0,0,0L28.4,12.6z"/>
			</g>
		</g>
	</g>
</g>
</svg>
