<?xml version="1.0" encoding="utf-8"?>
<!-- Generator: Adobe Illustrator 16.0.0, SVG Export Plug-In . SVG Version: 6.00 Build 0)  -->
<!DOCTYPE svg PUBLIC "-//W3C//DTD SVG 1.1//EN" "http://www.w3.org/Graphics/SVG/1.1/DTD/svg11.dtd">
<svg version="1.1" id="Layer_1" xmlns="http://www.w3.org/2000/svg" xmlns:xlink="http://www.w3.org/1999/xlink" x="0px" y="0px"
	 width="48px" height="48px" viewBox="0 0 48 48" enable-background="new 0 0 48 48" xml:space="preserve">
<g>
	<path fill="#F2F2F2" d="M41.885,30.652l-11.35-4.09h-0.01l-0.01,0.01c-0.041,0.049-0.061,0.08-0.061,0.07
		c-1.6,2.17-4.02,3.238-6.45,3.238c-2.42,0-4.84-1.068-6.45-3.238c0,0-0.02-0.021-0.05-0.07h-0.01l-0.011-0.01h-0.01l-11.359,4.09
		c-3.551,1.27-5.93,4.648-5.93,8.43v8.916h47.629v-8.916C47.814,35.301,45.436,31.922,41.885,30.652"/>
	<path fill="#ACB3BA" d="M24.021,30.141C24.01,30.15,24,30.15,24,30.15v-0.021C24.01,30.129,24.021,30.141,24.021,30.141"/>
	<path fill="#ACB3BA" d="M24.021,30.129v0.021c0,0-0.012,0-0.021-0.01C24,30.141,24.01,30.129,24.021,30.129"/>
	<path fill="#F8B64C" d="M17.5,26.561c0.08,0.109,0.069,0.109-0.01,0H17.5z"/>
	<path fill="#F8B64C" d="M30.529,26.561c-0.08,0.109-0.09,0.109-0.01,0H30.529z"/>
	<path fill="#F8B64C" d="M17.488,13.986c0.148,1.674-0.665,3.115-1.815,3.215c-1.149,0.1-2.2-1.176-2.346-2.852
		c-0.147-1.676,0.666-3.115,1.815-3.215C16.292,11.033,17.342,12.311,17.488,13.986"/>
	<path fill="#F8B64C" d="M34.694,14.35c-0.147,1.676-1.196,2.953-2.347,2.852c-1.148-0.1-1.962-1.541-1.814-3.215
		c0.146-1.676,1.196-2.953,2.346-2.854C34.028,11.234,34.842,12.674,34.694,14.35"/>
	<path fill="#FFD15C" d="M24.011,0c-5.337,0-9.664,4.326-9.664,9.662v2.902c0,0.74,0.046,1.48,0.138,2.213v0.004
		c0.458,3.754,2.075,7.271,4.627,10.063l0.916,1.004c0.842,0.924,2.032,1.449,3.281,1.449h1.4c1.248,0,2.438-0.525,3.281-1.447
		l0.92-1.006c2.551-2.791,4.168-6.313,4.631-10.066c0.092-0.736,0.134-1.473,0.134-2.213V9.662C33.675,4.326,29.348,0,24.011,0z"/>
	<polygon fill="#FF7058" points="17.545,48 17.535,48 17.525,47.971 	"/>
	<polygon fill="#3DC9AE" points="32.926,34.311 34.975,37.859 29.295,48 26.165,48 31.525,26.92 35.215,28.25 35.256,28.27 
		36.575,32.02 	"/>
	<polygon fill="#3DC9AE" points="21.825,48 18.775,48 13.025,37.85 15.075,34.301 11.426,32.01 12.735,28.26 12.745,28.26 
		12.775,28.25 16.485,26.92 	"/>
	<path fill="#F8B64C" d="M30.535,26.561h-0.01v-3.773c-0.488,0.719-1.024,1.408-1.616,2.057L27.99,25.85
		c-0.844,0.922-2.033,1.447-3.282,1.447h-1.399c-1.25,0-2.44-0.527-3.281-1.449l-0.915-1.004c-0.591-0.646-1.126-1.334-1.613-2.053
		c-0.004-0.002-0.011-0.006-0.014-0.01v3.779h-0.011l-4.699,1.689c0.109,0.34,0.26,0.67,0.46,0.99c0.09,0.141,0.19,0.301,0.31,0.449
		c2.48,3.352,6.291,5.262,10.461,5.262c4.18,0,8-1.92,10.469-5.271c0.33-0.449,0.57-0.93,0.74-1.43L30.535,26.561z"/>
	<path fill="#4CDBC4" d="M24.006,34.949c-2.072,0-4.056-0.473-5.83-1.357L21.825,48h4.34l3.663-14.406
		C28.055,34.477,26.075,34.949,24.006,34.949"/>
	<g opacity="0.1">
		<g>
			<defs>
				<rect id="SVGID_51_" x="20.395" y="22.787" width="14.82" height="11.383"/>
			</defs>
			<clipPath id="SVGID_2_">
				<use xlink:href="#SVGID_51_"  overflow="visible"/>
			</clipPath>
			<path clip-path="url(#SVGID_2_)" fill="#40596B" d="M30.914,26.697c-0.154-0.018-0.297-0.041-0.459-0.057
				c0.011,0,0.031-0.031,0.061-0.07l0.01-0.01v-3.773c-0.488,0.721-1.025,1.41-1.615,2.057l-0.92,1.006
				c-0.843,0.922-2.033,1.447-3.281,1.447h-1.4c-1.068,0-2.082-0.404-2.883-1.096h-0.001c-0.005,0.002-0.029,0.01-0.029,0.01
				l8.097,7.959c2.36-0.855,4.437-2.393,5.983-4.49c0.33-0.449,0.569-0.93,0.74-1.43L30.914,26.697z"/>
		</g>
	</g>
	<polygon fill="#CDD6E0" points="32.926,34.311 36.575,32.02 35.256,28.27 35.215,28.25 31.525,26.92 26.165,48 29.295,48 
		34.975,37.859 	"/>
	<polygon fill="#CDD6E0" points="12.775,28.25 12.745,28.26 12.735,28.26 11.426,32.01 15.075,34.301 13.025,37.85 18.775,48 
		21.825,48 16.485,26.92 	"/>
	<path fill="#40596B" d="M33.647,14.168c-1.363,8.58-3.769,8.342-3.769,8.342c-0.887-2.406-5.861-3.531-5.861-3.531
		s-4.967,1.125-5.854,3.531c0,0-2.406,0.238-3.769-8.342c0,0-0.913,0.059,0.349,7.631c0.578,3.441,2.69,6.521,5.84,8.027
		c1.035,0.498,2.193,0.832,3.434,0.832c1.248,0,2.406-0.334,3.441-0.832c3.148-1.506,5.262-4.586,5.84-8.027
		C34.561,14.227,33.647,14.168,33.647,14.168 M27.672,25.092c0,0-0.785,1.404-2.189,0c0,0-0.73-0.842-1.461-0.898
		c-0.73,0.057-1.461,0.898-1.461,0.898c-1.404,1.404-2.189,0-2.189,0c-0.324-0.666-0.369-1.191-0.275-1.6
		c0.179-0.762,0.914-1.244,1.691-1.176c1.422,0.127,2.234-0.818,2.234-0.818s0.811,0.945,2.232,0.818
		c0.778-0.068,1.515,0.414,1.691,1.176C28.041,23.9,27.996,24.426,27.672,25.092"/>
</g>
</svg>
