<?xml version="1.0" encoding="utf-8"?>
<!-- Generator: Adobe Illustrator 18.0.0, SVG Export Plug-In . SVG Version: 6.00 Build 0)  -->
<!DOCTYPE svg PUBLIC "-//W3C//DTD SVG 1.1//EN" "http://www.w3.org/Graphics/SVG/1.1/DTD/svg11.dtd">
<svg version="1.1" id="Layer_1" xmlns="http://www.w3.org/2000/svg" xmlns:xlink="http://www.w3.org/1999/xlink" x="0px" y="0px"
	 viewBox="0 0 48 48" enable-background="new 0 0 48 48" xml:space="preserve">
<g>
	<g>
		<path fill="#344A5E" d="M40.9,0H7.1C5.4,0,4,1.4,4,3V45c0,1.7,1.4,3,3,3h33.8c1.7,0,3-1.4,3-3V3C44,1.4,42.6,0,40.9,0z"/>
		<rect x="8" y="4" fill="#415A6B" width="31.9" height="18"/>
		<path fill="#FFFFFF" d="M32.2,16.4c-0.1-0.5-0.6-0.9-1.2-0.8l-15.9,2.7c-0.5,0.1-0.9,0.6-0.8,1.2l1.4,8.2c0.1,0.5,0.6,0.9,1.2,0.8
			l15.9-2.7c0.5-0.1,0.9-0.6,0.8-1.2L32.2,16.4z"/>
		<g>
			<path fill="#344A5E" d="M29.1,14.2H18.9c-0.6,0-1.2-0.5-1.2-1.2l0,0c0-0.6,0.5-1.2,1.2-1.2h10.2c0.6,0,1.2,0.5,1.2,1.2l0,0
				C30.3,13.6,29.8,14.2,29.1,14.2z"/>
		</g>
		<g>
			<path fill="#FFD15C" d="M35,20.3H19.5l-0.6-1.8c-0.2-0.7-0.9-1.1-1.6-1.1H13c-0.9,0-1.7,0.8-1.7,1.7v22c0,0.9,0.8,1.7,1.7,1.7h22
				c0.9,0,1.7-0.8,1.7-1.7V22C36.7,21,35.9,20.3,35,20.3z"/>
		</g>
		<rect x="8" y="26" fill="#415A6B" width="31.9" height="18"/>
		<g>
			<path fill="#344A5E" d="M29.1,36.2H18.9c-0.6,0-1.2-0.5-1.2-1.2l0,0c0-0.6,0.5-1.2,1.2-1.2h10.2c0.6,0,1.2,0.5,1.2,1.2l0,0
				C30.3,35.6,29.8,36.2,29.1,36.2z"/>
		</g>
	</g>
</g>
</svg>
