<?xml version="1.0" encoding="utf-8"?>
<!-- Generator: Adobe Illustrator 18.0.0, SVG Export Plug-In . SVG Version: 6.00 Build 0)  -->
<!DOCTYPE svg PUBLIC "-//W3C//DTD SVG 1.1//EN" "http://www.w3.org/Graphics/SVG/1.1/DTD/svg11.dtd">
<svg version="1.1" id="Layer_1" xmlns="http://www.w3.org/2000/svg" xmlns:xlink="http://www.w3.org/1999/xlink" x="0px" y="0px"
	 viewBox="0 0 48 48" enable-background="new 0 0 48 48" xml:space="preserve">
<g>
	<g>
		<g>
			<polygon fill="#F3F3F3" points="33.2,0 5.5,0 5.5,48 42.5,48 42.5,9.3 			"/>
		</g>
		<g>
			<path fill="#FFD15C" d="M17.6,25.2c0.6,0.7,1.1,1.6,1.1,2.6c0,1.3-0.7,2.5-1.8,3.1c1,0.6,1.8,1.8,1.8,3.1c0,1-0.4,1.9-1,2.6h12.5
				c-0.6-0.7-1-1.6-1-2.6c0-1.3,0.7-2.5,1.8-3.1c-1-0.6-1.8-1.8-1.8-3.1c0-1,0.4-1.9,1.1-2.6H17.6z"/>
			<path fill="#FFD15C" d="M10.7,30.3H15c1.4,0,2.6-1.1,2.6-2.6c0-1.4-1.1-2.6-2.6-2.6h-4.3V30.3z"/>
			<path fill="#FFD15C" d="M35.6,19H12.4c-1,0-1.8,0.8-1.8,1.8v3.3h26.7v-3.3C37.3,19.8,36.5,19,35.6,19z"/>
			<path fill="#FFD15C" d="M37.3,37.7H10.7V41c0,1,0.8,1.8,1.8,1.8h23.1c1,0,1.8-0.8,1.8-1.8V37.7z"/>
			<path fill="#FFD15C" d="M10.7,36.6H15c1.4,0,2.6-1.1,2.6-2.6c0-1.4-1.1-2.6-2.6-2.6h-4.3V36.6z"/>
			<path fill="#FFD15C" d="M37.3,25.2h-4.6c-1.4,0-2.6,1.1-2.6,2.6c0,1.4,1.1,2.6,2.6,2.6h4.6V25.2z"/>
			<path fill="#FFD15C" d="M37.3,31.5h-4.6c-1.4,0-2.6,1.1-2.6,2.6c0,1.4,1.1,2.6,2.6,2.6h4.6V31.5z"/>
		</g>
	</g>
</g>
</svg>
