<?xml version="1.0" encoding="utf-8"?>
<!-- Generator: Adobe Illustrator 18.0.0, SVG Export Plug-In . SVG Version: 6.00 Build 0)  -->
<!DOCTYPE svg PUBLIC "-//W3C//DTD SVG 1.1//EN" "http://www.w3.org/Graphics/SVG/1.1/DTD/svg11.dtd">
<svg version="1.1" id="Layer_1" xmlns="http://www.w3.org/2000/svg" xmlns:xlink="http://www.w3.org/1999/xlink" x="0px" y="0px"
	 viewBox="0 0 48 48" enable-background="new 0 0 48 48" xml:space="preserve">
<circle fill="#F2F2F2" cx="24" cy="24" r="1.4"/>
<g>
	<g>
		<path fill="#FFD15C" d="M45.7,33.1c0,0-4.8,3.8-7.5,5c0,0-5.9,3.2-11.5,3.4H18c0,0-1.6-0.3-3.7,1.1c-0.3,0.2-0.5,0.4-0.8,0.6
			c-0.4,0.3-0.9,0.7-1.3,1.2l-7-10.2c0,0,0.6-0.4,1.4-1.1c0.2-0.2,0.5-0.4,0.7-0.7c0.6-0.5,1.2-1.2,1.8-1.9c0,0,3.7-4.8,12-1.9
			c5.8,2,6.5,2.1,6.5,2.1s3.5,0.4,6.9,0.4c0,0,2.8,0,2.7,2.1c0,0.7-0.4,1.3-0.9,1.8c-0.7,0.6-2,1.3-4.4,1.5c-1,0.1-2.1,0.1-3.1,0
			c-2.6-0.2-5.7-0.7-6.3-0.3c0,0-0.8,0.6,2.3,1c0,0,2.3,0.3,6.4,0.4c0,0,7.4-0.3,7.1-5.5c0,0,2.6-1.6,4.1-2.2c0,0,4.2-2.5,5.2-0.9
			C47.7,29,48.9,30.7,45.7,33.1z"/>
		<path fill="#FFFFFF" d="M36.1,32.5c-0.3-0.3-1.1-0.5-1.5-0.5l-0.5,0c-0.4,0-0.7,0-1.1,0v3.3c1.4-0.3,2.2-0.8,2.7-1.1
			c0.3-0.3,0.5-0.7,0.6-1.1C36.2,32.8,36.1,32.6,36.1,32.5z"/>
	</g>
	<path fill="#F8B64C" d="M14.3,42.6c-0.3,0.2-0.5,0.4-0.8,0.6c-0.4,0.3-0.9,0.7-1.3,1.2l-7-10.2c0,0,0.6-0.4,1.4-1.1
		c0.2-0.2,0.5-0.4,0.7-0.7L14.3,42.6z"/>
	
		<rect x="4.1" y="31.4" transform="matrix(0.8238 -0.5668 0.5668 0.8238 -21.1612 11.094)" fill="#40596B" width="6.3" height="16.3"/>
	<g>
		<path fill="#4CDBC4" d="M46.3,5.6H10.8c-0.9,0-1.6,0.7-1.6,1.6v16.6c0,0.9,0.7,1.6,1.6,1.6h35.5c0.9,0,1.6-0.7,1.6-1.6V7.3
			C47.9,6.4,47.2,5.6,46.3,5.6z"/>
		<path fill="#4CDBC4" d="M47.9,4.4V21c0,0.9-0.7,1.6-1.6,1.6H10.8c-0.9,0-1.6-0.7-1.6-1.6V4.4c0-0.9,0.7-1.6,1.6-1.6h35.5
			C47.2,2.8,47.9,3.5,47.9,4.4z"/>
		<path fill="#4CDBC4" d="M46.3-0.1H10.8c-0.9,0-1.6,0.7-1.6,1.6v16.6c0,0.9,0.7,1.6,1.6,1.6h35.5c0.9,0,1.6-0.7,1.6-1.6V1.5
			C47.9,0.6,47.2-0.1,46.3-0.1z"/>
		<path fill="#3DC9AE" d="M47.9,4.8v13.3c0,0.9-0.7,1.6-1.6,1.6H10.8c-0.9,0-1.6-0.7-1.6-1.6V4.8c0,0,0,0,0,0v15
			c0,0.9,0.7,1.6,1.6,1.6l0,0h35.5c0,0,0,0,0,0c0.9,0,1.6-0.8,1.6-1.7L47.9,4.8C47.9,4.8,47.9,4.8,47.9,4.8z"/>
		<path fill="#3DC9AE" d="M47.9,7.7v13.3c0,0.9-0.7,1.6-1.6,1.6H10.8c-0.9,0-1.6-0.7-1.6-1.6V7.7c0,0,0,0,0,0v15
			c0,0.9,0.7,1.6,1.6,1.6h0h35.5c0,0,0,0,0,0c0.9,0,1.6-0.8,1.6-1.7L47.9,7.7C47.9,7.7,47.9,7.7,47.9,7.7z"/>
		<path fill="#3DC9AE" d="M47.9,10.5v13.3c0,0.9-0.7,1.6-1.6,1.6H10.9c-0.9,0-1.6-0.7-1.6-1.6V10.5c0,0,0,0,0,0v15
			c0,0.9,0.7,1.6,1.6,1.6l0,0h35.5c0,0,0,0,0,0c0.9,0,1.6-0.8,1.6-1.7L47.9,10.5C47.9,10.5,47.9,10.5,47.9,10.5z"/>
		<path fill="#FFFFFF" d="M44.6,6.4v6.8c-1.8,0-3.3,1.5-3.3,3.3H15.7c0-1.8-1.5-3.3-3.3-3.3V6.4c1.8,0,3.3-1.5,3.3-3.3h25.6
			C41.3,5,42.8,6.4,44.6,6.4z"/>
		<g>
			<circle fill="#4CDBC4" cx="20" cy="8.9" r="1.1"/>
			<circle fill="#4CDBC4" cx="37.1" cy="8.9" r="1.1"/>
		</g>
		<path fill="#4CDBC4" d="M34.5,9.8c0,2.7-1,5.2-2.5,6.7h-7c-1.5-1.5-2.5-3.9-2.5-6.7c0-2.7,1-5.2,2.5-6.7h7
			C33.6,4.7,34.5,7.1,34.5,9.8z"/>
		<g>
			<path fill="#FFFFFF" d="M30.6,9.9c-0.3-0.4-0.9-0.7-1.7-0.9V7c0.3,0.1,0.6,0.4,0.6,0.8l1.3-0.2c-0.1-0.5-0.3-0.9-0.6-1.3
				c-0.3-0.3-0.8-0.5-1.3-0.6V5.3h-0.8v0.5c-0.6,0.1-1.1,0.3-1.4,0.7c-0.4,0.4-0.5,0.9-0.5,1.4s0.2,1,0.5,1.4
				c0.3,0.4,0.8,0.7,1.5,0.9v2.2c-0.2-0.1-0.4-0.2-0.5-0.4c-0.2-0.2-0.3-0.4-0.3-0.7L26,11.4c0.1,0.7,0.3,1.2,0.7,1.6
				c0.4,0.4,0.9,0.6,1.5,0.7v0.7h0.8v-0.7c0.7-0.1,1.2-0.4,1.6-0.8c0.4-0.4,0.6-1,0.6-1.6C31.1,10.7,31,10.3,30.6,9.9z M28.2,8.8
				c-0.2-0.1-0.4-0.2-0.5-0.4c-0.1-0.2-0.2-0.3-0.2-0.5c0-0.2,0.1-0.4,0.2-0.6C27.8,7.1,28,7,28.2,7V8.8z M29.6,12.2
				c-0.2,0.2-0.4,0.3-0.6,0.4v-2c0.3,0.1,0.5,0.2,0.7,0.4c0.1,0.2,0.2,0.4,0.2,0.6C29.8,11.7,29.7,12,29.6,12.2z"/>
		</g>
	</g>
</g>
</svg>
