<?xml version="1.0" encoding="utf-8"?>
<!-- Generator: Adobe Illustrator 18.0.0, SVG Export Plug-In . SVG Version: 6.00 Build 0)  -->
<!DOCTYPE svg PUBLIC "-//W3C//DTD SVG 1.1//EN" "http://www.w3.org/Graphics/SVG/1.1/DTD/svg11.dtd">
<svg version="1.1" id="Layer_1" xmlns="http://www.w3.org/2000/svg" xmlns:xlink="http://www.w3.org/1999/xlink" x="0px" y="0px"
	 viewBox="0 0 48 48" enable-background="new 0 0 48 48" xml:space="preserve">
<g>
	<g>
		<g>
			<path fill="#415A6B" d="M21.8,0H2.9C1.3,0,0,1.3,0,2.9v42.1C0,46.7,1.3,48,2.9,48h18.9c1.6,0,2.9-1.3,2.9-2.9V2.9
				C24.7,1.3,23.4,0,21.8,0z"/>
			<g>
				<rect x="2.9" y="5.9" fill="#344A5E" width="18.9" height="16.7"/>
				<rect x="4.4" y="7.4" fill="#55C0EB" width="15.9" height="13.8"/>
			</g>
			<g>
				<g>
					<g>
						<g>
							<path fill="#4EC0AA" d="M7.3,25.7H3.4c-0.3,0-0.5,0.2-0.5,0.5v2c0,0.3,0.2,0.5,0.5,0.5h3.9c0.3,0,0.5-0.2,0.5-0.5v-2
								C7.8,25.9,7.6,25.7,7.3,25.7z"/>
						</g>
					</g>
					<g>
						<g>
							<path fill="#F3705A" d="M21.3,25.7h-3.9c-0.3,0-0.5,0.2-0.5,0.5v2c0,0.3,0.2,0.5,0.5,0.5h3.9c0.3,0,0.5-0.2,0.5-0.5v-2
								C21.8,25.9,21.6,25.7,21.3,25.7z"/>
						</g>
					</g>
				</g>
				<g>
					<path fill="#CED6E0" d="M15,30.2c-0.9,0.9-4.3,0.9-5.3,0s-0.9-4.3,0-5.3s4.3-0.9,5.3,0C15.9,25.8,15.9,29.2,15,30.2z"/>
					<g>
						<path fill="#ADB3BA" d="M12.4,30.1c-0.9,0-1.8-0.2-2.1-0.5c-0.3-0.3-0.5-1.1-0.5-2.1c0-0.9,0.2-1.8,0.5-2.1
							c0.3-0.3,1.1-0.5,2.1-0.5c0.9,0,1.8,0.2,2.1,0.5c0.3,0.3,0.5,1.1,0.5,2.1c0,0.9-0.2,1.8-0.5,2.1
							C14.1,29.9,13.3,30.1,12.4,30.1z"/>
					</g>
				</g>
				<g>
					<g>
						<path fill="#CED6E0" d="M7.9,35.3H3.4c-0.3,0-0.5-0.2-0.5-0.5V33c0-0.3,0.2-0.5,0.5-0.5h4.6c0.3,0,0.5,0.2,0.5,0.5v1.8
							C8.4,35.1,8.2,35.3,7.9,35.3z"/>
					</g>
					<g>
						<path fill="#CED6E0" d="M14.6,35.3h-4.6c-0.3,0-0.5-0.2-0.5-0.5V33c0-0.3,0.2-0.5,0.5-0.5h4.6c0.3,0,0.5,0.2,0.5,0.5v1.8
							C15.1,35.1,14.9,35.3,14.6,35.3z"/>
					</g>
					<g>
						<path fill="#CED6E0" d="M21.3,35.3h-4.6c-0.3,0-0.5-0.2-0.5-0.5V33c0-0.3,0.2-0.5,0.5-0.5h4.6c0.3,0,0.5,0.2,0.5,0.5v1.8
							C21.8,35.1,21.6,35.3,21.3,35.3z"/>
					</g>
					<g>
						<path fill="#CED6E0" d="M7.9,40.1H3.4c-0.3,0-0.5-0.2-0.5-0.5v-1.8c0-0.3,0.2-0.5,0.5-0.5h4.6c0.3,0,0.5,0.2,0.5,0.5v1.8
							C8.4,39.9,8.2,40.1,7.9,40.1z"/>
					</g>
					<g>
						<path fill="#CED6E0" d="M14.6,40.1h-4.6c-0.3,0-0.5-0.2-0.5-0.5v-1.8c0-0.3,0.2-0.5,0.5-0.5h4.6c0.3,0,0.5,0.2,0.5,0.5v1.8
							C15.1,39.9,14.9,40.1,14.6,40.1z"/>
					</g>
					<g>
						<path fill="#CED6E0" d="M21.3,40.1h-4.6c-0.3,0-0.5-0.2-0.5-0.5v-1.8c0-0.3,0.2-0.5,0.5-0.5h4.6c0.3,0,0.5,0.2,0.5,0.5v1.8
							C21.8,39.9,21.6,40.1,21.3,40.1z"/>
					</g>
					<g>
						<path fill="#CED6E0" d="M7.9,45H3.4c-0.3,0-0.5-0.2-0.5-0.5v-1.8c0-0.3,0.2-0.5,0.5-0.5h4.6c0.3,0,0.5,0.2,0.5,0.5v1.8
							C8.4,44.7,8.2,45,7.9,45z"/>
					</g>
					<g>
						<path fill="#CED6E0" d="M14.6,45h-4.6c-0.3,0-0.5-0.2-0.5-0.5v-1.8c0-0.3,0.2-0.5,0.5-0.5h4.6c0.3,0,0.5,0.2,0.5,0.5v1.8
							C15.1,44.7,14.9,45,14.6,45z"/>
					</g>
					<g>
						<path fill="#CED6E0" d="M21.3,45h-4.6c-0.3,0-0.5-0.2-0.5-0.5v-1.8c0-0.3,0.2-0.5,0.5-0.5h4.6c0.3,0,0.5,0.2,0.5,0.5v1.8
							C21.8,44.7,21.6,45,21.3,45z"/>
					</g>
				</g>
			</g>
			<g>
				<g>
					<path fill="#344A5E" d="M14.7,3.3L14.7,3.3c0-0.4-0.3-0.7-0.7-0.7H8.3c-0.4,0-0.7,0.3-0.7,0.7v0C7.6,3.7,7.9,4,8.3,4H14
						C14.4,4,14.7,3.7,14.7,3.3z"/>
				</g>
				<g>
					<circle fill="#344A5E" cx="16.4" cy="3.3" r="0.7"/>
				</g>
			</g>
		</g>
		<g>
			<g>
				<path fill="#F3705A" d="M48,9.2c0,5.1-5.6,9.2-12.5,9.2c-1.2,0-2.3-0.1-3.4-0.3C29.1,21.1,24,20,24,20c2.1-0.3,3.3-1.9,3.9-3.5
					c-3-1.7-4.9-4.3-4.9-7.3C23,4.1,28.6,0,35.5,0C42.4,0,48,4.1,48,9.2z"/>
			</g>
			<g>
				<path fill="#FFFFFF" d="M28.9,8.1c-0.1,0.1-0.2,0.2-0.2,0.4c0,0.2,0.1,0.3,0.2,0.4c0.1,0.1,0.5,0.2,1,0.3
					c0.5,0.1,0.9,0.3,1.2,0.6c0.3,0.3,0.4,0.6,0.4,1.1c0,0.5-0.2,0.9-0.5,1.2c-0.4,0.3-0.8,0.4-1.4,0.4c-0.8,0-1.6-0.3-2.3-0.9
					l0.7-0.9c0.6,0.5,1.1,0.8,1.6,0.8c0.2,0,0.4,0,0.5-0.1c0.1-0.1,0.2-0.2,0.2-0.4c0-0.2-0.1-0.3-0.2-0.4c-0.1-0.1-0.4-0.2-0.8-0.3
					c-0.6-0.1-1.1-0.3-1.4-0.6c-0.3-0.2-0.4-0.6-0.4-1.1s0.2-0.9,0.5-1.2c0.4-0.3,0.8-0.4,1.4-0.4c0.4,0,0.7,0.1,1.1,0.2
					c0.4,0.1,0.7,0.3,0.9,0.5l-0.6,0.9c-0.5-0.4-0.9-0.5-1.4-0.5C29.2,7.9,29,8,28.9,8.1z"/>
				<path fill="#FFFFFF" d="M37.4,9l-1.5,2.9h-0.7L33.7,9v3.4h-1.2V7h1.6l1.4,3l1.4-3h1.6v5.4h-1.2V9z"/>
				<path fill="#FFFFFF" d="M41.1,8.1C41,8.2,41,8.3,41,8.5c0,0.2,0.1,0.3,0.2,0.4c0.1,0.1,0.5,0.2,1,0.3c0.5,0.1,0.9,0.3,1.2,0.6
					c0.3,0.3,0.4,0.6,0.4,1.1c0,0.5-0.2,0.9-0.5,1.2c-0.4,0.3-0.8,0.4-1.4,0.4c-0.8,0-1.6-0.3-2.3-0.9l0.7-0.9
					c0.6,0.5,1.1,0.8,1.6,0.8c0.2,0,0.4,0,0.5-0.1c0.1-0.1,0.2-0.2,0.2-0.4c0-0.2-0.1-0.3-0.2-0.4c-0.1-0.1-0.4-0.2-0.8-0.3
					c-0.6-0.1-1.1-0.3-1.4-0.6c-0.3-0.2-0.4-0.6-0.4-1.1s0.2-0.9,0.5-1.2c0.4-0.3,0.8-0.4,1.4-0.4c0.4,0,0.7,0.1,1.1,0.2
					c0.4,0.1,0.7,0.3,0.9,0.5l-0.6,0.9c-0.5-0.4-0.9-0.5-1.4-0.5C41.4,7.9,41.2,8,41.1,8.1z"/>
			</g>
		</g>
	</g>
</g>
</svg>
