<?xml version="1.0" encoding="utf-8"?>
<!-- Generator: Adobe Illustrator 18.0.0, SVG Export Plug-In . SVG Version: 6.00 Build 0)  -->
<!DOCTYPE svg PUBLIC "-//W3C//DTD SVG 1.1//EN" "http://www.w3.org/Graphics/SVG/1.1/DTD/svg11.dtd">
<svg version="1.1" id="Layer_1" xmlns="http://www.w3.org/2000/svg" xmlns:xlink="http://www.w3.org/1999/xlink" x="0px" y="0px"
	 viewBox="0 0 48 48" enable-background="new 0 0 48 48" xml:space="preserve">
<g>
	<g>
		<g>
			<g>
				<g>
					
						<rect x="3.4" y="11.7" transform="matrix(-0.7071 -0.7071 0.7071 -0.7071 24.0003 57.9418)" fill="#E8EAE9" width="41.2" height="24.7"/>
				</g>
				<g>
					<polygon fill="#CED6E0" points="24.1,37 19.3,36.7 20.9,38.4 22.6,38.5 22.7,40.2 24.4,41.8 					"/>
					<polygon fill="#CED6E0" points="8.1,20.9 3.2,20.6 4.8,22.3 6.6,22.4 6.7,24.1 8.3,25.8 					"/>
					<polygon fill="#CED6E0" points="16.1,28.9 11.2,28.7 12.9,30.3 14.6,30.4 14.7,32.1 16.4,33.8 					"/>
					<polygon fill="#CED6E0" points="32.2,45 30.7,46.5 29,46.4 27.3,44.7 					"/>
					<polygon fill="#CED6E0" points="19.1,26 19.5,33.6 27.1,34 27.5,41.6 35.1,42 33.7,43.5 26.1,43.1 25.6,35.5 18,35 17.6,27.4 
						10,27 9.6,19.4 2,19 1.8,17 3.3,15.5 3.4,17.5 11,17.9 11.5,25.5 					"/>
					<polygon fill="#CED6E0" points="22.1,23 22.5,30.6 30.1,31 30.5,38.6 38.1,39 36.7,40.5 29.1,40.1 28.6,32.5 21,32 20.6,24.4 
						13,24 12.6,16.4 4.9,16 4.8,14 6.3,12.5 6.4,14.5 14,14.9 14.5,22.5 					"/>
					<polygon fill="#CED6E0" points="25,20 25.5,27.6 33.1,28 33.5,35.6 41.1,36.1 39.6,37.5 32,37.1 31.6,29.5 24,29.1 23.6,21.5 
						16,21 15.5,13.4 7.9,13 7.8,11 9.3,9.5 9.4,11.5 17,12 17.4,19.6 					"/>
					<polygon fill="#CED6E0" points="28,17 28.5,24.6 36.1,25 36.5,32.6 44.1,33.1 42.6,34.5 35,34.1 34.6,26.5 27,26.1 26.6,18.5 
						19,18 18.5,10.4 10.9,10 10.8,8 12.3,6.6 12.4,8.5 20,9 20.4,16.6 					"/>
					<polygon fill="#CED6E0" points="31,14 31.5,21.6 39.1,22.1 39.5,29.6 47.1,30.1 45.6,31.6 38,31.1 37.6,23.5 30,23.1 
						29.5,15.5 21.9,15.1 21.5,7.5 13.9,7 13.8,5 15.3,3.6 15.4,5.5 23,6 23.4,13.6 					"/>
					<polygon fill="#CED6E0" points="24.9,12.1 29.8,12.3 28.1,10.7 26.4,10.6 26.3,8.9 24.7,7.2 					"/>
					<polygon fill="#CED6E0" points="41,28.1 45.9,28.4 44.2,26.8 42.5,26.7 42.4,24.9 40.7,23.3 					"/>
					<polygon fill="#CED6E0" points="21.7,4.3 20.1,2.7 18.4,2.6 18.3,0.8 18.1,0.7 16.8,2.1 16.9,4 					"/>
					<polygon fill="#CED6E0" points="33,20.1 37.8,20.4 36.2,18.7 34.4,18.6 34.3,16.9 32.7,15.2 					"/>
				</g>
			</g>
		</g>
		<rect x="0" y="4.3" transform="matrix(0.7071 -0.7071 0.7071 0.7071 -3.0206 7.2924)" fill="#415A6B" width="14.6" height="6"/>
		
			<rect x="33.4" y="37.7" transform="matrix(0.7071 -0.7071 0.7071 0.7071 -16.8616 40.7077)" fill="#415A6B" width="14.6" height="6"/>
	</g>
</g>
</svg>
