<?xml version="1.0" encoding="utf-8"?>
<!-- Generator: Adobe Illustrator 18.0.0, SVG Export Plug-In . SVG Version: 6.00 Build 0)  -->
<!DOCTYPE svg PUBLIC "-//W3C//DTD SVG 1.1//EN" "http://www.w3.org/Graphics/SVG/1.1/DTD/svg11.dtd">
<svg version="1.1" id="Layer_1" xmlns="http://www.w3.org/2000/svg" xmlns:xlink="http://www.w3.org/1999/xlink" x="0px" y="0px"
	 viewBox="0 0 48 48" enable-background="new 0 0 48 48" xml:space="preserve">
<g>
	<path fill="#84DBFF" d="M10,48h28V9c0-1.1-0.9-2-2-2H12c-1.1,0-2,0.9-2,2V48z"/>
	<rect x="16" y="3.4" fill="#F2F2F2" width="16" height="3.6"/>
	<rect x="23.2" y="0" fill="#CDD6E0" width="1.7" height="3.4"/>
	<g>
		<rect x="17.5" y="35" fill="#40596B" width="6.5" height="13"/>
		<rect x="24" y="35" fill="#334A5E" width="6.5" height="13"/>
	</g>
	<rect x="12.7" y="10" fill="#F2F2F2" width="22.7" height="5.1"/>
	<rect x="12.7" y="18.1" fill="#F2F2F2" width="22.7" height="5.1"/>
	<rect x="12.7" y="26.3" fill="#F2F2F2" width="22.7" height="5.1"/>
	<polygon fill="#54C0EB" points="48,18.7 48,48 38,48 38,12 	"/>
	<g>
		<rect x="41.4" y="21.9" fill="#84DBFF" width="3.2" height="3.1"/>
		<rect x="41.4" y="28.4" fill="#84DBFF" width="3.2" height="3.1"/>
		<rect x="41.4" y="35" fill="#84DBFF" width="3.2" height="3.1"/>
		<rect x="41.4" y="41.6" fill="#84DBFF" width="3.2" height="3.1"/>
	</g>
	<polygon fill="#39BDE5" points="39.5,13 39.5,48 38,48 38,12 	"/>
	<polygon fill="#54C0EB" points="0,18.7 0,48 10,48 10,12 	"/>
	<g>
		<rect x="3.4" y="21.9" fill="#84DBFF" width="3.2" height="3.1"/>
		<rect x="3.4" y="28.4" fill="#84DBFF" width="3.2" height="3.1"/>
		<rect x="3.4" y="35" fill="#84DBFF" width="3.2" height="3.1"/>
		<rect x="3.4" y="41.6" fill="#84DBFF" width="3.2" height="3.1"/>
	</g>
	<polygon fill="#39BDE5" points="8.5,13 8.5,48 10,48 10,12 	"/>
</g>
</svg>
