<?xml version="1.0" encoding="utf-8"?>
<!-- Generator: Adobe Illustrator 18.0.0, SVG Export Plug-In . SVG Version: 6.00 Build 0)  -->
<!DOCTYPE svg PUBLIC "-//W3C//DTD SVG 1.1//EN" "http://www.w3.org/Graphics/SVG/1.1/DTD/svg11.dtd">
<svg version="1.1" id="Layer_1" xmlns="http://www.w3.org/2000/svg" xmlns:xlink="http://www.w3.org/1999/xlink" x="0px" y="0px"
	 viewBox="0 0 512 512" enable-background="new 0 0 512 512" xml:space="preserve">
<g>
	<path fill="#40596B" d="M483.1,159.2c-19.7,19.7-46,28.6-71.8,26.8l-63.6,63.5l-10.8,10.9L186,411.3c1.8,25.7-7.1,52.1-26.7,71.8
		c-23.6,23.6-56.7,31.6-86.9,24.3l55.6-55.6L60.2,384L4.6,439.6c-7.3-30.2,0.7-63.3,24.3-86.9c19.7-19.6,46-28.5,71.8-26.7
		l87.9-87.8l35.1-35.1l102.3-102.3c-1.9-25.7,7-52.1,26.7-71.8c23.5-23.6,56.6-31.6,86.8-24.3L384,60.2l67.8,67.8l55.6-55.6
		C514.7,102.6,506.7,135.7,483.1,159.2z"/>
	<path fill="#334A5E" d="M336.9,260.4l-97.7,97.7l-7-7c-8.1,5.6-19.5,4.8-26.8-2.5l-14.1-14c-8.3-8.3-8.3-21.7,0-29.9l32.3-32.3
		l-34.6-34.6l27.6-27.6l34.6,34.6l32.2-32.2c8.3-8.3,21.7-8.3,29.9,0l14,14c7.4,7.4,8.1,18.6,2.5,26.9L336.9,260.4z"/>
	<g>
		<path fill="#89D6F7" d="M294,202L202,294c-8.3,8.3-8.3,21.7,0,29.9l14,14c7.3,7.3,18.6,8.1,26.9,2.5l155,155
			c8.3,8.3,21.7,8.3,29.9,0l67.7-67.7c8.3-8.3,8.3-21.7,0-29.9l-155-155c5.6-8.2,4.8-19.5-2.5-26.9l-14-14
			C315.7,193.7,302.3,193.7,294,202z"/>
		<polygon fill="#F2F2F2" points="21.7,2 2,21.6 33.9,69.5 67.5,95.1 234.2,261.8 261.8,234.2 95.1,67.4 69.5,33.9 		"/>
		<g>
			<g>
				<path fill="#55BFE9" d="M420.1,460.5l-15.3,15.3c-0.4,0.4-1.2,0.4-1.6,0L277.9,350.3c-0.4-0.4-0.4-1.2,0-1.6l15.3-15.3
					c0.4-0.4,1.2-0.4,1.6,0l125.4,125.4C420.6,459.3,420.6,460,420.1,460.5z"/>
				<path fill="#55BFE9" d="M475.7,404.9l-15.3,15.3c-0.4,0.4-1.2,0.4-1.6,0L333.5,294.7c-0.4-0.4-0.4-1.2,0-1.6l15.3-15.3
					c0.4-0.4,1.2-0.4,1.6,0l125.4,125.4C476.2,403.7,476.2,404.4,475.7,404.9z"/>
			</g>
			<path fill="#55BFE9" d="M447.9,432.7l-15.3,15.3c-0.4,0.4-1.2,0.4-1.6,0L305.7,322.5c-0.4-0.4-0.4-1.2,0-1.6l15.3-15.3
				c0.4-0.4,1.2-0.4,1.6,0l125.4,125.4C448.4,431.5,448.4,432.2,447.9,432.7z"/>
		</g>
	</g>
</g>
</svg>
