<?xml version="1.0" encoding="utf-8"?>
<!-- Generator: Adobe Illustrator 18.0.0, SVG Export Plug-In . SVG Version: 6.00 Build 0)  -->
<!DOCTYPE svg PUBLIC "-//W3C//DTD SVG 1.1//EN" "http://www.w3.org/Graphics/SVG/1.1/DTD/svg11.dtd">
<svg version="1.1" id="Layer_1" xmlns="http://www.w3.org/2000/svg" xmlns:xlink="http://www.w3.org/1999/xlink" x="0px" y="0px"
	 viewBox="0 0 48 48" enable-background="new 0 0 48 48" xml:space="preserve">
<g>
	<path fill="#F2F2F2" d="M13,16.2H1.5c-0.8,0-1.5-0.7-1.5-1.5v-0.1c0-0.8,0.7-1.5,1.5-1.5H13V16.2z"/>
	<path fill="#CDD6E0" d="M16.8,19.8H15c-1.1,0-2-0.9-2-2v-6.3c0-1.1,0.9-2,2-2h1.7V19.8z"/>
	<path fill="#F8B64C" d="M26.6,30.9l-1.4,0c-0.9,0-1.5-0.8-1.3-1.6l1-3.6c0.2-0.5,0.6-0.9,1.2-0.9l3-0.1L26.6,30.9z"/>
	<path fill="#40596B" d="M39.2,22.9l-0.4,1.5l-3,12.6c-0.6,2.6-3,4.5-5.7,4.5c-3.8,0-6.6-3.5-5.7-7.2l2.4-10l0.4-1.5H39.2z"/>
	<path fill="#FF7058" d="M40.1,22.9H16.7V6.5h23.4c4.4,0,7.9,3.5,7.9,7.9V15C48,19.3,44.5,22.9,40.1,22.9z"/>
	<g>
		<rect x="13.4" y="16.8" fill="#ACB3BA" width="2.8" height="0.5"/>
		<rect x="13.4" y="14.4" fill="#ACB3BA" width="2.8" height="0.5"/>
		<rect x="13.4" y="12.1" fill="#ACB3BA" width="2.8" height="0.5"/>
	</g>
	<circle fill="#F1543F" cx="40.7" cy="14.7" r="5.1"/>
	<circle fill="#FF7058" cx="40.7" cy="14.7" r="4.1"/>
	<g>
		<path fill="#F1543F" d="M44.1,17c-0.3,0.4-0.6,0.7-1,1h-4.9c-0.4-0.3-0.7-0.6-1-1H44.1z"/>
		<path fill="#F1543F" d="M44.8,15.1c0,0.4-0.1,0.7-0.3,1h-7.7c-0.1-0.3-0.2-0.7-0.3-1H44.8z"/>
		<path fill="#F1543F" d="M44.8,14.2h-8.2c0-0.4,0.1-0.7,0.3-1h7.7C44.7,13.5,44.8,13.9,44.8,14.2z"/>
		<path fill="#F1543F" d="M44.1,12.3h-6.8c0.3-0.4,0.6-0.7,1-1h4.9C43.5,11.6,43.9,12,44.1,12.3z"/>
	</g>
	<polygon fill="#334A5E" points="39.2,22.9 38.9,24.4 26.8,24.4 27.2,22.9 	"/>
</g>
</svg>
