<?xml version="1.0" encoding="utf-8"?>
<!-- Generator: Adobe Illustrator 19.0.1, SVG Export Plug-In . SVG Version: 6.00 Build 0)  -->
<svg version="1.1" id="Layer_1" xmlns="http://www.w3.org/2000/svg" xmlns:xlink="http://www.w3.org/1999/xlink" x="0px" y="0px"
	 viewBox="0 0 48 48" style="enable-background:new 0 0 48 48;" xml:space="preserve">
<style type="text/css">
	.st0{fill:#344A5E;}
	.st1{fill:#8AD7F8;}
	.st2{fill:#F3F3F3;}
	.st3{fill:#F3705A;}
	.st4{fill:#FFD15C;}
	.st5{fill:#66C6B9;}
	.st6{fill:#F7B64C;}
	.st7{fill:#CED6E0;}
	.st8{fill:#F05540;}
	.st9{fill:#415A6B;}
</style>
<g>
	<g>
		<g>
			<g>
				<g>
					<g>
						<polygon class="st0" points="31,29.5 24.2,22.8 17.4,29.5 16.3,28.5 24.2,20.6 32,28.5 						"/>
					</g>
				</g>
				<g>
					<g>
						<rect x="23.4" y="13.4" class="st0" width="1.5" height="8.3"/>
					</g>
				</g>
			</g>
			<g>
				<g>
					<g>
						<polygon class="st0" points="21.9,43.7 15.2,36.9 8.4,43.7 7.3,42.7 15.2,34.8 23,42.7 						"/>
					</g>
				</g>
				<g>
					<g>
						<rect x="14.4" y="27.6" class="st0" width="1.5" height="8.3"/>
					</g>
				</g>
			</g>
			<g>
				<g>
					<g>
						<polygon class="st0" points="39.6,43.7 32.8,36.9 26.1,43.7 25,42.7 32.8,34.8 40.7,42.7 						"/>
					</g>
				</g>
				<g>
					<g>
						<rect x="32.1" y="27.6" class="st0" width="1.5" height="8.3"/>
					</g>
				</g>
			</g>
			<g>
				<g>
					<g>
						<g>
							<circle class="st1" cx="6.3" cy="41.7" r="6.3"/>
						</g>
					</g>
					<g>
						<g>
							<g>
								<circle class="st2" cx="6.3" cy="39.3" r="2"/>
							</g>
						</g>
						<g>
							<path class="st2" d="M6.3,48c1.9,0,3.6-0.8,4.7-2.1c-0.6-2-2.5-3.5-4.7-3.5s-4.1,1.4-4.7,3.5C2.7,47.2,4.4,48,6.3,48z"/>
						</g>
					</g>
				</g>
				<g>
					<g>
						<g>
							<g>
								<circle class="st3" cx="24" cy="41.7" r="6.3"/>
							</g>
						</g>
						<g>
							<g>
								<g>
									<circle class="st2" cx="24" cy="39.3" r="2"/>
								</g>
							</g>
							<g>
								<path class="st2" d="M24,48c1.9,0,3.6-0.8,4.7-2.1c-0.6-2-2.5-3.5-4.7-3.5s-4.1,1.4-4.7,3.5C20.4,47.2,22.1,48,24,48z"/>
							</g>
						</g>
					</g>
					<g>
						<g>
							<g>
								<circle class="st4" cx="41.7" cy="41.7" r="6.3"/>
							</g>
						</g>
						<g>
							<g>
								<g>
									<circle class="st2" cx="41.7" cy="39.3" r="2"/>
								</g>
							</g>
							<g>
								<path class="st2" d="M41.7,48c1.9,0,3.6-0.8,4.7-2.1c-0.6-2-2.5-3.5-4.7-3.5s-4.1,1.4-4.7,3.5C38.1,47.2,39.8,48,41.7,48z"
									/>
							</g>
						</g>
					</g>
				</g>
			</g>
			<g>
				<g>
					<g>
						<circle class="st4" cx="15.2" cy="29.2" r="6.3"/>
					</g>
				</g>
				<g>
					<g>
						<g>
							<circle class="st2" cx="15.2" cy="26.8" r="2"/>
						</g>
					</g>
					<g>
						<path class="st2" d="M15.2,35.6c1.9,0,3.6-0.8,4.7-2.1c-0.6-2-2.5-3.5-4.7-3.5s-4.1,1.4-4.7,3.5
							C11.6,34.7,13.3,35.6,15.2,35.6z"/>
					</g>
				</g>
			</g>
			<g>
				<g>
					<g>
						<circle class="st5" cx="32.8" cy="29.2" r="6.3"/>
					</g>
				</g>
				<g>
					<g>
						<g>
							<circle class="st2" cx="32.8" cy="26.8" r="2"/>
						</g>
					</g>
					<g>
						<path class="st2" d="M32.8,35.6c1.9,0,3.6-0.8,4.7-2.1c-0.6-2-2.5-3.5-4.7-3.5s-4.1,1.4-4.7,3.5C29.3,34.7,31,35.6,32.8,35.6z
							"/>
					</g>
				</g>
			</g>
		</g>
		<g>
			<g>
				<g>
					<g>
						<path class="st6" d="M27.3,13.7c0,0-0.2-1.2-0.3-1.8c-0.1-0.6,0-2.4,0-2.4L21.3,10L21,11.9l-0.1,1.2c0,0,2.1,2,2.7,2
							s0.7,0,0.7,0l1.5-0.6L27.3,13.7z"/>
					</g>
				</g>
			</g>
			<g>
				<g>
					<g>
						<path class="st7" d="M27.1,21.4c0.7-3.5,1.3-6.3,1.3-6.3h-4.1c-1.5,0.1-5.1,0.6-5.1,0.6l1.2,5.7H27.1z"/>
					</g>
				</g>
			</g>
			<g>
				<g>
					<g>
						<g>
							<path class="st3" d="M23.6,17.2c0.4-0.1,0.8-0.2,1.2,0c0.6-0.3,1.2-1.4,1.7-2.1c-1.6,0.1-3.1,0.1-4.5,0
								C22.4,15.7,22.9,16.7,23.6,17.2z"/>
						</g>
					</g>
				</g>
				<g>
					<g>
						<g>
							<path class="st8" d="M22.2,21.4h3.7l-1.1-4.2c-0.4-0.2-0.8-0.1-1.2,0L22.2,21.4z"/>
						</g>
					</g>
				</g>
			</g>
			<g>
				<g>
					<g>
						<g>
							<g>
								<path class="st4" d="M27.4,4.8L27.4,4.8c0.2-0.9,0.2-1.7-0.4-2.3c-0.5-0.5-1.3-0.7-1.9-0.8c-0.2,0-0.4,0-0.6,0.1
									c0,0-0.1,0-0.1,0.1c-0.2-0.1-0.4-0.2-0.7-0.1c-1,0.2-2.1,0.2-3.1,0.7c-0.3,0.2-0.6,0.4-0.7,0.8c-0.1,0.3-0.1,0.7-0.1,1
									c-0.1,0.7,0,1.3,0.1,2c0,0.2,0.1,0.3,0.2,0.4c0,0.3-0.1,0.7-0.1,1c-0.1,3.2,1.6,5.8,3.8,5.9c2.2,0,4-2.5,4-5.7
									C27.9,6.6,27.7,5.6,27.4,4.8z"/>
							</g>
						</g>
					</g>
					<g>
						<g>
							<g>
								<g>
									
										<ellipse transform="matrix(0.1536 -0.9881 0.9881 0.1536 16.1815 34.282)" class="st4" cx="28.1" cy="7.7" rx="1.7" ry="0.7"/>
								</g>
							</g>
						</g>
						<g>
							<g>
								<g>
									
										<ellipse transform="matrix(0.1086 0.9941 -0.9941 0.1086 25.2495 -13.0429)" class="st4" cx="19.9" cy="7.6" rx="1.7" ry="0.7"/>
								</g>
							</g>
						</g>
					</g>
					<g>
						<g>
							<g>
								<path class="st0" d="M20,8L20,8c0.1-0.3,0-1.1,0-1.5s0.2-0.6,0.4-1c0.2-0.3-0.2-1-0.1-1.8c0-0.7,0.3-1.1,0.7-1.1
									c0.3-0.1,4.3,0.2,5.2,0c0.9-0.3,1.2,0.9,1.1,1.2c0,0.3-0.1,0.9,0.3,1.6C28,6,28,7.8,27.9,8.2h0.2c0-0.3,0.1-1.4,0.3-2
									c0.2-0.7,0.3-4-2.3-5.7s-5,0.6-5.6,1.1c-0.5,0.5-1.1,1.7-1.1,2.9C19.4,5.6,19.9,7.6,20,8z"/>
							</g>
						</g>
					</g>
				</g>
			</g>
			<g>
				<g>
					<g>
						<g>
							<g>
								<path class="st2" d="M27,11.9c0,0,0.1,0.8-0.4,1.3s-2.2,2-2.2,2s1,0.2,1.3,0.5s1.3,1.1,1.5,1.1c0,0,0.2-1.5,0.3-2
									s0.3-0.9,0-1.5S27.3,12.2,27,11.9z"/>
							</g>
						</g>
					</g>
					<g>
						<g>
							<g>
								<g>
									<path class="st9" d="M26.9,21.4C26.9,21.4,26.8,21.4,26.9,21.4h2.7c0-0.1,0-0.1,0.1-0.2C31,17.5,31,17,31,17l-1.5-0.9
										l0.7-0.5c0,0-0.5-1.5-1.3-2.1s-0.5-0.4-0.7-0.7c-0.3-0.4-0.8-0.8-1-0.8c0,0,0.4,0.9,0.3,1.9S27,20.5,26.9,21.4z"/>
								</g>
							</g>
						</g>
					</g>
				</g>
				<g>
					<g>
						<g>
							<g>
								<path class="st2" d="M21,11.9c0,0-0.1,0.8,0.4,1.3s2.2,2,2.2,2s-1,0.2-1.3,0.5s-1.3,1.1-1.5,1.1c0,0-0.2-1.5-0.3-2
									c-0.2-0.5-0.3-0.9,0-1.5S20.7,12.2,21,11.9z"/>
							</g>
						</g>
					</g>
					<g>
						<g>
							<g>
								<g>
									<path class="st0" d="M19.5,21.4c-1.5-4.2-0.7-7.6-0.7-7.6L15.1,16c0,0-0.6,0.3-0.7,1.5c-0.1,0.7-0.5,2.3-0.8,3.9H19.5z"/>
								</g>
								<g>
									<path class="st0" d="M28.5,21.4h5.9c-0.3-1.6-0.7-3.3-0.8-3.9c-0.1-1.2-0.7-1.5-0.7-1.5l-3.8-2.1
										C29.1,13.9,30,17.3,28.5,21.4z"/>
								</g>
							</g>
						</g>
						<g>
							<g>
								<g>
									<path class="st9" d="M18.4,21.3c0,0.1,0,0.1,0.1,0.2h2.7l0,0c-0.2-1-0.5-6.5-0.6-7.5s0.3-1.9,0.3-1.9
										c-0.2,0.1-0.7,0.4-1,0.8c-0.3,0.4,0.1,0.1-0.7,0.7c-0.8,0.6-1.3,2.1-1.3,2.1l0.7,0.5L17,17C17,17,17,17.5,18.4,21.3z"/>
								</g>
							</g>
						</g>
					</g>
				</g>
			</g>
		</g>
	</g>
</g>
</svg>
