<?xml version="1.0" encoding="utf-8"?>
<!-- Generator: Adobe Illustrator 18.0.0, SVG Export Plug-In . SVG Version: 6.00 Build 0)  -->
<!DOCTYPE svg PUBLIC "-//W3C//DTD SVG 1.1//EN" "http://www.w3.org/Graphics/SVG/1.1/DTD/svg11.dtd">
<svg version="1.1" id="Layer_1" xmlns="http://www.w3.org/2000/svg" xmlns:xlink="http://www.w3.org/1999/xlink" x="0px" y="0px"
	 viewBox="0 0 48 48" enable-background="new 0 0 48 48" xml:space="preserve">
<g>
	<g>
		<g>
			
				<rect x="15.2" y="23.6" transform="matrix(0.7071 -0.7071 0.7071 0.7071 -17.9386 20.6059)" fill="#F2F2F2" width="1.5" height="16.7"/>
		</g>
		<g>
			
				<rect x="22.9" y="11.8" transform="matrix(0.7071 -0.7071 0.7071 0.7071 -10.2399 23.7947)" fill="#F2F2F2" width="1.5" height="24.9"/>
		</g>
		<g>
			
				<rect x="31.4" y="-1.2" transform="matrix(0.7071 -0.7071 0.7071 0.7071 -1.7299 27.3586)" fill="#F2F2F2" width="1.5" height="33.9"/>
		</g>
		<g>
			<g>
				<g>
					<polygon fill="#F2F2F2" points="21.1,0 6,33.1 7.4,33.7 22.3,1.1 					"/>
				</g>
			</g>
			<g>
				<g>
					<polygon fill="#F2F2F2" points="26.3,5.2 7.7,34.6 8.9,35.4 27.4,6.3 					"/>
				</g>
			</g>
			<g>
				<g>
					<polygon fill="#F2F2F2" points="31.5,10.3 9.3,36.1 10.4,37 32.5,11.4 					"/>
				</g>
			</g>
			<g>
				<g>
					<polygon fill="#F2F2F2" points="36.6,15.5 11,37.6 11.9,38.7 37.7,16.5 					"/>
				</g>
			</g>
			<g>
				<g>
					<polygon fill="#F2F2F2" points="41.7,20.6 12.6,39.1 13.4,40.3 42.8,21.7 					"/>
				</g>
			</g>
			<g>
				<g>
					<polygon fill="#F2F2F2" points="46.9,25.7 14.3,40.6 14.9,42 48,26.9 					"/>
				</g>
			</g>
		</g>
	</g>
	<path fill="#F2F2F2" d="M6.3,32.1c-1.4,0.3-2.8,1-4,2.2c-3.2,3.2-3.2,8.3,0,11.4c3.2,3.2,8.3,3.2,11.4,0c1.1-1.1,1.8-2.5,2.2-4
		L6.3,32.1z"/>
	<path fill="#84DBFF" d="M15.1,43.9c0.4-0.7,0.7-1.4,0.8-2.2l-9.6-9.6c-0.8,0.2-1.5,0.5-2.2,0.8L15.1,43.9z"/>
</g>
</svg>
