<?xml version="1.0" encoding="utf-8"?>
<!-- Generator: Adobe Illustrator 18.0.0, SVG Export Plug-In . SVG Version: 6.00 Build 0)  -->
<!DOCTYPE svg PUBLIC "-//W3C//DTD SVG 1.1//EN" "http://www.w3.org/Graphics/SVG/1.1/DTD/svg11.dtd">
<svg version="1.1" id="Layer_1" xmlns="http://www.w3.org/2000/svg" xmlns:xlink="http://www.w3.org/1999/xlink" x="0px" y="0px"
	 viewBox="0 0 48 48" enable-background="new 0 0 48 48" xml:space="preserve">
<g>
	<path fill="#F2F2F2" d="M24,0C15.3,0,8.3,7,8.3,15.7v10.4h31.4V15.7C39.7,7,32.7,0,24,0z M33.7,20.1H14.3v-4.4
		c0-5.3,4.3-9.7,9.7-9.7s9.7,4.3,9.7,9.7V20.1z"/>
	<path fill="#FF7058" d="M43.1,48H4.9c-1.1,0-2-0.9-2-2V20.7c0-1.1,0.9-2,2-2h38.3c1.1,0,2,0.9,2,2V46C45.1,47.1,44.2,48,43.1,48z"
		/>
	<path fill="#F1543F" d="M10.2,18.7H4.9c-1.1,0-2,0.9-2,2V46c0,1.1,0.9,2,2,2h5.3V18.7z"/>
	<path fill="#F1543F" d="M37.8,18.7h5.3c1.1,0,2,0.9,2,2V46c0,1.1-0.9,2-2,2h-5.3V18.7z"/>
	<g>
		<circle fill="#F1543F" cx="24" cy="33.4" r="10.2"/>
		<g>
			<path fill="#FFFFFF" d="M27.5,33.5c-0.5-0.6-1.5-1.1-2.9-1.5v-3.4c0.6,0.2,0.9,0.7,1.1,1.4l2.2-0.3c-0.2-0.9-0.5-1.6-1.1-2.1
				c-0.6-0.5-1.3-0.8-2.2-1v-0.9h-1.3v0.9c-1,0.1-1.8,0.5-2.4,1.1c-0.6,0.7-0.9,1.5-0.9,2.4c0,1,0.3,1.8,0.8,2.4
				c0.5,0.7,1.4,1.2,2.5,1.5v3.7c-0.3-0.2-0.6-0.4-0.9-0.7c-0.3-0.3-0.4-0.7-0.5-1.2L19.7,36c0.2,1.2,0.6,2.1,1.2,2.7
				c0.2,0.2,0.5,0.4,0.7,0.6c0.5,0.3,1.1,0.5,1.8,0.6V41h1.3v-1.2c0.6-0.1,1.2-0.3,1.7-0.5c0.4-0.2,0.7-0.5,1-0.8
				c0.6-0.7,1-1.6,1-2.7C28.3,34.9,28.1,34.1,27.5,33.5z M24.7,34.5c0.5,0.1,0.9,0.4,1.1,0.7c0.2,0.3,0.4,0.6,0.4,1
				c0,0.4-0.1,0.8-0.4,1.2c-0.3,0.3-0.6,0.5-1.1,0.6V34.5z M22.5,30.9c-0.2-0.3-0.3-0.6-0.3-0.9c0-0.3,0.1-0.6,0.3-0.9
				c0.2-0.3,0.5-0.5,0.8-0.6v3.1C23,31.4,22.7,31.2,22.5,30.9z"/>
		</g>
	</g>
</g>
</svg>
