<?xml version="1.0" encoding="utf-8"?>
<!-- Generator: Adobe Illustrator 18.0.0, SVG Export Plug-In . SVG Version: 6.00 Build 0)  -->
<!DOCTYPE svg PUBLIC "-//W3C//DTD SVG 1.1//EN" "http://www.w3.org/Graphics/SVG/1.1/DTD/svg11.dtd">
<svg version="1.1" id="Layer_1" xmlns="http://www.w3.org/2000/svg" xmlns:xlink="http://www.w3.org/1999/xlink" x="0px" y="0px"
	 viewBox="0 0 48 48" enable-background="new 0 0 48 48" xml:space="preserve">
<g>
	<g>
		<g>
			<g>
				<g>
					<path fill="#344A5E" d="M30.2,44.7c0,0-0.6,1.3-0.5,1.7c0.1,0.4,0.1,0.6,0.5,0.8c0.4,0.3,0.8,0.5,1.1,0.3
						c0.4-0.2,0.8-0.3,0.8-0.7c0,0,0.2-0.8,0.1-1.5c0,0,0.2-0.7,0-1l-2.1,0.1L30.2,44.7z"/>
				</g>
				<g>
					<path fill="#415A6B" d="M32.3,45.3c0,0.2,0,0.3,0,0.5c0,0,0,0,0,0c-0.1,0.7-0.5,1.8-1.5,1.5c-0.6-0.2-0.9-0.7-1-1.3
						c0.1-0.6,0.4-1.3,0.4-1.3l0.1-0.3l2.1-0.1C32.5,44.6,32.3,45.3,32.3,45.3z"/>
				</g>
			</g>
			<g>
				<g>
					<polygon fill="#E8EAE9" points="32.2,7.8 33.3,7.6 33.6,10.8 32.4,15.3 32.2,15.6 29.7,10.6 29.4,7.7 31.4,7.8 					"/>
				</g>
				<g>
					<polygon fill="#F7B64C" points="30,7.7 30,6.3 29.7,4.7 33,4.5 32.9,6.5 32.7,7.5 31.4,7.8 31.4,7.8 					"/>
				</g>
				<g>
					<path fill="#344A5E" d="M32.2,41.2l0.4,1.5c0,0,0.4,1.4,1,1.8c0.3,0.2,0.5,0.2,0.8,0.3c0.5,0.1,0.9-0.2,0.9-0.7c0,0,0,0,0,0
						c0-0.8-0.2-1.2-0.4-1.5c-0.2-0.3-1.1-1.8-1.1-1.8L32.2,41.2z"/>
				</g>
				<g>
					<path fill="#415A6B" d="M34.2,44.6c-1-0.2-1.4-1.4-1.6-1.9c0,0,0,0,0,0c0-0.1-0.1-0.2-0.1-0.2c0,0,0,0,0,0l-0.3-1.2l1.6-0.5
						c0,0,0.9,1.5,1.1,1.8c0.1,0.1,0.1,0.2,0.2,0.4c0.1,0.2,0.1,0.4,0.1,0.5c0,0,0,0.1,0,0.1c0,0,0,0.1,0,0.1c0,0,0,0,0,0.1
						c0,0,0,0,0,0C35.3,44.1,35.2,44.9,34.2,44.6z"/>
				</g>
				<g>
					<path fill="#344A5E" d="M32.8,40.7l1.2,2.5c0,0,0.2,0.2,0.2-0.1c0-0.3-0.7-2.1-0.7-2.1L32.8,40.7z"/>
				</g>
				<g>
					<path fill="#344A5E" d="M31.1,44.2c0,0-0.2,2,0.1,1.8c0.3-0.2,0.5-2.1,0.5-2.1L31.1,44.2z"/>
				</g>
				<g>
					<path fill="#344A5E" d="M30.3,44.7c0,0,1-0.7,1.9-0.3c0,0,0.2,0.2,0.3-0.2c0.1-0.4,0.5-0.9,0.5-0.9s-0.6-0.7-0.9-0.9
						c0,0,0.9-3.1-0.5-7.2h-0.1c0,0,0-5.5,0.3-6.7l0.3,0.4c0,0-0.5,1,0,1.6l-0.3,4.9c0,0-0.3,5.1,0.6,5.8c0,0,1.3,0.7,1.6-0.2
						c0,0,0.8-3.7,0.8-4.9c0,0,0.3-2.7,0.5-3.9c0,0,0.2-1.5,0.1-1.9c0,0,1-3.4,1-5.6l-3.4-2.8l-2.3,0.8L27.4,25l0.6,6.7
						c0,0,0.3,2.4,0.3,3c0,0-0.3,6.9,2,8.2c0,0-1.2,0.4-0.5,1.2C30.3,44.7,30.3,44.7,30.3,44.7z"/>
				</g>
				<g>
					<path fill="#F7B64C" d="M19.7,8.2v0.9c0,0.3,0.2,0.6,0.5,0.7c0.6,0.2,1.6,0.5,1.8,0.5c0.4,0,1.3,0.5,1.4,2.2l0.2,3.5l1.1,1.9
						c0,0-1.2,0.5-1.3,0.6c0,0-0.3,0.3-0.8-0.2s-0.6-0.8-0.6-0.8l-0.2-1.1l-6.8-0.1c0,0,0.3,2.1,0.1,2.8c-0.2,0.7-0.9,3.2-0.9,3.2
						s-0.5,2-0.1,3c0,0,0.2,0.7,0.1,1.1c0,0.4,0,0.6,0,0.6l-0.2,0.3v0.3c0,0-0.3,0-0.3-0.4c0,0,0-0.6-0.1-0.8c0,0-0.2-0.1-0.3,0.1
						S13,26.8,13,27.2c0,0.4,0.1,0.8,0.1,0.8s0.2,0.3,0,0.4l-0.2-0.3l-0.3-0.7c0-0.1,0-0.1,0-0.2l0-0.3l-0.2-0.7
						c0-0.2,0-0.4,0.1-0.6l0.4-1.1c0,0,0-0.8,0-1c0.1-0.2,0.1-3.9,0.1-3.9s0.1-1.3,0.3-2c0.2-0.7,0.1-2.2,0.1-2.2s-0.1-2.7,0-3.3
						c0.2-0.6,0.6-1.4,1.4-1.7c0.4-0.1,1-0.2,1.5-0.3c0.6-0.1,1.1-0.6,1.1-1.2l0-1.7l2.2,0.3L19.7,8.2z"/>
				</g>
				<g>
					<g>
						<path fill="#F3F3F3" d="M9.2,46.5c0,0,1.6,0.6,2.2,0.4c0,0,2.4,1,5.7,0.3c0,0,1.7,0,2.4,0.6c0,0,4.5,0.8,7-1.2
							c0.4-0.2,0.7-0.5,1.1-0.7c0,0,3-0.3,1.6-1.3c-0.1,0-3.5-18.8-4.6-21.5c0,0-0.5-2-1.9-4.1c0,0-1-2.7-0.7-4.2
							c0.3-1.5,0,0.2,0,0.2c0,0,0.8-1.7-0.9-3c0,0-0.7-2.1-1.3-2.7c0,0,0.6,1.4,0.7,1.9c0.1,0.6,0.3,0.8,0.1,1.1
							c-0.2,0.3-1.7,1.3-2.2,2.7c0,0-1.3-1.7-2.5-2c0,0,0.4-2.1,0.9-2.8c-0.1,0-0.2,0-0.3,0c0,0-0.8,2.1-0.9,2.8
							c0,0-0.6,0.2-0.8,0.7c-0.2,0.5-0.1,2.2,0.3,2.8c0,0,0.4,1.4-0.1,3.1c-0.4,1.8-3.3,21.1-3.4,21.1c0,0-1.2,3.9-2,4.5
							c0,0,1.2,0.3,1.6,0.3C11.3,45.3,9.7,46.5,9.2,46.5z"/>
					</g>
					<g>
						<path fill="#E8EAE9" d="M29.1,44.6c-2.4-6.2-4.5-12.5-6.4-18.8c1.4,6.7,3,13.4,4.8,20.1C27.5,46,30.5,45.6,29.1,44.6z"/>
						<path fill="#E8EAE9" d="M10.1,45.2c0.3,0.1,0.8,0.2,1,0.2c0,0,0.1,0,0.1,0c0,0,2.4-5.4,2.8-7.5C14,37.8,11.9,43,10.1,45.2z"/>
						<g>
							<path fill="#E8EAE9" d="M17,47.2c0,0,0.7,0,1.4,0.2c0.3-4.7-0.6-14.1-0.8-16.8C18,35.5,17,47.2,17,47.2z"/>
							<path fill="#E8EAE9" d="M17.6,30.5c0-0.3,0-0.6-0.1-0.8C17.5,29.7,17.6,30,17.6,30.5z"/>
						</g>
					</g>
				</g>
				<g>
					<path fill="#FFD15C" d="M17.3,6.5c0,0-0.1,1.5,0.8,2.1c0.8,0.6,1.3,0.7,1.7,0.5c0.4-0.2,0.9-0.6,1-1.2c0,0,0.4-0.8,0.3-1.5
						c0,0,0-0.2,0.1-0.5c0-0.2,0.6-1.2-0.6-1.8c-1.2-0.5-2.6-0.3-2.6-0.3S16.9,5.8,17.3,6.5"/>
				</g>
				<g>
					<path fill="#FFD15C" d="M33.2,3c0,0-0.1,1.1-0.1,1.5c0,0.4-0.3,0.9-0.3,0.9c-0.6,1-1.3,1-1.3,1c-0.8,0-1.3-0.5-1.6-0.9
						c-0.3-0.4-0.6-2-0.7-2.3l0,0c-0.5-1.3,0.6-2.5,0.6-2.5s0.9-0.4,2.3-0.3C33.3,0.6,33.2,3,33.2,3z"/>
				</g>
				<g>
					<path fill="#415A6B" d="M29.3,3.9L29.2,3c-0.1-1.2,1.2-2.1,2.3-1.6c0,0,0,0,0,0c0,0,0.5-0.6,1,0.1c0.5,0.7,0.5,1.9,0.5,1.9
						s0.3-0.3,0.2-0.9c0-0.6-0.2-1.9-1.2-2.5c0,0-1.7-0.6-2.8,0.5c0,0-1.3,0.8-0.4,2.9L29.1,4L29.3,3.9z"/>
				</g>
				<g>
					
						<ellipse transform="matrix(0.984 0.1782 -0.1782 0.984 1.1745 -5.8712)" fill="#FFD15C" cx="33.3" cy="3.6" rx="0.4" ry="0.8"/>
				</g>
				<g>
					<path fill="#FFD15C" d="M28.8,4.3C29,4.8,29.3,5,29.5,4.9c0.2-0.1,0.2-0.5,0.1-0.9c-0.2-0.4-0.5-0.7-0.7-0.6
						C28.6,3.5,28.6,3.9,28.8,4.3z"/>
				</g>
				<g>
					<circle fill="#344A5E" cx="32.8" cy="18.2" r="0.3"/>
				</g>
				<g>
					<circle fill="#344A5E" cx="32.8" cy="20" r="0.3"/>
				</g>
				<g>
					<path fill="#344A5E" d="M38.8,22.9c0-1.2-0.1-2.9-0.1-3.5c0-0.9-1.4-10.5-1.4-10.5l-0.4-0.3l-1.3,0.7l0.4,4.5
						c0.3,1.1,0.7,7.3,0.9,9.1H38.8z"/>
				</g>
				<g>
					<path fill="#F3705A" d="M30.7,8.2c0,0,0.6,0.5,0.7,0.9c0.1,0.4-0.1,0.8-0.2,0.9c-0.1,0.2,0,4.1,0,4.1l1.1,1.4l-0.1,0.3l0.5-1.2
						l-0.4-4c0,0-0.1-0.5-0.4-1.1l0-0.4c0-0.3,0.2-0.6,0.5-0.7c0.1,0,0.3-0.1,0.4-0.1l-0.3-0.4c0,0-0.4,0.1-0.9,0
						c-0.5-0.1-0.7-0.1-0.7-0.1L30.7,8.2z"/>
				</g>
				<g>
					<g>
						<path fill="#F3F3F3" d="M32.9,6.5c0,0-0.5,0.9-1.4,1.4c0,0,0.9,0.2,1.6,1.1l0.2-1.8C33.2,7.1,33,6.6,32.9,6.5z"/>
					</g>
					<g>
						<path fill="#F3F3F3" d="M29.8,8.9c0,0,0.5-0.2,0.9-0.6c0.4-0.4,0.6-0.5,0.8-0.5c0,0-1.6-1-1.5-1.5l-0.5,0.6L29.8,8.9z"/>
					</g>
				</g>
				<g>
					<path fill="#415A6B" d="M33.7,7.4l3.1,1.3c0,0-1,4.7-0.9,5.7c0.1,1,0.9,10.8,0.9,10.8s-1.5,0.6-2.5,0.5c-1-0.1-1.5,0.1-1.9-1.1
						c-0.3-1.2-0.7-7.6-0.3-8.7c0,0,1.4-2.1,1.3-3.6C33.3,10.8,33.7,7.4,33.7,7.4z"/>
				</g>
				<g>
					<path fill="#344A5E" d="M32.1,15.8c2.2-2.7,2.6-6.7,2.6-6.7l0,0C34.6,8.7,34,8.3,34,8.3h0.4c-0.1-0.3-0.3-0.6-0.5-0.8
						c-0.3-0.2-0.5-0.5-0.7-0.8C33.1,6.7,33,6.6,33,6.6S33.9,10.9,32.1,15.8z"/>
				</g>
				<g>
					<path fill="#415A6B" d="M38.8,24.3c0,0-0.4,0.8-1.1,0.2c-0.7-0.5-0.9-1.1-0.9-1.1l0.5-0.5c0,0,0.9,0.3,0.9,0.3
						C38.3,23.3,38.8,24.3,38.8,24.3z"/>
				</g>
				<g>
					<g>
						<path fill="#FFD15C" d="M35.8,26.5l0-0.4c0,0-0.1-0.3,0.1-0.6l0.4-1.1c0.1-0.2,0.2-0.4,0.4-0.5l0,0c0.1-0.1,0.1-0.1,0.2-0.2
							l0.1-0.5l1.4,0.1l-0.1,1.8c0,0.1,0,0.3-0.1,0.4l-0.6,1c-0.1,0.1-0.2,0.1-0.3,0.1l0,0l0,0c-0.1,0.1-0.2,0.1-0.3,0.1l-0.7-0.3
							C36.3,26.3,36.2,26.6,35.8,26.5z"/>
					</g>
					<g>
						<path fill="#F7B64C" d="M36.4,25.5C36.4,25.5,36.4,25.5,36.4,25.5c0.1,0.2,0.1,0.4,0,0.6c0,0-0.1,0.1-0.1,0.1
							c-0.1,0.1,0,0,0,0s0.1-0.2,0.2-0.1c0,0,0,0.2,0.1,0.3c0,0-0.1-0.2,0-0.3c0,0,0.1-0.2,0.3-0.3c0,0-0.1-0.3,0-0.4
							c0,0-0.2-0.2-0.1-0.5c0,0-0.1,0.4-0.3,0.2C36.5,25.2,36.6,25.5,36.4,25.5z"/>
					</g>
					<g>
						<path fill="#F3F3F3" d="M36.3,26.3c0.1-0.1,0.2,0,0.3,0l0,0.1L36.3,26.3z"/>
					</g>
					<g>
						<path fill="#F3F3F3" d="M35.8,26.5l0-0.4l0.1,0C35.9,26.1,36,26.4,35.8,26.5z"/>
					</g>
				</g>
				<g>
					<path fill="#344A5E" d="M36.7,21.5c0.1,1.1,0.1,1.9,0.1,1.9c0.8,0,1.4,0.2,2,0.8c0,0,0-1.5-0.1-2.8H36.7z"/>
				</g>
				<g>
					<g>
						<path fill="#415A6B" d="M29.5,7.7L29,7.4l-3.3,1.2c0,0,2,7.4,1.9,8.4c-0.1,1-0.8,8.4-0.8,8.4l2.9,0.2c0,0,1.8,0.5,2.3-1.7
							c0.6-2.2,0.2-8.4,0.2-8.4S29.7,11.9,29.5,7.7z"/>
					</g>
				</g>
				<g>
					<path fill="#415A6B" d="M27.9,15.8c0,0,1.5,2,0,2c-1.5,0.1-0.5-1.9-0.5-1.9L27.9,15.8"/>
				</g>
				<g>
					<g>
						<path fill="#FFD15C" d="M30.9,15l-0.4,0c0,0-0.3-0.1-0.6,0l-1.1,0.2c-0.2,0-0.4,0.1-0.5,0.3l0,0c-0.1,0.1-0.2,0.1-0.3,0.1
							l-0.5,0.1l-0.1,1.4l1.8,0.1c0.1,0,0.3,0,0.4-0.1l1.1-0.5c0.1,0,0.2-0.2,0.1-0.3l0,0l0,0c0.1-0.1,0.1-0.2,0.1-0.3l-0.3-0.7
							C30.7,15.4,31,15.5,30.9,15z"/>
					</g>
					<g>
						<path fill="#F7B64C" d="M29.9,15.5C29.9,15.5,29.9,15.5,29.9,15.5c0.1,0.2,0.4,0.2,0.5,0.1c0,0,0.1,0,0.1-0.1c0.1,0,0,0,0,0
							s-0.2,0.1-0.1,0.2c0,0,0.2,0,0.3,0.1c0,0-0.2-0.1-0.3,0c0,0-0.3,0-0.3,0.2c0,0-0.3-0.1-0.4,0c0,0-0.2-0.2-0.4-0.2
							c0,0,0.4-0.1,0.3-0.3C29.6,15.5,29.9,15.7,29.9,15.5z"/>
					</g>
					<g>
						<path fill="#F3F3F3" d="M30.9,15l-0.4,0l0,0.1C30.5,15.1,30.9,15.2,30.9,15z"/>
					</g>
				</g>
				<g>
					<path fill="#344A5E" d="M26.5,15.1l-1.1,0l1-0.9l0.8-1.8l-0.7-3.1l-0.8-0.5l-0.4,0.3c0,0-0.6,2.8-1.4,3.9
						c-0.8,1.1-1.4,3.2-1.4,3.2s-0.2,1.2,1,1.5l2.9,0.3V15.1z"/>
				</g>
				<g>
					<path fill="#415A6B" d="M28,7.7l-2.3,0.9c0,0,0.8,2.9,1.3,5.3h1V7.7z"/>
				</g>
				<g>
					<path fill="#344A5E" d="M28.6,15.2l-2.9-0.1v2.7L28,18C28,18,27.1,16.3,28.6,15.2z"/>
				</g>
				<g>
					<path fill="#F7B64C" d="M25.1,15.3c0,0-0.2-0.1-0.2-0.1c0,0-0.7-0.1-0.4-0.3c0,0-0.2-0.2,0.2-0.3c0.5,0,0.5,0,0.5,0
						s-0.8-0.1-0.2-0.4l0.6-0.2c0.1,0,0.3,0,0.4,0l0.3,0.1c0,0-0.3-0.2,0-0.6c0,0,0.3,0,0.3,0.2c0.1,0.3-0.1,0.4-0.1,0.4
						s0.6,0.2,0.4,0.7l0,0.3c0,0-0.4,0.2-0.4,0.3c0,0-0.1-0.2-0.3-0.3c-0.2,0-0.8,0-0.8,0S25.3,15.3,25.1,15.3z"/>
				</g>
				<g>
					<path fill="#344A5E" d="M29.8,6.5c0,0-0.2,0.1-0.2,0.8c0,0.7,0.2,4.2,2.6,8.3c-1.8-1.9-3.2-4.1-4-6.5L29,8.4l-0.5-0.1
						c0,0,0.3-1,0.8-1.3C29.2,7.1,29.6,6.4,29.8,6.5z"/>
				</g>
			</g>
		</g>
	</g>
	<path fill="#415A6B" d="M21.6,6.6c0-0.4-0.2-0.7-0.3-1.1c0.3,0.1,0.4,0.5,0.2,0.7c0.2-0.4,0.2-0.8,0.1-1.2
		c-0.1-0.3-0.2-0.5-0.4-0.7C21.1,4,21,3.8,20.8,3.5c-0.1-0.2-0.3-0.4-0.5-0.6c-0.1-0.1-0.3-0.2-0.4-0.2c-0.1-0.1-0.2-0.1-0.4-0.2
		c-0.1,0-0.2-0.1-0.3-0.1c-0.2-0.1-0.5,0-0.7,0c-0.4,0.1-0.7,0.2-1.1,0.2c-0.2,0-0.4,0.1-0.5,0.2c0-0.2,0.4-0.2,0.6-0.2
		c-1-0.3-1.2,0.8-1.9,1.2c-0.5,0.3-0.8,1-0.5,1.5c-0.2,0-0.4,0.3-0.5,0.5c0,0.2,0.1,0.5,0.2,0.7c0,0,0,0.1,0,0.1c0,0,0,0.1,0,0.1
		c0,0.2-0.1,0.5-0.2,0.6c-0.1,0.2-0.2,0.2-0.2,0.2s0.1-0.1,0.2-0.2C14.9,7.4,15,7.2,15.1,7c0,0.1,0,0.2,0,0.3
		c-0.1,0.3-0.3,0.5-0.4,0.8c-0.1,0.2-0.1,0.4-0.1,0.7c0,0.3,0,0.6,0,0.8c0,0.3,0,0.5,0.1,0.8c0,0.1,0.1,0.1,0.1,0.1
		c0,0.2-0.1,0.4,0,0.6c0,0.1,0.1,0.3,0.1,0.4c0.1,0.1,0.1,0.2,0.2,0.3c0.2,0.2,0.4,0.3,0.5,0.3c0.3,0.1,0.5,0,0.6,0
		c0,0,0.1,0.1,0.1,0.1c0.3,0.2,0.5,0.5,0.9,0.5c0.4,0,0.8-0.2,0.8-0.6c-0.2,0.3-0.9,0.5-1,0.1c-0.1-0.6,0.7-1,0.8-1.6
		c0.1-0.4,0-0.8,0-1.2C17.9,9.7,18,9.8,18,10c0.1,0.2,0.1,0.5,0.1,0.8c0,0.2-0.1,0.5-0.3,0.6c-0.2,0.3-0.4,0.5-0.4,0.5
		s0.2-0.2,0.5-0.5c0.1-0.2,0.3-0.4,0.3-0.6c0.1-0.3,0-0.5-0.1-0.8c-0.1-0.4-0.3-0.7-0.4-1c-0.1-0.3-0.1-0.6-0.2-0.9
		c0-0.1,0-0.1,0-0.1l0,0c0,0,0,0,0-0.1c-0.1-0.4-0.1-0.8-0.1-1.1c0-0.4,0.2-0.9,0.3-1.3c0.1-0.3,0.2-0.6,0.4-0.8
		c0.3-0.3,1.3-0.3,1.7-0.2c0.4,0.1,0.8,0.3,1,0.7c0.3,0.7-0.3,1.6,0,2.4c0,0.1,0.1,0.3,0.2,0.4C20.9,8,20.8,8,20.7,8.1
		c0.1,0,0.3-0.1,0.4-0.2c0.1,0.2,0.1,0.3,0.1,0.5c-0.1,0.3-0.4,0.6-0.3,0.9c0,0.2,0.2,0.3,0.3,0.5c0.1,0.2,0.1,0.5,0,0.5
		c0.1,0.1,0.3-0.1,0.3-0.3c0-0.2-0.1-0.3-0.2-0.4C21.1,9.6,21,9.4,21,9.2c0-0.3,0.3-0.4,0.4-0.6c0.1-0.3,0-0.6-0.1-0.9
		c0,0,0,0,0-0.1C21.6,7.3,21.6,6.9,21.6,6.6z M21.3,7.6c-0.2-0.3-0.3-0.7-0.1-1c0.2,0.2,0.2,0.6,0.1,0.9C21.3,7.5,21.3,7.6,21.3,7.6
		z"/>
</g>
</svg>
