<?xml version="1.0" encoding="utf-8"?>
<!-- Generator: Adobe Illustrator 18.0.0, SVG Export Plug-In . SVG Version: 6.00 Build 0)  -->
<!DOCTYPE svg PUBLIC "-//W3C//DTD SVG 1.1//EN" "http://www.w3.org/Graphics/SVG/1.1/DTD/svg11.dtd">
<svg version="1.1" id="Layer_1" xmlns="http://www.w3.org/2000/svg" xmlns:xlink="http://www.w3.org/1999/xlink" x="0px" y="0px"
	 viewBox="0 0 48 48" enable-background="new 0 0 48 48" xml:space="preserve">
<g>
	<g>
		<path fill="#8AD7F8" d="M37.9,24c0-0.6,0.3-1.1,0.8-1.5c0.6-0.4,1-1,1-1.6c0-1.3-1.7-2.4-3.7-2.4c-2.1,0-3.7,1.1-3.7,2.4
			c0,0.6,0.4,1.2,1,1.6c0.2,0.2,0.4,0.4,0.6,0.6c0.1,0.3,0.2,0.5,0.2,0.8H24v10.1c-0.6,0-1.1-0.3-1.5-0.8c-0.4-0.6-1-1-1.6-1
			c-1.3,0-2.4,1.7-2.4,3.7c0,2.1,1.1,3.7,2.4,3.7c0.6,0,1.2-0.4,1.6-1c0.2-0.2,0.4-0.4,0.6-0.6c0.3-0.1,0.5-0.2,0.8-0.2V48h21
			c1.7,0,3-1.3,3-3V24H37.9z"/>
		<path fill="#FFD15C" d="M29.4,12c0,2.1-1.1,3.7-2.4,3.7c-0.6,0-1.2-0.4-1.6-1c-0.3-0.5-0.9-0.8-1.5-0.8V24H14
			c0-0.6,0.3-1.1,0.8-1.5c0.6-0.4,1-1,1-1.6c0-1.3-1.7-2.4-3.7-2.4c-2.1,0-3.7,1.1-3.7,2.4c0,0.6,0.4,1.2,1,1.6
			c0.2,0.2,0.4,0.4,0.6,0.6c0.1,0.3,0.2,0.5,0.2,0.8H0V3c0-1.7,1.3-3,3-3h21v10.1c0.3,0,0.6-0.1,0.8-0.2c0.3-0.1,0.5-0.3,0.6-0.6
			c0.4-0.6,1-1,1.6-1C28.4,8.3,29.4,9.9,29.4,12z"/>
		<path fill="#F3705A" d="M45,0L24,0v10.1c0.3,0,0.6-0.1,0.8-0.2c0.3-0.1,0.5-0.3,0.6-0.6c0.4-0.6,1-1,1.6-1c1.3,0,2.4,1.7,2.4,3.7
			c0,2.1-1.1,3.7-2.4,3.7c-0.6,0-1.2-0.4-1.6-1c-0.3-0.5-0.9-0.8-1.5-0.8V24l10.1,0c0-0.3-0.1-0.6-0.2-0.8c-0.1-0.3-0.3-0.5-0.6-0.6
			c-0.6-0.4-1-1-1-1.6c0-1.3,1.7-2.4,3.7-2.4c2.1,0,3.7,1.1,3.7,2.4c0,0.6-0.4,1.2-1,1.6c-0.5,0.3-0.8,0.9-0.8,1.5H48V3
			C48,1.3,46.7,0,45,0z"/>
		<path fill="#415A6B" d="M21,32.3c0.6,0,1.2,0.4,1.6,1c0.3,0.5,0.9,0.8,1.5,0.8V24H14c0-0.6,0.3-1.1,0.8-1.5c0.6-0.4,1-1,1-1.6
			c0-1.3-1.7-2.4-3.7-2.4c-2.1,0-3.7,1.1-3.7,2.4c0,0.6,0.4,1.2,1,1.6c0.2,0.2,0.4,0.4,0.6,0.6c0.1,0.3,0.2,0.5,0.2,0.8H0v21
			c0,1.7,1.3,3,3,3h21V37.9c-0.3,0-0.6,0.1-0.8,0.2c-0.3,0.1-0.5,0.3-0.6,0.6c-0.4,0.6-1,1-1.6,1c-1.3,0-2.4-1.7-2.4-3.7
			C18.6,33.9,19.7,32.3,21,32.3z"/>
	</g>
</g>
</svg>
