<?xml version="1.0" encoding="utf-8"?>
<!-- Generator: Adobe Illustrator 20.1.0, SVG Export Plug-In . SVG Version: 6.00 Build 0)  -->
<!DOCTYPE svg PUBLIC "-//W3C//DTD SVG 1.1//EN" "http://www.w3.org/Graphics/SVG/1.1/DTD/svg11.dtd">
<svg version="1.1" id="Layer_1" xmlns="http://www.w3.org/2000/svg" xmlns:xlink="http://www.w3.org/1999/xlink" x="0px" y="0px"
	 viewBox="0 0 49 49" enable-background="new 0 0 49 49" xml:space="preserve">
<g>
	<rect x="4.3" y="5.1" fill="#ACB3BA" width="4.8" height="43.4"/>
	<path fill="#FFD15C" d="M46.2,9V36c-11.9-8.8-23.7,7.7-35.6,1c-0.5-0.3-1-0.6-1.5-1V9c0.5,0.4,1,0.7,1.5,1
		C22.5,16.8,34.3,0.3,46.2,9z"/>
	<path fill="#9AA9B5" d="M9.1,5.1v4.1C8.4,9.6,7.6,9.8,6.7,9.8S5,9.6,4.3,9.2V5.1H9.1z"/>
	<circle fill="#FF7058" cx="6.7" cy="4.4" r="3.9"/>
	<path fill="#F8B64C" d="M10.6,10V37c-0.5-0.3-1-0.6-1.5-1V9C9.6,9.4,10.1,9.7,10.6,10z"/>
</g>
</svg>
