<?xml version="1.0" encoding="utf-8"?>
<!-- Generator: Adobe Illustrator 18.0.0, SVG Export Plug-In . SVG Version: 6.00 Build 0)  -->
<!DOCTYPE svg PUBLIC "-//W3C//DTD SVG 1.1//EN" "http://www.w3.org/Graphics/SVG/1.1/DTD/svg11.dtd">
<svg version="1.1" id="Layer_1" xmlns="http://www.w3.org/2000/svg" xmlns:xlink="http://www.w3.org/1999/xlink" x="0px" y="0px"
	 viewBox="0 0 48 48" enable-background="new 0 0 48 48" xml:space="preserve">
<g>
	<g>
		<path fill="#E8EAE9" d="M35.4,19.3c-1.1-0.8-1.9-2.2-3.2-2.4c-1-0.2-2,0.4-2.7,1c-0.8,0.6-1.5,1.4-2.3,1.9
			c-0.9,0.5-2.1,0.5-2.8-0.2c-0.5-0.5-0.6-1.3-1.1-1.8c-0.8-1-2.2-1.1-3.4-0.7c-1.2,0.4-2.2,1.1-3.4,1.6c-1.2,0.4-2.6,0.5-3.5-0.3
			c-0.5-0.5-0.8-1.2-1.3-1.7c-0.2-0.2-0.4-0.3-0.5-0.4c-2.1,4.5-3.3,9.7-3.3,14.6C7.8,42.7,15.1,48,24,48c8.9,0,16.2-5.3,16.2-17.2
			c0-3.5-0.6-7.2-1.7-10.6C37.4,20.2,36.3,19.9,35.4,19.3z"/>
		<path fill="#E8EAE9" d="M12.9,13.4c0.9,0.8,2.4,0.8,3.5,0.3c1.2-0.4,2.2-1.2,3.4-1.6c1.2-0.4,2.7-0.3,3.4,0.7
			c0.4,0.6,0.6,1.3,1.1,1.8c0.7,0.7,1.9,0.6,2.8,0.2c0.9-0.5,1.6-1.2,2.3-1.9c0.8-0.6,1.7-1.2,2.7-1c1.4,0.2,2.1,1.6,3.2,2.4
			c0.9,0.6,1.9,0.9,3,0.9C35.8,7,30.3,0,24,0c-5.3,0-9.9,4.9-12.9,11.3c0.2,0.1,0.4,0.2,0.5,0.4C12.1,12.2,12.4,12.9,12.9,13.4z"/>
	</g>
</g>
</svg>
