<?xml version="1.0" encoding="utf-8"?>
<!-- Generator: Adobe Illustrator 18.0.0, SVG Export Plug-In . SVG Version: 6.00 Build 0)  -->
<!DOCTYPE svg PUBLIC "-//W3C//DTD SVG 1.1//EN" "http://www.w3.org/Graphics/SVG/1.1/DTD/svg11.dtd">
<svg version="1.1" id="Layer_1" xmlns="http://www.w3.org/2000/svg" xmlns:xlink="http://www.w3.org/1999/xlink" x="0px" y="0px"
	 viewBox="0 0 48 48" enable-background="new 0 0 48 48" xml:space="preserve">
<g>
	<path fill="#CDD6E0" d="M46,48H2c-1.1,0-2-0.9-2-2V2c0-1.1,0.9-2,2-2h44c1.1,0,2,0.9,2,2v44C48,47.1,47.1,48,46,48z"/>
	<path fill="#54C0EB" d="M22.6,9.2h-18c-1.1,0-2.1,0.8-2,1.8l1.8,31.4c0.1,0.9,0.9,1.7,2,1.7h16.2V9.2z"/>
	<path fill="#54C0EB" d="M43.4,9.2h-18V44h16.2c1.1,0,1.9-0.7,2-1.7L45.4,11C45.5,10,44.5,9.2,43.4,9.2z"/>
	<circle fill="#CDD6E0" cx="24" cy="10.3" r="10.3"/>
	<circle fill="#F2F2F2" cx="24" cy="10.3" r="9.4"/>
	<g>
		<path fill="#CDD6E0" d="M24.1,1.6v1c0,0.1-0.1,0.1-0.1,0.1c-0.1,0-0.1,0-0.1-0.1v-1c0,0,0-0.1,0.1-0.1C24.1,1.5,24.1,1.5,24.1,1.6
			z"/>
		<path fill="#CDD6E0" d="M22.8,2.7c0,0.1,0,0.1-0.1,0.1c0,0-0.1,0-0.1-0.1l-0.1-0.7l-0.1-0.3c0-0.1,0-0.1,0.1-0.1
			c0.1,0,0.1,0,0.1,0.1L22.6,2L22.8,2.7z"/>
		<path fill="#CDD6E0" d="M21.5,3c0,0.1,0,0.1-0.1,0.1c0,0-0.1,0-0.1-0.1L21,2.4l-0.1-0.3c0,0,0-0.1,0.1-0.1c0.1,0,0.1,0,0.1,0.1
			l0.1,0.3L21.5,3z"/>
		<path fill="#CDD6E0" d="M20.2,3.7c-0.1,0-0.1,0-0.1,0L19.7,3l-0.1-0.2c0,0,0-0.1,0-0.1c0.1,0,0.1,0,0.1,0l0.1,0.2l0.4,0.7
			C20.3,3.6,20.2,3.7,20.2,3.7z"/>
		<path fill="#CDD6E0" d="M19.1,4.5c0,0-0.1,0-0.1,0l-0.6-0.7l-0.1-0.1c0,0,0-0.1,0-0.1c0,0,0.1,0,0.1,0l0.1,0.1l0.6,0.7
			C19.2,4.4,19.2,4.5,19.1,4.5z"/>
		<path fill="#CDD6E0" d="M18.2,5.4c0,0-0.1,0.1-0.1,0l-0.8-0.6l0,0c0,0,0-0.1,0-0.1c0,0,0.1-0.1,0.1,0l0,0l0.8,0.6
			C18.2,5.3,18.2,5.4,18.2,5.4z"/>
		<path fill="#CDD6E0" d="M16.4,5.9c0,0,0,0.1,0,0.1l0.9,0.5c0,0,0.1,0,0.1,0c0,0,0-0.1,0-0.1l-0.9-0.5C16.4,5.9,16.4,5.9,16.4,5.9z
			"/>
		<path fill="#CDD6E0" d="M15.7,7.3c0,0.1,0,0.1,0.1,0.1l1,0.3c0.1,0,0.1,0,0.1-0.1c0-0.1,0-0.1-0.1-0.1l-1-0.3
			C15.8,7.2,15.7,7.3,15.7,7.3z"/>
		<path fill="#CDD6E0" d="M15.3,8.8c0,0.1,0,0.1,0.1,0.1l1,0.2c0.1,0,0.1,0,0.1-0.1c0-0.1,0-0.1-0.1-0.1l-1-0.2
			C15.4,8.7,15.3,8.7,15.3,8.8z"/>
		<path fill="#CDD6E0" d="M31.6,10.3c0,0.1,0,0.1,0.1,0.1h1c0.1,0,0.1,0,0.1-0.1c0-0.1,0-0.1-0.1-0.1h-1
			C31.7,10.2,31.6,10.3,31.6,10.3z"/>
		<path fill="#CDD6E0" d="M15.2,10.3c0,0.1,0,0.1,0.1,0.1h1c0.1,0,0.1,0,0.1-0.1c0-0.1,0-0.1-0.1-0.1h-1
			C15.2,10.2,15.2,10.3,15.2,10.3z"/>
		<path fill="#CDD6E0" d="M31.5,9c0,0.1,0.1,0.1,0.1,0.1l1-0.2c0.1,0,0.1-0.1,0.1-0.1c0-0.1-0.1-0.1-0.1-0.1l-1,0.2
			C31.5,8.9,31.5,9,31.5,9z"/>
		<path fill="#CDD6E0" d="M31.2,7.7c0,0.1,0.1,0.1,0.1,0.1l1-0.3c0.1,0,0.1-0.1,0.1-0.1c0-0.1-0.1-0.1-0.1-0.1l-1,0.3
			C31.2,7.6,31.1,7.7,31.2,7.7z"/>
		<path fill="#CDD6E0" d="M30.6,6.5c0,0,0.1,0.1,0.1,0l0.9-0.5c0,0,0.1-0.1,0-0.1c0,0-0.1-0.1-0.1,0l-0.9,0.5
			C30.6,6.4,30.6,6.5,30.6,6.5z"/>
		<path fill="#CDD6E0" d="M30.8,4.8L30.8,4.8L30,5.4c0,0-0.1,0-0.1,0c0,0,0-0.1,0-0.1l0.8-0.6l0,0c0,0,0.1,0,0.1,0
			C30.8,4.7,30.8,4.8,30.8,4.8z"/>
		<path fill="#CDD6E0" d="M29.7,3.7l-0.1,0.1L29,4.5c0,0-0.1,0.1-0.1,0c0,0,0-0.1,0-0.1l0.6-0.7l0.1-0.1c0,0,0.1,0,0.1,0
			C29.7,3.6,29.7,3.7,29.7,3.7z"/>
		<path fill="#CDD6E0" d="M28.5,2.8L28.3,3l-0.4,0.7c0,0-0.1,0.1-0.1,0c0,0-0.1-0.1,0-0.1l0.4-0.7l0.1-0.2c0,0,0.1-0.1,0.1,0
			C28.5,2.7,28.5,2.8,28.5,2.8z"/>
		<path fill="#CDD6E0" d="M27.1,2.2L27,2.4l-0.3,0.7c0,0.1-0.1,0.1-0.1,0.1c-0.1,0-0.1-0.1-0.1-0.1l0.3-0.7l0.1-0.3
			C26.9,2,27,2,27,2C27.1,2.1,27.1,2.1,27.1,2.2z"/>
		<path fill="#CDD6E0" d="M25.6,1.7l-0.1,0.3l-0.1,0.7c0,0-0.1,0.1-0.1,0.1c-0.1,0-0.1-0.1-0.1-0.1L25.4,2l0-0.3
			c0-0.1,0.1-0.1,0.1-0.1C25.6,1.6,25.6,1.7,25.6,1.7z"/>
	</g>
	<polygon fill="#FF7058" points="24.5,11.8 23.5,11.8 24,3.9 	"/>
	<rect x="23.5" y="11.6" fill="#FF7058" width="0.9" height="2.6"/>
	<circle fill="#40596B" cx="24" cy="11.9" r="1.2"/>
	<path fill="#E2E8ED" d="M24,1.9c5,0,9.1,3.9,9.4,8.9c0-0.2,0-0.3,0-0.5c0-5.2-4.2-9.4-9.4-9.4s-9.4,4.2-9.4,9.4c0,0.2,0,0.3,0,0.5
		C14.9,5.9,19,1.9,24,1.9z"/>
	<g>
		<path fill="#ACB3BA" d="M17.4,4.6L17.4,4.6c0,0.1-0.1,0.1-0.1,0.2l0,0c0,0,0-0.1,0-0.1C17.3,4.6,17.3,4.6,17.4,4.6z"/>
		<path fill="#ACB3BA" d="M18.5,3.6l0.1,0.1c-0.1,0-0.1,0.1-0.2,0.1l-0.1-0.1c0,0,0-0.1,0-0.1C18.4,3.5,18.4,3.5,18.5,3.6z"/>
		<path fill="#ACB3BA" d="M19.7,2.7l0.1,0.2c-0.1,0-0.1,0.1-0.2,0.1l-0.1-0.2c0,0,0-0.1,0-0.1C19.6,2.7,19.7,2.7,19.7,2.7z"/>
		<path fill="#ACB3BA" d="M21.1,2.1l0.1,0.3c-0.1,0-0.1,0-0.2,0.1l-0.1-0.3c0,0,0-0.1,0.1-0.1C21,2,21.1,2,21.1,2.1z"/>
		<path fill="#ACB3BA" d="M22.6,1.7L22.6,2c-0.1,0-0.1,0-0.2,0l-0.1-0.3c0-0.1,0-0.1,0.1-0.1C22.5,1.6,22.6,1.7,22.6,1.7z"/>
		<path fill="#ACB3BA" d="M24.1,1.6v0.3h-0.2V1.6c0,0,0-0.1,0.1-0.1C24.1,1.5,24.1,1.5,24.1,1.6z"/>
		<path fill="#ACB3BA" d="M25.6,1.7l-0.1,0.3c-0.1,0-0.1,0-0.2,0l0-0.3c0-0.1,0.1-0.1,0.1-0.1C25.6,1.6,25.6,1.7,25.6,1.7z"/>
		<path fill="#ACB3BA" d="M27.1,2.2L27,2.4c-0.1,0-0.1,0-0.2-0.1l0.1-0.3C26.9,2,27,2,27,2C27.1,2.1,27.1,2.1,27.1,2.2z"/>
		<path fill="#ACB3BA" d="M28.4,2.7c0,0,0.1,0.1,0,0.1L28.3,3c-0.1,0-0.1-0.1-0.2-0.1l0.1-0.2C28.3,2.7,28.4,2.7,28.4,2.7z"/>
		<path fill="#ACB3BA" d="M29.7,3.6c0,0,0,0.1,0,0.1l-0.1,0.1c-0.1,0-0.1-0.1-0.2-0.1l0.1-0.1C29.6,3.5,29.6,3.5,29.7,3.6z"/>
		<path fill="#ACB3BA" d="M30.8,4.8L30.8,4.8c-0.1-0.1-0.1-0.1-0.1-0.1l0,0c0,0,0.1,0,0.1,0C30.8,4.7,30.8,4.8,30.8,4.8z"/>
	</g>
</g>
</svg>
