<?xml version="1.0" encoding="utf-8"?>
<!-- Generator: Adobe Illustrator 18.0.0, SVG Export Plug-In . SVG Version: 6.00 Build 0)  -->
<!DOCTYPE svg PUBLIC "-//W3C//DTD SVG 1.1//EN" "http://www.w3.org/Graphics/SVG/1.1/DTD/svg11.dtd">
<svg version="1.1" id="Layer_1" xmlns="http://www.w3.org/2000/svg" xmlns:xlink="http://www.w3.org/1999/xlink" x="0px" y="0px"
	 viewBox="0 0 48 48" enable-background="new 0 0 48 48" xml:space="preserve">
<g>
	<g>
		<g>
			<path fill="#F7B64C" d="M40.5,10.3c-1.7,0.5-2.8,2-2.9,3.7c-1-1.3-2.8-2-4.5-1.5c-2.2,0.7-3.4,3-2.8,5.2c1,3.2,10.2,6.1,10.2,6.1
				s6.1-7.5,5.1-10.7C44.9,10.9,42.6,9.7,40.5,10.3z"/>
		</g>
		<g>
			<path fill="#FFD15C" d="M13.7,12.4c-1.7,0.5-2.8,2-2.9,3.7c-1-1.3-2.8-2-4.5-1.5c-2.2,0.7-3.4,3-2.8,5.2c1,3.2,10.2,6.1,10.2,6.1
				s6.1-7.5,5.1-10.7C18.2,13,15.9,11.7,13.7,12.4z"/>
		</g>
		<g>
			<path fill="#F05540" d="M24.8,0.2c-1.7,0.5-2.8,2-2.9,3.7c-1-1.3-2.8-2-4.5-1.5c-2.2,0.7-3.4,3-2.8,5.2c1,3.2,10.2,6.1,10.2,6.1
				S30.9,6.1,30,2.9C29.3,0.7,27-0.5,24.8,0.2z"/>
		</g>
		<g>
			<g>
				<path fill="#415A6B" d="M8.4,6.5c-1.3,1.3-1.3,3.4,0,4.7l12.7,12.7c1.3,1.3,3.4,1.3,4.7,0c1.3-1.3,1.3-3.4,0-4.7L13.1,6.5
					C11.8,5.2,9.7,5.2,8.4,6.5z"/>
			</g>
			<path fill="#66C6B9" d="M3,24.6l3.5,20.9C6.8,46.9,8,48,9.5,48h29.1c1.5,0,2.7-1.1,3-2.5L45,24.6H3z"/>
			<polygon fill="#4ABAA5" points="44.6,26.9 45,24.6 3,24.6 3.4,26.9 			"/>
			<path fill="#F3F3F3" d="M45,25H3c-1.7,0-3-1.3-3-3c0-1.7,1.3-3,3-3h42c1.7,0,3,1.3,3,3C48,23.7,46.7,25,45,25z"/>
			<path fill="#4ABAA5" d="M24,30.7c-1.3,0-2.4,1.1-2.4,2.4v8.7c0,1.3,1.1,2.4,2.4,2.4c1.3,0,2.4-1.1,2.4-2.4v-8.7
				C26.4,31.8,25.3,30.7,24,30.7z"/>
			<path fill="#4ABAA5" d="M36.2,31c-1.3-0.4-2.7,0.3-3.1,1.6l-2.6,8.3c-0.4,1.3,0.3,2.7,1.6,3.1c1.3,0.4,2.7-0.3,3.1-1.6l2.6-8.3
				C38.2,32.7,37.5,31.4,36.2,31z"/>
			<path fill="#4ABAA5" d="M14.9,32.6c-0.4-1.3-1.8-2-3.1-1.6c-1.3,0.4-2,1.8-1.6,3.1l2.6,8.3c0.4,1.3,1.8,2,3.1,1.6
				c1.3-0.4,2-1.8,1.6-3.1L14.9,32.6z"/>
			<g>
				<circle fill="#344A5E" cx="24" cy="22" r="1.9"/>
			</g>
		</g>
		<g>
			<path fill="#F3705A" d="M34.2,4.4c-2-0.2-3.9,1-4.6,2.7c-0.5-1.9-2.1-3.3-4.2-3.4c-2.6-0.2-4.9,1.7-5.1,4.3
				c-0.3,3.8,8.3,10.8,8.3,10.8s9.6-5.4,9.9-9.2C38.8,6.9,36.8,4.6,34.2,4.4z"/>
		</g>
	</g>
</g>
</svg>
