<?xml version="1.0" encoding="utf-8"?>
<!-- Generator: Adobe Illustrator 18.0.0, SVG Export Plug-In . SVG Version: 6.00 Build 0)  -->
<!DOCTYPE svg PUBLIC "-//W3C//DTD SVG 1.1//EN" "http://www.w3.org/Graphics/SVG/1.1/DTD/svg11.dtd">
<svg version="1.1" id="Layer_1" xmlns="http://www.w3.org/2000/svg" xmlns:xlink="http://www.w3.org/1999/xlink" x="0px" y="0px"
	 viewBox="0 0 48 48" enable-background="new 0 0 48 48" xml:space="preserve">
<g>
	<g>
		<path fill="#E8EAE9" d="M25.9,34.4v-2.2h-2v2.2c-1.5,0.4-2.7,1.8-2.7,3.5c0,2,1.6,3.7,3.7,3.7s3.7-1.6,3.7-3.7
			C28.6,36.2,27.4,34.8,25.9,34.4z M24.9,39.6c-0.9,0-1.7-0.7-1.7-1.7c0-0.9,0.7-1.7,1.7-1.7c0.9,0,1.7,0.7,1.7,1.7
			C26.6,38.8,25.8,39.6,24.9,39.6z"/>
		<path fill="#E8EAE9" d="M42.5,33.1H7.3c-1.7,0-3-1.3-3-3V4.5h41.2v25.6C45.5,31.8,44.2,33.1,42.5,33.1z"/>
		<g>
			<g>
				<rect x="9.2" y="14.9" fill="#66C6B9" width="5.5" height="13.3"/>
			</g>
			<g>
				<rect x="17.8" y="23.3" fill="#415A6B" width="5.5" height="4.9"/>
			</g>
			<g>
				<rect x="26.5" y="14.9" fill="#F3705A" width="5.5" height="13.3"/>
			</g>
			<g>
				<rect x="35.1" y="9.7" fill="#8AD7F8" width="5.5" height="18.4"/>
			</g>
		</g>
		<g>
			<path fill="#415A6B" d="M45.5,5H4.3C2.9,5,1.8,3.9,1.8,2.5S2.9,0,4.3,0h41.2C46.9,0,48,1.1,48,2.5S46.9,5,45.5,5z"/>
		</g>
		<g>
			<g>
				<g>
					<path fill="#F3705A" d="M21.4,43.7H2l0,0c1.9-2.8,2.9-6,2.9-9.4v-4.9c0-3.8,3.1-6.8,6.8-6.8h0c3.8,0,6.8,3.1,6.8,6.8v4.9
						C18.5,37.7,19.5,41,21.4,43.7L21.4,43.7z"/>
				</g>
			</g>
			<g>
				<path fill="#F7B64C" d="M15.2,39.6L14.3,48H7.1v-8.4c0,0,0,0,0,0c0.9-0.3,1.5-1,1.5-1.9v-3l3.1-2.4l3.1,2.4v3
					c0,0.9,0.6,1.6,1.4,1.9L15.2,39.6z"/>
			</g>
			<g>
				<path fill="#E8EAE9" d="M14.5,40.8V48H8.8v-7.3c0.7,0.8,1.7,1.2,2.9,1.2C12.8,42,13.8,41.5,14.5,40.8z"/>
			</g>
			<g>
				<path fill="#415A6B" d="M23.3,48v-3.2c0-1.7-1-3.2-2.6-3.7l-5.4-2L13.5,48H23.3z"/>
			</g>
			<g>
				<path fill="#415A6B" d="M0,48l0-3.2c0-1.7,1-3.2,2.6-3.7l5.4-2L9.8,48H0z"/>
			</g>
			<g>
				<g>
					<path fill="#FFD15C" d="M17.5,32.5c-0.2,1.1-0.9,1.8-1.4,1.7c-0.6-0.1-0.8-1.1-0.6-2.1c0.2-1.1,0.9-1.8,1.4-1.7
						C17.4,30.5,17.7,31.5,17.5,32.5z"/>
				</g>
			</g>
			<g>
				<g>
					<path fill="#FFD15C" d="M5.9,32.5c0.2,1.1,0.9,1.8,1.4,1.7s0.8-1.1,0.6-2.1c-0.2-1.1-0.9-1.8-1.4-1.7S5.6,31.5,5.9,32.5z"/>
				</g>
			</g>
			<path fill="#FFD15C" d="M16.7,30.5c0,4.4-2.3,8-5.1,8s-5.1-3.6-5.1-8c0-0.2,0-1.1,0-1.2v0c0.2-0.1,4.8-0.5,6.1-2.7
				c1.2,1,2.1,1.6,3.9,1.8c0,0.3,0.1,1.3,0.1,1.6C16.7,30.2,16.7,30.3,16.7,30.5z"/>
			<polygon fill="#344A5E" points="6.2,44 8.6,48 10.7,48 8.4,38.5 5.8,41.9 7.8,42.1 			"/>
			<polygon fill="#344A5E" points="14.8,48 17.1,44 15.6,42.1 17.6,41.9 15,38.5 12.7,48 			"/>
		</g>
	</g>
</g>
</svg>
