<?xml version="1.0" encoding="utf-8"?>
<!-- Generator: Adobe Illustrator 18.0.0, SVG Export Plug-In . SVG Version: 6.00 Build 0)  -->
<!DOCTYPE svg PUBLIC "-//W3C//DTD SVG 1.1//EN" "http://www.w3.org/Graphics/SVG/1.1/DTD/svg11.dtd">
<svg version="1.1" id="Layer_1" xmlns="http://www.w3.org/2000/svg" xmlns:xlink="http://www.w3.org/1999/xlink" x="0px" y="0px"
	 viewBox="0 0 48 48" enable-background="new 0 0 48 48" xml:space="preserve">
<g>
	<g>
		<path fill="#F1543F" d="M44.3,27.5c-2.9-5.1-7.1-5-7.1-5c-1.6,0-3,0.6-4.1,1.4c-2.3,1.6-4.8,2.7-7.6,3.2c-1.3,0.3-2.7,0.8-3.8,2
			c0,0-3,3-1.2,8.6c0,0,1.8,6.2,6.8,8.4c0,0,5,3.1,11.1,0.5c5.3-2.3,7.3-8.4,7.3-8.4C47.6,33.1,44.3,27.5,44.3,27.5z"/>
		<g>
			<path fill="#F2F2F2" d="M42,29.6c-0.3,0.1-0.8,0-1-0.3c-1.6-2.9-3.6-3.1-3.7-3.1c-0.4,0-0.7-0.4-0.7-0.8c0-0.4,0.4-0.7,0.8-0.7
				c0.3,0,3,0.2,5,3.8C42.6,28.9,42.4,29.4,42,29.6C42.1,29.6,42,29.6,42,29.6z"/>
		</g>
	</g>
	<path opacity="0.1" fill="#231F20" d="M29.1,32.6c-0.3-2.6-1.2-4.5-2.1-5.8c-0.5,0.1-0.9,0.3-1.4,0.3c-1.3,0.3-2.7,0.9-3.8,2
		c0,0-3,3-1.2,8.6c0,0,1.3,4.3,4.6,7c0.3-0.3,0.5-0.5,0.5-0.5C29.9,39.8,29.1,32.9,29.1,32.6z"/>
	<g>
		<path fill="#FF7058" d="M27.6,32.8c-0.6-5.8-4.5-7.4-4.5-7.4c-1.5-0.7-3-0.6-4.3-0.4c-2.7,0.6-5.5,0.6-8.2,0
			c-1.3-0.3-2.8-0.3-4.3,0.4c0,0-3.9,1.6-4.5,7.4c0,0-0.8,6.5,2.9,10.4c0,0,3.3,4.8,10,4.8c5.8,0,10-4.8,10-4.8
			C28.4,39.2,27.6,32.8,27.6,32.8z"/>
		<g>
			<path fill="#F2F2F2" d="M24.6,33.8c-0.4,0-0.7-0.3-0.7-0.7c-0.3-3.4-2.1-4.3-2.2-4.3c-0.4-0.2-0.5-0.6-0.3-1
				c0.2-0.4,0.6-0.5,1-0.3c0.3,0.1,2.6,1.4,3.1,5.5C25.4,33.4,25.1,33.8,24.6,33.8C24.7,33.8,24.6,33.8,24.6,33.8z"/>
		</g>
	</g>
	<g>
		<path fill="#4CDBC4" d="M31.3,28.4c-0.3,0-0.7-0.1-1-0.4c-7.3-7.4-5.2-17.5-3.5-23.3c-11,8.6-11.6,21.9-11.6,22.1
			c0,0.7-0.6,1.3-1.4,1.3c-0.7,0-1.3-0.6-1.3-1.4c0-0.7,0.7-17.4,16.2-26.6C29.3-0.1,30,0,30.4,0.3c0.4,0.4,0.6,1,0.3,1.6
			c-0.1,0.2-7.4,15.3,1.5,24.3c0.5,0.5,0.5,1.4,0,1.9C32,28.3,31.6,28.4,31.3,28.4z"/>
	</g>
	<path fill="#3DC9AE" d="M29.5,0c0,7.8,6.3,14.1,14.1,14.1C43.6,6.3,37.3,0,29.5,0z"/>
</g>
</svg>
