<?xml version="1.0" encoding="utf-8"?>
<!-- Generator: Adobe Illustrator 18.0.0, SVG Export Plug-In . SVG Version: 6.00 Build 0)  -->
<!DOCTYPE svg PUBLIC "-//W3C//DTD SVG 1.1//EN" "http://www.w3.org/Graphics/SVG/1.1/DTD/svg11.dtd">
<svg version="1.1" id="Layer_1" xmlns="http://www.w3.org/2000/svg" xmlns:xlink="http://www.w3.org/1999/xlink" x="0px" y="0px"
	 viewBox="0 0 512 512" enable-background="new 0 0 512 512" xml:space="preserve">
<g>
	<g>
		<path fill="#F6B44B" d="M141,492.5c0,0,11.1-10.1,10.6-31.8c0,0-48.3,45.4-84,49.3c0,0-2.8-10.6,6.7-32.9c0,0-36.6,6.9-53,13.5
			c6.7-16.3,13.6-52.9,13.6-52.9C12.6,447.3,2,444.4,2,444.4c3.9-35.7,49.3-84,49.3-84c-21.7-0.5-31.8,10.6-31.8,10.6
			c-11.3-63.3,73.2-63.6,73.2-63.6l111.9,111.9C204.6,419.3,204.1,503.7,141,492.5z"/>
		<path fill="#FFD15C" d="M44.3,467.7c4.4-16.5,7.7-34.3,7.9-35.4l3.6-18.9L38.1,421c-6.4,2.8-11.7,4.3-15.7,5.2
			c8.7-25,33.4-55.1,43.7-66l15.7-16.7l-23-0.6c-9-0.2-16.5,1.3-22.3,3.3c0.9-5.8,3.2-10.8,6.9-15.2c12.5-15,39.1-19.7,52.5-20.5
			l105.5,105.5c-0.8,10.6-4.3,39-20.6,52.6c-4.4,3.6-9.3,5.9-15,6.9c2.1-5.9,3.5-13.3,3.3-22.3l-0.5-23L151.8,446
			c-10.9,10.3-41,35-66,43.7c0.9-4,2.5-9.3,5.2-15.7l7.6-17.7l-18.9,3.6C78.7,460,60.8,463.3,44.3,467.7z"/>
	</g>
	<path fill="#40596B" d="M313.1,198.9c-80.3-80.3-210.6-80.3-290.9,0l290.9,290.9C393.4,409.4,393.4,279.2,313.1,198.9z"/>
	<path fill="#CDD6E0" d="M429.8,259.2c-8.5,8.5-17.5,16.3-27.1,23.7L234.9,411.7l-31,7L93.3,308.1l7-31.2l128.8-167.7
		c37.2-48.6,88.7-82.2,145.5-97.6C416,0.4,460.3-1.3,503.9,8.1c9.3,43.5,7.6,87.8-3.6,129.2C488,183,463.9,225,429.8,259.2z"/>
	<polygon fill="#ACB3BA" points="100.3,277 93.3,308 204,418.6 235,411.6 	"/>
	<g>
		<path fill="#FFFFFF" d="M405.1,106.9c-26.6-26.7-69.8-26.7-96.5,0c-13.4,13.4-20,30.8-20,48.3c0.1,17.4,6.7,34.9,20,48.1
			c13.2,13.2,30.7,20,48.1,20c17.5,0.1,35.1-6.7,48.4-20C431.8,176.7,431.8,133.5,405.1,106.9z"/>
		<circle fill="#FF7058" cx="356.9" cy="155.1" r="50.5"/>
	</g>
	<path fill="#40596B" d="M500.3,137.3L374.6,11.6C416,0.4,460.3-1.3,503.9,8.1C513.3,51.6,511.6,95.9,500.3,137.3z"/>
</g>
</svg>
