<?xml version="1.0" encoding="utf-8"?>
<!-- Generator: Adobe Illustrator 18.0.0, SVG Export Plug-In . SVG Version: 6.00 Build 0)  -->
<!DOCTYPE svg PUBLIC "-//W3C//DTD SVG 1.1//EN" "http://www.w3.org/Graphics/SVG/1.1/DTD/svg11.dtd">
<svg version="1.1" id="Layer_1" xmlns="http://www.w3.org/2000/svg" xmlns:xlink="http://www.w3.org/1999/xlink" x="0px" y="0px"
	 viewBox="0 0 48 48" enable-background="new 0 0 48 48" xml:space="preserve">
<g>
	<g>
		<g>
			<g>
				<path fill="#E8EAE9" d="M39.2,5.6l-11.3,12l-11.2-4.2l-8,8.3c-0.4,0.4-0.4,1,0,1.4c0.4,0.4,1,0.4,1.4,0l7.1-7.4L28.5,20L40.6,7
					C39.9,7,39.3,6.3,39.2,5.6z"/>
			</g>
		</g>
		<g>
			<g>
				<g>
					<g>
						
							<rect x="27.8" y="27.8" transform="matrix(0.7071 -0.7071 0.7071 0.7071 -13.3383 32.2016)" fill="#344A5E" width="8.7" height="8.7"/>
					</g>
				</g>
			</g>
			<g>
				<g>
					<g>
						<path fill="#415A6B" d="M31.1,31.1c-7.1,7.1-18.7,7.1-25.8,0c-7.1-7.1-7.1-18.7,0-25.8c7.1-7.1,18.7-7.1,25.8,0
							S38.2,24,31.1,31.1z M8.2,8.2c-5.5,5.5-5.5,14.4,0,19.9s14.4,5.5,19.9,0c5.5-5.5,5.5-14.4,0-19.9S13.7,2.7,8.2,8.2z"/>
					</g>
				</g>
			</g>
			<g>
				<g>
					<g>
						<g>
							<g>
								<path fill="#F3705A" d="M46.2,46.2L46.2,46.2c-2.4,2.4-6.3,2.4-8.7,0l-8-8l8.7-8.7l8,8C48.6,39.9,48.6,43.8,46.2,46.2z"/>
							</g>
						</g>
					</g>
				</g>
				<g>
					<g>
						<g>
							<g>
								
									<rect x="33.2" y="29.1" transform="matrix(0.7071 0.7071 -0.7071 0.7071 35.2862 -14.6163)" fill="#F05540" width="4.2" height="12.4"/>
							</g>
						</g>
					</g>
				</g>
				<g>
					<g>
						<g>
							<g>
								<path fill="#E8EAE9" d="M39.6,30.9l-8.7,8.7c-0.8,0.8-2.1,0.8-2.9,0c-0.8-0.8-0.8-2.1,0-2.9l8.7-8.7c0.8-0.8,2.1-0.8,2.9,0
									C40.4,28.8,40.4,30.1,39.6,30.9z"/>
							</g>
						</g>
					</g>
				</g>
			</g>
		</g>
		<g>
			<g>
				<circle fill="#F3705A" cx="39.8" cy="6.2" r="3.1"/>
			</g>
			<g>
				<circle fill="#F05540" cx="39.8" cy="6.2" r="1.8"/>
			</g>
		</g>
		<g>
			<g>
				<circle fill="#FFD15C" cx="28.3" cy="18.8" r="3.1"/>
			</g>
			<g>
				<circle fill="#F7B64C" cx="28.3" cy="18.8" r="1.8"/>
			</g>
		</g>
		<g>
			<g>
				<circle fill="#8AD7F8" cx="17" cy="14.6" r="3.1"/>
			</g>
			<g>
				<circle fill="#55C0EB" cx="17" cy="14.6" r="1.8"/>
			</g>
		</g>
	</g>
</g>
</svg>
