<?xml version="1.0" encoding="utf-8"?>
<!-- Generator: Adobe Illustrator 18.0.0, SVG Export Plug-In . SVG Version: 6.00 Build 0)  -->
<!DOCTYPE svg PUBLIC "-//W3C//DTD SVG 1.1//EN" "http://www.w3.org/Graphics/SVG/1.1/DTD/svg11.dtd">
<svg version="1.1" id="Layer_1" xmlns="http://www.w3.org/2000/svg" xmlns:xlink="http://www.w3.org/1999/xlink" x="0px" y="0px"
	 viewBox="0 0 48 48" enable-background="new 0 0 48 48" xml:space="preserve">
<g>
	<g>
		<circle fill="#54C0EB" cx="24" cy="24" r="24"/>
		<path fill="#84DBFF" d="M48,23.8c-0.5,0.7-1,1.4-1.5,2.1c-1.8,2.8-2.5,6.1-3.6,9.2c-0.3,0.9-1,2.3-1.8,1.8
			c-2.4-1.7-0.1-6.3-1.8-8.9C38.8,27,38,26.1,37,25.7c-2-0.9-4.3,0-6.4-0.6c-1.8-0.6-3-2.5-3.1-4.3c-0.1-1.9,0.9-3.7,2.3-5
			c1.3-1.1,3.2-1.8,4.9-1.2c0.6,0.2,1.2,0.6,1.9,0.8c1.6,0.5,3.4-0.2,4.9-0.9c0.7-0.3,1.5-0.8,1.3-1.6c-0.1-0.5-0.7-0.8-1.3-0.8
			c-1-0.1-2,0.2-3.1,0.3c-1,0.1-2.2,0-2.9-0.7c-0.4-0.4-0.9-1.1-1.5-0.9c-0.2,0.1-0.4,0.3-0.6,0.5c-0.9,1-2.5,0.9-3.8,0.7
			c-0.2,0-0.4-0.1-0.6-0.2c-0.3-0.3,0-0.8,0.3-1.2c0.9-0.9,1.8-1.8,2.4-2.9c0,0,0,0,0,0c0.8-1.6-0.3-3.4-2.1-3.5
			c-1-0.1-1.9-0.3-2.6-1c-0.8-0.7-1.2-1.9-0.9-3C38.4,1.3,47.9,11.4,48,23.8z"/>
		<path fill="#84DBFF" d="M18.8,7c-0.8,1.9-3,2.8-4.5,4.3c-1,1-1.8,2.4-2.4,3.6l-0.2,0.4C10.8,16.9,9,17.4,7.3,17
			c-0.3-0.1-0.6-0.1-0.9-0.1c-1.3,0-2.7,1-2.9,2.3c0,0.3,0,0.6,0.1,0.9c0.2,0.6,0.9,0.9,1.5,0.9c0,0,0,0,0,0c1.1,0,2.1,0.6,2.5,1.7
			c0,0,0,0,0,0.1c0.4,1.3-1.1,2.4-2.2,1.5C4.1,23,3,21.5,2.4,19.8c-0.5-1.4-0.8-2.9-0.8-4.4v0C4.3,8.2,10.5,2.7,18,0.8
			c0.2,0.6,0.5,1.2,0.7,1.8C19.1,4,19.4,5.6,18.8,7z"/>
		<path fill="#84DBFF" d="M25.3,31.9c-0.4,0.6-0.9,1-1.4,1.5c-2.6,2.9-2.3,7.8-5.4,10.1c-0.5,0.4-1.2,0.8-1.4,1.4
			c-0.1,0.3,0,0.6,0,0.9c0.1,0.4,0.1,0.8,0.2,1.3c-1-0.3-1.9-0.6-2.8-1c-0.5-1-1.2-1.9-1.4-3.1c-0.3-1.5,0.3-3.2-0.1-4.7
			c-0.6-2.7-3.8-4.1-4.7-6.7C7.7,30,8.2,28.1,9,26.5c0.5-1,1.2-2,2.2-2.3c0.8-0.3,1.6-0.1,2.4,0.1c3.2,1.1,5.6,4.5,9,4.8
			c1.1,0.1,2.4,0,2.9,0.9C25.9,30.5,25.7,31.3,25.3,31.9z"/>
	</g>
	<path fill="#FFFFFF" d="M23,42.4C5.5,31.5,8.8,14.7,8.8,14.5l0.3-1.3l1.3-0.2C18.6,12,22.5,7,22.5,6.9L24,5l1.5,1.9
		c0.2,0.2,4,5.1,12.2,6.2l1.3,0.2l0.3,1.3c0,0.2,3.3,17-14.2,27.9L24,43L23,42.4z"/>
	<path fill="#40596B" d="M37.1,23.3C36,28.6,32.7,35.5,24,40.9c0,0,0,0,0,0C15.3,35.5,12,28.6,10.9,23.3c-1-4.9-0.3-8.5-0.3-8.5
		C19.7,13.7,24,8,24,8h0c0,0,4.3,5.7,13.4,6.9C37.4,14.9,38.1,18.5,37.1,23.3z"/>
	<g>
		<path fill="#ACB3BA" d="M28.8,23.5h-9.6v-4.1c0-2.6,2.2-4.8,4.8-4.8c2.7,0,4.8,2.2,4.8,4.8V23.5z M20.9,21.9h6.3v-2.4
			c0-1.7-1.4-3.1-3.1-3.1c-1.7,0-3.1,1.4-3.1,3.1V21.9z"/>
	</g>
	<path fill="#FF7058" d="M28.5,31.2h-9.1c-1.1,0-2-0.9-2-2v-5.8c0-1.1,0.9-2,2-2h9.1c1.1,0,2,0.9,2,2v5.8
		C30.5,30.3,29.6,31.2,28.5,31.2z"/>
	<path fill="#40596B" d="M25.6,25.4c0-1-0.9-1.7-1.9-1.5c-0.6,0.1-1.1,0.6-1.2,1.2c-0.1,0.7,0.3,1.4,0.9,1.7V28
		c0,0.4,0.3,0.7,0.7,0.7h0c0.4,0,0.7-0.3,0.7-0.7v-1.3C25.2,26.5,25.6,26,25.6,25.4z"/>
</g>
</svg>
