<?xml version="1.0" encoding="utf-8"?>
<!-- Generator: Adobe Illustrator 18.0.0, SVG Export Plug-In . SVG Version: 6.00 Build 0)  -->
<!DOCTYPE svg PUBLIC "-//W3C//DTD SVG 1.1//EN" "http://www.w3.org/Graphics/SVG/1.1/DTD/svg11.dtd">
<svg version="1.1" id="Layer_1" xmlns="http://www.w3.org/2000/svg" xmlns:xlink="http://www.w3.org/1999/xlink" x="0px" y="0px"
	 viewBox="0 0 48 48" enable-background="new 0 0 48 48" xml:space="preserve">
<g>
	<circle fill="#40596B" cx="24" cy="18" r="18"/>
	<path fill="#334A5E" d="M42,17.8c-0.4,0.5-0.7,1-1.1,1.6c-1.4,2.1-1.9,4.5-2.7,6.9c-0.2,0.6-0.8,1.7-1.3,1.3
		c-1.8-1.3-0.1-4.7-1.3-6.7c-0.4-0.7-1-1.4-1.7-1.7c-1.5-0.7-3.2,0-4.8-0.5c-1.3-0.4-2.3-1.8-2.3-3.2c-0.1-1.4,0.7-2.8,1.7-3.7
		c1-0.9,2.4-1.3,3.7-0.9c0.5,0.2,0.9,0.4,1.4,0.6c1.2,0.4,2.5-0.2,3.7-0.7c0.5-0.2,1.1-0.6,1-1.2C38,9.2,37.6,9,37.2,8.9
		c-0.8-0.1-1.5,0.1-2.3,0.2c-0.8,0.1-1.6,0-2.2-0.5C32.4,8.4,32,7.9,31.6,8c-0.2,0.1-0.3,0.2-0.4,0.4c-0.7,0.7-1.8,0.7-2.8,0.5
		c-0.1,0-0.3,0-0.4-0.2c-0.2-0.2,0-0.6,0.2-0.9c0.6-0.7,1.3-1.4,1.8-2.2c0,0,0,0,0,0c0.6-1.2-0.3-2.5-1.6-2.6
		c-0.7-0.1-1.4-0.2-1.9-0.7c-0.6-0.5-0.9-1.4-0.7-2.2C34.8,0.9,41.9,8.6,42,17.8z"/>
	<path fill="#334A5E" d="M20.1,5.2c-0.6,1.4-2.3,2.1-3.4,3.2c-0.8,0.8-1.3,1.8-1.8,2.7l-0.2,0.3c-0.6,1.1-1.9,1.6-3.2,1.2
		c-0.2-0.1-0.4-0.1-0.6-0.1c-1,0-2,0.7-2.2,1.7c0,0.2,0,0.5,0.1,0.7c0.2,0.4,0.7,0.7,1.1,0.7c0,0,0,0,0,0c0.8,0,1.6,0.5,1.8,1.3
		c0,0,0,0,0,0c0.3,1-0.8,1.8-1.6,1.1c-1.1-0.8-1.9-2-2.3-3.2c-0.4-1-0.6-2.2-0.6-3.3v0c2.1-5.4,6.6-9.5,12.3-11
		C19.7,1,19.9,1.5,20,1.9C20.4,3,20.5,4.2,20.1,5.2z"/>
	<path fill="#334A5E" d="M25,23.9c-0.3,0.4-0.7,0.8-1,1.1c-1.9,2.1-1.7,5.8-4,7.6c-0.4,0.3-0.9,0.6-1,1.1c0,0.2,0,0.4,0,0.6
		c0,0.3,0.1,0.6,0.1,0.9c-0.7-0.2-1.4-0.5-2.1-0.7c-0.4-0.7-0.9-1.5-1.1-2.3c-0.2-1.2,0.2-2.4-0.1-3.5c-0.5-2-2.9-3-3.6-5
		c-0.5-1.3-0.1-2.7,0.5-3.9c0.4-0.7,0.9-1.5,1.7-1.7c0.6-0.2,1.2-0.1,1.8,0.1c2.4,0.8,4.2,3.4,6.7,3.6c0.8,0.1,1.8,0,2.2,0.7
		C25.4,22.8,25.3,23.4,25,23.9z"/>
	<g>
		<path fill="#3DC9AE" d="M44,23.1H4c-1.1,0-2,0.9-2,2V46c0,1.1,0.9,2,2,2h40c1.1,0,2-0.9,2-2V25.1C46,24,45.1,23.1,44,23.1z"/>
		<path fill="#FFFFFF" d="M5.2,42.2V29c1.5,0,2.7-1.2,2.7-2.6h32.3c0,1.5,1.2,2.6,2.7,2.6v13.2c-1.5,0-2.7,1.2-2.7,2.6H7.9
			C7.9,43.4,6.7,42.2,5.2,42.2z"/>
		<ellipse fill="#3DC9AE" cx="12.9" cy="35.6" rx="1.8" ry="1.8"/>
		<ellipse fill="#3DC9AE" cx="34.3" cy="35.6" rx="1.8" ry="1.8"/>
		<ellipse fill="#3DC9AE" cx="23.6" cy="35.6" rx="5.7" ry="7.8"/>
		<path fill="#FFFFFF" d="M25.8,35.6c-0.3-0.4-0.9-0.7-1.8-0.9v-2.1c0.4,0.2,0.6,0.4,0.7,0.9l1.4-0.2c-0.1-0.5-0.3-1-0.7-1.3
			c-0.3-0.3-0.8-0.5-1.4-0.6v-0.5h-0.8v0.5c-0.6,0.1-1.1,0.3-1.5,0.7c-0.4,0.4-0.6,0.9-0.6,1.5c0,0.6,0.2,1.1,0.5,1.5
			c0.3,0.4,0.9,0.7,1.6,0.9v2.3c-0.2-0.1-0.4-0.2-0.5-0.5c-0.2-0.2-0.3-0.5-0.3-0.8l-1.4,0.2c0.1,0.7,0.4,1.3,0.8,1.7
			c0.4,0.4,0.9,0.6,1.5,0.7v0.7H24v-0.7c0.7-0.1,1.3-0.4,1.7-0.8c0.4-0.5,0.6-1,0.6-1.7C26.3,36.5,26.1,36,25.8,35.6z M23.2,34.5
			c-0.2-0.1-0.4-0.2-0.5-0.4c-0.1-0.2-0.2-0.3-0.2-0.5c0-0.2,0.1-0.4,0.2-0.6c0.1-0.2,0.3-0.3,0.5-0.4V34.5z M24.7,38
			c-0.2,0.2-0.4,0.3-0.7,0.4v-2.1c0.3,0.1,0.6,0.2,0.7,0.4c0.1,0.2,0.2,0.4,0.2,0.6C25,37.5,24.9,37.8,24.7,38z"/>
	</g>
</g>
</svg>
