<?xml version="1.0" encoding="utf-8"?>
<!-- Generator: Adobe Illustrator 18.0.0, SVG Export Plug-In . SVG Version: 6.00 Build 0)  -->
<!DOCTYPE svg PUBLIC "-//W3C//DTD SVG 1.1//EN" "http://www.w3.org/Graphics/SVG/1.1/DTD/svg11.dtd">
<svg version="1.1" id="Layer_1" xmlns="http://www.w3.org/2000/svg" xmlns:xlink="http://www.w3.org/1999/xlink" x="0px" y="0px"
	 viewBox="0 0 512 512" enable-background="new 0 0 512 512" xml:space="preserve">
<g>
	<path fill="#FFD15C" d="M510,137.3v351.5c0,11.7-9.5,21.2-21.2,21.2H23.2C11.5,510,2,500.5,2,488.8V137.3c0-9.7,4-18.3,10.6-24.5
		c6-5.8,14.2-9.4,23.3-9.4h440.3c9.1,0,17.3,3.6,23.3,9.3C505.9,119,510,127.7,510,137.3z"/>
	<path fill="#FF7058" d="M306.7,2c-28,0-50.7,22.7-50.7,50.7v50.7h0V52.7c0-28-22.7-50.7-50.7-50.7c-28,0-50.7,22.7-50.7,50.7
		c0,28,22.7,50.7,50.7,50.7h10.5V510h80.5V103.5h10.5c28,0,50.7-22.7,50.7-50.7C357.5,24.7,334.7,2,306.7,2z M205.2,76.3
		c-13,0-23.5-10.6-23.5-23.5c0-13,10.6-23.5,23.5-23.5c13,0,23.5,10.6,23.5,23.5v23.5H205.2z M306.7,76.3h-23.5V52.7
		c0-13,10.6-23.5,23.5-23.5c13,0,23.5,10.6,23.5,23.5C330.3,65.7,319.7,76.3,306.7,76.3z"/>
	<rect x="215.7" y="103.5" fill="#F1543F" width="80.5" height="12.4"/>
	<g>
		<path fill="#F8B64C" d="M50.1,134.2c19.6,0,36.2-12.9,41.7-30.8H35.9c-9.1,0-17.3,3.6-23.3,9.4C20.1,125.7,34.1,134.2,50.1,134.2z
			"/>
		<path fill="#F8B64C" d="M461.9,134.2c16,0,30-8.6,37.6-21.4c-6-5.8-14.2-9.3-23.3-9.3h-56C425.6,121.3,442.2,134.2,461.9,134.2z"
			/>
		<circle fill="#F8B64C" cx="153" cy="236" r="43.6"/>
		<circle fill="#F8B64C" cx="358.9" cy="236" r="43.6"/>
		<circle fill="#F8B64C" cx="50.1" cy="377.5" r="43.6"/>
		<circle fill="#F8B64C" cx="461.9" cy="377.5" r="43.6"/>
		<path fill="#F8B64C" d="M153,479.2c-19.6,0-36.2,12.9-41.7,30.8h83.4C189.3,492.2,172.7,479.2,153,479.2z"/>
		<path fill="#F8B64C" d="M358.9,479.2c-19.6,0-36.2,12.9-41.7,30.8h83.4C395.1,492.2,378.5,479.2,358.9,479.2z"/>
	</g>
</g>
</svg>
