<?xml version="1.0" encoding="utf-8"?>
<!-- Generator: Adobe Illustrator 20.1.0, SVG Export Plug-In . SVG Version: 6.00 Build 0)  -->
<!DOCTYPE svg PUBLIC "-//W3C//DTD SVG 1.1//EN" "http://www.w3.org/Graphics/SVG/1.1/DTD/svg11.dtd">
<svg version="1.1" id="Layer_1" xmlns="http://www.w3.org/2000/svg" xmlns:xlink="http://www.w3.org/1999/xlink" x="0px" y="0px"
	 viewBox="0 0 49 49" enable-background="new 0 0 49 49" xml:space="preserve">
<g>
	<polygon fill="#F2F2F2" points="43.8,24.8 43.8,48.5 5.2,48.5 5.2,24.8 5.2,24.8 24.5,8.2 43.8,24.8 	"/>
	<rect x="13.7" y="28.4" fill="#CDD6E0" width="21.6" height="20.1"/>
	<path fill="#E4EAEF" d="M43.8,22.2v2.6h-0.1L24.5,8.2L5.2,24.8H5.2v-2.6c0.2-0.1,0.4-0.2,0.5-0.3L24.5,5.7l18.8,16.2
		C43.5,22,43.7,22.1,43.8,22.2z"/>
	<path fill="#FF7058" d="M46.1,23.8c-0.6,0-1.1-0.2-1.6-0.6L24.5,6L4.4,23.2c-1,0.9-2.5,0.7-3.4-0.2c-0.9-1-0.7-2.5,0.2-3.3
		L22.9,1.1c0.9-0.8,2.2-0.8,3.1,0l21.6,18.6c1,0.9,1.1,2.4,0.2,3.3C47.5,23.5,46.8,23.8,46.1,23.8z"/>
	<g>
		<rect x="21.1" y="15.6" fill="#54C0EB" width="3" height="3"/>
		<rect x="24.9" y="15.6" fill="#54C0EB" width="3" height="3"/>
		<rect x="21.1" y="19.3" fill="#54C0EB" width="3" height="3"/>
		<rect x="24.9" y="19.3" fill="#54C0EB" width="3" height="3"/>
	</g>
	<g>
		<rect x="18" y="35.5" fill="#40596B" width="6.5" height="13"/>
		<rect x="24.5" y="35.5" fill="#334A5E" width="6.5" height="13"/>
	</g>
	<g>
		<rect x="38.1" y="43.3" fill="#54C0EB" width="3" height="3"/>
		<rect x="38.1" y="37.7" fill="#54C0EB" width="3" height="3"/>
	</g>
	<g>
		<rect x="7.9" y="43.3" fill="#54C0EB" width="3" height="3"/>
		<rect x="7.9" y="37.7" fill="#54C0EB" width="3" height="3"/>
	</g>
</g>
</svg>
