<?xml version="1.0" encoding="utf-8"?>
<!-- Generator: Adobe Illustrator 19.0.1, SVG Export Plug-In . SVG Version: 6.00 Build 0)  -->
<svg version="1.1" id="Layer_1" xmlns="http://www.w3.org/2000/svg" xmlns:xlink="http://www.w3.org/1999/xlink" x="0px" y="0px"
	 viewBox="0 0 48 48" style="enable-background:new 0 0 48 48;" xml:space="preserve">
<style type="text/css">
	.st0{fill:#66C6B9;}
	.st1{fill:#F3F3F3;}
	.st2{fill:#415A6B;}
	.st3{fill:#CED6E0;}
	.st4{fill:#F3705A;}
	.st5{fill:#E8EAE9;}
	.st6{fill:#4ABAA5;}
	.st7{fill:#F05540;}
	.st8{fill:#FFD15C;}
	.st9{fill:#55C0EB;}
	.st10{fill:#8AD7F8;}
	.st11{fill:#344A5E;}
	.st12{fill:#FFFFFF;}
	.st13{fill:#F7B64C;}
	.st14{fill:#ADB3BA;}
	.st15{fill:#38A892;}
	.st16{fill:#ED9845;}
	.st17{fill:#2D4251;}
	.st18{fill:#304556;}
	.st19{fill:#A5AAAD;}
	.st20{fill:#2D4456;}
	.st21{fill:#4FB0E0;}
	.st22{fill:#2D4354;}
	.st23{fill:#E54C38;}
	.st24{fill:#2B4456;}
	.st25{fill:#2B404F;}
</style>
<g>
	<g>
		<g>
			<g>
				<polygon class="st6" points="42.7,35.2 16.9,35.2 16.9,41.9 48,41.9 				"/>
			</g>
			<g>
				<rect x="16.9" y="41.9" class="st0" width="31.1" height="2.6"/>
			</g>
		</g>
		<g>
			<g>
				<g>
					<g>
						<polygon class="st3" points="40.2,36.2 26.8,36.2 25.9,37.9 39.5,37.9 						"/>
					</g>
					<g>
						<path class="st3" d="M39.5,37.9l4.3-13.5l0.7-0.4c0,0,0.1,0.2,0,0.7c-0.1,0.5-3.4,11.2-3.4,11.2s-0.3,0.6-0.6,1.3
							s-0.6,1.6-1,1.6C39.2,38.7,39.5,37.9,39.5,37.9z"/>
					</g>
				</g>
			</g>
			<g>
				<path class="st5" d="M39.5,38.7h-13c-0.4,0-0.7-0.3-0.7-0.7v-0.1h13.7V38.7z"/>
			</g>
			<g>
				<path class="st1" d="M39.5,38.7c0.1,0,0.1,0,0.2-0.1c0.8-2.3,4.2-12.7,4.3-13.4c0.1-0.7-0.2-0.9-0.2-0.9l-4.3,13.5
					C39.5,37.9,39.2,38.7,39.5,38.7z"/>
			</g>
		</g>
		<g>
			<path class="st13" d="M27.2,33.7c0,0,2,0.2,2.8,0.6c0.8,0.3,2.3,1,2.4,0.7s-0.1-0.7-0.6-1c-0.5-0.3-0.7-0.5-0.7-0.5
				s0.8,0.2,1.1,0.3c0.3,0.1,0.6,0.1,0.6,0.1s0.4,0.3,0.7,0.6c0,0,0.4,1.7,0.9,1.8s0.3-0.7,0.2-1.2c-0.1-0.5-0.3-0.8-0.3-0.8
				s0.3,0.3,0.4,0.4s0.1,0,0.1,0s-0.1,0.9,0.3,1s0.5,0,0.5-0.2s-0.2-0.9-0.2-0.9s0.5,0.1,0.5-0.3l-0.5-0.4c0,0-0.6-0.5-0.7-0.6
				s-0.1-0.4-0.5-0.5c-0.4-0.1-1.5-0.3-1.5-0.3s-0.4-0.7-0.9-0.7c-0.5,0-1,0.2-1.7,0.2s-1.8,0.2-1.8,0.2L27.2,33.7z"/>
		</g>
		<g>
			<path class="st5" d="M28.6,31.8h0.6c0,0-0.8,1.4-0.9,2.5l-1.1-0.1L28.6,31.8z"/>
		</g>
		<g>
			<path class="st11" d="M15.2,28.7c0,0,2.2,1.6,2.7,2.1c0.5,0.6,0.4,0.8,1.9,0.7c1.4-0.1,1.7,0,2.1,0.2c0.3,0.2,1.9,0.2,2.6,0.2
				c0.7,0,4.4-0.2,4.4-0.2S28,32.3,27.7,35l-12.5-0.2V28.7z"/>
		</g>
		<g>
			<path class="st8" d="M26.6,32.9c0,0,2.1,0.1,3.2,0.4c1.2,0.3,2.3,0.5,2.9,0.8c0.6,0.3,1.6,0.6,1.6,0.6s1.2,1.4,1.2,2
				c0,0,0.4,0.5,0.2,0.8c-0.2,0.3-0.4,0.2-0.7-0.1c-0.2-0.3-1.4-1.3-1.8-1.5c0,0,0.5,0.5,0.6,0.6l1.2,1c0,0-0.1,0.7-1.4-0.2
				c0,0-0.8-0.2-1.1-0.5c0,0-0.5-0.2-0.7-0.4c0,0-1.6,0.2-3.3-0.1s-1.9-0.4-1.9-0.4L26.6,32.9z"/>
		</g>
		<g>
			<path class="st2" d="M13.5,21c0,0,1.6,3.9,2.1,5.5c0.4,1.5,1.7,5.2,2.3,7.2c0.6,2.1,0.6,2.1,0.6,2.1l-4.2-1.3
				C14.2,34.4,8.9,23.4,13.5,21z"/>
		</g>
		<g>
			<path class="st3" d="M8.2,14.4c0,0,1.1,1,2.7,2.4s3.3,3.8,3.3,3.8l-1.5,4.6l-5.7-9.2C7.1,16.1,7.8,14.6,8.2,14.4z"/>
		</g>
		<g>
			<g>
				<g>
					<path class="st8" d="M6.8,16.5l1-1l1.9-4.1c0,0,3.1-2.2,3.2-2.2c0.1-0.1,4.4-1.8,4.4-1.8l2.1,2c0,0,0.3,2.3,0.2,2.8
						c-0.2,0.5-0.6,0.6-0.7,0.9c-0.1,0.4,0.5,1.9,0.4,2.5s-0.4,0.7-0.6,0.7c-0.2,0-0.7-0.2-0.7-0.2s-0.2,0.4-0.1,0.6
						c0.1,0.2-0.2,0.5-0.5,0.2c0,0,0.4,0.2,0.3,0.7s-0.6,0.5-0.7,1.3s-0.9,1.1-1.7,0.7S13.7,19,13.7,19l-2.5,3.6L6.8,16.5z"/>
				</g>
				<g>
					<path class="st2" d="M7.7,15.5c0,0,1.8-0.7,2.2-2.4c0.4-1.8,1-2,1.5-2.1c0.5,0,1.5,0.7,1.7,1.3c0.2,0.7,0.1,2,0.1,2l1-0.1
						c0,0-0.1-2.1,0.7-2.7c0.8-0.6,1.5-0.7,1.3-1.5c-0.2-0.8-0.1-1.5,0.5-1.7c0.6-0.2,2,0.9,2.4,1.1c0,0,0.6-1.1,0-2S16,4,14.4,3.6
						s-3.3,0-4.5,1S7.9,8,7.7,9.9S8,14.7,7.7,15.5z"/>
				</g>
				<g>
					<ellipse transform="matrix(0.9942 -0.108 0.108 0.9942 -1.2504 1.2999)" class="st8" cx="11.4" cy="12.2" rx="1.2" ry="1.7"/>
				</g>
			</g>
			<path class="st13" d="M13.7,19c0,0-2.9-2-3.6-3.8c0,0,0.4,3.1,2.2,5.8L13.7,19z"/>
		</g>
		<g>
			<path class="st5" d="M7.3,15.1c0,0,1.1,1,2.7,2.4c1.6,1.4,3.3,3.8,3.3,3.8l-1.4,2.8l-5.8-7.4C6.2,16.8,6.9,15.3,7.3,15.1z"/>
		</g>
		<g>
			<path class="st11" d="M18.3,44.6C18,39,16.8,33.3,16.8,33.3s-2.2-5.9-3.7-9.1c-1.5-3.2-4.1-6.5-4.8-7.1c-0.6-0.5-1.6-1.4-1.6-1.4
				s-3.1,3.5-3.9,4.6c-0.8,1.1-2.1,3.1-2.6,7.1c-0.4,3.4-0.2,12.9,0,17.2H18.3z"/>
		</g>
		<g>
			<path class="st2" d="M4.3,31c-0.8-0.8-1.4-1.7-1.8-2.7c-0.3-0.8-0.4-1.7-0.2-2.8c0.5-2.7,2.3-4.8,3.9-4.8S10.7,22,11,24
				s0.6,3.9,0.9,4.5c0.3,0.6,2.3,2.1,2.6,2.9c0.2,0.9,0.4,1.1,0.6,1.3c0.2,0.2,0.9,0.3,1.1,0.5c0.1,0.3,1.3-0.2,2.5-0.2
				c1.2,0,7.7-0.9,7.7-0.9s1.6,1.1,1.6,3.2c0,2.1-1.2,2.3-1.2,2.3s-2.2-0.2-2.9,0.3c-0.7,0.4-1,0.6-1.8,0.7
				c-0.7,0.1-2.5,0.6-3.6,0.7c-1.1,0-2.1,0.4-3.4-0.2s-4.2-2.5-5.5-3.4c-1.2-0.9-3.2-2.7-4.1-3.5C5.1,31.8,4.6,31.3,4.3,31z"/>
		</g>
	</g>
</g>
</svg>
