<?xml version="1.0" encoding="utf-8"?>
<!-- Generator: Adobe Illustrator 18.0.0, SVG Export Plug-In . SVG Version: 6.00 Build 0)  -->
<!DOCTYPE svg PUBLIC "-//W3C//DTD SVG 1.1//EN" "http://www.w3.org/Graphics/SVG/1.1/DTD/svg11.dtd">
<svg version="1.1" id="Layer_1" xmlns="http://www.w3.org/2000/svg" xmlns:xlink="http://www.w3.org/1999/xlink" x="0px" y="0px"
	 viewBox="0 0 48 48" enable-background="new 0 0 48 48" xml:space="preserve">
<g>
	<g>
		<g>
			<path fill="#F3F3F3" d="M48,25.7c0,3.6-2.9,6.5-6.5,6.5H9.8c-5.4,0-9.8-4.4-9.8-9.8c0-5.2,4.1-9.5,9.2-9.8
				c0.4-2.1,1.8-3.9,3.9-4.8C14.8,7.2,16.5,7.3,18,8c2.2-4.7,6.9-8,12.4-8C38,0,44.2,6.2,44.2,13.7c0,2-0.4,3.9-1.2,5.6
				C45.8,20,48,22.6,48,25.7z"/>
			<path fill="#E8EAE9" d="M48,25.7c0,0.4,0,0.8-0.1,1.2c-0.5-3-3.2-5.3-6.4-5.3c-3.2,0-5.8,2.3-6.4,5.3C35,26.5,35,26.1,35,25.7
				c0-3.6,2.9-6.5,6.5-6.5C45.1,19.2,48,22.1,48,25.7z"/>
			<path fill="#E8EAE9" d="M19.7,22.4c0,0.6-0.1,1.2-0.2,1.8c-0.8-4.6-4.8-8-9.7-8c-4.8,0-8.8,3.5-9.7,8C0.1,23.6,0,23,0,22.4
				c0-5.4,4.4-9.8,9.8-9.8C15.3,12.5,19.7,16.9,19.7,22.4z"/>
			<path fill="#E8EAE9" d="M21,13.1c0,0.5-0.1,1-0.2,1.5c-0.6-2.6-3-4.4-5.7-4.4s-5.1,1.9-5.7,4.4c-0.1-0.5-0.2-1-0.2-1.5
				c0-3.3,2.6-5.9,5.9-5.9C18.4,7.2,21,9.9,21,13.1z"/>
			<g>
				<path fill="#E8EAE9" d="M30.6,0c-5.9,0-10.9,3.7-12.9,8.9c0.7,0.4,1.3,0.9,1.8,1.5C22,7,26,4.9,30.6,4.9
					C37.3,5,42.8,9.9,43.9,16.3c0.2-0.8,0.3-1.6,0.3-2.5C44.3,6.2,38.2,0.1,30.6,0z"/>
			</g>
		</g>
		<g>
			<polygon fill="#F3705A" points="31.8,33.7 27.2,33.7 27.2,48 20.8,48 20.8,33.7 16.2,33.7 24,25.9 			"/>
		</g>
	</g>
</g>
</svg>
