<?xml version="1.0" encoding="utf-8"?>
<!-- Generator: Adobe Illustrator 20.1.0, SVG Export Plug-In . SVG Version: 6.00 Build 0)  -->
<!DOCTYPE svg PUBLIC "-//W3C//DTD SVG 1.1//EN" "http://www.w3.org/Graphics/SVG/1.1/DTD/svg11.dtd">
<svg version="1.1" id="Layer_1" xmlns="http://www.w3.org/2000/svg" xmlns:xlink="http://www.w3.org/1999/xlink" x="0px" y="0px"
	 viewBox="0 0 49 49" enable-background="new 0 0 49 49" xml:space="preserve">
<g>
	<rect x="2.9" y="15.2" fill="#F2F2F2" width="43.1" height="33.3"/>
	<path fill="#40596B" d="M46.7,2.2c-0.2-1-1-1.7-2-1.7H4.3c-1,0-1.8,0.7-2,1.7L0.5,12.9c-0.2,1.2,0.7,2.3,2,2.3h44
		c1.2,0,2.2-1.1,2-2.3L46.7,2.2z"/>
	<rect x="14.6" y="28.4" fill="#CDD6E0" width="19.8" height="20.1"/>
	<g>
		<rect x="18" y="35.5" fill="#40596B" width="6.5" height="13"/>
		<rect x="24.5" y="35.5" fill="#334A5E" width="6.5" height="13"/>
	</g>
	<rect x="2.9" y="15.2" fill="#E4EAEF" width="43.1" height="1.5"/>
	<rect x="6.2" y="39.4" fill="#54C0EB" width="5.1" height="5.1"/>
	<rect x="37.7" y="39.4" fill="#54C0EB" width="5.1" height="5.1"/>
	<rect x="37.7" y="19.2" fill="#54C0EB" width="5.1" height="5.1"/>
	<rect x="21.9" y="19.2" fill="#54C0EB" width="5.1" height="5.1"/>
	<rect x="6.2" y="19.2" fill="#54C0EB" width="5.1" height="5.1"/>
</g>
</svg>
