<?xml version="1.0" encoding="utf-8"?>
<!-- Generator: Adobe Illustrator 20.1.0, SVG Export Plug-In . SVG Version: 6.00 Build 0)  -->
<!DOCTYPE svg PUBLIC "-//W3C//DTD SVG 1.1//EN" "http://www.w3.org/Graphics/SVG/1.1/DTD/svg11.dtd">
<svg version="1.1" id="Layer_1" xmlns="http://www.w3.org/2000/svg" xmlns:xlink="http://www.w3.org/1999/xlink" x="0px" y="0px"
	 viewBox="0 0 49 49" enable-background="new 0 0 49 49" xml:space="preserve">
<g>
	<path fill="#40596B" d="M38.3,0.5H10.7c-1.1,0-2,0.9-2,2v44c0,1.1,0.9,2,2,2h27.6c1.1,0,2-0.9,2-2v-44C40.3,1.4,39.4,0.5,38.3,0.5z
		"/>
	
		<rect x="7.1" y="10.3" transform="matrix(-1.836970e-16 1 -1 -1.836970e-16 48.131 -0.8691)" fill="#84DBFF" width="34.9" height="26.6"/>
	<path fill="#334A5E" d="M26.7,43.6h-4.9c-0.6,0-1.1,0.5-1.1,1.1s0.5,1.1,1.1,1.1h4.9c0.6,0,1.1-0.5,1.1-1.1S27.3,43.6,26.7,43.6z"
		/>
	<path fill="#334A5E" d="M28.5,2.9h-8c-0.3,0-0.5,0.2-0.5,0.5c0,0.3,0.2,0.5,0.5,0.5h8c0.3,0,0.5-0.2,0.5-0.5
		C29,3.1,28.8,2.9,28.5,2.9z"/>
	<path fill="#FFFFFF" d="M29.6,25.7l-1.2,1.2c-0.3,0.3-0.8,0.3-1.1,0l-6.1-6.1c-0.3-0.3-0.3-0.8,0-1.1l1.2-1.2
		c0.3-0.3,0.3-0.8,0-1.1L20,15c-0.3-0.3-0.8-0.3-1.1,0l-2.4,2.4c-1.1,1.1-1.2,2.8-0.2,4.1c3.8,4.8,5.6,6.7,10.5,10.5
		c1.2,1,3,0.9,4.1-0.2l2.4-2.4c0.3-0.3,0.3-0.8,0-1.1l-2.5-2.5C30.4,25.4,29.9,25.4,29.6,25.7z"/>
</g>
</svg>
