<?xml version="1.0" encoding="utf-8"?>
<!-- Generator: Adobe Illustrator 18.0.0, SVG Export Plug-In . SVG Version: 6.00 Build 0)  -->
<!DOCTYPE svg PUBLIC "-//W3C//DTD SVG 1.1//EN" "http://www.w3.org/Graphics/SVG/1.1/DTD/svg11.dtd">
<svg version="1.1" id="Layer_1" xmlns="http://www.w3.org/2000/svg" xmlns:xlink="http://www.w3.org/1999/xlink" x="0px" y="0px"
	 viewBox="0 0 512 512" enable-background="new 0 0 512 512" xml:space="preserve">
<g>
	<path fill="#334A5E" d="M462.4,133.9H49.6c-9.7,0-17.4,7.8-17.4,17.4v307.3h158.5c0,5.4,4.4,9.7,9.7,9.7h111.3
		c5.4,0,9.7-4.4,9.7-9.7h158.5V151.4C479.8,141.7,472,133.9,462.4,133.9z"/>
	<rect x="66" y="167.8" fill="#FFFFFF" width="379.9" height="258.7"/>
	<path fill="#40596B" d="M321.4,458.6c0,5.4-4.4,9.7-9.7,9.7H200.4c-5.4,0-9.7-4.4-9.7-9.7H2v20.3C2,496.1,15.9,510,33.1,510h445.9
		c17.2,0,31.1-13.9,31.1-31.1v-20.3H321.4z"/>
	<g>
		<polygon fill="#F2F2F2" points="103.7,170.2 2.1,170.2 52.9,102 134.1,102 		"/>
		<polygon fill="#FF7058" points="205.2,170.2 103.7,170.2 134.1,102 215.4,102 		"/>
		<polygon fill="#F2F2F2" points="306.8,170.2 205.2,170.2 215.4,102 296.6,102 		"/>
		<polygon fill="#FF7058" points="408.4,170.2 306.8,170.2 296.6,102 377.9,102 		"/>
		<polygon fill="#F2F2F2" points="509.9,170.2 408.4,170.2 377.9,102 459.2,102 		"/>
	</g>
	<g>
		<g>
			<path fill="#F1543F" d="M103.7,186.7c0,28,22.7,50.8,50.8,50.8s50.8-22.7,50.8-50.8v-16.5H103.7V186.7z"/>
			<path fill="#F1543F" d="M306.8,170.2v16.5c0,28,22.7,50.8,50.8,50.8s50.8-22.7,50.8-50.8v-16.5H306.8z"/>
		</g>
		<g>
			<path fill="#CDD6E0" d="M2.1,186.7c0,28,22.7,50.8,50.8,50.8c28,0,50.8-22.7,50.8-50.8v-16.5H2.1V186.7z"/>
			<path fill="#CDD6E0" d="M205.2,186.7c0,28,22.7,50.8,50.8,50.8h0c28,0,50.8-22.7,50.8-50.8v-16.5H205.2V186.7z"/>
			<path fill="#CDD6E0" d="M408.4,170.2v16.5c0,28,22.7,50.8,50.8,50.8c28,0,50.8-22.7,50.8-50.8v-16.5H408.4z"/>
		</g>
	</g>
	<rect x="52.9" y="2" fill="#FFD15C" width="401.4" height="100"/>
	<path fill="#FFFFFF" d="M79,52.2c0-3.7,0.6-6.9,1.7-9.4c0.8-1.9,2-3.6,3.4-5c1.4-1.5,3-2.6,4.7-3.3c2.3-1,4.9-1.5,7.9-1.5
		c5.4,0,9.7,1.7,13,5c3.3,3.4,4.9,8,4.9,14c0,5.9-1.6,10.6-4.8,13.9c-3.2,3.4-7.5,5-12.9,5c-5.5,0-9.8-1.7-13-5
		C80.6,62.7,79,58.1,79,52.2z M86.7,52c0,4.2,1,7.3,2.9,9.5c1.9,2.1,4.4,3.2,7.3,3.2c3,0,5.4-1.1,7.3-3.2c1.9-2.1,2.8-5.3,2.8-9.6
		c0-4.2-0.9-7.4-2.8-9.4c-1.8-2.1-4.3-3.1-7.4-3.1c-3.1,0-5.5,1-7.4,3.1C87.6,44.6,86.7,47.7,86.7,52z"/>
	<path fill="#FFFFFF" d="M120.5,70.4V33.6h7.2l15,24.5V33.6h6.9v36.7h-7.4l-14.8-24v24H120.5z"/>
	<path fill="#FFFFFF" d="M157.7,70.4V33.9h7.4v30.3h18.4v6.2H157.7z"/>
	<path fill="#FFFFFF" d="M188.7,70.4V33.6h7.4v36.7H188.7z"/>
	<path fill="#FFFFFF" d="M203.2,70.4V33.6h7.2l15,24.5V33.6h6.9v36.7h-7.4l-14.8-24v24H203.2z"/>
	<path fill="#FFFFFF" d="M240.2,70.4V33.6h27.2v6.2h-19.8V48h18.5v6.2h-18.5v10h20.5v6.2H240.2z"/>
	<path fill="#FFFFFF" d="M286.9,58.4l7.2-0.7c0.4,2.4,1.3,4.2,2.6,5.3c1.3,1.1,3.1,1.7,5.4,1.7c2.4,0,4.2-0.5,5.4-1.5
		c1.2-1,1.8-2.2,1.8-3.5c0-0.9-0.3-1.6-0.8-2.2c-0.5-0.6-1.4-1.1-2.7-1.6c-0.9-0.3-2.8-0.8-5.9-1.6c-4-1-6.8-2.2-8.4-3.6
		c-2.3-2-3.4-4.5-3.4-7.4c0-1.9,0.5-3.6,1.6-5.3c1.1-1.6,2.6-2.9,4.6-3.7c2-0.9,4.4-1.3,7.2-1.3c4.6,0,8.1,1,10.4,3
		c2.3,2,3.6,4.7,3.7,8.1l-7.4,0.3c-0.3-1.9-1-3.2-2-4.1c-1-0.8-2.6-1.2-4.7-1.2c-2.2,0-3.8,0.4-5.1,1.3c-0.8,0.6-1.2,1.3-1.2,2.3
		c0,0.9,0.4,1.6,1.1,2.2c0.9,0.8,3.2,1.6,6.8,2.5c3.6,0.9,6.3,1.7,8,2.6c1.7,0.9,3.1,2.2,4.1,3.7c1,1.6,1.5,3.5,1.5,5.9
		c0,2.1-0.6,4.1-1.8,5.9c-1.2,1.8-2.8,3.2-5,4.1c-2.1,0.9-4.8,1.3-8,1.3c-4.6,0-8.2-1.1-10.7-3.2C288.8,65.6,287.3,62.5,286.9,58.4z
		"/>
	<path fill="#FFFFFF" d="M323,70.4V33.6h7.4v14.5H345V33.6h7.4v36.7H345V54.3h-14.5v16.1H323z"/>
	<path fill="#FFFFFF" d="M358.6,52.2c0-3.7,0.6-6.9,1.7-9.4c0.8-1.9,2-3.6,3.4-5c1.4-1.5,3-2.6,4.7-3.3c2.3-1,4.9-1.5,7.9-1.5
		c5.4,0,9.7,1.7,13,5c3.3,3.4,4.9,8,4.9,14c0,5.9-1.6,10.6-4.8,13.9c-3.2,3.4-7.5,5-12.9,5c-5.5,0-9.8-1.7-13-5
		C360.2,62.7,358.6,58.1,358.6,52.2z M366.2,52c0,4.2,1,7.3,2.9,9.5s4.4,3.2,7.3,3.2c3,0,5.4-1.1,7.3-3.2c1.9-2.1,2.8-5.3,2.8-9.6
		c0-4.2-0.9-7.4-2.8-9.4c-1.8-2.1-4.3-3.1-7.4-3.1c-3.1,0-5.5,1-7.4,3.1C367.1,44.6,366.2,47.7,366.2,52z"/>
	<path fill="#FFFFFF" d="M400,70.4V33.6h11.9c4.5,0,7.5,0.2,8.8,0.6c2.1,0.6,3.9,1.8,5.3,3.6c1.4,1.8,2.1,4.2,2.1,7.2
		c0,2.3-0.4,4.2-1.2,5.7c-0.8,1.5-1.9,2.7-3.1,3.6c-1.3,0.9-2.5,1.5-3.8,1.7c-1.8,0.4-4.3,0.5-7.7,0.5h-4.8v13.9H400z M407.4,39.8
		v10.4h4.1c2.9,0,4.9-0.2,5.9-0.6c1-0.4,1.8-1,2.3-1.8c0.6-0.8,0.8-1.8,0.8-2.9c0-1.3-0.4-2.4-1.2-3.3c-0.8-0.9-1.8-1.4-3-1.6
		c-0.9-0.2-2.7-0.3-5.3-0.3H407.4z"/>
	<path fill="#84DBFF" d="M315,293.6L315,293.6c-4.9-1.4-8.2-6-7.6-11.1l0,0c0.7-6.9-5.4-12.6-12.2-11.3c-5,0.9-10-1.9-11.7-6.7l0,0
		c-2.3-6.5-10.3-9-15.9-4.9l0,0c-4.1,3-9.8,2.6-13.4-1l0,0c-4.9-4.9-13.2-3.6-16.4,2.5l0,0c-2.4,4.5-7.7,6.6-12.5,4.9l0,0
		c-6.6-2.2-13.4,2.5-13.7,9.4l0,0c-0.2,5.1-4.1,9.3-9.1,9.9l0,0c-6.9,0.8-11,8.1-8.3,14.4l0,0c2,4.7,0.3,10.1-3.9,12.9l0,0
		c-5.9,3.7-6.5,12.1-1.2,16.6l0,0c3.8,3.3,4.7,9,2,13.3l0,0c-3.6,5.9-0.6,13.6,6.1,15.5l0,0c4.9,1.3,8.1,6,7.6,11.1l0,0
		c-0.7,6.9,5.4,12.6,12.2,11.3c5-0.9,10,1.9,11.7,6.7l0,0c2.3,6.5,10.3,9,15.9,4.9l0,0c4.1-3,9.8-2.6,13.4,1l0,0
		c4.9,4.9,13.2,3.6,16.4-2.5l0,0c2.4-4.5,7.7-6.6,12.5-4.9l0,0c6.6,2.2,13.4-2.5,13.7-9.4l0,0c0.2-5.1,4.1-9.3,9.1-9.9l0,0
		c6.9-0.8,11-8.1,8.3-14.4l0,0c-2-4.7-0.3-10.1,3.9-12.9l0,0c5.9-3.7,6.5-12.1,1.2-16.6l0,0c-3.8-3.3-4.7-9-2-13.3l0,0
		C324.8,303.1,321.7,295.4,315,293.6z"/>
	<g>
		<path fill="#FFFFFF" d="M212.8,352.2l6.4-3.3c0.8,1.4,1.8,2.4,3.1,2.9c1.3,0.5,2.5,0.5,3.7,0c1.4-0.5,2.3-1.6,2.9-3.1
			c0.5-1.5,0.3-3.4-0.6-5.7c-0.8-2.1-2-3.5-3.3-4.2c-1.4-0.7-2.8-0.7-4.4-0.1c-1.9,0.8-3.3,2.3-4.1,4.6l-5.7,1.4l-3.7-19.4l17.6-7
			l2.5,6.2l-12.6,5l1.3,6.3c1.2-1.3,2.6-2.3,4.1-2.9c3-1.2,5.9-1.1,8.8,0.3c2.9,1.3,5,3.7,6.4,7.2c1.1,2.9,1.3,5.7,0.5,8.6
			c-1.1,4-3.6,6.7-7.6,8.3c-3.2,1.3-6.2,1.4-8.9,0.5C216.4,356.8,214.3,354.9,212.8,352.2z"/>
		<path fill="#FFFFFF" d="M240.7,311.1c3.4-1.3,6.5-1.2,9.3,0.5c3.4,2,6.4,6.2,9,12.8c2.6,6.6,3.3,11.8,2.2,15.5
			c-0.9,3.1-3.1,5.3-6.5,6.7c-3.4,1.3-6.6,1.1-9.7-0.7c-3.1-1.8-6-6-8.6-12.7c-2.6-6.5-3.3-11.7-2.2-15.5
			C235.2,314.7,237.3,312.5,240.7,311.1z M242.9,316.7c-0.8,0.3-1.4,0.9-1.9,1.6c-0.4,0.8-0.6,1.9-0.4,3.3c0.2,1.9,1.1,4.9,2.8,9
			c1.6,4.1,2.9,6.8,3.9,8.2c1,1.4,1.9,2.2,2.8,2.4c0.8,0.3,1.6,0.2,2.4-0.1c0.8-0.3,1.4-0.9,1.9-1.6c0.4-0.8,0.6-1.9,0.4-3.3
			c-0.2-1.9-1.1-4.9-2.7-9c-1.6-4.1-2.9-6.8-3.9-8.2c-1-1.4-1.9-2.2-2.8-2.4C244.5,316.3,243.7,316.3,242.9,316.7z"/>
		<path fill="#FFFFFF" d="M260,313.6c-1.2-3.1-1.5-5.7-0.7-7.7c0.8-2,2.3-3.5,4.7-4.5c2.4-1,4.6-1,6.6,0c2,1,3.6,3,4.8,6.1
			c1.2,3.1,1.5,5.7,0.7,7.7c-0.8,2-2.3,3.5-4.7,4.5c-2.4,1-4.6,1-6.6,0C262.8,318.8,261.2,316.7,260,313.6z M265.1,311.5
			c0.9,2.3,1.8,3.7,2.6,4.2c0.6,0.4,1.3,0.5,2,0.2c0.7-0.3,1.2-0.8,1.3-1.5c0.2-1-0.1-2.6-1-4.9c-0.9-2.3-1.7-3.7-2.5-4.2
			c-0.6-0.4-1.3-0.5-2-0.2c-0.7,0.3-1.1,0.8-1.3,1.5C263.9,307.6,264.2,309.3,265.1,311.5z M283.5,336.1l-4.9,1.9l4-44l4.8-1.9
			L283.5,336.1z M290.7,322.7c-1.2-3.1-1.5-5.7-0.7-7.7c0.8-2,2.3-3.5,4.7-4.5c2.4-0.9,4.6-0.9,6.5,0c2,1,3.6,3,4.8,6.1
			c1.2,3.1,1.5,5.7,0.7,7.8c-0.8,2-2.3,3.5-4.7,4.5c-2.4,1-4.6,1-6.6,0C293.5,327.9,291.9,325.9,290.7,322.7z M295.9,320.7
			c0.9,2.3,1.8,3.7,2.6,4.2c0.6,0.4,1.3,0.5,2,0.2c0.7-0.3,1.1-0.8,1.3-1.5c0.2-1-0.1-2.6-1-4.9c-0.9-2.3-1.7-3.7-2.6-4.3
			c-0.6-0.4-1.3-0.5-2-0.2c-0.7,0.3-1.1,0.8-1.3,1.5C294.6,316.8,295,318.4,295.9,320.7z"/>
	</g>
</g>
</svg>
