<?xml version="1.0" encoding="utf-8"?>
<!-- Generator: Adobe Illustrator 18.0.0, SVG Export Plug-In . SVG Version: 6.00 Build 0)  -->
<!DOCTYPE svg PUBLIC "-//W3C//DTD SVG 1.1//EN" "http://www.w3.org/Graphics/SVG/1.1/DTD/svg11.dtd">
<svg version="1.1" id="Layer_1" xmlns="http://www.w3.org/2000/svg" xmlns:xlink="http://www.w3.org/1999/xlink" x="0px" y="0px"
	 viewBox="0 0 48 48" enable-background="new 0 0 48 48" xml:space="preserve">
<g>
	<path fill="#344A5E" d="M43,41.7H5l0,0c3.6-5.4,5.6-11.8,5.6-18.4v-9.7c0-7.4,6-13.4,13.4-13.4h0c7.4,0,13.4,6,13.4,13.4v9.7
		C37.4,29.8,39.3,36.2,43,41.7L43,41.7z"/>
	<path fill="#66C6B9" d="M19.7,48L15,33.5l-6.7,2.3C4,37.3,1.1,41.4,1.1,46v2H19.7z"/>
	<path fill="#66C6B9" d="M46.9,48v-2c0-4.6-2.9-8.7-7.2-10.2L33,33.5L28.3,48H46.9z"/>
	<polygon fill="#CED6E0" points="28.3,48 32.4,35 17.2,35 19.7,48 	"/>
	<polygon fill="#F7B64C" points="30.6,24.2 24,19 17.4,24.2 17.4,29.8 24,35 30.6,29.8 	"/>
	<path fill="#FFD15C" d="M33.9,15.7c0,8.6-4.4,15.6-9.9,15.6s-9.9-7-9.9-15.6c0-0.3,0-2.1,0-2.4v0c0.5-0.1,9.3-1,12-5.2
		c2.4,2,4.1,3,7.6,3.6c0.1,0.5,0.1,2.6,0.1,3.2C33.9,15.1,33.9,15.4,33.9,15.7z"/>
	<path fill="#E8EAE9" d="M36.5,20.5c-0.3,0-0.6,0.2-0.7,0.6c-0.2,2.8-2.4,5-5.2,5.2l-4.7,0.4V28l4.8-0.4c3.4-0.3,6.1-3,6.3-6.4
		C37.1,20.8,36.9,20.5,36.5,20.5z"/>
	<g>
		<polygon fill="#F3F3F3" points="30.6,29.8 24,35 29.5,41.4 32.4,33.8 		"/>
		<polygon fill="#4EC0AA" points="32.1,48 35.5,40.2 32.4,37.5 37.3,37 31.3,31.3 27.3,48 		"/>
	</g>
	<g>
		<g>
			<path fill="#F3705A" d="M11.7,17.6c-1-4.3,0.2-8.8,3.3-11.9C17.5,3.3,20.6,2,24,2s6.5,1.3,8.9,3.7c3.2,3.2,4.4,7.7,3.3,11.9h2.1
				c1-4.8-0.4-9.8-4-13.4C31.6,1.5,27.9,0,24,0s-7.6,1.5-10.3,4.3c-3.5,3.5-5,8.6-4,13.4H11.7z"/>
		</g>
	</g>
	<g>
		<g>
			<g>
				<g>
					<path fill="#F3705A" d="M34.7,22.6c2.1,0.3,4-1,4.4-3.1c0.3-2.1-1-4-3.1-4.4L34.7,22.6z"/>
				</g>
			</g>
		</g>
		<g>
			<g>
				<g>
					<path fill="#E8EAE9" d="M33.5,23.5c0.6,0.1,1.2-0.3,1.3-0.9l1.3-7.5c0.1-0.6-0.3-1.2-0.9-1.3c-0.6-0.1-1.2,0.3-1.3,0.9
						l-1.3,7.5C32.4,22.8,32.8,23.4,33.5,23.5z"/>
				</g>
			</g>
		</g>
	</g>
	<g>
		<g>
			<g>
				<g>
					<path fill="#F3705A" d="M13.3,22.6c-2.1,0.3-4-1-4.4-3.1c-0.3-2.1,1-4,3.1-4.4L13.3,22.6z"/>
				</g>
			</g>
		</g>
		<g>
			<g>
				<g>
					<path fill="#E8EAE9" d="M14.5,23.5c-0.6,0.1-1.2-0.3-1.3-0.9l-1.3-7.5c-0.1-0.6,0.3-1.2,0.9-1.3c0.6-0.1,1.2,0.3,1.3,0.9
						l1.3,7.5C15.6,22.8,15.2,23.4,14.5,23.5z"/>
				</g>
			</g>
		</g>
	</g>
	<g>
		<g>
			<ellipse fill="#344A5E" cx="24.7" cy="27.4" rx="1.8" ry="1.5"/>
		</g>
	</g>
	<g>
		<polygon fill="#F3F3F3" points="17.4,29.8 24,35 18.5,41.4 15.6,33.8 		"/>
		<polygon fill="#4EC0AA" points="15.9,48 12.5,40.2 15.6,37.5 10.7,37 16.7,31.3 20.7,48 		"/>
	</g>
</g>
</svg>
