<?xml version="1.0" encoding="utf-8"?>
<!-- Generator: Adobe Illustrator 18.0.0, SVG Export Plug-In . SVG Version: 6.00 Build 0)  -->
<!DOCTYPE svg PUBLIC "-//W3C//DTD SVG 1.1//EN" "http://www.w3.org/Graphics/SVG/1.1/DTD/svg11.dtd">
<svg version="1.1" id="Layer_1" xmlns="http://www.w3.org/2000/svg" xmlns:xlink="http://www.w3.org/1999/xlink" x="0px" y="0px"
	 viewBox="0 0 48 48" enable-background="new 0 0 48 48" xml:space="preserve">
<g>
	<g>
		<g>
			<path fill="#CDD6E0" d="M47.4,26.1c-0.4,0.4-0.9,0.6-1.5,0.6c-1.2,0-2.1-1-2.1-2.1c0-11.2-9.1-20.3-20.3-20.3
				c-1.2,0-2.1-1-2.1-2.1c0-1.2,1-2.1,2.1-2.1C30,0,36.1,2.6,40.8,7.2C45.4,11.9,48,18,48,24.6C48,25.2,47.8,25.7,47.4,26.1z"/>
		</g>
		<g>
			<path fill="#CDD6E0" d="M40,26.1c-0.4,0.4-0.9,0.6-1.5,0.6c-1.2,0-2.1-1-2.1-2.1c0-7.2-5.8-13-13-13c-1.2,0-2.1-1-2.1-2.1
				s1-2.1,2.1-2.1c9.5,0,17.2,7.7,17.2,17.2C40.6,25.2,40.4,25.7,40,26.1z"/>
		</g>
		<g>
			<path fill="#CDD6E0" d="M32.6,26.1c-0.4,0.4-0.9,0.6-1.5,0.6c-1.2,0-2.1-1-2.1-2.1c0-3.1-2.5-5.6-5.6-5.6c-1.2,0-2.1-1-2.1-2.1
				c0-1.2,1-2.1,2.1-2.1c5.4,0,9.9,4.4,9.9,9.9C33.3,25.2,33,25.7,32.6,26.1z"/>
		</g>
	</g>
	<path fill="#40596B" d="M3.7,8.2c2.1-1.6,5-1.7,7,0c2.2,1.8,3.6,4.6,3.6,4.6c1.4,3.6-3.1,6.9-3.1,6.9c-2.2,2.7,6.3,10.8,6.3,10.8
		s8.1,8.4,10.8,6.3c0,0,3.3-4.5,6.9-3.1c0,0,2.8,1.4,4.6,3.6c1.7,2,1.6,5,0,7c-0.7,0.9-1.6,1.8-3,2.9c0,0-2.5,2.4-11.1-1.4
		c0,0-6.1-2.4-13.7-9.9c-7.5-7.6-9.9-13.7-9.9-13.7c-3.7-8.6-1.4-11.1-1.4-11.1C1.8,9.9,2.8,8.9,3.7,8.2z"/>
	<path fill="#ACB3BA" d="M13.1,17.9c1-1.3,1.9-3.1,1.2-5c0,0-1.4-2.8-3.6-4.6c-2-1.7-5-1.6-7,0c0,0-0.1,0.1-0.1,0.1L13.1,17.9z"/>
	<path fill="#ACB3BA" d="M30.1,34.9l9.5,9.5c0,0,0.1-0.1,0.1-0.1c1.6-2,1.7-5,0-7c-1.8-2.2-4.6-3.6-4.6-3.6
		C33.3,33,31.4,33.9,30.1,34.9z"/>
</g>
</svg>
