<?xml version="1.0" encoding="utf-8"?>
<!-- Generator: Adobe Illustrator 19.0.1, SVG Export Plug-In . SVG Version: 6.00 Build 0)  -->
<svg version="1.1" id="Layer_1" xmlns="http://www.w3.org/2000/svg" xmlns:xlink="http://www.w3.org/1999/xlink" x="0px" y="0px"
	 viewBox="0 0 48 48" style="enable-background:new 0 0 48 48;" xml:space="preserve">
<style type="text/css">
	.st0{fill:#66C6B9;}
	.st1{fill:#F3F3F3;}
	.st2{fill:#415A6B;}
	.st3{fill:#CED6E0;}
	.st4{fill:#F3705A;}
	.st5{fill:#E8EAE9;}
	.st6{fill:#4ABAA5;}
	.st7{fill:#F05540;}
	.st8{fill:#FFD15C;}
	.st9{fill:#55C0EB;}
	.st10{fill:#8AD7F8;}
	.st11{fill:#344A5E;}
	.st12{fill:#FFFFFF;}
	.st13{fill:#F7B64C;}
	.st14{fill:#ADB3BA;}
	.st15{fill:#38A892;}
	.st16{fill:#ED9845;}
	.st17{fill:#2D4251;}
	.st18{fill:#304556;}
	.st19{fill:#A5AAAD;}
	.st20{fill:#2D4456;}
	.st21{fill:#4FB0E0;}
	.st22{fill:#2D4354;}
	.st23{fill:#E54C38;}
	.st24{fill:#2B4456;}
	.st25{fill:#2B404F;}
</style>
<g>
	<g>
		<g>
			<g>
				<g>
					<g>
						<g>
							<g>
								<path class="st2" d="M12.4,10.2L3.6,1.4C3,0.9,2,0.9,1.4,1.4S0.9,3,1.4,3.6l8.9,8.9C10.7,12.2,11.9,10.7,12.4,10.2z"/>
							</g>
						</g>
					</g>
					<g>
						<g>
							<g>
								<path class="st5" d="M14.6,2.5L2.5,14.6c-3.3-3.3-3.3-8.8,0-12.1C5.8-0.8,11.3-0.8,14.6,2.5z"/>
							</g>
						</g>
					</g>
				</g>
				<g>
					<g>
						<g>
							<g>
								<path class="st2" d="M35.6,10.2l8.8-8.8c0.6-0.6,1.5-0.6,2.1,0c0.6,0.6,0.6,1.5,0,2.1l-8.9,8.9
									C37.3,12.2,36.1,10.7,35.6,10.2z"/>
							</g>
						</g>
					</g>
					<g>
						<g>
							<g>
								<path class="st5" d="M33.4,2.5l12.1,12.1c3.3-3.3,3.3-8.8,0-12.1C42.2-0.8,36.7-0.8,33.4,2.5z"/>
							</g>
						</g>
					</g>
				</g>
			</g>
		</g>
		<g>
			<g>
				<g>
					<path class="st2" d="M18,31.2L18,31.2c-1.5-0.6-3.2,0.1-3.8,1.6L9.7,44c-0.6,1.5,0.1,3.2,1.6,3.8h0c1.5,0.6,3.2-0.1,3.8-1.6
						L19.6,35C20.2,33.6,19.5,31.9,18,31.2z"/>
				</g>
			</g>
			<g>
				<g>
					<path class="st2" d="M30,31.2L30,31.2c1.5-0.6,3.2,0.1,3.8,1.6L38.3,44c0.6,1.5-0.1,3.2-1.6,3.8h0c-1.5,0.6-3.2-0.1-3.8-1.6
						L28.4,35C27.8,33.6,28.5,31.9,30,31.2z"/>
				</g>
			</g>
		</g>
		<g>
			<g>
				<g>
					<circle class="st4" cx="24" cy="24.8" r="20.8"/>
				</g>
			</g>
			<g>
				<g>
					<circle class="st1" cx="24" cy="24.8" r="15.8"/>
				</g>
			</g>
			<g>
				<g>
					<path class="st0" d="M29.2,31.4c-0.4,0-0.8-0.1-1.1-0.4l-5.2-5.2c-0.3-0.3-0.4-0.7-0.4-1.1v-9.4c0-0.8,0.7-1.5,1.5-1.5
						s1.5,0.7,1.5,1.5v8.7l4.7,4.7c0.6,0.6,0.6,1.5,0,2.1C29.9,31.3,29.5,31.4,29.2,31.4z"/>
				</g>
			</g>
			<g>
				<g>
					<circle class="st2" cx="24" cy="24.8" r="3.7"/>
				</g>
			</g>
		</g>
	</g>
</g>
</svg>
