<?xml version="1.0" encoding="utf-8"?>
<!-- Generator: Adobe Illustrator 18.0.0, SVG Export Plug-In . SVG Version: 6.00 Build 0)  -->
<!DOCTYPE svg PUBLIC "-//W3C//DTD SVG 1.1//EN" "http://www.w3.org/Graphics/SVG/1.1/DTD/svg11.dtd">
<svg version="1.1" id="Layer_1" xmlns="http://www.w3.org/2000/svg" xmlns:xlink="http://www.w3.org/1999/xlink" x="0px" y="0px"
	 viewBox="0 0 48 48" enable-background="new 0 0 48 48" xml:space="preserve">
<g>
	<path fill="#CDD6E0" d="M12.8,4.6H38c1.1,0,2,0.9,2,2V46c0,1.1-0.9,2-2,2H6.7c-1.1,0-2-0.9-2-2V12.7L12.8,4.6z"/>
	<path fill="#F2F2F2" d="M0.1,41.4V10.9L11,0h22.4c1.1,0,2,0.9,2,2v39.4c0,1.1-0.9,2-2,2H2.1C1,43.4,0.1,42.5,0.1,41.4z"/>
	<path fill="#CDD6E0" d="M11,8.9c0,1.1-0.9,2-2,2H0.1L11,0V8.9z"/>
	<rect x="15.5" y="8.6" fill="#FFD05C" width="13.8" height="2.5"/>
	<rect x="6.3" y="31.4" fill="#ACB3BA" width="9.8" height="2.5"/>
	<rect x="6.3" y="23.8" fill="#ACB3BA" width="22.9" height="2.5"/>
	<rect x="6.3" y="16.2" fill="#ACB3BA" width="22.9" height="2.5"/>
	<g>
		<polygon fill="#FFD15C" points="22.8,35.7 20.2,42.1 26.6,39.5 		"/>
		<polygon fill="#334A5E" points="21.4,39 20.2,42.1 23.3,40.9 		"/>
		
			<rect x="30.1" y="18" transform="matrix(-0.7071 -0.7071 0.7071 -0.7071 35.2026 73.5441)" fill="#FF7058" width="5.5" height="23"/>
		<path fill="#40596B" d="M46.2,15l1,1c0.8,0.8,0.8,2,0,2.8l-2.7,2.7l-3.9-3.9l2.7-2.7C44.2,14.3,45.5,14.3,46.2,15z"/>
		
			<rect x="39.1" y="19.3" transform="matrix(-0.7071 -0.7071 0.7071 -0.7071 56.7974 64.598)" fill="#F2F2F2" width="5.4" height="2.4"/>
	</g>
</g>
</svg>
