<?xml version="1.0" encoding="utf-8"?>
<!-- Generator: Adobe Illustrator 18.0.0, SVG Export Plug-In . SVG Version: 6.00 Build 0)  -->
<!DOCTYPE svg PUBLIC "-//W3C//DTD SVG 1.1//EN" "http://www.w3.org/Graphics/SVG/1.1/DTD/svg11.dtd">
<svg version="1.1" id="Layer_1" xmlns="http://www.w3.org/2000/svg" xmlns:xlink="http://www.w3.org/1999/xlink" x="0px" y="0px"
	 viewBox="0 0 48 48" enable-background="new 0 0 48 48" xml:space="preserve">
<g>
	<path fill="#CDD6E0" d="M35.2,48l-29.7-5c-1.1-0.2-1.8-1.2-1.6-2.3l6.6-39c0.2-1.1,1.2-1.8,2.3-1.6l29.7,5c1.1,0.2,1.8,1.2,1.6,2.3
		l-6.6,39C37.3,47.4,36.3,48.2,35.2,48z"/>
	<path fill="#F2F2F2" d="M39,2.2H9c-1.1,0-2,0.9-2,2v39.5c0,1.1,0.9,2,2,2H39c1.1,0,2-0.9,2-2V4.2C41,3.1,40.1,2.2,39,2.2z"/>
	<rect x="11" y="6.2" fill="#84DBFF" width="13.7" height="15.8"/>
	<rect x="8.7" y="32.4" fill="#ACB3BA" width="30.6" height="2"/>
	<rect x="8.7" y="26.2" fill="#ACB3BA" width="30.6" height="2"/>
	<rect x="8.7" y="38.5" fill="#ACB3BA" width="13.9" height="2"/>
	<rect x="27.4" y="20" fill="#F8B64C" width="11.8" height="2"/>
	<rect x="27.4" y="13.8" fill="#FFD15C" width="11.8" height="2"/>
	<circle fill="#F1543F" cx="33.1" cy="39.9" r="4"/>
	<circle fill="#F2F2F2" cx="33.1" cy="39.9" r="3.2"/>
	<circle fill="#FF7058" cx="33.1" cy="39.9" r="2.5"/>
	<g>
		<path fill="#40596B" d="M15.2,12.4c0.8,2.9,2.7,3.1,2.7,3.1s1.9-0.2,2.7-3.1c0,0,0.4-0.3,0.1-1.6c0,0-0.2-2.5-2.7-2.5
			s-2.7,2.5-2.7,2.5C14.7,12,15.2,12.4,15.2,12.4z"/>
		<path fill="#40596B" d="M22.2,16.2l-2-0.7l-0.3-0.1c-1,0.9-1.9,1.1-2,1.1l-0.1,0l-0.1,0c-0.1,0-1-0.1-2-1.1l-0.3,0.1l-2,0.7
			c-1,0.4-1.7,1.3-1.7,2.4l0,1.4h12.2v-1.4C23.9,17.6,23.2,16.6,22.2,16.2z"/>
	</g>
</g>
</svg>
