<?xml version="1.0" encoding="utf-8"?>
<!-- Generator: Adobe Illustrator 18.0.0, SVG Export Plug-In . SVG Version: 6.00 Build 0)  -->
<!DOCTYPE svg PUBLIC "-//W3C//DTD SVG 1.1//EN" "http://www.w3.org/Graphics/SVG/1.1/DTD/svg11.dtd">
<svg version="1.1" id="Layer_1" xmlns="http://www.w3.org/2000/svg" xmlns:xlink="http://www.w3.org/1999/xlink" x="0px" y="0px"
	 viewBox="0 0 48 48" enable-background="new 0 0 48 48" xml:space="preserve">
<g>
	<path fill="#FF7058" d="M45.7,33c0,0-4.8,3.8-7.5,5c0,0-5.9,3.2-11.5,3.4H18c0,0-1.6-0.3-3.7,1.1c-0.3,0.2-0.5,0.3-0.8,0.6
		c-0.4,0.3-0.9,0.7-1.3,1.2l-7-10.2c0,0,0.6-0.4,1.4-1.1c0.2-0.2,0.5-0.4,0.7-0.7c0.6-0.5,1.2-1.2,1.8-1.9c0,0,3.7-4.8,12-1.9
		c5.8,2,6.5,2.1,6.5,2.1s3.5,0.4,6.9,0.4c0,0,2.8,0,2.7,2.1c0,0.7-0.4,1.3-0.9,1.8c-0.7,0.6-2,1.3-4.4,1.6c-1,0.1-2.1,0.1-3.1,0
		c-2.6-0.2-5.7-0.7-6.3-0.3c0,0-0.8,0.6,2.3,1c0,0,2.3,0.3,6.4,0.4c0,0,7.4-0.3,7.1-5.5c0,0,2.6-1.6,4.1-2.2c0,0,4.2-2.5,5.2-0.9
		C47.7,28.9,48.9,30.6,45.7,33z"/>
	<path fill="#FFFFFF" d="M36.1,32.4C35.7,32.1,35,32,34.6,32l-0.5,0c-0.4,0-0.7,0-1.1,0v3.3c1.4-0.3,2.2-0.8,2.7-1.1
		c0.3-0.3,0.5-0.7,0.6-1.1C36.2,32.7,36.1,32.5,36.1,32.4z"/>
	<path fill="#F1543F" d="M14.3,42.4c-0.3,0.2-0.5,0.3-0.8,0.6c-0.4,0.3-0.9,0.7-1.3,1.2l-7-10.2c0,0,0.6-0.4,1.4-1.1
		c0.2-0.2,0.5-0.4,0.7-0.7L14.3,42.4z"/>
	
		<rect x="4.1" y="31.3" transform="matrix(0.8238 -0.5668 0.5668 0.8238 -21.0977 11.0744)" fill="#40596B" width="6.3" height="16.3"/>
	<circle fill="#CDD6E0" cx="10.5" cy="43.9" r="1.4"/>
	<g>
		<g>
			<path fill="#F8B64C" d="M41.1,24.4c0,2.7-4.7,4.9-10.5,4.9c-5.8,0-10.5-2.2-10.5-4.9v-3.3h21.1V24.4z"/>
			<g>
				<ellipse fill="#FFD15C" cx="30.6" cy="21.2" rx="10.5" ry="4.9"/>
				<ellipse fill="#F8B64C" cx="30.6" cy="21.2" rx="8.6" ry="4"/>
				<g>
					<path fill="#FFD15C" d="M30,22.9v-1.5c-1-0.1-1.8-0.3-2.3-0.6c-0.5-0.3-0.7-0.6-0.7-1c0-0.4,0.3-0.7,0.8-1
						c0.5-0.3,1.3-0.4,2.2-0.5v-0.4h1.1v0.4c0.8,0,1.5,0.2,2,0.4c0.5,0.2,0.8,0.5,0.9,0.9l-2,0.1c-0.1-0.3-0.4-0.5-0.9-0.6v1.4
						c1.3,0.2,2.1,0.4,2.6,0.6c0.5,0.3,0.7,0.6,0.7,1c0,0.4-0.3,0.8-0.9,1.1c-0.6,0.3-1.4,0.5-2.4,0.6v0.7H30v-0.7
						c-0.9-0.1-1.7-0.2-2.2-0.5c-0.6-0.3-0.9-0.6-1.1-1.1l2.1-0.1c0.1,0.2,0.2,0.4,0.5,0.5C29.5,22.7,29.7,22.8,30,22.9z M30,19.1
						c-0.3,0-0.6,0.1-0.7,0.2c-0.2,0.1-0.3,0.2-0.3,0.4c0,0.1,0.1,0.2,0.3,0.4c0.2,0.1,0.4,0.2,0.8,0.3V19.1z M31.2,22.9
						c0.4,0,0.7-0.1,1-0.3c0.2-0.1,0.4-0.3,0.4-0.5c0-0.2-0.1-0.3-0.3-0.4c-0.2-0.1-0.5-0.2-1-0.3V22.9z"/>
				</g>
			</g>
		</g>
		<g>
			<path fill="#F8B64C" d="M41.1,20.4c0,2.7-4.7,4.9-10.5,4.9C24.8,25.2,20,23,20,20.4v-3.3h21.1V20.4z"/>
			<g>
				<ellipse fill="#FFD15C" cx="30.6" cy="17.1" rx="10.5" ry="4.9"/>
				<ellipse fill="#F8B64C" cx="30.6" cy="17.1" rx="8.6" ry="4"/>
				<g>
					<path fill="#FFD15C" d="M30,18.8v-1.5c-1-0.1-1.8-0.3-2.3-0.6c-0.5-0.3-0.7-0.6-0.7-1c0-0.4,0.3-0.7,0.8-1
						c0.5-0.3,1.3-0.4,2.2-0.5v-0.4h1.1v0.4c0.8,0,1.5,0.2,2,0.4c0.5,0.2,0.8,0.5,0.9,0.9l-2,0.1c-0.1-0.3-0.4-0.5-0.9-0.6v1.4
						c1.3,0.2,2.1,0.4,2.6,0.6c0.5,0.3,0.7,0.6,0.7,1c0,0.4-0.3,0.8-0.9,1.1c-0.6,0.3-1.4,0.5-2.4,0.6v0.7H30v-0.7
						c-0.9-0.1-1.7-0.2-2.2-0.5c-0.6-0.3-0.9-0.6-1.1-1.1l2.1-0.1c0.1,0.2,0.2,0.4,0.5,0.5C29.5,18.7,29.7,18.8,30,18.8z M30,15
						c-0.3,0-0.6,0.1-0.7,0.2c-0.2,0.1-0.3,0.2-0.3,0.4c0,0.1,0.1,0.2,0.3,0.4c0.2,0.1,0.4,0.2,0.8,0.3V15z M31.2,18.9
						c0.4,0,0.7-0.1,1-0.3c0.2-0.1,0.4-0.3,0.4-0.5c0-0.2-0.1-0.3-0.3-0.4c-0.2-0.1-0.5-0.2-1-0.3V18.9z"/>
				</g>
			</g>
		</g>
		<g>
			<path fill="#F8B64C" d="M41.1,16.3c0,2.7-4.7,4.9-10.5,4.9C24.8,21.1,20,19,20,16.3V13h21.1V16.3z"/>
			<g>
				<ellipse fill="#FFD15C" cx="30.6" cy="13" rx="10.5" ry="4.9"/>
				<ellipse fill="#F8B64C" cx="30.6" cy="13" rx="8.6" ry="4"/>
				<g>
					<path fill="#FFD15C" d="M30,14.7v-1.5c-1-0.1-1.8-0.3-2.3-0.6c-0.5-0.3-0.7-0.6-0.7-1c0-0.4,0.3-0.7,0.8-1
						c0.5-0.3,1.3-0.4,2.2-0.5V9.8h1.1v0.4c0.8,0,1.5,0.2,2,0.4c0.5,0.2,0.8,0.5,0.9,0.9l-2,0.1c-0.1-0.3-0.4-0.5-0.9-0.6v1.4
						c1.3,0.2,2.1,0.4,2.6,0.6c0.5,0.3,0.7,0.6,0.7,1c0,0.4-0.3,0.8-0.9,1.1s-1.4,0.5-2.4,0.6v0.7H30v-0.7c-0.9-0.1-1.7-0.2-2.2-0.5
						c-0.6-0.3-0.9-0.6-1.1-1.1l2.1-0.1c0.1,0.2,0.2,0.4,0.5,0.5C29.5,14.6,29.7,14.7,30,14.7z M30,10.9c-0.3,0-0.6,0.1-0.7,0.2
						c-0.2,0.1-0.3,0.2-0.3,0.4c0,0.1,0.1,0.2,0.3,0.4c0.2,0.1,0.4,0.2,0.8,0.3V10.9z M31.2,14.8c0.4,0,0.7-0.1,1-0.3
						c0.2-0.1,0.4-0.3,0.4-0.5c0-0.2-0.1-0.3-0.3-0.4c-0.2-0.1-0.5-0.2-1-0.3V14.8z"/>
				</g>
			</g>
		</g>
		<g>
			<path fill="#F8B64C" d="M41.1,12.2c0,2.7-4.7,4.9-10.5,4.9c-5.8,0-10.5-2.2-10.5-4.9V9h21.1V12.2z"/>
			<g>
				<ellipse fill="#FFD15C" cx="30.6" cy="9" rx="10.5" ry="4.9"/>
				<ellipse fill="#F8B64C" cx="30.6" cy="9" rx="8.6" ry="4"/>
				<g>
					<path fill="#FFD15C" d="M30,10.7V9.2c-1-0.1-1.8-0.3-2.3-0.6c-0.5-0.3-0.7-0.6-0.7-1c0-0.4,0.3-0.7,0.8-1
						c0.5-0.3,1.3-0.4,2.2-0.5V5.7h1.1v0.4c0.8,0,1.5,0.2,2,0.4C33.7,6.7,34,7,34.1,7.3l-2,0.1C32,7.2,31.7,7,31.2,6.9v1.4
						c1.3,0.2,2.1,0.4,2.6,0.6c0.5,0.3,0.7,0.6,0.7,1c0,0.4-0.3,0.8-0.9,1.1c-0.6,0.3-1.4,0.5-2.4,0.6v0.7H30v-0.7
						c-0.9-0.1-1.7-0.2-2.2-0.5c-0.6-0.3-0.9-0.6-1.1-1.1l2.1-0.1c0.1,0.2,0.2,0.4,0.5,0.5C29.5,10.5,29.7,10.6,30,10.7z M30,6.9
						c-0.3,0-0.6,0.1-0.7,0.2C29.1,7.2,29,7.3,29,7.5c0,0.1,0.1,0.2,0.3,0.4C29.4,8,29.7,8,30,8.1V6.9z M31.2,10.7
						c0.4,0,0.7-0.1,1-0.3c0.2-0.1,0.4-0.3,0.4-0.5c0-0.2-0.1-0.3-0.3-0.4c-0.2-0.1-0.5-0.2-1-0.3V10.7z"/>
				</g>
			</g>
		</g>
		<g>
			<path fill="#F8B64C" d="M41.1,8.1c0,2.7-4.7,4.9-10.5,4.9C24.8,13,20,10.8,20,8.1V4.9h21.1V8.1z"/>
			<g>
				<ellipse fill="#FFD15C" cx="30.6" cy="4.9" rx="10.5" ry="4.9"/>
				<ellipse fill="#F8B64C" cx="30.6" cy="4.9" rx="8.6" ry="4"/>
				<g>
					<path fill="#FFD15C" d="M30,6.6V5.1c-1-0.1-1.8-0.3-2.3-0.6c-0.5-0.3-0.7-0.6-0.7-1c0-0.4,0.3-0.7,0.8-1C28.4,2.2,29.1,2,30,2
						V1.6h1.1V2c0.8,0,1.5,0.2,2,0.4c0.5,0.2,0.8,0.5,0.9,0.9l-2,0.1c-0.1-0.3-0.4-0.5-0.9-0.6v1.4c1.3,0.2,2.1,0.4,2.6,0.6
						c0.5,0.3,0.7,0.6,0.7,1c0,0.4-0.3,0.8-0.9,1.1c-0.6,0.3-1.4,0.5-2.4,0.6v0.7H30V7.5c-0.9-0.1-1.7-0.2-2.2-0.5
						c-0.6-0.3-0.9-0.6-1.1-1.1l2.1-0.1C28.9,6,29,6.2,29.3,6.3C29.5,6.4,29.7,6.5,30,6.6z M30,2.8c-0.3,0-0.6,0.1-0.7,0.2
						C29.1,3.1,29,3.3,29,3.4c0,0.1,0.1,0.2,0.3,0.4C29.4,3.9,29.7,4,30,4V2.8z M31.2,6.7c0.4,0,0.7-0.1,1-0.3
						c0.2-0.1,0.4-0.3,0.4-0.5c0-0.2-0.1-0.3-0.3-0.4c-0.2-0.1-0.5-0.2-1-0.3V6.7z"/>
				</g>
			</g>
		</g>
	</g>
</g>
</svg>
