<?xml version="1.0" encoding="utf-8"?>
<!-- Generator: Adobe Illustrator 18.0.0, SVG Export Plug-In . SVG Version: 6.00 Build 0)  -->
<!DOCTYPE svg PUBLIC "-//W3C//DTD SVG 1.1//EN" "http://www.w3.org/Graphics/SVG/1.1/DTD/svg11.dtd">
<svg version="1.1" id="Layer_1" xmlns="http://www.w3.org/2000/svg" xmlns:xlink="http://www.w3.org/1999/xlink" x="0px" y="0px"
	 viewBox="0 0 48 48" enable-background="new 0 0 48 48" xml:space="preserve">
<g>
	<polygon fill="#FF7058" points="13.6,3.1 8.1,3.1 8.1,3.1 7.6,3.1 7.6,11.3 8.6,11.3 8.6,7.1 13.6,7.1 	"/>
	<polygon fill="#FFD15C" points="8.6,11.3 7.6,11.3 1.7,24.3 14.5,24.3 	"/>
	<polygon fill="#FF7058" points="45.4,3.1 39.9,3.1 39.9,3.1 39.4,3.1 39.4,11.3 40.4,11.3 40.4,7.1 45.4,7.1 	"/>
	<polygon fill="#FFD15C" points="40.4,11.3 39.4,11.3 33.5,24.3 46.3,24.3 	"/>
	<polygon fill="#FFD15C" points="24,0 17.6,14 30.4,14 	"/>
	<rect x="18.4" y="17.1" fill="#4CDBC4" width="11.2" height="14.9"/>
	<polygon fill="#3DC9AE" points="32.1,14.3 15.9,14.3 18.4,17.1 29.6,17.1 	"/>
	<polygon fill="#4CDBC4" points="30,11.5 30,12.9 28.1,12.9 28.1,11.5 25,11.5 25,12.9 23,12.9 23,11.5 19.9,11.5 19.9,12.9 
		18,12.9 18,11.5 15.9,11.5 15.9,14.3 32.1,14.3 32.1,11.5 	"/>
	<rect x="18.4" y="30.4" opacity="0.1" fill="#231F20" width="11.2" height="1.5"/>
	<polygon fill="#4CDBC4" points="37.1,29.9 37.1,31.9 34.8,31.9 34.8,29.9 31.1,29.9 31.1,31.9 16.9,31.9 16.9,29.9 13.2,29.9 
		13.2,31.9 10.9,31.9 10.9,29.9 10,29.9 10,48 38,48 38,29.9 	"/>
	<rect x="10" y="29.9" opacity="0.1" fill="#231F20" width="5.2" height="18.1"/>
	<rect x="32.8" y="29.9" opacity="0.1" fill="#231F20" width="5.2" height="18.1"/>
	<rect x="2.5" y="27.1" fill="#4CDBC4" width="11.2" height="20.9"/>
	<polygon fill="#3DC9AE" points="16.2,24.4 0,24.4 2.5,27.1 13.7,27.1 	"/>
	<polygon fill="#4CDBC4" points="14.1,21.6 14.1,23 12.2,23 12.2,21.6 9.1,21.6 9.1,23 7.2,23 7.2,21.6 4,21.6 4,23 2.1,23 
		2.1,21.6 0,21.6 0,24.4 16.2,24.4 16.2,21.6 	"/>
	<g>
		<rect x="34.3" y="27.1" fill="#4CDBC4" width="11.2" height="20.9"/>
		<polygon fill="#3DC9AE" points="48,24.4 31.8,24.4 34.3,27.1 45.5,27.1 		"/>
		<polygon fill="#4CDBC4" points="45.9,21.6 45.9,23 44,23 44,21.6 40.8,21.6 40.8,23 38.9,23 38.9,21.6 35.8,21.6 35.8,23 33.9,23 
			33.9,21.6 31.8,21.6 31.8,24.4 48,24.4 48,21.6 		"/>
	</g>
	<g>
		<path fill="#FFFFFF" d="M28.2,48h-8.4v-5.1c0-2.3,1.9-4.2,4.2-4.2h0c2.3,0,4.2,1.9,4.2,4.2V48z"/>
		<path fill="#40596B" d="M20.4,42.9V48H24v-8.7C22,39.3,20.4,41,20.4,42.9z"/>
		<path fill="#334A5E" d="M27.6,42.9c0-2-1.6-3.6-3.6-3.6V48h3.6V42.9z"/>
	</g>
	<g>
		<path fill="#40596B" d="M8.1,34.7c-1.3,0-2.3,1-2.3,2.3v2.8h4.6V37C10.4,35.7,9.4,34.7,8.1,34.7z"/>
		<rect x="5.1" y="39.4" fill="#334A5E" width="6.1" height="1.1"/>
	</g>
	<g>
		<path fill="#40596B" d="M39.9,34.7c-1.3,0-2.3,1-2.3,2.3v2.8h4.6V37C42.2,35.7,41.1,34.7,39.9,34.7z"/>
		<rect x="36.8" y="39.4" fill="#334A5E" width="6.1" height="1.1"/>
	</g>
	<g>
		<path fill="#40596B" d="M24,19.6c-1.3,0-2.3,1-2.3,2.3v2.8h4.6v-2.8C26.3,20.6,25.3,19.6,24,19.6z"/>
		<rect x="20.9" y="24.2" fill="#334A5E" width="6.1" height="1.1"/>
	</g>
</g>
</svg>
