<?xml version="1.0" encoding="utf-8"?>
<!-- Generator: Adobe Illustrator 20.1.0, SVG Export Plug-In . SVG Version: 6.00 Build 0)  -->
<!DOCTYPE svg PUBLIC "-//W3C//DTD SVG 1.1//EN" "http://www.w3.org/Graphics/SVG/1.1/DTD/svg11.dtd">
<svg version="1.1" id="Layer_1" xmlns="http://www.w3.org/2000/svg" xmlns:xlink="http://www.w3.org/1999/xlink" x="0px" y="0px"
	 viewBox="0 0 49 49" enable-background="new 0 0 49 49" xml:space="preserve">
<g>
	<rect x="42.4" y="21.3" fill="#CDD6E0" width="2.8" height="6.3"/>
	<path fill="#40596B" d="M31.7,2.6c-0.2-1.2-1.2-2.1-2.4-2.1H17.7c-1.2,0-2.2,0.9-2.4,2.1l-3,21.9l3,21.9c0.2,1.2,1.2,2.1,2.4,2.1
		h11.7c1.2,0,2.2-0.9,2.4-2.1l3-21.9L31.7,2.6z"/>
	<path fill="#CDD6E0" d="M33.2,3.2H13.8c-1.1,0-2,0.9-2,2v38.6c0,1.1,0.9,2,2,2h19.5c1.1,0,2-0.9,2-2V5.2
		C35.2,4.1,34.3,3.2,33.2,3.2z"/>
	<circle fill="#FF7058" cx="23.5" cy="24.5" r="19.7"/>
	<path fill="#FFFFFF" d="M23.5,40.5c-8.8,0-16-7.2-16-16s7.2-16,16-16s16,7.2,16,16S32.3,40.5,23.5,40.5z"/>
	<path fill="#F2F2F2" d="M23.5,35.7c-6.2,0-11.2-5-11.2-11.2s5-11.2,11.2-11.2c6.2,0,11.2,5,11.2,11.2S29.7,35.7,23.5,35.7z"/>
	<circle fill="#FF7058" cx="23.5" cy="10.9" r="1.3"/>
	<circle fill="#FF7058" cx="23.5" cy="38.1" r="1.3"/>
	<circle fill="#FF7058" cx="37.1" cy="24.5" r="1.3"/>
	<circle fill="#FF7058" cx="9.9" cy="24.5" r="1.3"/>
	<path fill="#40596B" d="M30.2,24.5c0,0.7-0.6,1.3-1.3,1.3h-5.5c-0.7,0-1.3-0.6-1.3-1.3v-8.7c0-0.7,0.6-1.3,1.3-1.3
		c0.7,0,1.2,0.6,1.2,1.3v7.5H29C29.7,23.2,30.2,23.8,30.2,24.5z"/>
</g>
</svg>
