<?xml version="1.0" encoding="utf-8"?>
<!-- Generator: Adobe Illustrator 18.0.0, SVG Export Plug-In . SVG Version: 6.00 Build 0)  -->
<!DOCTYPE svg PUBLIC "-//W3C//DTD SVG 1.1//EN" "http://www.w3.org/Graphics/SVG/1.1/DTD/svg11.dtd">
<svg version="1.1" id="Layer_1" xmlns="http://www.w3.org/2000/svg" xmlns:xlink="http://www.w3.org/1999/xlink" x="0px" y="0px"
	 viewBox="0 0 48 48" enable-background="new 0 0 48 48" xml:space="preserve">
<g>
	<g>
		<g>
			<g>
				<g>
					<g>
						<g>
							<path fill="#4ABAA5" d="M15.4,32.6h1.7c0-6.2-0.2-8.8-1-18.4L15.8,11l-1.7,0.1l0.3,3.3C15.1,23.9,15.3,26.5,15.4,32.6z"/>
						</g>
					</g>
					<g>
						<g>
							<path fill="#F3705A" d="M17.7,2c-0.3-1-1.2-1.7-2.3-1.9c-1.1-0.2-2.1,0.2-2.8,1.1c-0.9-0.5-2.1-0.4-3,0.2
								C8.8,2,8.4,3,8.5,4.1c-1,0.3-1.7,1.2-1.9,2.3C6.4,7.4,6.8,8.4,7.6,9.1c-0.4,0.9-0.4,2.1,0.2,3c0.6,0.9,1.7,1.3,2.7,1.2
								c0.3,1,1.2,1.7,2.3,1.9c1.1,0.2,2.1-0.3,2.8-1.1c0.9,0.4,2.1,0.4,3-0.2c0.9-0.6,1.3-1.7,1.2-2.7c1-0.3,1.7-1.2,1.9-2.2
								c0.2-1.1-0.2-2.1-1.1-2.8c0.5-0.9,0.4-2.1-0.2-3C19.7,2.3,18.7,1.8,17.7,2z"/>
						</g>
						<circle fill="#FFD15C" cx="14.1" cy="7.6" r="3.6"/>
						<circle fill="#415A6B" cx="14.1" cy="7.6" r="2.2"/>
					</g>
				</g>
				<g>
					<g>
						<path fill="#4ABAA5" d="M20.4,21.5c0,2.8-2.3,4.5-5,3.8C15.4,22.5,17.6,20.8,20.4,21.5z"/>
					</g>
				</g>
				<g>
					<g>
						<path fill="#4ABAA5" d="M10.4,25.9c2.7-0.8,5,0.8,5.1,3.7C12.8,30.4,10.6,28.7,10.4,25.9z"/>
					</g>
				</g>
			</g>
			<g>
				<g>
					<g>
						<path fill="#66C6B9" d="M21.9,32.6c0.3-9.3,2.9-22,6.8-23.1c2-0.5,4.1,2.3,5.5,4.7l1.5-0.9c-2.6-4.3-5.1-6.1-7.5-5.5
							c-5.6,1.5-7.8,16.5-8,24.7H21.9z"/>
					</g>
				</g>
				<g>
					<g>
						<g>
							<path fill="#F3705A" d="M40.3,17.8c0.2,0.8,0,1.6-0.6,2.2c-0.6,0.6-1.5,0.8-2.2,0.6c-0.4,0.7-1.1,1.2-2,1.2
								c-0.9,0-1.6-0.5-2-1.2c-0.8,0.2-1.6,0-2.2-0.6c-0.6-0.6-0.8-1.5-0.6-2.2c-0.7-0.4-1.2-1.1-1.2-2c0-0.8,0.5-1.6,1.2-2
								c-0.2-0.8,0-1.6,0.6-2.2c0.6-0.6,1.5-0.8,2.2-0.6c0.4-0.7,1.1-1.2,2-1.2c0.9,0,1.6,0.5,2,1.2c0.8-0.2,1.6,0,2.2,0.6
								c0.6,0.6,0.8,1.5,0.6,2.2c0.7,0.4,1.2,1.1,1.2,2C41.5,16.6,41,17.4,40.3,17.8z"/>
						</g>
					</g>
					<g>
						<circle fill="#FFD15C" cx="35.5" cy="15.8" r="2.8"/>
					</g>
					<g>
						<circle fill="#415A6B" cx="35.5" cy="15.8" r="1.7"/>
					</g>
				</g>
				<g>
					<g>
						<path fill="#66C6B9" d="M15.2,16.3c0.1,4,3.2,6.4,7.1,5.3C22.3,17.6,19.1,15.3,15.2,16.3z"/>
					</g>
				</g>
				<g>
					<g>
						<path fill="#66C6B9" d="M29.2,22.4c-3.8-1.1-7.1,1.2-7.2,5.2C25.8,28.8,29,26.4,29.2,22.4z"/>
					</g>
				</g>
			</g>
		</g>
		<g>
			<g>
				<path fill="#FFD15C" d="M8.6,33L8.6,33c0,0.9,0.7,1.6,1.5,1.6h18.4c0.8,0,1.5-0.7,1.5-1.6l0,0c0-0.9-0.7-1.6-1.5-1.6H10.1
					C9.3,31.4,8.6,32.1,8.6,33z"/>
			</g>
			<path fill="#FFD15C" d="M10.2,34.5L12,46.7c0.1,0.7,0.7,1.3,1.4,1.3h11.8c0.7,0,1.3-0.5,1.4-1.3l1.7-12.2H10.2z"/>
		</g>
	</g>
</g>
</svg>
