<?xml version="1.0" encoding="utf-8"?>
<!-- Generator: Adobe Illustrator 20.1.0, SVG Export Plug-In . SVG Version: 6.00 Build 0)  -->
<!DOCTYPE svg PUBLIC "-//W3C//DTD SVG 1.1//EN" "http://www.w3.org/Graphics/SVG/1.1/DTD/svg11.dtd">
<svg version="1.1" id="Layer_1" xmlns="http://www.w3.org/2000/svg" xmlns:xlink="http://www.w3.org/1999/xlink" x="0px" y="0px"
	 viewBox="0 0 49 49" enable-background="new 0 0 49 49" xml:space="preserve">
<g>
	<path fill="#FFD15C" d="M48.5,15.3h-48V1.4c0-0.5,0.4-0.9,0.9-0.9h46.1c0.5,0,0.9,0.4,0.9,0.9L48.5,15.3L48.5,15.3z"/>
	<path fill="#84DBFF" d="M47,15.3v31.2c0,1.1-0.9,2-2,2H4c-1.1,0-2-0.9-2-2V15.3H47z"/>
	<rect x="21.2" y="4.6" fill="#FFFFFF" width="3" height="3"/>
	<rect x="24.9" y="4.6" fill="#FFFFFF" width="3" height="3"/>
	<rect x="21.2" y="8.3" fill="#FFFFFF" width="3" height="3"/>
	<rect x="24.9" y="8.3" fill="#FFFFFF" width="3" height="3"/>
	<rect x="7.3" y="30.1" fill="#40596B" width="13.3" height="18.4"/>
	<g>
		<rect x="26.9" y="34.1" fill="#F2F2F2" width="13.9" height="9.3"/>
		<rect x="25.9" y="43.4" fill="#ACB3BA" width="15.8" height="1.1"/>
	</g>
	<rect x="2" y="15.3" fill="#54C0EB" width="44.9" height="1.5"/>
	<rect x="7.3" y="20.1" fill="#FFFFFF" width="5.1" height="5.1"/>
	<rect x="36.6" y="20.1" fill="#FFFFFF" width="5.1" height="5.1"/>
	<rect x="21.9" y="20.1" fill="#FFFFFF" width="5.1" height="5.1"/>
</g>
</svg>
