<?xml version="1.0" encoding="utf-8"?>
<!-- Generator: Adobe Illustrator 18.0.0, SVG Export Plug-In . SVG Version: 6.00 Build 0)  -->
<!DOCTYPE svg PUBLIC "-//W3C//DTD SVG 1.1//EN" "http://www.w3.org/Graphics/SVG/1.1/DTD/svg11.dtd">
<svg version="1.1" id="Layer_1" xmlns="http://www.w3.org/2000/svg" xmlns:xlink="http://www.w3.org/1999/xlink" x="0px" y="0px"
	 viewBox="0 0 48 48" enable-background="new 0 0 48 48" xml:space="preserve">
<g>
	<g>
		<g>
			<g>
				<g>
					<path fill="#66C6B9" d="M34.1,19.8H13.9c-1.8,0-3.5,0.8-4,1.9L2,41.1c-1.2,2.8,0.4,5.3,3.7,5.3h36.7c3.2,0,4.8-2.5,3.7-5.3
						l-8-19.4C37.6,20.6,35.8,19.8,34.1,19.8z"/>
					<g>
						<path fill="#4ABAA5" d="M46.4,43.3c0.1-0.7,0-1.5-0.3-2.2l-8-19.4c-0.4-1.1-2.2-1.9-4-1.9H13.9c-0.7,0-1.5,0.1-2.1,0.4
							L46.4,43.3z"/>
					</g>
					<g>
						<path fill="#FFD15C" d="M32.5,35.8L1.6,43.4c0.3,1.7,1.7,3,4,3h36.7c2.7,0,4.3-1.8,4-4L32.5,35.8z"/>
					</g>
					<path fill="#F3F3F3" d="M42.4,48H5.6c-2.1,0-3.8-0.8-4.8-2.3c-1-1.5-1.1-3.4-0.3-5.2l8-19.4c0.8-1.9,3.3-2.9,5.5-2.9h20.2
						c2.1,0,4.7,1,5.5,2.9l8,19.4c0.8,1.9,0.6,3.8-0.3,5.2C46.2,47.2,44.4,48,42.4,48z M13.9,21.4c-1.3,0-2.4,0.6-2.5,0.9l-8,19.4
						c-0.4,0.9-0.3,1.6,0,2.2c0.4,0.6,1.1,0.9,2.1,0.9h36.7c1,0,1.8-0.3,2.1-0.9c0.4-0.6,0.4-1.3,0-2.2l-8-19.4
						c-0.1-0.3-1.1-0.9-2.5-0.9H13.9z"/>
				</g>
			</g>
		</g>
		<g>
			<g>
				<polygon fill="#F3F3F3" points="12.3,19.8 10.5,22.4 29.2,35 2.5,42.6 2.5,43.1 3,45 7.3,45 33.1,37.7 44,45 45.1,45 45.7,44.2 
					45.7,42.3 				"/>
			</g>
		</g>
		<g>
			<g>
				<path fill="#F3705A" d="M35.3,27.4L24,38.7L12.7,27.4c-6.3-6.3-6.3-16.4,0-22.7c6.3-6.3,16.4-6.3,22.7,0
					C41.6,11,41.6,21.1,35.3,27.4z"/>
				<path fill="#FFFFFF" d="M13.1,16C13.1,10,18,5.1,24,5.1c6,0,10.9,4.9,10.9,10.9C34.9,22.1,30,27,24,27C18,27,13.1,22.1,13.1,16z
					"/>
			</g>
			<g>
				<path fill="#F3705A" d="M28.1,10.2c-1.9,0-3.5,1.2-4.1,2.9c-0.6-1.7-2.2-2.9-4.1-2.9c-2.4,0-4.4,2-4.4,4.4
					c0,3.5,8.5,9.9,8.5,9.9s8.5-6.4,8.5-9.9C32.5,12.2,30.5,10.2,28.1,10.2z"/>
				
					<ellipse transform="matrix(0.7654 -0.6436 0.6436 0.7654 -1.6101 22.2016)" fill="#FFFFFF" cx="29.6" cy="13.3" rx="0.8" ry="1.8"/>
			</g>
		</g>
	</g>
</g>
</svg>
