<?xml version="1.0" encoding="utf-8"?>
<!-- Generator: Adobe Illustrator 18.0.0, SVG Export Plug-In . SVG Version: 6.00 Build 0)  -->
<!DOCTYPE svg PUBLIC "-//W3C//DTD SVG 1.1//EN" "http://www.w3.org/Graphics/SVG/1.1/DTD/svg11.dtd">
<svg version="1.1" id="Layer_1" xmlns="http://www.w3.org/2000/svg" xmlns:xlink="http://www.w3.org/1999/xlink" x="0px" y="0px"
	 viewBox="0 0 48 48" enable-background="new 0 0 48 48" xml:space="preserve">
<g>
	<path fill="#CDD6E0" d="M9.7,42.8L43.1,9.4c-1.5-1.5-2.9-3.1-4.5-4.5L5.3,38.2C6.8,39.7,8.3,41.2,9.7,42.8z"/>
	<g>
		<g>
			<path fill="#334A5E" d="M8.6,28.4c-1.5-1.5-3.9-1.5-5.4,0h0c-1.5,1.5-1.5,3.9,0,5.4l11,11c1.5,1.5,3.9,1.5,5.4,0
				c1.5-1.5,1.5-3.9,0-5.4L8.6,28.4z"/>
			<path fill="#334A5E" d="M44.8,14.2l-11-11c-1.5-1.5-3.9-1.5-5.4,0h0c-1.5,1.5-1.5,3.9,0,5.4l11,11c1.5,1.5,3.9,1.5,5.4,0h0
				C46.3,18.1,46.3,15.7,44.8,14.2z"/>
		</g>
		<g>
			<path fill="#40596B" d="M4.5,35c-1-1-2.7-1-3.7,0h0c-1,1-1,2.7,0,3.7l8.5,8.5c1,1,2.7,1,3.7,0c1-1,1-2.7,0-3.7L4.5,35z"/>
			<path fill="#40596B" d="M47.2,9.3l-8.5-8.5c-1-1-2.7-1-3.7,0v0c-1,1-1,2.7,0,3.7l8.5,8.5c1,1,2.7,1,3.7,0h0
				C48.3,12,48.3,10.3,47.2,9.3z"/>
		</g>
	</g>
</g>
</svg>
