<?xml version="1.0" encoding="utf-8"?>
<!-- Generator: Adobe Illustrator 18.0.0, SVG Export Plug-In . SVG Version: 6.00 Build 0)  -->
<!DOCTYPE svg PUBLIC "-//W3C//DTD SVG 1.1//EN" "http://www.w3.org/Graphics/SVG/1.1/DTD/svg11.dtd">
<svg version="1.1" id="Layer_1" xmlns="http://www.w3.org/2000/svg" xmlns:xlink="http://www.w3.org/1999/xlink" x="0px" y="0px"
	 viewBox="0 0 48 48" enable-background="new 0 0 48 48" xml:space="preserve">
<g>
	<g>
		<g>
			<path fill="#F3F3F3" d="M24,0c-7.4,0-13.5,6-13.5,13.5c0,7.4,6,13.4,13.5,13.4c7.4,0,13.5-6,13.5-13.4C37.5,6,31.4,0,24,0z
				 M24,17.2c-2.1,0-3.8-1.7-3.8-3.8c0-2.1,1.7-3.8,3.8-3.8c2.1,0,3.8,1.7,3.8,3.8C27.8,15.6,26.1,17.2,24,17.2z"/>
			<g>
				<g>
					<path fill="#415A6B" d="M24,9.7c-2.1,0-3.8,1.7-3.8,3.8s1.7,3.8,3.8,3.8c2.1,0,3.8-1.7,3.8-3.8S26.1,9.7,24,9.7z M24,15.2
						c-1,0-1.7-0.8-1.7-1.7s0.8-1.7,1.7-1.7c1,0,1.7,0.8,1.7,1.7S25,15.2,24,15.2z"/>
				</g>
			</g>
			<g>
				<path fill="#E8EAE9" d="M26.1,8.2l2.2-5.6c-2.7-1.1-5.8-1.1-8.5,0l2.2,5.6C23.3,7.7,24.8,7.7,26.1,8.2z"/>
				<path fill="#E8EAE9" d="M21.9,18.7l-2.2,5.6c2.7,1.1,5.8,1.1,8.6,0l-2.2-5.6C24.7,19.2,23.2,19.2,21.9,18.7z"/>
			</g>
		</g>
		<g>
			<g>
				<path fill="#FFD15C" d="M39,16.5H9c-1,0-1.9,0.8-1.9,1.9v27.7C7.1,47.2,8,48,9,48h30c1,0,1.9-0.8,1.9-1.9V18.4
					C40.9,17.3,40,16.5,39,16.5z"/>
			</g>
			<g>
				<g>
					<path fill="#F05540" d="M30.2,21.4c-1.4,0-2.7,0.9-3.1,2.2c-0.5-1.3-1.7-2.2-3.1-2.2c-1.8,0-3.3,1.5-3.3,3.3
						c0,2.7,6.4,7.8,6.4,7.8s6.4-5.2,6.4-7.8C33.5,22.9,32,21.4,30.2,21.4z"/>
				</g>
				<g>
					<path fill="#F3705A" d="M27.1,28.4c-1.9,0-3.5,1.2-4.1,2.8c-0.6-1.7-2.2-2.8-4.1-2.8c-2.4,0-4.4,1.9-4.4,4.4
						c0,3.5,8.5,10.3,8.5,10.3s8.4-6.8,8.4-10.3C31.4,30.3,29.5,28.4,27.1,28.4z"/>
				</g>
			</g>
		</g>
	</g>
</g>
</svg>
