<?xml version="1.0" encoding="utf-8"?>
<!-- Generator: Adobe Illustrator 18.0.0, SVG Export Plug-In . SVG Version: 6.00 Build 0)  -->
<!DOCTYPE svg PUBLIC "-//W3C//DTD SVG 1.1//EN" "http://www.w3.org/Graphics/SVG/1.1/DTD/svg11.dtd">
<svg version="1.1" id="Layer_1" xmlns="http://www.w3.org/2000/svg" xmlns:xlink="http://www.w3.org/1999/xlink" x="0px" y="0px"
	 viewBox="0 0 512 512" enable-background="new 0 0 512 512" xml:space="preserve">
<g>
	<path fill="#4CDBC4" d="M459.8,158.8L421.3,17.9c-3.1-11.5-15-18.2-26.5-15.1L55.1,95.6c-11.5,3.1-18.2,15-15.1,26.5l10,36.7H459.8
		z"/>
	<path fill="#F2F2F2" d="M85,158.8h318.6c5.1-7,12.6-12.4,21.6-14.8l-19.5-71.2c-21.3,5.8-43.2-6.7-49-28l-253.4,69.2
		C108.1,131.6,100.1,149.8,85,158.8z"/>
	<circle fill="#4CDBC4" cx="335.4" cy="130.1" r="14.7"/>
	<path fill="#4CDBC4" d="M298.6,158.8c-0.3-5.8-1.3-11.8-2.9-17.8c-9.4-34.3-37.4-56.6-62.5-49.7c-23.4,6.4-36.1,35.8-30.1,67.5
		H298.6z"/>
	<path fill="#F2F2F2" d="M233.5,153.7c3.6,2.6,8.4,3.9,14.6,4l0.3,1.1h6.8l-0.3-0.9c1.9,0,3.5,0.4,4.8,0.9h14.8
		c-1.3-4.2-3.5-7.5-6.7-9.7c-3.4-2.4-8.8-3.5-16.3-3.5l-4.7-17.1c3.2,0.5,5.5,2.3,7.2,5.6l10.7-4.5c-2-4.2-4.7-7.2-8.1-9
		c-3.5-1.9-7.6-2.4-12.4-1.7l-1.2-4.3l-6.3,1.7l1.2,4.3c-4.9,1.9-8.4,4.8-10.5,8.9c-2.2,4.1-2.5,8.5-1.2,13.3
		C227.5,147.5,229.9,151.1,233.5,153.7z M237.3,134.2c0.6-1.7,1.7-3.1,3.3-4.1l4.1,15.1c-2.1-0.3-3.8-1-5.1-2
		c-1.3-1.1-2.2-2.4-2.6-3.9C236.5,137.6,236.6,135.9,237.3,134.2z"/>
	<path fill="#334A5E" d="M501.5,214v-36.5c0-11.7-9.5-21.3-21.3-21.3h-456c-11.7,0-21.3,9.5-21.3,21.3V214H501.5z"/>
	<path fill="#334A5E" d="M2.9,452.2v36.5c0,11.7,9.5,21.3,21.3,21.3h456c11.7,0,21.3-9.5,21.3-21.3v-36.5H2.9z"/>
	<g>
		<polygon fill="#40596B" points="66.7,510 66.7,510 437.7,510 437.7,510 		"/>
		<path fill="#40596B" d="M501.1,214H3.2c-0.2,2-0.3,4-0.3,6v226.2c0,2,0.1,4,0.3,6h497.9c0.2-2,0.3-4,0.3-6V220
			C501.5,218,501.3,216,501.1,214z"/>
	</g>
	<path fill="#ACB3BA" d="M509.1,290.4v85.4h-81.5c-0.5,0-1,0-1.4,0c-20.4-0.7-37.2-15.6-40.6-35.2c-0.5-2.4-0.7-4.9-0.7-7.4
		c0-11.8,4.8-22.4,12.5-30.2c7.7-7.8,18.4-12.5,30.2-12.5H509.1z"/>
	<circle fill="#FFFFFF" cx="431" cy="333.1" r="26.8"/>
</g>
</svg>
