<?xml version="1.0" encoding="utf-8"?>
<!-- Generator: Adobe Illustrator 18.0.0, SVG Export Plug-In . SVG Version: 6.00 Build 0)  -->
<!DOCTYPE svg PUBLIC "-//W3C//DTD SVG 1.1//EN" "http://www.w3.org/Graphics/SVG/1.1/DTD/svg11.dtd">
<svg version="1.1" id="Layer_1" xmlns="http://www.w3.org/2000/svg" xmlns:xlink="http://www.w3.org/1999/xlink" x="0px" y="0px"
	 viewBox="0 0 48 48" enable-background="new 0 0 48 48" xml:space="preserve">
<g>
	<g>
		<g>
			<g>
				<g>
					<path fill="#F05540" d="M27.2,16.3c-0.1,4.3-0.2,8.6-0.4,12.9c-0.1,1.3-0.2,2.7-0.9,3.8c-0.7,0.9-1.7,1.5-2.7,2
						c-1.1,0.6-2.3,1.2-3.6,1.3c-2.1,0.2-4.2-0.8-6.1-1.7c-1.3-0.7-2.7-1.4-3.6-2.7c-0.9-1.4-1-3.1-1-4.7c0.1-2.7,0.5-5.4,1.2-8
						c0.2-0.7,0.4-1.4,1-1.8c0.7-0.6,1.7-0.6,2.6-0.6c2.4,0.1,4.8,0.5,7.2,1"/>
				</g>
				<g>
					<g>
						<path fill="#415A6B" d="M36,46.3V35.9c0-2.5-1.7-4.7-4.2-5.3c-9.1-2.2-18.6-2.2-27.6,0C1.7,31.2,0,33.4,0,35.9v10.3H36z"/>
					</g>
					<g>
						<path fill="#F7B64C" d="M36,46.3V35.9c0-2.5-1.7-4.7-4.2-5.3c-2.3-0.6-4.7-1-7-1.3c-1.3-0.1-2.2-1.2-2.2-2.5v-4.6h-9.2v4.6
							c0,1.3-0.9,2.3-2.2,2.5c-2.4,0.3-4.7,0.7-7,1.3C1.7,31.3,0,33.4,0,35.9v10.3H36z"/>
					</g>
					<g>
						<path fill="#415A6B" d="M36,46.3V35.9c0-2.5-1.7-4.7-4.2-5.3c-2.3-0.6-4.7-1-7-1.3c-0.7-0.1-1.4-0.5-1.8-1.1l-5,3.6l-4.6-4.7
							c-0.1,1.1-1,2.1-2.2,2.2c-2.4,0.3-4.7,0.7-7,1.3C1.7,31.3,0,33.4,0,35.9v10.3H36z"/>
					</g>
					<g>
						<path fill="#344A5E" d="M0,35.9v10.3h6v-5.5c0-3.5-1.3-6.8-3.6-9.4C0.9,32.4,0,34.1,0,35.9z"/>
					</g>
					<g>
						<path fill="#344A5E" d="M36,35.9v10.3h-6v-5.5c0-3.5,1.3-6.8,3.6-9.4C35,32.4,36,34.1,36,35.9z"/>
					</g>
					<g>
						<path fill="#FFD15C" d="M27.2,10.3c-0.4-1.7-1.5-3-2.9-4c-0.5-0.6-1.1-1-1.8-1.4c-0.1-0.1-0.2-0.1-0.4-0.2
							c-0.2-0.7-0.8-1.3-1.7-1.5c-4-0.9-9.5,0.6-10.8,5.1C9.5,8.6,9.5,8.8,9.4,9c-1.3,2.6-0.7,6,0,8.7c0.1,0.4,0.3,0.8,0.6,1.1
							c0.9,4.9,4.1,8.6,8,8.6c4.4,0,7.9-4.6,8.2-10.4c0.2-0.6,0.3-1.2,0.4-1.9C27.3,13.5,27.6,12,27.2,10.3z"/>
						<g>
							<path fill="#F3705A" d="M29.3,14.7c-0.4,2.3-0.2,3-0.5,5.8c-0.2,2.8,0.2,5.9-0.2,9.2c-0.5,4.2-2.4,8.5-5.5,12.1
								c2.4-7,3.3-7.6,2.5-13.7c0.1,2.3-1,4.7-2.9,6.2c1.5-1.6,1.7-3.9,1.4-5.9c-0.2-1.9-0.3-5.3-0.1-6.9c0.4-3.3,2.6-6.7,3-9.3
								c0.1-0.9-0.2-2-1.2-2.2c-0.7-0.2-1.3,0.2-1.9,0.5c-3.9,1.4-7.9,1.4-11.8,0c-0.6-0.3-1.3-0.7-1.9-0.5c-1,0.2-1.3,1.3-1.2,2.2
								c0.4,2.6,2.4,7,2.7,10.3c0.2,1.6,0.1,4.8-0.2,6.6c-0.2,1.8-0.1,3.9,1.2,5.4c-1.7-1.4-2.7-3.6-2.6-5.7
								c-0.7,5.6,0.1,6.1,2.1,12.3c-2.7-3.2-4.4-7-4.8-10.8c-0.4-3.1,0-6-0.2-8.7C7,18.8,7.1,17,6.7,14.7C6.2,12.2,6.3,9.5,7,7
								c0.5-1.8,1.2-3.6,2.7-4.8C11.4,0.8,14.9,0,18,0c2.6,0,6.6,0.8,8.3,2.2c1.5,1.2,2.3,3,2.7,4.8C29.7,9.5,29.8,12.2,29.3,14.7z"
								/>
						</g>
					</g>
					<g>
						<polygon fill="#F3F3F3" points="18,31.9 21.7,35 23.8,28 22.6,25.6 						"/>
						<polygon fill="#F3F3F3" points="18,31.9 14.3,35 12.2,28 13.4,25.6 						"/>
					</g>
					<g>
						<g>
							<circle fill="#344A5E" cx="18" cy="41.8" r="1"/>
						</g>
						<g>
							<circle fill="#344A5E" cx="18" cy="36.9" r="1"/>
						</g>
					</g>
				</g>
			</g>
		</g>
		<g>
			<g>
				<g>
					<path fill="#66C6B9" d="M48,25.3l-1.6,7l-1.9-1.9L33.1,42c-0.5,0.5-1.3,0.5-1.7,0l-6.1-6.1L13.5,47.6c-0.5,0.5-1.3,0.5-1.7,0
						l0,0c-0.5-0.5-0.5-1.3,0-1.7l12.7-12.7c0.5-0.5,1.3-0.5,1.7,0l6.1,6.1l10.6-10.6L41,26.9L48,25.3z"/>
				</g>
			</g>
		</g>
	</g>
</g>
</svg>
