<?xml version="1.0" encoding="utf-8"?>
<!-- Generator: Adobe Illustrator 18.0.0, SVG Export Plug-In . SVG Version: 6.00 Build 0)  -->
<!DOCTYPE svg PUBLIC "-//W3C//DTD SVG 1.1//EN" "http://www.w3.org/Graphics/SVG/1.1/DTD/svg11.dtd">
<svg version="1.1" id="Layer_1" xmlns="http://www.w3.org/2000/svg" xmlns:xlink="http://www.w3.org/1999/xlink" x="0px" y="0px"
	 viewBox="0 0 48 48" enable-background="new 0 0 48 48" xml:space="preserve">
<g>
	<g>
		<g>
			<g>
				<g>
					<polygon fill="#E8EAE9" points="20.4,18 32.2,15.8 30,27.6 32.6,30.2 35.2,16.3 31.7,12.8 17.8,15.4 					"/>
				</g>
			</g>
			<g>
				<g>
					<path fill="#55C0EB" d="M48,12.5c-0.3-3.2-1.7-6.2-4-8.5c-2.3-2.3-5.3-3.7-8.5-4c-0.7-0.1-1.4,0.5-1.4,1.3
						c0,0.6,0.5,1.2,1.1,1.3c2.6,0.3,5.1,1.4,6.9,3.3c1.9,1.9,3,4.3,3.3,6.9c0.1,0.6,0.6,1.1,1.3,1.1l0,0
						C47.5,13.9,48.1,13.2,48,12.5z"/>
					<path fill="#55C0EB" d="M43.9,12.5c-0.6-4.3-4-7.7-8.4-8.4c-0.8-0.1-1.4,0.5-1.4,1.3c0,0.6,0.5,1.2,1.1,1.3
						c3.2,0.5,5.7,3,6.2,6.2c0.1,0.6,0.6,1.1,1.2,1.1C43.4,13.9,44,13.2,43.9,12.5z"/>
				</g>
				<g>
					<circle fill="#F3F3F3" cx="34.1" cy="13.9" r="4.6"/>
				</g>
			</g>
		</g>
		<g>
			<g>
				<g>
					<g>
						<path fill="#F3F3F3" d="M38.5,41.4c-8.8,8.8-23.1,8.8-31.9,0c-8.8-8.8-8.8-23.1,0-31.9L38.5,41.4z"/>
					</g>
				</g>
			</g>
			<g>
				<g>
					<g>
						<path fill="#E8EAE9" d="M34.9,44.3c1.3-0.8,2.5-1.8,3.6-2.9L6.6,9.5c-1.1,1.1-2.1,2.3-2.9,3.6L34.9,44.3z"/>
					</g>
				</g>
			</g>
			<g>
				<g>
					<g>
						<path fill="#F3F3F3" d="M38.3,41.5L6.5,9.7c-1.1-1.1-1.1-2.8,0-3.9s2.8-1.1,3.9,0l31.9,31.9c1.1,1.1,1.1,2.8,0,3.9
							C41.1,42.6,39.4,42.6,38.3,41.5z"/>
					</g>
				</g>
			</g>
		</g>
	</g>
</g>
</svg>
