<?xml version="1.0" encoding="utf-8"?>
<!-- Generator: Adobe Illustrator 18.0.0, SVG Export Plug-In . SVG Version: 6.00 Build 0)  -->
<!DOCTYPE svg PUBLIC "-//W3C//DTD SVG 1.1//EN" "http://www.w3.org/Graphics/SVG/1.1/DTD/svg11.dtd">
<svg version="1.1" id="Layer_1" xmlns="http://www.w3.org/2000/svg" xmlns:xlink="http://www.w3.org/1999/xlink" x="0px" y="0px"
	 viewBox="0 0 48 48" enable-background="new 0 0 48 48" xml:space="preserve">
<g>
	<g>
		<g>
			<polygon fill="#F05540" points="48,0 28.7,0 20.5,15.4 27.5,15.4 			"/>
		</g>
		<g>
			<g>
				<path fill="#FFD15C" d="M29.8,20.2H18.2v-4.5c0-1.3,1-2.3,2.3-2.3h7c1.3,0,2.3,1,2.3,2.3V20.2z M20.2,18.2h7.7v-2.5
					c0-0.2-0.1-0.3-0.3-0.3h-7c-0.2,0-0.3,0.1-0.3,0.3V18.2z"/>
			</g>
		</g>
		<g>
			<g>
				<circle fill="#FFD15C" cx="24" cy="32.3" r="15.7"/>
			</g>
			<g>
				<circle fill="#F7B64C" cx="24" cy="32.3" r="11.6"/>
			</g>
			<g>
				<path fill="#FFD15C" d="M20.6,25.8h5.2v12.9h-2.8V28.3h-2.4V25.8z"/>
			</g>
		</g>
		<line fill="#CED6E0" x1="27.5" y1="15.4" x2="20.5" y2="15.4"/>
		<g>
			<polygon fill="#F3705A" points="20.5,15.4 27.5,15.4 19.3,0 0,0 			"/>
		</g>
	</g>
</g>
</svg>
