<?xml version="1.0" encoding="utf-8"?>
<!-- Generator: Adobe Illustrator 18.0.0, SVG Export Plug-In . SVG Version: 6.00 Build 0)  -->
<!DOCTYPE svg PUBLIC "-//W3C//DTD SVG 1.1//EN" "http://www.w3.org/Graphics/SVG/1.1/DTD/svg11.dtd">
<svg version="1.1" id="Layer_1" xmlns="http://www.w3.org/2000/svg" xmlns:xlink="http://www.w3.org/1999/xlink" x="0px" y="0px"
	 viewBox="0 0 48 48" enable-background="new 0 0 48 48" xml:space="preserve">
<g>
	<path fill="#F2F2F2" d="M39.8,48H8.2c-1.1,0-2-0.9-2-2V2c0-1.1,0.9-2,2-2h31.7c1.1,0,2,0.9,2,2v44C41.8,47.1,40.9,48,39.8,48z"/>
	<rect x="10.1" y="4" fill="#54C0EB" width="27.8" height="13.6"/>
	<rect x="10.1" y="21.5" fill="#CDD6E0" width="7.3" height="5.5"/>
	<rect x="20.4" y="21.5" fill="#CDD6E0" width="7.3" height="5.5"/>
	<rect x="30.6" y="21.5" fill="#CDD6E0" width="7.3" height="5.5"/>
	<rect x="10.1" y="30" fill="#CDD6E0" width="7.3" height="5.5"/>
	<rect x="20.4" y="30" fill="#CDD6E0" width="7.3" height="5.5"/>
	<rect x="10.1" y="38.5" fill="#CDD6E0" width="7.3" height="5.5"/>
	<rect x="20.4" y="38.5" fill="#CDD6E0" width="7.3" height="5.5"/>
	<rect x="30.6" y="30" fill="#FF7058" width="7.3" height="14"/>
	<g>
		<polygon fill="#FFFFFF" points="17.6,4 10.1,9.7 10.1,8.2 15.6,4 		"/>
		<polygon fill="#FFFFFF" points="22.6,4 10.1,13.2 10.1,11.1 19.4,4 		"/>
	</g>
	<path fill="#40596B" d="M23.5,15.3c-1.4-0.1-2.4-0.6-3.1-1.4l1-1.5c0.5,0.5,1.2,1,2.1,1.1v-2c-1.4-0.3-2.8-0.8-2.8-2.6
		c0-1.3,1.1-2.5,2.8-2.7V5h1.2v1.3c1.1,0.1,2,0.5,2.7,1.2l-1,1.4c-0.5-0.4-1.1-0.7-1.7-0.9v1.8c1.4,0.3,2.9,0.9,2.9,2.7
		c0,1.5-1,2.6-2.9,2.8v1.2h-1.2V15.3z M23.5,9.5V7.9c-0.6,0.1-0.9,0.4-0.9,0.8C22.6,9.2,23,9.4,23.5,9.5z M24.7,11.9v1.8
		c0.7-0.1,1-0.5,1-0.9C25.7,12.3,25.3,12,24.7,11.9z"/>
</g>
</svg>
