<?xml version="1.0" encoding="utf-8"?>
<!-- Generator: Adobe Illustrator 20.1.0, SVG Export Plug-In . SVG Version: 6.00 Build 0)  -->
<!DOCTYPE svg PUBLIC "-//W3C//DTD SVG 1.1//EN" "http://www.w3.org/Graphics/SVG/1.1/DTD/svg11.dtd">
<svg version="1.1" id="Layer_1" xmlns="http://www.w3.org/2000/svg" xmlns:xlink="http://www.w3.org/1999/xlink" x="0px" y="0px"
	 viewBox="0 0 49 49" enable-background="new 0 0 49 49" xml:space="preserve">
<g>
	<circle fill="#E2E2E2" cx="24.5" cy="18.5" r="11.3"/>
	<path fill="#F2F2F2" d="M35.8,11.8c0,6.2-22.5,6.2-22.5,0c0-2,0.5-3.9,1.5-5.5c1.9-3.4,5.6-5.7,9.8-5.7c4.9,0,9,3.1,10.6,7.5
		C35.5,9.1,35.8,10.4,35.8,11.8z"/>
	<polygon fill="#FFD15C" points="34.2,24.8 33.8,26.3 27.1,48.5 21.9,48.5 15.2,26.3 14.8,24.8 	"/>
	<path fill="#FFD15C" d="M34.6,22.1H14.4c-0.7,0-1.4,0.6-1.4,1.4c0,0.7,0.6,1.4,1.4,1.4h20.2c0.7,0,1.4-0.6,1.4-1.4
		C36,22.7,35.3,22.1,34.6,22.1z"/>
	<path fill="#F8B64C" d="M33.7,26.7L33.7,26.7l-0.5-0.4l-1.5-1.5h-2.1L28,26.3l-0.5,0.5l-2-2h-2.1l-1.5,1.5l-0.5,0.5l-2-2h-2.1
		l-1.5,1.5l-0.5,0.5l-0.1-0.1l0.7,2.2l1.7,1.7l-0.9,0.9l0.3,1.2l1.3-1.3l2.3,2.3l-2.3,2.3L18,35.4l0.7,2.2l2.1,2.1l-1.1,1.1l0.3,1.2
		l1.5-1.5l2.3,2.3L21.5,45l-0.9-0.9l0.7,2.5l0.1-0.1l2,2h2.1l2-2l0.1,0.1l0.7-2.5L27.5,45l-2.3-2.3l2.3-2.3l1.5,1.5l0.3-1.2
		l-1.1-1.1l2.1-2.1l0.7-2.2l-0.5,0.5l-2.3-2.3l2.3-2.3l1.3,1.3l0.3-1.2l-0.9-0.9l1.7-1.7L33.7,26.7z M24.5,25.3l1.1,1.1l1.2,1.2
		l-2.3,2.3l-2.3-2.3l1.2-1.2L24.5,25.3z M26.8,33.6l-2.3,2.3l-2.3-2.3l2.3-2.3L26.8,33.6z M16.2,27.5l1.2-1.2l1.1-1.1l2.3,2.3
		l-2.3,2.3L16.2,27.5z M19.2,30.6l2.3-2.3l2.3,2.3l-2.3,2.3L19.2,30.6z M19.2,36.7l2.3-2.3l2.3,2.3l-2.3,2.3L19.2,36.7z M26.8,45.8
		L24.5,48l-2.3-2.3l2.3-2.3L26.8,45.8z M24.5,42l-2.3-2.3l2.3-2.3l2.3,2.3L24.5,42z M29.8,36.7l-2.3,2.3l-2.3-2.3l2.3-2.3L29.8,36.7
		z M27.5,32.9l-2.3-2.3l2.3-2.3l2.3,2.3L27.5,32.9z M30.6,29.8l-2.3-2.3l2.3-2.3l1.1,1.1l1.2,1.2L30.6,29.8z"/>
	<polygon fill="#F7AE46" points="34.2,24.8 33.8,26.3 15.2,26.3 14.8,24.8 	"/>
	<g>
		<polygon fill="#F4A240" points="21,26.3 19.5,26.3 18.4,25.3 17.4,26.3 15.9,26.3 17.4,24.8 19.5,24.8 		"/>
		<polygon fill="#F4A240" points="27.1,26.3 25.6,26.3 24.5,25.3 23.4,26.3 21.9,26.3 23.5,24.8 25.5,24.8 		"/>
		<polygon fill="#F4A240" points="33.1,26.3 31.6,26.3 30.6,25.3 29.5,26.3 28,26.3 29.5,24.8 31.6,24.8 		"/>
	</g>
	<path fill="#FF7058" d="M35.1,8c-0.3,0-0.6-0.1-0.8-0.4c0,0,0,0,0,0c-0.2-0.3-0.6-0.5-0.9-0.4c-0.8,0.2-1.1-0.2-1.1-0.2
		c-1.2-1-1.2,0.7-1.1,1.6c0.1,0.5-0.3,1-0.7,1.1c-0.3,0.1-0.6,0-0.8-0.1C29.3,9.2,29,8.8,29,8.3C29,7.5,28.6,7,28.6,7
		c-0.6-0.8-1-0.4-1.3,0c-0.1,0.2-0.2,0.5-0.2,0.8c0,0.8-0.4,1.3-0.8,1.5c-0.4,0.2-0.6,0.7-0.6,1.1c0.3,3-0.8,2.6-0.8,2.6
		c-2,0-1.3-3.7-1.3-3.7c-0.1-0.5-0.4-0.6-0.7-0.7c-0.4,0-0.8,0.2-1,0.6c-0.4,0.6-1,0.8-1,0.8c-1.3,0.4-1.8-0.3-2-1
		c-0.1-0.5-0.1-1,0.1-1.4C19.3,6.7,19.2,6,19.2,6c-1.1-0.8-1.8,0.7-2.1,1.5c-0.2,0.5-0.5,0.9-1,1c-1.3,0.5-0.7-1.7-0.7-1.7l-0.8-0.7
		c1.9-3.4,5.6-5.7,9.8-5.7C29.4,0.5,33.5,3.6,35.1,8z"/>
</g>
</svg>
