<?xml version="1.0" encoding="utf-8"?>
<!-- Generator: Adobe Illustrator 18.0.0, SVG Export Plug-In . SVG Version: 6.00 Build 0)  -->
<!DOCTYPE svg PUBLIC "-//W3C//DTD SVG 1.1//EN" "http://www.w3.org/Graphics/SVG/1.1/DTD/svg11.dtd">
<svg version="1.1" id="Layer_1" xmlns="http://www.w3.org/2000/svg" xmlns:xlink="http://www.w3.org/1999/xlink" x="0px" y="0px"
	 viewBox="0 0 512 512" enable-background="new 0 0 512 512" xml:space="preserve">
<g>
	<circle fill="#40596B" cx="256" cy="311.4" r="198.6"/>
	<path fill="#334A5E" d="M297.6,89.9h-83.3c-24.2,0-44-19.7-44-44s19.7-44,44-44h83.3c24.2,0,44,19.7,44,44S321.9,89.9,297.6,89.9z
		 M214.4,25.1c-11.5,0-20.8,9.4-20.8,20.8s9.4,20.8,20.8,20.8h83.3c11.5,0,20.8-9.4,20.8-20.8s-9.4-20.8-20.8-20.8H214.4z"/>
	<path fill="#4CDBC4" d="M132.6,155.8c-9.2,7.2-17.7,15.2-25.3,24l-14.9-14.9l24.7-24.7L132.6,155.8z"/>
	
		<rect x="63.6" y="129.5" transform="matrix(0.7071 -0.7071 0.7071 0.7071 -72.7414 109.7153)" fill="#3DC9AE" width="64.9" height="26.3"/>
	<path fill="#4CDBC4" d="M419.2,164.9l-14.6,14.7c-7.8-8.8-16.3-16.8-25.4-24l15.3-15.3L419.2,164.9z"/>
	
		<rect x="383.1" y="129.5" transform="matrix(-0.7071 -0.7071 0.7071 -0.7071 608.5638 537.404)" fill="#3DC9AE" width="64.9" height="26.3"/>
	<path fill="#FFFFFF" d="M408.4,311.4c0,1.4,0,2.8-0.2,4.2c-0.4,17.6-3.9,34.6-9.9,50.2c-0.9,2.6-2,5.2-3.2,7.7
		c-7,15.8-16.7,30.1-28.5,42.5c-1.8,2.1-3.8,4-5.9,5.9c-12.4,11.7-26.7,21.4-42.5,28.4c-2.5,1.2-5.1,2.3-7.7,3.2
		c-15.6,6.1-32.6,9.6-50.2,9.9c-1.4,0.2-2.8,0.2-4.2,0.2c-1.4,0-2.9,0-4.2-0.2c-17.6-0.4-34.6-3.9-50.2-9.9c-2.6-1-5.2-2.1-7.7-3.2
		c-15.8-7-30.1-16.7-42.5-28.4c-2-1.9-4-3.9-5.9-5.9c-11.8-12.4-21.5-26.7-28.5-42.5c-1.2-2.5-2.3-5.1-3.2-7.7
		c-6.1-15.6-9.6-32.6-9.9-50.2c-0.2-1.4-0.2-2.8-0.2-4.2c0-1.4,0-2.8,0.2-4.2c0.4-17.6,3.9-34.6,9.9-50.2c1-2.6,2.1-5.2,3.2-7.7
		c7.1-15.8,16.7-30.2,28.6-42.6c1.8-2,3.9-4,5.9-5.9c12.4-11.8,26.7-21.5,42.5-28.5c2.5-1.2,5.1-2.2,7.7-3.2
		c15.6-6,32.6-9.6,50.2-9.9c1.4-0.2,2.9-0.2,4.2-0.2c1.4,0,2.8,0,4.2,0.2c17.6,0.4,34.6,3.9,50.2,9.9c2.6,0.9,5.2,2,7.7,3.2
		c15.8,7,30.1,16.7,42.5,28.5c2.1,1.8,4,3.9,5.9,5.9c11.9,12.4,21.5,26.8,28.6,42.6c1.2,2.5,2.2,5.1,3.2,7.7
		c6,15.6,9.5,32.6,9.9,50.2C408.4,308.6,408.4,310,408.4,311.4z"/>
	<path fill="#40596B" d="M256,112.8c11.1,0,21.9,0.9,32.5,2.7V46h-65v69.5C234.1,113.7,244.9,112.8,256,112.8z"/>
	<path fill="#FFFFFF" d="M256,454.8c-79.1,0-143.4-64.3-143.4-143.4S176.9,168,256,168s143.4,64.3,143.4,143.4
		S335.1,454.8,256,454.8z"/>
	<path fill="#293C4F" d="M259.9,168.1v20.7H252v-20.7c1.3-0.1,2.7-0.1,4-0.1C257.3,168,258.6,168,259.9,168.1z"/>
	<path fill="#293C4F" d="M259.9,434v20.6c-1.3,0.1-2.6,0.1-3.9,0.1c-1.3,0-2.7,0-4-0.1V434H259.9z"/>
	<path fill="#293C4F" d="M212.7,196.6l-7.3,3l-7.9-19.1c2.4-1.1,4.8-2.1,7.3-3L212.7,196.6z"/>
	<path fill="#293C4F" d="M314.5,442.2c-2.4,1.2-4.8,2.2-7.3,3l-7.9-19.1l7.3-3L314.5,442.2z"/>
	<path fill="#293C4F" d="M172.1,221.9l-5.6,5.5L152,212.8c1.7-1.9,3.6-3.8,5.5-5.5L172.1,221.9z"/>
	<path fill="#293C4F" d="M360,409.9c-1.7,2-3.6,3.8-5.5,5.6l-14.6-14.6l5.6-5.6L360,409.9z"/>
	<path fill="#293C4F" d="M144.2,260.8l-3,7.3l-19.1-7.9c0.9-2.5,2-4.9,3-7.3L144.2,260.8z"/>
	<path fill="#293C4F" d="M389.9,362.6c-0.9,2.5-1.9,4.9-3,7.3l-19.1-7.9l3-7.3L389.9,362.6z"/>
	<path fill="#293C4F" d="M133.3,307.5v7.8h-20.6c-0.1-1.3-0.1-2.6-0.1-3.9c0-1.3,0-2.6,0.1-3.9H133.3z"/>
	<path fill="#293C4F" d="M399.4,311.4c0,1.3,0,2.6-0.1,3.9h-20.6v-7.8h20.6C399.4,308.8,399.4,310.1,399.4,311.4z"/>
	<path fill="#293C4F" d="M144.2,361.9l-19.1,7.9c-1.2-2.4-2.2-4.8-3-7.3l19.1-7.9L144.2,361.9z"/>
	<path fill="#293C4F" d="M390,260.2l-19.1,7.9l-3-7.3l19.1-7.9C388,255.3,389,257.7,390,260.2z"/>
	<path fill="#293C4F" d="M172.1,400.9l-14.6,14.6c-1.9-1.8-3.8-3.6-5.5-5.6l14.5-14.6L172.1,400.9z"/>
	<path fill="#293C4F" d="M360,212.8l-14.5,14.6l-5.6-5.5l14.6-14.6C356.5,209.1,358.3,211,360,212.8z"/>
	<path fill="#293C4F" d="M212.7,426.2l-7.9,19.1c-2.5-0.9-4.9-2-7.3-3l7.9-19.1L212.7,426.2z"/>
	<path fill="#293C4F" d="M314.5,180.5l-7.9,19.1l-7.3-3l7.9-19.1C309.7,178.3,312.1,179.3,314.5,180.5z"/>
	<g>
		<path fill="#FF7058" d="M231.9,314.7l-55.6-37.1l65,15.5c6.8-5.1,16-6.6,24.3-2.9c12.3,5.4,17.9,19.6,12.5,31.9
			c-5.4,12.3-19.6,17.9-31.9,12.5C238,330.9,232.7,323.1,231.9,314.7z"/>
		<circle fill="#FFFFFF" cx="256" cy="312.3" r="12.6"/>
	</g>
</g>
</svg>
