<?xml version="1.0" encoding="utf-8"?>
<!-- Generator: Adobe Illustrator 18.0.0, SVG Export Plug-In . SVG Version: 6.00 Build 0)  -->
<!DOCTYPE svg PUBLIC "-//W3C//DTD SVG 1.1//EN" "http://www.w3.org/Graphics/SVG/1.1/DTD/svg11.dtd">
<svg version="1.1" id="Layer_1" xmlns="http://www.w3.org/2000/svg" xmlns:xlink="http://www.w3.org/1999/xlink" x="0px" y="0px"
	 viewBox="0 0 48 48" enable-background="new 0 0 48 48" xml:space="preserve">
<g>
	<path fill="#F2F2F2" d="M38.5,0H9.5c-1.7,0-3,1.3-3,3v42c0,1.7,1.3,3,3,3h28.9c1.7,0,3-1.3,3-3V3C41.5,1.3,40.1,0,38.5,0z"/>
	<polygon fill="#FF7058" points="29.9,24 24,31.8 18.1,24 24,16.2 	"/>
	<g>
		<polygon fill="#FF7058" points="18.1,8.8 14.1,14.1 10,8.8 14.1,3.5 		"/>
		<polygon fill="#FF7058" points="38,8.8 33.9,14.1 29.9,8.8 33.9,3.5 		"/>
	</g>
	<g>
		<polygon fill="#FF7058" points="18.1,39.2 14.1,44.5 10,39.2 14.1,33.9 		"/>
		<polygon fill="#FF7058" points="38,39.2 33.9,44.5 29.9,39.2 33.9,33.9 		"/>
	</g>
</g>
</svg>
