<?xml version="1.0" encoding="utf-8"?>
<!-- Generator: Adobe Illustrator 18.0.0, SVG Export Plug-In . SVG Version: 6.00 Build 0)  -->
<!DOCTYPE svg PUBLIC "-//W3C//DTD SVG 1.1//EN" "http://www.w3.org/Graphics/SVG/1.1/DTD/svg11.dtd">
<svg version="1.1" id="Layer_1" xmlns="http://www.w3.org/2000/svg" xmlns:xlink="http://www.w3.org/1999/xlink" x="0px" y="0px"
	 viewBox="0 0 48 48" enable-background="new 0 0 48 48" xml:space="preserve">
<g>
	<g>
		<g>
			<path fill="#55C0EB" d="M45,2.8H9.7c-1.7,0-3,1.3-3,3v21.4c0,1.7,1.3,3,3,3H45c1.7,0,3-1.3,3-3V5.8C48,4.2,46.7,2.8,45,2.8z"/>
			<rect x="6.7" y="7.9" fill="#415A6B" width="41.3" height="5.3"/>
			<g>
				<rect x="11.7" y="20.1" fill="#FFFFFF" width="28.5" height="1.3"/>
				<rect x="11.7" y="23.4" fill="#FFFFFF" width="31.3" height="1.3"/>
			</g>
		</g>
		<g>
			<g>
				<g>
					<path fill="#8AD7F8" d="M38.3,45.2H3c-1.7,0-3-1.3-3-3V20.8c0-1.7,1.3-3,3-3h35.3c1.7,0,3,1.3,3,3v21.4
						C41.3,43.8,40,45.2,38.3,45.2z"/>
				</g>
				<g>
					<g>
						<g>
							<circle fill="#FFD15C" cx="6.8" cy="26.3" r="3.3"/>
						</g>
					</g>
					<g>
						<circle fill="#F3705A" cx="11.6" cy="26.3" r="3.3"/>
					</g>
				</g>
			</g>
			<g>
				<rect x="22.5" y="27.6" fill="#FFFFFF" width="8.6" height="1.3"/>
			</g>
			<g>
				<rect x="22.5" y="24.3" fill="#FFFFFF" width="14.2" height="1.3"/>
			</g>
		</g>
		<g>
			<g>
				<rect x="30.8" y="38.4" fill="#FFFFFF" width="5.9" height="2"/>
			</g>
			<g>
				<rect x="21.9" y="38.4" fill="#FFFFFF" width="5.9" height="2"/>
			</g>
			<g>
				<rect x="13" y="38.4" fill="#FFFFFF" width="5.9" height="2"/>
			</g>
			<g>
				<rect x="4.2" y="38.4" fill="#FFFFFF" width="5.9" height="2"/>
			</g>
		</g>
	</g>
</g>
</svg>
