<?xml version="1.0" encoding="utf-8"?>
<!-- Generator: Adobe Illustrator 18.0.0, SVG Export Plug-In . SVG Version: 6.00 Build 0)  -->
<!DOCTYPE svg PUBLIC "-//W3C//DTD SVG 1.1//EN" "http://www.w3.org/Graphics/SVG/1.1/DTD/svg11.dtd">
<svg version="1.1" id="Layer_1" xmlns="http://www.w3.org/2000/svg" xmlns:xlink="http://www.w3.org/1999/xlink" x="0px" y="0px"
	 viewBox="0 0 48 48" enable-background="new 0 0 48 48" xml:space="preserve">
<g>
	<path fill="#F2F2F2" d="M29.1-0.1H2c-1.1,0-2,0.9-2,2v44c0,1.1,0.9,2,2,2h34.6c1.1,0,2-0.9,2-2V9.4L29.1-0.1z"/>
	<path fill="#CDD6E0" d="M29.1,7.4c0,1.1,0.9,2,2,2h7.5l-9.5-9.5V7.4z"/>
	<g>
		<rect x="5.2" y="5.9" fill="#CDD6E0" width="18" height="2.5"/>
		<rect x="5.2" y="13.5" fill="#CDD6E0" width="28.3" height="2.5"/>
		<rect x="5.2" y="21.1" fill="#CDD6E0" width="28.3" height="2.5"/>
		<rect x="20.6" y="28.7" fill="#84DBFF" width="13" height="2.5"/>
		<path fill="#ACB3BA" d="M14.6,30.4L14.6,30.4c-0.3-0.3-0.5-0.7-0.5-1.2v0c0-0.9-0.7-1.7-1.7-1.7h0c-0.4,0-0.9-0.2-1.2-0.5v0
			c-0.6-0.6-1.7-0.6-2.3,0v0c-0.3,0.3-0.7,0.5-1.2,0.5c-0.9,0-1.7,0.7-1.7,1.7v0c0,0.4-0.2,0.9-0.5,1.2h0c-0.6,0.6-0.6,1.7,0,2.3h0
			c0.3,0.3,0.5,0.7,0.5,1.2v0c0,0.9,0.7,1.7,1.7,1.7c0.4,0,0.9,0.2,1.2,0.5c0.6,0.6,1.7,0.6,2.3,0c0.3-0.3,0.7-0.5,1.2-0.5h0
			c0.9,0,1.7-0.7,1.7-1.7v0c0-0.4,0.2-0.9,0.5-1.2h0C15.2,32.1,15.2,31.1,14.6,30.4z M10.1,34.9c-1.8,0-3.3-1.5-3.3-3.3
			c0-1.8,1.5-3.3,3.3-3.3c1.8,0,3.3,1.5,3.3,3.3C13.5,33.4,12,34.9,10.1,34.9z"/>
		<circle fill="#CDD6E0" cx="10.1" cy="31.6" r="2.4"/>
	</g>
	<g>
		<path fill="#FFD15C" d="M44.6,22.9c0,0-2.1-1.7-7,3.5l-3.3,3.3c0,0,1.1,0.7,2-0.7l3.2-3.2c0,0,1.1-1.3,2.1-0.2L44.6,22.9z"/>
		<path fill="#40596B" d="M44.5,22.3c-8,8.5-13.4,13-22.2,23.9c0.7,0.7,0.5,0.5,1.2,1.2c10.9-8.8,15.4-14.2,23.9-22.2
			c0.8-0.7,0.7-2-0.1-2.8v0C46.5,21.6,45.2,21.5,44.5,22.3z"/>
		<path fill="#FFD15C" d="M41,31.4c1-0.9,1.9-1.9,2.9-2.9l-2.8-2.8c-1,1-2,2-2.9,2.9L41,31.4z"/>
		<path fill="#FFD15C" d="M25.2,42.7c-0.9,1.1-1.9,2.2-2.9,3.5c0.7,0.7,0.5,0.5,1.2,1.2c1.2-1,2.4-1.9,3.5-2.9L25.2,42.7z"/>
		<polygon fill="#40596B" points="21.6,48.1 22.3,46.2 23.5,47.4 		"/>
	</g>
</g>
</svg>
