<?xml version="1.0" encoding="utf-8"?>
<!-- Generator: Adobe Illustrator 18.0.0, SVG Export Plug-In . SVG Version: 6.00 Build 0)  -->
<!DOCTYPE svg PUBLIC "-//W3C//DTD SVG 1.1//EN" "http://www.w3.org/Graphics/SVG/1.1/DTD/svg11.dtd">
<svg version="1.1" id="Layer_1" xmlns="http://www.w3.org/2000/svg" xmlns:xlink="http://www.w3.org/1999/xlink" x="0px" y="0px"
	 viewBox="0 0 48 48" enable-background="new 0 0 48 48" xml:space="preserve">
<g>
	<g>
		<path fill="#F2F2F2" d="M22.7,43V9.8c0-1.1,0.9-2,2-2H44c1.1,0,2,0.9,2,2V43c0,1.1-0.9,2-2,2H24.7C23.6,45,22.7,44.1,22.7,43z"/>
		<rect x="26.3" y="35.4" fill="#ACB3BA" width="2.9" height="6.6"/>
		<rect x="26.3" y="27.2" fill="#CDD6E0" width="2.9" height="6.6"/>
		<rect x="26.3" y="18.9" fill="#ACB3BA" width="2.9" height="6.6"/>
		<rect x="26.3" y="10.7" fill="#CDD6E0" width="2.9" height="6.6"/>
		<rect x="32.9" y="10.7" fill="#54C0EB" width="2.9" height="19.4"/>
		<rect x="39.4" y="10.7" fill="#84DBFF" width="2.9" height="14.5"/>
		<g>
			<circle fill="#FF7058" cx="39" cy="38.7" r="3.3"/>
			<circle fill="#FFD15C" cx="39" cy="34.7" r="3.3"/>
		</g>
	</g>
	<path fill="#40596B" d="M28.6,48H4c-1.1,0-2-0.9-2-2V6.8c0-1.1,0.9-2,2-2h24.6c1.1,0,2,0.9,2,2V46C30.6,47.1,29.7,48,28.6,48z"/>
	<rect x="5.7" y="13.5" fill="#54C0EB" width="21.2" height="8.8"/>
	<g>
		<path fill="#CDD6E0" d="M24.4,44L24.4,44c-1.4,0-2.6-1.2-2.6-2.6l0,0c0-1.4,1.2-2.6,2.6-2.6l0,0c1.4,0,2.6,1.2,2.6,2.6l0,0
			C26.9,42.8,25.8,44,24.4,44z"/>
		<path fill="#CDD6E0" d="M16.3,44L16.3,44c-1.4,0-2.6-1.2-2.6-2.6l0,0c0-1.4,1.2-2.6,2.6-2.6l0,0c1.4,0,2.6,1.2,2.6,2.6l0,0
			C18.9,42.8,17.8,44,16.3,44z"/>
		<path fill="#CDD6E0" d="M8.3,44L8.3,44c-1.4,0-2.6-1.2-2.6-2.6l0,0c0-1.4,1.2-2.6,2.6-2.6h0c1.4,0,2.6,1.2,2.6,2.6l0,0
			C10.9,42.8,9.7,44,8.3,44z"/>
		<path fill="#CDD6E0" d="M24.4,36.8L24.4,36.8c-1.4,0-2.6-1.2-2.6-2.6l0,0c0-1.4,1.2-2.6,2.6-2.6l0,0c1.4,0,2.6,1.2,2.6,2.6l0,0
			C26.9,35.6,25.8,36.8,24.4,36.8z"/>
		<path fill="#CDD6E0" d="M16.3,36.8L16.3,36.8c-1.4,0-2.6-1.2-2.6-2.6l0,0c0-1.4,1.2-2.6,2.6-2.6l0,0c1.4,0,2.6,1.2,2.6,2.6l0,0
			C18.9,35.6,17.8,36.8,16.3,36.8z"/>
		<path fill="#CDD6E0" d="M8.3,36.8L8.3,36.8c-1.4,0-2.6-1.2-2.6-2.6l0,0c0-1.4,1.2-2.6,2.6-2.6h0c1.4,0,2.6,1.2,2.6,2.6l0,0
			C10.9,35.6,9.7,36.8,8.3,36.8z"/>
		<path fill="#CDD6E0" d="M24.4,29.6L24.4,29.6c-1.4,0-2.6-1.2-2.6-2.6l0,0c0-1.4,1.2-2.6,2.6-2.6l0,0c1.4,0,2.6,1.2,2.6,2.6l0,0
			C26.9,28.4,25.8,29.6,24.4,29.6z"/>
		<path fill="#CDD6E0" d="M16.3,29.6L16.3,29.6c-1.4,0-2.6-1.2-2.6-2.6l0,0c0-1.4,1.2-2.6,2.6-2.6l0,0c1.4,0,2.6,1.2,2.6,2.6l0,0
			C18.9,28.4,17.8,29.6,16.3,29.6z"/>
		<path fill="#CDD6E0" d="M8.3,29.6L8.3,29.6c-1.4,0-2.6-1.2-2.6-2.6l0,0c0-1.4,1.2-2.6,2.6-2.6h0c1.4,0,2.6,1.2,2.6,2.6l0,0
			C10.9,28.4,9.7,29.6,8.3,29.6z"/>
	</g>
	<path fill="#334A5E" d="M26.2,11.6H6.5c-0.4,0-0.8-0.3-0.8-0.8l0,0c0-0.4,0.3-0.8,0.8-0.8h19.7c0.4,0,0.8,0.3,0.8,0.8l0,0
		C26.9,11.3,26.6,11.6,26.2,11.6z"/>
	<rect x="7.1" y="0" fill="#F2F2F2" width="18.6" height="10.9"/>
	<g>
		<rect x="9.2" y="1.5" fill="#CDD6E0" width="14.2" height="1.8"/>
		<rect x="9.2" y="4.6" fill="#CDD6E0" width="14.2" height="1.8"/>
		<rect x="9.2" y="7.6" fill="#CDD6E0" width="14.2" height="1.8"/>
	</g>
</g>
</svg>
