<?xml version="1.0" encoding="utf-8"?>
<!-- Generator: Adobe Illustrator 18.0.0, SVG Export Plug-In . SVG Version: 6.00 Build 0)  -->
<!DOCTYPE svg PUBLIC "-//W3C//DTD SVG 1.1//EN" "http://www.w3.org/Graphics/SVG/1.1/DTD/svg11.dtd">
<svg version="1.1" id="Layer_1" xmlns="http://www.w3.org/2000/svg" xmlns:xlink="http://www.w3.org/1999/xlink" x="0px" y="0px"
	 viewBox="0 0 512 512" enable-background="new 0 0 512 512" xml:space="preserve">
<g>
	<rect x="206.8" y="411.6" fill="#65C5B8" width="98.4" height="98.4"/>
	<rect x="305.2" y="443.8" fill="#CDD5DF" width="204.8" height="34"/>
	<rect x="239" y="375.5" fill="#CDD5DF" width="34" height="37.4"/>
	<rect x="2" y="443.8" fill="#CDD5DF" width="204.8" height="34"/>
	<path fill="#FFD05C" d="M256,2c-60.3,0-111.3,48.4-111.3,105.7v52.2h45.2v-52.2c0-32.2,30.9-60.5,66.2-60.5
		c35.3,0,66.2,28.3,66.2,60.5v52.2h45.2v-52.2C367.3,50.4,316.3,2,256,2z"/>
	<path fill="#F2705B" d="M382.7,157.5H129.3c-11.7,0-21.2,9.5-21.2,21.2v175.7c0,11.7,9.5,21.2,21.2,21.2h253.5
		c11.7,0,21.2-9.5,21.2-21.2V178.6C403.9,166.9,394.4,157.5,382.7,157.5z"/>
	<path fill="#41596B" d="M289.9,249c0-21.1-19.3-37.7-41.2-33.1c-12.9,2.7-23.2,13.1-25.9,26c-3.1,15.1,3.9,29,15.5,36v22.3
		c0,9.7,7.9,17.6,17.6,17.6l0,0c9.7,0,17.6-7.9,17.6-17.6v-22.3C283.4,272,289.9,261.3,289.9,249z"/>
</g>
</svg>
