<?xml version="1.0" encoding="utf-8"?>
<!-- Generator: Adobe Illustrator 18.0.0, SVG Export Plug-In . SVG Version: 6.00 Build 0)  -->
<!DOCTYPE svg PUBLIC "-//W3C//DTD SVG 1.1//EN" "http://www.w3.org/Graphics/SVG/1.1/DTD/svg11.dtd">
<svg version="1.1" id="Layer_1" xmlns="http://www.w3.org/2000/svg" xmlns:xlink="http://www.w3.org/1999/xlink" x="0px" y="0px"
	 viewBox="0 0 48 48" enable-background="new 0 0 48 48" xml:space="preserve">
<g>
	<path fill="#F2F2F2" d="M34.9,0H13.1c-1.1,0-2,0.9-2,2v44c0,1.1,0.9,2,2,2h32.7c1.1,0,2-0.9,2-2V12.9L34.9,0z"/>
	<path fill="#CDD6E0" d="M34.9,10.9c0,1.1,0.9,2,2,2h10.9L34.9,0V10.9z"/>
	<g>
		<g>
			<path fill="#F8B64C" d="M21.3,43.1c0,2.7-4.7,4.9-10.5,4.9c-5.8,0-10.5-2.2-10.5-4.9v-3.3h21.1V43.1z"/>
			<g>
				<ellipse fill="#FFD15C" cx="10.7" cy="39.8" rx="10.5" ry="4.9"/>
				<ellipse fill="#F8B64C" cx="10.7" cy="39.8" rx="8.6" ry="4"/>
				<g>
					<path fill="#FFD15C" d="M10.2,41.5V40c-1-0.1-1.8-0.3-2.3-0.6s-0.7-0.6-0.7-1c0-0.4,0.3-0.7,0.8-1c0.5-0.3,1.3-0.4,2.2-0.5
						v-0.4h1.1v0.4c0.8,0,1.5,0.2,2,0.4c0.5,0.2,0.8,0.5,0.9,0.9l-2,0.1c-0.1-0.3-0.4-0.5-0.9-0.6v1.4c1.3,0.2,2.1,0.4,2.6,0.6
						c0.5,0.3,0.7,0.6,0.7,1c0,0.4-0.3,0.8-0.9,1.1c-0.6,0.3-1.4,0.5-2.4,0.6v0.7h-1.1v-0.7c-0.9-0.1-1.7-0.2-2.2-0.5
						c-0.6-0.3-0.9-0.6-1.1-1.1l2.1-0.1c0.1,0.2,0.2,0.4,0.5,0.5C9.6,41.4,9.9,41.5,10.2,41.5z M10.2,37.7c-0.3,0-0.6,0.1-0.7,0.2
						s-0.3,0.2-0.3,0.4c0,0.1,0.1,0.2,0.3,0.4c0.2,0.1,0.4,0.2,0.8,0.3V37.7z M11.3,41.6c0.4,0,0.7-0.1,1-0.3
						c0.2-0.1,0.4-0.3,0.4-0.5c0-0.2-0.1-0.3-0.3-0.4c-0.2-0.1-0.5-0.2-1-0.3V41.6z"/>
				</g>
			</g>
		</g>
		<g>
			<path fill="#F8B64C" d="M21.3,39c0,2.7-4.7,4.9-10.5,4.9c-5.8,0-10.5-2.2-10.5-4.9v-3.3h21.1V39z"/>
			<g>
				<ellipse fill="#FFD15C" cx="10.7" cy="35.7" rx="10.5" ry="4.9"/>
				<ellipse fill="#F8B64C" cx="10.7" cy="35.7" rx="8.6" ry="4"/>
				<g>
					<path fill="#FFD15C" d="M10.2,37.5v-1.5c-1-0.1-1.8-0.3-2.3-0.6s-0.7-0.6-0.7-1c0-0.4,0.3-0.7,0.8-1c0.5-0.3,1.3-0.4,2.2-0.5
						v-0.4h1.1v0.4c0.8,0,1.5,0.2,2,0.4c0.5,0.2,0.8,0.5,0.9,0.9l-2,0.1c-0.1-0.3-0.4-0.5-0.9-0.6v1.4c1.3,0.2,2.1,0.4,2.6,0.6
						c0.5,0.3,0.7,0.6,0.7,1c0,0.4-0.3,0.8-0.9,1.1c-0.6,0.3-1.4,0.5-2.4,0.6V39h-1.1v-0.7c-0.9-0.1-1.7-0.2-2.2-0.5
						c-0.6-0.3-0.9-0.6-1.1-1.1l2.1-0.1C9,36.8,9.2,37,9.4,37.1C9.6,37.3,9.9,37.4,10.2,37.5z M10.2,33.6c-0.3,0-0.6,0.1-0.7,0.2
						s-0.3,0.2-0.3,0.4c0,0.1,0.1,0.2,0.3,0.4c0.2,0.1,0.4,0.2,0.8,0.3V33.6z M11.3,37.5c0.4,0,0.7-0.1,1-0.3
						c0.2-0.1,0.4-0.3,0.4-0.5c0-0.2-0.1-0.3-0.3-0.4c-0.2-0.1-0.5-0.2-1-0.3V37.5z"/>
				</g>
			</g>
		</g>
		<g>
			<path fill="#F8B64C" d="M21.3,34.9c0,2.7-4.7,4.9-10.5,4.9c-5.8,0-10.5-2.2-10.5-4.9v-3.3h21.1V34.9z"/>
			<g>
				<ellipse fill="#FFD15C" cx="10.7" cy="31.7" rx="10.5" ry="4.9"/>
				<ellipse fill="#F8B64C" cx="10.7" cy="31.7" rx="8.6" ry="4"/>
				<g>
					<path fill="#FFD15C" d="M10.2,33.4v-1.5c-1-0.1-1.8-0.3-2.3-0.6s-0.7-0.6-0.7-1c0-0.4,0.3-0.7,0.8-1c0.5-0.3,1.3-0.4,2.2-0.5
						v-0.4h1.1v0.4c0.8,0,1.5,0.2,2,0.4c0.5,0.2,0.8,0.5,0.9,0.9l-2,0.1c-0.1-0.3-0.4-0.5-0.9-0.6V31c1.3,0.2,2.1,0.4,2.6,0.6
						c0.5,0.3,0.7,0.6,0.7,1c0,0.4-0.3,0.8-0.9,1.1c-0.6,0.3-1.4,0.5-2.4,0.6v0.7h-1.1v-0.7c-0.9-0.1-1.7-0.2-2.2-0.5
						c-0.6-0.3-0.9-0.6-1.1-1.1l2.1-0.1c0.1,0.2,0.2,0.4,0.5,0.5C9.6,33.2,9.9,33.3,10.2,33.4z M10.2,29.6c-0.3,0-0.6,0.1-0.7,0.2
						s-0.3,0.2-0.3,0.4c0,0.1,0.1,0.2,0.3,0.4c0.2,0.1,0.4,0.2,0.8,0.3V29.6z M11.3,33.4c0.4,0,0.7-0.1,1-0.3
						c0.2-0.1,0.4-0.3,0.4-0.5c0-0.2-0.1-0.3-0.3-0.4c-0.2-0.1-0.5-0.2-1-0.3V33.4z"/>
				</g>
			</g>
		</g>
		<g>
			<path fill="#F8B64C" d="M21.3,30.9c0,2.7-4.7,4.9-10.5,4.9c-5.8,0-10.5-2.2-10.5-4.9v-3.3h21.1V30.9z"/>
			<g>
				<ellipse fill="#FFD15C" cx="10.7" cy="27.6" rx="10.5" ry="4.9"/>
				<ellipse fill="#F8B64C" cx="10.7" cy="27.6" rx="8.6" ry="4"/>
				<g>
					<path fill="#FFD15C" d="M10.2,29.3v-1.5c-1-0.1-1.8-0.3-2.3-0.6c-0.5-0.3-0.7-0.6-0.7-1c0-0.4,0.3-0.7,0.8-1
						c0.5-0.3,1.3-0.4,2.2-0.5v-0.4h1.1v0.4c0.8,0,1.5,0.2,2,0.4c0.5,0.2,0.8,0.5,0.9,0.9l-2,0.1c-0.1-0.3-0.4-0.5-0.9-0.6v1.4
						c1.3,0.2,2.1,0.4,2.6,0.6c0.5,0.3,0.7,0.6,0.7,1c0,0.4-0.3,0.8-0.9,1.1c-0.6,0.3-1.4,0.5-2.4,0.6v0.7h-1.1v-0.7
						C9.3,30.1,8.5,30,8,29.7c-0.6-0.3-0.9-0.6-1.1-1.1l2.1-0.1C9,28.7,9.2,28.9,9.4,29C9.6,29.1,9.9,29.3,10.2,29.3z M10.2,25.5
						c-0.3,0-0.6,0.1-0.7,0.2S9.2,26,9.2,26.1c0,0.1,0.1,0.2,0.3,0.4c0.2,0.1,0.4,0.2,0.8,0.3V25.5z M11.3,29.4c0.4,0,0.7-0.1,1-0.3
						c0.2-0.1,0.4-0.3,0.4-0.5c0-0.2-0.1-0.3-0.3-0.4c-0.2-0.1-0.5-0.2-1-0.3V29.4z"/>
				</g>
			</g>
		</g>
		<g>
			<path fill="#F8B64C" d="M21.3,26.8c0,2.7-4.7,4.9-10.5,4.9c-5.8,0-10.5-2.2-10.5-4.9v-3.3h21.1V26.8z"/>
			<g>
				<ellipse fill="#FFD15C" cx="10.7" cy="23.5" rx="10.5" ry="4.9"/>
				<ellipse fill="#F8B64C" cx="10.7" cy="23.5" rx="8.6" ry="4"/>
				<g>
					<path fill="#FFD15C" d="M10.2,25.2v-1.5c-1-0.1-1.8-0.3-2.3-0.6c-0.5-0.3-0.7-0.6-0.7-1c0-0.4,0.3-0.7,0.8-1
						c0.5-0.3,1.3-0.4,2.2-0.5v-0.4h1.1v0.4c0.8,0,1.5,0.2,2,0.4c0.5,0.2,0.8,0.5,0.9,0.9l-2,0.1c-0.1-0.3-0.4-0.5-0.9-0.6v1.4
						c1.3,0.2,2.1,0.4,2.6,0.6c0.5,0.3,0.7,0.6,0.7,1c0,0.4-0.3,0.8-0.9,1.1c-0.6,0.3-1.4,0.5-2.4,0.6v0.7h-1.1v-0.7
						c-0.9-0.1-1.7-0.2-2.2-0.5C7.4,25.4,7,25,6.9,24.5l2.1-0.1c0.1,0.2,0.2,0.4,0.5,0.5C9.6,25.1,9.9,25.2,10.2,25.2z M10.2,21.4
						c-0.3,0-0.6,0.1-0.7,0.2s-0.3,0.2-0.3,0.4c0,0.1,0.1,0.2,0.3,0.4c0.2,0.1,0.4,0.2,0.8,0.3V21.4z M11.3,25.3
						c0.4,0,0.7-0.1,1-0.3c0.2-0.1,0.4-0.3,0.4-0.5c0-0.2-0.1-0.3-0.3-0.4c-0.2-0.1-0.5-0.2-1-0.3V25.3z"/>
				</g>
			</g>
		</g>
	</g>
	<rect x="13.1" y="2" fill="#84DBFF" width="12.7" height="12.4"/>
	<g>
		<path fill="#FFFFFF" d="M22.4,8.7c-0.7,0.8-1.8,1.4-3,1.4c-1.2,0-2.2-0.5-3-1.4c-1.5,1-2.5,2.6-2.5,4.5h10.9
			C24.9,11.3,23.9,9.7,22.4,8.7z"/>
		<circle fill="#FFFFFF" cx="19.5" cy="6.1" r="2.9"/>
	</g>
	<g>
		<rect x="39.5" y="28.6" fill="#40596B" width="2.3" height="14.2"/>
		<rect x="35" y="31.6" fill="#54C0EB" width="2.3" height="11.2"/>
		<rect x="30.6" y="34.6" fill="#4CDBC4" width="2.3" height="8.2"/>
		<rect x="26.2" y="37.6" fill="#CDD6E0" width="2.3" height="5.2"/>
	</g>
	<polygon fill="#FF7058" points="39.1,26.9 39.1,21.4 33.6,21.4 35.5,23.3 26.6,32.3 28.2,33.9 37.2,25 	"/>
</g>
</svg>
