<?xml version="1.0" encoding="utf-8"?>
<!-- Generator: Adobe Illustrator 18.0.0, SVG Export Plug-In . SVG Version: 6.00 Build 0)  -->
<!DOCTYPE svg PUBLIC "-//W3C//DTD SVG 1.1//EN" "http://www.w3.org/Graphics/SVG/1.1/DTD/svg11.dtd">
<svg version="1.1" id="Layer_1" xmlns="http://www.w3.org/2000/svg" xmlns:xlink="http://www.w3.org/1999/xlink" x="0px" y="0px"
	 viewBox="0 0 512 512" enable-background="new 0 0 512 512" xml:space="preserve">
<g>
	<path fill="#F2F2F2" d="M508,510H4c-1.1,0-2-0.9-2-2V171h508v337C510,509.1,509.1,510,508,510z"/>
	<path fill="#54C0EB" d="M488.8,58.4H23.2C11.5,58.4,2,67.9,2,79.6V171h508V79.6C510,67.9,500.5,58.4,488.8,58.4z"/>
	<rect x="38" y="220.7" fill="#CDD6E0" width="71.5" height="71.5"/>
	<rect x="38" y="402.9" fill="#CDD6E0" width="71.5" height="71.5"/>
	<rect x="38" y="311.8" fill="#CDD6E0" width="71.5" height="71.5"/>
	<rect x="129.1" y="220.7" fill="#CDD6E0" width="71.5" height="71.5"/>
	<rect x="129.1" y="402.9" fill="#CDD6E0" width="71.5" height="71.5"/>
	<rect x="129.1" y="311.8" fill="#CDD6E0" width="71.5" height="71.5"/>
	<rect x="220.2" y="220.7" fill="#CDD6E0" width="71.5" height="71.5"/>
	<rect x="220.2" y="402.9" fill="#CDD6E0" width="71.5" height="71.5"/>
	<rect x="220.2" y="311.8" fill="#CDD6E0" width="71.5" height="71.5"/>
	<rect x="311.3" y="220.7" fill="#CDD6E0" width="71.5" height="71.5"/>
	<rect x="311.3" y="402.9" fill="#CDD6E0" width="71.5" height="71.5"/>
	<rect x="311.3" y="311.8" fill="#FF7058" width="71.5" height="71.5"/>
	<rect x="402.4" y="220.7" fill="#CDD6E0" width="71.5" height="71.5"/>
	<rect x="402.4" y="402.9" fill="#CDD6E0" width="71.5" height="71.5"/>
	<rect x="402.4" y="311.8" fill="#CDD6E0" width="71.5" height="71.5"/>
	<path fill="#40596B" d="M139,114.7H87.6c-1.5,0-2.7-1.2-2.7-2.7V4.7c0-1.5,1.2-2.7,2.7-2.7H139c1.5,0,2.7,1.2,2.7,2.7V112
		C141.6,113.5,140.4,114.7,139,114.7z"/>
	<path fill="#40596B" d="M424.4,114.7H373c-1.5,0-2.7-1.2-2.7-2.7V4.7c0-1.5,1.2-2.7,2.7-2.7h51.4c1.5,0,2.7,1.2,2.7,2.7V112
		C427.1,113.5,425.9,114.7,424.4,114.7z"/>
</g>
</svg>
