<?xml version="1.0" encoding="utf-8"?>
<!-- Generator: Adobe Illustrator 20.1.0, SVG Export Plug-In . SVG Version: 6.00 Build 0)  -->
<!DOCTYPE svg PUBLIC "-//W3C//DTD SVG 1.1//EN" "http://www.w3.org/Graphics/SVG/1.1/DTD/svg11.dtd">
<svg version="1.1" id="Layer_1" xmlns="http://www.w3.org/2000/svg" xmlns:xlink="http://www.w3.org/1999/xlink" x="0px" y="0px"
	 viewBox="0 0 49 49" enable-background="new 0 0 49 49" xml:space="preserve">
<g>
	<path fill="#FF7058" d="M48.1,16.4H0.9c-0.2,0-0.4-0.2-0.4-0.4V3.8c0-0.2,0.2-0.4,0.4-0.4h47.2c0.2,0,0.4,0.2,0.4,0.4V16
		C48.5,16.2,48.3,16.4,48.1,16.4z"/>
	<g>
		<rect x="0.5" y="11.2" fill="#F1543F" width="48" height="2.6"/>
		<rect x="0.5" y="6" fill="#F1543F" width="48" height="2.6"/>
	</g>
	<path fill="#84DBFF" d="M46,16.4v30.1c0,1.1-0.9,2-2,2H5c-1.1,0-2-0.9-2-2V16.4H46z"/>
	<rect x="34.5" y="0.5" fill="#CDD6E0" width="7.3" height="2.9"/>
	<g>
		<rect x="18" y="35.5" fill="#40596B" width="6.5" height="13"/>
		<rect x="24.5" y="35.5" fill="#334A5E" width="6.5" height="13"/>
	</g>
	<g>
		<rect x="7.5" y="23.4" fill="#F2F2F2" width="5.1" height="5.1"/>
		<rect x="21.9" y="23.4" fill="#F2F2F2" width="5.1" height="5.1"/>
		<rect x="36.4" y="23.4" fill="#F2F2F2" width="5.1" height="5.1"/>
	</g>
	<g>
		<rect x="7.5" y="39.4" fill="#F2F2F2" width="5.1" height="5.1"/>
		<rect x="36.4" y="39.4" fill="#F2F2F2" width="5.1" height="5.1"/>
	</g>
	<rect x="3" y="16.4" fill="#54C0EB" width="43.1" height="1.5"/>
</g>
</svg>
