<?xml version="1.0" encoding="utf-8"?>
<!-- Generator: Adobe Illustrator 18.0.0, SVG Export Plug-In . SVG Version: 6.00 Build 0)  -->
<!DOCTYPE svg PUBLIC "-//W3C//DTD SVG 1.1//EN" "http://www.w3.org/Graphics/SVG/1.1/DTD/svg11.dtd">
<svg version="1.1" id="Layer_1" xmlns="http://www.w3.org/2000/svg" xmlns:xlink="http://www.w3.org/1999/xlink" x="0px" y="0px"
	 viewBox="0 0 48 48" enable-background="new 0 0 48 48" xml:space="preserve">
<g>
	<g>
		<path fill="#F2F2F2" d="M30.7,16.9l-7-9.9H0V0h25.2c1.3,0,2.5,0.6,3.3,1.7l7.9,11.2L30.7,16.9z"/>
	</g>
	<path fill="#E8EAEA" d="M30.7,4.8c-2.5,0.2-4.9,1-7,2.3l6.9,9.8l5.7-4L30.7,4.8z"/>
	<path fill="#F2F2F2" d="M46.1,19.8c-0.5-7.3-6.6-13.1-14-13.1c-7.4,0-13.5,5.8-14,13.1H46.1z"/>
	<path fill="#E8EAEA" d="M18.6,16.9c-0.3,0.9-0.5,1.9-0.5,2.9h28.1c-0.1-1-0.3-2-0.5-2.9H18.6z"/>
	<path fill="#F2F2F2" d="M45.5,24H18.6c-1.4,0-2.5-1.1-2.5-2.5c0-1.4,1.1-2.5,2.5-2.5h26.9c1.4,0,2.5,1.1,2.5,2.5
		C48,22.9,46.9,24,45.5,24z"/>
	<g>
		<g>
			<path fill="#84DBFF" d="M29.2,45.1c0-1.6-2.9-5.9-2.9-5.9s-2.9,4.3-2.9,5.9c0,1.6,1.3,2.9,2.9,2.9C27.9,48,29.2,46.7,29.2,45.1z"
				/>
		</g>
		<g>
			<path fill="#84DBFF" d="M40.7,45.1c0-1.6-2.9-5.9-2.9-5.9s-2.9,4.3-2.9,5.9c0,1.6,1.3,2.9,2.9,2.9C39.4,48,40.7,46.7,40.7,45.1z"
				/>
		</g>
	</g>
	<g>
		<g>
			<path fill="#84DBFF" d="M23.4,33.7c0-1.6-2.9-5.9-2.9-5.9s-2.9,4.3-2.9,5.9c0,1.6,1.3,2.9,2.9,2.9C22.1,36.6,23.4,35.3,23.4,33.7
				z"/>
		</g>
		<g>
			<path fill="#84DBFF" d="M35,33.7c0-1.6-2.9-5.9-2.9-5.9s-2.9,4.3-2.9,5.9c0,1.6,1.3,2.9,2.9,2.9C33.7,36.6,35,35.3,35,33.7z"/>
		</g>
		<g>
			<path fill="#84DBFF" d="M46.5,33.7c0-1.6-2.9-5.9-2.9-5.9s-2.9,4.3-2.9,5.9c0,1.6,1.3,2.9,2.9,2.9C45.2,36.6,46.5,35.3,46.5,33.7
				z"/>
		</g>
	</g>
</g>
</svg>
