<?xml version="1.0" encoding="utf-8"?>
<!-- Generator: Adobe Illustrator 18.0.0, SVG Export Plug-In . SVG Version: 6.00 Build 0)  -->
<!DOCTYPE svg PUBLIC "-//W3C//DTD SVG 1.1//EN" "http://www.w3.org/Graphics/SVG/1.1/DTD/svg11.dtd">
<svg version="1.1" id="Layer_1" xmlns="http://www.w3.org/2000/svg" xmlns:xlink="http://www.w3.org/1999/xlink" x="0px" y="0px"
	 viewBox="0 0 48 48" enable-background="new 0 0 48 48" xml:space="preserve">
<g>
	<g>
		<path fill="#F3F3F3" d="M31.5,0H8.2c-1.7,0-3,1.3-3,3v42c0,1.7,1.3,3,3,3h31.6c1.7,0,3-1.3,3-3V11.2L31.5,0z"/>
		<polygon fill="#66C6B9" points="31.5,0 31.5,11.2 42.8,11.2 		"/>
		<g>
			<rect x="10.8" y="6.3" fill="#CED6E0" width="16.7" height="2.4"/>
			<rect x="10.8" y="13.9" fill="#CED6E0" width="26.3" height="2.4"/>
			<rect x="10.8" y="21.4" fill="#CED6E0" width="26.3" height="2.4"/>
			<rect x="10.8" y="29" fill="#CED6E0" width="26.3" height="2.4"/>
		</g>
		<g>
			<g>
				<g>
					<polygon fill="#F05540" points="32.9,45.8 28.9,44.4 26.8,48 22.1,34.9 28.2,32.8 					"/>
				</g>
				<g>
					<polygon fill="#F3705A" points="15.1,45.8 19.1,44.4 21.2,48 25.9,34.9 19.8,32.8 					"/>
				</g>
			</g>
			<g>
				<g>
					<circle fill="#FFD15C" cx="24" cy="29.2" r="9"/>
				</g>
				<g>
					<circle fill="#F7B64C" cx="24" cy="29.2" r="5.6"/>
				</g>
			</g>
		</g>
	</g>
</g>
</svg>
