<?xml version="1.0" encoding="utf-8"?>
<!-- Generator: Adobe Illustrator 18.0.0, SVG Export Plug-In . SVG Version: 6.00 Build 0)  -->
<!DOCTYPE svg PUBLIC "-//W3C//DTD SVG 1.1//EN" "http://www.w3.org/Graphics/SVG/1.1/DTD/svg11.dtd">
<svg version="1.1" id="Layer_1" xmlns="http://www.w3.org/2000/svg" xmlns:xlink="http://www.w3.org/1999/xlink" x="0px" y="0px"
	 viewBox="0 0 512 512" enable-background="new 0 0 512 512" xml:space="preserve">
<g>
	<path fill="#40596B" d="M487.2,2H24.8C12.3,2,2.1,12.2,2.1,24.7v313.9h507.8V24.7C509.9,12.2,499.7,2,487.2,2z"/>
	<path fill="#F2F2F2" d="M2.1,338.6v49.4c0,12.5,10.2,22.7,22.7,22.7H493c9.3,0,16.9-7.6,16.9-16.9v-55.1H2.1z"/>
	<circle fill="#CDD6E0" cx="256" cy="374.6" r="15.2"/>
	<polygon fill="#CDD6E0" points="365.5,467.3 146.5,467.3 167.6,426.5 175.7,410.7 336.3,410.7 344.4,426.5 	"/>
	<path fill="#F2F2F2" d="M423.5,510H88.5v-40.7c0-1.1,0.9-2,2-2h330.9c1.1,0,2,0.9,2,2V510z"/>
	<rect x="35.9" y="33.9" fill="#FFFFFF" width="440.3" height="280.3"/>
	<polygon fill="#ACB3BA" points="344.4,426.5 167.6,426.5 175.7,410.7 336.3,410.7 	"/>
	<polygon fill="#3F2979" points="262.1,101.8 262.1,101 261.2,101.8 	"/>
	<g>
		
			<rect x="132.9" y="146.5" transform="matrix(0.7071 0.7071 -0.7071 0.7071 198.039 -130.0504)" fill="#CDD6E0" width="246.1" height="55"/>
		
			<rect x="183.3" y="88.9" transform="matrix(0.7071 -0.7071 0.7071 0.7071 -7.3625 164.7771)" fill="#F2F2F2" width="23.9" height="4.8"/>
		
			<rect x="208" y="104" transform="matrix(0.7071 -0.7071 0.7071 0.7071 -11.9849 183.8827)" fill="#F2F2F2" width="16" height="4.8"/>
		
			<rect x="219.2" y="124.8" transform="matrix(0.7071 -0.7071 0.7071 0.7071 -22.226 200.6609)" fill="#F2F2F2" width="23.9" height="4.8"/>
		
			<rect x="290.9" y="196.5" transform="matrix(0.7071 -0.7071 0.7071 0.7071 -51.9531 272.4285)" fill="#F2F2F2" width="23.9" height="4.8"/>
		
			<rect x="315.6" y="211.7" transform="matrix(0.7071 -0.7071 0.7071 0.7071 -56.5755 291.5342)" fill="#F2F2F2" width="16" height="4.8"/>
		
			<rect x="326.8" y="232.4" transform="matrix(0.7071 -0.7071 0.7071 0.7071 -66.8167 308.3124)" fill="#F2F2F2" width="23.9" height="4.8"/>
		<path fill="#84DBFF" d="M196.4,220.6l-13-13L310.9,80.3c0.3-0.3,0.9-0.3,1.2,0L323.8,92c0.3,0.3,0.3,0.9,0,1.2L196.4,220.6z"/>
		<path fill="#84DBFF" d="M209.4,233.6l-13-13L323.8,93.3c0.3-0.3,0.9-0.3,1.2,0l11.7,11.7c0.3,0.3,0.3,0.9,0,1.2L209.4,233.6z"/>
		<path fill="#84DBFF" d="M222.4,246.6l-13-13l127.4-127.4c0.3-0.3,0.9-0.3,1.2,0l11.7,11.7c0.3,0.3,0.3,0.9,0,1.2L222.4,246.6z"/>
		<path fill="#84DBFF" d="M318,86.2c-3.6-3.6-9.4-3.6-13,0L183.5,207.7l13,13L318,99.1C321.5,95.5,321.5,89.7,318,86.2z"/>
		<path fill="#54C0EB" d="M330.9,99.1c-3.6-3.6-9.4-3.6-13,0L196.4,220.6l13,13l121.5-121.5C334.5,108.5,334.5,102.7,330.9,99.1z"/>
		<path fill="#84DBFF" d="M343.9,112.1L343.9,112.1c-3.6-3.6-9.4-3.6-13,0L209.4,233.6l13,13L343.9,125
			C347.5,121.5,347.5,115.7,343.9,112.1z"/>
		<path fill="#FFD15C" d="M334.6,77.5l-24,6l-0.1,0c0.3,0,0.6-0.1,0.8-0.1c1.4,0,2.8,0.3,4,0.8c0.2,0.1,0.5,0.3,0.7,0.4
			c0.4,0.2,0.8,0.5,1.1,0.8c0.3,0.2,0.6,0.4,0.8,0.7c3.6,3.6,3.6,9.4,0,13c3.6-3.6,9.4-3.6,13,0c3.6,3.6,3.6,9.4,0,13
			c3.6-3.6,9.4-3.6,13,0c0.3,0.3,0.5,0.5,0.7,0.8c0.3,0.3,0.5,0.7,0.8,1.1c0.1,0.2,0.3,0.5,0.4,0.7c0.3,0.7,0.5,1.4,0.7,2.2
			c0.1,0.6,0.1,1.2,0.1,1.8c0,0.4,0,0.7-0.1,1l0.1-0.3v-0.1l6-23.9l6-23.9L334.6,77.5z"/>
		
			<rect x="187.4" y="206" transform="matrix(0.7071 -0.7071 0.7071 0.7071 -107.5757 207.3467)" fill="#40596B" width="18.1" height="55"/>
		<path fill="#FF7058" d="M170.7,220.5l-14.8,14.8c-3.1,3.1-3.1,8.1,0,11.2l27.7,27.7c3.1,3.1,8.1,3.1,11.2,0l14.8-14.8L170.7,220.5
			z"/>
		<polygon fill="#40596B" points="334.6,77.5 352.5,95.4 358.5,71.6 		"/>
	</g>
</g>
</svg>
