<?xml version="1.0" encoding="utf-8"?>
<!-- Generator: Adobe Illustrator 18.0.0, SVG Export Plug-In . SVG Version: 6.00 Build 0)  -->
<!DOCTYPE svg PUBLIC "-//W3C//DTD SVG 1.1//EN" "http://www.w3.org/Graphics/SVG/1.1/DTD/svg11.dtd">
<svg version="1.1" id="Layer_1" xmlns="http://www.w3.org/2000/svg" xmlns:xlink="http://www.w3.org/1999/xlink" x="0px" y="0px"
	 viewBox="0 0 48 48" enable-background="new 0 0 48 48" xml:space="preserve">
<g>
	<g>
		<path fill="#F8B64C" d="M46.1,4.6v5h-27V1.4c0-0.7,0.6-1.3,1.3-1.3h7.8c0.7,0,1.3,0.6,1.3,1.3v1.9h15.4
			C45.5,3.3,46.1,3.9,46.1,4.6z"/>
		<path fill="#FFD15C" d="M44.9,28.1H20.3c-0.7,0-1.2-0.5-1.3-1.2L17.1,11c-0.1-0.8,0.5-1.4,1.3-1.4h28.3c0.8,0,1.4,0.7,1.3,1.4
			l-1.8,15.9C46.1,27.6,45.5,28.1,44.9,28.1z"/>
		<rect x="20.7" y="5.3" fill="#F2F2F2" width="23.8" height="4.3"/>
		<rect x="22.3" y="6.9" fill="#CDD6E0" width="20.6" height="1.6"/>
	</g>
	<g>
		<path fill="#F8B64C" d="M28.9,24.4v5h-27v-8.2c0-0.7,0.6-1.3,1.3-1.3H11c0.7,0,1.3,0.6,1.3,1.3v1.9h15.4
			C28.4,23.1,28.9,23.6,28.9,24.4z"/>
		<path fill="#FFD15C" d="M27.7,47.9H3.1c-0.7,0-1.2-0.5-1.3-1.2L0,30.8c-0.1-0.8,0.5-1.4,1.3-1.4h28.3c0.8,0,1.4,0.7,1.3,1.4
			L29,46.7C29,47.4,28.4,47.9,27.7,47.9z"/>
		<rect x="3.6" y="25" fill="#F2F2F2" width="23.8" height="4.3"/>
		<rect x="5.1" y="26.7" fill="#CDD6E0" width="20.6" height="1.6"/>
	</g>
	<g>
		<path fill="#FF7058" d="M8.7,9.5v3.4h2.7l-3.8,3.8l-3.8-3.8h2.9V9.5c0-4,3.2-7.3,7.3-7.3v2C11,4.2,8.7,6.6,8.7,9.5z"/>
		<path fill="#FF7058" d="M39.2,38.5v-3.4h-2.7l3.8-3.8l3.8,3.8h-2.9v3.4c0,4-3.2,7.3-7.3,7.3v-2C36.8,43.8,39.2,41.4,39.2,38.5z"/>
	</g>
</g>
</svg>
