<?xml version="1.0" encoding="utf-8"?>
<!-- Generator: Adobe Illustrator 18.0.0, SVG Export Plug-In . SVG Version: 6.00 Build 0)  -->
<!DOCTYPE svg PUBLIC "-//W3C//DTD SVG 1.1//EN" "http://www.w3.org/Graphics/SVG/1.1/DTD/svg11.dtd">
<svg version="1.1" id="Layer_1" xmlns="http://www.w3.org/2000/svg" xmlns:xlink="http://www.w3.org/1999/xlink" x="0px" y="0px"
	 viewBox="0 0 48 48" enable-background="new 0 0 48 48" xml:space="preserve">
<g>
	<path fill="#40596B" d="M46,48H2c-1.1,0-2-0.9-2-2V2c0-1.1,0.9-2,2-2h44c1.1,0,2,0.9,2,2v44C48,47.1,47.1,48,46,48z"/>
	<rect x="5" y="5" fill="#F2F2F2" width="38" height="38"/>
	<rect x="13.5" y="9.2" fill="#54C0EB" width="21" height="13.5"/>
	<g>
		<rect x="9.2" y="28.6" fill="#CDD6E0" width="29.6" height="8.7"/>
		<rect x="11" y="30.5" fill="#40596B" width="25.9" height="5"/>
		<g>
			<path fill="#4CDBC4" d="M11.9,31v9c0,0.7,0.6,1.3,1.3,1.3h21.6c0.7,0,1.3-0.6,1.3-1.3v-9H11.9z"/>
			<path fill="#F2F2F2" d="M31.8,31H15.9c-0.3,1-1.2,1.8-2.3,1.8v4.4c1.4,0,2.5,1.1,2.5,2.5h15.6c0-1.4,1.1-2.5,2.5-2.5v-4.4
				C33,32.8,32.1,32,31.8,31z"/>
			<circle fill="#12934F" cx="18.3" cy="35" r="0.8"/>
			<circle fill="#4CDBC4" cx="18.3" cy="35" r="0.8"/>
			<circle fill="#4CDBC4" cx="29.4" cy="35" r="0.8"/>
			<path fill="#4CDBC4" d="M26.8,35c0,2.1-1.3,3.7-2.9,3.7c-0.2,0-0.4,0-0.6-0.1c-1.3-0.4-2.3-1.9-2.3-3.6c0-0.1,0-0.2,0-0.2
				c0.1-1.9,1.4-3.5,2.9-3.5C25.5,31.3,26.8,32.9,26.8,35z"/>
			<path fill="#FFFFFF" d="M23.6,36.4v-1.3c-0.4-0.1-0.7-0.3-0.9-0.5c-0.2-0.2-0.3-0.5-0.3-0.9c0-0.3,0.1-0.6,0.3-0.9
				c0.2-0.2,0.5-0.4,0.9-0.4v-0.3h0.5v0.3c0.3,0,0.6,0.2,0.8,0.3c0.2,0.2,0.3,0.4,0.4,0.7l-0.8,0.1c0-0.2-0.2-0.4-0.4-0.5v1.2
				c0.5,0.1,0.8,0.3,1,0.5c0.2,0.2,0.3,0.5,0.3,0.8c0,0.4-0.1,0.7-0.3,1c-0.2,0.3-0.5,0.4-0.9,0.5v0.6h-0.5v-0.6
				c-0.4,0-0.7-0.2-0.9-0.4c-0.2-0.2-0.4-0.5-0.4-1l0.8-0.1c0,0.2,0.1,0.3,0.2,0.4C23.4,36.3,23.5,36.4,23.6,36.4z M23.6,33.2
				c-0.1,0-0.2,0.1-0.3,0.2c-0.1,0.1-0.1,0.2-0.1,0.3c0,0.1,0,0.2,0.1,0.3c0.1,0.1,0.2,0.2,0.3,0.2V33.2z M24.1,36.5
				c0.2,0,0.3-0.1,0.4-0.2c0.1-0.1,0.1-0.3,0.1-0.4c0-0.1,0-0.3-0.1-0.4c-0.1-0.1-0.2-0.2-0.4-0.2V36.5z"/>
		</g>
		<rect x="36.1" y="30.5" fill="#334A5E" width="0.8" height="1.2"/>
		<rect x="11" y="30.5" fill="#334A5E" width="0.8" height="1.2"/>
		<rect x="11.9" y="31.6" fill="#3DC9AE" width="24.3" height="0.6"/>
		<rect x="11.9" y="30.5" fill="#334A5E" width="24.3" height="1.2"/>
	</g>
	<g>
		<polygon fill="#FFFFFF" points="18.5,9.2 13.5,13 13.5,12 17.1,9.2 		"/>
		<polygon fill="#FFFFFF" points="21.8,9.2 13.5,15.3 13.5,13.9 19.7,9.2 		"/>
	</g>
	<g>
		<path fill="#ACB3BA" d="M41.1,12.5h-3.2c-0.8,0-1.5-0.7-1.5-1.5l0,0c0-0.8,0.7-1.5,1.5-1.5h3.2V12.5z"/>
		<path fill="#ACB3BA" d="M41.1,17.5h-3.2c-0.8,0-1.5-0.7-1.5-1.5l0,0c0-0.8,0.7-1.5,1.5-1.5h3.2V17.5z"/>
		<path fill="#ACB3BA" d="M41.1,22.5h-3.2c-0.8,0-1.5-0.7-1.5-1.5l0,0c0-0.8,0.7-1.5,1.5-1.5h3.2V22.5z"/>
	</g>
	<g>
		<path fill="#ACB3BA" d="M6.9,12.5h3.2c0.8,0,1.5-0.7,1.5-1.5l0,0c0-0.8-0.7-1.5-1.5-1.5H6.9V12.5z"/>
		<path fill="#ACB3BA" d="M6.9,17.5h3.2c0.8,0,1.5-0.7,1.5-1.5l0,0c0-0.8-0.7-1.5-1.5-1.5H6.9V17.5z"/>
		<path fill="#ACB3BA" d="M6.9,22.5h3.2c0.8,0,1.5-0.7,1.5-1.5l0,0c0-0.8-0.7-1.5-1.5-1.5H6.9V22.5z"/>
	</g>
</g>
</svg>
