<?xml version="1.0" encoding="utf-8"?>
<!-- Generator: Adobe Illustrator 18.0.0, SVG Export Plug-In . SVG Version: 6.00 Build 0)  -->
<!DOCTYPE svg PUBLIC "-//W3C//DTD SVG 1.1//EN" "http://www.w3.org/Graphics/SVG/1.1/DTD/svg11.dtd">
<svg version="1.1" id="Layer_1" xmlns="http://www.w3.org/2000/svg" xmlns:xlink="http://www.w3.org/1999/xlink" x="0px" y="0px"
	 viewBox="0 0 48 48" enable-background="new 0 0 48 48" xml:space="preserve">
<g>
	<path fill="#54C0EB" d="M45.6,9.9c-0.4-1.4-1.4-2.6-2.8-2.9c-12.5-3.2-25-3.2-37.5,0C3.8,7.3,2.8,8.4,2.4,9.9
		c-3.2,12.5-3.2,22.5-0.2,35.1c0.4,1.8,2,3.1,3.9,3.1h35.8c1.9,0,3.5-1.3,3.9-3.1C48.8,32.4,48.7,22.3,45.6,9.9z"/>
	<path fill="#84DBFF" d="M43.7,10.4c-0.2-0.7-0.7-1.3-1.4-1.5C36.2,7.3,30.1,6.5,24,6.5S11.8,7.3,5.7,8.9C5.1,9,4.5,9.6,4.3,10.4
		C1.3,22.6,1.2,32.2,4.2,44.5c0.2,0.9,1,1.5,2,1.5h35.8c0.9,0,1.7-0.6,2-1.5C46.8,32.2,46.7,22.6,43.7,10.4z"/>
	<g>
		<path fill="#54C0EB" d="M23.1,48c0.6,0,1.2,0,1.9,0V27.5c0-0.5-0.4-0.9-0.9-0.9h0c-0.5,0-0.9,0.4-0.9,0.9V48z"/>
	</g>
	<circle fill="#40596B" cx="24" cy="11.2" r="11.2"/>
	<circle fill="#FFFFFF" cx="24" cy="11.2" r="9.2"/>
	<polygon fill="#FF7058" points="25,10.2 23,10.2 24,4.7 24,4.7 	"/>
	<g>
		<circle fill="#FFD15C" cx="24" cy="11.2" r="2.2"/>
		<g>
			<circle fill="#F8B64C" cx="24" cy="11.2" r="1"/>
		</g>
	</g>
	<g>
		<g>
			<g>
				<line fill="none" stroke="#CDD6E0" stroke-width="0.35" stroke-miterlimit="10" x1="20.8" y1="3.5" x2="21.2" y2="4.4"/>
				<g>
					<line fill="none" stroke="#CDD6E0" stroke-width="0.35" stroke-miterlimit="10" x1="16.3" y1="8" x2="17.1" y2="8.4"/>
				</g>
				<g>
					<line fill="none" stroke="#CDD6E0" stroke-width="0.35" stroke-miterlimit="10" x1="16.3" y1="14.4" x2="17.1" y2="14"/>
				</g>
				<g>
					<line fill="none" stroke="#CDD6E0" stroke-width="0.35" stroke-miterlimit="10" x1="20.8" y1="18.9" x2="21.2" y2="18.1"/>
				</g>
				<g>
					<line fill="none" stroke="#CDD6E0" stroke-width="0.35" stroke-miterlimit="10" x1="27.2" y1="18.9" x2="26.8" y2="18.1"/>
				</g>
				<g>
					<line fill="none" stroke="#CDD6E0" stroke-width="0.35" stroke-miterlimit="10" x1="31.7" y1="14.4" x2="30.9" y2="14"/>
				</g>
				<g>
					<line fill="none" stroke="#CDD6E0" stroke-width="0.35" stroke-miterlimit="10" x1="31.7" y1="8" x2="30.9" y2="8.4"/>
				</g>
			</g>
			<g>
				<g>
					<line fill="none" stroke="#CDD6E0" stroke-width="0.35" stroke-miterlimit="10" x1="27.2" y1="3.5" x2="26.8" y2="4.4"/>
				</g>
			</g>
		</g>
		<g>
			<line fill="none" stroke="#CDD6E0" stroke-width="0.35" stroke-miterlimit="10" x1="18.1" y1="5.3" x2="19" y2="6.2"/>
			<line fill="none" stroke="#CDD6E0" stroke-width="0.35" stroke-miterlimit="10" x1="15.7" y1="11.2" x2="16.9" y2="11.2"/>
			<line fill="none" stroke="#CDD6E0" stroke-width="0.35" stroke-miterlimit="10" x1="18.1" y1="17.1" x2="19" y2="16.2"/>
			<line fill="none" stroke="#CDD6E0" stroke-width="0.35" stroke-miterlimit="10" x1="24" y1="19.5" x2="24" y2="18.3"/>
			<line fill="none" stroke="#CDD6E0" stroke-width="0.35" stroke-miterlimit="10" x1="29.9" y1="17.1" x2="29" y2="16.2"/>
			<path fill="none" stroke="#CDD6E0" stroke-width="0.35" stroke-miterlimit="10" d="M31.7,14.4"/>
			<line fill="none" stroke="#CDD6E0" stroke-width="0.35" stroke-miterlimit="10" x1="32.3" y1="11.2" x2="31.1" y2="11.2"/>
			<line fill="none" stroke="#CDD6E0" stroke-width="0.35" stroke-miterlimit="10" x1="29.9" y1="5.3" x2="29" y2="6.2"/>
			<line fill="none" stroke="#CDD6E0" stroke-width="0.35" stroke-miterlimit="10" x1="24" y1="2.9" x2="24" y2="4.1"/>
		</g>
	</g>
</g>
</svg>
