<?xml version="1.0" encoding="utf-8"?>
<!-- Generator: Adobe Illustrator 18.0.0, SVG Export Plug-In . SVG Version: 6.00 Build 0)  -->
<!DOCTYPE svg PUBLIC "-//W3C//DTD SVG 1.1//EN" "http://www.w3.org/Graphics/SVG/1.1/DTD/svg11.dtd">
<svg version="1.1" id="Layer_1" xmlns="http://www.w3.org/2000/svg" xmlns:xlink="http://www.w3.org/1999/xlink" x="0px" y="0px"
	 viewBox="0 0 512 512" enable-background="new 0 0 512 512" xml:space="preserve">
<g>
	<path fill="#CDD5DF" d="M338.6,464c-1.1-4.6-2.7-9.1-4.5-13.4c-0.6-1.3-1.1-2.5-1.7-3.8c-2.4-4.9-5.2-9.5-8.5-13.8
		c-11.1-14.7-26.8-25.6-45-30.6c-7.2-2-14.9-3.1-22.8-3.1c-8,0-15.6,1.1-22.8,3.1c-18.2,5.1-34,16-45.1,30.6
		c-3.3,4.3-6.1,8.9-8.5,13.8c-0.6,1.2-1.2,2.5-1.7,3.8c-1.9,4.3-3.4,8.8-4.6,13.4c-1.6,6.5-2.5,13.3-2.5,20.4h170.3
		C341.1,477.3,340.2,470.6,338.6,464z"/>
	<path fill="#F0ECDF" d="M2.6,370.9v40.4c0,11.7,9.5,21.2,21.2,21.2h464.4c11.7,0,21.2-9.5,21.2-21.2v-40.4H2.6z"/>
	<path fill="#334A5E" d="M488.3,2H23.9C12.2,2,2.7,11.5,2.7,23.2L2.6,370.9h506.7l0.2-347.7C509.4,11.5,499.9,2,488.3,2z"/>
	<polygon fill="#FFFFFF" points="467.9,46.2 467.7,329.4 44.1,329.4 44.3,46.2 	"/>
	<rect x="128.7" y="484.4" fill="#F2F2F2" width="254.5" height="25.6"/>
	<path fill="#CDD5DF" d="M269,394.7h-26.2c-3.8,0-7,3.1-7,7v0c0,3.8,3.1,7,7,7H269c3.8,0,7-3.1,7-7v0
		C275.9,397.8,272.8,394.7,269,394.7z"/>
	<path fill="#ABB2B9" d="M334.1,450.6H177.8c0.5-1.3,1.1-2.5,1.7-3.8c2.4-4.9,5.2-9.5,8.5-13.8h135.7c3.3,4.3,6.1,8.9,8.5,13.8
		C332.9,448,333.5,449.3,334.1,450.6z"/>
</g>
</svg>
