<?xml version="1.0" encoding="utf-8"?>
<!-- Generator: Adobe Illustrator 18.0.0, SVG Export Plug-In . SVG Version: 6.00 Build 0)  -->
<!DOCTYPE svg PUBLIC "-//W3C//DTD SVG 1.1//EN" "http://www.w3.org/Graphics/SVG/1.1/DTD/svg11.dtd">
<svg version="1.1" id="Layer_1" xmlns="http://www.w3.org/2000/svg" xmlns:xlink="http://www.w3.org/1999/xlink" x="0px" y="0px"
	 viewBox="0 0 48 48" enable-background="new 0 0 48 48" xml:space="preserve">
<g>
	<rect x="14.8" y="19.1" fill="#FFD15C" width="22.5" height="12.4"/>
	<path fill="#CDD6E0" d="M47.7,34.9c-0.5-0.8-1.6-1-2.4-0.4L39,38.8V12.9c0-0.9-0.8-1.7-1.7-1.7H16.5V5.8c0-2.4-2-4.4-4.4-4.4H5.9
		C5,1.4,4.2,2.2,4.2,3.1C4.2,4,5,4.8,5.9,4.8h6.1c0.6,0,1,0.5,1,1v12.4c0,0.9,0.8,1.7,1.7,1.7c0.9,0,1.7-0.8,1.7-1.7v-3.6h19v15.5
		h-6.6v3.4h6.6v7c0,0.3,0.1,0.5,0.2,0.8c-0.3,0.5-0.3,1.2,0.1,1.7c0.3,0.5,0.9,0.7,1.4,0.7c0.3,0,0.7-0.1,1-0.3l9-6.2
		C48,36.7,48.2,35.7,47.7,34.9z"/>
	<path fill="#FF7058" d="M47.7,34.9c-0.5-0.8-1.6-1-2.4-0.4L39,38.8l0.8,1.3h-3.4l-0.8,0.4c0,0.3,0.1,0.5,0.2,0.8
		c-0.3,0.5-0.3,1.2,0.1,1.7c0.3,0.5,0.9,0.7,1.4,0.7c0.3,0,0.7-0.1,1-0.3l9-6.2C48,36.7,48.2,35.7,47.7,34.9z"/>
	<path fill="#FF7058" d="M14.8,17C6.6,17,0,23.6,0,31.8s6.6,14.8,14.8,14.8c8.2,0,14.8-6.6,14.8-14.8S23,17,14.8,17z M14.8,43.6
		C8.3,43.6,3,38.3,3,31.8C3,25.3,8.3,20,14.8,20c6.5,0,11.8,5.3,11.8,11.8C26.6,38.3,21.3,43.6,14.8,43.6z"/>
	<circle fill="#40596B" cx="37.2" cy="42.1" r="4.5"/>
	<circle fill="#FFFFFF" cx="37.2" cy="42.1" r="1.9"/>
	<path fill="#FF7058" d="M23.8,24.1c-0.4-0.5-0.8-0.9-1.3-1.3l-6.8,6.8V20c-0.3,0-0.6,0-0.9,0c-0.3,0-0.6,0-0.9,0v9.6l-6.8-6.8
		c-0.5,0.4-0.9,0.8-1.3,1.3l6.8,6.8H3c0,0.3,0,0.6,0,0.9c0,0.3,0,0.6,0,0.9h9.6l-6.8,6.8c0.4,0.5,0.8,0.9,1.3,1.3l6.8-6.8v9.6
		c0.3,0,0.6,0,0.9,0c0.3,0,0.6,0,0.9,0V34l6.8,6.8c0.5-0.4,0.9-0.8,1.3-1.3L17,32.7h9.6c0-0.3,0-0.6,0-0.9c0-0.3,0-0.6,0-0.9H17
		L23.8,24.1z"/>
	<circle fill="#FF7058" cx="14.8" cy="31.8" r="3.8"/>
	<circle fill="#FFFFFF" cx="14.8" cy="31.8" r="1.9"/>
</g>
</svg>
