<?xml version="1.0" encoding="utf-8"?>
<!-- Generator: Adobe Illustrator 19.0.1, SVG Export Plug-In . SVG Version: 6.00 Build 0)  -->
<svg version="1.1" id="Layer_1" xmlns="http://www.w3.org/2000/svg" xmlns:xlink="http://www.w3.org/1999/xlink" x="0px" y="0px"
	 viewBox="0 0 48 48" style="enable-background:new 0 0 48 48;" xml:space="preserve">
<style type="text/css">
	.st0{fill:#415A6B;}
	.st1{fill:#ADB3BA;}
	.st2{fill:#E8EAE9;}
	.st3{fill:#55C0EB;}
	.st4{fill:#F3705A;}
	.st5{fill:#FFFFFF;}
	.st6{fill:#FFD15C;}
	.st7{fill:#344A5E;}
	.st8{fill:#CED6E0;}
	.st9{fill:#F05540;}
	.st10{fill:#F7B64C;}
	.st11{fill:#F3F3F3;}
	.st12{fill:#66C6B9;}
	.st13{fill:#4ABAA5;}
	.st14{fill:#8AD7F8;}
	.st15{fill:none;}
	.st16{fill:#E53D35;}
</style>
<g>
	<g>
		<g>
			<g>
				<path class="st0" d="M26.1,7c0,7.7-3.3,13.2-7.4,13.2S11.4,14.8,11.4,7c0-6.5,3.3-7,7.4-7S26.1,0.6,26.1,7z"/>
			</g>
			<g>
				<g>
					<path class="st10" d="M13.9,15.6l-0.1,4.1c0,0-0.9,4.3,0.5,7c4.9-1,10.3-1.6,8.7-7v-4.1H13.9z"/>
				</g>
				<g>
					<polygon class="st8" points="23.5,40.8 28,25.6 16.7,25.6 11.4,24.2 11.7,40.8 					"/>
				</g>
				<g>
					<g>
						<polygon class="st4" points="21.3,40.8 19.8,29.6 17.1,29.6 15.6,40.8 						"/>
					</g>
					<g>
						<polygon class="st9" points="19.8,29.6 21.1,28.3 18.5,25.6 15.8,28.3 17.1,29.6 						"/>
					</g>
				</g>
				<g>
					<g>
						<g>
							<path class="st11" d="M13.9,19.7c0,0-0.4,1.3,0,2.1c0.4,0.8,4.6,3.8,4.6,3.8l-3.9,4L12,24.4l0.8-2.9c0.1-0.4,0.3-0.9,0.6-1.2
								C13.5,20.1,13.7,19.9,13.9,19.7z"/>
						</g>
						<g>
							<g>
								<path class="st7" d="M14.2,40.8L11.7,29l-0.2-5.5L3.8,27c-1.8,0.8-3.1,2.6-3.2,4.6L0,40.8H14.2z"/>
							</g>
							<g>
								<path class="st0" d="M11.8,40.8h3.6c-0.7-4.2-1.6-9.2-2-10.9c-0.8-3.2-0.5-8.5-0.5-8.5c-0.4,0.2-1,1.4-1,1.4
									c-0.7,0.9-1.3,1.8-1.7,2.8c-0.6,1.4-1.4,3.3-1.4,3.3l2.1-0.1l-2.7,2.4L11.8,40.8z"/>
							</g>
						</g>
					</g>
					<g>
						<g>
							<path class="st11" d="M23,19.7c0,0,0.4,1.3,0,2.1c-0.4,0.8-4.6,3.8-4.6,3.8l3.9,4l2.5-5.1l-0.8-2.9c-0.1-0.4-0.3-0.9-0.6-1.2
								C23.4,20.1,23.2,19.9,23,19.7z"/>
						</g>
						<g>
							<g>
								<path class="st7" d="M36.9,40.8l-0.6-9.2c-0.1-2-1.4-3.8-3.2-4.6l-7.6-3.4L25.2,29l-2.5,11.8H36.9z"/>
							</g>
							<g>
								<path class="st0" d="M21.5,40.8h3.6l3.7-9.6l-2.7-2.4l2.1,0.1c0,0-0.8-1.8-1.4-3.3c-0.4-1-1-2-1.7-2.8c0,0-0.6-1.2-1-1.4
									c0,0,0.3,5.4-0.5,8.5C23.1,31.6,22.2,36.6,21.5,40.8z"/>
							</g>
						</g>
					</g>
				</g>
				<g>
					<g>
						<path class="st6" d="M25.3,11.6c-0.5-1.7-0.2-3.3-1.5-4.8c0,0-0.1-0.1-0.1-0.1c-0.8-1-2.3-1-3.3-0.1c-1.1,1-2.7,1.6-4.6,1.6
							c-1,0-2-0.2-2.8-0.5c-0.3,0.8-0.7,3.2-0.7,3.4c-0.2,0.8-0.2,1.6-0.2,2.4c0,4.9,2.9,8.9,6.4,8.9c3.5,0,6.4-4,6.4-8.9
							c0-0.1,0-0.3,0-0.4C25.3,12.9,25.4,12.3,25.3,11.6z"/>
					</g>
					<g>
						
							<ellipse transform="matrix(-0.9906 0.1366 -0.1366 -0.9906 26.17 25.5951)" class="st6" cx="12.2" cy="13.7" rx="1.1" ry="2.5"/>
					</g>
					<g>
						
							<ellipse transform="matrix(0.9906 0.1366 -0.1366 0.9906 2.1083 -3.3374)" class="st6" cx="25.4" cy="13.7" rx="1.1" ry="2.5"/>
					</g>
				</g>
			</g>
		</g>
		<g>
			<path class="st11" d="M48,21.8v24.1c0,1.1-0.9,2.1-2.1,2.1H29c-1.1,0-2.1-0.9-2.1-2.1V21.8c0-1.1,0.9-2.1,2.1-2.1h16.9
				C47.1,19.7,48,20.7,48,21.8z"/>
			<g>
				<path class="st12" d="M37.1,23.5L36,23.7c-0.1-0.5-0.3-0.8-0.8-0.8c-0.3,0-0.5,0.1-0.7,0.3c-0.2,0.2-0.3,0.6-0.3,1.2
					c0,0.6,0.1,1,0.3,1.3c0.2,0.3,0.4,0.4,0.7,0.4c0.2,0,0.4-0.1,0.5-0.2c0.1-0.1,0.2-0.4,0.3-0.8l1.1,0.2c-0.2,1.2-0.9,1.9-1.9,1.9
					c-0.7,0-1.2-0.3-1.5-0.8c-0.3-0.5-0.5-1.1-0.5-1.9c0-0.9,0.2-1.5,0.6-2c0.4-0.5,0.9-0.7,1.5-0.7c0.5,0,0.9,0.1,1.2,0.4
					C36.7,22.5,36.9,22.9,37.1,23.5z"/>
				<path class="st12" d="M39.1,27.1l-1.7-5.1h1.2l0.8,2.6l0.2,0.9l0.2-0.9l0.8-2.6h1.1l-1.7,5.1H39.1z"/>
			</g>
			<g>
				<rect x="29" y="40.6" class="st8" width="16.9" height="1.6"/>
				<g>
					<g>
						<rect x="29" y="44.3" class="st8" width="8.4" height="1.6"/>
					</g>
					<rect x="29" y="36.8" class="st8" width="16.9" height="1.6"/>
					<rect x="29" y="33.1" class="st8" width="16.9" height="1.6"/>
					<rect x="29" y="29.3" class="st8" width="16.9" height="1.6"/>
				</g>
			</g>
		</g>
	</g>
</g>
</svg>
