<?xml version="1.0" encoding="utf-8"?>
<!-- Generator: Adobe Illustrator 18.0.0, SVG Export Plug-In . SVG Version: 6.00 Build 0)  -->
<!DOCTYPE svg PUBLIC "-//W3C//DTD SVG 1.1//EN" "http://www.w3.org/Graphics/SVG/1.1/DTD/svg11.dtd">
<svg version="1.1" id="Layer_1" xmlns="http://www.w3.org/2000/svg" xmlns:xlink="http://www.w3.org/1999/xlink" x="0px" y="0px"
	 viewBox="0 0 48 48" enable-background="new 0 0 48 48" xml:space="preserve">
<g>
	<polygon fill="#FF7058" points="40.2,44.7 7.8,44.7 22.6,11 25.4,11 	"/>
	<polygon fill="#FF7058" points="40.2,44.7 7.8,44.7 9.2,41.4 14.1,30.3 17.9,21.6 22.6,11 25.4,11 26.4,13.2 27.9,16.6 29.8,20.9 
		31.3,24.3 33.2,28.7 34.7,32.1 36.6,36.4 38.1,39.8 	"/>
	<path fill="#FFD15C" d="M31.6,6.3C32,6,31.8,5.3,31.2,5.3h-4.7c-0.3,0-0.5-0.2-0.6-0.4l-1.4-4.4c-0.2-0.5-0.9-0.5-1.1,0L22,4.9
		c-0.1,0.2-0.3,0.4-0.6,0.4h-4.7c-0.6,0-0.8,0.7-0.3,1.1l3.8,2.7c0.2,0.2,0.3,0.4,0.2,0.7L19,14.2c-0.2,0.5,0.4,1,0.9,0.7l3.8-2.7
		c0.2-0.2,0.5-0.2,0.7,0l3.8,2.7c0.5,0.3,1.1-0.1,0.9-0.7l-1.4-4.4c-0.1-0.2,0-0.5,0.2-0.7L31.6,6.3z"/>
	<path fill="#F1543F" d="M40,44.7H8c-0.8,0-1.5,0.7-1.5,1.5V48h34.9v-1.8C41.4,45.4,40.8,44.7,40,44.7z"/>
	<g>
		<polygon fill="#CDD6E0" points="27.9,16.6 14.1,30.3 17.9,21.6 26.4,13.2 		"/>
		<polygon fill="#CDD6E0" points="31.3,24.3 10.8,44.7 7.8,44.7 9.2,41.4 29.8,20.9 		"/>
		<polygon fill="#CDD6E0" points="34.7,32.1 22,44.7 17.1,44.7 33.2,28.7 		"/>
		<polygon fill="#CDD6E0" points="38.1,39.8 33.1,44.7 28.2,44.7 36.6,36.4 		"/>
	</g>
</g>
</svg>
