<?xml version="1.0" encoding="utf-8"?>
<!-- Generator: Adobe Illustrator 16.0.0, SVG Export Plug-In . SVG Version: 6.00 Build 0)  -->
<!DOCTYPE svg PUBLIC "-//W3C//DTD SVG 1.1//EN" "http://www.w3.org/Graphics/SVG/1.1/DTD/svg11.dtd">
<svg version="1.1" id="Layer_1" xmlns="http://www.w3.org/2000/svg" xmlns:xlink="http://www.w3.org/1999/xlink" x="0px" y="0px"
	 width="48px" height="48px" viewBox="0 0 48 48" enable-background="new 0 0 48 48" xml:space="preserve">
<g>
	<rect x="17.381" y="23.868" fill="#F8B64C" width="13.238" height="11.668"/>
	<g opacity="0.1">
		<g>
			<defs>
				<rect id="SVGID_21_" x="20.441" y="23.867" width="10.178" height="8.06"/>
			</defs>
			<clipPath id="SVGID_2_">
				<use xlink:href="#SVGID_21_"  overflow="visible"/>
			</clipPath>
			<polygon clip-path="url(#SVGID_2_)" fill="#40596B" points="30.619,23.867 30.615,27.976 25.73,31.927 20.441,27.714 
				23.352,23.867 			"/>
		</g>
	</g>
	<path fill="#F8B64C" d="M16.478,14.573c0.157,1.795-0.714,3.338-1.945,3.445c-1.231,0.108-2.358-1.26-2.515-3.055
		c-0.157-1.795,0.714-3.338,1.945-3.445C15.194,11.41,16.32,12.778,16.478,14.573"/>
	<path fill="#F8B64C" d="M35.983,14.963c-0.157,1.795-1.282,3.163-2.514,3.055c-1.231-0.107-2.103-1.65-1.946-3.445
		c0.157-1.795,1.283-3.163,2.516-3.055C35.27,11.625,36.141,13.168,35.983,14.963"/>
	<path fill="#FFD15C" d="M34.359,9.876v3.4c-0.01,0.72-0.051,1.44-0.141,2.15c-0.15,1.18-0.4,2.34-0.75,3.46
		c-0.85,2.71-2.279,5.21-4.21,7.32l-0.989,1.08c-0.9,0.99-2.181,1.55-3.521,1.55h-1.5c-1.33,0-2.61-0.57-3.511-1.55l-0.979-1.08
		c-1.37-1.49-2.489-3.19-3.319-5c-0.84-1.82-1.4-3.77-1.641-5.78c-0.09-0.71-0.14-1.43-0.14-2.15c-0.011-0.08-0.011-0.15-0.011-0.23
		v-3.11c0-0.98,0.141-1.94,0.4-2.84c1.23-4.33,5.221-7.51,9.96-7.51c4.729,0,8.72,3.18,9.95,7.51
		C34.219,7.977,34.359,8.917,34.359,9.876"/>
	<rect x="14.265" y="34.276" fill="#F2F2F2" width="19.472" height="14.399"/>
	<polygon fill="#FF7058" points="25.59,37.699 26.889,48.679 21.109,48.679 22.42,37.709 21.02,36.31 24,33.33 26.979,36.31 	"/>
	<path fill="#40596B" d="M47.9,48.675v-8.207c0-3.78-2.373-7.152-5.93-8.43l-11.352-4.077l-0.002,0.03L28.74,48.675H47.9z"/>
	<path fill="#40596B" d="M19.26,48.675l-1.877-20.714L6.029,32.039c-3.557,1.277-5.93,4.65-5.93,8.429v8.207H19.26z"/>
	<path fill="#334A5E" d="M35.941,48.675l3.195-5.407c0.037-0.06,0.027-0.136-0.023-0.184l-5.416-5.332
		c-0.076-0.075-0.051-0.202,0.045-0.244l5.235-2.333c0.103-0.045,0.12-0.181,0.036-0.253l-8.397-6.931L28.74,48.675H35.941z"/>
	<path fill="#334A5E" d="M12.059,48.675h7.201l-1.876-20.684l-8.397,6.931c-0.084,0.072-0.066,0.208,0.037,0.253l5.234,2.333
		c0.096,0.042,0.121,0.169,0.045,0.244l-5.416,5.332c-0.051,0.048-0.06,0.124-0.023,0.184L12.059,48.675z"/>
	<path fill="#40596B" d="M33.75,17.785c0.32-3.13-0.256-5.202-0.704-6.277c-0.264-0.634-0.331-1.319-0.237-2
		c0.41-2.97-1.15-2.569-1.15-2.569c-3.359,1.65-7.653,1.614-7.653,1.614s-4.294,0.036-7.651-1.614c0,0-1.562-0.401-1.151,2.569
		c0.094,0.681,0.026,1.366-0.237,2c-0.449,1.075-1.025,3.147-0.705,6.277c0,0-6.552-19.159,9.745-18.445
		C40.303-1.374,33.75,17.785,33.75,17.785"/>
	<polygon fill="#CDD6E0" points="24,33.331 30.619,27.961 29.621,38.974 	"/>
	<polygon fill="#CDD6E0" points="24,33.331 17.383,27.961 18.381,38.974 	"/>
</g>
</svg>
