<?xml version="1.0" encoding="utf-8"?>
<!-- Generator: Adobe Illustrator 18.0.0, SVG Export Plug-In . SVG Version: 6.00 Build 0)  -->
<!DOCTYPE svg PUBLIC "-//W3C//DTD SVG 1.1//EN" "http://www.w3.org/Graphics/SVG/1.1/DTD/svg11.dtd">
<svg version="1.1" id="Layer_1" xmlns="http://www.w3.org/2000/svg" xmlns:xlink="http://www.w3.org/1999/xlink" x="0px" y="0px"
	 viewBox="0 0 48 48" enable-background="new 0 0 48 48" xml:space="preserve">
<g>
	<g>
		<g>
			<g>
				<g>
					<path fill="#8AD7F8" d="M11.4,42.3c0-3.1-5.7-11.5-5.7-11.5S0,39.1,0,42.3S2.6,48,5.7,48S11.4,45.4,11.4,42.3z"/>
				</g>
				<g>
					
						<ellipse transform="matrix(0.7999 -0.6001 0.6001 0.7999 -25.3431 13.4155)" fill="#FFFFFF" cx="7.4" cy="44.7" rx="1.4" ry="0.8"/>
				</g>
			</g>
		</g>
		<g>
			<g>
				<g>
					<path fill="#E8EAE9" d="M30.2,6l-10.1,6.1C13.6,16,8.3,21.7,4.9,28.5c7.6,0.2,15.1-1.8,21.6-5.8l10.1-6.1L30.2,6z"/>
				</g>
				<g>
					<path fill="#8AD7F8" d="M32.2,16.5l-6.9,4.2c-4.9,3-10.5,4.8-16.2,5.3c3.1-4.8,7.3-8.9,12.2-11.9l0.4-0.2L32.2,16.5z"/>
				</g>
			</g>
			<g>
				<path fill="#415A6B" d="M39.7,14.7l5.3-3.2c2.9-1.8,3.9-5.6,2.1-8.5l0,0c-1.8-2.9-5.6-3.9-8.5-2.1l-5.3,3.2L39.7,14.7z"/>
			</g>
			<path fill="#CED6E0" d="M40.8,14.2L34.2,3.4c-0.7-1.1-2.2-1.5-3.3-0.8c-1.1,0.7-1.5,2.2-0.8,3.3l6.5,10.9
				c0.7,1.1,2.2,1.5,3.3,0.8C41.1,16.8,41.5,15.4,40.8,14.2z"/>
		</g>
	</g>
</g>
</svg>
