<?xml version="1.0" encoding="utf-8"?>
<!-- Generator: Adobe Illustrator 16.0.0, SVG Export Plug-In . SVG Version: 6.00 Build 0)  -->
<!DOCTYPE svg PUBLIC "-//W3C//DTD SVG 1.1//EN" "http://www.w3.org/Graphics/SVG/1.1/DTD/svg11.dtd">
<svg version="1.1" id="Layer_1" xmlns="http://www.w3.org/2000/svg" xmlns:xlink="http://www.w3.org/1999/xlink" x="0px" y="0px"
	 width="48px" height="48px" viewBox="0 0 48 48" enable-background="new 0 0 48 48" xml:space="preserve">
<g>
	<path fill="#CDD6E0" d="M15.341,9.183l2.5-0.229l-2.175-5.197c-0.255-0.61-0.956-0.897-1.565-0.642
		c-0.611,0.255-0.898,0.956-0.644,1.566L15.341,9.183z"/>
	<path fill="#FFD15C" d="M20.643,2.183L13.44,0.066c-0.398-0.118-0.825,0.06-1.023,0.426L8.851,7.098
		c-0.395,0.729,0.348,1.55,1.113,1.231l10.77-4.488C21.499,3.521,21.438,2.417,20.643,2.183"/>
	<polygon fill="#FFD15C" points="35.839,18.649 34.433,9.647 16.092,9.647 14.687,18.649 	"/>
	<path fill="#F2F2F2" d="M38.028,22.952L35.717,8.146H14.808l-2.311,14.806c-1.125,7.207,3.914,13.757,10.899,14.765v6.521h-0.009
		l-5.818,2v1.732h15.387v-1.732l-5.828-2v-6.521C34.114,36.709,39.153,30.159,38.028,22.952"/>
	<path fill="#84DBFF" d="M33.942,32.376c-2.181,2.53-5.34,3.99-8.681,3.99c-3.34,0-6.5-1.46-8.68-3.99
		c-2.171-2.54-3.12-5.89-2.601-9.19l0.711-4.54h21.14l0.71,4.54C37.062,26.486,36.112,29.836,33.942,32.376"/>
	<path fill="#ACB3BA" d="M29.074,18.649L39.089,1.851c0.34-0.568,0.153-1.303-0.415-1.642c-0.567-0.338-1.303-0.152-1.642,0.416
		L26.286,18.649H29.074z"/>
	<path fill="#FFFFFF" d="M20.203,21.537c0,0.986-0.8,1.786-1.786,1.786s-1.785-0.8-1.785-1.786c0-0.986,0.799-1.786,1.785-1.786
		S20.203,20.551,20.203,21.537"/>
	<path fill="#FFFFFF" d="M21.165,26.132c0,0.759-0.615,1.374-1.373,1.374c-0.76,0-1.375-0.615-1.375-1.374
		c0-0.759,0.615-1.374,1.375-1.374C20.55,24.758,21.165,25.374,21.165,26.132"/>
	<path fill="#FFFFFF" d="M24.044,22.406c0,0.436-0.353,0.789-0.789,0.789c-0.436,0-0.789-0.353-0.789-0.789s0.354-0.789,0.789-0.789
		C23.691,21.617,24.044,21.97,24.044,22.406"/>
</g>
</svg>
