<?xml version="1.0" encoding="utf-8"?>
<!-- Generator: Adobe Illustrator 18.0.0, SVG Export Plug-In . SVG Version: 6.00 Build 0)  -->
<!DOCTYPE svg PUBLIC "-//W3C//DTD SVG 1.1//EN" "http://www.w3.org/Graphics/SVG/1.1/DTD/svg11.dtd">
<svg version="1.1" id="Layer_1" xmlns="http://www.w3.org/2000/svg" xmlns:xlink="http://www.w3.org/1999/xlink" x="0px" y="0px"
	 viewBox="0 0 48 48" enable-background="new 0 0 48 48" xml:space="preserve">
<g>
	<g>
		<g>
			<path fill="#F1543F" d="M37.2,47.4L33,47.8c-1.1,0.1-2.1-0.7-2.2-1.8l-0.6-5.4l8.1-0.9l0.6,5.4C39.1,46.3,38.3,47.3,37.2,47.4z"
				/>
			<path fill="#F1543F" d="M10.8,47.4l4.2,0.4c1.1,0.1,2.1-0.7,2.2-1.8l0.6-5.4l-8.1-0.9L9,45.2C8.9,46.3,9.7,47.3,10.8,47.4z"/>
		</g>
		<path fill="#ED3F2E" d="M9.6,39.8l8.1,0.9L17.2,46c-2.9-0.8-5.6-2-7.9-3.7L9.6,39.8z"/>
		<path fill="#ED3F2E" d="M38.7,42.3c-2.3,1.7-4.9,2.9-7.8,3.7l-0.6-5.3l8.1-0.9L38.7,42.3z"/>
	</g>
	<path fill="#FF7058" d="M45,26.5c-0.8-9.1-9.9-16.4-21-16.4c-2.9,0-5.7,0.5-8.2,1.4c-3.2-1.8-6.8-1.9-9.9-0.2
		c-0.5,0.3-0.4,1.1,0.2,1.2c1.9,0.1,3.3,0.9,4.2,1.9c-3,2.1-5.2,5-6.4,8.2H2.1c-1.2,0-2.1,1-2.1,2.1v6.2C0,32,1,33,2.1,33h1.7
		C6.5,40.2,14.5,45.4,24,45.4c10.1,0,18.6-6,20.6-14c0.9,0.4,1.8,1.2,2.4,2.4c0.2,0.5,0.9,0.3,1-0.2C48.2,30.9,47.1,28.3,45,26.5z"
		/>
	<g>
		<circle fill="#FFD15C" cx="31.2" cy="6.4" r="4"/>
		<circle fill="#F8B64C" cx="31.2" cy="6.4" r="3.2"/>
		<g>
			<path fill="#FFD15C" d="M30.9,7.8V6.5c-0.4-0.1-0.7-0.3-0.9-0.5c-0.2-0.2-0.3-0.5-0.3-0.8c0-0.3,0.1-0.6,0.3-0.8
				C30.3,4.2,30.6,4,30.9,4V3.7h0.4V4c0.3,0,0.6,0.1,0.8,0.3c0.2,0.2,0.3,0.4,0.4,0.7l-0.8,0.1c0-0.2-0.2-0.4-0.4-0.5v1.2
				c0.5,0.1,0.8,0.3,1,0.5c0.2,0.2,0.3,0.5,0.3,0.8c0,0.4-0.1,0.7-0.3,0.9c-0.2,0.2-0.5,0.4-0.9,0.5V9h-0.4V8.5
				c-0.3,0-0.6-0.2-0.8-0.4c-0.2-0.2-0.4-0.5-0.4-0.9l0.8-0.1c0,0.2,0.1,0.3,0.2,0.4C30.7,7.6,30.8,7.7,30.9,7.8z M30.9,4.6
				c-0.1,0-0.2,0.1-0.3,0.2c-0.1,0.1-0.1,0.2-0.1,0.3c0,0.1,0,0.2,0.1,0.3c0.1,0.1,0.2,0.2,0.3,0.2V4.6z M31.4,7.8
				c0.1,0,0.3-0.1,0.4-0.2c0.1-0.1,0.1-0.2,0.1-0.4c0-0.1,0-0.2-0.1-0.3c-0.1-0.1-0.2-0.2-0.4-0.2V7.8z"/>
		</g>
	</g>
	<g>
		<circle fill="#FFD15C" cx="20.2" cy="4.1" r="4"/>
		<circle fill="#F8B64C" cx="20.2" cy="4.1" r="3.2"/>
		<g>
			<path fill="#FFD15C" d="M20,5.5V4.3c-0.4-0.1-0.7-0.3-0.9-0.5c-0.2-0.2-0.3-0.5-0.3-0.8c0-0.3,0.1-0.6,0.3-0.8
				c0.2-0.2,0.5-0.3,0.8-0.4V1.5h0.4v0.3c0.3,0,0.6,0.1,0.8,0.3c0.2,0.2,0.3,0.4,0.4,0.7l-0.8,0.1c0-0.2-0.2-0.4-0.4-0.5v1.2
				c0.5,0.1,0.8,0.3,1,0.5c0.2,0.2,0.3,0.5,0.3,0.8c0,0.4-0.1,0.7-0.3,0.9c-0.2,0.2-0.5,0.4-0.9,0.5v0.6H20V6.2
				c-0.3,0-0.6-0.2-0.8-0.4c-0.2-0.2-0.4-0.5-0.4-0.9l0.8-0.1c0,0.2,0.1,0.3,0.2,0.4C19.7,5.4,19.8,5.5,20,5.5z M20,2.4
				c-0.1,0-0.2,0.1-0.3,0.2c-0.1,0.1-0.1,0.2-0.1,0.3c0,0.1,0,0.2,0.1,0.3c0.1,0.1,0.2,0.2,0.3,0.2V2.4z M20.4,5.6
				c0.1,0,0.3-0.1,0.4-0.2c0.1-0.1,0.1-0.2,0.1-0.4c0-0.1,0-0.2-0.1-0.3c-0.1-0.1-0.2-0.2-0.4-0.2V5.6z"/>
		</g>
	</g>
	<circle fill="#40596B" cx="9.4" cy="23.6" r="2"/>
	<g>
		<path fill="#FFD15C" d="M27.8,15c0.6-0.8,0.9-1.7,0.9-2.8c0-2.6-2.1-4.7-4.7-4.7c-2.6,0-4.7,2.1-4.7,4.7c0,1,0.3,2,0.9,2.8H27.8z"
			/>
		<path fill="#F8B64C" d="M21.3,15h5.3c0.7-0.7,1.2-1.7,1.2-2.8c0-2.1-1.7-3.8-3.8-3.8c-2.1,0-3.8,1.7-3.8,3.8
			C20.2,13.3,20.6,14.3,21.3,15z"/>
		<g>
			<path fill="#FFD15C" d="M23.4,13.6c-0.1-0.1-0.2-0.3-0.2-0.5l-0.9,0.1c0.1,0.5,0.2,0.8,0.5,1.1c0.3,0.3,0.6,0.4,1,0.5V15h0.5
				v-0.3c0.5-0.1,0.8-0.2,1.1-0.5c0.3-0.3,0.4-0.6,0.4-1.1c0-0.4-0.1-0.7-0.3-0.9c-0.2-0.2-0.6-0.4-1.1-0.6v-1.4
				c0.2,0.1,0.4,0.3,0.4,0.6l0.9-0.1c-0.1-0.4-0.2-0.6-0.4-0.8c-0.2-0.2-0.5-0.3-0.9-0.4V9.1h-0.5v0.3c-0.4,0-0.7,0.2-1,0.5
				c-0.2,0.3-0.4,0.6-0.4,1c0,0.4,0.1,0.7,0.3,1c0.2,0.3,0.6,0.5,1,0.6v1.5C23.6,13.9,23.5,13.8,23.4,13.6z M24.3,12.6
				c0.2,0.1,0.4,0.1,0.5,0.3c0.1,0.1,0.1,0.2,0.1,0.4c0,0.2-0.1,0.3-0.2,0.5c-0.1,0.1-0.3,0.2-0.4,0.2V12.6z M23.4,11.2
				c-0.1-0.1-0.1-0.2-0.1-0.3c0-0.1,0-0.3,0.1-0.4c0.1-0.1,0.2-0.2,0.3-0.2v1.2C23.6,11.4,23.5,11.3,23.4,11.2z"/>
		</g>
	</g>
	<path fill="#40596B" d="M32.6,16.5H15.4c-0.5,0-0.8-0.4-0.8-0.8l0,0c0-0.5,0.4-0.8,0.8-0.8h17.2c0.5,0,0.8,0.4,0.8,0.8l0,0
		C33.4,16.1,33.1,16.5,32.6,16.5z"/>
</g>
</svg>
