<?xml version="1.0" encoding="utf-8"?>
<!-- Generator: Adobe Illustrator 18.0.0, SVG Export Plug-In . SVG Version: 6.00 Build 0)  -->
<!DOCTYPE svg PUBLIC "-//W3C//DTD SVG 1.1//EN" "http://www.w3.org/Graphics/SVG/1.1/DTD/svg11.dtd">
<svg version="1.1" id="Layer_1" xmlns="http://www.w3.org/2000/svg" xmlns:xlink="http://www.w3.org/1999/xlink" x="0px" y="0px"
	 viewBox="0 0 48 48" enable-background="new 0 0 48 48" xml:space="preserve">
<g>
	<g>
		<g>
			<g>
				<path fill="#F3705A" d="M23.2,14c-1.5,3.9,3.5,10.2,3.5,10.2s7.9-1.6,9.3-5.5c0.7-1.9-0.3-4-2.1-4.7c-1.3-0.5-2.6-0.2-3.6,0.6
					c-0.2-1.2-1-2.4-2.3-2.8C26,11.1,23.9,12.1,23.2,14z"/>
			</g>
			<g>
				
					<ellipse transform="matrix(-0.4978 -0.8673 0.8673 -0.4978 36.3308 54.8146)" fill="#FFFFFF" cx="34" cy="16.9" rx="1.6" ry="0.7"/>
			</g>
		</g>
		<g>
			<g>
				<path fill="#F3705A" d="M34.7,12.3c1.3,3.6,8.5,5.1,8.5,5.1s4.5-5.8,3.2-9.4c-0.6-1.7-2.6-2.6-4.3-2c-1.2,0.4-2,1.4-2.1,2.6
					c-0.9-0.7-2.1-1-3.3-0.6C35,8.7,34.1,10.6,34.7,12.3z"/>
			</g>
			<g>
				
					<ellipse transform="matrix(-0.9423 -0.3348 0.3348 -0.9423 82.8426 30.0823)" fill="#FFFFFF" cx="44" cy="7.9" rx="1.4" ry="0.7"/>
			</g>
		</g>
		<g>
			<g>
				<path fill="#F3705A" d="M31.4,1.2c-1,2.1,1.4,5.9,1.4,5.9s4.5-0.5,5.5-2.6c0.5-1,0-2.2-1-2.7c-0.7-0.3-1.5-0.2-2,0.2
					c-0.1-0.7-0.5-1.4-1.2-1.7C33.1-0.3,31.9,0.1,31.4,1.2z"/>
			</g>
			<g>
				
					<ellipse transform="matrix(-0.423 -0.9061 0.9061 -0.423 50.0813 38.5164)" fill="#FFFFFF" cx="37.3" cy="3.3" rx="0.9" ry="0.4"/>
			</g>
		</g>
		<g>
			<g>
				<path fill="#E8EAE9" d="M48,21.4v24.4c0,1.2-1,2.2-2.2,2.2H13.1c-1.2,0-2.2-1-2.2-2.2V21.4H48z"/>
			</g>
			<g>
				<rect x="26.6" y="21.4" fill="#55C0EB" width="5.7" height="26.6"/>
			</g>
			<g>
				<rect x="10.9" y="31.8" fill="#55C0EB" width="37.1" height="5.7"/>
			</g>
		</g>
		<g>
			<g>
				<path fill="#F3F3F3" d="M20.8,0.7L0.5,29.8c-0.6,0.8-0.4,1.9,0.4,2.4L6,35.8L28.3,3.8l-5.1-3.5C22.4-0.2,21.3,0,20.8,0.7z"/>
			</g>
			<g>
				
					<rect x="11.1" y="13.6" transform="matrix(0.5723 -0.82 0.82 0.5723 -8.4501 18.8883)" fill="#55C0EB" width="5.6" height="7.9"/>
			</g>
			<g>
				<g>
					<path fill="#8AD7F8" d="M9.6,13.9c-0.5-0.3-8.2,1.9-9.4,4.1c-1,2,1.7,1.8,4.1,3.5C6.7,23.1,7.5,25.7,9,24
						C10.6,22.2,10.1,14.2,9.6,13.9z"/>
					<g>
						<path fill="#55C0EB" d="M6.7,14.4l0.8-1.1c-0.1,2.3-2.3,5-3.7,6c-0.9,0.7-2.2,0.8-3.2,0.2c-0.6-0.4-0.9-0.8-0.4-1.7
							C1,16.6,4.3,15.2,6.7,14.4z"/>
					</g>
				</g>
				<g>
					<path fill="#8AD7F8" d="M8.9,14.8C8.5,14.4,7.9,6.4,9.5,4.6C11,3,11.8,5.6,14.2,7.2s5.1,1.6,4.1,3.5
						C17.1,12.9,9.4,15.1,8.9,14.8z"/>
					<g>
						<path fill="#55C0EB" d="M8.5,11.9L7.8,13c2.1-0.9,3.9-3.9,4.4-5.5c0.3-1.1,0-2.4-0.9-3.1C10.7,4,10.1,3.9,9.5,4.6
							C8.5,5.8,8.3,9.3,8.5,11.9z"/>
					</g>
				</g>
				<path fill="#415A6B" d="M11.8,14.2c-0.3,1.1-0.9,1.9-1.8,2.5l-3.3-2.3c0-1.2,0.6-2.1,1.8-2.5L11.8,14.2z"/>
			</g>
		</g>
	</g>
</g>
</svg>
