<?xml version="1.0" encoding="utf-8"?>
<!-- Generator: Adobe Illustrator 18.0.0, SVG Export Plug-In . SVG Version: 6.00 Build 0)  -->
<!DOCTYPE svg PUBLIC "-//W3C//DTD SVG 1.1//EN" "http://www.w3.org/Graphics/SVG/1.1/DTD/svg11.dtd">
<svg version="1.1" id="Layer_1" xmlns="http://www.w3.org/2000/svg" xmlns:xlink="http://www.w3.org/1999/xlink" x="0px" y="0px"
	 viewBox="0 0 48 48" enable-background="new 0 0 48 48" xml:space="preserve">
<g>
	<rect y="21.9" fill="#F2F2F2" width="48" height="22.1"/>
	<rect y="19" fill="#FFD15C" width="48" height="2.9"/>
	<path fill="#40596B" d="M42.3,0c-2.3,0-4.2,1.9-4.2,4.2v3.3H26.9V4.2c0-0.7,0.6-1.3,1.3-1.3s1.3,0.6,1.3,1.3c0,0.8,0.6,1.4,1.4,1.4
		s1.4-0.6,1.4-1.4c0-2.3-1.9-4.2-4.2-4.2S24,1.9,24,4.2V32c0,0.8,0.6,1.4,1.4,1.4s1.4-0.6,1.4-1.4v-4.4h11.2V32
		c0,0.8,0.6,1.4,1.4,1.4c0.8,0,1.4-0.6,1.4-1.4V4.2c0-0.7,0.6-1.3,1.3-1.3s1.3,0.6,1.3,1.3c0,0.8,0.6,1.4,1.4,1.4
		c0.8,0,1.4-0.6,1.4-1.4C46.4,1.9,44.6,0,42.3,0z M26.9,16.1h11.2V19H26.9V16.1z M38.1,10.3v2.9H26.9v-2.9H38.1z M26.9,24.8v-2.9
		h11.2v2.9H26.9z"/>
	<g>
		<path fill="#29B9E5" d="M43.2,28.9c-0.9,1.7-2.7,2.8-4.8,2.8c-2.1,0-3.9-1.1-4.8-2.8c-0.9,1.7-2.7,2.8-4.8,2.8s-3.9-1.1-4.8-2.8
			c-0.9,1.7-2.7,2.8-4.8,2.8s-3.9-1.1-4.8-2.8c-0.9,1.7-2.7,2.8-4.8,2.8s-3.9-1.1-4.8-2.8c-0.9,1.7-2.7,2.8-4.8,2.8v11.1h48V31.7
			C45.9,31.7,44.1,30.5,43.2,28.9z"/>
		<path fill="#54C0EB" d="M43.2,33.5c-0.9,1.7-2.7,2.8-4.8,2.8c-2.1,0-3.9-1.1-4.8-2.8c-0.9,1.7-2.7,2.8-4.8,2.8s-3.9-1.1-4.8-2.8
			c-0.9,1.7-2.7,2.8-4.8,2.8s-3.9-1.1-4.8-2.8c-0.9,1.7-2.7,2.8-4.8,2.8s-3.9-1.1-4.8-2.8c-0.9,1.7-2.7,2.8-4.8,2.8v11.1h48V36.3
			C45.9,36.3,44.1,35.2,43.2,33.5z"/>
		<path fill="#84DBFF" d="M43.2,38.1c-0.9,1.7-2.7,2.8-4.8,2.8c-2.1,0-3.9-1.1-4.8-2.8c-0.9,1.7-2.7,2.8-4.8,2.8s-3.9-1.1-4.8-2.8
			c-0.9,1.7-2.7,2.8-4.8,2.8s-3.9-1.1-4.8-2.8c-0.9,1.7-2.7,2.8-4.8,2.8s-3.9-1.1-4.8-2.8c-0.9,1.7-2.7,2.8-4.8,2.8V48h48v-7.1
			C45.9,40.9,44.1,39.8,43.2,38.1z"/>
	</g>
</g>
</svg>
