<?xml version="1.0" encoding="utf-8"?>
<!-- Generator: Adobe Illustrator 18.0.0, SVG Export Plug-In . SVG Version: 6.00 Build 0)  -->
<!DOCTYPE svg PUBLIC "-//W3C//DTD SVG 1.1//EN" "http://www.w3.org/Graphics/SVG/1.1/DTD/svg11.dtd">
<svg version="1.1" id="Layer_1" xmlns="http://www.w3.org/2000/svg" xmlns:xlink="http://www.w3.org/1999/xlink" x="0px" y="0px"
	 viewBox="0 0 48 48" enable-background="new 0 0 48 48" xml:space="preserve">
<g>
	<path fill="#334A5E" d="M15.4,14.8c0,0,0.9-3.9-2.8-4.1c0,0,2-3.6,8.9-1.5L17,15.4L15.4,14.8z"/>
	<path fill="#334A5E" d="M32.5,18.3c0,0,2.8,2.2,1.5,5.4c0,0,4.5-1.5,1.7-7.4l-3.3,0.1V18.3z"/>
	<path fill="#40596B" d="M43.5,8.9c-1.5-3.6-6.9-3.9-6.9-3.9c-12.9-1.3-21.2,9.9-21.2,9.9c-5.6,7.1-8,16.4-9,22.1h4.1l0.7-1
		c1.4-2.6,4.8-5.9,4.8-5.9l22.3-18.3c0,0,4.4,0.9,5.2,0.1c0.9-0.8,4.3-2.1,4.3-2.1C47,9.1,43.5,8.9,43.5,8.9z"/>
	<path fill="#334A5E" d="M0.4,40.5c-0.9,0.9,0.2,2.3,1.2,1.7c1.9-1.1,3.6-2,4-1.7c1.1,0.7,1.6,1.4,4.1,1.3c1,0,1.9,0.5,2.7,1.2
		c0.8,0.7,1.9-0.1,1.7-1c-0.4-1.7-1.3-3.8-3.1-6.2c-1-1.4-3-1.7-4.3-0.6C5,36.4,2.6,38.4,0.4,40.5z"/>
	<circle fill="#F2F2F2" cx="35.6" cy="8.5" r="1"/>
	<circle fill="#54C0EB" cx="35.6" cy="8.5" r="0.5"/>
	<path fill="#334A5E" d="M43.5,8.9c0,0-3.4,0.7-5.2,2.9h5.8l3.7-2C47.8,9.7,47.4,9.2,43.5,8.9z"/>
	<path fill="#CDD6E0" d="M47.8,9.7c0,0,1.7,2.3-5,3.5c0,0-6.7,2.3-11.5,5.8c0,0-8.1,6.2-8.9,6.7c-0.8,0.5-3.5,2.3-6.4,4.2
		c0,0-5.4-7,4.8-13.8c0,0,3.7-2.8,9.2-4.6c3.5-1.1,7.2-1.2,10.8-0.6c0.9,0.2,2,0.2,2.9-0.2C46.1,10,47.8,9.7,47.8,9.7z"/>
	<path fill="#40596B" d="M28.2,15.9c-2.3,1.8-6.6,5.2-6.7,6.3c0,0,4.5-3.4,7.6-4.1c0.5-0.1,0.9-0.6,0.8-1.1l-0.1-0.5
		C29.7,15.8,28.8,15.5,28.2,15.9z"/>
</g>
</svg>
