<?xml version="1.0" encoding="utf-8"?>
<!-- Generator: Adobe Illustrator 18.0.0, SVG Export Plug-In . SVG Version: 6.00 Build 0)  -->
<!DOCTYPE svg PUBLIC "-//W3C//DTD SVG 1.1//EN" "http://www.w3.org/Graphics/SVG/1.1/DTD/svg11.dtd">
<svg version="1.1" id="Layer_1" xmlns="http://www.w3.org/2000/svg" xmlns:xlink="http://www.w3.org/1999/xlink" x="0px" y="0px"
	 viewBox="0 0 48 48" enable-background="new 0 0 48 48" xml:space="preserve">
<g>
	<g>
		<path fill="#FFD15C" d="M5.7,44.9L5.7,44.9c-6.4-5-7.6-14.3-2.6-20.7l12-15.4c0.7-0.8,1.9-1,2.7-0.3l0,0c0.8,0.7,1,1.9,0.3,2.7
			l-12,15.4c-3.7,4.7-2.8,11.5,1.9,15.2l0,0c4.7,3.7,11.6,2.8,15.2-1.9L42.7,15c2.3-3,1.8-7.4-1.2-9.7l0,0c-3-2.3-7.4-1.8-9.7,1.2
			L16,26.8c-1,1.3-0.8,3.2,0.5,4.2l0,0c1.3,1,3.2,0.8,4.2-0.5l8.3-10.7c0.7-0.8,1.9-1,2.7-0.3l0,0c0.8,0.7,1,1.9,0.3,2.7l-8.3,10.7
			c-2.3,3-6.6,3.5-9.6,1.2l0,0c-3-2.3-3.5-6.6-1.2-9.6L28.7,4.2c3.7-4.7,10.4-5.6,15.2-1.9l0,0c4.7,3.7,5.6,10.4,1.9,15.2L26.4,42.3
			C21.4,48.7,12.1,49.9,5.7,44.9z"/>
	</g>
</g>
</svg>
