<?xml version="1.0" encoding="utf-8"?>
<!-- Generator: Adobe Illustrator 18.0.0, SVG Export Plug-In . SVG Version: 6.00 Build 0)  -->
<!DOCTYPE svg PUBLIC "-//W3C//DTD SVG 1.1//EN" "http://www.w3.org/Graphics/SVG/1.1/DTD/svg11.dtd">
<svg version="1.1" id="Layer_1" xmlns="http://www.w3.org/2000/svg" xmlns:xlink="http://www.w3.org/1999/xlink" x="0px" y="0px"
	 viewBox="0 0 48 48" enable-background="new 0 0 48 48" xml:space="preserve">
<g>
	<g>
		
			<rect x="5.1" y="36.1" transform="matrix(0.7071 -0.7071 0.7071 0.7071 -26.2899 17.1351)" fill="#ACB3BA" width="4.9" height="8.4"/>
		<polygon fill="#40596B" points="3.5,39.7 0,43.2 6.6,45.9 8.1,44.4 		"/>
		
			<rect x="15.2" y="22.2" transform="matrix(0.7071 -0.7071 0.7071 0.7071 -17.2727 20.8707)" fill="#FF7058" width="2.6" height="18.2"/>
		<path fill="#FF7058" d="M47.1,10.8L37.1,0.7c-0.8-0.8-2-0.8-2.8,0l-2.8,2.8l12.9,12.9l2.8-2.8C47.9,12.8,47.9,11.6,47.1,10.8z"/>
		
			<rect x="19" y="6" transform="matrix(-0.7071 -0.7071 0.7071 -0.7071 34.0848 53.5407)" fill="#40596B" width="18.2" height="27.5"/>
		<polygon fill="#CDD6E0" points="9.2,25.8 22.1,38.7 12.3,41.5 6.3,35.6 		"/>
		
			<rect x="8.8" y="29.2" transform="matrix(-0.7071 -0.7071 0.7071 -0.7071 9.505 63.722)" fill="#F2F2F2" width="18.2" height="1.3"/>
		
			<rect x="29.2" y="8.9" transform="matrix(-0.7071 -0.7071 0.7071 -0.7071 58.6646 43.3594)" fill="#F2F2F2" width="18.2" height="1.3"/>
	</g>
	<rect x="9.2" y="46.1" fill="#FFD15C" width="38.8" height="1.8"/>
</g>
</svg>
