<?xml version="1.0" encoding="utf-8"?>
<!-- Generator: Adobe Illustrator 18.0.0, SVG Export Plug-In . SVG Version: 6.00 Build 0)  -->
<!DOCTYPE svg PUBLIC "-//W3C//DTD SVG 1.1//EN" "http://www.w3.org/Graphics/SVG/1.1/DTD/svg11.dtd">
<svg version="1.1" id="Layer_1" xmlns="http://www.w3.org/2000/svg" xmlns:xlink="http://www.w3.org/1999/xlink" x="0px" y="0px"
	 viewBox="0 0 512 512" enable-background="new 0 0 512 512" xml:space="preserve">
<g>
	<circle fill="#40596B" cx="190.2" cy="190.2" r="188.2"/>
	<path fill="#FFFFFF" d="M190.2,36C105.1,36,36,105.1,36,190.2s69.2,154.2,154.2,154.2s154.2-69.2,154.2-154.2S275.2,36,190.2,36z"
		/>
	<path fill="#84DBFF" d="M190.2,69.9c-66.3,0-120.3,53.9-120.3,120.3s53.9,120.3,120.3,120.3s120.3-54,120.3-120.3
		S256.5,69.9,190.2,69.9z"/>
	<path fill="#54C0EB" d="M190.2,251.1c-33.6,0-60.9-27.3-60.9-60.9s27.3-60.9,60.9-60.9s60.9,27.3,60.9,60.9
		S223.8,251.1,190.2,251.1z"/>
	<path fill="#FFFFFF" d="M137.5,187.4c-12,0-21.7-9.7-21.7-21.7c0-12,9.7-21.7,21.7-21.7s21.7,9.7,21.7,21.7
		C159.2,177.7,149.4,187.4,137.5,187.4z"/>
	<path fill="#FFFFFF" d="M169.2,192.7c-5.5,0-10-4.5-10-10c0-5.5,4.5-10,10-10c5.5,0,10,4.5,10,10
		C179.2,188.2,174.7,192.7,169.2,192.7z"/>
	<path fill="#FF7058" d="M494.8,421.1L409.6,336c-20.3-20.3-53.3-20.3-73.6,0c-20.3,20.3-20.3,53.3,0,73.6l85.2,85.2
		c20.3,20.3,53.3,20.3,73.6,0v0C515.1,474.4,515.1,441.5,494.8,421.1z"/>
	<path fill="#F1543F" d="M336,336L336,336c5.5-5.5,11.9-9.4,18.7-12l-17-17c-9,11.4-19.3,21.7-30.7,30.7l17,17
		C326.5,347.9,330.5,341.4,336,336z"/>
</g>
</svg>
