<?xml version="1.0" encoding="utf-8"?>
<!-- Generator: Adobe Illustrator 18.0.0, SVG Export Plug-In . SVG Version: 6.00 Build 0)  -->
<!DOCTYPE svg PUBLIC "-//W3C//DTD SVG 1.1//EN" "http://www.w3.org/Graphics/SVG/1.1/DTD/svg11.dtd">
<svg version="1.1" id="Layer_1" xmlns="http://www.w3.org/2000/svg" xmlns:xlink="http://www.w3.org/1999/xlink" x="0px" y="0px"
	 viewBox="0 0 48 48" enable-background="new 0 0 48 48" xml:space="preserve">
<g>
	<g>
		<path fill="#ADB3BA" d="M28,4h-3V1c0-0.6-0.4-1-1-1s-1,0.4-1,1v3h-3c-0.6,0-1,0.4-1,1c0,0.6,0.4,1,1,1h3v8.7h2V6h3
			c0.6,0,1-0.4,1-1C29,4.4,28.5,4,28,4z"/>
		<g>
			<polygon fill="#F3705A" points="48,23.1 44.6,12.9 3.4,12.9 0,23.1 			"/>
		</g>
		<g>
			<rect x="3.4" y="23.1" fill="#E8EAE9" width="13.1" height="24.9"/>
		</g>
		<g>
			<rect x="31.5" y="23.1" fill="#E8EAE9" width="13.1" height="24.9"/>
		</g>
		<g>
			<g>
				<g>
					<rect x="6.9" y="27.1" fill="#8AD7F8" width="6.1" height="6.5"/>
				</g>
				<g>
					<rect x="35" y="27.1" fill="#8AD7F8" width="6.1" height="6.5"/>
				</g>
			</g>
			<g>
				<g>
					<rect x="6.9" y="37.5" fill="#8AD7F8" width="6.1" height="6.5"/>
				</g>
				<g>
					<rect x="35" y="37.5" fill="#8AD7F8" width="6.1" height="6.5"/>
				</g>
			</g>
		</g>
		<path fill="#F05540" d="M33.9,22.1l-8.7-8.7c-0.7-0.7-1.8-0.7-2.5,0l-8.7,8.7c-0.7,0.7-0.7,1.8,0,2.5c0.7,0.7,1.8,0.7,2.5,0
			l7.5-7.5l7.5,7.5c0.7,0.7,1.8,0.7,2.5,0C34.6,23.9,34.6,22.8,33.9,22.1z"/>
		<g>
			<g>
				<polygon fill="#F3F3F3" points="31.5,48 31.5,24.6 24,17.2 16.5,24.6 16.5,48 				"/>
			</g>
		</g>
		<g>
			<g>
				<path fill="#415A6B" d="M19.8,40.2l0,7.8h8.4l0-7.8c0-2.3-1.9-4.2-4.2-4.2h0C21.7,36,19.8,37.9,19.8,40.2z"/>
			</g>
			<g>
				<path fill="#344A5E" d="M21.4,48v-7.8c0-1.4,1.2-2.6,2.6-2.6c1.4,0,2.6,1.2,2.6,2.6V48H21.4z"/>
			</g>
		</g>
	</g>
</g>
</svg>
