<?xml version="1.0" encoding="utf-8"?>
<!-- Generator: Adobe Illustrator 18.0.0, SVG Export Plug-In . SVG Version: 6.00 Build 0)  -->
<!DOCTYPE svg PUBLIC "-//W3C//DTD SVG 1.1//EN" "http://www.w3.org/Graphics/SVG/1.1/DTD/svg11.dtd">
<svg version="1.1" id="Layer_1" xmlns="http://www.w3.org/2000/svg" xmlns:xlink="http://www.w3.org/1999/xlink" x="0px" y="0px"
	 viewBox="0 0 48 48" enable-background="new 0 0 48 48" xml:space="preserve">
<g>
	<g>
		<g>
			<path fill="#F7B64C" d="M47,0.1c-0.6-0.2-1.3,0-1.7,0.6c-1.8,2.5-5.9,3.5-9,3.8v3c2.5-0.2,6-0.9,8.7-2.5
				c-0.8,8.9-6.7,16.5-15,19.6v3.2C40.5,24.3,48,14.3,48,3V1.5C48,0.8,47.6,0.3,47,0.1z"/>
			<path fill="#F7B64C" d="M3.1,4.9c2.4,1.5,5.3,2.1,7.7,2.4v-3c-3-0.4-6.4-1.5-8.1-3.7C2.3,0.1,1.7-0.1,1,0.1C0.4,0.3,0,0.8,0,1.5
				V3c0,11.3,7.4,21.2,17.9,24.6v-3.2C9.7,21.4,3.8,13.8,3.1,4.9z"/>
		</g>
		<path fill="#415A6B" d="M35.1,48v-9.1c0-1.1-0.9-2-2-2H14.9c-1.1,0-2,0.9-2,2V48H35.1z"/>
		<path fill="#F7B64C" d="M27.5,28.6h-7.1c-0.2,3.6-2.3,6.8-5.6,8.3h18.3l0,0C29.8,35.4,27.7,32.2,27.5,28.6z"/>
		<path fill="#FFD15C" d="M10.4,0v14.3c0,8,5.7,14.8,13.6,16.3h0c7.9-1.4,13.6-8.3,13.6-16.3V0H10.4z"/>
	</g>
</g>
</svg>
