<?xml version="1.0" encoding="utf-8"?>
<!-- Generator: Adobe Illustrator 18.0.0, SVG Export Plug-In . SVG Version: 6.00 Build 0)  -->
<!DOCTYPE svg PUBLIC "-//W3C//DTD SVG 1.1//EN" "http://www.w3.org/Graphics/SVG/1.1/DTD/svg11.dtd">
<svg version="1.1" id="Layer_1" xmlns="http://www.w3.org/2000/svg" xmlns:xlink="http://www.w3.org/1999/xlink" x="0px" y="0px"
	 viewBox="0 0 48 48" enable-background="new 0 0 48 48" xml:space="preserve">
<g>
	<g>
		<path fill="#415A6B" d="M22.1,13.6L1.4,38c-2,2.4-1.9,6,0.3,8.2c2.2,2.2,5.8,2.4,8.2,0.3l24.4-20.7L22.1,13.6z"/>
		<circle fill="#ADB3BA" cx="34.7" cy="13.3" r="13.3"/>
		<path fill="#CED6E0" d="M45.9,20.9L27.1,2.1c-1-1-2.6-1-3.5,0s-1,2.6,0,3.5l18.8,18.8c1,1,2.6,1,3.5,0
			C46.8,23.5,46.8,21.9,45.9,20.9z"/>
		<g>
			<path fill="#F3705A" d="M35,27.6L20.4,13c-0.7-0.7-1.9-0.7-2.6,0l-5.9,5.9c-0.7,0.7-0.7,1.9,0,2.6l14.6,14.6
				c0.7,0.7,1.9,0.7,2.6,0l5.9-5.9C35.8,29.5,35.8,28.3,35,27.6z"/>
			<g>
				<path fill="#FFFFFF" d="M20.3,18.1l0.7,0.7l-3.3,3.3L17,21.4l0.5-3.7l-2.1,2.1l-0.7-0.7l3.3-3.3l0.7,0.7l-0.5,3.8L20.3,18.1z"/>
				<path fill="#FFFFFF" d="M24.3,22.1l-0.7,0.7L22,21.1l-0.7,0.7l1.5,1.5l-0.6,0.6l-1.5-1.5l-0.7,0.7l1.7,1.7L21,25.5L18.5,23
					l3.3-3.3L24.3,22.1z"/>
				<path fill="#FFFFFF" d="M24.1,25.7l2.5-1.3l0.8,0.8l-1.3,2.5l2.6-1.3l0.8,0.8L25,29.4l-0.6-0.6l1.6-3l-3,1.6l-0.6-0.6l2.2-4.5
					l0.8,0.8L24.1,25.7z"/>
				<path fill="#FFFFFF" d="M29.9,29.1c-0.1,0-0.2,0-0.3,0.1s-0.1,0.2-0.1,0.4c0,0.1,0.2,0.4,0.4,0.8c0.2,0.4,0.4,0.8,0.4,1.1
					c0,0.3-0.1,0.6-0.4,0.9s-0.7,0.4-1.1,0.4c-0.4,0-0.8-0.2-1.2-0.6c-0.5-0.5-0.8-1.2-0.8-2l1-0.1c0,0.7,0.2,1.2,0.5,1.5
					c0.1,0.1,0.3,0.2,0.4,0.2c0.1,0,0.3,0,0.4-0.1c0.1-0.1,0.1-0.2,0.1-0.4c0-0.1-0.1-0.4-0.3-0.7c-0.3-0.5-0.5-0.9-0.5-1.2
					c0-0.3,0.1-0.6,0.4-1s0.7-0.4,1.1-0.4c0.4,0.1,0.8,0.3,1.1,0.6c0.2,0.2,0.4,0.5,0.6,0.8c0.1,0.3,0.2,0.6,0.3,0.9l-0.9,0.2
					c-0.1-0.5-0.3-0.9-0.6-1.2C30.2,29.1,30.1,29.1,29.9,29.1z"/>
			</g>
		</g>
	</g>
</g>
</svg>
