<?xml version="1.0" encoding="utf-8"?>
<!-- Generator: Adobe Illustrator 18.0.0, SVG Export Plug-In . SVG Version: 6.00 Build 0)  -->
<!DOCTYPE svg PUBLIC "-//W3C//DTD SVG 1.1//EN" "http://www.w3.org/Graphics/SVG/1.1/DTD/svg11.dtd">
<svg version="1.1" id="Layer_1" xmlns="http://www.w3.org/2000/svg" xmlns:xlink="http://www.w3.org/1999/xlink" x="0px" y="0px"
	 viewBox="0 0 48 48" enable-background="new 0 0 48 48" xml:space="preserve">
<g>
	<g>
		<path fill="#CED6E0" d="M28.7,3.9h-9.4V1c0-0.6,0.4-1,1-1h7.4c0.6,0,1,0.4,1,1V3.9z"/>
	</g>
	<path fill="#E8EAE9" d="M10.6,45V6.8c0-1.7,1.3-3,3-3h20.8c1.7,0,3,1.3,3,3V45c0,1.7-1.3,3-3,3H13.6C12,48,10.6,46.7,10.6,45z"/>
	<g>
		<g>
			<g>
				<rect x="14.5" y="7.7" fill="#FFFFFF" width="19" height="36.4"/>
			</g>
		</g>
	</g>
	<g>
		<rect x="14.5" y="37.8" fill="#8AD7F8" width="19" height="6.3"/>
	</g>
	<g>
		<rect x="14.5" y="31.6" fill="#55C0EB" width="19" height="6.3"/>
	</g>
	<g>
		<rect x="14.5" y="25.3" fill="#8AD7F8" width="19" height="6.3"/>
	</g>
	<g>
		<rect x="14.5" y="19.1" fill="#55C0EB" width="19" height="6.3"/>
	</g>
</g>
</svg>
