<?xml version="1.0" encoding="utf-8"?>
<!-- Generator: Adobe Illustrator 18.0.0, SVG Export Plug-In . SVG Version: 6.00 Build 0)  -->
<!DOCTYPE svg PUBLIC "-//W3C//DTD SVG 1.1//EN" "http://www.w3.org/Graphics/SVG/1.1/DTD/svg11.dtd">
<svg version="1.1" id="Layer_1" xmlns="http://www.w3.org/2000/svg" xmlns:xlink="http://www.w3.org/1999/xlink" x="0px" y="0px"
	 viewBox="0 0 48 48" enable-background="new 0 0 48 48" xml:space="preserve">
<g>
	<g>
		<path fill="#ACB3BA" d="M43.3,27.1L25.9,44.5C25.5,44.9,25,45,24.5,45c-0.5,0-1-0.2-1.4-0.6c-0.8-0.8-0.8-2.1,0-2.8l16-16l-22-22
			l-0.2-0.2c-0.8-0.8-0.8-2.1,0-2.8c0.8-0.8,2-0.8,2.8,0l0.2,0.2l11.5,11.5l11.9,11.9C44.1,25,44.1,26.3,43.3,27.1z"/>
	</g>
	<path fill="#CDD6E0" d="M37.9,48H13.3l0,0c0-4.3,3.5-7.8,7.8-7.8h9.1C34.5,40.2,37.9,43.7,37.9,48L37.9,48z"/>
	
		<rect x="22.2" y="-0.1" transform="matrix(0.7071 -0.7071 0.7071 0.7071 1.4406 19.4582)" fill="#9EAAB5" width="4" height="16.2"/>
	<path fill="#FF7058" d="M22.8,18.8l-9.4-9.4l8-8c0.8-0.8,2-0.8,2.8,0l6.5,6.5c0.8,0.8,0.8,2,0,2.8L22.8,18.8z"/>
	<path fill="#FFD15C" d="M19.9,25c-1.2,1.2-2.6,2-4.1,2.3c-2.9,0.8-6.2,0-8.5-2.3c-2.3-2.3-3.1-5.6-2.3-8.5c0.4-1.5,1.2-2.9,2.3-4.1
		c3.5-3.5,9.2-3.5,12.6,0C23.4,15.8,23.4,21.5,19.9,25z"/>
	<path fill="#F8B64C" d="M19.9,25c-1.2,1.2-2.6,2-4.1,2.3L4.9,16.4c0.4-1.5,1.2-2.9,2.3-4.1c3.5-3.5,9.2-3.5,12.6,0
		C23.4,15.8,23.4,21.5,19.9,25z"/>
	<path fill="#F2F2F2" d="M19.6,29.1L3.1,12.6l3.2-3.2c4.5-4.5,11.9-4.5,16.5,0h0c4.5,4.5,4.5,11.9,0,16.5L19.6,29.1z"/>
	<circle fill="#40596B" cx="40.9" cy="25.3" r="3.9"/>
	<circle fill="#FFFFFF" cx="40.9" cy="25.3" r="1.7"/>
</g>
</svg>
