<?xml version="1.0" encoding="utf-8"?>
<!-- Generator: Adobe Illustrator 20.1.0, SVG Export Plug-In . SVG Version: 6.00 Build 0)  -->
<!DOCTYPE svg PUBLIC "-//W3C//DTD SVG 1.1//EN" "http://www.w3.org/Graphics/SVG/1.1/DTD/svg11.dtd">
<svg version="1.1" id="Layer_1" xmlns="http://www.w3.org/2000/svg" xmlns:xlink="http://www.w3.org/1999/xlink" x="0px" y="0px"
	 viewBox="0 0 49 49" enable-background="new 0 0 49 49" xml:space="preserve">
<g>
	<circle fill="#FF7058" cx="24.5" cy="23.5" r="10.9"/>
	<path fill="#84DBFF" d="M24.5,6.8c-6,0-10.9,4.9-10.9,10.9c0,6,21.7,6,21.7,0C35.4,11.7,30.5,6.8,24.5,6.8z"/>
	<path fill="#FF7058" d="M32.9,4.4C32.9,4.4,32.9,4.4,32.9,4.4c-0.2-0.2-0.3-0.4-0.5-0.5c0,0,0,0,0,0c-2-2.1-4.8-3.4-7.9-3.4
		c-2.6,0-4.9,0.9-6.8,2.4c-2.5,2-4.1,5.1-4.1,8.5c0,6,21.7,6,21.7,0C35.4,8.7,34.4,6.3,32.9,4.4z"/>
	<path fill="#F1543F" d="M32.4,3.9c-0.2-0.2-0.5-0.3-0.8-0.2c-0.7,0.2-1-0.2-1-0.2c-1.2-1-1.2,0.6-1.1,1.5c0,0.5-0.3,1-0.7,1.1
		c-0.3,0.1-0.6,0-0.8-0.1c-0.4-0.2-0.6-0.6-0.6-1.1c0-0.8-0.4-1.3-0.4-1.3c-0.5-0.8-1-0.4-1.3,0c-0.1,0.2-0.2,0.5-0.2,0.8
		c0,0.8-0.4,1.3-0.8,1.5C24.2,6,24,6.5,24,6.9c0.3,2.9-0.8,2.6-0.8,2.6c-1.9,0-1.3-3.7-1.3-3.7c-0.1-0.5-0.4-0.6-0.7-0.6
		c-0.4,0-0.8,0.2-1,0.6c-0.4,0.6-1,0.8-1,0.8c-1.3,0.4-1.8-0.3-2-0.9c-0.1-0.5,0-1,0.1-1.4c0.2-0.6,0.3-1,0.3-1.3
		c1.9-1.5,4.2-2.4,6.8-2.4C27.6,0.5,30.4,1.8,32.4,3.9z"/>
	<path fill="#F1543F" d="M32.9,4.4c-0.1-0.1-0.3-0.2-0.3-0.3c0,0,0,0,0,0c0-0.1-0.1-0.1-0.1-0.2C32.6,4.1,32.7,4.2,32.9,4.4z"/>
	<polygon fill="#FFD15C" points="34.2,28.6 33.7,30.1 27.6,48.5 21.6,48.5 15.3,30.1 14.8,28.6 	"/>
	<path fill="#F8B64C" d="M35.1,25.9H13.9c-0.7,0-1.3,0.6-1.3,1.3c0,0.7,0.6,1.3,1.3,1.3h21.1c0.7,0,1.3-0.6,1.3-1.3
		C36.4,26.5,35.8,25.9,35.1,25.9z"/>
	<polygon fill="#F9C553" points="34.2,28.6 33.7,30.1 15.3,30.1 14.8,28.6 	"/>
</g>
</svg>
