<?xml version="1.0" encoding="utf-8"?>
<!-- Generator: Adobe Illustrator 18.0.0, SVG Export Plug-In . SVG Version: 6.00 Build 0)  -->
<!DOCTYPE svg PUBLIC "-//W3C//DTD SVG 1.1//EN" "http://www.w3.org/Graphics/SVG/1.1/DTD/svg11.dtd">
<svg version="1.1" id="Layer_1" xmlns="http://www.w3.org/2000/svg" xmlns:xlink="http://www.w3.org/1999/xlink" x="0px" y="0px"
	 viewBox="0 0 48 48" enable-background="new 0 0 48 48" xml:space="preserve">
<g>
	<rect x="21.2" y="37.2" fill="#334A5E" width="5.7" height="3.8"/>
	<circle fill="#40596B" cx="24" cy="19.3" r="19.3"/>
	<path fill="#FFFFFF" d="M24,34.4c-8.3,0-15.1-6.8-15.1-15.1C8.9,11,15.7,4.3,24,4.3c8.3,0,15.1,6.8,15.1,15.1
		C39.1,27.6,32.3,34.4,24,34.4z"/>
	<path fill="#4CDBC4" d="M29.2,48H18.8v-5c0-1.1,0.9-2,2-2h6.4c1.1,0,2,0.9,2,2V48z"/>
	<path fill="#3DC9AE" d="M29.2,43.7V43c0-1.1-0.9-2-2-2h-6.4c-1.1,0-2,0.9-2,2v0.7H29.2z"/>
	<path fill="#CDD6E0" d="M24,19.3L36.5,16c1.2,4.6,0,9.1-3.3,12.5L24,19.3z"/>
	<path fill="#54C0EB" d="M24,19.3l3.3-12.5c4.6,1.2,7.9,4.5,9.1,9.1L24,19.3z"/>
	<path fill="#FFD15C" d="M24,19.3l-11.7-5.4c2.7-5.7,8.9-8.6,15-7L24,19.3z"/>
	<path fill="#FF7058" d="M24,19.3l9.1,9.1c-5,5-13.2,5-18.2,0c-3.9-3.9-4.9-9.6-2.6-14.6L24,19.3z"/>
</g>
</svg>
