<?xml version="1.0" encoding="utf-8"?>
<!-- Generator: Adobe Illustrator 18.0.0, SVG Export Plug-In . SVG Version: 6.00 Build 0)  -->
<!DOCTYPE svg PUBLIC "-//W3C//DTD SVG 1.1//EN" "http://www.w3.org/Graphics/SVG/1.1/DTD/svg11.dtd">
<svg version="1.1" id="Layer_1" xmlns="http://www.w3.org/2000/svg" xmlns:xlink="http://www.w3.org/1999/xlink" x="0px" y="0px"
	 viewBox="0 0 512 512" enable-background="new 0 0 512 512" xml:space="preserve">
<g>
	<path fill="#F2F2F2" d="M392.2,2h-369C11.5,2,2,11.5,2,23.2v375.1L113.8,510h278.4c11.7,0,21.2-9.5,21.2-21.2V23.2
		C413.4,11.5,403.9,2,392.2,2z"/>
	<g>
		<rect x="64" y="243.1" fill="#CDD5DF" width="287.3" height="25.8"/>
		<rect x="64" y="78.7" fill="#FFD05C" width="151.7" height="25.8"/>
		<rect x="215.7" y="407.5" fill="#65C5B8" width="135.6" height="25.8"/>
		<rect x="64" y="325.3" fill="#CDD5DF" width="287.3" height="25.8"/>
		<rect x="64" y="160.9" fill="#CDD5DF" width="287.3" height="25.8"/>
	</g>
	<g>
		
			<rect x="395.6" y="323.1" transform="matrix(0.7071 -0.7071 0.7071 0.7071 -119.2061 389.2042)" fill="#F05540" width="29.2" height="30.8"/>
		<path fill="#41596B" d="M405.9,158.4c-48.5-48.5-127.3-48.5-175.8,0c-48.5,48.5-48.5,127.3,0,175.8c48.5,48.5,127.3,48.5,175.8,0
			C454.4,285.7,454.4,206.9,405.9,158.4z"/>
		<path fill="#FFD05C" d="M500.6,383.4l-39.2-39.2c-12.6-12.6-32.9-12.6-45.5,0c-12.6,12.6-12.6,32.9,0,45.5l39.2,39.2
			c12.6,12.6,32.9,12.6,45.5,0C513.1,416.3,513.1,395.9,500.6,383.4z"/>
		<path fill="#FFFFFF" d="M380.2,308.5c-34.3,34.3-90.1,34.3-124.3,0c-34.3-34.3-34.3-90.1,0-124.3c34.3-34.3,90.1-34.3,124.3,0
			C414.5,218.4,414.5,274.2,380.2,308.5z"/>
	</g>
	<path fill="#CDD5DF" d="M113.8,419.4c0-11.7-9.5-21.2-21.2-21.2H2L113.8,510V419.4z"/>
</g>
</svg>
