<?xml version="1.0" encoding="utf-8"?>
<!-- Generator: Adobe Illustrator 18.0.0, SVG Export Plug-In . SVG Version: 6.00 Build 0)  -->
<!DOCTYPE svg PUBLIC "-//W3C//DTD SVG 1.1//EN" "http://www.w3.org/Graphics/SVG/1.1/DTD/svg11.dtd">
<svg version="1.1" id="Layer_1" xmlns="http://www.w3.org/2000/svg" xmlns:xlink="http://www.w3.org/1999/xlink" x="0px" y="0px"
	 viewBox="0 0 48 48" enable-background="new 0 0 48 48" xml:space="preserve">
<g>
	<g>
		<path fill="#FF7058" d="M36,35.8L36,35.8c-0.5,0.3-0.8,0.7-1,1.2c-0.4,0.8-0.7,1.6-1.1,2.5c-0.6,1.5-2.3,2-3.4,0.8
			c-4.9-5.8-7.1-13.3-6-20.6c1.2,0,2.4,0,3.6,0c1,5.5,4.2,10.1,8.6,12.8C37.7,33.1,37.4,34.9,36,35.8z"/>
		<path fill="#FF7058" d="M12,35.8L12,35.8c0.5,0.3,0.8,0.7,1,1.2c0.4,0.8,0.7,1.6,1.1,2.5c0.6,1.5,2.3,2,3.4,0.8
			c4.9-5.8,7.1-13.3,6-20.6c-1.2,0-2.4,0-3.6,0c-1,5.5-4.2,10.1-8.6,12.8C10.3,33.1,10.6,34.9,12,35.8z"/>
	</g>
	<path fill="#FFD15C" d="M48,24.9c0-0.8-0.1-1.6-0.4-2.3c-0.8-2.2-0.8-4.6,0-6.7c0.3-0.7,0.4-1.5,0.4-2.3C48,9.9,45.1,7,41.4,7
		C37.8,7,26,15,26.2,19.2C26,23.5,37.8,31.4,41.4,31.4C45.1,31.4,48,28.5,48,24.9z"/>
	<path fill="#FFD15C" d="M0,24.9c0-0.8,0.1-1.6,0.4-2.3c0.8-2.2,0.8-4.6,0-6.7C0.1,15.1,0,14.4,0,13.6C0,9.9,2.9,7,6.6,7
		S22,15,21.8,19.2C22,23.5,10.2,31.4,6.6,31.4S0,28.5,0,24.9z"/>
	<path fill="#F8B64C" d="M28.7,23.7c-2.1,1.1-3.4,1.2-4.7,1.2c-1.3,0-2.6-0.1-4.7-1.2v-9c2.1-1.1,3.4-1.2,4.7-1.2
		c1.3,0,2.6,0.1,4.7,1.2V23.7z"/>
	<g>
		<path fill="#F8B64C" d="M39.9,8.3c-0.8,0.4-10.5,6.3-10.1,6.9c0.3,0.7,10.6-4.2,11.4-4.6c0.8-0.4,1.2-1.3,0.8-2
			C41.6,8,40.7,7.8,39.9,8.3z"/>
		<path fill="#F8B64C" d="M8.1,8.3c0.8,0.4,10.5,6.3,10.1,6.9C17.9,15.9,7.7,11,6.9,10.6c-0.8-0.4-1.2-1.3-0.8-2
			C6.4,8,7.3,7.8,8.1,8.3z"/>
	</g>
	<g>
		<g>
			<path fill="#F8B64C" d="M29.7,18.1c0,0,0.1-0.1,0.3-0.2c0.1-0.1,0.2-0.1,0.4-0.2c0.2-0.1,0.3-0.2,0.5-0.2
				c0.2-0.1,0.4-0.2,0.7-0.2c0.2-0.1,0.5-0.2,0.7-0.2c0.3-0.1,0.5-0.1,0.8-0.2c0.3-0.1,0.6-0.1,0.9-0.1c0.3,0,0.6-0.1,0.9-0.1
				c0.1,0,0.3,0,0.4,0c0.1,0,0.3,0,0.4,0c0.1,0,0.3,0,0.4,0c0.1,0,0.3,0,0.4,0c0.2,0,0.5,0,0.7,0.1c0.2,0,0.4,0.1,0.6,0.1
				c0.2,0,0.3,0.1,0.4,0.1c0.2,0.1,0.4,0.1,0.4,0.1s-0.1,0-0.4,0c-0.1,0-0.3,0-0.4,0c-0.2,0-0.4,0-0.6,0c-0.2,0-0.4,0-0.7,0
				c-0.1,0-0.2,0-0.4,0c-0.1,0-0.3,0-0.4,0c-0.1,0-0.3,0-0.4,0c-0.1,0-0.3,0-0.4,0.1c-0.3,0-0.6,0.1-0.8,0.1c-0.3,0-0.6,0.1-0.8,0.1
				c-0.3,0-0.5,0.1-0.8,0.1c-0.3,0.1-0.5,0.1-0.8,0.1c-0.2,0-0.5,0.1-0.7,0.1C30.3,18,29.7,18.1,29.7,18.1z"/>
			<path fill="#F8B64C" d="M29.7,20.3c0,0,0.6,0.1,1.4,0.3c0.2,0,0.4,0.1,0.7,0.1c0.2,0.1,0.5,0.1,0.8,0.1c0.3,0,0.5,0.1,0.8,0.1
				c0.3,0,0.6,0.1,0.8,0.1c0.3,0,0.6,0.1,0.8,0.1c0.1,0,0.3,0,0.4,0.1c0.1,0,0.3,0,0.4,0c0.1,0,0.3,0,0.4,0c0.1,0,0.3,0,0.4,0
				c0.2,0,0.5,0,0.7,0c0.2,0,0.4,0,0.6,0c0.2,0,0.3,0,0.4,0c0.3,0,0.4,0,0.4,0s-0.1,0-0.4,0.1c-0.1,0-0.3,0.1-0.4,0.1
				c-0.2,0-0.4,0.1-0.6,0.1c-0.2,0-0.4,0.1-0.7,0.1c-0.1,0-0.3,0-0.4,0c-0.1,0-0.3,0-0.4,0c-0.1,0-0.3,0-0.4,0c-0.1,0-0.3,0-0.4,0
				c-0.3,0-0.6-0.1-0.9-0.1c-0.3,0-0.6-0.1-0.9-0.1c-0.3-0.1-0.6-0.1-0.8-0.2c-0.3-0.1-0.5-0.1-0.7-0.2c-0.2-0.1-0.5-0.2-0.7-0.2
				c-0.2-0.1-0.4-0.2-0.5-0.2c-0.2-0.1-0.3-0.1-0.4-0.2C29.9,20.4,29.7,20.3,29.7,20.3z"/>
		</g>
		<g>
			<path fill="#F8B64C" d="M9.3,18.1c0,0,0.1-0.1,0.3-0.2c0.1-0.1,0.2-0.1,0.4-0.2c0.2-0.1,0.3-0.2,0.5-0.2c0.2-0.1,0.4-0.2,0.7-0.2
				c0.2-0.1,0.5-0.2,0.7-0.2c0.3-0.1,0.5-0.1,0.8-0.2c0.3-0.1,0.6-0.1,0.9-0.1c0.3,0,0.6-0.1,0.9-0.1c0.1,0,0.3,0,0.4,0
				c0.1,0,0.3,0,0.4,0c0.1,0,0.3,0,0.4,0c0.1,0,0.3,0,0.4,0c0.2,0,0.5,0,0.7,0.1c0.2,0,0.4,0.1,0.6,0.1c0.2,0,0.3,0.1,0.4,0.1
				c0.2,0.1,0.4,0.1,0.4,0.1s-0.1,0-0.4,0c-0.1,0-0.3,0-0.4,0c-0.2,0-0.4,0-0.6,0c-0.2,0-0.4,0-0.7,0c-0.1,0-0.2,0-0.4,0
				c-0.1,0-0.3,0-0.4,0c-0.1,0-0.3,0-0.4,0c-0.1,0-0.3,0-0.4,0.1c-0.3,0-0.6,0.1-0.8,0.1c-0.3,0-0.6,0.1-0.8,0.1
				c-0.3,0-0.5,0.1-0.8,0.1c-0.3,0.1-0.5,0.1-0.8,0.1c-0.2,0-0.5,0.1-0.7,0.1C9.9,18,9.3,18.1,9.3,18.1z"/>
			<path fill="#F8B64C" d="M9.3,20.3c0,0,0.6,0.1,1.4,0.3c0.2,0,0.4,0.1,0.7,0.1c0.2,0.1,0.5,0.1,0.8,0.1c0.3,0,0.5,0.1,0.8,0.1
				c0.3,0,0.6,0.1,0.8,0.1c0.3,0,0.6,0.1,0.8,0.1c0.1,0,0.3,0,0.4,0.1c0.1,0,0.3,0,0.4,0c0.1,0,0.3,0,0.4,0c0.1,0,0.3,0,0.4,0
				c0.2,0,0.5,0,0.7,0c0.2,0,0.4,0,0.6,0c0.2,0,0.3,0,0.4,0c0.3,0,0.4,0,0.4,0s-0.1,0-0.4,0.1c-0.1,0-0.3,0.1-0.4,0.1
				c-0.2,0-0.4,0.1-0.6,0.1c-0.2,0-0.4,0.1-0.7,0.1c-0.1,0-0.3,0-0.4,0c-0.1,0-0.3,0-0.4,0c-0.1,0-0.3,0-0.4,0c-0.1,0-0.3,0-0.4,0
				c-0.3,0-0.6-0.1-0.9-0.1c-0.3,0-0.6-0.1-0.9-0.1c-0.3-0.1-0.6-0.1-0.8-0.2c-0.3-0.1-0.5-0.1-0.7-0.2c-0.2-0.1-0.5-0.2-0.7-0.2
				c-0.2-0.1-0.4-0.2-0.5-0.2c-0.2-0.1-0.3-0.1-0.4-0.2C9.4,20.4,9.3,20.3,9.3,20.3z"/>
		</g>
	</g>
</g>
</svg>
