<?xml version="1.0" encoding="utf-8"?>
<!-- Generator: Adobe Illustrator 18.0.0, SVG Export Plug-In . SVG Version: 6.00 Build 0)  -->
<!DOCTYPE svg PUBLIC "-//W3C//DTD SVG 1.1//EN" "http://www.w3.org/Graphics/SVG/1.1/DTD/svg11.dtd">
<svg version="1.1" id="Layer_1" xmlns="http://www.w3.org/2000/svg" xmlns:xlink="http://www.w3.org/1999/xlink" x="0px" y="0px"
	 viewBox="0 0 48 48" enable-background="new 0 0 48 48" xml:space="preserve">
<g>
	<g>
		<g>
			<g>
				<path fill="#FFD15C" d="M24.9,23.4c-0.6,0-1.2,0-1.8,0c0.7,0.7-8.8-12.9-7.6-22.5c1.1-3.4,6.7,3.8,8.5,3.7
					c1.8,0.1,7.4-7,8.5-3.7C33.7,10.5,24.3,24.1,24.9,23.4z"/>
			</g>
			<g>
				<path fill="#F7B64C" d="M25.2,20.3c0,3.5-0.5,4.6-1.2,4.6c-0.7,0-1.2-1-1.2-4.6c0-3.4,0.4-9.6,1.2-9.8
					C24.8,10.7,25.3,17,25.2,20.3z"/>
			</g>
		</g>
		<g>
			<g>
				<path fill="#FFD15C" d="M24,22.9c-0.3,0.5-0.6,1.1-0.9,1.6C24.1,24.3,7.6,26,0.2,20c-1.6-2.6,7.6-3.7,8.2-5.3
					c1.1-1.5-1.4-9,1.2-9C17,7.9,24.4,24.1,24,22.9z"/>
			</g>
			<g>
				<path fill="#F7B64C" d="M21.5,21.1c3,1.8,3.5,2.8,3.2,3.4c-0.3,0.6-1.5,0.5-4.4-1.2c-2.9-1.7-7.7-5.1-7.4-5.9
					C13.4,16.8,18.7,19.3,21.5,21.1z"/>
			</g>
		</g>
		<g>
			<g>
				<path fill="#FFD15C" d="M23,23.5c0.3,0.5,0.6,1.1,0.9,1.6c0.5-1.2-7,15-14.4,17.2c-2.6,0-0.1-7.5-1.2-9
					c-0.6-1.6-9.8-2.8-8.2-5.3C7.6,22,24.1,23.7,23,23.5z"/>
			</g>
			<g>
				<path fill="#F7B64C" d="M20.3,24.8c3-1.7,4.1-1.8,4.4-1.2c0.3,0.6-0.3,1.6-3.2,3.4c-2.8,1.7-8.1,4.3-8.6,3.7
					C12.6,29.9,17.5,26.4,20.3,24.8z"/>
			</g>
		</g>
		<g>
			<g>
				<path fill="#FFD15C" d="M23.1,24.6c0.6,0,1.2,0,1.8,0c-0.7-0.7,8.8,12.9,7.6,22.5c-1.1,3.4-6.7-3.8-8.5-3.7
					c-1.8-0.1-7.4,7-8.5,3.7C14.3,37.5,23.7,23.9,23.1,24.6z"/>
			</g>
			<g>
				<path fill="#F7B64C" d="M22.8,27.7c0-3.6,0.5-4.6,1.2-4.6c0.7,0,1.2,1,1.2,4.6c0,3.4-0.4,9.6-1.2,9.8
					C23.2,37.3,22.7,31,22.8,27.7z"/>
			</g>
		</g>
		<g>
			<g>
				<path fill="#FFD15C" d="M24,25.1c0.3-0.5,0.6-1.1,0.9-1.6C23.9,23.7,40.4,22,47.8,28c1.6,2.6-7.6,3.7-8.2,5.3
					c-1.1,1.5,1.4,9-1.2,9C31,40.1,23.6,23.9,24,25.1z"/>
			</g>
			<g>
				<path fill="#F7B64C" d="M26.5,26.9c-3-1.8-3.6-2.8-3.2-3.4c0.3-0.6,1.5-0.5,4.4,1.2c2.9,1.7,7.7,5.1,7.4,5.9
					C34.6,31.2,29.3,28.7,26.5,26.9z"/>
			</g>
		</g>
		<g>
			<g>
				<path fill="#FFD15C" d="M25,24.5c-0.3-0.5-0.6-1.1-0.9-1.6c-0.5,1.2,7-15,14.4-17.2c2.6,0,0.1,7.5,1.2,9
					c0.6,1.6,9.8,2.8,8.2,5.3C40.4,26,23.9,24.3,25,24.5z"/>
			</g>
			<g>
				<path fill="#F7B64C" d="M27.7,23.2c-3,1.7-4.1,1.8-4.4,1.2c-0.3-0.6,0.3-1.6,3.2-3.4c2.8-1.7,8.1-4.3,8.6-3.7
					C35.4,18.1,30.5,21.6,27.7,23.2z"/>
			</g>
		</g>
		<g>
			<path fill="#344A5E" d="M29.1,24c0,2.8-2.3,5.1-5.1,5.1c-2.8,0-5.1-2.3-5.1-5.1c0-2.8,2.3-5.1,5.1-5.1
				C26.8,18.9,29.1,21.2,29.1,24z"/>
		</g>
		<g>
			<path fill="#F3705A" d="M27.2,24c0,1.8-1.4,3.2-3.2,3.2c-1.8,0-3.2-1.5-3.2-3.2c0-1.8,1.4-3.2,3.2-3.2
				C25.8,20.8,27.2,22.2,27.2,24z"/>
		</g>
	</g>
</g>
</svg>
