<?xml version="1.0" encoding="utf-8"?>
<!-- Generator: Adobe Illustrator 19.0.1, SVG Export Plug-In . SVG Version: 6.00 Build 0)  -->
<svg version="1.1" id="Layer_1" xmlns="http://www.w3.org/2000/svg" xmlns:xlink="http://www.w3.org/1999/xlink" x="0px" y="0px"
	 viewBox="0 0 48 48" style="enable-background:new 0 0 48 48;" xml:space="preserve">
<style type="text/css">
	.st0{fill:#66C6B9;}
	.st1{fill:#F3F3F3;}
	.st2{fill:#415A6B;}
	.st3{fill:#CED6E0;}
	.st4{fill:#F3705A;}
	.st5{fill:#E8EAE9;}
	.st6{fill:#4ABAA5;}
	.st7{fill:#F05540;}
	.st8{fill:#FFD15C;}
	.st9{fill:#55C0EB;}
	.st10{fill:#8AD7F8;}
	.st11{fill:#344A5E;}
	.st12{fill:#FFFFFF;}
	.st13{fill:#F7B64C;}
	.st14{fill:#ADB3BA;}
	.st15{fill:#38A892;}
	.st16{fill:#ED9845;}
	.st17{fill:#2D4251;}
	.st18{fill:#304556;}
	.st19{fill:#A5AAAD;}
	.st20{fill:#2D4456;}
	.st21{fill:#4FB0E0;}
	.st22{fill:#2D4354;}
	.st23{fill:#E54C38;}
	.st24{fill:#2B4456;}
	.st25{fill:#2B404F;}
</style>
<g>
	<g>
		<g>
			<g>
				<g>
					<path class="st3" d="M40.2,11.1c-0.8-0.3-1.5-0.8-2-1.5L25.2,30.1L20,21.5c-0.6,0.5-1.3,1-2.2,1.2l5.7,9.2l-12.4,6.1
						c0.5,0.7,0.8,1.5,1,2.3l12.8-6.3l0.9,0l10.7,6.3c0.2-0.8,0.5-1.6,0.9-2.3L27,31.9L40.2,11.1z"/>
				</g>
			</g>
		</g>
		<g>
			<g>
				<circle class="st1" cx="13.7" cy="13.7" r="9.9"/>
			</g>
			<g>
				<g>
					<g>
						<path class="st2" d="M21.9,22.1c-0.1-0.2-0.1-0.5-0.2-0.7c-0.4-1.1-1.1-1.3-1.1-1.3l-0.6,3.3C20.6,23.1,21.2,22.6,21.9,22.1z"
							/>
					</g>
				</g>
				<g>
					<g>
						<path class="st11" d="M8.7,20.2c1.6,0.8,2.1,2.4,1.1,3.3c-0.1,0.1-0.2,0.3-0.3,0.5c0.6,0.2,1.2,0.4,1.8,0.5
							c1.9,0.3,3.8,0.3,5.5-0.1l-5.6-6.4l-1.5-0.5c0,0-0.6,0.3-1.4,0.6c-0.8,0.2-2.5,1.1-2.5,1.1C6.4,19.1,7.2,19.4,8.7,20.2z"/>
						<path class="st11" d="M17.4,24.3c1.3-0.3,2.6-0.9,3.8-1.7c0,0,0-0.1,0-0.1c-0.1-1.2-0.7-2.4-0.7-2.4s-0.8-0.2-1.7-0.8
							C18,18.8,17,18.5,17,18.5s0.5,1.1,0.5,2C17.6,21.1,17.5,23.2,17.4,24.3z"/>
					</g>
				</g>
				<g>
					<g>
						<g>
							
								<ellipse transform="matrix(0.9953 9.721135e-002 -9.721135e-002 0.9953 1.2223 -1.5563)" class="st8" cx="16.6" cy="11.8" rx="0.5" ry="1"/>
						</g>
					</g>
					<g>
						<g>
							<ellipse transform="matrix(-0.967 0.2547 -0.2547 -0.967 23.5 21.1265)" class="st8" cx="10.4" cy="12.1" rx="0.5" ry="1"/>
						</g>
					</g>
				</g>
				<g>
					<g>
						<path class="st8" d="M16.3,10.4l0.1,1c0,0,0.1,1.5,0,2.3s-0.6,1.6-0.6,1.6s0,2,0.7,3.3l-5,0l-0.2-2.9c0,0,0-0.6-0.2-1.1
							c-0.2-0.5-0.5-1.4-0.6-2.7s-0.2-1.3-0.2-1.3S10.1,8.2,11,7.3c0.9-1,3.8-0.6,4.5-0.1C16.2,7.6,16.5,9,16.3,10.4z"/>
					</g>
				</g>
				<g>
					<g>
						<path class="st2" d="M10.5,11.9c0,0,0.1-0.5,0-1.4c-0.1-0.9,0-1.4,0.3-1.7c0,0-0.2-0.6,0.6-0.9c0.8-0.2,1.8,0.3,3.5-0.1
							c0,0,0.9,0.3,1.1,1.1s0,1,0.2,1.5s0.3,1.1,0.3,1.1l0.1,0c0,0,0-0.4,0.2-1c0.1-0.6,0.1-2.6-0.9-3.9s-4.4-1.5-5.3,0.3
							s-0.5,3.9-0.2,4.4C10.5,11.8,10.5,11.9,10.5,11.9z"/>
					</g>
				</g>
				<g>
					<path class="st13" d="M11.2,15c0,0,0,0.1,0,0.1c0.1,0.5,0.7,2.3,3.8,3.5l1.6,0c-0.6-1.3-0.7-3.3-0.7-3.3S13.2,18.2,11.2,15z"/>
				</g>
				<g>
					<g>
						<path class="st3" d="M17.4,24.3l0-4l-1.2-1.6l-0.6-0.4c0,0-0.2,0-0.7-0.1C14.4,18,13,19.6,13,19.6l3.9,4.9
							C17,24.4,17.2,24.4,17.4,24.3z"/>
					</g>
				</g>
				<g>
					<g>
						<path class="st6" d="M16.9,24.5c0.2,0,0.5-0.1,0.7-0.2c-0.1-0.4-0.4-1.1-0.6-1.6c-0.3-0.7-1.1-3-1.1-3S15,19,14.9,19l-0.2,1
							c0,0-0.1,0.6,0.2,1.3C15.2,21.7,16.4,23.6,16.9,24.5z"/>
					</g>
				</g>
				<g>
					<g>
						<path class="st0" d="M14.4,18.1l0.5,0l0.1,0l0.5,0l0.5,0.3c0,0-0.2,0.9-0.1,1.3c0,0-0.8-0.2-1.2,0.3c0,0-0.6-0.8-1.4-1
							C12.6,18.7,14.4,18.1,14.4,18.1z"/>
					</g>
				</g>
				<g>
					<g>
						<path class="st1" d="M16,16.4c0,0-0.5,1.5-0.9,1.8c0,0,0.7,0,0.9,0.6c0.3,0.6,1.1,1.4,1.1,1.4l-0.4-1.8
							C16.7,18.3,16,17,16,16.4z"/>
					</g>
				</g>
				<g>
					<g>
						<path class="st2" d="M17.4,24.4c0.2-0.1,0.5-0.1,0.7-0.2c0.1-0.6,0.1-1.1,0.4-1.6c0.3-0.7,0.7-2.2,0.7-2.2l-1.2-0.9l0.3-0.1
							c0,0-0.8-0.4-1.2-1c-0.4-0.6-0.8-1.1-0.8-1.1s0.5,2.9,0.6,3.6C17,21.4,17.2,23,17.4,24.4z"/>
					</g>
				</g>
				<g>
					<g>
						<path class="st1" d="M11.2,15.7c0,0,0.5,0.5,1,0.7s2.4,1.2,2.7,1.7c0,0-0.7,0.3-1.5,1.7l-2.9-2.7C10.6,17.1,10.9,16,11.2,15.7
							z"/>
					</g>
				</g>
				<g>
					<g>
						<path class="st2" d="M11.3,19.2l-0.4,0.9c0,0,3.9,2.3,5.2,3.8c0.2,0.2,0.3,0.4,0.5,0.6c0.2,0,0.5-0.1,0.7-0.2
							c-1-1.9-4.6-6.4-5.4-7c-0.9-0.7-1.1-1.1-1.1-1.1s-0.3,0.1-0.5,0.6c-0.2,0.4-0.6,0.5-0.7,0.8c0,0.3,0.3,1.6,0.3,1.6L11.3,19.2z
							"/>
					</g>
				</g>
				<g>
					<g>
						<path class="st2" d="M11.3,24.5c-0.1-0.2-0.1-0.4-0.2-0.6c-0.5-1.2-0.7-1.5-0.7-1.5l0,0l0,0c0-0.8-0.6-1.6-1.6-2.2
							c-0.6-0.4-1.2-0.6-1.6-0.8C6.4,19,6,19.3,5.9,19.3c0,0-0.8,0.3-0.8,2C6.9,22.8,8.8,24.1,11.3,24.5z"/>
					</g>
				</g>
			</g>
			<g>
				<path class="st4" d="M13.7,0C6.1,0,0,6.2,0,13.8c0,7.6,6.2,13.7,13.8,13.6c7.6,0,13.7-6.2,13.7-13.8C27.4,6.1,21.3,0,13.7,0z
					 M13.8,23.6c-5.4,0-9.9-4.4-9.9-9.8c0-5.5,4.4-9.9,9.8-9.9c5.4,0,9.9,4.4,9.9,9.8C23.6,19.1,19.2,23.6,13.8,23.6z"/>
			</g>
		</g>
		<g>
			<g>
				<circle class="st8" cx="41.2" cy="6.8" r="6.8"/>
			</g>
			<g>
				<circle class="st13" cx="41.2" cy="6.8" r="3.7"/>
			</g>
		</g>
		<g>
			<g>
				<circle class="st4" cx="41.2" cy="41.2" r="6.8"/>
			</g>
			<g>
				<circle class="st7" cx="41.2" cy="41.2" r="3.7"/>
			</g>
		</g>
		<g>
			<g>
				<circle class="st2" cx="6.8" cy="41.2" r="6.8"/>
			</g>
			<g>
				<circle class="st11" cx="6.8" cy="41.2" r="3.7"/>
			</g>
		</g>
		<g>
			<g>
				<circle class="st0" cx="25.2" cy="32.4" r="6.8"/>
			</g>
			<g>
				<circle class="st6" cx="25.2" cy="32.4" r="3.7"/>
			</g>
		</g>
	</g>
</g>
</svg>
