<?xml version="1.0" encoding="utf-8"?>
<!-- Generator: Adobe Illustrator 18.0.0, SVG Export Plug-In . SVG Version: 6.00 Build 0)  -->
<!DOCTYPE svg PUBLIC "-//W3C//DTD SVG 1.1//EN" "http://www.w3.org/Graphics/SVG/1.1/DTD/svg11.dtd">
<svg version="1.1" id="Layer_1" xmlns="http://www.w3.org/2000/svg" xmlns:xlink="http://www.w3.org/1999/xlink" x="0px" y="0px"
	 viewBox="0 0 48 48" enable-background="new 0 0 48 48" xml:space="preserve">
<g>
	<path fill="#ACB3BA" d="M7.8,31.5C7.1,27.1,5.3,10.9,18.2,5.4c2.5-1.1,6.1-0.5,8.4,1.1c2.9,2,5.5,6.5,2,16.9l2.5,2.5
		c0,0,7-13.1,0.5-21.2c-2.2-2.8-5.6-4.4-9.1-4.6c-5.1-0.3-13.3,1.7-18,15.6c-1.4,4.3-1.8,9.1-1.1,13.6c0.2,1.4,0.4,2.4,0.9,3.4
		c0.5,0.9,1.6,1.2,2.5,0.8l0,0C7.5,32.9,7.9,32.2,7.8,31.5z"/>
	<path fill="#40596B" d="M32.9,46.2L15.7,31.6C11.4,28,11,21.7,14.8,18h0c3.8-3.8,10.1-3.4,13.7,0.9L43,36.1c2.5,3,2.4,7.3-0.2,9.9
		l0,0C40.2,48.6,35.9,48.7,32.9,46.2z"/>
	<circle fill="#ACB3BA" cx="21.5" cy="24.7" r="2.8"/>
</g>
</svg>
