<?xml version="1.0" encoding="utf-8"?>
<!-- Generator: Adobe Illustrator 18.0.0, SVG Export Plug-In . SVG Version: 6.00 Build 0)  -->
<!DOCTYPE svg PUBLIC "-//W3C//DTD SVG 1.1//EN" "http://www.w3.org/Graphics/SVG/1.1/DTD/svg11.dtd">
<svg version="1.1" id="Layer_1" xmlns="http://www.w3.org/2000/svg" xmlns:xlink="http://www.w3.org/1999/xlink" x="0px" y="0px"
	 viewBox="0 0 48 48" enable-background="new 0 0 48 48" xml:space="preserve">
<g>
	<g>
		<g>
			<g>
				<g>
					<g>
						<path fill="#8AD7F8" d="M41.4,21.6l-1-2.9L38,19c-0.3-0.5-0.7-0.9-1.1-1.3l0.6-2.4l-2.8-1.4l-1.6,1.9
							c-0.5-0.1-1.1-0.1-1.6-0.1l-1.3-2.1l-2.9,1l0.3,2.5c-0.5,0.3-0.9,0.7-1.2,1.1L24,17.4l-1.4,2.8l1.9,1.6
							c-0.1,0.5-0.2,1.1-0.1,1.6l-2.1,1.2l1,2.9l2.5-0.2c0.3,0.5,0.7,0.9,1.1,1.2L26.1,31l2.8,1.4l1.6-1.9c0.5,0.1,1.1,0.1,1.6,0.1
							l1.3,2.1l2.9-1L36,29.3c0.5-0.3,0.9-0.7,1.2-1.1l2.4,0.6l1.4-2.8l-1.9-1.6c0.1-0.5,0.1-1.1,0.1-1.6L41.4,21.6z M32.7,25.7
							c-1.4,0.5-2.9-0.3-3.4-1.7c-0.5-1.4,0.3-2.9,1.7-3.4c1.4-0.5,2.9,0.3,3.4,1.7C34.8,23.7,34.1,25.2,32.7,25.7z"/>
					</g>
				</g>
				<g>
					<path fill="#55C0EB" d="M30.5,19.1c-2.2,0.7-3.5,3.1-2.7,5.4c0.7,2.2,3.1,3.5,5.4,2.7c2.2-0.7,3.5-3.1,2.7-5.4
						C35.1,19.6,32.7,18.4,30.5,19.1z M32.7,25.7c-1.4,0.5-2.9-0.3-3.4-1.7c-0.5-1.4,0.3-2.9,1.7-3.4c1.4-0.5,2.9,0.3,3.4,1.7
						C34.8,23.7,34.1,25.2,32.7,25.7z"/>
				</g>
			</g>
			<g>
				<g>
					<g>
						<path fill="#F3705A" d="M47.7,10L48,7.6l-1.9-0.7c-0.1-0.5-0.2-0.9-0.4-1.3L47,4.1l-1.5-2L43.7,3c-0.4-0.3-0.7-0.5-1.1-0.7
							l-0.2-2L39.9,0l-0.7,1.9c-0.4,0.1-0.9,0.2-1.3,0.3L36.4,1l-2,1.5l0.9,1.8C35,4.7,34.8,5,34.6,5.5l-2,0.2l-0.3,2.5l1.9,0.7
							c0.1,0.4,0.2,0.9,0.3,1.3l-1.3,1.5l1.5,2l1.8-0.9c0.4,0.3,0.7,0.5,1.1,0.7l0.2,2l2.5,0.3l0.7-1.9c0.4-0.1,0.9-0.2,1.3-0.4
							l1.5,1.3l2-1.5L45,11.4c0.3-0.4,0.5-0.7,0.7-1.2L47.7,10z M39.9,10c-1.2-0.1-2-1.2-1.9-2.4c0.1-1.2,1.2-2,2.4-1.9
							c1.2,0.1,2,1.2,1.9,2.4C42.2,9.3,41.1,10.1,39.9,10z"/>
					</g>
				</g>
				<g>
					<path fill="#F05540" d="M40.6,4.4c-1.9-0.2-3.6,1.1-3.8,3c-0.2,1.9,1.1,3.6,3,3.8s3.6-1.1,3.8-3C43.8,6.4,42.5,4.7,40.6,4.4z
						 M39.9,10c-1.2-0.1-2-1.2-1.9-2.4c0.1-1.2,1.2-2,2.4-1.9c1.2,0.1,2,1.2,1.9,2.4C42.2,9.3,41.1,10.1,39.9,10z"/>
				</g>
			</g>
		</g>
		<g>
			<g>
				<g>
					<path fill="#415A6B" d="M12.4,0c2,0.5,4.9,3.8,4.9,3.8c15.4,4.8,9.3,21.8,9.3,21.8c-3.9,10.7-2,12.9-2,12.9H7.4
						c-3.9-9.3,8.4-19.3,8.4-19.3s-3.1,1-5-0.2s-3.6,0.5-3.6,0.5c-0.4,2.2-3.3,1.8-3.3,1.8C2.2,21,0.9,20,0,18.4l0.4-1.5l-0.1-1
						c0-0.4,0.1-0.9,0.4-1.2l6.4-5.8c1.4-2.1,4.8-3.2,4.8-3.2l-0.4-1.1c0.6-0.4,1.6-0.6,2.4-0.7L12.4,0z"/>
				</g>
			</g>
			<g>
				<path fill="#344A5E" d="M25.1,43.2H6.9c-1,0-1.8-0.8-1.8-1.8v-1.1c0-1,0.8-1.8,1.8-1.8h18.2c1,0,1.8,0.8,1.8,1.8v1.1
					C27,42.4,26.1,43.2,25.1,43.2z"/>
			</g>
			<g>
				<path fill="#415A6B" d="M29.9,48H2.2v-1.1c0-2,1.7-3.7,3.7-3.7h20.3c2,0,3.7,1.7,3.7,3.7V48z"/>
			</g>
		</g>
	</g>
</g>
</svg>
