<?xml version="1.0" encoding="utf-8"?>
<!-- Generator: Adobe Illustrator 18.0.0, SVG Export Plug-In . SVG Version: 6.00 Build 0)  -->
<!DOCTYPE svg PUBLIC "-//W3C//DTD SVG 1.1//EN" "http://www.w3.org/Graphics/SVG/1.1/DTD/svg11.dtd">
<svg version="1.1" id="Layer_1" xmlns="http://www.w3.org/2000/svg" xmlns:xlink="http://www.w3.org/1999/xlink" x="0px" y="0px"
	 viewBox="0 0 48 48" enable-background="new 0 0 48 48" xml:space="preserve">
<g>
	<g>
		<g>
			<path fill="#415A6B" d="M34.5,8.3H2.3C1,8.3,0,9.3,0,10.5v22.4c0,1.3,1,2.3,2.3,2.3h32.2c1.3,0,2.3-1,2.3-2.3V10.5
				C36.7,9.3,35.7,8.3,34.5,8.3z"/>
		</g>
		<g>
			<g>
				<rect x="36.7" y="15.8" fill="#415A6B" width="4" height="11.8"/>
			</g>
			<g>
				<g>
					<polygon fill="#415A6B" points="40.8,15.8 48,10.7 48,32.8 40.8,27.7 					"/>
				</g>
			</g>
		</g>
		<g>
			<path fill="#415A6B" d="M24,12.4c-0.7,0-1.4-0.4-1.8-1L18.2,4H6.3c-1.1,0-2-0.9-2-2c0-1.1,0.9-2,2-2h13c0.7,0,1.4,0.4,1.8,1
				l4.6,8.4c0.5,1,0.2,2.2-0.8,2.7C24.7,12.4,24.3,12.4,24,12.4z"/>
		</g>
		<rect x="3.7" y="12.2" fill="#ADB3BA" width="18.2" height="8.8"/>
		<circle fill="#F3705A" cx="31.2" cy="30.4" r="1.5"/>
		<g>
			<g>
				<g>
					<rect x="15.4" y="39" fill="#415A6B" width="4.8" height="9"/>
				</g>
			</g>
			<g>
				<g>
					<g>
						<polygon fill="#415A6B" points="12.2,39 7.5,48 12.3,48 16.9,39 						"/>
					</g>
				</g>
				<g>
					<g>
						<polygon fill="#415A6B" points="18.7,39 23.3,48 28.1,48 23.5,39 						"/>
					</g>
				</g>
			</g>
		</g>
		<g>
			<g>
				<rect x="10.4" y="35.2" fill="#344A5E" width="14.8" height="4.1"/>
			</g>
		</g>
	</g>
</g>
</svg>
