<?xml version="1.0" encoding="utf-8"?>
<!-- Generator: Adobe Illustrator 18.0.0, SVG Export Plug-In . SVG Version: 6.00 Build 0)  -->
<!DOCTYPE svg PUBLIC "-//W3C//DTD SVG 1.1//EN" "http://www.w3.org/Graphics/SVG/1.1/DTD/svg11.dtd">
<svg version="1.1" id="Layer_1" xmlns="http://www.w3.org/2000/svg" xmlns:xlink="http://www.w3.org/1999/xlink" x="0px" y="0px"
	 viewBox="0 0 48 48" enable-background="new 0 0 48 48" xml:space="preserve">
<g>
	<g>
		<g>
			<g>
				<g>
					<path fill="#425A6B" d="M29.8,24.4c-0.1,0-0.1,0-0.2,0c-0.2-0.1-0.4-0.3-0.5-0.6c-0.1-0.5,0-0.9,0.2-1.1c0.1,0,0.2,0,0.3,0
						c0.2,0.1,0.4,0.3,0.5,0.6v0c0.1,0.5,0,0.9-0.2,1.1C29.9,24.4,29.9,24.4,29.8,24.4z M29.6,22.8C29.6,22.8,29.5,22.8,29.6,22.8
						c-0.2,0.1-0.3,0.4-0.2,0.8c0.1,0.2,0.2,0.4,0.3,0.5c0,0,0.1,0,0.1,0c0.1-0.1,0.2-0.4,0.1-0.8C29.9,23.1,29.8,22.9,29.6,22.8
						C29.6,22.8,29.6,22.8,29.6,22.8z"/>
				</g>
			</g>
		</g>
	</g>
	<g>
		<g>
			<path fill="#48B9A5" d="M29.6,24c0,0,0.1,1.4,0,1.8c-0.1,0.4,1.5,0.9,1.5,0.9s-1-2.7-1-2.8C29.9,24.1,29.7,24.2,29.6,24z"/>
		</g>
	</g>
	<g>
		<g>
			<g>
				<path fill="#67C5B8" d="M25.1,28.3c0,0,0.8-0.7,1.5-1c0.8-0.3,1.6-1.6,1.7-2c0.1-0.4,0.3-0.9,1.1-0.8c0.8,0.1,2.2,1.7,2.7,2.1
					c0.5,0.4,1.2,2.1,1.2,2.1s0.3,1-0.2,1.9c-0.5,0.9-2.2,2.6-3.6,2.8c-1.4,0.2-2.8,0.1-3.7-0.8C24.9,31.8,23.9,29.5,25.1,28.3z"/>
			</g>
		</g>
	</g>
	<g>
		<g>
			<g>
				<path fill="#425A6B" d="M32,28.8c-0.8,1.1-1.9,2-2.9,2.7c-0.2,0.1-0.5,0.1-0.6-0.1c-0.4-0.6-1-1.4-1.3-1.9
					c-0.7-1-1.9-1.4-1.9-1.4c1.4-0.8,2.5-1.6,3-2.7c0.9,0.1,2.7,1.9,3.7,2.9C32.1,28.4,32.1,28.6,32,28.8z"/>
			</g>
		</g>
	</g>
	<g>
		<g>
			<g>
				<path fill="#FFFFFF" d="M31.3,30.3c-0.1,0.2-0.3,0.3-0.4,0.4c-0.1,0.1-0.2,0-0.3,0c-0.1-0.1-0.2-0.2-0.2-0.3
					c0-0.1-0.1-0.1-0.1-0.1c-0.1-0.1-0.1-0.2,0-0.3c0.1-0.1,0.2-0.2,0.3-0.3c0.1-0.1,0.2-0.1,0.2,0c0.2,0.1,0.4,0.3,0.5,0.4
					C31.4,30.1,31.4,30.2,31.3,30.3z"/>
			</g>
		</g>
	</g>
	<g>
		<g>
			<g>
				<g>
					<path fill="#425A6B" d="M26.6,26.3c0-0.3-0.2-0.6-0.4-0.7c-0.1-0.1-0.2-0.1-0.3,0c-0.3,0.1-0.4,0.5-0.4,1
						c0,0.3,0.2,0.6,0.4,0.7c0,0,0.1,0.1,0.2,0.1c0,0,0.1,0,0.1,0c0.2-0.1,0.4-0.4,0.4-0.8C26.6,26.4,26.6,26.4,26.6,26.3z
						 M26.1,27.1c0,0-0.1,0-0.1,0c-0.1-0.1-0.2-0.3-0.3-0.5c-0.1-0.4,0.1-0.7,0.2-0.8c0,0,0,0,0.1,0c0,0,0,0,0.1,0
						c0.1,0.1,0.2,0.3,0.3,0.5C26.4,26.7,26.3,27.1,26.1,27.1z"/>
				</g>
			</g>
		</g>
	</g>
	<g>
		<g>
			<g>
				<path fill="#48B9A5" d="M29.4,23.3c0-0.1-0.1-0.3-0.1-0.5c-0.3-1.2-1-4-1.1-4.7c-0.1-1-0.9-2.7-0.9-2.7l0.4-0.8l0.6,3.1l1.4,4.9
					l0.1,0.4C29.5,22.7,29.4,22.9,29.4,23.3z"/>
			</g>
		</g>
	</g>
	<g>
		<g>
			<g>
				<path fill="#CED6E0" d="M18.9,42.7c0,0,1.3,0.2,2.1-0.4C21,42.3,19.2,41.7,18.9,42.7z"/>
			</g>
		</g>
	</g>
	<g>
		<g>
			<g>
				<g>
					<g>
						<path fill="#425A6B" d="M19.8,47.8l-0.1,0.1c0,0-0.2-0.2-0.3-0.6c-0.1-0.4,0.7-0.5,0.7-0.5L19.8,47.8z"/>
					</g>
				</g>
			</g>
			<g>
				<g>
					<g>
						<g>
							<path fill="#425A6B" d="M19.5,47.6l1.3-1.3l1,0.1c0,0,0.5,0.5,0.3,1c0,0-0.1,0.2-0.8,0.3c-0.7,0.1-1.3,0.3-1.3,0.3
								S19.6,48.1,19.5,47.6z"/>
						</g>
					</g>
				</g>
				<g>
					<g>
						<g>
							<path fill="#344A5E" d="M22,47.5c-0.1,0.1-0.3,0.1-0.7,0.2c-0.7,0.1-1.3,0.3-1.3,0.3s-0.1,0-0.1,0c0.1-0.2,0.2-0.4,0.5-0.5
								C20.9,47.3,21.6,47.4,22,47.5z"/>
						</g>
					</g>
				</g>
			</g>
			<g>
				<g>
					<g>
						<path fill="#344A5E" d="M22.1,47.4c0,0,0,0-0.1,0.1h0l-0.5,0.1l-0.2-0.2c0,0,0.1,0,0.5-0.1c0.3-0.1,0.1-0.6,0.1-0.6h0
							C22.1,46.9,22.2,47.1,22.1,47.4z"/>
					</g>
				</g>
			</g>
		</g>
		<g>
			<g>
				<g>
					<path fill="#344A5E" d="M20.9,46.5C20.9,46.6,20.9,46.6,20.9,46.5c0.2,0,0.4,0,0.6,0c0.1,0,0.1,0,0.2,0c0.1,0,0.2-0.1,0.2-0.1
						c0.1-0.1,0.3-0.2,0.4-0.3c0.1-0.1,0.1-0.2,0.2-0.3c0-0.1,0.1-0.1,0.1-0.2c0-0.1,0-0.2,0-0.3c0-0.1,0-0.1,0-0.2
						c0-0.1,0-0.1-0.1-0.2c0-0.1-0.1-0.3-0.1-0.4c0,0,0,0,0,0c0,0-0.1,0-0.1,0c-0.3,0.1-0.5,0.3-0.8,0.4c-0.2,0.1-0.4,0.2-0.5,0.4
						c0,0.1-0.1,0.1-0.1,0.2c0,0.1-0.1,0.2-0.1,0.3c0,0.1,0,0.2,0,0.2"/>
				</g>
			</g>
		</g>
		<g>
			<g>
				<g>
					<path fill="#FFD15C" d="M22.7,40.2c0-0.1,0.1-0.3,0.1-0.5h-1.5c-0.1,0.5-0.2,0.9-0.3,1.1c-0.3,0.6-0.5,2.7-0.5,2.7l0,3l1-0.5
						c0,0,0.3,0.1,0.4-0.1c0,0,0.2,0.1,0.3-0.2c0,0,0.2-0.3,0.1-0.8c0,0,0.1-0.4,0.1-0.8c0-0.5-0.1-1,0-1.3c0.1-0.3,0.3-0.4,0.1-0.9
						C22.5,41.4,22.6,40.6,22.7,40.2z"/>
				</g>
			</g>
		</g>
		<g>
			<g>
				<g>
					<g>
						<path fill="#344A5E" d="M22.4,45.4l0.2-0.1c0,0-0.5-0.6-1.8-0.4l0,0.2C21.9,44.8,22.3,45.4,22.4,45.4z"/>
					</g>
				</g>
			</g>
		</g>
		<g>
			<g>
				<path fill="#F5B54C" d="M21.9,46C21.9,46,21.9,46,21.9,46c-0.1-0.2-0.3-0.9-0.4-1.2c0-0.3-0.2-1.2-0.4-1.9
					c0-0.1-0.1-0.2-0.1-0.3c-0.1-0.2-0.1-0.7-0.1-1.3c-0.2,0.8-0.4,2.3-0.4,2.3l0,3l1-0.5C21.6,46.1,21.8,46.2,21.9,46z"/>
			</g>
		</g>
		<g>
			<g>
				<g>
					<path fill="#FFD15C" d="M21.3,44.7c0-0.4-0.3-1.7-0.5-2.2c-0.1-0.4-0.2-1.6-0.1-2.8h-2c0.3,1.5,0.4,3,0.4,3s-0.2,0.3,0,1
						c0.3,0.7,0.2,0.8,0.1,1.4c0,0.6,0,1.6,0,1.6c0,0.8,0.3,1,0.3,1c0.4,0.2,0.4-0.2,0.4-0.2c0.3,0.1,0.4-0.2,0.4-0.2
						c0.3,0.2,0.5-0.1,0.5-0.1c0.7,0.2,1-0.3,1-0.3c0.1-0.3,0-0.6-0.1-0.9S21.3,44.7,21.3,44.7z"/>
				</g>
			</g>
		</g>
		<g>
			<g>
				<g>
					<g>
						<g>
							<path fill="#425A6B" d="M21.9,46.7c-0.5-0.3-1.8,0-2.2,0.2c-0.3,0.2-0.4,0.5-0.4,0.6c-0.1-0.1-0.1-0.2-0.1-0.3
								c0.1-0.1,0.2-0.3,0.4-0.4c0.3-0.2,1.6-0.5,2.2-0.2C21.9,46.6,21.9,46.6,21.9,46.7z"/>
						</g>
					</g>
				</g>
				<g>
					<g>
						<path fill="#344A5E" d="M21.9,46.5"/>
					</g>
				</g>
			</g>
		</g>
		<g>
			<g>
				<g>
					<g>
						<path fill="#344A5E" d="M22.4,43.2c-0.8-0.2-1.4-1-1.7-1.3c0-0.1,0-0.1,0-0.2c0.1,0.2,0.8,1.2,1.7,1.4
							C22.5,43,22.5,43.2,22.4,43.2z"/>
					</g>
				</g>
			</g>
		</g>
		<g>
			<g>
				<g>
					<g>
						<g>
							<g>
								<path fill="#425A6B" d="M21.2,44c-0.2,0.1-0.5,0.1-0.8,0.1c-0.1,0-0.2,0-0.3,0c0,0-0.5,0-0.7,0c0,0-0.1-0.2,0-0.2
									c0.1,0,1.4,0.1,1.9-0.1C21.2,43.8,21.3,44,21.2,44z"/>
							</g>
						</g>
					</g>
					<g>
						<g>
							<path fill="#425A6B" d="M19.3,44.1"/>
						</g>
					</g>
				</g>
				<g>
					<g>
						<path fill="#425A6B" d="M19.3,44.1"/>
					</g>
				</g>
			</g>
		</g>
	</g>
	<g>
		<g>
			<g>
				<path fill="#E8EAE8" d="M22.5,26.6l-0.8,1c0,0-0.5,3.8-0.3,4.7c0.2,0.9-0.1,5-0.4,6.1c-0.3,1.1-0.4,2.6-0.4,2.6s0.4,0.1,0.6,0.3
					c0.2,0.2,1.4,0.1,1.6-0.2l0.6-3.8v-5.7l0.3-4.1L22.5,26.6z"/>
			</g>
		</g>
	</g>
	<g>
		<g>
			<g>
				<path fill="#48B9A5" d="M25.8,26c-0.1-0.5,0.1-2,0.1-2.3c0-0.5-0.2-5-0.2-5s-0.5-3.7,0.6-4.6c0,0-0.3,1-0.3,1.9
					c-0.1,0.9,0.2,4.2,0.2,4.2l0.1,3.3c0,0,0.1,1.8,0,2.5C26.1,25.8,25.9,25.8,25.8,26z"/>
			</g>
		</g>
	</g>
	<g>
		<g>
			<g>
				<g>
					<g>
						<path fill="#CED6E0" d="M21.2,39.1c0-0.8,0.2-4.1,0.3-4.7c0,0,0-0.1,0-0.1c0.1-0.7,0.3-3,0.1-4.1c0-0.3-0.1-0.7-0.1-1.1
							c-0.1,1.2-0.3,2.7-0.1,3.2c0.2,0.9-0.1,5-0.4,6.1c-0.3,1.1-0.4,2.6-0.4,2.6s0.4,0.1,0.6,0.3c0,0,0,0,0,0
							C21.2,40.7,21.2,39.6,21.2,39.1z"/>
					</g>
				</g>
			</g>
			<g>
				<g>
					<g>
						<path fill="#E8EAE8" d="M24.3,30.1c-0.1,0.3-0.3,1.7-0.3,3.1c0.1,1.4-0.8,4.3-0.8,4.3l-1.6,2.1l0.3-6.5c0,0-0.5-4.4-0.4-5.5
							c0.1-0.6-0.1-1.5-0.2-2.2c-0.1-0.5-0.2-0.8-0.2-0.8c-0.2,1.2,0,4.6,0.1,5.7c0.1,1.2-0.1,3.7-0.1,4.2c0,0.6-0.3,3.9-0.3,4.7
							c0,0.8-0.1,3.2-0.1,3.2s-0.4,0.1-0.9,0c-0.5-0.1-1.2,0.4-1.2,0.4c-0.1-0.4-0.2-1.4-0.4-3.9c-0.2-2.5-0.1-6.3,0-7.3
							c0-1-0.4-3.5-1-5.5c-0.6-2-0.4-4.2-0.4-4.2l0.1-0.4c1.6-4.1,6-1.4,6-1.4l3.1,2.7C26,24.6,24.4,29.8,24.3,30.1z"/>
					</g>
				</g>
			</g>
		</g>
	</g>
	<g>
		<g>
			<g>
				<path fill="#425A6B" d="M21.4,3.1c-1.3,0-2.4,0.8-3,1.9v3.7c0.6,1.1,1.7,1.9,3,1.9c0.9,0,1.8-0.4,2.4-1.1V4.1
					C23.2,3.5,22.3,3.1,21.4,3.1z"/>
			</g>
		</g>
	</g>
	<g>
		<g>
			<g>
				<path fill="#FFD15C" d="M20.3,7.9l-0.7-0.1c0,0-1.3,0.4-1.7,0.5c-0.4,0.1-0.9,0.5-1,2.4s0.1,4.1-0.2,5.3c0,0-0.2,1.3,0.1,2.2
					c0,0-0.2,0.4-0.1,0.8c0.1,0.5,0.3,1,0.2,1.5l0.5,1l0.5-0.1l0.4-0.2l0.1,0l0.6-0.2c0,0,0.1-0.1,0.1-0.3l0.4-0.1
					c0,0,0.1-0.4-0.8-0.3c0,0-0.2-0.2-0.3-0.2L18.3,20h0.4l0.6,0.3c0,0,0.6,0.4,0.7,0l-0.4-0.3c0,0-0.6-0.4-0.8-0.6
					c-0.2-0.2-1-0.7-1.1-1.1c-0.2-0.3-0.2-1.3-0.1-1.6c0.1-0.3,1-1.9,1-1.9l0-3.1L20.3,7.9"/>
			</g>
		</g>
	</g>
	<g>
		<g>
			<g>
				<g>
					<path fill="#FFD15C" d="M23.5,3.6c0,0.4-0.2,0.7-0.4,0.7c-0.2,0-0.4-0.3-0.4-0.7c0-0.4,0.2-0.7,0.4-0.7
						C23.4,2.9,23.5,3.2,23.5,3.6z"/>
				</g>
			</g>
		</g>
		<g>
			<g>
				<g>
					<path fill="#FFD15C" d="M20,3.7c0,0.4-0.2,0.8-0.4,0.8c-0.2,0-0.4-0.3-0.4-0.8c0-0.4,0.2-0.8,0.4-0.8C19.8,2.9,20,3.3,20,3.7z"
						/>
				</g>
			</g>
		</g>
	</g>
	<g>
		<g>
			<g>
				<path fill="#FFD15C" d="M23,1.6c0,0,0.5,2.2,0,3.7c0,0,0,1.3,0.5,1.7c0.5,0.3,2.4,0.4,2.9,0.8c0.5,0.3,1.1,2,1,3
					c-0.1,1-0.5,5-0.5,5s-0.2,1.4-0.7,1.2s-0.8-1.1-0.7-1.8c0.1-0.7,0.1-3.3,0.1-3.6l-6.7,0.3l-0.3,0.1c0,0-0.5-0.8-0.2-1.6
					c0.2-0.8,1.3-2.4,1.3-2.4s1.1-0.7,0.8-2.1c0,0-1.2-1.1-0.9-3.4C19.8,0,22.7,0.5,23,1.6z"/>
			</g>
		</g>
	</g>
	<g>
		<g>
			<g>
				<path fill="#425A6B" d="M24.2,4.7c0.2,1.2,0.9,2.3,2,2.9c0.4,0.2,0.8,0.4,1.1,0.7c0.4,0.4,0.7,0.9,0.7,1.5
					c-0.3-0.4-0.7-0.8-1.2-1.1c-0.2-0.1-0.5-0.2-0.7-0.3c-0.3-0.2-0.7-0.4-1-0.7c-0.1-0.1-0.3-0.3-0.4-0.4c-0.1-0.2-0.2-0.4-0.2-0.6
					c-0.1-0.4-0.2-0.7-0.3-1.1"/>
			</g>
		</g>
	</g>
	<g>
		<g>
			<g>
				<path fill="#F26F5A" d="M20.1,7.2c0,0,1.6,1.6,3.5-0.2l0.6,0.2c0.1,0,1.3,3.7,1.3,4.3c0.1,0.7-0.1,4.2-0.2,4.8
					c-0.1,0.6,0.3,2.2,0.6,2.9c0.4,0.6,0.2,3.5,0.2,3.5s-2.8,0.1-3.7-0.6c-0.9-0.7-2.4-1.8-3.2-2.1c-0.8-0.3-2.2,1.7-2.2,1.7
					s-0.3-3.2,0.2-4.2c0.5-1,0.4-1.7,0.6-2c0.1-0.3,0-1.5,0.4-2.5c0.4-1-0.1-2.2,0.1-2.7C18.5,9.8,19.2,7.8,20.1,7.2z"/>
			</g>
		</g>
	</g>
	<g>
		<g>
			<g>
				<path fill="#425A6B" d="M24.3,5.2c0.1,0.4,0.1,0.9,0.3,1.3c0.1,0.4,0.3,0.9,0.7,1.2C25.7,8,26.4,8,26.9,8.3
					c0.4,0.2,0.7,0.6,0.9,1.1c0.2,0.4,0.2,0.9,0.2,1.4c-0.1-0.6-0.6-1.2-1.2-1.4c0.4,0.2,0.5,0.6,0.5,1c0,0.4,0.1,0.8,0.3,1.1
					c-0.2-0.1-0.5-0.2-0.6-0.4c-0.1-0.1-0.2-0.3-0.3-0.4c-0.2-0.2-0.4-0.5-0.6-0.7c-0.6-0.5-1.2-0.9-1.8-1.5c-0.6-0.6-1-1.4-1.1-2.3
					s0-1.7,0.4-2.5c0,0.5,0,1,0.1,1.5"/>
			</g>
		</g>
		<g>
			<g>
				<g>
					<path fill="#425A6B" d="M25.2,7.9c-0.5-0.6-0.7-1.5-0.8-2.3c0.1,0.2,0.2,0.4,0.3,0.5c-0.3-0.7-0.4-1.6-0.3-2.3l0.1,0.6
						c0,0,0.2-0.7,0-1.3c-0.2-0.9-0.9-3-2.5-3.2c-2-0.2-3.2,1.3-3.5,2.5c-0.3,1.2-0.6,1.6-1,1.8C17,4.4,17,4.6,17.1,5.1
						c0,0.5-0.2,1.1-0.2,1.1s0.4-0.6,0.5-1.1c0.1-0.5,0.5-0.5,0.5-0.5S17.4,5,17.3,5.7c0,0,0.2-0.5,0.4-0.8c0.1,1-0.2,1.7-1.6,2
						c-0.4,0.1-0.4,0.6-0.8,0.9c-0.3,0.2-0.5,0.4-0.8,0.3c0,0,0.4,0.5,0.9,0.1c0.6-0.4,0.7-0.7,1.3-0.8c0.6-0.1,0.9-0.2,0.9-0.2
						s-0.4,0.3-0.5,1c0,0-0.8,1-0.5,1.7c0.3,0.7-0.1,1-0.2,1.1c-0.1,0.1-0.6,0.9,0.6,1.5c0,0-0.7-0.6-0.5-0.9c0.2-0.3,1,0.2,1.1-0.9
						c0.1-1.1-0.1-1.6,0.6-2.1c0.7-0.5,1.6-2.1,1.3-2.9c-0.3-0.7-1-4.4,1.8-4.6c0.3,0,0.7,0.1,0.9,0.4c0,0,0,0,0,0
						c0.3,0.3,0.4,0.7,0.6,1.1c0.1,0.2,0.1,0.5,0.2,0.7c0.3,1.1,0,2.4,0.3,3.5C23.7,7.6,24.2,8.1,25.2,7.9z"/>
				</g>
			</g>
		</g>
	</g>
	<g>
		<g>
			<g>
				<path fill="#FFD15C" d="M18.8,19.4c-0.2-0.2-1-0.7-1.1-1.1c-0.2-0.3-0.2-1.3-0.1-1.6h-0.9c0,0.5,0,1.1,0.1,1.6
					c0,0-0.2,0.4-0.1,0.8c0.1,0.5,0.3,1,0.2,1.5l0.5,1l0.5-0.1l0.4-0.2l0.1,0l0.6-0.2c0,0,0.1-0.1,0.1-0.3l0.4-0.1
					c0,0,0.1-0.4-0.8-0.3c0,0-0.2-0.2-0.3-0.2L18.3,20h0.4l0.6,0.3c0,0,0.6,0.4,0.7,0l-0.4-0.3C19.5,19.9,18.9,19.5,18.8,19.4z"/>
			</g>
		</g>
	</g>
	<g>
		<g>
			<g>
				<path fill="#FFD15C" d="M25.7,16.3c0,0-0.1-1.4,0.3-2c0.5-0.6,0.9-1.1,1-1.3c0.1-0.2,0.7-1.5,0.6-1.8c-0.1-0.3-0.4-0.9-0.4-1.4
					l-0.3-0.5l-0.2-0.1c0,0-0.4,0.2-0.4-0.2l0.4-0.2l0.7,0.3c0,0-0.5-0.4-0.5-0.6c0,0-0.3,0.1-0.5,0c0,0-0.2,0.2-0.4,0.1l0.3-0.5
					l0.3-0.2c0,0-0.1-0.2,0.1-0.3c0.2,0,0.6-0.1,0.6-0.1l1,0.9c0,0,0.2,1.4,0.3,1.8c0.1,0.4,0.2,0.9,0.1,1.3
					c-0.1,0.4-0.5,2.4-0.5,2.4s-0.3,1.1-0.8,1.6c-0.2,0.2-0.3,0.4-0.4,0.6c0,0.1-0.1,0.1-0.1,0.2C27,16.7,26.1,17.4,25.7,16.3z"/>
			</g>
		</g>
	</g>
	<g>
		<g>
			<g>
				<path fill="#F5B54C" d="M25.7,16.3c0,0,0-0.1,0-0.2c0-0.1,0-0.2,0-0.4c0-0.2,0-0.4,0.1-0.6c0-0.1,0-0.2,0.1-0.3
					c0-0.1,0.1-0.2,0.1-0.3l0,0l0,0c0,0,0,0,0.1-0.1c0,0,0.1-0.1,0.1-0.1c0.1-0.1,0.1-0.2,0.2-0.3c0.1-0.2,0.3-0.3,0.4-0.5
					c0.1-0.1,0.2-0.2,0.3-0.3c0,0,0.1-0.1,0.1-0.1c0,0,0,0,0,0s0,0,0,0c0,0,0,0.1-0.1,0.1c-0.1,0.1-0.1,0.2-0.2,0.3
					c0,0.1-0.1,0.1-0.2,0.2c-0.1,0.1-0.1,0.2-0.2,0.2c-0.1,0.1-0.1,0.2-0.2,0.3c0,0-0.1,0.1-0.1,0.1c0,0,0,0,0,0.1l0,0l0,0
					c-0.1,0.1-0.1,0.2-0.1,0.3c0,0.1-0.1,0.2-0.1,0.3c0,0.2-0.1,0.4-0.1,0.6c0,0.2,0,0.3,0,0.4C25.7,16.3,25.7,16.3,25.7,16.3z"/>
			</g>
		</g>
	</g>
	<g>
		<g>
			<g>
				<path fill="#425A6B" d="M24.3,3.5c0,0,0,0.1,0,0.1c0,0.1,0,0.2,0,0.4c0,0.3,0.1,0.7,0.2,1.1c0,0.1,0.1,0.2,0.1,0.3
					c0,0.1,0.1,0.2,0.1,0.3c0,0.1,0.1,0.2,0.1,0.2C25,6,25,6.1,25.1,6.1c0,0,0,0.1,0.1,0.1c0,0,0,0.1,0.1,0.1c0,0,0,0,0.1,0.1
					c0,0,0,0,0.1,0.1c0,0,0.1,0.1,0.1,0.1c0,0,0,0,0,0s0,0,0,0c0,0,0,0-0.1-0.1c0,0,0,0-0.1-0.1c0,0,0,0-0.1-0.1c0,0,0,0-0.1-0.1
					c0,0,0-0.1-0.1-0.1C25,6.1,24.9,6,24.9,6c-0.1-0.1-0.1-0.2-0.2-0.2c0-0.1-0.1-0.2-0.1-0.3c0-0.1-0.1-0.2-0.1-0.3
					c-0.1-0.4-0.2-0.8-0.3-1.1c0-0.2,0-0.3-0.1-0.4c0-0.1,0-0.1,0-0.1L24.3,3.5z"/>
			</g>
		</g>
	</g>
	<g>
		<g>
			<g>
				<path fill="#CED6E0" d="M21.5,25.3c-0.1-0.5-0.2-0.8-0.2-0.8s-0.4-1.6-2.9-1.8c0,0,1.2,0,2.1,0.5c0.5,0.3,0.8,0.7,0.8,1.3
					C21.4,24.7,21.5,25,21.5,25.3z"/>
			</g>
		</g>
	</g>
	<g>
		<g>
			<g>
				<path fill="#425A6B" d="M18.7,2.9C18.7,2.9,18.7,2.9,18.7,2.9C18.7,2.9,18.7,2.9,18.7,2.9c0,0.1,0,0.1,0,0.1c0,0,0,0.1-0.1,0.2
					c0,0.1-0.1,0.1-0.1,0.2c0,0.1-0.1,0.1-0.2,0.2c-0.1,0.1-0.1,0.1-0.2,0.2c-0.1,0.1-0.2,0.1-0.3,0.1c-0.1,0-0.2,0.1-0.3,0.1
					c-0.1,0-0.2,0.1-0.3,0.1c-0.1,0-0.2,0.1-0.2,0.2c-0.1,0.1-0.1,0.2-0.1,0.2c0,0.1-0.1,0.2-0.1,0.2c0,0.1-0.1,0.3-0.1,0.4
					c0,0,0,0.1,0,0.1c0,0,0,0,0,0s0,0,0,0c0,0,0-0.1,0-0.1c0-0.1,0-0.2,0.1-0.4c0-0.1,0-0.2,0.1-0.2c0-0.1,0.1-0.2,0.1-0.3
					C17,4.1,17.1,4.1,17.2,4c0.1-0.1,0.2-0.1,0.3-0.1c0.1,0,0.2-0.1,0.3-0.1c0.1,0,0.2-0.1,0.2-0.1c0.1-0.1,0.1-0.1,0.2-0.2
					c0.1-0.1,0.1-0.1,0.1-0.2c0-0.1,0.1-0.1,0.1-0.2c0-0.1,0-0.1,0.1-0.1c0,0,0,0,0-0.1c0,0,0,0,0,0c0,0,0,0,0,0L18.7,2.9z"/>
			</g>
		</g>
	</g>
	<g>
		<g>
			<g>
				<path fill="#425A6B" d="M17.9,4.8C17.9,4.8,17.9,4.8,17.9,4.8c0,0.1,0,0.1,0,0.2c0,0.1,0,0.3,0,0.5c0,0.1,0,0.2-0.1,0.3
					c0,0.1-0.1,0.2-0.1,0.3c0,0,0,0.1-0.1,0.1c0,0,0,0,0,0l0,0c0,0-0.1,0.1-0.1,0.1c-0.1,0.1-0.2,0.1-0.3,0.1
					c-0.2,0.1-0.5,0.1-0.7,0.1c-0.1,0-0.2,0-0.3,0.1c-0.1,0-0.2,0.1-0.2,0.2c-0.1,0.1-0.1,0.1-0.2,0.2c0,0.1-0.1,0.1-0.1,0.2
					c0,0.1,0,0.1,0,0.1c0,0,0,0,0,0s0,0,0,0c0,0,0-0.1,0-0.1c0-0.1,0-0.1,0.1-0.2c0-0.1,0.1-0.1,0.2-0.2c0.1-0.1,0.2-0.1,0.2-0.2
					c0.1,0,0.2-0.1,0.3-0.1c0.2-0.1,0.5-0.1,0.7-0.1c0.1,0,0.2-0.1,0.3-0.1c0,0,0.1-0.1,0.1-0.1l0,0c0,0,0,0,0,0c0,0,0,0,0-0.1
					c0.1-0.1,0.1-0.2,0.1-0.3c0-0.1,0-0.2,0.1-0.3c0-0.2,0-0.3,0-0.4c0-0.1,0-0.1,0-0.1c0,0,0,0,0,0L17.9,4.8z"/>
			</g>
		</g>
	</g>
	<g>
		<g>
			<g>
				<path fill="#48B9A5" d="M26,17.4c0-0.6,0-1.1,0-1.4c0.1-0.9,0.3-1.9,0.3-1.9c-0.7,0.5-0.8,2.2-0.7,3.3H26z"/>
			</g>
		</g>
	</g>
	<g>
		<g>
			<g>
				<path fill="#48B9A5" d="M26.3,27.3l0-0.3c-0.1,0.2-0.3,0.2-0.4,0l0,0.4c-0.1,0.5-0.3,0.9-0.5,1.3c-0.1,0.3-0.2,2.8,1.9,4.7
					c0.7,0.2,1.5,0.1,2.3,0c0,0,0,0,0.1,0c-2.9-1.3-3.1-4-3.1-4.3C26.5,28.5,26.4,27.9,26.3,27.3L26.3,27.3z"/>
			</g>
		</g>
	</g>
</g>
</svg>
