<?xml version="1.0" encoding="utf-8"?>
<!-- Generator: Adobe Illustrator 19.0.1, SVG Export Plug-In . SVG Version: 6.00 Build 0)  -->
<svg version="1.1" id="Layer_1" xmlns="http://www.w3.org/2000/svg" xmlns:xlink="http://www.w3.org/1999/xlink" x="0px" y="0px"
	 viewBox="0 0 48 48" style="enable-background:new 0 0 48 48;" xml:space="preserve">
<style type="text/css">
	.st0{fill:#F3F3F3;}
	.st1{fill:#F3705A;}
	.st2{fill:#CED6E0;}
	.st3{fill:#55C0EB;}
	.st4{fill:#F7B64C;}
	.st5{fill:#E8EAE9;}
	.st6{fill:#FFD15C;}
	.st7{fill:#344A5E;}
	.st8{fill:#415A6B;}
</style>
<g>
	<g>
		<g>
			<path class="st0" d="M39,2.9V44c0,1.6-1.3,2.9-2.9,2.9H2.9C1.3,47,0,45.6,0,44V2.9C0,1.3,1.3,0,2.9,0h33.2C37.7,0,39,1.3,39,2.9z
				"/>
			<g>
				<g>
					<rect x="20" y="11.1" class="st1" width="15.1" height="3.2"/>
				</g>
			</g>
			<g>
				<rect x="20" y="18.3" class="st2" width="15.1" height="3.2"/>
			</g>
			<g>
				<rect x="3.9" y="25.5" class="st2" width="31.2" height="3.2"/>
			</g>
			<g>
				<rect x="3.9" y="32.7" class="st2" width="31.2" height="3.2"/>
			</g>
			<rect x="3.9" y="39.9" class="st2" width="31.2" height="3.2"/>
			<rect x="3.9" y="3.9" class="st3" width="13" height="17.5"/>
			<g>
				<g>
					<g>
						<path class="st4" d="M12.7,17.3c0,0-0.1-0.8-0.2-1.2c-0.1-0.4,0-1.7,0-1.7l-3.9,0.3L8.4,16l-0.1,0.9c0,0,1.4,1.4,1.9,1.4
							c0.4,0,0.5,0,0.5,0l1-0.4L12.7,17.3z"/>
					</g>
				</g>
				<g>
					<g>
						<path class="st5" d="M12.8,21.5c0.4-1.8,0.6-3.1,0.6-3.1h-2.8c-1,0-3.5,0.4-3.5,0.4l0.6,2.7H12.8z"/>
					</g>
				</g>
				<g>
					<g>
						<g>
							<path class="st1" d="M10.1,19.5c0.3-0.1,0.6-0.1,0.8,0c0.4-0.2,0.8-0.7,1.2-1.2c-1.1,0.1-2.1,0.1-3.1,0
								C9.3,18.7,9.6,19.1,10.1,19.5z"/>
						</g>
					</g>
				</g>
				<g>
					<g>
						<g>
							<g>
								<path class="st6" d="M12.7,11.2C12.8,11.2,12.8,11.2,12.7,11.2c0.2-0.6,0.2-1.2-0.2-1.6c-0.3-0.3-0.9-0.5-1.3-0.5
									c-0.2,0-0.3,0-0.4,0c0,0,0,0-0.1,0C10.6,9,10.4,9,10.3,9C9.6,9.2,8.8,9.2,8.2,9.5C8,9.6,7.8,9.8,7.7,10.1
									c-0.1,0.2-0.1,0.5-0.1,0.7c0,0.4,0,0.9,0,1.3c0,0.1,0.1,0.2,0.1,0.3c0,0.2-0.1,0.5-0.1,0.7c0,2.2,1.1,4,2.6,4
									s2.7-1.7,2.8-3.9C13.1,12.5,13,11.8,12.7,11.2z"/>
							</g>
						</g>
						<g>
							<g>
								<g>
									
										<ellipse transform="matrix(0.1536 -0.9881 0.9881 0.1536 -1.8599 24.2157)" class="st6" cx="13.2" cy="13.2" rx="1.2" ry="0.5"/>
								</g>
							</g>
							<g>
								<g>
									
										<ellipse transform="matrix(0.1086 0.9941 -0.9941 0.1086 19.7546 4.2127)" class="st6" cx="7.5" cy="13.1" rx="1.2" ry="0.5"/>
								</g>
							</g>
						</g>
						<g>
							<g>
								<path class="st7" d="M7.7,13.5L7.7,13.5c0-0.2,0-0.8,0-1c0-0.3,0.1-0.4,0.3-0.7c0.1-0.2-0.1-0.7-0.1-1.2s0.2-0.7,0.5-0.8
									c0.2-0.1,2.9,0.2,3.6,0c0.6-0.2,0.8,0.6,0.8,0.8s-0.1,0.6,0.2,1.1c0.3,0.4,0.2,1.6,0.2,1.9h0.1c0-0.2,0.1-0.9,0.2-1.3
									c0.1-0.5,0.2-2.7-1.6-3.9C10,7.2,8.3,8.8,8,9.1c-0.4,0.3-0.8,1.2-0.7,2C7.3,11.8,7.6,13.2,7.7,13.5z"/>
							</g>
						</g>
					</g>
				</g>
				<g>
					<g>
						<g>
							<g>
								<path class="st5" d="M12.5,16.1c0,0,0,0.5-0.3,0.9s-1.5,1.3-1.5,1.3s0.7,0.1,0.9,0.3s0.9,0.7,1.1,0.8c0,0,0.1-1,0.2-1.4
									s0.2-0.6,0-1.1S12.6,16.3,12.5,16.1z"/>
							</g>
						</g>
						<g>
							<g>
								<g>
									<path class="st7" d="M12.8,17.5c-0.1,0.5-0.2,2.5-0.3,3.9h2.1c0.5-1.6,0.5-1.8,0.5-1.8l-1-0.6l0.5-0.3c0,0-0.3-1-0.9-1.4
										c-0.6-0.4-0.3-0.2-0.5-0.5s-0.5-0.5-0.7-0.5C12.6,16.2,12.9,16.9,12.8,17.5z"/>
								</g>
							</g>
						</g>
					</g>
					<g>
						<g>
							<g>
								<path class="st5" d="M8.3,16.1c0,0,0,0.5,0.3,0.9s1.5,1.3,1.5,1.3s-0.7,0.1-0.9,0.3c-0.2,0.2-0.9,0.7-1.1,0.8
									c0,0-0.1-1-0.2-1.4S7.8,17.4,8,17C8.2,16.5,8.2,16.3,8.3,16.1z"/>
							</g>
						</g>
						<g>
							<g>
								<g>
									<path class="st7" d="M16.9,18.7v2.7h-3.1c0.5-2.3,0.1-4,0.1-4s1,0.4,1.6,0.6C16,18.2,16.6,18.5,16.9,18.7z"/>
									<path class="st7" d="M7,21.4H3.9v-2.7c0.4-0.2,0.9-0.6,1.3-0.7c0.6-0.2,1.6-0.6,1.6-0.6S6.5,19.2,7,21.4z"/>
								</g>
							</g>
							<g>
								<g>
									<path class="st7" d="M6.2,21.5h2.1c-0.1-1.4-0.2-3.5-0.3-4c-0.1-0.7,0.2-1.3,0.2-1.3c-0.1,0-0.5,0.3-0.7,0.5
										c-0.2,0.3,0,0.1-0.5,0.5c-0.6,0.4-0.9,1.4-0.9,1.4L6.7,19l-1.1,0.6C5.6,19.6,5.6,19.9,6.2,21.5z"/>
								</g>
							</g>
						</g>
					</g>
				</g>
				<g>
					<path class="st1" d="M10.1,19.5c0.3-0.1,0.6-0.1,0.8,0l0.5,2H9.6L10.1,19.5z"/>
				</g>
			</g>
		</g>
		<g>
			<g>
				<g>
					<path class="st8" d="M22.1,22.1c-4.4,4.4-4.4,11.6,0,16s11.6,4.4,16.1,0c4.4-4.4,4.4-11.6,0-16.1S26.5,17.7,22.1,22.1z
						 M36.1,36.1c-3.3,3.3-8.6,3.3-11.9,0s-3.3-8.6,0-11.9s8.6-3.3,11.9,0C39.4,27.5,39.4,32.8,36.1,36.1z"/>
				</g>
			</g>
			<g>
				<g>
					<path class="st7" d="M42.3,35.4c0.5,0.5,0.5,1.4,0,2l-5,5c-0.5,0.5-1.4,0.5-2,0c-0.5-0.5-0.5-1.4,0-2l5-5
						C40.9,34.8,41.8,34.8,42.3,35.4z"/>
				</g>
				<g>
					<path class="st1" d="M47,47L47,47c1.4-1.4,1.4-3.6,0-5l-4.7-4.7l-5,5L42,47C43.4,48.3,45.6,48.3,47,47z"/>
				</g>
			</g>
		</g>
	</g>
</g>
</svg>
