<?xml version="1.0" encoding="utf-8"?>
<!-- Generator: Adobe Illustrator 18.0.0, SVG Export Plug-In . SVG Version: 6.00 Build 0)  -->
<!DOCTYPE svg PUBLIC "-//W3C//DTD SVG 1.1//EN" "http://www.w3.org/Graphics/SVG/1.1/DTD/svg11.dtd">
<svg version="1.1" id="Layer_1" xmlns="http://www.w3.org/2000/svg" xmlns:xlink="http://www.w3.org/1999/xlink" x="0px" y="0px"
	 viewBox="0 0 512 512" enable-background="new 0 0 512 512" xml:space="preserve">
<g>
	<path fill="#40596B" d="M162.2,124.2C146.1,108,123.6,98,98.9,98v82.8c21.9-16.5,48.3-29.5,77.6-38
		C172.5,136,167.8,129.7,162.2,124.2z"/>
	<g>
		<path fill="#F1543F" d="M43.9,247.1H23.2c-11.7,0-21.2,9.5-21.2,21.2v70.5c0,11.6,9.4,21.2,21.2,21.2H44
			c-8-17.7-12.4-36.6-12.4-56.4C31.6,283.7,36,264.8,43.9,247.1z"/>
		<path fill="#F1543F" d="M488.8,276.3h-45.5v54.3h45.5c11.7,0,21.2-9.5,21.2-21.2v-12C510,285.8,500.5,276.3,488.8,276.3z"/>
	</g>
	<g>
		<path fill="#F1543F" d="M126.3,467.7c0,23.4,18.9,42.3,42.3,42.3h1.4c22,0,40.1-16.7,42.1-38.2c-31.5-4.7-60.6-14.4-85.8-28V467.7
			z"/>
		<path fill="#F1543F" d="M296.2,471.8c2,21.5,20.1,38.2,42.1,38.2h1.4c23.4,0,42.3-18.9,42.3-42.3v-23.9
			C356.9,457.4,327.8,467.1,296.2,471.8z"/>
	</g>
	<ellipse fill="#FF7058" cx="254.2" cy="303.5" rx="222.5" ry="171.4"/>
	<circle fill="#40596B" cx="99.9" cy="255.7" r="17.1"/>
	<path fill="#40596B" d="M172.9,205.8l-8-8c23.8-23.8,55.5-37,89.2-37c33.7,0,65.4,13.1,89.2,37l-8,8
		c-21.7-21.7-50.6-33.7-81.3-33.7C223.5,172.1,194.6,184.1,172.9,205.8z"/>
	<path fill="#40596B" d="M172.9,205.8l-8-8c23.8-23.8,55.5-37,89.2-37c33.7,0,65.4,13.1,89.2,37l-8,8
		c-21.7-21.7-50.6-33.7-81.3-33.7C223.5,172.1,194.6,184.1,172.9,205.8z"/>
	<circle fill="#FFD15C" cx="254.2" cy="79.2" r="77.2"/>
	<circle fill="#F8B64C" cx="254.2" cy="79.2" r="58.8"/>
	<g>
		<path fill="#FFD15C" d="M244.5,103c-1.7-2.2-2.8-4.9-3.4-7.9l-15,1.6c1.1,7.5,3.8,13.4,7.9,17.5c4.1,4.1,9.5,6.6,16.1,7.4v7.5h8.3
			v-7.8c7.5-1.1,13.3-4,17.5-8.7c4.2-4.7,6.3-10.6,6.3-17.5c0-6.2-1.7-11.3-5-15.2c-3.3-4-9.6-7.2-18.8-9.7V47.7
			c3.7,1.6,6,4.7,6.9,9.2l14.5-1.9c-1-5.7-3.3-10.3-6.9-13.7c-3.6-3.4-8.4-5.5-14.5-6.2v-5.7h-8.3V35c-6.6,0.7-11.9,3.1-15.8,7.4
			c-4,4.3-5.9,9.5-5.9,15.8c0,6.2,1.8,11.5,5.3,15.8c3.5,4.3,9,7.6,16.5,9.7v24.1C248.1,106.8,246.2,105.2,244.5,103z M258.5,86.2
			c3.4,1,5.9,2.4,7.4,4.3c1.5,1.9,2.3,4.1,2.3,6.6c0,2.9-0.9,5.4-2.7,7.5c-1.8,2.1-4.1,3.5-7,4V86.2z M244.6,63.2
			c-1.2-1.7-1.8-3.6-1.8-5.7c0-2.2,0.7-4.2,2-6.1c1.3-1.8,3.1-3.1,5.4-3.9v19.9C247.7,66.3,245.8,64.9,244.6,63.2z"/>
	</g>
</g>
</svg>
