<?xml version="1.0" encoding="utf-8"?>
<!-- Generator: Adobe Illustrator 18.0.0, SVG Export Plug-In . SVG Version: 6.00 Build 0)  -->
<!DOCTYPE svg PUBLIC "-//W3C//DTD SVG 1.1//EN" "http://www.w3.org/Graphics/SVG/1.1/DTD/svg11.dtd">
<svg version="1.1" id="Layer_1" xmlns="http://www.w3.org/2000/svg" xmlns:xlink="http://www.w3.org/1999/xlink" x="0px" y="0px"
	 viewBox="0 0 48 48" enable-background="new 0 0 48 48" xml:space="preserve">
<g>
	<polygon fill="#FFD15C" points="47.9,5.5 43,4.7 42.2,0 41.5,4.8 36.9,5.5 41.5,6.2 42.2,11 43,6.3 	"/>
	<polygon fill="#FFD15C" points="8.3,0 8.1,1.9 6.1,2.2 8,2.5 8.3,4.4 8.7,2.5 10.6,2.2 8.6,1.9 	"/>
	<polygon fill="#CDD6E0" points="5.6,6.1 5.1,2.7 4.6,6.1 1.3,6.6 4.6,7.2 5.1,10.6 5.6,7.2 9.1,6.6 	"/>
	<g>
		<polygon fill="#84DBFF" points="31.5,20.2 25.4,8.6 22.9,8.6 16.1,20.2 		"/>
		<polygon fill="#54C0EB" points="39.3,8.6 25.4,8.6 31.5,20.2 		"/>
		<polygon fill="#84DBFF" points="47.7,20.2 39.4,8.6 39.3,8.6 31.5,20.2 		"/>
		<polygon fill="#F2F2F2" points="23.9,48 31.5,20.2 16.1,20.2 		"/>
		<polygon fill="#54C0EB" points="22.9,8.6 8.5,8.6 16.1,20.2 		"/>
		<polygon fill="#84DBFF" points="8.5,8.6 8.4,8.6 0.1,20.2 16.1,20.2 		"/>
		<polygon fill="#54C0EB" points="47.7,20.2 23.9,48 0.1,20.2 16.1,20.2 23.9,48 31.5,20.2 		"/>
	</g>
	<polygon fill="#FFFFFF" points="31.5,17.1 31.1,19.7 28.4,20.1 31.1,20.5 31.5,23.3 31.9,20.5 34.6,20.1 31.9,19.7 	"/>
	<polygon fill="#FFFFFF" points="11.9,11.3 11.5,13.9 8.8,14.3 11.4,14.7 11.9,17.5 12.3,14.8 15,14.3 12.3,13.9 	"/>
</g>
</svg>
