<?xml version="1.0" encoding="utf-8"?>
<!-- Generator: Adobe Illustrator 18.0.0, SVG Export Plug-In . SVG Version: 6.00 Build 0)  -->
<!DOCTYPE svg PUBLIC "-//W3C//DTD SVG 1.1//EN" "http://www.w3.org/Graphics/SVG/1.1/DTD/svg11.dtd">
<svg version="1.1" id="Layer_1" xmlns="http://www.w3.org/2000/svg" xmlns:xlink="http://www.w3.org/1999/xlink" x="0px" y="0px"
	 viewBox="0 0 48 48" enable-background="new 0 0 48 48" xml:space="preserve">
<g>
	<g>
		<g>
			<path fill="#F3705A" d="M25.6,36.3v-2.2l-3-0.7c-0.1-0.6-0.2-1.1-0.4-1.6l2.3-2.1l-1.1-1.9l-2.9,0.9c-0.4-0.4-0.8-0.8-1.2-1.2
				l0.9-2.9l-1.9-1.1l-2.1,2.3c-0.5-0.2-1.1-0.3-1.6-0.4l-0.7-3h-2.2l-0.7,3c-0.6,0.1-1.1,0.2-1.6,0.4l-2.1-2.3l-1.9,1.1l0.9,2.9
				c-0.4,0.4-0.8,0.8-1.2,1.2l-2.9-0.9l-1.1,1.9l2.3,2.1c-0.2,0.5-0.3,1.1-0.4,1.6l-3,0.7v2.2L3,37c0.1,0.6,0.2,1.1,0.4,1.6
				l-2.3,2.1l1.1,1.9l2.9-0.9c0.4,0.4,0.8,0.8,1.2,1.2l-0.9,2.9l1.9,1.1l2.1-2.3c0.5,0.2,1.1,0.3,1.6,0.4l0.7,3h2.2l0.7-3
				c0.6-0.1,1.1-0.2,1.6-0.4l2.1,2.3l1.9-1.1l-0.9-2.9c0.4-0.4,0.8-0.8,1.2-1.2l2.9,0.9l1.1-1.9l-2.3-2.1c0.2-0.5,0.3-1.1,0.4-1.6
				L25.6,36.3z M12.8,41.2c-3.3,0-6-2.7-6-6c0-3.3,2.7-6,6-6c3.3,0,6,2.7,6,6C18.8,38.5,16.1,41.2,12.8,41.2z"/>
			<path fill="#F3705A" d="M12.8,33.1c-1.2,0-2.1,1-2.1,2.1c0,1.2,1,2.1,2.1,2.1c1.2,0,2.1-1,2.1-2.1C14.9,34,14,33.1,12.8,33.1z"/>
		</g>
		<g>
			<path fill="#66C6B9" d="M47.3,20.5L48,18l-3.2-1.7c0.1-0.7,0.1-1.4,0-2l3.3-1.7L47.3,10l-3.7,0.2c-0.3-0.6-0.6-1.2-1-1.8l2-3.1
				l-1.9-1.9l-3.1,2c-0.5-0.4-1.1-0.7-1.7-1l0.2-3.7L35.5,0l-1.7,3.3c-0.7-0.1-1.4-0.1-2,0L30.2,0l-2.6,0.7l0.2,3.7
				c-0.6,0.3-1.2,0.6-1.8,1l-3.1-2L21,5.2l2,3.1c-0.4,0.5-0.7,1.1-1,1.7l-3.7-0.2l-0.7,2.6l3.3,1.7c-0.1,0.7-0.1,1.4,0,2l-3.3,1.7
				l0.7,2.6l3.7-0.2c0.3,0.6,0.6,1.2,1,1.8l-2,3.1l1.9,1.9l3.1-2c0.5,0.4,1.1,0.7,1.7,1l-0.2,3.7l2.6,0.7l1.7-3.2
				c0.7,0.1,1.4,0.1,2,0l1.7,3.3l2.6-0.7l-0.2-3.7c0.6-0.3,1.2-0.6,1.8-1l3.1,2l1.9-1.9l-2-3.1c0.4-0.5,0.7-1.1,1-1.7L47.3,20.5z
				 M31.3,20.8c-3.1-0.8-4.9-4-4.1-7.1c0.8-3.1,4-4.9,7.1-4.1c3.1,0.8,4.9,4,4.1,7.1C37.5,19.8,34.3,21.6,31.3,20.8z"/>
			<path fill="#66C6B9" d="M33.5,12.7c-1.4-0.4-2.8,0.4-3.2,1.8c-0.4,1.4,0.4,2.8,1.8,3.2c1.4,0.4,2.8-0.4,3.2-1.8
				C35.6,14.5,34.8,13.1,33.5,12.7z"/>
		</g>
		<g>
			<path fill="#FFD15C" d="M17.1,15.5V13l-2.3-0.5c-0.1-0.5-0.3-1-0.6-1.4l1.3-2l-1.8-1.8l-2,1.3c-0.4-0.3-0.9-0.5-1.4-0.6L9.8,5.7
				H7.3L6.8,8c-0.5,0.1-1,0.3-1.4,0.6l-2-1.3L1.6,9.1L2.9,11c-0.3,0.5-0.5,0.9-0.6,1.5L0,13v2.5L2.3,16c0.1,0.5,0.3,1,0.6,1.4
				l-1.3,1.9l1.8,1.8l2-1.3c0.4,0.3,0.9,0.5,1.4,0.6l0.5,2.3h2.5l0.5-2.3c0.5-0.1,1-0.3,1.5-0.6l1.9,1.3l1.8-1.8l-1.3-2
				c0.3-0.4,0.5-0.9,0.6-1.4L17.1,15.5z M8.6,16.6c-1.3,0-2.3-1-2.3-2.3s1-2.3,2.3-2.3c1.3,0,2.3,1,2.3,2.3S9.8,16.6,8.6,16.6z"/>
		</g>
	</g>
</g>
</svg>
