<?xml version="1.0" encoding="utf-8"?>
<!-- Generator: Adobe Illustrator 18.0.0, SVG Export Plug-In . SVG Version: 6.00 Build 0)  -->
<!DOCTYPE svg PUBLIC "-//W3C//DTD SVG 1.1//EN" "http://www.w3.org/Graphics/SVG/1.1/DTD/svg11.dtd">
<svg version="1.1" id="Layer_1" xmlns="http://www.w3.org/2000/svg" xmlns:xlink="http://www.w3.org/1999/xlink" x="0px" y="0px"
	 viewBox="0 0 48 48" enable-background="new 0 0 48 48" xml:space="preserve">
<g>
	<g>
		<g>
			<g>
				<g>
					<path fill="#FFD15C" d="M31.3,28.9c-1.4,1.4-3.9,3.2-3.9,3.2s-1.3,0.8-1.5,1.3c-0.2,0.5-0.2,1,0.3,1.5c0.4,0.3,2.5,0.8,4.2-1.4
						l2.2-1.1c0,0,0.4,2.8,1,3.1c0,0-1.3,1.4-1.5,2.1c0,0-2,1.4-2.4,2.5c0,0-2.1,1.4-2.2,2c0,0-2.2,1.4-2.2,3.5L25,46.4
						c-0.1,0.2-0.1,0.4-0.2,0.6C24.8,47.4,24.9,48,26,48l1-1.1c0,0,0.2,0.2,0.6-0.2c0.4-0.4,0.8-0.9,0.8-0.9l1.1-0.9l3.5-2.6
						c0,0,2.1-1.6,2.5-2.1c0,0,2.1-0.9,2.7-2.1c0.6-1.3,3.1-5.1,3.9-6.4c0.8-1.3,2-3.2,1.6-4.4c-0.4-1.2-3.6-2-3.6-2l-3.9,0.2
						l-0.4,0.4C34.5,26.2,32.9,27.3,31.3,28.9z"/>
				</g>
				<path fill="#F7B64C" d="M25.9,45.3c0.1-0.1,0.3-0.3,0.4-0.7c0-0.3,0-0.6-0.2-0.9c-0.3,0.5-0.6,1.2-0.6,1.9l-0.2,0.4l0.4,0.3
					l0.1-0.1c0,0,0.3-0.3,0.3-0.6C26,45.5,26,45.4,25.9,45.3z"/>
				<g>
					<path fill="#FFFFFF" d="M26.2,33.2c-0.1,0.2-0.2,0.4-0.1,0.6c0.1,0.3,0.4,0.7,1.1,0.6c1-0.3,0.5-1,0.5-1s-0.3-0.5-0.3-0.7
						c0,0-0.1-0.2-0.5,0C26.7,32.8,26.4,33,26.2,33.2z"/>
				</g>
			</g>
			<path fill="#F7B64C" d="M35,39.3c-0.3,0.2-0.6,0.4-0.9,0.7l0,0c-0.6,0.5-1.2,1.1-1.9,1.6c-0.7,0.5-1.3,0.9-2,1.4
				c-0.3,0.2-0.7,0.4-1,0.7c-0.3,0.2-0.6,0.5-0.9,0.8c-0.1,0.1-0.1,0.2-0.2,0.2c0,0,0,0,0,0l0,0l0,0c-0.1,0-0.1,0.1-0.1,0.1
				c-0.2,0.1-0.3,0.3-0.5,0.4c-0.3,0.3-0.6,0.5-0.9,0.8c-0.1,0-0.2,0-0.3,0c-0.1,0-0.1,0-0.2,0c-0.1,0-0.1,0-0.1,0
				c-0.1,0-0.2-0.1-0.2-0.2c0,0-0.1-0.1-0.1-0.1c0,0,0-0.1,0-0.1l0,0l0,0l0,0c0,0-0.1-0.1-0.1-0.1c0,0.1,0,0.1,0,0.2l-0.1,0.1
				c0,0,0,0,0,0.1c0,0.1,0.1,0.1,0.1,0.2c0.1,0.1,0.2,0.2,0.3,0.2c0.1,0,0.1,0,0.2,0c0.1,0,0.1,0,0.2,0c0.1,0,0.2,0,0.4-0.1l0,0l0,0
				l0,0l0,0l0.9-0.8c0.2-0.1,0.3-0.3,0.5-0.4c0,0,0.1-0.1,0.1-0.1c0,0,0,0,0,0c0,0,0,0,0.1,0c0,0,0,0,0.1-0.1
				c0.1-0.1,0.1-0.2,0.2-0.2c0.3-0.3,0.6-0.6,0.9-0.8c0.3-0.2,0.7-0.5,1-0.7c0.7-0.5,1.4-0.9,2-1.4c0.6-0.5,1.3-1,1.9-1.6l0,0l0,0
				C34.4,39.7,34.7,39.5,35,39.3c0.3-0.2,0.7-0.4,1-0.5C35.7,38.9,35.3,39.1,35,39.3z"/>
			<g>
				<path fill="#415A6B" d="M41.7,19.4c0,0,0.8-0.5-0.8-1.3c0,0-0.4-1.3-0.8-1.6c0,0,0.3-1.6-2.3-1.2c0,0-2.2-3.9-3.5-5.2
					c0,0-7.2-8.1-8.6-8.3c0,0,0.4-0.8-0.7-1.7H0v2.9c0.8,0.7,2.2,2.4,3.1,2.4c0,0,5.6,3.9,7,3.7c0,0,4.1,3.8,7.3,2.7
					c0,0,5.7,6.4,7.6,7.6c1,0.7,1.4,0.9,1.5,0.9c0,0.3-0.1,2.1,2.3,3.3c0,0,0.1,1.5,0.9,1.6c0,0,0.4,1.4,1,2l1.6-0.5
					c0,0,0.4,0.7,0.2,1c0,0,1.5-1.3,2.4-1.4c1.6,0,1.8,0.3,2.9,0.3s7.1-0.1,5.5,2.5l0,0.2c0,0,1-0.5,0.4-2.4
					C43.2,25,42.2,20.1,41.7,19.4z"/>
			</g>
		</g>
		<g>
			<g>
				<path fill="#FFD15C" d="M30.8,0C28.1,2.4,21.1,8.8,19,12c-2.7,3.9-7.5,9.7-7.5,9.7s-3.2,3.4-0.7,8.6s2.5,5.3,2.5,5.3
					s0.7,1.9,1.7,2.4c1,0.4,1.7,1.2,1.7,1.2s1.9,1.6,2.4,1.9l1.5,1.1c0,0,1.4,1.5,2.5,2l1.1,0.8l1.7,1.2c0,0,0.5-0.5,0.1-0.9
					c0,0,1-0.6,0-1.7c-1-1.1-1.3-1.5-1.8-1.6c0,0-2.7-2.7-2.9-2.9c-0.5-0.5-1-0.9-1.6-1.2c0,0-0.9-2.3-1.4-2.8c0,0,0.3-1.6,0.7-2
					c0,0,1.6-0.6,2.6,0.1c1,0.7,3.3,2.5,4.3,1.6l-0.9-1.9L24,31.6c0,0-3.5-2-4-2.4c-0.4-0.4-3-2.4-3.6-2.8c-0.6-0.4,1.2-2.4,1.5-2.8
					c0.4-0.3,3.6-3.6,5.6-4.9c1.9-1.3,12.7-10,13.5-11.1c0,0,7.8-5.2,11-7.6H30.8z"/>
			</g>
			<g>
				<path fill="#F7B64C" d="M25.5,44.9c-0.2-0.1-0.4-0.3-0.6-0.4c-0.1-0.1-0.2-0.1-0.3-0.1c-0.1-0.1-0.2-0.1-0.3-0.2
					c-0.4-0.2-0.8-0.5-1.2-0.8c-0.2-0.1-0.4-0.2-0.5-0.3c-0.2-0.1-0.3-0.2-0.5-0.3c-0.3-0.2-0.7-0.5-1-0.7l0,0
					c-0.5-0.2-0.9-0.5-1.4-0.8c-0.2-0.2-0.4-0.3-0.7-0.5c-0.2-0.2-0.4-0.3-0.6-0.5c-0.2-0.2-0.4-0.3-0.6-0.5
					c-0.2-0.2-0.4-0.3-0.7-0.4c-0.1-0.1-0.3-0.1-0.4-0.2c-0.1-0.1-0.1-0.1-0.1-0.1s-0.1-0.1-0.3-0.3c0.1,0,0.1,0,0.2,0.1
					c0.2,0.1,0.5,0.2,0.7,0.4c0.2,0.1,0.5,0.3,0.7,0.4c0.2,0.2,0.4,0.3,0.6,0.5c0.2,0.2,0.4,0.4,0.6,0.5c0.2,0.2,0.4,0.3,0.6,0.5
					c0.4,0.3,0.9,0.6,1.4,0.8l0,0l0,0c0.3,0.2,0.6,0.5,1,0.7c0.2,0.1,0.3,0.2,0.5,0.3c0.2,0.1,0.3,0.2,0.5,0.3l0,0l0,0
					c0.4,0.3,0.8,0.5,1.2,0.8c0.1,0.1,0.2,0.1,0.3,0.2c0.1,0.1,0.2,0.1,0.3,0.1C25.1,44.6,25.3,44.8,25.5,44.9z"/>
			</g>
			<g>
				<path fill="#F3F3F3" d="M23.9,45c0,0,0.3,0.8,1.4,1.3c0,0,0.5,0.1,0.3-0.3C25.4,45.7,23.9,45,23.9,45z"/>
			</g>
			<g>
				<path fill="#F3F3F3" d="M24.3,44.2c0,0,0.5,0.9,1.4,1.2c0,0,0.3,0,0.1-0.3C25.5,44.8,25.2,44.4,24.3,44.2z"/>
			</g>
			<g>
				<path fill="#F3F3F3" d="M24.7,32.8c0,0,0.1,0.7,0.1,0.9c0,0,0.1,0.9,1,0.9c0,0,0.5-0.4,0-1C25.2,33,24.7,32.8,24.7,32.8z"/>
			</g>
		</g>
	</g>
</g>
</svg>
