<?xml version="1.0" encoding="utf-8"?>
<!-- Generator: Adobe Illustrator 18.0.0, SVG Export Plug-In . SVG Version: 6.00 Build 0)  -->
<!DOCTYPE svg PUBLIC "-//W3C//DTD SVG 1.1//EN" "http://www.w3.org/Graphics/SVG/1.1/DTD/svg11.dtd">
<svg version="1.1" id="Layer_1" xmlns="http://www.w3.org/2000/svg" xmlns:xlink="http://www.w3.org/1999/xlink" x="0px" y="0px"
	 viewBox="0 0 48 48" enable-background="new 0 0 48 48" xml:space="preserve">
<g>
	<g>
		<path fill="#FFD15C" d="M36.1,10.9l-0.8-4.2C35.1,5.3,34,4.2,32.6,4l-3.6-0.7c-1.5-0.3-2.7-1.7-2.7-3.2h-4.8
			c0,1.6-1.1,2.9-2.7,3.2L15.4,4c-1.4,0.3-2.4,1.4-2.7,2.7l-0.8,4.2H36.1z"/>
	</g>
	<g>
		<path fill="#415A6B" d="M36.6,45.8c-8.4,3-16.8,3-25.2,0c0-17.5,6.8-24.3,6.8-24.3L16.3,13l-1,3.7l-4.1-1.4l1.6-8.7
			C12.9,5.3,14,4.2,15.4,4l3.6-0.7c0.2,0,0.3-0.1,0.5-0.1c0.5,2.6,2.4,4.5,4.6,4.5c2.2,0,4.1-1.9,4.6-4.5c0.1,0.1,0.3,0.1,0.5,0.1
			L32.6,4c1.4,0.3,2.4,1.4,2.7,2.7l1.6,8.7l-4.1,1.4l-1-3.7l-1.9,8.4C29.8,21.5,36.6,28.2,36.6,45.8z"/>
	</g>
</g>
</svg>
