<?xml version="1.0" encoding="utf-8"?>
<!-- Generator: Adobe Illustrator 18.0.0, SVG Export Plug-In . SVG Version: 6.00 Build 0)  -->
<!DOCTYPE svg PUBLIC "-//W3C//DTD SVG 1.1//EN" "http://www.w3.org/Graphics/SVG/1.1/DTD/svg11.dtd">
<svg version="1.1" id="Layer_1" xmlns="http://www.w3.org/2000/svg" xmlns:xlink="http://www.w3.org/1999/xlink" x="0px" y="0px"
	 viewBox="0 0 512 512" enable-background="new 0 0 512 512" xml:space="preserve">
<g>
	<path fill="#84DBFF" d="M433.3,2H23.5C11.8,2,2.3,11.5,2.3,23.2v277.6c0,11.7,9.5,21.2,21.2,21.2h31.3v101.5l71.5-101.5h25.3V204
		c0-18.7,15.2-33.9,33.9-33.9h269V23.2C454.5,11.5,445,2,433.3,2z"/>
	<path fill="#54C0EB" d="M454.5,158.8v129.3c0,18.7-15.1,33.9-33.9,33.9H140.3V204c0-24.9,20.2-45.2,45.2-45.2H454.5z"/>
	<path fill="#F2F2F2" d="M488.5,170.1h-303c-18.7,0-33.9,15.2-33.9,33.9v198.3c0,11.7,9.5,21.2,21.2,21.2h180.6l94.2,86.5v-86.5
		h40.9c11.7,0,21.2-9.5,21.2-21.2v-211C509.7,179.6,500.2,170.1,488.5,170.1z"/>
	<circle fill="#FFFFFF" cx="243.1" cy="296.8" r="26.9"/>
	<circle fill="#FFFFFF" cx="330.6" cy="296.8" r="26.9"/>
	<circle fill="#FFFFFF" cx="418.2" cy="296.8" r="26.9"/>
</g>
</svg>
