<?xml version="1.0" encoding="utf-8"?>
<!-- Generator: Adobe Illustrator 18.0.0, SVG Export Plug-In . SVG Version: 6.00 Build 0)  -->
<!DOCTYPE svg PUBLIC "-//W3C//DTD SVG 1.1//EN" "http://www.w3.org/Graphics/SVG/1.1/DTD/svg11.dtd">
<svg version="1.1" id="Layer_1" xmlns="http://www.w3.org/2000/svg" xmlns:xlink="http://www.w3.org/1999/xlink" x="0px" y="0px"
	 viewBox="0 0 48 48" enable-background="new 0 0 48 48" xml:space="preserve">
<g>
	<path fill="#40596B" d="M16.4,13.3H14V4.9c0-0.4,0.2-0.7,0.5-0.9l4.8-3.7c0.5-0.4,1.3-0.3,1.7,0.2l0,0c0.4,0.5,0.3,1.3-0.2,1.7
		l-4.4,3.4V13.3z"/>
	<path fill="#FF7058" d="M38.9,16.3l-5.7,28.5H14.9c0,0-0.1,0-0.2,0L9.1,16.3H38.9z"/>
	<g>
		<polygon fill="#F1543F" points="9.1,16.3 9.9,20.3 38.1,20.3 38.9,16.3 		"/>
	</g>
	<path fill="#FFD15C" d="M41.9,48L41.9,48c0-2.2-1.8-4.1-4.1-4.1H10.2c-2.2,0-4.1,1.8-4.1,4.1l0,0H41.9z"/>
	<g>
		<polygon fill="#FFD15C" points="42.2,11.7 5.8,11.7 7.9,17.8 40.1,17.8 		"/>
	</g>
</g>
</svg>
