<?xml version="1.0" encoding="utf-8"?>
<!-- Generator: Adobe Illustrator 19.0.1, SVG Export Plug-In . SVG Version: 6.00 Build 0)  -->
<svg version="1.1" id="Layer_1" xmlns="http://www.w3.org/2000/svg" xmlns:xlink="http://www.w3.org/1999/xlink" x="0px" y="0px"
	 viewBox="0 0 48 48" style="enable-background:new 0 0 48 48;" xml:space="preserve">
<style type="text/css">
	.st0{fill:#66C6B9;}
	.st1{fill:#F3F3F3;}
	.st2{fill:#415A6B;}
	.st3{fill:#CED6E0;}
	.st4{fill:#F3705A;}
	.st5{fill:#E8EAE9;}
	.st6{fill:#4ABAA5;}
	.st7{fill:#F05540;}
	.st8{fill:#FFD15C;}
	.st9{fill:#55C0EB;}
	.st10{fill:#8AD7F8;}
	.st11{fill:#344A5E;}
	.st12{fill:#FFFFFF;}
	.st13{fill:#F7B64C;}
	.st14{fill:#ADB3BA;}
	.st15{fill:#38A892;}
	.st16{fill:#ED9845;}
	.st17{fill:#2D4251;}
	.st18{fill:#304556;}
	.st19{fill:#A5AAAD;}
	.st20{fill:#2D4456;}
	.st21{fill:#4FB0E0;}
	.st22{fill:#2D4354;}
	.st23{fill:#E54C38;}
	.st24{fill:#2B4456;}
	.st25{fill:#2B404F;}
</style>
<g>
	<g>
		<g>
			<g>
				<path class="st10" d="M20.4,9.2c0,5.1-4.6,9.2-10.2,9.2C4.6,18.4,0,14.3,0,9.2C0,4.1,4.6,0,10.2,0C15.9,0,20.4,4.1,20.4,9.2z"/>
				<path class="st12" d="M11.1,11.9H9.2c0-0.3,0-0.4,0-0.5c0-0.6,0.1-1.1,0.3-1.5c0.2-0.4,0.6-0.8,1.2-1.3c0.6-0.5,1-0.8,1.1-1
					c0.2-0.2,0.3-0.5,0.3-0.8c0-0.4-0.2-0.8-0.5-1s-0.8-0.4-1.3-0.4c-0.5,0-1,0.2-1.3,0.5C8.6,6,8.4,6.5,8.2,7.1L6.3,6.9
					C6.4,6,6.8,5.2,7.5,4.6C8.2,4,9.1,3.7,10.2,3.7c1.2,0,2.1,0.3,2.8,0.9c0.7,0.6,1.1,1.3,1.1,2.2c0,0.5-0.1,0.9-0.4,1.3
					c-0.3,0.4-0.8,1-1.7,1.7c-0.4,0.4-0.7,0.7-0.8,0.9C11.1,10.9,11.1,11.3,11.1,11.9z M9.2,14.7v-2.1h2.1v2.1H9.2z"/>
				<polygon class="st10" points="13.1,12.6 13.1,16.8 8.1,17.4 16.9,21.3 16.9,12.6 				"/>
			</g>
		</g>
		<g>
			<g>
				<g>
					<g>
						<path class="st3" d="M21.9,46.2C21.9,46.2,21.9,46.2,21.9,46.2l-0.5,0c0,0,0,0,0,0c0-1-0.8-1.8-1.8-1.8s-1.8,0.8-1.8,1.8
							c0,0,0,0,0,0h-0.5c0,0,0,0,0,0c0-0.8,0.4-1.4,0.9-1.9c0.4-0.3,0.7-0.9,0.7-1.4v-0.6h1.4v0.6c0,0.6,0.3,1.1,0.7,1.4
							C21.5,44.7,21.9,45.4,21.9,46.2z"/>
					</g>
					<g>
						<circle class="st11" cx="19.6" cy="46.2" r="1.8"/>
					</g>
				</g>
				<g>
					<g>
						<path class="st3" d="M43.7,46.2C43.7,46.2,43.7,46.2,43.7,46.2l-0.5,0c0,0,0,0,0,0c0-1-0.8-1.8-1.8-1.8s-1.8,0.8-1.8,1.8
							c0,0,0,0,0,0H39c0,0,0,0,0,0c0-0.8,0.4-1.4,0.9-1.9c0.4-0.3,0.7-0.9,0.7-1.4v-0.6h1.4v0.6c0,0.6,0.3,1.1,0.7,1.4
							C43.3,44.7,43.7,45.4,43.7,46.2z"/>
					</g>
					<g>
						<circle class="st11" cx="41.4" cy="46.2" r="1.8"/>
					</g>
				</g>
				<rect x="27.1" y="30.9" class="st11" width="6.7" height="3.2"/>
				<rect x="28.1" y="34.1" class="st2" width="4.6" height="3.8"/>
				<rect x="28.8" y="37.9" class="st3" width="3.3" height="3"/>
				<path class="st4" d="M41,3c-0.9,2.1-2.1,5.7-1.7,10.7c0,0-3.3,6.4-1,13.7l2.7,0.2c0,0,2.4-5.3,2.6-9.5c0.1-2.5,2-11,3.5-17.2
					h-2.9C42.8,0.9,41.6,1.8,41,3z"/>
				<g>
					<path class="st2" d="M47.9,2.4c0.3-1.1-0.4-2.3-1.5-2.4c-0.8-0.1-1.5,0.2-2.3,0.9C43.8,2.5,43.4,4,43,5.5
						C41.5,12.1,41.7,26,41.6,28s-1.3,2.1-1.3,2.1c1.8,0,5.1,2,4.7-5.6C44.5,17.9,46.3,9.2,47.9,2.4z"/>
				</g>
				<path class="st4" d="M20.9,30.2h19.5v-4.5c-7.7-1.1-10.3-1.3-17.7-0.7c-2.3,0.2-4.2,1.7-5.1,3.7c-0.5,1.2,0.4,2.5,1.6,2.5h1.7
					V30.2z"/>
				<path class="st2" d="M42.7,29.2H20.8c-0.9,0-1.6,0.7-1.6,1.6v0.5h21.9c0.9,0,1.6-0.7,1.6-1.6V29.2z"/>
				<path class="st2" d="M40.2,40.9H20.8c-1.5,0-2.8,1.3-2.8,2.8h25C43,42.1,41.7,40.9,40.2,40.9z"/>
			</g>
			<path class="st11" d="M45.3,17.1c0,0-3.1-1.6-7.1-1.9s-7.6,0.4-10,1.1c-2.4,0.7-5.2,2.5-7.3,4.2c0,0,3.4,3,4.1,5.4
				c0.7,2.5,2.3,4.2,4.4,4.3c2,0.1,10.3,0,10.3,0s5-0.6,4.9-5.2S45.3,17.1,45.3,17.1z M41.3,27c-0.3,0.8-1.7,0.8-1.7,0.8
				s-8.2,0.1-8.5,0.1c-0.3,0-1.3,0-1.7-1.1c-0.4-1.1-2.8-4.6-3.1-4.9c-0.3-0.3-0.5-0.4-0.6-1c-0.1-0.6,0.7-1,0.7-1
				c2.1-1.1,4.3-1.8,6.7-2.2c2.2-0.4,4.5-0.3,6.7,0.1c0.3,0.1,0.9,0.2,1.3,0.8c0.3,0.5,0.2,1.4,0.2,1.4c-0.2,1.7,0.1,4.3,0.2,5.1
				C41.5,25.8,41.6,26.2,41.3,27z"/>
			<path class="st2" d="M20.1,21.7c-0.1,0.1-0.4,0.1-0.5-0.1c0-0.1,0-0.2,0-0.3c0.2-0.4,3.6-3.4,8-5c4.4-1.6,11.1-2.4,17.5,0.3
				c0.1,0,0.2,0.2,0.2,0.3c0,0,0,0,0,0c0,0.3-0.3,0.4-0.5,0.3c-2.8-1.4-8-2-10.8-1.7c-2.8,0.3-6.6,1.1-9.6,2.9
				C22.1,19.8,20.6,21.2,20.1,21.7z"/>
		</g>
	</g>
</g>
</svg>
