<?xml version="1.0" encoding="utf-8"?>
<!-- Generator: Adobe Illustrator 18.0.0, SVG Export Plug-In . SVG Version: 6.00 Build 0)  -->
<!DOCTYPE svg PUBLIC "-//W3C//DTD SVG 1.1//EN" "http://www.w3.org/Graphics/SVG/1.1/DTD/svg11.dtd">
<svg version="1.1" id="Layer_1" xmlns="http://www.w3.org/2000/svg" xmlns:xlink="http://www.w3.org/1999/xlink" x="0px" y="0px"
	 viewBox="0 0 48 48" enable-background="new 0 0 48 48" xml:space="preserve">
<g>
	<path fill="#ACB3BA" d="M45.2,41.9v-29c0-0.9-0.7-1.6-1.6-1.6h-39c-0.9,0-1.6,0.7-1.6,1.6v29H45.2z"/>
	<rect x="6.1" y="14.5" fill="#F2F2F2" width="35.9" height="24.4"/>
	<path fill="#CDD6E0" d="M0,43.9L0,43.9c0,1.1,0.9,1.9,1.9,1.9h44.1c1.1,0,1.9-0.9,1.9-1.9v0c0-1.1-0.9-1.9-1.9-1.9H1.9
		C0.9,41.9,0,42.8,0,43.9z"/>
	<polygon fill="#ACB3BA" points="41.9,48.1 6.1,48.1 3.5,45.8 44.5,45.8 	"/>
	<path fill="#ACB3BA" d="M26.7,44.4h-5.4c-0.3,0-0.6-0.3-0.6-0.6l0,0c0-0.3,0.3-0.6,0.6-0.6h5.4c0.3,0,0.6,0.3,0.6,0.6l0,0
		C27.3,44.2,27,44.4,26.7,44.4z"/>
	<path fill="#FFD15C" d="M36.5,12.4c0-7.4-6.4-13.2-13.9-12.4c-5.8,0.6-10.4,5.4-11,11.1c-0.5,4.9,1.9,9.3,5.6,11.7
		c1.1,0.7,1.8,1.9,1.8,3.2l0,4.8H29l0-4.8c0-1.3,0.7-2.5,1.8-3.2C34.2,20.7,36.5,16.8,36.5,12.4z"/>
	<path fill="#40596B" d="M27.2,32.9h-6.5c-0.7,0-1.2-0.5-1.2-1.2v-0.7h8.9v0.7C28.4,32.3,27.9,32.9,27.2,32.9z"/>
	<path fill="#FF7058" d="M29.3,26.8H18.7c-0.4,0-0.7-0.3-0.7-0.7v0c0-0.4,0.3-0.7,0.7-0.7h10.7c0.4,0,0.7,0.3,0.7,0.7v0
		C30.1,26.5,29.7,26.8,29.3,26.8z"/>
	<path fill="#FF7058" d="M29.3,28.9H18.7c-0.4,0-0.7-0.3-0.7-0.7v0c0-0.4,0.3-0.7,0.7-0.7h10.7c0.4,0,0.7,0.3,0.7,0.7v0
		C30.1,28.6,29.7,28.9,29.3,28.9z"/>
	<path fill="#FF7058" d="M29.3,30.9H18.7c-0.4,0-0.7-0.3-0.7-0.7l0,0c0-0.4,0.3-0.7,0.7-0.7h10.7c0.4,0,0.7,0.3,0.7,0.7l0,0
		C30.1,30.6,29.7,30.9,29.3,30.9z"/>
	<path fill="#F8B64C" d="M31.1,12.5c0-0.2,0-0.5,0-0.7c0.5-0.3,1-0.7,1.5-1c-0.2-0.7-0.4-1.4-0.7-2c-0.6,0-1.2,0-1.8,0.1
		c-0.2-0.4-0.5-0.7-0.8-1.1c0.2-0.6,0.4-1.1,0.6-1.7c-0.5-0.5-1.1-0.9-1.7-1.3c-0.5,0.4-0.9,0.7-1.4,1.1c-0.4-0.2-0.8-0.3-1.3-0.4
		c-0.2-0.6-0.3-1.1-0.5-1.7c-0.7-0.1-1.4-0.1-2.1,0c-0.2,0.6-0.3,1.1-0.5,1.7c-0.4,0.1-0.9,0.2-1.3,0.4c-0.5-0.4-0.9-0.7-1.4-1.1
		c-0.6,0.4-1.2,0.8-1.7,1.3c0.2,0.6,0.4,1.1,0.6,1.7c-0.3,0.3-0.6,0.7-0.8,1.1c-0.6,0-1.2,0-1.8-0.1c-0.3,0.7-0.5,1.3-0.7,2
		c0.5,0.3,1,0.7,1.5,1c0,0.2,0,0.4,0,0.7c0,0.2,0,0.4,0,0.7c-0.5,0.3-1,0.7-1.5,1c0.2,0.7,0.4,1.4,0.7,2c0.6,0,1.2,0,1.8-0.1
		c0.2,0.4,0.5,0.7,0.8,1.1c-0.2,0.6-0.4,1.1-0.6,1.7c0.5,0.5,1.1,0.9,1.7,1.3c0.5-0.4,0.9-0.7,1.4-1.1c0.4,0.2,0.8,0.3,1.3,0.4
		c0.2,0.6,0.3,1.1,0.5,1.7c0.7,0.1,1.4,0.1,2.1,0c0.2-0.6,0.3-1.1,0.5-1.7c0.4-0.1,0.9-0.2,1.3-0.4c0.5,0.4,0.9,0.7,1.4,1.1
		c0.6-0.4,1.2-0.8,1.7-1.3c-0.2-0.6-0.4-1.1-0.6-1.7c0.3-0.3,0.6-0.7,0.8-1.1c0.6,0,1.2,0,1.8,0.1c0.3-0.7,0.5-1.3,0.7-2
		c-0.5-0.3-1-0.7-1.5-1C31.1,12.9,31.1,12.7,31.1,12.5z M24,16.2c-2,0-3.7-1.7-3.7-3.7S22,8.8,24,8.8s3.7,1.7,3.7,3.7
		S26,16.2,24,16.2z"/>
	<g>
		<path fill="#FFFFFF" d="M27.7,8.8c-2-2-5.3-2-7.3,0c-2,2-2,5.3,0,7.3c1,1,2.3,1.5,3.7,1.5c1.3,0,2.7-0.5,3.7-1.5
			C29.7,14.1,29.7,10.8,27.7,8.8z M26.3,14.8c-1.3,1.3-3.4,1.3-4.7,0c-1.3-1.3-1.3-3.4,0-4.7c1.3-1.3,3.4-1.3,4.7,0
			c0.6,0.6,1,1.5,1,2.3S27,14.2,26.3,14.8z"/>
	</g>
</g>
</svg>
