<?xml version="1.0" encoding="utf-8"?>
<!-- Generator: Adobe Illustrator 18.0.0, SVG Export Plug-In . SVG Version: 6.00 Build 0)  -->
<!DOCTYPE svg PUBLIC "-//W3C//DTD SVG 1.1//EN" "http://www.w3.org/Graphics/SVG/1.1/DTD/svg11.dtd">
<svg version="1.1" id="Layer_1" xmlns="http://www.w3.org/2000/svg" xmlns:xlink="http://www.w3.org/1999/xlink" x="0px" y="0px"
	 viewBox="0 0 48 48" enable-background="new 0 0 48 48" xml:space="preserve">
<g>
	<g>
		<g>
			<path fill="#FFD15C" d="M42.6,43.5c-12.4,6-24.9,6-37.3,0c9.1-14.8,7.3-29.8,7.3-29.8L8.7,27.5l-5-0.6L5.4,8.5
				C5.7,5.3,8,2.6,11.1,1.8L18,0l2.2,8.2L24,10l3.8-1.8L30,0l6.8,1.8c3.1,0.8,5.4,3.5,5.7,6.8l1.6,18.3l-5,0.6l-3.9-13.7
				C35.4,13.7,33.6,28.8,42.6,43.5z"/>
		</g>
		<g>
			<path fill="#415A6B" d="M41.5,41.5c0.4,0.7,0.8,1.3,1.2,2c-12.4,6-24.9,6-37.3,0c0.4-0.7,0.8-1.3,1.1-2
				C18.2,47.3,29.8,47.4,41.5,41.5z"/>
		</g>
		<polygon fill="#415A6B" points="29.5,9.6 31.9,0.5 30,0 27.8,8.2 24,10 20.2,8.2 18,0 16.1,0.5 18.5,9.6 24,12.2 		"/>
		<g>
			<g>
				<circle fill="#415A6B" cx="24" cy="15" r="0.7"/>
			</g>
			<g>
				<circle fill="#415A6B" cx="24" cy="18.7" r="0.7"/>
			</g>
		</g>
	</g>
</g>
</svg>
