<?xml version="1.0" encoding="utf-8"?>
<!-- Generator: Adobe Illustrator 18.0.0, SVG Export Plug-In . SVG Version: 6.00 Build 0)  -->
<!DOCTYPE svg PUBLIC "-//W3C//DTD SVG 1.1//EN" "http://www.w3.org/Graphics/SVG/1.1/DTD/svg11.dtd">
<svg version="1.1" id="Layer_1" xmlns="http://www.w3.org/2000/svg" xmlns:xlink="http://www.w3.org/1999/xlink" x="0px" y="0px"
	 viewBox="0 0 48 48" enable-background="new 0 0 48 48" xml:space="preserve">
<g>
	<path fill="#F2F2F2" d="M32.3,20.1C41,20.1,48,25.8,48,32.8c0,4.7-3.2,8.8-7.9,11c1.4,1.5,3.3,2.6,5.4,3.1c-2.2,0.9-4.6,1.3-7.1,1
		c-2.2-0.3-4.3-1.2-6-2.4c-0.1,0-0.1,0-0.2,0c-8.7,0-15.7-5.7-15.7-12.7S23.6,20.1,32.3,20.1z"/>
	<path fill="#84DBFF" d="M15,32.8c0-7.8,7.7-14.2,17.2-14.2c6.1,0,11.4,2.6,14.5,6.6c0.8-1.9,1.2-3.9,1.2-6C48,8.6,37.3,0,24,0
		C10.7,0,0,8.6,0,19.1c0,6.7,4.4,12.7,11,16.1c-1.7,2.4-4.2,4.3-7.1,5.3c2.9,1,6.2,1.2,9.4,0.4c1.4-0.3,2.6-0.8,3.8-1.4
		C15.8,37.5,15,35.2,15,32.8z"/>
	<g>
		<path fill="#CDD6E0" d="M39.9,27H24.6c-0.6,0-1,0.5-1,1l0,0c0,0.6,0.5,1,1,1h15.4c0.6,0,1-0.5,1-1l0,0C41,27.5,40.5,27,39.9,27z"
			/>
		<path fill="#CDD6E0" d="M41.8,31.2h-19c-0.6,0-1,0.5-1,1l0,0c0,0.6,0.5,1,1,1h19c0.6,0,1-0.5,1-1l0,0
			C42.8,31.7,42.3,31.2,41.8,31.2z"/>
		<path fill="#CDD6E0" d="M39.9,35.4H24.6c-0.6,0-1,0.5-1,1l0,0c0,0.6,0.5,1,1,1h15.4c0.6,0,1-0.5,1-1l0,0
			C41,35.8,40.5,35.4,39.9,35.4z"/>
	</g>
</g>
</svg>
