<?xml version="1.0" encoding="utf-8"?>
<!-- Generator: Adobe Illustrator 18.0.0, SVG Export Plug-In . SVG Version: 6.00 Build 0)  -->
<!DOCTYPE svg PUBLIC "-//W3C//DTD SVG 1.1//EN" "http://www.w3.org/Graphics/SVG/1.1/DTD/svg11.dtd">
<svg version="1.1" id="Layer_1" xmlns="http://www.w3.org/2000/svg" xmlns:xlink="http://www.w3.org/1999/xlink" x="0px" y="0px"
	 viewBox="0 0 512 512" enable-background="new 0 0 512 512" xml:space="preserve">
<g>
	<path fill="#40596B" d="M487.1,2H24.9C13.2,2,3.7,11.5,3.7,23.2v315.1h504.6V23.2C508.3,11.5,498.8,2,487.1,2z"/>
	<path fill="#F2F2F2" d="M3.7,338.3v62.4c0,11.7,9.5,21.2,21.2,21.2h462.3c11.7,0,21.2-9.5,21.2-21.2v-62.4H3.7z"/>
	<circle fill="#CDD6E0" cx="256" cy="380" r="16.5"/>
	<polygon fill="#CDD6E0" points="364.7,478.1 147.2,478.1 168.2,437.5 176.3,421.8 335.8,421.8 343.8,437.5 	"/>
	<rect x="89.6" y="478.1" fill="#F2F2F2" width="332.8" height="31.9"/>
	<rect x="37.3" y="33.7" fill="#FFFFFF" width="437.5" height="272.9"/>
	<polygon fill="#ACB3BA" points="343.8,437.5 168.2,437.5 176.3,421.8 335.8,421.8 	"/>
	<path fill="#4CDBC4" d="M287.5,272.1H152.7c-1.1,0-2-0.9-2-2V131.3h140.8v136.8C291.5,270.3,289.7,272.1,287.5,272.1z"/>
	<path fill="#3DC9AE" d="M150.7,247.3v2.4c0,12.4,10,22.4,22.4,22.4h96c12.4,0,22.4-10,22.4-22.4v-2.4H150.7z"/>
	<circle fill="#40596B" cx="262.5" cy="162.4" r="8"/>
	<circle fill="#40596B" cx="179.7" cy="162.4" r="8"/>
	<path fill="#F2F2F2" d="M262.5,166.2c-2.6,0-4.6-2.1-4.6-4.6v-47.5c0-20.3-16.5-36.8-36.8-36.8s-36.8,16.5-36.8,36.8v47.5
		c0,2.6-2.1,4.6-4.6,4.6c-2.6,0-4.6-2.1-4.6-4.6v-47.5c0-25.4,20.6-46,46-46s46,20.6,46,46v47.5C267.1,164.2,265,166.2,262.5,166.2z
		"/>
	<rect x="260" y="209.9" fill="#F8B64C" width="94.1" height="62.2"/>
	<path fill="#FF7058" d="M333.5,167c-4.1-4-10.5-4.1-14.4-0.3c-2.7,2.6-9.5,12.5-12.1,19.6c-2.6-7.1-9.4-16.9-12.1-19.6
		c-3.9-3.8-10.3-3.6-14.4,0.3c-4.1,4-4.2,10.3-0.4,14.1c3.8,3.7,22.4,15.7,26.8,12.2c4.4,3.5,23-8.5,26.8-12.2
		C337.8,177.2,337.6,170.9,333.5,167z M285.2,176.1c-1.1-1.1-0.9-3,0.4-4.2c0.9-0.9,2-1.1,2.5-1.1c0.5,0,1.2,0.1,1.8,0.7
		c2.1,2.1,6.2,8.2,8.7,13.2C293.6,182.2,287.4,178.2,285.2,176.1z M328.9,176.1c-2.1,2.1-8.4,6.1-13.4,8.6
		c2.6-4.9,6.6-11.1,8.7-13.2c0.6-0.6,1.3-0.7,1.8-0.7c0.5,0,1.6,0.1,2.5,1.1C329.8,173.1,330,175,328.9,176.1z"/>
	<rect x="252.8" y="189.1" fill="#FFD15C" width="108.6" height="20.9"/>
	<rect x="296.1" y="189.1" fill="#FF7058" width="21.9" height="83.1"/>
	<rect x="296.1" y="209.9" fill="#F1543F" width="21.9" height="3.5"/>
	<rect x="296.1" y="189.1" fill="#F1543F" width="21.9" height="3.5"/>
</g>
</svg>
