<?xml version="1.0" encoding="utf-8"?>
<!-- Generator: Adobe Illustrator 18.0.0, SVG Export Plug-In . SVG Version: 6.00 Build 0)  -->
<!DOCTYPE svg PUBLIC "-//W3C//DTD SVG 1.1//EN" "http://www.w3.org/Graphics/SVG/1.1/DTD/svg11.dtd">
<svg version="1.1" id="Layer_1" xmlns="http://www.w3.org/2000/svg" xmlns:xlink="http://www.w3.org/1999/xlink" x="0px" y="0px"
	 viewBox="0 0 48 48" enable-background="new 0 0 48 48" xml:space="preserve">
<g>
	<g>
		<g>
			<g>
				<path fill="#E8EAE9" d="M41.2,32.8L26.5,10.7c-0.2-0.2-0.4-0.4-0.7-0.4c-0.3,0-0.6,0-0.8,0.2l-8.7,7.3L9.1,8.1
					c-0.3-0.4-1-0.5-1.4-0.2c-0.4,0.3-0.5,1-0.2,1.4l7.9,10.5c0.2,0.2,0.4,0.4,0.7,0.4c0.3,0,0.5-0.1,0.8-0.2l8.6-7.2l13.4,20.1
					H41.2z"/>
			</g>
		</g>
		<path fill="#E8EAE9" d="M43.6,10.4c-0.4-0.3-1.1-0.2-1.4,0.2L28.6,29.6l-5.8-5.3c-0.4-0.4-1-0.3-1.4,0L10.6,35.1
			c-0.4,0.4-0.4,1,0,1.4c0.4,0.4,1,0.4,1.4,0l10.2-10.2l6,5.5c0.2,0.2,0.5,0.3,0.8,0.2c0.3,0,0.6-0.2,0.7-0.4l14.3-19.8
			C44.2,11.4,44.1,10.8,43.6,10.4z"/>
		<g>
			<g>
				<path fill="#415A6B" d="M48,46.1c0,1.1-0.9,1.9-1.9,1.9H1.9C0.9,48,0,47.1,0,46.1V1.9C0,0.9,0.9,0,1.9,0s1.9,0.9,1.9,1.9v4h1.4
					v1H3.8v5.7h1.4v1H3.8v5.7h1.4v1H3.8v5.6h1.4v1H3.8v5.7h1.4v1H3.8v5.7h1.4v1H3.8v4h4v-1.4h1v1.4h5.7v-1.4h1v1.4h5.7v-1.4h1v1.4
					h5.7v-1.4h1v1.4h5.6v-1.4h1v1.4h5.7v-1.4h1v1.4h4C47.1,44.2,48,45,48,46.1z"/>
			</g>
		</g>
		<g>
			<g>
				<circle fill="#66C6B9" cx="43" cy="11.3" r="2.9"/>
			</g>
		</g>
		<g>
			<g>
				<circle fill="#415A6B" cx="28.8" cy="30.6" r="2.9"/>
			</g>
		</g>
		<g>
			<g>
				<circle fill="#F3705A" cx="22.1" cy="25.4" r="2.9"/>
			</g>
		</g>
		<g>
			<g>
				<circle fill="#55C0EB" cx="16.1" cy="18.8" r="2.9"/>
			</g>
		</g>
		<g>
			<g>
				<circle fill="#FFD15C" cx="25.3" cy="11.6" r="2.9"/>
			</g>
		</g>
		<g>
			<g>
				<circle fill="#F3705A" cx="40.5" cy="33.5" r="2.9"/>
			</g>
		</g>
	</g>
</g>
</svg>
