<?xml version="1.0" encoding="utf-8"?>
<!-- Generator: Adobe Illustrator 20.1.0, SVG Export Plug-In . SVG Version: 6.00 Build 0)  -->
<!DOCTYPE svg PUBLIC "-//W3C//DTD SVG 1.1//EN" "http://www.w3.org/Graphics/SVG/1.1/DTD/svg11.dtd">
<svg version="1.1" id="Layer_1" xmlns="http://www.w3.org/2000/svg" xmlns:xlink="http://www.w3.org/1999/xlink" x="0px" y="0px"
	 viewBox="0 0 49 49" enable-background="new 0 0 49 49" xml:space="preserve">
<g>
	<path fill="#E2E2E2" d="M21.3,29.1v15.6h6.3V29.1c2.5-1.2,4.2-3.7,4.2-6.7v-9.8c0-0.8-0.7-1.5-1.5-1.5c-0.8,0-1.5,0.7-1.5,1.5v10.2
		c0,0.8-0.7,1.5-1.5,1.5c-0.8,0-1.5-0.7-1.5-1.5V12.6c0-0.8-0.7-1.5-1.5-1.5c-0.8,0-1.5,0.7-1.5,1.5v10.2c0,0.8-0.7,1.5-1.5,1.5l0,0
		c-0.8,0-1.5-0.7-1.5-1.5V12.6c0-0.8-0.7-1.5-1.5-1.5c-0.8,0-1.5,0.7-1.5,1.5v9.8C17.1,25.4,18.8,27.9,21.3,29.1z"/>
	<rect x="21.3" y="36.5" fill="#FFD15C" width="6.3" height="12"/>
	<path fill="#FF7058" d="M43.9,4.9C31.6-1,17.4-1,5.1,4.9c-4.2,2-5.7,6.4-3.8,8.8l0,0c13.8-10,32.5-10,46.3,0l0,0
		C49.6,11.2,48.1,6.9,43.9,4.9z"/>
	<path fill="#F1543F" d="M1.3,13.7L1.3,13.7c1.9,2.5,5.7,2.8,8.7,1.4c9.2-4.4,19.9-4.4,29,0c3,1.4,6.7,1,8.7-1.4l0,0
		C33.9,3.7,15.1,3.7,1.3,13.7z"/>
</g>
</svg>
