<?xml version="1.0" encoding="utf-8"?>
<!-- Generator: Adobe Illustrator 18.0.0, SVG Export Plug-In . SVG Version: 6.00 Build 0)  -->
<!DOCTYPE svg PUBLIC "-//W3C//DTD SVG 1.1//EN" "http://www.w3.org/Graphics/SVG/1.1/DTD/svg11.dtd">
<svg version="1.1" id="Layer_1" xmlns="http://www.w3.org/2000/svg" xmlns:xlink="http://www.w3.org/1999/xlink" x="0px" y="0px"
	 viewBox="0 0 512 512" enable-background="new 0 0 512 512" xml:space="preserve">
<g>
	<path fill="#CDD5DF" d="M94.7,220.3V35.9H430c11.7,0,21.2,9.5,21.2,21.2v163.3H94.7z"/>
	<path fill="#F2F2F2" d="M125.7,2L60.9,66.8v153.5h356.4V23.2c0-11.7-9.5-21.2-21.2-21.2H125.7z"/>
	<path fill="#65C5B8" d="M60.9,66.8h43.6c11.7,0,21.2-9.5,21.2-21.2V2L60.9,66.8z"/>
	<g>
		<rect x="114" y="131.1" fill="#89D6F7" width="250" height="25.8"/>
		<rect x="114" y="185.1" fill="#89D6F7" width="250" height="25.8"/>
		<rect x="114" y="77.1" fill="#89D6F7" width="250" height="25.8"/>
	</g>
	<path fill="#FFD05C" d="M488.8,210.7H252c-18.4,0-33.4-14.9-33.4-33.4v-12.2c0-11.7-9.5-21.2-21.2-21.2H23.2
		C11.5,144,2,153.4,2,165.1v323.7c0,11.7,9.5,21.2,21.2,21.2h465.7c11.7,0,21.2-9.5,21.2-21.2v-257
		C510,220.2,500.5,210.7,488.8,210.7z"/>
</g>
</svg>
