<?xml version="1.0" encoding="utf-8"?>
<!-- Generator: Adobe Illustrator 19.0.1, SVG Export Plug-In . SVG Version: 6.00 Build 0)  -->
<svg version="1.1" id="Layer_1" xmlns="http://www.w3.org/2000/svg" xmlns:xlink="http://www.w3.org/1999/xlink" x="0px" y="0px"
	 viewBox="0 0 48 48" style="enable-background:new 0 0 48 48;" xml:space="preserve">
<style type="text/css">
	.st0{fill:#66C6B9;}
	.st1{fill:#F3F3F3;}
	.st2{fill:#415A6B;}
	.st3{fill:#CED6E0;}
	.st4{fill:#F3705A;}
	.st5{fill:#E8EAE9;}
	.st6{fill:#4ABAA5;}
	.st7{fill:#F05540;}
	.st8{fill:#FFD15C;}
	.st9{fill:#55C0EB;}
	.st10{fill:#8AD7F8;}
	.st11{fill:#344A5E;}
	.st12{fill:#FFFFFF;}
	.st13{fill:#F7B64C;}
	.st14{fill:#ADB3BA;}
	.st15{fill:#38A892;}
	.st16{fill:#ED9845;}
	.st17{fill:#2D4251;}
	.st18{fill:#304556;}
	.st19{fill:#A5AAAD;}
	.st20{fill:#2D4456;}
	.st21{fill:#4FB0E0;}
	.st22{fill:#2D4354;}
	.st23{fill:#E54C38;}
	.st24{fill:#2B4456;}
	.st25{fill:#2B404F;}
</style>
<g>
	<g>
		<g>
			<g>
				<g>
					<g>
						<g>
							
								<ellipse transform="matrix(0.9716 0.2365 -0.2365 0.9716 4.4367 -3.4488)" class="st8" cx="16.6" cy="16.8" rx="0.6" ry="1.4"/>
						</g>
						<g>
							
								<ellipse transform="matrix(-0.9716 0.2365 -0.2365 -0.9716 21.3095 30.9828)" class="st8" cx="8.8" cy="16.8" rx="0.6" ry="1.4"/>
						</g>
					</g>
					<g>
						<path class="st8" d="M16.6,14.7L16.5,16c0,0-0.1,3-0.7,4.2v4.3H9.9l-0.2-4c0,0-0.8-2.5-0.7-4.3c0,0-0.5-2-0.4-3.2
							s2.2-2.7,3.8-2.9C14,9.9,17.2,10,16.6,14.7z"/>
					</g>
					<g>
						<path class="st2" d="M9,16.2c0,0-0.1-1.3,0-1.9c0.1-0.6,0.4-1.9,1-2.4c0.6-0.6,1.7-1.1,3.1-0.7s1.9,0.5,2.5,1.1
							c0.5,0.7,0.1,0.6,0.6,1c0.5,0.4,0.2,2.5,0.2,2.7l0.1,0c0,0,0.3-0.6,0.5-1.9c0.2-1.3,0-3.1-1-4.4s-4.2-2.5-6.1,0.2
							c0,0-1.3-0.4-1.5,1.6s0.3,3.4,0.3,3.9C8.8,15.7,9,16.2,9,16.2z"/>
					</g>
					<path class="st13" d="M12.1,22c-1.8-0.5-2.4-1.5-2.4-1.5c0,0,0,0.1,0,0.1l0.2,3.6c1.3-0.2,2.7-0.5,3.6-1c2-1.1,2.3-2.9,2.3-2.9
						C15.5,20.8,13.9,22.4,12.1,22z"/>
					<g>
						<polygon class="st3" points="14.7,37.3 16.9,24.5 12.8,24.5 7.9,25.1 10.3,37.3 						"/>
					</g>
					<g>
						<path class="st7" d="M14.2,37.3c0-1,0-2,0-2.6c0-1.3,0-4.5-0.1-5.3c-0.1-0.8-0.8-1.8-0.8-2.1c0-0.3,0-0.8,0-0.8l-0.9-0.2
							l-0.1,1c0,0-0.6,1-0.8,2.2c-0.2,1.2-0.2,4.9-0.2,4.9l1.5,3H14.2z"/>
					</g>
					<g>
						<path class="st4" d="M11.4,25.2c0,0,1,1.7,0.9,2.1c0,0,0.6-0.2,1,0c0,0,0.9-1.6,1.5-1.8l0-0.4C14.8,24.7,11.8,23.9,11.4,25.2z
							"/>
					</g>
					<g>
						<g>
							<g>
								<path class="st1" d="M15.8,22.1c0,0-0.1,0.6-0.5,0.9c-0.4,0.3-2.5,1.4-2.5,1.4l2.8,2.6l1.1-3.3
									C16.7,23.8,16.2,22.4,15.8,22.1z"/>
							</g>
						</g>
					</g>
					<g>
						<path class="st2" d="M21.9,37.3C21.9,37.3,21.9,37.3,21.9,37.3l4.9,0c-0.6-1.9-2.2-8.6-2.7-9.9c-0.5-1.3-1.3-1.4-1.3-1.4
							L20,27.2c-1,2.9,1.5,9.6,1.5,9.6S21.6,36.9,21.9,37.3z"/>
					</g>
					<g>
						<path class="st11" d="M5,37.3h7.8c-0.5-1.1-1.2-2.6-1.8-3.7c-1.1-2-2.2-8.6-2.2-8.6l-0.4-1.2c0,0-2.9,1.4-4,1.9
							c-1.2,0.5-2.1,0.9-2.1,0.9s1.5,4.7,2,7.1C4.6,34.9,4.8,36.3,5,37.3z"/>
					</g>
					<g>
						<g>
							<path class="st11" d="M21.9,37.3C21.9,37.3,21.9,37.3,21.9,37.3C20.1,32.7,22.8,26,22.8,26c-2.3-0.5-5.2-2.3-5.2-2.3
								c-0.1,2.5-1.4,8.3-1.4,8.3s-1.4,2.1-2.5,5.4H21.9z"/>
						</g>
						<g>
							<path class="st2" d="M14.3,37.3c0.8-1.7,1.8-3.9,2.4-4.9c0.9-1.5,1.6-4,1.9-5.2c0.3-1.2,0.4-1.6,0.4-1.6l-1.2-0.9l0.6,0
								c0,0-0.6-0.8-0.9-1.1c-0.3-0.2-1-0.6-1.1-0.9c-0.2-0.3-0.2-0.3-0.4-0.4c0,0,0.1,0.9,0.1,1.5c-0.1,0.6-0.2,4.8-0.7,6.9
								c-0.3,1.4-1.2,4.5-1.8,6.3c0,0.1,0,0.2-0.1,0.3H14.3z"/>
						</g>
					</g>
					<g>
						<path class="st2" d="M7.8,28.9c0.5,1.3,3.3,6.3,4.2,8c0.1,0.2,0.2,0.3,0.2,0.4h0.8c-0.1-0.4-0.3-0.7-0.5-1.1
							C12,35,10,28.2,9.9,27c-0.1-1.2-0.2-4.3-0.2-4.3c-0.7,1-2,1.5-2.2,2.4l0.5,0.1l-1.2,0.8C6.7,25.9,7.3,27.6,7.8,28.9z"/>
					</g>
					<g>
						<path class="st2" d="M5,37.3c-0.2-1-0.4-2.4-0.7-3.6c-0.5-2.3-2-7.1-2-7.1s-0.4-0.2-0.8,1c-0.4,1.2-1.3,5.4-1.4,6.8
							c0,0.4-0.1,1.5-0.1,2.8H5z"/>
					</g>
				</g>
			</g>
			<g>
				<path class="st1" d="M9.8,22.4c0,0,2.1,1.8,3,2c0,0-1.7,1.5-2.4,2.6c0,0-0.5-1.5-0.8-1.8c-0.3-0.3-0.3-0.6-0.4-0.8
					C9.2,24.3,9.3,22.9,9.8,22.4z"/>
			</g>
			<g>
				<g>
					<g>
						<path class="st2" d="M14.3,37.3c0.8-1.7,1.8-3.9,2.4-4.9c0.9-1.5,1.6-4,1.9-5.2c0.3-1.2,0.4-1.6,0.4-1.6l-1.2-0.9l0.6,0
							c0,0-0.6-0.8-0.9-1.1c-0.3-0.2-1-0.6-1.1-0.9c-0.2-0.3-0.2-0.3-0.4-0.4c0,0,0.1,0.9,0.1,1.5c-0.1,0.6-0.2,4.8-0.7,6.9
							c-0.3,1.4-1.2,4.5-1.8,6.3c0,0.1,0,0.2-0.1,0.3H14.3z"/>
					</g>
				</g>
				<g>
					<path class="st2" d="M7.8,28.9c0.5,1.3,3.3,6.3,4.2,8c0.1,0.2,0.2,0.3,0.2,0.4h0.8c-0.1-0.4-0.3-0.7-0.5-1.1
						C12,35,10,28.2,9.9,27c-0.1-1.2-0.2-4.3-0.2-4.3c-0.7,1-2,1.5-2.2,2.4l0.5,0.1l-1.2,0.8C6.7,25.9,7.3,27.6,7.8,28.9z"/>
				</g>
				<g>
					<path class="st2" d="M5,37.3c-0.2-1-0.4-2.4-0.7-3.6c-0.5-2.3-2-7.1-2-7.1s-0.4-0.2-0.8,1c-0.4,1.2-1.3,5.4-1.4,6.8
						c0,0.4-0.1,1.5-0.1,2.8H5z"/>
				</g>
			</g>
		</g>
		<g>
			<g>
				<circle class="st8" cx="42" cy="42" r="6"/>
			</g>
			<g>
				<circle class="st13" cx="42" cy="42" r="3.6"/>
			</g>
		</g>
		<g>
			<g>
				<path class="st4" d="M40.3,28.6c-0.4,0-0.7-0.1-1-0.4l-2.9-2.9c-0.5-0.5-0.5-1.4,0-1.9c0.5-0.5,1.4-0.5,1.9,0l2,1.9l5.4-5.4
					c0.5-0.5,1.4-0.5,1.9,0c0.5,0.5,0.5,1.4,0,1.9l-6.4,6.4C41,28.4,40.6,28.6,40.3,28.6z"/>
			</g>
		</g>
		<g>
			<g>
				<g>
					<path class="st2" d="M31.6,25v14.9h1.9c0.6,0,1,0.4,1,1c0,0.5-0.4,1-1,1h-2.9c-0.6,0-1-0.5-1-1V25h-4c-0.6,0-1-0.4-1-1
						c0-0.5,0.4-1,1-1h4V7.1c0-0.5,0.4-1,1-1h2.9c0.6,0,1,0.5,1,1s-0.4,1-1,1h-1.9V23h1.9c0.6,0,1,0.5,1,1c0,0.6-0.4,1-1,1H31.6z"/>
				</g>
			</g>
		</g>
		<g>
			<g>
				<circle class="st0" cx="42" cy="6" r="6"/>
			</g>
			<g>
				<circle class="st6" cx="42" cy="6" r="3.6"/>
			</g>
		</g>
	</g>
</g>
</svg>
