<?xml version="1.0" encoding="utf-8"?>
<!-- Generator: Adobe Illustrator 18.0.0, SVG Export Plug-In . SVG Version: 6.00 Build 0)  -->
<!DOCTYPE svg PUBLIC "-//W3C//DTD SVG 1.1//EN" "http://www.w3.org/Graphics/SVG/1.1/DTD/svg11.dtd">
<svg version="1.1" id="Layer_1" xmlns="http://www.w3.org/2000/svg" xmlns:xlink="http://www.w3.org/1999/xlink" x="0px" y="0px"
	 viewBox="0 0 512 512" enable-background="new 0 0 512 512" xml:space="preserve">
<g>
	<circle fill="#84DBFF" cx="228.3" cy="170.6" r="118.4"/>
	<path fill="#F2F2F2" d="M228.3,244.9c-40.9,0-74.3-33.3-74.3-74.3s33.3-74.3,74.3-74.3s74.3,33.3,74.3,74.3
		S269.2,244.9,228.3,244.9z"/>
	<rect x="222.1" y="2" fill="#FF7058" width="12.3" height="37.7"/>
	
		<rect x="103.5" y="58.6" transform="matrix(-0.7071 -0.7071 0.7071 -0.7071 163.1925 197.0282)" fill="#FF7058" width="37.7" height="12.3"/>
	
		<rect x="315.3" y="58.6" transform="matrix(0.7071 -0.7071 0.7071 0.7071 52.1041 255.2221)" fill="#FF7058" width="37.7" height="12.3"/>
	<path fill="#40596B" d="M413.6,510H192c-1.1,0-2-0.9-2-2v-54.8c0-1.1,0.9-2,2-2h221.6c1.1,0,2,0.9,2,2V508
		C415.6,509.1,414.7,510,413.6,510z"/>
	<circle fill="#FFFFFF" cx="375.6" cy="480.6" r="14.1"/>
	<path fill="#FFD15C" d="M404.7,265.7c0-14.1-11.4-25.5-25.5-25.5c-14.1,0-25.5,11.4-25.5,25.5c0-14.1-11.4-25.5-25.5-25.5h0
		c-14.1,0-25.5,11.4-25.5,25.5c0-14.1-11.4-25.5-25.5-25.5c-14.1,0-25.5,11.4-25.5,25.5v-92.7c0-14.1-11.4-25.5-25.5-25.5
		s-25.5,11.4-25.5,25.5v173.8c-20.1-14.7-44.9-23.4-71.7-23.4h-7.4c-14,0-25.4,11.4-25.4,25.4c0,14,11.4,25.4,25.4,25.4h7.4
		c39.2,0,71.1,31.9,71.1,71.1c0,1,0.3,2.3,0.4,6l204.2-0.2L404.7,265.7z"/>
</g>
</svg>
