<?xml version="1.0" encoding="utf-8"?>
<!-- Generator: Adobe Illustrator 18.0.0, SVG Export Plug-In . SVG Version: 6.00 Build 0)  -->
<!DOCTYPE svg PUBLIC "-//W3C//DTD SVG 1.1//EN" "http://www.w3.org/Graphics/SVG/1.1/DTD/svg11.dtd">
<svg version="1.1" id="Layer_1" xmlns="http://www.w3.org/2000/svg" xmlns:xlink="http://www.w3.org/1999/xlink" x="0px" y="0px"
	 viewBox="0 0 48 48" enable-background="new 0 0 48 48" xml:space="preserve">
<g>
	<path fill="#F05540" d="M41.4,25.2v-9.1c0-1.1-0.9-2-2-2H15.9l-2-3.2c-0.4-0.6-1-1-1.7-1H6c-1.1,0-2,0.9-2,2v13.2H41.4z"/>
	<g>
		<g>
			<path fill="#F7B64C" d="M47.6,2.6C47.6,2.6,47.6,2.6,47.6,2.6c0.4,0.8,0,1.5-0.6,1.9c0.3,1.3,0.5,2.7,0.4,4.1
				c0,0.6-0.1,1.1-0.4,1.6c-0.5,1.1-1.7,1.8-2.9,2.1c-1.2,0.3-2.4,0.2-3.6,0.2c-1.1,0-2.1,0-3.1,0.1c-0.3,0-0.7,0.1-1,0.2
				c-0.3,0.1-0.5,0.4-0.8,0.7c-0.7,0.8-1.2,1.8-1.6,2.8c-0.2,0.6-0.3,1.2-0.6,1.7c-0.4,0.7-1.1,1.2-1.8,1.3l0.1,0
				c-1,0-2-0.4-2.7-1.1c-0.7-0.8-1-1.8-0.8-2.8c0.1-0.5,0.2-0.9,0.4-1.4c0.7-1.8,1.5-3.7,2.4-5.4c-0.2-0.3-0.2-0.7-0.1-1.1
				C32.1,4.3,34,1.5,37.6,1c2.2-0.3,4.7,0,6.9,0.2c1.2,0.1,2.1,0.2,2.8,1c0.1-0.1,0.1-0.3,0.2-0.4c0.1-0.4,0.6-0.2,0.5,0.2
				C47.9,2.2,47.8,2.4,47.6,2.6z"/>
		</g>
		<g>
			<g>
				<circle fill="#E8EAE9" cx="28.2" cy="19.2" r="7.4"/>
			</g>
			<g>
				<circle fill="#CED6E0" cx="28.2" cy="19.2" r="5.6"/>
			</g>
			<g>
				<path fill="#E8EAE9" d="M27.8,23.2v-0.7c-0.8-0.1-1.5-0.5-2.2-1.1l0.9-1.1c0.5,0.4,0.9,0.7,1.3,0.8v-1.4
					c-0.7-0.2-1.2-0.4-1.5-0.7c-0.3-0.3-0.5-0.7-0.5-1.2c0-0.5,0.2-1,0.5-1.3c0.4-0.4,0.8-0.6,1.4-0.6v-0.5h1v0.5
					c0.6,0.1,1.3,0.4,1.9,0.8l-0.8,1.1c-0.4-0.3-0.8-0.5-1.1-0.6v1.4c0.7,0.2,1.2,0.4,1.5,0.7c0.3,0.3,0.5,0.7,0.5,1.3
					s-0.2,1-0.5,1.3c-0.4,0.4-0.9,0.6-1.5,0.6v0.7H27.8z M27.8,17.1c-0.3,0.1-0.4,0.3-0.4,0.5c0,0.3,0.1,0.4,0.4,0.6V17.1z
					 M29.3,20.6c0-0.1,0-0.2-0.1-0.3c-0.1-0.1-0.2-0.2-0.4-0.2v1.2C29.2,21.1,29.3,20.9,29.3,20.6z"/>
			</g>
		</g>
		<path fill="#FFD15C" d="M25.5,15.2c0,0-0.5,3,1.4,4.3c1.9,1.3,3.7-0.1,4.5-1.6c0,0,1.5-3.1,2-5.6c0,0,1.3-3.7,2-5L39.7,0h-9.2
			c0,0-2.2,3.6-2.8,7.3C27.8,7.3,25.5,13.4,25.5,15.2z"/>
		<g>
			<path fill="#F7B64C" d="M39.7,0h-1.2c-0.5,0.8-2,3.3-2.3,4c-0.3,0.8-1.7,5.2-1.7,5.2c0,0.1,0,0.1-0.1,0.2c0.3-0.8,0.6-1.6,0.9-2
				L39.7,0z"/>
		</g>
		<path fill="#F7B64C" d="M29.7,2.4c0,0,0.1,0.1,0.2,0.1c0.1,0,0.1,0.1,0.2,0.1c0.1,0,0.2,0.1,0.3,0.1c0.1,0,0.2,0.1,0.4,0.1
			C30.9,2.9,31,3,31.2,3c0.3,0.1,0.6,0.2,0.9,0.3c0.6,0.2,1.2,0.5,1.6,0.7c0.4,0.2,0.7,0.4,0.7,0.4S34,4.3,33.6,4.2
			c-0.5-0.1-1.1-0.3-1.6-0.6c-0.6-0.2-1.2-0.5-1.6-0.7c-0.1-0.1-0.2-0.1-0.3-0.1c-0.1,0-0.2-0.1-0.2-0.2C29.7,2.5,29.7,2.4,29.7,2.4
			z"/>
		<path fill="#F7B64C" d="M31.8,0.7c0,0,0.2,0,0.5,0.2c0.3,0.1,0.7,0.3,1.1,0.5c0.4,0.2,0.8,0.5,1,0.8c0.1,0.1,0.2,0.3,0.3,0.3
			c0,0.1,0.1,0.2,0.1,0.2s0,0-0.1-0.1c-0.1-0.1-0.2-0.2-0.3-0.2c-0.3-0.2-0.7-0.4-1-0.6c-0.4-0.2-0.8-0.5-1.1-0.6
			C32,0.9,31.8,0.7,31.8,0.7z"/>
		<path fill="#F7B64C" d="M30.6,0.7c0,0,0.1,0,0.3,0c0.2,0,0.4,0,0.7,0c0.2,0,0.5,0.1,0.7,0.1c0.2,0,0.3,0,0.3,0s-0.1,0.1-0.3,0.1
			c-0.2,0-0.4,0-0.7,0c-0.2,0-0.5-0.1-0.7-0.1C30.7,0.7,30.6,0.7,30.6,0.7z"/>
		<path fill="#F7B64C" d="M32.6,1.9C32.6,1.9,32.6,1.9,32.6,1.9c0.1,0.1,0.1,0.2,0.2,0.2c0.1,0,0.2,0.1,0.3,0.1c0.1,0,0.3,0,0.4,0.1
			c0.1,0,0.1,0.1,0.2,0.2c0,0.1,0,0.1,0,0.2c0,0.1,0,0.1,0,0.2c0,0.1,0,0.1,0,0.2c0,0.2-0.1,0.3-0.1,0.3s-0.1-0.1-0.1-0.3
			c0,0,0-0.1,0-0.2c0,0,0-0.1,0-0.2c0-0.1,0-0.1,0-0.2c0,0,0-0.1-0.1-0.1c-0.1-0.1-0.5-0.1-0.6-0.3C32.6,2.2,32.6,2,32.6,1.9
			C32.6,1.9,32.6,1.9,32.6,1.9z"/>
		<path fill="#F3F3F3" d="M30.5,17.5c-0.1-0.8-2.1-1.6-2.1-1.6s-1.8-1-2.1-0.2c-0.1,0.1-0.1,0.3-0.2,0.5c-0.3,0.9-0.2,1.8,0.3,2.5
			c0.2,0.2,0.4,0.4,0.6,0.6c0.4,0.3,0.9,0.5,1.4,0.5c0.2,0,0.4,0,0.5-0.1c0.8-0.2,1.4-0.9,1.5-1.7C30.5,17.8,30.5,17.7,30.5,17.5z"
			/>
		<g>
			<path fill="#FFD15C" d="M36.7,4.1C36.9,3.3,39.1,0,39.1,0H48v1.7l-3.6,5.1c0,0.1-2.2,4.4-2.2,4.4c-0.6,1.3-1.7,2.2-3.1,2.6
				c-0.8,0.2-1.7,0.2-2.7-0.3c-0.9-0.4-1.3-1.1-1.5-1.8c-0.2-0.8-0.2-1.6,0.1-2.3C35,9.3,36.4,4.9,36.7,4.1z"/>
		</g>
		<g>
			<path fill="#FFD15C" d="M48,1.7v13.1c-1.2,0.8-4,0.6-5-1.5c-1-2.1,2.4-7.2,2.4-7.2L48,1.7z"/>
		</g>
		<g>
			<path fill="#F7B64C" d="M38.8,6.1c0,0,0.2,0.2,0.5,0.3c0.3,0.1,0.7,0.2,1.2,0.4c0.4,0.2,0.8,0.3,1.1,0.5c0.3,0.1,0.5,0.3,0.5,0.3
				s-0.2,0-0.6-0.1c-0.3-0.1-0.8-0.2-1.2-0.3c-0.4-0.2-0.9-0.3-1.1-0.5C38.9,6.4,38.8,6.1,38.8,6.1z"/>
			<g>
				<path fill="#F7B64C" d="M38.8,3.7c0,0,0.2,0,0.5,0.1c0.3,0,0.7,0.1,1.1,0.2c0.4,0.1,0.8,0.2,1.1,0.4c0.3,0.2,0.3,0.4,0.3,0.4
					c0,0,0,0-0.1-0.1c-0.1-0.1-0.2-0.1-0.3-0.2c-0.3-0.1-0.7-0.2-1.1-0.3C40,4.1,39.6,4,39.3,3.9C39,3.8,38.8,3.7,38.8,3.7z"/>
			</g>
			<g>
				<g>
					<path fill="#F7B64C" d="M38,4.8c0,0,0.2,0,0.6,0.1c0.4,0.1,0.9,0.2,1.3,0.3c0.5,0.1,1,0.2,1.3,0.3c0.4,0.1,0.6,0.1,0.6,0.1
						s-0.1,0-0.2,0c-0.1,0-0.3,0.1-0.5,0c-0.2,0-0.4,0-0.6-0.1c-0.2,0-0.5-0.1-0.7-0.1C38.9,5.3,38,4.8,38,4.8z"/>
				</g>
				<g>
					<path fill="#F7B64C" d="M40.3,4.9c0,0,0.8,0.2,1.5,0.6c0.3,0.2,0.7,0.5,0.8,0.7c0.2,0.2,0.3,0.4,0.3,0.4s-0.1-0.1-0.4-0.3
						c-0.2-0.2-0.6-0.4-0.9-0.6c-0.3-0.2-0.7-0.4-0.9-0.5C40.5,5,40.3,4.9,40.3,4.9z"/>
				</g>
			</g>
		</g>
		<g>
			<path fill="#F7B64C" d="M48,8.1v0.3c-0.4-0.2-0.7-0.5-1-0.6c-0.4-0.3-0.7-0.5-0.8-0.5c0,0,0.1,0,0.2,0.1c0.2,0.1,0.4,0.1,0.7,0.3
				C47.3,7.7,47.7,7.9,48,8.1z"/>
			<g>
				<path fill="#F7B64C" d="M48,6.3v0.3c-0.1,0-0.3,0-0.4,0c-0.1,0-0.3,0-0.4-0.1c-0.2-0.1-0.3-0.2-0.3-0.2s0.1,0.1,0.4,0.1
					c0.1,0,0.2,0,0.4,0C47.7,6.3,47.9,6.3,48,6.3z"/>
			</g>
		</g>
	</g>
	<path fill="#F3705A" d="M43.5,22.5H2c-1.2,0-2.2,1.1-2,2.3l3.7,21.5c0.2,1,1,1.7,2,1.7h34.1c1,0,1.8-0.7,2-1.7l3.7-21.5
		C45.7,23.6,44.7,22.5,43.5,22.5z"/>
</g>
</svg>
