<?xml version="1.0" encoding="utf-8"?>
<!-- Generator: Adobe Illustrator 18.0.0, SVG Export Plug-In . SVG Version: 6.00 Build 0)  -->
<!DOCTYPE svg PUBLIC "-//W3C//DTD SVG 1.1//EN" "http://www.w3.org/Graphics/SVG/1.1/DTD/svg11.dtd">
<svg version="1.1" id="Layer_1" xmlns="http://www.w3.org/2000/svg" xmlns:xlink="http://www.w3.org/1999/xlink" x="0px" y="0px"
	 viewBox="0 0 48 48" enable-background="new 0 0 48 48" xml:space="preserve">
<g>
	<g>
		<g>
			<g>
				<g>
					<path fill="#344A5E" d="M24.5,43.8c0,0-0.2,0.1-0.1,0.4c0,0-0.1,0.4,1.2,0.6c0,0,1.4,0.3,2.3-0.1l1-1.4l-0.4-1.3l-0.7-0.3
						c0,0-0.5,1.6-1.8,1.6C24.7,43.3,24.6,43.4,24.5,43.8z"/>
				</g>
			</g>
		</g>
		<g>
			<g>
				<g>
					<path fill="#47B29E" d="M27.4,42c0,0,0.2,0,0.4,0.2c0.3,0.1,2.4,1,3.2,0.8c0,0,0.1-0.3,0-0.5c0,0,0.3-0.7-0.3-1.3
						c0,0,1.1-1.4,0.6-3.4c0,0-0.3-3.5-0.8-5.1c0,0-0.1-1.6-0.7-2.3c0,0,0.1-2.4-0.3-3.8c0,0-0.1-0.4,0-0.7s-0.2-0.4-0.2-0.4
						s0.2-0.2,0.1-0.7c0,0,0.2-0.8,0.2-1c0,0,0.6-1.2,0.5-2h-0.1c0,0,0-1.3-0.8-2l-2.8,0.3L24,20.4c0,0,0.4,5.2,0.8,6.2
						c0.3,0.9,1.2,5.5,1.2,5.5s-0.4,1.2,0.9,1.9c0,0,0.2,0.2,0.1,0.6c-0.1,0.4,0.5,0.9,0.5,0.9s0.2,1.9,0.5,2.4l-0.2,2.4
						c0,0-0.1,0.4,0.1,0.7c0.3,0.2,0,0.1,0,0.1c-0.2,0-0.5,0.2-0.1,0.5L27.4,42z"/>
				</g>
			</g>
		</g>
		<g>
			<g>
				<g>
					<path fill="#415A6B" d="M28.2,44.2l-0.3,0.5c-0.8,0.3-2.3,0.1-2.3,0.1c-1.3-0.2-1.2-0.6-1.2-0.6c-0.1-0.2,0.1-0.4,0.1-0.4
						s-0.1,0.3,0.6,0.4C25.7,44.2,26.8,44.5,28.2,44.2z"/>
				</g>
			</g>
		</g>
		<g>
			<g>
				<g>
					<path fill="#344A5E" d="M30.9,46.9l0.3-0.5l0-0.1h0c0,0,0.1-0.6-0.3-1.4L27.8,44c0,0-0.6,1.2-1,1.5c-0.4,0.3-1.7,1-2.2,1
						c-0.5,0-0.7,0.6-0.7,0.7l0,0.3c1.2,0.3,2.3,0.4,3.4,0.1c0,0,2-0.5,2-0.5C29.4,47.1,30.9,46.9,30.9,46.9z"/>
				</g>
			</g>
		</g>
		<g>
			<g>
				<g>
					<path fill="#415A6B" d="M23.9,47.2c0,0-0.1,0.2,0,0.3c0,0,0,0.4,1.1,0.5c0.7,0.1,1.9-0.1,2.7-0.2c0.4-0.1,0.7-0.2,1.1-0.3
						c0.2-0.1,0.4-0.2,0.7-0.1c0.2,0.1,0.4,0.1,0.6,0.1c0.4,0,1.1-0.2,1.2-0.5v-0.3c0,0,0.2-0.1,0-0.4c0,0,0,0.5-1,0.5
						c-1.1,0-1.6,0.6-2.2,0.7C27.4,47.5,24,47.7,23.9,47.2z"/>
				</g>
			</g>
		</g>
		<g>
			<g>
				<g>
					<path fill="#66C6B9" d="M27.5,44.3c0,0,0.2,0,0.4,0.2c0.3,0.2,2.3,1.1,3.1,0.8c0,0,0.1-0.4,0-0.6c0,0,0.3-0.7-0.2-1.4
						c0,0,1.2-1.5,0.8-3.7c0,0,0-3.7-0.5-5.5c0,0,0-1.7-0.6-2.5c0,0,0.2-2.6,0-4.1c0,0,0-0.4,0-0.7c0.1-0.3-0.2-0.5-0.2-0.5
						s0.2-0.2,0.1-0.7c0,0,0.3-0.8,0.3-1.1c0,0,0.7-1.3,0.6-2.2h-0.1c0,0,0-1.4-0.7-2.2l-2.9,0.3l-2.4,0.6c0,0,0.1,5.6,0.4,6.6
						c0.3,1,1.2,5.2,1.2,5.2s-0.5,1.3,0.8,2c0,0,0.2,0.2,0.1,0.6c-0.1,0.5,0.4,1,0.4,1s0.1,2.8,0.3,3.3l-0.7,2.7
						c0,0-0.2,0.5,0.1,0.7c0.3,0.2,0,0.1,0,0.1c-0.2-0.1-0.5,0.2-0.1,0.6L27.5,44.3z"/>
				</g>
			</g>
		</g>
		<g>
			<g>
				<g>
					<path fill="#F05540" d="M26,21.4c0,0,2-0.7,3-0.8c1-0.1,1.5-0.5,1.5-0.5l-0.4-0.8l-2.9,0.7l-1.9,0.6l0.4,0.9L26,21.4z"/>
				</g>
			</g>
		</g>
		<g>
			<g>
				<g>
					<path fill="#F3705A" d="M24.3,20.7c0,0,1.3,0.4,2.1,0.3c0.1,0,0.2,0,0.2,0.1c0.1,0.2,0.2,0.5,0.1,0.8c0,0.1-0.1,0.1-0.2,0.1
						c-0.4,0.1-2,0.2-2.4-0.5L24.3,20.7z"/>
				</g>
			</g>
		</g>
		<g>
			<g>
				<g>
					<path fill="#66C6B9" d="M28.7,19.5c0,0,0.4,0.9,0.3,1.5h0.2c0,0,0-1.1-0.3-1.6L28.7,19.5z"/>
				</g>
			</g>
		</g>
		<g>
			<g>
				<g>
					<path fill="#66C6B9" d="M30.6,19.3c0,0,0.2,0.8,0.1,1.3c-0.1,0.5-0.1,0-0.1,0s-0.1-0.8-0.2-1.1L30.6,19.3z"/>
				</g>
			</g>
		</g>
		<g>
			<g>
				<g>
					<g>
						<g>
							<path fill="#F7B64C" d="M18.5,29.5c0,0,0.8,2.7,0.7,3.3c-0.1,0.6-0.1,5.3,1.3,8.1c0,0,0.2,0.4,0.2,1.1c0,0.7,0.1,0.8,0.1,0.8
								s-0.3,2.1,0.6,2.3c0,0,1.7,0.4,1.6-0.3c-0.2-0.7-0.3-0.9-0.3-0.9l-0.5-1.6c0,0-0.1-0.2-0.1-0.4c0-0.2-0.2-0.5-0.2-0.5
								s-0.3-1.2-0.2-2.3c0.2-1.1-0.2-5.9-0.2-5.9l-0.9-4.5L18.5,29.5z"/>
						</g>
					</g>
				</g>
				<g>
					<g>
						<g>
							<path fill="#344A5E" d="M18.4,42.9l0.6-2.5l-0.5-0.2C18.5,40.3,18.2,42.7,18.4,42.9z"/>
						</g>
					</g>
				</g>
				<g>
					<g>
						<path fill="#415A6B" d="M19.1,39c0,0-0.3,0.1-0.3,0.9c-0.1,0.8-0.2,1.4-0.2,1.4s-0.4,1.3-0.1,1.4c0.3,0.1,1.5,0.4,1.6,0.1
							c0,0,0.1-1.2,0.1-1.6c0,0,0.1,2.1,0,2.3c-0.1,0.2-0.3,0.4-0.3,0.4s-0.1,0.5-0.5,0.4c-0.4-0.1-1.2-0.1-1.2-0.8c0,0-0.3,0,0-0.9
							l0.1-2C18.4,40.6,18,39.3,19.1,39z"/>
					</g>
				</g>
				<g>
					<g>
						<path fill="#415A6B" d="M21,44.4c0,0,0.1,0.7,0.7,0.7c0.7,0,1.3,0.1,1.3-0.2c0-0.3-0.6-2.4-0.6-2.5c0,0,0.3,0.9,0.4,1.2
							c0.1,0.3,0.3,1.3,0.4,1.6c0.1,0.3,0,0.7-0.2,0.6c0,0,0.2,0.5-0.3,0.5c-0.3,0-0.8,0-1.1,0c-0.2,0-0.3-0.1-0.4-0.3l0-0.2
							c0,0-0.2,0-0.2-0.4c0-0.4,0-0.9-0.1-1.3c-0.1-0.4,0-1.4,0-1.4l0.1,0.3C20.9,42.8,20.8,43.6,21,44.4z"/>
					</g>
				</g>
				<g>
					<g>
						<g>
							<path fill="#FFD15C" d="M20.5,29.1c0,0-0.1,2.6,0.1,3c0,0-1.2,1.3-1.2,4.4l-0.2,1.8c0,0,0,0.6-0.2,0.7
								c-0.3,0.1-0.4,0.6-0.4,0.6s-0.1,0.9,0.1,1.2c0.1,0.3-0.4,1.7-0.4,1.7s0,0.7,0.6,1.1c0,0,1.1,0.1,1.1-0.8
								c0.1-0.9,0.1-0.9,0.1-0.9s0-0.6,0-0.9c0-0.3,0.1-0.4,0-0.7c0,0,0.1-0.2,0.3-0.6c0.2-0.5,0.3-1,0.6-1.5
								c0.5-1.3,1.4-3.4,1.6-4.2c0.3-1.2,0.3-1.6,0.3-1.6l0.8-3l-3.2-1L20.5,29.1z"/>
						</g>
					</g>
				</g>
				<g>
					<g>
						<g>
							<g>
								<path fill="#F7B64C" d="M24.3,8c0,0,0,0.9,0,1.5c0,0.3,0.2,0.6,0.4,0.7c0.4,0.2,0.8,0.2,1.3,0.4l-0.3,5.1L19,13.8l0.1-0.9
									c0,0,0.3-2.8,0.9-3.6c0.6-0.8,2,0,2,0l0.4-1.5L24.3,8z"/>
							</g>
						</g>
					</g>
				</g>
				<g>
					<g>
						<g>
							<path fill="#FFD15C" d="M21.1,5c0,0-0.1,3.2,2.1,3.8c0,0,0.8,0.2,1.2-0.4c0.4-0.6,0.5-1.1,0.5-1.1s0.1-1-0.2-1.9l-0.2-0.6
								c0,0-0.4-0.9-1.4-1.2c-1-0.3-1.7,0.2-1.7,0.2L21.1,5z"/>
						</g>
					</g>
				</g>
				<g>
					<g>
						<g>
							<path fill="#344A5E" d="M22.6,4.3c0,0-1,0.3-1.2,1C21.2,6,21.6,7.5,22,7.9c0.5,0.4,1.7,0.8,1.5,1.5c0,0,0.8,0.7,0.8,1.4
								c0,0,0,0.8,1,1.6c0,0,0.6-0.1,0.1,0.6c-0.5,0.7-0.6,0.8-0.3,1c0,0-1.9-1.9-2-2.7c0,0-0.6-0.9-0.5-1.6c0,0,0.1,0.9,0.2,1.2
								c0,0-2-2.3-2.2-2.8c0,0,0,0.1,0.2,0.6c0,0-2.1-2.8-0.8-4.6s3.1-1.1,3.1-1.1s0.6,0.4,1.2,1.9C24.4,4.8,23.7,3.6,22.6,4.3z"/>
						</g>
					</g>
				</g>
				<g>
					<g>
						<path fill="none" stroke="#F3705A" stroke-miterlimit="10" d="M21.1,5"/>
					</g>
				</g>
				<g>
					<g>
						<g>
							<path fill="#F3705A" d="M23.4,11.9l-0.8,0.9c0,0-0.7-0.2-2,0.2c0,0-1,0.2-1.5-0.3l-0.4,3.7c0,0-1.5,1.9-1.7,4.8
								c-0.3,2.8-1.2,7.7-1.2,7.7s0.6-0.1,1.2,0.4c0.1,0.1-0.1,0.3,0,0.4c0.5,0.8,3.8,1.1,3.6,0.4c-0.2-0.7,2.2-0.2,2.2-0.2
								s0.9-0.2,1,0c0,0.1-0.1,0.2-0.1,0.2c0.2,0.3,1.2,0,1.2,0l1.1-0.1l-0.5-4.5L25,20.7c0,0-0.2-3.5,0.1-4.4l0.5-4.9
								c0,0,0.2-0.7,0-1.1c0,0-0.5,0.1-0.6,0c0,0,0.3,0.2,0.2,0.6c-0.1,0.4-0.1,2.1-0.1,2.1l-0.6,0.5L23.4,11.9z"/>
						</g>
					</g>
				</g>
				<g>
					<g>
						<path fill="#F05540" d="M22,21.1c-0.8,1.1-1,2.3-1.1,2.9c0.1-1-0.4-2-0.4-2c0.4,1.7-0.4,8.4-0.4,8.4l0,0
							c0.3-0.1,0.5-0.2,0.5-0.3C20.2,29.1,22,21.1,22,21.1z"/>
					</g>
				</g>
				<g>
					<g>
						<path fill="#F05540" d="M24.3,25l-0.6,4.8c0,0.1-0.1,0.2-0.1,0.2c0,0.1,0.2,0.1,0.3,0.1L24.3,25z"/>
					</g>
				</g>
				<g>
					<g>
						<path fill="#F05540" d="M24.8,30l1.1-0.1l-0.5-4.5l-0.2-2.9l0,0l-0.5,7.5C24.8,30.1,24.8,30,24.8,30z"/>
					</g>
				</g>
				<g>
					<g>
						<g>
							<path fill="#F05540" d="M16.5,28.9c0.2,0.1,0.3,0.2,0.5,0.3c0,0,0.7-4.9,1-6.3C17.7,23.9,16.8,27.6,16.5,28.9z"/>
						</g>
					</g>
					<g>
						<g>
							<path fill="#55C0EB" d="M17.9,22.9c0-0.2,0.1-0.3,0.1-0.3C18,22.7,18,22.7,17.9,22.9z"/>
						</g>
					</g>
				</g>
			</g>
		</g>
		<g>
			<g>
				<g>
					<path fill="#F7B64C" d="M28.3,3.7l0.1,0.9c0,0,0,0.6,0.3,1l0.5,0.5l-2.5,1.8c0,0-0.8-0.7-1.2-1.9L28.3,3.7z"/>
				</g>
			</g>
		</g>
		<g>
			<g>
				<g>
					<path fill="#FFD15C" d="M27.3,1.8l0.5,0.8L28,2.1l0.3,0.3l-0.1,0.5l-0.3,0.7c0,0,0.5,1.4-0.3,2.2c-0.7,0.8-1.6,1.7-2.2,1
						c-0.4-0.5-0.7-0.9-0.7-0.9s-0.6-0.8-0.5-1.4c0,0,0-0.1-0.3-0.4l0-0.3l-0.1-0.2c0,0-0.5-0.6-0.3-1C23.7,2.1,26,0.7,27.3,1.8z"/>
				</g>
			</g>
		</g>
		<g>
			<g>
				<g>
					<path fill="#415A6B" d="M23.7,3.5c0,0-0.3-0.5-0.2-0.9c0,0,1.3,0.4,2.6-1c0,0,0.7-0.1,0.5,0.7c0,0,0.4,0.2,0.6,0.7
						c0.2,0.5,0.2,0.9,0.2,0.9h0.2c0,0-0.1-0.6,0.2-1C28.4,2.5,28.5,3,28.5,3s-0.5,1.1-0.2,1.6h0.1c0,0-0.1-1.2,0.2-1.6
						S28.5,0.2,26.4,0c-2.1-0.2-2.9,1.3-3.1,2.1C23.2,2.9,23.5,3.4,23.7,3.5z"/>
				</g>
			</g>
		</g>
		<g>
			<g>
				<g>
					
						<ellipse transform="matrix(0.9952 9.788430e-002 -9.788430e-002 0.9952 0.4768 -2.749)" fill="#FFD15C" cx="28.3" cy="3.5" rx="0.3" ry="0.8"/>
				</g>
			</g>
		</g>
		<g>
			<g>
				<g>
					<g>
						<path fill="#FFD15C" d="M23.8,19.9c0,0-0.4,0.4-0.5,0.4c-0.1,0-0.6,0.5-0.7,0.6c0,0-0.2,0.3-0.4,0.1c0,0-0.1-0.1,0.1-0.3
							c0.2-0.1,0.3-0.4,0.5-0.5c0,0,0-0.2-0.1-0.1c-0.1,0.1-0.4,0.3-0.4,0.3s-0.1,0.1-0.2,0.2c-0.1,0.1-0.6,0.4-0.9,0.5
							c-0.1,0-0.3-0.2-0.2-0.3c0,0,0.3-0.3,0.4-0.3c0,0,0.4-0.4,0.6-0.5c0.1,0,0.4-0.3,0.1-0.2c-0.3,0.1-0.5,0.2-0.6,0.3
							c0,0-0.4,0.1-0.6,0.2c-0.1,0.1-0.4,0.3-0.6,0.2c-0.2-0.1-0.1-0.3,0.2-0.5c0.2-0.2,0.3-0.2,0.3-0.2s0.7-0.4,0.9-0.4
							c0.2,0,0.3-0.1,0.3-0.1s0.1-0.2-0.1-0.2c-0.2,0-0.4,0-0.4,0s-0.4,0-0.6,0.1c-0.1,0-0.6,0.1-0.6-0.1c0-0.2,0.3-0.3,0.4-0.3
							s0.7-0.2,1.1-0.2c0,0,0.8-0.3,0.9-0.4c0,0,0.1-0.1-0.2-0.2c-0.3-0.1-0.9-0.2-1.1-0.7c0,0-0.1-0.3,0.3-0.1
							c0.4,0.1,0.3,0,0.6,0.2c0.2,0.1,0.5,0.2,0.7,0.2l0.9,0.3L23.8,19.9z"/>
					</g>
				</g>
			</g>
			<g>
				<g>
					<g>
						<path fill="#E8EAE9" d="M25.9,11.1c0,0-0.5-2.1-0.1-3c0,0-0.1-0.5,0.3-0.7l3.1-1.6l0.4,0.2c0,0,1.5,1.5,1.9,2.6
							c0.4,1,0.6,1.6,0.4,2.6c0,0-0.1,0.9-0.2,1.2c-0.1,0.3-0.1,1.5-0.1,1.5l-0.3,1.8c0,0,0.3,0.6-0.4,1c0,0-0.1,0.5-1.4,1.4
							C28,19,28,19,28,19s-0.9,0.4-1.4,0.4c0,0-0.8,0.5-1.8,0.5c-0.2,0-0.3,0.1-0.4,0.2l0,0c0,0-0.9,0.9-1.2-1.2
							c0,0-0.1-1.3,0.9-1.3l0.6,0.1c0,0,0.8-0.9,1.7-1.1c0,0,0.5-0.9,1.1-0.7l0.2-0.2c0,0-0.2,0,0.1-1.3c0.3-1.3,0.2-2.6,0.2-2.6
							L25.9,11.1z"/>
					</g>
				</g>
			</g>
			<g>
				<g>
					<g>
						<path fill="#F3F3F3" d="M29.5,6.1c0,0-0.4-0.7-0.6-0.7c0,0,0-0.1-0.6,0.3C27.9,6,26.4,7.1,26,7.5c0.2,0,0.4,0,0.6,0.1
							c0,0,1.5-1.1,2.3-1.4C29.3,6.2,29.5,6.1,29.5,6.1C29.5,6.1,29.5,6.1,29.5,6.1C29.5,6.1,29.5,6.1,29.5,6.1"/>
					</g>
				</g>
			</g>
			<g>
				<g>
					<g>
						<path fill="#F3F3F3" d="M20.4,20.5c0.1,0,0.2-0.1,0.2-0.2c0-0.1-0.1-0.2-0.2-0.2c-0.1,0-0.2,0.1-0.2,0.1c0,0.1,0,0.1,0.1,0.2
							C20.4,20.5,20.4,20.5,20.4,20.5z"/>
					</g>
				</g>
			</g>
			<g>
				<g>
					<path fill="#F3F3F3" d="M21.3,20.9c0.1-0.1,0-0.2-0.1-0.2c0,0-0.2,0.1-0.3,0.1c0,0.1,0.1,0.2,0.2,0.2
						C21.2,21,21.2,21,21.3,20.9z"/>
				</g>
			</g>
			<g>
				<g>
					<path fill="#F3F3F3" d="M22.4,20.9C22.4,20.9,22.3,20.8,22.4,20.9c-0.1-0.1-0.2,0-0.2,0.1c0,0,0,0,0,0c0,0,0.1,0.1,0.1,0.1
						C22.4,21,22.4,20.9,22.4,20.9z"/>
				</g>
			</g>
			<g>
				<g>
					<path fill="#F3F3F3" d="M20.4,19.2c0.1,0,0.2-0.1,0.1-0.1c0,0,0-0.1,0-0.1c-0.1-0.1-0.2,0-0.3,0c0,0,0,0.1,0,0.1
						C20.3,19.1,20.3,19.2,20.4,19.2z"/>
				</g>
			</g>
			<g>
				<g>
					<g>
						<path fill="#F3F3F3" d="M21.8,17.4c0,0,0.1-0.2,0.2-0.2c0,0-0.1-0.1-0.2-0.1c-0.3-0.1-0.3,0.1-0.3,0.1
							C21.6,17.3,21.7,17.4,21.8,17.4z"/>
					</g>
				</g>
			</g>
		</g>
		<g>
			<g>
				<g>
					<g>
						<g>
							<path fill="#415A6B" d="M30.7,18.2c0.1,0.1,0.3,1.1,0.2,1.2c-0.2,0.5-0.9,0.6-1.9,0.5c-0.8-0.1-2.7,0.8-3.5,1.3
								c-0.2,0.1-0.3,0.3-0.2,0.5c0,0,0.2,0.3,0.2,0.4c0,0.1-0.2,0.3-0.3,0.3c-0.8-0.3-0.3-1.7-0.2-2.5c0.9-0.1,1.6-0.5,1.6-0.5
								c0.5,0,1.4-0.4,1.4-0.4s0,0,1.3-0.9c1.3-0.9,1.4-1.4,1.4-1.4c0.2-0.1,0.3-0.2,0.4-0.4C31,17.1,30.6,18.1,30.7,18.2z"/>
						</g>
					</g>
				</g>
				<g>
					<g>
						<path fill="#415A6B" d="M31.4,15.3c0,0-0.1,0.3-0.2,0.8c0-0.2,0-0.4,0-0.4l0.3-1.8c0,0,0-1.2,0.1-1.5c0.1-0.3,0.2-1.2,0.2-1.2
							c0.2-1,0-1.5-0.4-2.6c-0.1-0.3-0.4-0.7-0.6-1c0,0,0,0,0,0c-0.1-0.1-1.5-1-2.8,0.5c-1.3,1.5,0,3.6,0,3.6s0.1,1.2-0.2,2.6
							c-0.3,1.3-0.1,1.3-0.1,1.3l-0.2,0.2c-0.6-0.2-1.1,0.7-1.1,0.7c-0.7,0.2-1.3,0.7-1.6,0.9l0-0.3l0.3-5l0.5-2.3l0.1,0.6
							c0,0,0.7-1.7,1.2-2.6c0.4-0.9,1.4-1.4,1.9-1.7c0.5-0.3,1,0,1,0c0.1,0.2,0.8,0.9,0.8,0.9c0.9,0.7,1,1.9,1.5,3.3
							C32.6,11.8,31.4,15.3,31.4,15.3z"/>
					</g>
				</g>
			</g>
			<g>
				<g>
					<g>
						<g>
							<path fill="#55C0EB" d="M31.2,16.1c0,0.1,0,0.2-0.1,0.2C31.2,16.3,31.2,16.2,31.2,16.1z"/>
						</g>
					</g>
				</g>
			</g>
		</g>
		<g>
			<g>
				<g>
					<g>
						<path fill="#FFD15C" d="M23.8,19.9c0,0-0.4,0.4-0.5,0.4c-0.1,0-0.6,0.5-0.7,0.6c0,0-0.2,0.3-0.4,0.1c0,0-0.1-0.1,0.1-0.3
							c0.2-0.1,0.3-0.4,0.5-0.5c0,0,0-0.2-0.1-0.1c-0.1,0.1-0.4,0.3-0.4,0.3s-0.1,0.1-0.2,0.2c-0.1,0.1-0.6,0.4-0.9,0.5
							c-0.1,0-0.3-0.2-0.2-0.3c0,0,0.3-0.3,0.4-0.3c0,0,0.4-0.4,0.6-0.5c0.1,0,0.4-0.3,0.1-0.2c-0.3,0.1-0.5,0.2-0.6,0.3
							c0,0-0.4,0.1-0.6,0.2c-0.1,0.1-0.4,0.3-0.6,0.2c-0.2-0.1-0.1-0.3,0.2-0.5c0.2-0.2,0.3-0.2,0.3-0.2s0.7-0.4,0.9-0.4
							c0.2,0,0.3-0.1,0.3-0.1s0.1-0.2-0.1-0.2c-0.2,0-0.4,0-0.4,0s-0.4,0-0.6,0.1c-0.1,0-0.6,0.1-0.6-0.1c0-0.2,0.3-0.3,0.4-0.3
							s0.7-0.2,1.1-0.2c0,0,0.8-0.3,0.9-0.4c0,0,0.1-0.1-0.2-0.2c-0.3-0.1-0.9-0.2-1.1-0.7c0,0-0.1-0.3,0.3-0.1
							c0.4,0.1,0.3,0,0.6,0.2c0.2,0.1,0.5,0.2,0.7,0.2l0.9,0.3L23.8,19.9z"/>
					</g>
				</g>
			</g>
			<g>
				<g>
					<g>
						<path fill="#E8EAE9" d="M26.7,16.2c-0.2,0.2-0.3,0.4-0.3,0.4c-0.9,0.2-1.7,1.1-1.7,1.1l-0.6-0.1c-1,0.1-0.9,1.3-0.9,1.3
							c0.3,2,1.2,1.2,1.2,1.2c0.1-0.1,0.3-0.2,0.4-0.2c1-0.1,1.8-0.5,1.8-0.5c0,0,0.1,0,0.1,0V16.2z"/>
					</g>
				</g>
			</g>
			<g>
				<g>
					<g>
						<path fill="#F3F3F3" d="M20.4,20.5c0.1,0,0.2-0.1,0.2-0.2c0-0.1-0.1-0.2-0.2-0.2c-0.1,0-0.2,0.1-0.2,0.1c0,0.1,0,0.1,0.1,0.2
							C20.4,20.5,20.4,20.5,20.4,20.5z"/>
					</g>
				</g>
			</g>
			<g>
				<g>
					<path fill="#F3F3F3" d="M21.3,20.9c0.1-0.1,0-0.2-0.1-0.2c0,0-0.2,0.1-0.3,0.1c0,0.1,0.1,0.2,0.2,0.2
						C21.2,21,21.2,21,21.3,20.9z"/>
				</g>
			</g>
			<g>
				<g>
					<path fill="#F3F3F3" d="M22.4,20.9C22.4,20.9,22.3,20.8,22.4,20.9c-0.1-0.1-0.2,0-0.2,0.1c0,0,0,0,0,0c0,0,0.1,0.1,0.1,0.1
						C22.4,21,22.4,20.9,22.4,20.9z"/>
				</g>
			</g>
			<g>
				<g>
					<path fill="#F3F3F3" d="M20.4,19.2c0.1,0,0.2-0.1,0.1-0.1c0,0,0-0.1,0-0.1c-0.1-0.1-0.2,0-0.3,0c0,0,0,0.1,0,0.1
						C20.3,19.1,20.3,19.2,20.4,19.2z"/>
				</g>
			</g>
			<g>
				<g>
					<g>
						<path fill="#F3F3F3" d="M21.8,17.4c0,0,0.1-0.2,0.2-0.2c0,0-0.1-0.1-0.2-0.1c-0.3-0.1-0.3,0.1-0.3,0.1
							C21.6,17.3,21.7,17.4,21.8,17.4z"/>
					</g>
				</g>
			</g>
		</g>
		<g>
			<g>
				<g>
					<path fill="#FFD15C" d="M30.3,7.1C30.1,7.2,29.9,7,29.9,7l-0.1,0.1c-0.1,0.1-0.4,0-0.4,0c0,0.1-0.3,0-0.3,0
						c-0.4,0.1-1.1,1-1.1,1c-0.1,0.3-0.5,0.7-0.5,0.7c-0.3,0.2-0.2,1.7-0.2,1.7c0,1.7-0.8,4.1-0.8,4.1c0,1.5-2.1,0.1-2.1,0.1
						c-0.7-0.1-2.8-1.7-3.6-2.4c-0.3-0.2-0.6-0.5-0.9-0.7l-0.4-0.3c0.1-0.8,0.4-1.6,0.7-2C20.3,9,20.8,8.9,21.2,9l0,0
						c0,0,1.4,1.1,1.6,1.7c0.2,0.6,2,2.1,2,2.1S26,10.2,26,9.7c0-0.3,0.2-0.8,0.3-1.1c0.1-0.2,0.2-0.4,0.3-0.5l1.3-1.2
						c0,0,0.1-0.1,0.1-0.1l0.7-0.3c0.2-0.1,0.4-0.1,0.5,0c0.2,0.1,0.4,0.2,0.6,0.3C30.1,6.8,30.3,7.1,30.3,7.1z"/>
				</g>
			</g>
		</g>
		<g>
			<g>
				<g>
					<path fill="#344A5E" d="M19.7,5.9c0,0.7,0.1,1.4,0.5,2.1c0.2,0.3,0.4,0.6,0.5,1c0.1,0.3,0,0.8-0.3,0.9c0.3-0.1,0.6-0.5,0.5-0.8
						c0.1,0.4,0.1,0.8,0.1,1.2c0,0.4,0.1,0.8,0.4,1.1c-0.1-0.7-0.1-1.4,0.1-2c0,0.2,0.1,0.4,0.2,0.6c0.2,0.2,0.3,0.3,0.5,0.5
						c0.1,0.2,0.2,0.4,0.2,0.6c0.1-0.5-0.1-1.1-0.4-1.6c-0.6-1.3-1.2-2.6-1.7-3.9L19.7,5.9z"/>
				</g>
			</g>
		</g>
	</g>
</g>
</svg>
