<?xml version="1.0" encoding="utf-8"?>
<!-- Generator: Adobe Illustrator 18.0.0, SVG Export Plug-In . SVG Version: 6.00 Build 0)  -->
<!DOCTYPE svg PUBLIC "-//W3C//DTD SVG 1.1//EN" "http://www.w3.org/Graphics/SVG/1.1/DTD/svg11.dtd">
<svg version="1.1" id="Layer_1" xmlns="http://www.w3.org/2000/svg" xmlns:xlink="http://www.w3.org/1999/xlink" x="0px" y="0px"
	 viewBox="0 0 48 48" enable-background="new 0 0 48 48" xml:space="preserve">
<g>
	<g>
		<path fill="#F3F3F3" d="M39.1,0H8.9C7.1,0,5.6,1.5,5.6,3.2v41.5c0,1.8,1.5,3.2,3.2,3.2h30.2c1.8,0,3.2-1.5,3.2-3.2V3.2
			C42.4,1.5,40.9,0,39.1,0z"/>
		<rect x="10" y="4.3" fill="#8AD7F8" width="28" height="22.2"/>
		<g>
			<g>
				<path fill="#415A6B" d="M22,36.6c0,0.9-0.8,1.7-1.7,1.7h-2.6V41c0,0.9-0.8,1.7-1.7,1.7c-0.9,0-1.7-0.8-1.7-1.7v-2.6h-2.6
					c-1,0-1.7-0.8-1.7-1.7c0-1,0.8-1.7,1.7-1.7h2.6v-2.6c0-1,0.8-1.7,1.7-1.7c1,0,1.7,0.8,1.7,1.7v2.6h2.6
					C21.3,34.9,22,35.7,22,36.6z"/>
			</g>
			<g>
				<g>
					<g>
						<circle fill="#FFD15C" cx="31.6" cy="32.6" r="2.4"/>
					</g>
					<g>
						<circle fill="#F3705A" cx="31.6" cy="40.7" r="2.4"/>
					</g>
				</g>
				<g>
					<g>
						<circle fill="#8AD7F8" cx="35.6" cy="36.6" r="2.4"/>
					</g>
					<g>
						<circle fill="#4EC0AA" cx="27.6" cy="36.6" r="2.4"/>
					</g>
				</g>
			</g>
		</g>
	</g>
</g>
</svg>
