<?xml version="1.0" encoding="utf-8"?>
<!-- Generator: Adobe Illustrator 18.0.0, SVG Export Plug-In . SVG Version: 6.00 Build 0)  -->
<!DOCTYPE svg PUBLIC "-//W3C//DTD SVG 1.1//EN" "http://www.w3.org/Graphics/SVG/1.1/DTD/svg11.dtd">
<svg version="1.1" id="Layer_1" xmlns="http://www.w3.org/2000/svg" xmlns:xlink="http://www.w3.org/1999/xlink" x="0px" y="0px"
	 viewBox="0 0 512 512" enable-background="new 0 0 512 512" xml:space="preserve">
<g>
	<rect x="214.7" y="118.3" fill="#F2F2F2" width="82.6" height="119.9"/>
	<circle fill="#F2F2F2" cx="256" cy="349.6" r="160.4"/>
	<rect x="197.3" y="81.3" fill="#CDD5DF" width="117.5" height="37"/>
	<circle fill="#89D6F7" cx="278" cy="52.2" r="22.2"/>
	<circle fill="#89D6F7" cx="304.3" cy="19.7" r="13"/>
	<circle fill="#89D6F7" cx="217.5" cy="43.8" r="11.3"/>
	<circle fill="#89D6F7" cx="240.4" cy="17.2" r="15.2"/>
	<g>
		<circle fill="#89D6F7" cx="213.4" cy="265.9" r="26.1"/>
		<circle fill="#FFFFFF" cx="203.7" cy="258.1" r="6.7"/>
	</g>
	<g>
		<circle fill="#89D6F7" cx="251.7" cy="223.5" r="13.3"/>
		<circle fill="#FFFFFF" cx="246.8" cy="219.7" r="3.5"/>
	</g>
	<path fill="#89D6F7" d="M413.4,318.4c-26.9,24.6-77.2,53.8-148.2,23.4c-101.4-43.4-155.1-21.1-168.2-14c-1,7.1-1.5,14.4-1.5,21.7
		C95.6,438.2,167.4,510,256,510c88.6,0,160.4-71.8,160.4-160.4C416.4,338.9,415.4,328.5,413.4,318.4z"/>
</g>
</svg>
