<?xml version="1.0" encoding="utf-8"?>
<!-- Generator: Adobe Illustrator 18.0.0, SVG Export Plug-In . SVG Version: 6.00 Build 0)  -->
<!DOCTYPE svg PUBLIC "-//W3C//DTD SVG 1.1//EN" "http://www.w3.org/Graphics/SVG/1.1/DTD/svg11.dtd">
<svg version="1.1" id="Layer_1" xmlns="http://www.w3.org/2000/svg" xmlns:xlink="http://www.w3.org/1999/xlink" x="0px" y="0px"
	 viewBox="0 0 48 48" enable-background="new 0 0 48 48" xml:space="preserve">
<g>
	<g>
		<g>
			<path fill="#E8EAE9" d="M41.3,16.9V3c0-1.7-1.3-3-3-3H9.7c-1.7,0-3,1.3-3,3v13.9H41.3z"/>
		</g>
		<g>
			<path fill="#F3F3F3" d="M4.4,34V9.1c0-1.9,1.5-3.4,3.4-3.4h25.3l10.5,10.5V34H4.4z"/>
			<rect x="9.8" y="13" fill="#CED6E0" width="16.5" height="2.6"/>
			<rect x="9.8" y="20.5" fill="#CED6E0" width="28.3" height="2.6"/>
			<polygon fill="#8AD7F8" points="33.1,5.7 33.1,16.2 43.6,16.2 			"/>
		</g>
		<g>
			<path fill="#F7B64C" d="M45,25.4H3c-1.7,0-3,1.3-3,3V45c0,1.7,1.3,3,3,3h42c1.7,0,3-1.3,3-3V28.4C48,26.7,46.7,25.4,45,25.4z"/>
		</g>
		<path fill="#415A6B" d="M29.6,34.5H18.4c-1.2,0-2.2,1-2.2,2.2c0,1.2,1,2.2,2.2,2.2h11.2c1.2,0,2.2-1,2.2-2.2
			C31.8,35.5,30.8,34.5,29.6,34.5z"/>
	</g>
</g>
</svg>
