<?xml version="1.0" encoding="utf-8"?>
<!-- Generator: Adobe Illustrator 18.0.0, SVG Export Plug-In . SVG Version: 6.00 Build 0)  -->
<!DOCTYPE svg PUBLIC "-//W3C//DTD SVG 1.1//EN" "http://www.w3.org/Graphics/SVG/1.1/DTD/svg11.dtd">
<svg version="1.1" id="Layer_1" xmlns="http://www.w3.org/2000/svg" xmlns:xlink="http://www.w3.org/1999/xlink" x="0px" y="0px"
	 viewBox="0 0 48 48" enable-background="new 0 0 48 48" xml:space="preserve">
<g>
	<g>
		<g>
			<g>
				<g>
					<g>
						<path fill="#F5B54C" d="M21.1,15.1c-0.2,0.6-0.7,0.9-1.1,0.8c-0.2-0.1-0.3-0.2-0.4-0.4c-0.2-0.1-0.3-0.2-0.3-0.4
							c0-0.1,0.1-0.3,0.2-0.3c0-0.1,0-0.1,0-0.2c0.1-0.2,0.2-0.4,0.3-0.5c0,0,0,0,0,0c0-0.2,0.1-0.3,0.3-0.3c0.1,0,0.1,0,0.2,0.1
							c0.1,0,0.2,0,0.3,0C21,14,21.2,14.5,21.1,15.1z"/>
					</g>
				</g>
			</g>
			<g>
				<g>
					<g>
						<g>
							<path fill="#425A6B" d="M27.1,47.8l0.1,0.1c0,0,0.2-0.2,0.3-0.6c0.1-0.4-0.7-0.5-0.7-0.5L27.1,47.8z"/>
						</g>
					</g>
				</g>
				<g>
					<g>
						<g>
							<g>
								<path fill="#425A6B" d="M27.3,47.6l-1.3-1.3l-1,0.1c0,0-0.6,0.5-0.3,1c0,0,0.1,0.2,0.8,0.3c0.7,0.1,1.4,0.3,1.4,0.3
									S27.3,48.1,27.3,47.6z"/>
							</g>
						</g>
					</g>
					<g>
						<g>
							<g>
								<path fill="#344A5E" d="M24.9,47.5c0.1,0.1,0.3,0.2,0.7,0.2c0.7,0.1,1.4,0.3,1.4,0.3s0.1,0,0.1,0c-0.1-0.2-0.2-0.4-0.5-0.5
									C25.9,47.2,25.2,47.3,24.9,47.5z"/>
							</g>
						</g>
					</g>
				</g>
				<g>
					<g>
						<g>
							<path fill="#344A5E" d="M24.7,47.4c0,0,0,0,0.1,0.1h0l0.5,0.1l0.2-0.2c0,0-0.1,0-0.5-0.1c-0.3-0.1-0.2-0.6-0.2-0.6h0
								C24.7,46.8,24.6,47.1,24.7,47.4z"/>
						</g>
					</g>
				</g>
			</g>
			<g>
				<g>
					<g>
						<path fill="#344A5E" d="M26,46.5C26,46.5,26,46.5,26,46.5c-0.2,0-0.4,0-0.6,0c-0.1,0-0.1,0-0.2,0c-0.1,0-0.2-0.1-0.2-0.1
							c-0.1-0.1-0.3-0.2-0.4-0.3c-0.1-0.1-0.1-0.2-0.2-0.3c0-0.1-0.1-0.1-0.1-0.2c0-0.1,0-0.2,0-0.3c0-0.1,0-0.1,0-0.2
							c0-0.1,0-0.1,0.1-0.2c0-0.1,0.1-0.3,0.1-0.4c0,0,0,0,0,0c0,0,0.1,0,0.1,0c0.3,0.1,0.5,0.3,0.8,0.4c0.2,0.1,0.4,0.2,0.6,0.4
							c0,0.1,0.1,0.1,0.1,0.2c0,0.1,0.1,0.2,0.1,0.3c0,0.1,0,0.2,0,0.2"/>
					</g>
				</g>
			</g>
			<g>
				<g>
					<g>
						<path fill="#FFD15C" d="M25.7,24.6c0,0-0.3,4.5-0.1,5c0.2,0.5,0.1,2.8,0.1,3.3s0,2.4-0.2,4c-0.1,1.6,0,3.1,0.3,3.8
							c0.3,0.7,0.5,2.8,0.5,2.8l0,3.1L25.3,46c0,0-0.3,0.1-0.4-0.1c0,0-0.3,0.1-0.3-0.2c0,0-0.2-0.3-0.1-0.8c0,0-0.1-0.4-0.1-0.9
							c0-0.5,0.1-1,0-1.3c-0.1-0.3-0.3-0.4-0.1-1c0.1-0.5,0-1.4,0-1.8c-0.1-0.4-1-3.7-1-3.7s-0.6-1-0.3-3.4c0,0,0.2-0.5,0.1-1.2
							c-0.2-0.7-0.1-1.4-0.2-1.9c-0.2-0.5-1.4-4.9-1.4-4.9L25.7,24.6z"/>
					</g>
				</g>
			</g>
			<g>
				<g>
					<g>
						<g>
							<path fill="#344A5E" d="M24.5,45.3l-0.2-0.1c0,0,0.5-0.7,1.8-0.4l0,0.2C24.9,44.8,24.5,45.3,24.5,45.3z"/>
						</g>
					</g>
				</g>
			</g>
			<g>
				<g>
					<path fill="#F5B54C" d="M25.6,29.4c0,0.1,0,0.2,0,0.3c0.2,0.5,0.1,2.8,0.1,3.3c-0.1,0.4,0,1.6-0.1,2.8c0-0.7-0.1-1.5-0.1-2
						c0-0.3,0-0.6,0-0.8c0-0.3-0.1-0.5-0.1-0.8c-0.1-0.4-0.3-0.9,0-1.7C25.5,30.3,25.5,29.9,25.6,29.4z"/>
				</g>
			</g>
			<g>
				<g>
					<path fill="#F5B54C" d="M24.9,46C24.9,46,24.9,46,24.9,46c0.1-0.2,0.3-0.9,0.4-1.2c0-0.4,0.2-1.3,0.4-1.9
						c0-0.1,0.1-0.2,0.1-0.3c0.1-0.2,0.1-0.7,0.1-1.4c0.2,0.9,0.4,2.4,0.4,2.4l0,3.1L25.3,46C25.3,46,25,46.2,24.9,46z"/>
				</g>
			</g>
			<g>
				<g>
					<g>
						<path fill="#FFD15C" d="M25.9,24.3c0,0,0.1,4.9-0.3,6.1c-0.4,1.2,0.1,1.5,0.1,2.4c0,0.9,0.1,3.7,0.3,5.3
							c0.3,1.6,0.2,3.6,0,4.2c-0.1,0.6-0.5,1.9-0.5,2.3c0,0-0.3,1-0.5,1.3c-0.1,0.2-0.2,0.6-0.1,0.9c0,0,0.3,0.5,1,0.3
							c0,0,0.2,0.3,0.6,0.1c0,0,0,0.3,0.4,0.2c0,0,0,0.5,0.4,0.2c0,0,0.3-0.1,0.3-1c0,0,0-1,0-1.7c0-0.6-0.2-0.7,0.1-1.4
							c0.3-0.7,0-1,0-1s0.2-2.3,0.6-4.1c0.4-1.8,0.4-3.9,0.3-5.2c-0.1-1.3-0.1-3,0.3-4.3c0.4-1.3,1.3-4.5,1.3-4.5
							S26.2,23.9,25.9,24.3z"/>
					</g>
				</g>
			</g>
			<g>
				<g>
					<g>
						<g>
							<g>
								<path fill="#425A6B" d="M24.9,46.6c0.5-0.3,1.8,0,2.2,0.2c0.3,0.2,0.4,0.6,0.4,0.6c0.1-0.1,0.1-0.2,0.1-0.3
									c-0.1-0.1-0.2-0.3-0.4-0.4c-0.3-0.2-1.7-0.5-2.3-0.2C24.9,46.5,24.9,46.6,24.9,46.6z"/>
							</g>
						</g>
					</g>
					<g>
						<g>
							<path fill="#344A5E" d="M24.9,46.5"/>
						</g>
					</g>
				</g>
			</g>
			<g>
				<g>
					<g>
						<g>
							<path fill="#344A5E" d="M24.4,43c0.8-0.2,1.5-1,1.7-1.4c0-0.1,0-0.2,0-0.2c-0.1,0.2-0.8,1.2-1.7,1.4
								C24.3,42.9,24.4,43,24.4,43z"/>
						</g>
					</g>
				</g>
			</g>
			<g>
				<g>
					<g>
						<g>
							<g>
								<g>
									<path fill="#425A6B" d="M25.7,43.9c0.2,0.1,0.5,0.1,0.8,0.1c0.1,0,0.2,0,0.4,0c0,0,0.5,0,0.8,0c0,0,0.1-0.2,0-0.2
										c-0.1,0-1.4,0.1-1.9-0.1C25.7,43.7,25.6,43.9,25.7,43.9z"/>
								</g>
							</g>
						</g>
						<g>
							<g>
								<path fill="#425A6B" d="M27.6,44"/>
							</g>
						</g>
					</g>
					<g>
						<g>
							<path fill="#425A6B" d="M27.6,44"/>
						</g>
					</g>
				</g>
			</g>
			<g>
				<g>
					<g>
						<g>
							<path fill="#425A6B" d="M27.5,2.5c0,0-2,4.5,0.3,6.1c2.3,1.5,1.6-0.5,1.1-1c-0.5-0.5-1.1-2.3-1-3.7C28,2.4,27.5,2.5,27.5,2.5
								z"/>
						</g>
					</g>
				</g>
				<g>
					<g>
						<g>
							<path fill="#425A6B" d="M23,4.3c0,0,0,3.6-0.6,4.5c-0.6,1,0.8,1.3,1.3,1.2c0.5-0.1,2.7-0.3,2.7-1.2s-0.8-4.1-0.9-4.2
								c-0.1-0.1-1.2-3.5-1.2-3.5L23,4.3z"/>
						</g>
					</g>
				</g>
				<g>
					<g>
						<g>
							<path fill="#FFD15C" d="M26.3,0.9c0,0,1.9,1.6,1,4.5c0,0,0,1.3,0.4,1.8c0.3,0.5,1.3,0.7,1.7,0.7c0.5,0,1.9-0.2,2.3,0.7
								c0.4,0.9,0.2,5.7,0.2,5.7s0,0.7,0.3,1.3c0.3,0.7,0.4,3.3,0.4,3.3l0.1,3.6c0,0,0,0.8,0.2,1.4c0.2,0.6,0.5,1.2,0.5,1.4
								c0,0.2-0.2,0.7-0.2,1c0,0.1-0.1,0.3-0.3,0.3L32.2,27c0,0-0.1-0.3,0.1-0.4c0,0,0.4-0.2,0.4-0.4c0-0.3,0.1-0.9,0-1.3
								c0,0-0.1,0.3,0,0.5c0.1,0.2,0,1-0.2,0.9c-0.3-0.1-0.3-0.3-0.3-0.6c0-0.3,0-0.5-0.2-1c-0.3-0.5-0.2-1.9-0.2-1.9s0-0.6-0.2-1.1
								c-0.1-0.5-1.2-4.2-1.2-4.6c0-0.4-0.1-2.3-0.1-2.3l-0.2-3.2l-7.5,0.8c0,0-0.3,2.8-0.5,3.8c0,0,0,1.4-1.2,1.4l-0.5-1.7l0.4-2
								c0,0-0.2-2.1-0.1-2.9c0.1-0.8,0-1.6,1-2.2c0,0,0.9,0.1,2-0.7c0,0,1.1-0.4,1-1.2C24.7,6.2,24.7,6,24.7,6s-1.6-1.3-1.1-3.8
								C24-0.4,26.3,0.9,26.3,0.9z"/>
						</g>
					</g>
				</g>
				<g>
					<g>
						<g>
							<path fill="#F5B54C" d="M20.6,14.1C20.6,14.1,20.6,14.1,20.6,14.1c0,0.1,0,0.1,0,0.1c0,0,0,0,0,0.1l0,0l0,0c0,0,0,0,0,0
								c0,0,0,0,0,0c0,0,0,0,0,0c0,0,0,0,0,0c0,0,0,0,0,0l0,0c0,0,0,0,0,0l0,0l0,0c0,0,0,0,0,0c0,0,0.1,0,0.1,0l0,0l0,0
								c0,0,0,0.1,0.1,0.1c0,0,0,0.1,0.1,0.1c0,0,0-0.1-0.1-0.1c0,0,0-0.1-0.1-0.1l0,0c0,0-0.1,0-0.1,0c0,0,0,0,0,0c0,0,0,0,0,0l0,0
								c0,0,0,0,0,0l0,0c0,0,0,0,0,0c0,0,0,0,0,0c0,0,0,0,0,0c0,0,0,0,0-0.1c0,0,0,0,0-0.1l0,0l0,0c0,0,0,0,0-0.1
								C20.6,14.2,20.6,14.2,20.6,14.1C20.6,14.1,20.6,14.1,20.6,14.1z"/>
						</g>
					</g>
				</g>
				<g>
					<g>
						<g>
							<g>
								<path fill="#425A6B" d="M28.8,3.6c-0.1,0.5,0,1.1,0.3,1.5c0.1,0.2,0.2,0.3,0.3,0.5c0.2,0.4,0.2,0.9,0,1.3
									c-0.1,0.1-0.1,0.2-0.2,0.3c-0.2,0.3-0.2,0.7-0.1,1c0.1,0.3,0.2,0.7,0.4,1c-0.3-0.1-0.5-0.4-0.5-0.6
									c-0.1-0.3-0.1-0.6-0.1-0.9c0-0.3,0-0.7,0-1c0-0.2,0-0.3,0-0.5c-0.1-0.2-0.2-0.4-0.3-0.5c-0.2-0.2-0.4-0.5-0.5-0.7
									c-0.2-0.3-0.3-0.6-0.3-0.9L28.8,3.6z"/>
							</g>
						</g>
					</g>
					<g>
						<g>
							<g>
								<path fill="#425A6B" d="M26.4,1.2c-0.2-0.1-0.3-0.2-0.5-0.2c-0.2,0-0.4,0-0.7,0.1c-1.3,0.3-1.6,2-1.6,2l-0.4,5
									c0,0-0.6,0.2-0.7-0.3c-0.1-0.6-0.9-1.3-1.1-2c-0.2-0.7,0-1.7,0-1.7C21,4.5,21,5.4,21,5.4c-0.3-1.3,1-2.1,1.2-2.3
									c0.2-0.2,0.6-1.3,1.4-2.4c0.8-1.1,2.6-0.6,2.6-0.6c0.9,0.2,2,1.1,2.5,2.7c0.5,1.5-0.1,1.9-0.3,2.9c-0.1,1,0.6,2.1,0.6,2.1
									s-0.4-0.2-0.9-0.9c-0.5-0.7-0.5-3.1-0.7-4C27.2,2.2,26.9,1.6,26.4,1.2z"/>
							</g>
						</g>
					</g>
					<g>
						<g>
							<g>
								<g>
									<path fill="#425A6B" d="M22.3,5.1C22.3,5.1,22.3,5.1,22.3,5.1c0,0.1,0,0.1,0,0.1c0,0,0,0.1,0,0.1c0,0,0,0.1,0,0.1
										c0,0,0,0.1,0,0.1c0,0.1-0.1,0.2-0.1,0.3C22,5.9,22,6,21.9,6.1c-0.1,0.1-0.2,0.2-0.3,0.2c0,0,0,0,0,0c0,0,0,0-0.1,0
										c0,0-0.1,0-0.1,0c-0.1,0-0.1,0-0.2,0.1c-0.1,0-0.3,0.1-0.3,0.2c0,0.1,0,0.1,0,0.2l0,0l0,0l0,0c0,0,0,0,0,0.1
										c0,0,0,0.1,0,0.1c0,0.1,0.1,0.3,0.1,0.4C21,7.6,21,7.7,21,7.9c0,0.1,0,0.1,0,0.2c0,0.1,0,0.1,0,0.2c0,0.1,0,0.2-0.1,0.3
										c0,0.1-0.1,0.1-0.1,0.2c0,0-0.1,0.1-0.1,0.1c0,0,0,0,0,0s0,0,0,0c0,0,0.1,0,0.1-0.1c0,0,0.1-0.1,0.1-0.2
										C21,8.4,21,8.3,21,8.2c0-0.1,0-0.1,0-0.2c0-0.1,0-0.1,0-0.2c0-0.1-0.1-0.2-0.1-0.4c0-0.1-0.1-0.3-0.1-0.4c0,0,0-0.1,0-0.1
										c0,0,0,0,0-0.1l0,0l0,0c0,0,0,0,0,0c0-0.1,0-0.2,0-0.2c0-0.1,0.1-0.1,0.2-0.2c0.1,0,0.1-0.1,0.2-0.1c0.1,0,0.1-0.1,0.2-0.1
										c0,0,0.1,0,0.1,0c0,0,0,0,0,0l0,0c0.1-0.1,0.2-0.1,0.3-0.2c0.1-0.1,0.1-0.2,0.2-0.3C22,5.6,22,5.6,22,5.5c0,0,0-0.1,0-0.1
										c0,0,0-0.1,0-0.1c0,0,0-0.1,0-0.1c0,0,0,0,0-0.1c0,0,0-0.1,0-0.1L22.3,5.1z"/>
								</g>
							</g>
						</g>
						<g>
							<g>
								<g>
									<path fill="#425A6B" d="M22.1,5.4c0,0,0,0.1,0,0.2c0,0.1,0,0.4,0,0.6c0,0.1,0,0.3,0,0.4c0,0.1-0.1,0.3-0.1,0.5
										c-0.1,0.2-0.1,0.3-0.3,0.4c0,0,0,0-0.1,0l0,0l0,0c0,0-0.1,0-0.1,0.1c-0.1,0-0.2,0.1-0.2,0.1C21.1,7.9,21,7.9,20.8,8
										c-0.1,0-0.1,0.1-0.2,0.1c0,0,0,0,0,0l0,0c0,0,0,0,0,0c0,0,0,0.1,0,0.1c0,0.1,0,0.1-0.1,0.2c0,0,0,0,0,0.1c0,0,0,0,0,0.1
										c0,0,0,0.1,0,0.1c0,0.1,0,0.3,0,0.4c0,0.1,0.1,0.2,0.1,0.3c0,0.1,0.1,0.2,0.1,0.2c0,0,0,0.1,0.1,0.1c0,0,0,0,0,0
										c0,0,0,0,0,0c0,0,0,0,0,0s0,0,0,0c0,0,0,0,0,0c0,0,0,0,0,0c0,0,0,0-0.1-0.1c0-0.1-0.1-0.1-0.1-0.2c0-0.1-0.1-0.2-0.1-0.3
										c0-0.1-0.1-0.3-0.1-0.4c0,0,0-0.1,0-0.1c0,0,0,0,0-0.1c0,0,0,0,0-0.1c0-0.1,0-0.2,0-0.2c0,0,0-0.1,0-0.1c0,0,0,0,0,0l0,0
										c0,0,0,0,0-0.1c0.1-0.1,0.1-0.1,0.2-0.2c0.1,0,0.2-0.1,0.2-0.1c0.1,0,0.2-0.1,0.2-0.1c0.2-0.1,0.3-0.1,0.4-0.2
										c0.1-0.1,0.2-0.2,0.2-0.4c0-0.1,0.1-0.3,0.1-0.4c0-0.1,0-0.3,0-0.4c0-0.2,0-0.4-0.1-0.6c0-0.1,0-0.2,0-0.2L22.1,5.4z"/>
								</g>
							</g>
						</g>
						<g>
							<g>
								<g>
									<path fill="#425A6B" d="M22.2,6c0,0,0,0.2,0,0.5c0,0.2,0,0.3,0,0.5c0,0,0,0.1,0,0.2c0,0,0,0.1,0,0.1c0,0,0,0.1,0,0.1
										c0,0.1,0,0.2-0.1,0.3c0,0.2-0.1,0.4-0.2,0.6c0,0.1-0.1,0.2-0.1,0.3l0,0l0,0l0,0l0,0c0,0,0,0,0,0c0,0-0.1,0.1-0.1,0.1
										c-0.1,0.1-0.3,0.1-0.3,0.2c0,0-0.1,0-0.1,0c0,0,0,0,0,0s0,0,0,0c0,0,0.1,0,0.1,0c0.1,0,0.2-0.1,0.3-0.2
										c0,0,0.1-0.1,0.1-0.1c0,0,0,0,0,0c0,0,0,0,0,0l0,0c0,0,0,0,0,0l0,0l0,0c0-0.1,0.1-0.2,0.1-0.2C22,8,22,7.9,22.1,7.7
										c0-0.1,0-0.2,0-0.3c0,0,0,0,0-0.1c0,0,0,0,0-0.1c0,0,0-0.1,0-0.1C22,6.9,22,6.7,22,6.6c-0.1-0.3-0.1-0.5-0.1-0.5L22.2,6z"
										/>
								</g>
							</g>
						</g>
						<g>
							<g>
								<g>
									<path fill="#425A6B" d="M27.1,0.8c0,0,0,0,0.1,0c0.1,0,0.2,0.1,0.3,0.1C27.6,1,27.6,1,27.7,1c0.1,0,0.1,0.1,0.2,0.1
										c0.1,0,0.1,0.1,0.2,0.2c0,0,0.1,0.1,0.1,0.1l0,0.1l0,0l0,0l0,0l0,0l0,0c0.1,0.1,0.2,0.3,0.3,0.5c0.1,0.2,0.1,0.3,0.1,0.4
										c0.1,0.3,0.1,0.4,0.1,0.4s-0.1-0.2-0.2-0.4c0-0.1-0.1-0.3-0.2-0.4c0-0.1-0.1-0.2-0.1-0.2c0-0.1-0.1-0.1-0.1-0.2l0,0l0,0
										l0,0l0,0l0,0l0,0c0,0-0.1-0.1-0.1-0.1c-0.1-0.1-0.1-0.1-0.2-0.1c-0.1,0-0.1-0.1-0.2-0.1c-0.1,0-0.1-0.1-0.2-0.1
										C27.3,1,27.2,1,27.2,1c-0.1,0-0.1,0-0.1,0L27.1,0.8z"/>
								</g>
							</g>
						</g>
						<g>
							<g>
								<g>
									<path fill="#425A6B" d="M28.5,2.4c0,0,0,0.1,0.1,0.1c0,0.1,0.1,0.2,0.2,0.4c0.1,0.2,0.1,0.3,0.2,0.6c0,0.1,0,0.2,0,0.3
										c0,0.1,0,0.2,0.1,0.3c0,0.1,0,0.1,0,0.2c0,0.1,0,0.1,0.1,0.2c0.1,0.1,0.1,0.2,0.2,0.3c0.1,0.2,0.2,0.4,0.2,0.5
										c0,0.1,0,0.2,0.1,0.2c0,0.1,0,0.1,0,0.2c0,0,0,0.1,0,0.1c0,0,0,0,0,0s0,0,0,0c0,0,0-0.1,0-0.1c0,0,0-0.1,0-0.2
										c0-0.1,0-0.1-0.1-0.2c0-0.1-0.1-0.2-0.1-0.2c0-0.1-0.1-0.2-0.1-0.3c0,0-0.1-0.1-0.1-0.1c0,0,0,0,0-0.1c0,0,0,0,0-0.1
										c0,0-0.1-0.1-0.1-0.2c0-0.1,0-0.1-0.1-0.2c0-0.1-0.1-0.2-0.1-0.3c0-0.1,0-0.1,0-0.2c0,0,0-0.1,0-0.1c0,0,0-0.1,0-0.1
										c0-0.1-0.1-0.2-0.1-0.3c0-0.1-0.1-0.2-0.1-0.2c-0.1-0.1-0.1-0.3-0.2-0.4c0,0,0-0.1-0.1-0.1c0,0,0,0,0,0c0,0,0,0,0,0
										c0,0,0,0,0,0C28.5,2.5,28.5,2.5,28.5,2.4L28.5,2.4z"/>
								</g>
							</g>
						</g>
					</g>
				</g>
			</g>
			<g>
				<g>
					<g>
						<g>
							<path fill="#F3F3F3" d="M21,15c-0.5,0-0.9-0.4-0.9-0.9c0-0.5,0.4-0.9,0.9-0.9c0.5,0,0.9,0.4,0.9,0.9C21.8,14.6,21.4,15,21,15
								z M21,13.6c-0.3,0-0.5,0.2-0.5,0.5c0,0.3,0.2,0.5,0.5,0.5c0.3,0,0.5-0.2,0.5-0.5C21.5,13.8,21.3,13.6,21,13.6z"/>
						</g>
					</g>
				</g>
			</g>
			<g>
				<g>
					<g>
						<g>
							<path fill="#F05640" d="M19.8,27l1.8-4l0.2-3l-0.8-3.6l-2.7,1.9l-1.7,5.2C16.5,23.4,18.9,27.5,19.8,27z"/>
						</g>
					</g>
				</g>
				<g>
					<g>
						<g>
							<path fill="#F26F5A" d="M21.2,15.2c0,0-0.1,1.2-0.6,1.9c-0.5,0.7-2.9,4.8-2.9,4.8s-0.4,0.5,0.1,1.7c0.6,1.1,1.6,3.9,2,3.4
								c0,0,0.3,0.5-1.5-0.3c-0.7-0.3-1.1-0.5-1.4-0.6c-0.2-0.1-0.4-0.4-0.3-0.6c0-0.3,0-0.6-0.2-0.8c-0.4-0.4-0.8-1.1-0.9-1.4
								c0,0-1.3-0.9-1-1.9c0.3-1,2.4-3.6,3.2-4.3c0.8-0.7,2.1-2.2,2.1-2.2l0.4-0.3l0.2-0.2c0.2,0.3,0.4,0.4,0.7,0.3
								C21.2,14.6,21.2,15.1,21.2,15.2z"/>
						</g>
					</g>
				</g>
			</g>
			<g>
				<g>
					<g>
						<g>
							<path fill="#FFD15C" d="M19.1,15.1C19.1,15.1,19.1,15.1,19.1,15.1c0-0.1,0.1-0.2,0.3-0.1c0.2,0,0.7,0.2,0.7,0.3
								c0,0.1,0,0.3-0.2,0.2c-0.2,0-0.4,0-0.5-0.1C19.1,15.4,19,15.2,19.1,15.1z"/>
						</g>
					</g>
				</g>
				<g>
					<g>
						<g>
							<g>
								<path fill="#F5B54C" d="M20.1,15.2L20.1,15.2c-0.1,0-0.2-0.1-0.3-0.1c0,0,0,0,0,0C19.9,15.1,20,15.2,20.1,15.2z"/>
							</g>
						</g>
					</g>
				</g>
			</g>
			<g>
				<g>
					<g>
						<g>
							<path fill="#FFD15C" d="M19.1,14.6C19.1,14.6,19.1,14.6,19.1,14.6c0-0.2,0.2-0.3,0.3-0.2c0.1,0,0.3,0.1,0.4,0.1
								c0.3,0.1,0.4,0.3,0.4,0.5c0,0.2-0.4,0.1-0.5,0c-0.1-0.1-0.3-0.1-0.5-0.2C19.2,14.9,19.1,14.8,19.1,14.6z"/>
						</g>
					</g>
				</g>
				<g>
					<g>
						<path fill="#F5B54C" d="M20.2,14.8c-0.1,0-0.2-0.1-0.3-0.1c-0.1-0.1-0.2-0.1-0.3-0.2c0.1,0,0.1,0,0.2,0.1
							C20,14.6,20.1,14.7,20.2,14.8z"/>
					</g>
				</g>
			</g>
			<g>
				<g>
					<g>
						<path fill="#48B9A5" d="M22.5,12.6c0,0-0.4-1.5,1.2-2.1c1.6-0.7,4.8-0.1,5.5,0.2c0.7,0.3,1,0.9,1,1.3c0,0.4-0.1,3-0.6,3.8
							c-0.5,0.8,0.1,1.5,0.1,1.5s0.4,2.9,0.6,4.1c0.2,1.2,0.8,5.4,0.8,5.4s-2.4,0.2-3.2-0.1c-0.8-0.3-1.8-0.1-2.2-0.1
							c-0.4,0-1.3-0.8-2.6-1c-1.2-0.1-2.2,0.3-2.2,0.3s-0.2-3.2,0.4-5.2s1.1-5.2,1.1-5.8C22.4,14.5,22.5,13,22.5,12.6z"/>
					</g>
				</g>
			</g>
			<g>
				<g>
					<g>
						<path fill="#F26F5A" d="M20.7,13.6l0.1-0.4l1.8-4.9l0.8,0L21.5,14C21.3,13.6,21.1,13.5,20.7,13.6z"/>
					</g>
				</g>
			</g>
			<g>
				<g>
					<g>
						<path fill="#FFD15C" d="M20.7,14.1c0,0-0.2,0.4,0.4,0.6l0.1,0.2c0,0-0.1,0.4,0,0.9c0.1,0.4,0.2,0.6,0.2,0.6s0.2,0,0.2-0.6
							c0-0.6,0-1.1,0-1.1l-0.3-0.4L20.7,14.1z"/>
					</g>
				</g>
			</g>
			<g>
				<g>
					<g>
						<path fill="#F3F3F3" d="M20.7,14.1c0,0,0.3,0.5,0.5,0.2L20.7,14.1z"/>
					</g>
				</g>
			</g>
			<g>
				<g>
					<g>
						<path fill="#FFD15C" d="M19.8,13.4C19.8,13.4,19.8,13.4,19.8,13.4c0.1-0.1,0.2-0.1,0.3,0c0.1,0.1,0.2,0.2,0.3,0.3
							c0.2,0.1,0.3,0.4,0.3,0.6s-0.4,0-0.5-0.1c-0.1-0.1-0.3-0.3-0.4-0.4C19.7,13.7,19.7,13.5,19.8,13.4z"/>
					</g>
				</g>
			</g>
			<g>
				<g>
					<g>
						<g>
							<path fill="#FFD15C" d="M20.7,14.4c0,0.1-0.1,0.1-0.1,0.1c-0.1,0-0.3-0.1-0.3-0.2c0,0,0,0-0.1-0.1c-0.1-0.1-0.2-0.3-0.3-0.4
								c-0.1-0.1-0.1-0.2,0-0.3c0,0,0,0,0,0c0.1-0.1,0.2,0,0.3,0c0.1,0.1,0.2,0.2,0.3,0.3C20.6,13.9,20.7,14.2,20.7,14.4z"/>
						</g>
					</g>
				</g>
				<g>
					<g>
						<path fill="#F5B54C" d="M20.5,14.4c-0.1,0-0.3-0.1-0.3-0.2c0,0,0,0-0.1-0.1c0,0,0.1,0,0.1,0.1C20.4,14.3,20.5,14.3,20.5,14.4z
							"/>
					</g>
				</g>
			</g>
			<g>
				<g>
					<g>
						<path fill="#F5B54C" d="M20.6,14.3L20.6,14.3C20.6,14.3,20.6,14.3,20.6,14.3c0,0.1,0,0.1,0,0.1c0,0,0,0,0,0c0,0,0,0,0,0
							c0,0,0,0,0,0h0c0,0,0,0,0,0c0,0,0,0,0,0c0,0,0,0,0,0C20.7,14.4,20.7,14.4,20.6,14.3C20.7,14.3,20.6,14.3,20.6,14.3L20.6,14.3
							L20.6,14.3C20.6,14.2,20.6,14.2,20.6,14.3c0-0.1,0-0.1,0-0.1c0,0,0,0,0,0c0.1,0,0.2,0.1,0.3,0.1c0.1,0,0.2,0.1,0.3,0.1
							c-0.1,0-0.2-0.1-0.3-0.1c-0.1,0-0.2-0.1-0.3-0.1l0,0l0,0c0,0,0,0,0,0.1C20.6,14.2,20.6,14.2,20.6,14.3
							C20.6,14.2,20.6,14.2,20.6,14.3L20.6,14.3z"/>
					</g>
				</g>
			</g>
			<g>
				<g>
					<g>
						<path fill="#FFD15C" d="M19.4,14.1c0-0.1,0.1-0.1,0.2-0.1c0.1,0,0.1,0,0.2,0c0.1,0.1,0.3,0.2,0.4,0.3c0.2,0.1,0.4,0.3,0.4,0.5
							c0,0.2-0.4,0.1-0.6-0.1c-0.1-0.1-0.3-0.2-0.4-0.2C19.4,14.3,19.4,14.2,19.4,14.1z"/>
					</g>
				</g>
			</g>
			<g>
				<g>
					<g>
						<path fill="#F5B54C" d="M21.6,15.2c0,0.1,0,0.2,0,0.3c0,0.1,0,0.2,0,0.3c0-0.1,0-0.2,0-0.3C21.6,15.4,21.6,15.3,21.6,15.2
							l0-0.3c0-0.1,0-0.2,0-0.3c0-0.1-0.1-0.1-0.1-0.2l-0.1-0.2c-0.1,0-0.2-0.1-0.4-0.1c0,0-0.1,0-0.1,0c0,0,0,0,0,0l0,0
							c0,0,0,0,0,0c0.1,0,0.1,0,0.2,0c0.1,0,0.3,0.1,0.3,0.1c0,0,0,0,0,0l0.1,0.2c0,0,0.1,0.1,0.1,0.2c0,0,0,0,0,0
							C21.6,14.8,21.7,15,21.6,15.2z"/>
					</g>
				</g>
			</g>
		</g>
		<g>
			<g>
				<path fill="#425A6B" d="M27.4,2.8l-0.1-0.2c0,0-0.6-0.1-0.9,0c-0.3,0.1-0.7,0.2-0.8,0.3c-0.1,0.1-0.4,0-0.4,0s-0.8,0-1.1,0.1
					c-0.2,0.1-0.5,0.2-0.6,0.2v0.2c0,0,0.1,0.1,0.1,0.2c0,0.1,0.1,0.8,0.6,0.9c0.4,0.1,1-0.1,1.1-0.5c0.1-0.4,0.1-0.6,0.2-0.6
					s0.1,0.1,0.2,0.1C25.8,3.6,26,4,26.5,4c0.5,0,0.9-0.2,1-0.5C27.5,3.2,27.4,2.8,27.4,2.8z"/>
			</g>
		</g>
	</g>
	<g>
		<g>
			<g>
				<path fill="#F5B54C" d="M27.4,5.4c0,0.2-0.1,1.7-2.6,1.9c0-0.1,0-0.2,0-0.3C24.7,6.2,24.7,6,24.7,6S26.2,7.4,27.4,5.4
					C27.4,5.4,27.4,5.4,27.4,5.4z"/>
			</g>
		</g>
	</g>
</g>
</svg>
