<?xml version="1.0" encoding="utf-8"?>
<!-- Generator: Adobe Illustrator 18.0.0, SVG Export Plug-In . SVG Version: 6.00 Build 0)  -->
<!DOCTYPE svg PUBLIC "-//W3C//DTD SVG 1.1//EN" "http://www.w3.org/Graphics/SVG/1.1/DTD/svg11.dtd">
<svg version="1.1" id="Layer_1" xmlns="http://www.w3.org/2000/svg" xmlns:xlink="http://www.w3.org/1999/xlink" x="0px" y="0px"
	 viewBox="0 0 48 48" enable-background="new 0 0 48 48" xml:space="preserve">
<g>
	<path fill="#ACB3BA" d="M48,1.9C48,0.9,47.1,0,46.1,0H1.9C0.9,0,0,0.9,0,1.9v31.3h48V1.9z"/>
	<path fill="#CDD6E0" d="M39,46.8h-1.7c-1.6,0-2.9-1.3-2.9-2.9V40H13.6v3.9c0,1.6-1.3,2.9-2.9,2.9H9c-0.3,0-0.6,0.3-0.6,0.6v0
		C8.4,47.7,8.6,48,9,48H39c0.3,0,0.6-0.3,0.6-0.6v0C39.6,47.1,39.4,46.8,39,46.8z"/>
	<rect x="2.9" y="2.9" fill="#FFFFFF" width="42.3" height="27.4"/>
	<path fill="#F2F2F2" d="M0,33.2v5C0,39.2,0.9,40,1.9,40h44.2c1.1,0,1.9-0.9,1.9-1.9v-5H0z"/>
	<circle fill="#CDD6E0" cx="24" cy="36.6" r="1.2"/>
	<rect x="13.6" y="40" fill="#BFCED8" width="20.9" height="1.3"/>
	<rect x="32.3" y="5.7" fill="#ACB3BA" width="2.6" height="2.6"/>
	<rect x="16.6" y="6.8" fill="#CDD6E0" width="1" height="0.5"/>
	<rect x="19.4" y="6.8" fill="#CDD6E0" width="1.8" height="0.5"/>
	<rect x="23.1" y="6.8" fill="#CDD6E0" width="1.8" height="0.5"/>
	<rect x="26.8" y="6.8" fill="#CDD6E0" width="1.8" height="0.5"/>
	<rect x="30.4" y="6.8" fill="#CDD6E0" width="1" height="0.5"/>
	<rect x="16.6" y="25.9" fill="#CDD6E0" width="1" height="0.5"/>
	<rect x="19.4" y="25.9" fill="#CDD6E0" width="1.8" height="0.5"/>
	<rect x="23.1" y="25.9" fill="#CDD6E0" width="1.8" height="0.5"/>
	<rect x="26.8" y="25.9" fill="#CDD6E0" width="1.8" height="0.5"/>
	<rect x="30.4" y="25.9" fill="#CDD6E0" width="1" height="0.5"/>
	<rect x="33.3" y="9.2" fill="#CDD6E0" width="0.5" height="1"/>
	<rect x="33.3" y="15.7" fill="#CDD6E0" width="0.5" height="1.8"/>
	<rect x="33.3" y="12" fill="#CDD6E0" width="0.5" height="1.8"/>
	<rect x="33.3" y="19.3" fill="#CDD6E0" width="0.5" height="1.8"/>
	<rect x="33.3" y="23" fill="#CDD6E0" width="0.5" height="1"/>
	<rect x="14.2" y="9.2" fill="#CDD6E0" width="0.5" height="1"/>
	<rect x="14.2" y="19.3" fill="#CDD6E0" width="0.5" height="1.8"/>
	<rect x="14.2" y="12" fill="#CDD6E0" width="0.5" height="1.8"/>
	<rect x="14.2" y="15.7" fill="#CDD6E0" width="0.5" height="1.8"/>
	<rect x="14.2" y="23" fill="#CDD6E0" width="0.5" height="1"/>
	<rect x="13.1" y="5.7" fill="#ACB3BA" width="2.6" height="2.6"/>
	<rect x="32.3" y="24.9" fill="#ACB3BA" width="2.6" height="2.6"/>
	<rect x="13.1" y="24.9" fill="#ACB3BA" width="2.6" height="2.6"/>
	<g>
		<circle fill="#FFFFFF" cx="27.4" cy="19.2" r="0.8"/>
		<circle fill="#CDD6E0" cx="24" cy="16.6" r="7.9"/>
		<path fill="#F2F2F2" d="M31.7,16.6c0,0-3.5,5.5-7.7,5.5s-7.7-5.5-7.7-5.5S19.7,11,24,11S31.7,16.6,31.7,16.6z"/>
		<circle fill="#54C0EB" cx="24" cy="16.6" r="3.8"/>
		<circle fill="#40596B" cx="24" cy="16.6" r="2"/>
		<circle fill="#FFFFFF" cx="25.1" cy="15.1" r="0.9"/>
	</g>
</g>
</svg>
