<?xml version="1.0" encoding="utf-8"?>
<!-- Generator: Adobe Illustrator 18.0.0, SVG Export Plug-In . SVG Version: 6.00 Build 0)  -->
<!DOCTYPE svg PUBLIC "-//W3C//DTD SVG 1.1//EN" "http://www.w3.org/Graphics/SVG/1.1/DTD/svg11.dtd">
<svg version="1.1" id="Layer_1" xmlns="http://www.w3.org/2000/svg" xmlns:xlink="http://www.w3.org/1999/xlink" x="0px" y="0px"
	 viewBox="0 0 512 512" enable-background="new 0 0 512 512" xml:space="preserve">
<g>
	<path fill="#40596B" d="M431.9,510H80.1c-1.1,0-2-0.9-2-2V4c0-1.1,0.9-2,2-2h351.9c1.1,0,2,0.9,2,2v504
		C433.9,509.1,433,510,431.9,510z"/>
	<rect x="120.4" y="58.6" fill="#84DBFF" width="271.2" height="370.9"/>
	<path fill="#ACB3BA" d="M293.9,35.3h-65.3c-2.8,0-5-2.2-5-5l0,0c0-2.8,2.2-5,5-5h65.3c2.8,0,5,2.2,5,5l0,0
		C299,33.1,296.7,35.3,293.9,35.3z"/>
	<path fill="#ACB3BA" d="M206.2,35.3h-18.6c-2.8,0-5-2.2-5-5l0,0c0-2.8,2.2-5,5-5h18.6c2.8,0,5,2.2,5,5l0,0
		C211.2,33.1,209,35.3,206.2,35.3z"/>
	<circle fill="#ACB3BA" cx="255.8" cy="469.7" r="26.6"/>
</g>
</svg>
