<?xml version="1.0" encoding="utf-8"?>
<!-- Generator: Adobe Illustrator 18.0.0, SVG Export Plug-In . SVG Version: 6.00 Build 0)  -->
<!DOCTYPE svg PUBLIC "-//W3C//DTD SVG 1.1//EN" "http://www.w3.org/Graphics/SVG/1.1/DTD/svg11.dtd">
<svg version="1.1" id="Layer_1" xmlns="http://www.w3.org/2000/svg" xmlns:xlink="http://www.w3.org/1999/xlink" x="0px" y="0px"
	 viewBox="0 0 512 512" enable-background="new 0 0 512 512" xml:space="preserve">
<g>
	<path fill="#F2F2F2" d="M40.9,411.4V510h61.9v-98.6c-9.7,3.5-20.1,5.4-31,5.4C60.9,416.8,50.5,414.8,40.9,411.4z"/>
	<path fill="#F2F2F2" d="M102.8,2v260.4c-9.4-4.6-19.8-7.2-30.9-7.2c-11.2,0-21.6,2.7-30.9,7.2V2H102.8z"/>
	<path fill="#ACB3BA" d="M142.6,325.4c0,27.7-16.3,51.7-39.9,63c-9.4,4.6-19.8,7.1-30.9,7.1c-11.2,0-21.6-2.6-30.9-7.1
		C17.3,377,1,353.1,1,325.4c0-27.7,16.3-51.6,39.9-62.9c9.4-4.6,19.8-7.2,30.9-7.2c11.2,0,21.6,2.7,30.9,7.2
		C126.4,273.8,142.6,297.6,142.6,325.4z"/>
	<path fill="#F2F2F2" d="M409.2,193.3V510h61.9V193.3c-9.7,3.5-20.1,5.4-31,5.4C429.3,198.7,418.9,196.8,409.2,193.3z"/>
	<path fill="#F2F2F2" d="M471.2,2v42.3c-9.4-4.5-19.9-7.1-31-7.1c-11.1,0-21.6,2.7-30.9,7.1V2H471.2z"/>
	<path fill="#FF7058" d="M511,107.3c0,27.7-16.3,51.6-39.8,63c-9.4,4.5-19.9,7.1-31,7.1c-11.1,0-21.6-2.7-30.9-7.1
		c-23.6-11.5-39.9-35.3-39.9-63c0-27.7,16.3-51.7,39.9-63c9.4-4.5,19.9-7.1,30.9-7.1c11.2,0,21.7,2.7,31,7.1
		C494.7,55.7,511,79.6,511,107.3z"/>
	<path fill="#F2F2F2" d="M163.6,254.3V510h61.9V254.3c-9.7,3.5-20.1,5.4-31,5.4C183.7,259.8,173.3,257.8,163.6,254.3z"/>
	<path fill="#F2F2F2" d="M225.5,2v103.3c-9.4-4.5-19.8-7.1-30.9-7.1s-21.6,2.7-30.9,7.1V2H225.5z"/>
	<path fill="#FFD15C" d="M265.4,168.4c0,27.7-16.3,51.6-39.9,63c-9.4,4.5-19.8,7.1-30.9,7.1s-21.6-2.7-30.9-7.1
		c-23.6-11.5-39.9-35.3-39.9-63c0-27.7,16.3-51.7,39.9-63c9.4-4.5,19.8-7.1,30.9-7.1s21.6,2.7,30.9,7.1
		C249.1,116.7,265.4,140.6,265.4,168.4z"/>
	<path fill="#F2F2F2" d="M348.4,2v328.6c-9.5-4.5-19.9-7.1-31-7.1c-11.1,0-21.6,2.7-30.9,7.1V2H348.4z"/>
	<path fill="#F2F2F2" d="M286.4,479.6V510h61.9v-30.4c-9.7,3.5-20.1,5.4-31,5.4C306.5,485,296.1,483.1,286.4,479.6z"/>
	<path fill="#84DBFF" d="M388.2,393.6c0,27.7-16.3,51.7-39.8,63c-9.5,4.5-19.9,7.1-31,7.1c-11.1,0-21.6-2.7-30.9-7.1
		c-23.6-11.4-39.9-35.3-39.9-63c0-27.7,16.3-51.6,39.9-63c9.4-4.5,19.9-7.1,30.9-7.1c11.2,0,21.6,2.7,31,7.1
		C371.9,342.1,388.2,365.9,388.2,393.6z"/>
	<ellipse fill="#FFFFFF" cx="71.8" cy="325.4" rx="39.9" ry="39.6"/>
	<ellipse fill="#FFFFFF" cx="194.6" cy="168.4" rx="39.9" ry="39.6"/>
	<ellipse fill="#FFFFFF" cx="317.4" cy="393.6" rx="39.9" ry="39.6"/>
	<ellipse fill="#FFFFFF" cx="441.4" cy="105.6" rx="39.3" ry="38.9"/>
</g>
</svg>
