<?xml version="1.0" encoding="utf-8"?>
<!-- Generator: Adobe Illustrator 18.0.0, SVG Export Plug-In . SVG Version: 6.00 Build 0)  -->
<!DOCTYPE svg PUBLIC "-//W3C//DTD SVG 1.1//EN" "http://www.w3.org/Graphics/SVG/1.1/DTD/svg11.dtd">
<svg version="1.1" id="Layer_1" xmlns="http://www.w3.org/2000/svg" xmlns:xlink="http://www.w3.org/1999/xlink" x="0px" y="0px"
	 viewBox="0 0 48 48" enable-background="new 0 0 48 48" xml:space="preserve">
<g>
	<g>
		<path fill="#415A6B" d="M35.9,48H12.1c-1.7,0-3-1.3-3-3V3c0-1.7,1.3-3,3-3h23.9c1.7,0,3,1.3,3,3v42C38.9,46.7,37.6,48,35.9,48z"/>
		<rect x="12.1" y="6.1" fill="#FFFFFF" width="23.9" height="32.3"/>
		<circle fill="#344A5E" cx="24" cy="43.5" r="2.4"/>
		<path fill="#344A5E" d="M27.2,3.9h-6.4c-0.5,0-0.8-0.4-0.8-0.8v0c0-0.5,0.4-0.8,0.8-0.8h6.4c0.5,0,0.8,0.4,0.8,0.8v0
			C28,3.5,27.7,3.9,27.2,3.9z"/>
		<g>
			<g>
				<rect x="15.7" y="32.7" fill="#CED6E0" width="11.8" height="2"/>
				<rect x="15.7" y="28.4" fill="#CED6E0" width="16.6" height="2"/>
			</g>
		</g>
		<g>
			<path fill="#F3705A" d="M18.4,9.6h0.9v3.9h-0.9L16.6,11v2.4h-0.9V9.6h0.8l1.9,2.5V9.6z"/>
			<path fill="#F3705A" d="M23,9.6v0.8h-1.9v0.8h1.7v0.7h-1.7v0.8h2v0.8h-2.9V9.6H23z"/>
			<path fill="#F3705A" d="M25.1,11.8l0.7-2.2h0.9l0.7,2.2l0.8-2.2h0.9l-1.4,3.9h-0.6l-0.8-2.7l-0.8,2.7h-0.6l-1.4-3.9h0.9
				L25.1,11.8z"/>
			<path fill="#F3705A" d="M30.4,10.4c-0.1,0.1-0.1,0.2-0.1,0.3c0,0.1,0.1,0.2,0.2,0.3c0.1,0.1,0.3,0.1,0.7,0.2
				c0.4,0.1,0.7,0.2,0.9,0.4c0.2,0.2,0.3,0.4,0.3,0.8c0,0.3-0.1,0.6-0.4,0.8c-0.3,0.2-0.6,0.3-1,0.3c-0.6,0-1.2-0.2-1.7-0.7l0.5-0.6
				c0.4,0.4,0.8,0.5,1.2,0.5c0.2,0,0.3,0,0.4-0.1c0.1-0.1,0.1-0.2,0.1-0.3s0-0.2-0.1-0.3C31.2,12,31,12,30.7,11.9
				c-0.5-0.1-0.8-0.2-1-0.4s-0.3-0.4-0.3-0.8c0-0.4,0.1-0.7,0.4-0.9c0.3-0.2,0.6-0.3,1-0.3c0.3,0,0.5,0,0.8,0.1
				c0.3,0.1,0.5,0.2,0.7,0.4l-0.4,0.6c-0.3-0.3-0.7-0.4-1-0.4C30.6,10.3,30.5,10.3,30.4,10.4z"/>
		</g>
		<rect x="15.7" y="16.4" fill="#55C0EB" width="16.6" height="9.6"/>
	</g>
</g>
</svg>
