<?xml version="1.0" encoding="utf-8"?>
<!-- Generator: Adobe Illustrator 18.0.0, SVG Export Plug-In . SVG Version: 6.00 Build 0)  -->
<!DOCTYPE svg PUBLIC "-//W3C//DTD SVG 1.1//EN" "http://www.w3.org/Graphics/SVG/1.1/DTD/svg11.dtd">
<svg version="1.1" id="Layer_1" xmlns="http://www.w3.org/2000/svg" xmlns:xlink="http://www.w3.org/1999/xlink" x="0px" y="0px"
	 viewBox="0 0 48 48" enable-background="new 0 0 48 48" xml:space="preserve">
<g>
	<g>
		<path fill="#415A6B" d="M45.7,0H2.3C1,0,0,1,0,2.3c0,1.3,1,2.3,2.3,2.3h43.4c1.3,0,2.3-1,2.3-2.3C48,1,47,0,45.7,0z"/>
		<g>
			<path fill="#E8EAE9" d="M24.8,42.7v-6.7h-1.6v6.7c-1.1,0.4-1.9,1.4-1.9,2.6c0,1.5,1.2,2.7,2.7,2.7c1.5,0,2.7-1.2,2.7-2.7
				C26.7,44.1,25.9,43,24.8,42.7z M24,46.4c-0.6,0-1.1-0.5-1.1-1.1c0-0.6,0.5-1.1,1.1-1.1c0.6,0,1.1,0.5,1.1,1.1
				C25.1,45.9,24.6,46.4,24,46.4z"/>
			<path fill="#F3F3F3" d="M2.3,4.6v28.6c0,1.9,1.6,3.5,3.5,3.5h36.4c1.9,0,3.5-1.6,3.5-3.5V4.6H2.3z"/>
			<g>
				<rect x="36.5" y="9.6" fill="#F3705A" width="4.9" height="22.1"/>
				<rect x="29" y="17.2" fill="#8AD7F8" width="4.9" height="14.5"/>
				<rect x="21.6" y="21.2" fill="#415A6B" width="4.9" height="10.5"/>
				<rect x="14.1" y="15.1" fill="#FFD15C" width="4.9" height="16.6"/>
				<rect x="6.6" y="22.8" fill="#66C6B9" width="4.9" height="8.9"/>
			</g>
		</g>
	</g>
</g>
</svg>
