<?xml version="1.0" encoding="utf-8"?>
<!-- Generator: Adobe Illustrator 18.0.0, SVG Export Plug-In . SVG Version: 6.00 Build 0)  -->
<!DOCTYPE svg PUBLIC "-//W3C//DTD SVG 1.1//EN" "http://www.w3.org/Graphics/SVG/1.1/DTD/svg11.dtd">
<svg version="1.1" id="Layer_1" xmlns="http://www.w3.org/2000/svg" xmlns:xlink="http://www.w3.org/1999/xlink" x="0px" y="0px"
	 viewBox="0 0 48 48" enable-background="new 0 0 48 48" xml:space="preserve">
<g>
	<g>
		<path fill="#65C5B8" d="M48,21.2v23.4c0,1.9-1.5,3.4-3.4,3.4H3.4C1.5,48,0,46.5,0,44.6V21.2c0-1.9,1.5-3.4,3.4-3.4h41.2
			C46.5,17.8,48,19.3,48,21.2z"/>
		<path fill="#F6F7F7" d="M3.5,40.6V25.3c2.2,0,4-1.8,4-4h33c0,2.2,1.8,4,4,4v15.3c-2.2,0-4,1.8-4,4h-33C7.5,42.3,5.7,40.6,3.5,40.6
			z"/>
		<g>
			<g>
				<circle fill="#4FBFA8" cx="10.2" cy="32.9" r="1.9"/>
				<circle fill="#4FBFA8" cx="37.8" cy="32.9" r="1.9"/>
			</g>
			<path fill="#65C5B8" d="M31.3,32.9c0,5.1-3.3,9.3-7.3,9.3c-0.5,0-1.1-0.1-1.6-0.2c-3.3-0.9-5.8-4.6-5.8-9.1c0-0.2,0-0.4,0-0.6
				c0.2-4.9,3.4-8.7,7.3-8.7C28,23.7,31.3,27.8,31.3,32.9z"/>
			<path fill="#FFFFFF" d="M23.5,36.6v-3.3c-1-0.3-1.8-0.7-2.2-1.3c-0.5-0.6-0.7-1.3-0.7-2.1c0-0.8,0.3-1.6,0.8-2.1
				c0.5-0.6,1.3-0.9,2.1-1V26h1.1v0.8c0.8,0.1,1.5,0.4,2,0.8c0.5,0.5,0.8,1.1,0.9,1.9l-2,0.3c-0.1-0.6-0.4-1-0.9-1.2v3
				c1.2,0.3,2.1,0.8,2.5,1.3c0.5,0.5,0.7,1.2,0.7,2.1c0,0.9-0.3,1.7-0.9,2.4s-1.4,1-2.4,1.2v1.5h-1.1v-1.4c-0.9-0.1-1.6-0.4-2.2-1
				c-0.6-0.6-0.9-1.3-1.1-2.4l2-0.2c0.1,0.4,0.2,0.8,0.5,1.1S23.2,36.5,23.5,36.6z M23.5,28.4c-0.3,0.1-0.5,0.3-0.7,0.5
				c-0.2,0.2-0.3,0.5-0.3,0.8c0,0.3,0.1,0.5,0.2,0.8s0.4,0.4,0.8,0.6V28.4z M24.6,36.7c0.4-0.1,0.7-0.3,0.9-0.5
				c0.2-0.3,0.4-0.6,0.4-1c0-0.3-0.1-0.6-0.3-0.9c-0.2-0.3-0.5-0.4-1-0.6V36.7z"/>
		</g>
	</g>
	<g>
		<path fill="#65C5B8" d="M48,12.3v23.4c0,1.9-1.5,3.4-3.4,3.4H3.4c-1.9,0-3.4-1.5-3.4-3.4V12.3c0-1.9,1.5-3.4,3.4-3.4h41.2
			C46.5,8.9,48,10.4,48,12.3z"/>
		<path fill="#F6F7F7" d="M3.5,31.6V16.4c2.2,0,4-1.8,4-4h33c0,2.2,1.8,4,4,4v15.3c-2.2,0-4,1.8-4,4h-33C7.5,33.4,5.7,31.6,3.5,31.6
			z"/>
		<g>
			<g>
				<circle fill="#4FBFA8" cx="10.2" cy="24" r="1.9"/>
				<circle fill="#4FBFA8" cx="37.8" cy="24" r="1.9"/>
			</g>
			<path fill="#65C5B8" d="M31.3,24c0,5.1-3.3,9.3-7.3,9.3c-0.5,0-1.1-0.1-1.6-0.2c-3.3-0.9-5.8-4.6-5.8-9.1c0-0.2,0-0.4,0-0.6
				c0.2-4.9,3.4-8.7,7.3-8.7C28,14.7,31.3,18.9,31.3,24z"/>
			<path fill="#FFFFFF" d="M23.5,27.7v-3.3c-1-0.3-1.8-0.7-2.2-1.3c-0.5-0.6-0.7-1.3-0.7-2.1c0-0.8,0.3-1.6,0.8-2.1
				c0.5-0.6,1.3-0.9,2.1-1V17h1.1v0.8c0.8,0.1,1.5,0.4,2,0.8c0.5,0.5,0.8,1.1,0.9,1.9l-2,0.3c-0.1-0.6-0.4-1-0.9-1.2v3
				c1.2,0.3,2.1,0.8,2.5,1.3s0.7,1.2,0.7,2.1c0,0.9-0.3,1.7-0.9,2.4s-1.4,1-2.4,1.2V31h-1.1v-1.4c-0.9-0.1-1.6-0.4-2.2-1
				c-0.6-0.6-0.9-1.3-1.1-2.4l2-0.2c0.1,0.4,0.2,0.8,0.5,1.1S23.2,27.5,23.5,27.7z M23.5,19.5c-0.3,0.1-0.5,0.3-0.7,0.5
				c-0.2,0.2-0.3,0.5-0.3,0.8c0,0.3,0.1,0.5,0.2,0.8s0.4,0.4,0.8,0.6V19.5z M24.6,27.8c0.4-0.1,0.7-0.3,0.9-0.5
				c0.2-0.3,0.4-0.6,0.4-1c0-0.3-0.1-0.6-0.3-0.9c-0.2-0.3-0.5-0.4-1-0.6V27.8z"/>
		</g>
	</g>
	<path opacity="0.1" fill="#231F20" d="M3.4,32.2h41.2c1.3,0,2.4-0.5,3.4-1.2v-4.1c0,1.9-1.5,3.4-3.4,3.4H3.4
		c-1.9,0-3.4-1.5-3.4-3.4V12.3l0,18.7C1,31.7,2.1,32.2,3.4,32.2z"/>
	<path opacity="0.1" fill="#231F20" d="M3.4,41.1h41.2c1.3,0,2.4-0.5,3.4-1.2v-4.1c0,1.9-1.5,3.4-3.4,3.4H3.4
		c-1.9,0-3.4-1.5-3.4-3.4V21.2c0,0,0,18.7,0,18.7C1,40.6,2.1,41.1,3.4,41.1z"/>
	<g>
		<path fill="#65C5B8" d="M48,3.4v23.4c0,1.9-1.5,3.4-3.4,3.4H3.4c-1.9,0-3.4-1.5-3.4-3.4V3.4C0,1.5,1.5,0,3.4,0h41.2
			C46.5,0,48,1.5,48,3.4z"/>
		<path fill="#F6F7F7" d="M3.5,22.7V7.4c2.2,0,4-1.8,4-4h33c0,2.2,1.8,4,4,4v15.3c-2.2,0-4,1.8-4,4h-33C7.5,24.5,5.7,22.7,3.5,22.7z
			"/>
		<g>
			<g>
				<circle fill="#4FBFA8" cx="10.2" cy="15.1" r="1.9"/>
				<circle fill="#4FBFA8" cx="37.8" cy="15.1" r="1.9"/>
			</g>
			<path fill="#65C5B8" d="M31.3,15.1c0,5.1-3.3,9.3-7.3,9.3c-0.5,0-1.1-0.1-1.6-0.2c-3.3-0.9-5.8-4.6-5.8-9.1c0-0.2,0-0.4,0-0.6
				c0.2-4.9,3.4-8.7,7.3-8.7C28,5.8,31.3,10,31.3,15.1z"/>
			<path fill="#FFFFFF" d="M23.5,18.8v-3.3c-1-0.3-1.8-0.7-2.2-1.3c-0.5-0.6-0.7-1.3-0.7-2.1c0-0.8,0.3-1.6,0.8-2.1
				c0.5-0.6,1.3-0.9,2.1-1V8.1h1.1v0.8c0.8,0.1,1.5,0.4,2,0.8c0.5,0.5,0.8,1.1,0.9,1.9l-2,0.3c-0.1-0.6-0.4-1-0.9-1.2v3
				c1.2,0.3,2.1,0.8,2.5,1.3c0.5,0.5,0.7,1.2,0.7,2.1c0,0.9-0.3,1.7-0.9,2.4c-0.6,0.6-1.4,1-2.4,1.2V22h-1.1v-1.4
				c-0.9-0.1-1.6-0.4-2.2-1c-0.6-0.6-0.9-1.3-1.1-2.4l2-0.2c0.1,0.4,0.2,0.8,0.5,1.1S23.2,18.6,23.5,18.8z M23.5,10.6
				c-0.3,0.1-0.5,0.3-0.7,0.5c-0.2,0.2-0.3,0.5-0.3,0.8c0,0.3,0.1,0.5,0.2,0.8s0.4,0.4,0.8,0.6V10.6z M24.6,18.9
				c0.4-0.1,0.7-0.3,0.9-0.5c0.2-0.3,0.4-0.6,0.4-1c0-0.3-0.1-0.6-0.3-0.9s-0.5-0.4-1-0.6V18.9z"/>
		</g>
	</g>
</g>
</svg>
