<?xml version="1.0" encoding="utf-8"?>
<!-- Generator: Adobe Illustrator 18.0.0, SVG Export Plug-In . SVG Version: 6.00 Build 0)  -->
<!DOCTYPE svg PUBLIC "-//W3C//DTD SVG 1.1//EN" "http://www.w3.org/Graphics/SVG/1.1/DTD/svg11.dtd">
<svg version="1.1" id="Layer_1" xmlns="http://www.w3.org/2000/svg" xmlns:xlink="http://www.w3.org/1999/xlink" x="0px" y="0px"
	 viewBox="0 0 512 512" enable-background="new 0 0 512 512" xml:space="preserve">
<g>
	<path fill="#F2F2F2" d="M488.8,137.1H23.2c-11.7,0-21.2,9.5-21.2,21.2v330.5c0,11.7,9.5,21.2,21.2,21.2h465.7
		c11.7,0,21.2-9.5,21.2-21.2V158.3C510,146.6,500.5,137.1,488.8,137.1z"/>
	<rect x="58.4" y="193.6" fill="#89D6F7" width="395.1" height="260"/>
	<rect x="165.3" y="117.2" fill="#F6B44B" width="181.3" height="19.9"/>
	<path fill="#FFD05C" d="M256,2c-32.2,0-58.3,26.1-58.3,58.3v56.9h116.6V60.3C314.3,28.1,288.2,2,256,2z M256,86.9
		c-15.1,0-27.3-12.2-27.3-27.3c0-15.1,12.2-27.3,27.3-27.3s27.3,12.2,27.3,27.3C283.3,74.7,271.1,86.9,256,86.9z"/>
	<path fill="#41596B" d="M200.6,365.5c-0.1-5.5-2.5-10.8-7-14.1c0,0-0.1,0-0.1-0.1c-4.6-3.4-13-9.2-22.1-13.4
		c-9.1-4.2-14.5-14-13.1-24c0-0.1,0-0.3,0.1-0.5c0,0,20.8-14.1,17.9-27.8c0,0,0.6,0,1.6,0c9.2-0.8,9.8-14.5,0.7-16
		c-0.1,0-0.2,0-0.2,0l-0.3-1.5c2.8-9.7,9.5-39.1-10.9-36.3c0,0-14.7-24.3-45.7-12.6c-31.1,11.7-23,39.5-23,39.5l3.9,11.1
		c-8.3,2-7.6,14.9,1.3,15.8c1,0.1,1.6,0,1.6,0c-2.9,13.7,17.9,27.8,17.9,27.8c0,0.2,0,0.3,0.1,0.5c1.4,9.9-4,19.8-13,24
		c-9.2,4.2-17.5,10-22.2,13.4c0,0-0.1,0.1-0.1,0.1c-4.4,3.3-6.8,8.6-6.9,14H200.6z"/>
	<rect x="248.5" y="339.9" fill="#F2F2F2" width="182.5" height="25.8"/>
	<rect x="81" y="405.2" fill="#55BFE9" width="350" height="25.8"/>
	<rect x="248.5" y="274.6" fill="#FFFFFF" width="182.5" height="25.8"/>
</g>
</svg>
