<?xml version="1.0" encoding="utf-8"?>
<!-- Generator: Adobe Illustrator 18.0.0, SVG Export Plug-In . SVG Version: 6.00 Build 0)  -->
<!DOCTYPE svg PUBLIC "-//W3C//DTD SVG 1.1//EN" "http://www.w3.org/Graphics/SVG/1.1/DTD/svg11.dtd">
<svg version="1.1" id="Layer_1" xmlns="http://www.w3.org/2000/svg" xmlns:xlink="http://www.w3.org/1999/xlink" x="0px" y="0px"
	 viewBox="0 0 48 48" enable-background="new 0 0 48 48" xml:space="preserve">
<g>
	<g>
		<g>
			<g>
				<g>
					<path fill="#4ABAA5" d="M17,0c0.4,0.3,0.3,11.5,1.1,13.7c1.1,2.6,3.3,4.6,6.3,4.2c2.9-0.4,4.9-3.8,4.2-7.6C28.8,5.8,17,0,17,0z
						"/>
				</g>
				<g>
					<path fill="#415A6B" d="M29.3,33.4h-3c0.5-11.2-1.5-20.5-6-27.9c-0.5-0.7-0.7-1.1-0.7-1.1s0.3,0.4,0.8,1.1
						C26.4,13.3,28.6,22.9,29.3,33.4z"/>
				</g>
			</g>
			<g>
				<g>
					<g>
						<path fill="#4ABAA5" d="M37.3,7.7C37,7.9,37,16.6,36.4,18.3c-0.8,2-2.6,3.6-4.9,3.3c-2.3-0.3-3.8-3-3.3-5.9
							C28.1,12.2,37.3,7.7,37.3,7.7z"/>
					</g>
				</g>
				<g>
					<path fill="#415A6B" d="M34.6,12.5c0.4-0.5,0.6-0.8,0.6-0.8S35,12,34.6,12.5c-3.9,6.9-4.9,13.8-4.7,20.9h-2.3
						C28.2,25.1,30.2,18.3,34.6,12.5z"/>
				</g>
			</g>
		</g>
		<g>
			<g>
				<rect y="37.6" fill="#FFD15C" width="48" height="10.4"/>
			</g>
			<g>
				<path fill="#F7B64C" d="M25.4,40.7c0.1-1.2,1.3-2,1.7-3.1h-2.9c0,0-0.1,0-0.1,0.1c-0.4,0.3-0.6,0.9-0.3,1.4
					c0.3,0.5,1,0.6,1.2,1.2c0,0.1,0.1,0.3,0.1,0.4c0,0.1,0.2,0.3,0.3,0.3s0.3-0.2,0.2-0.3L25.4,40.7z"/>
				<g>
					<g>
						<path fill="#F7B64C" d="M4.2,37.9c-0.2-0.2-0.4-0.2-0.7-0.3H2.5C1.5,37.8,0.7,38.3,0,39v5.8c1-0.1,2-0.4,2.8-1
							c1.2-0.9,2-2.4,2.1-3.9C4.9,39.2,4.8,38.4,4.2,37.9z"/>
					</g>
					<g>
						<path fill="#F7B64C" d="M7.3,46.3c-0.1-0.5-0.2-1-0.6-1.4c-0.7-0.8-1.9-0.8-2.9-0.6c-1,0.3-1.9,0.8-2.9,1.1
							c-0.3,0.1-0.7,0.1-1.1,0.2V48h6.9C7,47.9,7,47.8,7.1,47.8C7.4,47.3,7.4,46.8,7.3,46.3z"/>
					</g>
					<g>
						<path fill="#F7B64C" d="M8.2,38c-0.1-0.2-0.3-0.3-0.4-0.4H5.7C6,38.4,6.3,39.1,6.3,40c0.1,0.8,0.2,2.8,0.6,3.2
							c0.4,0.4,0.9,0.9,1.5,0.8c0.6-0.1,1-0.6,1.1-1.1c0.1-0.5,0-1.1-0.1-1.6C9.3,40.1,8.9,38.9,8.2,38z"/>
					</g>
					<path fill="#F7B64C" d="M5.9,40.7c-0.2,0.7,0,1.5,0.3,2.2c0.1,0.2,0.3,0.5,0.1,0.7c-0.1,0.2-0.4,0.2-0.6,0.2c-0.3,0-0.7,0-1,0
						c-0.1,0-0.3,0-0.4-0.1c-0.1-0.1-0.1-0.3-0.1-0.4c0-0.1,0.1-0.3,0.2-0.4c0.4-0.7,0.7-1.5,0.8-2.3c0-0.1,0-0.2,0.1-0.3
						c0.1-0.1,0.2-0.2,0.3-0.2c0.1,0,0.3,0.1,0.3,0.3C6,40.5,6,40.6,5.9,40.7"/>
					<path fill="#F7B64C" d="M7.8,45.5c0.5,0.5,0.7,1.4,0.4,2C8.1,47.7,8,47.8,8,48h3.8c0.2-0.2,0.3-0.5,0.4-0.8
						c0.2-0.9-0.5-1.8-1.3-2.2c-0.8-0.4-1.7-0.5-2.6-0.5l0.1,0c-0.2-0.1-0.4-0.2-0.6-0.2c-0.2,0-0.4,0.1-0.5,0.3
						c-0.1,0.2,0,0.4,0.2,0.6C7.5,45.3,7.6,45.4,7.8,45.5z"/>
					<g>
						<path fill="#F7B64C" d="M12.2,37.6H9.1c0.1,0.4,0.2,0.8,0.3,1.2c0.2,0.6,0.6,1.1,1.1,1.4c0.5,0.3,1.2,0.3,1.7,0
							c0.5-0.4,0.7-1.1,0.5-1.7C12.6,38.1,12.4,37.8,12.2,37.6z"/>
					</g>
					<g>
						<path fill="#F7B64C" d="M15,42.3c0,0.7-0.1,1.5-0.6,2c-0.6,0.6-1.5,0.7-2.3,0.4c-0.8-0.3-1.3-1-1.6-1.8
							c-0.1-0.3-0.2-0.6-0.2-0.9c0-0.3,0.1-0.6,0.3-0.8c0.5-0.4,1.3-0.1,1.9-0.3c0.5-0.2,0.8-0.8,0.6-1.3c0.6,0,1.2,0.3,1.5,0.9
							C14.9,41,15,41.6,15,42.3z"/>
					</g>
					<g>
						<path fill="#F7B64C" d="M12.8,48H17c0,0,0.1-0.1,0.1-0.1c0.4-0.6,0.3-1.3,0.2-2c-0.1-0.3-0.1-0.7-0.4-0.9
							c-0.3-0.2-0.6-0.3-1-0.3c-0.6,0-1.2,0.1-1.7,0.3c-0.4,0.2-0.8,0.4-0.9,0.8c-0.2,0.4,0,0.9,0,1.3C13.1,47.4,13,47.7,12.8,48z"
							/>
					</g>
					<g>
						<path fill="#F7B64C" d="M19.5,37.8c0-0.1-0.1-0.1-0.2-0.2h-4.5c-0.2,0.5-0.1,1.1,0.1,1.5c0.2,0.5,0.6,1,0.9,1.5
							c0.5,1.1,0.4,2.5-0.2,3.5l0.6,0.1c0.7,0,1.3,0,2-0.1c0.6-0.2,1.3-0.5,1.6-1.1c0.3-0.5,0.3-1,0.4-1.6c0-0.7,0-1.5-0.1-2.2
							C19.9,38.7,19.8,38.2,19.5,37.8z"/>
					</g>
					<g>
						<path fill="#F7B64C" d="M22.1,48c0.1-0.2,0.1-0.3,0.2-0.5c0.2-1.1-0.4-2.3-1.5-2.7c-0.5-0.2-1.1-0.2-1.6,0.2
							c-0.6,0.4-0.8,1.2-0.9,2c-0.1,0.3-0.2,0.7-0.3,1H22.1z"/>
					</g>
					<g>
						<path fill="#F7B64C" d="M20.5,44.2c0.5,0.2,0.9,0.3,1.4,0.4c0.5,0.1,1,0,1.4-0.3c0.4-0.3,0.7-0.7,0.8-1.1
							c0.3-0.7,0.4-1.4,0.1-2.1c-0.2-0.7-0.8-1.3-1.6-1.3c-0.9-0.1-1.7,0.6-2,1.4c-0.4,0.8-0.4,1.7-0.3,2.6"/>
					</g>
				</g>
				<g>
					<g>
						<path fill="#F7B64C" d="M30.6,37.6h-1.1c-1.3,0.2-2.3,1.1-3.1,2.2c-0.5,0.7-0.8,1.5-1.1,2.3c-0.1,0.4-0.2,0.8-0.2,1.1v0
							c0,1,0.9,1.7,1.9,1.6c1-0.1,2-0.4,2.8-1c1.2-0.9,2-2.4,2.1-3.9c0-0.7-0.1-1.5-0.7-2C31.1,37.7,30.8,37.7,30.6,37.6z"/>
					</g>
					<g>
						<path fill="#F7B64C" d="M26.2,48H34c0.1-0.1,0.1-0.1,0.2-0.2c0.3-0.4,0.3-1,0.3-1.5c-0.1-0.5-0.2-1-0.6-1.4
							C33.2,44.1,32,44,31,44.3c-1,0.3-1.9,0.8-2.9,1.1c-1,0.3-2.2,0.2-2.9-0.5l-0.2-0.3c-0.4,0.1-0.6,0.5-0.7,0.9
							c-0.1,0.4,0,0.8,0.2,1.1C24.9,47.2,25.6,47.7,26.2,48z"/>
					</g>
					<g>
						<path fill="#F7B64C" d="M35.2,38c-0.1-0.2-0.3-0.3-0.4-0.4h-2.1c0.3,0.8,0.6,1.6,0.7,2.4c0.1,0.8,0.2,2.8,0.6,3.2
							c0.4,0.4,0.9,0.9,1.5,0.8c0.6-0.1,1-0.6,1.1-1.1c0.1-0.5,0-1.1-0.1-1.6C36.3,40.1,36,38.9,35.2,38z"/>
					</g>
					<path fill="#F7B64C" d="M33,40.7c-0.2,0.7,0,1.5,0.3,2.2c0.1,0.2,0.3,0.5,0.1,0.7c-0.1,0.2-0.4,0.2-0.6,0.2c-0.3,0-0.7,0-1,0
						c-0.1,0-0.3,0-0.4-0.1c-0.1-0.1-0.1-0.3-0.1-0.4c0-0.1,0.1-0.3,0.2-0.4c0.4-0.7,0.7-1.5,0.8-2.3c0-0.1,0-0.2,0.1-0.3
						c0.1-0.1,0.2-0.2,0.3-0.2c0.1,0,0.3,0.1,0.3,0.3C33.1,40.5,33,40.6,33,40.7"/>
					<path fill="#F7B64C" d="M34.9,45.5c0.5,0.5,0.7,1.4,0.4,2c-0.1,0.1-0.2,0.3-0.2,0.4h3.8c0.2-0.2,0.3-0.5,0.4-0.8
						c0.2-0.9-0.5-1.8-1.3-2.2c-0.8-0.4-1.7-0.5-2.6-0.5l0.1,0c-0.2-0.1-0.4-0.2-0.6-0.2c-0.2,0-0.4,0.1-0.5,0.3
						c-0.1,0.2,0,0.4,0.2,0.6C34.5,45.3,34.7,45.4,34.9,45.5z"/>
					<g>
						<path fill="#F7B64C" d="M39.2,37.6h-3.1c0.1,0.4,0.2,0.8,0.3,1.2c0.2,0.6,0.6,1.1,1.1,1.4c0.5,0.3,1.2,0.3,1.7,0
							c0.5-0.4,0.7-1.1,0.5-1.7C39.6,38.1,39.4,37.8,39.2,37.6z"/>
					</g>
					<g>
						<path fill="#F7B64C" d="M42,42.3c0,0.7-0.1,1.5-0.6,2c-0.6,0.6-1.5,0.7-2.3,0.4c-0.8-0.3-1.3-1-1.6-1.8
							c-0.1-0.3-0.2-0.6-0.2-0.9c0-0.3,0.1-0.6,0.3-0.8c0.5-0.4,1.3-0.1,1.9-0.3c0.5-0.2,0.8-0.8,0.6-1.3c0.6,0,1.2,0.3,1.5,0.9
							C41.9,41,42,41.6,42,42.3z"/>
					</g>
					<g>
						<path fill="#F7B64C" d="M39.9,48H44c0,0,0.1-0.1,0.1-0.1c0.4-0.6,0.3-1.3,0.2-2c-0.1-0.3-0.1-0.7-0.4-0.9
							c-0.3-0.2-0.6-0.3-1-0.3c-0.6,0-1.2,0.1-1.7,0.3c-0.4,0.2-0.8,0.4-0.9,0.8c-0.2,0.4,0,0.9,0,1.3C40.2,47.4,40.1,47.7,39.9,48z
							"/>
					</g>
					<g>
						<path fill="#F7B64C" d="M46.6,37.8c0-0.1-0.1-0.1-0.2-0.2h-4.5c-0.2,0.5-0.1,1.1,0.1,1.5c0.2,0.5,0.6,1,0.9,1.5
							c0.5,1.1,0.4,2.5-0.2,3.5l0.6,0.1c0.7,0,1.3,0,2-0.1c0.6-0.2,1.3-0.5,1.6-1.1c0.3-0.5,0.3-1,0.4-1.6c0-0.7,0-1.5-0.1-2.2
							C47,38.7,46.9,38.2,46.6,37.8z"/>
					</g>
					<g>
						<path fill="#F7B64C" d="M48,48v-3.1c0,0-0.1,0-0.1-0.1c-0.5-0.2-1.1-0.2-1.6,0.2c-0.6,0.4-0.8,1.2-0.9,2
							c-0.1,0.3-0.2,0.7-0.3,1H48z"/>
					</g>
					<g>
						<path fill="#F7B64C" d="M48,40.6c-0.1,0.1-0.2,0.3-0.3,0.5c-0.4,0.8-0.4,1.7-0.3,2.6l0.2,0.5c0.1,0.1,0.3,0.1,0.4,0.2V40.6z"
							/>
					</g>
				</g>
				<path fill="#F7B64C" d="M22.8,47.5c0,0.2,0.1,0.3,0.1,0.5H25c-0.1-0.2-0.2-0.4-0.3-0.6c-0.5-0.7-0.6-1.7-0.4-2.5l-0.1,0
					c-0.3,0.1-0.7,0-1,0c-0.3,0-0.7,0.1-0.8,0.4c0,0.1,0,0.3,0,0.4C22.5,46.3,22.7,46.9,22.8,47.5z"/>
				<path fill="#F7B64C" d="M20.3,37.6c0,0.5,0,0.9,0.1,1.4c0,0.2,0.1,0.4,0.2,0.5c0.1,0.1,0.3,0.1,0.4,0c0.1-0.1,0.4-0.1,0.7-0.2
					c0.3-0.1,0.6-0.2,0.9-0.3c0.3-0.1,0.6-0.3,0.8-0.6c0.1-0.2,0.1-0.5,0.1-0.7H20.3z"/>
			</g>
		</g>
		<g>
			<g>
				<g>
					<path fill="#FFD15C" d="M35.9,39.2c0,0,0-0.1-0.1-0.1c-0.3-0.4-0.7-0.7-1-0.9c-0.1-0.1-0.2-0.1-0.4-0.2l-0.3-0.1
						c-0.6-0.4-1.2-1.1-1.7-1.7c-0.3-0.5-0.7-1-1-1.5h-4.8c0,0.1,0,0.2,0,0.3c-0.2,0.4-0.5,0.8-0.7,1.2c-0.2,0.2-0.3,0.5-0.5,0.7
						c-0.1,0.1-0.3,0.1-0.5,0.2c-0.6,0.2-1.5,0.5-2.2,0.5c-0.1,0-0.2,0-0.3-0.1c-0.1,0-0.2,0-0.2,0c0,0-0.1,0-0.1-0.1
						c-0.1,0-0.3-0.1-0.4-0.2c-0.1,0-0.1-0.1-0.2-0.1c-0.1,0-0.1-0.1-0.2-0.1l-0.2-0.2c0,0-0.1-0.1-0.2-0.2l-0.2-0.2
						c0-0.1-0.1-0.1-0.1-0.1c-0.1-0.2-0.2-0.3-0.2-0.4c0-0.1-0.1-0.2-0.1-0.2c-0.4-0.6-1.1-0.7-1.7-0.4c-0.6,0.3-0.8,1.1-0.5,1.7
						l0.1,0.2c0.1,0.1,0.1,0.2,0.2,0.3c0.1,0.2,0.2,0.4,0.3,0.5l0.1,0.2c0.1,0.2,0.4,0.5,0.7,0.8c0.2,0.2,0.4,0.4,0.7,0.5
						c0.3,0.2,0.6,0.4,0.9,0.5c0,0,0,0-0.1,0L21,40.1c-1.3,0.4-2.4,0.9-3.4,1.4c-1.2,0.7-1.8,1.5-2.2,1.9c-0.2,0.3-0.4,0.6-0.5,0.9
						C14.7,45,15,45.7,15.6,46c0.6,0.3,1.3,0,1.6-0.7c0-0.1,0.1-0.2,0.2-0.4c0.2-0.2,0.6-0.7,1.4-1.1c0.7-0.4,1.7-0.7,2.8-1l0.3-0.1
						c0.5-0.1,1.1-0.3,1.7-0.5l0.3-0.1c0.2-0.1,0.5-0.2,0.8-0.4l0.9-0.6c0.4-0.3,0.8-0.6,1.1-0.9c0.2,1.8,0.5,3.5,0.9,4.6
						c0.1,0.3,0.2,0.6,0.4,0.9l0.1,0.1c0.1,0.2,0.2,0.5,0.3,0.6l0.3,0.5c0.4,0.6,1.1,0.7,1.7,0.4c0.6-0.4,0.8-1.1,0.5-1.7l-0.3-0.5
						l-0.1-0.4c-0.1-0.2-0.1-0.4-0.2-0.6c0-0.2-0.1-0.3-0.1-0.5c0.1,0.2,0.3,0.3,0.4,0.4c0.5,0.3,1.1,0.2,1.5-0.2
						c0.1-0.1,0.2-0.3,0.3-0.4l-0.4-0.2l0.4,0.1l0-0.1l0,0c0.1-0.2,0.2-0.4,0.3-0.7c0.1-0.4,0.4-1,0.5-1.7l0.1,0
						c0,0,0.1,0.1,0.1,0.1c0.2,0.2,0.3,0.5,0.4,0.8c0.3,0.7,0.3,1.5,0.3,2.2c0,1.4-0.1,2.4-0.1,2.4c-0.1,0.7,0.4,1.3,1,1.4
						c0.1,0,0.2,0,0.2,0c0.6,0,1.1-0.4,1.2-1c0,0,0.2-1.1,0.3-2.8c0,0,0,0,0,0c0-0.9,0-1.9-0.3-3C36.5,40.4,36.2,39.8,35.9,39.2z"/>
				</g>
			</g>
		</g>
		<g>
			<g>
				<g>
					<g>
						<path fill="#415A6B" d="M29.3,45.2c-0.1-0.2-0.2-0.5-0.2-0.8c-0.3-1.1-0.4-2.7-0.4-4.3c0-2.1,0.2-4.2,0.4-5.4H28
							c0,1.2,0,3.3,0.1,5.4c0.1,1.6,0.4,3.2,0.8,4.3c0.1,0.3,0.2,0.5,0.3,0.8c0.1,0.2,0.2,0.4,0.3,0.6c0.2,0.3,0.3,0.5,0.3,0.5
							s-0.1-0.2-0.3-0.5C29.5,45.6,29.4,45.4,29.3,45.2z"/>
					</g>
					<g>
						<path fill="#415A6B" d="M28.2,34.7c-0.3,0.7-0.7,1.4-1.2,2.2c-0.3,0.5-0.7,1-1.1,1.4c-0.4,0.5-0.9,0.9-1.3,1.3l-0.8,0.5
							c-0.3,0.2-0.5,0.3-0.8,0.4c-0.6,0.3-1.1,0.4-1.7,0.6c-1.2,0.3-2.2,0.8-3.1,1.3c-0.8,0.5-1.4,1.1-1.8,1.5
							c-0.3,0.5-0.4,0.8-0.4,0.8s0.1-0.3,0.4-0.8c0.4-0.4,1-1,1.8-1.4c0.9-0.4,1.9-0.8,3.1-1.1c0.6-0.1,1.2-0.3,1.8-0.5
							c0.3-0.1,0.6-0.3,0.9-0.4l0.8-0.5c0.5-0.4,1.1-0.8,1.5-1.3c0.5-0.5,0.9-1,1.2-1.5c0.7-0.9,1.2-1.8,1.6-2.7H28.2z"/>
					</g>
					<g>
						<path fill="#415A6B" d="M27,38.1c0,0-0.5,0.3-1.3,0.6c-0.8,0.3-1.9,0.6-3.1,0.4C22.3,39,22,39,21.8,38.9
							c-0.3-0.1-0.5-0.2-0.7-0.4c-0.2-0.1-0.4-0.3-0.6-0.5c-0.2-0.2-0.3-0.3-0.4-0.5c-0.1-0.2-0.3-0.3-0.3-0.5
							c-0.1-0.2-0.1-0.3-0.2-0.4c-0.1-0.2-0.2-0.3-0.2-0.3s0.1,0.1,0.2,0.3c0.1,0.1,0.1,0.2,0.2,0.4c0.1,0.2,0.2,0.3,0.3,0.4
							c0.1,0.2,0.3,0.3,0.5,0.5c0.2,0.1,0.4,0.3,0.6,0.4c0.2,0.1,0.5,0.2,0.7,0.3c0.2,0.1,0.5,0.1,0.8,0.2c1.1,0.1,2.2-0.2,2.9-0.5
							c0.8-0.3,1.2-0.6,1.2-0.6L27,38.1z"/>
					</g>
				</g>
				<g>
					<path fill="#415A6B" d="M34.8,40c-0.2-0.2-0.4-0.5-0.6-0.6c-0.1-0.1-0.2-0.1-0.4-0.2L33.5,39c-0.8-0.5-1.5-1.3-2-2
						c-0.6-0.8-1-1.5-1.4-2.2c0,0,0,0,0,0h-1.3c0.1,0.2,0.2,0.4,0.4,0.6c0.4,0.7,1,1.4,1.6,2.2c0.7,0.7,1.4,1.5,2.4,2.1l0.4,0.2
						l0.3,0.2c0.1,0.1,0.2,0.1,0.3,0.2c0.1,0.1,0.2,0.1,0.2,0.2c0.3,0.4,0.5,0.8,0.6,1.2c0.3,0.9,0.4,1.8,0.4,2.6
						c0,1.5-0.1,2.6-0.1,2.6s0.2-1,0.3-2.6c0-0.8,0-1.7-0.2-2.7C35.4,40.9,35.2,40.4,34.8,40z"/>
				</g>
			</g>
			<g>
				<path fill="#415A6B" d="M31.5,37.1c0,0,0.2,0.4,0.4,0.9c0.2,0.6,0.3,1.3,0.3,2.1c0,0.8-0.2,1.5-0.5,2.1
					c-0.1,0.3-0.2,0.5-0.3,0.6c-0.1,0.1-0.1,0.2-0.1,0.2s0-0.1,0.1-0.2c0.1-0.2,0.2-0.4,0.2-0.6c0.2-0.5,0.3-1.3,0.3-2
					c0-0.7-0.2-1.5-0.4-2c-0.2-0.5-0.4-0.8-0.4-0.8L31.5,37.1z"/>
			</g>
		</g>
		<g>
			<path fill="#FFD15C" d="M41.1,37.6H13.6c2.4-2.9,8.8-4.8,14.5-4.8C33.8,32.8,38.7,34.7,41.1,37.6z"/>
		</g>
	</g>
</g>
</svg>
