<?xml version="1.0" encoding="utf-8"?>
<!-- Generator: Adobe Illustrator 18.0.0, SVG Export Plug-In . SVG Version: 6.00 Build 0)  -->
<!DOCTYPE svg PUBLIC "-//W3C//DTD SVG 1.1//EN" "http://www.w3.org/Graphics/SVG/1.1/DTD/svg11.dtd">
<svg version="1.1" id="Layer_1" xmlns="http://www.w3.org/2000/svg" xmlns:xlink="http://www.w3.org/1999/xlink" x="0px" y="0px"
	 viewBox="0 0 48 48" enable-background="new 0 0 48 48" xml:space="preserve">
<g>
	<g>
		<g>
			<rect x="17.3" y="37.6" fill="#ADB3BA" width="13.5" height="8"/>
		</g>
		<path fill="#E8EAE9" d="M45,39.5H3c-1.7,0-3-1.3-3-2.4V3.6C0,1.3,1.3,0,3,0h42c1.7,0,3,1.3,3,3.6v33.5C48,38.1,46.7,39.5,45,39.5z
			"/>
		<g>
			<path fill="#415A6B" d="M48,31.3V3c0-1.7-1.3-3-3-3H3C1.3,0,0,1.3,0,3v28.3H48z"/>
			<rect x="3" y="3" fill="#8AD7F8" width="42" height="25"/>
		</g>
		<g>
			<path fill="#E8EAE9" d="M38.7,48L9.3,48l0,0c1.6-2.4,4.3-3.8,7.1-3.8l15.1,0C34.4,44.2,37.1,45.6,38.7,48L38.7,48z"/>
		</g>
		<g>
			<path fill="#F3705A" d="M24.4,5.6H7c-0.8,0-1.5,0.7-1.5,1.5V19c0,0.8,0.7,1.5,1.5,1.5h17.3c0.8,0,1.5-0.7,1.5-1.5V7.1
				C25.9,6.3,25.2,5.6,24.4,5.6z"/>
		</g>
		<g>
			<path fill="#FFFFFF" d="M18.5,12.5l-4.7-3.3c-0.5-0.3-1.1,0-1.1,0.6v6.6c0,0.6,0.6,0.9,1.1,0.6l4.7-3.3
				C18.8,13.3,18.8,12.8,18.5,12.5z"/>
		</g>
		<g>
			<path fill="#FFFFFF" d="M25.1,24.6H6.3c-0.4,0-0.7-0.3-0.7-0.7v0c0-0.4,0.3-0.7,0.7-0.7h18.8c0.4,0,0.7,0.3,0.7,0.7v0
				C25.9,24.3,25.5,24.6,25.1,24.6z"/>
		</g>
		<g>
			<path fill="#F3705A" d="M13.8,23.1H6.3c-0.4,0-0.7,0.3-0.7,0.7c0,0.4,0.3,0.7,0.7,0.7h7.5V23.1z"/>
		</g>
		<g>
			<circle fill="#415A6B" cx="13.7" cy="23.9" r="1.6"/>
		</g>
		<g>
			<circle fill="#344A5E" cx="13.7" cy="23.9" r="0.7"/>
		</g>
		<g>
			<g>
				<g>
					<polygon fill="#415A6B" points="43.4,19 40.1,19.7 42,22.9 38.6,25 36.7,21.7 34.5,24.2 33.2,11.9 					"/>
				</g>
			</g>
			<g>
				<path fill="#FFFFFF" d="M31.5,10c0.1,0.2,0.5,0.3,0.7,0.2c0.2-0.1,0.3-0.5,0.2-0.7l-1-1.7c-0.1-0.2-0.5-0.3-0.7-0.2
					s-0.3,0.5-0.2,0.7L31.5,10z"/>
				<path fill="#FFFFFF" d="M31.3,11.4c0.1-0.3-0.1-0.6-0.4-0.6l-1.9-0.5c-0.3-0.1-0.6,0.1-0.6,0.4c-0.1,0.3,0.1,0.6,0.4,0.6
					l1.9,0.5C31,11.8,31.3,11.7,31.3,11.4z"/>
				<path fill="#FFFFFF" d="M31.5,12.8L31.5,12.8c-0.1-0.2-0.5-0.3-0.7-0.2l-1.7,1c-0.2,0.1-0.3,0.5-0.2,0.7
					c0.1,0.2,0.5,0.3,0.7,0.2l1.7-1C31.6,13.4,31.7,13.1,31.5,12.8z"/>
				<path fill="#FFFFFF" d="M32.7,13.7c-0.3-0.1-0.6,0.1-0.6,0.4L31.6,16c-0.1,0.3,0.1,0.6,0.4,0.6c0.3,0.1,0.6-0.1,0.6-0.4l0.5-1.9
					C33.2,14.1,33,13.8,32.7,13.7z"/>
				<path fill="#FFFFFF" d="M37.6,12.5L35.7,12c-0.3-0.1-0.6,0.1-0.6,0.4c-0.1,0.3,0.1,0.6,0.4,0.6l1.9,0.5c0.3,0.1,0.6-0.1,0.6-0.4
					C38,12.8,37.8,12.5,37.6,12.5z"/>
				<path fill="#FFFFFF" d="M35.6,11.1l1.7-1c0.2-0.1,0.3-0.5,0.2-0.7c-0.1-0.2-0.5-0.3-0.7-0.2l-1.7,1c-0.2,0.1-0.3,0.5-0.2,0.7
					C35,11.1,35.3,11.2,35.6,11.1z"/>
				<path fill="#FFFFFF" d="M34.4,7.2c-0.3-0.1-0.6,0.1-0.6,0.4l-0.5,1.9c-0.1,0.3,0.1,0.6,0.4,0.6c0.3,0.1,0.6-0.1,0.6-0.4l0.5-1.9
					C34.9,7.5,34.7,7.2,34.4,7.2z"/>
			</g>
		</g>
	</g>
</g>
</svg>
