<?xml version="1.0" encoding="utf-8"?>
<!-- Generator: Adobe Illustrator 20.1.0, SVG Export Plug-In . SVG Version: 6.00 Build 0)  -->
<!DOCTYPE svg PUBLIC "-//W3C//DTD SVG 1.1//EN" "http://www.w3.org/Graphics/SVG/1.1/DTD/svg11.dtd">
<svg version="1.1" id="Layer_1" xmlns="http://www.w3.org/2000/svg" xmlns:xlink="http://www.w3.org/1999/xlink" x="0px" y="0px"
	 viewBox="0 0 49 49" enable-background="new 0 0 49 49" xml:space="preserve">
<g>
	<path fill="#40596B" d="M46.5,9.2h-44c-1.1,0-2,0.9-2,2v28.6c0,1.1,0.9,2,2,2h44c1.1,0,2-0.9,2-2V11.2C48.5,10.1,47.6,9.2,46.5,9.2
		z"/>
	<rect x="3.5" y="12.2" fill="#FFFFFF" width="42" height="26.6"/>
	<rect x="15.3" y="41.8" fill="#CDD6E0" width="18.3" height="5.4"/>
	<rect x="9.8" y="47.2" fill="#F2F2F2" width="29.4" height="1.3"/>
	<rect x="15.3" y="41.8" fill="#ACB3BA" width="18.3" height="1.5"/>
	<polygon fill="#E4EAEF" points="42.2,12.2 40.3,38.8 8.7,38.8 6.8,12.2 	"/>
	<rect x="8.7" y="5.1" fill="#F2F2F2" width="31.5" height="33.7"/>
	<rect x="8.7" y="0.5" fill="#ACB3BA" width="31.5" height="4.6"/>
	<circle fill="#F2F2F2" cx="19.5" cy="2.8" r="1.3"/>
	<circle fill="#F2F2F2" cx="15.3" cy="2.8" r="1.3"/>
	<circle fill="#F2F2F2" cx="11" cy="2.8" r="1.3"/>
	<path fill="#F2F2F2" d="M38,1.5H27.5c-0.7,0-1.3,0.6-1.3,1.3c0,0.7,0.6,1.3,1.3,1.3H38c0.7,0,1.3-0.6,1.3-1.3
		C39.3,2.1,38.7,1.5,38,1.5z"/>
	<rect x="10.7" y="7.1" fill="#84DBFF" width="12.2" height="13.9"/>
	<rect x="25" y="12.4" fill="#CDD6E0" width="13.3" height="2.3"/>
	<rect x="25" y="17.9" fill="#CDD6E0" width="13.3" height="2.3"/>
	<rect x="10.7" y="23.5" fill="#CDD6E0" width="27.5" height="2.3"/>
	<rect x="10.7" y="29" fill="#CDD6E0" width="27.5" height="2.3"/>
	<rect x="10.7" y="34.5" fill="#CDD6E0" width="27.5" height="2.3"/>
	<path fill="#FFFFFF" d="M17.9,8.8h-2.2l-3.6,10.5h2.3l1-3h2.7l1,3h2.4L17.9,8.8z M16.1,14.3l0.7-2.1c0,0,0,0,0-0.1c0,0,0,0.1,0,0.1
		l0.7,2.1H16.1z"/>
</g>
</svg>
