<?xml version="1.0" encoding="utf-8"?>
<!-- Generator: Adobe Illustrator 20.1.0, SVG Export Plug-In . SVG Version: 6.00 Build 0)  -->
<!DOCTYPE svg PUBLIC "-//W3C//DTD SVG 1.1//EN" "http://www.w3.org/Graphics/SVG/1.1/DTD/svg11.dtd">
<svg version="1.1" id="Layer_1" xmlns="http://www.w3.org/2000/svg" xmlns:xlink="http://www.w3.org/1999/xlink" x="0px" y="0px"
	 viewBox="0 0 49 49" enable-background="new 0 0 49 49" xml:space="preserve">
<g>
	<polygon fill="#54C0EB" points="45.5,19.2 45.5,48.5 31.5,48.5 31.5,12.5 33,13.2 	"/>
	
		<rect x="3.5" y="7.5" transform="matrix(-1 -1.224647e-16 1.224647e-16 -1 34.9966 55.9985)" fill="#84DBFF" width="28" height="41"/>
	
		<rect x="9.5" y="3.9" transform="matrix(-1 -1.224647e-16 1.224647e-16 -1 34.9966 11.4417)" fill="#F2F2F2" width="16" height="3.6"/>
	
		<rect x="16.7" y="0.5" transform="matrix(-1 -1.224647e-16 1.224647e-16 -1 34.9966 4.4419)" fill="#CDD6E0" width="1.7" height="3.4"/>
	<g>
		<rect x="11" y="35.5" fill="#40596B" width="6.5" height="13"/>
		<rect x="17.5" y="35.5" fill="#334A5E" width="6.5" height="13"/>
	</g>
	<rect x="6.2" y="10.5" fill="#F2F2F2" width="22.7" height="5.1"/>
	<rect x="6.2" y="18.6" fill="#F2F2F2" width="22.7" height="5.1"/>
	<rect x="6.2" y="26.8" fill="#F2F2F2" width="22.7" height="5.1"/>
	<g>
		<g>
			<rect x="33.5" y="22.4" fill="#84DBFF" width="3.2" height="3.1"/>
			<rect x="40.3" y="22.4" fill="#84DBFF" width="3.2" height="3.1"/>
		</g>
		<g>
			<rect x="33.5" y="28.9" fill="#84DBFF" width="3.2" height="3.1"/>
			<rect x="40.3" y="28.9" fill="#84DBFF" width="3.2" height="3.1"/>
		</g>
		<g>
			<rect x="33.5" y="35.5" fill="#84DBFF" width="3.2" height="3.1"/>
			<rect x="40.3" y="35.5" fill="#84DBFF" width="3.2" height="3.1"/>
		</g>
		<g>
			<rect x="33.5" y="42.1" fill="#84DBFF" width="3.2" height="3.1"/>
			<rect x="40.3" y="42.1" fill="#84DBFF" width="3.2" height="3.1"/>
		</g>
	</g>
	<polygon fill="#39BDE5" points="33,13.2 33,48.5 31.5,48.5 31.5,12.5 	"/>
</g>
</svg>
