<?xml version="1.0" encoding="utf-8"?>
<!-- Generator: Adobe Illustrator 18.0.0, SVG Export Plug-In . SVG Version: 6.00 Build 0)  -->
<!DOCTYPE svg PUBLIC "-//W3C//DTD SVG 1.1//EN" "http://www.w3.org/Graphics/SVG/1.1/DTD/svg11.dtd">
<svg version="1.1" id="Layer_1" xmlns="http://www.w3.org/2000/svg" xmlns:xlink="http://www.w3.org/1999/xlink" x="0px" y="0px"
	 viewBox="0 0 48 48" enable-background="new 0 0 48 48" xml:space="preserve">
<g>
	<path fill="#40596B" d="M38.8,48H9.2c-1.1,0-2-0.9-2-2V2c0-1.1,0.9-2,2-2h29.6c1.1,0,2,0.9,2,2v44C40.8,47.1,39.9,48,38.8,48z"/>
	<rect x="11.6" y="5.3" fill="#54C0EB" width="24.8" height="34.6"/>
	<path fill="#334A5E" d="M19.5,2.3L19.5,2.3c0-0.4,0.3-0.7,0.7-0.7H27c0.4,0,0.7,0.3,0.7,0.7v0C27.7,2.7,27.4,3,27,3h-6.8
		C19.8,3,19.5,2.7,19.5,2.3z"/>
	<circle fill="#334A5E" cx="23.7" cy="43.6" r="2.6"/>
	<g>
		<path fill="#FFFFFF" d="M31.9,22.6c0-0.3,0-0.5,0-0.7c0.5-0.4,1.1-0.7,1.6-1.1c-0.2-0.8-0.4-1.5-0.7-2.2c-0.7,0-1.3,0.1-2,0.1
			c-0.3-0.4-0.5-0.8-0.9-1.2c0.2-0.6,0.5-1.2,0.7-1.8c-0.6-0.5-1.2-1-1.9-1.4c-0.5,0.4-1,0.8-1.5,1.2c-0.5-0.2-0.9-0.4-1.4-0.5
			c-0.2-0.6-0.4-1.3-0.5-1.9c-0.8-0.1-1.6-0.1-2.4,0c-0.2,0.6-0.4,1.3-0.5,1.9c-0.5,0.1-1,0.3-1.4,0.5c-0.5-0.4-1-0.8-1.5-1.2
			c-0.7,0.4-1.3,0.9-1.9,1.4c0.2,0.6,0.5,1.2,0.7,1.8c-0.3,0.4-0.6,0.8-0.9,1.2c-0.6,0-1.3-0.1-2-0.1c-0.3,0.7-0.5,1.5-0.7,2.2
			c0.5,0.4,1.1,0.7,1.6,1.1c0,0.2,0,0.5,0,0.7c0,0.2,0,0.5,0,0.7c-0.5,0.4-1.1,0.7-1.6,1.1c0.2,0.8,0.4,1.5,0.7,2.2
			c0.7,0,1.3-0.1,2-0.1c0.3,0.4,0.5,0.8,0.9,1.2c-0.2,0.6-0.5,1.2-0.7,1.8c0.6,0.5,1.2,1,1.9,1.4c0.5-0.4,1-0.8,1.5-1.2
			c0.4,0.2,0.9,0.3,1.4,0.5c0.2,0.6,0.4,1.3,0.5,1.9c0.8,0.1,1.6,0.1,2.4,0c0.2-0.6,0.4-1.3,0.5-1.9c0.5-0.1,1-0.3,1.4-0.5
			c0.5,0.4,1,0.8,1.5,1.2c0.7-0.4,1.3-0.9,1.9-1.4c-0.2-0.6-0.5-1.2-0.7-1.8c0.3-0.4,0.6-0.8,0.9-1.2c0.6,0,1.3,0.1,2,0.1
			c0.3-0.7,0.5-1.5,0.7-2.2c-0.5-0.4-1.1-0.7-1.6-1.1C31.8,23.1,31.9,22.9,31.9,22.6z M24,26.7c-2.3,0-4.1-1.8-4.1-4.1
			s1.8-4.1,4.1-4.1s4.1,1.8,4.1,4.1S26.3,26.7,24,26.7z"/>
		<g>
			<path fill="#F2F2F2" d="M28.1,18.6c-2.2-2.2-5.9-2.2-8.1,0c-2.2,2.2-2.2,5.9,0,8.1c1.1,1.1,2.6,1.7,4,1.7c1.5,0,2.9-0.6,4.1-1.7
				C30.3,24.4,30.3,20.8,28.1,18.6z M26.6,25.2c-1.4,1.4-3.7,1.4-5.1,0c-1.4-1.4-1.4-3.7,0-5.2c1.4-1.4,3.7-1.4,5.2,0
				c0.7,0.7,1.1,1.6,1.1,2.6S27.3,24.5,26.6,25.2z"/>
		</g>
	</g>
</g>
</svg>
