<?xml version="1.0" encoding="utf-8"?>
<!-- Generator: Adobe Illustrator 18.0.0, SVG Export Plug-In . SVG Version: 6.00 Build 0)  -->
<!DOCTYPE svg PUBLIC "-//W3C//DTD SVG 1.1//EN" "http://www.w3.org/Graphics/SVG/1.1/DTD/svg11.dtd">
<svg version="1.1" id="Layer_1" xmlns="http://www.w3.org/2000/svg" xmlns:xlink="http://www.w3.org/1999/xlink" x="0px" y="0px"
	 viewBox="0 0 48 48" enable-background="new 0 0 48 48" xml:space="preserve">
<g>
	<path fill="#F2F2F2" d="M40.9,42.1c-4.9-4.6-10-8.5-15.1-11.7c-1.1-0.7-2.5-0.7-3.6,0C17.1,33.6,12,37.6,7.1,42.1
		c-2.8,2.7-1.6,6.7,1.7,5.7c9.9-2.6,20.4-2.6,30.3,0C42.5,48.8,43.7,44.8,40.9,42.1z"/>
	<path opacity="0.1" fill="#231F20" d="M24,43.8c5.1,0,9.8-1.7,13.6-4.6c-3.9-3.3-7.8-6.3-11.8-8.8c-1.1-0.7-2.5-0.7-3.6,0
		c-4,2.5-7.9,5.5-11.8,8.8C14.2,42.1,18.9,43.8,24,43.8z"/>
	<circle fill="#F2F2F2" cx="24" cy="21.1" r="21.1"/>
	<path fill="#54C0EB" d="M24,35.3c-7.8,0-14.1-6.3-14.1-14.1C9.9,13.3,16.2,7,24,7c7.8,0,14.1,6.3,14.1,14.1
		C38.1,28.9,31.8,35.3,24,35.3z"/>
	<path fill="#84DBFF" d="M24,32.3c-6.2,0-11.2-5-11.2-11.2S17.8,9.9,24,9.9s11.2,5,11.2,11.2S30.2,32.3,24,32.3z"/>
	<path fill="#40596B" d="M24,26.6c-3,0-5.5-2.5-5.5-5.5c0-3,2.5-5.5,5.5-5.5c3,0,5.5,2.5,5.5,5.5C29.5,24.2,27,26.6,24,26.6z"/>
	<circle fill="#FFFFFF" cx="20.5" cy="17.7" r="2.3"/>
</g>
</svg>
