<?xml version="1.0" encoding="utf-8"?>
<!-- Generator: Adobe Illustrator 18.0.0, SVG Export Plug-In . SVG Version: 6.00 Build 0)  -->
<!DOCTYPE svg PUBLIC "-//W3C//DTD SVG 1.1//EN" "http://www.w3.org/Graphics/SVG/1.1/DTD/svg11.dtd">
<svg version="1.1" id="Layer_1" xmlns="http://www.w3.org/2000/svg" xmlns:xlink="http://www.w3.org/1999/xlink" x="0px" y="0px"
	 viewBox="0 0 48 48" enable-background="new 0 0 48 48" xml:space="preserve">
<g>
	<g>
		<g>
			<g>
				<g>
					<polygon fill="#FFD15C" points="27.2,38.2 28.6,46.3 38.6,46.3 38.6,38.2 					"/>
				</g>
				<g>
					<polygon fill="#FFD15C" points="7.8,38.2 7.8,46.3 17.7,46.3 19.2,38.2 					"/>
				</g>
			</g>
			<g>
				<path fill="#FFD15C" d="M42.8,14.7l-8.2-6.4c3.2-2.8,6.5-5.1,9.9-6.6C43.1,5.3,42.8,9.8,42.8,14.7z"/>
			</g>
			<g>
				<polygon fill="#FFD15C" points="43.9,18.8 43.9,30.6 48,29.9 48,19.5 				"/>
			</g>
			<g>
				<ellipse fill="#FFD15C" cx="23.2" cy="24.7" rx="23.2" ry="20.6"/>
			</g>
		</g>
		<g>
			<circle fill="#FFFFFF" cx="38.2" cy="18" r="1.7"/>
		</g>
		<g>
			<path fill="#F7B64C" d="M22,35.9v-2c-2.3-0.4-4.4-1.4-6.4-3.1l2.5-3.1c1.4,1.2,2.7,2,3.9,2.4V26c-1.9-0.5-3.3-1.2-4.2-2
				c-0.9-0.8-1.3-2-1.3-3.6c0-1.6,0.5-2.8,1.5-3.9c1-1,2.4-1.6,4-1.8v-1.3h2.9v1.4c1.8,0.3,3.6,1,5.4,2.3l-2.2,3.2
				c-1.1-0.8-2.2-1.4-3.2-1.6v3.9c2,0.5,3.4,1.2,4.4,2c0.9,0.9,1.4,2.1,1.4,3.6c0,1.6-0.5,2.9-1.6,3.9c-1,1-2.4,1.6-4.2,1.8v1.9H22z
				 M22,18.6c-0.8,0.3-1.2,0.8-1.2,1.5c0,0.7,0.4,1.3,1.2,1.7V18.6z M26.3,28.5c0-0.4-0.1-0.7-0.3-1c-0.2-0.3-0.6-0.5-1.1-0.7v3.4
				C25.9,29.9,26.3,29.4,26.3,28.5z"/>
		</g>
	</g>
</g>
</svg>
