<?xml version="1.0" encoding="utf-8"?>
<!-- Generator: Adobe Illustrator 19.0.1, SVG Export Plug-In . SVG Version: 6.00 Build 0)  -->
<svg version="1.1" id="Layer_1" xmlns="http://www.w3.org/2000/svg" xmlns:xlink="http://www.w3.org/1999/xlink" x="0px" y="0px"
	 viewBox="0 0 48 48" style="enable-background:new 0 0 48 48;" xml:space="preserve">
<style type="text/css">
	.st0{fill:#66C6B9;}
	.st1{fill:#F3F3F3;}
	.st2{fill:#415A6B;}
	.st3{fill:#CED6E0;}
	.st4{fill:#F3705A;}
	.st5{fill:#E8EAE9;}
	.st6{fill:#4ABAA5;}
	.st7{fill:#F05540;}
	.st8{fill:#FFD15C;}
	.st9{fill:#55C0EB;}
	.st10{fill:#8AD7F8;}
	.st11{fill:#344A5E;}
	.st12{fill:#FFFFFF;}
	.st13{fill:#F7B64C;}
	.st14{fill:#ADB3BA;}
	.st15{fill:#38A892;}
	.st16{fill:#ED9845;}
	.st17{fill:#2D4251;}
	.st18{fill:#304556;}
	.st19{fill:#A5AAAD;}
	.st20{fill:#2D4456;}
	.st21{fill:#4FB0E0;}
	.st22{fill:#2D4354;}
	.st23{fill:#E54C38;}
	.st24{fill:#2B4456;}
	.st25{fill:#2B404F;}
</style>
<g>
	<g>
		<g>
			<path class="st5" d="M42,14.9v24.3H6V14.9c0-1.3,1.1-2.4,2.4-2.4h31.1C40.9,12.5,42,13.6,42,14.9z"/>
			<polygon class="st10" points="8.4,36.7 8.4,14.9 39.6,14.9 39.6,36.7 			"/>
			<path class="st2" d="M48,45.3v1.7c0,0.5-0.4,0.9-0.9,0.9H0.9C0.4,48,0,47.6,0,47.1v-1.6L48,45.3z"/>
			<path class="st3" d="M42,39.2H6l-5.7,5.4c-0.6,0.6-0.2,1.5,0.6,1.5h46.2c0.8,0,1.2-1,0.6-1.5L42,39.2z"/>
			<path class="st3" d="M42,39.2H6l-5.7,5.4c-0.6,0.6-0.2,1.5,0.6,1.5h46.2c0.8,0,1.2-1,0.6-1.5L42,39.2z"/>
			<polygon class="st14" points="17.1,44.2 20.2,41.2 27.8,41.2 30.9,44.2 			"/>
			<g>
				<g>
					<path class="st4" d="M48,1.6v10.2c0,0.9-0.7,1.6-1.6,1.6h-7.8l-6.6,4v-4h-0.9c-0.9,0-1.6-0.7-1.6-1.6V1.6
						c0-0.9,0.7-1.6,1.6-1.6h15.3C47.3,0,48,0.7,48,1.6z"/>
				</g>
				<g>
					<circle class="st12" cx="33.5" cy="6.7" r="1.7"/>
					<circle class="st12" cx="38.8" cy="6.7" r="1.7"/>
					<circle class="st12" cx="44.1" cy="6.7" r="1.7"/>
				</g>
			</g>
			<g>
				<g>
					<g>
						<g>
							<path class="st3" d="M29.5,36.7v-6.6c0-2-1.6-3.5-3.5-3.5h-7.6c-2,0-3.5,1.6-3.5,3.5v6.6H29.5z"/>
						</g>
					</g>
					<g>
						<g>
							<g>
								<polygon class="st4" points="24.1,36.7 23.4,30.3 21,30.3 20.2,36.7 								"/>
							</g>
						</g>
						<g>
							<polygon class="st4" points="23.4,30.3 24.6,29.1 22.2,26.6 19.7,29.1 21,30.3 							"/>
						</g>
					</g>
					<g>
						<g>
							<g>
								<path class="st11" d="M35.9,36.7l-1.6-6.8c-0.3-1.2-1.2-2-2.4-2.3l-4.4-1.2l-2.1,10.3H35.9z"/>
							</g>
						</g>
						<g>
							<g>
								<g>
									<path class="st1" d="M25.9,24.1c0,0,0,0.5-1.7,1.4c-1.7,0.9-2,1.2-2,1.2l3.5,3.5c0,0,1.3-3.4,1.3-3.5
										C27,26.5,26,24.8,25.9,24.1z"/>
								</g>
							</g>
						</g>
						<g>
							<g>
								<path class="st2" d="M27.7,36.7c1-2.8,2.3-7.1,2.3-7.1l-1.8-0.9l1.2-0.4c0,0-1-1.5-1.9-2c-0.9-0.5-0.9-1.2-1.4-1.5
									c0,0-0.1,1.7-0.3,2.7c-0.2,1-1.3,7-1.6,9.2H27.7z"/>
							</g>
						</g>
					</g>
					<g>
						<g>
							<g>
								<path class="st11" d="M18.9,36.7l-2.1-10.3l-4.4,1.2c-1.2,0.2-2.1,1.1-2.4,2.3l-1.6,6.8H18.9z"/>
							</g>
						</g>
						<g>
							<g>
								<g>
									<path class="st1" d="M18.4,24.1c0,0,0,0.5,1.7,1.4c1.7,0.9,2,1.2,2,1.2l-3.5,3.5c0,0-1.3-3.4-1.3-3.5
										C17.3,26.5,18.3,24.8,18.4,24.1z"/>
								</g>
							</g>
						</g>
						<g>
							<g>
								<path class="st2" d="M16.6,36.7h3.5c-0.4-2.2-1.4-8.3-1.6-9.2c-0.2-1-0.3-2.7-0.3-2.7c-0.5,0.3-0.5,1-1.4,1.5
									c-0.9,0.5-1.9,2-1.9,2l1.2,0.4l-1.8,0.9C14.3,29.7,15.7,34,16.6,36.7z"/>
							</g>
						</g>
					</g>
				</g>
				<g>
					<g>
						<path class="st13" d="M18.4,18.6l0,5.5c0,0,0,0.5,1.7,1.4c1.7,0.9,2,1.2,2,1.2s0.4-0.3,2-1.2c1.7-0.9,1.7-1.4,1.7-1.4v-5.5
							H18.4z"/>
					</g>
				</g>
				<g>
					<g>
						<path class="st8" d="M26.3,13.2c0-0.5-0.2-1.1-0.5-1.5c-0.3-0.4-0.7-0.7-1.2-0.9c-0.4-0.1-0.9-0.2-1.3-0.2
							c-0.8-0.1-1.7-0.1-2.5,0.1c0,0,0,0-0.1,0c-0.6-0.2-1.2-0.4-1.8-0.4c-0.7,0-1.3,0.4-1.6,1c-0.3,0.5-0.4,1.1-0.3,1.7
							c0.1,0.5,0.2,1.1,0.4,1.6c-0.4,0.9-0.6,2-0.6,3.1c0,3.8,2.4,6.9,5.4,6.9s5.4-3.1,5.4-6.9C27.7,16,27.2,14.4,26.3,13.2z"/>
					</g>
				</g>
				<g>
					<g>
						<ellipse transform="matrix(0.9894 0.1455 -0.1455 0.9894 2.8721 -3.7823)" class="st8" cx="27.3" cy="17.7" rx="0.9" ry="2"/>
					</g>
				</g>
				<g>
					<g>
						
							<ellipse transform="matrix(-0.9894 0.1455 -0.1455 -0.9894 36.1914 32.8488)" class="st8" cx="16.9" cy="17.7" rx="0.9" ry="2"/>
					</g>
				</g>
				<g>
					<g>
						<path class="st2" d="M17.2,19.1l0.3-0.1c0,0-0.5-1.1,0-2.4C18,15.2,18,14.7,18,14c-0.1-0.8-0.3-2.2,1.2-2.4
							c1.5-0.2,4.8-0.1,5.9,0s1.5,1.6,1.3,2.2c-0.2,0.6,0.2,1.8,0.3,2.6c0.1,0.7,0,2.5,0,2.5l0.2-0.1c0,0,0-1.3,0.4-2
							c0.3-0.7,0.5-1.5,0.5-3.2c0-2.2-0.6-2.7-0.6-2.7s0.8-2.3-2-3.4s-4.3-0.3-5.9,0.5c-1.6,0.8-2.7,2.4-3.1,3.4s0.2,5,0.5,5.6
							C16.9,17.3,17.2,19.1,17.2,19.1z"/>
					</g>
				</g>
			</g>
		</g>
	</g>
</g>
</svg>
