<?xml version="1.0" encoding="utf-8"?>
<!-- Generator: Adobe Illustrator 19.0.1, SVG Export Plug-In . SVG Version: 6.00 Build 0)  -->
<svg version="1.1" id="Layer_1" xmlns="http://www.w3.org/2000/svg" xmlns:xlink="http://www.w3.org/1999/xlink" x="0px" y="0px"
	 viewBox="0 0 48 48" style="enable-background:new 0 0 48 48;" xml:space="preserve">
<style type="text/css">
	.st0{fill:#66C6B9;}
	.st1{fill:#F3F3F3;}
	.st2{fill:#415A6B;}
	.st3{fill:#CED6E0;}
	.st4{fill:#F3705A;}
	.st5{fill:#E8EAE9;}
	.st6{fill:#4ABAA5;}
	.st7{fill:#F05540;}
	.st8{fill:#FFD15C;}
	.st9{fill:#55C0EB;}
	.st10{fill:#8AD7F8;}
	.st11{fill:#344A5E;}
	.st12{fill:#FFFFFF;}
	.st13{fill:#F7B64C;}
	.st14{fill:#ADB3BA;}
	.st15{fill:#38A892;}
	.st16{fill:#ED9845;}
	.st17{fill:#2D4251;}
	.st18{fill:#304556;}
	.st19{fill:#A5AAAD;}
	.st20{fill:#2D4456;}
	.st21{fill:#4FB0E0;}
	.st22{fill:#2D4354;}
	.st23{fill:#E54C38;}
	.st24{fill:#2B4456;}
	.st25{fill:#2B404F;}
</style>
<g>
	<g>
		<g>
			<g>
				<path class="st4" d="M32.2,37.5c-2.3-1.9-4.4-4-6.6-6.1c-0.3,0.1-0.5,0.3-0.8,0.4L22,33.6c-3.7,2.5-14.3-13-10.6-15.6l2.7-1.9
					c0.2-0.2,0.4-0.3,0.6-0.5c-0.6-1.9-1.1-3.9-1.7-5.9c-1.1-3.2-2.4-6.3-3.6-9.5c0,0,0-0.1,0-0.1C8.9,0,8.3,0,7.8,0.1L7.1,0.2
					c-8.7,4.7-7,9.9-7,9.9C5.7,27.4,11.5,35.9,25.2,47c0,0,4.2,3.5,11.8-2.8l0.3-0.6c0.3-0.4,0.4-0.9,0.6-1.3
					C36,40.7,34,39.1,32.2,37.5z"/>
			</g>
			<g>
				<path class="st8" d="M36.3,36.9c1.9,1.7,2.4,4.6,1,6.8l0,0L23.6,32.6l1.2-0.7c2-1.3,4.6-1.1,6.4,0.5L36.3,36.9z"/>
				<path class="st8" d="M14.1,16.1L13,16.9L7.8,0.1l0,0c2.6-0.4,5,1,5.9,3.5L16,9.9C16.8,12.2,16.1,14.7,14.1,16.1z"/>
			</g>
		</g>
		<g>
			<path class="st0" d="M48,2.8v13.7c0,1.5-1.2,2.8-2.8,2.8L36.3,19L27,26.1v-6.9h-0.6c-1.5,0-2.8-1.2-2.8-2.8V2.8
				c0-1.5,1.2-2.8,2.8-2.8h18.8C46.8,0,48,1.2,48,2.8z"/>
		</g>
		<g>
			<path class="st12" d="M44.3,4.7L44.3,4.7c0-0.7-0.5-1.2-1.2-1.2H28.5c-0.7,0-1.2,0.5-1.2,1.2v0c0,0.7,0.5,1.2,1.2,1.2h14.6
				C43.8,5.9,44.3,5.3,44.3,4.7z"/>
			<path class="st12" d="M44.3,9.6L44.3,9.6c0-0.7-0.5-1.2-1.2-1.2H28.5c-0.7,0-1.2,0.5-1.2,1.2v0c0,0.7,0.5,1.2,1.2,1.2h14.6
				C43.8,10.8,44.3,10.3,44.3,9.6z"/>
			<path class="st12" d="M44.3,14.6L44.3,14.6c0-0.7-0.5-1.2-1.2-1.2H28.5c-0.7,0-1.2,0.5-1.2,1.2v0c0,0.7,0.5,1.2,1.2,1.2h14.6
				C43.8,15.8,44.3,15.3,44.3,14.6z"/>
		</g>
	</g>
</g>
</svg>
