<?xml version="1.0" encoding="utf-8"?>
<!-- Generator: Adobe Illustrator 18.0.0, SVG Export Plug-In . SVG Version: 6.00 Build 0)  -->
<!DOCTYPE svg PUBLIC "-//W3C//DTD SVG 1.1//EN" "http://www.w3.org/Graphics/SVG/1.1/DTD/svg11.dtd">
<svg version="1.1" id="Layer_1" xmlns="http://www.w3.org/2000/svg" xmlns:xlink="http://www.w3.org/1999/xlink" x="0px" y="0px"
	 viewBox="0 0 48 48" enable-background="new 0 0 48 48" xml:space="preserve">
<g>
	<polygon fill="#F2F2F2" points="45.1,6.4 43.2,4.6 26.8,21.1 25.7,20 24.9,20.7 24.5,20.3 23.9,20.9 6.2,3.2 4.4,5 22.1,22.7 
		3.3,41.5 5.1,43.3 21.5,26.9 23,28.5 23.5,28 23.5,44.1 26,44.1 26,26.7 26.5,27.1 27.8,25.7 42.9,40.9 44.7,39 28.6,22.9 	"/>
	<circle fill="#FF7058" cx="24.8" cy="20.9" r="13.3"/>
	<g>
		<path fill="#F1543F" d="M14.4,21.9c-0.6,0-1-0.4-1-1c0-6.2,5.1-11.3,11.3-11.3c0.6,0,1,0.4,1,1s-0.4,1-1,1c-5.1,0-9.3,4.2-9.3,9.3
			C15.4,21.4,15,21.9,14.4,21.9z"/>
	</g>
	<circle fill="#FFFFFF" cx="24.8" cy="20.9" r="5.8"/>
	<circle fill="#FFD15C" cx="5.3" cy="4.1" r="4.2"/>
	<circle opacity="0.5" fill="#FFFFFF" cx="3.3" cy="2.1" r="1"/>
	<circle fill="#84DBFF" cx="43.8" cy="5.7" r="4.2"/>
	<circle fill="#4CDBC4" cx="43.8" cy="39.7" r="4.2"/>
	<circle fill="#54C0EB" cx="24.8" cy="43.9" r="4.2"/>
	<circle fill="#CDD6E0" cx="4.2" cy="42.4" r="4.2"/>
	<circle opacity="0.5" fill="#FFFFFF" cx="41.8" cy="3.7" r="1"/>
	<circle opacity="0.5" fill="#FFFFFF" cx="41.8" cy="37.7" r="1"/>
	<circle opacity="0.5" fill="#FFFFFF" cx="22.8" cy="41.9" r="1"/>
	<circle opacity="0.5" fill="#FFFFFF" cx="2.2" cy="40.4" r="1"/>
</g>
</svg>
