<?xml version="1.0" encoding="utf-8"?>
<!-- Generator: Adobe Illustrator 18.0.0, SVG Export Plug-In . SVG Version: 6.00 Build 0)  -->
<!DOCTYPE svg PUBLIC "-//W3C//DTD SVG 1.1//EN" "http://www.w3.org/Graphics/SVG/1.1/DTD/svg11.dtd">
<svg version="1.1" id="Layer_1" xmlns="http://www.w3.org/2000/svg" xmlns:xlink="http://www.w3.org/1999/xlink" x="0px" y="0px"
	 viewBox="0 0 48 48" enable-background="new 0 0 48 48" xml:space="preserve">
<g>
	<g>
		<path fill="#F3F3F3" d="M40.3,48H7.7c-1.7,0-3-1.3-3-3V3c0-1.7,1.3-3,3-3h32.5c1.7,0,3,1.3,3,3v42C43.3,46.7,41.9,48,40.3,48z"/>
		<g>
			<rect x="29.7" y="9.3" fill="#CED6E0" width="8.5" height="2.2"/>
			<rect x="29.7" y="15.7" fill="#CED6E0" width="8.5" height="2.2"/>
			<rect x="29.7" y="22" fill="#CED6E0" width="8.5" height="2.2"/>
			<rect x="9.8" y="28.3" fill="#CED6E0" width="28.3" height="2.2"/>
			<rect x="9.8" y="34.7" fill="#CED6E0" width="28.3" height="2.2"/>
			<rect x="9.8" y="41" fill="#CED6E0" width="28.3" height="2.2"/>
		</g>
		<rect x="9.8" y="5.4" fill="#8AD7F8" width="17" height="18.8"/>
		<g>
			<g>
				<circle fill="#FFFFFF" cx="18.4" cy="11.9" r="2.9"/>
			</g>
			<g>
				<path fill="#FFFFFF" d="M24.8,21.9c-0.2-3.4-3-6.1-6.4-6.1c-3.5,0-6.3,2.7-6.4,6.1H24.8z"/>
			</g>
		</g>
	</g>
</g>
</svg>
