<?xml version="1.0" encoding="utf-8"?>
<!-- Generator: Adobe Illustrator 18.0.0, SVG Export Plug-In . SVG Version: 6.00 Build 0)  -->
<!DOCTYPE svg PUBLIC "-//W3C//DTD SVG 1.1//EN" "http://www.w3.org/Graphics/SVG/1.1/DTD/svg11.dtd">
<svg version="1.1" id="Layer_1" xmlns="http://www.w3.org/2000/svg" xmlns:xlink="http://www.w3.org/1999/xlink" x="0px" y="0px"
	 viewBox="0 0 48 48" enable-background="new 0 0 48 48" xml:space="preserve">
<g>
	<g>
		<path fill="#F3705A" d="M34.3,48c2.5-12.4-2.3-22.6-2.3-22.6c-1.8-4-1.8-8,0-12c-5.4-1.3-10.7-1.3-16.1,0c1.8,4,1.8,8,0,12
			c0,0-4.7,10.2-2.3,22.6H34.3z"/>
		<g>
			<path fill="#F05540" d="M15.9,13.4c0.4,0.9,0.7,1.8,0.9,2.7c0.7,0.5,1.6,0.7,2.6,0.7c0.2,0,0.3,0,0.5,0c2-0.2,3.6-2.4,4.2-3.9
				c0.6,1.5,2.2,3.8,4.2,3.9c0.2,0,0.4,0,0.5,0c0.8,0,1.6-0.1,2.2-0.4c0.2-1,0.5-2,1-2.9C26.7,12,21.3,12,15.9,13.4z"/>
			<g>
				<g>
					<path fill="#F3705A" d="M28.9,15.8c-0.2,0-0.4,0-0.5,0c-2-0.2-3.6-1.5-4.2-3c-0.6,1.5-2.2,2.8-4.2,3c-0.2,0-0.4,0-0.5,0
						c-3.6,0.2-5.9-3.6-4.3-6.9c1.2-2.4,1.5-5.4,1.4-8.9h1.4c0,0-0.7,7.3,3.9,8.8c1.1,0.4,1.9,1,2.2,1.7c0.3-0.7,1.4-1.4,2.2-1.7
						c4.6-2,6.3-1.2,6.7,0.1C34.8,12.2,32.5,16,28.9,15.8z"/>
				</g>
			</g>
		</g>
	</g>
</g>
</svg>
