<?xml version="1.0" encoding="utf-8"?>
<!-- Generator: Adobe Illustrator 18.0.0, SVG Export Plug-In . SVG Version: 6.00 Build 0)  -->
<!DOCTYPE svg PUBLIC "-//W3C//DTD SVG 1.1//EN" "http://www.w3.org/Graphics/SVG/1.1/DTD/svg11.dtd">
<svg version="1.1" id="Layer_1" xmlns="http://www.w3.org/2000/svg" xmlns:xlink="http://www.w3.org/1999/xlink" x="0px" y="0px"
	 viewBox="0 0 48 48" enable-background="new 0 0 48 48" xml:space="preserve">
<g>
	<g>
		<g>
			<g>
				<path fill="#415A6B" d="M13,36.8l0.5,4.5L6.8,48l-0.6-6.1L0,41.2l6.7-6.7l4.5,0.5l2-2c0.4,0.8,0.9,1.5,1.7,2L13,36.8z"/>
			</g>
		</g>
		<g>
			<g>
				<g>
					<path fill="#415A6B" d="M48,41.2l-6.1,0.6L41.2,48l-6.7-6.7l0.5-4.5l-2.6-2.6c0.8-0.5,1.3-1.1,1.7-1.9l2.7,2.7l4.5-0.5L48,41.2
						z"/>
				</g>
				<g>
					<polygon fill="#415A6B" points="10.5,3.9 0,0 3.9,10.5 					"/>
				</g>
			</g>
			<g>
				<g>
					<path fill="#F3705A" d="M24,42.3c0,0,20.9-11,20.9-25.4c0-6.2-4.9-11.2-11-11.2c-4.4,0-8.1,2.5-9.9,6.3
						c-1.8-3.7-5.6-6.3-9.9-6.3c-6.1,0-11,5-11,11.2C3,31.3,24,42.3,24,42.3z"/>
				</g>
			</g>
			<g>
				<g>
					<g>
						<path fill="#415A6B" d="M17.3,15.5"/>
						<path fill="#415A6B" d="M15.5,17.3L6.3,8.1l-2.4,2.4L0,0l10.5,3.9L8.1,6.3l9.2,9.2C18.5,16.7,16.7,18.5,15.5,17.3z"/>
					</g>
				</g>
			</g>
			<g>
				<path fill="#F3705A" d="M18.1,17.2c-0.5,0.7-1.5,0.9-2.3,0.6c-0.8-0.3-1.4-1-2-1.6c0,0-0.1-0.4,0-0.5c0.8-0.3,1,0.7,1.7,0.3
					c0.2-0.1,0.4-0.3,0.6-0.4c0.2-0.1,0.5,0.1,0.7-0.1c0.1-0.1-0.2-0.3-0.3-0.4c-0.1-0.2,0-0.4,0.1-0.5c0.2-0.2,0.6-0.1,0.8,0.1
					c0.4,0.3,0.7,0.6,0.8,1.1C18.3,16.3,18.3,16.8,18.1,17.2z"/>
			</g>
		</g>
		<g>
			<g>
				<g>
					<polygon fill="#415A6B" points="37.5,3.9 48,0 44.1,10.5 					"/>
				</g>
			</g>
			<g>
				<g>
					<g>
						<path fill="#415A6B" d="M30.7,15.5"/>
					</g>
				</g>
				<g>
					<path fill="#415A6B" d="M48,0l-3.9,10.5l-2.4-2.4l-9.2,9.2c-1.3,1.3-3.1-0.6-1.9-1.8l9.2-9.2l-2.4-2.4L48,0z"/>
				</g>
			</g>
			<g>
				<path fill="#F3705A" d="M29.9,17.2c0.5,0.7,1.5,0.9,2.3,0.6c0.8-0.3,1.4-1,2-1.6c0,0,0.1-0.4,0-0.5c-0.8-0.3-1,0.7-1.7,0.3
					c-0.2-0.1-0.4-0.3-0.6-0.4c-0.2-0.1-0.5,0.1-0.7-0.1c-0.1-0.1,0.2-0.3,0.3-0.4c0.1-0.2,0-0.4-0.1-0.5c-0.2-0.2-0.6-0.1-0.8,0.1
					c-0.4,0.3-0.7,0.6-0.8,1.1C29.7,16.3,29.7,16.8,29.9,17.2z"/>
			</g>
		</g>
	</g>
</g>
</svg>
