<?xml version="1.0" encoding="utf-8"?>
<!-- Generator: Adobe Illustrator 18.0.0, SVG Export Plug-In . SVG Version: 6.00 Build 0)  -->
<!DOCTYPE svg PUBLIC "-//W3C//DTD SVG 1.1//EN" "http://www.w3.org/Graphics/SVG/1.1/DTD/svg11.dtd">
<svg version="1.1" id="Layer_1" xmlns="http://www.w3.org/2000/svg" xmlns:xlink="http://www.w3.org/1999/xlink" x="0px" y="0px"
	 viewBox="0 0 48 48" enable-background="new 0 0 48 48" xml:space="preserve">
<g>
	
		<rect x="14" y="27.6" transform="matrix(0.7071 0.7071 -0.7071 0.7071 27.5235 -1.4363)" fill="#F2F2F2" width="2.9" height="9.9"/>
	<circle fill="#334A5E" cx="30.4" cy="17.6" r="17.6"/>
	<circle fill="#40596B" cx="30.4" cy="17.6" r="14.4"/>
	<path fill="#FF7058" d="M16.4,31.6c-1.6-1.6-3.2-2.7-10.5,4.6c-4.4,4.4-7,9.6-5.3,11.2c1.6,1.6,6.9-1,11.2-5.3
		C19.1,34.8,18,33.3,16.4,31.6z"/>
	<path fill="#E8EAEA" d="M35.7,28.4c-2.2,0.3-4.6-0.8-6.4-2.6c-2.5,0.6-4.9,0.2-6.6-1.5c-1.5-1.5-2-3.9-1.6-6.2
		c-0.9-1.2-1.4-2.7-1.3-4.2c0.2-1.9,1.2-3.3,2.7-3.8c-0.1-2.7,1.8-4.8,4.7-4.9c2.9-0.1,5.8,1.7,7,4.4c0.7,0.3,1.4,0.7,1.9,1.3
		c1.4,1.4,2,3.5,1.7,5.7c0.8,1,1.5,2.2,1.9,3.5C41.1,24.1,39.3,27.9,35.7,28.4z"/>
	<circle fill="#FFD15C" cx="29" cy="13.9" r="4.8"/>
	<g>
		<path fill="#FFFFFF" d="M31.3,12.5c-0.3,0.3-0.7,0.3-0.9,0c-0.8-0.8-2.1-0.8-2.9,0c-0.3,0.3-0.7,0.3-0.9,0c-0.3-0.3-0.3-0.7,0-0.9
			c1.3-1.3,3.4-1.3,4.7,0C31.6,11.8,31.6,12.2,31.3,12.5z"/>
	</g>
</g>
</svg>
