<?xml version="1.0" encoding="utf-8"?>
<!-- Generator: Adobe Illustrator 18.0.0, SVG Export Plug-In . SVG Version: 6.00 Build 0)  -->
<!DOCTYPE svg PUBLIC "-//W3C//DTD SVG 1.1//EN" "http://www.w3.org/Graphics/SVG/1.1/DTD/svg11.dtd">
<svg version="1.1" id="Layer_1" xmlns="http://www.w3.org/2000/svg" xmlns:xlink="http://www.w3.org/1999/xlink" x="0px" y="0px"
	 viewBox="0 0 48 48" enable-background="new 0 0 48 48" xml:space="preserve">
<g>
	<g>
		<g>
			<g>
				<path fill="#66C6B9" d="M28.5,48h1.6c1.6-10.5-0.4-21.3-5.7-30.6L23,18.2C28.1,27.3,30,37.8,28.5,48z"/>
			</g>
		</g>
		<g>
			<g>
				<path fill="#F3705A" d="M23.8,15.7c-3.4,1.3-7.2-0.7-9.2-4.8c-2-4.2-1.1-8.8,2.7-10.3c3.8-1.6,8.1,0.8,9.7,5.3
					C28.7,10.2,27.2,14.4,23.8,15.7z"/>
			</g>
			<g>
				<g>
					<path fill="#F3705A" d="M28.3,23.1c-3.8,1.1-7.6-0.8-9-4.8c-1.5-4-0.3-8.5,3.1-9.9c3.4-1.4,7.5,1.2,9.3,5.5
						C33.6,18.3,32.1,22.1,28.3,23.1z"/>
				</g>
			</g>
			<g>
				<g>
					<path fill="#F3705A" d="M19.7,21.1c-3.4,1.5-6.9-0.2-8.7-4.5c-1.8-4.3-1.3-8.9,2.3-10.3c3.6-1.5,8,0.8,9.6,5
						C24.6,15.5,23.1,19.6,19.7,21.1z"/>
				</g>
			</g>
			<g>
				<path fill="#F3705A" d="M23.8,26.9c-3.8,1.4-7.3-0.3-8.5-4.3c-1.3-4.1-0.2-8.7,3.1-10.1c3.3-1.5,7.5,0.9,9.1,5
					C29.3,21.5,27.6,25.4,23.8,26.9z"/>
			</g>
			<g>
				<g>
					<path fill="#F05540" d="M16.8,7.9c-1.6,0.7-2.8,2.1-3.3,3.8C13,8.7,14,6,16.6,5c3.2-1.3,7.1,0.8,8.5,4.6
						c0.2,0.6,0.4,1.1,0.5,1.7C23.5,8.1,19.9,6.6,16.8,7.9z"/>
				</g>
			</g>
			<g>
				<g>
					<path fill="#F05540" d="M25.4,13.9c-1.3-3.2-4.4-5-7.1-3.8c-2.6,1.1-3.4,4.6-2.2,7.7c1.2,3.1,4,4.5,6.7,3.5
						C25.5,20.2,26.7,17.1,25.4,13.9z M16.8,17.5c-1-2.6-0.3-5.6,1.9-6.6c2.2-0.9,4.9,0.6,6,3.3c1.1,2.7,0.1,5.4-2.2,6.3
						C20.2,21.4,17.8,20.1,16.8,17.5z"/>
				</g>
			</g>
			<g>
				<g>
					<path fill="#F05540" d="M19.3,16.3c-0.8-1.9-0.2-4,1.4-4.7c1.6-0.7,3.6,0.4,4.3,2.3c0.8,1.9,0.1,3.9-1.5,4.6
						C21.9,19.2,20.1,18.2,19.3,16.3z"/>
				</g>
			</g>
			<g>
				<g>
					<g>
						<path fill="#F05540" d="M25.5,21.8c-0.7,0.2-1.5,0.3-2.3,0.5c-1,0.2-2,0-3-0.3c-1-0.2-2-0.8-2.7-1.6c0,0-0.1-0.1-0.1-0.1
							c-0.2-0.2-0.4-0.4-0.6-0.6c0,0,0,0.1,0,0.1c1.1,3.1,3.9,4.5,6.7,3.4C24.3,22.9,25,22.4,25.5,21.8z"/>
					</g>
				</g>
			</g>
			<g>
				<g>
					<g>
						<path fill="#F05540" d="M17,21.2c-0.6-0.5-1.1-1.1-1.7-1.8c-2.1-2.7-2.5-5.5-2.5-6.7c0-0.1,0-0.1,0-0.2c0-0.3-0.1-0.6-0.1-1
							c0,0,0,0.1-0.1,0.1c-1.2,2.7-0.1,6.7,2.1,8.6C15.5,20.8,16.2,21.1,17,21.2z"/>
					</g>
				</g>
			</g>
			<g>
				<g>
					<path fill="#F05540" d="M29,16.1c0,0,1.5,3.3-1,5.5c0,0,0-2.7-0.9-4.1C27,17.6,28.3,17.8,29,16.1z"/>
				</g>
			</g>
		</g>
		<g>
			<g>
				<path fill="#66C6B9" d="M29.5,37c-4.1,1.3-8.1-1.7-9.9-5.6C23.2,29.5,28.2,31.5,29.5,37z"/>
			</g>
		</g>
		<g>
			<g>
				<path fill="#66C6B9" d="M29.8,41.7c4,1.3,8.4-2.6,8.2-9.3C33.7,31.9,30.7,36.4,29.8,41.7z"/>
			</g>
		</g>
	</g>
</g>
</svg>
