<?xml version="1.0" encoding="utf-8"?>
<!-- Generator: Adobe Illustrator 18.0.0, SVG Export Plug-In . SVG Version: 6.00 Build 0)  -->
<!DOCTYPE svg PUBLIC "-//W3C//DTD SVG 1.1//EN" "http://www.w3.org/Graphics/SVG/1.1/DTD/svg11.dtd">
<svg version="1.1" id="Layer_1" xmlns="http://www.w3.org/2000/svg" xmlns:xlink="http://www.w3.org/1999/xlink" x="0px" y="0px"
	 viewBox="0 0 48 48" enable-background="new 0 0 48 48" xml:space="preserve">
<g>
	<g>
		<g>
			<path fill="#F3F3F3" d="M3,0l23.8,0l11,11v34c0,1.7-1.3,3-3,3H3c-1.7,0-3-1.3-3-3L0,3C0,1.3,1.3,0,3,0z"/>
			<polygon fill="#CED6E0" points="26.8,0 37.8,11 26.8,11 			"/>
			<g>
				<g>
					<path fill="#415A6B" d="M8.3,8.8c0.5,0,0.9-0.2,1.2-0.6l0.6,0.7C9.7,9.4,9.1,9.7,8.4,9.7C7.7,9.7,7.1,9.5,6.7,9
						C6.2,8.6,6,8,6,7.4c0-0.7,0.2-1.2,0.7-1.7C7.1,5.2,7.7,5,8.4,5c0.7,0,1.4,0.3,1.9,0.9L9.6,6.6C9.3,6.2,8.9,6,8.4,6
						C8,6,7.7,6.1,7.4,6.3C7.2,6.6,7,6.9,7,7.4s0.1,0.8,0.4,1C7.7,8.6,8,8.8,8.3,8.8z"/>
					<path fill="#415A6B" d="M14.2,9.7l-0.4-1h-1.9l-0.4,1h-1.1l2-4.5h1l2,4.5H14.2z M12.8,6.5l-0.6,1.3h1.1L12.8,6.5z"/>
					<path fill="#415A6B" d="M16.9,6c-0.1,0.1-0.1,0.2-0.1,0.3c0,0.1,0.1,0.2,0.2,0.3c0.1,0.1,0.4,0.2,0.8,0.3
						c0.4,0.1,0.8,0.3,1,0.5c0.2,0.2,0.4,0.5,0.4,0.9c0,0.4-0.2,0.7-0.5,1c-0.3,0.3-0.7,0.4-1.2,0.4c-0.7,0-1.4-0.3-1.9-0.8l0.6-0.7
						c0.5,0.4,0.9,0.6,1.4,0.6c0.2,0,0.3,0,0.4-0.1C18,8.6,18,8.5,18,8.4S18,8.1,17.9,8s-0.3-0.2-0.7-0.2c-0.5-0.1-0.9-0.3-1.2-0.5
						c-0.2-0.2-0.4-0.5-0.4-0.9s0.2-0.8,0.5-1C16.4,5.1,16.8,5,17.3,5c0.3,0,0.6,0.1,0.9,0.2c0.3,0.1,0.6,0.3,0.8,0.4l-0.5,0.7
						c-0.4-0.3-0.8-0.4-1.2-0.4C17.1,5.9,17,5.9,16.9,6z"/>
					<path fill="#415A6B" d="M23.2,5.1V6H21v0.9h2v0.9h-2v0.9h2.3v0.9h-3.3V5.1H23.2z"/>
					<path fill="#415A6B" d="M5.4,13.8c-0.1,0.1-0.1,0.2-0.1,0.3c0,0.1,0.1,0.2,0.2,0.3c0.1,0.1,0.4,0.2,0.8,0.3
						c0.4,0.1,0.8,0.3,1,0.5c0.2,0.2,0.4,0.5,0.4,0.9c0,0.4-0.2,0.7-0.5,1c-0.3,0.3-0.7,0.4-1.2,0.4c-0.7,0-1.4-0.3-1.9-0.8L4.6,16
						c0.5,0.4,0.9,0.6,1.4,0.6c0.2,0,0.3,0,0.4-0.1c0.1-0.1,0.2-0.2,0.2-0.3c0-0.1-0.1-0.2-0.2-0.3c-0.1-0.1-0.3-0.2-0.7-0.2
						c-0.5-0.1-0.9-0.3-1.2-0.5c-0.2-0.2-0.4-0.5-0.4-0.9c0-0.4,0.2-0.8,0.5-1c0.3-0.2,0.7-0.4,1.2-0.4c0.3,0,0.6,0.1,0.9,0.2
						c0.3,0.1,0.6,0.3,0.8,0.4L7,14.1c-0.4-0.3-0.8-0.4-1.2-0.4C5.6,13.7,5.5,13.7,5.4,13.8z"/>
					<path fill="#415A6B" d="M10.4,13.8v3.7h-1v-3.7H8.1v-0.9h3.6v0.9H10.4z"/>
					<path fill="#415A6B" d="M13.6,16.3c0.2,0.2,0.4,0.3,0.7,0.3s0.5-0.1,0.7-0.3s0.2-0.5,0.2-0.9v-2.5h1v2.5c0,0.7-0.2,1.2-0.5,1.5
						s-0.8,0.5-1.4,0.5s-1-0.2-1.4-0.5c-0.4-0.4-0.6-0.9-0.6-1.5v-2.5h1v2.5C13.3,15.8,13.4,16.1,13.6,16.3z"/>
					<path fill="#415A6B" d="M20.7,13.5c0.4,0.4,0.6,0.9,0.6,1.7c0,0.7-0.2,1.3-0.6,1.7c-0.4,0.4-1.1,0.6-1.9,0.6h-1.6v-4.5h1.6
						C19.7,12.9,20.3,13.1,20.7,13.5z M20,16.2c0.2-0.2,0.4-0.6,0.4-1c0-0.4-0.1-0.8-0.4-1c-0.2-0.2-0.6-0.4-1.1-0.4h-0.6v2.8h0.6
						C19.4,16.6,19.7,16.4,20,16.2z"/>
					<path fill="#415A6B" d="M24.1,17.5h-1v-1.8l-1.6-2.7h1.1l1,1.7l1-1.7h1.1l-1.6,2.7V17.5z"/>
				</g>
			</g>
			<g>
				<rect x="4" y="41.6" fill="#CED6E0" width="29.8" height="2.4"/>
				<rect x="20.6" y="35.3" fill="#CED6E0" width="13.3" height="2.4"/>
				<rect x="20.6" y="29" fill="#CED6E0" width="13.3" height="2.4"/>
				<rect x="20.6" y="22.7" fill="#CED6E0" width="13.3" height="2.4"/>
				<g>
					<rect x="4" y="22.7" fill="#F3705A" width="12.6" height="15"/>
				</g>
			</g>
		</g>
		<g>
			<g>
				
					<rect x="36.4" y="36.4" transform="matrix(0.7071 -0.7071 0.7071 0.7071 -15.8542 38.2752)" fill="#344A5E" width="3.8" height="3.8"/>
			</g>
			<g>
				<path fill="#F3705A" d="M41.4,37.8l-3.6,3.6l3.6,5.1c1.3,1.8,3.9,2,5.5,0.4c1.6-1.6,1.4-4.2-0.4-5.5L41.4,37.8z"/>
			</g>
			<g>
				<polygon fill="#F05540" points="43,38.9 41.4,37.8 37.8,41.4 38.9,43 				"/>
			</g>
			<g>
				<g>
					<circle fill="#8AD7F8" cx="31.7" cy="31.7" r="7.7"/>
					<path fill="#415A6B" d="M38.1,38.1c-3.5,3.5-9.3,3.5-12.8,0s-3.5-9.3,0-12.8s9.3-3.5,12.8,0C41.7,28.8,41.7,34.6,38.1,38.1z
						 M27.2,27.2c-2.5,2.5-2.5,6.6,0,9.1s6.6,2.5,9.1,0c2.5-2.5,2.5-6.6,0-9.1S29.7,24.7,27.2,27.2z"/>
				</g>
			</g>
			<path fill="#F3705A" d="M42.3,36.9c-0.5-0.5-1.3-0.5-1.8,0l-3.6,3.6c-0.5,0.5-0.5,1.3,0,1.8s1.3,0.5,1.8,0l3.6-3.6
				C42.8,38.2,42.8,37.4,42.3,36.9z"/>
		</g>
	</g>
</g>
</svg>
