<?xml version="1.0" encoding="utf-8"?>
<!-- Generator: Adobe Illustrator 18.0.0, SVG Export Plug-In . SVG Version: 6.00 Build 0)  -->
<!DOCTYPE svg PUBLIC "-//W3C//DTD SVG 1.1//EN" "http://www.w3.org/Graphics/SVG/1.1/DTD/svg11.dtd">
<svg version="1.1" id="Layer_1" xmlns="http://www.w3.org/2000/svg" xmlns:xlink="http://www.w3.org/1999/xlink" x="0px" y="0px"
	 viewBox="0 0 48 48" enable-background="new 0 0 48 48" xml:space="preserve">
<g>
	<path fill="#40596B" d="M18.3,18.3H3.8c-0.4,0-0.7,0.2-0.7,0.5s0.3,0.5,0.7,0.5c-0.4,0-0.7,0.2-0.7,0.5c0,0.3,0.3,0.5,0.7,0.5
		c-0.4,0-0.7,0.2-0.7,0.5s0.3,0.5,0.7,0.5h14.5V18.3z"/>
	<polygon fill="#FFD15C" points="38.9,46.6 32.6,46.6 25.3,27.3 31.7,27.3 	"/>
	<polygon fill="#FFD15C" points="9.2,46.6 15.5,46.6 22.8,27.3 16.4,27.3 	"/>
	<rect x="12.4" y="39.9" fill="#FFD15C" width="23.3" height="3.6"/>
	<circle fill="#54C0EB" cx="24.1" cy="19.7" r="18.2"/>
	<path fill="#F2F2F2" d="M24.1,33.4c-7.5,0-13.7-6.1-13.7-13.7S16.5,6,24.1,6s13.7,6.1,13.7,13.7S31.6,33.4,24.1,33.4z"/>
	<path fill="#FF7058" d="M24.1,28.8c-5,0-9.1-4.1-9.1-9.1s4.1-9.1,9.1-9.1s9.1,4.1,9.1,9.1S29.1,28.8,24.1,28.8z"/>
	<path fill="#CDD6E0" d="M24.1,24.2c-2.5,0-4.6-2-4.6-4.6s2-4.6,4.6-4.6s4.6,2,4.6,4.6S26.6,24.2,24.1,24.2z"/>
	<path fill="#FFD15C" d="M24.1,24.2c-2.5,0-4.6-2-4.6-4.6s2-4.6,4.6-4.6s4.6,2,4.6,4.6S26.6,24.2,24.1,24.2z"/>
	<path fill="#FFD15C" d="M3.5,18.3L3.5,18.3c-0.2,0.1-0.4,0.2-0.4,0.4c0,0.3,0.3,0.5,0.7,0.5c-0.4,0-0.7,0.2-0.7,0.5
		c0,0.3,0.3,0.5,0.7,0.5c-0.4,0-0.7,0.2-0.7,0.5c0,0.2,0.2,0.3,0.4,0.4v0l-2.1-0.8L0,19.7l1.4-0.6L3.5,18.3z"/>
	<polygon fill="#334A5E" points="1.4,19.1 1.4,20.2 0,19.7 	"/>
	<path opacity="0.2" fill="#40596B" d="M40.1,28.3c-0.5,0.8-1,1.6-1.5,2.4L24,20.9c-0.6-0.4-0.8-1.3-0.4-2c0.4-0.6,1.3-0.8,2-0.4
		L40.1,28.3z"/>
	<g>
		<path fill="#40596B" d="M23.4,19.7L23.4,19.7c0,0.8,0.6,1.4,1.4,1.4h19.7v-2.8H24.8C24,18.3,23.4,18.9,23.4,19.7z"/>
		<rect x="44.5" y="18.3" fill="#FFD15C" width="1.1" height="2.8"/>
		<path fill="#ACB3BA" d="M47.3,18.3h-1.7v2.8h1.7c0.4,0,0.7-0.2,0.7-0.5v-1.9C48,18.5,47.7,18.3,47.3,18.3z"/>
	</g>
</g>
</svg>
