<?xml version="1.0" encoding="utf-8"?>
<!-- Generator: Adobe Illustrator 18.0.0, SVG Export Plug-In . SVG Version: 6.00 Build 0)  -->
<!DOCTYPE svg PUBLIC "-//W3C//DTD SVG 1.1//EN" "http://www.w3.org/Graphics/SVG/1.1/DTD/svg11.dtd">
<svg version="1.1" id="Layer_1" xmlns="http://www.w3.org/2000/svg" xmlns:xlink="http://www.w3.org/1999/xlink" x="0px" y="0px"
	 viewBox="0 0 48 48" enable-background="new 0 0 48 48" xml:space="preserve">
<g>
	<path fill="#40596B" d="M1,34.6v1.9c0,1.5,1.2,2.7,2.7,2.7h40.6c1.5,0,2.7-1.2,2.7-2.7v-1.9H1z"/>
	<path fill="#F2F2F2" d="M46.8,33.7l-7.1-14.2H8.3L1.2,33.7C0.6,34.8,1.4,36,2.6,36h42.8C46.6,36,47.4,34.8,46.8,33.7z"/>
	<path fill="#CDD6E0" d="M47.4,17.2l-9.5-6.4c-2-1.3-4.3-2-6.7-2H16.8c-2.4,0-4.7,0.7-6.7,2l-9.5,6.4c-1,0.7-0.5,2.3,0.7,2.3h45.4
		C47.9,19.5,48.4,17.9,47.4,17.2z"/>
	<polygon fill="#54C0EB" points="38.1,19.5 9.9,19.5 4.5,32.7 43.5,32.7 	"/>
	<ellipse fill="#FFD15C" cx="5.6" cy="34.5" rx="0.8" ry="0.5"/>
	<ellipse fill="#FF7058" cx="8.5" cy="34.5" rx="0.8" ry="0.5"/>
	<path fill="#ACB3BA" d="M28.6,12.6h-2.2C25.8,12.2,24.9,12,24,12c-0.9,0-1.8,0.2-2.4,0.7h-2.2l-1.8,1.6h3.1c0,1.1,1.3,2.2,3.3,2.2
		c2.1,0,3.3-1.1,3.3-2.2h3.1L28.6,12.6z"/>
</g>
</svg>
