<?xml version="1.0" encoding="utf-8"?>
<!-- Generator: Adobe Illustrator 19.0.1, SVG Export Plug-In . SVG Version: 6.00 Build 0)  -->
<svg version="1.1" id="Layer_1" xmlns="http://www.w3.org/2000/svg" xmlns:xlink="http://www.w3.org/1999/xlink" x="0px" y="0px"
	 viewBox="0 0 48 48" style="enable-background:new 0 0 48 48;" xml:space="preserve">
<style type="text/css">
	.st0{fill:#66C6B9;}
	.st1{fill:#F3F3F3;}
	.st2{fill:#415A6B;}
	.st3{fill:#CED6E0;}
	.st4{fill:#F3705A;}
	.st5{fill:#E8EAE9;}
	.st6{fill:#4ABAA5;}
	.st7{fill:#F05540;}
	.st8{fill:#FFD15C;}
	.st9{fill:#55C0EB;}
	.st10{fill:#8AD7F8;}
	.st11{fill:#344A5E;}
	.st12{fill:#FFFFFF;}
	.st13{fill:#F7B64C;}
	.st14{fill:#ADB3BA;}
	.st15{fill:#38A892;}
	.st16{fill:#ED9845;}
	.st17{fill:#2D4251;}
	.st18{fill:#304556;}
	.st19{fill:#A5AAAD;}
	.st20{fill:#2D4456;}
	.st21{fill:#4FB0E0;}
	.st22{fill:#2D4354;}
	.st23{fill:#E54C38;}
	.st24{fill:#2B4456;}
	.st25{fill:#2B404F;}
</style>
<g>
	<g>
		<g>
			<g>
				<g>
					<g>
						<g>
							<path class="st3" d="M32.4,48v-9.2c0-2.2-1.8-4-4-4h-8.7c-2.2,0-4,1.8-4,4V48H32.4z"/>
						</g>
					</g>
					<g>
						<g>
							<g>
								<polygon class="st4" points="26.4,48 25.4,39 22.6,39 21.6,48 								"/>
							</g>
						</g>
						<g>
							<polygon class="st4" points="25.4,39 26.8,37.6 24,34.8 21.2,37.6 22.6,39 							"/>
						</g>
					</g>
					<g>
						<g>
							<g>
								<path class="st11" d="M41.9,48l-2.2-9.4c-0.3-1.3-1.4-2.3-2.7-2.6l-6.9-1.4L27.4,48H41.9z"/>
							</g>
						</g>
						<g>
							<g>
								<g>
									<path class="st1" d="M28.2,31.9c0,0,0,0.5-1.9,1.5c-1.9,1-2.3,1.3-2.3,1.3l4,4c0,0,1.5-3.9,1.5-4S28.4,32.7,28.2,31.9z"/>
								</g>
							</g>
						</g>
						<g>
							<g>
								<path class="st2" d="M29.7,48c0,0,0-0.1,0-0.1c1-2.7,3.2-9.6,3.2-9.6l-2.1-1.1l1.3-0.5c0,0-1.1-1.7-2.1-2.3
									c-1-0.6-1-1.3-1.6-1.7c0,0-0.1,1.9-0.3,3c-0.2,1.1-1.5,8.6-1.9,10.9c0,0.3-0.1,0.8-0.2,1.3H29.7z"/>
							</g>
						</g>
					</g>
					<g>
						<g>
							<g>
								<path class="st11" d="M20.6,48l-2.7-13.4L10.9,36c-1.3,0.3-2.4,1.3-2.7,2.6L6.1,48H20.6z"/>
							</g>
						</g>
						<g>
							<g>
								<g>
									<path class="st1" d="M19.8,31.9c0,0,0,0.5,1.9,1.5c1.9,1,2.3,1.3,2.3,1.3l-4,4c0,0-1.5-3.9-1.5-4S19.6,32.7,19.8,31.9z"/>
								</g>
							</g>
						</g>
						<g>
							<g>
								<path class="st2" d="M18.2,47.9c0,0,0,0.1,0,0.1h3.6c-0.1-0.6-0.1-1.1-0.2-1.3c-0.4-2.3-1.7-9.7-1.9-10.9
									c-0.2-1.1-0.3-3-0.3-3c-0.6,0.4-0.6,1.2-1.6,1.7c-1,0.6-2.1,2.3-2.1,2.3l1.3,0.5L15,38.3C15,38.3,17.2,45.2,18.2,47.9z"/>
							</g>
						</g>
					</g>
				</g>
			</g>
			<g>
				<g>
					<g>
						<path class="st8" d="M33.7,14.1c0.5,3.8-1.2,7.3-4,9.3c-1.1,0.8-1.7,2-1.7,3.3l0,0.7c0,0.8-0.6,1.4-1.4,1.4h-5.1
							c-0.8,0-1.4-0.6-1.4-1.4l0-0.7c0-1.3-0.7-2.5-1.7-3.3c-2.5-1.8-4.1-4.7-4.1-7.9c0-5.8,5-10.4,10.9-9.7
							C29.5,6.2,33.1,9.7,33.7,14.1z"/>
					</g>
					<g>
						<path class="st11" d="M22,31.4c0.3,0.8,1.1,1.4,2,1.4c0.9,0,1.7-0.6,2-1.4H22z"/>
					</g>
					<g>
						<path class="st2" d="M20,26.9v3.4c0,0.8,0.6,1.4,1.4,1.4h5.1c0.8,0,1.4-0.6,1.4-1.4v-3.4H20z"/>
					</g>
					<g>
						<path class="st11" d="M28.1,26.5h-8.1c-0.4,0-0.7,0.3-0.7,0.7v0c0,0.4,0.3,0.7,0.7,0.7h8.1c0.4,0,0.7-0.3,0.7-0.7v0
							C28.8,26.8,28.5,26.5,28.1,26.5z"/>
					</g>
					<g>
						<path class="st11" d="M28.1,28.9h-8.1c-0.4,0-0.7,0.3-0.7,0.7v0c0,0.4,0.3,0.7,0.7,0.7h8.1c0.4,0,0.7-0.3,0.7-0.7v0
							C28.8,29.2,28.5,28.9,28.1,28.9z"/>
					</g>
				</g>
				<g>
					<g>
						<path class="st8" d="M33.5,26.4l-1.7-1.7c-0.4-0.4-0.4-1,0-1.4c0.4-0.4,1-0.4,1.4,0l1.7,1.7c0.4,0.4,0.4,1,0,1.4
							C34.5,26.7,33.9,26.7,33.5,26.4z"/>
					</g>
					<g>
						<path class="st8" d="M38.5,16.4h-2.4c-0.5,0-1-0.4-1-1c0-0.5,0.4-1,1-1h2.4c0.5,0,1,0.4,1,1C39.4,16,39,16.4,38.5,16.4z"/>
					</g>
					<g>
						<path class="st8" d="M34.9,5.9l-1.7,1.7c-0.4,0.4-1,0.4-1.4,0c-0.4-0.4-0.4-1,0-1.4l1.7-1.7c0.4-0.4,1-0.4,1.4,0
							C35.3,4.9,35.3,5.5,34.9,5.9z"/>
					</g>
					<g>
						<path class="st8" d="M25,1v2.4c0,0.5-0.4,1-1,1c-0.5,0-1-0.4-1-1V1c0-0.5,0.4-1,1-1C24.5,0,25,0.4,25,1z"/>
					</g>
					<g>
						<path class="st8" d="M14.5,4.5l1.7,1.7c0.4,0.4,0.4,1,0,1.4c-0.4,0.4-1,0.4-1.4,0l-1.7-1.7c-0.4-0.4-0.4-1,0-1.4
							C13.5,4.1,14.1,4.1,14.5,4.5z"/>
					</g>
					<g>
						<path class="st8" d="M9.5,14.5h2.4c0.5,0,1,0.4,1,1c0,0.5-0.4,1-1,1H9.5c-0.5,0-1-0.4-1-1C8.6,14.9,9,14.5,9.5,14.5z"/>
					</g>
					<g>
						<path class="st8" d="M13.1,25l1.7-1.7c0.4-0.4,1-0.4,1.4,0c0.4,0.4,0.4,1,0,1.4l-1.7,1.7c-0.4,0.4-1,0.4-1.4,0
							C12.7,26,12.7,25.4,13.1,25z"/>
					</g>
				</g>
			</g>
		</g>
		<g>
			<polygon class="st12" points="22.1,21.2 23.1,16.5 20.8,16.5 25.9,10.7 24.9,15.4 27.2,15.4 			"/>
		</g>
	</g>
</g>
</svg>
