<?xml version="1.0" encoding="utf-8"?>
<!-- Generator: Adobe Illustrator 18.0.0, SVG Export Plug-In . SVG Version: 6.00 Build 0)  -->
<!DOCTYPE svg PUBLIC "-//W3C//DTD SVG 1.1//EN" "http://www.w3.org/Graphics/SVG/1.1/DTD/svg11.dtd">
<svg version="1.1" id="Layer_1" xmlns="http://www.w3.org/2000/svg" xmlns:xlink="http://www.w3.org/1999/xlink" x="0px" y="0px"
	 viewBox="0 0 48 48" enable-background="new 0 0 48 48" xml:space="preserve">
<g>
	<g>
		<path fill="#415A6B" d="M47,30.6h-3.2v8.6H47c0.6,0,1-0.5,1-1v-6.6C48,31.1,47.5,30.6,47,30.6z"/>
		<path fill="#8AD7F8" d="M47,22h-3.2v8.6H47c0.6,0,1-0.5,1-1V23C48,22.5,47.5,22,47,22z"/>
		<path fill="#F3705A" d="M47,13.4h-3.2V22H47c0.6,0,1-0.5,1-1v-6.6C48,13.9,47.5,13.4,47,13.4z"/>
		<path fill="#FFD15C" d="M47,4.9h-3.2v8.6H47c0.6,0,1-0.5,1-1V5.9C48,5.3,47.5,4.9,47,4.9z"/>
		<rect x="13.2" y="0" fill="#F3F3F3" width="30.7" height="48"/>
		<path fill="#F3705A" d="M9,0C6.4,0,4.2,2.1,4.2,4.8v38.4C4.2,45.9,6.4,48,9,48h4.1V0H9z"/>
		<path fill="#415A6B" d="M6.4,35.4H2.1c-1.2,0-2.1,0.9-2.1,2.1c0,1.2,0.9,2.1,2.1,2.1h4.2c1.2,0,2.1-0.9,2.1-2.1
			C8.5,36.3,7.5,35.4,6.4,35.4z"/>
		<path fill="#415A6B" d="M2.1,12.6h4.2c1.2,0,2.1-0.9,2.1-2.1S7.5,8.4,6.4,8.4H2.1C0.9,8.4,0,9.3,0,10.5S0.9,12.6,2.1,12.6z"/>
		<g>
			<path fill="#8AD7F8" d="M33.6,26.4c-0.5-0.5-1.4-0.5-2,0l-1.5,1.5c-0.6,0.6-2.3-0.2-3.8-1.7c-1.5-1.5-2.3-3.2-1.7-3.8l1.5-1.5
				c0.5-0.5,0.5-1.4,0-2L22.1,15c-0.5-0.5-1.4-0.5-2,0l-1.2,1.2c-1.8,1.8,0.5,7.2,5.3,12c4.8,4.8,10.2,7.2,12,5.3l1.2-1.2
				c0.5-0.5,0.5-1.4,0-2L33.6,26.4z"/>
		</g>
	</g>
</g>
</svg>
