<?xml version="1.0" encoding="utf-8"?>
<!-- Generator: Adobe Illustrator 18.0.0, SVG Export Plug-In . SVG Version: 6.00 Build 0)  -->
<!DOCTYPE svg PUBLIC "-//W3C//DTD SVG 1.1//EN" "http://www.w3.org/Graphics/SVG/1.1/DTD/svg11.dtd">
<svg version="1.1" id="Layer_1" xmlns="http://www.w3.org/2000/svg" xmlns:xlink="http://www.w3.org/1999/xlink" x="0px" y="0px"
	 viewBox="0 0 48 48" enable-background="new 0 0 48 48" xml:space="preserve">
<g>
	<g>
		<g>
			<path fill="#344A5E" d="M0,4v40c0,2.2,1.8,4,4,4h40c2.2,0,4-1.8,4-4V4c0-2.2-1.8-4-4-4H4C1.8,0,0,1.8,0,4z M24,43.5
				C13.3,43.5,4.5,34.8,4.5,24C4.5,13.2,13.3,4.5,24,4.5c10.8,0,19.5,8.7,19.5,19.5C43.5,34.8,34.8,43.5,24,43.5z"/>
			<g>
				<path fill="#344A5E" d="M29.1,27.5c1.4,0.3,6.2,1.3,10.6,0.2c0.2-0.1,0.4-0.2,0.4-0.4c0.7-3.4,0.6-6.5-0.6-9.2
					c-0.2-0.4-0.6-0.5-0.9-0.2c-3.1,2.7-6.3,4.5-9.6,5c-0.3,0-0.5,0.3-0.5,0.6l0.2,3.5C28.7,27.3,28.9,27.5,29.1,27.5z"/>
				<path fill="#344A5E" d="M29.6,21.3c1-1.1,4.2-4.7,5.5-9c0.1-0.2,0-0.5-0.2-0.6c-2.6-2.3-5.3-3.7-8.3-4.1
					c-0.4-0.1-0.7,0.3-0.6,0.7c0.8,4,0.8,7.7-0.5,10.9c-0.1,0.3,0,0.6,0.3,0.7l3.1,1.6C29.2,21.5,29.5,21.5,29.6,21.3z"/>
				<path fill="#344A5E" d="M24.5,17.8c-0.4-1.4-2-6-5.1-9.3c-0.2-0.2-0.4-0.2-0.6-0.2c-3.3,1.1-5.9,2.7-7.7,5.1
					c-0.2,0.3-0.1,0.8,0.3,0.9c3.9,1.3,7.1,3.2,9.2,5.8c0.2,0.2,0.5,0.3,0.8,0.1l2.9-1.9C24.5,18.3,24.6,18,24.5,17.8z"/>
				<path fill="#344A5E" d="M18.9,20.5c-1.4-0.3-6.2-1.3-10.6-0.2c-0.2,0.1-0.4,0.2-0.4,0.4c-0.7,3.4-0.6,6.5,0.6,9.2
					c0.2,0.4,0.6,0.5,0.9,0.2c3.1-2.7,6.3-4.5,9.6-5c0.3,0,0.5-0.3,0.5-0.6L19.3,21C19.3,20.7,19.1,20.5,18.9,20.5z"/>
				<path fill="#344A5E" d="M18.4,26.7c-1,1.1-4.2,4.7-5.5,9c-0.1,0.2,0,0.5,0.2,0.6c2.6,2.3,5.3,3.7,8.3,4.1
					c0.4,0.1,0.7-0.3,0.6-0.7c-0.8-4-0.8-7.7,0.5-10.9c0.1-0.3,0-0.6-0.3-0.7l-3.1-1.6C18.8,26.5,18.5,26.5,18.4,26.7z"/>
				<path fill="#344A5E" d="M23.5,30.2c0.4,1.4,2,6,5.1,9.3c0.2,0.2,0.4,0.2,0.6,0.2c3.3-1.1,5.9-2.7,7.7-5.1
					c0.2-0.3,0.1-0.8-0.3-0.9c-3.9-1.3-7.1-3.2-9.2-5.8c-0.2-0.2-0.5-0.3-0.8-0.1l-2.9,1.9C23.5,29.7,23.4,30,23.5,30.2z"/>
				<circle fill="#415A6B" cx="24" cy="24" r="7.3"/>
				<circle fill="#344A5E" cx="24" cy="24" r="2.6"/>
			</g>
		</g>
		<g>
			<g>
				<g>
					<circle fill="#F3F3F3" cx="42.7" cy="5.3" r="1.6"/>
				</g>
			</g>
		</g>
		<g>
			<g>
				<g>
					<circle fill="#F3F3F3" cx="5.3" cy="5.3" r="1.6"/>
				</g>
			</g>
		</g>
		<g>
			<g>
				<g>
					<circle fill="#F3F3F3" cx="5.3" cy="42.7" r="1.6"/>
				</g>
			</g>
		</g>
		<g>
			<g>
				<g>
					<circle fill="#F3F3F3" cx="42.7" cy="42.7" r="1.6"/>
				</g>
			</g>
		</g>
	</g>
</g>
</svg>
