<?xml version="1.0" encoding="utf-8"?>
<!-- Generator: Adobe Illustrator 20.1.0, SVG Export Plug-In . SVG Version: 6.00 Build 0)  -->
<!DOCTYPE svg PUBLIC "-//W3C//DTD SVG 1.1//EN" "http://www.w3.org/Graphics/SVG/1.1/DTD/svg11.dtd">
<svg version="1.1" id="Layer_1" xmlns="http://www.w3.org/2000/svg" xmlns:xlink="http://www.w3.org/1999/xlink" x="0px" y="0px"
	 viewBox="0 0 49 49" enable-background="new 0 0 49 49" xml:space="preserve">
<g>
	<rect x="24.5" y="6.8" fill="#E4EAEF" width="9.6" height="41.6"/>
	<rect x="14.9" y="6.8" fill="#F2F2F2" width="9.6" height="41.6"/>
	<path fill="#CDD6E0" d="M48.5,13.3v33.2c0,1.1-0.9,2-2,2H34.1V11.3h12.4C47.6,11.3,48.5,12.1,48.5,13.3z"/>
	<path fill="#CDD6E0" d="M14.9,48.5H1.4c-0.5,0-0.9-0.4-0.9-0.9V12.1c0-0.5,0.4-0.9,0.9-0.9h13.5V48.5z"/>
	<rect x="18.3" y="4" fill="#CDD6E0" width="12.5" height="2.9"/>
	<rect x="23.6" y="0.5" fill="#ACB3BA" width="1.7" height="3.5"/>
	<g>
		<rect x="18" y="35.5" fill="#40596B" width="6.5" height="13"/>
		<rect x="24.5" y="35.5" fill="#40596B" width="6.5" height="13"/>
	</g>
	<g>
		<rect x="18.5" y="16.3" fill="#54C0EB" width="3.2" height="3.1"/>
		<rect x="18.5" y="22.9" fill="#54C0EB" width="3.2" height="3.1"/>
		<rect x="18.5" y="29.5" fill="#54C0EB" width="3.2" height="3.1"/>
		<rect x="27.3" y="16.3" fill="#54C0EB" width="3.2" height="3.1"/>
		<rect x="27.3" y="22.9" fill="#54C0EB" width="3.2" height="3.1"/>
		<rect x="27.3" y="29.5" fill="#54C0EB" width="3.2" height="3.1"/>
		<rect x="18.5" y="9.7" fill="#54C0EB" width="3.2" height="3.1"/>
		<rect x="27.3" y="9.7" fill="#54C0EB" width="3.2" height="3.1"/>
	</g>
	<g>
		<rect x="36.8" y="24.5" fill="#F2F2F2" width="3.2" height="3.1"/>
		<rect x="36.8" y="32.1" fill="#F2F2F2" width="3.2" height="3.1"/>
		<rect x="36.8" y="39.7" fill="#F2F2F2" width="3.2" height="3.1"/>
		<rect x="42.6" y="24.5" fill="#F2F2F2" width="3.2" height="3.1"/>
		<rect x="42.6" y="32.1" fill="#F2F2F2" width="3.2" height="3.1"/>
		<rect x="42.6" y="39.7" fill="#F2F2F2" width="3.2" height="3.1"/>
		<rect x="36.8" y="16.9" fill="#F2F2F2" width="3.2" height="3.1"/>
		<rect x="42.6" y="16.9" fill="#F2F2F2" width="3.2" height="3.1"/>
	</g>
	<g>
		<rect x="3.2" y="24.5" fill="#F2F2F2" width="3.2" height="3.1"/>
		<rect x="3.2" y="32.1" fill="#F2F2F2" width="3.2" height="3.1"/>
		<rect x="3.2" y="39.7" fill="#F2F2F2" width="3.2" height="3.1"/>
		<rect x="9" y="24.5" fill="#F2F2F2" width="3.2" height="3.1"/>
		<rect x="9" y="32.1" fill="#F2F2F2" width="3.2" height="3.1"/>
		<rect x="9" y="39.7" fill="#F2F2F2" width="3.2" height="3.1"/>
		<rect x="3.2" y="16.9" fill="#F2F2F2" width="3.2" height="3.1"/>
		<rect x="9" y="16.9" fill="#F2F2F2" width="3.2" height="3.1"/>
	</g>
	<rect x="34.1" y="11.3" fill="#ACB3BA" width="1.5" height="37.2"/>
	<rect x="13.4" y="11.3" fill="#ACB3BA" width="1.5" height="37.2"/>
</g>
</svg>
