<?xml version="1.0" encoding="utf-8"?>
<!-- Generator: Adobe Illustrator 20.1.0, SVG Export Plug-In . SVG Version: 6.00 Build 0)  -->
<!DOCTYPE svg PUBLIC "-//W3C//DTD SVG 1.1//EN" "http://www.w3.org/Graphics/SVG/1.1/DTD/svg11.dtd">
<svg version="1.1" id="Layer_1" xmlns="http://www.w3.org/2000/svg" xmlns:xlink="http://www.w3.org/1999/xlink" x="0px" y="0px"
	 viewBox="0 0 49 49" enable-background="new 0 0 49 49" xml:space="preserve">
<g>
	<path fill="#40596B" d="M46.5,8h-44c-1.1,0-2,0.9-2,2v29.8c0,1.1,0.9,2,2,2h44c1.1,0,2-0.9,2-2V10C48.5,8.9,47.6,8,46.5,8z"/>
	<rect x="3.5" y="11" fill="#FFFFFF" width="42" height="27.7"/>
	<rect x="15.3" y="41.8" fill="#CDD6E0" width="18.3" height="5.4"/>
	<rect x="9.8" y="47.2" fill="#F2F2F2" width="29.4" height="1.3"/>
	<rect x="15.3" y="41.8" fill="#ACB3BA" width="18.3" height="1.5"/>
	<path fill="#F2F2F2" d="M41.9,11.7v25.4c0,0.9-0.7,1.6-1.6,1.6H8.6c-0.9,0-1.6-0.7-1.6-1.6V11.7H41.9z"/>
	<path fill="#FFFFFF" d="M24.7,18.8v3.8c-0.1,0-0.1,0-0.2,0s-0.1,0-0.2,0v-3.8H24.7z"/>
	<path fill="#FFFFFF" d="M24.7,33.4v3.8h-0.4v-3.8c0.1,0,0.1,0,0.2,0S24.6,33.4,24.7,33.4z"/>
	<path fill="#FFFFFF" d="M31.1,21.6l-2.7,2.7c-0.1-0.1-0.2-0.2-0.3-0.3l2.7-2.7L31.1,21.6z"/>
	<path fill="#FFFFFF" d="M20.8,32l-2.7,2.7l-0.3-0.3l2.7-2.7C20.6,31.8,20.7,31.9,20.8,32z"/>
	<path fill="#FFFFFF" d="M33.7,27.8v0.4h-3.7c0-0.1,0-0.1,0-0.2c0-0.1,0-0.1,0-0.2H33.7z"/>
	<path fill="#FFFFFF" d="M19.1,28c0,0.1,0,0.1,0,0.2h-3.7v-0.4h3.7C19.1,27.8,19.1,27.9,19.1,28z"/>
	<path fill="#FFFFFF" d="M31.1,34.3l-0.3,0.3L28.2,32c0.1-0.1,0.2-0.2,0.3-0.3L31.1,34.3z"/>
	<path fill="#FFFFFF" d="M20.8,24c-0.1,0.1-0.2,0.2-0.3,0.3l-2.7-2.7l0.3-0.3L20.8,24z"/>
	<path fill="#FFFFFF" d="M22.6,22.9c-0.1,0-0.2,0.1-0.4,0.2l-0.9-2.1l0.4-0.2L22.6,22.9z"/>
	<path fill="#FFFFFF" d="M27.6,35.1l-0.4,0.2l-0.9-2.1c0.1,0,0.2-0.1,0.4-0.2L27.6,35.1z"/>
	<path fill="#FFFFFF" d="M19.6,25.7c-0.1,0.1-0.1,0.2-0.2,0.4l-2.1-0.9l0.2-0.4L19.6,25.7z"/>
	<path fill="#FFFFFF" d="M31.7,30.8l-0.2,0.4l-2.1-0.9c0.1-0.1,0.1-0.2,0.2-0.4L31.7,30.8z"/>
	<path fill="#FFFFFF" d="M19.6,30.2l-2.1,0.9l-0.2-0.4l2.1-0.9C19.5,30,19.5,30.1,19.6,30.2z"/>
	<path fill="#FFFFFF" d="M31.7,25.2l-2.1,0.9c0-0.1-0.1-0.2-0.2-0.4l2.1-0.9L31.7,25.2z"/>
	<path fill="#FFFFFF" d="M22.6,33.1l-0.9,2.1l-0.4-0.2l0.9-2.1C22.4,33,22.5,33,22.6,33.1z"/>
	<path fill="#FFFFFF" d="M27.6,20.9L26.8,23c-0.1-0.1-0.2-0.1-0.4-0.2l0.9-2.1L27.6,20.9z"/>
	<path fill="#FFD15C" d="M39.9,0.5H9.1c-1.1,0-2,0.9-2,2v5.2h34.9V2.5C41.9,1.4,41,0.5,39.9,0.5z"/>
	<polygon fill="#40596B" points="31.6,26.7 33.5,33.5 35.2,31.8 36.8,33.5 38.3,32 36.7,30.3 38.3,28.6 	"/>
	<ellipse fill="#F8B64C" cx="20.2" cy="4.1" rx="1.2" ry="1.2"/>
	<ellipse fill="#FF7058" cx="15.6" cy="4.1" rx="1.2" ry="1.2"/>
	<ellipse fill="#F8B64C" cx="11" cy="4.1" rx="1.2" ry="1.2"/>
	<path fill="#E4EAEF" d="M41.9,12.5v4.7c-0.6,0.5-1.4,0.7-2.2,0.7c-2.1,0-3.8-1.7-3.8-3.8c0,2.1-1.7,3.8-3.8,3.8
		c-2.1,0-3.8-1.7-3.8-3.8c0,2.1-1.7,3.8-3.8,3.8s-3.8-1.7-3.8-3.8c0,2.1-1.7,3.8-3.8,3.8c-2.1,0-3.8-1.7-3.8-3.8
		c0,2.1-1.7,3.8-3.8,3.8c-0.8,0-1.6-0.3-2.2-0.7v-4.7H41.9z"/>
	<polygon fill="#FF7058" points="13.1,11.7 5.5,11.7 7.1,7.7 14,7.7 	"/>
	<polygon fill="#CDD6E0" points="20.7,11.7 13.1,11.7 14,7.7 21,7.7 	"/>
	<polygon fill="#FF7058" points="28.3,11.7 20.7,11.7 21,7.7 28,7.7 	"/>
	<polygon fill="#CDD6E0" points="35.9,11.7 28.3,11.7 28,7.7 35,7.7 	"/>
	<polygon fill="#FF7058" points="43.5,11.7 35.9,11.7 35,7.7 41.9,7.7 	"/>
	<g>
		<path fill="#ACB3BA" d="M13.1,13.4c0,2.1,1.7,3.8,3.8,3.8c2.1,0,3.8-1.7,3.8-3.8v-1.7h-7.6V13.4z"/>
		<path fill="#ACB3BA" d="M28.3,11.7v1.7c0,2.1,1.7,3.8,3.8,3.8c2.1,0,3.8-1.7,3.8-3.8v-1.7H28.3z"/>
	</g>
	<g>
		<path fill="#F1543F" d="M5.5,13.4c0,2.1,1.7,3.8,3.8,3.8s3.8-1.7,3.8-3.8v-1.7H5.5V13.4z"/>
		<path fill="#F1543F" d="M20.7,13.4c0,2.1,1.7,3.8,3.8,3.8c2.1,0,3.8-1.7,3.8-3.8v-1.7h-7.6V13.4z"/>
		<path fill="#F1543F" d="M35.9,11.7v1.7c0,2.1,1.7,3.8,3.8,3.8c2.1,0,3.8-1.7,3.8-3.8v-1.7H35.9z"/>
	</g>
	<ellipse fill="#FF7058" cx="24.5" cy="28" rx="5.9" ry="6"/>
	<path fill="#FFFFFF" d="M23.5,29.8l-0.2-0.7h4.6v-3.5h-5.5l-0.3-1.3h-1.6v0.6h1.2l1.4,5.5h5v-0.6H23.5z M27.3,26.1v2.3h-4.1
		l-0.6-2.3H27.3z"/>
	<g>
		<ellipse fill="#FFFFFF" cx="24.4" cy="31.5" rx="0.7" ry="0.7"/>
		<ellipse fill="#FFFFFF" cx="27" cy="31.5" rx="0.7" ry="0.7"/>
	</g>
</g>
</svg>
