<?xml version="1.0" encoding="utf-8"?>
<!-- Generator: Adobe Illustrator 20.1.0, SVG Export Plug-In . SVG Version: 6.00 Build 0)  -->
<!DOCTYPE svg PUBLIC "-//W3C//DTD SVG 1.1//EN" "http://www.w3.org/Graphics/SVG/1.1/DTD/svg11.dtd">
<svg version="1.1" id="Layer_1" xmlns="http://www.w3.org/2000/svg" xmlns:xlink="http://www.w3.org/1999/xlink" x="0px" y="0px"
	 viewBox="0 0 49 49" enable-background="new 0 0 49 49" xml:space="preserve">
<g>
	<path fill="#F2F2F2" d="M43.1,12.1L41.2,0.5H7.8L5.9,12.1c-1.7,10.7,5.9,20.5,16.4,21.7h0v10.9h-4.8c-1.1,0-1.9,0.9-1.9,1.9l0,0
		c0,1.1,0.9,1.9,1.9,1.9h13.9c1.1,0,1.9-0.9,1.9-1.9l0,0c0-1.1-0.9-1.9-1.9-1.9h-4.8V33.7h0C37.1,32.5,44.8,22.8,43.1,12.1z"/>
	<path fill="#FF7058" d="M7.2,14.5c-0.2,4.3,1.3,8.5,4.1,11.8c3.3,3.9,8.1,6.1,13.2,6.1s9.9-2.2,13.2-6.1c2.8-3.3,4.3-7.5,4.1-11.8
		H7.2z"/>
	<path fill="#F1543F" d="M39.7,14.5c-0.3,3.6-1.7,7-4.1,9.8c-3.3,3.9-8.1,6.1-13.2,6.1c-4.2,0-8.1-1.5-11.3-4.2c0,0,0.1,0.1,0.1,0.1
		c3.3,3.9,8.1,6.1,13.2,6.1s9.9-2.2,13.2-6.1c2.8-3.3,4.3-7.5,4.1-11.8H39.7z"/>
	<path fill="#FFFFFF" d="M21.9,20.1L18.8,17c-0.4-0.4-1.1-0.4-1.5,0l-3.1,3.1c-0.4,0.4-0.4,1.1,0,1.5l3.1,3.1c0.4,0.4,1.1,0.4,1.5,0
		l3.1-3.1C22.3,21.2,22.3,20.5,21.9,20.1z"/>
	<path fill="#FFFFFF" d="M28.5,23.2l-2.7-2.7c-0.3-0.3-0.9-0.3-1.3,0l-2.7,2.7c-0.3,0.3-0.3,0.9,0,1.3l2.7,2.7
		c0.3,0.3,0.9,0.3,1.3,0l2.7-2.7C28.8,24.1,28.8,23.5,28.5,23.2z"/>
</g>
</svg>
