<?xml version="1.0" encoding="utf-8"?>
<!-- Generator: Adobe Illustrator 18.0.0, SVG Export Plug-In . SVG Version: 6.00 Build 0)  -->
<!DOCTYPE svg PUBLIC "-//W3C//DTD SVG 1.1//EN" "http://www.w3.org/Graphics/SVG/1.1/DTD/svg11.dtd">
<svg version="1.1" id="Layer_1" xmlns="http://www.w3.org/2000/svg" xmlns:xlink="http://www.w3.org/1999/xlink" x="0px" y="0px"
	 viewBox="0 0 48 48" enable-background="new 0 0 48 48" xml:space="preserve">
<g>
	<path fill="#FF7058" d="M10.8,10.8c-2.2,2.2-2.2,5.7,0,7.9l7.9-7.9C16.5,8.6,13,8.6,10.8,10.8z"/>
	
		<rect x="29.8" y="32.9" transform="matrix(0.7071 -0.7071 0.7071 0.7071 -13.9845 33.7617)" fill="#CDD6E0" width="8" height="1.7"/>
	<circle fill="#CDD6E0" cx="42.8" cy="42.8" r="1.4"/>
	
		<rect x="40" y="38.5" transform="matrix(0.7071 -0.7071 0.7071 0.7071 -16.8628 40.7105)" fill="#CDD6E0" width="1.4" height="4.3"/>
	<path fill="#F2F2F2" d="M48.1,32.4c-4.4-3-10.4-2.6-14.3,1.3c-3.9,3.9-4.3,10-1.3,14.3L48.1,32.4z"/>
	<path fill="#F2F2F2" d="M37,29.3L29.3,37c-0.8,0.8-2,0.8-2.8,0L10.4,20.9c-0.8-0.8-0.8-2,0-2.8l7.7-7.7c0.8-0.8,2-0.8,2.8,0
		L37,26.5C37.8,27.3,37.8,28.5,37,29.3z"/>
	<path fill="#84DBFF" d="M25,35.5L13.3,47.2c-0.4,0.4-1,0.4-1.4,0L0.2,35.5c-0.4-0.4-0.4-1,0-1.4l11.7-11.7L25,35.5z"/>
	
		<rect x="15.1" y="32.7" transform="matrix(0.7071 -0.7071 0.7071 0.7071 -19.8974 23.2061)" fill="#54C0EB" width="6" height="5.9"/>
	<rect x="9.7" y="38" transform="matrix(0.7071 -0.7071 0.7071 0.7071 -25.2563 20.9864)" fill="#54C0EB" width="6" height="5.9"/>
	
		<rect x="8.8" y="26.4" transform="matrix(0.7071 -0.7071 0.7071 0.7071 -17.3061 16.9503)" fill="#54C0EB" width="6" height="5.9"/>
	<rect x="3.4" y="31.8" transform="matrix(0.7071 -0.7071 0.7071 0.7071 -22.665 14.7305)" fill="#54C0EB" width="6" height="5.9"/>
	<path fill="#84DBFF" d="M47.2,13.3L35.5,25L22.4,11.9L34.1,0.2c0.4-0.4,1-0.4,1.4,0l11.7,11.7C47.6,12.3,47.6,12.9,47.2,13.3z"/>
	<rect x="38" y="9.8" transform="matrix(0.7071 -0.7071 0.7071 0.7071 3.0193 32.6985)" fill="#54C0EB" width="6" height="5.9"/>
	
		<rect x="32.6" y="15.1" transform="matrix(0.7071 -0.7071 0.7071 0.7071 -2.3397 30.4783)" fill="#54C0EB" width="6" height="5.9"/>
	<rect x="31.7" y="3.5" transform="matrix(0.7071 -0.7071 0.7071 0.7071 5.6105 26.4427)" fill="#54C0EB" width="6" height="5.9"/>
	<rect x="26.4" y="8.9" transform="matrix(0.7071 -0.7071 0.7071 0.7071 0.2515 24.2226)" fill="#54C0EB" width="6" height="5.9"/>
</g>
</svg>
