<?xml version="1.0" encoding="utf-8"?>
<!-- Generator: Adobe Illustrator 18.0.0, SVG Export Plug-In . SVG Version: 6.00 Build 0)  -->
<!DOCTYPE svg PUBLIC "-//W3C//DTD SVG 1.1//EN" "http://www.w3.org/Graphics/SVG/1.1/DTD/svg11.dtd">
<svg version="1.1" id="Layer_1" xmlns="http://www.w3.org/2000/svg" xmlns:xlink="http://www.w3.org/1999/xlink" x="0px" y="0px"
	 viewBox="0 0 48 48" enable-background="new 0 0 48 48" xml:space="preserve">
<g>
	<g>
		<g>
			<g>
				<path fill="#FFD15C" d="M18,34.4L18,34.4c1.5,0.9,3.1,1.3,4.9,1.3l8.7,0c1.3,0,2.5-0.9,2.8-2.2c0.3-1.7-1-3.3-2.7-3.3h2
					c1.5,0,2.8-1.1,2.9-2.6c0.1-1.6-1.2-2.9-2.7-2.9h1.5c1.5,0,2.8-1.1,2.9-2.6c0.1-1.6-1.2-2.9-2.7-2.9h9.7c1.5,0,2.8-1.1,2.9-2.6
					c0.1-1.6-1.2-2.9-2.7-2.9H30.4c1.5,0,2.8-1.3,2.7-2.9c-0.1-1.5-1.4-2.6-2.9-2.6h-5.1c-1.7,0-3.2,0.7-4.3,2l-3.4,4H13v19.9H18z"
					/>
			</g>
			<g>
				<g>
					<rect x="12.8" y="14.1" fill="#F3F3F3" width="3.3" height="23.2"/>
				</g>
				<g>
					<rect x="0" y="11.8" fill="#415A6B" width="12.8" height="27.7"/>
				</g>
			</g>
		</g>
		<g>
			<circle fill="#344A5E" cx="7.1" cy="34.4" r="2.4"/>
		</g>
	</g>
</g>
</svg>
