<?xml version="1.0" encoding="utf-8"?>
<!-- Generator: Adobe Illustrator 19.0.1, SVG Export Plug-In . SVG Version: 6.00 Build 0)  -->
<svg version="1.1" id="Layer_1" xmlns="http://www.w3.org/2000/svg" xmlns:xlink="http://www.w3.org/1999/xlink" x="0px" y="0px"
	 viewBox="0 0 48 48" style="enable-background:new 0 0 48 48;" xml:space="preserve">
<style type="text/css">
	.st0{fill:#66C6B9;}
	.st1{fill:#F3F3F3;}
	.st2{fill:#415A6B;}
	.st3{fill:#CED6E0;}
	.st4{fill:#F3705A;}
	.st5{fill:#E8EAE9;}
	.st6{fill:#4ABAA5;}
	.st7{fill:#F05540;}
	.st8{fill:#FFD15C;}
	.st9{fill:#55C0EB;}
	.st10{fill:#8AD7F8;}
	.st11{fill:#344A5E;}
	.st12{fill:#FFFFFF;}
	.st13{fill:#F7B64C;}
	.st14{fill:#ADB3BA;}
	.st15{fill:#38A892;}
	.st16{fill:#ED9845;}
	.st17{fill:#2D4251;}
	.st18{fill:#304556;}
	.st19{fill:#A5AAAD;}
	.st20{fill:#2D4456;}
	.st21{fill:#4FB0E0;}
	.st22{fill:#2D4354;}
	.st23{fill:#E54C38;}
	.st24{fill:#2B4456;}
	.st25{fill:#2B404F;}
</style>
<g>
	<g>
		<path class="st1" d="M4.8,16.4c0-3.3,2.7-6,6-6c3.3,0,6,2.7,6,6c0,3.3-2.7,6-6,6C7.5,22.5,4.8,19.8,4.8,16.4z"/>
		<path class="st1" d="M28.3,12.7c0-3.9,3.1-7,7-7c3.9,0,7,3.1,7,7c0,3.9-3.2,7-7,7C31.4,19.7,28.3,16.6,28.3,12.7z"/>
		<path class="st1" d="M17.1,36.2c0-3.6,2.9-6.6,6.6-6.6c3.6,0,6.6,2.9,6.6,6.6c0,3.6-2.9,6.6-6.6,6.6
			C20.1,42.7,17.1,39.8,17.1,36.2z"/>
		<g>
			<g>
				<g>
					<path class="st11" d="M28.2,43.4c-0.1-0.5,0-1.8,0-2.5c0-0.8-0.2-1.5-0.2-1.5c-0.3-0.7-1.5-0.9-1.7-0.4
						c-0.3,0.4-0.4,2.5-0.4,3.1c0,0.3,0,0.9,0,1.4H28.2z"/>
				</g>
				<g>
					<path class="st11" d="M19.4,43.4l-0.1-2l1.1-3.1l-0.8-0.1c0,0,0,0,0,0c-0.5,0.7-0.7,1.5-0.8,2.3l-0.3,2.9H19.4z"/>
				</g>
				<g>
					<path class="st8" d="M21.6,33c0,0-0.1,0.5,0,1.2c0.1,0.6,0.1,1.5,1,2.4v0.6c0,0.6-0.3,1.2-0.8,1.5c0,0,0,0,0,0
						c-0.8,0.5-0.8,0.5-0.8,0.5l3.3,1.1l0.8-2.6c0,0-0.4-0.5-0.3-1.4c0.1-0.9,0.1-2.4,0.1-2.4s-0.5-1.9-1.4-2S22,32.2,21.6,33z"/>
				</g>
				<g>
					<path class="st5" d="M22.3,43.4l1.4-4.2c-1.2,0.4-2.1,0-2-0.7L20.2,41l-0.3,2.4H22.3z"/>
				</g>
				<g>
					<path class="st13" d="M23.5,36.6c-0.6,0.4-1-0.1-1-0.1v0.6c0,0.6-0.3,1.2-0.8,1.5c0,0,0,0,0,0c-0.1,0-0.1,0.1-0.2,0.1
						c0.5-0.1,1.1-0.3,1.5-0.8c1.3-1.2,1.5-2.4,1.5-2.4S24.1,36.3,23.5,36.6z"/>
				</g>
				<g>
					<path class="st2" d="M20.5,43.4c0-0.1,0-0.2,0-0.3c0-0.9,0.1-2.1,0.7-3.3c0.6-1.2,0.7-1.3,1.1-1.8c0.4-0.5,0.3-1,0.3-1
						c-0.3,0.6-1.3,0.7-1.3,0.7c-1-0.2-1.6,0.4-1.6,0.4c0.1,0.4,0,1.1-0.2,1.9c-0.3,1.1-0.4,2.3-0.4,3.4H20.5z"/>
				</g>
				<g>
					<path class="st2" d="M25.9,43.4c0.3-0.7,0.4-1.2,0.4-1.5c0-0.5-0.7-2.4,0.7-3c0,0,0.6-0.2,1,0.5c0,0,0-0.4-0.7-0.8
						c-0.7-0.4-2.1-0.9-2.6-1.5c0,0-0.6,1-1.5,1.7c-0.9,0.7-1.8,2.6-2.2,3.8c-0.1,0.2-0.1,0.5-0.2,0.8H25.9z"/>
				</g>
				<g>
					<path class="st4" d="M21.9,32.8c0.5-0.6,1.2-0.9,1.2-0.9s0.5,0.1,0.8,1c0.3,0.8,0.6,2.1,0.7,2.3c0.1,0.2,0.1,2-0.1,3
						c-0.2,1-0.3,1.5-0.2,2.6c0.1,1.1,1.3,2.4,1.3,2.4s-0.5-1.8,0.6-3.4c0.5-0.7,0.5-3.1,0.3-4.8c-0.2-1.7-0.9-3.3-2.1-3.8
						c-1.2-0.6-2.5,0.7-2.8,1.3c-0.3,0.6-0.2,1.4,0,1.8C21.5,34.2,21.4,33.4,21.9,32.8z"/>
				</g>
			</g>
			<g>
				<g>
					<g>
						<g>
							<g>
								<path class="st3" d="M8.5,23.4c-0.1-0.2-0.1-0.3-0.1-0.5v-3.3c0-0.7,0.5-1.2,1.2-1.2h2.6c0.7,0,1.2,0.5,1.2,1.2v3.3
									c0,0.2,0,0.4-0.1,0.5H8.5z"/>
							</g>
						</g>
						<g>
							<g>
								<g>
									<polygon class="st4" points="10,23.4 10.5,19.6 11.3,19.6 11.7,23.4 									"/>
								</g>
							</g>
							<g>
								<polygon class="st4" points="10.5,19.6 10,19.2 10.9,18.4 11.7,19.2 11.3,19.6 								"/>
							</g>
						</g>
						<g>
							<g>
								<g>
									<path class="st11" d="M5.2,23.4l0.9-3.9c0.1-0.4,0.4-0.7,0.8-0.8L9,18.3l1,5.1H5.2z"/>
								</g>
							</g>
							<g>
								<g>
									<g>
										<path class="st1" d="M9.6,17.5c0,0,0,0.2,0.6,0.5s0.7,0.4,0.7,0.4l-1.2,1.2c0,0-0.5-1.2-0.5-1.2S9.5,17.7,9.6,17.5z"/>
									</g>
								</g>
							</g>
							<g>
								<g>
									<path class="st2" d="M9.5,23.4c-0.2-0.5-0.3-0.9-0.4-1.1c-0.3-0.8-1-2.9-1-2.9l0.6-0.3l-0.4-0.1c0,0,0.3-0.5,0.6-0.7
										c0.3-0.2,0.3-0.4,0.5-0.5c0,0,0,0.6,0.1,0.9c0.1,0.3,0.5,2.6,0.6,3.3c0,0.2,0.1,0.8,0.2,1.4H9.5z"/>
								</g>
							</g>
						</g>
						<g>
							<g>
								<g>
									<path class="st11" d="M11.7,23.4l1-5.1l2.1,0.4c0.4,0.1,0.7,0.4,0.8,0.8l0.9,3.9H11.7z"/>
								</g>
							</g>
							<g>
								<g>
									<g>
										<path class="st1" d="M12.2,17.5c0,0,0,0.2-0.6,0.5s-0.7,0.4-0.7,0.4l1.2,1.2c0,0,0.5-1.2,0.5-1.2S12.2,17.7,12.2,17.5z"/>
									</g>
								</g>
							</g>
							<g>
								<g>
									<path class="st2" d="M12.6,22.3c-0.1,0.2-0.2,0.6-0.4,1.1h-0.8c0.1-0.7,0.2-1.2,0.2-1.4c0.1-0.7,0.5-2.9,0.6-3.3
										c0.1-0.3,0.1-0.9,0.1-0.9c0.2,0.1,0.2,0.3,0.5,0.5c0.3,0.2,0.6,0.7,0.6,0.7L13,19.1l0.6,0.3C13.6,19.4,12.9,21.5,12.6,22.3
										z"/>
								</g>
							</g>
						</g>
					</g>
					<g>
						<g>
							<path class="st13" d="M12.2,15.6l0,1.9c0,0,0,0.2-0.6,0.5c-0.6,0.3-0.7,0.4-0.7,0.4s-0.1-0.1-0.7-0.4
								c-0.6-0.3-0.6-0.5-0.6-0.5v-1.9H12.2z"/>
						</g>
					</g>
					<g>
						<g>
							<path class="st8" d="M9.4,13.7c0-0.2,0.1-0.4,0.2-0.5c0.1-0.1,0.2-0.2,0.4-0.3c0.1-0.1,0.3-0.1,0.5-0.1c0.3,0,0.6,0,0.9,0
								c0,0,0,0,0,0c0.2-0.1,0.4-0.1,0.6-0.1c0.2,0,0.5,0.1,0.6,0.3c0.1,0.2,0.1,0.4,0.1,0.6c0,0.2-0.1,0.4-0.2,0.5
								c0.1,0.3,0.2,0.7,0.2,1.1c0,1.3-0.8,2.4-1.9,2.4S9,16.6,9,15.3C9,14.7,9.2,14.2,9.4,13.7z"/>
						</g>
					</g>
					<g>
						<g>
							
								<ellipse transform="matrix(-0.9894 0.1455 -0.1455 -0.9894 20.334 29.1009)" class="st8" cx="9.1" cy="15.3" rx="0.3" ry="0.7"/>
						</g>
					</g>
					<g>
						<g>
							
								<ellipse transform="matrix(0.9894 0.1455 -0.1455 0.9894 2.3598 -1.6834)" class="st8" cx="12.7" cy="15.3" rx="0.3" ry="0.7"/>
						</g>
					</g>
					<g>
						<g>
							<path class="st2" d="M12.6,15.8L12.6,15.8c-0.1,0,0.1-0.4-0.1-0.9c-0.2-0.5-0.2-0.6-0.2-0.9c0-0.3,0.1-0.7-0.4-0.8
								c-0.5-0.1-1.7,0-2,0c-0.4,0.1-0.5,0.6-0.5,0.8c0.1,0.2-0.1,0.6-0.1,0.9c0,0.3,0,0.9,0,0.9l-0.1,0c0,0,0-0.4-0.1-0.7
								c-0.1-0.2-0.2-0.5-0.2-1.1c0-0.7,0.2-0.9,0.2-0.9s-0.3-0.8,0.7-1.2s1.5-0.1,2,0.2c0.5,0.3,0.9,0.8,1.1,1.2
								c0.1,0.3-0.1,1.7-0.2,1.9C12.7,15.2,12.6,15.8,12.6,15.8z"/>
						</g>
					</g>
				</g>
				<g>
					<g>
						<g>
							<g>
								<path class="st8" d="M36.5,11.2c-0.1,0.4,0,0.8,0.2,0.8c0.2,0,0.5-0.3,0.6-0.7c0.1-0.4,0-0.8-0.2-0.8
									C36.8,10.5,36.6,10.8,36.5,11.2z"/>
							</g>
						</g>
						<g>
							<g>
								<path class="st8" d="M33.1,9.8l0,0.5c0,0-0.4,2,0.4,3v2h2.1c0.4-0.4,0.6-0.6,0.9-0.9l0-1.3c0,0,0.1-1.1,0.1-1.4s0-0.5,0-0.5
									s0.5-1.4,0.3-2.2c-0.2-0.7-2-1.6-2.6-1.4S33.1,8.7,33.1,9.8z"/>
							</g>
						</g>
						<g>
							<g>
								<path class="st2" d="M36.7,11.3c0,0,0.1-0.4,0-0.7c-0.1-0.3-0.3-0.7-0.3-1.2c0-0.5,0-0.7-0.3-0.8c-0.3-0.2-0.9-0.3-1.3-0.2
									s-0.8-0.1-1,0c-0.2,0.2-0.5,0.3-0.5,0.6c-0.1,0.3-0.1,0.8-0.1,1c0,0.1,0,0.3,0,0.3s-0.3-1.8,0.6-2.7c0.9-0.9,2.1-0.5,2.8,0
									c0.7,0.4,0.9,1.1,0.9,1.3c0,0.3-0.2,1.3-0.4,1.8C37,10.7,37,10.8,36.7,11.3L36.7,11.3z"/>
							</g>
						</g>
						<g>
							<path class="st13" d="M33.5,13.3c0,0,0.5,0.5,1.2,0.5c0.7,0,1.7-0.7,1.9-1.3c0,0-0.4,1.2-1.2,2c-0.4,0.4-1.1,0.7-1.6,0.9
								h-0.3V13.3z"/>
						</g>
						<g>
							<g>
								<polygon class="st3" points="34.8,15 34.3,14.9 34.2,14.9 33.1,15 32.3,19.7 34,19.8 35.2,15.2 								"/>
							</g>
						</g>
						<g>
							<g>
								<path class="st7" d="M32.4,20.2c0-0.1,0.1-0.4,0.1-0.8c0.1-1,0.8-2.9,0.8-2.9l0.8-0.9l0.3,0.9l-0.7,3.7H32.4z"/>
							</g>
						</g>
						<g>
							<g>
								<path class="st4" d="M34.7,15.9l-0.5,0.7c0,0-0.4-0.4-0.9-0.1c0,0,0.3-1.4,0.3-1.4c0,0,0.5-0.1,0.5-0.1l0.2,0
									C34.4,15,34.8,15.6,34.7,15.9z"/>
							</g>
						</g>
						<g>
							<g>
								<g>
									<path class="st1" d="M36.6,13.1c0,0,0,0.2-0.4,0.5c-0.3,0.3-0.9,0.6-1.3,0.9s-0.5,0.4-0.5,0.4l0.5,1.5l2.2-2.1
										C36.9,14.3,36.8,13.6,36.6,13.1z"/>
								</g>
							</g>
							<g>
								<g>
									<path class="st1" d="M33.5,13.7c0,0,0,0.4,0.2,0.7c0.2,0.3,0.5,0.5,0.5,0.5s-0.4,0.3-0.5,0.7c-0.1,0.3-0.4,0.6-0.4,0.6
										s-0.1-1.3-0.1-1.4S33.4,14.1,33.5,13.7z"/>
								</g>
							</g>
						</g>
					</g>
					<g>
						<g>
							<path class="st11" d="M38.2,15.8c-0.9,0.9-1.3,2-1.3,2.2c0,0.1,0,1.1,0,2.1H33l0.1-0.6c0,0,0.4-1.9,1.7-3.1
								c1.4-1.2,2.7-2.5,2.7-2.5s0.3,0.1,0.9,0.4c0.6,0.3,1.5,0.8,1.6,0.9C40,15.4,39.1,14.9,38.2,15.8z"/>
						</g>
					</g>
					<g>
						<g>
							<path class="st2" d="M30.8,20.2h-2.3c0.3-0.6,0.7-1.2,0.8-1.4c0.2-0.3,0.5-1.2,0.6-1.6s0.4-1,0.7-1.5
								c0.2-0.4,0.5-0.4,0.5-0.4l0.1,0.1c0,0-0.2,2.1-0.3,3.5C30.9,19.4,30.8,19.8,30.8,20.2z"/>
						</g>
					</g>
					<g>
						<g>
							<path class="st11" d="M32.3,18.1c0,0.4,0.3,1.3,0.6,2.1h-2.5c0-1,0-1.9,0-2.4c0-1.3,0.5-2.2,0.7-2.3c0.2-0.2,0.9-0.3,1.2-0.5
								c0.3-0.2,0.7-0.3,0.7-0.3S32.3,17.3,32.3,18.1z"/>
						</g>
					</g>
					<g>
						<g>
							<path class="st2" d="M33.2,16.7c0,0.1,0,0.2,0,0.3c0,0.3-0.1,2.2,0,2.8c0,0.1,0,0.2,0,0.3h-0.5c-0.3-0.7-0.5-1.4-0.7-2
								c-0.3-1.4-0.3-2.3-0.2-2.5l0.7-0.4l0-0.3c0,0,0.2-0.2,0.5-0.4c0.2-0.2,0.3-0.3,0.5-0.6c-0.1,0.2-0.1,0.5-0.1,0.8
								C33.3,15.5,33.3,16.1,33.2,16.7z"/>
						</g>
					</g>
					<g>
						<g>
							<path class="st2" d="M36.7,13.5c0,0-0.2,0.3-0.6,0.6c-0.4,0.3-2.2,2.1-2.5,2.8c-0.3,0.7-0.6,2.7-0.6,2.7s0.4-1.5,1.4-2.2
								c1.1-0.7,2.5-1.7,2.5-1.7l-0.2-0.3l0.7-0.2c0,0,0-0.7,0.1-0.9s-0.2-0.1-0.4-0.4C37.1,13.6,36.9,13.5,36.7,13.5z"/>
						</g>
					</g>
					<g>
						<g>
							<path class="st2" d="M39.9,20.2h-4.2c0.3-0.6,0.7-1.5,1.2-2.1c0.1-0.2,0.4-1.3,1.3-2.2c0.8-0.8,1.7-0.5,1.8-0.5c0,0,0,0,0,0
								l0,0c0,0,0.5,0.4,0.5,1.3c0.1,0.9-0.1,2.3-0.3,2.7C40.2,19.5,40.1,19.8,39.9,20.2z"/>
						</g>
					</g>
				</g>
				<path class="st10" d="M2.8,18.9c0.2,0.5,0.4,1,0.6,1.5L2.1,23l2.2,2.2l2.6-1.3c0.5,0.3,1,0.5,1.5,0.6l0.9,2.8h3.1l0.9-2.8
					c0.5-0.2,1-0.4,1.5-0.6l2.6,1.3l2.2-2.2l-1.3-2.6c0.3-0.5,0.5-1,0.6-1.5l2.8-0.9v-3.1L18.9,14c-0.2-0.5-0.4-1-0.6-1.5l1.3-2.6
					l-2.2-2.2L14.8,9c-0.5-0.3-1-0.5-1.5-0.6l-0.9-2.8H9.3L8.4,8.4C7.9,8.5,7.4,8.7,6.9,9L4.3,7.7L2.1,9.8l1.3,2.6
					c-0.3,0.5-0.5,1-0.6,1.5L0,14.9L0,18L2.8,18.9z M4.8,16.4c0-3.3,2.7-6,6-6c3.3,0,6,2.7,6,6c0,3.3-2.7,6-6,6
					C7.5,22.5,4.8,19.8,4.8,16.4z"/>
				<path class="st4" d="M25.9,15.6c0.2,0.6,0.4,1.2,0.7,1.8l-1.6,3.1l2.5,2.5l3.1-1.6c0.6,0.3,1.1,0.5,1.8,0.7l1.1,3.3h3.6l1.1-3.3
					c0.6-0.2,1.2-0.4,1.8-0.7l3.1,1.6l2.5-2.5L44,17.3c0.3-0.6,0.5-1.2,0.7-1.8l3.3-1.1v-3.6l-3.3-1.1c-0.2-0.6-0.4-1.2-0.7-1.8
					L45.6,5L43,2.4L39.9,4c-0.6-0.3-1.1-0.5-1.8-0.7L37.1,0l-3.6,0l-1.1,3.3c-0.6,0.2-1.2,0.4-1.8,0.7l-3.1-1.6L25.1,5l1.6,3.1
					c-0.3,0.6-0.5,1.2-0.7,1.8l-3.3,1.1v3.6L25.9,15.6z M28.3,12.7c0-3.9,3.1-7,7-7c3.9,0,7,3.1,7,7c0,3.9-3.2,7-7,7
					C31.4,19.7,28.3,16.6,28.3,12.7z"/>
				<path class="st0" d="M14.9,38.8c0.2,0.6,0.4,1.1,0.7,1.7l-1.5,2.9l2.4,2.4l2.9-1.5c0.5,0.3,1.1,0.5,1.6,0.7l1,3.1h3.4l1-3.1
					c0.6-0.2,1.1-0.4,1.6-0.7l2.9,1.5l2.4-2.4l-1.5-2.9c0.3-0.5,0.5-1.1,0.7-1.7l3-1v-3.4l-3.1-1c-0.2-0.6-0.4-1.1-0.7-1.6l1.5-2.9
					l-2.4-2.4L28,28c-0.5-0.3-1.1-0.5-1.6-0.7l-1-3.1H22l-1,3.1c-0.6,0.2-1.1,0.4-1.6,0.7l-2.9-1.5L14.1,29l1.5,2.9
					c-0.3,0.5-0.5,1.1-0.7,1.7l-3,1v3.4L14.9,38.8z M17.1,36.2c0-3.6,2.9-6.6,6.6-6.6c3.6,0,6.6,2.9,6.6,6.6c0,3.6-2.9,6.6-6.6,6.6
					C20.1,42.7,17.1,39.8,17.1,36.2z"/>
			</g>
		</g>
	</g>
</g>
</svg>
