<?xml version="1.0" encoding="utf-8"?>
<!-- Generator: Adobe Illustrator 18.0.0, SVG Export Plug-In . SVG Version: 6.00 Build 0)  -->
<!DOCTYPE svg PUBLIC "-//W3C//DTD SVG 1.1//EN" "http://www.w3.org/Graphics/SVG/1.1/DTD/svg11.dtd">
<svg version="1.1" id="Layer_1" xmlns="http://www.w3.org/2000/svg" xmlns:xlink="http://www.w3.org/1999/xlink" x="0px" y="0px"
	 viewBox="0 0 48 48" enable-background="new 0 0 48 48" xml:space="preserve">
<g>
	<g>
		<g>
			<path fill="#FFD15C" d="M27.2,33.3c0,0,0.4,2.1,0.2,2.5c-0.2,0.4-0.5,2-0.3,2.8c0.2,0.8,0.8,2.9,0.8,3.4s0,0.8,0,0.8
				s0,0.5,0.1,0.7c0.1,0.2-0.1,1.8-0.1,1.8l0,0.5l0.5,0.3l1.6,0l0.1-0.2c0,0-0.6-1.5-0.7-2c0-0.5,0.1-0.7,0-1
				c-0.2-0.3,0.1-2.3,0.1-2.3s0.5-2.8,0.2-3.6c0,0,0-0.6,0.2-0.9c0.2-0.3,0.6-2.9,0.6-2.9L27.2,33.3z"/>
		</g>
		<g>
			<path fill="#FFD15C" d="M30.6,33.8c0,0,0.5,2.8,0.6,3.3c0.1,0.5-0.4,1.4-0.4,1.4s-0.4,3.5-0.2,5.1c0.2,1.6-0.2,2.2-0.2,2.2
				s-0.2,0.8,0.4,1.1c0.6,0.3,1.1,0.2,1.1,0.2l0.9-0.2c0,0-0.8-1.1-0.7-1.8s0.6-2.3,0.6-2.3s1-3.4,0.9-6.2c0,0,0.3-1.2,0.3-1.6
				l0.8-2.7L30.6,33.8z"/>
		</g>
		<path fill="#F7B64C" d="M28.6,10.5c0,0,0.2,1.5-0.4,1.8c-0.6,0.3-1,0.9-1,0.9l0.8,2.6l2.3,1.8c0,0,2.3-0.7,2.3-0.8
			c0-0.1,0.7-1.9,0.7-1.9s-0.5-2.4-0.6-2.5c-0.1-0.1-1.9-1.1-1.9-1.1l-0.2-1.8l-1.9,0.2L28.6,10.5z"/>
		<g>
			<path fill="#FFD15C" d="M29.6,5.5l-0.7,0.3l-0.5,1c0,0-0.3,0.2-0.2,0.5c0,0.3-0.2,0.5-0.2,0.5s-0.3,0.6-0.2,1.2
				c0.1,0.5,0,0.9,0,1.1c0,0.1,0,0.1,0,0.2c0.1,0.1,0.4,0.4,1.1,0.3c1-0.1,1.7-0.4,1.8-1C30.7,9,31.2,8,31.2,8l-0.7-2.1L29.6,5.5"/>
		</g>
		<path fill="#FFD15C" d="M28.6,10.7"/>
		<g>
			<path fill="#F3705A" d="M28.6,11.4c0,0-0.2,3.2,0.8,4.4c0.2,0.2,0.4,0.5,0.5,0.9c0,0,0.9-1.5,2.3-1.7c0,0,0.4-2.4-0.1-3.2
				l1.9,0.8c0.7,0.3,1.2,0.9,1.3,1.7l0.4,2.9l0.6,3.7c0,0,0,1.9,0,2.7c0,0-1.6-0.5-1.8,0c0,0,1.6,4.4,1.8,5.6
				c0.1,1.2,0.3,3.8-0.3,4.3c0,0-0.6-0.5-1.5,0c-0.9,0.5-3.5,1-4.6,0.6c0,0-2.2,0.5-3.8-0.3c0,0-1.4-0.1-1.6-0.6c0,0-0.5-1.8,0.1-4
				c0.6-2.2,0.9-2.9,0.9-2.9l0.7-2.5c0,0-1.2-0.8-1.5,0.5c0,0-0.5-0.3-0.3-1.3c0,0-0.6-1.5,0.2-2.6l-0.1-4.5c0,0,1-2.9,3.5-3.6
				C27.7,12.2,28.1,11.6,28.6,11.4z"/>
		</g>
		<g>
			<path fill="#F7B64C" d="M34.4,23.4c0,0,0.5,2.4,0.4,3.1c0,0-0.6,0.9-0.5,1.4c0,0.4-0.2,1-0.2,1s-0.1,0.4,0.1,0.5
				c0,0,0.2,0.1,0.2-0.2l0.1-0.1l0.2-0.8l0.2,0.3c0,0,0,0.4,0.1,0.5c0,0-0.2,0.4-0.1,0.5c0,0-0.6,0-0.8,0.2c0,0-0.2,0.1-0.1,0.3
				l0.6,0l0.5,0c0.2,0,0.3-0.1,0.4-0.3l0.3-0.7c0.1-0.2,0.1-0.4,0.1-0.6l0-1.7l0.3-3.3l-1.4-0.6C34.9,22.8,34.4,22.5,34.4,23.4z"/>
		</g>
		<g>
			<path fill="#415A6B" d="M30.7,7.2c0.2,0.2,0.2,0.5,0.2,0.9c0,0.4-0.1,0.7-0.3,1.1c-0.3,0.7-1,2.3-0.7,3.3c0,0-0.9,0.9-0.3,1.8
				c0.5,0.9,1,0.8,1,0.8s-1.5-0.9-0.8-2c0,0,0,1,0.9,1.3c0,0-0.6,0.4,0.5,1.8c0,0,0.4,1.3-0.5,1c0,0,1.1,0.6,0.8-0.9
				c0,0-0.4-0.6-0.4-1c0,0,0.9,0.7,0.9,1.5c-0.1,0.8-0.6,0.8-0.6,0.8s0.6,0.1,0.7-0.5c0,0,0,0.7,0.5,0.7c0.5,0,0.7-0.5,0.7-0.6
				c0-0.1,0.9,0.5,0.4,1.1c0,0,0.8,0.3,0.8-0.5c0,0,1.2,0.4,0.5-1.2s-1-4.1-1-4.1s-0.1-1.9-0.6-2.4c0,0,0.7,0.2,0.5,1.3
				c0,0,0.6-0.9-0.5-1.5c0,0,0-3.6-1.8-4.7c-1.8-1-2.7,0.4-2.8,0.7c0,0,0,0,0,0c0.5-0.2,1,0,1.2,0.5C30.2,6.6,30.4,6.9,30.7,7.2z"/>
		</g>
		<g>
			<g>
				<path fill="#F7B64C" d="M24.5,23.8l0.1,0.3l1.3,3c0,0,0,0.1,0.1,0.1l0.2,0.2c0.1,0.1,0.2,0.1,0.3,0l0.1,0l0.1,0.1
					c0.1,0.1,0.2,0,0.3,0l0.6-0.6c0.1-0.1,0.1-0.3,0-0.5l-0.3-0.4l-1.2-1.3c0,0-0.3-0.4-0.3-1c0-0.2,0-0.4-0.2-0.5
					c-0.3-0.3-0.6-0.2-1,0.1C24.5,23.4,24.4,23.6,24.5,23.8z"/>
			</g>
			<g>
				<path fill="#F7B64C" d="M26.6,25.1c0,0,1.2,0.6,1,0.9c-0.2,0.3-0.6,0-0.6,0l-0.7-0.7L26.6,25.1z"/>
			</g>
		</g>
		<g>
			<g>
				<g>
					<g>
						<g>
							<path fill="#FFD15C" d="M15.1,16.2c0,0-0.5,2.1-1,2.8c-0.6,0.7-1.2,3.3-0.7,3.9c0.5,0.5,0.4,1.3,0.4,1.3s0,1,0.1,1.2
								s0.2,0.6-0.1,0.6c-0.3,0-0.5-0.4-0.5-0.8c0-0.4,0-0.7-0.1-0.9c0,0-0.2,0.3-0.2,0.5c0,0.3-0.2,1,0.2,1.3c0,0,0.3,0.3-0.1,0.4
								c-0.1-0.1-0.2-0.1-0.4-0.1c-0.1,0-0.2-0.1-0.2-0.2l-0.2-0.7l-0.1,0c-0.1,0-0.2,0-0.3-0.1l-0.3-0.7c0-0.1,0-0.1,0-0.2l0.1-2.5
								c0,0,0.8-5.7,1.4-6.9l2,1.1L15.1,16.2z"/>
						</g>
						<g>
							<path fill="#F3F3F3" d="M14,25.7c0-0.1-0.1-0.3-0.1-0.3c-0.1,0.1-0.4,0.1-0.4,0.1c0.1,0.1,0.1,0.2,0.1,0.3
								C13.7,26.1,14,26,14,25.7z"/>
						</g>
					</g>
					<g>
						<path fill="#FFD15C" d="M23.6,17.9c0,0,0.3,1.9,0.9,2.6s1.6,3.2,1.5,3.4c0,0.2-0.1,0.6-0.1,0.6l-0.3,1l-0.3,0.8
							c0,0-0.3,0.6-0.1,0.7c0.2,0.1,0.4-0.1,0.4-0.1l0.1,0.1c0.1,0.1,0.2,0.2,0.4,0.1l0.9-0.5c0.2-0.1,0.4-0.3,0.4-0.6l0.1-1.5
							l-0.7-4l-0.6-2.9l-1-1.3L23.6,17.9z"/>
					</g>
					<path fill="#F7B64C" d="M26.3,26c0,0,0.1,0.1,0.1,0.1c0,0,0.1,0.1,0.1,0c0,0,0-0.1,0-0.1c0.1,0,0.2,0,0.2,0
						c-0.1,0-0.2-0.1-0.2-0.1c0,0-0.1,0-0.1,0c0.1,0,0.2-0.1,0.2-0.1c-0.1,0-0.2,0-0.3,0c0-0.1,0-0.3,0-0.4c0,0.1,0,0.3-0.1,0.4
						c0,0-0.1,0.1-0.1,0.1C26,25.9,26,26,25.9,26.1c-0.1,0.3-0.2,0.5-0.2,0.8c0,0,0,0,0,0l0,0c0.1-0.2,0.1-0.5,0.2-0.7
						c0-0.1,0-0.1,0.1-0.2c0-0.1,0.1-0.1,0.1-0.1C26.2,25.9,26.2,26,26.3,26z"/>
					<path fill="#ADB3BA" d="M19.8,5.3c0,0,0.2-0.6,0.5-0.6c0.3,0.1,0.2,0,0.2,0S20.1,5.2,19.8,5.3L19.8,5.3z"/>
					<path fill="#F7B64C" d="M22,2.7l-0.6,0.6c0,0-0.7,1.6-1.7,2l0.1,2.1l0.5,3.4l0.6,0.7l1.6-2.8c0,0-0.4-0.8,0.2-1.5
						c0.6-0.7,1-0.9,1-0.9l0.9-3L22,2.7"/>
					<path fill="#E8EAE9" d="M20.7,7.3c0,0,0.1,0,0.1,0.8c0,0.7,0.2,1.9,0.2,1.9l-0.5,10.9c0,0-5.1-0.1-5.9-0.8c0,0-0.8-0.5-0.3-1.5
						c0,0,0.9-1.2,0.9-2.4c0,0-1.9-0.1-2.2-1.1c0,0,0.1-0.1,0-0.5c-0.1-0.5-0.2-1.6,0.2-1.9c0,0,0.9-6.2,3.3-6.5
						c2.4-0.3,3.1-0.9,3.1-0.9S19.4,7.2,20.7,7.3z"/>
					<path fill="#F3F3F3" d="M20.2,4.7c0,0-0.5,0.1-0.3,0.7c0.2,0.7,0.7,1.8,0.7,1.8s-0.3,0.1-0.5,0.7l-0.2,0.4c0,0-0.7-1.9-0.7-2.7
						c0-0.1,0-0.2,0.1-0.3c0.1-0.1,0.2-0.2,0.3-0.3c0.1-0.1,0.2-0.2,0.2-0.3C19.9,4.8,20,4.7,20.2,4.7z"/>
					<g>
						<path fill="#CED6E0" d="M15.1,15.5c-0.4-0.1-0.8-0.2-1.1-0.5l0.1,0C14.4,15.1,14.8,15.3,15.1,15.5z"/>
					</g>
					<g>
						<path fill="#CED6E0" d="M14.1,15.6c-0.4,0-0.8-0.1-1.1-0.3C13.3,15.4,13.7,15.3,14.1,15.6z"/>
					</g>
					<path fill="#CED6E0" d="M13.6,14.6c0.6,0,1.2,0.1,1.7,0.3C14.8,14.5,14.1,14.4,13.6,14.6"/>
					<g>
						<path fill="#CED6E0" d="M13,14.3C13.1,14.3,13.1,14.3,13,14.3C13.1,14.3,13.1,14.3,13,14.3L13,14.3z"/>
						<path fill="#CED6E0" d="M15,14.3c-0.6-0.2-1.3-0.3-1.9-0.1c0.5-0.3,1.1-0.5,1.6-0.6c-0.3,0.1-0.6,0.2-0.8,0.3
							C14.3,14,14.7,14.1,15,14.3z"/>
					</g>
					<path fill="#CED6E0" d="M15.8,15c0.2-0.5,0.3-2.2,0.3-2.2c0.3-0.2,0.5-2.2,0.5-2.2c-0.1-0.2,0.2-0.7,0.2-0.7s0.2-0.5,0.1-0.4
						c-0.1,0.1-0.2,0.3-0.2,0.3c-0.1-0.2-0.2-0.1-0.2-0.1c0.3,0.3,0,0.6,0,0.6c0.1,1-0.5,2.3-0.5,2.3c-0.3-0.7-0.3-0.2-0.3-0.2
						c0.4,1.2-0.2,2.9-0.2,2.9c-0.3-0.3-0.2-0.2-0.2,0.3c0,0.2-0.1,0.3-0.2,0.5c0,0.1,0,0.1,0,0.2c0.2-0.2,0.3-0.4,0.3-0.4
						S15.7,15.5,15.8,15z"/>
					<g>
						<path fill="#E8EAE9" d="M19.7,21.6c0,0,0.3-3.2,0.2-3.4c-0.1-0.2,0.3-7.2,1-8.2c0.7-1,1.3-1.7,1.6-1.8c0.6-0.1,0,0,0,0
							l0.8-1.5l2.2,1.9c0,0,0.5,2,0.4,3.8c-0.1,1.8,0,3.1,0,3.1l0.3,2c0,0-0.6,0.1-1,0.3c-0.3,0.2-1.6,0.3-1.7,0.1
							c-0.1-0.2-0.4-1.3-0.3-1.5c0-0.2,0-0.7,0-0.7c-0.1-0.1-0.3,1.4-0.2,2.1c0.1,0.6,0.1,2.3,0.3,2.6
							C23.7,21.4,19.7,21.6,19.7,21.6z"/>
					</g>
					<g>
						<g>
							<path fill="#CED6E0" d="M22.5,8.2C22.2,8.3,21.6,9,20.9,10c-0.7,1-1,8-1,8.2c0.1,0.2-0.2,3.4-0.2,3.4l0,0l0.8-0.2
								c0.2-2.5,0.2-3.2,0.2-3.4c0-0.9,0.3-6.4,0.7-7.7c0.3-1.1,1-1.9,1.2-2.2C22.6,8.2,22.6,8.2,22.5,8.2z"/>
						</g>
						<path fill="#CED6E0" d="M22.7,8.2C22.7,8.1,22.7,8.1,22.7,8.2c0.1-0.1,0-0.1,0-0.2l-0.1,0.3C22.5,8.2,22.6,8.2,22.7,8.2z"/>
					</g>
					<g>
						<path fill="#ADB3BA" d="M23.5,6.7L23,8.4c0,0,0,0,0,0c-1.1,0-1.8,1.4-2.1,1.6C21.2,9.5,22.5,7.1,23.5,6.7z"/>
					</g>
					<g>
						<path fill="#CED6E0" d="M24.4,11.8C24.4,11.8,24.4,11.8,24.4,11.8C24.4,11.8,24.4,11.8,24.4,11.8z"/>
						<path fill="#CED6E0" d="M24.4,11.8C24.3,11.8,24.3,11.8,24.4,11.8c-0.2,0.1-0.6,0.6-0.4,1.2c0,0-0.9,1.1-0.7,1.8l-0.2,1.1
							c0,0,0,0,0,0c0,0,0.1,0.5,0,0.7c0,0.1,0.1,0.8,0.2,1.2c0-0.2,0.2-0.5,0.5-0.6c0.6-0.1,0-0.1,0-0.1s-0.9-0.4-0.1-0.6
							c0.8-0.3,1.1-0.3,1.1-0.3s-1,0-1.2,0.1c0,0,0.6-0.8,0.9-0.9c0.4,0,0,0,0,0s-0.8,0.2-1.2,0.7c0,0,0-1,0.3-1.1
							c0,0-0.4-0.4,0-1.1c0.5-0.7,0.5-0.8,0.5-0.8s-0.2-0.9,0.2-0.9c0.4-0.1,0.6-0.1,0.7-0.3c0,0-0.4,0.1-0.6,0.1
							c0,0,0.6-0.8,0.7-0.9C25.2,11,24.6,11.6,24.4,11.8z"/>
					</g>
					<path fill="#FFD15C" d="M24.2,7.5c-0.1,0.2-0.5,0.4-1.3-0.7c-1-1.4,0.5-3,0.5-3l0,0.1L24,1.8l2.6,0.3l0.5,1.6
						c0,1.3-1,1.8-1,1.8s-0.2,0.7-0.3,1c-0.2,0.3-0.4,0-0.4,0l-0.2,0.3c-0.7-0.1-0.7,0.4-0.7,0.4L24.2,7.5z"/>
					<path fill="#344A5E" d="M24,4.7l0.2,0.1c0,0,0.4-0.5,0.9-0.6c0.5-0.1,0.8-0.8,0.8-1.4c0,0,0.7,1.1,1.2,0.9c0,0,1.3-0.5,0.4-1.8
						c-0.9-1.3-2.4-2.2-3.7-1.8c-1.3,0.4-2.5,2.3-2.4,3.2c0.1,0.8,1.1,0.6,1.6,0.2c0.1-0.1,0.2-0.1,0.3-0.1c0.5,0,0.8,0.5,0.7,1
						L24,4.7z"/>
					<path fill="#FFD15C" d="M24.2,4.4c-0.1,0.4-0.4,0.7-0.7,0.5c-0.3-0.1-0.3-0.6-0.2-1.1c0.1-0.4,0.4-0.7,0.7-0.5
						C24.2,3.5,24.3,3.9,24.2,4.4z"/>
					<g>
						<path fill="#CED6E0" d="M21.4,9.3"/>
					</g>
					<g>
						<path fill="#F3F3F3" d="M25.6,26.7C25.6,26.7,25.6,26.6,25.6,26.7c-0.1-0.1-0.2-0.1-0.2-0.1c-0.1-0.1-0.3,0.4,0,0.4
							C25.4,27,25.5,26.9,25.6,26.7z"/>
					</g>
				</g>
				<g>
					<path fill="#415A6B" d="M15.4,46.8c-0.6,0-1-0.4-1.3-0.8c-0.4-0.6-0.5-1.3-0.3-1.9c0.1-0.4,0.1-0.9,0.1-1.2
						c-0.1-0.7,0.3-1.9,0.3-1.9l0-0.1l2,0.6v1.9c0,0,0,0,0.2,1.8c0.1,1.3-0.4,1.5-0.7,1.6C15.5,46.8,15.5,46.8,15.4,46.8z"/>
				</g>
				<g>
					<polygon fill="#FFD15C" points="17.8,46.1 18,45.2 18.5,44 19.7,44.2 19.3,46.2 					"/>
				</g>
				<g>
					<g>
						<path fill="#415A6B" d="M18,45.2c0,0-0.2,0.7,0.5,0.4c0.7-0.4,1-1.4,1.6-0.8c0.6,0.6,1.3,1.5,1.4,1.8c0.1,0.2,0.8,0.3,1.1,0.3
							c0.3,0,0.2,0.6,0.2,0.6s-1.9,0.8-3.2,0.1L19,47.2l0,0.3h-1.3v-0.7C17.7,46.9,17.4,45.7,18,45.2z"/>
					</g>
					<g>
						<path fill="#344A5E" d="M22.9,47.3c0,0.1,0,0.1,0,0.1s-1.9,0.8-3.2,0.1L19,47.2l0,0.3h-1.3v-0.7c0,0,0-0.1-0.1-0.3
							c0.4,0.2,1.8,0.7,2.2,0.8C20.3,47.5,21.7,47.8,22.9,47.3z"/>
					</g>
				</g>
				<g>
					<path fill="#66C6B9" d="M23.1,21.1c0,0,0.8,1.5,0.2,2.7c0,0-1,7.3-1.4,9.5c-0.4,2.2-0.3,2-0.3,2s0.6,1.2-0.1,2.4
						c0,0-0.1,4.3-1.1,6.4l0.1,1.2c0,0-0.7-0.5-1.5-0.2c-0.9,0.3-1,0-1,0s0.2-3.1,0.2-3.5c0-0.5,0.2-2.5,0.2-2.5s0.2-1.8,0.3-2.7
						c0.1-0.6,0.1-1.1,0.2-1.7c0.1-1.7,0.1-4.8,0.1-5.6c0,0-0.1,5.4-0.6,6.2C17.6,36,17.5,37,17.5,37s-0.6,3.5-0.5,4.2
						c0,0-0.7,1.1-1.8,0.8c-1.1-0.3-0.3-0.7-1-1.1c0,0,0.2-4.5,1.1-6.4l-0.9-8.8c0,0-0.6-4,0.1-4.9l1.1-0.2L23.1,21.1z"/>
				</g>
				<g>
					<path fill="#4ABAA5" d="M17.7,25.7c0,0,1.1,0,1.3,0.2c0,0,0.2,0.3-0.1,0.4c0,0-1.3-0.2-1.7,0l0,0c0.7,0,1.2,0.5,1.4,1.1
						c0.2,0.6,0.3,1.5,0.2,1.9v0l0,0c0.1-0.8,0.7-1.5,1.5-1.7c0.3-0.1,0.5-0.1,0.6-0.1c0,0-1.3-0.2-1.6-0.2c0,0,0.7-0.9,2.3-0.8
						c0,0-1.9-0.4-2.3-0.3l0.7-0.4c0.5-0.3,1-0.4,1.6-0.5l0,0c0,0-0.4-0.2-0.8-0.2c-0.2,0-1.5,0.6-1.5,0.6s-1.8-0.7-2.4-0.6
						c-0.5,0,1.3,0.5,1.6,0.5L17.7,25.7z"/>
				</g>
				<g>
					<path fill="#415A6B" d="M14.4,20c0,0,0.9,0.4,1.7,0.5c1.1,0.1,3.1,0.2,3.8,0.2c1.1-0.1,3-0.4,3-0.4s0,0.7,0.1,0.8
						c0,0-1.3,0.5-4.1,0.5c-1.9,0-4-0.4-4.5-0.7C14.4,20.9,14.4,20.2,14.4,20z"/>
				</g>
				<g>
					<circle fill="#344A5E" cx="19.2" cy="21.2" r="0.1"/>
				</g>
				<g>
					<circle fill="#344A5E" cx="18.3" cy="21.2" r="0.1"/>
				</g>
				<g>
					<circle fill="#344A5E" cx="20" cy="21.1" r="0.1"/>
				</g>
				<g>
					<circle fill="#344A5E" cx="20.8" cy="21.1" r="0.1"/>
				</g>
				<g>
					<g>
						<path fill="#CED6E0" d="M20.7,20.5c0,0,0.3,0.5,0.1,1.2l0.3,0c0,0,0.1-0.9-0.2-1.2L20.7,20.5z"/>
					</g>
					<g>
						<path fill="#CED6E0" d="M17.1,20.5c0,0-0.3,0.5-0.1,1.2l-0.3,0c0,0-0.1-0.9,0.2-1.2L17.1,20.5z"/>
					</g>
				</g>
				<g>
					<g>
						<g>
							<path fill="#FFD15C" d="M20.4,21.7C20.4,21.8,20.4,21.8,20.4,21.7l-1.3,0.1l0,0c-0.3-0.1-0.4-0.3-0.5-0.5
								c-0.1-0.4,0.3-0.7,0.3-0.7l0,0l1.3,0c0,0,0,0,0,0l0,0.2c-0.1,0-0.1,0-0.2,0v-0.1l-1.1,0.1c-0.1,0.1-0.3,0.3-0.2,0.6
								c0,0.2,0.1,0.3,0.3,0.4l1.1,0l0-0.1h0.2L20.4,21.7z"/>
						</g>
					</g>
					<g>
						<g>
							<path fill="#FFFFFF" d="M19.2,21.2L19.2,21.2l-0.7,0c0,0-0.1,0-0.1-0.1c0,0,0-0.1,0.1-0.1l0,0l0.7,0
								C19.2,21.1,19.3,21.1,19.2,21.2C19.3,21.2,19.2,21.2,19.2,21.2z"/>
						</g>
					</g>
				</g>
			</g>
			<path fill="#344A5E" d="M16.2,44.4l0,1.2c0,0.1,0,0.2,0,0.3c-0.3,1-1.5,0.6-1.9-0.2c-0.3-0.5-0.4-1.9-0.4-2.2
				c0,0.2,0,0.4-0.1,0.6c-0.1,0.7,0,1.4,0.3,1.9c0.3,0.4,0.7,0.8,1.3,0.8c0.1,0,0.1,0,0.2,0c0.3,0,0.8-0.3,0.7-1.6
				C16.3,44.9,16.2,44.6,16.2,44.4z"/>
		</g>
		<g>
			<path fill="#415A6B" d="M28.1,44c0,0,0,0.6,0,0.8c0,0.2-0.1,0.6,0,0.8c0.1,0.1,0.3,0.2,0.5,0.2c0.2,0,1.5,0.1,1.5-0.2
				c0,0,0.6,0.9-0.1,1c-0.7,0.1-2,0.1-2.1-0.4c-0.1-0.5,0.1-1.2,0.1-1.3C28,44.8,28,44.1,28.1,44z"/>
		</g>
		<g>
			<g>
				<path fill="#415A6B" d="M33.2,47.9c0,0-1.7,0.4-2.1-0.1c0,0,0-0.2-0.3-0.1c0,0-0.1,0-0.1,0c-0.3,0-0.8-0.1-0.9-0.4
					c0,0,0-1,0.6-1.5c0,0-0.2,0.9,0.2,1c0.4,0.1,0.6,0,0.6,0s1-0.1,1.4,0l0,0c0.3,0,0.5,0.3,0.6,0.6C33.3,47.6,33.2,47.7,33.2,47.9z
					"/>
			</g>
		</g>
	</g>
</g>
</svg>
