<?xml version="1.0" encoding="utf-8"?>
<!-- Generator: Adobe Illustrator 18.0.0, SVG Export Plug-In . SVG Version: 6.00 Build 0)  -->
<!DOCTYPE svg PUBLIC "-//W3C//DTD SVG 1.1//EN" "http://www.w3.org/Graphics/SVG/1.1/DTD/svg11.dtd">
<svg version="1.1" id="Layer_1" xmlns="http://www.w3.org/2000/svg" xmlns:xlink="http://www.w3.org/1999/xlink" x="0px" y="0px"
	 viewBox="0 0 512 512" enable-background="new 0 0 512 512" xml:space="preserve">
<g>
	<path fill="#FFD05C" d="M274.3,2.9C160.8-8,61.9,85.8,66.9,199.7c2.5,57.6,30.9,108.5,73.7,141.5c19.1,14.7,30.1,37.6,30.1,61.7v0
		h170.5v0c0-23.9,10.6-46.8,29.6-61.3c45.2-34.6,74.4-89.1,74.4-150.4C445.2,92.9,370.2,12.1,274.3,2.9z"/>
	<path fill="#334A5E" d="M337,418.8H175c-8.8,0-15.8,7.1-15.8,15.8c0,8.8,7.1,15.8,15.8,15.8h162c8.8,0,15.8-7.1,15.8-15.8
		C352.9,425.9,345.8,418.8,337,418.8z"/>
	<g>
		<path fill="#41596B" d="M326.7,450.5H185.3c-8.8,0-15.8,7.1-15.8,15.8c0,8.8,7.1,15.8,15.8,15.8h141.5c8.8,0,15.8-7.1,15.8-15.8
			C342.6,457.6,335.5,450.5,326.7,450.5z"/>
		<path fill="#41596B" d="M326.7,387.1H185.3c-8.8,0-15.8,7.1-15.8,15.8v0c0,8.8,7.1,15.8,15.8,15.8h141.5c8.8,0,15.8-7.1,15.8-15.8
			v0C342.6,394.2,335.5,387.1,326.7,387.1z"/>
	</g>
	<path fill="#F2705B" d="M194.6,482.1c0,15.4,12.5,27.9,27.9,27.9h67.2c15.4,0,27.9-12.5,27.9-27.9H194.6z"/>
	<polygon fill="#FFFFFF" points="229.1,104.4 321,104.4 275,201.6 305.1,201.6 229.1,334.7 249.1,248.1 191,248.1 	"/>
</g>
</svg>
