<?xml version="1.0" encoding="utf-8"?>
<!-- Generator: Adobe Illustrator 18.0.0, SVG Export Plug-In . SVG Version: 6.00 Build 0)  -->
<!DOCTYPE svg PUBLIC "-//W3C//DTD SVG 1.1//EN" "http://www.w3.org/Graphics/SVG/1.1/DTD/svg11.dtd">
<svg version="1.1" id="Layer_1" xmlns="http://www.w3.org/2000/svg" xmlns:xlink="http://www.w3.org/1999/xlink" x="0px" y="0px"
	 viewBox="0 0 48 48" enable-background="new 0 0 48 48" xml:space="preserve">
<g>
	<g>
		<path fill="#E8EAE9" d="M43.3,6.2H4.7c-1.2,0-2.2,1-2.2,2.2v28.4c0,1.2,1,2.2,2.2,2.2h38.6c1.2,0,2.2-1,2.2-2.2V8.4
			C45.5,7.2,44.5,6.2,43.3,6.2z"/>
		<rect x="5.8" y="9.5" fill="#415A6B" width="36.4" height="24.3"/>
		<path fill="#CED6E0" d="M30.7,36.8l-1.3,1.9h-9.7l-1.3-1.9H0c0,2.7,2.2,4.9,4.9,4.9h38.1c2.7,0,4.9-2.2,4.9-4.9H30.7z"/>
		<g>
			<g>
				<circle fill="#E8EAE9" cx="24" cy="21.6" r="9.9"/>
			</g>
			<path fill="#55C0EB" d="M26.3,31c0,0,0-0.1,0-0.1c0,0,0.1-0.1,0.1-0.1c0,0,0-0.1,0-0.1c0,0,0,0-0.1,0c-0.1,0-0.1,0-0.2,0
				c0,0-0.1,0-0.1,0c0.1-0.1,0.2-0.2,0.3-0.3c0,0,0.1,0,0.1,0c0,0,0.1,0,0.1,0c0.2-0.1,0.1,0,0.3-0.2c0-0.1,0.1-0.1,0.1-0.2
				c0-0.1,0-0.2,0-0.2c0-0.1,0-0.2-0.1-0.4c0-0.1,0-0.1-0.1,0c-0.1,0-0.1,0.1-0.2,0.1c0,0-0.1-0.1-0.1-0.1c0-0.1,0-0.2,0-0.3
				c0,0,0.1,0,0.1,0c0.1,0,0.1,0,0.1-0.1c0-0.1,0-0.2,0-0.2c0-0.1,0-0.1-0.1-0.1c0,0-0.1-0.1-0.1-0.1c0,0,0.1-0.1,0.1-0.1
				c0,0,0.1,0,0.1,0c0,0,0,0,0.1,0c0.1,0,0.1,0,0.1-0.1c0,0,0,0,0-0.1c0,0,0,0,0-0.1c0,0,0.1,0,0.1,0.1c0.2,0.1,0.2,0.1,0.4,0
				c0.1-0.1,0.3-0.1,0.4-0.3c0-0.1,0.1-0.2,0-0.3c0-0.1,0-0.2-0.1-0.3c0,0,0,0,0,0c0,0,0.1,0,0.1,0c0-0.1,0-0.2,0-0.3
				c0.1,0,0.1,0.1,0.2,0.1c0.1-0.1,0.1-0.2,0.1-0.4c0,0,0,0,0,0c-0.2-0.1-0.3-0.1-0.5-0.2c0,0-0.1,0-0.1,0c0,0-0.1,0-0.1,0
				c0,0,0,0,0-0.1c-0.1-0.1-0.1-0.1-0.2-0.1c0,0-0.1-0.1-0.1-0.1c0,0,0,0,0,0c0,0,0,0,0,0c0,0,0-0.1,0-0.1c0,0-0.1-0.1-0.1-0.1
				c-0.1-0.1-0.1-0.1-0.1-0.2c0-0.1-0.1-0.1-0.1-0.1c-0.1,0-0.2-0.1-0.3-0.2c-0.1-0.1-0.1-0.2-0.2-0.2c-0.1-0.1-0.2-0.1-0.3-0.1
				c-0.1-0.1-0.3,0-0.4,0.1c0,0,0,0,0,0c0,0,0,0,0-0.1c-0.1-0.2-0.2-0.4-0.3-0.5c0-0.1-0.1-0.1-0.1,0c-0.1,0.1-0.2,0.1-0.3,0.2
				c-0.1,0-0.1,0.1-0.1,0.2c0,0.1,0,0.1-0.1,0.1c0-0.1,0-0.1,0-0.1c0-0.1,0.1-0.2,0-0.3c0,0,0-0.1,0.1-0.1c0,0,0-0.1,0-0.1
				c0,0-0.1,0-0.1-0.1c0-0.1,0.1-0.1,0.1-0.1c0.1-0.1,0.1-0.1,0.1-0.2c0,0,0,0,0-0.1c0,0-0.2,0-0.2,0c0,0.1-0.1,0.1-0.2,0.1
				c0,0-0.1,0-0.1,0C24,24,23.9,24,23.8,24c0,0-0.1,0-0.1,0c0,0,0,0,0.1,0c0.1,0,0.1,0,0.2,0c0.1,0,0.1,0,0.1,0
				c0.1,0,0.1-0.1,0.1-0.1c0,0,0,0,0-0.1c0.1,0,0.2,0,0.2-0.1c0,0,0,0,0-0.1c0,0-0.1-0.1-0.1-0.1c0,0-0.1,0-0.1,0
				c-0.2,0-0.3,0-0.5,0c-0.1,0-0.2,0-0.2-0.1c-0.1-0.1-0.2,0-0.3,0.1c0,0.1-0.1,0.1-0.2,0.1c-0.1,0-0.1,0-0.2,0c0,0,0,0.1,0,0.1
				c0,0.1-0.1,0.1-0.2,0.1c0.1,0,0.1-0.1,0.1-0.1c0-0.1,0-0.2,0-0.2c0-0.1,0-0.1,0-0.2c0-0.1,0-0.2,0-0.2c0,0,0-0.1,0-0.1
				c0-0.1,0-0.2,0.1-0.2c0,0,0,0,0-0.1c0,0,0,0,0-0.1c0,0,0,0,0,0c-0.2-0.1-0.2-0.1-0.2,0.1c0,0.1-0.1,0.2-0.2,0.3c0,0,0,0,0,0
				c0,0,0,0-0.1-0.1c0,0,0,0,0,0c0-0.1,0-0.1,0-0.1c0,0,0,0,0,0c-0.1-0.1-0.2-0.2-0.2-0.3c0,0,0-0.1-0.1-0.1c0,0,0,0,0,0
				c0.1-0.1,0.1-0.1,0-0.2c-0.2-0.1-0.3-0.3-0.5-0.4c0,0,0,0-0.1,0c-0.1,0-0.1,0-0.2,0.1c0,0-0.1,0-0.1-0.1c0,0,0,0,0-0.1
				c0.1,0,0.1-0.1,0.1-0.2c0.1,0.1,0.1,0.1,0.1,0.1c0,0,0,0,0,0c0.1-0.1,0.1-0.1,0.2-0.2c0,0,0,0,0-0.1c0-0.1,0-0.2,0-0.3
				c0,0,0,0,0,0c0,0,0,0-0.1,0c0,0,0,0,0,0c0,0.1-0.1,0.1-0.2,0.2c0,0,0,0-0.1,0c-0.1,0-0.1,0-0.1,0.1c0,0-0.1,0.1-0.1,0.1
				c0,0-0.1,0-0.1-0.1c0,0,0-0.1,0-0.1c0-0.1,0-0.1-0.1-0.2c0.1,0,0.2-0.1,0.3-0.1c0.1,0,0.1-0.1,0.1-0.1c0.1-0.2,0.1-0.3,0.2-0.5
				c0-0.1,0-0.2,0-0.3c0-0.1,0-0.1,0-0.2c0,0,0,0,0,0c0,0,0.1,0,0.1-0.1c0-0.1,0-0.2-0.1-0.3c0,0,0,0,0-0.1c0.1,0,0.1,0.1,0.2,0
				c0,0,0-0.1,0.1-0.2c0-0.1,0-0.1,0-0.2c0-0.1,0-0.1,0-0.2c0,0-0.1,0-0.1,0l0-0.1c0,0,0,0,0.1,0c0,0,0-0.1,0-0.1
				c-0.1,0-0.1-0.1-0.2-0.1c0-0.1,0-0.1-0.1-0.2c0,0-0.1,0-0.1-0.1c-0.1,0-0.1-0.1-0.1-0.1c0,0-0.1-0.1-0.1-0.1c0,0,0-0.1-0.1-0.1
				c0,0-0.1,0-0.1,0c0,0-0.1,0-0.1,0c-0.1,0-0.1-0.1-0.2-0.1c-0.1-0.1-0.2-0.1-0.2-0.2c0,0,0,0,0,0c0,0,0,0,0,0
				c-0.1-0.1-0.1-0.1-0.2-0.1c0,0,0,0,0,0c0,0,0,0,0,0.1c0,0,0.1,0.1,0.1,0.1c0,0,0,0,0,0.1c-0.1,0-0.1,0-0.2,0c-0.2,0-0.4,0-0.6,0
				c-0.1,0-0.2,0-0.2,0c0,0-0.1,0-0.1,0c-0.1,0-0.2,0-0.3,0c0-0.1,0-0.1-0.1-0.1c0,0-0.1,0-0.1,0c0,0-0.1,0-0.1-0.1
				c0-0.1-0.1-0.1-0.1-0.1c-0.1,0-0.1-0.1-0.2-0.1c0,0-0.1,0-0.1,0c-0.2,0-0.3,0.1-0.4,0.2c-0.1,0-0.1,0-0.2,0.1c0,0-0.1,0-0.1,0
				c-0.1,0.1-0.1,0.2,0,0.4c0.1,0,0.1,0.1,0.2,0.1c0,0,0.1,0.1,0.1,0.1c-0.1,0.1-0.2,0.1-0.3,0.2c0,0-0.1,0.1-0.1,0.1c0,0,0,0,0,0
				c0,0-0.1,0-0.1-0.1c0,0,0.1,0,0.1-0.1c0-0.1,0.1-0.1,0.1-0.1c0,0,0.1,0,0.1,0c0,0,0-0.1,0-0.1c0,0-0.1-0.1-0.1-0.1
				C17.3,18,17.2,18,17.1,18C17,18,17,18,16.9,18c-0.1,0.1-0.1,0.1-0.1,0.2c0,0-0.1,0-0.1,0c0,0,0,0,0,0c0,0,0-0.1,0-0.1
				c0,0-0.1,0-0.1,0c0,0,0-0.1-0.1-0.1c0,0-0.1,0-0.1-0.1c0,0,0,0-0.1,0c-0.1,0-0.1,0-0.2,0c-0.1,0-0.2-0.1-0.2-0.2c0,0,0,0,0-0.1
				c0.1,0,0.1,0,0.2,0c0-0.1,0.1-0.1,0.1-0.2c0-0.1,0.1-0.1,0.1-0.2c0,0,0.1-0.1,0.1-0.1c0-0.1,0.1-0.1,0.2-0.2
				c0.1-0.1,0.1-0.1,0.1-0.2c0,0,0.1,0,0.1,0c0,0,0.1,0,0.1,0c0.1,0,0.2,0,0.1-0.1c0,0,0,0,0-0.1c0.1,0,0.1,0,0.1,0c0,0,0,0,0.1,0
				c0,0,0.1,0,0.1,0c0,0,0-0.1,0-0.1c0,0,0-0.1-0.1,0c0,0,0,0-0.1,0.1c0,0,0,0,0-0.1c0-0.1-0.1-0.1-0.2-0.1c0,0,0,0,0,0c0,0,0,0,0,0
				c0,0,0,0,0,0c0,0,0,0,0,0c0,0,0.1,0,0.1-0.1c0,0,0,0,0-0.1c-0.1-0.1-0.2-0.1-0.3,0c0,0.1-0.1,0.1-0.1,0.2c-0.1,0-0.1,0-0.2,0
				c-0.1,0-0.1,0-0.1,0.1c0,0,0,0,0,0c0,0,0-0.1,0-0.1c0-0.1-0.1-0.1-0.2-0.2c0,0-0.1,0-0.1,0c-0.1-0.1-0.1-0.1-0.2-0.1
				c0,0,0,0-0.1,0c0,0,0,0.1-0.1,0.1c0,0,0,0,0,0c-0.1,0.1-0.1,0.2-0.2,0.3c0.1,0.1,0.1,0.1,0.2,0.2c0.1,0,0.3,0,0.4-0.1
				c0.1,0,0.1,0,0.2,0c0,0,0,0.1,0,0.1c0,0,0,0.1-0.1,0.1c0,0-0.1,0-0.1,0c0,0,0-0.1-0.1-0.1c0,0-0.1,0-0.1,0c-0.1,0-0.1,0-0.1,0.1
				c0,0-0.1,0-0.1-0.1c0,0-0.1,0-0.1,0c0,0,0,0.1,0,0.1c0,0-0.1,0-0.1,0c0,0-0.1,0-0.1,0c-0.1,0-0.1,0-0.1,0.1c0,0,0,0,0,0.1
				c0,0,0,0,0,0c0,0,0.1,0,0.1,0.1c0,0,0,0,0.1,0c0,0,0.1,0,0,0.1c0,0,0,0,0,0c-0.1,0-0.1,0-0.2,0.1c0,0,0,0,0,0c0,0,0-0.1,0-0.1
				c0,0-0.1-0.1-0.1-0.1c-0.2,0.5-0.4,0.9-0.6,1.4c0,0,0,0,0,0c0,0.1,0,0.2,0.1,0.2c0.1,0,0.1,0.1,0.2,0.1c0,0,0.1,0.1,0.1,0.1
				c0,0,0,0.1,0,0.1c0,0-0.1,0.1-0.1,0.1c0,0,0,0,0,0.1c0,0.1,0,0.1-0.1,0.2c0,0,0,0.1,0,0.1c0,0.1,0,0.1,0,0.2c0,0,0,0.1-0.1,0.1
				c0,0.1-0.1,0.1-0.1,0.1c0,0-0.1,0-0.1,0c0-0.1-0.1-0.1-0.1-0.2c0,0.1,0,0.2,0,0.3c0.1,0,0.2,0,0.3,0.1c0,0,0.1,0,0.1,0
				c0,0,0,0,0,0c0,0.1,0,0.1,0.1,0.1c0,0,0,0,0,0c-0.1,0.1-0.2,0.2-0.2,0.3c0,0,0,0,0,0c0,0,0,0,0,0c0,0.1-0.1,0.1-0.1,0.2
				c0,0,0,0,0,0.1c0,0,0,0.1,0,0.1l0.1,0c0,0,0,0,0,0c0,0.1,0.1,0.1,0.2,0.1c0.1,0,0.1-0.1,0.1-0.1c0-0.1,0-0.1,0.1-0.2
				c0.1,0,0.1,0,0.2,0c0,0,0,0,0,0c0,0.1,0,0.1-0.1,0.2c0,0-0.1,0-0.1,0c0,0-0.1,0-0.1,0c0,0,0,0.1,0,0.1c0,0,0,0.1-0.1,0.1
				c0,0-0.1,0-0.1,0c0,0,0,0.1,0,0.1c-0.1,0-0.1,0-0.1,0.1c0,0,0,0,0.1,0c0,0,0,0,0.1,0c0,0.1,0,0.1,0,0.2c0,0.1,0.1,0.1,0.2,0.1
				c0,0.1,0,0.1-0.1,0.2c0,0,0,0,0,0c0,0,0-0.1-0.1-0.1c0,0-0.1,0.1-0.1,0.2c0,0,0,0.1,0.1,0.1c0,0,0,0.1,0,0.1c0,0,0.1,0,0.1,0
				c0.1,0,0.1,0,0.1-0.1c0.1,0,0.1,0,0.1,0.1c-0.1,0.1-0.1,0.1-0.2,0.1c-0.2,0-0.3,0-0.5,0c0,0,0,0,0,0c0,0.6,0.2,1.2,0.3,1.8
				c0,0,0.1,0,0.1,0c0,0.1,0,0.1,0,0.2c1.2,4.1,5,7.1,9.5,7.1c0.9,0,1.7-0.1,2.5-0.3C26.5,31.1,26.4,31.1,26.3,31
				C26.4,31,26.3,31,26.3,31z M26.4,27.9C26.4,27.9,26.4,27.9,26.4,27.9c0,0.1,0,0.1,0,0.2c0,0,0,0.1-0.1,0.1c0,0,0,0,0,0
				C26.3,28.1,26.3,28,26.4,27.9z M15.3,19.5C15.3,19.5,15.3,19.5,15.3,19.5C15.3,19.5,15.3,19.5,15.3,19.5
				c-0.1,0.1-0.1,0.2-0.1,0.3c0,0.1-0.1,0.2-0.1,0.3c0,0,0,0.1,0,0.1c-0.1,0-0.1,0-0.2,0.1c0-0.1,0-0.2,0.1-0.2c0,0,0,0,0-0.1
				c0,0,0.1,0,0.1-0.1c0,0,0-0.1,0-0.1c0-0.1,0-0.1,0-0.2c0.1-0.1,0.1-0.1,0.2-0.2c0-0.1,0.1-0.1,0.1-0.1c0,0,0,0,0,0
				c0,0-0.1,0-0.1,0C15.2,19.4,15.2,19.4,15.3,19.5z M15.5,17.5c0,0,0-0.1,0.1-0.1c0,0,0.1,0,0.1,0.1c0,0.1,0.1,0.1,0.1,0.2
				c0,0,0,0-0.1,0c0,0,0,0,0,0C15.6,17.5,15.6,17.5,15.5,17.5z M16.8,23.6C16.8,23.6,16.8,23.6,16.8,23.6c-0.1-0.1-0.1-0.1-0.1-0.1
				c0,0-0.1,0-0.1,0.1c0,0.1-0.1,0.2-0.2,0.3c0,0,0,0-0.1,0.1c0,0-0.1,0-0.1,0c-0.1,0.1-0.1,0.1-0.2,0.1c0,0-0.1,0-0.1,0.1
				c0,0,0,0.1,0,0.1c0,0-0.1,0.1-0.1,0.1c-0.1,0-0.1,0-0.2,0.1c-0.1-0.1-0.1-0.1-0.1-0.2c0-0.1,0-0.2,0-0.3c0,0,0,0,0,0
				c0.1-0.1,0.2-0.1,0.3,0c0.1,0,0.1,0,0.1,0c0-0.2,0.2-0.2,0.2-0.4c0,0,0,0,0,0c0.1,0,0.2-0.1,0.2-0.2c0.1,0,0.1,0,0.2,0
				c0,0.1,0.1,0.1,0.2,0.2c0.1,0,0.2,0.1,0.2,0.2c0,0.1,0,0.2-0.1,0.2c0,0,0,0,0,0c0,0,0-0.1,0-0.1C16.9,23.7,16.9,23.7,16.8,23.6z
				 M17.3,24.7C17.3,24.8,17.2,24.8,17.3,24.7c-0.1,0.1-0.1,0.1-0.1,0.1c0,0-0.1,0-0.1,0c0,0-0.1-0.1-0.1-0.1c0,0,0-0.1,0-0.1
				c0,0,0.1,0,0.1-0.1c0.1,0,0.1,0,0.1,0C17.3,24.6,17.3,24.7,17.3,24.7C17.3,24.7,17.3,24.7,17.3,24.7z M18.1,19.7
				C18.1,19.7,18.1,19.7,18.1,19.7c-0.1,0-0.1,0-0.1,0.1c0-0.1,0.1-0.1,0.1-0.2C18.1,19.6,18.1,19.6,18.1,19.7z M19.8,19.2
				c-0.2-0.1-0.4-0.1-0.6-0.2c0,0-0.1,0-0.1,0c-0.1,0-0.1,0-0.1,0c-0.1,0-0.1,0.1-0.2,0.1c-0.1,0-0.1,0-0.2,0
				c-0.1,0-0.1,0.1-0.1,0.2c0,0.1,0,0.1-0.1,0.2c0.1,0.1,0.2,0.2,0.2,0.3c0,0,0.1,0.1,0.1,0.1c0,0,0,0.1,0,0.1
				c-0.1,0-0.1-0.1-0.2-0.2c0-0.1,0-0.2-0.1-0.2c0-0.1-0.1-0.1-0.2-0.2c0,0,0,0,0-0.1c0,0-0.1-0.1-0.1,0c0,0-0.1,0-0.1,0
				c-0.1,0-0.1,0-0.1,0.1c0,0-0.1,0-0.1,0c-0.1,0-0.2,0-0.3,0c0,0,0,0-0.1,0c-0.1,0-0.2,0-0.2,0c0,0-0.1,0-0.1-0.1c0,0,0,0,0,0
				c0.1-0.1,0.1-0.1,0-0.2c-0.1-0.1-0.2-0.2-0.2-0.3c0,0,0-0.1-0.1-0.1c0,0,0.1-0.1,0.1-0.1c0,0,0-0.1-0.1-0.1c0,0,0,0,0,0
				c0,0,0.1,0,0.1,0.1c0,0,0,0.1,0,0.1c0.1,0,0.1,0,0.2,0c0.1,0,0,0.1,0.1,0.1c0,0,0,0,0.1,0c0.1,0,0.2,0,0.3,0c0.1,0,0.2,0,0.2,0.1
				c0,0,0.1,0,0.1,0c0,0,0.1,0,0.1,0c0,0,0,0,0.1-0.1c0,0,0.1-0.1,0.1-0.1c0-0.1,0.1-0.1,0.1-0.1c0,0,0.1,0,0.1,0
				c0.1-0.1,0.3,0,0.4,0c0.1,0,0.1,0.1,0.2,0.1c0.1,0,0.2,0.1,0.3,0.1c0,0,0.1,0,0.1,0c0-0.1,0.1-0.1,0.1-0.1c0,0,0.1,0,0.1,0
				c0,0,0.1,0,0.1,0c0.1,0,0.1,0.2,0.1,0.2C19.9,19.2,19.9,19.2,19.8,19.2z M20.8,20.9c-0.1,0-0.1-0.1-0.2-0.1c0,0-0.1,0.1-0.1,0.1
				c0,0,0,0,0-0.1c0-0.1,0-0.1,0-0.2c0,0,0-0.1,0-0.1c0,0-0.1,0-0.1,0c-0.1,0-0.1,0-0.1,0.1c0,0,0,0-0.1,0.1c0,0,0,0,0,0
				c0-0.1,0-0.1,0.1-0.2c0.1,0,0.2-0.1,0.2-0.1c0.1,0,0.1-0.1,0.2-0.1c0,0,0,0,0,0.1c0,0.1,0,0.2,0,0.3c0,0.2,0,0.1,0.1,0.3
				C20.8,20.8,20.8,20.9,20.8,20.9C20.8,20.9,20.8,20.9,20.8,20.9z M22.1,24.4C22.1,24.4,22.2,24.4,22.1,24.4
				C22.2,24.4,22.2,24.4,22.1,24.4c0.1-0.1,0.1,0,0.2,0c0,0,0.1,0,0.2,0.1c0.1,0,0.1,0,0.2,0c0,0,0.1,0,0.1,0
				C22.6,24.7,22.4,24.6,22.1,24.4z M22.9,24.5C22.9,24.4,22.9,24.4,22.9,24.5L22.9,24.5C23,24.4,23,24.4,22.9,24.5z M22.9,24.4
				L22.9,24.4C23,24.4,23,24.4,22.9,24.4z M23.4,24.2c0.1-0.1,0.1-0.1,0.2-0.1C23.5,24.2,23.5,24.2,23.4,24.2z M26,27.7
				C26,27.7,26,27.7,26,27.7c0.1,0.1,0.1,0.1,0.1,0.1c0,0,0,0-0.1,0.1C26,27.8,25.9,27.8,26,27.7C25.9,27.7,26,27.7,26,27.7z"/>
			<path fill="#55C0EB" d="M33.4,24.2c-0.1,0-0.2-0.1-0.2-0.2c0-0.1,0.1-0.3,0.1-0.4c0-0.1,0-0.1-0.1-0.1c-0.1,0-0.2,0-0.3,0
				c-0.1,0-0.2,0.1-0.2,0.2c0,0.1,0,0.1-0.2,0.2c-0.1,0-0.1,0-0.2,0c0,0-0.1,0-0.1,0c-0.1,0-0.1-0.1-0.1-0.1
				c-0.1-0.1-0.1-0.1-0.1-0.3c0,0,0,0,0,0c0-0.1,0-0.2,0-0.3c0-0.1,0-0.2,0-0.3c0,0,0,0,0-0.1c0.1-0.1,0.2-0.2,0.3-0.2
				c0,0,0.1,0,0.2,0c0.1,0,0.1,0,0.2,0.1c0,0,0,0,0.1,0c0.1,0,0.1,0,0.2,0c0,0,0.1,0,0.1-0.1c0,0,0,0,0-0.1c0-0.1,0-0.1,0.1-0.1
				c0,0,0.1,0,0.1,0c0,0,0.1,0,0.1,0c0,0,0,0.1,0.1,0.1c0.1,0,0.1,0,0.2,0c0.1,0.1,0.1,0.1,0.1,0.2c0,0,0,0.1,0,0.1
				c0-0.4,0.1-0.8,0.1-1.2c0-1.4-0.3-2.6-0.8-3.8c0,0-0.1-0.1-0.1-0.1c-0.2-0.1-0.1-0.1-0.3,0c-0.1-0.1,0-0.3-0.1-0.4
				c-0.1,0-0.1,0-0.2,0c0-0.1,0-0.2,0-0.3c0-0.1,0.1-0.2,0.1-0.3c0,0,0,0,0,0c-0.9-1.6-2.2-2.9-3.8-3.7c0,0,0,0.1,0,0.1
				c0,0.1-0.1,0.2-0.1,0.2c0,0.1-0.1,0.1,0.1,0.2c0.1,0.1,0.1,0.1,0.1,0.2c0,0,0,0,0,0.1c0,0,0,0,0.1,0.1c0.1,0,0.1,0,0.2-0.1
				c0.1,0,0.2-0.1,0.2-0.2c0,0,0,0.1,0.1,0.1c0,0,0.1,0,0.1,0.1c0,0,0,0.1,0,0.1c0,0,0.1,0.1,0.1,0.1c0.1,0.1,0.1,0.1,0.2,0.1
				c0.1,0,0.1,0,0.2,0c0,0,0,0,0.1,0c-0.1,0.1-0.3,0-0.4,0.1c0,0,0,0.1,0,0.1c0,0.1,0,0.1,0.1,0.2c-0.1,0-0.1,0-0.2,0
				c-0.1-0.1-0.3-0.1-0.4-0.2c-0.1-0.1-0.1-0.1-0.2-0.1c0,0-0.1,0-0.1,0c0,0,0,0,0,0.1c0,0,0,0.1-0.1,0c0,0,0-0.1,0-0.1
				c0,0,0-0.1,0-0.1c0,0-0.1,0-0.1,0.1c0,0,0,0.1-0.1,0.1c0-0.2-0.2-0.3-0.3-0.4c-0.1,0.1-0.1,0.2-0.1,0.2c0,0,0,0,0,0
				c0,0,0-0.1-0.1-0.1c0,0-0.1,0-0.1,0c0,0-0.1,0.1-0.1,0.1c-0.1,0-0.1,0.1-0.2,0.2c-0.1-0.1-0.2,0-0.2,0c0,0.1-0.1,0.1-0.1,0.2
				c-0.1-0.1-0.2-0.1-0.3-0.2c0,0-0.1-0.1-0.1,0c-0.1,0-0.2,0-0.2-0.1c0,0,0,0-0.1-0.1c0,0-0.1,0-0.1,0c0,0-0.1,0-0.1,0
				c-0.1,0-0.1,0-0.2,0c0,0-0.1,0-0.1,0c-0.1,0-0.1,0-0.2,0c-0.1,0-0.1,0-0.2,0c-0.1,0-0.1,0-0.2,0c-0.1-0.1-0.1-0.1-0.3-0.1
				c0,0,0,0,0,0c-0.1-0.1-0.2-0.1-0.3-0.2c-0.1,0-0.1,0.1-0.1,0.1c0,0-0.1,0.1-0.1,0.1c-0.1,0-0.1,0-0.1,0.1
				c-0.1,0.1-0.2,0.1-0.3,0.1c-0.1,0.1-0.2,0.2-0.2,0.3c0,0,0,0.1-0.1,0.1c-0.1,0-0.2,0-0.3,0.1c0,0.1,0,0.1,0,0.2
				c0,0,0,0.1,0.1,0.1c0.1,0,0.1,0.1,0.2,0.1c0,0,0.1,0.1,0.1,0.1c0,0.1,0.1,0.1,0.1,0.1c0,0,0,0,0.1,0.1c0,0,0.1,0,0,0.1
				c0,0-0.1,0-0.1,0c0,0,0,0,0,0c0,0,0-0.1,0-0.1c-0.1,0-0.2,0-0.2,0c0,0-0.1,0-0.1,0.1c-0.1,0-0.1,0.1-0.2,0.2c0,0,0,0.1,0,0.1
				c0,0,0.1,0,0.1,0c0,0,0,0.1,0,0.1c0,0.1,0.1,0.1,0.1,0.1c0.1,0,0.1,0,0.2,0c0.1,0,0.1,0,0.1,0c0,0,0,0,0.1,0c0,0,0,0,0.1,0
				c0,0,0,0,0.1,0c0,0,0,0.1,0.1,0.1c0,0.1,0,0.1-0.1,0.1c-0.1,0-0.1,0-0.2,0.1c-0.1,0-0.2,0-0.2,0.1c0,0.1-0.1,0.2-0.1,0.3
				c0,0.1,0,0.1,0,0.1c0,0,0.1,0.1,0.1,0.1c0,0-0.1,0-0.1,0c0,0-0.1,0-0.1,0c0,0,0,0.1,0,0.1c0,0,0,0,0,0c0.2,0.1,0.1,0.1,0.3,0
				c0,0,0.1,0.1,0.1,0.1c0.1,0,0.1,0,0.2,0c0,0,0,0,0.1,0c0,0.1,0,0.2,0.1,0.2c0.1,0,0.1,0,0.2,0c0,0,0,0,0,0c0,0,0,0,0,0
				c0,0,0.1,0,0.1,0c0,0,0-0.1,0.1,0c0,0.2,0,0.2-0.1,0.3c0,0,0,0-0.1,0.1c-0.1,0.1-0.2,0.2-0.3,0.2c0,0-0.1,0-0.1,0.1
				c0,0.1-0.1,0.1-0.2,0.1c0,0-0.1,0-0.1,0.1c0,0-0.1,0,0,0.1c0,0.1,0,0.1,0.2,0.1c0,0,0,0,0,0c0.2-0.1,0.4-0.2,0.6-0.3c0,0,0,0,0,0
				c0,0,0.1,0,0.1-0.1c0,0,0-0.1,0.1-0.1c0.2-0.1,0.3-0.3,0.5-0.4c0,0,0.1-0.1,0.1-0.1c0,0,0-0.1-0.1-0.1c0,0,0.1-0.1,0.1-0.1
				c0.1,0,0,0.1,0,0.1c0.1,0,0.2,0,0.3-0.1c0,0,0,0,0.1-0.1c0,0,0,0,0.1,0c0.1,0,0.1,0,0.1-0.1c0,0,0,0,0-0.1c0,0,0-0.1,0-0.1
				c0.1,0,0.1,0,0.1,0c0,0,0.1,0.1,0.1,0.1c0.1,0.1,0.2,0.1,0.3,0.1c0.1,0,0.3,0,0.4,0.1c0,0,0.1,0.1,0.1,0.1c0,0,0.1,0.1,0.1,0.1
				c0.1,0,0.1,0.1,0.1,0.2c0,0.1,0.1,0.2,0.1,0.3c0,0.1,0,0.1,0.1,0.1c0,0,0,0,0,0c0,0.1,0.1,0.2,0.2,0.3c0,0,0,0,0,0
				c-0.1,0-0.1,0-0.1,0.1c0,0.1,0,0.2,0.1,0.2c0,0,0.1,0.1,0.1,0.1c0,0.1,0.1,0.1,0.1,0.1c0,0,0,0,0.1,0c0,0,0,0,0,0c0,0,0,0,0,0
				c-0.1-0.1-0.1-0.2-0.1-0.3c0-0.1,0-0.1,0-0.2c0,0,0-0.1,0-0.1c0,0,0,0,0.1,0.1c0,0,0,0.1,0,0.1c0,0,0,0,0,0.1
				c0.1,0.1,0.1,0.2,0.2,0.3c0,0,0,0,0,0.1c0,0,0,0.1,0,0.1c-0.1,0.1-0.1,0.1,0,0.2c0,0,0.1,0.1,0.1,0.1c0,0,0.1,0,0.1,0.1
				c0,0.1,0.1,0.1,0.1,0.1c0.1,0,0.1,0.1,0.1,0.1c0,0,0,0,0,0.1c0,0.1,0,0.1,0,0.2c0,0.1,0,0.1,0,0.2c0,0.1,0,0.3,0,0.4
				c0,0.1,0,0.2,0,0.2c0,0.1,0,0.1,0,0.2c0,0,0,0.1,0,0.1c0,0,0,0.1,0,0.1c0,0.1,0,0.1,0.1,0.2c0,0,0,0,0,0c0,0.1,0,0.1,0.1,0.2
				c0,0,0,0,0,0c0,0.1,0,0.1,0.1,0.1c0.1,0.1,0.1,0.1,0.1,0.2c0.1,0,0.2,0.1,0.3,0.1c0,0,0.1,0.1,0.1,0.1c0,0.1,0.1,0.2,0.1,0.3
				c0,0.1,0.1,0.1,0.1,0.2c0,0,0,0,0.1,0.1c0,0,0,0-0.1,0.1c0,0,0,0,0,0.1c0,0.1,0.1,0.1,0.1,0.1c0,0,0.1,0,0.1,0.1
				c0.1,0.1,0.1,0.1,0.1,0.2c0,0,0,0,0,0c0,0,0.1,0.1,0.1,0.1c0.1,0,0.1,0.1,0.1,0.1c0,0,0,0,0,0c0.1,0,0.1-0.1,0.1-0.1c0,0,0,0,0,0
				c-0.1-0.1-0.2-0.2-0.2-0.4c0,0,0-0.1-0.1-0.1c0,0,0.1,0,0.1,0c0.1,0.1,0.2,0.1,0.2,0.3c0.1,0,0.2,0.1,0.3,0.2
				c0.1,0.1,0.2,0.2,0.2,0.3c0,0,0,0.1,0,0.1c0.1,0.2,0.2,0.3,0.4,0.3c0.1,0,0.1,0.1,0.2,0.1c0,0,0,0,0,0c0.2,0.1,0.3,0.1,0.5,0.2
				c0.1,0,0.1,0,0.2,0c0,0,0.1,0,0.2,0c0.1,0,0.1,0.1,0.2,0.1c0.1,0.1,0.3,0.2,0.5,0.2c0.1,0,0.1,0,0.1,0c0.1,0.1,0.1,0.1,0.2,0.1
				c0,0,0,0,0,0C33.4,24.6,33.5,24.4,33.4,24.2C33.5,24.2,33.5,24.2,33.4,24.2z"/>
		</g>
		<g>
			<circle fill="#F3705A" cx="26" cy="25.2" r="1.2"/>
			<circle fill="#F05540" cx="26" cy="25.2" r="0.6"/>
		</g>
		<g>
			<circle fill="#F3705A" cx="18" cy="19.8" r="1.2"/>
			<circle fill="#F05540" cx="18" cy="19.8" r="0.6"/>
		</g>
		<g>
			<circle fill="#F3705A" cx="27.3" cy="14.4" r="1.2"/>
			<circle fill="#F05540" cx="27.3" cy="14.4" r="0.6"/>
		</g>
	</g>
</g>
</svg>
