<?xml version="1.0" encoding="utf-8"?>
<!-- Generator: Adobe Illustrator 18.0.0, SVG Export Plug-In . SVG Version: 6.00 Build 0)  -->
<!DOCTYPE svg PUBLIC "-//W3C//DTD SVG 1.1//EN" "http://www.w3.org/Graphics/SVG/1.1/DTD/svg11.dtd">
<svg version="1.1" id="Layer_1" xmlns="http://www.w3.org/2000/svg" xmlns:xlink="http://www.w3.org/1999/xlink" x="0px" y="0px"
	 viewBox="0 0 48 48" enable-background="new 0 0 48 48" xml:space="preserve">
<g>
	<g>
		<g>
			<g>
				<path fill="#8AD7F8" d="M47.4,16.5L31.8,0.8c-1.1-1.1-2.8-1.1-3.9,0L12.2,16.5H47.4z"/>
			</g>
			<g>
				<polygon fill="#55C0EB" points="29.7,16.5 38.5,7.6 34.1,3.1 20.8,16.5 				"/>
			</g>
		</g>
		<g>
			<path fill="#415A6B" d="M0,17.7L0,45c0,1.7,1.3,3,3,3L45,48c1.7,0,3-1.3,3-3l0-27.3c0-1.7-1.3-3-3-3L3,14.7C1.3,14.7,0,16,0,17.7
				z"/>
			<path fill="#344A5E" d="M47.3,26.3H48v-1.2h-0.8c0-2.2-0.3-4.2-0.8-6.1c0.6-0.2,1.1-0.3,1.6-0.5v-0.8c0-0.2,0-0.3,0-0.5
				c-0.6,0.3-1.2,0.5-1.9,0.7c-0.4-1.2-0.9-2.3-1.5-3.2h-1.4c0.7,0.9,1.3,2.1,1.8,3.5c-1.4,0.3-3,0.5-4.6,0.5v-4h-1.2v4
				c-1.6,0-3.1-0.2-4.6-0.5c0.5-1.4,1.1-2.6,1.8-3.5h-1.4c-0.6,0.9-1.1,2-1.5,3.2c-1.2-0.3-2.3-0.8-3.2-1.3c0.7-0.7,1.5-1.4,2.3-1.9
				h-2c-3.1,2.6-5.2,6.6-5.2,11c0,7.9,6.5,14.4,14.4,14.4c3.1,0,6-1,8.3-2.7v-1.5c-1.4,1.1-3,2-4.7,2.5c1.1-1.1,2.1-2.8,2.8-4.9
				c0.7,0.2,1.3,0.4,1.9,0.7v-1.3c-0.5-0.2-1-0.4-1.6-0.5C46.9,30.5,47.2,28.5,47.3,26.3z M29.4,17.5c1,0.6,2.3,1.1,3.6,1.5
				c-0.5,1.8-0.8,3.9-0.8,6.1h-5.6C26.7,22.2,27.7,19.6,29.4,17.5z M29.4,33.9c-1.7-2.1-2.7-4.7-2.8-7.6h5.6c0,2.2,0.3,4.3,0.8,6.1
				C31.7,32.8,30.5,33.3,29.4,33.9z M30.2,34.8c0.9-0.5,2-0.9,3.2-1.3c0.7,2,1.6,3.7,2.8,4.9C33.9,37.7,31.8,36.5,30.2,34.8z
				 M39.1,38.8c-1.9-0.4-3.5-2.5-4.6-5.6c1.4-0.3,3-0.5,4.6-0.5V38.8z M39.1,31.5c-1.7,0-3.4,0.2-4.9,0.6c-0.5-1.7-0.8-3.7-0.8-5.8
				h5.7V31.5z M39.1,25.1h-5.7c0-2.1,0.3-4,0.8-5.8c1.5,0.3,3.2,0.5,4.9,0.6V25.1z M40.3,38.8v-6.1c1.6,0,3.1,0.2,4.6,0.5
				C43.9,36.3,42.2,38.4,40.3,38.8z M45.3,32.1c-1.5-0.3-3.2-0.5-4.9-0.6v-5.2h5.7C46,28.4,45.7,30.3,45.3,32.1z M40.3,25.1v-5.2
				c1.7,0,3.4-0.2,4.9-0.6c0.5,1.7,0.8,3.7,0.8,5.8H40.3z"/>
			<rect x="0" y="36.3" fill="#E8EAE9" width="48.1" height="6.8"/>
			<g>
				<g>
					<g>
						<path fill="#FFD15C" d="M15.7,21.1h-2.8v2.8h3.6v-2C16.5,21.5,16.1,21.1,15.7,21.1z"/>
						<path fill="#F7B64C" d="M16.7,24.1h-4v-3.2h3c0.5,0,1,0.4,1,1V24.1z M13.1,23.7h3.2v-1.8c0-0.3-0.3-0.6-0.6-0.6h-2.6V23.7z"/>
					</g>
					<g>
						<rect x="12.9" y="23.9" fill="#FFD15C" width="3.6" height="2.8"/>
						<path fill="#F7B64C" d="M16.7,26.9h-4v-3.2h4V26.9z M13.1,26.5h3.2v-2.4h-3.2V26.5z"/>
					</g>
					<g>
						<path fill="#FFD15C" d="M16.5,26.7h-3.6v2.8h2.8c0.4,0,0.8-0.3,0.8-0.8V26.7z"/>
						<path fill="#F7B64C" d="M15.7,29.7h-3v-3.2h4v2.2C16.7,29.2,16.2,29.7,15.7,29.7z M13.1,29.3h2.6c0.3,0,0.6-0.3,0.6-0.6v-1.8
							h-3.2V29.3z"/>
					</g>
				</g>
				<g>
					<g>
						<path fill="#FFD15C" d="M9.4,21.1H6.5c-0.4,0-0.8,0.3-0.8,0.8v2h3.6V21.1z"/>
						<path fill="#F7B64C" d="M9.6,24.1h-4v-2.2c0-0.5,0.4-1,1-1h3V24.1z M5.9,23.7h3.2v-2.4H6.5c-0.3,0-0.6,0.3-0.6,0.6V23.7z"/>
					</g>
					<g>
						<rect x="5.7" y="23.9" fill="#FFD15C" width="3.6" height="2.8"/>
						<path fill="#F7B64C" d="M9.6,26.9h-4v-3.2h4V26.9z M5.9,26.5h3.2v-2.4H5.9V26.5z"/>
					</g>
					<g>
						<path fill="#FFD15C" d="M9.4,26.7H5.7v2c0,0.4,0.3,0.8,0.8,0.8h2.8V26.7z"/>
						<path fill="#F7B64C" d="M9.6,29.7h-3c-0.5,0-1-0.4-1-1v-2.2h4V29.7z M5.9,26.9v1.8c0,0.3,0.3,0.6,0.6,0.6h2.6v-2.4H5.9z"/>
					</g>
				</g>
				<g>
					<g>
						<rect x="9.4" y="21.1" fill="#FFD15C" width="3.5" height="4.4"/>
						<path fill="#F7B64C" d="M13.1,25.7H9.2v-4.8h3.9V25.7z M9.6,25.3h3.1v-4H9.6V25.3z"/>
					</g>
				</g>
				<g>
					<g>
						<rect x="9.4" y="25.5" fill="#FFD15C" width="3.5" height="4"/>
						<path fill="#F7B64C" d="M13.1,29.7H9.2v-4.3h3.9V29.7z M9.6,29.3h3.1v-3.6H9.6V29.3z"/>
					</g>
				</g>
			</g>
		</g>
	</g>
</g>
</svg>
