<?xml version="1.0" encoding="utf-8"?>
<!-- Generator: Adobe Illustrator 18.0.0, SVG Export Plug-In . SVG Version: 6.00 Build 0)  -->
<!DOCTYPE svg PUBLIC "-//W3C//DTD SVG 1.1//EN" "http://www.w3.org/Graphics/SVG/1.1/DTD/svg11.dtd">
<svg version="1.1" id="Layer_1" xmlns="http://www.w3.org/2000/svg" xmlns:xlink="http://www.w3.org/1999/xlink" x="0px" y="0px"
	 viewBox="0 0 48 48" enable-background="new 0 0 48 48" xml:space="preserve">
<g>
	<path fill="#F8B64C" d="M48,41.2H0V9.4c0-1.1,0.9-2,2-2h44c1.1,0,2,0.9,2,2V41.2z"/>
	<path fill="#F2F2F2" d="M43.7,17.8H4.3V2c0-1.1,0.9-2,2-2h35.4c1.1,0,2,0.9,2,2V17.8z"/>
	<g>
		<rect x="8.9" y="2" fill="#ACB3BA" width="30.1" height="2.5"/>
		<rect x="8.9" y="7.7" fill="#CDD6E0" width="30.1" height="2.5"/>
		<rect x="8.9" y="13.4" fill="#84DBFF" width="30.1" height="2.5"/>
	</g>
	<path fill="#FFD15C" d="M48,19.8V46c0,1.1-0.9,2-2,2H2c-1.1,0-2-0.9-2-2V15.1c0-1.1,0.9-2,2-2h9.1c1.1,0,2,0.9,2,2v0.7
		c0,1.1,0.9,2,2,2H46C47.1,17.8,48,18.7,48,19.8z"/>
</g>
</svg>
