<?xml version="1.0" encoding="utf-8"?>
<!-- Generator: Adobe Illustrator 18.0.0, SVG Export Plug-In . SVG Version: 6.00 Build 0)  -->
<!DOCTYPE svg PUBLIC "-//W3C//DTD SVG 1.1//EN" "http://www.w3.org/Graphics/SVG/1.1/DTD/svg11.dtd">
<svg version="1.1" id="Layer_1" xmlns="http://www.w3.org/2000/svg" xmlns:xlink="http://www.w3.org/1999/xlink" x="0px" y="0px"
	 viewBox="0 0 48 48" enable-background="new 0 0 48 48" xml:space="preserve">
<g>
	<path fill="#F2F2F2" d="M4.3,0.1C3.5,9.7,3.9,20,5.8,29.6c1,5.2,0.7,10.7,0.6,15.3c0,1.7,1.3,3,3,3h29.3c1.7,0,3-1.4,3-3
		c-0.1-4.6-0.4-10.2,0.6-15.3c1.8-9.5,2.3-19.9,1.4-29.5H4.3z"/>
	<path fill="#FF7058" d="M39.9,13.9l-3.6-1.1c-3.8-1.2-8-0.9-11.6,1l0,0c-3,1.5-6.5,2-9.8,1.4l-6.8-1.3c0.2,4.7,0.8,9.3,1.6,13.7
		c0.9,4.8,0.8,9.7,0.7,14c0,0.4,0,0.8,0,1.2c0,2.7,27.2,2.7,27.2,0c0-0.4,0-0.8,0-1.2c-0.1-4.3-0.2-9.2,0.7-14
		C39.2,23.2,39.7,18.6,39.9,13.9z"/>
	<g>
		<path fill="#F1543F" d="M18.1,24.4c-0.4-0.4-1.1-0.4-1.5,0l-3.3,3.3c-0.4,0.4-0.4,1.1,0,1.5l3.3,3.3c0.4,0.4,1.1,0.4,1.5,0
			l3.3-3.3c0.4-0.4,0.4-1.1,0-1.5L18.1,24.4z"/>
		<path fill="#F1543F" d="M32.5,35.5l-3.3-3.3c-0.4-0.4-1.1-0.4-1.5,0l-3.3,3.3c-0.4,0.4-0.4,1.1,0,1.5l3.3,3.3
			c0.4,0.4,1.1,0.4,1.5,0l3.3-3.3C32.9,36.5,32.9,35.9,32.5,35.5z"/>
		<path fill="#F1543F" d="M33.6,20.9l-3.3-3.3c-0.4-0.4-1.1-0.4-1.5,0l-3.3,3.3c-0.4,0.4-0.4,1.1,0,1.5l3.3,3.3
			c0.4,0.4,1.1,0.4,1.5,0l3.3-3.3C34,22,34,21.3,33.6,20.9z"/>
	</g>
</g>
</svg>
