<?xml version="1.0" encoding="utf-8"?>
<!-- Generator: Adobe Illustrator 19.0.1, SVG Export Plug-In . SVG Version: 6.00 Build 0)  -->
<svg version="1.1" id="Layer_1" xmlns="http://www.w3.org/2000/svg" xmlns:xlink="http://www.w3.org/1999/xlink" x="0px" y="0px"
	 viewBox="0 0 48 48" style="enable-background:new 0 0 48 48;" xml:space="preserve">
<style type="text/css">
	.st0{fill:#415A6B;}
	.st1{fill:#ADB3BA;}
	.st2{fill:#E8EAE9;}
	.st3{fill:#55C0EB;}
	.st4{fill:#F3705A;}
	.st5{fill:#FFFFFF;}
	.st6{fill:#FFD15C;}
	.st7{fill:#344A5E;}
	.st8{fill:#CED6E0;}
	.st9{fill:#F05540;}
	.st10{fill:#F7B64C;}
	.st11{fill:#F3F3F3;}
	.st12{fill:#66C6B9;}
	.st13{fill:#4ABAA5;}
	.st14{fill:#8AD7F8;}
	.st15{fill:none;}
	.st16{fill:#E53D35;}
</style>
<g>
	<g>
		<g>
			<g>
				<path class="st12" d="M12.7,48l1.3-3.9l-2.8-4.3c0,0,1.4-13.6-7.7-9.2c0,0-2.2,4.3-3,11c-0.2,2-0.4,4.2-0.5,6.4H12.7z"/>
			</g>
			<g>
				<path class="st12" d="M43.3,48c-0.5-3.6-1.4-9.2-1.6-10.9c-0.3-2.6-1.3-6.3-1.3-6.3s-3.8,6.6-4.5,11.7c-0.3,2.1-0.2,4,0,5.5
					H43.3z"/>
			</g>
			<g>
				<path class="st6" d="M34,10.4l-0.7,3.1c0,0-0.5,3.6-1.3,5.1c-0.8,1.6-2.4,4.1-2.4,4.1l-0.4,4.7c0,0-8.5,0.2-9.9-1.9
					s-0.4-1-0.4-1s0.6-5,0.6-6c-0.1-1.1,0.2-4.8,0.2-4.8s0.6-5.7,2.7-7.8s5.3-2.4,5.3-2.4S34.4,4,34,10.4z"/>
			</g>
			<g>
				<path class="st0" d="M20.6,11.6l-0.1,2h0.7c0,0,0.6-4,1.4-4.2c0.7-0.1,1.7-0.2,1.5-0.8s-1.2-2.5,1.2-2.2s5.6,1.1,7,0.9
					c1.4-0.2,1.5,2.7,1.4,3.9s-0.3,2.3-0.3,2.3s0.4-1.7,0.9-2.3s0.8-2.9,0.5-4.2s-1.5-5.8-5.8-6.7S22,1.7,21,2.7s-1.6,4.5-1.8,5.1
					S18.8,11,18.8,11s0,0,0,0C19.4,10.2,20.6,10.6,20.6,11.6z"/>
			</g>
			<g>
				
					<ellipse transform="matrix(0.9971 -7.550412e-002 7.550412e-002 0.9971 -0.8652 1.4921)" class="st6" cx="19.3" cy="12.2" rx="1.5" ry="2.8"/>
			</g>
			<g>
				<path class="st10" d="M26.8,24c-1.8-0.4-4.7-2.7-5.9-5.1c0,0,0,2.3,2.7,5.1c1.1,1.2,3.6,2.3,5.7,3.3l0.4-4.6
					C29.6,22.7,28.6,24.4,26.8,24z"/>
			</g>
			<g>
				<path class="st13" d="M11.1,39.8l-1,8.2h26.5c0,0,0,0,0,0c-0.1-2,1.4-4.2,2.2-6.1c0.8-1.9,2.2-9.7,1.6-11.1
					c-0.7-1.4-2.3-2.3-4.1-3.2c-1.8-0.9-6.5-3.2-6.5-3.2l-0.9,2.4l-2.1,0.1l-0.5-0.1l-2.8,0.5l-5.7-4.3c0,0,0,0-0.7,0.1
					c-0.7,0.1-7.9,3.8-9.9,4.9c-2,1.1-3.8,2.6-3.8,2.6C8.4,29.4,11.1,39.8,11.1,39.8z"/>
			</g>
			<g>
				<g>
					<polyline class="st4" points="25.8,28.5 25.6,28.1 24.4,27 23.4,27.8 24.7,28.9 25.8,29 					"/>
				</g>
				<g>
					<polygon class="st4" points="27.1,28.6 27.2,28.3 28,26.9 29.1,27.8 27.7,29.1 26.4,29.4 					"/>
				</g>
				<g>
					<path class="st4" d="M26,48h4.8c-0.2-3.5-2.8-15.9-3.2-17.1c-0.5-1.2-0.5-1.2-0.5-1.2l-1,0L26.1,31C26.1,31,25.9,43.6,26,48z"
						/>
				</g>
				<g>
					<path class="st9" d="M24.7,28.9c0,0,0.7-0.3,0.9-0.8c0,0,1.2,0.2,1.6,0.2c0,0,0.2,0.6,0.5,0.8l0,1.8c-0.5-0.5-1-0.4-1.6,0
						C26.1,31,25.4,29.1,24.7,28.9z"/>
				</g>
			</g>
			<g>
				<path class="st11" d="M26.8,26.9c0,0,2.6,2.5,2.5,3.9c0,0,0.7-1.1,0.7-2.6c0-1.4-0.5-5.4-0.5-5.4S29.4,24.4,29,25
					C28.5,25.6,27.3,26.7,26.8,26.9z"/>
			</g>
			<g>
				<path class="st11" d="M19.4,19.9c0,0-0.4,1.7,1.1,3.2s5.7,3.7,5.7,3.7s-2.9,3.1-3.1,4.2c0,0-2-2.1-3.1-3.3c-1.1-1.2-3-4.2-3-4.6
					s0.6-0.9,1-1.9C18.5,20.1,19,19.9,19.4,19.9"/>
			</g>
		</g>
		<g>
			<g>
				<circle class="st2" cx="37.7" cy="37.7" r="10.3"/>
			</g>
			<g>
				<circle class="st8" cx="37.7" cy="37.7" r="7.2"/>
			</g>
			<g>
				<g>
					<path class="st2" d="M37.3,40.5V38c-0.8-0.2-1.3-0.5-1.7-1s-0.5-1-0.5-1.6c0-0.6,0.2-1.2,0.6-1.6c0.4-0.4,0.9-0.7,1.6-0.8v-0.6
						h0.8V33c0.6,0.1,1.1,0.3,1.5,0.6c0.4,0.3,0.6,0.8,0.7,1.4l-1.5,0.2c-0.1-0.5-0.3-0.8-0.7-0.9v2.3c0.9,0.3,1.6,0.6,1.9,1
						c0.3,0.4,0.5,0.9,0.5,1.6c0,0.7-0.2,1.3-0.6,1.8c-0.4,0.5-1,0.8-1.8,0.9v1.1h-0.8v-1.1c-0.7-0.1-1.2-0.3-1.6-0.8
						c-0.4-0.4-0.7-1-0.8-1.8l1.5-0.2c0.1,0.3,0.2,0.6,0.4,0.8C36.9,40.2,37.1,40.3,37.3,40.5z M37.3,34.3c-0.2,0.1-0.4,0.2-0.5,0.4
						c-0.1,0.2-0.2,0.4-0.2,0.6c0,0.2,0.1,0.4,0.2,0.6c0.1,0.2,0.3,0.3,0.6,0.4V34.3z M38.1,40.5c0.3-0.1,0.5-0.2,0.7-0.4
						c0.2-0.2,0.3-0.5,0.3-0.8c0-0.3-0.1-0.5-0.2-0.7c-0.2-0.2-0.4-0.3-0.8-0.4V40.5z"/>
				</g>
			</g>
		</g>
	</g>
</g>
</svg>
