<?xml version="1.0" encoding="utf-8"?>
<!-- Generator: Adobe Illustrator 18.0.0, SVG Export Plug-In . SVG Version: 6.00 Build 0)  -->
<!DOCTYPE svg PUBLIC "-//W3C//DTD SVG 1.1//EN" "http://www.w3.org/Graphics/SVG/1.1/DTD/svg11.dtd">
<svg version="1.1" id="Layer_1" xmlns="http://www.w3.org/2000/svg" xmlns:xlink="http://www.w3.org/1999/xlink" x="0px" y="0px"
	 viewBox="0 0 48 48" enable-background="new 0 0 48 48" xml:space="preserve">
<g>
	<g>
		<g>
			<g>
				<g>
					<path fill="#FFD15C" d="M28.1,7.6c0,0,0.6-0.9,1.2-1.1c0.2-0.1,0.4,0.1,0.4,0.3c0,0.2,0,0.5-0.1,0.9c0,0.1-0.1,0.2-0.2,0.3
						c-0.1,0.1-0.2,0.4-0.4,0.7c-0.2,0.6-0.7,1.8-1.6,1.8c-0.9-0.1-0.4-1.1-0.4-1.1L28.1,7.6z"/>
				</g>
			</g>
		</g>
		<g>
			<g>
				<g>
					<path fill="#FFD15C" d="M20,7.6c0,0-0.6-0.9-1.2-1.1c-0.2-0.1-0.4,0.1-0.4,0.3c0,0.2,0,0.5,0.1,0.9c0,0.1,0.1,0.2,0.2,0.3
						c0.1,0.1,0.2,0.4,0.4,0.7c0.2,0.6,0.7,1.8,1.6,1.8c0.9-0.1,0.4-1.1,0.4-1.1L20,7.6z"/>
				</g>
			</g>
		</g>
	</g>
	<g>
		<g>
			<g>
				<path fill="#425A6B" d="M28.1,9.7c0.7-1.6,1.1-3.4,1.1-4.5c0-2.8-2.2-5-5-5s-5,2.2-5,5c0,1.2,0.4,2.9,1.1,4.5H28.1z"/>
			</g>
		</g>
	</g>
	<g>
		<g>
			<g>
				<g>
					<g>
						<g>
							<g>
								<g>
									<path fill="#E8EAE8" d="M35.9,27.4L35,21.7c0,0-0.7-2.5-1.2-3.5c-0.5-1.1-1.8-1.6-2.5-1.8c-0.7-0.2-5.2-2-5.2-2L24,13.6
										l-2.1,0.7c0,0-4.4,1.8-5.2,2c-0.7,0.2-2,0.8-2.5,1.8c-0.5,1.1-1.2,3.5-1.2,3.5l-0.9,5.7H35.9z"/>
								</g>
							</g>
						</g>
					</g>
					<g>
						<g>
							<g>
								<path fill="#F5B54C" d="M26.8,11.3V13l-0.5,1.5L24,16.1c-0.2,0.3-1.3-0.1-2-0.1l-1.3-2.7V9.8L26.8,11.3"/>
							</g>
						</g>
					</g>
					<g>
						<g>
							<g>
								<path fill="#F05640" d="M26.1,27.4L26,26.1l-0.5-5.3c0,0-0.1-0.7-0.5-1.4c-0.4-0.7-0.5-1.2-0.5-1.2l-0.1-0.4
									c-0.2-0.3-0.9-0.1-1,0.4c-0.1,0.5-0.3,1.4-0.3,1.4s-0.6,1.7-0.9,3.2c-0.1,0.7-0.2,2.7-0.1,4.6H26.1z"/>
							</g>
						</g>
					</g>
					<g>
						<g>
							<g>
								<path fill="#F26F5A" d="M21.9,16.8c0,0,1.3,0.7,1.5,1.4c0.4-0.4,0.7-0.4,1.1,0c0,0,0.3-1.2,1.1-1.4
									C24.3,15.7,23.1,15.7,21.9,16.8z"/>
							</g>
						</g>
					</g>
					<g>
						<g>
							<g>
								<g>
									<g>
										<path fill="#F3F3F3" d="M26.8,13c0,0-0.5,1.1-1.5,1.8L23.9,16c1.2,0.4,2.2,1.5,3.1,2.7l0.4-2.6C27.6,15,27.4,13.9,26.8,13
											L26.8,13z"/>
									</g>
								</g>
							</g>
							<g>
								<g>
									<g>
										<path fill="#F3F3F3" d="M20.9,18.7c0,0,2.3-2.8,3-2.7c0,0-2.8-2.1-3.1-2.7c-0.2,0.4-0.4,0.8-0.5,1.1
											c-0.2,0.4-0.2,0.9-0.1,1.4C20.2,16.6,20.5,18.2,20.9,18.7z"/>
									</g>
								</g>
							</g>
						</g>
					</g>
				</g>
			</g>
			<g>
				<g>
					<g>
						<polygon fill="#425A6B" points="39.7,30.5 42.3,25.7 5.7,25.7 8.3,30.5 						"/>
					</g>
				</g>
			</g>
			<g>
				<g>
					<g>
						<g>
							<rect x="10.7" y="30.5" fill="#344A5E" width="26.6" height="17.4"/>
						</g>
					</g>
				</g>
				<g>
					<g>
						<g>
							<g>
								<polygon fill="#425A6B" points="16.4,47.9 16.4,36.2 31.6,36.2 31.6,47.9 33.9,47.9 33.9,33.9 14.1,33.9 14.1,47.9 								
									"/>
							</g>
						</g>
					</g>
				</g>
			</g>
		</g>
	</g>
	<g>
		<g>
			<g>
				<path fill="#FFD15C" d="M24.3,4.5c-1.4,0-2.5-0.5-3.3-1.2c-0.7,0.9-1.2,2.2-1.2,4c0,3.4,2,6.2,4.4,6.2s4.4-2.8,4.4-6.2
					c0-1.7-0.4-2.9-1.1-3.8C26.6,4.1,25.6,4.5,24.3,4.5z"/>
			</g>
		</g>
	</g>
</g>
</svg>
