<?xml version="1.0" encoding="utf-8"?>
<!-- Generator: Adobe Illustrator 16.0.0, SVG Export Plug-In . SVG Version: 6.00 Build 0)  -->
<!DOCTYPE svg PUBLIC "-//W3C//DTD SVG 1.1//EN" "http://www.w3.org/Graphics/SVG/1.1/DTD/svg11.dtd">
<svg version="1.1" id="Layer_1" xmlns="http://www.w3.org/2000/svg" xmlns:xlink="http://www.w3.org/1999/xlink" x="0px" y="0px"
	 width="48px" height="48px" viewBox="0 0 48 48" enable-background="new 0 0 48 48" xml:space="preserve">
<g>
	<path fill="#F8B64C" d="M31.077,31.471c0.051,1.92,0.449,3.83,1.189,5.74c-5.51,1.2-11.02,1.2-16.529,0
		c1.59-4.14,1.59-8.29,0-12.43c5.51-1.2,11.02-1.2,16.529,0c-0.109,0.28-0.209,0.55-0.289,0.83h-0.01
		c-0.65,1.94-0.951,3.89-0.891,5.84V31.471z"/>
	<path fill="#F2F2F2" d="M31.087,31.46v0.03l-7.088,5.721l-7.086-5.721v-0.03l-7.701,3.026C3.657,36.67,0.003,42.031,0.003,48
		h23.996h23.998c0-5.969-3.652-11.33-9.209-13.514L31.087,31.46z"/>
	<polygon fill="#40596B" points="27.192,40.404 24.001,37.211 20.808,40.404 22.308,41.905 21.724,48 26.272,48 25.696,41.9 	"/>
	<g opacity="0.1">
		<g>
			<defs>
				<rect id="SVGID_23_" x="20.247" y="25.607" width="11.721" height="9.93"/>
			</defs>
			<clipPath id="SVGID_2_">
				<use xlink:href="#SVGID_23_"  overflow="visible"/>
			</clipPath>
			<path clip-path="url(#SVGID_2_)" fill="#40596B" d="M31.968,25.611c-0.65,1.94-0.951,3.89-0.891,5.84v0.02l-5.02,4.07
				l-5.811-4.31l3.121-3.85L31.968,25.611z"/>
		</g>
	</g>
	<path fill="#F8B64C" d="M16.478,18.086c0.156,1.795-0.715,3.338-1.945,3.445c-1.232,0.108-2.357-1.26-2.516-3.055
		c-0.156-1.795,0.715-3.338,1.945-3.445C15.194,14.923,16.319,16.292,16.478,18.086"/>
	<path fill="#F8B64C" d="M35.983,18.477c-0.158,1.795-1.283,3.163-2.514,3.055c-1.232-0.107-2.104-1.65-1.947-3.445
		c0.158-1.795,1.283-3.163,2.516-3.055C35.269,15.139,36.14,16.682,35.983,18.477"/>
	<path fill="#FFD15C" d="M34.358,13.39v3.4c-0.01,0.72-0.051,1.44-0.141,2.15c-0.15,1.18-0.4,2.34-0.75,3.46
		c-0.85,2.71-2.279,5.21-4.209,7.32l-0.99,1.08c-0.9,0.99-2.18,1.55-3.52,1.55h-1.5c-1.33,0-2.611-0.57-3.512-1.55l-0.979-1.08
		c-1.371-1.49-2.49-3.19-3.32-5c-0.84-1.82-1.4-3.771-1.641-5.78c-0.09-0.71-0.139-1.43-0.139-2.15
		c-0.012-0.08-0.012-0.15-0.012-0.23v-3.11c0-0.979,0.141-1.939,0.4-2.84c1.23-4.33,5.221-7.51,9.961-7.51
		c4.729,0,8.719,3.18,9.949,7.51C34.218,11.49,34.358,12.43,34.358,13.39"/>
	<polygon fill="#CDD6E0" points="24.001,37.211 31.091,31.458 31.505,31.622 28.304,41.533 	"/>
	<polygon fill="#CDD6E0" points="24.003,37.211 16.913,31.458 16.499,31.622 19.7,41.533 	"/>
	<path fill="#ACB3BA" d="M33.235,30.44c-0.012,0.011-0.021,0.011-0.021,0.011v-0.022C33.224,30.429,33.235,30.44,33.235,30.44"/>
	<path fill="#ACB3BA" d="M33.28,30.429v0.022c0,0-0.012,0-0.023-0.011C33.257,30.44,33.269,30.429,33.28,30.429"/>
	<path fill="#40596B" d="M34.196,19.313c0.334-3.273-0.268-5.441-0.736-6.566c-0.277-0.663-0.348-1.379-0.25-2.091
		c0.43-3.107-1.203-2.687-1.203-2.687c-3.512,1.726-8.004,1.688-8.004,1.688s-4.492,0.038-8.004-1.688c0,0-1.633-0.42-1.203,2.687
		c0.1,0.712,0.027,1.428-0.25,2.091c-0.467,1.125-1.07,3.293-0.734,6.566c0,0-6.854-20.039,10.191-19.292
		C41.048-0.727,34.196,19.313,34.196,19.313"/>
	<path fill="#CDD6E0" d="M38.06,40.458c0,1.296-1.051,2.347-2.346,2.347c-1.297,0-2.35-1.051-2.35-2.347
		c0-1.297,1.053-2.347,2.35-2.347C37.009,38.112,38.06,39.162,38.06,40.458"/>
	<path fill="#F2F2F2" d="M37.11,40.458c0,0.771-0.625,1.397-1.398,1.397c-0.77,0-1.396-0.626-1.396-1.397s0.627-1.397,1.396-1.397
		C36.485,39.062,37.11,39.688,37.11,40.458"/>
	<path fill="#D7D8DB" d="M36.636,38.465l-1.178-0.235c0.006-0.032,0.598-3.129-0.9-4.955c-0.744-0.905-1.914-1.364-3.477-1.364
		V30.71c1.941,0,3.424,0.608,4.406,1.808C37.347,34.788,36.665,38.317,36.636,38.465"/>
	<path fill="#D7D8DB" d="M16.921,30.481c-1.484,0.17-2.648,0.759-3.467,1.757c-1.859,2.269-1.176,5.797-1.145,5.946l1.176-0.236
		c-0.006-0.031-0.605-3.115,0.898-4.949c0.584-0.715,1.434-1.152,2.531-1.306C16.997,31.681,16.995,30.473,16.921,30.481"/>
	<path fill="#D7D8DB" d="M10.11,46.782l-0.203-0.326c-0.77-1.234-1.244-2.529-1.404-3.847c-0.344-2.786,1.643-5.352,4.426-5.721
		c2.852-0.352,5.43,1.632,5.799,4.415c0.174,1.317,0.043,2.688-0.393,4.076l-0.115,0.367l-1.553,0.198l-0.152-1.191l0.783-0.1
		c0.295-1.092,0.377-2.164,0.24-3.191c-0.283-2.133-2.246-3.652-4.385-3.393c-2.201,0.292-3.723,2.259-3.459,4.394
		c0.125,1.028,0.475,2.046,1.035,3.029l0.781-0.1l0.152,1.192L10.11,46.782z"/>
	<path fill="#ACB3BA" d="M13.237,45.777c0.092,0.715-0.414,1.368-1.129,1.459c-0.715,0.092-1.045-2.497-0.33-2.588
		C12.493,44.558,13.147,45.063,13.237,45.777"/>
	<path fill="#ACB3BA" d="M14.94,45.56c0.09,0.715,0.744,1.22,1.459,1.129c0.715-0.091,0.385-2.68-0.33-2.588
		C15.354,44.192,14.849,44.845,14.94,45.56"/>
</g>
</svg>
