<?xml version="1.0" encoding="utf-8"?>
<!-- Generator: Adobe Illustrator 20.1.0, SVG Export Plug-In . SVG Version: 6.00 Build 0)  -->
<!DOCTYPE svg PUBLIC "-//W3C//DTD SVG 1.1//EN" "http://www.w3.org/Graphics/SVG/1.1/DTD/svg11.dtd">
<svg version="1.1" id="Layer_1" xmlns="http://www.w3.org/2000/svg" xmlns:xlink="http://www.w3.org/1999/xlink" x="0px" y="0px"
	 viewBox="0 0 49 49" enable-background="new 0 0 49 49" xml:space="preserve">
<g>
	<polygon fill="#F2F2F2" points="13.3,11.9 13.3,4.3 8,4.3 8,17.2 	"/>
	<rect x="0.5" y="44.8" fill="#E2E2E2" width="48" height="3.7"/>
	<polygon fill="#F2F2F2" points="43.7,26.1 43.7,48.5 5.3,48.5 5.3,26.1 24.5,6.9 	"/>
	<path fill="#E2E2E2" d="M43.7,26.1V28c-0.3-0.2-0.6-0.4-0.8-0.6L24.5,9L6.1,27.4c-0.3,0.3-0.5,0.5-0.8,0.6v-1.9L24.5,6.9L43.7,26.1
		z"/>
	<rect x="15.8" y="22.2" fill="#FFFFFF" width="17.4" height="13.3"/>
	<path fill="#FFD15C" d="M3.2,27.1c-0.7,0-1.4-0.3-1.9-0.8c-1-1-1-2.7,0-3.7L22.6,1.3c1-1,2.7-1,3.7,0l21.3,21.3c1,1,1,2.7,0,3.7
		c-1,1-2.7,1-3.7,0L24.5,6.9L5.1,26.3C4.6,26.8,3.9,27.1,3.2,27.1z"/>
	<rect x="16.9" y="23.3" fill="#84DBFF" width="7.1" height="5.1"/>
	<rect x="25" y="23.3" fill="#84DBFF" width="7.1" height="5.1"/>
	<rect x="16.9" y="29.4" fill="#84DBFF" width="7.1" height="5.1"/>
	<rect x="25" y="29.4" fill="#84DBFF" width="7.1" height="5.1"/>
	<rect x="6.6" y="1.6" fill="#E2E2E2" width="8.1" height="2.7"/>
</g>
</svg>
