<?xml version="1.0" encoding="utf-8"?>
<!-- Generator: Adobe Illustrator 18.0.0, SVG Export Plug-In . SVG Version: 6.00 Build 0)  -->
<!DOCTYPE svg PUBLIC "-//W3C//DTD SVG 1.1//EN" "http://www.w3.org/Graphics/SVG/1.1/DTD/svg11.dtd">
<svg version="1.1" id="Layer_1" xmlns="http://www.w3.org/2000/svg" xmlns:xlink="http://www.w3.org/1999/xlink" x="0px" y="0px"
	 viewBox="0 0 48 48" enable-background="new 0 0 48 48" xml:space="preserve">
<g>
	<circle fill="#40596B" cx="24" cy="24" r="24"/>
	<circle fill="#F2F2F2" cx="24" cy="24" r="20.3"/>
	<path fill="#FFD15C" d="M24,5.1v6.4c-3.5,0-6.6,1.4-8.9,3.7l-4.5-4.5C14,7.2,18.8,5.1,24,5.1z"/>
	<path fill="#ACB3BA" d="M15.2,15.1c-2.3,2.3-3.7,5.4-3.7,8.8H5.1c0-5.2,2.1-10,5.5-13.4L15.2,15.1z"/>
	<path fill="#F8B64C" d="M37.4,10.6l-4.5,4.5c-2.3-2.3-5.4-3.7-8.8-3.7V5.1C29.2,5.1,34,7.2,37.4,10.6z"/>
	<path fill="#FF7058" d="M42.9,24h-6.4c0-3.5-1.4-6.6-3.7-8.8l4.5-4.5C40.8,14,42.9,18.8,42.9,24z"/>
	<path fill="#F1543F" d="M42.9,24c0,5.2-2.1,10-5.5,13.4l-4.5-4.5c2.3-2.3,3.7-5.4,3.7-8.9H42.9z"/>
	<path fill="#CDD6E0" d="M15.2,32.8l-4.5,4.5C7.2,34,5.1,29.2,5.1,24h6.4C11.5,27.5,12.9,30.6,15.2,32.8z"/>
	<g>
		<path fill="#40596B" d="M25.5,28.4c-1.5,0.9-3.4,0.4-4.3-1.1c-0.9-1.5-0.4-3.4,1.1-4.3c1.5-0.9,17.3-6.8,17.3-6.8
			S27,27.5,25.5,28.4z"/>
		<circle fill="#FFFFFF" cx="24" cy="25.6" r="1.4"/>
	</g>
	<path opacity="0.15" fill="#40596B" d="M10.6,12.6C14,9.2,18.8,7.1,24,7.1c5.2,0,10,2.1,13.4,5.5c3.2,3.2,5.2,7.6,5.5,12.4
		c0-0.3,0.1-0.7,0.1-1c0-5.2-2.1-10-5.5-13.4C34,7.2,29.2,5.1,24,5.1c-5.2,0-10,2.1-13.4,5.5C7.2,14,5.1,18.8,5.1,24
		c0,0.3,0,0.7,0.1,1C5.4,20.2,7.4,15.8,10.6,12.6z"/>
</g>
</svg>
