<?xml version="1.0" encoding="utf-8"?>
<!-- Generator: Adobe Illustrator 18.0.0, SVG Export Plug-In . SVG Version: 6.00 Build 0)  -->
<!DOCTYPE svg PUBLIC "-//W3C//DTD SVG 1.1//EN" "http://www.w3.org/Graphics/SVG/1.1/DTD/svg11.dtd">
<svg version="1.1" id="Layer_1" xmlns="http://www.w3.org/2000/svg" xmlns:xlink="http://www.w3.org/1999/xlink" x="0px" y="0px"
	 viewBox="0 0 48 48" enable-background="new 0 0 48 48" xml:space="preserve">
<g>
	<path fill="#CDD6E0" d="M40.7,9.1c-1.2-1.2-3.1-1.2-4.3,0L7.3,38.3c-1.2,1.2-1.2,3.1,0,4.3c1.2,1.2,3.1,1.2,4.3,0l29.1-29.1
		C41.9,12.2,41.9,10.3,40.7,9.1z"/>
	<path fill="#CDD6E0" d="M7.3,9.1c1.2-1.2,3.1-1.2,4.3,0l29.1,29.1c1.2,1.2,1.2,3.1,0,4.3c-1.2,1.2-3.1,1.2-4.3,0L7.3,13.4
		C6.1,12.2,6.1,10.3,7.3,9.1z"/>
	<path fill="#CDD6E0" d="M28.1,11h-8.2V4.1C19.9,1.8,21.7,0,24,0h0c2.3,0,4.1,1.8,4.1,4.1V11z"/>
	<path fill="#CDD6E0" d="M22.6,41.6l-1.9,2.5c-0.2,0.2-0.2,0.5,0,0.8l1.9,2.5c0.5,0.7,2.2,0.7,2.8,0l1.9-2.5c0.2-0.2,0.2-0.5,0-0.8
		l-1.9-2.5C24.8,40.9,23.2,40.9,22.6,41.6z"/>
	<ellipse fill="#4CDBC4" cx="24" cy="25.8" rx="16.9" ry="19.5"/>
	<path fill="#3DC9AE" d="M39.4,18c-0.2-0.6-0.5-1.2-0.8-1.7l-7.6,4.4l-6.1-3.5V6.4c-0.3,0-0.6-0.1-0.9-0.1c-0.3,0-0.6,0-0.9,0.1
		v10.7l-6.1,3.5l-7.6-4.4C9,16.8,8.8,17.4,8.6,18l7.4,4.3v7.1l-7.4,4.3c0.2,0.6,0.5,1.2,0.8,1.7l7.6-4.4l6.1,3.5v10.7
		c0.3,0,0.6,0.1,0.9,0.1c0.3,0,0.6,0,0.9-0.1V34.5l6.1-3.5l7.6,4.4c0.3-0.6,0.5-1.1,0.8-1.7L32,29.4v-7.1L39.4,18z M30.1,28.3v1.1
		L24,32.9l0,0l0,0l-6.1-3.5v-7.1l6.1-3.5l0,0l0,0l6.1,3.5l0,1.1L30.1,28.3z"/>
	<g>
		<circle fill="#FFFFFF" cx="22.1" cy="2.8" r="0.9"/>
		<circle fill="#FFFFFF" cx="25.9" cy="2.8" r="0.9"/>
	</g>
</g>
</svg>
