<?xml version="1.0" encoding="utf-8"?>
<!-- Generator: Adobe Illustrator 16.0.0, SVG Export Plug-In . SVG Version: 6.00 Build 0)  -->
<!DOCTYPE svg PUBLIC "-//W3C//DTD SVG 1.1//EN" "http://www.w3.org/Graphics/SVG/1.1/DTD/svg11.dtd">
<svg version="1.1" id="Layer_1" xmlns="http://www.w3.org/2000/svg" xmlns:xlink="http://www.w3.org/1999/xlink" x="0px" y="0px"
	 width="48px" height="48px" viewBox="0 0 48 48" enable-background="new 0 0 48 48" xml:space="preserve">
<g>
	<path fill="#FF7058" d="M40.914,15.448h-9.912v17.965h16.24v-8.086l-1.894-6.546C44.777,16.807,42.969,15.448,40.914,15.448"/>
	<path fill="#84DBFF" d="M44.871,25.244l-1.688-5.835c-0.291-1.003-1.224-1.705-2.269-1.705h-7.656v7.54H44.871z"/>
	<polygon fill="#CDD6E0" points="44.873,25.241 33.254,25.241 33.254,17.701 	"/>
	<path fill="#F2F2F2" d="M44.871,25.244l-1.688-5.835c-0.291-1.003-1.224-1.705-2.269-1.705h-7.656L44.871,25.244z"/>
	<path fill="#FFD15C" d="M2.998,6.429h25.004c1.656,0,3,1.343,3,3v23.983H-0.002V9.429C-0.002,7.772,1.341,6.429,2.998,6.429"/>
	<polygon fill="#F2F2F2" points="20.318,6.434 20.318,14.361 19.158,13.201 17.942,14.417 16.727,13.201 15.512,14.417 
		14.295,13.201 13.064,14.417 11.85,13.201 10.676,14.375 10.676,6.434 	"/>
	<path fill="#334A5E" d="M48.002,33.411v3.39h-48v-3.39h5.01c1.17-2.1,3.42-3.52,6-3.52c2.57,0,4.82,1.42,6,3.52h16.12
		c1.17-2.1,3.409-3.52,5.989-3.52s4.82,1.42,6,3.52H48.002z"/>
	<path fill="#40596B" d="M43.912,36.78c0,2.646-2.145,4.791-4.791,4.791c-2.646,0-4.789-2.145-4.789-4.791s2.144-4.791,4.789-4.791
		C41.768,31.989,43.912,34.134,43.912,36.78"/>
	<path fill="#ACB3BA" d="M41.047,36.78c0,1.063-0.862,1.924-1.924,1.924c-1.063,0-1.926-0.861-1.926-1.924s0.862-1.924,1.926-1.924
		C40.185,34.855,41.047,35.717,41.047,36.78"/>
	<path fill="#40596B" d="M15.799,36.78c0,2.646-2.146,4.791-4.791,4.791c-2.646,0-4.791-2.145-4.791-4.791s2.145-4.791,4.791-4.791
		C13.653,31.989,15.799,34.134,15.799,36.78"/>
	<path fill="#ACB3BA" d="M12.932,36.78c0,1.063-0.861,1.924-1.924,1.924s-1.925-0.861-1.925-1.924s0.862-1.924,1.925-1.924
		S12.932,35.717,12.932,36.78"/>
</g>
</svg>
