<?xml version="1.0" encoding="utf-8"?>
<!-- Generator: Adobe Illustrator 18.0.0, SVG Export Plug-In . SVG Version: 6.00 Build 0)  -->
<!DOCTYPE svg PUBLIC "-//W3C//DTD SVG 1.1//EN" "http://www.w3.org/Graphics/SVG/1.1/DTD/svg11.dtd">
<svg version="1.1" id="Layer_1" xmlns="http://www.w3.org/2000/svg" xmlns:xlink="http://www.w3.org/1999/xlink" x="0px" y="0px"
	 viewBox="0 0 48 48" enable-background="new 0 0 48 48" xml:space="preserve">
<g>
	<g>
		<path fill="#CED6E0" d="M6.6,26.6H4.4V5.8c0-3.3,2.7-5.9,5.9-5.9c1.9,0,3.8,1,4.9,2.6l1,1.5l-1.8,1.2l-1-1.5
			c-0.7-1-1.8-1.6-3.1-1.6c-2.1,0-3.7,1.7-3.7,3.7V26.6z"/>
		<g>
			<path fill="#E8EAE9" d="M12.4,9.5l8.2-3.4l-0.6-1.2c-1-2.2-3.5-3.1-5.7-2.2l0,0c-2.3,1-3.4,3.7-2.3,6L12.4,9.5z"/>
		</g>
	</g>
	<g>
		<g>
			<path fill="#CED6E0" d="M10.2,42.2l-2.6,2.2c-0.9,0.8-1,2.1-0.2,3c0.8,0.9,2.1,1,3,0.2l6.3-5.4H10.2z"/>
			<path fill="#CED6E0" d="M40.4,44.4l-2.6-2.2h-6.5l6.3,5.4c0.9,0.8,2.2,0.7,3-0.2C41.4,46.5,41.3,45.2,40.4,44.4z"/>
		</g>
		<g>
			<path fill="#55C0EB" d="M46.2,25.8c-18.5-0.7-29.1,8.4-44.3,0L5,41c0.4,1.7,1.9,2.9,3.6,2.9h30.8c1.8,0,3.3-1.2,3.6-2.9
				L46.2,25.8z"/>
			<g>
				<g>
					<path fill="#8AD7F8" d="M15.5,31.2c-4.6,0-9.3-0.9-14.5-3.8c-0.9-0.5-1.2-1.6-0.7-2.5c0.5-0.9,1.6-1.2,2.5-0.7
						c8.8,4.8,15.8,3.5,24.7,1.8c5.4-1.1,11.6-2.3,18.8-2c1,0,1.8,0.9,1.8,1.9c0,1-0.9,1.8-1.9,1.8c-6.8-0.3-12.5,0.8-18,1.9
						C23.9,30.4,19.7,31.2,15.5,31.2z"/>
				</g>
			</g>
		</g>
	</g>
	<g>
		<g>
			<g>
				<path fill="#8AD7F8" d="M17.3,15.2c0.2,0.5,0,1-0.5,1.2c-0.5,0.2-1,0-1.2-0.5s0.1-2.1,0.1-2.1S17.1,14.7,17.3,15.2z"/>
			</g>
			<g>
				<path fill="#8AD7F8" d="M20.3,13.9c0.2,0.5,0,1-0.5,1.2s-1,0-1.2-0.5c-0.2-0.5,0.1-2.1,0.1-2.1S20.1,13.4,20.3,13.9z"/>
			</g>
			<g>
				<path fill="#8AD7F8" d="M23.3,12.6c0.2,0.5,0,1-0.5,1.2s-1,0-1.2-0.5c-0.2-0.5,0.1-2.1,0.1-2.1S23.1,12.2,23.3,12.6z"/>
			</g>
		</g>
		<g>
			<g>
				<path fill="#8AD7F8" d="M17.2,10.8c0.2,0.5,0,1-0.5,1.2s-1,0-1.2-0.5c-0.2-0.5,0.1-2.1,0.1-2.1S17,10.4,17.2,10.8z"/>
			</g>
			<g>
				<path fill="#8AD7F8" d="M20.2,9.6c0.2,0.5,0,1-0.5,1.2c-0.5,0.2-1,0-1.2-0.5c-0.2-0.5,0.1-2.1,0.1-2.1S20,9.1,20.2,9.6z"/>
			</g>
		</g>
	</g>
</g>
</svg>
