<?xml version="1.0" encoding="utf-8"?>
<!-- Generator: Adobe Illustrator 18.0.0, SVG Export Plug-In . SVG Version: 6.00 Build 0)  -->
<!DOCTYPE svg PUBLIC "-//W3C//DTD SVG 1.1//EN" "http://www.w3.org/Graphics/SVG/1.1/DTD/svg11.dtd">
<svg version="1.1" id="Layer_1" xmlns="http://www.w3.org/2000/svg" xmlns:xlink="http://www.w3.org/1999/xlink" x="0px" y="0px"
	 viewBox="0 0 48 48" enable-background="new 0 0 48 48" xml:space="preserve">
<g>
	<g>
		<path fill="#435B6C" d="M16.5,2.2h-1.4V0.8c0-0.5-0.4-0.8-0.8-0.8h0c-0.5,0-0.8,0.4-0.8,0.8v1.4H12c-0.5,0-0.8,0.4-0.8,0.8
			c0,0.5,0.4,0.8,0.8,0.8h1.4v6.4c0,0.5,0.4,0.8,0.8,0.8h0c0.5,0,0.8-0.4,0.8-0.8V3.9h1.4c0.5,0,0.8-0.4,0.8-0.8
			C17.3,2.6,16.9,2.2,16.5,2.2z"/>
		<rect x="3.6" y="27.6" fill="#CFD7E1" width="40.9" height="20.5"/>
		<polygon fill="#F15741" points="44.4,20.1 3.6,20.1 0,27.6 48,27.6 		"/>
		<g>
			<g>
				<path fill="#E8EAE9" d="M14.3,11.6c-2.9,2.9-4.5,4.5-7.5,7.5V48h14.9V19.1C18.8,16.2,17.2,14.5,14.3,11.6z"/>
				<rect x="10.3" y="36.9" fill="#435B6C" width="7.8" height="11.1"/>
			</g>
			<path fill="#F3705B" d="M24.5,19.7l-9.2-9.2c-0.6-0.6-1.6-0.6-2.2,0L4,19.7c-0.6,0.6-0.6,1.6,0,2.2c0.3,0.3,0.7,0.5,1.1,0.5
				c0.4,0,0.8-0.2,1.1-0.5l8.1-8.1l8.1,8.1c0.6,0.6,1.6,0.6,2.2,0C25.1,21.3,25.1,20.3,24.5,19.7z"/>
			<g>
				<circle fill="#435B6C" cx="14.3" cy="28.4" r="3.9"/>
				<circle fill="#8BD7F8" cx="14.3" cy="28.4" r="2.8"/>
			</g>
		</g>
		<g>
			<g>
				<g>
					<rect x="25.7" y="31.3" fill="#435B6C" width="6.2" height="12.9"/>
					<rect x="26.8" y="32.4" fill="#8BD7F8" width="4.1" height="10.7"/>
				</g>
				<g>
					<rect x="34.2" y="31.3" fill="#435B6C" width="6.2" height="12.9"/>
					<rect x="35.3" y="32.4" fill="#8BD7F8" width="4.1" height="10.7"/>
				</g>
			</g>
		</g>
	</g>
</g>
</svg>
