<?xml version="1.0" encoding="utf-8"?>
<!-- Generator: Adobe Illustrator 18.0.0, SVG Export Plug-In . SVG Version: 6.00 Build 0)  -->
<!DOCTYPE svg PUBLIC "-//W3C//DTD SVG 1.1//EN" "http://www.w3.org/Graphics/SVG/1.1/DTD/svg11.dtd">
<svg version="1.1" id="Layer_1" xmlns="http://www.w3.org/2000/svg" xmlns:xlink="http://www.w3.org/1999/xlink" x="0px" y="0px"
	 viewBox="0 0 48 48" enable-background="new 0 0 48 48" xml:space="preserve">
<g>
	<rect x="17" y="14" fill="#FF7058" width="14" height="19.4"/>
	<rect x="1.1" y="27.8" fill="#F8B64C" width="16.7" height="6.9"/>
	<rect x="1.9" y="28.6" fill="#FFD15C" width="15.1" height="5.3"/>
	<rect x="1.1" y="14" fill="#F8B64C" width="16.7" height="6.9"/>
	<rect x="1.1" y="20.9" fill="#F8B64C" width="16.7" height="6.9"/>
	<rect x="1.9" y="21.7" fill="#FFD15C" width="15.1" height="5.3"/>
	<rect x="1.9" y="14.8" fill="#FFD15C" width="15.1" height="5.3"/>
	<rect x="30.2" y="20.9" fill="#F8B64C" width="16.7" height="13.8"/>
	<rect x="31" y="21.7" fill="#FFD15C" width="15.1" height="12.2"/>
	<rect x="30.2" y="14" fill="#F8B64C" width="16.7" height="6.9"/>
	<rect y="11.5" fill="#40596B" width="48" height="2.5"/>
	<rect x="31" y="14.8" fill="#FFD15C" width="15.1" height="5.3"/>
	<polygon fill="#ACB3BA" points="5.5,36.5 3.3,36.5 3.3,34.7 6.6,34.7 	"/>
	<polygon fill="#ACB3BA" points="6.6,34.7 5.9,35.8 5.5,36.5 3.3,36.5 3.3,34.7 	"/>
	<polygon fill="#ACB3BA" points="42.5,36.5 44.7,36.5 44.7,34.7 41.4,34.7 	"/>
	<g>
		<circle fill="#FF7058" cx="11.3" cy="17.4" r="0.6"/>
		<circle fill="#FF7058" cx="7.4" cy="17.4" r="0.6"/>
		<path fill="#40596B" d="M11.2,17.8H7.7c-0.2,0-0.4-0.2-0.4-0.4v-0.1c0-0.2,0.2-0.4,0.4-0.4h3.4c0.2,0,0.4,0.2,0.4,0.4v0.1
			C11.5,17.6,11.4,17.8,11.2,17.8z"/>
	</g>
	<g>
		<circle fill="#FF7058" cx="40.5" cy="17.4" r="0.6"/>
		<circle fill="#FF7058" cx="36.6" cy="17.4" r="0.6"/>
		<path fill="#40596B" d="M40.3,17.8h-3.4c-0.2,0-0.4-0.2-0.4-0.4v-0.1c0-0.2,0.2-0.4,0.4-0.4h3.4c0.2,0,0.4,0.2,0.4,0.4v0.1
			C40.7,17.6,40.5,17.8,40.3,17.8z"/>
	</g>
	<g>
		<circle fill="#FF7058" cx="11.4" cy="24.3" r="0.6"/>
		<circle fill="#FF7058" cx="7.5" cy="24.3" r="0.6"/>
		<path fill="#40596B" d="M11.2,24.7H7.8c-0.2,0-0.4-0.2-0.4-0.4v-0.1c0-0.2,0.2-0.4,0.4-0.4h3.4c0.2,0,0.4,0.2,0.4,0.4v0.1
			C11.6,24.5,11.4,24.7,11.2,24.7z"/>
	</g>
	<g>
		<circle fill="#FF7058" cx="11.4" cy="31.2" r="0.6"/>
		<circle fill="#FF7058" cx="7.5" cy="31.2" r="0.6"/>
		<path fill="#40596B" d="M11.2,31.6H7.8c-0.2,0-0.4-0.2-0.4-0.4v-0.1c0-0.2,0.2-0.4,0.4-0.4h3.4c0.2,0,0.4,0.2,0.4,0.4v0.1
			C11.6,31.5,11.4,31.6,11.2,31.6z"/>
	</g>
	<circle fill="#40596B" cx="33.1" cy="27.8" r="1"/>
	<polygon opacity="0.15" fill="#231F20" points="6.6,34.7 5.9,35.8 3.3,35.8 3.3,34.7 	"/>
	<polygon opacity="0.15" fill="#231F20" points="41.4,34.7 42.1,35.8 44.7,35.8 44.7,34.7 	"/>
</g>
</svg>
