<?xml version="1.0" encoding="utf-8"?>
<!-- Generator: Adobe Illustrator 18.0.0, SVG Export Plug-In . SVG Version: 6.00 Build 0)  -->
<!DOCTYPE svg PUBLIC "-//W3C//DTD SVG 1.1//EN" "http://www.w3.org/Graphics/SVG/1.1/DTD/svg11.dtd">
<svg version="1.1" id="Layer_1" xmlns="http://www.w3.org/2000/svg" xmlns:xlink="http://www.w3.org/1999/xlink" x="0px" y="0px"
	 viewBox="0 0 512 512" enable-background="new 0 0 512 512" xml:space="preserve">
<g>
	<path fill="#FFD15C" d="M486.4,96.3H25.6C11.1,96.3,0,111,2.3,127.2l35,287.9c1.8,13,11.7,22.5,23.3,22.5h390.8
		c11.6,0,21.5-9.5,23.3-22.5l35-287.9C512,111,500.9,96.3,486.4,96.3z"/>
	<path fill="#F8B64C" d="M460.6,56H260.2c-6.8,0-13.3-2.9-17.8-8L201.1,11c-4.5-5.1-11-8-17.8-8H51.4c-13,0-23.6,10.6-23.6,23.6
		v69.6h456.4V79.6C484.2,66.5,473.6,56,460.6,56z"/>
	<g>
		<path fill="#FF7058" d="M398.3,314.7H188.8c-14.9,0-27,12.1-27,27V482c0,14.9,12.1,27,27,27h209.5c14.9,0,27-12.1,27-27V341.7
			C425.3,326.8,413.2,314.7,398.3,314.7z"/>
		<path fill="#F2F2F2" d="M293.5,176.3c-53.8,0-99.2,43.1-99.2,94.1v44.3h40.2v-44.3c0-28.7,27.5-53.9,58.9-53.9
			c31.4,0,58.9,25.2,58.9,53.9v44.3h40.2v-44.3C392.7,219.4,347.3,176.3,293.5,176.3z"/>
		<path fill="#40596B" d="M320.9,395.9c0-15.1-12.3-27.4-27.4-27.4c-15.1,0-27.4,12.3-27.4,27.4c0,8.9,4.3,16.7,10.9,21.8l-3.7,37.5
			h40.3l-3.7-37.5C316.6,412.7,320.9,404.9,320.9,395.9z"/>
	</g>
</g>
</svg>
