<?xml version="1.0" encoding="utf-8"?>
<!-- Generator: Adobe Illustrator 18.0.0, SVG Export Plug-In . SVG Version: 6.00 Build 0)  -->
<!DOCTYPE svg PUBLIC "-//W3C//DTD SVG 1.1//EN" "http://www.w3.org/Graphics/SVG/1.1/DTD/svg11.dtd">
<svg version="1.1" id="Layer_1" xmlns="http://www.w3.org/2000/svg" xmlns:xlink="http://www.w3.org/1999/xlink" x="0px" y="0px"
	 viewBox="0 0 512 512" enable-background="new 0 0 512 512" xml:space="preserve">
<g>
	<path fill="#FF7058" d="M500.6,266.9L249.4,15.8C240.6,6.9,228.7,2,216.2,2L47,2C21.1,2,0.1,23,0.1,48.9l0,169.2
		c0,12.5,4.9,24.3,13.8,33.2l245,245c18.3,18.3,48,18.3,66.3,0l175.5-175.6C515.6,305.7,515.5,281.7,500.6,266.9z M106.2,108
		c-11.7,11.7-30.6,11.7-42.3,0c-11.7-11.7-11.6-30.6,0-42.3c11.7-11.7,30.5-11.7,42.2,0C117.8,77.4,117.8,96.3,106.2,108z"/>
	
		<rect x="90.7" y="141.9" transform="matrix(0.7071 0.7071 -0.7071 0.7071 259.3017 -106.3688)" fill="#FFFFFF" width="334.7" height="235.9"/>
	<path fill="#4CDBC4" d="M146.4,167.5l12,9.8c-3,4.3-4.4,8.3-4.1,12.1c0.3,3.7,2.1,7.3,5.6,10.7c3.6,3.6,7.1,5.6,10.4,5.9
		s6.1-0.6,8.1-2.6c1.3-1.3,2-2.8,2.2-4.5s-0.4-3.8-1.6-6.4c-0.9-1.8-3-5.6-6.6-11.4c-4.5-7.5-6.9-13.6-7.2-18.1
		c-0.4-6.5,1.7-11.9,6.1-16.3c2.8-2.8,6.3-4.7,10.3-5.5c4.1-0.9,8.3-0.4,12.6,1.3c4.3,1.7,8.6,4.7,12.9,9c7,7,10.7,13.7,11.1,20.3
		c0.5,6.6-1.8,12.5-6.7,17.8l-11.7-10.7c2.4-3.3,3.4-6.4,3.1-9.2s-2.1-5.8-5.2-9c-3.3-3.3-6.5-5.1-9.7-5.6c-2-0.3-3.8,0.2-5.2,1.7
		c-1.3,1.3-1.9,3-1.7,5c0.2,2.6,2.4,7.3,6.6,14c4.2,6.7,6.9,12.1,8.1,16.1c1.2,4,1.4,7.9,0.5,11.8c-0.9,3.9-3.1,7.6-6.6,11.1
		c-3.2,3.2-7,5.3-11.6,6.3s-9.1,0.6-13.7-1.3c-4.6-1.9-9.3-5.2-14.1-10.1c-7-7-10.8-14-11.3-21C138.4,181.5,140.9,174.5,146.4,167.5
		z"/>
	<path fill="#4CDBC4" d="M234.2,291.5L222,279.3l7.8-17.5l-22.2-22.2l-17.2,8l-11.9-11.9l77.2-33.9l11.9,11.9L234.2,291.5z
		 M235.6,248.9l13-28.3l-28.1,13.1L235.6,248.9z"/>
	<path fill="#4CDBC4" d="M241.7,299l55.1-55.1l11.2,11.2l-45.7,45.7l27.9,27.9l-9.4,9.4L241.7,299z"/>
	<path fill="#4CDBC4" d="M290,347.3l55.5-55.5l41.2,41.2l-9.4,9.4l-30-30l-12.3,12.3l27.9,27.9l-9.4,9.4L325.7,334l-15.1,15.1l31,31
		l-9.4,9.4L290,347.3z"/>
</g>
</svg>
