<?xml version="1.0" encoding="utf-8"?>
<!-- Generator: Adobe Illustrator 18.0.0, SVG Export Plug-In . SVG Version: 6.00 Build 0)  -->
<!DOCTYPE svg PUBLIC "-//W3C//DTD SVG 1.1//EN" "http://www.w3.org/Graphics/SVG/1.1/DTD/svg11.dtd">
<svg version="1.1" id="Layer_1" xmlns="http://www.w3.org/2000/svg" xmlns:xlink="http://www.w3.org/1999/xlink" x="0px" y="0px"
	 viewBox="0 0 48 48" enable-background="new 0 0 48 48" xml:space="preserve">
<g>
	<path fill="#F3F3F3" d="M46,2L46,2c-9.8-4.6-23.3-0.7-31,7l-8.3,8.3l24,24l8.3-8.3C46.7,25.3,50.6,11.8,46,2z"/>
	<path fill="#CED6E0" d="M26.1,21.9L26.1,21.9l-9,3.5c0,0-1.3,1.3-2.6,2.6l5.5,5.5c1.4-1.4,2.6-2.6,2.6-2.6L26.1,21.9z"/>
	<g>
		<path fill="#FFD15C" d="M12.7,44.5L20.2,33L15,27.8L3.5,35.3C-0.5,37.5-1.2,42.8,2,46h0C5.2,49.2,10.5,48.5,12.7,44.5z M3.2,44.8
			C2.7,44.3,3,43,4,42c1-1,2.2-1.4,2.8-0.8C7.3,41.7,6.9,43,6,44S3.7,45.3,3.2,44.8z"/>
	</g>
	<g>
		<polygon fill="#F7B64C" points="17,37.9 18.1,36.2 11.8,29.9 10.1,31 		"/>
	</g>
	<path fill="#FFD15C" d="M17.6,36.3l-5.8-5.8c-0.9-0.9-0.9-2.4,0-3.4l0,0c0.9-0.9,2.4-0.9,3.4,0l5.8,5.8c0.9,0.9,0.9,2.4,0,3.4l0,0
		C20,37.2,18.5,37.2,17.6,36.3z"/>
</g>
</svg>
