<?xml version="1.0" encoding="utf-8"?>
<!-- Generator: Adobe Illustrator 18.0.0, SVG Export Plug-In . SVG Version: 6.00 Build 0)  -->
<!DOCTYPE svg PUBLIC "-//W3C//DTD SVG 1.1//EN" "http://www.w3.org/Graphics/SVG/1.1/DTD/svg11.dtd">
<svg version="1.1" id="Layer_1" xmlns="http://www.w3.org/2000/svg" xmlns:xlink="http://www.w3.org/1999/xlink" x="0px" y="0px"
	 viewBox="0 0 48 48" enable-background="new 0 0 48 48" xml:space="preserve">
<g>
	<g>
		<g>
			<path fill="#4EC0AA" d="M41,12.2c-0.7,0-6.9,0.7-12.2,2.7c-5.9,1.7-9.9,4-19.7-1.5C9.4,0.1,22.5-0.4,29.7,2.8
				C37.7,6.2,40.1,11.5,41,12.2z"/>
		</g>
		<g>
			<path fill="#415A6B" d="M33.5,8.8c0.4-0.4-18.4-4.2-27.6,6c0.6,0.4,1.2,0.8,1.8,1.2C7.5,16.5,14.4,6.4,33.5,8.8z"/>
		</g>
	</g>
	<g>
		<g>
			<path fill="#4EC0AA" d="M3.4,16.5c0.3,0.7,4,5.7,8.5,9.2c4.4,4.2,8.5,6.6,8.5,17.8C8.8,49.9,1.8,38.8,1,30.9
				C0,22.3,3.3,17.6,3.4,16.5z"/>
		</g>
		<g>
			<path fill="#415A6B" d="M4.3,24.6c-0.5-0.2,5.6,18,19,20.9c0.1-0.7,0.1-1.4,0.2-2.2C23.9,43.3,11.8,42.4,4.3,24.6z"/>
		</g>
	</g>
	<g>
		<g>
			<path fill="#4EC0AA" d="M26,46.8c0.4-0.6,2.9-6.3,3.7-12c1.4-5.9,1.5-10.6,11.1-16.3c11.4,6.9,5.3,18.5-1.1,23.1
				C32.8,46.9,27,46.4,26,46.8z"/>
		</g>
		<g>
			<path fill="#415A6B" d="M32.6,42c0.1,0.6,12.8-13.8,8.6-26.9c-0.7,0.3-1.3,0.6-2,0.9C39,15.7,44.2,26.6,32.6,42z"/>
		</g>
	</g>
</g>
</svg>
