<?xml version="1.0" encoding="utf-8"?>
<!-- Generator: Adobe Illustrator 18.0.0, SVG Export Plug-In . SVG Version: 6.00 Build 0)  -->
<!DOCTYPE svg PUBLIC "-//W3C//DTD SVG 1.1//EN" "http://www.w3.org/Graphics/SVG/1.1/DTD/svg11.dtd">
<svg version="1.1" id="Layer_1" xmlns="http://www.w3.org/2000/svg" xmlns:xlink="http://www.w3.org/1999/xlink" x="0px" y="0px"
	 viewBox="0 0 48 48" enable-background="new 0 0 48 48" xml:space="preserve">
<g>
	<g>
		<circle fill="#FFD15C" cx="10.5" cy="10.5" r="10.5"/>
		<path fill="#F8B64C" d="M2,11.7c0.2,1.5,0.8,2.8,1.6,4C3.8,16,4.2,16,4.5,15.8l4.3-3.9c0.4-0.4,0.1-1-0.4-1l-5.8,0.3
			C2.2,11.1,1.9,11.4,2,11.7z"/>
		<path fill="#F8B64C" d="M3.6,5.3C2.7,6.5,2.2,7.8,2,9.3c0,0.3,0.2,0.6,0.6,0.7l5.8,0.3c0.6,0,0.8-0.7,0.4-1L4.5,5.3
			C4.2,5,3.8,5.1,3.6,5.3z"/>
		<path fill="#F8B64C" d="M19.1,9.3c-0.2-1.5-0.8-2.8-1.6-4c-0.2-0.3-0.6-0.3-0.9-0.1l-4.3,3.9c-0.4,0.4-0.1,1,0.4,1l5.8-0.3
			C18.8,9.9,19.1,9.6,19.1,9.3z"/>
		<path fill="#F8B64C" d="M9.3,2c-1.5,0.2-2.8,0.8-4,1.6C5.1,3.8,5,4.2,5.3,4.5l3.9,4.3c0.4,0.4,1,0.1,1-0.4L9.9,2.5
			C9.9,2.2,9.6,1.9,9.3,2z"/>
		<path fill="#F8B64C" d="M5.3,17.4c1.1,0.9,2.5,1.4,4,1.6c0.3,0,0.6-0.2,0.7-0.6l0.3-5.8c0-0.6-0.7-0.8-1-0.4l-3.9,4.3
			C5,16.8,5.1,17.2,5.3,17.4z"/>
		<path fill="#F8B64C" d="M15.7,3.6c-1.1-0.9-2.5-1.4-4-1.6c-0.3,0-0.6,0.2-0.7,0.6l-0.3,5.8c0,0.6,0.7,0.8,1,0.4l3.9-4.3
			C16,4.2,16,3.8,15.7,3.6z"/>
		<path fill="#F8B64C" d="M11.7,19.1c1.5-0.2,2.8-0.8,4-1.6c0.3-0.2,0.3-0.6,0.1-0.9l-3.9-4.3c-0.4-0.4-1-0.1-1,0.4l0.3,5.8
			C11.1,18.8,11.4,19.1,11.7,19.1z"/>
		<path fill="#F8B64C" d="M12.2,11.8l4.3,3.9c0.3,0.2,0.7,0.2,0.9-0.1c0.9-1.1,1.4-2.5,1.6-4c0-0.3-0.2-0.6-0.6-0.7l-5.8-0.3
			C12.1,10.8,11.8,11.5,12.2,11.8z"/>
	</g>
	<g>
		<g>
			<path fill="#F2F2F2" d="M36.4,48h-18c0.8-2,3.8-3.6,7.5-3.9v-9.5L11.4,10.7h32.1L28.9,34.6v9.5C32.6,44.4,35.6,46,36.4,48z"/>
		</g>
		<g>
			<g>
				<polygon fill="#FF7058" points="27.3,23.4 25.4,22.7 32.9,3.9 47.5,0 48,1.9 34.4,5.5 				"/>
			</g>
		</g>
		<g>
			<polygon fill="#FFD15C" points="18.7,14.9 36.2,14.9 27.4,29.2 			"/>
		</g>
	</g>
</g>
</svg>
