<?xml version="1.0" encoding="utf-8"?>
<!-- Generator: Adobe Illustrator 18.0.0, SVG Export Plug-In . SVG Version: 6.00 Build 0)  -->
<!DOCTYPE svg PUBLIC "-//W3C//DTD SVG 1.1//EN" "http://www.w3.org/Graphics/SVG/1.1/DTD/svg11.dtd">
<svg version="1.1" id="Layer_1" xmlns="http://www.w3.org/2000/svg" xmlns:xlink="http://www.w3.org/1999/xlink" x="0px" y="0px"
	 viewBox="0 0 512 512" enable-background="new 0 0 512 512" xml:space="preserve">
<g>
	<rect x="2" y="288.8" fill="#41596B" width="508" height="221.2"/>
	<g>
		<rect x="18.9" y="305.8" fill="#F2F2F2" width="34.1" height="34.1"/>
		<rect x="73.9" y="305.8" fill="#F2F2F2" width="34.1" height="34.1"/>
		<rect x="128.9" y="305.8" fill="#F2F2F2" width="34.1" height="34.1"/>
		<rect x="183.9" y="305.8" fill="#F2F2F2" width="34.1" height="34.1"/>
		<rect x="238.9" y="305.8" fill="#F2F2F2" width="34.1" height="34.1"/>
		<rect x="293.9" y="305.8" fill="#F2F2F2" width="34.1" height="34.1"/>
		<rect x="348.9" y="305.8" fill="#F2F2F2" width="34.1" height="34.1"/>
		<rect x="403.9" y="305.8" fill="#F2F2F2" width="34.1" height="34.1"/>
		<rect x="458.9" y="305.8" fill="#F2F2F2" width="34.1" height="34.1"/>
	</g>
	<g>
		<rect x="18.9" y="356.8" fill="#F2F2F2" width="34.1" height="34.1"/>
		<rect x="73.9" y="356.8" fill="#F2F2F2" width="34.1" height="34.1"/>
		<rect x="128.9" y="356.8" fill="#F2F2F2" width="34.1" height="34.1"/>
		<rect x="183.9" y="356.8" fill="#F2F2F2" width="34.1" height="34.1"/>
		<rect x="238.9" y="356.8" fill="#F2F2F2" width="34.1" height="34.1"/>
		<rect x="293.9" y="356.8" fill="#F2F2F2" width="34.1" height="34.1"/>
		<rect x="348.9" y="356.8" fill="#F2F2F2" width="34.1" height="34.1"/>
		<rect x="403.9" y="356.8" fill="#F2F2F2" width="34.1" height="34.1"/>
		<rect x="458.9" y="356.8" fill="#F2F2F2" width="34.1" height="34.1"/>
	</g>
	<g>
		<rect x="18.9" y="407.9" fill="#F2F2F2" width="34.1" height="34.1"/>
		<rect x="73.9" y="407.9" fill="#F2F2F2" width="34.1" height="34.1"/>
		<rect x="128.9" y="407.9" fill="#F2F2F2" width="34.1" height="34.1"/>
		<rect x="183.9" y="407.9" fill="#F2F2F2" width="34.1" height="34.1"/>
		<rect x="238.9" y="407.9" fill="#F2F2F2" width="34.1" height="34.1"/>
		<rect x="293.9" y="407.9" fill="#F2F2F2" width="34.1" height="34.1"/>
		<rect x="348.9" y="407.9" fill="#F2F2F2" width="34.1" height="34.1"/>
		<rect x="403.9" y="407.9" fill="#F2F2F2" width="34.1" height="34.1"/>
		<rect x="458.9" y="407.9" fill="#F2F2F2" width="34.1" height="34.1"/>
	</g>
	<rect x="18.9" y="458.9" fill="#F2F2F2" width="34.1" height="34.1"/>
	<rect x="73.9" y="458.9" fill="#F2F2F2" width="34.1" height="34.1"/>
	<rect x="128.9" y="458.9" fill="#F2F2F2" width="254.1" height="34.1"/>
	<rect x="403.9" y="458.9" fill="#F2F2F2" width="34.1" height="34.1"/>
	<rect x="458.9" y="458.9" fill="#F2F2F2" width="34.1" height="34.1"/>
	<g>
		<path fill="#CDD5DF" d="M432.3,288.8h-22.6v-47.5c0-12.5-10.1-22.6-22.6-22.6H141.9c-24.9,0-45.2-20.3-45.2-45.2V94.2
			C96.8,69.3,117,49,141.9,49h152.3c12.5,0,22.6-10.1,22.6-22.6V2h22.6v24.5c0,24.9-20.3,45.2-45.2,45.2H141.9
			c-12.4,0-22.6,10.1-22.6,22.6v79.4c0,12.5,10.1,22.6,22.6,22.6h245.2c24.9,0,45.2,20.3,45.2,45.2V288.8z"/>
	</g>
</g>
</svg>
