<?xml version="1.0" encoding="utf-8"?>
<!-- Generator: Adobe Illustrator 18.0.0, SVG Export Plug-In . SVG Version: 6.00 Build 0)  -->
<!DOCTYPE svg PUBLIC "-//W3C//DTD SVG 1.1//EN" "http://www.w3.org/Graphics/SVG/1.1/DTD/svg11.dtd">
<svg version="1.1" id="Layer_1" xmlns="http://www.w3.org/2000/svg" xmlns:xlink="http://www.w3.org/1999/xlink" x="0px" y="0px"
	 viewBox="0 0 48 48" enable-background="new 0 0 48 48" xml:space="preserve">
<g>
	<g>
		<path fill="#FFD15C" d="M38,43.6l-7.1-11.3H17.1L10,43.6c-0.8,1.3-0.4,3.1,0.9,3.9s3.1,0.4,3.9-0.9l6.3-10v7.3
			c0,1.6,1.3,2.9,2.9,2.9s2.9-1.3,2.9-2.9v-7.3l6.3,10c0.8,1.3,2.6,1.7,3.9,0.9C38.4,46.7,38.8,45,38,43.6z"/>
		<g>
			<path fill="#344A5E" d="M44.9,0h-24c-1,0-2,0.5-2.5,1.3l-2,2.9H3.1C1.4,4.2,0,5.5,0,7.3v23.1c0,1.7,1.4,3.1,3.1,3.1h41.8
				c1.7,0,3.1-1.4,3.1-3.1V3.1C48,1.4,46.6,0,44.9,0z"/>
			<g>
				<rect y="9.7" fill="#F3F3F3" width="48" height="17.1"/>
			</g>
			<g>
				<rect x="35.8" y="2.9" fill="#F3705A" width="7.4" height="3.4"/>
			</g>
			<rect x="4.7" y="0.8" fill="#415A6B" width="6.6" height="3.3"/>
			<g>
				<g>
					<circle fill="#415A6B" cx="24" cy="18" r="13"/>
				</g>
				<circle fill="#FFFFFF" cx="24" cy="18" r="9.6"/>
				<circle fill="#8AD7F8" cx="24" cy="18" r="5.4"/>
				<circle fill="#FFFFFF" cx="28.8" cy="15.4" r="1.9"/>
				<circle fill="#FFFFFF" cx="25.5" cy="17.5" r="0.9"/>
			</g>
		</g>
	</g>
</g>
</svg>
