<?xml version="1.0" encoding="utf-8"?>
<!-- Generator: Adobe Illustrator 18.0.0, SVG Export Plug-In . SVG Version: 6.00 Build 0)  -->
<!DOCTYPE svg PUBLIC "-//W3C//DTD SVG 1.1//EN" "http://www.w3.org/Graphics/SVG/1.1/DTD/svg11.dtd">
<svg version="1.1" id="Layer_1" xmlns="http://www.w3.org/2000/svg" xmlns:xlink="http://www.w3.org/1999/xlink" x="0px" y="0px"
	 viewBox="0 0 512 512" enable-background="new 0 0 512 512" xml:space="preserve">
<g>
	<rect x="247.6" y="29.7" fill="#CDD6E0" width="15.7" height="32.3"/>
	<rect x="65.6" y="296.7" fill="#ACB3BA" width="380.8" height="6.8"/>
	
		<rect x="333" y="150.6" transform="matrix(0.9063 -0.4226 0.4226 0.9063 -93.3655 179.1998)" fill="#CDD6E0" width="49" height="299"/>
	<polygon fill="#ACB3BA" points="455.3,510 401,444.8 440.3,426.5 	"/>
	
		<rect x="130" y="150.6" transform="matrix(-0.9063 -0.4226 0.4226 -0.9063 167.7296 637.5197)" fill="#CDD6E0" width="49" height="299"/>
	<polygon fill="#ACB3BA" points="56.7,510 111,444.8 71.7,426.5 	"/>
	<circle fill="#F2F2F2" cx="256" cy="118.3" r="70.8"/>
	<circle fill="#CDD6E0" cx="256" cy="118.3" r="46"/>
	<circle fill="#CDD6E0" cx="446.4" cy="300.2" r="8.4"/>
	<circle fill="#CDD6E0" cx="65.6" cy="300.2" r="8.4"/>
	<path fill="#FF7058" d="M267.2,335.6h-22.4c-0.6,0-1.1-0.5-1.1-1.1v-68.7c0-0.6,0.5-1.1,1.1-1.1h22.4c0.6,0,1.1,0.5,1.1,1.1v68.7
		C268.4,335.1,267.8,335.6,267.2,335.6z"/>
	<path fill="#ACB3BA" d="M278,2h-45.1c-0.6,0-1.1,0.5-1.1,1.1v26.6h47.2V3.1C279.1,2.5,278.6,2,278,2z"/>
</g>
</svg>
