<?xml version="1.0" encoding="utf-8"?>
<!-- Generator: Adobe Illustrator 18.0.0, SVG Export Plug-In . SVG Version: 6.00 Build 0)  -->
<!DOCTYPE svg PUBLIC "-//W3C//DTD SVG 1.1//EN" "http://www.w3.org/Graphics/SVG/1.1/DTD/svg11.dtd">
<svg version="1.1" id="Layer_1" xmlns="http://www.w3.org/2000/svg" xmlns:xlink="http://www.w3.org/1999/xlink" x="0px" y="0px"
	 viewBox="0 0 48 48" enable-background="new 0 0 48 48" xml:space="preserve">
<g>
	<path fill="#FF7058" d="M46,21.5v0.3c0,0.5-0.2,0.9-0.5,1.2C44.1,14.3,35,7.6,23.9,7.6c-4.2,0-8.1,1-11.4,2.6
		c-1.3-0.7-2.3-2.8-0.7-5.2c-3.5,1.7-4.4,5-3.5,8c-2.2,1.9-3.9,4.1-5,6.6H1c-0.6,0-1,0.4-1,1v9.6c0,0.6,0.4,1,1,1h2.3
		c0.8,1.9,2,3.7,3.6,5.3l-2.3,6.8c-0.4,1,0.2,2.2,1.2,2.5l5.9,2.1c1,0.4,2.2-0.2,2.5-1.2l1.6-4.7c2.5,0.8,5.2,1.3,8.1,1.3
		s5.6-0.5,8.1-1.3l1.6,4.7c0.4,1,1.5,1.6,2.5,1.2l5.9-2.1c1-0.4,1.6-1.5,1.2-2.5L41,36.5c3-3,4.7-6.9,4.7-11.1c0-0.1,0-0.1,0-0.2
		c1.3-0.6,2.3-1.9,2.3-3.5v-0.3H46z"/>
	<circle fill="#FFFFFF" cx="10.2" cy="19.8" r="2"/>
	<g>
		<path fill="#FFD15C" d="M19.1,14.3h9.7C30.8,12.8,32,10.6,32,8c0-4.4-3.6-8-8-8c-4.4,0-8,3.6-8,8C16,10.6,17.2,12.8,19.1,14.3z"/>
		<circle fill="#F8B64C" cx="24" cy="8" r="5.9"/>
		<path fill="#FFD15C" d="M23.7,10.2V8.2c-0.6-0.2-1-0.4-1.3-0.8c-0.3-0.3-0.4-0.8-0.4-1.3c0-0.5,0.2-0.9,0.5-1.3
			c0.3-0.3,0.7-0.5,1.3-0.6V3.8h0.7v0.5c0.5,0.1,0.9,0.2,1.2,0.5c0.3,0.3,0.5,0.6,0.6,1.1l-1.2,0.2c-0.1-0.4-0.3-0.6-0.6-0.7v1.8
			c0.7,0.2,1.2,0.5,1.5,0.8c0.3,0.3,0.4,0.7,0.4,1.2c0,0.6-0.2,1-0.5,1.4c-0.3,0.4-0.8,0.6-1.4,0.7v0.9h-0.7v-0.8
			c-0.5-0.1-1-0.3-1.3-0.6c-0.3-0.3-0.5-0.8-0.6-1.4l1.2-0.1c0,0.2,0.1,0.5,0.3,0.6S23.5,10.1,23.7,10.2z M23.7,5.3
			c-0.2,0.1-0.3,0.2-0.4,0.3s-0.2,0.3-0.2,0.5c0,0.2,0,0.3,0.1,0.5c0.1,0.1,0.2,0.3,0.4,0.3V5.3z M24.3,10.2c0.2,0,0.4-0.2,0.6-0.3
			c0.1-0.2,0.2-0.4,0.2-0.6c0-0.2-0.1-0.4-0.2-0.5c-0.1-0.1-0.3-0.3-0.6-0.3V10.2z"/>
	</g>
	<path fill="#40596B" d="M32.1,15.2H15.9c-0.5,0-0.9-0.4-0.9-0.9v0c0-0.5,0.4-0.9,0.9-0.9h16.2c0.5,0,0.9,0.4,0.9,0.9v0
		C33,14.8,32.6,15.2,32.1,15.2z"/>
</g>
</svg>
