<?xml version="1.0" encoding="utf-8"?>
<!-- Generator: Adobe Illustrator 18.0.0, SVG Export Plug-In . SVG Version: 6.00 Build 0)  -->
<!DOCTYPE svg PUBLIC "-//W3C//DTD SVG 1.1//EN" "http://www.w3.org/Graphics/SVG/1.1/DTD/svg11.dtd">
<svg version="1.1" id="Layer_1" xmlns="http://www.w3.org/2000/svg" xmlns:xlink="http://www.w3.org/1999/xlink" x="0px" y="0px"
	 viewBox="0 0 48 48" enable-background="new 0 0 48 48" xml:space="preserve">
<g>
	<g>
		<g>
			<g>
				<rect x="9.3" y="0" fill="#415A6B" width="29.3" height="38.3"/>
			</g>
			<g>
				<rect x="10.6" y="1.3" fill="#344A5E" width="8" height="8"/>
				<rect x="20" y="1.3" fill="#344A5E" width="8" height="8"/>
				<rect x="29.4" y="1.3" fill="#344A5E" width="8" height="8"/>
			</g>
			<g>
				<rect x="10.6" y="10.5" fill="#344A5E" width="8" height="8"/>
				<rect x="20" y="10.5" fill="#344A5E" width="8" height="8"/>
				<rect x="29.4" y="10.5" fill="#344A5E" width="8" height="8"/>
			</g>
			<g>
				<rect x="10.6" y="19.8" fill="#344A5E" width="8" height="8"/>
				<rect x="20" y="19.8" fill="#344A5E" width="8" height="8"/>
				<rect x="29.4" y="19.8" fill="#344A5E" width="8" height="8"/>
			</g>
			<g>
				<rect x="10.6" y="29" fill="#344A5E" width="8" height="8"/>
				<rect x="20" y="29" fill="#344A5E" width="8" height="8"/>
				<rect x="29.4" y="29" fill="#344A5E" width="8" height="8"/>
			</g>
		</g>
		<polygon fill="#F7B64C" points="40.2,43.7 40.2,5.6 7.8,15.3 7.8,43.7 		"/>
		<g>
			<g>
				<path fill="#F3705A" d="M24,36.2c0,0-9.1-4.8-9.1-11.2c0-2.6,2.1-4.8,4.8-4.8c2,0,3.6,1.2,4.4,2.9c0.7-1.7,2.4-2.9,4.4-2.9
					c2.6,0,4.8,2.1,4.8,4.8C33.1,31.4,24,36.2,24,36.2z"/>
			</g>
			<g>
				<path fill="#FFFFFF" d="M20.2,36.2c0,0-5.4-2.8-5.4-6.6c0-1.5,1.2-2.8,2.8-2.8c1.1,0,2.1,0.7,2.6,1.7c0.4-1,1.4-1.7,2.6-1.7
					c1.5,0,2.8,1.3,2.8,2.8C25.6,33.3,20.2,36.2,20.2,36.2z"/>
			</g>
		</g>
		<g>
			<path fill="#FFD15C" d="M42.4,48H5.6c0.8-1.3,2.5-1.8,2.2-4.3h32.4C39.9,46.2,41.9,47.1,42.4,48z"/>
		</g>
		<path fill="#F3F3F3" d="M34.5,18.5c-0.7-6.3,1.8-8.6,5.7-12.9c-4.4-2.1-25.8,4.6-32.4,9.7C20.1,14,25.3,17.4,34.5,18.5z"/>
	</g>
</g>
</svg>
