<?xml version="1.0" encoding="utf-8"?>
<!-- Generator: Adobe Illustrator 18.0.0, SVG Export Plug-In . SVG Version: 6.00 Build 0)  -->
<!DOCTYPE svg PUBLIC "-//W3C//DTD SVG 1.1//EN" "http://www.w3.org/Graphics/SVG/1.1/DTD/svg11.dtd">
<svg version="1.1" id="Layer_1" xmlns="http://www.w3.org/2000/svg" xmlns:xlink="http://www.w3.org/1999/xlink" x="0px" y="0px"
	 viewBox="0 0 48 48" enable-background="new 0 0 48 48" xml:space="preserve">
<g>
	<g>
		<g>
			<path fill="#E8EAE9" d="M48,3v42c0,1.7-1.3,3-3,3H3c-1.7,0-3-1.3-3-3V3c0-1.7,1.3-3,3-3h42C46.7,0,48,1.3,48,3z"/>
		</g>
		<rect x="4" y="13.3" fill="#FFFFFF" width="40" height="30.7"/>
		<g>
			<circle fill="#F3705A" cx="7.4" cy="6.7" r="2.4"/>
			<circle fill="#55C0EB" cx="14.5" cy="6.7" r="2.4"/>
			<circle fill="#FFD15C" cx="21.6" cy="6.7" r="2.4"/>
		</g>
		<g>
			<path fill="#415A6B" d="M13,31.6h-1.7l-2-5.9H11l1.2,3.6l1.2-3.6h1.6l1.2,3.6l1.2-3.6h1.7l-2,5.9h-1.7l-1.1-3.2L13,31.6z"/>
			<path fill="#415A6B" d="M22.9,31.6h-1.7l-2-5.9h1.7l1.2,3.6l1.2-3.6h1.6l1.2,3.6l1.2-3.6h1.7l-2,5.9h-1.7L24,28.4L22.9,31.6z"/>
			<path fill="#415A6B" d="M32.8,31.6h-1.7l-2-5.9h1.7l1.2,3.6l1.2-3.6h1.6l1.2,3.6l1.2-3.6h1.7l-2,5.9H35l-1.1-3.2L32.8,31.6z"/>
		</g>
	</g>
</g>
</svg>
