<?xml version="1.0" encoding="utf-8"?>
<!-- Generator: Adobe Illustrator 18.0.0, SVG Export Plug-In . SVG Version: 6.00 Build 0)  -->
<!DOCTYPE svg PUBLIC "-//W3C//DTD SVG 1.1//EN" "http://www.w3.org/Graphics/SVG/1.1/DTD/svg11.dtd">
<svg version="1.1" id="Layer_1" xmlns="http://www.w3.org/2000/svg" xmlns:xlink="http://www.w3.org/1999/xlink" x="0px" y="0px"
	 viewBox="0 0 48 48" enable-background="new 0 0 48 48" xml:space="preserve">
<g>
	<g>
		<g>
			<g>
				<path fill="#F3F3F3" d="M35.4,0H12L0,12v34c0,1.1,0.9,2,2,2h33.4c1.1,0,2-0.9,2-2V2C37.4,0.9,36.5,0,35.4,0z"/>
			</g>
			<g>
				<polygon fill="#8AD7F8" points="12,0 12,12 0,12 				"/>
			</g>
		</g>
		<g>
			<rect x="4.9" y="38.5" fill="#CED6E0" width="27.7" height="1.9"/>
			<rect x="4.9" y="31.5" fill="#CED6E0" width="27.7" height="1.9"/>
			<rect x="4.9" y="24.5" fill="#CED6E0" width="27.7" height="1.9"/>
			<rect x="4.9" y="17.5" fill="#CED6E0" width="27.7" height="1.9"/>
		</g>
		<g>
			<g>
				<g>
					<g>
						<g>
							<rect x="16.3" y="30.8" fill="#CED6E0" width="17.1" height="3.4"/>
							<rect x="14.3" y="23.8" fill="#CED6E0" width="19" height="3.4"/>
							<rect x="16.6" y="16.8" fill="#CED6E0" width="16.7" height="3.4"/>
						</g>
					</g>
				</g>
			</g>
		</g>
		<g>
			<g>
				<g>
					
						<rect x="34.4" y="33.5" transform="matrix(0.7071 0.7071 -0.7071 0.7071 36.0298 -14.9253)" fill="#344A5E" width="3.2" height="5"/>
				</g>
			</g>
			<g>
				<g>
					<path fill="#F3705A" d="M46.7,41c-2.4-2.2-5.3-4.8-6.1-5.1l-4.8,4.8c0.4,0.8,2.9,3.7,5.1,6.1c1.6,1.7,4.2,1.8,5.9,0.1l0,0
						C48.4,45.2,48.4,42.5,46.7,41z"/>
				</g>
			</g>
			<path fill="#415A6B" d="M35.7,35.7c-5.3,5.3-13.9,5.3-19.2,0c-5.3-5.3-5.3-13.9,0-19.2c5.3-5.3,13.9-5.3,19.2,0
				C41,21.8,41,30.4,35.7,35.7z M18.8,18.8c-4,4-4,10.6,0,14.6c4,4,10.6,4,14.6,0c4-4,4-10.6,0-14.6S22.8,14.8,18.8,18.8z"/>
			<g>
				<path fill="#F3F3F3" d="M41,36.2L36.2,41c-0.5,0.5-1.2,0.5-1.7,0c-0.5-0.5-0.5-1.2,0-1.7l4.8-4.8c0.5-0.5,1.2-0.5,1.7,0
					C41.5,35,41.5,35.7,41,36.2z"/>
			</g>
		</g>
	</g>
</g>
</svg>
