<?xml version="1.0" encoding="utf-8"?>
<!-- Generator: Adobe Illustrator 20.1.0, SVG Export Plug-In . SVG Version: 6.00 Build 0)  -->
<!DOCTYPE svg PUBLIC "-//W3C//DTD SVG 1.1//EN" "http://www.w3.org/Graphics/SVG/1.1/DTD/svg11.dtd">
<svg version="1.1" id="Layer_1" xmlns="http://www.w3.org/2000/svg" xmlns:xlink="http://www.w3.org/1999/xlink" x="0px" y="0px"
	 viewBox="0 0 49 49" enable-background="new 0 0 49 49" xml:space="preserve">
<g>
	<path fill="#84DBFF" d="M32.7,14c-0.3-1.2-0.8-2.4-1.4-3.5l1.2-2.8l-4.2-4.1l-2.8,1.2c-1.1-0.6-2.2-1.1-3.5-1.4L21,0.5h-5.9L14,3.4
		c-1.2,0.3-2.4,0.8-3.5,1.4L7.7,3.6L3.6,7.7l1.2,2.8c-0.6,1.1-1.1,2.2-1.4,3.5l-2.9,1.1v5.9l2.9,1.1c0.3,1.2,0.8,2.4,1.4,3.5
		l-1.2,2.8l4.2,4.1l2.8-1.2c1.1,0.6,2.2,1.1,3.5,1.4l1.1,2.9H21l1.1-2.9c1.2-0.3,2.4-0.8,3.5-1.4l2.8,1.2l4.2-4.1l-1.2-2.8
		c0.6-1.1,1.1-2.2,1.4-3.5l2.9-1.1v-5.9L32.7,14z M18,25.2c-4,0-7.2-3.2-7.2-7.2s3.2-7.2,7.2-7.2c4,0,7.2,3.2,7.2,7.2
		S22,25.2,18,25.2z"/>
	<path fill="#54C0EB" d="M23.1,23.1c-2.8,2.8-7.3,2.8-10.1,0l-2.6,2.6c4.2,4.2,11.1,4.2,15.3,0c4.2-4.2,4.2-11,0-15.3L23.1,13
		C25.9,15.8,25.9,20.3,23.1,23.1z"/>
	<path fill="#54C0EB" d="M10.4,10.4c-4.2,4.2-4.2,11,0,15.3l2.6-2.6c-2.8-2.8-2.8-7.3,0-10.1c2.8-2.8,7.3-2.8,10.1,0l2.6-2.6
		C21.5,6.2,14.6,6.2,10.4,10.4z"/>
	<path fill="#4CDBC4" d="M34.4,41.5c0.1-0.6,0.1-1.1,0-1.7l1-1l-1-2.5l-1.4,0c-0.3-0.4-0.8-0.8-1.2-1.2l0-1.4l-2.5-1l-1,1
		c-0.6-0.1-1.1-0.1-1.7,0l-1-1l-2.5,1l0,1.4c-0.4,0.3-0.8,0.8-1.2,1.2l-1.4,0l-1,2.5l1,1c-0.1,0.6-0.1,1.1,0,1.7l-1,1l1,2.5l1.4,0
		c0.3,0.4,0.8,0.8,1.2,1.2l0,1.4l2.5,1l1-1c0.6,0.1,1.1,0.1,1.7,0l1,1l2.5-1l0-1.4c0.4-0.3,0.8-0.8,1.2-1.2l1.4,0l1-2.5L34.4,41.5z
		 M26.4,43.6c-1.7-0.7-2.5-2.6-1.8-4.2c0.7-1.7,2.6-2.5,4.2-1.8c1.7,0.7,2.5,2.6,1.8,4.2C29.9,43.5,28,44.3,26.4,43.6z"/>
	<path fill="#FF7058" d="M47.5,28.4c0.1-0.6,0.1-1.1,0-1.7l1-1l-1-2.5l-1.4,0c-0.3-0.4-0.8-0.8-1.2-1.2l0-1.4l-2.5-1l-1,1
		c-0.6-0.1-1.1-0.1-1.7,0l-1-1l-2.5,1l0,1.4c-0.4,0.3-0.8,0.8-1.2,1.2l-1.4,0l-1,2.5l1,1c-0.1,0.6-0.1,1.1,0,1.7l-1,1l1,2.5l1.4,0
		c0.3,0.4,0.8,0.8,1.2,1.2l0,1.4l2.5,1l1-1c0.6,0.1,1.1,0.1,1.7,0l1,1l2.5-1l0-1.4c0.4-0.3,0.8-0.8,1.2-1.2l1.4,0l1-2.5L47.5,28.4z
		 M39.4,30.6c-1.7-0.7-2.5-2.6-1.8-4.2c0.7-1.7,2.6-2.5,4.2-1.8c1.7,0.7,2.5,2.6,1.8,4.2C43,30.5,41.1,31.3,39.4,30.6z"/>
</g>
</svg>
