<?xml version="1.0" encoding="utf-8"?>
<!-- Generator: Adobe Illustrator 18.0.0, SVG Export Plug-In . SVG Version: 6.00 Build 0)  -->
<!DOCTYPE svg PUBLIC "-//W3C//DTD SVG 1.1//EN" "http://www.w3.org/Graphics/SVG/1.1/DTD/svg11.dtd">
<svg version="1.1" id="Layer_1" xmlns="http://www.w3.org/2000/svg" xmlns:xlink="http://www.w3.org/1999/xlink" x="0px" y="0px"
	 viewBox="0 0 48 48" enable-background="new 0 0 48 48" xml:space="preserve">
<g>
	<path fill="#40596B" d="M34,7.7c0,3.2-0.7,6.3-2.3,9c-0.8,1.4-1.3,3-1.3,4.7v24.4c0,1.2,1,2.2,2.2,2.2h8.8c1.2,0,2.2-1,2.2-2.2
		V21.5c0-1.7-0.5-3.3-1.3-4.7c-1.6-2.7-2.3-5.9-2.3-9L34,7.7z"/>
	<path fill="#4CDBC4" d="M39.9,7.7c0.2,0,0.3-0.1,0.3-0.3V0.8c0-0.4-0.4-0.8-0.9-0.8h-4.8c-0.5,0-0.9,0.4-0.9,0.8v6.6
		c0,0.2,0.1,0.3,0.3,0.3L39.9,7.7z"/>
	<path fill="#3DC9AE" d="M40.3,1.6h-6.7c-0.2,0-0.4,0.2-0.4,0.4v2.2c0,0.2,0.2,0.4,0.4,0.4h6.7c0.2,0,0.4-0.2,0.4-0.4V2
		C40.7,1.8,40.5,1.6,40.3,1.6z"/>
	<g>
		<rect x="30.4" y="25.4" fill="#F2F2F2" width="13.1" height="12.1"/>
	</g>
	<path fill="#E8EAEA" d="M4.5,20.9v24.7c0,1.3,1.1,2.4,2.4,2.4h12.4c1.3,0,2.4-1.1,2.4-2.4V20.9H4.5z"/>
	<rect x="7" y="27.8" fill="#FF7058" width="12.2" height="17.7"/>
	
		<rect x="9.1" y="29.6" transform="matrix(0.7071 0.7071 -0.7071 0.7071 25.4645 1.4475)" fill="#F1543F" width="3.8" height="3.8"/>
	
		<rect x="8.9" y="38.6" transform="matrix(0.3472 0.9378 -0.9378 0.3472 45.028 16.3916)" fill="#F1543F" width="3.8" height="3.8"/>
	
		<rect x="13.9" y="34.5" transform="matrix(0.9859 0.1676 -0.1676 0.9859 6.3198 -2.1392)" fill="#F1543F" width="3.8" height="3.8"/>
</g>
</svg>
