<?xml version="1.0" encoding="utf-8"?>
<!-- Generator: Adobe Illustrator 18.0.0, SVG Export Plug-In . SVG Version: 6.00 Build 0)  -->
<!DOCTYPE svg PUBLIC "-//W3C//DTD SVG 1.1//EN" "http://www.w3.org/Graphics/SVG/1.1/DTD/svg11.dtd">
<svg version="1.1" id="Layer_1" xmlns="http://www.w3.org/2000/svg" xmlns:xlink="http://www.w3.org/1999/xlink" x="0px" y="0px"
	 viewBox="0 0 48 48" enable-background="new 0 0 48 48" xml:space="preserve">
<g>
	<g>
		<g>
			<path fill="#415A6B" d="M38.5,48H9.5c-1.7,0-3-1.3-3-3V3c0-1.7,1.3-3,3-3h28.9c1.7,0,3,1.3,3,3v42C41.5,46.7,40.1,48,38.5,48z"/>
		</g>
		<rect x="10.5" y="5.9" fill="#FFFFFF" width="26.9" height="31.9"/>
		<g>
			<g>
				<path fill="#F7B64C" d="M35.4,37.9L34.7,34c-0.2-1.3-1.3-2.3-2.7-2.5l-4.2-0.4l-0.6-6.8l-5.7,0.3l0.2,4.9l-2.1,0.8l-3.9,0.9
					c-1.1,0.3-2,1.2-2.3,2.3l-0.9,4.3H35.4z"/>
			</g>
			<g>
				<path fill="#4ABAA5" d="M15.7,37.9H32c-1.7-2.1-0.3-6.4-0.3-6.4l-3-0.3c-5.2,5.2-9.6,0.6-9.7,0.6l-1.2-0.9l-1.1,0.4
					C17.6,32.4,16.1,36.7,15.7,37.9z"/>
			</g>
			<path fill="#FFD15C" d="M20.3,24.1c0,0,1.8,2.5,2.1,2.8c0.3,0.3,1.4,1.4,2.7,0.7c1.4-0.6,1.9-1.4,1.9-1.4s2.3-2.6,1.6-4.6
				c-0.7-2-0.8-3.9-2.3-4.4c-1.5-0.6-3.4-1.2-4.2-0.9c-0.7,0.3-1.7,2.9-1.7,3.6C20.5,20.5,20.3,24.1,20.3,24.1z"/>
			<g>
				<g>
					<path fill="#F3705A" d="M22.8,36.5c0.1,0,0.1,0,0.2,0C22.9,36.5,22.8,36.5,22.8,36.5z"/>
					<path fill="#F3705A" d="M33.3,32.4c-0.6-0.6-1-1.4-1.3-1.9c0.1,0.2,0.3,0.3,0.3,0.4c-0.1-0.1-0.4-0.6-0.3-1.5
						c0.1-0.9-0.7-2.3-0.9-2.6c0.4,0.6,1,2.1,1.1,2.3c-0.3-1.1-1.9-3.8-2.3-4.6c-0.4-0.9-0.2-3.1-0.2-3.1s-0.2-1.9-1.3-4.2
						c-1.1-2.3-4.2-2.2-4.3-2.1c-0.1,0.1-0.5,0-0.5,0c-3.7-0.4-4.5,4.6-4.5,5.8c0,1.2-0.6,3.6-0.6,3.6c-0.7,1.4-0.4,3.5-0.4,3.9
						c0,0.5-1.2,0.8-1,1.8c0.2,0.9-0.4,1.3-0.4,1.3c-2.4,0.6-0.8,4.3-0.8,4.3c0.2-0.8,1.3-0.7,1.3-0.7c-0.5,0.4-0.6,0.9-0.6,1
						c0.1-0.5,0.8-0.4,1-0.7c0.2-0.3,0.2-0.7,0.2-0.7s0.2,0.8-0.1,1c-0.3,0.2-0.4,0.7-0.4,0.7c0.2-0.1,0.5-0.3,0.5-0.4
						c-0.3,0.4-0.6,0.7-0.7,0.7c0.1,0,0.9-0.3,1.3-1.6c0.5-1.4,1.7-2.1,1.8-2.2c-2.3,2.1-1.3,3.4-1.2,3.6c-0.7-1.7,1.4-3.5,1.4-3.5
						s0.5,0.1,0.5,1.1c0,1-2,1.2-2,1.2c2.9,0.2,2.7-1.9,2.7-1.9c0.9,0.9,0.4,1.9,0.4,1.9c-1.6,0.4-1.4,1.1-1.4,1.1
						c0.4-0.5,0.7-0.4,0.7-0.4c-0.2,0-0.4,0.5-0.5,0.6c0.3-0.5,1.1-0.5,1.1-0.5c-0.2,0.6-0.4,0.7-0.4,0.7c0.4-0.1,0.7-0.2,0.9-0.4
						c0.5,0.1,0.9-0.2,1-0.3c-0.2,0.3-0.6,0.5-0.8,0.5c1.4,0,1.4-1.8,1-2.2c-0.4-0.4-1.3-2.1-1.3-2.1c1.3-1.5,0.3-3.9,0.3-3.9
						s-1.3-1.5-1.5-2.8c-0.1-0.3-0.1-0.7-0.2-1c-0.4-1.8-0.5-3.6-0.2-5.4c0-0.1,0-0.2,0.1-0.3c0.3-1.4,2.2-1.2,2.2-1.2
						c0.3-0.3,1.8,0.2,2.1,1.2c0.3,1,1.8,2.4,2.2,3.3c0.4,0.9,0.1,2.8-0.4,3.5c-0.2,0.2-0.3,0.5-0.3,0.6c-0.2,0.5-0.3,1-0.6,1.4
						c-0.6,1.3,0,2.2,0.4,2.7c0,0.3,0.1,0.5,0.1,0.5c-1.3,1.7-0.4,2.9,0,3.4C25.6,32.8,27,31,27,31c-0.2,0.4-0.2,2.5-0.2,2.5
						c0,0.3,0,0.5,0.1,0.7v0c0.6,1.6,2.9,2,2.9,2c-0.3-0.3-0.5-0.8-0.6-1.1c0.3,0.5,1.2,1.1,1.2,1.1c-0.3,0.1-0.6,0.9-0.8,1.2
						c0.1-0.2,0.4-0.7,0.9-0.9c0.3-0.1,0.5-0.3,0.6-0.5c0,0.2,0,0.5,0.1,0.8c0.1,0.5-0.1,0.8-0.2,1h0.1c0.2-0.2,0.5-0.5,0.3-0.9
						c-0.3-0.6,0.5-1.7,0.5-1.7c-0.1,0.7,0.3,0.8,0.4,0.9c-0.1-0.1-0.4-1,0.4-1.7c0.8-0.7,0.8-1.8,0.7-1.8
						C33.4,32.5,33.4,32.5,33.3,32.4z M23.2,34.3c0.8,0.8,0.5,1.5,0.5,1.5c-0.2,0.5-0.6,0.5-0.9,0.5C23.4,35.6,23.2,34.3,23.2,34.3z
						 M26.9,27.3c-0.3,0.6-0.2,2.2-0.1,3C25.9,29,26.6,27.7,26.9,27.3c0-0.1,0.1-0.1,0.1-0.1C26.9,27.2,26.9,27.2,26.9,27.3z"/>
					<path fill="#F3705A" d="M33.8,34.8c0.1-0.3,0.3-1.4-0.4-2.2C34.2,33.4,33.9,34.5,33.8,34.8z"/>
				</g>
			</g>
		</g>
		<circle fill="#344A5E" cx="24" cy="42.9" r="2.7"/>
		<g>
			<path fill="#344A5E" d="M27.1,3.7h-6.2c-0.4,0-0.8-0.4-0.8-0.8l0,0c0-0.4,0.4-0.8,0.8-0.8h6.2c0.4,0,0.8,0.4,0.8,0.8l0,0
				C27.9,3.4,27.6,3.7,27.1,3.7z"/>
		</g>
		<g>
			<path fill="#F05540" d="M31.3,16.1c0,0-4.6-2-4.6-5.9c0-1.3,1-2.3,2.3-2.3c1,0,1.9,0.7,2.2,1.6c0.3-0.9,1.2-1.6,2.2-1.6
				c1.3,0,2.3,1,2.3,2.3C35.8,14.1,31.3,16.1,31.3,16.1z"/>
		</g>
	</g>
</g>
</svg>
