<?xml version="1.0" encoding="utf-8"?>
<!-- Generator: Adobe Illustrator 18.0.0, SVG Export Plug-In . SVG Version: 6.00 Build 0)  -->
<!DOCTYPE svg PUBLIC "-//W3C//DTD SVG 1.1//EN" "http://www.w3.org/Graphics/SVG/1.1/DTD/svg11.dtd">
<svg version="1.1" id="Layer_1" xmlns="http://www.w3.org/2000/svg" xmlns:xlink="http://www.w3.org/1999/xlink" x="0px" y="0px"
	 viewBox="0 0 48 48" enable-background="new 0 0 48 48" xml:space="preserve">
<g>
	<g>
		<g>
			<path fill="#F3F3F3" d="M25.5,0C14.3,0.4,5.7,9.9,5.7,21.1L1.3,32.9c-0.3,0.9,0.3,1.8,1.2,1.8h3.2v3.7c0,1.5,1.2,2.7,2.7,2.7h2.5
				V48h22.9c1.3-5,3.9-9.6,7.5-13.5c3.4-3.7,5.5-8.6,5.5-14v0C46.8,9,37.2-0.4,25.5,0z"/>
		</g>
		<g>
			<g>
				<circle fill="#F3705A" cx="26.2" cy="20.2" r="14.5"/>
			</g>
			<g>
				<g>
					<g>
						<path fill="#FFFFFF" d="M25.2,14.9c0.3-0.4,0.7-0.6,1.1-0.6c0.4,0,0.8,0.2,1.1,0.5c0.3,0.3,0.4,0.7,0.4,1.2
							c0,0.5-0.1,0.9-0.4,1.2L25.6,19c-0.6,0.6-0.9,1.1-1.1,1.4c-0.2,0.3-0.3,0.9-0.3,1.6v1.5h3.8v-1.1c0-0.5,0.1-0.8,0.2-1
							c0.1-0.2,0.4-0.5,0.7-0.9c0.4-0.4,0.7-0.7,1.1-1.1c0.1-0.1,0.2-0.3,0.5-0.6c0.2-0.3,0.4-0.5,0.5-0.6c0.1-0.1,0.2-0.4,0.4-0.7
							c0.2-0.3,0.3-0.8,0.3-1.5c0-1.5-0.5-2.7-1.5-3.6c-1-0.9-2.3-1.3-3.8-1.3s-2.9,0.5-3.9,1.4s-1.7,2.3-1.8,4h4
							C24.7,15.8,24.9,15.3,25.2,14.9z"/>
					</g>
					<circle fill="#FFFFFF" cx="26.2" cy="27.1" r="2.2"/>
				</g>
			</g>
		</g>
	</g>
</g>
</svg>
