<?xml version="1.0" encoding="utf-8"?>
<!-- Generator: Adobe Illustrator 18.0.0, SVG Export Plug-In . SVG Version: 6.00 Build 0)  -->
<!DOCTYPE svg PUBLIC "-//W3C//DTD SVG 1.1//EN" "http://www.w3.org/Graphics/SVG/1.1/DTD/svg11.dtd">
<svg version="1.1" id="Layer_1" xmlns="http://www.w3.org/2000/svg" xmlns:xlink="http://www.w3.org/1999/xlink" x="0px" y="0px"
	 viewBox="0 0 48 48" enable-background="new 0 0 48 48" xml:space="preserve">
<g>
	<g>
		<g>
			<g>
				<path fill="#415A6B" d="M35,36.6h-2.8v-1.3H35c0.8,0,1.4-0.6,1.4-1.4V7.1h1.3V34C37.6,35.4,36.4,36.6,35,36.6z"/>
			</g>
		</g>
		<g>
			<g>
				<path fill="#415A6B" d="M38.7,33.1H37v-1.2h1.7c0.8,0,1.4-0.6,1.4-1.4V18.9h1.3v11.6C41.4,31.9,40.2,33.1,38.7,33.1z"/>
			</g>
		</g>
		<g>
			<g>
				<path fill="#F3F3F3" d="M29.8,0H3C1.3,0,0,1.3,0,3V45c0,1.6,1.3,3,3,3h26.8c1.6,0,3-1.3,3-3V3C32.7,1.3,31.4,0,29.8,0z"/>
				<rect x="4" y="4" fill="#8AD7F8" width="24.8" height="19.2"/>
				<path fill="#FFFFFF" d="M20,12.7l-6.3-4c-0.7-0.4-1.5,0.1-1.5,0.8v7.9c0,0.8,0.9,1.2,1.5,0.8l6.3-4C20.6,14,20.6,13.1,20,12.7z"
					/>
				<g>
					<circle fill="#F3705A" cx="16.4" cy="36" r="2.7"/>
					<path fill="#415A6B" d="M12,36c0-0.9,0.3-1.7,0.7-2.4l-3-3c-1.2,1.5-2,3.4-2,5.5c0,2.1,0.7,4,2,5.5l3-3
						C12.2,37.7,12,36.9,12,36z"/>
					<path fill="#415A6B" d="M20.8,36c0,0.9-0.3,1.7-0.7,2.4l3,3c1.2-1.5,2-3.4,2-5.5c0-2.1-0.7-4-2-5.5l-3,3
						C20.5,34.2,20.8,35.1,20.8,36z"/>
					<path fill="#415A6B" d="M18.8,39.6c-0.7,0.5-1.5,0.7-2.4,0.7c-0.9,0-1.7-0.3-2.4-0.7l-3,3c1.5,1.2,3.4,2,5.5,2
						c2.1,0,4-0.7,5.5-2L18.8,39.6z"/>
					<path fill="#415A6B" d="M13.9,32.3c0.7-0.5,1.5-0.7,2.4-0.7c0.9,0,1.7,0.3,2.4,0.7l3-3c-1.5-1.2-3.4-2-5.5-2
						c-2.1,0-4,0.7-5.5,2L13.9,32.3z"/>
				</g>
				<g>
					<g>
						<path fill="#FFD15C" d="M7.6,28.7H4.5c-0.3,0-0.5-0.2-0.5-0.5v-1.8c0-0.3,0.2-0.5,0.5-0.5h3.1c0.3,0,0.5,0.2,0.5,0.5v1.8
							C8.1,28.5,7.8,28.7,7.6,28.7z"/>
					</g>
					<g>
						<path fill="#4EC0AA" d="M28.3,28.7h-3.1c-0.3,0-0.5-0.2-0.5-0.5v-1.8c0-0.3,0.2-0.5,0.5-0.5h3.1c0.3,0,0.5,0.2,0.5,0.5v1.8
							C28.8,28.5,28.6,28.7,28.3,28.7z"/>
					</g>
				</g>
			</g>
			<g>
				<g>
					<g>
						<rect x="38.7" y="2.3" fill="#344A5E" width="1.8" height="3.3"/>
					</g>
					<g>
						<path fill="#F3705A" d="M37,0c-0.9,0-1.7,0.8-1.7,1.7v6.7h3.4V1.7C38.7,0.8,37.9,0,37,0z"/>
						<g>
							<rect x="36" y="8.4" fill="#F3705A" width="2" height="1.9"/>
						</g>
					</g>
					<g>
						<path fill="#415A6B" d="M41.1,0.8c-0.6,0-1.1,0.2-1.6,0.4v5.4c0.5,0.3,1,0.4,1.6,0.4c1.7,0,3.1-1.4,3.1-3.1
							C44.3,2.2,42.9,0.8,41.1,0.8z"/>
					</g>
				</g>
			</g>
			<g>
				<g>
					<g>
						<rect x="42.4" y="14.1" fill="#344A5E" width="1.8" height="3.3"/>
					</g>
					<g>
						<path fill="#F3705A" d="M40.7,11.8c-0.9,0-1.7,0.8-1.7,1.7v6.7h3.4v-6.7C42.4,12.6,41.7,11.8,40.7,11.8z"/>
						<g>
							<rect x="39.7" y="20.2" fill="#F3705A" width="2" height="1.9"/>
						</g>
					</g>
					<g>
						<path fill="#415A6B" d="M44.9,12.6c-0.6,0-1.1,0.2-1.6,0.4v5.4c0.5,0.3,1,0.4,1.6,0.4c1.7,0,3.1-1.4,3.1-3.1
							C48,14,46.6,12.6,44.9,12.6z"/>
					</g>
				</g>
			</g>
		</g>
	</g>
</g>
</svg>
