<?xml version="1.0" encoding="utf-8"?>
<!-- Generator: Adobe Illustrator 20.1.0, SVG Export Plug-In . SVG Version: 6.00 Build 0)  -->
<!DOCTYPE svg PUBLIC "-//W3C//DTD SVG 1.1//EN" "http://www.w3.org/Graphics/SVG/1.1/DTD/svg11.dtd">
<svg version="1.1" id="Layer_1" xmlns="http://www.w3.org/2000/svg" xmlns:xlink="http://www.w3.org/1999/xlink" x="0px" y="0px"
	 viewBox="0 0 49 49" enable-background="new 0 0 49 49" xml:space="preserve">
<g>
	<path fill="#40596B" d="M46.5,9.2h-44c-1.1,0-2,0.9-2,2v28.6c0,1.1,0.9,2,2,2h44c1.1,0,2-0.9,2-2V11.2C48.5,10.1,47.6,9.2,46.5,9.2
		z"/>
	<rect x="3.5" y="12.2" fill="#FFFFFF" width="42" height="26.6"/>
	<rect x="15.3" y="41.8" fill="#CDD6E0" width="18.3" height="5.4"/>
	<rect x="9.8" y="47.2" fill="#F2F2F2" width="29.4" height="1.3"/>
	<rect x="15.3" y="41.8" fill="#ACB3BA" width="18.3" height="1.5"/>
	<polygon fill="#E4EAEF" points="42.2,12.2 40.3,38.8 8.7,38.8 6.8,12.2 	"/>
	<rect x="8.7" y="5.1" fill="#F2F2F2" width="31.5" height="33.7"/>
	<rect x="8.7" y="0.5" fill="#ACB3BA" width="31.5" height="4.6"/>
	<circle fill="#F2F2F2" cx="19.5" cy="2.8" r="1.3"/>
	<circle fill="#F2F2F2" cx="15.3" cy="2.8" r="1.3"/>
	<circle fill="#F2F2F2" cx="11" cy="2.8" r="1.3"/>
	<path fill="#F2F2F2" d="M38,1.5H27.5c-0.7,0-1.3,0.6-1.3,1.3c0,0.7,0.6,1.3,1.3,1.3H38c0.7,0,1.3-0.6,1.3-1.3
		C39.3,2.1,38.7,1.5,38,1.5z"/>
	<circle fill="#F8B64C" cx="17.6" cy="10.5" r="4.3"/>
	<circle fill="#FFD15C" cx="17.6" cy="10.5" r="3.2"/>
	<path fill="#F8B64C" d="M17.9,10c-0.5-0.2-0.6-0.3-0.6-0.4c0-0.2,0.1-0.3,0.4-0.3c0.3,0,0.5,0.1,0.6,0.2l0.2,0.1l0.3-0.8l-0.2-0.1
		c-0.2-0.1-0.4-0.2-0.6-0.2V7.9h-0.9v0.6c-0.5,0.2-0.9,0.6-0.9,1.1c0,0.7,0.6,1,1.1,1.2c0.5,0.2,0.5,0.3,0.5,0.5
		c0,0.2-0.2,0.3-0.5,0.3c-0.2,0-0.5-0.1-0.7-0.2l-0.3-0.2l-0.3,0.9l0.2,0.1c0.2,0.1,0.5,0.2,0.8,0.3v0.6h0.9v-0.7
		c0.6-0.2,0.9-0.6,0.9-1.2C19,10.6,18.4,10.2,17.9,10z"/>
	<circle fill="#F8B64C" cx="37.1" cy="14.1" r="2.9"/>
	<circle fill="#FFD15C" cx="37.1" cy="14.1" r="2.2"/>
	<path fill="#F8B64C" d="M37.3,13.8c-0.4-0.2-0.4-0.2-0.4-0.3c0-0.1,0.1-0.2,0.3-0.2c0.2,0,0.4,0.1,0.4,0.1l0.2,0.1l0.2-0.6
		l-0.1-0.1c-0.1-0.1-0.3-0.1-0.4-0.1v-0.4h-0.6v0.4c-0.4,0.1-0.6,0.4-0.6,0.8c0,0.5,0.4,0.7,0.8,0.8c0.3,0.1,0.3,0.2,0.3,0.3
		c0,0.2-0.2,0.2-0.3,0.2c-0.2,0-0.3-0.1-0.5-0.1l-0.2-0.1l-0.2,0.6l0.1,0.1c0.1,0.1,0.3,0.2,0.5,0.2v0.4h0.6v-0.5
		c0.4-0.1,0.6-0.4,0.6-0.8C38,14.1,37.6,13.9,37.3,13.8z"/>
	<circle fill="#F8B64C" cx="40" cy="26.6" r="2.9"/>
	<circle fill="#FFD15C" cx="40" cy="26.6" r="2.2"/>
	<path fill="#F8B64C" d="M40.2,26.2c-0.4-0.2-0.4-0.2-0.4-0.3c0-0.1,0.1-0.2,0.3-0.2c0.2,0,0.4,0.1,0.4,0.1l0.2,0.1l0.2-0.6
		l-0.1-0.1c-0.1-0.1-0.3-0.1-0.4-0.1v-0.4h-0.6v0.4c-0.4,0.1-0.6,0.4-0.6,0.8c0,0.5,0.4,0.7,0.8,0.8c0.3,0.1,0.3,0.2,0.3,0.3
		c0,0.2-0.2,0.2-0.3,0.2c-0.2,0-0.3-0.1-0.5-0.1l-0.2-0.1l-0.2,0.6l0.1,0.1c0.1,0.1,0.3,0.2,0.5,0.2v0.4h0.6v-0.5
		c0.4-0.1,0.6-0.4,0.6-0.8C40.9,26.6,40.5,26.4,40.2,26.2z"/>
	<circle fill="#F8B64C" cx="9.7" cy="35.2" r="2.9"/>
	<circle fill="#FFD15C" cx="9.7" cy="35.2" r="2.2"/>
	<path fill="#F8B64C" d="M9.9,34.9c-0.4-0.2-0.4-0.2-0.4-0.3c0-0.1,0.1-0.2,0.3-0.2c0.2,0,0.4,0.1,0.4,0.1l0.2,0.1l0.2-0.6l-0.1-0.1
		c-0.1-0.1-0.3-0.1-0.4-0.1v-0.4H9.5v0.4c-0.4,0.1-0.6,0.4-0.6,0.8c0,0.5,0.4,0.7,0.8,0.8c0.3,0.1,0.3,0.2,0.3,0.3
		c0,0.2-0.2,0.2-0.3,0.2c-0.2,0-0.3-0.1-0.5-0.1L9,35.7l-0.2,0.6l0.1,0.1c0.1,0.1,0.3,0.2,0.5,0.2V37H10v-0.5
		c0.4-0.1,0.6-0.4,0.6-0.8C10.7,35.2,10.3,35,9.9,34.9z"/>
	<circle fill="#F8B64C" cx="8.7" cy="19.6" r="2.9"/>
	<circle fill="#FFD15C" cx="8.7" cy="19.6" r="2.2"/>
	<path fill="#F8B64C" d="M8.9,19.2c-0.4-0.2-0.4-0.2-0.4-0.3c0-0.1,0.1-0.2,0.3-0.2c0.2,0,0.4,0.1,0.4,0.1L9.4,19l0.2-0.6l-0.1-0.1
		c-0.1-0.1-0.3-0.1-0.4-0.1v-0.4H8.5v0.4c-0.4,0.1-0.6,0.4-0.6,0.8c0,0.5,0.4,0.7,0.8,0.8C9,20,9,20.1,9,20.1c0,0.2-0.2,0.2-0.3,0.2
		c-0.2,0-0.3-0.1-0.5-0.1L8,20.1l-0.2,0.6l0.1,0.1C8,20.9,8.2,20.9,8.5,21v0.4H9v-0.5c0.4-0.1,0.6-0.4,0.6-0.8
		C9.7,19.6,9.3,19.4,8.9,19.2z"/>
	<g>
		<path fill="#FFFFFF" d="M24.8,13.9v4.7c-0.1,0-0.2,0-0.3,0s-0.2,0-0.3,0v-4.7H24.8z"/>
		<path fill="#FFFFFF" d="M24.8,32.3v4.7h-0.5v-4.7c0.1,0,0.2,0,0.3,0S24.7,32.3,24.8,32.3z"/>
		<path fill="#FFFFFF" d="M32.9,17.5l-3.3,3.3c-0.1-0.1-0.2-0.3-0.4-0.4l3.4-3.3L32.9,17.5z"/>
		<path fill="#FFFFFF" d="M19.9,30.5l-3.4,3.3l-0.4-0.4l3.4-3.3C19.6,30.3,19.7,30.4,19.9,30.5z"/>
		<path fill="#FFFFFF" d="M36.1,25.2v0.5h-4.7c0-0.1,0-0.2,0-0.2c0-0.1,0-0.2,0-0.3H36.1z"/>
		<path fill="#FFFFFF" d="M17.7,25.5c0,0.1,0,0.2,0,0.2h-4.7v-0.5h4.7C17.7,25.3,17.7,25.4,17.7,25.5z"/>
		<path fill="#FFFFFF" d="M32.9,33.5l-0.4,0.4l-3.4-3.3c0.1-0.1,0.3-0.2,0.4-0.4L32.9,33.5z"/>
		<path fill="#FFFFFF" d="M19.9,20.5c-0.1,0.1-0.3,0.2-0.4,0.4l-3.4-3.3l0.4-0.4L19.9,20.5z"/>
		<path fill="#FFFFFF" d="M22.1,19.1c-0.2,0.1-0.3,0.1-0.5,0.2l-1.1-2.7l0.5-0.2L22.1,19.1z"/>
		<path fill="#FFFFFF" d="M28.5,34.4L28,34.6l-1.1-2.7c0.2,0,0.3-0.1,0.5-0.2L28.5,34.4z"/>
		<path fill="#FFFFFF" d="M18.3,22.6c-0.1,0.1-0.1,0.3-0.2,0.5L15.4,22l0.2-0.5L18.3,22.6z"/>
		<path fill="#FFFFFF" d="M33.6,29l-0.2,0.5l-2.7-1.1c0.1-0.1,0.1-0.3,0.2-0.5L33.6,29z"/>
		<path fill="#FFFFFF" d="M18.3,28.3l-2.7,1.1L15.4,29l2.7-1.1C18.1,28,18.2,28.2,18.3,28.3z"/>
		<path fill="#FFFFFF" d="M33.6,22l-2.7,1.1c0-0.2-0.1-0.3-0.2-0.5l2.7-1.1L33.6,22z"/>
		<path fill="#FFFFFF" d="M22.1,31.9L21,34.6l-0.5-0.2l1.1-2.7C21.8,31.8,22,31.8,22.1,31.9z"/>
		<path fill="#FFFFFF" d="M28.5,16.6l-1.1,2.7c-0.1-0.1-0.3-0.1-0.5-0.2l1.1-2.7L28.5,16.6z"/>
	</g>
	<polygon fill="#40596B" points="20.2,21.2 22.6,29.8 24.7,27.6 26.9,29.8 28.8,27.9 26.6,25.7 28.8,23.6 	"/>
</g>
</svg>
