<?xml version="1.0" encoding="utf-8"?>
<!-- Generator: Adobe Illustrator 19.0.1, SVG Export Plug-In . SVG Version: 6.00 Build 0)  -->
<svg version="1.1" id="Layer_1" xmlns="http://www.w3.org/2000/svg" xmlns:xlink="http://www.w3.org/1999/xlink" x="0px" y="0px"
	 viewBox="0 0 48 48" style="enable-background:new 0 0 48 48;" xml:space="preserve">
<style type="text/css">
	.st0{fill:#66C6B9;}
	.st1{fill:#F3F3F3;}
	.st2{fill:#415A6B;}
	.st3{fill:#CED6E0;}
	.st4{fill:#F3705A;}
	.st5{fill:#E8EAE9;}
	.st6{fill:#4ABAA5;}
	.st7{fill:#F05540;}
	.st8{fill:#FFD15C;}
	.st9{fill:#55C0EB;}
	.st10{fill:#8AD7F8;}
	.st11{fill:#344A5E;}
	.st12{fill:#FFFFFF;}
	.st13{fill:#F7B64C;}
	.st14{fill:#ADB3BA;}
	.st15{fill:#38A892;}
	.st16{fill:#ED9845;}
	.st17{fill:#2D4251;}
	.st18{fill:#304556;}
	.st19{fill:#A5AAAD;}
	.st20{fill:#2D4456;}
	.st21{fill:#4FB0E0;}
	.st22{fill:#2D4354;}
	.st23{fill:#E54C38;}
	.st24{fill:#2B4456;}
	.st25{fill:#2B404F;}
</style>
<g>
	<g>
		<path class="st5" d="M42,2.8v42.5c0,1.5-1.2,2.8-2.8,2.8H8.8C7.3,48,6,46.8,6,45.2V2.8C6,1.2,7.3,0,8.8,0h30.4
			C40.7,0,42,1.2,42,2.8z"/>
		<rect x="9.7" y="3.7" class="st2" width="28.6" height="12"/>
		<rect x="9.7" y="19.4" class="st0" width="12.4" height="10.6"/>
		<rect x="25.8" y="19.4" class="st10" width="12.4" height="10.6"/>
		<rect x="9.7" y="33.7" class="st8" width="12.4" height="10.6"/>
		<rect x="25.8" y="33.7" class="st4" width="12.4" height="10.6"/>
		<g>
			<path class="st12" d="M15.2,27.7v-2.2h-2.3v-1.5h2.3v-2.2h1.5v2.2h2.3v1.5h-2.3v2.2H15.2z"/>
		</g>
		<g>
			<path class="st12" d="M29.2,27.4l2-2.8l-1.9-2.7h1.8l1,1.5l1-1.5h1.7l-1.9,2.6l2,2.9h-1.8L32,25.7l-1.1,1.7H29.2z"/>
		</g>
		<g>
			<path class="st12" d="M12.9,39.8v-1.6h6v1.6H12.9z"/>
		</g>
		<g>
			<g>
				<path class="st12" d="M29.1,38v-1.6h6V38H29.1z"/>
			</g>
			<g>
				<path class="st12" d="M29.1,41.7V40h6v1.6H29.1z"/>
			</g>
		</g>
	</g>
</g>
</svg>
