<?xml version="1.0" encoding="utf-8"?>
<!-- Generator: Adobe Illustrator 18.0.0, SVG Export Plug-In . SVG Version: 6.00 Build 0)  -->
<!DOCTYPE svg PUBLIC "-//W3C//DTD SVG 1.1//EN" "http://www.w3.org/Graphics/SVG/1.1/DTD/svg11.dtd">
<svg version="1.1" id="Layer_1" xmlns="http://www.w3.org/2000/svg" xmlns:xlink="http://www.w3.org/1999/xlink" x="0px" y="0px"
	 viewBox="0 0 48 48" enable-background="new 0 0 48 48" xml:space="preserve">
<g>
	<g>
		<g>
			<g>
				<path fill="#F3705A" d="M34,19.7H14.4l0,0c2.2-2.2,3.4-5.3,3.4-8.4V6.4c0-3.5,2.8-6.4,6.4-6.4h0c3.5,0,6.4,2.8,6.4,6.4v4.9
					C30.5,14.4,31.8,17.4,34,19.7L34,19.7z"/>
			</g>
			<g>
				<g>
					<g>
						<g>
							<g>
								<path fill="#415A6B" d="M34.9,25.9v-5c0-1.5-1.1-2.8-2.5-3.2c-5.5-1.3-11.3-1.3-16.8,0c-1.5,0.4-2.5,1.7-2.5,3.2v5H34.9z"/>
							</g>
							<g>
								<path fill="#F7B64C" d="M34.9,25.9v-5c0-1.5-1-2.8-2.5-3.2c-1.4-0.3-2.8-0.6-4.3-0.8c-0.8-0.1-1.3-0.7-1.3-1.5v-2.8h-5.6
									v2.8c0,0.8-0.6,1.4-1.3,1.5c-1.4,0.2-2.9,0.4-4.3,0.8c-1.5,0.4-2.5,1.7-2.5,3.2v5H34.9z"/>
							</g>
							<g>
								<path fill="#415A6B" d="M34.9,25.9v-5c0-1.5-1-2.8-2.5-3.2c-1.4-0.3-2.8-0.6-4.3-0.8c-0.4-0.1-0.8-0.3-1.1-0.7L24,18.5
									l-2.8-2.8c-0.1,0.7-0.6,1.2-1.3,1.3c-1.4,0.2-2.9,0.4-4.3,0.8c-1.5,0.4-2.5,1.7-2.5,3.2v5H34.9z"/>
							</g>
							<g>
								<path fill="#344A5E" d="M13.1,20.9v6.3h3.6v-3.3c0-2.1-0.8-4.1-2.2-5.7C13.7,18.8,13.1,19.8,13.1,20.9z"/>
							</g>
							<g>
								<path fill="#344A5E" d="M34.9,25.9v-5c0-1.1-0.6-2.1-1.5-2.7c-1.4,1.5-2.2,3.5-2.2,5.7v2.1H34.9z"/>
							</g>
							<g>
								<polygon fill="#F3F3F3" points="24,18.5 26.2,20.3 27.5,16.1 26.8,14.6 								"/>
								<polygon fill="#F3F3F3" points="24,18.5 21.8,20.3 20.5,16.1 21.2,14.6 								"/>
							</g>
							<g>
								<g>
									<circle fill="#344A5E" cx="24" cy="24.5" r="0.6"/>
								</g>
								<g>
									<circle fill="#344A5E" cx="24" cy="21.5" r="0.6"/>
								</g>
							</g>
						</g>
					</g>
				</g>
			</g>
			<g>
				<path fill="#FFD15C" d="M26.8,4.3c-1.1,2.2-3.2,3.8-6.4,3.8c-0.4,0-0.8,0-1.1-0.1c-0.1,0.5-0.1,0.9-0.1,1.4c0,3.3,2.2,6,5,6
					c2.8,0,5-2.7,5-6C29.2,7.3,28.2,5.4,26.8,4.3z"/>
			</g>
		</g>
		<g>
			<rect x="10.6" y="30.5" fill="#F7B64C" width="26.8" height="17.5"/>
			<polygon fill="#FFD15C" points="6,24.5 8.6,30.5 39.4,30.5 42,24.5 			"/>
		</g>
	</g>
</g>
</svg>
