<?xml version="1.0" encoding="utf-8"?>
<!-- Generator: Adobe Illustrator 18.0.0, SVG Export Plug-In . SVG Version: 6.00 Build 0)  -->
<!DOCTYPE svg PUBLIC "-//W3C//DTD SVG 1.1//EN" "http://www.w3.org/Graphics/SVG/1.1/DTD/svg11.dtd">
<svg version="1.1" id="Layer_1" xmlns="http://www.w3.org/2000/svg" xmlns:xlink="http://www.w3.org/1999/xlink" x="0px" y="0px"
	 viewBox="0 0 48 48" enable-background="new 0 0 48 48" xml:space="preserve">
<g>
	<g>
		<g>
			<g>
				<g>
					<g>
						<g>
							<path fill="#F3F3F3" d="M23.3,36.3c0,6.4-5.2,11.7-11.7,11.7C5.2,48,0,42.8,0,36.3c0-5.1,3.3-9.4,7.8-11V1.9h7.7v12.9
								l4.1-4.1l3.8,3.8l-7.9,7.9v3C20,26.9,23.3,31.3,23.3,36.3z"/>
							<g>
								<rect x="7.8" y="1.9" fill="#E8EAE9" width="7.7" height="3.3"/>
							</g>
							<g>
								<g>
									<g>
										<path fill="#F3F3F3" d="M15.5,3.8H7.8c-1,0-1.9-0.8-1.9-1.9S6.8,0,7.8,0h7.7c1,0,1.9,0.8,1.9,1.9S16.5,3.8,15.5,3.8z"/>
									</g>
								</g>
							</g>
							<g>
								<g>
									<g>
										<path fill="#F3705A" d="M2.1,37.7c0.6,4.7,4.7,8.3,9.5,8.3c4.9,0,8.9-3.6,9.5-8.3H2.1z"/>
									</g>
								</g>
							</g>
						</g>
					</g>
				</g>
			</g>
			<circle fill="#FFFFFF" cx="9" cy="42.2" r="1.2"/>
			<circle fill="#FFFFFF" cx="15.9" cy="40.6" r="1.6"/>
			<circle fill="#F3705A" cx="10.4" cy="34.5" r="1.4"/>
			<circle fill="#F3705A" cx="13.1" cy="29.4" r="0.8"/>
		</g>
		<g>
			<path fill="#F3F3F3" d="M26.4,23.8V46c0,1.1,0.9,2,2,2h16.1c1.1,0,2-0.9,2-2V23.8H26.4z"/>
			<g>
				<rect x="28.4" y="36.8" fill="#FFD15C" width="16.1" height="9.2"/>
			</g>
		</g>
		<g>
			<circle fill="#FFFFFF" cx="33.1" cy="40" r="1"/>
			<circle fill="#FFFFFF" cx="40.9" cy="43.1" r="1.3"/>
		</g>
		<circle fill="#FFD15C" cx="31.6" cy="31.2" r="1.3"/>
		<g>
			<path fill="#F3F3F3" d="M24.8,13.1L21,9.3c-0.4-0.4-1-0.4-1.4,0c-0.4,0.4-0.4,1,0,1.4l3.8,3.8c0.4,0.4,1,0.4,1.4,0
				C25.1,14.1,25.1,13.5,24.8,13.1z"/>
		</g>
		<g>
			<path fill="#F3F3F3" d="M46.5,24.3H26.4c-0.8,0-1.5-0.7-1.5-1.5s0.7-1.5,1.5-1.5h20.1c0.8,0,1.5,0.7,1.5,1.5S47.3,24.3,46.5,24.3
				z"/>
		</g>
		<g>
			<g>
				<g>
					<g>
						<path fill="#415A6B" d="M30.5,11.2c-0.3,0-0.6,0-0.8-0.1c-0.8-0.2-1.5-0.7-2-1.5c-1.1-1.5-1-3.4,0.1-4.3C29,4.4,30.9,5,32,6.5
							l0,0c1.1,1.5,1,3.4-0.1,4.3C31.5,11,31,11.2,30.5,11.2z M29.2,5.9c-0.3,0-0.5,0.1-0.7,0.2C27.7,6.6,27.7,8,28.5,9
							c0.4,0.5,0.9,0.9,1.5,1.1c0.5,0.2,1,0.1,1.3-0.1c0.7-0.5,0.7-1.9-0.1-2.9C30.6,6.3,29.8,5.9,29.2,5.9z"/>
					</g>
				</g>
			</g>
			<g>
				<g>
					<path fill="#415A6B" d="M37.2,31.7h-1V8.6c0-2.2-1.8-4-4-4c-1.4,0-2.7,0.5-3.7,1.5L17.6,17l-0.7-0.7L27.8,5.4
						c1.2-1.2,2.7-1.8,4.4-1.8c2.8,0,5,2.3,5,5V31.7z"/>
				</g>
			</g>
		</g>
		<g opacity="0.5">
			<g>
				<g>
					<path fill="#F3F3F3" d="M16.6,18.1h3.2l3.6-3.6c0.4,0.4,1,0.4,1.4,0c0.4-0.4,0.4-1,0-1.4L21,9.3c-0.4-0.4-1-0.4-1.4,0
						c-0.4,0.4-0.4,1,0,1.4l-3,3V18.1z"/>
				</g>
				<g>
					<rect x="34.7" y="21.3" fill="#F3F3F3" width="3.6" height="11.9"/>
				</g>
			</g>
		</g>
	</g>
</g>
</svg>
