<?xml version="1.0" encoding="utf-8"?>
<!-- Generator: Adobe Illustrator 18.0.0, SVG Export Plug-In . SVG Version: 6.00 Build 0)  -->
<!DOCTYPE svg PUBLIC "-//W3C//DTD SVG 1.1//EN" "http://www.w3.org/Graphics/SVG/1.1/DTD/svg11.dtd">
<svg version="1.1" id="Layer_1" xmlns="http://www.w3.org/2000/svg" xmlns:xlink="http://www.w3.org/1999/xlink" x="0px" y="0px"
	 viewBox="0 0 48 48" enable-background="new 0 0 48 48" xml:space="preserve">
<g>
	<g>
		<g>
			<g>
				<g>
					<g>
						<path fill="#E8EAE9" d="M22.2,13c-3,0-6.1,0-9.1,0C12.4,9.3,8.2,6.3,5.2,3C13-1,22.2-1,30,3C27,6.3,22.8,9.3,22.2,13z"/>
					</g>
				</g>
				<g>
					<g>
						<path fill="#E8EAE9" d="M22.7,48c6.8,0,12.5-5.4,12.5-12.2c0,0,0-0.1,0-0.1c0-9.7-7.9-24.8-17.6-24.8S0,25.9,0,35.7
							c0,0,0,0.1,0,0.1C0.1,42.6,5.8,48,12.6,48H22.7z"/>
					</g>
				</g>
			</g>
			<g>
				<g>
					<g>
						<path fill="#415A6B" d="M17.6,11.5c-2.2,0-4.4-0.2-6.5-0.7c-0.5-0.1-0.9-0.6-0.8-1.2c0.1-0.5,0.6-0.9,1.2-0.8
							c4,0.8,8.1,0.8,12.3,0c0.5-0.1,1.1,0.2,1.2,0.8c0.1,0.5-0.2,1.1-0.8,1.2C21.9,11.3,19.7,11.5,17.6,11.5z"/>
					</g>
				</g>
				<g>
					<g>
						<path fill="#415A6B" d="M17.6,13.4c-1.8,0-3.5-0.2-5.3-0.5c-0.5-0.1-0.9-0.6-0.8-1.2c0.1-0.5,0.6-0.9,1.2-0.8
							c3.2,0.7,6.5,0.7,9.8,0c0.5-0.1,1.1,0.2,1.2,0.8s-0.2,1.1-0.8,1.2C21.1,13.3,19.3,13.4,17.6,13.4z"/>
					</g>
				</g>
			</g>
			<g>
				<g>
					<path fill="#415A6B" d="M20.6,20c-0.6,0-1-0.4-1-1v-6.9c0-0.6,0.4-1,1-1s1,0.4,1,1V19C21.6,19.5,21.1,20,20.6,20z"/>
				</g>
			</g>
			<g>
				<g>
					<path fill="#415A6B" d="M17.5,16.5c-0.6,0-1-0.4-1-1v-3.3c0-0.6,0.4-1,1-1s1,0.4,1,1v3.3C18.5,16.1,18,16.5,17.5,16.5z"/>
				</g>
			</g>
		</g>
		<g>
			<g>
				<g>
					<circle fill="#F7B64C" cx="32.4" cy="32.4" r="15.6"/>
				</g>
			</g>
			<g>
				<g>
					<g>
						<circle fill="#FFD15C" cx="32.4" cy="32.4" r="11.6"/>
					</g>
				</g>
				<g>
					<g>
						<path fill="#F7B64C" d="M32,40v-1.3c-1.7-0.2-3.2-0.8-4.5-2l1.3-1.6c1,0.9,2.1,1.4,3.2,1.6v-3.6c-1.4-0.3-2.4-0.8-3-1.3
							c-0.6-0.5-1-1.3-1-2.4c0-1.1,0.4-1.9,1.1-2.6c0.7-0.7,1.7-1,2.9-1.1v-0.9h1.2v0.9c1.3,0.1,2.6,0.6,3.8,1.4l-1.2,1.7
							c-0.8-0.6-1.7-0.9-2.6-1.1v3.5h0.1c1.4,0.3,2.4,0.8,3.1,1.3c0.7,0.6,1,1.4,1,2.5c0,1.1-0.4,1.9-1.1,2.6c-0.8,0.7-1.8,1-3,1.1
							V40H32z M30.7,28.2c-0.3,0.3-0.5,0.6-0.5,1c0,0.4,0.1,0.7,0.4,1c0.2,0.2,0.7,0.5,1.4,0.7v-3.2C31.5,27.7,31,27.9,30.7,28.2z
							 M34.8,36.3c0.4-0.3,0.6-0.7,0.6-1.2c0-0.5-0.1-0.8-0.4-1.1c-0.3-0.3-0.8-0.5-1.6-0.8v3.6C33.9,36.8,34.4,36.6,34.8,36.3z"/>
					</g>
				</g>
			</g>
		</g>
	</g>
</g>
</svg>
