<?xml version="1.0" encoding="utf-8"?>
<!-- Generator: Adobe Illustrator 18.0.0, SVG Export Plug-In . SVG Version: 6.00 Build 0)  -->
<!DOCTYPE svg PUBLIC "-//W3C//DTD SVG 1.1//EN" "http://www.w3.org/Graphics/SVG/1.1/DTD/svg11.dtd">
<svg version="1.1" id="Layer_1" xmlns="http://www.w3.org/2000/svg" xmlns:xlink="http://www.w3.org/1999/xlink" x="0px" y="0px"
	 viewBox="0 0 48 48" enable-background="new 0 0 48 48" xml:space="preserve">
<g>
	<g>
		<g>
			<path fill="#8AD7F8" d="M36,40.7c-4.1,0.6-7.4,2.3-9.5,5.7c-0.6,1.1-1.8,1.7-3,1.6c0,0-0.1,0-0.1,0c-0.8-0.1-1.6-0.7-2.1-1.4
				c-2.3-3.1-5.5-5.1-9.4-6l2.6-8.9c1-3.5,1-7.2-0.2-10.7c0,0,0-0.1,0-0.1c-1.2-3.7-1.5-7.5-1-11.3c0.4-2.9,0.7-7.1-0.1-8.5L14.9,0
				c0,0,0.8,5.6,4.3,9c3.5,3.4,4.5,4.7,4.8,6c0.3-1.2,1.3-2.5,4.8-6c3.5-3.4,3.8-9,3.8-9l2.1,1.2c-0.8,1.4-0.5,5.5-0.1,8.5
				c0.5,3.8,0.2,7.7-1,11.3c0,0,0,0.1,0,0.1c-1.1,3.5-1.2,7.2-0.2,10.7L36,40.7z"/>
		</g>
		<g>
			<path fill="#55C0EB" d="M21.5,17.4c-0.2,0.1-0.5,0.3-0.8,0.4c-0.3,0.1-0.6,0.3-0.9,0.4c-0.3,0.1-0.6,0.2-1,0.3
				c-0.3,0.1-0.7,0.2-1,0.2c-0.3,0-0.7,0.1-1,0.1c-0.3,0-0.7,0-1-0.1c-0.3-0.1-0.6-0.1-0.9-0.2c-0.3-0.1-0.5-0.2-0.8-0.3
				c-0.1-0.1-0.2-0.1-0.3-0.2c-0.1,0-0.1-0.1-0.2-0.1c0.1,0.4,0.2,0.8,0.3,1.2c0.2,0.1,0.5,0.2,0.8,0.2c0.3,0.1,0.7,0.1,1,0.1
				c0.4,0,0.7,0,1.1,0c0.4,0,0.7-0.1,1.1-0.2c0.3-0.1,0.7-0.2,1.1-0.3c0.3-0.1,0.7-0.3,1-0.4c0.3-0.2,0.6-0.3,0.9-0.5
				c0.3-0.2,0.5-0.3,0.7-0.5c0.5-0.3,0.8-0.6,1.1-0.8c0.2-0.2,0.4-0.3,0.4-0.3s-0.2,0.1-0.4,0.3C22.4,16.9,22,17.2,21.5,17.4z"/>
			<path fill="#55C0EB" d="M27.1,18.1c0.3,0.2,0.6,0.3,0.9,0.5c0.3,0.2,0.6,0.3,1,0.4c0.3,0.1,0.7,0.2,1.1,0.3
				c0.4,0.1,0.7,0.1,1.1,0.2c0.4,0,0.7,0,1.1,0c0.4,0,0.7-0.1,1-0.1c0.3-0.1,0.5-0.1,0.8-0.2c0.1-0.4,0.2-0.8,0.3-1.2
				c-0.1,0-0.1,0.1-0.2,0.1c-0.1,0.1-0.2,0.1-0.3,0.2c-0.2,0.1-0.5,0.2-0.8,0.3c-0.3,0.1-0.6,0.2-0.9,0.2c-0.3,0.1-0.7,0.1-1,0.1
				c-0.3,0-0.7,0-1-0.1c-0.4-0.1-0.7-0.1-1-0.2c-0.3-0.1-0.7-0.2-1-0.3c-0.3-0.1-0.6-0.3-0.9-0.4c-0.3-0.1-0.5-0.3-0.8-0.4
				c-0.5-0.3-0.9-0.5-1.1-0.7c-0.3-0.2-0.4-0.3-0.4-0.3s0.1,0.1,0.4,0.3c0.2,0.2,0.6,0.5,1.1,0.8C26.6,17.7,26.9,17.9,27.1,18.1z"/>
		</g>
	</g>
</g>
</svg>
