<?xml version="1.0" encoding="utf-8"?>
<!-- Generator: Adobe Illustrator 20.1.0, SVG Export Plug-In . SVG Version: 6.00 Build 0)  -->
<!DOCTYPE svg PUBLIC "-//W3C//DTD SVG 1.1//EN" "http://www.w3.org/Graphics/SVG/1.1/DTD/svg11.dtd">
<svg version="1.1" id="Layer_1" xmlns="http://www.w3.org/2000/svg" xmlns:xlink="http://www.w3.org/1999/xlink" x="0px" y="0px"
	 viewBox="0 0 49 49" enable-background="new 0 0 49 49" xml:space="preserve">
<g>
	<path fill="#FFD05C" d="M42.8,6.3H6.2c-1.2,0-2.1,0.9-2.1,2.1v38c0,1.2,0.9,2.1,2.1,2.1h36.5c1.2,0,2.1-0.9,2.1-2.1v-38
		C44.8,7.2,43.9,6.3,42.8,6.3z"/>
	<path fill="#F2F2F2" d="M41.6,9.8v34.1c0,0.8-0.6,1.4-1.4,1.4H15.7L7.4,37V9.8c0-0.8,0.6-1.4,1.4-1.4h31.5
		C41,8.5,41.6,9.1,41.6,9.8z"/>
	<path fill="#CDD6E0" d="M15.7,39c0-1.2-0.9-2.1-2.1-2.1H7.4l8.3,8.3V39z"/>
	<path fill="#40596B" d="M33.2,3.5h-2.3C30.7,3,30.3,2.4,29.8,2c-0.9-0.9-2.2-1.5-3.6-1.5h-3.6c-2.1,0-3.9,1.3-4.6,3h-2.3
		c-1.1,0-2,0.9-2,2v3.9c0,1.1,0.9,2,2,2h17.4c1.1,0,2-0.9,2-2V5.5C35.2,4.4,34.3,3.5,33.2,3.5z M24.5,6c-1.1,0-2-0.9-2-2
		c0-1.1,0.9-2,2-2c1.1,0,2,0.9,2,2C26.5,5.1,25.6,6,24.5,6z"/>
	<g>
		<g>
			<path fill="#40596B" d="M31.4,33.8L28.6,31c1.1-1.1,1.7-2.5,1.7-4.1c0-0.3,0-0.6-0.1-0.9l3.9-0.6C34.7,28.6,33.7,31.5,31.4,33.8z
				"/>
		</g>
	</g>
	<g>
		<g>
			<path fill="#FFD15C" d="M34.1,25.3L30.3,26c-0.3-1.9-1.5-3.5-3.1-4.3l1.8-3.5C31.8,19.6,33.6,22.1,34.1,25.3z"/>
		</g>
	</g>
	<g>
		<g>
			<path fill="#84DBFF" d="M28.9,18.2l-1.8,3.5c-0.8-0.4-1.7-0.6-2.7-0.6c-1,0-1.9,0.2-2.7,0.6l-1.8-3.5
				C22.9,16.7,26,16.7,28.9,18.2z"/>
		</g>
	</g>
	<g>
		<g>
			<path fill="#FF7058" d="M31.4,33.8c-3.8,3.8-10,3.8-13.8,0c-3.8-3.8-3.8-10,0-13.8c0.8-0.8,1.5-1.3,2.5-1.8l1.8,3.5
				c-1.9,1-3.2,2.9-3.2,5.2c0,3.2,2.6,5.9,5.9,5.9c1.6,0,3.1-0.7,4.1-1.7L31.4,33.8z"/>
		</g>
	</g>
</g>
</svg>
