<?xml version="1.0" encoding="utf-8"?>
<!-- Generator: Adobe Illustrator 18.0.0, SVG Export Plug-In . SVG Version: 6.00 Build 0)  -->
<!DOCTYPE svg PUBLIC "-//W3C//DTD SVG 1.1//EN" "http://www.w3.org/Graphics/SVG/1.1/DTD/svg11.dtd">
<svg version="1.1" id="Layer_1" xmlns="http://www.w3.org/2000/svg" xmlns:xlink="http://www.w3.org/1999/xlink" x="0px" y="0px"
	 viewBox="0 0 512 512" enable-background="new 0 0 512 512" xml:space="preserve">
<g>
	<path fill="#FFD15C" d="M242.9,9.4l-232.8,182C5,195.3,2,201.5,2,208v278c0,11.7,9.5,21.2,21.2,21.2h465.6
		c11.7,0,21.2-9.5,21.2-21.2V208c0-6.5-3-12.7-8.1-16.7L269,9.4C261.4,3.4,250.6,3.4,242.9,9.4z"/>
	<path fill="#FF7058" d="M510,208c0,6.5-3.1,12.6-8.1,16.6l-64.1,50.2L269,406.7c-3.8,3-8.5,4.4-13.1,4.4c-4.6,0-9.1-1.5-13-4.4
		L74.3,274.9l-64.2-50.3c-5.1-4-8-10.2-8-16.6c0-6.6,3-12.7,8-16.7l64.2-50.2l103.6-81l65-50.8c7.7-6,18.4-6,26.1,0l65,50.8
		l103.7,81l64.1,50.2C506.9,195.3,510,201.5,510,208z"/>
	<path fill="#F2F2F2" d="M357.4,49.6H95.5c-11.7,0-21.2,9.5-21.2,21.2v204.1l168.6,131.8c3.9,3,8.5,4.4,13,4.4
		c4.7,0,9.3-1.5,13.1-4.4l168.7-131.9V130L357.4,49.6z"/>
	<path fill="#CDD6E0" d="M357.4,108.8c0,11.7,9.5,21.2,21.2,21.2h59.2l-80.4-80.4V108.8z"/>
	<rect x="116.6" y="91.9" fill="#84DBFF" width="112.6" height="133.5"/>
	<rect x="251.7" y="202.4" fill="#CDD6E0" width="143.7" height="23.1"/>
	<rect x="251.7" y="142.6" fill="#CDD6E0" width="143.7" height="23.1"/>
	<rect x="118.8" y="266.2" fill="#4CDBC4" width="276.6" height="23.1"/>
</g>
</svg>
