<?xml version="1.0" encoding="utf-8"?>
<!-- Generator: Adobe Illustrator 19.0.1, SVG Export Plug-In . SVG Version: 6.00 Build 0)  -->
<svg version="1.1" id="Layer_1" xmlns="http://www.w3.org/2000/svg" xmlns:xlink="http://www.w3.org/1999/xlink" x="0px" y="0px"
	 viewBox="0 0 48 48" style="enable-background:new 0 0 48 48;" xml:space="preserve">
<style type="text/css">
	.st0{fill:#66C6B9;}
	.st1{fill:#F3F3F3;}
	.st2{fill:#415A6B;}
	.st3{fill:#CED6E0;}
	.st4{fill:#F3705A;}
	.st5{fill:#E8EAE9;}
	.st6{fill:#4ABAA5;}
	.st7{fill:#F05540;}
	.st8{fill:#FFD15C;}
	.st9{fill:#55C0EB;}
	.st10{fill:#8AD7F8;}
	.st11{fill:#344A5E;}
	.st12{fill:#FFFFFF;}
	.st13{fill:#F7B64C;}
	.st14{fill:#ADB3BA;}
	.st15{fill:#38A892;}
	.st16{fill:#ED9845;}
	.st17{fill:#2D4251;}
	.st18{fill:#304556;}
	.st19{fill:#A5AAAD;}
	.st20{fill:#2D4456;}
	.st21{fill:#4FB0E0;}
	.st22{fill:#2D4354;}
	.st23{fill:#E54C38;}
	.st24{fill:#2B4456;}
	.st25{fill:#2B404F;}
</style>
<g>
	<g>
		<g>
			<g>
				<g>
					<g>
						<path class="st11" d="M43,46.8l-4.4-19.6h-2l4.5,20c0.1,0.3,0.2,0.5,0.4,0.6c0.2,0.1,0.3,0.1,0.5,0.1c0.1,0,0.1,0,0.2,0
							C42.8,47.9,43.1,47.3,43,46.8z"/>
						<path class="st11" d="M25.9,27.1l-4.4,19.7c-0.1,0.5,0.2,1,0.7,1.1c0.1,0,0.1,0,0.2,0c0.2,0,0.4,0,0.5-0.1
							c0.2-0.1,0.4-0.4,0.4-0.6l4.5-20.2H25.9z"/>
						<path class="st11" d="M31.5,27.2l-0.4,17.9c0,0.5,0.4,1,0.9,1h0c0.5,0,0.9-0.4,1-0.9l0.4-18H31.5z"/>
					</g>
				</g>
			</g>
		</g>
		<g>
			<g>
				<g>
					<polygon class="st5" points="21.7,2.8 44,3.4 43.4,28.6 21.1,27.9 					"/>
				</g>
				<g>
					<g>
						<g>
							<path class="st4" d="M45.3,2.8c0,0.3-0.1,0.6-0.4,0.8C44.7,3.9,44.4,4,44.1,4h0L21.7,3.3c-0.3,0-0.6-0.1-0.8-0.4
								c-0.2-0.2-0.3-0.5-0.3-0.9c0-0.7,0.6-1.2,1.2-1.2l22.3,0.7C44.8,1.6,45.3,2.2,45.3,2.8z"/>
							<path class="st4" d="M44.6,29.3c0,0.3-0.1,0.6-0.4,0.8c-0.2,0.2-0.5,0.3-0.8,0.3c0,0,0,0,0,0L21,29.8c-0.3,0-0.6-0.1-0.8-0.4
								c-0.2-0.2-0.3-0.5-0.3-0.9c0-0.7,0.6-1.2,1.2-1.2l22.3,0.7C44.1,28.1,44.6,28.7,44.6,29.3z"/>
						</g>
					</g>
				</g>
			</g>
			<g>
				<g>
					<g>
						<g>
							<path class="st8" d="M15,4.2c-0.1,0.4-0.4,0.7-0.6,0.7c-0.2-0.1-0.3-0.4-0.2-0.8c0.1-0.4,0.4-0.7,0.6-0.7
								C15.1,3.4,15.2,3.8,15,4.2z"/>
						</g>
						<g>
							<path class="st8" d="M10.2,4.2c0.1,0.4,0.4,0.7,0.6,0.7C11.1,4.8,11.1,4.4,11,4c-0.1-0.4-0.4-0.7-0.6-0.7
								C10.1,3.4,10.1,3.8,10.2,4.2z"/>
						</g>
					</g>
					<g>
						<path class="st8" d="M10,7.5l1.1-1c0,0-0.3-1.2-0.3-1.5c0-0.3-0.7-2.1-0.4-3c0.3-0.9,0.2-1.6,1.7-1.7s1.8,0.5,2.3,1
							c0.5,0.6,0.4,2.4,0.4,2.7c0,0.3-0.3,1.9-0.7,2.6v0.5L15.2,9l0,1.9L14.1,11l-4.8-1L10,7.5z"/>
					</g>
					<path class="st13" d="M15.2,9L14,7.2V6.7c0,0-1.6,1.4-2.9-0.2c0,0,0.9,2.3,4.2,2.9L15.2,9z"/>
					<g>
						<path class="st8" d="M22.6,14.7c0,0,1-0.4,1.1-0.5c0.2-0.1,0.3-0.3,0.6-0.4s0.7-0.4,0.9-0.4s0.5-0.1,0.6-0.1s0.9,0.3,0.9,0.3
							s0,0.4-0.3,0.4c-0.1,0-0.9-0.2-1-0.2c-0.1,0,0.3,0.1,0.3,0.1s0.8,0.1,0.9,0.1c0,0,0,0,0.1,0c0.1-0.1,0.3,0,0.3,0.2
							c0,0,0,0,0,0c0,0.1,0,0.1-0.1,0.2c-0.1,0-0.2,0.1-0.2,0.1c0,0-0.1,0-0.2,0s0,0.2,0,0.3c0,0.1-0.1,0.1-0.1,0.1
							c-0.1,0-0.2,0-0.2,0s0,0.2-0.1,0.3C26,15.3,26,15.2,26,15.2s0.1,0.3-0.4,0.5c-0.4,0.2-1.5,0.2-1.7,0.2
							c-0.2-0.1-1.1,0.5-1.1,0.5L22.6,14.7z"/>
					</g>
					<g>
						<g>
							<path class="st11" d="M11.5,47.9c0.2,0,0.3-0.1,0.4-0.2c0.1-0.1,0.1-0.5,0-0.8c-0.2-0.5-0.2-0.3-0.2-0.3l-2.7,0.1
								c0,0-0.1,0.4,0,0.7c0.1,0.3,0.4,0.4,0.7,0.4C10.2,47.8,11.1,47.9,11.5,47.9z"/>
						</g>
						<g>
							<path class="st2" d="M9.1,45c0,0-0.1,0.7-0.2,1.2s0,1,0.1,1.2c0.2,0.2,1,0.1,1.5,0.1c0.5,0,0.8,0.1,1.1,0
								c0.3,0,0.2-0.9,0-1.4s-0.5-0.9-0.5-1.4s0-0.5,0-0.5L9.1,45z"/>
						</g>
						<g>
							<g>
								<path class="st11" d="M18.1,47.2l0.3,0.2c0,0,0.1,0.1,0,0.3c0,0-0.2,0-0.5,0.2C17.5,48,17,48,16.4,48
									c-0.6-0.1-0.8-0.4-1-0.6s-0.5-0.3-0.5-0.3v0.2h-1.2c0,0-0.2-0.6,0.2-1s0.4-0.4,0.4-0.4C14.4,45.9,18.1,47.2,18.1,47.2z"/>
							</g>
							<g>
								<path class="st2" d="M16.2,44.6c0,0,0.5,0.4,0.7,0.8c0.2,0.4,0.2,0.9,0.6,1.1c0.4,0.2,0.9,0.6,0.9,0.8c0,0-0.5,0-1,0.2
									c-0.5,0.2-1.3,0.2-1.6-0.1c-0.3-0.2-0.5-0.6-1-0.7c-0.5-0.2-1,0-1.1-0.2c-0.1-0.3,0-1.4,0.3-1.8
									C14.4,44.4,16.2,44.6,16.2,44.6z"/>
							</g>
						</g>
						<g>
							<path class="st11" d="M16.6,10.4l0.8-0.7c0,0,0.3,1.2,0.3,2.1s-0.2,1.3,0,1.6c0.2,0.3,0.9,1.1,0.9,1.6c0,0.5,0.1,0.6,0.4,0.5
								c0.3-0.1,1.4-0.3,1.7-0.4c0.2-0.1,2.3-0.7,2.3-0.7s-0.1,2.1,1,2.4c0,0-3.2,1.1-3.8,1.2s-1.8,0.5-2.1,0.5
								c-0.3,0-0.9-0.1-1.2-0.5s-0.7-1.1-0.7-1.4C16.3,16.3,16.6,10.4,16.6,10.4z"/>
						</g>
						<g>
							<path class="st10" d="M16.5,20.8c0,0-2.5,1.5-5.2,1.2c-2.7-0.3-3-0.3-3-0.4c0-0.1,1.4-9.4,1.9-13.1h0.5
								c0.3,0.8,1.1,1.2,1.9,1.2c0.9,0,1.6-0.5,1.9-1.3h0.2l1.2,8L16.5,20.8z"/>
						</g>
						<g>
							<path class="st11" d="M7.8,21.5c3.5,0.8,6.6,0.8,8.7-0.7c0,0,1.1,3.2,1.1,3.7c0,0.5-0.2,0.4-0.2,1.2s0,6.2-0.1,7.2
								c-0.1,1-0.3,2.3-0.2,2.7c0.1,0.4,0.4,1.7,0.4,2.9s-0.6,5-0.7,5.4c-0.1,0.4,0.1,1.1,0.1,1.1s-1-0.3-1.5,0.2
								c-0.5,0.4-1.3,0.5-1.6,0c0,0,0-2.2,0.2-3.2s0-4.3,0-5.1c0-0.8,0-1.5-0.1-2.5c-0.1-1-0.4-3.3-0.5-3.6c-0.1-0.3-0.6-2-0.6-2
								s-0.1,1.2-0.4,2.3s-0.8,2.8-0.9,3.1c-0.1,0.4-0.4,2.9-0.4,3.8s0.3,2.2,0.4,3c0.1,0.7,0.1,3.2,0.1,3.6s0,0.6,0,0.6
								s-0.3-0.4-1-0.4c-0.7,0-1.3,0.6-1.3,0.6S8.5,44.5,8.5,44S8.1,42.9,8,41.9c-0.1-1-0.1-4.7,0-6s-0.2-4.4-0.4-6.3
								C7.5,27.8,7.2,23.4,7.8,21.5z"/>
						</g>
						<g>
							<path class="st2" d="M14,7.2c0,0,0.6,1.1,0.6,2.2c0.1,1.1,0.4,5.5,0.6,6.9c0.2,1.5,0.8,5.1,0.8,6.1c0.1,1-0.1,1.8,0.6,2.1
								c0.7,0.3,1.2,0,1.2,0s-0.7-1.5-0.8-2.4c0-0.9-0.6-4-0.6-4s0.4-4,0.7-4.9c0.2-1,0.3-3.5,0.3-3.5s-2.4-1.4-2.8-1.9
								S14,7.2,14,7.2z"/>
						</g>
						<g>
							<path class="st11" d="M7,18c-0.4,0.1-0.7,0.7-0.8,1.3C6.1,19.9,6,20.6,6,20.6s-1.6-1.7-2.1-2.2c-0.5-0.5-1-1.5-1.2-2
								c-0.1-0.4,0.3-1.6,0.6-2.1c0.3-0.5,1.3-2.7,1.8-3.8c0.5-1.1,1-2,1-2s0.5,1.3,0.6,2.4c0.1,0.6,0,1.6,0,2.3
								c0,0-0.2,0.4-0.3,0.7c-0.1,0.4-1.1,1.7-1.1,1.7s0,0.1,0.1,0.4c0.1,0.3,0.3,0.5,0.6,0.7c0.1,0.1,0.2,0.3,0.4,0.4
								C6.8,17.6,7,18,7,18z"/>
						</g>
					</g>
					<g>
						<path class="st11" d="M30.2,9.8l-5.9,5.7c-0.1,0.1-0.1,0.3,0,0.4c0.1,0.1,0.3,0.1,0.4,0l5.7-5.8C30.6,9.9,30.3,9.6,30.2,9.8z"
							/>
					</g>
					<g>
						<path class="st8" d="M25,15.7c0,0,0.1,0,0.1,0c0.3-0.2,0.6-0.4,0.8-0.7c0.2-0.2,0.3-0.5,0.4-0.8c-0.2,0-0.4,0-0.6-0.1
							c-0.1,0-0.1,0-0.2,0c-0.1,0-0.1,0-0.1,0.1c0,0.1,0,0.1,0,0.2c0,0.1,0.1,0.1,0.1,0.2c-0.1,0-0.1,0-0.2,0
							c-0.1,0-0.2,0.1-0.2,0.1c0,0.1,0,0.2,0,0.3c-0.1,0-0.3,0-0.4,0c-0.1,0.1-0.1,0.2-0.1,0.3C24.7,15.5,24.8,15.6,25,15.7z"/>
					</g>
					<g>
						<path class="st2" d="M10.6,4c0,0,0.1-1,0-1.5s0.6-1.4,1.1-1.1s1.3,0.3,1.6-0.1s1.2,0.3,1.2,1c0,0.7,0,1.4,0,1.6h0.1
							c0.1-0.2,0.4-1.1,0.3-1.6c0-0.7-0.7-2.4-2.5-2.3S10.1,1.6,10,2.5C9.9,3,10.3,3.6,10.6,4L10.6,4z"/>
					</g>
				</g>
				<g>
					<path class="st2" d="M11,6.5c0,0-0.4,1.3-0.3,2.4c0.1,1.1,0.1,6.3,0.1,6.9c0,0.6-0.7,5.7-1,6.5c-0.3,0.7-1,2.4-2.1,2.4
						S5.5,24,5.5,24s1.3-8,1.1-9.7c0,0,0.3-2.1,0.1-3.2S6.1,8.7,6.1,8.7s2.3-0.9,3.1-1S10.3,6.8,11,6.5z"/>
				</g>
			</g>
		</g>
	</g>
</g>
</svg>
