<?xml version="1.0" encoding="utf-8"?>
<!-- Generator: Adobe Illustrator 20.1.0, SVG Export Plug-In . SVG Version: 6.00 Build 0)  -->
<!DOCTYPE svg PUBLIC "-//W3C//DTD SVG 1.1//EN" "http://www.w3.org/Graphics/SVG/1.1/DTD/svg11.dtd">
<svg version="1.1" id="Layer_1" xmlns="http://www.w3.org/2000/svg" xmlns:xlink="http://www.w3.org/1999/xlink" x="0px" y="0px"
	 viewBox="0 0 49 49" enable-background="new 0 0 49 49" xml:space="preserve">
<g>
	<path fill="#40596B" d="M32.4,38.7l0.5,5.1c0.2,2.5-1.8,4.7-4.3,4.7h-8.2c-2.6,0-4.6-2.2-4.3-4.7l0.5-5.1c0.2-2.2,0.2-4.4-0.1-6.5
		c-0.1-0.7-0.2-1.3-0.3-2c-0.7-3.7-0.7-7.5-0.2-11.2c0.2-1.5,3.4-13.5,3.4-13.5h10.1c0,0,3.2,12,3.4,13.5c0.6,3.7,0.5,7.5-0.2,11.2
		c-0.1,0.7-0.2,1.3-0.3,2C32.3,34.3,32.2,36.5,32.4,38.7z"/>
	<rect x="19.4" y="4.5" fill="#334A5E" width="10.1" height="0.9"/>
	<path fill="#ACB3BA" d="M28.9,0.5h-8.8c-1,0-1.8,0.8-1.8,1.8v1.4c0,0.4,0.4,0.8,0.8,0.8h10.8c0.4,0,0.8-0.4,0.8-0.8V2.3
		C30.7,1.3,29.9,0.5,28.9,0.5z"/>
	<path fill="#FF7058" d="M32.8,30.2c-0.1,0.7-0.2,1.3-0.3,2h-16c-0.1-0.7-0.2-1.3-0.3-2c-0.7-3.7-0.7-7.5-0.2-11.2H33
		C33.5,22.7,33.5,26.4,32.8,30.2z"/>
	<ellipse fill="#FFD15C" cx="24.5" cy="25.6" rx="4" ry="5.1"/>
</g>
</svg>
