<?xml version="1.0" encoding="utf-8"?>
<!-- Generator: Adobe Illustrator 18.0.0, SVG Export Plug-In . SVG Version: 6.00 Build 0)  -->
<!DOCTYPE svg PUBLIC "-//W3C//DTD SVG 1.1//EN" "http://www.w3.org/Graphics/SVG/1.1/DTD/svg11.dtd">
<svg version="1.1" id="Layer_1" xmlns="http://www.w3.org/2000/svg" xmlns:xlink="http://www.w3.org/1999/xlink" x="0px" y="0px"
	 viewBox="0 0 512 512" enable-background="new 0 0 512 512" xml:space="preserve">
<g>
	<path fill="#CDD5DF" d="M416.8,461.8H17.3c-8,0-14.4,6.5-14.4,14.4c0,8,6.5,14.4,14.4,14.4h399.5c8,0,14.4-6.5,14.4-14.4
		C431.2,468.3,424.7,461.8,416.8,461.8z"/>
	<polygon fill="#ABB2B9" points="374.6,510 59.5,510 27.2,490.7 406.9,490.7 	"/>
	<path fill="#F2F2F2" d="M17.9,112.9v196.2c0,61.9,28.9,117,73.8,152.8h242.7c44.9-35.7,73.8-90.9,73.8-152.8V112.9H17.9z"/>
	<path fill="#CDD5DF" d="M412.2,139.1v39.2c32.4,3.1,57.7,30.4,57.7,63.6c0,33.2-25.4,60.5-57.7,63.6v3.5c0,12.2-1.2,24.2-3.3,35.8
		c55.5-1.5,100.3-47.1,100.3-103C509.1,187.1,466.2,142.3,412.2,139.1z"/>
	<path fill="#41596B" d="M128.2,99.2c-2.9,0-5.8-1.1-8-3.3c-10-10-12-20.1-11.9-26.8c0.3-15.2,10.9-25.6,12.1-26.8
		c3.3-3.3,5-6.7,5-10c0-4.9-3.7-9.5-5.1-10.9c-4.4-4.3-4.6-11.5-0.3-15.9C124.4,1,131.4,0.8,136,5c1.2,1.1,11.9,11.6,12.1,26.8
		c0.1,6.7-1.9,16.8-11.9,26.8c-1.6,1.5-5.2,6.2-5.3,11c0,3.4,1.7,6.7,5.3,10.3c4.4,4.4,4.4,11.6,0,16
		C134,98.1,131.1,99.2,128.2,99.2z"/>
	<path fill="#41596B" d="M217,99.2c-2.9,0-5.8-1.1-8-3.3c-10-10-12-20.1-11.9-26.8c0.3-15.2,10.9-25.6,12.1-26.8c3.3-3.3,5-6.7,5-10
		c0-4.9-3.7-9.5-5.1-10.9c-4.4-4.3-4.6-11.5-0.3-15.9c4.3-4.5,11.3-4.7,15.8-0.5c1.2,1.1,11.9,11.6,12.1,26.8
		c0.1,6.7-1.9,16.8-11.9,26.8c-1.6,1.5-5.2,6.2-5.3,11c0,3.4,1.7,6.7,5.3,10.3c4.4,4.4,4.4,11.6,0,16
		C222.8,98.1,219.9,99.2,217,99.2z"/>
	<path fill="#41596B" d="M305.8,99.2c-2.9,0-5.8-1.1-8-3.3c-10-10-12-20.1-11.9-26.8c0.3-15.2,10.9-25.6,12.1-26.8
		c3.3-3.3,5-6.7,5-10c0-4.9-3.7-9.5-5.1-10.9c-4.4-4.3-4.6-11.5-0.3-15.9C302,1,309,0.8,313.5,5c1.2,1.1,11.9,11.6,12.1,26.8
		c0.1,6.7-1.9,16.8-11.9,26.8c-1.6,1.5-5.2,6.2-5.3,11c0,3.4,1.7,6.7,5.3,10.3c4.4,4.4,4.4,11.6,0,16
		C311.6,98.1,308.7,99.2,305.8,99.2z"/>
</g>
</svg>
