<?xml version="1.0" encoding="utf-8"?>
<!-- Generator: Adobe Illustrator 18.0.0, SVG Export Plug-In . SVG Version: 6.00 Build 0)  -->
<!DOCTYPE svg PUBLIC "-//W3C//DTD SVG 1.1//EN" "http://www.w3.org/Graphics/SVG/1.1/DTD/svg11.dtd">
<svg version="1.1" id="Layer_1" xmlns="http://www.w3.org/2000/svg" xmlns:xlink="http://www.w3.org/1999/xlink" x="0px" y="0px"
	 viewBox="0 0 48 48" enable-background="new 0 0 48 48" xml:space="preserve">
<g>
	<g>
		<g>
			<g>
				<g>
					<path fill="#8AD6F7" d="M46.1,22.5l-1.9,1.9c-0.1,0.1-0.3,0.1-0.4,0l-3.1-3.1c-0.1-0.1-0.1-0.3,0-0.4l1.9-1.9
						c0.1-0.1,0.3-0.1,0.4,0l3.1,3.1C46.2,22.2,46.2,22.4,46.1,22.5z"/>
				</g>
			</g>
			<g>
				<g>
					
						<rect x="43.5" y="18.7" transform="matrix(0.7071 -0.7071 0.7071 0.7071 -2.1466 37.2331)" fill="#425A6B" width="0.7" height="5"/>
				</g>
			</g>
			<g>
				<g>
					<g>
						
							<rect x="41.6" y="21" transform="matrix(0.7073 -0.707 0.707 0.7073 -2.9791 35.7961)" fill="#425A6B" width="0.3" height="0.9"/>
					</g>
				</g>
				<g>
					<g>
						
							<rect x="42.5" y="21.9" transform="matrix(0.7071 -0.7071 0.7071 0.7071 -3.3591 36.7308)" fill="#425A6B" width="0.3" height="0.9"/>
					</g>
				</g>
				<g>
					<g>
						
							<rect x="43.4" y="22.9" transform="matrix(0.7071 -0.7071 0.7071 0.7071 -3.7423 37.6559)" fill="#425A6B" width="0.3" height="0.9"/>
					</g>
				</g>
			</g>
		</g>
		<g>
			<g>
				<polygon fill="#425A6B" points="34.6,16.5 35.5,12.5 36.7,13.2 37,24.9 33.7,22.5 				"/>
			</g>
		</g>
		<g>
			<ellipse fill="#425A6B" cx="31.1" cy="21.9" rx="3.9" ry="2.7"/>
		</g>
		<g>
			<g>
				<path fill="#FFD15C" d="M36.2,13.9c0,0,0.5,4.1-1.6,7c0,0-0.4,1.5,1.7,2.8c2.1,1.3,2.1,1.3,2.1,1.3l-7.9,5.7l-4-1.2l0.7-6.2
					l1.1-0.7l0.8-0.4c0.3-0.1,0.3-0.5,0.1-0.7c-0.5-0.5-1.3-1.5-1.6-2.4c-0.4-1.2-0.4-1.2-0.4-1.2s0.1-3.7,0.7-5.2s1.4-2.5,3.2-2.5
					C33,10.1,35.9,12.5,36.2,13.9z"/>
			</g>
		</g>
		<g>
			<g>
				<path fill="#F05640" d="M38.5,25l1.4-0.5c0,0,1.9,1,2.4,1.8c0.4,0.8,1.6,5.6,1.6,5.6s-3.5,0.4-4.1,1.6L39.5,33l-1.6-2L38.5,25z"
					/>
			</g>
		</g>
		<g>
			<g>
				<path fill="#FFD15C" d="M42.5,25c0,0,0.2-0.2,0.2-0.3c0-0.1,0-0.2,0.2-0.7c0.2-0.4,0.6-0.8,0.8-0.9c0.2-0.1,0.7-0.4,0.7-0.4
					s0.4-0.2,0.6,0c0.2,0.1,0.3,0.7,0.3,1c0.1,0.3,0.1,0.9,0.1,0.9s0.5,0.3,0.6,0.5c0.2,0.1,0.3,0.4,0.3,0.6c0,0,0.3,0.2,0.4,0.5
					s-0.1,0.4,0,0.5c0.1,0.1,0.2,0.3,0,0.7c-0.2,0.3-0.7,0.9-0.9,1.3c-0.2,0.4-0.5,0.7-0.6,0.9c-0.1,0.2,0,0.9,0,1.5
					c0,0.6,1.1,5.4,1.3,6.4s0.1,3.9,0,4.4c-0.1,0.5-0.7,1.4-1.3,1.5c-0.7,0.2-1.3,0-1.8-0.5c-0.5-0.5-0.6-0.7-1.1-1.5
					s-2.1-5.8-2.6-7.8c0.7-0.9,1.9-1.3,3.4-1.4c0,0-0.2-1.1-0.4-1.7c-0.2-0.6-0.2-0.8-0.3-1.2c-0.2-0.5-0.6-1-0.5-1.5
					c0-0.4,0.4-1.4,0.5-1.9C42.4,25.1,42.5,25,42.5,25z"/>
			</g>
		</g>
		<g>
			<g>
				<path fill="#F26F5A" d="M22.8,22.1c0,0,1.6,0.8,2.4,1c0.8,0.2,1.4-0.2,2.4-0.4c0.9-0.2,0.9-0.2,0.9-0.2s-1.9,4.4-0.7,5.8
					c1.2,1.3,4.8,0.3,5.8-0.7c1-1,2.7-3.6,2.8-3.9c0,0,2.4,0.4,3.5,0.8c0,0-1.2,5.6-0.3,8.5c0,0-1.6,3.2-2.2,5.2
					c-0.6,2-0.7,3.8-0.6,4.8c0.2,1,1.4,5,1.4,5H22c0,0,1.3-5.2,1.5-8.3c0.1-3.1-0.2-7.4-0.2-8.1c0-0.7,0.4-1.6,0.2-2.5
					c-0.2-0.9-7.3-3.6-7.3-3.6S18.8,20.1,22.8,22.1z"/>
			</g>
		</g>
		<g>
			<g>
				<g>
					<path fill="#FFD15C" d="M13.3,0.2c0,0,0.3-0.3,0.5-0.1c0.3,0.1,0.5,0.5,0.5,0.5s0.1-0.1,0.2,0l0.2,0.8c0,0,0.2,0.1,0.2,0.4
						c0,0.3,0.2,1.4,0.2,1.4S15,4.2,14.9,4.6c-0.1,0.3-0.5,3.2-0.5,3.2l-2.4-0.3c0,0,0.2-1.6,0.2-1.8c0-0.2-0.3-0.7-0.6-1.2
						c-0.4-0.5-0.8-1.1-1-1.9c-0.2-0.8,0.2-0.7,0.4-0.8c0.1-0.1,0.3-0.4,0.3-0.6c0.1-0.2,0.1-0.2,0.4-0.3C11.8,0.7,12,0.7,12,0.4
						c0.1-0.3,0.3-0.4,0.5-0.3C12.7,0.2,13,0.4,13.3,0.2z"/>
				</g>
			</g>
			<g>
				<g>
					<g>
						<g>
							<path fill="#67C5B8" d="M11.5,3.9C11.5,3.9,11.6,3.9,11.5,3.9c-0.8,2.3-1.9,6.7-1.9,6.8l-0.3-0.1c0.1-0.2,1.2-4.6,2.1-6.8
								C11.4,3.8,11.5,3.8,11.5,3.9z"/>
						</g>
						<g>
							<path fill="#67C5B8" d="M17.6,10.6l-0.3,0c0-0.1-1.2-7.5-2.3-8.6C15,2,15,2,15,1.9c0,0,0,0,0-0.1c0-0.1,0-0.1,0-0.1
								c0-0.1,0-0.1,0-0.2c0.1,0.1,0.2,0.2,0.4,0.3C16.4,3,17.6,10.3,17.6,10.6z"/>
						</g>
					</g>
				</g>
				<g>
					<g>
						<g>
							<polygon fill="#344A5E" points="2.9,31.9 6,33.6 23,32.2 20,29.5 							"/>
						</g>
					</g>
					<g>
						<g>
							<polygon fill="#48B9A5" points="21.1,30.6 20.4,30.9 2.9,31.9 3.5,28.5 4.4,10.3 21.5,8.8 							"/>
						</g>
					</g>
					<g>
						<g>
							<polygon fill="#48B9A5" points="21.3,30.7 23,32.2 22.5,9.5 21.5,9.7 20.8,29.7 							"/>
						</g>
					</g>
					<g>
						<g>
							<polygon fill="#67C5B8" points="21.5,8.8 20.4,30.9 23,32.2 21.1,29 21.7,8.8 							"/>
						</g>
					</g>
				</g>
			</g>
			<g>
				<g>
					<g>
						<g>
							<path fill="#CED6E0" d="M11.3,3.7c0.1,0.1,0.1,0.1,0.2,0.2c-0.9,1.7-1.9,4-1.9,4L9.3,7.8C9.4,7.7,10.4,5.3,11.3,3.7z"/>
						</g>
						<g>
							<path fill="#CED6E0" d="M16.5,8.7l-0.3,0c-0.1-1.6-0.4-5.9-1.1-6.7C15.1,2,15,1.9,14.9,1.9c0-0.1,0-0.1,0-0.1
								c0-0.1,0-0.2,0-0.2c0.2,0.1,0.3,0.2,0.4,0.4C16.2,2.9,16.5,8.5,16.5,8.7z"/>
						</g>
					</g>
				</g>
				<g>
					<g>
						<g>
							<polygon fill="#E8EAE8" points="1.2,25.2 3.7,27.1 18.4,27.9 16.2,25.2 							"/>
						</g>
					</g>
					<g>
						<g>
							<polygon fill="#F3F3F3" points="17,26.3 16.4,26.5 1.2,25.2 2.1,22.4 5.2,6.8 20,7.7 							"/>
						</g>
					</g>
					<g>
						<g>
							<polygon fill="#E8EAE8" points="17.2,26.5 18.4,27.9 20.8,8.4 19.9,8.4 16.9,25.5 							"/>
						</g>
					</g>
					<g>
						<g>
							<polygon fill="#CED6E0" points="20,7.7 16.4,26.5 18.4,27.9 17.2,24.9 20.2,7.7 							"/>
						</g>
					</g>
				</g>
			</g>
			<g>
				<g>
					<g>
						<g>
							<path fill="#F5B54C" d="M10.4,2.7c0.2,0.2,0.4,0.4,0.5,0.6l0.3,0.3c0.1,0.1,0.2,0.2,0.3,0.3c0,0,0.1,0.1,0.2,0.1
								C11.7,4,11.8,4,11.8,4c0.1,0.1,0.2,0.1,0.4,0.1c0,0,0.1,0,0.1,0c0,0,0,0,0,0c0,0,0,0,0,0c0.1,0,0.1,0,0.2-0.1
								c0.1-0.1,0.2-0.2,0.2-0.3c0,0,0.2,0,0.2,0c0.1,0,0.1-0.1,0.1-0.1l0.1,0l0,0l0,0l0,0c0,0,0,0,0,0c0,0,0,0,0,0c0,0,0,0,0.1,0
								c0,0,0,0,0.1,0h0l0,0l0,0c0,0,0,0,0,0l0,0l0,0c0,0,0,0,0,0c0,0,0,0,0,0c0,0,0,0,0,0c0,0,0,0,0,0c0,0,0,0,0-0.1l0,0l0,0l0,0
								l0,0l0-0.1l0.1,0.1c0,0,0.1,0.1,0.2,0.1c0.1,0,0.1,0,0.2-0.1l0,0l0,0c0,0,0,0,0,0c0,0,0,0,0,0c0,0,0-0.1,0.1-0.1
								c0-0.1,0-0.1,0-0.2c0-0.1,0-0.1,0-0.2c0-0.1-0.1-0.1-0.1-0.2c-0.1-0.1-0.2-0.2-0.3-0.4c0-0.1-0.1-0.1-0.1-0.2l0,0l0,0l0-0.1
								c0,0,0-0.1,0-0.1c0-0.1,0-0.2,0-0.2l0-0.1c0,0,0,0,0-0.1c0,0,0-0.1,0-0.1c0,0,0-0.1,0-0.1c0,0,0-0.1,0-0.1c0,0,0-0.1,0-0.1
								c0,0,0-0.1,0.1-0.1l0-0.1c0,0,0,0,0,0c0,0,0,0,0,0l0,0c0,0,0.1-0.1,0.1-0.1c0,0,0.1,0,0.1-0.1c0,0-0.1,0-0.1,0.1
								c0,0-0.1,0.1-0.1,0.1l0,0c0,0,0,0,0,0c0,0,0,0,0,0l0,0.1c0,0,0,0.1,0,0.1c0,0,0,0.1,0,0.1c0,0,0,0.1,0,0.1c0,0,0,0.1,0,0.1
								c0,0,0,0.1,0,0.1c0,0,0,0,0,0.1l0,0.1c0,0.1,0,0.1,0,0.2c0,0,0,0.1,0,0.1l0,0.1l0,0l0,0c0,0.1,0.1,0.1,0.1,0.2
								c0.1,0.1,0.2,0.2,0.3,0.4c0,0.1,0.1,0.1,0.1,0.2c0,0,0,0,0,0.1c0,0,0,0,0,0.1c0,0,0,0.1,0,0.1c0,0.1,0,0.2,0,0.2
								c0,0,0,0.1-0.1,0.1c0,0,0,0,0,0c0,0,0,0,0,0l0,0l0,0c-0.1,0-0.2,0.1-0.2,0.1c-0.1,0-0.2,0-0.2-0.1l0.1,0l0,0l0,0l0,0l0,0
								c0,0,0,0,0,0.1c0,0,0,0,0,0.1c0,0,0,0,0,0.1c0,0,0,0,0,0l0,0l0,0l0,0l0,0l0,0l0,0l0,0l0,0c0,0,0,0-0.1,0c0,0,0,0-0.1,0
								c0,0,0,0-0.1,0c0,0,0,0-0.1,0l0,0l0,0l0,0l0,0l0.1,0c-0.1,0.1-0.1,0.1-0.2,0.1c-0.1,0-0.1,0-0.2,0l0,0c0,0.1-0.1,0.3-0.2,0.3
								c-0.1,0-0.1,0.1-0.2,0.1c0,0,0,0-0.1,0c0,0,0,0,0,0c0,0-0.1,0-0.1,0c-0.1,0-0.3,0-0.4-0.1c-0.1,0-0.1-0.1-0.2-0.1
								c-0.1,0-0.1-0.1-0.2-0.1c-0.1-0.1-0.2-0.2-0.3-0.3c-0.1-0.1-0.2-0.2-0.3-0.3C10.7,3.1,10.6,2.9,10.4,2.7z"/>
						</g>
					</g>
					<g>
						<g>
							<path fill="#F5B54C" d="M13.8,3.4c0,0,0,0-0.1-0.1c0-0.1-0.1-0.2-0.2-0.3c0,0,0-0.1-0.1-0.1l0,0l0,0l0,0c0,0,0,0,0-0.1
								c0-0.1-0.1-0.2-0.1-0.2c0-0.1-0.1-0.2-0.1-0.3c0-0.1,0-0.2-0.1-0.3c0-0.1-0.1-0.2-0.1-0.3C13,1.8,13,1.7,13,1.6
								c0-0.1,0-0.2,0-0.3c0-0.1,0-0.2,0-0.2c0-0.1,0-0.3,0.1-0.3c0-0.1,0-0.1,0-0.1s0,0,0,0.1c0,0.1,0,0.2,0,0.3c0,0.1,0,0.1,0,0.2
								c0,0.1,0,0.2,0.1,0.2c0,0.1,0.1,0.2,0.1,0.3c0,0.1,0.1,0.2,0.1,0.3c0,0.1,0.1,0.2,0.1,0.3c0,0.1,0,0.2,0.1,0.3
								c0,0.1,0.1,0.2,0.1,0.2c0,0,0,0,0,0l0,0c0,0,0,0,0,0l0,0c0,0,0,0.1,0.1,0.1c0.1,0.1,0.1,0.2,0.2,0.3
								C13.8,3.4,13.8,3.4,13.8,3.4z"/>
						</g>
					</g>
					<g>
						<g>
							<path fill="#F5B54C" d="M13.2,3.6C13.2,3.6,13.1,3.6,13.2,3.6c-0.2-0.1-0.2-0.2-0.3-0.2c0,0-0.1-0.1-0.1-0.2
								c0-0.1-0.1-0.1-0.1-0.2c0-0.1-0.1-0.1-0.1-0.2c0-0.1-0.1-0.1-0.1-0.2c0-0.1-0.1-0.1-0.1-0.2c0,0,0-0.1,0-0.1c0,0,0,0,0,0
								c0,0,0,0,0,0l0,0l0,0c-0.1-0.1-0.1-0.1-0.1-0.2c0-0.1-0.1-0.1-0.1-0.2c0-0.1,0-0.1,0-0.2c0,0,0-0.1,0-0.1c0,0,0-0.1,0-0.1
								c0,0,0,0,0,0s0,0,0,0c0,0,0,0,0,0.1c0,0,0,0,0,0.1c0,0,0,0,0,0.1c0,0,0,0.1,0,0.2c0,0.1,0,0.1,0.1,0.2c0,0.1,0.1,0.1,0.1,0.2
								c0,0,0,0,0,0l0,0c0,0,0,0,0,0c0,0,0,0,0,0.1c0,0,0,0.1,0,0.1c0,0.1,0.1,0.1,0.1,0.2c0.1,0.1,0.1,0.3,0.2,0.4
								c0,0.1,0.1,0.1,0.1,0.2c0,0.1,0.1,0.1,0.1,0.2C12.9,3.5,13,3.5,13.2,3.6C13.1,3.6,13.2,3.6,13.2,3.6z"/>
						</g>
					</g>
				</g>
				<g>
					<g>
						<path fill="#F5B54C" d="M12.8,3.7C12.8,3.7,12.8,3.7,12.8,3.7C12.7,3.7,12.7,3.7,12.8,3.7c-0.2-0.1-0.2-0.1-0.3-0.2
							c0,0-0.1,0-0.1,0c0,0-0.1,0-0.1-0.1c-0.1,0-0.1-0.1-0.2-0.1c-0.1,0-0.1-0.1-0.2-0.1c-0.1,0-0.1-0.1-0.2-0.2
							C11.7,3,11.7,3,11.6,2.9c0-0.1-0.1-0.1-0.1-0.2l0,0l0,0c0,0,0,0,0,0c0,0,0-0.1,0-0.1c0-0.1,0-0.1,0-0.2
							C11.3,2.1,11.3,2,11.3,2s0.1,0.1,0.1,0.4c0,0.1,0,0.1,0.1,0.2c0,0,0,0.1,0,0.1c0,0,0,0,0,0l0,0l0,0c0,0.1,0.1,0.1,0.1,0.2
							c0,0.1,0.1,0.1,0.2,0.2c0.1,0.1,0.1,0.1,0.2,0.2c0.1,0,0.1,0.1,0.2,0.1c0.1,0,0.1,0.1,0.2,0.1c0.1,0,0.1,0.1,0.1,0.1
							C12.6,3.6,12.6,3.7,12.8,3.7C12.7,3.7,12.7,3.7,12.8,3.7C12.8,3.7,12.8,3.7,12.8,3.7z"/>
					</g>
				</g>
			</g>
			<g>
				<g>
					<path fill="#F3F3F3" d="M14.8,1.3L14.8,1.3l-0.2-0.8C14.5,0.6,14.2,1.4,14.8,1.3z"/>
				</g>
			</g>
		</g>
		<g>
			<g>
				<g>
					<path fill="#425A6B" d="M30.4,11.3c0,0-1,3.2-2.3,3.6c0,0,1.3,0.1,1.7-0.1c0.5-0.3,1.3,0.5,2.3,0.5c1,0,2.6-1.6,2.8-2.7
						c0,0,0.8,0.9,1,2c0.2,1.1,0.6,2.7,0.6,3.4c0,0.8-0.6,5.2-0.3,6.5c0.3,1.4,0.7,1.7,1.3,2.1c0,0-0.3-0.4,0.1-1.3
						c0.4-0.9,1.1-0.6,1.2-2.4c0.2-1.8-0.6-8.1-1-9.8c-0.5-1.7-2-4.4-4.9-4.6c-2.9-0.2-4.2,1.7-4.8,2.7c-0.6,1.1-1.4,5.2-1.4,6.6
						c0,1.4-0.7,6.3-1.4,7.8c-0.6,1.6-0.9,2.9-1,3.7c-0.3,2.1,1,2.8,0.7,5.8c0,0,2-4.6,2.2-6.7c0,0,0,0.6,0.4,1.8s-0.2,2.6-0.2,2.6
						s0.9-1,1.1-2.2c0.2-1.2,0.2-2,0.6-2.8c0.5-0.8,1.4-1.9,1.3-3c-0.1-1.1-0.1-2.3-1.4-3.7c-0.5-0.7-1.2-2.6-1.3-4.5
						c-0.1-1.9,0.4-3.6,1-4.3C29.4,11.5,30.4,11.3,30.4,11.3z"/>
				</g>
			</g>
		</g>
		<g>
			<g>
				<path fill="#425A6B" d="M29.4,21.9c0,0,0.1,0.1,0.2,0.4c0.1,0.1,0.2,0.2,0.3,0.4c0.1,0.2,0.2,0.3,0.3,0.5
					c0.1,0.2,0.2,0.4,0.3,0.7c0,0.1,0,0.1,0.1,0.2l0,0l0,0l0,0c0,0,0,0.1,0,0.1c0,0.1,0,0.1,0.1,0.2c0,0.1,0,0.1,0,0.2
					c0.1,0.3,0.1,0.6,0.1,0.9c0,0.2,0,0.3-0.1,0.5c0,0.2-0.1,0.3-0.1,0.5c-0.1,0.3-0.3,0.6-0.5,0.8c-0.2,0.2-0.4,0.5-0.6,0.7
					c0,0.1-0.1,0.1-0.1,0.2l0,0l0,0l0,0l0,0c0,0,0,0.1-0.1,0.1c0,0.1-0.1,0.1-0.1,0.2c0,0.1-0.1,0.1-0.1,0.2
					c-0.1,0.2-0.2,0.5-0.2,0.7c-0.1,0.2-0.1,0.4-0.1,0.6c0,0,0,0.1,0,0.1c0,0,0,0.1,0,0.1c0,0,0,0.1,0,0.1c0,0,0,0.1,0,0.1
					c0,0.1,0,0.1,0,0.2c0,0.1,0,0.1,0,0.1c0,0.1,0,0.1,0,0.1s0,0,0-0.1c0,0,0-0.1,0-0.1c0-0.1,0-0.1,0-0.2c0,0,0-0.1,0-0.1
					c0,0,0-0.1,0-0.1c0,0,0-0.1,0-0.1c0,0,0-0.1,0-0.1c0-0.2,0-0.4,0.1-0.6c0-0.2,0.1-0.5,0.2-0.7c0-0.1,0.1-0.1,0.1-0.2
					c0-0.1,0.1-0.1,0.1-0.2c0,0,0-0.1,0.1-0.1l0,0l0,0l0,0l0,0c0-0.1,0.1-0.1,0.1-0.2c0.2-0.2,0.4-0.5,0.5-0.7
					c0.2-0.2,0.3-0.5,0.4-0.8c0-0.1,0.1-0.3,0.1-0.4c0-0.1,0-0.3,0-0.4c0-0.3,0-0.6-0.1-0.8c0-0.1,0-0.1-0.1-0.2
					c0-0.1,0-0.1-0.1-0.2c0,0,0-0.1,0-0.1l0,0l0,0l0,0c0-0.1,0-0.1-0.1-0.2c-0.1-0.2-0.2-0.4-0.3-0.6c-0.2-0.4-0.4-0.7-0.6-0.9
					c-0.2-0.2-0.2-0.3-0.2-0.3L29.4,21.9z"/>
			</g>
		</g>
		<g>
			<g>
				<path fill="#425A6B" d="M29.7,26.4C29.7,26.4,29.7,26.4,29.7,26.4c0,0.1,0,0.1,0,0.1c0,0,0,0.1,0,0.1c0,0.1,0,0.2,0,0.3
					c0,0.1,0,0.2,0,0.3c0,0.2,0,0.5,0,0.8c0,0.1,0,0.2,0,0.2c0,0,0,0.1,0,0.1c0,0,0,0.1,0,0.1c0,0.1,0,0.2,0,0.2c0,0.1,0,0.2,0,0.3
					c0,0.2,0,0.3-0.1,0.5c0,0.2-0.1,0.3-0.1,0.5c0,0.1,0,0.1-0.1,0.2c0,0.1,0,0.1-0.1,0.2c0,0.1,0,0.1-0.1,0.2c0,0.1,0,0.1-0.1,0.2
					c0,0.1-0.1,0.2-0.1,0.3c0,0.1-0.1,0.2-0.1,0.2c0,0.1-0.1,0.1-0.1,0.1c0,0,0,0.1,0,0.1s0,0,0-0.1c0,0,0-0.1,0.1-0.2
					c0-0.1,0.1-0.1,0.1-0.2c0-0.1,0.1-0.2,0.1-0.3c0-0.1,0-0.1,0.1-0.2c0-0.1,0-0.1,0.1-0.2c0-0.1,0-0.1,0-0.2c0-0.1,0-0.1,0-0.2
					c0-0.2,0-0.3,0.1-0.5c0-0.2,0-0.3,0-0.5c0-0.1,0-0.2,0-0.2c0-0.1,0-0.2,0-0.2c0,0,0-0.1,0-0.1c0,0,0-0.1,0-0.1
					c0-0.1,0-0.2,0-0.2c0-0.3-0.1-0.6-0.1-0.8c0-0.1,0-0.2,0-0.3c0-0.1,0-0.2,0-0.3c0,0,0-0.1,0-0.1c0,0,0-0.1,0-0.1
					c0,0,0-0.1,0-0.1L29.7,26.4z"/>
			</g>
		</g>
		<g>
			<g>
				<path fill="#F5B54C" d="M42.8,24.5C42.8,24.5,42.8,24.6,42.8,24.5C42.8,24.6,42.8,24.6,42.8,24.5c0,0.1,0,0.1,0,0.1c0,0,0,0,0,0
					c0,0,0,0,0,0l0,0l0,0c0,0,0,0,0,0c0,0,0,0,0,0l0,0l0,0c0,0,0,0,0,0l0,0c0,0,0,0,0,0l0.1,0c0,0,0,0,0,0c0,0,0,0,0,0
					c-0.1,0.2-0.2,0.4-0.3,0.7c0,0.1-0.1,0.2-0.1,0.3c0,0,0,0.1,0,0.1c0,0,0,0.1,0,0.1c0,0.1,0,0.1,0,0.2l0,0l-0.1,0.8l0,0
					c0,0,0,0,0.1,0c0,0,0,0,0.1,0c0,0,0,0,0,0c0,0,0,0,0,0c0,0,0,0,0,0c0,0,0,0,0,0c0,0,0,0,0,0c0,0,0,0,0,0c0,0,0,0,0,0l0,0
					c0,0,0,0,0,0l0,0c0,0,0,0,0.1,0l0,0c0,0,0,0,0,0c0,0,0,0,0,0l-0.1,0.9l0,0c0,0,0.1,0,0.1,0c0,0,0.1,0,0.1,0c0,0,0.1,0,0.1,0
					c0,0,0.1,0,0.1,0c0,0,0.1,0,0.1,0c0,0,0.1,0,0.1-0.1c0,0,0,0,0.1-0.1c0,0,0,0,0.1-0.1c0,0,0-0.1,0.1-0.1c0,0,0-0.1,0-0.1
					c0,0,0-0.1,0-0.1c0,0,0-0.1,0-0.1c0,0,0-0.1,0-0.1c0,0,0-0.1,0-0.1c0,0,0-0.1,0-0.1l0-0.1l0,0c0,0,0,0,0,0c0,0,0,0,0,0
					c0,0,0,0.1,0,0.1c0,0,0,0.1,0,0.1c0,0,0,0,0,0l0,0c0,0,0,0,0,0.1c0,0,0,0.1,0.1,0.1c0.1,0.1,0.2,0.3,0.2,0.4l0,0c0,0,0,0,0.1,0
					c0,0,0,0,0.1,0c0,0,0,0,0.1,0c0,0,0,0,0,0c0,0,0,0,0,0c0,0,0,0,0,0c0,0,0,0,0,0l0,0c0,0,0,0,0-0.1c0,0,0,0,0-0.1c0,0,0,0,0-0.1
					l0-0.1c0,0,0,0,0-0.1l0-0.1l0-0.1l0,0c0,0,0,0,0,0c0,0,0-0.1,0-0.1c0,0,0-0.1,0-0.1c0-0.1,0-0.1,0-0.2c0,0,0,0,0,0c0,0,0,0,0,0
					c0,0,0,0,0,0.1c0,0,0,0,0,0.1c0,0,0,0,0.1,0.1c0,0,0,0,0.1,0c0,0,0,0,0,0c0,0,0,0,0,0l0,0c0,0,0,0,0,0c0,0,0,0,0,0l0,0
					c0,0,0,0,0.1,0l0,0c-0.1,0-0.2-0.1-0.3-0.1c0,0-0.1,0-0.1,0c0,0,0,0,0,0c0,0,0,0,0,0c0,0,0,0.1,0,0.1c0,0,0,0.1,0,0.1
					c0,0.1,0.1,0.2,0.1,0.3c0,0,0,0,0,0.1c0,0,0,0,0.1,0.1l0,0l0,0c0,0,0,0,0.1,0c0,0,0,0-0.1,0l0,0l0,0c0,0,0,0-0.1-0.1
					c0,0,0,0,0-0.1c-0.1-0.1-0.1-0.2-0.1-0.3c0,0,0-0.1,0-0.1c0,0,0-0.1,0-0.1c0,0,0,0,0,0c0,0,0,0,0,0c0,0,0.1,0,0.1,0
					c0.1,0,0.1,0,0.2,0c0.1,0,0.1,0,0.2,0l0,0c0,0,0,0,0,0c0,0,0,0,0,0c0,0,0,0-0.1,0l0,0c0,0,0,0,0,0c0,0,0,0,0,0l0,0c0,0,0,0,0,0
					c0,0,0,0,0,0c0,0,0,0-0.1-0.1c0,0,0,0-0.1-0.1c0,0,0,0,0-0.1c0,0,0,0,0-0.1l0,0c0,0.1,0,0.2,0,0.2c0,0,0,0.1,0,0.1
					c0,0,0,0.1,0,0.1l0,0l0,0.1l0,0.1c0,0,0,0,0,0.1l0,0.1c0,0,0,0,0,0.1c0,0,0,0,0,0.1c0,0,0,0,0,0.1l0,0.1c0,0,0,0,0,0.1
					c0,0,0,0,0,0c0,0,0,0-0.1,0c0,0,0,0-0.1,0c0,0,0,0-0.1,0c0,0,0,0-0.1,0c0,0,0,0-0.1,0c0,0,0,0,0,0l0,0c-0.1-0.1-0.1-0.3-0.2-0.4
					c0,0,0-0.1-0.1-0.1c0,0,0,0,0,0l0,0c0,0,0,0,0,0l0,0l0,0c0,0,0,0,0,0c0,0,0-0.1-0.1-0.1c0,0,0-0.1,0-0.1l0.1,0l0,0.1
					c0,0,0,0.1,0,0.1c0,0,0,0.1,0,0.1c0,0,0,0.1,0,0.1c0,0,0,0.1,0,0.1c0,0,0,0.1,0,0.1c0,0,0,0.1-0.1,0.1c0,0,0,0.1-0.1,0.1
					c0,0,0,0.1-0.1,0.1c0,0,0,0-0.1,0.1c0,0-0.1,0-0.1,0.1c0,0-0.1,0-0.1,0c0,0-0.1,0-0.1,0c0,0-0.1,0-0.1,0c0,0-0.1,0-0.1,0
					c0,0-0.1,0-0.1,0c0,0,0,0,0,0l0,0l0.1-0.9l0,0c0,0,0,0-0.1,0.1l0,0c0,0,0,0,0,0l0,0c0,0,0,0,0,0c0,0,0,0,0,0c0,0,0,0,0,0
					c0,0,0,0,0,0c0,0,0,0,0,0c0,0,0,0,0,0c0,0,0,0,0,0c0,0,0,0-0.1,0c0,0,0,0-0.1-0.1c0,0,0,0,0,0v0l0.1-0.8l0,0c0-0.1,0-0.1,0-0.2
					c0,0,0-0.1,0-0.1c0,0,0-0.1,0-0.1c0-0.1,0.1-0.2,0.1-0.3c0.1-0.2,0.2-0.4,0.3-0.7l0,0l-0.1,0c0,0,0,0,0,0l0,0c0,0,0,0,0,0l0,0
					l0,0c0,0,0,0,0,0c0,0,0,0,0,0l0,0l0,0c0,0,0,0,0,0c0,0,0,0,0,0C42.8,24.6,42.8,24.6,42.8,24.5C42.8,24.6,42.8,24.6,42.8,24.5
					C42.8,24.6,42.8,24.5,42.8,24.5z"/>
			</g>
		</g>
		<g>
			<g>
				<g>
					<path fill="#F5B54C" d="M44.3,27.5c0,0,0-0.1,0-0.1l0-0.1l-0.1-0.2L44,26.7c0,0,0,0,0,0l0,0c0,0,0-0.1,0-0.1c0,0,0,0,0-0.1
						c0,0,0-0.1,0-0.1c0-0.1,0.1-0.2,0.1-0.3c0-0.1,0.1-0.2,0.1-0.3c0-0.1,0.1-0.2,0.1-0.3l0,0c0,0,0,0,0-0.1c0,0,0,0,0-0.1
						c0,0,0.1-0.1,0.1-0.1c0,0,0.1,0,0.1,0c0,0,0.1,0,0.1,0c0.1,0,0.2,0,0.2,0.1c0,0,0.1,0,0.1,0.1l0.1,0.1l0.4,0.3
						c0.1,0,0.1,0.1,0.2,0.1l0.1,0.1c0,0,0.1,0,0.1,0.1C46.1,26,46.1,26,46,26c-0.1,0-0.2-0.1-0.2-0.1c-0.1-0.1-0.3-0.2-0.4-0.2
						l-0.2-0.1c-0.1,0-0.1-0.1-0.2-0.1c0,0-0.1,0-0.1,0c0,0-0.1,0-0.1,0c0,0-0.1,0-0.1,0.1c0,0,0,0,0,0c0,0,0,0,0,0l0,0l0,0
						c-0.1,0.2-0.2,0.4-0.2,0.6c0,0.1-0.1,0.2-0.1,0.3c0,0,0,0.1,0,0.1c0,0,0,0,0,0.1c0,0,0,0,0,0.1l0,0l0.1,0.2c0,0.1,0,0.1,0,0.2
						l0,0.2c0,0,0,0.1,0,0.1C44.3,27.5,44.3,27.5,44.3,27.5z"/>
				</g>
			</g>
			<g>
				<g>
					<path fill="#F5B54C" d="M43.2,26.8c0-0.2,0.1-0.3,0.1-0.5c0-0.1,0-0.2,0.1-0.3c0-0.1,0-0.2,0.1-0.2c0,0,0-0.1,0-0.1l0-0.1
						l0.1-0.2c0.1-0.2,0.1-0.3,0.2-0.5l0,0c0,0,0-0.1,0-0.1c0,0,0,0,0-0.1c0,0,0.1-0.1,0.1-0.1l0,0l0,0c0,0,0.1,0,0.1,0
						c0.1,0,0.1,0,0.1,0l0,0l0,0c0,0,0,0,0.1,0c0,0,0.1,0,0.1,0l0.1,0l0.1,0c0,0,0.1,0,0.1,0.1c0,0,0.1,0,0.1,0.1c0,0,0.1,0,0.1,0.1
						c0.1,0,0.2,0.1,0.2,0.1c0.2,0.1,0.3,0.2,0.5,0.3l-0.1,0l-0.1,0c0,0-0.1,0-0.1-0.1c-0.1,0-0.2-0.1-0.3-0.1
						c-0.2-0.1-0.3-0.2-0.5-0.3c0,0-0.1,0-0.1-0.1l-0.1,0l-0.1,0c0,0-0.1,0-0.1,0l-0.1,0c0,0,0,0-0.1,0c0,0-0.1,0-0.1,0
						c0,0,0,0-0.1,0l0,0l0,0c0,0-0.1,0-0.1,0.1c0,0,0,0,0,0.1c0,0,0,0,0,0.1l0,0c0,0,0,0,0,0c-0.1,0.2-0.1,0.3-0.2,0.5l-0.1,0.2
						l-0.1,0.1c0,0,0,0.1,0,0.1c0,0.1-0.1,0.2-0.1,0.2c0,0.1-0.1,0.2-0.1,0.2C43.3,26.5,43.2,26.7,43.2,26.8z"/>
				</g>
			</g>
			<g>
				<g>
					<path fill="#F5B54C" d="M43.2,24.7c0,0,0,0,0.1-0.1c0-0.1,0.1-0.2,0.1-0.3c0-0.1,0.1-0.1,0.1-0.2c0-0.1,0.1-0.1,0.1-0.2
						c0,0,0-0.1,0.1-0.1c0,0,0.1-0.1,0.1-0.1c0,0,0.1,0,0.2,0c0.1,0,0.1,0,0.1,0c0,0,0.1,0,0.1,0.1c0,0,0.1,0,0.1,0.1
						c0.1,0,0.2,0.1,0.2,0.1c0.1,0.1,0.3,0.2,0.4,0.3c0.1,0,0.1,0.1,0.1,0.1c0,0,0.1,0.1,0.1,0.1c0.1,0.1,0.1,0.1,0.1,0.1
						s0,0-0.1-0.1c0,0-0.1-0.1-0.1-0.1c0,0-0.1-0.1-0.2-0.1c-0.1-0.1-0.3-0.2-0.4-0.2c-0.1,0-0.1-0.1-0.2-0.1c0,0-0.1,0-0.1-0.1
						c0,0-0.1,0-0.1-0.1c-0.1,0-0.2-0.1-0.2,0c-0.1,0-0.1,0.1-0.1,0.2c0,0.1-0.1,0.2-0.1,0.2c0,0.1-0.1,0.1-0.1,0.2
						c-0.1,0.1-0.1,0.2-0.2,0.3C43.3,24.7,43.2,24.7,43.2,24.7z"/>
				</g>
			</g>
		</g>
		<g>
			<g>
				<path fill="#F5B54C" d="M43.1,32c0,0,0,0,0,0.1c0,0.1,0,0.2,0,0.3c0,0.2,0,0.6,0,1c0,0.2,0,0.4,0,0.7c0,0.2,0,0.5,0,0.8
					c0,0.3,0,0.5,0,0.8c0,0.3,0,0.6-0.1,0.8c0,0.3-0.1,0.6-0.1,0.8c0,0.1-0.1,0.3-0.1,0.4c0,0.1,0,0.1-0.1,0.2l0,0l0,0c0,0,0,0,0,0
					l0,0l0,0l0,0c0,0,0,0.1,0,0.1c0,0.1,0,0.1,0,0.2c0,0.1,0,0.1,0,0.2c0,0.1,0,0.1,0,0.2c0,0.1,0,0.1,0,0.2c0,0.1,0,0.1,0,0.2
					c0,0.1,0,0.1,0,0.2c0,0.1,0,0.2,0,0.3c0,0.2,0,0.4,0,0.6c0,0.2,0,0.3,0,0.4c0,0.1,0,0.2,0,0.3c0,0.1,0,0.1,0,0.1s0,0,0-0.1
					c0-0.1,0-0.2,0-0.3c0-0.1,0-0.3-0.1-0.4c0-0.2,0-0.4,0-0.6c0-0.2,0-0.4,0-0.7c0-0.2,0-0.5,0.1-0.8c0,0,0-0.1,0-0.1l0,0l0,0l0,0
					l0,0c0-0.1,0-0.1,0.1-0.2c0-0.1,0-0.1,0.1-0.2c0-0.1,0-0.1,0-0.2c0.1-0.3,0.1-0.5,0.1-0.8c0-0.3,0.1-0.6,0.1-0.8
					c0-0.3,0-0.5,0.1-0.8c0-0.3,0-0.5,0-0.8c0-0.2,0-0.5,0-0.7c0-0.2,0-0.4,0-0.6c0-0.2,0-0.3,0-0.4C43.1,32.1,43.1,32,43.1,32z"/>
			</g>
		</g>
	</g>
	<g>
		<g>
			<path fill="#425A6B" d="M34.7,20.8c-0.5,1.3-0.7,2.7-0.3,4c0.2,0.7,0.5,1.4,0.7,2c0.3,1,0.4,2,0.4,3c0.6-1.2,0.6-2.7,0.6-4.1
				c0-1.4,0.2-2.8,0.9-4"/>
		</g>
	</g>
	<g>
		<g>
			<path fill="#425A6B" d="M36.3,22.6c0,0,0,0.1,0,0.2c0,0,0,0.1,0,0.1c0,0,0,0.1,0,0.1c0,0,0,0.1,0,0.1c0,0,0,0.1,0,0.2
				c0,0.1,0,0.1,0,0.2c0,0.1,0,0.1,0,0.2c0,0,0,0.1,0,0.1c0,0,0,0.1,0,0.1c0,0.1,0,0.1,0,0.2c0,0.1,0,0.3,0,0.4c0,0.1,0,0.3,0.1,0.4
				c0,0.1,0.1,0.3,0.1,0.4c0,0.1,0.1,0.3,0.1,0.4c0,0.1,0,0.1,0.1,0.2c0,0,0,0.1,0,0.1c0,0,0,0.1,0,0.1c0,0.1,0,0.1,0.1,0.2
				c0,0.1,0,0.1,0.1,0.2c0,0,0,0.1,0.1,0.1c0,0,0,0.1,0.1,0.1c0,0,0,0.1,0.1,0.1c0,0,0,0.1,0.1,0.1c0.1,0.1,0.1,0.2,0.1,0.2
				s0-0.1-0.1-0.2c0,0,0-0.1-0.1-0.1c0,0,0-0.1-0.1-0.1c0,0,0-0.1-0.1-0.1c0,0,0-0.1-0.1-0.1c0,0-0.1-0.1-0.1-0.2
				c0-0.1-0.1-0.1-0.1-0.2c0,0,0-0.1,0-0.1c0,0,0-0.1,0-0.1c0-0.1-0.1-0.1-0.1-0.2c0-0.1-0.1-0.3-0.1-0.4c0-0.1-0.1-0.3-0.1-0.4
				c0-0.1-0.1-0.3-0.1-0.4c0-0.1,0-0.3-0.1-0.4c0-0.1,0-0.1,0-0.2c0,0,0-0.1,0-0.1c0,0,0-0.1,0-0.1c0-0.1,0-0.1,0-0.2
				c0-0.1,0-0.1,0-0.2c0-0.1,0-0.1,0-0.2c0-0.1,0-0.1,0-0.1c0,0,0-0.1,0-0.1c0,0,0-0.1,0-0.1c0-0.1,0-0.2,0-0.2L36.3,22.6z"/>
		</g>
	</g>
	<g>
		<g>
			<path fill="#425A6B" d="M38.9,22.2C38.9,22.2,38.9,22.2,38.9,22.2C38.9,22.3,38.9,22.3,38.9,22.2c0,0.1,0,0.1,0,0.1
				c0,0,0,0.1,0,0.1c0,0.1,0,0.2,0,0.3c0,0.1,0,0.2-0.1,0.3c0,0.1-0.1,0.3-0.1,0.4c-0.1,0.1-0.1,0.3-0.2,0.4
				c-0.1,0.3-0.3,0.6-0.4,0.9c-0.1,0.3-0.3,0.6-0.4,0.9c0,0.1-0.1,0.3,0,0.4c0,0.1,0,0.1,0,0.2c0,0.1,0,0.1,0.1,0.2
				c0,0.1,0.1,0.2,0.2,0.3c0.1,0.1,0.1,0.1,0.2,0.2c0.1,0,0.1,0.1,0.1,0.1c0,0,0.1,0,0.1,0s0,0-0.1,0c0,0-0.1,0-0.1-0.1
				c-0.1,0-0.1-0.1-0.2-0.2c-0.1-0.1-0.1-0.2-0.2-0.3c0-0.1,0-0.1-0.1-0.2c0-0.1,0-0.1,0-0.2c0-0.1,0-0.3,0-0.4
				c0-0.2,0.1-0.3,0.1-0.5c0.1-0.2,0.1-0.3,0.2-0.5c0.1-0.3,0.3-0.6,0.4-0.9c0.1-0.1,0.1-0.3,0.2-0.4c0-0.1,0.1-0.3,0.1-0.4
				c0-0.1,0-0.2,0-0.3c0-0.1,0-0.2,0-0.2c0,0,0-0.1,0-0.1c0,0,0,0,0,0c0,0,0,0,0,0c0,0,0-0.1,0-0.1L38.9,22.2z"/>
		</g>
	</g>
</g>
</svg>
