<?xml version="1.0" encoding="utf-8"?>
<!-- Generator: Adobe Illustrator 18.0.0, SVG Export Plug-In . SVG Version: 6.00 Build 0)  -->
<!DOCTYPE svg PUBLIC "-//W3C//DTD SVG 1.1//EN" "http://www.w3.org/Graphics/SVG/1.1/DTD/svg11.dtd">
<svg version="1.1" id="Layer_1" xmlns="http://www.w3.org/2000/svg" xmlns:xlink="http://www.w3.org/1999/xlink" x="0px" y="0px"
	 viewBox="0 0 48 48" enable-background="new 0 0 48 48" xml:space="preserve">
<g>
	<g>
		<path fill="#CED6E0" d="M48,26v17.7c0,2.4-1.9,4.3-4.3,4.3c-2.4,0-4.3-1.9-4.3-4.3V26H48z"/>
		<path fill="#F3F3F3" d="M4.3,48C1.9,48,0,46.1,0,43.7V4.3C0,1.9,1.9,0,4.3,0h30.9c2.4,0,4.3,1.9,4.3,4.3v39.4
			c0,2.4,1.9,4.3,4.3,4.3H4.3z"/>
		<g>
			<rect x="19.3" y="5.5" fill="#CED6E0" width="15" height="2"/>
			<rect x="19.3" y="12.5" fill="#CED6E0" width="15" height="2"/>
			<rect x="19.3" y="19.5" fill="#CED6E0" width="15" height="2"/>
			<rect x="5.2" y="26.5" fill="#CED6E0" width="29.1" height="2"/>
			<rect x="5.2" y="33.5" fill="#CED6E0" width="29.1" height="2"/>
			<rect x="5.2" y="40.5" fill="#CED6E0" width="29.1" height="2"/>
		</g>
		<g>
			<path fill="#FFD15C" d="M9.8,21.9v-1.5c-1.7-0.3-3.2-1-4.7-2.3L7,15.9c1,0.9,2,1.5,2.8,1.7v-3c-1.4-0.4-2.4-0.8-3.1-1.4
				c-0.6-0.6-1-1.5-1-2.6s0.4-2.1,1.1-2.8c0.7-0.7,1.7-1.2,2.9-1.3v-1H12v1c1.3,0.2,2.7,0.7,4,1.7l-1.6,2.4c-0.8-0.6-1.6-1-2.3-1.2
				v2.9c1.4,0.4,2.5,0.9,3.2,1.5c0.7,0.6,1,1.5,1,2.7s-0.4,2.1-1.1,2.8c-0.8,0.7-1.8,1.2-3.1,1.3v1.4H9.8z M9.8,9.3
				C9.3,9.5,9,9.8,9,10.4c0,0.5,0.3,0.9,0.9,1.2V9.3z M13,16.5c0-0.3-0.1-0.5-0.2-0.7c-0.1-0.2-0.4-0.4-0.8-0.5v2.5
				C12.6,17.5,13,17.1,13,16.5z"/>
		</g>
	</g>
</g>
</svg>
