<?xml version="1.0" encoding="utf-8"?>
<!-- Generator: Adobe Illustrator 18.0.0, SVG Export Plug-In . SVG Version: 6.00 Build 0)  -->
<!DOCTYPE svg PUBLIC "-//W3C//DTD SVG 1.1//EN" "http://www.w3.org/Graphics/SVG/1.1/DTD/svg11.dtd">
<svg version="1.1" id="Layer_1" xmlns="http://www.w3.org/2000/svg" xmlns:xlink="http://www.w3.org/1999/xlink" x="0px" y="0px"
	 viewBox="0 0 48 48" enable-background="new 0 0 48 48" xml:space="preserve">
<g>
	<g>
		<g>
			<g>
				<g>
					<g>
						<path fill="#F3705A" d="M48,12.5c0,15.4-14.7,16.6-24,27.2C14.7,29.2,0,27.9,0,12.5C0,5.6,5.6,0,12.5,0
							c5.2,0,9.6,3.1,11.5,7.6C25.9,3.1,30.3,0,35.5,0C42.4,0,48,5.6,48,12.5z"/>
					</g>
					<g>
						<path fill="#F3705A" d="M30,41.8c-3.2,3.2-8.7,3.2-11.9,0c1.6-1.7,4.3-5,4.3-6.5c1.1,0,2.2,0,3.3,0
							C25.7,36.8,28.4,40.1,30,41.8z"/>
					</g>
					<g>
						<g>
							<path fill="#415A6B" d="M24,38.1c-1.3,0-2.6-0.3-3.9-0.8c-0.3-0.1-0.5-0.5-0.4-0.8c0.1-0.3,0.5-0.5,0.8-0.4
								c2.3,1,4.6,1,6.9,0c0.3-0.1,0.7,0,0.8,0.4c0.1,0.3,0,0.7-0.4,0.8C26.6,37.8,25.3,38.1,24,38.1z"/>
						</g>
					</g>
					<g>
						<g>
							<path fill="#344A5E" d="M24,39.4c-1.1,0-2.3-0.2-3.4-0.6c-0.3-0.1-0.5-0.5-0.4-0.8c0.1-0.3,0.5-0.5,0.8-0.4
								c2,0.7,4,0.7,5.9,0c0.3-0.1,0.7,0.1,0.8,0.4c0.1,0.3-0.1,0.7-0.4,0.8C26.3,39.2,25.1,39.4,24,39.4z"/>
						</g>
					</g>
				</g>
				<g>
					<g>
						<path fill="#344A5E" d="M25,38.3v9c0,0.4,0.3,0.7,0.7,0.7s0.7-0.3,0.7-0.7v-9H25z"/>
					</g>
				</g>
			</g>
			<g>
				<path fill="#FFFFFF" d="M10.3,22.6v-7.5h1.7v6h3.2v1.5H10.3z"/>
				<path fill="#FFFFFF" d="M22.5,21.5c-0.8,0.7-1.7,1.1-2.8,1.1c-1.1,0-2-0.4-2.8-1.1c-0.8-0.7-1.1-1.7-1.1-2.8
					c0-1.1,0.4-2,1.1-2.8c0.8-0.7,1.7-1.1,2.8-1.1c1.1,0,2,0.4,2.8,1.1c0.8,0.7,1.1,1.7,1.1,2.8C23.6,19.9,23.2,20.8,22.5,21.5z
					 M21.9,18.8c0-0.7-0.2-1.2-0.6-1.7c-0.4-0.5-1-0.7-1.6-0.7c-0.6,0-1.2,0.2-1.6,0.7c-0.4,0.5-0.6,1-0.6,1.7
					c0,0.7,0.2,1.2,0.6,1.7c0.4,0.5,1,0.7,1.6,0.7c0.6,0,1.2-0.2,1.6-0.7C21.7,20,21.9,19.5,21.9,18.8z"/>
				<path fill="#FFFFFF" d="M27.6,19.9l1.9-4.8h1.8l-3,7.5h-1.4l-3-7.5h1.8L27.6,19.9z"/>
				<path fill="#FFFFFF" d="M37.6,15.1v1.5h-3.7v1.5h3.4v1.4h-3.4v1.6h3.9v1.5h-5.5v-7.5H37.6z"/>
			</g>
		</g>
	</g>
</g>
</svg>
