<?xml version="1.0" encoding="utf-8"?>
<!-- Generator: Adobe Illustrator 18.0.0, SVG Export Plug-In . SVG Version: 6.00 Build 0)  -->
<!DOCTYPE svg PUBLIC "-//W3C//DTD SVG 1.1//EN" "http://www.w3.org/Graphics/SVG/1.1/DTD/svg11.dtd">
<svg version="1.1" id="Layer_1" xmlns="http://www.w3.org/2000/svg" xmlns:xlink="http://www.w3.org/1999/xlink" x="0px" y="0px"
	 viewBox="0 0 48 48" enable-background="new 0 0 48 48" xml:space="preserve">
<g>
	<g>
		<g>
			<path fill="#E8EAE9" d="M34.8,22.2l-2.4,0c0-0.5,0.3-11.3,11.2-19.5L45,4.7C35.1,12.1,34.8,22.1,34.8,22.2z"/>
			<circle fill="#F3705A" cx="44.3" cy="3.7" r="3.7"/>
		</g>
		<g>
			<path fill="#E8EAE9" d="M13.2,22.2c0-0.1-0.3-10.1-10.2-17.6l1.4-1.9c10.9,8.2,11.2,19,11.2,19.5L13.2,22.2z"/>
			<circle fill="#F3705A" cx="3.7" cy="3.7" r="3.7"/>
		</g>
		<g>
			<circle fill="#F3F3F3" cx="24" cy="27.2" r="20.8"/>
			<circle fill="#F3F3F3" cx="24" cy="27.2" r="20.8"/>
			<circle fill="#F3F3F3" cx="24" cy="27.2" r="20.8"/>
			<path fill="#8AD7F8" d="M38.7,31c-0.2,0.8-0.9,1.4-1.7,1.4c-4.3,0.4-8.7,0.7-13,0.7c-4.3,0-8.7-0.2-13-0.7
				c-0.8-0.1-1.5-0.7-1.7-1.4c-0.6-2.5-0.6-5.1,0-7.6c0.2-0.8,0.9-1.4,1.7-1.4c4.3-0.4,8.7-0.6,13-0.6c4.3,0,8.7,0.2,13,0.6
				c0.8,0.1,1.5,0.7,1.7,1.4C39.3,26,39.3,28.5,38.7,31z"/>
			<circle fill="#415A6B" cx="32.7" cy="27.2" r="2.8"/>
			<circle fill="#415A6B" cx="15.3" cy="27.2" r="2.8"/>
		</g>
	</g>
</g>
</svg>
