<?xml version="1.0" encoding="utf-8"?>
<!-- Generator: Adobe Illustrator 19.0.1, SVG Export Plug-In . SVG Version: 6.00 Build 0)  -->
<svg version="1.1" id="Layer_1" xmlns="http://www.w3.org/2000/svg" xmlns:xlink="http://www.w3.org/1999/xlink" x="0px" y="0px"
	 viewBox="0 0 48 48" style="enable-background:new 0 0 48 48;" xml:space="preserve">
<style type="text/css">
	.st0{fill:#66C6B9;}
	.st1{fill:#F3F3F3;}
	.st2{fill:#415A6B;}
	.st3{fill:#CED6E0;}
	.st4{fill:#F3705A;}
	.st5{fill:#E8EAE9;}
	.st6{fill:#4ABAA5;}
	.st7{fill:#F05540;}
	.st8{fill:#FFD15C;}
	.st9{fill:#55C0EB;}
	.st10{fill:#8AD7F8;}
	.st11{fill:#344A5E;}
	.st12{fill:#FFFFFF;}
	.st13{fill:#F7B64C;}
	.st14{fill:#ADB3BA;}
	.st15{fill:#38A892;}
	.st16{fill:#ED9845;}
	.st17{fill:#2D4251;}
	.st18{fill:#304556;}
	.st19{fill:#A5AAAD;}
	.st20{fill:#2D4456;}
	.st21{fill:#4FB0E0;}
	.st22{fill:#2D4354;}
	.st23{fill:#E54C38;}
	.st24{fill:#2B4456;}
	.st25{fill:#2B404F;}
</style>
<g>
	<g>
		<g>
			<g>
				<g>
					<g>
						<g>
							<g>
								<g>
									<g>
										
											<ellipse transform="matrix(0.9716 0.2365 -0.2365 0.9716 2.562 -8.2815)" class="st8" cx="35.8" cy="6.5" rx="0.5" ry="1.1"/>
									</g>
									<g>
										
											<ellipse transform="matrix(-0.9716 0.2365 -0.2365 -0.9716 60.4278 5.8292)" class="st8" cx="29.9" cy="6.5" rx="0.5" ry="1.1"/>
									</g>
								</g>
								<g>
									<path class="st8" d="M35.8,5l-0.1,1c0,0-0.1,2.3-0.5,3.2v3.3h-4.5l-0.1-3c0,0-0.6-1.9-0.6-3.3c0,0-0.4-1.5-0.3-2.4
										c0.1-0.9,1.6-2,2.9-2.2C33.8,1.3,36.2,1.3,35.8,5z"/>
								</g>
								<g>
									<path class="st2" d="M30,6.1c0,0-0.1-1,0-1.5c0.1-0.5,0.3-1.4,0.8-1.8c0.5-0.4,1.3-0.8,2.4-0.6C34.2,2.4,34.6,2.5,35,3
										s0.1,0.5,0.4,0.8c0.3,0.3,0.1,1.9,0.2,2.1l0.1,0c0,0,0.2-0.5,0.4-1.5c0.2-1,0-2.4-0.7-3.4S30,0.2,29.6,2.4
										c-0.3,1.5,0.2,2.6,0.3,3S30,6.1,30,6.1z"/>
								</g>
								<path class="st13" d="M32.3,10.5c-1.4-0.4-1.8-1.2-1.8-1.2c0,0,0,0.1,0,0.1l0.1,2.7c1-0.1,2.1-0.3,2.8-0.7
									c1.5-0.8,1.8-2.2,1.8-2.2C35,9.6,33.7,10.8,32.3,10.5z"/>
								<g>
									<polygon class="st3" points="34.5,21.6 36,12.4 32.9,12.4 29.2,12.9 30.9,21.6 									"/>
								</g>
								<g>
									<path class="st7" d="M33.9,21.6c0-0.5,0-1.1,0-1.4c0-1,0-3.4-0.1-4c-0.1-0.6-0.6-1.4-0.6-1.6s0-0.6,0-0.6l-0.7-0.1
										l-0.1,0.8c0,0-0.4,0.8-0.6,1.6c-0.1,0.9-0.1,3.7-0.1,3.7l0.8,1.7H33.9z"/>
								</g>
								<g>
									<path class="st4" d="M31.8,13c0,0,0.7,1.3,0.7,1.6c0,0,0.5-0.1,0.8,0c0,0,0.7-1.2,1.1-1.4l0-0.3
										C34.4,12.6,32.2,11.9,31.8,13z"/>
								</g>
								<g>
									<g>
										<g>
											<path class="st1" d="M35.2,10.6c0,0-0.1,0.4-0.4,0.7c-0.3,0.3-1.9,1.1-1.9,1.1l2.1,2l0.9-2.5
												C35.9,11.9,35.5,10.8,35.2,10.6z"/>
										</g>
									</g>
								</g>
								<g>
									<path class="st2" d="M43.8,21.6c-0.3-1.9-0.7-3.7-0.8-4c-0.3-0.5-0.5-2-0.9-3c-0.4-1-1-1.1-1-1.1l-2.1,1
										c-0.7,1.9,0.7,6.1,1,7.1H43.8z"/>
								</g>
								<g>
									<path class="st11" d="M26.6,21.6h6c-0.3-0.7-0.7-1.6-1.1-2.2c-0.9-1.5-1.7-6.5-1.7-6.5l-0.3-0.9c0,0-2.2,1.1-3.1,1.5
										c-0.9,0.4-1.6,0.7-1.6,0.7s1.2,3.6,1.5,5.4C26.6,19.9,26.6,20.7,26.6,21.6z"/>
								</g>
								<g>
									<g>
										<path class="st11" d="M40.3,21.6c-1-3.4,0.8-8,0.8-8c-1.7-0.4-4.6-1.8-4.6-1.8c-0.1,1.9-1.1,6.3-1.1,6.3s-0.9,1.4-1.7,3.5
											H40.3z"/>
									</g>
									<g>
										<path class="st2" d="M34.9,17.1c-0.2,1-0.8,3-1.3,4.5h0.7c0.5-1.2,1.2-2.5,1.6-3.1c0.7-1.2,1.2-3.1,1.4-3.9
											c0.3-0.9,0.3-1.2,0.3-1.2l-0.9-0.7l0.5,0c0,0-0.5-0.6-0.7-0.8c-0.2-0.2-0.7-0.5-0.8-0.7c-0.1-0.2-0.1-0.2-0.3-0.3
											c0,0,0.1,0.7,0.1,1.1C35.4,12.4,35.3,15.6,34.9,17.1z"/>
									</g>
								</g>
								<g>
									<path class="st2" d="M29.1,15.8c0.4,0.9,2.2,4.3,3.1,5.8h0.7c0-0.1-0.1-0.2-0.1-0.3c-0.5-0.9-2-6.1-2.1-7S30.5,11,30.5,11
										c-0.5,0.8-1.5,1.1-1.7,1.8l0.4,0l-0.9,0.6C28.3,13.5,28.7,14.8,29.1,15.8z"/>
								</g>
								<g>
									<path class="st2" d="M26.9,21.6c-0.1-0.7-0.3-1.4-0.4-2.1c-0.4-1.8-1.5-5.4-1.5-5.4s-0.3-0.1-0.6,0.8
										c-0.3,0.9-1,4.1-1.1,5.2c0,0.2-0.1,0.8-0.1,1.6H26.9z"/>
								</g>
							</g>
						</g>
						<g>
							<path class="st1" d="M30.6,10.8c0,0,1.6,1.3,2.3,1.6c0,0-1.3,1.1-1.8,2c0,0-0.4-1.1-0.6-1.4c-0.2-0.3-0.3-0.5-0.3-0.6
								C30.2,12.3,30.3,11.2,30.6,10.8z"/>
						</g>
						<g>
							<g>
								<g>
									<path class="st2" d="M34.9,17.1c-0.2,1-0.8,3-1.3,4.5h0.7c0.5-1.2,1.2-2.5,1.6-3.1c0.7-1.2,1.2-3.1,1.4-3.9
										c0.3-0.9,0.3-1.2,0.3-1.2l-0.9-0.7l0.5,0c0,0-0.5-0.6-0.7-0.8c-0.2-0.2-0.7-0.5-0.8-0.7c-0.1-0.2-0.1-0.2-0.3-0.3
										c0,0,0.1,0.7,0.1,1.1C35.4,12.4,35.3,15.6,34.9,17.1z"/>
								</g>
							</g>
							<g>
								<path class="st2" d="M29.1,15.8c0.4,0.9,2.2,4.3,3.1,5.8h0.7c0-0.1-0.1-0.2-0.1-0.3c-0.5-0.9-2-6.1-2.1-7S30.5,11,30.5,11
									c-0.5,0.8-1.5,1.1-1.7,1.8l0.4,0l-0.9,0.6C28.3,13.5,28.7,14.8,29.1,15.8z"/>
							</g>
							<g>
								<path class="st2" d="M26.9,21.6c-0.1-0.7-0.3-1.4-0.4-2.1c-0.4-1.8-1.5-5.4-1.5-5.4s-0.3-0.1-0.6,0.8
									c-0.3,0.9-1,4.1-1.1,5.2c0,0.2-0.1,0.8-0.1,1.6H26.9z"/>
							</g>
						</g>
					</g>
				</g>
			</g>
			<g>
				<g>
					<polygon class="st5" points="46.4,23 20.3,23 18.7,19.1 48,19.1 					"/>
				</g>
				<g>
					<rect x="22.6" y="23" class="st3" width="21.4" height="24"/>
				</g>
				<path class="st5" d="M40.1,29.5v12.4c-1.3,0-2.4,1.1-2.4,2.4h-8.6c0-1.3-1.1-2.4-2.4-2.4V29.5c1.3,0,2.4-1.1,2.4-2.4h8.6
					C37.6,28.4,38.7,29.5,40.1,29.5z"/>
			</g>
		</g>
		<g>
			<g>
				<g>
					<path class="st8" d="M6.7,37.3c0,0,0,1.6-0.1,2.2c-0.1,0.6-0.1,0.6-0.1,0.6l5.9-0.6c0,0-0.3-0.8-0.3-1.7s0-0.9,0-0.9L6.7,37.3z
						"/>
				</g>
				<g>
					<g>
						
							<ellipse transform="matrix(0.9943 0.1067 -0.1067 0.9943 3.8445 -1.1713)" class="st8" cx="12.9" cy="35.3" rx="0.6" ry="1.4"/>
					</g>
					<g>
						
							<ellipse transform="matrix(-0.9943 0.1067 -0.1067 -0.9943 15.7415 69.8391)" class="st8" cx="6" cy="35.3" rx="0.6" ry="1.4"/>
					</g>
				</g>
				<g>
					<g>
						<g>
							<path class="st6" d="M19.1,48l-1-2.9c-0.5-1.4-1.7-2.5-3.1-3c-0.8-0.3-1.6-0.6-1.8-0.9c-0.2-0.2-0.3-0.5-0.5-0.7H6.4
								c-0.2,0.3-0.3,0.5-0.5,0.7c-0.3,0.3-1,0.7-1.8,0.9c-1.4,0.5-2.6,1.6-3.1,3L0,48H19.1z"/>
						</g>
					</g>
				</g>
				<g>
					<g>
						<path class="st0" d="M12.5,39.5c0,0,0.2,0.7,0.4,1c0.2,0.3,0.3,0.6,0.3,0.6s-0.2-0.3-0.8-0.4c-0.6-0.1-2.8,0-2.8,0
							s-2.2-0.1-2.8,0c-0.6,0.1-0.8,0.4-0.8,0.4s0.1-0.3,0.3-0.6c0.2-0.3,0.4-1,0.4-1C6.6,38.7,12.5,38.7,12.5,39.5z"/>
					</g>
				</g>
				<g>
					<path class="st2" d="M6.4,37.3c0,1.8,6.1,1.8,6.1,0c0.1-0.8,0.2-2,0.5-2.5c0.4-0.7,0.7-5.3-3.6-5.3c-4.3,0-4,4.6-3.6,5.3
						C6.1,35.2,6.3,36.5,6.4,37.3z"/>
				</g>
			</g>
			<g>
				<g>
					<path class="st8" d="M21.2,37.3c0,0,0,1.6-0.1,2.2C21,40.1,21,40.1,21,40.1l5.9-0.6c0,0-0.3-0.8-0.3-1.7c0-0.9,0-0.9,0-0.9
						L21.2,37.3z"/>
				</g>
				<g>
					<g>
						
							<ellipse transform="matrix(0.9943 0.1067 -0.1067 0.9943 3.927 -2.7136)" class="st8" cx="27.3" cy="35.3" rx="0.6" ry="1.4"/>
					</g>
					<g>
						
							<ellipse transform="matrix(-0.9943 0.1067 -0.1067 -0.9943 44.5675 68.2968)" class="st8" cx="20.5" cy="35.3" rx="0.6" ry="1.4"/>
					</g>
				</g>
				<g>
					<g>
						<g>
							<path class="st7" d="M33.5,48l-1-2.9c-0.5-1.4-1.7-2.5-3.1-3c-0.8-0.3-1.6-0.6-1.8-0.9c-0.2-0.2-0.3-0.5-0.5-0.7h-6.3
								c-0.2,0.3-0.3,0.5-0.5,0.7c-0.3,0.3-1,0.7-1.8,0.9c-1.4,0.5-2.6,1.6-3.1,3l-1,2.9H33.5z"/>
						</g>
					</g>
				</g>
				<g>
					<g>
						<path class="st4" d="M26.9,39.5c0,0,0.2,0.7,0.4,1c0.2,0.3,0.3,0.6,0.3,0.6s-0.2-0.3-0.8-0.4c-0.6-0.1-2.8,0-2.8,0
							s-2.2-0.1-2.8,0c-0.6,0.1-0.8,0.4-0.8,0.4s0.1-0.3,0.3-0.6c0.2-0.3,0.4-1,0.4-1C21.1,38.7,26.9,38.7,26.9,39.5z"/>
					</g>
				</g>
				<g>
					<path class="st2" d="M20.8,37.3c0,1.8,6.1,1.8,6.1,0c0.1-0.8,0.2-2,0.5-2.5c0.4-0.7,0.7-5.3-3.6-5.3c-4.3,0-4,4.6-3.6,5.3
						C20.6,35.2,20.8,36.5,20.8,37.3z"/>
				</g>
			</g>
			<g>
				<g>
					<path class="st8" d="M35.6,37.3c0,0,0,1.6-0.1,2.2c-0.1,0.6-0.1,0.6-0.1,0.6l5.9-0.6c0,0-0.3-0.8-0.3-1.7c0-0.9,0-0.9,0-0.9
						L35.6,37.3z"/>
				</g>
				<g>
					<g>
						
							<ellipse transform="matrix(0.9943 0.1067 -0.1067 0.9943 4.0095 -4.256)" class="st8" cx="41.8" cy="35.3" rx="0.6" ry="1.4"/>
					</g>
					<g>
						
							<ellipse transform="matrix(-0.9943 0.1067 -0.1067 -0.9943 73.3936 66.7544)" class="st8" cx="34.9" cy="35.3" rx="0.6" ry="1.4"/>
					</g>
				</g>
				<g>
					<g>
						<g>
							<path class="st11" d="M48,48l-1-2.9c-0.5-1.4-1.7-2.5-3.1-3c-0.8-0.3-1.6-0.6-1.8-0.9c-0.2-0.2-0.3-0.5-0.5-0.7h-6.3
								c-0.2,0.3-0.3,0.5-0.5,0.7c-0.3,0.3-1,0.7-1.8,0.9c-1.4,0.5-2.6,1.6-3.1,3l-1,2.9H48z"/>
						</g>
					</g>
				</g>
				<g>
					<g>
						<path class="st2" d="M41.4,39.5c0,0,0.2,0.7,0.4,1c0.2,0.3,0.3,0.6,0.3,0.6s-0.2-0.3-0.8-0.4c-0.6-0.1-2.8,0-2.8,0
							s-2.2-0.1-2.8,0c-0.6,0.1-0.8,0.4-0.8,0.4s0.1-0.3,0.3-0.6c0.2-0.3,0.4-1,0.4-1C35.5,38.7,41.4,38.7,41.4,39.5z"/>
					</g>
				</g>
				<g>
					<path class="st2" d="M35.3,37.3c0,1.8,6.1,1.8,6.1,0c0.1-0.8,0.2-2,0.5-2.5c0.4-0.7,0.7-5.3-3.6-5.3c-4.3,0-4,4.6-3.6,5.3
						C35.1,35.2,35.2,36.5,35.3,37.3z"/>
				</g>
			</g>
		</g>
		<g>
			<g>
				<path class="st4" d="M18.7,2v9.5c0,1.1-0.9,2-2,2h-0.5v3.7l-6.8-3.7H2c-1.1,0-2-0.9-2-2V2c0-1.1,0.9-2,2-2h14.7
					C17.8,0,18.7,0.9,18.7,2z"/>
			</g>
			<g>
				<circle class="st12" cx="4.2" cy="6.7" r="1.6"/>
				<circle class="st12" cx="9.4" cy="6.7" r="1.6"/>
				<circle class="st12" cx="14.5" cy="6.7" r="1.6"/>
			</g>
		</g>
	</g>
</g>
</svg>
