<?xml version="1.0" encoding="utf-8"?>
<!-- Generator: Adobe Illustrator 18.0.0, SVG Export Plug-In . SVG Version: 6.00 Build 0)  -->
<!DOCTYPE svg PUBLIC "-//W3C//DTD SVG 1.1//EN" "http://www.w3.org/Graphics/SVG/1.1/DTD/svg11.dtd">
<svg version="1.1" id="Layer_1" xmlns="http://www.w3.org/2000/svg" xmlns:xlink="http://www.w3.org/1999/xlink" x="0px" y="0px"
	 viewBox="0 0 48 48" enable-background="new 0 0 48 48" xml:space="preserve">
<g>
	<path fill="#F2F2F2" d="M33.4,20.3c0,0,5.6-1.2,10,4l-0.9,0.9C42.5,25.2,40.2,21.5,33.4,20.3z"/>
	<path fill="#84DBFF" d="M35.2,16.5c0,0,5.8-1.4,10.3,3.4l-1,1C44.5,20.9,42.3,17.5,35.2,16.5z"/>
	<path fill="#F2F2F2" d="M27.5,14.4c0,0,1.2-5.6-4-10l-0.9,0.9C22.6,5.3,26.3,7.6,27.5,14.4z"/>
	<path fill="#84DBFF" d="M31.3,12.4c0,0,1.2-5.8-3.8-10.1l-0.9,1C26.6,3.3,30.1,5.3,31.3,12.4z"/>
	<path fill="#84DBFF" d="M39.3,14.3l-0.7-0.7h1c0.1,0,0.2-0.1,0.2-0.2s-0.1-0.2-0.2-0.2h-1l0.7-0.7c0.1-0.1,0.1-0.2,0-0.2
		c-0.1-0.1-0.2-0.1-0.2,0l-0.7,0.7v-1c0-0.1-0.1-0.2-0.2-0.2s-0.2,0.1-0.2,0.2v1l-0.7-0.7c-0.1-0.1-0.2-0.1-0.2,0
		c-0.1,0.1-0.1,0.2,0,0.2l0.7,0.7h-1c-0.1,0-0.2,0.1-0.2,0.2c0,0,0,0.1,0,0.1c0,0,0.1,0,0.1,0h1l-0.7,0.7c-0.1,0.1-0.1,0.2,0,0.2
		c0.1,0.1,0.2,0.1,0.2,0l0.7-0.7v1c0,0,0,0.1,0,0.1c0,0,0.1,0,0.1,0c0.1,0,0.2-0.1,0.2-0.2v-1l0.7,0.7c0.1,0.1,0.2,0.1,0.2,0
		C39.3,14.5,39.3,14.4,39.3,14.3z"/>
	<path fill="#FFD15C" d="M22.9,8.6l-0.7-0.7h1c0.1,0,0.2-0.1,0.2-0.2s-0.1-0.2-0.2-0.2h-1l0.7-0.7c0.1-0.1,0.1-0.2,0-0.2
		c-0.1-0.1-0.2-0.1-0.2,0l-0.7,0.7v-1c0-0.1-0.1-0.2-0.2-0.2s-0.2,0.1-0.2,0.2v1L21,6.7c-0.1-0.1-0.2-0.1-0.2,0
		c-0.1,0.1-0.1,0.2,0,0.2l0.7,0.7h-1c-0.1,0-0.2,0.1-0.2,0.2c0,0,0,0.1,0,0.1s0.1,0,0.1,0h1l-0.7,0.7c-0.1,0.1-0.1,0.2,0,0.2
		c0.1,0.1,0.2,0.1,0.2,0l0.7-0.7v1c0,0,0,0.1,0,0.1c0,0,0.1,0,0.1,0c0.1,0,0.2-0.1,0.2-0.2v-1l0.7,0.7c0.1,0.1,0.2,0.1,0.2,0
		C22.9,8.7,22.9,8.6,22.9,8.6z"/>
	<polygon fill="#FF7058" points="48,22.7 47.3,23.5 47.5,24.4 46.6,24 45.7,24.5 45.8,23.5 45.1,22.8 46.1,22.6 46.5,21.7 47,22.6 	
		"/>
	<polygon fill="#FF7058" points="25.8,1.7 25.1,2.4 25.3,3.4 24.4,3 23.5,3.5 23.7,2.5 22.9,1.8 23.9,1.6 24.4,0.7 24.8,1.6 	"/>
	<polygon fill="#84DBFF" points="37.3,26 36.8,26.5 36.9,27.1 36.3,26.8 35.8,27.2 35.9,26.5 35.4,26.1 36,26 36.3,25.4 36.6,26 	
		"/>
	<polygon fill="#84DBFF" points="29.6,11.2 29.2,11.6 29.3,12.3 28.7,12 28.2,12.3 28.3,11.6 27.8,11.2 28.4,11.1 28.7,10.5 
		29,11.1 	"/>
	<g>
		<path fill="#FF7058" d="M0.3,47.1L0.2,47c-0.3-0.3-0.3-0.8,0-1.1l7.6-7.6c0.3-0.3,0.8-0.3,1.1,0L9,38.4c0.3,0.3,0.3,0.8,0,1.1
			l-7.6,7.6C1.1,47.4,0.6,47.4,0.3,47.1z"/>
		<g>
			<polygon fill="#FFD15C" points="32.8,35.1 26.1,30.6 27.3,38.6 23.3,31.6 20.9,39.3 20.2,31.3 14.7,37.1 17.6,29.7 10.2,32.6 
				16,27.1 8,26.4 15.7,24 8.7,20 16.7,21.2 12.2,14.5 18.8,19 17.7,11.1 21.7,18 24.1,10.4 24.7,18.4 30.2,12.5 27.3,20 34.8,17.1 
				28.9,22.6 36.9,23.2 29.3,25.6 36.2,29.6 28.3,28.5 			"/>
			<polygon fill="#F8B64C" points="17.9,26.4 12.2,26 17.7,24.3 12.8,21.4 18.4,22.2 15.2,17.5 19.9,20.7 19.1,15.1 21.9,20 
				23.6,14.6 24.1,20.2 28,16.1 25.9,21.4 31.2,19.3 27.1,23.2 32.7,23.7 27.3,25.4 32.2,28.2 26.6,27.4 29.8,32.1 25.1,28.9 
				25.9,34.6 23,29.6 21.3,35.1 20.9,29.4 17,33.6 19.1,28.2 13.8,30.3 			"/>
			<polygon fill="#FFD15C" points="19.7,25.8 16.2,25.5 19.5,24.5 16.5,22.7 20,23.2 18,20.3 20.9,22.3 20.4,18.8 22.1,21.9 
				23.2,18.5 23.5,22 25.9,19.5 24.6,22.7 27.8,21.4 25.3,23.8 28.8,24.1 25.4,25.2 28.5,26.9 25,26.4 27,29.3 24.1,27.3 24.6,30.8 
				22.8,27.8 21.8,31.1 21.5,27.6 19.1,30.2 20.4,26.9 17.1,28.2 			"/>
		</g>
		<path fill="#CDD6E0" d="M23.7,23.6c-0.8-0.8-2-0.8-2.8,0L6.1,38.4c-0.8,0.8-0.8,2,0,2.8s2,0.8,2.8,0l14.8-14.8
			C24.5,25.6,24.5,24.4,23.7,23.6z"/>
		<g>
			<path fill="#F2F2F2" d="M10.3,39.7l-0.9,0.9l-3.4-2c0-0.1,0.1-0.1,0.1-0.2l0.7-0.7L10.3,39.7z"/>
			<polygon fill="#F2F2F2" points="13.7,36.3 12.8,37.2 9.4,35.2 10.2,34.3 			"/>
			<polygon fill="#F2F2F2" points="17.1,33 16.2,33.9 12.7,31.8 13.6,30.9 			"/>
			<polygon fill="#F2F2F2" points="20.5,29.6 19.6,30.5 16.1,28.5 17,27.5 			"/>
			<path fill="#F2F2F2" d="M23.7,26.3L23,27.1l-3.5-2l0.9-0.9l3.4,2C23.8,26.2,23.8,26.3,23.7,26.3z"/>
		</g>
	</g>
</g>
</svg>
