<?xml version="1.0" encoding="utf-8"?>
<!-- Generator: Adobe Illustrator 18.0.0, SVG Export Plug-In . SVG Version: 6.00 Build 0)  -->
<!DOCTYPE svg PUBLIC "-//W3C//DTD SVG 1.1//EN" "http://www.w3.org/Graphics/SVG/1.1/DTD/svg11.dtd">
<svg version="1.1" id="Layer_1" xmlns="http://www.w3.org/2000/svg" xmlns:xlink="http://www.w3.org/1999/xlink" x="0px" y="0px"
	 viewBox="0 0 48 48" enable-background="new 0 0 48 48" xml:space="preserve">
<g>
	<g>
		<g>
			<path fill="#415A6B" d="M38.5,48H9.5c-1.7,0-3-1.3-3-3V3c0-1.7,1.3-3,3-3h28.9c1.7,0,3,1.3,3,3v42C41.5,46.7,40.1,48,38.5,48z"/>
		</g>
		<rect x="10.5" y="5.9" fill="#FFFFFF" width="26.9" height="31.9"/>
		<circle fill="#344A5E" cx="24" cy="42.9" r="2.7"/>
		<g>
			<path fill="#344A5E" d="M27.1,3.7h-6.2c-0.4,0-0.8-0.4-0.8-0.8l0,0c0-0.4,0.4-0.8,0.8-0.8h6.2c0.4,0,0.8,0.4,0.8,0.8l0,0
				C27.9,3.4,27.6,3.7,27.1,3.7z"/>
		</g>
		<g>
			<path fill="#F05540" d="M31.3,16.1c0,0-4.6-2-4.6-5.9c0-1.3,1-2.3,2.3-2.3c1,0,1.9,0.7,2.2,1.6c0.3-0.9,1.2-1.6,2.2-1.6
				c1.3,0,2.3,1,2.3,2.3C35.8,14.1,31.3,16.1,31.3,16.1z"/>
		</g>
		<g>
			<g>
				<g>
					<path fill="#E8EAE9" d="M13.6,31l-0.9,6.9H21h6h8.3L34.4,31c-0.2-1.3-1.2-2.4-2.5-2.7L24,26.7l-7.9,1.6
						C14.8,28.6,13.8,29.7,13.6,31z"/>
				</g>
			</g>
			<g>
				<g>
					<g>
						<path fill="#55C0EB" d="M25,33.2l1-1c0,0-1.3-2-2-2c-0.7,0-2,2-2,2l1,1H25z"/>
					</g>
					<g>
						<polygon fill="#55C0EB" points="26.1,37.9 25,33.2 23,33.2 21.9,37.9 						"/>
					</g>
				</g>
				<g>
					<g>
						<path fill="#F7B64C" d="M20.8,24.2c0.5-2.1,1.9-3.4,3.2-4.3c1.3,0.9,2.6,2.2,3.2,4.3l0,2.3c-0.5,2.1-1.9,2.8-3.2,3.7
							c-1.3-0.9-2.6-1.6-3.2-3.7V24.2z"/>
					</g>
				</g>
				<g>
					<g>
						
							<ellipse transform="matrix(0.987 0.1605 -0.1605 0.987 3.9695 -4.2684)" fill="#FFD15C" cx="28.4" cy="22.4" rx="0.8" ry="1.4"/>
					</g>
					<g>
						
							<ellipse transform="matrix(-0.987 0.1605 -0.1605 -0.987 42.5186 41.4575)" fill="#FFD15C" cx="19.6" cy="22.4" rx="0.8" ry="1.4"/>
					</g>
				</g>
				<g>
					<path fill="#344A5E" d="M27.6,25.6c0.8-1.7,1.2-4.7,1.2-5.9c0-3.2-1.6-4.8-4.8-4.8c-3.2,0-4.8,1.6-4.8,4.8
						c0,1.2,0.5,4.2,1.2,5.9H27.6z"/>
				</g>
				<g>
					<path fill="#FFD15C" d="M28.4,22.2c0,3.4-2,6.2-4.4,6.2c-2.5,0-4.4-2.8-4.4-6.2c0-1.6,0.5-3.1,1.2-4.2c0.9,0.8,2,1.2,3.3,1.2
						c1.2,0,2.4-0.5,3.3-1.2C28,19.1,28.4,20.6,28.4,22.2z"/>
				</g>
			</g>
			<g>
				<g>
					<path fill="#F3F3F3" d="M27.2,26.5l1,0.9l-0.9,5.4c-0.7-0.8-2.1-2.3-3.3-2.6C25.3,29.4,26.6,28.3,27.2,26.5z"/>
				</g>
				<g>
					<path fill="#F3F3F3" d="M20.8,26.5l-1,0.9l0.9,5.4c0.7-0.8,2.1-2.3,3.3-2.6C22.7,29.4,21.4,28.3,20.8,26.5z"/>
				</g>
			</g>
		</g>
	</g>
</g>
</svg>
