<?xml version="1.0" encoding="utf-8"?>
<!-- Generator: Adobe Illustrator 18.0.0, SVG Export Plug-In . SVG Version: 6.00 Build 0)  -->
<!DOCTYPE svg PUBLIC "-//W3C//DTD SVG 1.1//EN" "http://www.w3.org/Graphics/SVG/1.1/DTD/svg11.dtd">
<svg version="1.1" id="Layer_1" xmlns="http://www.w3.org/2000/svg" xmlns:xlink="http://www.w3.org/1999/xlink" x="0px" y="0px"
	 viewBox="0 0 48 48" enable-background="new 0 0 48 48" xml:space="preserve">
<g>
	<path fill="#FF7058" d="M25.9,13.1v21.9c6,0,10.9-4.9,10.9-10.9S31.9,13.1,25.9,13.1z"/>
	<path fill="#40596B" d="M10.6,33.5H2c-1.1,0-2-0.9-2-2v-15c0-1.1,0.9-2,2-2h8.6V33.5z"/>
	<polygon fill="#334A5E" points="28.4,46.5 10.6,33.5 10.6,14.5 28.4,1.5 	"/>
	<g>
		<path fill="#FFD15C" d="M42.4,35.8c-0.3,0-0.6-0.1-0.9-0.4c-0.5-0.5-0.5-1.3,0-1.8c2.6-2.6,4-6,4-9.7s-1.4-7.1-4-9.7
			c-0.5-0.5-0.5-1.3,0-1.8c0.5-0.5,1.3-0.5,1.8,0c3,3,4.7,7.1,4.7,11.4s-1.7,8.4-4.7,11.4C43,35.6,42.7,35.8,42.4,35.8z"/>
	</g>
	<g>
		<path fill="#FFD15C" d="M39.2,32c-0.3,0-0.6-0.1-0.9-0.4c-0.5-0.5-0.5-1.3,0-1.8c1.6-1.6,2.4-3.6,2.4-5.8s-0.9-4.3-2.4-5.8
			c-0.5-0.5-0.5-1.3,0-1.8c0.5-0.5,1.3-0.5,1.8,0c2,2,3.1,4.7,3.1,7.6s-1.1,5.6-3.1,7.6C39.8,31.8,39.5,32,39.2,32z"/>
	</g>
	<polygon opacity="0.1" fill="#231F20" points="24.4,43.7 28.4,46.5 28.4,1.5 24.4,4.3 	"/>
	<path fill="#ACB3BA" d="M28.4,0L28.4,0c-1.4,0-2.5,1.1-2.5,2.5v42.9c0,1.4,1.1,2.5,2.5,2.5h0c1.4,0,2.5-1.1,2.5-2.5V2.5
		C30.9,1.1,29.8,0,28.4,0z"/>
</g>
</svg>
