<?xml version="1.0" encoding="utf-8"?>
<!-- Generator: Adobe Illustrator 18.0.0, SVG Export Plug-In . SVG Version: 6.00 Build 0)  -->
<!DOCTYPE svg PUBLIC "-//W3C//DTD SVG 1.1//EN" "http://www.w3.org/Graphics/SVG/1.1/DTD/svg11.dtd">
<svg version="1.1" id="Layer_1" xmlns="http://www.w3.org/2000/svg" xmlns:xlink="http://www.w3.org/1999/xlink" x="0px" y="0px"
	 viewBox="0 0 48 48" enable-background="new 0 0 48 48" xml:space="preserve">
<g>
	<g>
		<g>
			<g>
				<polygon fill="#F3705A" points="16.6,30.5 16.6,48.2 24,43.3 31.4,48.2 31.4,30.5 				"/>
			</g>
		</g>
		<g>
			<g>
				<g>
					<g>
						<circle fill="#FFD15C" cx="24" cy="17.7" r="17.9"/>
					</g>
				</g>
			</g>
			<g>
				<g>
					<g>
						<circle fill="#FFFFFF" cx="24" cy="17.7" r="12.6"/>
					</g>
				</g>
			</g>
			<g>
				<path fill="#415A6B" d="M31.9,11.8L31.9,11.8c-0.7-0.7-1.7-0.7-2.4,0L21.2,20l-2.7-2.7c-0.7-0.7-1.7-0.7-2.4,0
					c-0.7,0.7-0.7,1.7,0,2.4l3.9,3.9c0.7,0.7,1.7,0.7,2.4,0l9.4-9.4C32.5,13.5,32.5,12.5,31.9,11.8z"/>
			</g>
		</g>
	</g>
</g>
</svg>
