<?xml version="1.0" encoding="utf-8"?>
<!-- Generator: Adobe Illustrator 20.1.0, SVG Export Plug-In . SVG Version: 6.00 Build 0)  -->
<!DOCTYPE svg PUBLIC "-//W3C//DTD SVG 1.1//EN" "http://www.w3.org/Graphics/SVG/1.1/DTD/svg11.dtd">
<svg version="1.1" id="Layer_1" xmlns="http://www.w3.org/2000/svg" xmlns:xlink="http://www.w3.org/1999/xlink" x="0px" y="0px"
	 viewBox="0 0 49 49" enable-background="new 0 0 49 49" xml:space="preserve">
<g>
	<path fill="#FFD15C" d="M24.5,0.5c-13.3,0-24,3.8-24,8.5c0,0.8,0.3,1.5,0.8,2.2c1.9,2.6,3.1,5.7,3.1,9v26.3c0,1.1,0.9,2,2,2h36.3
		c1.1,0,2-0.9,2-2V20.2c0-3.2,1.1-6.4,3.1-9c0.5-0.7,0.8-1.4,0.8-2.2C48.5,4.3,37.8,0.5,24.5,0.5z"/>
	<circle fill="#F8B64C" cx="12.8" cy="10.6" r="3.4"/>
	<circle fill="#F8B64C" cx="23.5" cy="12.5" r="1.9"/>
	<circle fill="#F8B64C" cx="18.5" cy="18.9" r="2.4"/>
	<circle fill="#F8B64C" cx="38.4" cy="40.9" r="1.5"/>
</g>
</svg>
