<?xml version="1.0" encoding="utf-8"?>
<!-- Generator: Adobe Illustrator 19.0.1, SVG Export Plug-In . SVG Version: 6.00 Build 0)  -->
<svg version="1.1" id="Layer_1" xmlns="http://www.w3.org/2000/svg" xmlns:xlink="http://www.w3.org/1999/xlink" x="0px" y="0px"
	 viewBox="0 0 48 48" style="enable-background:new 0 0 48 48;" xml:space="preserve">
<style type="text/css">
	.st0{fill:#66C6B9;}
	.st1{fill:#F3F3F3;}
	.st2{fill:#415A6B;}
	.st3{fill:#CED6E0;}
	.st4{fill:#F3705A;}
	.st5{fill:#E8EAE9;}
	.st6{fill:#4ABAA5;}
	.st7{fill:#F05540;}
	.st8{fill:#FFD15C;}
	.st9{fill:#55C0EB;}
	.st10{fill:#8AD7F8;}
	.st11{fill:#344A5E;}
	.st12{fill:#FFFFFF;}
	.st13{fill:#F7B64C;}
	.st14{fill:#ADB3BA;}
	.st15{fill:#38A892;}
	.st16{fill:#ED9845;}
	.st17{fill:#2D4251;}
	.st18{fill:#304556;}
	.st19{fill:#A5AAAD;}
	.st20{fill:#2D4456;}
	.st21{fill:#4FB0E0;}
	.st22{fill:#2D4354;}
	.st23{fill:#E54C38;}
	.st24{fill:#2B4456;}
	.st25{fill:#2B404F;}
</style>
<g>
	<g>
		<g>
			<g>
				<g>
					<g>
						<g>
							<path class="st8" d="M10.7,28.6c0,0,0.2,1.1,0.2,1.9c0,0.8,0.1,2.2-0.7,3.3c-0.7,1.2,5.9,5,5.9,5l2.7-2.8
								c0,0-0.6-1.5-0.6-1.9c0-0.4,0.1-0.9,0.1-0.9s1.2-1,1.4-3.2c0.2-2.2,0.8-3.7,0.7-5.1c-0.1-1.4-0.1-2.8-0.5-3.5s-2.2-1.4-4-1.4
								s-4.9,1.2-5.1,2.3c-0.2,1.1-0.3,4.8-0.3,4.8L10.7,28.6z"/>
						</g>
					</g>
					<g>
						<g>
							<polygon class="st3" points="13.5,48 12.5,36.8 15.7,36.8 19.7,36.6 20.1,48 							"/>
						</g>
					</g>
					<g>
						<g>
							<path class="st7" d="M15.2,48c-0.3-2.6-0.6-5.7-0.6-6.4c0-1.2,0.1-2.3,0.1-2.3l0.2-1.2l0.8,0.5l0.2,0.6c0,0,0.1,0.8,0.4,1.5
								c0.4,0.7,1.5,3.7,1.8,7.3H15.2z"/>
						</g>
					</g>
					<g>
						<g>
							<path class="st4" d="M17.2,36.8c0,0-1.2,1.7-1.2,2.3c0,0-1-0.3-1.2,0.1c0,0,0.1-1.8-0.9-1.9l1-0.5h0.9H17.2z"/>
						</g>
					</g>
					<g>
						<g>
							<path class="st8" d="M20.8,28.3c-0.3,1.2-0.9,2-1.4,1.9s-0.8-1.1-0.5-2.2c0.3-1.2,0.9-2,1.4-1.9S21.1,27.1,20.8,28.3z"/>
						</g>
					</g>
					<g>
						<g>
							<path class="st2" d="M12.2,22.1c-0.1,0.2-0.2,0.5-0.1,0.7c0.1,0.3,0.2,0.8-0.1,1.4c-0.4,0.9-0.5,2.5-0.5,3h-0.5
								c0-0.4-0.1-1.1-0.4-1.2c-0.4-0.2-0.4-0.2-0.4-0.2s-0.7-2,0.1-4.8c0.8-2.7,4.4-2.9,5.3-2.9c0.9,0,4.1,0.5,4,2.7
								c0,0,1.1,0.4,0.9,2.6c-0.1,1.7-0.4,3.7-0.5,4.6H20c0.1-0.6,0.2-1.5,0.1-2c-0.2-0.7-0.1-1.3,0-2.2c0.1-0.9,0.1-1.8-0.7-2.3
								c-0.9-0.5-3.6,0.1-5.2-0.1C13,21.2,12.5,21.7,12.2,22.1z"/>
						</g>
					</g>
					<g>
						<g>
							<path class="st8" d="M9.3,27.3c0.1,1.2,0.6,2.1,1.2,2.1c0.6,0,0.9-1,0.9-2.1c-0.1-1.2-0.6-2.1-1.2-2.1
								C9.6,25.2,9.2,26.1,9.3,27.3z"/>
						</g>
					</g>
					<g>
						<path class="st13" d="M10.9,30.8c0,0,0,0,0.9,1.5c0.9,1.5,3.4,2.5,4.8,2.2c1.3-0.3,1.8-1.3,1.8-1.3s-0.1,0.5-0.1,0.9
							c0,0.4,0.6,1.9,0.6,1.9l-0.6,0.6c-2-0.3-4-1.1-5.3-2.3C11.1,32.7,10.9,30.8,10.9,30.8z"/>
					</g>
				</g>
				<g>
					<g>
						<path class="st1" d="M10.7,32.4c0,0,0,0.6,0.3,1.2c0.3,0.6,3.8,3.3,3.8,3.3c-1.1,0.4-1.9,1.2-2.7,2.1l-2.9-4.5
							c0,0,0.8-1,1.1-1.4C10.6,32.6,10.5,32.6,10.7,32.4z"/>
					</g>
				</g>
				<g>
					<g>
						<path class="st1" d="M18.2,34.1c0,0-0.1,0.9-0.6,1.4s-1.9,1.4-1.9,1.4s0.6,0,1,0.4c0.3,0.4,1.2,2.5,1.2,2.5s0.6-1.9,0.9-2.4
							c0.3-0.6-0.1-1.7-0.1-1.7S18.2,34.2,18.2,34.1z"/>
					</g>
				</g>
			</g>
			<g>
				<g>
					<g>
						<path class="st11" d="M25.1,48h-6.3c0.6-2.1,0.3-11.9,0.3-11.9h0.2c0,0,0.6,0.4,1.7,0.5c1.1,0.1,4.1,0.8,4.6,1.7
							c0,0,1.3,1.8-0.5,6.4L25.1,48z"/>
					</g>
				</g>
				<g>
					<g>
						<path class="st2" d="M19.9,48H18c0.7-3.3,0.5-10.1,0.4-10.9c-0.2-0.8,0-2.4,0-2.4c0.2,0.8,1.7,2.1,1.7,2.1l-0.2,0.2l1.2,0.5
							c0.8,3,0,6.8-1,10.1C19.9,47.8,19.9,47.9,19.9,48z"/>
					</g>
				</g>
				<g>
					<g>
						<path class="st11" d="M7.1,48c0.2-1.3,0.4-2.5,0.4-3c0.3-1.8-0.6-4.3-2.9-6.6c-1.8-1.8-3-1.4-3-1.4s1.2-0.6,2.8-0.9
							c1.6-0.2,4-1.5,4-1.5s2.4,2.6,4.4,5.7c1.1,1.6,2.5,4.9,3.6,7.7H7.1z"/>
					</g>
				</g>
				<g>
					<g>
						<path class="st2" d="M13.9,40c0.7,1.5,2.1,4.9,3.1,8h-1.1c-0.8-1.6-1.8-3.4-2.8-4.6c-2.5-3-4.3-5.7-4.3-5.7l0.9-0.8H8.4
							c0,0-0.2-1.5-0.3-1.9c-0.1-0.4,0.1-0.6,0.6-1c0.4-0.4,1.5-1.6,2.1-1.6c0,0-0.6,0.9-0.4,1.8S12.7,37.6,13.9,40z"/>
					</g>
				</g>
				<g>
					<g>
						<path class="st2" d="M8.4,48h-7c-0.3-0.7-0.5-1.3-0.5-1.8C0.5,44.3,0,40.9,0,39.5c0-1.4,1-2.2,1.6-2.5
							c0.6-0.2,1.8-0.2,1.8-0.2c1.3,0,4.3,3.1,4.1,7.2C7.5,45.1,7.8,46.5,8.4,48z"/>
					</g>
				</g>
				<g>
					<g>
						<path class="st2" d="M24.7,48c-0.3-1.1-0.2-2.3,0.3-3.4c-0.4-2.1-0.3-4.4,0.3-6.7c0,0,0.7,0.3,1.3,1.8
							c0.5,1.5,1.7,4.4,2.2,5.7c0.4,1.2,0.5,1.6,1.1,2.5H24.7z"/>
					</g>
				</g>
			</g>
		</g>
		<g>
			<g>
				<path class="st0" d="M48,3v12.4c0,1.7-1.3,3-3,3H32.2L24,23.7v-5.4h-0.3c-1.7,0-3-1.3-3-3V3c0-1.7,1.3-3,3-3H45
					C46.7,0,48,1.3,48,3z"/>
			</g>
		</g>
		<g>
			<g>
				<g>
					<path class="st12" d="M33.3,5.8l-0.4-1L32,5c-0.2-0.3-0.5-0.6-0.8-0.8l0.2-0.9l-1-0.4l-0.5,0.7c-0.4-0.1-0.7-0.1-1.1,0
						l-0.5-0.7l-1,0.4l0.1,0.9c-0.3,0.2-0.6,0.5-0.8,0.8l-0.9-0.2l-0.4,1l0.7,0.5c-0.1,0.4-0.1,0.7,0,1.1l-0.7,0.5l0.4,1l0.9-0.1
						c0.2,0.3,0.5,0.6,0.8,0.8l-0.2,0.9l1,0.4l0.5-0.7c0.4,0.1,0.7,0.1,1.1,0l0.5,0.7l1-0.4l-0.1-0.9C31.5,9.3,31.8,9,32,8.7
						l0.9,0.2l0.4-1l-0.7-0.5c0.1-0.4,0.1-0.7,0-1.1L33.3,5.8z M27.8,7.4c-0.3-0.8,0.1-1.8,0.9-2.1c0.8-0.3,1.8,0.1,2.1,0.9
						c0.3,0.8-0.1,1.8-0.9,2.1C29.1,8.7,28.2,8.3,27.8,7.4z"/>
				</g>
			</g>
			<g>
				<g>
					<path class="st12" d="M43.4,11.2l0-1.4l-1.2-0.3c-0.1-0.5-0.3-0.9-0.6-1.4l0.7-1l-1-1l-1,0.7c-0.4-0.3-0.9-0.5-1.4-0.6L38.6,5
						l-1.4,0l-0.3,1.2c-0.5,0.1-0.9,0.3-1.4,0.6l-1-0.7l-1,1l0.7,1c-0.3,0.4-0.5,0.9-0.6,1.4l-1.2,0.3l0,1.4l1.2,0.3
						c0.1,0.5,0.3,0.9,0.6,1.4l-0.7,1l1,1l1-0.7c0.4,0.3,0.9,0.5,1.4,0.6l0.3,1.2l1.4,0l0.3-1.2c0.5-0.1,0.9-0.3,1.4-0.6l1,0.7l1-1
						l-0.7-1c0.3-0.4,0.5-0.9,0.6-1.4L43.4,11.2z M35.4,10.5c0-1.3,1.1-2.4,2.4-2.4c1.3,0,2.4,1.1,2.4,2.4c0,1.3-1.1,2.4-2.4,2.4
						C36.5,12.9,35.4,11.8,35.4,10.5z"/>
				</g>
			</g>
		</g>
	</g>
</g>
</svg>
