<?xml version="1.0" encoding="utf-8"?>
<!-- Generator: Adobe Illustrator 19.0.1, SVG Export Plug-In . SVG Version: 6.00 Build 0)  -->
<svg version="1.1" id="Layer_1" xmlns="http://www.w3.org/2000/svg" xmlns:xlink="http://www.w3.org/1999/xlink" x="0px" y="0px"
	 viewBox="0 0 48 48" style="enable-background:new 0 0 48 48;" xml:space="preserve">
<style type="text/css">
	.st0{fill:#66C6B9;}
	.st1{fill:#F3F3F3;}
	.st2{fill:#415A6B;}
	.st3{fill:#CED6E0;}
	.st4{fill:#F3705A;}
	.st5{fill:#E8EAE9;}
	.st6{fill:#4ABAA5;}
	.st7{fill:#F05540;}
	.st8{fill:#FFD15C;}
	.st9{fill:#55C0EB;}
	.st10{fill:#8AD7F8;}
	.st11{fill:#344A5E;}
	.st12{fill:#FFFFFF;}
	.st13{fill:#F7B64C;}
	.st14{fill:#ADB3BA;}
	.st15{fill:#38A892;}
	.st16{fill:#ED9845;}
	.st17{fill:#2D4251;}
	.st18{fill:#304556;}
	.st19{fill:#A5AAAD;}
	.st20{fill:#2D4456;}
	.st21{fill:#4FB0E0;}
	.st22{fill:#2D4354;}
	.st23{fill:#E54C38;}
	.st24{fill:#2B4456;}
	.st25{fill:#2B404F;}
</style>
<g>
	<g>
		<g>
			<g>
				<g>
					<circle class="st9" cx="24" cy="24" r="24"/>
				</g>
				<g>
					<path class="st1" d="M40.7,30c0,0.1,0.1,0.1,0.1,0.2c0,0.1,0,0.1,0,0.2c0,0.1,0,0.3,0.1,0.3c0,0,0,0.1,0.1,0.2
						c0,0-0.1,0-0.1,0.1c0,0.1-0.1,0.2,0,0.3c-0.1,0.2-0.1,0.4-0.2,0.6c0,0-0.1,0.1-0.1,0.1c-0.1,0.3-0.2,0.5-0.3,0.7
						c-0.1,0.1-0.1,0.3-0.1,0.4c0,0.2,0,0.2-0.2,0.2c-0.2,0-0.3,0-0.5,0c0,0.1,0,0.1,0,0.1c-0.1,0.2-0.2,0.2-0.3,0
						c-0.1-0.1-0.2-0.1-0.3,0c-0.1,0.2-0.2,0.2-0.3,0.1c-0.1,0-0.2-0.1-0.2-0.1c0,0-0.1,0-0.1,0c0,0-0.1-0.1-0.2-0.1
						c0,0,0-0.1,0.1-0.1c0-0.1-0.1-0.3-0.1-0.4c-0.1-0.2-0.1-0.2-0.3-0.1c0,0,0,0-0.1,0c0,0,0,0,0,0c0-0.1,0.2-0.3,0-0.4
						c0,0.1-0.1,0.1-0.1,0.2c-0.1-0.1,0-0.2,0-0.2c0.1-0.1,0.1-0.2,0-0.3c0-0.1,0-0.2,0-0.2c0.1-0.2,0.1-0.3-0.2-0.4
						c0.1,0.2,0.1,0.4,0.1,0.6c0,0.1-0.1,0.2-0.2,0.3c-0.1,0.1-0.2,0.2-0.2,0.3c-0.1-0.1,0-0.2,0-0.2c-0.1-0.1-0.2-0.2-0.2-0.4
						c0-0.1-0.1-0.1-0.2-0.2c-0.1,0-0.2-0.1-0.2-0.2c0,0-0.1-0.1-0.1,0c0,0,0,0.1-0.1,0.1c0,0-0.1-0.1-0.1-0.1
						c-0.3,0-0.5,0.1-0.8,0.1c-0.1,0-0.3,0.1-0.4,0.1C35.1,32,35,32,35,32.1c-0.1,0-0.1,0.1-0.1,0.1c-0.1,0.1-0.1,0.1-0.2,0.1
						c-0.1,0-0.2,0-0.3,0c-0.2,0-0.4,0.1-0.5,0.2c-0.2,0.2-0.5,0.1-0.6-0.1c0,0-0.1-0.1-0.1-0.1c0.2-0.1,0.3-0.5,0.1-0.7
						C33,31.5,33,31.4,33,31.2c0-0.1,0-0.1,0-0.2c-0.1-0.2-0.2-0.4-0.2-0.6c0.2-0.1,0.2-0.3,0.1-0.5c0,0,0-0.1,0-0.2
						c0-0.1,0-0.2-0.1-0.3c0,0,0-0.1,0-0.1c0,0,0.1,0,0.1,0.1c0.2,0,0.2-0.3,0.3-0.4c0.1-0.1,0.2-0.2,0.2-0.1c0.1,0,0.2,0,0.3-0.1
						c0.1,0,0.1,0,0.2,0c0,0,0.1-0.1,0.1-0.1c0.1,0,0.2-0.1,0.3-0.1c0-0.1,0-0.2,0.1-0.3c0-0.1,0.1-0.1,0.2-0.2
						c-0.1,0-0.1,0-0.2-0.1c0.1-0.1,0.1-0.1,0.2-0.2c0,0.1,0,0.2,0.1,0.3c0,0,0.1,0,0.2,0.1c0-0.1,0-0.1,0-0.2c0.1,0,0.1,0,0.1,0
						c0-0.1,0-0.1,0-0.2c0,0-0.1,0-0.1-0.1c0.1-0.1,0.1-0.1,0.2-0.1c0-0.3,0.2-0.4,0.4-0.5c0,0,0,0,0.1,0c0.1,0,0.1-0.1,0.2,0
						c0.1,0.1,0.1,0.1,0.1,0.3c0,0,0,0.1,0,0.1c0.2,0.1,0.3,0,0.4-0.2c0-0.1,0.1-0.1,0.2-0.2c0,0,0-0.1,0-0.1c0-0.1,0-0.1,0.1-0.1
						c0.1,0,0.2,0,0.3,0c0,0,0-0.1,0-0.1c0.1-0.2,0.1-0.2,0.2-0.1c0.1,0.1,0.2,0.2,0.3,0c0.1-0.1,0.1,0,0.1,0c0,0.1-0.1,0.2-0.1,0.3
						c-0.1,0-0.1,0.3-0.3,0.2c0,0,0,0,0,0.1c0.1,0.1,0.2,0.2,0.3,0.2c0,0,0.1,0,0.1,0.1c0.1,0.2,0.2,0.2,0.3,0.1
						c0.1,0.2,0.2,0.2,0.2,0.5c0,0,0,0.1,0.1,0.1c0.1,0.1,0.1,0.1,0.2,0.1c0,0,0,0,0.1,0c0.1,0,0.1,0,0.2,0.1c0.1,0,0.1-0.2,0.2-0.3
						c0-0.1,0.1-0.2,0.1-0.3c0-0.1,0.1-0.2,0.1-0.3c0-0.1,0-0.1,0-0.2c-0.1-0.2-0.1-0.3-0.1-0.5c0-0.1,0.1-0.2,0.1-0.2
						c0-0.1,0-0.2-0.1-0.3c0.1-0.1,0.1,0,0.1,0c0,0.1,0,0.2,0.1,0.3c0,0.1,0,0.2,0.1,0.3c0,0.1,0,0.2,0,0.3c0,0.1,0.1,0.1,0.2,0.1
						v-0.2c0,0,0,0,0,0c0.1,0.1,0.1,0.1,0.1,0.3c0,0.1,0.1,0.3,0.1,0.4c0,0.1,0,0.1,0,0.2c0,0.2,0,0.3,0.1,0.4
						c0.1,0.1,0.2,0.2,0.3,0.2c0.2,0.1,0.3,0.3,0.3,0.6c0,0,0,0.1,0,0.1c0,0,0.1,0,0.1,0c0,0.1,0.1,0.2,0.2,0.3
						C40.6,29.6,40.7,29.8,40.7,30z"/>
					<path class="st1" d="M47.5,19.1c-0.1,0-0.1,0-0.2,0c-0.1,0.2-0.3,0.2-0.4,0.4c0.1,0,0.1,0.1,0.2,0.1c-0.1,0.1-0.1,0.2-0.2,0.3
						c-0.1-0.1-0.2,0-0.2,0c0-0.2,0.1-0.3,0.2-0.4c-0.1-0.2-0.2-0.2-0.4-0.1c0,0,0,0-0.1,0c-0.1,0-0.1,0.1-0.2,0.2
						c0,0.1-0.1,0.1-0.1,0.2c-0.1-0.1-0.2-0.1-0.2-0.2v-0.4c0,0,0.1,0,0.1,0c0-0.1,0-0.1,0-0.1c0,0,0.1,0.1,0.1,0.1
						c0,0,0.1,0,0.1-0.1c0,0,0,0,0.1-0.1c0.1,0,0.2,0.1,0.2,0.1c0,0,0,0.1,0,0.1c0.1,0.2,0.2,0.2,0.3,0c0.1-0.1,0.1-0.1,0.2-0.2
						c-0.1-0.1-0.3-0.2-0.4-0.2c0,0-0.1,0-0.1-0.1c-0.1-0.1-0.1-0.3-0.1-0.4c0.1-0.1,0.1-0.3,0.3-0.2c-0.1-0.1-0.1-0.1-0.2-0.2
						c0-0.1,0-0.2,0-0.3c0,0,0,0,0,0c0-0.2,0-0.4,0.1-0.5c0.1-0.1,0.1-0.2,0.2-0.3c-1-3.1-2.6-5.9-4.6-8.3c0,0-0.1,0-0.1,0
						c-0.1,0-0.2,0-0.3,0c-0.1,0-0.1-0.1-0.2,0c-0.1,0-0.2,0-0.2,0c0,0,0,0-0.1,0c-0.1,0.2-0.2,0.1-0.4,0.2c0-0.1-0.1-0.1,0-0.2
						c0,0,0-0.1,0-0.1C41,8.2,41,8.1,41,8.1c-0.1,0-0.1,0.1-0.2,0.1c0,0-0.1-0.1-0.1-0.1c-0.1,0.1-0.2,0.2-0.4,0.1
						c0,0-0.1,0-0.1,0.1c0,0.1,0,0.3,0.1,0.3c0.1,0,0.2,0,0.3,0.1c0,0,0,0,0,0c0-0.1-0.1-0.1-0.2-0.2c0-0.1,0.1-0.1,0.1-0.1
						c0.1,0.1,0.1,0.1,0.2,0.2c0.1,0.1,0.1,0.1,0,0.2c0,0,0,0.1,0,0.1c0,0,0,0.1,0,0.1c0,0,0,0.1,0,0.1c0.1,0.1,0.1,0.2,0,0.3
						c0,0.1,0.1,0.2,0.1,0.3c0,0,0.1,0,0.1,0c0.1,0.2,0.1,0.4,0,0.5c0,0,0,0.1,0,0.1c0,0.1,0.1,0.3,0.1,0.4c-0.1,0-0.1,0-0.2,0
						c-0.1,0-0.2-0.1-0.2-0.3c0-0.2,0-0.4-0.2-0.5c0.2-0.3,0.1-0.6,0-0.9c0,0-0.1,0-0.2,0c0,0,0,0.1,0,0.1c-0.1-0.1-0.3,0-0.5-0.2
						c0,0,0.1,0,0.1-0.1c-0.1-0.1-0.2,0-0.3,0.1c0,0,0,0.1,0.1,0.1c0,0-0.1,0-0.1,0.1c0.1,0,0.1,0,0.2,0.1c-0.1,0.1-0.2,0.2-0.3,0.2
						c0,0,0,0,0,0c0.1,0,0.2,0,0.3-0.1c0,0.1,0,0.1,0.1,0.2c0.1,0.2,0.1,0.2,0.2,0.1c0.1,0,0.1,0,0.2-0.1c0,0,0,0,0,0.1
						c0,0-0.1,0-0.1,0.1c0.1,0,0.1,0,0.1,0.1c0,0,0,0.1-0.1,0.1c-0.1,0-0.1,0-0.2,0c0,0-0.1,0.1-0.1,0.2C40,10,39.9,10,39.8,10.1
						c0.1,0.2,0.2,0.1,0.4,0.2c-0.1,0.1-0.3,0.2-0.4,0c-0.1-0.1-0.2-0.1-0.2,0c0,0-0.1,0-0.1,0c-0.2,0-0.4-0.1-0.5,0.2
						c-0.1-0.1-0.2-0.1-0.3-0.2c-0.1,0-0.1,0-0.2,0c0.1,0,0.1-0.1,0.2-0.1c0,0-0.1-0.1-0.1-0.1c-0.2,0-0.3,0-0.5,0.1
						c-0.1-0.3-0.2,0-0.3,0c0,0,0-0.1,0-0.1c-0.1,0-0.2,0-0.2,0c0,0,0,0,0,0c0,0,0-0.1,0-0.1c-0.1-0.1-0.1-0.1-0.2-0.1
						c0,0.1,0,0.1,0,0.2c-0.1,0-0.3,0-0.4,0.1c0,0-0.1,0-0.1,0c-0.1,0-0.2,0-0.2,0.1c0,0,0.1,0,0.1,0c0.1,0,0.2,0,0.3,0
						c0.1,0,0.1,0,0.1,0.1c-0.2,0-0.3,0-0.4,0c-0.1,0-0.1,0-0.2,0c-0.1,0-0.1,0-0.1,0.1c0,0,0.1,0.1,0.1,0.1
						c0.2,0.1,0.4,0.2,0.5,0.4c0,0.1,0.1,0,0.1,0c-0.1-0.1-0.2-0.1-0.2-0.3c0,0,0,0,0.1,0c0.1,0.1,0.2,0.1,0.3,0.1c0,0,0,0,0.1,0
						c0.1,0.1,0.2,0.1,0.4,0c0,0,0.1-0.1,0.1-0.2c0,0,0.1,0,0.2,0c-0.1,0-0.1,0.1-0.1,0.1c0.1,0.2,0.2,0.2,0.3,0
						c0,0-0.1-0.1-0.1-0.1c0.2,0.1,0.3,0.1,0.4,0.1c0.1-0.2,0.1-0.2,0.3,0c0,0.1-0.1,0-0.2,0.1c0.1,0,0.2,0.1,0.3,0.1
						c0.1,0,0.2,0,0.3,0c0.1,0,0.1-0.1,0.2-0.1c0.1,0,0.2,0.1,0.4,0.1c0,0,0,0,0,0c-0.2,0-0.4,0.1-0.5,0.1c0.2,0.1,0.3,0.1,0.4,0.3
						c0.1,0.1,0.2,0.1,0.3,0.2c0.1,0.1,0.2,0.2,0.3,0.3c-0.1-0.1-0.2-0.1-0.3-0.2c-0.1-0.1-0.2-0.1-0.3-0.2
						c-0.1-0.1-0.3-0.1-0.4-0.2c-0.1-0.1-0.2-0.1-0.3-0.2c-0.1,0-0.1,0-0.2,0.1c-0.2-0.2-0.2-0.2-0.3-0.1c0,0,0.1,0.1,0.1,0.1
						c-0.1,0.1-0.2,0-0.3,0.2c0,0,0,0,0,0c0-0.1,0-0.1,0-0.2c0,0,0.1,0,0.1-0.1c-0.1,0-0.2,0-0.3,0c-0.1,0-0.2,0-0.2,0.1
						c0,0,0.1,0,0.1,0c-0.1,0.1-0.1,0-0.2,0c0-0.1-0.1-0.1-0.1-0.2c-0.2-0.1-0.2,0-0.2,0.3c0.1,0,0.2,0,0.2,0c0,0.2-0.1,0.1-0.2,0.1
						c-0.2,0-0.3,0.1-0.3,0.4c0.3,0,0.6,0.1,0.9,0.2c-0.2,0.1-0.3-0.1-0.4,0.1c-0.1-0.1-0.2-0.1-0.3-0.1c-0.1,0-0.2-0.1-0.4,0
						c-0.1,0.1-0.2,0.2-0.3,0.3h0c0.1-0.2,0-0.2-0.1-0.3c0,0,0.1,0,0.2,0c0-0.1-0.1-0.1-0.1-0.1c0.1-0.1,0.1-0.1,0.2-0.2
						c-0.1-0.1-0.1-0.3-0.2-0.3c-0.1,0-0.1,0-0.2-0.1c0-0.1-0.1-0.1-0.2-0.1c0.1,0,0.2,0,0.3,0c0.1,0,0.2,0,0.3,0.1
						c0.1,0.1,0.1,0.1,0.3,0c-0.1-0.1-0.3-0.2-0.3-0.4c0,0,0-0.1-0.1-0.1c-0.1,0-0.3-0.2-0.4-0.1c0,0,0,0,0,0c0,0,0,0,0,0
						c0-0.2-0.1-0.2-0.2-0.1c-0.1,0.1-0.2,0.2-0.3,0.3c-0.1,0.1-0.1,0-0.1,0c0-0.1,0-0.2,0.1-0.2c0,0-0.1-0.1-0.1-0.1
						c0-0.1,0.1-0.1,0.1-0.1c0-0.1-0.1-0.1-0.1-0.2c0,0,0,0,0,0c0.1,0,0.2,0.1,0.2,0.1c0,0,0,0.1,0,0.1c0,0,0.1,0,0.1,0
						c0.1,0.1,0.2,0,0.3,0.1c0,0,0.1,0,0.1-0.1c0,0-0.1,0-0.1,0c0.1,0,0.1,0,0.2-0.1c0,0,0.1-0.1,0.1-0.1c0-0.1,0-0.1-0.1-0.1
						c-0.1,0-0.1,0-0.2,0c0.1-0.1,0.1-0.1,0.2-0.1c-0.1-0.1-0.1-0.1-0.2-0.2c0,0,0.1,0,0.1,0c0.1,0.1,0.1,0.1,0.2,0
						c0-0.1,0.1-0.1,0.2-0.1c0.2,0,0.3-0.1,0.5-0.2c-0.1-0.1-0.1-0.1-0.1-0.1c0.1,0,0.2,0.1,0.3,0c-0.1,0-0.2-0.1-0.2-0.1
						C36.9,9,36.8,9,36.8,9c-0.2-0.1-0.4-0.2-0.6-0.1c0,0,0,0,0,0c0-0.1,0-0.1,0-0.2c-0.2,0-0.4-0.1-0.6-0.1
						c-0.1,0.2,0.1,0.2,0.1,0.3c-0.1,0.1-0.3,0.1-0.4,0.2c-0.2-0.3-0.3-0.3-0.5,0c0,0,0,0-0.1,0c0,0,0,0-0.1-0.1
						c-0.1-0.1-0.1-0.1-0.2,0c0,0-0.1,0.1-0.2,0.1c-0.1,0-0.2,0.1-0.2,0.3c0,0.1-0.1,0.2-0.2,0.2c0,0-0.1,0.1-0.1,0.1
						c0,0-0.1,0-0.1,0.1c0.1-0.3,0.1-0.4-0.2-0.4c-0.1,0-0.2-0.1-0.3-0.1c0.1,0,0.1,0,0.2,0c0.1,0,0.2,0,0.3-0.1c0-0.1,0-0.1,0-0.2
						c-0.1,0-0.1,0.1-0.2,0c0,0-0.1,0-0.1,0.1c0,0-0.1,0.1-0.1,0.1c-0.1,0-0.1,0-0.2,0.1c-0.1,0-0.1,0-0.2,0c0,0.1,0,0.2,0.1,0.3
						c0,0-0.1,0-0.1,0c0,0-0.1,0-0.1,0v0.2c-0.1,0-0.2,0-0.2-0.1c0,0-0.1,0-0.1,0.1c0,0,0,0.1,0.1,0.2c-0.1,0-0.2-0.1-0.2,0
						C32,10,31.9,10,31.8,10.1c-0.1,0.1-0.2,0.1-0.2,0.1c0,0,0,0.1,0,0.1c-0.1,0.2,0,0.2,0.1,0.2c0.1,0,0.2,0.1,0.3,0.2c0,0,0,0,0,0
						c-0.1,0-0.2,0-0.3,0c0-0.2-0.1-0.2-0.2-0.2c-0.1,0-0.2,0-0.2-0.1c-0.1-0.1-0.2-0.1-0.2-0.1c0,0-0.1,0.1-0.1,0.2
						c-0.1-0.2-0.3-0.2-0.5-0.2c-0.1,0-0.3-0.1-0.4-0.1c0,0,0,0-0.1,0c0-0.1-0.1-0.2-0.1-0.2c0-0.1,0-0.1,0-0.2
						c-0.1,0-0.3,0-0.4-0.2c0.1,0,0.3,0,0.4,0c0.2,0.1,0.4,0.1,0.6,0.2c0.2,0.1,0.4,0,0.6,0c0.1,0,0.2-0.1,0.3-0.2
						c-0.1-0.1-0.1-0.2-0.2-0.2c-0.1,0-0.2-0.1-0.3-0.1c-0.2-0.1-0.4-0.2-0.6-0.2c-0.2-0.1-0.4-0.1-0.6,0c-0.1-0.1-0.2-0.2-0.4-0.2
						c-0.1,0-0.2,0-0.4,0c0,0,0,0,0,0c0.1,0,0.1-0.1,0.2-0.1c0,0,0,0,0,0c-0.2,0-0.3-0.2-0.5,0c0,0,0-0.1,0-0.1
						c-0.2-0.2-0.2,0.1-0.3,0.1c0,0,0,0,0-0.1c0,0,0,0,0-0.1c-0.1,0.1-0.2,0.2-0.3,0.2c0,0,0,0,0,0c0.1-0.1,0.1-0.1,0.2-0.2
						c-0.2,0-0.5,0.1-0.7,0.1c0,0,0,0,0.1,0c-0.1,0-0.2,0.1-0.4,0.1C27,8.4,27,8.7,26.9,8.7c-0.1-0.1-0.1-0.1-0.2-0.1
						c-0.1,0.1-0.2,0.1-0.3,0.1c0,0,0,0-0.1,0.1c0,0,0,0,0.1,0.1c-0.1,0.2-0.2,0-0.3,0c0,0,0,0.1,0,0.1c0,0.2,0.1,0,0.2,0.1
						c-0.1,0-0.2,0.1-0.2,0.1c-0.1,0.1-0.1,0.1-0.2,0.2c-0.1,0.1-0.1,0.1-0.2,0.2c-0.1,0.1-0.2,0.3-0.3,0.4
						c-0.1,0.1-0.2,0.1-0.3,0.2c-0.1,0.2-0.3,0.2-0.5,0.3c-0.2,0.1-0.3,0.2-0.5,0.2c-0.1,0-0.1,0.1-0.1,0.1
						c-0.1,0.3,0.1,0.5,0.1,0.7c0.1,0.1,0,0.1,0,0.2c0.1,0.1,0.3,0.2,0.5,0.1c0.2-0.1,0.3-0.2,0.5-0.4c0,0,0.1,0.1,0.1,0.2
						c0.1,0.2,0.2,0.4,0.3,0.6c0,0,0,0.1,0,0.1c0,0.2,0.1,0.2,0.3,0.2c0,0,0-0.1,0-0.1c0.1,0,0.3,0,0.4-0.1c0.1-0.2,0.1-0.3,0.1-0.5
						c0,0-0.1,0-0.1,0c0,0,0.1,0,0.2-0.1c-0.1-0.1-0.2-0.1-0.4-0.1c0.2-0.1,0.3-0.1,0.5-0.2c-0.1,0-0.1,0-0.1,0c0-0.1,0-0.2,0-0.2
						c0-0.1,0-0.2,0.1-0.3c0.1-0.2,0.3-0.3,0.5-0.4c0.1,0,0.2-0.1,0.2-0.1c0,0,0.1-0.1,0.1-0.1c0-0.2,0.1-0.3,0.1-0.4
						c0.1,0,0.3,0,0.4,0c0.1,0,0.3,0,0.4,0.1c0.1,0.1,0.1,0.1,0.1,0.3h-0.2c-0.2,0.2-0.3,0.3-0.4,0.5c-0.1,0-0.2,0-0.3,0.1
						c0,0.1,0.1,0.1,0.1,0.2c0,0.1,0,0.2,0.1,0.3c0.2,0.2,0.4,0.2,0.6,0c0.1,0,0.2-0.1,0.3-0.1c0.3,0,0.5-0.1,0.7-0.2
						c0.1-0.1,0.2-0.1,0.2,0c0.2,0.1,0.3,0.2,0.5,0.2c0,0.1,0,0.2-0.1,0.3c0,0-0.1,0.1-0.1,0.1c-0.1,0.1-0.1,0.1-0.1,0.3
						c0,0-0.1,0.1-0.1,0.1c0,0.1-0.1,0.2-0.1,0.1c-0.1-0.1-0.1-0.1-0.2-0.1c0,0-0.1,0-0.1,0c0.1-0.1,0.2-0.2,0.3-0.3
						c-0.1-0.2-0.2-0.2-0.4-0.2c-0.1,0-0.1,0.1,0,0.2c-0.1,0-0.2,0-0.2,0.1c0,0.1,0,0.3,0.2,0.2c-0.1,0.1-0.1,0.1-0.2,0.2
						c0-0.2-0.1-0.2-0.2-0.3c-0.1-0.1-0.2-0.1-0.3,0c0-0.1,0-0.1-0.1-0.1c-0.2,0.2-0.2,0.2-0.2,0.5c0,0.1,0,0.1,0,0.2
						c0,0.1-0.1,0.1-0.1,0.2c0,0-0.1,0-0.1,0.1c0.1-0.2,0.1-0.2,0-0.3c0,0,0-0.1-0.1-0.1c0-0.1-0.1-0.1-0.1-0.2
						c-0.1,0.1-0.1,0.1-0.1,0.2c0,0,0,0-0.1-0.1c0,0.1,0,0.2,0,0.3c0.1,0.1,0.1,0.1,0.2,0.1c0.1,0,0.1,0,0.2,0.2
						c-0.2,0.1-0.3,0.1-0.5,0.1c0,0-0.1-0.1-0.1-0.1c-0.1,0.1-0.2,0.2-0.3,0.2c0-0.1,0-0.1,0-0.2c0-0.1-0.1-0.1-0.2-0.1
						c-0.2,0.1-0.4,0.2-0.6,0.3c0,0.1,0,0.1,0,0.1c-0.1,0-0.1,0-0.2,0c0,0,0,0.1,0,0.1c0,0,0,0,0.1,0c0,0.1-0.1,0.2-0.2,0.2
						c0,0-0.1,0-0.1,0c-0.1,0-0.1,0-0.2,0c-0.1,0-0.1,0-0.2,0c0-0.1-0.1-0.1-0.1-0.2c0-0.1-0.2-0.1-0.2-0.1c0,0,0,0.1-0.1,0.1
						c0.1,0,0.1,0.1,0.2,0.1c0,0,0,0,0,0h-0.5v0.1c-0.1,0-0.1,0-0.2-0.1c0,0.1,0,0.2,0,0.3c-0.1,0-0.1,0-0.2,0
						c-0.1,0-0.1,0.1-0.2,0.1c-0.1,0-0.2,0-0.2,0.1c-0.1,0.1-0.2,0.1-0.3,0c0,0-0.1-0.1-0.2-0.1c0,0,0,0.1,0,0.1
						c-0.1,0.1-0.3,0-0.4,0.3c0,0-0.1,0-0.1,0c-0.1,0-0.1,0-0.2,0.1c0,0.2-0.1,0.1-0.2,0.1c-0.2-0.1-0.3-0.1-0.5,0
						c0.1,0.1,0.1,0.1,0.2,0.1c0.1,0,0.3,0.2,0.4,0c0,0.1,0.1,0.1,0.1,0.2c0,0.1,0,0.1,0,0.2c0.1,0,0.1,0.1,0.2,0.1
						c0.1,0.1,0,0.3,0.1,0.4c0,0.1-0.1,0.1-0.1,0.2c-0.1,0.1-0.1,0.1,0,0.2c-0.1,0.1-0.3,0.1-0.4,0.1c-0.3,0-0.6,0-0.9-0.1
						c-0.2-0.1-0.3,0.1-0.5,0.1c0,0.1,0.1,0.1,0.1,0.2c0,0.1,0,0.2,0,0.3c0,0.2,0,0.3-0.1,0.4c0,0.1-0.1,0.2-0.1,0.3c0,0,0,0,0,0
						c0,0,0.1-0.1,0.1-0.2c0,0.2,0,0.4,0,0.6c0.2,0,0.3,0,0.5,0c0.1,0,0.1,0,0.2-0.1c0,0.1,0,0.2-0.1,0.3c0,0,0.1,0.1,0.1,0.1
						c0.1-0.1,0.3-0.2,0.5-0.2c0.1,0,0.1,0,0.2,0c0,0,0.1,0,0.1,0c0.1-0.2,0.3-0.3,0.4-0.5c0,0-0.1-0.1-0.1-0.1
						c0.1-0.2,0.2-0.3,0.3-0.4c0,0,0.1,0,0.1-0.1c0.1-0.1,0.3-0.1,0.4-0.2c0-0.2,0-0.3,0-0.4c0.1-0.1,0.2-0.1,0.2-0.1
						c0.1,0,0.1,0,0.2,0c0.2,0.2,0.3,0.2,0.5,0c0,0,0,0,0.1,0c0.1,0,0.1-0.1,0.2-0.1c0.1-0.1,0.2-0.1,0.2,0c0.1,0.1,0.2,0,0.2,0.2
						c0,0,0,0.1,0.1,0.1c0.2,0.2,0.3,0.3,0.5,0.4c0.1,0,0.2,0.1,0.3,0.2c0,0,0.1,0.1,0.1,0.1c0.2,0,0.2,0.2,0.2,0.3
						c0,0.1-0.1,0.2-0.1,0.3c0.2-0.1,0.2-0.3,0.3-0.4c-0.1-0.1-0.1-0.1-0.1-0.1c0-0.3,0.2-0.2,0.3-0.2c-0.1-0.2-0.3-0.2-0.5-0.3
						c0,0,0.1-0.1,0.1-0.1c-0.3,0-0.4-0.1-0.5-0.3c0-0.1-0.1-0.1-0.2-0.2c-0.1-0.1-0.3-0.1-0.4-0.2c-0.1,0-0.2-0.1-0.3-0.1
						c0-0.1,0.1-0.1,0.1-0.1c0.1,0,0.2,0,0.3-0.1c0.1,0,0.1-0.1,0.2-0.1c0.1,0,0.2,0,0.1,0.2c0,0,0,0.1,0.1,0.1c0,0,0.1,0,0.1-0.1
						c0.1,0.2,0.2,0.4,0.4,0.5c0,0,0.1,0,0.2,0.1c0.2,0.1,0.3,0.2,0.5,0.3c0,0.1,0,0.3,0,0.4c0.1,0.1,0.2,0.2,0.3,0.4c0,0,0,0,0,0
						c0,0.1,0.1,0.1,0.1,0.2c-0.1,0.1,0.1,0.2,0,0.3c0.1,0,0.2,0,0.3,0.1c0-0.1,0-0.1-0.1-0.2h0.1c0,0,0-0.1,0-0.1
						c0.1,0,0.2,0,0.3-0.1c-0.1-0.1-0.1-0.2-0.2-0.2c0,0-0.1-0.1-0.1-0.1c0-0.2-0.1-0.3-0.2-0.4c0,0,0,0,0.1,0
						c0.1,0.1,0.3,0.1,0.3,0c0.1-0.2,0.3,0.1,0.4-0.1c0,0,0,0,0,0c0.1,0.2,0.1,0.1,0.2,0c0.1-0.1,0.3-0.1,0.4,0
						c-0.1,0.1-0.1,0.1-0.2,0.1c0,0-0.1,0-0.1,0c-0.1,0-0.3,0-0.3,0c0,0.1,0,0.2-0.1,0.3c0.1,0.1,0-0.2,0.1-0.1c0,0.1,0,0.2,0.1,0.3
						c-0.1,0-0.1,0-0.1,0c0,0,0,0,0,0.1c0.2,0,0.2,0.2,0.3,0.3c0.1,0.1,0.3,0,0.4,0.2c0,0,0.1,0,0.1,0c0.1,0,0.1-0.2,0.2-0.2
						c0.1,0.1,0.2,0.1,0.3,0.2c0.1,0.1,0.1,0.1,0.2,0.1c0.1,0,0.2-0.1,0.2-0.1c0.1-0.1,0.2-0.1,0.3-0.1c0,0,0-0.1,0-0.1
						c0.1,0.1,0,0.2,0,0.3c0,0.3,0,0.5-0.1,0.7c0,0.1,0,0.1-0.1,0.2c0,0.3-0.2,0.4-0.3,0.4c-0.1,0-0.1,0.1-0.2,0.1
						c0.1,0.3,0.1,0.6,0.4,0.8c0-0.1,0.1-0.2,0.1-0.3c0,0,0,0,0,0c0,0.1,0,0.1,0,0.2c0,0.1,0.1,0.1,0.1,0.2c0.1,0.2,0.2,0.3,0.3,0.5
						c0,0.1,0.1,0.2,0.1,0.3c0,0.1,0,0.1,0.1,0.2c0.2,0.1,0.3,0.3,0.3,0.6c0,0.2,0.1,0.3,0.2,0.4c0.2,0.1,0.2,0.3,0.3,0.5
						c0,0.1,0.1,0.2,0.1,0.2c0.1,0.1,0.2,0.2,0.2,0.4c0,0.3,0.1,0.5,0.1,0.8c0,0.1,0.1,0.2,0.2,0.2c0.2-0.1,0.4-0.2,0.6-0.3
						c0,0,0,0,0,0c0.1-0.1,0.3-0.1,0.4-0.3c0,0,0,0,0.1,0c0.2-0.1,0.3-0.1,0.5-0.2v-0.2c0.1-0.1,0.3-0.2,0.4-0.2
						c0.1,0,0.2,0,0.3-0.2c0,0,0.1,0,0.1-0.1c0,0,0.1,0,0.1,0c0-0.3,0.2-0.2,0.2-0.3c0-0.1,0-0.1,0-0.2c0,0,0-0.1,0-0.1
						c-0.1,0-0.1-0.1,0-0.1c0,0,0.1-0.1,0.1-0.1c0.2,0,0.2-0.1,0.3-0.3c0,0,0-0.1,0-0.1c0-0.1-0.1-0.1-0.1-0.2
						c0-0.1-0.1-0.1-0.2-0.1c-0.3,0-0.4-0.2-0.4-0.6c0,0,0-0.1,0-0.1c-0.1,0.2-0.2,0.4-0.3,0.5c0,0.1-0.1,0.1-0.2,0.1
						c0,0-0.4,0.2-0.5,0.3c-0.1,0-0.1-0.2-0.1-0.3c-0.1-0.1-0.1-0.1-0.1-0.1c-0.1-0.1-0.1-0.2-0.2-0.3c0-0.1-0.1-0.1-0.1-0.2
						c0,0,0-0.1-0.1-0.1c-0.1-0.1-0.2-0.2-0.2-0.4c0-0.1,0-0.2-0.1-0.3c0-0.3-0.2-0.3-0.3-0.3c-0.2-0.1-0.3-0.2-0.4-0.4
						c0,0,0,0,0-0.1c0-0.1,0-0.1-0.1-0.1c0,0-0.1-0.1-0.1-0.1c0,0,0-0.1,0.1-0.1c0,0,0,0-0.1,0c0.1-0.1,0.1-0.2,0.2-0.3
						c0.1,0.1,0.2,0.1,0.3,0.2c0.2,0.2,0.4,0.3,0.6,0.5c0.1-0.1,0.2-0.1,0.2,0c0.1,0.3,0.2,0.4,0.4,0.6c0.1,0.1,0.1,0.1,0.1,0.2
						c0,0.1,0.1,0.2,0.1,0.2c0.1,0.1,0.2,0.1,0.3,0.2c0.2,0.1,0.3,0.2,0.5,0c0.1-0.1,0.2-0.1,0.3-0.1c0,0.1,0,0.2,0,0.2
						c0,0.1,0,0.2,0.2,0.2c0.1,0,0.3,0,0.4,0.1c0.1,0,0.3,0,0.4,0c0.1,0,0.1,0.1,0.2,0.1c0.1-0.1,0.3,0,0.4,0c0.2,0,0.3,0,0.4-0.2
						c0,0.1,0,0.2,0.1,0.3c0.1,0.1,0.2,0.1,0.3,0c0-0.1,0-0.2-0.2-0.4c0-0.2,0-0.3,0-0.5c0.1,0,0.1,0,0.2,0c0,0,0.1,0,0.1,0.1
						c0,0.2,0.1,0.2,0.1,0.3c0.1,0.2,0.2,0.4,0.1,0.6c0.2,0.1,0.3-0.1,0.4-0.2c0,0.1,0,0.1,0,0.1c0,0.2,0,0.4,0.1,0.5
						c0.1,0.1,0.2,0.2,0.2,0.3c0,0-0.1,0.1-0.1,0.1c0,0.1,0,0.2-0.1,0.4c0,0.1,0,0.2,0,0.2c0,0.1,0,0.1,0,0.2c0,0.3,0,0.5,0.1,0.8
						c0.1,0.2,0.1,0.3,0.2,0.5c0,0.1,0.1,0.2,0.1,0.2c0,0.2,0,0.3,0.1,0.4c0,0,0.1,0.1,0.1,0.2c0.1,0.2,0.1,0.4,0.2,0.6
						c0,0.1,0.1,0.2,0.1,0.2c0.1-0.1,0.1-0.2,0.2-0.3c0.1-0.1,0.2-0.2,0.1-0.4c0,0,0,0,0,0c0.1-0.2,0.1-0.4,0.2-0.6c0,0,0-0.1,0-0.1
						c-0.1-0.2,0-0.5,0-0.7c0-0.1,0-0.1,0-0.2c0,0,0.1,0,0.1,0c0.1-0.1,0.3-0.1,0.4-0.2c0.1-0.1,0.2-0.3,0.3-0.3c0,0,0-0.1,0.1-0.1
						c0,0,0-0.1,0-0.1c0.1-0.1,0.2-0.2,0.2-0.3c0-0.1,0.2-0.2,0.2-0.3c0.2-0.2,0.2-0.5,0.2-0.8c0,0,0-0.1,0-0.1c-0.1,0-0.3,0-0.4,0
						c-0.1,0-0.3-0.1-0.4-0.2c0-0.1,0.1-0.1,0.1-0.1c0.1,0,0.2-0.1,0.3-0.1c0.2,0,0.3,0.1,0.5,0.1c0,0,0.1,0,0.1,0
						c0.2-0.1,0.4,0,0.5-0.1c0.1,0,0.1,0,0.2,0c0,0,0,0,0.1,0.1c-0.1,0-0.2,0-0.2,0c-0.1,0.1-0.2,0.1-0.2,0.1
						c-0.1,0-0.1,0.1-0.1,0.2c0.2,0.1,0.4,0,0.6,0.2c0,0,0,0,0,0c0,0-0.1,0-0.1,0.1c-0.2,0.1-0.2,0.2-0.1,0.3
						c0.1,0.1,0.1,0.3,0.1,0.4c0,0.1,0,0.3,0.2,0.2c0,0,0,0,0.1,0.1c0,0,0,0.1,0,0.1c0.1,0.1,0.1,0.3,0.2,0.5c0,0.1,0,0.2,0,0.2h0
						c0-0.1,0.1-0.2,0.1-0.4c0.2,0,0.1,0.2,0.2,0.3c0.2-0.1,0-0.3,0.1-0.4c0,0.1,0.1,0.2,0.1,0.3c0,0.1,0.1,0.1,0.1,0.1
						c0.1-0.1,0.1,0,0.2,0.1c0,0.1,0,0.2,0,0.3c-0.1,0.1,0,0.3,0,0.4c0,0.1,0.1,0.2,0.1,0.3c0.1,0.2,0.1,0.4,0.1,0.7
						c0,0.2-0.1,0.4-0.1,0.6c0.1,0.1,0.3,0.2,0.3,0.4c0,0.1,0,0.1,0.1,0.1c0.1,0.1,0.1,0.1,0.1,0.2c0,0.1,0,0.3,0,0.3
						c0.1,0.1,0.1,0.3,0.2,0.4c0,0.1,0.1,0.2,0.2,0.2c0.1-0.2,0.1-0.4,0.2-0.6c0,0,0-0.1-0.1-0.1c0-0.1-0.1-0.2-0.2-0.2c0,0,0,0,0,0
						c0-0.2-0.2-0.2-0.3-0.3c-0.1-0.1-0.1-0.2-0.2-0.3c0-0.1,0-0.2,0-0.3c0,0,0,0,0,0c0,0.1-0.1,0.1-0.1,0.2c0-0.3-0.1-0.5,0-0.7
						c0.1-0.2,0.2-0.5,0.1-0.8c0,0,0-0.1,0-0.1c0.1-0.2,0-0.4,0-0.5c0-0.1,0-0.2,0-0.3c0,0,0-0.1,0.1-0.1c0.1,0.2,0.2,0.3,0.1,0.6
						c0,0,0,0,0,0.1c0.1,0.1,0.1,0.3,0.3,0.3c0,0,0,0,0.1,0.1c-0.1,0.1-0.2,0.1-0.2,0.3c0.2-0.1,0.3,0,0.4,0.2
						c0,0.1,0.1,0.2,0.1,0.2c0.1,0,0.1,0.1,0.1,0.2c0,0,0.1-0.1,0.1-0.1c0.1-0.1,0-0.2,0-0.3c0-0.1-0.1-0.1-0.1-0.1
						c-0.1,0-0.2-0.2-0.3-0.3c0.1-0.1,0.1-0.1,0.2-0.2c0,0.2,0.1,0.3,0.2,0.3c0.1,0,0.2,0.1,0.1,0.3c0.1,0,0.1-0.1,0.1-0.2
						c0.1,0.1,0,0.2,0,0.3c0.1,0.1,0.2,0.2,0.3,0.4c0.1-0.1,0.2-0.1,0.3-0.2c0,0,0.1-0.1,0.1-0.1c0-0.3,0-0.7-0.1-1
						c0-0.1-0.1-0.2-0.1-0.2c-0.2-0.1-0.3-0.3-0.3-0.5c-0.1,0-0.2-0.1-0.2-0.2c0.1-0.1,0.1-0.1,0-0.2c0,0,0-0.1,0-0.1
						c0.1-0.1,0-0.1,0-0.2c0,0-0.1-0.1-0.1-0.1c0.1,0,0.2-0.1,0.3,0.1c0,0.1,0.1,0.1,0.2,0c0.1-0.1,0.2-0.2,0.3-0.3
						c0.1,0,0.1,0.1,0.2,0.1c0.1,0,0.1,0.1,0.2,0c0.1-0.1,0.1,0,0.2,0.1c0.1-0.2,0.2-0.1,0.3-0.1c0-0.1,0-0.1,0-0.1
						c0,0,0.1,0,0.1-0.1c0-0.1-0.1-0.2,0-0.3c0.1,0,0.2,0.1,0.2,0.1v0.3c0.1-0.2,0.3-0.2,0.5-0.3c0,0-0.1-0.1-0.1-0.1
						c0.1-0.1,0.3-0.1,0.3-0.2c0.1-0.2,0.2-0.2,0.3-0.4c0,0,0-0.1,0.1-0.1c0-0.1,0-0.1,0.1-0.2C47.7,19.9,47.6,19.5,47.5,19.1z"/>
					<g>
						<path class="st1" d="M8.5,41.9C8.5,41.9,8.5,41.9,8.5,41.9c0-0.1-0.1-0.1-0.2-0.1c0,0-0.1,0.1-0.1,0.1c0,0-0.1,0.1-0.1,0.1
							c0.1,0.1,0.3,0.2,0.4,0.4c0.2-0.1,0.3-0.1,0.5-0.1c0,0,0,0,0.1,0C8.9,42.1,8.7,42,8.5,41.9z"/>
						<path class="st1" d="M15.1,28.9c0,0,0-0.1,0-0.1C15,28.8,15,28.8,15.1,28.9c-0.2-0.1-0.2-0.1-0.2-0.1
							c-0.2-0.4-0.5-0.5-0.8-0.4c0,0,0,0.1,0,0.1c0-0.1,0-0.1-0.1-0.2c-0.1,0-0.2,0-0.3,0c-0.1,0.1,0,0.2-0.1,0.2
							c-0.1,0-0.1,0.2-0.1,0.2c-0.1,0.1-0.2-0.1-0.3-0.2c0-0.1,0.1-0.2,0-0.4c-0.1-0.1-0.1-0.2-0.2-0.3c-0.1,0.3-0.2,0.4-0.4,0.5
							c0,0-0.1,0-0.1,0.1c-0.1-0.2-0.4-0.2-0.4-0.2c-0.1-0.1-0.1-0.1-0.2-0.2c-0.1,0-0.3,0.1-0.5,0.2c-0.1,0-0.1-0.1-0.2-0.2
							c0,0.1-0.1,0.1-0.1,0.2c-0.1,0.3-0.2,0.4-0.4,0.5c-0.2,0.1-0.3,0.3-0.4,0.4c-0.2,0.1-0.3-0.2-0.5-0.2
							c-0.1,0.2-0.3,0.1-0.4,0.3c0-0.1,0-0.1,0-0.2c0.1-0.2,0.3-0.1,0.3-0.3c0-0.1-0.1-0.2-0.1-0.2c0,0,0,0,0-0.1
							c-0.1-0.1-0.2-0.1-0.3-0.2c-0.1-0.1-0.1-0.1-0.2,0c0-0.1,0-0.1,0-0.1c-0.1,0-0.2,0.1-0.3,0.1C8.7,28,9,28.1,9,27.9
							c0.4,0.3,0.4,0.3,0.5,0.1c0,0-0.1,0-0.1-0.1c0-0.2-0.1-0.2-0.2-0.3c0,0,0.1-0.1,0.1-0.1c0-0.2,0.1-0.2,0.2-0.2
							c0.2,0,0.3-0.1,0.4-0.2c0,0,0.1-0.1,0.1-0.1c0.1,0.1,0.1,0.3,0.1,0.5c0,0.2-0.1,0.4-0.1,0.6c0.1,0,0.1,0.1,0.1,0.2
							c0,0,0.1,0.1,0.1,0.1c0.1,0,0.3,0,0.4-0.1c0,0,0-0.1,0-0.1c0.2,0.1,0.3,0,0.5-0.2c0,0-0.1,0-0.1-0.1c0,0,0,0,0,0
							c0.1,0,0.1,0,0.2,0c0,0.1,0.1,0.1,0.1,0.2c0.1,0,0.1-0.1,0.2-0.1c0.1,0.1,0.2,0,0.3,0c0.1,0,0.1,0,0.1-0.1
							c0.1,0.1,0.2-0.1,0.2-0.2c0-0.1,0.1-0.2,0.1-0.3c0-0.1,0.1-0.3,0.1-0.4c-0.1-0.3-0.2-0.6-0.4-0.9C11.6,26,11.5,26,11.5,26
							c-0.1,0-0.2,0-0.2,0.1c-0.1-0.1-0.3,0-0.4,0c-0.1,0-0.2-0.1-0.3-0.2c0-0.1-0.1-0.2-0.1-0.3c0,0-0.1-0.1-0.1-0.1
							c-0.1,0-0.2-0.1-0.2-0.2c-0.1,0-0.2,0-0.2-0.1c-0.1-0.1-0.1-0.1-0.2-0.1c-0.2,0-0.3-0.2-0.2-0.4c0,0,0-0.1,0-0.1
							c0,0,0.1,0,0.1,0c-0.2,0-0.3,0-0.4,0.1c-0.1,0.1-0.3,0-0.3,0c-0.1-0.1-0.1-0.1-0.2-0.1c-0.1,0-0.2,0-0.3,0c0-0.1,0-0.1,0-0.2
							c-0.1,0.1-0.1-0.1-0.2-0.1c-0.1,0.1-0.3,0.1-0.4,0.3c0,0.1,0.1,0.2,0.1,0.3c-0.1,0.1-0.2,0.2-0.3,0.3c0-0.1-0.1-0.2-0.1-0.2
							c0-0.2,0.1-0.3,0.2-0.4c0-0.1-0.1-0.1-0.1-0.2H7.3c-0.1,0.1-0.1,0.3-0.1,0.3c-0.1,0-0.1,0-0.1,0c0,0.2,0,0.4-0.2,0.6
							c0-0.1,0-0.2,0-0.3c-0.1,0.1-0.1,0.1-0.2,0.2c0.1,0.2,0,0.3,0,0.5c0-0.1-0.1-0.2,0-0.4c0,0,0-0.1,0-0.2c0-0.1-0.1-0.1-0.1-0.2
							c-0.1-0.1-0.3-0.2-0.4,0C6,25,5.9,25,5.9,25c-0.1,0-0.2,0-0.2-0.1c-0.1-0.1-0.3-0.3-0.4-0.4c0-0.1,0.1-0.2,0-0.4
							c0,0,0-0.1,0-0.1c0.1-0.1,0-0.1,0-0.2c-0.1-0.1,0-0.2,0.1-0.3c0.1-0.1,0.1-0.1,0-0.2c-0.1-0.1-0.2-0.1-0.2-0.3c0,0,0,0-0.1,0
							c-0.1,0-0.2,0-0.3,0c-0.2,0-0.3,0.1-0.5,0c0.1-0.1,0.1-0.2,0.2-0.3c-0.1-0.1-0.1-0.2-0.1-0.3c0,0,0-0.1,0-0.1
							c0-0.2,0-0.3-0.1-0.4C4,21.9,4,22,4,22.1c0,0.1-0.1,0.2-0.1,0.3c0,0.1-0.1,0.1-0.1,0.1c0,0.1,0.1,0.1,0.1,0.1
							c-0.1,0.1-0.1,0.1-0.3,0.1c-0.2,0-0.4,0-0.5,0H2.9C3,22.6,3,22.6,3,22.5c-0.1,0-0.1-0.1-0.1-0.1c0,0.1,0,0.1,0,0.2
							c-0.1,0-0.1,0-0.2,0c0-0.2,0-0.3,0-0.5c0-0.1-0.2-0.2-0.2-0.4c0-0.2-0.2-0.1-0.3-0.2c0-0.1,0-0.2,0-0.2c0.2,0,0.2,0,0.2-0.2
							c0-0.1,0-0.2,0-0.3c0-0.2-0.1-0.3-0.1-0.5c0-0.2,0-0.5,0.2-0.7c0.2-0.3,0.5-0.5,0.8-0.6c0,0,0.1,0,0.2,0
							c0-0.2-0.2-0.2-0.2-0.4c0.2,0.1,0.2,0.1,0.3,0c0-0.1-0.1-0.2-0.1-0.3c0.1,0,0.1,0,0.2,0c0-0.1,0-0.2,0-0.3
							c0-0.1,0.1-0.2,0.1-0.3C3.8,18,3.8,18,3.8,18c0-0.1,0-0.1,0-0.2C4,18,3.9,18.1,4,18.2c0,0.2,0,0.3-0.1,0.4
							c-0.1,0.1-0.2,0.3-0.2,0.5c0.1,0,0.2,0,0.4,0c0.1,0,0.2,0,0.2-0.1c0,0,0.1,0,0.1,0.1c0-0.1,0-0.2,0-0.2c0,0,0,0,0,0
							c0,0.1,0.1,0.2,0.1,0.3c0.1-0.1,0.2,0.1,0.3,0C4.9,19,5.1,19,5.2,19c0,0,0,0,0,0c0,0.1-0.1,0.1-0.1,0.2c0,0,0,0,0,0
							c0.1-0.1,0.3-0.1,0.4-0.2c0.1-0.1,0.2-0.3,0.3-0.5c0,0,0,0,0.1,0c0.1-0.1,0.1-0.1,0.2-0.2c0.1-0.1,0.2-0.2,0.3-0.3
							c0.1-0.1,0.3-0.2,0.3-0.4c0-0.1,0.1-0.3,0.1-0.4c0-0.1,0-0.2,0.1-0.3c0.1-0.1,0.1-0.1,0.2-0.2c0.1-0.1,0.2-0.2,0.3-0.2
							c0.1-0.1,0.1-0.1,0.2-0.2c0.1,0,0.2-0.1,0.3-0.1c0.1,0,0.2-0.1,0.2-0.2c0-0.2,0.2-0.5,0.4-0.5c0.2-0.1,0.3-0.1,0.5-0.2
							c0,0,0.1,0,0.1-0.1c0.1,0,0.3,0,0.4-0.1c0.1-0.1,0.1-0.2,0-0.3c0,0-0.1-0.1-0.1-0.1c0,0,0,0,0,0c0-0.1,0.1-0.1,0.1-0.2
							c-0.1,0-0.1,0-0.2-0.2c0.2,0,0.2,0,0.3-0.1c0-0.1-0.1-0.2-0.2-0.2c-0.3,0-0.7,0.1-0.9,0.4c-0.1,0.1-0.1,0.1-0.2,0.2
							c0.1-0.1,0.2-0.3,0.3-0.4c0.1-0.1,0.2-0.2,0.3-0.2c0,0,0.1,0,0.1-0.1c0.1-0.1,0.2-0.2,0.3-0.2c0.4,0,0.7,0,1.1,0
							c0.1,0,0.2,0,0.3-0.1c0.1-0.1,0.3-0.2,0.4-0.2c0.1,0,0.2-0.1,0.3-0.2c0-0.1-0.1-0.1,0-0.2c0-0.2,0-0.2-0.1-0.2
							c-0.1,0-0.2-0.2-0.3-0.2c0,0,0.1,0,0.1-0.1c0,0,0-0.1,0-0.1c-0.1,0-0.3-0.1-0.4-0.1c0,0-0.1,0-0.1-0.1
							c-0.1-0.1-0.1-0.1-0.2-0.2c-0.1,0-0.1-0.1-0.1-0.2c0,0,0-0.1,0-0.1c0-0.1-0.1-0.2-0.2-0.3c0-0.1-0.1-0.1-0.1-0.2
							c-0.1-0.2-0.3-0.3-0.4-0.5c-0.1,0.1-0.1,0.2-0.2,0.3c-0.1,0.2-0.3,0.3-0.4,0.3c0,0-0.1,0-0.1-0.1c-0.1-0.1-0.1-0.1-0.2-0.1
							c0,0-0.1-0.1-0.1-0.1c0-0.1,0-0.3,0-0.4c0,0,0,0,0,0c-0.2,0-0.3-0.1-0.5-0.2c-0.1-0.1-0.3-0.2-0.5-0.1c0,0-0.1,0-0.1,0
							c-0.2,0-0.3,0-0.5-0.1c-0.1,0-0.1,0-0.2,0.1c0.1,0.1,0.1,0.1,0.2,0.2c0,0-0.1,0.1-0.2,0.2c0.2,0,0.2,0.1,0.3,0.2
							c0,0.1-0.1,0.1-0.1,0.2c0,0.1-0.1,0.2-0.1,0.3c0,0.1,0.1,0.1,0.1,0.2c0.2,0.2,0.1,0.5-0.1,0.6c-0.1,0.1-0.2,0.1-0.2,0.1
							c-0.1,0.1-0.1,0.1-0.1,0.2c0,0.1,0,0.1,0,0.2c0,0,0,0.1,0,0.1c0.1,0.1,0,0.3,0,0.4c0,0.1-0.2,0.2-0.3,0.2c-0.1,0-0.2,0-0.3,0
							c0,0-0.1,0-0.1,0c0,0,0-0.1,0-0.1c0,0,0-0.1,0-0.1c-0.1,0-0.1,0-0.1,0c-0.1,0-0.2-0.1-0.3-0.2c0-0.1,0-0.2,0-0.3
							c0,0,0,0,0-0.1c0-0.1,0-0.2-0.1-0.3c-0.1,0-0.2-0.1-0.3-0.1c-0.1,0-0.1,0-0.2-0.1c-0.1-0.1-0.1-0.1-0.2-0.1
							c-0.1,0-0.2,0-0.3-0.2c0,0-0.1-0.1-0.1-0.1c-0.3-0.1-0.5-0.2-0.8,0c-0.1,0-0.1-0.2-0.1-0.3c0,0,0,0,0,0
							c-1.5,2.6-2.6,5.5-3,8.7c0,0.1,0.1,0.1,0.1,0.2c0.1,0.2,0.2,0.4,0.4,0.6c0.1,0.1,0.1,0.2,0.1,0.3c0,0.1,0,0.2-0.1,0.4
							c0,0.1,0,0.1,0.1,0.2c0.1,0.1,0.3,0.3,0.4,0.4c0.1,0.1,0.3,0.1,0.4,0.2c0,0,0,0,0.1,0c0.2,0.1,0.4,0.2,0.6,0.3
							c0.1,0,0.1,0.1,0.2,0.1c0.1,0,0.2,0,0.3-0.1C2.9,23,3,23,3.1,23c0.1,0.1,0.3,0.3,0.4,0.4c0.1,0.1,0.1,0.2,0.2,0.2
							c0.2,0.1,0.4,0.2,0.6,0.3c0.1,0,0.2,0,0.2,0c0.1,0.1,0.1,0.1,0.1,0.2c0,0,0,0-0.1,0.1c0.1,0.1,0.2,0.2,0.3,0.4
							c0,0.1,0,0.2,0.1,0.4c0,0,0.1,0,0.1,0.1c0,0,0-0.1,0.1-0.1c0,0.2,0.3,0.2,0.3,0.4c0.1,0,0.2,0,0.3,0.1
							c0.1,0.1,0.2,0.1,0.2,0.3C6,25.5,6,25.4,6,25.4c0,0,0,0,0-0.1c-0.1,0-0.1-0.1-0.2-0.1C6,25.1,6.1,25.1,6.2,25
							c0.1,0.1,0.1,0.1,0.2,0.2c-0.1,0.1,0,0.2,0,0.3c0.1,0.1,0.1,0.2,0.1,0.4c0,0.1,0,0.2,0,0.3c0,0.3,0,0.3-0.1,0.5
							c0,0.1-0.1,0.1-0.1,0.2c-0.1,0.1-0.1,0.2-0.2,0.3c-0.1,0-0.2,0-0.2,0.1c0,0,0,0,0,0c0,0.1,0,0.2-0.1,0.2
							c-0.1,0.3-0.2,0.4,0,0.6c0,0,0.1,0,0.1-0.2c0-0.1,0-0.2,0.1-0.2c0.2,0.2,0,0.4-0.1,0.6c-0.2,0.1-0.3,0.2-0.2,0.5
							c0,0,0.1,0,0.1,0C6,29,6.1,29.2,6.1,29.3c0,0.1,0.1,0.2,0.1,0.3c0.1,0.1,0.1,0.3,0.2,0.4c0.1,0.2,0.2,0.4,0.2,0.6
							c0.1,0.2,0.3,0.4,0.2,0.7c0,0,0,0.1,0.1,0.1c0.1,0.1,0.2,0.2,0.3,0.3c0.1,0.1,0.3,0.2,0.4,0.3c0.2,0.1,0.3,0.3,0.5,0.5
							c0,0.1,0,0.2,0,0.2c0,0.3,0,0.6,0,0.9c0,0.1-0.1,0.2-0.1,0.3c0,0.3,0,0.6-0.1,0.9c0,0.2-0.2,0.5-0.1,0.7c0,0,0,0.1,0,0.1
							c-0.1,0.1-0.1,0.2,0,0.4c0,0.2,0.1,0.3,0,0.5c0,0.1,0,0.2-0.1,0.3c-0.1,0.3-0.1,0.6-0.3,0.8c0,0,0,0,0,0.1
							c0,0.1,0,0.2,0.1,0.3c0,0.1,0,0.2,0,0.3c0,0.1-0.1,0.2-0.1,0.3c0,0.2,0,0.3,0.2,0.3c0,0.4-0.1,0.6-0.2,1c0-0.1,0-0.3-0.1-0.3
							c-0.1,0.1-0.1,0.1-0.1,0.2c0,0.1,0,0.1-0.1,0.2C7.1,39.8,7,39.9,7,40c0.1,0,0.2,0,0.4-0.1c-0.1,0.1-0.1,0.3-0.2,0.3
							C7,40.4,7,40.5,7,40.7c0,0,0,0.1,0,0.1c0,0,0,0.1,0,0.1c0,0,0,0,0,0.1c0.2,0.2,0.5,0.5,0.7,0.7c0.2-0.1,0.4-0.2,0.7-0.2
							c-0.1-0.1-0.1-0.1-0.2-0.1c0,0,0.1,0,0.1-0.1c0-0.1-0.1-0.2,0-0.3c0.1,0,0.1-0.2,0.2-0.1c0-0.1,0-0.1,0-0.2
							c0.1-0.1,0.2-0.2,0.3-0.3c0,0,0.1-0.1,0.1-0.2c0-0.1-0.1-0.1-0.1-0.1c-0.1,0-0.2-0.1-0.2-0.2c0.1-0.2,0.2-0.3,0.3-0.3
							c0.1,0,0.2-0.1,0.2-0.3c0-0.1,0-0.3,0.1-0.3c0,0,0,0,0,0c-0.1-0.1,0-0.1,0-0.1c-0.1-0.1-0.1-0.2-0.1-0.4
							c0.1,0,0.2,0.1,0.3,0.1c0-0.1,0-0.2,0-0.3c0,0,0.1,0,0.1-0.1c0,0,0-0.1,0-0.1c0-0.1,0-0.1,0-0.2c0.4,0.2,0.8,0,1.1-0.1
							c0-0.1-0.1-0.1-0.1-0.2c-0.1-0.2-0.2-0.3-0.4-0.4c0,0-0.1-0.1-0.1-0.1c0,0,0-0.1-0.1-0.2c0-0.1,0.1-0.1,0.1-0.1
							c0-0.2,0-0.3-0.1-0.4c0,0,0-0.1-0.1-0.1c-0.1-0.1-0.1-0.2,0-0.4c0-0.1,0.1-0.2,0-0.3c-0.1-0.2,0-0.3,0-0.4
							c0-0.1,0-0.1,0.1-0.2c0.1,0,0.2-0.1,0.2-0.2c0.1-0.2,0.2-0.3,0.4-0.5c0.1,0.2,0.1,0.3-0.1,0.5c-0.1,0.1-0.1,0.2-0.2,0.3
							c0,0,0,0,0,0c0.1,0,0.1-0.1,0.2-0.1c0.1,0,0.1-0.1,0.2,0c0,0,0,0,0,0c0,0,0,0-0.1,0c-0.2,0.1-0.3,0.2-0.3,0.4
							c0,0.1-0.1,0.2-0.1,0.2c-0.1,0-0.2,0.1-0.2,0.2c0,0,0.1,0.1,0.1,0.1c0,0,0.1,0.1,0.1,0c0.1,0,0-0.1,0-0.2c0-0.1,0-0.2,0.1-0.2
							c0,0,0.1,0,0.2-0.1c0-0.1,0-0.1,0.2-0.2c0,0.1,0,0.1,0,0.2c0,0.1,0,0.2,0,0.3c0,0.1,0.1,0.1,0,0.2c0,0.1,0.1,0.1,0.1,0.2
							c0,0-0.1,0-0.1,0.1c0,0.1,0,0.1,0,0.2c0,0,0.1,0.1,0.1,0.1c0.1,0,0.1,0,0.2,0c0.1,0,0.1,0,0.1,0c0.1,0.1,0.2,0.1,0.4,0
							c0,0,0,0,0-0.1c0,0-0.1,0-0.1-0.1c0-0.1,0-0.1,0.1-0.2c0.1-0.1,0.2-0.2,0.3-0.3c0.1-0.1,0.2-0.3,0.3-0.4c0,0,0-0.1,0-0.1
							c0,0-0.1-0.1-0.1-0.1c-0.1,0-0.1,0-0.2,0.1c0.2-0.2,0.4-0.1,0.6-0.1c0-0.1,0.1-0.2,0.1-0.2c0-0.1,0.1-0.1,0.2-0.2
							c0,0,0.1-0.1,0.1-0.2c0-0.1,0-0.2,0-0.3c0-0.1,0-0.3,0.1-0.4c0.1,0,0.1-0.2,0.1-0.3c0,0,0.1,0.1,0.1,0
							c0.1-0.1,0.3-0.2,0.4-0.2c0.1-0.2,0.3-0.2,0.4-0.3c0.1-0.1,0.1,0.1,0.2,0.1c0.1-0.1,0.2-0.3,0.3-0.4c0,0,0-0.1,0.1-0.1
							c0.1-0.1,0.1-0.2,0.1-0.3c0-0.1,0-0.3,0.1-0.4c0.2-0.4,0.2-0.7,0.1-1.1c0-0.2,0-0.3,0.1-0.4c0.1,0,0.1-0.1,0.2-0.2
							c0-0.2,0.1-0.3,0.2-0.4c0.1-0.1,0.2-0.3,0.3-0.5c0.1-0.3,0-0.6-0.1-0.9C15.2,28.8,15.1,28.9,15.1,28.9z"/>
						<path class="st1" d="M7.9,41.8c0,0,0-0.1,0-0.1c-0.1,0-0.1,0-0.1,0C7.9,41.8,7.9,41.8,7.9,41.8z"/>
						<path class="st1" d="M8.1,41.9C8,41.9,8,41.9,8.1,41.9C8,41.9,8,41.9,8.1,41.9C8,41.9,8,41.9,8.1,41.9z"/>
						<path class="st1" d="M5.3,9.6c0.1-0.1,0.2-0.1,0.3-0.1c0,0,0.1-0.1,0.1-0.1c0,0-0.1-0.1-0.1-0.1C5.6,9.1,5.6,9.1,5.5,9
							c0,0,0-0.1,0-0.2c0,0,0-0.1-0.1-0.1C5.3,9,5.1,9.3,4.9,9.5C5,9.6,5.2,9.6,5.3,9.6z"/>
					</g>
					<path class="st1" d="M11.4,6.1c0.1,0,0.1,0,0.2,0c0.3,0,0.6-0.1,1-0.1c0.1,0,0.2,0,0.3,0c0.1,0,0.1,0,0.1,0.2c0,0,0.1,0,0.1,0
						c0,0,0-0.1,0-0.1c0.1,0,0.2,0.1,0.3,0.1c0.1,0,0.2,0,0.3,0c-0.1,0-0.1,0-0.2-0.1c0.2,0,0.5,0,0.7,0.1c0.2,0.1,0.4,0.1,0.7,0.2
						C14.7,6,14.5,6.1,14.3,6c0.2-0.2,0.4-0.2,0.6-0.2c0.3,0,0.5,0,0.8,0c0,0,0.1,0,0.1,0c0.1,0,0.1,0,0.2,0
						c0.1-0.1,0.2-0.1,0.3-0.1c0.4,0,0.9,0,1.3,0c0.3,0,0.6,0,0.9,0c0.1,0,0.3,0.1,0.4,0.1c0.2,0,0.5,0.1,0.7,0.1
						c0.1,0,0.2,0,0.4,0.1C19.8,6,19.3,6,18.9,6.1c0,0,0.1,0,0.1,0c0.1,0,0.2,0,0.2,0.1c0.1,0,0.2,0,0.3,0c0.1-0.1,0.3-0.1,0.4,0
						c0,0.2-0.2,0.1-0.3,0.3c0.1,0,0.2,0,0.3-0.1c0.2-0.1,0.4-0.1,0.6-0.1c0.3,0,0.6-0.1,0.8-0.1c0.2,0,0.3,0,0.5,0c0,0,0,0,0,0.1
						c0,0-0.1,0-0.1,0c-0.3,0.1-0.5,0.1-0.8,0.3c-0.2,0.1-0.5,0.2-0.7,0.1c0,0,0,0,0-0.1c-0.3,0.2-0.7,0.1-1,0.2c0-0.1,0-0.1,0-0.2
						c0,0-0.1,0-0.1,0c-0.1,0.1-0.2,0.1-0.3,0.1c-0.1,0-0.1,0-0.2,0v0.2h0.3C18.6,7,18.6,7,18.5,7.1c0.3,0,0.5,0.1,0.7-0.1
						c0.1-0.1,0.2-0.1,0.4-0.1c0.1,0,0.2,0,0.3,0c-0.1,0.1-0.1,0.2-0.1,0.3c-0.1,0-0.3,0-0.4,0c0.1,0.2,0.1,0.1-0.1,0.5
						c0,0,0.1,0,0.1,0c0.1-0.1,0.2-0.2,0.4-0.1c0,0,0.1,0,0.2,0c0.2,0,0.2,0,0.2,0.3c-0.1,0-0.1,0-0.2,0l0,0c0.1,0,0.2,0.2,0.3,0.1
						c0,0,0,0,0,0c-0.1,0-0.2,0.1-0.4,0.1c0.1,0,0.1,0,0.1,0.1c-0.1,0.1-0.1,0.1-0.2,0.1c0,0-0.1,0-0.1,0c-0.1,0.2-0.2,0-0.3,0
						c0,0.1,0.1,0.1,0.2,0.1c0,0.1,0,0.1,0,0.2c-0.2,0-0.4,0-0.6-0.3c0,0.2,0,0.2,0.1,0.2c0.1,0,0.1,0,0.2,0.1c0,0,0.1,0,0.1,0.1
						c0.1,0.1,0.1,0.1,0.2,0.1c0,0.1,0,0.2,0,0.2c-0.1,0-0.2,0-0.3,0c-0.1,0-0.2,0-0.2-0.1c-0.1-0.2-0.2-0.1-0.3-0.1
						c0,0.1,0,0.1,0,0.2c-0.1,0-0.1,0-0.2,0.1c0,0,0,0,0,0c0.3,0,0.5,0,0.8,0.1c-0.5,0.3-1,0.4-1.5,0.5c-0.1,0-0.3,0-0.4,0
						c-0.1,0-0.2,0.1-0.3,0.2c-0.1,0.2-0.3,0.3-0.4,0.3c-0.1,0-0.2,0.1-0.2,0.1c-0.1,0-0.3,0.1-0.4,0.1c-0.1,0-0.2,0-0.3,0.1
						c0,0-0.1,0-0.1,0c0,0,0.1,0.1,0.1,0.1c0,0.1-0.1,0.2-0.1,0.3c-0.1,0.1-0.2,0.2-0.3,0.3c0,0.2-0.1,0.4-0.2,0.6
						c0,0-0.1,0.1-0.2,0.1c-0.1,0-0.2,0-0.3-0.2c-0.1-0.1-0.2-0.1-0.3-0.1c-0.2,0-0.4,0-0.6-0.3c-0.1-0.2-0.2-0.3-0.3-0.4
						c-0.1-0.1-0.1-0.2-0.2-0.3c0-0.1-0.1-0.2-0.2-0.2c0,0-0.1-0.1-0.1-0.1c-0.1-0.1,0-0.1,0-0.2c0,0,0,0,0-0.1
						c-0.1-0.2-0.1-0.2,0.1-0.3c0,0,0.1,0,0.1,0c0,0,0-0.2,0.1-0.1c0.1,0,0.1,0,0.2,0c0-0.1,0-0.2,0.1-0.2c-0.1-0.2-0.3-0.1-0.5-0.2
						c0.1,0.1,0.2,0.1,0.3,0.2c-0.3,0.1-0.3,0.1-0.6,0c0,0,0-0.1,0.1-0.1c0,0,0.1,0,0.1-0.1c0,0,0.1,0,0.1,0c0.1,0,0.3,0,0.4,0.1
						c0.1,0,0.1,0,0.2,0c0,0,0,0,0-0.1c-0.1,0-0.1,0-0.2-0.1C13.4,9,13.3,9,13.3,9c-0.1,0,0-0.1-0.1-0.1c0,0-0.1,0-0.1,0
						c-0.1,0.1-0.2,0.1-0.4,0c0-0.2,0-0.2,0-0.3c0.1,0,0.1,0,0.2,0c0.1,0,0.1,0,0.2-0.1c-0.1,0-0.1,0-0.2,0
						c-0.1-0.2-0.2-0.4-0.3-0.5c0,0,0,0,0,0c0,0-0.1,0-0.1,0c-0.1,0-0.1,0-0.2-0.1c-0.1-0.1-0.2-0.1-0.4-0.1c-0.2,0-0.3,0-0.5,0
						c-0.1,0-0.3,0-0.4,0c-0.2,0-0.3-0.1-0.4,0c-0.1,0.1-0.3,0-0.4,0c0,0,0,0-0.1,0c0,0,0.1,0,0.1-0.1c-0.2,0-0.3,0-0.5-0.1
						c0.1-0.1,0.2,0,0.3,0c0.1,0,0.1,0,0.2-0.1c-0.3,0-0.5-0.1-0.8-0.2c0,0,0,0,0-0.1C9.2,7,9.2,7,9.3,7c0.7-0.1,1.3-0.2,2-0.2
						c0.2,0,0.3-0.1,0.5,0c0,0,0.1,0.1,0.1,0.1c0,0,0,0,0,0l0,0c0,0,0,0,0,0c0,0,0,0,0,0c0.1,0,0.2,0,0.4,0c0.1,0,0.2,0.1,0.2,0.1
						c0.1,0.1,0.3,0.1,0.5,0.2c0,0,0.1,0,0.1,0c0.1,0.1,0.3,0.1,0.4,0.1c0.1,0,0.1,0,0.2,0c0.1,0.2,0.3,0.1,0.5,0.1
						c0.1,0,0.3,0,0.4,0c0,0.1-0.1,0.1-0.1,0.1c0.1,0,0.2,0.1,0.3,0.2C14.8,7.9,15,7.8,15,8c-0.1,0-0.2,0.1-0.4,0.1
						c0.1,0,0.1,0,0.2,0c-0.1,0.1-0.1,0.1,0.1,0.2c0,0,0,0.1,0,0.1c0,0,0,0,0.1,0c0,0,0,0,0.1,0c0,0-0.1,0.1-0.2,0.1
						c0.2,0.1,0.4,0.1,0.5,0.1C15.4,9,15.3,9,15.2,9c-0.2,0-0.3,0.1-0.4,0.1c0,0.1,0.1,0.1,0.1,0.2c-0.1,0.1-0.3,0-0.5,0.2
						c0.1,0,0.2-0.1,0.3-0.1c0,0,0,0,0,0c-0.1,0-0.1,0.1-0.2,0.1c0.1,0,0.1,0,0.1,0.1c-0.1,0-0.1,0.1-0.2,0.1c0.1,0,0.1,0.1,0.1,0.1
						c0.1,0,0.1,0,0.2-0.1c0-0.1,0.1,0,0.1,0c0,0-0.1,0.1-0.1,0.2c0.1,0,0.1,0,0.1,0c0,0,0.1-0.1,0.1-0.1c0.1,0,0.2,0,0.3,0
						c0.1,0,0.2-0.1,0.3-0.2c0,0.1,0,0.2-0.1,0.3c0.1,0,0.3,0,0.4-0.1c0,0,0.1,0,0.1,0c0-0.1,0.1-0.2,0.1-0.3c0,0,0-0.1,0-0.1
						c0.1,0,0.3,0,0.4,0v0c0,0-0.1,0-0.1,0c0,0,0,0,0-0.1c0,0,0.1-0.1,0.1-0.1C16.3,9,16.1,9,15.8,9c0.1-0.1,0.2-0.1,0.3-0.1
						c0.1,0,0.2,0,0.2-0.2c-0.1,0-0.1,0-0.2,0c-0.1,0-0.2,0-0.3-0.1c0,0-0.1,0-0.1,0c-0.1,0-0.1,0-0.2-0.1c0.2-0.1,0.3-0.1,0.5-0.1
						c0.1,0,0.2,0,0.2-0.1c0,0,0.1,0,0.2,0c0.2,0,0.2-0.1,0.2-0.3c0,0,0,0,0-0.1c0.1-0.1,0-0.1,0-0.1c-0.1,0-0.2,0-0.3,0
						c-0.1,0-0.1,0-0.2-0.1c0,0,0.1,0,0.1,0c0,0-0.1,0-0.1,0c0,0,0,0,0,0c0.1-0.1,0.3,0,0.4-0.2c0.1,0.1,0.2,0,0.4,0
						c0.2,0,0.4,0,0.6-0.2c0,0,0.1,0,0.1,0c0.1,0,0.1,0,0.2-0.1c-0.2,0.1-0.3-0.1-0.5-0.1c-0.1,0-0.1,0-0.2,0c-0.1,0,0-0.1-0.1-0.1
						c0,0-0.1-0.1-0.2-0.1c-0.2,0-0.5,0-0.7,0c0,0,0,0-0.1,0c-0.1,0-0.1,0.1-0.2,0c0-0.1-0.2,0-0.1-0.1c0,0,0,0,0,0
						c-0.2,0-0.3,0-0.5,0.1c-0.1,0-0.1,0.1-0.2,0.1c-0.3,0-0.5,0-0.8,0c-0.1,0-0.2,0-0.3-0.1c0,0,0,0-0.1,0C14,6.7,14,6.7,14,6.8
						c-0.4-0.1-0.8-0.1-1.2-0.1c0.1-0.1,0.2-0.2,0.3-0.2c-0.4,0-0.9-0.1-1.3-0.1c-0.1,0-0.3-0.1-0.4-0.1C11.5,6.3,11.4,6.2,11.4,6.1
						z"/>
					<path class="st1" d="M20.2,19.9c0.2-0.1,0.3-0.3,0.4-0.5c0-0.1,0.1-0.1,0-0.2c0,0,0-0.1,0-0.2c0.1-0.2,0.2-0.4,0.3-0.5
						c0.1-0.1,0.2-0.2,0.3-0.2c0,0,0.1,0,0.2,0c-0.1-0.2-0.1-0.3,0-0.4C21.7,18,21.8,18,22,18c0.1,0,0.1,0,0.2,0
						c0.1,0,0.2,0,0.3-0.1c0.1-0.1,0.1-0.1,0.2,0c0.1-0.2,0.2-0.2,0.3-0.3c0.2,0,0.4,0,0.5-0.1c0,0,0.1,0,0.2,0c0.1,0.1,0.2,0,0.3,0
						c0.1,0,0.2,0,0.3,0c0.1,0.1,0.2,0,0.3-0.1c0.1,0,0.1-0.1,0.2,0c0.1,0.1,0.1,0.1,0.2,0.1c0,0.1-0.1,0.1-0.1,0.2
						c0.1,0.1,0.2,0.1,0.1,0.3c0,0.1-0.1,0.1-0.2,0.2c0.1,0.1,0.2,0.3,0.3,0.4c0,0,0.1,0,0.1,0c0,0,0.1,0,0.1,0
						c0.2-0.1,0.3,0,0.5,0.1c0,0,0,0.1,0,0.1c0.1,0,0.1,0.1,0.1,0.1c0.1,0.1,0.1,0.1,0.2,0.1c0.1,0,0.3,0,0.4,0.1
						c0.1,0.1,0.2,0.2,0.3,0.3c0,0,0.1,0.1,0.1,0.1c0.2,0,0.3,0.1,0.4,0.2c0,0,0,0,0,0c0-0.2,0-0.3,0.2-0.2c0.1,0,0.2,0.1,0.4,0
						c0,0-0.1-0.1-0.1-0.1c-0.2,0-0.4-0.1-0.6-0.1c-0.1,0-0.1-0.1-0.2-0.2c0,0-0.1,0-0.1,0.1c0,0,0,0,0,0c0-0.1,0-0.2,0-0.2
						c0-0.1,0-0.2,0.1-0.3c0.2-0.2,0.4-0.1,0.5,0c0,0,0.1,0,0.1,0.1c0.1,0.1,0.3,0,0.3,0.2c0.2-0.1,0.4,0,0.6,0.1
						c0.1,0,0.1,0,0.2,0.1c0,0,0,0,0.1,0c0.1,0.1,0.2,0.1,0.3,0.2c0,0,0.1-0.1,0.1-0.1c0.1,0,0.2,0,0.2,0.1c0,0.2,0.1,0.3,0.1,0.4
						c0.1,0.3,0.2,0.6,0.4,0.9c0.1,0.1,0.1,0.3,0.1,0.5c0,0.1,0.1,0.2,0.1,0.2c0.2,0.1,0.2,0.4,0.2,0.6c0,0.2,0,0.3,0.1,0.5
						c0,0,0.1,0.1,0.1,0.1c0.1,0.1,0.2,0.2,0.2,0.3c0,0.2,0,0.4,0.2,0.5c0,0,0,0.1,0,0.2c0,0.1,0,0.2,0,0.3c0,0.1,0.1,0.1,0.2,0
						c0-0.1-0.1-0.2-0.1-0.3c0,0,0,0,0,0c0,0,0.1,0,0.1,0.1c0.1,0.1,0.2,0.3,0.3,0.4c0.1,0.1,0.1,0.1,0,0.3c0,0.1,0.1,0.1,0.1,0.2
						c0.1,0.2,0.2,0.2,0.4,0.1c0,0,0.1-0.1,0.1,0c0.2,0.1,0.4-0.1,0.6-0.1c0.2,0,0.3-0.1,0.4-0.2c0,0,0.1,0,0.1,0
						c0,0.6-0.2,1.1-0.5,1.5c0.1,0.1,0.1,0.1,0,0.2c-0.2,0.4-0.4,0.6-0.6,0.9c0,0.1-0.1,0.1-0.2,0.2c0,0,0,0,0,0
						c-0.2-0.1-0.4,0.2-0.7,0.1c-0.1,0.2-0.1,0.3-0.1,0.5c0,0.1-0.1,0.3-0.3,0.3c0,0,0,0.1,0,0.1c0.1,0.2,0,0.5-0.1,0.7
						c-0.1,0.2-0.1,0.3-0.1,0.5c0.1,0.1,0.1,0.1,0.1,0.4h-0.2c0,0,0,0,0,0c0,0,0,0,0,0c0.1,0,0.2,0.1,0.2,0.2c0,0.1,0.1,0.3,0.2,0.4
						c0,0,0,0.1,0,0.1c0,0.3,0,0.5,0,0.8c0,0,0,0.1,0,0.1c0,0.2,0,0.3-0.1,0.4c-0.2,0.2-0.4,0.3-0.6,0.4c-0.1,0.1-0.2,0.1-0.3,0.2
						c-0.1,0.2,0,0.4-0.2,0.4c0-0.1,0-0.2,0-0.2c0,0,0,0,0,0c0,0.1,0,0.2,0,0.2c0,0.1,0,0.1,0,0.2c0,0.1,0,0.2,0.1,0.3
						c0,0,0,0.1,0,0.1c0,0.1,0,0.1,0,0.2c0.1,0.3,0.1,0.3,0.1,0.5c-0.1,0.1-0.2,0.2-0.4,0.1c0.1-0.1,0.1-0.2,0.1-0.4
						c0,0-0.1,0-0.1-0.1c0,0.1-0.1,0.2-0.1,0.2c0,0,0,0.1,0,0.1c0,0.1-0.1,0.3-0.1,0.4c0,0,0,0.1,0,0.1c0,0,0.1,0.1,0,0.1
						c-0.1,0.2-0.1,0.4-0.2,0.5c-0.1,0.1-0.1,0.2-0.2,0.3c-0.2,0.4-0.5,0.7-0.8,0.9c-0.1,0.1-0.3,0.1-0.5,0.2c-0.1,0-0.1,0-0.2,0
						c-0.1,0-0.3,0-0.4,0.1c-0.1,0.1-0.3,0.1-0.5,0.1c-0.1,0-0.2-0.2-0.3-0.4c0,0,0,0,0.1,0c0-0.2-0.1-0.4-0.2-0.6
						c0-0.1-0.1-0.2-0.1-0.2c0-0.2-0.1-0.3-0.2-0.5c-0.2-0.2-0.2-0.5-0.2-0.7c0-0.1,0-0.3-0.1-0.4c0-0.1,0-0.1,0-0.2
						c0-0.1,0-0.3-0.1-0.4c-0.1-0.2-0.2-0.4-0.3-0.6c0-0.1,0-0.1-0.1-0.2c-0.2-0.2-0.2-0.5-0.1-0.8c0-0.2,0.1-0.4,0.1-0.6
						c0-0.2,0.1-0.3,0.2-0.4c0.1-0.2,0.1-0.5,0-0.7c-0.1-0.1-0.1-0.2,0-0.3c0,0,0-0.1,0-0.2c0-0.2-0.1-0.3-0.2-0.5
						c0,0,0.1-0.1,0.1-0.1c0,0,0,0,0,0c0,0-0.1,0-0.1,0c0-0.1-0.1-0.2-0.1-0.3c0-0.1,0-0.1-0.1-0.2c-0.2-0.1-0.2-0.3-0.3-0.5
						c0-0.1,0-0.2-0.1-0.3c0,0,0.1,0,0.1-0.1c-0.1-0.2-0.1-0.1-0.2,0c-0.1-0.2,0.1-0.1,0.2-0.3c-0.1-0.1-0.1-0.3-0.1-0.4
						c0-0.2,0.1-0.4,0-0.6c0,0,0,0,0-0.1c0,0-0.1,0.1-0.2,0.1c0-0.1,0-0.2-0.1-0.3c-0.1-0.1-0.1-0.1,0-0.2c0,0,0-0.1,0.1-0.1
						c0,0,0,0,0-0.1c-0.1,0.1-0.1,0.1-0.2,0.2c0,0.1,0,0.2,0,0.3c-0.2,0-0.2-0.1-0.2-0.3c0,0-0.1,0-0.1,0.1
						c-0.2-0.2-0.4-0.2-0.6-0.3c0,0,0,0,0,0c-0.2-0.2-0.3,0-0.4,0.1c0,0-0.1,0-0.1,0.1c0,0-0.1,0-0.1,0.1c-0.2,0.3-0.4,0.3-0.6,0.2
						c-0.1,0-0.1,0-0.2-0.1c0,0,0,0-0.1,0c0,0-0.2,0-0.2,0c-0.1,0.1-0.2,0.2-0.3,0.1c0,0,0,0,0,0c-0.2,0.1-0.4,0.1-0.6-0.1
						c-0.2-0.2-0.3-0.4-0.5-0.7c0,0-0.1,0-0.1-0.1c0-0.1,0-0.1,0-0.2c0-0.1,0-0.1-0.1-0.2c-0.1-0.1-0.2-0.1-0.2-0.2
						c-0.1-0.1-0.1-0.2-0.1-0.3c0-0.2,0.1-0.3,0.2-0.4c0.1-0.2,0-0.4-0.1-0.6c0-0.1-0.1-0.1,0-0.2c0.1,0.1,0.2,0.3,0.3,0.4
						c0,0,0.1,0,0.2,0c-0.1,0-0.1-0.1-0.2-0.1c0-0.1-0.1-0.2-0.1-0.2c0-0.1,0-0.2-0.1-0.3c0,0.1-0.1,0.1-0.1,0.2
						c-0.1-0.1-0.1-0.1-0.1-0.2c0-0.1,0-0.2,0-0.2c0-0.1-0.1-0.2-0.2-0.3c-0.1-0.1-0.2-0.2-0.3-0.3c-0.2-0.3-0.2-0.7,0-0.9
						c0.1-0.1,0.1-0.2,0.2-0.4c0-0.2,0.1-0.3,0.2-0.4c0,0,0.1,0,0.1-0.1C20,20,20.1,20,20.2,19.9z"/>
				</g>
			</g>
			<g>
				<g>
					<circle class="st4" cx="35.9" cy="16.7" r="3"/>
				</g>
				<g>
					<circle class="st7" cx="35.9" cy="16.7" r="1.5"/>
				</g>
			</g>
			<g>
				<g>
					<circle class="st4" cx="28.3" cy="30.7" r="3"/>
				</g>
				<g>
					<circle class="st7" cx="28.3" cy="30.7" r="1.5"/>
				</g>
			</g>
			<g>
				<g>
					<circle class="st4" cx="11.1" cy="32.2" r="3"/>
				</g>
				<g>
					<circle class="st7" cx="11.1" cy="32.2" r="1.5"/>
				</g>
			</g>
			<g>
				<g>
					<circle class="st4" cx="5.8" cy="15.5" r="3"/>
				</g>
				<g>
					<circle class="st7" cx="5.8" cy="15.5" r="1.5"/>
				</g>
			</g>
		</g>
		<g>
			<g>
				<rect x="20" y="25.9" class="st13" width="8" height="8"/>
			</g>
			<g>
				<polygon class="st3" points="25.8,48 29.7,33.6 24,33.6 17.9,33.1 22.2,48 				"/>
			</g>
			<g>
				<g>
					<polygon class="st0" points="25.3,37.4 26.6,36.1 24,33.6 21.4,36.1 22.7,37.4 					"/>
				</g>
				<g>
					<polygon class="st0" points="26.4,48 25.3,37.4 22.7,37.4 21.6,48 					"/>
				</g>
			</g>
			<path class="st8" d="M28.2,21c0.2-1.6-0.1-3.5-1.7-4.3c-0.8-0.4-1.7-0.5-2.5-0.6c-0.7-0.1-1.4-0.1-2.1,0.1
				C19.3,17,19,19.6,19.2,22c-0.1,0.6-0.2,1.2-0.2,1.8c0,3.5,2.2,6.3,4.8,6.3s4.8-2.8,4.8-6.3C28.7,22.8,28.5,21.8,28.2,21z"/>
			<g>
				<path class="st2" d="M19,22.6c0,0.2,0,0.6,0.1,0.9h0.2c0-0.4,0-1.3,0.1-1.7c0.2-0.5,0.2-1.3,0.1-2c-0.1-0.7-0.2-1.5,0.6-1.7
					c0.8-0.2,2.2,0.4,3.8-0.1c1.5-0.5,2.7-0.9,3.2-0.2c0.5,0.7,0.7,1.7,0.5,2.3c-0.1,0.6,0.2,1.1,0.3,1.7c0.1,0.4,0.1,1.2,0.2,1.6
					h0.2c0-0.4,0.1-1.1,0.4-1.7c0.4-1,0.8-3.4,0.6-4.6c-0.2-1.2-2.1-3.4-5.4-3.4c-3.4-0.1-4.7,1.3-5.1,2.1c-0.4,0.8-0.8,3.4-0.6,4.2
					S19,22.2,19,22.6z"/>
			</g>
			<g>
				<g>
					
						<ellipse transform="matrix(0.9852 0.1715 -0.1715 0.9852 4.4247 -4.5549)" class="st8" cx="28.6" cy="23.3" rx="0.9" ry="1.9"/>
				</g>
				<g>
					
						<ellipse transform="matrix(-0.9852 0.1715 -0.1715 -0.9852 41.8821 43.0488)" class="st8" cx="19.1" cy="23.3" rx="0.9" ry="1.9"/>
				</g>
			</g>
			<g>
				<g>
					<g>
						<path class="st11" d="M34.6,48c0-1.4,0-2.8,0.1-3.9c0.3-3.6,2.8-9.5,2.8-9.5c-2.6-0.6-7.2-2.3-7.2-2.3c0,0.6-3,11.1-4.4,15.7
							H34.6z"/>
					</g>
					<g>
						<path class="st1" d="M29.3,32.8l-3,4.3L24,33.6c0,0,1.3-0.6,2.7-1.6c1.3-1,1.4-2.2,1.4-2.2c0.3,0.1,0.4,0.2,0.5,0.6
							C28.6,30.8,29.3,32.8,29.3,32.8z"/>
					</g>
					<g>
						<path class="st2" d="M26.7,48c0.9-1.9,1.8-3.6,2.1-4.4c1-2.3,2.8-6.8,2.8-6.8L30,35.4l1.4-0.7c0,0-0.6-1.7-1.2-2.3
							c-0.5-0.6-1.3-1.1-1.6-1.7c0,0-0.1,1.6-0.2,2.8c-0.2,1.2-1.9,8.9-2.3,10.3C26,44.2,25.6,46,25,48H26.7z"/>
					</g>
					<g>
						<path class="st2" d="M34.4,48h6.7c-0.3-1.4-0.5-2.7-0.5-2.9c0-0.4-0.1-0.6-0.7-2.5c-0.6-1.9-0.9-4.2-1.2-6
							c-0.3-1.7-1.3-2-1.3-2s-1.6,3.8-2.4,7.1v0c-0.2,0.8-0.4,1.7-0.5,3.4c-0.1,1.3-0.3,2.5-0.2,2.8C34.3,47.9,34.3,48,34.4,48z"/>
					</g>
				</g>
				<g>
					<g>
						<path class="st11" d="M13.4,48h8.7c-1.5-4.5-4.5-15-4.4-15.7c0,0-4.6,1.7-7.2,2.3c0,0,2.5,5.9,2.8,9.5
							C13.5,45.2,13.5,46.6,13.4,48z"/>
					</g>
					<g>
						<path class="st1" d="M18.7,32.8l3,4.3l2.3-3.5c0,0-1.3-0.6-2.7-1.6c-1.3-1-1.4-2.2-1.4-2.2c-0.3,0.1-0.4,0.2-0.5,0.6
							C19.4,30.8,18.7,32.8,18.7,32.8z"/>
					</g>
					<g>
						<path class="st2" d="M19.2,43.6c0.4,0.8,1.2,2.5,2.1,4.4H23c-0.5-2-1-3.8-1.1-4.3c-0.3-1.4-2.1-9.1-2.3-10.3
							c-0.2-1.2-0.2-2.8-0.2-2.8c-0.4,0.6-1.1,1-1.6,1.7c-0.5,0.6-1.2,2.3-1.2,2.3l1.4,0.7l-1.6,1.4C16.4,36.8,18.2,41.3,19.2,43.6z
							"/>
					</g>
					<g>
						<path class="st2" d="M13.6,48c0,0,0-0.1,0-0.1c0.1-0.3-0.2-1.5-0.2-2.8c-0.1-1.7-0.2-2.6-0.5-3.4v0c-0.8-3.3-2.4-7.1-2.4-7.1
							s-0.9,0.3-1.3,2c-0.3,1.7-0.6,4.1-1.2,6c-0.6,1.9-0.7,2-0.7,2.5c0,0.2-0.2,1.5-0.5,2.9H13.6z"/>
					</g>
				</g>
			</g>
		</g>
	</g>
</g>
</svg>
