<?xml version="1.0" encoding="utf-8"?>
<!-- Generator: Adobe Illustrator 18.0.0, SVG Export Plug-In . SVG Version: 6.00 Build 0)  -->
<!DOCTYPE svg PUBLIC "-//W3C//DTD SVG 1.1//EN" "http://www.w3.org/Graphics/SVG/1.1/DTD/svg11.dtd">
<svg version="1.1" id="Layer_1" xmlns="http://www.w3.org/2000/svg" xmlns:xlink="http://www.w3.org/1999/xlink" x="0px" y="0px"
	 viewBox="0 0 48 48" enable-background="new 0 0 48 48" xml:space="preserve">
<g>
	<g>
		<g>
			<g>
				<path fill="#66C6B9" d="M31,48H3c-1.7,0-3-1.3-3-3V8.4c0-1.7,1.3-3,3-3h28c1.7,0,3,1.3,3,3V45C34,46.7,32.7,48,31,48z"/>
				<rect x="3.7" y="9.1" fill="#FFFFFF" width="26.6" height="35.1"/>
			</g>
			<g>
				<path fill="#415A6B" d="M20.6,4c0.1-1.1-0.2-2.2-1-3c-1.4-1.4-3.7-1.4-5.1,0c-0.8,0.8-1.1,1.9-1,3c-3.7,0.8-5.5,3.1-5.6,6.1
					h18.3C26.1,7.1,24.3,4.8,20.6,4z M15.7,3.6c0-0.7,0.6-1.3,1.3-1.3c0.7,0,1.3,0.6,1.3,1.3c0,0.7-0.6,1.3-1.3,1.3
					C16.3,4.9,15.7,4.3,15.7,3.6z"/>
			</g>
			<g>
				<g>
					<path fill="#E8EAE9" d="M12.7,41.5H7.4c-0.3,0-0.6-0.3-0.6-0.6v-5.4c0-0.3,0.3-0.6,0.6-0.6h5.3c0.3,0,0.6,0.3,0.6,0.6v5.4
						C13.4,41.2,13.1,41.5,12.7,41.5z M8.3,40h3.6v-3.6H8.3V40z"/>
				</g>
				<g>
					<rect x="15.7" y="39" fill="#CED6E0" width="11.6" height="1.7"/>
				</g>
				<g>
					<rect x="15.7" y="35.6" fill="#CED6E0" width="11.6" height="1.7"/>
				</g>
				<g>
					<g>
						<polygon fill="#F3705A" points="9.6,40.8 6.6,37.8 7.4,37 9.6,39.1 13.8,34.9 14.6,35.7 						"/>
					</g>
				</g>
			</g>
			<g>
				<g>
					<path fill="#E8EAE9" d="M12.7,31.2H7.4c-0.3,0-0.6-0.3-0.6-0.6v-5.4c0-0.3,0.3-0.6,0.6-0.6h5.3c0.3,0,0.6,0.3,0.6,0.6v5.4
						C13.4,31,13.1,31.2,12.7,31.2z M8.3,29.7h3.6v-3.6H8.3V29.7z"/>
				</g>
				<g>
					<rect x="15.7" y="28.8" fill="#CED6E0" width="11.6" height="1.7"/>
				</g>
				<g>
					<rect x="15.7" y="25.4" fill="#CED6E0" width="11.6" height="1.7"/>
				</g>
				<g>
					<g>
						<polygon fill="#F3705A" points="9.6,30.6 6.6,27.6 7.4,26.8 9.6,28.9 13.8,24.7 14.6,25.5 						"/>
					</g>
				</g>
			</g>
			<g>
				<g>
					<path fill="#E8EAE9" d="M12.7,21H7.4c-0.3,0-0.6-0.3-0.6-0.6V15c0-0.3,0.3-0.6,0.6-0.6h5.3c0.3,0,0.6,0.3,0.6,0.6v5.4
						C13.4,20.7,13.1,21,12.7,21z M8.3,19.5h3.6v-3.6H8.3V19.5z"/>
				</g>
				<g>
					<rect x="15.7" y="18.5" fill="#CED6E0" width="11.6" height="1.7"/>
				</g>
				<g>
					<rect x="15.7" y="15.2" fill="#CED6E0" width="11.6" height="1.7"/>
				</g>
				<g>
					<g>
						<polygon fill="#F3705A" points="9.6,20.3 6.6,17.4 7.4,16.5 9.6,18.7 13.8,14.5 14.6,15.3 						"/>
					</g>
				</g>
			</g>
		</g>
		<g>
			<g>
				<g>
					
						<rect x="35.4" y="35.8" transform="matrix(0.7071 -0.7071 0.7071 0.7071 -15.6858 37.869)" fill="#344A5E" width="5" height="4.1"/>
				</g>
			</g>
			<g>
				<g>
					<g>
						<path fill="#F3705A" d="M37.3,42.4l4.6,4.6c1.4,1.4,3.7,1.4,5.1,0c1.4-1.4,1.4-3.7,0-5.1l-4.6-4.6L37.3,42.4z"/>
					</g>
				</g>
				<g>
					<g>
						
							<rect x="39.6" y="36.9" transform="matrix(-0.7071 -0.7071 0.7071 -0.7071 40.4791 97.7255)" fill="#F05540" width="1.7" height="7.2"/>
					</g>
				</g>
			</g>
			<g>
				<g>
					<g>
						<path fill="#F3705A" d="M42.7,37.6l-5.1,5.1c-0.5,0.5-1.2,0.5-1.6,0c-0.5-0.5-0.5-1.2,0-1.6L41,36c0.5-0.5,1.2-0.5,1.6,0
							S43.1,37.1,42.7,37.6z"/>
					</g>
				</g>
			</g>
		</g>
		<g>
			<circle fill="#FFFFFF" cx="29.3" cy="29.3" r="10.1"/>
			<path fill="#415A6B" d="M37.4,37.4c-4.5,4.5-11.8,4.5-16.3,0c-4.5-4.5-4.5-11.8,0-16.3s11.8-4.5,16.3,0
				C41.9,25.6,41.9,32.9,37.4,37.4z M23.1,23.1c-3.4,3.4-3.4,9,0,12.4c3.4,3.4,9,3.4,12.4,0c3.4-3.4,3.4-9,0-12.4
				S26.5,19.7,23.1,23.1z"/>
		</g>
		<g>
			<circle fill="#FFD15C" cx="29.3" cy="34.3" r="1.6"/>
			<path fill="#FFD15C" d="M33.3,26.2c0-1.1-0.4-2-1.1-2.6c-0.7-0.6-1.6-0.9-2.8-0.9c-1.1,0-2.1,0.3-2.9,1c-0.8,0.7-1.2,1.7-1.3,2.9
				h2.9c0-0.5,0.2-0.8,0.4-1.1c0.2-0.3,0.5-0.4,0.8-0.4c0.3,0,0.6,0.1,0.8,0.3c0.2,0.2,0.3,0.5,0.3,0.9c0,0.3-0.1,0.6-0.3,0.9
				l-1.2,1.3c-0.4,0.4-0.7,0.8-0.8,1c-0.1,0.3-0.2,0.6-0.2,1.1v1.4h2.8c0,0,0,0,0-1.1s0.9-1.6,0.9-1.6
				C33.4,27.8,33.3,26.2,33.3,26.2z"/>
		</g>
	</g>
</g>
</svg>
