<?xml version="1.0" encoding="utf-8"?>
<!-- Generator: Adobe Illustrator 20.1.0, SVG Export Plug-In . SVG Version: 6.00 Build 0)  -->
<!DOCTYPE svg PUBLIC "-//W3C//DTD SVG 1.1//EN" "http://www.w3.org/Graphics/SVG/1.1/DTD/svg11.dtd">
<svg version="1.1" id="Layer_1" xmlns="http://www.w3.org/2000/svg" xmlns:xlink="http://www.w3.org/1999/xlink" x="0px" y="0px"
	 viewBox="0 0 49 49" enable-background="new 0 0 49 49" xml:space="preserve">
<g>
	<polygon fill="#84DBFF" points="16.3,7.7 13.3,0.5 10.7,0.5 13.7,7.7 	"/>
	<g>
		<polygon fill="#54C0EB" points="10.7,0.5 11.3,1.9 14,2.1 13.3,0.5 		"/>
		<polygon fill="#54C0EB" points="15.7,6.3 13,6.1 12.2,4 14.8,4.2 		"/>
	</g>
	<path fill="#FF7058" d="M39.5,11L35,46.8c-0.1,1-1,1.8-2,1.8H16c-1,0-1.8-0.8-2-1.8L9.5,11H39.5z"/>
	<path fill="#F2F2F2" d="M39.6,7.4H9.4c-1,0-1.8,0.8-1.8,1.8c0,1,0.8,1.8,1.8,1.8h30.2c1,0,1.8-0.8,1.8-1.8
		C41.4,8.2,40.6,7.4,39.6,7.4z"/>
	<path fill="#F2F2F2" d="M37.7,25.2l1.1-9.1c-10,5.4-20.1,10.5-28.6,1.1l2.5,19.9C20.4,39.8,29,32.7,37.7,25.2z"/>
</g>
</svg>
