<?xml version="1.0" encoding="utf-8"?>
<!-- Generator: Adobe Illustrator 18.0.0, SVG Export Plug-In . SVG Version: 6.00 Build 0)  -->
<!DOCTYPE svg PUBLIC "-//W3C//DTD SVG 1.1//EN" "http://www.w3.org/Graphics/SVG/1.1/DTD/svg11.dtd">
<svg version="1.1" id="Layer_1" xmlns="http://www.w3.org/2000/svg" xmlns:xlink="http://www.w3.org/1999/xlink" x="0px" y="0px"
	 viewBox="0 0 512 512" enable-background="new 0 0 512 512" xml:space="preserve">
<g>
	<rect x="200.6" y="365.3" fill="#F6B44B" width="110.4" height="53"/>
	<g>
		<path fill="#F2705B" d="M101.1,200.6c-31.7-13.9-53.9-45.6-53.9-82.3V79.7h53.9V34.6H2v83.8c0,62.2,42.2,114.6,99.6,130.2
			c-0.4-4.2-0.6-8.5-0.6-12.9V200.6z"/>
		<path fill="#F2705B" d="M410.6,34.6v45.1h54.3v38.6c0,36.9-22.4,68.7-54.3,82.5v34.9c0,4.4-0.2,8.7-0.6,13
			c57.5-15.4,100-68,100-130.3V34.6H410.6z"/>
	</g>
	<path fill="#FFD05C" d="M101.1,2.2v233.5c0,85.5,69.3,154.8,154.8,154.8l0,0c85.5,0,154.8-69.3,154.8-154.8V2.2H101.1z"/>
	<path fill="#41596B" d="M389.4,418.3H122.2c-11.7,0-21.2,9.5-21.2,21.2v70.3h309.5v-70.3C410.6,427.8,401.1,418.3,389.4,418.3z"/>
	<polygon fill="#F2705B" points="149.7,2.2 149.7,143.8 186.6,116.5 223.5,143.8 223.5,2.2 	"/>
</g>
</svg>
