<?xml version="1.0" encoding="utf-8"?>
<!-- Generator: Adobe Illustrator 18.0.0, SVG Export Plug-In . SVG Version: 6.00 Build 0)  -->
<!DOCTYPE svg PUBLIC "-//W3C//DTD SVG 1.1//EN" "http://www.w3.org/Graphics/SVG/1.1/DTD/svg11.dtd">
<svg version="1.1" id="Layer_1" xmlns="http://www.w3.org/2000/svg" xmlns:xlink="http://www.w3.org/1999/xlink" x="0px" y="0px"
	 viewBox="0 0 48 48" enable-background="new 0 0 48 48" xml:space="preserve">
<g>
	<g>
		<g>
			
				<rect x="28.6" y="28.6" transform="matrix(0.7071 -0.7071 0.7071 0.7071 -13.2599 32.0121)" fill="#344A5E" width="6.9" height="6.9"/>
		</g>
		<g>
			<g>
				<g>
					<circle fill="#415A6B" cx="18.2" cy="18.2" r="18.2"/>
				</g>
			</g>
			<g>
				<g>
					<circle fill="#FFFFFF" cx="18.2" cy="18.2" r="14.2"/>
				</g>
			</g>
			<g>
				<g>
					<g>
						<path fill="#F3705A" d="M24.4,16.8c-0.6,0-1.1-0.5-1.1-1.1c0-2.3-1.9-4.3-4.3-4.3c-0.6,0-1.1-0.5-1.1-1.1
							c0-0.6,0.5-1.1,1.1-1.1c3.6,0,6.5,2.9,6.5,6.5C25.5,16.3,25,16.8,24.4,16.8z"/>
					</g>
				</g>
				<g>
					<g>
						<path fill="#F3705A" d="M12.9,27c-0.6,0-1.1-0.5-1.1-1.1c0-2.4-1.9-4.3-4.3-4.3c-0.6,0-1.1-0.5-1.1-1.1s0.5-1.1,1.1-1.1
							c3.6,0,6.5,2.9,6.5,6.5C14,26.5,13.5,27,12.9,27z"/>
					</g>
				</g>
				<g>
					<g>
						<path fill="#8AD7F8" d="M20.4,23.8c-0.2,0-0.4-0.1-0.6-0.2c-2.6-1.7-3.3-5.1-1.7-7.7c0.3-0.5,1-0.7,1.6-0.3
							c0.5,0.3,0.7,1,0.3,1.6c-1,1.5-0.5,3.6,1,4.6c0.5,0.3,0.7,1,0.3,1.6C21.2,23.6,20.8,23.8,20.4,23.8z"/>
					</g>
				</g>
				<g>
					<g>
						<path fill="#FFD15C" d="M24.1,28c-0.2,0-0.4,0-0.5-0.1c-0.5-0.3-0.8-1-0.5-1.5c0.8-1.6,2.3-2.7,4.1-3c0.6-0.1,1.2,0.3,1.3,0.9
							c0.1,0.6-0.3,1.2-0.9,1.3c-1.1,0.2-2,0.9-2.6,1.9C24.8,27.8,24.5,28,24.1,28z"/>
					</g>
				</g>
				<g>
					<g>
						<path fill="#4EC0AA" d="M10,14.4c-0.5,0-1-0.4-1.1-0.9C8.6,12,9,10.5,9.8,9.3c0.8-1.2,2.1-1.9,3.5-2.2C14,7,14.5,7.5,14.6,8.1
							c0.1,0.6-0.3,1.2-0.9,1.3c-0.8,0.1-1.5,0.6-2,1.2c-0.5,0.7-0.7,1.6-0.6,2.5c0.1,0.6-0.3,1.2-0.9,1.3
							C10.1,14.4,10.1,14.4,10,14.4z"/>
					</g>
				</g>
				<g>
					<g>
						<circle fill="#F3705A" cx="14" cy="14.1" r="1.1"/>
					</g>
				</g>
				<g>
					<g>
						<circle fill="#F3705A" cx="27.8" cy="18.4" r="1.1"/>
					</g>
				</g>
				<g>
					<g>
						<circle fill="#4EC0AA" cx="19" cy="27" r="1.1"/>
					</g>
				</g>
			</g>
		</g>
		<g>
			<path fill="#F3705A" d="M47.6,41.5l-6.1,6.1c-0.6,0.6-1.5,0.6-2.1,0l-9.8-9.8c-0.6-0.6-0.6-1.5,0-2.1l6.1-6.1
				c0.6-0.6,1.5-0.6,2.1,0l9.8,9.8C48.1,39.9,48.1,40.9,47.6,41.5z"/>
		</g>
	</g>
</g>
</svg>
