<?xml version="1.0" encoding="utf-8"?>
<!-- Generator: Adobe Illustrator 20.1.0, SVG Export Plug-In . SVG Version: 6.00 Build 0)  -->
<!DOCTYPE svg PUBLIC "-//W3C//DTD SVG 1.1//EN" "http://www.w3.org/Graphics/SVG/1.1/DTD/svg11.dtd">
<svg version="1.1" id="Layer_1" xmlns="http://www.w3.org/2000/svg" xmlns:xlink="http://www.w3.org/1999/xlink" x="0px" y="0px"
	 viewBox="0 0 49 49" enable-background="new 0 0 49 49" xml:space="preserve">
<g>
	<path fill="#4CDBC4" d="M47.5,11.2H30.2c-0.6,0-1,0.4-1,1v11.1c0,0.6,0.4,1,1,1h17.3c0.6,0,1-0.4,1-1V12.2
		C48.5,11.7,48,11.2,47.5,11.2z"/>
	<path fill="#F2F2F2" d="M30.3,21v-6.4c1.1,0,2-0.9,2-2h13c0,1.1,0.9,2,2,2V21c-1.1,0-2,0.9-2,2h-13C32.3,21.9,31.4,21,30.3,21z"/>
	<g>
		<circle fill="#4CDBC4" cx="38.4" cy="17.8" r="3.4"/>
		<path fill="#F2F2F2" d="M38.7,17.2c-0.6-0.2-0.6-0.3-0.6-0.5c0-0.2,0.2-0.3,0.4-0.3c0.3,0,0.6,0.1,0.7,0.2l0.3,0.2l0.3-0.9
			l-0.2-0.1c-0.2-0.1-0.4-0.2-0.7-0.2v-0.6H38v0.7c-0.6,0.2-1,0.6-1,1.2c0,0.8,0.6,1.1,1.2,1.3c0.5,0.2,0.5,0.4,0.5,0.5
			c0,0.2-0.2,0.4-0.5,0.4c-0.3,0-0.5-0.1-0.8-0.2l-0.3-0.2l-0.3,0.9l0.2,0.1c0.2,0.2,0.5,0.3,0.9,0.3v0.7h0.9v-0.7
			c0.6-0.2,1-0.7,1-1.3C39.9,17.8,39.2,17.4,38.7,17.2z"/>
		<g>
			<circle fill="#4CDBC4" cx="32.1" cy="17.8" r="0.7"/>
			<circle fill="#4CDBC4" cx="44.6" cy="17.8" r="0.7"/>
		</g>
	</g>
	<path fill="#4CDBC4" d="M44.8,8.1H27.5c-0.6,0-1,0.4-1,1v11.1c0,0.6,0.4,1,1,1h17.3c0.6,0,1-0.4,1-1V9.1
		C45.8,8.6,45.3,8.1,44.8,8.1z"/>
	<path fill="#F2F2F2" d="M27.6,17.9v-6.4c1.1,0,2-0.9,2-2h13c0,1.1,0.9,2,2,2v6.4c-1.1,0-2,0.9-2,2h-13
		C29.6,18.8,28.7,17.9,27.6,17.9z"/>
	<g>
		<circle fill="#4CDBC4" cx="35.7" cy="14.7" r="3.4"/>
		<path fill="#F2F2F2" d="M36,14.1c-0.6-0.2-0.6-0.3-0.6-0.5c0-0.2,0.2-0.3,0.4-0.3c0.3,0,0.6,0.1,0.7,0.2l0.3,0.2l0.3-0.9l-0.2-0.1
			c-0.2-0.1-0.4-0.2-0.7-0.2v-0.6h-0.9v0.7c-0.6,0.2-1,0.6-1,1.2c0,0.8,0.6,1.1,1.2,1.3c0.5,0.2,0.5,0.4,0.5,0.5
			c0,0.2-0.2,0.4-0.5,0.4c-0.3,0-0.5-0.1-0.8-0.2l-0.3-0.2l-0.3,0.9l0.2,0.1c0.2,0.2,0.5,0.3,0.9,0.3v0.7h0.9v-0.7
			c0.6-0.2,1-0.7,1-1.3C37.2,14.7,36.5,14.4,36,14.1z"/>
		<g>
			<circle fill="#4CDBC4" cx="29.4" cy="14.7" r="0.7"/>
			<circle fill="#4CDBC4" cx="41.9" cy="14.7" r="0.7"/>
		</g>
	</g>
	<path fill="#40596B" d="M31.2,2.4H2.5c-1.1,0-2,0.9-2,2v38.8c0,1.1,0.9,2,2,2h28.7c1.1,0,2-0.9,2-2V4.4C33.2,3.3,32.3,2.4,31.2,2.4
		z"/>
	
		<rect x="-2.1" y="9.9" transform="matrix(-1.836970e-16 1 -1 -1.836970e-16 40.5905 6.9242)" fill="#F2F2F2" width="37.8" height="27.7"/>
	<path fill="#FF7058" d="M23.1,0.5H10.6c-1.1,0-2,0.9-2,2v3.7h16.5V2.5C25.1,1.4,24.2,0.5,23.1,0.5z"/>
	<rect x="5" y="8.1" fill="#84DBFF" width="11" height="11.3"/>
	<rect x="18.3" y="17.1" fill="#CDD6E0" width="10.4" height="2.3"/>
	<rect x="5" y="22.4" fill="#CDD6E0" width="23.7" height="2.3"/>
	<rect x="5" y="27.6" fill="#CDD6E0" width="23.7" height="2.3"/>
	<rect x="5" y="32.9" fill="#CDD6E0" width="23.7" height="2.3"/>
	<rect x="5" y="38.2" fill="#CDD6E0" width="12.4" height="2.3"/>
	<path fill="#40596B" d="M16,19.2v0.3H5v-0.3c0.2-0.1,0.4-0.2,0.6-0.3c1-0.4,2.3-1,2.9-1.4c0.1,0,0.1-0.1,0.2-0.1
		c0,0,0.1-1.1,0.1-1.2c0,0-0.6-0.9-0.9-1.7c0,0,0,0,0,0c-0.2,0-0.4-0.3-0.5-0.8c-0.1-0.5,0-0.9,0.2-0.9h0c-0.1-1-0.1-3.8,3-3.8
		c3.1-0.1,3.1,2.8,3,3.8h0c0.2,0,0.3,0.5,0.2,0.9c-0.1,0.5-0.3,0.8-0.5,0.8c0,0,0,0,0,0c-0.3,0.8-0.9,1.7-0.9,1.7
		c0,0.1,0.1,1.2,0.1,1.2c0.1,0,0.1,0.1,0.2,0.1c0.6,0.4,1.9,1,2.9,1.4C15.6,19,15.8,19.1,16,19.2z"/>
	<path fill="#334A5E" d="M46.5,25.6H29.6c-1.1,0-2,0.9-2,2v18.9c0,1.1,0.9,2,2,2h16.9c1.1,0,2-0.9,2-2V27.6
		C48.5,26.5,47.6,25.6,46.5,25.6z"/>
	
		<rect x="35.1" y="20.8" transform="matrix(6.123234e-17 -1 1 6.123234e-17 8.1414 67.9876)" fill="#ACB3BA" width="6" height="18.2"/>
	<rect x="29.1" y="34.8" fill="#CDD6E0" width="4.7" height="3.2"/>
	<rect x="35.7" y="34.8" fill="#CDD6E0" width="4.7" height="3.2"/>
	<rect x="42.5" y="34.8" fill="#CDD6E0" width="4.7" height="3.2"/>
	<rect x="29.1" y="39.3" fill="#CDD6E0" width="4.7" height="3.2"/>
	<rect x="35.7" y="39.3" fill="#CDD6E0" width="4.7" height="3.2"/>
	<rect x="42.5" y="39.3" fill="#CDD6E0" width="4.7" height="3.2"/>
	<rect x="29.1" y="43.8" fill="#CDD6E0" width="4.7" height="3.2"/>
	<rect x="35.7" y="43.8" fill="#CDD6E0" width="4.7" height="3.2"/>
	<rect x="42.5" y="43.8" fill="#CDD6E0" width="4.7" height="3.2"/>
</g>
</svg>
