<?xml version="1.0" encoding="utf-8"?>
<!-- Generator: Adobe Illustrator 18.0.0, SVG Export Plug-In . SVG Version: 6.00 Build 0)  -->
<!DOCTYPE svg PUBLIC "-//W3C//DTD SVG 1.1//EN" "http://www.w3.org/Graphics/SVG/1.1/DTD/svg11.dtd">
<svg version="1.1" id="Layer_1" xmlns="http://www.w3.org/2000/svg" xmlns:xlink="http://www.w3.org/1999/xlink" x="0px" y="0px"
	 viewBox="0 0 512 512" enable-background="new 0 0 512 512" xml:space="preserve">
<g>
	<path fill="#FF7058" d="M494,495L494,495c-20.2,20.1-52.9,20-73-0.2l-62.7-63.1c-20.1-20.2-20-52.9,0.2-73l0,0
		c20.2-20.1,52.9-20,73,0.2l62.7,63.1C514.3,442.2,514.2,474.9,494,495z"/>
	<path fill="#F1543F" d="M494,495L494,495c-20.2,20.1-52.9,20-73-0.2l73.2-72.8C514.3,442.2,514.2,474.9,494,495z"/>
	<path fill="#40596B" d="M343.5,60.7c-77.5-78-204-78.4-281.9-0.9c-78,77.5-78.4,204-0.9,281.9c77.5,78,204,78.4,281.9,0.9
		S420.9,138.7,343.5,60.7z"/>
	<path fill="#FFFFFF" d="M202.1,358.3c-42.2,0-81.8-16.4-111.4-46.3c-61.1-61.4-60.7-161.1,0.7-222.2
		c29.6-29.4,68.9-45.6,110.7-45.6c42.2,0,81.8,16.4,111.4,46.3c61.1,61.4,60.7,161.1-0.7,222.2C283.2,342.1,243.9,358.3,202.1,358.3
		L202.1,358.3z"/>
	<path fill="#CDD6E0" d="M296.6,211.1c0.3-3.2,0.3-16.8-0.1-20.2l18.8-13.1l-8-24.5l-22.9,0.5c-3.4-5.8-7.4-11.3-11.9-16.2l7.5-21.7
		L259,100.6l-18.2,13.9c-6.1-2.7-12.5-4.9-19.2-6.3L215,86.3h-25.8l-6.6,21.9c-6.9,1.4-13.5,3.7-19.7,6.5L144.5,101l-20.8,15.3
		l7.7,21.7c-4.5,5-8.5,10.4-11.8,16.3l-22.9-0.4l-7.9,24.6l18.8,13c-0.3,3.2-0.3,16.8,0.1,20.2l-18.8,13.1l8,24.5l22.9-0.5
		c3.4,5.8,7.4,11.3,11.9,16.2l-7.5,21.7l20.9,15.1l18.2-13.9c6.1,2.7,12.5,4.9,19.2,6.3l6.6,21.9H215l6.6-21.9
		c6.9-1.4,13.5-3.7,19.7-6.5l18.3,13.8l20.8-15.3l-7.7-21.7c4.5-5,8.5-10.4,11.8-16.3l22.9,0.4l7.9-24.6L296.6,211.1z M202.1,265.9
		c-35.7,0-64.6-28.9-64.6-64.6c0-35.7,28.9-64.6,64.6-64.6s64.6,28.9,64.6,64.6C266.7,237,237.8,265.9,202.1,265.9z"/>
	<circle fill="#ACB3BA" cx="202.1" cy="201.3" r="35.8"/>
	<path fill="#334A5E" d="M358.5,358.7c6-6,13.2-10,20.8-12.4l-21.2-21.3c-4.8,6.1-9.9,12-15.6,17.6c-5.6,5.6-11.6,10.7-17.7,15.5
		l21.2,21.3C348.5,371.9,352.5,364.7,358.5,358.7z"/>
</g>
</svg>
