<?xml version="1.0" encoding="utf-8"?>
<!-- Generator: Adobe Illustrator 18.0.0, SVG Export Plug-In . SVG Version: 6.00 Build 0)  -->
<!DOCTYPE svg PUBLIC "-//W3C//DTD SVG 1.1//EN" "http://www.w3.org/Graphics/SVG/1.1/DTD/svg11.dtd">
<svg version="1.1" id="Layer_1" xmlns="http://www.w3.org/2000/svg" xmlns:xlink="http://www.w3.org/1999/xlink" x="0px" y="0px"
	 viewBox="0 0 48 48" enable-background="new 0 0 48 48" xml:space="preserve">
<g>
	<g>
		<g>
			<g>
				<path fill="#66C6B9" d="M14.7,16.1c-0.7-0.5-1.5-0.8-2.2-1.1c-0.7-0.3-1.5-0.8-2-1.4c0.3,0.9,0.2,1.9,0.4,2.8
					c0.1,1,0.5,1.9,1.2,2.7c0.7,0.8,1.6,1.3,2.5,1.4c0.4,0,0.9-0.1,1.2-0.4C16.7,19,16.4,17.5,14.7,16.1z"/>
			</g>
			<g>
				<path fill="#415A6B" d="M12.3,16.3c0,0,0.3,0.3,0.9,0.8c0.6,0.5,1.4,1.3,2.2,2.3c0.9,1.1,1.8,2.4,2.6,4c0.8,1.6,1.5,3.5,1.9,5.5
					c0.2,1,0.3,2,0.4,3.1c0.1,1,0.1,2.1,0,3.1c-0.1,1-0.2,2-0.4,3c-0.2,0.9-0.4,1.8-0.7,2.7c-0.5,1.6-1.1,3-1.6,3.9
					c-0.5,0.9-0.8,1.4-0.8,1.4c-0.8-0.5-1.7-1.1-2.5-1.6c0,0,0.3-0.4,0.8-1.2c0.5-0.8,1.1-1.9,1.7-3.3c0.3-0.7,0.6-1.5,0.8-2.3
					c0.2-0.8,0.5-1.7,0.6-2.6c0.2-0.9,0.3-1.9,0.3-2.8c0-1,0-1.9-0.1-2.9c-0.2-1.9-0.6-3.8-1.2-5.5c-0.6-1.6-1.4-3.1-2.1-4.2
					c-0.7-1.1-1.5-2-2-2.6C12.6,16.6,12.3,16.3,12.3,16.3z"/>
			</g>
			<g>
				<g>
					<path fill="#66C6B9" d="M18.5,20c0.2-0.9,0.5-1.6,0.7-2.4c0.2-0.8,0.3-1.9-0.1-2.7c0.6,0.9,1.5,1.6,2.1,2.5
						c0.7,1,1.1,2.3,1,3.5c-0.1,1.3-0.6,2.4-1.4,2.9c-0.4,0.3-0.8,0.4-1.2,0.2C18.4,23.3,18.1,22.1,18.5,20z"/>
				</g>
				<g>
					<path fill="#415A6B" d="M20.2,18.1c0,0,0.1,0.7,0.2,1.8c0,0.5,0,1.2-0.1,1.8c-0.1,0.7-0.2,1.3-0.3,2c-0.1,0.7-0.2,1.3-0.2,1.9
						c0,0.6-0.1,1.2-0.1,1.7c0,0.5,0,0.8,0.1,1c0.1,0.2,0.1,0.3,0.1,0.3c-0.2,0.2-0.5,0.5-0.7,0.7c0,0-0.1-0.2-0.2-0.6
						c-0.1-0.4-0.1-0.9,0-1.5c0.1-0.6,0.2-1.1,0.2-1.8c0.1-0.6,0.2-1.3,0.4-2c0.2-0.7,0.4-1.3,0.5-1.9c0.1-0.6,0.2-1.2,0.2-1.7
						C20.3,18.8,20.2,18.1,20.2,18.1z"/>
				</g>
			</g>
			<g>
				<g>
					<path fill="#66C6B9" d="M15.8,27.9c-0.6-0.2-1.3-0.2-2-0.2c-0.7-0.1-1.4-0.3-1.8-0.8c0.4,0.8,0.4,1.7,0.6,2.5
						c0.2,0.9,0.7,1.7,1.3,2.3c0.7,0.6,1.6,0.8,2.4,0.5c0.4-0.2,0.8-0.5,1-0.9C17.9,29.8,17.4,28.5,15.8,27.9z"/>
				</g>
				<g>
					<path fill="#415A6B" d="M13.6,28.8c0,0,0.4,0.3,1.1,0.8c0.3,0.2,0.7,0.5,1.1,0.7c0.4,0.2,0.9,0.4,1.4,0.7
						c0.5,0.3,0.9,0.7,1.3,1.1c0.4,0.4,0.7,0.8,0.9,1.2c0.2,0.4,0.4,0.9,0.4,1.3c0,0.4,0,0.6,0,0.6c-0.3,0-0.6,0-0.9,0
						c0,0,0-0.1,0-0.3c0-0.2,0-0.5-0.2-0.9c-0.2-0.4-0.4-0.8-0.7-1.3c-0.3-0.4-0.6-0.8-1-1.2c-0.4-0.3-0.9-0.6-1.3-0.9
						c-0.4-0.3-0.8-0.6-1.1-0.8C14,29.2,13.6,28.8,13.6,28.8z"/>
				</g>
			</g>
		</g>
		<g>
			<g>
				<g>
					<path fill="#66C6B9" d="M35.1,5.4c0.7-0.9,1.6-1.6,2.4-2.5c0.8-0.8,1.5-1.8,1.6-2.9c0.3,1.3,1.2,2.3,1.7,3.6
						c0.5,1.3,0.5,2.8-0.1,4.1c-0.6,1.3-1.7,2.4-3.1,2.9c-0.7,0.2-1.4,0.2-2,0C33.8,9.5,33.5,7.8,35.1,5.4z"/>
				</g>
			</g>
			<g>
				<path fill="#415A6B" d="M38.8,4.3c0,0-0.2,0.5-0.7,1.5c-0.4,1-1,2.3-1.6,4c-0.6,1.7-1.3,3.7-1.9,5.8c-0.6,2.1-1.2,4.4-1.6,6.8
					c-0.2,1.2-0.4,2.3-0.6,3.5c-0.2,1.1-0.3,2.3-0.4,3.4c-0.1,1.1-0.2,2.2-0.3,3.2c0,1-0.1,2-0.1,2.8c0,1.8,0,3.2,0,4.2
					c0,1,0.1,1.6,0.1,1.6h-4.6c0,0,0-0.6,0.1-1.7c0.1-1.1,0.2-2.6,0.5-4.4C27.8,34,28,33,28.2,32c0.2-1,0.4-2.1,0.7-3.2
					c0.3-1.1,0.5-2.3,0.9-3.4c0.3-1.2,0.7-2.3,1-3.5c0.8-2.3,1.6-4.6,2.5-6.7c0.9-2.1,1.8-4,2.6-5.6C36.7,8,37.4,6.7,38,5.8
					C38.5,4.9,38.8,4.3,38.8,4.3z"/>
			</g>
			<g>
				<g>
					<path fill="#66C6B9" d="M31.5,11.3c-0.6-0.9-1.5-1.6-2.3-2.4C28.5,8,27.8,7,27.9,6c-0.4,1.2-1.3,2.1-1.8,3.3
						c-0.5,1.2-0.6,2.6-0.1,3.9c0.5,1.3,1.6,2.4,2.9,2.8c0.6,0.2,1.3,0.3,1.9,0.1C32.6,15.1,33,13.6,31.5,11.3z"/>
				</g>
				<g>
					<path fill="#415A6B" d="M28,9.7c0,0,0.2,0.8,0.7,1.9c0.2,0.6,0.5,1.2,0.9,1.8c0.4,0.6,0.8,1.3,1.2,2c0.4,0.7,0.7,1.5,1,2.3
						c0.2,0.8,0.4,1.4,0.5,2.1c0.1,0.7,0.1,1.3-0.1,1.7C32.2,22,32,22.2,32,22.2l-1.1-0.8c0,0,0.1-0.1,0.2-0.3
						c0.1-0.2,0.2-0.6,0.2-1.2c0-0.5-0.2-1.3-0.3-2c-0.1-0.7-0.4-1.5-0.7-2.2c-0.3-0.7-0.7-1.4-1-2.1c-0.3-0.7-0.6-1.4-0.7-2
						C28.2,10.5,28,9.7,28,9.7z"/>
				</g>
			</g>
			<g>
				<g>
					<path fill="#66C6B9" d="M37.4,20.6c1-0.3,2.1-0.2,3.2-0.3c1.1-0.1,2.2-0.4,2.9-1.2c-0.5,1.2-0.5,2.6-0.9,3.8
						c-0.4,1.3-1.3,2.4-2.5,3.1c-1.2,0.6-2.7,0.7-3.9,0.2c-0.6-0.3-1.1-0.7-1.4-1.3C34,22.9,34.8,21.4,37.4,20.6z"/>
				</g>
				<g>
					<path fill="#415A6B" d="M40.8,21.9c0,0-0.6,0.5-1.6,1.2c-0.5,0.3-1.1,0.7-1.8,1c-0.7,0.3-1.5,0.6-2.2,1
						c-0.7,0.3-1.4,0.8-1.9,1.2c-0.6,0.5-1.1,0.9-1.5,1.3c-0.4,0.4-0.6,0.8-0.6,1C31,28.9,31,29.1,31,29.1l-1.4-0.2
						c0,0,0-0.3,0.2-0.7c0.2-0.4,0.5-0.9,1.1-1.4c0.5-0.4,1.1-0.8,1.7-1.3c0.7-0.4,1.4-0.8,2.2-1.1c0.8-0.3,1.6-0.5,2.3-0.7
						c0.7-0.2,1.4-0.5,1.9-0.8C40.1,22.4,40.8,21.9,40.8,21.9z"/>
				</g>
			</g>
		</g>
		<g>
			<path fill="#FFD15C" d="M41.2,48c-4.6-5.8-11.1-9.5-18.3-9.5c-7.2,0-13.7,3.6-18.3,9.5H41.2z"/>
		</g>
	</g>
</g>
</svg>
