<?xml version="1.0" encoding="utf-8"?>
<!-- Generator: Adobe Illustrator 18.0.0, SVG Export Plug-In . SVG Version: 6.00 Build 0)  -->
<!DOCTYPE svg PUBLIC "-//W3C//DTD SVG 1.1//EN" "http://www.w3.org/Graphics/SVG/1.1/DTD/svg11.dtd">
<svg version="1.1" id="Layer_1" xmlns="http://www.w3.org/2000/svg" xmlns:xlink="http://www.w3.org/1999/xlink" x="0px" y="0px"
	 viewBox="0 0 48 48" enable-background="new 0 0 48 48" xml:space="preserve">
<g>
	<g>
		<g>
			<rect x="13.2" y="15" fill="#344A5E" width="4.1" height="28.8"/>
		</g>
		<g>
			<g>
				<g>
					<circle fill="#FFD15C" cx="34.3" cy="13.1" r="4.5"/>
					<g>
						<path fill="#FFD15C" d="M43.8,15.4l-3-1c-0.5-0.2-1.1,0.1-1.2,0.6v0c-0.2,0.5,0.1,1.1,0.6,1.2l3,1c0.5,0.2,1.1-0.1,1.2-0.6v0
							C44.6,16.1,44.3,15.5,43.8,15.4z"/>
					</g>
					<g>
						<path fill="#FFD15C" d="M42.7,7.9l-2.8,1.4c-0.5,0.2-0.7,0.8-0.5,1.3l0,0c0.2,0.5,0.8,0.7,1.3,0.5l2.8-1.4
							C44,9.5,44.2,8.9,44,8.4v0C43.7,7.9,43.1,7.7,42.7,7.9z"/>
					</g>
					<g>
						<path fill="#FFD15C" d="M39.4,21.5L38,18.6c-0.2-0.5-0.8-0.7-1.3-0.5v0c-0.5,0.2-0.7,0.8-0.5,1.3l1.4,2.8
							c0.2,0.5,0.8,0.7,1.3,0.5l0,0C39.4,22.5,39.6,21.9,39.4,21.5z"/>
					</g>
				</g>
				<g>
					<g>
						<polygon fill="#344A5E" points="27.5,22.8 21.7,14.6 21.7,14.6 25.4,4.1 35,1.2 						"/>
						<g>
							<path fill="#344A5E" d="M10.3,4.8L10.3,4.8c-1,2.9,0.5,6.1,3.4,7.1l7.9,2.8l3.7-10.5l-7.9-2.8C14.5,0.3,11.3,1.8,10.3,4.8z"
								/>
						</g>
					</g>
					<g>
						<path fill="#F3F3F3" d="M37.1,0.1L37.1,0.1c-0.8-0.3-1.8,0.2-2.1,1l-7.6,21.8c-0.3,0.8,0.2,1.8,1,2.1l0,0
							c0.8,0.3,1.8-0.2,2.1-1l7.6-21.8C38.4,1.3,37.9,0.4,37.1,0.1z"/>
					</g>
				</g>
			</g>
		</g>
		<g>
			<path fill="#415A6B" d="M27,48c-0.5-3-5.6-5.4-11.8-5.4S4,45,3.5,48H27z"/>
		</g>
		<g>
			<g>
				<circle fill="#415A6B" cx="15.3" cy="11.8" r="4.5"/>
			</g>
			<g>
				<circle fill="#344A5E" cx="15.3" cy="11.8" r="2.1"/>
			</g>
		</g>
	</g>
</g>
</svg>
