<?xml version="1.0" encoding="utf-8"?>
<!-- Generator: Adobe Illustrator 19.0.1, SVG Export Plug-In . SVG Version: 6.00 Build 0)  -->
<svg version="1.1" id="Layer_1" xmlns="http://www.w3.org/2000/svg" xmlns:xlink="http://www.w3.org/1999/xlink" x="0px" y="0px"
	 viewBox="0 0 48 48" style="enable-background:new 0 0 48 48;" xml:space="preserve">
<style type="text/css">
	.st0{fill:#66C6B9;}
	.st1{fill:#F3F3F3;}
	.st2{fill:#415A6B;}
	.st3{fill:#CED6E0;}
	.st4{fill:#F3705A;}
	.st5{fill:#E8EAE9;}
	.st6{fill:#4ABAA5;}
	.st7{fill:#F05540;}
	.st8{fill:#FFD15C;}
	.st9{fill:#55C0EB;}
	.st10{fill:#8AD7F8;}
	.st11{fill:#344A5E;}
	.st12{fill:#FFFFFF;}
	.st13{fill:#F7B64C;}
	.st14{fill:#ADB3BA;}
	.st15{fill:#38A892;}
	.st16{fill:#ED9845;}
	.st17{fill:#2D4251;}
	.st18{fill:#304556;}
	.st19{fill:#A5AAAD;}
	.st20{fill:#2D4456;}
	.st21{fill:#4FB0E0;}
	.st22{fill:#2D4354;}
	.st23{fill:#E54C38;}
	.st24{fill:#2B4456;}
	.st25{fill:#2B404F;}
</style>
<g>
	<g>
		<g>
			<g>
				<g>
					<g>
						<g>
							<path class="st0" d="M45,12.3H3c-1.7,0-3,1.3-3,3V45c0,1.7,1.3,3,3,3h42c1.7,0,3-1.3,3-3V15.3C48,13.7,46.7,12.3,45,12.3z
								 M29.5,18.2H18.5c-0.8,0-1.5-0.7-1.5-1.5c0-0.8,0.7-1.5,1.5-1.5h10.9c0.8,0,1.5,0.7,1.5,1.5C31,17.5,30.3,18.2,29.5,18.2z"/>
						</g>
						<g>
							<rect x="4" y="20.9" class="st1" width="40" height="23.1"/>
						</g>
					</g>
				</g>
			</g>
			<g>
				<g>
					<path class="st0" d="M45,12.3H3c-1.7,0-3,1.3-3,3V45c0,1.7,1.3,3,3,3h42c1.7,0,3-1.3,3-3V15.3C48,13.7,46.7,12.3,45,12.3z
						 M29.5,18.2H18.5c-0.8,0-1.5-0.7-1.5-1.5c0-0.8,0.7-1.5,1.5-1.5h10.9c0.8,0,1.5,0.7,1.5,1.5C31,17.5,30.3,18.2,29.5,18.2z"/>
				</g>
				<g>
					<rect x="4" y="20.9" class="st1" width="40" height="23.1"/>
				</g>
			</g>
			<g>
				<g>
					<circle class="st2" cx="14.5" cy="28.5" r="3.5"/>
					<g>
						<path class="st2" d="M21,39.9c-0.1-3.5-3-6.3-6.5-6.3c-3.5,0-6.4,2.8-6.5,6.3H21z"/>
					</g>
				</g>
				<g>
					<g>
						<rect x="22.9" y="31" class="st3" width="17.1" height="2.8"/>
					</g>
					<g>
						<rect x="22.9" y="37.1" class="st3" width="17.1" height="2.8"/>
					</g>
				</g>
			</g>
			<g>
				<path class="st4" d="M28.8,0v15.1c0,0.8-0.7,1.5-1.5,1.5h-6.6c-0.8,0-1.5-0.7-1.5-1.5V0H28.8z"/>
			</g>
		</g>
	</g>
</g>
</svg>
