<?xml version="1.0" encoding="utf-8"?>
<!-- Generator: Adobe Illustrator 18.0.0, SVG Export Plug-In . SVG Version: 6.00 Build 0)  -->
<!DOCTYPE svg PUBLIC "-//W3C//DTD SVG 1.1//EN" "http://www.w3.org/Graphics/SVG/1.1/DTD/svg11.dtd">
<svg version="1.1" id="Layer_1" xmlns="http://www.w3.org/2000/svg" xmlns:xlink="http://www.w3.org/1999/xlink" x="0px" y="0px"
	 viewBox="0 0 48 48" enable-background="new 0 0 48 48" xml:space="preserve">
<g>
	<g>
		<g>
			<g>
				
					<ellipse transform="matrix(0.9845 0.1752 -0.1752 0.9845 3.9441 -4.6824)" fill="#FFD15C" cx="28.5" cy="20" rx="0.8" ry="1.5"/>
			</g>
			<g>
				
					<ellipse transform="matrix(-0.9845 0.1752 -0.1752 -0.9845 42.2385 36.2739)" fill="#FFD15C" cx="19.5" cy="20" rx="0.8" ry="1.5"/>
			</g>
			<g>
				<path fill="#415A6B" d="M29.3,16c0,2.4-1.5,7.3-5.3,7.3c-3.8,0-5.3-5-5.3-7.3s2.4-4.3,5.3-4.3C27,11.8,29.3,13.7,29.3,16z"/>
			</g>
			<g>
				<path fill="#E8EAE9" d="M32.1,28.1c-0.7-0.3-1.4-0.6-2.1-0.8H18c-0.7,0.2-1.4,0.5-2.1,0.8c-1.2,0.6-2.2,1.6-2.8,2.7
					c2.5,3.3,6.4,5.4,10.8,5.4c4.4,0,8.4-2.1,10.8-5.4C34.2,29.7,33.3,28.7,32.1,28.1z"/>
			</g>
			<g>
				<path fill="#F7B64C" d="M21.2,24v1.1c0.6,1.1,1.6,1.8,2.8,2c1.1-0.2,2.1-1,2.8-2V24H21.2z"/>
			</g>
			<g>
				<path fill="#8AD7F8" d="M24.8,30.3l0.8-1.3c0,0-1-1.8-1.6-1.8c-0.6,0-1.6,1.8-1.6,1.8l0.8,1.3H24.8z"/>
			</g>
			<g>
				<path fill="#8AD7F8" d="M21.8,36c0.7,0.1,1.4,0.2,2.2,0.2c0.8,0,1.5-0.1,2.2-0.2l-1.4-5.8h-1.6L21.8,36z"/>
			</g>
			<g>
				<path fill="#344A5E" d="M32.1,28.1c-1.4-0.7-2.8-1.1-4.3-1.4L25,36.2c4-0.3,7.5-2.3,9.8-5.4C34.2,29.7,33.3,28.7,32.1,28.1z"/>
			</g>
			<g>
				<path fill="#344A5E" d="M20.2,26.7c-1.5,0.3-2.9,0.8-4.3,1.4c-1.2,0.6-2.2,1.6-2.8,2.7c2.3,3,5.8,5,9.8,5.3L20.2,26.7z"/>
			</g>
			<g>
				<path fill="#FFD15C" d="M24.1,15.3c-0.9,0-1.7-0.1-2.5-0.3c-0.9-0.2-1.8,0.4-2,1.4c-0.1,0.6-0.2,1.3-0.2,2c0,4,2,7.2,4.5,7.2
					s4.5-3.2,4.5-7.2c0-0.7-0.1-1.3-0.2-2c-0.2-0.9-1-1.5-1.9-1.3C25.7,15.2,24.9,15.3,24.1,15.3z"/>
			</g>
			<g>
				<path fill="#F3F3F3" d="M26.8,24.9C26.1,26,24,27.2,24,27.2s1.8,2.5,2.1,3.3l1.6-3.7L26.8,24.9z"/>
			</g>
			<g>
				<path fill="#F3F3F3" d="M21.2,24.9c0.7,1.1,2.8,2.2,2.8,2.2s-1.8,2.5-2.1,3.3l-1.6-3.7L21.2,24.9z"/>
			</g>
			<g>
				<path fill="#415A6B" d="M20.7,25.9l-3,2.8l2.2,1.2l-2,1.3l3.5,4.7c0.6,0.1,1.2,0.2,1.8,0.2L20.7,25.9z"/>
			</g>
			<g>
				<path fill="#415A6B" d="M27.3,25.9l-2.5,10.3c0.6,0,1.2-0.1,1.8-0.2l3.5-4.7l-2-1.3l2.2-1.2L27.3,25.9z"/>
			</g>
		</g>
		<path fill="#F3705A" d="M46.6,22.6h-1.6C44.2,12.1,35.9,3.8,25.4,3.1V1.4C25.4,0.6,24.8,0,24,0c-0.8,0-1.4,0.6-1.4,1.4v1.6
			C12.1,3.8,3.8,12.1,3.1,22.6H1.4C0.6,22.6,0,23.2,0,24s0.6,1.4,1.4,1.4h1.6c0.7,10.5,9.1,18.8,19.5,19.5v1.6
			c0,0.8,0.6,1.4,1.4,1.4c0.8,0,1.4-0.6,1.4-1.4v-1.6c10.5-0.7,18.8-9.1,19.5-19.5h1.6c0.8,0,1.4-0.6,1.4-1.4S47.4,22.6,46.6,22.6z
			 M25.4,41.2v-1.6c0-0.8-0.6-1.4-1.4-1.4c-0.8,0-1.4,0.6-1.4,1.4v1.6c-8.4-0.7-15-7.4-15.7-15.7h1.6c0.8,0,1.4-0.6,1.4-1.4
			s-0.6-1.4-1.4-1.4H6.8c0.7-8.4,7.4-15,15.7-15.7v1.6c0,0.8,0.6,1.4,1.4,1.4c0.8,0,1.4-0.6,1.4-1.4V6.8c8.4,0.7,15,7.4,15.7,15.7
			h-1.6c-0.8,0-1.4,0.6-1.4,1.4s0.6,1.4,1.4,1.4h1.6C40.5,33.8,33.8,40.5,25.4,41.2z"/>
	</g>
</g>
</svg>
