<?xml version="1.0" encoding="utf-8"?>
<!-- Generator: Adobe Illustrator 20.1.0, SVG Export Plug-In . SVG Version: 6.00 Build 0)  -->
<!DOCTYPE svg PUBLIC "-//W3C//DTD SVG 1.1//EN" "http://www.w3.org/Graphics/SVG/1.1/DTD/svg11.dtd">
<svg version="1.1" id="Layer_1" xmlns="http://www.w3.org/2000/svg" xmlns:xlink="http://www.w3.org/1999/xlink" x="0px" y="0px"
	 viewBox="0 0 49 49" enable-background="new 0 0 49 49" xml:space="preserve">
<g>
	<polygon fill="#CDD6E0" points="42.3,29.6 42.3,35 40.3,35 40.3,31.6 25.5,31.6 25.5,34.6 23.5,34.6 23.5,31.6 8.7,31.6 8.7,35 
		6.7,35 6.7,29.6 23.5,29.6 23.5,26.6 25.5,26.6 25.5,29.6 	"/>
	<path fill="#F2F2F2" d="M14.9,41.3c0,1.5-0.4,2.9-1.2,4c-0.6,0.8-1.3,1.5-2.1,2.1c-0.1,0.1-0.3,0.2-0.4,0.3c-1,0.6-2.2,0.9-3.5,0.9
		c-1.2,0-2.4-0.3-3.4-0.9c-0.1-0.1-0.3-0.2-0.4-0.3c-0.8-0.5-1.6-1.2-2.1-2.1c-0.8-1.1-1.2-2.5-1.2-4c0-4,3.2-7.2,7.2-7.2
		C11.7,34,14.9,37.3,14.9,41.3z"/>
	<circle fill="#F2F2F2" cx="41.3" cy="41.3" r="7.2"/>
	<path fill="#F2F2F2" d="M31.7,41.3c0,1.6-0.5,3.1-1.4,4.3c-1.3,1.8-3.4,3-5.8,3s-4.5-1.2-5.8-3c-0.9-1.2-1.4-2.7-1.4-4.3
		c0-4,3.2-7.2,7.2-7.2S31.7,37.3,31.7,41.3z"/>
	<path fill="#FF7058" d="M30.3,45.5c-1.3,1.8-3.4,3-5.8,3s-4.5-1.2-5.8-3c0.3-0.3,0.6-0.4,0.9-0.6c1-0.4,2.3-1,2.9-1.4
		c0.1,0,0.1-0.1,0.2-0.1c0,0,0.1-1.1,0.1-1.2c0,0-0.6-0.9-0.9-1.7c0,0,0,0,0,0c-0.2,0-0.4-0.3-0.5-0.8c-0.1-0.5,0-0.9,0.2-0.9h0
		c-0.1-1-0.2-3.8,3-3.8c3.1,0,3.1,2.8,3,3.8h0c0.2,0,0.3,0.5,0.2,0.9c-0.1,0.5-0.3,0.8-0.5,0.8c0,0,0,0,0,0
		c-0.3,0.8-0.9,1.7-0.9,1.7c0,0.1,0.1,1.2,0.1,1.2c0.1,0,0.1,0.1,0.2,0.1c0.5,0.4,1.9,1,2.9,1.4C29.7,45.1,30.1,45.3,30.3,45.5z"/>
	<path fill="#CDD6E0" d="M13.5,45.5c-1.3,1.8-3.4,3-5.8,3c-2.4,0-4.5-1.2-5.8-3c0.3-0.3,0.6-0.4,0.9-0.6c1-0.4,2.3-1,2.9-1.4
		c0.1,0,0.1-0.1,0.2-0.1c0,0,0.1-1.1,0.1-1.2c0,0-0.6-0.9-0.9-1.7c0,0,0,0,0,0c-0.2,0-0.4-0.3-0.5-0.8c-0.1-0.5,0-0.9,0.2-0.9h0
		c-0.1-1-0.2-3.8,3-3.8c3.1,0,3.1,2.8,3,3.8h0c0.2,0,0.3,0.5,0.2,0.9c-0.1,0.5-0.3,0.8-0.5,0.8c0,0,0,0,0,0
		c-0.3,0.8-0.9,1.7-0.9,1.7c0,0.1,0.1,1.2,0.1,1.2c0.1,0,0.1,0.1,0.2,0.1c0.6,0.4,1.9,1,2.9,1.4C13,45.1,13.3,45.3,13.5,45.5z"/>
	<path fill="#84DBFF" d="M47.1,45.5c-1.3,1.8-3.4,3-5.8,3c-2.4,0-4.5-1.2-5.8-3c0.3-0.3,0.6-0.4,0.9-0.6c1-0.4,2.3-1,2.9-1.4
		c0.1,0,0.1-0.1,0.2-0.1c0,0,0.1-1.1,0.1-1.2c0,0-0.6-0.9-0.9-1.7c0,0,0,0,0,0c-0.2,0-0.4-0.3-0.5-0.8c-0.1-0.5,0-0.9,0.2-0.9h0
		c-0.1-1-0.2-3.8,3-3.8c3.1,0,3.1,2.8,3,3.8h0c0.2,0,0.3,0.5,0.2,0.9c-0.1,0.5-0.3,0.8-0.5,0.8c0,0,0,0,0,0
		c-0.3,0.8-0.9,1.7-0.9,1.7c0,0.1,0.1,1.2,0.1,1.2c0,0,0.1,0.1,0.2,0.1c0.5,0.4,1.9,1,2.9,1.4C46.5,45.1,46.8,45.3,47.1,45.5z"/>
	<path fill="#B8CAD8" d="M25.5,26.6v2.1c-0.1,0-0.1,0-0.2,0h-0.1c-0.2,0-0.4,0-0.7,0c-0.3,0-0.5,0-0.8,0c-0.1,0-0.2,0-0.2,0v-2.1
		H25.5z"/>
	<path fill="#ACB3BA" d="M37.8,13.8c0,2.8-0.9,5.4-2.4,7.6c-0.5,0.7-1.1,1.4-1.8,2.1c-2.2,2.1-5.2,3.5-8.5,3.7h0c-0.2,0-0.5,0-0.7,0
		s-0.5,0-0.7,0c-3.3-0.2-6.3-1.5-8.5-3.7c-0.7-0.6-1.2-1.3-1.8-2.1c-1.5-2.2-2.4-4.8-2.4-7.6c0-7.4,6-13.3,13.3-13.3
		C31.9,0.5,37.8,6.5,37.8,13.8z"/>
	<g>
		
			<ellipse transform="matrix(0.9806 -0.1961 0.1961 0.9806 -1.6223 4.0593)" fill="#F8B64C" cx="19.7" cy="10.2" rx="0.6" ry="1.5"/>
		
			<ellipse transform="matrix(0.1961 -0.9806 0.9806 0.1961 13.5458 36.9641)" fill="#F8B64C" cx="29.3" cy="10.2" rx="1.5" ry="0.6"/>
		<path fill="#CDD6E0" d="M35.5,21.4c-0.5,0.7-1.1,1.4-1.8,2.1c-2.2,2.1-5.2,3.5-8.5,3.7h-1.4c-3.3-0.2-6.3-1.5-8.5-3.7
			c-0.7-0.6-1.2-1.3-1.8-2.1c0.2-0.6,0.5-1.1,0.8-1.5c0,0,0.1,0,0.2-0.1h0c0,0,0,0,0,0c0.2-0.1,0.7-0.2,1.2-0.5
			c1.2-0.5,2.9-1.2,4.3-2c0.2-0.1,0.5-0.3,0.7-0.4c0.2-0.1,0.4-0.3,0.6-0.4v0l0.2-0.9c0,0,0.8,1.6,2.5,1.8c0.1,0,0.3,0,0.4,0h0.2
			c0.2,0,0.4,0,0.6,0c0,0,0,0,0,0c0.1,0,0.2,0,0.3-0.1c0.1,0,0.2-0.1,0.3-0.1c0.2-0.1,0.3-0.1,0.4-0.2c0.1,0,0.2-0.1,0.3-0.2
			c0.2-0.1,0.3-0.2,0.4-0.3c0.2-0.2,0.3-0.3,0.4-0.4c0.2-0.3,0.3-0.5,0.3-0.5l0.2,0.9c1.9,1.4,5.8,2.9,6.8,3.3
			c0.1,0,0.2,0.1,0.2,0.1C35,20.3,35.2,20.9,35.5,21.4z"/>
		<path fill="#ACB3BA" d="M21.6,19.3l0.8,1.4l1.1-1.7l-0.3-0.3L22.3,20l-1-1.9C21.4,18.4,21.4,18.8,21.6,19.3z"/>
		<path fill="#F8B64C" d="M27.5,15.7c0,0-0.8,1.6-2.5,1.8c-0.2,0-0.4,0-0.6,0c-0.2,0-0.4,0-0.6,0c-1.7-0.2-2.5-1.8-2.5-1.8
			s0-0.3,0-0.6c0-0.2,0-0.3,0-0.5c1.4,1.8,3,2,3,2s1.6-0.3,3-2c0,0.1,0,0.3,0,0.5C27.5,15.3,27.5,15.7,27.5,15.7z"/>
		<path fill="#F7AF48" d="M27.5,15c-1.4,1.5-2.8,1.8-2.9,1.8l0,0l0,0c-0.1,0-1.6-0.3-2.9-1.8c0-0.2,0-0.3,0-0.5c1.4,1.8,3,2,3,2
			s1.6-0.3,3-2C27.5,14.7,27.5,14.8,27.5,15z"/>
		<path fill="#FFD15C" d="M29.5,8.9c0,0.3-0.1,0.5-0.1,0.5c-0.9,6.5-5,7.2-5,7.2s-4.1-0.7-5-7.2c0,0,0-0.2-0.1-0.5v0
			c-0.2-1.6-0.4-6.6,5-6.5C29.9,2.2,29.8,7.2,29.5,8.9z"/>
		<path fill="#40596B" d="M34.6,20l-0.9,3.5c-2.2,2.1-5.2,3.5-8.5,3.7h-0.7v-1.7c0.1-0.2,0.2-0.4,0.3-0.7c0.2-0.5,0.5-1,0.7-1.4
			c0-0.1,0.1-0.1,0.1-0.2c0.6-1.1,1-2,1-2c0.3-0.7,0.6-1.3,0.8-1.9c0.1-0.2,0.1-0.5,0.2-0.7c0.3-1.4,0.1-2.1,0.1-2.1h0
			c1.9,1.4,5.8,2.9,6.8,3.3L34.6,20z"/>
		<path fill="#ACB3BA" d="M27.4,19.3l-0.8,1.4l-1.1-1.7l0.3-0.3l0.9,1.3l1-1.9C27.7,18.4,27.6,18.8,27.4,19.3z"/>
		<path fill="#FFFFFF" d="M25,19.5l0.6,3.7c-0.4,0.7-0.8,1.6-1.1,2.3c-0.3-0.7-0.8-1.6-1.1-2.3l0.6-3.7l-0.8-0.9l0.7-1.2
			c0,0,0,0,0,0c0.2,0,0.4,0,0.6,0c0.2,0,0.4,0,0.6,0c0,0,0,0,0,0l0.7,1.2L25,19.5z"/>
		<path fill="#334A5E" d="M25.2,27.2L25.2,27.2l-0.7,0c-0.2,0-0.5,0-0.7,0c-3.3-0.2-6.3-1.5-8.5-3.7L14.4,20l0.2-0.1h0l0,0
			c0.2-0.1,0.7-0.2,1.2-0.4c1.2-0.5,2.9-1.2,4.3-2c0.2-0.1,0.5-0.3,0.7-0.4c0.2-0.1,0.4-0.3,0.6-0.4h0c0,0-0.2,0.7,0.1,2.1
			c0,0.2,0.1,0.4,0.2,0.7c0.2,0.6,0.4,1.2,0.8,1.9c0,0,0.5,0.9,1,2c0,0.1,0.1,0.1,0.1,0.2c0.2,0.5,0.5,1,0.7,1.4
			c0.1,0.2,0.2,0.5,0.3,0.7C24.9,26.3,25.2,26.9,25.2,27.2z"/>
		<path fill="#334A5E" d="M29.5,8.9l-0.2,0.2c0,0-0.2-2.6-1.4-4.5c0,0-0.8,1.1-3.4,1.1c-2.7,0-3.4-1.1-3.4-1.1
			c-1.2,1.8-1.4,4.5-1.4,4.5l-0.2-0.2v0c-0.2-1.6-0.4-6.6,5-6.5C29.9,2.2,29.8,7.2,29.5,8.9z"/>
	</g>
</g>
</svg>
