<?xml version="1.0" encoding="utf-8"?>
<!-- Generator: Adobe Illustrator 18.0.0, SVG Export Plug-In . SVG Version: 6.00 Build 0)  -->
<!DOCTYPE svg PUBLIC "-//W3C//DTD SVG 1.1//EN" "http://www.w3.org/Graphics/SVG/1.1/DTD/svg11.dtd">
<svg version="1.1" id="Layer_1" xmlns="http://www.w3.org/2000/svg" xmlns:xlink="http://www.w3.org/1999/xlink" x="0px" y="0px"
	 viewBox="0 0 48 48" enable-background="new 0 0 48 48" xml:space="preserve">
<g>
	<g>
		<g>
			<g>
				<g>
					<polygon fill="#F05540" points="11.4,37.7 11.1,38.8 21.9,48 26.1,48 36.9,38.8 36.6,37.7 					"/>
				</g>
			</g>
			<g>
				<g>
					<path fill="#F3705A" d="M36.9,38.8c-6.3-1.2-9.9,2-10.8,9.2h-4.3c-0.9-7.2-4.5-10.4-10.8-9.2l3.2-11.7c6.3,1.9,12.8,1.9,19.4,0
						L36.9,38.8z"/>
				</g>
			</g>
		</g>
		<path fill="#F05540" d="M37.4,12.7c-0.4-0.5-1.1-0.6-2-0.5c-0.3-3.1-1.4-6-3.3-8.2c-2.2-2.6-5-4-8.1-4s-5.9,1.4-8.1,4
			c-1.9,2.2-3,5.1-3.3,8.2c-0.9-0.1-1.6,0-2,0.5c-1.6,1.9-0.4,8.2,1.4,9.8c2.2,1.9,11.3-1.7,11.9-1.8c0.6,0.1,9.7,3.7,11.9,1.8
			C37.8,20.9,39,14.6,37.4,12.7z M24,17.3c-0.5-0.1-6.2-3.8-10.1-4.8c0.5-5.5,3.9-10.1,8.3-11c-0.8,0.7-1.7,1.8-2.1,3.8
			C20,5.6,20.2,5.9,20.6,6c0,0,0.1,0,0.1,0c0.3,0,0.6-0.2,0.6-0.5C21.8,3,23.2,2.2,24,1.9c1.1,0.4,2.4,1.3,3.4,3.3
			c0.1,0.2,0.3,0.3,0.6,0.3c0.1,0,0.2,0,0.3-0.1c0.3-0.2,0.4-0.5,0.3-0.8c-0.8-1.4-1.7-2.4-2.5-3c4.3,1.1,7.6,5.5,8.1,11
			C30.2,13.5,24.5,17.2,24,17.3z"/>
	</g>
</g>
</svg>
