<?xml version="1.0" encoding="utf-8"?>
<!-- Generator: Adobe Illustrator 18.0.0, SVG Export Plug-In . SVG Version: 6.00 Build 0)  -->
<!DOCTYPE svg PUBLIC "-//W3C//DTD SVG 1.1//EN" "http://www.w3.org/Graphics/SVG/1.1/DTD/svg11.dtd">
<svg version="1.1" id="Layer_1" xmlns="http://www.w3.org/2000/svg" xmlns:xlink="http://www.w3.org/1999/xlink" x="0px" y="0px"
	 viewBox="0 0 48 48" enable-background="new 0 0 48 48" xml:space="preserve">
<g>
	<g>
		<g>
			<path fill="#415A6B" d="M48,27.1v-6.3l-5.9-1c-0.5-2.1-1.3-4.1-2.4-5.8l3.5-4.8l-4.4-4.4l-4.8,3.5c-1.8-1.1-3.7-1.9-5.8-2.4
				l-1-5.9h-6.3l-1,5.9c-2.1,0.5-4.1,1.3-5.8,2.4L9.2,4.8L4.8,9.2l3.5,4.8c-1.1,1.8-2,3.7-2.4,5.9l-5.8,1v6.3l5.8,1
				c0.5,2.1,1.3,4.1,2.4,5.9l-3.5,4.8l4.4,4.4l4.8-3.5c1.8,1.1,3.7,2,5.8,2.4l1,5.9h6.3l1-5.9c2.1-0.5,4.1-1.3,5.8-2.4l4.8,3.5
				l4.4-4.4l-3.5-4.8c1.1-1.8,1.9-3.7,2.4-5.8L48,27.1z M24,36.4c-6.9,0-12.4-5.6-12.4-12.4S17.1,11.6,24,11.6S36.4,17.1,36.4,24
				S30.9,36.4,24,36.4z"/>
		</g>
		<g>
			<g>
				<path fill="#FFD15C" d="M24,36.4c-6.9,0-12.5-5.6-12.5-12.4S17.1,11.5,24,11.5S36.4,17.1,36.4,24S30.9,36.4,24,36.4z"/>
			</g>
			<g>
				<path fill="#FFFFFF" d="M36.4,24c-6.9,9.6-18,9.6-24.9,0C18.4,14.4,29.6,14.4,36.4,24z"/>
			</g>
			<g>
				<circle fill="#8AD7F8" cx="24" cy="24" r="4.9"/>
			</g>
			<g>
				<circle fill="#415A6B" cx="24" cy="24" r="1.8"/>
			</g>
			<g>
				<circle fill="#FFFFFF" cx="25.1" cy="22.8" r="0.8"/>
			</g>
			<g>
				<circle fill="#FFFFFF" cx="26.5" cy="21.4" r="0.5"/>
			</g>
		</g>
	</g>
</g>
</svg>
