<?xml version="1.0" encoding="utf-8"?>
<!-- Generator: Adobe Illustrator 18.0.0, SVG Export Plug-In . SVG Version: 6.00 Build 0)  -->
<!DOCTYPE svg PUBLIC "-//W3C//DTD SVG 1.1//EN" "http://www.w3.org/Graphics/SVG/1.1/DTD/svg11.dtd">
<svg version="1.1" id="Layer_1" xmlns="http://www.w3.org/2000/svg" xmlns:xlink="http://www.w3.org/1999/xlink" x="0px" y="0px"
	 viewBox="0 0 48 48" enable-background="new 0 0 48 48" xml:space="preserve">
<g>
	<g>
		<g>
			<g>
				<path fill="#425A6B" d="M23.2,45.1c0,0,0.2,0.1,0.7,0.1c0.4,0,0.7,0.1,0.7,0.3c0.1,0.1,0.4,0.9,1.7,0.9c1.3,0,1.8-0.1,1.9-0.4
					c0-0.3-1.6-0.8-2.2-1.3c-0.6-0.6-1.9-0.6-1.9-0.6S23,43.6,23.2,45.1z"/>
			</g>
		</g>
	</g>
	<g>
		<g>
			<g>
				<path fill="#344A5E" d="M19.8,45.5c0,0,0.2,0.8,1.1,1.2c0.9,0.4,0.6,0.7,1.1,0.9c0.6,0.2,2.2,0.5,2.5,0.4c0.2-0.1-0.3-1.3-0.9-2
					s-0.7-0.7-0.7-0.7L19.8,45.5z"/>
			</g>
		</g>
	</g>
	<g>
		<g>
			<g>
				<path fill="#344A5E" d="M24.5,48c-0.2,0.1-1.9-0.1-2.5-0.4c-0.6-0.2-0.3-0.5-1.1-0.9c-0.5-0.2-0.8-0.6-0.9-0.8
					c-0.1-0.2-0.1-0.3-0.1-0.3l3.1-0.2c0,0,0.1,0,0.7,0.7c0.3,0.3,0.5,0.7,0.7,1c0,0,0,0,0,0C24.5,47.5,24.6,47.9,24.5,48z"/>
			</g>
		</g>
	</g>
	<g>
		<g>
			<g>
				<path fill="#344A5E" d="M22.6,44.7c0,0,1,0,1.9,0.4c0.9,0.4,1.8,0,1.8,0s-0.8-3.9-0.6-5.9c0.2-2,0.8-11,1-12.9
					c0.2-1.9,0.5-3.5,0-7.1L24.1,20C23,27.8,22.5,36.1,22.6,44.7z"/>
			</g>
		</g>
	</g>
	<g>
		<g>
			<g>
				<path fill="#425A6B" d="M19.4,21.3c0,0-0.3,3.6,0.3,5.8c0.6,2.2,0.5,5.5,0,6.7c-0.5,1.2-0.2,11.9-0.2,11.9s1.8,1.8,4.1,0.8
					c0,0,0.2-4.7,0.2-5.5s-0.2-6.2,0-7.4c0.2-1.3,0.9-10.6,0.9-10.6l0.6-4.4L19.4,21.3z"/>
			</g>
		</g>
	</g>
	<g>
		<g>
			<g>
				<path fill="#344A5E" d="M28.2,15.1c0,0,2.3,0,1.6,1.2c-0.7,1.2-0.7,1.2-0.7,1.2S26.9,16.3,28.2,15.1z"/>
			</g>
		</g>
	</g>
	<g>
		<g>
			<g>
				<path fill="#FFD15C" d="M28.1,16.4c0,0,1.3,0.1,1.7-0.3c0.4-0.3,0.4-0.6,0.8-0.8c0.4-0.1,1.2-0.9,1.2-0.9s-0.1-0.3-0.3-0.1
					c0,0-0.2-0.2-0.4,0.1c0,0-0.3-0.1-0.4,0.1c-0.7,0.4-1.5,0.7-2.4,1C28.2,15.5,27.8,15.3,28.1,16.4z"/>
			</g>
		</g>
	</g>
	<g>
		<g>
			<g>
				<path fill="#425A6B" d="M24.3,15.2l4.1-0.2c0,0-0.5,1.3,0.2,2c0.6,0.7,1.3-0.7,1.3-0.7s-0.4,1.3-0.9,1.3c-0.5,0-3.3-0.1-3.3-0.1
					L24.3,15.2z"/>
			</g>
		</g>
	</g>
	<g>
		<g>
			<g>
				<path fill="#E8EAE8" d="M31.1,14.7L26,16.1c-0.4,0.1-0.9-0.1-1-0.6l0,0l5.9-1.7c0.2-0.1,0.5,0.1,0.5,0.3l0,0
					C31.4,14.4,31.3,14.6,31.1,14.7z"/>
			</g>
		</g>
		<g>
			<g>
				<g>
					<path fill="#E8EAE8" d="M30.7,9.4L30.7,9.4c-0.1,0-0.2,0.1-0.2,0.2l0.3,4.7l0.4,0l-0.3-4.7C30.9,9.4,30.8,9.4,30.7,9.4z"/>
				</g>
			</g>
		</g>
	</g>
	<g>
		<g>
			<g>
				<g>
					<ellipse fill="#F26F5A" cx="19.5" cy="4.2" rx="0.9" ry="1.9"/>
				</g>
			</g>
		</g>
		<g>
			<g>
				<g>
					<ellipse fill="#FFD15C" cx="19.2" cy="3.8" rx="0.5" ry="1.1"/>
				</g>
			</g>
		</g>
		<g>
			<g>
				<g>
					<path fill="#FFD15C" d="M23.1,1.8c0,0,0.3,1.5,0.2,2.4c-0.1,0.9-1.4,2.5-1.4,2.5l0.9,2.2l-3.4-1.6l-0.1-2.1
						c0,0-0.3-1.8,0.1-2.9C19.9,1.1,21.5-0.3,23.1,1.8z"/>
				</g>
			</g>
		</g>
		<g>
			<g>
				<g>
					<path fill="#F5B54C" d="M22.5,8.4c-0.3-0.1-2.4-1-3.2-2l-0.1-1.2l0,0c0,0,0.9,1.5,2.6,1.5C22.3,7.1,22.5,7.7,22.5,8.4z"/>
				</g>
			</g>
		</g>
		<g>
			<g>
				<g>
					<path fill="#F3F3F3" d="M21.4,7.6l1.1,0.7l0.7-0.2l1.2,1.6c0,0,1.1,2.9,1,4.2c-0.1,1.3-0.7,2.3-0.7,2.3l-4.6-8.3L21.4,7.6z"/>
				</g>
			</g>
		</g>
		<g>
			<g>
				<g>
					<path fill="#344A5E" d="M19.2,6.4c0,0-1.9,1.2-2.3,2c-0.4,0.7,1.3,4.8,2,5.7c0.7,1,0.4,6.6,0,7.5c0,0,2.6,0,3.7-0.3
						c1.1-0.3,3.4-0.8,3.8-1.7l-1.2-4.8c0,0-1.4-4-2.6-4.8C21.4,9.1,19.2,6.4,19.2,6.4z"/>
				</g>
			</g>
		</g>
		<g>
			<g>
				<g>
					<path fill="#425A6B" d="M19.2,6.2c0,0,3.1,2.9,3.7,3.5c0.6,0.6,1.4,2.2,1.8,3.3c0.4,1.1,0.8,2.7,0.8,2.7s-1-2.2-1.3-3
						c-0.8-1.7-4.4-4.7-4.4-4.7l-0.8,0L19.2,6.2z"/>
				</g>
			</g>
		</g>
		<g>
			<g>
				<g>
					<path fill="#344A5E" d="M27.4,20c0,0-0.7,0.8-1.1,0c-0.3-0.8-1.2-3.4-1.2-3.4l-0.4-1.6l0-1.9c0,0,0,0,0.1-0.8
						c0.1-0.8-0.5-2.2-1.2-2.8c-0.8-0.6-0.8-1.5-0.8-1.5s0,0,0,0c0,0,0,0,0,0l0,0c0,0,1.2,0.5,1.8,1.9c0.4,0.5,0.8,1.1,0.9,1.7
						c0.1,0.6,0.1,1.1,0,1.6c0.2,1.6,0.6,4.5,1.2,5.5C27.6,20.1,27.4,20,27.4,20z"/>
				</g>
			</g>
		</g>
		<g>
			<g>
				<g>
					<path fill="#FFD15C" d="M24.3,15.9l1.6-0.4c0,0,1-0.3,1.4-0.7c0.4-0.4,1-0.3,1-0.3s0.3,0,0.3-0.2c0,0,0.3,0.1,0.4-0.2L28.7,14
						c0,0-0.6-0.5-0.8-0.5c-0.2,0-1.3,0.1-1.6,0.2c-0.3,0.1-0.6,0.6-1.1,0.7c-0.5,0.1-1.1,0.2-1.1,0.2L24.3,15.9z"/>
				</g>
			</g>
		</g>
		<g>
			<g>
				<g>
					<path fill="#425A6B" d="M17.4,7.7c0,0,2-0.4,2.5,2.1s-0.3,4.9-0.4,5.3c0,0,0.8,0.2,1.3,0c0.5-0.2,3.5-0.7,3.5-0.7
						s0.6,2.2,0.2,3.3c0,0-2.4,0.3-3.3,0.5c-0.9,0.2-2.4,0.2-3.3-0.3c-0.9-0.5-1-1.6-1.1-2.2c-0.1-0.5-0.5-3.8-0.5-3.8
						S15.5,8.5,17.4,7.7z"/>
				</g>
			</g>
		</g>
		<g>
			<g>
				<g>
					<path fill="#F26F5A" d="M23.2,5.1C23.4,4,23.4,2.5,23,1.9c-0.2-0.3-0.6-0.6-1-0.7C21.6,1,21,1,20.6,1.3c-1,0.7-1.2,2-1.2,2
						c-0.2,0.2-0.3,0.5-0.5,0.9v0c0,0.2,0,0.4,0.1,0.6c0.2,0.7,0.6,1.3,0.2,1.8c-0.3,0.4-1,1-1.5,1.4c0,0,0,0,0,0
						c-0.3,0.6-0.6,1.1-0.6,1.1c0,0,0,0,0-0.1c0.3-1.4-0.2-2.9,0.1-3.3c0.3-0.4,0.9-2.1,1.1-3.5C18.5,0.8,19.7,0,20.6,0
						c0.8,0,2.2,0.4,2.7,1.6C23.9,3.1,23.2,5,23.2,5.1z"/>
				</g>
			</g>
		</g>
		<g>
			<g>
				<g>
					<path fill="#F3F3F3" d="M21.9,6.7c0,0,1.4,1.1,1.7,1.7C23.9,9,23.9,9,23.9,9s-0.4-0.7-0.9-0.7c-0.5,0-0.6-0.1-0.6-0.1
						C22.4,7.7,22.2,7.1,21.9,6.7z"/>
				</g>
			</g>
		</g>
		<g>
			<g>
				<g>
					<path fill="#F3F3F3" d="M22.4,8.3c0,0-1.5-1.2-2-1.6c-0.5-0.5-1.2-1.1-1.2-1.1s-0.4,1-0.2,1.5c0.3,0.5,1.7,1.4,2,1.4
						c0.2,0.1,0.5-0.6,0.5-0.6S22.2,8.3,22.4,8.3z"/>
				</g>
			</g>
		</g>
		<g>
			<g>
				<path fill="#F26F5A" d="M19.3,5.4c0.1,0.4,0.4,0.8,0.6,1.2C20,7,20.2,7.5,20.1,7.9c0,0.2-0.1,0.4-0.2,0.5
					c-0.3,0.6-0.4,1.4-0.1,2c-0.2-0.2-0.4-0.4-0.5-0.7c-0.1-0.3-0.1-0.6-0.1-0.9c0,0.3-0.1,0.6-0.2,0.9c-0.1,0.4,0,0.9,0,1.4
					c0,0.5,0,1-0.3,1.3c0-0.3,0-0.6,0-0.9c-0.1-0.6-0.4-1-0.6-1.6c-0.3-0.8-0.2-1.7,0.1-2.5c0.1-0.2,0.2-0.3,0.2-0.5
					c0.2-0.4,0.3-0.9,0.4-1.3"/>
			</g>
		</g>
	</g>
	<g>
		<g>
			<g>
				<path fill="#425A6B" d="M24.5,48c-0.2,0.1-1.9-0.1-2.5-0.4c-0.6-0.2-0.3-0.5-1.1-0.9c-0.5-0.2-0.8-0.6-0.9-0.8
					c0.1,0.1,0.3,0.2,0.5,0.3c0,0,0.7,0.4,1.1,0.6c0.4,0.2,0.4,0.4,0.6,0.5c0.2,0.2,2.6,0.8,2.2-0.2C24.5,47.5,24.6,47.9,24.5,48z"
					/>
			</g>
		</g>
	</g>
</g>
</svg>
