<?xml version="1.0" encoding="utf-8"?>
<!-- Generator: Adobe Illustrator 18.0.0, SVG Export Plug-In . SVG Version: 6.00 Build 0)  -->
<!DOCTYPE svg PUBLIC "-//W3C//DTD SVG 1.1//EN" "http://www.w3.org/Graphics/SVG/1.1/DTD/svg11.dtd">
<svg version="1.1" id="Layer_1" xmlns="http://www.w3.org/2000/svg" xmlns:xlink="http://www.w3.org/1999/xlink" x="0px" y="0px"
	 viewBox="0 0 48 48" enable-background="new 0 0 48 48" xml:space="preserve">
<g>
	<g>
		<g>
			<g>
				<g>
					<g>
						<g>
							<path fill="#344A5E" d="M24,41.2c0,0-22.3-11.3-22.3-25.1c0-6.9,5.6-12.5,12.5-12.5c4,0,7.6,1.9,9.8,4.8
								c2.3-2.9,5.8-4.8,9.8-4.8c6.9,0,12.5,5.6,12.5,12.5C46.3,29.9,24,41.2,24,41.2z"/>
						</g>
						<g>
							<path fill="#415A6B" d="M24,39.5c0,0-17.4-8.8-17.4-19.5c0-5.4,4.3-9.7,9.7-9.7c3.1,0,5.9,1.5,7.7,3.7
								c1.8-2.3,4.5-3.7,7.6-3.7c5.4,0,9.7,4.3,9.7,9.7C41.4,30.7,24,39.5,24,39.5z"/>
						</g>
					</g>
					<g>
						<g>
							<g>
								<path fill="#8AD7F8" d="M21.6,22.8c0.9,0.9-1.4,0.2-2.3,0.1c-0.9-0.1-1.4,0.5-2.1,0.6c-0.7,0.1-1.3-0.6-1.3-0.6l-4.7,0.2
									c0,0-3.5,0.9-3.4,0.5c0.1-0.4,1.8-1.8,1.9-2.1c0.1-0.3-0.4-1.6-0.4-2.2c0-0.5,0.4-1.4,0.4-1.8c0-0.5-0.8-1.8-0.8-1.8
									c-0.9-0.9,1.4-0.2,2.3-0.1c0.9,0.1,1.4-0.5,2.1-0.6c0.7-0.1,2.5,0.6,2.5,0.6l3.5-0.2c0,0,3.5-0.9,3.4-0.5
									c-0.1,0.4-1.8,1.8-1.9,2.1c-0.1,0.3,0.4,1.6,0.4,2.2c0,0.5-0.4,1.4-0.4,1.8C20.9,21.5,21.6,22.8,21.6,22.8z"/>
							</g>
						</g>
						<g>
							<g>
								<path fill="#8AD7F8" d="M39,22.8c0.9,0.9-1.4,0.2-2.3,0.1c-0.9-0.1-1.4,0.5-2.1,0.6c-0.7,0.1-1.3-0.6-1.3-0.6l-4.7,0.2
									c0,0-3.5,0.9-3.4,0.5c0.1-0.4,1.8-1.8,1.9-2.1c0.1-0.3-0.4-1.6-0.4-2.2c0-0.5,0.4-1.4,0.4-1.8c0-0.5-0.8-1.8-0.8-1.8
									c-0.9-0.9,1.4-0.2,2.3-0.1c0.9,0.1,1.4-0.5,2.1-0.6c0.7-0.1,2.5,0.6,2.5,0.6l3.5-0.2c0,0,3.5-0.9,3.4-0.5
									c-0.1,0.4-1.8,1.8-1.9,2.1c-0.1,0.3,0.4,1.6,0.4,2.2c0,0.5-0.4,1.4-0.4,1.8C38.3,21.5,39,22.8,39,22.8z"/>
							</g>
						</g>
					</g>
					<g>
						<path fill="#E8EAE9" d="M47.2,32.2H0.8c0,0-1.4-4.3,0-5.7c8.2-8.2,38.2-8.2,46.4,0C48.6,27.8,47.2,32.2,47.2,32.2z"/>
					</g>
				</g>
			</g>
			<g>
				<g>
					<rect y="31.4" fill="#415A6B" width="48" height="10.5"/>
				</g>
				<g>
					<rect x="0" y="41.9" fill="#344A5E" width="4.6" height="2.4"/>
				</g>
				<g>
					<rect x="43.4" y="41.9" fill="#344A5E" width="4.6" height="2.4"/>
				</g>
			</g>
		</g>
	</g>
</g>
</svg>
