<?xml version="1.0" encoding="utf-8"?>
<!-- Generator: Adobe Illustrator 18.0.0, SVG Export Plug-In . SVG Version: 6.00 Build 0)  -->
<!DOCTYPE svg PUBLIC "-//W3C//DTD SVG 1.1//EN" "http://www.w3.org/Graphics/SVG/1.1/DTD/svg11.dtd">
<svg version="1.1" id="Layer_1" xmlns="http://www.w3.org/2000/svg" xmlns:xlink="http://www.w3.org/1999/xlink" x="0px" y="0px"
	 viewBox="0 0 512 512" enable-background="new 0 0 512 512" xml:space="preserve">
<g>
	<path fill="#F2705B" d="M256,2C115.7,2,2,115.7,2,256c0,140.3,113.7,254,254,254c95.7,0,179-52.9,222.3-131.1
		c16.2-29.2,26.8-62,30.4-96.9c0.8-8.5,1.3-17.2,1.3-26C510,115.7,396.3,2,256,2z"/>
	<circle fill="#FFFFFF" cx="256" cy="256" r="187"/>
	<circle fill="#F2705B" cx="256" cy="256" r="119.9"/>
	<circle fill="#FFFFFF" cx="256" cy="256" r="52.9"/>
	<path opacity="0.2" fill="#334A5E" d="M508.7,282c-3.6,34.9-14.2,67.7-30.4,96.9l-67.1-20.8l-7.2-43.3l-149.7-46.5
		c-6.1-1.9-9.5-8.4-7.6-14.4c1.9-6.1,8.4-9.5,14.4-7.6l149.7,46.6l30.5-31.7L508.7,282z"/>
	<g>
		<polygon fill="#55BFE9" points="450.1,60.9 374.6,138.3 354.3,79.5 429.8,2 		"/>
		<polygon fill="#55BFE9" points="434,157.1 509.5,79.6 450.1,60.9 374.6,138.3 		"/>
	</g>
	<path fill="#41596B" d="M485.2,43L268.4,265.5c-4.9,5-12.9,5.1-17.9,0.2l0,0c-5-4.9-5.1-12.9-0.2-17.9L467.1,25.3
		c4.9-5,12.9-5.1,17.9-0.2l0,0C489.9,30,490,38,485.2,43z"/>
</g>
</svg>
