<?xml version="1.0" encoding="utf-8"?>
<!-- Generator: Adobe Illustrator 18.0.0, SVG Export Plug-In . SVG Version: 6.00 Build 0)  -->
<!DOCTYPE svg PUBLIC "-//W3C//DTD SVG 1.1//EN" "http://www.w3.org/Graphics/SVG/1.1/DTD/svg11.dtd">
<svg version="1.1" id="Layer_1" xmlns="http://www.w3.org/2000/svg" xmlns:xlink="http://www.w3.org/1999/xlink" x="0px" y="0px"
	 viewBox="0 0 48 48" enable-background="new 0 0 48 48" xml:space="preserve">
<g>
	<g>
		<g>
			<g>
				<g>
					<g>
						<path fill="#F7B64C" d="M38.7,47.9c1.4,0.4,3.1-1.3,3.9-3.9s0.3-5-1.1-5.4L9.3,28.8c-1.4-0.4-3.1,1.3-3.9,3.9s-0.3,5,1.1,5.4
							L38.7,47.9z"/>
					</g>
					<g>
						
							<ellipse transform="matrix(0.9568 0.2909 -0.2909 0.9568 14.3182 -9.8042)" fill="#FFD15C" cx="40.1" cy="43.3" rx="2.6" ry="4.9"/>
					</g>
					<g>
						<g>
							<g>
								
									<ellipse transform="matrix(0.9568 0.2909 -0.2909 0.9568 14.3334 -9.8363)" fill="#FFD15C" cx="40.3" cy="43.3" rx="2.1" ry="3.9"/>
								<path fill="#F7B64C" d="M42.2,43.9c0,0,0,0.1-0.1,0.2c0,0.1-0.1,0.3-0.2,0.6c-0.2,0.5-0.5,1.2-1.2,1.8
									c-0.3,0.3-0.8,0.6-1.3,0.6c-0.3,0-0.5-0.1-0.7-0.3c-0.2-0.2-0.4-0.4-0.5-0.7c-0.2-0.5-0.3-1.1-0.3-1.7
									c0-0.6,0.1-1.2,0.3-1.8c0.2-0.6,0.4-1.1,0.7-1.6c0.3-0.5,0.7-0.9,1.2-1.2c0.2-0.1,0.5-0.3,0.8-0.3c0.3,0,0.5,0.1,0.8,0.2
									c0.4,0.3,0.6,0.8,0.7,1.2c0.2,0.9,0.1,1.6,0,2.1c-0.1,0.3-0.1,0.5-0.1,0.6C42.2,43.8,42.2,43.9,42.2,43.9z M42.2,43.9
									c0,0,0-0.1,0.1-0.2c0-0.1,0.1-0.3,0.1-0.6c0.1-0.5,0.2-1.3,0-2.1c-0.1-0.4-0.3-0.9-0.7-1.2c-0.2-0.1-0.5-0.2-0.7-0.2
									c-0.3,0-0.5,0.1-0.7,0.3c-0.5,0.3-0.8,0.7-1.1,1.2c-0.3,0.5-0.5,1-0.7,1.6c-0.2,0.6-0.3,1.1-0.3,1.7c0,0.6,0,1.2,0.3,1.7
									c0.1,0.2,0.3,0.5,0.5,0.6c0.2,0.2,0.5,0.3,0.7,0.3c0.5,0,0.9-0.3,1.3-0.6c0.7-0.6,1-1.3,1.2-1.8c0.1-0.2,0.2-0.4,0.2-0.6
									C42.2,44,42.2,43.9,42.2,43.9z"/>
							</g>
						</g>
						<g>
							<g>
								
									<ellipse transform="matrix(-0.9568 -0.2909 0.2909 -0.9568 66.1703 96.4233)" fill="#FFD15C" cx="40.3" cy="43.3" rx="0.9" ry="1.7"/>
								<path fill="#F7B64C" d="M39.4,43c0,0,0-0.1,0.1-0.3c0.1-0.2,0.2-0.5,0.5-0.8c0.1-0.1,0.3-0.3,0.6-0.3c0.3,0,0.5,0.2,0.6,0.4
									c0.2,0.5,0.2,1.1,0,1.6c-0.2,0.5-0.4,1-0.9,1.3c-0.2,0.1-0.5,0.2-0.7,0c-0.2-0.1-0.3-0.4-0.3-0.6c-0.1-0.4,0-0.7,0-1
									C39.3,43.2,39.4,43,39.4,43z M39.4,43c0,0,0,0.1-0.1,0.4c0,0.2-0.1,0.6,0,1c0,0.2,0.1,0.4,0.3,0.5c0.2,0.1,0.4,0.1,0.6-0.1
									c0.2-0.1,0.4-0.3,0.5-0.6c0.1-0.2,0.2-0.5,0.3-0.7c0.1-0.3,0.1-0.5,0.1-0.8c0-0.3,0-0.5-0.1-0.7c-0.1-0.2-0.3-0.4-0.5-0.4
									c-0.2,0-0.4,0.1-0.6,0.3c-0.3,0.3-0.5,0.6-0.5,0.8C39.4,42.9,39.4,43,39.4,43z"/>
							</g>
						</g>
						<g>
							<g>
								
									<ellipse transform="matrix(-0.9568 -0.2909 0.2909 -0.9568 66.1703 96.4233)" fill="#FFD15C" cx="40.3" cy="43.3" rx="1.5" ry="2.8"/>
								<path fill="#F7B64C" d="M38.8,42.9c0,0,0.1-0.2,0.2-0.5c0.1-0.3,0.4-0.8,0.8-1.3c0.2-0.2,0.5-0.4,0.9-0.4
									c0.4,0,0.7,0.3,0.9,0.7c0.2,0.4,0.2,0.8,0.2,1.2c0,0.4-0.1,0.8-0.2,1.3c-0.1,0.4-0.3,0.8-0.5,1.2c-0.2,0.4-0.5,0.7-0.9,0.9
									c-0.3,0.2-0.8,0.3-1.1,0.1c-0.3-0.2-0.4-0.6-0.5-0.9c-0.1-0.6-0.1-1.2,0-1.5C38.8,43.1,38.8,42.9,38.8,42.9z M38.8,42.9
									c0,0-0.1,0.2-0.1,0.6c-0.1,0.4-0.1,0.9,0,1.5c0.1,0.3,0.2,0.6,0.5,0.8c0.3,0.2,0.7,0.2,1-0.1c0.3-0.2,0.6-0.5,0.8-0.9
									c0.2-0.4,0.4-0.7,0.5-1.1c0.1-0.4,0.2-0.8,0.2-1.2c0-0.4,0-0.8-0.2-1.2c-0.1-0.4-0.5-0.7-0.8-0.6c-0.4,0-0.7,0.2-0.9,0.4
									c-0.5,0.4-0.7,0.9-0.9,1.3C38.9,42.7,38.8,42.9,38.8,42.9z"/>
							</g>
						</g>
						<g>
							<g>
								
									<ellipse transform="matrix(0.9568 0.2909 -0.2909 0.9568 14.3333 -9.8362)" fill="#FFD15C" cx="40.3" cy="43.3" rx="0.9" ry="1.7"/>
								<path fill="#F7B64C" d="M41.1,43.6c0,0,0,0.1-0.1,0.3c-0.1,0.2-0.2,0.5-0.5,0.8c-0.1,0.1-0.3,0.3-0.6,0.3
									c-0.3,0-0.5-0.2-0.6-0.4c-0.2-0.5-0.2-1.1,0-1.6c0.2-0.5,0.4-1,0.9-1.3c0.2-0.1,0.5-0.2,0.7,0c0.2,0.1,0.3,0.4,0.3,0.6
									c0.1,0.4,0,0.7,0,1C41.2,43.4,41.1,43.6,41.1,43.6z M41.1,43.6c0,0,0-0.1,0.1-0.4c0-0.2,0.1-0.6,0-1c0-0.2-0.1-0.4-0.3-0.5
									c-0.2-0.1-0.4-0.1-0.6,0.1c-0.2,0.1-0.4,0.3-0.5,0.6c-0.1,0.2-0.2,0.5-0.3,0.7c-0.1,0.3-0.1,0.5-0.1,0.8
									c0,0.3,0,0.5,0.1,0.7c0.1,0.2,0.3,0.4,0.5,0.4c0.2,0,0.4-0.1,0.6-0.3c0.3-0.3,0.5-0.6,0.5-0.8
									C41.1,43.7,41.1,43.6,41.1,43.6z"/>
							</g>
						</g>
						<g>
							<g>
								
									<ellipse transform="matrix(-0.9568 -0.2909 0.2909 -0.9568 66.1703 96.4233)" fill="#FFD15C" cx="40.3" cy="43.3" rx="0.4" ry="0.8"/>
								<path fill="#F7B64C" d="M39.8,43.2c0,0,0-0.1,0.1-0.2c0-0.1,0.1-0.2,0.2-0.4c0.1-0.1,0.2-0.1,0.3-0.1c0.1,0,0.2,0.1,0.3,0.2
									c0.1,0.2,0.1,0.5,0,0.8c-0.1,0.2-0.2,0.5-0.4,0.6c-0.1,0.1-0.3,0.1-0.4,0c-0.1-0.1-0.1-0.2-0.2-0.3c0-0.2,0-0.3,0-0.5
									C39.8,43.2,39.8,43.2,39.8,43.2z M39.8,43.2c0,0,0,0.1,0,0.2c0,0.1,0,0.3,0,0.4c0,0.1,0.1,0.2,0.2,0.2c0.1,0.1,0.2,0,0.3,0
									c0.2-0.1,0.3-0.4,0.4-0.6c0.1-0.2,0.1-0.5,0-0.7c0-0.1-0.1-0.2-0.2-0.2c-0.1,0-0.2,0.1-0.3,0.1c-0.1,0.1-0.2,0.3-0.3,0.4
									C39.9,43.1,39.8,43.2,39.8,43.2z"/>
							</g>
						</g>
					</g>
				</g>
				<g>
					<g>
						<g>
							<path fill="#FFD15C" d="M9.3,47.9c-1.4,0.4-3.1-1.3-3.9-3.9s-0.3-5,1.1-5.4l32.3-9.8c1.4-0.4,3.1,1.3,3.9,3.9s0.3,5-1.1,5.4
								L9.3,47.9z"/>
						</g>
						<g>
							
								<ellipse transform="matrix(-0.9568 0.2909 -0.2909 -0.9568 27.9702 82.3589)" fill="#F7B64C" cx="7.9" cy="43.3" rx="2.6" ry="4.9"/>
						</g>
					</g>
					<g>
						<path fill="#FFD15C" d="M5.7,43.7c0-0.1-0.1-0.3-0.1-0.6c-0.1-0.5-0.2-1.3,0-2.1c0.1-0.4,0.3-0.9,0.7-1.2
							c0.2-0.1,0.5-0.2,0.8-0.2c0.3,0,0.5,0.1,0.8,0.3c0.5,0.3,0.9,0.8,1.2,1.2c0.3,0.5,0.6,1.1,0.7,1.6c0.2,0.6,0.3,1.2,0.3,1.8
							c0,0.6-0.1,1.2-0.3,1.7c-0.1,0.3-0.3,0.5-0.5,0.7c-0.2,0.2-0.5,0.3-0.7,0.3c-0.5,0-1-0.3-1.3-0.6c-0.7-0.6-1-1.3-1.2-1.8
							c-0.1-0.2-0.2-0.4-0.2-0.6c0-0.1-0.1-0.2-0.1-0.2S5.8,43.8,5.7,43.7z M5.8,44.1c0,0.1,0.1,0.3,0.2,0.6
							c0.2,0.5,0.6,1.2,1.2,1.8C7.6,46.7,8,47,8.5,47c0.2,0,0.5-0.1,0.7-0.3c0.2-0.2,0.4-0.4,0.5-0.6C9.9,45.6,10,45,10,44.4
							c0-0.6-0.1-1.2-0.3-1.7c-0.2-0.6-0.4-1.1-0.7-1.6c-0.3-0.5-0.7-0.9-1.1-1.2c-0.2-0.1-0.5-0.3-0.7-0.3c-0.3,0-0.5,0-0.7,0.2
							c-0.4,0.3-0.6,0.8-0.7,1.2c-0.2,0.9-0.1,1.6,0,2.1c0,0.3,0.1,0.5,0.1,0.6c0,0.1,0.1,0.2,0.1,0.2S5.8,44,5.8,44.1z"/>
						<path fill="#FFD15C" d="M8.7,43.4c0,0.2,0.1,0.6,0,1c0,0.2-0.1,0.4-0.3,0.6c-0.2,0.2-0.5,0.1-0.7,0c-0.4-0.3-0.7-0.8-0.9-1.3
							c-0.1-0.5-0.2-1.1,0-1.6c0.1-0.2,0.3-0.4,0.6-0.4c0.2,0,0.4,0.2,0.6,0.3c0.3,0.3,0.4,0.6,0.5,0.8C8.6,42.9,8.6,43,8.6,43
							S8.7,43.2,8.7,43.4z M8.5,42.7c-0.1-0.2-0.3-0.5-0.5-0.8c-0.1-0.1-0.3-0.3-0.6-0.3c-0.2,0-0.4,0.2-0.5,0.4
							c-0.1,0.2-0.1,0.5-0.1,0.7c0,0.3,0.1,0.5,0.1,0.8C7,43.8,7.1,44,7.2,44.3c0.1,0.2,0.3,0.4,0.5,0.6C7.9,45,8.2,45,8.4,44.9
							c0.2-0.1,0.3-0.3,0.3-0.5c0.1-0.4,0.1-0.7,0-1c0-0.2-0.1-0.4-0.1-0.4S8.6,42.9,8.5,42.7z"/>
						<path fill="#FFD15C" d="M9.3,43.4c0.1,0.4,0.1,0.9,0,1.5c-0.1,0.3-0.2,0.7-0.5,0.9C8.5,46.1,8,46,7.7,45.8
							c-0.3-0.2-0.6-0.5-0.9-0.9c-0.2-0.4-0.4-0.8-0.5-1.2c-0.1-0.4-0.2-0.8-0.2-1.3c0-0.4,0-0.8,0.2-1.2c0.2-0.4,0.5-0.7,0.9-0.7
							c0.4,0,0.7,0.2,0.9,0.4C8.6,41.5,8.8,42,9,42.3c0.1,0.3,0.2,0.5,0.2,0.5S9.2,43.1,9.3,43.4z M8.9,42.3
							c-0.2-0.3-0.4-0.8-0.9-1.3c-0.2-0.2-0.5-0.4-0.9-0.4c-0.4,0-0.7,0.3-0.8,0.6c-0.2,0.4-0.2,0.8-0.2,1.2c0,0.4,0.1,0.8,0.2,1.2
							c0.1,0.4,0.3,0.8,0.5,1.1c0.2,0.3,0.5,0.7,0.8,0.9c0.3,0.2,0.7,0.3,1,0.1C9,45.6,9.2,45.3,9.3,45c0.1-0.6,0.1-1.2,0-1.5
							c-0.1-0.4-0.1-0.6-0.1-0.6S9.1,42.7,8.9,42.3z"/>
						<path fill="#FFD15C" d="M6.8,43.2c0-0.2-0.1-0.6,0-1c0-0.2,0.1-0.4,0.3-0.6c0.2-0.2,0.5-0.1,0.7,0C8.3,42,8.5,42.5,8.7,43
							c0.1,0.5,0.2,1.1,0,1.6C8.6,44.8,8.4,45,8.1,45c-0.2,0-0.4-0.2-0.6-0.3c-0.3-0.3-0.4-0.6-0.5-0.8c-0.1-0.2-0.1-0.3-0.1-0.3
							S6.8,43.4,6.8,43.2z M7,43.9c0.1,0.2,0.3,0.5,0.5,0.8C7.7,44.8,7.9,45,8.1,45c0.2,0,0.4-0.2,0.5-0.4c0.1-0.2,0.1-0.5,0.1-0.7
							c0-0.3-0.1-0.5-0.1-0.8c-0.1-0.3-0.2-0.5-0.3-0.7c-0.1-0.2-0.3-0.4-0.5-0.6c-0.2-0.1-0.5-0.2-0.6-0.1
							c-0.2,0.1-0.3,0.3-0.3,0.5c-0.1,0.4-0.1,0.7,0,1c0,0.2,0.1,0.4,0.1,0.4S6.9,43.7,7,43.9z"/>
						<path fill="#FFD15C" d="M8.2,43.3c0,0.1,0,0.3,0,0.5c0,0.1-0.1,0.2-0.2,0.3c-0.1,0.1-0.3,0.1-0.4,0c-0.2-0.1-0.4-0.4-0.4-0.6
							c-0.1-0.2-0.1-0.5,0-0.8c0.1-0.1,0.2-0.2,0.3-0.2c0.1,0,0.2,0.1,0.3,0.1C8,42.8,8.1,42.9,8.1,43c0,0.1,0.1,0.2,0.1,0.2
							S8.2,43.2,8.2,43.3z M8.1,43c0-0.1-0.1-0.2-0.3-0.4c-0.1-0.1-0.2-0.1-0.3-0.1c-0.1,0-0.2,0.1-0.2,0.2c-0.1,0.2-0.1,0.5,0,0.7
							c0.1,0.2,0.2,0.5,0.4,0.6C7.8,44.1,8,44.1,8,44c0.1-0.1,0.1-0.1,0.2-0.2c0-0.2,0-0.3,0-0.4c0-0.1,0-0.2,0-0.2S8.1,43.1,8.1,43
							z"/>
					</g>
				</g>
			</g>
			<g>
				<g>
					<path fill="#F3705A" d="M16.2,10.6c3.5,2.5,5.7,6.7,5.5,10.7c1.3-1.1,1.7-3.2,1.3-5s-1.2-3.6-2-5.4c-0.8-1.8-1.5-3.7-1.3-5.5
						c0.2-2.8,2.4-5.1,5.2-5.4c-0.8,0.7-0.6,2.1,0,3.1c0.6,1,1.6,1.8,2.4,2.7c2.4,2.4,4,5.5,4.6,8.7c0.6,3.2,0,6.4-1.5,9
						c2.6-1.2,4.1-4.2,3.6-7.2c2,3.6,2.7,7.8,1.9,11.5c-0.3,1.3-0.7,2.5-1.3,3.6c-1.8,3.3-5.4,5.3-9.2,5.3l-3.1,0
						c-4.6,0-8.8-2.9-10.1-7.3c-0.1-0.3-0.1-0.5-0.2-0.8c-0.5-2.7,0.4-5.2,2.2-7.1C16.7,19,17.7,15.4,16.2,10.6z"/>
				</g>
			</g>
			<g>
				<g>
					<path fill="#FFD15C" d="M28.3,25.3c-1.8,1-3.1,2.9-3.2,4.8c-0.6-0.6-0.6-1.6-0.3-2.4c0.3-0.9,0.8-1.7,1.3-2.5
						c0.5-0.8,0.9-1.7,0.9-2.5c0.1-1.3-0.8-2.5-2.1-2.7c0.3,0.4,0.2,1-0.2,1.5s-0.8,0.8-1.3,1.1c-1.3,1-2.2,2.4-2.7,3.9
						c-0.4,1.5-0.4,3,0.1,4.3c-1.1-0.7-1.6-2.2-1.2-3.5c-1.2,1.6-1.7,3.5-1.6,5.3c0.1,0.6,0.2,1.2,0.4,1.7c0.6,1.6,2.2,2.7,4,2.9
						l1.5,0.1c2.1,0.2,4.3-1,5.1-3c0.1-0.1,0.1-0.2,0.1-0.4c0.4-1.2,0.1-2.5-0.6-3.4C27.6,29.2,27.3,27.4,28.3,25.3z"/>
				</g>
			</g>
		</g>
	</g>
</g>
</svg>
