<?xml version="1.0" encoding="utf-8"?>
<!-- Generator: Adobe Illustrator 19.0.1, SVG Export Plug-In . SVG Version: 6.00 Build 0)  -->
<svg version="1.1" id="Layer_1" xmlns="http://www.w3.org/2000/svg" xmlns:xlink="http://www.w3.org/1999/xlink" x="0px" y="0px"
	 viewBox="0 0 48 48" style="enable-background:new 0 0 48 48;" xml:space="preserve">
<style type="text/css">
	.st0{fill:#66C6B9;}
	.st1{fill:#F3F3F3;}
	.st2{fill:#415A6B;}
	.st3{fill:#CED6E0;}
	.st4{fill:#F3705A;}
	.st5{fill:#E8EAE9;}
	.st6{fill:#4ABAA5;}
	.st7{fill:#F05540;}
	.st8{fill:#FFD15C;}
	.st9{fill:#55C0EB;}
	.st10{fill:#8AD7F8;}
	.st11{fill:#344A5E;}
	.st12{fill:#FFFFFF;}
	.st13{fill:#F7B64C;}
	.st14{fill:#ADB3BA;}
	.st15{fill:#38A892;}
	.st16{fill:#ED9845;}
	.st17{fill:#2D4251;}
	.st18{fill:#304556;}
	.st19{fill:#A5AAAD;}
	.st20{fill:#2D4456;}
	.st21{fill:#4FB0E0;}
	.st22{fill:#2D4354;}
	.st23{fill:#E54C38;}
	.st24{fill:#2B4456;}
	.st25{fill:#2B404F;}
</style>
<g>
	<g>
		<g>
			<path class="st4" d="M10.7,19.1c1,2,1.1,4.3,1.3,6.5c0.2,2.2,0.6,4.5,1.9,6.3c-1.8-1.1-3.5-2.4-5.1-3.8c-0.6-0.5-1.1-1.1-1.6-1.7
				c-0.4-0.6-0.8-1.3-0.8-2.1c-0.1-1.1,0.3-2.2,1-3.1s1.6-1.5,2.5-2.1"/>
		</g>
	</g>
	<g>
		<g>
			<g>
				<path class="st0" d="M19.4,29c-1.2,0.3-2.4,0.5-3.5,0.3c-1.3-0.2-2.3-0.9-2.9-2l0.4-0.2c0.5,1,1.4,1.6,2.6,1.8
					c2.8,0.5,6.6-1.4,8.8-3.3c3.1-2.8,5.4-6.7,5.4-6.8l0.4,0.2c0,0-2.3,4-5.5,6.9C23.6,27.2,21.5,28.4,19.4,29z"/>
			</g>
		</g>
		<g>
			<g>
				<path class="st2" d="M15.8,21.8l-0.3,4.8c0,0.5-0.4,0.9-0.9,0.8l-1.9-0.1c-0.5,0-0.9-0.5-0.8-0.9l0.3-4.8c0-0.5,0.4-0.9,0.9-0.8
					l1.9,0.1C15.4,20.9,15.8,21.4,15.8,21.8z"/>
			</g>
		</g>
		<g>
			<g>
				<path class="st8" d="M12.5,26.8c0,0-0.1,0.3-0.4,0.1s-0.7-0.5-0.5-1c0,0-0.3-0.7-0.1-1c0.3-0.3,0.6-0.5,0.9-0.6
					c0.4,0,1.8,0.6,1.8,0.6s0-0.3-0.3-0.5c-0.3-0.2-1.3-0.4-1.3-0.4s-0.4,0.3-0.7,0.3s-0.5-0.5-0.5-0.5l0.4-0.4c0,0,0.3-0.3,0.6-0.4
					c0.3,0,1.7,0.1,1.9,0.2c0.2,0.1,0.7,0.7,1,0.8c0,0-0.5-0.6-0.8-0.8c-0.3-0.2-0.7-0.3-1-0.4c-0.3-0.1-1.1-0.5-1.1-0.8
					c0.1-0.3,0.5-0.6,1-0.4c0.5,0.1,1.6,0.7,1.9,0.8c0.3,0.1,0.5,0.5,0.7,0.8c0.2,0.3,0.7,1,0.7,1.3s-0.1,0.4-0.1,0.7
					c-0.1,0.3,0,0.7-0.3,1c-0.3,0.3-0.4,0.5-0.5,1c-0.1,0.4-0.2,0.6,0,1c0.2,0.4,1.5,2.9,1.5,2.9L14,31.1c0,0-0.7-2-0.9-2.5
					c-0.3-0.5-0.3-0.7-0.3-0.7s0.3-0.6,0.3-0.9C13,27.1,12.8,26.8,12.5,26.8z"/>
			</g>
		</g>
		<g>
			<g>
				<path class="st2" d="M15.9,40.8c0,0,1.2,1,2.4,1.3s2,0.5,2.6-0.5c0.6-1,0.3-2.9-0.2-4.4c-0.4-1.5-1.5-5.2-1.5-5.2L13,32.6
					L15.9,40.8z"/>
			</g>
		</g>
		<g>
			<g>
				<g>
					<path class="st14" d="M27.2,30.6l1.6,0.5c0,0,0.9-0.4-0.7-3.4c-0.7-1.3-0.8-1.2-0.8-1.2l-1.5,2.4L27.2,30.6z"/>
				</g>
			</g>
			<g>
				<g>
					<path class="st11" d="M26.4,27c0,0,2.4,5,0.7,6.1l-2.8-1.6C24.2,31.5,25.8,27.5,26.4,27z"/>
				</g>
			</g>
			<g>
				<g>
					<path class="st8" d="M11.1,10.9c1.3,1,2.2,2.5,2.5,4.1c0.1,0.3,0.1,0.6,0.1,0.8c-0.1,0.8-0.4,1.1-0.2,1.5
						c0.1,0.4,0,1.9-0.5,2.8c-0.5,0.9-1.1,1.2-1.4,1.9c-0.3,0.7-0.4,2.3-2,2.8l-0.1,3l-7.1-4.1c0,0,0.5-3.1,0.8-4.9
						c0.3-1.8-0.6-3.7,1.3-5.7s4-3.1,5-3C10,10.2,10.6,10.5,11.1,10.9z"/>
				</g>
			</g>
			<g>
				<g>
					<path class="st1" d="M2.5,22.6l-0.3,2.7c0,0,5,0.2,6.6,1.1s2,1.5,2,1.5l0-2.4c0,0-3.1-1.3-4.1-2C5.7,22.9,3.4,22.4,2.5,22.6z"
						/>
				</g>
			</g>
			<g>
				<g>
					<path class="st11" d="M3.4,48h13.3c-0.2-0.8-0.5-5.5-0.2-6.6c0.3-1.7,0.9-4-0.3-6.5c-1.2-2.5-3.5-5.6-4.6-7.1
						c-1.1-1.5-2.1-2.3-4.1-3.1c-2.1-0.8-4.4-1.5-5.5,0.6c0,0-1.8,2.8-1.8,5.7C0,33.8,3.1,46.7,3.4,48z"/>
				</g>
			</g>
			<g>
				<g>
					<path class="st4" d="M11,11.6c0,0,1.1,0.8,1.7,1.4c0.6,0.7,1.4,2.7,0.8,4.4c0,0,1.1-1.3,0.7-3.1s-2-4.2-4.3-4.9s-3.9,0-5.3,0.6
						c-1.4,0.6-2.5,3.4-2.8,4.7s0.1,2.2-0.5,3.2s-1.3,2.5-1.2,3.8s0.4,3.1,2.6,4c2.2,0.9,5.9,0.4,8,3s4.2,8.2,4.1,9.7
						c0,0,0.8-3.4-0.6-6.2s-2.1-4.9-4.5-6.4c-2.4-1.4-3.7-2.9-4.4-4.9s-0.3-4.7,0-5.6c0,0-0.2,1.5-0.2,2.6c0,0,0.8,0.1,1.7-1.9
						S10,11.6,11,11.6z"/>
				</g>
			</g>
			<g>
				<g>
					<path class="st4" d="M36.6,22.1L36.3,24L34,25.4c0,0-2.8-5-3.1-5.2c-0.3-0.2-0.8-0.1-1.2-0.5c-0.4-0.4-1.6-2.4-1.6-2.4l3.9-2.1
						c0.6,0.6,1.3,1,2,1.2c0,0-0.1,0.1-0.1,0.2c-0.3,0.5-0.3,1.1,0.1,1.5L36.6,22.1z"/>
				</g>
			</g>
			<g>
				<g>
					<g>
						<g>
							<path class="st5" d="M44.5,9.1c0.7,2.4,1.2,6.2,0.5,6.5c-4-0.4-6.6-0.9-10.2,0.6c-1-0.1-2.3-1.2-3.1-2.8
								c-0.8-1.6-0.9-3.2-0.4-4c1.4-0.8,2.3-1.3,3.5-2.4c1.4-1.3,1.8-2.2,2.8-3.8c0.9-0.4,5.5,2.4,6.4,4.3
								C44.1,7.9,44.3,8.4,44.5,9.1z"/>
						</g>
					</g>
				</g>
				<g>
					<g>
						<g>
							<path class="st4" d="M34.7,16.2c-0.7,0.3-1.5,0.7-2.2,1l-2.8,1.5c-0.9,0.4-2.4-0.7-3.4-2.6c-0.9-1.9-0.9-3.7,0-4.2l4.3-2.2
								c0.2-0.1,0.4-0.2,0.6-0.4c-0.5,0.8-0.3,2.4,0.4,4C32.4,15,33.7,16.1,34.7,16.2z"/>
						</g>
					</g>
				</g>
				<g>
					<g>
						<g>
							<path class="st5" d="M45.9,15.7c-2.1,1-5.4-1.6-7.5-5.7c-2.1-4.1-2-8.3,0-9.3c2.1-1,5.4,1.6,7.5,5.7
								C48,10.6,48,14.8,45.9,15.7z"/>
						</g>
					</g>
				</g>
				<g>
					<g>
						<g>
							<g>
								<g>
									<path class="st14" d="M43.1,7.8c-0.5-0.9-1.2-1.5-1.7-1.3l-3.5,1.6c0.3,1.2,0.7,2.5,1.6,3.4L43,9.9
										c0.1-0.1,0.3-0.2,0.3-0.4C43.5,9.1,43.4,8.5,43.1,7.8z"/>
								</g>
							</g>
						</g>
					</g>
				</g>
				<g>
					<g>
						<g>
							<path class="st4" d="M45.7,16.4c-2.4,0.7-5.7-1.9-7.8-6.1c-1.5-3-2-6.1-1.3-8.1c0.3-0.9,0.9-1.5,1.6-1.9c2.4-1.1,6,1.5,8.2,6
								c1.5,3,2,6.1,1.3,8.1c-0.3,0.9-0.9,1.5-1.6,1.9l0,0C46,16.3,45.9,16.3,45.7,16.4z M38.9,1.1c-0.1,0-0.2,0.1-0.2,0.1
								c-0.4,0.2-0.8,0.6-1,1.2c-0.6,1.7-0.1,4.6,1.2,7.3c1.9,3.8,5,6.3,6.8,5.5l0,0c0.4-0.2,0.8-0.6,1-1.2c0.6-1.7,0.1-4.6-1.2-7.3
								C43.6,3.1,40.7,0.6,38.9,1.1z"/>
						</g>
					</g>
				</g>
				<g>
					<g>
						<g>
							<g>
								<path class="st3" d="M43.3,9.5c-0.1,0.2-0.2,0.3-0.3,0.4c0,0-0.1,0-0.1,0c-0.5,0.1-1.2-0.4-1.6-1.3C41,8,40.9,7.4,41,6.9
									c0.1-0.2,0.2-0.3,0.3-0.4c0.5-0.2,1.2,0.3,1.7,1.3C43.4,8.5,43.5,9.1,43.3,9.5z"/>
							</g>
						</g>
					</g>
				</g>
			</g>
			<g>
				<g>
					<path class="st8" d="M33,19.2c0,0,0.5-1.1,0.6-1.1l0.3,0l0.4,0.6c0,0,0.3,0,0.5-0.6c0.1-0.5,0.2-0.6,0-0.7
						c-0.2-0.1-1.6-0.6-1.6-0.6s-0.2-0.1-0.6,0.3c-0.3,0.4-0.8,1.4-1.1,1.9c-0.3,0.4-0.7,0.8-0.8,1.2c0,0.5,0.4,3.1,0.4,3.6
						c0,0.5-0.4,1.2-0.9,1.3S26,27.3,26,27.3l1.5,3.7c0,0,1.4-1.1,2.9-2.2c1.5-1.1,2.9-1.6,3.7-2.4c0.8-0.8,0.8-1.4,1.3-2.8
						c0.4-1.3,0.6-1.6,0.6-1.6l0.5-0.2c0,0,0.2,0.1,0.2,0.4c0,0,0.2,0.1,0.3-0.2c0.1-0.3,0.1-1.2,0.1-1.2s-0.1-0.4-0.4-0.4
						c0,0,0.1-0.5-0.2-0.7c-0.3-0.2-0.8,0-0.8,0s0.4-0.7,0.1-1s-0.7-0.3-1.1-0.2S33,19.2,33,19.2z"/>
				</g>
			</g>
			<g>
				<g>
					<path class="st5" d="M27.3,26.5c0,0,0.5,2.6,1,3.6c0.5,1,0.5,1,0.5,1L25,32.2l0-4.6L27.3,26.5z"/>
				</g>
			</g>
			<g>
				<g>
					<path class="st2" d="M26.4,27c0,0-0.4,3.3,0,4.4c0.3,1.1,0.7,1.7,0.7,1.7s-2.7,0.9-3.8,1.3c-1.1,0.4-2.2,1.3-4.2,1.6
						c-2,0.2-11.2-0.5-12.3-0.5c-1.2,0-3.6-0.2-4.7-1.9C1,31.9,0.9,29,1.7,27.8c0.8-1.2,3.7-1.7,5.5-1.3s2.7,1.5,3.3,1.8
						c0.7,0.3,3.8,1.2,5.1,1.3c1.2,0.1,1.9,0.6,1.9,0.6s2.2-0.5,3.9-1.1C23,28.5,26.2,27,26.4,27z"/>
				</g>
			</g>
			<g>
				<g>
					<path class="st8" d="M5.8,17.4c0.1,1.1-0.3,2.1-1,2.2c-0.6,0.1-1.2-0.7-1.3-1.8s0.3-2.1,1-2.2S5.7,16.3,5.8,17.4z"/>
				</g>
			</g>
			<g>
				<path class="st4" d="M5.2,15.2c0,0-0.2,1.5-0.2,2.6c0,0,0.8,0.1,1.7-1.9L5.2,15.2z"/>
			</g>
		</g>
	</g>
</g>
</svg>
