<?xml version="1.0" encoding="utf-8"?>
<!-- Generator: Adobe Illustrator 18.0.0, SVG Export Plug-In . SVG Version: 6.00 Build 0)  -->
<!DOCTYPE svg PUBLIC "-//W3C//DTD SVG 1.1//EN" "http://www.w3.org/Graphics/SVG/1.1/DTD/svg11.dtd">
<svg version="1.1" id="Layer_1" xmlns="http://www.w3.org/2000/svg" xmlns:xlink="http://www.w3.org/1999/xlink" x="0px" y="0px"
	 viewBox="0 0 48 48" enable-background="new 0 0 48 48" xml:space="preserve">
<g>
	<g>
		<g>
			<g>
				<g>
					<g>
						<path fill="#8AD7F8" d="M40.3,20.9l2.6-1.1l-0.3-2.7c0.5-0.4,1-0.9,1.4-1.5l2.7,0.2l1.1-2.7l-2.1-1.7c0.1-0.7,0.1-1.4,0-2.1
							L48,7.7L46.9,5l-2.7,0.3c-0.4-0.6-0.9-1-1.5-1.5L43,1.1L40.3,0l-1.8,2.1c-0.7-0.1-1.4-0.1-2,0L34.8,0l-2.6,1.1l0.2,2.7
							c-0.5,0.4-1,0.9-1.4,1.4L28.2,5l-1.1,2.6l2.1,1.7c-0.1,0.7-0.1,1.4,0,2.1l-2.1,1.8l1.1,2.6l2.7-0.3c0.4,0.6,0.9,1,1.5,1.5
							l-0.2,2.7l2.6,1.1l1.8-2.1c0.7,0.1,1.4,0.1,2,0L40.3,20.9z M34.3,11.8c-0.8-1.8,0.1-3.9,1.9-4.6c1.8-0.8,3.9,0.1,4.6,1.9
							c0.8,1.8-0.1,3.9-1.9,4.6C37.1,14.5,35,13.6,34.3,11.8z"/>
					</g>
					<g>
						<path fill="#55C0EB" d="M35.4,5.2c-2.9,1.2-4.3,4.5-3.1,7.4c1.2,2.9,4.5,4.3,7.4,3.1c2.9-1.2,4.3-4.5,3.1-7.4
							C41.6,5.4,38.3,4,35.4,5.2z M38.9,13.7c-1.8,0.8-3.9-0.1-4.6-1.9c-0.8-1.8,0.1-3.9,1.9-4.6c1.8-0.8,3.9,0.1,4.6,1.9
							C41.6,10.9,40.7,13,38.9,13.7z"/>
					</g>
				</g>
			</g>
			<g>
				<path fill="#415A6B" d="M34.4,33.1v-4.6l-4.2-1.3c-0.3-1.1-0.7-2.1-1.3-3l2-3.9L27.7,17l-3.9,2c-1-0.5-2-1-3.1-1.3l-1.3-4.2
					h-4.6l-1.3,4.2c-1.1,0.3-2.1,0.7-3.1,1.3l-3.9-2l-3.3,3.3l2,3.9c-0.5,0.9-1,2-1.3,3L0,28.5v4.6l4.2,1.3c0.3,1.1,0.7,2.1,1.3,3
					l-2,3.9l3.3,3.2l3.9-2c1,0.5,2,1,3.1,1.3l1.3,4.2h4.6l1.3-4.2c1.1-0.3,2.1-0.7,3.1-1.3l3.9,2l3.3-3.2l-2-3.9c0.5-0.9,1-2,1.3-3
					L34.4,33.1z M17.2,36c-2.9,0-5.2-2.3-5.2-5.2c0-2.9,2.3-5.2,5.2-5.2c2.9,0,5.2,2.3,5.2,5.2C22.4,33.7,20.1,36,17.2,36z"/>
				<g>
					<path fill="#344A5E" d="M17.2,22.3c-4.7,0-8.5,3.8-8.5,8.5c0,4.7,3.8,8.5,8.5,8.5c4.7,0,8.5-3.8,8.5-8.5
						C25.7,26.1,21.9,22.3,17.2,22.3z M17.2,36c-2.9,0-5.2-2.3-5.2-5.2c0-2.9,2.3-5.2,5.2-5.2c2.9,0,5.2,2.3,5.2,5.2
						C22.4,33.7,20.1,36,17.2,36z"/>
				</g>
			</g>
		</g>
		<g>
			<g>
				<g>
					<circle fill="#F3F3F3" cx="34.9" cy="34.9" r="11.6"/>
					<path fill="#F3705A" d="M34.9,48c-7.2,0-13.1-5.9-13.1-13.1s5.9-13.1,13.1-13.1S48,27.8,48,34.9S42.1,48,34.9,48z M34.9,24.9
						c-5.5,0-10.1,4.5-10.1,10.1S29.4,45,34.9,45S45,40.5,45,34.9S40.5,24.9,34.9,24.9z"/>
				</g>
			</g>
			<path fill="#66C6B9" d="M41.5,30.5c-0.5-0.5-1.3-0.5-1.8,0l-6.8,6.8l-2.6-2.6c-0.5-0.5-1.3-0.5-1.8,0v0c-0.5,0.5-0.5,1.3,0,1.8
				l3.5,3.5c0.5,0.5,1.3,0.5,1.8,0l7.8-7.8C42,31.8,42,31,41.5,30.5z"/>
		</g>
	</g>
</g>
</svg>
