<?xml version="1.0" encoding="utf-8"?>
<!-- Generator: Adobe Illustrator 18.0.0, SVG Export Plug-In . SVG Version: 6.00 Build 0)  -->
<!DOCTYPE svg PUBLIC "-//W3C//DTD SVG 1.1//EN" "http://www.w3.org/Graphics/SVG/1.1/DTD/svg11.dtd">
<svg version="1.1" id="Layer_1" xmlns="http://www.w3.org/2000/svg" xmlns:xlink="http://www.w3.org/1999/xlink" x="0px" y="0px"
	 viewBox="0 0 48 48" enable-background="new 0 0 48 48" xml:space="preserve">
<g>
	<g>
		<g>
			<g>
				<path fill="#344A5E" d="M22.1,44.6c0,0-0.2-0.6,0-0.7c0.1-0.1,0.7-0.4,0.7-0.4l2-0.6c0,0,0.4,0.4,0.5,0.6
					c0.2,0.2,0.5,0.6,0.9,0.8c0.3,0.2,0.9,1,0.9,1l0,0.3c0,0-1,0.4-1.9,0.2c-0.9-0.2-1.3-0.7-1.3-0.7L22.1,44.6z"/>
			</g>
		</g>
	</g>
	<g>
		<g>
			<g>
				<g>
					<path fill="#344A5E" d="M16.7,47.4c0,0-0.1-0.1-0.1-0.3c0-0.1-0.2-0.4,0.2-1c0.4-0.6,0.9-1.8,0.9-1.8h1.5l0.8,0.8l-0.3,0.8
						l-0.3,0.5l-0.1,0.7C19.2,47.1,17.7,48,16.7,47.4z"/>
				</g>
			</g>
		</g>
		<g>
			<g>
				<g>
					<path fill="#425A6B" d="M19.9,45c0,0-0.2,0.5-0.4,0.7c-0.2,0.2-0.2,0.7-0.2,0.7s0.1,0.4-0.2,0.7c-0.3,0.2-1.2,0.5-1.8,0.4
						c-0.6-0.2-0.7-0.1-0.7-0.2c0,0-0.3,0.5,0.3,0.7c0.6,0.2,2.1,0,2.3-0.5c0.2-0.5,0.1-0.9,0.1-1c0,0,1.2-0.5,0.6-1.2L19.9,45"/>
				</g>
			</g>
		</g>
	</g>
	<g>
		<g>
			<g>
				<path fill="#425A6B" d="M26.5,20.4c0,0,1,1.7,0.8,3.5c-0.2,1.7-0.9,7.3-1.1,8.7c-0.2,1.4,0.1,3.1-0.1,4
					c-0.3,0.9-0.7,2.9-0.6,3.8c0.1,0.9-0.2,2.7-0.2,2.7s-0.7,0-1.5,0.4c-0.9,0.5-1.7,0.2-1.7,0.2s0.2-1.2,0.4-1.6c0,0-0.3-1.6-0.3-3
					c0.1-1.5,0.8-4.5,0.7-5.7c-0.1-1.2,0.1-4.6,0.1-4.6s-1,2.6-1.2,4.1c-0.2,1.5-0.2,5.9-0.2,5.9s-0.5,3.9-0.9,4.8
					c-0.3,0.9-0.5,1.6-0.5,1.6s-0.5-0.5-1.2-0.7c-0.7-0.1-1.3,0-1.3,0s-0.4-0.8-0.3-2.3c0.1-1.5,0.7-8.1,0.8-9.1
					c0.2-1-0.3-11.5,0.4-12.9c0.7-1.4,1.5-1.2,1.5-1.2L26.5,20.4z"/>
			</g>
		</g>
	</g>
	<g>
		<g>
			<g>
				<g>
					<path fill="#F5B54C" d="M30,11.1c0,0-0.4-0.5-0.1-0.7l0.3,0.2c0,0,0.2-0.1,0.4,0c0.2,0.1,0.4,0.7,0.4,0.7L30,11.1z"/>
				</g>
			</g>
		</g>
		<g>
			<g>
				<g>
					<path fill="#67C5B8" d="M26.8,9.8c0,0,0.8,0.1,0.8,0.1s0.8,1.1,0.7,2.3c-0.1,1.2,0.2,2.3,0.2,2.3l0.6-1.2c0,0,1.1-0.5,1.6,0
						c0.4,0.5-0.1,1.4-0.1,1.4s-0.4,1.4-0.5,1.6c0,0.2-1.7,1.8-2.1,1.8c-0.3,0-1.4-1.2-1.4-1.2L26.8,9.8z"/>
				</g>
			</g>
		</g>
		<g>
			<g>
				<g>
					<path fill="#F3F3F3" d="M26.6,12.6c0,0,2.3-1.3,2.9-1.9c0,0,0.9,1,0.4,1.9c-0.5,0.8-3.6,2.7-3.6,2.7L26.6,12.6"/>
				</g>
			</g>
		</g>
		<g>
			<g>
				<g>
					<path fill="#CED6E0" d="M29.5,10.7c0,0,0.7-0.1,0.9,0.8c0.2,0.9,0.1,1.3,0.1,1.3S29.2,11.8,29.5,10.7z"/>
				</g>
			</g>
		</g>
		<g>
			<g>
				<g>
					<path fill="#F5B54C" d="M23.9,6.7v1.6v2.2l-2-0.2c0,0-1.5-2-1.4-2.1c0,0,0.6-0.1,0.6-1.4C21.1,5.5,23.9,6.7,23.9,6.7z"/>
				</g>
			</g>
		</g>
		<g>
			<g>
				<g>
					<path fill="#48B9A5" d="M24.1,7.9c0,0,0.4,0.3,1.2,0.6c0.8,0.3,2.1,0.8,2.4,1.5c0,0-0.4,0.7-0.6,1.9c-0.2,1.2-0.4,5-0.2,5.8
						c0.1,0.8-0.3,2.7-0.3,2.7s-1.9,0.8-3.3,0.7c-1.5,0-4.8-0.4-4.8-0.4s-0.3-2.8-0.2-3.5c0.1-0.6-0.6-3.2-0.1-5.3
						c0.5-2,0.3-3.2,0.3-3.2s1.2-1,2.4-1l0.5,0.6c0,0,0.9,0.2,1.2,0.6c0.3,0.4,0.4,1.3,0.4,1.3s0.6-0.7,0.6-0.7
						C23.5,9.4,24.1,7.9,24.1,7.9z"/>
				</g>
			</g>
		</g>
		<g>
			<g>
				<g>
					<path fill="#425A6B" d="M26.5,20.4c0,0,1,1.7,0.8,3.5c-0.2,1.7-0.9,7.3-1.1,8.7c-0.2,1.4,0.1,3.1-0.1,4
						c-0.3,0.9-0.7,2.9-0.6,3.8c0.1,0.9-0.2,2.7-0.2,2.7s-0.7,0-1.5,0.4c-0.9,0.5-1.7,0.2-1.7,0.2s0.2-1.2,0.4-1.6
						c0,0-0.3-1.6-0.3-3c0.1-1.5,0.8-4.5,0.7-5.7c-0.1-1.2,0.1-4.6,0.1-4.6s-1,2.6-1.2,4.1c-0.2,1.5-0.2,5.9-0.2,5.9
						s-0.5,3.9-0.9,4.8c-0.3,0.9-0.5,1.6-0.5,1.6s-0.5-0.5-1.2-0.7c-0.7-0.1-1.3,0-1.3,0s-0.4-0.8-0.3-2.3c0.1-1.5,0.7-8.1,0.8-9.1
						c0.2-1-0.3-11.5,0.4-12.9c0.7-1.4,1.5-1.2,1.5-1.2L26.5,20.4z"/>
				</g>
			</g>
		</g>
		<g>
			<g>
				<g>
					<path fill="#48B9A5" d="M24.1,7.9c0,0,0.4,0.3,1.2,0.6c0.8,0.3,2.1,0.8,2.4,1.5c0,0-0.4,0.7-0.6,1.9c-0.2,1.2-0.4,5-0.2,5.8
						c0.1,0.8-0.3,2.7-0.3,2.7s-1.9,0.8-3.3,0.7c-1.5,0-4.8-0.4-4.8-0.4s-0.3-2.8-0.2-3.5c0.1-0.6-0.6-3.2-0.1-5.3
						c0.5-2,0.3-3.2,0.3-3.2s1.2-1,2.4-1l0.5,0.6c0,0,0.9,0.2,1.2,0.6c0.3,0.4,0.4,1.3,0.4,1.3s0.6-0.7,0.6-0.7
						C23.5,9.4,24.1,7.9,24.1,7.9z"/>
				</g>
			</g>
		</g>
		<g>
			<g>
				<g>
					<path fill="#E8EAE8" d="M24.9,8.9c-0.2-0.3-0.9-0.7-1-0.1c-0.1,0.6-0.1,0.8-0.5,1c-0.3,0.2-0.4,0.3-0.5,0.4
						c0.1-0.4,0.5-1.1,0.7-1.3c0.3-0.2,0.3-1.5,0.3-1.5C24.5,8,24.9,8.9,24.9,8.9z"/>
				</g>
			</g>
		</g>
		<g>
			<g>
				<g>
					<path fill="#E8EAE8" d="M20.6,9.2c0,0,0.7-0.6,1-0.6c0.4,0,0.8,0.2,0.9,0.4c0,0,0-0.3-0.6-0.6C21.3,8,21,7,21,7
						S20.4,8.7,20.6,9.2z"/>
				</g>
			</g>
		</g>
		<g>
			<g>
				<g>
					<g>
						<path fill="#FFD15C" d="M24.2,4.1c-0.1-2.3-2.4-1.7-3.4-1.5c-1.1,0.2-0.9,1-0.8,1.8c0,0.4,0.2,1,0.3,1.6
							c0.2,0.9,0.9,1.6,1.8,1.7c0.1,0,0.3,0,0.4,0c0,0,0.6,0,1.4-0.8c0,0,0,0,0,0C24.5,6.2,24.2,4.1,24.2,4.1z"/>
					</g>
				</g>
			</g>
			<g>
				<g>
					<g>
						<g>
							<g>
								<g>
									
										<ellipse transform="matrix(0.9974 -7.242342e-002 7.242342e-002 0.9974 -0.2915 1.7754)" fill="#FFD15C" cx="24.3" cy="4.9" rx="0.3" ry="0.7"/>
								</g>
							</g>
						</g>
					</g>
					<g>
						<g>
							<g>
								<g>
									
										<ellipse transform="matrix(0.9638 -0.2667 0.2667 0.9638 -0.6798 5.5484)" fill="#FFD15C" cx="20.1" cy="5.3" rx="0.3" ry="0.7"/>
								</g>
							</g>
						</g>
					</g>
					<g>
						<g>
							<g>
								<g>
									<path fill="#425A6B" d="M20.1,4.9c0,0,0.1-0.6-0.1-1c-0.1-0.4,0.4-0.7,0.6-0.7c0.3,0,1.8,0,2.2-0.2C23.3,2.7,24,3.1,24,3.4
										c0,0.3,0.3,1.4,0.3,1.4l0.1,0l0-1c0.1-0.6-0.2-1.3-0.5-2l-2.2-0.6c0,0-2,1.1-2,2.1C19.6,4.2,20.1,4.9,20.1,4.9z"/>
								</g>
							</g>
						</g>
					</g>
					<g>
						<g>
							<g>
								<g>
									<g>
										<path fill="#F05640" d="M19.6,2.8c0,0,0-2.2,1.5-2.6c1.5-0.5,2.1,0.3,2.1,0.3s1,1.1,1.2,2.2c0,0-0.5-0.6-1.5-0.6
											S20.5,1.8,19.6,2.8z"/>
									</g>
								</g>
							</g>
						</g>
						<g>
							<g>
								<g>
									<g>
										<path fill="#F26F5A" d="M19.7,4c0,0-0.1-0.9,0.2-1.2c0.3-0.3,1-0.7,1.6-0.7c0.7,0,1.6-0.1,2.2,0.2
											c0.6,0.3,0.7,1.1,0.7,1.4l0.1,0.4c0,0,0.5-0.5,0.2-1.3c-0.3-0.8-1.4-0.8-1.4-0.8s-1.4-0.1-1.8,0c-0.5,0.1-1.5,0.3-1.8,0.8
											C19.2,3.2,19.3,3.9,19.7,4z"/>
									</g>
								</g>
							</g>
						</g>
					</g>
				</g>
			</g>
		</g>
		<g>
			<g>
				<g>
					<g>
						<path fill="#425A6B" d="M21.3,6.4l-0.4,0.1l-0.2-1.2l0.6-0.1l0.1,1.1C21.4,6.4,21.4,6.4,21.3,6.4z"/>
					</g>
				</g>
			</g>
			<g>
				<g>
					<g>
						<polygon fill="#344A5E" points="21.3,5.2 21.2,4.8 20.4,4.9 20.7,5.3 						"/>
					</g>
				</g>
			</g>
		</g>
		<g>
			<g>
				<g>
					<path fill="#F5B54C" d="M20.9,7.5c0,0,0.4-0.8,0.2-1.4c-0.2-0.5-0.4-0.9-0.4-0.9s0-0.2,0-0.2C20.9,5,21,5,21,5s0.1,0.2,0.2,0.2
						c0.1,0,0.3,0.6,0.6,0.3l-0.2-0.4L21,4.6c0,0,0-0.1,0-0.1c0,0-0.3-0.1-0.6-0.2c-0.2,0-0.3,0-0.4,0.2l-0.4,0.7
						c-0.1,0.1-0.1,0.2-0.1,0.4c0,0.2,0.1,0.6,0.3,0.7c0.2,0.2,0.3,0.6,0.3,0.6L20.9,7.5z"/>
				</g>
			</g>
		</g>
		<g>
			<g>
				<g>
					<path fill="#48B9A5" d="M28.5,14.6c0,0-0.9,0.7-1.2,1.3c0,0-0.1-0.6,1.1-1.8C28.4,14.4,28.5,14.6,28.5,14.6z"/>
				</g>
			</g>
		</g>
		<g>
			<g>
				<g>
					<path fill="#FFD15C" d="M29.3,13.2c0,0-0.2,0.4,0,0.6c0.2,0.2,0.5,0.4,0.8,0.4c0.3,0,0.4-0.4,0.4-0.4s0.2-0.6,0.4-0.9
						c0.1-0.2,0.4-0.7,0.6-1c0.1-0.1,0.1-0.2,0-0.3c-0.1-0.1-0.1-0.3-0.2-0.4c-0.1-0.1-0.3-0.3-0.4-0.4c-0.1-0.1-0.2-0.2-0.4-0.1
						l-0.5,0.1c0,0,0,0.1,0,0.1l-0.5,0.1c0,0-0.1,0.2,0.2,0.3c0,0-0.4,0.2-0.1,0.4c0,0-0.3,0.2,0,0.3l0.2,0.2l0.2,0.3
						C29.8,12.7,29.3,13,29.3,13.2z"/>
				</g>
			</g>
		</g>
		<g>
			<g>
				<g>
					<g>
						<path fill="#F5B54C" d="M29.6,11.4c0.1,0,0.2,0,0.3,0c0.1,0,0.2,0,0.3,0l0,0l0,0c0.1,0.1,0.1,0.2,0.2,0.2
							c0.1,0.1,0.1,0.2,0.2,0.2c-0.1-0.1-0.2-0.1-0.2-0.2c-0.1-0.1-0.1-0.2-0.2-0.2l0,0c-0.1,0-0.2,0-0.3,0
							C29.8,11.4,29.7,11.4,29.6,11.4z"/>
					</g>
				</g>
			</g>
			<g>
				<g>
					<g>
						<path fill="#F5B54C" d="M29.5,11.8c0.1,0,0.1,0,0.2,0c0.1,0,0.1,0,0.2,0l0,0l0,0c0.1,0.1,0.2,0.2,0.2,0.3c0,0,0.1,0.1,0.1,0.1
							c0,0,0.1,0.1,0.1,0.1c0,0-0.1-0.1-0.1-0.1c0,0-0.1-0.1-0.1-0.1C30,12.1,30,12,29.9,11.9l0,0c-0.1,0-0.1,0-0.2,0
							C29.6,11.9,29.6,11.9,29.5,11.8z"/>
					</g>
				</g>
			</g>
		</g>
		<g>
			<g>
				<g>
					<path fill="#F5B54C" d="M29.9,11c0.2-0.1,0.4-0.1,0.6-0.1l0,0l0,0c0.1,0.1,0.2,0.2,0.3,0.3c0.1,0.1,0.2,0.2,0.2,0.4
						c-0.1-0.1-0.2-0.2-0.3-0.3c-0.1-0.1-0.2-0.2-0.3-0.3l0,0C30.3,11,30.1,11,29.9,11z"/>
				</g>
			</g>
		</g>
		<g>
			<g>
				<g>
					<path fill="#F3F3F3" d="M30.3,10.6c-0.2,0.2-0.3-0.2-0.3-0.2L30.3,10.6z"/>
				</g>
			</g>
		</g>
		<g>
			<g>
				<g>
					<path fill="#37AA94" d="M17.9,14.1c0,0-0.4-0.3-0.2-0.5c0.1-0.2,1.2-0.5,1.2-0.5s-0.6,1.2-0.8,1.9L17.9,14.1z"/>
				</g>
			</g>
		</g>
		<g>
			<g>
				<g>
					<path fill="#47B29E" d="M18.5,8.5c0,0-1.1-0.1-1.6,0.5c-0.5,0.6,0.1,2.3,0.1,2.3l0.6,2.3l1.2-0.6c0,0,1.3-0.4,1.5-1.4
						c0.2-1,0.4-1.7,0.4-2.3c0.1-0.6,0.4-2.1,0.4-2.1s-0.4-0.9-1.2-0.8l-0.6,1L18.5,8.5z"/>
				</g>
			</g>
		</g>
		<g>
			<g>
				<g>
					<path fill="#67C5B8" d="M21.1,7.3c0,0-0.4,1.5-0.4,2.1c-0.1,0.6-0.3,1.2-0.4,2.3c-0.2,1-1.5,1.4-1.5,1.4l-1.2,0.6L17,11.4
						c0,0-0.5-1.7-0.1-2.3c0.3-0.4,0.8-0.5,1.2-0.5c0.2,0,0.4,0,0.4,0l0.9-1l0.6-1C20.7,6.4,21.1,7.3,21.1,7.3z"/>
				</g>
			</g>
		</g>
		<g>
			<g>
				<path fill="#47B29E" d="M17.5,9.6C17.5,9.6,17.6,9.5,17.5,9.6C17.5,9.6,17.5,9.6,17.5,9.6z"/>
			</g>
		</g>
		<g>
			<g>
				<path fill="#47B29E" d="M18.5,8.5c0,0-0.7,0.6-0.9,1c0.1-0.2,0.3-0.7,0.5-1C18.3,8.5,18.5,8.5,18.5,8.5z"/>
			</g>
		</g>
	</g>
	<g>
		<g>
			<g>
				<path fill="#E8EAE8" d="M26.7,20.8c0-0.3,0-0.7-0.1-1l-0.3,0.1c0,0-1.8,0.7-3.1,0.7c-1.4,0-4.7-0.4-4.7-0.4l-0.1,0
					c-0.1,0.3-0.1,0.8,0,1l0,0c0.1,0,3.4,0.3,4.8,0.4c0,0,0.1,0,0.1,0C24.7,21.6,26.6,20.9,26.7,20.8L26.7,20.8z"/>
			</g>
		</g>
	</g>
	<g>
		<g>
			<g>
				<path fill="#425A6B" d="M22.1,43.9c0,0-0.3,0.2,0.9,0.5c0,0,0.3,0,0.9,0.5c0.6,0.6,1.7,1.1,2.9,0.5c0,0,0.2-0.1,0.3-0.2
					c0,0,0.3,0.5-0.3,0.7c-0.6,0.2-1.7,0.5-2.8-0.4c0,0-0.2-0.4-0.7-0.4C22.7,45.1,21.4,44.9,22.1,43.9z"/>
			</g>
		</g>
	</g>
</g>
</svg>
