<?xml version="1.0" encoding="utf-8"?>
<!-- Generator: Adobe Illustrator 18.0.0, SVG Export Plug-In . SVG Version: 6.00 Build 0)  -->
<!DOCTYPE svg PUBLIC "-//W3C//DTD SVG 1.1//EN" "http://www.w3.org/Graphics/SVG/1.1/DTD/svg11.dtd">
<svg version="1.1" id="Layer_1" xmlns="http://www.w3.org/2000/svg" xmlns:xlink="http://www.w3.org/1999/xlink" x="0px" y="0px"
	 viewBox="0 0 48 48" enable-background="new 0 0 48 48" xml:space="preserve">
<g>
	<g>
		<g>
			<g>
				<g>
					<path fill="#CED6E0" d="M13.3,16.4l0.5,0.8l-0.7,0.6C13.1,17.9,13.1,16.6,13.3,16.4z"/>
				</g>
			</g>
		</g>
		<g>
			<g>
				<g>
					<path fill="#CED6E0" d="M17.6,16.4L17,17.2l0.3,0.7C17.2,17.9,17.9,16.7,17.6,16.4z"/>
				</g>
			</g>
		</g>
		<g>
			<g>
				<g>
					<g>
						<path fill="#F5B54C" d="M11.8,30.1l0.2,1.1c0,0,0,2.3,3.9,2.5c3.9,0.2,4.2-2.5,3.9-3.4l-0.1-0.7L13,28.3L11.8,30.1z"/>
					</g>
				</g>
			</g>
			<g>
				<g>
					<g>
						<g>
							<path fill="#344A5E" d="M19.3,39.1c0,0,7.2-3.6,4.8-5.7l-0.4-0.3C23.7,33.1,18.8,37.3,19.3,39.1z"/>
						</g>
					</g>
					<g>
						<g>
							<g>
								<path fill="#344A5E" d="M10,32.8c0,0,1.7-0.4,3.6,2.7c0,0,0.7,0.9,0.6,1.5c-0.1,0.6,0.6,0.7,0.6,0.7s-0.2,0.9-0.6,1.1
									c-0.4,0.2-0.9-0.5-0.9-0.5s-0.3-0.2-0.6,0c-0.3,0.2-0.6,0-0.6,0L10,32.8z"/>
							</g>
						</g>
					</g>
				</g>
				<g>
					<g>
						<g>
							<path fill="#FFD15C" d="M23.3,33.4c0,0,2.7,0.9,5,3c0,0,0.7,0.8,1.1,0.9c0.4,0.1,1,0.5,1,0.5s0.6,0.4,1.1,0.4
								c0.5,0,2.8,1,4,2c1.1,1,3.5,2.7,3.5,2.7l-0.8,1.6c0,0-1-0.7-2-1c-1-0.3-3.5-1.1-4.3-1.9c0,0-0.9-0.6-2-0.8
								c-1.1-0.1-3-0.5-4.1-1.4l-7.8-2.8L23.3,33.4z"/>
						</g>
					</g>
				</g>
				<g>
					<g>
						<g>
							<polygon fill="#F5B54C" points="17.5,18.2 17.2,20.4 15,20.4 13.7,19.5 13.5,16 13.5,16 17.2,15.4 							"/>
						</g>
					</g>
				</g>
				<g>
					<g>
						<g>
							<g>
								<g>
									<g>
										<g>
											<g>
												<path fill="#FFD15C" d="M15.4,2c0.3-0.3,0.7-1,1.1-0.8c0.2,0.2-0.3,0.8-0.3,0.8s-0.4,0.5-0.6,0.6
													C15.4,2.8,15.2,3,15.2,3l0,0.3c0,0.1,0.2,0.4,0,0.5c-0.2,0.1-0.4,0.1-0.4,0.1S14.5,4,14.4,4.2c-0.1,0.1-0.2,0.1-0.5,0
													c-0.3-0.1-0.6-0.1-0.6-0.1s-0.2,0-0.4,0.6c-0.2,0.6-0.7,1.6-0.7,1.6s0.1,2.7-0.9,4.6c0,0-0.1,0.2,0.1,0.6
													c0.1,0.3,2,1.5,0.4,5.2l-1.9,1.6c0,0-1.2-2.1-1.3-3.1c-0.1-1.1,0.1-2.4,0.1-2.4s0-1.6,0-1.9c-0.1-0.3,0-0.8,0.2-1.1
													c0,0,0.9-2.9,1.5-4.1c0.7-1.2,0.9-1.8,0.9-1.8s0.4-0.6,0.4-0.8c0-0.2,0.8-1.4,1.7-1.8c0,0,0.2-0.1,0.2-0.2
													c0.1-0.1,0.7-1,1-1c0.3,0,0.3,0.1,0.3,0.2c0,0.1-0.2,0.4-0.3,0.4c0,0.1-0.2,0.2-0.2,0.2L14,1.4l0.2,0
													c0,0,0.2-0.5,0.4-0.5c0,0,0.3-0.4,0.3-0.4c0.1,0,0.3-0.6,0.8-0.4c0.4,0.1-0.2,0.6-0.2,0.6L15,1.3l-0.4,0.4l0,0.1
													l0.2-0.1c0,0,0.3-0.4,0.4-0.4c0,0,0.2-0.3,0.3-0.4c0,0,0.3-0.7,0.6-0.6C16.6,0.5,16.1,1,16.1,1L15.4,2L15.4,2z"/>
											</g>
										</g>
									</g>
									<g>
										<g>
											<path fill="#F5B54C" d="M14.8,2.6C14.8,2.6,14.8,2.6,14.8,2.6C14.8,2.6,14.8,2.6,14.8,2.6c-0.1,0.1-0.2,0.2-0.2,0.5
												c0,0-0.3,0-0.3,0.1l-0.2,0.1c0,0,0.1,0,0.2,0.1c0,0,0.1-0.2,0.2-0.1c0.1,0.1,0.1,0.1,0.1,0.1s0,0,0.1,0
												c0,0-0.1-0.2,0-0.2c0,0-0.1-0.3,0-0.5c0,0,0,0,0,0c0,0,0.2-0.2,0.3-0.1l0.1,0.1l0,0.3l0,0c0,0,0,0,0,0V2.7
												C15.2,2.7,15,2.5,14.8,2.6z"/>
										</g>
									</g>
								</g>
							</g>
							<g>
								<g>
									<g>
										<g>
											<g>
												<path fill="#FFD15C" d="M15.5,2c-0.3-0.3-0.7-1-1.1-0.8c-0.2,0.2,0.3,0.8,0.3,0.8s0.4,0.5,0.6,0.6
													C15.5,2.8,15.8,3,15.8,3l0,0.3c0,0.1-0.2,0.4,0,0.5s0.4,0.1,0.4,0.1s0.3,0.2,0.4,0.3c0.1,0.1,0.2,0.1,0.5,0
													c0.3-0.1,0.6-0.1,0.6-0.1s0.2,0,0.4,0.6c0.2,0.6,0.7,1.6,0.7,1.6s-0.1,2.7,0.9,4.6c0,0,0.1,0.2-0.1,0.6
													c-0.1,0.3-2,1.5-0.4,5.2l1.7,1.5c0,0,1.5-1.1,1.4-3c0-1.1-0.1-2.4-0.1-2.4s0-1.6,0-1.9c0.1-0.3,0-0.8-0.2-1.1
													c0,0-0.9-2.9-1.5-4.1c-0.7-1.2-0.9-1.8-0.9-1.8S19.3,3.3,19.3,3c0-0.2-0.8-1.4-1.7-1.8c0,0-0.2-0.1-0.2-0.2
													c-0.1-0.1-0.7-1-1-1c-0.3,0-0.3,0.1-0.3,0.2c0,0.1,0.2,0.4,0.3,0.4c0,0.1,0.2,0.2,0.2,0.2l0.4,0.6l-0.2,0
													c0,0-0.2-0.5-0.4-0.5c0,0-0.3-0.4-0.3-0.4c-0.1,0-0.3-0.6-0.8-0.4c-0.4,0.1,0.2,0.6,0.2,0.6l0.5,0.6l0.4,0.4l0,0.1
													l-0.2-0.1c0,0-0.3-0.4-0.4-0.4c0,0-0.2-0.3-0.3-0.4c0,0-0.3-0.7-0.6-0.6S14.8,1,14.8,1L15.5,2L15.5,2z"/>
											</g>
										</g>
									</g>
									<g>
										<g>
											<path fill="#F5B54C" d="M16.2,2.6C16.2,2.6,16.2,2.6,16.2,2.6C16.2,2.6,16.2,2.6,16.2,2.6c0.1,0.1,0.2,0.2,0.2,0.5
												c0,0,0.3,0,0.3,0.1l0.2,0.1c0,0-0.1,0-0.2,0.1c0,0-0.1-0.2-0.2-0.1c-0.1,0.1-0.1,0.1-0.1,0.1s0,0-0.1,0
												c0,0,0.1-0.2,0-0.2c0,0,0.1-0.3,0-0.5c0,0,0,0,0,0c0,0-0.2-0.2-0.3-0.1l-0.1,0.1l0,0.3l0,0c0,0,0,0,0,0V2.7
												C15.7,2.7,15.9,2.5,16.2,2.6z"/>
										</g>
									</g>
								</g>
							</g>
						</g>
						<g>
							<g>
								<g>
									<path fill="#FFD15C" d="M9.5,16.8L9,16.8c0,0-0.4,0.9,0.7,1C10.8,18,9.5,16.7,9.5,16.8"/>
								</g>
							</g>
						</g>
						<g>
							<g>
								<g>
									<path fill="#67C5B8" d="M21.5,17.6c0,0-0.6,0.5-0.6,1.1c-0.1,0.5-0.1,1,0,1.5c0.1,0.5-0.2,1.2-0.2,1.2s0,1.1-0.3,2
										c-0.3,0.9-0.4,1.5-0.4,1.5s-0.3,1.1-0.3,2c0,0.9-0.2,2.7-0.2,2.7s-0.5,0.8-0.8,0.8C18.4,30.5,18,31,18,31s-0.5,0.3-1.1,0.4
										c-0.6,0.1-1.2,0.2-1.2,0.2s-0.8,0.5-1.9,0.1c-1.1-0.4-2.4-0.9-3.1-0.7l-0.2-2.3c0,0-0.3-3.1-0.4-3.8c-0.2-0.7-0.3-2-0.3-2
										s-0.2-2.2-0.1-3.6c0,0-0.2-0.8-0.2-1L9,17.6c0,0-0.2-0.3,0-0.8c0,0-0.1,0.6,0.3,0.7c0.3,0.1,2.9-1.5,3-3c0,0,0.1,0.4,0,0.8
										l0.6,0.7l1.2,2.5l1.4,1.4l1.2-1.2l1-2l-0.1-0.3l0.4-0.5c0.2-0.2,0.3-0.4,0.4-0.7l0.3-0.6c0,0,0,0.4,0.4,1.1
										C19.4,16.4,20.5,18.2,21.5,17.6z"/>
								</g>
							</g>
						</g>
					</g>
					<g>
						<g>
							<g>
								<path fill="#FFFFFF" d="M18,16.1l0,0.4c0,0.7-0.6,1.6-1.1,2.3c-0.5,0.7-1.1,1.2-1.2,1.3c-0.2,0.2-0.4,0.2-0.6,0
									c-0.2-0.2-2.2-2.2-2.3-3.6l0-0.4c0.1,0.1,0.3,0.3,0.5,0.4c0.1,1.3,2.1,3.3,2.1,3.3s2.1-2,2.1-3.3l0.4-0.5c0,0,0,0,0-0.1
									L18,16.1z"/>
							</g>
						</g>
					</g>
				</g>
				<g>
					<g>
						<g>
							<g>
								<path fill="#FFD15C" d="M17.8,13.6l-0.2,1.3c0,0-0.1,3.1-2.2,3.1h0c-2.1,0-2.2-3.1-2.2-3.1l-0.2-1.3c-0.1-2,2.3-1.1,2.4-1.1
									c0,0,0,0,0,0C15.5,12.5,17.9,11.5,17.8,13.6z"/>
							</g>
						</g>
					</g>
				</g>
				<g>
					<g>
						<g>
							<g>
								<path fill="#FFD15C" d="M18.3,15.2c-0.2,0.5-0.5,0.9-0.7,0.8c-0.2-0.1-0.3-0.6-0.2-1.1c0.2-0.8,0.5-0.9,0.7-0.8
									C18.4,14.2,18.6,14.4,18.3,15.2z"/>
							</g>
						</g>
					</g>
					<g>
						<g>
							<g>
								<path fill="#FFD15C" d="M12.6,15.2c0.2,0.5,0.5,0.9,0.7,0.8c0.2-0.1,0.3-0.6,0.2-1.1c-0.2-0.8-0.5-0.9-0.7-0.8
									C12.5,14.2,12.3,14.4,12.6,15.2z"/>
							</g>
						</g>
					</g>
				</g>
				<g>
					<g>
						<g>
							<path fill="#425A6B" d="M13.4,15.2c0,0-0.1-1,0.1-1.2c0.2-0.1,0.4-0.6,0.4-0.7c0-0.2,0.3-0.5,0.9-0.3
								c0.6,0.3,1.6-0.1,1.6-0.1s0.8-0.3,0.9,0.1c0.1,0.4,0.1,0.7,0.3,0.8l0.1,1.1h0.1c0,0,0.5-1.2,0.3-1.9c-0.2-0.8-0.7-1.8-2-2.2
								c-1.3-0.4-2.5,0.8-2.5,0.8s-0.8,0.7-0.6,1.9c0.2,1.2,0.4,1.7,0.4,1.7H13.4z"/>
						</g>
					</g>
				</g>
				<g>
					<g>
						<g>
							<path fill="#FFD15C" d="M9.7,43.5l-0.4-1.9c0,0,0.3-2.2-0.9-3.5c0,0,0.6-0.1,1.2,0c0.6,0.1,3.2,0.6,4.9-0.6
								c0,0,0-2.8-2.9-4.6h-1.3c0,0-3.5,0.8-4.2,1.7c0,0-1.7,1.6-1,4c0.6,2.3,1.5,3.2,1.5,3.2s1.2,1.8,1.3,2.3L9.7,43.5z"/>
						</g>
					</g>
				</g>
				<g>
					<g>
						<g>
							<path fill="#E8EAE8" d="M7.6,43.5c0,0,0.3,0.2,1.1,0c0.8-0.2,1-0.3,0.9-0.7l0.4,1.3c0,0,0.3,0.4,0.3,0.8
								c0,0.4-0.4,0.5-0.4,0.5H8.9l-1.3-0.6l-0.1-0.6C7.5,44.1,7.7,43.8,7.6,43.5z"/>
						</g>
					</g>
				</g>
				<g>
					<g>
						<g>
							<path fill="#425A6B" d="M10.6,45c-0.2-0.6-0.6-0.9-0.6-0.9s0.1,0.3,0.1,0.7s-0.4,0.4-0.8,0.1c-0.4-0.3-0.7-0.2-0.7-0.2
								c0-0.1-0.2-0.6-0.4-0.8c-0.2-0.1-0.5,0-0.8,0.1c-0.2,0.1-0.3,0.2-0.3,0.4l0,0.7c0,1-0.9,1.4-0.9,1.4S5.9,46.6,5.6,47
								c-0.3,0.4,0.1,0.9,0.1,0.9l0.5,0l2.5-0.5l1.9-0.9l0.1-0.7C10.7,45.7,10.8,45.6,10.6,45z"/>
						</g>
					</g>
					<g>
						<g>
							<g>
								<path fill="#E8EAE8" d="M5.8,47.9c0,0,0.3,0,0.3-0.6L6.6,47c0,0,0,0.5,0.8,0.5c0.8,0,1.3-0.4,1.3-0.4s0.3-0.4,0.8-0.5
									c0,0,1.3-0.6,1.2-0.9c0,0,0.2,0.5,0.3,0.6c0.1,0.1,0.1,0.4,0,0.5c-0.2,0.1-0.7,0.4-1.1,0.5c-0.4,0.1-0.6,0.1-0.9,0.3
									C8.7,47.7,7.5,48.2,5.8,47.9z"/>
							</g>
						</g>
					</g>
					<g>
						<g>
							<g>
								<path fill="#344A5E" d="M9.4,44.9"/>
							</g>
						</g>
						<g>
							<g>
								<path fill="#344A5E" d="M8.7,44.7c0-0.1-0.2-0.6-0.4-0.8c-0.2-0.1-0.5,0-0.8,0.1c-0.2,0.1-0.3,0.2-0.3,0.4l0,0.7
									c0,1-0.9,1.4-0.9,1.4s-0.1,0-0.1,0.1c0.6,0.3,1,0.1,1.3-0.2c0.3-0.3,0.6-0.6,0.9-0.8c0.3-0.2,0.6-0.4,0.9-0.6
									C9,44.6,8.7,44.7,8.7,44.7z"/>
							</g>
						</g>
					</g>
				</g>
				<g>
					<g>
						<g>
							<path fill="#425A6B" d="M10,32.8c0,0,1.7-0.4,3.6,2.7c0,0,0.7,0.9,0.6,1.5c-0.1,0.6,0.2,0.8,0.2,0.8s0.2,0.8-0.2,1
								c0,0,0.5-0.2,0.7-0.6c0.2-0.4,1.2-1.4,1.2-1.4s0.5,0.7,1.1,0.8c0.6,0.2,2.1,1.5,2.1,1.5l2.1-3c0,0,1.7-2.9,2.7-2.7
								c0,0-0.6-0.5-1.1-0.4c0,0-0.3,0-0.3-0.2c0-0.3-0.5-0.4-0.5-0.4s-0.2,0-0.2-0.2c0-0.1-0.4-0.6-0.7-0.7
								c-0.3-0.1-0.2-0.2-0.2-0.2s-0.6-1-1.4-1.1c0,0,0.2,0.4-0.2,1c-0.5,0.6-2.5,1.4-2.5,1.4s-1.5,0.4-3-0.1c-1.5-0.5-2-1.3-2-1.3
								s-0.4,0.2-0.3,0.4s-0.1,0.1-0.1,0.1s-0.3,0.1-0.3,0.3c0,0.2-0.3,0.2-0.3,0.2S10.9,32.6,10,32.8z"/>
						</g>
					</g>
				</g>
			</g>
			<g>
				<g>
					<g>
						<path fill="#CED6E0" d="M39.9,46.5c0,0,0,0.8,1.1,0.6c1.1-0.2,1.4-0.6,1.4-0.6s0.7,0,0.7-0.3h-0.7l-1.7,0.5L39.9,46.5z"/>
					</g>
				</g>
			</g>
			<g>
				<g>
					<g>
						<path fill="#F3F3F3" d="M37.5,44.2c0,0,1.1-1.1,1.1-1.5l1.6,0.9l0.3,1.4l-0.8,0.8l-0.3-0.1C39.2,45.8,38,44.5,37.5,44.2z"/>
					</g>
				</g>
			</g>
			<g>
				<g>
					<g>
						<path fill="#F3F3F3" d="M39.8,46.2c0,0,0.2,0.8,0.7,0.7c0.5-0.1,0.7-0.3,0.7-0.3s0.5-0.3,0.8-0.3c0.3,0.1,1.5,0,0.9-0.4
							c-0.6-0.5-1.7-0.1-1.7-0.1L39.8,46.2z"/>
					</g>
				</g>
			</g>
			<g>
				<g>
					<g>
						<path fill="#425A6B" d="M39,44.9c0-0.2,0.1-0.3,0.4-0.3c0,0,0.4-0.1,0.2-0.3c-0.2-0.2-0.7-0.5-0.4-0.9c0.2-0.3,0.7-0.3,1-0.3
							c0.2,0,0.3,0.1,0.4,0.2c0.2,0.2,0.4,0.5,0.4,0.6c0,0,0.4,0.1,0.7,0.4c0.3,0.3,0.7,0.6,0.8,0.7c0.1,0,0.7,0.5,0.5,1
							c0,0-0.6,0.1-1,0.1c-0.4,0-1,0.3-1,0.3s-0.7,0.4-1.1-0.1c-0.2-0.2-0.4-0.4-0.6-0.6C39,45.5,38.9,45.2,39,44.9z"/>
					</g>
				</g>
			</g>
		</g>
	</g>
</g>
</svg>
