<?xml version="1.0" encoding="utf-8"?>
<!-- Generator: Adobe Illustrator 18.0.0, SVG Export Plug-In . SVG Version: 6.00 Build 0)  -->
<!DOCTYPE svg PUBLIC "-//W3C//DTD SVG 1.1//EN" "http://www.w3.org/Graphics/SVG/1.1/DTD/svg11.dtd">
<svg version="1.1" id="Layer_1" xmlns="http://www.w3.org/2000/svg" xmlns:xlink="http://www.w3.org/1999/xlink" x="0px" y="0px"
	 viewBox="0 0 48 48" enable-background="new 0 0 48 48" xml:space="preserve">
<g>
	<g>
		<g>
			<g>
				<circle fill="#FFD15C" cx="36.8" cy="11.2" r="11.2"/>
			</g>
			<g>
				<circle fill="#F7B64C" cx="36.8" cy="11.2" r="8.1"/>
			</g>
			<g>
				<path fill="#FFD15C" d="M36.3,16.5v-0.9c-1.1-0.2-2.1-0.7-3-1.5l1.2-1.4c0.7,0.6,1.3,0.9,1.8,1.1v-1.9c-0.9-0.2-1.6-0.5-2-0.9
					c-0.4-0.4-0.6-0.9-0.6-1.7c0-0.7,0.2-1.3,0.7-1.8c0.5-0.5,1.1-0.8,1.9-0.8V5.9h1.4v0.7c0.9,0.1,1.7,0.5,2.5,1.1l-1,1.5
					c-0.5-0.4-1-0.6-1.5-0.8v1.8c0.9,0.2,1.6,0.6,2,1c0.4,0.4,0.7,1,0.7,1.7s-0.2,1.3-0.7,1.8s-1.1,0.8-2,0.9v0.9H36.3z M36.3,8.3
					c-0.4,0.1-0.6,0.4-0.6,0.7c0,0.3,0.2,0.6,0.6,0.8V8.3z M38.3,13c0-0.2,0-0.3-0.1-0.4c-0.1-0.1-0.3-0.2-0.5-0.3v1.6
					C38.1,13.7,38.3,13.4,38.3,13z"/>
			</g>
		</g>
		<g>
			<path fill="#415A6B" d="M26,24.5l2-2L10.9,5.4c-1.3-1.3-3.4-1.3-4.7,0v0C5,6.7,5,8.8,6.3,10l14.5,14.5H26z"/>
			<path fill="#66C6B9" d="M42.7,48H5.3C3.5,48,2,46.6,2,44.8V26.6H46v18.2C46,46.6,44.5,48,42.7,48z"/>
			<path fill="#FFFFFF" d="M11.4,30.9L11.4,30.9c-1.3,0-2.4,1.1-2.4,2.4v8c0,1.3,1.1,2.4,2.4,2.4h0c1.3,0,2.4-1.1,2.4-2.4v-8
				C13.8,31.9,12.8,30.9,11.4,30.9z"/>
			<path fill="#FFFFFF" d="M24,30.9L24,30.9c-1.3,0-2.4,1.1-2.4,2.4v8c0,1.3,1.1,2.4,2.4,2.4h0c1.3,0,2.4-1.1,2.4-2.4v-8
				C26.4,31.9,25.3,30.9,24,30.9z"/>
			<path fill="#FFFFFF" d="M36.6,30.9L36.6,30.9c-1.3,0-2.4,1.1-2.4,2.4v8c0,1.3,1.1,2.4,2.4,2.4h0c1.3,0,2.4-1.1,2.4-2.4v-8
				C39,31.9,37.9,30.9,36.6,30.9z"/>
			<rect x="2" y="26.6" fill="#4EC0AA" width="43.9" height="2.5"/>
			<path fill="#E8EAE9" d="M46.5,19.6h-45c-0.8,0-1.5,0.7-1.5,1.5v3.9c0,0.8,0.7,1.5,1.5,1.5h45c0.8,0,1.5-0.7,1.5-1.5v-3.9
				C48,20.3,47.3,19.6,46.5,19.6z"/>
			<g>
				<circle fill="#415A6B" cx="24" cy="23.1" r="1.6"/>
			</g>
		</g>
	</g>
</g>
</svg>
