<?xml version="1.0" encoding="utf-8"?>
<!-- Generator: Adobe Illustrator 19.0.1, SVG Export Plug-In . SVG Version: 6.00 Build 0)  -->
<svg version="1.1" id="Layer_1" xmlns="http://www.w3.org/2000/svg" xmlns:xlink="http://www.w3.org/1999/xlink" x="0px" y="0px"
	 viewBox="0 0 48 48" style="enable-background:new 0 0 48 48;" xml:space="preserve">
<style type="text/css">
	.st0{fill:#415A6B;}
	.st1{fill:#ADB3BA;}
	.st2{fill:#E8EAE9;}
	.st3{fill:#55C0EB;}
	.st4{fill:#F3705A;}
	.st5{fill:#FFFFFF;}
	.st6{fill:#FFD15C;}
	.st7{fill:#344A5E;}
	.st8{fill:#CED6E0;}
	.st9{fill:#F05540;}
	.st10{fill:#F7B64C;}
	.st11{fill:#F3F3F3;}
	.st12{fill:#66C6B9;}
	.st13{fill:#4ABAA5;}
	.st14{fill:#8AD7F8;}
	.st15{fill:none;}
	.st16{fill:#E53D35;}
</style>
<g>
	<g>
		<g>
			<g>
				<path class="st4" d="M3.5,48h11.6c-0.6-1.5-1.2-3.2-1.7-4.3c-0.9-2-2.8-5.9-2.8-5.9s2.5-4.8,0.7-7.4S3,26.5,1,27.8
					c-1.9,1.3-0.6,10,0,12.4C1.4,41.6,2.5,44.9,3.5,48z"/>
			</g>
			<g>
				<path class="st12" d="M36.2,48l-0.4-1.2c0,0-0.4-4.7-1.3-7.1c-0.2-0.6-0.5-1.2-0.7-1.9c-0.4-1.1-1-2.9-1.7-4.3
					c-1.2-2.3-3-3.9-3-3.9l-2,18.4H36.2z"/>
			</g>
			<path class="st9" d="M10.7,37.8L10.4,48h21.3c0.1-3.6,0.2-7.8,0.1-9.1c-0.2-2.5-2.7-9.3-2.7-9.3l-3.3-3.1l1.5,9.7l-2.7,8.7
				l-12-19.6L10,23.4l-9,4.4C8.7,26.3,10.7,37.8,10.7,37.8z"/>
			<g>
				<ellipse class="st0" cx="22.3" cy="16.5" rx="4.3" ry="9.7"/>
			</g>
			<g>
				<ellipse class="st0" cx="12.8" cy="16.4" rx="2.5" ry="6.6"/>
			</g>
			<g>
				<path class="st6" d="M20.6,19.8c0,0-0.5,3,0,3.8c0.5,0.7,0.5,0.7,0.5,0.7l3.6,6.9l-0.2,10.2h-1.3L12,24.8l-0.4-3
					c0,0,1.5-2.3,1.5-3.8c0,0-1.7-3.1-1.5-7.3s0.3-5.8,2-7.1s4.7-2.9,6.4-2.3s3,2.2,3.9,3.5S26.5,17,20.6,19.8z"/>
			</g>
			<g>
				<path class="st4" d="M20.6,23.6c0,0,2.2,10.4,2.5,12.5c0.3,2.1,0.7,5,0.7,5l1.8,5.4c0,0,2.3-7.3,2.1-10.8c-0.2-3.5-2-9-2-9
					l-2.3-3.5L20.6,23.6z"/>
			</g>
			<g>
				<path class="st4" d="M11.3,31c0,0,9,7.5,10.7,9.9c1.3,1.9,3.2,5.1,4.1,7.1h0.3c-0.4-2-1.6-5.8-4.1-9.8
					c-3.6-5.8-10.6-16.5-10.6-16.5L10,28l3.9,2.2L11.3,31z"/>
			</g>
			<g>
				<path class="st0" d="M18.3,1.7c0,0,2.9,2,4,3.2s2.2,3.5,2.5,4.5s0.1,9.1-0.3,10.9c-0.4,1.8,0.4,11.8-0.9,14.5c0,0,1.4,0,2.4-1.2
					s3-4.2,1.8-7.3c-1.2-3.1-0.1-8.2-0.2-11c-0.1-2.8-0.7-8.9-3.7-12.4s-6.4-3-8.2-2.1s-4.5,4-5.6,7s-2.1,13-1.5,15.5
					s3.2,7.4,3.7,9.8c0,0,3.2-3.2,2.3-5.8c-0.8-2.6-2.6-9.2-3-12.8c-0.2-2.1,0.6-5.4,1.3-7.6c0.6-2,2.1-3.7,4-4.6
					C17.4,1.9,17.9,1.7,18.3,1.7z"/>
			</g>
			<g>
				<path class="st0" d="M25.4,17.5c-1.2,0.9-3.9,1.1-4.9,2.3c-1,1.2,0.5,7.9,1,9.5c0.7,2,1,4.2,0.1,6.2c0.7-0.4,1.3-1.1,1.7-1.8
					c0.4-0.7,0.6-1.6,0.8-2.4c0.8-3.2,1.1-6.5,0.9-9.7"/>
			</g>
			<g>
				<path class="st0" d="M13.1,17.9c1.6,3.2,2.4,6.7,2.3,10.2c0,1.2-0.2,2.5-0.8,3.5c-0.4,0.7-1,1.4-1.5,2.1
					c-0.5,0.7-0.8,1.5-0.6,2.4c-0.4-0.8-0.3-1.8,0.1-2.6c0.4-0.8,1-1.5,1.4-2.3c0.6-1.2,0.8-2.7,0.5-4c-0.4-1.6-1.4-3-2.2-4.4
					c-0.9-1.4-1.7-3-1.5-4.6"/>
			</g>
			<g>
				<path class="st4" d="M3.5,48h11.6c-0.6-1.5-1.2-3.2-1.7-4.3c-0.9-2-2.8-5.9-2.8-5.9H0.5c0.2,1,0.3,1.9,0.5,2.4
					C1.4,41.6,2.5,44.9,3.5,48z"/>
			</g>
		</g>
		<g>
			<g>
				<g>
					<circle class="st12" cx="35.4" cy="35.4" r="12.6"/>
				</g>
			</g>
			<g>
				<g>
					<circle class="st11" cx="35.4" cy="35.4" r="9.7"/>
				</g>
			</g>
			<g>
				<g>
					<circle class="st8" cx="41.3" cy="29.6" r="0.6"/>
				</g>
			</g>
			<g>
				<g>
					<circle class="st8" cx="43.7" cy="35.4" r="0.6"/>
				</g>
			</g>
			<g>
				<g>
					<circle class="st8" cx="41.3" cy="41.3" r="0.6"/>
				</g>
			</g>
			<g>
				<g>
					<circle class="st8" cx="35.4" cy="43.7" r="0.6"/>
				</g>
			</g>
			<g>
				<g>
					<circle class="st8" cx="29.6" cy="41.3" r="0.6"/>
				</g>
			</g>
			<g>
				<g>
					<circle class="st8" cx="27.2" cy="35.4" r="0.6"/>
				</g>
			</g>
			<g>
				<g>
					<circle class="st8" cx="29.6" cy="29.6" r="0.6"/>
				</g>
			</g>
			<g>
				<g>
					<circle class="st8" cx="35.4" cy="27.2" r="0.6"/>
				</g>
			</g>
			<g>
				<g>
					<path class="st0" d="M31.6,38.3c0-0.2,0.1-0.5,0.3-0.6l2.9-2.9c0.3-0.3,0.9-0.3,1.2,0c0.3,0.3,0.3,0.9,0,1.2l-2.9,2.9
						c-0.3,0.3-0.9,0.3-1.2,0C31.7,38.7,31.6,38.5,31.6,38.3z"/>
				</g>
			</g>
			<g>
				<g>
					<path class="st9" d="M35.4,36.3c-0.5,0-0.9-0.4-0.9-0.9v-5.8c0-0.5,0.4-0.9,0.9-0.9s0.9,0.4,0.9,0.9v5.8
						C36.3,35.9,35.9,36.3,35.4,36.3z"/>
				</g>
			</g>
			<g>
				<g>
					<circle class="st6" cx="35.4" cy="35.4" r="1.9"/>
				</g>
			</g>
		</g>
	</g>
</g>
</svg>
