<?xml version="1.0" encoding="utf-8"?>
<!-- Generator: Adobe Illustrator 18.0.0, SVG Export Plug-In . SVG Version: 6.00 Build 0)  -->
<!DOCTYPE svg PUBLIC "-//W3C//DTD SVG 1.1//EN" "http://www.w3.org/Graphics/SVG/1.1/DTD/svg11.dtd">
<svg version="1.1" id="Layer_1" xmlns="http://www.w3.org/2000/svg" xmlns:xlink="http://www.w3.org/1999/xlink" x="0px" y="0px"
	 viewBox="0 0 48 48" enable-background="new 0 0 48 48" xml:space="preserve">
<g>
	<polygon fill="#CDD6E0" points="48,14.5 48,48 32,48 32,6.9 33.7,7.7 	"/>
	<path fill="#F2F2F2" d="M0,48h32V2c0-1.1-0.9-2-2-2H2C0.9,0,0,0.9,0,2V48z"/>
	<g>
		<rect x="10.3" y="36.5" fill="#40596B" width="5.7" height="11.5"/>
		<rect x="16" y="36.5" fill="#334A5E" width="5.7" height="11.5"/>
	</g>
	<g>
		<rect x="7.2" y="15.2" fill="#54C0EB" width="6.8" height="6.8"/>
		<rect x="7.2" y="26" fill="#54C0EB" width="6.8" height="6.8"/>
		<rect x="18.1" y="15.2" fill="#54C0EB" width="6.8" height="6.8"/>
		<rect x="18.1" y="26" fill="#54C0EB" width="6.8" height="6.8"/>
	</g>
	<g>
		<g>
			<rect x="34.3" y="18.1" fill="#54C0EB" width="3.7" height="3.6"/>
			<rect x="42" y="18.1" fill="#54C0EB" width="3.7" height="3.6"/>
		</g>
		<g>
			<rect x="34.3" y="25.7" fill="#54C0EB" width="3.7" height="3.6"/>
			<rect x="42" y="25.7" fill="#54C0EB" width="3.7" height="3.6"/>
		</g>
		<g>
			<rect x="34.3" y="33.2" fill="#54C0EB" width="3.7" height="3.6"/>
			<rect x="42" y="33.2" fill="#54C0EB" width="3.7" height="3.6"/>
		</g>
		<g>
			<rect x="34.3" y="40.7" fill="#54C0EB" width="3.7" height="3.6"/>
			<rect x="42" y="40.7" fill="#54C0EB" width="3.7" height="3.6"/>
		</g>
	</g>
	<polygon fill="#C0CFDD" points="33.7,7.7 33.7,48 32,48 32,6.9 	"/>
	<polygon fill="#FF7058" points="20.9,6 17.1,6 17.1,2.1 14.9,2.1 14.9,6 11.1,6 11.1,8.1 14.9,8.1 14.9,12 17.1,12 17.1,8.1 
		20.9,8.1 	"/>
</g>
</svg>
