<?xml version="1.0" encoding="utf-8"?>
<!-- Generator: Adobe Illustrator 18.0.0, SVG Export Plug-In . SVG Version: 6.00 Build 0)  -->
<!DOCTYPE svg PUBLIC "-//W3C//DTD SVG 1.1//EN" "http://www.w3.org/Graphics/SVG/1.1/DTD/svg11.dtd">
<svg version="1.1" id="Layer_1" xmlns="http://www.w3.org/2000/svg" xmlns:xlink="http://www.w3.org/1999/xlink" x="0px" y="0px"
	 viewBox="0 0 48 48" enable-background="new 0 0 48 48" xml:space="preserve">
<g>
	<g>
		<g>
			<g>
				<g>
					<g>
						<polygon fill="#E8EAE9" points="11.3,14.4 23.6,3.9 35.9,14.4 38.2,14.4 23.6,1.9 9,14.4 						"/>
					</g>
				</g>
				<g>
					<g>
						<circle fill="#415A6B" cx="23.6" cy="3.2" r="3.2"/>
					</g>
				</g>
				<g>
					<g>
						<circle fill="#344A5E" cx="23.6" cy="3.2" r="1.6"/>
					</g>
				</g>
			</g>
			<g>
				<g>
					<path fill="#F3705A" d="M43.8,22.4C43.8,38.7,23.6,48,23.6,48S3.4,38.7,3.4,22.4c0-6.2,5-11.3,11.2-11.3c3.7,0,6.9,1.8,9,4.5
						c2-2.7,5.3-4.5,9-4.5C38.8,11.2,43.8,16.2,43.8,22.4z"/>
				</g>
				<g>
					<g>
						<path fill="#FFFFFF" d="M23.6,24.5c-3,0-5.3,2.4-5.3,5.3c0,2.9,2.4,5.3,5.3,5.3c2.9,0,5.3-2.4,5.3-5.3
							C28.9,26.9,26.6,24.5,23.6,24.5z M23.6,32c-1.2,0-2.2-1-2.2-2.2c0-1.2,1-2.2,2.2-2.2c1.2,0,2.2,1,2.2,2.2
							C25.8,31,24.8,32,23.6,32z"/>
						<path fill="#FFFFFF" d="M23.6,18.1c-6.4,0-11.7,5.2-11.7,11.7c0,6.4,5.2,11.7,11.7,11.7c6.4,0,11.7-5.2,11.7-11.7
							C35.3,23.4,30,18.1,23.6,18.1z M23.6,38.3c-4.7,0-8.5-3.8-8.5-8.5s3.8-8.5,8.5-8.5c4.7,0,8.5,3.8,8.5,8.5S28.3,38.3,23.6,38.3
							z"/>
					</g>
					<path fill="#FFFFFF" d="M23.6,24.5c-3,0-5.3,2.4-5.3,5.3c0,2.9,2.4,5.3,5.3,5.3c2.9,0,5.3-2.4,5.3-5.3
						C28.9,26.9,26.6,24.5,23.6,24.5z M23.6,32c-1.2,0-2.2-1-2.2-2.2c0-1.2,1-2.2,2.2-2.2c1.2,0,2.2,1,2.2,2.2
						C25.8,31,24.8,32,23.6,32z"/>
					<path fill="#FFFFFF" d="M23.6,24.5c-3,0-5.3,2.4-5.3,5.3c0,2.9,2.4,5.3,5.3,5.3c2.9,0,5.3-2.4,5.3-5.3
						C28.9,26.9,26.6,24.5,23.6,24.5z M23.6,32c-1.2,0-2.2-1-2.2-2.2c0-1.2,1-2.2,2.2-2.2c1.2,0,2.2,1,2.2,2.2
						C25.8,31,24.8,32,23.6,32z"/>
				</g>
			</g>
		</g>
		<g>
			<path fill="#415A6B" d="M42.6,10.8c-0.4-0.4-1-0.4-1.4,0L22.9,29.1c-0.4,0.4-0.4,1,0,1.4c0.4,0.4,1,0.4,1.4,0l18.3-18.3
				C43,11.8,43,11.2,42.6,10.8z"/>
			<g>
				<polygon fill="#FFD15C" points="35,13.6 36.3,17.1 39.8,18.4 44.6,13.6 41.1,12.3 39.8,8.8 				"/>
			</g>
		</g>
	</g>
</g>
</svg>
