<?xml version="1.0" encoding="utf-8"?>
<!-- Generator: Adobe Illustrator 18.0.0, SVG Export Plug-In . SVG Version: 6.00 Build 0)  -->
<!DOCTYPE svg PUBLIC "-//W3C//DTD SVG 1.1//EN" "http://www.w3.org/Graphics/SVG/1.1/DTD/svg11.dtd">
<svg version="1.1" id="Layer_1" xmlns="http://www.w3.org/2000/svg" xmlns:xlink="http://www.w3.org/1999/xlink" x="0px" y="0px"
	 viewBox="0 0 48 48" enable-background="new 0 0 48 48" xml:space="preserve">
<g>
	<g>
		<rect x="17.4" y="24.5" fill="#F8B64C" width="13.2" height="11.7"/>
		<polygon opacity="0.1" fill="#40596B" points="30.6,24.5 30.6,28.7 25.7,32.6 20.4,28.4 23.4,24.5 		"/>
		
			<ellipse transform="matrix(0.9962 -8.713952e-002 8.713952e-002 0.9962 -1.2918 1.3003)" fill="#F8B64C" cx="14.2" cy="15.4" rx="2.2" ry="3.3"/>
		
			<ellipse transform="matrix(0.9962 8.713952e-002 -8.713952e-002 0.9962 1.4744 -2.8825)" fill="#F8B64C" cx="33.8" cy="15.4" rx="2.2" ry="3.3"/>
		<path fill="#FFD15C" d="M34.4,10.6V14c0,0.7,0,1.4-0.1,2.1c-0.2,1.2-0.4,2.3-0.8,3.5c-0.8,2.7-2.3,5.2-4.2,7.3l-1,1.1
			c-0.9,1-2.2,1.5-3.5,1.5h-1.5c-1.3,0-2.6-0.6-3.5-1.5l-1-1.1c-1.4-1.5-2.5-3.2-3.3-5c-0.8-1.8-1.4-3.8-1.6-5.8
			c-0.1-0.7-0.1-1.4-0.1-2.1c0-0.1,0-0.1,0-0.2v-3.1c0-1,0.1-1.9,0.4-2.8c1.2-4.3,5.2-7.5,10-7.5c4.7,0,8.7,3.2,10,7.5
			C34.2,8.7,34.4,9.6,34.4,10.6z"/>
		<rect x="14.3" y="35" fill="#F2F2F2" width="19.5" height="13"/>
		<polygon fill="#FF7058" points="25.6,38.4 26.9,48 21.1,48 22.4,38.4 21,37 24,34 27,37 		"/>
		<path fill="#40596B" d="M47.9,48v-6.9c0-3.8-2.4-7.2-5.9-8.4l-11.4-4.1l0,0L28.7,48H47.9z"/>
		<path fill="#40596B" d="M19.3,48l-1.9-19.4L6,32.7c-3.6,1.3-5.9,4.7-5.9,8.4V48H19.3z"/>
		<path fill="#334A5E" d="M35.9,48l3.2-4.1c0-0.1,0-0.1,0-0.2l-5.4-5.3c-0.1-0.1-0.1-0.2,0-0.2l5.2-2.3c0.1,0,0.1-0.2,0-0.3
			l-8.4-6.9L28.7,48H35.9z"/>
		<path fill="#334A5E" d="M12.1,48h7.2l-1.9-19.3L9,35.6c-0.1,0.1-0.1,0.2,0,0.3l5.2,2.3c0.1,0,0.1,0.2,0,0.2l-5.4,5.3
			c-0.1,0-0.1,0.1,0,0.2L12.1,48z"/>
		<path fill="#40596B" d="M33.8,18.5c0.3-3.1-0.3-5.2-0.7-6.3c-0.3-0.6-0.3-1.3-0.2-2c0.4-3-1.2-2.6-1.2-2.6C28.3,9.3,24,9.2,24,9.2
			s-4.3,0-7.7-1.6c0,0-1.6-0.4-1.2,2.6c0.1,0.7,0,1.4-0.2,2c-0.4,1.1-1,3.1-0.7,6.3c0,0-6.6-19.2,9.7-18.4
			C40.3-0.7,33.8,18.5,33.8,18.5z"/>
		<polygon fill="#CDD6E0" points="24,34 30.6,28.6 29.6,39.7 		"/>
		<polygon fill="#CDD6E0" points="24,34 17.4,28.6 18.4,39.7 		"/>
	</g>
	<path fill="#FF7058" d="M29.4,13.6h-2.3c-1.1,0-2.1,0.7-2.5,1.8c-0.2,0-0.5-0.1-0.7-0.1c-0.2,0-0.4,0-0.6,0.1
		c-0.4-1-1.3-1.7-2.5-1.7h-2.3c-1.4,0-2.6,1.2-2.6,2.6c0,1.4,1.2,2.6,2.6,2.6h2.3c1.4,0,2.6-1.2,2.6-2.6v0c0-0.1,0-0.1,0-0.2
		c0.3,0,0.7,0,1,0c0,0.1,0,0.1,0,0.2c0,1.4,1.2,2.6,2.6,2.6h2.3c1.4,0,2.6-1.2,2.6-2.6v0C32,14.7,30.9,13.6,29.4,13.6z M20.9,18.1
		h-2.3c-1,0-1.9-0.8-1.9-1.9s0.8-1.9,1.9-1.9h2.3c1,0,1.9,0.8,1.9,1.9S21.9,18.1,20.9,18.1z M29.4,18.1h-2.3c-1,0-1.9-0.8-1.9-1.9
		s0.8-1.9,1.9-1.9h2.3c1,0,1.9,0.8,1.9,1.9S30.5,18.1,29.4,18.1z"/>
</g>
</svg>
