<?xml version="1.0" encoding="utf-8"?>
<!-- Generator: Adobe Illustrator 18.0.0, SVG Export Plug-In . SVG Version: 6.00 Build 0)  -->
<!DOCTYPE svg PUBLIC "-//W3C//DTD SVG 1.1//EN" "http://www.w3.org/Graphics/SVG/1.1/DTD/svg11.dtd">
<svg version="1.1" id="Layer_1" xmlns="http://www.w3.org/2000/svg" xmlns:xlink="http://www.w3.org/1999/xlink" x="0px" y="0px"
	 viewBox="0 0 48 48" enable-background="new 0 0 48 48" xml:space="preserve">
<g>
	<g>
		<g>
			<polygon fill="#E8EAE9" points="16.9,43.4 3.8,29.8 25.4,9.2 38.4,22.7 			"/>
		</g>
		<polygon fill="#FFD15C" points="12.9,25.3 8.1,29.9 17,39.1 31.4,25.3 		"/>
		<g>
			<polygon fill="#CED6E0" points="10.6,43.5 3.4,36.1 6.8,32.9 14,40.3 			"/>
		</g>
		<g>
			<path fill="#ADB3BA" d="M31.2,13.1l3.5,3.7l6.1-5.9l3.2,3.3c0.9,0.9,2.3,0.9,3.3,0.1c0.9-0.9,0.9-2.3,0.1-3.3L37.5,0.7
				c-0.9-0.9-2.3-0.9-3.3-0.1S33.3,3,34.2,3.9l3.2,3.3L31.2,13.1z"/>
		</g>
		<g>
			<g>
				<path fill="#CED6E0" d="M36.2,24.9l-13-13.5c-1.2-1.2-1.2-3.2,0.1-4.4c1.2-1.2,3.2-1.2,4.4,0.1l13,13.5c1.2,1.2,1.2,3.2-0.1,4.4
					C39.3,26.1,37.4,26.1,36.2,24.9z"/>
			</g>
		</g>
		<g>
			<g>
				<polygon fill="#E8EAE9" points="6,38.8 0,44.6 0.6,48 8,40.9 				"/>
			</g>
		</g>
	</g>
</g>
</svg>
