<?xml version="1.0" encoding="utf-8"?>
<!-- Generator: Adobe Illustrator 16.0.0, SVG Export Plug-In . SVG Version: 6.00 Build 0)  -->
<!DOCTYPE svg PUBLIC "-//W3C//DTD SVG 1.1//EN" "http://www.w3.org/Graphics/SVG/1.1/DTD/svg11.dtd">
<svg version="1.1" id="Layer_1" xmlns="http://www.w3.org/2000/svg" xmlns:xlink="http://www.w3.org/1999/xlink" x="0px" y="0px"
	 width="48px" height="48px" viewBox="0 0 48 48" enable-background="new 0 0 48 48" xml:space="preserve">
<g>
	<polygon fill="#F2F2F2" points="34.041,31.755 30.068,36.812 14.197,24.404 18.168,19.347 	"/>
	<path fill="#E7E9E8" d="M24.279,21.435l-6.404,8.157c-0.805,1.024-2.287,1.204-3.314,0.402l-7.539-5.895
		c-1.025-0.802-1.205-2.281-0.402-3.305l6.406-8.157c0.803-1.024,2.287-1.204,3.313-0.402l7.539,5.895
		C24.902,18.932,25.084,20.411,24.279,21.435"/>
	<polygon fill="#CDD5DF" points="25.873,13.901 19.975,9.289 17.158,12.877 23.057,17.488 	"/>
	<polygon fill="#CDD5DF" points="0,38.836 1.9,40.322 13.74,29.353 7.842,24.741 	"/>
	<path fill="#E7E9E8" d="M22.549,0.509l-4.703,5.988c-0.453,0.577-0.352,1.412,0.227,1.864l9.16,7.16
		c0.578,0.453,1.414,0.351,1.869-0.226l4.701-5.988c0.453-0.577,0.352-1.412-0.229-1.864l-9.158-7.16
		C23.838-0.17,23-0.068,22.549,0.509"/>
	<path fill="#F2705B" d="M47.143,44.593c1.686-2.146,0.785-5.397-1.82-6.211c-0.035-0.011-0.07-0.021-0.105-0.032l-0.002-0.001
		c-1.779-0.527-3.295-1.706-4.24-3.302l-0.178-0.301c-0.879-1.482-2.322-2.49-3.965-3.016c-1.82-0.583-3.41-1.719-4.387-3.359
		l-0.027-0.046c-0.785-1.322-1.963-2.356-3.359-2.97c-0.473-0.209-1.029-0.076-1.35,0.33l-5.064,6.449
		c-0.318,0.407-0.314,0.979,0.002,1.388c0.934,1.206,2.223,2.1,3.697,2.546l0.086,0.026c1.799,0.543,3.277,1.778,4.25,3.384
		c0.949,1.567,2.447,2.728,4.205,3.257l0.039,0.011c1.822,0.549,3.309,1.81,4.299,3.432c0.02,0.03,0.037,0.06,0.057,0.089
		c1.428,2.265,4.75,2.292,6.402,0.187L47.143,44.593z"/>
</g>
</svg>
