<?xml version="1.0" encoding="utf-8"?>
<!-- Generator: Adobe Illustrator 18.0.0, SVG Export Plug-In . SVG Version: 6.00 Build 0)  -->
<!DOCTYPE svg PUBLIC "-//W3C//DTD SVG 1.1//EN" "http://www.w3.org/Graphics/SVG/1.1/DTD/svg11.dtd">
<svg version="1.1" id="Layer_1" xmlns="http://www.w3.org/2000/svg" xmlns:xlink="http://www.w3.org/1999/xlink" x="0px" y="0px"
	 viewBox="0 0 48 48" enable-background="new 0 0 48 48" xml:space="preserve">
<g>
	<path fill="#F2F2F2" d="M45.6,45V10.6H2.4V45c0,1.7,1.3,3,3,3h37.2C44.3,48,45.6,46.7,45.6,45z"/>
	<path fill="#FF7058" d="M45.6,10.6V3c0-1.7-1.3-3-3-3H5.4c-1.7,0-3,1.3-3,3v7.6H45.6z"/>
	<circle fill="#40596B" cx="24" cy="29.3" r="13.9"/>
	<circle fill="#84DBFF" cx="24" cy="29.3" r="10.1"/>
	<path fill="#54C0EB" d="M14.8,25.2c-0.6,1.3-0.9,2.7-0.9,4.1c0,5.6,4.5,10.1,10.1,10.1c5.6,0,10.1-4.5,10.1-10.1
		c0-1.5-0.3-2.9-0.9-4.1C26.2,21.3,18,30.5,14.8,25.2z"/>
	<circle fill="#FFFFFF" cx="40" cy="5.3" r="2.3"/>
	<circle fill="#FFD15C" cx="33.2" cy="5.3" r="2.3"/>
	<g>
		<path fill="#FFFFFF" d="M8.7,3.7H6.5C6.1,3.7,5.7,4,5.7,4.5v1.6C5.7,6.6,6.1,7,6.5,7h2.1c0.5,0,0.8-0.4,0.8-0.8V4.5
			C9.5,4,9.1,3.7,8.7,3.7z"/>
		<path fill="#FFFFFF" d="M14.8,3.7h-2.1c-0.5,0-0.8,0.4-0.8,0.8v1.6c0,0.5,0.4,0.8,0.8,0.8h2.1c0.5,0,0.8-0.4,0.8-0.8V4.5
			C15.6,4,15.3,3.7,14.8,3.7z"/>
		<path fill="#FFFFFF" d="M21,3.7h-2.1C18.4,3.7,18,4,18,4.5v1.6C18,6.6,18.4,7,18.8,7H21c0.5,0,0.8-0.4,0.8-0.8V4.5
			C21.8,4,21.4,3.7,21,3.7z"/>
	</g>
</g>
</svg>
