<?xml version="1.0" encoding="utf-8"?>
<!-- Generator: Adobe Illustrator 18.0.0, SVG Export Plug-In . SVG Version: 6.00 Build 0)  -->
<!DOCTYPE svg PUBLIC "-//W3C//DTD SVG 1.1//EN" "http://www.w3.org/Graphics/SVG/1.1/DTD/svg11.dtd">
<svg version="1.1" id="Layer_1" xmlns="http://www.w3.org/2000/svg" xmlns:xlink="http://www.w3.org/1999/xlink" x="0px" y="0px"
	 viewBox="0 0 48 48" enable-background="new 0 0 48 48" xml:space="preserve">
<g>
	<path fill="#F2F2F2" d="M35.4,14.3L35.4,14.3c-1.3-2.1-3.3-3.7-5.5-4.7V7.4H18.1v2.2c-2.3,0.9-4.2,2.5-5.5,4.7v0
		c-1.2,1.9-1.8,4.1-1.8,6.3v25.3c0,1.2,0.9,2.1,2.1,2.1h22.2c1.2,0,2.1-0.9,2.1-2.1V20.6C37.2,18.4,36.6,16.2,35.4,14.3z"/>
	<rect x="14.8" y="21.7" fill="#8AD7F8" width="18.4" height="22.3"/>
	<path fill="#415A6B" d="M30.8,0H17.2c-0.6,0-1,0.4-1,1v5.4c0,0.6,0.4,1,1,1h13.5c0.6,0,1-0.4,1-1V1C31.8,0.4,31.3,0,30.8,0z"/>
	<g>
		<rect x="17.9" y="1.2" fill="#344A5E" width="1.1" height="5.1"/>
	</g>
	<g>
		<rect x="20.7" y="1.2" fill="#344A5E" width="1.1" height="5.1"/>
	</g>
	<g>
		<rect x="23.4" y="1.2" fill="#344A5E" width="1.1" height="5.1"/>
	</g>
	<g>
		<rect x="26.2" y="1.2" fill="#344A5E" width="1.1" height="5.1"/>
	</g>
	<g>
		<rect x="29" y="1.2" fill="#344A5E" width="1.1" height="5.1"/>
	</g>
	<g>
		<g>
			<path fill="#FFFFFF" d="M24,24.2c-2.6,0-4.7,2.1-4.7,4.7c0,1.1,0.4,2.1,1,2.9v1.9h1.1v-1.2h1.1v1.2h1.1v-1.2h1.1v1.2h1.1v-1.2
				h1.1v1.2h1.1v-1.9c0.6-0.8,1-1.8,1-2.9C28.7,26.3,26.6,24.2,24,24.2z M22.2,28.8c-0.6,0-1-0.6-1-1.3c0-0.7,0.5-1.3,1-1.3
				c0.6,0,1,0.6,1,1.3C23.2,28.2,22.8,28.8,22.2,28.8z M22.6,31.3l1.4-2.5l1.4,2.5H22.6z M25.8,28.8c-0.6,0-1-0.6-1-1.3
				c0-0.7,0.5-1.3,1-1.3c0.6,0,1,0.6,1,1.3C26.8,28.2,26.4,28.8,25.8,28.8z"/>
		</g>
		<g>
			<path fill="#FFFFFF" d="M19.4,34.7c0.3-0.5,0.9-0.7,1.3-0.4c0.5,0.2,0.7,0.8,0.5,1.3l6.3,3.2c0.3-0.4,0.8-0.6,1.3-0.4
				c0.5,0.3,0.7,0.9,0.4,1.3c-0.1,0.2-0.3,0.4-0.6,0.5c0.1,0.2,0.1,0.5-0.1,0.7c-0.3,0.5-0.9,0.7-1.3,0.4c-0.5-0.2-0.7-0.8-0.5-1.3
				l-6.3-3.2c-0.3,0.4-0.8,0.6-1.3,0.4c-0.5-0.3-0.7-0.9-0.4-1.3c0.1-0.2,0.3-0.4,0.6-0.5C19.3,35.2,19.3,35,19.4,34.7z"/>
			<path fill="#FFFFFF" d="M28.6,34.7c-0.3-0.5-0.9-0.7-1.3-0.4c-0.5,0.2-0.7,0.8-0.5,1.3l-6.3,3.2c-0.3-0.4-0.8-0.6-1.3-0.4
				c-0.5,0.3-0.7,0.9-0.4,1.3c0.1,0.2,0.3,0.4,0.6,0.5c-0.1,0.2-0.1,0.5,0.1,0.7c0.3,0.5,0.9,0.7,1.3,0.4c0.5-0.2,0.7-0.8,0.5-1.3
				l6.3-3.2c0.3,0.4,0.8,0.6,1.3,0.4c0.5-0.3,0.7-0.9,0.4-1.3c-0.1-0.2-0.3-0.4-0.6-0.5C28.7,35.2,28.7,35,28.6,34.7z"/>
		</g>
	</g>
</g>
</svg>
