<?xml version="1.0" encoding="utf-8"?>
<!-- Generator: Adobe Illustrator 18.0.0, SVG Export Plug-In . SVG Version: 6.00 Build 0)  -->
<!DOCTYPE svg PUBLIC "-//W3C//DTD SVG 1.1//EN" "http://www.w3.org/Graphics/SVG/1.1/DTD/svg11.dtd">
<svg version="1.1" id="Layer_1" xmlns="http://www.w3.org/2000/svg" xmlns:xlink="http://www.w3.org/1999/xlink" x="0px" y="0px"
	 viewBox="0 0 48 48" enable-background="new 0 0 48 48" xml:space="preserve">
<g>
	<g>
		<g>
			<g>
				<path fill="#435B6C" d="M10.8,11.7C10,11.6,9.1,12,8.9,12.5L0.2,32.6c-0.6,1.5,0,2.9,1.4,3.1L15.8,38l3.3-25.6L10.8,11.7z"/>
				<path fill="#435B6C" d="M47.7,35.6l-9.4-22c-0.3-0.6-1.2-1.1-2.1-1.2l-8.7-0.7l3,24.2L46,38.2C47.7,38.5,48.4,37.3,47.7,35.6z"
					/>
			</g>
			<polygon fill="#354B5E" points="27.6,11.7 19.1,12.4 15.8,38 30.6,35.9 			"/>
			<g>
				<g>
					<g>
						<polygon fill="#F3F3F3" points="16.2,35 2.7,33 10.5,12.7 19,13.4 						"/>
					</g>
					<g>
						<polygon fill="#E8EAE9" points="30.3,33.2 16.2,35 19,13.4 27.7,12.7 						"/>
					</g>
				</g>
				<g>
					<polygon fill="#F3F3F3" points="44.9,35.2 30.3,33.2 27.7,12.7 36.6,13.5 					"/>
				</g>
			</g>
			<path fill="#E8EAE9" d="M18.2,13.6c0.3,0,0.5-0.1,0.8-0.1l0,0l-1,0.1c0,0,0.1,0,0.1,0C18.1,13.5,18.1,13.6,18.2,13.6z"/>
			<path fill="#8BD7F8" d="M18.2,13.5c0,0-0.1-0.1-0.1-0.1c0,0-0.1,0-0.1,0l-1.8-0.2c-0.2,0-0.3,0-0.5,0c0,0,0,0-0.1,0
				c-0.2-0.1-0.4,0-0.6,0.1c0.1,0,0.1,0.1,0.2,0.2l-0.6-0.1c0-0.2-0.3-0.2-0.6-0.1c0.1,0,0.2,0.1,0.4,0.1c0.1,0,0.2,0.1,0.2,0.1
				c-0.1,0.1,0.1,0.2,0.2,0.2c-0.2,0.1-0.4,0.1-0.5,0.2c-0.1,0-0.1,0.1-0.1,0.1c0.1,0,0.1,0,0.2,0.1c0,0,0.1,0,0.2,0
				c-0.3,0.1-0.4,0-0.6,0c0.2-0.1,0.4-0.3,0.7-0.3c-0.2,0-0.4,0-0.5,0c-0.2,0-0.4,0.1-0.5,0.2c-0.1,0-0.3,0-0.4,0.1
				c-0.3,0.1-0.5,0-0.7,0c0.1,0,0.2,0,0.3,0c0.1,0,0.2,0,0.3-0.1c0.1-0.1,0.2-0.2,0.3-0.3c-0.1-0.1-0.3,0-0.4,0
				c-0.2,0-0.4,0-0.6-0.1c-0.2-0.1-0.3-0.1-0.5-0.1c-0.2,0-0.5,0.1-0.7,0.1c0.2,0.2,0.1,0.1,0.4,0.1c0.1,0,0.2,0,0.2,0c0,0,0,0,0,0
				c-0.1,0-0.1,0-0.2,0c0.1,0.2,0.3,0.2,0.5,0.2c-0.1,0-0.1,0-0.2,0c-0.3-0.1-0.7-0.3-1.1-0.3c0,0,0,0,0,0c-0.2,0-0.3,0-0.5-0.1
				l-1.7,4.6c0.2-0.1,0.4-0.1,0.6,0c0.2,0,0.3,0.1,0.5,0c0,0,0.1,0,0.1,0c0.4,0,0.5,0.1,0.5,0.4c0,0,0,0.1,0,0.1
				c0,0.1,0,0.2,0.1,0.2c0.1,0,0.2-0.1,0.3-0.2c0.1-0.1,0.1-0.3,0.1-0.4c0-0.2,0.2-0.3,0.4-0.4c0.2,0,0.4-0.1,0.5-0.1
				c0.1-0.1,0.3-0.1,0.3-0.2c0.1-0.2,0.4-0.3,0.6-0.4c0.2-0.1,0.3-0.1,0.5-0.2c0.3-0.1,0.6-0.2,0.9-0.3c0,0,0.1,0,0.1,0
				c-0.1,0-0.2,0.1-0.3,0.1c0,0,0,0,0,0.1c0.4-0.1,0.8-0.1,1.1-0.2c0,0,0,0,0-0.1c-0.1,0-0.3,0-0.4,0c-0.2,0-0.2-0.1-0.1-0.2
				c0.1-0.1,0.1-0.2-0.1-0.2c-0.1,0-0.2,0-0.2,0c0.1,0,0.2-0.1,0.3-0.1c0.4,0,0.7,0,1.1,0c0,0,0,0,0,0c-0.1,0.1-0.3,0.2-0.4,0.2
				c0,0,0,0.1,0,0.1c0.2,0,0.3,0.1,0.4,0.1c0.1,0,0.3,0,0.4,0c0,0,0.1-0.2,0-0.2c-0.2-0.1-0.1-0.2,0-0.3c0.1-0.1,0.1-0.2-0.1-0.3
				c-0.1-0.1-0.2-0.1-0.1-0.2c0-0.1,0-0.2,0-0.3c-0.1,0-0.2,0-0.3,0c-0.1,0-0.1,0-0.2-0.1c0.1-0.1-0.1-0.2-0.1-0.3
				c0-0.1-0.5-0.1-0.6-0.1c-0.1,0.1-0.3,0.2-0.4,0.3c-0.1,0-0.1,0.1-0.1,0.1c0,0.1-0.1,0.2-0.3,0.2c-0.2,0-0.3,0.1-0.4,0.2
				c0,0.1-0.2,0.1-0.2,0.1c0-0.1,0-0.1,0.1-0.2c0.1-0.1,0.1-0.1-0.1-0.2c-0.2-0.1-0.5-0.2-0.7-0.3c0.1-0.1,0.1-0.2,0.2-0.3
				c0.4-0.1,0.9-0.2,1.4-0.3c0,0,0,0,0,0c-0.1,0-0.1,0.1-0.2,0.1c0.1,0,0.2,0.1,0.3,0.1c0.1,0,0.2,0,0.3,0c0.1,0,0.1,0,0.2-0.1
				c0,0-0.1-0.1-0.1-0.1c0,0-0.1,0-0.1,0c0.1,0,0.3,0,0.4-0.1c0.1,0,0.3-0.1,0.2-0.3c0.2,0,0.4,0.1,0.6,0.2c0.1,0.1,0.1,0.1-0.1,0.2
				c-0.1,0-0.2,0-0.3,0c-0.1,0-0.3,0.1-0.4,0.1c0,0,0,0,0,0.1c0.1,0,0.1,0,0.2,0c0.1,0,0.2,0.1,0.3,0.1c0.3,0.2,0.3,0.2,0.7,0.2
				c0.3-0.1,0.3-0.1,0.3-0.3c0.3,0.1,0.4,0.1,0.6-0.1c0,0-0.1,0-0.1-0.1c-0.2-0.1-0.3-0.1-0.2-0.3c0,0-0.1-0.1-0.1-0.1
				c-0.2-0.1-0.3-0.2-0.5-0.3c0.1,0,0.1,0,0.2-0.1c0,0,0,0,0,0c-0.2,0-0.3-0.1-0.5-0.1c0.5,0.1,1,0,1.5,0c-0.1,0.2,0,0.2,0.2,0.3
				c0.1,0,0.2,0,0.3,0c0.4,0,0.5,0.1,0.3,0.3c0,0,0,0,0,0c0.1,0,0.2,0.1,0.2,0.1c-0.1,0-0.3,0-0.4,0c0,0,0,0,0,0c0,0,0.1,0,0.1,0
				c0,0,0,0,0,0c-0.2,0.1-0.4,0.1-0.3,0.3c0,0.1,0.1,0.3,0.1,0.4c0,0,0,0,0.1,0c0.2,0,0.3,0.1,0.5,0.1c0.1,0,0.2-0.1,0.3-0.1
				c0.1,0,0.1-0.1,0.2-0.1c0.1,0,0.3-0.1,0.4-0.1l0.2-1.5C18.7,13.5,18.4,13.5,18.2,13.5z"/>
			<path fill="#8BD7F8" d="M16.1,24.2c-0.1-0.1-0.3-0.1-0.4-0.3c-0.2-0.3-0.5-0.4-0.8-0.4c-0.1,0-0.2,0-0.2,0
				c-0.2-0.3-0.4-0.3-0.8-0.3c-0.1-0.2-0.2-0.4-0.3-0.6c-0.1-0.2-0.2-0.4-0.4-0.5c-0.4-0.2-0.7-0.5-0.9-0.8
				c-0.1-0.1-0.2-0.2-0.3-0.2c-0.2,0-0.3,0-0.4-0.1c-0.2-0.1-0.5-0.1-0.7-0.2c0.1-0.2,0-0.3-0.2-0.2c-0.3,0.1-0.7,0.1-0.9,0.4
				c0,0,0,0-0.1,0C9.6,21,9.4,21,9.2,21c-0.1,0-0.3,0-0.3-0.1c0-0.1,0-0.2,0.1-0.3c0.2-0.3,0.2-0.4-0.2-0.5c-0.1,0-0.3-0.1-0.4-0.1
				c0.2-0.2,0.5-0.4,0.7-0.6c0.1-0.1,0.1-0.1-0.1-0.2c-0.2-0.1-0.5,0-0.7,0.2c-0.1,0.1-0.2,0.1-0.4,0.1L7.6,20
				c0.2,0.2,0.4,0.3,0.7,0.5c0.1,0,0.1,0.1,0.2,0.1c-0.2,0.1-0.3,0.2-0.1,0.3c0.1,0.1,0.2,0.2,0.3,0.3c0.2,0.2,0.3,0.2,0.5,0
				c0.2,0.4,0.1,0.8-0.4,1.1c-0.2,0.1-0.4,0.2-0.4,0.4c-0.2,0.4-0.3,0.9,0,1.3c0.1,0.1,0.1,0.2,0.1,0.3c0.1,0.5,0.3,1,0.7,1.4
				c0.2,0.2,0.3,0.4,0.3,0.7c-0.1,0.6-0.2,1.1-0.4,1.7c-0.1,0.5-0.3,1-0.5,1.6c0,0,0,0.1,0,0.1c0,0.2-0.1,0.5-0.1,0.8
				c0,0.1,0,0.2,0,0.4c0,0.2,0.1,0.2,0.4,0.1c-0.1,0.2-0.1,0.3-0.2,0.5c-0.2,0.4-0.2,0.9-0.1,1.3c0.2,0.6,0.6,1,1.1,1.3l1,0.1
				c0.1,0,0.1,0,0.2-0.1c-0.2-0.1-0.3-0.2-0.5-0.3c-0.5-0.4-0.6-0.8-0.2-1.5c0-0.1,0-0.2-0.1-0.3c-0.3-0.2-0.3-0.3,0-0.5
				c0.2-0.2,0.2-0.4,0.2-0.6c0-0.1-0.1-0.1-0.1-0.2c0.2-0.1,0.5-0.1,0.6-0.3c0.1-0.1,0.2-0.2,0.3-0.2c0.1,0,0.3-0.1,0.4-0.1
				c0.2-0.1,0.3-0.3,0.1-0.4c-0.1-0.1-0.1-0.1-0.2-0.2l0-0.1c0.6,0.3,0.9-0.1,1.3-0.4c0,0,0.1-0.1,0.1-0.1c0.2-0.2,0.3-0.4,0.4-0.7
				c0.2-0.5,0.4-0.7,1-0.8c0.2,0,0.4-0.1,0.6-0.2c0.2-0.2,0.4-0.5,0.4-0.9c0-0.3,0.1-0.6,0.3-0.8c0.1-0.1,0.2-0.1,0.2-0.2
				c0.2-0.2,0.3-0.4,0.4-0.7C16.3,24.4,16.2,24.3,16.1,24.2z"/>
			<path fill="#E8EAE9" d="M19.3,13.5c0,0,0.1,0,0.1,0l-0.5,0l0,0C19.1,13.5,19.2,13.5,19.3,13.5z"/>
			<path fill="#57C0EC" d="M29.3,25.4l-1.4-11.5c-0.1,0-0.3,0.1-0.4,0.2c-0.1,0.1-0.2,0.1-0.3,0.1c-0.1,0-0.3,0-0.4-0.1
				c0.1,0,0.3,0,0.4,0c0.1,0,0.1-0.1,0.2-0.1c-0.1,0-0.1-0.1-0.2-0.1c-0.2,0-0.4-0.1-0.6-0.1c-0.1,0-0.3,0-0.4,0
				c-0.1-0.1-0.3-0.1-0.5-0.1c-0.2,0-0.5,0.1-0.7,0.1c-0.2,0-0.3,0.1-0.5,0.1c0,0-0.1,0.1-0.1,0.1c0.1,0.1,0,0.1-0.1,0.2
				c-0.2,0.1-0.5,0.2-0.7,0.3c-0.2,0.1-0.3,0.4-0.2,0.5c0.1,0.1,0.2,0.1,0.5,0c0,0,0,0,0,0c0.2-0.1,0.3,0,0.3,0.1
				c0.1,0.2,0.2,0.2,0.5,0.1c0.1-0.1,0.2-0.2,0.3-0.3c0.1-0.1,0.1-0.1,0-0.2c-0.1,0-0.1-0.1,0-0.2c0.1,0,0.1-0.1,0.2-0.1
				c0,0.2,0,0.2,0.3,0.3l0,0.2c-0.1,0-0.2,0.1-0.3,0.1c-0.2,0.2-0.5,0.3-0.8,0.4c-0.2,0.1-0.3,0-0.4-0.2c0-0.1-0.1-0.1-0.2-0.1
				c-0.1,0-0.2,0.1-0.2,0.1c-0.1,0.1,0,0.2-0.1,0.2c-0.4,0.2-0.7,0.5-1.2,0.7c-0.1,0-0.2,0.1-0.4,0.1c0.1,0.1,0.2,0.1,0.3,0.1
				c0.2,0.1,0.1,0.2,0.1,0.3c-0.1,0.1-0.2,0.2-0.3,0.2c-0.2,0-0.3,0-0.5,0c-0.2,0-0.3,0.1-0.3,0.2c0,0.1,0,0.1-0.1,0.2
				c-0.2,0.2,0,0.3,0.2,0.4c0.1,0,0.2,0.1,0.3,0.1c-0.2,0.2-0.5,0.4-0.7,0.6c-0.2,0.3-0.4,0.5-0.7,0.7c-0.3,0.2-0.5,0.4-0.6,0.7
				c-0.1,0.4-0.1,0.7-0.2,1.1c0,0,0,0.1,0,0.1c0.1,0.5,0.5,0.8,0.9,1.2c0.1,0.1,0.2,0.1,0.3,0.1c0.5,0,1.1,0,1.6-0.3
				c0.3-0.2,0.5-0.2,0.8-0.1c0.1,0,0.2,0.1,0.3,0.1c0.4,0,0.5,0.1,0.4,0.4c0,0.5,0.2,0.9,0.5,1.4c0.2,0.4,0.3,0.8,0.1,1.3
				c-0.2,0.3-0.2,0.6,0,1c0.2,0.3,0.3,0.7,0.5,1.1c0.2,0.4,0.3,0.8,0.5,1.2c0.2,0.4,0.5,0.6,0.9,0.5c0.8-0.2,1.4-0.5,1.8-1.3
				c0.2-0.4,0.5-0.8,0.7-1.2c0.1-0.1,0.1-0.3,0.1-0.4C29,25.9,29.1,25.6,29.3,25.4z"/>
			<g>
				<path fill="#8BD7F8" d="M39.9,23c0.1,0.1,0.3,0.2,0.4,0.3l0.3,0.9c0,0-0.1,0-0.1-0.1c-0.2-0.1-0.3-0.3-0.4-0.4
					c-0.3-0.4-0.7-0.7-1.1-1c-0.1,0-0.1-0.1-0.1-0.2C39.3,22.6,39.6,22.7,39.9,23z"/>
				<path fill="#8BD7F8" d="M41.6,26.5c-0.1,0-0.1-0.1-0.2-0.1c-0.3-0.2-0.5-0.2-0.5,0c0,0.1-0.1,0.2-0.2,0.3
					c-0.1,0.1-0.2,0.1-0.3,0.2c-0.2,0.4-0.7,0.4-1.1,0.5c-0.3,0.1-0.4,0.1-0.3,0.5c0,0.1,0,0.2,0,0.3c-0.2,0.1-0.1,0.2,0,0.4
					c0.3,0.3,0.4,0.6,0.3,0.9c0,0.1-0.1,0.3,0,0.4c0,0.1,0.1,0.3,0.2,0.4c0.1,0.1,0.3,0.1,0.5,0.1c0.2,0,0.4-0.1,0.6-0.1
					c0.3-0.1,0.5-0.1,0.8-0.2c0.3-0.1,0.6-0.2,0.9-0.1c0.4,0,0.7,0.2,0.9,0.6L41.6,26.5z"/>
				<path fill="#8BD7F8" d="M31,20.8c0.1,0.2,0,0.5-0.1,0.7c-0.1,0.3-0.3,0.6-0.7,0.8c-0.5,0.3-0.9,0.7-0.8,1.3
					c0,0.2,0.1,0.4,0.1,0.5c0.2,0.5,0.2,1-0.4,1.3c0,0,0,0,0,0l-0.7-6c0,0,0,0,0,0c0.1,0.2,0.3,0.4,0.5,0.6c0.2,0.2,0.4,0.4,0.6,0.6
					c0.1,0.1,0.3,0.1,0.4,0.1C30.4,20.8,30.7,20.8,31,20.8z"/>
				<path fill="#8BD7F8" d="M36.9,14.3C36.9,14.3,36.8,14.3,36.9,14.3c-0.1,0.2-0.3,0.1-0.4,0.1c-0.5-0.1-1.1-0.3-1.6-0.3
					C34.6,14,34.4,14,34.1,14c-0.1,0-0.3,0-0.5,0c0.1,0,0.1-0.1,0.2-0.1c-0.1-0.1-0.3-0.2-0.5-0.2c-0.5,0-0.9-0.2-1.4-0.1
					c-0.1,0-0.3,0-0.4,0c-0.3,0-0.6,0.1-0.8,0.1c0,0,0,0,0,0c-0.1,0.1-0.4,0.1-0.5,0c-0.2-0.1-0.4-0.1-0.5,0c-0.1,0.1,0,0.2,0.1,0.2
					c-0.2,0-0.5-0.1-0.7-0.1c-0.1,0-0.1,0-0.1,0c0,0.2-0.2,0.1-0.3,0.1c-0.3,0-0.6-0.1-0.8,0l0.6,5c0.4,0.5,0.8,1,1.1,1.5
					c0.1,0.2,0.2,0.2,0.4,0.2c0.9-0.1,1.4-0.4,2-0.8c0.2-0.2,0.1-0.5-0.3-0.6c0,0-0.1,0-0.1,0c-0.3-0.3-0.5-0.3-0.7-0.1
					c-0.1,0.1-0.2,0-0.2-0.1c-0.1-0.1-0.2-0.2-0.2-0.2c-0.2-0.1-0.3-0.3-0.4-0.4c0.2,0.1,0.3,0.3,0.5,0.4c0.1,0.1,0.3,0.2,0.5,0.1
					c0.2-0.1,0.3,0,0.5,0.1c0.3,0.2,0.6,0.2,1,0.2c0.3,0,0.7,0.2,0.9,0.4c0.3,0.4,0.3,0.4,0.8,0.4c0,0.1,0.1,0.2,0.2,0.3
					c0.2,0.4,0.4,0.7,0.6,1.1c0.1,0.2,0.3,0.4,0.4,0.5c0.1,0.1,0.3,0.2,0.4,0.1c0.1-0.2,0.3-0.4,0.1-0.8c-0.1-0.1,0-0.2,0-0.3
					c0.2-0.2,0.4-0.4,0.7-0.6c0.1-0.1,0.4-0.1,0.5-0.1c0,0,0.1,0,0.1,0c0.3,0.2,0.6,0.5,0.8,0.8c0.1,0.2,0.2,0.2,0.4,0.2
					c0,0,0.1,0,0.2-0.1c0.3,0.3,0.5,0.6,0.6,0.9c0,0.1,0,0.3,0.1,0.4c0.3,0.3,0.7,0.6,1,1L36.9,14.3z"/>
			</g>
			<path d="M40.5,23.4c-0.1,0-0.1-0.1-0.2-0.1l0-0.1C40.4,23.3,40.4,23.4,40.5,23.4z"/>
		</g>
		<g>
			<path fill="#F3705B" d="M9.6,18.1c-2.9,0-5.3,2.4-5.3,5.3c0,2.9,5.3,9.3,5.3,9.3s5.3-6.4,5.3-9.3C14.9,20.5,12.5,18.1,9.6,18.1z"
				/>
			<circle fill="#FFFFFF" cx="9.6" cy="23.4" r="3.3"/>
		</g>
		<g>
			<path fill="#F3705B" d="M28.5,9.8c-2.9,0-5.3,2.4-5.3,5.3c0,2.9,5.3,9.3,5.3,9.3s5.3-6.4,5.3-9.3C33.8,12.1,31.5,9.8,28.5,9.8z"
				/>
			<circle fill="#FFFFFF" cx="28.5" cy="15.1" r="3.3"/>
		</g>
	</g>
</g>
</svg>
