<?xml version="1.0" encoding="utf-8"?>
<!-- Generator: Adobe Illustrator 18.0.0, SVG Export Plug-In . SVG Version: 6.00 Build 0)  -->
<!DOCTYPE svg PUBLIC "-//W3C//DTD SVG 1.1//EN" "http://www.w3.org/Graphics/SVG/1.1/DTD/svg11.dtd">
<svg version="1.1" id="Layer_1" xmlns="http://www.w3.org/2000/svg" xmlns:xlink="http://www.w3.org/1999/xlink" x="0px" y="0px"
	 viewBox="0 0 48 48" enable-background="new 0 0 48 48" xml:space="preserve">
<g>
	<path fill="#FFD15C" d="M48,20.1V44c0,2.2-1.8,4-4,4H4c-2.2,0-4-1.8-4-4V20.1c0-1.2,0.5-2.4,1.5-3.1l20-16.1c1.5-1.2,3.6-1.2,5,0
		l20,16.1C47.5,17.7,48,18.9,48,20.1z"/>
	<path fill="#F7B64C" d="M46.5,17l-20-16.1c-1.5-1.2-3.5-1.2-5,0L1.5,17c-0.5,0.4-0.9,0.9-1.1,1.5l23.6,19l23.6-19
		C47.4,17.9,47,17.4,46.5,17z"/>
	<path fill="#F7B64C" d="M1.7,47.2C2.3,47.7,3.1,48,4,48h40c0.9,0,1.7-0.3,2.3-0.8L24,29.3L1.7,47.2z"/>
	<polygon fill="#F3F3F3" points="15.2,1.9 5.3,11.8 5.3,22.4 24,37.5 42.7,22.4 42.7,1.9 	"/>
	<polygon fill="#CED6E0" points="15.2,1.9 5.3,11.8 15.2,11.8 	"/>
	<rect x="16.5" y="14.8" fill="#415A6B" width="15" height="11.8"/>
	<polygon fill="#F3705A" points="35.2,16.3 24,7 12.8,16.3 	"/>
	<g>
		<path fill="#344A5E" d="M26.6,26.6v-3.9c0-1.4-1.2-2.6-2.6-2.6s-2.6,1.2-2.6,2.6v3.9H26.6z"/>
	</g>
</g>
</svg>
