<?xml version="1.0" encoding="utf-8"?>
<!-- Generator: Adobe Illustrator 20.1.0, SVG Export Plug-In . SVG Version: 6.00 Build 0)  -->
<!DOCTYPE svg PUBLIC "-//W3C//DTD SVG 1.1//EN" "http://www.w3.org/Graphics/SVG/1.1/DTD/svg11.dtd">
<svg version="1.1" id="Layer_1" xmlns="http://www.w3.org/2000/svg" xmlns:xlink="http://www.w3.org/1999/xlink" x="0px" y="0px"
	 viewBox="0 0 49 49" enable-background="new 0 0 49 49" xml:space="preserve">
<g>
	<rect x="22.5" y="3.3" fill="#ACB3BA" width="4.1" height="6.7"/>
	
		<rect x="22.5" y="-4.1" transform="matrix(-1.836970e-16 1 -1 -1.836970e-16 27.05 -21.95)" fill="#CDD6E0" width="4.1" height="13.3"/>
	<rect x="22.5" y="4.6" fill="#9EAAB5" width="4.1" height="1.1"/>
	<circle fill="#334A5E" cx="24.5" cy="27.6" r="20.9"/>
	<circle fill="#F2F2F2" cx="24.5" cy="27.6" r="16.6"/>
	<path fill="#CDD6E0" d="M27.5,30l7.4-2.4l-8.3-2.1l-2.1-8.3L22.6,25c-1.9-1.6-3.3-2.6-3.3-2.6s1,1.4,2.6,3.3l-7.8,1.9l8.3,2.1
		l2.1,8.3l2-7.6c1.9,1.7,3.4,2.7,3.4,2.7S29.1,31.7,27.5,30z"/>
	<g>
		<path fill="#F2705B" d="M16.3,35.8l8.8-5.2c-0.2,0-0.4,0.1-0.6,0.1c-1.7,0-3.1-1.4-3.1-3.1c0-0.2,0-0.4,0.1-0.6L16.3,35.8z"/>
		<path fill="#FFD05C" d="M24.5,24.5c1.7,0,3.1,1.4,3.1,3.1c0,0.2,0,0.4-0.1,0.6l5.2-8.8l-8.8,5.2C24.1,24.5,24.3,24.5,24.5,24.5z"
			/>
		<circle fill="#334A5E" cx="24.5" cy="27.6" r="3.5"/>
		<circle fill="#F6F7F7" cx="24.5" cy="27.6" r="2"/>
	</g>
	<g>
		<rect x="24" y="11" fill="#ACB3BA" width="1" height="1.3"/>
		<rect x="24" y="42.9" fill="#ACB3BA" width="1" height="1.3"/>
	</g>
	<g>
		<rect x="16" y="13.1" transform="matrix(0.866 -0.5 0.5 0.866 -4.6669 10.1057)" fill="#ACB3BA" width="1" height="1.3"/>
		<rect x="32" y="40.7" transform="matrix(0.866 -0.5 0.5 0.866 -16.3458 21.7849)" fill="#ACB3BA" width="1" height="1.3"/>
	</g>
	<g>
		<rect x="10.2" y="19" transform="matrix(0.5 -0.866 0.866 0.5 -11.6323 19.0533)" fill="#ACB3BA" width="1" height="1.3"/>
		<rect x="37.8" y="34.9" transform="matrix(0.5 -0.866 0.866 0.5 -11.6325 50.9599)" fill="#ACB3BA" width="1" height="1.3"/>
	</g>
	<g>
		<rect x="7.9" y="27.1" fill="#ACB3BA" width="1.3" height="1"/>
		<rect x="39.8" y="27.1" fill="#ACB3BA" width="1.3" height="1"/>
	</g>
	<g>
		<rect x="10" y="35.1" transform="matrix(0.866 -0.5 0.5 0.866 -16.3458 10.1059)" fill="#ACB3BA" width="1.3" height="1"/>
		<rect x="37.7" y="19.1" transform="matrix(0.866 -0.5 0.5 0.866 -4.6668 21.7848)" fill="#ACB3BA" width="1.3" height="1"/>
	</g>
	<g>
		<rect x="15.9" y="40.9" transform="matrix(0.5 -0.866 0.866 0.5 -27.5858 35.007)" fill="#ACB3BA" width="1.3" height="1"/>
		<rect x="31.8" y="13.3" transform="matrix(0.5 -0.866 0.866 0.5 4.3209 35.0067)" fill="#ACB3BA" width="1.3" height="1"/>
	</g>
</g>
</svg>
