<?xml version="1.0" encoding="utf-8"?>
<!-- Generator: Adobe Illustrator 18.0.0, SVG Export Plug-In . SVG Version: 6.00 Build 0)  -->
<!DOCTYPE svg PUBLIC "-//W3C//DTD SVG 1.1//EN" "http://www.w3.org/Graphics/SVG/1.1/DTD/svg11.dtd">
<svg version="1.1" id="Layer_1" xmlns="http://www.w3.org/2000/svg" xmlns:xlink="http://www.w3.org/1999/xlink" x="0px" y="0px"
	 viewBox="0 0 48 48" enable-background="new 0 0 48 48" xml:space="preserve">
<g>
	<g>
		<polygon fill="#E8EAE9" points="18.2,1.3 5,1.3 0,30.1 23.2,30.1 		"/>
		<g>
			<path fill="#CED6E0" d="M18.2,2.6H5C4.3,2.6,3.7,2,3.7,1.3S4.3,0,5,0h13.1c0.7,0,1.3,0.6,1.3,1.3S18.9,2.6,18.2,2.6z"/>
		</g>
	</g>
	<g>
		<g>
			<g>
				<path fill="#F3705A" d="M8,10.9l2.3,3.6c0.8-0.5,1.8-0.5,2.6,0l2.3-3.6C13,9.5,10.2,9.5,8,10.9z"/>
			</g>
			<g>
				<path fill="#F3705A" d="M8.5,22.4l2-3.7c-0.8-0.4-1.3-1.3-1.3-2.2l-4.2-0.2C4.8,18.8,6.2,21.2,8.5,22.4z"/>
			</g>
			<g>
				<path fill="#F3705A" d="M18.2,16.2L14,16.4c0,0.9-0.5,1.8-1.3,2.2l2,3.7C17,21.2,18.4,18.8,18.2,16.2z"/>
			</g>
			<circle fill="#F3705A" cx="11.6" cy="16.5" r="1.7"/>
		</g>
	</g>
	<g>
		<polygon fill="#F3F3F3" points="48,23.1 48,48 0,48 0,28 25.5,28 36.9,23.1 36.9,27.9 		"/>
	</g>
	<g>
		<g>
			<rect x="5" y="34.3" fill="#8AD7F8" width="9.2" height="7.4"/>
		</g>
		<g>
			<rect x="19.4" y="34.3" fill="#8AD7F8" width="9.2" height="7.4"/>
		</g>
		<g>
			<rect x="33.8" y="34.3" fill="#8AD7F8" width="9.2" height="7.4"/>
		</g>
	</g>
</g>
</svg>
