<?xml version="1.0" encoding="utf-8"?>
<!-- Generator: Adobe Illustrator 18.0.0, SVG Export Plug-In . SVG Version: 6.00 Build 0)  -->
<!DOCTYPE svg PUBLIC "-//W3C//DTD SVG 1.1//EN" "http://www.w3.org/Graphics/SVG/1.1/DTD/svg11.dtd">
<svg version="1.1" id="Layer_1" xmlns="http://www.w3.org/2000/svg" xmlns:xlink="http://www.w3.org/1999/xlink" x="0px" y="0px"
	 viewBox="0 0 48 48" enable-background="new 0 0 48 48" xml:space="preserve">
<g>
	<g>
		<path fill="#F3F3F3" d="M41.6,0H6.4C4.6,0,3.1,1.5,3.1,3.2v41.5c0,1.8,1.5,3.2,3.2,3.2h35.2c1.8,0,3.2-1.5,3.2-3.2V3.2
			C44.9,1.5,43.4,0,41.6,0z"/>
		<g>
			<g>
				<g>
					<rect x="20.4" y="38.9" fill="#CED6E0" width="15.4" height="2.1"/>
					<rect x="20.4" y="34.1" fill="#CED6E0" width="20.1" height="2.1"/>
				</g>
				<g>
					<polygon fill="#F3705A" points="13,32.3 14.7,35.8 18.5,36.3 15.7,39 16.4,42.8 13,41 9.6,42.8 10.2,39 7.5,36.3 11.3,35.8 
											"/>
				</g>
			</g>
			<g>
				<g>
					<rect x="20.4" y="25.4" fill="#CED6E0" width="15.4" height="2.1"/>
					<rect x="20.4" y="20.5" fill="#CED6E0" width="20.1" height="2.1"/>
				</g>
				<g>
					<polygon fill="#F3705A" points="13,18.8 14.7,22.2 18.5,22.8 15.7,25.4 16.4,29.2 13,27.4 9.6,29.2 10.2,25.4 7.5,22.8 
						11.3,22.2 					"/>
				</g>
			</g>
			<g>
				<g>
					<rect x="20.4" y="11.8" fill="#CED6E0" width="15.4" height="2.1"/>
					<rect x="20.4" y="7" fill="#CED6E0" width="20.1" height="2.1"/>
				</g>
				<g>
					<polygon fill="#F3705A" points="13,5.2 14.7,8.7 18.5,9.2 15.7,11.9 16.4,15.7 13,13.9 9.6,15.7 10.2,11.9 7.5,9.2 11.3,8.7 
											"/>
				</g>
			</g>
		</g>
	</g>
</g>
</svg>
