<?xml version="1.0" encoding="utf-8"?>
<!-- Generator: Adobe Illustrator 18.0.0, SVG Export Plug-In . SVG Version: 6.00 Build 0)  -->
<!DOCTYPE svg PUBLIC "-//W3C//DTD SVG 1.1//EN" "http://www.w3.org/Graphics/SVG/1.1/DTD/svg11.dtd">
<svg version="1.1" id="Layer_1" xmlns="http://www.w3.org/2000/svg" xmlns:xlink="http://www.w3.org/1999/xlink" x="0px" y="0px"
	 viewBox="0 0 48 48" enable-background="new 0 0 48 48" xml:space="preserve">
<g>
	<g>
		<g>
			<g>
				<g>
					<g>
						<g>
							<polygon fill="#F3F3F3" points="48,42.3 0,42.3 6.8,28.1 41.2,28.1 							"/>
							<g>
								<path fill="#CED6E0" d="M48,42.3L48,42.3H0l0,0c0,1.4,1.2,2.6,2.6,2.6h42.8C46.8,44.9,48,43.7,48,42.3z"/>
							</g>
						</g>
						<polygon fill="#415A6B" points="14.2,30.1 14.4,29.1 12.2,29.1 11.9,30.1 						"/>
						<polygon fill="#415A6B" points="37,30.1 39.3,30.1 38.9,29.1 36.6,29.1 						"/>
						<polygon fill="#415A6B" points="37.5,31.6 39.9,31.6 39.4,30.5 37.1,30.5 						"/>
						<polygon fill="#415A6B" points="20.4,30.1 20.5,29.1 18.3,29.1 18.1,30.1 						"/>
						<polygon fill="#415A6B" points="23.6,30.1 23.6,29.1 21.4,29.1 21.3,30.1 						"/>
						<polygon fill="#415A6B" points="17.3,30.1 17.5,29.1 15.3,29.1 15,30.1 						"/>
						<polygon fill="#415A6B" points="27.9,33.7 28,35 30.6,35 30.4,33.7 						"/>
						<polygon fill="#415A6B" points="34.8,33.7 35.1,35 37.7,35 37.3,33.7 						"/>
						<polygon fill="#415A6B" points="11.4,29.1 9.1,29.1 8.7,30.1 11,30.1 						"/>
						<polygon fill="#415A6B" points="9.8,33.7 7.3,33.7 6.7,35 9.3,35 						"/>
						<polygon fill="#415A6B" points="14.1,33.7 13.8,35 27.1,35 27,33.7 						"/>
						<polygon fill="#415A6B" points="10.3,32 7.9,32 7.4,33.3 9.9,33.3 						"/>
						<polygon fill="#415A6B" points="26.7,30.1 26.6,29.1 24.4,29.1 24.4,30.1 						"/>
						<polygon fill="#415A6B" points="10.7,33.7 10.3,35 12.9,35 13.2,33.7 						"/>
						<polygon fill="#415A6B" points="17,31.6 17.2,30.5 14.9,30.5 14.6,31.6 						"/>
						<polygon fill="#415A6B" points="38.1,33.3 40.6,33.3 40.1,32 37.7,32 						"/>
						<polygon fill="#415A6B" points="38.7,35 41.3,35 40.7,33.7 38.2,33.7 						"/>
						<polygon fill="#415A6B" points="21.1,32 21.1,33.3 23.5,33.3 23.6,32 						"/>
						<polygon fill="#415A6B" points="17.8,32 17.7,33.3 20.1,33.3 20.3,32 						"/>
						<polygon fill="#415A6B" points="14.5,32 14.2,33.3 16.7,33.3 16.9,32 						"/>
						<polygon fill="#415A6B" points="30.1,31.6 29.9,30.5 27.6,30.5 27.7,31.6 						"/>
						<polygon fill="#415A6B" points="33.4,31.6 33.1,30.5 30.8,30.5 31,31.6 						"/>
						<polygon fill="#415A6B" points="26.8,31.6 26.7,30.5 24.4,30.5 24.4,31.6 						"/>
						<polygon fill="#415A6B" points="23.6,31.6 23.6,30.5 21.3,30.5 21.2,31.6 						"/>
						<polygon fill="#415A6B" points="20.3,31.6 20.4,30.5 18.1,30.5 17.9,31.6 						"/>
						<polygon fill="#415A6B" points="13.6,32 11.2,32 10.8,33.3 13.3,33.3 						"/>
						<polygon fill="#415A6B" points="24.4,32 24.5,33.3 26.9,33.3 26.9,32 						"/>
						<polygon fill="#415A6B" points="34.2,31.6 36.6,31.6 36.3,30.5 33.9,30.5 						"/>
						<polygon fill="#415A6B" points="34.7,33.3 37.2,33.3 36.8,32 34.4,32 						"/>
						<polygon fill="#415A6B" points="36.1,30.1 35.8,29.1 33.6,29.1 33.8,30.1 						"/>
						<polygon fill="#415A6B" points="32.8,29.1 33,30.1 27.6,30.1 27.5,29.1 						"/>
						<polygon fill="#415A6B" points="27.7,32 27.9,33.3 30.3,33.3 30.2,32 						"/>
						<polygon fill="#415A6B" points="31.1,32.1 31.6,35 34.2,35 33.5,32.1 						"/>
						<polygon fill="#415A6B" points="14.1,30.5 8.6,30.5 8.1,31.6 13.8,31.6 						"/>
					</g>
				</g>
			</g>
			<polygon fill="#CED6E0" points="29.6,40.7 18.4,40.7 20.7,36.1 27.3,36.1 			"/>
		</g>
		<g>
			<path fill="#415A6B" d="M6.8,5.2v22.9h34.4V5.2c0-1.1-0.9-2.1-2.1-2.1H8.9C7.7,3.1,6.8,4.1,6.8,5.2z"/>
			<rect x="8.9" y="5.2" fill="#55C0EB" width="30.2" height="20.9"/>
		</g>
	</g>
</g>
</svg>
