<?xml version="1.0" encoding="utf-8"?>
<!-- Generator: Adobe Illustrator 18.0.0, SVG Export Plug-In . SVG Version: 6.00 Build 0)  -->
<!DOCTYPE svg PUBLIC "-//W3C//DTD SVG 1.1//EN" "http://www.w3.org/Graphics/SVG/1.1/DTD/svg11.dtd">
<svg version="1.1" id="Layer_1" xmlns="http://www.w3.org/2000/svg" xmlns:xlink="http://www.w3.org/1999/xlink" x="0px" y="0px"
	 viewBox="0 0 48 48" enable-background="new 0 0 48 48" xml:space="preserve">
<g>
	<g>
		<g>
			<path fill="#F3705A" d="M48,14.7c0,15.4-14.7,20.4-24,31c-9.3-10.5-24-15.6-24-31C0,7.8,5.6,2.3,12.5,2.3c5.2,0,9.6,3.1,11.5,7.6
				c1.9-4.5,6.3-7.6,11.5-7.6C42.4,2.3,48,7.8,48,14.7z"/>
		</g>
		<g>
			<g>
				<g>
					<path fill="#F7B64C" d="M41.4,7.8l2.6,2.6c0.4,0.4,0.4,1,0,1.3l-9.7,9.7c-0.4,0.4-1,0.4-1.3,0l-2.6-2.6c-0.4-0.4-0.4-1,0-1.3
						l9.7-9.7C40.4,7.4,41,7.4,41.4,7.8z"/>
				</g>
			</g>
			<g>
				<path fill="#FFD15C" d="M34.3,7.8l9.7,9.7c0.4,0.4,0.4,1,0,1.3l-2.6,2.6c-0.4,0.4-1,0.4-1.3,0l-9.7-9.7c-0.4-0.4-0.4-1,0-1.3
					L33,7.8C33.3,7.4,33.9,7.4,34.3,7.8z"/>
			</g>
		</g>
	</g>
</g>
</svg>
