<?xml version="1.0" encoding="utf-8"?>
<!-- Generator: Adobe Illustrator 18.0.0, SVG Export Plug-In . SVG Version: 6.00 Build 0)  -->
<!DOCTYPE svg PUBLIC "-//W3C//DTD SVG 1.1//EN" "http://www.w3.org/Graphics/SVG/1.1/DTD/svg11.dtd">
<svg version="1.1" id="Layer_1" xmlns="http://www.w3.org/2000/svg" xmlns:xlink="http://www.w3.org/1999/xlink" x="0px" y="0px"
	 viewBox="0 0 48 48" enable-background="new 0 0 48 48" xml:space="preserve">
<g>
	<g>
		<g>
			<path fill="#E8EAE9" d="M37,40H3c-1.7,0-3-1.3-3-3V3c0-1.7,1.3-3,3-3h34c1.7,0,3,1.3,3,3v34C40,38.7,38.7,40,37,40z"/>
			<rect x="3.3" y="10.1" fill="#FFFFFF" width="33.3" height="26.6"/>
			<g>
				<g>
					<rect x="6.7" y="14.1" fill="#CED6E0" width="26.7" height="1.9"/>
				</g>
				<g>
					<g>
						<rect x="6.7" y="19.7" fill="#CED6E0" width="9.9" height="1.8"/>
					</g>
					<g>
						<rect x="6.7" y="25.2" fill="#CED6E0" width="9.9" height="1.8"/>
					</g>
					<g>
						<rect x="6.7" y="30.8" fill="#CED6E0" width="9.9" height="1.9"/>
					</g>
				</g>
			</g>
			<g>
				<g>
					<circle fill="#FFD15C" cx="5.4" cy="5" r="2"/>
				</g>
				<g>
					<circle fill="#8AD7F8" cx="11.1" cy="5" r="2"/>
				</g>
				<g>
					<circle fill="#F3705A" cx="16.9" cy="5" r="2"/>
				</g>
			</g>
		</g>
		<g>
			<g>
				<g>
					
						<rect x="33.6" y="34.1" transform="matrix(0.7071 -0.7071 0.7071 0.7071 -15.0965 36.4464)" fill="#344A5E" width="5.7" height="4.7"/>
				</g>
			</g>
			<g>
				<g>
					<g>
						<path fill="#F3705A" d="M35.8,41.6l5.2,5.2c1.6,1.6,4.2,1.6,5.8,0s1.6-4.2,0-5.8l-5.2-5.2L35.8,41.6z"/>
					</g>
				</g>
				<g>
					<g>
						
							<rect x="38.4" y="35.3" transform="matrix(-0.7071 -0.7071 0.7071 -0.7071 39.423 95.1758)" fill="#F05540" width="2" height="8.2"/>
					</g>
				</g>
			</g>
			<g>
				<g>
					<g>
						<path fill="#F3705A" d="M41.9,36.1l-5.8,5.8c-0.5,0.5-1.3,0.5-1.9,0c-0.5-0.5-0.5-1.3,0-1.9l5.8-5.8c0.5-0.5,1.3-0.5,1.9,0
							C42.4,34.8,42.4,35.6,41.9,36.1z"/>
					</g>
				</g>
			</g>
		</g>
		<g>
			<g>
				<circle fill="#FFFFFF" cx="26.6" cy="26.6" r="11.6"/>
				<g>
					<g>
						<rect x="16.3" y="19.1" fill="#CED6E0" width="17" height="3"/>
					</g>
					<g>
						<rect x="16.3" y="24.7" fill="#CED6E0" width="17" height="3"/>
					</g>
					<g>
						<rect x="16.3" y="30.2" fill="#CED6E0" width="17" height="3"/>
					</g>
				</g>
				<path fill="#415A6B" d="M35.9,35.9c-5.1,5.1-13.5,5.1-18.6,0c-5.1-5.1-5.1-13.5,0-18.6s13.5-5.1,18.6,0
					C41.1,22.5,41.1,30.8,35.9,35.9z M19.6,19.6c-3.9,3.9-3.9,10.2,0,14.1s10.2,3.9,14.1,0s3.9-10.2,0-14.1S23.5,15.7,19.6,19.6z"/>
			</g>
		</g>
	</g>
</g>
</svg>
