<?xml version="1.0" encoding="utf-8"?>
<!-- Generator: Adobe Illustrator 18.0.0, SVG Export Plug-In . SVG Version: 6.00 Build 0)  -->
<!DOCTYPE svg PUBLIC "-//W3C//DTD SVG 1.1//EN" "http://www.w3.org/Graphics/SVG/1.1/DTD/svg11.dtd">
<svg version="1.1" id="Layer_1" xmlns="http://www.w3.org/2000/svg" xmlns:xlink="http://www.w3.org/1999/xlink" x="0px" y="0px"
	 viewBox="0 0 48 48" enable-background="new 0 0 48 48" xml:space="preserve">
<g>
	<g>
		<g>
			<g>
				<g>
					<path fill="#F3705A" d="M0,14.7c0,15.4,14.7,20.4,24,31c9.3-10.5,24-15.6,24-31c0-6.9-5.6-12.5-12.5-12.5
						c-5.2,0-9.6,3.1-11.5,7.6c-1.9-4.5-6.3-7.6-11.5-7.6C5.6,2.3,0,7.8,0,14.7z"/>
				</g>
			</g>
			<g>
				<g>
					<path fill="#344A5E" d="M14,28.9c0.2-0.2,0.1-0.5-0.1-0.7c-4.6-3.1-6.8-6.8-7.6-12.6c0-0.3-0.3-0.5-0.6-0.4
						c-0.3,0-0.5,0.3-0.4,0.6c0.8,6.1,3.2,10.1,8,13.3C13.6,29.2,13.9,29.1,14,28.9z"/>
				</g>
			</g>
			<g>
				<g>
					<path fill="#415A6B" d="M5.5,18.9c1.7,0,2.9-1.1,3-1.2c0.2-0.2,0.2-0.5,0-0.7c-0.2-0.2-0.5-0.2-0.7,0c-0.1,0.1-1.4,1.3-3.2,0.7
						c-0.3-0.1-0.5,0.1-0.6,0.3c-0.1,0.3,0.1,0.5,0.3,0.6C4.7,18.9,5.1,18.9,5.5,18.9z"/>
				</g>
			</g>
			<g>
				<g>
					<path fill="#415A6B" d="M5.9,22.2c2.1,0,3.4-1.7,3.4-1.7c0.2-0.2,0.1-0.5-0.1-0.7c-0.2-0.2-0.5-0.1-0.7,0.1
						c0,0.1-1.2,1.5-3,1.3c-0.3,0-0.5,0.2-0.6,0.4c0,0.3,0.2,0.5,0.4,0.6C5.5,22.2,5.7,22.2,5.9,22.2z"/>
				</g>
			</g>
			<g>
				<g>
					<path fill="#415A6B" d="M7.3,25.4C7.3,25.4,7.3,25.4,7.3,25.4c2.5,0,3.6-2.1,3.7-2.2c0.1-0.2,0-0.5-0.2-0.7
						c-0.2-0.1-0.5,0-0.7,0.2c0,0.1-0.9,1.7-2.8,1.7c-0.3,0-0.5,0.2-0.5,0.5C6.8,25.2,7,25.4,7.3,25.4z"/>
				</g>
			</g>
			<g>
				<g>
					<path fill="#415A6B" d="M9.9,28.4C9.9,28.4,10,28.4,9.9,28.4c2.5-0.3,3.4-2.5,3.5-2.6c0.1-0.3,0-0.5-0.3-0.7
						c-0.3-0.1-0.5,0-0.7,0.3c0,0.1-0.8,1.8-2.6,2c-0.3,0-0.5,0.3-0.4,0.6C9.5,28.2,9.7,28.4,9.9,28.4z"/>
				</g>
			</g>
		</g>
		<g>
			<ellipse transform="matrix(0.7574 -0.653 0.653 0.7574 2.6431 28.8062)" fill="#FFFFFF" cx="40.1" cy="10.8" rx="2.4" ry="4.9"/>
		</g>
	</g>
</g>
</svg>
