<?xml version="1.0" encoding="utf-8"?>
<!-- Generator: Adobe Illustrator 20.1.0, SVG Export Plug-In . SVG Version: 6.00 Build 0)  -->
<!DOCTYPE svg PUBLIC "-//W3C//DTD SVG 1.1//EN" "http://www.w3.org/Graphics/SVG/1.1/DTD/svg11.dtd">
<svg version="1.1" id="Layer_1" xmlns="http://www.w3.org/2000/svg" xmlns:xlink="http://www.w3.org/1999/xlink" x="0px" y="0px"
	 viewBox="0 0 49 49" enable-background="new 0 0 49 49" xml:space="preserve">
<g>
	<path fill="#40596B" d="M42.5,0.5h-36c-3.3,0-6,2.7-6,6v36c0,3.3,2.7,6,6,6h36c3.3,0,6-2.7,6-6v-36C48.5,3.2,45.8,0.5,42.5,0.5z"/>
	<path fill="#F2F2F2" d="M39.5,6.5h-30c-1.7,0-3,1.3-3,3v30c0,1.7,1.3,3,3,3h30c1.7,0,3-1.3,3-3v-30C42.5,7.8,41.2,6.5,39.5,6.5z"/>
	<path fill="#CDD6E0" d="M39.5,6.5h-30c-1.7,0-3,1.3-3,3V11c0-1.7,1.3-3,3-3h30c1.7,0,3,1.3,3,3V9.5C42.5,7.8,41.2,6.5,39.5,6.5z"/>
	<g>
		<circle fill="#ACB3BA" cx="24.5" cy="9.9" r="1.8"/>
		<circle fill="#ACB3BA" cx="24.5" cy="39.1" r="1.8"/>
	</g>
	<g>
		<circle fill="#ACB3BA" cx="39.1" cy="24.5" r="1.8"/>
		<circle fill="#ACB3BA" cx="9.9" cy="24.5" r="1.8"/>
	</g>
	<path fill="#40596B" d="M24.5,26h-5.9c-0.8,0-1.5-0.7-1.5-1.5s0.7-1.5,1.5-1.5H23v-8c0-0.8,0.7-1.5,1.5-1.5c0.8,0,1.5,0.7,1.5,1.5
		v9.5C26,25.3,25.3,26,24.5,26z"/>
</g>
</svg>
