<?xml version="1.0" encoding="utf-8"?>
<!-- Generator: Adobe Illustrator 19.0.1, SVG Export Plug-In . SVG Version: 6.00 Build 0)  -->
<svg version="1.1" id="Layer_1" xmlns="http://www.w3.org/2000/svg" xmlns:xlink="http://www.w3.org/1999/xlink" x="0px" y="0px"
	 viewBox="0 0 48 48" style="enable-background:new 0 0 48 48;" xml:space="preserve">
<style type="text/css">
	.st0{fill:#66C6B9;}
	.st1{fill:#F3F3F3;}
	.st2{fill:#415A6B;}
	.st3{fill:#CED6E0;}
	.st4{fill:#F3705A;}
	.st5{fill:#E8EAE9;}
	.st6{fill:#4ABAA5;}
	.st7{fill:#F05540;}
	.st8{fill:#FFD15C;}
	.st9{fill:#55C0EB;}
	.st10{fill:#8AD7F8;}
	.st11{fill:#344A5E;}
	.st12{fill:#FFFFFF;}
	.st13{fill:#F7B64C;}
	.st14{fill:#ADB3BA;}
	.st15{fill:#38A892;}
	.st16{fill:#ED9845;}
	.st17{fill:#2D4251;}
	.st18{fill:#304556;}
	.st19{fill:#A5AAAD;}
	.st20{fill:#2D4456;}
	.st21{fill:#4FB0E0;}
	.st22{fill:#2D4354;}
	.st23{fill:#E54C38;}
	.st24{fill:#2B4456;}
	.st25{fill:#2B404F;}
</style>
<g>
	<g>
		<g>
			<rect x="21.6" y="40.4" class="st6" width="23.6" height="6.1"/>
		</g>
		<g>
			<path class="st0" d="M46.9,40.6H17.7c-0.6,0-1.1-0.5-1.1-1.1v0c0-0.6,0.5-1.1,1.1-1.1h29.2c0.6,0,1.1,0.5,1.1,1.1v0
				C48,40.1,47.5,40.6,46.9,40.6z"/>
		</g>
		<g>
			<g>
				<path class="st8" d="M12.2,3.8l0,1.4c0,0,1.1,2.1,1.1,3.3c0,0-0.2,0.5-0.1,0.9c0.1,0.4,0.9,1.8,0.9,1.8s0.4,0.5,0,0.8
					c-0.4,0.3-0.8,0.4-0.8,0.4s0,0.7,0.2,1c0.2,0.3,0,0.5-0.2,0.5c0,0,0.3,0.2,0.1,0.6c-0.2,0.4-0.5,0.8-0.5,1.6
					c0.1,0.8-1.1,0.9-2.2,0.5l-0.6,1.8l-6.4-2.6L4,12.4c0,0-2.8-4-1-6.6S11.2,2.4,12.2,3.8z"/>
			</g>
			<path class="st13" d="M6.8,13.4c0,0,1.6,2.5,3.4,4.5l0.5-1.5C9.8,16,7.5,14.6,6.8,13.4z"/>
			<g>
				<path class="st11" d="M4.4,46.5H21c-0.7-1.8-2.3-9.2-3.9-13.7c-2-5.8-4.2-11.8-4.9-13.1c-0.6-1.4-1.2-1.9-1.2-1.9
					S4,15.9,3.8,15.9l-1.2,0c0,0-0.7,2.8-1.6,3.8c-0.9,1-1.3,3.7-1,5.9S4.2,44.8,4.4,46.5z"/>
			</g>
			<g>
				<path class="st2" d="M3.2,14.7c0.1-0.3,0.4-0.4,0.7-0.4c0.7,0.1,2.2,0.4,4,1.3c2.5,1.4,3.2,2.1,3.2,2.1s-0.6,0.8-0.7,2.3
					c0,0-4.3-3.1-5.8-3.6s-1.9-0.5-1.9-0.5L3.2,14.7z"/>
			</g>
			<g>
				<g>
					<g>
						<path class="st5" d="M43.4,38.1L43.4,38.1c-0.3-0.1-0.4-0.4-0.3-0.6l4-11.4c0.1-0.3,0.4-0.4,0.6-0.3l0,0
							c0.3,0.1,0.4,0.4,0.3,0.6l-4,11.4C43.9,38,43.6,38.1,43.4,38.1z"/>
					</g>
					<g>
						<path class="st5" d="M44.1,37.3L44.1,37.3H29.9l0,0c0,0.6,0.5,1.1,1.1,1.1H43C43.6,38.4,44.1,37.9,44.1,37.3z"/>
					</g>
				</g>
				<g>
					<path class="st8" d="M28.4,34.8c0,0,1-0.1,2.6-0.5c1.6-0.4,2.1-0.5,2.5-0.7c0.4-0.1,0.6,0.1,1.1,0.3c0.5,0.2,2.3,0.6,2.4,0.6
						c0.2,0,0.8,0.4,1.1,0.7c0.3,0.2,1.8,1.2,1.8,1.2l0.6,0.5c0,0-0.1,0.4-0.7,0.2c0,0-0.6,0.4-1.5-0.1c0,0-0.2,0.6-1.5,0.2
						s-1.4-0.5-1.4-0.5s-0.6-0.5-1.8-0.1c-1.2,0.3-1.3,1.2-4,0.6s-2.7-0.6-2.7-0.6L28.4,34.8z"/>
				</g>
				<g>
					<g>
						<path class="st13" d="M39.9,37.1C39.9,37.1,39.9,37.1,39.9,37.1c0-0.1,0-0.2-0.1-0.2c0-0.1-0.1-0.1-0.2-0.2
							c-0.1-0.1-0.2-0.1-0.3-0.2c-0.1-0.1-0.2-0.1-0.4-0.2c-0.1-0.1-0.3-0.1-0.4-0.2c-0.3-0.2-0.6-0.3-0.9-0.5
							c-0.2-0.1-0.3-0.2-0.5-0.2c-0.2-0.1-0.3-0.1-0.5-0.2c-0.3-0.1-0.6-0.2-0.9-0.3c-0.3-0.1-0.5-0.2-0.6-0.2
							c-0.1,0-0.2-0.1-0.2-0.1s0.1,0,0.2,0c0.2,0,0.4,0.1,0.6,0.2c0.3,0.1,0.6,0.2,0.9,0.3c0.2,0.1,0.3,0.1,0.5,0.2
							c0.2,0.1,0.3,0.2,0.5,0.2c0.3,0.2,0.6,0.3,0.9,0.5c0.1,0.1,0.3,0.2,0.4,0.2c0.1,0.1,0.3,0.2,0.4,0.2c0.2,0.2,0.4,0.3,0.5,0.4
							C39.9,36.9,39.9,37,39.9,37.1C39.9,37.1,39.9,37.1,39.9,37.1z"/>
					</g>
					<g>
						<path class="st13" d="M38.3,37C38.3,37,38.3,37,38.3,37c0-0.1-0.1-0.1-0.1-0.1c-0.1-0.1-0.2-0.2-0.4-0.2
							c-0.1,0-0.2-0.1-0.3-0.1c-0.1,0-0.2-0.1-0.3-0.1c-0.2-0.1-0.5-0.2-0.7-0.3c-0.1-0.1-0.2-0.1-0.4-0.1c-0.1,0-0.2-0.1-0.3-0.1
							c-0.2-0.1-0.4-0.2-0.6-0.2c-0.2-0.1-0.3-0.1-0.4-0.2c-0.1,0-0.2-0.1-0.2-0.1s0.1,0,0.2,0c0.1,0,0.3,0.1,0.4,0.1
							c0.1,0,0.2,0.1,0.3,0.1c0.1,0,0.2,0.1,0.3,0.1c0.2,0.1,0.5,0.2,0.7,0.3c0.2,0.1,0.5,0.2,0.7,0.3c0.1,0.1,0.2,0.1,0.3,0.1
							c0.1,0,0.2,0.1,0.3,0.1c0.2,0.1,0.3,0.2,0.4,0.3C38.3,36.9,38.3,36.9,38.3,37C38.3,37,38.3,37,38.3,37z"/>
					</g>
				</g>
				<g>
					<path class="st2" d="M3.8,28.9c-1.4-1.3-2-3.3-1.5-5.2c0.2-0.6,0.4-1.2,0.8-1.8c1.4-2.4,3.2-3.1,4.8-3s3.5,2.2,4.2,3.9
						c0.7,1.7,2.9,5.7,3.6,6.2c0.6,0.5,2.9,2.6,3.3,3.2c0.4,0.6,0.6,1.1,0.6,1.1s0.7-0.2,1.8,0c1.1,0.2,5.9,1.2,5.9,1.2h2.1
						c0,0,1.5,2.4,1.1,4.3c0,0-2.9,0.1-4.2,0.3c-1.3,0.2-1.2,0.8-3.4,0.6c-2.2-0.2-5.6,0.4-7.8-1.2s-10-8.5-11-9.4
						C4,29,3.9,28.9,3.8,28.9z"/>
				</g>
			</g>
			<g>
				<path class="st2" d="M12.2,5.1c0,0,1.3-0.5,0.6-1.5c-0.7-1-2.4-2.2-5.8-2.1C3.6,1.6,2.1,3.9,1.5,5.1S0.9,8.8,1.3,9.9
					s2.2,4.1,2.2,4.8c0,0,0.7,0.3,0.9,0c0.2-0.3,1-1.1,0.6-2.6S4.2,9.3,4.8,8.5s2.6-0.3,2.8,1.8l0.8-0.1c0,0-0.4-2.1,0.5-2.8
					s1.4-0.7,1.3-1.5c-0.1-0.5-1-1-0.6-1.6C9.9,3.9,11.5,4,12.2,5.1z"/>
			</g>
			<g>
				<ellipse transform="matrix(0.9371 -0.3492 0.3492 0.9371 -2.9566 2.5309)" class="st8" cx="5.5" cy="9.5" rx="1.1" ry="1.8"/>
			</g>
		</g>
	</g>
</g>
</svg>
