<?xml version="1.0" encoding="utf-8"?>
<!-- Generator: Adobe Illustrator 18.0.0, SVG Export Plug-In . SVG Version: 6.00 Build 0)  -->
<!DOCTYPE svg PUBLIC "-//W3C//DTD SVG 1.1//EN" "http://www.w3.org/Graphics/SVG/1.1/DTD/svg11.dtd">
<svg version="1.1" id="Layer_1" xmlns="http://www.w3.org/2000/svg" xmlns:xlink="http://www.w3.org/1999/xlink" x="0px" y="0px"
	 viewBox="0 0 48 48" enable-background="new 0 0 48 48" xml:space="preserve">
<g>
	<g>
		<g>
			<g>
				<g>
					<g>
						<g>
							<path fill="#F7B64C" d="M33.5,20.3c0,0,5.1,5.2,7.6,7.3c3.3,2.9-0.5,9.9-5.4,4.1c-4.5-5.3-5-9.7-5-9.7L33.5,20.3z"/>
						</g>
					</g>
				</g>
				<g>
					<g>
						<g>
							<path fill="#F7B64C" d="M39,44c-9.6,2.5-19.6,2.4-30,0l0,0c1.1-7.3,3.5-14.4,6.9-20.9l1-1.9l7.1-0.9l7.1,0.9l1,1.9
								C35.5,29.6,37.9,36.7,39,44L39,44z"/>
						</g>
					</g>
					<g>
						<g>
							<path fill="#F7B64C" d="M14.5,20.3c0,0-5.1,5.2-7.6,7.3c-3.3,2.9,0.5,9.9,5.4,4.1c4.5-5.3,5-9.7,5-9.7L14.5,20.3z"/>
						</g>
					</g>
				</g>
			</g>
		</g>
	</g>
	<g>
		<ellipse fill="#FFFFFF" cx="23.7" cy="27.7" rx="7.8" ry="9.9"/>
	</g>
	<g>
		<g>
			<g>
				<g>
					<g>
						<path fill="#FFD15C" d="M41.6,40.2c0.4,3.7-2.5,7.2-6.6,7.7c-4.1,0.6-7.7-2-8.2-5.7c-0.4-3.7,2.5-7.2,6.6-7.7
							C37.5,33.9,41.2,36.5,41.6,40.2z"/>
					</g>
				</g>
				<g>
					<g>
						<path fill="#415A6B" d="M38.1,43.2c0.2,1.8-1.2,3.5-3.2,3.8c-2,0.3-3.8-1-4-2.8c-0.2-1.8,1.2-3.5,3.2-3.8
							C36.1,40.1,37.9,41.4,38.1,43.2z"/>
					</g>
				</g>
			</g>
			<g>
				<g>
					<path fill="#415A6B" d="M31.3,38.6c0.3,0.8,0.2,1.7-0.2,1.9s-1.1-0.3-1.4-1.1c-0.3-0.8-0.2-1.7,0.2-1.9
						C30.3,37.3,31,37.8,31.3,38.6z"/>
				</g>
			</g>
			<g>
				<g>
					<path fill="#415A6B" d="M38.3,38.7c-0.4,0.8-1.1,1.2-1.5,1c-0.4-0.3-0.5-1.1,0-1.9c0.4-0.8,1.1-1.2,1.5-1S38.7,37.9,38.3,38.7z
						"/>
				</g>
			</g>
			<g>
				<g>
					<path fill="#415A6B" d="M34.7,37.5c0.1,0.9-0.2,1.7-0.7,1.8c-0.5,0.1-1-0.6-1.1-1.5c-0.1-0.9,0.2-1.7,0.7-1.8
						S34.6,36.6,34.7,37.5z"/>
				</g>
			</g>
		</g>
		<g>
			<g>
				<g>
					<g>
						<path fill="#FFD15C" d="M6.4,40.2C6,43.9,8.9,47.3,13,47.9c4.1,0.6,7.7-2,8.2-5.7c0.4-3.7-2.5-7.2-6.6-7.7S6.8,36.5,6.4,40.2z
							"/>
					</g>
				</g>
				<g>
					<g>
						<path fill="#415A6B" d="M9.9,43.2c-0.2,1.8,1.2,3.5,3.2,3.8c2,0.3,3.8-1,4-2.8c0.2-1.8-1.2-3.5-3.2-3.8
							C11.9,40.1,10.1,41.4,9.9,43.2z"/>
					</g>
				</g>
			</g>
			<g>
				<g>
					<path fill="#415A6B" d="M16.7,38.6c-0.3,0.8-0.2,1.7,0.2,1.9c0.5,0.2,1.1-0.3,1.4-1.1c0.3-0.8,0.2-1.7-0.2-1.9
						C17.7,37.3,17,37.8,16.7,38.6z"/>
				</g>
			</g>
			<g>
				<g>
					<path fill="#415A6B" d="M9.7,38.7c0.4,0.8,1.1,1.2,1.5,1c0.4-0.3,0.5-1.1,0-1.9c-0.4-0.8-1.1-1.2-1.5-1
						C9.3,37,9.3,37.9,9.7,38.7z"/>
				</g>
			</g>
			<g>
				<g>
					<path fill="#415A6B" d="M13.3,37.5c-0.1,0.9,0.2,1.7,0.7,1.8c0.5,0.1,1-0.6,1.1-1.5c0.1-0.9-0.2-1.7-0.7-1.8
						C13.9,35.9,13.4,36.6,13.3,37.5z"/>
				</g>
			</g>
		</g>
	</g>
	<g>
		<g>
			<g>
				<g>
					<g>
						<circle fill="#F7B64C" cx="14" cy="5.6" r="5.6"/>
					</g>
				</g>
			</g>
			<g>
				<g>
					<g>
						<circle fill="#F7B64C" cx="34.2" cy="5.6" r="5.6"/>
					</g>
				</g>
			</g>
		</g>
		<g>
			<g>
				<path fill="#FFD15C" d="M21.5,24.9h4.9c5.9,0,10.8-4.7,10.9-10.7c0-0.3,0-0.7,0-1C36.9,6.6,31.6,1.2,25,0.7
					c-7.9-0.6-14.4,5.6-14.4,13.3c0,0.2,0,0.3,0,0.5C10.8,20.4,15.7,24.9,21.5,24.9z"/>
			</g>
		</g>
		<g>
			<g>
				<g>
					<g>
						<g>
							<circle fill="#415A6B" cx="30.1" cy="13.4" r="1.5"/>
						</g>
					</g>
					<g>
						<g>
							<circle fill="#344A5E" cx="29.9" cy="13.3" r="0.7"/>
						</g>
					</g>
					<g>
						<g>
							<circle fill="#FFFFFF" cx="29.5" cy="13" r="0.2"/>
						</g>
					</g>
				</g>
				<g>
					<g>
						<g>
							<circle fill="#415A6B" cx="17.9" cy="13.4" r="1.5"/>
						</g>
					</g>
					<g>
						<g>
							<circle fill="#344A5E" cx="18.1" cy="13.3" r="0.7"/>
						</g>
					</g>
					<g>
						<g>
							<circle fill="#FFFFFF" cx="18.5" cy="13" r="0.2"/>
						</g>
					</g>
				</g>
			</g>
			<g>
				<g>
					<ellipse fill="#FFFFFF" cx="24" cy="18.4" rx="6.2" ry="5.5"/>
				</g>
			</g>
			<g>
				<g>
					<path fill="#415A6B" d="M19.5,19.6c0,0,0,0,0.1,0.1c0,0.1,0.1,0.2,0.2,0.3c0.1,0.1,0.2,0.3,0.3,0.5c0.1,0.2,0.3,0.3,0.5,0.5
						c0.1,0.1,0.2,0.2,0.3,0.3c0.1,0.1,0.2,0.2,0.4,0.3c0.3,0.2,0.5,0.3,0.8,0.4c0.3,0.1,0.6,0.2,1,0.3c0.3,0.1,0.7,0.1,1,0.1
						c0.2,0,0.4,0,0.5,0c0.2,0,0.3,0,0.5-0.1c0.3-0.1,0.7-0.2,1-0.3c0.3-0.1,0.6-0.3,0.8-0.4c0.1-0.1,0.2-0.2,0.4-0.3
						c0.1-0.1,0.2-0.2,0.3-0.3c0.2-0.2,0.4-0.4,0.5-0.5c0.1-0.2,0.2-0.3,0.3-0.5c0.1-0.1,0.1-0.2,0.2-0.3c0-0.1,0.1-0.1,0.1-0.1
						s0,0,0,0.1c0,0.1,0,0.2-0.1,0.4c-0.1,0.2-0.1,0.3-0.2,0.5c-0.1,0.2-0.3,0.4-0.4,0.6c-0.2,0.2-0.4,0.4-0.7,0.6
						c-0.3,0.2-0.5,0.4-0.9,0.5c-0.3,0.2-0.7,0.3-1,0.4c-0.2,0-0.4,0.1-0.6,0.1c-0.2,0-0.4,0-0.6,0c-0.4,0-0.8,0-1.1-0.1
						c-0.4-0.1-0.7-0.2-1-0.4c-0.3-0.1-0.6-0.3-0.9-0.5c-0.3-0.2-0.5-0.4-0.7-0.6c-0.2-0.2-0.3-0.4-0.4-0.6
						c-0.1-0.2-0.2-0.4-0.2-0.5c-0.1-0.1-0.1-0.3-0.1-0.4C19.5,19.7,19.5,19.6,19.5,19.6z"/>
				</g>
			</g>
			<g>
				<g>
					<path fill="#415A6B" d="M26.1,15.6c0.7,1-0.3,1.9-1.1,2.5c-0.6,0.4-1.4,0.4-2,0c-0.6-0.4-1.3-1.1-1.3-1.8c0-1.5,1.4-1.3,3-1.3
						C25.2,15,25.7,15.2,26.1,15.6z"/>
				</g>
			</g>
			<g>
				<g>
					<rect x="23.7" y="16.4" fill="#415A6B" width="0.5" height="6.3"/>
				</g>
			</g>
		</g>
	</g>
</g>
</svg>
