<?xml version="1.0" encoding="utf-8"?>
<!-- Generator: Adobe Illustrator 18.0.0, SVG Export Plug-In . SVG Version: 6.00 Build 0)  -->
<!DOCTYPE svg PUBLIC "-//W3C//DTD SVG 1.1//EN" "http://www.w3.org/Graphics/SVG/1.1/DTD/svg11.dtd">
<svg version="1.1" id="Layer_1" xmlns="http://www.w3.org/2000/svg" xmlns:xlink="http://www.w3.org/1999/xlink" x="0px" y="0px"
	 viewBox="0 0 48 48" enable-background="new 0 0 48 48" xml:space="preserve">
<g>
	<g>
		<g>
			<path fill="#415A6B" d="M34.9,48H3c-1.7,0-3-1.3-3-3V8.7c0-1.7,1.3-3,3-3h31.9c1.7,0,3,1.3,3,3V45C37.9,46.7,36.5,48,34.9,48z"/>
			<rect x="4.3" y="10" fill="#FFFFFF" width="29.2" height="33.7"/>
			<g>
				<g>
					<g>
						<g>
							<g>
								<path fill="#E8EAE9" d="M15.8,39.4H8.9C8.4,39.4,8,39,8,38.6v-7c0-0.4,0.4-0.8,0.8-0.8h6.9c0.4,0,0.8,0.4,0.8,0.8v7
									C16.6,39,16.2,39.4,15.8,39.4z M9.7,37.8H15v-5.4H9.7V37.8z"/>
							</g>
						</g>
						<g>
							<g>
								<rect x="19.5" y="36.2" fill="#CED6E0" width="5" height="2.2"/>
							</g>
							<g>
								<rect x="19.5" y="31.8" fill="#CED6E0" width="10" height="2.2"/>
							</g>
						</g>
					</g>
					<g>
						<g>
							<path fill="#66C6B9" d="M12.3,37.6c-0.2,0-0.4-0.1-0.6-0.2l-2.9-2.9c-0.3-0.3-0.3-0.8,0-1.1c0.3-0.3,0.8-0.3,1.1,0l2.1,2.1
								c1.1-1.9,2.9-3.6,5.7-5.2c0.4-0.2,0.9-0.1,1.1,0.3c0.2,0.4,0.1,0.9-0.3,1.1c-2.9,1.7-4.7,3.4-5.5,5.4
								c-0.1,0.2-0.3,0.4-0.6,0.5C12.4,37.6,12.3,37.6,12.3,37.6z"/>
						</g>
					</g>
				</g>
				<g>
					<g>
						<g>
							<g>
								<path fill="#E8EAE9" d="M15.8,25.5H8.9c-0.4,0-0.8-0.4-0.8-0.8v-7c0-0.4,0.4-0.8,0.8-0.8h6.9c0.4,0,0.8,0.4,0.8,0.8v7
									C16.6,25.2,16.2,25.5,15.8,25.5z M9.7,23.9H15v-5.4H9.7V23.9z"/>
							</g>
						</g>
						<g>
							<g>
								<rect x="19.5" y="22.3" fill="#CED6E0" width="5" height="2.2"/>
							</g>
							<g>
								<rect x="19.5" y="18" fill="#CED6E0" width="10" height="2.2"/>
							</g>
						</g>
					</g>
					<g>
						<g>
							<path fill="#66C6B9" d="M12.3,23.7c-0.2,0-0.4-0.1-0.6-0.2l-2.9-2.9c-0.3-0.3-0.3-0.8,0-1.1c0.3-0.3,0.8-0.3,1.1,0l2.1,2.1
								c1.1-1.9,2.9-3.6,5.7-5.2c0.4-0.2,0.9-0.1,1.1,0.3c0.2,0.4,0.1,0.9-0.3,1.1c-2.9,1.7-4.7,3.4-5.5,5.4
								c-0.1,0.2-0.3,0.4-0.6,0.5C12.4,23.7,12.3,23.7,12.3,23.7z"/>
						</g>
					</g>
				</g>
			</g>
			<g>
				<path fill="#F3705A" d="M24.5,3.9h-1.5c-0.1-2.1-1.8-3.9-4-3.9s-3.9,1.7-4,3.9h-1.5c-2,0-3.6,1.6-3.6,3.6v4h18.3v-4
					C28.1,5.5,26.5,3.9,24.5,3.9z M18.9,4.6c-0.6,0-1.1-0.5-1.1-1.1c0-0.6,0.5-1.1,1.1-1.1c0.6,0,1.1,0.5,1.1,1.1
					C20,4.1,19.5,4.6,18.9,4.6z"/>
			</g>
		</g>
		<g>
			<g>
				<g>
					<g>
						<g>
							<g>
								<g>
									<path fill="#FFD15C" d="M36,40.2v-3.2l-2.4-0.7c-0.1-0.3-0.2-0.7-0.4-1l1.2-2.2l-2.2-2.2L30,32.1c-0.3-0.2-0.6-0.3-1-0.4
										l-0.7-2.4h-3.2l-0.7,2.4c-0.3,0.1-0.7,0.2-1,0.4l-2.2-1.2l-2.2,2.2l1.2,2.2c-0.2,0.3-0.3,0.6-0.4,1l-2.4,0.7v3.2l2.4,0.7
										c0.1,0.3,0.2,0.6,0.4,1l-1.2,2.2l2.2,2.2l2.2-1.2c0.3,0.2,0.6,0.3,1,0.4l0.7,2.4h3.2l0.7-2.4c0.3-0.1,0.7-0.2,1-0.4
										l2.2,1.2l2.2-2.2l-1.2-2.2c0.2-0.3,0.3-0.6,0.4-1L36,40.2z M26.7,41c-1.3,0-2.3-1-2.3-2.3c0-1.3,1-2.3,2.3-2.3
										s2.3,1,2.3,2.3C29,39.9,28,41,26.7,41z"/>
								</g>
							</g>
						</g>
						<g>
							<g>
								<path fill="#F7B64C" d="M26.7,33.8c-2.7,0-4.8,2.2-4.8,4.8c0,2.7,2.2,4.8,4.8,4.8c2.7,0,4.8-2.2,4.8-4.8
									C31.5,36,29.3,33.8,26.7,33.8z M26.7,41c-1.3,0-2.3-1-2.3-2.3c0-1.3,1-2.3,2.3-2.3s2.3,1,2.3,2.3C29,39.9,28,41,26.7,41z"/>
							</g>
						</g>
					</g>
				</g>
			</g>
			<g>
				<g>
					<g>
						<g>
							<g>
								<g>
									<path fill="#8AD7F8" d="M44.7,36.4l1.8-1.7l-0.9-1.8c0.1-0.2,0.2-0.5,0.3-0.7l1.9-0.5l0.1-2.5l-1.9-0.6
										c-0.1-0.3-0.2-0.5-0.3-0.8l1-1.7l-1.7-1.8L43.3,25c-0.2-0.1-0.5-0.2-0.8-0.3L42,22.7l-2.5-0.1l-0.6,1.9
										c-0.3,0.1-0.5,0.2-0.8,0.3l-1.7-1l-1.8,1.7l0.9,1.8c-0.1,0.2-0.2,0.5-0.3,0.7l-1.9,0.5l-0.1,2.5l1.9,0.6
										c0.1,0.3,0.2,0.5,0.3,0.8l-1,1.7l1.7,1.8l1.8-0.9c0.2,0.1,0.5,0.2,0.7,0.3l0.5,1.9l2.5,0.1l0.6-1.9
										c0.3-0.1,0.5-0.2,0.8-0.3L44.7,36.4z M39.2,31.4c-0.7-0.7-0.7-1.9,0.1-2.6c0.7-0.7,1.9-0.7,2.6,0.1
										c0.7,0.7,0.7,1.9-0.1,2.6C41.1,32.2,39.9,32.1,39.2,31.4z"/>
								</g>
							</g>
						</g>
						<g>
							<g>
								<path fill="#55C0EB" d="M43.3,27.5c-1.4-1.5-3.9-1.6-5.4-0.2c-1.5,1.4-1.6,3.9-0.2,5.4c1.4,1.5,3.9,1.6,5.4,0.2
									C44.7,31.4,44.8,29,43.3,27.5z M39.2,31.4c-0.7-0.7-0.7-1.9,0.1-2.6c0.7-0.7,1.9-0.7,2.6,0.1s0.7,1.9-0.1,2.6
									C41.1,32.2,39.9,32.1,39.2,31.4z"/>
							</g>
						</g>
					</g>
				</g>
			</g>
		</g>
	</g>
</g>
</svg>
