<?xml version="1.0" encoding="utf-8"?>
<!-- Generator: Adobe Illustrator 18.0.0, SVG Export Plug-In . SVG Version: 6.00 Build 0)  -->
<!DOCTYPE svg PUBLIC "-//W3C//DTD SVG 1.1//EN" "http://www.w3.org/Graphics/SVG/1.1/DTD/svg11.dtd">
<svg version="1.1" id="Layer_1" xmlns="http://www.w3.org/2000/svg" xmlns:xlink="http://www.w3.org/1999/xlink" x="0px" y="0px"
	 viewBox="0 0 512 512" enable-background="new 0 0 512 512" xml:space="preserve">
<g>
	<g>
		<circle fill="#F8B64C" cx="230.2" cy="139.3" r="137.3"/>
		<circle fill="#FFD15C" cx="230.2" cy="139.3" r="117.2"/>
		<circle fill="#F8B64C" cx="230.2" cy="139.3" r="94.7"/>
		<path fill="#FFD15C" d="M224.8,175.6v-32.2c-10-2.9-17.4-7.2-22.1-13c-4.7-5.8-7-12.9-7-21.2c0-8.4,2.7-15.5,8-21.2
			c5.3-5.7,12.4-9,21.2-9.9v-7.6H236v7.6c8.1,1,14.6,3.8,19.4,8.3c4.8,4.6,7.9,10.7,9.2,18.4l-19.4,2.5c-1.2-6-4.3-10.1-9.2-12.3
			v30.1c12.3,3.3,20.7,7.6,25.1,13c4.5,5.3,6.7,12.1,6.7,20.4c0,9.3-2.8,17.1-8.4,23.4c-5.6,6.4-13.4,10.2-23.4,11.7V208h-11.1v-14
			c-8.9-1.1-16.1-4.4-21.6-9.9c-5.5-5.5-9.1-13.3-10.6-23.4l20.1-2.2c0.8,4.1,2.4,7.6,4.6,10.6S222.1,174.3,224.8,175.6z
			 M224.8,94.9c-3,1-5.4,2.8-7.2,5.2c-1.8,2.5-2.7,5.2-2.7,8.1c0,2.7,0.8,5.2,2.5,7.6s4.1,4.2,7.5,5.6V94.9z M236,176.7
			c3.8-0.7,7-2.5,9.4-5.3c2.4-2.8,3.6-6.2,3.6-10c0-3.4-1-6.4-3-8.9s-5.3-4.4-10-5.7V176.7z"/>
	</g>
	<polygon fill="none" points="306.6,245.3 306.9,244.3 306.2,243.5 	"/>
	<g>
		<path fill="#CDD6E0" d="M212.2,457.7c2.9-1.7,6.3-2.8,10-2.8h171.7c3.5,0,6.7,1,9.6,2.6V281.1c0-13.2-10.7-23.9-23.9-23.9
			c-13.2,0-23.9,10.7-23.9,23.9c0-13.2-10.7-23.9-23.9-23.9h0c-13.2,0-23.9,10.7-23.9,23.9c0-13.2-10.7-23.9-23.9-23.9
			s-23.9,10.7-23.9,23.9v-86.9c0-13.2-10.7-23.9-23.9-23.9s-23.9,10.7-23.9,23.9v162.9c-18.9-13.8-42.1-21.9-67.2-21.9h-6.9
			c-13.2,0-23.8,10.7-23.8,23.8c0,13.2,10.7,23.8,23.8,23.8h6.9c36.7,0,66.6,29.9,66.6,66.6C212,450.4,212.1,454.2,212.2,457.7z"/>
		<path fill="#40596B" d="M417.1,510H199c-1.1,0-2-0.9-2-2v-51.1c0-1.1,0.9-2,2-2h218.1c1.1,0,2,0.9,2,2V508
			C419.1,509.1,418.2,510,417.1,510z"/>
		<circle fill="#FFFFFF" cx="376.3" cy="482.5" r="13.2"/>
	</g>
</g>
</svg>
