<?xml version="1.0" encoding="utf-8"?>
<!-- Generator: Adobe Illustrator 20.1.0, SVG Export Plug-In . SVG Version: 6.00 Build 0)  -->
<!DOCTYPE svg PUBLIC "-//W3C//DTD SVG 1.1//EN" "http://www.w3.org/Graphics/SVG/1.1/DTD/svg11.dtd">
<svg version="1.1" id="Layer_1" xmlns="http://www.w3.org/2000/svg" xmlns:xlink="http://www.w3.org/1999/xlink" x="0px" y="0px"
	 viewBox="0 0 49 49" enable-background="new 0 0 49 49" xml:space="preserve">
<g>
	<path fill="#FFD15C" d="M42.9,18.9c0-10.9-9.4-19.5-20.5-18.3c-8.7,1-15.7,8.2-16.3,17C5.6,24.3,8.8,30.4,13.8,34
		c1.1,0.8,1.8,2,1.8,3.4v0.2h17.7v-0.2c0-1.4,0.7-2.6,1.8-3.4C39.9,30.6,42.9,25.1,42.9,18.9z"/>
	<path fill="#FF7058" d="M33.3,37.6H15.7c-1.1,0-2,0.9-2,2v3.6c0,1.1,0.9,2,2,2h17.5c1.1,0,2-0.9,2-2v-3.6
		C35.3,38.5,34.4,37.6,33.3,37.6z"/>
	<path fill="#40596B" d="M31.8,45.2v1.3c0,1.1-0.9,2-2,2H19.2c-1.1,0-2-0.9-2-2v-1.3H31.8z"/>
	<rect x="17.2" y="45.2" fill="#334A5E" width="14.7" height="1.5"/>
	<path fill="#FFFFFF" d="M23.5,26v11.6h2V26l4.2-4.2c0.4-0.4,0.4-1,0-1.4s-1-0.4-1.4,0l-3.8,3.8l-3.8-3.8c-0.4-0.4-1-0.4-1.4,0
		c-0.4,0.4-0.4,1,0,1.4L23.5,26z"/>
	<path fill="#F9BC64" d="M6.1,19.6c0.6-8.8,7.6-16,16.3-17c10.8-1.2,19.9,6.9,20.5,17.3c0-0.3,0-0.6,0-1c0-10.9-9.4-19.5-20.5-18.3
		c-8.7,1-15.7,8.2-16.3,17c-0.1,0.8-0.1,1.6,0,2.4C6.1,19.9,6.1,19.7,6.1,19.6z"/>
</g>
</svg>
