<?xml version="1.0" encoding="utf-8"?>
<!-- Generator: Adobe Illustrator 18.0.0, SVG Export Plug-In . SVG Version: 6.00 Build 0)  -->
<!DOCTYPE svg PUBLIC "-//W3C//DTD SVG 1.1//EN" "http://www.w3.org/Graphics/SVG/1.1/DTD/svg11.dtd">
<svg version="1.1" id="Layer_1" xmlns="http://www.w3.org/2000/svg" xmlns:xlink="http://www.w3.org/1999/xlink" x="0px" y="0px"
	 viewBox="0 0 48 48" enable-background="new 0 0 48 48" xml:space="preserve">
<g>
	<g>
		<g>
			<path fill="#F05540" d="M1,19.1c0,0,22.6,1.4,30.9,3c1.7,0.3,3.4,0.9,4.9,1.9c0.5,0.3,1,0.7,1.4,1c1.8,1.5,4.2,4.6,6.3,5.3
				c2.1,0.7,2,2.2,0.3,2.3c-1.7,0.1-2.9-1.2-2.9-1.2s-2.7-3.1-2.8-3.3c-0.1-0.2-3-3.6-5.4-3.8c-0.7-0.1-2.6-0.1-4.8,0
				C20.1,24.3,9.8,24.2,1,23.6V19.1z"/>
			<path fill="#F05540" d="M46.1,19.1c0,0-22.6,1.4-30.9,3c-1.7,0.3-3.4,0.9-4.9,1.9c-0.5,0.3-1,0.7-1.4,1c-1.8,1.5-4.2,4.6-6.3,5.3
				c-2.1,0.7-2,2.2-0.3,2.3c1.7,0.1,2.9-1.2,2.9-1.2S8,28.3,8.1,28c0.1-0.2,3-3.6,5.4-3.8c0.7-0.1,2.6-0.1,4.8,0
				c8.8,0.1,19.1-0.1,27.9-0.6V19.1z"/>
			<path fill="#415A6B" d="M26.5,20.8c0.5,8.1,11,12.6,11,12.6s10-6.4,9.5-13.8c-0.2-2.9-2.7-5.2-5.6-5c-2.2,0.1-4,1.6-4.7,3.5
				c-0.9-1.9-2.9-3.1-5.1-3C28.6,15.3,26.3,17.8,26.5,20.8z"/>
			<path fill="#415A6B" d="M21.5,20.8c-0.5,8.1-11,12.6-11,12.6S0.6,27,1,19.6c0.2-2.9,2.7-5.2,5.6-5c2.2,0.1,4,1.6,4.7,3.5
				c0.9-1.9,2.9-3.1,5.1-3C19.4,15.3,21.7,17.8,21.5,20.8z"/>
			<path fill="#F3705A" d="M48,19.6c-0.1-1.7-0.8-3.3-2.1-4.4c-1.3-1.1-2.9-1.7-4.6-1.6c-1.9,0.1-3.7,1.1-4.8,2.6
				c-1.3-1.4-3.1-2.1-5-2c-2.5,0.1-4.5,1.7-5.5,3.8c-0.3,0.8-1.1,1.3-2,1.4c0,0,0,0,0,0c0,0,0,0,0,0c-0.9,0-1.6-0.6-2-1.4
				c-0.9-2.1-3-3.7-5.5-3.8c-1.9-0.1-3.8,0.7-5,2c-1.1-1.5-2.8-2.5-4.8-2.6c-3.5-0.2-6.5,2.5-6.7,6C-0.5,27.4,9.5,34,10,34.3
				c0.2,0.1,0.4,0.2,0.6,0.2c0.1,0,0.3,0,0.4-0.1c0.4-0.2,8.7-3.9,11-10.6c0.3-0.9,1.1-1.5,2-1.5c0,0,0,0,0,0c0,0,0,0,0,0
				c0.9,0,1.7,0.6,2,1.5c2.3,6.8,10.6,10.4,11,10.6c0.1,0.1,0.3,0.1,0.4,0.1c0.2,0,0.4-0.1,0.6-0.2C38.5,34,48.5,27.4,48,19.6z
				 M20.5,20.7c-0.4,6.4-7.8,10.5-9.9,11.5c-1.9-1.3-8.9-6.7-8.5-12.6c0.1-2.3,2-4.1,4.3-4.1c0.1,0,0.2,0,0.2,0
				c1.7,0.1,3.2,1.2,3.8,2.9c0.1,0.4,0.5,0.7,0.9,0.7c0.4,0,0.8-0.2,1-0.6c0.8-1.6,2.4-2.5,4.1-2.4C18.8,16.3,20.6,18.4,20.5,20.7z
				 M37.4,32.2c-2-1-9.5-5.1-9.9-11.5c-0.1-2.4,1.7-4.4,4.1-4.5c1.7-0.1,3.3,0.8,4.1,2.4c0.2,0.4,0.6,0.6,1,0.6
				c0.4,0,0.8-0.3,0.9-0.7c0.6-1.6,2.1-2.8,3.8-2.9c1.1-0.1,2.3,0.3,3.1,1.1s1.4,1.8,1.4,3C46.3,25.5,39.3,30.9,37.4,32.2z"/>
		</g>
		<g>
			<g>
				<g>
					<path fill="#344A5E" d="M12.4,22.1l-5.7,2.9c-0.3,0.2-0.7,0-0.9-0.3c-0.2-0.3,0-0.7,0.3-0.9l5.7-2.9c0.3-0.2,0.7,0,0.9,0.3
						C12.8,21.5,12.7,21.9,12.4,22.1z"/>
				</g>
			</g>
			<g>
				<g>
					<path fill="#344A5E" d="M12.3,24.5l-3.7,1.8c-0.3,0.2-0.7,0-0.9-0.3c-0.2-0.3,0-0.7,0.3-0.9l3.7-1.8c0.3-0.2,0.7,0,0.9,0.3
						C12.7,23.9,12.6,24.3,12.3,24.5z"/>
				</g>
			</g>
		</g>
		<g>
			<g>
				<g>
					<path fill="#344A5E" d="M36.9,22.1l-5.7,2.9c-0.3,0.2-0.7,0-0.9-0.3c-0.2-0.3,0-0.7,0.3-0.9l5.7-2.9c0.3-0.2,0.7,0,0.9,0.3
						C37.4,21.5,37.2,21.9,36.9,22.1z"/>
				</g>
			</g>
			<g>
				<g>
					<path fill="#344A5E" d="M36.8,24.5l-3.7,1.8c-0.3,0.2-0.7,0-0.9-0.3c-0.2-0.3,0-0.7,0.3-0.9l3.7-1.8c0.3-0.2,0.7,0,0.9,0.3
						C37.3,23.9,37.1,24.3,36.8,24.5z"/>
				</g>
			</g>
		</g>
	</g>
</g>
</svg>
