<?xml version="1.0" encoding="utf-8"?>
<!-- Generator: Adobe Illustrator 18.0.0, SVG Export Plug-In . SVG Version: 6.00 Build 0)  -->
<!DOCTYPE svg PUBLIC "-//W3C//DTD SVG 1.1//EN" "http://www.w3.org/Graphics/SVG/1.1/DTD/svg11.dtd">
<svg version="1.1" id="Layer_1" xmlns="http://www.w3.org/2000/svg" xmlns:xlink="http://www.w3.org/1999/xlink" x="0px" y="0px"
	 viewBox="0 0 512 512" enable-background="new 0 0 512 512" xml:space="preserve">
<g>
	<path fill="#40596B" d="M465,277.7c0.7-7.1,0.6-37.2-0.2-44.7l41.5-29l-17.8-54.2l-50.7,1.2c-7.5-12.9-16.3-24.9-26.3-35.9l16.6-48
		l-46.2-33.5l-40.3,30.7c-13.5-6-27.7-10.8-42.5-13.9L284.5,2h-57.1l-14.6,48.4c-15.2,3.2-29.8,8.2-43.6,14.4l-40.5-30.4l-46,33.8
		L99.6,116c-9.9,11.1-18.7,23.1-26.1,36.1l-50.7-0.9L5.4,205.6L47,234.3c-0.7,7.1-0.6,37.2,0.2,44.7L5.7,308l17.8,54.2l50.7-1.2
		c7.5,12.9,16.3,24.9,26.3,35.9l-16.6,48l46.2,33.5l40.3-30.7c13.5,6,27.7,10.8,42.5,13.9l14.6,48.4h57.1l14.6-48.4
		c15.2-3.2,29.8-8.2,43.6-14.4l40.5,30.4l46-33.8L412.4,396c9.9-11.1,18.7-23.1,26.1-36.1l50.7,0.9l17.4-54.3L465,277.7z"/>
	<circle fill="#84DBFF" cx="256" cy="256" r="142.9"/>
	<path fill="#FFFFFF" d="M398.8,256c0-40.2-17.1-78.8-46.8-105.7c-25.6-23.3-58.7-36.3-93.4-36.9c-0.8,0-1.7-0.2-2.5-0.2
		c-0.8,0-1.6,0.2-2.4,0.2c-34.8,0.6-67.9,13.6-93.4,36.9c-29.9,26.9-47,65.4-47,105.7c0,40.2,17.1,78.8,47,105.9
		c25.8,23.4,59.1,36.4,94,36.8c0.6,0,1.2,0.2,1.9,0.2c0.7,0,1.3-0.1,2-0.2c34.9-0.5,68.2-13.5,94-36.9
		C381.8,334.7,398.8,296.1,398.8,256z M128.6,263.5h45c0.7,25.6,4.9,49,11.9,68.9c-7,4-13.6,8.6-19.8,13.7
		C143.7,324,130.5,294.6,128.6,263.5z M165.7,165.9c6.3,5.1,12.9,9.7,19.8,13.7c-7,19.9-11.2,43.3-11.9,68.9h-45
		C130.4,217.4,143.6,188,165.7,165.9z M383.4,248.5h-44.9c-0.7-25.6-4.9-49-11.9-68.9c7-4,13.6-8.5,19.9-13.7
		C368.4,188,381.6,217.4,383.4,248.5z M333.5,357.7c-0.5,0.4-1.1,0.8-1.6,1.2c-8.9,6.5-18.5,11.9-28.7,15.9
		c6.7-7.8,12.7-17.4,17.7-28.3c5,2.9,9.8,6.1,14.3,9.7C334.6,356.7,334.1,357.2,333.5,357.7z M178.5,357.6c-0.6-0.4-1.1-0.9-1.6-1.4
		c4.6-3.6,9.4-6.8,14.3-9.7c5,10.9,11,20.5,17.7,28.3c-10.1-4-19.7-9.3-28.5-15.8C179.8,358.5,179.1,358,178.5,357.6z M178.4,154.6
		c0.8-0.6,1.6-1.2,2.4-1.8c8.7-6.4,18.1-11.6,28.1-15.5c-6.7,7.8-12.7,17.3-17.7,28.2c-4.9-2.9-9.7-6.1-14.3-9.7
		C177.4,155.5,177.9,155,178.4,154.6z M333.6,154.5c0.5,0.4,1.1,0.9,1.6,1.3c-4.6,3.6-9.4,6.8-14.3,9.7c-5-10.9-11-20.4-17.7-28.2
		c10,4,19.5,9.2,28.3,15.7C332.2,153.5,332.9,154,333.6,154.5z M263.4,198c13.9-0.7,27.6-3.3,40.8-8c3-1.1,5.8-2.4,8.7-3.6
		c6.1,18,9.8,39.1,10.5,62.1h-60V198z M299.2,175.8c-11.6,4.1-23.7,6.4-35.8,7.1v-54c17.8,3.5,33.3,19.6,44.1,43.5
		C304.8,173.6,302,174.8,299.2,175.8z M248.4,129v53.9c-12.1-0.7-24-3-35.4-7.1c-2.8-1-5.6-2.2-8.4-3.4
		C215.3,148.6,230.7,132.6,248.4,129z M207.9,190c13.1,4.7,26.7,7.3,40.5,8v50.5h-59.7c0.7-23,4.4-44.1,10.5-62.1
		C202,187.6,204.9,188.9,207.9,190z M248.4,263.5V314c-13.8,0.7-27.4,3.3-40.5,8c-3,1.1-5.9,2.4-8.8,3.6c-6.1-18-9.8-39.2-10.5-62.1
		H248.4z M212.9,336.2c11.4-4.1,23.4-6.4,35.4-7.1V383c-17.6-3.6-33-19.6-43.8-43.4C207.3,338.4,210.1,337.2,212.9,336.2z
		 M263.4,383.1v-54c12.1,0.7,24.2,3,35.8,7.1c2.8,1,5.6,2.2,8.3,3.4C296.7,363.5,281.2,379.6,263.4,383.1z M304.2,322.1
		c-13.2-4.7-27-7.3-40.8-8v-50.5h60c-0.7,23-4.4,44.2-10.5,62.1C310.1,324.4,307.2,323.1,304.2,322.1z M326.5,332.4
		c7-19.9,11.2-43.3,11.9-68.9h44.9c-1.9,31-15,60.5-37,82.6C340.1,341,333.5,336.4,326.5,332.4z"/>
</g>
</svg>
