<?xml version="1.0" encoding="utf-8"?>
<!-- Generator: Adobe Illustrator 19.0.1, SVG Export Plug-In . SVG Version: 6.00 Build 0)  -->
<svg version="1.1" id="Layer_1" xmlns="http://www.w3.org/2000/svg" xmlns:xlink="http://www.w3.org/1999/xlink" x="0px" y="0px"
	 viewBox="0 0 48 48" style="enable-background:new 0 0 48 48;" xml:space="preserve">
<style type="text/css">
	.st0{fill:#66C6B9;}
	.st1{fill:#F3F3F3;}
	.st2{fill:#415A6B;}
	.st3{fill:#CED6E0;}
	.st4{fill:#F3705A;}
	.st5{fill:#E8EAE9;}
	.st6{fill:#4ABAA5;}
	.st7{fill:#F05540;}
	.st8{fill:#FFD15C;}
	.st9{fill:#55C0EB;}
	.st10{fill:#8AD7F8;}
	.st11{fill:#344A5E;}
	.st12{fill:#FFFFFF;}
	.st13{fill:#F7B64C;}
	.st14{fill:#ADB3BA;}
	.st15{fill:#38A892;}
	.st16{fill:#ED9845;}
	.st17{fill:#2D4251;}
	.st18{fill:#304556;}
	.st19{fill:#A5AAAD;}
	.st20{fill:#2D4456;}
	.st21{fill:#4FB0E0;}
	.st22{fill:#2D4354;}
	.st23{fill:#E54C38;}
	.st24{fill:#2B4456;}
	.st25{fill:#2B404F;}
</style>
<g>
	<g>
		<g>
			<g>
				<path class="st2" d="M7.8,42.1l-1,0.2c0,0-0.1-0.4,0-1C7,40.8,8.2,40.3,9,40s3.9-0.8,5.9-0.5C16.8,39.8,17,40,17,40l0,0.9
					L7.8,42.1"/>
			</g>
			<g>
				<path class="st11" d="M9.2,43.5c0,0-2.1-0.2-2.3-0.9c-0.3-0.7,0.2-1.3,0.4-1.5c0.6-0.4,3.3-1.4,5.7-1.2s6,0.5,6,0.5l-1.6,4.2
					L9.2,43.5z"/>
			</g>
		</g>
		<g>
			<path class="st3" d="M17,40l0.6,2.5c0.2,0.7,0.7,1.2,1.3,1.5h0l-7.1-0.7c1.6-1.2,1.3-4.1,1.3-4.1L17,40z"/>
		</g>
		<g>
			<g>
				<path class="st6" d="M27,32.2l-8.2-3.5c0,0-3.3-1.4-5-0.3s-1.5,3.2-1.5,4.3c0,1.2-0.1,4.2-0.5,5.9c-0.4,1.7,0,3.8,0,3.8
					s1-1.9,2.7-2.1c2.4-0.2,3.1,0.9,3.1,0.9s1.4-4.2,1.1-5.6c0,0,0.9,1.5,3.5,2.3s3.6,0.9,3.6,0.9L27,32.2z"/>
			</g>
			<g>
				<g>
					<path class="st3" d="M28.6,14.5c0,0-0.3,0.7-1.1,1.3c-0.7,0.6-1,1.3-1.3,1.8c-0.3,0.5-0.7,1.1-0.8,1.5c-0.1,0.4-2,2.1-2.5,2.5
						c-0.5,0.4-0.9,0.9-1.4,1.3c-0.5,0.4-2,0.9-2,0.9s-0.2,3.1,0.2,3.6c0.4,0.5,1.9,0.9,2.6,0.7s0.8-0.2,1.2-0.4
						c0.4-0.2,0.5-0.3,1-0.6c0.5-0.3,3.1-2.6,3.1-2.6s0.3-4.8,0.4-6C28,17.3,28.6,14.5,28.6,14.5z"/>
				</g>
				<g>
					<g>
						<path class="st8" d="M34.2,8.4l0.1,1c0,0,0.3,1.3,0.6,1.8s0.3,0.5,0.3,0.5l-5.6,3.8c0,0-0.6-1.6-0.7-2.1c0,0-0.9,0.2-1.3-0.5
							s-0.6-1.1-1-1.6c-0.4-0.5-0.8-1.6-0.8-2.5s0.1-1.4-0.1-1.8s0-0.9,0-0.9s-0.3-1-0.2-1.8s0.5-2,0.9-2.4c0.3-0.5,4.7-1,5.7-0.3
							C33.1,2.1,34.2,6.8,34.2,8.4z"/>
					</g>
					<g>
						<path class="st2" d="M25.7,6c0,0.1-0.3-1.1,0-2c0.3-0.9,0.5-1.2,0.5-1.2s0.5-0.6,1.4-0.7s2.2,0.2,3,0c0.8-0.2,1.6,0.4,1.6,1.2
							s-0.2,1.3,0,1.7s0.4,2.2,0.4,2.2l0.2,0.1c0,0,0-0.8,0.4-1.4c0.4-0.6,0.7-0.2,0.7,0.2s0.1,2.6,0.3,3.2c0,0,0-2.7,0.1-4.1
							c0.1-1.4-0.3-3.5-1.3-4.2S30.8-0.1,29.2,0c-1.9,0.1-3.7,1.5-3.7,2.1c0,0.6,0.2,0.7,0.2,0.7S25,4.5,25.7,6z"/>
					</g>
					<g>
						<ellipse transform="matrix(0.9805 0.1967 -0.1967 0.9805 1.967 -6.4869)" class="st8" cx="33.6" cy="6.7" rx="0.6" ry="1.3"/>
					</g>
					<g>
						<path class="st13" d="M28.8,13.4c0.1,0.5,0.3,2.3,0.3,2.3l2.8-1.9c0.9-2.1,1.2-4,1.2-4C32.2,11.8,28.8,13.4,28.8,13.4z"/>
					</g>
				</g>
				<g>
					<path class="st14" d="M34.7,12.3l0.7,0.2c0,0,1.5,1.3,2.6,2s3.7,5.6,4.4,9.7s1.5,12.4,0.3,16.9c0,0-1.9-3.3-4.2-4.1
						c-2.3-0.8-6.4-1.3-6.4-1.3l-4.5-2.9c0,0,0.4-3.2,0-5.4c-0.4-2.2-0.8-5.5-0.6-6.9c0.2-1.4,0.6-4.2,1-4.9
						c0.4-0.8,0.9-1.7,0.9-1.7l0.6,1.8L34.7,12.3z"/>
				</g>
				<g>
					<path class="st4" d="M29.2,16.6l0.3,0.5c0,0,0.2,0.8,0,1.6s-0.7,2.1-0.7,2.9c0,0.8,0,11.4,0,11.4h-1.6c0,0,0.2-3.5,0.1-5.8
						s0.6-5.5,0.6-6.5c0.1-0.9-0.1-3,0-3.4L29.2,16.6z"/>
				</g>
				<g>
					<path class="st1" d="M34.6,10.6c0,0-0.2,0.6-0.7,0.8c-0.5,0.3-4.1,2.7-4.9,4c0,0,0.8,1.8,1.6,2.7c0,0,0.3-1.2,1.2-2.1
						c1-1,3.5-3,3.6-3.6C35.6,11.9,34.6,10.6,34.6,10.6z"/>
				</g>
				<g>
					<path class="st7" d="M28.9,15l0.2,0.5c0.3,0.1,0.7,0.4,0.7,0.4l0.3,0.9c0,0-1,1-2.1,0.5c0,0,0.2-0.9,0.3-1.2
						C28.3,15.8,28.9,15,28.9,15z"/>
				</g>
				<g>
					<path class="st3" d="M28.9,13.7l0.4,1.3l-1.1,1c0,0,0.3-0.9,0.5-1.4S28.9,13.7,28.9,13.7z"/>
				</g>
				<g>
					<path class="st3" d="M34.6,10.6c0,0-0.2,0.6-0.7,0.8c-0.5,0.3-4.1,2.7-4.9,4c0,0,0.8,1.8,1.6,2.7c0,0,0.3-1.2,1.2-2.1
						c1-1,3.5-3,3.6-3.6C35.6,11.9,34.6,10.6,34.6,10.6z"/>
				</g>
				<g>
					<path class="st2" d="M16.5,29.1v0.8c0,0,0,0,0,0c0,0,0.5,0,0.6,0c0.4,0,8.1,0.2,10.5,0.3c0.4,0,0.7-0.3,0.8-0.7l0-0.1
						L16.5,29.1z"/>
				</g>
				<g>
					<polygon class="st11" points="28.4,29.4 20,27.8 15.2,27.8 16.8,29.3 					"/>
				</g>
				<g>
					<path class="st3" d="M31,23.7c0,0,0.1-3.3,2.5-4.6s4.2,0.4,4.9,1.4c0.1,0.1,0.2,0.3,0.3,0.5c1,2.1,0.9,4.5-0.2,6.6
						c-0.5,0.9-1.1,1.9-1.6,2.7c-1.2,1.9-4,6.6-5.3,7s-5.2-0.6-6.9-1.6s-4.9-2.4-4.9-2.4s0-1.3,0.4-2.2c0.4-0.9,0.5-0.9,0.5-0.9
						s3.5,1.1,3.9,1.1c0.4,0,1.8,0.2,2.5,0.4c0.8,0.2,1.9,0.1,1.9,0.1s0.1-0.3,0.4-0.7c0.3-0.4,0.2-0.6,0.2-0.9
						c0-0.3,0.1-0.8,0.1-1.2c0.1-0.4,0.5-3,0.9-3.7C30.9,24.6,31,23.7,31,23.7z"/>
				</g>
				<g>
					<g>
						<path class="st8" d="M22.6,27.6c-0.2,0.1-0.9,0.3-1.4-0.2c0,0-0.6,0-0.8-0.3c0,0-0.2,0.1-0.5,0c-0.3-0.1-0.7-0.2-1.1-0.4
							c-0.1-0.1-0.2-0.1-0.2-0.1c0,0,0-0.3,0.1-0.5c0,0,0,0,0,0c-0.1,0.1-0.2,0.3-0.3,0.3c0,0-0.1,0.1-0.1,0.1c0,0-0.1,0-0.1,0
							l-2.1-0.8c0,0,0.8-0.6,1.2-0.9c0.4-0.3,0.7-0.6,1-0.6c0.3,0,1-0.3,1-0.3s1.3-0.1,2.3,0.6c0,0,0.2,0.3,0.2,0.7
							c0,0.4,0.1,0.8,0.1,1c0,0.2,0.1,0.4,0.1,0.4s0.4,0,0.6,0.2C22.9,27.1,22.8,27.5,22.6,27.6z"/>
					</g>
					<g>
						<path class="st13" d="M21.1,27.4c0.5,0.5,1.2,0.3,1.4,0.2c0,0,0,0,0,0c-0.1,0-0.1,0-0.2,0c-0.6,0.1-0.8-0.1-1.1-0.2
							c-0.2-0.1-0.5-0.7-0.4-0.9c0.1-0.2,0.5-0.7,0.5-0.7s0,0-0.2,0.2c-0.2,0.2-0.3,0.4-0.5,0.8c-0.2,0.3-0.6-0.2-0.6-0.3
							c0-0.2,0.3-0.4,0.6-0.7c0,0-0.2,0.1-0.5,0.4c-0.3,0.3-0.8,0.9-0.8,0.9c0.1,0,0.3,0.1,0.4,0.1c0.3,0.1,0.5,0,0.5,0
							C20.5,27.3,21.1,27.4,21.1,27.4z"/>
					</g>
					<g>
						<path class="st8" d="M18.8,26.6L18.8,26.6l-0.4,0c0,0-0.2,0.4-0.3,0.5s-0.3,0.3-0.3,0.4c0,0.1-0.2,0.4-0.1,0.6
							c0.1,0.2,0.5,0.2,0.8,0c0.2-0.2,0.5-0.7,0.6-0.8s0.2-0.3,0.2-0.3l0.1-0.7L18.8,26.6z"/>
					</g>
					<g>
						<path class="st8" d="M18.1,26.2l0.1,0.2c0,0-0.3,0.4-0.5,0.6c-0.2,0.2-0.3,0.4-0.4,0.6c-0.1,0.1-0.4,0.7-0.8,0.6
							c-0.4,0-0.4-0.2-0.4-0.3c0,0-0.2,0-0.2-0.2c0-0.2,0-0.2,0-0.2l0,0c0,0-0.3-0.1-0.3-0.6c0-0.2,0-0.3,0.1-0.5s0-0.7,0.4-0.8
							s0.4-0.1,0.4-0.1L18.1,26.2z"/>
					</g>
					<path class="st12" d="M16.1,27.4c-0.1,0.1-0.1,0.2-0.2,0.3c0,0.2,0.2,0.2,0.2,0.2l0,0c0.1-0.2,0.2-0.5,0.2-0.5
						S16.3,27.2,16.1,27.4z"/>
					<g>
						<path class="st12" d="M16.2,27.9c0,0,0.2-0.1,0.5,0c0.2,0,0.2-0.3,0.2-0.4c0-0.1-0.4-0.1-0.5,0C16.3,27.5,16.2,27.7,16.2,27.9
							z"/>
					</g>
					<g>
						<g>
							<path class="st13" d="M16.1,27.9c0,0,0-0.1,0-0.1c0,0,0-0.1,0.1-0.2c0-0.1,0.1-0.1,0.1-0.2c0.1-0.1,0.2-0.3,0.3-0.5
								c0-0.1,0.1-0.2,0.1-0.3c0-0.1,0.1-0.2,0.1-0.3c0.1-0.2,0.2-0.4,0.3-0.6c0.1-0.2,0.3-0.3,0.4-0.4C17.8,25.1,18,25,18,25
								s-0.2,0.2-0.4,0.4c-0.2,0.2-0.5,0.6-0.6,1c0,0.1-0.1,0.2-0.1,0.3c0,0.1-0.1,0.2-0.1,0.3c-0.1,0.2-0.2,0.3-0.3,0.5
								c0,0.1-0.1,0.1-0.1,0.2c0,0.1-0.1,0.1-0.1,0.1C16.2,27.9,16.1,27.9,16.1,27.9z"/>
						</g>
						<g>
							<path class="st13" d="M15.9,27.5c0,0,0-0.1,0-0.3c0-0.1,0-0.2,0.1-0.4c0-0.1,0.1-0.3,0.1-0.4c0.1-0.3,0.2-0.5,0.3-0.7
								c0.1-0.2,0.2-0.3,0.2-0.3s-0.1,0.1-0.2,0.3c-0.1,0.2-0.2,0.4-0.3,0.7C16.1,26.7,16,27,16,27.2C15.9,27.4,15.9,27.5,15.9,27.5
								z"/>
						</g>
					</g>
					<g>
						<path class="st12" d="M18,27.6c0,0,0.1-0.1,0.3,0c0.2,0.1,0.1,0.2,0.1,0.3S18.1,28.1,18,28C17.8,28,17.8,27.9,18,27.6z"/>
					</g>
				</g>
				<g>
					<g>
						<polygon class="st3" points="5.8,17.5 4.5,17.7 9.3,28.4 16.6,29.9 11.5,18 						"/>
					</g>
					<g>
						<path class="st3" d="M13.1,28.2c0,0,0.5,0.9,0.5,1l-2.9-0.6c0-0.1,0-0.2,0-0.2l-0.2-0.7c0,0,0.3-0.3,0.5,0
							c0,0-0.1-0.4-0.1-0.5c0-0.1-0.2-0.8-0.2-0.8s0.2-0.2,0.4-0.1c0,0,0.7-0.6,0.9,0.6c0,0,0.5-0.3,0.8,0.2
							C13.1,27.8,13.1,28.2,13.1,28.2z"/>
						<polygon class="st3" points="16.6,29.9 16.5,29.9 16.6,29.9 						"/>
					</g>
					<g>
						<path class="st1" d="M10.7,17.9l1,0l5.3,11.8c0,0-0.3,0.3-0.4,0.2l-5.1-11.7l-0.5-0.3L10.7,17.9z"/>
					</g>
					<g>
						<path class="st5" d="M4.5,17.7c0,0,0.1-0.4,0.3-0.4c0.2,0,6.8,0.6,6.8,0.6s-0.3,0.1-0.3,0.3L4.5,17.7z"/>
					</g>
				</g>
				<g>
					<g>
						<path class="st8" d="M20.9,30.5l-1.1,2.7c0,0-1.2-0.6-1.6-0.8c-0.4-0.3-1.1-0.4-1.6-0.5c-0.5-0.1-2.1-0.1-2.5-0.4
							c-0.1-0.1-0.2-0.1-0.2-0.1c0,0-0.3,0.1-0.5-0.1c-0.2-0.2-0.9-1.1-0.9-1.1S12.2,30.1,12,30c0,0-0.2,0.1-0.4-0.1
							c-0.3-0.2-0.9-0.8-1-1c0-0.1,0-0.2,0-0.2c0-0.1,0-0.2,0-0.2l-0.2-0.7c0,0,0.3-0.3,0.5,0c0,0-0.1-0.4-0.1-0.5
							c0-0.1-0.2-0.8-0.2-0.8s0.2-0.2,0.4-0.1c0,0,0.7-0.6,0.9,0.6c0,0,0.5-0.3,0.8,0.2c0.3,0.5,0.3,1,0.3,1s0.5,0.9,0.5,1
							c0,0,0.5,0.3,0.7,0.4c0.2,0.1,0.7,0.3,0.7,0.3s0.2-0.2,0.3-0.3h0l0.8,0.2l0.4,0.1c0.1,0,0.1,0,0.1,0c0,0,0,0,0,0
							c0,0,0,0,0.1,0h0c0.2,0,1.6,0,3.3,0.1L20.9,30.5z"/>
					</g>
					<g>
						<g>
							<g>
								<path class="st13" d="M12,27c0,0,0.1,0.3,0.2,0.7c0.1,0.4,0.2,0.9,0.3,1.4l0.1,0.4c0,0.1,0.1,0.2,0.2,0.3
									c0.2,0.2,0.3,0.4,0.4,0.5c0.2,0.3,0.4,0.5,0.4,0.5s-0.2-0.2-0.5-0.5c-0.1-0.1-0.3-0.3-0.5-0.5c-0.1-0.1-0.2-0.2-0.2-0.4
									l-0.1-0.4c-0.1-0.5-0.2-1.1-0.2-1.5C12,27.3,12,27,12,27z"/>
							</g>
						</g>
						<g>
							<g>
								<path class="st13" d="M12.5,30.2c-0.2-0.2-0.4-0.4-0.6-0.6c-0.1-0.1-0.2-0.2-0.3-0.3c-0.1-0.2-0.1-0.3-0.1-0.4
									c-0.1-0.3-0.1-0.6-0.2-0.8l-0.1-0.4c0-0.1,0-0.2,0-0.2l0-0.2l0,0c0-0.2-0.1-0.5-0.1-0.7c0.1,0.2,0.2,0.5,0.2,0.7l0,0l0,0
									l0,0.2c0,0.1,0,0.2,0,0.2l0.1,0.4c0.1,0.3,0.1,0.6,0.2,0.8c0,0.1,0,0.3,0.1,0.4c0.1,0.1,0.1,0.2,0.2,0.3
									C12.1,29.7,12.3,30,12.5,30.2z"/>
							</g>
						</g>
						<g>
							<g>
								<path class="st13" d="M12,29.9c0,0-0.2,0-0.4-0.2c-0.1-0.1-0.2-0.1-0.4-0.3c0,0-0.1-0.1-0.1-0.1l0-0.1l-0.1-0.2
									C11,28.7,11,28.4,11,28.2c0-0.2,0-0.4,0-0.4s0.1,0.2,0.1,0.4c0,0.1,0,0.1,0.1,0.2c0,0.1,0.1,0.1,0.1,0.2
									c0,0.1,0.1,0.3,0.1,0.5l0.1,0.2c0,0.1,0,0.1,0.1,0.2c0.1,0.1,0.2,0.2,0.3,0.3C11.9,29.8,12,29.9,12,29.9z"/>
							</g>
						</g>
					</g>
					<path class="st13" d="M14.2,29.6c-0.2-0.1-0.6-0.3-0.6-0.4c0.1,0.4,1,1.3,1.3,1.4c0.4,0.1,0.3,0.1,0.5,0.1
						c0.2,0,0.3,0.1,0.3,0.1c0,0-0.1-0.1-0.1-0.1c0.1,0,0.6,0.1,0.6,0.1c-0.2,0-0.5-0.2-0.6-0.2c-0.1,0-0.5,0-0.6-0.2
						c-0.1-0.2,0.1-0.6,0.1-0.6S14.4,29.7,14.2,29.6z"/>
				</g>
			</g>
			<g>
				<path class="st0" d="M16.3,42.2l3.6,3.8c0,0,2.4-1.5,2.7-2.1c0,0,2.3-0.6,2.5-2.1c0,0,2.7,3.8,7.9,3.9c5.2,0.1,7.5-0.4,8.3-2
					s1.5-2.6,1.5-2.6s-1.3-2.8-3.7-4.2c-2.4-1.4-5.6-1-5.6-1s-1.4,0.2-3.3-0.3s-3.1-1.4-5-1.9s-3.5-0.3-4.6,0.8
					c-1.1,1.1-1.5,2.5-1.5,3.2C18.9,38.4,17.8,41.1,16.3,42.2z"/>
			</g>
			<g>
				<g>
					<path class="st6" d="M25.5,39c0,0.3-0.2,0.6-0.3,0.9c-0.1,0.2-0.2,0.3-0.3,0.5c-0.1,0.1-0.2,0.2-0.3,0.3
						c-0.2,0.1-0.3,0.2-0.3,0.2c0,0,0,0,0,0.1c0.1,0.1,0.3,0.2,0.4,0.3c0.2,0.1,0.3,0.3,0.4,0.4c0.1,0.1,0.1,0.1,0.1,0.2
						c0,0-0.1-0.1-0.1-0.1c-0.1-0.1-0.2-0.2-0.4-0.3c-0.2-0.1-0.4-0.2-0.7-0.3c-0.3-0.1-0.6-0.2-0.8-0.4c-0.5-0.3-1-0.8-1.2-1.2
						c-0.1-0.2-0.2-0.4-0.2-0.5c0-0.1,0-0.2,0-0.2s0,0.1,0,0.2c0,0.1,0.1,0.3,0.2,0.5c0.1,0.2,0.3,0.4,0.5,0.6
						c0.2,0.2,0.5,0.4,0.7,0.5c0.3,0.2,0.5,0.3,0.8,0.4c0.1,0,0.1,0.1,0.2,0.1c0-0.1-0.1-0.1-0.2-0.2c-0.2-0.2-0.4-0.6-0.5-1
						c-0.1-0.4-0.2-0.8-0.2-1.1c0-0.2,0-0.3,0-0.4c0-0.1,0-0.1,0-0.1c0,0,0,0.1,0,0.1c0,0.1,0,0.2,0,0.4c0,0.1,0.1,0.3,0.1,0.5
						c0.1,0.2,0.1,0.4,0.2,0.6c0.1,0.4,0.3,0.7,0.5,1c0.1,0.1,0.1,0.2,0.1,0.3c0,0,0.1-0.1,0.3-0.3c0.2-0.2,0.3-0.5,0.5-0.8
						c0.1-0.3,0.3-0.6,0.4-0.9c0.1-0.2,0.1-0.4,0.1-0.4S25.5,38.7,25.5,39z"/>
				</g>
			</g>
		</g>
		<g>
			<g>
				<path class="st2" d="M18.1,43.3l-0.9-0.2c0,0-1.1,0.4-2.1,0.1c-0.9-0.2-1-0.8-2.9-1.1s-5.5,1.1-5.6,1.4S6.1,45.2,7,46
					s4.9,2.4,7.1,1.9s3.2-0.7,3.5-0.8s0.7-0.1,0.7-0.1L18.1,43.3z"/>
			</g>
			<g>
				<path class="st11" d="M17.2,43.1c0,0,1.1,2.6,0.5,4c0,0,2.6,0.1,3.3-0.9s0.5-2.6-0.4-3.1C19.7,42.6,17.2,43.1,17.2,43.1z"/>
			</g>
		</g>
	</g>
</g>
</svg>
