<?xml version="1.0" encoding="utf-8"?>
<!-- Generator: Adobe Illustrator 18.0.0, SVG Export Plug-In . SVG Version: 6.00 Build 0)  -->
<!DOCTYPE svg PUBLIC "-//W3C//DTD SVG 1.1//EN" "http://www.w3.org/Graphics/SVG/1.1/DTD/svg11.dtd">
<svg version="1.1" id="Layer_1" xmlns="http://www.w3.org/2000/svg" xmlns:xlink="http://www.w3.org/1999/xlink" x="0px" y="0px"
	 viewBox="0 0 48 48" enable-background="new 0 0 48 48" xml:space="preserve">
<g>
	<g>
		<g>
			<g>
				<g>
					<polygon fill="#FFD15C" points="23,42.1 22.4,43.8 24.3,44.6 24.8,42.5 					"/>
				</g>
			</g>
		</g>
		<g>
			<g>
				<g>
					<g>
						<path fill="#425A6B" d="M19,44.4c0,0-0.1,0.3,0.1,0.6c0.2,0.3,2.3,0.4,3.4,0.1c1.1-0.3,2.1,0,2.1,0l0.6-0.7l-1.5-0.4L19,44.4z
							"/>
					</g>
				</g>
			</g>
			<g>
				<g>
					<g>
						<path fill="#344A5E" d="M19.3,44.8c0.4,0.1,1.4,0.2,2.1,0.1c0.7-0.1,2.3-0.5,3-0.3c0.7,0.2,0.4-1.1,0.4-1.1s-1.5,0.2-2.2-0.7
							c0,0-0.5,0.6-1,0.8c-0.5,0.2-1.7,0.5-2.3,0.4C18.9,44.1,19,44.7,19.3,44.8z"/>
					</g>
				</g>
			</g>
		</g>
		<g>
			<g>
				<g>
					<g>
						<path fill="#425A6B" d="M24.3,46.7c0,0-0.2,0.7,0.4,1c0.6,0.4,2.8,0.6,2.4-0.9c-0.3-1.5-1-1.1-1-1.1l-1.8,0.9"/>
					</g>
				</g>
			</g>
			<g>
				<g>
					<g>
						<path fill="#344A5E" d="M24.2,44.9c0,0,0.2,0.4,0.2,0.8c0,0.3-0.3,1.1-0.1,1.5c0.3,0.5,1.4,0.7,2.1,0.4
							c0.7-0.3,0.7-0.7,0.4-1.3c-0.2-0.6-0.5-2.1-0.5-2.1L24.2,44.9z"/>
					</g>
				</g>
			</g>
		</g>
		<g>
			<g>
				<g>
					<g>
						<g>
							<path fill="#425A6B" d="M20.9,22.2L20,23.6c0,0,0.1,3.6,0.4,6.1c0.3,2.5,1.1,4.7,1.2,4.8C21.7,34.6,22,42,22,42
								s1.4,1.6,3.2,1c0,0,0.2-9.5,0.2-9.7c0-0.2-1.6-11.7-1.6-11.7C23.5,20,22.4,10.5,20.9,22.2z"/>
						</g>
					</g>
				</g>
				<g>
					<g>
						<g>
							<path fill="#425A6B" d="M25.4,33.3c0,0.2-0.2,9.7-0.2,9.7c-0.7,0.3-1.4,0.1-2-0.1C22.5,42.5,22,42,22,42s-0.3-7.4-0.4-7.5
								c-0.1-0.1-0.8-2.3-1.2-4.8c-0.3-2.5-0.4-6.1-0.4-6.1l0.9-1.4c1.6-11.8,2.6-2.2,2.9-0.6c0,0,0.3,1.8,0.6,4.1
								C24.8,29,25.4,33.1,25.4,33.3z"/>
						</g>
					</g>
				</g>
				<g>
					<g>
						<g>
							<path fill="#344A5E" d="M25.4,33.3c0,0.2-0.2,9.7-0.2,9.7c-0.7,0.3-1.4,0.1-2-0.1c0-0.2,0.1-0.4,0.1-0.6
								c0.4-1,0.7-7.3,0.6-8.4c-0.2-1.1-0.5-4.2-0.4-5.1c0-1,0.5-2.7,0.5-2.7l0.4-0.3C24.8,29,25.4,33.1,25.4,33.3z"/>
						</g>
					</g>
				</g>
				<g>
					<g>
						<g>
							<path fill="#425A6B" d="M28.1,23.4c0,0,0.5,1.6,0.2,2.9c-0.3,1.3-1.2,4-1.2,4.9c0,0.9,0.2,2.2,0.4,2.8
								c0.3,0.6-0.7,8.8-0.7,8.8l-0.2,2.6c0,0-1.8-0.8-2.7,0c0,0-0.3-2,0-3.1c0.3-1.1,0.4-7.9,0.2-9.1c-0.2-1.2-0.6-4.5-0.7-5.5
								c0-1.1-0.3-2.6-0.3-2.6l2.5-1.6H28.1z"/>
						</g>
					</g>
				</g>
			</g>
			<g>
				<g>
					<g>
						<path fill="#67C5B8" d="M20.2,22.2c0,0,3.4,0.2,6.1-0.8c2.7-1-4.6-5.4-4.6-5.4L20,22.2"/>
					</g>
				</g>
			</g>
			<g>
				<g>
					<g>
						<g>
							<path fill="#FFD15C" d="M26.5,4.5c0,0.3-0.4,1-0.3,1.3C26.3,6.1,26.6,7,26.6,7l-1.4,1.6l-2.6,1L23,7.3c0,0,0.2-0.4,0-1.1
								c0-0.2-0.1-0.3-0.2-0.5c-0.1-0.2-0.2-0.5-0.2-0.8c-0.2-1.1,0-2.5,0-2.5s1.1-3,3.7-1.1c0,0,0.8,0.6,0.6,1.4
								C26.8,3.4,26.6,4.2,26.5,4.5z"/>
						</g>
					</g>
				</g>
				<g>
					<g>
						<g>
							<path fill="#F5B54C" d="M26.2,5.8c0,0-0.1,0.8-1.5,1.1C24,7,23.5,7,23.1,7c0-0.2,0-0.4-0.1-0.8c0-0.2-0.1-0.3-0.2-0.5
								c-0.1-0.2-0.2-0.5-0.2-0.8l0.2,0.3c0.4,0.5,0.9,0.9,1.4,1.1c0.1,0.1,0.3,0.1,0.4,0.1C25.4,6.6,26,6.1,26.2,5.8z"/>
						</g>
					</g>
				</g>
			</g>
			<g>
				<g>
					<g>
						<path fill="#67C5B8" d="M25.4,7.8v6.7l-3.8,1.8V8.6L22.8,8c0.5,0.9,1.3,0.8,2.1,0.1C25.1,8,25.3,7.9,25.4,7.8z"/>
					</g>
				</g>
			</g>
			<g>
				<g>
					<g>
						<ellipse fill="#344A5E" cx="20.8" cy="12.4" rx="0.8" ry="1.4"/>
					</g>
				</g>
			</g>
			<g>
				<g>
					<g>
						<path fill="#344A5E" d="M23,10.4l-0.1,1.7l0,1.3l-1.1,8l0,0.2c0,0,0.2,1.6-0.4,2.3c-0.6,0.7-2.9,0.7-2.9,0.7s1.4-5.7,2-7
							c0.5-1.3,0.5-4.8,0.4-5.7c-0.8-1.3-0.9-2.6-0.2-3.8c0.6-0.1,2.3-0.8,2.3-0.8L23,10.4z"/>
					</g>
				</g>
			</g>
			<g>
				<g>
					<path fill="#2E4454" d="M22.9,12.1l0,1.3l-1.1,8c-0.1-2.7,0.2-5.4,0.8-8.1l0.1-0.3C22.6,13,22.7,12.7,22.9,12.1z"/>
				</g>
			</g>
			<g>
				<g>
					<g>
						<path fill="#344A5E" d="M26.9,6.6c0,0,1.5,0.3,2,0.5c0.4,0.2,1.4,1,1.1,2.6s-0.9,3.5-1,3.9c-0.1,0.4-0.7,3.4-0.6,5
							c0.1,1.5,0.7,5.8,0.7,6.1c0,0-0.8-0.5-2-0.2c-1.2,0.3-4.4,0.2-4.7-0.1c-0.1-0.1-0.2-0.7-0.2-1.6c-0.2-3.1,0.1-6.3,0.7-9.3
							l0.1-0.3C22.9,13.2,24.4,7.3,26.9,6.6z"/>
					</g>
				</g>
			</g>
			<g>
				<g>
					<g>
						<path fill="#FFD15C" d="M23.4,14.7c0,0,1.3,0,1.8-0.7c0.5-0.7,0-1.8,0-1.8l-2.6,1.1L23.4,14.7z"/>
					</g>
				</g>
			</g>
			<g>
				<g>
					<g>
						<path fill="#425A6B" d="M23.1,7c0,0,0.1,2.3,0.1,2.8s0,4.4,0,4.4s-0.2-2.7-0.7-3.5c-0.5-0.8-1-1.5-1-1.5l0.7-0.5l-1-0.4
							C21.2,8.3,23.1,7.4,23.1,7z"/>
					</g>
				</g>
			</g>
			<g>
				<g>
					<g>
						<path fill="#425A6B" d="M26.2,5.8c0,0-0.8,1.3-1.3,1.8c-0.5,0.4-2.1,2.9-2.1,5c0,2,0,2,0,2s0.6-3.4,1.3-4.3
							c0.7-0.9,2.1-2.1,2.1-2.1l-0.2-0.5l1.3-0.6L26.2,5.8z"/>
					</g>
				</g>
			</g>
			<g>
				<g>
					<g>
						<path fill="#425A6B" d="M23.5,14.8c0,0-1.5,0.3-2.4,0.4c-1,0.1-2.2,0.5-2.7-0.2c-0.6-0.7-0.4-2.6-0.1-3
							c0.3-0.4,0.9-1.6,1.1-2.2c0.2-0.5,1.2-1.7,1.2-1.7c-0.7,1.2-0.5,2.5,0.2,3.8c0,0,0,0.1,0,0.1c0,0,0,0,0,0.1c0,0,0,0,0,0
							c0,0-0.1,0.1-0.1,0.1c-0.1,0.2-0.3,0.3-0.3,0.3c0,0,0.1,0,0.2,0c0.1,0,0.2,0,0.3,0c0.4,0.1,2.6-0.3,2.6-0.3
							c-0.2,0.4,0,1.9,0.1,2.4C23.5,14.7,23.5,14.8,23.5,14.8z"/>
					</g>
				</g>
			</g>
			<g>
				<g>
					<g>
						<path fill="#344A5E" d="M20.7,12.1c0,0-0.1,0.1-0.1,0.1C20.6,12.2,20.7,12.2,20.7,12.1z"/>
					</g>
				</g>
				<g>
					<g>
						<path fill="#344A5E" d="M23.5,14.6c-0.3,0-0.6,0-0.9,0c-0.5,0-0.9,0-1.1,0c-0.1,0-0.2,0-0.2,0c-0.3,0-0.8-0.4-0.9-0.4
							l-0.1-0.1l0-0.1c-0.1-0.7,0-1.2,0.2-1.5c0.1,0,0.2,0,0.3,0c0.4,0.1,2.6-0.3,2.6-0.3C23.1,12.6,23.4,14.1,23.5,14.6z"/>
					</g>
				</g>
			</g>
			<g>
				<g>
					<g>
						<path fill="#425A6B" d="M30,9.7C30,9.7,30,9.7,30,9.7c-0.1,0.5-0.3,0.9-0.6,1.3c-0.7,0.9-1.5,1.8-1.8,2.1
							c-0.5,0.5-2.5,1-3.2,1.1c-0.3,0-1.1,0.1-1.9,0.1c-0.6,0-1.2,0-1.3,0c-0.3,0-0.7-0.4-0.7-0.4c-0.3-1.5,0.7-2.1,0.7-2.1l2.1-0.5
							l0.9-0.2c0,0,0.8-0.2,1.2-0.4c0.3-0.2,1.6-2,1.6-2c0-0.5,0.4-1,0.7-1.4C28,7,28.5,6.9,28.9,7.1c0,0,0,0,0,0
							C29.4,7.3,30.3,8.1,30,9.7z"/>
					</g>
				</g>
			</g>
		</g>
	</g>
	<g>
		<g>
			<g>
				<path fill="#425A6B" d="M23.2,3.6c0,0-0.1-0.8,0.1-1c0.2-0.2,0.4-0.8,0.4-1.1S24.5,0.7,25,1c0.6,0.3,1.6,0.8,1.7,0.9
					c0.1,0,0.1,0.3,0,0.8C26.6,3,26.6,4,26.6,4s0.5-0.7,0.5-1.2c0.1-0.6,0-1.6-1-2.3c-1-0.7-2.3-0.4-3,0.1c-0.5,0.4-0.8,2-0.8,2.5
					c0,0.5,0.1,0.6,0.1,0.6L22.8,3L23,3.6L23.2,3.6z"/>
			</g>
		</g>
	</g>
	<g>
		<g>
			<g>
				
					<ellipse transform="matrix(0.9952 -9.758943e-002 9.758943e-002 0.9952 -0.2265 2.219)" fill="#FFD15C" cx="22.6" cy="3.4" rx="0.4" ry="0.7"/>
			</g>
		</g>
	</g>
</g>
</svg>
