<?xml version="1.0" encoding="utf-8"?>
<!-- Generator: Adobe Illustrator 19.0.1, SVG Export Plug-In . SVG Version: 6.00 Build 0)  -->
<svg version="1.1" id="Layer_1" xmlns="http://www.w3.org/2000/svg" xmlns:xlink="http://www.w3.org/1999/xlink" x="0px" y="0px"
	 viewBox="0 0 48 48" style="enable-background:new 0 0 48 48;" xml:space="preserve">
<style type="text/css">
	.st0{fill:#66C6B9;}
	.st1{fill:#F3F3F3;}
	.st2{fill:#415A6B;}
	.st3{fill:#CED6E0;}
	.st4{fill:#F3705A;}
	.st5{fill:#E8EAE9;}
	.st6{fill:#4ABAA5;}
	.st7{fill:#F05540;}
	.st8{fill:#FFD15C;}
	.st9{fill:#55C0EB;}
	.st10{fill:#8AD7F8;}
	.st11{fill:#344A5E;}
	.st12{fill:#FFFFFF;}
	.st13{fill:#F7B64C;}
	.st14{fill:#ADB3BA;}
	.st15{fill:#38A892;}
	.st16{fill:#ED9845;}
	.st17{fill:#2D4251;}
	.st18{fill:#304556;}
	.st19{fill:#A5AAAD;}
	.st20{fill:#2D4456;}
	.st21{fill:#4FB0E0;}
	.st22{fill:#2D4354;}
	.st23{fill:#E54C38;}
	.st24{fill:#2B4456;}
	.st25{fill:#2B404F;}
</style>
<g>
	<g>
		<g>
			<g>
				<g>
					<rect x="29.3" y="43.3" class="st13" width="4.2" height="2.9"/>
				</g>
				<g>
					<path class="st2" d="M9,48c-0.8-3.5-2.9-11.7-4.2-15.9C5,25.8,3.5,22.7,1,22.2c0,0-0.9-0.1-1,3.3c-0.1,3.1,0.9,17,2.1,22.5H9z"
						/>
				</g>
				<g>
					<path class="st11" d="M5.7,37.7c0.2,1-0.1,6.9-0.4,9.4c0,0.1,0,0.5-0.1,0.9h24.7l-0.1-6l2.4-8.6l-1.1-9c-0.3-2.2-1.9-4-4-4.5
						c-1.9-0.5-3.9-1-4.4-1.2c-0.1,0-0.1,0-0.1,0l-10.4,7.9l-2.1-7.4l-2.5-0.4L1,22.2C1.8,23,4.6,31,4.6,31S5.5,36.7,5.7,37.7z"/>
				</g>
				<g>
					<path class="st3" d="M16,19.5l0.2-0.1l2.9-1.5l0.5-0.6l1.9,2.4c0,0-1.7,12.4-2.9,15.5c-1.2,3.1-1.2,3.1-1.2,3.1
						s-2.2-4.9-3.3-6.2S9,25.6,9.4,22.5s1.8-3.7,1.8-3.7"/>
				</g>
				<g>
					<path class="st8" d="M10.4,19.8h8.2l0.4-4c0,0,0.3-0.2,0.9-1.6c0.5-1.4,0.4-3.7,0.4-3.7s2.8-5.5-1.4-7C14.6,1.9,11,5.8,11,5.8
						l0,6.5c0,0,0.1,1.4,0.3,2L10.4,19.8z"/>
				</g>
				<g>
					<g>
						<path class="st4" d="M15.3,20.7l0.2,1c0,0,0.9,1.8,1.1,2.8c0.2,1,1.9,9.3,1.9,9.3l-1.2,4.6l-1.5-4.2c0,0-1.1-7.2-1.3-8.4
							s-0.5-2.4-0.3-2.9s0.3-1.2,0.3-1.2l0.2-1H15.3z"/>
					</g>
					<g>
						<path class="st7" d="M14.1,19.4l0.8,0.1l1,0l0.8,0.8c0,0-1.1,0.7-1.2,1.4c0-0.2-1-0.2-1,0c0,0-0.8-0.8-1.2-1
							C13,20.6,14.1,19.4,14.1,19.4z"/>
					</g>
				</g>
				<g>
					<g>
						<ellipse transform="matrix(0.993 -0.1179 0.1179 0.993 -1.1219 1.3097)" class="st8" cx="10.5" cy="10.1" rx="0.8" ry="2.1"/>
					</g>
					<g>
						
							<ellipse transform="matrix(-0.993 -0.1179 0.1179 -0.993 38.9011 23.6312)" class="st8" cx="20.1" cy="10.7" rx="0.8" ry="2.1"/>
					</g>
				</g>
				<g>
					<path class="st2" d="M11,12.3h0.5c0,0-0.2-1.8,0.2-2.8c0.4-1,0.9-1.6,0.7-2.6s0-1.3,0.4-1.4c0,0,1.3,0.6,2.7,0s1.7-1.3,2.4-1.2
						c0.7,0.1,2,0.4,2.2,0.9c0.2,0.5,0.3,1.5,0.2,2.5c-0.2,1.1,0.1,4,0.1,4l0.2-0.1c0,0,0.1-1.3,0.4-2.1c1.5-1.9,1.6-7-0.4-5.9
						c0,0-0.4-3-4.8-3.6s-6.1,4.8-6,6.2c0,1.4,1.1,2.9,1.1,3.4C10.7,10.1,11,12.3,11,12.3z"/>
				</g>
				<g>
					<path class="st2" d="M19.1,16c0,0,0.8,2,1,3.4c0.2,1.4,0.1,6-0.3,7.5c-0.4,1.5-1.9,8.3-2.2,10c-0.4,1.7-0.9,4.5-0.9,6.1
						c0,0,0.4-4.2,1.3-6s4.2-8.2,5.5-10.9c1.3-2.7,1.9-5,1.9-5l-1.6-1l0.5-0.4c0,0-0.7-1-1.6-1.3c-0.9-0.3-1.2-0.5-1.6-1.1
						C20.8,16.6,20.1,16,19.1,16z"/>
				</g>
				<g>
					<g>
						<path class="st1" d="M19,15.9c0,0-0.1,0.7-0.7,1.6c-0.6,0.9-2.4,2.1-2.4,2.1l2,3.6c0,0,0.7-1.4,1.4-2.4s0.5-2.4,0.4-3.1
							C19.5,16.8,19,15.9,19,15.9z"/>
					</g>
					<g>
						<path class="st1" d="M14.9,19.5c0,0-0.4,0.1-1,1.2c-0.5,1-1.1,3.1-1.1,3.1s-2.2-3.9-2.8-4.6c-0.5-0.7-0.4-1.6-0.4-1.6
							s0.6-0.2,0.8-1.2c0.3-0.9,0.7-1.6,0.7-1.6s0,1.6,0.8,2.6S14.9,19.5,14.9,19.5z"/>
					</g>
				</g>
				<g>
					<path class="st2" d="M17.2,39.1C17.2,39,17.2,39,17.2,39.1c0-0.1,0.1-0.2,0.1-0.3c0,0,0,0,0-0.1c-0.1-1.1-0.2-2.2-0.5-2.9
						c-0.8-1.7-2.8-6.6-3.8-9.4C12,23.7,10.6,16,10.6,16c-0.4-0.1-1.4,1.1-1.9,1.8c-0.5,0.7-1,0.7-1.3,1.3c-0.3,0.5-0.7,1.5-0.7,1.5
						L7.6,21L6,21.9c1.3,3,8.2,11.2,9.8,13.8c0.7,1.2,1.1,2.6,1.3,3.7C17.2,39.3,17.2,39.2,17.2,39.1z"/>
				</g>
				<g>
					<path class="st3" d="M13.3,44.1L13.3,44.1c0,0.4,0.3,0.8,0.7,0.9l8.9,1.9l2.1-3.2L13.3,44.1z"/>
				</g>
				<g>
					<polygon class="st14" points="22.6,46.3 13.3,44.1 28,40.2 31.4,43.4 					"/>
				</g>
				<g>
					<path class="st5" d="M23.2,47l18.3-5c0.2,0,0.3-0.2,0.3-0.4l1.9-13.9c0-0.3-0.2-0.6-0.5-0.5l-18.8,4.1c-0.2,0-0.3,0.2-0.3,0.4
						l-1.4,14.8C22.6,46.8,22.9,47.1,23.2,47z"/>
				</g>
				<g>
					<path class="st8" d="M25.8,46.2l3.2-0.9c0,0,0-1.5,0.1-1.9c0.1-0.4,0.5-0.5,0.7-0.5s0.5,0.3,0.5,0.5c0.1,0.2,0,1.3-0.1,1.5
						c0,0.2,0.1,0.7,0.1,0.7s0.2-0.9,0.3-1.8s-0.1-2-0.1-2.3s0.3-0.8,0.7-0.8c0.4,0,0.6,0.2,0.7,0.7s0.1,1,0.2,1.5
						c0,0.5,0.2,1.8,0.2,1.9c0,0.1,0.2-0.2,0.1-0.9s0.1-1.2,0-2c-0.1-0.7-0.2-1.4,0.3-1.6c0.5-0.1,0.8,0.2,0.9,0.6
						c0.1,0.4,0.2,1.7,0.2,1.9c0,0.3,0.1,0.5,0.1,0.9C34.1,44,34,44,34,44l1.4-0.4l0.3,0.1c0,0,0.4-1.2,1.2-1l0.1,0.7
						c0,0,0.1,0.4,0.3,0.6c0.2,0.2,0.1,0.7-0.2,0.8c-0.3,0.1-0.4,0.1-0.7,0.2c-0.3,0.1-0.3,0.1-0.6,0.3c-0.3,0.2-0.9,0.1-0.9,0.1
						s-0.6,0.5-0.9,0.7c-0.3,0.2-0.9,0.5-1.1,0.5c0,0-0.7,0.5-1.2,0.6c-0.5,0.1-1,0.1-1.5-0.2c-0.6-0.3-0.6-0.4-0.9-0.7
						c-0.3-0.3-0.5-0.3-0.8-0.3S26.6,46.4,25.8,46.2z"/>
				</g>
				<g>
					<path class="st13" d="M35.7,43.7l-0.3-0.1L34,44c0,0,0,0.4,0,0.8c0,0.4,0.1,0.5,0.1,0.5v-0.6c0,0,0.3,0.1,0.4,0.3
						c0.1,0.2,0.1,0.2,0.1,0.2s0-0.2-0.2-0.4c0,0,0.5,0.3,0.7,0.4c0,0-0.4-0.3-0.6-0.5c0,0,0-0.2,0.3-0.1c0.4,0.2,0.7,0.3,0.9,0.3
						c0,0-0.3-0.2-0.4-0.6C35.3,44,35.7,43.7,35.7,43.7z"/>
				</g>
			</g>
			<g>
				<path class="st2" d="M9,48c-0.8-3.4-2.9-11.8-4.2-15.9c0,0,0,0,0-0.1H0.3c0.4,5.1,1,12.4,1.8,15.9H9z"/>
			</g>
		</g>
		<path class="st4" d="M48,15.6v6.9c0,1-0.8,1.8-1.9,1.8h-5.7l-6.4,4v-4h-0.8c-1,0-1.9-0.8-1.9-1.8v-6.9c0-1,0.8-1.9,1.9-1.9h12.8
			C47.2,13.8,48,14.6,48,15.6z"/>
		<g>
			<g>
				<path class="st0" d="M39.7,2.8v7.4c0,1-0.8,1.8-1.9,1.8h-6l-6.7,4.3V12H25c-1,0-1.9-0.8-1.9-1.8V2.8C23.2,1.8,24,1,25,1h12.8
					C38.9,1,39.7,1.8,39.7,2.8z"/>
			</g>
		</g>
		<g>
			<g>
				<rect x="33.8" y="16.6" class="st12" width="11.8" height="1.5"/>
			</g>
			<g>
				<rect x="33.8" y="20" class="st12" width="7" height="1.5"/>
			</g>
		</g>
		<g>
			<g>
				<rect x="25.6" y="4.1" class="st12" width="11.8" height="1.5"/>
			</g>
			<g>
				<rect x="25.6" y="7.5" class="st12" width="11.8" height="1.5"/>
			</g>
		</g>
	</g>
</g>
</svg>
