<?xml version="1.0" encoding="utf-8"?>
<!-- Generator: Adobe Illustrator 20.1.0, SVG Export Plug-In . SVG Version: 6.00 Build 0)  -->
<!DOCTYPE svg PUBLIC "-//W3C//DTD SVG 1.1//EN" "http://www.w3.org/Graphics/SVG/1.1/DTD/svg11.dtd">
<svg version="1.1" id="Layer_1" xmlns="http://www.w3.org/2000/svg" xmlns:xlink="http://www.w3.org/1999/xlink" x="0px" y="0px"
	 viewBox="0 0 49 49" enable-background="new 0 0 49 49" xml:space="preserve">
<g>
	<path fill="#334A5E" d="M46.5,8.7h-44c-1.1,0-2,0.9-2,2v22.4c0,1.1,0.9,2,2,2h44c1.1,0,2-0.9,2-2V10.7C48.5,9.5,47.6,8.7,46.5,8.7z
		"/>
	<path fill="#ACB3BA" d="M33.2,8.7h-3.1c-0.2-0.5-0.5-1.1-0.8-1.5c-1.1-1.5-2.8-2.5-4.8-2.5c-2,0-3.8,1-4.8,2.5
		c-0.3,0.4-0.6,1-0.8,1.5h-3.1c0.1-0.5,0.3-1,0.5-1.5c1.4-3.2,4.5-5.5,8.2-5.5c3.7,0,6.9,2.3,8.2,5.5C32.9,7.6,33.1,8.1,33.2,8.7z"
		/>
	<path fill="#40596B" d="M46.5,35.1h-44c-0.2,0-0.5,0-0.7-0.1v10.4c0,1.1,0.9,2,2,2h41.3c1.1,0,2-0.9,2-2V35
		C47,35.1,46.7,35.1,46.5,35.1z"/>
	<path fill="#F2F2F2" d="M25.8,32.2h-2.5c-0.6,0-1,0.4-1,1V37c0,0.6,0.4,1,1,1h2.5c0.6,0,1-0.4,1-1v-3.8
		C26.8,32.7,26.3,32.2,25.8,32.2z"/>
	<path fill="#9FACB7" d="M16.3,7.2h3.4c-0.3,0.4-0.6,1-0.8,1.5h-3.1C15.9,8.1,16.1,7.6,16.3,7.2z"/>
	<path fill="#9FACB7" d="M33.2,8.7h-3.1c-0.2-0.5-0.5-1.1-0.8-1.5h3.4C32.9,7.6,33.1,8.1,33.2,8.7z"/>
	<circle fill="#F8B64C" cx="24.5" cy="20.4" r="7.5"/>
	<circle fill="#FFD15C" cx="24.5" cy="20.4" r="5.6"/>
	<path fill="#F8B64C" d="M25,19.6c-0.9-0.4-1-0.6-1-0.8c0-0.3,0.2-0.5,0.7-0.5c0.6,0,0.9,0.2,1.1,0.3l0.4,0.2l0.6-1.5l-0.3-0.2
		c-0.3-0.2-0.7-0.3-1.1-0.4v-1h-1.5v1.1c-1,0.3-1.6,1-1.6,2c0,1.2,1,1.8,2,2.2c0.8,0.3,0.9,0.6,0.9,0.8c0,0.4-0.4,0.6-0.8,0.6
		c-0.4,0-0.9-0.1-1.3-0.4l-0.5-0.3l-0.5,1.5l0.3,0.2c0.4,0.3,0.9,0.4,1.4,0.5v1.1h1.5V24c1-0.3,1.6-1.1,1.6-2.1
		C26.9,20.5,25.9,19.9,25,19.6z"/>
</g>
</svg>
