<?xml version="1.0" encoding="utf-8"?>
<!-- Generator: Adobe Illustrator 18.0.0, SVG Export Plug-In . SVG Version: 6.00 Build 0)  -->
<!DOCTYPE svg PUBLIC "-//W3C//DTD SVG 1.1//EN" "http://www.w3.org/Graphics/SVG/1.1/DTD/svg11.dtd">
<svg version="1.1" id="Layer_1" xmlns="http://www.w3.org/2000/svg" xmlns:xlink="http://www.w3.org/1999/xlink" x="0px" y="0px"
	 viewBox="0 0 48 48" enable-background="new 0 0 48 48" xml:space="preserve">
<g>
	<g>
		<g>
			<g>
				<path fill="#F3F3F3" d="M1.5,31.8l4.9-10.3C6.5,8.3,19.1-1.9,32.9,2.4c8.3,2.5,13.7,10.4,13.7,19.1v0c0,4.1-1.2,7.9-3.3,11.1
					c-2.8,4.2-4.6,9.1-5.2,14.1H13.6v-5H9.4c-1.6,0-2.9-1.3-2.9-2.9v-5.1H2.7C1.7,33.6,1.1,32.6,1.5,31.8z"/>
			</g>
		</g>
		<g>
			<g>
				<g>
					<path fill="#F7B64C" d="M36.5,26.2c0,2.4-2.1,4.3-4.8,4.3S27,28.6,27,26.2H36.5z"/>
				</g>
				<g>
					<path fill="#FFD15C" d="M27,26.2c0,0,2.4-4.8,2.2-8h5.3c-0.2,3.2,2.2,8,2.2,8H27z"/>
				</g>
				<g>
					<circle fill="#F7B64C" cx="31.8" cy="12.8" r="2.9"/>
				</g>
				<g>
					<path fill="#FFD15C" d="M35.5,14.1c0,2.4-1.7,4.4-3.7,4.4s-3.7-2-3.7-4.4H35.5z"/>
				</g>
				<g>
					<path fill="#F7B64C" d="M34.4,19.1h-5.3c-0.6,0-1.1-0.5-1.1-1.1V18c0-0.6,0.5-1.1,1.1-1.1h5.3c0.6,0,1.1,0.5,1.1,1.1v0.1
						C35.5,18.7,35,19.1,34.4,19.1z"/>
				</g>
				<g>
					<path fill="#FFD15C" d="M36.4,31.1h-9.2c-0.8,0-1.4-0.6-1.4-1.4v-0.1c0-0.8,0.6-1.4,1.4-1.4h9.2c0.8,0,1.4,0.6,1.4,1.4v0.1
						C37.8,30.4,37.1,31.1,36.4,31.1z"/>
				</g>
			</g>
			<g>
				<g>
					<path fill="#344A5E" d="M23,28.9h-6.9c-1.2,0-2.1,0.9-2.1,2.1v0.1h11.2V31C25.1,29.8,24.2,28.9,23,28.9z"/>
				</g>
				<g>
					<path fill="#415A6B" d="M22.3,16.1c0,2.8-1.2,5-2.8,5c-1.5,0-2.8-2.2-2.8-5h1.1v1.2H19v-1.2h1.2v1.2h1.1v-1.2H22.3z"/>
				</g>
				<g>
					<path fill="#415A6B" d="M22.9,28.9h-6.8c0,0,1.8-3.7,1.8-8.2h3.3C21.2,25.1,22.9,28.9,22.9,28.9z"/>
				</g>
				<g>
					<g>
						<path fill="#344A5E" d="M21.7,20.8h-4.4c-0.4,0-0.7-0.3-0.7-0.7v0c0-0.4,0.3-0.7,0.7-0.7h4.4c0.4,0,0.7,0.3,0.7,0.7v0
							C22.5,20.4,22.1,20.8,21.7,20.8z"/>
					</g>
				</g>
			</g>
		</g>
	</g>
</g>
</svg>
