<?xml version="1.0" encoding="utf-8"?>
<!-- Generator: Adobe Illustrator 18.0.0, SVG Export Plug-In . SVG Version: 6.00 Build 0)  -->
<!DOCTYPE svg PUBLIC "-//W3C//DTD SVG 1.1//EN" "http://www.w3.org/Graphics/SVG/1.1/DTD/svg11.dtd">
<svg version="1.1" id="Layer_1" xmlns="http://www.w3.org/2000/svg" xmlns:xlink="http://www.w3.org/1999/xlink" x="0px" y="0px"
	 viewBox="0 0 48 48" enable-background="new 0 0 48 48" xml:space="preserve">
<g>
	<g>
		<g>
			<g>
				<g>
					<path fill="#CED6E0" d="M19.3,11c-0.1,0-0.1,0-0.1-0.1c-0.3-1.4-1.2-1.8-1.2-1.8c-0.1,0-0.1-0.1-0.1-0.2c0-0.1,0.1-0.1,0.2-0.1
						c0,0,1,0.4,1.4,2C19.4,10.9,19.4,11,19.3,11C19.3,11,19.3,11,19.3,11z"/>
				</g>
			</g>
		</g>
	</g>
	<g>
		<g>
			<g>
				<g>
					<path fill="#CED6E0" d="M19.6,12.5c-0.1,0-0.1,0-0.1-0.1c-0.5-3.5-1.8-3.5-1.9-3.5c-0.1,0-0.1-0.1-0.1-0.1
						c0-0.1,0.1-0.1,0.1-0.1c0.1,0,1.6,0,2.1,3.7C19.7,12.4,19.7,12.5,19.6,12.5C19.6,12.5,19.6,12.5,19.6,12.5z"/>
				</g>
			</g>
		</g>
	</g>
	<g>
		<g>
			<g>
				<g>
					<path fill="#CED6E0" d="M20.5,11.6L20.5,11.6c-0.1,0-0.1-0.1-0.1-0.1c0-1.5-1-2.9-1-2.9c0-0.1,0-0.1,0-0.2c0.1,0,0.1,0,0.2,0
						c0,0.1,1,1.5,1,3.1C20.6,11.5,20.5,11.6,20.5,11.6z"/>
				</g>
			</g>
		</g>
	</g>
	<g>
		<g>
			<g>
				<g>
					<path fill="#CED6E0" d="M19.7,9.9c-0.1,0-0.1,0-0.1-0.1c-0.1-0.9-0.3-1.2-0.5-1.4c-0.1-0.1,0-0.1,0-0.2c0.1-0.1,0.1,0,0.2,0
						c0.2,0.3,0.4,0.8,0.5,1.5C19.8,9.8,19.8,9.8,19.7,9.9C19.7,9.9,19.7,9.9,19.7,9.9z"/>
				</g>
			</g>
		</g>
	</g>
	<g>
		<g>
			<g>
				<g>
					<g>
						<g>
							<path fill="#344A5E" d="M16.5,47.6c0-0.1-0.7-0.9-0.7-0.9s0-0.3,0.4-0.9c0.4-0.6,0.5-2,0.5-2l1.9-0.1l0.6,0.5l-0.1,0.7
								l-0.2,1l-0.3,0.3l-0.3,1.2L16.5,47.6z"/>
						</g>
					</g>
				</g>
			</g>
			<g>
				<g>
					<g>
						<g>
							<path fill="#425A6B" d="M19.1,44.5c0,0,0,0.8-0.4,1.2c-0.2,0.2-0.2,0.4-0.3,0.6c0,0.3-0.2,0.6-0.5,0.8
								c-0.2,0.1-0.5,0.2-0.8,0.2c-0.8-0.1-1.3-0.3-1.4-0.6c0,0-0.2,0.7,0.2,1.1c0.4,0.4,2.1,0.1,2.4-0.1c0.3-0.3,0.4-0.8,0.3-1.2
								c0-0.2,0-0.3,0.1-0.3c0.1,0,0.3-0.1,0.4-0.2c0.1-0.2,0.2-0.5,0.2-0.9C19.1,44.5,19.1,44.5,19.1,44.5z"/>
						</g>
					</g>
				</g>
			</g>
		</g>
		<g>
			<g>
				<g>
					<g>
						<path fill="#425A6B" d="M24.3,44.5c0,0-0.4,1-0.2,1.2c0.2,0.3,0.6,0.7,0.8,0.7c0.2,0,0.4,0,0.5,0.3c0.1,0.3,0,0.7,0.7,1
							c0.7,0.3,2.2,0.2,2.5-0.1c0,0,0.1-0.5-0.2-1c-0.4-0.5-0.4-0.6-0.4-0.6L24.3,44.5z"/>
					</g>
				</g>
			</g>
		</g>
		<g>
			<g>
				<g>
					<g>
						<path fill="#344A5E" d="M24.3,44.5c0,0-0.4,0.6,0.6,1.2c0.7,0.3,0.5,0.7,0.8,1c0.3,0.2,1.4,0.6,2,0.4c0.6-0.1,0.7-0.2,0.7-0.4
							c0-0.2-0.1-0.6-0.5-1.1c-0.4-0.5-1-1.2-1.1-1.9c-0.1-0.6-0.2-0.7-0.2-0.7L24.3,44.5z"/>
					</g>
				</g>
			</g>
		</g>
		<g>
			<g>
				<g>
					<g>
						<g>
							<path fill="#425A6B" d="M26.3,21.6c0,0,1.3,2.5,1,5c-0.3,2.6-0.7,7.9-0.6,8.8c0.1,0.9,0.6,4.3,0.5,5.5
								c-0.1,1.3-0.2,3.2-0.2,3.2s-2-0.3-2.8,0.3c0,0-0.6-2.5-0.6-3.1s0.2-5.4,0-6.3c-0.2-0.9-1.4-7.7-1.4-7.7s-1.1,4.4-1.4,5
								c-0.3,0.6-0.6,3.3-0.7,4.2c-0.1,0.8-0.3,3.7-0.5,4.6c-0.3,1-0.4,3.2-0.4,3.2s-1.9-0.6-2.7-0.2c0,0,0.1-1.6,0-2.5
								s0.2-4.8,0.4-5.6c0.2-0.8,0.6-5.2,0.3-6.2c-0.3-1-1-6.2,0.2-8.5C18.5,19.1,26.3,21.6,26.3,21.6z"/>
						</g>
					</g>
				</g>
			</g>
			<g>
				<g>
					<g>
						<g>
							<g>
								<path fill="#FFD15C" d="M24.5,2.5c0,0,0.2,0.4,0.5,0.2c0,0,0.3,0,0.4,0c0,0,0.3,0.3,0.5,0.5l0.7-0.3l-0.5-0.5l-0.2-0.2
									c-0.1-0.1-0.2-0.1-0.3-0.1l-0.6,0c-0.1,0-0.1,0-0.2,0L24.5,2.5z"/>
							</g>
						</g>
					</g>
				</g>
				<g>
					<g>
						<g>
							<g>
								<path fill="#FFD15C" d="M25.2,2.6c0,0,0.2,0.3,0.4-0.1c0,0,0.3-0.1,0.3-0.2c0,0,0.3,0.2,0.5,0.3l0.4-0.5l-0.5-0.2l-0.2-0.1
									c-0.1,0-0.2,0-0.3,0l-0.4,0.2c0,0-0.1,0.1-0.1,0.1L25.2,2.6z"/>
							</g>
						</g>
					</g>
				</g>
				<g>
					<g>
						<g>
							<g>
								<path fill="#FFFFFF" d="M25.2,2.6c0,0,0.3,0.1,0.2-0.4l-0.1,0.1C25.3,2.3,25.2,2.6,25.2,2.6z"/>
							</g>
						</g>
					</g>
				</g>
				<g>
					<g>
						<g>
							<g>
								<g>
									<path fill="#FFD15C" d="M24.8,2.9c0,0,0.2-0.4,0.7,0C25.8,3.1,25.8,3,25.8,3l0.4,0.3c0,0,0.8,0.3,1.1,0.5
										C27.6,4.1,28,4.6,28,4.6l-0.2,0.5l-0.7-0.3c0,0-0.8-0.3-1-0.6c-0.2-0.3-0.7-0.8-0.7-0.8L24.8,2.9z"/>
								</g>
							</g>
						</g>
					</g>
					<g>
						<g>
							<g>
								<g>
									<path fill="#FFD15C" d="M25.8,3.4c0,0,0-0.5,0.2-0.5c0,0,0.2-0.3,0.3-0.3c0,0,0.2-0.3,0.3-0.3c0,0,0.4-0.3,0.6-0.3
										c0.2,0,1.2,1.3,1.4,2c0.2,0.7-0.8,0.5-0.8,0.5L25.8,3.4z"/>
								</g>
							</g>
						</g>
					</g>
				</g>
				<g>
					<g>
						<g>
							<g>
								<path fill="#FFD15C" d="M26.8,2.2c0,0-0.2-0.1-0.3-0.2h-0.2c0,0,0,0.4-0.4,0.3l0-0.4L26,1.7c0,0,0.1-0.1,0.1-0.1l0.3-0.1
									c0.1,0,0.2,0,0.3,0c0.2,0.1,0.6,0.4,0.7,0.5c0.1,0.2,0,0.3,0,0.3L26.8,2.2z"/>
							</g>
						</g>
					</g>
				</g>
				<g>
					<g>
						<g>
							<g>
								<path fill="#FFFFFF" d="M25.9,2c0,0,0.3,0.4,0,0.4l0,0L25.9,2z"/>
							</g>
						</g>
					</g>
				</g>
				<g>
					<g>
						<g>
							<g>
								<path fill="#F5B54C" d="M26.8,2.2c0,0-0.1-0.1-0.1-0.1c0,0,0,0-0.1,0c0,0,0,0-0.1-0.1l0,0l-0.2,0l0,0c0,0.1,0,0.1,0,0.2
									c0,0,0,0,0,0.1c0,0,0,0,0,0c0,0,0,0,0,0c0,0,0,0,0,0c0,0,0,0,0,0l0,0c0,0,0,0,0,0c0,0-0.1,0-0.1,0c0,0-0.1,0-0.1,0l0,0l0,0
									c0-0.1,0-0.3,0.1-0.4l0,0l0,0C26,1.9,26,1.8,26,1.7C26,1.8,26,1.9,25.9,2l0,0c0,0.1,0,0.3,0,0.4l0,0c0,0,0,0,0.1,0
									c0,0,0,0,0.1,0c0,0,0,0,0,0l0,0c0,0,0,0,0,0c0,0,0,0,0,0c0,0,0,0,0,0c0,0,0,0,0,0c0,0,0,0,0-0.1c0,0,0-0.1,0-0.1l0,0l0,0
									l0.2,0l0,0l0,0c0,0,0,0,0.1,0.1l0.1,0.1L26.8,2.2z"/>
							</g>
						</g>
					</g>
				</g>
				<g>
					<g>
						<g>
							<g>
								<path fill="#F5B54C" d="M25.9,1.9c-0.1,0-0.2,0.1-0.2,0.1l-0.1,0.1l-0.1,0c0,0,0,0-0.1,0c0,0,0,0,0,0c0,0,0,0,0,0.1l0,0.1
									l-0.1,0.2l0,0c0,0,0.1,0.1,0.1,0.1c0,0,0,0,0,0c0,0,0,0,0,0c0,0,0,0,0,0c0,0,0,0,0,0c0,0,0,0,0,0c0,0,0,0,0,0c0,0,0,0,0,0
									l0,0c0,0,0,0,0-0.1l0-0.1l0,0l0,0c0.1,0,0.1-0.1,0.2-0.1c0,0,0.1,0,0.1,0c0,0,0.1,0,0.1-0.1l0,0l0,0
									c0.2,0.1,0.3,0.2,0.5,0.3c-0.2-0.1-0.4-0.2-0.5-0.3l0,0c0,0,0,0-0.1,0.1c0,0-0.1,0-0.1,0c-0.1,0-0.1,0.1-0.2,0.1l0,0l0,0.1
									c0,0,0,0,0,0.1l0,0c0,0,0,0,0,0c0,0,0,0,0,0c0,0,0,0,0,0c0,0,0,0,0,0c0,0,0,0,0,0c0,0,0,0,0,0c0,0,0,0,0,0
									c0,0-0.1-0.1-0.1-0.1l0,0l0,0l0.1-0.2l0.1-0.1c0,0,0,0,0-0.1c0,0,0,0,0.1,0c0,0,0,0,0.1,0l0.1,0L25.6,2
									C25.7,2,25.8,1.9,25.9,1.9z"/>
							</g>
						</g>
					</g>
				</g>
				<g>
					<g>
						<g>
							<g>
								<path fill="#FFD15C" d="M26,3.2L25.8,3c0,0,0,0.1-0.3-0.1c-0.5-0.4-0.7,0-0.7,0l0.6,0.6c0,0,0.4,0.5,0.6,0.7V3.2z"/>
							</g>
						</g>
					</g>
				</g>
				<g>
					<g>
						<g>
							<g>
								<path fill="#FFFFFF" d="M25.2,3.3l-0.5-0.5C24.8,2.9,25.5,3,25.2,3.3z"/>
							</g>
						</g>
					</g>
				</g>
			</g>
			<g>
				<g>
					<g>
						<g>
							<path fill="#48B9A5" d="M16.4,10.3c0,0-0.6,1.3-0.9,2.4c-0.3,1.1-0.4,2-0.4,2s-0.7,1.3-0.4,2.2c0.3,0.8,1.2,1.3,1.8,1.2
								c0.6-0.1,0.7-0.9,0.7-0.9s-0.3-0.2,0-1l0.1-2.9C17.4,13.2,18.2,10.3,16.4,10.3z"/>
						</g>
					</g>
				</g>
			</g>
			<g>
				<g>
					<g>
						<g>
							<g>
								<path fill="#FFD15C" d="M24.7,4.5c0,0,0,2.2-0.7,2.8c0,0-0.3,0.4-0.2,0.9c0.1,0.5,0.1,1.9,0.1,1.9L22.2,11l-1.7-2.9
									c0,0,0.2-0.8,0.1-1.1c0,0-0.2-2.1-0.2-2.9c0-0.8-0.1-1.6,1-1.7C22.5,2.4,24.9,2.2,24.7,4.5z"/>
							</g>
						</g>
					</g>
				</g>
				<g>
					<g>
						<g>
							<g>
								<path fill="#F5B54C" d="M24,7.3C24,7.3,24,7.3,24,7.3c-0.1,0.1-0.5,0.7-1.1,0.9c-0.6,0.2,0.6,0.3,0.3,0.4
									C22.9,8.7,21.8,9,21,9l-0.5-0.9c0,0,0.2-0.8,0.1-1.1c0,0,1.1,0.9,1.9,0.9C23.2,7.9,23.9,7.3,24,7.3z"/>
							</g>
						</g>
					</g>
				</g>
				<g>
					<g>
						<g>
							<g>
								
									<ellipse transform="matrix(0.9984 5.641772e-002 -5.641772e-002 0.9984 0.3368 -1.3829)" fill="#FFD15C" cx="24.7" cy="5.3" rx="0.3" ry="0.7"/>
							</g>
						</g>
					</g>
				</g>
				<g>
					<g>
						<g>
							<g>
								
									<ellipse transform="matrix(0.9901 -0.1407 0.1407 0.9901 -0.514 2.9089)" fill="#FFD15C" cx="20.3" cy="5.1" rx="0.3" ry="0.8"/>
							</g>
						</g>
					</g>
				</g>
				<g>
					<g>
						<g>
							<g>
								<path fill="#425A6B" d="M20.4,4.7c0,0,0.2-0.6,0.1-1.1c-0.1-0.4,0.5-0.7,0.7-0.7C21.5,3,23,3.2,23.4,3
									c0.4-0.2,1.1,0.3,1.1,0.7s0.1,1.4,0.1,1.4l0.1,0l0.2-1c0.1-0.6,0-1.3-0.3-2.1l-2.1-0.9c0,0-2.2,0.9-2.3,1.8
									S20.4,4.7,20.4,4.7z"/>
							</g>
						</g>
					</g>
				</g>
				<g>
					<g>
						<g>
							<g>
								<g>
									<path fill="#F05640" d="M20.2,2.5c0,0,0.2-2.2,1.8-2.5c1.6-0.3,2.1,0.6,2.1,0.6S25,1.9,25,3c0,0-0.4-0.7-1.4-0.8
										C22.7,2,21.2,1.6,20.2,2.5z"/>
								</g>
							</g>
						</g>
					</g>
					<g>
						<g>
							<g>
								<g>
									<path fill="#F26F5A" d="M20.1,3.7c0,0,0-0.9,0.3-1.2c0.3-0.3,1.1-0.6,1.7-0.5c0.7,0.1,1.6,0.1,2.2,0.5
										c0.5,0.3,0.5,1.2,0.5,1.5l0,0.4c0,0,0.6-0.5,0.4-1.3s-1.3-1-1.3-1S22.5,1.8,22,1.8c-0.5,0-1.6,0.1-1.9,0.6
										C19.7,2.9,19.7,3.6,20.1,3.7z"/>
								</g>
							</g>
						</g>
					</g>
				</g>
			</g>
			<g>
				<g>
					<g>
						<g>
							<path fill="#67C5B8" d="M31.7,6.6C31.2,6.3,31.3,6,31,5.5s-2-1.9-2-1.9l-0.3,0.2c-0.8-0.1-1.6,1.1-1.6,1.1s1.1,1.4,1.3,1.6
								c0.2,0.3,1.2,2.3,1.2,2.3s-0.2,0.4-1.9,0.1C26,8.5,25.4,9,25.4,9C25.1,8.4,24,8,24,8l-1.5,3.4l-0.2-2.1
								c0-0.2-0.2-0.4-0.4-0.5l-0.3-0.1h-0.4l-0.8-0.9c0,0-0.9,0.8-2.3,1.2c-1.4,0.5-1.7,1.2-1.7,1.2c0.9,0.3,0.8,2.8,0.8,2.8
								s0.3,2.3,0.4,2.6c0.1,0.4-0.4,4.5-0.8,5.5c-0.2,0.5-0.2,1-0.2,1.4h5c0.2,0,0.3-0.1,0.5-0.1c0-0.1,0-0.1,0.1-0.2
								c0.7-0.4,1.6-0.4,2.4-0.4c0.5-0.2,1.1-0.4,1.7-0.5c0.1-0.1,0.2-0.1,0.3-0.2c0.6-2.3,1-6.8,1-7.3c0-0.7,0.8-1.2,0.8-1.2
								c1-0.2,4.9-2.6,4.9-2.8C33.3,9.6,32.1,7,31.7,6.6z"/>
						</g>
					</g>
				</g>
			</g>
			<g>
				<g>
					<g>
						<g>
							<path fill="#E8EAE8" d="M17.1,18C17.1,18,17,18,17,17.9c0-0.5,0.2-0.9,0.4-1.2c0.1-0.2,0.2-0.3,0.4-0.5
								c0.4-0.5,0.8-1.1,0.9-1.7c0.1-0.4,0.2-0.8,0.1-1.2c0-0.4-0.2-0.7-0.4-1c-0.1-0.2-0.2-0.4-0.3-0.6c-0.2-1.2-0.2-1.9-0.1-3
								c0-0.1,0.1-0.1,0.2-0.1c0.1,0,0.1,0.1,0.1,0.2c-0.1,1.1-0.1,1.8,0.1,2.9c0,0.2,0.1,0.3,0.2,0.5c0.2,0.3,0.4,0.7,0.4,1.1
								c0,0.4,0,0.8-0.1,1.2c-0.2,0.7-0.6,1.2-1,1.8c-0.1,0.2-0.2,0.3-0.4,0.5c-0.2,0.3-0.4,0.7-0.4,1C17.3,17.9,17.2,18,17.1,18
								C17.1,18,17.1,18,17.1,18z"/>
						</g>
					</g>
				</g>
			</g>
			<g>
				<g>
					<g>
						<g>
							<path fill="#E8EAE8" d="M20.6,7.3l-0.2,1l0.2,1.9l1.2-1.3C21.7,8.9,20.7,8.3,20.6,7.3z"/>
						</g>
					</g>
				</g>
			</g>
			<g>
				<g>
					<g>
						<g>
							<path fill="#48B9A5" d="M23,22.6c0-1.7-0.2-7.3-0.1-8.3c0-1.2,0.3-4,0.9-5.2l-0.5-0.2c0,0-0.8,1.7-1.1,2.8
								c-0.2,0.9-0.2,8.9-0.2,11H23z"/>
						</g>
					</g>
				</g>
			</g>
			<g>
				<g>
					<g>
						<g>
							<path fill="#E8EAE8" d="M23.9,7.5c-0.2,0.4-0.4,0.9-0.7,1.4l0.9,1.6l0.1-2.2L23.9,7.5z"/>
						</g>
					</g>
				</g>
			</g>
			<g>
				<g>
					<g>
						<g>
							<g>
								<path fill="#E8EAE8" d="M26.7,20.7c0.1,0.2,0.1,1.2-0.4,1.3c-2.4,0.9-5.1,1.1-7,1.1c-1.2,0-2.1-0.1-2.5-0.1
									c-0.2,0-0.3-1.1-0.1-1.1l0,0c0.1,0,5.8,0.7,9.8-1.2L26.7,20.7z"/>
							</g>
						</g>
					</g>
				</g>
			</g>
		</g>
	</g>
	<g>
		<g>
			<g>
				<g>
					<g>
						<path fill="#E8EAE8" d="M16.8,19.7c-0.1,0-0.1,0-0.1-0.1c-0.2-0.8,0-1.7,0.2-2.6c0-0.1,0-0.2,0.1-0.3c0.2-1.1,0.4-2.3,0.5-3.4
							c0-0.2,0-0.4,0-0.5c0-0.5,0-1.1,0.1-1.6c0.1-0.3,0.1-0.7,0.2-1c0.1-0.4,0.3-0.8,0.6-1.2c0.3-0.4,0.7-0.6,1.2-0.7
							c0.1,0,0.1,0,0.1,0.1c0,0.1,0,0.1-0.1,0.1c-0.3,0-0.7,0.2-1,0.6c-0.2,0.3-0.4,0.6-0.5,1.1c-0.1,0.3-0.2,0.6-0.2,0.9
							c-0.1,0.5-0.1,1.1-0.1,1.6c0,0.2,0,0.4,0,0.5c-0.1,1.2-0.2,2.3-0.5,3.5c0,0.1,0,0.2-0.1,0.3c-0.2,0.8-0.4,1.7-0.2,2.5
							C17,19.6,16.9,19.6,16.8,19.7C16.8,19.7,16.8,19.7,16.8,19.7z"/>
					</g>
				</g>
			</g>
		</g>
		<g>
			<g>
				<g>
					<g>
						<path fill="#E8EAE8" d="M16.6,18.7C16.5,18.7,16.5,18.7,16.6,18.7c-0.1-0.1-0.2-0.1-0.1-0.2c0.1-0.2,0.3-0.4,0.4-0.6
							c0.5-0.8,1-1.7,1.2-2.7c0.1-0.7-0.1-1.4-0.2-2.1c-0.1-0.4-0.2-0.8-0.2-1.2c-0.1-1.2,0-2.2,0.3-3.1c0-0.1,0.1-0.1,0.2-0.1
							c0.1,0,0.1,0.1,0.1,0.2c-0.3,0.8-0.4,1.7-0.3,2.9c0,0.4,0.1,0.8,0.2,1.2c0.1,0.7,0.3,1.4,0.2,2.2c-0.1,1-0.7,1.9-1.2,2.8
							c-0.1,0.2-0.3,0.4-0.4,0.6C16.6,18.7,16.6,18.7,16.6,18.7z"/>
					</g>
				</g>
			</g>
		</g>
		<g>
			<g>
				<g>
					<g>
						<path fill="#E8EAE8" d="M16.6,18.5C16.5,18.5,16.5,18.5,16.6,18.5c-0.1,0-0.2-0.1-0.1-0.2c0.3-0.7,0.6-1.3,0.9-2
							c0.1-0.1,0.1-0.3,0.2-0.4c0.6-1.3,0.9-2.8,1-4.5c0-0.9,0-1.9-0.1-2.8c0-0.2,0.1-0.4,0.3-0.5c0.2-0.1,0.4,0,0.5,0.1
							c0.1,0.1,0,0.1,0,0.2c-0.1,0.1-0.1,0-0.2,0c-0.1-0.1-0.2-0.1-0.2,0c-0.1,0-0.1,0.1-0.1,0.2c0.1,0.9,0.1,1.9,0.1,2.8
							c-0.1,1.7-0.4,3.3-1,4.6c-0.1,0.1-0.1,0.3-0.2,0.4c-0.3,0.7-0.6,1.3-0.9,2C16.7,18.5,16.6,18.5,16.6,18.5z"/>
					</g>
				</g>
			</g>
		</g>
		<g>
			<g>
				<g>
					<g>
						<path fill="#E8EAE8" d="M17.2,18.7C17.2,18.7,17.1,18.7,17.2,18.7c-0.1-0.1-0.2-0.2-0.1-0.2c0.2-0.3,0.2-0.6,0.3-1
							c0.1-1.3,0-2.6-0.1-3.9c0-0.2-0.1-0.5-0.1-0.7C17,12,16.9,11,17,10.1c0-0.4,0.1-0.9,0.4-1.4c0-0.1,0.1-0.1,0.2,0
							c0.1,0,0.1,0.1,0,0.2c-0.3,0.4-0.4,0.9-0.4,1.2c-0.1,0.9,0,1.9,0.1,2.8c0,0.2,0.1,0.5,0.1,0.7c0.1,1.3,0.2,2.6,0.1,4
							c0,0.4-0.1,0.8-0.3,1.1C17.3,18.7,17.2,18.7,17.2,18.7z"/>
					</g>
				</g>
			</g>
		</g>
	</g>
	<g>
		<g>
			<g>
				<g>
					<g>
						<path fill="#FFD15C" d="M16,14.5c0,0-0.3,0.4-0.3,0.7c0,0.3,0.2,0.7,0.5,0.8c0.4,0.1,0.9,0.1,1.2-0.1s0.5-0.4,0.5-0.4
							s0.1,0,0.2,0c0.1,0,0.2,0,0.2,0c0.1,0,0.1,0,0.2-0.1c0.1-0.1,0.1-0.2,0-0.3c0,0,0.4-0.3,0.1-0.5l-0.5-0.2c0,0,0.4,0,0.5,0
							c0,0,0.1,0.1,0.1,0.2c0,0.1,0.6,0,0.4-0.4c0,0-0.1-0.3-0.2-0.3c-0.2-0.1-0.8,0-0.8,0l0.1-0.1l0.6-0.1c0,0,0.2,0.3,0.3,0.3
							c0.1,0,0.4-0.2,0-0.5l-0.1-0.1c-0.1-0.1-0.3-0.2-0.5-0.2l-1.1,0.1c0,0-0.2,0-0.5,0.3C16.8,13.8,16,14.5,16,14.5z"/>
					</g>
				</g>
			</g>
		</g>
		<g>
			<g>
				<g>
					<g>
						<path fill="#F5B54C" d="M18.7,15.1c0,0,0,0-0.1,0c-0.1,0-0.1,0-0.2,0c-0.1,0-0.2,0-0.2-0.1C18,15,18,15,18,15s0,0,0.1,0
							c0.1,0,0.1,0,0.2,0C18.4,15,18.5,15.1,18.7,15.1C18.6,15.1,18.7,15.1,18.7,15.1z"/>
					</g>
				</g>
			</g>
		</g>
	</g>
</g>
</svg>
