<?xml version="1.0" encoding="utf-8"?>
<!-- Generator: Adobe Illustrator 20.1.0, SVG Export Plug-In . SVG Version: 6.00 Build 0)  -->
<!DOCTYPE svg PUBLIC "-//W3C//DTD SVG 1.1//EN" "http://www.w3.org/Graphics/SVG/1.1/DTD/svg11.dtd">
<svg version="1.1" id="Layer_1" xmlns="http://www.w3.org/2000/svg" xmlns:xlink="http://www.w3.org/1999/xlink" x="0px" y="0px"
	 viewBox="0 0 49 49" enable-background="new 0 0 49 49" xml:space="preserve">
<g>
	<path fill="#F2F2F2" d="M46.5,0.5h-44c-1.1,0-2,0.9-2,2v44c0,1.1,0.9,2,2,2h44c1.1,0,2-0.9,2-2v-44C48.5,1.4,47.6,0.5,46.5,0.5z"/>
	<rect x="0.5" y="14.5" fill="#54C0EB" width="48" height="20.1"/>
	<rect x="0.5" y="12.1" fill="#84DBFF" width="48" height="2.4"/>
	<rect x="0.5" y="34.5" fill="#84DBFF" width="48" height="2.4"/>
	<circle opacity="0.2" fill="#334A5E" cx="24.5" cy="25.5" r="16.9"/>
	<circle fill="#FFFFFF" cx="24.5" cy="24.5" r="16.9"/>
	<path fill="#F2F2F2" d="M24.5,38.9c-8,0-14.4-6.5-14.4-14.4c0-8,6.5-14.4,14.4-14.4c8,0,14.4,6.5,14.4,14.4
		C38.9,32.5,32.5,38.9,24.5,38.9z"/>
	<path fill="#40596B" d="M24.5,33.6c-5,0-9.1-4.1-9.1-9.1c0-5,4.1-9.1,9.1-9.1c5,0,9.1,4.1,9.1,9.1C33.6,29.5,29.5,33.6,24.5,33.6z"
		/>
	<circle fill="#FFFFFF" cx="20.4" cy="20.4" r="2.1"/>
	<path fill="#FF7058" d="M9.5,4H5.6C4.9,4,4.4,4.5,4.4,5.2c0,0.7,0.6,1.2,1.2,1.2h3.9c0.7,0,1.2-0.6,1.2-1.2C10.8,4.5,10.2,4,9.5,4z
		"/>
</g>
</svg>
