<?xml version="1.0" encoding="utf-8"?>
<!-- Generator: Adobe Illustrator 18.0.0, SVG Export Plug-In . SVG Version: 6.00 Build 0)  -->
<!DOCTYPE svg PUBLIC "-//W3C//DTD SVG 1.1//EN" "http://www.w3.org/Graphics/SVG/1.1/DTD/svg11.dtd">
<svg version="1.1" id="Layer_1" xmlns="http://www.w3.org/2000/svg" xmlns:xlink="http://www.w3.org/1999/xlink" x="0px" y="0px"
	 viewBox="0 0 512 512" enable-background="new 0 0 512 512" xml:space="preserve">
<g>
	<polygon fill="#FF7058" points="363.9,3.3 414.9,54.3 303.5,165.7 179,41.2 2,218.3 46.1,262.3 179,129.3 303.5,253.8 459,98.3 
		510,149.4 510,3.3 	"/>
	<polygon fill="#84DBFF" points="84.2,269.1 84.2,508.7 17.9,508.7 17.9,279.1 46.1,307.2 	"/>
	<polygon fill="#F2F2F2" points="179,174.2 186.6,181.8 186.6,508.7 120.4,508.7 120.4,232.8 	"/>
	<polygon fill="#FFD15C" points="289.2,284.4 289.2,508.7 222.8,508.7 222.8,218 	"/>
	<polygon fill="#CDD6E0" points="391.6,210.7 391.6,508.7 325.4,508.7 325.4,277 	"/>
	<polygon fill="#4CDBC4" points="494.2,178.4 494.2,508.7 427.8,508.7 427.8,174.5 459,143.3 	"/>
</g>
</svg>
