<?xml version="1.0" encoding="utf-8"?>
<!-- Generator: Adobe Illustrator 18.0.0, SVG Export Plug-In . SVG Version: 6.00 Build 0)  -->
<!DOCTYPE svg PUBLIC "-//W3C//DTD SVG 1.1//EN" "http://www.w3.org/Graphics/SVG/1.1/DTD/svg11.dtd">
<svg version="1.1" id="Layer_1" xmlns="http://www.w3.org/2000/svg" xmlns:xlink="http://www.w3.org/1999/xlink" x="0px" y="0px"
	 viewBox="0 0 48 48" enable-background="new 0 0 48 48" xml:space="preserve">
<g>
	<g>
		<g>
			<g>
				<g>
					<path fill="#415A6B" d="M38,21.6v7.8h-2v-6.8H12v6.8h-2v-7.8c0-0.6,0.4-1,1-1h12V14h2v6.7h12C37.5,20.6,38,21.1,38,21.6z"/>
				</g>
			</g>
		</g>
		<g>
			<g>
				<path fill="#F3F3F3" d="M46,0H2C0.9,0,0,0.9,0,2v11.6c0,1.1,0.9,2,2,2h44c1.1,0,2-0.9,2-2V2C48,0.9,47.1,0,46,0z"/>
			</g>
			<g>
				<circle fill="#F3705A" cx="6.6" cy="7.8" r="2.6"/>
			</g>
			<g>
				<circle fill="#8AD7F8" cx="13.7" cy="7.8" r="2.6"/>
			</g>
			<g>
				<circle fill="#FFD15C" cx="20.8" cy="7.8" r="2.6"/>
			</g>
		</g>
		<g>
			<g>
				<g>
					<g>
						<path fill="#FFD15C" d="M48,38.8v-3.8l-2.8-0.9c-0.1-0.4-0.3-0.8-0.5-1.1l1.4-2.6l-2.6-2.7l-2.6,1.4c-0.4-0.2-0.7-0.3-1.1-0.5
							l-0.9-2.8h-3.7l-0.9,2.8c-0.4,0.1-0.8,0.3-1.1,0.5l-2.6-1.4l-2.7,2.7l1.4,2.6c-0.2,0.4-0.3,0.7-0.5,1.1l-2.8,0.9v3.8l2.8,0.9
							c0.1,0.4,0.3,0.8,0.5,1.1l-1.4,2.6l2.7,2.7l2.6-1.4c0.4,0.2,0.7,0.3,1.1,0.5l0.9,2.8h3.8l0.9-2.8c0.4-0.1,0.8-0.3,1.1-0.5
							l2.6,1.4l2.6-2.7l-1.4-2.6c0.2-0.4,0.3-0.7,0.5-1.1L48,38.8z M37,40.5c-1.9,0-3.5-1.6-3.5-3.5c0-1.9,1.6-3.5,3.5-3.5
							s3.5,1.6,3.5,3.5C40.5,38.9,38.9,40.5,37,40.5z"/>
					</g>
				</g>
			</g>
			<g>
				<g>
					<path fill="#F7B64C" d="M37,30.9c-3.4,0-6.1,2.7-6.1,6.1c0,3.4,2.7,6.1,6.1,6.1c3.4,0,6.1-2.7,6.1-6.1
						C43.1,33.6,40.3,30.9,37,30.9z M37,40.5c-1.9,0-3.5-1.6-3.5-3.5c0-1.9,1.6-3.5,3.5-3.5c1.9,0,3.5,1.6,3.5,3.5
						C40.5,38.9,38.9,40.5,37,40.5z"/>
				</g>
			</g>
		</g>
		<g>
			<g>
				<g>
					<g>
						<path fill="#8AD7F8" d="M22.1,38.8v-3.8l-2.8-0.9c-0.1-0.4-0.3-0.8-0.5-1.1l1.4-2.6l-2.6-2.7l-2.6,1.4
							c-0.4-0.2-0.7-0.3-1.1-0.5l-0.9-2.8H9.2l-0.9,2.8c-0.4,0.1-0.8,0.3-1.1,0.5l-2.6-1.4l-2.7,2.7l1.4,2.6
							c-0.2,0.4-0.3,0.7-0.5,1.1L0,35.1v3.8l2.8,0.9c0.1,0.4,0.3,0.8,0.5,1.1l-1.4,2.6l2.7,2.7l2.6-1.4c0.4,0.2,0.7,0.3,1.1,0.5
							L9.2,48h3.8l0.9-2.8c0.4-0.1,0.8-0.3,1.1-0.5l2.6,1.4l2.6-2.7l-1.4-2.6c0.2-0.4,0.3-0.7,0.5-1.1L22.1,38.8z M11,40.5
							c-1.9,0-3.5-1.6-3.5-3.5c0-1.9,1.6-3.5,3.5-3.5s3.5,1.6,3.5,3.5C14.6,38.9,13,40.5,11,40.5z"/>
					</g>
				</g>
			</g>
			<g>
				<g>
					<path fill="#55C0EB" d="M11,30.9c-3.4,0-6.1,2.7-6.1,6.1c0,3.4,2.7,6.1,6.1,6.1c3.4,0,6.1-2.7,6.1-6.1
						C17.2,33.6,14.4,30.9,11,30.9z M11,40.5c-1.9,0-3.5-1.6-3.5-3.5c0-1.9,1.6-3.5,3.5-3.5s3.5,1.6,3.5,3.5
						C14.6,38.9,13,40.5,11,40.5z"/>
				</g>
			</g>
		</g>
	</g>
</g>
</svg>
