<?xml version="1.0" encoding="utf-8"?>
<!-- Generator: Adobe Illustrator 20.1.0, SVG Export Plug-In . SVG Version: 6.00 Build 0)  -->
<!DOCTYPE svg PUBLIC "-//W3C//DTD SVG 1.1//EN" "http://www.w3.org/Graphics/SVG/1.1/DTD/svg11.dtd">
<svg version="1.1" id="Layer_1" xmlns="http://www.w3.org/2000/svg" xmlns:xlink="http://www.w3.org/1999/xlink" x="0px" y="0px"
	 viewBox="0 0 49 49" enable-background="new 0 0 49 49" xml:space="preserve">
<g>
	<path fill="#F2F2F2" d="M35.7,0.5H2.5c-1.1,0-2,0.9-2,2v44c0,1.1,0.9,2,2,2h33.2c1.1,0,2-0.9,2-2v-44C37.7,1.4,36.8,0.5,35.7,0.5z"
		/>
	<rect x="3.8" y="4.1" fill="#E2E2E2" width="30.6" height="7.4"/>
	<path fill="#84DBFF" d="M3.8,14.3v8.5h8.5v-8.5H3.8z M10.8,21.3H5.3v-5.5h5.5V21.3z"/>
	<rect x="17.9" y="17.5" fill="#CDD6E0" width="16.5" height="2.2"/>
	<rect x="17.9" y="28.8" fill="#CDD6E0" width="16.5" height="2.2"/>
	<rect x="17.9" y="40.1" fill="#CDD6E0" width="16.5" height="2.2"/>
	<path fill="#84DBFF" d="M3.8,25.6v8.5h8.5v-8.5H3.8z M10.8,32.6H5.3v-5.5h5.5V32.6z"/>
	<path fill="#84DBFF" d="M3.8,36.9v8.5h8.5v-8.5H3.8z M10.8,43.9H5.3v-5.5h5.5V43.9z"/>
	<polygon fill="#FF7058" points="7.4,20.4 5.7,18.8 6.5,18.1 7.4,19 9.7,16.7 10.4,17.4 	"/>
	<path fill="#40596B" d="M46.9,12.6c-2.2-2.2-5.6-2.2-7.8,0l-14,14l7.8,7.8l14-14C49,18.2,49,14.7,46.9,12.6z"/>
	<polygon fill="#FFD15C" points="22.6,36.9 32.9,34.4 25.1,26.6 	"/>
	<polygon fill="#40596B" points="23.5,33 22.6,36.9 26.4,36 	"/>
	
		<rect x="40.5" y="12.3" transform="matrix(0.7071 -0.7071 0.7071 0.7071 -0.403 34.6555)" fill="#F2F2F2" width="2.2" height="11"/>
	<path fill="#F2F2F2" d="M42.4,17L42.4,17c-0.4-0.4-1.1-0.4-1.5,0l-5.7,5.7c-0.4,0.4-0.4,1.1,0,1.5l0,0c0.4,0.4,1.1,0.4,1.5,0
		l5.7-5.7C42.8,18.2,42.8,17.5,42.4,17z"/>
</g>
</svg>
