<?xml version="1.0" encoding="utf-8"?>
<!-- Generator: Adobe Illustrator 18.0.0, SVG Export Plug-In . SVG Version: 6.00 Build 0)  -->
<!DOCTYPE svg PUBLIC "-//W3C//DTD SVG 1.1//EN" "http://www.w3.org/Graphics/SVG/1.1/DTD/svg11.dtd">
<svg version="1.1" id="Layer_1" xmlns="http://www.w3.org/2000/svg" xmlns:xlink="http://www.w3.org/1999/xlink" x="0px" y="0px"
	 viewBox="0 0 48 48" enable-background="new 0 0 48 48" xml:space="preserve">
<g>
	<g>
		<g>
			<g>
				<path fill="#F3705A" d="M11.4,0.1L11.4,0.1c-2-0.4-3.9,1.1-3.9,3.1v10.6h9.3V6.8C16.9,3.6,14.6,0.8,11.4,0.1z"/>
			</g>
			<g>
				<path fill="#344A5E" d="M3.5,27.6c0,8.7,1.7,16.2,4.2,20.4h9.1c2.5-4.2,4.2-11.8,4.2-20.4H3.5z"/>
			</g>
			<g>
				<rect x="5" y="24" fill="#F7B64C" width="14.4" height="3.6"/>
			</g>
			<g>
				<rect x="6.2" y="13.8" fill="#FFD15C" width="12" height="10.3"/>
			</g>
		</g>
		<g>
			<g>
				<path fill="#344A5E" d="M27,27.6v-11l17.5,0v11c0,8.7-1.7,16.2-4.2,20.4h-9.1C28.7,43.8,27,36.2,27,27.6z"/>
			</g>
			<g>
				<rect x="27" y="16.5" fill="#F7B64C" width="17.5" height="2.7"/>
			</g>
		</g>
	</g>
</g>
</svg>
