<?xml version="1.0" encoding="utf-8"?>
<!-- Generator: Adobe Illustrator 18.0.0, SVG Export Plug-In . SVG Version: 6.00 Build 0)  -->
<!DOCTYPE svg PUBLIC "-//W3C//DTD SVG 1.1//EN" "http://www.w3.org/Graphics/SVG/1.1/DTD/svg11.dtd">
<svg version="1.1" id="Layer_1" xmlns="http://www.w3.org/2000/svg" xmlns:xlink="http://www.w3.org/1999/xlink" x="0px" y="0px"
	 viewBox="0 0 512 512" enable-background="new 0 0 512 512" xml:space="preserve">
<g>
	<path fill="#ACB3BA" d="M465,277.7c0.7-7.1,0.6-37.2-0.2-44.7l41.5-29l-17.8-54.2l-50.7,1.2c-7.5-12.9-16.3-24.9-26.3-35.9l16.6-48
		l-46.2-33.5l-40.3,30.7c-13.5-6-27.7-10.8-42.5-13.9L284.5,2h-57.1l-14.6,48.4c-15.2,3.2-29.8,8.2-43.6,14.4l-40.5-30.4l-46,33.8
		L99.6,116c-9.9,11.1-18.7,23.1-26.1,36.1l-50.7-0.9L5.4,205.6L47,234.3c-0.7,7.1-0.6,37.2,0.2,44.7L5.7,308l17.8,54.2l50.7-1.2
		c7.5,12.9,16.3,24.9,26.3,35.9l-16.6,48l46.2,33.5l40.3-30.7c13.5,6,27.7,10.8,42.5,13.9l14.6,48.4h57.1l14.6-48.4
		c15.2-3.2,29.8-8.2,43.6-14.4l40.5,30.4l46-33.8L412.4,396c9.9-11.1,18.7-23.1,26.1-36.1l50.7,0.9l17.4-54.3L465,277.7z"/>
	<path fill="#FFFFFF" d="M414.7,256c0,21.4-4.3,41.9-12.1,60.6c-16,39-47.2,70-86.2,86c-18.6,7.8-39.1,12.1-60.4,12.1
		c-87.6,0-158.8-71.1-158.8-158.7c0-87.6,71.3-158.7,158.8-158.7C343.5,97.3,414.7,168.4,414.7,256z"/>
	<path fill="#54C0EB" d="M364.2,256c0,14.6-3,28.6-8.3,41.3L312,253.3c3.3-21.5-3.2-44.2-19.7-60.7c-16.5-16.5-39.2-23.1-60.7-19.7
		l38.3,38.3l-12.6,46.1l-46.1,12.6l-38.3-38.3c-3.3,21.5,3.2,44.2,19.7,60.7c16.5,16.5,39.2,23.1,60.7,19.7l43.9,43.9
		c-12.7,5.3-26.7,8.3-41.2,8.3c-59.7,0-108.3-48.5-108.3-108.2S196.3,147.8,256,147.8C315.6,147.8,364.2,196.3,364.2,256z"/>
</g>
</svg>
