<?xml version="1.0" encoding="utf-8"?>
<!-- Generator: Adobe Illustrator 18.0.0, SVG Export Plug-In . SVG Version: 6.00 Build 0)  -->
<!DOCTYPE svg PUBLIC "-//W3C//DTD SVG 1.1//EN" "http://www.w3.org/Graphics/SVG/1.1/DTD/svg11.dtd">
<svg version="1.1" id="Layer_1" xmlns="http://www.w3.org/2000/svg" xmlns:xlink="http://www.w3.org/1999/xlink" x="0px" y="0px"
	 viewBox="0 0 48 48" enable-background="new 0 0 48 48" xml:space="preserve">
<g>
	<g>
		<g>
			<g>
				<g>
					<g>
						<path fill="#425A6B" d="M16,4.8L17.1,5c0,0,0.5-0.2,1-0.2c0.5,0,1.2,0,1.3,0.1c0.1,0.1,0.6-0.2,0.5-0.4
							c-0.1-0.3-0.5-0.1-1.1-0.4c-0.6-0.2-1.5-0.4-1.9-0.3c-0.6,0.1-1,0.5-1,0.5L16,4.8z"/>
					</g>
				</g>
			</g>
			<g>
				<g>
					<g>
						<path fill="#CED6E0" d="M31.8,5.5v0.6l-10-0.9c-0.2,0.1-0.3,0.4-0.3,0.4h-0.1c0,0-0.2-0.3-0.7-0.4c-0.4-0.1-0.7,0.2-0.8,0.3
							c0,0.1-0.2,0.2-0.3,0.2c-0.2,0-0.3-0.1-0.3-0.3c0-0.2,0.1-0.3,0.3-0.3c-0.1-0.2-0.4-0.3-0.4-0.3c0.1-0.1,0.1-0.6,0.1-0.6
							l2.4,0.4L31.8,5.5z"/>
					</g>
				</g>
			</g>
			<g>
				<g>
					<g>
						<circle fill="#425A6B" cx="19.6" cy="5.4" r="0.2"/>
					</g>
				</g>
			</g>
			<g>
				<g>
					<g>
						<path fill="#425A6B" d="M32,5.5c0,0-0.2-0.1-0.3-0.1c-0.2,0-0.2,0.4-0.2,0.5c0,0.1,0.1,0.4,0.3,0.4c0.2,0,0.2-0.1,0.4,0
							c0.2,0.1,1.8,0.3,2.2,0.2c0,0,0.2,0,0.2,0c0,0.1,0.1,0.1,0.2-0.1c0-0.1,0.1-0.8,0-0.8c0,0,0,0-0.1,0C34.5,5.8,33.6,5.4,32,5.5
							z"/>
					</g>
				</g>
			</g>
		</g>
		<g>
			<g>
				<g>
					<g>
						<path fill="#425A6B" d="M16,4.8L17.1,5c0,0,0.4,0.4,0.9,0.6c0.5,0.2,1.1,0.4,1.2,0.3c0.1,0,0.5,0.4,0.3,0.6
							c-0.2,0.2-0.5,0-1.2-0.1c-0.7,0-1.5-0.2-1.9-0.4c-0.5-0.3-0.7-0.8-0.7-0.8L16,4.8z"/>
					</g>
				</g>
			</g>
			<g>
				<g>
					<g>
						<path fill="#CED6E0" d="M31.1,9.6L31.3,9l-9.7-2.6c-0.1-0.1-0.1-0.5-0.1-0.5l-0.1,0c0,0-0.3,0.2-0.8,0.2
							c-0.4,0-0.6-0.4-0.6-0.5c0-0.1-0.1-0.3-0.2-0.3c-0.2-0.1-0.3,0-0.4,0.2c-0.1,0.2,0,0.3,0.2,0.4C19.4,5.9,19,5.9,19,5.9
							c0.1,0.1-0.1,0.6-0.1,0.6L21.3,7L31.1,9.6z"/>
					</g>
				</g>
			</g>
			<g>
				<g>
					<g>
						<circle fill="#425A6B" cx="19.6" cy="5.4" r="0.2"/>
					</g>
				</g>
			</g>
			<g>
				<g>
					<g>
						<path fill="#425A6B" d="M31.3,9.7c0,0-0.2,0.1-0.3,0c-0.1-0.1,0-0.5,0-0.6c0-0.1,0.2-0.3,0.4-0.3c0.2,0,0.2,0.2,0.4,0.2
							c0.2,0,1.8,0.4,2.1,0.6c0,0,0.2,0.1,0.2,0c0.1,0,0.1,0,0.1,0.1c0,0.1-0.2,0.7-0.3,0.8c0,0,0,0-0.1,0
							C33.7,10.2,32.7,10.3,31.3,9.7z"/>
					</g>
				</g>
			</g>
		</g>
		<g>
			<g>
				<g>
					<g>
						<path fill="#344A5E" d="M16.8,4c0.3-0.1,0.6-0.1,0.9,0.2L17.5,6c-0.3,0.1-0.6,0.1-0.8-0.1L16.8,4z"/>
					</g>
				</g>
			</g>
			<g>
				<g>
					<g>
						<circle fill="#425A6B" cx="17.2" cy="4.4" r="0.2"/>
					</g>
				</g>
			</g>
			<g>
				<g>
					<g>
						<circle fill="#425A6B" cx="17.1" cy="5.7" r="0.2"/>
					</g>
				</g>
			</g>
		</g>
		<g>
			<g>
				<g>
					<path fill="#344A5E" d="M16,4.8C16,4.8,16,4.8,16,4.8c0.1,0,0.1,0,0.2,0c0.1,0,0.3,0,0.4,0c0.1,0,0.3,0.1,0.4,0.1
						c0.1,0,0.1,0,0.1,0c0,0,0,0,0,0s0,0-0.1,0c0,0-0.1,0-0.1,0c-0.1,0-0.3,0-0.4,0c-0.1,0-0.3-0.1-0.4-0.1C16.1,4.8,16,4.8,16,4.8
						C16,4.8,16,4.8,16,4.8z"/>
				</g>
			</g>
		</g>
	</g>
	<g>
		<g>
			<g>
				<path fill="#425A6B" d="M19.7,46.7l-0.2,0.4c0,0-0.1,0.7,0.4,0.8c0.5,0.1,1.7,0.1,2,0c0.3-0.1,0.5-0.5,0.4-0.9
					C22.2,46.6,19.7,46.7,19.7,46.7z"/>
			</g>
		</g>
	</g>
	<g>
		<g>
			<g>
				<path fill="#425A6B" d="M27.9,44.4l-0.7,0.9c0,0-0.1,0.6,0.1,0.7c0.2,0.2,1.8,0.2,1.8,0.2l0.2-0.3c0,0,0.8,0,1.1,0.2
					c0.2,0.2,2,0.9,4,0l0-0.5L27.9,44.4"/>
			</g>
		</g>
	</g>
	<g>
		<g>
			<g>
				<path fill="#425A6B" d="M29.6,23.1c0,0-0.1,1.3,0,1.8c0.1,0.5,0.6,3.2,0.1,5.4c0,0-0.2,0.9,0,1.5c0.2,0.7,0.4,5.5,0.4,5.5
					l-3.7,0.4c0,0-0.8-1.4-0.6-2.2c0,0,0.1-0.7,0.2-0.9c0,0-1-1.9-1-3.1s0-1.2,0-1.2s-0.7,1.6-1.2,2.6c-0.5,1-0.3,1.6-0.5,2.2
					c-0.2,0.6-0.9,2.2-0.9,2.2l-0.4,1.2l-2.7-0.6c0,0-0.5-2.4,0-4c0.5-1.7,0.3-2.4,0.3-3c0-0.6-0.4-5.2,0.5-7.9
					c0.9-2.7,0.9-2.7,0.9-2.7l8.3-0.7L29.6,23.1z"/>
			</g>
		</g>
	</g>
	<g>
		<g>
			<g>
				<polygon fill="#FFD15C" points="25.7,8.1 25.9,7.9 26.1,7.9 26.6,8.6 26.6,9.1 26.5,9.2 25.8,9 				"/>
			</g>
		</g>
	</g>
	<g>
		<g>
			<g>
				<path fill="#425A6B" d="M22.8,4.3C22.8,4.3,22.8,4.3,22.8,4.3c-0.1,0-0.5-0.1-0.5-0.2c0,0-0.1-0.8-0.1-0.8c0,0,0.5-0.7,0.5-0.7
					l0.4-0.1"/>
			</g>
		</g>
	</g>
	<g>
		<g>
			<g>
				<path fill="#FFD15C" d="M26.2,2.8c0,0,0.4,1.1,0.4,1.9c0,0.8-0.2,1.8-0.5,2c0,0-0.2,0.7,0,1.4c0.2,0.6,0.4,1,0.4,1l-1,0.9
					c0,0-2.9-1.5-2.9-1.1c0,0-0.6-1.4-0.6-1.4s0.9-0.2,0.8-0.8s-0.2-2.4-0.2-2.4s0-1.4,0.4-1.9C23.5,2,24,2,24,2L26.2,2.8z"/>
			</g>
		</g>
	</g>
	<g>
		<g>
			<g>
				<path fill="#E8EAE8" d="M22.7,7.7c0,0,0.6,1.3,2.5,1.3c0,0,1.1-0.1,1.1-1l0.4,0.6l1.9,3.9l0.8,10.8c0,0-0.6,0-1.3,0.1
					c-0.7,0.1-1.7,0.5-3,0.2c-1.2-0.4-2.7-4.8-2.7-4.8l0.1-9.7L22.7,7.7z"/>
			</g>
		</g>
	</g>
	<g>
		<g>
			<g>
				<g>
					
						<ellipse transform="matrix(-0.9955 9.505054e-002 -9.505054e-002 -0.9955 45.6529 7.2686)" fill="#FFD15C" cx="22.7" cy="4.7" rx="0.3" ry="0.7"/>
				</g>
			</g>
		</g>
		<g>
			<g>
				<g>
					
						<ellipse transform="matrix(0.9989 4.619952e-002 -4.619952e-002 0.9989 0.2438 -1.2251)" fill="#FFD15C" cx="26.6" cy="4.7" rx="0.3" ry="0.7"/>
				</g>
			</g>
		</g>
	</g>
	<g>
		<g>
			<g>
				<path fill="#425A6B" d="M24.7,2.9c0,0-1.1,0.3-1.5,0.8c-0.2,0.2-0.3,0.6-0.2,1l-0.1-0.1c-0.1-0.8-0.1-2.3-0.1-2.3L24.7,2.9z"/>
			</g>
		</g>
		<g>
			<g>
				<path fill="#425A6B" d="M22.8,4.6"/>
			</g>
		</g>
	</g>
	<g>
		<g>
			<g>
				<path fill="#425A6B" d="M26.5,4.5L26.5,4.5c-0.1-0.1-0.1-0.2-0.1-0.2C26.3,3,25.7,3,25.7,3l0.9-0.9c0,0-0.3,0.1,0,0.8
					C26.7,3.3,26.8,3.8,26.5,4.5z"/>
			</g>
		</g>
	</g>
	<g>
		<g>
			<g>
				<path fill="#F05640" d="M27,3.2c0,0-0.1-1.1-0.4-1.7c-0.3-0.6-1.1-1.5-2-1.6c-0.9-0.1-1.8,0.6-2.2,1.3C22,2,22.1,3.6,22.1,3.6
					s0.6-0.5,1.1-0.5C23.7,3.1,26.3,2.6,27,3.2z"/>
			</g>
		</g>
	</g>
	<g>
		<g>
			<g>
				<path fill="#F26F5A" d="M26.7,4C26.7,4,26.7,4,26.7,4c0-0.1,0-0.4-0.1-0.6c-0.1-0.3-0.4-0.3-0.9-0.3c-0.5,0-2.6,0.1-3,0.3
					c-0.4,0.2-0.3,0.7-0.3,0.7l0,0c0,0,0,0.1-0.1,0.2c-0.2-0.1-0.5-0.3-0.5-0.6c-0.1-0.5,0.8-0.6,1.7-0.7c0.9-0.1,2.5-0.1,2.7-0.1
					c0.2,0,0.7,0,0.9,0.4C27.3,3.5,26.9,3.9,26.7,4z"/>
			</g>
		</g>
	</g>
	<g>
		<g>
			<g>
				<path fill="#F5B54C" d="M26.1,6.8C26.1,6.8,26.1,6.8,26.1,6.8L26.1,6.8C26.1,6.8,26.1,6.8,26.1,6.8C26.1,6.8,26.1,6.8,26.1,6.8
					C26,7,25.8,7.6,25,7.7c-0.5,0.1-1.6-0.1-2.4-0.3c0.2-0.1,0.4-0.3,0.4-0.6c0-0.1,0-0.3,0-0.4c0,0,1.1,1.1,2.1,1
					C25.9,7.3,26.1,6.8,26.1,6.8L26.1,6.8z"/>
			</g>
		</g>
	</g>
	<g>
		<g>
			<g>
				<path fill="#67C5B8" d="M24.7,10.2L24.7,10.2l0.3,0.6c0,0,0.6,2.4,0.7,4.3s0.5,5.1,0.5,5.6c0,0.4,0.1,4.6,0.1,4.6
					s-1.4,0.1-2.4-0.1c-1-0.2-3.2-0.5-3.9-0.7c-0.6-0.3-0.7-0.4-0.7-0.4s0.7-2.1,0.6-3.8c-0.1-1.7-1-3.4-1-4c0-0.6-0.4-1.7-0.4-1.7
					s-0.9,1-1.3,1.3c-0.4,0.3-0.7,0.7-0.7,0.7s0.2,0.2,0.3,0.6c0.2,0.4,0.5,1.2,0.7,1.4c0.2,0.2,1.6,1.4,1.6,1.4s-1.8,1.6-2.4,1.9
					c0,0-1.4-1-2-2.3c-0.6-1.2-1.4-2.4-1.5-2.9c-0.1-0.4-0.2-0.6,0.1-1.3c0.3-0.6,0.7-2,1-2.2c0.4-0.2,3.1-3.6,3.4-3.8
					C18,9.1,18.6,8.8,19,8.7c0.4-0.1,2.2-0.7,2.7-1.2l1.4,1.2l1,0.6"/>
			</g>
		</g>
	</g>
	<g>
		<g>
			<g>
				<path fill="#67C5B8" d="M27.9,8.7c0,0,1,0,1.3,0.3c0.3,0.3,0.9,1.3,1,1.5c0.1,0.3,0.2,1.4,0.2,1.5s0.6,0.3,0.7,0.7
					c0,0,0.2-0.5,0.6-0.9c0.4-0.4,0.5-0.8,0.5-0.8s1.6,0.1,1.8,0.8c0,0-0.3,0.6-0.3,0.9c0,0.3-0.7,2.6-1.4,3.6
					c-0.7,1-2.3,0.3-2.5-0.2c0,0,0.2,2.1,0.2,3c-0.1,0.9,0,5.1,0,5.1s-0.4-0.1-0.6,0.3c-0.2,0.4-0.3,0.1-0.2-0.2
					c0-0.3-0.5-3.4-0.9-5c-0.4-1.5-1.7-7.3-1.7-8.3c0-1,0.3-2.4,0.3-2.4s0.1-0.3,0.4-0.2S27.9,8.7,27.9,8.7z"/>
			</g>
		</g>
	</g>
	<g>
		<g>
			<g>
				<path fill="#48B9A5" d="M27.5,8.8c-0.3-0.2-0.5-0.3-0.6-0.3c0,0-0.1,0.4-0.2,0.9c-0.1,0.3-0.2,1.1-0.3,1.6c0-0.4,0-1.1,0.1-1.4
					C26.6,9,26.4,8.4,26,8C26,7.8,26,7.7,26,7.6c0,0,0.3,0.2,0.7,0.5c0.4,0.3,0.7,0.5,1.2,0.6C28.3,8.7,27.8,9,27.5,8.8z"/>
			</g>
		</g>
	</g>
	<g>
		<g>
			<g>
				<path fill="#48B9A5" d="M22.9,6.8c0,0,0,0.4-0.4,0.7l0.9,1.4c0,0,0.5,0,0.8,0.4c0.3,0.3,0.7,1.5,0.7,1.5s-0.2-0.5-0.5-0.8
					c-0.4-0.3-1-0.9-1.4-0.9c0,0-1.5,0.1-1.8,0c0,0-0.1-1.2,0.3-1.5c0.4-0.3,0.8-0.9,0.8-0.9L22.9,6.8z"/>
			</g>
		</g>
	</g>
	<g>
		<g>
			<g>
				<path fill="#67C5B8" d="M26.2,37.1c0,0,0.9,0.3,2.9,0l1.3-0.4c0,0,0.1,3.9,0.2,4.3c0,0.4-0.1,2.6,0.9,3.4c1,0.8,1.7,0.7,1.9,0.7
					c0.2,0,0.9,0.2,0.9,0.7c0,0-0.7,0.4-1.5,0.4c-0.8,0-1.5,0-2.2-0.2c-0.7-0.2-1.3-0.3-1.8-0.3c-0.5,0-1.3,0-1.6-0.3
					c0,0,0-1.5,0.1-2.1c0,0-0.4-1.3-0.7-2.5C26.3,39.5,26.2,37.1,26.2,37.1z"/>
			</g>
		</g>
	</g>
	<g>
		<g>
			<g>
				<path fill="#67C5B8" d="M19.6,46.3c0,0-0.1,0.7,0,0.9c0.1,0.2,0.6,0.2,1,0.2c0.4,0,1.1,0,1.3,0c0.3,0,0.5-0.3,0.4-0.5
					c-0.1-0.2-0.2-0.7-0.2-1c0-0.3,0.1-0.7,0.1-1.2c0-0.5-0.1-1.9,0-2.4c0.1-0.5,0.6-4.9,0.6-4.9s-1.8,0.7-3.2,0.1
					c0,0,0.4,3.8,0.4,4.3c0,0.5,0.3,0.6,0.3,1.1s0,1.9-0.3,2.4C19.7,45.7,19.6,46.3,19.6,46.3z"/>
			</g>
		</g>
	</g>
	<g>
		<g>
			<g>
				<path fill="#FFD15C" d="M19.9,20.4c0,0,0.9,0.1,1.2,0c0.4-0.1,0.7-0.1,1-0.1c0.3,0,1.1,0.2,1.1,0.2s0.4,0.4-0.1,0.5
					c0,0-0.4-0.1-0.6-0.1c-0.1,0-0.5-0.1-0.7-0.1c-0.2,0-0.5,0-0.5,0s0.6,0.1,0.8,0.2c0.2,0.1,1.1,0.5,1.1,0.5s0.1,0.2,0,0.4
					c-0.1,0.2-0.3,0.1-0.3,0.1l-1-0.5l-0.9-0.1l0,0l0.6,0.2c0,0,0.6,0.3,0.8,0.4s0.4,0.1,0.4,0.3c0,0.2-0.2,0.3-0.5,0.2
					c-0.3-0.1-1.1-0.5-1.1-0.5l-0.6-0.2l0.1,0.1c0,0,0.4,0.2,0.4,0.3c0,0,0.6,0.3,0.7,0.3c0.1,0,0.2,0.5-0.2,0.4
					c-0.5-0.1-0.8-0.4-0.9-0.5c-0.1-0.1-0.3-0.2-0.6-0.2c-0.3,0-1.6-0.3-1.9-0.8C18,21.4,19.9,20.4,19.9,20.4z"/>
			</g>
		</g>
	</g>
	<g>
		<g>
			<g>
				<path fill="#67C5B8" d="M18.2,19.6l1,0.2c0,0,0.8,0.4,1.2,0.5c0,0-0.6,0.5-0.8,0.7s-1.8,1.2-2,1.5c0,0-0.1,0.1-0.1,0.2
					c-0.2-0.4-0.4-0.7-0.7-0.9L18.2,19.6z"/>
			</g>
		</g>
	</g>
	<g>
		<g>
			<g>
				<path fill="#F5B54C" d="M32,9.9c-0.1,0.1-0.2,0.1-0.4,0.1c-0.2,0,0.2-0.1,0.2-0.2c0,0-0.1,0-0.2,0.1c0,0,0,0,0,0
					c0.1-0.1,0.2-0.2,0.2-0.2S31.9,9.8,32,9.9z"/>
			</g>
		</g>
	</g>
	<g>
		<g>
			<g>
				<path fill="#F5B54C" d="M32.1,9.4c0,0.1,0,0.2-0.1,0.2c0,0,0,0,0-0.1C32,9.5,32,9.4,32.1,9.4C32,9.2,32,9.2,32,9.1
					c0,0,0,0,0-0.1C32,9.1,32.1,9.2,32.1,9.4z"/>
			</g>
		</g>
	</g>
	<g>
		<g>
			<g>
				<path fill="#FFD15C" d="M31.9,9c0,0,0.2,0.1,0.2,0.4c0,0.2-0.2,0.4-0.2,0.4s0,0.1,0.1,0.1c0.1,0,0.4-0.3,0.4-0.3l1.3-0.4
					c0,0,0.4-0.2,0.5,0.1c0,0,0,0.6,0,0.8c0,0.2-0.1,0.5-0.3,0.8c-0.2,0.3-0.3,0.8-0.3,0.8L32.2,11c0,0-0.2-0.1-0.4-0.3
					c-0.2-0.2-0.6-0.3-0.6-0.5c0-0.2,0-0.8,0-0.8s0.1-0.2,0.4-0.2L31.9,9z"/>
			</g>
		</g>
	</g>
	<g>
		<g>
			<g>
				<path fill="#F5B54C" d="M33.9,9.5C33.9,9.5,33.9,9.4,33.9,9.5C34,9.4,34,9.4,33.9,9.5C34,9.4,34,9.4,34,9.4
					C34,9.4,34,9.4,33.9,9.5C34,9.4,34,9.4,33.9,9.5C33.9,9.4,33.9,9.5,33.9,9.5c0,0-0.1,0.1-0.1,0.1l0,0l0,0l-0.1,0.2l0,0
					c0,0,0,0,0,0c0,0,0,0,0,0c0,0,0,0,0,0c0,0,0,0,0,0c0,0,0,0,0,0c0,0-0.1,0-0.1,0c0,0-0.1,0-0.1,0c0,0,0,0,0,0c0,0,0,0,0,0l0,0
					l0,0l0,0l0,0c0,0,0,0,0,0c0,0,0,0,0,0c0,0,0,0,0,0c0,0,0,0,0,0c0,0,0,0,0,0c0,0,0,0,0,0l0,0l0,0c0,0-0.1,0-0.1,0c0,0,0,0,0,0
					c0,0,0,0,0,0l0,0c0,0,0,0,0,0c0,0,0,0,0,0c0,0,0,0,0,0c0,0,0,0,0,0c0,0,0,0,0,0l0-0.1l0,0.1c0,0,0,0,0,0c0,0,0,0,0,0
					c0,0,0,0,0,0c0,0,0,0,0,0c0,0,0,0,0,0c0,0,0,0,0,0c0,0,0,0,0,0l0,0l0,0l0,0l0,0c0,0,0,0,0,0c0,0,0,0,0,0c0,0,0,0,0,0
					c0,0,0,0,0,0c0,0,0,0,0,0c0,0,0,0,0,0c0,0,0,0,0,0c0,0,0,0,0,0c0,0,0,0,0,0l0,0c0,0-0.1,0.1-0.2,0.1c0,0,0.1,0,0.1,0
					c0,0,0,0,0,0c0,0,0,0,0,0c0,0,0,0,0,0.1c0,0,0,0,0,0.1c0,0,0,0,0,0.1c0,0,0,0,0,0.1c0,0,0,0,0,0c0,0,0,0,0,0c0,0,0,0,0,0l0,0
					l0,0l0,0l0,0c0,0,0,0,0,0c0,0,0,0,0.1,0c0,0,0,0,0,0c0,0,0,0,0,0c0,0,0,0,0.1,0c0,0,0,0,0,0c0,0,0,0,0,0c0,0,0,0,0,0
					c0,0,0,0,0,0c0,0,0,0,0.1,0l0,0c0,0,0,0,0,0c0,0,0,0,0,0c0,0,0,0,0.1,0c0,0,0,0,0.1,0l0,0l0,0c0,0,0,0,0,0c0,0,0,0,0,0
					c0,0,0,0,0,0c0,0,0,0,0,0c0,0,0,0,0,0c0,0,0,0,0,0c0,0,0,0,0-0.1l0,0c0,0,0,0,0,0c0,0,0,0,0,0c0,0,0.1,0,0.1,0c0,0,0.1,0,0.1,0
					c0,0,0,0,0,0c0,0,0,0,0,0c0,0,0,0,0,0c0,0,0,0,0,0c0,0,0,0,0,0l0,0l0.1-0.2C33.8,9.6,33.9,9.5,33.9,9.5z"/>
			</g>
		</g>
	</g>
	<g>
		<g>
			<g>
				<path fill="#FFD15C" d="M32.1,8.4C32,8.5,32,8.6,32,8.8c0,0.3,0,0.8,0.1,0.9c0.1,0.1,0.3,0,0.3,0s0,0.3,0.2,0.4
					c0.2,0.1,0.3-0.1,0.3-0.1s0,0.2,0.2,0.2c0.1,0,0.3,0,0.3-0.3c0,0,0.3,0.1,0.5-0.1c0.1-0.2,0.1-0.2,0.1-0.2S34,9.4,34,9.4
					c0.1,0,0.1,0,0.1,0s0.1,0,0.1,0.1c0,0.1,0.1-0.4-0.2-0.6c-0.3-0.2-0.3,0-0.3,0s-0.1-0.4-0.6-0.2c0,0-0.2-0.3-0.5-0.1
					C32.6,8.6,32.4,8.2,32.1,8.4z"/>
			</g>
		</g>
	</g>
	<g>
		<g>
			<g>
				<g>
					<path fill="#F5B54C" d="M32.6,8.6c0,0,0,0.1,0,0.2c0,0.1,0,0.1,0,0.2c0,0.1,0,0.1,0,0.2c0,0,0,0.1,0,0.1c0,0,0,0.1,0,0.1
						c0,0.1,0,0.1,0,0.2c0,0.1-0.1,0.2-0.1,0.2s0-0.1,0-0.2c0-0.1,0-0.1,0-0.2c0,0,0-0.1,0-0.1c0,0,0-0.1,0-0.1c0-0.1,0-0.1,0.1-0.2
						c0-0.1,0-0.1,0.1-0.2C32.5,8.7,32.6,8.6,32.6,8.6z"/>
				</g>
			</g>
		</g>
		<g>
			<g>
				<g>
					<path fill="#F5B54C" d="M33.1,8.7c0,0,0,0.1,0,0.1c0,0,0,0.1,0,0.1C33,9,33,9.1,33,9.1c0,0.1,0,0.1-0.1,0.2
						c0,0.1,0,0.1-0.1,0.2l0,0c0,0.1,0,0.2-0.1,0.3c0,0,0,0.1,0,0.1c0,0,0,0.1,0,0.1c0,0,0-0.1,0-0.1c0,0,0-0.1,0-0.1
						c0-0.1,0-0.2,0.1-0.3l0,0l0,0c0-0.1,0-0.1,0.1-0.2c0-0.1,0-0.1,0.1-0.2C33,9.1,33,9,33,8.9C33,8.9,33,8.9,33.1,8.7
						C33.1,8.8,33.1,8.8,33.1,8.7z"/>
				</g>
			</g>
		</g>
		<g>
			<g>
				<g>
					<path fill="#F5B54C" d="M33.2,9.9c0-0.1,0-0.2,0-0.3c0,0,0-0.1,0-0.1c0,0,0-0.1,0-0.1l0,0l0,0c0,0,0.1-0.1,0.1-0.1
						c0,0,0.1-0.1,0.1-0.1c0.1-0.1,0.1-0.2,0.2-0.2c0,0.1-0.1,0.2-0.1,0.3c0,0,0,0.1-0.1,0.1c0,0-0.1,0.1-0.1,0.1l0,0
						c0,0,0,0.1,0,0.1c0,0,0,0.1,0,0.1C33.3,9.8,33.3,9.9,33.2,9.9z"/>
				</g>
			</g>
		</g>
	</g>
	<g>
		<g>
			<g>
				<g>
					<g>
						<path fill="#425A6B" d="M34.2,9.7c0,0.1-0.2,0.7-0.3,0.8c0,0,0,0-0.1,0c-0.1-0.1-0.3-0.1-0.7-0.2c0.1,0,0.1-0.1,0.1-0.3
							c0,0,0.3,0.1,0.5-0.1c0.1-0.2,0.1-0.2,0.1-0.2s0,0,0,0c0,0,0.2,0.1,0.2,0C34.1,9.6,34.2,9.6,34.2,9.7z"/>
					</g>
				</g>
			</g>
		</g>
	</g>
</g>
</svg>
