<?xml version="1.0" encoding="utf-8"?>
<!-- Generator: Adobe Illustrator 18.0.0, SVG Export Plug-In . SVG Version: 6.00 Build 0)  -->
<!DOCTYPE svg PUBLIC "-//W3C//DTD SVG 1.1//EN" "http://www.w3.org/Graphics/SVG/1.1/DTD/svg11.dtd">
<svg version="1.1" id="Layer_1" xmlns="http://www.w3.org/2000/svg" xmlns:xlink="http://www.w3.org/1999/xlink" x="0px" y="0px"
	 viewBox="0 0 48 48" enable-background="new 0 0 48 48" xml:space="preserve">
<g>
	<g>
		<g>
			<g>
				<path fill="#49BAA4" d="M19.6,0.1c2.9,1,5.8,1,8.8,0h0.5l1.6,2.6l-0.9,0c-3.9,1.5-7.6,1.5-11.3,0l0.3-2.1
					C18.9,0.2,19.3,0,19.6,0.1z"/>
			</g>
		</g>
		<g>
			<path fill="#CED6E0" d="M30.3,12.1C30.2,12.1,30.2,12.1,30.3,12.1L17.5,8.4c-0.1,0-0.2-0.2-0.2-0.3c0-0.1,0.2-0.2,0.3-0.2
				l12.6,3.7c0.1,0,0.2,0.2,0.2,0.3C30.5,12,30.4,12.1,30.3,12.1z"/>
		</g>
		<g>
			<path fill="#CED6E0" d="M28.1,19.6C28.1,19.6,28.1,19.6,28.1,19.6l-9.3-3.8c-0.1-0.1-0.2-0.2-0.1-0.3c0.1-0.1,0.2-0.2,0.3-0.1
				l9.2,3.7c0.1,0.1,0.2,0.2,0.1,0.3C28.3,19.5,28.2,19.6,28.1,19.6z"/>
		</g>
		<g>
			<path fill="#CED6E0" d="M17.7,12.1c-0.1,0-0.2-0.1-0.2-0.2c0-0.1,0-0.3,0.2-0.3l12.6-3.7c0.1,0,0.3,0,0.3,0.2
				c0,0.1,0,0.3-0.2,0.3L17.7,12.1C17.8,12.1,17.8,12.1,17.7,12.1z"/>
		</g>
		<g>
			<path fill="#CED6E0" d="M19.9,19.6c-0.1,0-0.2-0.1-0.2-0.2c-0.1-0.1,0-0.3,0.1-0.3l9.2-3.7c0.1-0.1,0.3,0,0.3,0.1
				c0.1,0.1,0,0.3-0.1,0.3L19.9,19.6C19.9,19.6,19.9,19.6,19.9,19.6z"/>
		</g>
		<g>
			<g>
				<path fill="#66C6B9" d="M37.8,45.3C38.9,47.7,24,48,24,48s-14.9-0.3-13.8-2.7c1.2-2.5,3.7-9.9,0.8-20c-0.1-0.3-0.2-0.6-0.3-0.9
					c-2.8-6.8,1-11,1-11S15,2.7,16.8,1.5c0.9-0.8,2.5-1.8,2.9-1.4c0,0-0.6-0.1-0.9,1.2c-0.2,1.2-1,17.8,5.3,20.7
					c6.2-2.9,5.5-19.5,5.3-20.7C29,0,28.4,0.1,28.4,0.1c0.4-0.3,2,0.7,2.9,1.4c1.7,1.3,5.1,11.9,5.1,11.9s3.8,4.2,1,11
					c-0.1,0.3-0.2,0.6-0.3,0.9C34.1,35.4,36.6,42.7,37.8,45.3z"/>
			</g>
		</g>
		<g>
			<g>
				<circle fill="#415A6B" cx="19" cy="15.6" r="0.6"/>
			</g>
			<g>
				<circle fill="#415A6B" cx="28.1" cy="19.4" r="0.6"/>
			</g>
			<g>
				<circle fill="#415A6B" cx="30.1" cy="11.9" r="0.6"/>
			</g>
			<g>
				<circle fill="#415A6B" cx="17.6" cy="8.1" r="0.6"/>
			</g>
			<g>
				<g>
					<g>
						<path fill="none" stroke="#CED6E0" stroke-width="6" stroke-miterlimit="10" d="M19,15.6"/>
					</g>
				</g>
			</g>
		</g>
		<g>
			<g>
				<g>
					<g>
						<path fill="none" stroke="#CED6E0" stroke-width="6" stroke-miterlimit="10" d="M29,15.6"/>
					</g>
				</g>
			</g>
			<g>
				<g>
					<circle fill="#415A6B" cx="29" cy="15.6" r="0.6"/>
				</g>
				<g>
					<circle fill="#415A6B" cx="19.9" cy="19.4" r="0.6"/>
				</g>
				<g>
					<circle fill="#415A6B" cx="17.9" cy="11.9" r="0.6"/>
				</g>
				<g>
					<circle fill="#415A6B" cx="30.4" cy="8.1" r="0.6"/>
				</g>
			</g>
		</g>
		<g>
			<path fill="#E8EAE9" d="M19,15.9c-0.1,0-0.2-0.1-0.2-0.2c0-0.1,0-0.3,0.2-0.3l11.3-3.7c0.1,0,0.3,0,0.3,0.2c0,0.1,0,0.3-0.2,0.3
				L19,15.9C19,15.9,19,15.9,19,15.9z"/>
		</g>
		<g>
			<path fill="#E8EAE9" d="M29,15.9C29,15.9,29,15.9,29,15.9l-11.4-3.8c-0.1,0-0.2-0.2-0.2-0.3c0-0.1,0.2-0.2,0.3-0.2l11.3,3.7
				c0.1,0,0.2,0.2,0.2,0.3C29.2,15.8,29.1,15.9,29,15.9z"/>
		</g>
		<g>
			<g>
				<path fill="#E8EAE9" d="M28.1,19.6h-8.3c-0.1,0-0.2-0.1-0.2-0.2c0-0.1,0.1-0.2,0.2-0.2h8.3c0.1,0,0.2,0.1,0.2,0.2
					C28.4,19.5,28.3,19.6,28.1,19.6z"/>
			</g>
		</g>
		<g>
			<g>
				<path fill="#E8EAE9" d="M31.8,17.9C31.8,17.9,31.8,17.9,31.8,17.9c-0.2-0.1-0.3-0.2-0.2-0.3c1.4-4.1-1.4-9.2-1.4-9.3
					c-0.1-0.1,0-0.3,0.1-0.3c0.1-0.1,0.3,0,0.3,0.1c0.1,0.2,2.9,5.4,1.4,9.7C32,17.8,31.9,17.9,31.8,17.9z"/>
			</g>
		</g>
		<g>
			<g>
				<path fill="#E8EAE9" d="M17.4,21.7C17.3,21.7,17.3,21.7,17.4,21.7c-0.2,0-0.3-0.2-0.2-0.3c0,0,0.9-3.6-0.5-6.8
					C15,11.2,17.3,8.1,17.4,8c0.1-0.1,0.2-0.1,0.3,0c0.1,0.1,0.1,0.2,0,0.3l0,0c0,0-2.2,2.9-0.8,6.1c1.5,3.3,0.6,7,0.6,7.1
					C17.6,21.6,17.5,21.7,17.4,21.7z"/>
			</g>
		</g>
	</g>
</g>
</svg>
