<?xml version="1.0" encoding="utf-8"?>
<!-- Generator: Adobe Illustrator 20.1.0, SVG Export Plug-In . SVG Version: 6.00 Build 0)  -->
<!DOCTYPE svg PUBLIC "-//W3C//DTD SVG 1.1//EN" "http://www.w3.org/Graphics/SVG/1.1/DTD/svg11.dtd">
<svg version="1.1" id="Layer_1" xmlns="http://www.w3.org/2000/svg" xmlns:xlink="http://www.w3.org/1999/xlink" x="0px" y="0px"
	 viewBox="0 0 49 49" enable-background="new 0 0 49 49" xml:space="preserve">
<g>
	<circle fill="#CDD6E0" cx="22.5" cy="3.1" r="2.6"/>
	<path fill="#CDD6E0" d="M22.5,4.3c-4.5,0-8.7,2.8-12,7.6h23.9C31.2,7.1,27,4.3,22.5,4.3z"/>
	<path fill="#F2F2F2" d="M41.5,38.2c0,1.4-0.1,2.7-0.1,4c0,0.6-0.1,1.2-0.1,1.8H3.8c-0.1-0.6-0.1-1.2-0.1-1.8
		c-0.1-1.3-0.1-2.6-0.1-4C3.5,31,4.8,24.3,7,18.8c-2.1-1.6-3.4-4.1-3.4-6.9h30.9C38.7,18.1,41.5,27.6,41.5,38.2z"/>
	<path fill="#40596B" d="M46.9,29.8c-0.7,2.9-2.1,5.5-3.9,7.4c-0.5,0.5-1,1-1.5,1.4c0-0.1,0-0.2,0-0.4c0-1.4-0.1-2.7-0.1-4
		c0.5-0.6,1-1.2,1.3-2c0.5-1,1-2,1.2-3.2c1.4-5.4-0.7-10.6-4.7-11.6c0,0-0.1,0-0.1,0c-0.6-0.1-1.1-0.2-1.7-0.1
		c-0.5-1.2-1.1-2.3-1.7-3.4c0.5-0.2,1-0.3,1.6-0.3c1-0.1,1.9-0.1,2.9,0.2C45.8,15.2,48.8,22.4,46.9,29.8z"/>
	<path fill="#E2E2E2" d="M41.3,42.2c0,0.6-0.1,1.2-0.1,1.8H3.8c-0.1-0.6-0.1-1.2-0.1-1.8H41.3z"/>
	<path fill="#40596B" d="M42.1,43.7H2.9c-0.7,0-1.3,0.6-1.3,1.3v2.1c0,0.7,0.6,1.3,1.3,1.3h39.2c0.7,0,1.3-0.6,1.3-1.3v-2.1
		C43.5,44.3,42.9,43.7,42.1,43.7z"/>
	<path fill="#334A5E" d="M37.3,13.6c0.7,1.2,1.3,2.5,1.8,3.9c-0.6-0.1-1.1-0.2-1.7-0.1c-0.5-1.2-1.1-2.3-1.7-3.4
		C36.3,13.8,36.8,13.7,37.3,13.6z"/>
	<path fill="#334A5E" d="M43,37.2c-0.5,0.5-1,1-1.5,1.4c0-0.1,0-0.2,0-0.4c0-1.4-0.1-2.7-0.1-4c0.5-0.6,1-1.2,1.3-2
		C42.9,33.8,43,35.5,43,37.2z"/>
</g>
</svg>
