<?xml version="1.0" encoding="utf-8"?>
<!-- Generator: Adobe Illustrator 18.0.0, SVG Export Plug-In . SVG Version: 6.00 Build 0)  -->
<!DOCTYPE svg PUBLIC "-//W3C//DTD SVG 1.1//EN" "http://www.w3.org/Graphics/SVG/1.1/DTD/svg11.dtd">
<svg version="1.1" id="Layer_1" xmlns="http://www.w3.org/2000/svg" xmlns:xlink="http://www.w3.org/1999/xlink" x="0px" y="0px"
	 viewBox="0 0 48 48" enable-background="new 0 0 48 48" xml:space="preserve">
<g>
	<g>
		<g>
			<polygon fill="#FFD15C" points="7.2,0 5.2,44.2 12,44.2 10.8,0 			"/>
			<g>
				<polygon fill="#FFD15C" points="14.7,0 40.3,2.1 42.8,37.1 17.4,48 				"/>
			</g>
			<g>
				<g>
					<g>
						<path fill="#4ABAA5" d="M33.6,26.9c0,0,3.5-5.5,1.7-9.7c-0.7-1.5-2.2-2-3.6-1.1c-1.1,0.7-1.7,2.1-1.5,3.5
							c-0.9-0.9-2.2-1-3.4-0.2c-1.6,1-2.2,3.2-1.4,4.9C27.6,28.8,33.6,26.9,33.6,26.9z"/>
					</g>
					<g>
						<g>
							<path fill="#FFFFFF" d="M36.7,32.5c0,0,3.3-5.6,1.5-9.6c-0.6-1.4-2.1-1.8-3.3-0.9c-1,0.8-1.6,2.2-1.4,3.5
								c-0.8-0.8-2.1-0.9-3.2,0c-1.5,1.1-2,3.3-1.3,4.8C31.1,34.7,36.7,32.5,36.7,32.5z"/>
						</g>
					</g>
					<g>
						<path fill="#F3705A" d="M27,36.4c0,0,5.7-4.3,5.6-9.5c0-1.8-1.3-3-2.9-2.8c-1.3,0.2-2.4,1.4-2.8,2.8c-0.4-1.3-1.6-2.1-3.1-1.8
							c-1.9,0.3-3.5,2.3-3.4,4.3C20.5,35.5,27,36.4,27,36.4z"/>
					</g>
				</g>
			</g>
			<g>
				<g>
					<g>
						<circle fill="#415A6B" cx="24.6" cy="6.6" r="1.4"/>
					</g>
				</g>
				<g>
					<g>
						<g>
							<path fill="#415A6B" d="M36.4,6.6c0,0.6-0.4,1.1-0.9,1.1c-0.5,0-1-0.5-1-1.1c0-0.6,0.4-1.1,0.9-1.1C36,5.5,36.4,6,36.4,6.6z"
								/>
						</g>
					</g>
					<g>
						<g>
							<path fill="#FFFFFF" d="M30.5,16.6c-3.3,0.4-6.3-2.9-6.5-7.5l-0.1-2.5c0-0.3,0.2-0.6,0.5-0.6C24.7,6,25,6.2,25,6.5L25.1,9
								c0.2,3.9,2.7,6.8,5.4,6.5c1.1-0.1,2.2-0.8,3-1.9c1.1-1.4,1.7-3.5,1.6-5.6L35,6.6c0-0.3,0.2-0.5,0.4-0.5
								c0.2,0,0.4,0.2,0.5,0.5L36,8c0.1,2.4-0.5,4.6-1.7,6.3C33.2,15.6,31.9,16.4,30.5,16.6z"/>
						</g>
					</g>
				</g>
			</g>
			<g>
				<polygon fill="#F7B64C" points="14.7,0 10.8,0 12,44.2 17.4,48 				"/>
			</g>
		</g>
		<polygon fill="#EFA245" points="17.4,48 12,44.2 5.2,44.2 		"/>
	</g>
</g>
</svg>
