<?xml version="1.0" encoding="utf-8"?>
<!-- Generator: Adobe Illustrator 18.0.0, SVG Export Plug-In . SVG Version: 6.00 Build 0)  -->
<!DOCTYPE svg PUBLIC "-//W3C//DTD SVG 1.1//EN" "http://www.w3.org/Graphics/SVG/1.1/DTD/svg11.dtd">
<svg version="1.1" id="Layer_1" xmlns="http://www.w3.org/2000/svg" xmlns:xlink="http://www.w3.org/1999/xlink" x="0px" y="0px"
	 viewBox="0 0 48 48" enable-background="new 0 0 48 48" xml:space="preserve">
<g>
	<g>
		<g>
			<g>
				<g>
					<path fill="#425A6B" d="M21.7,7.7l0.1-0.2c0,0,0.1-0.1,0.4,0c0.3,0.1,0.3,0.1,0.3,0.1L21.7,7.7z"/>
				</g>
			</g>
		</g>
	</g>
	<g>
		<g>
			<g>
				<g>
					<g>
						<g>
							<g>
								<path fill="#344A5E" d="M27.6,46.2l-0.3-1L27,44.6l-1.7,0.1l-0.2,0.1c0,0-0.2,1.5-0.1,1.9c0,0.4,0.2,0.7,0.2,0.7l1.2,0.4
									C26.4,47.6,27.9,47.1,27.6,46.2z"/>
							</g>
						</g>
					</g>
				</g>
				<g>
					<g>
						<g>
							<g>
								<path fill="#56BFEB" d="M29.4,26.6L29,32.6c0,0-0.3,3.4-0.3,4.3c0,0.9-0.7,7.7-0.7,7.7s-1.9,1.4-3.4,0c0,0-0.2-2.4,0.2-4.3
									c0.4-1.9,0.5-8,0.2-9.5c-0.2-1.5-0.8-3.6-0.8-3.6L29.4,26.6z"/>
							</g>
						</g>
					</g>
				</g>
				<g>
					<g>
						<g>
							<g>
								<path fill="#425A6B" d="M25,46.6c0,0,0.1,0.5,0.5,0.6c0.4,0.1,1.4,0.1,1.8-0.4c0.4-0.5,0-1.6,0-1.6s0.3,0.8,0.3,1.5
									c0,0.7-0.8,1.2-1.4,1.3C25.7,48,25,48.1,25,46.6z"/>
							</g>
						</g>
					</g>
				</g>
			</g>
			<g>
				<g>
					<g>
						<g>
							<g>
								<path fill="#344A5E" d="M20.8,46.2l0.3-1l0.3-0.6l1.7,0.1l0.2,0.1c0,0,0.2,1.5,0.1,1.9c0,0.4-0.2,0.7-0.2,0.7L22,47.6
									C22,47.6,20.5,47.1,20.8,46.2z"/>
							</g>
						</g>
					</g>
				</g>
				<g>
					<g>
						<g>
							<g>
								<path fill="#56BFEB" d="M19,26.6l0.4,5.9c0,0,0.3,3.4,0.3,4.3c0,0.9,0.7,7.7,0.7,7.7s1.9,1.4,3.4,0c0,0,0.2-2.4-0.2-4.3
									c-0.4-1.9-0.5-8-0.2-9.5c0.2-1.5,0.8-3.6,0.8-3.6L19,26.6z"/>
							</g>
						</g>
					</g>
				</g>
				<g>
					<g>
						<g>
							<g>
								<path fill="#425A6B" d="M23.4,46.6c0,0-0.1,0.5-0.5,0.6c-0.4,0.1-1.4,0.1-1.8-0.4c-0.4-0.5,0-1.6,0-1.6s-0.3,0.8-0.3,1.5
									c0,0.7,0.8,1.2,1.4,1.3C22.6,48,23.4,48.1,23.4,46.6z"/>
							</g>
						</g>
					</g>
				</g>
			</g>
		</g>
		<g>
			<g>
				<g>
					<g>
						<g>
							<path fill="#FFD15C" d="M29.2,16.4c0,0,0.5,1.5,0.7,2.1c0.2,0.6,0.3,3.2,0.3,3.2s0.2,2.6,0.3,3.1c0.1,0.5,0.4,1.4,0.4,1.4
								l-0.1,1.3l-1,0.9c0,0-0.2-0.2,0-0.3l-0.3,0.2c0,0-0.3-0.1-0.1-0.3l-0.1,0.1c0,0-0.1-0.3,0.1-0.5l0.2-0.2c0,0-0.1-0.1-0.1-0.4
								c0-0.2,0.1-1,0-1.3c-0.1-0.3-0.2-0.9,0-1.3c0.1-0.4-1.2-5.7-1.2-5.7S27.8,16.6,29.2,16.4z"/>
						</g>
					</g>
				</g>
			</g>
			<g>
				<g>
					<g>
						<path fill="#F5B54C" d="M29.8,28.2C29.8,28.2,29.8,28.2,29.8,28.2c0,0,0.1-0.1,0.1-0.1c0,0,0.1-0.1,0.1-0.1c0,0,0.1-0.1,0.2,0
							c0,0,0-0.1,0-0.1c0,0,0-0.1,0.1-0.1c0.1-0.1,0.2-0.2,0.4-0.3c-0.1,0-0.1,0-0.2,0c-0.1,0-0.1-0.1-0.1-0.2c0-0.1,0-0.2,0-0.2
							c0-0.1,0.1-0.1,0.2-0.2c-0.1,0-0.3-0.1-0.3-0.3c0,0,0,0,0,0c0-0.1,0.1-0.1,0.1-0.1c0,0-0.1,0-0.1,0c0,0,0-0.1,0-0.1
							c0-0.1,0-0.2,0-0.3c-0.1,0.2-0.1,0.4-0.1,0.6c0,0.3,0,0.6-0.1,0.9c0,0.1,0,0.1,0,0.2c0,0.1-0.1,0.1-0.1,0.1
							c-0.1,0-0.1,0-0.2,0l-0.2,0.2c-0.3,0.1-0.1,0.5-0.1,0.5l0.1-0.1c-0.1,0.2,0.1,0.3,0.1,0.3L29.8,28.2z"/>
					</g>
				</g>
			</g>
		</g>
		<g>
			<g>
				<g>
					<g>
						<path fill="#FFD15C" d="M25.9,4.1l-0.2,0.8c0,0-0.2,0.8-0.3,1c-0.1,0.2-0.6,0.9-0.6,0.9S24.7,7.7,25,8.1
							c0.2,0.4,0.4,0.8,0.4,0.8l-1,3.9l-0.5,0.7l-3.1-4.1l0-0.6c0,0,0.9-0.6,1.2-1.3c0.3-0.7,0-1.3,0-1.3l-0.7-1.8
							c0,0,0.9-3.2,2.6-3.4C25.5,0.9,26.7,2.7,25.9,4.1z"/>
					</g>
				</g>
			</g>
		</g>
		<g>
			<g>
				<g>
					<g>
						<path fill="#FFD15C" d="M25.9,4.1l-0.2,0.8c0,0-0.2,0.8-0.3,1c-0.1,0.2-0.6,0.9-0.6,0.9S24.7,7.7,25,8.1
							c0.2,0.4,0.4,0.8,0.4,0.8l-1,3.9l-0.5,0.7l-3.1-4.1l0-0.6c0,0,0.2-0.1,0.4-0.3c0.3-0.2,0.6-0.6,0.8-1c0.2-0.5,0.1-1,0-1.2
							c0-0.1,0-0.1,0-0.1l-0.7-1.8c0,0,0.9-3.2,2.6-3.4C25.5,0.9,26.7,2.7,25.9,4.1z"/>
					</g>
				</g>
			</g>
		</g>
		<g>
			<g>
				<g>
					<g>
						<path fill="#8AD6F7" d="M25.1,8.4c0,0,1.2,0.4,1.6,0.6c0.5,0.1,1.8,0.7,2.2,1.2c0.3,0.5,2.6,5.7,2.6,5.7L28.5,17l-0.2,1.2
							c0,0,0.6,3.5,1,5.1c0.4,1.6,0.4,4.1,0.4,4.1s-3.3,0.7-5.3,0.8c-1.9,0.1-5,0-5.6-0.3c0,0,0.3-3.5,0.6-4.7
							c0.3-1.1,0.8-6.7,0.8-6.7s-0.6-0.2-1.1,0.1c0,0-0.1,0.7-0.6,0.8c-0.5,0.2-1.8-0.2-1.9-0.6c0,0,0.5-2.2,0.6-3.1
							c0.2-0.9,0.2-3.4,1.4-3.9c1.2-0.5,2.6-1.3,2.6-1.3l1,1.7l2,2.4L25.1,8.4z"/>
					</g>
				</g>
			</g>
		</g>
		<g>
			<g>
				<g>
					<g>
						<path fill="#CED6E0" d="M26.4,16.1c-0.1,0-0.2,0-0.3-0.1c-0.1-0.1-0.2-0.2-0.2-0.3l-0.3-3.4l0.1,0l0.3,3.4
							c0,0.1,0.1,0.2,0.1,0.2c0.1,0.1,0.2,0.1,0.3,0.1l1.3-0.2l0,0.1L26.4,16.1C26.4,16.1,26.4,16.1,26.4,16.1z"/>
					</g>
				</g>
			</g>
		</g>
		<g>
			<g>
				<g>
					<g>
						<g>
							<polygon fill="#ACB2BA" points="18.5,23.7 19.2,23.7 24.5,22.2 23.5,21.8 							"/>
						</g>
					</g>
				</g>
			</g>
			<g>
				<g>
					<g>
						<g>
							<polygon fill="#E8EAE8" points="18.5,23.7 23.6,22.3 23.7,15.4 18.8,17.5 							"/>
						</g>
					</g>
				</g>
			</g>
			<g>
				<g>
					<g>
						<g>
							<polygon fill="#CED6E0" points="23.6,22.3 24.5,22.2 23.7,15.4 							"/>
						</g>
					</g>
				</g>
			</g>
		</g>
		<g>
			<g>
				<g>
					<g>
						<path fill="#425A6B" d="M22,6.3c-0.6-2.8,0.4-1.9,0.2-2.5c-0.1-0.5,0-1,0.2-1.3c0.4-0.5,0.9-0.8,1.8-0.6C25.5,2,26,3,25.9,3.4
							c0,0.3-0.3,1.5-0.3,1.5s0.8-0.9,0.8-2c0-1.1-0.4-2-1.1-2.3c-0.7-0.4-2.1-0.7-2.8-0.4c-0.7,0.3-1.5,1.6-1.7,2.6
							C20.6,3.6,21.3,5.4,22,6.3z"/>
					</g>
				</g>
			</g>
		</g>
		<g>
			<g>
				<g>
					<g>
						<path fill="#FFD15C" d="M22.1,4.1c0.1,0.4,0,0.8-0.2,0.9c-0.2,0.1-0.5-0.2-0.6-0.6c-0.1-0.4,0-0.8,0.2-0.9
							C21.8,3.4,22,3.6,22.1,4.1z"/>
					</g>
				</g>
			</g>
		</g>
		<g>
			<g>
				<g>
					<g>
						<path fill="#56BFEB" d="M26.2,8.7L24.5,14l-4.2-5l0,0l0.8-0.4l0,0l3,3.2l1.1-3.4C25.1,8.4,25.7,8.6,26.2,8.7z"/>
					</g>
				</g>
			</g>
		</g>
		<g>
			<g>
				<g>
					<g>
						<path fill="#56BFEB" d="M29.2,16.7L28.5,17c0,0,0.2-4.1,0.2-4.4c0-0.4,0.2-1.6,0.2-1.6s0.2,2-0.1,3.2
							c-0.3,1.2,0.2,0.4,0.4-0.3c0.2-0.8,0.1,1.2,0.1,2.1C29.3,16.2,29.3,16.5,29.2,16.7z"/>
					</g>
				</g>
			</g>
		</g>
		<g>
			<g>
				<g>
					<g>
						<path fill="#56BFEB" d="M20.2,12.5l-0.1,4l0,0.1c-0.2,0-0.7-0.2-1.1,0.1c0,0,0.5-1.4,0.9-2.5C20.2,13.2,20.2,12.7,20.2,12.5z"
							/>
					</g>
				</g>
			</g>
		</g>
		<g>
			<g>
				<g>
					<g>
						<g>
							<path fill="#8AD6F7" d="M20.6,22.4c0,0,0.4,0.2,0.4,0.3c0,0,0.4,0.1,0.5,0.2c0,0,0.1-0.1,0.3-0.1l0,0.2c0,0,0,0.4-0.3,0.4
								l-0.2,0.2c0,0,0,0.2-0.3,0.1c0,0-0.1,0.1-0.4,0.1c-0.3-0.1-0.9-0.3-0.9-0.3s-0.1-0.7-0.2-1.2c0.1-0.5,0.1-1.2,0.2-1.9
								c0.2,0.2,0.5,0.5,0.7,0.5c0.3,0.1,0.7,0.2,0.9,0.3c0.2,0.1,0.5,0.2,0.5,0.2h0.5c0,0-0.1,0.6-0.7,0.5C21,21.8,21,21.8,21,21.8
								S20.6,22.1,20.6,22.4z"/>
						</g>
					</g>
				</g>
			</g>
			<g>
				<g>
					<g>
						<g>
							<path fill="#8AD6F7" d="M19.4,16.5v-1.2h-2.6c-0.2,0.8-0.3,1.6-0.3,1.6c0.1,0.4,1.5,0.8,1.9,0.6c0.5-0.2,0.6-0.8,0.6-0.8
								C19.1,16.6,19.2,16.6,19.4,16.5z"/>
						</g>
					</g>
				</g>
			</g>
			<g>
				<g>
					<g>
						<g>
							<path fill="#F3F3F3" d="M21.8,21.4c0,0-0.2,0.3,0,0.3c0.2,0,0.4-0.3,0.4-0.3L21.8,21.4z"/>
						</g>
					</g>
				</g>
			</g>
			<g>
				<g>
					<g>
						<g>
							<path fill="#FFD15C" d="M21,21.8c0,0,0,0,0.6,0.1c0.6,0.1,0.7-0.5,0.7-0.5h-0.5c0-0.1-0.3-0.1-0.5-0.2
								c-0.2-0.1-0.6-0.3-0.9-0.3c-0.2,0-0.4-0.3-0.7-0.5c-0.2-0.2-0.3-0.3-0.4-0.5c-0.2-0.3-0.4-1.3-0.7-1.9
								c-0.1-0.1-0.1-0.3-0.2-0.5c0-0.1,0-0.1,0-0.2c-0.1-0.1-0.1-0.3-0.2-0.4c0-0.1,0-0.1-0.1-0.2c0,0,0,0,0,0h-1.4
								c-0.1,0.3-0.1,0.5-0.1,0.5c0,0.1,0,0.2,0,0.3c0,1.1,1.2,2.5,1.5,2.8c0.3,0.2,1,1.3,1.2,1.6c0,0.1,0.1,0.2,0.1,0.3
								c0.1,0.5,0.2,1.2,0.2,1.2s0.6,0.3,0.9,0.3c0.3,0.1,0.4-0.1,0.4-0.1c0.3,0.1,0.3-0.1,0.3-0.1l0.2-0.2c0.3,0,0.3-0.4,0.3-0.4
								l0-0.2c-0.2-0.1-0.3,0.1-0.3,0.1c-0.1-0.1-0.5-0.2-0.5-0.2c0-0.2-0.4-0.3-0.4-0.3C20.6,22.1,21,21.8,21,21.8z"/>
						</g>
					</g>
				</g>
			</g>
			<g>
				<g>
					<g>
						<g>
							<path fill="#8AD6F7" d="M19.4,16.5v-1.2h-2.6c-0.2,0.8-0.3,1.6-0.3,1.6c0.1,0.4,1.5,0.8,1.9,0.6c0.5-0.2,0.6-0.8,0.6-0.8
								C19.1,16.6,19.2,16.6,19.4,16.5z"/>
						</g>
					</g>
				</g>
			</g>
		</g>
		<g>
			<g>
				<g>
					<g>
						<path fill="#F5B54C" d="M21.9,5.8c0,0,0.5,1,1.3,1.4c0.8,0.4,1.6-0.4,1.6-0.4c-0.1,0.5-0.4,0.7-0.8,0.9
							C24,7.6,22.6,7.9,21.9,5.8z"/>
					</g>
				</g>
			</g>
		</g>
		<g>
			<g>
				<g>
					<g>
						<g>
							<path fill="#FFD15C" d="M30.2,21.7c0,0,0-0.2,0-0.4h-1.3c0.3,1.4,0.7,2.9,0.6,3.2c-0.1,0.4-0.1,1,0,1.3
								c0.1,0.3,0.1,1.1,0,1.3c0,0.2,0.1,0.4,0.1,0.4l-0.2,0.2c-0.3,0.1-0.1,0.5-0.1,0.5l0.1-0.1c-0.1,0.2,0.1,0.3,0.1,0.3l0.3-0.2
								c-0.1,0.2,0,0.3,0,0.3l1-0.9l0.1-1.3c0,0-0.3-1-0.4-1.4C30.5,24.3,30.2,21.7,30.2,21.7z"/>
						</g>
					</g>
				</g>
			</g>
			<g>
				<g>
					<g>
						<path fill="#F5B54C" d="M29.8,28.2C29.8,28.2,29.8,28.2,29.8,28.2c0,0,0.1-0.1,0.1-0.1c0,0,0.1-0.1,0.1-0.1c0,0,0.1-0.1,0.2,0
							c0,0,0-0.1,0-0.1c0,0,0-0.1,0.1-0.1c0.1-0.1,0.2-0.2,0.4-0.3c-0.1,0-0.1,0-0.2,0c-0.1,0-0.1-0.1-0.1-0.2c0-0.1,0-0.2,0-0.2
							c0-0.1,0.1-0.1,0.2-0.2c-0.1,0-0.3-0.1-0.3-0.3c0,0,0,0,0,0c0-0.1,0.1-0.1,0.1-0.1c0,0-0.1,0-0.1,0c0,0,0-0.1,0-0.1
							c0-0.1,0-0.2,0-0.3c-0.1,0.2-0.1,0.4-0.1,0.6c0,0.3,0,0.6-0.1,0.9c0,0.1,0,0.1,0,0.2c0,0.1-0.1,0.1-0.1,0.1
							c-0.1,0-0.1,0-0.2,0l-0.2,0.2c-0.3,0.1-0.1,0.5-0.1,0.5l0.1-0.1c-0.1,0.2,0.1,0.3,0.1,0.3L29.8,28.2z"/>
					</g>
				</g>
			</g>
		</g>
	</g>
	<g>
		<g>
			<g>
				<g>
					<path fill="none" stroke="#E8EAE8" stroke-width="2" stroke-miterlimit="10" d="M27.7,15.8"/>
				</g>
			</g>
		</g>
		<g>
			<g>
				<g>
					<path fill="#E8EAE8" d="M27.1,16c-0.1,0-0.2,0-0.3-0.1l-0.4-0.4l0.1-0.1l0.4,0.4c0.1,0.1,0.2,0.1,0.3,0.1
						c0.1,0,0.2-0.1,0.2-0.2c0-0.1,0.1-0.2,0.1-0.3L27,12.4c-0.1-0.4-0.4-0.7-0.8-0.7c-0.1,0-0.3,0.1-0.3,0.2
						c-0.1,0.1-0.1,0.2-0.1,0.4l-0.1,0c0-0.2,0-0.3,0.2-0.5c0.1-0.1,0.3-0.2,0.4-0.2c0.5,0,0.8,0.4,0.9,0.8l0.5,3.1
						c0,0.1,0,0.2-0.1,0.3C27.4,15.9,27.3,16,27.1,16C27.2,16,27.1,16,27.1,16z"/>
				</g>
			</g>
		</g>
		<g>
			<g>
				<g>
					<g>
						<path fill="#425A6B" d="M27.6,15.9"/>
					</g>
				</g>
			</g>
		</g>
	</g>
	<g>
		<g>
			<g>
				<g>
					<g>
						<path fill="#425A6B" d="M26.4,11.6l-0.2,0c-0.1-1.9-0.7-2.8-1.1-3.2c0-0.1-0.1-0.2-0.2-0.3c0,0,0-0.1-0.1-0.1
							C25.4,8.3,26.3,9.2,26.4,11.6z"/>
					</g>
				</g>
			</g>
		</g>
	</g>
	<g>
		<g>
			<g>
				<g>
					<g>
						<path fill="#425A6B" d="M25.6,13.3h0.3l-0.1-1.1c0-0.1,0-0.2,0.1-0.3c0.1-0.1,0.2-0.1,0.3-0.1c0.4,0,0.7,0.3,0.7,0.6l0.1,0.9
							h0.3l-0.1-0.9c-0.1-0.5-0.5-0.9-1-0.9c-0.2,0-0.4,0.1-0.5,0.2c-0.1,0.1-0.2,0.3-0.2,0.5L25.6,13.3z"/>
					</g>
				</g>
			</g>
		</g>
	</g>
	<g>
		<g>
			<g>
				<g>
					<path fill="#425A6B" d="M27.8,16c-0.1,0-0.1,0-0.2-0.1l-0.1,0l0-0.1l0.1,0c0-0.1,0.1-0.1,0.1-0.1c0.1,0,0.1,0.2,0.1,0.2
						S27.9,15.9,27.8,16z"/>
				</g>
			</g>
		</g>
	</g>
	<g>
		<g>
			<g>
				<g>
					<path fill="#425A6B" d="M26.4,15.2c0,0.1,0.1,0.1,0,0.2l0.1,0.1l-0.1,0.1l-0.1-0.1c-0.1,0-0.1,0-0.2-0.1
						c-0.1-0.1,0.1-0.2,0.1-0.2S26.4,15.1,26.4,15.2z"/>
				</g>
			</g>
		</g>
	</g>
	<g>
		<g>
			<g>
				<g>
					<circle fill="#FFFFFF" cx="21" cy="14.3" r="0.9"/>
				</g>
			</g>
		</g>
	</g>
	<g>
		<g>
			<g>
				<g>
					<circle fill="#E8EAE8" cx="21" cy="14.3" r="0.6"/>
				</g>
			</g>
		</g>
	</g>
	<g>
		<g>
			<g>
				<g>
					<path fill="#425A6B" d="M21,10c-0.1,0.6-0.1,2.2,0,3.2c0,0.4,0.1,0.7,0.3,1c0,0.1,0,0.1,0,0.2c0,0.1-0.1,0.3-0.3,0.3
						c-0.2,0.1-0.4-0.1-0.4-0.4c0-0.1,0-0.1,0-0.1c0.1-0.3,0.2-0.7,0.2-1c0-1.1-0.1-2.6,0-3.2c0.2-1.1,0.3-1.8,1.1-2.4l0.1,0.1
						c-0.1,0.1-0.1,0.2-0.2,0.3C21.2,8.4,21.2,9,21,10z"/>
				</g>
			</g>
		</g>
	</g>
</g>
</svg>
