<?xml version="1.0" encoding="utf-8"?>
<!-- Generator: Adobe Illustrator 18.0.0, SVG Export Plug-In . SVG Version: 6.00 Build 0)  -->
<!DOCTYPE svg PUBLIC "-//W3C//DTD SVG 1.1//EN" "http://www.w3.org/Graphics/SVG/1.1/DTD/svg11.dtd">
<svg version="1.1" id="Layer_1" xmlns="http://www.w3.org/2000/svg" xmlns:xlink="http://www.w3.org/1999/xlink" x="0px" y="0px"
	 viewBox="0 0 48 48" enable-background="new 0 0 48 48" xml:space="preserve">
<g>
	<g>
		<g>
			<path fill="#F3F3F3" d="M14.6,1c14.6-4.5,28,6.3,28,20.3l5.3,11.1c0.4,0.8-0.2,1.7-1.1,1.7h-4.3v7c0,1.7-1.4,3.1-3.1,3.1h-4.5V48
				H9.1c-0.7-5.3-2.6-10.5-5.5-15C1.3,29.6,0,25.6,0,21.3v0C0,12.1,5.8,3.7,14.6,1z"/>
		</g>
		<g>
			<g>
				<g>
					<polygon fill="#F05540" points="20.9,33.7 35,18.8 6.8,18.8 					"/>
					<polygon fill="#F05540" points="11.3,12.4 6.8,18.8 35,18.8 30.6,12.4 					"/>
				</g>
				<polygon fill="#F45C4D" points="20.9,33.7 25.9,18.8 16,18.8 				"/>
				<g>
					<polygon fill="#F3705A" points="20.9,12.4 16,18.8 25.9,18.8 20.9,12.4 					"/>
				</g>
				<g>
					<polygon fill="#F3705A" points="25.9,18.8 30.6,12.4 35,18.8 					"/>
				</g>
				<g>
					<polygon fill="#F3705A" points="16,18.8 11.3,12.4 6.8,18.8 					"/>
				</g>
			</g>
		</g>
	</g>
</g>
</svg>
