<?xml version="1.0" encoding="utf-8"?>
<!-- Generator: Adobe Illustrator 19.0.1, SVG Export Plug-In . SVG Version: 6.00 Build 0)  -->
<svg version="1.1" id="Layer_1" xmlns="http://www.w3.org/2000/svg" xmlns:xlink="http://www.w3.org/1999/xlink" x="0px" y="0px"
	 viewBox="0 0 48 48" style="enable-background:new 0 0 48 48;" xml:space="preserve">
<style type="text/css">
	.st0{fill:#66C6B9;}
	.st1{fill:#F3F3F3;}
	.st2{fill:#415A6B;}
	.st3{fill:#CED6E0;}
	.st4{fill:#F3705A;}
	.st5{fill:#E8EAE9;}
	.st6{fill:#4ABAA5;}
	.st7{fill:#F05540;}
	.st8{fill:#FFD15C;}
	.st9{fill:#55C0EB;}
	.st10{fill:#8AD7F8;}
	.st11{fill:#344A5E;}
	.st12{fill:#FFFFFF;}
	.st13{fill:#F7B64C;}
	.st14{fill:#ADB3BA;}
	.st15{fill:#38A892;}
	.st16{fill:#ED9845;}
	.st17{fill:#2D4251;}
	.st18{fill:#304556;}
	.st19{fill:#A5AAAD;}
	.st20{fill:#2D4456;}
	.st21{fill:#4FB0E0;}
	.st22{fill:#2D4354;}
	.st23{fill:#E54C38;}
	.st24{fill:#2B4456;}
	.st25{fill:#2B404F;}
</style>
<g>
	<g>
		<g>
			<path class="st2" d="M22.6,47.2c0,0-0.1-0.3-0.1-0.6s0-0.5,0-0.9c0-0.4,0.1-0.8,0.3-1c0.2-0.2,1.4-0.3,1.8,0.2
				c0.3,0.5,0.4,1.1,0.6,1.4c0.2,0.3,0.2,0.7,0.2,0.7s0.2,0.4-0.1,0.6s-1.4,0.3-1.8,0.2C23.2,47.6,22.6,47.2,22.6,47.2z"/>
		</g>
		<g>
			<path class="st11" d="M29,46.6l1.3,0.4c0,0,0.2,0.2,0,0.5c-0.2,0.3-1.5,0.1-2.1-0.1c-0.6-0.3-0.9-0.4-1.1-0.8
				c-0.1-0.4-0.5-0.9-0.6-1l-0.1,0.3c0,0-0.8-0.4-0.9-0.8c-0.1-0.4-0.1-0.7,0.2-0.8c0.2-0.1,0.3-0.1,0.3-0.1L29,46.6z"/>
		</g>
		<g>
			<path class="st2" d="M26.5,42.9l-0.4,0.2c0,0-0.4,0.5-0.4,1.1c0,0,0.2,0.2,0.7,0.7c0.6,0.4,0.8,1,0.9,1.3c0.1,0.3,1,0.8,1.7,0.9
				c0.7,0.1,1.1,0.1,1.3-0.1c0,0,0.2-0.2-0.6-1.1c-0.8-0.9-1.1-1.7-1.2-2.3C28.4,43,28.4,43,28.4,43L26.5,42.9z"/>
		</g>
		<g>
			<path class="st11" d="M30.3,20.6c0,0,0.6,1.8,0.4,2.4c-0.2,0.6-0.3,1.2-0.3,1.5s0,1.6,0.2,2.2s0.3,3.7,0.4,4.7
				c0.1,1-0.6,3.7-0.8,4.4c-0.2,0.7-0.9,5-1,5.6c-0.1,0.5-0.7,2.8-0.7,2.8s-1,0.4-1.5,0.2c-0.6-0.3-0.8-1-1-1.1c0,0,0.3-0.6,0.4-1.1
				c0.1-0.5,0-0.9,0.2-1.2c0.1-0.4,0.2-1.3,0.2-2.2s0.2-3.4,0.4-4.3c0.2-0.9,0.2-0.8,0.1-1.6c-0.1-0.8-0.5-3.3-0.9-4.4
				c-0.4-1.1-0.8-2-0.8-2s-0.8,4.8-1,5.4c-0.2,0.6-0.2,0.8-0.2,1.4c0,0.6,0,1,0,1.4s-0.1,3.7-0.1,4.7c0,1-0.1,1.9,0,2.3
				c0.1,0.4,0.3,2.9,0.3,3.3c0,0-0.2-0.2-0.8-0.2s-0.8,0.2-1.1,0.2c0,0-0.8-1-1-2.4c-0.1-1.5-0.4-4-0.4-4.9s-0.2-4.2-0.2-5
				c0-0.8-0.3-2.5-0.4-3.4s-0.4-3.4-0.2-4.1c0.2-0.7,1-5.5,1-5.5s3.7,1.6,7.7-0.7L30.3,20.6z"/>
		</g>
		<g>
			<path class="st8" d="M30,20.9l-0.3,0.5c0,0,0.9,0.6,1,1.6c0,0,0.2-0.3,0.3-0.6c0.1-0.3,0.5-1,0.5-1L30,20.9z"/>
		</g>
		<g>
			<path class="st2" d="M19.7,14.7c0,0-0.3,0.8-0.5,1.3c-0.2,0.4-0.8,2.3-0.9,2.5s0.5,2.4,0.5,2.7s0.8,1.6,0.8,1.6s-1.3,0.1-1.7,0.7
				c-0.4,0.6-0.4,0.9-0.4,0.9s-0.4-1.1-0.5-1.8s-0.1-1-0.3-1.4c-0.2-0.3-0.3-0.4-0.3-0.7c-0.1-0.3-0.1-0.5-0.2-0.8
				c-0.1-0.2-0.3-0.5-0.3-0.9c0-0.4,0-0.7-0.1-0.8c0-0.1-0.1-0.4,0-0.8c0.1-0.3,0.3-0.6,0.4-1.1c0.1-0.5,0.2-1.2,0.4-1.5
				c0.2-0.3,0.4-0.8,0.6-1.3c0.2-0.5,0-0.9,0.1-1.3c0.1-0.5,0-1.7,0.6-2c0.6-0.3,1.5,0.3,1.5,0.3S19.9,14,19.7,14.7z"/>
		</g>
		<g>
			<ellipse class="st11" cx="30.1" cy="16" rx="0.8" ry="2.7"/>
		</g>
		<g>
			<g>
				<path class="st8" d="M24.7,4.1c0,0,0.3,0.6,0.3,1.2l0.5,1.3L24.4,9c0,0-1-0.3-1-0.3c0,0-1.3-1.2-1.3-1.2L22,6.7
					c0,0-0.7-0.9-0.7-1.4c-0.1-0.5-0.1-0.5-0.1-0.5s-0.9-1.1-0.9-2c0-0.9,2.4-2.1,3.2-2c0.8,0.2,1.1,2.3,1.1,2.7
					C24.7,4.1,24.7,4.1,24.7,4.1z"/>
			</g>
			<g>
				<path class="st0" d="M23.7,8.2l0.4,0l0.3-0.1l2-1.4l3.1,12.5c0,0-2.4,1.8-6.1,1.1L21.7,7.8L23.7,8.2z"/>
			</g>
			<g>
				<path class="st11" d="M21.1,8.1c0,0-0.2,0.3-0.8,0.6c-0.5,0.2-2.5,1.3-2.7,1.4c0,0,0.5,0.5,1,1.9s1.1,3,1.1,3s0.8,3,0.8,4
					s-0.2,1.8-0.2,1.8s4.2,1.8,4-2.2c0,0-0.9-4-1.2-4.8c-0.3-0.8-1.7-5.4-1.7-5.4L21.1,8.1z"/>
			</g>
			<g>
				<path class="st5" d="M19,18.5l5.7,1.5c0.2,0.1,0.3,0.3,0.2,0.5l-2.3,5.4c-0.1,0.2-0.3,0.3-0.4,0.2l-5.6-1.9
					c-0.2-0.1-0.3-0.3-0.2-0.5l2.2-5C18.6,18.6,18.8,18.5,19,18.5z"/>
			</g>
			<g>
				<path class="st8" d="M19.3,22.7c0,0,0.2,0.2,0.4,0.3c0.2,0.1,0.4,0.4,0.6,0.6s0.5,0.8,0.6,1c0.1,0.2,0,0.5-0.2,0.4
					c-0.2,0-0.4-0.2-0.5-0.4c-0.1-0.2-0.2-0.3-0.3-0.5c0,0,0.1,0.2,0,0.3c0,0,0.1,0.7,0.1,0.8l0.3,0.1c0,0,0,0.2-0.1,0.3
					c-0.1,0.2-0.2,0.2-0.4,0c0,0-0.2,0.1-0.4-0.1c0,0-0.1,0.1-0.2,0s-0.5-0.4-0.5-0.4s-0.2,0-0.4-0.1c-0.2-0.1-0.3-0.4-0.3-0.6
					c0-0.3,0-1-0.1-1.4s-0.1-0.5-0.1-0.5S19,22.3,19.3,22.7z"/>
			</g>
			<g>
				<path class="st11" d="M26.3,6.9c0,0,1.1,0.3,1.9,0.4c0.7,0.2,2.2,0.5,2.2,0.5s0,1.7-0.2,2.5c0,0,0,6,0.1,6.9s0.1,2.7,0.1,2.7
					L29,18c0,0-1.5-2.8-1.6-4.4S26.8,8,26.8,8"/>
			</g>
			<g>
				<path class="st2" d="M32.2,19.5c-0.2,0.9-0.6,2.5-0.7,2.7c0,0-0.2-0.5-0.5-0.8c-0.3-0.3-1.5-0.2-1.5-0.2s0.2-0.9,0.4-1.9
					c0.1-0.5,0.2-1.1,0.3-1.5c0-0.2,0.1-0.4,0.1-0.5c0.1-0.8,0-1.2,0-1.6c0-0.2-0.1-0.9-0.2-1.5c0,0,0,0,0,0
					c-0.1-0.4-0.1-0.8-0.2-1.1c-0.1-0.8,0.2-2.9,0.2-2.9c0.2-0.8,0.2-2.5,0.2-2.5s0.5,0.2,0.5,1.1c0.1,0.9,0.1,2.5,0.5,3.2
					c0.4,0.7,0.9,2.8,1,3.4C32.6,16,32.4,18.6,32.2,19.5z"/>
			</g>
			<g>
				<g>
					<ellipse class="st8" cx="24.8" cy="3.4" rx="0.4" ry="0.9"/>
				</g>
				<g>
					<ellipse transform="matrix(0.8615 -0.5077 0.5077 0.8615 0.5417 11.3136)" class="st8" cx="21" cy="4.7" rx="0.4" ry="0.9"/>
				</g>
			</g>
			<g>
				<path class="st2" d="M21.1,5L21.1,5c0.1-0.1-0.1-0.4-0.2-0.6c0-0.2-0.1-0.4-0.2-0.6c-0.1-0.2,0.1-0.4,0-0.6S20.6,2.5,21,2.2
					s1.2-0.5,1.7-0.7C23.2,1.2,24,1.6,24,2s0.3,0.4,0.4,0.6c0.1,0.2,0.2,0.7,0.2,0.9s0,0.6,0,0.6l0,0c0,0,0.2-1.8,0.1-2.4
					c-0.1-0.6-0.3-1.4-1.6-1.6C22-0.1,21.4,0,21.1,0.3c-0.4,0.3-1.2,1.3-1,2.5s0.6,1.6,0.7,1.7S21.1,5,21.1,5z"/>
			</g>
			<path class="st13" d="M23.2,7.2c-0.6,0-1.2-0.5-1.2-0.5l0.1,0.8c0,0,0.6,0.6,1,0.9c0.5-0.2,1.2-0.6,1.4-1.2C25,6.3,25,5.4,25,5.4
				s-0.2,0.5-0.5,0.9C24.3,6.6,23.8,7.2,23.2,7.2z"/>
		</g>
		<g>
			<path class="st5" d="M25.3,6.1c0,0,0.1,0.3,0,0.7c-0.2,0.4-0.9,1.4-0.9,1.4s0.9,0.5,1,0.7c0,0,0.6-1.6,0.7-1.9c0-0.3,0-0.3,0-0.3
				S25.4,6,25.3,6.1z"/>
		</g>
		<g>
			<path class="st5" d="M22,6.9c0,0,0.2,0.2,0.7,0.5c0.5,0.3,1.4,0.8,1.4,0.8s-0.4,0.7-0.5,1c0,0-1.2-0.7-1.5-1.1
				c-0.4-0.5-0.4-0.5-0.4-0.5L22,6.9z"/>
		</g>
		<g>
			<path class="st2" d="M25.6,6.3c0,0,0.3,0.7,0.4,1.5c0.1,0.8,0.7,4.3,0.9,5.6s1.6,4.8,1.8,5.3c0.2,0.6,0.9,2,0.9,2.5
				c0,0,0.7-0.8,0.7-1.6s-0.8-1.9-1.2-2.7c-0.4-0.7-1.3-2.3-1.3-4s0-4.3,0-4.3L27,8.4l0.4-0.4c0,0-0.4-0.9-0.9-1.1
				c-0.4-0.2-0.4-0.2-0.6-0.4C25.9,6.5,25.8,6.3,25.6,6.3z"/>
		</g>
		<g>
			<path class="st2" d="M22,6.9c0,0-0.1,1.2,0.3,2.5s1.2,4.1,1.4,4.8c0.2,0.7,0.7,3.9,0.7,4.3c0,0-0.4-1.2-1-2.7
				c-0.6-1.5-2.6-5.9-2.6-5.9l0.6-0.5L21,9.3c0,0-0.1-1.1,0.2-1.4c0.3-0.2,0.4-0.4,0.5-0.6S22,6.9,22,6.9z"/>
		</g>
		<g>
			<path class="st2" d="M18.2,18.5c0.1-0.2,0.6-1.7,0.9-2.3H16c-0.1,0.5-0.2,0.7-0.4,1c-0.1,0.3,0,0.7,0,0.8c0,0.1,0.1,0.4,0.1,0.8
				c0,0.4,0.2,0.6,0.3,0.9c0.1,0.2,0.1,0.4,0.2,0.8c0.1,0.3,0.1,0.4,0.3,0.7c0.2,0.3,0.2,0.7,0.3,1.4c0.1,0.7,0.5,1.8,0.5,1.8
				s0-0.3,0.4-0.9c0.4-0.6,1.7-0.7,1.7-0.7s-0.8-1.3-0.8-1.6C18.7,20.9,18,18.8,18.2,18.5z"/>
		</g>
		<g>
			<path class="st11" d="M22.6,46.6c0,0,0,0.4,0.3,0.6c0.3,0.2,0.7,0.4,1.3,0.4c0.7-0.1,1.2,0,1.2-0.7c0,0,0.4,0.7,0,0.9
				c-0.4,0.3-0.8,0.1-1.3,0.1c-0.5,0-0.9,0.1-1.2-0.2C22.4,47.4,22.4,47.1,22.6,46.6z"/>
		</g>
	</g>
</g>
</svg>
