<?xml version="1.0" encoding="utf-8"?>
<!-- Generator: Adobe Illustrator 19.0.1, SVG Export Plug-In . SVG Version: 6.00 Build 0)  -->
<svg version="1.1" id="Layer_1" xmlns="http://www.w3.org/2000/svg" xmlns:xlink="http://www.w3.org/1999/xlink" x="0px" y="0px"
	 viewBox="0 0 48 48" style="enable-background:new 0 0 48 48;" xml:space="preserve">
<style type="text/css">
	.st0{fill:#415A6B;}
	.st1{fill:#ADB3BA;}
	.st2{fill:#E8EAE9;}
	.st3{fill:#55C0EB;}
	.st4{fill:#F3705A;}
	.st5{fill:#FFFFFF;}
	.st6{fill:#FFD15C;}
	.st7{fill:#344A5E;}
	.st8{fill:#CED6E0;}
	.st9{fill:#F05540;}
	.st10{fill:#F7B64C;}
	.st11{fill:#F3F3F3;}
	.st12{fill:#66C6B9;}
	.st13{fill:#4ABAA5;}
	.st14{fill:#8AD7F8;}
	.st15{fill:none;}
	.st16{fill:#E53D35;}
</style>
<g>
	<g>
		<g>
			<g>
				<path class="st4" d="M48,2.2v12.3c0,1.2-1,2.2-2.2,2.2h-9.1l-8.2,5v-5h-1.5c-1.2,0-2.2-1-2.2-2.2V2.2c0-1.2,1-2.2,2.2-2.2h18.7
					C47,0,48,1,48,2.2z"/>
			</g>
			<g>
				<g>
					<path class="st5" d="M45,8.3c0,1.2-1,2.2-2.2,2.2c-1.2,0-2.2-1-2.2-2.2c0-1.2,1-2.2,2.2-2.2C44,6.2,45,7.1,45,8.3z"/>
				</g>
				<g>
					<path class="st5" d="M38.6,8.3c0,1.2-1,2.2-2.2,2.2c-1.2,0-2.2-1-2.2-2.2c0-1.2,1-2.2,2.2-2.2C37.6,6.2,38.6,7.1,38.6,8.3z"/>
				</g>
				<g>
					<path class="st5" d="M32.3,8.3c0,1.2-1,2.2-2.2,2.2c-1.2,0-2.2-1-2.2-2.2c0-1.2,1-2.2,2.2-2.2C31.3,6.2,32.3,7.1,32.3,8.3z"/>
				</g>
			</g>
		</g>
		<g>
			<g>
				<g>
					<path class="st6" d="M23.8,23.5c-0.3,1.1-0.8,2-1.1,1.9c-0.4-0.1-0.4-1.1-0.1-2.3c0.3-1.1,0.8-2,1.1-1.9
						C24,21.4,24.1,22.4,23.8,23.5z"/>
				</g>
				<g>
					<path class="st6" d="M12.2,24.9C11.8,25,11.3,24.1,11,23c-0.2-1.2-0.1-2.2,0.3-2.2c0.4-0.1,1.1,0.7,1.4,1.8
						C13,23.7,12.6,24.8,12.2,24.9z"/>
				</g>
			</g>
			<g>
				<path class="st6" d="M23.2,22.2c0,0-0.9,5.3-1.8,6.8c0,0-0.5,2.4-0.3,4.3c0.2,1.9,0.2,1.9,0.2,1.9l-5.1,1.3l-3.6-4.7
					c0,0,0.1-3.1,0-3.9c0,0-0.7-2.6-0.6-4.7c0-2.1,1.3-6.4,1.3-6.4s1.5-1.9,1.6-1.9c0.1,0,4.4-0.1,4.4-0.1l3.5,1.2
					C22.8,16,23.3,20,23.2,22.2z"/>
				<path class="st10" d="M21.1,33.3c-0.2-1.7,0.2-3.7,0.3-4.2c-1.1,0.9-2.2,1.6-3.2,1.6c-3.6-0.1-5.5-2.7-5.5-2.7
					c1.4,3.3,5.6,5.1,8.5,6C21.1,33.8,21.1,33.5,21.1,33.3z"/>
				<g>
					<path class="st14" d="M34.7,48H0c0-0.2,0-0.3,0-0.5c0.2-1.4,0.2-4,0.2-5.5s0.6-3.7,0.6-3.7s1.2-2.4,3.5-3.5
						c2.3-1,6.9-2.6,6.9-2.6l2.2,3.2l4.6-0.7l2.2-0.1l1.1-1.8c0,0,3.9,2.1,6.1,3.1c2.2,1,4.4,2.7,4.4,3.6c0,0,1.3,2.4,1.4,3.6
						C33.2,43.8,34,46.2,34.7,48z"/>
				</g>
			</g>
			<g>
				<path class="st0" d="M12.3,22.8l0.3,0c0,0,0-2.6,0.6-3.1c0.6-0.4,0.8-1.5,0.8-2.1s0.3-1.2,1.5-1.2c1.2,0,4.9,0.3,5.8,0.2
					c0.9-0.2,1.3,0.5,1.3,1.2c0,0.6-0.1,2,0.2,2.5c0.3,0.5-0.1,3-0.1,3h0.3c0,0,0.2-1.7,0.7-2c0,0,0.3-2.8-0.3-4.5
					c-0.6-1.7-2.4-2.7-3.2-3.2c-0.8-0.5-4.5-0.7-5.9,0.4s-2,2.3-2.2,3s-0.6,3.7-0.6,3.7S12.6,21.2,12.3,22.8z"/>
			</g>
			<g>
				<g>
					<path class="st2" d="M21.1,31.2c0,0-0.2,1.1-0.7,1.7S18,34.6,18,34.6s1.5,0.6,3.3,4.5c0,0,0.4-2.3,0.4-3.2s-0.2-1.8-0.3-2.6
						C21.3,32.5,21.4,31.7,21.1,31.2"/>
				</g>
				<g>
					<path class="st2" d="M12.7,29.8c0,0-0.1,1,1.3,2.1c1.4,1.2,4,2.7,4,2.7L14,38.6c0,0-0.9-1.9-1.3-2.4S11,34,11.1,32.6
						c0,0,0.4-0.9,0.7-1.3S12.3,30.1,12.7,29.8"/>
				</g>
			</g>
		</g>
	</g>
</g>
</svg>
