<?xml version="1.0" encoding="utf-8"?>
<!-- Generator: Adobe Illustrator 18.0.0, SVG Export Plug-In . SVG Version: 6.00 Build 0)  -->
<!DOCTYPE svg PUBLIC "-//W3C//DTD SVG 1.1//EN" "http://www.w3.org/Graphics/SVG/1.1/DTD/svg11.dtd">
<svg version="1.1" id="Layer_1" xmlns="http://www.w3.org/2000/svg" xmlns:xlink="http://www.w3.org/1999/xlink" x="0px" y="0px"
	 viewBox="0 0 48 48" enable-background="new 0 0 48 48" xml:space="preserve">
<g>
	<path fill="#F2F2F2" d="M43.3,8H4.7c-1.2,0-2.1,1-2.1,2.1v27.8c0,1.2,1,2.1,2.1,2.1h38.5c1.2,0,2.1-1,2.1-2.1V10.1
		C45.4,9,44.4,8,43.3,8z"/>
	<g>
		<path fill="#4CDBC4" d="M45.6,6.3H2.4C1.1,6.3,0,7.3,0,8.7s1.1,2.4,2.4,2.4h43.2c1.3,0,2.4-1.1,2.4-2.4S46.9,6.3,45.6,6.3z"/>
		<path fill="#4CDBC4" d="M45.6,36.9H2.4C1.1,36.9,0,38,0,39.3s1.1,2.4,2.4,2.4h43.2c1.3,0,2.4-1.1,2.4-2.4S46.9,36.9,45.6,36.9z"/>
	</g>
	<path fill="#FFFFFF" d="M17.9,15.5H7.6c-0.7,0-1.2,0.6-1.2,1.2v14.5c0,0.7,0.6,1.2,1.2,1.2h10.3c0.7,0,1.2-0.6,1.2-1.2V16.8
		C19.1,16.1,18.6,15.5,17.9,15.5z"/>
	<path fill="#FFFFFF" d="M40.4,15.5H30.1c-0.7,0-1.2,0.6-1.2,1.2v14.5c0,0.7,0.6,1.2,1.2,1.2h10.3c0.7,0,1.2-0.6,1.2-1.2V16.8
		C41.6,16.1,41,15.5,40.4,15.5z"/>
	<circle fill="#FFFFFF" cx="24" cy="19.8" r="1.9"/>
	<circle fill="#FFFFFF" cx="24" cy="28.2" r="1.9"/>
	<path fill="#FF7058" d="M13.4,23.1c0.2-0.3,0.3-0.6,0.3-0.9c0-0.3-0.1-0.5-0.3-0.7c-0.2-0.2-0.4-0.3-0.7-0.3
		c-0.5,0-1.1,0.4-1.5,1.2l-1.5-0.9c0.4-0.6,0.8-1.1,1.3-1.4c0.5-0.3,1.1-0.5,1.8-0.5c0.7,0,1.4,0.2,2,0.7c0.6,0.5,0.8,1.1,0.8,1.9
		c0,0.4-0.1,0.9-0.3,1.3c-0.2,0.4-0.6,0.9-1.3,1.6l-1.6,1.6h3.4v1.7H9.8V27l2.5-2.6C12.8,23.9,13.2,23.5,13.4,23.1z"/>
	<path fill="#FF7058" d="M35.6,24.6v-1.5h1.9v1.5h1v1.7h-1v2.1h-1.9v-2.1h-3.5v-1.5l3.1-5.1h2.1l-2.9,4.9H35.6z"/>
</g>
</svg>
