<?xml version="1.0" encoding="utf-8"?>
<!-- Generator: Adobe Illustrator 18.0.0, SVG Export Plug-In . SVG Version: 6.00 Build 0)  -->
<!DOCTYPE svg PUBLIC "-//W3C//DTD SVG 1.1//EN" "http://www.w3.org/Graphics/SVG/1.1/DTD/svg11.dtd">
<svg version="1.1" id="Layer_1" xmlns="http://www.w3.org/2000/svg" xmlns:xlink="http://www.w3.org/1999/xlink" x="0px" y="0px"
	 viewBox="0 0 48 48" enable-background="new 0 0 48 48" xml:space="preserve">
<g>
	<path fill="#FF7058" d="M33.2,4.7c-3.6,0-6.9,1.6-9.2,4.1c-2.3-2.5-5.5-4.1-9.2-4.1C8,4.7,2.5,10.2,2.5,17
		C2.5,27.6,24,43.3,24,43.3S45.5,27.6,45.5,17C45.5,10.2,40,4.7,33.2,4.7z"/>
	<g>
		<path fill="#40596B" d="M26.1,32.5c-0.1,0-0.1,0-0.2,0c-0.4-0.1-0.8-0.4-0.8-0.9l-1.8-15.9l-4.1,10.5c-0.1,0.4-0.5,0.6-0.9,0.6
			c0,0,0,0,0,0c-0.4,0-0.8-0.3-0.9-0.6l-2.5-6.8l-3.1,3.2c-0.2,0.2-0.4,0.3-0.7,0.3H1c-0.5,0-1-0.4-1-1c0-0.5,0.4-1,1-1h9.6l3.9-4.1
			c0.2-0.2,0.6-0.4,0.9-0.3c0.3,0.1,0.6,0.3,0.7,0.6l2.2,5.8l4.6-11.8c0.2-0.4,0.6-0.7,1.1-0.6c0.5,0.1,0.8,0.4,0.9,0.9l1.9,16.4
			l4.7-10.1c0.2-0.3,0.5-0.6,0.9-0.6c0.4,0,0.7,0.2,0.9,0.5l3.5,6.3l1.3-2.5c0.2-0.3,0.5-0.5,0.9-0.5H47c0.5,0,1,0.4,1,1
			c0,0.5-0.4,1-1,1h-7.6l-1.9,3.6C37.3,26.8,37,27,36.6,27c0,0,0,0,0,0c-0.4,0-0.7-0.2-0.9-0.5l-3.4-6.2L27,31.9
			C26.8,32.3,26.4,32.5,26.1,32.5z"/>
	</g>
</g>
</svg>
