<?xml version="1.0" encoding="utf-8"?>
<!-- Generator: Adobe Illustrator 20.1.0, SVG Export Plug-In . SVG Version: 6.00 Build 0)  -->
<!DOCTYPE svg PUBLIC "-//W3C//DTD SVG 1.1//EN" "http://www.w3.org/Graphics/SVG/1.1/DTD/svg11.dtd">
<svg version="1.1" id="Layer_1" xmlns="http://www.w3.org/2000/svg" xmlns:xlink="http://www.w3.org/1999/xlink" x="0px" y="0px"
	 viewBox="0 0 49 49" enable-background="new 0 0 49 49" xml:space="preserve">
<g>
	<path fill="#E2E2E2" d="M47,30H2c-0.8,0-1.5,0.7-1.5,1.5v0C0.5,32.3,1.2,33,2,33h45c0.8,0,1.5-0.7,1.5-1.5v0
		C48.5,30.6,47.8,30,47,30z"/>
	<path fill="#FFD15C" d="M2.9,37.1v5.4c0,3.3,2.7,6,6,6h31.2c3.3,0,6-2.7,6-6v-5.4H2.9z"/>
	<path fill="#F1543F" d="M43,19H6c-3,0-5.5,2.4-5.5,5.5c0,3,2.4,5.5,5.5,5.5H43c3,0,5.5-2.4,5.5-5.5C48.5,21.5,46.1,19,43,19z"/>
	<path fill="#FFD15C" d="M31.7,0.5H17.3C9.3,0.5,2.9,6.9,2.9,14.9h43.2C46.1,6.9,39.7,0.5,31.7,0.5z"/>
	<path fill="#FF7058" d="M46.4,14.9H2.6c-1.1,0-2.1,0.9-2.1,2.1c0,1.1,0.9,2.1,2.1,2.1h43.9c1.1,0,2.1-0.9,2.1-2.1
		C48.5,15.8,47.6,14.9,46.4,14.9z"/>
	<path fill="#FF7058" d="M46.4,33H2.6c-1.1,0-2.1,0.9-2.1,2.1c0,1.1,0.9,2.1,2.1,2.1h43.9c1.1,0,2.1-0.9,2.1-2.1
		C48.5,33.9,47.6,33,46.4,33z"/>
	<path fill="#4CDBC4" d="M8.2,19l12.4,7.6c2.4,1.5,5.4,1.5,7.7,0L40.8,19H8.2z"/>
	<path fill="#F8B64C" d="M36.9,3.9l-1,0.1c-0.2,0-0.3,0.2-0.3,0.3c0,0.1,0,0.2,0.1,0.2c0.1,0.1,0.1,0.1,0.2,0.1l1-0.1
		c0.2,0,0.3-0.2,0.3-0.3C37.3,4,37.1,3.8,36.9,3.9z"/>
	<path fill="#F8B64C" d="M15.2,1.9c-0.1-0.1-0.3-0.1-0.5,0c-0.1,0.1-0.1,0.3,0,0.5l0.7,0.7c0.1,0.1,0.1,0.1,0.2,0.1
		c0.1,0,0.2,0,0.2-0.1c0.1-0.1,0.1-0.3,0-0.5L15.2,1.9z"/>
	<path fill="#F8B64C" d="M39.6,8.2l-0.7,0.7c-0.1,0.1-0.1,0.3,0,0.5C39,9.5,39,9.5,39.1,9.5c0.1,0,0.2,0,0.2-0.1l0.7-0.7
		c0.1-0.1,0.1-0.3,0-0.5C40,8.1,39.8,8.1,39.6,8.2z"/>
	<path fill="#F8B64C" d="M9.2,8.2L8.5,8.9c-0.1,0.1-0.1,0.3,0,0.5c0.1,0.1,0.1,0.1,0.2,0.1c0.1,0,0.2,0,0.2-0.1l0.7-0.7
		c0.1-0.1,0.1-0.3,0-0.5C9.5,8.1,9.3,8.1,9.2,8.2z"/>
	<path fill="#F8B64C" d="M31,9.6l-0.8-0.7c-0.1-0.1-0.3-0.1-0.5,0c-0.1,0.1-0.1,0.3,0,0.4c0,0,0,0,0,0l0.8,0.7
		c0.1,0.1,0.3,0.1,0.5,0C31.2,9.9,31.2,9.7,31,9.6z"/>
	<path fill="#F8B64C" d="M34.7,12.5l-1,0.1c-0.2,0-0.3,0.2-0.3,0.3c0,0.2,0.2,0.3,0.3,0.3c0,0,0,0,0,0l1-0.1c0.2,0,0.3-0.2,0.3-0.3
		C35,12.7,34.9,12.5,34.7,12.5z"/>
	<path fill="#F8B64C" d="M15.9,6.3l-1,0.1c-0.2,0-0.3,0.2-0.3,0.3c0,0.2,0.2,0.3,0.3,0.3c0,0,0,0,0,0l1-0.1c0.2,0,0.3-0.2,0.3-0.3
		C16.2,6.4,16.1,6.3,15.9,6.3z"/>
	<path fill="#F8B64C" d="M25.1,5.5c0.1-0.1,0.1-0.3,0-0.5c-0.1-0.1-0.3-0.1-0.5,0l-0.7,0.7c-0.1,0.1-0.1,0.3,0,0.5
		C24,6.3,24,6.3,24.1,6.3s0.2,0,0.2-0.1L25.1,5.5z"/>
	<path fill="#F8B64C" d="M22.2,13.6c0.1,0,0.2,0,0.2-0.1c0.1-0.1,0.1-0.3,0-0.5l-0.7-0.7c-0.1-0.1-0.3-0.1-0.5,0
		c-0.1,0.1-0.1,0.3,0,0.5l0.7,0.7C22.1,13.6,22.1,13.6,22.2,13.6z"/>
	<path fill="#F8B64C" d="M9.4,13.9c0.1,0,0.2,0,0.2-0.1c0.1-0.1,0.1-0.3,0-0.5l-0.7-0.7c-0.1-0.1-0.3-0.1-0.5,0
		c-0.1,0.1-0.1,0.3,0,0.5l0.7,0.7C9.3,13.9,9.4,13.9,9.4,13.9z"/>
	<path fill="#F8B64C" d="M30.3,1.9c-0.1-0.1-0.3-0.1-0.5,0l-0.7,0.7C29,2.8,29,3,29.1,3.1c0.1,0.1,0.1,0.1,0.2,0.1s0.2,0,0.2-0.1
		l0.7-0.7C30.5,2.2,30.5,2,30.3,1.9z"/>
	<path fill="#F8B64C" d="M44.1,11.6c-0.1-0.1-0.3-0.1-0.5,0l-0.7,0.7c-0.1,0.1-0.1,0.3,0,0.5c0.1,0.1,0.1,0.1,0.2,0.1
		c0.1,0,0.2,0,0.2-0.1l0.7-0.7C44.3,11.9,44.3,11.7,44.1,11.6z"/>
</g>
</svg>
