<?xml version="1.0" encoding="utf-8"?>
<!-- Generator: Adobe Illustrator 16.0.0, SVG Export Plug-In . SVG Version: 6.00 Build 0)  -->
<!DOCTYPE svg PUBLIC "-//W3C//DTD SVG 1.1//EN" "http://www.w3.org/Graphics/SVG/1.1/DTD/svg11.dtd">
<svg version="1.1" id="Layer_1" xmlns="http://www.w3.org/2000/svg" xmlns:xlink="http://www.w3.org/1999/xlink" x="0px" y="0px"
	 width="48px" height="48px" viewBox="0 0 48 48" enable-background="new 0 0 48 48" xml:space="preserve">
<g>
	<path fill="#F2F2F2" d="M26.728,34.767c-7.815-20.862-0.011-33.538-0.011-33.538C9.32,10.419,5.013,34.251,5.013,34.251
		S14.596,29.402,26.728,34.767"/>
	<path fill="#CDD6E0" d="M26.505,34.333c6.459-3.567,13.492-1.69,13.492-1.69C41.893,10.577,26.505,1.229,26.505,1.229
		S34.078,18.763,26.505,34.333"/>
	<path fill="#ACB3BA" d="M26.505,38.672L26.505,38.672c-0.455,0-0.823-0.369-0.823-0.823V0.886c0-0.455,0.368-0.824,0.823-0.824
		c0.454,0,0.822,0.369,0.822,0.824v36.963C27.327,38.303,26.959,38.672,26.505,38.672"/>
	<polygon fill="#FFD15C" points="36.749,47.938 11.252,47.938 0,36.687 48,36.687 	"/>
	<path fill="#F8B64C" d="M7.842,44.528c1.906,1.905,3.41,3.41,3.41,3.41h25.497c0,0,1.504-1.505,3.41-3.41H7.842z"/>
</g>
</svg>
