<?xml version="1.0" encoding="utf-8"?>
<!-- Generator: Adobe Illustrator 18.0.0, SVG Export Plug-In . SVG Version: 6.00 Build 0)  -->
<!DOCTYPE svg PUBLIC "-//W3C//DTD SVG 1.1//EN" "http://www.w3.org/Graphics/SVG/1.1/DTD/svg11.dtd">
<svg version="1.1" id="Layer_1" xmlns="http://www.w3.org/2000/svg" xmlns:xlink="http://www.w3.org/1999/xlink" x="0px" y="0px"
	 viewBox="0 0 48 48" enable-background="new 0 0 48 48" xml:space="preserve">
<g>
	<g>
		<g>
			<g>
				<circle fill="#FFFFFF" cx="24" cy="24" r="22"/>
				<path fill="#415A6B" d="M24,48C10.8,48,0,37.2,0,24S10.8,0,24,0s24,10.8,24,24S37.2,48,24,48z M24,4.1C13,4.1,4.1,13,4.1,24
					S13,43.9,24,43.9c11,0,19.9-8.9,19.9-19.9S35,4.1,24,4.1z"/>
			</g>
		</g>
		<g>
			<path fill="#F3705A" d="M34.1,12.4c-2.1-1.5-5.5-0.4-7.6,2.5c-1.7,2.3-2.1,5-1.1,6.8c-2.3,3.9-5.3,4.4-5.3,4.4
				c-3.3,0.8-4.7,6.8-4.8,7.4c2.1-5,5-6,5-6c3.4,0.1,6.3-2.6,7.6-4.1c2,0.3,4.4-0.8,6.1-3.1C36.1,17.5,36.2,13.9,34.1,12.4z"/>
			<g>
				<path fill="#8AD7F8" d="M35.5,24.4c-1.5-1.1-4-0.3-5.6,1.8c-1.2,1.7-1.5,3.7-0.8,5c-1.7,2.8-3.9,3.3-3.9,3.3
					c-2.4,0.6-3.4,5-3.5,5.4c1.6-3.7,3.7-4.4,3.7-4.4c2.5,0.1,4.6-1.9,5.6-3c1.4,0.2,3.2-0.6,4.5-2.3C36.9,28.2,37,25.5,35.5,24.4z"
					/>
				<path fill="#8AD7F8" d="M22.3,17.2c1.6-2.1,1.6-4.7,0.1-5.9s-4-0.3-5.6,1.8c-1.2,1.7-1.5,3.7-0.8,5c-1.7,2.8-3.9,3.3-3.9,3.3
					c-2.4,0.6-3.4,5-3.5,5.4c1.6-3.7,3.7-4.4,3.7-4.4c2.5,0.1,4.6-1.9,5.6-3C19.3,19.7,21.1,18.9,22.3,17.2z"/>
			</g>
		</g>
	</g>
</g>
</svg>
