<?xml version="1.0" encoding="utf-8"?>
<!-- Generator: Adobe Illustrator 18.0.0, SVG Export Plug-In . SVG Version: 6.00 Build 0)  -->
<!DOCTYPE svg PUBLIC "-//W3C//DTD SVG 1.1//EN" "http://www.w3.org/Graphics/SVG/1.1/DTD/svg11.dtd">
<svg version="1.1" id="Layer_1" xmlns="http://www.w3.org/2000/svg" xmlns:xlink="http://www.w3.org/1999/xlink" x="0px" y="0px"
	 viewBox="0 0 48 48" enable-background="new 0 0 48 48" xml:space="preserve">
<g>
	<g>
		<path fill="#415A6B" d="M44.4,21.5L22.4,40.9L0.3,21.5C0.6,21,0.9,20.4,1.4,20L19.7,4c1.5-1.4,3.9-1.4,5.4,0l18.3,16
			C43.9,20.4,44.2,21,44.4,21.5z"/>
		<path fill="#E8EAE9" d="M39.9,38H4.8v-34c0-2.2,1.8-4,4-4h31.1V38z"/>
		<path fill="#8AD7F8" d="M44.8,23.1v20.8c0,2.3-1.8,4.1-4.1,4.1H4.1C1.8,48,0,46.2,0,43.9V23.1c0-0.5,0.1-1.1,0.3-1.6l22.1,19.4
			l22.1-19.4C44.7,22,44.8,22.6,44.8,23.1z"/>
		<path fill="#55C0EB" d="M43.8,46.5c-0.8,0.9-1.9,1.5-3.1,1.5H4.1c-1.3,0-2.4-0.6-3.1-1.5c0.1-0.2,0.3-0.3,0.4-0.4l18.3-16
			c1.5-1.4,3.9-1.4,5.4,0l18.3,16C43.5,46.2,43.7,46.4,43.8,46.5z"/>
		<g>
			<path fill="#F3F3F3" d="M8.8,0H44c2.2,0,4,1.8,4,4V24c0,2.2-1.8,4-4,4H16.9c-2.2,0-4-1.8-4-4V4v0C12.9,1.8,11.1,0,8.8,0L8.8,0z"
				/>
		</g>
		<g>
			<path fill="#F3705A" d="M21.2,11.2c0,5.7,9.3,11.4,9.3,11.4s9.3-5.7,9.3-11.4c0-2.7-2.2-5-5-5c-1.8,0-3.5,1-4.3,2.5
				c-0.8-1.5-2.5-2.5-4.3-2.5C23.4,6.2,21.2,8.5,21.2,11.2z"/>
		</g>
	</g>
</g>
</svg>
