<?xml version="1.0" encoding="utf-8"?>
<!-- Generator: Adobe Illustrator 18.0.0, SVG Export Plug-In . SVG Version: 6.00 Build 0)  -->
<!DOCTYPE svg PUBLIC "-//W3C//DTD SVG 1.1//EN" "http://www.w3.org/Graphics/SVG/1.1/DTD/svg11.dtd">
<svg version="1.1" id="Layer_1" xmlns="http://www.w3.org/2000/svg" xmlns:xlink="http://www.w3.org/1999/xlink" x="0px" y="0px"
	 viewBox="0 0 48 48" enable-background="new 0 0 48 48" xml:space="preserve">
<g>
	<path fill="#E8EAE9" d="M20.7,5.2c-6.3,6.3-9.9,9.9-16.2,16.2v20h32.4v-20C30.6,15.1,27.1,11.6,20.7,5.2z"/>
	<g>
		<path fill="#CED6E0" d="M20.7,5.8c-6.3,6.3-9.9,9.9-16.2,16.2v4.4l16.2-16.2l16.2,16.2V22C30.6,15.6,27.1,12.1,20.7,5.8z"/>
	</g>
	<g>
		<path fill="#55C0EB" d="M40.7,18.8l-18-18c-1.1-1.1-2.8-1.1-3.9,0l-18,18c-1.1,1.1-1.1,2.8,0,3.9l0,0c1.1,1.1,2.8,1.1,3.9,0l16-16
			l16,16c1.1,1.1,2.8,1.1,3.9,0C41.8,21.6,41.8,19.9,40.7,18.8z"/>
	</g>
	<g>
		<path fill="#415A6B" d="M26.3,41.5h-11v-9.2c0-3,2.5-5.5,5.5-5.5h0c3,0,5.5,2.5,5.5,5.5V41.5z"/>
	</g>
	<circle fill="#F3705A" cx="36.3" cy="36.3" r="11.7"/>
	<circle fill="#FFFFFF" cx="36.3" cy="36.3" r="8.5"/>
	<circle fill="#FFFFFF" cx="36.3" cy="36.3" r="8.5"/>
	<path fill="#F3F3F3" d="M44.8,36.3c0,0.3,0,0.6,0,0.9c-0.4-4.3-4-7.6-8.4-7.6s-8,3.3-8.4,7.6c0-0.3,0-0.6,0-0.9
		c0-4.7,3.8-8.5,8.5-8.5S44.8,31.7,44.8,36.3z"/>
	<g>
		<path fill="#66C6B9" d="M35.2,32.2c0.4,0.4,0.6,0.9,0.6,1.5c0,0.6-0.2,1.1-0.6,1.5c-0.4,0.4-0.8,0.6-1.4,0.6c-0.6,0-1-0.2-1.4-0.6
			c-0.4-0.4-0.6-0.9-0.6-1.5c0-0.6,0.2-1.1,0.6-1.5c0.4-0.4,0.9-0.6,1.4-0.6C34.3,31.6,34.8,31.8,35.2,32.2z M40.5,31.8L33.8,41
			h-1.7l6.7-9.1H40.5z M34.3,34.4c0.1-0.2,0.2-0.4,0.2-0.7c0-0.3-0.1-0.5-0.2-0.7c-0.1-0.2-0.3-0.3-0.5-0.3c-0.2,0-0.4,0.1-0.5,0.3
			c-0.1,0.2-0.2,0.4-0.2,0.7c0,0.3,0.1,0.5,0.2,0.7c0.1,0.2,0.3,0.3,0.5,0.3S34.1,34.5,34.3,34.4z M40.3,37.5
			c0.4,0.4,0.6,0.9,0.6,1.5c0,0.6-0.2,1.1-0.6,1.5c-0.4,0.4-0.8,0.6-1.4,0.6c-0.6,0-1-0.2-1.4-0.6C37.1,40.1,37,39.6,37,39
			s0.2-1.1,0.6-1.5c0.4-0.4,0.8-0.6,1.4-0.6C39.5,36.9,40,37.1,40.3,37.5z M39.5,39.7c0.1-0.2,0.2-0.4,0.2-0.7
			c0-0.3-0.1-0.5-0.2-0.7c-0.1-0.2-0.3-0.3-0.5-0.3c-0.2,0-0.4,0.1-0.5,0.3c-0.1,0.2-0.2,0.4-0.2,0.7c0,0.3,0.1,0.5,0.2,0.7
			c0.1,0.2,0.3,0.3,0.5,0.3S39.4,39.9,39.5,39.7z"/>
	</g>
</g>
</svg>
