<?xml version="1.0" encoding="utf-8"?>
<!-- Generator: Adobe Illustrator 18.0.0, SVG Export Plug-In . SVG Version: 6.00 Build 0)  -->
<!DOCTYPE svg PUBLIC "-//W3C//DTD SVG 1.1//EN" "http://www.w3.org/Graphics/SVG/1.1/DTD/svg11.dtd">
<svg version="1.1" id="Layer_1" xmlns="http://www.w3.org/2000/svg" xmlns:xlink="http://www.w3.org/1999/xlink" x="0px" y="0px"
	 viewBox="0 0 48 48" enable-background="new 0 0 48 48" xml:space="preserve">
<g>
	<g>
		<path fill="#E8EAE9" d="M45.6,35.8L45.6,35.8c3.2-3.2,3.2-8.4,0-11.6c-1.2-1.2-2.7-1.9-4.2-2.3c-1.6-2.9-3.7-5.9-6.7-8.6
			C32,10.3,29,8.2,26.1,6.6c-0.3-1.5-1.1-3-2.3-4.2c-3.2-3.2-8.4-3.2-11.6,0l0,0l-10.3,8c-3.2,3.7-1.5,6.6-1.5,6.6
			c2.3,4,6.2,2.9,6.2,2.9l5-1.2c-0.6,1.8-0.2,3.9,1.2,5.3c2,2,5.3,2,7.3,0l3.6,3.6c-2,2-2,5.3,0,7.3c1.4,1.4,3.5,1.8,5.3,1.2l-1.2,5
			c0,0-1.1,3.9,2.9,6.2c0,0,3,1.7,6.6-1.5L45.6,35.8z"/>
		<g>
			<path fill="#F3705A" d="M19.6,7.5h2.5c0.6,0,1.1-0.7,0.8-1.3c-0.5-1.4-1.6-2.4-3-3c-0.6-0.2-1.3,0.2-1.3,0.8v2.5
				C18.7,7.1,19.1,7.5,19.6,7.5z"/>
			<path fill="#FFD15C" d="M22.1,8.9h-2.5c-0.5,0-0.9,0.4-0.9,0.9v2.5c0,0.6,0.7,1.1,1.3,0.8c1.4-0.5,2.4-1.6,3-3
				C23.2,9.6,22.8,8.9,22.1,8.9z"/>
			<path fill="#415A6B" d="M16,3.3c-1.4,0.5-2.4,1.6-3,3c-0.2,0.6,0.2,1.3,0.8,1.3l2.5,0c0.5,0,0.9-0.4,0.9-0.9V4.1
				C17.3,3.5,16.6,3,16,3.3z"/>
			<path fill="#8AD7F8" d="M16.4,8.9h-2.5c-0.6,0-1.1,0.7-0.8,1.3c0.5,1.4,1.6,2.4,3,3c0.6,0.2,1.3-0.2,1.3-0.8V9.8
				C17.3,9.3,16.9,8.9,16.4,8.9z"/>
		</g>
		<circle fill="#415A6B" cx="16.6" cy="20.5" r="3.2"/>
		<circle fill="#415A6B" cx="27.5" cy="31.4" r="3.2"/>
		<g>
			<path fill="#415A6B" d="M28.9,12.7c-0.2-0.2-0.4-0.2-0.5,0l-1.1,1.1c-0.2,0.2-0.2,0.4,0,0.5l2.1,2.1c0.2,0.2,0.4,0.2,0.5,0
				l1.1-1.1c0.1-0.2,0.1-0.4,0-0.5L28.9,12.7z"/>
			<path fill="#415A6B" d="M35.3,19.1L33.2,17c-0.1-0.2-0.4-0.2-0.5,0l-1.1,1.1c-0.2,0.2-0.2,0.4,0,0.5l2.1,2.1
				c0.2,0.2,0.4,0.2,0.5,0l1.1-1.1C35.5,19.5,35.5,19.3,35.3,19.1z"/>
		</g>
		<g>
			<g>
				<g>
					<circle fill="#F3705A" cx="42.3" cy="27.5" r="1.8"/>
				</g>
				<g>
					<circle fill="#415A6B" cx="37.3" cy="32.5" r="1.8"/>
				</g>
			</g>
			<g>
				<g>
					<circle fill="#66C6B9" cx="42.3" cy="32.5" r="1.8"/>
				</g>
				<g>
					<circle fill="#FFD15C" cx="37.3" cy="27.5" r="1.8"/>
				</g>
			</g>
		</g>
	</g>
</g>
</svg>
