<?xml version="1.0" encoding="utf-8"?>
<!-- Generator: Adobe Illustrator 20.1.0, SVG Export Plug-In . SVG Version: 6.00 Build 0)  -->
<!DOCTYPE svg PUBLIC "-//W3C//DTD SVG 1.1//EN" "http://www.w3.org/Graphics/SVG/1.1/DTD/svg11.dtd">
<svg version="1.1" id="Layer_1" xmlns="http://www.w3.org/2000/svg" xmlns:xlink="http://www.w3.org/1999/xlink" x="0px" y="0px"
	 viewBox="0 0 49 49" enable-background="new 0 0 49 49" xml:space="preserve">
<g>
	<rect x="22" y="5.2" fill="#ACB3BA" width="5" height="3.8"/>
	<g>
		<path fill="#CDD6E0" d="M42.7,12.7l-2.9-2.9c-0.4-0.4-1-0.4-1.4,0l-3.6,3.6l4.3,4.3l3.6-3.6C43.1,13.7,43.1,13.1,42.7,12.7z"/>
		<path fill="#CDD6E0" d="M9.1,9.8l-2.9,2.9c-0.4,0.4-0.4,1,0,1.4l3.6,3.6l4.3-4.3l-3.6-3.6C10.1,9.4,9.5,9.4,9.1,9.8z"/>
		<path fill="#CDD6E0" d="M29.2,0.5h-9.4c-1.3,0-2.3,1-2.3,2.3s1,2.3,2.3,2.3h9.4c1.3,0,2.3-1,2.3-2.3S30.5,0.5,29.2,0.5z"/>
	</g>
	<circle fill="#4CDBC4" cx="24.5" cy="28.1" r="20.4"/>
	<path fill="#F2F2F2" d="M24.5,44c-8.8,0-15.9-7.1-15.9-15.9c0-8.8,7.1-15.9,15.9-15.9c8.8,0,15.9,7.1,15.9,15.9
		C40.4,36.9,33.3,44,24.5,44z"/>
	<g>
		<rect x="24.3" y="13.3" fill="#ACB3BA" width="0.3" height="1.5"/>
		<rect x="24.3" y="41.4" fill="#ACB3BA" width="0.3" height="1.5"/>
		
			<rect x="21.9" y="13.5" transform="matrix(0.9848 -0.1734 0.1734 0.9848 -2.1355 4.0412)" fill="#ACB3BA" width="0.3" height="1.5"/>
		
			<rect x="26.8" y="41.2" transform="matrix(0.9848 -0.1734 0.1734 0.9848 -6.8681 5.3088)" fill="#ACB3BA" width="0.3" height="1.5"/>
		
			<rect x="19.5" y="14.1" transform="matrix(0.9399 -0.3415 0.3415 0.9399 -3.8964 7.6183)" fill="#ACB3BA" width="0.3" height="1.5"/>
		
			<rect x="29.1" y="40.6" transform="matrix(0.9399 -0.3415 0.3415 0.9399 -12.3492 12.4956)" fill="#ACB3BA" width="0.3" height="1.5"/>
		<polygon fill="#ACB3BA" points="16.9,15.4 17.7,16.6 18,16.5 17.2,15.2 		"/>
		<polygon fill="#ACB3BA" points="31,39.7 31.8,41 32.1,40.8 31.3,39.6 		"/>
		
			<rect x="15.3" y="16.6" transform="matrix(0.7662 -0.6426 0.6426 0.7662 -7.515 13.9798)" fill="#ACB3BA" width="0.3" height="1.5"/>
		
			<rect x="33.4" y="38.1" transform="matrix(0.7663 -0.6425 0.6425 0.7663 -17.1379 30.6378)" fill="#ACB3BA" width="0.3" height="1.5"/>
		
			<rect x="13.5" y="18.3" transform="matrix(0.6432 -0.7657 0.7657 0.6432 -9.6928 17.3035)" fill="#ACB3BA" width="0.3" height="1.5"/>
		
			<rect x="35.1" y="36.4" transform="matrix(0.6432 -0.7657 0.7657 0.6432 -15.8518 40.2633)" fill="#ACB3BA" width="0.3" height="1.5"/>
		<polygon fill="#ACB3BA" points="11.6,20.8 12.9,21.6 13,21.3 11.8,20.5 		"/>
		<polygon fill="#ACB3BA" points="36,34.9 37.2,35.7 37.4,35.4 36.1,34.6 		"/>
		
			<rect x="11.1" y="22.5" transform="matrix(0.3421 -0.9397 0.9397 0.3421 -14.4603 25.915)" fill="#ACB3BA" width="0.3" height="1.5"/>
		
			<rect x="37.5" y="32.2" transform="matrix(0.3421 -0.9397 0.9397 0.3421 -6.1069 57.0964)" fill="#ACB3BA" width="0.3" height="1.5"/>
		
			<rect x="10.5" y="24.9" transform="matrix(0.174 -0.9847 0.9847 0.174 -16.4717 31.6694)" fill="#ACB3BA" width="0.3" height="1.5"/>
		
			<rect x="38.2" y="29.8" transform="matrix(0.1741 -0.9847 0.9847 0.1741 1.6056 62.9952)" fill="#ACB3BA" width="0.3" height="1.5"/>
		<rect x="9.7" y="27.9" fill="#ACB3BA" width="1.5" height="0.3"/>
		<rect x="37.8" y="27.9" fill="#ACB3BA" width="1.5" height="0.3"/>
		<rect x="9.9" y="30.4" transform="matrix(0.9847 -0.174 0.174 0.9847 -5.1525 2.3181)" fill="#ACB3BA" width="1.5" height="0.3"/>
		
			<rect x="37.6" y="25.5" transform="matrix(0.9847 -0.1741 0.1741 0.9847 -3.8804 7.0696)" fill="#ACB3BA" width="1.5" height="0.3"/>
		
			<rect x="10.5" y="32.7" transform="matrix(0.9397 -0.3421 0.3421 0.9397 -10.5787 5.8443)" fill="#ACB3BA" width="1.5" height="0.3"/>
		
			<rect x="37" y="23.1" transform="matrix(0.9397 -0.3421 0.3421 0.9397 -5.6897 14.3102)" fill="#ACB3BA" width="1.5" height="0.3"/>
		<polygon fill="#ACB3BA" points="12.9,34.6 11.6,35.4 11.8,35.7 13,34.9 		"/>
		<polygon fill="#ACB3BA" points="36.1,21.6 37.4,20.8 37.2,20.5 36,21.3 		"/>
		<rect x="13" y="37" transform="matrix(0.7658 -0.643 0.643 0.7658 -20.67 17.5199)" fill="#ACB3BA" width="1.5" height="0.3"/>
		
			<rect x="34.5" y="18.9" transform="matrix(0.7657 -0.6432 0.6432 0.7657 -3.9885 27.1567)" fill="#ACB3BA" width="1.5" height="0.3"/>
		
			<rect x="14.7" y="38.7" transform="matrix(0.6429 -0.766 0.766 0.6429 -24.2581 25.7217)" fill="#ACB3BA" width="1.5" height="0.3"/>
		
			<rect x="32.8" y="17.1" transform="matrix(0.6425 -0.7663 0.7663 0.6425 -1.2791 31.8946)" fill="#ACB3BA" width="1.5" height="0.3"/>
		<polygon fill="#ACB3BA" points="16.9,40.8 17.2,41 18,39.7 17.7,39.6 		"/>
		<polygon fill="#ACB3BA" points="31.8,15.2 31,16.5 31.3,16.6 32.1,15.4 		"/>
		
			<rect x="18.9" y="41.1" transform="matrix(0.3415 -0.9399 0.9399 0.3415 -25.8711 45.7112)" fill="#ACB3BA" width="1.5" height="0.3"/>
		
			<rect x="28.6" y="14.7" transform="matrix(0.3415 -0.9399 0.9399 0.3415 5.321 37.3446)" fill="#ACB3BA" width="1.5" height="0.3"/>
		
			<rect x="21.3" y="41.8" transform="matrix(0.1734 -0.9848 0.9848 0.1734 -23.0869 56.4001)" fill="#ACB3BA" width="1.5" height="0.3"/>
		
			<rect x="26.2" y="14.1" transform="matrix(0.1734 -0.9848 0.9848 0.1734 8.2464 38.3056)" fill="#ACB3BA" width="1.5" height="0.3"/>
	</g>
	<path fill="#ACB3BA" d="M27.2,28c0,1.5-1.2,2.7-2.7,2.7s-2.7-1.2-2.7-2.7c0-1.5,2.7-8,2.7-8S27.2,26.5,27.2,28z"/>
	<circle fill="#FFFFFF" cx="24.5" cy="28" r="1.5"/>
	<rect x="22" y="5.2" fill="#A0ACB5" width="5" height="1.5"/>
</g>
</svg>
