<?xml version="1.0" encoding="utf-8"?>
<!-- Generator: Adobe Illustrator 18.0.0, SVG Export Plug-In . SVG Version: 6.00 Build 0)  -->
<!DOCTYPE svg PUBLIC "-//W3C//DTD SVG 1.1//EN" "http://www.w3.org/Graphics/SVG/1.1/DTD/svg11.dtd">
<svg version="1.1" id="Layer_1" xmlns="http://www.w3.org/2000/svg" xmlns:xlink="http://www.w3.org/1999/xlink" x="0px" y="0px"
	 viewBox="0 0 48 48" enable-background="new 0 0 48 48" xml:space="preserve">
<g>
	<path fill="#CDD6E0" d="M46,48H2c-1.1,0-2-0.9-2-2V24.4c0-1.1,0.9-2,2-2h44c1.1,0,2,0.9,2,2V46C48,47.1,47.1,48,46,48z"/>
	<rect x="2.5" y="24.9" fill="#F2F2F2" width="6.3" height="4.4"/>
	<rect x="9.8" y="24.9" fill="#F2F2F2" width="6.3" height="4.4"/>
	<rect x="17.2" y="24.9" fill="#F2F2F2" width="6.3" height="4.4"/>
	<rect x="24.5" y="24.9" fill="#F2F2F2" width="6.3" height="4.4"/>
	<rect x="31.8" y="24.9" fill="#F2F2F2" width="6.3" height="4.4"/>
	<rect x="39.2" y="24.9" fill="#F2F2F2" width="6.3" height="4.4"/>
	<rect x="2.5" y="30.3" fill="#F2F2F2" width="6.3" height="4.4"/>
	<rect x="39.2" y="30.3" fill="#F2F2F2" width="6.3" height="4.4"/>
	<rect x="2.5" y="35.7" fill="#F2F2F2" width="6.3" height="4.4"/>
	<rect x="9.8" y="35.7" fill="#F2F2F2" width="6.3" height="4.4"/>
	<rect x="17.2" y="35.7" fill="#F2F2F2" width="6.3" height="4.4"/>
	<rect x="24.5" y="35.7" fill="#F2F2F2" width="6.3" height="4.4"/>
	<rect x="31.8" y="35.7" fill="#F2F2F2" width="6.3" height="4.4"/>
	<rect x="9.8" y="30.3" fill="#F2F2F2" width="6.3" height="4.4"/>
	<rect x="17.2" y="30.3" fill="#F2F2F2" width="6.3" height="4.4"/>
	<rect x="24.5" y="30.3" fill="#F2F2F2" width="6.3" height="4.4"/>
	<rect x="31.8" y="30.3" fill="#F2F2F2" width="6.3" height="4.4"/>
	<rect x="39.2" y="35.7" fill="#F2F2F2" width="6.3" height="4.4"/>
	<rect x="2.5" y="41.1" fill="#F2F2F2" width="6.3" height="4.4"/>
	<rect x="9.8" y="41.1" fill="#F2F2F2" width="28.3" height="4.4"/>
	<rect x="39.2" y="41.1" fill="#F2F2F2" width="6.3" height="4.4"/>
	<path fill="#ACB3BA" d="M42.6,22.4h-2c0-4.6-3.7-8.3-8.3-8.3h-6.9c-5.7,0-10.3-4.6-10.3-10.3V0h2v3.8c0,4.6,3.7,8.3,8.3,8.3h6.9
		C38,12.1,42.6,16.7,42.6,22.4z"/>
</g>
</svg>
