<?xml version="1.0" encoding="utf-8"?>
<!-- Generator: Adobe Illustrator 18.0.0, SVG Export Plug-In . SVG Version: 6.00 Build 0)  -->
<!DOCTYPE svg PUBLIC "-//W3C//DTD SVG 1.1//EN" "http://www.w3.org/Graphics/SVG/1.1/DTD/svg11.dtd">
<svg version="1.1" id="Layer_1" xmlns="http://www.w3.org/2000/svg" xmlns:xlink="http://www.w3.org/1999/xlink" x="0px" y="0px"
	 viewBox="0 0 48 48" enable-background="new 0 0 48 48" xml:space="preserve">
<g>
	<g>
		<g>
			<g>
				<path fill="#E8EAE9" d="M16.9,43.2c0.4,0.7,1.3,0.9,2.1,0.5c0.7-0.4,0.9-1.3,0.5-2.1L7.8,22.2L18.4,7.5l17.5,7.1l4.5,18.2
					L28.1,44.5l4.2,0.1l10.7-10.3c0.4-0.4,0.5-0.9,0.4-1.4l-4.9-19.8c-0.1-0.5-0.4-0.9-0.9-1L18.4,4.2c-0.6-0.3-1.4,0-1.8,0.5
					L4.7,21.3c-0.3,0.5-0.4,1.1-0.1,1.6L16.9,43.2z"/>
			</g>
		</g>
		<g>
			<g>
				<g>
					
						<rect x="21.1" y="34.6" transform="matrix(2.231015e-002 -0.9998 0.9998 2.231015e-002 -14.3876 60.5771)" fill="#F7B64C" width="5.3" height="6.2"/>
				</g>
				
					<ellipse transform="matrix(0.9998 2.230260e-002 -2.230260e-002 0.9998 0.7061 -0.5294)" fill="#FFD15C" cx="24.1" cy="31.4" rx="5.7" ry="6.9"/>
				<g>
					<path fill="#FFD15C" d="M26.3,24.4c-2.1-0.3-4.5-0.1-6.2,1.3c-1.1,1-2,4.1-1,5.4c1-3.3,4.6-5,8.1-4.1c1.6,0.4,1.5,2.2,0.6,3.1
						c0.8,0.4,2,0,2-1.1C29.7,26.8,28.6,24.7,26.3,24.4z"/>
				</g>
				<path fill="#415A6B" d="M27.8,23.9l0,1.8c0,0-2.8-0.7-4.8,0.8c-3.1,2.2-7.9-1.5-5-5.8c0,0,0.7,2.2,3.8,1.5
					C25.1,21.4,26.2,22.1,27.8,23.9z"/>
				<g>
					<path fill="#415A6B" d="M24.5,25.7c-2.6-1-5.1,0.3-5.1,0.3l-0.6,5.6l-0.3,0c0,0-0.1-0.2-0.8-4.4c-0.7-4.2,3.1-3.5,3.1-3.5
						L24.5,25.7z"/>
				</g>
				<g>
					<path fill="#415A6B" d="M30.7,27.5c-0.9,4.2-1,4.4-1,4.4l-0.4,0L29,27.6c0,0-1,0-1.3-1.9l0-1.8C27.8,23.9,31.6,23.3,30.7,27.5z
						"/>
				</g>
				<g>
					
						<ellipse transform="matrix(-0.993 0.1184 -0.1184 -0.993 40.4366 60.6109)" fill="#FFD15C" cx="18.4" cy="31.5" rx="1.2" ry="1.9"/>
				</g>
				<g>
					
						<ellipse transform="matrix(0.9867 0.1626 -0.1626 0.9867 5.5601 -4.414)" fill="#FFD15C" cx="29.7" cy="31.8" rx="1.2" ry="1.9"/>
				</g>
				<g>
					<path fill="#415A6B" d="M35.8,48.2l0.1-3.6c0-1.5-0.9-2.8-2.3-3.2L27,39.2c-0.7-0.2-1.4,0-1.9,0.5c-0.3,0.4-0.8,0.6-1.4,0.6
						c-0.6,0-1.1-0.3-1.3-0.7c-0.3-0.5-0.9-0.8-1.5-0.7l-7.1,2c-1.4,0.4-2.4,1.7-2.4,3.1l-0.1,3.6L35.8,48.2z"/>
				</g>
				<g>
					<path fill="#FFFFFF" d="M25.3,48l2.1-8.8l0,0c-0.7-0.2-1.6,0-2.1,0.6c-0.4,0.4-0.9,0.7-1.6,0.7c-0.7,0-1.2-0.3-1.5-0.8
						c-0.4-0.6-1-0.9-1.6-0.7l-0.4,0.1l1.7,8.8L25.3,48z"/>
				</g>
				<g>
					<g>
						<path fill="#F3705A" d="M24.6,42.7l0.9-0.8c0,0-1.1-1.6-1.7-1.6c-0.6,0-1.8,1.5-1.8,1.5l0.8,0.9L24.6,42.7z"/>
					</g>
					<g>
						<polygon fill="#F3705A" points="25.3,48 24.6,42.7 22.8,42.7 21.8,47.9 						"/>
					</g>
				</g>
				<g>
					<g>
						<path fill="#F3F3F3" d="M26.9,37.6l-3.1,2.7c0,0,2,1.8,2.2,2.9l1.7-3.9L26.9,37.6z"/>
					</g>
					<g>
						<path fill="#F3F3F3" d="M20.7,37.5l3,2.9c0,0-2.1,1.7-2.3,2.8l-1.5-3.9L20.7,37.5z"/>
					</g>
				</g>
			</g>
			<g>
				<g>
					<polygon fill="#344A5E" points="27.2,48 28.9,44.8 27.7,44 30.2,41.8 27.3,38.5 25.1,48 					"/>
				</g>
				<g>
					<polygon fill="#344A5E" points="18.4,44.6 19.9,47.9 22,47.9 20.3,38.4 17.2,41.5 19.6,43.8 					"/>
				</g>
			</g>
		</g>
		<g>
			<g>
				<circle fill="#66C6B9" cx="17.8" cy="5.6" r="5.8"/>
			</g>
			<g>
				<circle fill="#4ABAA5" cx="17.8" cy="5.6" r="4"/>
			</g>
		</g>
		<g>
			<g>
				<circle fill="#F05540" cx="6" cy="22.2" r="5.8"/>
			</g>
			<g>
				<circle fill="#F3705A" cx="6" cy="22.2" r="4"/>
			</g>
		</g>
		<g>
			<g>
				<circle fill="#55C0EB" cx="42" cy="33.2" r="5.8"/>
			</g>
			<g>
				<circle fill="#8AD7F8" cx="42" cy="33.2" r="4"/>
			</g>
		</g>
		<g>
			<g>
				<circle fill="#FFD15C" cx="37.2" cy="13.5" r="5.8"/>
			</g>
			<g>
				<circle fill="#F7B64C" cx="37.2" cy="13.5" r="4"/>
			</g>
		</g>
	</g>
</g>
</svg>
