<?xml version="1.0" encoding="utf-8"?>
<!-- Generator: Adobe Illustrator 18.0.0, SVG Export Plug-In . SVG Version: 6.00 Build 0)  -->
<!DOCTYPE svg PUBLIC "-//W3C//DTD SVG 1.1//EN" "http://www.w3.org/Graphics/SVG/1.1/DTD/svg11.dtd">
<svg version="1.1" id="Layer_1" xmlns="http://www.w3.org/2000/svg" xmlns:xlink="http://www.w3.org/1999/xlink" x="0px" y="0px"
	 viewBox="0 0 48 48" enable-background="new 0 0 48 48" xml:space="preserve">
<g>
	<g>
		<g>
			<g>
				<rect x="9.4" y="0" fill="#F3F3F3" width="32.2" height="48"/>
			</g>
			<g>
				<g>
					<rect x="14.6" y="5" fill="#CED6E0" width="22.5" height="2.3"/>
				</g>
				<g>
					<rect x="14.6" y="11.1" fill="#CED6E0" width="22.5" height="2.3"/>
				</g>
				<g>
					<rect x="14.6" y="17.1" fill="#CED6E0" width="11" height="2.3"/>
				</g>
			</g>
			<g>
				<path fill="#F3705A" d="M9.4,0H4.7C2.1,0,0,2.1,0,4.7v38.6C0,45.9,2.1,48,4.7,48h4.7V0z"/>
			</g>
		</g>
		<g>
			<g>
				<path fill="#415A6B" d="M33.1,40.3v-1.8l-2.1-0.4c-0.2-0.8-0.5-1.6-1-2.3l1.2-1.8l-1.2-1.2l-1.8,1.2c-0.7-0.5-1.5-0.8-2.3-1
					l-0.4-2.1h-1.8l-0.4,2.1c-0.8,0.2-1.6,0.5-2.3,1L19,32.7L17.8,34l1.2,1.8c-0.5,0.7-0.8,1.5-1,2.3l-2.1,0.4v1.8l2.1,0.4
					c0.2,0.8,0.5,1.6,1,2.3l-1.2,1.8l1.2,1.2l1.8-1.2c0.7,0.5,1.5,0.8,2.3,1l0.4,2.1h1.8l0.4-2.1c0.8-0.2,1.6-0.5,2.3-1l1.8,1.2
					l1.2-1.2L30,43c0.5-0.7,0.8-1.5,1-2.3L33.1,40.3z M24.5,43.1c-2,0-3.7-1.7-3.7-3.7c0-2,1.6-3.7,3.7-3.7c2,0,3.7,1.6,3.7,3.7
					C28.2,41.5,26.5,43.1,24.5,43.1z"/>
				<circle fill="#415A6B" cx="24.5" cy="39.4" r="1.8"/>
			</g>
			<g>
				<g>
					<g>
						<g>
							<g>
								<g>
									<path fill="#8AD7F8" d="M45.9,33.7l1.6-3l-1.9-1.9c0.1-0.4,0.1-0.7,0.1-1.1l2.2-1.5l-1-3.3l-2.7,0
										c-0.2-0.3-0.4-0.6-0.7-0.9l0.5-2.6l-3-1.6l-1.9,1.9c-0.4-0.1-0.7-0.1-1.1-0.1l-1.5-2.2l-3.3,1l0,2.7
										c-0.3,0.2-0.6,0.4-0.9,0.7l-2.6-0.5l-1.6,3l1.9,1.9C30,26.4,30,26.7,30,27.1l-2.2,1.5l1,3.3l2.7,0c0.2,0.3,0.4,0.6,0.7,0.9
										l-0.5,2.6l3,1.6l1.9-1.9c0.4,0.1,0.7,0.1,1.1,0.1l1.5,2.2l3.3-1l0-2.7c0.3-0.2,0.6-0.4,0.9-0.7L45.9,33.7z M36.7,29.6
										c-1.2-0.7-1.7-2.2-1-3.4c0.7-1.2,2.2-1.7,3.4-1s1.7,2.2,1,3.4C39.4,29.8,37.9,30.3,36.7,29.6z"/>
								</g>
							</g>
						</g>
						<g>
							<g>
								<path fill="#55C0EB" d="M40.3,22.8c-2.5-1.4-5.7-0.4-7,2.1c-1.4,2.5-0.4,5.7,2.1,7c2.5,1.4,5.7,0.4,7-2.1
									C43.8,27.4,42.8,24.2,40.3,22.8z M36.7,29.6c-1.2-0.7-1.7-2.2-1-3.4c0.7-1.2,2.2-1.7,3.4-1c1.2,0.7,1.7,2.2,1,3.4
									C39.4,29.8,37.9,30.3,36.7,29.6z"/>
							</g>
						</g>
					</g>
				</g>
			</g>
		</g>
	</g>
</g>
</svg>
