<?xml version="1.0" encoding="utf-8"?>
<!-- Generator: Adobe Illustrator 19.0.1, SVG Export Plug-In . SVG Version: 6.00 Build 0)  -->
<svg version="1.1" id="Layer_1" xmlns="http://www.w3.org/2000/svg" xmlns:xlink="http://www.w3.org/1999/xlink" x="0px" y="0px"
	 viewBox="0 0 48 48" style="enable-background:new 0 0 48 48;" xml:space="preserve">
<style type="text/css">
	.st0{fill:#66C6B9;}
	.st1{fill:#F3F3F3;}
	.st2{fill:#415A6B;}
	.st3{fill:#CED6E0;}
	.st4{fill:#F3705A;}
	.st5{fill:#E8EAE9;}
	.st6{fill:#4ABAA5;}
	.st7{fill:#F05540;}
	.st8{fill:#FFD15C;}
	.st9{fill:#55C0EB;}
	.st10{fill:#8AD7F8;}
	.st11{fill:#344A5E;}
	.st12{fill:#FFFFFF;}
	.st13{fill:#F7B64C;}
	.st14{fill:#ADB3BA;}
	.st15{fill:#38A892;}
	.st16{fill:#ED9845;}
	.st17{fill:#2D4251;}
	.st18{fill:#304556;}
	.st19{fill:#A5AAAD;}
	.st20{fill:#2D4456;}
	.st21{fill:#4FB0E0;}
	.st22{fill:#2D4354;}
	.st23{fill:#E54C38;}
	.st24{fill:#2B4456;}
	.st25{fill:#2B404F;}
</style>
<g>
	<path class="st0" d="M8.9,43.1C8.9,43.1,8.9,43.1,8.9,43.1C8.3,42.4,7,42,6.8,41.6s0.3-3.5,0.4-5c0.1-1.5,0.2-7.8-0.2-8.2L6.2,28
		c0,0-0.9-0.3-1.9,1.5c-1.1,1.8-1,3.3-1.4,4.5c-0.4,1.2-1,2.7-1.3,3.7c-0.3,1-1.6,4.3-1.6,5.1c0,0.1,0,0.2,0.1,0.3H8.9z"/>
	<path class="st0" d="M24.5,43.1c0.2-3.4,0.3-11.5,0.3-11.5l-5.1-2.3c0,0,0,0-0.2,1.4c-0.1,1.1-1.5,8.4-2.2,12.3H24.5z"/>
	<path class="st0" d="M16.7,43.1h1.6c0.4-0.8,0.7-1.7,1-2.5c1.5-4.2,1.5-4.4,1.5-6.2c0-1.8-1.3-5.5-1.3-5.5l-0.9-0.4
		c0,0,0.5,5.5-0.4,9.3C17.9,39.2,17.3,41.1,16.7,43.1z"/>
	<path class="st6" d="M6.8,36.3c-0.3,1.4-0.5,4.2-0.7,6.8h9.9c-0.5-4.2-1.8-15.3-3.7-16.6L6.2,28C6.2,28,7.4,33.4,6.8,36.3z"/>
	<g>
		<g>
			<path class="st4" d="M22.4,22.8c-0.5-1.4-1.3-2.3-2.1-2.3c-1.5,0-2.8,3-2.8,6.7s1.2,6.7,2.8,6.7c0.8,0,1.6-0.9,2.1-2.3V22.8z"/>
		</g>
		<g>
			<path class="st8" d="M15.9,43.1h1.8c1.2-3,2.3-9.3,1-10.6c-0.2-0.2-0.6-4.9-0.6-4.9s1.3,0.6,2.2-1.3c0.7-1.5,1.8-3.4,1.8-3.4
				c1-5.3-3.3-5.6-3.3-5.6l-4.4,3L13,26.3l0.7,7.8L15.9,43.1z"/>
			<g>
				<path class="st0" d="M14,36.1c0.2,0.5,0.8,4,1.3,7h1.4c0-1.9-0.2-4.6-0.8-7.2c-0.7-3.7-2.6-9-2.6-9l-3.1,1.9
					C12.4,30.9,13.6,35.3,14,36.1z"/>
			</g>
			<g>
				<path class="st4" d="M18.2,27.6C18.2,27.6,18.2,27.6,18.2,27.6L18.2,27.6z"/>
				<path class="st13" d="M18.6,31.6c-0.2-1.4-0.4-4-0.4-4s-2.4-0.5-3.8-3C14.4,24.6,15.4,29.6,18.6,31.6z"/>
				<g>
					<path class="st6" d="M24.5,43.1c0.2-3.4,0.3-11.5,0.3-11.5l-5.1-2.3c0,0,0,0-0.2,1.4c-0.1,1.1-1.5,8.4-2.2,12.3H24.5z"/>
				</g>
				<g>
					<path class="st0" d="M16.7,43.1h1.6c0.4-0.8,0.7-1.7,1-2.5c1.5-4.2,1.5-4.4,1.5-6.2c0-1.8-1.3-5.5-1.3-5.5l-0.9-0.4
						c0,0,0.5,5.5-0.4,9.3C17.9,39.2,17.3,41.1,16.7,43.1z"/>
				</g>
			</g>
		</g>
		<g>
			<path class="st4" d="M12.6,16.7c0,0-1.3,1-2,3.6c-0.7,2.6-1,6.3-2.1,8.9S7,32.3,7,32.3s1.8,0.2,2,0.2s3.9,0.6,3.9-1.8
				s-1.5-5.9-0.7-8.3S12.6,16.7,12.6,16.7z"/>
		</g>
		<g>
			<path class="st4" d="M15.3,33c0,0,0-0.1,0.1-0.2C15.4,32.9,15.4,33,15.3,33z"/>
			<g>
				<path class="st4" d="M23.3,31.1c-0.3,2-1.8,3.7-1.9,3.8c0.3-1.7,0.3-3.3-0.1-4.6C21,29.2,20.9,28,21,26.7c0,0,0,0,0,0
					c0.1-0.9,1.3-4.9,0.5-6.1c-0.8-1.3-2.9-1.9-2.9-1.9c-0.5,0.6-2.1,1.5-2.9,2.2c-0.8,0.6-1.6,1.7,0.2,7.2c1.9,5.4,0,6.9,0,6.9
					c1.5-4.4-1.1-6.2-1.1-6.2c1.2,1.5,0.8,3.4,0.6,4.1c0.1-0.6,0.1-1.5-0.4-2.7c-0.5-1.4-1.7-1.8-1.7-1.8s-0.1,0.3,0.2,3.5
					c0.3,3.2-1.6,4.2-1.7,4.2c0,0,0.1-0.1,0.6-1.2c0.4-0.8,0.1-3-0.2-4.4c-0.4-1.9-0.7-3.7-0.9-5.6c-0.2-2.2-0.3-4.2-0.1-5.9
					c0.1-1.2,0.5-2.3,1.2-3.2c0.6-0.8,1.4-1.5,2.5-1.7c1.9-0.4,3.4-0.4,5.3,1.2c1.9,1.5,2.9,4.9,2.9,6.2c0,1.2-0.2,3.8-0.2,3.8
					s0,0.1,0.1,0.9C23.1,26.9,23.6,29.1,23.3,31.1z"/>
			</g>
			<path class="st4" d="M20.1,33.6C20.1,33.6,20.1,33.6,20.1,33.6C20.1,33.6,20.1,33.6,20.1,33.6z"/>
		</g>
		<g>
			<path class="st4" d="M21.3,28.5C21.3,28.5,21.3,28.5,21.3,28.5c-0.1,0.1-0.1,0.2-0.1,0.2c-0.1,0.1-0.2,0.4-0.3,0.6
				c-0.1,0.3-0.2,0.6-0.2,1c-0.1,0.4-0.1,0.8-0.1,1.2c0,0.4,0,0.8,0,1.2c0,0.4-0.1,0.8-0.3,1.1c-0.1,0.1-0.1,0.3-0.2,0.4
				c-0.1,0.1-0.1,0.2-0.2,0.3c-0.1,0.1-0.1,0.1-0.2,0.1c0,0-0.1,0.1-0.1,0.1s0,0,0-0.1c0,0,0.1-0.1,0.1-0.2c0.1-0.1,0.1-0.2,0.2-0.3
				c0.1-0.1,0.1-0.2,0.2-0.4c0.1-0.3,0.1-0.6,0.1-1c0-0.4-0.1-0.8-0.1-1.2c0-0.4-0.1-0.8-0.1-1.2c0-0.4,0.1-0.8,0.1-1.1
				c0.1-0.3,0.2-0.6,0.2-0.8c0-0.1,0.1-0.2,0.1-0.2c0,0,0-0.1,0-0.1L21.3,28.5z"/>
		</g>
		<g>
			<path class="st4" d="M18.2,27.6c-0.9,1.3-1.2,3-0.9,4.6c0.2,1.2,0.8,2.3,1.1,3.5c0.3,1.3,0.2,2.7-0.3,4c1.1-1.2,2.3-2.5,3.2-3.9
				s1.6-3,1.7-4.7c0.1-1.6-0.3-3.1-0.8-4.6C20.8,27.5,19.4,28.2,18.2,27.6z"/>
		</g>
	</g>
	<path class="st11" d="M25.4,43.1h4c0.6-1.5,1.2-4,1-6.5c-0.5-4-1.5-12.2-1.2-13.1c0.3-0.9,2-4.8,2-4.8s-3.4,1.4-3.9,1.6
		c-0.5,0.3-0.5,0.2-0.8,0.7c-0.3,0.5-1,3.9-1,4.8s0.7,8.5,0.7,8.5L25.4,43.1z"/>
	<g>
		<path class="st8" d="M39.2,19.1l-6.3,4.4l-0.8-2.3c0,0,0.1-1.9,0-2.4c0,0-1.9-2.5-2.9-5.9c-1-3.5-1-3.5-1-3.5s-0.8-1.9,2.6-2.7
			C34.1,6,35.1,6,35.7,6.6l2,6.3c0,0-0.1,2.3-0.2,2.6c0,0,0.1,1.4,0.9,2.5C39.2,19.1,39.2,19.1,39.2,19.1z"/>
	</g>
	<g>
		<path class="st2" d="M29.2,13c0,0-0.2-1.3-0.4-2.2c-0.2-0.9-0.2-1.7,0.2-1.9s2.7-0.2,4.5-1.1s1.8,0.5,1.8,1c0,0.6,0,1.2,0.5,1.7
			c0.5,0.5,0.8,1.1,0.9,1.6s0.1,0.5,0.1,0.5l0.3,0c0,0,0.2-1.2,0.2-1.7c0-0.6,0.7-1.5,0.7-1.5s0.2-4.9-4.4-5.1c0,0-1.3-1-3.9,0.8
			s-2.1,4-2,4.7C27.9,10.6,29.2,13,29.2,13z"/>
	</g>
	<g>
		<path class="st8" d="M38.7,11.6c-0.2,1.1-0.7,1.9-1.1,1.8c-0.4-0.1-0.7-1-0.5-2.1c0.2-1.1,0.7-1.9,1.1-1.8
			C38.6,9.5,38.8,10.5,38.7,11.6z"/>
	</g>
	<path class="st13" d="M36.1,21.2c1.9-2.5,1.6-4.6,1.5-5.3c0,0,0,0,0,0c0-0.2-0.1-0.4-0.1-0.4c0,0,0,0,0,0c-0.1,1.7-1.8,4-3.2,4.3
		c-1.4,0.3-2.2-0.9-2.2-0.9c0.1,0.5,0,2.4,0,2.4l0.8,2.3l3.1-2.2C36,21.3,36,21.3,36.1,21.2z"/>
	<g>
		<path class="st3" d="M32.4,21l0.5,2.6l1.7-2.7l2.4,1.2l-4.6,18.5l-3.7-2.9l1.6-17.4C30.3,20.3,31.3,18.5,32.4,21z"/>
	</g>
	<path class="st11" d="M43.3,43.1l-1.9-10.8c0,0,0-0.2,0.9-3.7c0.9-3.5,3.5-6.8,3.5-6.8s-2.1-1-3.7-1.9C40.5,19,40,19,40,19
		l-0.5,0.3c0,0-7.7,14.8-8.9,19.6c-0.3,1.2-0.4,2.7-0.3,4.2H43.3z"/>
	<g>
		<g>
			<path class="st2" d="M31.6,18.9c0,0-1,2.2-1.3,4.8c-0.4,2.6,0,13,0,13s-1.7-7.7-1.8-9.6s0.4-5.5,0.4-5.5l1.2-0.8l-0.4-0.3l2-2.2
				L31.6,18.9z"/>
		</g>
	</g>
	<path class="st1" d="M37.8,16.7c0,0-1.9,3.2-3.2,4.2c0,0,1.1,3,1.2,3.1c0,0.1,3.1-6.1,3.1-6.1L37.8,16.7z"/>
	<path class="st2" d="M38.1,17.1c0,0-1.2,3.6-1.8,4.9c-0.7,1.3-3.2,7.2-4.5,12.1c-1.2,4.9-1.2,4.9-1.2,4.9s6-12.6,8.2-15.7L38,22.4
		l1.5-0.5c0,0,0-1.3,0.3-2S40,19,40,19s-0.3-0.5-0.9-0.9C38.5,17.6,38.5,17.2,38.1,17.1z"/>
	<path class="st2" d="M43.9,43.1c0.8,0,1.5-0.2,2.1-0.7c0,0,0,0,0,0c0.8-0.6,0.7-1,0.8-2c0.1-0.9,1-6.9,1.1-9
		c0.1-2.1-0.2-5.9-0.4-7.9c-0.3-2-1.7-1.8-1.7-1.8s-2.7,3.2-3.5,6.8c-0.2,0.7-0.3,1.3-0.4,1.8c0,0,0,0,0,0c0,0.1,0.3,3.3,0.2,5.8
		c-0.1,1.4-0.2,2.5-0.7,2.8c-1.3,0.7-8,1.3-9.2,3.5c-0.1,0.2-0.2,0.5-0.3,0.7H43.9z"/>
	<path class="st1" d="M32.1,18.9c0.3,1.1,0.5,2.2,0.6,3.4c0,0-0.8-1.3-1.2-1.8c-0.4-0.4-0.6-0.6-0.6-0.6l0.6-1.8
		C31.6,18.1,31.9,18.7,32.1,18.9z"/>
	<path class="st5" d="M42.5,43.4L23,43.9c-0.4,0-0.7-0.3-0.7-0.7l0.2-10.9c0-0.4,0.3-0.7,0.7-0.7h21.2c0.4,0,0.7,0.4,0.7,0.8
		l-1.9,10.4C43.1,43.2,42.8,43.4,42.5,43.4z"/>
	<g>
		
			<ellipse transform="matrix(0.9968 -8.006252e-002 8.006252e-002 0.9968 -2.9143 2.8155)" class="st14" cx="33.7" cy="37.7" rx="2" ry="1.2"/>
	</g>
</g>
</svg>
