<?xml version="1.0" encoding="utf-8"?>
<!-- Generator: Adobe Illustrator 18.0.0, SVG Export Plug-In . SVG Version: 6.00 Build 0)  -->
<!DOCTYPE svg PUBLIC "-//W3C//DTD SVG 1.1//EN" "http://www.w3.org/Graphics/SVG/1.1/DTD/svg11.dtd">
<svg version="1.1" id="Layer_1" xmlns="http://www.w3.org/2000/svg" xmlns:xlink="http://www.w3.org/1999/xlink" x="0px" y="0px"
	 viewBox="0 0 512 512" enable-background="new 0 0 512 512" xml:space="preserve">
<g>
	<polygon fill="#40596B" points="205.6,2 110.3,399.7 83.9,510 33.8,510 60.2,399.7 155.5,2 	"/>
	<polygon fill="#40596B" points="478.3,510 428.1,510 401.7,399.7 306.4,2 356.6,2 451.8,399.7 	"/>
	<polygon fill="#334A5E" points="144.8,46.8 60.2,399.7 110.3,399.7 194.9,46.8 	"/>
	<polygon fill="#334A5E" points="367.3,46.8 317.1,46.8 401.7,399.7 451.8,399.7 	"/>
	<path fill="#55BFE9" d="M508,383.8H4c-1.1,0-2-0.9-2-2v-345c0-1.1,0.9-2,2-2h504c1.1,0,2,0.9,2,2v345
		C510,382.9,509.1,383.8,508,383.8z"/>
	<rect x="44.3" y="77.2" fill="#F2F2F2" width="423.3" height="264.3"/>
	<g>
		<path fill="#F8B64C" d="M140,238.8V255H78.9c0.7-6.1,2.6-11.9,6-17.4c3.3-5.5,9.8-12.7,19.6-21.8c7.9-7.3,12.7-12.3,14.4-14.9
			c2.4-3.6,3.6-7.2,3.6-10.7c0-3.9-1-6.9-3.1-9c-2.1-2.1-5-3.1-8.6-3.1c-3.6,0-6.5,1.1-8.7,3.3c-2.1,2.2-3.4,5.8-3.7,10.9L81,190.6
			c1-9.6,4.3-16.5,9.7-20.7c5.5-4.2,12.3-6.3,20.5-6.3c9,0,16,2.4,21.1,7.3c5.1,4.8,7.7,10.9,7.7,18c0,4.1-0.7,8-2.2,11.7
			c-1.5,3.7-3.8,7.6-7,11.6c-2.1,2.7-5.9,6.6-11.4,11.6c-5.5,5-9,8.4-10.4,10c-1.5,1.7-2.7,3.3-3.6,4.8H140z"/>
		<path fill="#F8B64C" d="M175.5,241.9v-23.6h-23.8V202h23.8v-23.6h15.9V202h23.9v16.3h-23.9v23.6H175.5z"/>
		<path fill="#F8B64C" d="M284.8,238.8V255h-61.1c0.7-6.1,2.6-11.9,6-17.4c3.3-5.5,9.8-12.7,19.6-21.8c7.9-7.3,12.7-12.3,14.4-14.9
			c2.4-3.6,3.6-7.2,3.6-10.7c0-3.9-1-6.9-3.1-9c-2.1-2.1-5-3.1-8.7-3.1c-3.6,0-6.5,1.1-8.7,3.3c-2.1,2.2-3.4,5.8-3.7,10.9l-17.4-1.7
			c1-9.6,4.3-16.5,9.7-20.7c5.5-4.2,12.3-6.3,20.5-6.3c9,0,16,2.4,21.1,7.3c5.1,4.8,7.7,10.9,7.7,18c0,4.1-0.7,8-2.2,11.7
			c-1.5,3.7-3.8,7.6-7,11.6c-2.1,2.7-5.9,6.6-11.4,11.6s-9,8.4-10.4,10c-1.5,1.7-2.7,3.3-3.6,4.8H284.8z"/>
		<path fill="#F8B64C" d="M296.5,204.4v-16H360v16H296.5z M296.5,231.9v-16.1H360v16.1H296.5z"/>
		<path fill="#F8B64C" d="M404.9,255v-18.3h-37.2v-15.3l39.4-57.7h14.6v57.7h11.3v15.3h-11.3V255H404.9z M404.9,221.4v-31.1
			L384,221.4H404.9z"/>
	</g>
</g>
</svg>
