<?xml version="1.0" encoding="utf-8"?>
<!-- Generator: Adobe Illustrator 18.0.0, SVG Export Plug-In . SVG Version: 6.00 Build 0)  -->
<!DOCTYPE svg PUBLIC "-//W3C//DTD SVG 1.1//EN" "http://www.w3.org/Graphics/SVG/1.1/DTD/svg11.dtd">
<svg version="1.1" id="Layer_1" xmlns="http://www.w3.org/2000/svg" xmlns:xlink="http://www.w3.org/1999/xlink" x="0px" y="0px"
	 viewBox="0 0 48 48" enable-background="new 0 0 48 48" xml:space="preserve">
<g>
	<g>
		<path fill="#F3F3F3" d="M36.3,0H3C1.3,0,0,1.3,0,3v42c0,1.7,1.3,3,3,3h33.3c1.7,0,3-1.3,3-3V3C39.3,1.3,38,0,36.3,0z"/>
		<g>
			<g>
				<g>
					<g>
						<g>
							<g>
								<g>
									<path fill="#8AD7F8" d="M46.3,32.1l-2.4-2.4l-2.4,1.3c-0.3-0.2-0.7-0.3-1-0.4l-0.8-2.6l-3.4,0l-0.8,2.6
										c-0.3,0.1-0.7,0.3-1,0.4l-2.4-1.3L29.6,32l1.2,2.4c-0.2,0.3-0.3,0.7-0.4,1l-2.6,0.8l0,3.4l2.6,0.8c0.1,0.3,0.3,0.7,0.4,1
										l-1.3,2.4l2.4,2.4l2.4-1.3c0.3,0.2,0.7,0.3,1,0.4l0.8,2.6l3.4,0l0.8-2.6c0.3-0.1,0.7-0.3,1-0.4l2.4,1.3l2.4-2.4L45,41.5
										c0.2-0.3,0.3-0.7,0.4-1l2.6-0.8v-3.4l-2.6-0.8c-0.1-0.4-0.3-0.7-0.4-1L46.3,32.1z M40.2,40.2c-1.3,1.2-3.3,1.3-4.5,0
										c-1.2-1.3-1.2-3.3,0-4.5s3.3-1.3,4.5,0C41.5,36.9,41.5,39,40.2,40.2z"/>
								</g>
							</g>
						</g>
						<g>
							<g>
								<path fill="#55C0EB" d="M34,34c-2.2,2.2-2.2,5.7,0,7.9c2.2,2.2,5.7,2.2,7.9,0c2.2-2.2,2.2-5.7,0-7.9
									C39.7,31.8,36.2,31.8,34,34z M40.2,40.2c-1.3,1.2-3.3,1.3-4.5,0c-1.2-1.3-1.2-3.3,0-4.5c1.3-1.2,3.3-1.3,4.5,0
									C41.5,36.9,41.5,39,40.2,40.2z"/>
							</g>
						</g>
					</g>
				</g>
			</g>
		</g>
		<g>
			<g>
				<path fill="#415A6B" d="M35,8.8c-0.1-0.3-0.2-0.5-0.4-0.6L29.4,5c-0.5-0.3-1.1-0.1-1.4,0.3c-0.3,0.5-0.1,1.1,0.3,1.4l3.1,1.9
					l-1.3,0.3c-7.1,1.6-13.4,5.7-17.5,11.8c-4.2,6.2-5.7,13.7-4.3,21c0.1,0.6,0.7,0.9,1.2,0.8c0.5-0.1,0.8-0.6,0.7-1.2
					c-1.3-6.8,0.1-13.7,4-19.5c3.8-5.6,9.7-9.4,16.2-10.9l1.3-0.3L30,13.6c-0.3,0.5-0.1,1.1,0.3,1.4l0,0c0.5,0.3,1.1,0.1,1.4-0.3
					l3.2-5.1C35,9.3,35.1,9.1,35,8.8z"/>
			</g>
			<path fill="#F3705A" d="M27.1,23.5l2.2-2.2c0.4-0.4,0.4-1,0-1.4c-0.4-0.4-1-0.4-1.4,0l-2.2,2.2l-2.2-2.2c-0.4-0.4-1-0.4-1.4,0
				c-0.4,0.4-0.4,1,0,1.4l2.2,2.2l-2.2,2.2c-0.4,0.4-0.4,1,0,1.4c0.4,0.4,1,0.4,1.4,0l2.2-2.2l2.2,2.2c0.4,0.4,1,0.4,1.4,0
				c0.4-0.4,0.4-1,0-1.4L27.1,23.5z"/>
			<g>
				<path fill="#F3705A" d="M12,9.9l2.2-2.2c0.4-0.4,0.4-1,0-1.4c-0.4-0.4-1-0.4-1.4,0l-2.2,2.2L8.4,6.3C8,5.9,7.4,5.9,7,6.3
					c-0.4,0.4-0.4,1,0,1.4l2.2,2.2L7,12.1c-0.4,0.4-0.4,1,0,1.4c0.4,0.4,1,0.4,1.4,0l2.2-2.2l2.2,2.2c0.4,0.4,1,0.4,1.4,0
					c0.4-0.4,0.4-1,0-1.4L12,9.9z"/>
			</g>
		</g>
		<g>
			<g>
				<path fill="#F3705A" d="M18.1,38.7c-2.5,0-4.5-2-4.5-4.5s2-4.5,4.5-4.5s4.5,2,4.5,4.5S20.5,38.7,18.1,38.7z M18.1,31.8
					c-1.4,0-2.5,1.1-2.5,2.5c0,1.4,1.1,2.5,2.5,2.5s2.5-1.1,2.5-2.5C20.5,32.9,19.4,31.8,18.1,31.8z"/>
			</g>
		</g>
	</g>
</g>
</svg>
