<?xml version="1.0" encoding="utf-8"?>
<!-- Generator: Adobe Illustrator 18.0.0, SVG Export Plug-In . SVG Version: 6.00 Build 0)  -->
<!DOCTYPE svg PUBLIC "-//W3C//DTD SVG 1.1//EN" "http://www.w3.org/Graphics/SVG/1.1/DTD/svg11.dtd">
<svg version="1.1" id="Layer_1" xmlns="http://www.w3.org/2000/svg" xmlns:xlink="http://www.w3.org/1999/xlink" x="0px" y="0px"
	 viewBox="0 0 48 48" enable-background="new 0 0 48 48" xml:space="preserve">
<g>
	<g>
		<g>
			<g>
				<g>
					<g>
						<path fill="#FFD15C" d="M24.7,3.3h-1.3L5.7,39.2c12.2,7.9,24.4,7.9,36.6,0L24.7,3.3z"/>
					</g>
				</g>
				<g>
					<polygon fill="#344A5E" points="19.9,17.2 22,18.3 21.6,16 23.3,14.4 21,14 19.9,11.9 18.9,14 18,14.2 17.5,15.2 18.3,16 
						17.9,18.3 					"/>
				</g>
				<g>
					<polygon fill="#FFFFFF" points="27.2,18.6 28.9,17.8 30.5,18.6 30.2,16.8 30.9,16.1 30.6,15.4 29.7,15.2 28.9,13.6 28.1,15.2 
						26.2,15.5 27.6,16.8 					"/>
				</g>
				<g>
					<g>
						<path fill="#F3F3F3" d="M24,48c-6.8,0-13.6-1.3-20-4c-1.4-0.6-2.1-2.3-1.5-3.7c0.6-1.5,2.3-2.1,3.7-1.5
							c11.5,4.8,24.2,4.8,35.7,0c1.4-0.6,3.1,0.1,3.7,1.5c0.6,1.4-0.1,3.1-1.5,3.7C37.6,46.7,30.8,48,24,48z"/>
					</g>
				</g>
			</g>
			<g>
				<g>
					<path fill="#344A5E" d="M32.5,17.8c0,0-0.3,0-0.9-0.2c-0.6-0.2-1.3-0.6-2-1.2c-0.7-0.6-1.5-1.5-2.1-2.5c-0.3-0.5-0.5-1.3-0.5-2
						c0.1-0.7,0.2-1.2,0.2-1.7c0-0.9-0.6-1.8-1.4-2.2c-0.4-0.2-1-0.4-1.5-0.8c-0.5-0.4-0.9-0.9-1.1-1.4c-0.5-1-0.2-2.1,0-2.6
						c0.3-0.6,0.6-0.9,0.6-0.9l1,0.9c0,0-0.2,0.2-0.3,0.5c-0.2,0.4-0.3,0.9,0,1.6c0.1,0.3,0.4,0.6,0.7,0.8c0.3,0.2,0.8,0.4,1.3,0.6
						c1.2,0.6,2.2,1.9,2.2,3.4c0,0.7-0.2,1.3-0.2,1.8c0,0.5,0.1,0.8,0.3,1.3c0.5,0.9,1.2,1.6,1.8,2.2c0.6,0.5,1.2,0.8,1.6,1
						c0.4,0.1,0.7,0.2,0.7,0.2s-0.5,0.1-1.1,0c-0.6-0.1-1.2-0.3-1.2-0.3s0.4,0.5,0.9,0.9C31.8,17.5,32.5,17.8,32.5,17.8z"/>
				</g>
			</g>
			<g>
				<g>
					<path fill="#66C6B9" d="M34.7,11.6c0,0-0.2,0-0.6-0.1c-0.4-0.1-1-0.2-1.7-0.4c-0.7-0.2-1.6-0.5-2.4-1.1
						c-0.8-0.5-1.6-1.3-2.1-2.3c-0.5-0.9-0.7-1.9-1-2.8c-0.3-0.9-0.4-1.6-0.7-1.8c-0.3-0.2-0.8-0.2-1-0.1c-0.2,0.1-0.3,0.2-0.3,0.2
						l-1-0.9c0,0,0.2-0.3,0.8-0.5c0.5-0.2,1.4-0.3,2.3,0.3c0.4,0.3,0.7,0.8,0.9,1.3c0.2,0.5,0.2,0.9,0.4,1.3
						c0.3,0.8,0.5,1.7,0.9,2.5c0.7,1.5,2.4,2.3,3.7,2.7c0.7,0.2,1.2,0.3,1.6,0.4c0.4,0.1,0.6,0.1,0.6,0.1s-0.5,0.1-1,0.1
						c-0.5,0.1-1,0.1-1,0.1s0.4,0.3,0.9,0.5C34.2,11.3,34.7,11.6,34.7,11.6z"/>
				</g>
			</g>
			<g>
				<g>
					<g>
						<path fill="#F3705A" d="M16.8,12.5c0,0,0.7-0.3,1.6-1c0.5-0.4,1-0.9,1.6-1.4c0.6-0.5,1-1,1.1-1.7c0.1-0.7,0.1-1.5,0-2.3
							c0-0.8,0.1-1.7,0.3-2.4c0.3-0.7,0.6-1.2,0.9-1.5c0.3-0.3,0.5-0.5,0.5-0.5l0.9,1c0,0-0.1,0.1-0.3,0.3c-0.2,0.2-0.5,0.6-0.7,1.1
							c-0.2,0.5-0.3,1.1-0.2,1.9c0,0.7,0.1,1.6-0.1,2.6c-0.1,0.5-0.3,1-0.6,1.4c-0.3,0.4-0.6,0.7-0.9,1c-0.6,0.5-1.1,1-1.6,1.5
							c-1,0.8-1.9,1.2-1.9,1.2s0.4-0.3,0.7-0.7c0.3-0.4,0.5-0.8,0.5-0.8s-0.4,0.1-0.9,0.2C17.2,12.5,16.8,12.5,16.8,12.5z"/>
					</g>
				</g>
			</g>
			<g>
				<g>
					<circle fill="#F3F3F3" cx="24" cy="2.9" r="2.9"/>
				</g>
			</g>
			<g>
				<polygon fill="#F3705A" points="14.9,33.2 15.8,35.1 17.9,35.4 16.4,36.9 16.8,38.9 14.9,38 13.1,38.9 13.4,36.9 11.9,35.4 
					14,35.1 				"/>
			</g>
			<g>
				<polygon fill="#66C6B9" points="19.3,21.1 20.7,23.9 23.9,24.4 21.6,26.6 22.1,29.8 19.3,28.3 16.5,29.8 17,26.6 14.7,24.4 
					17.9,23.9 				"/>
			</g>
			<g>
				<polygon fill="#F3705A" points="28.4,22.3 29,23.4 30.3,23.6 29.3,24.5 29.6,25.8 28.4,25.2 27.2,25.8 27.5,24.5 26.5,23.6 
					27.8,23.4 				"/>
			</g>
			<g>
				<polygon fill="#F3705A" points="25,30.3 26.4,33.2 29.6,33.7 27.3,35.9 27.8,39.1 25,37.6 22.1,39.1 22.7,35.9 20.4,33.7 
					23.6,33.2 				"/>
			</g>
			<g>
				<polygon fill="#66C6B9" points="34.9,32.4 35.7,34 37.6,34.3 36.3,35.6 36.6,37.5 34.9,36.6 33.3,37.5 33.6,35.6 32.2,34.3 
					34.1,34 				"/>
			</g>
			<g>
				<polygon fill="#344A5E" points="34.3,25.8 34.7,26.7 35.7,26.8 35,27.5 35.2,28.5 34.3,28 33.4,28.5 33.6,27.5 32.9,26.8 
					33.8,26.7 				"/>
			</g>
			<g>
				<polygon fill="#66C6B9" points="24,8.8 24.5,9.9 25.7,10.1 24.9,10.9 25.1,12.1 24,11.5 22.9,12.1 23.1,10.9 22.3,10.1 
					23.5,9.9 				"/>
			</g>
			<g>
				<polygon fill="#344A5E" points="11.8,32.7 11.6,31.1 12.7,30.1 11.1,29.8 10.7,29 9.2,32.2 9.1,32.7 10.5,31.9 				"/>
			</g>
		</g>
		<g>
			<polygon fill="#FFFFFF" points="29.8,28.9 30.2,29.8 31.1,29.9 30.5,30.6 30.6,31.5 29.8,31 29,31.5 29.1,30.6 28.5,29.9 
				29.4,29.8 			"/>
		</g>
		<g>
			<polygon fill="#FFFFFF" points="24.3,19.5 24.8,20.4 25.8,20.6 25.1,21.3 25.3,22.3 24.3,21.8 23.4,22.3 23.6,21.3 22.8,20.6 
				23.9,20.4 			"/>
		</g>
		<g>
			<polygon fill="#FFFFFF" points="19,37.8 19.6,39 21,39.2 20,40.2 20.2,41.5 19,40.9 17.8,41.5 18,40.2 17.1,39.2 18.4,39 			"/>
		</g>
	</g>
</g>
</svg>
