<?xml version="1.0" encoding="utf-8"?>
<!-- Generator: Adobe Illustrator 19.0.1, SVG Export Plug-In . SVG Version: 6.00 Build 0)  -->
<svg version="1.1" id="Layer_1" xmlns="http://www.w3.org/2000/svg" xmlns:xlink="http://www.w3.org/1999/xlink" x="0px" y="0px"
	 viewBox="0 0 48 48" style="enable-background:new 0 0 48 48;" xml:space="preserve">
<style type="text/css">
	.st0{fill:#66C6B9;}
	.st1{fill:#F3F3F3;}
	.st2{fill:#415A6B;}
	.st3{fill:#CED6E0;}
	.st4{fill:#F3705A;}
	.st5{fill:#E8EAE9;}
	.st6{fill:#4ABAA5;}
	.st7{fill:#F05540;}
	.st8{fill:#FFD15C;}
	.st9{fill:#55C0EB;}
	.st10{fill:#8AD7F8;}
	.st11{fill:#344A5E;}
	.st12{fill:#FFFFFF;}
	.st13{fill:#F7B64C;}
	.st14{fill:#ADB3BA;}
	.st15{fill:#38A892;}
	.st16{fill:#ED9845;}
	.st17{fill:#2D4251;}
	.st18{fill:#304556;}
	.st19{fill:#A5AAAD;}
	.st20{fill:#2D4456;}
	.st21{fill:#4FB0E0;}
	.st22{fill:#2D4354;}
	.st23{fill:#E54C38;}
	.st24{fill:#2B4456;}
	.st25{fill:#2B404F;}
</style>
<g>
	<g>
		<g>
			<g>
				<path class="st8" d="M33.8,18.8c0,0-0.1,3.1-0.1,3.7c0,0.6,0.1,1.4,0.4,2c0.3,0.6,0.3,0.7,0.3,0.7L29.1,29c0,0-2.5-1.4-2.5-1.4
					c0,0,0.5-2.9,0.5-2.9s-1.6-1.6-2-3.4c-0.4-1.8-0.3-2.1-0.3-2.1s-0.8-2.3-0.5-3.9c0.3-1.6,1.9-2.7,2.2-2.8s2.4-0.4,2.8-0.4
					s2.4,0.5,3.1,1.8S33.8,18.8,33.8,18.8z"/>
			</g>
		</g>
		<g>
			<g>
				<ellipse transform="matrix(0.9852 0.1713 -0.1713 0.9852 3.5958 -5.541)" class="st8" cx="33.9" cy="18.1" rx="0.9" ry="1.8"/>
			</g>
		</g>
		<g>
			<g>
				<path class="st2" d="M24.9,19.2c0,0-0.3-1.2-0.3-2.3c0-1,0.1-1.5,0.2-1.7s3.6,0.2,5.4-0.6s1.5,0.8,1.9,1.5
					c0.4,0.7,0.6,1.1,0.8,1.9c0.2,0.8,0.1,1.1,0.1,1.1h0.2c0,0,0.4-1.2,0.9-2.1c0.4-0.8,0.7-2.7-0.5-4.5c-1.1-1.8-3.6-2.5-5.1-2.4
					c-1.5,0.1-2.9,1.2-3.8,2.7s-1,2.5-0.6,4.2C24.4,18.9,24.9,18.9,24.9,19.2z"/>
			</g>
		</g>
		<g>
			<path class="st13" d="M33.3,21.6c0,0-1.7,3.5-3.5,4.1c-1.8,0.5-2.7-1-2.7-1s-0.5,2.9-0.5,2.9c0,0,1,0.6,1.7,1
				c0.3-0.2,0.6-0.5,0.9-0.8C32.5,24.9,33.3,21.6,33.3,21.6z"/>
		</g>
		<g>
			<g>
				<path class="st3" d="M29.1,26.8l3.9,1.1L22.6,38.2l2.9-13.4l1.6,0.6C27.1,25.3,27.6,26.8,29.1,26.8z"/>
			</g>
		</g>
		<g>
			<g>
				<path class="st7" d="M27.9,28.6c0,0,0.2,1-0.2,2.6c-0.3,1.6-3.7,5.3-3.7,5.3s0.8-4.4,1.3-5.4c0.5-1,1.2-2.6,1.2-2.9
					C26.7,27.8,27.9,27.9,27.9,28.6z"/>
			</g>
		</g>
		<g>
			<g>
				<path class="st4" d="M28.9,26.6c-0.5-0.1-1.1-0.6-1.1-0.6l-0.4-0.3l-0.6-0.3c0,0-0.1,0.1-0.1,0.1c0,0-0.1,0-0.1,0.1
					c0,0.1,0,0.2,0.1,0.3c0.1,0.6,0,2.4,0,2.4c0.5,0,1.3,0.4,1.3,0.4c0.6-0.5,2-1.1,2-1.1S29.4,26.6,28.9,26.6z"/>
			</g>
		</g>
		<g>
			<g>
				<path class="st1" d="M33.8,23.4c0,0-0.4,0.8-1.2,1.3c-0.8,0.5-3.8,1.8-3.8,1.8s1.1,0.9,1.1,2.2l4.4-4.1L33.8,23.4z"/>
			</g>
		</g>
		<g>
			<g>
				<path class="st1" d="M27.3,25.8c-0.1-0.1-0.1-0.1-0.1-0.2c0,0-0.8,0-1.1,1.6c0,0-0.1,0.1-0.1-0.2c0-0.4,0.3-1.2,0.5-1.7
					c0.2-0.5,0.3-1,0.3-1l0.4,0.4c0,0,0.2,0.9,0.7,1.3l0,0C27.6,25.9,27.4,25.9,27.3,25.8z"/>
			</g>
		</g>
		<g>
			<g>
				<g>
					<path class="st11" d="M21.8,48c0.5-1.7,2.5-9.9,2.5-12.8c0-4.4,1.5-9,2.3-11.2c-0.2-0.3-0.5-0.7-0.8-1.2
						c-0.8,0.1-1.8,0.3-2.4,0.3c-1.1,0-1.5-0.1-2.2,0.8c-0.7,0.9-2.8,18.2-3.5,20.8c-0.5,1.8-0.8,2.8-1,3.3H21.8z"/>
				</g>
			</g>
			<g>
				<g>
					<path class="st8" d="M20.3,44.7l6.9,0.8l-3.2-3.3C24.1,42.2,21.8,42.4,20.3,44.7z"/>
				</g>
			</g>
			<g>
				<g>
					<path class="st17" d="M22.1,23.8l-0.7-0.4c0,0-1.2,0.8-1.7,2.5c-0.5,1.7-1.5,4.7-2.3,5.7c-0.8,1-1.4,0.9-2.2,2.2
						s-1.5,2.2-1.9,2.8c-0.4,0.6-1.2,2.1-1.3,2.9s0.8,1.6,1.8,2c1,0.5,7.1,4.4,7.1,4.4s0.4-1.9,1-3.1c0.6-1.2,0.8-1.7,0.8-1.7
						c0-0.1-3.8-3.3-3.8-3.3s1.1-0.2,1.8-1.8s0.5-5.2,0.7-6.9C21.5,27.4,22.1,23.8,22.1,23.8z"/>
				</g>
			</g>
			<g>
				<g>
					<path class="st2" d="M26.9,24.5c-0.1,0.3-0.3,0.5-0.3,0.5s-0.8,2.2-1.1,3.8c-0.3,1.6-1,6.2-1,6.2l-2.3,8.1c0,0,0.6-10,0.6-11.9
						c0.1-1.9,0.9-4.2,1.5-5.2c0.5-1,1.8-1.7,1.8-1.7v-0.4l0.2-0.1C26.6,24.1,26.8,24.3,26.9,24.5z"/>
				</g>
			</g>
			<g>
				<g>
					<path class="st8" d="M19,32.4c0.1,0.2,0.3,0.6,0.6,1.2c1.1-0.5,2.2-1,3.4-1.4c0,0,0-0.1,0-0.1c-0.3-0.9-0.4-0.8-0.3-1.6
						c0.1-0.8,0-2.4-0.2-3.1c-0.2-0.7-0.3-1.3-0.4-1.7c-0.1-0.4-0.1-1.4-0.2-2.2c-0.1-0.8-0.5-2.2-0.7-2.6c-0.3-0.3-0.8-0.2-0.8,0.1
						c0,0.4,0.2,1.1,0.2,1.6c0.1,0.4,0.1,2.1,0.1,2.4c0,0.3,0,0.5-0.2,0.5c-0.1,0-0.2-0.1-0.3-0.4c-0.2-0.3-0.4-0.7-0.8-0.7
						c-0.4,0-0.7,0.4-0.7,0.6c0,0.2,0.1,1,0.1,1s-0.4-0.1-0.7,0.3c-0.2,0.3-0.1,0.5-0.1,0.7c-0.1-0.1-0.3-0.3-0.5-0.2
						c-0.3,0-0.5,0.4-0.5,0.6c0,0.2-0.1,1.2,0.4,2.5C17.8,31.3,18.6,31.8,19,32.4z"/>
				</g>
			</g>
			<g>
				<g>
					<path class="st1" d="M23.7,34.9l-0.9-3.1c0,0-2.8,0.9-4.1,1.8l1.3,4.3L23.7,34.9z"/>
				</g>
			</g>
			<g>
				<g>
					<path class="st11" d="M39.5,28.7c-1-1.4-4.3-4.2-4.3-4.2l-1.4-1c0.2,1.7-4.3,6-7.5,9.7c-0.8,1.3-1.4,2.7-2.2,4.1
						c-1.1,3.8-2.4,9.5-2.7,10.9h14.3c0-1.2,0.2-5.7,1.4-7.6c1.4-2.2,2.9-2.6,3.5-6.2C41.2,30.6,40.5,30.1,39.5,28.7z"/>
				</g>
			</g>
		</g>
		<g>
			<g>
				<g>
					<path class="st8" d="M34.1,42.6c0,0,0.6,0.5,0.8,0.9c0.2,0.4,0.2,0.6,0,0.8c-0.1,0.2-0.7,0.5-0.7,0.5s0.1,0.4,0.1,0.7
						s-0.3,0.5-0.6,0.4c0,0,0,0.5-0.3,0.7c-0.4,0.2-1-0.1-1-0.1s0.1,0.5-0.3,0.6c-0.4,0.1-1.1-0.1-1.3-0.3c-0.2-0.3-0.2-0.3-0.2-0.3
						s-1,0.1-1.6-0.3c-0.6-0.4-0.6-0.4-0.6-0.4L34.1,42.6z"/>
				</g>
			</g>
			<g>
				<g>
					<g>
						<path class="st13" d="M34.3,44.7c0,0-0.1-0.1-0.2-0.2c-0.1-0.1-0.2-0.3-0.3-0.5c-0.1-0.2-0.2-0.3-0.3-0.5
							c-0.1-0.1-0.1-0.2-0.1-0.2s0.1,0.1,0.2,0.2c0.1,0.1,0.2,0.3,0.4,0.5c0.1,0.2,0.2,0.4,0.3,0.5C34.2,44.6,34.3,44.7,34.3,44.7z"
							/>
					</g>
				</g>
				<g>
					<g>
						<path class="st13" d="M33.8,45.8c0,0-0.1-0.1-0.2-0.2c0-0.1-0.1-0.1-0.2-0.2c-0.1-0.1-0.1-0.2-0.2-0.2
							c-0.1-0.1-0.1-0.2-0.2-0.2c0,0-0.1-0.1-0.1-0.1c0,0-0.1-0.1-0.1-0.1c-0.1-0.1-0.1-0.1-0.1-0.1c0,0-0.1-0.1-0.1-0.1s0,0,0.1,0
							c0,0,0.1,0.1,0.2,0.1c0.1,0,0.1,0.1,0.2,0.2c0.1,0.1,0.1,0.1,0.2,0.2c0.1,0.1,0.1,0.2,0.2,0.2c0.1,0.1,0.1,0.2,0.1,0.2
							C33.7,45.7,33.8,45.8,33.8,45.8z"/>
					</g>
				</g>
				<g>
					<g>
						<path class="st13" d="M32.5,46.4c0,0,0-0.1-0.1-0.1c-0.1-0.1-0.1-0.2-0.2-0.3c-0.1-0.1-0.2-0.2-0.2-0.3c0,0-0.1-0.1-0.1-0.1
							c0,0,0,0,0,0s0,0,0,0c0,0,0.1,0,0.1,0.1c0,0,0.1,0.1,0.1,0.1c0,0,0.1,0.1,0.1,0.2c0.1,0.1,0.1,0.2,0.2,0.3
							C32.5,46.3,32.5,46.4,32.5,46.4z"/>
					</g>
				</g>
			</g>
		</g>
		<g>
			<g>
				<path class="st2" d="M33.8,23.4c0,0,1.6,1.3,1.4,2.4c-0.2,1.1-0.7,1.9-0.7,1.9l-1.2-0.2l0.4,1.5c0,0-4.8,3.2-6.4,4.2
					c-1.6,1.1-4.3,8.1-5.1,9.9c0,0,1-5.5,2-8.2c1.1-2.7,7.2-8.5,7.2-8.5S33.5,24.5,33.8,23.4z"/>
			</g>
		</g>
		<g>
			<g>
				<path class="st2" d="M31.6,34.8c0,0,0.1-1.4,1.9-2.8c1.7-1.5,3.5-2.9,5.3-3c1.8,0,2.6,2,2.1,4.7c-0.5,2.7-2.8,5.6-4.3,7.1
					c-1.5,1.4-5.5,4.8-7.7,5.6c-2.2,0.7-3,1.4-3.7,1.5s-1.3-0.1-1.8-0.9s-5.1-8.5-5.1-8.5s1.7-1.5,3.1-2.6c1.4-1,2.4-1.2,2.4-1.2
					s2.3,4.4,2.5,5.3c0,0,0-0.4,0.7-1.1c0.8-0.7,1.1-0.7,1.7-1.5C29.2,36.6,31.6,34.8,31.6,34.8z"/>
			</g>
		</g>
	</g>
	<g>
		<g>
			<g>
				<g>
					<path class="st11" d="M14.4,19.4c0.2,0.6,0.7,1.1,1.4,1.1s1.2-0.5,1.4-1.1H14.4z"/>
				</g>
			</g>
			<g>
				<g>
					<rect x="13.7" y="16.7" class="st11" width="4.3" height="1.9"/>
				</g>
			</g>
			<g>
				<g>
					<path class="st5" d="M13.7,15.8h4.2c0.2-1.1,0.8-2.2,1.7-3c1.1-1.1,1.8-2.6,1.7-4.3c-0.2-2.7-2.4-5-5.1-5.1
						c-3.2-0.2-5.8,2.3-5.8,5.5c0,1.5,0.6,2.9,1.7,3.9C12.9,13.6,13.5,14.6,13.7,15.8z"/>
				</g>
			</g>
			<g>
				<g>
					<path class="st14" d="M15.8,14c-0.3,0-0.5,0.2-0.5,0.5v1.3h1v-1.3C16.3,14.2,16.1,14,15.8,14z"/>
				</g>
			</g>
			<g>
				<g>
					<g>
						<path class="st2" d="M18.1,16.7h-4.6c-0.2,0-0.3-0.1-0.3-0.3v-0.3c0-0.2,0.1-0.3,0.3-0.3h4.6c0.2,0,0.3,0.1,0.3,0.3v0.3
							C18.4,16.6,18.3,16.7,18.1,16.7z"/>
					</g>
				</g>
				<g>
					<g>
						<path class="st2" d="M18.1,18.2h-4.6c-0.2,0-0.3-0.1-0.3-0.3v-0.3c0-0.2,0.1-0.3,0.3-0.3h4.6c0.2,0,0.3,0.1,0.3,0.3v0.3
							C18.4,18,18.3,18.2,18.1,18.2z"/>
					</g>
				</g>
				<g>
					<g>
						<path class="st2" d="M18.1,19.6h-4.6c-0.2,0-0.3-0.1-0.3-0.3V19c0-0.2,0.1-0.3,0.3-0.3h4.6c0.2,0,0.3,0.1,0.3,0.3v0.3
							C18.4,19.4,18.3,19.6,18.1,19.6z"/>
					</g>
				</g>
			</g>
			<g>
				<g>
					<g>
						<g>
							<path class="st14" d="M15.8,10c-0.3,0-0.6-0.1-0.8-0.2c-0.4-0.2-0.9-0.3-1.3-0.3c-0.1,0-0.2-0.1-0.2-0.2s0.1-0.2,0.2-0.2
								c0.5,0,1.1,0.1,1.5,0.4c0.4,0.2,0.9,0.2,1.3,0c0.5-0.3,1-0.4,1.5-0.4c0.1,0,0.2,0.1,0.2,0.2c0,0.1-0.1,0.2-0.2,0.2
								c0,0,0,0,0,0c-0.5,0-0.9,0.1-1.3,0.3C16.4,9.9,16.1,10,15.8,10z"/>
						</g>
					</g>
				</g>
				<g>
					<g>
						<g>
							<g>
								<path class="st14" d="M16.1,14.5h-0.7c-0.1,0-0.1,0-0.2-0.1c0-0.1-1-1.8-1.3-5c0-0.1,0.1-0.2,0.2-0.2c0.1,0,0.2,0.1,0.2,0.2
									c0.3,2.8,1,4.4,1.2,4.8H16c0.2-0.4,0.9-2,1.2-4.8c0-0.1,0.1-0.2,0.2-0.2c0.1,0,0.2,0.1,0.2,0.2c-0.3,3.3-1.3,5-1.3,5
									C16.3,14.5,16.2,14.5,16.1,14.5z"/>
							</g>
						</g>
					</g>
				</g>
			</g>
		</g>
		<g>
			<g>
				<path class="st5" d="M15.8,0c-0.3,0-0.5,0.2-0.5,0.5v1.3c0,0.3,0.2,0.5,0.5,0.5s0.5-0.2,0.5-0.5V0.5C16.3,0.2,16.1,0,15.8,0z"/>
			</g>
		</g>
		<g>
			<g>
				<path class="st5" d="M9.6,2.6c-0.2,0.2-0.2,0.5,0,0.7l0.9,0.9c0.2,0.2,0.5,0.2,0.7,0c0.2-0.2,0.2-0.5,0-0.7l-0.9-0.9
					C10.1,2.4,9.8,2.4,9.6,2.6z"/>
			</g>
		</g>
		<g>
			<g>
				<path class="st5" d="M7,8.8C7,9,7.3,9.3,7.5,9.3h1.3c0.3,0,0.5-0.2,0.5-0.5S9.1,8.3,8.8,8.3H7.5C7.3,8.3,7,8.5,7,8.8z"/>
			</g>
		</g>
		<g>
			<g>
				<path class="st5" d="M9.6,15c0.2,0.2,0.5,0.2,0.7,0l0.9-0.9c0.2-0.2,0.2-0.5,0-0.7c-0.2-0.2-0.5-0.2-0.7,0l-0.9,0.9
					C9.4,14.5,9.4,14.8,9.6,15z"/>
			</g>
		</g>
		<g>
			<g>
				<path class="st5" d="M22,15c0.2-0.2,0.2-0.5,0-0.7l-0.9-0.9c-0.2-0.2-0.5-0.2-0.7,0c-0.2,0.2-0.2,0.5,0,0.7l0.9,0.9
					C21.5,15.2,21.8,15.2,22,15z"/>
			</g>
		</g>
		<g>
			<g>
				<path class="st5" d="M24.6,8.8c0-0.3-0.2-0.5-0.5-0.5h-1.3c-0.3,0-0.5,0.2-0.5,0.5s0.2,0.5,0.5,0.5h1.3
					C24.4,9.3,24.6,9,24.6,8.8z"/>
			</g>
		</g>
		<g>
			<g>
				<path class="st5" d="M22,2.6c-0.2-0.2-0.5-0.2-0.7,0l-0.9,0.9c-0.2,0.2-0.2,0.5,0,0.7c0.2,0.2,0.5,0.2,0.7,0L22,3.3
					C22.2,3.1,22.2,2.8,22,2.6z"/>
			</g>
		</g>
	</g>
</g>
</svg>
