<?xml version="1.0" encoding="utf-8"?>
<!-- Generator: Adobe Illustrator 18.0.0, SVG Export Plug-In . SVG Version: 6.00 Build 0)  -->
<!DOCTYPE svg PUBLIC "-//W3C//DTD SVG 1.1//EN" "http://www.w3.org/Graphics/SVG/1.1/DTD/svg11.dtd">
<svg version="1.1" id="Layer_1" xmlns="http://www.w3.org/2000/svg" xmlns:xlink="http://www.w3.org/1999/xlink" x="0px" y="0px"
	 viewBox="0 0 48 48" enable-background="new 0 0 48 48" xml:space="preserve">
<g>
	<g>
		<g>
			<g>
				<g>
					<path fill="#344A5E" d="M48,23.3L47.5,21c-0.3-1.5-1.3-2.7-2.8-3.3L41,16.1l-4.4,1.4l-4.4-1.4l-3.8,1.5
						c-1.4,0.6-2.4,1.8-2.8,3.3l-0.5,2.3H48z"/>
				</g>
				<g>
					<g>
						<g>
							<polygon fill="#CED6E0" points="39.2,23.3 39.3,16.7 36.6,17.5 34,16.7 34.1,23.3 							"/>
						</g>
						<g>
							<polygon fill="#F3705A" points="34.6,23.3 38.6,23.3 37.4,19.9 38.1,19 36.6,17.5 35.1,19 35.9,19.9 							"/>
						</g>
						<g>
							<g>
								<path fill="#E8EAE9" d="M36.6,17.5c0,0,2.6-1.7,2.8-3.2l1,1.7l-1.8,4L36.6,17.5z"/>
							</g>
							<g>
								<polygon fill="#415A6B" points="40.2,23.3 42.5,19.1 41,18.4 42.6,17.7 40,15.2 38.1,23.3 								"/>
							</g>
						</g>
						<g>
							<g>
								<path fill="#E8EAE9" d="M36.6,17.5c0,0-2.6-1.7-2.8-3.2l-1,1.7l1.8,4L36.6,17.5z"/>
							</g>
							<g>
								<polygon fill="#415A6B" points="30.7,19.1 33.1,23.3 35.2,23.3 33.2,15.2 30.6,17.7 32.2,18.4 								"/>
							</g>
						</g>
					</g>
					<g>
						<path fill="#F7B64C" d="M33.8,12.5v1.8c0.2,1.5,2.8,3.2,2.8,3.2s2.6-1.7,2.8-3.2l0-1.8H33.8z"/>
					</g>
					<g>
						<g>
							<path fill="#415A6B" d="M36.6,8.3c0,2.4-1,4.3-2.3,4.3c-1.3,0-2.3-1.9-2.4-4.3c-0.1-2.5,0.9-4.6,2.3-4.6S36.6,5.8,36.6,8.3z"
								/>
							<g>
								<path fill="#415A6B" d="M41.6,7.8c-0.1,2.6-2.1,4.7-4.3,4.7c-2.3,0-4.2-2-4.3-4.7c-0.1-2.8,1.9-5.1,4.4-5.1S41.8,5,41.6,7.8
									z"/>
							</g>
						</g>
						<g>
							<path fill="#FFD15C" d="M40.8,8c-1.9-0.2-3.9-0.9-5.6-2c-0.8,1.2-1.7,2.2-2.9,2.8c0,0.3-0.1,0.7,0,1c0.1,3.1,2.1,5.5,4.4,5.5
								c2.3,0,4.2-2.4,4.4-5.5C41,9.2,41,8.6,40.8,8z"/>
						</g>
						<g>
							<g>
								<g>
									<path fill="#FFD15C" d="M41.6,10.4c-0.2,0.9-0.8,1.5-1.3,1.4c-0.5-0.1-0.7-0.8-0.5-1.7c0.2-0.9,0.8-1.5,1.3-1.4
										C41.7,8.8,41.9,9.6,41.6,10.4z"/>
								</g>
							</g>
							<g>
								<g>
									<path fill="#FFD15C" d="M31.6,10.4c0.2,0.9,0.8,1.5,1.3,1.4c0.5-0.1,0.7-0.8,0.5-1.7c-0.2-0.9-0.8-1.5-1.3-1.4
										C31.6,8.8,31.3,9.6,31.6,10.4z"/>
								</g>
							</g>
						</g>
					</g>
				</g>
			</g>
			<g>
				<g>
					<g>
						<g>
							<path fill="#F3705A" d="M18.4,20.9H1.7l0,0c1.6-2.4,2.5-5.2,2.5-8.1V8.6c0-3.3,2.6-5.9,5.9-5.9h0c3.3,0,5.9,2.6,5.9,5.9v4.3
								C15.9,15.7,16.8,18.5,18.4,20.9L18.4,20.9z"/>
						</g>
						<g>
							<path fill="#344A5E" d="M10.1,23.7l-3.9-6.4l-2.9,1C1.3,19,0,20.8,0,22.8v0.9H10.1z"/>
						</g>
						<g>
							<path fill="#344A5E" d="M20.1,23.7v-0.9c0-2-1.3-3.8-3.2-4.5l-2.9-1l-3.9,6.4H20.1z"/>
						</g>
						<g>
							<polygon fill="#CED6E0" points="10.1,23.7 13.8,18 7.1,18 10.1,23.7 							"/>
						</g>
						<g>
							<polygon fill="#F3F3F3" points="12.9,15.7 10.1,18 12.5,20.8 13.8,17.4 							"/>
						</g>
						<g>
							<polygon fill="#F3F3F3" points="7.2,15.7 6.4,17.4 7.6,20.8 10.1,18 							"/>
						</g>
						<g>
							<polygon fill="#F7B64C" points="12.9,13.2 10.1,10.9 7.2,13.2 7.2,15.7 10.1,18 12.9,15.7 							"/>
						</g>
						<g>
							<path fill="#FFD15C" d="M14.3,7.7C12.8,8.6,11,9,9.2,9C8,9,6.8,8.8,5.7,8.5c0,0.2,0,0.9,0,1c0,3.8,1.9,6.9,4.4,6.9
								s4.4-3.1,4.4-6.9c0-0.1,0-0.3,0-0.4C14.4,8.8,14.4,7.9,14.3,7.7z"/>
						</g>
						<g>
							<polygon fill="#415A6B" points="5,21.1 10.1,23.7 10.1,23.7 6.9,16.3 4.6,19.3 6.4,19.5 							"/>
						</g>
						<g>
							<polygon fill="#415A6B" points="10.1,23.7 15.1,21.1 13.8,19.5 15.5,19.3 13.3,16.3 10.1,23.7 							"/>
						</g>
					</g>
				</g>
			</g>
		</g>
		<path fill="#F3F3F3" d="M24,39.9c-6.3,0-11.3-5.1-11.3-11.3c0-6.3,5.1-11.3,11.3-11.3c6.2,0,11.3,5.1,11.3,11.3
			C35.3,34.8,30.2,39.9,24,39.9z"/>
		<g>
			<g>
				<g>
					<path fill="#344A5E" d="M33.5,35.4c-0.1-0.8-1.3-1.1-2-1.4L28,32.8L24,34l-4-1.2l-3.5,1.3C15.5,34.4,14,35,14,36
						C13.9,41.2,34.5,40.5,33.5,35.4z"/>
				</g>
				<polygon fill="#CED6E0" points="26.3,39.3 26.4,33.3 24,34 21.6,33.3 21.7,39.3 				"/>
				<polygon fill="#F3705A" points="22.6,39.3 25.3,39.3 24.7,36.6 25.4,35.4 24,34 22.6,35.4 23.3,36.6 				"/>
				<path fill="#E8EAE9" d="M24,34c0,0,2.4-1.5,2.6-2.9l0.9,1.6l-1.7,3.7L24,34z"/>
				<polygon fill="#415A6B" points="27.3,39.3 29.5,35.5 28,34.8 29.5,34.2 27.1,31.9 25.3,39.3 				"/>
				<path fill="#E8EAE9" d="M24,34c0,0-2.4-1.5-2.6-2.9l-0.9,1.6l1.7,3.7L24,34z"/>
				<polygon fill="#415A6B" points="18.5,35.5 20.7,39.3 22.6,39.3 20.9,31.9 18.5,34.2 19.9,34.8 				"/>
				<path fill="#F7B64C" d="M21.4,29.4v1.7C21.6,32.4,24,34,24,34s2.4-1.5,2.6-2.9l0-1.7H21.4z"/>
				<g>
					<g>
						<path fill="#FFD15C" d="M27.3,24c-1.6,0-3.1-0.4-4.2-1.2c-0.7,1.2-1.7,2-2.9,2.3c-0.1,0.5-0.2,1-0.2,1.6c0,2.7,1.8,4.8,4,4.8
							c2.2,0,4-2.2,4-4.8C28,25.7,27.7,24.7,27.3,24z"/>
					</g>
					<path fill="#FFD15C" d="M24,20.6c-5.1,0-5.2,8,0,8C29.2,28.6,29.2,20.6,24,20.6z"/>
					<g>
						<path fill="#415A6B" d="M28.5,23.9c0,0.9-0.3,1.9-0.9,2.8c-0.1-0.8-0.2-2.1,0.1-2.6c0.4-0.7-0.3-1.3-1.1-1c-2.1,1.1-5,0-5,0
							c-0.8-0.3-1.5,0.3-1.1,1c0.3,0.5,0.3,1.8,0.1,2.6c-0.6-0.9-0.9-1.9-0.9-2.8c0-2.2,1.9-4,4.3-4C26.5,19.9,28.5,21.7,28.5,23.9z
							"/>
					</g>
					<g>
						<g>
							<g>
								<path fill="#FFD15C" d="M28.6,26.8c-0.2,0.8-0.7,1.4-1.1,1.4c-0.4-0.1-0.7-0.8-0.5-1.7c0.2-0.8,0.7-1.4,1.1-1.4
									C28.5,25.3,28.8,26,28.6,26.8z"/>
							</g>
						</g>
						<g>
							<g>
								<path fill="#FFD15C" d="M19.4,26.8c0.2,0.8,0.7,1.4,1.1,1.4c0.4-0.1,0.7-0.8,0.5-1.7c-0.2-0.8-0.7-1.4-1.1-1.4
									C19.5,25.3,19.2,26,19.4,26.8z"/>
							</g>
						</g>
					</g>
				</g>
			</g>
		</g>
		<g>
			<path fill="#8AD7F8" d="M39,36.8l1.7-4.6l-3.4-2.5c0.1-1.1,0.1-2.2-0.1-3.2l3.2-2.7l-2-4.4l-4.2,0.6c-0.7-0.8-1.5-1.5-2.4-2.2
				l0.3-4.2l-4.6-1.7l-2.5,3.4c-1.1-0.1-2.2-0.1-3.2,0.1l-2.7-3.2l-4.4,2l0.6,4.2c-0.8,0.7-1.5,1.5-2.2,2.3L9,20.4L7.3,25l3.4,2.5
				c-0.1,1.1,0,2.2,0.1,3.2l-3.2,2.7l2,4.4l4.1-0.6c0.7,0.8,1.5,1.6,2.4,2.2l-0.3,4.2l4.6,1.7l2.5-3.4c1.1,0.1,2.2,0.1,3.2-0.1
				l2.7,3.2l4.4-2l-0.6-4.1c0.8-0.7,1.5-1.5,2.2-2.4L39,36.8z M20.5,37.9c-5.2-1.9-7.8-7.7-5.9-12.8c1.9-5.2,7.7-7.8,12.8-5.9
				c5.2,1.9,7.8,7.7,5.9,12.8C31.4,37.2,25.7,39.9,20.5,37.9z"/>
		</g>
	</g>
</g>
</svg>
