<?xml version="1.0" encoding="utf-8"?>
<!-- Generator: Adobe Illustrator 20.1.0, SVG Export Plug-In . SVG Version: 6.00 Build 0)  -->
<!DOCTYPE svg PUBLIC "-//W3C//DTD SVG 1.1//EN" "http://www.w3.org/Graphics/SVG/1.1/DTD/svg11.dtd">
<svg version="1.1" id="Layer_1" xmlns="http://www.w3.org/2000/svg" xmlns:xlink="http://www.w3.org/1999/xlink" x="0px" y="0px"
	 viewBox="0 0 49 49" enable-background="new 0 0 49 49" xml:space="preserve">
<g>
	<path fill="#FF7058" d="M48.5,26c0,11.4-10.8,22.5-24,22.5S0.5,37.4,0.5,26C0.5,16.2,8.4,9.4,19,7.7c1.8-0.3,3.6-0.5,5.5-0.5
		s3.7,0.2,5.5,0.5C40.6,9.4,48.5,16.2,48.5,26z"/>
	<path fill="#FF6652" d="M27.5,45.5c-13.3,0-24-11.1-24-22.5c0-4,1.3-7.4,3.5-10.3C3,15.9,0.5,20.5,0.5,26c0,11.4,10.7,22.5,24,22.5
		c7.6,0,14.3-3.6,18.7-8.8C39,43.2,33.5,45.5,27.5,45.5z"/>
	<path fill="#F1543F" d="M30,7.7c0,1.1-2.5,2.1-5.5,2.1c-3,0-5.5-0.9-5.5-2.1c1.8-0.3,3.6-0.5,5.5-0.5S28.2,7.4,30,7.7z"/>
	<g>
		<path fill="#4CDBC4" d="M29,7.7l-4.5,0.7L20,7.7c-1.7-0.3-3.3-1-4.6-2.2c-2.9-2.8-1.1-5-1.1-5c-0.7,1.8,6.2,4.6,6.2,4.6
			c-2.5-4.9-0.8-4.6-0.8-4.6c-0.6,0.7,3.7,5.4,4.8,6.5c1-1.1,5.4-5.7,4.8-6.5c0,0,1.7-0.3-0.8,4.6c0,0,6.8-2.9,6.2-4.6
			c0,0,1.8,2.2-1.1,5C32.3,6.7,30.7,7.5,29,7.7z"/>
	</g>
</g>
</svg>
