<?xml version="1.0" encoding="utf-8"?>
<!-- Generator: Adobe Illustrator 18.0.0, SVG Export Plug-In . SVG Version: 6.00 Build 0)  -->
<!DOCTYPE svg PUBLIC "-//W3C//DTD SVG 1.1//EN" "http://www.w3.org/Graphics/SVG/1.1/DTD/svg11.dtd">
<svg version="1.1" id="Layer_1" xmlns="http://www.w3.org/2000/svg" xmlns:xlink="http://www.w3.org/1999/xlink" x="0px" y="0px"
	 viewBox="0 0 48 48" enable-background="new 0 0 48 48" xml:space="preserve">
<g>
	<g>
		<g>
			<g>
				<g>
					<path fill="#66C6B9" d="M22.4,9.5h-13c-1.6,0-2.9,1.3-2.8,2.9l1.5,32.8c0.1,1.5,1.3,2.7,2.8,2.7h10c1.5,0,2.7-1.2,2.8-2.7
						l1.5-32.8C25.3,10.9,24,9.5,22.4,9.5z"/>
				</g>
				<g>
					<rect x="10.9" y="4.5" fill="#344A5E" width="9.9" height="5.1"/>
				</g>
				<g>
					<ellipse fill="#F3F3F3" cx="15.9" cy="28.8" rx="5" ry="7.9"/>
				</g>
			</g>
		</g>
		<g>
			<g>
				<path fill="#4EC0AA" d="M28.3,34v11.9c0,1.1,0.9,2.1,2.1,2.1h8.9c1.1,0,2.1-0.9,2.1-2.1V34H28.3z"/>
			</g>
			<g>
				<rect x="34" y="7.5" fill="#344A5E" width="1.8" height="26.5"/>
			</g>
			<g>
				<path fill="#415A6B" d="M34.9,8.9L34.9,8.9c-0.9,0-1.6-0.7-1.6-1.6V1.6C33.3,0.7,34,0,34.9,0h0c0.9,0,1.6,0.7,1.6,1.6l0,5.8
					C36.4,8.2,35.7,8.9,34.9,8.9z"/>
			</g>
			<g>
				<g>
					<g>
						<g>
							<polygon fill="#415A6B" points="38,2.1 36,1.9 36,1.7 38,1.5 							"/>
						</g>
					</g>
					<g>
						<g>
							<polygon fill="#415A6B" points="38,3 36,2.8 36,2.6 38,2.4 							"/>
						</g>
					</g>
					<g>
						<g>
							<polygon fill="#415A6B" points="38,3.9 36,3.7 36,3.5 38,3.3 							"/>
						</g>
					</g>
					<g>
						<g>
							<polygon fill="#415A6B" points="38,4.8 36,4.6 36,4.4 38,4.2 							"/>
						</g>
					</g>
					<g>
						<g>
							<polygon fill="#415A6B" points="38,5.7 36,5.4 36,5.3 38,5 							"/>
						</g>
					</g>
					<g>
						<g>
							<polygon fill="#415A6B" points="38,6.6 36,6.3 36,6.2 38,5.9 							"/>
						</g>
					</g>
					<g>
						<g>
							<polygon fill="#415A6B" points="38,7.5 36,7.2 36,7.1 38,6.8 							"/>
						</g>
					</g>
				</g>
				<g>
					<g>
						<g>
							<polygon fill="#415A6B" points="31.7,2.1 33.7,1.9 33.7,1.7 31.7,1.5 							"/>
						</g>
					</g>
					<g>
						<g>
							<polygon fill="#415A6B" points="31.7,3 33.7,2.8 33.7,2.6 31.7,2.4 							"/>
						</g>
					</g>
					<g>
						<g>
							<polygon fill="#415A6B" points="31.7,3.9 33.7,3.7 33.7,3.5 31.7,3.3 							"/>
						</g>
					</g>
					<g>
						<g>
							<polygon fill="#415A6B" points="31.7,4.8 33.7,4.6 33.7,4.4 31.7,4.2 							"/>
						</g>
					</g>
					<g>
						<g>
							<polygon fill="#415A6B" points="31.7,5.7 33.7,5.4 33.7,5.3 31.7,5 							"/>
						</g>
					</g>
					<g>
						<g>
							<polygon fill="#415A6B" points="31.7,6.6 33.7,6.3 33.7,6.2 31.7,5.9 							"/>
						</g>
					</g>
					<g>
						<g>
							<polygon fill="#415A6B" points="31.7,7.5 33.7,7.2 33.7,7.1 31.7,6.8 							"/>
						</g>
					</g>
				</g>
			</g>
		</g>
	</g>
</g>
</svg>
