<?xml version="1.0" encoding="utf-8"?>
<!-- Generator: Adobe Illustrator 18.0.0, SVG Export Plug-In . SVG Version: 6.00 Build 0)  -->
<!DOCTYPE svg PUBLIC "-//W3C//DTD SVG 1.1//EN" "http://www.w3.org/Graphics/SVG/1.1/DTD/svg11.dtd">
<svg version="1.1" id="Layer_1" xmlns="http://www.w3.org/2000/svg" xmlns:xlink="http://www.w3.org/1999/xlink" x="0px" y="0px"
	 viewBox="0 0 512 512" enable-background="new 0 0 512 512" xml:space="preserve">
<g>
	<path fill="#84DBFF" d="M489.6,469.3H22.4c-1.1,0-2-0.9-2-2V253.1c0-1.1,0.9-2,2-2h467.3c1.1,0,2,0.9,2,2v214.2
		C491.6,468.4,490.7,469.3,489.6,469.3z"/>
	<path fill="#CDD6E0" d="M420.2,510H91.8c-11.6,0-21-9.4-21-21V258.8c0-102.3,82.9-185.2,185.2-185.2l0,0
		c102.3,0,185.2,82.9,185.2,185.2V489C441.2,500.6,431.8,510,420.2,510z"/>
	<path fill="#FF7058" d="M206.2,80.6c1.6-26.2,23.2-47,49.8-47c26.6,0,48.2,20.9,49.8,47c10.9,3,21.3,7,31.3,11.9
		c0.3-2.9,0.5-5.9,0.5-8.9C337.6,38.6,301,2,256,2s-81.6,36.6-81.6,81.6c0,3,0.2,6,0.5,8.9C184.9,87.6,195.4,83.6,206.2,80.6z"/>
	<rect x="122.8" y="265.8" fill="#54C0EB" width="266.4" height="85.9"/>
	<path fill="#54C0EB" d="M122.8,351.7v85.3c0,11.6,9.4,21,21,21h224.3c11.6,0,21-9.4,21-21v-85.3H122.8z"/>
	<path fill="#40596B" d="M122.8,267.2L122.8,267.2c0-17.5,14.2-31.6,31.6-31.6h203.1c17.5,0,31.6,14.2,31.6,31.6l0,0
		c0,17.5-14.2,31.6-31.6,31.6H154.4C137,298.8,122.8,284.7,122.8,267.2z"/>
	<path fill="#F8B64C" d="M273.7,287.4c0-9.8-7.9-17.7-17.7-17.7h0c-9.8,0-17.7,7.9-17.7,17.7v11.4h35.5V287.4z"/>
	<path fill="#FFD15C" d="M238.3,298.8v11.4c0,9.8,7.9,17.7,17.7,17.7h0c9.8,0,17.7-7.9,17.7-17.7v-11.4H238.3z"/>
</g>
</svg>
