<?xml version="1.0" encoding="utf-8"?>
<!-- Generator: Adobe Illustrator 18.0.0, SVG Export Plug-In . SVG Version: 6.00 Build 0)  -->
<!DOCTYPE svg PUBLIC "-//W3C//DTD SVG 1.1//EN" "http://www.w3.org/Graphics/SVG/1.1/DTD/svg11.dtd">
<svg version="1.1" id="Layer_1" xmlns="http://www.w3.org/2000/svg" xmlns:xlink="http://www.w3.org/1999/xlink" x="0px" y="0px"
	 viewBox="0 0 48 48" enable-background="new 0 0 48 48" xml:space="preserve">
<g>
	<g>
		<path fill="#344A5E" d="M33.8,25.9c1.1-5.2,3.5-10.1,7.2-13.8l3.6-3.6l-5.1-5.1L36,7c-3.8,3.8-8.6,6.1-13.9,7.2
			c-1.5,0.3-3,1.1-4.1,2.3L0.6,33.8c-0.8,0.8-0.8,2.1,0,3l10.6,10.6c0.8,0.8,2.1,0.8,3,0L31.5,30C32.7,28.8,33.5,27.4,33.8,25.9z"/>
		<g>
			<path fill="#FFD15C" d="M42.3,0c2-0.2,5.9,3.7,5.7,5.7l-4,2.6L39.8,4L42.3,0z"/>
		</g>
		<path fill="#415A6B" d="M45.7,7.5l-5.1-5.1c-0.4-0.4-1.1-0.4-1.5,0l-1.3,1.3c-0.4,0.4-0.4,1.1,0,1.5l5.1,5.1
			c0.4,0.4,1.1,0.4,1.5,0l1.3-1.3C46.1,8.5,46.1,7.9,45.7,7.5z"/>
		<g>
			<path fill="#66C6B9" d="M26.3,35.3l-2.9-2.9c1.5-2.6,1.4-5.6-0.4-7.4c-1.8-1.8-4.8-1.9-7.4-0.4l-2.9-2.9l-3.6,3.6l2.9,2.9
				c-1.5,2.6-1.4,5.6,0.4,7.4s4.8,1.9,7.4,0.4l2.9,2.9L26.3,35.3z"/>
		</g>
	</g>
</g>
</svg>
