<?xml version="1.0" encoding="utf-8"?>
<!-- Generator: Adobe Illustrator 19.0.1, SVG Export Plug-In . SVG Version: 6.00 Build 0)  -->
<svg version="1.1" id="Layer_1" xmlns="http://www.w3.org/2000/svg" xmlns:xlink="http://www.w3.org/1999/xlink" x="0px" y="0px"
	 viewBox="0 0 48 48" style="enable-background:new 0 0 48 48;" xml:space="preserve">
<style type="text/css">
	.st0{fill:#66C6B9;}
	.st1{fill:#F3F3F3;}
	.st2{fill:#415A6B;}
	.st3{fill:#CED6E0;}
	.st4{fill:#F3705A;}
	.st5{fill:#E8EAE9;}
	.st6{fill:#4ABAA5;}
	.st7{fill:#F05540;}
	.st8{fill:#FFD15C;}
	.st9{fill:#55C0EB;}
	.st10{fill:#8AD7F8;}
	.st11{fill:#344A5E;}
	.st12{fill:#FFFFFF;}
	.st13{fill:#F7B64C;}
	.st14{fill:#ADB3BA;}
	.st15{fill:#38A892;}
	.st16{fill:#ED9845;}
	.st17{fill:#2D4251;}
	.st18{fill:#304556;}
	.st19{fill:#A5AAAD;}
	.st20{fill:#2D4456;}
	.st21{fill:#4FB0E0;}
	.st22{fill:#2D4354;}
	.st23{fill:#E54C38;}
	.st24{fill:#2B4456;}
	.st25{fill:#2B404F;}
</style>
<g>
	<g>
		<g>
			<g>
				<g>
					<path class="st2" d="M31.6,28.3c-2.8-0.7-4.8-4-6.7-7.2l-0.3-0.5l0.9-0.5l0.3,0.5c1.8,3,3.7,6.2,6.1,6.8L31.6,28.3z"/>
				</g>
			</g>
			<g>
				<g>
					<g>
						<path class="st2" d="M33.8,28.9c-0.3,0.7-1.2,1.1-1.9,0.7c-0.7-0.3-1.6-1.4-1.3-2.1c0.3-0.7,1.7-0.8,2.4-0.5
							S34.2,28.2,33.8,28.9z"/>
					</g>
				</g>
				<g>
					<g>
						<g>
							<g>
								<path class="st9" d="M24.2,48l-1.9-9L9.2,32.5c0,0-1.2,0-3.7,4.3C3.3,40.5,2.1,46.3,1.8,48H24.2z"/>
							</g>
						</g>
						<g>
							<g>
								<path class="st8" d="M29.3,5.9c0,0,2.4,6,1.8,9.3c0,0-0.4,1.5-0.1,2.4c0.3,0.9,2.1,4.2,2.1,4.2s0.2,0.9-0.4,1.2
									s-1.4,0.2-1.7,0.4c-0.3,0.2-0.6,0.5-0.4,1c0.2,0.5-0.1,1.3-0.8,0.9c0,0,0.7,0.6,0.2,1.4c0,0-1.4,1.3-1.2,2.9
									c0.2,1.6-1.1,2.6-2.3,2.4C26,32,24.9,31.8,24,31.7c-0.8-0.1-1.7,0.3-2,1.1l-2.4,5.8c0,0-10.5-6.8-10.5-6.8
									c0-0.1,1-3.8,1-3.8l2-20.9L29.3,5.9z"/>
							</g>
						</g>
						<g>
							<g>
								<path class="st10" d="M8,30.9c0.3-0.7,1.1-1,1.7-0.8c2.2,0.8,6.7,2.6,9.1,4.5c3.2,2.5,3.9,4.2,3.9,4.2l-1.6,4.4
									c0,0-4.3-2.5-8.6-4.2s-6.2-1.9-6.2-1.9s0.4-1.3,0.5-2.8C7.1,33.3,7.6,31.9,8,30.9z"/>
							</g>
						</g>
						<g>
							<g>
								<path class="st4" d="M29.3,5.9c0,0-5.6,4.3-6.7,6.4s-1.7,2.2-2.3,5.4c-0.6,3.2-0.6,3.2-0.6,3.2l-2.9-0.4l0.2-4.2
									c0,0-3.1,1.6-4.3,5.6C9.6,32.4,10.1,28,10.1,28s0.2-1.6-0.7-2.8c-0.5-0.6-1.4-0.5-1.7,0.3c-0.1,0.2-0.2,0.5-0.2,0.9
									l-2.3-0.9c0,0,0.8-1.8,0-4S2.9,14.1,4.3,9.2s4.5-9.5,11.1-9.1S28.6,3.4,29.3,5.9z"/>
							</g>
						</g>
						<g>
							<g>
								
									<ellipse transform="matrix(0.9832 -0.1828 0.1828 0.9832 -3.1766 3.1541)" class="st8" cx="15.5" cy="18.8" rx="2.5" ry="4.1"/>
							</g>
						</g>
						<g>
							<g>
								<path class="st4" d="M27.9,4.4c1.4,1,2.3,2.6,2.4,4.3c-0.3-1.7-1.4-3.3-3-4c-1.4-0.6-3-0.6-4.5-0.6"/>
							</g>
						</g>
						<g>
							<g>
								<g>
									<path class="st4" d="M29.3,6.1c0,0-0.1,0-0.2,0.1c-0.1,0.1-0.3,0.1-0.4,0.2c-0.1,0.1-0.2,0.1-0.3,0.2
										c-0.1,0.1-0.2,0.1-0.3,0.2C28,6.9,27.8,7,27.7,7c-0.1,0.1-0.3,0.2-0.4,0.3c-0.3,0.2-0.6,0.4-0.9,0.7
										c-0.3,0.3-0.6,0.6-0.9,0.9c-0.3,0.3-0.6,0.7-0.9,1c-0.3,0.4-0.6,0.8-0.8,1.2c-0.3,0.4-0.5,0.8-0.7,1.3
										c-0.2,0.4-0.4,0.9-0.5,1.3c-0.1,0.4-0.3,0.8-0.4,1.2c-0.1,0.4-0.2,0.8-0.2,1.1c0,0.2-0.1,0.4-0.1,0.5c0,0.2,0,0.3-0.1,0.5
										c0,0.1,0,0.3,0,0.4c0,0.1,0,0.2,0,0.3c0,0.2,0,0.4,0,0.5c0,0.1,0,0.2,0,0.2s0-0.1,0-0.2c0-0.1,0-0.3,0-0.5
										c0-0.1,0-0.2,0-0.4c0-0.1,0-0.3,0-0.4c0-0.1,0-0.3,0-0.5c0-0.2,0-0.3,0.1-0.5c0-0.4,0.1-0.8,0.2-1.2
										c0.1-0.4,0.2-0.8,0.3-1.3c0.1-0.4,0.3-0.9,0.5-1.3c0.2-0.4,0.4-0.9,0.6-1.3c0.2-0.4,0.5-0.8,0.8-1.2
										c0.3-0.4,0.6-0.8,0.9-1.1c0.3-0.3,0.6-0.7,0.9-1c0.3-0.3,0.6-0.6,0.9-0.8c0.1-0.1,0.3-0.2,0.4-0.3c0.1-0.1,0.3-0.2,0.4-0.3
										C27.9,6.2,28,6.1,28.1,6c0.1-0.1,0.2-0.1,0.3-0.2c0.2-0.1,0.3-0.2,0.4-0.3C28.9,5.5,29,5.5,29,5.5L29.3,6.1z"/>
								</g>
							</g>
							<g>
								<g>
									<path class="st4" d="M27.8,6.9c0,0-0.1,0.1-0.3,0.2c-0.1,0-0.1,0.1-0.2,0.1c-0.1,0-0.1,0.1-0.2,0.2C27,7.5,27,7.5,26.9,7.6
										c-0.1,0.1-0.2,0.1-0.2,0.2c-0.1,0.1-0.2,0.1-0.2,0.2c-0.1,0.1-0.2,0.2-0.3,0.3c0,0-0.1,0.1-0.1,0.1c0,0-0.1,0.1-0.1,0.1
										c-0.1,0.1-0.2,0.2-0.3,0.3c-0.2,0.2-0.3,0.4-0.5,0.7c-0.2,0.2-0.3,0.5-0.5,0.7c-0.1,0.3-0.3,0.5-0.4,0.8
										c-0.1,0.3-0.2,0.5-0.3,0.8c-0.1,0.1-0.1,0.3-0.1,0.4c0,0.1,0,0.1-0.1,0.2c0,0.1,0,0.1-0.1,0.2c0,0.1-0.1,0.2-0.1,0.4
										c0,0.1-0.1,0.2-0.1,0.3c0,0.1-0.1,0.2-0.1,0.3c0,0.1,0,0.2,0,0.3c0,0.1,0,0.2,0,0.2c0,0.1,0,0.1,0,0.2c0,0.3,0,0.4,0,0.4
										s0-0.1,0-0.4c0-0.1,0-0.1,0-0.2c0-0.1,0-0.2,0-0.3c0-0.1,0-0.2,0-0.3c0-0.1,0-0.2,0.1-0.3c0-0.1,0-0.2,0.1-0.3
										c0-0.1,0.1-0.2,0.1-0.4c0-0.1,0-0.1,0-0.2c0-0.1,0-0.1,0.1-0.2c0-0.1,0.1-0.3,0.1-0.4c0.1-0.3,0.2-0.5,0.3-0.8
										c0.1-0.3,0.2-0.5,0.4-0.8c0.1-0.3,0.3-0.5,0.4-0.8c0.2-0.3,0.3-0.5,0.5-0.7c0.1-0.1,0.2-0.2,0.3-0.3c0-0.1,0.1-0.1,0.1-0.2
										c0-0.1,0.1-0.1,0.1-0.1C25.9,8,26,7.9,26.1,7.8c0.1-0.1,0.2-0.2,0.2-0.3c0.1-0.1,0.2-0.2,0.2-0.2c0.1-0.1,0.2-0.1,0.2-0.2
										C26.9,7,26.9,7,27,6.9c0.1-0.1,0.1-0.1,0.2-0.1c0.2-0.2,0.3-0.3,0.3-0.3L27.8,6.9z"/>
								</g>
							</g>
						</g>
						<g>
							<g>
								<path class="st4" d="M7.9,23.9C7.1,25.8,7.4,28,7.9,30c0.5,2,1,4.1,0.4,6.1c-0.4,1.4-1.2,2.5-2.2,3.6
									c-0.9,1.1-1.9,2.1-2.6,3.4c-0.7,1.2-1,2.8-0.6,4.1c-1.3-0.1-2.3-1.3-2.7-2.5c-0.4-1.2-0.3-2.6-0.1-3.9
									c0.6-4.3,1.6-8.5,3.2-12.6c0.3-0.8,0.6-1.6,1.1-2.2c0.5-0.7,1.2-1.3,2-1.5"/>
							</g>
						</g>
						<g>
							<g>
								<path class="st2" d="M7.7,25.4c-0.9-0.1-1.7-0.5-2.3-1.2c-0.7,0.5-1.1,1.1-1,2c1,0,2,0.3,3.1,0.9C7.8,26.6,8,26,7.7,25.4z"
									/>
							</g>
						</g>
					</g>
					<g>
						<path class="st13" d="M24,31.7c0,0-6.3-2.8-10.7-8.6c0,0.1,1.8,4.7,8.5,10.3l0.2-0.6C22.4,32,23.2,31.6,24,31.7L24,31.7
							L24,31.7z"/>
					</g>
				</g>
				<g>
					<g>
						<g>
							<path class="st2" d="M18.4,16.4c-2.1,0-3.8,1.7-3.8,3.8c0,2.1,1.7,3.8,3.8,3.8c2.1,0,3.8-1.7,3.8-3.8
								C22.3,18.1,20.6,16.4,18.4,16.4z M18.4,23.5c-1.8,0-3.3-1.5-3.3-3.3c0-1.8,1.5-3.3,3.3-3.3c1.8,0,3.3,1.5,3.3,3.3
								C21.7,22,20.3,23.5,18.4,23.5z"/>
						</g>
					</g>
					<g>
						<g>
							<path class="st11" d="M18.4,15.7c-2.5,0-4.6,2-4.6,4.6c0,2.5,2,4.6,4.6,4.6c2.5,0,4.6-2,4.6-4.6C23,17.7,21,15.7,18.4,15.7z
								 M18.4,23.5c-1.8,0-3.3-1.5-3.3-3.3c0-1.8,1.5-3.3,3.3-3.3c1.8,0,3.3,1.5,3.3,3.3C21.7,22,20.3,23.5,18.4,23.5z"/>
						</g>
					</g>
				</g>
				<g>
					<g>
						<circle class="st1" cx="18.4" cy="20.2" r="3.3"/>
					</g>
				</g>
				<g>
					<g>
						<path class="st3" d="M21,22.3v-2.2c0-1.3-1.1-2.4-2.4-2.4c-1.3,0-2.4,1.1-2.4,2.4v2.5c-0.6-0.6-1-1.4-1-2.3
							c0-1.8,1.5-3.3,3.3-3.3c1.8,0,3.3,1.5,3.3,3.3C21.7,21,21.4,21.8,21,22.3z"/>
					</g>
				</g>
				<g>
					<g>
						<path class="st2" d="M20.3,21.2c-0.6,1-1.8,1.3-2.8,0.7c-0.7-0.4-1-1.1-1-1.8c0-0.6,0-1.2-0.1-1.8c-0.1-0.8-0.2-1.7-0.3-2.3
							c-0.1-1.2-1.1-5.8-1.3-6.7c-0.2-0.8-1.3-5.8-1.5-7.1s-0.1-2.1-0.1-2.1S13.7,0,14.8,0c1,0,1,0.2,1,0.2
							c-0.4,0.1-0.7,0.7-0.9,2.2c-0.1,1.5,0.6,4.2,0.6,4.2s1.5,4.4,1.9,6.1c0.3,1.1,1.4,3.6,2.1,5.2c0.2,0.4,0.4,0.8,0.7,1.2
							C20.6,19.7,20.7,20.5,20.3,21.2z"/>
					</g>
				</g>
			</g>
		</g>
		<g>
			<g>
				<path class="st0" d="M48,6v8c0,0.7-0.5,1.2-1.2,1.2H40l-5.7,4.2l2.2-4.2h-1.3c-0.7,0-1.2-0.5-1.2-1.2V6c0-0.7,0.5-1.2,1.2-1.2
					h11.6C47.5,4.8,48,5.4,48,6z"/>
			</g>
			<g>
				<g>
					<rect x="35.9" y="7" class="st12" width="10.1" height="1.1"/>
				</g>
				<g>
					<rect x="35.9" y="9.5" class="st12" width="10.1" height="1.1"/>
				</g>
				<g>
					<rect x="35.9" y="12" class="st12" width="7.1" height="1.1"/>
				</g>
			</g>
		</g>
	</g>
</g>
</svg>
