<?xml version="1.0" encoding="utf-8"?>
<!-- Generator: Adobe Illustrator 19.0.1, SVG Export Plug-In . SVG Version: 6.00 Build 0)  -->
<svg version="1.1" id="Layer_1" xmlns="http://www.w3.org/2000/svg" xmlns:xlink="http://www.w3.org/1999/xlink" x="0px" y="0px"
	 viewBox="0 0 48 48" style="enable-background:new 0 0 48 48;" xml:space="preserve">
<style type="text/css">
	.st0{fill:#66C6B9;}
	.st1{fill:#F3F3F3;}
	.st2{fill:#415A6B;}
	.st3{fill:#CED6E0;}
	.st4{fill:#F3705A;}
	.st5{fill:#E8EAE9;}
	.st6{fill:#4ABAA5;}
	.st7{fill:#F05540;}
	.st8{fill:#FFD15C;}
	.st9{fill:#55C0EB;}
	.st10{fill:#8AD7F8;}
	.st11{fill:#344A5E;}
	.st12{fill:#FFFFFF;}
	.st13{fill:#F7B64C;}
	.st14{fill:#ADB3BA;}
	.st15{fill:#38A892;}
	.st16{fill:#ED9845;}
	.st17{fill:#2D4251;}
	.st18{fill:#304556;}
	.st19{fill:#A5AAAD;}
	.st20{fill:#2D4456;}
	.st21{fill:#4FB0E0;}
	.st22{fill:#2D4354;}
	.st23{fill:#E54C38;}
	.st24{fill:#2B4456;}
	.st25{fill:#2B404F;}
</style>
<g>
	<g>
		<path class="st11" d="M24.3,45.4l-0.4-0.3c0,0,0-0.4,0.4-0.6c0.4-0.2,1.2-0.5,1.6-0.9s2.6,0.1,2.6,0.1l0.4,1c0,0-1.2,0.2-1.4,0.4
			c-0.3,0.2-0.8,0.6-1.3,0.6S24.3,45.4,24.3,45.4z"/>
	</g>
	<g>
		<path class="st2" d="M23.9,45.1c0,0,0.4,0.1,0.6,0.1s1.4,0.4,2,0.2c0.7-0.2,0.7-0.4,0.9-0.5c0.2-0.2,1.5-0.6,1.5-0.6
			s0.4,0.6,0.4,0.8l-1.2,0.2c0,0-0.2-0.3-0.6-0.2c-0.3,0.1-0.2,0.3-0.6,0.5c-0.3,0.2-1.3,0.3-1.8,0.1c-0.5-0.1-1.4-0.4-1.4-0.4
			S23.7,45.2,23.9,45.1z"/>
	</g>
	<g>
		<g>
			<path class="st2" d="M29.9,46.9c0,0-0.1,0.3,0,0.6c0,0.2,0.3,0.4,0.5,0.4c0,0,0.1,0,0.1,0c0.3,0,1.4,0.2,1.6,0.2
				c0.2,0,0.4-0.1,0.4-0.3c0.1-0.2,0.1-0.6,0.1-0.7c-0.1-0.1-0.1-0.1-0.1-0.1L29.9,46.9z"/>
		</g>
		<g>
			<path class="st11" d="M29.9,45.5c0,0,0.1,0.2,0.1,0.4s-0.2,1.1-0.1,1.3c0.1,0.2,0.2,0.3,0.6,0.3s1.5,0.1,1.6,0.1
				c0.1,0,0.5,0,0.6-0.4c0.1-0.4-0.3-1-0.4-1.3c0-0.3-0.1-0.5-0.1-0.5S30.4,44.6,29.9,45.5z"/>
		</g>
	</g>
	<g>
		<g>
			<path class="st2" d="M25,25.5c0,0,0.3,5.5,0.3,6.7c0,1.1-0.1,5.1,0.3,6.2c0.4,1.1,0.7,2.5,0.7,3.1c-0.1,0.6,0.1,1.3,0,1.6
				c-0.1,0.3-0.3,0.5-0.3,0.5s0.5-0.3,0.9,0c0.4,0.3,1.4,1.2,2.6,0.9c0,0-0.2-1.2-0.2-2.3c0-1.1,0.4-4.6,0.3-5.7c0,0,0.4,4,0.5,4.8
				c0,0-0.7,1.6-0.6,2.2c0.1,0.5,0.2,2.5,0.2,2.5s0.2-0.4,0.6-0.5c0.5-0.1,1.7,0.5,2.1,0.4s0.5-1.8,0.3-2.1
				c-0.1-0.3-0.1-1.8-0.1-2.3c0-0.5,0.2-5.4,0-7c-0.2-1.6,0.4-9,0.4-9S26.8,23,25,25.5z"/>
		</g>
		<g>
			<polygon class="st23" points="36.4,29.1 37.9,26.8 35.6,26.7 29.2,27.5 30.3,29 			"/>
		</g>
		<g>
			<path class="st11" d="M29.6,36.3c0-0.2,0-0.4-0.1-0.6c0-0.4-0.1-0.8-0.2-1.2c0-0.2-0.1-0.4-0.1-0.6c0-0.1,0-0.2-0.1-0.3l-0.1-0.3
				C29,32.9,29,32.4,28.9,32c0-0.4-0.1-0.8-0.1-1.2c0-0.4-0.1-0.8-0.1-1.1c0-0.2,0-0.4,0-0.5c0-0.2,0-0.3,0-0.5
				c0-0.3-0.1-0.6-0.1-0.9c0-0.1,0-0.2-0.1-0.4c0-0.1,0-0.2-0.1-0.3c-0.1-0.4-0.2-0.6-0.2-0.6l0,0c0,0,0,0.1,0,0.1
				c0,0.1,0,0.2,0.1,0.4c0,0.2,0,0.4,0.1,0.7c0,0.3,0,0.5,0,0.9c0,0.3,0,0.7,0,1c0,0,0,0.1,0,0.1c0,0,0,0.1,0,0.1c0,0.1,0,0.2,0,0.3
				c0,0.2,0,0.4,0,0.6c0,0.4,0.1,0.8,0.2,1.2c0.1,0.4,0.1,0.8,0.2,1.3l0.1,0.3c0,0.1,0,0.2,0.1,0.3c0,0.2,0.1,0.4,0.1,0.6
				c0.1,0.4,0.1,0.8,0.2,1.2c0,0.2,0.1,0.4,0.1,0.6c0,0,0,0.1,0,0.1l0,0.1c0,0,0,0.1,0,0.1c0,0.1,0,0.2,0,0.3c0,0.2,0,0.4,0,0.5
				c0,0.2,0,0.3,0,0.5c0,0.1,0,0.2,0,0.3C29.5,37.6,29.6,36.3,29.6,36.3z"/>
		</g>
	</g>
	<g>
		<path class="st8" d="M30.9,7c0,0,0.2-0.4,0.1-0.8C30.8,5.8,30.8,5,30.8,4c0-1,0.4-1.8-1.3-2.8c-1.7-1-3.2,0.6-3.2,0.6
			s-0.2,0.5-0.2,1.3c0,0.3,0.1,0.6,0.3,0.9c0,0.1,0.1,0.1,0.1,0.2c0,0.2-0.3,0.6-0.2,0.8c0.1,0.2,0.4,0.1,0.4,0.1s0.1,0.1,0,0.3
			s0.1,0.2,0.1,0.2c0,0-0.1,0.1,0,0.3c0,0,0.3,0.2,0.3,0.7c-0.1,0.5,1,0.1,1.1,0.3c0,0.2,0,0.2,0,0.2s0.3,0.7,0.7,0.8
			C29.2,8,30.9,7,30.9,7z"/>
	</g>
	<path class="st13" d="M30.3,5c-0.7,1.4-2.4,1.8-2.4,1.8v0c0.1,0,0.1,0,0.2,0.1c0,0.2,0,0.2,0,0.2s0.2,0.5,0.5,0.7
		C29.9,6.7,30.3,5,30.3,5z"/>
	<g>
		<path class="st3" d="M28.8,7.9l2,0.2l-4.1,8.6l-0.3-7.4C26.3,9.3,27.9,7.9,28.8,7.9z"/>
	</g>
	<g>
		<path class="st4" d="M28.4,8.7l0.3,0.4c0,0,0.1,1.5-0.1,2.3c-0.2,0.7-1.2,4-1.2,4l-1.1-0.7l0.6-3.2L28.1,9L28.4,8.7z"/>
	</g>
	<g>
		<path class="st4" d="M28.2,8c0,0,0.6,0.3,1.3,0.3c0,0-0.7,0.6-0.9,0.8c0,0-0.4-0.2-0.6-0.1c0,0,0-0.7-0.1-0.9
			C27.9,7.9,28.2,8,28.2,8z"/>
	</g>
	<g>
		<path class="st11" d="M32.2,7.4c0,0,1.6,0.8,1.9,1s0.9,0.3,1.1,0.4c0,0-0.7-0.2-1.1,0.5c-0.5,0.7-1.5,3.3-1.3,4.6s1.2,8.7,1.1,9.7
			s-0.5,2.1-0.5,2.1s0.1,0.6-1.3,0.3c-1.4-0.2-4.2,0-4.7-0.3c-0.5-0.2-1-0.4-1-1.2s0.9-9.5,0.9-9.5c-0.1,0,1.2-3.1,1.9-3.9
			C29.9,10.5,32.2,7.4,32.2,7.4z"/>
	</g>
	<g>
		<ellipse class="st13" cx="33.2" cy="25.7" rx="0.4" ry="0.7"/>
	</g>
	<g>
		<path class="st8" d="M35.1,25.7c0,0.1-0.1,0.2-0.3,0.3c-0.1,0.1-0.2,0.2-0.3,0.3c-0.2,0.1-0.3,0.2-0.4,0.3c-0.1,0.1-0.2,0-0.2,0
			s-0.1,0.1-0.2,0.1c-0.2,0.1-0.2-0.1-0.2-0.1s-0.1,0.1-0.2,0.1c-0.1,0-0.2-0.1-0.2-0.1c0-0.1,0-0.3,0.1-0.4
			c0.1-0.1,0.1-0.1,0.2-0.2c0,0,0-0.1,0-0.1c0-0.1,0-0.3,0-0.3l-0.1-0.1l-0.1-0.1c0,0,0,0-0.1,0.1c-0.1,0.1-0.3,0.5-0.3,0.5
			c-0.2,0.7-0.5,0.5-0.5,0.5V26l0-0.5l0.2-0.7c0,0,0.3-0.3,0.5-0.5c0.1-0.2,0.3-0.7,0.3-0.7l1.7,0.1c0,0,0,0.4,0,0.7
			C35.1,24.7,35.1,25.5,35.1,25.7z"/>
	</g>
	<g>
		<path class="st8" d="M35.1,25.7c0,0.1-0.1,0.2-0.3,0.3c-0.2-0.4-0.4-0.5-0.6-0.6c-0.3-0.2-0.7-0.2-1,0l-0.1-0.1c0,0,0,0-0.1,0.1
			c-0.1,0.1-0.3,0.5-0.3,0.5c-0.2,0.7-0.5,0.5-0.5,0.5V26l0-0.5l0.2-0.7c0,0,0.3-0.3,0.5-0.5c0.1-0.2,0.3-0.7,0.3-0.7l1.7,0.1
			c0,0,0,0.4,0,0.7C35.1,24.7,35.1,25.5,35.1,25.7z"/>
	</g>
	<g>
		<path class="st3" d="M23.5,19.6c0,0-0.1,0.4-0.4,0.6c-0.3,0.2-0.9-1.1-0.9-1.6c0-0.5,0.2-1.4,0.2-1.4s1.3-0.1,1.4,0.4
			C24,18.4,23.5,19.6,23.5,19.6z"/>
	</g>
	<g>
		<g>
			<path class="st13" d="M21.4,19.1l1.2,0.8c0,0,0.2-0.1,0.1-0.2c0,0,0.3,0,0.3-0.2c0,0,0.1-0.1,0.1-0.2c0,0,0.3-0.2,0.2-0.3
				s-0.4-0.7-0.6-1.1s0.1-0.7,0.1-0.7s0-0.1-0.4-0.1c-0.2,0-0.3,0-0.4,0c-0.1,0-0.1,0-0.1,0c-0.2,0.1-0.5,0.4-0.6,0.4
				C21.2,17.7,21.4,19.1,21.4,19.1z"/>
		</g>
		<g>
			<path class="st8" d="M22.6,17.2l-0.2,0.1c0,0-0.2,0-0.3,0.1c-0.1,0.1,0.1,0.4,0.3,0.5c0.2,0.1,0.4,0,0.5,0.1s0.4,0.7,0.4,0.7
				s0.3-0.4,0.4-0.7s0.1-0.5,0.1-0.5l-0.9-0.4L22.6,17.2z"/>
		</g>
		<g>
			<path class="st8" d="M21.3,19c0,0,0.3-0.2,0.5-0.2S22,18.9,22,19c0,0,0.1-0.1,0.1-0.1c0,0,0.1-0.3,0.3-0.3c0.2,0,0.3,0,0.3,0.2
				c0,0,0.2,0.1,0.1,0.2c-0.1,0.1-0.1,0.2-0.1,0.2s0.1,0.1,0,0.2s-0.3,0.4-0.4,0.5c-0.1,0.1-0.4,0.1-0.5,0.1
				c-0.1-0.1-0.2-0.2-0.2-0.2s-0.2,0-0.1-0.3l-0.3-0.2L21.3,19z"/>
		</g>
		<g>
			<g>
				<path class="st13" d="M21.5,19.6c0.2,0,0.4,0,0.6,0l0,0l0,0c0,0,0.1,0,0.1,0c0,0,0.1,0,0.1,0c0.1,0,0.1-0.1,0.2-0.2
					c0.1-0.1,0.2-0.3,0.3-0.4c0,0.1-0.1,0.1-0.1,0.2c0,0.1-0.1,0.1-0.1,0.2c0,0,0,0.1-0.1,0.1c0,0,0,0,0,0c0,0,0,0-0.1,0
					c0,0-0.1,0-0.1,0c0,0-0.1,0-0.1,0l0,0C21.9,19.6,21.7,19.6,21.5,19.6z"/>
			</g>
			<g>
				<path class="st13" d="M22.7,19.3c0,0,0,0.1-0.1,0.2c0,0,0,0.1-0.1,0.1c0,0,0,0.1-0.1,0.1c0,0-0.1,0.1-0.1,0.1c0,0-0.1,0-0.1,0.1
					c0,0-0.1,0-0.1,0c0,0-0.1,0-0.1,0c-0.1,0-0.1,0-0.2,0c-0.1,0-0.2,0-0.2,0s0.1,0,0.2,0c0.1,0,0.1,0,0.2,0c0,0,0.1,0,0.1,0
					c0,0,0.1,0,0.1,0c0,0,0.1,0,0.1,0c0,0,0.1,0,0.1-0.1c0,0,0.1,0,0.1-0.1c0,0,0,0,0.1-0.1C22.7,19.5,22.7,19.4,22.7,19.3
					C22.7,19.4,22.7,19.3,22.7,19.3z"/>
			</g>
		</g>
	</g>
	<g>
		<g>
			<path class="st8" d="M14.3,31.4c0,0-0.1,1.7-1,2.8c0,0-0.3,1.1-0.3,1.8s0,2.3-0.1,3.6c-0.1,1.3-0.1,2,0.1,2.9
				c0.1,0.9,0.6,1.9,0.7,2.5c0.1,0.5,0.2,0.8,0.2,0.8s0.5,0.1,0.5,0.2c0,0.1,0,0.1,0,0.1c0,0.1-1.5,0.4-1.5,0.4l-1.1-1.4
				c0,0-0.5-0.5-0.4-1.4c0.1-0.9,0.1-1.7-0.2-2.5c-0.3-0.8-0.9-3.8-0.7-5.5c0.2-1.7,1.2-4.4,1.2-4.4L14.3,31.4z"/>
		</g>
		<g>
			<path class="st8" d="M17,31.1c0,0-0.4,1-0.4,1.5s0.1,1.2-0.1,1.5s-0.4,0.9-0.4,1.4c0,0.5,0.4,3,0.5,4.3c0.1,1.3,0.8,3.4,1.2,4.2
				c0.4,0.8,0.7,0.9,0.8,1.4s0.5,0.7,0.7,0.8c0.3,0.2,0.3,0.2,0.3,0.2s-0.9,0.5-1.4,0.3c-0.5-0.2-1.4-0.5-2.1-1.1
				c-0.7-0.6-1.2-1.3-1.2-1.3s-0.1-0.5,0.3-1c0,0,0.2-1-0.3-1.9s-1.5-3.4-1.5-4.6s0.1-2.9,0.2-3.6c0.1-0.6,0.1-1.8,0.1-1.8L17,31.1z
				"/>
		</g>
		<g>
			<path class="st0" d="M17.1,21.2h-4.2l-1.5,0.4l-0.2,0.1c0,0-0.7,1.4-0.4,3.8c0.3,2.4,0,6.3,0,6.3s1.8,0.5,3.7,0.4
				c1.8-0.1,3.6-0.2,3.6-0.2s-0.1-3.9-0.4-5.7C17.4,24.7,17.1,22.3,17.1,21.2z"/>
		</g>
		<g>
			<path class="st4" d="M11.6,5.8c0-0.1,0-0.2,0-0.3c0-0.1,0-0.2-0.1-0.2c-0.1-0.1-0.1-0.1-0.2-0.2c0,0,0,0,0,0
				c-0.9,0.3-1.1,1.3-1.2,1.7c0,0.6,0.1,1.2,0,1.8c0,0.6-0.3,1.3-0.4,1.9c-0.2,1.2-0.2,2.4,0.1,3.5c0.1,0.4,0.3,0.8,0.5,1.1
				c0.3,0.3,0.7,0.5,1.1,0.4c-0.6-0.9-0.6-2.1-0.3-3.2c0.2-1.1,0.6-2.1,0.8-3.1c0.2-1,0.2-2.1-0.3-3C11.7,6,11.6,5.9,11.6,5.8z"/>
		</g>
		<g>
			<path class="st8" d="M15.8,3.2l1.1,0.5c0,0,0.4,0.5,0.3,1.6c0,0-0.1,0.1-0.1,0.2s0,0.3,0.1,0.5s0.2,0.4,0.3,0.5
				c0,0.2,0,0.3-0.1,0.3s-0.3,0-0.3,0s0.1,0.3,0,0.3c0,0,0.1,0.1,0,0.2c-0.1,0.1-0.3,0.6-0.3,0.9c0,0.2-0.4,0.4-0.6,0.3
				c-0.3-0.2-0.6-0.4-0.8-0.3c-0.2,0.1-0.8,1.5-0.8,1.5l-2.2-1l0.5-1.1C12.8,7.6,15.1,3.2,15.8,3.2z"/>
		</g>
		<g>
			<path class="st11" d="M12,9.3c0,0-1.3,2.4-1,3.9s1.2,2.7,1.3,3.3c0.1,0.7-0.3,2.8-0.5,3.8c-0.3,1-0.5,1.4-0.5,1.4
				s0.3,0.2,1.8,0.1s4.6,0,5-0.3c0.4-0.3,0.6-0.8,0.2-1.6c-0.4-0.8-0.3-4.3-0.3-4.3s0.5-0.9,0.3-1.4c-0.1-0.4,0-1-1.3-2.2
				s-2.5-2.5-3.3-2.9C13.1,9.1,12.5,9.1,12,9.3z"/>
		</g>
		<g>
			<path class="st5" d="M12.9,9c0.3,0.1,0.6,0.2,0.9,0.4c0.3,0.2,0.6,0.3,0.9,0.5l0.2-0.8c0,0-1-0.7-1.6-0.9
				c-0.4-0.1-0.7-0.1-0.9-0.1c-0.1,0-0.2,0.1-0.2,0.2l0,0.6C12.4,8.9,12.7,8.9,12.9,9z"/>
		</g>
		<g>
			<path class="st2" d="M12,8.6c0,0,0.8-0.2,1.2-0.1s1.8,1.2,2,1.4c0.2,0.2,2.5,2.5,2.8,3.3c0.3,0.8,0.5,1.3,0.2,2
				c-0.3,0.7-0.5,1.2-0.5,1.2s0.6-1.4,0.6-1.8s-0.2-1.3-0.7-1.7c-0.5-0.5-1.2-1.1-1.5-1.5s-1-1-2.1-1.6s-2-0.4-2-0.4V8.6z"/>
		</g>
		<g>
			<path class="st2" d="M14.3,14.5c-0.7-0.6-1.1-1.5-1.1-2.4c0-0.2,0-0.4,0.1-0.6c0.2-1.1,0.6-1.2,1-1.3c0.4-0.1,1.1-0.1,1.6,0.6
				s0.5,1.5,0.8,2c0.3,0.5,0.8,2.1,0.8,2.1s0.6,0.9,0.9,1.5c0.3,0.5,0.3,0.6,0.8,0.7s1.1,0.3,1.3,0.3s1-0.1,1-0.1s0.3,0.9,0.2,1.9
				S20.9,20,20.9,20s-1-0.3-1.8-0.4c-0.8-0.2-1-0.3-1.4-0.4c-0.4-0.2-0.5-0.2-0.7-0.6s-0.4-0.8-0.8-1.2C16,17,14.3,14.5,14.3,14.5
				L14.3,14.5z"/>
		</g>
		<g>
			<path class="st4" d="M16.1,3.7c0.3,0.1,0.7,0,0.7,0c0.1-0.9-0.6-1.2-0.6-1.2c0.2,0.2,0.4,0.4,0.4,0.4C16.1,2,14.2,1.6,13.2,2
				c-1,0.5-1.4,1.6-1.5,2.3c-0.1,0.4-0.2,0.6-0.2,0.6c0.1,0.1,0.1,0.1,0.2,0.2c0.1,0.1,0.1,0.2,0.1,0.2c0.1,0,0.1,0.2,0.1,0.2
				C12,6.5,12.7,6.8,12.8,7c0.1,0.2,0,0.6,0,0.6s0.4-0.4,0.7-1.1s0.8-1.3,1.2-1.3c0.4,0.1,0.6,0.8,0.6,0.8l0.4,0c0,0,0,0,0-0.4
				c0-0.4,0.3-0.5,0.5-0.7c0.3-0.2,0.3-0.5,0-0.8C16.1,3.9,15.8,3.6,16.1,3.7z"/>
		</g>
		<g>
			<path class="st2" d="M11.9,5.4c-0.1,0.1-0.1,0.3-0.3,0.3c-0.2-0.2-0.5-0.3-0.8-0.4c0.2-0.3,0.5-0.5,0.8-0.5
				C11.7,5,11.7,5.2,11.9,5.4z"/>
		</g>
		<g>
			<path class="st2" d="M14.5,46c-0.3-0.1-0.7-0.1-0.7-0.1c0.2,0.1,0.2,0.1,0,0.3c-0.1,0.2-1,0.2-1.1-0.1c-0.1-0.3,0-0.6,0.1-0.9
				c0-0.4-0.5-1-1-1.2c-0.5-0.2-0.9,0.2-0.9,0.2s-0.1,0.1-0.2,0.5c-0.1,0.4,0,0.9,0.3,1.2c0.3,0.3,0.5,0.6,0.5,0.9c0,0,0,0.1,0,0.1
				c0,0,0,0,0.1,0c0.1,0.1,0.5,0.2,0.6,0.2c0,0,0,0,0,0c0.2,0,0.5,0,0.7,0c0,0,0,0,0,0c0,0,0,0,0.1,0c0.2,0,0.4,0,0.7,0
				c0,0,0.1,0,0.1,0c0.3-0.1,0.5-0.3,0.7-0.5c0,0,0,0,0,0c0-0.1,0-0.2,0.1-0.2C14.8,46.1,14.8,46,14.5,46z"/>
		</g>
		<g>
			<path class="st11" d="M14.7,46.1c0,0.1-0.2,0.7-0.6,0.9c-0.4,0.2-1.4,0.3-1.8,0.2c-0.4-0.1-0.5-0.2-0.5-0.2l0.1,0.9h-0.4
				c0,0,0-0.9-0.1-1.3c-0.1-0.3-0.3-0.6-0.5-0.9c0,0-0.1-0.1-0.1-0.1l0,0c0,0,0.5-0.1,0.9-0.1c0.5,0,0.6,0,0.6,0.2
				c0.1,0.2,0.1,0.8,0.8,1.1C13.9,47.2,14.5,46.6,14.7,46.1z"/>
		</g>
		<g>
			<path class="st2" d="M15.4,43.3c0,0-0.1,0.5,0.3,1s1.7,1.8,2.2,1.9c0.5,0.1,1.4,0,1.2-0.4c0,0,0.6,0.3,0.9,0.4
				c0.3,0.2,0.3,0.2,0.8,0.4c0.5,0.2,0,0.5-0.4,0.6c-0.5,0-2.2,0.2-2.7,0.1c-0.5-0.2-0.9-1.1-1.4-1.5c-0.5-0.5-0.8-0.4-0.8-0.4
				l0.1,1.4h-0.3c0,0,0.1-1.2-0.2-1.6C14.7,44.9,14.3,43.8,15.4,43.3z"/>
		</g>
	</g>
	<g>
		<path class="st2" d="M22.3,17.2c0,0,1,0.1,1.2,1c0.3,0.9-0.2,1.9-0.5,2.1c0,0,0.2-0.1,0.5-0.6c0.3-0.5,0.3-0.5,0.6-0.8
			c0.3-0.3,1.2-1.4,1.2-1.4l0.3-8.6c0,0-0.6,0-1,0.7c-0.4,0.6-0.3,2-0.4,2.6c-0.1,0.6-0.3,1.4-0.4,1.9c-0.1,0.5-0.7,1.9-0.9,2.2
			S22.3,17.2,22.3,17.2z"/>
	</g>
	<g>
		<path class="st11" d="M27.8,7.8c0,0-0.3,0.1-0.9,0.4c-0.7,0.3-1.7,0.6-1.8,0.9c-0.1,0.3-0.2,2-0.1,3.4s0.4,5.3,0.1,7
			c-0.3,1.7-0.7,6-0.7,6s1.7,0.8,2.4-0.4l0.8-10.8c0,0-0.6-2.4-0.9-3.8S27.8,7.8,27.8,7.8z"/>
	</g>
	<g>
		<path class="st2" d="M28,7.4c0,0-0.1,0.3-0.4,1c-0.3,0.7-0.7,1.2-0.8,2.1c-0.1,0.8,0.6,4.1,0.6,4.1s-0.5-0.7-0.8-1.3
			c-0.3-0.5-1.2-2.5-0.7-4l0.6-0.3l-0.1-0.1c0,0,0.6-0.5,0.9-0.7C27.6,7.8,27.9,7.4,28,7.4z"/>
	</g>
	<g>
		<g>
			<path class="st5" d="M28.1,6.9c0,0-0.1,0.4-0.2,0.9c-0.1,0.4-0.5,1.3-0.5,1.3s0.2-0.2,0.6-0.7c0.3-0.4,0.8-0.5,0.8-0.5
				C28.4,7.6,28.1,7.3,28.1,6.9z"/>
		</g>
		<g>
			<path class="st5" d="M28.8,7.9c0,0,1.3,0.9,1.4,1.2L31.5,7c0,0-0.1-0.2-0.2-0.4s-0.2-0.4-0.3-0.4c0,0-0.1,0.2-0.2,0.4
				C30.5,6.6,28.8,7.9,28.8,7.9z"/>
		</g>
	</g>
	<g>
		<path class="st2" d="M31.3,6.8c0,0-0.1,0.3-0.3,0.6c-0.2,0.3-1.7,2.1-2.7,4.5s-1.1,3.3-1.1,3.3s0.5-1.5,1.5-2.6s3.3-3.4,3.3-3.4
			l-0.4-0.4l0.6-0.2c0,0-0.1-0.9-0.1-1.1c0-0.2-0.2-0.2-0.4-0.3C31.7,7.1,31.5,6.7,31.3,6.8z"/>
	</g>
	<g>
		<path class="st2" d="M35.6,14.8c0.1,0.7-0.1,4.3-0.1,4.3l-0.3,5.2c0,0-0.1-0.1-1.1-0.3c-0.1,0-0.3,0-0.4-0.1c-0.7-0.1-1,0.1-1,0.1
			s0.4-3.5,0.3-4.1C33,19.2,32.7,14,32.7,14c-0.1-1.3,0.9-3.9,1.3-4.6c0.5-0.7,1.1-0.5,1.1-0.5c0.4,0.2,0.5,1.1,0.5,1.6
			c0,0.5,0,1,0.1,1.4C35.9,12.3,35.5,14.1,35.6,14.8z"/>
	</g>
	<g>
		<path class="st2" d="M26.2,2.2c0,0,1-0.3,1.4-0.7c0.5-0.4,0.2,0.3,0.2,0.3s-0.2,0.5,0.4,0.9c0.2,0.2,0.4,0.4,0.4,0.7v0H29
			c0,0,0.1-0.6,0.7-0.6s0.8,1.2,0.8,1.9s0.5,1,0.5,1s0.4-1.1,0.4-2.3S31,0.9,29.9,0.4c-1.1-0.5-2.6-0.5-3.6,0.5
			C25.7,1.4,25.6,2.2,26.2,2.2z"/>
	</g>
	<g>
		<path class="st8" d="M30,3.5c0,0.5-0.3,0.9-0.6,0.9c-0.3,0-0.6-0.4-0.5-0.9c0-0.5,0.3-0.9,0.6-0.9C29.8,2.6,30.1,3,30,3.5z"/>
	</g>
	<g>
		<polygon class="st7" points="30.8,35 31.5,35.8 38.3,34.5 37.9,26.8 31.2,27.6 		"/>
	</g>
	<g>
		<polygon class="st4" points="31.2,27.6 31.5,35.8 29.6,35.5 29.2,27.5 		"/>
	</g>
	<g>
		<path class="st4" d="M33.1,26.5C33.1,26.5,33.1,26.5,33.1,26.5c0-0.1,0-0.1,0-0.2c0,0,0,0,0,0c0,0,0-0.1,0-0.1c0,0,0,0,0,0
			c0,0,0,0,0,0c0-0.1,0.1-0.2,0.2-0.3c0-0.1,0-0.3,0-0.3l-0.1-0.1c-0.1,0-0.1,0.1-0.2,0.1c-0.5,0.5-0.4,1.6-0.4,1.8l0.4-0.1
			C33.1,27.1,33.1,26.8,33.1,26.5z"/>
		<path class="st4" d="M34.8,26c-0.1,0.1-0.2,0.2-0.3,0.3c0.1,0.2,0.1,0.5,0.1,0.8l0.4,0C35,26.6,34.9,26.2,34.8,26z"/>
	</g>
</g>
</svg>
