<?xml version="1.0" encoding="utf-8"?>
<!-- Generator: Adobe Illustrator 18.0.0, SVG Export Plug-In . SVG Version: 6.00 Build 0)  -->
<!DOCTYPE svg PUBLIC "-//W3C//DTD SVG 1.1//EN" "http://www.w3.org/Graphics/SVG/1.1/DTD/svg11.dtd">
<svg version="1.1" id="Layer_1" xmlns="http://www.w3.org/2000/svg" xmlns:xlink="http://www.w3.org/1999/xlink" x="0px" y="0px"
	 viewBox="0 0 48 48" enable-background="new 0 0 48 48" xml:space="preserve">
<g>
	<g>
		<g>
			<g>
				<g>
					<path fill="#CED6E0" d="M21.7,39c-0.1,0-0.2,0-0.3-0.1c-0.1-0.1-0.1-0.4,0-0.5l4.5-3.7c0.1-0.1,0.4-0.1,0.5,0
						c0.1,0.1,0.1,0.4,0,0.5L22,39C21.9,39,21.8,39,21.7,39z"/>
				</g>
			</g>
			<g>
				<g>
					<path fill="#CED6E0" d="M26.3,39c-0.1,0-0.2,0-0.2-0.1l-4.5-3.7c-0.1-0.1-0.2-0.3,0-0.5c0.1-0.1,0.3-0.2,0.5,0l4.5,3.7
						c0.1,0.1,0.2,0.3,0,0.5C26.5,39,26.4,39,26.3,39z"/>
				</g>
			</g>
			<g>
				<g>
					<path fill="#8AD7F8" d="M24.6,48H9c0,0,6-9.3,1.2-15.9C2.8,24.1,9.1,18,9.1,18s0-0.1,0.1-0.1c1.7-1.9,4.5-2.4,6.7-1.3
						c6.7,3.2,8.6,9.5,8.6,9.5C24.1,27.2,21.3,36.4,24.6,48z"/>
				</g>
			</g>
			<g>
				<g>
					<path fill="#8AD7F8" d="M23.4,48H39c0,0-6-9.3-1.2-15.9c7.4-8,1.1-14.1,1.1-14.1s0-0.1-0.1-0.1c-1.7-1.9-4.5-2.4-6.7-1.3
						c-6.7,3.2-8.6,9.5-8.6,9.5C23.9,27.2,26.7,36.4,23.4,48z"/>
				</g>
			</g>
			<g>
				<path fill="#55C0EB" d="M24.6,26.1c0,0-0.5-1.6-1.8-3.6l-1.2,4.9c-0.7,2.7-2,10,0,18.9l0.4,1.7h2.7
					C21.3,36.4,24.1,27.2,24.6,26.1z"/>
			</g>
			<g>
				<path fill="#55C0EB" d="M26.1,48l0.4-1.7c2-8.9,0.6-16.2,0-18.9l-1.2-4.9c-1.4,2-1.8,3.7-1.8,3.7c0.5,1.1,3.3,10.3,0,21.9H26.1z
					"/>
			</g>
			<g>
				<circle fill="#415A6B" cx="26.3" cy="34.9" r="0.7"/>
			</g>
			<g>
				<circle fill="#415A6B" cx="26.1" cy="42.4" r="0.7"/>
			</g>
			<g>
				<circle fill="#415A6B" cx="22.1" cy="31.2" r="0.7"/>
			</g>
			<g>
				<circle fill="#415A6B" cx="21.7" cy="38.7" r="0.7"/>
			</g>
			<g>
				<g>
					<path fill="#E8EAE9" d="M26.1,42.8c-0.1,0-0.2,0-0.2-0.1l-4.4-3.7c-0.1-0.1-0.2-0.3,0-0.5c0.1-0.1,0.3-0.2,0.5,0l4.4,3.7
						c0.1,0.1,0.2,0.3,0,0.5C26.3,42.7,26.2,42.8,26.1,42.8z"/>
				</g>
			</g>
			<g>
				<g>
					<path fill="#E8EAE9" d="M26.3,35.3c-0.1,0-0.2,0-0.2-0.1l-4.2-3.7c-0.1-0.1-0.2-0.3,0-0.5c0.1-0.1,0.3-0.2,0.5,0l4.2,3.7
						c0.1,0.1,0.2,0.3,0,0.5C26.5,35.2,26.4,35.3,26.3,35.3z"/>
				</g>
			</g>
			<g>
				<circle fill="#415A6B" cx="21.7" cy="34.9" r="0.7"/>
			</g>
			<g>
				<circle fill="#415A6B" cx="21.9" cy="42.4" r="0.7"/>
			</g>
			<g>
				<circle fill="#415A6B" cx="25.9" cy="31.2" r="0.7"/>
			</g>
			<g>
				<circle fill="#415A6B" cx="26.3" cy="38.7" r="0.7"/>
			</g>
			<g>
				<g>
					<path fill="#E8EAE9" d="M21.9,42.8c-0.1,0-0.2,0-0.3-0.1c-0.1-0.1-0.1-0.4,0-0.5l4.4-3.7c0.1-0.1,0.4-0.1,0.5,0
						c0.1,0.1,0.1,0.4,0,0.5l-4.4,3.7C22.1,42.8,22,42.8,21.9,42.8z"/>
				</g>
			</g>
			<g>
				<g>
					<path fill="#E8EAE9" d="M21.7,35.3c-0.1,0-0.2,0-0.3-0.1c-0.1-0.1-0.1-0.4,0-0.5l4.2-3.7c0.1-0.1,0.4-0.1,0.5,0
						c0.1,0.1,0.1,0.4,0,0.5L22,35.2C21.9,35.3,21.8,35.3,21.7,35.3z"/>
				</g>
			</g>
		</g>
		<g>
			<g>
				<path fill="#8AD7F8" d="M12.1,18.2C13.2,8,21.2,1.4,23.8,1.4c2.9,0,10.6,6.7,11.8,16.8H37C35.9,7.6,27.8,0,23.8,0
					c-3.8,0-12,7.8-13.2,18.2H12.1z"/>
			</g>
		</g>
		<g>
			<g>
				<path fill="#8AD7F8" d="M22.3,10.5c-0.3,0-0.6-0.2-0.7-0.5c-2.4-8,1.8-9.9,1.9-9.9C23.8,0,24,0,24.2,0.1c0,0,4.4,2.8,2.4,8.8
					c-0.1,0.4-0.5,0.6-0.9,0.4c-0.4-0.1-0.6-0.5-0.4-0.9c1.4-4-0.6-6.2-1.4-6.9c-0.7,0.6-2.4,2.6-0.8,8c0.1,0.4-0.1,0.8-0.5,0.9
					C22.4,10.5,22.4,10.5,22.3,10.5z"/>
			</g>
		</g>
	</g>
</g>
</svg>
