<?xml version="1.0" encoding="utf-8"?>
<!-- Generator: Adobe Illustrator 18.0.0, SVG Export Plug-In . SVG Version: 6.00 Build 0)  -->
<!DOCTYPE svg PUBLIC "-//W3C//DTD SVG 1.1//EN" "http://www.w3.org/Graphics/SVG/1.1/DTD/svg11.dtd">
<svg version="1.1" id="Layer_1" xmlns="http://www.w3.org/2000/svg" xmlns:xlink="http://www.w3.org/1999/xlink" x="0px" y="0px"
	 viewBox="0 0 48 48" enable-background="new 0 0 48 48" xml:space="preserve">
<g>
	<g>
		<g>
			<g>
				<circle fill="#FFD15C" cx="24" cy="24" r="18.5"/>
			</g>
		</g>
		<g>
			<circle fill="#F3705A" cx="24" cy="24" r="18.5"/>
		</g>
		<g>
			<circle fill="#FFFFFF" cx="24" cy="24" r="13.4"/>
		</g>
		<g>
			<circle fill="#F3705A" cx="24" cy="24" r="9.1"/>
		</g>
		<g>
			<g>
				<g>
					<g>
						<g>
							<path fill="#FFFFFF" d="M18.4,23.4c0,3.6,5.6,6.5,5.6,6.5s5.6-2.9,5.6-6.5c0-1.6-1.3-2.9-2.9-2.9c-1.2,0-2.3,0.7-2.7,1.8
								c-0.4-1.1-1.5-1.8-2.7-1.8C19.7,20.4,18.4,21.8,18.4,23.4z"/>
						</g>
					</g>
				</g>
			</g>
			<g>
				<g>
					<path fill="#415A6B" d="M24,44C13,44,4,35,4,24C4,13,13,4,24,4c11,0,20,9,20,20C44,35,35,44,24,44z M24,7C14.6,7,7,14.6,7,24
						c0,9.4,7.6,17,17,17c9.4,0,17-7.6,17-17C41,14.6,33.4,7,24,7z"/>
				</g>
			</g>
			<g>
				<g>
					<path fill="#415A6B" d="M24,11.8c-0.8,0-1.5-0.7-1.5-1.5V1.5C22.5,0.7,23.2,0,24,0c0.8,0,1.5,0.7,1.5,1.5v8.9
						C25.5,11.2,24.8,11.8,24,11.8z"/>
				</g>
			</g>
			<g>
				<g>
					<path fill="#415A6B" d="M10.4,25.5H1.5C0.7,25.5,0,24.8,0,24c0-0.8,0.7-1.5,1.5-1.5h8.9c0.8,0,1.5,0.7,1.5,1.5
						C11.8,24.8,11.2,25.5,10.4,25.5z"/>
				</g>
			</g>
			<g>
				<g>
					<path fill="#415A6B" d="M24,48c-0.8,0-1.5-0.7-1.5-1.5v-8.9c0-0.8,0.7-1.5,1.5-1.5c0.8,0,1.5,0.7,1.5,1.5v8.9
						C25.5,47.3,24.8,48,24,48z"/>
				</g>
			</g>
			<g>
				<g>
					<path fill="#415A6B" d="M46.5,25.5h-8.9c-0.8,0-1.5-0.7-1.5-1.5c0-0.8,0.7-1.5,1.5-1.5h8.9c0.8,0,1.5,0.7,1.5,1.5
						C48,24.8,47.3,25.5,46.5,25.5z"/>
				</g>
			</g>
		</g>
	</g>
</g>
</svg>
