<?xml version="1.0" encoding="utf-8"?>
<!-- Generator: Adobe Illustrator 19.0.1, SVG Export Plug-In . SVG Version: 6.00 Build 0)  -->
<svg version="1.1" id="Layer_1" xmlns="http://www.w3.org/2000/svg" xmlns:xlink="http://www.w3.org/1999/xlink" x="0px" y="0px"
	 viewBox="0 0 48 48" style="enable-background:new 0 0 48 48;" xml:space="preserve">
<style type="text/css">
	.st0{fill:#66C6B9;}
	.st1{fill:#F3F3F3;}
	.st2{fill:#415A6B;}
	.st3{fill:#CED6E0;}
	.st4{fill:#F3705A;}
	.st5{fill:#E8EAE9;}
	.st6{fill:#4ABAA5;}
	.st7{fill:#F05540;}
	.st8{fill:#FFD15C;}
	.st9{fill:#55C0EB;}
	.st10{fill:#8AD7F8;}
	.st11{fill:#344A5E;}
	.st12{fill:#FFFFFF;}
	.st13{fill:#F7B64C;}
	.st14{fill:#ADB3BA;}
	.st15{fill:#38A892;}
	.st16{fill:#ED9845;}
	.st17{fill:#2D4251;}
	.st18{fill:#304556;}
	.st19{fill:#A5AAAD;}
	.st20{fill:#2D4456;}
	.st21{fill:#4FB0E0;}
	.st22{fill:#2D4354;}
	.st23{fill:#E54C38;}
	.st24{fill:#2B4456;}
	.st25{fill:#2B404F;}
</style>
<g>
	<g>
		<g>
			<path class="st4" d="M24.3,27.8l-5.5,6.9c-0.2,0.2-0.4,0.3-0.7,0.3l-3.6-0.4l-0.1,0.1l2.3-8l7.4,0.6
				C24.3,27.3,24.4,27.6,24.3,27.8z"/>
		</g>
		<g>
			<polygon class="st5" points="23.6,27.8 18.8,33.8 15.3,33.5 17.1,27.3 			"/>
		</g>
	</g>
	<g>
		<g>
			<path class="st8" d="M16.7,9.4c0,0,0.3,1,0.3,1.5s0.1,0.8,0.2,1c0.1,0.2-0.4,0.5-0.4,0.9c-0.1,0.4,0.3,0.8,0.2,1.4
				c-0.2,0.6-1,1.3-1.2,1.8c-0.1,0.5,0,0.9-0.4,1.1c-0.5,0.2-1.2,0.3-1.2,0.3s-0.3,1-0.3,2.2s0,1.1,0,1.1l-5.2-3.4
				c0,0,0.6-1.1,0.7-1.7C9.5,15.1,14.2,8.3,16.7,9.4z"/>
		</g>
		<g>
			<g>
				<path class="st8" d="M0.5,33c0,0,0.7,0.2,1.8,0.4s3.6,1.3,5.1,1.4s1.7,0.1,1.7,0.1l-0.9-4.4c0,0-2.1,1.2-3.6,0s-1.7-1.2-1.7-1.2
					L0.5,33z"/>
			</g>
			<g>
				<path class="st10" d="M1.7,32.7l-1.3-0.9l-0.3-0.5c0,0-0.3,0.1,0-1s0.3-1.6,0.7-2.5c0.3-0.8,0.5-2.2,0.8-2.6
					c0.3-0.5,0-0.8,0.2-1.8C2,22.5,2.4,21.3,3.2,21S4,20.6,4,20.6l1.2,8.2c0,0-0.3,1.2-0.8,2C3.8,31.5,1.7,32.7,1.7,32.7z"/>
			</g>
			<g>
				<path class="st9" d="M4.6,30.2C4.6,30.2,4.5,30.2,4.6,30.2c-0.2,0.1-0.4,0.1-0.8,0.3C3.1,30.8,2.9,31,2,31.2s-1.3,0.4-1.9,0.1
					c0,0-0.1,0.3,0,0.6s0.2,0.5,0.2,0.8c0,0.3,0.1,0.4,0.6,0.4c0.4,0,1.8,0,2.6-0.6s1.1-1.8,1.3-2.1"/>
			</g>
			<g>
				<path class="st9" d="M4.7,30.5C5,31,5.4,32.8,5.4,34c0,0.9,0.2,5.2,0.3,7.5h11.8c0.1-2.6,0.3-6.5,0.2-7.1
					c-0.2-0.8,0.4-3.9,0.4-3.9s0.3-8.5-0.2-8.8c-0.4-0.2-1.8-1-1.8-1l-1-1.1l-4.8-1.9c0,0-1.5,0.1-2.3,0.4c-0.8,0.3-4.1,2.3-4.7,2.8
					s-1,3-0.7,4.4C2.8,26.8,4.4,29.9,4.7,30.5z"/>
			</g>
			<g>
				<path class="st2" d="M43.4,41.5c0-0.2,0-0.4,0-0.4L42.9,38l-9.5,0.2L33,39.4c-0.3,0.7-0.5,1.4-0.6,2.1H43.4z"/>
			</g>
			<g>
				<ellipse class="st11" cx="43.9" cy="34.4" rx="1.9" ry="3.3"/>
			</g>
			<g>
				<g>
					<path class="st8" d="M38.2,12.6l-1.8,0.3c0,0-0.6,0.2-0.7,1.1c-0.1,0.9-0.3,1.3-0.2,1.5s-0.1,0.8-0.2,1.4
						c0,0.6,0.5,1.7,0.5,2.1c0,0.5,0,1,0.8,1.2v5.5l4.9-2.3c0,0-0.8-3.1-0.8-3.2s-0.3-0.9,0-1.9c0.3-1,1-2.7,1-2.7
						S41,12.9,38.2,12.6z"/>
				</g>
				<g>
					<path class="st3" d="M36.6,22l0.5,1.2l2.5-0.9l2,0.7l-0.8,15.2c0,0-3.3,2-7.3,0.7C33.9,31.6,33.5,22.3,36.6,22z"/>
				</g>
				<g>
					<path class="st4" d="M36.1,37.6L35,39l-0.6-1.4c0,0-0.2-6.3,0.5-8.7c0.8-2.4,1.8-4.7,1.8-4.7c0.4-0.2,0.6-0.2,0.8,0.1
						c-1.9,7.3-1.5,12.2-1.4,13C36.2,37.4,36.2,37.5,36.1,37.6z"/>
				</g>
				<path class="st4" d="M36.6,22.1l0.5,0.5c0,0,0.8,0.2,1.5-0.3c0.7-0.5,1-0.3,1-0.3l-0.4,0.9c0,0-1.4,0.9-1.6,1.4
					c0,0-0.4-0.2-0.8-0.1c0,0-0.2-1.4-0.6-1.8C36.2,22.4,36.2,22,36.6,22.1z"/>
				<g>
					<path class="st2" d="M35.7,14c0,0,0.1-0.5,0.4-0.7s0.4-0.2,0.4-0.1c0,0.1,0.9,0.2,1.6,0.1c0.7-0.1,1.5,0.2,1.4,0.6
						c-0.1,0.4-0.6,0.4-0.2,0.9c0.1,0.1,0.2,0.2,0.3,0.3c0.3,0.3,0.4,0.7,0.4,1.1v0.3h0.4c0,0-0.1-0.6,0.4-0.8
						c0.5-0.2,0.9,0.5,0.9,0.5s0.5-0.6,0.5-1.9s-0.6-2.4-2.4-2.9c-1.8-0.5-3.5,0.9-3.8,1.2S35.6,13.6,35.7,14z"/>
				</g>
				<g>
					<ellipse transform="matrix(0.9751 0.2218 -0.2218 0.9751 4.7053 -8.6791)" class="st8" cx="41" cy="16.6" rx="0.6" ry="1.1"/>
				</g>
				<path class="st13" d="M40.3,18.4c-1.5,2.2-3.7,1.9-3.7,1.9v1.5C39.8,20.6,40.3,18.4,40.3,18.4z"/>
			</g>
			<g>
				<path class="st5" d="M40.6,19.7c0,0,0,0.2-0.6,0.9s-1.4,1.6-1.4,1.6l2,1.9l1.1-2.9c0,0-0.3-0.6-0.6-0.9
					C40.9,20.1,40.9,19.8,40.6,19.7z"/>
			</g>
			<g>
				<path class="st2" d="M33.6,23.2l-1.2-1c0,0-0.4,0.1-0.9,1.6c-0.5,1.5-0.5,2.5-0.9,3.2c-0.3,0.7-1.1,1.4-1.6,2.1
					c-0.4,0.7-1.9,3.2-2.4,4.5s-0.5,1.3-0.5,1.3l2.5,1.3c0,0,0.5-1,1-1.4s0.8-0.7,1.2-1.2c0.4-0.5,1.6-1.7,1.7-1.9
					C32.9,31.4,33.6,23.2,33.6,23.2z"/>
			</g>
			<g>
				<path class="st13" d="M27.2,33.4c0,0,0.8,0.4,1.2,0.7c0.4,0.3,0.7,0.6,0.9,0.8c0.1,0.2,0.2,0.9-0.3,1c0,0,0.1,0.8-0.5,1.1
					c-0.6,0.3-1.6,0.4-1.6,0.4l-0.5-0.5l-0.2-0.6l-0.3-0.1c0,0-0.3-0.1-1.1-0.1s-1.6-0.5-1.8-0.9c-0.3-0.4-0.4-0.6-0.4-0.6l2.5-3.1
					c0,0,0.9,0.4,1.2,1C26.5,32.9,27.2,33.4,27.2,33.4z"/>
			</g>
			<g>
				<path class="st11" d="M32.1,33.7c-0.1,0.6-1.1,5.2-1.9,7.8h3.9c0.4-2,1-4.6,1-4.6s0.5-2,0.3-5.5c-0.2-3.5,0.2-8.3,0.5-9.2
					c0.3-0.9,0.5-1.2,0.5-1.2s-2.5,0.2-4,1.1c0,0,0.2,2.4,0.1,3.5C32.4,26.9,32.2,32.9,32.1,33.7z"/>
			</g>
			<g>
				<path class="st2" d="M36.5,20.9c0,0-1.2,0.6-1.6,1.2l0.2,0.3c0,0-0.7,0.5-0.9,0.9c-0.2,0.4,0.1,5.3,0.3,6.9
					c0.3,1.6,0.8,5,0.5,6.7c0,0,0.5-1.7,0.5-5.8C35.4,26.9,36.1,21.5,36.5,20.9z"/>
			</g>
			<g>
				<path class="st5" d="M36.6,20.3c0,0,0.1,1.6,0.5,2.2c0,0-0.6-0.6-0.8-0.3c-0.2,0.3-0.3,0.7-0.3,0.7s0.1-1,0.3-1.7
					C36.5,20.6,36.6,20.3,36.6,20.3z"/>
			</g>
			<g>
				<path class="st11" d="M40.4,40.5c0,0,0.2,0.4,0.4,1h4.3c-0.4-2.9-1-6.1-1.1-6.6c-0.2-1-0.4-3.8-0.4-4.8s0.4-6.1,2.9-6.5
					l-3.7-1.7l-2.4,2.7l-2.2,8.4c0,0,0.1,3,0.2,3.6C38.7,37.2,39.5,38.9,40.4,40.5z"/>
			</g>
			<g>
				<path class="st2" d="M41.3,20.6c0,0,0.1,0.4,0,0.7c-0.1,0.3-0.7,1.5-1.2,2.6c-0.5,1.1-1.8,5.4-1.9,7.1c-0.1,1.7,0.1,4.4,0.4,5.6
					c0,0-0.5-3.3,0.6-5.6c1.1-2.3,3.3-6.8,3.3-6.8l-0.6-0.8c0,0,0.8-0.1,0.9-0.6c0.1-0.4,0.1-1,0.1-1s-0.1-0.3-0.5-0.5
					C41.9,21.1,41.5,20.6,41.3,20.6z"/>
			</g>
			<g>
				<path class="st2" d="M44.3,35.7c-0.1,0-0.1,0.1-0.2,0.1c-0.4,0.4-0.8,1.8-1.3,2.5c-0.4,0.6-1.4,2.4-1.9,3.2h4.3
					c0.9-1.9,2-4.1,2.3-4.8c0.4-1.3,0.6-2.4,0.5-3.6c-0.1-1.2-0.6-3.4-0.8-4.1c-0.2-0.7-0.3-2.2-0.1-3.8c0.3-1.5-0.5-1.7-0.5-1.7
					c-2.4,0.4-2.9,5.2-2.9,6.4v0c0,1.5,0.3,4.6,0.5,5C44.3,35.4,44.8,35.5,44.3,35.7z"/>
			</g>
			<g>
				<path class="st8" d="M28.2,34.1c0,0,0.3,0.2,0.4,0.5s0.5,0.3,0.7,0.1l-0.1-0.4c0,0-0.1-0.6-0.4-0.6
					C28.6,33.6,28.4,33.7,28.2,34.1z"/>
			</g>
			<g>
				<g>
					<path class="st8" d="M25.8,36.1c0,0,0.4-0.1,0.5,0c0.2,0.1,0.2,0.2,0.2,0.4s-0.1,0.3-0.1,0.3s0.1,0.1,0.3,0.2
						c0.2,0.1,0.3,0.1,0.5,0s0.6-0.2,0.7-0.1c0.2,0.1,0.1,0.1,0.1,0.1s0-0.2,0.2-0.2s0.3,0.2,0.3,0.3c0,0.1-0.3,0.4-0.3,0.4
						s0.1,0.1-0.1,0.3c-0.2,0.3-0.1,0.3-0.4,0.4c-0.3,0.1-0.6,0.1-0.8,0.1c0,0-0.2-0.1-0.2-0.3c0,0-0.2,0-0.2-0.3
						c0,0-0.6-0.2-0.6-0.5c0-0.3,0.3-0.3,0.3-0.3l-0.2-0.2C26.1,36.6,25.7,36.7,25.8,36.1z"/>
				</g>
				<g>
					<path class="st13" d="M28.2,37C28.2,37,28.2,37.1,28.2,37c0,0.1,0,0.1,0,0.2c0,0,0,0.1-0.1,0.1c-0.1,0.1-0.3,0.2-0.6,0.3
						c-0.1,0-0.1,0-0.2,0c-0.1,0-0.1,0-0.2,0c-0.1,0-0.2,0-0.3,0c-0.2,0-0.3,0-0.3,0s0.1,0,0.3-0.1c0.1,0,0.2,0,0.3,0
						c0.1,0,0.1,0,0.2,0c0.1,0,0.1,0,0.2,0c0.1,0,0.2-0.1,0.3-0.1c0.1-0.1,0.2-0.1,0.2-0.2c0,0,0.1-0.1,0.1-0.1
						C28.2,37.2,28.2,37.1,28.2,37C28.2,37.1,28.2,37,28.2,37z"/>
				</g>
				<g>
					<path class="st13" d="M28.3,37.6C28.3,37.6,28.3,37.6,28.3,37.6c-0.1,0.1-0.1,0.2-0.1,0.2c0,0-0.1,0.1-0.1,0.1
						c0,0-0.1,0-0.1,0.1c-0.1,0-0.2,0.1-0.3,0.1c-0.1,0-0.2,0-0.3,0c-0.1,0-0.2,0-0.3,0c-0.1,0-0.1,0-0.2,0c0,0-0.1,0-0.1,0
						s0,0,0.1,0c0,0,0.1,0,0.2,0c0.1,0,0.2,0,0.3,0c0.1,0,0.2,0,0.3,0c0.1,0,0.2,0,0.3-0.1c0,0,0.1,0,0.1-0.1c0,0,0.1,0,0.1-0.1
						C28.2,37.7,28.3,37.7,28.3,37.6C28.3,37.6,28.3,37.6,28.3,37.6z"/>
				</g>
			</g>
			<g>
				<path class="st10" d="M21.4,33.9c0.1-0.1,0.2-0.3,0.3-0.4c0.7-0.5,1.4-1,1.8-2c0.3-0.4,0.5-0.7,0.8-1.1c0-0.1-0.1-0.1-0.1-0.1
					c-0.2-0.2-0.4-0.5-0.4-0.5s-1.2-1.6-1.7-2.2c-0.4-0.6-0.6-0.7-0.7-1.2c-0.1-0.5-1.6-4.4-3.6-4.8c0,0-1.8,1.1-1.9,3.9
					c-0.1,2.8,1.3,4.6,1.8,4.9c0.5,0.3,3.3,3.5,3.3,3.5S21.2,33.9,21.4,33.9z"/>
			</g>
			<g>
				<path class="st9" d="M23.8,29.8c0,0,0.2,0.4,0.1,0.8c0,0.3-0.6,1.3-0.9,1.7c-0.3,0.4-1.3,1.2-1.5,1.4c-0.3,0.2-0.5,0.3-0.5,0.3
					s0.4,0.3,0.6,0.5s0.7,0.7,1.2,0.8c0.5,0.1,1.4-0.9,1.8-1.6c0.3-0.7,0.9-2,0.6-2.4c-0.4-0.3-0.2-0.1-0.4-0.4
					C24.5,30.5,24.3,29.9,23.8,29.8z"/>
			</g>
			<g>
				<path class="st10" d="M7.9,18.1c0,0,2.2-0.1,3.6,0.3c1.4,0.4,2.5,1.1,3.3,1.5s1.2,0.8,1.2,0.8s0.1-1-0.7-1.6
					c-0.8-0.6-1.1-1.3-2.7-2c-1.3-0.5-2.9-0.6-3.6-0.6c-0.2,0-0.3,0.1-0.4,0.2C8.4,17.1,8,17.6,7.9,18.1z"/>
			</g>
		</g>
		<g>
			<path class="st2" d="M17.2,9.1c-0.3,0.4-0.3,0.2-0.4,0.8c0,0.5,0.1,1.2-0.1,1.6s-0.6,0.9-0.7,1.7h-0.4c0,0-0.2-1.3-1.3-1
				c-1.1,0.3-0.9,3.2-1.5,3.6c-0.6,0.4-3.2,0.1-3.4-0.1c0,0,0.2-0.9-0.1-1.7c-0.3-0.7-1.3-4.5,1-6.7S17.7,8.3,17.2,9.1z"/>
		</g>
		<g>
			<path class="st8" d="M14.9,14c-0.4,0.1-0.9-0.3-1-0.9c-0.1-0.6,0.1-1.2,0.5-1.3c0.4-0.1,0.9,0.3,1,0.9
				C15.5,13.3,15.3,13.9,14.9,14z"/>
		</g>
		<path class="st13" d="M14.2,17.4c0,0-0.5-0.4-0.8-0.8c0,0,0.2,0.6,0.6,1.2C14.1,17.6,14.2,17.4,14.2,17.4L14.2,17.4z"/>
	</g>
</g>
</svg>
