<?xml version="1.0" encoding="utf-8"?>
<!-- Generator: Adobe Illustrator 18.0.0, SVG Export Plug-In . SVG Version: 6.00 Build 0)  -->
<!DOCTYPE svg PUBLIC "-//W3C//DTD SVG 1.1//EN" "http://www.w3.org/Graphics/SVG/1.1/DTD/svg11.dtd">
<svg version="1.1" id="Layer_1" xmlns="http://www.w3.org/2000/svg" xmlns:xlink="http://www.w3.org/1999/xlink" x="0px" y="0px"
	 viewBox="0 0 48 48" enable-background="new 0 0 48 48" xml:space="preserve">
<g>
	<g>
		<g>
			<g>
				<path fill="#FFD15C" d="M47.6,3.6l-20,11.7c-0.9,0.5-2.1,0.2-2.6-0.7l0,0c-0.5-0.9-0.1-2.1,0.9-2.5l20.9-9.9
					c0.4-0.2,0.9,0,1.1,0.4l0,0C48.1,2.9,48,3.4,47.6,3.6z"/>
			</g>
			<g>
				
					<ellipse transform="matrix(0.8847 -0.4662 0.4662 0.8847 -3.3498 13.9368)" fill="#415A6B" cx="26.5" cy="13.7" rx="4.7" ry="3.5"/>
			</g>
		</g>
		<g>
			<g>
				<path fill="#FFD15C" d="M0.7,1.7l22.6,5.2c1,0.2,2-0.4,2.2-1.5l0,0c0.2-1-0.5-2-1.6-2.2L1,0C0.5-0.1,0.1,0.3,0,0.7l0,0
					C-0.1,1.1,0.2,1.6,0.7,1.7z"/>
			</g>
			<g>
				<path fill="#415A6B" d="M19.2,4.2c-0.3,1.9,1.4,3.9,4,4.3C25.7,9,28,7.9,28.4,5.9c0.3-1.9-1.4-3.9-4-4.3S19.6,2.3,19.2,4.2z"/>
			</g>
		</g>
		<g>
			<g>
				<g>
					<polygon fill="#F3705A" points="46.1,46.1 2.2,46.1 1.9,20.5 46.1,20.5 					"/>
				</g>
			</g>
			<g>
				<g>
					<g>
						<g>
							<polygon fill="#415A6B" points="3.4,44.6 11.5,22.4 18.9,44.6 21.2,44.6 28.6,22.5 36.1,44.6 38.4,44.6 46.6,21 45.3,21 
								37.2,44.2 29.5,21 27.8,21 20.1,44.1 12.3,21 10.6,21 2.1,44.6 							"/>
						</g>
					</g>
				</g>
			</g>
			<g>
				<g>
					<path fill="#F3F3F3" d="M46.1,22.4H1.9c-1,0-1.9-0.8-1.9-1.9s0.8-1.9,1.9-1.9h44.2c1,0,1.9,0.8,1.9,1.9S47.2,22.4,46.1,22.4z"
						/>
				</g>
				<g>
					<path fill="#F3F3F3" d="M46.1,48H2.2c-1,0-1.9-0.8-1.9-1.9c0-1,0.8-1.9,1.9-1.9h43.9c1,0,1.9,0.8,1.9,1.9
						C48,47.2,47.2,48,46.1,48z"/>
				</g>
			</g>
		</g>
	</g>
</g>
</svg>
