<?xml version="1.0" encoding="utf-8"?>
<!-- Generator: Adobe Illustrator 18.0.0, SVG Export Plug-In . SVG Version: 6.00 Build 0)  -->
<!DOCTYPE svg PUBLIC "-//W3C//DTD SVG 1.1//EN" "http://www.w3.org/Graphics/SVG/1.1/DTD/svg11.dtd">
<svg version="1.1" id="Layer_1" xmlns="http://www.w3.org/2000/svg" xmlns:xlink="http://www.w3.org/1999/xlink" x="0px" y="0px"
	 viewBox="0 0 48 48" enable-background="new 0 0 48 48" xml:space="preserve">
<g>
	<g>
		<g>
			<g>
				<g>
					<path fill="#344A5E" d="M13.3,44.7l-1.2-1.2l5.4-5.4V26.2h1.8v12.1c0,0.2-0.1,0.5-0.3,0.6L13.3,44.7z"/>
				</g>
			</g>
			<g>
				<g>
					<circle fill="#66C6B9" cx="12.7" cy="44" r="4"/>
				</g>
			</g>
		</g>
		<g>
			<g>
				<path fill="#344A5E" d="M11.8,38H4v-1.8h7v-9.1h1.8v9.9C12.7,37.6,12.3,38,11.8,38z"/>
			</g>
		</g>
		<g>
			<g>
				<circle fill="#F3705A" cx="4" cy="37.1" r="4"/>
			</g>
		</g>
		<g>
			<g>
				<g>
					<path fill="#344A5E" d="M34.7,44.7L29,39c-0.2-0.2-0.3-0.4-0.3-0.6V26.2h1.8V38l5.4,5.4L34.7,44.7z"/>
				</g>
			</g>
			<g>
				<g>
					<circle fill="#F3705A" cx="35.3" cy="44" r="4"/>
				</g>
			</g>
		</g>
		<g>
			<g>
				<g>
					<rect x="23.1" y="26.2" fill="#344A5E" width="1.8" height="17.8"/>
				</g>
			</g>
			<g>
				<g>
					<circle fill="#FFD15C" cx="24" cy="44" r="4"/>
				</g>
			</g>
		</g>
		<g>
			<g>
				<path fill="#344A5E" d="M44,38h-7.9c-0.5,0-0.9-0.4-0.9-0.9v-9.9h1.8v9.1h7V38z"/>
			</g>
		</g>
		<g>
			<g>
				<circle fill="#55C0EB" cx="44" cy="37.1" r="4"/>
			</g>
		</g>
		<g>
			<g>
				<g>
					<g>
						<g>
							<g>
								<path fill="#FFD15C" d="M16.1,15.1c-0.2,0.8-0.7,1.5-1.1,1.4c-0.4-0.1-0.7-0.8-0.5-1.7c0.2-0.8,0.7-1.5,1.1-1.4
									C16.1,13.5,16.3,14.3,16.1,15.1z"/>
							</g>
						</g>
					</g>
					<g>
						<g>
							<g>
								<path fill="#FFD15C" d="M6.9,15.1c0.2,0.8,0.7,1.5,1.1,1.4c0.4-0.1,0.7-0.8,0.5-1.7c-0.2-0.8-0.7-1.5-1.1-1.4
									C7,13.5,6.7,14.3,6.9,15.1z"/>
							</g>
						</g>
					</g>
					<g>
						<g>
							<ellipse fill="#415A6B" cx="11.4" cy="12.3" rx="4.4" ry="4.4"/>
						</g>
					</g>
					<g>
						<g>
							<path fill="#415A6B" d="M15.8,13c-0.3,2.4-1.4,4.4-2.5,4.4s-1.7-2-1.4-4.4c0.3-2.4,1.4-4.4,2.5-4.4S16.1,10.6,15.8,13z"/>
						</g>
					</g>
					<g>
						<g>
							<path fill="#344A5E" d="M23,28.3l-0.8-3.7c-0.3-1.3-1.2-2.4-2.5-2.8L15,20.3l-3.5,1.4L8,20.3l-4.7,1.5
								c-1.3,0.4-2.2,1.5-2.5,2.8L0,28.3H23z"/>
						</g>
					</g>
					<g>
						<g>
							<polygon fill="#E8EAE9" points="12.8,28.3 14.3,22.2 8.3,22.2 10.1,28.3 							"/>
						</g>
					</g>
					<g>
						<g>
							<polygon fill="#F3705A" points="9.5,28.3 13.5,28.3 12.2,24.2 12.9,23 11.5,21.7 10.1,23 10.8,24.2 							"/>
						</g>
					</g>
					<g>
						<path fill="#F3F3F3" d="M11.5,21.7c0,0,2.4-1.6,2.6-3l0.9,1.6l-1.7,3.7L11.5,21.7z"/>
					</g>
					<g>
						<path fill="#F3F3F3" d="M11.5,21.7c0,0-2.4-1.6-2.6-3L8,20.3l1.7,3.7L11.5,21.7z"/>
					</g>
					<g>
						<path fill="#F7B64C" d="M8.9,17v1.7c0.2,1.4,2.6,3,2.6,3s2.4-1.6,2.6-3l0-1.7H8.9z"/>
					</g>
					<g>
						<g>
							<path fill="#FFD15C" d="M7.6,13c-0.1,0.4-0.1,0.8-0.1,1.3c0,3,1.8,5.5,4,5.5c2.2,0,4-2.5,4-5.5c0-1.6-0.5-3.1-1.3-4.1
								C12.7,11.9,10.5,13,7.6,13z"/>
						</g>
					</g>
				</g>
				<g>
					<path fill="#415A6B" d="M14.7,19.7"/>
				</g>
				<g>
					<g>
						<polygon fill="#415A6B" points="15.1,28.3 17.5,25 15.5,23.6 17.5,22.2 14.5,19.3 12.6,28.3 						"/>
					</g>
				</g>
				<g>
					<g>
						<polygon fill="#415A6B" points="7.9,28.3 10.4,28.3 8.5,19.3 5.6,22.2 7.5,23.6 5.6,25 						"/>
					</g>
				</g>
			</g>
			<g>
				<g>
					<g>
						<g>
							<g>
								<path fill="#FFD15C" d="M41.1,15.1c-0.2,0.8-0.7,1.5-1.1,1.4s-0.7-0.8-0.5-1.7c0.2-0.8,0.7-1.5,1.1-1.4
									C41,13.5,41.3,14.3,41.1,15.1z"/>
							</g>
						</g>
					</g>
					<g>
						<g>
							<g>
								<path fill="#FFD15C" d="M31.9,15.1c0.2,0.8,0.7,1.5,1.1,1.4c0.4-0.1,0.7-0.8,0.5-1.7c-0.2-0.8-0.7-1.5-1.1-1.4
									C31.9,13.5,31.7,14.3,31.9,15.1z"/>
							</g>
						</g>
					</g>
					<g>
						<g>
							<ellipse fill="#415A6B" cx="35.9" cy="12.3" rx="3.9" ry="4.4"/>
						</g>
					</g>
					<g>
						<g>
							<path fill="#415A6B" d="M40.7,13c-0.4,2.4-1.9,4.4-3.4,4.4c-1.5,0-2.3-2-1.9-4.4s1.9-4.4,3.4-4.4S41.2,10.6,40.7,13z"/>
						</g>
					</g>
					<g>
						<g>
							<path fill="#344A5E" d="M48,28.3l-0.8-3.7c-0.3-1.3-1.2-2.4-2.5-2.8L40,20.3l-3.5,1.4L33,20.3l-4.7,1.5
								c-1.3,0.4-2.2,1.5-2.5,2.8L25,28.3H48z"/>
						</g>
					</g>
					<g>
						<g>
							<polygon fill="#E8EAE9" points="37.8,28.3 39.3,22.2 33.3,22.2 35,28.3 							"/>
						</g>
					</g>
					<g>
						<g>
							<polygon fill="#F3705A" points="34.5,28.3 38.5,28.3 37.2,24.2 37.9,23 36.5,21.7 35.1,23 35.8,24.2 							"/>
						</g>
					</g>
					<g>
						<path fill="#F3F3F3" d="M36.5,21.7c0,0,2.4-1.6,2.6-3l0.9,1.6l-1.7,3.7L36.5,21.7z"/>
					</g>
					<g>
						<path fill="#F3F3F3" d="M36.5,21.7c0,0-2.4-1.6-2.6-3L33,20.3l1.7,3.7L36.5,21.7z"/>
					</g>
					<g>
						<path fill="#F7B64C" d="M33.9,17v1.7c0.2,1.4,2.6,3,2.6,3s2.4-1.6,2.6-3l0-1.7H33.9z"/>
					</g>
					<g>
						<g>
							<path fill="#FFD15C" d="M38.1,10.6c-1.6,0.8-3.4,1.3-5.2,1.4c-0.2,0.7-0.4,1.4-0.4,2.3c0,3,1.8,5.5,4,5.5c2.2,0,4-2.5,4-5.5
								c0-0.5,0-0.9-0.1-1.3C39.4,12.3,38.7,11.5,38.1,10.6z"/>
						</g>
					</g>
				</g>
				<g>
					<path fill="#415A6B" d="M39.7,19.7"/>
				</g>
				<g>
					<g>
						<polygon fill="#415A6B" points="40.1,28.3 42.4,25 40.5,23.6 42.4,22.2 39.5,19.3 37.6,28.3 						"/>
					</g>
				</g>
				<g>
					<g>
						<polygon fill="#415A6B" points="32.9,28.3 35.4,28.3 33.5,19.3 30.5,22.2 32.5,23.6 30.5,25 						"/>
					</g>
				</g>
			</g>
			<g>
				<g>
					<g>
						<rect x="20.5" y="19.4" fill="#CED6E0" width="6.9" height="8.9"/>
					</g>
				</g>
				<g>
					<g>
						<g>
							<polygon fill="#F05540" points="25,21.7 26,20.8 24,18.8 22,20.8 23,21.7 							"/>
						</g>
					</g>
					<g>
						<g>
							<polygon fill="#F3705A" points="26.3,28.3 25,21.7 23,21.7 21.8,28.3 							"/>
						</g>
					</g>
				</g>
				<g>
					<g>
						<path fill="#8AD7F8" d="M37.9,28.3l-1.1-4.4c-0.5-2.1-2.1-3.7-4.2-4.2l-3.3-0.8c-1.4,1.8-2.7,5.4-3.9,9.4H37.9z"/>
					</g>
				</g>
				<g>
					<g>
						<path fill="#8AD7F8" d="M22.6,28.3c-1.3-4-2.6-7.6-3.9-9.4l-3.3,0.8c-2.1,0.5-3.7,2.1-4.2,4.2l-1.1,4.4H22.6z"/>
					</g>
				</g>
				<g>
					<g>
						<polygon fill="#F7B64C" points="20.9,12.4 20.9,16.5 24,18.8 27.1,16.5 27.1,12.4 						"/>
					</g>
				</g>
				<g>
					<g>
						<g>
							<path fill="#415A6B" d="M21.4,0.1c0,1.1-0.7,1.8-1.5,2.2c-1.4,0.6-2.2,2.1-2.2,3.8c0,0,0,0,0,0c0,5,2.9,8.7,6.4,8.7
								c2.8,0,5.2-2.3,6-5.8c0.4-1.6,0.4-3.2-0.1-4.7C29.3,2,27.5-0.4,21.4,0.1z"/>
						</g>
					</g>
					<g>
						<g>
							<path fill="#FFD15C" d="M23,4.3c-1.2,0.9-2.6,1.5-4.1,1.7c-0.3,0.9-0.4,2-0.4,3c0,4.4,2.5,7.9,5.5,7.9s5.5-3.5,5.5-7.9
								c0-0.4,0-0.7-0.1-1.1C27,7.5,24.7,6.2,23,4.3z"/>
						</g>
					</g>
					<g>
						<g>
							<g>
								
									<ellipse transform="matrix(0.9615 0.2747 -0.2747 0.9615 4.0708 -7.6361)" fill="#FFD15C" cx="29.3" cy="10.7" rx="1.1" ry="1.9"/>
							</g>
						</g>
						<g>
							<g>
								
									<ellipse transform="matrix(-0.9615 0.2747 -0.2747 -0.9615 39.6209 15.8864)" fill="#FFD15C" cx="18.7" cy="10.7" rx="1.1" ry="1.9"/>
							</g>
						</g>
					</g>
				</g>
				<g>
					<g>
						<g>
							<g>
								<polygon fill="#F3F3F3" points="27.1,16.5 24,18.8 25.8,21.3 28.2,18.3 								"/>
							</g>
						</g>
						<g>
							<g>
								<polygon fill="#F3F3F3" points="20.9,16.5 24,18.8 22.2,21.3 19.8,18.3 								"/>
							</g>
						</g>
					</g>
				</g>
				<g>
					<g>
						<g>
							<polygon fill="#55C0EB" points="27.4,28.3 31.1,23.3 28.1,21.6 31.6,20.8 27.7,17.5 25.1,28.3 							"/>
						</g>
					</g>
					<g>
						<g>
							<polygon fill="#55C0EB" points="16.9,23.3 20.6,28.3 22.9,28.3 20.3,17.5 16.4,20.8 19.9,21.6 							"/>
						</g>
					</g>
				</g>
			</g>
		</g>
	</g>
</g>
</svg>
