<?xml version="1.0" encoding="utf-8"?>
<!-- Generator: Adobe Illustrator 19.0.1, SVG Export Plug-In . SVG Version: 6.00 Build 0)  -->
<svg version="1.1" id="Layer_1" xmlns="http://www.w3.org/2000/svg" xmlns:xlink="http://www.w3.org/1999/xlink" x="0px" y="0px"
	 viewBox="0 0 48 48" style="enable-background:new 0 0 48 48;" xml:space="preserve">
<style type="text/css">
	.st0{fill:#66C6B9;}
	.st1{fill:#F3F3F3;}
	.st2{fill:#415A6B;}
	.st3{fill:#CED6E0;}
	.st4{fill:#F3705A;}
	.st5{fill:#E8EAE9;}
	.st6{fill:#4ABAA5;}
	.st7{fill:#F05540;}
	.st8{fill:#FFD15C;}
	.st9{fill:#55C0EB;}
	.st10{fill:#8AD7F8;}
	.st11{fill:#344A5E;}
	.st12{fill:#FFFFFF;}
	.st13{fill:#F7B64C;}
	.st14{fill:#ADB3BA;}
	.st15{fill:#38A892;}
	.st16{fill:#ED9845;}
	.st17{fill:#2D4251;}
	.st18{fill:#304556;}
	.st19{fill:#A5AAAD;}
	.st20{fill:#2D4456;}
	.st21{fill:#4FB0E0;}
	.st22{fill:#2D4354;}
	.st23{fill:#E54C38;}
	.st24{fill:#2B4456;}
	.st25{fill:#2B404F;}
</style>
<g>
	<g>
		<path class="st8" d="M12.1,12.1c0,0,0,0.6,0,0.8c0,0.2-0.1,0.4-0.2,0.5c0,0.2,0,0.4,0.2,0.7c0.2,0.3,1,1.1,1,1.1s0.2,0.3-0.1,0.6
			c-0.3,0.3-0.6,0.3-0.6,0.3s0.3,0.7-0.1,0.8c0,0,0.3,0,0.1,0.4s0.1,1,0.2,1.4s-0.3,0.8-1.2,0.7c-0.9,0-1.4,0-1.6,0.4
			s-0.4,1.2-0.4,1.2l3.2,2.5l-4,3.2l-3-6.6l0.9-10c0,0,2.8-0.5,3.7-0.3C11.1,10,12.2,11.2,12.1,12.1z"/>
	</g>
	<path class="st13" d="M10,19.7c0.1-0.2,0.4-0.3,0.9-0.4l0,0c0,0-2-0.2-3.6-1.9c0,0,1,1.5,2.6,2.5C9.9,19.9,10,19.8,10,19.7z"/>
	<g>
		<path class="st3" d="M12,40.8h1.6c1-0.2,2.2-0.8,2.6-2.7c0.8-3.4-2.4-14.4-5.6-16.8c0,0,0.4,1.9,0,2.8c-0.4,0.9-4.6-2.7-4.8-3
			c-0.3-0.3,5.1,15.2,5.1,15.2L12,40.8z"/>
	</g>
	<g>
		<path class="st18" d="M3.2,38.6C3,39.3,2.9,40,2.7,40.8h11c0.1-2.6,0.1-5.1,0.1-5.1c-0.8-5.1-6.8-13.2-6.8-13.2l-3.1-1.5
			c0,0-3.5,1.8-3.7,3.8s1.9,8.7,2.5,10C3.1,36.3,3.5,37.3,3.2,38.6z"/>
	</g>
	<g>
		<path class="st18" d="M15.4,40.8h1.1L16,32.8h-0.5c0,0,0,3.6,0,5.4C15.5,38.8,15.4,39.8,15.4,40.8z"/>
	</g>
	<g>
		<path class="st11" d="M16,39.4l0.2,1.4h0.4c-0.1-3.9-0.2-8.9-0.3-9.7c-0.1-1.3-1.7-7-1.9-7.6c-0.2-0.5-0.8-1.7-1.2-1.7
			c-0.4-0.1-2.9-0.8-2.9-0.8c0,1.8,3.8,5.8,5,8.2C16.6,31.6,16,39.4,16,39.4z"/>
	</g>
	<g>
		<path class="st3" d="M25.3,39.1c0,0,0,1-0.7,0.8c-0.8-0.2-1-4.1-0.7-4.3c0,0,1.4-0.3,2.1,0.3c0.6,0.6,0.7,0.6,0.7,0.6L25.3,39.1z"
			/>
	</g>
	<g>
		<path class="st13" d="M22.2,35.7l-1-0.5c-0.1-0.1-0.3-0.1-0.5,0c-0.3,0.2-1,0.5-1.1,0.6c-0.3,0.1-0.3,0.1-0.3,0.1l-0.1,2.8
			c0,0,1.6,0.5,2.2,0.7s0.4,0.8,0.7,0.9s0.5,0,0.5-0.4c0,0,0.4,0.1,0.6-0.2s0.1-0.3,0.1-0.3s0.5,0,0.6-0.2s0.1-0.4,0.1-0.4
			s0.2,0.1,0.4,0s0.1-0.2,0.1-0.2s0.3-0.2,0.3-0.6C24.5,37.7,23.7,35.8,22.2,35.7z"/>
	</g>
	<g>
		<path class="st8" d="M24.8,35.3l-0.9,0.2c-0.1,0-0.2,0-0.2,0c-0.2-0.1-0.6-0.3-0.8-0.4C22.6,35,22.3,34.8,22,35s-0.5,0.3-0.5,0.3
			l-0.9,0c0,0-0.3,0.6,0.5,0.8c0.2,0.1,0.4,0.1,0.6,0c0.3,0,0.9-0.1,1.3,0.3c0.6,0.6,1.3,1.3,1.4,1.4c0.1,0.1,0.1,0.2,0.1,0.2
			s0.1-0.1,0.2-0.1s1.2,0.1,1.2,0.1S27.2,36,24.8,35.3z"/>
	</g>
	<g>
		<path class="st2" d="M31.2,21.2L30.5,21c0,0-0.6,0-1,0.7c-0.4,0.7-0.2,1.4-0.2,2c0,0.6-0.5,2.6-0.7,3.7c-0.3,1.1-0.4,4.9-0.4,5.3
			c0,0.4-0.2,0.5-0.2,0.8s-0.1,0.1-0.6,0.6c-0.5,0.5-3.3,1.3-3.5,1.5c0,0,1.2-0.3,1.5,1c0.3,1.3,0.1,1.7-0.1,2.2s-0.4,1.1-0.7,1.1
			c0,0,0,0.2,0.4,0c0.4-0.2,0.7-0.5,1.1-0.6c0.4-0.1,0.7-0.6,0.9-0.7c0.2-0.1,0.4,0.1,0.7-0.1c0.3-0.1,0.5-0.4,0.7-0.5
			c0.2-0.1,0.8-0.4,0.8-0.4L31.2,21.2z"/>
	</g>
	<g>
		<g>
			<path class="st4" d="M40.7,12.6c0,0,0.5-0.1,1.2,0.9c0.7,1,1.8,4.9,2.1,6.1c0.3,1.2,1.7,3.3,1.7,3.3l-2.5-0.5
				c0,0-2.8-0.9-3.2-1.8c-0.4-0.9-1-2-1-2.8c0.1-0.8,1.1-1.8,0.9-3.6c-0.2-1.8-0.2-1.8-0.2-1.8L40.7,12.6z"/>
		</g>
		<g>
			<path class="st8" d="M39.7,17.6c-0.1-0.9,1.5-6.6,0.4-7.2C39,9.9,32.9,9.2,32.5,10c-0.3,0.9-0.4,2.3-0.4,2.8
				c0,0.5,0.5,0.9,0.5,1.1c0,0.2-0.5,1.5-0.6,1.7c-0.1,0.2-0.1,0.4,0.1,0.6c0.2,0.2,0.9,0.2,0.9,0.2c0.1,0.1,0,0.7,0,0.7
				c-0.1,0.3,0.2,0.4,0.2,0.4c-0.1,0-0.3,0.3,0,0.5c0.2,0.2,0,0.9,0,0.9c0.3,1.1,2.1,0.8,2.1,0.8l0,0.5l-2.8,4.5v2.2H40l1-6.7
				C40.7,19.8,39.7,18.5,39.7,17.6z"/>
		</g>
		<g>
			<path class="st13" d="M35.2,20.1l-1.1,2.2c3.4-2.4,4.4-5.4,4.4-5.4c-1.1,1.8-3.3,2.7-3.3,2.7l0,0L35.2,20.1z"/>
		</g>
		<g>
			<path class="st1" d="M37.7,40.8l1.7-8.7l1.1-10.7c0,0-0.8,1.2-2.3,2.1s-3.8,2-3.8,1.3s-0.5-2.7-0.5-2.7s-2,2.4-2,2.5
				c-0.1,0.1-2.4,13.3-3,16.1H37.7z"/>
		</g>
		<g>
			<path class="st11" d="M41.6,40.8c-0.4-7.9,2.6-15,3.6-16.1c1.1-1.4,2.2-2.1,2.2-2.1s-0.1-0.1-0.9-0.4c-0.8-0.3-3.4-1.3-3.4-1.3
				l-0.3,0.2c-1-0.5-4.5,5.4-5.8,7.9c-2.5,3.3-2.9,6.3-2.9,6.3s0,3.1,0.1,5.5H41.6z"/>
		</g>
		<g>
			<path class="st4" d="M40.5,8.5c-1.4-1.5-6.2-2.6-8,1.5c0,0,1.4,0.4,2,1.2c0.7,0.7,0.8,1.4,1.7,1.7c0.9,0.3,0.9,1,0.8,1.5l0.6,0.1
				c0-0.1,0.1-0.5,0.5-0.9c0.6-0.5,1.8-0.2,1.7,0.7c0,0.9-0.6,1.7-0.2,3.4c0,0,0.3-2,0.9-2.7c0.5-0.8,0.9-1.1,1-1.8
				C41.6,12.3,41.9,9.9,40.5,8.5z"/>
		</g>
		<g>
			<ellipse transform="matrix(0.9883 0.1524 -0.1524 0.9883 2.6375 -5.764)" class="st8" cx="38.9" cy="14.3" rx="0.8" ry="1.4"/>
		</g>
	</g>
	<g>
		<path class="st2" d="M41,20.1c0,0,1.6,0.7,1.9,0.7s-0.2,1.1-0.4,1.2s-1.1,0-1.1,0l0.5,1.2c0,0-2.9,4.1-4.3,5.5
			c-1.4,1.5-3.6,4.4-3.9,6.5c0,0,0.1-2.4,1.5-5.3C36.7,27.1,40.5,21.8,41,20.1z"/>
	</g>
	<g>
		<path class="st11" d="M30.1,40.8c0.2-0.8,0.3-1.5,0.3-1.5l0.7-4l3.1-15c0,0-1.8,0.4-2.9,0.5c-1.1,0.2-1.4,0.3-1.6,0.7
			c-0.2,0.4,0,4-0.2,4.7c-0.2,0.7-0.6,4.2-0.6,5.4c0,1.2,0,7.5-0.6,8.4c-0.2,0.3-0.3,0.5-0.4,0.8H30.1z"/>
	</g>
	<g>
		<path class="st11" d="M30.1,40.8c0.2-0.8,0.3-1.5,0.3-1.5l0.7-4l3.1-15c0,0-1.8,0.4-2.9,0.5c-1.1,0.2-1.4,0.3-1.6,0.7
			c-0.2,0.4,0,4-0.2,4.7c-0.2,0.7-0.6,4.2-0.6,5.4c0,1.2,0,7.5-0.6,8.4c-0.2,0.3-0.3,0.5-0.4,0.8H30.1z"/>
	</g>
	<g>
		<path class="st2" d="M34.9,21.2c-0.3,0.7-1.2,3.9-1.7,6.3c-0.5,2.4-1.8,6.8-2.8,11.8c0.1-0.3,0.5-3,0.5-3.8c0-0.8-0.3-3.8,0-6.4
			c0.3-2.6,1.1-6.7,1.1-6.7l1.3-0.6l-0.5-0.5l2.3-1.8l0,0.5C35.2,20.1,35.2,20.5,34.9,21.2z"/>
	</g>
	<g>
		<path class="st2" d="M46.2,40.8c0.6-2.4,1.2-5.3,1.3-6.5c0.1-1.7,0.6-8.9,0.5-10.3c-0.1-1.4-0.7-1.4-0.7-1.4c0,0-1,0.7-2.2,2.1
			c-0.5,0.6-1.6,3-2.4,6.2c0,0,0,0,0,0c0,0.1-0.5,4.5-0.6,5.5c-0.1,0.9-0.3,2.8-0.5,4.4c0,0,0,0,0,0H46.2z"/>
	</g>
	<g>
		<path class="st8" d="M21,40c0,0,0.1,0.4,0.5,0.3c0.4-0.1,0.8-0.5,0.7-0.8s-0.2-0.3-0.3-0.2c0,0,0.3-0.2,0.2-0.5
			c-0.2-0.3-0.4,0-0.4,0s0-0.2-0.4-0.2c-0.5,0-0.7,0.3-0.8,0.4l-0.3,0.1c0,0-0.1,0.3-0.1,0.4c0.1,0.2,0.2,0.1,0.2,0.1s0,0.3,0.2,0.4
			S21,40,21,40z"/>
	</g>
	<g>
		<path class="st1" d="M19.4,35.7l0.7-0.1c0,0,0.7,2.2-0.2,4.2l-1.5,0.3L19.4,35.7z"/>
	</g>
	<g>
		<path class="st2" d="M18.9,40.5c0.8-1.9,1.1-3.6,0.7-5.2c0,0-2-0.2-2.7,0c-0.7,0.2-0.4,0.2-1.1,0.1s-1.6,0.2-1.9,0.2
			c-0.3,0-1.4-0.1-2-0.2c-0.6-0.1-1.4-0.3-1.6-0.2c-0.1,0-0.2,0.1-0.3,0.1C10,35.3,9.6,35,9.4,35c-0.2,0-0.2,0-0.4-0.2
			c-0.2-0.2-1.3-2.1-1.6-3.1c-0.4-0.9-1.3-3.9-1.3-4c0-0.1-0.4-2.1-1.5-3.2S2.3,22.2,1,23s-1,3.8-0.9,4.4s1.1,4.1,2.8,7
			s2.9,4.6,3.4,4.9s2.3,0.6,2.9,0.6c0.7,0,5.5,0.2,6.4,0.2C16.5,40.2,18.9,40.5,18.9,40.5z"/>
	</g>
	<g>
		<g>
			<path class="st2" d="M13.7,35.7c0-0.4-0.3-1.4-1.4-3.3c-1.5-2.4-5.9-7.6-5.9-7.6L7,24.1L5.6,24c-0.1-0.7-1.4-2.1-1.8-2.6
				c-0.1-0.1-0.1-0.2,0-0.3c0.4-0.3,0.8-0.8,1.1-1.1c0.1-0.1,0.2-0.3,0.3-0.5c0,0,0.2,0.5,1.2,1.6c1,1.1,4.8,7.6,5.5,8.6
				c0.7,1,1.2,3,1.2,3C13.6,34.2,13.7,35.3,13.7,35.7z"/>
			<path class="st2" d="M13.7,35.9c0,0,0-0.1,0-0.2C13.7,35.9,13.7,35.9,13.7,35.9z"/>
		</g>
		<g>
			<path class="st2" d="M9.6,20.9c0,0,1.5,2.3,2.5,3.9S15,30,15.2,31c0.2,1,0.8,8.4,0.8,8.4s0.6-6.6,0.3-8.3
				c-0.3-1.7-2.2-5.7-2.7-6.4c-0.5-0.7-0.5-0.7-0.5-0.7L12,23.7l0.4-0.5C12.4,23.3,10.6,20.6,9.6,20.9z"/>
		</g>
	</g>
	<g>
		<path class="st4" d="M2.2,17.3c0,0-0.7-3.9,1.3-6.9s7.2-1.2,8-0.2c0.8,0.9,0.9,2.1,0.7,2.7c0,0-0.2-1.1-0.7-1.8S10,10.2,10,10.2
			s-0.1,0.5,0.1,1.1s0.5,1.3,0.4,1.8c-0.1,0.5-0.5,1.4-0.5,1.4s0.4-1,0.3-1.7c-0.1-0.7-0.8-1.8-0.8-1.8s0.4,2,0.1,2.8
			c-0.2,0.8-0.8,2.3-0.7,3.1c0.1,0.8,0.4,2.3,0.4,2.3s-0.4-0.7-0.6-1.3c-0.2-0.6,0,0.1,0,0.1s-0.6,1.6-0.4,2.5s0.4,1.4,0.4,1.4
			s-1.4-1.2-1.8-3.4c0,0-0.1,1.3,0.6,2.4c0,0-0.7-0.6-0.8-1.4c0,0,0,1.9,0.7,3.3c0,0-1.3-1-1.6-1.7c0,0-0.3,0.7,0,1.3
			C5.9,22.3,3.2,20.5,2.2,17.3"/>
	</g>
</g>
</svg>
