<?xml version="1.0" encoding="utf-8"?>
<!-- Generator: Adobe Illustrator 18.0.0, SVG Export Plug-In . SVG Version: 6.00 Build 0)  -->
<!DOCTYPE svg PUBLIC "-//W3C//DTD SVG 1.1//EN" "http://www.w3.org/Graphics/SVG/1.1/DTD/svg11.dtd">
<svg version="1.1" id="Layer_1" xmlns="http://www.w3.org/2000/svg" xmlns:xlink="http://www.w3.org/1999/xlink" x="0px" y="0px"
	 viewBox="0 0 48 48" enable-background="new 0 0 48 48" xml:space="preserve">
<g>
	<g>
		<g>
			<g>
				<g>
					<circle fill="#F3705A" cx="29.3" cy="7.5" r="7.5"/>
				</g>
				<g>
					<circle fill="#FFFFFF" cx="29.3" cy="7.5" r="5.7"/>
				</g>
			</g>
			<g>
				<g>
					<path fill="#415A6B" d="M31.7,8.2h-2.4c-0.3,0-0.6-0.3-0.6-0.6V3.6c0-0.3,0.3-0.6,0.6-0.6c0.3,0,0.6,0.3,0.6,0.6v3.3h1.8
						c0.3,0,0.6,0.3,0.6,0.6C32.3,7.9,32,8.2,31.7,8.2z"/>
				</g>
			</g>
		</g>
		<g>
			<g>
				<rect x="35.1" y="28.9" fill="#415A6B" width="5.6" height="1.6"/>
			</g>
			<g>
				<path fill="#415A6B" d="M42.9,32.6L42.9,32.6c0-1.2-1-2.1-2.1-2.1h-5.6c-1.2,0-2.1,1-2.1,2.1v0H42.9z"/>
			</g>
			<g>
				<g>
					<path fill="#55C0EB" d="M27.2,32.3H2.8l0.7-3.1c0.3-1.6,1.4-2.9,2.9-3.5l4-1.6l4.6,1.4l4.6-1.4l4,1.6c1.5,0.6,2.6,1.9,2.9,3.5
						L27.2,32.3z"/>
				</g>
				<g>
					<g>
						<g>
							<polygon fill="#CED6E0" points="17.7,32.3 17.8,24.7 15,25.6 12.2,24.7 12.3,32.3 							"/>
						</g>
						<g>
							<polygon fill="#F3705A" points="12.7,32.3 17.3,32.3 15.8,28.1 16.6,27.1 15,25.6 13.4,27.1 14.2,28.1 							"/>
						</g>
						<g>
							<g>
								<path fill="#E8EAE9" d="M15,25.5c0,0,2.8-1.8,3-3.3l1.1,1.8l-2,4.2L15,25.5z"/>
							</g>
							<g>
								<polygon fill="#8AD7F8" points="18.4,32.3 21.3,27.3 19.7,26.5 21.3,25.7 18.6,23.1 16.4,32.3 								"/>
							</g>
						</g>
						<g>
							<g>
								<path fill="#E8EAE9" d="M15,25.5c0,0-2.8-1.8-3-3.3L11,24l2,4.2L15,25.5z"/>
							</g>
							<g>
								<polygon fill="#8AD7F8" points="8.7,27.3 11.6,32.3 13.6,32.3 11.4,23.1 8.7,25.7 10.4,26.5 								"/>
							</g>
						</g>
					</g>
					<g>
						<path fill="#F7B64C" d="M12,20.2v1.9c0.2,1.6,3,3.3,3,3.3s2.8-1.8,3-3.3l0-1.9H12z"/>
					</g>
					<g>
						<g>
							<path fill="#415A6B" d="M15,15.8c0,2.5-1.1,4.5-2.4,4.5c-1.3,0-2.5-2-2.6-4.5c-0.1-2.6,1-4.9,2.4-4.9S15,13.2,15,15.8z"/>
							<g>
								<path fill="#415A6B" d="M20.3,15.3c-0.1,2.8-2.2,4.9-4.6,4.9c-2.4,0-4.4-2.2-4.5-4.9c-0.1-2.9,2-5.4,4.6-5.4
									C18.4,9.9,20.5,12.4,20.3,15.3z"/>
							</g>
						</g>
						<g>
							<path fill="#FFD15C" d="M19.5,15.5c-2.1-0.2-4.2-0.9-5.9-2.1c-0.8,1.3-1.8,2.4-3.1,3c0,0.4-0.1,0.7,0,1.1
								c0.1,3.3,2.2,5.8,4.6,5.8c2.4,0,4.5-2.5,4.6-5.8C19.7,16.8,19.6,16.2,19.5,15.5z"/>
						</g>
						<g>
							<g>
								<g>
									<path fill="#FFD15C" d="M20.3,18.1c-0.2,0.9-0.9,1.6-1.4,1.5c-0.5-0.1-0.7-0.9-0.5-1.8c0.2-0.9,0.9-1.6,1.4-1.5
										C20.4,16.4,20.6,17.2,20.3,18.1z"/>
								</g>
							</g>
							<g>
								<g>
									<path fill="#FFD15C" d="M9.7,18.1c0.2,0.9,0.9,1.6,1.4,1.5c0.5-0.1,0.7-0.9,0.5-1.8c-0.2-0.9-0.9-1.6-1.4-1.5
										C9.7,16.4,9.4,17.2,9.7,18.1z"/>
								</g>
							</g>
						</g>
					</g>
				</g>
			</g>
			<g>
				<rect y="32.3" fill="#FFD15C" width="48" height="4.3"/>
			</g>
			<g>
				<rect x="4" y="36.7" fill="#F7B64C" width="40" height="11.3"/>
			</g>
			<g>
				<path fill="#415A6B" d="M45.5,15.7H30.3c-0.6,0-1,0.4-1,1v11.2c0,0.6,0.4,1,1,1h15.3c0.6,0,1-0.4,1-1V16.7
					C46.5,16.1,46.1,15.7,45.5,15.7z"/>
			</g>
		</g>
	</g>
</g>
</svg>
