<?xml version="1.0" encoding="utf-8"?>
<!-- Generator: Adobe Illustrator 18.0.0, SVG Export Plug-In . SVG Version: 6.00 Build 0)  -->
<!DOCTYPE svg PUBLIC "-//W3C//DTD SVG 1.1//EN" "http://www.w3.org/Graphics/SVG/1.1/DTD/svg11.dtd">
<svg version="1.1" id="Layer_1" xmlns="http://www.w3.org/2000/svg" xmlns:xlink="http://www.w3.org/1999/xlink" x="0px" y="0px"
	 viewBox="0 0 48 48" enable-background="new 0 0 48 48" xml:space="preserve">
<g>
	<g>
		<g>
			<g>
				<path fill="#415A6B" d="M21.7,2.3C19.1,2.4,14,3.4,9.9,7.9l2.9-0.1c3.3-2.8,7-3.5,9-3.7L21.7,2.3z"/>
			</g>
		</g>
		<g>
			<path fill="#415A6B" d="M12.2,14.5c-2.2,2.7-5.6,3.6-7.7,1.9s-2-5.2,0.2-7.9s5.6-3.6,7.7-1.9S14.4,11.8,12.2,14.5z"/>
		</g>
	</g>
	<g>
		<g>
			<g>
				<g>
					<rect x="18.8" y="6.5" fill="#415A6B" width="11.6" height="7.8"/>
				</g>
				<g>
					<path fill="#FFD15C" d="M20.8,1.4v5.2h7.6V1.4c0-0.8-0.6-1.4-1.4-1.4h-4.9C21.4,0,20.8,0.6,20.8,1.4z"/>
				</g>
			</g>
			<path fill="#66C6B9" d="M16,48h17.1c4.3-1.7,8.3-4.8,10.7-10.1C48,29.2,40,11.4,24.6,11.3C9.2,11.4,1.2,29.2,5.4,37.9
				C7.8,43.2,11.8,46.3,16,48z"/>
			<g>
				<ellipse fill="#E8EAE9" cx="24.6" cy="30.8" rx="14" ry="8.6"/>
			</g>
		</g>
	</g>
</g>
</svg>
