<?xml version="1.0" encoding="utf-8"?>
<!-- Generator: Adobe Illustrator 18.0.0, SVG Export Plug-In . SVG Version: 6.00 Build 0)  -->
<!DOCTYPE svg PUBLIC "-//W3C//DTD SVG 1.1//EN" "http://www.w3.org/Graphics/SVG/1.1/DTD/svg11.dtd">
<svg version="1.1" id="Layer_1" xmlns="http://www.w3.org/2000/svg" xmlns:xlink="http://www.w3.org/1999/xlink" x="0px" y="0px"
	 viewBox="0 0 512 512" enable-background="new 0 0 512 512" xml:space="preserve">
<g>
	<rect x="251.7" y="2" fill="#FF7058" width="8.3" height="34.8"/>
	<polygon fill="#FF7058" points="408.6,55.9 380.3,84.2 386.2,90.1 414.5,61.7 	"/>
	<polygon fill="#FF7058" points="97.2,367.4 103,373.2 131.3,344.9 125.5,339 	"/>
	<polygon fill="#FF7058" points="380.3,344.9 408.6,373.2 414.5,367.4 386.2,339 	"/>
	<polygon fill="#FF7058" points="97.2,61.7 125.5,90.1 131.3,84.2 103,55.9 	"/>
	<path fill="#FFD15C" d="M418.6,223.5c-2.1,46.6-23.5,88.1-56.6,116.4c-21.6,18.5-34.4,45.1-34.4,73.3H184c0-27.8-12-54.5-33.2-72.4
		c-33.8-28.5-55.6-70.3-57.7-117.4c-0.2-3.9-0.5-7.8-0.4-11.9c0.3-8.4,1.4-16.5,2.9-24.6C109.1,113.9,172.8,56.3,249,53.2
		c83.2-3.4,153.1,55.6,167.2,133.9h-51.1l-6.7-20.4l-22.4,0.5c-3.3-5.7-7.2-11-11.5-15.9l7.3-21.2l-20.4-14.7L293.5,129
		c-5.9-2.8-12.2-4.8-18.7-6.1l-6.4-21.4h-25.2l-6.5,21.4c-6.8,1.4-13.1,3.6-19.3,6.3l-17.9-13.4l-20.3,14.9l7.5,21.1
		c-4.3,4.9-8.3,10.3-11.5,16l-22.3-0.4l-6.3,19.8l-1.4,4.2l18.4,12.6c-0.3,3.2-0.5,6.4-0.5,9.6c0,3.4,0.2,6.7,0.5,10
		c0,0.1,0,0.1,0,0.2l-18.2,12.7l7.8,23.9l22.3-0.5c3.3,5.7,7.2,11,11.6,15.9l-7.4,21.2l20.4,14.8l17.8-13.5
		c5.9,2.6,12.2,4.8,18.7,6.1l6.5,21.3h25.2l6.4-21.3c6.8-1.5,13.2-3.6,19.3-6.5l17.9,13.4l20.3-14.8l-7.5-21.2
		c4.4-4.9,8.3-10.2,11.5-15.9l22.3,0.3l7.7-23.9l-17.8-12.3H418.6z"/>
	<path fill="#40596B" d="M366.4,235.8l-7.7,23.9l-22.3-0.3c-3.3,5.7-7.1,11-11.5,15.9l7.5,21.2L312,311.3l-17.9-13.4
		c-6,2.9-12.5,5-19.3,6.5l-6.4,21.3h-25.2l-6.5-21.3c-6.6-1.4-12.8-3.5-18.7-6.1l-17.8,13.5l-20.4-14.8l7.4-21.2
		c-4.4-4.9-8.4-10.2-11.6-15.9l-22.3,0.5l-7.8-23.9l18.2-12.7c0-0.1,0-0.1,0-0.2c-0.3-3.3-0.5-6.6-0.5-10c0-3.3,0.2-6.5,0.5-9.6
		l-18.4-12.6l1.4-4.2l6.3-19.8l22.3,0.4c3.3-5.7,7.2-11.1,11.5-16l-7.5-21.1l20.3-14.9l17.9,13.4c6.1-2.8,12.5-5,19.3-6.3l6.5-21.4
		h25.2l6.4,21.4c6.6,1.4,12.8,3.4,18.7,6.1l17.8-13.5l20.4,14.7l-7.3,21.2c4.3,4.9,8.3,10.2,11.5,15.9l22.4-0.5l6.7,20.4h-71.2
		c-8.4-12.1-22.2-20-38-20c-15.9,0-29.7,7.9-38.1,20c-5.2,7.5-8.4,16.6-8.4,26.5c0,3.4,0.4,6.8,1.2,10c4.6,20.8,23.1,36.4,45.3,36.4
		c22.1,0,40.6-15.6,45.2-36.4h47.5L366.4,235.8z"/>
	<path fill="#84DBFF" d="M95.5,187.1H36.2v36.4h56.9c-0.2-3.9-0.5-7.8-0.4-11.9C92.9,203.3,94,195.2,95.5,187.1z"/>
	<path fill="#84DBFF" d="M462.6,187.1v36.4h-252c-0.7-3.2-1.2-6.6-1.2-10c0-9.8,3.2-18.9,8.4-26.5H462.6z"/>
	<rect x="462.5" y="187.1" fill="#40596B" width="17" height="36.4"/>
	<path fill="#FF7058" d="M509.8,188.3v34.2c0,0.6-0.5,1.1-1.1,1.1h-29.1v-36.4h29.1C509.3,187.1,509.8,187.6,509.8,188.3z"/>
	<polygon fill="#FFD15C" points="36.3,187.1 36.3,223.5 15.9,212.8 2.2,205.5 15.9,198.1 	"/>
	<polygon fill="#334A5E" points="15.9,198.1 15.9,212.8 2.2,205.5 	"/>
	<path fill="#CDD6E0" d="M174.2,398.1v3.3c0,28.6,6.5,56.7,19,82.4v0h125.1l0,0c12.5-25.7,19-53.8,19-82.4v-3.3H174.2z"/>
	<path fill="#334A5E" d="M215.9,483.8c6.7,15.4,22,26.2,39.9,26.2s33.2-10.8,39.9-26.2H215.9z"/>
</g>
</svg>
