<?xml version="1.0" encoding="utf-8"?>
<!-- Generator: Adobe Illustrator 19.0.1, SVG Export Plug-In . SVG Version: 6.00 Build 0)  -->
<svg version="1.1" id="Layer_1" xmlns="http://www.w3.org/2000/svg" xmlns:xlink="http://www.w3.org/1999/xlink" x="0px" y="0px"
	 viewBox="0 0 48 48" style="enable-background:new 0 0 48 48;" xml:space="preserve">
<style type="text/css">
	.st0{fill:#66C6B9;}
	.st1{fill:#F3F3F3;}
	.st2{fill:#415A6B;}
	.st3{fill:#CED6E0;}
	.st4{fill:#F3705A;}
	.st5{fill:#E8EAE9;}
	.st6{fill:#4ABAA5;}
	.st7{fill:#F05540;}
	.st8{fill:#FFD15C;}
	.st9{fill:#55C0EB;}
	.st10{fill:#8AD7F8;}
	.st11{fill:#344A5E;}
	.st12{fill:#FFFFFF;}
	.st13{fill:#F7B64C;}
	.st14{fill:#ADB3BA;}
	.st15{fill:#38A892;}
	.st16{fill:#ED9845;}
	.st17{fill:#2D4251;}
	.st18{fill:#304556;}
	.st19{fill:#A5AAAD;}
	.st20{fill:#2D4456;}
	.st21{fill:#4FB0E0;}
	.st22{fill:#2D4354;}
	.st23{fill:#E54C38;}
	.st24{fill:#2B4456;}
	.st25{fill:#2B404F;}
</style>
<g>
	<g>
		<g>
			<path class="st2" d="M32.1,25.2c0,0,1.5,0.9,2.6,2.5c1.1,1.6,1.8,2.5,2.7,2.7c0,0-0.5,1.5-2.6,0.4c-2.1-1.1-2.8-2.1-3-3.1
				S32.1,25.2,32.1,25.2z"/>
		</g>
		<g>
			<g>
				<polygon class="st3" points="31.4,32.4 32.1,41.5 28.3,41.3 25.3,36.1 26.6,32.2 				"/>
			</g>
			<g>
				<path class="st6" d="M33,28.6l4.4,1.5c0,0-0.9,3.3-0.6,4.7c0.3,1.5,0.3,8.5,0.3,8.5h-7.2c0,0,1.5-3.4,1.7-5.5
					C31.9,35.6,33,28.6,33,28.6z"/>
			</g>
			<g>
				<path class="st6" d="M32.9,27.4C32.9,27.4,32.9,27.4,32.9,27.4c0.2,0.5,1,2.6,1.1,3.6c0.1,1.1,0.1,1.1,0.1,1.1l-1,0.8l1,0.8
					c0,0-2.4,4.5-2.9,6.2c-0.6,1.7,2,3.5,2,3.5s-3-1.5-3-3.4s1-6.3,1-6.3s1.3-4.4,1-5.1S32,27.9,32,27.9L32.9,27.4"/>
			</g>
			<g>
				<path class="st8" d="M29.3,37.5c0,0-0.1-1,0-1.6s1.6-1.3,1.6-1.3l1.4-5.2l-0.6-1l-4.9,0.4c0,0-0.2,4.6,0.2,5.7
					S29.3,37.5,29.3,37.5z"/>
			</g>
			<g>
				<path class="st2" d="M10.3,28.9c0,0-0.8,4.9-0.7,8.2c0,3.3,0,4.8,0,4.8l13.7-0.3c0,0,2.7-10.6,2.5-13.3s-0.2-2.7-0.2-2.7
					L10.3,28.9z"/>
			</g>
			<g>
				<path class="st8" d="M8.8,31.3c0,0-0.1,0.3-0.3,0.7c-0.2,0.4-0.5,0.7-0.7,1.2c-0.2,0.4-0.8,1.8-0.8,1.8s0.3,0.3,0.8-0.1l0.4-0.4
					c0,0,0.4-0.1,0.7-0.6s0.6-0.5,0.8-0.7c0.2-0.2,0.6-0.7,0.9-0.9s0.5,0,0.7-0.1c0,0,0.2,0.1,0.3,0.5c0.1,0.4,0.6,1.6,1.5,0.8
					L12.8,33c0,0-0.1-0.2-0.1-0.4c-0.1-0.2-0.2-0.6-0.2-0.8c0-0.2-0.2-1-0.5-1.3c-0.2-0.3-0.8-0.6-0.8-0.6S9.7,29.1,8.8,31.3z"/>
			</g>
			<g>
				<ellipse transform="matrix(0.9502 0.3116 -0.3116 0.9502 3.5508 -6.4722)" class="st8" cx="22" cy="7.9" rx="0.4" ry="1.1"/>
			</g>
			<g>
				<path class="st8" d="M16.9,6.9c0,0.6-0.2,1.2-0.4,1.2C16.2,8.1,16,7.6,16,7c0-0.6,0.2-1.2,0.4-1.2C16.7,5.8,16.9,6.3,16.9,6.9z"
					/>
			</g>
			<g>
				<path class="st8" d="M19.5,14.8l0.7-3.3c0.9-0.7,1.7-3.5,1.7-3.5l0.2-1.7c0,0,0.3-1.2-2.2-1.9s-3.2,1.1-3.4,2.8
					c0,0-0.2,0.7-0.1,2.2l-1.6,2.7L19.5,14.8z"/>
			</g>
			<path class="st13" d="M18.6,12.2c-1.1-0.2-2-2.2-2.1-2.7c0,0,0,1.1,0.6,2.3c0.4,0.9,1.6,1.8,2.6,2.5l0.6-2.8
				C20.2,11.5,19.7,12.3,18.6,12.2z"/>
			<g>
				<path class="st3" d="M20.4,11.8c0,0,0.4,0.5,1.2,0.8c0.8,0.3,3.7,2.5,3.7,2.5s-0.6,3.3-1.3,4.7c-0.7,1.4-0.8,4.7-0.6,6.8
					c0.2,2.1,0.5,2.7,0.5,2.7s-3.2,1.1-6.6,0.8S11,29.6,11,29.6s-0.4-6.4,0-7.9c0.4-1.5,0.7-2,0.7-2s0.4-8.2-2.3-6.9
					c0,0,0.6-0.8,1.9-1.2s4.3-1.1,4.3-1.1l2.8,1.8l0.5,0C18.9,12.4,20.1,12.2,20.4,11.8z"/>
			</g>
			<g>
				<path class="st7" d="M18.3,13.5l-0.1,0.7c0,0-0.4,0.8-0.6,1.8c-0.2,1-0.1,10.5-0.1,10.5l2.2,1.8l1.4-1.8c0,0-0.2-5.4-0.5-7.8
					s-1.3-4.4-1.3-4.7c0-0.4,0-0.6,0-0.6H18.3z"/>
			</g>
			<g>
				<path class="st4" d="M17.7,12.4l0.7,0l0.5,0l1.1,0.3c0,0-0.5,0.7-0.6,1.4c0,0-0.9-0.1-1.1,0.2c0,0-0.9-1.2-1.3-1.4
					c-0.3-0.2-0.3-0.2-0.3-0.2L17.7,12.4z"/>
			</g>
			<g>
				<path class="st2" d="M16.5,7.2l0.1,0.1c0,0,0-0.5,0.3-0.8s0.6,0.1,0.7-0.5c0.1-0.5,0-1.1,0.4-1.2c0.3-0.1,2,1.3,3.1,1
					c1.1-0.4,0.7,0.7,0.7,1c0,0.3,0.2,0.4,0.2,0.5c0,0.2,0,0.6,0,0.6H22c0,0,0.2-0.7,0.6-1.3s1.1-2.9-0.6-4.4
					c-1.7-1.5-3.7-0.9-4.4-0.5c-0.7,0.4-1.3,1.8-1.3,3.1C16.4,6.2,16.7,6.2,16.5,7.2z"/>
			</g>
			<g>
				<path class="st1" d="M18.9,12.4c0,0,0.8,0.5,1.2,1.2c0.3,0.8,0.6,1,0.6,1s0-0.5-0.1-1.6c-0.1-1.1-0.1-1.8-0.1-1.8l-0.3,0.2
					C20.2,11.5,19.8,12.1,18.9,12.4z"/>
			</g>
			<g>
				<path class="st1" d="M16.4,9.6c0,0-0.1,0.6,0.4,1.2c0.5,0.6,1.6,1.5,1.6,1.5s-0.6,0.4-1.1,0.6s-0.8,0.6-1.2,0.6
					c0,0-0.4-1.6-0.6-2s-0.2-0.8,0-1C15.7,10.4,16.1,9.6,16.4,9.6z"/>
			</g>
			<g>
				<path class="st1" d="M11.7,29.6c0.1,0.3,0.3,0.6,0.4,0.8c-0.2-0.2-0.5-0.2-1.2-0.2c-0.9-0.1-1.7,1.1-2,1.1
					c-0.3,0-0.4-1.4-0.4-1.4s-0.6-0.3-0.9-0.9c-0.4-0.6-0.3-2.1,0-3.4c0.3-1.3,0.3-5.8,0.4-7.6c0.1-1.8,0.8-4.5,1.5-5.1
					c2.8-1.3,2.3,6.9,2.3,6.9s0,3.1-0.1,3.6c-0.1,0.6,0,1.8-0.2,2.2c-0.2,0.4-0.1,1.1-0.1,2c0.1,0.8-0.1,0.8,0,1.3
					C11.4,28.9,11.5,29.3,11.7,29.6z"/>
			</g>
			<g>
				<path class="st1" d="M23.9,29.2c0,0-0.3-0.6-0.5-2.7c-0.2-2.1-0.1-5.4,0.6-6.8c0.7-1.4,1.3-4.7,1.3-4.7s0.5,2.3,0.5,3.3
					s0.9,11.8,0.9,11.8L23.9,29.2z"/>
			</g>
			<g>
				<path class="st6" d="M24.3,35.7c-1.7,0.2-1.3-5.9-0.4-6.4l2.5-0.4c0,0,0,8.6,0.5,9.6s2.7,1.1,3.5,2.2c0.7,1.1,1.1,3.4,1.1,3.4
					l-5.7-1.5l0.9-2.9C26.7,39.6,24.7,38.3,24.3,35.7z"/>
			</g>
			<g>
				<polygon class="st4" points="41.1,40.8 44,45.4 5.6,45.4 6,41.1 				"/>
			</g>
			<g>
				<rect x="5.6" y="45.4" class="st7" width="38.4" height="1.2"/>
			</g>
			<g>
				<path class="st8" d="M15.5,41.1c0,0-1.7,0.4-2.9,0.2s-1,0-1.7-0.1s-1.6-0.5-1.6-0.5l-0.9-0.1c0,0,0.1,0.6-0.3,0.7
					s-0.8-2.8-0.8-2.8s0.5-0.1,1-0.2c0.5-0.1,1.1,0.1,1.1,0.1s0.1-0.2,0.5-0.1s1.2,0.7,2,0.9s1.9-0.2,1.9-0.2S16.8,39,15.5,41.1z"/>
			</g>
			<g>
				<path class="st1" d="M26.1,34.1c0,0-0.9-0.5-1.6-1c-0.7-0.5-1-0.7-1-0.7l3.6-2.1l0.5,0.5L26.1,34.1z"/>
			</g>
			<g>
				<path class="st0" d="M23.9,29.3c0,0-0.8,1-1.3,2.2s-0.8,1.2-1.2,2.1c-0.5,0.9-0.6,1.3-1.1,1.9c-0.5,0.6-1.3,0.9-1.6,1.5
					c-0.3,0.6-1.3,1-1.7,1.3c-0.4,0.3-3.9,0.9-3.9,0.9s1.2-0.2,1.8,0.8s0.2,1.7-0.3,1.9c0,0,0.7,0,1.5-0.2c0.7-0.2,1.7-0.3,3-0.9
					c1.3-0.6,3.2-2,4-3c0.8-1,1.2-2,1.2-2s-1-1.9-0.9-3.5C23.4,30.7,23.9,29.3,23.9,29.3z"/>
			</g>
			<g>
				<g>
					<path class="st1" d="M27.3,30.7l-2,3.1c-0.1,0.1,0,0.2,0,0.2l0.4,0.4c0.1,0.1,0.2,0.1,0.3,0l0,0c0,0,1,2.3,2.2,2.9
						c1.2,0.6,1.5,0.9,1.5,0.9s-0.5-1.2-1-1.7c-0.5-0.4-1.2-1.3-1.2-2.2c-0.1-0.9,0.4-2.5,0.4-3.1C27.9,30.5,27.3,30.7,27.3,30.7z"
						/>
				</g>
			</g>
			<g>
				<path class="st8" d="M25.5,23c0,0-0.5,0-0.8,0.7c-0.3,0.7-0.5,2.3-0.4,2.6c0.1,0.3,0.4,0.6,0.4,0.9s0,1.2,0.5,2.2
					c0.6,1,0.6,1.4,0.7,1.8c0.1,0.4,1.3,0.7,1.9,0l0.8,4.9l2.9-5.8l0.3-1.5c-0.1-0.3-0.2-0.6-0.3-0.7c0,0,0.6-4-0.2-4.7
					S25.5,23,25.5,23z"/>
			</g>
			<g>
				<path class="st8" d="M25.5,23c0,0-0.5,0-0.8,0.7c-0.3,0.7-0.5,2.3-0.4,2.6c0.1,0.3,0.4,0.6,0.4,0.9s0,1.2,0.5,2.2
					c0.6,1,0.6,1.4,0.7,1.8c0.1,0.4,1.3,0.7,1.9,0l0.8,4.9l2.9-5.8l0.3-1.5c-0.1-0.3-0.2-0.6-0.3-0.7c0,0,0.6-4-0.2-4.7
					S25.5,23,25.5,23z"/>
			</g>
			<g>
				<path class="st13" d="M30.4,28.4c-0.2,0.8-0.9,3.4-2.8,4.9c0.1-0.8,0.3-1.8,0.3-2.2C27.9,31.2,29.7,30.2,30.4,28.4z"/>
			</g>
			<g>
				<path class="st1" d="M31.5,28.2c0,0,0.4,0.4,0.4,1.2s-1.5,4.3-1.6,4.4c-0.1,0.1-0.7,1.2-1,1.7c-0.3,0.6-0.1,1.6,0.2,2.1
					c0,0-0.3-1.1,0-1.8c0.2-0.7,1.5-0.9,1.5-0.9l0.1-0.4l2.6,0.9c0,0,0-3.4-0.4-4.4c-0.3-0.9-0.4-1-0.5-1.6S31.5,27.3,31.5,28.2z"/>
			</g>
			<g>
				<g>
					<g>
						<path class="st2" d="M24.6,24.3c0,0,0.3-0.9,0.8-0.9c0.5,0,1,0.2,1.8,0.2c0.9-0.1,1.2,0.6,1,1S28,26,28.6,26.3
							c0.6,0.3,0.6,1,0.6,1h0.3c0,0-0.1-1,0.9-1.2c0.9-0.3,1.2,2.2,1.2,2.2s1.1-0.6,1-3.9c-0.1-3.3-4.4-3.4-5.7-2.7
							C25.7,22.3,24.4,23,24.6,24.3z"/>
					</g>
				</g>
			</g>
			<g>
				<ellipse transform="matrix(0.9852 0.1714 -0.1714 0.9852 5.0509 -4.8234)" class="st8" cx="30.5" cy="26.8" rx="0.6" ry="1.1"/>
			</g>
			<g>
				<path class="st14" d="M24.4,43.3l1.6-0.9l-9.3-1.7L6.2,41.5l7.3,2.2C13.5,43.8,19.1,44.9,24.4,43.3z"/>
			</g>
			<g>
				<path class="st2" d="M17.1,44l-2.6-12.9c0-0.2-0.2-0.4-0.5-0.4l-9.5-0.6c-0.3,0-0.1,0.2-0.1,0.6l2.2,11.1L17.1,44z"/>
			</g>
			<g>
				<g>
					<path class="st3" d="M15.3,44.2c0,0,1.2-0.4,1.4-0.4c0.2,0,9.3-1.5,9.3-1.5s0.2,0.5-0.2,0.8c-0.4,0.2-9.1,1.9-9.1,1.9
						s-0.5-0.1-0.8-0.4C15.6,44.3,15.4,44.2,15.3,44.2"/>
				</g>
				<g>
					<path class="st5" d="M6.2,41.5l10.5,2.2c-0.4,0-0.4,1.2,0,1.2l-9.8-2.2c-0.4-0.1-0.7-0.4-0.7-0.8V41.5z"/>
				</g>
			</g>
			<g>
				<path class="st14" d="M16.7,43.8l-2.6-12.6c0-0.2-0.2-0.4-0.5-0.4l-9.1-0.7c-0.3,0-0.6,0.3-0.5,0.6l2.2,10.8L16.7,43.8z"/>
			</g>
		</g>
		<path class="st2" d="M31.5,28.2c0.4,0.9,0.4,1,0.2,2c-0.1,0.9-0.4,1.8-0.5,2.7c-0.1,0.9,0.1,1.9,0.8,2.5c-0.2-0.5-0.1-1.1,0-1.6
			c0.1-0.5,0.4-1,0.6-1.5c0,0.6-0.1,1.2,0,1.8c0.1,0.6,0.2,1.2,0.6,1.7c0.5,0.6,1.3,1,2.1,1c-0.4-0.3-0.6-0.7-0.7-1.2
			c-0.1-0.5,0-1,0.1-1.5c0.2-1.3,0.4-2.6,0.3-3.9c-0.2-1.3-0.7-2.6-1.7-3.4c-0.4-0.4-0.9-0.6-1.3-1c-0.4-0.4-0.7-1-0.5-1.5"/>
	</g>
	<g>
		<g>
			<path class="st8" d="M33.4,42.8c0,0-0.2,0.3-0.7,0.4c-0.5,0.1-1.6,0.1-2.2,0.3c-0.6,0.2-1.7,0.9-2.5,0.8c0,0-0.9,0.4-1.5,0.4
				s-0.7,0-0.8-0.1c0,0-0.9,0.5-1.6,0.2c0,0-0.7,0.2-1-0.1c0,0-0.2-0.1-0.1-0.4l0.5-0.5c0,0-0.2-0.2-0.1-0.5l0.5-0.2
				c0,0,0.4-0.2,0.6-0.2c0.2,0,0.6-0.3,0.8-0.4s2.6-0.6,3.2-0.8c0.6-0.2,2.4-0.8,3.5-0.8s1.1,0,1.1,0L33.4,42.8z"/>
		</g>
		<g>
			<g>
				<path class="st13" d="M24.3,44.7c0-0.1,0-0.2,0.1-0.4l0,0l0,0c0.1-0.1,0.3-0.1,0.4-0.2c0.1,0,0.1-0.1,0.2-0.1
					c0.1,0,0.1-0.1,0.2-0.1c0.1,0,0.1-0.1,0.2-0.1c0.1,0,0.1-0.1,0.2-0.1c0.1-0.1,0.2-0.2,0.3-0.3c0.1,0,0.1-0.1,0.2-0.1l0.2-0.1
					c0.1-0.1,0.3-0.1,0.4-0.1L27,43c0.1-0.1,0.3-0.1,0.4-0.2C27.3,42.9,27.1,43,27,43c-0.1,0.1-0.3,0.1-0.4,0.2
					c-0.1,0.1-0.3,0.1-0.4,0.2L26,43.4c-0.1,0-0.1,0.1-0.2,0.1c-0.1,0.1-0.2,0.2-0.3,0.3c-0.1,0.1-0.1,0.1-0.2,0.2
					c-0.1,0-0.1,0.1-0.2,0.1c-0.1,0.1-0.3,0.1-0.4,0.2c-0.1,0-0.3,0.1-0.4,0.1l0,0c0,0.1,0,0.1-0.1,0.2
					C24.3,44.6,24.3,44.7,24.3,44.7z"/>
			</g>
			<g>
				<path class="st13" d="M23.3,44.6C23.3,44.6,23.3,44.6,23.3,44.6c0-0.1,0-0.1,0-0.1c0,0,0-0.1,0.1-0.2c0-0.1,0.1-0.1,0.1-0.2
					c0.1-0.1,0.1-0.1,0.2-0.1c0,0,0.1,0,0.1-0.1c0,0,0.1,0,0.1-0.1c0.2-0.1,0.4-0.2,0.5-0.3c0,0,0.1-0.1,0.1-0.1
					c0,0,0.1-0.1,0.1-0.1c0.1-0.1,0.2-0.1,0.3-0.2c0.2-0.1,0.3-0.2,0.5-0.2c0.3-0.1,0.5-0.2,0.5-0.2s-0.2,0.1-0.5,0.2
					c-0.1,0.1-0.3,0.2-0.5,0.2c-0.1,0-0.2,0.1-0.3,0.2c0,0-0.1,0.1-0.1,0.1c0,0-0.1,0.1-0.1,0.1c-0.2,0.1-0.4,0.2-0.5,0.3
					c0,0-0.1,0-0.1,0.1c0,0-0.1,0-0.1,0.1c-0.1,0-0.1,0.1-0.2,0.1c-0.1,0-0.1,0.1-0.2,0.1c0,0.1-0.1,0.1-0.1,0.1
					C23.3,44.6,23.3,44.6,23.3,44.6z"/>
			</g>
			<g>
				<path class="st13" d="M23.7,43.7C23.7,43.7,23.7,43.7,23.7,43.7c0.1-0.1,0.1-0.2,0.2-0.3c0.1-0.1,0.2-0.2,0.3-0.2
					c0.1-0.1,0.2-0.1,0.4-0.2c0.1-0.1,0.3-0.1,0.4-0.2c0.1-0.1,0.2-0.1,0.3-0.1c0.1,0,0.2-0.1,0.2-0.1c0.1,0,0.1-0.1,0.1-0.1
					s0,0-0.1,0.1c-0.1,0-0.1,0.1-0.2,0.1c-0.2,0.1-0.4,0.2-0.7,0.3c-0.1,0.1-0.2,0.1-0.4,0.2c-0.1,0.1-0.2,0.1-0.3,0.2
					C23.9,43.5,23.8,43.6,23.7,43.7C23.7,43.7,23.7,43.7,23.7,43.7z"/>
			</g>
		</g>
		<g>
			<path class="st13" d="M25.9,44.6c0-0.1,0-0.1,0-0.2c0,0,0,0,0.1-0.1c0,0,0,0,0.1-0.1c0.1-0.1,0.2-0.1,0.3-0.1l0,0l0.4-0.2
				c0.1-0.1,0.2-0.1,0.4-0.2c0.1,0,0.1-0.1,0.2-0.1c0.1,0,0.1,0,0.2-0.1c0.1,0,0.3-0.1,0.4-0.2c-0.1,0-0.1,0.1-0.2,0.1
				c-0.1,0-0.1,0.1-0.2,0.1c-0.1,0-0.1,0.1-0.2,0.1c-0.1,0-0.1,0.1-0.2,0.1c-0.1,0.1-0.2,0.1-0.4,0.2l-0.4,0.2l0,0l0,0
				c-0.1,0-0.2,0.1-0.3,0.1c0,0,0,0-0.1,0c0,0,0,0-0.1,0.1C25.9,44.5,25.9,44.5,25.9,44.6z"/>
		</g>
	</g>
	<g>
		<path class="st0" d="M41.4,40.4c-0.1,0.8-0.8,2-1.2,2.1c-0.2,0-1.6,0.2-3.1,0.4c-1.1,0.1-2.3,0.3-3.1,0.3
			c-0.5,0.1-0.9,0.1-0.9,0.1s0,0,0-0.1c0-0.4,0-1.7-1.6-2.6c0,0,1-0.4,2.1-0.6c1.2-0.2,3.4-0.7,3.4-0.7s0,0,0-0.1c0-0.2,0-0.7,0-1.3
			c0,0,0-0.1,0-0.1c0-0.6-0.2-2.7-0.3-3.3v0c0-0.1,0-0.2,0-0.2s0,0,0,0c0,0,0,0,0,0c-0.1-1.6,0.7-4.3,0.7-4.3s1.4,0,1.5,1.1
			c0.1,1.1,0.1,1.5,0.3,2.2c0.2,0.6,0.3,0.8,0.3,1.1c0,0.3,0.5,0.7,0.5,1.3c0.1,0.6,0.8,2,1.1,2.7C41.3,39,41.5,39.7,41.4,40.4z"/>
	</g>
</g>
</svg>
