<?xml version="1.0" encoding="utf-8"?>
<!-- Generator: Adobe Illustrator 18.0.0, SVG Export Plug-In . SVG Version: 6.00 Build 0)  -->
<!DOCTYPE svg PUBLIC "-//W3C//DTD SVG 1.1//EN" "http://www.w3.org/Graphics/SVG/1.1/DTD/svg11.dtd">
<svg version="1.1" id="Layer_1" xmlns="http://www.w3.org/2000/svg" xmlns:xlink="http://www.w3.org/1999/xlink" x="0px" y="0px"
	 viewBox="0 0 512 512" enable-background="new 0 0 512 512" xml:space="preserve">
<g>
	<g>
		
			<ellipse transform="matrix(-0.9806 0.1962 -0.1962 -0.9806 743.8998 412.3881)" fill="#F8B64C" cx="351.5" cy="243" rx="5.9" ry="14.1"/>
		
			<ellipse transform="matrix(0.9806 0.1962 -0.1962 0.9806 56.2456 -81.8403)" fill="#F8B64C" cx="441.3" cy="243" rx="5.9" ry="14.1"/>
		<path fill="#CDD6E0" d="M510,400.9H282.8c0,0,3.7-47,19.1-67.7c0,0,0.6-0.3,1.8-0.7c8.6-3.2,45.5-17.2,62.9-30.5l1.7-8.3
			c0,0,7.1,14.6,22.9,16.7c1.6,0.3,3.4,0.3,5.2,0.3c1.9,0.1,3.6,0,5.2-0.3c15.9-2.2,22.9-16.7,22.9-16.7l1.7,8.3
			c17.4,13.3,54.4,27.3,62.9,30.5c1.2,0.4,1.9,0.7,1.9,0.7C506.3,353.9,510,400.9,510,400.9z"/>
		<path fill="#ACB3BA" d="M369.3,327.8l7.2,12.8l10.4-16.3l-2.5-2.9l-8.2,12.3l-9.6-17.8C367.1,319.3,367.9,323.2,369.3,327.8z"/>
		<path fill="#F8B64C" d="M424.5,293.7c0,0-7.1,14.5-22.9,16.8c-1.6,0.2-3.4,0.3-5.2,0.2c-1.8,0.1-3.6,0-5.2-0.2
			c-15.8-2.2-22.9-16.8-22.9-16.8s0.3-3,0.3-6.1c0.1-1.6,0.1-3.1-0.1-4.4c13.1,16.3,27.8,18.7,27.8,18.7s14.8-2.4,27.8-18.7
			c-0.1,1.3-0.2,2.9-0.1,4.4C424.2,290.7,424.5,293.7,424.5,293.7z"/>
		<path fill="#F7AF48" d="M424.2,287.7c-12.8,14.4-26.4,16.8-27.3,17l-0.4,0.1l-0.4-0.1c-1-0.2-14.5-2.6-27.3-17
			c0.1-1.6,0.1-3.1-0.1-4.4c13.1,16.3,27.8,18.7,27.8,18.7s14.8-2.4,27.8-18.7C424.1,284.5,424.1,286.1,424.2,287.7z"/>
		<path fill="#FFD15C" d="M443.4,230.4c-0.4,2.9-0.8,4.7-0.8,4.7c-8.2,60.7-46.3,66.9-46.3,66.9s-38-6.2-46.3-66.9
			c0,0-0.4-1.7-0.8-4.6v-0.1c-1.9-15.1-3.8-61.8,47-60.9C447.1,168.6,445.3,215.2,443.4,230.4z"/>
		<path fill="#40596B" d="M396.4,385.4v15.5h76.7l17.8-67.1l-1.7-1.3c-8.6-3.2-45.5-17.2-62.9-30.5h-0.1c0,0,4.4,15.1-9.6,43.4
			C416.5,345.4,404.4,368.8,396.4,385.4z"/>
		<path fill="#ACB3BA" d="M423.6,327.8l-7.2,12.8l-10.4-16.3l2.5-2.9l8.2,12.3l9.6-17.8C425.8,319.3,424.9,323.2,423.6,327.8z"/>
		<path fill="#FFFFFF" d="M401.4,329.6L407,364c-3.5,6.9-7.4,14.7-10.6,21.4c-3.2-6.6-7.1-14.5-10.6-21.4l5.6-34.4l-7.1-8.2l6.7-11
			c0.1,0,0.1,0,0.1,0c1.6,0.3,3.4,0.3,5.2,0.3c1.9,0.1,3.6,0,5.2-0.3c0,0,0,0,0.1,0l6.7,11L401.4,329.6z"/>
		<path fill="#334A5E" d="M403.2,400.9h-83.4L302,333.8l1.7-1.3c8.6-3.1,45.5-17.2,62.9-30.5v0l0.1,0c0,0-4.4,15.2,9.5,43.5
			c0,0,12.1,23.4,20.1,40C400,392.9,402.8,399,403.2,400.9z"/>
		<path fill="#334A5E" d="M443.4,230.4l-2,1.9c0,0-2.1-24.4-13.2-41.6c0,0-7,10.3-31.8,10.5c-24.7-0.2-31.7-10.5-31.7-10.5
			c-11.2,17.1-13.3,41.6-13.3,41.6l-1.9-1.8v-0.1c-1.9-15.1-3.8-61.8,47-60.9C447.1,168.6,445.3,215.2,443.4,230.4z"/>
	</g>
	<g>
		
			<ellipse transform="matrix(-0.9806 0.1962 -0.1962 -0.9806 187.7076 467.4738)" fill="#F8B64C" cx="70.7" cy="243" rx="5.9" ry="14.1"/>
		
			<ellipse transform="matrix(0.9806 0.1962 -0.1962 0.9806 50.7899 -26.7547)" fill="#F8B64C" cx="160.5" cy="243" rx="5.9" ry="14.1"/>
		<path fill="#CDD6E0" d="M229.2,400.9H2c0,0,3.7-47,19.1-67.7c0,0,0.6-0.3,1.8-0.7c8.6-3.2,45.5-17.2,62.9-30.5l1.7-8.3
			c0,0,7.1,14.6,22.9,16.7c1.6,0.3,3.4,0.3,5.2,0.3c1.9,0.1,3.6,0,5.2-0.3c15.9-2.2,22.9-16.7,22.9-16.7l1.7,8.3
			c17.4,13.3,54.4,27.3,62.9,30.5c1.2,0.4,1.9,0.7,1.9,0.7C225.5,353.9,229.2,400.9,229.2,400.9z"/>
		<path fill="#ACB3BA" d="M88.4,327.8l7.2,12.8l10.4-16.3l-2.5-2.9l-8.2,12.3l-9.6-17.8C86.2,319.3,87.1,323.2,88.4,327.8z"/>
		<path fill="#F8B64C" d="M143.7,293.7c0,0-7.1,14.5-22.9,16.8c-1.6,0.2-3.4,0.3-5.2,0.2c-1.8,0.1-3.6,0-5.2-0.2
			c-15.8-2.2-22.9-16.8-22.9-16.8s0.3-3,0.3-6.1c0.1-1.6,0.1-3.1-0.1-4.4c13.1,16.3,27.8,18.7,27.8,18.7s14.8-2.4,27.8-18.7
			c-0.1,1.3-0.2,2.9-0.1,4.4C143.4,290.7,143.7,293.7,143.7,293.7z"/>
		<path fill="#F7AF48" d="M143.4,287.7c-12.8,14.4-26.4,16.8-27.3,17l-0.4,0.1l-0.4-0.1c-1-0.2-14.5-2.6-27.3-17
			c0.1-1.6,0.1-3.1-0.1-4.4c13.1,16.3,27.8,18.7,27.8,18.7s14.8-2.4,27.8-18.7C143.3,284.5,143.3,286.1,143.4,287.7z"/>
		<path fill="#FFD15C" d="M162.6,230.4c-0.4,2.9-0.8,4.7-0.8,4.7c-8.2,60.7-46.3,66.9-46.3,66.9s-38-6.2-46.3-66.9
			c0,0-0.4-1.7-0.8-4.6v-0.1c-1.9-15.1-3.8-61.8,47-60.9C166.3,168.6,164.5,215.2,162.6,230.4z"/>
		<path fill="#40596B" d="M115.6,385.4v15.5h76.7l17.8-67.1l-1.7-1.3c-8.6-3.2-45.5-17.2-62.9-30.5h-0.1c0,0,4.4,15.1-9.6,43.4
			C135.7,345.4,123.6,368.8,115.6,385.4z"/>
		<path fill="#ACB3BA" d="M142.7,327.8l-7.2,12.8l-10.4-16.3l2.5-2.9l8.2,12.3l9.6-17.8C144.9,319.3,144.1,323.2,142.7,327.8z"/>
		<path fill="#FFFFFF" d="M120.6,329.6l5.6,34.4c-3.5,6.9-7.4,14.7-10.6,21.4c-3.2-6.6-7.1-14.5-10.6-21.4l5.6-34.4l-7.1-8.2l6.7-11
			c0.1,0,0.1,0,0.1,0c1.6,0.3,3.4,0.3,5.2,0.3c1.9,0.1,3.6,0,5.2-0.3c0,0,0,0,0.1,0l6.7,11L120.6,329.6z"/>
		<path fill="#334A5E" d="M122.3,400.9H38.9l-17.7-67.1l1.7-1.3c8.6-3.1,45.5-17.2,62.9-30.5v0l0.1,0c0,0-4.4,15.2,9.5,43.5
			c0,0,12.1,23.4,20.1,40C119.2,392.9,121.9,399,122.3,400.9z"/>
		<path fill="#334A5E" d="M162.6,230.4l-2,1.9c0,0-2.1-24.4-13.2-41.6c0,0-7,10.3-31.8,10.5c-24.7-0.2-31.7-10.5-31.7-10.5
			c-11.2,17.1-13.3,41.6-13.3,41.6l-1.9-1.8v-0.1c-1.9-15.1-3.8-61.8,47-60.9C166.3,168.6,164.5,215.2,162.6,230.4z"/>
	</g>
	
		<ellipse transform="matrix(-0.9806 0.1962 -0.1962 -0.9806 387.6283 326.3044)" fill="#F8B64C" cx="177.7" cy="182.3" rx="10.2" ry="24.6"/>
	
		<ellipse transform="matrix(0.9806 0.1962 -0.1962 0.9806 42.264 -62.0389)" fill="#F8B64C" cx="334.3" cy="182.3" rx="10.2" ry="24.6"/>
	<path fill="#CDD6E0" d="M454.3,457.9H57.7c0,0,6.5-82.1,33.3-118.2c0,0,1-0.4,3.1-1.2c15-5.6,79.5-30.1,109.9-53.3l2.9-14.5
		c0,0,12.3,25.4,39.9,29.2c2.8,0.4,5.9,0.6,9.1,0.4c3.2,0.1,6.3,0,9.1-0.4c27.8-3.8,39.9-29.2,39.9-29.2l2.9,14.5
		c30.4,23.2,94.9,47.7,109.9,53.3c2.1,0.7,3.2,1.2,3.2,1.2C447.8,375.8,454.3,457.9,454.3,457.9z"/>
	<path fill="#ACB3BA" d="M208.6,330.3l12.6,22.4l18.2-28.4l-4.4-5.1l-14.3,21.4L204,309.5C204.8,315.4,206.2,322.4,208.6,330.3z"/>
	<path fill="#F8B64C" d="M305,270.7c0,0-12.4,25.4-39.9,29.2c-2.8,0.4-5.9,0.6-9.1,0.4c-3.2,0.2-6.3,0-9.1-0.4
		c-27.5-3.9-39.9-29.2-39.9-29.2s0.5-5.2,0.6-10.6c0.2-2.7,0.1-5.5-0.1-7.6c22.9,28.5,48.6,32.7,48.6,32.7s25.7-4.2,48.6-32.7
		c-0.2,2.3-0.3,5-0.1,7.7C304.6,265.6,305,270.7,305,270.7z"/>
	<path fill="#F7AF48" d="M304.5,260.2c-22.4,25.1-46,29.3-47.7,29.6l-0.8,0.1l-0.8-0.1c-1.7-0.3-25.4-4.5-47.7-29.7
		c0.2-2.7,0.1-5.5-0.1-7.6c22.9,28.5,48.6,32.7,48.6,32.7s25.7-4.2,48.6-32.7C304.4,254.8,304.3,257.5,304.5,260.2z"/>
	<path fill="#FFD15C" d="M338.1,160.3c-0.7,5.1-1.3,8.2-1.3,8.2c-14.3,106-80.7,116.8-80.7,116.8s-66.4-10.8-80.7-116.8
		c0,0-0.7-3-1.3-8v-0.1C170.6,134,167.3,52.5,256,54.1C344.5,52.5,341.4,133.8,338.1,160.3z"/>
	<path fill="#3DC9AE" d="M256,430.9v27h133.8l31-117.1l-2.9-2.3c-15-5.6-79.5-30.1-109.9-53.3h-0.1c0,0,7.6,26.4-16.7,75.8
		C291.1,361,269.9,401.8,256,430.9z"/>
	<path fill="#ACB3BA" d="M303.4,330.3l-12.6,22.4l-18.2-28.4l4.4-5.1l14.3,21.4l16.7-31.1C307.2,315.4,305.8,322.4,303.4,330.3z"/>
	<path fill="#FF7058" d="M264.7,333.4l9.8,60.1c-6.2,12-12.9,25.7-18.5,37.3c-5.6-11.6-12.3-25.3-18.5-37.3l9.8-60.1L235,319.1
		l11.7-19.2c0.1,0,0.1,0,0.1,0c2.8,0.4,5.9,0.6,9.1,0.4c3.2,0.1,6.3,0,9.1-0.4c0,0,0,0,0.1,0l11.7,19.2L264.7,333.4z"/>
	<path fill="#4CDBC4" d="M267.8,458H122.2L91.2,340.8l2.9-2.3c14.9-5.5,79.5-30,109.9-53.3v0l0.2,0c0,0-7.7,26.5,16.6,75.9
		c0,0,21.2,40.8,35.1,69.8C262.3,443.9,267.1,454.6,267.8,458z"/>
	<path fill="#334A5E" d="M338.1,160.3l-3.5,3.4c0,0-3.6-42.6-23.1-72.5c0,0-12.3,18-55.6,18.4c-43.1-0.4-55.4-18.4-55.4-18.4
		c-19.5,29.9-23.2,72.5-23.2,72.5l-3.4-3.2v-0.1C170.6,134,167.3,52.5,256,54.1C344.5,52.5,341.4,133.8,338.1,160.3z"/>
</g>
</svg>
