<?xml version="1.0" encoding="utf-8"?>
<!-- Generator: Adobe Illustrator 18.0.0, SVG Export Plug-In . SVG Version: 6.00 Build 0)  -->
<!DOCTYPE svg PUBLIC "-//W3C//DTD SVG 1.1//EN" "http://www.w3.org/Graphics/SVG/1.1/DTD/svg11.dtd">
<svg version="1.1" id="Layer_1" xmlns="http://www.w3.org/2000/svg" xmlns:xlink="http://www.w3.org/1999/xlink" x="0px" y="0px"
	 viewBox="0 0 48 48" enable-background="new 0 0 48 48" xml:space="preserve">
<g>
	<g>
		<polygon fill="#F3F3F3" points="27.5,0 38.1,10.6 38.1,48 0,48 0,0 		"/>
		<g>
			<g>
				<rect x="16.1" y="37.4" fill="#F3705A" width="3.6" height="6.6"/>
			</g>
			<g>
				<rect x="10.1" y="34.7" fill="#4EC0AA" width="3.6" height="9.3"/>
			</g>
			<g>
				<rect x="4" y="39.5" fill="#415A6B" width="3.6" height="4.5"/>
			</g>
			<g>
				<rect x="22.2" y="31.8" fill="#FFD15C" width="3.6" height="12.2"/>
			</g>
		</g>
		<polygon fill="#CED6E0" points="27.5,0 38.1,10.6 27.5,10.6 		"/>
		<g>
			<g>
				<rect x="4" y="21" fill="#CED6E0" width="30.1" height="1.9"/>
			</g>
			<g>
				<rect x="4" y="25.9" fill="#CED6E0" width="18" height="1.9"/>
			</g>
		</g>
		<g>
			<path fill="#8AD7F8" d="M22.5,19.2c-3.5,3.5-3.5,9.1,0,12.6s9.1,3.5,12.6,0c3.5-3.5,3.5-9.1,0-12.6S26,15.8,22.5,19.2z"/>
			
				<rect x="34.8" y="31.5" transform="matrix(0.7071 -0.7071 0.7071 0.7071 -12.8914 35.7865)" fill="#344A5E" width="4" height="4"/>
			<path fill="#415A6B" d="M36.4,33.1c-4.2,4.2-10.9,4.2-15.1,0s-4.2-10.9,0-15.1s10.9-4.1,15.1,0S40.5,28.9,36.4,33.1z M23.3,20
				c-3,3-3,8,0,11s8,3,11,0c3-3,3-8,0-11S26.4,17,23.3,20z"/>
			<path fill="#F3705A" d="M46.4,37.6l-6-4.3L36.7,37l4.3,6c1.4,2,4.2,2.2,5.9,0.5C48.6,41.9,48.3,39,46.4,37.6z"/>
			<polygon fill="#F05540" points="41.7,34.3 40.3,33.3 36.7,37 37.6,38.4 			"/>
			<path fill="#F3705A" d="M40.5,33.7L37,37.2c-0.4,0.4-1.2,0.4-1.6,0s-0.4-1.2,0-1.6l3.4-3.4c0.4-0.4,1.2-0.4,1.6,0
				C40.9,32.6,40.9,33.3,40.5,33.7z"/>
			<g>
				<g>
					<path fill="#FFFFFF" d="M29.9,27.4h-2.1v-1c0-0.4,0-0.7,0.1-0.9c0.1-0.2,0.3-0.4,0.6-0.8l0.9-1c0.1-0.2,0.2-0.4,0.2-0.6
						c0-0.3-0.1-0.5-0.2-0.7c-0.1-0.2-0.3-0.3-0.6-0.3c-0.2,0-0.4,0.1-0.6,0.3C28.1,22.7,28,23,28,23.3h-2.2c0.1-0.9,0.4-1.7,1-2.2
						c0.6-0.5,1.3-0.8,2.2-0.8c0.9,0,1.6,0.2,2.1,0.7c0.5,0.5,0.8,1.1,0.8,2c0,0.4,0,0.6-0.1,0.8c-0.1,0.2-0.2,0.3-0.2,0.4
						c0,0.1-0.1,0.2-0.3,0.4c-0.1,0.2-0.2,0.3-0.3,0.3c-0.2,0.2-0.4,0.4-0.6,0.6c-0.2,0.2-0.3,0.4-0.4,0.5c-0.1,0.1-0.1,0.3-0.1,0.6
						V27.4z"/>
				</g>
				<circle fill="#FFFFFF" cx="28.9" cy="29.5" r="1.2"/>
			</g>
		</g>
		<g>
			<g>
				<path fill="#344A5E" d="M19.7,18.5H4l0.4-2c0.2-1,0.9-1.9,1.9-2.3l2.6-1.1l3,0.9l3-0.9l2.6,1.1c1,0.4,1.7,1.2,1.9,2.3L19.7,18.5
					z"/>
			</g>
			<g>
				<g>
					<g>
						<polygon fill="#CED6E0" points="13.6,18.5 13.7,13.6 11.9,14.1 10.1,13.6 10.1,18.5 						"/>
					</g>
					<g>
						<polygon fill="#F3705A" points="10.4,18.5 13.4,18.5 12.4,15.8 12.9,15.1 11.9,14.1 10.8,15.1 11.4,15.8 						"/>
					</g>
					<g>
						<g>
							<path fill="#E8EAE9" d="M11.9,14.1c0,0,1.8-1.1,1.9-2.2l0.7,1.2l-1.3,2.7L11.9,14.1z"/>
						</g>
						<g>
							<polygon fill="#415A6B" points="14,18.5 15.9,15.2 14.9,14.7 15.9,14.2 14.2,12.5 12.8,18.5 							"/>
						</g>
					</g>
					<g>
						<g>
							<path fill="#E8EAE9" d="M11.9,14.1c0,0-1.8-1.1-1.9-2.2l-0.7,1.2l1.3,2.7L11.9,14.1z"/>
						</g>
						<g>
							<polygon fill="#415A6B" points="7.8,15.2 9.7,18.5 11,18.5 9.6,12.5 7.8,14.2 8.9,14.7 							"/>
						</g>
					</g>
				</g>
				<g>
					<path fill="#F7B64C" d="M9.9,10.7v1.2c0.1,1,1.9,2.2,1.9,2.2s1.8-1.1,1.9-2.2l0-1.2H9.9z"/>
				</g>
				<g>
					<g>
						<path fill="#415A6B" d="M11.9,7.8c0,1.6-0.7,2.9-1.5,2.9S8.7,9.5,8.7,7.8c-0.1-1.7,0.6-3.1,1.5-3.1
							C11.1,4.7,11.9,6.1,11.9,7.8z"/>
						<g>
							<path fill="#415A6B" d="M15.3,7.5c-0.1,1.8-1.4,3.2-3,3.2c-1.6,0-2.9-1.4-2.9-3.2C9.3,5.6,10.7,4,12.4,4
								C14.1,4,15.4,5.6,15.3,7.5z"/>
						</g>
					</g>
					<g>
						<path fill="#FFD15C" d="M14.7,7.6c-1.3-0.2-2.7-0.6-3.8-1.3c-0.5,0.8-1.1,1.5-2,1.9c0,0.2,0,0.5,0,0.7c0.1,2.1,1.4,3.8,3,3.8
							c1.6,0,2.9-1.6,3-3.8C14.9,8.5,14.8,8,14.7,7.6z"/>
					</g>
					<g>
						<g>
							<g>
								<path fill="#FFD15C" d="M15.3,9.3c-0.2,0.6-0.6,1-0.9,0.9c-0.3-0.1-0.5-0.6-0.3-1.2c0.2-0.6,0.6-1,0.9-1
									C15.3,8.2,15.5,8.7,15.3,9.3z"/>
							</g>
						</g>
						<g>
							<g>
								<path fill="#FFD15C" d="M8.4,9.3c0.2,0.6,0.6,1,0.9,0.9c0.3-0.1,0.5-0.6,0.3-1.2c-0.2-0.6-0.6-1-0.9-1
									C8.4,8.2,8.3,8.7,8.4,9.3z"/>
							</g>
						</g>
					</g>
				</g>
			</g>
		</g>
	</g>
</g>
</svg>
