<?xml version="1.0" encoding="utf-8"?>
<!-- Generator: Adobe Illustrator 19.0.1, SVG Export Plug-In . SVG Version: 6.00 Build 0)  -->
<svg version="1.1" id="Layer_1" xmlns="http://www.w3.org/2000/svg" xmlns:xlink="http://www.w3.org/1999/xlink" x="0px" y="0px"
	 viewBox="-475 477 48 48" style="enable-background:new -475 477 48 48;" xml:space="preserve">
<style type="text/css">
	.st0{fill:#344A5E;}
	.st1{fill:#ADB3BA;}
	.st2{fill:#A5AAAD;}
	.st3{fill:#CED6E0;}
	.st4{fill:#415A6B;}
	.st5{fill:#F3705A;}
	.st6{fill:#2D4456;}
	.st7{fill:#E8EAE9;}
	.st8{fill:#66C6B9;}
	.st9{fill:#4ABAA5;}
	.st10{fill:#FFD15C;}
	.st11{fill:#F7B64C;}
	.st12{fill:#F05540;}
	.st13{fill:#F3F3F3;}
</style>
<g>
	<g>
		<ellipse class="st0" cx="-430.7" cy="492" rx="1.2" ry="3.1"/>
	</g>
	<g>
		<polygon class="st1" points="-459.5,514.9 -431.8,516.6 -427.1,508.6 -427.1,495.8 -453.5,494.6 -460.1,498.1 		"/>
	</g>
	<g>
		<polygon class="st2" points="-427.8,495.8 -432.5,520.1 -433.1,520.1 -433.1,495.6 		"/>
	</g>
	<g>
		<polygon class="st1" points="-427.1,495.8 -427,514.8 -432.5,520.1 -432.5,495.6 		"/>
	</g>
	<g>
		<g>
			<polygon class="st3" points="-460.1,497.9 -460.1,520.4 -459.5,520.4 -455.1,497.9 			"/>
		</g>
		<g>
			<polygon class="st2" points="-459.5,497.9 -459.5,520.4 -454,515.2 -454.1,497.9 			"/>
		</g>
	</g>
	<g>
		<path class="st0" d="M-428.4,487c0,0-1.3,0.8-1.7,1.8c-0.5,1.1-0.7,2.8-0.7,2.8l-0.8,5.6c0,0-4.9-0.1-5.4-1.4
			c-0.5-1.3,0.8-2.9,1.3-3.7c0.4-0.8,4.2-7,4.2-7h0.1c0,0,1,0.5,1.5,0.8c0.4,0.3,0.8,0.7,1.1,0.8C-428.7,486.9-428.4,487-428.4,487z
			"/>
	</g>
	<g>
		<ellipse class="st4" cx="-432" cy="484.9" rx="0.2" ry="0.4"/>
	</g>
	<g>
		<path class="st0" d="M-438.5,484.4l0.1-0.4c0,0,0.4,0,0.7,0.1c0.3,0.1,1.9-0.1,2.2,0c0,0-0.4,2.8-0.4,3.5c0,0.7-0.1,4-0.1,4.5
			c0,0.5-0.8,4.3-1.7,4.7c-0.7,0.3-2.5-0.8-3-1.2c-0.1-0.1-0.1-0.2-0.1-0.3c0.4-0.7,1.6-3.2,1.8-4.2c0.2-1.2,0.2-2.2,0.2-2.2
			s-0.2-2.1-0.1-3C-438.8,485.1-438.5,484.4-438.5,484.4z"/>
	</g>
	<g>
		<polygon class="st3" points="-427.1,495.8 -432.5,499.7 -460.1,498.1 -453.5,494.6 		"/>
	</g>
	<g>
		<g>
			<path class="st4" d="M-450.5,497.7l-1.9-5.3c0,0,0-0.1,0-0.1l0.8-1.6c0,0,0.1,0,0.1,0l1.7,4.8L-450.5,497.7z"/>
		</g>
		<g>
			<g>
				<path class="st0" d="M-444,495.6l-0.5,1.6c-0.1,0.3-0.6,0.3-0.9,0.3c-0.3,0-4.8,0.1-5,0c-0.2-0.1-0.2-0.2-0.2-0.2l0.8-1.6
					l5.6-0.3C-444.1,495.4-444,495.5-444,495.6z"/>
				<g>
					<path class="st4" d="M-444.8,496.1l-0.3,0.9c0,0-0.7,0-1,0l0.2-0.8L-444.8,496.1z"/>
				</g>
			</g>
			<g>
				<path class="st4" d="M-446.2,495.8l-0.4,1.4c-1.1,0-2.4,0-3.2,0c-0.2,0-0.3,0-0.4,0l0.6-1.3L-446.2,495.8z"/>
			</g>
		</g>
		<g>
			<path class="st4" d="M-450.6,497.5v-0.2c0,0,0,0.1,0.2,0.1c0.2,0,5.5,0.1,5.6,0c0.2-0.1,0.2-0.1,0.3-0.2c0,0-0.1,0.4-0.4,0.4
				c-0.3,0-4.6,0.1-5.5,0C-450.5,497.7-450.6,497.6-450.6,497.5z"/>
		</g>
		<g>
			<polygon class="st3" points="-450,495.2 -450.6,496.7 -452.2,492.3 -451.5,491 			"/>
		</g>
	</g>
	<g>
		<path class="st4" d="M-435.8,484.3l-0.6,1l0.4,0.4l-1,0.4c0,0,0.4,2.9,0.6,3.8c0.1,0.7,0.4,2.1,0.4,3.3c0-0.1,0.1-0.2,0.2-0.2
			c0.2-0.6,0.4-1.6,0.4-2.6c0.1-1.7,0.3-5.9,0.3-5.9L-435.8,484.3z"/>
	</g>
	<g>
		<path class="st3" d="M-446.4,491.1c0,0,0.4,2.7,1.1,2.1c0.7-0.6,0.7-1.7,0.7-1.7S-444.6,490.3-446.4,491.1z"/>
	</g>
	<g>
		<g>
			<g>
				<g>
					<path class="st0" d="M-469.2,518.4L-469.2,518.4c-0.1,0-0.2-0.1-0.2-0.3l2.2-8.9l0.4,0.1l-2.2,8.9
						C-469,518.3-469.1,518.4-469.2,518.4z"/>
				</g>
			</g>
			<g>
				<g>
					<path class="st0" d="M-458.6,517.9l-2.6-9l0.4-0.1l2.6,9c0,0.1,0,0.2-0.2,0.3l0,0C-458.4,518-458.5,518-458.6,517.9z"/>
				</g>
			</g>
		</g>
		<g>
			<g>
				<path class="st0" d="M-467.5,507.3c-2.9-0.2-2.9-3.3-2.9-3.3l0.4,0c0,0.1,0,2.7,2.5,2.9L-467.5,507.3z"/>
			</g>
		</g>
		<g>
			<g>
				<path class="st5" d="M-467.8,506c0,0-1,0.7-1.5,1.8c-0.5,1.2-0.2,1.7,0.2,1.9c0.5,0.1,7.9,0.6,7.7-1.2
					C-461.4,506.6-462.4,504.6-467.8,506z"/>
			</g>
		</g>
		<g>
			<g>
				<path class="st4" d="M-468.1,510.1c-0.8,0-1.4-0.1-1.6-0.2c-1.4-0.8-1.7-2.7-1.7-2.8l0.4-0.1c0,0,0.3,1.8,1.5,2.5
					c0.8,0.4,6.6-0.2,7.5-0.4c0.6-0.1,1.1-0.8,1.2-0.8l0.3,0.3c0,0-0.7,0.8-1.4,1C-462.3,509.7-465.9,510.1-468.1,510.1z
					 M-471.2,507.1l0.2,0v0L-471.2,507.1z"/>
			</g>
		</g>
		<g>
			<g>
				<path class="st5" d="M-473.3,497.6c0,0,0.3-0.1,0.5,0c0.3,0.1,0.9,0.4,1.5,1.4c0.6,1,1.8,3.6,1.9,4.7c0.1,1.1-0.5,2-0.6,2.2
					c-0.1,0.3-0.1,0.5-0.1,0.7c0,0.2-0.3,0.8-0.7,0.8c-0.2,0-2.7-5.8-2.7-5.8s-1.3-2.6-1.3-3C-474.8,498.2-473.8,497.6-473.3,497.6z
					"/>
			</g>
		</g>
		<g>
			<g>
				<g>
					<path class="st4" d="M-450.2,518.8l0.3,0.3c0,0,0.1,0.3-0.7,0.7c-0.6,0.2-2.8,0.7-3.8,0.5c-1-0.1-3.2-0.9-3.5-1l0.6-0.9
						L-450.2,518.8z"/>
				</g>
			</g>
			<g>
				<g>
					<path class="st6" d="M-457.8,519.1c0,0,2.9,1.4,5.2,1c2.3-0.5,3-0.7,2.5-1.2c-0.5-0.5-1.3-0.4-2-0.7c-0.7-0.3-1.8-0.7-2.1-1.3
						c-0.3-0.6-0.3-0.6-0.3-0.6l-2.7,0.4C-457.1,516.6-457.9,518.4-457.8,519.1z"/>
				</g>
			</g>
			<g>
				<g>
					<path class="st7" d="M-459.7,515.5c0,0-1.2,0.5-1.5,1.1c0,0,1.3,1.2,2.3,1.3c1,0.1,1.4-0.9,1.4-0.9l0.5-1.8L-459.7,515.5z"/>
				</g>
			</g>
			<g>
				<g>
					<path class="st8" d="M-458.8,502.9c0,0,4.8,1.3,6.9,2c2.1,0.8,2.9,1.6,3,2.5c0.2,0.9-1.3,2.7-1.9,3.2c-0.7,0.5-3.5,4.4-4.2,5.1
						c-0.7,0.7-2.1,1.3-2.1,1.3s-0.6-0.4-1.9-0.8c-1.2-0.4-1.7-0.5-1.7-0.5s2.2-1.9,2.9-3c0.7-1,1.8-2.6,1.8-2.6s-2.2-4.6-2.9-5.2
						C-459.5,504.5-458.8,502.9-458.8,502.9z"/>
				</g>
			</g>
			<g>
				<g>
					<path class="st9" d="M-454.7,515.3c0.7-1,1.1-2.2,1.2-3.4c0.1-0.8,0-1.6-0.3-2.3c-0.3-0.7-1-1.3-1.7-1.4c-0.3,0-0.6,0-0.7,0.2
						l-0.2,0.6c0.4,0.8,0.6,1.3,0.6,1.3s-0.7,1.5-0.9,1.9c-0.7,1.4-1,3-1,4.5c0.4,0.2,0.6,0.3,0.7,0.3
						C-456.1,516.7-455.3,516.1-454.7,515.3z"/>
				</g>
			</g>
			<g>
				<path class="st9" d="M-449.8,507.3c-0.4,0.3-1.1,0.8-1.1,0.8s1.2-1.1,0.9-1c-0.3,0.1-0.9,0.9-0.9,0.9s-0.1-0.6-0.6-1
					c-0.5-0.4-2.8-1-2.8-1c0.2-0.3,1.2-0.9,0.9-0.8c-0.3,0.1-1,0.7-1,0.7c-0.4-0.1-0.7-0.2-0.7-0.2c0.2-0.3,1.4-1.1,0.9-0.9
					c-0.5,0.2-1.1,0.8-1.1,0.8c-0.3-0.1-1.3-0.6-2.1-1.2c-0.8-0.6-0.9,0.3-0.9,0.3s1.8,2,2,2.3c0.2,0.3,3.3,5.4,3.3,5.4l0.3,0.5
					c0.6-0.8,1.3-1.6,1.6-2c0.4-1.2,0.1-2.5,0.1-2.5s0.4-0.2,1.1-0.5C-449.1,507.5-449.4,507-449.8,507.3z"/>
			</g>
			<g>
				<g>
					<path class="st9" d="M-449.6,508.1c-0.4,0.1-0.8,0.2-1.2,0.3c0,0-0.1,0-0.1,0c0,0-0.1,0-0.1-0.1c0.3-0.1,1.4-0.5,1.6-0.3
						C-449.4,508-449.5,508.1-449.6,508.1z"/>
				</g>
			</g>
			<g>
				<g>
					<path class="st8" d="M-467.5,505.6c0,0-0.1,2.3,1.8,2.8c1.2,0.4,4.9,0.7,6.5,1.3c1.6,0.5,4.1,1.1,4.1,1.1s-1.5,0.5-1.9,3.2
						c-0.5,2.6-0.4,3.9-0.4,3.9s1.2-0.7,1.6-0.7c0.4,0,1.3,0.4,1.6-0.1c0.3-0.5,0.9-3,1.3-3.6c0.4-0.6,1.5-2.1,1.7-3
						c0.2-0.9,0.2-2.5-0.7-3c-0.8-0.6-5.9-2.4-5.9-2.4L-467.5,505.6z"/>
				</g>
			</g>
		</g>
		<g>
			<g>
				<path class="st10" d="M-459.1,488.3l0.1-0.5c0,0,0-0.1,0.1-0.1c0.2,0,1.3,0,1.2-0.7c0,0,0-0.4,0.2-0.6c0.2-0.2-0.1-0.3-0.1-0.3
					s0.2,0.1,0.3-0.2c0.1-0.2,0.1-0.5,0.1-0.5s0.5,0,0.7-0.1c0.1-0.1,0.1-0.3,0-0.4c0-0.1-0.4-0.9-0.4-0.9s0.2-0.1,0.2-0.4
					c0-0.3-0.1-1.3-0.5-1.8c-0.4-0.5-2.7-0.7-2.7-0.7l-2.3,4.4C-462.1,485.6-460,488-459.1,488.3z"/>
			</g>
		</g>
		<g>
			<g>
				<path class="st4" d="M-461.9,485.5c0,0,0.6,0.7,1.7,0.5c0,0-0.1-1.2,0.3-1.7s1.1-0.2,1.2,0.3l0.3,0c0,0,0.1-0.5,0.4-1
					c0.3-0.4,0.4-1.4,0-1.8c0,0,0.6-0.1,1,0.1c0,0,0.8-0.2,0.1-1.4c-0.7-1.2-2.6-1.4-3.9-1.1c-1.4,0.3-1.7,1.4-1.9,2.3
					C-463.1,482.7-462.3,484.7-461.9,485.5z"/>
			</g>
		</g>
		<g>
			<g>
				<path class="st11" d="M-445.2,492.9c-0.1,0.1-0.2,0.3-0.3,0.2c0,0,0.1,0.4-0.1,0.6c-0.2,0.2-0.2,0.3-0.2,0.5
					c0,0.1-0.1,0.6-0.1,0.6l-0.8,0.3c0,0-0.9-0.4-1.1-0.4c-0.2,0-1,0.2-1,0.2l0.4-1.7c0,0,0.1-0.1,0.3-0.2c0,0,0.2-0.5,0.3-0.7
					c0.1-0.2,0.3-0.3,0.3-0.5c0-0.2,0.3-0.2,0.3-0.2l0.2-0.2c0,0,0.2,0.1,0.2,0.3c-0.1,0.2-0.2,0.3-0.2,0.4c0,0.1,0,0.1,0,0.1
					s0.3,0,0.4,0c0.1,0.1,0.3,0.3,0.3,0.4c0,0,0.4-0.3,0.7-0.2C-445.4,492.4-445.2,492.8-445.2,492.9z"/>
			</g>
		</g>
		<g>
			<g>
				<path class="st7" d="M-462.4,485.9c0,0,0.4-0.5,0.4-0.5s0.9,0.6,1.8,1.5c0.9,0.9,1.4,1.6,1.4,1.9c0,0.4,0,0.4,0,0.4l-1.7-0.9
					L-462.4,485.9z"/>
			</g>
		</g>
		<g>
			<g>
				<path class="st9" d="M-462.4,486.3l-0.4,0c0,0-0.4,0.2-1,1.6c-0.6,1.4-1.5,3.6-1.8,4.6c-0.3,1-1.2,6.9-1.4,8
					c-0.2,1.1-1,5.6-1,5.6s0.5-0.1,2-0.2c1.5-0.1,4.3,0,5.3-0.3c1-0.3,3-0.7,3-0.7s-0.4-4.9-0.5-6c-0.1-1.1,0.6-5,0.5-6
					C-457.8,491.9-462.4,486.3-462.4,486.3z"/>
			</g>
		</g>
		<g>
			<g>
				<path class="st9" d="M-462.8,486.3c0,0,0.1,0.2,0.6,0.7c0.5,0.6,1.6,1.7,1.6,1.7l0.8-0.4c0,0-1.5-2-2.3-2.6
					c-0.1-0.1-0.2,0-0.2,0L-462.8,486.3z"/>
			</g>
		</g>
		<g>
			<g>
				<path class="st8" d="M-460.3,493.8c-0.9-0.1-1.6-0.8-1.8-1.7c-0.1-0.4-0.1-0.9,0-1.4c0.5-2.1,1.3-2.8,1.9-2.9
					c0.6-0.1,2,1.2,2.1,1.6c0.1,0.4,0.2,1.2,0.6,1.6c0.4,0.4,1.4,0.8,2,1.1c0.6,0.3,1,0.7,1.5,0.8c0.4,0.1,1.6,0.1,1.9,0.1
					c0.4,0,1.3,0.2,1.7,0.1c0.5-0.1,2.1-0.2,2.1-0.2s0.4,0.6,0.2,1.9c-0.2,1.3-0.5,1.4-0.5,1.4s-3.1-0.4-3.8-0.3
					c-0.6,0-1.5,0.2-2-0.1c-0.5-0.2-3.1-1.2-4-1.7C-458.9,494-459.7,493.8-460.3,493.8z"/>
			</g>
		</g>
		<g>
			<g>
				<path class="st10" d="M-447.1,492.2c0,0,0.3,0,0.5,0.3c0.2,0.3,0.2,0.4,0.4,0.5l0.2,0.2c0.1,0.1,0.2,0.1,0.3,0.1
					c0.1-0.1,0.2-0.1,0.2-0.3c-0.1-0.3-0.2-0.5-0.2-0.5c0-0.1,0.4,0.1,0.5,0.3l1.2-0.8l-1.4-1.2l-0.9,0.4
					C-446.4,491-446.9,491.7-447.1,492.2z"/>
			</g>
		</g>
		<g>
			<g>
				<path class="st10" d="M-447.1,494.9c0.1,0,0.2,0,0.3,0c0,0,0.1,0,0.1-0.1c0.1-0.1,0.4-0.4,0.6-0.2c0,0,0.1-0.2,0.2-0.2
					c0,0,0-0.3,0.1-0.4c0.1,0,0.2,0,0.2,0l-0.1,0.4c0,0-0.1,0.4-0.2,0.5s-0.5,0.1-0.5,0.1s-0.2,0.2-0.4,0.1
					c-0.2-0.1-0.4-0.3-0.4-0.3L-447.1,494.9z"/>
			</g>
		</g>
		<g>
			<g>
				<path class="st4" d="M-472.7,497.6c0,0-0.4,0-0.8,0.1c-0.4,0.1-1,0.5-1.1,0.7c-0.1,0.2,0,0.6,0.3,0.9c0.3,0.4,0.9,0.7,1.1,1.9
					c0.3,1.2,2.4,6.3,2.4,6.3s-0.4,0.3-0.6,0.1c-0.2-0.2-1.6-3.8-1.8-4.3c-0.2-0.6-0.7-2-0.7-2s-0.2-0.7-0.5-1.2s-0.7-1-0.6-1.5
					S-473.5,497.3-472.7,497.6z"/>
			</g>
		</g>
		<g>
			<g>
				<path class="st12" d="M-469.3,503.7c0-0.4-0.2-0.9-0.4-1.5c-0.4-1.1-1-2.2-1.6-3.1c-0.1-0.1-0.1-0.2-0.2-0.3
					c-0.6-0.8-1.6-0.9-2-0.6c-0.4,0.3-0.2,0.6,0.6,1.8s1.5,2.6,2.2,4.3c0.4,1.1,0.6,1.9,0.7,2.4c0,0,0,0,0,0c0-0.2,0-0.4,0.1-0.7
					C-469.8,505.7-469.3,504.8-469.3,503.7z"/>
			</g>
		</g>
		<g>
			<g>
				<g>
					<path class="st4" d="M-470.5,522.7L-470.5,522.7c-0.1,0-0.2-0.1-0.2-0.3l2.4-12.5l0.4,0.1l-2.4,12.5
						C-470.2,522.7-470.3,522.7-470.5,522.7z"/>
				</g>
			</g>
			<g>
				<g>
					<path class="st4" d="M-458.6,522l-3.6-12.6l0.4-0.1l3.6,12.6c0,0.1,0,0.2-0.2,0.3l0,0C-458.4,522.2-458.5,522.1-458.6,522z"/>
				</g>
			</g>
		</g>
		<g>
			<g>
				<path class="st9" d="M-449.6,508.1c-0.4,0.1-0.8,0.2-1.2,0.3c0,0-0.1,0-0.1,0c0,0-0.1,0-0.1-0.1c0.3-0.1,1.4-0.5,1.6-0.3
					C-449.4,508-449.5,508.1-449.6,508.1z"/>
			</g>
		</g>
		<g>
			<g>
				<g>
					<path class="st4" d="M-461.9,518.1l-0.3,0.5l2.1,1l0.2-0.3c0,0,1,0.6,1.6,1c0.6,0.4,1.3,0.7,2.7,0.6c1.4-0.1,1.6-0.1,1.5-0.4
						c-0.1-0.4-0.8-0.4-0.8-0.4l-6.5-2.1L-461.9,518.1z"/>
				</g>
			</g>
			<g>
				<g>
					<path class="st0" d="M-454,520.5c0,0-1.2,0.2-2,0.1c-0.8-0.1-1.2,0-1.7-0.4c-0.5-0.4-2.7-1.5-3.4-1.8c-0.7-0.3-0.9-0.4-0.9-0.4
						s-0.2-1.1,0.9-1.8c0,0,0.9,0.9,1.9,1.1c0.9,0.1,1.7-0.3,1.7-0.3s0.5,1.2,1,1.7c0.5,0.5,1.2,0.8,1.8,0.9
						C-454.1,519.9-453.9,520.3-454,520.5z"/>
				</g>
			</g>
		</g>
	</g>
	<g>
		<path class="st4" d="M-446.4,491.1c0,0,0.5-0.3,1.1,0.2c0.6,0.4,0.5,1.6,0,1.9c0,0,1.4-0.6,2-0.9c0.6-0.2,2.2-1.1,2.7-1.6
			c0.5-0.5,1.5-1.4,1.7-1.5c0.2-0.2,0.2-0.2,0.2-0.2s-0.1-1.6,0.1-2.2c0.2-0.6,0.6-2.3,0.3-2.7c0,0-0.2,0-0.5,0.5
			c-0.3,0.5-0.8,1.1-1,1.3c-0.2,0.2-0.3,0.3-0.4,0.4c-0.1,0.2-0.6,0.7-1,1.2c-0.5,0.4-0.7,0.6-0.9,0.9c-0.2,0.3-0.7,0.7-1.4,1
			c-0.6,0.3-1.6,1-2.1,1.3C-446.1,490.7-446.4,491.1-446.4,491.1z"/>
	</g>
	<g>
		<path class="st10" d="M-431.1,483.1c0,0.6-0.6,1.3-0.8,1.6c0,0,0,0,0,0c-0.1,0.1-0.1,0.1-0.1,0.1l0,0.3c-0.1,0.3-0.2,0.6-0.5,1.1
			l-2.3,1.3V486c-0.7,0.1-1-0.2-1-0.4c0-0.1,0-0.5-0.1-1.2c-0.1-0.8,0.1-1.4,0.1-1.4c0.1-0.2,0.1-0.5,0.1-0.6c0-0.1,0-0.2,0.1-0.3
			c0.3-0.9,1.1-1.5,1.1-1.5s1.1-0.3,2.1-0.2C-431.3,480.5-431.1,482.4-431.1,483.1z"/>
	</g>
	<path class="st11" d="M-434.8,487.1c1.7-0.6,2.6-2.3,2.6-2.3c-0.9,1.1-2.6,1.2-2.6,1.2V487.1z"/>
	<g>
		<g>
			<path class="st3" d="M-434.1,490c0.2-0.3,0.4-0.6,0.6-0.8c0.4-0.6,0.7-1.3,1.2-2c-0.4-0.4-0.8-0.8-0.8-0.8l-1-0.1l-0.5-0.1
				c-0.2-0.1-0.7,0.1-1.2,0.3c0,0-0.1,0.6-0.3,1.5v4.5C-435.5,491.8-434.8,490.9-434.1,490C-434.1,490.1-434.1,490.1-434.1,490z"/>
		</g>
	</g>
	<g>
		<path class="st12" d="M-436,492.5c0,0.1,0.1-0.2,0.1-0.2c0.1-0.1,0.1-0.2,0.2-0.3c0.3-0.5,0.6-0.9,0.9-1.3
			c0.1-0.1,0.1-0.2,0.2-0.3c0-0.3,0.1-0.6,0.1-0.9c0-0.5,0.1-2,0.1-2l0-0.3l-0.4,0.2c0,0-0.4,0.6-0.6,1.3
			C-435.7,489.3-436,492.2-436,492.5C-436,492.5-436,492.5-436,492.5z"/>
	</g>
	<g>
		<path class="st5" d="M-434.6,486.3c0,0,0.4,0.2,0.7,0.3c0.3,0,0.3,0,0.3,0s-0.7,0.5-0.8,0.8c0,0-0.3-0.1-0.4-0.1
			c0,0,0.2-0.8-0.4-1.1C-435.2,486.2-434.8,486.1-434.6,486.3z"/>
	</g>
	<g>
		<path class="st4" d="M-437.1,486.4c0.1,0.8,0.4,2.8,0.5,3.4c0.2,0.8,0.5,2.3,0.3,3.6c0,0,0.5-1.4,0.7-3.1c0.1-0.9,0.1-2.6,0.2-3.9
			H-437.1z"/>
	</g>
	<g>
		<path class="st13" d="M-432,485c0,0-0.4,1.1-2.1,1.3c0,0,0.7,1.3,0.6,2.2c0,0,1.6-2.8,1.6-2.9C-431.9,485.6-431.9,485.3-432,485z"
			/>
	</g>
	<g>
		<path class="st4" d="M-435.2,481.4c0,0,0.4-0.6,0.6-0.6c0,0,0.4,1.2,2.6,1.2c0,0-0.4,0.8-0.3,1.3s-0.1,0.8-0.1,0.8l0.2,0.2
			c0,0,0.3-0.3,0.7-0.5c0.4-0.2,0.4,0.3,0.4,0.3s1.3-2.4,0.5-2.8c0,0,0.1-1.2-1.4-1.7c-1.5-0.5-2.5,0.5-2.7,0.7
			C-435,480.7-435.2,481.2-435.2,481.4z"/>
	</g>
	<g>
		<path class="st4" d="M-431.9,484.7c0,0-0.1,0.7-0.9,1.9c-0.8,1.1-2.7,4.5-2.9,5.1c-0.2,0.6-0.8,2.3-0.8,2.3s0.6-1.4,1.4-2.4
			c0.9-0.9,3.5-4,3.5-4l-0.5-0.6l0.6-0.4c0,0,0-1.6,0-1.9C-431.5,484.3-431.9,484.7-431.9,484.7z"/>
	</g>
	<g>
		
			<ellipse transform="matrix(0.869 0.4948 -0.4948 0.869 183.0538 276.9386)" class="st10" cx="-431.5" cy="484.2" rx="0.4" ry="0.7"/>
	</g>
	<g>
		<path class="st13" d="M-434.6,486.3c0,0-0.2,0-0.3,0.1c-0.1,0.1-0.7,0.9-0.7,0.9l0.1-1.2c0,0,0.3,0.1,0.7,0.1
			C-434.8,486-434.7,486.1-434.6,486.3z"/>
	</g>
	<g>
		<g>
			<path class="st10" d="M-432.6,496.2c0,0-0.2,0.2-0.5,0.2c-0.3,0.1-1.1,0-1.5,0.1c-0.4,0.1-1.2,0.5-1.7,0.5c0,0-0.6,0.2-1,0.3
				c-0.4,0-0.5,0-0.5-0.1c0,0-0.6,0.3-1.1,0.1c0,0-0.5,0.1-0.7-0.1c0,0-0.1-0.1-0.1-0.3l0.4-0.3c0,0-0.1-0.2,0-0.3l0.4-0.2
				c0,0,0.3-0.1,0.4-0.1s0.4-0.2,0.6-0.3c0.1-0.1,1.8-0.4,2.2-0.5c0.4-0.1,1.7-0.5,2.4-0.4c0.8,0,0.8,0,0.8,0L-432.6,496.2z"/>
		</g>
		<g>
			<g>
				<path class="st11" d="M-438.9,497.2c0-0.1,0-0.2,0-0.2l0,0l0,0c0.1,0,0.2-0.1,0.3-0.1c0,0,0.1,0,0.1-0.1c0,0,0.1,0,0.1-0.1
					c0,0,0.1,0,0.1-0.1c0,0,0.1-0.1,0.1-0.1c0.1-0.1,0.1-0.1,0.2-0.2c0,0,0.1,0,0.1-0.1l0.1,0c0.1,0,0.2-0.1,0.3-0.1l0.3-0.1
					c0.1,0,0.2-0.1,0.3-0.1c-0.1,0-0.2,0.1-0.3,0.1c-0.1,0-0.2,0.1-0.3,0.1c-0.1,0-0.2,0.1-0.3,0.1l-0.1,0c0,0-0.1,0-0.1,0.1
					c-0.1,0-0.1,0.1-0.2,0.2c0,0-0.1,0.1-0.1,0.1c0,0-0.1,0.1-0.1,0.1c-0.1,0-0.2,0.1-0.3,0.1c-0.1,0-0.2,0.1-0.3,0.1l0,0
					c0,0,0,0.1,0,0.1C-438.9,497.1-438.9,497.2-438.9,497.2z"/>
			</g>
			<g>
				<path class="st11" d="M-439.6,497.1C-439.6,497.1-439.6,497.1-439.6,497.1C-439.5,497.1-439.5,497-439.6,497.1
					c0-0.1,0-0.2,0.1-0.2c0,0,0.1-0.1,0.1-0.1c0,0,0.1-0.1,0.1-0.1c0,0,0.1,0,0.1,0c0,0,0.1,0,0.1,0c0.1-0.1,0.3-0.1,0.4-0.2
					c0,0,0.1,0,0.1-0.1c0,0,0.1,0,0.1-0.1c0.1,0,0.1-0.1,0.2-0.1c0.1-0.1,0.2-0.1,0.3-0.1c0.2-0.1,0.3-0.1,0.3-0.1s-0.1,0.1-0.3,0.1
					c-0.1,0-0.2,0.1-0.3,0.2c-0.1,0-0.1,0.1-0.2,0.1c0,0-0.1,0-0.1,0.1c0,0-0.1,0-0.1,0.1c-0.1,0.1-0.3,0.1-0.4,0.2c0,0-0.1,0-0.1,0
					c0,0-0.1,0-0.1,0c-0.1,0-0.1,0.1-0.1,0.1c0,0-0.1,0.1-0.1,0.1C-439.5,497-439.5,497-439.6,497.1
					C-439.5,497.1-439.6,497.1-439.6,497.1z"/>
			</g>
			<g>
				<path class="st11" d="M-439.2,496.5C-439.2,496.5-439.2,496.5-439.2,496.5c0.1-0.1,0.1-0.1,0.2-0.2c0.1,0,0.1-0.1,0.2-0.1
					c0.1,0,0.2-0.1,0.3-0.1c0.1,0,0.2-0.1,0.3-0.1c0.1,0,0.2-0.1,0.2-0.1c0.1,0,0.1,0,0.2-0.1c0,0,0.1,0,0.1,0s0,0-0.1,0
					c0,0-0.1,0.1-0.2,0.1c-0.1,0.1-0.3,0.1-0.5,0.2c-0.1,0-0.2,0.1-0.3,0.1c-0.1,0-0.2,0.1-0.2,0.1
					C-439.1,496.4-439.2,496.4-439.2,496.5C-439.2,496.5-439.2,496.5-439.2,496.5z"/>
			</g>
		</g>
		<g>
			<path class="st11" d="M-437.8,497.2c0,0,0-0.1,0-0.1c0,0,0,0,0,0c0,0,0,0,0,0c0.1,0,0.1-0.1,0.2-0.1l0,0l0.2-0.1
				c0.1,0,0.2-0.1,0.2-0.1c0,0,0.1,0,0.1-0.1c0,0,0.1,0,0.1,0c0.1,0,0.2-0.1,0.3-0.1c0,0-0.1,0-0.1,0.1c0,0-0.1,0-0.1,0.1
				c0,0-0.1,0-0.1,0.1c0,0-0.1,0-0.1,0.1c-0.1,0-0.2,0.1-0.2,0.1l-0.3,0.1l0,0l0,0c-0.1,0-0.1,0-0.2,0.1c0,0,0,0,0,0c0,0,0,0,0,0
				C-437.8,497.1-437.8,497.1-437.8,497.2z"/>
		</g>
	</g>
	<g>
		<path class="st4" d="M-427.7,493.5c0,0.8-0.2,2.5-0.7,2.6c-0.3,0.1-1.9,0.3-3.1,0.4c-0.5,0-1,0.1-1.2,0.1
			c-0.8,0.1-2.2,0.3-2.2,0.3s0.4-0.5-0.2-1.1c-0.5-0.6-0.8-0.8-0.8-0.8s1.3-0.2,2.1-0.3c0.8-0.1,1.5-0.1,2.2-0.3
			c0.1,0,0.3-0.1,0.4-0.1c0.5-0.2,0.7-0.4,0.7-0.4s-0.2-1.2-0.2-1.8c0-0.6,0.1-1.6,0.1-1.6s0,0,0,0c0.1-0.5,0.3-1.1,0.5-1.5
			c0.5-1.1,1.7-1.8,1.7-1.8s0.4,0,0.3,0.6c-0.1,0.5-0.2,1-0.1,1.5c0.1,0.4,0.1,1.2,0.2,1.6C-428,491-427.7,492.7-427.7,493.5z"/>
	</g>
</g>
</svg>
