<?xml version="1.0" encoding="utf-8"?>
<!-- Generator: Adobe Illustrator 18.0.0, SVG Export Plug-In . SVG Version: 6.00 Build 0)  -->
<!DOCTYPE svg PUBLIC "-//W3C//DTD SVG 1.1//EN" "http://www.w3.org/Graphics/SVG/1.1/DTD/svg11.dtd">
<svg version="1.1" id="Layer_1" xmlns="http://www.w3.org/2000/svg" xmlns:xlink="http://www.w3.org/1999/xlink" x="0px" y="0px"
	 viewBox="0 0 512 512" enable-background="new 0 0 512 512" xml:space="preserve">
<g>
	<path fill="#40596B" d="M488.8,2H23.2C11.5,2,2,11.5,2,23.2v313.9h508V23.2C510,11.5,500.5,2,488.8,2z"/>
	<rect x="35.9" y="35.9" fill="#FFFFFF" width="440.3" height="268.4"/>
	<path fill="#F2F2F2" d="M432.5,228.4c-2.3-39.6-18.1-77.8-44.6-107.5l-6-6.8l0.1-0.1l-0.8-0.7l-0.7-0.8l-0.1,0.1l-6.8-6
		c-29.7-26.5-67.8-42.3-107.5-44.6l-9-0.5v-0.1l-1.1,0.1l-1.1-0.1v0.1l-9,0.5c-39.6,2.3-77.8,18.1-107.5,44.6l-6.8,6l-0.1-0.1
		l-0.7,0.8l-0.8,0.7l0.1,0.1l-6,6.8c-26.5,29.7-42.3,67.9-44.6,107.5l-0.6,11.2h66.6l0.8-9.8c1.8-23.3,10.8-44.9,26-62.7l5.6-6.6
		l6.7-5.7c17.8-15.2,39.5-24.2,62.7-26l8.7-0.7l8.7,0.7c23.3,1.8,45,10.8,62.7,26l6.7,5.7l5.6,6.6c15.2,17.8,24.2,39.5,26,62.7
		l0.8,9.8h66.6L432.5,228.4z"/>
	<path fill="#F2F2F2" d="M97.5,475.6h316.9c1.1,0,2,0.9,2,2V510H95.5v-32.4C95.5,476.4,96.4,475.6,97.5,475.6z"/>
	<polygon fill="#CDD6E0" points="372.9,475.6 347.2,435.8 340.5,425.5 171.6,425.5 164.9,435.8 139.1,475.6 	"/>
	<path fill="#F2F2F2" d="M2,404.3c0,11.7,9.5,21.2,21.2,21.2h465.7c11.7,0,21.2-9.5,21.2-21.2v-67.2H2V404.3z"/>
	<circle fill="#CDD6E0" cx="256" cy="381.3" r="15"/>
	<polygon fill="#ACB3BA" points="347.2,439.5 164.9,439.5 171.6,425.5 340.5,425.5 	"/>
	<g>
		<path fill="#84DBFF" d="M135.8,229c2.1-26.1,12.4-49.9,28.5-68.8L132,128c-24.3,27.2-39.7,62.3-41.9,101H135.8z"/>
		<path fill="#54C0EB" d="M177.7,146.8c18.8-16.1,42.6-26.5,68.8-28.5V72.6c-38.7,2.2-73.8,17.6-101,41.9L177.7,146.8z"/>
		<path fill="#FFD15C" d="M265.5,72.6v45.6c26.1,2.1,49.9,12.4,68.8,28.5l32.3-32.3C339.3,90.2,304.2,74.8,265.5,72.6z"/>
		<path fill="#FF7058" d="M347.7,160.2c16.1,18.8,26.5,42.6,28.5,68.8h45.6c-2.2-38.7-17.6-73.8-41.9-101L347.7,160.2z"/>
	</g>
	<path fill="#40596B" d="M222.3,148.8c0,0,7.6,67.7,13.3,79.2c5.7,11.5,19.5,16.2,31,10.5s16.2-19.5,10.5-31
		C271.4,196.1,222.3,148.8,222.3,148.8z"/>
</g>
</svg>
