<?xml version="1.0" encoding="utf-8"?>
<!-- Generator: Adobe Illustrator 19.0.1, SVG Export Plug-In . SVG Version: 6.00 Build 0)  -->
<svg version="1.1" id="Layer_1" xmlns="http://www.w3.org/2000/svg" xmlns:xlink="http://www.w3.org/1999/xlink" x="0px" y="0px"
	 viewBox="0 0 48 48" style="enable-background:new 0 0 48 48;" xml:space="preserve">
<style type="text/css">
	.st0{fill:#66C6B9;}
	.st1{fill:#F3F3F3;}
	.st2{fill:#415A6B;}
	.st3{fill:#CED6E0;}
	.st4{fill:#F3705A;}
	.st5{fill:#E8EAE9;}
	.st6{fill:#4ABAA5;}
	.st7{fill:#F05540;}
	.st8{fill:#FFD15C;}
	.st9{fill:#55C0EB;}
	.st10{fill:#8AD7F8;}
	.st11{fill:#344A5E;}
	.st12{fill:#FFFFFF;}
	.st13{fill:#F7B64C;}
	.st14{fill:#ADB3BA;}
	.st15{fill:#38A892;}
	.st16{fill:#ED9845;}
	.st17{fill:#2D4251;}
	.st18{fill:#304556;}
	.st19{fill:#A5AAAD;}
	.st20{fill:#2D4456;}
	.st21{fill:#4FB0E0;}
	.st22{fill:#2D4354;}
	.st23{fill:#E54C38;}
	.st24{fill:#2B4456;}
	.st25{fill:#2B404F;}
</style>
<g>
	<g>
		<g>
			<g>
				<polygon class="st5" points="36.4,29 3.9,28.2 1.5,32.6 36.4,32.6 				"/>
			</g>
		</g>
		<g>
			<g>
				<g>
					<path class="st9" d="M12.8,13.4c0,0-1,0.3-2.2,0.7c-1.2,0.4-3.2,1.2-3.6,1.4c-0.4,0.2-0.5,1.3-0.6,1.9
						c-0.1,0.6-0.3,1.7-0.3,1.7l0.8,8.8l6.7,0.5c0,0-0.2-8.8-0.4-11S12.8,13.4,12.8,13.4z"/>
				</g>
				<g>
					<path class="st8" d="M12.9,10.6c0,0,0,4.2,1.4,5.4l0.9,2.4l2.9-1.6c0,0,0.1-2.1,0.2-2.8c0.2-0.7,0.3-1.4,0.3-1.4l0.8-4.1
						C19.4,8.6,13.3,7.3,12.9,10.6z"/>
				</g>
				<g>
					<path class="st11" d="M18.2,12.7l0.4-0.1c0,0,0.2-0.7,0.5-1.2c0.3-0.4,0.7-0.1,0.7-0.1s0.9-1.7,0.6-3.5s-2.8-3.1-4.3-2.9
						c-1.6,0.2-2.8,1.3-3.4,2.5s0,2.6,0.1,2.8s0.1,0.4,0.1,0.4s0-0.3,0.2-0.5c0,0,1.6,0.4,3-0.1s1.4-0.5,1.4-0.5s-0.3,1,0.4,1.5
						c0.3,0.2,0.4,0.5,0.4,0.9L18.2,12.7z"/>
				</g>
				<g>
					<ellipse transform="matrix(0.9105 0.4136 -0.4136 0.9105 6.6583 -6.8402)" class="st8" cx="19.1" cy="12" rx="0.6" ry="1.2"/>
				</g>
				<path class="st13" d="M18.3,13.9c-0.5,0.8-1.9,1.9-2.8,2.3c-0.8,0.3-1.2-0.1-1.2-0.1l0.5,1.4c0.4-0.2,0.9-0.5,1.5-1.1
					C17.5,15.3,18.3,13.9,18.3,13.9L18.3,13.9z"/>
				<g>
					<polygon class="st3" points="13.6,28.7 17.8,29.5 19,17.2 16.3,17.1 15.9,17.1 13.2,17.2 					"/>
				</g>
				<g>
					<g>
						<path class="st4" d="M17.6,17.7c0,0-0.9,1.5-1,2.1c-0.2-0.2-0.5-0.1-0.9,0c0,0-0.4-1.9-1.6-2.5l1.8-0.3h0.4L17.6,17.7z"/>
					</g>
					<path class="st4" d="M16.3,18.2l0.2,1.6c0,0,0.8,3.3,1,4.6c0.3,1.3,0.3,5.2,0.3,5.2l-3.2-0.3c0,0-0.1-5,0.2-6.2
						c0.2-1.2,0.8-3.3,0.8-3.3L16.3,18.2z"/>
				</g>
				<g>
					<path class="st1" d="M18.3,13.9c0,0-0.4,2-2.1,3.2l2.4,1.5l0.1-4L18.3,13.9z"/>
				</g>
				<g>
					<path class="st1" d="M14.3,16l1.5,1.1l-2.6,1.5l-0.4-4.8C12.9,13.9,13.8,15.6,14.3,16z"/>
				</g>
				<g>
					<g>
						<path class="st10" d="M13.6,29.9c0,0-0.3-7.1-0.7-9.1c-0.4-2-0.8-4.9-0.8-4.9l0.4-0.4L12,15.3c0,0,0.5-1.6,1.1-2.4
							c0.1,0.9,0.4,1.9,0.8,2.6c0,2.2,0,5.7,0.4,7.1C14.6,24.1,14.1,28.5,13.6,29.9z"/>
					</g>
				</g>
				<g>
					<path class="st9" d="M19,13.2c0,0,1.8,0.3,2.8,0.7s1.7,0.6,1.7,0.6s0.3,0,0.6,0.8s0.9,4.5,1.1,5.2c0.2,0.7,1.1,5.6,1.1,6
						c-0.1,0.4-0.9,2.2-5,3.2c0,0-0.3-1-1.3-1.6c-1.1-0.6-1.7-0.3-1.7-0.3l-0.7,0.2L19,13.2z"/>
				</g>
				<g>
					<path class="st10" d="M20.7,16.8c0,0-1.6,5.2-2.1,6.6c-0.5,1.5-1.4,6.1-1.4,6.1s0.1-0.6,0-2.1c-0.1-1.5,0-5.1,0.1-5.9
						c0.1-0.8,0.8-4.7,0.9-5.7c0.2-1,0-2,0-2l0,0c0.1-0.3,0.2-0.7,0.2-0.9c0,0,0.1,0.1,0.1,0.1c0.2,0.1,0.4,0,0.6-0.2
						c0.4,0.7,0.9,2.5,0.9,2.5L19.6,16L20.7,16.8z"/>
				</g>
				<g>
					<path class="st21" d="M17.8,27.6C17.8,27.6,17.9,27.6,17.8,27.6c0.1-0.2,0.2-0.2,0.3-0.3c0.1-0.1,0.3-0.2,0.5-0.3
						c0.2-0.1,0.4-0.2,0.7-0.3c0.3-0.1,0.5-0.1,0.8-0.2c0.1,0,0.3-0.1,0.4-0.1c0.1-0.1,0.3-0.1,0.4-0.2c0.3-0.2,0.5-0.4,0.7-0.7
						c0.1-0.1,0.1-0.3,0.1-0.5c0-0.1,0-0.2,0-0.3l0-0.3c-0.1-0.7-0.1-1.4-0.1-2.1c0-0.3,0-0.7,0.1-1c0.1-0.3,0.2-0.5,0.3-0.8
						c0.4-1,0.6-1.6,0.6-1.6s0,0.2-0.1,0.5c-0.1,0.3-0.2,0.7-0.4,1.2c0,0.1-0.1,0.3-0.1,0.4c0,0.1-0.1,0.3-0.1,0.4
						c-0.1,0.3-0.1,0.6-0.1,0.9c0,0.3,0,0.7,0,1c0,0.3,0.1,0.7,0.1,1l0,0.3c0,0.1,0,0.2,0,0.3c0,0.2-0.1,0.4-0.1,0.5
						c-0.2,0.3-0.5,0.6-0.7,0.7c-0.1,0.1-0.3,0.2-0.4,0.2c-0.2,0.1-0.3,0.1-0.5,0.1c-0.3,0.1-0.6,0.1-0.8,0.2
						c-0.3,0.1-0.5,0.1-0.7,0.2c-0.2,0.1-0.3,0.2-0.5,0.3C18,27.5,17.8,27.6,17.8,27.6z"/>
				</g>
				<g>
					<path class="st8" d="M14.8,28c0,0,0.1,0.7,1,1.1c0.9,0.4,3.4,0.3,3.4,0.3s-0.9-1.6-1.5-1.9s-1.3-0.4-1.3-0.4L14.8,28z"/>
				</g>
				<path class="st13" d="M16.5,28.2c0,0-0.1,0.1-0.1,0.1c0,0,0,0,0,0l0,0c0,0,0,0.1,0,0.1c-0.1,0.1-0.1,0.2-0.2,0.3
					c0,0-0.1,0.1-0.1,0.1c0,0-0.1,0-0.1,0c0,0-0.1-0.1-0.1-0.1c0,0,0-0.1,0-0.1c0-0.1,0.1-0.2,0.1-0.3l0,0c0,0,0,0,0-0.1l0-0.1
					l0-0.2l0.1-0.2l-0.1,0.2c-0.1,0.2-0.3,0.4-0.4,0.5c-0.1,0.1-0.1,0.2-0.2,0.3c0,0,0,0,0,0.1c0,0,0,0,0,0c0,0,0,0,0-0.1
					c0.1-0.1,0.1-0.2,0.2-0.3c0.1-0.1,0.2-0.2,0.3-0.3l0,0c0,0,0,0,0,0l0,0c-0.1,0.1-0.1,0.2-0.1,0.4c0,0.1,0,0.1,0,0.2c0,0,0,0,0,0
					l0,0l0,0l0,0l0,0l0,0l0,0h0l0,0l0,0l0.1,0c0.1,0,0.2,0,0.2,0c0.1,0,0.1-0.1,0.2-0.1c0.1-0.1,0.2-0.2,0.2-0.3c0,0,0-0.1,0-0.1
					l0,0c0,0,0,0,0,0C16.5,28.3,16.6,28.3,16.5,28.2c0.3-0.1,0.4-0.2,0.6-0.4l0.3,0c0.1,0,0.1,0,0.2,0l0.1,0c0,0,0,0,0,0
					c0,0,0,0.1-0.1,0.1c0,0,0,0.1,0,0.1l0,0.1c0,0,0,0,0,0.1c-0.1,0.2-0.1,0.3-0.2,0.5l0,0l0,0c0,0,0,0,0.1,0c0,0,0.1,0,0.1,0
					c0.1,0,0.1,0,0.2,0c0,0,0.1,0,0.1,0c0,0,0.1,0,0.1,0c0,0,0.1,0,0.1,0l0,0c0,0,0,0,0,0c0.1-0.1,0.1-0.1,0.2-0.2
					c0-0.1,0.1-0.1,0.1-0.2c0,0.1,0,0.2,0,0.2c0,0.1,0,0.1,0,0.2l0,0.1c0,0,0,0.1,0,0.1c0,0,0,0.1,0,0.1c0,0,0,0.1,0,0.1l0,0.1
					c0,0,0,0,0,0.1c0,0,0,0,0.1,0.1c0,0,0,0,0.1,0.1c0,0,0,0,0.1,0.1l0.1,0c0,0,0,0,0,0l-0.1,0c0,0,0,0-0.1-0.1c0,0,0,0-0.1-0.1
					c0,0,0,0-0.1-0.1c0,0,0,0,0-0.1l0-0.1c0,0,0-0.1,0-0.1c0,0,0-0.1,0-0.1c0,0,0-0.1,0-0.1l0-0.1c0-0.1,0-0.1,0-0.2
					c0-0.1,0-0.2,0-0.3l0-0.1l-0.1,0.1c0,0.1-0.1,0.2-0.2,0.3c-0.1,0.1-0.1,0.2-0.2,0.2l0,0l0,0c0,0,0,0-0.1,0c0,0,0,0-0.1,0
					c0,0,0,0-0.1,0c0,0-0.1,0-0.1,0c0,0,0,0-0.1,0c0,0,0,0,0,0c0.1-0.2,0.2-0.3,0.2-0.5c0,0,0,0,0-0.1l0-0.1c0,0,0-0.1,0-0.1
					c0,0,0-0.1,0.1-0.1c0,0,0,0,0-0.1l0-0.1l0,0l-0.8,0c-0.1,0.1-0.1,0.1-0.2,0.2C16.7,28,16.6,28.1,16.5,28.2z"/>
				<g>
					<g>
						<path class="st11" d="M26.5,29.6l-0.8,0.5c0,0-1.4-1.2-1.1-2.3S27,28,26.5,29.6z"/>
					</g>
					<g>
						<path class="st2" d="M35.3,25.5c0,0-2,1.4-2.1,1.8c-0.1,0.5-0.1,0.6-0.5,0.9c-0.4,0.3-1.2,0.5-1.2,0.5s0.1,0.3-0.5,0.5
							c-0.6,0.2-5.2,0.8-5.2,0.8s0.9-0.8,0.6-1.3c-0.3-0.6-2.7-1.3-2.7-1.3s0.8-0.5,1.8-0.6c1-0.2,1.5-0.5,1.8-0.5
							c0.3,0,0.9-0.7,1.3-1.1c0.5-0.4,1.2-1.3,1.2-1.3l3.1-5.1L35.3,25.5z"/>
					</g>
					<path class="st22" d="M34,22c-1-0.1-1.9-0.1-2.9-0.1L29.9,24c0,0-0.7,0.9-1.2,1.3c-0.1,0.1-0.1,0.1-0.2,0.2
						c1.3,0.1,2.5,0,3.7-0.3c0.3-0.1,0.7-0.2,1,0c0.2,0.2,0.3,0.5,0.3,0.7c0,0.3,0.1,0.6,0.1,0.9c0.6-0.6,1.6-1.3,1.6-1.3L34,22z"/>
					<g>
						<path class="st8" d="M28.1,8.7l-0.2,1c0,0-0.1,0.8,0,1s0.6,0.5,0.6,0.7c0,0.2-0.4,1.5-0.4,1.5s-0.1,0.5,0.6,0.5
							c0,0-0.2,0.8,0.2,0.7c0,0-0.2,0.2,0,0.4c0.2,0.2,0.3,0.8,0.3,1.1c-0.1,0.3,0.7,0.5,1.4,0.3c0.8-0.2,1.4-0.5,1.4-0.5
							s1.2,1.4,2.2,1.7c1.1,0.2,1.1,0.2,1.1,0.2l2.6-3.5c0,0-1.1-1.6-1.3-2.8C36.6,9.9,29.3,8.2,28.1,8.7z"/>
					</g>
					<path class="st13" d="M32.1,15.5c0,0,0.5,0.6,1.2,1.1c0.6-1.3,0.9-3.3,0.9-3.3C33.4,14.5,32.1,15.5,32.1,15.5z"/>
					<g>
						<path class="st11" d="M48,34.1h-6.4h-6.3c0,0,0.8-4.7-1.2-8.5c-1.2-2.6-1.3-5.8-1-6.9c0.3-1.2,4.7-6.2,4.7-6.2
							c0,0.1,0.8,0.5,0.8,0.5s0.8-0.1,2.1,0.7c1.3,0.8,3.7,3.7,4.1,5.4c0.4,1.6,0.7,5.2,0.9,6.7c0.2,1.5,0.5,2.2,0.6,2.9
							c0,0.7,0,0.9,0.3,1.2C46.8,30.1,48.1,32.6,48,34.1z"/>
					</g>
					<g>
						<path class="st2" d="M33.4,23.5c0,0-0.4-3.8,0.4-5.3c0.8-1.4,3.4-4.8,4.3-5.5l-1-1c0,0-0.8,0.8-1.4,1.5
							c-0.6,0.7-1.3,1.6-1.8,2.8c-0.6,1.3-1.1,2-1.2,3.5C32.6,20.9,33.4,23.5,33.4,23.5z"/>
					</g>
					<g>
						<g>
							<path class="st8" d="M21.8,24c0,0-1.8-0.5-2.4-0.6c-0.6-0.1-0.8-0.1-1.1,0.1c-0.4,0.2-0.8,0.3-2,0.3c-1.2,0-1.7-0.1-1.7-0.1
								S14,23.9,13.8,24c0,0-0.3,0.4-0.3,0.4c0,0,0.2,0.6-0.3,0.5L13,24.6c0,0-0.2-0.2-0.1-0.4c0.1-0.2,0.2-0.7,0.3-0.8
								c0.1-0.1,0.8-0.4,0.8-0.4l-0.1-0.1c0,0-0.6,0.1-0.9,0.1l-0.1,0.1c0,0,0.2,0.1,0.2,0.3c0,0.1-0.2,0.5-0.2,0.5
								s-0.4-0.1-0.5-0.3c-0.1-0.2-0.5-2.4-0.5-2.4s0.4-0.3,0.8-0.3c0.4-0.1,0.9-0.1,1.2-0.2s1-0.2,1.4-0.1c0.4,0.1,1.9,0.5,2.1,0.5
								s3.5,0.1,3.5,0.1L21.8,24z"/>
						</g>
						<g>
							<g>
								<path class="st13" d="M11.9,22.3C11.9,22.3,11.9,22.3,11.9,22.3c0.1-0.1,0.2-0.1,0.3-0.1c0.1,0,0.2-0.1,0.3-0.1
									c0.1,0,0.2,0,0.4-0.1c0.2,0,0.5,0,0.7-0.1c0.2,0,0.3,0,0.3,0s0,0-0.1,0c-0.1,0-0.1,0-0.2,0.1c-0.1,0-0.2,0-0.3,0.1
									c-0.1,0-0.2,0-0.4,0c-0.2,0-0.5,0.1-0.7,0.1C12,22.2,11.9,22.3,11.9,22.3z"/>
							</g>
							<g>
								<path class="st13" d="M13.9,21C13.9,21,13.9,21,13.9,21c-0.1,0-0.2,0.1-0.3,0.1c-0.1,0-0.2,0.1-0.3,0.1c-0.1,0-0.3,0-0.4,0
									c-0.1,0-0.1,0-0.2,0c-0.1,0-0.1,0-0.2,0c-0.1,0-0.2,0-0.3,0.1c-0.2,0.1-0.3,0.1-0.3,0.1s0,0,0.1,0c0.1,0,0.1-0.1,0.2-0.1
									c0.1,0,0.2-0.1,0.3-0.1c0.1,0,0.1,0,0.2,0c0.1,0,0.1,0,0.2,0c0.1,0,0.1,0,0.2,0c0.1,0,0.1,0,0.2,0c0.1,0,0.2,0,0.3,0
									C13.7,21.1,13.8,21.1,13.9,21C13.9,21,13.9,21,13.9,21z"/>
							</g>
						</g>
					</g>
					<g>
						<path class="st2" d="M20.6,20.8c0,0,1.2,4.3,0.8,4.7c0,0,0.2,0.1,0.7,0s2.5-0.3,3.1-0.3c0.6,0,5.3-0.4,7.1-0.7
							c1.8-0.3,5.7-1.9,6.3-2.2c0.5-0.2,3.1-0.6,3.6-2c0.5-1.3,0.3-4.1-0.5-5.4s-2.7-2.2-3.6-1.7c-1,0.5-2.5,1.9-2.6,4.2
							c0,0,0,0.4-0.3,0.6s-2.3,1-2.9,1.5c-0.6,0.5-1,0.8-1.3,0.7c-0.4-0.1-0.5-0.2-1.4-0.2c-1,0.1-2.9,0.4-4.2,0.6
							C23.9,20.8,20.6,20.8,20.6,20.8z"/>
					</g>
					<g>
						<g>
							<path class="st3" d="M20.9,29.6l-9.6-1.1l-0.8,1.8C9.7,30.4,20.5,30,20.9,29.6z"/>
						</g>
						<g>
							<path class="st2" d="M13.2,30.3l0.4-0.3l7.3-0.3c0,0,0.1,0.6-0.5,0.8s-6.9,0.8-6.9,0.8L13.2,30.3z"/>
						</g>
						<g>
							<path class="st11" d="M2.1,28.7l11.4,1.2l-0.1,1.2L2.6,29.9c-0.1,0-0.2-0.1-0.3-0.2L2.1,28.7z"/>
						</g>
						<g>
							<path class="st11" d="M0,18.7c0,0,0.2-0.4,0.9-0.4c0.6,0,10.8,0.8,10.8,0.8s0.4,0,0.5,0.6c0.2,0.8,1.6,9.8,1.6,10.1
								c0,0.3-0.3,0.3-0.6,0.4c-0.3,0.1-10.9-1.2-10.9-1.2c-0.2-0.1-0.3,0-0.5-0.7C1.5,27.1,0,18.7,0,18.7z"/>
						</g>
						<g>
							<path class="st2" d="M0,18.8c0,0,0-0.4,0.6-0.4s10.7,0.8,10.7,0.8s0.4,0,0.5,0.6c0.2,0.8,1.9,9.7,1.9,10
								c0,0.3-0.3,0.3-0.6,0.3c-0.3,0.1-10.8-1.2-10.8-1.2c-0.2-0.1-0.3,0-0.5-0.7C1.4,27.2,0,18.8,0,18.8z"/>
						</g>
					</g>
					<g>
						<path class="st2" d="M32.8,12.2h0.6c0,0-0.1-0.8,0.5-1.3c0.5-0.5,1-0.4,1.3-0.1c0.1,0.2,0.5,0.7,0.7,1
							c0.1,0.2,0.4,0.2,0.5,0.1l0.6-0.3c0,0-0.1-1,0-1.6s0.1-3.7-2.3-4.9c-2.4-1.3-5.4,0.5-6.3,0.9c-0.9,0.4-1.3,0.9-1.3,2.1
							c0,0.8,0.9,1.6,1,1.6S29,10,30.3,9.8c1.3-0.2,1.8-0.3,2.1,0.5C32.8,11.1,32.8,12.2,32.8,12.2z"/>
					</g>
					<g>
						<g>
							<path class="st11" d="M20.9,29.6l-9.6-1.1l-0.8,1.8C9.7,30.4,20.5,30,20.9,29.6z"/>
						</g>
						<g>
							<path class="st2" d="M13.2,30.3l0.4-0.3l7.3-0.3c0,0,0.1,0.6-0.5,0.8s-6.9,0.8-6.9,0.8L13.2,30.3z"/>
						</g>
						<g>
							<path class="st11" d="M2.1,28.7l11.4,1.2l-0.1,1.2L2.6,29.9c-0.1,0-0.2-0.1-0.3-0.2L2.1,28.7z"/>
						</g>
						<g>
							<path class="st11" d="M0,18.7c0,0,0.2-0.4,0.9-0.4c0.6,0,10.8,0.8,10.8,0.8s0.4,0,0.5,0.6c0.2,0.8,1.6,9.8,1.6,10.1
								c0,0.3-0.3,0.3-0.6,0.4c-0.3,0.1-10.9-1.2-10.9-1.2c-0.2-0.1-0.3,0-0.5-0.7C1.5,27.1,0,18.7,0,18.7z"/>
						</g>
						<g>
							<path class="st2" d="M0,18.8c0,0,0-0.4,0.6-0.4s10.7,0.8,10.7,0.8s0.4,0,0.5,0.6c0.2,0.8,1.9,9.7,1.9,10
								c0,0.3-0.3,0.3-0.6,0.3c-0.3,0.1-10.8-1.2-10.8-1.2c-0.2-0.1-0.3,0-0.5-0.7C1.4,27.2,0,18.8,0,18.8z"/>
						</g>
					</g>
					<g>
						
							<ellipse transform="matrix(0.9678 0.2516 -0.2516 0.9678 3.9867 -8.2912)" class="st8" cx="34.4" cy="11.4" rx="0.7" ry="1.2"/>
					</g>
					<g>
						<path class="st8" d="M26.3,29.4L26.3,29.4c-0.5,0.2-1,0.5-1.1,0.5C25,30,25.1,30,24.7,30.2c-0.3,0.2-1.3,0-1.3,0
							c-0.1,0.1-0.7,0-0.8-0.1c-0.1,0-0.2-0.1-0.3-0.2c-0.1-0.1-0.6-0.7-0.6-0.9c0-0.2,0.1-0.5,0.1-0.7c0-0.1,0-0.3,0-0.5
							c0-0.1,0.3-0.3,0.3-0.4c0-0.1-0.1-0.3,0-0.5c0.1-0.2,0.3-0.3,0.4-0.3c0.1,0,0.2-0.1,0.2-0.1c0-0.1,0-0.1,0.1-0.3
							c0.1-0.2,0.6-0.2,0.9,0c0.3,0.2,1,0.5,1,0.5s0.1,0,0.2,0c0.1,0,0.2,0,0.4,0.1c0.3,0.1,0.3,0.3,0.4,0.7c0,0.4,0.2,0.5,0.2,0.5
							c0,0,0,0,0,0c0,0,0,0,0,0c0,0,0.1,0.1,0.2,0.1c0,0,0,0,0,0c0.2,0.1,0.3,0.2,0.3,0.3C26.5,29,26.4,29.2,26.3,29.4z"/>
					</g>
					<g>
						<path class="st13" d="M24.5,27c0,0-0.2,0-0.4,0s-0.2,0.3-0.2,0.4c0,0.2,0.2,0.4,0.4,0.5c0.1,0.1,0.2,0.1,0.5,0.2
							c0.3,0.1,0.3,0.1,0.3,0.1c-0.2,0-0.4-0.1-0.7-0.2c0,0-0.2-0.1-0.4-0.3c-0.2-0.2-0.2-0.3-0.2-0.5s0-0.2-0.1-0.4
							c-0.1-0.2,0-0.2,0.1-0.1s0.1,0.1,0.1,0.2c0,0,0-0.1,0-0.3c0,0,0.2,0.1,0.3,0.3C24.1,27,24.4,26.9,24.5,27z"/>
					</g>
					<g>
						<g>
							<path class="st13" d="M24.4,28c0.2,0.1,0.3,0.2,0.4,0.4c0.1,0.2,0.1,0.4-0.1,0.6l0-0.1c0.1,0.2,0,0.4-0.1,0.5
								c-0.1,0.1-0.3,0.2-0.4,0.2l0,0c-0.1,0.3-0.3,0.4-0.6,0.4l0,0c0,0.1-0.1,0.2-0.2,0.3c0.1-0.1,0.2-0.2,0.2-0.3l0,0l0,0
								c0.2,0,0.5-0.2,0.5-0.4l0,0l0,0c0.1,0,0.3-0.1,0.4-0.2c0.1-0.1,0.1-0.3,0.1-0.4l0,0l0,0c0.1-0.1,0.1-0.3,0.1-0.5
								C24.7,28.3,24.5,28.1,24.4,28z"/>
						</g>
						<g>
							<path class="st13" d="M24.7,28.9c0,0-0.2,0.2-0.4,0c-0.3-0.1-0.6-0.3-0.8-0.6c-0.1-0.1-0.2-0.3-0.3-0.4
								c-0.1-0.1-0.2-0.3-0.3-0.4c-0.1-0.3,0-0.5,0-0.5s0,0.2,0.1,0.4c0,0.1,0.2,0.2,0.3,0.4c0.1,0.1,0.2,0.3,0.3,0.4
								c0.2,0.3,0.5,0.5,0.8,0.6C24.5,29.1,24.7,29,24.7,28.9z"/>
						</g>
						<g>
							<path class="st13" d="M24.2,29.5c0,0-0.2,0-0.4,0c-0.2-0.1-0.5-0.3-0.7-0.5c-0.1-0.1-0.3-0.2-0.3-0.3
								c-0.1-0.1-0.2-0.3-0.2-0.4c-0.1-0.2-0.2-0.4-0.2-0.4s0.1,0.1,0.2,0.3c0.1,0.1,0.1,0.2,0.2,0.4c0.1,0.1,0.2,0.2,0.3,0.3
								c0.3,0.2,0.5,0.4,0.7,0.5C24.1,29.6,24.2,29.5,24.2,29.5z"/>
						</g>
						<g>
							<path class="st13" d="M23.7,29.9c0,0-0.1,0-0.3,0c-0.2,0-0.4,0-0.6-0.2c-0.2-0.2-0.3-0.4-0.4-0.6c-0.1-0.2-0.1-0.3-0.1-0.3
								s0.1,0.1,0.2,0.2c0.1,0.1,0.2,0.4,0.4,0.5c0.2,0.2,0.4,0.2,0.6,0.2C23.6,29.9,23.7,29.9,23.7,29.9z"/>
						</g>
					</g>
				</g>
				<g>
					<path class="st8" d="M20.9,28.9c-0.7,0.7-1.7,0.8-2.2,0.6c-0.5-0.3-0.5-1.2-0.5-1.2s-0.2,0.3-0.4,0.5c-0.2,0.2-0.5,0-0.5,0
						s0.2-0.4,0.3-0.6c0-0.2,0.1-0.3,0.2-0.4c0,0,0-0.1,0-0.1c0,0-0.1,0-0.2,0c-0.2,0-0.4,0-0.4,0s-0.6,0.6-0.7,0.7
						c-0.1,0.1-0.4,0.7-0.7,0.5c-0.3-0.2,0-0.6,0-0.7c0,0,0.1-0.3,0.1-0.3s-0.5,0.7-0.7,0.9c-0.1,0.2-0.4,0.5-0.7,0.3
						c-0.2-0.2,0-0.6,0-0.6s-0.3,0.5-0.5,0.2c-0.2-0.3,0.1-0.8,0.2-0.9c0.1-0.1,0.6-0.8,0.7-0.9c0.1-0.1,0.1-0.2,0.3-0.2
						c0.2,0,0.7,0.1,0.7,0.1s0,0,0.2,0c0.2,0,0.6,0.1,0.6,0.1s0.1-0.2,0.3-0.2c0.2,0,0.4,0.3,0.5,0.5c0,0,0,0.1,0.1,0.1
						c0.1,0.1,0.4,0.3,0.4,0.3c0.1-0.2,0.2-0.3,0.4-0.3c0.2,0,0.3,0.3,0.3,0.3c0.3,0,0.7,0.1,1.2,0.4C20.4,28.2,20.7,28.5,20.9,28.9
						z"/>
				</g>
			</g>
		</g>
	</g>
	<g>
		<rect x="1.5" y="32.6" class="st3" width="46.5" height="10.7"/>
	</g>
	<g>
		<g>
			<polygon class="st5" points="33.5,28.9 33.5,32.6 48,32.6 48,29 			"/>
		</g>
	</g>
	<g>
		<rect x="30.6" y="32.6" class="st3" width="17.4" height="10.7"/>
	</g>
</g>
</svg>
