<?xml version="1.0" encoding="utf-8"?>
<!-- Generator: Adobe Illustrator 18.0.0, SVG Export Plug-In . SVG Version: 6.00 Build 0)  -->
<!DOCTYPE svg PUBLIC "-//W3C//DTD SVG 1.1//EN" "http://www.w3.org/Graphics/SVG/1.1/DTD/svg11.dtd">
<svg version="1.1" id="Layer_1" xmlns="http://www.w3.org/2000/svg" xmlns:xlink="http://www.w3.org/1999/xlink" x="0px" y="0px"
	 viewBox="0 0 48 48" enable-background="new 0 0 48 48" xml:space="preserve">
<g>
	<g>
		<path fill="#CED6E0" d="M48,27.5h-9v16c0,2.5,2,4.5,4.5,4.5l0,0c2.5,0,4.5-2,4.5-4.5V27.5z"/>
		<path fill="#F3F3F3" d="M39,43.5v-16v-23C39,2,37,0,34.5,0h-30C2,0,0,2,0,4.5v39C0,46,2,48,4.5,48h39C41,48,39,46,39,43.5z"/>
		<g>
			<rect x="4" y="27.1" fill="#CED6E0" width="31" height="2.7"/>
			<rect x="4" y="34.2" fill="#CED6E0" width="31" height="2.7"/>
			<rect x="4" y="41.3" fill="#CED6E0" width="31" height="2.7"/>
		</g>
		<g>
			<path fill="#F3705A" d="M20.1,4v10c0,0.2-0.1,0.3-0.2,0.4l-7.1,7.1C14.6,23,17,24,19.5,24c5.5,0,10-4.5,10-10
				C29.5,8.7,25.3,4.3,20.1,4z"/>
			<path fill="#55C0EB" d="M18.9,13.3V4c-5,0.3-9,4.3-9.3,9.3H18.9z"/>
			<path fill="#FFD15C" d="M9.5,14.6c0.1,2.3,1,4.4,2.5,6l6-6H9.5z"/>
		</g>
	</g>
</g>
</svg>
