<?xml version="1.0" encoding="utf-8"?>
<!-- Generator: Adobe Illustrator 18.0.0, SVG Export Plug-In . SVG Version: 6.00 Build 0)  -->
<!DOCTYPE svg PUBLIC "-//W3C//DTD SVG 1.1//EN" "http://www.w3.org/Graphics/SVG/1.1/DTD/svg11.dtd">
<svg version="1.1" id="Layer_1" xmlns="http://www.w3.org/2000/svg" xmlns:xlink="http://www.w3.org/1999/xlink" x="0px" y="0px"
	 viewBox="0 0 48 48" enable-background="new 0 0 48 48" xml:space="preserve">
<g>
	<path fill="#F2F2F2" d="M40,24.3V46c0,1.1-0.9,2-2,2H10c-1.1,0-2-0.9-2-2V24.3c0-2.3,1.1-4.5,3-5.8c1.9-1.3,3-4.5,3-6.8v-1.6H34
		v1.6c0,2.3,1.1,5.5,3,6.8C38.8,19.8,40,22,40,24.3z"/>
	<rect x="14.7" y="8.6" fill="#CDD6E0" width="18.5" height="1.5"/>
	<path fill="#40596B" d="M34.1,0H13.9c-1.1,0-2,0.9-2,2v4.6c0,1.1,0.9,2,2,2h20.2c1.1,0,2-0.9,2-2V2C36.1,0.9,35.2,0,34.1,0z"/>
	<g>
		<rect x="14.7" y="1.8" fill="#334A5E" width="1.6" height="5"/>
		<rect x="19" y="1.8" fill="#334A5E" width="1.6" height="5"/>
		<rect x="23.2" y="1.8" fill="#334A5E" width="1.6" height="5"/>
		<rect x="27.4" y="1.8" fill="#334A5E" width="1.6" height="5"/>
		<rect x="31.6" y="1.8" fill="#334A5E" width="1.6" height="5"/>
	</g>
	<rect x="8" y="25.4" fill="#84DBFF" width="31.9" height="18.5"/>
	<circle fill="#FFFFFF" cx="24" cy="34.7" r="7.7"/>
	<polygon fill="#FF7058" points="28.9,33.6 25.1,33.6 25.1,29.8 22.9,29.8 22.9,33.6 19.1,33.6 19.1,35.8 22.9,35.8 22.9,39.6 
		25.1,39.6 25.1,35.8 28.9,35.8 	"/>
</g>
</svg>
