<?xml version="1.0" encoding="utf-8"?>
<!-- Generator: Adobe Illustrator 18.0.0, SVG Export Plug-In . SVG Version: 6.00 Build 0)  -->
<!DOCTYPE svg PUBLIC "-//W3C//DTD SVG 1.1//EN" "http://www.w3.org/Graphics/SVG/1.1/DTD/svg11.dtd">
<svg version="1.1" id="Layer_1" xmlns="http://www.w3.org/2000/svg" xmlns:xlink="http://www.w3.org/1999/xlink" x="0px" y="0px"
	 viewBox="0 0 48 48" enable-background="new 0 0 48 48" xml:space="preserve">
<g>
	<g>
		<g>
			<g>
				<g>
					<polygon fill="#415A6B" points="48,18.3 48,15.2 0,15.2 0,18.3 					"/>
				</g>
			</g>
		</g>
		<g>
			<g>
				<g>
					<g>
						<path fill="#415A6B" d="M26.3,42.9l0-40.6C26.3,1,25.3,0,24,0h0c-1.3,0-2.3,1-2.3,2.3l0,40.6H26.3z"/>
					</g>
				</g>
			</g>
			<g>
				<path fill="#415A6B" d="M12.8,48c3.3-4,7.7-5.8,11.2-5.8S31.9,44,35.2,48"/>
			</g>
		</g>
		<g>
			<g>
				<g>
					<path fill="#F3F3F3" d="M45.5,32.5l0-22l-13.5,0l0,22c0,3.7,3,6.7,6.7,6.7h0C42.5,39.2,45.5,36.2,45.5,32.5z"/>
					<g>
						<path fill="#F3705A" d="M34.7,21l0,11.4c0,2.2,1.8,4,4,4c2.2,0,4-1.8,4-4l0-11.4L34.7,21z"/>
					</g>
				</g>
				<g>
					<rect x="32" y="10.5" fill="#E8EAE9" width="13.5" height="2.6"/>
				</g>
				<path fill="#F3F3F3" d="M31.6,10.6l14.3,0c1.2,0,2.1-0.9,2.1-2.1v0c0-1.2-0.9-2.1-2.1-2.1l-14.3,0c-1.2,0-2.1,0.9-2.1,2.1v0
					C29.5,9.7,30.4,10.6,31.6,10.6z"/>
			</g>
			<g>
				<g>
					<g>
						<g>
							<path fill="#F3F3F3" d="M16,32.5l0-22l-13.5,0l0,22c0,3.7,3,6.7,6.7,6.7h0C13,39.2,16,36.2,16,32.5z"/>
							<g>
								<path fill="#66C6B9" d="M5.2,21l0,11.4c0,2.2,1.8,4,4,4c2.2,0,4-1.8,4-4l0-11.4L5.2,21z"/>
							</g>
						</g>
						<g>
							<rect x="2.5" y="10.5" fill="#E8EAE9" width="13.5" height="2.6"/>
						</g>
					</g>
				</g>
				<path fill="#F3F3F3" d="M2.1,10.6l14.3,0c1.2,0,2.1-0.9,2.1-2.1v0c0-1.2-0.9-2.1-2.1-2.1l-14.3,0C1,6.4,0,7.3,0,8.5v0
					C0,9.7,1,10.6,2.1,10.6z"/>
			</g>
		</g>
	</g>
</g>
</svg>
