<?xml version="1.0" encoding="utf-8"?>
<!-- Generator: Adobe Illustrator 18.0.0, SVG Export Plug-In . SVG Version: 6.00 Build 0)  -->
<!DOCTYPE svg PUBLIC "-//W3C//DTD SVG 1.1//EN" "http://www.w3.org/Graphics/SVG/1.1/DTD/svg11.dtd">
<svg version="1.1" id="Layer_1" xmlns="http://www.w3.org/2000/svg" xmlns:xlink="http://www.w3.org/1999/xlink" x="0px" y="0px"
	 viewBox="0 0 512 512" enable-background="new 0 0 512 512" xml:space="preserve">
<g>
	<path fill="#F2F2F2" d="M77.6,2h250.9l127.1,127.1v359.7c0,11.7-9.5,21.2-21.2,21.2H77.6c-11.7,0-21.2-9.5-21.2-21.2V23.2
		C56.4,11.5,65.9,2,77.6,2z"/>
	<path fill="#CDD6E0" d="M328.5,107.9V2l127.1,127.1H349.7C338,129.1,328.5,119.6,328.5,107.9z"/>
	<rect x="88.2" y="33.8" fill="#84DBFF" width="142.9" height="166"/>
	<rect x="88.2" y="229.4" fill="#4CDBC4" width="335.7" height="23"/>
	<rect x="88.2" y="292" fill="#4CDBC4" width="335.7" height="23"/>
	<rect x="88.2" y="354.7" fill="#4CDBC4" width="172.1" height="23"/>
	<rect x="88.2" y="417.4" fill="#84DBFF" width="172.1" height="23"/>
	<path fill="#FFD15C" d="M426.6,413.2c0,5.3-6.1,9.9-7.2,14.8c-1.2,5.1,2.3,11.9,0.1,16.5c-2.3,4.7-9.7,6.2-12.9,10.2
		c-3.2,4.1-3,11.6-7.1,14.9c-4,3.2-11.4,1.3-16.1,3.6c-4.6,2.2-7.7,9.2-12.8,10.3c-5,1.1-10.7-3.8-16.1-3.8
		c-5.3,0-11.1,4.9-16.1,3.8c-5.1-1.2-8.2-8.1-12.8-10.3c-4.7-2.3-12-0.4-16.1-3.6c-4.1-3.2-3.8-10.8-7.1-14.9
		c-3.2-4-10.7-5.5-12.9-10.2c-2.2-4.6,1.2-11.4,0.1-16.5c-1.1-5-7.2-9.5-7.2-14.8c0-5.3,6.1-9.9,7.2-14.8c1.2-5.1-2.3-11.9-0.1-16.5
		c2.3-4.7,9.7-6.2,12.9-10.2c3.2-4.1,3-11.6,7.1-14.9c4-3.2,11.4-1.3,16.1-3.6c4.6-2.2,7.7-9.2,12.8-10.3c5-1.1,10.7,3.8,16.1,3.8
		c5.3,0,11.1-4.9,16.1-3.8c5.1,1.2,8.2,8.1,12.8,10.3c4.7,2.3,12,0.4,16.1,3.6c4.1,3.2,3.8,10.8,7.1,14.9c3.2,4,10.7,5.5,12.9,10.2
		c2.2,4.6-1.2,11.4-0.1,16.5C420.5,403.4,426.6,407.9,426.6,413.2z"/>
	<path fill="#F8B64C" d="M354.5,466.7c-29.5,0-53.5-24-53.5-53.5s24-53.5,53.5-53.5s53.5,24,53.5,53.5S384,466.7,354.5,466.7z
		 M354.5,370.3c-23.7,0-42.9,19.3-42.9,42.9s19.3,42.9,42.9,42.9s42.9-19.3,42.9-42.9S378.1,370.3,354.5,370.3z"/>
</g>
</svg>
