<?xml version="1.0" encoding="utf-8"?>
<!-- Generator: Adobe Illustrator 16.0.0, SVG Export Plug-In . SVG Version: 6.00 Build 0)  -->
<!DOCTYPE svg PUBLIC "-//W3C//DTD SVG 1.1//EN" "http://www.w3.org/Graphics/SVG/1.1/DTD/svg11.dtd">
<svg version="1.1" id="Layer_1" xmlns="http://www.w3.org/2000/svg" xmlns:xlink="http://www.w3.org/1999/xlink" x="0px" y="0px"
	 width="48px" height="48px" viewBox="0 0 48 48" enable-background="new 0 0 48 48" xml:space="preserve">
<g>
	<path fill="#ACB3BA" d="M24.021,36.753c-0.01,0.011-0.021,0.011-0.021,0.011v-0.022C24.011,36.742,24.021,36.753,24.021,36.753"/>
	<path fill="#ACB3BA" d="M24.021,36.742v0.021c0,0-0.01,0-0.021-0.01C23.999,36.753,24.011,36.742,24.021,36.742"/>
	<path fill="#F8B64C" d="M17.499,33.173c0.08,0.11,0.07,0.11-0.01,0H17.499z"/>
	<path fill="#F8B64C" d="M17.489,20.598c0.146,1.675-0.666,3.115-1.816,3.216c-1.148,0.1-2.201-1.176-2.346-2.852
		c-0.148-1.675,0.666-3.115,1.814-3.215C16.292,17.646,17.341,18.923,17.489,20.598"/>
	<path fill="#F8B64C" d="M34.694,20.962c-0.146,1.675-1.197,2.952-2.348,2.851c-1.148-0.1-1.961-1.54-1.814-3.215
		c0.146-1.676,1.197-2.952,2.346-2.852C34.028,17.847,34.841,19.288,34.694,20.962"/>
	<path fill="#FFD15C" d="M24.011,6.612c-5.338,0-9.664,4.327-9.664,9.664v2.902c0,0.74,0.045,1.48,0.137,2.213v0.003
		c0.459,3.754,2.076,7.271,4.627,10.063l0.916,1.004c0.842,0.923,2.033,1.449,3.281,1.449h1.4c1.248,0,2.439-0.525,3.281-1.447
		l0.92-1.006c2.553-2.792,4.17-6.313,4.631-10.066c0.092-0.737,0.135-1.473,0.135-2.213v-2.902
		C33.675,10.939,29.347,6.612,24.011,6.612"/>
	<path fill="#F8B64C" d="M32.425,33.857c-0.029,0.1-0.07,0.2-0.119,0.29c-0.031,0.07-0.07,0.13-0.111,0.19
		c-0.109,0.18-2.789,4.24-8.199,4.24c-5.371,0-8.08-4.06-8.189-4.23c-0.102-0.16-0.182-0.32-0.221-0.49l1.9-0.68v-3.78h0.01
		c0.49,0.72,1.02,1.41,1.619,2.06l0.91,1c0.84,0.93,2.031,1.45,3.281,1.45h1.398c1.25,0,2.441-0.521,3.281-1.44l0.92-1.01
		c0.6-0.65,1.129-1.34,1.619-2.06v3.78L32.425,33.857z"/>
	<g opacity="0.1">
		<g>
			<defs>
				<rect id="SVGID_39_" x="20.226" y="29.397" width="12.199" height="8.87"/>
			</defs>
			<clipPath id="SVGID_2_">
				<use xlink:href="#SVGID_39_"  overflow="visible"/>
			</clipPath>
			<path clip-path="url(#SVGID_2_)" fill="#40596B" d="M30.524,29.4c-0.488,0.719-1.023,1.409-1.615,2.057l-0.92,1.006
				c-0.842,0.922-2.033,1.447-3.281,1.447h-1.4c-1.158,0-2.254-0.469-3.08-1.271l0,0l6.227,5.633
				c3.762-0.941,5.648-3.784,5.74-3.934c0.041-0.06,0.08-0.12,0.111-0.19c0.049-0.09,0.09-0.19,0.119-0.29l-1.9-0.68V29.4z"/>
		</g>
	</g>
	<path fill="#F2F2F2" d="M41.886,37.264l-11.357-4.092v0.001v0.001c0,0-0.074,0.09-0.074,0.08c-1.598,2.169-4.018,3.239-6.445,3.24
		h-0.004c0,0-0.002,0-0.004,0c-2.418-0.001-4.838-1.071-6.445-3.24l-0.063-0.077l-0.004-0.003l-11.375,4.09
		c-3.549,1.27-5.93,4.65-5.93,8.43V48h47.631v-2.306C47.815,41.914,45.435,38.534,41.886,37.264"/>
	<rect x="22.458" y="37.299" fill="#CDD6E0" width="3.131" height="10.701"/>
	<path fill="#ACB3BA" d="M26.958,42.549l-2.947-4.72l-2.922,4.72c-7.531-5.93-3.6-10.5-3.6-10.5c1.1,3.9,6.529,4.44,6.529,4.44
		s5.43-0.54,6.539-4.44C30.558,32.049,34.489,36.619,26.958,42.549"/>
	<path fill="#ACB3BA" d="M24.646,41.998c0,0.344-0.277,0.623-0.623,0.623c-0.342,0-0.621-0.279-0.621-0.623
		c0-0.344,0.279-0.623,0.621-0.623C24.368,41.375,24.646,41.654,24.646,41.998"/>
	<path fill="#ACB3BA" d="M24.646,45.306c0,0.344-0.277,0.623-0.623,0.623c-0.342,0-0.621-0.279-0.621-0.623
		c0-0.344,0.279-0.623,0.621-0.623C24.368,44.683,24.646,44.962,24.646,45.306"/>
	<polygon fill="#CDD6E0" points="10.042,48 7.782,48 10.042,41.857 	"/>
	<polygon fill="#CDD6E0" points="37.958,48 40.218,48 37.958,41.857 	"/>
	<path fill="#40596B" d="M33.288,22.695l-2.869,4.064c-0.789,1.117-2.412,1.208-3.322,0.188l-0.004-0.005
		c-0.402-0.452-0.98-0.711-1.586-0.711h-2.992c-0.607,0-1.184,0.259-1.588,0.713c-0.908,1.021-2.531,0.931-3.322-0.185l-2.871-4.064
		C14.3,34.07,24.013,34.42,24.013,34.42S33.726,34.07,33.288,22.695 M21.337,30.481c0-1.023,0.828-1.851,1.85-1.851h1.646
		c1.021,0,1.852,0.828,1.852,1.851H21.337z"/>
	<path fill="#40596B" d="M34.714,11.77c-0.201-4.445-4.445-7.274-4.445-7.274c-1.566-1.01-1.717-4.243-1.717-4.243
		c-0.506,0.354-1.061,2.729-1.061,2.729c-0.658-1.263-2.072-1.516-2.072-1.516c0.557,1.162,0,1.667,0,1.667
		c-1.465-3.99-7.172-3.031-7.172-3.031c2.98,0.96,2.273,2.93,2.273,2.93c-1.566-1.515-3.082-0.859-3.082-0.859
		c3.283,1.819,0.455,2.88,0.455,2.88c-1.668,0.859-1.516-2.324-1.516-2.324c-0.607,0.707-0.656,3.991-0.656,3.991
		c-0.707-0.758-0.76-2.526-0.76-2.526c-0.756,1.263-0.201,4.294-0.201,4.294l-1.162-0.859c1.264,1.97-0.051,5.152-0.051,5.152
		c-1.219,2.404,0.969,8.904,0.969,8.904c-0.018-5.891,0.475-5.953,1.635-8.417c2.361-5.907,7.791-3.751,7.791-3.751
		s6.043-2.398,8.15,4.793c1.23,3.028,1.352,7.375,1.352,7.375C35.97,16.431,34.714,11.77,34.714,11.77"/>
</g>
</svg>
