<?xml version="1.0" encoding="utf-8"?>
<!-- Generator: Adobe Illustrator 18.0.0, SVG Export Plug-In . SVG Version: 6.00 Build 0)  -->
<!DOCTYPE svg PUBLIC "-//W3C//DTD SVG 1.1//EN" "http://www.w3.org/Graphics/SVG/1.1/DTD/svg11.dtd">
<svg version="1.1" id="Layer_1" xmlns="http://www.w3.org/2000/svg" xmlns:xlink="http://www.w3.org/1999/xlink" x="0px" y="0px"
	 viewBox="0 0 48 48" enable-background="new 0 0 48 48" xml:space="preserve">
<g>
	<g>
		<path fill="#FFD15C" d="M17.7,0.1h13.4c0,0,3.7-0.1,7.6,8.9l4.9-2.9l-5.9,11.6l-13-0.7l4.8-2.8l-5.2-8.8l-6.6-4.6V0.1z"/>
		<path fill="#F8B64C" d="M10.5,8.1l9.2,5.4l4.6-8.1c0,0-2.2-5.3-6.6-5.3C17.7,0.1,14.5-0.4,10.5,8.1z"/>
	</g>
	<g>
		<path fill="#FFD15C" d="M47.2,28.7l-6.8,11.5c0,0-1.8,3.2-11.5,2l0,5.7l-7-10.9l7.2-10.8l-0.1,5.6l10.2,0l7.3-3.4L47.2,28.7z"/>
		<path fill="#F8B64C" d="M44,18.4l-9.3,5.2l4.7,8.1c0,0,5.7,0.8,7.9-3C47.2,28.7,49.3,26.2,44,18.4z"/>
	</g>
	<g>
		<path fill="#FFD15C" d="M8.5,40L1.6,28.5c0,0-2-3.1,3.7-11l-5-2.7l13-0.9l6.1,11.5l-4.9-2.7l-4.9,9l-0.5,8L8.5,40z"/>
		<path fill="#F8B64C" d="M19.1,42.1L19,31.4l-9.3,0.2c0,0-3.5,4.6-1.2,8.4C8.5,40,9.7,43,19.1,42.1z"/>
	</g>
</g>
</svg>
