<?xml version="1.0" encoding="utf-8"?>
<!-- Generator: Adobe Illustrator 18.0.0, SVG Export Plug-In . SVG Version: 6.00 Build 0)  -->
<!DOCTYPE svg PUBLIC "-//W3C//DTD SVG 1.1//EN" "http://www.w3.org/Graphics/SVG/1.1/DTD/svg11.dtd">
<svg version="1.1" id="Layer_1" xmlns="http://www.w3.org/2000/svg" xmlns:xlink="http://www.w3.org/1999/xlink" x="0px" y="0px"
	 viewBox="0 0 512 512" enable-background="new 0 0 512 512" xml:space="preserve">
<g>
	<path fill="#84DBFF" d="M2,182.2V476c0,10.2,4.5,19.3,11.6,25.5c5.9,5.2,13.7,8.4,22.3,8.4h440.3c8.6,0,16.4-3.2,22.3-8.4
		c7.1-6.2,11.6-15.4,11.6-25.5V182.2H2z"/>
	<path fill="#54C0EB" d="M256,326.4L13.6,501.5c5.9,5.2,13.7,8.4,22.3,8.4h440.3c8.6,0,16.4-3.2,22.3-8.4L256,326.4z"/>
	<path fill="#ACB3BA" d="M435.4,126.9L328,47.2L276.2,8.8c-12-8.9-28.4-8.9-40.4,0L184,47.2L76.5,127L2,182.2l74.5,55.3l159.3,118.2
		c12,8.9,28.4,8.9,40.4,0l159.3-118.1l74.6-55.3L435.4,126.9z"/>
	<path fill="#F2F2F2" d="M435.4,47.2v190.3L276.2,355.7c-12,8.9-28.4,8.9-40.4,0L76.5,237.5V47.2H435.4z"/>
	<g>
		<path fill="#FF7058" d="M318.6,215h17.7c-5.6,11.3-14.1,20.1-25.6,26.5c-13.2,7.3-29.2,11-48.1,11c-18.3,0-34.2-3.1-47.5-9.3
			c-13.3-6.2-23.2-15.3-29.7-27.4c-6.5-12.1-9.7-25.2-9.7-39.4c0-15.6,3.7-30.1,11.1-43.6c7.4-13.5,17.5-23.6,30.3-30.3
			c12.8-6.7,27.5-10.1,44-10.1c14,0,26.4,2.7,37.3,8.2c10.9,5.4,19.2,13.2,24.9,23.2s8.6,21,8.6,32.9c0,14.2-4.4,27-13.1,38.4
			c-10.9,14.4-25,21.7-42.1,21.7c-4.6,0-8.1-0.8-10.4-2.4s-3.9-4-4.7-7.1c-6.6,6.3-14.1,9.5-22.7,9.5c-9.2,0-16.9-3.2-22.9-9.5
			c-6.1-6.4-9.1-14.8-9.1-25.4c0-13,3.7-25,11-35.7c8.9-13.1,20.3-19.7,34.2-19.7c9.9,0,17.2,3.8,21.9,11.3l2.1-9.2h22l-12.6,59.7
			c-0.8,3.8-1.2,6.2-1.2,7.3c0,1.4,0.3,2.4,1,3.1s1.4,1,2.3,1c2.7,0,6.1-1.6,10.3-4.8c5.7-4.2,10.2-9.9,13.7-17
			c3.5-7.1,5.2-14.5,5.2-22.1c0-13.7-4.9-25.1-14.8-34.3s-23.7-13.8-41.4-13.8c-15,0-27.8,3.1-38.3,9.2
			c-10.5,6.1-18.4,14.8-23.7,25.9c-5.3,11.1-8,22.7-8,34.8c0,11.7,3,22.4,8.9,32c5.9,9.6,14.2,16.6,24.9,21
			c10.7,4.4,22.9,6.6,36.7,6.6c13.3,0,24.7-1.8,34.2-5.5C305,227.9,312.7,222.4,318.6,215z M228.5,180.7c0,7.1,1.4,12.2,4.3,15.6
			c2.9,3.3,6.4,5,10.6,5c3.2,0,6.1-0.8,8.9-2.3c2.1-1.1,4.2-2.9,6.2-5.2c2.9-3.4,5.5-8.3,7.6-14.8c2.1-6.5,3.2-12.5,3.2-18.2
			c0-6.3-1.5-11.1-4.4-14.5c-2.9-3.4-6.6-5-11-5c-4.8,0-9.2,1.8-13.2,5.5c-4.1,3.7-7.1,9-9.2,15.8
			C229.6,169.4,228.5,175.5,228.5,180.7z"/>
	</g>
</g>
</svg>
