<?xml version="1.0" encoding="utf-8"?>
<!-- Generator: Adobe Illustrator 20.1.0, SVG Export Plug-In . SVG Version: 6.00 Build 0)  -->
<!DOCTYPE svg PUBLIC "-//W3C//DTD SVG 1.1//EN" "http://www.w3.org/Graphics/SVG/1.1/DTD/svg11.dtd">
<svg version="1.1" id="Layer_1" xmlns="http://www.w3.org/2000/svg" xmlns:xlink="http://www.w3.org/1999/xlink" x="0px" y="0px"
	 viewBox="0 0 49 49" style="enable-background:new 0 0 49 49;" xml:space="preserve">
<style type="text/css">
	.st0{fill:#F1543F;}
	.st1{fill:#40596B;}
	.st2{fill:#FF7058;}
	.st3{fill:#FFD15C;}
	.st4{fill:#F8B64C;}
</style>
<g>
	<path class="st0" d="M47,26.3v1c0,0.6-0.4,1-1,1h-3.6v1.5h4.1c1.1,0,2-0.9,2-2v-1.5c0-0.4-0.3-0.8-0.8-0.8l0,0
		C47.3,25.5,47,25.8,47,26.3z"/>
	<path class="st0" d="M20.3,44.9c-0.2,2-1.9,3.6-4,3.6h-0.1c-2.2,0-4-1.8-4-4v-2.3C14.6,43.5,17.4,44.4,20.3,44.9z"/>
	<path class="st1" d="M7.4,19.6c2.5-1.4,5.2-2.3,7.7-2.6l-5.5-5.5c-1.7,1.7-2.5,3.8-2.5,6C7.2,18.1,7.3,18.9,7.4,19.6z"/>
	<path class="st0" d="M1.6,24.9c-1.4,1.4-1.4,6.8,0,8.2c0.7,0.7,4,0,4,0v-8.2C5.5,24.9,2.3,24.2,1.6,24.9z"/>
	<path class="st0" d="M36.4,42.2v2.3c0,2.2-1.8,4-4,4h-0.1c-2.1,0-3.8-1.6-4-3.6C31.3,44.4,34,43.5,36.4,42.2z"/>
	<ellipse class="st2" cx="24.3" cy="29" rx="21" ry="16.2"/>
	<circle class="st1" cx="9.7" cy="24.5" r="1.2"/>
	<path class="st0" d="M30.9,16.9H17.8c-0.4,0-0.8,0.3-0.8,0.8l0,0c0,0.4,0.3,0.8,0.8,0.8h13.1c0.4,0,0.7-0.3,0.7-0.8l0,0
		C31.6,17.3,31.3,16.9,30.9,16.9z"/>
	<g>
		<circle class="st3" cx="24.3" cy="9.1" r="8.6"/>
		<circle class="st4" cx="24.3" cy="9.1" r="6.5"/>
		<g>
			<path class="st3" d="M23.3,11.7c-0.2-0.2-0.3-0.5-0.4-0.9L21.2,11c0.1,0.8,0.4,1.5,0.9,1.9c0.5,0.5,1.1,0.7,1.8,0.8v0.8h0.9v-0.9
				c0.8-0.1,1.5-0.4,1.9-1c0.5-0.5,0.7-1.2,0.7-1.9S27.2,9.4,26.8,9s-1.1-0.8-2.1-1.1V5.6c0.4,0.2,0.7,0.5,0.8,1l1.6-0.2
				c-0.1-0.6-0.4-1.1-0.8-1.5s-0.9-0.6-1.6-0.7V3.5h-0.9v0.6c-0.7,0.1-1.3,0.3-1.8,0.8c-0.4,0.5-0.7,1.1-0.7,1.8s0.2,1.3,0.6,1.8
				s1,0.8,1.8,1.1v2.7C23.6,12.2,23.4,12,23.3,11.7z M24.8,9.9c0.4,0.1,0.7,0.3,0.8,0.5s0.3,0.5,0.3,0.7c0,0.3-0.1,0.6-0.3,0.8
				c-0.2,0.2-0.5,0.4-0.8,0.4V9.9z M23.3,7.3c-0.1-0.2-0.2-0.4-0.2-0.6s0.1-0.5,0.2-0.7s0.3-0.3,0.6-0.4v2.2
				C23.6,7.7,23.4,7.5,23.3,7.3z"/>
		</g>
	</g>
</g>
</svg>
