<?xml version="1.0" encoding="utf-8"?>
<!-- Generator: Adobe Illustrator 18.0.0, SVG Export Plug-In . SVG Version: 6.00 Build 0)  -->
<!DOCTYPE svg PUBLIC "-//W3C//DTD SVG 1.1//EN" "http://www.w3.org/Graphics/SVG/1.1/DTD/svg11.dtd">
<svg version="1.1" id="Layer_1" xmlns="http://www.w3.org/2000/svg" xmlns:xlink="http://www.w3.org/1999/xlink" x="0px" y="0px"
	 viewBox="0 0 48 48" enable-background="new 0 0 48 48" xml:space="preserve">
<g>
	<g>
		<g>
			<path fill="#F3F3F3" d="M31,0H7.6c-1.7,0-3,1.3-3,3v42c0,1.7,1.3,3,3,3h32.8c1.7,0,3-1.3,3-3V12.4L31,0z"/>
			<rect x="9.6" y="39.7" fill="#E8EAE9" width="9.4" height="3"/>
			<rect x="9.6" y="31.3" fill="#E8EAE9" width="28.8" height="3"/>
			<rect x="9.6" y="23" fill="#E8EAE9" width="28.8" height="3"/>
			<rect x="9.6" y="14.6" fill="#E8EAE9" width="28.8" height="3"/>
			<rect x="9.6" y="6.2" fill="#F3705A" width="14.9" height="3"/>
			<polygon fill="#CED6E0" points="31,0 31,12.4 43.4,12.4 			"/>
		</g>
		<g>
			<g>
				<path fill="#415A6B" d="M25.5,43.1c-0.4,0-0.7-0.1-1-0.3c-0.2-0.2-0.3-0.5-0.1-0.7c0.2-0.2,0.5-0.3,0.7-0.1
					c0.3,0.2,0.9,0.1,1.3-0.2c0.3-0.2,0.5-0.4,0.8-0.7c0.2-0.2,0.4-0.4,0.7-0.6c0.8-0.6,1.6-0.8,2.3-0.5c0.4,0.2,0.7,0.5,1,0.8
					c0.1,0.1,0.3,0.3,0.4,0.4c0.5,0.4,1.2,0.5,1.9,0.3c0.7-0.2,1.4-0.6,2.1-1c0.2-0.1,0.5-0.1,0.7,0.2c0.1,0.2,0.1,0.5-0.2,0.7
					c-0.7,0.4-1.5,0.9-2.4,1.1c-1,0.3-2.1,0.1-2.8-0.5c-0.2-0.1-0.3-0.3-0.5-0.5c-0.2-0.2-0.4-0.4-0.6-0.5c-0.4-0.2-1,0.1-1.3,0.4
					c-0.2,0.2-0.4,0.4-0.6,0.5c-0.3,0.3-0.6,0.6-0.9,0.8C26.5,42.9,26,43.1,25.5,43.1z"/>
			</g>
		</g>
	</g>
</g>
</svg>
