<?xml version="1.0" encoding="utf-8"?>
<!-- Generator: Adobe Illustrator 18.0.0, SVG Export Plug-In . SVG Version: 6.00 Build 0)  -->
<!DOCTYPE svg PUBLIC "-//W3C//DTD SVG 1.1//EN" "http://www.w3.org/Graphics/SVG/1.1/DTD/svg11.dtd">
<svg version="1.1" id="Layer_1" xmlns="http://www.w3.org/2000/svg" xmlns:xlink="http://www.w3.org/1999/xlink" x="0px" y="0px"
	 viewBox="0 0 512 512" enable-background="new 0 0 512 512" xml:space="preserve">
<g>
	<path fill="#84DBFF" d="M442.5,510H69.5c-10.3,0-19.2-7.5-20.9-17.6L2.3,217.8c-2.2-12.9,7.8-24.7,20.9-24.7h465.7
		c13.1,0,23.1,11.8,20.9,24.7l-46.4,274.5C461.6,502.5,452.8,510,442.5,510z"/>
	<rect x="194.8" y="315" fill="#FFD15C" width="23.4" height="99.1"/>
	<rect x="227.8" y="291.4" fill="#ACB3BA" width="23.4" height="122.7"/>
	<rect x="260.8" y="339.1" fill="#FF7058" width="23.4" height="75.1"/>
	<rect x="293.8" y="267.7" fill="#40596B" width="23.4" height="146.4"/>
	<rect x="178.6" y="423.7" fill="#FFFFFF" width="154.8" height="11.7"/>
	<g>
		<path fill="#FF7058" d="M443.7,245.2h-42.3v-53.4c0-81.3-66.1-147.4-147.4-147.4s-147.4,66.1-147.4,147.4v53.4H64.2v-53.4
			C64.2,87.1,149.3,2,253.9,2s189.8,85.1,189.8,189.8V245.2z"/>
	</g>
	<rect x="53.2" y="234.2" fill="#40596B" width="63.8" height="32.8"/>
	<rect x="390.6" y="234.2" fill="#40596B" width="63.8" height="32.8"/>
</g>
</svg>
