<?xml version="1.0" encoding="utf-8"?>
<!-- Generator: Adobe Illustrator 19.0.1, SVG Export Plug-In . SVG Version: 6.00 Build 0)  -->
<svg version="1.1" id="Layer_1" xmlns="http://www.w3.org/2000/svg" xmlns:xlink="http://www.w3.org/1999/xlink" x="0px" y="0px"
	 viewBox="0 0 48 48" style="enable-background:new 0 0 48 48;" xml:space="preserve">
<style type="text/css">
	.st0{fill:#66C6B9;}
	.st1{fill:#F3F3F3;}
	.st2{fill:#415A6B;}
	.st3{fill:#CED6E0;}
	.st4{fill:#F3705A;}
	.st5{fill:#E8EAE9;}
	.st6{fill:#4ABAA5;}
	.st7{fill:#F05540;}
	.st8{fill:#FFD15C;}
	.st9{fill:#55C0EB;}
	.st10{fill:#8AD7F8;}
	.st11{fill:#344A5E;}
	.st12{fill:#FFFFFF;}
	.st13{fill:#F7B64C;}
	.st14{fill:#ADB3BA;}
	.st15{fill:#38A892;}
	.st16{fill:#ED9845;}
	.st17{fill:#2D4251;}
	.st18{fill:#304556;}
	.st19{fill:#A5AAAD;}
	.st20{fill:#2D4456;}
	.st21{fill:#4FB0E0;}
	.st22{fill:#2D4354;}
	.st23{fill:#E54C38;}
	.st24{fill:#2B4456;}
	.st25{fill:#2B404F;}
</style>
<g>
	<g>
		<g>
			<path class="st5" d="M35.8,2.2v25.2c0,1.2-1,2.2-2.2,2.2H2.2c-1.2,0-2.2-1-2.2-2.2V2.2C0,1,1,0,2.2,0h31.3
				C34.8,0,35.8,1,35.8,2.2z"/>
		</g>
		<g>
			<g>
				<path class="st4" d="M16.8,6.6c-5.2,0-9.3,4.2-9.3,9.3c0,5.2,4.2,9.3,9.3,9.3c5.2,0,9.3-4.2,9.3-9.3h-9.3V6.6z"/>
			</g>
			<g>
				<path class="st0" d="M19,4.4v9.3h9.3C28.4,8.6,24.2,4.4,19,4.4z"/>
			</g>
		</g>
		<g>
			<g>
				<path class="st5" d="M18.7,32v-3.1h-1.7V32c-1.2,0.4-2.1,1.5-2.1,2.9c0,1.6,1.3,3,3,3c1.6,0,3-1.3,3-3
					C20.9,33.5,20,32.3,18.7,32z M17.9,36.1c-0.7,0-1.3-0.6-1.3-1.3c0-0.7,0.6-1.3,1.3-1.3c0.7,0,1.3,0.6,1.3,1.3
					C19.2,35.6,18.6,36.1,17.9,36.1z"/>
			</g>
		</g>
		<g>
			<g>
				<path class="st13" d="M11.4,16.9c0,0-0.1,0.3,0,0.4c0,0.1,0.3,0.7,0.5,0.8s0.4,0,0.3-0.4C12.1,17.4,11.7,16.6,11.4,16.9z"/>
			</g>
			<g>
				<path class="st8" d="M15.6,19.3l-2.2,0.5l0,0c0,0-0.3-0.6-0.5-0.8c-0.2-0.3-0.7-0.9-0.9-1.4c-0.2-0.4-0.4-0.8-0.4-0.8
					s-0.2,0.2-0.2,0.4c0,0-0.3-0.5-0.1-0.7c0.2-0.3,0.7-0.1,0.8-0.2c0.1-0.1,0.1-0.2,0.2-0.2c0.1,0,0.2-0.2,0.4-0.3
					c0.2-0.1,0.4-0.1,0.5-0.2c0.2-0.1,0.2-0.2,0.3-0.1c0.1,0,0-0.5-0.1-0.8c-0.1-0.4-0.3-0.8-0.1-1c0.2-0.2,0.4,0,0.5,0.3
					c0.1,0.3,0.3,0.7,0.4,0.9c0.1,0.2,0.1,0.2,0.1,0.4c0,0.1,0.2,0.6,0.3,0.9c0.1,0.2,0.4,1.7,0.6,2.2
					C15.4,18.7,15.6,19.3,15.6,19.3z"/>
			</g>
			<g>
				<path class="st11" d="M29,28.9l-2.1-2c0,0-0.6-0.4-1.7-0.4c-1.1,0-2.1,0-2.5-0.3c-0.4-0.3-1-1-1.6-1.1c-0.6-0.1-0.7-0.4-1.8-1.1
					c-1.1-0.7-1.4-2.5-1.8-2.9c-0.4-0.4-1.1-1.2-1.1-1.2l-0.9-1.3c0,0-2-0.9-3,1.6c0,0,0.4,0.9,0.7,1.4c0.2,0.5,0.7,1.3,0.9,2.1
					c0.2,0.8,0.5,1.8,1.1,2.6c0.6,0.8,2.2,3,3.2,3.7s6.5,4.6,6.5,4.6L29,28.9z"/>
			</g>
			<g>
				<path class="st11" d="M42.3,48H48c-0.1-1.3-0.6-2.8-0.6-3.6c-0.1-1.3-0.5-4.2-0.4-5.6c0.1-1.5-0.7-3.6-0.7-3.6l-3.9-1.8l-1.4,6
					c0,0,0.1,0.1,0.2,2.1C41.3,43.2,42.2,47.3,42.3,48z"/>
			</g>
			<g>
				<path class="st2" d="M39.7,48c0-0.7,0.1-1.8,0.4-2.6c0.3-0.9,2.4-4.1,2.8-5c0.5-0.9,3.2-3.8,3.4-4.9c0.2-1.1-2.3-3-3.3-3.6
					c-0.9-0.6-1.8-1.7-2.7-2.2c-1-0.6-1.4-1.1-1.4-1.1c-4.9-2.4-6.2-1.2-6.8-0.9c-0.7,0.3-1.3,0.1-2.7-0.5c-1.5-0.6-2.5-0.3-2.5-0.3
					c0.6,2.2-2,7.8-2,7.8s-0.1,2-0.4,4.3c-0.2,1.8-0.3,6.7-0.4,9H39.7z"/>
			</g>
			<g>
				<g>
					<path class="st8" d="M34.2,17.1c0,0-0.6,0.8-1,1.3c-0.4,0.4-0.8,0.7-0.8,1.1c-0.1,0.4,0.2,0.9,0.1,1.1
						c-0.2,0.2-1.2,0.6-0.8,1.3c0,0-0.5,0.7-0.2,1.1c0,0-0.3,0.1-0.1,0.5c0,0,0.1,0.4-0.1,0.8c-0.2,0.5-0.3,1.3,0.4,1.6
						c0.7,0.2,1.2,0.2,1.2,0.2l0,1.1l5.8,0.1l0.5-0.9C38.7,21.9,37.7,18.2,34.2,17.1z"/>
				</g>
				<g>
					<path class="st2" d="M33,21.5l0.4,0.5c0,0,1.2-0.9,1.9-0.3c0.7,0.5,0.6,3.3,0.2,4.2c0,0,2.8,0.7,3.6,0.4
						c0.8-0.3,3.4-2.9,3.8-5.6s-1.6-4.9-3.8-5.2c-3.5-0.4-4.8,0.2-5.2,0.7c-0.4,0.5-0.1,1.3,0.6,1.4c0,0,0,0,0,0
						c0,0-1.1,0.8-1.1,1.9C33.5,20.7,33.4,21.1,33,21.5z"/>
				</g>
				<g>
					
						<ellipse transform="matrix(0.8786 0.4776 -0.4776 0.8786 14.9955 -13.8982)" class="st8" cx="34.8" cy="22.5" rx="0.8" ry="1.5"/>
				</g>
				<path class="st13" d="M32.9,26.9c0.9-0.5,1.6-1.3,1.6-1.3c-0.6,0.4-1.5,0.5-1.5,0.5L32.9,26.9z"/>
			</g>
			<g>
				<path class="st5" d="M32.1,27.7c0,0,1-0.3,2.4-0.1s4.4,1,4.4,1s-0.1-0.5-0.1-1c-0.1-0.4-0.1-0.5-0.5-0.7c-0.5-0.1-3.8-1-5-0.5
					S32.1,27.7,32.1,27.7z"/>
			</g>
			<g>
				<path class="st13" d="M13.3,14.5c0,0.1,0,0.1,0.1,0.2c0.1,0.3,0.2,0.9,0.1,0.8c0.2,0.1,0.3,0.4,0.3,0.1
					C13.7,15.4,13.5,14.8,13.3,14.5z"/>
			</g>
		</g>
	</g>
</g>
</svg>
