<?xml version="1.0" encoding="utf-8"?>
<!-- Generator: Adobe Illustrator 18.0.0, SVG Export Plug-In . SVG Version: 6.00 Build 0)  -->
<!DOCTYPE svg PUBLIC "-//W3C//DTD SVG 1.1//EN" "http://www.w3.org/Graphics/SVG/1.1/DTD/svg11.dtd">
<svg version="1.1" id="Layer_1" xmlns="http://www.w3.org/2000/svg" xmlns:xlink="http://www.w3.org/1999/xlink" x="0px" y="0px"
	 viewBox="0 0 48 48" enable-background="new 0 0 48 48" xml:space="preserve">
<g>
	<g>
		<g>
			<g>
				<path fill="#425A6B" d="M13,44.6l-0.2,0.1c0,0-0.5,0.6-0.5,1.5l0.7,0.5c0,0,0.3-0.3,0.4,0c0.2,0.3,0.2,0.6,0.2,0.6
					s0.5,0.7,2.1,0.7c1.6,0,1.9-0.2,1.9-0.2s0.2-0.4,0-0.8c-0.2-0.4-0.4-0.5-0.4-0.5L13,44.6z"/>
			</g>
		</g>
	</g>
	<g>
		<g>
			<g>
				<path fill="#E8EAE8" d="M16.1,43.7C16.1,43.7,16.2,43.7,16.1,43.7c0.1,0.3,0.3,1.2,0.6,1.6c0.3,0.5,1.1,1.2,1,1.7
					c0,0-0.7-0.2-1.2,0.2c-0.6,0.4-1.9-0.1-2.3-0.5c-0.4-0.4-0.3-0.6-0.7-1.1c-0.4-0.5-0.5-0.9-0.5-0.9s0.4-1.2,0.6-1.8s1-1.2,1-1.3
					C14.5,41.7,16.1,43.7,16.1,43.7z"/>
			</g>
		</g>
	</g>
	<g>
		<g>
			<g>
				<path fill="#344A5E" d="M33.6,46c0,0,0.4,0.7,0,1.2c-0.4,0.5-3.4,0.1-3.7-0.1c-0.4-0.2-0.9-0.6-1.5-0.5l-0.1,0.1
					c0,0-1.8,0-2-0.7c-0.2-0.7,0.2-1.7,0.2-1.7S32.6,46.3,33.6,46z"/>
			</g>
		</g>
	</g>
	<g>
		<g>
			<g>
				<path fill="#E8EAE8" d="M27.4,41.8c0,0-0.8,1.5-0.9,2.6c0,0.3,0.1,0.7,0.4,0.8c0.4,0.2,1,0.5,1.7,0.6c1.1,0.2,1.2,0.3,1.9,0.5
					c0.7,0.2,1.9,0.5,2.4,0.3c0.5-0.2,0.8-0.5,0.7-0.8c-0.1-0.2-0.7-0.6-1.2-0.8c-0.6-0.2-1.2-0.6-1.6-1.2c-0.4-0.5-0.8-1.2-0.8-1.6
					C29.8,41.6,27.4,41.8,27.4,41.8z"/>
			</g>
		</g>
	</g>
	<g>
		<g>
			<g>
				<polygon fill="#CED6E0" points="24.9,4.1 26.4,6.3 25.6,7.2 23.6,4.7 				"/>
			</g>
		</g>
	</g>
	<g>
		<g>
			<g>
				<path fill="#FFD15C" d="M25.9,9.8c0,0-0.1-1,0-1.3c0.1-0.3,0.4-0.8,0.5-1.1c0-0.3,0.4-1,0.4-1.1c0-0.1-0.2-0.3-0.3-0.2
					c0,0,0.1-0.5-0.3-0.4c0,0,0.1-0.3,0-0.5C26,5,25.8,5.1,25.8,5.1s0-0.2-0.1-0.4c-0.1-0.2-0.3-0.2-0.4-0.1
					c-0.1,0.1-1.1,0.9-1.1,0.9S23.8,6,23.8,6.1c0,0.1,0.1,1,0.2,1.2c0.1,0.3,0.1,1.7,0.1,2.1C24.1,9.8,25.9,9.8,25.9,9.8z"/>
			</g>
		</g>
	</g>
	<g>
		<g>
			<g>
				<ellipse fill="#F26F5A" cx="19.2" cy="8.6" rx="1.3" ry="0.9"/>
			</g>
		</g>
	</g>
	<g>
		<g>
			<ellipse fill="#425A6B" cx="14.5" cy="5.9" rx="1.1" ry="1.5"/>
		</g>
	</g>
	<g>
		<g>
			<g>
				<polygon fill="#425A6B" points="17.4,1.7 18.4,1.8 18.5,2.8 18,2.9 				"/>
			</g>
		</g>
	</g>
	<g>
		<g>
			<g>
				<path fill="#FFD15C" d="M17.2,1.5c0,0,1.2,0.8,1.6,1.7c0,0,0.1,0.4,0.1,0.6c0,0.2,0.2,0.3,0.3,0.5s0.4,0.8,0.3,1.4
					c-0.1,0.6-0.3,1.2-0.1,1.6s0.2,1.2-0.5,1.3c0,0,1.4,0.7,1.7,1c0.4,0.3,1.3,1.6,1.3,1.6l-2.3,0.5l-4.5-1.9c0,0,0.1-1.2-0.1-2.2
					c-0.2-1-0.6-2.2-0.6-2.2L14.3,2L17.2,1.5z"/>
			</g>
		</g>
	</g>
	<g>
		<g>
			<g>
				<path fill="#F5B54C" d="M21,10c0,0-2.1-0.1-3-0.6c-0.9-0.5,0.1-0.2,0.6-0.2c0.2,0,0-0.1-0.2-0.2c-0.8-0.4-1.5-0.9-2.2-1.5
					l-0.1,0c0.2,0.1,1.5,1.1,2.8,1.1c0,0,1.4,0.7,1.7,1C20.7,9.6,20.8,9.8,21,10z"/>
			</g>
		</g>
	</g>
	<g>
		<g>
			<g>
				<path fill="#425A6B" d="M15.8,1.7c0,0,0.1,1.9,0,2.6c-0.1,0.7-1.1,1.6-1.3,2.1c-0.2,0.5,0.3,3,0.3,3S14.1,7.9,14,7.3
					c-0.1-0.6-0.2-1.6,0.1-2.5C14.4,3.9,15.2,2,15.8,1.7z"/>
			</g>
		</g>
	</g>
	<g>
		<g>
			<g>
				<path fill="#F05640" d="M17.8,1.4c0,0-1.4-1.5-3-1.3c-1.5,0.3-2.1,1.5-2.5,2.4c-0.4,0.8,0.8,4,0.8,4s0.7-2.2,1.1-2.7
					c0.4-0.4,1.4-1.6,1.8-1.8C16.5,1.8,17.8,1.4,17.8,1.4z"/>
			</g>
		</g>
	</g>
	<g>
		<g>
			<g>
				<path fill="#F26F5A" d="M14.3,7.4c0,0-1-0.1-1.2-0.8c-0.2-0.7,0-1.7,0.2-2.1s1.6-1.7,1.8-2c0.2-0.3,1.2-1,1.7-1.2
					s1.8-0.7,1.9-0.2c0.1,0.5,0,1.2-0.2,1.7c0,0-0.4-1-1.3-0.8C17.1,2,17.1,2,17,2c-0.8,0.2-1.5,0.7-1.9,1.5c-0.5,0.7-1.1,1.7-1.1,2
					C13.8,6,13.7,7,14.3,7.4z"/>
			</g>
		</g>
	</g>
	<g>
		<g>
			<g>
				
					<ellipse transform="matrix(0.8439 -0.5364 0.5364 0.8439 -0.9921 8.9155)" fill="#FFD15C" cx="14.8" cy="6.2" rx="0.5" ry="0.9"/>
			</g>
		</g>
	</g>
	<g>
		<g>
			<g>
				<path fill="#F26F5A" d="M28.2,16.2v1.4l-2.7,0.9l-4.2,0.9c-0.4-0.2-2.7-1.3-3-1.5C18,17.6,17.2,17,16,16.2
					c-1.2-0.8-1.8-3.3-1.6-3.8c0.2-0.4,0.8-2.9,0.8-2.9v0c1,0.3,1.4-0.3,3,0.4c1.6,0.7,2.8,1.1,2.7,0.4c-0.2-0.7-1.6-1.7-1.6-1.7
					c0,0,0,0,0,0c-0.1-0.1-0.1-0.1-0.2-0.2c0.5-0.1,0.5-0.9,0.3-1.3c0,0,0,0,0,0c0.3,0,0.7-0.1,0.9,0.1c0.3,0.3,1.5,1.9,1.9,2.1
					c0.4,0.2,1.6,1.1,1.8,1.4c0.2,0.3,2,3.2,3,3.7C27.9,15,28.2,16.2,28.2,16.2z"/>
			</g>
		</g>
	</g>
	<g>
		<g>
			<g>
				<path fill="#F05640" d="M16.8,12.7c0.1,0,0.3,0,0.4,0c0.1,0,0.3,0,0.4,0c0.1,0,0.3,0,0.4,0c0.1,0,0.3,0.1,0.4,0.1
					c0.1,0,0.3,0.1,0.4,0.1l0.4,0.1l0.8,0.2c0.3,0.1,0.6,0.1,0.8,0.2c0.3,0.1,0.5,0.1,0.8,0.2c0.1,0,0.3,0.1,0.4,0.1
					c0.1,0,0.3,0.1,0.4,0.2c0.3,0.1,0.5,0.3,0.7,0.5l-0.1,0.1c0-0.2,0-0.4,0-0.5c0,0,0-0.1,0-0.1c0,0,0-0.1,0.1-0.1
					c0,0,0-0.1,0.1-0.1c0,0,0-0.1,0.1-0.1c0-0.1,0.1-0.1,0.1-0.2c0,0,0-0.1,0.1-0.1l0,0l0,0c0,0,0,0,0-0.1c0-0.2,0-0.3,0-0.5v0l0,0
					c0-0.2,0.1-0.4,0.1-0.7l0-0.3c0-0.1,0-0.2,0.1-0.3c0,0.1,0,0.2,0,0.3l0,0.3l-0.1,0.7l0,0c0,0.2,0,0.3,0,0.5c0,0,0,0,0,0.1l0,0
					l0,0c0,0,0,0.1-0.1,0.1c0,0.1-0.1,0.2-0.1,0.2c0,0,0,0.1-0.1,0.1c0,0,0,0.1-0.1,0.1c0,0,0,0.1,0,0.1c0,0,0,0.1,0,0.1
					c0,0.2,0,0.3,0,0.5c0,0,0,0.1-0.1,0.1c0,0,0,0-0.1,0l0,0c-0.1-0.1-0.2-0.2-0.3-0.2c-0.1-0.1-0.2-0.1-0.4-0.2
					c-0.3-0.1-0.5-0.2-0.8-0.3c-0.1,0-0.3-0.1-0.4-0.1l-0.4-0.1c-0.3-0.1-0.5-0.2-0.8-0.2l-0.8-0.2l-0.8-0.2c-0.1,0-0.3-0.1-0.4-0.1
					c-0.1,0-0.3-0.1-0.4-0.1c-0.1,0-0.3,0-0.4,0C17.1,12.7,16.9,12.7,16.8,12.7z"/>
			</g>
		</g>
		<g>
			<g>
				<path fill="#F05640" d="M19.1,12.9c0,0-0.1-0.1-0.1-0.1c0,0-0.1-0.1-0.1-0.1c-0.1,0-0.1-0.1-0.1-0.1c-0.1,0-0.1,0-0.1-0.1
					l-0.2-0.1l-0.2-0.1c-0.1,0-0.1,0-0.2-0.1c-0.1,0-0.1,0-0.2-0.1c-0.1,0-0.1,0-0.2,0c-0.1,0-0.1,0-0.2,0c-0.1,0-0.1,0-0.2,0
					c-0.1,0-0.1,0-0.2,0c-0.1,0-0.1,0-0.2,0c-0.1,0-0.1,0-0.2,0l-0.2,0c-0.1,0-0.1,0-0.2,0l0,0c0,0,0,0,0,0c0,0,0,0,0,0c0,0,0,0,0,0
					c0,0,0,0,0,0c0,0,0.1,0,0.1,0.1c0,0,0,0-0.1,0c0,0,0,0-0.1,0c0,0,0,0-0.1,0c0,0,0,0,0,0c0,0,0,0,0,0c0,0,0,0,0,0c0,0,0,0,0,0
					c0,0,0,0,0,0l0,0c0.1,0,0.1,0,0.2,0l0.2,0c0.1,0,0.1,0,0.2,0c0.1,0,0.1,0,0.2,0c0.1,0,0.1,0,0.2,0c0.1,0,0.1,0,0.2,0
					c0.1,0,0.1,0,0.2,0c0.1,0,0.1,0,0.2,0c0.1,0,0.1,0,0.2,0.1c0.1,0,0.1,0,0.2,0.1l0.2,0.1l0.1,0.1c0,0,0.1,0.1,0.1,0.1
					c0,0,0.1,0.1,0.1,0.1c0,0,0.1,0.1,0.1,0.1C19,12.8,19,12.8,19.1,12.9z"/>
			</g>
		</g>
	</g>
	<g>
		<g>
			<g>
				<path fill="#425A6B" d="M24.2,12.6c-0.5-0.7-0.9-1.4-1.5-2c-0.6-0.6-1.3-1.1-2.1-1.4C20.3,9,20,9,19.7,8.8
					c-0.2-0.1-0.4-0.2-0.6-0.4c0.4-0.2,0.4-0.8,0.3-1.1c0,0,0,0.1,0.1,0.1c0.6,0.7,1.4,1.3,2.3,1.4c0.2,0,0.3,0.1,0.5,0.1
					c0.7,0.2,1.2,0.6,1.5,1.3c0.2,0.4,0.2,0.8,0.3,1.2C24.1,11.8,24.1,12.2,24.2,12.6z"/>
			</g>
		</g>
	</g>
	<g>
		<g>
			<g>
				<path fill="#425A6B" d="M19.5,7.8c0-0.2,0-0.4-0.1-0.6c-0.1-0.4,0-0.8,0.1-1.3c0,0.2,0.1,0.5,0,0.7c0,0.2-0.1,0.5,0,0.7
					c0,0.1,0.1,0.3,0.2,0.4C20,8,20.4,8.3,20.8,8.5C20.3,8.4,19.8,8.1,19.5,7.8z"/>
			</g>
		</g>
	</g>
	<g>
		<g>
			<g>
				<path fill="#F26F5A" d="M26.3,11.1l-0.2,2.2l-0.1,1l-1.7-0.5l0-0.8L23.9,13c0,0-0.2-0.8-0.1-1.1c0.1-0.3,0.1-1.1,0.1-1.1l0-1.7
					c0.6,0.2,2,0.5,2,0.5L26.3,11.1z"/>
			</g>
		</g>
	</g>
	<g>
		<g>
			<path fill="#F05640" d="M25.6,17C25.6,17,25.6,17,25.6,17L25.6,17L25.6,17L25.6,17C25.6,17,25.6,16.9,25.6,17
				C25.7,16.9,25.7,16.9,25.6,17c0.1-0.1,0.2-0.2,0.2-0.3c0-0.1,0-0.1,0.1-0.2c0-0.1,0.1-0.3,0.1-0.4c0-0.1,0-0.3,0.1-0.4l0-0.4
				l0-0.1c0,0,0-0.1,0-0.1l0-0.2l0.1-0.8l0-0.4c0,0,0-0.1,0-0.1c0,0-0.1-0.1-0.1-0.1c0,0,0,0,0,0.1l0,0.1l0,0.4L26,15l0,0.2
				c0,0,0,0.1,0,0.1l0,0.1l0,0.4c0,0.2-0.1,0.5-0.1,0.7c0,0.1,0,0.1-0.1,0.2c0,0.1-0.1,0.1-0.1,0.1c0,0,0,0,0,0l0,0l0,0c0,0,0,0,0,0
				c0,0,0,0,0,0l0,0c0,0-0.1,0-0.1,0l-0.1,0c-0.2,0-0.5,0.1-0.7,0.1c-0.3,0-0.5,0-0.8,0c-0.3,0-0.5,0-0.8,0c-0.3,0-0.5,0-0.8,0
				c-0.3,0-0.5,0-0.8,0c-0.3,0-0.5,0-0.7-0.1c-0.2,0-0.5-0.1-0.7-0.2c-0.2-0.1-0.5-0.1-0.7-0.2c-0.2-0.1-0.5-0.1-0.7-0.2l0,0
				c0,0,0,0,0,0c-0.1,0-0.1,0-0.2,0c-0.1,0-0.1,0-0.2,0c0,0-0.1,0-0.1,0c0,0-0.1,0-0.1,0c0,0-0.1,0-0.1,0c0,0-0.1,0-0.1,0l-0.1,0
				c0,0-0.1,0-0.1,0c0,0-0.1,0-0.1,0c0,0-0.1,0-0.1,0l-0.1,0c0,0-0.1,0-0.1,0c0,0-0.1,0-0.1,0l-0.1,0l0.1,0c0,0,0.1,0,0.1,0
				c0,0,0.1,0,0.1,0l0.1,0c0,0,0.1,0,0.1,0c0,0,0.1,0,0.1,0c0,0,0.1,0,0.1,0l0.1,0c0,0,0.1,0,0.1,0c0,0,0.1,0,0.1,0c0,0,0.1,0,0.1,0
				c0,0,0.1,0,0.1,0c0.1,0,0.1,0,0.2,0c0.1,0,0.1,0,0.2,0c0.2,0.1,0.5,0.2,0.7,0.2c0.2,0.1,0.5,0.1,0.7,0.2c0.2,0.1,0.5,0.1,0.7,0.2
				c0.2,0.1,0.5,0.1,0.8,0.1c0.3,0,0.5,0,0.8,0c0.3,0,0.5,0,0.8,0c0.5,0,1,0,1.5-0.1c0.3,0,0.5,0,0.8-0.1l0.1,0c0,0,0.1,0,0.1,0
				L25.6,17C25.5,17,25.6,17,25.6,17z"/>
		</g>
	</g>
	<g>
		<g>
			<g>
				<path fill="#425A6B" d="M17.6,13.7c-0.7,0.1-1.4,0.2-2-0.1c-0.3-0.1-0.5-0.3-0.8-0.5c-0.2-0.2-0.4-0.3-0.5-0.6
					c-0.3-0.5-0.2-1.1,0-1.6c0.2-0.5,0.4-1.1,0.3-1.6c0-0.5-0.2-0.9-0.4-1.3c-0.2-0.6-0.4-1.2-0.4-1.8c0-0.6,0.2-1.3,0.7-1.7
					c-0.3,0.3-0.5,0.6-0.5,1c-0.1,0.4,0,0.8,0.3,1.1C14.5,6.8,14.8,6.9,15,7c0.1,0.3,0.2,0.6,0.4,0.9c0.2,0.3,0.4,0.5,0.6,0.8
					c0.1,0.1,0.1,0.3,0.1,0.4c0.1,0.5,0.1,0.9,0.1,1.4c0,0.4-0.1,0.8-0.1,1.2c0,0.5,0.1,0.9,0.4,1.3C16.8,13.4,17.2,13.7,17.6,13.7z
					"/>
			</g>
		</g>
	</g>
	<g>
		<g>
			<g>
				<path fill="#E8EAE8" d="M21.5,4.3C21.6,4.6,21.7,5,22,5.4c0.1,0.1,0.3,0.2,0.5,0.1l1.5-0.6c0,0,1.9-0.8,2.8-0.9
					C27.6,4,28.5,4,28.8,4.1l-1.6-4c0,0-0.5,0.8-1.4,1.4c-0.4,0.3-3.1,1.8-3.1,1.8l-0.8,0.4C21.6,3.9,21.5,4.1,21.5,4.3z"/>
			</g>
		</g>
	</g>
	<g>
		<g>
			<g>
				<path fill="#F26F5A" d="M23.7,5.1L23.7,5.1l-1.1,0.4c-0.2,0.1-0.4,0-0.5-0.1c-0.3-0.4-0.5-0.8-0.5-1.1c0-0.2,0.1-0.4,0.2-0.5
					l0.8-0.4c0,0,0,0,0.1,0c0,0,0,0,0.1,0L23.7,5.1z"/>
			</g>
		</g>
	</g>
	<g>
		<g>
			<g>
				
					<ellipse transform="matrix(0.9267 -0.3757 0.3757 0.9267 1.2324 10.6289)" fill="#CED6E0" cx="27.9" cy="2.2" rx="0.4" ry="2.1"/>
			</g>
			<g>
				<path fill="#425A6B" d="M28.6,4.3c-0.2,0-0.4-0.2-0.6-0.5c-0.2-0.4-0.5-0.8-0.7-1.4c-0.2-0.5-0.4-1.1-0.5-1.5
					c-0.1-0.5,0-0.8,0.2-0.9c0.2-0.1,0.4,0.1,0.7,0.5c0.2,0.4,0.5,0.8,0.7,1.4l0,0c0.2,0.5,0.4,1.1,0.5,1.5c0.1,0.5,0,0.8-0.2,0.9
					C28.7,4.3,28.7,4.3,28.6,4.3z M27.2,0.4c0,0.2,0.1,0.9,0.5,1.9c0.4,1,0.8,1.5,1,1.7c0-0.2-0.1-0.9-0.5-1.9
					C27.7,1.1,27.3,0.5,27.2,0.4z"/>
			</g>
		</g>
	</g>
	<g>
		<g>
			<g>
				<path fill="#425A6B" d="M35.7,33c0,1.4-3.6,11-3.6,11s-1.5-0.2-3.2-0.9c-1.6-0.8-1.7-1-1.6-1.3c0.1-0.3,1.6-4.3,2-5.1
					c0.4-0.8,1.5-3.9,1.8-4.2c0.2-0.4-0.7-1.5-0.9-1.8c-0.2-0.2-2.3-3.5-2.4-3.9l-2,5.5c0,0-0.4,2.4-1.2,3.9
					c-0.8,1.5-6.6,8.4-6.6,8.4s-4.2-0.9-3.8-2.7c0,0,2.2-3.6,3.1-4.7c0.9-1.1,2.4-2.9,2.9-3.3c0.5-0.4,1.1-2.4,1.1-2.4
					s0.6-10.5,0.1-12.2c0.8-0.2,3.1-0.9,4-1.1c0.4-0.1,0.8-0.2,1.2-0.3c0.9-0.3,1.5-1,1.7-1.8l0,0c0,0,1,1.3,1.3,1.6s2,3.4,2.2,3.8
					c0.2,0.4,2.5,5.9,2.7,6.6C34.7,28.8,35.8,31.6,35.7,33z"/>
			</g>
		</g>
	</g>
	<g>
		<g>
			<g>
				<path fill="#344A5E" d="M32.2,33.1c-0.3-0.2-1.4,1.2-2.5,2.7c0.5-1.2,1.2-3.1,1.4-3.4c0.2-0.4-0.7-1.5-0.9-1.8
					c-0.2-0.2-2.3-3.5-2.4-3.9c0,0,0.4-1.4,0.6-2.3c0.2-0.6,0.3-1.3,0.6-1.9c0.3-0.7,0.3-0.7,0.5-0.6c0,0-0.1,1.1-0.4,1.8
					c-0.2,0.7-0.3,0.7,0.3,0.1c0.5-0.6-0.2,0.6-0.5,1.6c-0.3,1,4.4,6.8,3.6,6.2c-0.9-0.6-0.9-0.9-0.4,0
					C32.4,32.7,32.8,33.4,32.2,33.1z"/>
			</g>
		</g>
	</g>
</g>
</svg>
