<?xml version="1.0" encoding="utf-8"?>
<!-- Generator: Adobe Illustrator 18.0.0, SVG Export Plug-In . SVG Version: 6.00 Build 0)  -->
<!DOCTYPE svg PUBLIC "-//W3C//DTD SVG 1.1//EN" "http://www.w3.org/Graphics/SVG/1.1/DTD/svg11.dtd">
<svg version="1.1" id="Layer_1" xmlns="http://www.w3.org/2000/svg" xmlns:xlink="http://www.w3.org/1999/xlink" x="0px" y="0px"
	 viewBox="0 0 48 48" enable-background="new 0 0 48 48" xml:space="preserve">
<g>
	<g>
		<g>
			<g>
				<circle fill="#FFD15C" cx="13.8" cy="13.8" r="13.8"/>
			</g>
			<g>
				<circle fill="#F7B64C" cx="13.8" cy="13.8" r="10.2"/>
			</g>
			<g>
				<path fill="#FFD15C" d="M13.1,20.8v-1.2c-1.4-0.2-2.8-0.9-4-2l1.6-1.9c0.9,0.8,1.7,1.3,2.4,1.5v-2.5c-1.2-0.3-2.1-0.7-2.6-1.2
					c-0.6-0.5-0.8-1.3-0.8-2.2c0-1,0.3-1.8,1-2.4c0.6-0.6,1.5-1,2.5-1.1V6.7h1.8v0.9C16,7.8,17.1,8.2,18.3,9l-1.4,2
					c-0.7-0.5-1.4-0.9-2-1v2.5c1.2,0.3,2.1,0.7,2.7,1.3c0.6,0.5,0.9,1.3,0.9,2.3c0,1-0.3,1.8-1,2.4c-0.7,0.6-1.5,1-2.6,1.1v1.2H13.1
					z M13.1,9.9c-0.5,0.2-0.7,0.5-0.7,0.9c0,0.5,0.2,0.8,0.7,1V9.9z M15.7,16.2c0-0.2-0.1-0.4-0.2-0.6c-0.1-0.2-0.4-0.3-0.7-0.4v2.1
					C15.4,17,15.7,16.7,15.7,16.2z"/>
			</g>
		</g>
		<g>
			<g>
				<circle fill="#F3705A" cx="31.4" cy="31.4" r="16.6"/>
			</g>
			<g>
				<circle fill="#FFFFFF" cx="31.4" cy="31.4" r="13.4"/>
			</g>
		</g>
		<g>
			<circle fill="#CED6E0" cx="39.5" cy="23.3" r="0.8"/>
		</g>
		<g>
			<circle fill="#CED6E0" cx="42.9" cy="31.4" r="0.8"/>
		</g>
		<g>
			<circle fill="#CED6E0" cx="39.5" cy="39.5" r="0.8"/>
		</g>
		<g>
			<circle fill="#CED6E0" cx="31.4" cy="42.9" r="0.8"/>
		</g>
		<g>
			<circle fill="#CED6E0" cx="23.3" cy="39.5" r="0.8"/>
		</g>
		<g>
			<circle fill="#CED6E0" cx="19.9" cy="31.4" r="0.8"/>
		</g>
		<g>
			<circle fill="#CED6E0" cx="23.3" cy="23.3" r="0.8"/>
		</g>
		<g>
			<circle fill="#CED6E0" cx="31.4" cy="19.9" r="0.8"/>
		</g>
		<g>
			<path fill="#FFD15C" d="M39.1,31.4c0-0.7-0.5-1.2-1.2-1.2h-5.1v2.4h5.1C38.6,32.6,39.1,32,39.1,31.4z"/>
		</g>
		<g>
			<path fill="#66C6B9" d="M31.4,21.6c-0.7,0-1.2,0.5-1.2,1.2V30h2.4v-7.1C32.6,22.2,32,21.6,31.4,21.6z"/>
		</g>
		<g>
			<circle fill="#415A6B" cx="31.4" cy="31.4" r="2.7"/>
		</g>
		<g>
			<circle fill="#344A5E" cx="31.4" cy="31.4" r="1.4"/>
		</g>
	</g>
</g>
</svg>
