<?xml version="1.0" encoding="utf-8"?>
<!-- Generator: Adobe Illustrator 18.0.0, SVG Export Plug-In . SVG Version: 6.00 Build 0)  -->
<!DOCTYPE svg PUBLIC "-//W3C//DTD SVG 1.1//EN" "http://www.w3.org/Graphics/SVG/1.1/DTD/svg11.dtd">
<svg version="1.1" id="Layer_1" xmlns="http://www.w3.org/2000/svg" xmlns:xlink="http://www.w3.org/1999/xlink" x="0px" y="0px"
	 viewBox="0 0 48 48" enable-background="new 0 0 48 48" xml:space="preserve">
<g>
	<g>
		<g>
			<g>
				<g>
					<g>
						<path fill="#66C6B9" d="M31.2,16.4c-0.5,0-0.8-0.4-0.8-0.8c0-7.7-6.2-13.9-13.9-13.9S2.5,7.9,2.5,15.6c0,0.5-0.4,0.8-0.8,0.8
							s-0.8-0.4-0.8-0.8C0.9,7,7.9,0,16.5,0S32,7,32,15.6C32,16.1,31.7,16.4,31.2,16.4z"/>
					</g>
				</g>
				<g>
					<g>
						<path fill="#66C6B9" d="M32.1,25.5c-5.1,0-8.9-5.2-8.9-9.8c0-2-0.9-3.8-2.4-5.1c-1.5-1.3-3.5-1.9-5.5-1.6
							c-3.3,0.5-5.8,3.5-5.8,7.1c0,4.7-3.8,8.5-8.5,8.5c-0.5,0-0.8-0.4-0.8-0.8c0-0.5,0.4-0.8,0.8-0.8c3.8,0,6.8-3.1,6.8-6.8
							c0-4.4,3.1-8.2,7.2-8.8c2.5-0.4,4.9,0.3,6.8,2c1.9,1.6,2.9,4,2.9,6.4c0,3.8,3.1,8.1,7.2,8.1c0.5,0,0.8,0.4,0.8,0.8
							C33,25.1,32.6,25.5,32.1,25.5z"/>
					</g>
				</g>
				<g>
					<g>
						<path fill="#66C6B9" d="M32.5,21.2c-3.1,0-5.6-2.5-5.6-5.6c0-3-1.3-5.9-3.6-7.9c-2.3-2-5.3-2.9-8.3-2.4C9.9,6,6.1,10.6,6.1,16
							c0,2.9-2.3,5.2-5.2,5.2c-0.5,0-0.8-0.4-0.8-0.8c0-0.5,0.4-0.8,0.8-0.8c2,0,3.6-1.6,3.6-3.6c0-6.2,4.4-11.5,10.3-12.3
							c3.5-0.5,7,0.5,9.7,2.8c2.7,2.3,4.2,5.6,4.2,9.1c0,2.2,1.8,4,4,4c0.5,0,0.8,0.4,0.8,0.8C33.3,20.8,32.9,21.2,32.5,21.2z"/>
					</g>
				</g>
				<g>
					<g>
						<path fill="#66C6B9" d="M3.9,35c-0.4,0-0.8-0.3-0.8-0.7c-0.1-0.4,0.2-0.9,0.7-0.9C20.2,30.7,19.9,16.6,19.9,16
							c0-1-0.4-2-1.2-2.6c-0.8-0.7-1.8-0.9-2.8-0.8c-1.7,0.2-2.9,1.9-2.9,3.8C13,22.7,7.7,28,1.2,28c-0.5,0-0.8-0.4-0.8-0.8
							c0-0.5,0.4-0.8,0.8-0.8c5.6,0,10.1-4.5,10.1-10c0-2.7,1.9-5,4.4-5.4c1.5-0.2,3,0.2,4.1,1.2c1.1,1,1.8,2.4,1.8,3.8
							c0,0.1,0.3,16.1-17.6,19C4,35,3.9,35,3.9,35z"/>
					</g>
				</g>
				<g>
					<g>
						<path fill="#66C6B9" d="M2.4,31.5c-0.4,0-0.8-0.3-0.8-0.7c-0.1-0.5,0.2-0.9,0.7-1c14.2-2.4,13.4-13.9,13.4-14.4
							c0-0.5,0.3-0.9,0.8-0.9c0.4,0,0.9,0.3,0.9,0.8c0,0.1,1,13.5-14.7,16.2C2.5,31.5,2.5,31.5,2.4,31.5z"/>
					</g>
				</g>
			</g>
			<g>
				<g>
					<path fill="#66C6B9" d="M5.3,38.4c-0.4,0-0.8-0.3-0.8-0.7c-0.1-0.5,0.2-0.9,0.7-1c13-2,17.4-13.2,17.4-13.3
						c0.1-0.3,0.4-0.5,0.7-0.5c0.4,0,0.6,0.2,0.8,0.4c0.6,1.1,2.5,3.9,7.2,4.4c0.5,0,0.8,0.5,0.7,0.9c0,0.5-0.5,0.8-0.9,0.7
						c-4.1-0.4-6.4-2.4-7.6-3.9c-1.7,3.3-6.9,11.2-18.1,13C5.4,38.4,5.3,38.4,5.3,38.4z"/>
				</g>
			</g>
			<g>
				<g>
					<path fill="#66C6B9" d="M7.2,42.4c-0.4,0-0.7-0.3-0.8-0.6c-0.1-0.4,0.2-0.9,0.6-1c11.9-3,16.6-11.1,16.7-11.2
						c0.1-0.2,0.4-0.4,0.6-0.4c0.3,0,0.5,0.1,0.7,0.2c0,0,2.4,2.4,5.9,2.7c0.5,0,0.8,0.5,0.7,0.9c0,0.5-0.5,0.8-0.9,0.7
						c-2.9-0.3-5.1-1.7-6.1-2.5c-1.6,2.3-6.7,8.4-17.2,11.1C7.3,42.4,7.3,42.4,7.2,42.4z"/>
				</g>
			</g>
			<g>
				<g>
					<path fill="#66C6B9" d="M29.3,38.2c-0.1,0-0.1,0-0.2,0c-3.6-1-5.4-2.7-5.5-2.8c-0.3-0.3-0.3-0.8,0-1.2c0.3-0.3,0.8-0.3,1.2,0
						c0,0,1.6,1.5,4.8,2.4c0.4,0.1,0.7,0.6,0.6,1C30,38,29.7,38.2,29.3,38.2z"/>
				</g>
			</g>
			<g>
				<g>
					<path fill="#66C6B9" d="M10.5,46c-0.4,0-0.7-0.2-0.8-0.6c-0.1-0.4,0.1-0.9,0.6-1c6.9-1.9,12-6.6,12.1-6.7
						c0.3-0.3,0.9-0.3,1.2,0c0.3,0.3,0.3,0.9,0,1.2c-0.2,0.2-5.5,5.1-12.8,7.1C10.6,46,10.6,46,10.5,46z"/>
				</g>
			</g>
			<g>
				<g>
					<path fill="#66C6B9" d="M16.5,48c-0.3,0-0.6-0.2-0.8-0.5c-0.2-0.4,0-0.9,0.4-1.1c0.1,0,5.9-2.5,9.8-6.4c0.3-0.3,0.9-0.3,1.2,0
						c0.3,0.3,0.3,0.9,0,1.2c-4.2,4.1-10.1,6.6-10.3,6.7C16.7,48,16.6,48,16.5,48z"/>
				</g>
			</g>
		</g>
		<circle fill="#FFFFFF" cx="34.5" cy="34.5" r="12"/>
		<path fill="#415A6B" d="M34.5,48c-7.5,0-13.5-6.1-13.5-13.5S27,20.9,34.5,20.9S48,27,48,34.5S41.9,48,34.5,48z M34.5,23.9
			c-5.8,0-10.5,4.7-10.5,10.5c0,5.8,4.7,10.5,10.5,10.5C40.3,45,45,40.3,45,34.5C45,28.6,40.3,23.9,34.5,23.9z"/>
		<g>
			<path fill="#F3705A" d="M41,29.7c-0.5-0.6-1.4-0.7-2-0.2c-3.3,2.7-5.6,5.1-7.2,7.5l-2.7-2.7c-0.5-0.5-1.4-0.5-2,0
				c-0.5,0.5-0.5,1.4,0,2l4,4c0,0,0.4,0.5,1.2,0.4c0.4-0.1,0.8-0.3,1-0.7c1.3-2.5,3.7-5.1,7.4-8.2C41.4,31.1,41.5,30.3,41,29.7z"/>
		</g>
	</g>
</g>
</svg>
