<?xml version="1.0" encoding="utf-8"?>
<!-- Generator: Adobe Illustrator 18.0.0, SVG Export Plug-In . SVG Version: 6.00 Build 0)  -->
<!DOCTYPE svg PUBLIC "-//W3C//DTD SVG 1.1//EN" "http://www.w3.org/Graphics/SVG/1.1/DTD/svg11.dtd">
<svg version="1.1" id="Layer_1" xmlns="http://www.w3.org/2000/svg" xmlns:xlink="http://www.w3.org/1999/xlink" x="0px" y="0px"
	 viewBox="0 0 512 512" enable-background="new 0 0 512 512" xml:space="preserve">
<g>
	<path fill="#FFD15C" d="M510,488.2c0,6.2-2.5,11.7-6.7,15.5c-3.8,3.6-8.9,5.7-14.5,5.7H23.2c-5.7,0-10.8-2.1-14.5-5.7
		c-4.1-3.8-6.7-9.3-6.7-15.5V179.1h508V488.2z"/>
	<path fill="#F8B64C" d="M503.3,503.7c-3.8,3.6-8.9,5.7-14.5,5.7H23.2c-5.7,0-10.8-2.1-14.5-5.7l247.5-211.9L503.3,503.7z"/>
	<path fill="#40596B" d="M510,178.8l-72.3,51.7l-167.6,120c-8.1,5.9-20.2,5.9-28.4,0l-167.4-120L2,178.8l72.3-51.7L230.2,15.4
		l11.6-8.4c8.3-5.9,20.2-5.9,28.4,0l11.6,8.4l75.5,54L394,95.7l43.7,31.3L510,178.8z"/>
	<path fill="#F2F2F2" d="M437.7,81v149.6l-167.6,120c-8.1,5.9-20.2,5.9-28.4,0l-167.4-120v-194c0-11.7,9.4-21.2,21.2-21.2h276.6
		L437.7,81z"/>
	<path fill="#CDD6E0" d="M372.1,63.7c0,9.5,7.7,17.3,17.3,17.3h48.3l-65.6-65.6V63.7z"/>
	<circle fill="#FF7058" cx="256" cy="185.2" r="94.8"/>
	<polygon fill="#FFFFFF" points="220.6,124 220.6,246.5 322.7,185.2 	"/>
</g>
</svg>
