<?xml version="1.0" encoding="utf-8"?>
<!-- Generator: Adobe Illustrator 19.0.1, SVG Export Plug-In . SVG Version: 6.00 Build 0)  -->
<svg version="1.1" id="Layer_1" xmlns="http://www.w3.org/2000/svg" xmlns:xlink="http://www.w3.org/1999/xlink" x="0px" y="0px"
	 viewBox="0 0 48 48" style="enable-background:new 0 0 48 48;" xml:space="preserve">
<style type="text/css">
	.st0{fill:#66C6B9;}
	.st1{fill:#F3F3F3;}
	.st2{fill:#415A6B;}
	.st3{fill:#CED6E0;}
	.st4{fill:#F3705A;}
	.st5{fill:#E8EAE9;}
	.st6{fill:#4ABAA5;}
	.st7{fill:#F05540;}
	.st8{fill:#FFD15C;}
	.st9{fill:#55C0EB;}
	.st10{fill:#8AD7F8;}
	.st11{fill:#344A5E;}
	.st12{fill:#FFFFFF;}
	.st13{fill:#F7B64C;}
	.st14{fill:#ADB3BA;}
	.st15{fill:#38A892;}
	.st16{fill:#ED9845;}
	.st17{fill:#2D4251;}
	.st18{fill:#304556;}
	.st19{fill:#A5AAAD;}
	.st20{fill:#2D4456;}
	.st21{fill:#4FB0E0;}
	.st22{fill:#2D4354;}
	.st23{fill:#E54C38;}
	.st24{fill:#2B4456;}
	.st25{fill:#2B404F;}
</style>
<g>
	<g>
		<g>
			<g>
				<g>
					<g>
						<path class="st8" d="M19.3,17.1c-0.2,0.8-0.8,1.3-1.2,1.2c-0.4-0.1-0.6-0.8-0.3-1.6c0.2-0.8,0.8-1.3,1.2-1.2
							C19.4,15.6,19.5,16.3,19.3,17.1z"/>
					</g>
					<g>
						<path class="st8" d="M10.2,17.1c0.2,0.8,0.8,1.3,1.2,1.2c0.4-0.1,0.6-0.8,0.3-1.6c-0.2-0.8-0.8-1.3-1.2-1.2
							C10.1,15.6,9.9,16.3,10.2,17.1z"/>
					</g>
				</g>
				<g>
					<path class="st8" d="M9.7,23.4l2-2c0,0-0.5-2.3-0.5-2.8S10,14.7,10.5,13c0.5-1.7,0.5-3,3.3-3.1s3.4,0.9,4.3,2s0.7,4.5,0.7,5.1
						c0,0.6-0.6,3.7-1.4,4.8v0.9l2.3,3.4l0.1,3.6l-2.1,0.3l-9.1-1.9L9.7,23.4z"/>
				</g>
				<path class="st13" d="M19.6,26.1l-2.3-3.4v-0.9c0,0-3,2.6-5.5-0.4c0,0,1.6,4.3,7.9,5.4L19.6,26.1z"/>
				<g>
					<g>
						<path class="st11" d="M27.9,38.9v-0.6c-0.4,0.1-0.8,0.2-1,0.2c-0.5,0.1-0.7,0-0.7-0.9s-1.3-2.5-1.7-3.1c-0.3-0.6,0-1.4,0-3.1
							c0-1.7-0.6-3.9-0.6-3.9l-1.6,1.3c0,0-0.4,6.9-0.6,10.1H27.9z"/>
					</g>
					<g>
						<path class="st5" d="M21,38.9l-2.1-13.8h-0.4c-0.6,1.4-3.7,2.4-3.7,2.4s-3.1-0.9-3.7-2.3h-1c-0.5,3.2-1.3,8.7-2,13.7H21z"/>
					</g>
					<g>
						<path class="st2" d="M19.6,38.9h3c0.3-2,0.5-4,0.7-4.8c0.4-1.8,0.6-6.6,0.6-6.6s-4.5-2.7-5.3-3.5c-0.8-0.8-1.4-1.2-1.4-1.2
							s1.1,2.1,1.2,4.1C18.6,28.6,19.2,35.5,19.6,38.9z"/>
					</g>
				</g>
				<g>
					<path class="st2" d="M11,16.7c0,0,0.2-1.8,0-2.8c0-1.1,1-2.6,2-2.1c1,0.5,2.4,0.5,3.1-0.1c0.7-0.6,2,0.4,2.3,1.9
						c0,1.2-0.1,2.6,0,3h0.2c0.1-0.4,0.7-2,0.6-3.1c0-1.2-1.3-4.6-4.8-4.4c-5.5,0.3-4.2,5.6-3.5,7.5H11z"/>
				</g>
			</g>
			<g>
				<path class="st2" d="M3.4,36.1c0.1,0.6,0.1,1.6,0,2.8h8.1c0-1.3-0.1-10.9-0.3-13c-0.1-2.1,0.5-4.5,0.5-4.5
					c-1.4,0.6-2,1.9-3.5,2.2c-1.5,0.3-5.8,2-5.8,2s0.9,2.5,1.2,4.5C4,32.1,3.4,36.1,3.4,36.1z"/>
			</g>
			<g>
				<path class="st11" d="M0,38.9h5.5c0-1.6,0.3-4.5,0.2-6.3c0-0.8,0.1-1.6,0.2-2.4c0.1-0.5,0-1.1-0.1-1.7C5.5,27,4.4,25.9,3,25.6
					l-0.5-0.1c0,0-0.9,0-0.9,2s0.4,1.8-0.3,4.4C0.8,33.8,0.3,37.2,0,38.9z"/>
			</g>
		</g>
		<g>
			<g>
				<g>
					<path class="st2" d="M39,38.9l-3.3-0.6c0,0,0,0.2-0.1,0.6H39z"/>
				</g>
				<g>
					<ellipse class="st10" cx="45" cy="33.5" rx="1.5" ry="2.1"/>
				</g>
				<g>
					<path class="st2" d="M36.6,17.1c-0.1,1.2-0.1,2.4-0.1,3.6s0.2,2.4,0.7,3.5c0.1,0.3,0.2,0.5,0.4,0.8c0.2,0.2,0.5,0.4,0.7,0.4
						c0.3,0,0.7-0.3,0.8-0.6c0.2-0.3,0.2-0.7,0.2-1c0.1-1.4,0-2.9-0.3-4.3c-0.1-0.6-0.3-1.2-0.7-1.6s-1-0.8-1.6-0.7"/>
				</g>
				<g>
					<path class="st2" d="M43.3,19.3c0.4,0.5,0.7,1,1,1.5c0.3,0.5,0.5,1.1,0.5,1.7c0,0.4-0.1,0.8-0.1,1.3c0,0.9,0.5,1.9,1.3,2.4
						c-1-0.3-1.8-0.1-2.8-0.4c-0.7-0.2-1.5-1-2-1.5c-0.4-0.4-0.6-0.9-0.8-1.4c-0.2-0.5-0.3-1.1-0.3-1.7c0-0.6,0.3-1.1,0.7-1.5
						c0.4-0.4,1-0.6,1.6-0.4"/>
				</g>
				<g>
					<path class="st8" d="M42.2,19.6c0,0,0.1,1.5-0.3,2.6c0,0-0.6,3.4,2.4,3.8c0,0,0.6,0.9-0.8,2.3c-1.4,1.3-8.6,0-8.6,0l0.4-1.6
						c0,0,0.6-0.1,1.5-0.7c0.9-0.6,1.3-1.5,1.3-1.9c0-0.5,0-1.2,0-1.2s-0.9-0.9-1.1-2.9s0.5-3.5,0.5-3.5s2.8-0.6,3.5-0.3
						C41.6,16.5,42.2,19.6,42.2,19.6z"/>
				</g>
				<path class="st13" d="M42,21.9L42,21.9c0,0-1,1.5-2.4,1.6c-1.1,0.1-1.5-0.4-1.6-0.6c0-0.1,0-0.1,0-0.1s0,0.7,0,1.2
					c0,0.3-0.2,0.8-0.5,1.3c0.7-0.1,1.9-0.4,2.7-0.9C41.5,23.6,42,21.9,42,21.9z"/>
				<g>
					<g>
						<path class="st10" d="M44.3,38.9c0.5-2.4,0.6-7.2,0.3-9.1c-0.2-2.2,1.2-3.5,1.2-3.5l-0.8-0.1c0,0-0.3,0-0.8-0.2
							c-0.6,1.1-2.2,1.4-3.2,1.6c-1,0.3-4.1,0.2-4.8-0.2c-0.7-0.4-1-0.8-1-0.8S34,27,33.9,28.6c-0.1,1,1,8.2,1.4,10.3H44.3z"/>
					</g>
					<g>
						<path class="st8" d="M43.6,38.9c0.1-0.1,0.2-0.2,0.3-0.3c0.5-0.6,0.9-1.2,0.9-1.2l-1.7-0.8c0,0-2.9,0.5-4.3,0.7
							c-1.3,0.1-1.3,0.1-1.3,0.1l-0.7,0.8l0.7,0.7H43.6z"/>
					</g>
					<g>
						<path class="st8" d="M41.4,37.6h-0.6c0,0-3-0.6-4.4-1c-1.4-0.4-2.1-0.6-2.1-0.6s1.2-0.9,2.4-1c1.2-0.1,3.8-0.1,3.8-0.1
							L41.4,37.6z"/>
					</g>
					<g>
						<path class="st9" d="M47.2,36.7c0,0-0.5,0.7-1.2,0.9c-0.4,0.1-0.9,0.3-1.5,0.4c-0.4,0.1-0.9,0.1-1.4,0.1
							c-1.2,0-2.3-0.4-2.3-0.4s-0.5-2-0.4-2.7c0,0,1.5-0.1,2.3-0.5c0.6-0.3,1.7-0.4,2.1-0.4c0.1,0,0.2,0,0.2,0s-0.1-0.8-0.2-1.8
							c-0.1-0.9-0.1-1.9-0.1-2.5c-0.2-2.2,1.2-3.5,1.2-3.5l-0.6-0.1l0.2-0.4c0,0,2,1.1,2.1,2.6c0,1.5,0.3,2.9,0.4,4
							C48.1,33.3,47.2,36.7,47.2,36.7z"/>
					</g>
				</g>
				<g>
					<path class="st2" d="M37.5,16.9c0.1-0.2,0.3-0.2,0.5-0.2c0.4,0,1,0,1.5-0.2c0.6-0.2,1.1,0.2,1,0.6c-0.1,0.4,0,1.3,0.5,2
						c0.6,0.7,1.5,1.6,2,1.8c0.5,0.3-0.1,2.6-0.1,3.4c0,0.7,1.7,1.8,2.7,2.1c1,0.2,1.7,1.3,1.8,2c0,0,0.6-1-1.5-2.4s-1.7-1.1-2-1.6
						c-0.3-0.5,0.3-2.6,0-3.4c-0.3-0.8-0.2-1.2-0.4-2c-0.2-0.8-0.6-2.6-1.9-3.4c-1.2-0.8-2.5-0.7-3-0.3c0,0-0.7-0.1-1.7,0.7
						s-1.4,2.7-1.4,3.7c-0.1,1,0,2.3-0.3,3c-0.2,0.8,0.3,1.4,0.4,1.7c0.2,0.4,0.3,0.7,0,1.1c-0.3,0.4-1,1.5-1.1,2.6
						c0,0,0.2-0.3,1.6-1.2c2.5-1.4,1.7-3.9,1.7-4.2c0,0-1.1,0.8-1.1-1.1C36.8,19.8,36.4,18.4,37.5,16.9z"/>
				</g>
				<g>
					<path class="st8" d="M45,34c0,0,0.4-0.4,0.2-0.6c0,0,0.5-0.7,0.1-0.8c0,0,0.2-0.3-0.2-0.3l-0.2,0.5c0,0-0.2,0.3-0.3,0.5
						s-0.4,0.9-0.4,0.9S44.8,34.1,45,34z"/>
				</g>
				<g>
					<path class="st9" d="M38.3,38.9c0-0.2,0-0.3,0.1-0.5c0.3-0.9,0.5-1.1,0.5-1.1l-4.6-1.5l-0.7,3.1H38.3z"/>
				</g>
			</g>
			<g>
				<g>
					<path class="st6" d="M36.7,38.9c0.2-1,0.3-2.2,0.3-3.5c0-3.7-0.9-6.7-2.1-6.7c-1.2,0-2.1,3-2.1,6.7c0,1.3,0.1,2.5,0.3,3.5H36.7
						z"/>
				</g>
				<g>
					<ellipse class="st4" cx="25.6" cy="21.9" rx="1.9" ry="5.4"/>
				</g>
				<g>
					<path class="st4" d="M32.8,22.3c0,2.5-0.2,5.7-1.2,5.7c-1,0-2.3-3.2-2.3-5.7s0.8-4.5,1.7-4.5S32.8,19.8,32.8,22.3z"/>
				</g>
				<g>
					<path class="st8" d="M30.7,23.4c1-1.5,1.1-3.9,1.1-3.9s0-2.8-0.1-3.3c-0.1-0.2-1.2-1.3-2.5-2.1H27c-1.1,0-2,0.8-2.1,1.8
						c0,0,0,0,0,0c-0.6,5.8,1.3,7,1.3,7c0.3,2.2-1.7,3.5-1.7,3.5l3.2,8.7l4.9,0.9l0.3-9.2L30.7,23.4z"/>
				</g>
				<path class="st13" d="M28.6,24.5c-1.2,0-2.4-1.4-2.4-1.4c0.3,2.2-1.7,3.5-1.7,3.5l0.2,0.5c0.8-0.1,1.8-0.4,3.1-0.9
					c3-1.3,3-2.8,3-2.8C30.4,23.9,29.8,24.5,28.6,24.5z"/>
				<g>
					<path class="st6" d="M22.8,38.9h12.5c0.2-4,0.8-8.9,0.8-8.9s-2.4-3.4-4.5-5.9c0,0-0.2,1.7-0.5,3.1c-0.2,1.4-1.2,4.7-1.1,6.3
						c0,0-2.1-4.2-2.5-5.5c-0.4-1.3-2.1-2.7-2.1-2.7s-4,2-5.2,2.1c0,0,2.6,3.4,2.9,5.5C23.3,33.8,23.1,36.3,22.8,38.9z"/>
				</g>
				<g>
					<path class="st0" d="M35.8,32.4c0,0-0.3,5.7-0.4,6.4h3.8c0-1.5-0.1-3.1-0.3-3.6c-0.3-0.9-0.8-4.3-1-5.2c-0.1-0.8-0.2-2.2-1-2.9
						c-0.8-0.7-3.2-1-3.2-1C34,28.8,34.2,31.5,35.8,32.4z"/>
				</g>
				<g>
					<path class="st4" d="M35.7,32.5c0,0,0.4-1.2-0.2-1.8c-0.6-0.6-1.9-0.4-2.6-1.3c-0.7-0.9-0.7-2-0.5-3c0.2-0.9-1-1.2-1.1-2.4
						c-0.1-1.2,0.6-3.4,0.6-3.6c0,0-1.2-1.5-1.2-3.1c0-1.7-1.1-2.7-2.1-2.7c-1.1,0-2.3,0.3-2.8,1s-1,1.7-1,2.2c0,0.5,0.4,3.1,0.1,4
						c-0.2,0.9,0.5,2.7,0.7,3.3c0.2,0.6,0.9,3.5,0.5,4.6c-0.4,1.1-1.1,1.7-1.1,2.3c0,0-0.1-0.6,0.1-1.1c0,0-0.5,0.8-0.1,1.8
						c0,0-1-0.6-1.6-2.5s-0.7-2.6-1-3.3c-0.3-0.7-0.4-0.8-0.4-2s0.1-2.4,0.3-3.6c0.2-1.1,0.1-1.1,0.6-1.9c0.4-0.7,0.7-1.5,0.8-2.3
						c0.1-0.7,0.3-2.8,2.1-3.9c1.8-1.1,4.1-0.7,4.8-0.2s1.5,2.1,2.1,3.4c0.6,1.3,0.4,1.7,1.1,2.8c0.7,1.1,0.5,3.3,0.6,3.7
						c0.1,0.4,0.7,1.1,0.4,2c-0.3,0.9-0.4,0.9,0,1.6c0.4,0.7,1.1,0.7,1.8,1.2c0.8,0.5,0.8,0.8,0.8,0.8s-0.4-0.5-1.5-1
						c0,0,1.3,1.3,1.1,2.3c0,0-0.2-0.8-0.6-1C36.2,29.2,37,31.6,35.7,32.5z"/>
				</g>
			</g>
			<g>
				<path class="st0" d="M19.1,38.6c0,0.1,0,0.1,0,0.2h3.8l0-0.1c0.1-0.3,0.7-3.5,0.2-5.6c0,0,0,0,0,0c0-0.1,0-0.2,0-0.3
					c-0.3-2-2.9-5.5-2.9-5.5s-1,1.1-1.1,2.9C19.1,32,19,33,19,34.6C19,36.2,19.2,37.8,19.1,38.6z"/>
			</g>
		</g>
	</g>
</g>
</svg>
