<?xml version="1.0" encoding="utf-8"?>
<!-- Generator: Adobe Illustrator 18.0.0, SVG Export Plug-In . SVG Version: 6.00 Build 0)  -->
<!DOCTYPE svg PUBLIC "-//W3C//DTD SVG 1.1//EN" "http://www.w3.org/Graphics/SVG/1.1/DTD/svg11.dtd">
<svg version="1.1" id="Layer_1" xmlns="http://www.w3.org/2000/svg" xmlns:xlink="http://www.w3.org/1999/xlink" x="0px" y="0px"
	 viewBox="0 0 48 48" enable-background="new 0 0 48 48" xml:space="preserve">
<g>
	<g>
		<g>
			<g>
				<polygon fill="#415A6B" points="1.2,34.5 0,33.3 6.7,27.2 7.3,27.8 				"/>
			</g>
			<g>
				<polygon fill="#415A6B" points="2.9,36.2 1.7,35 8.4,28.9 8.9,29.5 				"/>
			</g>
			<g>
				<polygon fill="#415A6B" points="4.6,37.9 3.4,36.7 10,30.6 10.6,31.2 				"/>
			</g>
			<g>
				<polygon fill="#415A6B" points="6.3,39.5 5.1,38.4 11.7,32.3 12.3,32.9 				"/>
			</g>
			<g>
				<polygon fill="#415A6B" points="8,41.2 6.8,40 13.4,34 14,34.6 				"/>
			</g>
			<g>
				<polygon fill="#415A6B" points="9.6,42.9 8.5,41.7 15.1,35.7 15.7,36.3 				"/>
			</g>
			<g>
				<polygon fill="#415A6B" points="11.3,44.6 10.1,43.4 16.8,37.4 17.4,38 				"/>
			</g>
			<g>
				<polygon fill="#415A6B" points="13,46.3 11.8,45.1 18.5,39.1 19.1,39.6 				"/>
			</g>
			<g>
				<polygon fill="#415A6B" points="14.7,48 13.5,46.8 20.2,40.7 20.8,41.3 				"/>
			</g>
		</g>
		<g>
			<path fill="#F3705A" d="M27.2,33.4c1-6.9,4.2-13.4,8.9-18.6C42.9,7.1,48.5,0.5,48,0c-0.5-0.5-7.1,5-14.8,12
				c-5.2,4.7-11.7,7.9-18.6,8.9c-2.3,0.3-4.6,1.4-6.3,3.2l-2.4,2.4l15.8,15.8l2.4-2.4C25.8,38,26.8,35.7,27.2,33.4z"/>
			<g>
				<path fill="#F05540" d="M25.2,30.4l-7.6-7.6c-0.9,0.2-1.8,0.4-2.7,0.5c-1.9,0.3-3.6,1.1-4.9,2.4l-0.7,0.7l12.2,12.2l0.7-0.7
					c1.3-1.3,2.2-3,2.4-4.9C24.8,32.2,25,31.3,25.2,30.4z"/>
			</g>
		</g>
	</g>
</g>
</svg>
