<?xml version="1.0" encoding="utf-8"?>
<!-- Generator: Adobe Illustrator 19.0.1, SVG Export Plug-In . SVG Version: 6.00 Build 0)  -->
<svg version="1.1" id="Layer_1" xmlns="http://www.w3.org/2000/svg" xmlns:xlink="http://www.w3.org/1999/xlink" x="0px" y="0px"
	 viewBox="0 0 48 48" style="enable-background:new 0 0 48 48;" xml:space="preserve">
<style type="text/css">
	.st0{fill:#66C6B9;}
	.st1{fill:#F3F3F3;}
	.st2{fill:#415A6B;}
	.st3{fill:#CED6E0;}
	.st4{fill:#F3705A;}
	.st5{fill:#E8EAE9;}
	.st6{fill:#4ABAA5;}
	.st7{fill:#F05540;}
	.st8{fill:#FFD15C;}
	.st9{fill:#55C0EB;}
	.st10{fill:#8AD7F8;}
	.st11{fill:#344A5E;}
	.st12{fill:#FFFFFF;}
	.st13{fill:#F7B64C;}
	.st14{fill:#ADB3BA;}
	.st15{fill:#38A892;}
	.st16{fill:#ED9845;}
	.st17{fill:#2D4251;}
	.st18{fill:#304556;}
	.st19{fill:#A5AAAD;}
	.st20{fill:#2D4456;}
	.st21{fill:#4FB0E0;}
	.st22{fill:#2D4354;}
	.st23{fill:#E54C38;}
	.st24{fill:#2B4456;}
	.st25{fill:#2B404F;}
</style>
<g>
	<g>
		<g>
			<g>
				<path class="st0" d="M46.4,3.3l-39,0c-0.9,0-1.6-0.7-1.6-1.6v0C5.7,0.7,6.4,0,7.3,0l39,0C47.3,0,48,0.7,48,1.6v0
					C48,2.5,47.3,3.3,46.4,3.3z"/>
			</g>
			<g>
				<path class="st0" d="M46.4,39.4h-39c-0.9,0-1.6-0.7-1.6-1.6v0c0-0.9,0.7-1.6,1.6-1.6h39c0.9,0,1.6,0.7,1.6,1.6v0
					C48,38.7,47.3,39.4,46.4,39.4z"/>
			</g>
		</g>
		<g>
			<rect x="8.1" y="3.3" class="st5" width="37.5" height="32.9"/>
		</g>
	</g>
	<g>
		<g>
			<polygon class="st4" points="39.9,25.9 39.4,25.2 33.5,29 31.9,26.5 25.9,30.4 23.8,27.2 13.5,34 12.8,32.9 24.2,25.4 26.3,28.6 
				32.3,24.6 33.9,27.2 38.7,24.1 38.1,23.3 41,23.3 			"/>
		</g>
	</g>
	<g>
		<path class="st8" d="M15.8,29.4c0,0-1.4,4.2-1.9,5.3c-0.5,1.1-0.5,1.1-0.5,1.1l-5.9-4.4l-0.1-1.5l8.4-3.9c0,0,0.4,1.9,0.3,2.5
			C16.1,29.1,15.8,29.4,15.8,29.4z"/>
		<g>
			<path class="st11" d="M20.5,48c-0.1-0.7-0.1-1.2-0.1-1.2C15.6,45.1,18.7,36,18.7,36S17,35,15,34.5c-1.9-0.5-8.7-1.9-9.7-2.7
				c-1-0.8-4.5,0.7-5.2,3.8c-0.6,2.8,0.3,7.7,1.1,12.4H20.5z"/>
		</g>
		<g>
			<path class="st2" d="M17.5,47c1.3,0.1,2.9,0.4,3.9,0.8c0.1,0.1,0.3,0.1,0.5,0.2h7.4c0-0.2,0.1-0.3,0.2-0.5c0.4-1.1,0.1-3-0.6-3.8
				s-2.6-1.9-3.9-1.8c-1.2,0-4.5-2.7-4.5-2.7c-0.3-2-1.8-3.6-2.7-3.5s-3.1,2.7-3.7,5.6c-0.2,1.2,0,2.4,0.3,3.3
				C14.7,45.9,16,46.8,17.5,47z"/>
		</g>
		<g>
			<path class="st2" d="M5.8,32c0,0,2.5,1,3.4,2c0,0,2.8-0.4,3.7,0c0,0-2.1-1.6-3.6-2.6c-0.9-0.6-1.5-0.7-1.8-0.7
				c-0.2,0-0.4,0.1-0.5,0.2C6.4,31.2,6,31.6,5.8,32z"/>
		</g>
		<g>
			<path class="st2" d="M7.5,29.9c0,0,2.9,2.4,6,0.5c0.5-0.3,0.9-0.8,1.2-1.4c0.3-0.9,1.1-2.2,2.2-2.1c0,0,0.6-3.5-0.6-5
				c-1.2-1.5-3.4-2.3-5.3-1.8s-4,1.6-4,5S7.5,29.9,7.5,29.9z"/>
		</g>
		<g>
			<path class="st8" d="M16.8,28.2c-0.2,0.9-0.7,1.6-1.1,1.5c-0.4-0.1-0.5-0.9-0.2-1.8s0.7-1.6,1.1-1.5S17,27.3,16.8,28.2z"/>
		</g>
	</g>
	<g>
		<path class="st13" d="M26.1,11.1V6.5c-1.6,0.2-3.2,0.8-4.4,1.8l3.2,3.2C25.3,11.3,25.7,11.1,26.1,11.1z"/>
		<path class="st2" d="M30.3,13.7h4.5c-0.4-3.8-3.4-6.9-7.2-7.2v4.5C29,11.3,30,12.4,30.3,13.7z"/>
		<g>
			<path class="st9" d="M27.6,17.9v4.5c3.8-0.4,6.9-3.4,7.2-7.2h-4.5C30,16.6,29,17.7,27.6,17.9z"/>
		</g>
		<path class="st4" d="M23.3,14.5c0-0.7,0.2-1.4,0.6-1.9l-3.2-3.2c-1.1,1.4-1.8,3.2-1.8,5.1c0,4.2,3.2,7.6,7.3,8v-4.5
			C24.5,17.6,23.3,16.2,23.3,14.5z"/>
	</g>
</g>
</svg>
