<?xml version="1.0" encoding="utf-8"?>
<!-- Generator: Adobe Illustrator 18.0.0, SVG Export Plug-In . SVG Version: 6.00 Build 0)  -->
<!DOCTYPE svg PUBLIC "-//W3C//DTD SVG 1.1//EN" "http://www.w3.org/Graphics/SVG/1.1/DTD/svg11.dtd">
<svg version="1.1" id="Layer_1" xmlns="http://www.w3.org/2000/svg" xmlns:xlink="http://www.w3.org/1999/xlink" x="0px" y="0px"
	 viewBox="0 0 48 48" enable-background="new 0 0 48 48" xml:space="preserve">
<g>
	<g>
		<g>
			<g>
				<path fill="#F3F3F3" d="M36.9,3v42c0,1.7-1.3,3-3,3H3c-1.7,0-3-1.3-3-3V10.3L10.3,0h23.6C35.6,0,36.9,1.3,36.9,3z"/>
				<g>
					<rect x="16.5" y="6.2" fill="#CED6E0" width="15.3" height="2.2"/>
				</g>
				<g>
					<rect x="5.1" y="13.2" fill="#CED6E0" width="26.7" height="2.2"/>
				</g>
				<g>
					<rect x="5.1" y="20.1" fill="#CED6E0" width="26.7" height="2.2"/>
				</g>
				<g>
					<rect x="5.1" y="27" fill="#CED6E0" width="26.7" height="2.2"/>
				</g>
				<g>
					<rect x="5.1" y="33.9" fill="#CED6E0" width="26.7" height="2.2"/>
				</g>
				<g>
					<rect x="5.1" y="40.8" fill="#CED6E0" width="26.7" height="2.2"/>
				</g>
			</g>
			<g>
				<polygon fill="#CED6E0" points="10.3,0 10.3,10.3 0,10.3 				"/>
			</g>
		</g>
		<g>
			<g>
				<g>
					<path fill="#FFD15C" d="M38.4,23.9c-2.1,0-4.1,0-6.2,0c0-2.5-2.4-6.6-3.7-8.7c4.1-3.5,9.5-3.5,13.6,0
						C40.8,17.4,38.4,21.4,38.4,23.9z"/>
				</g>
				<path fill="#FFD15C" d="M41.7,46.8c3.7-1.4,6.3-4.9,6.3-8.8c0,0,0,0,0-0.1c0-7-5.7-16.3-12.7-16.3c-7,0-12.7,9.2-12.7,16.3
					c0,0,0,0,0,0.1c0,4,2.6,7.5,6.3,8.8C33.1,48.4,37.4,48.4,41.7,46.8z"/>
			</g>
			<g>
				<path fill="#F7B64C" d="M34.6,41.7v-1.2c-1.3-0.2-2.6-0.8-3.7-1.8l1.5-1.8c0.8,0.7,1.6,1.2,2.2,1.4V36c-1.1-0.3-1.9-0.7-2.4-1.2
					c-0.5-0.5-0.8-1.2-0.8-2.1c0-0.9,0.3-1.7,0.9-2.2c0.6-0.6,1.4-0.9,2.3-1.1v-0.8h1.7v0.8c1.1,0.1,2.1,0.6,3.2,1.3l-1.3,1.9
					c-0.7-0.5-1.3-0.8-1.9-1V34c1.1,0.3,2,0.7,2.5,1.2c0.5,0.5,0.8,1.2,0.8,2.1c0,0.9-0.3,1.7-0.9,2.3c-0.6,0.6-1.4,0.9-2.4,1.1v1.1
					H34.6z M34.6,31.6c-0.5,0.2-0.7,0.4-0.7,0.9c0,0.4,0.2,0.7,0.7,1V31.6z M37.1,37.4c0-0.2-0.1-0.4-0.2-0.6
					c-0.1-0.1-0.3-0.3-0.6-0.4v2C36.8,38.2,37.1,37.9,37.1,37.4z"/>
			</g>
		</g>
	</g>
</g>
</svg>
