<?xml version="1.0" encoding="utf-8"?>
<!-- Generator: Adobe Illustrator 18.0.0, SVG Export Plug-In . SVG Version: 6.00 Build 0)  -->
<!DOCTYPE svg PUBLIC "-//W3C//DTD SVG 1.1//EN" "http://www.w3.org/Graphics/SVG/1.1/DTD/svg11.dtd">
<svg version="1.1" id="Layer_1" xmlns="http://www.w3.org/2000/svg" xmlns:xlink="http://www.w3.org/1999/xlink" x="0px" y="0px"
	 viewBox="0 0 48 48" enable-background="new 0 0 48 48" xml:space="preserve">
<g>
	<g>
		<g>
			<g>
				<polygon fill="#344A5E" points="26.6,3.9 21.4,3.9 7.2,11.5 10.3,11.5 24,4.1 37.7,11.5 40.8,11.5 				"/>
			</g>
		</g>
		<g>
			<g>
				<g>
					<path fill="#F3F3F3" d="M45,48H3c-1.7,0-3-1.3-3-3V13.9c0-1.7,1.3-3,3-3h42c1.7,0,3,1.3,3,3V45C48,46.7,46.7,48,45,48z"/>
				</g>
				<rect x="5" y="15.9" fill="#8AD7F8" width="38" height="27.1"/>
				<g>
					<g>
						<g>
							<g>
								<path fill="#F3F3F3" d="M20,35.8L19,43h8.7H34h8.7l-1-7.2c-0.2-1.4-1.2-2.5-2.6-2.8l-8.3-1.7L22.6,33
									C21.2,33.3,20.2,34.4,20,35.8z"/>
							</g>
						</g>
						<g>
							<g>
								<g>
									<path fill="#F3705A" d="M31.9,38.1l1-1c0,0-1.3-2.1-2.1-2.1c-0.7,0-2.1,2.1-2.1,2.1l1,1H31.9z"/>
								</g>
								<g>
									<polygon fill="#F3705A" points="33.1,43 31.9,38.1 29.9,38.1 28.7,43 									"/>
								</g>
							</g>
							<g>
								<g>
									<path fill="#F7B64C" d="M27.6,27.7c0.6-2.2,2-3.5,3.3-4.5c1.4,1,2.7,2.3,3.3,4.5l0,3.4c-0.6,2.2-2,2.9-3.3,3.9
										c-1.4-1-2.7-1.7-3.3-3.9V27.7z"/>
								</g>
							</g>
							<g>
								<g>
									
										<ellipse transform="matrix(0.9871 0.1604 -0.1604 0.9871 4.6035 -5.3622)" fill="#FFD15C" cx="35.5" cy="25.8" rx="0.8" ry="1.5"/>
								</g>
								<g>
									
										<ellipse transform="matrix(-0.9871 0.1604 -0.1604 -0.9871 56.3212 47.1196)" fill="#FFD15C" cx="26.3" cy="25.8" rx="0.8" ry="1.5"/>
								</g>
							</g>
							<g>
								<path fill="#344A5E" d="M34.6,29.1c0.8-1.8,1.3-4.9,1.3-6.2c0-3.3-1.7-5-5-5c-3.3,0-5,1.7-5,5c0,1.3,0.5,4.4,1.3,6.2H34.6z"
									/>
							</g>
							<g>
								<path fill="#FFD15C" d="M35.5,25.6c0,3.6-2.1,6.5-4.7,6.5c-2.6,0-4.7-1.9-4.7-5.5c0-1.7,0.5-4.3,1.2-5.4
									c0.9,0.8,2.1,1.3,3.4,1.3c1.3,0,2.5-0.5,3.4-1.3C35.1,22.3,35.5,23.9,35.5,25.6z"/>
							</g>
						</g>
						<g>
							<g>
								<path fill="#FFFFFF" d="M34.2,31.1l1.1,1.2l-1,5.5c-0.7-0.8-2.2-2.4-3.4-2.8C32.2,34.1,33.6,33,34.2,31.1z"/>
							</g>
							<g>
								<path fill="#FFFFFF" d="M27.6,31.1l-1.1,1.2l1,5.5c0.7-0.8,2.2-2.4,3.4-2.8C29.5,34.1,28.1,33,27.6,31.1z"/>
							</g>
						</g>
					</g>
					<g>
						<g>
							<path fill="#F7B64C" d="M28,43l-0.7-3.9c-0.2-1.3-1.3-2.3-2.7-2.5l-4.2-0.4l-0.6-6.8l-5.7,0.3l0.2,4.9l-2.1,0.8l-3.9,0.9
								c-1.1,0.3-2,1.2-2.3,2.3L5.2,43H28z"/>
						</g>
						<g>
							<path fill="#F3705A" d="M8.4,43h16.2c-1.7-2.1-0.3-6.4-0.3-6.4l-3-0.3c-5.2,5.2-9.6,0.6-9.7,0.6l-1.2-0.9l-1.1,0.4
								C10.2,37.5,8.7,41.9,8.4,43z"/>
						</g>
						<path fill="#FFD15C" d="M12.9,29.2c0,0,1.8,2.5,2.1,2.8c0.3,0.3,1.4,1.4,2.7,0.7c1.4-0.6,1.9-1.4,1.9-1.4s2.3-2.6,1.6-4.6
							c-0.7-2-0.8-3.9-2.3-4.4s-3.4-1.2-4.2-0.9c-0.7,0.3-1.7,2.9-1.7,3.6S12.9,29.2,12.9,29.2z"/>
						<g>
							<g>
								<path fill="#F3705A" d="M15.4,41.7c0.1,0,0.1,0,0.2,0C15.5,41.6,15.4,41.7,15.4,41.7z"/>
								<path fill="#344A5E" d="M25.9,37.6c-0.6-0.6-1-1.4-1.3-1.9c0.1,0.2,0.3,0.3,0.3,0.4c-0.1-0.1-0.4-0.6-0.3-1.5
									c0.1-0.9-0.7-2.3-0.9-2.6c0.4,0.6,1,2.1,1.1,2.3c-0.3-1.1-1.9-3.8-2.3-4.6c-0.4-0.8-0.2-3.1-0.2-3.1s-0.2-1.9-1.3-4.2
									c-1.1-2.3-4.2-2.2-4.3-2c-0.1,0.1-0.5,0-0.5,0C12.7,20,12,24.9,12,26.2c0,1.2-0.6,3.6-0.6,3.6c-0.7,1.4-0.4,3.4-0.4,3.9
									c0,0.5-1.2,0.8-1,1.8c0.2,0.9-0.4,1.2-0.4,1.2c-2.4,0.6-0.8,4.3-0.8,4.3c0.2-0.8,1.3-0.7,1.3-0.7c-0.5,0.4-0.6,0.9-0.6,1
									c0.1-0.5,0.8-0.4,1-0.7c0.2-0.3,0.2-0.7,0.2-0.7s0.2,0.7-0.1,1c-0.3,0.2-0.4,0.7-0.4,0.7c0.2-0.1,0.5-0.3,0.5-0.4
									c-0.3,0.4-0.6,0.7-0.7,0.7c0.1,0,0.9-0.2,1.3-1.6c0.4-1.4,1.7-2.1,1.8-2.2c-2.3,2.1-1.3,3.4-1.2,3.6
									c-0.7-1.7,1.4-3.5,1.4-3.5s0.5,0.1,0.5,1.1c0,1-2,1.2-2,1.2c2.9,0.2,2.7-1.9,2.7-1.9c0.9,0.9,0.4,1.9,0.4,1.9
									c-1.6,0.4-1.4,1.1-1.4,1.1c0.4-0.5,0.7-0.4,0.7-0.4c-0.2,0-0.4,0.5-0.5,0.6c0.3-0.5,1.1-0.5,1.1-0.5
									c-0.2,0.6-0.4,0.7-0.4,0.7c0.4-0.1,0.7-0.2,0.9-0.4c0.5,0.1,0.9-0.2,1-0.3c-0.2,0.3-0.6,0.5-0.8,0.5c1.4,0,1.4-1.8,1-2.2
									c-0.4-0.4-1.3-2.1-1.3-2.1c1.2-1.5,0.3-3.9,0.3-3.9s-1.3-1.5-1.5-2.8c-0.1-0.3-0.1-0.7-0.2-1c-0.4-1.8-0.5-3.6-0.2-5.4
									c0-0.1,0-0.2,0.1-0.3c0.3-1.4,2.2-1.2,2.2-1.2c0.3-0.3,1.8,0.2,2.1,1.2c0.3,1,1.8,2.4,2.2,3.3c0.4,0.9,0.1,2.8-0.4,3.5
									c-0.2,0.2-0.3,0.4-0.3,0.6c-0.2,0.5-0.3,1-0.6,1.4c-0.6,1.3,0,2.2,0.4,2.7c0,0.3,0.1,0.5,0.1,0.5c-1.3,1.7-0.4,2.9,0,3.4
									c-1.2-1.4,0.1-3.2,0.1-3.2c-0.2,0.4-0.2,2.5-0.2,2.5c0,0.3,0,0.5,0.1,0.7v0c0.6,1.6,2.9,2,2.9,2c-0.3-0.2-0.5-0.8-0.6-1.1
									c0.3,0.5,1.2,1.1,1.2,1.1c-0.3,0.1-0.6,0.9-0.8,1.2c0.1-0.2,0.4-0.7,0.9-0.9c0.3-0.1,0.5-0.3,0.5-0.5c0,0.2,0,0.5,0.1,0.8
									c0.1,0.5-0.1,0.8-0.2,1h0.1c0.2-0.2,0.5-0.5,0.3-0.9c-0.3-0.6,0.5-1.7,0.5-1.7c-0.1,0.7,0.3,0.8,0.4,0.9
									c-0.1-0.1-0.4-1,0.4-1.7c0.8-0.7,0.8-1.8,0.7-1.8C26,37.6,26,37.6,25.9,37.6z M15.8,39.4c0.8,0.8,0.5,1.5,0.5,1.5
									c-0.2,0.5-0.6,0.5-0.9,0.5C16,40.7,15.8,39.4,15.8,39.4z M19.5,32.4c-0.3,0.6-0.2,2.2-0.1,3C18.5,34.1,19.3,32.8,19.5,32.4
									c0-0.1,0.1-0.1,0.1-0.1C19.6,32.3,19.6,32.4,19.5,32.4z"/>
								<path fill="#F3705A" d="M26.4,39.9c0.1-0.3,0.3-1.4-0.4-2.2C26.8,38.5,26.5,39.6,26.4,39.9z"/>
							</g>
						</g>
					</g>
				</g>
			</g>
			<path fill="#344A5E" d="M43,43.5H5c-0.3,0-0.5-0.2-0.5-0.5V15.9c0-0.3,0.2-0.5,0.5-0.5h38c0.3,0,0.5,0.2,0.5,0.5V43
				C43.5,43.3,43.3,43.5,43,43.5z M5.5,42.5h37V16.4h-37V42.5z"/>
		</g>
		<g>
			<g>
				<circle fill="#F3705A" cx="24" cy="3.3" r="3.3"/>
			</g>
			<g>
				<circle fill="#F05540" cx="24" cy="3.3" r="1.7"/>
			</g>
		</g>
	</g>
</g>
</svg>
