<?xml version="1.0" encoding="utf-8"?>
<!-- Generator: Adobe Illustrator 19.0.1, SVG Export Plug-In . SVG Version: 6.00 Build 0)  -->
<svg version="1.1" id="Layer_1" xmlns="http://www.w3.org/2000/svg" xmlns:xlink="http://www.w3.org/1999/xlink" x="0px" y="0px"
	 viewBox="0 0 48 48" style="enable-background:new 0 0 48 48;" xml:space="preserve">
<style type="text/css">
	.st0{fill:#66C6B9;}
	.st1{fill:#F3F3F3;}
	.st2{fill:#415A6B;}
	.st3{fill:#CED6E0;}
	.st4{fill:#F3705A;}
	.st5{fill:#E8EAE9;}
	.st6{fill:#4ABAA5;}
	.st7{fill:#F05540;}
	.st8{fill:#FFD15C;}
	.st9{fill:#55C0EB;}
	.st10{fill:#8AD7F8;}
	.st11{fill:#344A5E;}
	.st12{fill:#FFFFFF;}
	.st13{fill:#F7B64C;}
	.st14{fill:#ADB3BA;}
	.st15{fill:#38A892;}
	.st16{fill:#ED9845;}
	.st17{fill:#2D4251;}
	.st18{fill:#304556;}
	.st19{fill:#A5AAAD;}
	.st20{fill:#2D4456;}
	.st21{fill:#4FB0E0;}
	.st22{fill:#2D4354;}
	.st23{fill:#E54C38;}
	.st24{fill:#2B4456;}
	.st25{fill:#2B404F;}
</style>
<g>
	<g>
		<path class="st8" d="M36.7,10.6c0,0-0.2,0.8-0.3,1.3c-0.1,0.6-0.4,2.4-1.5,3.3l-1.3,3.1l-3.5-1c0,0,0.8-3.9,0.9-4.5
			c0.1-0.6-0.2-2-0.1-3.5C31,7.9,36.3,8.4,36.7,10.6z"/>
	</g>
	<g>
		<path class="st8" d="M36.7,10.6c0,0-0.2,0.8-0.3,1.3c-0.1,0.6-0.4,2.4-1.5,3.3l0,3.6c-1.8,5.7-6.5,4.2-4.7-1.5
			c0,0,0.8-3.9,0.9-4.5c0.1-0.6-0.2-2-0.1-3.5C31,7.9,36.3,8.4,36.7,10.6z"/>
	</g>
	<g>
		<path class="st7" d="M31,9.1l-0.8-0.9c0,0,0.7-2.8,3-3.1s4.3,1.3,4.2,3.8c0,0,0.2,0.6-0.1,1S32.3,10.3,31,9.1z"/>
	</g>
	<path class="st4" d="M30.2,8.2c0,0,0.5,0.5,1.2,0.7c0.7,0.2,4.6,0.4,5.4,0.6c0.8,0.2,0.5-0.4,0.6-0.7c0,0,0.3,1.2,0.3,1.6
		s-0.3,0.4-0.6,0.4c-0.3,0-3.6-0.3-4.8-0.6c-1.2-0.3-1.3-0.2-1.6-0.3c-0.4-0.1-0.8-0.7-0.8-1C29.8,8.7,30.2,8.2,30.2,8.2z"/>
	<path class="st13" d="M34.8,15.3c0,0-0.5,0.5-1.5,0.4c-1-0.1-2.2-1.6-2.4-2.8c0,0-0.2,1.6,1.3,3.4c0.5,0.6,1.1,1,1.6,1.3L34.8,15.3
		z"/>
	<g>
		<path class="st3" d="M32.2,16.1c0,0,0.9,1.4,0.6,2.7c0,0,0.3-1.2,0.3-1.7c0-0.5,0.8-1.4,0.8-1.4l1.2,2.1l-2.8,9.4l-3.4-0.8
			L29.7,16L32.2,16.1z"/>
	</g>
	<g>
		<path class="st2" d="M27.1,48c0.1-0.6,0.7-2.6,1.1-3.7c0.5-1.2,1.2-2.9,1.2-2.9s0.2,0.1,0.5,1.1c0.3,0.9,1.4,4.7,1.6,5.5h5.4
			c0.4-2.1,0.3-9.3,0.3-9.3l-4.8-6.1c0,0-7.6,1.1-9.2,4.8c-1.5,3.4-1,9.6-0.9,10.7H27.1z"/>
	</g>
	<g>
		
			<ellipse transform="matrix(0.9954 -9.599906e-002 9.599906e-002 0.9954 -0.9173 3.0172)" class="st8" cx="30.9" cy="11" rx="0.5" ry="1"/>
	</g>
	<g>
		<path class="st11" d="M29.2,15.2c0,0-0.2-0.1-0.9,0.3c-0.8,0.4-2.2,0.5-2.6,0.5c-0.4,0.1-0.4,0.1-0.4,0.1s2,4.1,1.6,6.2
			c-0.4,2.1-4.4,12.9-4.9,14.2c-0.4,1.3-0.6,1.9-0.6,1.9s2.3,1.8,3.3,2.1c1,0.3,1.8,0.5,2.5-1c0.7-1.5,3.1-7.8,3.4-10.5
			c0.2-2.8-0.9-13.3-0.9-13.3L29.2,15.2z"/>
	</g>
	<g>
		<path class="st8" d="M27.8,29.5c0,0-1.4-0.2-1.8-1.7C25.7,26.2,27.8,28.1,27.8,29.5z"/>
	</g>
	<g>
		<path class="st5" d="M35.3,14.7c0,0-0.4,0.7-1.4,0.9L33.8,18l1.5-2.5L35.3,14.7z"/>
	</g>
	<g>
		<path class="st11" d="M39.4,40.1c0,0-0.3,0.5-2,0.8c-1.7,0.3-2.7,0.4-2.7,0.4s-1.6,0.3-2-0.8c-0.4-1.1-2.2-7.3-2.2-10.1
			c0-2.9,5.4-14.7,5.4-14.7s1,0.5,1.4,0.9c0.4,0.4,0.3,0.3,0.7,0.7c0.4,0.4,1.7,0.8,1.7,0.8s-1.7,1-2.5,3.3
			C36.3,23.6,39.4,40.1,39.4,40.1z"/>
	</g>
	<g>
		<path class="st2" d="M40.4,21.2c0,2.1-0.3,7-1.4,8.6c-0.5,0.7-0.8,1.2-1.1,1.5c-0.3,0.3-0.6,0.4-0.9,0.5c-0.4,0.1-3.9-0.3-6.5-0.6
			c-1.6-0.2-2.8-0.3-2.8-0.3L27.5,27c0,0,2.1,0.1,3.8,0.1c0.8,0,1.4,0,1.7,0c0.9,0,2-0.8,2.4-0.9c0.3-0.1,0.3-1.4,0.7-2.3
			c0.3-0.9,1.1-2.5,1.1-2.6c0,0,0,0,0,0c0.8-2.2,2.5-3.3,2.5-3.3S40.4,19,40.4,21.2z"/>
	</g>
	<g>
		<path class="st2" d="M35.3,14.9c0,0-0.4,0.9-0.6,1.3c-0.2,0.4-1.3,2.5-1.6,3.1c-0.3,0.6-1.1,2-1.9,5.1c-0.8,3.2-0.7,6-0.7,6
			s0.9-4.2,2.4-6.9c1.5-2.7,3.5-5.6,3.5-5.6l-0.8-0.5l0.8-0.1c0,0,0-0.8-0.3-1.3c-0.3-0.5-0.6-0.7-0.7-0.9S35.3,14.9,35.3,14.9z"/>
	</g>
	<g>
		<path class="st5" d="M30.9,13.4c0,0,0.3,1.9,1.3,2.7L32,16.4l-0.4-0.2c0,0-0.9,0.6-0.9,1.8c0,0-0.5-2-0.5-2.7
			C30.2,14.7,30.6,13.7,30.9,13.4z"/>
	</g>
	<g>
		<path class="st2" d="M30.7,13.8c0,0-0.4,0.3-0.7,0.8c-0.3,0.5-0.8,0.6-0.8,0.6l-0.6,1l0.6,0.3l-1,0.2c0,0,1.5,7.1,1.9,8.9
			c0.5,1.7,0.4,3.4,0.4,3.4s0.7-5.2,0.4-8.1C30.7,17.8,30.3,14.9,30.7,13.8z"/>
	</g>
	<g>
		<path class="st2" d="M33.7,28c0,0-1.3,0.1-3,0.2c-1.9,0.1-4.2,0.1-5.6-0.1c-0.3-0.1-0.6-0.1-0.8-0.2c-2.1-0.8-1.7-4-1.7-4
			s1.4-5.5,1.9-6.6c0.5-1.1,0.9-1.1,0.9-1.1s2,4.1,1.6,6.2c-0.1,0.3-0.2,0.8-0.4,1.4c0,0,0,0,0,0s0.9,0.4,1.9,0.7c1,0.3,0.9,0,1.5,0
			c0.1,0,0.3,0,0.6,0c1.1,0,3.1,0.2,3.1,0.2C34.1,25.4,33.7,28,33.7,28z"/>
	</g>
	<g>
		<g>
			<path class="st8" d="M27.5,24.4c0,0-0.4-1.8-0.5-1.9c-0.1-0.2-0.2-0.2-0.3,0L26.4,22c0,0-0.4-0.1-0.3,0.4c0,0-0.3-0.1-0.3,0.3
				c0,0.4,0.2,0.6,0.2,0.6s-0.3,0.1-0.1,0.8s0.2,0.9,0.2,0.9L27.5,24.4z"/>
		</g>
		<g>
			<g>
				<path class="st13" d="M26.8,22.8c-0.1-0.2-0.1-0.3-0.1-0.3h0C26.7,22.5,26.7,22.6,26.8,22.8c0,0.1,0,0.2,0.1,0.3
					c0,0.1,0.1,0.2,0.1,0.3c0,0.1,0,0.1,0.1,0.2c0,0.1,0.1,0.1,0.1,0.1c0,0.1,0.1,0.2,0.1,0.3c0,0,0,0.1,0.1,0.1c0,0,0-0.1,0-0.1
					c0,0,0,0,0,0c0-0.1-0.1-0.2-0.1-0.3c0,0,0-0.1-0.1-0.1c0-0.1,0-0.1-0.1-0.2c0-0.1-0.1-0.2-0.1-0.3
					C26.9,22.9,26.9,22.8,26.8,22.8z"/>
			</g>
			<g>
				<path class="st13" d="M26.2,22.3C26.2,22.3,26.2,22.4,26.2,22.3c0.1,0.1,0.1,0.2,0.2,0.3c0,0.1,0.1,0.2,0.1,0.3
					c0,0.1,0,0.1,0.1,0.2c0,0.1,0,0.1,0.1,0.2c0,0.1,0.1,0.2,0.1,0.3c0,0.1,0.1,0.2,0.1,0.3c0.1,0.2,0.1,0.3,0.1,0.3
					s-0.1-0.1-0.1-0.3c0-0.1-0.1-0.2-0.1-0.3c0-0.1-0.1-0.2-0.1-0.3c0-0.1,0-0.1-0.1-0.2c0-0.1,0-0.1-0.1-0.2c0-0.1-0.1-0.2-0.1-0.3
					C26.2,22.4,26.2,22.3,26.2,22.3z"/>
			</g>
			<g>
				<path class="st13" d="M26,23.3C26,23.3,26.1,23.3,26,23.3c0.1,0,0.1,0,0.1,0c0,0,0.1,0,0.1,0c0,0,0,0,0,0c0,0,0,0,0,0
					c0,0,0,0,0,0c0,0,0,0.1,0,0.1c0,0.1,0,0.2,0.1,0.2c0,0.1,0,0.2,0.1,0.2c0,0.1,0,0.1,0,0.2c0,0.1,0,0.2,0,0.2s0-0.1-0.1-0.2
					c0-0.1,0-0.1-0.1-0.2c0-0.1,0-0.2-0.1-0.2c0-0.1,0-0.2-0.1-0.2c0,0,0-0.1,0-0.1c0,0,0,0,0,0c0,0,0,0,0,0c0,0,0,0,0,0
					C26.2,23.3,26.1,23.3,26,23.3C26.1,23.3,26,23.3,26,23.3z"/>
			</g>
		</g>
	</g>
	<g>
		<g>
			<path class="st13" d="M38.9,29.4c0,0,0-0.1-0.2-0.3c-0.2-0.1-1-0.6-1.3-0.9c-0.3-0.3-0.8-0.7-1.1-0.9c-0.3-0.2-0.5-0.1-1-0.1
				c-0.1,0-0.2,0-0.3,0v1.5h0.5c0.1-0.1,0.1-0.1,0.2-0.2c0.2-0.1,0.6,0,0.7,0c0,0,1.4,0.8,1.6,0.8c0,0,0.8,0.7,1.3,0.3L38.9,29.4z"
				/>
		</g>
		<g>
			<path class="st0" d="M34.9,33.2l7.8-1.5c0,0,5.5-2.1,4.1-8.4l-11,6.2l-10.1,1.7l-0.3,4.5L34.9,33.2z"/>
		</g>
		<g>
			<path class="st8" d="M30.7,27.4c0,0,2.2,1.2,2.6,1.4c0.4,0.2,0.9,0.4,1.6,0.4c0.7,0,1.8,0.4,2.1,0.5c0.4,0.1,0.7-0.2,0.4-0.5
				c-0.3-0.4-0.7-0.5-0.7-0.5l-1.2-0.3c0,0,0.3-0.3,0.5-0.4c0.2-0.1,0.6,0,0.7,0c0,0,1.1,0.8,1.5,1c0,0,0.8,1,1.4,0.3l-0.4-0.3
				c0,0-0.1-0.1-0.3-0.2s-0.9-0.7-1.3-1c-0.3-0.3-0.8-0.8-1.1-1c-0.3-0.2-0.4-0.1-1-0.1c-0.5,0-1.6,0-2-0.1
				c-0.4-0.1-1.6-0.5-1.6-0.5l-1.5,0.3L30.7,27.4z"/>
		</g>
		<g>
			<path class="st2" d="M12.5,48l0.4-1.4c0,0.6,0.1,1.1,0.1,1.4h7.7c0.1-0.4,0.2-1.5,0-3.1c-0.3-2.1-2.1-7.2-2.1-7.2l0.3-2l-6.6,0.2
				c0,0-6.8,2.2-7.5,5.1c-0.6,2.6-0.1,6.3,0,7.1H12.5z"/>
		</g>
		<g>
			<path class="st2" d="M12.5,48l0.4-1.4c0,0.6,0.1,1.1,0.1,1.4h7.7c0.1-0.4,0.2-1.5,0-3.1c-0.3-2.1-2.3-9.7-2.3-9.7l-6.1,0.6
				c0,0-6.8,2.2-7.5,5.1c-0.6,2.6-0.1,6.3,0,7.1H12.5z"/>
		</g>
		<g>
			<path class="st11" d="M17.2,14.1c0,0,1.1,1,1.5,2s0.3,1.5,0.5,1.7c0.2,0.3,0.5,0.4,0.6,0.7s1.4,2.3,1.4,2.3s1.2,0.5,1.4,0.9
				s0.2,0.6,0.2,0.6s0.3-0.1,0.6,0.1c0.3,0.2,0.5,0.2,0.8,0.4c0.4,0.1,0.4,0,0.5,0.3c0.2,0.2,2.9,1.5,3.8,1.8
				c0.9,0.3,3.5,1.2,3.5,1.2s-1.2,0.2-0.9,4.2c0,0-1.6-0.6-3-1.2c-1.5-0.6-2.9-0.8-3.8-1.3c-0.8-0.5-1.6-0.9-3-1.4
				c-1.3-0.5-2.2-1.1-2.2-1.1S16.8,14.6,17.2,14.1z"/>
		</g>
		<g>
			<path class="st11" d="M19.8,39.8l-0.2-0.1c-0.6-2.4-1.2-4.6-1.2-4.6l-0.4,0c0.6-2.3,0.4-6.6,0-8.6c-0.6-3.8-1.3-7.8-2.3-9.5
				c-1-1.7-2.1-3.7-2.1-3.7s2.7,0,3.6,0.7c0,0,1.2,1.3,1.7,3.5c0.5,2.1,0.5,6.8,0.5,7.5c0,0.7,0.2,5.8,0.5,7.2
				c0.2,1.1,0.6,5.1,0.8,6.9C20.7,39.6,20.3,39.9,19.8,39.8z"/>
		</g>
		<g>
			<g>
				<path class="st8" d="M18.8,7.5c0,0-0.5,0.8-0.6,0.9c0,0,0,0.2,0.2,0.6s0.4,0.9,0.4,0.9s0.1,0.4-0.3,0.5
					c-0.4,0.1-0.6,0.3-0.6,0.4s0.3,0.4,0,0.6c0,0,0.2,0.2,0,0.5s-0.6,0.4-0.6,0.9c-0.1,0.4-0.2,1-1.5,0.9s-1.7,0.1-1.9,0.5
					s-0.5,1.8-0.1,3.3s0.4,1.5,0.4,1.5l-5.3-6.2c0,0,1-1.3,1.2-2.4c0.2-1.1,0.8-5.1,0.8-5.1L18.8,7.5z"/>
			</g>
			<g>
				<path class="st3" d="M17,20.8c-0.1-0.2,0-0.5,0-0.7c-0.7-1.4-1.3-2.7-1.6-4.2c0-0.1,0-0.1,0-0.2L14.8,15l-1.2,1.8
					c0,0-0.2-0.4-0.7-0.6c-0.4-0.2-2.9-2.1-2.9-2.1l-1.8,0.1L12,36.4c0,0,0,0,2.8,0c2.8,0,3.8-0.9,3.8-0.9S18.7,26.9,17,20.8z"/>
			</g>
			<g>
				<path class="st2" d="M19.9,32.2c0,0-1.1-4.9-1.8-6.5c-0.7-1.7-1.7-6.6-2.3-7.7s-1.9-3.3-1.9-3.3l0.2-0.8c0.1,0,0.2-0.1,0.3-0.1
					c0.6,1.2,3,5.8,4.1,10.1C19.8,28.7,19.9,32.2,19.9,32.2z"/>
			</g>
			<g>
				<path class="st11" d="M8.5,12.5c0,0-0.6,0.6-1.4,1s-1.1,0.3-1.8,0.7S2.4,16,1.9,17.1c0,0,1-1.3,2.2-0.8c1.3,0.5,3.5,5.4,3.7,6.9
					S3.8,35.2,2.7,38.7c-1.1,3.5-0.8,6.1,0.3,6.8s5.8,4.1,8.4,1.2s3.5-14.5,3.5-14.5s0.2-5.2-1.3-8.5S8.5,12.5,8.5,12.5z"/>
			</g>
			<g>
				<path class="st5" d="M8.8,12.1l0.6-0.5c0,0,0.7,1.8,1.5,2.6c0.8,0.8,2.1,1.9,2.1,1.9s-0.5,0.1-1-0.1L11,17.1
					C11,17.1,8.7,12.3,8.8,12.1z"/>
			</g>
			<g>
				<path class="st11" d="M9.8,10.8c0,0,1.3-0.5,2.1-2.3c0.7-1.8,1.8-0.8,2.1-0.5c0.3,0.4,0.4,1.4,0.2,1.9l0.8,0c0,0,0-2.1,0.7-2.6
					c0.7-0.5,3,0.5,3,0.5s0.8-0.3,0.5-1C18.9,6.1,12,3.6,11.1,4c-0.9,0.5-2,1.4-1.8,2.2s0.6,2.4,0.6,3.2C9.9,10.3,9.7,10.6,9.8,10.8
					z"/>
			</g>
			<g>
				
					<ellipse transform="matrix(0.9994 -3.374933e-002 3.374933e-002 0.9994 -0.2753 0.4454)" class="st8" cx="13.1" cy="8.4" rx="1" ry="1.5"/>
			</g>
			<g>
				<path class="st7" d="M8.3,4.9L8.2,4.4c0,0,0.7-3.9,4.7-4.3s6.3,3.2,6.3,5.8c0,0-0.4,0.7-0.4,0.8C18.7,6.7,11.6,7.5,8.3,4.9z"/>
			</g>
			<g>
				<path class="st4" d="M8.2,4.4c0,0,5.1,2.1,9,1.9c0,0,1.6,0,2-0.5c0,0-0.1,0.2,0,0.5c0.1,0.3,1.5,1.1,1.5,1.3
					c0,0.3-0.6,0.7-1.7,0.4c-1.1-0.3-2.4-0.2-3.5-0.4c-1-0.2-5.2-0.9-7.3-1.8C7.9,5.8,7.8,5.4,7.9,5.2C8,4.9,8.1,4.7,8.2,4.4z"/>
			</g>
		</g>
		<g>
			<path class="st2" d="M14.5,26.8c-0.6-1.8-1.8-6.7-2.8-9.4c-1-2.7-2.3-4.4-2.3-4.9C9.3,12,9.7,11,9.7,11c0,0-1.1,1.4-1.5,1.8
				c0,0,0,0,0,0.1c-0.2,0.3-0.3,0.6-0.2,1c0.2,0.6,0.5,1.2,0.5,1.2l1.4,0.8l-0.9,0.8c0,0,0.1,0.1,1.3,1.6c1.2,1.5,3.2,6.5,4,8.3
				c0.8,1.8,0.7,5.6,0.7,5.6S15.1,28.6,14.5,26.8z"/>
		</g>
		<g>
			<path class="st5" d="M14.3,13.8c0,0,0.9,1.5,0.9,1.8c0,0.3-0.7,0.8-0.7,0.8s-0.5,0.4-0.6,0.9s0.1,1.5,0.1,1.5
				c-0.2-0.9-0.4-1.5-0.5-2.3C13.6,16.5,13.3,14.1,14.3,13.8z"/>
		</g>
		<g>
			<path class="st5" d="M14.3,13.8c0,0,0.9,1.5,0.9,1.8c0,0.3-0.7,0.8-0.7,0.8s-0.5,0.4-0.6,0.9s0.1,1.5,0.1,1.5
				c-0.2-0.9-0.4-1.5-0.5-2.3C13.6,16.5,13.3,14.1,14.3,13.8z"/>
		</g>
		<path class="st13" d="M14.9,13.7c0,0-1.7-0.9-2.3-2.7c0,0,0.2,1.8,1.3,3.2c0,0,0-0.1,0-0.1C14,13.9,14.2,13.8,14.9,13.7L14.9,13.7
			z"/>
		<g>
			<path class="st5" d="M6.7,42.1l11.2-2.6l13.5-12.1c0,0,4.8,5.8,11.3,4.3L13.7,44.6C13.7,44.6,10.1,45.6,6.7,42.1z"/>
		</g>
		<g>
			<g>
				<g>
					<g>
						<path class="st8" d="M12.1,35.1l1.8,1.1c0,0,0.8,0.2,1.4,0.4c0.4,0.1,0.9,0.5,1.2,0.7c0.1,0.1,0.2,0.2,0.2,0.4l0.1,0.6
							c0,0,0.9,0.7,1.2,1c0.3,0.3,0.7,0.3,0.6,0.8c0,0,0.2,0.1,0.2,0.4c0,0.3-0.4,0.5-0.4,0.5s-0.2,0.3-0.6,0.4
							c-0.4,0.1-1.3,0.2-1.3,0.2s-0.3,0.2-0.9,0.3s-1.2-0.1-1.7-0.2c-0.6-0.1-1.3-0.4-1.4-0.7s-0.4-0.7-0.5-1
							c-0.1-0.3-0.1-0.7-0.1-0.7s-0.4-0.5-0.7-0.7S9,37,9,37S11,34.3,12.1,35.1z"/>
					</g>
					<g>
						<path class="st13" d="M18.7,40.2c0,0-0.1,0.2-0.2,0.3c-0.1,0.1-0.4,0.2-0.6,0.1c-0.2-0.1-1-0.6-1.3-0.7
							c-0.3-0.2-0.7-0.6-1-0.7C15.4,39,15,38.9,15,38.9s0.2,0.3,0.4,0.4c0.2,0.1,0.7,0.3,1,0.5c0.3,0.2,0.8,0.5,1,0.6
							c0.2,0.1,0.5,0.3,0.8,0.3C18.5,40.7,18.6,40.4,18.7,40.2z"/>
					</g>
					<g>
						<path class="st13" d="M18.5,41.1c0,0-0.1,0.1-0.5,0.2c-0.3,0.1-0.9,0-1.1,0c-0.2,0-0.4,0.1-0.7-0.1c-0.3-0.1-1.3-0.8-1.4-0.9
							c-0.1-0.1-0.6-0.2-0.6-0.2s0.3,0.2,0.7,0.4c0.4,0.2,0.9,0.5,1.1,0.6c0.2,0.1,0.4,0.3,0.8,0.3C17.2,41.3,18.1,41.5,18.5,41.1z"
							/>
					</g>
					<path class="st13" d="M15.8,41.7c-0.5-0.2-1.2-0.5-1.4-0.6c-0.3-0.1-0.8-0.3-0.7-0.2s0.9,0.5,1.2,0.6c0.3,0.1,1,0.5,1.5,0.3
						c0.1,0,0.1-0.1,0.1-0.1C16.5,41.8,16.3,41.9,15.8,41.7z"/>
				</g>
				<g>
					<path class="st13" d="M15.3,36.9C15.3,36.9,15.4,36.9,15.3,36.9c0.1,0.1,0.1,0.1,0.1,0.2c0,0,0,0.1,0.1,0.1
						c0,0.1,0.1,0.2,0.2,0.3c0,0,0.1,0.1,0.1,0.1c0,0,0.1,0.1,0.2,0.1c0.1,0.1,0.2,0.2,0.3,0.2c0.1,0.1,0.2,0.1,0.3,0.2
						c0.1,0.1,0.2,0.1,0.2,0.1c0,0,0.1,0.1,0.1,0.1s0,0-0.1,0c-0.1,0-0.1-0.1-0.2-0.1c-0.1-0.1-0.2-0.1-0.3-0.2
						c-0.1,0-0.1-0.1-0.2-0.1c-0.1,0-0.1-0.1-0.2-0.1c-0.1,0-0.1-0.1-0.2-0.1c-0.1,0-0.1-0.1-0.1-0.1c-0.1-0.1-0.1-0.2-0.2-0.3
						c0-0.1,0-0.1,0-0.1C15.4,37,15.4,37,15.3,36.9C15.3,36.9,15.3,36.9,15.3,36.9z"/>
				</g>
			</g>
			<g>
				<path class="st2" d="M12.7,35.4c0,0-1.1,0.2-1.8,1.4c-0.6,1.3-0.7,3.2-0.7,3.2S7,38.5,6.4,37.8c-0.3-0.4-1.5-1.6-2.4-2.8
					c-0.7-0.9-1.4-1.8-1.6-2.3C2,31.6,2,29.1,2.1,28.6c0.1-0.4-0.7-3.2-1-4.2c-0.3-1,0.3-3.7,0.3-3.7s-0.1-2.5,0.5-3.6l0,0
					c0,0,1-1.3,2.2-0.8c1.3,0.5,3.5,5.4,3.7,6.9c0.2,0.8-0.2,1.3-0.2,2.4c0,1.1-0.6,2.1-0.3,3.1c0.3,1.1,0,1.6,0.3,2.1
					c0.2,0.4,1.7,1.9,2.5,2.4C10.8,33.7,12.7,35.4,12.7,35.4z"/>
			</g>
		</g>
	</g>
</g>
</svg>
