<?xml version="1.0" encoding="utf-8"?>
<!-- Generator: Adobe Illustrator 18.0.0, SVG Export Plug-In . SVG Version: 6.00 Build 0)  -->
<!DOCTYPE svg PUBLIC "-//W3C//DTD SVG 1.1//EN" "http://www.w3.org/Graphics/SVG/1.1/DTD/svg11.dtd">
<svg version="1.1" id="Layer_1" xmlns="http://www.w3.org/2000/svg" xmlns:xlink="http://www.w3.org/1999/xlink" x="0px" y="0px"
	 viewBox="0 0 48 48" enable-background="new 0 0 48 48" xml:space="preserve">
<g>
	<g>
		<g>
			<g>
				<path fill="#2F4454" d="M30.5,20.2c0,0,2.4,0.9,1,1.6c-1.4,0.7-1.4,0.7-1.4,0.7l-1.1-1.5l0.6-1L30.5,20.2z"/>
			</g>
		</g>
	</g>
	<g>
		<g>
			<g>
				<g>
					<g>
						<path fill="#344A5E" d="M22.6,45.7l-0.9-0.6c0,0-0.2-0.7,0.2-1.2c0.4-0.4,2.6-0.5,2.6-0.5l0.9,0.2c0,0,1.2,1.1,1.7,1.2
							c0.5,0.1,1.4-0.1,1.1,0.6L28,45.6l-2.2,0.5c0,0-1.4,0.1-1.7,0c-0.3-0.1-0.9-0.4-0.9-0.4L22.6,45.7z"/>
					</g>
				</g>
			</g>
			<g>
				<g>
					<g>
						<path fill="#425A6B" d="M21.8,45.1c0,0,0.9,0.4,1.2,0.4c0.3,0,0.7,0.5,1.1,0.6c0.4,0,2.7-0.1,3.4-0.4s0.7-0.3,0.7-0.3
							s0.2,0.1-0.2,0.3c-0.4,0.2-2.1,0.5-3,0.6c-0.9,0-1.5-0.4-1.6-0.4L22.9,46c0,0-0.9,0-1-0.2C21.7,45.6,21.8,45.1,21.8,45.1z"/>
					</g>
				</g>
			</g>
		</g>
		<g>
			<g>
				<g>
					<g>
						<path fill="#344A5E" d="M26.4,47.2l-0.9-0.7c0,0-0.2-0.8,0.2-1.2c0.4-0.4,2.6-0.3,2.6-0.3l0.9,0.2c0,0,1.2,1.2,1.6,1.4
							c0.5,0.2,1.4,0,1.1,0.6l-0.1,0.3l-2.2,0.3c0,0-1.4,0-1.7-0.1c-0.3-0.1-0.9-0.4-0.9-0.4L26.4,47.2z"/>
					</g>
				</g>
			</g>
			<g>
				<g>
					<g>
						<path fill="#425A6B" d="M25.6,46.5c0,0,0.9,0.4,1.2,0.5c0.3,0.1,0.7,0.6,1.1,0.6c0.4,0.1,2.7,0.2,3.4-0.1
							c0.7-0.2,0.7-0.2,0.7-0.2s0.2,0.2-0.2,0.3c-0.4,0.2-2.1,0.3-3,0.3c-0.9,0-1.5-0.5-1.6-0.6l-0.4,0.1c0,0-0.9-0.1-1-0.3
							C25.5,47.1,25.6,46.5,25.6,46.5z"/>
					</g>
				</g>
			</g>
		</g>
		<g>
			<g>
				<g>
					<g>
						<path fill="#425A6B" d="M21.6,44.6c0,0,2.3,0.5,4.2-0.4v-6.1c0,0,2.9-7.1,3.1-8c0.2-0.9,0.9-8.9,0.2-10.5
							c-0.7-1.7-1.8-0.3-1.8-0.3l-5,1L21,22.5l4.4,3.1l-1.8,3.7c0,0-0.2,1.4-0.3,2.3c-0.1,0.9-0.5,2.4-0.7,3.1
							c-0.2,0.7-0.6,3.7-0.6,5.8C22,42.5,21.6,44.6,21.6,44.6z"/>
					</g>
				</g>
			</g>
			<g>
				<g>
					<path fill="#344A5E" d="M29,29.8c-0.3-0.5-0.6-0.9-0.6-0.9c-1.1-0.5-2.3-1.2-3.5-2.3l-1.3,2.6c0,0-0.1,0.7-0.2,1.3
						c0.4,0.6,0.7,0.9,0.9,1.2c0.4,0.6,0.4,0.7,0.4,0.7c0,0,0.4,1.5,0.3,1.9c-0.2,0.4-0.5,1.6-0.5,2.3c0,0.3,0.1,2.3,0.2,4.2
						c0.1,1.5,1.1,3.2,1.1,3.7c0.3-0.1-0.4-0.4-0.1-0.5v-6.1c0,0,2.9-7.1,3.1-8C28.9,30.1,29,30,29,29.8z"/>
				</g>
			</g>
			<g>
				<g>
					<g>
						<path fill="#344A5E" d="M28.9,30.2c0,0.1-0.1,0.2-0.1,0.3L27.4,27c0,0,0-0.3,0-0.4c0.1-0.1-0.1-0.2-0.1-0.2s-0.1-0.5-0.4-0.5
							c0,0-0.6-0.4-0.2-0.3c0.4,0.1,0.6,0.1,0.6,0.3c0.1,0.2,0.2,0.7,0.4,0.3c0.2-0.4,0.2-0.4,0.2-0.4s0,0.6-0.2,0.8
							c-0.2,0.2-0.3,0.3-0.3,0.3S28.6,29.4,28.9,30.2z"/>
					</g>
				</g>
			</g>
		</g>
		<g>
			<g>
				<g>
					<g>
						<g>
							<path fill="#FFD15C" d="M18.8,2.2c0,0-0.2,0.4-0.2,0.4c0,0,0.2,0.2,0.3,0.3c0,0.1-0.2,0.4-0.3,0.5c-0.1,0.1-0.4,0.5-0.5,0.5
								c-0.1,0-0.4-0.1-0.5-0.1c-0.1,0-0.4,0-0.6,0c-0.2,0.1-0.5,0.8-0.5,0.8l-2.2,0.4c0,0,0.8-1.5,0.9-1.6c0-0.1,0.5-0.7,0.6-1
								c0.1-0.3,0.2-0.7,0.5-1c0.3-0.3,0.4-0.3,0.6-0.4c0.2,0,0.5,0,0.5,0.1c0,0,0.4,0,0.5,0.3c0,0,0.3-0.1,0.5,0.2
								c0,0,0.2-0.1,0.3,0C18.7,1.8,18.8,2.1,18.8,2.2z"/>
						</g>
					</g>
				</g>
				<g>
					<g>
						<g>
							<path fill="#F5B54C" d="M18.1,3.5C18,3.4,17.9,3.2,18,3.1C18,3,18,3,18,3s-0.1-0.1-0.1-0.1c0-0.1-0.1-0.1-0.2-0.2
								c0,0,0,0,0,0c0,0,0,0-0.1,0c-0.1,0-0.3,0-0.3-0.1c0,0,0,0,0,0c0,0,0,0-0.1,0c-0.1,0-0.2,0-0.3-0.1c0-0.1-0.1-0.1-0.1-0.2
								c0,0,0,0-0.1,0c0,0-0.1,0-0.1-0.1c0,0-0.1-0.1-0.1-0.2c0-0.1,0-0.2,0-0.4c0-0.1,0-0.1-0.1-0.2c0.1,0,0.1,0.1,0.1,0.2
								c0,0.1,0,0.1,0,0.2c0,0,0,0.1,0,0.1c0,0.1,0.1,0.1,0.1,0.1c0,0,0.1,0.1,0.1,0.1c0.1,0,0.1,0,0.2-0.1C17,2,17,1.9,17,1.9
								c0-0.1,0-0.2,0.1-0.2c0,0.2-0.1,0.4-0.2,0.5c0,0,0,0,0,0c0,0,0,0.1,0,0.1c0,0,0.1,0.1,0.1,0.1c0,0,0.1,0,0.1,0
								c0.1,0,0.1-0.1,0.2-0.2c0,0,0,0.1,0,0.2c0,0,0,0.1,0.1,0.1c0,0,0.1,0,0.2,0.1c0.1,0,0.1,0,0.2,0c0,0,0.1-0.1,0.1-0.1
								c0,0.1,0,0.2,0,0.3c0,0,0,0.1,0.1,0.1c0.1,0.1,0.2,0.4,0.5,0.3c-0.1,0-0.3,0-0.3-0.1C18,3.2,18,3.4,18.1,3.5"/>
						</g>
					</g>
				</g>
				<g>
					<g>
						<path fill="#F5B54C" d="M18.5,2.5c0,0-0.1-0.2-0.2-0.3c-0.1-0.1-0.2,0-0.3,0.1c0,0.1-0.1,0.3,0,0.6l0,0c0,0-0.2-0.2-0.1-0.5
							c0.1-0.3,0.3-0.3,0.4-0.2C18.4,2.3,18.5,2.4,18.5,2.5z"/>
					</g>
				</g>
				<g>
					<g>
						<g>
							<path fill="#FFFFFF" d="M18.4,2.6c0,0,0,0.2-0.1,0.2c-0.1,0-0.2-0.2-0.2-0.2c0,0,0-0.2,0.1-0.2C18.3,2.3,18.3,2.3,18.4,2.6z"
								/>
						</g>
					</g>
				</g>
			</g>
			<g>
				<g>
					<g>
						<path fill="#425A6B" d="M14.7,3.8c0,0-0.4,0.1-0.1,0.2c0.3,0.1,1.8,0.6,1.9,0.6c0,0-0.2,0.9-0.5,1.3c-0.3,0.4-0.6,1.6-0.7,1.7
							c0,0.1,0,0.1,0,0.1s0.2,0,0.6,0c0.4,0,1.5,0.1,1.5,0.1c0.1,0,0.5-1.4,1.4-1c0.9,0.4,1.1,0.8,1.1,0.8l-0.4,4.6L18.3,12
							c0,0-1.7-0.3-2.8-0.7c-1.1-0.3-2.1-0.7-2.6-1c-0.4-0.3-1-0.8-0.7-1.6C12.5,8,12.6,7.3,12.8,7c0,0,0.2-0.6,0.6-1.1
							c0.3-0.5,0.6-0.8,0.7-1.2S14.1,3.8,14.7,3.8z"/>
					</g>
				</g>
			</g>
			<g>
				<g>
					<g>
						<path fill="#344A5E" d="M32.9,2.2c0,0-2.5,0.4-2.1,0.9c0.3,0.4,1.5,0.3,1.6,0.2c0.1,0,1.7-0.9,1.7-0.9L34,2.1
							C34,2.1,33.3,2.1,32.9,2.2z"/>
					</g>
				</g>
			</g>
			<g>
				<g>
					<g>
						<g>
							<path fill="#FFD15C" d="M28.6,1.5c0,0,0.3,0.3,0.3,0.4c0,0-0.2,0.3-0.2,0.4c0,0.1,0.3,0.3,0.4,0.4C29.3,2.7,29.6,3,29.8,3
								c0.1,0,0.4-0.2,0.5-0.2c0.1,0,0.4-0.1,0.6-0.1c0.2,0,0.6,0.6,0.6,0.6l2.2-0.1c0,0-1.2-1.2-1.2-1.3c-0.1-0.1-0.6-0.6-0.8-0.8
								c-0.2-0.2-0.3-0.6-0.7-0.8C30.6,0,30.5,0,30.3,0c-0.2,0-0.4,0.2-0.5,0.2c0,0-0.4,0.1-0.4,0.4c0,0-0.3-0.1-0.4,0.3
								c0,0-0.2-0.1-0.3,0.1C28.5,1.1,28.6,1.5,28.6,1.5z"/>
						</g>
					</g>
				</g>
				<g>
					<g>
						<g>
							<path fill="#F5B54C" d="M29.5,2.6c0.1-0.1,0.2-0.3,0.1-0.4c0,0-0.1-0.1-0.1-0.1s0-0.1,0-0.1c0-0.1,0.1-0.1,0.1-0.2
								c0,0,0,0,0,0c0,0,0,0,0.1,0c0.1,0,0.3-0.1,0.3-0.2c0,0,0,0,0-0.1c0,0,0,0,0.1,0c0.1,0,0.2-0.1,0.3-0.2c0-0.1,0-0.1,0.1-0.2
								c0,0,0,0,0.1,0c0,0,0.1-0.1,0.1-0.1c0-0.1,0.1-0.1,0.1-0.2c0-0.1-0.1-0.2-0.1-0.3c0-0.1,0-0.1,0-0.2c-0.1,0-0.1,0.1-0.1,0.2
								c0,0.1,0,0.1,0.1,0.2c0,0,0,0.1,0,0.1c0,0.1,0,0.1-0.1,0.2c0,0-0.1,0.1-0.1,0.1c-0.1,0-0.1,0-0.2-0.1
								c-0.1-0.1-0.1-0.1-0.2-0.2c0-0.1-0.1-0.1-0.1-0.2c0.1,0.2,0.2,0.4,0.3,0.5c0,0,0,0,0,0c0,0,0,0.1,0,0.1c0,0-0.1,0.1-0.1,0.1
								c0,0-0.1,0-0.1,0c-0.1,0-0.1-0.1-0.2-0.1c0.1,0,0.1,0.1,0.1,0.2c0,0.1,0,0.1-0.1,0.1c0,0-0.1,0.1-0.2,0.1c-0.1,0-0.1,0-0.2,0
								c0,0-0.1-0.1-0.1-0.1c0,0.1,0.1,0.2,0.1,0.3c0,0,0,0.1,0,0.1c-0.1,0.1-0.1,0.4-0.4,0.4c0.1,0,0.3-0.1,0.3-0.2
								C29.6,2.2,29.6,2.5,29.5,2.6"/>
						</g>
					</g>
				</g>
				<g>
					<g>
						<path fill="#F5B54C" d="M28.9,1.7c0,0,0-0.2,0.1-0.3c0.1-0.1,0.2,0,0.3,0c0,0.1,0.2,0.3,0.1,0.6l0,0c0,0,0.1-0.3-0.1-0.5
							c-0.2-0.3-0.4-0.2-0.4-0.1C29,1.5,28.9,1.7,28.9,1.7z"/>
					</g>
				</g>
				<g>
					<g>
						<g>
							<path fill="#FFFFFF" d="M29,1.8c0,0,0,0.2,0.1,0.1c0.1,0,0.1-0.2,0.1-0.2c0,0-0.1-0.2-0.2-0.2C29.1,1.5,29.1,1.5,29,1.8z"/>
						</g>
					</g>
				</g>
			</g>
			<g>
				<g>
					<g>
						<path fill="#425A6B" d="M28.7,6.5c0,0,0.3-0.1,0.7-0.1c0.4,0,0.6,0.3,0.9,0.2c0.3-0.1,1.2-0.7,1.7-0.6c0.5,0,0.5,0,0.5,0
							s-0.4-0.7-0.7-1.2c-0.2-0.5-1.1-1.6-1.1-1.6s1.5-0.3,2.1-0.6c0.6-0.2,1.2-0.4,0.8-0.4c-0.4,0-0.8,0.1-0.8,0.1S33.7,2,34,2
							c0.3,0,0.7,1.7,0.9,2c0.1,0.3,0.5,1.7,0.8,2.1C36,6.6,35.8,6.8,35.6,7c-0.2,0.2-2.9,2.2-3.6,2.6c-0.7,0.4-2.3,1.2-2.3,1.2
							l-1.4-4L28.7,6.5z"/>
					</g>
				</g>
			</g>
			<g>
				<g>
					<g>
						<path fill="#F5B54C" d="M21.1,4.4l0.3,0.5c0,0,0.2,0.6,0.3,1c0.1,0.4,0.4,1,0.4,1L24,8l2.7,0.5l0.8-1.2l-1.9-1
							c0,0-0.4-1.1-0.4-1.2c0-0.1,0.2-0.4,0.2-0.4l0-1.2L23.2,3L21.1,4.4z"/>
					</g>
				</g>
			</g>
			<g>
				<g>
					<g>
						<path fill="#E8EAE8" d="M25.5,6.3l-0.1-0.1l2,0.3l0.7,0.4L28,8.5c0,0-1.1,1.9-1.1,1.9c0,0.1-0.4,0.7-0.4,0.7l-1-0.8l-2.3-2.5
							l-1.1-1L23.5,7l1,0.2l0.8,0l0.3-0.3L25.5,6.3z"/>
					</g>
				</g>
			</g>
			<g>
				<g>
					<g>
						<path fill="#344A5E" d="M25.6,6.7C25.6,6.7,25.6,6.7,25.6,6.7c0.3,0.1,0.9,0.5,1.1,1.1C26.9,8.5,27.3,9,27.3,9S28,7.5,28,7.4
							c0,0,0.1-0.3,0-0.4c-0.1-0.2-0.9-0.5-0.9-0.5l-1.7-0.3L25.6,6.7"/>
					</g>
				</g>
			</g>
			<g>
				<g>
					<g>
						<path fill="#F05640" d="M23.3,7.4c0,0,0.7,0.1,1.1,0.2c0.4,0.1,1.1,0.4,1.2,0.6c0.1,0.1-0.1,1.5-0.1,2c0,0.5,0.1,1.3,0.1,1.3
							c0,0,0.8,0.7,0.8,0.7s1.3-0.1,1.3-0.1c0,0-0.1-2.3-0.1-2.3S26.3,8.2,26.2,8c-0.2-0.1-0.6-0.9-0.6-0.9l-0.3,0l-0.8,0L23.7,7
							L23.3,7.4z"/>
					</g>
				</g>
			</g>
			<g>
				<g>
					<g>
						<path fill="#344A5E" d="M26.9,6.5c0,0,0.2-0.2,0.4-0.3c0.2-0.1,0.9-0.1,1.2,0.1c0.3,0.2,0.7,0.9,1,1.6
							c0.3,0.6,0.7,1.4,0.6,1.8c-0.1,0.4-0.3,0.8-0.3,0.9s-0.4,1.2-0.2,2.2s1.1,4.2,1.2,4.4c0.1,0.2,1.3,3.9,1.1,4.2
							c-0.2,0.3-0.4,0.3-0.4,0.3s0.4-0.2,0.3-0.4c-0.1-0.2-0.7-0.2-0.9-0.2s-1.8,0.2-2.3-0.2c-0.4-0.4-0.6-0.8-0.6-0.8
							s0.1,1.2-1.4,1.5c-1.5,0.3-5.2,1.3-5.6,1.7c-0.4,0.4-0.4,0.4-0.4,0.4s0.3-1.5,0.4-2c0.1-0.5,0-2.4,0-2.7c0-0.3,0-2.9,0-3.4
							c0-0.4-0.8-2-1.3-2.6c-0.4-0.6-0.7-0.8-0.7-0.8L18.3,12c0,0,1.2-2.2,1.2-3.2c-0.1-1-0.6-1.9-0.6-1.9L20.7,7
							c0,0,0.2-0.4,0.8-0.2C22.2,6.9,22.2,7,22.2,7l2.4,2.2l1.7,1.9l0.4-0.7l1.3-3.2C27.8,6.6,27.4,6.4,26.9,6.5z"/>
					</g>
				</g>
			</g>
			<g>
				<g>
					<g>
						<path fill="#F26F5A" d="M24.2,7.6c0,0,0.2-0.3,0.3-0.4c0.1-0.1,1.1-0.1,1.3,0c0,0,0.2,0.7,0.4,0.9c0,0-0.5,0.1-0.6,0.3
							C25.6,8.3,25.1,7.8,24.2,7.6z"/>
					</g>
				</g>
			</g>
			<g>
				<g>
					<g>
						<path fill="#FFD15C" d="M21.3,4.4c0,0,0.9,0.9,2.6,0.2c1.7-0.7,1.4,0.3,1.4,0.3s0.4-0.4,0.3-0.9c0-0.6-0.2-1.3-0.3-1.4
							c-0.1-0.1-0.6-0.4-0.6-0.4c0,0-0.1-0.2-0.1-0.4c0-0.2-0.8-0.8-1.1-0.9c-0.3-0.1-1.2-0.2-1.2-0.2l-1.2,0.6l-0.5,1
							C20.7,2.2,20.8,4.1,21.3,4.4z"/>
					</g>
				</g>
			</g>
			<g>
				<g>
					<g>
						<path fill="#425A6B" d="M23.9,0.9c0,0-0.7-0.3-1.1-0.2c-0.4,0.1-1.1,0.3-1.3,0.5c-0.2,0.3-0.1,0.6,0,0.6
							c0.1,0.1-0.1,0.7-0.1,1c0,0.3,0.4,0.8,0.4,0.8l-0.2,0.3c0,0-1.3-0.3-0.9,0.2c0.1,0.1,0.6,0.4,0.6,0.4c0.3,0.5,0.4,1,0.5,1.6
							c0,0-1.3-0.8-1.5-1.7c-0.3-1.4,0-2.7,1.2-3.6C22.6-0.1,23.6,0.5,23.9,0.9z"/>
					</g>
				</g>
			</g>
			<g>
				<g>
					<g>
						<path fill="#FFD15C" d="M21.4,3.8c0.3,0.2,0.5,0.5,0.3,0.7c-0.1,0.2-0.5,0.2-0.8,0c-0.3-0.2-0.5-0.5-0.3-0.7
							C20.7,3.6,21.1,3.6,21.4,3.8z"/>
					</g>
				</g>
			</g>
			<g>
				<g>
					<g>
						<path fill="#FFFFFF" d="M25.5,6.3c0,0,0.1,0.4-0.2,0.8c0,0,0.5,0,0.7,0.2C26.3,7.5,26.4,8,26.4,8s0-0.3-0.1-0.5
							C26.3,7.4,25.5,6.3,25.5,6.3z"/>
					</g>
				</g>
			</g>
			<g>
				<g>
					<g>
						<path fill="#FFFFFF" d="M24.5,7.2c0,0-0.1,0-0.3,0c-0.2,0.1-0.7,0.6-0.7,0.6L22.7,7C22.7,7,23.7,6.5,24.5,7.2z"/>
					</g>
				</g>
			</g>
			<g>
				<g>
					<g>
						<path fill="#425A6B" d="M20.7,7c0,0,0.2-0.3,0.5-0.2c0.3,0.1,0.7,0.5,0.8,0.6c0.1,0.1,2,2.2,2.3,2.4c0.3,0.2,2,1.3,2.1,1.4
							c0.1,0.1,0.2,0.3,0.2,0.3s0-0.3-0.4-0.6c-0.4-0.3-1.2-1.6-1.4-1.8c-0.2-0.2-1.1-1.7-1.2-2c-0.1-0.3-0.2-0.5-0.5-0.5
							c-0.3-0.1-1.6,0.1-1.6,0.1S21,6.6,20.7,7z"/>
					</g>
				</g>
			</g>
			<g>
				<g>
					<g>
						<path fill="#425A6B" d="M26.4,11c0.1,0,0.1,0.1,0.2,0.2c0.2-0.2,0.4-0.4,0.5-0.6c0.2-0.3,1.2-2,1.4-2.7
							c0.1-0.8,0.1-1.1-0.2-1.3c-0.3-0.2-1.1,0-1.4-0.1c-0.3-0.1-1.4-0.2-1.4-0.2s1.3,0.4,1.7,0.6c0.3,0.3,0.4,0.7,0.3,0.9
							C27.1,8.9,26.8,10,26.4,11z"/>
					</g>
				</g>
			</g>
			<g>
				<g>
					<g>
						<path fill="#425A6B" d="M26.6,11.2C26.6,11.2,26.6,11.3,26.6,11.2c0,0.2,0.1,0.3,0.1,0.4c0,0.1,0.1,0.3,0.1,0.4
							c0,0.2,0.1,0.4,0.1,0.6c0,0.2,0.1,0.4,0.1,0.7c0,0.2,0.1,0.5,0.1,0.7c0,0.1,0,0.3,0.1,0.4c0,0.1,0.1,0.3,0.1,0.4
							c0,0.3,0.1,0.6,0.1,0.8c0,0.3,0.1,0.6,0.1,0.8c0,0.1,0,0.3,0.1,0.4c0,0.1,0,0.3,0.1,0.4c0,0.3,0.1,0.5,0.1,0.8
							c0,0.2,0.1,0.5,0.1,0.7c0,0.2,0,0.4,0,0.6c0,0.2,0,0.3,0,0.4c0,0.1,0,0.2,0,0.3c0,0.1,0,0.1,0,0.1s0,0,0-0.1
							c0-0.1,0-0.2,0-0.3c0-0.1,0-0.3-0.1-0.4c0,0,0-0.1,0-0.1c0,0,0-0.1,0-0.1c0-0.1,0-0.2,0-0.3c0-0.1,0-0.2-0.1-0.3
							c0-0.1,0-0.2-0.1-0.3c0-0.1,0-0.2-0.1-0.4c0-0.1,0-0.3-0.1-0.4c0-0.3-0.1-0.5-0.1-0.8c0-0.3-0.1-0.6-0.1-0.8
							c0-0.3-0.1-0.6-0.1-0.8c0-0.3-0.1-0.5-0.1-0.8c0-0.3-0.1-0.5-0.1-0.8c0-0.2-0.1-0.5-0.1-0.7c-0.1-0.4-0.1-0.8-0.1-1
							c0-0.1,0-0.2,0-0.3C26.6,11.3,26.6,11.2,26.6,11.2z"/>
					</g>
				</g>
			</g>
		</g>
		<g>
			<g>
				<g>
					<path fill="#425A6B" d="M21.3,22.7c0,0-0.5,2.2,1.6,5.6c2.2,3.4,2.3,3.9,2.3,3.9s0.4,1.7,0.3,2.2c-0.1,0.5-0.4,1.9-0.5,2.6
						c-0.1,0.8,0.5,8.4,0.5,8.4s2.6,0.9,4.3,0c0,0-0.6-3.9-0.6-4.8c0-0.9,0.3-6.1,0.3-6.9c0-0.7-0.7-3.2-0.9-3.8
						c-0.2-0.6-1.1-2.9-1.1-2.9l-2.6-2.4L21.3,22.7z"/>
				</g>
			</g>
		</g>
	</g>
</g>
</svg>
