<?xml version="1.0" encoding="utf-8"?>
<!-- Generator: Adobe Illustrator 18.0.0, SVG Export Plug-In . SVG Version: 6.00 Build 0)  -->
<!DOCTYPE svg PUBLIC "-//W3C//DTD SVG 1.1//EN" "http://www.w3.org/Graphics/SVG/1.1/DTD/svg11.dtd">
<svg version="1.1" id="Layer_1" xmlns="http://www.w3.org/2000/svg" xmlns:xlink="http://www.w3.org/1999/xlink" x="0px" y="0px"
	 viewBox="0 0 48 48" enable-background="new 0 0 48 48" xml:space="preserve">
<g>
	<g>
		<g>
			<rect x="18.2" y="38.3" fill="#344A5E" width="12.4" height="3.9"/>
			<path fill="#415A6B" d="M30.1,42.2H17.9c-2.8,0-5.1,2.3-5.1,5.1h22.4C35.2,44.5,32.9,42.2,30.1,42.2z"/>
		</g>
		<path fill="#415A6B" d="M45.9,38.3H2.1c-1.2,0-2.1-0.9-2.1-2.1V2.8c0-1.2,0.9-2.1,2.1-2.1h43.8c1.2,0,2.1,0.9,2.1,2.1v33.3
			C48,37.3,47.1,38.3,45.9,38.3z"/>
		<rect x="4" y="4.7" fill="#8AD7F8" width="40" height="25.6"/>
		<g>
			<path fill="#FFFFFF" d="M36.5,13.2v-1.6L35,11.4c-0.1-0.3-0.2-0.7-0.4-1l0.8-1.2l-1.1-1.1l-1.2,0.8c-0.3-0.2-0.6-0.3-1-0.4
				L31.9,7h-1.6L30,8.5c-0.3,0.1-0.7,0.2-1,0.4l-1.2-0.8l-1.1,1.1l0.8,1.2c-0.2,0.3-0.3,0.6-0.4,1l-1.5,0.3v1.6l1.5,0.3
				c0.1,0.3,0.2,0.7,0.4,1l-0.8,1.2l1.1,1.1l1.2-0.8c0.3,0.2,0.6,0.3,1,0.4l0.3,1.5h1.6l0.3-1.5c0.3-0.1,0.7-0.2,1-0.4l1.2,0.8
				l1.1-1.1l-0.8-1.2c0.2-0.3,0.3-0.6,0.4-1L36.5,13.2z M31.1,14.3c-1,0-1.9-0.8-1.9-1.9s0.8-1.9,1.9-1.9c1,0,1.9,0.8,1.9,1.9
				S32.1,14.3,31.1,14.3z"/>
			<path fill="#FFFFFF" d="M27.8,21v-2.4l-2.2-0.4c-0.1-0.5-0.3-1-0.6-1.4l1.3-1.9l-1.7-1.7l-1.9,1.3c-0.4-0.3-0.9-0.5-1.4-0.6
				l-0.4-2.2h-2.4L18,13.9c-0.5,0.1-1,0.3-1.4,0.6l-1.9-1.3l-1.7,1.7l1.3,1.9c-0.3,0.4-0.5,0.9-0.6,1.4l-2.2,0.4V21l2.2,0.4
				c0.1,0.5,0.3,1,0.6,1.4l-1.3,1.9l1.7,1.7l1.9-1.3c0.4,0.3,0.9,0.5,1.4,0.6l0.4,2.2h2.4l0.4-2.2c0.5-0.1,1-0.3,1.4-0.6l1.9,1.3
				l1.7-1.7L25,22.9c0.3-0.4,0.5-0.9,0.6-1.4L27.8,21z M19.6,23.7c-2.1,0-3.8-1.7-3.8-3.8c0-2.1,1.7-3.8,3.8-3.8
				c2.1,0,3.8,1.7,3.8,3.8C23.5,22,21.8,23.7,19.6,23.7z M19.6,21.7c-1.1,0-1.9-0.9-1.9-1.9c0-1.1,0.9-1.9,1.9-1.9
				c1.1,0,1.9,0.9,1.9,1.9C21.6,20.9,20.7,21.7,19.6,21.7z"/>
		</g>
	</g>
</g>
</svg>
