<?xml version="1.0" encoding="utf-8"?>
<!-- Generator: Adobe Illustrator 19.0.1, SVG Export Plug-In . SVG Version: 6.00 Build 0)  -->
<svg version="1.1" id="Layer_1" xmlns="http://www.w3.org/2000/svg" xmlns:xlink="http://www.w3.org/1999/xlink" x="0px" y="0px"
	 viewBox="0 0 48 48" style="enable-background:new 0 0 48 48;" xml:space="preserve">
<style type="text/css">
	.st0{fill:#66C6B9;}
	.st1{fill:#F3F3F3;}
	.st2{fill:#415A6B;}
	.st3{fill:#CED6E0;}
	.st4{fill:#F3705A;}
	.st5{fill:#E8EAE9;}
	.st6{fill:#4ABAA5;}
	.st7{fill:#F05540;}
	.st8{fill:#FFD15C;}
	.st9{fill:#55C0EB;}
	.st10{fill:#8AD7F8;}
	.st11{fill:#344A5E;}
	.st12{fill:#FFFFFF;}
	.st13{fill:#F7B64C;}
	.st14{fill:#ADB3BA;}
	.st15{fill:#38A892;}
	.st16{fill:#ED9845;}
	.st17{fill:#2D4251;}
	.st18{fill:#304556;}
	.st19{fill:#A5AAAD;}
	.st20{fill:#2D4456;}
	.st21{fill:#4FB0E0;}
	.st22{fill:#2D4354;}
	.st23{fill:#E54C38;}
	.st24{fill:#2B4456;}
	.st25{fill:#2B404F;}
</style>
<g>
	<g>
		<g>
			<g>
				<g>
					<polygon class="st8" points="12.2,18 11.4,24.8 20.3,24.8 20.3,18.1 					"/>
				</g>
				<g>
					<path class="st5" d="M20.8,31.1l-0.6-10.2h-0.1c-0.6,1.6-4,2.7-4,2.7s-3.4-1.1-4-2.7h0l-0.6,10.2H20.8z"/>
				</g>
				<g>
					<g>
						<path class="st8" d="M19.8,20.1v-5.4c0.5-1,0.8-3.5,0.8-3.5V5l-4.6-2.3L12.1,5l-1.1,2.8l0.8,4.9c0,0,0.3,1.9,0.9,2.7v5.2
							L19.8,20.1z"/>
					</g>
					<g>
						<g>
							<g>
								<ellipse transform="matrix(0.9708 0.24 -0.24 0.9708 3.2084 -4.7292)" class="st8" cx="21" cy="10.8" rx="0.9" ry="1.9"/>
							</g>
							<g>
								
									<ellipse transform="matrix(-0.9708 0.24 -0.24 -0.9708 24.5777 19.4409)" class="st8" cx="11.1" cy="11.2" rx="0.9" ry="1.9"/>
							</g>
						</g>
						<g>
							<path class="st2" d="M19,2.6c0,0-0.4-1.9-3.6-1.3S10.9,4,10.7,5.1c-0.2,1.1-0.1,3.1,0,3.8c0.1,0.7,0.5,1.5,0.6,1.9
								c0.1,0.3,0.2,0.9,0.3,1.2h0.2c-0.1-0.3-0.2-0.9-0.1-1.2c0-0.5-0.1-1.4,0.2-1.9c0.2-0.4,0.1-1,0-1.3c-0.4-1,0.2-2.4,1.6-2.4
								c0.1,0,0.1,0,0.2,0c0.4,0,0.8,0,1.2-0.1c1-0.4,1.8-0.6,2.7-0.5c1.3,0.1,2.5,1.7,1.9,2.9c0,0-0.1,0.5,0.1,0.9
								c0.3,0.4,0.4,0.9,0.5,1.5c0,0.4,0.2,1.8,0.2,2.3h0.1c0.1-0.2,0.2-1.4,0.5-2.4c0.3-0.8,0.5-1.5,0.6-2.3
								C21.7,5.2,21.7,2.8,19,2.6z"/>
						</g>
					</g>
					<path class="st13" d="M15.7,17.9c-1.9,0-3.1-2.5-3.1-2.5v5c0.5-0.2,1.6-0.5,2.4-0.8c4-1.5,4.7-5,4.7-5S18.2,17.9,15.7,17.9z"/>
				</g>
				<g>
					<g>
						<g>
							<path class="st2" d="M30.8,31.1c-0.5-1.9-1.1-4.5-1.2-6.4c-0.2-3.2-1.2-3.4-1.2-3.4l-3.1-0.4c-1.2,1.1-1.3,5.6-1,10.2H30.8z"
								/>
						</g>
						<g>
							<path class="st11" d="M25.7,31.1c-0.1-1.2-0.2-2.2-0.1-2.9c0.2-3.1,2.9-7,2.9-7c-2.1-1-7.1-1.9-7.1-1.9l-3.2,11.7H25.7z"/>
						</g>
						<g>
							<path class="st11" d="M19.4,31.1c0.5-1.5,1-2.8,1.3-3.4c0.5-1.1,1-3.2,1.3-4.6c0.3-1.4,0.1-3-0.6-4.3
								c-0.4-0.7-0.9-1.4-1.6-1.8c0,0-0.1,3-0.7,5c-0.3,1.2-1.1,5.3-1.5,9.1H19.4z"/>
						</g>
					</g>
					<g>
						<g>
							<path class="st2" d="M8,31.1c0.3-4.6,0.2-9.1-1-10.2L4,21.3c0,0-0.9,0.2-1.2,3.4c-0.1,1.9-0.7,4.5-1.2,6.4H8z"/>
						</g>
						<g>
							<path class="st11" d="M6.7,31.1h7.6l-3.2-11.7c0,0-5.1,0.9-7.1,1.9c0,0,2.7,3.9,2.9,7C6.9,28.9,6.8,29.9,6.7,31.1z"/>
						</g>
						<g>
							<path class="st11" d="M11.7,27.7c0.3,0.6,0.8,1.9,1.3,3.4h1.9c-0.5-3.8-1.2-8-1.5-9.1c-0.6-2-0.7-5-0.7-5
								c-0.7,0.5-1.3,1.2-1.6,1.8c-0.7,1.3-0.9,2.9-0.6,4.3C10.7,24.5,11.2,26.6,11.7,27.7z"/>
						</g>
					</g>
				</g>
				<g>
					<g>
						<g>
							<path class="st5" d="M11.7,9.1l0.3,3.6c0,0.2-0.1,0.4-0.4,0.4c-0.2,0-0.4-0.1-0.4-0.4L11,9.2c0-0.2,0.1-0.4,0.4-0.4h0
								C11.5,8.8,11.7,8.9,11.7,9.1z"/>
							<path class="st5" d="M21.1,9.2l-0.3,3.5c0,0.2-0.2,0.4-0.4,0.4c-0.2,0-0.4-0.2-0.4-0.4l0.3-3.6c0-0.2,0.2-0.4,0.4-0.4h0
								C21,8.8,21.2,9,21.1,9.2z"/>
						</g>
					</g>
				</g>
				<g>
					<g>
						<path class="st0" d="M11,10.1l0.2,2.7c-0.7,0.1-1.3-0.5-1.3-1.1l-0.1-1.1c0-0.1,0-0.2,0-0.3C9.9,9.7,10,9.3,10,8.8
							c0-0.8,0.2-1.5,0.5-2.2c0,0.6,0,1.3,0.1,1.7c0,0.3-0.1,0.6,0,0.9c0.1,0,0.1-0.1,0.2-0.1c0.1,0,0.1,0,0.2,0L11,10.1z"/>
						<path class="st0" d="M22.3,10.5l-0.1,1.1c-0.1,0.7-0.6,1.2-1.3,1.1l0.3-3.5c0.1,0,0.3,0,0.4,0.1c0-0.5,0-0.9-0.1-1.3
							c0.1-0.3,0.1-0.7,0.1-1.1c0-0.1,0-0.1,0-0.2c0.3,0.6,0.4,1.3,0.5,2c0,0.5,0.1,1,0.2,1.5C22.3,10.3,22.3,10.4,22.3,10.5z"/>
					</g>
				</g>
			</g>
			<g>
				<g>
					<g>
						<rect y="29.4" class="st14" width="32.4" height="2.4"/>
					</g>
					<g>
						<g>
							<path class="st3" d="M24.1,21.8L23,29.4H9.4l-1.1-7.6c0-0.4,0.2-0.7,0.6-0.7h14.6C23.9,21.1,24.1,21.5,24.1,21.8z"/>
						</g>
						<g>
							<path class="st14" d="M17.4,25.5c0,0.4-0.5,0.7-1.2,0.7c-0.7,0-1.2-0.3-1.2-0.7c0-0.4,0.5-0.7,1.2-0.7
								C16.9,24.8,17.4,25.1,17.4,25.5z"/>
						</g>
					</g>
				</g>
			</g>
		</g>
		<g>
			<g>
				<g>
					<path class="st13" d="M27.4,31.1c0,0,1.1-2.7,4.1-6.2c3,3.4,4.1,6.2,4.1,6.2l0,1.9c0.3,0.6-0.3,3.2-4.1,5.1
						c-3.7-2.9-4.4-4.8-4.1-5.1L27.4,31.1z"/>
				</g>
				<g>
					<path class="st3" d="M37.8,45.5l0.4-7.4h-6.7c-3.4,0.3-5.5,6.2-5.9,7.4H37.8z"/>
				</g>
				<g>
					<path class="st2" d="M31.4,17.1c-4.1,0-7.4,3.6-7.4,8.1c0,0.7,0.1,1.4,0.3,2.1l0,0.2h0.2v-1.1c-0.1-0.4-0.1-0.8-0.1-1.1
						c0-4.2,3.1-7.6,6.9-7.6c3.8,0,6.9,3.4,6.9,7.6c0,0.5,0,0.9-0.1,1.4v0.9h0.3l0-0.2c0.2-0.7,0.3-1.4,0.3-2.1
						C38.8,20.7,35.5,17.1,31.4,17.1z"/>
				</g>
				<ellipse class="st8" cx="31.5" cy="26.1" rx="6.3" ry="8.1"/>
				<path class="st4" d="M25.3,26.6c0-0.2,0.2-2.3,1.5-4.5s2.7-3.2,2.7-3.2s1,1,2.6,1.9c1.7,0.9,4.5,2.9,4.9,4.4
					c0.4,1.5,0.4,2.1,0.4,2.1s0.9-2,0.7-4.7c-0.2-2.8-2.4-5.6-4.5-6.4c-2.1-0.9-4.7,0.5-4.7,0.5s-2,0.3-3,2.4S25.3,26.6,25.3,26.6z"
					/>
				<path class="st0" d="M37.9,25.3v3.4c0.6-0.1,1.2-0.8,1.2-1.7C39.1,26.1,38.5,25.4,37.9,25.3z"/>
				<path class="st2" d="M37.1,25.3v3.4c0,0.2,0.2,0.4,0.5,0.4l0,0c0.3,0,0.5-0.2,0.5-0.4v-3.4c0-0.2-0.2-0.4-0.5-0.4l0,0
					C37.3,24.9,37.1,25.1,37.1,25.3z"/>
				<path class="st0" d="M24.9,25.3v3.4c-0.6-0.1-1.2-0.8-1.2-1.7C23.7,26.1,24.3,25.4,24.9,25.3z"/>
				<path class="st2" d="M25.7,25.3v3.4c0,0.2-0.2,0.4-0.5,0.4l0,0c-0.3,0-0.5-0.2-0.5-0.4v-3.4c0-0.2,0.2-0.4,0.5-0.4l0,0
					C25.5,24.9,25.7,25.1,25.7,25.3z"/>
				<g>
					<g>
						<g>
							<path class="st11" d="M46.6,45.5l-1.4-5.7c-0.4-1.7-1.6-3-3.3-3.6l-4.8-1.8l-2.3,11.1H46.6z"/>
						</g>
						<g>
							<path class="st1" d="M35.5,33c0,0-0.7,2.2-4.1,5.1l4.1,4.7l1.6-6.9L35.5,33z"/>
						</g>
						<g>
							<path class="st2" d="M35.8,45.5c1.2-2.1,2.3-4.3,3-6.6l-1.3-0.8l2.3-1.2c0,0-2.1-2.2-4-3.3c0,0-1.2,9-2.2,11.7
								c0,0.1-0.1,0.2-0.1,0.3H35.8z"/>
						</g>
					</g>
					<g>
						<g>
							<path class="st11" d="M28.1,45.5l-2.3-11.1L21,36.2c-1.6,0.6-2.8,2-3.3,3.6l-1.4,5.7H28.1z"/>
						</g>
						<g>
							<path class="st1" d="M27.4,33c-0.1,0.1,1.6,2.8,4.1,5.1l-4.1,4.7l-1.6-6.9L27.4,33z"/>
						</g>
						<g>
							<path class="st2" d="M24.1,38.9c0.8,2.3,1.8,4.5,3,6.6h2.3c0-0.1-0.1-0.2-0.1-0.3c-1.1-2.8-2.2-11.7-2.2-11.7
								c-1.8,1.1-4,3.3-4,3.3l2.3,1.2L24.1,38.9z"/>
						</g>
					</g>
				</g>
			</g>
			<g>
				<g>
					<rect x="14.9" y="44.4" class="st0" width="33.1" height="2.4"/>
				</g>
				<g>
					<g>
						<path class="st5" d="M40.7,35.5l-1.2,8.9h-16l-1.3-8.9c-0.1-0.4,0.3-0.8,0.7-0.8h17C40.4,34.7,40.7,35,40.7,35.5z"/>
					</g>
					<g>
						<path class="st14" d="M32.8,39.8c0,0.5-0.6,0.9-1.4,0.9S30,40.3,30,39.8c0-0.5,0.6-0.9,1.4-0.9S32.8,39.3,32.8,39.8z"/>
					</g>
				</g>
			</g>
		</g>
	</g>
</g>
</svg>
