<?xml version="1.0" encoding="utf-8"?>
<!-- Generator: Adobe Illustrator 18.0.0, SVG Export Plug-In . SVG Version: 6.00 Build 0)  -->
<!DOCTYPE svg PUBLIC "-//W3C//DTD SVG 1.1//EN" "http://www.w3.org/Graphics/SVG/1.1/DTD/svg11.dtd">
<svg version="1.1" id="Layer_1" xmlns="http://www.w3.org/2000/svg" xmlns:xlink="http://www.w3.org/1999/xlink" x="0px" y="0px"
	 viewBox="0 0 48 48" enable-background="new 0 0 48 48" xml:space="preserve">
<g>
	<g>
		<g>
			<g>
				<g>
					<g>
						<g>
							<g>
								<path fill="#66C6B9" d="M35.7,17.8c-2.2,3.3-6.8,4.2-10.1,2s-4.2-6.8-2-10.1S38.8,0,38.8,0S37.9,14.4,35.7,17.8z"/>
							</g>
						</g>
					</g>
				</g>
				<g>
					<g>
						<path fill="#415A6B" d="M23,25.8h1.8c1.5-9.6,10.7-20.7,10.7-20.7S25.3,15.3,23,25.8z"/>
					</g>
				</g>
			</g>
			<g>
				<g>
					<g>
						<g>
							<g>
								<path fill="#66C6B9" d="M15.5,22.9c2,1.6,4.8,1.2,6.4-0.7c1.6-2,1.2-4.8-0.7-6.4s-10.9-2.9-10.9-2.9S13.5,21.3,15.5,22.9z"
									/>
							</g>
						</g>
					</g>
				</g>
				<g>
					<g>
						<path fill="#415A6B" d="M24.6,25.3l-1.1,0.3c-2.7-5.5-10.4-10.3-10.4-10.3S21.2,19.4,24.6,25.3z"/>
					</g>
				</g>
			</g>
		</g>
		<g>
			<g>
				<g>
					<path fill="#415A6B" d="M41.9,38.6c-0.6,0-1-0.4-1-1v-7.2H7.1v7.2c0,0.6-0.4,1-1,1s-1-0.4-1-1v-8.2c0-0.6,0.4-1,1-1h35.7
						c0.6,0,1,0.4,1,1v8.2C42.9,38.1,42.4,38.6,41.9,38.6z"/>
				</g>
			</g>
			<g>
				<g>
					<rect x="23" y="24.4" fill="#415A6B" width="2" height="13.2"/>
				</g>
			</g>
		</g>
		<g>
			<g>
				<path fill="#F3705A" d="M10.3,35.7H2c-1.1,0-2,0.9-2,2V46c0,1.1,0.9,2,2,2h8.3c1.1,0,2-0.9,2-2v-8.3
					C12.3,36.6,11.4,35.7,10.3,35.7z"/>
			</g>
		</g>
		<g>
			<g>
				<path fill="#FFD15C" d="M28.1,35.7h-8.3c-1.1,0-2,0.9-2,2V46c0,1.1,0.9,2,2,2h8.3c1.1,0,2-0.9,2-2v-8.3
					C30.1,36.6,29.3,35.7,28.1,35.7z"/>
			</g>
		</g>
		<g>
			<g>
				<path fill="#8AD7F8" d="M46,35.7h-8.3c-1.1,0-2,0.9-2,2V46c0,1.1,0.9,2,2,2H46c1.1,0,2-0.9,2-2v-8.3C48,36.6,47.1,35.7,46,35.7z
					"/>
			</g>
		</g>
	</g>
</g>
</svg>
