<?xml version="1.0" encoding="utf-8"?>
<!-- Generator: Adobe Illustrator 18.0.0, SVG Export Plug-In . SVG Version: 6.00 Build 0)  -->
<!DOCTYPE svg PUBLIC "-//W3C//DTD SVG 1.1//EN" "http://www.w3.org/Graphics/SVG/1.1/DTD/svg11.dtd">
<svg version="1.1" id="Layer_1" xmlns="http://www.w3.org/2000/svg" xmlns:xlink="http://www.w3.org/1999/xlink" x="0px" y="0px"
	 viewBox="0 0 48 48" enable-background="new 0 0 48 48" xml:space="preserve">
<g>
	<path fill="#40596B" d="M38,19.7C38,19.7,38,19.7,38,19.7c-1.4-4.2-4.6-7.3-8.5-8.8c-1.2-0.4-2.5-0.1-3.3,0.8l0,0
		c-1.2,1.3-3.3,1.3-4.5,0l0,0c-0.8-0.9-2.1-1.2-3.3-0.8c-3.9,1.4-7.1,4.6-8.5,8.7c0,0,0,0.1,0,0.1L5.6,32.5h36.7L38,19.7z"/>
	<g>
		<path fill="#334A5E" d="M45.3,35.8c-15.1,1.9-27.6,1.9-42.6,0C1.2,35.6,0,34.2,0,32.7l0,0c0-1.5,1.2-2.5,2.7-2.3
			c15.1,1.9,27.6,1.9,42.6,0c1.5-0.2,2.7,0.8,2.7,2.3l0,0C48,34.2,46.8,35.6,45.3,35.8z"/>
	</g>
	<path fill="#FF7058" d="M8.1,25.3l-1.4,4.1c11.4-2.7,23.2-2.7,34.6,0l-1.4-4.1C29.4,23,18.6,23,8.1,25.3z"/>
</g>
</svg>
