<?xml version="1.0" encoding="utf-8"?>
<!-- Generator: Adobe Illustrator 18.0.0, SVG Export Plug-In . SVG Version: 6.00 Build 0)  -->
<!DOCTYPE svg PUBLIC "-//W3C//DTD SVG 1.1//EN" "http://www.w3.org/Graphics/SVG/1.1/DTD/svg11.dtd">
<svg version="1.1" id="Layer_1" xmlns="http://www.w3.org/2000/svg" xmlns:xlink="http://www.w3.org/1999/xlink" x="0px" y="0px"
	 viewBox="0 0 48 48" enable-background="new 0 0 48 48" xml:space="preserve">
<g>
	<g>
		<g>
			<g>
				<path fill="#415A6B" d="M44.5,35.9V9.7c0-1.7-1.3-3-3-3h-35c-1.7,0-3,1.3-3,3v26.2H44.5z"/>
				<rect x="7" y="10.2" fill="#8AD7F8" width="34" height="22.2"/>
				<g>
					<path fill="#E8EAE9" d="M5.3,41.3h37.3c3,0,5.3-2.4,5.3-5.3v0H0v0C0,38.9,2.4,41.3,5.3,41.3z"/>
				</g>
			</g>
			<g>
				<polygon fill="#CED6E0" points="29.4,38.2 30.5,35.9 17.5,35.9 18.6,38.2 				"/>
			</g>
		</g>
		<g>
			<g>
				<g>
					
						<rect x="31.8" y="26.8" transform="matrix(0.7071 -0.7071 0.7071 0.7071 -10.4397 32.2367)" fill="#344A5E" width="3.9" height="3.9"/>
				</g>
			</g>
			<g>
				<g>
					<circle fill="#FFFFFF" cx="26.5" cy="21.5" r="8.2"/>
					<path fill="#415A6B" d="M33,28.1c-3.6,3.6-9.5,3.6-13.1,0c-3.6-3.6-3.6-9.5,0-13.1c3.6-3.6,9.5-3.6,13.1,0
						C36.6,18.6,36.6,24.5,33,28.1z M21.4,16.4c-2.8,2.8-2.8,7.4,0,10.2c2.8,2.8,7.4,2.8,10.2,0c2.8-2.8,2.8-7.4,0-10.2
						C28.8,13.6,24.2,13.6,21.4,16.4z"/>
				</g>
			</g>
			<g>
				<g>
					<g>
						<g>
							<g>
								<path fill="#F3705A" d="M21.4,21c0,3.3,5.1,6.1,5.1,6.1s5.1-2.8,5.1-6.1c0-1.5-1.2-2.7-2.7-2.7c-1.1,0-2,0.7-2.4,1.6
									c-0.4-1-1.3-1.6-2.4-1.6C22.6,18.4,21.4,19.6,21.4,21z"/>
							</g>
						</g>
					</g>
				</g>
				<g>
					<g>
						
							<ellipse transform="matrix(0.9137 -0.4064 0.4064 0.9137 -5.8277 13.9065)" fill="#FFFFFF" cx="29.8" cy="20.7" rx="0.6" ry="1.1"/>
					</g>
				</g>
			</g>
			<g>
				<g>
					<path fill="#FFD15C" d="M32.6,32.1l4,4c1.3,1.3,3.3,1.3,4.6,0c1.3-1.3,1.3-3.3,0-4.6l-4-4L32.6,32.1z"/>
				</g>
			</g>
			<g>
				<g>
					
						<rect x="34.6" y="27.1" transform="matrix(-0.7071 -0.7071 0.7071 -0.7071 39.0032 76.7764)" fill="#F7B64C" width="1.5" height="6.5"/>
				</g>
			</g>
			<g>
				<g>
					<g>
						<path fill="#E8EAE9" d="M37.4,27.8l-4.6,4.6c-0.5,0.5-1.3,0.5-1.8,0c-0.5-0.5-0.5-1.3,0-1.8l4.6-4.6c0.5-0.5,1.3-0.5,1.8,0
							C37.9,26.5,37.9,27.3,37.4,27.8z"/>
					</g>
				</g>
			</g>
		</g>
	</g>
</g>
</svg>
