<?xml version="1.0" encoding="utf-8"?>
<!-- Generator: Adobe Illustrator 18.0.0, SVG Export Plug-In . SVG Version: 6.00 Build 0)  -->
<!DOCTYPE svg PUBLIC "-//W3C//DTD SVG 1.1//EN" "http://www.w3.org/Graphics/SVG/1.1/DTD/svg11.dtd">
<svg version="1.1" id="Layer_1" xmlns="http://www.w3.org/2000/svg" xmlns:xlink="http://www.w3.org/1999/xlink" x="0px" y="0px"
	 viewBox="0 0 512 512" enable-background="new 0 0 512 512" xml:space="preserve">
<g>
	<rect x="2" y="116" fill="#84DBFF" width="508" height="279.9"/>
	<path fill="#40596B" d="M488.8,2H23.2C11.5,2,2,11.5,2,23.2V116h508V23.2C510,11.5,500.5,2,488.8,2z"/>
	<g>
		<rect x="33.7" y="33.7" fill="#F2F2F2" width="91.3" height="50.6"/>
		<rect x="144.6" y="33.7" fill="#F2F2F2" width="91.3" height="50.6"/>
		<rect x="262.4" y="33.7" fill="#F2F2F2" width="91.3" height="50.6"/>
		<rect x="380.1" y="33.7" fill="#F2F2F2" width="91.3" height="50.6"/>
	</g>
	<path fill="#40596B" d="M2,396v92.9c0,11.7,9.5,21.2,21.2,21.2h465.7c11.7,0,21.2-9.5,21.2-21.2V396H2z"/>
	<g>
		<rect x="33.7" y="427.7" fill="#F2F2F2" width="91.3" height="50.5"/>
		<rect x="151.5" y="427.7" fill="#F2F2F2" width="91.3" height="50.5"/>
		<rect x="269.2" y="427.7" fill="#F2F2F2" width="91.3" height="50.5"/>
		<rect x="386.9" y="427.7" fill="#F2F2F2" width="91.3" height="50.5"/>
	</g>
	<circle fill="#FF7058" cx="256" cy="256" r="113.3"/>
	<polygon fill="#FFFFFF" points="214.6,189.6 214.6,322.4 325.3,256 	"/>
</g>
</svg>
