<?xml version="1.0" encoding="utf-8"?>
<!-- Generator: Adobe Illustrator 18.0.0, SVG Export Plug-In . SVG Version: 6.00 Build 0)  -->
<!DOCTYPE svg PUBLIC "-//W3C//DTD SVG 1.1//EN" "http://www.w3.org/Graphics/SVG/1.1/DTD/svg11.dtd">
<svg version="1.1" id="Layer_1" xmlns="http://www.w3.org/2000/svg" xmlns:xlink="http://www.w3.org/1999/xlink" x="0px" y="0px"
	 viewBox="0 0 48 48" enable-background="new 0 0 48 48" xml:space="preserve">
<g>
	<g>
		<g>
			<g>
				<path fill="#FFD15C" d="M20.4,42.3c0,0,0.2,0,0.5,0.5c0.3,0.5,0.3,0.9,0.3,0.9l0.3,2c0,0,0,0.7-0.3,1.1
					c-0.3,0.3-1.4,0.2-1.4,0.2s-0.8-1.3-0.4-3.2c0,0-0.3-0.9-0.2-1.4C19.1,42,20.4,42.3,20.4,42.3z"/>
			</g>
		</g>
	</g>
	<g>
		<g>
			<g>
				<path fill="#F26F5A" d="M21.4,47.6c-0.2,0.4-1.1,0.6-1.6,0.3c-0.5-0.3-0.6-0.9-0.6-1.3c0.1-0.4,0-1.1,0-1.7
					c0-0.6,0.1-1.1,0.1-1.1s-0.1,1.5,0.1,2.1c0.2,0.5,0.8,0.5,1.3,0.5c0.4,0,0.7-0.3,0.7-0.5c0-0.2-0.1-1.1-0.2-2.1
					c-0.1-0.7-0.3-1.1-0.4-1.2c0,0-0.1,0-0.1,0h0.2c0.6,0.8,0.6,2.8,0.7,3.3C21.5,46.5,21.6,47.2,21.4,47.6z"/>
			</g>
		</g>
	</g>
	<g>
		<g>
			<g>
				<path fill="#FFD15C" d="M28.4,42.9l0.1-0.3c0,0,0.1-0.4-0.1-0.7c-0.1-0.3,0.5-0.6,0.5-0.6l1-0.1c0,0,0.4,1.6,0.4,1.7
					c0.1,0.1,0.6,2.6,0.7,2.8c0.1,0.2,0.2,0.7,0.2,0.7l-1,0.6l-0.8-0.9l-0.4-0.8C29.1,45.3,28,43.5,28.4,42.9z"/>
			</g>
		</g>
	</g>
	<g>
		<g>
			<g>
				<path fill="#425A6B" d="M27.4,23.5c0,0,0.3,2.4,0.3,3.5c0,1,0.4,5.3,0.8,7c0.5,1.8,1.7,7.9,1.7,7.9s-1.1,0.7-2.2,0.2
					c0,0-1.3-3.2-1.6-4.3c-0.3-1-1-3.7-1-3.7s-1.2-3.6-1.8-5.7s-1.6-3.1-1.6-3.1s-0.3,0.5-0.4,1.2c-0.1,0.7-0.9,5.8-1.1,6.5
					c-0.2,0.7,0.1,9,0.2,9.6c0,0-1.7,0.4-2.2-0.2c0,0-0.5-2.3-0.8-3.6c-0.3-1.3-0.5-5.7-0.4-7.5c0.1-1.9-0.8-7.4-0.8-7.4l3.6-5.8
					l4.6,0.2L27.4,23.5z"/>
			</g>
		</g>
	</g>
	<g>
		<g>
			<g>
				<path fill="#344A5E" d="M28.1,17.2l-1.3-1l0.2-3l0.7-0.6c0,0-0.1,2.2,0.1,2.8c0.1,0.4,0.2,1.2,0.3,1.6
					C28.1,17.1,28.1,17.2,28.1,17.2z"/>
			</g>
		</g>
	</g>
	<g>
		<g>
			<g>
				<path fill="#F26F5A" d="M20.4,3.3c0,0-0.4,2.4-0.1,4.1C20.6,9,20.6,9,20.6,9s1.4-2.7,1.4-3c0-0.3-0.7-2.8-0.8-2.8
					C21.3,3.3,20.4,3.3,20.4,3.3z"/>
			</g>
		</g>
	</g>
	<g>
		<g>
			<g>
				<ellipse fill="#F26F5A" cx="23.4" cy="7.1" rx="1.8" ry="2.5"/>
			</g>
		</g>
	</g>
	<g>
		<g>
			<g>
				<path fill="#F26F5A" d="M21.7,7.9c0.2,1,0.9,1.7,1.7,1.7c0.8,0,1.5-0.7,1.7-1.7H21.7z"/>
			</g>
		</g>
	</g>
	<g>
		<g>
			<g>
				<path fill="#F26F5A" d="M25.9,3.4c-0.2-0.1-0.4-0.1-0.6-0.1c-0.8,0-1.5,0.7-1.5,1.5c0,0.8,0.7,1.5,1.5,1.5c0.2,0,0.4,0,0.6-0.1
					V3.4z"/>
			</g>
		</g>
	</g>
	<g>
		<g>
			<g>
				<path fill="#FFD15C" d="M21.3,2.4c0,0-0.2,2.4-0.3,2.7c0,0.3-0.8,1.7-0.8,1.7l-0.1,2.9l1.2,1.5l1.4,0.2c0,0,1-2.2,1-2.2
					c0,0-0.9-1.3-0.9-1.6s0-0.4,0-0.4s0.6,0.1,0.8,0C23.7,7,24,6.8,24.1,6.7C24.2,6.6,24.8,6,25,5.1c0,0,0-0.5,0.2-0.7
					c0.1-0.1,0.2-0.2,0.2-0.3c0.2-0.5,0.2-1.1,0.2-1.8l-1-1.1L23,1L21.3,2.4z"/>
			</g>
		</g>
	</g>
	<g>
		<g>
			<g>
				<path fill="#E8EAE8" d="M20.3,6.6c0,0,0.5,1.7,0.7,2.3c0.3,0.7,1.4,2.1,1.4,2.1s1-2.1,1-3l1.3,2.2l0.3,4.7l0.3,3.9
					c0,0-2,1-3.8,0.4c-1.8-0.6-1.9-0.8-1.9-0.9c0-0.1,0-8.3,0-8.3S19.7,7.3,20.3,6.6z"/>
			</g>
		</g>
	</g>
	<g>
		<g>
			<g>
				<path fill="#344A5E" d="M23.3,16.5c0,0,0.2,3.8,1,6.8c0.2,0.8,1,1.3,1.9,1.2c0.7-0.2,1.6-0.3,1.8-0.3c0,0-0.1-1.9-0.6-3.1
					c-0.5-1.1-1-5.2-0.9-5.7C26.4,14.7,23.3,16.5,23.3,16.5z"/>
			</g>
		</g>
	</g>
	<g>
		<g>
			<g>
				<path fill="#344A5E" d="M18.4,16.9L16,24c0,0,2.6,0.5,4.4,0.7c0.9,0.1,1.7-0.5,1.8-1.4c0.2-1.8,0.6-4.7,0.6-5.9
					c0-1.9-0.7-2.3-0.7-2.3L18.4,16.9z"/>
			</g>
		</g>
	</g>
	<g>
		<g>
			<g>
				<polygon fill="#344A5E" points="16.4,8.5 16.4,9.4 18.6,14.6 21.1,14.9 21.9,14 21.9,13.1 20.5,12.7 				"/>
			</g>
		</g>
	</g>
	<g>
		<g>
			<path fill="#344A5E" d="M19.1,14.2c0.1,0.3,0.6,0.3,0.8,0.1l2.1-0.5L21.3,12l-1.9-4.6c0,0-1.6,0.6-2.2,0.6
				c-0.4,0-0.6,0.2-0.8,0.4c0.6,0.6,1.6,1.7,1.9,2.5C18.6,12.1,19,13.9,19.1,14.2z"/>
		</g>
	</g>
	<g>
		<g>
			<g>
				<path fill="#F26F5A" d="M24.1,1.8c0,0-0.7,0.1-1.1,0.4c-0.4,0.3-1.1,1.2-1.5,1C21,3,21,2.9,21,2.9s-0.3,1-0.3,2c0,1,0,1,0,1
					s-0.5-1.5-0.3-2.5c0.2-1,0.6-2.4,1.4-2.9c0.9-0.5,1.8-0.6,2.4-0.5c0.6,0.2,0.7,0.7,1.1,0.9c0.5,0.2,0.8,0.5,0.9,0.8
					c0.1,0.3,0.2,1,0.3,1.4c0.1,0.4,0.4,1.4,0.3,1.8c0,0.4-0.6,0.9-0.6,1.3c0,0.4,1,2,1.4,2.3c0.4,0.3,0.2,2.4,0.1,3.1
					c0,0-0.2-0.3-0.4-0.5c0,0,0.2,0.3,0.2,0.9c0,0-0.2-0.6-0.9-0.9c-0.7-0.3-1.2-0.2-1.3-0.5c0,0,0,0.4,0.3,0.6
					c0.2,0.2,0.5,0.2,0.6,0.6c0.1,0.4,0.1,0.7,0.1,0.7s0-0.4-0.2-0.6c-0.2-0.2-0.8-0.4-0.9-0.6c-0.1-0.2-0.3-0.7-0.6-0.9
					c-0.2-0.2-1.3-1.9-1.4-2.1c0-0.2,1-1.7,1.3-2.1c0.3-0.3,1.2-1.5,1.3-1.7c0.1-0.3-0.4-0.6-0.5-0.9c0-0.2,0-0.5,0-0.8
					S25,1.9,24.1,1.8z"/>
			</g>
		</g>
	</g>
	<g>
		<g>
			<g>
				
					<ellipse transform="matrix(0.9988 -4.849552e-002 4.849552e-002 0.9988 -0.1473 1.0261)" fill="#FFD15C" cx="21.1" cy="3.5" rx="0.4" ry="0.9"/>
			</g>
		</g>
	</g>
	<g>
		<g>
			<g>
				<path fill="#E8EAE8" d="M25,15.9c0,0,0.2-1.7,1.5-1.6l0,1.3C26.4,15.7,26.1,16.7,25,15.9z"/>
			</g>
		</g>
	</g>
	<g>
		<g>
			<g>
				<path fill="#425A6B" d="M20.3,6.6l-1.5,1.4l0.6,0.3L19,8.8c0,0,3.2,5,3.6,6.3c0,0-0.2-2.7-0.7-3.9C21.3,10.1,20,7.7,20.3,6.6z"
					/>
			</g>
		</g>
	</g>
	<g>
		<g>
			<path fill="#425A6B" d="M19.9,14.3c-0.3,0.1-0.7,0.1-0.8-0.1c-0.1-0.3-0.4-2.1-0.8-3.2C18,10.2,17,9.1,16.4,8.5
				c0,0.1-0.1,0.1-0.1,0.2c-0.2,0.3-0.4,3.3,0,4.7c0.4,1.4,1.6,3.7,1.8,3.9c0.2,0.2,0.8,0.2,1.2,0.2c0.4,0,2.8-1.1,2.8-1.1l0.5-1.2
				l1.9-2.2L19.9,14.3z"/>
		</g>
	</g>
	<g>
		<g>
			<g>
				<path fill="#67C5B8" d="M30,10.6l-4.3,6.1c0,0-0.1,0.1-0.1,0.1L21,16.7c-0.1,0-0.2-0.1-0.1-0.3l4-6.4C24.9,10,25,10,25,10
					l4.9,0.3C30,10.4,30.1,10.5,30,10.6z"/>
			</g>
		</g>
	</g>
	<g>
		<g>
			<g>
				<g>
					<path fill="#FFD15C" d="M26.4,12.2l-0.1-0.4c0,0-0.6,0-0.5,0.8c0,0,0,0.4-0.1,0.5c-0.1,0.1-0.4,0.1-0.5,0
						c-0.1-0.1-0.5-0.3-0.5-0.3s-0.5-0.5-0.6-0.5c0,0-0.5-0.5-0.6-0.5c-0.2,0-0.3,0.1-0.3,0.2c0,0.1,0.3,0.4,0.4,0.5
						c0.1,0.2,0.7,0.8,0.8,0.9c0,0,0.2,0.3-0.2,0.1c-0.3-0.2-1-0.8-1.2-1c-0.2-0.2-0.4-0.5-0.6-0.5c-0.2,0-0.2,0.2-0.1,0.4
						c0.1,0.1,0.5,0.6,0.6,0.7c0.1,0.1,0.3,0.4,0.5,0.5s0.6,0.3,0.6,0.3s-0.4-0.1-0.6-0.2l-0.6-0.6l-0.4,0.1l0.5,0.9l0.2,0.2
						l0.5,0.1c0,0-0.5-0.1-0.7-0.2c-0.1-0.1-0.6-0.4-0.6-0.4c-0.2-0.1-0.4,0-0.3,0.2l0.3,0.3c0,0,0.4,0.3,0.5,0.3
						c0.2,0,0.7,0.2,0.9,0.2c0,0,0.6,0.3,0.8,0.5c0.2,0.1,0.5,0.2,0.7,0.4c0.2,0.2,0.8,1.2,0.8,1.2l0.9-0.5l-0.2-1.3
						c0,0-0.3-0.7-0.3-0.9c0-0.3,0.1-0.9,0.1-0.9s-0.1-0.5-0.1-0.6C26.5,12.4,26.5,12.3,26.4,12.2z"/>
				</g>
			</g>
		</g>
		<g>
			<g>
				<path fill="#FFD15C" d="M22.6,13.3l-0.2-0.1c0,0,0-0.1-0.1-0.1l0-0.4c0,0,0.3-0.3,0.5,0.5L22.6,13.3z"/>
			</g>
		</g>
		<g>
			<g>
				<g>
					<path fill="#FFFFFF" d="M26.4,12.2c-0.4,0-0.1-0.4-0.1-0.4L26.4,12.2z"/>
				</g>
			</g>
		</g>
		<g>
			<g>
				<g>
					<path fill="#FFFFFF" d="M22.2,12.2c0,0,0.1-0.1,0.2-0.2c0,0,0.2,0.2,0.3,0.3c0,0.1-0.1,0.2-0.2,0.2
						C22.4,12.5,22.2,12.2,22.2,12.2z"/>
				</g>
			</g>
		</g>
		<g>
			<g>
				<g>
					<path fill="#FFFFFF" d="M23.3,11.9c0,0,0.1-0.1,0.2-0.1c0.1,0,0.2,0.2,0.2,0.2s-0.1,0.2-0.2,0.2C23.4,12.2,23.3,11.9,23.3,11.9
						z"/>
				</g>
			</g>
		</g>
		<g>
			<g>
				<g>
					<path fill="#FFFFFF" d="M22.3,12.6c0,0,0.2,0.1,0.2,0.2c0,0.2-0.2,0.2-0.2,0.2S22.3,12.7,22.3,12.6z"/>
				</g>
			</g>
		</g>
		<g>
			<g>
				<g>
					<path fill="#FFFFFF" d="M22.3,14.1c0,0.1-0.3-0.2-0.3-0.2v0c0-0.1,0.1-0.2,0.2-0.2C22.3,13.8,22.3,14.1,22.3,14.1z"/>
				</g>
			</g>
		</g>
	</g>
	<g>
		<g>
			<g>
				<path fill="#425A6B" d="M26.5,14.4c0,0-0.1,2.1-1.5,1.6c0,0,0.8,1.6,1,1.9c0.2,0.3,0.6,0.6,0.8,0.6c0.2,0,1.4-0.5,1.3-1.4
					c-0.2-0.9-1.1-2-1.1-2L26.5,14.4z"/>
			</g>
		</g>
	</g>
	<g>
		<g>
			<g>
				<path fill="#F26F5A" d="M31.8,47.7c0,0-1.1,0.2-1.8-0.2c-0.6-0.4-0.6-1.1-0.7-1.6c-0.1-0.2-0.2-0.4-0.4-0.7l0.1,1.2h-0.3
					c0,0,0-1.4-0.4-2.2l0,0c-0.1-0.1-0.1-0.2-0.2-0.3c-0.2-0.5,0-0.9,0.4-1.3c0,0-0.2,0.6,0,1.1c0.2,0.5,0.7,1.4,0.9,1.8
					c0.1,0.5,0.7,0.8,1.2,0.8c0.5,0,0.6-0.4,0.6-0.7c0,0,0.7,1.1,0.8,1.5C32.1,47.5,31.8,47.7,31.8,47.7z"/>
			</g>
		</g>
	</g>
</g>
</svg>
