<?xml version="1.0" encoding="utf-8"?>
<!-- Generator: Adobe Illustrator 19.0.1, SVG Export Plug-In . SVG Version: 6.00 Build 0)  -->
<svg version="1.1" id="Layer_1" xmlns="http://www.w3.org/2000/svg" xmlns:xlink="http://www.w3.org/1999/xlink" x="0px" y="0px"
	 viewBox="0 0 48 48" style="enable-background:new 0 0 48 48;" xml:space="preserve">
<style type="text/css">
	.st0{fill:#66C6B9;}
	.st1{fill:#F3F3F3;}
	.st2{fill:#415A6B;}
	.st3{fill:#CED6E0;}
	.st4{fill:#F3705A;}
	.st5{fill:#E8EAE9;}
	.st6{fill:#4ABAA5;}
	.st7{fill:#F05540;}
	.st8{fill:#FFD15C;}
	.st9{fill:#55C0EB;}
	.st10{fill:#8AD7F8;}
	.st11{fill:#344A5E;}
	.st12{fill:#FFFFFF;}
	.st13{fill:#F7B64C;}
	.st14{fill:#ADB3BA;}
	.st15{fill:#38A892;}
	.st16{fill:#ED9845;}
	.st17{fill:#2D4251;}
	.st18{fill:#304556;}
	.st19{fill:#A5AAAD;}
	.st20{fill:#2D4456;}
	.st21{fill:#4FB0E0;}
	.st22{fill:#2D4354;}
	.st23{fill:#E54C38;}
	.st24{fill:#2B4456;}
	.st25{fill:#2B404F;}
</style>
<g>
	<g>
		<g>
			<rect x="17.1" y="21.8" class="st3" width="13.9" height="11.1"/>
			<g>
				<g>
					<polygon class="st4" points="25.3,25.2 26.4,24.1 24.1,21.8 21.8,24.1 22.9,25.2 					"/>
				</g>
				<g>
					<polygon class="st4" points="26.1,32.9 25.3,25.2 22.9,25.2 22,32.9 					"/>
				</g>
			</g>
			<g>
				<rect x="20.2" y="14.8" class="st13" width="7.6" height="7"/>
			</g>
			<g>
				<g>
					<path class="st2" d="M31.1,8.5c0,3.8-3.2,6.9-7.1,6.9s-7.1-3.1-7.1-6.9C16.9,2.2,20.1,0,24,0S31.1,2.2,31.1,8.5z"/>
				</g>
				<g>
					<path class="st8" d="M27.4,3.3c-2.2,2.3-5.3,3.8-8.4,3.8c-0.3,0-0.6,0-0.9,0c-0.3,0.9-0.5,2-0.5,3.1c0,4.5,2.8,8.1,6.4,8.1
						s6.4-3.6,6.4-8.1C30.4,7.3,29.2,4.8,27.4,3.3z"/>
				</g>
				<g>
					<g>
						<ellipse transform="matrix(0.9839 0.179 -0.179 0.9839 2.4661 -5.2321)" class="st8" cx="30.2" cy="11.1" rx="1.2" ry="2.2"/>
					</g>
					<g>
						
							<ellipse transform="matrix(-0.9839 0.179 -0.179 -0.9839 37.2216 18.7501)" class="st8" cx="17.8" cy="11.1" rx="1.2" ry="2.2"/>
					</g>
				</g>
			</g>
			<g>
				<g>
					<g>
						<path class="st6" d="M39.4,32.9l-2.2-9.6c-0.4-1.6-1.6-2.8-3.2-3.2l-4.6-1.2l-2.5,14.1H39.4z"/>
					</g>
					<g>
						<path class="st5" d="M27.8,16.9c0,0-0.9,3-3.8,4.9l2.4,2.6l2.6-5L27.8,16.9z"/>
					</g>
					<g>
						<path class="st0" d="M28,32.9l3.6-8.8l-1.2-2l2.2-0.3l-4.4-4.1c-0.2,3.9-1,9.3-2.2,15.2H28z"/>
					</g>
				</g>
				<g>
					<g>
						<path class="st6" d="M21.2,32.9l-2.5-14.1L14,20c-1.6,0.4-2.8,1.7-3.2,3.2l-2.2,9.6H21.2z"/>
					</g>
					<g>
						<path class="st5" d="M20.2,16.9c0,0,0.9,3,3.8,4.9l-2.4,2.6l-2.6-5L20.2,16.9z"/>
					</g>
					<g>
						<path class="st0" d="M16.4,24.1l3.6,8.8h2c-1.1-5.9-2-11.2-2.2-15.2l-4.4,4.1l2.2,0.3L16.4,24.1z"/>
					</g>
				</g>
			</g>
		</g>
		<g>
			<g>
				<g>
					<path class="st2" d="M13,32.3c-1-1.3-2.5-2.2-4.3-2.2c-1.8,0-3.3,0.9-4.3,2.2H13z"/>
				</g>
			</g>
			<g>
				<g>
					<polygon class="st2" points="9.1,30.3 8.3,30.3 8.3,23.5 14.2,18.9 14.7,19.5 9.1,23.9 					"/>
				</g>
			</g>
			<g>
				<g>
					
						<ellipse transform="matrix(0.6065 0.7951 -0.7951 0.6065 20.9786 -3.9451)" class="st11" cx="14.5" cy="19.2" rx="1.6" ry="2.1"/>
				</g>
			</g>
		</g>
		<g>
			<g>
				<polygon class="st5" points="45.2,31.6 42,37 6,37 2.8,31.6 				"/>
			</g>
			<g>
				<rect x="6.9" y="37" class="st3" width="34.2" height="11"/>
			</g>
			<g>
				<path class="st5" d="M34.5,46.6V48h-21v-1.4c1.8-1.6,2.9-2.6,4.7-4.2h11.5C31.6,44,32.6,44.9,34.5,46.6z"/>
			</g>
		</g>
	</g>
</g>
</svg>
