<?xml version="1.0" encoding="utf-8"?>
<!-- Generator: Adobe Illustrator 18.0.0, SVG Export Plug-In . SVG Version: 6.00 Build 0)  -->
<!DOCTYPE svg PUBLIC "-//W3C//DTD SVG 1.1//EN" "http://www.w3.org/Graphics/SVG/1.1/DTD/svg11.dtd">
<svg version="1.1" id="Layer_1" xmlns="http://www.w3.org/2000/svg" xmlns:xlink="http://www.w3.org/1999/xlink" x="0px" y="0px"
	 viewBox="0 0 48 48" enable-background="new 0 0 48 48" xml:space="preserve">
<g>
	<g>
		<g>
			<g>
				<ellipse fill="#FFFFFF" cx="17.5" cy="30.6" rx="10" ry="10"/>
			</g>
			<g>
				<path fill="#F3705A" d="M30.7,29l4.3-3l-1.8-4.4L28,22.5c-0.7-0.9-1.5-1.7-2.3-2.3l0.9-5.1l-4.4-1.8l-3,4.2
					c-1.1-0.1-2.2-0.2-3.3,0l-3-4.2L8.5,15l0.9,5.1c-0.9,0.7-1.7,1.5-2.4,2.3l-5.1-0.9L0,25.9l4.2,3c-0.1,1.1-0.1,2.2,0,3.3l-4.2,3
					l1.8,4.4l5.1-0.9c0.7,0.9,1.5,1.7,2.3,2.3l-0.9,5.1l4.4,1.8l3-4.2c1.1,0.1,2.2,0.1,3.3,0l3,4.2l4.4-1.8l-0.8-5.1
					c0.9-0.7,1.7-1.5,2.4-2.3l5.1,0.9l1.8-4.4l-4.2-3C30.8,31.2,30.8,30.1,30.7,29z M17.5,40.6c-5.5,0-10-4.5-10-10
					c0-5.5,4.5-10,10-10s10,4.5,10,10C27.5,36.1,23,40.6,17.5,40.6z"/>
			</g>
			<g>
				<path fill="#344A5E" d="M25.4,36.3c-0.1-0.8-0.7-1.4-1.4-1.7l-3.1-1.1l-3.4,1.1L14,33.6L11,34.7c-0.7,0.3-1.3,0.9-1.4,1.7l0,0.3
					c1.8,2.4,4.7,3.9,7.9,3.9h0c3.2,0,6.1-1.5,7.9-3.9L25.4,36.3z"/>
				<path fill="#CED6E0" d="M17.5,40.6c1,0,1.9-0.1,2.8-0.4l-0.4-5.8l-2.4,1.1l-2.1-1.3c0,0-1,4.8-0.3,6.1
					C15.8,40.4,16.6,40.6,17.5,40.6L17.5,40.6z"/>
				<g>
					<path fill="#55C0EB" d="M16.2,40.5c0.4,0.1,0.9,0.1,1.3,0.1h0c0.4,0,0.9,0,1.3-0.1l-0.6-3h-1.4L16.2,40.5z"/>
					<polygon fill="#55C0EB" points="18.2,37.5 18.9,36.8 17.5,35.4 16.1,36.8 16.7,37.5 					"/>
				</g>
				<path fill="#F7B64C" d="M15.1,29.6v2.6c0.5,1.3,2.4,3.1,2.4,3.1l2.4-3.1v-2.6H15.1z"/>
				<g>
					<g>
						<g>
							<path fill="#FFD15C" d="M21.5,29.5c-0.1,0.7-0.6,1.1-1,1c-0.4-0.1-0.6-0.8-0.5-1.4c0.1-0.6,0.6-1,1-0.9
								C21.4,28.3,21.6,28.9,21.5,29.5z"/>
						</g>
						<g>
							<path fill="#FFD15C" d="M13.4,29.5c0.1,0.7,0.6,1.1,1,1c0.4-0.1,0.6-0.8,0.5-1.4c-0.1-0.6-0.6-1-1-0.9
								C13.5,28.3,13.3,28.9,13.4,29.5z"/>
						</g>
					</g>
					<g>
						<path fill="#344A5E" d="M21.3,26.8c0,1.1-0.1,2.1-0.6,3.3l-6.5,0.1c-0.4-1.1-0.5-2.3-0.5-3.3c0-2.9,1.6-3.9,3.8-3.9
							C19.7,23,21.3,23.9,21.3,26.8z"/>
					</g>
				</g>
				<g>
					<path fill="#FFD15C" d="M18.5,25.8c-0.7,0.8-1.7,1.4-3.1,1.4c-0.4,0-0.8-0.1-1.2-0.2c-0.1,0.5-0.2,1.1-0.2,1.7
						c0,2.6,1.5,4.7,3.5,4.7c1.9,0,3.5-2.1,3.5-4.7c0-0.6-0.1-1.1-0.2-1.6C19.7,27,19,26.5,18.5,25.8z"/>
				</g>
				<g>
					<g>
						<g>
							<g>
								<polygon fill="#F3F3F3" points="15.1,32.3 17.5,35.4 15.8,37.1 14.3,33.4 								"/>
							</g>
						</g>
						<path fill="#415A6B" d="M14.7,32.9l-2.8,2.7l1.9,1.2L12.5,38l1.3,1.9c0.8,0.3,1.7,0.5,2.6,0.6L14.7,32.9z"/>
					</g>
					<g>
						<g>
							<g>
								<polygon fill="#F3F3F3" points="19.8,32.3 17.5,35.4 19.2,37.1 20.6,33.4 								"/>
							</g>
						</g>
						<path fill="#415A6B" d="M20.3,32.9l-1.7,7.6c0.9-0.1,1.8-0.3,2.6-0.6l1.3-1.9l-1.3-1.2l1.9-1.2L20.3,32.9z"/>
					</g>
				</g>
			</g>
		</g>
		<g>
			<g>
				<g>
					<path fill="#F7B64C" d="M34,17.4c-3.3-1.4-4.8-5.1-3.4-8.4c1.4-3.3,5.2-4.8,8.4-3.4c3.3,1.4,4.8,5.1,3.4,8.4
						C41,17.3,37.2,18.8,34,17.4z"/>
				</g>
				<g>
					<path fill="#FFD15C" d="M44.7,13.8l3.3-0.7l0-3.1l-3.3-0.8c-0.2-0.7-0.5-1.3-0.8-2l1.8-2.8l-2.1-2.2l-2.8,1.7
						c-0.6-0.4-1.3-0.6-2-0.8L38.1,0L35,0l-0.8,3.2c-0.7,0.2-1.4,0.4-2,0.8l-2.8-1.8l-2.2,2.1L29,7.2c-0.4,0.6-0.6,1.3-0.8,2
						l-3.3,0.7l0,3.1l3.3,0.8c0.2,0.7,0.5,1.3,0.8,2l-1.8,2.8l2.1,2.2l2.8-1.7c0.6,0.4,1.3,0.6,2,0.8l0.7,3.3l3.1,0l0.8-3.2
						c0.7-0.2,1.3-0.5,2-0.8l2.8,1.8l2.2-2.1l-1.7-2.8C44.2,15.2,44.5,14.5,44.7,13.8z M34,17.4c-3.3-1.4-4.8-5.1-3.4-8.4
						c1.4-3.3,5.2-4.8,8.4-3.4c3.3,1.4,4.8,5.1,3.4,8.4C41,17.3,37.2,18.8,34,17.4z"/>
				</g>
			</g>
			<g>
				<path fill="#FFD15C" d="M36,15.6v-0.7c-0.8-0.1-1.6-0.5-2.3-1.1l0.9-1.1c0.5,0.5,1,0.7,1.4,0.9V12c-0.7-0.2-1.2-0.4-1.5-0.7
					C34.2,11,34,10.5,34,10c0-0.6,0.2-1,0.6-1.4C34.9,8.2,35.4,8,36,7.9V7.4h1.1v0.5c0.7,0.1,1.3,0.4,2,0.8l-0.8,1.2
					c-0.4-0.3-0.8-0.5-1.2-0.6v1.4c0.7,0.2,1.3,0.4,1.6,0.7c0.3,0.3,0.5,0.8,0.5,1.3c0,0.6-0.2,1-0.6,1.4c-0.4,0.4-0.9,0.6-1.5,0.7
					v0.7H36z M36,9.3c-0.3,0.1-0.4,0.3-0.4,0.5c0,0.3,0.1,0.5,0.4,0.6V9.3z M37.6,12.9c0-0.1,0-0.3-0.1-0.3
					c-0.1-0.1-0.2-0.2-0.4-0.3v1.2C37.4,13.4,37.6,13.2,37.6,12.9z"/>
			</g>
		</g>
	</g>
</g>
</svg>
