<?xml version="1.0" encoding="utf-8"?>
<!-- Generator: Adobe Illustrator 19.0.1, SVG Export Plug-In . SVG Version: 6.00 Build 0)  -->
<svg version="1.1" id="Layer_1" xmlns="http://www.w3.org/2000/svg" xmlns:xlink="http://www.w3.org/1999/xlink" x="0px" y="0px"
	 viewBox="0 0 48 48" style="enable-background:new 0 0 48 48;" xml:space="preserve">
<style type="text/css">
	.st0{fill:#FFD15C;}
	.st1{fill:#F7B64C;}
	.st2{fill:#344A5E;}
	.st3{fill:#E8EAE9;}
	.st4{fill:#415A6B;}
	.st5{fill:#55C0EB;}
	.st6{fill:#8AD7F8;}
	.st7{fill:#66C6B9;}
	.st8{fill:#F3705A;}
	.st9{fill:#FFFFFF;}
</style>
<g>
	<g>
		<g>
			<g>
				<g>
					<g>
						<g>
							<path class="st0" d="M22.5,17c-0.3,0.9-0.9,1.6-1.5,1.5c-0.5-0.1-0.7-1-0.4-1.9c0.3-0.9,0.9-1.6,1.5-1.5
								C22.6,15.2,22.8,16.1,22.5,17z"/>
						</g>
						<g>
							<path class="st0" d="M11.6,17c0.3,0.9,0.9,1.6,1.5,1.5c0.5-0.1,0.7-1,0.4-1.9S12.6,15,12,15.1C11.5,15.2,11.3,16.1,11.6,17z"
								/>
						</g>
					</g>
					<g>
						<path class="st0" d="M11.1,24.4l2.4-2.3c0,0-0.6-2.7-0.6-3.3c0-0.6-1.5-4.6-0.9-6.7c0.6-2,0.6-3.6,3.9-3.7s4,1.1,5.1,2.3
							c1.1,1.3,0.8,5.4,0.8,6.1c0,0.7-0.7,4.4-1.7,5.7v1.1l2.7,4l0.1,4.3l-2.5,0.3L9.6,30L11.1,24.4z"/>
					</g>
					<path class="st1" d="M22.8,27.7l-2.7-4v-1.1c0,0-3.5,3-6.6-0.4c0,0,2,5.1,9.3,6.4V27.7z"/>
					<g>
						<g>
							<path class="st2" d="M30.2,40c-0.5-0.9-1.5-4-1.5-6S28,29.3,28,29.3l-1.9,1.5c0,0-0.3,5.1-0.6,9.2H30.2z"/>
						</g>
						<g>
							<path class="st3" d="M24.1,40l-2-13.5h-0.5c-0.2,0.4-0.6,0.8-1.1,1.2c-2,1.5-4.7,1.5-6.7,0.1c-0.4-0.3-0.8-0.7-1-1.1h-1.1
								c-0.5,3.2-1.2,8.3-2,13.4L24.1,40L24.1,40z"/>
						</g>
						<g>
							<path class="st4" d="M22.5,40h4.2c0.2-1.2,0.3-2.3,0.5-2.9c0.5-2.2,0.7-7.8,0.7-7.8s-5.3-3.2-6.3-4.2c-0.9-1-1.6-1.5-1.6-1.5
								s1.3,2.5,1.4,4.9C21.6,30.3,22.1,35.8,22.5,40z"/>
						</g>
					</g>
				</g>
				<g>
					<path class="st4" d="M3.6,39.6c0,0.1,0,0.3,0,0.4h9.5c-0.1-4-0.2-10.7-0.3-12.6c-0.2-2.5,0.6-5.3,0.6-5.3
						c-1.6,0.7-2.3,2.2-4.1,2.6C7.6,25,2.4,27,2.4,27s1.1,3,1.4,5.4C4.2,34.8,3.6,39.6,3.6,39.6z"/>
				</g>
				<g>
					<path class="st2" d="M0,40h6.3c0.1-1.6,0.2-3.4,0.1-4.6c-0.1-1,0.1-1.9,0.2-2.9c0.1-0.6,0-1.3-0.2-2c-0.4-1.7-1.7-3-3.4-3.3
						L2.4,27c0,0-1.1,0-1.1,2.4s0.4,2.1-0.3,5.2C0.7,36,0.3,38.1,0,40z"/>
				</g>
			</g>
			<g>
				<g>
					<g>
						<g>
							<path class="st5" d="M44,48l-1.5-6.8c-0.4-1.9-1.9-3.3-3.9-3.6l-2.3-0.3c-0.8-0.7-4-1.6-6.7-2.5L23,36.3l-3.8,1.1
								c-1.6,0.5-2.9,1.8-3.3,3.5L14.4,48H44z"/>
						</g>
						<g>
							<g>
								<path class="st0" d="M35.1,26.8c0,0-1.1,5.9-1.1,8h-7.8c0-2.1-1.1-8-1.1-8l5-0.6l0,0l0,0l0,0l0,0L35.1,26.8z"/>
							</g>
						</g>
						<g>
							<g>
								<path class="st0" d="M36.1,26.7c-0.1,1-0.7,1.8-1.2,1.7s-0.9-1-0.8-2c0.1-1,0.7-1.8,1.2-1.7S36.2,25.7,36.1,26.7z"/>
							</g>
							<g>
								<path class="st0" d="M24.1,26.7c0.1,1,0.7,1.8,1.2,1.7c0.6-0.1,0.9-1,0.8-2s-0.7-1.8-1.2-1.7C24.3,24.8,24,25.7,24.1,26.7z"
									/>
							</g>
						</g>
						<g>
							<path class="st4" d="M27.5,30.6c1.6,0.4,3.3,0.4,4.9-0.1c0.6-0.2,1.1-0.6,1.4-1.1c0.6-0.9,1.5-2.7,2-5c0.8-3.6-0.7-5.4-1-5.9
								s-4.1-3.1-8.5-1.1c-1.2,0.5-2,1.7-2.2,2.9C24,21.5,24,23,24.5,24.6c0.6,1.8,1.1,3.5,1.4,4.5C26.1,29.9,26.8,30.4,27.5,30.6z"
								/>
						</g>
						<g>
							<path class="st3" d="M25.2,34.8c0,0,0.4-2.1,2.2-2.6c1.8-0.5,4.6,0.5,4.9,0.5c0.8,0.2,1.7,1.2,2.2,3l-9.6-0.5L25.2,34.8z"/>
						</g>
						<g>
							<path class="st6" d="M23.1,36.3c0,0,0.6-0.3,1.4-1c0.7-0.7,1.1-1.3,2.9-1.5s4.8,0.4,5.7,0.6c0.9,0.2,1.9,1.7,2.4,2
								s1,0.9,1,0.9s-0.7-0.4-1.6-0.6S30.6,36,29.3,36c-1.3,0-4.2,0.1-5,0.1C23.4,36.1,23.1,36.3,23.1,36.3z"/>
						</g>
					</g>
				</g>
			</g>
		</g>
		<g>
			<path class="st7" d="M35.9,6.7c0,3.7-3.1,6.7-7,6.7c-0.6,0-1.2-0.1-1.7-0.2L23,17.1l1.6-5.1C23,10.8,22,8.9,22,6.7
				C22,3,25.1,0,28.9,0C32.8,0,35.9,3,35.9,6.7z"/>
		</g>
		<g>
			<g>
				<path class="st8" d="M48,14.3c0,3.6-3,6.6-6.8,6.7l-4.3,4l1.4-4.5c-2.5-1-4.3-3.4-4.3-6.2c0-3.7,3.1-6.7,7-6.7
					C44.9,7.5,48,10.5,48,14.3z"/>
			</g>
			<g>
				<g>
					<path class="st9" d="M39.2,17.1l-2-2c-0.4-0.4-0.4-1,0-1.4l0,0c0.4-0.4,1-0.4,1.4,0l1.3,1.3l3.6-3.6c0.4-0.4,1-0.4,1.4,0l0,0
						c0.4,0.4,0.4,1,0,1.4l-4.3,4.3C40.2,17.5,39.5,17.5,39.2,17.1z"/>
				</g>
			</g>
		</g>
		<g>
			<g>
				<rect x="25.7" y="3.4" class="st9" width="6.5" height="1.3"/>
			</g>
			<g>
				<rect x="24.6" y="6.1" class="st9" width="8.6" height="1.3"/>
			</g>
			<g>
				<rect x="25.7" y="8.8" class="st9" width="6.5" height="1.3"/>
			</g>
		</g>
		<g>
			<path class="st4" d="M22.3,12.8c0,1.3-0.6,3.2-0.8,3.7h-0.2c0,0-0.3-4.2-0.6-4.8c-0.3-0.7-1.2-1.1-2.6-0.5
				c-1.4,0.5-3.8-0.3-4.3,0.2c-0.5,0.4-0.7,1.5-0.5,2.5c0.2,0.9-0.6,2.5-0.6,2.7l0,0h-0.2c-0.8-2.4-2.3-8.6,4.2-9
				C20.8,7.3,22.2,11.3,22.3,12.8z"/>
		</g>
	</g>
</g>
</svg>
