<?xml version="1.0" encoding="utf-8"?>
<!-- Generator: Adobe Illustrator 18.0.0, SVG Export Plug-In . SVG Version: 6.00 Build 0)  -->
<!DOCTYPE svg PUBLIC "-//W3C//DTD SVG 1.1//EN" "http://www.w3.org/Graphics/SVG/1.1/DTD/svg11.dtd">
<svg version="1.1" id="Layer_1" xmlns="http://www.w3.org/2000/svg" xmlns:xlink="http://www.w3.org/1999/xlink" x="0px" y="0px"
	 viewBox="0 0 48 48" enable-background="new 0 0 48 48" xml:space="preserve">
<g>
	<g>
		<path fill="#F3F3F3" d="M48,11.5V45c0,1.7-1.3,3-3,3H3c-1.7,0-3-1.3-3-3V11.5H48z"/>
		<g>
			<path fill="#F3705A" d="M48,11.5V3c0-1.7-1.3-3-3-3H3C1.3,0,0,1.3,0,3v8.5H48z"/>
			<g>
				<g>
					<circle fill="#FFFFFF" cx="6.3" cy="5.7" r="2.3"/>
				</g>
				<g>
					<g>
						<circle fill="#8AD7F8" cx="12.6" cy="5.7" r="2.3"/>
					</g>
					<g>
						<circle fill="#FFD15C" cx="18.8" cy="5.7" r="2.3"/>
					</g>
				</g>
			</g>
		</g>
		<g>
			<g>
				<path fill="#F3F3F3" d="M37.6,41.6c1.3-2.3,2.1-5,2.1-7.9C39.7,25,32.7,18,24,18c-8.7,0-15.7,7-15.7,15.7c0,2.9,0.8,5.6,2.1,7.9
					H37.6z"/>
				<g>
					<polygon fill="#F3705A" points="26.9,36.5 21.1,36.5 24,26.4 					"/>
				</g>
				<g>
					<path fill="#55C0EB" d="M28.6,40.6c0-0.2,0.1-0.5,0.1-0.7c0-2.6-2.1-4.7-4.7-4.7s-4.7,2.1-4.7,4.7c0,0.2,0,0.5,0.1,0.7H28.6z"
						/>
				</g>
				<path fill="#415A6B" d="M37.6,43.4H10.4c-0.7,0-1.3-0.3-1.6-0.9c-1.6-2.7-2.4-5.7-2.4-8.8c0-9.7,7.9-17.5,17.5-17.5
					S41.5,24,41.5,33.7c0,3.1-0.8,6.1-2.4,8.8C38.8,43.1,38.2,43.4,37.6,43.4z M11.5,39.7h24.9c0.9-1.9,1.4-3.9,1.4-6
					c0-7.6-6.2-13.9-13.9-13.9s-13.9,6.2-13.9,13.9C10.1,35.8,10.6,37.8,11.5,39.7z"/>
			</g>
			<g>
				<circle fill="#CED6E0" cx="24" cy="22.7" r="1.2"/>
			</g>
			<g>
				<circle fill="#CED6E0" cx="16.3" cy="25.8" r="1.2"/>
			</g>
			<g>
				<circle fill="#CED6E0" cx="13" cy="33.5" r="1.2"/>
			</g>
			<g>
				<circle fill="#CED6E0" cx="34.8" cy="33.7" r="1.2"/>
			</g>
			<g>
				<circle fill="#CED6E0" cx="31.7" cy="25.9" r="1.2"/>
			</g>
		</g>
	</g>
</g>
</svg>
