<?xml version="1.0" encoding="utf-8"?>
<!-- Generator: Adobe Illustrator 18.0.0, SVG Export Plug-In . SVG Version: 6.00 Build 0)  -->
<!DOCTYPE svg PUBLIC "-//W3C//DTD SVG 1.1//EN" "http://www.w3.org/Graphics/SVG/1.1/DTD/svg11.dtd">
<svg version="1.1" id="Layer_1" xmlns="http://www.w3.org/2000/svg" xmlns:xlink="http://www.w3.org/1999/xlink" x="0px" y="0px"
	 viewBox="0 0 512 512" enable-background="new 0 0 512 512" xml:space="preserve">
<g>
	<path fill="#4CDBC4" d="M488.8,2H23.2C11.5,2,2,11.5,2,23.2v102.1h508V23.2C510,11.5,500.5,2,488.8,2z"/>
	<path fill="#F2F2F2" d="M2,125.3v363.6c0,11.7,9.5,21.2,21.2,21.2h465.7c11.7,0,21.2-9.5,21.2-21.2V125.3H2z"/>
	<rect x="41.1" y="164.4" fill="#FFFFFF" width="429.7" height="306.5"/>
	<circle fill="#FFFFFF" cx="63.6" cy="63.6" r="21.6"/>
	<circle fill="#F2F2F2" cx="136.6" cy="63.6" r="21.6"/>
	<circle fill="#FF7058" cx="209.6" cy="63.6" r="21.6"/>
	<g>
		<polygon fill="#40596B" points="306.6,276.4 185,207.3 75.6,254.8 69.3,240.2 185.9,189.6 306.9,258.3 435.4,191.4 442.7,205.5 		
			"/>
	</g>
	<circle fill="#40596B" cx="71.6" cy="245.3" r="23.2"/>
	<circle fill="#40596B" cx="438.9" cy="197.9" r="23.2"/>
	<circle fill="#40596B" cx="307.1" cy="265.5" r="23.2"/>
	<circle fill="#40596B" cx="185.4" cy="199.6" r="23.2"/>
	<circle fill="#FFFFFF" cx="438.9" cy="197.9" r="10.3"/>
	<circle fill="#FFFFFF" cx="307.1" cy="265.5" r="10.3"/>
	<circle fill="#FFFFFF" cx="185.4" cy="199.6" r="10.3"/>
	<circle fill="#FFFFFF" cx="71.6" cy="245.3" r="10.3"/>
	<path fill="#84DBFF" d="M71.6,279.1c-0.7,0-1.3-0.2-2-0.2v192h75.1V236.3l-40.6,17.6C100.3,268.5,87.1,279.1,71.6,279.1z"/>
	<path fill="#F2F2F2" d="M185.4,233.3c-6.1,0-11.9-1.8-17.1-4.8v242.3h75.1V252.6L201.8,229C196.8,231.8,191.2,233.3,185.4,233.3z"
		/>
	<path fill="#FFD15C" d="M307.1,299.3c-17.2,0-31.4-12.9-33.5-29.5L267,266v204.8h75.1V269.8l-1.7,0.9
		C337.9,286.8,323.9,299.3,307.1,299.3z"/>
	<path fill="#CDD6E0" d="M423,227.6l-57.3,29.9v213.4h75.1V231.5c-0.7,0-1.3,0.2-2,0.2C433.3,231.7,427.9,230.3,423,227.6z"/>
</g>
</svg>
