<?xml version="1.0" encoding="utf-8"?>
<!-- Generator: Adobe Illustrator 18.0.0, SVG Export Plug-In . SVG Version: 6.00 Build 0)  -->
<!DOCTYPE svg PUBLIC "-//W3C//DTD SVG 1.1//EN" "http://www.w3.org/Graphics/SVG/1.1/DTD/svg11.dtd">
<svg version="1.1" id="Layer_1" xmlns="http://www.w3.org/2000/svg" xmlns:xlink="http://www.w3.org/1999/xlink" x="0px" y="0px"
	 viewBox="0 0 48 48" enable-background="new 0 0 48 48" xml:space="preserve">
<g>
	<g>
		<g>
			<path fill="#F7B64C" d="M42.7,0H15.1c-1.3,0-2.4,1.1-2.4,2.4v32.9c0,1.3,1.1,2.4,2.4,2.4h27.5c1.3,0,2.4-1.1,2.4-2.4V2.4
				C45,1.1,44,0,42.7,0z"/>
			<rect x="16.7" y="3.9" fill="#FFFFFF" width="24.4" height="24.4"/>
			<g>
				<path fill="#F05540" d="M35,7.2c-1,0.4-1.6,1.5-1.6,2.5c-0.7-0.8-1.9-1.1-2.9-0.6c-1.3,0.5-1.9,2.1-1.4,3.4
					c1.4,3.4,6.9,3.6,6.9,3.6s3.7-4.1,2.3-7.5C37.8,7.3,36.3,6.6,35,7.2z"/>
				<path fill="#F3705A" d="M30.7,11.9c-1.7,0-3.2,1.1-3.8,2.7c-0.6-1.6-2-2.7-3.8-2.7c-2.2,0-4,1.8-4,4c0,5.7,7.8,9.4,7.8,9.4
					s7.8-3.7,7.8-9.4C34.7,13.7,32.9,11.9,30.7,11.9z"/>
			</g>
		</g>
		<g>
			<path fill="#FFD15C" d="M32.9,10.4H5.3C4,10.4,3,11.4,3,12.7v32.9C3,46.9,4,48,5.3,48h27.5c1.3,0,2.4-1.1,2.4-2.4V12.7
				C35.2,11.4,34.2,10.4,32.9,10.4z"/>
			<rect x="6.9" y="14.3" fill="#FFFFFF" width="24.4" height="24.4"/>
			<g>
				<path fill="#F05540" d="M25.2,17.5c-1,0.4-1.6,1.5-1.6,2.5c-0.7-0.8-1.9-1.1-2.9-0.6c-1.3,0.5-1.9,2.1-1.4,3.4
					c1.4,3.4,6.9,3.6,6.9,3.6s3.7-4.1,2.3-7.5C28,17.6,26.5,17,25.2,17.5z"/>
				<path fill="#F3705A" d="M20.9,22.3c-1.7,0-3.2,1.1-3.8,2.7c-0.6-1.6-2-2.7-3.8-2.7c-2.2,0-4,1.8-4,4c0,5.7,7.8,9.4,7.8,9.4
					s7.8-3.7,7.8-9.4C24.9,24.1,23.1,22.3,20.9,22.3z"/>
			</g>
		</g>
	</g>
</g>
</svg>
