<?xml version="1.0" encoding="utf-8"?>
<!-- Generator: Adobe Illustrator 18.0.0, SVG Export Plug-In . SVG Version: 6.00 Build 0)  -->
<!DOCTYPE svg PUBLIC "-//W3C//DTD SVG 1.1//EN" "http://www.w3.org/Graphics/SVG/1.1/DTD/svg11.dtd">
<svg version="1.1" id="Layer_1" xmlns="http://www.w3.org/2000/svg" xmlns:xlink="http://www.w3.org/1999/xlink" x="0px" y="0px"
	 viewBox="0 0 48 48" enable-background="new 0 0 48 48" xml:space="preserve">
<g>
	<rect x="2.6" y="0" fill="#334A5E" width="42.9" height="7.8"/>
	<path fill="#40596B" d="M45.4,7.8c-14.3,0-28.6,0-42.9,0c-3.4,12.4-3.4,27.8,0,40.2c5.9,0,11.9,0,17.8,0L24,33l3.6,15
		c5.9,0,11.9,0,17.8,0C48.9,35.6,48.9,20.2,45.4,7.8z"/>
	<path fill="#4CDBC4" d="M45.4,48H27.6L24,33l-3.6,15H2.6c-2.1-7.5-2.9-16.1-2.5-24.5c0.1-1,0.1-2,0.2-3c0.4-4.4,1.1-8.7,2.3-12.7
		h42.9c1.1,4,1.8,8.3,2.2,12.7c0.1,1,0.2,2,0.2,3C48.3,31.9,47.5,40.5,45.4,48z"/>
	<rect x="5.9" y="0" fill="#40596B" width="3.3" height="7.8"/>
	<rect x="12.5" y="0" fill="#40596B" width="3.3" height="7.8"/>
	<rect x="19.1" y="0" fill="#40596B" width="3.3" height="7.8"/>
	<rect x="25.7" y="0" fill="#40596B" width="3.3" height="7.8"/>
	<rect x="32.3" y="0" fill="#40596B" width="3.3" height="7.8"/>
	<rect x="38.9" y="0" fill="#40596B" width="3.3" height="7.8"/>
	<g>
		<path fill="#F2F2F2" d="M15.5,7.8c0,7.1-5.8,12.9-12.9,12.9c-0.8,0-1.5-0.1-2.3-0.2c-0.1,1-0.2,2-0.2,3c0.8,0.1,1.6,0.2,2.5,0.2
			c8.8,0,15.9-7.1,15.9-15.9H15.5z"/>
	</g>
	<g>
		<path fill="#F2F2F2" d="M47.7,20.5c-0.7,0.1-1.5,0.2-2.2,0.2c-7.1,0-12.9-5.8-12.9-12.9h-3c0,8.8,7.1,15.9,15.9,15.9
			c0.8,0,1.6-0.1,2.4-0.2C47.8,22.6,47.8,21.5,47.7,20.5z"/>
	</g>
	<path fill="#334A5E" d="M45.4,20.7c0.8,0,1.5-0.1,2.2-0.2c-0.4-4.4-1.1-8.7-2.2-12.7H32.5C32.5,14.9,38.3,20.7,45.4,20.7z"/>
	<path fill="#334A5E" d="M2.6,20.7c-0.8,0-1.5-0.1-2.2-0.2c0.4-4.4,1.1-8.7,2.2-12.7h12.9C15.5,14.9,9.7,20.7,2.6,20.7z"/>
</g>
</svg>
