<?xml version="1.0" encoding="utf-8"?>
<!-- Generator: Adobe Illustrator 18.0.0, SVG Export Plug-In . SVG Version: 6.00 Build 0)  -->
<!DOCTYPE svg PUBLIC "-//W3C//DTD SVG 1.1//EN" "http://www.w3.org/Graphics/SVG/1.1/DTD/svg11.dtd">
<svg version="1.1" id="Layer_1" xmlns="http://www.w3.org/2000/svg" xmlns:xlink="http://www.w3.org/1999/xlink" x="0px" y="0px"
	 viewBox="0 0 48 48" enable-background="new 0 0 48 48" xml:space="preserve">
<g>
	<g>
		<g>
			<g>
				<g>
					<path fill="#F3F3F3" d="M1.7,20.5c0,5.7,2.4,10.9,6.1,14.6c3.5,3.4,5.4,8.1,5.7,12.9h21.9v-5.5h4c1.8,0,3.3-1.5,3.3-3.3v-7h3.4
						c1,0,1.7-1,1.2-1.9l-4.6-9.8c0-5.7-2.3-10.8-6-14.5C33,2.3,27.9,0,22.2,0C16.6,0,11.4,2.3,7.7,6C4,9.7,1.7,14.8,1.7,20.5z"/>
				</g>
			</g>
		</g>
		<g>
			<g>
				<g>
					<path fill="#66C6B9" d="M34.1,16.9c-2.4,3.7-6.7,5.4-10.4,3.3c-3.7-2.1-5.5-7.2-3.1-11C22.3,5,39.7-0.4,40.1,0
						C39.7-0.4,35.9,12.6,34.1,16.9z"/>
				</g>
				<g>
					<path fill="#415A6B" d="M33.4,5.5C26,13.4,21.7,23.8,21.5,35c-0.6-0.3-1.2-0.7-1.8-1C20.5,23.1,25.4,13,33.4,5.5z"/>
				</g>
			</g>
			<g>
				<g>
					<path fill="#66C6B9" d="M8,22c2.5,2.6,6.2,3.3,8.8,1c2.6-2.3,3.2-6.6,0.8-9.2c-2.1-3.1-16.7-4.6-17-4.2C0.8,9.2,5.9,18.9,8,22z
						"/>
				</g>
				<g>
					<path fill="#415A6B" d="M21.2,30.2C18.4,23.1,13.4,17,6.8,12.9c6.4,4.6,11.2,11.3,13.4,19.1C20.5,31.3,20.8,30.7,21.2,30.2z"/>
				</g>
			</g>
		</g>
	</g>
</g>
</svg>
