<?xml version="1.0" encoding="utf-8"?>
<!-- Generator: Adobe Illustrator 18.0.0, SVG Export Plug-In . SVG Version: 6.00 Build 0)  -->
<!DOCTYPE svg PUBLIC "-//W3C//DTD SVG 1.1//EN" "http://www.w3.org/Graphics/SVG/1.1/DTD/svg11.dtd">
<svg version="1.1" id="Layer_1" xmlns="http://www.w3.org/2000/svg" xmlns:xlink="http://www.w3.org/1999/xlink" x="0px" y="0px"
	 viewBox="0 0 512 512" enable-background="new 0 0 512 512" xml:space="preserve">
<g>
	<rect x="249.3" y="2" fill="#40596B" width="13.4" height="109.1"/>
	<rect x="262.7" y="2" fill="#F2F2F2" width="78.8" height="61.8"/>
	<path fill="#F2F2F2" d="M466.9,234.8v254c0,11.6-9.4,21.2-21.2,21.2H66.2c-11.6,0-21.2-9.5-21.2-21.2v-254H466.9z"/>
	<path fill="#FFD15C" d="M454.1,152.4H57.9c-7.9,0-15.1,4.4-18.8,11.4L2,234.8h508l-37.1-71C469.2,156.8,462,152.4,454.1,152.4z"/>
	<rect x="203.5" y="377.8" fill="#ACB3BA" width="105" height="132.1"/>
	<rect x="76.8" y="266.6" fill="#CDD6E0" width="33.2" height="33.2"/>
	<rect x="122.7" y="266.6" fill="#CDD6E0" width="33.2" height="33.2"/>
	<rect x="76.8" y="311.5" fill="#CDD6E0" width="33.2" height="33.2"/>
	<rect x="122.7" y="311.5" fill="#CDD6E0" width="33.2" height="33.2"/>
	<rect x="216.4" y="266.6" fill="#CDD6E0" width="33.2" height="33.2"/>
	<rect x="262.3" y="266.6" fill="#CDD6E0" width="33.2" height="33.2"/>
	<rect x="216.4" y="311.5" fill="#CDD6E0" width="33.2" height="33.2"/>
	<rect x="262.3" y="311.5" fill="#CDD6E0" width="33.2" height="33.2"/>
	<rect x="356.1" y="266.6" fill="#CDD6E0" width="33.2" height="33.2"/>
	<rect x="402" y="266.6" fill="#CDD6E0" width="33.2" height="33.2"/>
	<rect x="356.1" y="311.5" fill="#CDD6E0" width="33.2" height="33.2"/>
	<rect x="402" y="311.5" fill="#CDD6E0" width="33.2" height="33.2"/>
	<rect x="76.8" y="400.1" fill="#CDD6E0" width="33.2" height="33.2"/>
	<rect x="122.7" y="400.1" fill="#CDD6E0" width="33.2" height="33.2"/>
	<rect x="76.8" y="445" fill="#CDD6E0" width="33.2" height="33.2"/>
	<rect x="122.7" y="445" fill="#CDD6E0" width="33.2" height="33.2"/>
	<rect x="356.1" y="400.1" fill="#CDD6E0" width="33.2" height="33.2"/>
	<rect x="402" y="400.1" fill="#CDD6E0" width="33.2" height="33.2"/>
	<rect x="356.1" y="445" fill="#CDD6E0" width="33.2" height="33.2"/>
	<rect x="402" y="445" fill="#CDD6E0" width="33.2" height="33.2"/>
	<polygon fill="#FF7058" points="324.1,234.8 187.9,234.8 187.9,152.4 256,97.4 324.1,152.4 	"/>
	<rect x="45.1" y="234.8" fill="#CDD6E0" width="421.8" height="15.9"/>
</g>
</svg>
