<?xml version="1.0" encoding="utf-8"?>
<!-- Generator: Adobe Illustrator 19.0.1, SVG Export Plug-In . SVG Version: 6.00 Build 0)  -->
<svg version="1.1" id="Layer_1" xmlns="http://www.w3.org/2000/svg" xmlns:xlink="http://www.w3.org/1999/xlink" x="0px" y="0px"
	 viewBox="0 0 48 48" style="enable-background:new 0 0 48 48;" xml:space="preserve">
<style type="text/css">
	.st0{fill:#66C6B9;}
	.st1{fill:#F3F3F3;}
	.st2{fill:#415A6B;}
	.st3{fill:#CED6E0;}
	.st4{fill:#F3705A;}
	.st5{fill:#E8EAE9;}
	.st6{fill:#4ABAA5;}
	.st7{fill:#F05540;}
	.st8{fill:#FFD15C;}
	.st9{fill:#55C0EB;}
	.st10{fill:#8AD7F8;}
	.st11{fill:#344A5E;}
	.st12{fill:#FFFFFF;}
	.st13{fill:#F7B64C;}
	.st14{fill:#ADB3BA;}
	.st15{fill:#38A892;}
	.st16{fill:#ED9845;}
	.st17{fill:#2D4251;}
	.st18{fill:#304556;}
	.st19{fill:#A5AAAD;}
	.st20{fill:#2D4456;}
	.st21{fill:#4FB0E0;}
	.st22{fill:#2D4354;}
	.st23{fill:#E54C38;}
	.st24{fill:#2B4456;}
	.st25{fill:#2B404F;}
</style>
<g>
	<g>
		<g>
			<g>
				<g>
					<circle class="st10" cx="25" cy="23" r="23"/>
				</g>
				<g>
					<path class="st1" d="M43.5,9.4C43.5,9.4,43.5,9.4,43.5,9.4c0,0.1-0.1,0.1-0.1,0.2c-0.1,0.1-0.2,0.2-0.3,0.3c-0.1,0-0.2,0-0.3,0
						c-0.2,0-0.2-0.1-0.2-0.3c0.1,0.2,0.2,0.3,0.4,0.1c0-0.1,0-0.3,0.1-0.3c0.2,0,0.2-0.2,0.3-0.3c0,0,0,0,0,0
						c-0.5-0.6-1-1.2-1.5-1.8c0,0.1,0,0.2-0.1,0.3c0.3,0,0.4,0.1,0.4,0.3c0,0.1,0.1,0.2,0.2,0.3c-0.1,0.1-0.1,0.3-0.2,0.4
						c-0.1-0.2-0.2-0.3-0.4-0.4c-0.4-0.3-0.8-0.6-1.3-0.7c-0.1,0-0.3-0.1-0.4,0.1c0,0.1,0,0.2,0.1,0.3c0,0.1,0.1,0.2-0.1,0.3
						c-0.1,0.1-0.2,0.1-0.2,0.3c0,0-0.1,0.1-0.1,0.1c0,0,0-0.1,0-0.1c0-0.1,0-0.2-0.1-0.4c-0.2,0.1-0.2,0.2-0.3,0.3
						c-0.1,0-0.2,0.1-0.2,0.1c-0.2,0-0.5,0-0.6,0.3c-0.1-0.1-0.2-0.2-0.2-0.3c0-0.1,0-0.2,0-0.3c0,0,0,0-0.1,0
						c-0.1,0.1-0.1,0.1-0.2,0.2c-0.2-0.1-0.1,0.1-0.1,0.1c-0.1,0-0.2,0-0.3,0.1c-0.2,0.1-0.5,0.3-0.7,0.4c-0.1,0.1-0.2,0.2-0.2,0.3
						c0,0.2-0.1,0.3-0.2,0.4c-0.1-0.1-0.2-0.1-0.3-0.1c-0.3-0.3-0.3-0.5,0.2-0.6c0,0,0,0,0,0c0-0.4-0.3-0.5-0.9-0.6
						c0.3,0.1,0.2,0.4,0.2,0.6c0,0.1,0,0.2,0,0.3c0,0.1,0,0.1,0,0.2c0.1,0.1,0.1,0.3,0.1,0.4c0,0.1,0,0.2-0.1,0.4
						c0,0-0.1-0.1-0.1-0.1c-0.1-0.2-0.3-0.2-0.5,0c-0.1,0.1-0.2,0.2-0.3,0.3c-0.2,0.2-0.2,0.2-0.1,0.4c0.1,0.1,0.1,0.2,0.2,0.4
						c0,0,0,0,0,0c-0.3-0.1-0.6-0.3-1-0.4c0,0.1,0,0.2,0,0.3c0.1,0.1,0.2,0.2,0.3,0.2c0,0,0,0,0,0c0,0.1,0.1,0.2,0.1,0.3
						c-0.2,0.1-0.4,0-0.6-0.1c-0.1-0.1-0.2-0.2-0.3-0.2c0-0.1-0.1-0.3-0.1-0.4c0-0.1,0-0.1,0-0.2c0-0.1,0.1-0.3-0.1-0.4
						c-0.2-0.2-0.4-0.4-0.6-0.7c0,0,0,0,0,0c0.1,0,0.1,0.1,0.2,0.1c0.2,0.1,0.4,0.3,0.6,0.3c0.2,0.1,0.5,0.1,0.7,0.2
						c0.2,0.1,0.3,0,0.5-0.1C34.8,9.8,35,9.6,35,9.4c0-0.4-0.2-0.7-0.6-0.8c-0.1,0-0.2-0.1-0.3-0.2C34,8.3,33.8,8.1,33.6,8
						c0,0-0.1-0.1-0.2-0.1c-0.3,0-0.6-0.1-0.8-0.3c0,0,0-0.1-0.1-0.1c0,0,0,0,0,0c0.1,0,0.1,0,0.2,0.1c0.1-0.1,0.1-0.1-0.2-0.2
						c0,0.1-0.1,0.1-0.1,0.1H32c-0.1-0.1-0.2-0.2-0.3-0.3c0.3,0.1,0.4,0,0.5-0.2c-0.2-0.1-0.4-0.2-0.6-0.3c0,0.1-0.1,0.2-0.1,0.3
						c0,0,0,0-0.1,0c0-0.1,0-0.3,0.1-0.4c-0.1,0-0.1-0.1-0.2-0.1c-0.1,0.2-0.1,0.4-0.2,0.5c0,0,0,0-0.1,0c0-0.1,0-0.2,0-0.4
						C31,6.8,30.8,7,30.7,7.2c0,0,0,0-0.1,0c0.1-0.2,0.1-0.3,0.2-0.5c-0.1,0-0.1-0.1-0.2-0.1c0,0-0.1,0.1-0.1,0.1
						c0.1,0.2,0,0.2-0.1,0.3c-0.1,0.1-0.2,0.2-0.2,0.3c-0.1,0-0.3-0.1-0.4-0.1c0.1,0.1,0.1,0.2,0.1,0.3c-0.2-0.1-0.4,0-0.4,0.3
						c0-0.1,0-0.2-0.1-0.3c-0.1,0.1-0.1,0.2-0.1,0.1c-0.2-0.1-0.1,0.1-0.2,0.2c0,0-0.1,0-0.1,0c0,0.1,0,0.1,0.1,0.2
						c-0.1-0.1-0.3-0.2-0.4-0.2c0,0.1-0.1,0.3-0.1,0.4c0.1,0,0.2,0,0.2,0c0.1,0.3-0.1,0.3-0.3,0.4c0.1,0,0.2,0.1,0.2,0.1
						c0,0,0,0,0,0.1h-0.3v0.3c-0.1-0.1-0.1-0.1-0.1-0.2c0,0.1,0,0.2-0.1,0.3c0,0.1-0.1,0.1-0.1,0.2c-0.2,0-0.2,0.1-0.2,0.2
						c0,0.1,0,0.1-0.1,0.2c-0.3,0.1-0.2,0.5-0.3,0.7c-0.1,0.1-0.1,0.2-0.1,0.3c0,0,0,0.1,0,0.1c0,0,0,0.1,0,0.1
						c-0.2,0.1-0.2,0.2-0.2,0.3c-0.3,0-0.3,0.3-0.4,0.5c0.1,0.1,0.1,0.1,0.2,0.2c-0.1,0-0.2-0.1-0.2-0.1c-0.1,0.1-0.3,0.1-0.4,0.2
						c-0.1,0.1-0.2,0.2-0.3,0.2c0,0,0.1,0.1,0.1,0.1c-0.1,0.1-0.2,0.1-0.3,0.2c-0.1,0.1-0.2,0.1-0.3,0.2c0,0,0.1,0.1,0.1,0.1
						c-0.1,0-0.2,0.2-0.2,0.3c0,0,0.1,0.1,0.1,0.1c0.2,0,0.3,0,0.5-0.1c0,0.1-0.1,0.1-0.1,0.2c-0.1-0.2-0.3,0-0.4,0
						c-0.1,0-0.1,0.1,0,0.2c0,0,0,0.2,0,0.3c0.2-0.3,0.2-0.3,0.4-0.3c-0.2,0.1-0.3,0.3-0.2,0.4c-0.1,0.1-0.1,0.1-0.2,0.2
						c0,0,0,0,0,0c0.1,0,0.2,0,0.2-0.1c0,0.1-0.1,0.2-0.1,0.3c0,0-0.1,0.1,0,0.1c0.1,0.1,0.3,0.2,0.4,0.3c0.1,0,0.2,0,0.3-0.1
						c0.2-0.1,0.3-0.4,0.6-0.4c0,0,0-0.1,0-0.1c0-0.1,0-0.1,0-0.2c0.1,0.2,0.1,0.3,0.2,0.5c0.1,0.3,0.1,0.7,0.4,1
						c0.1,0.2,0.1,0.3-0.1,0.4c-0.1,0-0.2,0.1-0.3,0.1c0.1,0.1,0.2,0.2,0.3,0.4c0.1-0.2,0.1-0.3,0.2-0.4c0.1,0.3,0.2,0.1,0.3,0.1
						c0.1-0.3,0.1-0.3,0.4-0.3c0,0,0.1,0,0.1-0.1c0.1-0.3,0.1-0.7,0.2-1c0-0.1,0.1-0.3,0.3-0.3c0.2,0,0.1-0.1,0.2-0.2
						c-0.1,0-0.3,0-0.4-0.1c0,0,0,0,0-0.1c0.1,0,0.2,0.1,0.4,0.1c0.1,0,0.2-0.1,0.2-0.3c-0.1-0.2-0.3-0.4-0.5-0.3
						c0-0.4,0.1-0.7,0.1-1c0,0,0,0,0,0c0.2-0.2,0.3-0.5,0.6-0.7c0.2-0.1,0.3-0.2,0.4-0.4c0,0,0-0.1,0-0.2c-0.1-0.2,0-0.4,0.1-0.5
						c0-0.1,0.1-0.2,0.2-0.3c0.1,0,0.3,0,0.4,0c0,0,0-0.1,0-0.1c0,0.1,0.1,0.1,0.1,0.2c0.1,0.1,0.1,0.2,0.2,0.3c0,0-0.1,0.1-0.2,0.2
						c0,0,0,0,0,0c-0.2,0.2-0.3,0.5-0.5,0.7c-0.1,0.1-0.1,0.1-0.2,0.2c-0.1,0.1-0.3,0.3-0.2,0.5c0,0.3,0.1,0.5,0.1,0.8
						c0,0.1,0,0.2,0.1,0.3c0.1,0.1,0.3,0.1,0.4,0.2c0,0,0.1,0,0.2,0c0.1,0,0.2-0.1,0.3-0.1c0.3-0.1,0.6-0.2,0.9-0.2c0,0,0,0,0.1,0
						c-0.1,0.2,0,0.2,0.1,0.2c0.1,0,0.2,0.1,0.2,0.1c-0.2,0.1-0.4,0.2-0.7,0.3c-0.2-0.1-0.5-0.1-0.9,0.1c-0.1,0.1-0.2,0.1-0.2,0.3
						c0,0.1,0,0.3,0.3,0.3c0,0.2-0.1,0.5-0.1,0.7c-0.3,0-0.3-0.2-0.5-0.4c-0.1,0-0.2,0.1-0.2,0.1c-0.1,0.2-0.2,0.5-0.2,0.7
						c0,0.1,0,0.3,0.1,0.5c-0.2-0.2-0.3,0-0.4,0.1c0,0.1-0.1,0.1-0.2,0.2c0-0.1-0.1-0.1-0.1-0.2c-0.3,0-1,0.2-1.1,0.5
						c-0.1-0.1-0.2-0.1-0.2-0.2c0-0.1,0-0.1,0-0.2c-0.3,0.1-0.5,0.2-0.7,0.3c0-0.1,0-0.1,0-0.2c-0.1,0-0.2,0-0.2-0.1
						c-0.1-0.1-0.1-0.3-0.1-0.4c0.1,0.1,0.1,0.1,0.2,0.2c0,0,0.1,0,0.1-0.1c0-0.1,0-0.1,0-0.2c-0.1,0-0.2,0-0.3,0.1
						c0-0.1,0.1-0.2,0.1-0.2c0.1-0.1,0.1-0.1,0.2-0.2c-0.3,0-0.3-0.1-0.2-0.3c0-0.1,0-0.2,0.1-0.4c-0.2,0.1-0.3,0.2-0.4,0.3
						c-0.3,0.2-0.4,0.6-0.1,0.9c0,0,0,0.1,0,0.1c0,0.2,0,0.4,0.1,0.5c0,0,0,0,0-0.1c0,0.1-0.1,0.2-0.1,0.2c-0.1-0.1-0.3-0.1-0.3,0.1
						c0,0,0,0-0.1,0c-0.2,0-0.3,0.1-0.3,0.3c0,0.1,0,0.1-0.1,0.2c0,0,0,0,0,0V17c0,0,0,0-0.1,0c-0.1,0.2-0.1,0.3-0.2,0.6
						c-0.1,0-0.3,0.1-0.5,0.2c-0.1,0-0.1,0.1-0.1,0.1c0,0.2-0.1,0.3-0.3,0.3c0,0-0.1,0.1-0.1,0.1c-0.1,0.1-0.2,0.2-0.4,0
						c0,0-0.1,0-0.2,0c0,0.2,0.1,0.3,0.1,0.4c-0.1,0-0.2,0-0.3,0c-0.2-0.1-0.4,0-0.5,0.1c0,0.2,0.1,0.3,0.3,0.3
						c0.2,0,0.4,0.1,0.4,0.4c0,0,0,0.1,0.1,0.1c0.2,0.1,0.2,0.3,0.2,0.4c0,0.1,0,0.2,0,0.3c0,0.4-0.1,0.5-0.5,0.4
						c-0.4,0-0.9-0.1-1.3-0.1c-0.1,0-0.3,0.1-0.4,0.2c0,0,0,0.1,0,0.1c0,0,0,0.1,0,0.1c0.1,0.4,0,0.8-0.1,1.2c0,0.2,0,0.2,0.2,0.3
						c0,0.2,0,0.3,0,0.4c0.1,0,0.1,0,0.1,0c0.3,0,0.5-0.1,0.6,0.2c0,0.1,0.2,0.1,0.3,0c0.1-0.1,0.3-0.2,0.5-0.1
						c0.3,0.1,0.5-0.2,0.7-0.3c0.1-0.1,0.1-0.2,0.2-0.4c-0.1-0.1-0.1-0.2,0-0.3c0.1-0.3,0.4-0.5,0.7-0.6c0.1-0.1,0.2-0.2,0.2-0.3
						c0-0.1,0-0.3,0.1-0.3c0.2,0,0.3,0,0.5,0c0.1,0,0.2,0.1,0.2,0c0.2-0.1,0.4-0.2,0.5-0.4c0.1-0.1,0.1-0.1,0.2,0
						c0.2,0.1,0.2,0.1,0.3,0.3c0,0.1,0.1,0.2,0.2,0.4c0.1,0.1,0.1,0.1,0.2,0.1c0.2,0.2,0.4,0.3,0.6,0.5c0.1,0.1,0.3,0.2,0.3,0.3
						c0.1,0.1,0.2,0.2,0.1,0.4c-0.1,0.2-0.4,0.3-0.7,0.2c-0.1,0-0.2,0-0.2,0c0,0.1,0.1,0.1,0.1,0.2c0.1,0.1,0.3,0.2,0.4,0.2
						c0.1,0,0.2,0,0.2-0.1c0-0.1,0-0.2,0.1-0.4c0,0,0,0,0.1,0.1c0.1,0,0.1,0,0.2-0.1c0.1-0.1,0.1-0.2,0.1-0.3c0.1-0.1,0.1-0.2,0-0.3
						c0,0,0-0.2,0-0.2c0,0,0.1,0,0.2,0c0.1,0,0.1,0.1,0.3,0.2c-0.1-0.4-0.4-0.4-0.6-0.6c0,0,0-0.1,0-0.2c-0.3,0-0.5-0.1-0.6-0.4
						c-0.1-0.2-0.2-0.3-0.3-0.4c-0.2-0.1-0.1-0.3-0.1-0.5c0-0.1,0.2-0.1,0.3-0.2c0,0.1,0.1,0.2,0.1,0.4c0.1-0.1,0.1-0.1,0.1-0.2
						c0.1,0.1,0.2,0.2,0.2,0.4c0.1,0.1,0.1,0.2,0.2,0.3c0.2,0.1,0.3,0.1,0.4,0.2c0.1,0.2,0.3,0.3,0.4,0.3c0,0.3,0,0.5,0.1,0.6
						c0,0.1,0.2,0.2,0.2,0.3c0.1,0.1,0.1,0.2,0.2,0.3c-0.1,0.3,0.1,0.5,0.4,0.5c0-0.1,0-0.1,0-0.2c0,0,0.1,0,0.1-0.1
						c0-0.1,0-0.1-0.1-0.2c0.1,0,0.2,0.1,0.2,0.1c0,0,0-0.1,0-0.1c0,0,0.1,0,0.1,0.1c-0.1-0.3-0.3-0.4-0.4-0.3c0-0.1,0-0.2-0.1-0.3
						c0-0.1,0-0.1,0-0.2c0.1,0,0.2,0.1,0.3,0.1c0-0.1,0-0.1,0-0.2c0.2-0.2,0.4,0,0.7,0c0,0.2-0.1,0.4-0.1,0.5c0,0,0,0,0,0
						c0,0,0.1-0.1,0.1-0.2c0,0.1,0,0.1,0,0.2c0,0.1,0,0.1,0,0.2c0,0-0.1,0-0.2,0c0,0.1,0,0.1,0,0.1c0.2,0,0.2,0.2,0.2,0.3
						c0.1,0.1,0.1,0.3,0.3,0.2c0,0,0.1,0,0.2,0.1c0.2,0.2,0.3,0.2,0.4-0.1c0,0,0,0,0.1,0c0.1,0,0.2,0.1,0.3,0.1
						c0.2,0.1,0.4,0.1,0.6,0c0,0,0.1,0,0.2,0c0.1,0,0.2,0,0.3,0c0,0.1,0,0.2,0,0.3c0,0.1,0,0.3,0,0.4c-0.1,0.3-0.2,0.6-0.3,0.8
						c-0.1,0.2-0.4,0.3-0.6,0.2c-0.1-0.1-0.2-0.1-0.3-0.1c-0.1,0-0.2,0.1-0.4,0.1c-0.1,0-0.2,0-0.3,0c-0.2,0-0.5-0.1-0.7-0.2
						c-0.2-0.1-0.4-0.1-0.7-0.2c0,0,0,0-0.1-0.1c-0.1,0-0.1-0.1-0.2-0.1c-0.2,0-0.3,0-0.5,0.2c-0.1,0.1-0.1,0.2-0.1,0.4
						c0,0,0,0.2-0.1,0.2c-0.1,0-0.2,0.1-0.3,0c-0.2-0.1-0.4-0.1-0.6-0.2c-0.1,0-0.2-0.1-0.2-0.1c-0.1-0.3-0.3-0.3-0.6-0.3
						c-0.4,0-0.6-0.2-0.9-0.4c0.1-0.1,0.2-0.2,0.3-0.2c0.1-0.1,0.2-0.2,0.1-0.3c-0.1-0.1-0.1-0.2,0-0.3c0,0,0-0.1,0-0.1
						C27,23,26.9,23,26.8,23c0-0.2-0.2-0.2-0.3-0.1c-0.1,0.1-0.3,0.1-0.5,0.1c-0.1,0-0.3,0-0.4,0c-0.1,0-0.1,0-0.2,0
						c-0.4-0.1-0.8,0-1.2,0.2c-0.4,0.2-0.7,0.4-1.1,0.3c0,0-0.1,0-0.1,0c-0.1,0-0.2,0-0.3-0.1c-0.2-0.1-0.2-0.1-0.3,0
						c-0.1,0.3-0.3,0.5-0.6,0.6c-0.3,0.2-0.5,0.5-0.5,0.8c0,0.3-0.1,0.4-0.3,0.5c-0.3,0.2-0.7,0.3-0.8,0.7c0,0-0.1,0.1-0.1,0.1
						c0,0-0.1,0.1-0.1,0.1c-0.2,0.3-0.4,0.7-0.6,1c-0.1,0.1-0.1,0.3,0,0.4c0.1,0.1,0.2,0.2,0.1,0.4c0,0,0,0.1,0,0.1
						c0,0.2,0,0.3,0,0.5c0,0.1-0.1,0.2-0.1,0.3c0,0.2-0.1,0.3-0.2,0.4c0.1,0.2,0.2,0.3,0.2,0.5c0,0.2,0.1,0.2,0.2,0.3
						c0,0,0.1,0,0.1,0c0.2,0.2,0.3,0.4,0.5,0.6c0,0.1,0.1,0.1,0.1,0.2c0,0.2,0.1,0.3,0.2,0.3c0.2,0.2,0.5,0.4,0.7,0.5
						c0.3,0.2,0.5,0.4,0.9,0.2c0.3-0.1,0.6-0.2,0.9,0c0.1,0.1,0.2,0,0.4,0c0.4-0.2,0.8-0.4,1.3-0.4c0.3,0,0.4,0.1,0.5,0.4
						c0,0.1,0.1,0.2,0.3,0.2c0.1,0,0.3,0,0.4-0.1c0.3,0,0.5,0.2,0.5,0.5c0,0.2,0,0.3-0.1,0.5c0,0.1-0.1,0.2-0.1,0.3
						c0,0.1,0,0.2,0,0.2c0.2,0.3,0.4,0.5,0.6,0.7c0.1,0.1,0.2,0.3,0.3,0.4c0.1,0.2,0.1,0.3,0.2,0.5c0,0.1,0,0.3,0.1,0.4
						c0,0.1,0,0.2,0.1,0.3c0.1,0.1,0.1,0.5,0,0.5c-0.3,0.2-0.4,0.6-0.4,0.9c-0.1,0.3-0.1,0.6,0.1,1c0.4,0.5,0.6,1.2,0.7,1.8
						c0,0.3,0,0.6,0.2,0.7c0.2,0.2,0.3,0.4,0.4,0.6c0.1,0.2,0.2,0.3,0.2,0.5c0.1,0.2,0.1,0.3,0,0.4c0.1,0.1,0.1,0.2,0.2,0.4
						c0.1,0.2,0.3,0.2,0.5,0.2c0.2-0.1,0.4-0.1,0.6-0.1c0.3,0,0.6,0.1,1-0.1c0.1-0.1,0.3-0.1,0.4-0.2c0.3-0.3,0.6-0.6,0.8-1
						c0.1-0.1,0.2-0.2,0.3-0.4c0.2-0.2,0.3-0.5,0.2-0.7c-0.1-0.2,0-0.2,0.1-0.3c0.1,0,0.2-0.1,0.3-0.1c0.1-0.1,0.2-0.1,0.2-0.2
						c0-0.3,0.1-0.7-0.1-0.9c-0.1-0.2-0.1-0.3,0.1-0.4c0.1-0.1,0.2-0.2,0.4-0.3c0.1-0.1,0.2-0.2,0.3-0.3c0.3-0.1,0.5-0.2,0.7-0.5
						c0.1-0.1,0.1-0.3,0.1-0.4c0-0.3-0.1-0.5,0-0.8c0-0.1,0-0.2-0.1-0.3c-0.2-0.2-0.3-0.4-0.2-0.7c0-0.1,0-0.2,0-0.2
						c-0.1-0.1-0.1-0.3-0.1-0.4c0.1-0.1,0.1-0.2,0.2-0.4c0.1-0.5,0.6-0.7,0.8-1c0.2-0.3,0.5-0.4,0.8-0.6c0.4-0.4,0.8-0.8,1-1.3
						c0-0.1,0.1-0.1,0.1-0.2c0.2-0.3,0.3-0.5,0.3-0.9c0-0.2-0.1-0.2-0.2-0.1c-0.1,0-0.2,0.1-0.3,0.1c-0.2,0.1-0.4,0.1-0.7,0.2
						c-0.2,0-0.3,0-0.5,0.1c0,0-0.1,0-0.2-0.1c-0.1-0.1-0.2-0.2-0.3-0.3c0.1-0.1,0.1-0.2,0-0.3c-0.1-0.1-0.2-0.3-0.4-0.4
						c-0.1-0.1-0.2-0.1-0.3-0.2c-0.2-0.1-0.3-0.2-0.4-0.4c0-0.2-0.1-0.4-0.2-0.4c-0.2-0.2-0.3-0.4-0.3-0.7c0-0.2-0.1-0.4-0.2-0.5
						c-0.1-0.2-0.4-0.2-0.2-0.5c0,0,0,0,0,0c-0.1-0.2-0.2-0.3-0.3-0.5c-0.2-0.3-0.2-0.7-0.5-0.9c0,0,0-0.1-0.1-0.2
						c0.1,0.1,0.2,0.3,0.3,0.4c0,0.1,0.1,0.1,0.2,0.2c0-0.1,0.1-0.2,0.1-0.2c0,0.1,0.1,0.1,0.2,0.2c0.2,0.3,0.3,0.6,0.5,0.9
						c0,0,0,0.1,0.1,0.1c0.3,0.1,0.3,0.4,0.4,0.6c0,0.2,0.1,0.4,0.3,0.5c0.1,0.1,0.2,0.2,0.3,0.3c0.1,0.1,0.2,0.2,0.2,0.3
						c0.1,0.2,0.2,0.3,0.2,0.5c0.1,0.2,0.1,0.5,0.1,0.7c0,0,0.1,0.1,0.1,0.1c0.1,0,0.3,0,0.4-0.1c0.1,0,0.1-0.1,0.2-0.1
						c0.1,0,0.3-0.1,0.4-0.1c0.2-0.1,0.3-0.2,0.5-0.2c0.2-0.1,0.4-0.1,0.6-0.2c0.1,0,0.1-0.1,0.2-0.1C38,29.1,38,29,38.1,29
						c0.2-0.1,0.5,0,0.6-0.3c0,0,0.1,0,0.1,0c0.1-0.1,0.3-0.2,0.4-0.3c0,0,0-0.1,0-0.2c0-0.1,0.1-0.2,0.1-0.2
						c0.2-0.1,0.3-0.3,0.4-0.5c0,0,0-0.1,0-0.1c-0.2-0.2-0.3-0.4-0.6-0.4c-0.2,0-0.3-0.2-0.3-0.4c0-0.1,0-0.2,0-0.3
						c-0.2,0.2-0.3,0.4-0.5,0.5c0,0-0.1,0.1-0.1,0.1c-0.2,0-0.3,0-0.5,0c-0.1,0-0.1-0.1-0.1-0.2c0-0.1,0-0.2,0-0.3
						c0-0.1,0-0.1,0-0.2c0,0,0,0-0.1,0c0,0.1-0.1,0.2-0.1,0.3c-0.1-0.1-0.1-0.2-0.1-0.3c0-0.1-0.1-0.1-0.1-0.2
						c-0.1-0.1-0.2-0.3-0.3-0.4c-0.2-0.3-0.2-0.3,0-0.6c0,0,0,0,0-0.1c0.1,0.1,0.3,0.1,0.3,0.2c0.1,0.1,0.2,0.3,0.3,0.5
						c0,0,0.1,0.1,0.1,0.1c0.2,0.1,0.3,0.2,0.5,0.3c0.1,0.1,0.6,0.1,0.7,0c0.1-0.1,0.2-0.1,0.3,0.1c0.1,0.2,0.2,0.3,0.4,0.3
						c0.1,0,0.3,0,0.4,0.1c0.1,0,0.3,0.1,0.5,0.1c0.4,0,0.7,0,1.1-0.1c0,0,0.1,0,0.1,0c0.2,0.2,0.3,0.3,0.5,0.5
						c0.1,0.1,0.2,0.1,0.4,0.1c0,0,0.1,0,0.1,0c0,0,0,0,0,0.1c-0.1,0-0.2,0.1-0.4,0.2c0.1,0.1,0.2,0.2,0.3,0.2
						c0.3,0.2,0.5,0.2,0.6-0.2c0-0.1,0.1-0.1,0.1-0.2c0,0.1,0,0.2,0,0.3c0,0.1,0,0.2,0,0.3c0,0.4,0.1,0.8,0.2,1.2
						c0.3,0.6,0.5,1.1,0.8,1.7c0,0.1,0.1,0.2,0.2,0.3c0.1,0.1,0.2,0.1,0.3,0c0-0.1,0.1-0.1,0.2-0.2c0,0,0-0.1,0.1-0.1
						c0.1-0.1,0.1-0.2,0.2-0.3c-0.1-0.3,0.2-0.6,0.1-1c0-0.1,0-0.1,0-0.2c0-0.1,0.1-0.1,0.1-0.1c0.1-0.1,0.3-0.2,0.4-0.3
						c0.3-0.3,0.6-0.5,1-0.8C46.8,28,47,28,47,27.9c0-0.2,0.2-0.3,0.3-0.3c0.1,0.1,0.2,0.1,0.2,0.1c0.3-1.5,0.5-3,0.5-4.6
						C48,17.9,46.3,13.2,43.5,9.4z"/>
					<path class="st1" d="M15.1,2.4c0.1,0.1,0.1,0.1,0.1,0.3c0,0.1,0,0.2,0.1,0.3c0.1,0.2,0.1,0.4,0.2,0.7c0,0.1,0,0.2,0.1,0.3
						c0.3,0.1,0.3,0.3,0,0.8c0,0,0.1,0,0.1,0.1c-0.1,0.1-0.3,0.2-0.1,0.4c0.1,0.1,0.2,0.1,0.3,0.1C15.9,5.2,15.9,5,16,4.9
						c0.1,0.1,0.2,0.1,0.4,0.2c0,0-0.1,0.1-0.2,0.2c0.1,0,0.1,0,0.2,0c0,0.1,0,0.1-0.1,0.2c0.1,0,0.1,0.1,0.2,0.1
						c0,0.2,0.3,0.3,0.1,0.5c-0.5-0.2-0.5-0.2-0.8-0.2c0.1,0.3,0.4,0.4,0.6,0.5c0.1,0,0.1,0,0.2,0c0.3,0,0.3,0,0.2,0.3
						c0,0.1-0.1,0.2-0.1,0.3c0.1,0,0.1,0,0.2,0.1c-0.1,0.1-0.2,0.1-0.2,0.2c0,0,0,0.1,0,0.1c0,0,0,0.1,0,0.2c-0.2,0.1-0.3,0-0.4-0.1
						C16.1,7.2,16,7.1,15.8,7c-0.1,0.1-0.2,0.1,0,0.3c0,0,0,0.1-0.1,0.1c0,0,0,0.1,0.1,0.2c0,0,0.1,0,0.2,0.1c0,0-0.1,0.1-0.1,0.1
						H16c0,0,0.1,0.1,0.1,0.1c-0.2,0.2-0.3,0.7,0,0.8c-0.2,0.3,0,0.6,0.1,0.9c0,0.1,0.1,0.1,0.1,0.2c0,0.1,0.1,0.2,0.1,0.2
						c0,0.1,0,0.2,0,0.3c0.2,0,0.2-0.4,0.4-0.3c-0.1,0.1-0.1,0.2,0,0.2c-0.4,0.3-0.4,0.3-0.2,0.7c0.1,0.2,0.2,0.4,0.3,0.5
						c0.1,0.1,0.1,0.3,0.2,0.4c0.1,0.1,0.2,0.2,0.3,0.3c0,0,0,0,0,0.1c0.2,0,0.3-0.1,0.4-0.1c0.1,0,0.1,0.1,0.2,0.1
						c0,0.1,0.1,0.1,0.1,0.2c0,0.2,0,0.2,0.2,0.1c0.1,0,0.2,0,0.3,0c0-0.1,0-0.1,0-0.2c0-0.1,0.1-0.1,0.1-0.2
						c0.1-0.1,0.1-0.3,0.1-0.5c0.1-0.2,0-0.4-0.1-0.6c0.1,0,0.1-0.1,0.2-0.1c0,0,0-0.1,0.1-0.1c0-0.1,0.1-0.1,0.1-0.2
						c0-0.1,0.2-0.1,0.1-0.2c0,0,0,0,0,0c0.1-0.2,0.1-0.2,0-0.3c0.1,0,0.1,0,0.2,0c-0.1-0.1-0.2-0.3-0.2-0.4c0.1,0,0.2,0,0.3,0
						c0.1,0,0-0.2,0-0.3c0.1-0.2,0.2-0.1,0.3-0.1c0.1,0,0.2,0,0.1-0.2c0,0,0,0,0-0.1c0-0.1,0.1-0.2,0.1-0.3c0,0,0.1,0,0.1,0
						c0,0.1-0.1,0.1-0.1,0.1c0,0,0,0.1,0,0.1c0.1,0,0.2,0,0.3,0c0.1,0,0.3-0.1,0.2-0.2C20.8,9,20.9,9,21,8.9
						c0.1-0.1,0.1-0.2,0.2-0.3c0-0.1,0-0.1,0.1-0.2c0.1-0.2,0.1-0.3,0.3-0.4c0.1,0,0.2-0.1,0.1-0.3c-0.1-0.1-0.1-0.2-0.1-0.2
						c0,0,0,0,0,0c0.1,0.1,0.1,0.2,0.2,0.3c0,0,0.1,0.1,0.1,0.1c0.1-0.1,0.4,0,0.4-0.2c0.1,0,0.2,0,0.2,0c0.2-0.1,0.4-0.1,0.6-0.2
						c0.2-0.1,0.3-0.2,0.4-0.4c0,0,0.1-0.1,0.1-0.1c0.1-0.1,0.2-0.2,0.3-0.3c0-0.1,0.2-0.1,0.3-0.2c0.1,0,0.1-0.1,0.2-0.1
						c-0.3,0-0.6,0-0.8-0.2c-0.1,0-0.2,0-0.2,0c-0.2,0.1-0.4,0.1-0.6,0.2c0,0,0,0,0-0.1c0.1-0.1,0.3-0.2,0.4-0.2c0,0,0,0,0,0
						c-0.1,0-0.3,0-0.4,0c0-0.1,0.1-0.2,0.1-0.3c0.2,0,0.3-0.1,0.5-0.2c0.1,0,0.1-0.1,0.1-0.2c0,0-0.1-0.1-0.2-0.1
						c-0.3,0-0.3,0-0.3-0.3c0.2,0.1,0.5,0.2,0.7,0.4c0.1,0.1,0.2,0.3,0.2,0.4c0.1,0.2,0.1,0.3,0.3,0.3c0,0,0.1,0,0.2-0.1l0.2,0.1
						c0-0.3,0-0.5,0-0.7c0-0.2-0.1-0.3-0.1-0.5c0,0-0.1-0.1-0.1-0.1c-0.1,0-0.1-0.1-0.2-0.1c0.1,0,0.1-0.1,0.1-0.1
						c-0.1,0-0.2-0.1-0.3-0.1c-0.1,0-0.2-0.1-0.2-0.2c0-0.2-0.2-0.2-0.4-0.1c0.1-0.1,0.2-0.1,0.3-0.2c-0.2,0-0.3-0.1-0.4-0.1
						c0.2-0.2,0.5-0.4,0.7-0.6c0.1,0.1,0.2,0.3,0.4,0.4c0.1,0.1,0.4,0,0.5,0V3.2c-0.1-0.1-0.3-0.1-0.5-0.2c0-0.2,0.1-0.3,0.1-0.4
						c0.2,0.1,0.4,0.2,0.7,0.3c0-0.1,0.1-0.2,0-0.3c0-0.2-0.3-0.1-0.4-0.2V2.1c0,0-0.1,0-0.2,0c0.1-0.1,0.1-0.1,0.2-0.2
						c-0.1-0.1-0.2-0.2-0.3-0.2c0,0,0,0,0,0c0.2,0,0.3,0.2,0.6,0.3c0-0.2,0-0.4,0-0.5c-0.1-0.1-0.2-0.2-0.3-0.4
						c0.1,0,0.1-0.1,0.2-0.1c0,0,0,0,0,0c-0.4,0-0.5-0.4-0.7-0.6c0.1,0,0.3-0.1,0.4-0.1h-1.7c-2.8,0.3-5.4,1-7.8,2.2c0,0,0,0,0,0
						C15.1,2.3,15.1,2.4,15.1,2.4z"/>
					<path class="st1" d="M15,43.5c0-0.1,0-0.2-0.1-0.2c-0.1-0.1-0.1-0.1-0.2-0.2c0.2,0,0.4,0.1,0.6,0.2c0.4,0.1,0.4,0,0.7-0.3
						c0.2-0.3,0.3-0.6,0.6-0.8c0.1,0,0.1-0.1,0.1-0.2c0.1-0.2,0.2-0.4,0.3-0.5c0.2-0.2,0.3-0.5,0.2-0.8c0-0.1,0.1-0.3,0.1-0.4
						c0.1-0.1,0.2-0.2,0.3-0.3c0.3-0.1,0.6-0.4,0.9-0.4c0.1,0,0.3,0,0.4-0.1c0.2-0.1,0.2-0.4,0.4-0.5c0.2-0.3,0.2-0.6,0.3-0.9
						c0.1-0.2,0-0.4,0-0.7c0-0.2,0-0.4,0.2-0.5c0,0,0.1-0.1,0.1-0.1c0.1-0.1,0.2-0.3,0.3-0.4c0.4-0.3,0.5-0.7,0.4-1.2
						c0-0.1-0.1-0.2-0.3-0.2c-0.2,0-0.4-0.1-0.5-0.2c-0.1-0.1-0.2-0.1-0.2-0.2c-0.1-0.1-0.3-0.2-0.5-0.2c-0.2,0-0.4-0.1-0.5-0.1
						c-0.1,0-0.2,0-0.4,0c0-0.2-0.2-0.2-0.4-0.3c-0.1-0.1-0.3-0.1-0.4-0.1c-0.3,0-0.3,0.3-0.5,0.4c0,0,0,0-0.1-0.1c0,0,0,0,0.1,0
						c0.1-0.1,0.2-0.2,0.2-0.3c-0.1,0-0.2,0-0.3-0.1c-0.1,0-0.2,0-0.4,0c0.1-0.1,0.1-0.1,0.1-0.1c0.1-0.1,0.3-0.3,0.1-0.5
						c0,0,0-0.1,0-0.1c-0.1-0.2-0.1-0.4-0.3-0.5c-0.3-0.2-0.6-0.4-1-0.4c-0.2,0-0.4,0.1-0.6-0.2c0,0-0.1,0-0.1-0.1
						c0,0-0.1,0-0.1-0.1c-0.1-0.3-0.3-0.4-0.6-0.4c0-0.2-0.1-0.3-0.3-0.3c-0.1,0-0.2-0.1-0.1-0.3c-0.2,0-0.4,0.1-0.6,0.1
						c-0.1,0-0.2,0-0.3,0c-0.1,0-0.2-0.1-0.3-0.1c-0.1,0-0.3,0-0.3-0.1c0,0-0.1,0-0.1-0.1c-0.1-0.1-0.2-0.1-0.4-0.2c0,0,0,0.1,0,0.1
						c0,0,0,0-0.1,0c-0.3,0.1-0.3,0.1-0.2,0.4c0,0,0,0.1-0.1,0.2c0,0-0.1,0-0.1,0c0-0.1,0-0.2,0-0.3c0-0.1,0-0.2,0.1-0.4
						c0,0,0,0,0,0c0.1,0,0.1-0.1,0.2-0.1c-0.1-0.1-0.2-0.1-0.3,0c-0.1,0.1-0.3,0.1-0.4,0.2c-0.1,0.1-0.3,0.1-0.4,0.1
						c-0.1,0-0.1,0.1-0.1,0.2c0,0.1-0.1,0.2-0.1,0.2c-0.1,0.1-0.1,0.2-0.2,0.2c-0.1-0.1-0.1-0.1-0.2-0.2c-0.2-0.1-0.3-0.1-0.5,0
						C8.8,31,8.6,31.2,8.4,31c-0.2-0.1-0.3-0.3-0.4-0.4C8,30.5,8,30.4,8,30.3c0-0.2,0-0.4,0.1-0.6c0.1-0.3,0-0.4-0.3-0.5
						c-0.2-0.1-0.5,0-0.8,0c-0.1,0-0.2,0-0.3,0c0.1-0.3,0.2-0.6,0.3-0.8C7,28.2,7.1,28,7.1,27.8c0,0,0-0.2-0.1-0.2
						c-0.1,0-0.3,0-0.4,0c-0.3,0-0.6,0.2-0.6,0.5c0,0,0,0,0,0C6,28.3,6,28.4,5.9,28.4c-0.1,0.1-0.3,0-0.5,0.1
						c-0.3,0.1-0.5,0-0.6-0.2c-0.2-0.3-0.5-0.7-0.4-1.1c0-0.1,0-0.2,0-0.3c0-0.1,0-0.3,0.1-0.3c0,0,0-0.1,0-0.1
						c0-0.1-0.1-0.1-0.1-0.2c0-0.1,0-0.4,0-0.4c0.2,0,0.2-0.1,0.2-0.3c0.2,0,0.4-0.1,0.4-0.3c0.1,0,0.1,0,0.2,0c0.2,0,0.5-0.1,0.7,0
						c0.2,0.1,0.4,0,0.6,0.1c0-0.1,0-0.2-0.1-0.3c0,0-0.1,0-0.2,0c0,0,0.1-0.1,0.1-0.1c0.2,0,0.5,0,0.7,0c0.1,0,0.2,0.1,0.3,0.1
						c0.1,0,0.2,0.1,0.3,0.1c0.3-0.1,0.5,0.1,0.5,0.4c0,0.2,0,0.3,0.1,0.4c0.1,0.2,0.2,0.4,0.4,0.6c0.2,0,0.2-0.1,0.2-0.2
						c0-0.1,0-0.3,0-0.4c-0.1-0.3-0.2-0.6-0.3-0.8c-0.1-0.2,0.1-0.6,0.3-0.7c0.1-0.1,0.3-0.2,0.4-0.3c0,0,0.1-0.1,0.1-0.1
						c0.2-0.1,0.4-0.2,0.6-0.3c0-0.1,0-0.1,0-0.1c0.1,0,0.1-0.1,0.2-0.1c0,0,0,0,0-0.1c-0.1,0-0.1,0-0.2-0.1c0.1,0,0.1,0,0.2-0.1
						C10,23,10,22.8,9.9,22.6c0,0,0,0,0,0c0-0.1,0-0.3,0-0.4c0.1,0.1,0.1,0.2,0.1,0.4c0,0.1,0,0.2,0.1,0.3c0.1-0.2,0.3-0.4,0.1-0.7
						c0,0,0.1,0.1,0.1,0.1c0.1-0.2,0.3-0.3,0.2-0.5c0.2,0,0.3-0.1,0.5-0.1c0,0,0,0,0-0.1c-0.1,0-0.2,0-0.3,0.1c0,0,0,0,0-0.1
						c0.3-0.1,0.5-0.1,0.8-0.2c0-0.1-0.1-0.2-0.1-0.3c0.1-0.2,0.1-0.4,0.3-0.5c0.1,0,0.1-0.1,0.2-0.2c0.2,0.1,0.4,0,0.4-0.2
						c0,0,0-0.1,0.1-0.1c0.2-0.1,0.4-0.1,0.6-0.2c0,0,0,0.1,0,0.2c-0.1,0-0.1,0.1-0.2,0.1c-0.2,0.1-0.2,0.4,0.1,0.5
						c0.2-0.4,0.7-0.5,1.1-0.6c0,0,0-0.1,0-0.1c-0.1,0-0.2-0.1-0.4-0.1c-0.1,0-0.5-0.2-0.5-0.3c0-0.2-0.2-0.3,0-0.5
						c-0.1,0-0.3-0.1-0.4-0.1c0,0,0,0,0,0c0.1,0,0.1,0,0.2,0c0.1-0.1,0.3-0.1,0.3-0.2c0-0.2-0.1-0.2-0.3-0.2c-0.2,0-0.4,0-0.6,0.1
						c-0.2,0.2-0.4,0.3-0.7,0.5c0.2-0.2,0.4-0.4,0.6-0.6c0,0,0.1,0,0.1,0c0.1,0,0.1-0.1,0.2-0.1c0.1-0.1,0.2-0.2,0.2-0.2
						c0.4,0,0.7,0,1.1,0c0.2,0,0.5,0,0.6-0.2c0.2-0.2,0.3-0.3,0.6-0.4c0.3,0,0.4-0.2,0.3-0.5c0-0.1-0.1-0.2,0-0.2
						c0.1-0.1,0-0.2-0.1-0.2c-0.1,0-0.2,0-0.3-0.1c0,0,0-0.1,0-0.2c-0.1,0-0.2,0.1-0.4,0.1c-0.1-0.1-0.1-0.1,0-0.1
						c0.1,0,0.2-0.1,0.3-0.1v-0.1c-0.2-0.1-0.5-0.2-0.7-0.3c0-0.2,0-0.2-0.2-0.2c0,0-0.1,0-0.1-0.1c-0.1-0.1-0.2-0.2-0.2-0.3
						c0.1-0.1,0.2-0.2,0.2-0.2c0-0.1-0.1-0.3-0.2-0.4c0-0.1,0-0.2-0.1-0.2c0,0-0.1,0.1-0.1,0.1c0,0,0-0.1,0.1-0.1
						c-0.1,0-0.1,0-0.1,0c0-0.1,0-0.1,0-0.2c0-0.1-0.1-0.2-0.1-0.3c-0.1-0.2-0.2-0.3-0.2-0.4c0,0-0.1-0.1-0.1-0.1
						c-0.1,0.1-0.2,0.2-0.2,0.3c0,0.2-0.1,0.3-0.2,0.4c0,0-0.1,0-0.1,0.1c-0.1,0.1-0.2,0.2-0.3,0.3c-0.1-0.1-0.2-0.3-0.3-0.4
						c-0.1,0-0.2,0-0.3,0.1c0.1-0.1,0.1-0.1,0.1-0.2c-0.1-0.2,0.1-0.5-0.3-0.5c0.1,0,0.2,0,0.2,0V13c-0.1,0-0.1,0-0.2,0
						c-0.1,0-0.1-0.1-0.2-0.1c-0.1,0-0.2-0.1-0.2-0.2c0-0.1-0.1-0.2-0.2-0.3c-0.1-0.2-0.3-0.4-0.5-0.2c-0.1,0.1-0.3,0.1-0.4,0
						c-0.1,0-0.2-0.1-0.3-0.1c-0.1,0-0.1,0-0.2,0c-0.2,0.1-0.1,0.3,0.1,0.5c-0.3,0.3-0.1,0.6,0,0.9c0,0.2,0,0.4-0.2,0.5
						c-0.2,0.1-0.1,0.2,0,0.2c0.3,0.1,0.3,0.4,0.4,0.6c0,0.2,0.1,0.3,0.1,0.5h0.1c0,0,0,0.1,0,0.1c0,0-0.1,0.1-0.1,0.1
						c-0.1,0.2-0.2,0.4-0.4,0.5c-0.1,0.1-0.2,0.1-0.2,0.2c0,0,0,0,0.1,0c0.1,0.3,0.2,0.7,0.2,1c0,0-0.1,0.1-0.1,0.1
						c0,0.1,0,0.1,0.1,0.2c-0.1,0-0.3-0.2-0.3,0.1c-0.1,0-0.2,0-0.2-0.1c0-0.2,0-0.3-0.3-0.3c0-0.1,0-0.1,0-0.2
						c0-0.1-0.1-0.2-0.1-0.3c0-0.3,0-0.6,0-0.9c-0.2,0-0.3,0-0.4,0c-0.1,0-0.3,0-0.4-0.1c-0.1-0.2-0.3-0.2-0.5-0.3
						c-0.1,0-0.1-0.1-0.2-0.1c-0.3-0.4-0.7-0.6-1.2-0.5c-0.1-0.2-0.1-0.4-0.2-0.6c0-0.2-0.1-0.2-0.3-0.2c-0.1,0-0.2-0.1-0.2-0.1
						c0-0.3,0-0.6,0.1-0.9c0-0.1,0-0.2,0.1-0.4c0.3-0.1,0.4-0.4,0.5-0.7C5.9,12,6,12,6.1,12c0.1-0.1,0-0.2,0-0.3
						c0.1,0,0.2,0,0.2-0.2c0-0.1,0-0.2,0.2-0.1c0.1,0,0.3,0,0.3-0.1C7,11,7.1,10.8,7.2,10.6c-0.3-0.1-0.7,0-0.8-0.4
						c0.2,0.1,0.3,0.2,0.5,0.3c0.1,0,0.1,0.1,0.2,0.1c0.1,0,0.4-0.4,0.4-0.5c0,0,0-0.1-0.1-0.1c0,0,0-0.1-0.1-0.1c0,0,0.1,0,0.1,0
						c0.1,0,0.1,0,0.2,0c0,0.4,0.3,0.1,0.4,0.2c0-0.1,0-0.2-0.1-0.3C8,9.7,8,9.8,8.1,9.9c0.2-0.2,0.3-0.4,0.5-0.6c0-0.1,0-0.2,0-0.3
						C8.5,8.8,8.4,8.6,8.3,8.4c0.3,0,0.4-0.1,0.2-0.3c0,0,0.1-0.1,0.1-0.2c-0.2,0-0.4-0.1-0.3-0.4c0,0-0.1-0.1-0.1-0.1
						c-0.1,0-0.1,0-0.2,0C7.9,7.6,7.8,7.8,7.6,7.9c0,0,0,0,0.1,0.1c0,0.1,0,0.2,0,0.2c-0.1,0-0.2,0.1-0.2,0.1C7.4,8.5,7.3,8.8,7.3,9
						c0,0.1-0.1,0.2-0.2,0.3C7,9.1,6.9,9,6.8,8.9C3.8,12.8,2,17.7,2,23c0,1.8,0.2,3.6,0.6,5.4c0.2,0.1,0.3,0.2,0.5,0.3
						c0,0,0.1,0,0.1,0.1c0.2,0.1,0.3,0.2,0.5,0.2c0.2,0.1,0.3,0.1,0.5,0.2c0.2,0.1,0.4,0.2,0.6,0.1c0.3-0.2,0.5-0.1,0.7,0.1
						c0.4,0.4,0.9,0.5,1.4,0.6C7,30,7.1,30.1,7.1,30.2c0.1,0.2,0.3,0.3,0.3,0.5c0,0,0.1,0.2,0.2,0.2C7.8,30.8,7.9,31,8,31
						c0.1,0.2,0.2,0.2,0.4,0.2c0.1,0,0.2,0.1,0.3,0.1c0.1,0,0.1,0.1,0.2,0.2c0,0,0.1-0.1,0.1-0.1c-0.1-0.2-0.1-0.2,0.2-0.4
						c0.1,0.1,0.2,0.1,0.3,0.2c0,0.2,0.1,0.4,0.2,0.6c0.1,0.2-0.1,0.4,0.1,0.7c-0.1,0.1-0.2,0.2-0.4,0.3c0,0,0,0,0,0
						c-0.1,0.3-0.5,0.5-0.5,0.8c0,0,0,0,0,0c0,0.1,0,0.2,0,0.4c0,0,0.1,0,0.2,0c0,0.1,0,0.1-0.2,0.4c-0.1,0.1-0.1,0.5,0,0.6
						c0.3,0.3,0.5,0.6,0.7,1c0.1,0.2,0.2,0.4,0.3,0.6c0.1,0.1,0.1,0.3,0.2,0.4c0,0.1,0.1,0.1,0.1,0.1c0.2,0.3,0.5,0.4,0.8,0.6
						c0.3,0.2,0.7,0.3,0.6,0.8c0,0.6,0,1.1-0.1,1.7c0,0.2,0,0.4-0.1,0.5c-0.1,0.2-0.1,0.4-0.1,0.6c1.2,0.9,2.5,1.7,3.9,2.3
						c0-0.1,0-0.1-0.1-0.2C15,43.6,15,43.5,15,43.5z"/>
				</g>
			</g>
			<g>
				<g>
					<g>
						<g>
							<ellipse class="st2" cx="12.8" cy="28.7" rx="3.6" ry="7.2"/>
						</g>
					</g>
					<g>
						<g>
							<path class="st2" d="M20.9,21.8c0,0,0.3,6.4-0.8,8.7s-1.6,2.7-1.6,2.7s-2.6-6.8-2.6-7S20.9,21.8,20.9,21.8z"/>
						</g>
					</g>
					<g>
						<g>
							<path class="st2" d="M21.5,20.1c0,0,1.1,3.2,0.5,6.9c-0.6,3.7-1.5,4.7-1.5,4.7s1.7-4.5,0.8-8.8"/>
						</g>
					</g>
					<g>
						<g>
							<path class="st8" d="M20,21.9c0,0,0.5,5.4-0.6,7.5c0,0,1,2.8,2.3,4c1.4,1.2,1.4,1.2,1.4,1.2l-10.4,7.8l-3.1-6.7
								c0,0,3.6-2.5,3.6-5c0,0-3.3-2.4-2.3-8.8c0,0,2.2-3.8,5.5-4.2S20,21.9,20,21.9z"/>
						</g>
					</g>
					<g>
						<path class="st13" d="M19.4,29.5c0,0-0.8,1.2-3.1,1.7c-2.3,0.5-3.1-0.6-3.1-0.6c0,1.6-1.5,3.2-2.6,4.1c1.5-0.1,4-0.4,5.6-1.4
							C18.7,31.7,19.4,29.5,19.4,29.5z"/>
					</g>
					<g>
						<g>
							<path class="st4" d="M20.1,31.1c0,0-0.7,2.6-2.3,3.7c-1.6,1.1-4.2,3.6-4.2,3.6s-0.9-4.4-1.9-5.2c-1-0.8-1-0.8-1-0.8
								s-3.6,0.9-4.8,1.3C4.6,34.1,4,34.8,3.1,36c-0.9,1.2-2.8,10.1-3,11.4s0,0.1,0,0.1h29.5c0,0,1.1-9.8-0.5-12s-4.2-1.7-5.2-2.3
								C22.9,32.6,21.4,31.4,20.1,31.1z"/>
						</g>
					</g>
					<g>
						<g>
							<g>
								<path class="st5" d="M13.9,38.7c-0.2,0.2-0.6,0.1-0.7-0.2h0c-0.4-1.6-1.2-4.4-1.8-5l-1-0.8l0.5-0.6l1,0.8
									c0.8,0.7,1.6,3.4,1.9,4.7c0.8-0.8,2.5-2.4,3.7-3.2c1.4-1,2.3-3.7,2.3-3.7c0.1,0.3,0.3,0.4,0.6,0.5c0,0.1-0.8,2.8-2.5,3.9
									C16.5,36.1,13.9,38.6,13.9,38.7L13.9,38.7z"/>
							</g>
						</g>
					</g>
					<g>
						<g>
							<path class="st2" d="M16.3,19.1c0,0,2.7,1.8,3.5,3.1c0.7,1.3,1.4,5.1,0,8.1c-1.4,3-1.5,3.1-1.5,3.1s1.7-1.9,2.4-3.7
								s1.6-6.3,1-9.1c-0.5-2.7-1.8-5.6-4.7-5.2c0,0-3.2-2.1-6.2,2.4s-2,5.8-2.2,8.7c-0.2,2.8,0.5,3.1-0.3,5.2s-3.5,2.9-4,5.4
								c-0.5,2.5-0.2,4.8,0.4,5.9c0,0-0.2-1.8,0-3.1c0,0,0.5,4.7,2.6,7.3c0,0,0.4-5.4,2.3-9.5s3.1-4.2,2.6-6.7s-1.7-5.8-1.3-7.8
								C11.4,20.5,16.3,19.1,16.3,19.1z"/>
						</g>
					</g>
					<g>
						<g>
							<path class="st7" d="M9.8,23.3c0,0,0.4-0.3,0.7,0c0.4,0.2,1.5,3.2,0.1,3.3L9.8,23.3z"/>
						</g>
					</g>
					<g>
						<g>
							<path class="st7" d="M21.9,24.4c0,1-0.5,1.9-1.2,2c-0.3,0-0.8-0.6-0.8-1.6s0.5-1.9,0.8-1.9C21.8,22.7,21.9,23.4,21.9,24.4z"
								/>
						</g>
						<g>
							<g>
								<path class="st7" d="M16.3,29.7l-0.1-0.4c3.5-0.5,4.9-3.6,4.9-3.7l0.4,0.2C21.4,25.9,19.9,29.1,16.3,29.7z"/>
							</g>
						</g>
					</g>
				</g>
				<g>
					<g>
						<path class="st4" d="M20.6,17.7c0,0,0.5,2.7,0.5,4.1s-0.5,1.8-0.7,2.9c-0.2,1.2,0.6,1.5,1.1,1.1c0.4-0.3,0.9-1.3,0.5-2.3
							c-0.2-0.6-0.4-1.2-0.5-1.8c-0.1-0.6-0.1-1.3-0.1-1.7C21.4,19,20.6,17.7,20.6,17.7z"/>
					</g>
				</g>
				<g>
					<g>
						<path class="st4" d="M9.9,26.1c0.2,0.2,0.4,0.4,0.7,0.4c0.2,0,0.3-0.1,0.3-0.4c-0.1-0.6-0.6-2-0.9-2.6s-0.1-4.5,0.5-5.3
							c0,0-0.5,0.9-0.7,1.2c-0.2,0.4-0.7,2.4,0,4.2c0,0,0,0.2-0.1,0.6C9.5,24.6,9.4,25.4,9.9,26.1z"/>
					</g>
				</g>
				<g>
					<g>
						
							<ellipse transform="matrix(0.9663 -0.2576 0.2576 0.9663 -7.0393 5.175)" class="st2" cx="16.2" cy="29.5" rx="0.8" ry="0.6"/>
					</g>
				</g>
			</g>
		</g>
		<g>
			<g>
				<g>
					<path class="st4" d="M37.1,12.5V9.5c-4.4,0-8.2,2.8-9.5,6.8c-0.4-1-0.6-2.1-0.6-3.3c0-5.6,4.5-10.1,10.1-10.1V0l7.7,6.2
						L37.1,12.5z"/>
				</g>
			</g>
			<g>
				<g>
					<g>
						<path class="st2" d="M37.9,15.7v2.9c4.4,0,8.2-2.8,9.5-6.8c0.4,1,0.6,2.1,0.6,3.3c0,5.6-4.5,10.1-10.1,10.1v2.9L30.2,22
							L37.9,15.7z"/>
					</g>
				</g>
			</g>
		</g>
	</g>
</g>
</svg>
