<?xml version="1.0" encoding="utf-8"?>
<!-- Generator: Adobe Illustrator 18.0.0, SVG Export Plug-In . SVG Version: 6.00 Build 0)  -->
<!DOCTYPE svg PUBLIC "-//W3C//DTD SVG 1.1//EN" "http://www.w3.org/Graphics/SVG/1.1/DTD/svg11.dtd">
<svg version="1.1" id="Layer_1" xmlns="http://www.w3.org/2000/svg" xmlns:xlink="http://www.w3.org/1999/xlink" x="0px" y="0px"
	 viewBox="0 0 48 48" enable-background="new 0 0 48 48" xml:space="preserve">
<g>
	<g>
		<g>
			<path fill="#415A6B" d="M15.5,30.1c0,0.6-0.2,1.3-0.3,1.9l8.9,1.8v-1.9L15.5,30.1z"/>
			<path fill="#415A6B" d="M13.4,24.3l4.9-6.9c-0.6-0.3-1.1-0.7-1.5-1.1l-4.9,7C12.4,23.5,12.9,23.9,13.4,24.3z"/>
		</g>
		<g>
			<circle fill="#F3F3F3" cx="22.4" cy="9.9" r="8.5"/>
		</g>
		<g>
			<g>
				<path fill="#415A6B" d="M28.4,17.2v-2.8c0-1-0.6-1.9-1.6-2.3c-2.9-1-6-1-8.9,0c-1,0.3-1.6,1.3-1.6,2.3v2.8H28.4z"/>
			</g>
			<g>
				<circle fill="#415A6B" cx="22.4" cy="7.5" r="2.6"/>
			</g>
		</g>
		<path fill="#FFD15C" d="M22.4,19.8c-5.5,0-9.9-4.4-9.9-9.9S16.9,0,22.4,0s9.9,4.4,9.9,9.9S27.8,19.8,22.4,19.8z M22.4,2.8
			c-3.9,0-7.1,3.2-7.1,7.1s3.2,7.1,7.1,7.1s7.1-3.2,7.1-7.1S26.3,2.8,22.4,2.8z"/>
		<circle fill="#F3F3F3" cx="34.9" cy="34.9" r="11.7"/>
		<g>
			<g>
				<path fill="#415A6B" d="M43.8,42.5l0-0.7c0-1.5-1-2.9-2.4-3.4c-4.2-1.5-8.8-1.5-13,0C27,38.9,26,40.2,26,41.8v0.7
					c1.2,1.2,1.9,1.9,3.2,3.2h11.5C41.9,44.4,42.6,43.7,43.8,42.5z"/>
			</g>
			<g>
				<circle fill="#415A6B" cx="34.9" cy="31.6" r="3.8"/>
			</g>
		</g>
		<path fill="#F3705A" d="M34.9,48c-7.2,0-13.1-5.9-13.1-13.1c0-7.2,5.9-13.1,13.1-13.1c7.2,0,13.1,5.9,13.1,13.1
			C48,42.1,42.1,48,34.9,48z M34.9,24.7c-5.7,0-10.3,4.6-10.3,10.3c0,5.7,4.6,10.3,10.3,10.3c5.7,0,10.3-4.6,10.3-10.3
			C45.2,29.3,40.6,24.7,34.9,24.7z"/>
		<circle fill="#F3F3F3" cx="8.5" cy="29.6" r="7.1"/>
		<g>
			<g>
				<path fill="#F3705A" d="M13.6,36.1l0-2.9c0-0.9-0.5-1.6-1.4-1.9c-2.4-0.9-5.1-0.9-7.6,0c-0.8,0.3-1.4,1.1-1.4,1.9v2.9H13.6z"/>
			</g>
			<g>
				<circle fill="#F3705A" cx="8.5" cy="27.3" r="2.2"/>
			</g>
		</g>
		<g>
			<path fill="#66C6B9" d="M8.5,38.1c-4.7,0-8.5-3.8-8.5-8.5s3.8-8.5,8.5-8.5s8.5,3.8,8.5,8.5S13.1,38.1,8.5,38.1z M8.5,23.1
				c-3.6,0-6.5,2.9-6.5,6.5s2.9,6.5,6.5,6.5s6.5-2.9,6.5-6.5S12.1,23.1,8.5,23.1z"/>
		</g>
	</g>
</g>
</svg>
