<?xml version="1.0" encoding="utf-8"?>
<!-- Generator: Adobe Illustrator 19.0.1, SVG Export Plug-In . SVG Version: 6.00 Build 0)  -->
<svg version="1.1" id="Layer_1" xmlns="http://www.w3.org/2000/svg" xmlns:xlink="http://www.w3.org/1999/xlink" x="0px" y="0px"
	 viewBox="0 0 48 48" style="enable-background:new 0 0 48 48;" xml:space="preserve">
<style type="text/css">
	.st0{fill:#66C6B9;}
	.st1{fill:#F3F3F3;}
	.st2{fill:#415A6B;}
	.st3{fill:#CED6E0;}
	.st4{fill:#F3705A;}
	.st5{fill:#E8EAE9;}
	.st6{fill:#4ABAA5;}
	.st7{fill:#F05540;}
	.st8{fill:#FFD15C;}
	.st9{fill:#55C0EB;}
	.st10{fill:#8AD7F8;}
	.st11{fill:#344A5E;}
	.st12{fill:#FFFFFF;}
	.st13{fill:#F7B64C;}
	.st14{fill:#ADB3BA;}
	.st15{fill:#38A892;}
	.st16{fill:#ED9845;}
	.st17{fill:#2D4251;}
	.st18{fill:#304556;}
	.st19{fill:#A5AAAD;}
	.st20{fill:#2D4456;}
	.st21{fill:#4FB0E0;}
	.st22{fill:#2D4354;}
	.st23{fill:#E54C38;}
	.st24{fill:#2B4456;}
	.st25{fill:#2B404F;}
</style>
<g>
	<g>
		<g>
			<g>
				<polygon class="st4" points="26.9,18.6 29,25.8 31.9,24.1 31.3,18.6 				"/>
			</g>
			<g>
				<g>
					<path class="st11" d="M46.4,13.3L46.4,13.3C46.4,13.3,46.4,13.3,46.4,13.3c0.3,0,0.5,0.6,0.4,1.4c0,0.8-0.2,1.4-0.5,1.4
						c0,0,0,0,0,0l-2.9,0.1c0,0,0,0,0,0c-0.3,0-0.4-0.6-0.4-1.4c0-0.8,0.2-1.4,0.5-1.4l0,0c0,0,0,0,0,0L46.4,13.3z"/>
				</g>
				<g>
					<g>
						<path class="st2" d="M44.2,8.7c0.4,0.8,0.8,2.9,0.8,6c0,3.2-0.5,5.3-0.9,6c-0.4-0.8-0.8-2.9-0.8-6
							C43.3,11.5,43.8,9.5,44.2,8.7 M44.2,7.6c-0.9,0-1.6,3.2-1.6,7.1c0,3.9,0.7,7.1,1.6,7.1c0,0,0,0,0,0c0.9,0,1.6-3.2,1.6-7.1
							C45.8,10.8,45.1,7.6,44.2,7.6C44.2,7.6,44.2,7.6,44.2,7.6L44.2,7.6z"/>
					</g>
					<g>
						<path class="st3" d="M44.2,8.7L44.2,8.7c-3.2,1.9-6.9,2.9-10.6,2.9h-1.2v6.6h2.5c2.9,0,6,0.8,8.5,2.2l0.8,0.4
							c0.4-0.8,0.8-2.9,0.9-6C45,11.5,44.5,9.5,44.2,8.7z"/>
					</g>
					<g>
						<path class="st4" d="M33,11.7V18c0,0.3-0.3,0.6-0.6,0.6h-5.9c-0.3,0-0.6-0.3-0.6-0.6v-6.3c0-0.3,0.3-0.6,0.6-0.6h5.9
							C32.8,11.1,33,11.4,33,11.7z"/>
					</g>
					<g>
						<g>
							<rect x="27.1" y="12.4" class="st7" width="4.7" height="1"/>
						</g>
						<g>
							<rect x="27.1" y="14.4" class="st7" width="4.7" height="1"/>
						</g>
						<g>
							<rect x="27.1" y="16.3" class="st7" width="4.7" height="1"/>
						</g>
					</g>
				</g>
			</g>
			<g>
				<path class="st8" d="M30.1,19.3c0,0-0.5,0.3-1.1,0.6c-0.6,0.2-1.5,0.8-1.5,0.8l-0.1-0.3c0,0-1,0.2-1.2,0.8
					c-0.3,0.6-0.6,2.8-0.6,3.6c0,0.8-0.8,2.4-1,3.7c-0.2,1.3-0.3,3.3-0.7,4.4c-0.3,1.1-2.1,4.7-2.1,4.7l5.6,2.9c0,0,1.1-7.6,1.2-9.5
					s0.9-3.2,0.9-3.2s1.3,0,2.3-1.8c1-1.8,1-1.7,1-2c0-0.3-0.2-0.5-0.5-0.5c0,0,0.6-0.5,0.2-0.9c-0.4-0.4-0.7-0.3-0.7-0.3
					s0.6-0.4,0.4-0.9c-0.1-0.5-0.8-0.7-1-0.6c0,0,0.8-0.4,0.7-1S30.7,19,30.1,19.3z"/>
			</g>
		</g>
		<g>
			<ellipse transform="matrix(0.9429 -0.3332 0.3332 0.9429 -2.7714 4.7241)" class="st8" cx="12.4" cy="10.4" rx="1.5" ry="2.4"/>
		</g>
		<g>
			<path class="st8" d="M16.6,19.4c0,0-1.4,4.6-1.6,7.6l-8.2-5.8c0,0,1.3-0.8,1.7-6.2C9,9.7,9,9.7,9,9.7s4.7-10.3,9.8-6.9
				c0,0,2.4,3.3,2.6,5.2c0,0,0.1,0.8-0.2,1.1c0,0,1.1,2.1,1.2,2.7s-0.1,0.8-0.4,0.9c-0.2,0.1-0.7,0.2-0.7,0.2s0.1,0.6,0.6,1.4
				s-0.4,1-0.6,1c0,0,0.4,0.3,0.1,1C19.8,16.6,22.1,20.3,16.6,19.4z"/>
		</g>
		<g>
			<path class="st11" d="M15,11.1l1.1-0.3c0,0-0.7-1.6-0.2-2.6c0.5-1,2-1.3,1.6-2.4s-1.9-2.8-0.9-2.7s2.6,0.8,3.5,0.5s1-2.3,0-2.9
				c-1-0.7-4.1-0.9-6.8-0.6S8.2,1.3,7.3,3.3S7,8.7,7.8,10.1s0.8,4.9,0.8,4.9s2-0.1,2.1-2.4s0.3-3.7,1.5-3.9S14.6,9.4,15,11.1z"/>
		</g>
		<g>
			<path class="st10" d="M7.6,20.1c0,0,2.5,0.6,4.1,2.1c1.6,1.5,3.7,3.1,3.8,1.5c0,0,1.8,2.2,3,5.5c1.2,3.3,3,12.7,2.7,18.9H2.4
				c0,0,0.1-8.2-0.7-10.9c-0.7-2.7-0.9-5.5,0.5-9.6S7.6,20.1,7.6,20.1z"/>
		</g>
		<g>
			<path class="st9" d="M9.5,39.4l-1.3,0.7c0,0-0.7,1.2,2.7-0.5C14.4,37.9,9.5,39.4,9.5,39.4z"/>
		</g>
		<g>
			<path class="st9" d="M18.6,34c0,0-1.2-0.8-1.5-1.6s-1.6-1.3-3.1-1.9c-1.5-0.6,0.9-0.1,1.7,0.3c0.8,0.4,0.8,0.4,0.8,0.4
				s-1.7-1.1-2.7-1.5s-0.9-0.9-0.1-0.5c0.8,0.4,2.4,1.4,2.4,1.4s-2.9-2.9-3.7-3.3c-0.8-0.4-1.6-0.6-2.3-0.6c-0.7,0,0.4-0.5,1.4-0.1
				c1.1,0.4,1.9,1,2.5,1.6s2.4,2.1,2.6,2.6c0.3,0.5,0.4,0.8,0.5,1.2S18.6,34,18.6,34z"/>
		</g>
		<g>
			<path class="st9" d="M8.2,40.1c0,0-0.4-1.8-1.1-2.4c-0.7-0.6-1-0.6-1.6-1.8S4.7,33,4.6,33.6c-0.1,0.6,0.5,2.2,0.9,2.7
				c0,0-1.1-1.2-1.2-1.9c-0.1-0.7-0.6,0.7,0.8,1.9c0,0-1-0.5-2.1-2.1S1.4,31,1.7,32.1c0.3,1.1,1.2,3.4,3.6,4.7c0,0-1.6-0.1-2.5-1.5
				s-0.6,0-0.1,0.5s2.2,1.1,3.1,1.4C6.7,37.6,7.3,37.9,8.2,40.1z"/>
		</g>
		<g>
			<path class="st8" d="M27.4,40.4c0,0-0.9,2.9-1.1,3.9c-0.1,1-1.1,3.1-2.6,2.8c-1.5-0.2-3.3-0.9-5.4-2c-1.9-0.9-6.4-3.7-8.8-5.8
				c0.9-0.5,2-1,2.6-1.2c1-0.3,6.1-3,6.5-4.2c0,0,2.3,1.9,3.2,3.5l4.6,0.2L27.4,40.4z"/>
		</g>
	</g>
</g>
</svg>
