<?xml version="1.0" encoding="utf-8"?>
<!-- Generator: Adobe Illustrator 18.0.0, SVG Export Plug-In . SVG Version: 6.00 Build 0)  -->
<!DOCTYPE svg PUBLIC "-//W3C//DTD SVG 1.1//EN" "http://www.w3.org/Graphics/SVG/1.1/DTD/svg11.dtd">
<svg version="1.1" id="Layer_1" xmlns="http://www.w3.org/2000/svg" xmlns:xlink="http://www.w3.org/1999/xlink" x="0px" y="0px"
	 viewBox="0 0 512 512" enable-background="new 0 0 512 512" xml:space="preserve">
<g>
	<path fill="#40596B" d="M343,60.7c-77.4-77.9-203.7-78.3-281.5-0.9c-77.9,77.4-78.2,203.7-0.9,281.5
		c77.4,77.9,203.7,78.2,281.5,0.9S420.4,138.5,343,60.7z"/>
	<path fill="#FFFFFF" d="M201.8,357.8c-42.2,0-81.7-16.4-111.3-46.2c-61-61.3-60.7-160.9,0.7-221.9c29.5-29.3,68.8-45.5,110.6-45.5
		c42.2,0,81.7,16.4,111.3,46.2c61,61.4,60.7,160.9-0.7,221.9C282.8,341.6,243.6,357.8,201.8,357.8L201.8,357.8z"/>
	<path fill="#334A5E" d="M358,358.2c6-6,13.2-9.9,20.7-12.3l-21.1-21.3c-4.8,6.1-9.9,12-15.5,17.6c-5.6,5.6-11.6,10.7-17.7,15.4
		l21.1,21.3C348,371.3,352,364.2,358,358.2z"/>
	<path fill="#F8B64C" d="M276,144.1c13.8,18,20.2,39.8,19.2,61.4h42.2c1.1-32.4-9.3-65.1-31.3-91.4L276,144.1z"/>
	<path fill="#FF7058" d="M294,216c-3,18.8-11.7,36.9-26.3,51.3c-0.3,0.3-0.7,0.6-1,0.9l29.8,29.9c0.3-0.3,0.6-0.5,0.9-0.8
		c22.8-22.7,35.8-51.5,39.1-81.3H294z"/>
	<path fill="#F2F2F2" d="M135.5,266.9c-13.9-14-22.8-31.7-25.8-50.9H67c3.3,30.5,16.6,58.7,38.5,80.7c0.5,0.5,1,0.9,1.5,1.4
		l29.8-29.8C136.4,267.8,135.9,267.4,135.5,266.9z"/>
	<path fill="#CDD6E0" d="M108.6,205.4c-0.1-1.6-0.2-3.2-0.2-4.8c0.1-20.8,6.9-40.5,19.4-56.7L97.6,114
		c-20.3,24.2-31.4,54.5-31.5,86.6c0,1.6,0.2,3.3,0.2,4.9H108.6z"/>
	<path fill="#ACB3BA" d="M134.6,136c0.4-0.5,0.8-0.9,1.3-1.4c16.3-16.2,37.7-25.6,60.7-26.8V65.6c-34.2,1.3-66.1,15-90.4,39.1
		c-0.5,0.5-0.9,1-1.4,1.5L134.6,136z"/>
	<path fill="#FFD15C" d="M207.1,107.8c23.1,1.3,44.7,10.8,61.1,27.3c0.3,0.3,0.6,0.7,0.9,1l29.8-29.9c-0.3-0.3-0.5-0.6-0.8-0.9
		c-24.4-24.5-56.5-38.4-91-39.7V107.8z"/>
	<g>
		<path fill="#40596B" d="M246.9,184c0,0-31.6,48.1-41.8,54.9c-10.1,6.8-23.9,4.2-30.7-5.9c-6.8-10.1-4.2-23.9,5.9-30.7
			C190.5,195.4,246.9,184,246.9,184z"/>
		<circle fill="#FFFFFF" cx="192.7" cy="220.6" r="11.3"/>
	</g>
	<path fill="#CDD6E0" d="M493.3,494.3L493.3,494.3c-21.2,21-55.3,20.9-76.4-0.2l-65.6-66c-21-21.2-20.9-55.3,0.2-76.4l0,0
		c21.2-21,55.3-20.9,76.4,0.2l65.6,66C514.5,439.1,514.4,473.3,493.3,494.3z"/>
	<path fill="#ACB3BA" d="M493.3,494.3L493.3,494.3c-21.2,21-55.3,20.9-76.4-0.2l76.6-76.1C514.5,439.1,514.4,473.3,493.3,494.3z"/>
</g>
</svg>
