<?xml version="1.0" encoding="utf-8"?>
<!-- Generator: Adobe Illustrator 18.0.0, SVG Export Plug-In . SVG Version: 6.00 Build 0)  -->
<!DOCTYPE svg PUBLIC "-//W3C//DTD SVG 1.1//EN" "http://www.w3.org/Graphics/SVG/1.1/DTD/svg11.dtd">
<svg version="1.1" id="Layer_1" xmlns="http://www.w3.org/2000/svg" xmlns:xlink="http://www.w3.org/1999/xlink" x="0px" y="0px"
	 viewBox="0 0 48 48" enable-background="new 0 0 48 48" xml:space="preserve">
<g>
	<path fill="#FFD15C" d="M45,48H3c-1.1,0-2-0.9-2-2V33.4h46V46C47,47.1,46.1,48,45,48z"/>
	<path fill="#F8B64C" d="M48,33.4H0V12.6c0-1.1,0.9-2,2-2h44c1.1,0,2,0.9,2,2V33.4z"/>
	<path fill="#F8B64C" d="M13.5,10.6c2-3.8,6-6.4,10.5-6.4c4.6,0,8.5,2.6,10.5,6.4h4.6C36.9,4.4,31,0,24,0C17,0,11.1,4.4,8.8,10.6
		H13.5z"/>
	<g opacity="0.1">
		<path fill="#231F20" d="M14.4,9.1H9.5c-0.2,0.5-0.5,1-0.6,1.5h4.6C13.8,10.1,14.1,9.6,14.4,9.1z"/>
		<path fill="#231F20" d="M34.5,10.6h4.6c-0.2-0.5-0.4-1-0.6-1.5h-4.9C33.9,9.6,34.2,10.1,34.5,10.6z"/>
	</g>
	<g>
		<path fill="#40596B" d="M23.9,29.2c-1.5,0.1-2.7,1.5-2.7,3v2.6c0,1.5,1.1,2.9,2.7,3c1.6,0.1,2.9-1.2,2.9-2.8V32
			C26.8,30.4,25.5,29.1,23.9,29.2z"/>
		<circle fill="#FFFFFF" cx="24" cy="35.2" r="1.2"/>
	</g>
</g>
</svg>
