<?xml version="1.0" encoding="utf-8"?>
<!-- Generator: Adobe Illustrator 18.0.0, SVG Export Plug-In . SVG Version: 6.00 Build 0)  -->
<!DOCTYPE svg PUBLIC "-//W3C//DTD SVG 1.1//EN" "http://www.w3.org/Graphics/SVG/1.1/DTD/svg11.dtd">
<svg version="1.1" id="Layer_1" xmlns="http://www.w3.org/2000/svg" xmlns:xlink="http://www.w3.org/1999/xlink" x="0px" y="0px"
	 viewBox="0 0 48 48" enable-background="new 0 0 48 48" xml:space="preserve">
<g>
	<g>
		<g>
			<path fill="#F3F3F3" d="M45.3,46.3c-14-2.1-28.1,3.2-42.3,1.3c-2-0.3-3.3-1.3-2.9-2.1c2.8-6.2,5.9-13.1,9.4-21
				c0.5-1.1,1.8-1.8,2.9-1.6c7.8,1.3,15.6-2.3,23.3-0.9c1,0.2,2.3,1.4,2.8,2.5c3.5,7.8,6.7,14.8,9.4,21
				C48.3,46.3,47.1,46.5,45.3,46.3z"/>
			<path fill="#FFFFFF" d="M4.8,45.8c2.1-6,4.5-12.6,7.2-20.1c8,1.1,16.1-2.3,24.1-1.1c2.7,7.3,5.2,13.8,7.4,19.7
				C30.6,42.7,17.7,47.3,4.8,45.8z"/>
			<g>
				<path fill="#F3F3F3" d="M24.9,24.4h-2.2c0.6,2.1,2.6,6.6,10.5,10c-1.4,1.7-3.1,3.4-4.9,5.1c-7.8-1.3-14.2-2.4-19.6-5.8
					c-0.6,0.5-1.2,0.9-1.9,1.3c5.6,3.5,12.1,4.7,19.8,5.9c-1.8,1.6-3.8,3.2-6,4.8H24c4.8-3.5,8.7-7.1,11.6-10.3
					c1.8,0.7,4,1.5,6.3,2.5l0.2-1.3C30.2,32.1,26.2,27.1,24.9,24.4z"/>
			</g>
			<g>
				<path fill="#415A6B" d="M40.2,35.6c-1.3-3.5-2.7-7.1-4.1-11c-3.6-0.5-7.2-0.1-10.9,0.4C26.7,28.1,30.5,31.7,40.2,35.6z"/>
				<path fill="#FFD15C" d="M28.3,39.5c1.9-1.7,3.5-3.5,4.9-5.1c-6.9-3-9.2-6.6-10.2-9.1c-3.7,0.5-7.3,0.9-11,0.4
					c-1,2.9-2,5.6-3,8.2C14.3,37.1,20.7,38.2,28.3,39.5z"/>
				<path fill="#66C6B9" d="M35.6,35.4c-2.7,3-6.2,6.2-10.5,9.5c6.1-0.7,12.4-1.4,18.4-0.6c-0.8-2.2-1.7-4.4-2.5-6.8
					C39,36.7,37.2,36.1,35.6,35.4z"/>
				<path fill="#66C6B9" d="M26.6,41c-7.1-1.1-13.1-2.1-18.3-5c-1.3,3.5-2.4,6.8-3.5,9.9c5.5,0.6,10.9,0.2,16.3-0.4
					C23.1,43.9,24.9,42.5,26.6,41z"/>
			</g>
		</g>
		<g>
			<path fill="#F3705A" d="M33.9,23.8L24,33.7l-9.9-9.9c-5.5-5.5-5.5-14.3,0-19.7c5.5-5.5,14.3-5.5,19.7,0
				C39.3,9.5,39.3,18.4,33.9,23.8z"/>
			<circle fill="#FFFFFF" cx="24" cy="14" r="9.2"/>
			<g>
				<g>
					<g>
						<path fill="#F3705A" d="M17.4,12.2c0,4.2,6.6,8.2,6.6,8.2s6.6-4,6.6-8.2c0-1.9-1.5-3.4-3.4-3.4c-1.4,0-2.6,0.9-3.2,2.1
							c-0.5-1.2-1.7-2.1-3.2-2.1C18.9,8.8,17.4,10.3,17.4,12.2z"/>
					</g>
				</g>
				
					<ellipse transform="matrix(0.6476 -0.762 0.762 0.6476 1.5404 25.4557)" fill="#FFFFFF" cx="28.3" cy="11.1" rx="0.6" ry="1.2"/>
			</g>
		</g>
	</g>
</g>
</svg>
