<?xml version="1.0" encoding="utf-8"?>
<!-- Generator: Adobe Illustrator 18.0.0, SVG Export Plug-In . SVG Version: 6.00 Build 0)  -->
<!DOCTYPE svg PUBLIC "-//W3C//DTD SVG 1.1//EN" "http://www.w3.org/Graphics/SVG/1.1/DTD/svg11.dtd">
<svg version="1.1" id="Layer_1" xmlns="http://www.w3.org/2000/svg" xmlns:xlink="http://www.w3.org/1999/xlink" x="0px" y="0px"
	 viewBox="0 0 48 48" enable-background="new 0 0 48 48" xml:space="preserve">
<g>
	<g>
		<g>
			<g>
				<path fill="#425A6B" d="M36.9,42.7c0,0,1.1,3.5,0.7,5.3H18.5c0,0,0.2-4.3,1.4-5C19.8,43,30.3,45.8,36.9,42.7z"/>
			</g>
		</g>
	</g>
	<g>
		<g>
			<ellipse fill="#F3F3F3" cx="15.1" cy="34.8" rx="1.7" ry="1"/>
		</g>
	</g>
	<g>
		<g>
			<g>
				<path fill="#F26F5A" d="M20.2,19.8l-1.8-0.4c0,0-1.1,0.8-1.1,2.7c-0.1,1.9-0.1,5.6-0.2,7c-0.1,1.4-1.2,5-1.2,5s-1.4,4.3,0,4.7
					s4.6-0.4,4.6-0.4s3.1-6.3,3.2-6.9C23.8,31,20.2,19.8,20.2,19.8z"/>
			</g>
		</g>
	</g>
	<g>
		<g>
			<g>
				<path fill="#E8EAE8" d="M18.7,38.8L18.7,38.8c-1,0.1-2.1,0.2-2.8,0.1c-0.8-0.2-0.7-1.8-0.4-3C20.4,35,18.7,38.8,18.7,38.8z"/>
			</g>
		</g>
	</g>
	<g>
		<g>
			<g>
				<path fill="#FFD15C" d="M32.1,8.2l0.1,0.9c0,0,0,1.5-0.1,2v3.3l-1.6,3l-3.6,0.2l-1.5-1.5l0.1-3.5c0,0-1-1.5-1-3
					c0-1.5,0-1.9,0-1.9s-0.7-4.2,0.4-5.2C26,1.7,31.2,2,31.2,2l1,1.6L32.1,8.2z"/>
			</g>
		</g>
	</g>
	<g>
		<g>
			<g>
				<path fill="#FFD15C" d="M32.1,8.2l0.1,0.9c0,0,0,1.5-0.1,2v3.3l-1.6,3l-3.6,0.2l-1.5-1.5l0.1-3.5c0,0-1-1.5-1-3
					c0-1.5,0-1.9,0-1.9s-0.7-4.2,0.4-5.2C26,1.7,31.2,2,31.2,2l1,1.6L32.1,8.2z"/>
			</g>
		</g>
	</g>
	<g>
		<g>
			<path fill="#F5B54C" d="M32.2,9.2l-0.1-0.8c0,0,0-0.1-0.1-0.1C32,8.2,32,8.1,32,8.1l0,0l0,0c0,0,0-0.1-0.1-0.1l0,0
				c0-0.1-0.1-0.1-0.1-0.2l-0.1-0.1c0,0,0,0,0-0.1l0,0c0,0,0,0,0,0l0,0c0,0,0,0,0,0l0,0c0,0,0,0,0,0l0-0.1c0,0,0,0,0,0l0,0.1l0.1,0
				l0.1,0c0.1,0,0.1,0,0.2,0l0.1,0l0-0.3l-0.1,0c0,0-0.1,0-0.1,0c0,0-0.1,0-0.1,0c0,0-0.1,0-0.1,0l-0.1,0c0,0,0,0-0.1,0l0,0
				c0,0,0,0-0.1,0l0,0c0,0-0.1,0-0.1,0l0,0c0,0,0,0,0,0l0,0c0,0,0,0,0,0l0,0.1c0,0,0,0,0,0.1l0,0c0,0,0,0.1,0,0.1l-0.1,0.2l0.1,0.1
				c0,0.1,0.1,0.1,0.1,0.2l0,0c0,0,0,0.1,0.1,0.1c0,0.1,0.1,0.1,0.1,0.2l0.1,0.1c0,0.1,0.1,0.2,0.2,0.4c0,0.1,0.1,0.1,0.1,0.2
				l0.1,0.1c0,0,0,0,0,0.1C32,9,32,9,32,9c0,0,0,0.1,0,0.1c0,0,0,0.1,0,0.1l0.2,0.7C32.2,9.5,32.2,9.2,32.2,9.2z"/>
		</g>
	</g>
	<g>
		<g>
			<g>
				<path fill="#F05640" d="M33,15.1c0,0,2,1.2,2.7,1.4c0.7,0.2,3.4,2.1,3.4,2.1s-2.4,2.4-2.3,4.1s1.7,3,1.7,3s0,2.8-0.2,3.8
					c-0.2,1-0.7,1.8-0.9,2.7c-0.2,0.9-0.8,9-0.8,9l-3.5,2.7l-10.5,0.9l-3.1-2.4c0,0,0.3-2.2,0.5-3.1c0.2-0.9,0.8-3.9,0.9-4.4
					c0.1-0.5,0.3-3.3,0-4.3c-0.3-1-2.1-4.5-2.1-5.4c0-0.9,0.1-4.9-0.4-5.6c0,0,2.1-1.7,3.7-2.4c1.5-0.7,3.1-1.9,3.1-1.9l2.7,1.7
					l0.6,0l1.9-0.4L33,15.1z"/>
			</g>
		</g>
	</g>
	<g>
		<g>
			<g>
				<path fill="#425A6B" d="M28.2,18.3l0.1,1.2c0,0,0.6,2.2,0.6,2.8c0,0.6-0.8,7.8-0.7,9.2c0.1,1.4-0.4,6.8-0.4,6.8l-2,2.5l-1.8-2.6
					c0,0,0.9-10.3,1.7-12.9c0.8-2.7,1.6-5.9,1.6-5.9L28.2,18.3z"/>
			</g>
		</g>
	</g>
	<g>
		<g>
			<g>
				<path fill="#425A6B" d="M27,17.1c1-0.3,1.9-0.3,2.5,0l0.2,1c0,0-1.2,0.6-1.3,1.4c-0.3-0.2-0.7-0.2-1,0c0.1-0.1-0.5-1.2-0.9-1.4
					c-0.4-0.2-0.3-0.3-0.3-0.3L27,17.1z"/>
			</g>
		</g>
	</g>
	<g>
		<g>
			<g>
				<polygon fill="#E8EAE8" points="28.9,34.7 17.4,33.3 14.7,33.3 17.6,34.8 28.2,35.3 				"/>
			</g>
		</g>
	</g>
	<g>
		<g>
			<g>
				<path fill="#F3F3F3" d="M17.6,34.8c0.1-0.1,11.3-0.1,11.3-0.1s0.2,1-0.7,1s-11.1-0.3-11.1-0.3L17.6,34.8z"/>
			</g>
		</g>
	</g>
	<g>
		<g>
			<g>
				<path fill="#425A6B" d="M31.8,5c-0.1,0.3-1,1-0.7,1.7c0.3,0.7,0.7,0.5,0.7,1.2h0.8c0.3-0.8,0.6-1.9,0.8-2.7
					c0.3-1.3,0.1-2.4-0.4-3.1c-0.5-0.7-1.7-2.1-3.7-2.2c-2-0.1-4.4,0.4-4.8,1.5c-0.4,1.1-0.5,3.2-0.3,3.9c0.2,0.7,0.1,2.5,0.5,2.8
					c0,0,0-2.1,0.1-2.7c0-0.6-0.3-2,0.8-1.9c1.1,0,2.6,0.3,4.5-0.2C32,2.8,31.9,4.7,31.8,5z"/>
			</g>
		</g>
	</g>
	<g>
		<g>
			<g>
				<path fill="#F5B54C" d="M32.1,11.1C32.1,11.1,32.1,11.1,32.1,11.1c0,0.1-0.3,1.7-1.6,3c-1.4,1.3-2.9,1.3-1.9,1.7
					c1,0.4,0.8,0.5,0.1,0.7c-0.5,0.1-2.3,0.4-3.2-0.1l0,0l0.1-3.5c0,0,0.3,0.7,0.8,1.1c0.4,0.4,1.4,0.9,2,0.8
					c0.6-0.1,1.4-0.7,2.2-1.3C31.1,12.8,32.1,11.1,32.1,11.1z"/>
			</g>
		</g>
	</g>
	<g>
		<g>
			<g>
				<path fill="#FFD15C" d="M36.7,11.9c-0.4-0.6-0.4-0.7-0.4-1.2c0-0.3,0.1-1.6,0.2-2.2c0-0.2,0-0.3-0.2-0.4
					c-0.2-0.2-0.5-0.5-0.6-0.7c-0.2-0.3-1-1.5-1-1.5s-0.4-0.2-0.6-0.1C33.9,6,32.7,6,32.7,6s-0.4,0.1-0.5,0.4h-0.9
					c0,0-0.1,0.4,0.2,0.6c0,0,0.1,0.3,0.6,0.3c-0.1,0-0.5,0-0.7,0.4l0.4,0.5c0,0,0.1,0.4,0.3,0.6c0.2,0.2,0.2,0.8,0.2,0.9
					c0,0.2,0.2,2,0.4,2.3c0.2,0.3,0.8,0.8,1.1,1.1c0.3,0.3,2,2.4,2,2.4l2.1-1.8C37.8,13.6,37,12.5,36.7,11.9z M34.1,9h-0.5
					c0,0-0.3,0.1-0.4-0.3c0-0.4-0.4-0.9-0.4-0.9C33,7.8,33,7.7,33.2,7.6l0.7,0.3l0.3,0.9L34.1,9z"/>
			</g>
		</g>
	</g>
	<g>
		<g>
			<g>
				<g>
					<path fill="#F5B54C" d="M35.1,7.2C35,7.1,34.9,7,34.9,6.9c-0.1-0.2-0.2-0.3-0.3-0.5c0,0-0.1-0.1-0.1-0.1c0,0,0,0,0-0.1l0,0l0,0
						c-0.1,0-0.2-0.1-0.2-0.1c-0.1,0-0.3,0-0.4,0l-0.3,0.1c-0.1,0-0.2,0.1-0.3,0.1c-0.1,0-0.2,0.1-0.2,0.1c0,0,0,0-0.1,0
						c0,0,0,0-0.1,0c-0.2,0.1-0.4,0.3-0.5,0.5c0,0-0.1,0.1-0.1,0.1c-0.1,0.1-0.1,0.2-0.2,0.3c-0.1,0.1-0.1,0.2-0.1,0.4c0,0,0,0,0,0
						C32,8,32,8,32,8c0,0,0,0.1,0.1,0.1c0,0,0,0,0,0c0,0,0,0,0.1,0h0c0.1,0,0.2,0,0.2,0c0.1,0,0.2-0.1,0.2-0.1
						c0.1,0,0.1-0.1,0.2-0.1c0,0,0-0.1,0-0.1c-0.3,0.3-0.6,0.3-0.7,0.2C32.1,8,32,7.8,32.1,7.7c0-0.1,0.1-0.2,0.3-0.4c0,0,0,0,0-0.1
						c0-0.1,0.1-0.1,0.1-0.2c0-0.1,0.1-0.1,0.1-0.1c0.3-0.3,1-0.7,1.5-0.6c0.3,0.1,0.4,0.3,0.6,0.5C34.9,7,35,7.1,35.1,7.2
						c0.1,0.1,0.1,0.2,0.2,0.2C35.2,7.3,35.1,7.2,35.1,7.2z"/>
				</g>
			</g>
			<g>
				<g>
					<g>
						<path fill="#F5B54C" d="M34.8,8.5c-0.3,0-0.5,0.2-0.6,0.4c-0.1,0.2-0.2,0.5-0.2,0.8c-0.1,0.6-0.2,1.2-0.3,1.8
							c0,0.1,0,0.3,0,0.4c-0.1-0.5-0.1-1,0.1-1.5c-0.2,0.2-0.3,0.4-0.4,0.7c0-0.2,0-0.4,0.1-0.5c0.1-0.1,0.2-0.3,0.2-0.4
							c0-0.2-0.2-0.4-0.2-0.5c0-0.3,0.2-0.5,0.5-0.5c-0.2,0-0.4,0-0.7,0c0,0-0.1,0-0.1,0c0,0,0-0.1,0-0.1c0-0.4-0.1-0.7-0.4-1.1
							c0,0,0,0,0,0c0.2,0.2,0.3,0.5,0.4,0.8c0,0.1,0,0.2,0.1,0.2C33.4,9,33.6,9,33.7,9c0.1,0,0.1,0,0.2,0C34,9,34,9,34,9
							c0,0,0,0,0-0.1c0-0.2-0.2-0.4-0.3-0.6c-0.1-0.1-0.3-0.3-0.4-0.4c-0.2-0.2-0.4-0.5-0.3-0.8c0.1,0.2,0.3,0.3,0.5,0.2
							c0,0,0.1,0,0.1,0c0.1,0,0.1-0.1,0.1-0.2c0-0.1,0-0.1,0.1-0.2c0,0.1,0,0.1,0,0.2c0,0.1,0,0.1,0,0.2c0,0.1,0.1,0.1,0.1,0.1
							c0.1,0.1,0.2,0.1,0.3,0.2c0.1,0,0.3,0.1,0.4,0.1c-0.1,0-0.2,0-0.3,0c-0.1,0-0.2,0.1-0.2,0.2c0,0.1,0,0.1,0.1,0.2
							c0.1,0.1,0.1,0.3,0.1,0.4c0-0.1,0.1-0.1,0.1-0.1c0.1,0,0.1,0,0.2,0C34.6,8.5,34.7,8.5,34.8,8.5z"/>
					</g>
				</g>
			</g>
		</g>
	</g>
	<g>
		<g>
			<g>
				<g>
					<path fill="#344A5E" d="M31.7,6.9c0,0-0.8,0.1-1,0c-0.2-0.1-1.3-0.1-1.7,0c-0.4,0-0.7,0.1-0.8,0.2c-0.1,0.1-0.7,0.1-0.9,0
						C27,7,26.8,6.8,26.2,6.7c-0.6-0.1-1.6,0-1.8,0c-0.2,0-0.5,0-0.5,0s0,0.4,0,0.4c0,0,0.2,0.1,0.2,0.2c0,0.1,0.1,1.1,0.4,1.5
						c0.3,0.4,0.8,0.4,1,0.4c0.3,0,0.9,0,1.3-0.3c0.4-0.4,0.5-1.1,0.5-1.2c0-0.1,0-0.1,0.2-0.1c0,0,0.2,0,0.3,0.1
						c0.1,0.2,0.2,1,0.7,1.3c0.5,0.3,1.3,0.4,1.8,0.3c0.5-0.1,0.8-0.8,0.8-1c0-0.2,0.1-0.8,0.3-0.8c0.1-0.1,0.4-0.1,0.4-0.1
						L31.7,6.9z M27.1,7.9c-0.1,0.4-0.4,0.9-0.8,1c-0.4,0.1-1,0.1-1.4-0.1c-0.3-0.2-0.5-0.7-0.5-1.2c0-0.4,0.1-0.6,0.5-0.7
						c0.4-0.1,1.4,0,1.6,0c0.1,0,0.2,0.1,0.2,0.1c0.2,0.1,0.3,0.2,0.3,0.4C27.1,7.6,27.1,7.8,27.1,7.9z M30.9,8.5
						c-0.1,0.3-0.5,0.6-1,0.6c-0.5,0-1-0.1-1.3-0.5c-0.2-0.2-0.4-0.7-0.4-1c-0.1-0.2,0-0.4,0.2-0.6c0,0,0,0,0,0
						C28.7,7,29.9,7,30.3,7c0.4,0,0.7,0.3,0.8,0.5C31.1,7.7,31,8.3,30.9,8.5z"/>
				</g>
			</g>
		</g>
	</g>
	<g>
		<g>
			<g>
				<path fill="#FFD15C" d="M32.2,6.3h-0.9c0,0-0.1,0.4,0.2,0.6c0,0,0.1,0.3,0.6,0.4L32.2,6.3z"/>
			</g>
		</g>
	</g>
	<g>
		<g>
			<g>
				<path fill="#F5B54C" d="M33.2,6c0,0-0.5,0.2-0.6,0.3c-0.1,0.2-0.2,0.4-0.3,0.6c-0.1,0.1-0.2,0.3-0.3,0.4c0,0,0,0,0,0
					c0.1,0,0.1-0.1,0.2-0.1c0.1-0.1,0.2-0.3,0.3-0.4c0.1-0.1,0.2-0.3,0.3-0.4C32.9,6.1,33.3,6,33.6,6C33.5,6,33.3,6,33.2,6z"/>
			</g>
		</g>
	</g>
	<g>
		<g>
			<g>
				<path fill="#F5B54C" d="M32,6.5c-0.1,0-0.1,0.1-0.2,0.1C31.7,6.7,31.4,7,31.4,7s0.1,0,0.1-0.1c0.1,0,0.2-0.1,0.3-0.2
					C32,6.6,32,6.6,32.1,6.5c0-0.1,0.1-0.1,0.1-0.1C32.1,6.4,32,6.5,32,6.5z"/>
			</g>
		</g>
	</g>
	<g>
		<g>
			<path fill="#425A6B" d="M33,15.2c-0.3-0.1-0.5-1.6-0.9-1.7"/>
		</g>
	</g>
	<g>
		<g>
			<g>
				<path fill="#F26F5A" d="M35.2,15.2l1.7,3l0.9,1.8c0,0-1.1,0.9-1.1,2.6c0,1.7,1.8,2.8,1.8,2.8s1,0.3,1.3,0.6
					c0.3,0.3,2.5,1.7,3.1,1.5c0.6-0.1,1.3-0.4,2.1-0.8c0.8-0.4,2-2,1.2-3.5c-0.8-1.5-1.6-2.9-2.7-3.8c-1-0.8-3.3-3.4-3.3-3.4l-2.4-3
					C37.8,13.2,35.5,14.3,35.2,15.2z"/>
			</g>
		</g>
	</g>
	<g>
		<g>
			<g>
				<path fill="#F05640" d="M42.8,25.9c0,0-0.6,0-1.7-0.3c-1.1-0.3-1.4-1.6-1.7-2.1c-0.3-0.5-1.6-3.3-1.6-3.3s0,0-0.1,0.1l0.7,1.4
					l1.4,2.9l0.6,1c0,0,0.6,1.2,0.8,1.3c0.2,0.2,0.5,0.3,0.2,0.1c-0.3-0.2-0.9-1.5-0.9-1.5s0.3,0.3,0.4,0.4c0.1,0.1,0.5,0.5,0.9,0.8
					c0.4,0.2,0.7,0,0.3,0c-0.4-0.1-1.2-0.9-1.2-0.9s0.7,0.3,1.4,0.3C43.1,26,42.8,25.9,42.8,25.9z"/>
			</g>
		</g>
	</g>
	<g>
		<g>
			<g>
				<path fill="#CED6E0" d="M1.6,22.4l4.5,11.2c0.1,0.2,0.2,0.3,0.4,0.3l10.7,1.5c0.3,0,0.6-0.3,0.5-0.6l-4.9-12.4
					c-0.1-0.2-0.2-0.3-0.4-0.3L2,21.8C1.7,21.8,1.5,22.1,1.6,22.4z"/>
			</g>
		</g>
	</g>
	<g>
		<g>
			<g>
				<g>
					<path fill="#FFD15C" d="M18.7,37.3l-0.4,0.6c0,0-0.9,0.1-1.7,0c-0.8,0-1.3-0.4-1.5-0.6c-0.2-0.2-0.3-0.3-0.8-0.4
						c-0.5-0.1-1.1-0.1-1.4-0.4c0,0-0.8-0.1-1-0.7c0,0-0.3-0.2-0.8-0.3c-0.5-0.1-1-0.1-1-0.6l-0.5-0.8c0,0,0.4-0.8,1-0.3
						c0.6,0.5,0.5,0.6,0.5,0.6l0.3,0.1c0,0-0.2-1-0.2-2c-0.1-0.9-0.3-1,0.1-1.2c0.4-0.2,0.6,0.1,0.6,0.1c0-0.2,0.8-0.8,1.1,0.2
						c0.2,0.6,0.2,1.2,0.2,1.2s0-0.5,0.6-0.4c0.7,0.1,0.6,1.5,0.7,1.8c0.1,0.2,0.1,0.6,0.3,0.8c0.2,0.1,0.4,0.2,0.6,0.2
						c0.2,0,0.4,0,0.4,0s0-0.1,0.1-0.1l1.3,0.2l0.1,0c0.1,0,0.1,0,0.2,0c0.1,0,0.2,0,0.2,0c0.1,0.2,0,0.6,0,0.6s0.5-0.1,0.7,0.5
						C18.6,37.1,18.7,37.3,18.7,37.3z"/>
				</g>
			</g>
		</g>
		<g>
			<g>
				<g>
					<path fill="#F5B54C" d="M15.5,36.1c-0.2-0.2-0.5-0.6-0.6-0.8c0.1,0.1,0.3,0.1,0.4,0.1c0.2,0,0.4,0,0.4,0s0,0,0-0.1
						c0,0.2,0,0.4,0,0.6c0,0.4,0,0.2,0.1,0.4C15.9,36.5,15.8,36.3,15.5,36.1z"/>
				</g>
			</g>
		</g>
		<g>
			<g>
				<g>
					<g>
						<path fill="#F5B54C" d="M13.1,33c0,0,0.1,0.2,0.2,0.5c0,0.2,0.1,0.3,0.1,0.5c0,0.2,0.1,0.4,0.1,0.6c0,0.2,0,0.4,0.1,0.6
							c0,0.1,0,0.1,0.1,0.2c0,0,0.1,0.1,0.1,0.1c0,0,0.1,0.1,0.1,0.1c0.2,0.3,0.3,0.4,0.3,0.4s-0.2-0.1-0.5-0.3c0,0-0.1,0-0.1-0.1
							c0,0-0.1,0-0.1-0.1c-0.1-0.1-0.1-0.2-0.2-0.3c0-0.2-0.1-0.4-0.1-0.6c0-0.2,0-0.4-0.1-0.6c0-0.2,0-0.4,0-0.6
							C13.1,33.2,13.1,33,13.1,33z"/>
					</g>
				</g>
			</g>
			<g>
				<g>
					<g>
						<path fill="#F5B54C" d="M11.8,31.6c0,0,0.1,0.2,0.2,0.6c0,0.1,0,0.2,0.1,0.3c0,0.1,0,0.2,0.1,0.3l0,0.1c0,0,0,0.1,0,0.1
							c0,0.1,0,0.1,0,0.2c0,0.1,0,0.2,0,0.4c0,0.2,0,0.5,0,0.7c0,0,0,0.1,0,0.1c0,0,0,0,0,0.1c0,0,0,0.1,0,0.1
							c0,0.1,0.1,0.2,0.1,0.3c0.1,0.3,0.2,0.6,0.2,0.6s-0.1-0.2-0.3-0.5c0-0.1-0.1-0.2-0.1-0.3c0,0,0-0.1-0.1-0.1c0,0,0-0.1,0-0.1
							c0,0,0-0.1,0-0.1c0-0.2,0-0.5-0.1-0.7c0-0.1,0-0.2,0-0.3c0-0.1,0-0.1,0-0.2c0,0,0,0,0-0.1l0-0.1c0-0.1,0-0.2,0-0.3
							c0-0.1,0-0.2,0-0.3C11.7,31.9,11.8,31.6,11.8,31.6z"/>
					</g>
				</g>
			</g>
		</g>
	</g>
	<g>
		<g>
			<g>
				<path fill="#FFFFFF" d="M11.9,31.7c0,0,0.3-0.1,0.6,0c0,0,0.1,0.6-0.3,0.7C11.9,32.4,11.9,31.7,11.9,31.7z"/>
			</g>
		</g>
	</g>
	<g>
		<g>
			<g>
				<path fill="#FFFFFF" d="M11.1,31.8c0,0,0.3-0.2,0.6,0c0,0,0,0.5-0.2,0.6C11.2,32.5,11.1,31.8,11.1,31.8z"/>
			</g>
		</g>
	</g>
	<g>
		<g>
			<g>
				<path fill="#FFFFFF" d="M13.3,33c0,0,0.2-0.1,0.6-0.1c0,0,0.1,0.6-0.2,0.7C13.5,33.7,13.3,33.5,13.3,33z"/>
			</g>
		</g>
	</g>
	<g>
		<g>
			<g>
				<path fill="#FFFFFF" d="M10,35l-0.5-0.8C9.6,34.2,10.6,34.6,10,35z"/>
			</g>
		</g>
	</g>
	<g>
		<g>
			<g>
				<path fill="#344A5E" d="M19.7,41.6c0,0,6.8,4.6,17-0.7l0.2,1.8c-1.7,0.8-9.8,5.2-17.4,0.5L19.7,41.6z"/>
			</g>
		</g>
	</g>
	<g>
		<g>
			<g>
				<path fill="#F26F5A" d="M32.1,13.6c0,0-0.3,1.3-1,1.7c-0.7,0.5-2.6,1.6-2.6,1.6s1,1.7,1,2.5c0,0,3.3-3,3.5-4.1
					C33,15.2,32.6,13.6,32.1,13.6z"/>
			</g>
		</g>
		<g>
			<g>
				<path fill="#F26F5A" d="M28,16.9c0,0-0.8,0-1.2,1.1c-0.4,1.1-0.3,1.3-0.3,1.3s-1.3-1.9-1.4-2.8c-0.1-0.9,0.3-2.3,0.3-2.3
					s0,0.8,0.4,1.2C26.2,15.9,28,16.9,28,16.9z"/>
			</g>
		</g>
	</g>
</g>
</svg>
