<?xml version="1.0" encoding="utf-8"?>
<!-- Generator: Adobe Illustrator 19.0.1, SVG Export Plug-In . SVG Version: 6.00 Build 0)  -->
<svg version="1.1" id="Layer_1" xmlns="http://www.w3.org/2000/svg" xmlns:xlink="http://www.w3.org/1999/xlink" x="0px" y="0px"
	 viewBox="0 0 48 48" style="enable-background:new 0 0 48 48;" xml:space="preserve">
<style type="text/css">
	.st0{fill:#66C6B9;}
	.st1{fill:#F3F3F3;}
	.st2{fill:#415A6B;}
	.st3{fill:#CED6E0;}
	.st4{fill:#F3705A;}
	.st5{fill:#E8EAE9;}
	.st6{fill:#4ABAA5;}
	.st7{fill:#F05540;}
	.st8{fill:#FFD15C;}
	.st9{fill:#55C0EB;}
	.st10{fill:#8AD7F8;}
	.st11{fill:#344A5E;}
	.st12{fill:#FFFFFF;}
	.st13{fill:#F7B64C;}
	.st14{fill:#ADB3BA;}
	.st15{fill:#38A892;}
	.st16{fill:#ED9845;}
	.st17{fill:#2D4251;}
	.st18{fill:#304556;}
	.st19{fill:#A5AAAD;}
	.st20{fill:#2D4456;}
	.st21{fill:#4FB0E0;}
	.st22{fill:#2D4354;}
	.st23{fill:#E54C38;}
	.st24{fill:#2B4456;}
	.st25{fill:#2B404F;}
</style>
<g>
	<g>
		<g>
			<g>
				<g>
					<path class="st5" d="M39.2,17.7v26H2.3v-26c0-1.4,1.2-2.6,2.6-2.6h31.6C38,15.1,39.2,16.3,39.2,17.7z"/>
				</g>
				<g>
					<path class="st2" d="M0,43.8L0,43.8C0,46.1,1.9,48,4.2,48h33c2.3,0,4.2-1.9,4.2-4.2v0H0z"/>
				</g>
				<rect x="5.2" y="18" class="st10" width="31" height="21.5"/>
			</g>
			<g>
				<g>
					<g>
						<path class="st11" d="M31,39.5l-0.1-2.2c-0.1-1.5-1-2.8-2.4-3.2c-1.2-0.4-2.6-0.9-2.9-1c-0.1,0-10-0.3-10-0.3l-4.4,2.3
							c0,0-0.6,0-0.7,2.2c0,0.5,0,1.2,0.1,2.2H31z"/>
					</g>
					<g>
						<g>
							<g>
								<path class="st3" d="M24,39.5c0.5-2.9,1-6.1,1-6.1l-1.3-1.6l-0.3,0.4l-2,1l-0.1,0.1L18,32.7c0,0-1,0.4-1.2,2.5
									c-0.1,1.2,0.7,2.9,1.6,4.3H24z"/>
							</g>
							<g>
								<path class="st8" d="M17.5,33.5H23l0.2-2.7c0,0,0.3-0.5,0.5-1.5c0.2-1-0.1-2.5-0.1-2.5s1.4-3.9-1.6-4.6
									c-3-0.7-5.1,2.2-5.1,2.2l0.5,4.3c0,0,0.2,0.6,0.4,1L17.5,33.5z"/>
							</g>
							<g>
								<path class="st13" d="M23.3,30.8c0,0,0.1-0.3,0.3-0.8c0,0-2.2,4.4-5.5-0.3c0,0,0.4,2.2,2.5,3.8H23L23.3,30.8z"/>
							</g>
							<g>
								<g>
									<path class="st4" d="M20.3,39.5h2.9c-0.5-1.7-1.9-4.8-1.9-4.8l-0.2-0.7h-0.7l-0.2,0.7C20.2,34.7,20.1,38.3,20.3,39.5z"/>
								</g>
								<g>
									<path class="st7" d="M20,33.2l0.5,0.1l0.7,0l0.6,0.5c0,0-0.5,0.5-0.6,0.9c0-0.2-1-0.2-1,0c0,0-0.5-0.6-0.8-0.7
										C19.2,34,20,33.2,20,33.2z"/>
								</g>
							</g>
							<g>
								<g>
									
										<ellipse transform="matrix(0.9694 -0.2455 0.2455 0.9694 -6.1844 5.1112)" class="st8" cx="17.4" cy="27.4" rx="0.6" ry="1.4"/>
								</g>
								<g>
									
										<ellipse transform="matrix(-0.9999 1.155642e-002 -1.155642e-002 -0.9999 47.5383 53.4836)" class="st8" cx="23.6" cy="26.9" rx="0.6" ry="1.4"/>
								</g>
							</g>
							<g>
								<path class="st2" d="M17.4,27c0,0.1,0.1,0.2,0.1,0.4h0.3c0-0.2,0-0.4,0-0.6c0.2-0.7,0.5-1.1,0.2-1.8
									c-0.2-0.7-0.1-0.9,0.1-0.9c0,0,0.9,0.3,1.8-0.2c0.9-0.5,1-1,1.5-1c0.5,0,1.3,0.1,1.6,0.4s0.3,1,0.3,1.7c0,0.6,0.3,2,0.4,2.5
									h0.2c0-0.2,0-0.9,0.1-1.3c1.3-4.4-1.6-6.2-4.3-5.9c-3,0.3-3.5,3.5-3.3,4.4C16.5,25.6,17.3,26.7,17.4,27z"/>
							</g>
							<g>
								<path class="st2" d="M23.8,38.2c-0.1,0.3-0.2,0.7-0.3,1.3h1.4c0.4-0.6,0.7-1.1,0.9-1.5c1-1.7,1.5-3.3,1.5-3.3l-1-0.7
									l0.4-0.3c0,0-2.6-2.8-3.3-2.8c0,0,0.6,1.3,0.7,2.3C24.1,34.1,24,37.2,23.8,38.2z"/>
							</g>
							<g>
								<g>
									<path class="st1" d="M23.3,30.8c0,0-0.1,0.5-0.5,1c-0.4,0.6-1.6,1.4-1.6,1.4l1.3,2.4c0,0,0.5-1,0.9-1.6
										c0.4-0.7,0.4-1.6,0.3-2.1C23.6,31.4,23.3,30.8,23.3,30.8z"/>
								</g>
								<g>
									<path class="st1" d="M20.5,33.2c0,0-0.3,0.1-0.7,0.8s-0.8,2.1-0.8,2.1s-1.5-2.6-1.9-3.1c-0.4-0.4-0.3-1.1-0.3-1.1
										s0.4-0.2,0.6-0.8c0.2-0.6,0.4-1,0.4-1s0,1.1,0.5,1.7C19.1,32.5,20.5,33.2,20.5,33.2z"/>
								</g>
							</g>
							<g>
								<path class="st2" d="M17.7,39.5h2.1c-0.2-0.6-0.4-1.1-0.6-1.6c-0.7-1.9-1.6-7.1-1.6-7.1c-0.3-0.1-2,1.7-2.2,2.1
									c-0.2,0.3-0.5,1-0.5,1l0.6,0.4l-1,0.6C15,35.9,16.3,37.7,17.7,39.5z"/>
							</g>
						</g>
					</g>
				</g>
			</g>
			<g>
				<polygon class="st11" points="24.6,45.9 16.9,45.9 16,43.8 25.5,43.8 				"/>
			</g>
		</g>
		<g>
			<g>
				<path class="st4" d="M48,27.2c0,4.9-4,8.9-8.9,8.9c-0.3,0-0.7,0-1-0.1c-0.7,0.4-1.4,0.7-2.1,1c-1.2,0.4-2.3,0.6-3.5,0.6
					c1-0.7,1.8-1.6,2.5-2.6c-2.8-1.5-4.8-4.5-4.8-7.9c0-4.9,4-8.9,8.9-8.9C44,18.2,48,22.2,48,27.2z"/>
			</g>
			<g>
				<g>
					<path class="st12" d="M43.5,22v8.2h-2.6v2.6h-5.8c-0.3,0-0.5-0.2-0.5-0.5V22c0-0.3,0.2-0.5,0.5-0.5H43
						C43.3,21.5,43.5,21.8,43.5,22z"/>
					<g>
						<polygon class="st5" points="40.9,32.8 43.5,30.2 40.9,30.2 						"/>
					</g>
				</g>
				<g>
					<g>
						<g>
							<rect x="35.5" y="22.5" class="st5" width="7" height="0.7"/>
						</g>
					</g>
					<g>
						<g>
							<rect x="35.5" y="24.6" class="st5" width="7" height="0.7"/>
						</g>
					</g>
					<g>
						<g>
							<rect x="35.5" y="26.6" class="st5" width="7" height="0.7"/>
						</g>
					</g>
					<g>
						<g>
							<rect x="35.5" y="28.7" class="st5" width="7" height="0.7"/>
						</g>
					</g>
					<g>
						<g>
							<rect x="35.5" y="30.8" class="st5" width="4.3" height="0.7"/>
						</g>
					</g>
				</g>
			</g>
		</g>
		<g>
			<g>
				<path class="st2" d="M0,8.9c0,4.9,4,8.9,8.9,8.9c0.3,0,0.7,0,1-0.1c0.7,0.4,1.4,0.7,2.1,1c1.2,0.4,2.3,0.6,3.5,0.6
					c-1-0.7-1.8-1.6-2.5-2.6c2.8-1.5,4.8-4.5,4.8-7.9c0-4.9-4-8.9-8.9-8.9C4,0,0,4,0,8.9z"/>
			</g>
			<g>
				<g>
					<path class="st4" d="M4.4,12.3c3,0.4,6,0.4,9,0c0.3,0,0.6-0.3,0.6-0.6V5.9c0-0.3-0.2-0.6-0.6-0.6c-3-0.4-6-0.4-9,0
						c-0.3,0-0.6,0.3-0.6,0.6v5.8C3.9,12,4.1,12.3,4.4,12.3z"/>
				</g>
				<g>
					<g>
						<path class="st12" d="M10.7,9.3l-2.2,1.5c-0.3,0.2-0.7,0-0.7-0.4v-3c0-0.3,0.4-0.5,0.7-0.3l2.2,1.5C11,8.7,11,9.1,10.7,9.3z"
							/>
					</g>
				</g>
			</g>
		</g>
	</g>
</g>
</svg>
