<?xml version="1.0" encoding="utf-8"?>
<!-- Generator: Adobe Illustrator 18.0.0, SVG Export Plug-In . SVG Version: 6.00 Build 0)  -->
<!DOCTYPE svg PUBLIC "-//W3C//DTD SVG 1.1//EN" "http://www.w3.org/Graphics/SVG/1.1/DTD/svg11.dtd">
<svg version="1.1" id="Layer_1" xmlns="http://www.w3.org/2000/svg" xmlns:xlink="http://www.w3.org/1999/xlink" x="0px" y="0px"
	 viewBox="0 0 48 48" enable-background="new 0 0 48 48" xml:space="preserve">
<g>
	<path fill="#84DBFF" d="M39.6,10.8C39,8.6,38.9,3,38.8,0h-1.9v6.8c0,0,0,0.1,0,0.1c0,2.4-1.7,4.4-4.1,4.9c-0.3,0.1-0.7,0.2-0.9,0.2
		c-2.9,1-5.1,3.1-5.8,5.3c-0.3,0.9-1,1.6-1.9,1.7c-0.1,0-0.2,0-0.2,0c-0.1,0-0.3,0-0.5-0.1c-0.8-0.2-1.5-0.8-1.7-1.7
		c-0.7-2.3-2.8-4.3-5.8-5.3c-0.3-0.1-0.6-0.2-0.9-0.2c-2.3-0.5-4-2.5-4.1-4.9c0,0,0-0.1,0-0.1V0H9.2c0,3-0.2,8.6-0.8,10.8
		c-0.2,0.9-0.3,1.8-0.2,2.7l0.4,3.4c0.1,0.7,0.2,1.4,0.5,2c1,2.3,3.2,4,5.8,4.4c1.8,0.2,3.5-0.2,4.9-1c1.3-0.8,2.7-1.3,4.1-1.3h0
		c1.5,0,2.9,0.5,4.1,1.3c1.4,0.9,3.1,1.3,4.9,1c2.6-0.3,4.8-2.1,5.8-4.4c0.3-0.6,0.4-1.3,0.5-2l0.4-3.4
		C39.9,12.5,39.9,11.6,39.6,10.8z"/>
	<path fill="#84DBFF" d="M13.9,40.4c3.9,1.7,6.8,4.6,7.8,7.6c1.6,0,3.2,0,4.8,0c1-3,3.8-6,7.8-7.6c1.5-0.6,3.1-1,4.5-1.2
		c-0.1-2.3-0.4-4.7-1-6.9c-7.9,3.6-19.4,3.6-27.3,0c-0.6,2.3-1,4.6-1,6.9C10.8,39.3,12.3,39.7,13.9,40.4z"/>
	<path fill="#54C0EB" d="M38.1,33.9c-0.1-0.6-0.3-1.1-0.4-1.7c-7.9,3.6-19.4,3.6-27.3,0c-0.2,0.6-0.3,1.1-0.4,1.7
		C18.2,37.4,29.8,37.4,38.1,33.9z"/>
</g>
</svg>
