<?xml version="1.0" encoding="utf-8"?>
<!-- Generator: Adobe Illustrator 18.0.0, SVG Export Plug-In . SVG Version: 6.00 Build 0)  -->
<!DOCTYPE svg PUBLIC "-//W3C//DTD SVG 1.1//EN" "http://www.w3.org/Graphics/SVG/1.1/DTD/svg11.dtd">
<svg version="1.1" id="Layer_1" xmlns="http://www.w3.org/2000/svg" xmlns:xlink="http://www.w3.org/1999/xlink" x="0px" y="0px"
	 viewBox="0 0 48 48" enable-background="new 0 0 48 48" xml:space="preserve">
<g>
	<g>
		<g>
			<g>
				<g>
					<g>
						<path fill="#F5B54C" d="M34.4,25.4c0,0,6.1-0.3,7.2,0c1.1,0.3,3.2,1.7,3.2,2.9c0,1.2,0.1,1.6-0.1,2.2
							c-0.3,0.6-0.1,1.4-0.1,1.4s-0.5,3.2-1.1,4.2c-0.6,1-0.7,3.3-0.7,3.3h-2.8c0,0,0.4-2.5,0.3-3.8c-0.1-1.3-0.3-3.4,0.4-4.8
							c0,0-1.3-0.2-2.3,0.2c-1,0.4-4.5,1.7-6.7,0.7L34.4,25.4z"/>
					</g>
				</g>
			</g>
			<g>
				<g>
					<g>
						<path fill="#FFD15C" d="M4.9,38.3c0,0,2.5-0.8,3.2-1.2c0.7-0.4,2.3-1.1,3.6-1.1s3.5-0.1,4.5-0.6c1-0.5,1.4-1,1.4-1l3-2.6
							l3.3-0.3l3.1,1.7c0,0-3,2.8-4.6,3.9c-1.6,1.2-3,1.9-4,2c0,0-1.8,0.6-3.1,0.4c0,0-1-0.1-1.6,0.1c-0.6,0.2-3.3,0.6-4.9,0.6
							c-1.6,0-2.7,0.5-2.7,0.5S4.4,40,4.9,38.3z"/>
					</g>
				</g>
			</g>
			<g>
				<g>
					<g>
						<path fill="#425A6B" d="M24.9,26.1c0,0-0.7-0.1-0.7,0c0,0-0.4,0.9-0.4,1.1c0,0.2-0.1,0.6-0.4,0.8S23,28.6,23,28.6
							s-0.7,0.7-0.7,1.2c0,0,0,0.4-0.3,0.5c-0.3,0.1-0.7,0.6-0.7,0.6L20.4,32l1,1l1.2-0.6c0,0-0.1,0.6-0.1,0.8s0.1,0.5,0.1,0.5
							s3.2-0.1,3.7,0.3c0.6,0.4,0.6,0.5,0.6,0.5l2.7-1.4l2.2,0.9c0,0,0.3-0.6,0.6-0.7c0.3-0.1,1.9-2.3,2.1-3.4L24.9,26.1z"/>
					</g>
				</g>
			</g>
		</g>
		<g>
			<g>
				<g>
					<path fill="#E8EAE8" d="M40,38.8c0,0,1.6,0.5,2.8,0c0,0-0.2,2.1,0.5,2.7c0.7,0.6-0.5,1.4-0.5,1.4l-3.4-0.9
						C39.5,42.1,39.6,39.6,40,38.8z"/>
				</g>
			</g>
		</g>
		<g>
			<g>
				<g>
					<path fill="#425A6B" d="M39.6,40.7c0,0,0.5,1,1,1.1c0.5,0.1,1.5-0.1,1.8-0.6c0,0,0-0.3,0.6-0.2c0,0-0.3-0.8-0.1-1.1
						c0,0,0.3-0.1,0.4-0.1c0,0,0.1,0.1,0.1,0.3c0.3,0.9,0.9,1.7,1.7,2.3c0.4,0.3,0.8,0.5,1.1,0.5c0,0,1.5-0.1,1.6,0.7
						c0,0-0.4,0.9-3.4,0.3c0,0-2-0.5-3.1-0.3c-1.1,0.1-2.5-0.4-2.7-0.8c0,0,0.3-0.5,0.2-0.7S39.2,40.4,39.6,40.7z"/>
				</g>
			</g>
		</g>
		<g>
			<g>
				<g>
					<path fill="#E8EAE8" d="M38.6,42.9c0,0,1.6,0.7,2.5,0.6c0.9-0.1,2,0.1,2.8,0.3c0.8,0.2,3.3,0.7,4-0.2c0,0,0.4,0.5-0.3,0.8
						c-0.8,0.3-1.6,0.3-1.6,0.3s-2-0.1-2.7-0.2c-0.7-0.1-1.6-0.1-1.6-0.1s-2.9,0.2-3.4-0.9l0.2-0.2L38.6,42.9z"/>
				</g>
			</g>
		</g>
		<g>
			<g>
				<g>
					<g>
						<path fill="#F5B54C" d="M35.5,8.2l-0.1,0.8c0,0-0.2,0.9-1,1.2c-0.8,0.3,1.3,2.2,1.3,2.2l2.2,2.2c0,0,0-1.9,0.6-2.7
							c0.3-0.3,0.4-0.6,0.5-0.8c0.2-0.3,0.5-0.5,0.9-0.6c0,0,0.1,0,0.1,0c0.4,0,0.4-0.7,0.4-0.7S36.2,6.1,35.5,8.2z"/>
					</g>
				</g>
			</g>
			<g>
				<g>
					<g>
						<g>
							<path fill="#FFD15C" d="M36,7.4c0,0,1,2.9,3.8,3.1c0,0,1.1,0.3,1.1-0.5c0,0,0-0.5,0.1-0.7c0.2-0.2,0.1-0.3,0-0.3
								c0,0,0.3,0,0.3-0.2c0,0,0.4-1,0.1-1.9c0,0,0-0.2,0.1-0.2c0.1,0,0.3-0.5,0.2-0.7c-0.1-0.2-0.3-0.6-0.3-0.6l0-0.3l-0.2-0.9
								l-3.5-0.2l-0.9,1.8C36.8,5.9,35.4,6,36,7.4z"/>
						</g>
					</g>
					<g>
						<g>
							<g>
								<path fill="#425A6B" d="M35.4,9.1c0,0,0.1-0.6-0.3-1.5c-0.4-0.9-0.7-3.1,0.1-4.1c0.9-0.9,2.3-1.3,3.1-1.3
									c0.7,0.1,2.9,1.1,3,2s0,1,0,1s0-0.2-0.1-0.3c-0.1-0.2-0.4-0.3-0.6-0.1c-0.2,0.1-0.5,0.3-0.9,0c-0.2-0.1-0.4-0.2-0.5-0.2
									c-0.3,0-0.7,0.1-0.6,0.5c0,0-0.1,0.8-0.8,0.9c0,0-0.5,0.5-0.5,1.2l-0.4,0c0,0-0.2-1.2-1-0.8C36,6.3,36.1,8.7,35.4,9.1z"/>
							</g>
						</g>
					</g>
				</g>
				<g>
					<g>
						<g>
							<path fill="#FFD15C" d="M36.8,7c0.1,0.2,0.1,1.3-0.3,1.4c-0.4,0.1-1-0.8-1.1-1c-0.2-0.7-0.1-1.3,0.3-1.4
								C36.1,5.9,36.6,6.3,36.8,7z"/>
						</g>
					</g>
				</g>
			</g>
		</g>
		<g>
			<g>
				<g>
					<path fill="#F5B54C" d="M40.8,15c0,0,1.6,2.2,2,3c0,0,0.2,0,0.5,0.6c0.2,0.6,1.1,3.4,1.1,4.6c0,1.2,0.2,2.1,0.2,2.1
						s0,0.5,0.3,0.8c0.3,0.3,0.3,0.9,0.3,0.9l-0.4,0.2l-0.3,0.7c0,0-0.4,0.2-0.5-0.1c0,0-0.4,0.2-0.5-0.1l-1-1.8c0,0-0.1-1-0.5-1.9
						c-0.4-0.9-1.1-2.6-1-3.5c0,0-1.8-1-2.1-3.3L40.8,15z"/>
				</g>
			</g>
		</g>
		<g>
			<g>
				<g>
					<path fill="#F05640" d="M34.8,9.9c0,0,0.5,0.2,0.7,0.7c0.2,0.5,0.5,1.4,1.1,1.6c0.5,0.2,1.3,1.4,1.3,1.4s0.2-0.1,0.2-0.4
						c0-0.8,0.6-1.6,0.7-1.5c0,0,1.3,1.2,1.6,2.5c0,0,0.2,0.6,0.5,0.7c0,0-0.2,1.5-1.1,1.8c0,0-0.6,4.4-2.1,7.1
						c-1.6,2.7-1.8,2.6-2,3.7c-0.2,1.1-1.4,3-1.4,3s-9.7-2.9-9.7-4.4c0,0,0.6-1.4,1.2-1.4c0,0,0.5-1.2,1.3-1.3c0,0,0.2-0.5,0.7-0.6
						c0,0,0.2-1.1,1.1-2.4c0,0,0.7-1.4,1-3.1c0.4-1.7,0.7-3.4,1.5-4.7C32.1,11.3,33.1,10.2,34.8,9.9z"/>
				</g>
			</g>
		</g>
		<g>
			<g>
				<g>
					<path fill="#F26F5A" d="M32.7,18.1c0,0-0.8-0.3-0.3-0.4c0.5-0.1,3.5-1,4.3-0.2c0,0-0.2-0.9-0.1-1.7c0.2-0.8-0.5-2.2-0.7-2.5
						c-0.2-0.3-1.6-1.8-3.2-1c-1.5,0.8-2,2.2-1.2,3.9c0,0,0.5,0.9,0.5,1.4C32,18,32.4,18.1,32.7,18.1z"/>
				</g>
			</g>
		</g>
		<g>
			<g>
				<g>
					<path fill="#FFD15C" d="M36.4,16.7c0,0,1.1,3.4,1.6,4c0.5,0.6,1,1.1,1.1,1.3c0.1,0.3,1.8,3.3,1.8,3.3s0.3,0.4,0.9,0
						c0.7-0.4,0.6-0.5,0.8-0.5c0,0,0.8-0.4,1.2-0.1c0,0,0.2,0.1,0.1,0.2l0.4-0.1l0.4,0.3c0,0,0.3,0.3,0.3,0.4c0,0.1,0,0.3-0.2,0.2
						c0,0,0.3,0.3,0.4,0.4c0.1,0,0.3,0.1,0.3,0.4c0,0.3-0.4,0.1-0.4,0.1s-0.6-0.3-0.9-0.2c0,0-0.1,0.1,0.1,0.2
						c0.1,0,0.5,0.2,0.5,0.2l0.4,0.2c0,0,0.3,0.1,0.2,0.3c-0.1,0.2-0.4,0.1-0.4,0.1l-0.4-0.2l-0.4-0.1c0,0-0.3,0.1-0.6,0.3
						c-0.3,0.2-1.6,1-3,0.2c-1.4-0.8-3-2.2-3-2.2s-0.5-0.7-0.7-0.9c-0.2-0.1-0.9-1.2-0.9-1.2s-0.4-0.3-0.6-0.8c0,0-0.9-1.7-1.3-2.1
						c-0.4-0.4-1.4-2.2-1.4-3.3L36.4,16.7z"/>
				</g>
			</g>
		</g>
		<g>
			<g>
				<g>
					<path fill="#E8EAE8" d="M5.3,38.2c0,0-0.3,1.4,0.9,2.4l-1.4,0.9l-1,1.1l-2-0.9l-0.3-2.8l1.8-0.4C3.3,38.5,4.4,38.5,5.3,38.2z"
						/>
				</g>
			</g>
		</g>
		<g>
			<g>
				<g>
					<g>
						<path fill="#E8EAE8" d="M1.6,38.8c0,0-0.8-0.2-1.1,0.2C0.1,39.4,0,39.8,0,39.8s0.1,1,0.3,1.7c0.2,0.8,0.1,2,0.1,2
							s-0.1,1,0.6,1.7c0.7,0.7,2,0.7,3,0.6c1-0.1,1-0.1,1-0.1s0.2-0.2,0.1-0.4C4.9,45,4.7,45,4.7,45s-1.5-0.3-2.2-1.3
							C1.9,42.5,1,39.9,1.6,38.8z"/>
					</g>
				</g>
			</g>
			<g>
				<g>
					<g>
						<path fill="#425A6B" d="M3.6,38.6c0,0-0.3-0.1-0.6,0.2c-0.4,0.3-0.7,0.5-0.8,1.2c-0.1,0.6,0,0.9,0.2,1.1
							c0.2,0.1,0.8,0.2,0.8,0.6l0.6-0.7c0,0,0.8,0.6,1.7,0.7l-1,0.8c0,0-0.6,0.7-0.6,1.2c0.1,0.5,0.4,0.6,0.6,0.7
							c0.2,0,0.6,0.6,0.4,0.9c0,0-1.4,0.4-2.2,0.3c-0.8-0.1-1.6-0.2-1.9-1.1c0,0,0.2-1.9,0.1-2.7c-0.1-0.8-0.5-2.6,0.8-3.2
							C1.8,38.6,3.8,37.9,3.6,38.6z"/>
					</g>
				</g>
			</g>
		</g>
		<g>
			<g>
				<g>
					<path fill="#344A5E" d="M3,44.5c0,0,0.1,0,0.3,0c0.4,0,0.7-0.4,0.6-0.8c0,0,0,0,0,0c-0.1-0.5,0.6-1.2,0.6-1.2l1-0.8
						c-0.9-0.1-1.7-0.7-1.7-0.7l-0.6,0.7v0c0,0-0.7,1.1-0.7,2C2.5,44.5,3,44.5,3,44.5z"/>
				</g>
			</g>
		</g>
	</g>
</g>
</svg>
