<?xml version="1.0" encoding="utf-8"?>
<!-- Generator: Adobe Illustrator 18.0.0, SVG Export Plug-In . SVG Version: 6.00 Build 0)  -->
<!DOCTYPE svg PUBLIC "-//W3C//DTD SVG 1.1//EN" "http://www.w3.org/Graphics/SVG/1.1/DTD/svg11.dtd">
<svg version="1.1" id="Layer_1" xmlns="http://www.w3.org/2000/svg" xmlns:xlink="http://www.w3.org/1999/xlink" x="0px" y="0px"
	 viewBox="0 0 48 48" enable-background="new 0 0 48 48" xml:space="preserve">
<g>
	<g>
		<rect x="23.6" y="5.7" fill="#F2F2F2" width="0.7" height="1.7"/>
		<path fill="#84DBFF" d="M25.1,7.1h-2.1c-0.8,0-1.5,0.7-1.5,1.5V20h5.1V8.6C26.5,7.7,25.9,7.1,25.1,7.1z"/>
		<path fill="#FFD15C" d="M24,0.2c-0.7,3.2-2,3.1-2,4.2c0,1.1,0.9,2,2,2c1.1,0,2-0.9,2-2C26,3.3,24.3-1,24,0.2z"/>
	</g>
	<g>
		<rect x="11.3" y="5.7" fill="#F2F2F2" width="0.7" height="1.7"/>
		<path fill="#84DBFF" d="M12.7,7.1h-2.1c-0.8,0-1.5,0.7-1.5,1.5V20h5.1V8.6C14.2,7.7,13.5,7.1,12.7,7.1z"/>
		<path fill="#FFD15C" d="M11.6,0.2c-0.7,3.2-2,3.1-2,4.2c0,1.1,0.9,2,2,2s2-0.9,2-2C13.6,3.3,11.9-1,11.6,0.2z"/>
	</g>
	<g>
		<rect x="36" y="5.7" fill="#F2F2F2" width="0.7" height="1.7"/>
		<path fill="#84DBFF" d="M37.5,7.1h-2.1c-0.8,0-1.5,0.7-1.5,1.5V20h5.1V8.6C38.9,7.7,38.3,7.1,37.5,7.1z"/>
		<path fill="#FFD15C" d="M36.4,0.2c-0.7,3.2-2,3.1-2,4.2c0,1.1,0.9,2,2,2s2-0.9,2-2C38.4,3.3,36.7-1,36.4,0.2z"/>
	</g>
	<path fill="#FFD15C" d="M35.4,30.2c0,2.9-2.4,5.3-5.3,5.3H25v-3.9H23v3.9h-5.1c-2.9,0-5.3-2.4-5.3-5.3h-1.9c0,4,3.3,7.3,7.3,7.3H23
		V42H25v-4.5h5.1c4,0,7.3-3.3,7.3-7.3H35.4z"/>
	<path fill="#FF7058" d="M26.6,21.4h-5.3c-0.4,0-0.7,0.5-0.5,0.9c0,0.1,0.1,0.2,0.1,0.2l0.9,1.3c0.7,1,1,2.1,1,3.3v0
		c0,0.6-0.2,1.1-0.7,1.5c-0.4,0.4-0.7,1-0.7,1.6c0,1.3,1.1,2.3,2.5,2.3c1.4,0,2.5-1,2.5-2.3c0-0.6-0.3-1.2-0.7-1.6
		c-0.4-0.4-0.7-0.9-0.7-1.5v0c0-1.2,0.4-2.3,1-3.3l0.9-1.3c0.1-0.1,0.1-0.2,0.1-0.2C27.4,21.8,27.1,21.4,26.6,21.4z"/>
	<rect x="21.8" y="20.7" fill="#F1543F" width="4.4" height="0.6"/>
	<path fill="#FF7058" d="M26.3,19.5h-4.6c-0.3,0-0.6,0.3-0.6,0.6v0.1c0,0.3,0.3,0.6,0.6,0.6h4.6c0.3,0,0.6-0.3,0.6-0.6v-0.1
		C26.9,19.7,26.6,19.5,26.3,19.5z"/>
	<path fill="#FF7058" d="M14.2,21.4H9c-0.4,0-0.7,0.5-0.5,0.9c0,0.1,0.1,0.2,0.1,0.2l0.9,1.3c0.7,1,1,2.1,1,3.3v0
		c0,0.6-0.2,1.1-0.7,1.5c-0.4,0.4-0.7,1-0.7,1.6c0,1.3,1.1,2.3,2.5,2.3c1.4,0,2.5-1,2.5-2.3c0-0.6-0.3-1.2-0.7-1.6
		c-0.4-0.4-0.7-0.9-0.7-1.5v0c0-1.2,0.4-2.3,1-3.3l0.9-1.3c0.1-0.1,0.1-0.2,0.1-0.2C15,21.8,14.7,21.4,14.2,21.4z"/>
	<rect x="9.4" y="20.7" fill="#F1543F" width="4.4" height="0.6"/>
	<path fill="#FF7058" d="M13.9,19.5H9.3c-0.3,0-0.6,0.3-0.6,0.6v0.1c0,0.3,0.3,0.6,0.6,0.6h4.6c0.3,0,0.6-0.3,0.6-0.6v-0.1
		C14.5,19.7,14.2,19.5,13.9,19.5z"/>
	<path fill="#FF7058" d="M39,21.4h-5.3c-0.4,0-0.7,0.5-0.5,0.9c0,0.1,0.1,0.2,0.1,0.2l0.9,1.3c0.7,1,1,2.1,1,3.3v0
		c0,0.6-0.2,1.1-0.7,1.5c-0.4,0.4-0.7,1-0.7,1.6c0,1.3,1.1,2.3,2.5,2.3c1.4,0,2.5-1,2.5-2.3c0-0.6-0.3-1.2-0.7-1.6
		c-0.4-0.4-0.7-0.9-0.7-1.5v0c0-1.2,0.4-2.3,1-3.3l0.9-1.3c0.1-0.1,0.1-0.2,0.1-0.2C39.8,21.8,39.5,21.4,39,21.4z"/>
	<rect x="34.2" y="20.7" fill="#F1543F" width="4.4" height="0.6"/>
	<path fill="#FF7058" d="M38.7,19.5h-4.6c-0.3,0-0.6,0.3-0.6,0.6v0.1c0,0.3,0.3,0.6,0.6,0.6h4.6c0.3,0,0.6-0.3,0.6-0.6v-0.1
		C39.3,19.7,39,19.5,38.7,19.5z"/>
	<path fill="#FFD15C" d="M25.7,41.3h-3.4c-0.8,0-1.4,0.6-1.4,1.4v0.5H27v-0.5C27,41.9,26.4,41.3,25.7,41.3z"/>
	<path fill="#CDD6E0" d="M30.5,46.2h-13v-1c0-1.1,0.9-2,2-2h8.9c1.1,0,2,0.9,2,2V46.2z"/>
	<path fill="#ACB3BA" d="M33.3,46.2H14.7c-0.5,0-0.9,0.4-0.9,0.9s0.4,0.9,0.9,0.9h18.6c0.5,0,0.9-0.4,0.9-0.9S33.8,46.2,33.3,46.2z"
		/>
</g>
</svg>
