<?xml version="1.0" encoding="utf-8"?>
<!-- Generator: Adobe Illustrator 18.0.0, SVG Export Plug-In . SVG Version: 6.00 Build 0)  -->
<!DOCTYPE svg PUBLIC "-//W3C//DTD SVG 1.1//EN" "http://www.w3.org/Graphics/SVG/1.1/DTD/svg11.dtd">
<svg version="1.1" id="Layer_1" xmlns="http://www.w3.org/2000/svg" xmlns:xlink="http://www.w3.org/1999/xlink" x="0px" y="0px"
	 viewBox="0 0 512 512" enable-background="new 0 0 512 512" xml:space="preserve">
<g>
	<path fill="#41596B" d="M469.9,142.6H42.1c-11.7,0-21.2,9.5-21.2,21.2v293.9h169.7c0,5.4,4.3,9.7,9.7,9.7h111.3
		c5.4,0,9.7-4.3,9.7-9.7h169.8V163.8C491.1,152.1,481.6,142.6,469.9,142.6z"/>
	<rect x="54.7" y="176.5" fill="#FFFFFF" width="402.5" height="247.4"/>
	<path fill="#334A5E" d="M321.4,457.7c0,5.4-4.4,9.7-9.7,9.7H200.4c-5.4,0-9.7-4.4-9.7-9.7H2V478c0,17.2,13.9,31.1,31.1,31.1h445.9
		c17.2,0,31.1-13.9,31.1-31.1v-20.3H321.4z"/>
	<path fill="#FFD05C" d="M255.6,3c-50.3,1.5-91.6,44.4-91.3,94.8c0.2,24.6,9.8,47,25.4,63.7c17,18.1,27.5,41.3,27.5,66.1v5.3h82.7
		v-5.3c0-24,9.1-47.2,25.9-64.4c16.7-17,27-40.2,27-65.9C352.7,44.2,309,1.4,255.6,3z"/>
	<path fill="#F05540" d="M298.6,274.7h-80.1c-0.7,0-1.3-0.6-1.3-1.3v-40.7h82.7v40.7C299.8,274.1,299.3,274.7,298.6,274.7z"/>
	<path fill="#FFD05C" d="M238.5,274.7c0,0.7,0.1,1.3,0.1,1.9c1,9.6,9.1,17.1,18.9,17.1h1.9c5.3,0,10-2.1,13.4-5.6
		c2.9-3,5-7,5.4-11.5c0.1-0.6,0.1-1.2,0.1-1.9H238.5z"/>
	<path fill="#FFFFFF" d="M298.6,144.5c-2.2-2.2-5.8-2.2-8,0l-32.1,32.1l-32.1-32.1c-2.2-2.2-5.8-2.2-8,0c-2.2,2.2-2.2,5.8,0,8
		l34.5,34.5v45.8h11.3v-45.8l34.5-34.5C300.8,150.2,300.8,146.7,298.6,144.5z"/>
</g>
</svg>
