<?xml version="1.0" encoding="utf-8"?>
<!-- Generator: Adobe Illustrator 18.0.0, SVG Export Plug-In . SVG Version: 6.00 Build 0)  -->
<!DOCTYPE svg PUBLIC "-//W3C//DTD SVG 1.1//EN" "http://www.w3.org/Graphics/SVG/1.1/DTD/svg11.dtd">
<svg version="1.1" id="Layer_1" xmlns="http://www.w3.org/2000/svg" xmlns:xlink="http://www.w3.org/1999/xlink" x="0px" y="0px"
	 viewBox="0 0 48 48" enable-background="new 0 0 48 48" xml:space="preserve">
<g>
	<g>
		<path fill="#E8EAE9" d="M47.4,42.5L29.6,16.6V3.8H18.4v12.8L0.6,42.5C-1,44.8,0.7,48,3.5,48l40.9,0C47.3,48,49,44.8,47.4,42.5z"/>
		<path fill="#4EC0AA" d="M24.7,27.5c-2.8-1.5-5.2-3.7-8.7-0.3v2.2h8.7V27.5z"/>
		<path fill="#66C6B9" d="M16,27.2L4.4,44h39.1L32,27.2C24.8,22.3,21.9,32.9,16,27.2z"/>
		<rect x="18.4" y="3.8" fill="#CED6E0" width="11.3" height="1.9"/>
		<path fill="#E8EAE9" d="M31.5,1.9L31.5,1.9c0-1.1-0.9-1.9-1.9-1.9H18.4c-1.1,0-1.9,0.9-1.9,1.9v0c0,1.1,0.9,1.9,1.9,1.9h11.2
			C30.7,3.8,31.5,3,31.5,1.9z"/>
		<circle fill="#4EC0AA" cx="20.3" cy="39.5" r="1.8"/>
		<g>
			<circle fill="#4EC0AA" cx="27.1" cy="33.1" r="2.9"/>
		</g>
		<circle fill="#4EC0AA" cx="16.5" cy="33.1" r="0.9"/>
		<circle fill="#4EC0AA" cx="32" cy="41" r="1.1"/>
		<circle fill="#66C6B9" cx="26.2" cy="20.7" r="1.1"/>
		<g>
			<circle fill="#66C6B9" cx="23.5" cy="11.8" r="1.6"/>
		</g>
	</g>
</g>
</svg>
