<?xml version="1.0" encoding="utf-8"?>
<!-- Generator: Adobe Illustrator 18.0.0, SVG Export Plug-In . SVG Version: 6.00 Build 0)  -->
<!DOCTYPE svg PUBLIC "-//W3C//DTD SVG 1.1//EN" "http://www.w3.org/Graphics/SVG/1.1/DTD/svg11.dtd">
<svg version="1.1" id="Layer_1" xmlns="http://www.w3.org/2000/svg" xmlns:xlink="http://www.w3.org/1999/xlink" x="0px" y="0px"
	 viewBox="0 0 48 48" enable-background="new 0 0 48 48" xml:space="preserve">
<g>
	<path fill="#FFD15C" d="M13.7,25.7c0,0,5.7,0.1,11.9-10.8c0,0,2.2-2.7,3.6-10.7c0,0-1.4-4,2.3-3.8c0,0,5,1.6,3,8.7
		c0,0-2.1,9.4,1,9.9c0,0,12.4,0.5,12.4,4c0,0,0.6,2.6-1.7,4.3c0,0,2.8,3.4-1.7,6.4c0,0,2.1,3.5-1.5,6c0,0,1.7,4.1-3.4,4.5H13.7V25.7
		z"/>
	<rect x="10" y="24.5" fill="#F2F2F2" width="3.7" height="20.9"/>
	<path fill="#40596B" d="M2,47.5h6c1.1,0,2-0.9,2-2V24.7c0-1.1-0.9-2-2-2H2c-1.1,0-2,0.9-2,2v20.9C0,46.6,0.9,47.5,2,47.5z"/>
	<circle fill="#FFFFFF" cx="5" cy="43.3" r="1.8"/>
</g>
</svg>
