<?xml version="1.0" encoding="utf-8"?>
<!-- Generator: Adobe Illustrator 19.0.1, SVG Export Plug-In . SVG Version: 6.00 Build 0)  -->
<svg version="1.1" id="Layer_1" xmlns="http://www.w3.org/2000/svg" xmlns:xlink="http://www.w3.org/1999/xlink" x="0px" y="0px"
	 viewBox="0 0 48 48" style="enable-background:new 0 0 48 48;" xml:space="preserve">
<style type="text/css">
	.st0{fill:#415A6B;}
	.st1{fill:#ADB3BA;}
	.st2{fill:#E8EAE9;}
	.st3{fill:#55C0EB;}
	.st4{fill:#F3705A;}
	.st5{fill:#FFFFFF;}
	.st6{fill:#FFD15C;}
	.st7{fill:#344A5E;}
	.st8{fill:#CED6E0;}
	.st9{fill:#F05540;}
	.st10{fill:#F7B64C;}
	.st11{fill:#F3F3F3;}
	.st12{fill:#66C6B9;}
	.st13{fill:#4ABAA5;}
	.st14{fill:#8AD7F8;}
	.st15{fill:none;}
	.st16{fill:#E53D35;}
</style>
<g>
	<g>
		<g>
			<g>
				<g>
					<polygon class="st0" points="28.5,36.2 26.8,37.9 24,35.2 21.2,37.9 19.5,36.2 22.7,32.9 22.7,28.7 25.2,28.7 25.2,32.9 					
						"/>
				</g>
			</g>
		</g>
		<g>
			<g>
				<circle class="st6" cx="24" cy="13.1" r="13.1"/>
			</g>
			<g>
				<circle class="st10" cx="24" cy="13.1" r="9.1"/>
			</g>
			<g>
				<g>
					<path class="st6" d="M23.5,16.6v-3.1c-1-0.3-1.7-0.7-2.1-1.3s-0.7-1.2-0.7-2.1c0-0.8,0.3-1.5,0.8-2.1c0.5-0.6,1.2-0.9,2.1-1
						V6.5h1.1v0.7C25.3,7.3,26,7.6,26.4,8s0.8,1,0.9,1.8L25.5,10c-0.1-0.6-0.4-1-0.9-1.2v2.9c1.2,0.3,2,0.7,2.4,1.3
						c0.4,0.5,0.6,1.2,0.6,2c0,0.9-0.3,1.7-0.8,2.3c-0.5,0.6-1.3,1-2.3,1.1v1.4h-1.1v-1.4c-0.9-0.1-1.6-0.4-2.1-1
						c-0.5-0.5-0.9-1.3-1-2.3l1.9-0.2c0.1,0.4,0.2,0.7,0.4,1C23,16.3,23.2,16.5,23.5,16.6z M23.5,8.8c-0.3,0.1-0.5,0.3-0.7,0.5
						c-0.2,0.2-0.3,0.5-0.3,0.8c0,0.3,0.1,0.5,0.2,0.7c0.2,0.2,0.4,0.4,0.7,0.5V8.8z M24.6,16.8c0.4-0.1,0.7-0.2,0.9-0.5
						c0.2-0.3,0.3-0.6,0.3-1c0-0.3-0.1-0.6-0.3-0.9s-0.5-0.4-1-0.6V16.8z"/>
				</g>
			</g>
		</g>
		<g>
			<g>
				<g>
					<path class="st6" d="M15.9,31.6c-0.2,0.8-0.5,1.3-0.7,1.3c-0.2-0.1-0.3-0.7-0.1-1.5c0.2-0.8,0.5-1.3,0.7-1.3
						C16,30.1,16.1,30.8,15.9,31.6z"/>
				</g>
				<g>
					<path class="st6" d="M8.2,32.5c-0.3,0.1-0.6-0.5-0.8-1.3c-0.2-0.8-0.1-1.4,0.2-1.5c0.3-0.1,0.8,0.5,0.9,1.2
						C8.7,31.7,8.4,32.5,8.2,32.5z"/>
				</g>
			</g>
			<g>
				<path class="st6" d="M15.5,30.7c0,0-0.6,3.5-1.2,4.6c0,0-0.4,1.6-0.2,2.8s0.2,1.3,0.2,1.3l-3.4,0.9l-2.4-3.1c0,0,0.1-2,0-2.6
					c0,0-0.4-1.7-0.4-3.2c0-1.4,0.9-4.3,0.9-4.3s1-1.2,1.1-1.3c0,0,2.9-0.1,2.9-0.1l2.3,0.8C15.2,26.6,15.6,29.2,15.5,30.7z"/>
				<path class="st10" d="M14.1,38.1c-0.1-1.1,0.1-2.5,0.2-2.8c-0.7,0.6-1.5,1.1-2.2,1c-2.4,0-3.6-1.8-3.6-1.8
					c0.9,2.2,3.7,3.4,5.7,4C14.1,38.4,14.1,38.3,14.1,38.1z"/>
				<g>
					<path class="st14" d="M23.2,48c-0.4-1.2-1-2.9-1-3.4c0-0.8-0.9-2.4-0.9-2.4c0-0.6-1.4-1.8-2.9-2.4c-1.5-0.7-4.1-2.1-4.1-2.1
						l-0.8,1.2L12.2,39h-0.4L9,39.5l-1.4-2.1c0,0-3.1,1.1-4.6,1.8c-1.5,0.7-2.3,2.2-2.3,2.3c0,0,0,0,0,0c0,0-0.4,1.5-0.4,2.5
						s0,2.7-0.1,3.7c0,0.1,0,0.2,0,0.4H23.2z"/>
				</g>
				<g>
					<path class="st7" d="M11.9,48h3.5c-0.1-0.4-0.2-0.8-0.3-1.1c-0.7-1.8-1.8-3.8-2-4.3c-0.3-0.5-0.3-1.6-0.3-1.6l-0.3-0.5
						c0,0-0.8,0.3-0.8,0.7c0,0,0,1.9,0,3.9C11.7,45.8,11.8,46.9,11.9,48z"/>
				</g>
				<g>
					<path class="st0" d="M11,39.5c0,0,0.7,1.1,0.7,1.7c0,0,0.9-0.3,1.1-0.2c0,0,0.4-1.1,0.4-1.4c0.1-0.3,0,0,0,0l-1-0.6h-0.4
						L11,39.5z"/>
				</g>
			</g>
			<g>
				<path class="st0" d="M8.2,31.1l0.2,0c0,0,0-1.8,0.4-2c0.4-0.3,0.5-1,0.6-1.4c0-0.4,0.2-0.8,1-0.8c0.8,0,3.3,0.2,3.9,0.1
					s0.9,0.3,0.9,0.8s-0.1,1.3,0.1,1.7c0.2,0.4-0.1,2-0.1,2h0.2c0,0,0.1-1.2,0.4-1.3c0,0,0.2-1.9-0.2-3c-0.4-1.1-1.6-1.8-2.1-2.1
					s-3-0.4-3.9,0.3s-1.4,1.5-1.5,2s-0.4,2.5-0.4,2.5S8.4,30,8.2,31.1z"/>
			</g>
			<g>
				<g>
					<path class="st3" d="M14.1,36.7c0,0-0.1,0.7-0.4,1.1S12.2,39,12.2,39s0.8,0.4,2,3c0,0,0.3-1.6,0.2-2.1c0-0.6-0.1-1.2-0.2-1.8
						C14.2,37.6,14.3,37,14.1,36.7"/>
				</g>
				<g>
					<path class="st3" d="M8.5,35.8c0,0,0,0.7,0.9,1.4c0.9,0.8,2.5,1.8,2.5,1.8l-2.5,2.6c0,0-0.6-1.3-0.9-1.6
						c-0.3-0.4-1.1-1.4-1.1-2.4c0,0,0.3-0.6,0.5-0.9C8,36.5,8.2,36,8.5,35.8"/>
				</g>
			</g>
		</g>
		<g>
			<g>
				<path class="st10" d="M33.3,35.2l0,2.5c0,0-0.6,2.5,0.3,4.2c2.9-0.6,6.1-1,5.2-4.2v-2.5H33.3z"/>
			</g>
			<g>
				<polygon class="st8" points="39.7,48 41.7,41.2 35,41.2 31.8,40.3 31.9,48 				"/>
			</g>
			<g>
				<g>
					<polygon class="st4" points="37.4,48 36.8,43.6 35.2,43.6 34.6,48 					"/>
				</g>
				<g>
					<polygon class="st9" points="36.8,43.6 37.6,42.8 36,41.2 34.4,42.8 35.2,43.6 					"/>
				</g>
			</g>
			<g>
				<g>
					<g>
						<path class="st11" d="M33.2,37.7c0,0-0.2,0.8,0,1.2s2.7,2.2,2.7,2.2l-2.3,2.4l-1.5-3.1l0.5-1.7c0.1-0.3,0.2-0.5,0.3-0.7
							C33,37.9,33.1,37.8,33.2,37.7z"/>
					</g>
					<g>
						<g>
							<path class="st7" d="M33,48l-1-4.8l-0.1-3.3l-5.3,2c-1.3,0.5-2.3,1.8-2.4,3.2L24,48H33z"/>
						</g>
						<g>
							<path class="st0" d="M31.1,48h2.6c-0.3-1.8-0.6-3.5-0.8-4.3c-0.5-1.9-0.3-5.1-0.3-5.1c-0.2,0.1-0.6,0.8-0.6,0.8
								c-0.4,0.5-0.8,1.1-1,1.7c-0.4,0.9-0.8,2-0.8,2l1.3-0.1l-1.6,1.4L31.1,48z"/>
						</g>
					</g>
				</g>
				<g>
					<g>
						<path class="st11" d="M38.7,37.7c0,0,0.2,0.8,0,1.2S36,41.2,36,41.2l2.3,2.4l1.5-3.1l-0.5-1.7c-0.1-0.3-0.2-0.5-0.3-0.7
							C38.9,37.9,38.8,37.8,38.7,37.7z"/>
					</g>
					<g>
						<g>
							<path class="st7" d="M48,48l-0.2-2.9c-0.1-1.4-1-2.7-2.4-3.2l-5.3-2L40,43.2L39,48H48z"/>
						</g>
						<g>
							<path class="st0" d="M38.2,48h2.6l1.3-3.5l-1.6-1.4l1.3,0.1c0,0-0.5-1.1-0.8-2c-0.3-0.6-0.6-1.2-1-1.7c0,0-0.4-0.7-0.6-0.8
								c0,0,0.2,3.2-0.3,5.1C38.8,44.5,38.5,46.2,38.2,48z"/>
						</g>
					</g>
				</g>
			</g>
			<g>
				<path class="st6" d="M40.1,32.8c-0.3-1-0.1-2-0.9-2.9c-0.6-0.8-1.5-1.3-2.5-1.3c-1.1,0-2,0.1-3,0.7c-1,0.7-1.1,1.7-1.3,2.8
					c0,0.2,0,0.3,0,0.4c-0.1,0.5-0.1,1-0.1,1.5c0,2.9,1.7,5.3,3.8,5.3s3.8-2.4,3.8-5.3c0-0.1,0-0.2,0-0.3
					C40.1,33.6,40.2,33.2,40.1,32.8z"/>
				<g>
					<path class="st0" d="M40.3,32.5c0,0-0.2,0.3-0.4,0.7c0,0,0,0.1,0,0.1h-0.2c0-0.7-0.1-1.7-0.2-1.8c-0.2-0.2-0.3-0.4-0.2-1.1
						c0.1-0.7-0.9-1.4-1.8-1.2c-0.9,0.2-1.8,0.2-2.8,0c-0.9-0.2-1.9,0.5-1.9,1.3c0.1,0.7,0,0.8-0.1,1c-0.1,0.1-0.2,1.1-0.2,1.8h-0.2
						c0,0,0-0.1,0-0.1c-0.2-0.4-0.4-0.7-0.4-0.7s-0.2-2.1-0.1-3.4c0.2-1.2,0.5-1.7,1.1-2.3c0.3-0.3,0.9-0.5,1.6-0.7
						c1.1-0.4,3-0.3,4,0.3c0.2,0.1,0.5,0.3,0.6,0.4c0.7,0.6,1,1.1,1.1,2.3C40.5,30.4,40.3,32.5,40.3,32.5z"/>
				</g>
				<g>
					
						<ellipse transform="matrix(-0.9906 0.1366 -0.1366 -0.9906 68.8656 63.4208)" class="st6" cx="32.3" cy="34.1" rx="0.7" ry="1.5"/>
				</g>
				<g>
					
						<ellipse transform="matrix(0.9906 0.1366 -0.1366 0.9906 5.0296 -5.1602)" class="st6" cx="40.1" cy="34.1" rx="0.7" ry="1.5"/>
				</g>
			</g>
		</g>
	</g>
</g>
</svg>
