<?xml version="1.0" encoding="utf-8"?>
<!-- Generator: Adobe Illustrator 18.0.0, SVG Export Plug-In . SVG Version: 6.00 Build 0)  -->
<!DOCTYPE svg PUBLIC "-//W3C//DTD SVG 1.1//EN" "http://www.w3.org/Graphics/SVG/1.1/DTD/svg11.dtd">
<svg version="1.1" id="Layer_1" xmlns="http://www.w3.org/2000/svg" xmlns:xlink="http://www.w3.org/1999/xlink" x="0px" y="0px"
	 viewBox="0 0 48 48" enable-background="new 0 0 48 48" xml:space="preserve">
<g>
	<path fill="#FF7058" d="M26.5,8c0,1.4-1.2,2.6-2.6,2.6c-1.4,0-2.6-1.2-2.6-2.6s2.6-4.5,2.6-4.5S26.5,6.5,26.5,8z"/>
	<rect x="22.4" y="9.3" fill="#FF7058" width="2.9" height="2.3"/>
	<path fill="#F2F2F2" d="M4.2,28.1c-0.1,0-0.3,0-0.4-0.1c-0.6-0.2-0.8-0.9-0.6-1.5L9,12.9c0.2-0.4,0.6-0.7,1-0.7
		c0.4,0,0.8,0.3,1,0.7l5.8,13.6c0.2,0.6,0,1.2-0.6,1.5c-0.6,0.2-1.2,0-1.5-0.6L10,16.2L5.2,27.4C5,27.8,4.6,28.1,4.2,28.1z"/>
	<path fill="#84DBFF" d="M2.2,25.3c0,4.3,3.5,7.8,7.8,7.8s7.8-3.5,7.8-7.8H2.2z"/>
	<path fill="#F2F2F2" d="M32.2,28.1c-0.1,0-0.3,0-0.4-0.1c-0.6-0.2-0.8-0.9-0.6-1.5L37,12.9c0.2-0.4,0.6-0.7,1-0.7
		c0.4,0,0.8,0.3,1,0.7l5.8,13.6c0.2,0.6,0,1.2-0.6,1.5c-0.6,0.2-1.2,0-1.5-0.6L38,16.2l-4.8,11.2C33,27.8,32.6,28.1,32.2,28.1z"/>
	<path fill="#84DBFF" d="M30.2,25.3c0,4.3,3.5,7.8,7.8,7.8c4.3,0,7.8-3.5,7.8-7.8H30.2z"/>
	<path fill="#FFD15C" d="M35.7,44.5H12l0,0c0-2.4,2-4.4,4.4-4.4h14.8C33.7,40.1,35.7,42.1,35.7,44.5L35.7,44.5z"/>
	<path fill="#FFD15C" d="M23.9,34.3L23.9,34.3c-3.2,0-5.8,2.6-5.8,5.8v0h11.6v0C29.6,36.9,27,34.3,23.9,34.3z"/>
	<rect x="21.6" y="13.6" fill="#FFD15C" width="4.4" height="24"/>
	<path fill="#DDE6ED" d="M11,12.9c-0.2-0.4-0.6-0.7-1-0.7c-0.4,0-0.8,0.3-1,0.7l-1.3,3c1.3-0.4,2.8-0.6,4.3-0.6L11,12.9z"/>
	<path fill="#DDE6ED" d="M38,12.2c-0.4,0-0.8,0.3-1,0.7l-1,2.4c1.5,0,3,0.2,4.3,0.6l-1.3-3C38.9,12.5,38.4,12.2,38,12.2z"/>
	<path fill="#FFD15C" d="M3,16.2c-0.5,0-1.1-0.3-1.4-0.8c-0.5-0.8-0.3-1.8,0.5-2.3c5.5-3.6,14.3-3.6,20.4,0c0.8,0.5,1.1,1.5,0.6,2.3
		c-0.5,0.8-1.5,1.1-2.3,0.6c-5-2.9-12.5-2.9-16.9,0C3.6,16.1,3.3,16.2,3,16.2z"/>
	<circle fill="#FF7058" cx="3" cy="14.6" r="3"/>
	<path fill="#FFD15C" d="M45,16.2c0.5,0,1.1-0.3,1.4-0.8c0.5-0.8,0.3-1.8-0.5-2.3c-5.5-3.6-14.3-3.6-20.4,0
		c-0.8,0.5-1.1,1.5-0.6,2.3c0.5,0.8,1.5,1.1,2.3,0.6c5-2.9,12.5-2.9,16.9,0C44.4,16.1,44.7,16.2,45,16.2z"/>
	<circle fill="#FF7058" cx="45" cy="14.6" r="3"/>
	<circle fill="#40596B" cx="23.9" cy="14.6" r="3.7"/>
	<circle fill="#CDD6E0" cx="23.9" cy="14.6" r="1.6"/>
</g>
</svg>
