<?xml version="1.0" encoding="utf-8"?>
<!-- Generator: Adobe Illustrator 18.0.0, SVG Export Plug-In . SVG Version: 6.00 Build 0)  -->
<!DOCTYPE svg PUBLIC "-//W3C//DTD SVG 1.1//EN" "http://www.w3.org/Graphics/SVG/1.1/DTD/svg11.dtd">
<svg version="1.1" id="Layer_1" xmlns="http://www.w3.org/2000/svg" xmlns:xlink="http://www.w3.org/1999/xlink" x="0px" y="0px"
	 viewBox="0 0 48 48" enable-background="new 0 0 48 48" xml:space="preserve">
<g>
	<g>
		<path fill="#4ABAA5" d="M22.7,42.6c-7,0-12.7-5.7-12.7-12.7C17,29.9,22.7,35.6,22.7,42.6z"/>
		<path fill="#4ABAA5" d="M42.5,29.9c0,9.5-7.7,17.2-17.2,17.2C25.3,37.6,33,29.9,42.5,29.9z"/>
	</g>
	<rect x="21.6" y="26.3" fill="#415A6B" width="4.8" height="21.7"/>
	<path fill="#F05540" d="M24,0c0,0-6.9,7.2-6.9,16c0,8.8,6.9,16,6.9,16s6.9-7.2,6.9-16C30.9,7.2,24,0,24,0z"/>
	<path fill="#F3705A" d="M44,7c0,0-9.8,1.3-15.3,8.2c-3.7,4.6-4.5,10.5-4.6,14c-0.1-3.4-1-9.4-4.6-14C13.9,8.3,4,7,4,7
		s-0.9,9.9,4.6,16.8c5.5,6.9,15.3,8.2,15.3,8.2H24c0,0,9.8-1.3,15.3-8.2C44.9,16.9,44,7,44,7z"/>
</g>
</svg>
