<?xml version="1.0" encoding="utf-8"?>
<!-- Generator: Adobe Illustrator 18.0.0, SVG Export Plug-In . SVG Version: 6.00 Build 0)  -->
<!DOCTYPE svg PUBLIC "-//W3C//DTD SVG 1.1//EN" "http://www.w3.org/Graphics/SVG/1.1/DTD/svg11.dtd">
<svg version="1.1" id="Layer_1" xmlns="http://www.w3.org/2000/svg" xmlns:xlink="http://www.w3.org/1999/xlink" x="0px" y="0px"
	 viewBox="0 0 48 48" enable-background="new 0 0 48 48" xml:space="preserve">
<g>
	<polygon fill="#F2F2F2" points="45.5,43.2 47.9,40.8 45.5,38.4 47.9,36 45.5,33.6 47.9,31.2 45.5,28.8 47.9,26.4 45.5,24 
		47.9,21.6 45.5,19.2 47.9,16.8 45.5,14.4 47.9,12 45.5,9.6 47.9,7.2 45.5,4.8 47.9,2.4 45.5,0 13.3,0 13.3,44 46.4,44 	"/>
	<path fill="#CDD6E0" d="M0.1,7v34c0,3.9,5.9,7,13.2,7c7.3,0,13.2-3.1,13.2-7V7H0.1z"/>
	<ellipse fill="#CDD6E0" cx="13.3" cy="7" rx="13.2" ry="7"/>
	<path fill="#F2F2F2" d="M13.3,13C6.7,13,1.1,10.3,1.1,7c0-3.3,5.6-6,12.2-6s12.2,2.8,12.2,6C25.5,10.3,19.9,13,13.3,13z"/>
	<ellipse fill="#ACB3BA" cx="13.3" cy="7" rx="5.6" ry="2.8"/>
</g>
</svg>
