<?xml version="1.0" encoding="utf-8"?>
<!-- Generator: Adobe Illustrator 18.0.0, SVG Export Plug-In . SVG Version: 6.00 Build 0)  -->
<!DOCTYPE svg PUBLIC "-//W3C//DTD SVG 1.1//EN" "http://www.w3.org/Graphics/SVG/1.1/DTD/svg11.dtd">
<svg version="1.1" id="Layer_1" xmlns="http://www.w3.org/2000/svg" xmlns:xlink="http://www.w3.org/1999/xlink" x="0px" y="0px"
	 viewBox="0 0 48 48" enable-background="new 0 0 48 48" xml:space="preserve">
<g>
	<g>
		<g>
			<g>
				
					<rect x="28.5" y="27.7" transform="matrix(0.7071 0.7071 -0.7071 0.7071 30.9911 -12.8369)" fill="#344A5E" width="5" height="6.5"/>
			</g>
		</g>
		<g>
			<g>
				<circle fill="#8AD7F8" cx="17.5" cy="17.5" r="15.5"/>
				<path fill="#415A6B" d="M29.9,29.9c-6.8,6.8-18,6.8-24.8,0s-6.8-18,0-24.8s18-6.8,24.8,0S36.8,23.1,29.9,29.9z M8,8
					c-5.3,5.3-5.3,13.8,0,19.1s13.8,5.3,19.1,0s5.3-13.8,0-19.1S13.2,2.7,8,8z"/>
			</g>
		</g>
		<g>
			<g>
				<g>
					<path fill="#F3705A" d="M35.7,29.6c5.3,3.7,9.3,6.6,10.5,7.9c2.4,2.4,2.4,6.3,0,8.7c-2.4,2.4-6.3,2.4-8.7,0
						c-1.2-1.2-4.2-5.2-7.9-10.5L35.7,29.6z"/>
				</g>
			</g>
			<g>
				<g>
					<path fill="#F05540" d="M31.6,38.5c-0.6-0.9-1.3-1.8-1.9-2.7l6.1-6.1c1,0.7,1.9,1.3,2.7,1.9L31.6,38.5z"/>
				</g>
			</g>
			<g>
				<g>
					<g>
						<path fill="#F3705A" d="M30.7,36.8l6.1-6.1c0.6-0.6,0.6-1.6,0-2.2c-0.6-0.6-1.6-0.6-2.2,0l-6.1,6.1c-0.6,0.6-0.6,1.6,0,2.2
							C29.1,37.5,30.1,37.5,30.7,36.8z"/>
					</g>
				</g>
			</g>
		</g>
		<g>
			<g>
				<ellipse fill="#FFFFFF" cx="17.5" cy="9.4" rx="4.7" ry="2.2"/>
			</g>
		</g>
	</g>
</g>
</svg>
