<?xml version="1.0" encoding="utf-8"?>
<!-- Generator: Adobe Illustrator 16.0.0, SVG Export Plug-In . SVG Version: 6.00 Build 0)  -->
<!DOCTYPE svg PUBLIC "-//W3C//DTD SVG 1.1//EN" "http://www.w3.org/Graphics/SVG/1.1/DTD/svg11.dtd">
<svg version="1.1" id="Layer_1" xmlns="http://www.w3.org/2000/svg" xmlns:xlink="http://www.w3.org/1999/xlink" x="0px" y="0px"
	 width="48px" height="48px" viewBox="0 0 48 48" enable-background="new 0 0 48 48" xml:space="preserve">
<g>
	<rect x="17.169" y="26.342" fill="#F8B64C" width="13.652" height="11.229"/>
	<g opacity="0.1">
		<g>
			<defs>
				<rect id="SVGID_29_" x="20.325" y="26.347" width="10.496" height="11.22"/>
			</defs>
			<clipPath id="SVGID_2_">
				<use xlink:href="#SVGID_29_"  overflow="visible"/>
			</clipPath>
			<polygon clip-path="url(#SVGID_2_)" fill="#40596B" points="30.821,26.342 30.817,37.571 20.325,30.044 23.325,26.342 			"/>
		</g>
	</g>
	<path fill="#F8B64C" d="M16.757,17.398c0.15,1.727-0.688,3.212-1.873,3.316c-1.184,0.103-2.268-1.213-2.42-2.941
		c-0.15-1.727,0.688-3.211,1.873-3.315S16.606,15.671,16.757,17.398"/>
	<path fill="#F8B64C" d="M35.528,17.773c-0.15,1.727-1.234,3.044-2.42,2.94s-2.023-1.588-1.873-3.315
		c0.152-1.728,1.236-3.044,2.42-2.941C34.841,14.562,35.679,16.045,35.528,17.773"/>
	<path fill="#FFD15C" d="M33.964,12.878v3.272c-0.01,0.693-0.047,1.386-0.135,2.069c-0.143,1.135-0.385,2.252-0.721,3.33
		c-0.818,2.607-2.195,5.013-4.053,7.044l-0.951,1.039c-0.867,0.953-2.098,1.492-3.389,1.492h-1.441
		c-1.281,0-2.514-0.549-3.379-1.492l-0.943-1.039c-1.318-1.434-2.396-3.07-3.195-4.812c-0.809-1.751-1.348-3.628-1.578-5.562
		c-0.086-0.683-0.135-1.376-0.135-2.069c-0.01-0.077-0.01-0.145-0.01-0.221v-2.993c0-0.943,0.135-1.867,0.385-2.733
		c1.186-4.167,5.023-7.227,9.586-7.227c4.551,0,8.391,3.06,9.574,7.227C33.829,11.051,33.964,11.955,33.964,12.878"/>
	<path fill="#ACB3BA" d="M32.884,29.287c-0.012,0.011-0.021,0.011-0.021,0.011v-0.022C32.872,29.276,32.884,29.287,32.884,29.287"/>
	<path fill="#ACB3BA" d="M32.927,29.276v0.021c0,0-0.012,0-0.021-0.01C32.905,29.287,32.915,29.276,32.927,29.276"/>
	<path fill="#40596B" d="M33.808,18.578c0.322-3.15-0.256-5.236-0.707-6.318c-0.266-0.638-0.336-1.328-0.24-2.013
		c0.412-2.99-1.158-2.585-1.158-2.585c-3.381,1.66-7.701,1.623-7.701,1.623s-4.322,0.037-7.703-1.623c0,0-1.572-0.405-1.158,2.585
		c0.094,0.685,0.025,1.375-0.24,2.013c-0.451,1.082-1.031,3.168-0.709,6.318c0,0-6.594-19.284,9.811-18.565
		C40.401-0.706,33.808,18.578,33.808,18.578"/>
	<path fill="#CDD6E0" d="M30.235,41.087c-0.08,0.41-0.16,0.82-0.26,1.23c-0.43,1.88-1.051,3.71-1.85,5.48l-0.1,0.21h-8.051
		c-0.811-1.85-1.461-3.76-1.939-5.71c-0.08-0.3-0.141-0.59-0.211-0.89l-0.07-0.32l5.24-6.18h2.01L30.235,41.087z"/>
	<polygon fill="#FF7058" points="20.585,48.007 23.005,41.087 21.546,38.167 21.245,37.567 21.056,37.197 21.845,36.267 
		23.005,34.907 25.005,34.907 26.937,37.197 26.745,37.567 26.446,38.167 25.005,41.087 27.415,48.007 	"/>
	<path fill="#54C0EB" d="M16.216,48.007H0.005c0.01-0.13,0.021-0.25,0.041-0.37c0.119-0.85,0.311-2.17,0.549-3.64
		c0.791-4.71,3.98-8.68,8.441-10.38c1.65-0.63,3.5-1.41,5.359-2.32l1.291-0.63l-5.461,4.24l2.141,2.14l0.01,0.01l-1.74,1.83
		l4.119,6.73L16.216,48.007z"/>
	<path fill="#F2F2F2" d="M30.817,31.353l-6.816,3.556l6.238,6.174C31.288,36.499,31.222,33.299,30.817,31.353"/>
	<path fill="#54C0EB" d="M47.995,48.007H31.776l1.469-2.4l4.111-6.71l-1.73-1.84v-0.01l2.139-2.14l-5.609-4.36l1.439,0.75
		c1.861,0.91,3.711,1.69,5.361,2.32c4.459,1.7,7.65,5.67,8.439,10.38c0.24,1.47,0.439,2.79,0.561,3.64
		C47.976,47.757,47.985,47.877,47.995,48.007"/>
	<path fill="#84DBFF" d="M19.976,48.007h-3.76l-1.461-2.39l-4.119-6.73l1.73-1.84l-2.141-2.14l5.461-4.24l1.479-1.14l0.01-0.01v2.55
		c0,0.03-0.01,0.05-0.01,0.08c-0.119,0.77-0.199,1.69-0.189,2.76c0,0.98,0.07,2.08,0.24,3.32c0.039,0.34,0.1,0.68,0.17,1.04
		C17.796,41.707,18.595,44.607,19.976,48.007"/>
	<path fill="#84DBFF" d="M35.626,37.057l1.74,1.83l-0.01,0.01l-4.111,6.71l-1.469,2.4h-3.75c1.398-3.45,2.199-6.4,2.609-8.87
		c0.039-0.21,0.07-0.41,0.09-0.61c0.02-0.1,0.039-0.2,0.051-0.3c0.17-1.24,0.238-2.34,0.238-3.32c0.012-1.07-0.068-1.99-0.189-2.76
		c0-0.02,0-0.03-0.01-0.04v-2.59l0.01,0.01l6.939,5.38l-2.139,2.14V37.057z"/>
	<path fill="#F2F2F2" d="M17.753,41.083l6.248-6.174l-6.828-3.556C16.769,33.3,16.704,36.499,17.753,41.083"/>
</g>
</svg>
