<?xml version="1.0" encoding="utf-8"?>
<!-- Generator: Adobe Illustrator 16.0.0, SVG Export Plug-In . SVG Version: 6.00 Build 0)  -->
<!DOCTYPE svg PUBLIC "-//W3C//DTD SVG 1.1//EN" "http://www.w3.org/Graphics/SVG/1.1/DTD/svg11.dtd">
<svg version="1.1" id="Layer_1" xmlns="http://www.w3.org/2000/svg" xmlns:xlink="http://www.w3.org/1999/xlink" x="0px" y="0px"
	 width="48px" height="48px" viewBox="0 0 48 48" enable-background="new 0 0 48 48" xml:space="preserve">
<g>
	<path fill="#CDD6E0" d="M31.491,4.605c-0.577-0.58-1.361-0.907-2.179-0.907H18.689c-0.818,0-1.604,0.327-2.181,0.907l-3.895,3.919
		h22.771L31.491,4.605z"/>
	<path fill="#40596B" d="M44.286,6.111h-3.879c-0.441,0-0.8,0.358-0.8,0.799v1.614h5.478V6.91
		C45.085,6.469,44.728,6.111,44.286,6.111"/>
	<rect y="17.079" fill="#ACB3BA" width="48" height="1.787"/>
	<path fill="#F2F2F2" d="M0,42.302c0,1.104,0.896,2,2,2h44c1.105,0,2-0.896,2-2V18.867H0V42.302z"/>
	<path fill="#F2F2F2" d="M48,10.524c0-1.105-0.895-2-2-2H2c-1.104,0-2,0.895-2,2v6.555h48V10.524z"/>
	<path fill="#FF7058" d="M7.719,13.335H4.17c-0.553,0-1-0.447-1-1s0.447-1,1-1h3.549c0.552,0,1,0.447,1,1S8.271,13.335,7.719,13.335
		"/>
	<path fill="#40596B" d="M36.644,26.413c0,6.983-5.661,12.643-12.644,12.643s-12.644-5.66-12.644-12.643
		c0-6.983,5.661-12.643,12.644-12.643S36.644,19.43,36.644,26.413"/>
	<path fill="#FFFFFF" d="M24,35.525c-5.024,0-9.112-4.088-9.112-9.112c0-5.024,4.088-9.112,9.112-9.112
		c5.023,0,9.112,4.088,9.112,9.112C33.112,31.437,29.023,35.525,24,35.525"/>
	<path fill="#84DBFF" d="M24,32.352c-3.275,0-5.939-2.665-5.939-5.94s2.664-5.938,5.939-5.938s5.938,2.663,5.938,5.938
		S27.275,32.352,24,32.352"/>
	<path fill="#54C0EB" d="M24,30.115c-2.041,0-3.702-1.661-3.702-3.703c0-2.041,1.661-3.701,3.702-3.701s3.702,1.66,3.702,3.701
		C27.702,28.454,26.041,30.115,24,30.115"/>
	<path fill="#FFFFFF" d="M21.844,25.802c-0.853,0-1.547-0.693-1.547-1.546c0-0.852,0.694-1.545,1.547-1.545
		c0.852,0,1.546,0.693,1.546,1.545C23.39,25.109,22.695,25.802,21.844,25.802"/>
</g>
</svg>
