<?xml version="1.0" encoding="utf-8"?>
<!-- Generator: Adobe Illustrator 18.0.0, SVG Export Plug-In . SVG Version: 6.00 Build 0)  -->
<!DOCTYPE svg PUBLIC "-//W3C//DTD SVG 1.1//EN" "http://www.w3.org/Graphics/SVG/1.1/DTD/svg11.dtd">
<svg version="1.1" id="Layer_1" xmlns="http://www.w3.org/2000/svg" xmlns:xlink="http://www.w3.org/1999/xlink" x="0px" y="0px"
	 viewBox="0 0 48 48" enable-background="new 0 0 48 48" xml:space="preserve">
<g>
	<g>
		<path fill="#415A6B" d="M27.2,45.2V3.2C27.2,1.4,25.8,0,24,0s-3.2,1.4-3.2,3.2v41.9H27.2z"/>
	</g>
	<path fill="#344A5E" d="M34.3,48c-1.9-3.7-5.8-6.2-10.3-6.2c-4.5,0-8.3,2.5-10.3,6.2H34.3z"/>
	<path fill="#F3705A" d="M44,32.5H4c-2.2,0-4-1.8-4-4V8.7c0-2.2,1.8-4,4-4h40c2.2,0,4,1.8,4,4v19.8C48,30.7,46.2,32.5,44,32.5z"/>
	<rect x="4" y="8.7" fill="#FFFFFF" width="40" height="19.8"/>
	<g>
		<path fill="#66C6B9" d="M14.2,17.1c0,1.4-0.6,2.3-1.7,2.7l2.2,3.2h-2.4l-2-2.8H9V23H7v-8.8h3.3c1.4,0,2.3,0.2,2.9,0.7
			C13.9,15.3,14.2,16.1,14.2,17.1z M11.8,18.1c0.2-0.2,0.4-0.6,0.4-1c0-0.5-0.1-0.8-0.4-1c-0.3-0.2-0.7-0.3-1.3-0.3H9v2.6l1.4,0
			C11.1,18.5,11.6,18.4,11.8,18.1z"/>
		<path fill="#66C6B9" d="M22.5,14.2v1.8h-4.4v1.8h3.9v1.7h-3.9l0,1.8h4.5V23h-6.5v-8.8H22.5z"/>
		<path fill="#66C6B9" d="M30.6,14.2h2V23h-2l-4.2-5.5V23h-2v-8.8h1.8l4.3,5.7V14.2z"/>
		<path fill="#66C6B9" d="M38.5,15.9V23h-2v-7.1H34v-1.7h7v1.7H38.5z"/>
	</g>
</g>
</svg>
