<?xml version="1.0" encoding="utf-8"?>
<!-- Generator: Adobe Illustrator 18.0.0, SVG Export Plug-In . SVG Version: 6.00 Build 0)  -->
<!DOCTYPE svg PUBLIC "-//W3C//DTD SVG 1.1//EN" "http://www.w3.org/Graphics/SVG/1.1/DTD/svg11.dtd">
<svg version="1.1" id="Layer_1" xmlns="http://www.w3.org/2000/svg" xmlns:xlink="http://www.w3.org/1999/xlink" x="0px" y="0px"
	 viewBox="0 0 48 48" enable-background="new 0 0 48 48" xml:space="preserve">
<g>
	<g>
		<circle fill="#54C0EB" cx="24" cy="24" r="24"/>
		<path fill="#84DBFF" d="M29.9,9.7c-0.4-0.4,0-1,0.4-1.4c1-1.1,2.1-2.1,2.8-3.5c0,0,0,0,0,0c0.6-1.2,0.3-2.5-0.6-3.3
			c4.4,1.7,8.2,4.6,10.9,8.4c-0.8,0.1-1.7,0.3-2.5,0.4c-1.2,0.1-2.5,0.1-3.4-0.8c-0.5-0.5-1.1-1.3-1.7-1c-0.3,0.1-0.5,0.4-0.7,0.6
			c-1.1,1.1-2.9,1-4.5,0.9C30.4,9.9,30.1,9.9,29.9,9.7z"/>
		<path fill="#84DBFF" d="M48,24c0,5.4-1.8,10.4-4.8,14.4c-1.5-2.4,0.4-6.9-1.3-9.7c-0.7-1.1-1.6-2.1-2.7-2.7
			c-2.3-1.1-5.1,0.1-7.5-0.7c-2.1-0.7-3.5-2.9-3.6-5.1c-0.1-2.2,1-4.4,2.7-5.8c1.6-1.3,3.8-2.1,5.7-1.5c0.8,0.2,1.4,0.7,2.2,0.9
			c1.9,0.6,3.9-0.3,5.8-1.1c0.2-0.1,0.4-0.2,0.5-0.3C46.9,15.9,48,19.8,48,24z"/>
		<path fill="#84DBFF" d="M4.7,22.4c0.5,1.5-1.3,2.8-2.6,1.8c-0.8-0.6-1.5-1.3-2.1-2.2v0c0.1-0.8,0.2-1.5,0.3-2.2
			c0.4,0.4,0.9,0.5,1.4,0.6c0,0,0,0,0,0C3.1,20.4,4.3,21.1,4.7,22.4C4.7,22.4,4.7,22.4,4.7,22.4z"/>
		<path fill="#84DBFF" d="M17.7,4.1c-1,2.3-3.6,3.3-5.3,5.1c-1.2,1.2-2.1,2.8-2.9,4.3l-0.2,0.5c-1,1.8-3,2.5-5,1.9
			c-0.3-0.1-0.7-0.2-1-0.2c-0.7,0-1.5,0.2-2.1,0.7C3.8,8.7,10.2,2.8,18,0.7C18.2,1.9,18.2,3.1,17.7,4.1z"/>
		<path fill="#84DBFF" d="M25.4,33.3c-0.4,0.7-1.1,1.2-1.6,1.8c-3,3.4-2.7,9.1-6.3,11.9c0,0-0.1,0-0.1,0.1c0,0,0,0,0,0
			c-2.2-0.6-4.3-1.6-6.3-2.8c0.1-1.1,0.2-2.3,0-3.3c-0.8-3.2-4.5-4.8-5.6-7.8c-0.7-2-0.1-4.2,0.8-6.1c0.6-1.1,1.4-2.3,2.6-2.7
			c0.9-0.3,1.9-0.1,2.8,0.2c3.8,1.3,6.5,5.2,10.5,5.6c1.2,0.1,2.8,0,3.4,1C26,31.7,25.8,32.6,25.4,33.3z"/>
		<path fill="#FFFFFF" d="M38.4,10.6c1.2-0.8,2.3-1.7,3.4-2.7c-0.4-0.4-0.7-0.8-1.1-1.1c-0.9,0.9-1.9,1.7-3,2.4C34.6,3,29.6,0,24,0
			c-5.6,0-10.6,3-13.7,9.1c-1.1-0.7-2-1.5-3-2.4C6.9,7.1,6.6,7.5,6.2,7.9c1.1,1,2.2,1.9,3.4,2.7C8,14.3,7.1,18.6,7,23.2H0
			c0,0.3,0,0.5,0,0.8c0,0.3,0,0.5,0,0.8h7c0.1,4.6,1.1,9,2.6,12.6c-1.2,0.8-2.3,1.7-3.4,2.7c0.4,0.4,0.7,0.8,1.1,1.1
			c0.9-0.9,1.9-1.7,3-2.4C13.4,45,18.4,48,24,48c0,0,0,0,0,0c5.6,0,10.6-3,13.7-9.1c1.1,0.7,2,1.5,3,2.4c0.4-0.4,0.7-0.7,1.1-1.1
			c-1.1-1-2.2-1.9-3.4-2.7c1.6-3.7,2.6-8,2.7-12.6h7c0-0.3,0-0.5,0-0.8c0-0.3,0-0.5,0-0.8h-7C40.9,18.6,40,14.3,38.4,10.6z
			 M23.2,46.4c-4.7-0.4-8.9-2.9-11.6-8.4c3.5-2,7.4-3.1,11.6-3.3V46.4z M23.2,33.2c-4.4,0.1-8.5,1.3-12.2,3.4
			c-1.4-3.4-2.3-7.5-2.4-11.8h14.6V33.2z M23.2,23.2H8.6c0.1-4.3,1-8.4,2.4-11.8c3.7,2.1,7.8,3.3,12.2,3.4V23.2z M23.2,13.2
			c-4.1-0.1-8.1-1.3-11.6-3.3c2.7-5.4,6.8-8,11.6-8.4V13.2z M24.8,1.6C29.5,2,33.7,4.5,36.4,10c-3.5,2-7.4,3.1-11.6,3.3V1.6z
			 M24.8,46.4V34.8c4.1,0.1,8.1,1.3,11.6,3.3C33.7,43.5,29.5,46,24.8,46.4z M37,36.6c-3.7-2.1-7.8-3.3-12.2-3.4v-8.4h14.6
			C39.3,29.1,38.4,33.2,37,36.6z M24.8,23.2v-8.4c4.4-0.1,8.5-1.3,12.2-3.4c1.4,3.4,2.3,7.5,2.4,11.8H24.8z"/>
	</g>
	<circle fill="#FF7058" cx="24" cy="23.8" r="11.9"/>
	<circle fill="#40596B" cx="24" cy="23.8" r="9.7"/>
	<g>
		<circle fill="#FFD15C" cx="24" cy="20.7" r="3.8"/>
		<path fill="#FFD15C" d="M30,28.2c-1.5,1.6-3.7,2.6-6,2.6s-4.5-1-6-2.5c0.8-1.7,2.3-3,4.1-3.6c0.6,0.3,1.2,0.4,1.9,0.4
			c0.7,0,1.3-0.2,1.9-0.4C27.7,25.2,29.2,26.5,30,28.2z"/>
	</g>
</g>
</svg>
