<?xml version="1.0" encoding="utf-8"?>
<!-- Generator: Adobe Illustrator 16.0.0, SVG Export Plug-In . SVG Version: 6.00 Build 0)  -->
<!DOCTYPE svg PUBLIC "-//W3C//DTD SVG 1.1//EN" "http://www.w3.org/Graphics/SVG/1.1/DTD/svg11.dtd">
<svg version="1.1" id="Layer_1" xmlns="http://www.w3.org/2000/svg" xmlns:xlink="http://www.w3.org/1999/xlink" x="0px" y="0px"
	 width="48px" height="48px" viewBox="0 0 48 48" enable-background="new 0 0 48 48" xml:space="preserve">
<g>
	<rect x="18.706" y="21.448" fill="#F8B64C" width="10.588" height="15.154"/>
	<polygon fill="#E8EAEA" points="33.384,48 24.108,36.602 23.892,36.602 10.739,48 	"/>
	<polygon fill="#FF7058" points="25.629,40.86 26.944,39.545 24,36.602 21.056,39.545 22.371,40.86 	"/>
	<polygon fill="#FF7058" points="26.314,48 25.629,40.86 22.37,40.86 21.686,48 	"/>
	<path fill="#F2F2F2" d="M23.978,36.602c0,0,3.826,4.152,3.551,5.587l3.206-10.533l-1.332-3.094
		C29.402,28.562,29.534,32.021,23.978,36.602"/>
	<path fill="#334A5E" d="M26.66,48H48l-0.8-6.763c-0.26-2.189-1.697-4.059-3.746-4.872L32.32,31.947c0,0-2.137-2.956-2.919-3.385
		c0,0,0.649,2.389,0,4.601C29.09,34.23,27.854,41.135,26.66,48"/>
	<path fill="#40596B" d="M26.751,48h4.201l3.599-7.718l-2.937-1.803l1.958-1.082l-1.406-5.661c-0.5-0.677-2.108-2.814-2.764-3.174
		c0,0,0.457,2.136,0,4.601C29.25,33.988,27.995,41.021,26.751,48"/>
	<path fill="#F2F2F2" d="M24.022,36.602c0,0-3.826,4.152-3.551,5.587l-3.206-10.533l1.331-3.094
		C18.597,28.562,18.465,32.021,24.022,36.602"/>
	<path fill="#334A5E" d="M21.34,48c-1.195-6.865-2.43-13.77-2.743-14.837c-0.648-2.212,0-4.601,0-4.601
		c-0.781,0.429-2.919,3.385-2.919,3.385L4.546,36.365c-2.049,0.813-3.487,2.683-3.746,4.872L0,48H21.34z"/>
	<path fill="#40596B" d="M17.047,48h4.228c-1.236-6.983-2.492-14.018-2.678-14.837c-0.592-2.627,0-4.601,0-4.601
		c-0.655,0.36-2.264,2.497-2.764,3.174l-1.406,5.661l1.958,1.082l-2.937,1.803L17.047,48z"/>
	<path fill="#FFD15C" d="M14.986,5.645c-0.847,2.401-1.332,5.172-1.332,8.126c0,9.137,4.632,16.552,10.342,16.552
		s10.342-7.415,10.342-16.552c0-0.506-0.014-1.013-0.048-1.51c0.193-0.148,0.346-0.424,0.394-0.838
		c0.208-1.772,0.154-3.861-0.241-5.778H14.986z"/>
	<path fill="#40596B" d="M25.137,25.69l-0.145-0.99l6.088-0.891c2.709-0.396,4.752-2.76,4.752-5.498h1
		c0,3.231-2.41,6.02-5.607,6.488L25.137,25.69z"/>
	<path fill="#40596B" d="M26.658,24.986c0.081,0.619-0.566,1.214-1.446,1.33c-0.881,0.115-1.66-0.293-1.741-0.912
		c-0.081-0.618,0.565-1.214,1.447-1.329C25.798,23.959,26.577,24.367,26.658,24.986"/>
	<path fill="#40596B" d="M14.188,17.889c0.496-2.283,0.537-4.284,1.164-6.707c0,0,12.268,2.743,17.35-2.221
		c0,0,1.586,5.058,1.224,8.928h1.419c0.279-4.754,0.368-8.354,0.368-8.354c-0.483-8.18-5.415-7.292-6.797-6.918
		c-1.249-2.621-15.261-6.513-16.63,6.918c0,0,0.083,3.601,0.361,8.354H14.188z"/>
	<path fill="#54C0EB" d="M12.175,16.417v-1.967c0-6.646,5.407-12.053,12.055-12.053c6.646,0,12.053,5.407,12.053,12.053v1.967h1.787
		v-1.967c0-7.631-6.209-13.84-13.84-13.84c-7.633,0-13.842,6.209-13.842,13.84v1.967H12.175z"/>
	<path fill="#54C0EB" d="M13.863,12.661c-1.944,0.151-3.476,1.773-3.476,3.755s1.531,3.604,3.476,3.755V12.661z"/>
	<path fill="#E8EAEA" d="M14.241,20.848c-0.392,0-0.71-0.318-0.71-0.71v-7.442c0-0.392,0.318-0.71,0.71-0.71
		c0.393,0,0.711,0.318,0.711,0.71v7.442C14.952,20.529,14.634,20.848,14.241,20.848"/>
	<path fill="#54C0EB" d="M34.594,12.661c1.944,0.151,3.476,1.773,3.476,3.755s-1.531,3.604-3.476,3.755V12.661z"/>
	<path fill="#E8EAEA" d="M34.216,20.848c-0.393,0-0.71-0.318-0.71-0.71v-7.442c0-0.392,0.317-0.71,0.71-0.71
		c0.392,0,0.71,0.318,0.71,0.71v7.442C34.926,20.529,34.607,20.848,34.216,20.848"/>
</g>
</svg>
