<?xml version="1.0" encoding="utf-8"?>
<!-- Generator: Adobe Illustrator 18.0.0, SVG Export Plug-In . SVG Version: 6.00 Build 0)  -->
<!DOCTYPE svg PUBLIC "-//W3C//DTD SVG 1.1//EN" "http://www.w3.org/Graphics/SVG/1.1/DTD/svg11.dtd">
<svg version="1.1" id="Layer_1" xmlns="http://www.w3.org/2000/svg" xmlns:xlink="http://www.w3.org/1999/xlink" x="0px" y="0px"
	 viewBox="0 0 48 48" enable-background="new 0 0 48 48" xml:space="preserve">
<g>
	<g>
		<g>
			<g>
				<path fill="#E8EAE9" d="M6.4,44.3h35.2c-0.3-8.9-8.9-16.5-14-20.3c5.1-3.7,13.6-11.4,14-20.3H6.4c0.3,8.9,8.9,16.5,14,20.3
					C15.3,27.7,6.7,35.4,6.4,44.3z"/>
				<path fill="#E8EAE9" d="M6.4,44.3h35.2c-0.3-8.9-8.9-16.5-14-20.3c5.1-3.7,13.6-11.4,14-20.3H6.4c0.3,8.9,8.9,16.5,14,20.3
					C15.3,27.7,6.7,35.4,6.4,44.3z"/>
			</g>
			<g>
				<g>
					<g>
						<path fill="#415A6B" d="M41.6,4.3H6.4c-1.2,0-2.1-1-2.1-2.1S5.2,0,6.4,0h35.2c1.2,0,2.1,1,2.1,2.1S42.8,4.3,41.6,4.3z"/>
					</g>
				</g>
				<g>
					<g>
						<g>
							<path fill="#415A6B" d="M6.4,43.7l35.2,0c1.2,0,2.1,1,2.1,2.1c0,1.2-1,2.1-2.1,2.1L6.4,48c-1.2,0-2.1-1-2.1-2.1
								C4.3,44.7,5.2,43.7,6.4,43.7z"/>
						</g>
					</g>
				</g>
			</g>
		</g>
		<g>
			<path fill="#FFD15C" d="M23,22l-0.7-0.5c-2-1.5-5.5-4.3-8.3-7.8h20c-2.8,3.5-6.2,6.3-8.3,7.8L25,22c0.1,5.7,2.1,9.8,5.5,12.7
				c2.8,2.4,5.8,5.5,7.5,9.1H10c1.7-3.5,4.7-6.7,7.5-9.1C20.9,31.8,22.9,27.7,23,22z"/>
		</g>
	</g>
</g>
</svg>
