<?xml version="1.0" encoding="utf-8"?>
<!-- Generator: Adobe Illustrator 18.0.0, SVG Export Plug-In . SVG Version: 6.00 Build 0)  -->
<!DOCTYPE svg PUBLIC "-//W3C//DTD SVG 1.1//EN" "http://www.w3.org/Graphics/SVG/1.1/DTD/svg11.dtd">
<svg version="1.1" id="Layer_1" xmlns="http://www.w3.org/2000/svg" xmlns:xlink="http://www.w3.org/1999/xlink" x="0px" y="0px"
	 viewBox="0 0 48 48" enable-background="new 0 0 48 48" xml:space="preserve">
<g>
	<g>
		
			<rect x="-1.2" y="35.2" transform="matrix(0.7071 -0.7071 0.7071 0.7071 -24.0485 18.1564)" fill="#FFD15D" width="22.2" height="5.8"/>
		<g>
			<circle fill="#F3F3F3" cx="29.5" cy="18.5" r="18.5"/>
			<path fill="#8BD7F8" d="M24.9,4.6c2.8-1.4,5.7-1.9,8.2-1.8c2.5,0.1,4.7,0.8,6.4,1.5c1.7,0.8,2.9,1.6,3.7,2.2c0.8,0.6,1.2,1,1.2,1
				S44,7.2,43.3,6.5c-0.8-0.7-1.9-1.6-3.6-2.5c-1.7-0.9-3.9-1.7-6.5-1.9c-1.3-0.2-2.7-0.1-4.2,0.1c-1.5,0.3-3,0.7-4.5,1.4
				c-3,1.4-5.9,3.8-7.6,7.4c-1.7,3.5-2,7.9-0.4,11.8c0.8,2,2,3.8,3.6,5.3c0.5,0.4,0.8,0.7,1.3,1c0.5,0.3,1,0.7,1.5,0.9
				c1,0.6,2.1,0.9,3.2,1.2c4.4,1,9.4-0.5,12.5-4c0.5-0.5,0.7-0.8,1-1.3c0.3-0.5,0.6-1.1,0.9-1.6c0.5-1.1,0.8-2.2,0.9-3.4
				c0.2-2.3-0.3-4.7-1.4-6.7c-1.1-2-2.7-3.6-4.8-4.7c-2-1-4.4-1.3-6.5-0.8c-2.2,0.5-4.1,1.7-5.4,3.4c-1.3,1.7-1.8,3.9-1.5,5.9
				c0.5,4,4,7.1,7.6,7.1c3.6,0.1,6.4-2.8,6.5-5.6c0.1-2.8-1.7-5-3.5-5.7c-1.8-0.7-3.5-0.2-4.3,0.3c-0.4,0.3-0.7,0.5-0.9,0.7
				c-0.2,0.2-0.3,0.3-0.3,0.3s0.1-0.1,0.3-0.3c0.2-0.2,0.5-0.4,0.9-0.7c0.8-0.5,2.4-0.8,4.1-0.1c1.6,0.7,3.1,2.8,2.9,5.3
				c-0.2,2.4-2.8,4.7-5.7,4.5c-3,0-5.8-2.8-6.1-6.1c-0.2-1.6,0.3-3.4,1.4-4.7c1.1-1.3,2.6-2.4,4.4-2.7c1.8-0.4,3.7-0.1,5.3,0.7
				c1.6,0.8,3.1,2.3,4,3.9c1.9,3.4,1.5,7.9-1.2,10.7c-2.6,3-6.8,4.3-10.6,3.5c-3.8-0.8-6.9-3.8-8.3-7.2c-1.4-3.5-1.3-7.4,0.1-10.6
				C19.5,8.4,22.2,6,24.9,4.6z"/>
		</g>
	</g>
</g>
</svg>
