<?xml version="1.0" encoding="utf-8"?>
<!-- Generator: Adobe Illustrator 18.0.0, SVG Export Plug-In . SVG Version: 6.00 Build 0)  -->
<!DOCTYPE svg PUBLIC "-//W3C//DTD SVG 1.1//EN" "http://www.w3.org/Graphics/SVG/1.1/DTD/svg11.dtd">
<svg version="1.1" id="Layer_1" xmlns="http://www.w3.org/2000/svg" xmlns:xlink="http://www.w3.org/1999/xlink" x="0px" y="0px"
	 viewBox="0 0 48 48" enable-background="new 0 0 48 48" xml:space="preserve">
<g>
	<path fill="#334A5E" d="M39.4,45.9H8.6c-1.1,0-2-0.9-2-2V2c0-1.1,0.9-2,2-2h30.8c1.1,0,2,0.9,2,2v41.9C41.4,45,40.5,45.9,39.4,45.9
		z"/>
	<rect x="10" y="45.9" fill="#ACB3BA" width="27.9" height="2.1"/>
	<g>
		<circle fill="#ACB3BA" cx="10.5" cy="3.9" r="0.9"/>
		<circle fill="#ACB3BA" cx="37.5" cy="3.9" r="0.9"/>
	</g>
	<g>
		<circle fill="#ACB3BA" cx="10.5" cy="42" r="0.9"/>
		<circle fill="#ACB3BA" cx="37.5" cy="42" r="0.9"/>
	</g>
	<circle fill="#40596B" cx="24" cy="30.6" r="11.4"/>
	<path fill="#334A5E" d="M24,39.5c-4.9,0-8.9-4-8.9-8.9c0-4.9,4-8.9,8.9-8.9c4.9,0,8.9,4,8.9,8.9C32.9,35.5,28.9,39.5,24,39.5z"/>
	<circle fill="#40596B" cx="24" cy="9.6" r="7.3"/>
	<path fill="#334A5E" d="M24,14.4c-2.6,0-4.8-2.1-4.8-4.8c0-2.6,2.1-4.8,4.8-4.8c2.6,0,4.8,2.1,4.8,4.8C28.8,12.3,26.6,14.4,24,14.4
		z"/>
	<circle fill="#FFD15C" cx="24" cy="9.6" r="2.3"/>
	<path fill="#FFD15C" d="M24,34.5c-2.1,0-3.9-1.7-3.9-3.9c0-2.1,1.7-3.9,3.9-3.9c2.1,0,3.9,1.7,3.9,3.9C27.9,32.8,26.1,34.5,24,34.5
		z"/>
</g>
</svg>
