<?xml version="1.0" encoding="utf-8"?>
<!-- Generator: Adobe Illustrator 18.0.0, SVG Export Plug-In . SVG Version: 6.00 Build 0)  -->
<!DOCTYPE svg PUBLIC "-//W3C//DTD SVG 1.1//EN" "http://www.w3.org/Graphics/SVG/1.1/DTD/svg11.dtd">
<svg version="1.1" id="Layer_1" xmlns="http://www.w3.org/2000/svg" xmlns:xlink="http://www.w3.org/1999/xlink" x="0px" y="0px"
	 viewBox="0 0 48 48" enable-background="new 0 0 48 48" xml:space="preserve">
<g>
	<g>
		<g>
			<path fill="#415A6B" d="M0,45L0,3c0-1.7,1.3-3,3-3l42,0c1.7,0,3,1.3,3,3l0,42c0,1.7-1.3,3-3,3L3,48C1.3,48,0,46.7,0,45z"/>
			<rect x="4" y="12.8" fill="#FFFFFF" width="40" height="22.5"/>
			<g>
				<g>
					<rect x="37.1" y="4" fill="#FFFFFF" width="6.9" height="4.8"/>
				</g>
				<g>
					<rect x="26" y="4" fill="#FFFFFF" width="6.9" height="4.8"/>
				</g>
				<g>
					<rect x="15" y="4" fill="#FFFFFF" width="6.9" height="4.8"/>
				</g>
				<g>
					<rect x="4" y="4" fill="#FFFFFF" width="6.9" height="4.8"/>
				</g>
			</g>
			<g>
				<g>
					<rect x="37.1" y="39.2" fill="#FFFFFF" width="6.9" height="4.8"/>
				</g>
				<g>
					<rect x="26" y="39.2" fill="#FFFFFF" width="6.9" height="4.8"/>
				</g>
				<g>
					<rect x="15" y="39.2" fill="#FFFFFF" width="6.9" height="4.8"/>
				</g>
				<g>
					<rect x="4" y="39.2" fill="#FFFFFF" width="6.9" height="4.8"/>
				</g>
			</g>
		</g>
		<circle fill="#F3705A" cx="24" cy="24" r="8.1"/>
		<polygon fill="#FFFFFF" points="22,19.3 22,28.7 27.7,24 		"/>
	</g>
</g>
</svg>
