<?xml version="1.0" encoding="utf-8"?>
<!-- Generator: Adobe Illustrator 18.0.0, SVG Export Plug-In . SVG Version: 6.00 Build 0)  -->
<!DOCTYPE svg PUBLIC "-//W3C//DTD SVG 1.1//EN" "http://www.w3.org/Graphics/SVG/1.1/DTD/svg11.dtd">
<svg version="1.1" id="Layer_1" xmlns="http://www.w3.org/2000/svg" xmlns:xlink="http://www.w3.org/1999/xlink" x="0px" y="0px"
	 viewBox="0 0 48 48" enable-background="new 0 0 48 48" xml:space="preserve">
<g>
	<g>
		<g>
			<path fill="#E8EAE9" d="M8.3,39.5c-4.6,0-8.3-3.7-8.3-8.3c0-3.6,2.3-6.7,5.5-7.8c-1.4-5.3,1.1-11,6.2-13.6
				C17.3,7,24.2,9,27.4,14.3c2.2-1.1,4.8-1.3,7.3-0.4c3.8,1.4,6.1,5.1,6,9c4.1,0.5,7.4,4,7.4,8.2c0,4.6-3.7,8.3-8.3,8.3H8.3z"/>
		</g>
		<g>
			<path fill="#415A6B" d="M16.5,29.8c1.1,0,2-0.4,2.6-1.3l1.4,1.4c-1.1,1.3-2.4,1.9-3.9,1.9s-2.8-0.5-3.7-1.4c-1-1-1.5-2.2-1.5-3.6
				c0-1.5,0.5-2.7,1.5-3.6c1-1,2.2-1.5,3.7-1.5c1.6,0,3,0.6,4,1.8l-1.4,1.5c-0.7-0.9-1.6-1.3-2.6-1.3c-0.8,0-1.5,0.3-2.1,0.8
				s-0.9,1.3-0.9,2.2c0,0.9,0.3,1.6,0.8,2.2C15.1,29.6,15.7,29.8,16.5,29.8z"/>
			<path fill="#415A6B" d="M30.3,30.4c-1,1-2.2,1.5-3.7,1.5S24,31.4,23,30.4c-1-1-1.5-2.2-1.5-3.6s0.5-2.6,1.5-3.6
				c1-1,2.2-1.5,3.7-1.5s2.7,0.5,3.7,1.5c1,1,1.5,2.2,1.5,3.6S31.3,29.4,30.3,30.4z M29.6,26.8c0-0.9-0.3-1.6-0.8-2.2
				c-0.6-0.6-1.3-0.9-2.1-0.9c-0.8,0-1.5,0.3-2.1,0.9c-0.6,0.6-0.8,1.4-0.8,2.2c0,0.9,0.3,1.6,0.8,2.2c0.6,0.6,1.2,0.9,2.1,0.9
				c0.8,0,1.5-0.3,2.1-0.9C29.3,28.4,29.6,27.7,29.6,26.8z"/>
			<path fill="#415A6B" d="M35.2,28.8c0.1-0.2,0.2-0.3,0.2-0.5c0-0.2-0.1-0.3-0.2-0.4c-0.1-0.1-0.2-0.2-0.4-0.2
				c-0.3,0-0.6,0.2-0.9,0.7l-0.9-0.5c0.2-0.4,0.5-0.6,0.7-0.8s0.6-0.3,1-0.3s0.8,0.1,1.1,0.4c0.3,0.3,0.5,0.6,0.5,1.1
				c0,0.2-0.1,0.5-0.2,0.7c-0.1,0.2-0.4,0.5-0.7,0.9l-0.9,0.9h1.9v1h-3.4V31l1.4-1.5C34.9,29.2,35.1,29,35.2,28.8z"/>
		</g>
	</g>
</g>
</svg>
