<?xml version="1.0" encoding="utf-8"?>
<!-- Generator: Adobe Illustrator 19.0.1, SVG Export Plug-In . SVG Version: 6.00 Build 0)  -->
<svg version="1.1" id="Layer_1" xmlns="http://www.w3.org/2000/svg" xmlns:xlink="http://www.w3.org/1999/xlink" x="0px" y="0px"
	 viewBox="0 0 48 48" style="enable-background:new 0 0 48 48;" xml:space="preserve">
<style type="text/css">
	.st0{fill:#66C6B9;}
	.st1{fill:#F3F3F3;}
	.st2{fill:#415A6B;}
	.st3{fill:#CED6E0;}
	.st4{fill:#F3705A;}
	.st5{fill:#E8EAE9;}
	.st6{fill:#4ABAA5;}
	.st7{fill:#F05540;}
	.st8{fill:#FFD15C;}
	.st9{fill:#55C0EB;}
	.st10{fill:#8AD7F8;}
	.st11{fill:#344A5E;}
	.st12{fill:#FFFFFF;}
	.st13{fill:#F7B64C;}
	.st14{fill:#ADB3BA;}
	.st15{fill:#38A892;}
	.st16{fill:#ED9845;}
	.st17{fill:#2D4251;}
	.st18{fill:#304556;}
	.st19{fill:#A5AAAD;}
	.st20{fill:#2D4456;}
	.st21{fill:#4FB0E0;}
	.st22{fill:#2D4354;}
	.st23{fill:#E54C38;}
	.st24{fill:#2B4456;}
	.st25{fill:#2B404F;}
</style>
<g>
	<g>
		<g>
			<g>
				<g>
					<path class="st5" d="M45.1,5.2v27.6c0,1.7-1.3,3-3,3H5.9c-1.7,0-3-1.3-3-3V5.2H45.1z"/>
				</g>
				<path class="st2" d="M45.4,0H2.6C1.2,0,0,1.2,0,2.6s1.2,2.6,2.6,2.6h42.8C46.8,5.2,48,4,48,2.6S46.8,0,45.4,0z"/>
			</g>
			<g>
				<g>
					<path class="st0" d="M13.8,32.7c-0.1,0-0.3,0-0.4-0.1c-0.2-0.2-0.2-0.5,0-0.7l9.1-9.1c0.2-0.2,0.5-0.2,0.7,0s0.2,0.5,0,0.7
						l-9.1,9.1C14.1,32.6,14,32.7,13.8,32.7z"/>
				</g>
				<g>
					<g>
						<path class="st14" d="M8.4,32.3c-0.1,0-0.3-0.1-0.4-0.2c-0.2-0.2-0.1-0.5,0.1-0.7l8.2-6.7c0.2-0.2,0.5-0.1,0.7,0.1l3.6,4.1
							l8.6-7.1c0.2-0.2,0.5-0.1,0.7,0.1c0.2,0.2,0.1,0.5-0.1,0.7l-9,7.4c-0.2,0.2-0.5,0.1-0.7-0.1l-3.6-4.1l-7.8,6.4
							C8.6,32.2,8.5,32.3,8.4,32.3z"/>
					</g>
				</g>
				<g>
					<g>
						<path class="st0" d="M27.5,28.2c-0.1,0-0.3,0-0.4-0.1c-0.2-0.2-0.2-0.5,0-0.7l9.2-9.2c0.2-0.2,0.5-0.2,0.7,0s0.2,0.5,0,0.7
							l-9.2,9.2C27.7,28.2,27.6,28.2,27.5,28.2z"/>
					</g>
					<g>
						<path class="st0" d="M27.5,28.2c-0.1,0-0.3,0-0.4-0.1l-4.6-4.6c-0.2-0.2-0.2-0.5,0-0.7s0.5-0.2,0.7,0l4.6,4.6
							c0.2,0.2,0.2,0.5,0,0.7C27.7,28.2,27.6,28.2,27.5,28.2z"/>
					</g>
				</g>
				<g>
					<g>
						<path class="st14" d="M32.7,26.9C32.7,26.9,32.7,26.9,32.7,26.9c-0.2,0-0.3-0.1-0.4-0.2L29,22.5c-0.2-0.2-0.1-0.5,0.1-0.7
							c0.2-0.2,0.5-0.1,0.7,0.1l2.9,3.8l6.6-6.1c0.2-0.2,0.5-0.2,0.7,0c0.2,0.2,0.2,0.5,0,0.7l-7,6.5C32.9,26.8,32.8,26.9,32.7,26.9
							z"/>
					</g>
				</g>
			</g>
			<g>
				<g>
					<rect x="6" y="15.9" class="st4" width="2.6" height="4.3"/>
				</g>
				<g>
					<rect x="10.9" y="11.8" class="st8" width="2.6" height="8.4"/>
				</g>
				<g>
					<rect x="15.8" y="14.1" class="st2" width="2.6" height="6.1"/>
				</g>
				<g>
					<rect x="20.8" y="8.7" class="st9" width="2.6" height="11.5"/>
				</g>
			</g>
		</g>
		<g>
			<g>
				<path class="st7" d="M26.4,48c0.7-6,0.1-12.4-5.2-13.3c0,0-1.8,1.2-2.7,5.7c-0.5,2.9-1.3,5.6-1.8,7.6H26.4z"/>
			</g>
			<g>
				<path class="st7" d="M48,48c-0.1-1.2-0.1-2.5-0.2-3.6c-0.2-4.1-1.8-7.9-1.8-7.9c-5.4,1.9-6.3,7.2-6.1,11.5H48z"/>
			</g>
			<g>
				<path class="st2" d="M32.8,26.3c0,3.7-1,6.7-2.3,6.7c-3.7,0-0.4-3.9-2.3-6.7c0-3.7,1-6.7,2.3-6.7C31.7,19.6,32.8,22.6,32.8,26.3
					z"/>
			</g>
			<g>
				<path class="st2" d="M40.4,26.5c0,3.3-1,8.8-2.2,8.8c-1.2,0-2.2-5.5-2.2-8.8s1-6.1,2.2-6.1C39.5,20.4,40.4,23.1,40.4,26.5z"/>
			</g>
			<g>
				<path class="st8" d="M38.3,19.6c0,0,1.4,5.8-0.7,9.5c0,0-0.9,2.9,1.2,4.3l-5.1,12.5L28.1,33c0,0,2.2-2.3,2.2-4.9
					c0,0-1.6-4.8-1.4-8.3s4.5-4.6,5.3-4.6S38.3,19.6,38.3,19.6z"/>
			</g>
			<path class="st13" d="M37.5,29c-0.2,0.4-2.2,2.1-4.1,1.8c-1.9-0.3-3.1-2.7-3.1-2.7c0.1,2.5-2.2,4.9-2.2,4.9l0,0
				c1,0,2.4-0.1,4.1-0.4C36.5,31.7,37.5,29,37.5,29z"/>
			<g>
				<path class="st4" d="M23.5,40.8c0,1.5-0.2,4.2-0.3,7.2h18.6c0.5-5.3,1.6-10,4.3-11.5c0,0-1.5-1.4-3.7-2.2
					c-2-0.8-4.5-2.4-4.9-2.6c0,3.4-4.1,6.2-4.1,6.2s-4.1-2.8-4.1-6.2h-0.2c0,0-1.1,0.8-3,1.1c-2,0.4-4.4,1.6-5,1.9
					C21.1,34.7,23.6,36.6,23.5,40.8z"/>
			</g>
			<g>
				<path class="st2" d="M32,17.4c0,0,1-0.5,2.1,0c1.1,0.5,3.1,3,4.3,3.6c1.2,0.6,0,6.7,0.3,8.3c0.3,1.6,0.5,4.5,2.4,6.1
					c0,0-0.9-1.1-0.9-2.1c0,0,0.6,0.7,2.3,1.4c1.8,0.7,1.8,0.7,1.8,0.7s-1.6-1-2.3-2.1c-0.8-1.1-1.2-2.6-0.8-4.5
					c0.4-1.9,0.5-5-0.3-8.5C40,16.8,39.1,16,37,14.7s-4.7-1.1-5.8-0.2c-1.1,0.9-2.6,2.4-3.3,4.6s-1,6.4-0.1,7.9
					c0.9,1.6,0.3,5.5-3.7,6.9c0,0,3.7-0.2,5.2-2.2c1.4-2,0-5,0-7.1S29.6,18.1,32,17.4z"/>
			</g>
		</g>
	</g>
</g>
</svg>
