<?xml version="1.0" encoding="utf-8"?>
<!-- Generator: Adobe Illustrator 19.0.1, SVG Export Plug-In . SVG Version: 6.00 Build 0)  -->
<svg version="1.1" id="Layer_1" xmlns="http://www.w3.org/2000/svg" xmlns:xlink="http://www.w3.org/1999/xlink" x="0px" y="0px"
	 viewBox="0 0 48 48" style="enable-background:new 0 0 48 48;" xml:space="preserve">
<style type="text/css">
	.st0{fill:#66C6B9;}
	.st1{fill:#F3F3F3;}
	.st2{fill:#415A6B;}
	.st3{fill:#CED6E0;}
	.st4{fill:#F3705A;}
	.st5{fill:#E8EAE9;}
	.st6{fill:#4ABAA5;}
	.st7{fill:#F05540;}
	.st8{fill:#FFD15C;}
	.st9{fill:#55C0EB;}
	.st10{fill:#8AD7F8;}
	.st11{fill:#344A5E;}
	.st12{fill:#FFFFFF;}
	.st13{fill:#F7B64C;}
	.st14{fill:#ADB3BA;}
	.st15{fill:#38A892;}
	.st16{fill:#ED9845;}
	.st17{fill:#2D4251;}
	.st18{fill:#304556;}
	.st19{fill:#A5AAAD;}
	.st20{fill:#2D4456;}
	.st21{fill:#4FB0E0;}
	.st22{fill:#2D4354;}
	.st23{fill:#E54C38;}
	.st24{fill:#2B4456;}
	.st25{fill:#2B404F;}
</style>
<g>
	<g>
		<g>
			<g>
				<polygon class="st14" points="19.4,38.7 17.6,43.9 30.4,43.9 28.6,38.7 				"/>
			</g>
			<g>
				<path class="st5" d="M48,3.6v32.8c0,1.5-1.2,2.7-2.7,2.7H2.7c-1.5,0-2.7-1.2-2.7-2.7V3.6c0-1.5,1.2-2.7,2.7-2.7h42.6
					C46.8,0.9,48,2.1,48,3.6z"/>
				<g>
					<path class="st3" d="M0,31.4v5c0,1.5,1.2,2.7,2.7,2.7h42.6c1.5,0,2.7-1.2,2.7-2.7v-5H0z"/>
				</g>
				<g>
					<rect x="3.3" y="4.1" class="st9" width="41.5" height="27.3"/>
				</g>
			</g>
			<g>
				<path class="st3" d="M34.5,47.1c-2-2.9-5.7-5.1-10.5-5.1c-4.8,0-8.6,2.1-10.5,5.1H34.5z"/>
			</g>
			<circle class="st14" cx="24" cy="35.4" r="1.4"/>
		</g>
		<g>
			<circle class="st12" cx="27.2" cy="17.5" r="9.2"/>
			<g>
				<g>
					<path class="st0" d="M32.1,26.6c0.2-0.1,0.3-0.1,0.5-0.2c0-0.2,0-0.3,0-0.4c0.1-0.5,0-1.6-0.2-2.3c-0.1-0.8-0.8-1.2-0.8-1.2
						l-0.8-0.1l1.3,3.8C32.2,26.2,32.2,26.3,32.1,26.6z"/>
				</g>
				<g>
					<path class="st3" d="M31.4,26.9c0.3-0.1,0.5-0.2,0.8-0.3l0.2-1l-2.5-4.9l-0.9,0.1h-3.3l2.8,6.8C29.3,27.4,30.3,27.2,31.4,26.9z
						"/>
				</g>
				<g>
					<path class="st8" d="M26,15.9c0,0-0.1,1.3,0.1,2.1L25.3,20l3.9,2.1l0.4-2.3v-0.9c0,0,1.1-1.1,1.2-2.7c0-1.6,0-1.6,0-1.6l0,0
						c0,0,0.2-1.8-0.6-2.5c-0.8-0.7-2.9-0.6-3.5-0.2C26.2,12.3,26,15.9,26,15.9z"/>
					<g>
						<path class="st7" d="M28.7,23.9c0,0.4,0.2,2.1,0.4,3.5c0.5-0.1,1.1-0.2,1.6-0.4c0-0.2,0-0.4-0.1-0.5c-0.2-1-0.6-2.6-0.7-2.9
							c-0.1-0.3-0.4-1.5-0.4-1.5s-0.7-0.6-1.1-0.2l0.1,0.3C28.5,22.3,28.6,23.2,28.7,23.9z"/>
					</g>
					<g>
						<path class="st4" d="M29.6,21.4c0,0,0.1,0.5,0,0.7c0,0-0.9-0.3-1.1,0.1c0,0-0.4-0.6-0.8-0.7l1.1-0.8h0.8L29.6,21.4"/>
					</g>
					<path class="st13" d="M26.1,18.1c0,0,1.1,1.2,2,1.3c0.9,0.1,1.6-0.5,1.6-0.5v0.9l-0.1,0.8C28.7,20.4,26.7,19.6,26.1,18.1z"/>
					<g>
						<path class="st1" d="M28.8,20.8c0,0,0.7,0.3,0.8,0.8c0.1,0.5,0.1,0.7,0.1,0.7s-0.1-1.2,0-1.3c0-0.2,0-1.5-0.1-1.7
							c-0.1-0.2,0,0,0,0S29.6,19.9,28.8,20.8"/>
					</g>
				</g>
				<g>
					<g>
						<ellipse transform="matrix(0.9923 0.1241 -0.1241 0.9923 2.1651 -3.7013)" class="st8" cx="30.8" cy="15.5" rx="0.5" ry="1"/>
					</g>
					<g>
						
							<ellipse transform="matrix(-0.9923 0.1241 -0.1241 -0.9923 53.1337 27.7542)" class="st8" cx="25.7" cy="15.5" rx="0.5" ry="1"/>
					</g>
				</g>
				<g>
					<path class="st2" d="M30.8,15.3L30.8,15.3c-0.1-0.2-0.1-1.5-0.2-1.9c0-0.2-0.1-0.3-0.2-0.5c-0.2-0.3-0.6-0.5-0.9-0.4
						c-0.4,0.1-1,0.2-1.7,0c-0.2-0.1-0.5,0-0.7,0.1c-0.2,0.1-0.4,0.3-0.5,0.4c-0.2,0.3-0.4,1.7-0.4,2.3h-0.1c0-0.2,0-0.5-0.2-0.7
						c0,0-0.1-1.7,0.4-2.6c0.5-0.9,2.2-1.4,2.9-1.1c0.7,0.2,1.6,0.8,1.8,1.6c0,0,0.2,0.8,0.2,1.5C31,14.5,30.8,15.1,30.8,15.3z"/>
				</g>
				<g>
					<path class="st1" d="M26.1,18.1c0.5,0.9,1.5,1.8,2.7,2.7c-0.5,0.5-0.9,1-1.2,1.6l-2.4-2.9L26.1,18.1"/>
				</g>
				<g>
					<path class="st6" d="M31.6,26.5c0,0.1,0,0.2,0,0.3c0.3-0.1,0.5-0.2,0.8-0.3c0-0.4,0-0.7,0.1-1c0.1-1.3-0.7-3.1-0.7-3.1
						s-0.3-0.2-0.6-0.4c-0.3-0.2-0.9-0.8-0.9-0.8l-0.1-0.2c-0.3-0.6-0.5-1.2-0.5-1.8c-0.1,0.9,0,1.9,0.4,2.7
						C30.7,23.5,31.6,25.8,31.6,26.5z"/>
				</g>
				<g>
					<path class="st0" d="M22.4,27.5c-1.6-1.3-0.6-0.9,0.7-0.4c0.1-0.6,0.2-1,0.2-1l0.5-4.8c0,0-1.7-0.8-2.7-0.4
						c-1,0.3-1.4,2.8-1.4,3.2c0,0.3-0.2,1.1-0.4,1.8C20.4,26.1,21.4,26.7,22.4,27.5z"/>
				</g>
				<g>
					<path class="st6" d="M23.3,26.1c0,0-0.3,0.3-0.7,0.8c0.8,0.3,2,0.7,2.7,0.8c1.4,0.1,2.7,0,4.1-0.3c-0.3-0.9-0.6-1.8-0.7-2.2
						c-0.3-0.9-2.8-5.3-3-5.7c-0.1-0.5,0-0.6,0-0.6c-0.5,0.3-0.9,0.9-0.9,0.9s0,0-0.1,0c-0.1,0-3.6,1.2-3.6,1.2
						C23.1,20.5,23.3,26.1,23.3,26.1z"/>
				</g>
			</g>
			<g>
				<g>
					<path class="st11" d="M18.2,8.5c-4.9,4.9-4.9,13,0,17.9s13,4.9,17.9,0c4.9-4.9,4.9-13,0-17.9S23.2,3.6,18.2,8.5z M33.7,24
						c-3.6,3.6-9.4,3.6-13,0c-3.6-3.6-3.6-9.4,0-13c3.6-3.6,9.4-3.6,13,0C37.3,14.6,37.3,20.4,33.7,24z"/>
				</g>
				<g>
					<g>
						<path class="st4" d="M43.6,34.2C43.6,34.2,43.6,34.2,43.6,34.2c1.6-1.4,1.6-3.9,0.1-5.2c-1.9-1.7-4.1-3.6-5-3.8L34.9,29
							c0.2,0.9,2.1,3.2,3.8,5C39.9,35.4,42.2,35.5,43.6,34.2z"/>
					</g>
					<g>
						<path class="st2" d="M39.5,25.2l-4.6,4.6c-0.3,0.3-0.8,0.3-1.2,0l-0.3-0.3c-0.3-0.3-0.3-0.8,0-1.2l4.6-4.6
							c0.3-0.3,0.8-0.3,1.2,0l0.3,0.3C39.8,24.4,39.8,24.9,39.5,25.2z"/>
					</g>
				</g>
			</g>
		</g>
	</g>
</g>
</svg>
