<?xml version="1.0" encoding="utf-8"?>
<!-- Generator: Adobe Illustrator 18.0.0, SVG Export Plug-In . SVG Version: 6.00 Build 0)  -->
<!DOCTYPE svg PUBLIC "-//W3C//DTD SVG 1.1//EN" "http://www.w3.org/Graphics/SVG/1.1/DTD/svg11.dtd">
<svg version="1.1" id="Layer_1" xmlns="http://www.w3.org/2000/svg" xmlns:xlink="http://www.w3.org/1999/xlink" x="0px" y="0px"
	 viewBox="0 0 512 512" enable-background="new 0 0 512 512" xml:space="preserve">
<g>
	<path fill="#40596B" d="M414.1,2H97.9c-11.7,0-21.1,9.5-21.1,21.1v465.7c0,11.7,9.5,21.1,21.1,21.1h316.2
		c11.7,0,21.1-9.5,21.1-21.1V23.1C435.2,11.5,425.8,2,414.1,2z"/>
	<rect x="121.9" y="58.2" fill="#FFFFFF" width="268.2" height="346.2"/>
	<path fill="#ACB3BA" d="M309.6,37.6H202.4c-0.4,0-0.7-0.3-0.7-0.7V23.3c0-0.4,0.3-0.7,0.7-0.7h107.1c0.4,0,0.7,0.3,0.7,0.7v13.7
		C310.3,37.3,310,37.6,309.6,37.6z"/>
	<circle fill="#ACB3BA" cx="256" cy="457.2" r="28.4"/>
	<rect x="144.6" y="190.8" fill="#FFD15C" width="36.5" height="154.8"/>
	<rect x="206.6" y="154" fill="#FF7058" width="36.5" height="191.6"/>
	<rect x="268.7" y="228.4" fill="#84DBFF" width="36.5" height="117.2"/>
	<rect x="330.9" y="116.9" fill="#CDD6E0" width="36.5" height="228.7"/>
</g>
</svg>
