<?xml version="1.0" encoding="utf-8"?>
<!-- Generator: Adobe Illustrator 19.0.1, SVG Export Plug-In . SVG Version: 6.00 Build 0)  -->
<svg version="1.1" id="Layer_1" xmlns="http://www.w3.org/2000/svg" xmlns:xlink="http://www.w3.org/1999/xlink" x="0px" y="0px"
	 viewBox="0 0 48 48" style="enable-background:new 0 0 48 48;" xml:space="preserve">
<style type="text/css">
	.st0{fill:#66C6B9;}
	.st1{fill:#F3F3F3;}
	.st2{fill:#415A6B;}
	.st3{fill:#CED6E0;}
	.st4{fill:#F3705A;}
	.st5{fill:#E8EAE9;}
	.st6{fill:#4ABAA5;}
	.st7{fill:#F05540;}
	.st8{fill:#FFD15C;}
	.st9{fill:#55C0EB;}
	.st10{fill:#8AD7F8;}
	.st11{fill:#344A5E;}
	.st12{fill:#FFFFFF;}
	.st13{fill:#F7B64C;}
	.st14{fill:#ADB3BA;}
	.st15{fill:#38A892;}
	.st16{fill:#ED9845;}
	.st17{fill:#2D4251;}
	.st18{fill:#304556;}
	.st19{fill:#A5AAAD;}
	.st20{fill:#2D4456;}
	.st21{fill:#4FB0E0;}
	.st22{fill:#2D4354;}
	.st23{fill:#E54C38;}
	.st24{fill:#2B4456;}
	.st25{fill:#2B404F;}
</style>
<g>
	<g>
		<g>
			<g>
				<g>
					<path class="st11" d="M28.1,26.8c0,0,4,1.2,5.6,5c1.2,3,0.2,6.3,0.2,6.3s-4.6-7.2-4.7-7.3C29.2,30.7,28.1,26.8,28.1,26.8z"/>
				</g>
			</g>
			<g>
				<g>
					<g>
						<path class="st8" d="M17.4,17.2l0.4,1.1l0.1,2.6l8.7,6.7c0,0,0.2-2.2,0.4-2.7c0.2-0.5,0.1-0.6,0.7-0.8
							c0.6-0.2,1.4-1.2,1.7-1.8s0.9-1.5,1.3-2c0.4-0.5,1.2-3.6,1.1-5c-0.1-1.5,0.1-2.1,0.1-2.7s-0.1-0.9-0.1-0.9s0.3-4.2-0.7-6.4
							s-10.5-2-12,0.6S17.1,14.4,17.4,17.2z"/>
					</g>
				</g>
				<g>
					<g>
						<path class="st2" d="M17.2,5c0,0,1.4-4.1,8.1-4.9c6.5-0.8,7.6,4.5,6.4,5.6c0,0,1,1.2,0.7,3.2c-0.3,1.7-0.5,2.5-0.6,2.8
							c0-0.3,0-0.9-0.2-2.2C31.3,7.7,30.3,6,30.3,6S29,6.2,26.1,5.7c-2.8-0.5-4.5,0-4.5,1.1c0,1.1,0.6,1.8,0,2.8
							c-0.6,1-1.1,1.5-1.2,3.9c0,1.5-0.1,2-0.1,2.2h-0.8c0-0.5-0.1-1.9-0.6-2.5c-0.7-0.8-1.3,0-1.4,1c-0.1,1,0.2,4.1,0.2,4.1
							s-0.7-0.5-1-2.5C16.4,13.7,15.4,10.1,17.2,5z"/>
					</g>
				</g>
				<g>
					<g>
						
							<ellipse transform="matrix(-0.9689 0.2473 -0.2473 -0.9689 39.7382 24.9823)" class="st8" cx="18.3" cy="15" rx="1.4" ry="2.5"/>
					</g>
				</g>
				<g>
					<g>
						<path class="st13" d="M20.2,19.4c4.6,5.3,7,4.8,7.4,4.7c-0.5,0.2-0.5,0.3-0.7,0.8c-0.2,0.5-0.4,2.7-0.4,2.7
							c3.1,2.3,3,4.6,0.5,7c-4.1-1.9-6.5-4.9-4.9-10.4C20.9,21.6,20.2,19.4,20.2,19.4z"/>
					</g>
				</g>
				<g>
					<g>
						<path class="st3" d="M34.3,43.7c-0.9-5.1-4.2-11.8-4.2-11.8l-3.1-4.5l-1.3-1.2l-7.3,3.8l2.4,13.8H34.3z"/>
					</g>
				</g>
			</g>
			<g>
				<g>
					<path class="st11" d="M34,43.7l-1.2-7l-1.5-0.4c0,0,0.7,3.4,1.3,7.4H34z"/>
				</g>
			</g>
			<g>
				<g>
					<path class="st2" d="M32.7,40.3c0.2,0.7,0.4,1.9,0.6,3.4h1.9c-0.1-1.4-0.2-2.6-0.3-3.4c-0.6-3.6-2-6.5-2-6.5
						c-0.7-0.5-2.2-1.7-2.2-1.7l0.4-1.3l-2.7-3.1l-0.6,1.1c0,0,0.1,0.1,0.7,1.6C29.2,31.8,32.1,38.3,32.7,40.3z"/>
				</g>
			</g>
			<g>
				<g>
					<path class="st11" d="M12.4,31.2c1.3,2.7,1.7,7.2,1.6,9.2c0,0.5-0.5,1.8-1.1,3.4h12l-3.4-14.4l-5.2-6l-1.4,0.2
						c0,0-2.3,1.2-6.3,2.1c-4,0.9-4.6,1.9-4.6,1.9s1.4-0.7,3.2-0.8C9,26.7,11,28.4,12.4,31.2z"/>
				</g>
			</g>
			<g>
				<g>
					<path class="st1" d="M16.3,23c0,0,4.1,5,5.3,6c1.2,1,2.8,2.6,2.8,2.6c0-0.9,1.4-5.4,1.4-5.4s-4.7-3.3-6.1-4.2
						c-1.5-1-1.8-1.6-1.8-1.6C17,20.7,16.3,23,16.3,23z"/>
				</g>
			</g>
			<g>
				<g>
					<path class="st1" d="M27.1,24.6c-0.1,0-0.6,2.4-0.6,3.9c0.1,1.5,0.6,1.9,0.6,1.9s0.2-0.9,0.4-1.7c0-0.1,0.2-0.1,0.2,0
						c0,0.7-0.1,1.6,0.1,2.2c0.3,1.1,0.3,1.1,0.3,1.1s-0.1-1,0.1-1.9s0.9-1.8,0.5-2.7s-0.6-1.1-0.7-1.5
						C27.7,25.4,27.4,24.2,27.1,24.6z"/>
				</g>
			</g>
			<g>
				<g>
					<path class="st2" d="M17.3,29.3l2.9,1.5l-1,2c3,4.6,3.8,7.5,4.5,10.9h3c-0.3-4-1.2-5.8-2.7-10.4C22.1,27.8,18,22.7,17.7,22
						c-0.4-0.7-0.4-1.1-0.4-1.1c-0.9,0.1-0.5,0.9-1.2,1.4c-0.7,0.5-1.6,1.2-0.9,2.2C15.9,25.5,17.3,29.3,17.3,29.3z"/>
				</g>
			</g>
			<g>
				<g>
					<path class="st2" d="M13.7,43.7c0.2-2,0.2-3.4,0.2-3.4c0.2-1.9-0.2-6.4-1.6-9.2C11,28.4,9,26.7,7.2,26.8
						c-1.7,0.1-3.1,0.7-3.2,0.8c0,0,0,0,0,0l0,0c-3.5,1.9-3,8.6-3.4,10.6c-0.1,0.8-0.4,2.9-0.7,5.5H13.7z"/>
				</g>
			</g>
		</g>
		<g>
			<g>
				<circle class="st7" cx="44.9" cy="30.4" r="0.5"/>
				<g>
					<path class="st7" d="M45.3,30.4c0,0,0.3-0.8,1.2-0.6s0.6,2.1,0.6,2.1s-0.8,3.3-4.4,4.7l-0.5,0.9c0,0,4.2-1.2,5.6-5.5
						c0,0,0.8-2-0.8-3.1c-1.6-1-2.3,1.1-2.3,1.1L45.3,30.4z"/>
				</g>
			</g>
			<g>
				<circle class="st7" cx="35" cy="30.4" r="0.5"/>
				<g>
					<path class="st7" d="M34.6,30.4c0,0-0.3-0.8-1.2-0.6s-0.6,2.1-0.6,2.1s0.8,3.3,4.4,4.7l0.5,0.9c0,0-4.2-1.2-5.6-5.5
						c0,0-0.8-2,0.8-3.1c1.6-1,2.3,1.1,2.3,1.1L34.6,30.4z"/>
				</g>
			</g>
			<g>
				<path class="st4" d="M42.2,38c1.5-1.5,2.5-5,2.5-9c0-0.3,0-0.7,0-1h-9.5c0,0.3,0,0.7,0,1c0,4,1,7.5,2.5,9
					c0.5,0.5,0.8,1.3,0.8,2.1v0c0,0.9-0.4,1.1-1.1,1.7c-0.5,0.4-0.8,0.9-1,1.5h6.9c-0.2-0.6-0.5-1.1-1-1.5c-0.7-0.6-1.1-0.8-1.1-1.7
					v0C41.4,39.2,41.7,38.5,42.2,38z"/>
			</g>
			<g>
				<path class="st2" d="M44.2,43.5v4.1c0,0.2-0.2,0.4-0.4,0.4h-7.7c-0.2,0-0.4-0.2-0.4-0.4v-4.1c0-0.2,0.2-0.4,0.4-0.4h7.7
					C44,43.2,44.2,43.3,44.2,43.5z"/>
				<g>
					<rect x="36.9" y="44" class="st1" width="6.2" height="3.2"/>
				</g>
			</g>
			<g>
				<g>
					<rect x="37.5" y="44.8" class="st3" width="5" height="0.4"/>
				</g>
				<g>
					<rect x="37.5" y="46" class="st3" width="5" height="0.4"/>
				</g>
			</g>
		</g>
		<g>
			<g>
				<circle class="st7" cx="40" cy="32.3" r="2.7"/>
			</g>
			<g>
				<polygon class="st12" points="40,30.6 40.5,31.7 41.7,31.8 40.8,32.7 41,33.9 40,33.3 38.9,33.9 39.1,32.7 38.2,31.8 39.4,31.7 
									"/>
			</g>
		</g>
	</g>
</g>
</svg>
