<?xml version="1.0" encoding="utf-8"?>
<!-- Generator: Adobe Illustrator 18.0.0, SVG Export Plug-In . SVG Version: 6.00 Build 0)  -->
<!DOCTYPE svg PUBLIC "-//W3C//DTD SVG 1.1//EN" "http://www.w3.org/Graphics/SVG/1.1/DTD/svg11.dtd">
<svg version="1.1" id="Layer_1" xmlns="http://www.w3.org/2000/svg" xmlns:xlink="http://www.w3.org/1999/xlink" x="0px" y="0px"
	 viewBox="0 0 48 48" enable-background="new 0 0 48 48" xml:space="preserve">
<g>
	<g>
		<g>
			<g>
				<g>
					<path fill="#344A5E" d="M34.2,47.8c0,0,0.3-0.1,0.3-0.3c0,0,0-0.8-0.1-1c0-0.2-0.1-0.9-0.1-1.1c0-0.2-0.1-0.3-0.1-0.3l-2.2-0.1
						c0,0-0.3,1.3-0.4,1.5c-0.1,0.2-0.2,0.9-0.2,1c0,0.1,0,0.3,0,0.3l0.5,0.1C32.1,47.9,34,47.8,34.2,47.8z"/>
				</g>
			</g>
		</g>
		<g>
			<g>
				<g>
					<path fill="#425A6B" d="M31.6,47.4c0,0,0,0.2,0.2,0.3c0.1,0,0.1,0,0.1,0c0.1,0,0.2,0,0.3,0c0.4,0,1.1,0,1.2,0.1
						c0.2,0.1,0.9,0.2,1.1-0.2c0,0,0.1,0.3-0.3,0.4C33.8,48,33.3,48,33.1,48c-0.2,0-1.2,0-1.4,0C31.6,47.9,31.4,47.7,31.6,47.4z"/>
				</g>
			</g>
		</g>
	</g>
	<g>
		<g>
			<g>
				<g>
					<path fill="#425A6B" d="M23.6,45.5c0,0,0,0,0,0.1c0,0.1,0.9,0.3,1.1,0.4c0.2,0,1.9,0.1,2.3-0.1c0.4-0.2,1.1-0.5,1.3-0.5v0.2
						l0.4,0.2c0,0,1.5,0,1.6-0.2c0.1-0.2,0-0.7,0-0.7l-1.7-0.2L23.6,45.5z"/>
				</g>
			</g>
		</g>
		<g>
			<g>
				<g>
					<path fill="#344A5E" d="M23.6,45.5c0,0,0.6,0.2,0.9,0.2c0.2,0.1,2.2,0.2,2.7-0.1c0.5-0.3,1.1-0.5,1.6-0.5
						c0.4,0,1.4-0.1,1.5-0.2c0,0,0.2-1.4-0.4-1.7c-0.6-0.3-3.4,0.3-3.4,0.3l-0.3,0.5c0,0-0.5,0.7-1.2,0.8
						C24.3,44.9,23.6,44.9,23.6,45.5z"/>
				</g>
			</g>
		</g>
	</g>
	<g>
		<g>
			<g>
				<path fill="#425A6B" d="M30.1,29.1c0,0-0.3,2.5-0.3,3.1c0,0.6,0.2,5.3,0.2,5.9c0,0.5,0,3.1,0,3.8c0,0.6,0.2,1.4,0.2,1.4
					s-0.6,1.2-1.9,1c-1.3-0.2-2-0.3-2-0.3s0.5-1.4,0.3-2.1c-0.2-0.7-0.7-2.6-0.9-4.4c-0.2-1.8-0.4-11.1-0.4-11.1l0.6-4.6l2.9-0.3
					l1.6,6.9L30.1,29.1z"/>
			</g>
		</g>
	</g>
	<g>
		<g>
			<g>
				<path fill="#344A5E" d="M29.9,31c0.1-0.9,0.2-1.9,0.2-1.9l0.2-0.6l-0.7-3l-0.7,0.1C28.9,25.6,29.8,29.9,29.9,31z"/>
			</g>
		</g>
	</g>
	<g>
		<g>
			<g>
				<path fill="#425A6B" d="M29.3,26.3c0,0,0.3,1.8,0.6,2.8c0.3,0.9,0.5,5.2,0.5,5.7c0,0.5,0.7,9.8,0.9,10.4
					c0.2,0.7,0.2,0.7,0.2,0.7s1.2-0.6,2.2-0.5c0,0,0.6,0.1,0.6,0.3c0,0,0.6-0.6,0.4-1.6c-0.2-1-0.3-3.5-0.3-4.3s-0.2-6.1-0.5-7.1
					c-0.2-1-0.4-1.9-0.3-2.6c0-0.7,0.3-4.4,0.3-4.4L29.3,26.3z"/>
			</g>
		</g>
	</g>
	<g>
		<g>
			<g>
				<polygon fill="#67C5B8" points="27.5,7.4 29.1,7.4 29.9,8.4 27,12.8 26.6,10.2 				"/>
			</g>
		</g>
	</g>
	<g>
		<g>
			<g>
				<path fill="#344A5E" d="M27.1,7.5c0,0-0.8,0.5-1.1,0.6c-0.3,0.2-1.5,0.7-1.5,0.7l-0.2,0.3l-0.3,2.6L24,17.4l1.3,0.6
					c0,0-0.5,2.4-0.5,3c0,0.5,0.3,5.6,0.3,5.9c0,0,1,0.4,1.4-0.6c0.4-1,0.8-5.2,0.8-5.2l-0.4-8.9C26.9,12.2,27,7.9,27.1,7.5z"/>
			</g>
		</g>
	</g>
	<g>
		<g>
			<g>
				<path fill="#304556" d="M27.3,21c0,0-0.1,1.1-0.3,2.4c-0.2-0.9-0.4-2.1-0.6-3.5c-0.3-2.6-0.6-5-0.6-5.1l0-0.1l1-1.8L27.3,21z"/>
			</g>
		</g>
	</g>
	<g>
		<g>
			<g>
				<path fill="#E8EAE8" d="M24,17.4c0,0,1.4-0.1,1.4,0.8c0,0.9-0.6,1.5-0.7,1.5c0,0-0.1,0.1-0.1,0.1c-0.1,0-0.3-0.2-0.3-0.2
					c-0.1,0-0.3-0.5-0.3-0.5S23.8,17.7,24,17.4z"/>
			</g>
		</g>
	</g>
	<g>
		<g>
			<g>
				<path fill="#FFD15C" d="M25.3,17.8C25.3,17.8,25.3,17.8,25.3,17.8C25.3,17.8,25.3,17.8,25.3,17.8C25.3,17.8,25.3,17.8,25.3,17.8
					C25.3,17.8,25.3,17.8,25.3,17.8C25.3,17.9,25.3,17.9,25.3,17.8L25.3,17.8c-0.2,0.2-0.4,0.3-0.4,0.3s0,0,0,0
					c0,0.1-0.1,0.2-0.2,0.2c0,0,0,0,0,0c0,0-0.6,0.2-0.9,0.2c0-0.4,0-1,0.1-1.2c0,0,0.1-0.1,0.2-0.2c0,0,0,0,0.1-0.1c0,0,0,0,0,0
					c0,0,0,0,0,0c0,0,0,0,0,0c0,0,0,0,0,0v0c0,0,0-0.1,0-0.1l0.9,0.4C25.1,17.4,25.4,17.6,25.3,17.8z"/>
			</g>
		</g>
	</g>
	<g>
		<g>
			<g>
				<path fill="#425A6B" d="M24,17.4c0,0-0.1,1.2,0,1.7c0.2,0.5,0.4,0.9,0.6,0.7c0,0-0.1,0.2-0.2,0.1c-0.1-0.1-0.5-0.5-0.7-0.6
					c-0.2-0.1-0.4-0.7-0.6-0.8c-0.2-0.1-0.4-0.3-0.5-0.6c-0.1-0.3-0.1-1.3-0.1-1.5c0-0.2,0.3-0.9,0.4-1c0.1-0.2,0.4-1.3,0.4-1.6
					c0-0.2,0.4-2.8,0.4-3.1c0-0.3,0.3-1.1,0.4-1.4c0.1-0.3,0.4-0.5,0.4-0.5s-0.3,0.5-0.2,2.4c0.1,1.9,0.5,3.8,0.5,3.8
					s-0.2,0.7-0.3,1c-0.1,0.3-0.1,0.8-0.1,0.8L24,17.4z"/>
			</g>
		</g>
	</g>
	<g>
		<g>
			<g>
				<path fill="#344A5E" d="M24.5,16.8l-0.5,0.5c-0.1-0.1-0.1-0.1-0.2-0.1c0,0-0.1,0-0.1,0c-0.1,0-0.2,0-0.3,0c-0.2,0-0.3,0-0.4,0.2
					c0.1-0.2,0.3-0.3,0.4-0.3c0.1,0,0.1,0.1,0.2,0.1c0.1,0,0.2-0.1,0.1-0.1c0,0-0.1,0-0.1,0.1c0,0,0,0,0-0.1c-0.1,0-0.1,0-0.2,0
					c0-0.1,0.1-0.1,0.2-0.1c0,0,0,0,0,0c0,0,0,0,0-0.1c0,0,0,0,0.1-0.1c0,0,0.1,0,0.1,0c0.3,0,0.6-0.1,0.7-0.4
					C24.5,16.6,24.5,16.8,24.5,16.8z"/>
			</g>
		</g>
	</g>
	<g>
		<g>
			<g>
				<path fill="#425A6B" d="M32.2,11.2c0,0,0.6,3.1,0.5,3.6c0,0-0.5-0.1-1,0c-0.4,0.1-2.2,0.2-2.2,0.2s1.3,3.1,0.3,3.3
					c0,0,2.1-0.1,3.3-0.4c1.2-0.3,2.4-0.6,2.6-0.8c0.2-0.2,0.3-1.1,0.3-2c0-0.9-0.4-3.9-0.4-4.3c0-0.5,0-0.9,0-1.3
					c0-0.5-0.5-2.3-1.3-2.4C33.6,7.1,31.7,8.8,32.2,11.2z"/>
			</g>
		</g>
	</g>
	<g>
		<g>
			<g>
				<path fill="#344A5E" d="M32.5,9.8c-0.4,0.7,0,3.1,0,3.1s0.8,2.2,1.9,4.7l0.9,8.5c0,0-2.2,0.2-3,0.4c-0.8,0.2-3.2,0.8-4.2-0.6
					c-1-1.3-1.9-11.1-1.9-11.1l4-6.9l1.3-1.3c0,0,2.6,0.6,2.9,0.7C33.7,7.9,33,8.7,32.5,9.8z"/>
			</g>
		</g>
	</g>
	<g>
		<g>
			<g>
				<path fill="#E8EAE8" d="M29.9,18.4c0,0-1.4-0.7-0.3-3.3c0,0,0.9,0.7,1.1,1.3C30.9,17.1,30.8,18.3,29.9,18.4z"/>
			</g>
		</g>
	</g>
	<g>
		<g>
			<g>
				<path fill="#FFD15C" d="M28.2,8.2c0,0,0.2-0.7-0.2-0.9c0,0-0.1-0.1-0.2-0.1c-0.4-0.2-1-0.6-1-0.6s-0.5,0-0.5-0.4
					c0-0.4-0.1-0.6-0.1-0.7c-0.1-0.1,0-0.2,0.1-0.2c0,0-0.2,0-0.2-0.2c0,0,0-0.3-0.1-0.5c0,0-0.3,0.1-0.4-0.1c-0.1-0.3,0-0.8,0.2-1
					c0,0,0.1-0.2-0.1-0.3c-0.1-0.1,0-1.7,0.8-2.1c0.8-0.4,1.5-0.4,1.5-0.4l1.2,0.7c0,0,1.6,1.2,1.1,2.9l0.1,0.7c0,0-0.1,0.5,0,0.9
					L28.2,8.2z"/>
			</g>
		</g>
	</g>
	<g>
		<g>
			<g>
				<g>
					<path fill="#F05640" d="M28.3,8.2l-0.1,0.2l-0.1,2.3l-1,1.9L27,10.5c0,0,0.6-1.5,0.6-1.8c0.1-0.2,0.1-0.7,0.1-0.7l0.1-0.2
						L28.3,8.2z"/>
				</g>
			</g>
		</g>
		<g>
			<g>
				<g>
					<path fill="#F26F5A" d="M27.7,8.1c0,0,0.5,0.1,0.5,0.3l0.6-0.6l-0.6-0.5l-0.5,0.1C27.8,7.3,27.7,7.9,27.7,8.1z"/>
				</g>
			</g>
		</g>
	</g>
	<g>
		<g>
			<g>
				<g>
					<path fill="#344A5E" d="M13.1,45.1l2,0.3l0.1-0.4c0,0,0.5,0,0.8,0.2c0.3,0.2,1.4,0.5,1.7,0.5c0.3,0,0.3-0.5,0.3-0.5l-2.3-1
						C15.9,44.4,13.2,44.5,13.1,45.1z"/>
				</g>
			</g>
		</g>
		<g>
			<g>
				<g>
					<path fill="#344A5E" d="M14.8,44.4c0,0,1,0.5,1.4,0.7c0.4,0.2,1.8,0.4,1.8,0.4l-1-1.6L14.8,44.4z"/>
				</g>
			</g>
		</g>
		<g>
			<g>
				<g>
					<g>
						<path fill="#344A5E" d="M19.9,46.7l0.2-0.1c0,0-0.1-1.1-0.4-1.3c-0.3-0.2-0.5-0.2-0.5-0.2l-2,0.3l-0.1,0.2l0.1,0.4
							c0,0,0.1,0.3,0.1,0.4s0.6,0.3,0.7,0.3C18.2,46.8,19.9,46.7,19.9,46.7z"/>
					</g>
				</g>
			</g>
			<g>
				<g>
					<g>
						<path fill="#425A6B" d="M17.1,45.7l0.2,0.3c0,0,0,0.3,0.1,0.5c0.1,0.2,1,0.2,1.2,0.2c0.2,0,1.2-0.1,1.4,0l0,0
							c0,0.1-0.1,0.3-0.3,0.3c-0.4,0-1.1,0.1-1.5,0c-0.3,0-0.6,0-0.8-0.1c-0.2-0.1-0.3-0.3-0.3-0.4l0,0c0-0.1,0-0.1,0-0.1L17.2,46
							c0,0,0-0.1,0-0.2V45.7z"/>
					</g>
				</g>
			</g>
		</g>
		<g>
			<g>
				<g>
					<path fill="#425A6B" d="M20.7,23.6c0,0,0,0.1,0,0.2c-0.1,0.8-0.9,5.5-1.5,7C18.5,32.5,17,42.9,17,42.9l0.3,1.1
						c0,0-1.4,1.3-4.1,1.1c0,0-0.2-2,0-4.2c0.2-2.2,1-5.1,1.4-5.9c0.4-0.8,0.7-2.9,0.7-3.4c-0.1-0.5,0.9-2.5,0.9-2.5l1.5-8.2
						l2.5-0.6C21.2,19.8,21.2,21.4,20.7,23.6z"/>
				</g>
			</g>
		</g>
		<g>
			<g>
				<g>
					<path fill="#344A5E" d="M18.2,24.8l0.1-1.3l-1-0.8l0.7,13.4c0.4-2.4,0.8-4.6,1.1-5.3c0.1-0.4,0.3-0.9,0.4-1.6
						C19.2,27.8,18.7,25.9,18.2,24.8z"/>
				</g>
			</g>
		</g>
		<g>
			<g>
				<path fill="#344A5E" d="M17.1,30.6c-0.2-0.6-0.4-1.1-0.8-1.5c-0.1-0.1-0.1-0.1-0.2-0.2l0,0.1c0,0-0.4,0.8-0.6,1.5
					c0.3,0.7,0.5,1.4,0.5,2.2c0,1-0.1,2.1-0.1,3.1c0,1.5,0.3,3.1,0.6,4.6c0.2,1.3,0.4,2.7,0.2,4c0.4-0.2,0.6-0.4,0.6-0.4L17,42.9
					c0,0,0.5-3.7,1.1-7C18,34.1,17.6,32.3,17.1,30.6z"/>
			</g>
		</g>
		<g>
			<g>
				<g>
					<path fill="#425A6B" d="M20.2,43.2c-0.1,0.8-0.3,2.3-0.3,2.3s-0.3,0-1.1-0.1c-0.8-0.1-1.5,0.5-1.5,0.5
						c-0.2-0.7-0.4-1.7-0.4-1.7s0.3-2.7,0-4.7c-0.3-2-0.4-6.1-0.3-6.4c0.1-0.4,0-0.9,0-0.9s-0.6-2-1.9-4.5c-1.3-2.4-1.5-4.6-1.5-4.6
						l0.9-2.3h0.1l3.9,2.9c0,0,1.4,6.7,1.8,7.5c0.4,0.8,0.2,2,0.3,2.6c0,0.6-0.1,4.3-0.1,4.8C20.1,39.1,20.3,42.5,20.2,43.2z"/>
				</g>
			</g>
		</g>
		<g>
			<g>
				<g>
					<path fill="#344A5E" d="M21.3,15.5c0,0,0.1,0.3,0.5,0.5c0.4,0.2,0.9,0.7,0.9,0.7l-0.4,0.7c0,0-1,0-1,0
						C21.4,17.4,21,16.1,21.3,15.5z"/>
				</g>
			</g>
		</g>
		<g>
			<g>
				<g>
					<path fill="#425A6B" d="M14.4,8.7c0,0-0.6-0.1-1.2,1c-0.6,1.1-1,3.8-1.1,4.2c-0.1,0.4-0.5,3.5-0.2,4.2c0.3,0.7,5.7,3.5,5.7,3.5
						s0.4-1.2,0.5-1.6c0.1-0.4,0.8-1.6,0.8-1.6l-4.4-1.8l1.1-4.2l0.8-1.2C16.4,11.1,16,9,14.4,8.7z"/>
				</g>
			</g>
		</g>
		<g>
			<g>
				<g>
					<path fill="#344A5E" d="M21.2,24.2c0.1,0.5-0.5,0.2-0.7,0c0,0,0-0.1-0.1-0.2c0-0.2,0.1-0.4,0.1-0.5c0-0.1,0-0.1,0-0.1
						c0.4-1.8,0.5-2.8,0-3l0.4-2c0,0,0.3-2.7,0.3-3.4c0-0.7,0.3-1.9-0.2-2.7c-0.5-0.8-1.5-2.9-1.5-2.9l-0.7-0.8c0,0,1.6,1,1.8,1.1
						c0.3,0.1,0.5,0.2,0.5,0.9c0.1,0.7,0.4,3.7,0.4,3.7s-0.6,5.5-0.5,6.5C21.2,22,21.1,23.7,21.2,24.2z"/>
				</g>
			</g>
		</g>
		<g>
			<g>
				<g>
					<path fill="#F26F5A" d="M19,6.3c0.1,0.6,0.2,1.2,0,1.8c-0.1,0.3-0.3,0.5-0.6,0.7c0-0.2,0.1-0.5,0.2-0.7c0.3-0.6,0.3-1.3,0-1.8"
						/>
				</g>
			</g>
		</g>
		<g>
			<g>
				<g>
					<path fill="#FFD15C" d="M20.3,3.6c0,0,0.1,0.4,0,0.6c-0.1,0.2-0.1,0.3-0.1,0.4c0,0.1,0.5,0.7,0.5,0.9c0,0.2-0.1,0.2-0.3,0.2
						c-0.1,0-0.2,0.1-0.2,0.2c0,0.1,0.1,0.3-0.1,0.4c0,0,0.2,0.1,0.1,0.3c0,0-0.1,0-0.2,0.2c0,0.2,0,0.7-0.4,0.7
						c-0.4,0-0.6-0.1-0.8,0.1c-0.1,0.2-0.3,0.6-0.3,0.8c0,0.2,0.4,0.8,0.4,0.8c0.4,0.4,0.3,1.1,0.1,1.8L19,11.6c0,0-1.8-1.8-1.8-1.8
						c0,0-0.6-1.8-0.6-1.8s-0.1-0.4-0.1-0.4c0,0,0.9-1.4,0.9-1.5c0-0.1,1-2.7,1-2.7S20.1,3.3,20.3,3.6z"/>
				</g>
			</g>
		</g>
		<g>
			<g>
				<g>
					<path fill="#F5B54C" d="M17.4,6.2c0.6,0.5,1.2,1,1.9,1.3c-0.1,0-0.3,0-0.3,0.1c-0.1,0.1-0.3,0.5-0.3,0.7
						C18,7.7,17.6,7,17.4,6.2z"/>
				</g>
			</g>
		</g>
		<g>
			<g>
				<g>
					<path fill="#E8EAE8" d="M18.9,8.9c0.1,0.2,0.3,1.5-0.1,1.7c-0.7,0.3-1.8-1.2-2.1-2.4l-0.1-0.9l-0.7,4.7l2,2.7l1.5,3.8l0.4-0.2
						c1-0.5,1.6-1.4,1.6-2.5l0-2.3l-1-2.8l-1.6-2.1L18.9,8.9z"/>
				</g>
			</g>
		</g>
		<g>
			<g>
				<g>
					<path fill="#344A5E" d="M16,7.7c0,0-0.7,0.9-1.6,1c0,0,1.5,1.6,1.1,3.4c-0.3,1.7-2,7.9-2.3,8.5c-0.3,0.6-0.5,3.4-0.5,3.4
						s0.3,0,0.6,0c0.3,0,3.4,0.5,4.2,0.6c0.8,0.1,1.7-1,1.9-1.8c0.2-0.8,0.5-5.1,0.5-5.1s-0.5-3.9-0.8-4.3c-0.3-0.4-2.9-5.4-3-5.8
						c-0.1-0.4-0.1-0.4-0.1-0.4L16,7.7z"/>
				</g>
			</g>
		</g>
		<g>
			<g>
				<g>
					<path fill="#425A6B" d="M18.6,8.5L18.6,8.5l1.8,1.7H20l0.6,0.5c0,0,1.1,2.5,1,3.6c-0.1,1.1-0.7,4.5-0.7,4.5s0.1-4.9,0-5.3
						c-0.1-0.4-1.4-2.8-1.7-3.5S18.6,8.5,18.6,8.5z"/>
				</g>
			</g>
		</g>
		<g>
			<g>
				<g>
					<path fill="#425A6B" d="M16.4,7.3l-0.3,2.1l0.7,0.1L16.5,10c0,0,1.9,3,2.2,3.3s1.4,4.2,1.4,4.2s-0.2-3.3-0.7-4.4
						C19,12.1,16.7,8.5,16.4,7.3z"/>
				</g>
			</g>
		</g>
		<g>
			<g>
				<g>
					<path fill="#67C5B8" d="M21.3,15.7l-1.4,6.6c0,0.2-0.2,0.3-0.4,0.2l-4.7-1c-0.2,0-0.3-0.2-0.2-0.4l1.5-6.6
						c0-0.2,0.2-0.3,0.4-0.2l4.7,1C21.2,15.4,21.3,15.6,21.3,15.7z"/>
				</g>
			</g>
		</g>
		<g>
			<g>
				<g>
					<g>
						<path fill="#F26F5A" d="M20.4,3.7c0,0.1,0,0.1,0,0.2c0,0-0.5-0.4-1-0.2s-1,0.8-1.2,1.3c-0.2,0.5-0.7,2.4-0.3,3.7
							c0,0-0.7-0.4-1.2-1c0,0,0.2,0.4,0.8,1c0,0-0.7-0.3-1-0.8c0,0-0.1,0.4,0.2,0.7c0,0-0.6,0.2-1.5-0.5c-0.2-0.2-0.4-0.5-0.6-0.7
							c-0.4-0.8-0.5-1.7-0.2-2.5c0.3-1,0.9-2.6,1.9-3c0.8-0.3,1.8-0.4,2.5-0.2C19.7,1.9,20.4,2.7,20.4,3.7z"/>
					</g>
				</g>
			</g>
			<g>
				<g>
					<g>
						<g>
							<path fill="#F26F5A" d="M18.5,4c0,0,0,0.1-0.1,0.2c0,0.1-0.1,0.1-0.1,0.2c0,0.1-0.1,0.2-0.1,0.3c0,0.1-0.1,0.2-0.1,0.3
								c0,0.1,0,0.1-0.1,0.2c0,0.1,0,0.1-0.1,0.2c0,0.1,0,0.1-0.1,0.2c0,0.1,0,0.1,0,0.2c0,0.1-0.1,0.3-0.1,0.4c0,0.1,0,0.3-0.1,0.4
								c0,0.1,0,0.3,0,0.4c0,0.1,0,0.3,0,0.4c0,0.1,0,0.2,0,0.3c0,0.1,0,0.2,0.1,0.3c0,0.1,0.1,0.1,0.1,0.2C18,8.2,18,8.2,18,8.3
								c0,0,0,0,0,0s0,0,0,0c0,0-0.1-0.1-0.1-0.1c0,0-0.1-0.1-0.1-0.2c0-0.1-0.1-0.2-0.1-0.3c0-0.1,0-0.2-0.1-0.3c0-0.1,0-0.3,0-0.4
								c0-0.1,0-0.3,0-0.4c0-0.1,0-0.3,0-0.4c0-0.1,0-0.3,0.1-0.4c0-0.1,0-0.1,0-0.2c0-0.1,0-0.1,0-0.2c0-0.1,0-0.1,0-0.2
								c0-0.1,0-0.1,0-0.2c0-0.1,0.1-0.2,0.1-0.3c0-0.1,0.1-0.2,0.1-0.3c0-0.1,0.1-0.2,0.1-0.2c0-0.1,0.1-0.2,0.1-0.2L18.5,4z"/>
						</g>
					</g>
				</g>
				<g>
					<g>
						<g>
							<path fill="#F26F5A" d="M16.5,7.2C16.5,7.2,16.5,7.3,16.5,7.2c0,0.1,0,0.2,0,0.3c0,0.2-0.1,0.4,0,0.6c0,0.1,0,0.1,0,0.1
								c0,0,0,0.1,0,0.1c0,0,0,0.1,0,0.1c0,0,0,0.1,0.1,0.1c0,0,0,0,0,0c0,0,0,0,0,0c0,0,0,0,0.1,0.1c0,0,0,0,0,0c0,0,0,0,0,0
								s0,0,0,0c0,0,0,0,0,0c0,0,0,0-0.1-0.1c0,0,0,0,0,0c0,0,0,0,0,0c0,0,0-0.1-0.1-0.1c0,0,0-0.1-0.1-0.1c0,0,0-0.1,0-0.1
								c0-0.1,0-0.1,0-0.2c0-0.2,0-0.4,0-0.6c0-0.1,0-0.1,0-0.2c0,0,0-0.1,0-0.1L16.5,7.2z"/>
						</g>
					</g>
				</g>
			</g>
		</g>
		<g>
			<g>
				<g>
					<path fill="#F26F5A" d="M19,8c-0.1,0.3-0.3,0.5-0.6,0.7c0-0.2,0.1-0.5,0.2-0.7L19,8z"/>
				</g>
			</g>
		</g>
		<g>
			<g>
				<g>
					<g>
						<g>
							<path fill="#FFD15C" d="M18,19.8c0,0,0.4,0.1,0.5,0.2c0.1,0,0.4,0.4,0.5,0.5c0.1,0.1,1.1,0.7,1.2,0.7c0.1,0,0.6,0.1,0.6-0.2
								c0-0.3-0.2-0.3-0.2-0.3s0.3,0,0.4-0.2c0-0.2-0.1-0.3-0.1-0.3s0.2,0,0.3-0.2c0.1-0.1-0.1-0.3-0.1-0.3s0.2,0,0.2-0.3
								c0.1-0.2-0.1-0.4-0.1-0.4c-0.1,0-0.4-0.2-0.4-0.2s0.2,0,0.3,0c0,0,0.5,0.4,0.8-0.1l-0.4-0.2c0,0-0.2-0.2-0.5-0.2
								c-0.3,0-1,0-1.2,0c-0.1,0-0.6,0.1-1,0.3C18.2,18.7,18,19.8,18,19.8"/>
						</g>
					</g>
				</g>
				<g>
					<g>
						<g>
							<path fill="#425A6B" d="M18.9,18.4c0,0-0.6,1.2-0.8,1.6c-0.1,0.4-0.5,1.6-0.5,1.6s-5.3-2.8-5.7-3.5l2.5-1.4L18.9,18.4z"/>
						</g>
					</g>
				</g>
			</g>
			<g>
				<g>
					<g>
						<path fill="#F3F3F3" d="M21.7,18.7c-0.6,0-0.4-0.2-0.4-0.2L21.7,18.7z"/>
					</g>
				</g>
			</g>
		</g>
		<g>
			<g>
				<g>
					<g>
						<path fill="#FFD15C" d="M21.3,16.7c0,0,0-0.2,0-0.3c0.1-0.1,0.2-0.3,0.2-0.3c0,0,0.4,0,0.4,0.1c0.1,0.1,0.7,0,0.8,0.2
							c0.1,0.1-0.1,0.3-0.1,0.3l-0.6,0.2L21.3,16.7z"/>
					</g>
				</g>
			</g>
			<g>
				<g>
					<g>
						<path fill="#F5B54C" d="M21.3,16.8C21.3,16.8,21.3,16.8,21.3,16.8C21.3,16.7,21.3,16.7,21.3,16.8c0-0.1,0-0.1,0-0.1
							c0,0,0,0,0,0c0,0,0,0,0.1,0c0,0,0,0,0.1,0c0,0,0,0,0,0l0,0c0,0,0,0,0.1,0c0,0,0,0,0,0c0,0,0,0,0,0c0,0,0,0,0.1,0
							c0,0,0,0,0.1,0c0.1,0,0.1,0.1,0.1,0.1s0,0-0.1,0c0,0-0.1,0-0.1,0c0,0,0,0-0.1,0c0,0,0,0-0.1,0l0,0c0,0,0,0,0,0c0,0,0,0-0.1,0
							c0,0,0,0,0,0C21.4,16.7,21.4,16.7,21.3,16.8C21.4,16.7,21.4,16.7,21.3,16.8C21.3,16.7,21.3,16.7,21.3,16.8
							C21.3,16.8,21.3,16.8,21.3,16.8z"/>
					</g>
				</g>
			</g>
			<g>
				<g>
					<g>
						<path fill="#F5B54C" d="M21.6,16.6c0.1,0,0.2,0,0.4-0.1c0,0,0.1,0,0.1,0c0,0,0,0,0,0c0,0,0.1,0,0.1,0c0,0,0.1,0,0.1,0
							c0.1,0,0.1-0.1,0.2-0.1c0,0.1-0.1,0.2-0.2,0.3c-0.1,0-0.2,0.1-0.3,0C21.8,16.7,21.7,16.7,21.6,16.6"/>
					</g>
				</g>
			</g>
			<g>
				<g>
					<g>
						<g>
							<path fill="#FFD15C" d="M21.3,16.8c0,0,0-0.1,0.2-0.2c0.2-0.1,0.4,0,0.4,0s0.3,0,0.4,0c0.1,0,0.1-0.3,0.2-0.3
								c0.1-0.1,0.3,0,0.4,0.1c0.1,0.1,0.1,0.3,0,0.4c0,0,0,0.1,0.1,0.1c0.1,0.1,0.1,0.3-0.1,0.5c0,0,0,0.1,0,0.1
								c0,0.1-0.1,0.2-0.3,0.3c0,0,0,0.3-0.2,0.4c-0.2,0.1-0.4,0.1-0.4,0.1s-0.1,0-0.2,0c-0.1,0-0.5-0.2-0.5-0.3l-0.2-0.2
								c0,0-0.1-0.1,0-0.2c0-0.1,0.1-0.1,0.2-0.1c0,0-0.3-0.1-0.2-0.3c0-0.2,0.2-0.1,0.2-0.1S21,17,21.1,16.8c0,0,0-0.1,0.1-0.1
								C21.2,16.7,21.2,16.7,21.3,16.8z"/>
						</g>
					</g>
				</g>
				<g>
					<g>
						<g>
							<path fill="#FFFFFF" d="M21.6,16.9l-0.3-0.1c0,0,0-0.2,0.3-0.1C21.6,16.6,21.7,16.7,21.6,16.9z"/>
						</g>
					</g>
				</g>
				<g>
					<g>
						<g>
							<g>
								<g>
									<path fill="#F5B54C" d="M21.3,16.7c0.1,0,0.1,0,0.2,0.1l0.2,0.1l0,0l0,0c0.1,0,0.2,0.1,0.3,0.1c0.1,0,0.2,0.1,0.3,0.1
										c0,0,0,0,0.1,0c0,0,0,0,0.1,0c0,0,0,0,0.1,0c0,0,0,0,0.1,0c0,0,0,0,0.1,0l0,0l0,0c0,0,0,0,0,0c0,0,0,0,0,0c0,0,0,0,0.1,0
										c0,0,0,0-0.1,0c0,0,0,0,0,0c0,0,0,0,0,0l0,0l0,0c0,0,0,0-0.1,0c0,0,0,0-0.1,0c0,0,0,0-0.1,0c0,0,0,0-0.1,0c0,0,0,0-0.1,0
										c-0.1,0-0.2-0.1-0.3-0.1c0,0-0.1,0-0.1-0.1c0,0-0.1,0-0.1-0.1l0,0l-0.2-0.1C21.4,16.8,21.3,16.8,21.3,16.7z"/>
								</g>
							</g>
						</g>
						<g>
							<g>
								<g>
									<path fill="#F5B54C" d="M21.1,17.1C21.1,17.1,21.2,17.1,21.1,17.1c0.1,0.1,0.2,0.1,0.2,0.1c0,0,0.1,0,0.1,0.1c0,0,0,0,0,0
										c0,0,0,0,0,0c0,0,0,0,0.1,0c0.1,0,0.2,0.1,0.3,0.1c0,0,0.1,0,0.1,0c0,0,0.1,0,0.1,0c0.1,0,0.1,0,0.2,0c0.1,0,0.1,0,0.1,0
										c0,0,0.1,0,0.1,0c0.1,0,0.1,0,0.2-0.1c0,0,0.1,0,0.1,0s0,0-0.1,0c0,0-0.1,0-0.2,0.1c0,0-0.1,0-0.1,0c0,0-0.1,0-0.2,0
										c-0.1,0-0.1,0-0.2,0c0,0-0.1,0-0.1,0c0,0-0.1,0-0.1,0c-0.1,0-0.2-0.1-0.3-0.1c0,0,0,0-0.1,0c0,0,0,0,0,0c0,0,0,0,0,0
										c0,0-0.1-0.1-0.1-0.1C21.3,17.2,21.2,17.2,21.1,17.1C21.2,17.1,21.1,17.1,21.1,17.1z"/>
								</g>
							</g>
						</g>
					</g>
					<g>
						<g>
							<g>
								<path fill="#F5B54C" d="M21.2,17.5C21.2,17.5,21.2,17.5,21.2,17.5c0.1,0.1,0.1,0.1,0.2,0.1c0,0,0.1,0,0.1,0.1
									c0,0,0.1,0.1,0.1,0.1c0,0,0,0,0,0c0,0,0,0,0,0c0,0,0,0,0.1,0c0,0,0.1,0,0.1,0.1c0,0,0.1,0,0.1,0.1c0,0,0,0,0.1,0
									c0,0,0,0,0,0c0,0,0,0,0,0l0,0c0,0,0,0,0,0c0,0,0,0,0,0c0,0,0,0,0.1,0c0,0,0.1,0,0.1-0.1c0.1,0,0.1-0.1,0.2-0.1
									c0,0,0.1,0,0.1,0s0,0-0.1,0c0,0-0.1,0.1-0.1,0.1c0,0-0.1,0-0.1,0.1c0,0,0,0-0.1,0c0,0,0,0,0,0c0,0,0,0,0,0l0,0c0,0,0,0,0,0
									c0,0,0,0,0,0c0,0,0,0-0.1,0c0,0-0.1,0-0.1-0.1c0,0-0.1,0-0.1-0.1c0,0,0,0-0.1,0c0,0,0,0,0,0c0,0,0,0,0,0
									c0,0-0.1-0.1-0.1-0.1c0,0-0.1-0.1-0.1-0.1C21.4,17.6,21.3,17.6,21.2,17.5C21.2,17.5,21.2,17.5,21.2,17.5z"/>
							</g>
						</g>
					</g>
				</g>
				<g>
					<g>
						<g>
							<path fill="#FFFFFF" d="M21.2,17.1c0,0,0.1-0.1,0.1-0.2c-0.1-0.1-0.1-0.1-0.1-0.1s-0.1,0-0.1,0.2
								C21.1,17,21.2,17.1,21.2,17.1z"/>
						</g>
					</g>
				</g>
				<g>
					<g>
						<g>
							<path fill="#FFFFFF" d="M21.1,17.3c0,0,0.1,0.1,0.1,0.1c0,0,0-0.1,0.1-0.1l-0.1-0.1C21.1,17.2,21,17.2,21.1,17.3z"/>
						</g>
					</g>
				</g>
				<g>
					<g>
						<g>
							<path fill="#FFFFFF" d="M21.1,17.7c0,0,0-0.1,0.1-0.1l0.1,0.1c0,0-0.1,0.1-0.1,0.1L21.1,17.7z"/>
						</g>
					</g>
				</g>
			</g>
		</g>
	</g>
	<g>
		<g>
			<g>
				<path fill="#425A6B" d="M26.6,1.1c0,0-0.3-0.4,0-0.8c0.3-0.3,1.9-0.5,2.8-0.1S31,1.1,31,2.1c0,1-0.1,1.9-0.5,2.8
					c0,0-0.3-0.3-0.4-0.9c-0.1-0.7-0.5-1.1-1-0.9c-0.5,0.1-0.1,1-0.1,1l-0.3,0.1c0,0-0.2-1-0.4-1.2c-0.2-0.2-0.3-0.5-0.1-1.1
					C28.5,1.2,27.8,1,27.5,1C27.1,1,26.6,1.1,26.6,1.1z"/>
			</g>
		</g>
	</g>
	<g>
		<g>
			<g>
				<ellipse fill="#FFD15C" cx="29.4" cy="3.4" rx="0.5" ry="0.6"/>
			</g>
		</g>
	</g>
	<g>
		<g>
			<g>
				<path fill="#F5B54C" d="M29.6,5c0,0-0.6,1.3-1.7,2.2c-0.4-0.2-1-0.6-1-0.6S28.6,6.2,29.6,5z"/>
			</g>
		</g>
	</g>
	<g>
		<g>
			<g>
				<g>
					<path fill="#E8EAE8" d="M28.3,7.3c0,0-0.4,0.2-0.6,0.5c-0.2,0.4-0.4,1.1-0.7,1.3l0.3-2l0.1-0.2C27.4,6.9,27.9,7.2,28.3,7.3z"/>
				</g>
			</g>
		</g>
		<g>
			<g>
				<g>
					<path fill="#425A6B" d="M27.4,6.9l-1.1,1.4l0.3,0.2L26,8.9c0,0,0,3.1,0.2,3.8c0.1,0.7,0.3,4.7,0.3,4.7s0.7-8.1,0.7-8.3
						C27.2,9,27.4,6.9,27.4,6.9z"/>
				</g>
			</g>
		</g>
	</g>
	<g>
		<g>
			<g>
				<path fill="#E8EAE8" d="M28.3,7.3l1.1,1.3l1.5-2.4l-0.4-0.7C30.5,5.5,28.6,6.9,28.3,7.3z"/>
			</g>
		</g>
	</g>
	<g>
		<g>
			<g>
				<path fill="#425A6B" d="M30.7,5.7c0,0-0.7,1.3-1,1.6c-0.2,0.3-2.5,4.4-3.1,5.6c-0.6,1.1-0.5,1.8-0.5,1.8s2.6-3.7,2.8-4
					c0.2-0.2,2.1-2.8,2.1-2.8l-0.5-0.3l0.7-0.3c0,0,0.2-0.8,0.2-0.9c0,0-0.4-0.2-0.5-0.4C30.9,5.8,30.8,5.7,30.7,5.7z"/>
			</g>
		</g>
	</g>
	<g>
		<g>
			<g>
				<polygon fill="#E8EAE8" points="26.2,8.7 25.3,14.8 27.1,18.8 27.5,17.5 27.9,12.6 26.5,8.9 				"/>
			</g>
		</g>
	</g>
	<g>
		<g>
			<g>
				<g>
					<g>
						<path fill="#FFD15C" d="M25.3,17.8C25.3,17.8,25.3,17.8,25.3,17.8C25.3,17.8,25.3,17.8,25.3,17.8
							C25.3,17.8,25.3,17.8,25.3,17.8C25.3,17.8,25.3,17.8,25.3,17.8z"/>
					</g>
				</g>
			</g>
			<g>
				<g>
					<path fill="#F5B54C" d="M24.2,17.2C24.2,17.2,24.2,17.2,24.2,17.2C24.2,17.2,24.2,17.2,24.2,17.2L24.2,17.2z"/>
				</g>
			</g>
			<g>
				<g>
					<polygon fill="#F5B54C" points="24.2,17.2 24.2,17.2 24.2,17.2 					"/>
				</g>
			</g>
			<g>
				<g>
					<path fill="#F5B54C" d="M24.2,17.1C24.2,17.1,24.2,17.2,24.2,17.1C24.2,17.2,24.2,17.1,24.2,17.1z"/>
				</g>
			</g>
			<g>
				<g>
					<g>
						<path fill="#FFD15C" d="M26.2,15.8c0,0-0.2,0.2-0.4,0.2c0,0,0.1,0.1,0,0.2c0,0,0.4,0.3,0.4,0.5c0.1,0.1,0.3,0.9,0.3,0.9
							s0.2,0.3,0,0.4c-0.2,0.1-0.3,0-0.3,0S26.2,18.1,26,18l-0.2-0.2c0,0-0.1,0.2-0.4,0c0,0,0,0,0,0l0,0c0,0,0,0,0,0c0,0,0,0,0,0
							c0,0,0,0,0,0c0.1-0.2-0.3-0.4-0.3-0.4l-0.6-0.1c0,0-0.2-0.1-0.2-0.1l-0.1,0.1c0,0,0,0,0,0c0,0,0-0.1,0-0.1v0
							c0-0.1,0-0.1,0-0.2c0,0,0-0.2,0.1-0.2s0.1-0.3,0.2-0.4c0.1-0.1,0.2-0.2,0.2-0.3c0-0.1,0.1-0.3,0.2-0.3c0.1,0,0.2-0.1,0.2-0.2
							c0-0.1,0.2-0.2,0.4-0.2c0.2,0,1-0.2,1.1,0c0,0,0.2,0.4-0.1,0.5C26.5,15.8,26.3,15.8,26.2,15.8z"/>
					</g>
				</g>
			</g>
			<g>
				<g>
					<g>
						<g>
							<path fill="#F5B54C" d="M26.2,17.9C26.2,17.9,26.2,17.9,26.2,17.9c0-0.1-0.1-0.2-0.1-0.3c0,0,0-0.1-0.1-0.1
								c0,0,0-0.1-0.1-0.1c0-0.1-0.1-0.2-0.2-0.3c0,0-0.1-0.1-0.1-0.1c0,0,0,0,0-0.1c0,0,0,0-0.1-0.1c0,0,0,0-0.1,0c0,0,0,0-0.1,0
								c0,0-0.1-0.1-0.1-0.1c-0.1-0.1-0.1-0.1-0.2-0.1c0,0-0.1-0.1-0.1-0.1s0,0,0.1,0c0,0,0.1,0.1,0.2,0.1c0,0,0.1,0,0.1,0.1
								c0,0,0,0,0.1,0c0,0,0,0,0.1,0c0,0,0.1,0.1,0.1,0.1c0,0,0.1,0.1,0.1,0.1c0.1,0.1,0.1,0.2,0.2,0.3c0,0,0,0.1,0.1,0.1
								c0,0,0,0.1,0,0.1C26.2,17.7,26.2,17.8,26.2,17.9C26.2,17.9,26.2,17.9,26.2,17.9z"/>
						</g>
					</g>
				</g>
				<g>
					<g>
						<g>
							<path fill="#F5B54C" d="M25.8,17.9c0,0-0.1-0.1-0.1-0.2c0,0,0-0.1-0.1-0.1c0,0,0,0,0,0c0,0,0,0,0,0c-0.1-0.1-0.1-0.1-0.2-0.2
								c0,0-0.1-0.1-0.1-0.1c0,0-0.1-0.1-0.1-0.1c-0.1,0-0.1-0.1-0.2-0.1c-0.1,0-0.1-0.1-0.1-0.1c0,0,0,0,0,0s0,0,0.1,0
								c0,0,0.1,0,0.1,0.1c0.1,0,0.1,0.1,0.2,0.1c0,0,0.1,0.1,0.1,0.1c0,0,0.1,0.1,0.1,0.1c0.1,0.1,0.1,0.1,0.2,0.2c0,0,0,0,0,0
								c0,0,0,0,0,0c0,0,0,0.1,0.1,0.1C25.7,17.7,25.7,17.8,25.8,17.9C25.8,17.8,25.8,17.9,25.8,17.9z"/>
						</g>
					</g>
				</g>
			</g>
		</g>
		<g>
			<g>
				<g>
					<path fill="#FFFFFF" d="M26.4,15.4c0,0,0.2,0,0.2,0c0,0-0.1,0.2-0.1,0.2c0,0-0.1,0-0.2,0C26.3,15.6,26.3,15.4,26.4,15.4z"/>
				</g>
			</g>
		</g>
	</g>
	<g>
		<g>
			<g>
				<g>
					<path fill="#FFD15C" d="M26.7,15.7c-0.2-0.1-0.2-0.4,0-0.5"/>
				</g>
			</g>
			<g>
				<g>
					<path fill="#F5B54C" d="M26.6,15.7C26.6,15.7,26.6,15.7,26.6,15.7C26.6,15.7,26.6,15.6,26.6,15.7c0-0.1,0-0.1-0.1-0.1
						c0,0,0,0,0-0.1c0,0,0,0,0-0.1c0,0,0,0,0,0c0,0,0,0,0,0c0,0,0,0,0,0c0,0,0,0,0,0c0,0,0,0,0,0c0,0,0,0,0,0c0,0,0,0-0.1,0
						c0,0,0,0,0,0c0,0,0,0,0,0c0,0,0,0,0,0c0,0,0,0,0,0c0,0,0,0,0,0.1c0,0,0,0,0,0.1c0,0,0,0,0,0.1C26.5,15.6,26.6,15.6,26.6,15.7
						C26.6,15.7,26.6,15.7,26.6,15.7C26.6,15.7,26.6,15.7,26.6,15.7C26.6,15.7,26.6,15.7,26.6,15.7C26.6,15.7,26.6,15.7,26.6,15.7
						C26.6,15.7,26.6,15.7,26.6,15.7z"/>
				</g>
			</g>
		</g>
	</g>
	<g>
		<g>
			<g>
				<polygon fill="#8AD6F7" points="28.6,12.5 27.9,12.6 26.2,8.7 26.3,8.7 26.4,8.7 26.5,8.7 				"/>
			</g>
		</g>
		<g>
			<g>
				<polygon fill="#E8EAE8" points="28.4,12.4 28,12.5 26.3,8.7 26.4,8.7 				"/>
			</g>
		</g>
	</g>
	<g>
		<g>
			<g>
				<polygon fill="#56BFEB" points="28.6,12.6 27.7,18.8 27.1,18.8 27.9,12.6 				"/>
			</g>
		</g>
	</g>
	<g>
		<g>
			<g>
				<g>
					<path fill="#FFD15C" d="M30.6,17.3l-0.3-0.2c0,0-0.6-0.1-0.8-0.2c-0.2-0.1-0.5-0.1-0.6,0c-0.1,0.1-0.6,0.2-0.9,0.1
						c-0.4-0.2-0.4-0.2-0.4-0.2l-0.7-0.5c-0.2-0.1-0.2-0.3-0.1-0.5c-0.2-0.1-0.2-0.4,0-0.5c0,0-0.2-0.2-0.1-0.4
						c0.1-0.2,0.2-0.2,0.2-0.2c0,0,0.1-0.1,0.2-0.2c0.1-0.1,0.3-0.2,0.4-0.1c0.4,0.1,0.9,0.4,0.9,0.4l0.2-1.5
						c0.1,0.2,0.2,0.4,0.2,0.5c0.1,0.1,0.4,0.8,0.5,0.9c0.1,0.2,0.3,0.6,0.4,0.6c0.1,0.1,0.6,0.5,0.6,0.5L30.6,17.3z"/>
				</g>
			</g>
		</g>
		<g>
			<g>
				<g>
					<g>
						<path fill="#F5B54C" d="M26.8,14.6c0,0,0,0,0.1,0.1c0,0,0.1,0.1,0.1,0.1c0,0,0.1,0.1,0.1,0.1c0,0,0.1,0.1,0.1,0.1
							c0,0,0,0,0.1,0c0,0,0,0,0.1,0c0,0,0,0,0,0c0,0,0,0,0,0c0,0,0,0,0,0s0,0,0,0c0,0,0,0,0,0c0,0,0,0-0.1,0c0,0,0,0-0.1,0
							c0,0,0,0-0.1,0c0,0,0,0-0.1,0c0,0,0,0-0.1-0.1c0,0,0,0-0.1-0.1c0,0,0,0-0.1-0.1c0,0-0.1-0.1-0.1-0.1
							C26.8,14.7,26.8,14.6,26.8,14.6C26.8,14.6,26.8,14.6,26.8,14.6z"/>
					</g>
				</g>
			</g>
			<g>
				<g>
					<g>
						<path fill="#F5B54C" d="M26.7,15.2C26.7,15.2,26.7,15.2,26.7,15.2c0.1,0,0.1,0.1,0.1,0.1c0,0,0.1,0.1,0.1,0.1
							c0,0,0.1,0.1,0.1,0.1c0.1,0.1,0.2,0.1,0.2,0.2c0,0,0.1,0,0.1,0.1c0,0,0,0,0,0s0,0,0,0c0,0,0,0,0,0c0,0-0.1,0-0.1,0
							c0,0-0.1,0-0.1-0.1c0,0-0.1-0.1-0.1-0.1c0,0-0.1-0.1-0.1-0.1c0,0-0.1-0.1-0.1-0.1C26.7,15.3,26.7,15.3,26.7,15.2
							C26.7,15.2,26.7,15.2,26.7,15.2z"/>
					</g>
				</g>
			</g>
			<g>
				<g>
					<g>
						<path fill="#F5B54C" d="M26.7,15.7C26.7,15.7,26.7,15.7,26.7,15.7C26.7,15.8,26.8,15.8,26.7,15.7c0.2,0.1,0.2,0.2,0.3,0.2
							c0.1,0.1,0.1,0.1,0.2,0.2c0,0,0,0,0.1,0.1c0,0,0,0,0,0s0,0,0,0c0,0,0,0-0.1,0C27.1,16.1,27,16,27,16
							C26.9,15.9,26.8,15.9,26.7,15.7C26.8,15.8,26.7,15.8,26.7,15.7C26.7,15.7,26.7,15.7,26.7,15.7z"/>
					</g>
				</g>
			</g>
		</g>
	</g>
	<g>
		<g>
			<g>
				<path fill="#425A6B" d="M32.5,12.9c0.1,0.8,0.3,1.7,0.2,2c0,0-0.5-0.1-1,0c-0.4,0.1-2.1,0.2-2.1,0.2s1.2,3.2,0.3,3.3
					c0,0,2.1-0.1,3.3-0.4c1.2-0.3,2.4-0.6,2.6-0.8c0.2-0.2,0.3-1.1,0.3-2c0-0.4-0.1-1.4-0.2-2.4H32.5z"/>
			</g>
		</g>
	</g>
	<g>
		<g>
			<path fill="#425A6B" d="M31,17.8"/>
		</g>
	</g>
</g>
</svg>
