<?xml version="1.0" encoding="utf-8"?>
<!-- Generator: Adobe Illustrator 18.0.0, SVG Export Plug-In . SVG Version: 6.00 Build 0)  -->
<!DOCTYPE svg PUBLIC "-//W3C//DTD SVG 1.1//EN" "http://www.w3.org/Graphics/SVG/1.1/DTD/svg11.dtd">
<svg version="1.1" id="Layer_1" xmlns="http://www.w3.org/2000/svg" xmlns:xlink="http://www.w3.org/1999/xlink" x="0px" y="0px"
	 viewBox="0 0 512 512" enable-background="new 0 0 512 512" xml:space="preserve">
<g>
	<g>
		<polygon fill="#40596B" points="256,249.4 256,122.5 67.3,181.3 67.3,249.4 		"/>
		<polygon fill="#334A5E" points="444.7,249.4 444.7,181.3 256,122.5 256,249.4 		"/>
		<polygon fill="#FFD15C" points="444.7,282.3 444.7,451.2 256,510 256,240.1 304.1,326.2 		"/>
		<polygon fill="#F8B64C" points="67.3,451.2 256,510 256,240.1 67.3,181.3 		"/>
		<polygon fill="#CDD6E0" points="19.2,267.3 207.9,326.2 256,240.1 67.3,181.3 		"/>
		<polygon fill="#CDD6E0" points="256,240.1 444.7,181.3 492.8,267.3 304.1,326.2 		"/>
		<polygon fill="#CDD6E0" points="492.8,267.3 444.7,282.3 444.7,181.3 		"/>
		<polygon fill="#CDD6E0" points="492.8,267.3 444.7,282.3 444.7,181.3 		"/>
		<g>
			<polygon fill="#CDD6E0" points="492.8,95.2 304.1,36.4 256,122.5 444.7,181.3 			"/>
			<polygon fill="#CDD6E0" points="256,122.5 67.3,181.3 19.2,95.2 207.9,36.4 			"/>
		</g>
	</g>
	<path fill="#FFE56A" d="M348,94c0-52.3-43.6-94.4-96.4-91.9c-47.7,2.2-86.5,42.1-87.6,89.8c-0.7,32.8,15.8,61.8,41.1,78.6
		c7.6,5,12.1,13.6,12.1,22.7l0,0h77.6l0,0c0-9.1,4.5-17.7,12.1-22.7C331.7,154,348,126,348,94z"/>
	<path fill="#FF7058" d="M301.3,208.8h-90.5c-0.4,0-0.7-0.3-0.7-0.7v-14.2c0-0.4,0.3-0.7,0.7-0.7h90.5c0.4,0,0.7,0.3,0.7,0.7v14.2
		C301.9,208.5,301.6,208.8,301.3,208.8z"/>
	<path fill="#F1543F" d="M305.4,224.4h-98.9c-0.4,0-0.7-0.3-0.7-0.7v-14.2c0-0.4,0.3-0.7,0.7-0.7h98.9c0.4,0,0.7,0.3,0.7,0.7v14.2
		C306.1,224.1,305.8,224.4,305.4,224.4z"/>
	<polygon fill="#FFFFFF" points="283.6,71 251.3,71 275.6,36.6 249.1,28.9 228.4,83.4 258.9,83.8 249.2,115.6 236.7,111.3 
		234.5,172.1 270.5,122.8 257.3,118.4 	"/>
	<polygon fill="none" points="256,240.1 256.4,239.9 255.6,239.9 	"/>
	<path fill="#FF7058" d="M294.9,224.4h-77.8c-1.9,0-3.7,0.8-4.9,2l43.4,13.5h0.8l43.4-13.5C298.6,225.2,296.8,224.4,294.9,224.4z"/>
</g>
</svg>
