<?xml version="1.0" encoding="utf-8"?>
<!-- Generator: Adobe Illustrator 18.0.0, SVG Export Plug-In . SVG Version: 6.00 Build 0)  -->
<!DOCTYPE svg PUBLIC "-//W3C//DTD SVG 1.1//EN" "http://www.w3.org/Graphics/SVG/1.1/DTD/svg11.dtd">
<svg version="1.1" id="Layer_1" xmlns="http://www.w3.org/2000/svg" xmlns:xlink="http://www.w3.org/1999/xlink" x="0px" y="0px"
	 viewBox="0 0 48 48" enable-background="new 0 0 48 48" xml:space="preserve">
<g>
	<g>
		<g>
			<g>
				<g>
					<g>
						<g>
							<circle fill="#FFD15C" cx="37" cy="14" r="11"/>
						</g>
						<g>
							<circle fill="#FFFFFF" cx="37" cy="14" r="9"/>
						</g>
						<g>
							<path fill="#FFD15C" d="M34.8,13.5c0.4,0,0.6-0.5,0.3-0.8l-3.2-3.2c-0.3-0.3-0.9-0.3-1.1,0.1c-0.6,0.9-1.1,1.9-1.3,3
								c-0.1,0.4,0.3,0.8,0.7,0.8H34.8z"/>
							<path fill="#FFD15C" d="M35.1,15.2c0.3-0.3,0.1-0.8-0.3-0.8h-4.5c-0.4,0-0.8,0.4-0.7,0.8c0.2,1.1,0.6,2.1,1.3,3
								c0.3,0.4,0.8,0.4,1.1,0.1L35.1,15.2z"/>
							<path fill="#FFD15C" d="M36.6,11.7V7.2c0-0.4-0.4-0.8-0.8-0.7c-1.1,0.2-2.2,0.6-3,1.3c-0.4,0.3-0.4,0.8-0.1,1.1l3.2,3.2
								C36.1,12.3,36.6,12.1,36.6,11.7z"/>
							<path fill="#FFD15C" d="M38.3,12l3.2-3.2c0.3-0.3,0.3-0.9-0.1-1.1c-0.9-0.6-1.9-1.1-3-1.3c-0.4-0.1-0.8,0.3-0.8,0.7v4.5
								C37.5,12.1,38,12.3,38.3,12z"/>
							<path fill="#FFD15C" d="M39,12.7c-0.3,0.3-0.1,0.8,0.3,0.8h4.5c0.4,0,0.8-0.4,0.7-0.8c-0.2-1.1-0.6-2.1-1.3-3
								c-0.3-0.4-0.8-0.4-1.1-0.1L39,12.7z"/>
							<path fill="#FFD15C" d="M39.3,14.5c-0.4,0-0.6,0.5-0.3,0.8l3.2,3.2c0.3,0.3,0.9,0.3,1.1-0.1c0.6-0.9,1.1-1.9,1.3-3
								c0.1-0.4-0.3-0.8-0.7-0.8H39.3z"/>
							<path fill="#FFD15C" d="M36.6,16.2c0-0.4-0.5-0.6-0.8-0.3l-3.2,3.2c-0.3,0.3-0.3,0.9,0.1,1.1c0.9,0.6,1.9,1.1,3,1.3
								c0.4,0.1,0.8-0.3,0.8-0.7V16.2z"/>
							<path fill="#FFD15C" d="M38.3,15.9c-0.3-0.3-0.8-0.1-0.8,0.3v4.5c0,0.4,0.4,0.8,0.8,0.7c1.1-0.2,2.2-0.6,3-1.3
								c0.4-0.3,0.4-0.8,0.1-1.1L38.3,15.9z"/>
						</g>
						<g>
							<g>
								<path fill="#F7B64C" d="M38.8,8c0,0.3-0.3,0.9-0.5,0.8S38,8.2,38.1,7.9c0-0.3,0.2-0.5,0.5-0.5C38.7,7.4,38.9,7.7,38.8,8z"/>
							</g>
							<g>
								<path fill="#F7B64C" d="M39,10.4c-0.1,0.3-0.6,0.7-0.8,0.6c-0.2-0.1-0.1-0.7,0.1-1c0.1-0.3,0.4-0.4,0.6-0.3
									C39.1,9.8,39.1,10.1,39,10.4z"/>
							</g>
							<g>
								<path fill="#F7B64C" d="M40.7,8.9c-0.2,0.3-0.7,0.6-0.8,0.5c-0.2-0.1,0-0.7,0.2-1c0.2-0.3,0.5-0.4,0.6-0.3
									C40.8,8.3,40.9,8.6,40.7,8.9z"/>
							</g>
						</g>
						<g>
							<g>
								<path fill="#F7B64C" d="M42.6,11c-0.2,0.2-0.8,0.4-0.9,0.3c-0.1-0.2,0.2-0.7,0.4-0.9c0.2-0.2,0.6-0.2,0.7-0.1
									C42.9,10.5,42.8,10.8,42.6,11z"/>
							</g>
							<g>
								<path fill="#F7B64C" d="M40.9,12.8c-0.3,0.1-0.9,0.1-1-0.1c-0.1-0.2,0.4-0.5,0.7-0.6c0.3-0.1,0.6,0,0.7,0.2
									C41.4,12.4,41.2,12.7,40.9,12.8z"/>
							</g>
							<g>
								<path fill="#F7B64C" d="M43.2,12.9c-0.3,0.1-0.9,0-0.9-0.2c0-0.2,0.5-0.5,0.8-0.6c0.3-0.1,0.6,0,0.6,0.3
									C43.7,12.7,43.5,12.9,43.2,12.9z"/>
							</g>
						</g>
						<g>
							<g>
								<path fill="#F7B64C" d="M43.1,15.7c-0.3,0-0.9-0.3-0.8-0.5c0-0.2,0.6-0.3,0.9-0.3c0.3,0,0.6,0.2,0.5,0.4
									C43.7,15.6,43.4,15.8,43.1,15.7z"/>
							</g>
							<g>
								<path fill="#F7B64C" d="M40.7,15.9c-0.3-0.1-0.7-0.6-0.6-0.8s0.7-0.1,1,0.1c0.3,0.1,0.4,0.4,0.3,0.6
									C41.2,16,40.9,16,40.7,15.9z"/>
							</g>
							<g>
								<path fill="#F7B64C" d="M42.1,17.6c-0.3-0.2-0.6-0.6-0.5-0.8c0.1-0.2,0.7,0,1,0.2c0.3,0.2,0.4,0.4,0.3,0.6
									C42.7,17.7,42.4,17.7,42.1,17.6z"/>
							</g>
						</g>
						<g>
							<g>
								<path fill="#F7B64C" d="M40.1,19.5c-0.2-0.2-0.4-0.8-0.3-0.9c0.2-0.1,0.7,0.2,0.9,0.4c0.2,0.2,0.2,0.6,0.1,0.7
									C40.6,19.8,40.3,19.7,40.1,19.5z"/>
							</g>
							<g>
								<path fill="#F7B64C" d="M38.3,17.9c-0.1-0.3-0.1-0.9,0.1-1c0.2-0.1,0.5,0.4,0.6,0.7c0.1,0.3,0,0.6-0.2,0.7
									C38.6,18.3,38.4,18.2,38.3,17.9z"/>
							</g>
							<g>
								<path fill="#F7B64C" d="M38.1,20.1c-0.1-0.3,0-0.9,0.2-0.9c0.2,0,0.5,0.5,0.6,0.8c0.1,0.3,0,0.6-0.3,0.6
									C38.4,20.6,38.2,20.4,38.1,20.1z"/>
							</g>
						</g>
						<g>
							<g>
								<path fill="#F7B64C" d="M35.3,20c0-0.3,0.3-0.9,0.5-0.8c0.2,0,0.3,0.6,0.3,0.9c0,0.3-0.2,0.6-0.4,0.5
									C35.4,20.6,35.3,20.3,35.3,20z"/>
							</g>
							<g>
								<path fill="#F7B64C" d="M35.2,17.6c0.1-0.3,0.6-0.7,0.8-0.6c0.2,0.1,0.1,0.7-0.1,1c-0.1,0.3-0.4,0.4-0.6,0.3
									C35.1,18.2,35,17.9,35.2,17.6z"/>
							</g>
							<g>
								<path fill="#F7B64C" d="M33.5,19.1c0.2-0.3,0.6-0.7,0.8-0.5c0.2,0.1,0,0.7-0.2,1c-0.2,0.3-0.4,0.4-0.6,0.3
									C33.3,19.7,33.3,19.4,33.5,19.1z"/>
							</g>
						</g>
						<g>
							<g>
								<path fill="#F7B64C" d="M31.6,17c0.2-0.2,0.8-0.4,0.9-0.3c0.1,0.2-0.2,0.7-0.4,0.9s-0.6,0.2-0.7,0.1
									C31.2,17.6,31.3,17.3,31.6,17z"/>
							</g>
							<g>
								<path fill="#F7B64C" d="M33.2,15.2c0.3-0.1,0.9-0.1,1,0.1c0.1,0.2-0.4,0.6-0.7,0.7c-0.3,0.1-0.6,0-0.7-0.2
									C32.7,15.6,32.9,15.3,33.2,15.2z"/>
							</g>
							<g>
								<path fill="#F7B64C" d="M30.9,15.1c0.3-0.1,0.9,0,0.9,0.2c0,0.2-0.5,0.5-0.8,0.6c-0.3,0.1-0.6,0-0.6-0.3
									C30.4,15.4,30.6,15.2,30.9,15.1z"/>
							</g>
						</g>
						<g>
							<g>
								<path fill="#F7B64C" d="M31,12.3c0.3,0,0.9,0.2,0.9,0.5c0,0.2-0.6,0.3-0.9,0.3s-0.6-0.2-0.5-0.4
									C30.4,12.4,30.7,12.3,31,12.3z"/>
							</g>
							<g>
								<path fill="#F7B64C" d="M33.4,12.1c0.3,0.1,0.7,0.6,0.6,0.7c-0.1,0.2-0.7,0.1-1,0c-0.3-0.1-0.4-0.4-0.3-0.6
									C32.8,12,33.1,12,33.4,12.1z"/>
							</g>
							<g>
								<path fill="#F7B64C" d="M31.9,10.5c0.3,0.2,0.7,0.6,0.5,0.8c-0.1,0.2-0.7,0-1-0.1c-0.3-0.2-0.4-0.4-0.3-0.6
									C31.3,10.3,31.6,10.3,31.9,10.5z"/>
							</g>
						</g>
						<g>
							<g>
								<path fill="#F7B64C" d="M33.9,8.5c0.2,0.2,0.4,0.8,0.3,0.9C34,9.6,33.5,9.3,33.3,9c-0.2-0.2-0.2-0.5-0.1-0.7
									C33.4,8.2,33.7,8.3,33.9,8.5z"/>
							</g>
							<g>
								<path fill="#F7B64C" d="M35.8,10.1c0.1,0.3,0.1,0.9-0.1,1c-0.2,0.1-0.6-0.4-0.7-0.7c-0.1-0.3,0-0.6,0.2-0.7
									C35.4,9.6,35.7,9.8,35.8,10.1z"/>
							</g>
							<g>
								<path fill="#F7B64C" d="M35.9,7.9c0.1,0.3,0,0.9-0.2,0.9c-0.2,0-0.5-0.5-0.6-0.8c-0.1-0.3,0-0.6,0.3-0.6
									C35.6,7.3,35.8,7.5,35.9,7.9z"/>
							</g>
						</g>
					</g>
				</g>
				<g>
					<g>
						<path fill="#F3F3F3" d="M27.3,46.6H12.9c1.4-1.8,3.4-3.2,5.7-3.6v-6.4L3,14h34.1L21.6,36.6V43C23.9,43.4,26,44.7,27.3,46.6z"
							/>
					</g>
				</g>
			</g>
			<g>
				<g>
					<path fill="#F3705A" d="M10.4,2.8c1.7,2.6,0.3,6.8-0.5,8.6l10.5,15.8c0.7,1.1-0.6,2-1.4,0.9L8.6,12.3c-1.9,0-6.3-0.3-8.1-2.9
						C-0.4,8-0.1,6.1,1.3,5.2c1.1-0.8,2.6-0.7,3.6,0.1C4.6,4.1,5.1,2.7,6.2,2C7.6,1,9.5,1.4,10.4,2.8z"/>
				</g>
				<g>
					<g>
						<polygon fill="#FFD15C" points="12.5,21.8 20.1,32.9 27.6,21.8 						"/>
					</g>
				</g>
			</g>
		</g>
		<g opacity="0.4">
			<g>
				<polygon fill="#F3F3F3" points="17.9,21.8 14,21.8 8.8,14 12.6,14 				"/>
			</g>
		</g>
	</g>
</g>
</svg>
