<?xml version="1.0" encoding="utf-8"?>
<!-- Generator: Adobe Illustrator 19.0.1, SVG Export Plug-In . SVG Version: 6.00 Build 0)  -->
<svg version="1.1" id="Layer_1" xmlns="http://www.w3.org/2000/svg" xmlns:xlink="http://www.w3.org/1999/xlink" x="0px" y="0px"
	 viewBox="0 0 48 48" style="enable-background:new 0 0 48 48;" xml:space="preserve">
<style type="text/css">
	.st0{fill:#66C6B9;}
	.st1{fill:#F3F3F3;}
	.st2{fill:#415A6B;}
	.st3{fill:#CED6E0;}
	.st4{fill:#F3705A;}
	.st5{fill:#E8EAE9;}
	.st6{fill:#4ABAA5;}
	.st7{fill:#F05540;}
	.st8{fill:#FFD15C;}
	.st9{fill:#55C0EB;}
	.st10{fill:#8AD7F8;}
	.st11{fill:#344A5E;}
	.st12{fill:#FFFFFF;}
	.st13{fill:#F7B64C;}
	.st14{fill:#ADB3BA;}
	.st15{fill:#38A892;}
	.st16{fill:#ED9845;}
	.st17{fill:#2D4251;}
	.st18{fill:#304556;}
	.st19{fill:#A5AAAD;}
	.st20{fill:#2D4456;}
	.st21{fill:#4FB0E0;}
	.st22{fill:#2D4354;}
	.st23{fill:#E54C38;}
	.st24{fill:#2B4456;}
	.st25{fill:#2B404F;}
</style>
<g>
	<g>
		<g>
			<g>
				<g>
					<g>
						<path class="st11" d="M16.4,35.3l-0.3-0.4c0,0-0.4-0.9,0.2-1.8l2.9-0.6c0,0,1,1,1.5,1.2c0.5,0.2,1.6,0.6,2,0.7
							c0.4,0,0.8,0.2,0.8,0.6c0,0.4-1.2,1-1.8,1c-0.6,0.1-2.3,0.1-2.7-0.1C18.6,35.8,17.2,35.3,16.4,35.3z"/>
					</g>
					<g>
						<path class="st2" d="M23.5,35c0,0-0.2,0.3-0.5,0.5c-0.3,0.2-2.2,0.6-2.8,0.5c-0.6-0.1-1.7-0.6-2.3-0.7
							c-0.6-0.1-1.6-0.2-1.8-0.4l0,0.7l1.5,0.3l0.1-0.3c0,0,0.8,0.2,1.2,0.3c0.4,0.2,1.2,0.4,2.4,0.2C22.6,35.9,23.9,35.7,23.5,35z"
							/>
					</g>
				</g>
				<g>
					<path class="st2" d="M5.1,24c0,0,0.7,2.7,1.3,4.6S7.2,33,7,33.9c-0.2,1-0.9,5.8-0.9,7.6s0,2.3,0,2.3s0.9,0.6,1.9,0.2
						c1-0.4,1.3-1.2,1.3-1.2s-0.4-1.4-0.1-2.4c0.2-1,0.6-4.4,0.9-5.3c0.3-0.9,0.5-1.9,0.6-2.5c0-0.6,0.3-2.9,0.3-4.1
						c0-1.2,0.3-3.7,0.3-3.7s3.7-0.2,5.3-0.6c0,0-0.2,2.8-0.2,4.3s0,4.6,0,4.6s0.4,0.2,1.2,0.2s1.8-0.5,2.1-0.4c0,0-0.1-3.4-0.1-4.6
						c0-1.2,0.4-3.6,0.6-4.6c0.2-1-0.1-2.1-0.9-2.7c-0.9-0.5-6.3-1.7-8.1-1.9c-1.8-0.2-1.8-0.2-1.8-0.2L5.1,24z"/>
				</g>
				<g>
					<path class="st3" d="M9.8,8.3c0,0,1.1,3.1,1.3,4.2c0.2,1,0.2,1,0.2,1L8.5,8.2L9.8,8.3z"/>
				</g>
				<g>
					<path class="st11" d="M9.9,8.4c0,0,1.1,3.1,1.3,4.2s0.4,1.9,0.4,1.9s0.3-1,0.1-2c-0.2-1-0.6-2.3-1-3.4c-0.4-1-0.7-1.5-0.7-1.5
						L9.9,8.4"/>
				</g>
				<g>
					<path class="st8" d="M11.7,1.6l0.7,0.5c0,0,0.2,0.9,0.1,1.3c-0.1,0.3-0.1,0.3,0,0.6c0.1,0.2,0.5,0.7,0.5,0.7s0.1,0.3-0.1,0.4
						s-0.4,0.1-0.4,0.1s0.1,0.3,0,0.4c0,0,0.2,0.1,0,0.4c-0.2,0.2,0.1,0.5,0,0.8c-0.1,0.4-1.5,0.3-1.7,0.3C10.4,7,9,9.5,9,9.5l-2-3
						l0.2-0.7l0.8-2.4L11.7,1.6z"/>
				</g>
				<g>
					<path class="st2" d="M12.3,2.2c0,0,0.6-0.3,0.7-1s-1-0.6-1.6-0.9C10.9,0.1,8.8-0.6,7.5,1S7.2,5.9,7.2,5.9s1.3-0.8,1.4-1.5
						c0.1-0.7,0.3-1.1,0.8-1c0.5,0.1,0.7,1,0.7,1l0.4-0.1c0,0-0.4-0.4,0.1-0.9c0.4-0.5,0.8-0.5,0.7-1C11.3,1.9,12.3,2.2,12.3,2.2z"
						/>
				</g>
				<g>
					<path class="st1" d="M7.2,5.9c0,0,0.5,0.4,1.2,0.8c0.7,0.4,1.4,1,1.6,1.4c0,0-0.2,1-0.6,1.6s-0.4,0.6-0.4,0.6L7,6.5L7.2,5.9z"
						/>
				</g>
				<g>
					<ellipse transform="matrix(-0.986 0.1669 -0.1669 -0.986 19.1183 6.0522)" class="st8" cx="9.3" cy="3.8" rx="0.6" ry="0.8"/>
				</g>
				<g>
					<g>
						<path class="st11" d="M6.4,7.2c0,0-0.7,0.2-1.4,1.1c-0.7,0.9-1.2,1.9-1.2,1.9s0.8-1.2,1.9-1c1.1,0.2,1.7,2,1.6,2.7
							c-0.1,0.7-2.5,4.9-2.6,5.7s-0.6,7.5-0.6,7.5s3.8,0.8,5.3,0.2c1.5-0.6,2-1.4,2-2.6c0.1-1.3,0-2.6,0-2.6s1.3,0,1.7-0.4
							c0,0,0.3-0.1-0.5-0.4s-1.4-0.7-1.4-0.7s0-1.9,0.1-2.4c0.1-0.5,0.3-1.9,0.2-2.5c-0.2-0.6-3.8-6-3.8-6L6.4,7.2z"/>
					</g>
					<g>
						<path class="st2" d="M7,6.4c0,0,0,0.2,0.3,0.4C7.6,7,8.9,8.7,10,10.1s1.5,2.6,1.6,3.6c0.2,1-0.3,2.1-0.3,2.5
							c0,0,0.1-1.1,0.1-1.7c0-0.6-0.7-1.9-0.9-2.1c-0.2-0.2-2.6-3-2.6-3l0.2-0.6L7.6,8.6c0,0-0.5-0.6-0.8-0.9C6.4,7.3,6.4,7.2,6.6,7
							C6.7,6.8,6.8,6.5,7,6.4z"/>
					</g>
				</g>
				<g>
					<path class="st2" d="M3.8,10.2c0,0,0.5-1.1,1.4-1.3s2.7,0.8,2.2,3.4s-1.9,4.1-2.2,4.7c-0.3,0.6-0.7,1-0.7,1S4.4,20,4.7,22
						s0.4,2.4,0.4,2.4S4.6,25,2.5,25c0,0-0.4-3.6-0.5-4.4c-0.1-0.8-0.4-1.6-0.3-2.3C1.8,17.6,2,17,2.3,16.2c0.3-0.8,0.5-1.8,0.5-1.8
						s-0.1-0.9,0.4-1.1c0,0,0.1-0.8,0.2-1.1S3.6,10.7,3.8,10.2z"/>
				</g>
				<g>
					<path class="st11" d="M11.7,21.1c0-0.2,0-0.5,0.1-0.7c0.1-0.2,0.1-0.3,0.1,0.2c-0.1,1,0,1.3-0.1,1.8c0,0,1.3-2.5,1-2
						c-0.2,0.5-0.8,2-0.8,2c0,0,1-1.2,0.9-1c0,0.2-0.9,1.3-1,1.6c-0.1,0.3,0.5,1.4,1.8,1.6c-1.3,0.1-2.4,0.2-2.4,0.2
						S11.7,22.4,11.7,21.1z"/>
				</g>
				<g>
					<g>
						<path class="st11" d="M6,45.4L5.7,45c0,0-0.3-1,0.4-1.7L9,43c0,0,0.9,1.1,1.4,1.3c0.5,0.3,1.5,0.8,2,0.9s0.8,0.3,0.7,0.7
							c-0.1,0.4-1.3,0.8-1.9,0.9c-0.6,0-2.3-0.2-2.7-0.4S6.8,45.5,6,45.4z"/>
					</g>
					<g>
						<path class="st2" d="M13.1,45.8c0,0-0.2,0.3-0.6,0.4c-0.4,0.1-2.3,0.4-2.9,0.2C9,46.3,8,45.7,7.4,45.6
							c-0.5-0.2-1.5-0.4-1.7-0.6l-0.1,0.7l1.4,0.5l0.1-0.2c0,0,0.8,0.3,1.2,0.5c0.4,0.2,1.2,0.5,2.4,0.4
							C12,46.7,13.4,46.6,13.1,45.8z"/>
					</g>
				</g>
			</g>
			<g>
				<path class="st8" d="M6.1,26.6c0,0.1,0,0.1,0.1,0.2c0,0.2,0.2,0.4,0.2,0.5c0.1,0.2,0.1,0.6,0.1,0.6l0.1,0.5
					C6.1,28.5,6,28.2,6,28.2l-0.2-1.3L6.1,26.6z"/>
			</g>
			<g>
				<path class="st13" d="M6,28.2c0,0,0-0.1,0-0.2c0-0.1,0-0.3,0-0.4c0-0.1,0-0.2,0-0.2c0-0.1,0-0.1,0-0.2c0-0.1-0.1-0.2-0.1-0.2
					s0,0.1,0,0.2c0,0.1,0,0.1,0,0.2c0,0.1,0,0.2,0,0.2c0,0.2,0,0.3,0.1,0.4C6,28.1,6,28.2,6,28.2z"/>
			</g>
			<g>
				<g>
					<path class="st6" d="M3.2,28.6c0-0.7,0.6-1.2,1.2-1.2h1.4c0.7,0,1.2,0.6,1.2,1.2v2.5H3.2V28.6z M6.4,28.6
						c0-0.3-0.2-0.6-0.6-0.6H4.4c-0.3,0-0.6,0.2-0.6,0.6v1.8h2.5V28.6z"/>
				</g>
			</g>
			<g>
				<path class="st6" d="M0.3,29.7v5.8c0,0.3,0.3,0.6,0.6,0.6h8.5c0.3,0,0.6-0.3,0.6-0.6v-5.8c0-0.3-0.3-0.6-0.6-0.6H0.9
					C0.6,29.1,0.3,29.4,0.3,29.7z"/>
			</g>
			<path class="st8" d="M3.3,24.7l1.5-0.4c0,0,0.3,0.8,0.4,0.9c0.1,0.1,0.6,0.9,0.8,1.2c0,0,0.1,0.1,0.1,0.1l-0.2,0.3L6,28.2
				c0,0.1,0,0.4-0.2,0.5c-0.2,0.1-0.3-0.1-0.3-0.1c0,0,0,0.2-0.2,0.2c-0.2,0-0.4-0.4-0.4-0.4s0,0.3-0.3,0.3c-0.2,0-0.3-0.5-0.3-0.5
				s-0.1,0.1-0.2,0.2c-0.1,0-0.3-0.1-0.3-0.4c-0.1-0.3-0.3-1.7-0.2-2.1C3.5,25.5,3.3,24.8,3.3,24.7C3.3,24.7,3.3,24.7,3.3,24.7z"/>
			<g>
				<g>
					<path class="st13" d="M5.5,28.6C5.5,28.6,5.5,28.5,5.5,28.6c0-0.2,0-0.2,0-0.3c0,0,0-0.1,0-0.1c0,0,0,0,0-0.1c0,0,0,0,0,0
						c0-0.1,0-0.1,0-0.1s0,0,0,0.1c0,0,0,0,0,0c0,0,0,0,0,0c0,0,0,0.1,0,0.1C5.4,28.4,5.4,28.4,5.5,28.6C5.5,28.5,5.5,28.6,5.5,28.6
						z"/>
				</g>
				<g>
					<g>
						<path class="st13" d="M4.9,28.4C4.9,28.4,4.9,28.4,4.9,28.4c0-0.1,0-0.1,0-0.2c0,0,0-0.1,0-0.1c0,0,0,0,0,0s0,0,0,0.1
							c0,0,0,0.1,0,0.1C4.8,28.3,4.9,28.3,4.9,28.4C4.9,28.4,4.9,28.4,4.9,28.4z"/>
					</g>
					<g>
						<path class="st13" d="M4.3,28.2C4.3,28.2,4.3,28.1,4.3,28.2c0-0.1,0-0.1,0-0.2c0,0,0-0.1,0-0.1c0,0,0,0,0,0s0,0,0,0.1
							c0,0,0,0.1,0,0.1C4.2,28.1,4.3,28.1,4.3,28.2C4.3,28.1,4.3,28.2,4.3,28.2z"/>
					</g>
				</g>
			</g>
			<g>
				<g>
					<rect x="7.7" y="29.1" class="st0" width="0.8" height="6.9"/>
				</g>
				<g>
					<rect x="1.7" y="29.1" class="st0" width="0.8" height="6.9"/>
				</g>
			</g>
		</g>
		<g>
			<g>
				<path class="st4" d="M48,16.7l-1.6,5.5l-1.3-1.3l-7.3,7.3h-9.3v8.4c0,0.5-0.4,1-1,1l-11.8,0V47c0,0.5-0.4,1-1,1H0v-1.9h14v-9.5
					c0-0.5,0.4-1,1-1h11.8l0-8.5c0-0.5,0.4-1,1-1h9.4l6.7-6.7l-1.3-1.3L48,16.7z"/>
			</g>
		</g>
	</g>
</g>
</svg>
