<?xml version="1.0" encoding="utf-8"?>
<!-- Generator: Adobe Illustrator 18.0.0, SVG Export Plug-In . SVG Version: 6.00 Build 0)  -->
<!DOCTYPE svg PUBLIC "-//W3C//DTD SVG 1.1//EN" "http://www.w3.org/Graphics/SVG/1.1/DTD/svg11.dtd">
<svg version="1.1" id="Layer_1" xmlns="http://www.w3.org/2000/svg" xmlns:xlink="http://www.w3.org/1999/xlink" x="0px" y="0px"
	 viewBox="0 0 48 48" enable-background="new 0 0 48 48" xml:space="preserve">
<g>
	<g>
		<g>
			<g>
				<g>
					<g>
						<path fill="#F3705A" d="M40.9,46.8C38.2,41,30,43.4,27.3,37.5c2.4-3.5,4.7-7,7.1-10.5c2.7,5.8,10.9,3.4,13.6,9.2
							C45.6,39.7,43.3,43.2,40.9,46.8z"/>
					</g>
				</g>
				<g>
					<g>
						<path fill="#F3705A" d="M40.9,46.8C38.2,41,30,43.4,27.3,37.5c2.4-3.5,4.7-7,7.1-10.5c2.7,5.8,10.9,3.4,13.6,9.2
							C45.6,39.7,43.3,43.2,40.9,46.8z"/>
					</g>
				</g>
			</g>
			<g>
				<g>
					<g>
						<path fill="#344A5E" d="M20.3,47.8c-0.5-0.3-0.7-1.1-0.3-1.6l13.6-20c0.3-0.5,1.1-0.7,1.6-0.3c0.5,0.3,0.7,1.1,0.3,1.6
							l-13.6,20C21.5,48,20.8,48.2,20.3,47.8z"/>
					</g>
				</g>
			</g>
		</g>
		<g>
			<g>
				<g>
					<g>
						<path fill="#F3705A" d="M7.1,46.8C9.8,41,18,43.4,20.7,37.5c-2.4-3.5-4.7-7-7.1-10.5C10.9,32.8,2.7,30.4,0,36.2
							C2.4,39.7,4.7,43.2,7.1,46.8z"/>
					</g>
				</g>
				<g>
					<g>
						<path fill="#F3705A" d="M7.1,46.8C9.8,41,18,43.4,20.7,37.5c-2.4-3.5-4.7-7-7.1-10.5C10.9,32.8,2.7,30.4,0,36.2
							C2.4,39.7,4.7,43.2,7.1,46.8z"/>
					</g>
				</g>
			</g>
			<g>
				<g>
					<g>
						<path fill="#415A6B" d="M27.7,47.8c0.5-0.3,0.7-1.1,0.3-1.6l-13.6-20c-0.3-0.5-1.1-0.7-1.6-0.3c-0.5,0.3-0.7,1.1-0.3,1.6
							l13.6,20C26.5,48,27.2,48.2,27.7,47.8z"/>
					</g>
				</g>
			</g>
		</g>
	</g>
	<g>
		<g>
			<g>
				<g>
					<path fill="#FFD15C" d="M22.5,13.4c0,0-0.1-2,0.6-3.5c0.4-1.9,0.2-2,0.2-2l-1.6-5.4c0,0-0.5-1.8,1.1-2.3s2.4,0.7,2.4,0.7
						s2.3,3.3,2.2,5.4C27.3,8.3,27,8.9,27.7,10s0.9,2.8,0.9,2.8s0.8,2.1,0.7,2.6c0,0,1.6,0.9,1.3,2.8c-0.3,2-0.4,1.7-0.4,1.7
						s1.2,0.8,0.9,2.6c-0.2,1.8-0.9,2-0.9,2s0.6,0.9,0.5,2.1c-0.1,1.6-1.1,1.6-1.1,1.6s0,2.1-0.3,2.7c-0.3,0.6-1.5,1.1-1.8,1.1
						c-0.3,0-2.3,0.3-2.3,0.3s-1.1,1-2.3,0.9c-1.2-0.1-3.5-1.1-3.5-1.1s-1.2-0.3-1.2-4c0,0-1-1.2-0.8-3.3c0,0,0-0.8-0.4-1.5
						c0,0-0.5-1.5,0.3-2.6c0.3-0.9,0.1-2.6,0.1-2.6s-0.6-2.2,1.8-3.4c0.8-0.4,1.9-0.5,1.9-0.5S22.2,13.3,22.5,13.4z"/>
				</g>
			</g>
			<g>
				<g>
					<g>
						<g>
							<path fill="#F7B64C" d="M23.6,7.3c0,0,0.2,0.1,0.6,0.1c0.4,0,0.8,0,1.3-0.1c0.2,0,0.5-0.1,0.7-0.2c0.2-0.1,0.4-0.2,0.6-0.2
								c0.3-0.1,0.5-0.3,0.5-0.3S27.1,6.8,26.8,7c-0.3,0.2-0.7,0.4-1.2,0.6c-0.5,0.1-1,0.1-1.4,0C23.8,7.5,23.6,7.3,23.6,7.3z"/>
						</g>
					</g>
					<g>
						<g>
							<path fill="#F7B64C" d="M24.7,7.1c0,0,0.2-0.1,0.4-0.2c0.1,0,0.2-0.1,0.4-0.2c0.1,0,0.1-0.1,0.2-0.1l0.2-0.1
								c0.3-0.1,0.6-0.3,0.8-0.3c0.2-0.1,0.4-0.1,0.4-0.1S27,6.2,26.8,6.3c-0.2,0.1-0.5,0.3-0.8,0.4l-0.2,0.1
								c-0.1,0-0.2,0.1-0.2,0.1C25.4,7,25.2,7,25.1,7C24.8,7.1,24.7,7.1,24.7,7.1z"/>
						</g>
					</g>
				</g>
				<g>
					<g>
						<path fill="#F7B64C" d="M26.6,14.7c0,0,0,0-0.1,0c-0.1,0-0.2-0.1-0.3-0.2c-0.2-0.2-0.4-0.5-0.6-0.8c-0.2-0.3-0.4-0.6-0.5-0.8
							c-0.1-0.2-0.2-0.4-0.2-0.4s0.1,0.2,0.2,0.4c0.1,0.2,0.3,0.5,0.6,0.8c0.2,0.3,0.5,0.5,0.7,0.7c0.1,0.1,0.2,0.1,0.2,0.1
							c0.1,0,0.1,0,0.1,0L26.6,14.7z"/>
					</g>
				</g>
			</g>
			<g>
				<g>
					<path fill="#F7B64C" d="M23.4,19.9c0,0-1-0.2-1.4-0.6C21.9,19.3,23.2,19.8,23.4,19.9l1.7-0.2l-1.4-0.4c0,0,1.7,0.2,2.2,0.5
						c0,0,2.5,0.8,3.9,0l0.4,0.1V20c0,0-0.3-0.1-0.4,0c-0.2,0-1.3,0.3-2.4,0.1c-1.1-0.2-1.9-0.4-1.9-0.4L23.4,19.9z"/>
					<path fill="#F7B64C" d="M28.1,20.3c-0.3,0-0.5,0-0.8-0.1c-1.1-0.2-1.8-0.3-1.9-0.4l-2,0.1l0,0c0,0-1-0.2-1.5-0.6l-0.3-0.3
						l0.3,0.1c0.5,0.2,1.3,0.5,1.5,0.6l1.2-0.1l-1-0.3l0-0.1c0.1,0,1.7,0.2,2.2,0.5c0,0,2.5,0.7,3.8,0l0,0l0.5,0.1v0.3l-0.1,0
						c-0.1,0-0.3-0.1-0.4,0C29.6,20.1,28.9,20.3,28.1,20.3z"/>
				</g>
			</g>
			<g>
				<g>
					<path fill="#F7B64C" d="M22.1,28.5c0,0,0.4-0.3,1.9-0.3c1.6,0.1,1.6,0.1,1.6,0.1s3.4,0.3,4-0.1v0.1c0,0-1.4,0.2-2.7,0.1
						s-1.3-0.1-1.3-0.1S22.6,28.1,22.1,28.5z"/>
				</g>
			</g>
		</g>
		<g>
			<g>
				<path fill="#F7B64C" d="M22,13.8c-0.1,0-0.1,0-0.1,0C22,13.8,22,13.8,22,13.8z"/>
			</g>
			<g>
				<g>
					<path fill="#F7B64C" d="M28.5,14.8l-1.7-0.2l-0.3-0.8l0.2,0.8c0,0-0.7-0.2-1.2-1.2c0.1,0.2,0.5,0.9,0.8,1.2c0,0,0,0,0,0l-0.5,0
						l-0.3-0.4c-0.6-0.8-1.2-1.6-2-2.4l0,0l0,0c0.7,0.8,1.4,1.7,2,2.5l0,0.1l-0.4,0c0,0-0.3-0.9-1.9-1.2c0,0,1.3,0.5,1.6,1.1
						c-0.2-0.1-0.9-0.3-1.2-0.3c0,0-1.1-0.3-1.6-0.4c0.3,0.1,1.1,0.2,1.3,0.4l-2.1-0.1c0,0,1.1,0.1,1.3,0.3c0,0,1.3-0.1,2.5,0.4
						c0.2,0,0.7,0,1.2,0l0,0l0.2,0c0.9,0,2.1,0.2,2.7,0.6C29,15.2,28.7,15,28.5,14.8z"/>
				</g>
			</g>
		</g>
	</g>
	<path fill="#F7B64C" d="M30,28.1c-0.2,0.1-0.3,0.1-0.3,0.1s0,0.1,0,0.2c-0.1,0-1.1,0.2-2,0.2c-0.2,0-0.4,0-0.7,0l-1.3-0.1
		c-0.8-0.1-3.1-0.2-3.5,0.1L22,28.4c0,0,0.4-0.3,1.7-0.3c0.1,0,0.2,0,0.3,0l1.6,0c0,0,3.4,0.3,4,0L30,28.1z"/>
	<path fill="#F7B64C" d="M28.9,24.9c0,0,0.8,0,1.4-0.2c-0.1-0.1-0.1-0.2-0.1-0.2s0,0,0.1,0c0,0-0.8,0.2-1,0.2h-0.5l-1.3-0.2
		l-1.6-0.1c-0.8,0-2.7-0.3-2.7-0.3l0.2,0.1l-0.6,0.1c0.5,0.1,2.5,0.4,3.3,0.4C26.9,24.6,28.9,24.9,28.9,24.9z"/>
</g>
</svg>
