<?xml version="1.0" encoding="utf-8"?>
<!-- Generator: Adobe Illustrator 18.0.0, SVG Export Plug-In . SVG Version: 6.00 Build 0)  -->
<!DOCTYPE svg PUBLIC "-//W3C//DTD SVG 1.1//EN" "http://www.w3.org/Graphics/SVG/1.1/DTD/svg11.dtd">
<svg version="1.1" id="Layer_1" xmlns="http://www.w3.org/2000/svg" xmlns:xlink="http://www.w3.org/1999/xlink" x="0px" y="0px"
	 viewBox="0 0 48 48" enable-background="new 0 0 48 48" xml:space="preserve">
<g>
	<g>
		<g>
			<g>
				<path fill="#425A6B" d="M16.4,33.9c0,0-0.1,0.1-0.1,0.2c-0.5,0.6-1.9,3-1.7,6.7c0.3,4.4,0.9,7.3,0.9,7.3h7.9l0.4-2.8l1.5,2.8
					h9.2c0,0-0.8-3.3-0.8-3.7c0-0.4,0.1-0.6-0.2-0.9c-0.3-0.3-0.4-0.5-0.4-1c0-0.5,0.4-2.5,0.4-2.5c0.2-0.7-0.8-1.9-1.5-3"/>
			</g>
		</g>
		<g>
			<g>
				<path fill="#F26F5A" d="M27.7,2.9c0.1,0.8,0.2,1.5,0.4,2.3c0.1,0.8,0.3,1.7,0.6,2.5c0.5,1.3,1.5,2.3,2.2,3.5
					c0.8,1.1,1.4,2.5,1,3.9c-0.2-0.9-1.1-1.4-1.9-1.7c-0.8-0.3-1.7-0.4-2.5-0.9c-1.2-0.7-2-2.1-2.2-3.5c-0.3-1.4-0.1-2.8,0.1-4.3"/>
			</g>
		</g>
		<g>
			<g>
				<path fill="#FFD15C" d="M28.2,7.9c0,0-0.2,2-0.9,2.8l1.2,2l0.1,3.7l-1.8,1.1l-4.6-1.1l0.1-3.3c0,0,0.4-2.4,0.5-2.6
					c0,0-0.9-1.8-1.1-3.4c-0.2-1.6-0.2-1.6-0.2-1.6L22,4c0,0-0.5-1.1,1.1-1.3c1.5-0.2,5.1,0.1,5.1,0.1s1,2.2,0.8,3.2
					C28.7,7,28.2,7.9,28.2,7.9z"/>
			</g>
		</g>
		<g>
			<g>
				<path fill="#F3F3F3" d="M22.1,15.5c2.5,1.9,5.1,1.9,7.6,0l2.9,21.6c0,0-3.1,1.6-8,0.4s-7.5-2.5-8.1-3c-0.6-0.6,2.4-6.6,2.4-6.6"
					/>
			</g>
		</g>
		<g>
			<path fill="#F5B54C" d="M25.3,12.1c-1.2,0.1-2.4-1.4-2.4-1.4c-0.1,0.2-0.5,2.6-0.5,2.6l-0.1,2c0.9-0.5,2.2-1.1,3.1-1.6
				c1.4-0.7,0-0.2-0.9-0.4c-0.9-0.1,0.9-0.3,1.8-0.9c0.8-0.6,1.1-1.7,1.1-1.7S26.4,12,25.3,12.1z"/>
		</g>
		<g>
			<g>
				<path fill="#425A6B" d="M33.8,13c0,0-0.9,1-1,2.3c0,1.3,0.6,3.6,0.6,3.6s-0.6,3.9-0.6,6.1c0,2.2,0.5,7.1,0.5,8.4
					c0,1.3-0.8,3.7-0.8,3.7s3.5,2,2,2.9c0,0,0.5,0,1-1.1c0.4-1.1,0.6-1.4,0.8-2c0.2-0.6,0-5.7,0-7s-0.1-2-0.3-2.9
					c-0.2-0.9-0.2-1.6-0.5-2.6c-0.2-1-0.3-2.8-0.3-4.3C35.3,18.6,35.1,13.6,33.8,13z"/>
			</g>
		</g>
		<g>
			<g>
				<path fill="#425A6B" d="M15.2,32c0.1-0.2,0.2-0.3,0.3-0.6c0.2-0.7,0.9-2.1,0.9-2.8c0.1-0.7,0.8-4.3,0.8-4.3l1.3-2.1L18,13.3
					l-1.3-0.2c0,0-0.5-0.3-1,1.2c-0.5,1.5-1.4,6.6-1.6,7.7c-0.2,1.1-0.7,2.4-1,3.1c-0.3,0.7-0.9,3.5-0.9,3.5s-0.2,1.9-0.4,3.4H15.2z
					"/>
			</g>
		</g>
		<g>
			<g>
				<path fill="#344A5E" d="M21.7,26.1c0,0-1.2,3.9-1.6,4.5c-0.3,0.6-3.1,4.2-3.6,4.8S15.8,36,15.8,36L14,35.2c0,0,3.1-4,3.3-4.7
					s-0.1-6.5-0.1-6.5l0.2-3.1c0,0-0.2-6.9-0.6-7.9c0,0,1.5,0,2.1-0.2c0.6-0.2,3.2-0.8,3.2-0.8v3.8L21.7,26.1z"/>
			</g>
		</g>
		<g>
			<g>
				<path fill="#FFD15C" d="M14.5,38.9c0,0,1.5-2.3,2-2.5c0,0,1.4,0,1.8,0c0.3,0,0.4-0.7,0-0.8c-0.4-0.1-2.1-0.4-2.1-0.4l-1.1-0.4
					l-2.8,0.5C12.4,35.4,11.8,36.3,14.5,38.9z"/>
			</g>
		</g>
		<g>
			<g>
				<path fill="#344A5E" d="M29.3,12.6c0,0,3.4,0.4,3.9,0.4c0.5,0,0.7,0,0.7,0s-0.5,4.1-0.4,5.9c0,0,0.5,19.6,1.1,20.4
					c0,0-2.3-0.5-2.6-2.2c-0.3-1.7-2.1-9.1-2.1-9.1"/>
			</g>
		</g>
		<g>
			<g>
				<path fill="#FFD15C" d="M32.9,36.9c0,0-0.7,0.7-1,0.8c-0.2,0.2-0.7,0.5-0.5,0.9c0.2,0.4,0.4,0.4,0.7,0.1
					c0.3-0.3,0.4-0.4,0.4-0.4s0.9,1.1,0.9,1.5c0,0,0.5-0.4,0.8-0.7c0.3-0.3,0.9-0.6,0.9-0.6S33.5,36.8,32.9,36.9z"/>
			</g>
		</g>
		<g>
			<g>
				<ellipse transform="matrix(0.9771 -0.2128 0.2128 0.9771 -0.9877 4.7422)" fill="#FFD15C" cx="21.5" cy="7" rx="0.5" ry="1.3"/>
			</g>
		</g>
		<g>
			<g>
				
					<ellipse transform="matrix(-0.9771 -0.2129 0.2129 -0.9771 55.2234 20.2157)" fill="#FFD15C" cx="28.7" cy="7.1" rx="0.5" ry="1.3"/>
			</g>
		</g>
		<g>
			<g>
				<path fill="#425A6B" d="M27.4,10.7c0,0,1.2,7.8,1.2,9.3c0.2,3.5,2.3,12.6,2.3,12.6s-0.9-6.4-1-7.6c-0.1-1.3,0.6-5.7,1-7.1
					c0.4-1.4,0.8-3.5,0.8-3.5l-2.1-0.7l1.1,0.1C30.6,13.7,28.4,11.2,27.4,10.7z"/>
			</g>
		</g>
		<g>
			<g>
				<path fill="#425A6B" d="M22.9,10.7c0,0-0.5,0.4-0.8,1.1c-0.3,0.7-1.4,1.4-1.7,1.9l1.2,0.7l-2.1-0.2c0,0,0.3,3.2,1.1,4.5
					c0.8,1.4,1,9.1-0.4,11.9c0,0,2.3-4,2.5-7.7C22.9,19.2,22.4,12.6,22.9,10.7z"/>
			</g>
		</g>
		<g>
			<g>
				<path fill="#425A6B" d="M15.4,31.4c0.1-0.4,0.3-1,0.5-1.5h-4c-0.1,1.2-0.3,3-0.3,3.6c0,1,0.8,4.5,0.8,4.5s0.9-1.5,1.9-1.9
					c1-0.4,1.4-1.1,1.4-1.1s-0.8-1.5-0.9-2.1C14.8,32.2,15.3,32.1,15.4,31.4z"/>
			</g>
		</g>
		<g>
			<g>
				<path fill="#425A6B" d="M36.3,36.8c-0.2,0.6-0.4,0.9-0.8,2c-0.4,1.1-1,1.1-1,1.1c1.5-0.9-2-2.9-2-2.9s0.8-2.5,0.8-3.8
					c0-1.2-0.5-6.2-0.5-8.4c0-2.2,0.6-6.1,0.6-6.1h1.8c0,0.5,0,0.9,0,1.2c0,1.5,0,3.3,0.3,4.3c0.2,1,0.3,1.8,0.5,2.6
					c0.2,0.9,0.3,1.6,0.3,2.9C36.3,31.2,36.4,36.2,36.3,36.8z"/>
			</g>
		</g>
		<g>
			<path fill="#344A5E" d="M25.7,48l-1.5-2.9c0.3,0.2,2,0.6,3.2,0.8c1.2,0.2,2.2-0.3,0.3-0.3c-1.9,0-3.4-0.7-2.8-0.6
				c0.6,0.1,2.3,0.1,4.3,0.1c2,0,0.9-0.3,0.1-0.3c-0.8,0-2.7-0.2-3.9-0.5C24.2,44,24.9,44,25.5,44c0.5,0,1.1,0.1,2.7,0.1
				c1.5,0,2.7,0.3,3.6,0.2s-1.3-0.2-3.2-0.3c-1.9-0.1-3.8-0.6-4.1-0.8c-0.3-0.2-1.1-1.1-2.7-1.9c-1.6-0.8-3.6-0.7-2.3-0.4
				c1.3,0.3,4.2,2.1,4.8,2.5c0.6,0.4,0.1,0.3-0.6,0c-0.7-0.3-2.7-0.8-4.6-1.1c-1.8-0.3-1.4,0.1-0.2,0.3c1.2,0.2,3.9,1.2,4.6,1.5
				c0.7,0.3,0.7,0.6,0.3,0.5c-0.4-0.2-1.8-0.1-2.8,0c-1,0.1-0.4,0.2-0.4,0.2c3.4-0.2,3.4,0.5,3.4,0.5l1.5,2.8H25.7z"/>
		</g>
	</g>
	<g>
		<g>
			<path fill="#F26F5A" d="M21.8,6.4v0.4h0.2c0,0,0-0.8,0-1.6c0-0.8,0.3-2,1.1-1.9c0.9,0.1,2.7,0.7,4,0.2c1.2-0.5,1.7,1.1,1.7,1.6
				c0,0.5-0.2,2.1-0.2,2.1s0.4-1,0.6-1.1c0,0,0.3-1.3-0.3-3c0,0-0.7-2.2-2.8-2.8c-2.1-0.6-3.4,1-3.8,1.5c-0.4,0.5-1.2,3.5-1.1,4
				C21.4,5.7,21.7,5.6,21.8,6.4z"/>
		</g>
	</g>
</g>
</svg>
