<?xml version="1.0" encoding="utf-8"?>
<!-- Generator: Adobe Illustrator 19.0.1, SVG Export Plug-In . SVG Version: 6.00 Build 0)  -->
<svg version="1.1" id="Layer_1" xmlns="http://www.w3.org/2000/svg" xmlns:xlink="http://www.w3.org/1999/xlink" x="0px" y="0px"
	 viewBox="0 0 48 48" style="enable-background:new 0 0 48 48;" xml:space="preserve">
<style type="text/css">
	.st0{fill:#66C6B9;}
	.st1{fill:#F3F3F3;}
	.st2{fill:#415A6B;}
	.st3{fill:#CED6E0;}
	.st4{fill:#F3705A;}
	.st5{fill:#E8EAE9;}
	.st6{fill:#4ABAA5;}
	.st7{fill:#F05540;}
	.st8{fill:#FFD15C;}
	.st9{fill:#55C0EB;}
	.st10{fill:#8AD7F8;}
	.st11{fill:#344A5E;}
	.st12{fill:#FFFFFF;}
	.st13{fill:#F7B64C;}
	.st14{fill:#ADB3BA;}
	.st15{fill:#38A892;}
	.st16{fill:#ED9845;}
	.st17{fill:#2D4251;}
	.st18{fill:#304556;}
	.st19{fill:#A5AAAD;}
	.st20{fill:#2D4456;}
	.st21{fill:#4FB0E0;}
	.st22{fill:#2D4354;}
	.st23{fill:#E54C38;}
	.st24{fill:#2B4456;}
	.st25{fill:#2B404F;}
</style>
<g>
	<g>
		<g>
			<g>
				<path class="st11" d="M13.9,39c0,0.4-0.1,0.8-0.3,1.1L9.5,48H4l5.3-10.2c0.6-1.2,2.1-1.7,3.3-1C13.4,37.2,13.9,38.1,13.9,39z"/>
			</g>
			<g>
				<path class="st11" d="M33.9,48h-5.6l-4.1-7.9C24.1,39.8,24,39.4,24,39c0-0.9,0.5-1.8,1.3-2.2c1.2-0.6,2.7-0.2,3.3,1L33.9,48z"/>
			</g>
		</g>
		<g>
			<g>
				<rect x="2" y="2" class="st5" width="33.9" height="37.6"/>
				<g>
					<rect x="6" y="32" class="st14" width="11.8" height="1.9"/>
				</g>
				<g>
					<rect x="6" y="28.2" class="st14" width="25.9" height="1.9"/>
				</g>
			</g>
			<g>
				<g>
					<path class="st4" d="M35.9,4H2C0.9,4,0,3.1,0,2s0.9-2,2-2h33.9c1.1,0,2,0.9,2,2S37,4,35.9,4z"/>
				</g>
				<g>
					<path class="st4" d="M35.9,41.6H2c-1.1,0-2-0.9-2-2s0.9-2,2-2h33.9c1.1,0,2,0.9,2,2S37,41.6,35.9,41.6z"/>
				</g>
			</g>
		</g>
		<g>
			<g>
				<rect x="30.7" y="43.2" class="st5" width="3.2" height="4.8"/>
			</g>
			<g>
				<g>
					<g>
						<ellipse class="st11" cx="34" cy="19.1" rx="1.4" ry="2.8"/>
					</g>
					<g>
						<path class="st11" d="M34.7,15.9c-0.4,0.9-0.7,1.8-0.7,2.7c0,0.8,0.1,1.5,0.2,2.3c0.1,0.8,0.1,1.5-0.2,2.3
							c-0.2,0.5-0.5,1-0.7,1.5s-0.4,1-0.4,1.5c-0.4-1.3-0.5-2.6-0.4-4c-0.4,1.2-1,2.4-1.7,3.5c-0.6,0.9-1,1.9-1.1,2.9
							c-1.6-5.4,4.7-13.6,5.3-13.9"/>
					</g>
					<g>
						<ellipse class="st11" cx="40.1" cy="17.5" rx="1.5" ry="2.8"/>
					</g>
					<g>
						
							<ellipse transform="matrix(0.958 0.2868 -0.2868 0.958 6.2012 -10.9774)" class="st8" cx="40.6" cy="15.7" rx="0.6" ry="1.4"/>
					</g>
					<g>
						<path class="st8" d="M40.9,14.3c0,0-0.8,2.5-1.1,3.4c-0.3,0.9-0.4,2.4-0.4,2.4l0.2,2.9l-8,8.3l-0.1-4.8l2.5-5.4
							c0,0,0.5-0.3,0.5-1c0.1-0.8,0.1-1.1,0.1-1.1s-1.5-0.2-1.5-1.5c0-1.3-0.7-2.9-0.3-4.2c0.4-1.2,1.2-3.6,1.8-4.4s2.2-1.2,2.2-1.2
							L40.9,14.3z"/>
					</g>
					<g>
						<path class="st0" d="M32.1,48h13c-0.3-1.6-0.8-4-1.7-5.6c-1.5-2.6-2.2-4-1.1-7.8c1.1-3.8,3.8-8.5,2.4-11.1s-2.7-3.6-2.7-3.6
							s-5.7,6.4-7.1,7.9c-1.4,1.4-3.3,3.7-3.3,3.7s-1,2.1-0.9,2.9C31,34.8,31.2,43.5,32.1,48z"/>
					</g>
					<g>
						<path class="st5" d="M34.6,19.7c0,0,0,1.4-0.4,2.8c-0.1,0.8-1.9,6-1.9,6l3.7-5.2l0,0c-0.4-0.3-0.4-0.9,0-1.3l2.3-2.4l1.8,1.3
							c0,0-8.8,9.4-9.1,11c-0.3,1.5-0.1,1.8-0.1,1.8s-1.6-1.6-1.4-2.6c0.1-1,2.7-9.4,2.7-9.4l1.1-0.2C33.3,21.5,34.2,20.1,34.6,19.7
							z"/>
					</g>
					<g>
						<path class="st0" d="M38.8,19c0,0-2.6,3.7-4.1,6.1s-3.6,4.9-3.9,6.1c-0.3,1.2,0,3,0,3s0.1-1.6,1-2.5c0.9-0.9,7-7.8,7-7.8
							l0.9-3L38.8,19z"/>
						<g>
							<path class="st6" d="M30,42c-0.1,1-0.2,4-0.3,6h1.4c0.4-2.6,0.8-9.2,0.7-11.2c-0.2-2.4-0.9-3.1-0.9-3.1l-0.4-0.4
								c0,0,0.3,3.4,0.1,4.3C30.4,38.5,30.1,40.7,30,42z"/>
						</g>
						<g>
							<path class="st6" d="M32.6,20c0,0-1.2,7.2-1.8,8.5c-0.6,1.3-0.8,2.7-0.5,3.5c0.2,0.8,0.6,1.7,0.6,1.7s-1.7-0.6-2-2.5
								S32,20.7,32.6,20z"/>
						</g>
					</g>
					<g>
						<path class="st11" d="M35.9,8.7c0,0,0.6,2.3,2.4,4s2.3,1.8,2.3,1.8s0.9,1.7-0.5,3.8s-2.4,3.1-3.6,4.3c-1.2,1.1-2.2,3-2.4,4.2
							c-0.3,1.2,0,1.7-0.8,2.7c0,0,2.5,0,3.9-2c1.4-2.1,1.3-3.3,2.6-4.5s3-1.1,3.3-2S42.5,18.6,43,17s0.8-4.6-0.2-6.9
							c-0.9-2.3-2.7-3-5.1-2.9s-3.7,1.9-4.2,2.9c-0.4,1.1-0.6,2.8-0.7,3.3c0,0,0.5-1.9,1.1-2.9S34.6,8.9,35.9,8.7z"/>
					</g>
					<path class="st11" d="M40,17c-0.4,1.2-1.3,2.2-2.2,3.1c-0.9,0.9-1.8,1.9-2.3,3c0.8-1,1.8-1.7,2.8-2.5c1-0.8,1.9-1.7,2.4-2.9"/>
					<g>
						<path class="st6" d="M47.3,40.1c-0.4,0.3-2.4,1.4-3.9,2.2c-1-1.7-1.6-2.9-1.6-4.6c0.3-0.1,0.5-0.2,0.6-0.2
							c0,0-0.1-0.8-0.3-1.8c-0.2-1-0.5-2.3-0.9-2.9c-0.2-0.4-0.5-0.8-0.6-1.1c-0.7-1.3-1.1-2.8-1.1-4.3c0-0.7,0.2-1.5,0.5-2.2
							c1.1-2.7,3.1-3,3.8-2.7c0.4,0.1,0.8,0.4,1.1,1c0,0,0,0,0,0c0.3,0.5,0.6,1.2,0.8,2.1c0.4,2,0.7,4.5,0.8,5.2
							c0.1,0.6,1.2,5.6,1.5,6.3C48.1,37.7,47.9,39.6,47.3,40.1z"/>
					</g>
				</g>
				<g>
					<path class="st11" d="M34.6,19.7l-2.8-0.3c-1.5,2.8-2.9,6.5-2,9.3c0.1-1.1,0.5-2,1.1-2.9c0.7-1.1,1.2-2.3,1.7-3.5
						c-0.2,1.4-0.1,2.7,0.4,4c-0.1-0.5,0.1-1.1,0.4-1.5c0.2-0.5,0.6-1,0.7-1.5C34.3,22.5,34.7,20.2,34.6,19.7z"/>
				</g>
			</g>
		</g>
		<g>
			<path class="st0" d="M25.4,10.5L21.9,14c0.4,0.5,0.6,1.1,0.7,1.8l4.9,0C27.4,13.8,26.6,12,25.4,10.5z"/>
			<path class="st11" d="M18.4,20c-1.7-0.2-3-1.5-3.2-3.2l-4.9,0c0.3,4.4,3.7,7.9,8.1,8.1L18.4,20z"/>
			<g>
				<path class="st9" d="M15.3,15.8c0.2-1.7,1.5-3,3.2-3.2l0-4.9c-4.4,0.3-7.9,3.7-8.1,8.1L15.3,15.8z"/>
			</g>
			<path class="st4" d="M22.6,16.8c-0.2,1.7-1.5,3-3.2,3.2l0,4.9c4.4-0.3,7.9-3.7,8.1-8.1L22.6,16.8z"/>
			<path class="st8" d="M19.4,12.6c0.7,0.1,1.3,0.3,1.8,0.7l3.5-3.5c-1.4-1.3-3.2-2.1-5.2-2.2L19.4,12.6z"/>
		</g>
	</g>
</g>
</svg>
