<?xml version="1.0" encoding="utf-8"?>
<!-- Generator: Adobe Illustrator 18.0.0, SVG Export Plug-In . SVG Version: 6.00 Build 0)  -->
<!DOCTYPE svg PUBLIC "-//W3C//DTD SVG 1.1//EN" "http://www.w3.org/Graphics/SVG/1.1/DTD/svg11.dtd">
<svg version="1.1" id="Layer_1" xmlns="http://www.w3.org/2000/svg" xmlns:xlink="http://www.w3.org/1999/xlink" x="0px" y="0px"
	 viewBox="0 0 512 512" enable-background="new 0 0 512 512" xml:space="preserve">
<g>
	<circle fill="#FF7058" cx="256" cy="256" r="221.7"/>
	<polygon fill="#334A5E" points="510,249.7 262.4,249.7 262.4,2 249.6,2 249.6,249.7 2,249.7 2,262.3 249.6,262.3 249.6,510 
		262.4,510 262.4,262.3 510,262.3 	"/>
	<circle fill="#FFFFFF" cx="256" cy="256" r="172"/>
	<path fill="#84DBFF" d="M256,371.7c-63.8,0-115.7-51.9-115.7-115.7S192.2,140.3,256,140.3S371.7,192.2,371.7,256
		S319.8,371.7,256,371.7z"/>
	<path fill="#40596B" d="M256,315.5c-32.8,0-59.4-26.7-59.4-59.5s26.7-59.4,59.4-59.4s59.4,26.7,59.4,59.4S288.8,315.5,256,315.5z"
		/>
	<path fill="#FFFFFF" d="M290.5,243.8c-7.8,0-14.2-6.4-14.2-14.2s6.4-14.2,14.2-14.2s14.2,6.4,14.2,14.2S298.4,243.8,290.5,243.8z"
		/>
</g>
</svg>
