<?xml version="1.0" encoding="utf-8"?>
<!-- Generator: Adobe Illustrator 19.0.1, SVG Export Plug-In . SVG Version: 6.00 Build 0)  -->
<svg version="1.1" id="Layer_1" xmlns="http://www.w3.org/2000/svg" xmlns:xlink="http://www.w3.org/1999/xlink" x="0px" y="0px"
	 viewBox="0 0 48 48" style="enable-background:new 0 0 48 48;" xml:space="preserve">
<style type="text/css">
	.st0{fill:#66C6B9;}
	.st1{fill:#F3F3F3;}
	.st2{fill:#415A6B;}
	.st3{fill:#CED6E0;}
	.st4{fill:#F3705A;}
	.st5{fill:#E8EAE9;}
	.st6{fill:#4ABAA5;}
	.st7{fill:#F05540;}
	.st8{fill:#FFD15C;}
	.st9{fill:#55C0EB;}
	.st10{fill:#8AD7F8;}
	.st11{fill:#344A5E;}
	.st12{fill:#FFFFFF;}
	.st13{fill:#F7B64C;}
	.st14{fill:#ADB3BA;}
	.st15{fill:#38A892;}
	.st16{fill:#ED9845;}
	.st17{fill:#2D4251;}
	.st18{fill:#304556;}
	.st19{fill:#A5AAAD;}
	.st20{fill:#2D4456;}
	.st21{fill:#4FB0E0;}
	.st22{fill:#2D4354;}
	.st23{fill:#E54C38;}
	.st24{fill:#2B4456;}
	.st25{fill:#2B404F;}
</style>
<g>
	<g>
		<g>
			<path class="st3" d="M32.5,48c0-0.1,0-0.2-0.1-0.3c-0.4-1.4-1-3-2.3-3.5c-0.5-0.2-1.2-0.2-1.5-0.7c-0.1-0.2-0.1-0.4-0.2-0.6
				c-0.5-3-0.1-6.3-1.4-9c-0.2-0.4-0.6-0.9-1.1-0.8c-0.1,1.8-0.2,3.6-0.3,5.4c0,0.6-0.1,1.3-0.2,1.9c-0.1,0.5-0.3,1.1-0.4,1.6
				c-0.6,2-1.3,3.9-1.8,5.9H32.5z"/>
		</g>
		<g>
			<g>
				<g>
					<g>
						<path class="st3" d="M25.3,48c0.1-1.6,0.3-3.6,0.5-4.5c0.3-1.5,0.3-0.8,0.6-1.4c0.4-0.6,0.6-1.6,0.8-2.2
							c0.2-0.6,0.1-0.2,0.3-0.8c0.2-0.6,0.4-5.4,0.2-5.9c-0.2-0.5-0.4-0.5-1-0.5c-0.5,0-0.6-0.9-1.9-1.1c-1.3-0.2-2.6,0.5-3.5,0.7
							c-1,0.1-3.4,0-3.4,0s-2.2-0.3-3.1-0.1c-0.9,0.1-1.6,0.5-2.1,0.9c-0.6,0.4-1.8,0.8-2.3,0.9c-0.5,0.1-0.8,0.2-1.7,0.3
							c-0.9,0.1-2,1.4-2.9,2.1c-0.9,0.7-3.1,2-4.5,3c-0.4,0.3-0.9,0.6-1.4,1V48H25.3z"/>
					</g>
					<path class="st14" d="M21.4,47.4c0.4,0.3,0.7,0.2,0.8,0.6h3.1c0-0.5,0.1-1.1,0.2-1.7c-0.8-0.3-0.8,0.2-1-0.7
						c-0.1-0.9,0.4-2.4,0.1-3.1c-0.3-0.6-0.8-0.8-1.5-1.1c-0.8-0.4-1.6-0.5-2.2-0.9c-0.6-0.4-1.3,0.5-1.6,1.2
						c-0.3,0.7,0.9,3.8,0.9,3.8S20.9,47.1,21.4,47.4z"/>
					<g>
						<path class="st14" d="M15.1,39.4c0.4,0.9,0.3,1.1-0.3,1.7c-0.6,0.6-3,2.8-3.3,3.5c-0.3,0.7,0,0.4-0.6,0.9
							c-0.3,0.2-1.8,1.4-3.3,2.6h0.1l4-3c0,0,0.6-0.8,1.3-1c0.7-0.3,2.2-0.5,3-0.5c0.8,0,0.7,0.9,1.1,1c0.3,0,0.4,0,0.4-0.1
							c-0.2,0.2-1.4,1.5-1.6,2.3c-0.2,0.7,0,0.8-0.2,1.3h5.1c0-0.6,0.1-1.1-0.1-1.5c-0.3-1-0.4-1.1-0.9-2c-0.5-0.8-0.2-2.2,0.5-3
							c0.7-0.8,0.6-1.1,0.7-2.1c0.2-1,2.3-4.1,3.2-5.1c0.9-1,1.7-2.1,1.7-2.1s-1.1-0.5-2.4-0.3c-1.2,0.2-0.8,1.5-2.1,1.5
							c-1.3,0.1-1.2-0.1-2.1,0.2c-0.9,0.3-1.8,0.7-2.3,1c-0.5,0.4-0.8,0.7-0.8,0.7l2.9,1.5c0,0-0.2,2.7-0.7,3.4
							c-0.6,0.7-0.8,1.1-0.8,1.1s1.2,0.3,1.3,0.5c0.1,0.2,0.2,0.9,0.2,0.9s-1.1-0.6-1.6,0c-0.5,0.6-0.6,0.7-0.6,0.7s-0.1-1.5,0-2.3
							c0.1-0.9,0.1-1.5,0-1.6c-0.1-0.1-0.5-0.8-1.5-1.5c-1-0.7-4.6-2.7-4.8-3.4c-0.2-0.7-0.2-0.8-0.2-0.8s-0.9,0.4-0.1,1.3
							C11.2,36.1,14.7,38.6,15.1,39.4z"/>
					</g>
				</g>
				<g>
					<path class="st14" d="M27.2,33.8l-0.1,3.6l-0.2,2.9c0,0-1-4.9-1.2-5.5S25,33.1,25,33.1l1.4-0.5L27.2,33.8z"/>
				</g>
			</g>
			<path class="st14" d="M24.8,36.6c0.2,0.4,0.3,0.7,0.5,1.1c0,0.1,0.1,0.2,0.1,0.3c0,0.1-0.1,0.3-0.1,0.4c-0.1,0.4,0.2,0.7,0.3,1.1
				c0,0.1,0,0.3,0,0.4c-0.1,0.5-0.1,1-0.1,1.6c0-0.1-0.1-0.2-0.2-0.3c-0.1-0.2-0.1-0.4-0.1-0.6c0-0.2,0.1-0.4,0-0.6
				c-0.1-0.2-0.2-0.4-0.3-0.6c-0.2-0.3-0.2-0.7-0.1-1c0-0.1,0.1-0.2,0.1-0.3c0.2-0.7-0.3-1.4-0.3-2.1"/>
		</g>
		<path class="st14" d="M27.6,47.2c0.1,0.3,0.2,0.5,0.3,0.8h3.4c-0.2-0.4-0.4-0.8-0.7-1.1c-0.4-0.3-0.8-0.5-1.2-0.8
			c-0.9-0.6-1.5-1.6-1.8-2.6c-0.3-1.1-0.3-2.2-0.2-3.3l-0.3-1c-0.2-0.7-0.3-1.5-0.5-2.2c0.1,0.9,0.2,1.8,0,2.6
			c-0.1,0.3-0.2,0.6-0.2,0.9c-0.2,0.7-0.2,1.5-0.2,2.3c0,0.7,0,1.3,0.2,1.9C26.6,45.6,27.2,46.3,27.6,47.2z"/>
	</g>
	<g>
		<g>
			<path class="st3" d="M30.5,48h4.1c-0.4-1.4-0.9-2.8-1.3-4.2c-0.1-0.4-0.2-0.7-0.3-1.1c-0.1-0.4-0.1-0.9-0.1-1.4
				c-0.1-1.3-0.1-2.6-0.2-3.8c-0.3-0.1-0.6,0.2-0.8,0.5c-0.9,1.9-0.6,4.2-1,6.4c0,0.1,0,0.3-0.1,0.4c-0.1,0.1-0.2,0.2-0.4,0.3
				C30.6,46.1,30.7,47,30.5,48z"/>
		</g>
		<g>
			<g>
				<g>
					<g>
						<path class="st3" d="M48,40.5c-0.5-0.3-0.9-0.6-1.1-0.8c-0.7-0.5-1.4-1.4-2-1.5c-0.6-0.1-0.8-0.2-1.2-0.2
							c-0.3,0-1.2-0.4-1.6-0.6c-0.4-0.3-0.9-0.5-1.5-0.6c-0.6-0.1-2.2,0.1-2.2,0.1s-1.7,0.1-2.4,0c-0.7-0.1-1.6-0.6-2.5-0.5
							c-0.9,0.1-0.9,0.8-1.3,0.8c-0.4,0-0.5,0-0.7,0.3c-0.1,0.3,0,3.7,0.1,4.2c0.2,0.4,0.1,0.2,0.2,0.6c0.1,0.4,0.3,1.1,0.6,1.5
							c0.3,0.4,0.2-0.1,0.4,1c0.1,0.7,0.3,2.1,0.4,3.2H48V40.5z"/>
					</g>
					<path class="st14" d="M35.9,47.6c-0.3,0.2-0.5,0.1-0.6,0.4h-2.2c0-0.4-0.1-0.8-0.1-1.2c0.5-0.2,0.6,0.1,0.7-0.5
						c0.1-0.7-0.3-1.7-0.1-2.2c0.2-0.5,0.5-0.5,1.1-0.8c0.5-0.2,1.1-0.4,1.6-0.6c0.4-0.3,0.9,0.3,1.1,0.9c0.2,0.5-0.6,2.6-0.6,2.6
						S36.2,47.3,35.9,47.6z"/>
					<g>
						<path class="st14" d="M40.3,41.9c-0.3,0.6-0.2,0.8,0.2,1.2c0.4,0.4,2.1,2,2.3,2.5c0.2,0.5,0,0.3,0.4,0.6
							c0.2,0.2,1.3,1,2.3,1.8h-0.1l-2.8-2.1c0,0-0.4-0.5-0.9-0.7c-0.5-0.2-1.5-0.3-2.1-0.4c-0.6,0-0.5,0.6-0.7,0.7
							c-0.2,0-0.3,0-0.3-0.1c0.1,0.1,1,1.1,1.1,1.6c0.2,0.5,0,0.6,0.2,0.9h-3.6c0-0.4,0-0.8,0-1.1c0.2-0.7,0.3-0.8,0.6-1.4
							c0.3-0.6,0.1-1.6-0.4-2.1c-0.5-0.6-0.4-0.8-0.5-1.5c-0.1-0.7-1.6-2.9-2.3-3.6c-0.7-0.7-1.2-1.5-1.2-1.5s0.8-0.3,1.7-0.2
							c0.9,0.1,0.6,1,1.5,1.1c0.9,0.1,0.8-0.1,1.5,0.2c0.6,0.2,1.3,0.5,1.6,0.7c0.4,0.3,0.6,0.5,0.6,0.5l-2,1c0,0,0.1,1.9,0.5,2.4
							c0.4,0.5,0.6,0.8,0.6,0.8s-0.9,0.2-0.9,0.4c0,0.1-0.2,0.6-0.2,0.6s0.8-0.4,1.1,0c0.4,0.4,0.5,0.5,0.5,0.5s0.1-1,0-1.6
							c-0.1-0.6-0.1-1.1,0-1.1c0-0.1,0.3-0.6,1.1-1c0.7-0.5,3.2-1.9,3.4-2.4c0.1-0.5,0.2-0.6,0.2-0.6s0.6,0.3,0.1,0.9
							C43.1,39.6,40.6,41.3,40.3,41.9z"/>
					</g>
				</g>
				<g>
					<path class="st14" d="M31.8,37.9l0.3,2.4l0.5,0.1c0,0,0.1-1.5,0.3-1.9c0.1-0.4,0.5-1.1,0.5-1.1l-1-0.4L31.8,37.9z"/>
				</g>
			</g>
			<path class="st14" d="M33.5,39.9c-0.1,0.2-0.2,0.5-0.3,0.7c0,0.1-0.1,0.1-0.1,0.2c0,0.1,0.1,0.2,0.1,0.3c0.1,0.3-0.2,0.5-0.2,0.8
				c0,0.1,0,0.2,0,0.3c0.1,0.4,0.1,0.7,0,1.1c0-0.1,0.1-0.1,0.1-0.2c0.1-0.1,0.1-0.3,0.1-0.4c0-0.1-0.1-0.3,0-0.4
				c0-0.2,0.2-0.3,0.2-0.4c0.1-0.2,0.1-0.5,0.1-0.7c0-0.1-0.1-0.1-0.1-0.2c-0.1-0.5,0.2-1,0.2-1.5"/>
		</g>
		<path class="st14" d="M31.5,47.4c-0.1,0.2-0.1,0.4-0.2,0.6H29c0.1-0.3,0.3-0.6,0.5-0.8c0.2-0.2,0.6-0.4,0.9-0.6
			c0.6-0.4,1.1-1.1,1.3-1.9c0.2-0.7,0.2-1.5,0.1-2.3l0.2-0.7c0.1-0.5,0.2-1,0.3-1.6c-0.1,0.6-0.1,1.2,0,1.9c0,0.2,0.1,0.4,0.2,0.6
			c0.1,0.5,0.1,1.1,0.1,1.6c0,0.5,0,0.9-0.1,1.4C32.2,46.3,31.8,46.8,31.5,47.4z"/>
	</g>
	<g>
		<g>
			<path class="st11" d="M25.6,4c0,0,1.9,0.5,1.5,1s-1,0.4-1,0.4S25.4,4.3,25.6,4z"/>
		</g>
		<g>
			<path class="st3" d="M25.7,3.9c0,0,1.7,0.2,1.2,0.8c-0.5,0.5-0.6,0.4-0.6,0.4C25.9,4.7,25.7,4.3,25.7,3.9z"/>
		</g>
		<g>
			<path class="st8" d="M25.8,1.3c0,0,0.2-0.3,0.3-0.4s0.4,0,0.4,0l0,0.1c0,0,0.1-0.1,0.3-0.2c0.2-0.1,0.3,0,0.3,0l0,0.1l0.1,0
				c0,0,0.1-0.2,0.2-0.2c0.1,0,0.1,0.1,0.1,0.1c0,0.1,0,0.1,0,0.1l-0.5,1c0,0,0,0.1,0.1,0c0,0,0.5-0.8,0.5-0.8l0.2,0
				c0,0-0.2,0.5-0.3,0.6s-0.2,0.3-0.2,0.4c0,0.1,0.1,0.3,0.1,0.7S27,3.6,27,3.7c-0.1,0.1-0.1,0.1-0.1,0.1l-0.8,1.6l-0.6-0.7l0-0.2
				c0,0,0.4-0.8,0.4-1c0-0.2-0.1-0.5-0.1-0.7c0-0.1-0.2-0.5-0.2-0.8S25.8,1.3,25.8,1.3z"/>
		</g>
		<g>
			<path class="st13" d="M26.5,1.6C26.5,1.6,26.5,1.6,26.5,1.6c0.1,0,0.1,0,0.2,0c0,0,0,0,0.1,0.1c0,0,0,0.1,0,0.1c0,0,0,0.1,0,0.1
				c0,0,0,0.1,0,0.1c0,0.1-0.1,0.1-0.1,0.2c0,0,0,0.1,0,0.1c0,0,0,0.1,0,0.1c0,0,0,0.1,0,0.1c0,0,0,0,0,0s0,0,0,0c0,0,0-0.1,0-0.1
				c0,0,0-0.1,0-0.1c0,0,0-0.1,0-0.1c0-0.1,0.1-0.1,0.1-0.2c0,0,0-0.1,0-0.1c0,0,0-0.1,0-0.1c0-0.1,0-0.1-0.1-0.1
				C26.6,1.7,26.6,1.6,26.5,1.6C26.5,1.6,26.5,1.6,26.5,1.6z"/>
		</g>
		<g>
			<path class="st13" d="M26.3,2.3C26.3,2.3,26.3,2.3,26.3,2.3c0-0.1,0-0.1,0-0.1c0-0.1,0-0.2,0-0.3c0,0,0-0.1,0.1-0.1
				c0,0,0-0.1,0.1-0.1c0,0,0,0,0.1-0.1c0,0,0,0,0,0s0,0-0.1,0.1c0,0,0,0.1-0.1,0.1c0,0,0,0.1,0,0.1c0,0,0,0.1,0,0.1c0,0,0,0.1,0,0.1
				C26.3,2.3,26.3,2.3,26.3,2.3z"/>
		</g>
		<g>
			<g>
				
					<rect x="24.1" y="1.5" transform="matrix(0.9859 -0.1673 0.1673 0.9859 5.532116e-002 4.3636)" class="st3" width="3.6" height="0.8"/>
			</g>
			<g>
				<path class="st2" d="M27.3,1.2L27.5,2c0,0.1,0.1,0.1,0.1,0.1l0.9-0.2c0.1,0,0.1-0.1,0.1-0.1L28.4,1c0-0.1-0.1-0.1-0.1-0.1
					l-0.9,0.2C27.4,1.1,27.3,1.2,27.3,1.2z"/>
			</g>
			<g>
				
					<rect x="22.3" y="2" transform="matrix(-0.9859 0.1673 -0.1673 -0.9859 46.4991 0.7086)" class="st5" width="1.9" height="0.6"/>
			</g>
			<g>
				
					<rect x="20.7" y="2.4" transform="matrix(0.9859 -0.1673 0.1673 0.9859 -0.1324 3.6347)" class="st5" width="1.6" height="0.5"/>
			</g>
		</g>
		<g>
			<g>
				<path class="st11" d="M26.8,32.5c0,0,0.2-0.2,0.2-0.4s-0.1-0.4-0.6-0.4c-0.5,0-0.8-0.1-1-0.3c-0.2-0.2-0.6-0.6-0.6-0.6l-2.3,0.2
					c0,0-0.3,0.4-0.3,0.8l0.2,0.4c0,0,1.1,0,1.4,0C24.1,32.5,26.2,33,26.8,32.5z"/>
			</g>
			<g>
				<path class="st11" d="M17.6,32.7l0-0.1c0,0,0-0.4,0.1-0.5c0.1-0.2,2.4,0.2,2.4,0.2s0.3,0.4,0.6,0.6s0.9,0.6,0.8,0.9
					c-0.1,0.3-0.1,0.3-0.1,0.3s-1,0.4-1.8,0.1s-1.3-0.8-1.4-0.9c0,0-0.1-0.1-0.1-0.1C17.8,33.1,17.7,32.9,17.6,32.7z"/>
			</g>
			<g>
				<g>
					<path class="st2" d="M17.8,18.2c0,0-0.1,1.3,0.2,2.4c0.2,1.1,0.3,2.5,0.2,2.8s-0.4,1.8-0.6,2.6c-0.1,0.7-0.1,3-0.1,3.6
						s0,2.5,0,2.5s0.3,0.8,1.1,0.7c0.8,0,1.5-0.5,1.5-0.5s-0.3-0.6-0.3-0.9c0-0.3,0.1-0.2-0.1-0.6c-0.2-0.3-0.4-2.6-0.1-3.1
						s1-4.2,1-4.2s0.4,2.8,0.6,3.5c0.2,0.6,1,3.7,1,3.7v1c0,0,1.1,0.4,1.7,0.1c0.6-0.2,0.9-0.8,0.9-0.8s-0.3-0.4-0.3-0.9
						c-0.1-0.4-0.4-0.6-0.5-0.8s-0.5-1.7-0.5-2c-0.1-0.3,0-1,0-1.6c0-0.6-0.4-6-0.9-7.6c-0.5-1.6-0.5-1.6-0.5-1.6L17.8,18.2z"/>
				</g>
				<g>
					<path class="st11" d="M20.6,23.5c0,0,0.2-0.9,0.4-1.7c0-0.2,0.1-0.4,0.1-0.6c0-0.1,0-0.2,0.1-0.3c0-0.1,0-0.2,0.1-0.3
						c0-0.1,0.1-0.2,0.1-0.2c0-0.1,0.1-0.1,0.1-0.2c0-0.1,0.1-0.1,0.1-0.1l0,0c0,0,0,0.1,0,0.1c0,0,0,0.1,0,0.2c0,0.1,0,0.1,0,0.2
						c0,0.1,0,0.2,0,0.3c0,0.1,0,0.2-0.1,0.3c0,0.2-0.1,0.4-0.2,0.6c-0.1,0.4-0.2,0.9-0.3,1.2C20.7,23.3,20.6,23.5,20.6,23.5
						L20.6,23.5z"/>
				</g>
			</g>
			<g>
				<g>
					<path class="st8" d="M26,2.4c0,0,0.3,0.1,0.3-0.1c0.1-0.2,0-0.3,0.1-0.5s0.1-0.2,0.1-0.2s0.3,0,0.3,0.2c0,0.2-0.1,0.3-0.2,0.4
						s-0.1,0.2,0,0.3c0,0.1,0.2,0.3,0.1,0.6c-0.1,0.2-0.2,0.4-0.2,0.4S25.8,2.8,26,2.4z"/>
				</g>
			</g>
			<g>
				<path class="st5" d="M26.5,5.1c0.2-0.2,0.4-0.5,0.4-0.5c-0.8,0.1-1.2-0.8-1.2-0.8s-0.2,0.3-0.3,0.4c-0.1,0.1-0.3,0.6-0.3,0.6
					c0,0-0.1,0.1-0.1,0.2H26.5z"/>
			</g>
			<g>
				<path class="st2" d="M20,5.7c0,0,0.3,0,0.6,0.1C20.8,5.9,20.8,6,21,6.1c0.2,0.2,0.2,0.2,0.3,0.2c0.1,0,1.3,0.3,1.5,0.3
					c0.2,0,0.9,0,1,0c0.1,0,0.5-0.4,0.5-0.5c0.1-0.1,0.2-0.4,0.3-0.5s0.1-0.3,0.2-0.4c0.1,0,0.3-0.6,0.4-0.8C25.3,4.3,25.6,4,25.6,4
					s0.5,1.1,1.5,1c0,0-0.7,0.7-0.9,1.2S25.8,7,25.6,7.2c-0.1,0.3-0.2,0.3-0.3,0.5c-0.1,0.2-0.2,0.4-0.5,0.5s-2.6,0.6-2.6,0.6
					l-2.1-2.3L20,5.7z"/>
			</g>
			<path class="st11" d="M22.3,8.8c0,0,0.6-0.1,1.2-0.3c0,0,0,0,0,0c0-0.1-0.1-0.2-0.1-0.3c0-0.1,0-0.1,0-0.2c0,0,0-0.1-0.1-0.1
				c-0.1-0.1-0.1-0.3-0.1-0.4c-0.1-0.3,0-0.5,0-0.8c-0.2,0-0.3,0-0.4,0c-0.1,0-0.4-0.1-0.8-0.2c-0.1,0.1-0.1,0.1-0.1,0.2
				c-0.1,0.1-0.1,0.3-0.1,0.5c-0.1,0.2-0.1,0.4-0.2,0.6c0,0,0,0.1,0,0.1L22.3,8.8z"/>
			<g>
				<path class="st8" d="M22.6,5c0,0,0-0.3,0-0.6c0.1-0.3,0.1-0.7,0-1.1s-0.3-0.7-0.3-0.7s0-0.4,0-0.5c0-0.2-0.1-0.2-0.1-0.2
					c0,0-0.1,0-0.1,0.1c0,0,0-0.1-0.1-0.1c-0.1,0-0.2,0.1-0.2,0.1s0-0.1-0.2,0s-0.2,0.1-0.2,0.1s-0.1-0.1-0.2-0.1
					C21.1,2,21,2.1,21,2.2s-0.1,0.1-0.1,0.3c0,0.2,0,0.5,0,0.7c0,0.1,0.2,0.3,0.2,0.5c0.1,0.2,0.3,0.4,0.4,0.6c0,0.1,0.2,0.7,0.1,1
					s-0.1,0.3-0.1,0.3L22.6,5z"/>
			</g>
			<g>
				<path class="st5" d="M22.9,5.5C23,5.1,23,4.9,23,4.9s-0.4-0.2-0.8-0.2c-0.3,0-0.7,0.2-0.7,0.2s-0.1,0.5-0.1,0.7L22.9,5.5z"/>
			</g>
			<g>
				<path class="st14" d="M19.2,5.9l0.4-0.2l1.8,2.4l-0.2,1.1L19,7.8C19,7.8,17.9,6.3,19.2,5.9z"/>
			</g>
			<g>
				<path class="st11" d="M19.9,6.4c0,0,0.4,0.6,0.7,1.2s1.4,3,1.5,3.6c0,0,0.5,5.1,0.5,5.8c0,0,0.5,0.2,0.5-0.1
					c0.1-0.3-0.8-4.7-0.8-5.4c0-0.7-0.3-3.1-0.3-3.1s-0.4-1.5-1-2C20.5,5.8,20,5.6,20,5.6l-0.7-0.1C19.3,5.6,19.8,6.1,19.9,6.4"/>
			</g>
			<g>
				<path class="st3" d="M19.2,5.9c0,0,0.5,0.1,0.7,0.5c0,0-0.1-0.3-0.3-0.5c-0.2-0.2-0.3-0.3-0.3-0.3S19.2,5.8,19.2,5.9z"/>
			</g>
			<g>
				<path class="st8" d="M19.9,1.3c0,0,0.4,0.9,0.4,1c0,0.1,0,0.2,0.1,0.3c0.1,0.1,0.4,0.5,0.4,0.6c0,0.1,0,0.2-0.1,0.3
					s-0.2,0.1-0.2,0.1s0,0.2,0,0.2s0,0.1-0.1,0.1c0,0,0.1,0,0.1,0.2c0,0.1-0.1,0.2-0.1,0.3c0,0.2-0.1,0.4-0.5,0.5
					c-0.4,0.1-0.5,0.1-0.5,0.2s-0.4,1.3-0.4,1.3L17,5.9l0.2-1.8C17.1,4.1,18.4,1,19.9,1.3z"/>
			</g>
			<g>
				<path class="st5" d="M17.4,5.9l2.4,0.7c0,0-0.1-0.6-0.5-0.8c0,0-0.6-0.2-1.4-0.4C17.1,5.2,17,5.3,17,5.3l-0.2,0.5L17.4,5.9z"/>
			</g>
			<g>
				<path class="st2" d="M20.4,1.8c0,0-0.2,0.3-1,0.1c0,0,0.3,0.6,0,1.2c0,0,0.1-0.2,0-0.4c0,0-0.1,0.5,0,0.8l-0.2,0.1
					c0,0-0.2-0.6-0.9-0.6c-0.7,0-0.3,1-0.4,1.3s-0.8,0.6-0.8,0.6S16.3,3.8,16,3c-0.2-0.7-0.2-1.5,0.3-2.2c0.5-0.7,1.5-0.9,2.1-0.8
					S20.3,0.9,20.4,1.8z"/>
			</g>
			<g>
				<path class="st8" d="M18.7,3.3C19,3.6,19,4,18.8,4.1c-0.2,0.1-0.6,0-0.9-0.4s-0.3-0.7-0.1-0.8C18.1,2.8,18.5,3,18.7,3.3z"/>
			</g>
			<g>
				<path class="st11" d="M17,5.4c0,0,1,0.4,1.4,0.6c0.4,0.2,1.4,0.9,1.7,1.1c0.3,0.3,1.8,2.4,1.9,2.9c0.1,0.5,0.8,6,0.6,6.7
					c-0.1,0.6,0.3,1.2-0.9,1.4S18,19,17.8,18.6c-0.3-0.4-0.4-3-0.2-4.3s-0.1-2.1-0.6-3.1s-1.4-2.8-1.1-4C16.2,6.1,17,5.4,17,5.4z"/>
			</g>
			<path class="st2" d="M22.1,10.6c0-0.3-0.1-0.5-0.1-0.6c-0.1-0.5-1.7-2.6-1.9-2.9c-0.3-0.3-1.2-0.9-1.7-1.1
				C17.9,5.7,17,5.4,17,5.4S16.7,5.6,16.4,6c0,0,0.3,0.1,0.9,0.3C17.9,6.5,18,6.4,18,6.4l0.1,0.1c0,0,0.9,0.3,1.4,0.6
				C20,7.4,21.1,8.6,22.1,10.6L22.1,10.6z"/>
			<g>
				<path class="st2" d="M18.6,10c-0.8,0-1.5-0.3-2-0.9c-0.2-0.2-0.3-0.4-0.4-0.7c-0.4-1.1,0.1-1.5,0.6-1.7c0.5-0.2,1.9,0.1,2.3,0.8
					c0,0,0.2,0.1,0.4,0.1c0.1,0,0.4,0.2,0.5,0.2C20,8,20.3,7.9,20.5,8s0.3,0,0.3,0S21,7.5,21,7.4s0.1-0.4,0.2-0.6
					c0.1-0.2,0-0.6,0-0.8s0.2-1,0.2-1s0.5-0.2,0.9-0.1c0.4,0.1,0.9,0.4,0.9,0.4S22.9,7,22.9,7.4s0,0.7-0.2,1.1
					c-0.1,0.4-0.1,0.6-0.2,0.8c0,0.2-0.2,0.6-0.7,0.7c-0.5,0.1-2.1,0-2.6,0C19.1,10,18.8,10,18.6,10z"/>
			</g>
			<path class="st13" d="M19.4,5.1c0-0.1,0.1-0.1,0.5-0.2c0.1,0,0.1,0,0.2,0c-0.2,0-0.8-0.1-1.6-0.6C18.5,4.3,18.7,4.8,19.4,5.1
				C19.4,5.2,19.4,5.1,19.4,5.1z"/>
			<g>
				<path class="st2" d="M17.5,32.5c0,0,0,0.2,0.3,0.4s0.7,0.5,1,0.8c0.3,0.3,1.4,0.5,2,0.3s0.7-0.3,0.7-0.3s0.1,0.1,0.1,0.2
					c-0.1,0.1-0.8,0.4-1.4,0.3c-0.6-0.1-1.2-0.3-1.5-0.6s-0.4-0.4-0.4-0.4l0,0.2c0,0-0.6-0.2-0.7-0.3c-0.1-0.1-0.1-0.1-0.1-0.2
					C17.5,32.9,17.5,32.5,17.5,32.5z"/>
			</g>
			<g>
				<path class="st2" d="M22.2,32c0,0,0.1,0.2,0.4,0.2c0.4,0.1,0.9,0,1.3,0.1c0.4,0.1,1.2,0.3,1.6,0.3c0.4,0,1.4-0.3,1.4-0.5
					c0,0,0.2,0.2,0,0.4c-0.1,0.1-1,0.5-2,0.3l-1.3-0.3v0.1c0,0-1.1,0.1-1.4-0.1C22.1,32.5,22.2,32,22.2,32z"/>
			</g>
		</g>
	</g>
</g>
</svg>
