<?xml version="1.0" encoding="utf-8"?>
<!-- Generator: Adobe Illustrator 18.0.0, SVG Export Plug-In . SVG Version: 6.00 Build 0)  -->
<!DOCTYPE svg PUBLIC "-//W3C//DTD SVG 1.1//EN" "http://www.w3.org/Graphics/SVG/1.1/DTD/svg11.dtd">
<svg version="1.1" id="Layer_1" xmlns="http://www.w3.org/2000/svg" xmlns:xlink="http://www.w3.org/1999/xlink" x="0px" y="0px"
	 viewBox="0 0 512 512" enable-background="new 0 0 512 512" xml:space="preserve">
<g>
	<path fill="#F2F2F2" d="M256,110.7c-83.8,0-151.7,61.1-151.7,171.4S192.1,510,256,510c63.9,0,151.7-117.7,151.7-227.9
		S339.8,110.7,256,110.7z"/>
	<path fill="#FF7058" d="M256,179.4c-38.8,46.3-38.8,121.4,0,167.8C294.8,300.8,294.8,225.7,256,179.4z"/>
	<path fill="#CDD6E0" d="M368.9,219.4c-26.3,26.3-69,26.3-95.4,0c-26.3-26.3-26.3-69,0-95.4c26.3-26.3,142.6-47.2,142.6-47.2
		S395.3,193.1,368.9,219.4z"/>
	<path fill="#CDD6E0" d="M143.1,219.4c26.3,26.3,69,26.3,95.4,0c26.3-26.3,26.3-69,0-95.4C212.1,97.7,95.9,76.8,95.9,76.8
		S116.7,193.1,143.1,219.4z"/>
	<path fill="#334A5E" d="M157.8,301.3c-6.3,117.5,36.8,141.7,7.3,152.3c-23.2,8.4-57-26.2-75.4-77.2c-18.4-51-18.4-110.1,4.8-118.5
		C133.6,243.8,160,260.6,157.8,301.3z"/>
	<path fill="#334A5E" d="M354.2,301.3c6.3,117.5-36.8,141.7-7.3,152.3c23.2,8.4,57-26.2,75.4-77.2c18.4-51,18.4-110.1-4.8-118.5
		C378.4,243.8,352,260.6,354.2,301.3z"/>
	<polygon fill="#FFD15C" points="447.4,453.7 447.4,442 447.4,430.4 57.5,430.4 57.5,442 57.5,453.7 57.5,465.4 447.4,465.4 	"/>
	<polygon fill="#F2F2F2" points="2.6,447.9 57.5,465.4 57.5,430.3 	"/>
	<polygon fill="#40596B" points="30.1,439.1 30.1,456.7 2.7,447.9 	"/>
	<rect x="447.4" y="430.4" fill="#F2F2F2" width="15.4" height="35"/>
	<path fill="#FF7058" d="M509.4,463.9v-32.1c0-0.8-0.6-1.5-1.5-1.5h-45.1v35h45.1C508.7,465.4,509.4,464.7,509.4,463.9z"/>
	<path fill="#40596B" d="M411.3,172.1c0,52.6-42.7,95.2-95.3,95.2c-22.8,0-43.6-8-60-21.4c-16.4,13.3-37.3,21.4-60,21.4
		c-52.6,0-95.2-42.7-95.2-95.2c0-22.9,8-43.9,21.5-60.2c17.5-21.4,44-35,73.8-35c22.8,0,43.6,8,60,21.4c16.4-13.3,37.3-21.4,60-21.4
		c29.7,0,56.3,13.7,73.8,35C403.2,128.2,411.3,149.2,411.3,172.1z"/>
	<path fill="#FFFFFF" d="M316,94.6c-24.2,0-45.8,11.1-60,28.5c-14.2-17.4-35.8-28.5-60-28.5c-42.8,0-77.5,34.7-77.5,77.5
		c0,42.8,34.7,77.5,77.5,77.5c24.2,0,45.8-11.1,60-28.5c14.2,17.4,35.8,28.5,60,28.5c42.8,0,77.5-34.7,77.5-77.5
		C393.5,129.3,358.8,94.6,316,94.6z"/>
	<circle fill="#84DBFF" cx="316" cy="172.1" r="45.6"/>
	<circle fill="#40596B" cx="316" cy="172.1" r="24.8"/>
	<circle fill="#84DBFF" cx="196" cy="172.1" r="45.6"/>
	<circle fill="#40596B" cx="196" cy="172.1" r="24.8"/>
	<circle fill="#FFFFFF" cx="325.3" cy="160.5" r="8.6"/>
	<circle fill="#FFFFFF" cx="205.3" cy="160.5" r="8.6"/>
	<path fill="#40596B" d="M333.5,424.6c0-5.2-4.2-9.4-9.4-9.4c-3,0-5.6,1.4-7.3,3.6c-2.1-2.2-5.1-3.6-8.3-3.6c-3.3,0-6.2,1.4-8.3,3.6
		c-1.7-2.2-4.4-3.6-7.3-3.6c-5.2,0-9.4,4.2-9.4,9.4c0,5.2,9.4,20.1,9.4,20.1s3.4-5.4,6.2-10.9c3.3,7.7,9.5,17.5,9.5,17.5
		s6.2-9.8,9.5-17.5c2.7,5.4,6.2,10.9,6.2,10.9S333.5,429.9,333.5,424.6z"/>
	<path fill="#40596B" d="M228.8,424.6c0-5.2-4.2-9.4-9.4-9.4c-3,0-5.6,1.4-7.3,3.6c-2.1-2.2-5.1-3.6-8.3-3.6c-3.3,0-6.2,1.4-8.3,3.6
		c-1.7-2.2-4.4-3.6-7.3-3.6c-5.2,0-9.4,4.2-9.4,9.4c0,5.2,9.4,20.1,9.4,20.1s3.4-5.4,6.2-10.9c3.3,7.7,9.5,17.5,9.5,17.5
		s6.2-9.8,9.5-17.5c2.7,5.4,6.2,10.9,6.2,10.9S228.8,429.9,228.8,424.6z"/>
	<path opacity="0.2" fill="#334A5E" d="M389.8,111.9L256,137.3l-133.8-25.4c17.5-21.4,44-35,73.8-35c22.8,0,43.6,8,60,21.4
		c16.4-13.3,37.3-21.4,60-21.4C345.8,76.8,372.3,90.5,389.8,111.9z"/>
	<polygon fill="#334A5E" points="381.1,40.2 381.1,102.7 256,126.5 130.9,102.7 130.9,40.2 256,64 	"/>
	<polygon fill="#40596B" points="256,2 69.3,42.7 256,83.3 442.7,42.7 	"/>
	<rect x="435.9" y="42.7" fill="#F8B64C" width="6.3" height="57.4"/>
	<path fill="#F8B64C" d="M439,94c-7.1,0-12.9,5.8-12.9,12.9c0,7.1,5.8,12.9,12.9,12.9c7.1,0,12.9-5.8,12.9-12.9
		C451.9,99.7,446.1,94,439,94z M439,112.9c-3.4,0-6.1-2.7-6.1-6.1c0-3.4,2.7-6.1,6.1-6.1c3.4,0,6.1,2.7,6.1,6.1
		C445.1,110.2,442.4,112.9,439,112.9z"/>
	<polygon fill="#F8B64C" points="455.1,149.1 423,149.1 431.9,114 446.1,114 	"/>
</g>
</svg>
