<?xml version="1.0" encoding="utf-8"?>
<!-- Generator: Adobe Illustrator 18.0.0, SVG Export Plug-In . SVG Version: 6.00 Build 0)  -->
<!DOCTYPE svg PUBLIC "-//W3C//DTD SVG 1.1//EN" "http://www.w3.org/Graphics/SVG/1.1/DTD/svg11.dtd">
<svg version="1.1" id="Layer_1" xmlns="http://www.w3.org/2000/svg" xmlns:xlink="http://www.w3.org/1999/xlink" x="0px" y="0px"
	 viewBox="0 0 48 48" enable-background="new 0 0 48 48" xml:space="preserve">
<g>
	<g>
		<path fill="#415A6B" d="M44.5,35.9V9.7c0-1.7-1.3-3-3-3h-35c-1.7,0-3,1.3-3,3v26.2H44.5z"/>
		<rect x="7" y="10.2" fill="#FFFFFF" width="34" height="22.2"/>
		<path fill="#E8EAE9" d="M5.3,41.3h37.3c3,0,5.3-2.4,5.3-5.3l0,0H0l0,0C0,38.9,2.4,41.3,5.3,41.3z"/>
		<polygon fill="#CED6E0" points="29.4,38.2 30.5,35.9 17.5,35.9 18.6,38.2 		"/>
		<g>
			<path fill="#F3705A" d="M24.2,14.2c-2,0-3.7,1.2-4.3,3c-0.7-1.8-2.3-3-4.3-3c-2.6,0-4.6,2-4.6,4.6c0,3.7,8.9,10.4,8.9,10.4
				s8.9-6.7,8.9-10.4C28.8,16.3,26.8,14.2,24.2,14.2z"/>
		</g>
		<g>
			<polygon fill="#415A6B" points="36,20 33.8,22.2 37.7,26.1 34.3,29.5 30.4,25.6 28.2,27.8 25.8,17.7 			"/>
		</g>
	</g>
</g>
</svg>
