<?xml version="1.0" encoding="utf-8"?>
<!-- Generator: Adobe Illustrator 18.0.0, SVG Export Plug-In . SVG Version: 6.00 Build 0)  -->
<!DOCTYPE svg PUBLIC "-//W3C//DTD SVG 1.1//EN" "http://www.w3.org/Graphics/SVG/1.1/DTD/svg11.dtd">
<svg version="1.1" id="Layer_1" xmlns="http://www.w3.org/2000/svg" xmlns:xlink="http://www.w3.org/1999/xlink" x="0px" y="0px"
	 viewBox="0 0 48 48" enable-background="new 0 0 48 48" xml:space="preserve">
<g>
	<g>
		<g>
			<path fill="#415A6B" d="M45.7,39.4H2.3V7.8c0-1.1,0.9-2,2-2h39.5c1.1,0,2,0.9,2,2V39.4z"/>
		</g>
		<g>
			<path fill="#CED6E0" d="M0,36.6L0,36.6c0,3.1,2.5,5.6,5.6,5.6h36.9c3.1,0,5.6-2.5,5.6-5.6v0H0z"/>
		</g>
		<rect x="5.3" y="8.8" fill="#FFFFFF" width="37.5" height="23.8"/>
		<g>
			<rect x="9.8" y="13.1" fill="#E8EAE9" width="19.7" height="1.4"/>
			<rect x="9.8" y="17.7" fill="#E8EAE9" width="19.7" height="1.4"/>
			<rect x="9.8" y="22.3" fill="#E8EAE9" width="19.7" height="1.4"/>
			<rect x="9.8" y="27" fill="#E8EAE9" width="19.7" height="1.4"/>
		</g>
		<g>
			<g>
				<path fill="#F3705A" d="M34.3,29l6,6c1.2,1.2,3.2,1.2,4.4,0c1.2-1.2,1.2-3.2,0-4.4l-6-6L34.3,29z"/>
			</g>
			<g>
				<circle fill="#8AD7F8" cx="30.8" cy="20.9" r="9.3"/>
			</g>
			<g>
				<g>
					<path fill="#FFFFFF" d="M36,20.3c-0.2,0-0.4,0.1-0.5,0.3L34.8,22l-0.4-1.3c-0.1-0.3-0.3-0.4-0.6-0.4h-1.7L31.3,19
						c-0.1-0.2-0.4-0.3-0.6-0.3c-0.2,0-0.4,0.2-0.5,0.4l-1.1,4.1l-1.4-6.4c-0.1-0.3-0.3-0.4-0.5-0.5c-0.3,0-0.5,0.1-0.6,0.4
						l-1.5,3.6h-2.8v1.2h3.2c0.2,0,0.5-0.1,0.6-0.4l0.9-2.2l1.5,7.1c0.1,0.3,0.3,0.5,0.6,0.5h0c0.3,0,0.5-0.2,0.6-0.4l1.4-5.2
						l0.3,0.4c0.1,0.2,0.3,0.3,0.5,0.3h1.5l0.7,2.4c0.1,0.2,0.3,0.4,0.5,0.4c0.3,0,0.5-0.1,0.6-0.3l1.2-2.4h3v-1.2H36z"/>
				</g>
			</g>
			<g>
				<path fill="#415A6B" d="M30.8,31.4c-5.8,0-10.5-4.7-10.5-10.5c0-2.8,1.1-5.5,3.1-7.4c2-2,4.6-3.1,7.4-3.1
					c5.8,0,10.5,4.7,10.5,10.5C41.4,26.7,36.6,31.4,30.8,31.4z M30.8,12.8c-2.2,0-4.2,0.8-5.7,2.4c-1.5,1.5-2.4,3.6-2.4,5.7
					c0,4.5,3.6,8.1,8.1,8.1s8.1-3.6,8.1-8.1S35.3,12.8,30.8,12.8z"/>
			</g>
		</g>
		<g>
			<polygon fill="#ADB3BA" points="29.6,38.8 30.6,36.6 17.4,36.6 18.4,38.8 			"/>
		</g>
	</g>
</g>
</svg>
