<?xml version="1.0" encoding="utf-8"?>
<!-- Generator: Adobe Illustrator 18.0.0, SVG Export Plug-In . SVG Version: 6.00 Build 0)  -->
<!DOCTYPE svg PUBLIC "-//W3C//DTD SVG 1.1//EN" "http://www.w3.org/Graphics/SVG/1.1/DTD/svg11.dtd">
<svg version="1.1" id="Layer_1" xmlns="http://www.w3.org/2000/svg" xmlns:xlink="http://www.w3.org/1999/xlink" x="0px" y="0px"
	 viewBox="0 0 48 48" enable-background="new 0 0 48 48" xml:space="preserve">
<g>
	<g>
		<path fill="#F3F3F3" d="M35.5,0H11.4L0,11.4V45c0,1.7,1.3,3,3,3h32.5c1.7,0,3-1.3,3-3V3C38.5,1.3,37.1,0,35.5,0z"/>
		<g>
			<rect x="5" y="23" fill="#CED6E0" width="10.5" height="3"/>
		</g>
		<rect x="5" y="15.2" fill="#CED6E0" width="28.5" height="3"/>
		<rect x="18.2" y="7.5" fill="#CED6E0" width="15.3" height="3"/>
		<g>
			<g>
				<path fill="#66C6B9" d="M47.9,47.1C48,46.7,48,46.3,48,46c-0.2-1.6-1.2-3-2.3-4.3c-0.8-1-1.7-2.1-2.9-2.6
					c0.2,0.1,0.5,0.1,0.7,0.2c-0.4-0.3-0.9-0.6-1.3-0.9c0.3,0,0.6,0.1,0.9,0.1c-0.8-0.4-1.6-0.9-2.3-1.3c-1-0.6-2.1-1.3-3-2.1
					c-0.4-0.6-0.9-1.1-1.5-1.4c-0.6-0.4-1.3-0.7-1.8-1.1c-0.4-0.3-0.8-0.7-1.2-1c-0.4-0.3-1-0.5-1.5-0.3c0.2-0.2,0.5-0.3,0.8-0.2
					c-0.8-0.3-1.5-0.5-2.3-0.6c-0.8-0.1-1.7,0.1-2.3,0.6c0.4-0.5,0.9-0.9,1.5-1.2c-0.6,0-1.2,0.2-1.7,0.6c0.3-0.5,0.6-1,0.7-1.6
					c-0.5,0.6-0.9,1.1-1.4,1.7c-0.2,0.2-0.3,0.4-0.2,0.7c-0.4,0.2-0.9,0.4-1.4,0.4c0.2,0,0.8,0,1.1-0.1c-0.3,0.3-1.6,0.7-2.1,0.9
					c0.5-0.2,2-0.2,2.4-0.6l-1,1c0.2,0,0.3,0.1,0.5,0.1c0.3,0.5,0.6,1.1,0.7,1.8c0-0.1,0-0.2,0-0.2c0.5,0.6,0.5,1.5,0.1,2.1
					c0.4-0.2,0.6-0.6,0.7-1c0.3,0.7,0.6,1.5,0.9,2.2c0-0.1,0.1-0.1,0.1-0.2c1.2,1.5,2.6,2.9,4.3,4c1.6,1,3.5,1.7,4.4,3.3
					c-0.2-0.4-0.3-0.8-0.5-1.2c-0.2-0.3-0.3-0.5-0.3-0.8l0.3,0.8c0.5,0.9,1.4,1.5,2.3,1.9c1.2,0.6,2.5,0.9,3.6,1.7
					c-0.1-0.2-0.3-0.4-0.5-0.5c-0.2-0.1-0.4-0.2-0.6-0.3c0.2,0.1,0.4,0.2,0.6,0.3c0.3,0.1,0.6,0.2,0.9,0.3c0.9,0.1,1.8,0.6,2.7,0.8
					c0.5,0.1,1,0.3,1.5,0.1C47.5,47.8,47.8,47.4,47.9,47.1z"/>
				<path fill="#415A6B" d="M36.4,42.9c0.1,0.3,0.2,0.6,0.3,0.8L36.4,42.9z"/>
				<path fill="#415A6B" d="M42.1,46.7c-0.2-0.1-0.4-0.2-0.6-0.3C41.7,46.5,41.9,46.7,42.1,46.7z"/>
			</g>
			<g>
				<path fill="#415A6B" d="M46.8,45.9c-13.1-7.6-18-13-18-13l-9.4-9.4c-1.5-1.2-1.9-0.4-0.8,0.8l9.4,9.3
					C34.5,39.4,39.3,41.9,46.8,45.9z"/>
			</g>
		</g>
		<polygon fill="#E8EAE9" points="11.4,0 0,11.4 11.4,11.4 		"/>
	</g>
</g>
</svg>
