<?xml version="1.0" encoding="utf-8"?>
<!-- Generator: Adobe Illustrator 18.0.0, SVG Export Plug-In . SVG Version: 6.00 Build 0)  -->
<!DOCTYPE svg PUBLIC "-//W3C//DTD SVG 1.1//EN" "http://www.w3.org/Graphics/SVG/1.1/DTD/svg11.dtd">
<svg version="1.1" id="Layer_1" xmlns="http://www.w3.org/2000/svg" xmlns:xlink="http://www.w3.org/1999/xlink" x="0px" y="0px"
	 viewBox="0 0 48 48" enable-background="new 0 0 48 48" xml:space="preserve">
<g>
	<path fill="#F3F3F3" d="M43.4,2v44c0,1.1-0.9,2-2,2H14.3V0h27.1C42.5,0,43.4,0.9,43.4,2z"/>
	<path fill="#66C6B9" d="M14.3,0H7.7c-2.2,0-4,1.8-4,4v40c0,2.2,1.8,4,4,4h6.5V0z"/>
	<path fill="#415A6B" d="M1.9,11h5.1C8.1,11,9,10.1,9,9S8.1,7.1,7.1,7.1H1.9C0.9,7.1,0,8,0,9S0.9,11,1.9,11z"/>
	<path fill="#415A6B" d="M7.1,37H1.9C0.9,37,0,37.9,0,38.9c0,1.1,0.9,1.9,1.9,1.9h5.1C8.1,40.9,9,40,9,38.9C9,37.9,8.1,37,7.1,37z"
		/>
	<g>
		<path fill="#55C0EB" d="M46.6,3h-3.1v7.8h3.1c0.8,0,1.4-0.6,1.4-1.4V4.5C48,3.7,47.4,3,46.6,3z"/>
		<path fill="#FFD15C" d="M46.6,11.7h-3.1v7.8h3.1c0.8,0,1.4-0.6,1.4-1.4v-4.9C48,12.4,47.4,11.7,46.6,11.7z"/>
		<path fill="#55C0EB" d="M46.6,20.5h-3.1v7.8h3.1c0.8,0,1.4-0.6,1.4-1.4v-4.9C48,21.1,47.4,20.5,46.6,20.5z"/>
		<path fill="#FFD15C" d="M46.6,29.2h-3.1v7.8h3.1c0.8,0,1.4-0.6,1.4-1.4v-4.9C48,29.8,47.4,29.2,46.6,29.2z"/>
	</g>
	<g>
		<g>
			<rect x="18.9" y="27.5" fill="#CED6E0" width="18.1" height="2.3"/>
		</g>
		<g>
			<rect x="18.9" y="33.5" fill="#CED6E0" width="18.1" height="2.3"/>
		</g>
		<g>
			<rect x="18.9" y="39.4" fill="#CED6E0" width="11" height="2.3"/>
		</g>
	</g>
	<path fill="#F3705A" d="M32.3,6.3c-2,0-3.7,1.3-4.4,3c-0.7-1.8-2.4-3-4.4-3c-2.6,0-4.7,2.1-4.7,4.7c0,3.8,9.1,10.6,9.1,10.6
		s9-6.8,9-10.6C37,8.4,34.9,6.3,32.3,6.3z"/>
</g>
</svg>
