<?xml version="1.0" encoding="utf-8"?>
<!-- Generator: Adobe Illustrator 18.0.0, SVG Export Plug-In . SVG Version: 6.00 Build 0)  -->
<!DOCTYPE svg PUBLIC "-//W3C//DTD SVG 1.1//EN" "http://www.w3.org/Graphics/SVG/1.1/DTD/svg11.dtd">
<svg version="1.1" id="Layer_1" xmlns="http://www.w3.org/2000/svg" xmlns:xlink="http://www.w3.org/1999/xlink" x="0px" y="0px"
	 viewBox="0 0 48 48" enable-background="new 0 0 48 48" xml:space="preserve">
<g>
	<g>
		<g>
			<circle fill="#66C6B9" cx="24" cy="24" r="24"/>
		</g>
		<g>
			<circle fill="#FFFFFF" cx="24" cy="24" r="19.3"/>
		</g>
		<g>
			<polygon fill="#F3705A" points="33.4,14.8 33.4,14.8 23.7,20.3 27.8,24.4 			"/>
		</g>
		<g>
			<circle fill="#344A5E" cx="24" cy="24" r="4.5"/>
		</g>
		<g>
			<circle fill="#415A6B" cx="24" cy="24" r="2.1"/>
		</g>
		<g>
			<path fill="#CED6E0" d="M24,9.6L24,9.6c-0.4,0-0.7-0.3-0.7-0.7V7.6c0-0.4,0.3-0.7,0.7-0.7l0,0c0.4,0,0.7,0.3,0.7,0.7v1.2
				C24.7,9.2,24.4,9.6,24,9.6z"/>
		</g>
		<g>
			<path fill="#CED6E0" d="M13.8,13.8L13.8,13.8c-0.3,0.3-0.8,0.3-1.1,0l-0.9-0.9c-0.3-0.3-0.3-0.8,0-1.1l0,0c0.3-0.3,0.8-0.3,1.1,0
				l0.9,0.9C14.1,13,14.1,13.5,13.8,13.8z"/>
		</g>
		<g>
			<path fill="#CED6E0" d="M9.6,24L9.6,24c0,0.4-0.3,0.7-0.7,0.7H7.6c-0.4,0-0.7-0.3-0.7-0.7v0c0-0.4,0.3-0.7,0.7-0.7h1.2
				C9.2,23.3,9.6,23.6,9.6,24z"/>
		</g>
		<g>
			<path fill="#CED6E0" d="M13.8,34.2L13.8,34.2c0.3,0.3,0.3,0.8,0,1.1l-0.9,0.9c-0.3,0.3-0.8,0.3-1.1,0h0c-0.3-0.3-0.3-0.8,0-1.1
				l0.9-0.9C13,33.9,13.5,33.9,13.8,34.2z"/>
		</g>
		<g>
			<path fill="#CED6E0" d="M24,38.4L24,38.4c0.4,0,0.7,0.3,0.7,0.7v1.2c0,0.4-0.3,0.7-0.7,0.7l0,0c-0.4,0-0.7-0.3-0.7-0.7v-1.2
				C23.3,38.8,23.6,38.4,24,38.4z"/>
		</g>
		<g>
			<path fill="#CED6E0" d="M34.2,34.2L34.2,34.2c0.3-0.3,0.8-0.3,1.1,0l0.9,0.9c0.3,0.3,0.3,0.8,0,1.1l0,0c-0.3,0.3-0.8,0.3-1.1,0
				l-0.9-0.9C33.9,35,33.9,34.5,34.2,34.2z"/>
		</g>
		<g>
			<path fill="#CED6E0" d="M38.4,24L38.4,24c0-0.4,0.3-0.7,0.7-0.7h1.2c0.4,0,0.7,0.3,0.7,0.7v0c0,0.4-0.3,0.7-0.7,0.7h-1.2
				C38.8,24.7,38.4,24.4,38.4,24z"/>
		</g>
		<g>
			<path fill="#CED6E0" d="M34.2,13.8L34.2,13.8c-0.3-0.3-0.3-0.8,0-1.1l0.9-0.9c0.3-0.3,0.8-0.3,1.1,0v0c0.3,0.3,0.3,0.8,0,1.1
				l-0.9,0.9C35,14.1,34.5,14.1,34.2,13.8z"/>
		</g>
	</g>
</g>
</svg>
