<?xml version="1.0" encoding="utf-8"?>
<!-- Generator: Adobe Illustrator 18.0.0, SVG Export Plug-In . SVG Version: 6.00 Build 0)  -->
<!DOCTYPE svg PUBLIC "-//W3C//DTD SVG 1.1//EN" "http://www.w3.org/Graphics/SVG/1.1/DTD/svg11.dtd">
<svg version="1.1" id="Layer_1" xmlns="http://www.w3.org/2000/svg" xmlns:xlink="http://www.w3.org/1999/xlink" x="0px" y="0px"
	 viewBox="0 0 512 512" enable-background="new 0 0 512 512" xml:space="preserve">
<g>
	<path fill="#334A5E" d="M432.3,68.5c0-6.5-5.3-11.8-11.8-11.8H94.4c-8.1,0-14.7,6.6-14.7,14.7v188.2h352.6V68.5z"/>
	<path fill="#F2F2F2" d="M79.7,259.7v28c0,8.1,6.6,14.7,14.7,14.7h323.1c8.1,0,14.7-6.6,14.7-14.7v-28H79.7z"/>
	<circle fill="#CDD5DF" cx="256" cy="281" r="8.4"/>
	<rect x="188.4" y="302.3" fill="#CDD5DF" width="135.1" height="39.3"/>
	<rect x="188.4" y="302.3" fill="#ABB2B9" width="135.1" height="11"/>
	<path fill="#F2F2F2" d="M359.2,364H152.8v-20.4c0-1.1,0.9-1.9,1.9-1.9h202.6c1.1,0,1.9,0.9,1.9,1.9V364z"/>
	<rect x="103.1" y="78.9" fill="#FFFFFF" width="305.8" height="163.9"/>
	<rect x="128.7" y="131.6" fill="#F8B64C" width="116.4" height="13.7"/>
	<rect x="128.7" y="97.1" fill="#F8B64C" width="116.4" height="13.7"/>
	<rect x="128.7" y="165.4" fill="#F8B64C" width="116.4" height="13.7"/>
	<rect x="128.7" y="199.9" fill="#F8B64C" width="116.4" height="13.7"/>
	<path fill="#F2F2F2" d="M117.7,14.1C162.4-2,211.3-2,256,14.1c0,71.9,0,143.8,0,215.7c-44.7-16.1-93.6-16.1-138.3,0V14.1z"/>
	<path fill="#4CDBC4" d="M245.3,108.3c-38.1-11.4-78.8-11.4-116.9,0c0-4.6,0-9.2,0-13.7c38.1-11.4,78.8-11.4,116.9,0
		C245.3,99.2,245.3,103.7,245.3,108.3z"/>
	<path fill="#FFD15C" d="M245.3,73.9c-38.1-11.4-78.8-11.4-116.9,0c0-4.6,0-9.2,0-13.7c38.1-11.4,78.8-11.4,116.9,0
		C245.3,64.7,245.3,69.3,245.3,73.9z"/>
	<path fill="#4CDBC4" d="M245.3,142.2c-38.1-11.4-78.8-11.4-116.9,0c0-4.6,0-9.2,0-13.7c38.1-11.4,78.8-11.4,116.9,0
		C245.3,133,245.3,137.6,245.3,142.2z"/>
	<path fill="#4CDBC4" d="M245.3,176.7c-38.1-11.4-78.8-11.4-116.9,0c0-4.6,0-9.2,0-13.7c38.1-11.4,78.8-11.4,116.9,0
		C245.3,167.5,245.3,172.1,245.3,176.7z"/>
	<rect x="266.9" y="131.6" fill="#F8B64C" width="116.4" height="13.7"/>
	<rect x="266.9" y="97.1" fill="#F8B64C" width="116.4" height="13.7"/>
	<rect x="266.9" y="165.4" fill="#F8B64C" width="116.4" height="13.7"/>
	<rect x="266.9" y="199.9" fill="#F8B64C" width="116.4" height="13.7"/>
	<path fill="#CDD6E0" d="M394.3,14.1C349.6-2,300.7-2,256,14.1c0,71.9,0,143.8,0,215.7c44.7-16.1,93.6-16.1,138.3,0V14.1z"/>
	<path fill="#ACB3BA" d="M266.7,108.3c38.1-11.4,78.8-11.4,116.9,0c0-4.6,0-9.2,0-13.7c-38.1-11.4-78.8-11.4-116.9,0
		C266.7,99.2,266.7,103.7,266.7,108.3z"/>
	<path fill="#ACB3BA" d="M266.7,73.9c38.1-11.4,78.8-11.4,116.9,0c0-4.6,0-9.2,0-13.7c-38.1-11.4-78.8-11.4-116.9,0
		C266.7,64.7,266.7,69.3,266.7,73.9z"/>
	<path fill="#ACB3BA" d="M266.7,142.2c38.1-11.4,78.8-11.4,116.9,0c0-4.6,0-9.2,0-13.7c-38.1-11.4-78.8-11.4-116.9,0
		C266.7,133,266.7,137.6,266.7,142.2z"/>
	<rect x="65.7" y="371.6" fill="#F2F2F2" width="380.6" height="138.4"/>
	<rect x="77" y="382.9" fill="#CDD6E0" width="26.4" height="17.7"/>
	<rect x="77" y="415.6" fill="#CDD6E0" width="26.4" height="17.7"/>
	<rect x="77" y="448.3" fill="#CDD6E0" width="67.8" height="17.7"/>
	<rect x="77" y="480.9" fill="#CDD6E0" width="26.4" height="17.7"/>
	<rect x="118.5" y="382.9" fill="#CDD6E0" width="26.4" height="17.7"/>
	<rect x="118.5" y="480.9" fill="#CDD6E0" width="26.4" height="17.7"/>
	<rect x="159.9" y="382.9" fill="#CDD6E0" width="26.4" height="17.7"/>
	<rect x="159.9" y="415.6" fill="#CDD6E0" width="26.4" height="17.7"/>
	<rect x="118.5" y="415.6" fill="#CDD6E0" width="26.4" height="17.7"/>
	<rect x="159.9" y="448.3" fill="#CDD6E0" width="26.4" height="17.7"/>
	<rect x="159.9" y="480.9" fill="#CDD6E0" width="192.2" height="17.7"/>
	<rect x="201.4" y="382.9" fill="#CDD6E0" width="26.4" height="17.7"/>
	<rect x="201.4" y="415.6" fill="#CDD6E0" width="26.4" height="17.7"/>
	<rect x="201.4" y="448.3" fill="#CDD6E0" width="26.4" height="17.7"/>
	<rect x="242.8" y="382.9" fill="#CDD6E0" width="26.4" height="17.7"/>
	<rect x="242.8" y="415.6" fill="#CDD6E0" width="26.4" height="17.7"/>
	<rect x="242.8" y="448.3" fill="#CDD6E0" width="26.4" height="17.7"/>
	<rect x="284.3" y="382.9" fill="#CDD6E0" width="26.4" height="17.7"/>
	<rect x="284.3" y="415.6" fill="#CDD6E0" width="26.4" height="17.7"/>
	<rect x="284.3" y="448.3" fill="#CDD6E0" width="26.4" height="17.7"/>
	<rect x="325.7" y="382.9" fill="#CDD6E0" width="26.4" height="17.7"/>
	<rect x="325.7" y="415.6" fill="#CDD6E0" width="26.4" height="17.7"/>
	<rect x="325.7" y="448.3" fill="#CDD6E0" width="26.4" height="17.7"/>
	<rect x="367.2" y="448.3" fill="#CDD6E0" width="26.4" height="17.7"/>
	<rect x="367.2" y="382.9" fill="#CDD6E0" width="26.4" height="17.7"/>
	<rect x="367.2" y="415.6" fill="#CDD6E0" width="67.8" height="17.7"/>
	<rect x="367.2" y="480.9" fill="#CDD6E0" width="26.4" height="17.7"/>
	<rect x="408.6" y="382.9" fill="#CDD6E0" width="26.4" height="17.7"/>
	<rect x="408.6" y="448.3" fill="#CDD6E0" width="26.4" height="17.7"/>
	<rect x="408.6" y="480.9" fill="#CDD6E0" width="26.4" height="17.7"/>
</g>
</svg>
