<?xml version="1.0" encoding="utf-8"?>
<!-- Generator: Adobe Illustrator 18.0.0, SVG Export Plug-In . SVG Version: 6.00 Build 0)  -->
<!DOCTYPE svg PUBLIC "-//W3C//DTD SVG 1.1//EN" "http://www.w3.org/Graphics/SVG/1.1/DTD/svg11.dtd">
<svg version="1.1" id="Layer_1" xmlns="http://www.w3.org/2000/svg" xmlns:xlink="http://www.w3.org/1999/xlink" x="0px" y="0px"
	 viewBox="0 0 48 48" enable-background="new 0 0 48 48" xml:space="preserve">
<g>
	<g>
		<g>
			<g>
				<path fill="#FFD15C" d="M27.3,3.2l-0.2,1.2c0,0-0.6,1.5-0.9,1.9c0,0-0.2,0.7,0.2,1C26.6,7.6,27.2,8,27.2,8l-2.4,4l-1.9,0.3
					l-1-3.8l0.5-0.8c0,0,0.7-0.3,0.8-0.6c0.1-0.3,0.1-1.3,0.1-1.3S23,4.8,23,4.4c0-0.4,0.1-1.1,0.1-1.1L23.4,2c0,0,0.3-1.1,1.5-1
					c1.2,0.1,2.1,0.5,2.1,0.5s0.2,0.6,0.2,0.7S27.3,3.2,27.3,3.2z"/>
			</g>
		</g>
	</g>
	<g>
		<g>
			<g>
				<path fill="#425A6B" d="M23.2,3.6c0,0,0.1-0.9,0.2-0.9c0.2,0,0.3-0.5,0.3-0.7c0.1-0.2,0.4-0.6,1-0.6C25.4,1.5,26.9,2,27,2.1
					c0.1,0.1,0,0.6-0.1,0.7c-0.1,0.1-0.1,0.4,0,0.6c0.1,0.2,0,1,0,1l0.4,0.1c0,0,0.3-1.5,0.3-1.9c0-0.4,0.2-1.8-1.4-2.5
					c-1.5-0.6-2.5,0.7-2.8,1C23.2,1.5,23,2.5,23.2,3.6L23.2,3.6z"/>
			</g>
		</g>
	</g>
	<g>
		<g>
			<g>
				
					<ellipse transform="matrix(0.9165 0.4001 -0.4001 0.9165 4.1057 -10.4373)" fill="#FFD15C" cx="27.1" cy="4.6" rx="0.3" ry="0.7"/>
			</g>
		</g>
	</g>
	<g>
		<g>
			<g>
				
					<ellipse transform="matrix(0.9984 -5.641597e-002 5.641597e-002 0.9984 -0.1839 1.3021)" fill="#FFD15C" cx="23" cy="3.9" rx="0.3" ry="0.7"/>
			</g>
		</g>
	</g>
	<g>
		<g>
			<g>
				<path fill="#F5B54C" d="M24.3,8.2c0.7,0.1,1.1,0.1-0.6,0.6C23,9,22.4,9.1,22,9.1l-0.2-0.7l0.5-0.8c0,0,0.7-0.3,0.8-0.6
					c0.1-0.3,0.1-1.3,0.1-1.3s0.4,0.8,0.8,1c0.4,0.2,1.4,0.2,2.1-0.5c-0.1,0.2-0.6,1-1.8,1.3C23.6,7.8,23.6,8.2,24.3,8.2z"/>
			</g>
		</g>
	</g>
	<g>
		<g>
			<g>
				<path fill="#E8EAE8" d="M19.2,12.7c0,0,1.3,2.2,1.3,2.2l-0.1,1h7.2c0-1.2,0.5-2.5,0.5-2.5c0,0.1,0.1,0.6,0.1,0.6
					c0.5-0.7,2.8-0.1,2.8-0.1s-0.2-1.7-0.5-2.7c-0.3-1-0.9-1.7-1.2-1.9c-0.3-0.2-2.3-1.5-2.3-1.5s-0.7,0.9-1.1,1.7
					c-0.4,0.8-2.3,2.4-2.3,2.4s-0.2,0-0.6-1c-0.4-1-0.5-3.3-0.5-3.3l-0.1,0c-0.4,0.2-1.6,0.5-2.4,0.7c-0.8,0.2-1,0.9-1.2,1.4
					c-0.1,0.5-0.3,2.8-0.3,2.8C18.9,12.5,19.1,12.7,19.2,12.7z"/>
			</g>
		</g>
	</g>
	<g>
		<g>
			<g>
				<g>
					<path fill="#425A6B" d="M27.2,8L27.2,8c0,0-0.7,0.9-1.1,1.7c-0.4,0.8-2.2,2.3-2.4,2.5l-0.1,0.1l-0.2,0c-0.3,0-0.5-0.2-0.9-1.3
						C22.1,10.1,22,8.3,22,7.7c0.1,0,0.2-0.1,0.3-0.1l0.1,0c0,0,0.1,2.3,0.5,3.3c0.4,1,0.6,1,0.6,1s1.8-1.6,2.3-2.4
						c0.4-0.8,1.1-1.7,1.1-1.7S27,7.9,27.2,8z"/>
				</g>
			</g>
		</g>
	</g>
	<g>
		<g>
			<g>
				<path fill="#67C5B8" d="M27.3,8c0,0-1.5,2.7-1.7,3.4c-0.2,0.7-0.9,2.6-0.9,2.6l-2.8-0.2c0,0-0.6-1.8-0.5-3.7
					c0.1-2,0.2-2.2,0.2-2.2l-1,0.3l-0.1,2.6l0.1,3.2c0,0-0.6,0.9-0.8,1.2c-0.3,0.4-0.4,4.7-0.4,5.5c0,0.7-1,6.1-1.3,7.3
					c-0.3,1.2-0.6,5.4-0.6,5.4v3.2c0,0.4,2.8,0.4,2.8,0l0.3-0.7c0,0,1.2-0.6,1.5-1.5c0.3-0.9,1.5-4.2,1.5-4.2s0,1.3,0.2,2
					c0.2,0.7,0.6,2.9,0.6,2.9l0.6,0.7c1.1,0.3,2.1,0.5,3,0.2c0,0,0.2-1.6,0.6-2.3c0.4-0.7-0.3-2.8-0.5-3.1c-0.1-0.4,0.8-1.4,1-3.1
					c0.1-1.8,0.1-4.2,0-5c-0.1-0.8-1.3-5.4-1.3-7.2c-0.4-0.5-1.6-1.1-1.6-1.1s-0.1-1.2,0.5-2.4c0.6-1.2,1.6-3.1,1.6-3.1L27.3,8z"/>
			</g>
		</g>
	</g>
	<g>
		<g>
			<g>
				<g>
					<g>
						<path fill="#344A5E" d="M26.6,42.5c0,0,0.7,0.7,0.3,1.5c-0.4,0.8-0.4,0.8-0.5,0.6C26.5,44.6,26.6,42.5,26.6,42.5"/>
					</g>
				</g>
			</g>
			<g>
				<g>
					<g>
						<path fill="#344A5E" d="M24.7,44.8c0,0-0.2,0.7,0.3,1.2c0.4,0.4,2.2,0.1,2.4-0.1c0.2-0.2,0.1-0.8-0.1-1.1
							c-0.1-0.3-0.7-0.6-0.7-0.6L24.7,44.8z"/>
					</g>
				</g>
			</g>
			<g>
				<g>
					<g>
						<path fill="#425A6B" d="M24.9,35.8c0,0,2.3,0.3,3,0.2c0,0-0.4,3.3-0.7,4c-0.3,0.7-0.5,1.1-0.5,1.6s0.1,2.3,0.3,2.6
							c0.2,0.3,0.5,1,0.1,1.2c-0.3,0.2-1.1,0.3-1.8,0.2c-0.4-0.1-0.6-0.4-0.6-0.8c0-0.1,0-0.3,0-0.4c0-0.4,0-0.5-0.1-0.9
							c-0.1-0.4-0.1-1.6,0-2c0.1-0.4,0-2.5-0.1-3.2C24.5,37.5,24.7,36.1,24.9,35.8z"/>
					</g>
				</g>
			</g>
		</g>
		<g>
			<g>
				<g>
					<g>
						<path fill="#344A5E" d="M14.5,45.3c0,0-0.1,0.2,0.1,0.4c0.2,0.2,1.3,0.3,1.9,0.1c0.7-0.1,1.1-0.5,1.2-0.8
							c0.1-0.3,0.5-0.5,0.5-0.5v0.3l1.3-0.3c0,0,0.2-0.3,0.1-0.5c-0.1-0.2-0.5-0.3-0.5-0.3S14.9,44.9,14.5,45.3z"/>
					</g>
				</g>
			</g>
			<g>
				<g>
					<g>
						<path fill="#425A6B" d="M20.2,36.5c0,0-0.2,2.5-0.4,3.2c-0.2,0.7-0.3,1.7-0.4,2.2c-0.1,0.5,0.3,1.2,0.3,1.6c0,0.4,0,0.4,0,0.4
							s-0.7,0.2-1.2,0.3c-0.5,0.1-0.6,0.2-0.9,0.6c-0.3,0.4-2.1,1.1-3.1,0.4c0,0,0-0.3,0.4-0.5c0.4-0.2,1.8-1,1.9-2.2
							c0.1-1.3,0.4-5.4,0.7-6C18.3,36.8,19.2,36.8,20.2,36.5z"/>
					</g>
				</g>
			</g>
		</g>
	</g>
	<g>
		<g>
			<g>
				<path fill="#48B9A5" d="M23.3,27.5c0-0.7-0.3-0.7-0.5-1.4c0,0,0,1,0,1.1l0,0v1.1c0,0.1,0,0.2,0,0.2c0.1,0.6,0.2,2,0.2,3.1
					c0.3-0.8,0.5-1.4,0.5-1.4S23.4,28.1,23.3,27.5z"/>
			</g>
		</g>
	</g>
	<g>
		<g>
			<g>
				<path fill="#FFD15C" d="M28.2,13.9c0,0,0.5,2.9,0.7,3.3c0.2,0.4,0.2,0.4,0,0.8c-0.2,0.4-1.2,2.8-1.6,3.4c-0.3,0.6-1,1.5-1.2,1.8
					c-0.1,0.3-1.2,1-1.5,1.3c-0.3,0.3-1,1.5-1,1.5s0,0.4,0.4,0.3c0,0-0.2,0.4,0,0.6c0.2,0.1,0.4,0,0.4,0s-0.4,0.4-0.3,0.6
					c0.2,0.3,0.6-0.2,0.7-0.2c0,0-0.1,0.5,0.4,0.3c0,0,0.5-0.8,0.7-1c0.2-0.2,0.5-0.5,0.7-0.8c0.2-0.3,0.5-0.7,0.6-1
					c0.1-0.3,0.9-1.5,1.1-1.8c0.2-0.3,1.8-2.6,2-3.1c0.2-0.5,0.6-1.1,0.6-1.1s0.2-0.6,0.1-1.3c-0.1-0.7-0.5-4.1-0.5-4.1
					S28.8,12.6,28.2,13.9z"/>
			</g>
		</g>
	</g>
	<g>
		<g>
			<g>
				<path fill="#E8EAE8" d="M30.3,11.2c-0.3-1-0.9-1.7-1.2-1.9c0,0-0.1-0.1-0.1-0.1v3.1h-1v1.1c0,0,0,0,0,0c0,0.1,0.1,0.6,0.1,0.6
					c0.5-0.7,2.8-0.1,2.8-0.1S30.6,12.2,30.3,11.2z"/>
			</g>
		</g>
	</g>
	<g>
		<g>
			<g>
				<path fill="#FFD15C" d="M19,12.5l0.9,2.2c-0.1,0.3-0.1,0.6-0.1,0.7c-0.1,0.3-0.8,1.6-1.3,1.6c-0.4,0-0.9-0.7-0.9-1.1
					c-0.1-0.4-0.4-1.3-0.1-1.9c0.3-0.6,0.4-1.6,0.5-1.7c0.1-0.1,0.1-1.8,0.1-2c0-0.2,0.2-0.2,0.4-0.2c0.2,0,1.1,0,1.2,0.1
					c0.1,0.1-0.1,0.5-0.1,0.5l0,0.6l0.1,0.6c0,0,0.4,0.1,0.1,0.4c0,0,0,0-0.1,0C19.5,12.4,19.1,12.4,19,12.5
					C18.9,12.4,18.9,12.4,19,12.5L19,12.5z"/>
			</g>
		</g>
	</g>
	<g>
		<g>
			<g>
				<g>
					<polygon fill="#F26F5A" points="18.9,12.4 31.1,43.2 31.7,43 19.7,12.2 					"/>
				</g>
			</g>
		</g>
		<g>
			<g>
				<g>
					<g>
						<path fill="#CED6E0" d="M33.5,45.3c0,0-2.2,2.4-2.8,2.7c0,0,0.7-0.8,0.2-1.3l1.2-1l-1.1-2.4l0.6-0.2l0.7,2.4l1.1-1
							C33.4,44.5,33.6,44.9,33.5,45.3z"/>
					</g>
				</g>
			</g>
		</g>
	</g>
</g>
</svg>
