<?xml version="1.0" encoding="utf-8"?>
<!-- Generator: Adobe Illustrator 19.0.1, SVG Export Plug-In . SVG Version: 6.00 Build 0)  -->
<svg version="1.1" id="Layer_1" xmlns="http://www.w3.org/2000/svg" xmlns:xlink="http://www.w3.org/1999/xlink" x="0px" y="0px"
	 viewBox="0 0 48 48" style="enable-background:new 0 0 48 48;" xml:space="preserve">
<style type="text/css">
	.st0{fill:#66C6B9;}
	.st1{fill:#F3F3F3;}
	.st2{fill:#415A6B;}
	.st3{fill:#CED6E0;}
	.st4{fill:#F3705A;}
	.st5{fill:#E8EAE9;}
	.st6{fill:#4ABAA5;}
	.st7{fill:#F05540;}
	.st8{fill:#FFD15C;}
	.st9{fill:#55C0EB;}
	.st10{fill:#8AD7F8;}
	.st11{fill:#344A5E;}
	.st12{fill:#FFFFFF;}
	.st13{fill:#F7B64C;}
	.st14{fill:#ADB3BA;}
	.st15{fill:#38A892;}
	.st16{fill:#ED9845;}
	.st17{fill:#2D4251;}
	.st18{fill:#304556;}
	.st19{fill:#A5AAAD;}
	.st20{fill:#2D4456;}
	.st21{fill:#4FB0E0;}
	.st22{fill:#2D4354;}
	.st23{fill:#E54C38;}
	.st24{fill:#2B4456;}
	.st25{fill:#2B404F;}
</style>
<g>
	<g>
		<g>
			<g>
				<g>
					<g>
						<path class="st8" d="M34.9,18.8l0,1.9c0,0,0.3,1.2-0.4,1.8s-1.6,0.4-1.6,0.4s0.5,1.5-0.4,2.1c-0.9,0.6-1.7,0.2-1.7,0.2
							s0.1,0.8-0.4,1.3c-0.6,0.5-1.7,0.2-1.7,0.2s0,1-0.6,1.2c-0.5,0.3-1.4,0.2-2.1-0.2c-0.7-0.5-6.9-2.5-6.9-2.5L18,24l-2.1-1.4
							c0,0-2-1.2-3-1.6c-1-0.4-5.9-3-5.9-3l4.9-6.9l5.4,1.6l6-2c0.6-0.2,1.3-0.2,1.9,0.1l4,1.9L34.9,18.8z"/>
					</g>
					<g>
						<path class="st13" d="M38.2,8.9c-2.1,1.3-4.3,2.8-4.6,3c-0.6,0.5-1.3,1.1-1.7,1.1c-0.3,0.1-0.4,0.1-1.2-0.2
							c-0.8-0.3-2.2-0.6-2.4-0.8c-0.3-0.2-1.1-0.8-1.8-0.7s-0.8,0.4-1.2,0.5c-0.4,0.1-1.7,0.5-2,0.6c-0.3,0.1-1,0.7-1,1.6
							c0,0-0.4,1.4-0.4,1.7L21.6,17c0,0,2.2,1.9,3.7-2.1c0,0,0.6-0.2,0.8-0.3c0.2-0.1,1.1,0.1,1.7,0.3s2.1,1,3,1.7
							c0.9,0.8,3.9,3.2,4.1,4.1c0,0,1-0.9,1.3-1.5c0.2-0.4,1.5-1.4,2.9-2.2L38.2,8.9z"/>
					</g>
					<g>
						<path class="st5" d="M21.6,17c0,0,0.5,0.3,1.5-0.2c0,0,0.4-0.9,0.4-1.2c0-0.3-0.3-0.5-0.6-0.5s-0.6,0.2-0.7,0.4
							C22,15.7,21.6,16.6,21.6,17z"/>
					</g>
					<g>
						<path class="st13" d="M26.6,26.3c-0.1,0.4-0.6,1.3-0.9,1.8c-0.2,0.3-0.5,0.5-0.9,0.4c-0.2,0-0.4-0.1-0.6-0.2
							c-0.7-0.4-0.7-1.1-0.7-1.1s-0.5,0.4-1.4,0.2c-0.8-0.2-1.4-0.7-1.6-1c0,0-0.7,0.7-1.2,0.4c-0.5-0.3-1.7-0.7-1.2-2.6
							c0,0-0.6,0.5-1.5,0.2c-0.8-0.4-1-1.2-0.8-1.8c0,0,0.8,0.6,1.2,0.7c0.4,0.1,1.1,0.7,1.2,0.9c0.1,0.1,0.3,0.4,0.4,0.4
							c0,0,0.9-0.9,1.8-0.9c0.9,0,1.5,0.5,1.6,0.9c0.1,0.4-0.3,0.9-0.3,0.9s0.9-0.7,1.2-1.1c0.3-0.4,0.8-0.6,1.5-0.4
							c0.7,0.2,0.8,1,0.7,1.4C25.8,24.6,26.9,25.3,26.6,26.3z"/>
					</g>
					<g>
						<g>
							<path class="st5" d="M23.3,25.8c0,0,0.3,0.4,0.8,0s0.8-0.7,0.8-0.9c0.1-0.2-0.4-0.7-0.8-0.9c0,0-0.3,0.1-0.5,0.3
								C23.3,24.7,22.9,25.4,23.3,25.8z"/>
						</g>
						<g>
							<path class="st5" d="M25.6,25.4c0.1-0.1,0.6,0.3,0.9,0.7c0,0-0.5,0.8-1,0.9c-0.4,0.1-0.6-0.1-0.6-0.1s-0.2-0.2,0-0.7
								C25.1,25.8,25.6,25.4,25.6,25.4z"/>
						</g>
						<g>
							<path class="st5" d="M20.2,25.6c0,0,0.5,0.3,1-0.1c0.5-0.4,0.6-0.6,0.6-0.6c0.1,0-0.4-0.7-1-0.9c0,0-0.5,0.3-0.8,0.8
								C19.8,25.3,20.2,25.6,20.2,25.6z"/>
						</g>
					</g>
					<g>
						<g>
							<path class="st13" d="M32.8,22.9c0,0-0.2-0.1-0.4-0.2c-0.1-0.1-0.2-0.1-0.4-0.2c-0.1-0.1-0.3-0.2-0.4-0.3
								c-0.3-0.2-0.5-0.5-0.7-0.7c-0.1-0.1-0.1-0.2-0.2-0.3c0-0.1-0.1-0.1-0.1-0.1s0,0,0.1,0.1c0.1,0,0.1,0.1,0.2,0.2
								c0.1,0,0.1,0.1,0.2,0.1c0.1,0,0.1,0.1,0.2,0.1c0.1,0.1,0.3,0.2,0.4,0.3c0.1,0.1,0.3,0.2,0.4,0.3c0.1,0.1,0.2,0.2,0.3,0.3
								C32.7,22.8,32.8,22.9,32.8,22.9z"/>
						</g>
						<g>
							<path class="st13" d="M30.7,25.2c0,0-0.2-0.1-0.4-0.2c-0.1-0.1-0.3-0.2-0.4-0.3c-0.1-0.1-0.3-0.2-0.4-0.3
								c-0.1-0.1-0.1-0.1-0.2-0.2c-0.1-0.1-0.1-0.1-0.2-0.2c-0.1-0.1-0.2-0.2-0.3-0.3c-0.2-0.2-0.3-0.3-0.3-0.3s0.2,0.1,0.4,0.2
								c0.1,0.1,0.3,0.2,0.4,0.3c0.1,0.1,0.1,0.1,0.2,0.2c0.1,0.1,0.1,0.1,0.2,0.2c0.1,0.1,0.3,0.2,0.4,0.4c0.1,0.1,0.2,0.2,0.3,0.3
								C30.6,25.1,30.7,25.2,30.7,25.2z"/>
						</g>
						<g>
							<path class="st13" d="M28.5,26.7c0,0-0.1,0-0.3-0.1c-0.1,0-0.2-0.1-0.3-0.1c-0.1-0.1-0.2-0.1-0.3-0.2c-0.1,0-0.1-0.1-0.2-0.1
								c-0.1,0-0.1-0.1-0.1-0.1c0,0-0.1-0.1-0.1-0.1c0,0-0.1-0.1-0.1-0.1c-0.1-0.2-0.2-0.3-0.2-0.3s0.1,0.1,0.3,0.2
								c0,0,0.1,0.1,0.1,0.1c0,0,0.1,0.1,0.1,0.1c0.1,0.1,0.2,0.1,0.3,0.2c0.1,0.1,0.2,0.1,0.3,0.2c0.1,0.1,0.2,0.1,0.3,0.2
								C28.4,26.6,28.5,26.7,28.5,26.7z"/>
						</g>
					</g>
				</g>
				<g>
					<g>
						
							<rect x="32.1" y="13.3" transform="matrix(-0.495 -0.8689 0.8689 -0.495 41.464 54.9866)" class="st5" width="9.2" height="4.2"/>
					</g>
					<g>
						
							<rect x="35.9" y="7.9" transform="matrix(-0.8689 0.495 -0.495 -0.8689 83.098 6.27)" class="st2" width="9.6" height="12.5"/>
					</g>
					<g>
						<circle class="st11" cx="40.9" cy="18.1" r="1.3"/>
					</g>
				</g>
				<g>
					<g>
						
							<rect x="7.4" y="13.7" transform="matrix(0.4179 -0.9085 0.9085 0.4179 -7.3288 20.8289)" class="st5" width="10.5" height="4.8"/>
					</g>
					<g>
						
							<rect x="2.5" y="8" transform="matrix(0.9085 0.4179 -0.4179 0.9085 7.0159 -1.9365)" class="st2" width="10.9" height="14.2"/>
					</g>
					<g>
						<circle class="st11" cx="8.1" cy="19.5" r="1.5"/>
					</g>
				</g>
			</g>
		</g>
		<g>
			<g>
				<polygon class="st1" points="0,34.1 28,41.7 47.6,36 19.8,30.9 				"/>
			</g>
			<g>
				<polygon class="st1" points="0,34.1 28,41.7 47.6,36 19.8,30.9 				"/>
			</g>
			<g>
				<polygon class="st14" points="39.5,35.7 38.7,35.5 24.2,39.5 24.8,39.6 				"/>
				<polygon class="st14" points="34.7,34.8 20.2,38.4 20.9,38.6 35.6,34.9 				"/>
				<polygon class="st14" points="30.7,34 16.3,37.3 17,37.5 31.6,34.2 				"/>
				<polygon class="st14" points="26.7,33.3 12.4,36.3 13.1,36.5 27.6,33.5 				"/>
				<polygon class="st4" points="16.6,34.1 9.2,35.4 8.4,35.2 15.8,33.8 				"/>
			</g>
			<g>
				<g>
					<path class="st2" d="M36.1,33.6c0-0.1-0.1-0.2-0.2-0.2l-0.9-0.2c-0.2,0-0.2,1.4-0.2,1.4l1.1-0.1c0.1,0,0.2-0.1,0.2-0.2V33.6z"
						/>
				</g>
				<g>
					<path class="st2" d="M34.9,34.5l-6.3-0.2c-2.6-0.1-5.2-0.5-7.8-1.3h0v-0.3l2.8-0.1c0.8,0,1.5,0,2.3,0l9.1,0.5L34.9,34.5"/>
					<g>
						<path class="st8" d="M20.4,32.8C20.4,32.8,20.4,32.8,20.4,32.8l0.5,0.2v-0.3L20.4,32.8z"/>
					</g>
				</g>
				<g>
					<g>
						<path class="st4" d="M23.4,32.7l-2.5,0V33l0,0c0.8,0.2,1.7,0.5,2.5,0.6V32.7z"/>
					</g>
					<g>
						<path class="st8" d="M20.4,32.8C20.4,32.8,20.4,32.8,20.4,32.8l0.5,0.2v-0.3L20.4,32.8z"/>
					</g>
				</g>
				<g>
					<g>
						<path class="st4" d="M34.7,34.6l0.3,0c0,0-0.1-0.7,0-1c0-0.3,0.1-0.4,0.2-0.4l-0.1,0c0,0-0.1,0.1-0.2,0.5c0,0.3,0,0.9,0,0.9
							L34.7,34.6z"/>
					</g>
					<g>
						<path class="st4" d="M29.3,34.3C29.3,34.3,29.3,34.3,29.3,34.3c0,0.1,0.1,0.2,0.2,0.2c0.2,0,0.8,0,1.4,0.1
							c0.7,0.1,3.4,0.3,3.7,0.3s0.4-0.1,0.4-0.3c0-0.1-0.1-0.2-0.1-0.3c0,0,0,0-0.2,0.1c-0.2,0-2.2-0.1-2.9-0.3
							c-0.7-0.2-1.7-0.3-2.3,0C29.3,34.1,29.3,34.2,29.3,34.3z"/>
					</g>
					<g>
						<path class="st4" d="M36.9,34L36.9,34c0,0.2-0.2,0.3-0.3,0.3l-0.4,0v-0.7l0.4,0C36.8,33.6,36.9,33.8,36.9,34z"/>
					</g>
				</g>
			</g>
			<g>
				<path class="st9" d="M8.7,34l0.5,0c0.3,0.1,0.5,0.1,0.5,0.1c0.1,0,0,0.1-0.2,0.1c-0.2,0-0.5,0-0.9,0c-0.4,0-0.8-0.1-1.3-0.1
					c-0.5-0.1-0.8-0.1-1-0.2s-0.1-0.1,0.1-0.1c0.2,0,0.4,0,0.8,0c0.2,0,0.4,0,0.7,0.1l-0.2,0.1c-0.2,0-0.3,0-0.5,0
					c-0.1,0-0.3,0-0.3,0c-0.1,0-0.1,0,0,0.1S7.3,34,7.6,34c0.4,0.1,0.7,0.1,0.9,0.1s0.4,0,0.5,0c0.1,0,0.1,0,0.1-0.1
					C9.1,34.1,8.9,34,8.7,34z"/>
				<path class="st9" d="M9.2,33.8c-0.3,0-0.5-0.1-0.7-0.1c-0.1,0-0.2-0.1-0.3-0.1c-0.1,0-0.1-0.1-0.1-0.1c0,0,0.1,0,0.2-0.1
					c0.2,0,0.5,0,0.9,0c0.4,0,0.9,0.1,1.3,0.1c0.5,0.1,0.8,0.1,0.9,0.2c0.1,0.1,0.1,0.1-0.1,0.1c-0.2,0-0.5,0-0.9,0
					C10.1,33.9,9.7,33.9,9.2,33.8z M9.5,33.8c0.3,0.1,0.6,0.1,0.9,0.1s0.4,0,0.6,0c0.1,0,0.1,0,0-0.1c-0.1,0-0.3-0.1-0.7-0.1
					c-0.3-0.1-0.6-0.1-0.9-0.1c-0.2,0-0.4,0-0.6,0c-0.1,0-0.1,0,0,0.1C8.9,33.7,9.1,33.7,9.5,33.8z"/>
				<path class="st9" d="M12.7,33.7l-3-0.4l0.3,0l2.6,0.2l-2-0.3l0.3,0l3,0.4l-0.3,0L11,33.4l2,0.3L12.7,33.7z"/>
				<path class="st9" d="M14.9,33.4L12.4,33L12,33.1L11.5,33l1.2-0.2l0.5,0.1L12.7,33l2.5,0.4L14.9,33.4z"/>
				<path class="st9" d="M16.2,33.2l-3-0.4l0.6-0.1c0.2,0,0.3,0,0.4,0s0.3,0,0.5,0c0.2,0,0.4,0,0.5,0.1c0.2,0,0.4,0.1,0.5,0.1
					c0.1,0,0.1,0.1,0,0.1c0.1,0,0.3,0,0.4,0c0.1,0,0.4,0,0.7,0l0.8,0.1L17.2,33L16.3,33c-0.3,0-0.5,0-0.6,0c-0.1,0-0.2,0-0.2,0
					c-0.1,0-0.1,0-0.2,0l-0.1,0l1.3,0.2L16.2,33.2z M14.7,32.9l0.2,0c0.1,0,0.2,0,0.2,0s0,0,0,0c0,0-0.1,0-0.2,0c-0.1,0-0.2,0-0.3,0
					s-0.2,0-0.2,0c0,0-0.1,0-0.2,0l-0.2,0L14.7,32.9z"/>
				<path class="st9" d="M19.4,32.7L19,32.7l-0.8-0.1l-0.6,0.1l0.6,0.1l-0.3,0l-2.4-0.5l0.3,0L19.4,32.7z M17.6,32.6l-1.3-0.1
					l0.9,0.2L17.6,32.6z"/>
				<path class="st9" d="M19.7,32.3l0.5,0c0.3,0.1,0.5,0.1,0.5,0.1c0.1,0,0,0.1-0.2,0.1c-0.2,0-0.5,0-0.9,0c-0.4,0-0.8-0.1-1.3-0.1
					c-0.5-0.1-0.8-0.1-1-0.2s-0.1-0.1,0.1-0.1c0.2,0,0.4,0,0.8,0c0.2,0,0.4,0,0.7,0.1l-0.2,0.1c-0.2,0-0.3,0-0.5,0
					c-0.1,0-0.3,0-0.3,0c-0.1,0-0.1,0,0,0.1c0.1,0,0.3,0.1,0.7,0.1c0.4,0.1,0.7,0.1,0.9,0.1c0.2,0,0.4,0,0.5,0c0.1,0,0.1,0,0.1-0.1
					C20,32.4,19.9,32.3,19.7,32.3z"/>
				<path class="st9" d="M22.1,32.3l-2.5-0.4L19.1,32l-0.5-0.1l1.2-0.2l0.5,0.1l-0.4,0.1l2.5,0.4L22.1,32.3z"/>
			</g>
		</g>
	</g>
</g>
</svg>
