<?xml version="1.0" encoding="utf-8"?>
<!-- Generator: Adobe Illustrator 19.0.1, SVG Export Plug-In . SVG Version: 6.00 Build 0)  -->
<svg version="1.1" id="Layer_1" xmlns="http://www.w3.org/2000/svg" xmlns:xlink="http://www.w3.org/1999/xlink" x="0px" y="0px"
	 viewBox="0 0 48 48" style="enable-background:new 0 0 48 48;" xml:space="preserve">
<style type="text/css">
	.st0{fill:#66C6B9;}
	.st1{fill:#F3F3F3;}
	.st2{fill:#415A6B;}
	.st3{fill:#CED6E0;}
	.st4{fill:#F3705A;}
	.st5{fill:#E8EAE9;}
	.st6{fill:#4ABAA5;}
	.st7{fill:#F05540;}
	.st8{fill:#FFD15C;}
	.st9{fill:#55C0EB;}
	.st10{fill:#8AD7F8;}
	.st11{fill:#344A5E;}
	.st12{fill:#FFFFFF;}
	.st13{fill:#F7B64C;}
	.st14{fill:#ADB3BA;}
	.st15{fill:#38A892;}
	.st16{fill:#ED9845;}
	.st17{fill:#2D4251;}
	.st18{fill:#304556;}
	.st19{fill:#A5AAAD;}
	.st20{fill:#2D4456;}
	.st21{fill:#4FB0E0;}
	.st22{fill:#2D4354;}
	.st23{fill:#E54C38;}
	.st24{fill:#2B4456;}
	.st25{fill:#2B404F;}
</style>
<g>
	<g>
		<g>
			<g>
				<polygon class="st11" points="11.2,48 5.2,48 11.8,35 17.9,35 				"/>
			</g>
			<g>
				<polygon class="st11" points="36.8,48 42.8,48 36.2,35 30.1,35 				"/>
			</g>
		</g>
		<g>
			<rect x="2.3" y="4.7" class="st5" width="43.4" height="30.2"/>
		</g>
		<g>
			<path class="st4" d="M48,2.3L48,2.3C48,1,47,0,45.7,0H2.3C1,0,0,1,0,2.3v0c0,1.3,1,2.3,2.3,2.3h43.3C47,4.7,48,3.6,48,2.3z"/>
		</g>
		<g>
			<path class="st4" d="M48,34.8L48,34.8c0-1.3-1-2.3-2.3-2.3H2.3c-1.3,0-2.3,1-2.3,2.3v0c0,1.3,1,2.3,2.3,2.3h43.3
				C47,37.1,48,36.1,48,34.8z"/>
		</g>
		<g>
			<path class="st11" d="M7.7,11.5c0.2,0.7-0.4,1.4-1.1,1.4c-0.3,0-0.5-0.1-0.7-0.3V15c0,0.6,0.5,1,1,1h2.3C9.1,16.2,9,16.4,9,16.7
				c0,0.7,0.6,1.2,1.4,1.1c0.4-0.1,0.7-0.4,0.8-0.8c0.1-0.4,0-0.8-0.2-1h2.3c0.6,0,1-0.5,1-1v-2.3c0.2,0.2,0.4,0.3,0.7,0.3
				c0.7,0,1.2-0.7,1.1-1.4c-0.1-0.4-0.4-0.7-0.8-0.8c-0.4-0.1-0.8,0-1,0.2V8.7c0-0.6-0.5-1-1-1h-2.3c0.2,0.2,0.3,0.4,0.3,0.7
				c0,0.7-0.7,1.3-1.4,1.1C9.4,9.4,9.1,9.1,9,8.7c-0.1-0.4,0-0.8,0.2-1H6.9c-0.6,0-1,0.5-1,1V11c0.3-0.2,0.6-0.3,1-0.2
				C7.3,10.9,7.6,11.2,7.7,11.5z"/>
		</g>
		<g>
			<g>
				<path class="st0" d="M40.5,10.2l-2.2,3.6l-0.5-1.4c-10.9,4.1-13.2,15.3-13.3,15.4l-2-0.4c0.1-0.5,2.6-12.3,14.5-16.9l-0.5-1.4
					L40.5,10.2z"/>
			</g>
		</g>
		<g>
			<g>
				<g>
					<g>
						<polygon class="st8" points="28.4,8.8 26.9,10.4 28.4,12 27,13.4 25.4,11.8 23.9,13.4 22.4,12 24,10.4 22.4,8.8 23.9,7.4 
							25.4,9 27,7.4 						"/>
						<polygon class="st4" points="41.2,19.3 42.8,20.9 41.4,22.3 39.8,20.7 38.2,22.3 36.8,20.9 38.4,19.3 36.8,17.7 38.2,16.3 
							39.8,17.9 41.4,16.3 42.8,17.7 						"/>
						<path class="st9" d="M31.5,22.2c-1.8,0-3.3,1.5-3.3,3.3c0,1.8,1.5,3.3,3.3,3.3c1.8,0,3.3-1.5,3.3-3.3
							C34.8,23.7,33.3,22.2,31.5,22.2z M31.5,26.9c-0.7,0-1.3-0.6-1.3-1.3c0-0.7,0.6-1.3,1.3-1.3c0.7,0,1.3,0.6,1.3,1.3
							C32.8,26.3,32.2,26.9,31.5,26.9z"/>
					</g>
				</g>
			</g>
		</g>
		<g>
			<rect x="5.9" y="21.6" class="st14" width="12.9" height="2"/>
		</g>
		<g>
			<rect x="5.9" y="26.8" class="st14" width="8.1" height="2"/>
		</g>
	</g>
</g>
</svg>
