<?xml version="1.0" encoding="utf-8"?>
<!-- Generator: Adobe Illustrator 18.0.0, SVG Export Plug-In . SVG Version: 6.00 Build 0)  -->
<!DOCTYPE svg PUBLIC "-//W3C//DTD SVG 1.1//EN" "http://www.w3.org/Graphics/SVG/1.1/DTD/svg11.dtd">
<svg version="1.1" id="Layer_1" xmlns="http://www.w3.org/2000/svg" xmlns:xlink="http://www.w3.org/1999/xlink" x="0px" y="0px"
	 viewBox="0 0 48 48" enable-background="new 0 0 48 48" xml:space="preserve">
<g>
	<g>
		<g>
			<g>
				<path fill="#F3705A" d="M29,9.6c-4.8,1.2-8,5.2-8.4,9.8c-2.6-3.8-7.4-5.7-12.1-4.5c-6.1,1.6-9.7,7.7-8.2,13.8
					C2.6,37.5,28,48,28,48s17.1-21.4,14.8-30.3C41.3,11.6,35.1,8,29,9.6z"/>
			</g>
			<g>
				<g>
					<path fill="#FFFFFF" d="M13.7,34.9l-1.9,0.5l-2.4-9.3l1.9-0.5L13.7,34.9z"/>
					<path fill="#FFFFFF" d="M21.3,29.4c0.2,1,0.1,1.9-0.4,2.7c-0.5,0.8-1.3,1.4-2.3,1.7c-1,0.3-2,0.1-2.8-0.3
						c-0.8-0.5-1.4-1.2-1.6-2.2c-0.3-1-0.1-1.9,0.4-2.7c0.5-0.8,1.3-1.4,2.3-1.7c1-0.3,2-0.1,2.8,0.4C20.5,27.7,21,28.4,21.3,29.4z
						 M16.1,30.7c0.1,0.5,0.4,1,0.8,1.2c0.4,0.3,0.8,0.3,1.3,0.2c0.5-0.1,0.8-0.4,1.1-0.8c0.2-0.4,0.3-0.9,0.1-1.5
						c-0.1-0.6-0.4-1-0.8-1.2c-0.4-0.3-0.8-0.3-1.3-0.2c-0.5,0.1-0.8,0.4-1.1,0.8C16,29.7,15.9,30.2,16.1,30.7z"/>
					<path fill="#FFFFFF" d="M25.2,32l-4.4-6.1l1.9-0.5l2.8,3.8l0.6-4.7l1.9-0.5l-0.9,7.4L25.2,32z"/>
					<path fill="#FFFFFF" d="M36.3,28.1c-0.6,0.9-1.4,1.5-2.4,1.8c-1,0.3-1.9,0.2-2.8-0.3c-0.8-0.5-1.4-1.2-1.6-2.3
						c-0.3-1.1-0.1-2,0.4-2.8c0.5-0.8,1.2-1.3,2.2-1.6c0.9-0.2,1.8-0.2,2.6,0.2c0.8,0.4,1.3,1.1,1.6,2.1l0.3,1l-4.9,1.3
						c0.2,0.4,0.4,0.6,0.8,0.8c0.4,0.1,0.8,0.2,1.2,0.1c0.7-0.2,1.1-0.5,1.5-1.1L36.3,28.1z M33.5,24.6c-0.3-0.2-0.7-0.2-1-0.1
						c-0.4,0.1-0.7,0.3-0.9,0.6c-0.3,0.3-0.4,0.7-0.3,1.1l2.9-0.8C34,25,33.8,24.7,33.5,24.6z"/>
				</g>
			</g>
		</g>
		<g>
			<g>
				<g>
					<polygon fill="#344A5E" points="41.2,2.4 37.6,6.1 43.9,10.1 45.7,5.2 					"/>
				</g>
			</g>
			<g>
				<g>
					<path fill="#415A6B" d="M40.9,0c-0.2,0.4-0.3,0.8-0.3,1.1c-0.1,0.6,0.2,1.1,0.7,1.4l4.4,2.7c0.5,0.3,1.1,0.3,1.5,0
						C47.4,5,47.7,4.8,48,4.4L40.9,0z"/>
				</g>
			</g>
			<g>
				<g>
					<path fill="#415A6B" d="M43,11.5l-6.3-3.9c-0.4-0.3-0.6-0.8-0.3-1.3c0.3-0.4,0.8-0.6,1.3-0.3L44,9.9c0.4,0.3,0.6,0.8,0.3,1.3
						C44,11.6,43.5,11.8,43,11.5z"/>
				</g>
			</g>
			<g>
				<polygon fill="#415A6B" points="36.4,15.1 36.4,15.1 38.8,8.8 41,10.2 				"/>
			</g>
		</g>
	</g>
</g>
</svg>
