<?xml version="1.0" encoding="utf-8"?>
<!-- Generator: Adobe Illustrator 18.0.0, SVG Export Plug-In . SVG Version: 6.00 Build 0)  -->
<!DOCTYPE svg PUBLIC "-//W3C//DTD SVG 1.1//EN" "http://www.w3.org/Graphics/SVG/1.1/DTD/svg11.dtd">
<svg version="1.1" id="Layer_1" xmlns="http://www.w3.org/2000/svg" xmlns:xlink="http://www.w3.org/1999/xlink" x="0px" y="0px"
	 viewBox="0 0 48 48" enable-background="new 0 0 48 48" xml:space="preserve">
<g>
	<g>
		<g>
			<path fill="#F3F3F3" d="M12.4,48h24.2c0.3-4.4,2.3-8.5,5.4-11.7c3.7-3.8,6-9.1,6-14.9v0C48,9.3,38-0.4,25.8,0
				C14.2,0.4,5.2,10.3,5.2,21.9v0L0,34.4h5.2v6.1c0,1.3,1.1,2.4,2.3,2.4h4.9V48z"/>
		</g>
		<g>
			<polygon fill="#FFD15C" points="29.5,11.7 32.1,11.7 27.1,5.9 22.1,11.7 24.7,11.7 24.7,16.4 29.5,16.4 			"/>
			<polygon fill="#F3705A" points="24.7,29.8 22.1,29.8 27.1,35.6 32.1,29.8 29.5,29.8 29.5,25.1 24.7,25.1 			"/>
			<polygon fill="#8AD7F8" points="41.9,20.7 36.1,15.8 36.1,18.3 31.5,18.3 31.5,23.2 36.1,23.2 36.1,25.7 			"/>
			<polygon fill="#415A6B" points="18.1,18.3 18.1,15.8 12.3,20.7 18.1,25.7 18.1,23.2 22.7,23.2 22.7,18.3 			"/>
		</g>
	</g>
</g>
</svg>
