<?xml version="1.0" encoding="utf-8"?>
<!-- Generator: Adobe Illustrator 18.0.0, SVG Export Plug-In . SVG Version: 6.00 Build 0)  -->
<!DOCTYPE svg PUBLIC "-//W3C//DTD SVG 1.1//EN" "http://www.w3.org/Graphics/SVG/1.1/DTD/svg11.dtd">
<svg version="1.1" id="Layer_1" xmlns="http://www.w3.org/2000/svg" xmlns:xlink="http://www.w3.org/1999/xlink" x="0px" y="0px"
	 viewBox="0 0 512 512" enable-background="new 0 0 512 512" xml:space="preserve">
<g>
	<g>
		<path fill="#3DC9AE" d="M367.6,187.5c-57.5-4.4-100.6,38.7-96.2,96.2C328.9,288.1,372,245,367.6,187.5z"/>
		
			<rect x="271.9" y="249.5" transform="matrix(0.7071 0.7071 -0.7071 0.7071 277.7242 -114.547)" fill="#3DC9AE" width="10.4" height="57"/>
	</g>
	<g>
		<path fill="#3DC9AE" d="M144.4,187.5c57.5-4.4,100.6,38.7,96.2,96.2C183.1,288.1,140,245,144.4,187.5z"/>
		
			<rect x="229.7" y="249.5" transform="matrix(-0.7071 0.7071 -0.7071 -0.7071 597.4977 308.4468)" fill="#3DC9AE" width="10.4" height="57"/>
	</g>
	<rect x="246.8" y="163.1" fill="#4CDBC4" width="18.4" height="162.9"/>
	<path fill="#F2F2F2" d="M390.4,369.3H121.6c-11.6,0-21.1-9.4-21.1-21.1V331c0-11.6,9.4-21.1,21.1-21.1h268.9
		c11.6,0,21.1,9.4,21.1,21.1v17.2C411.5,359.8,402.1,369.3,390.4,369.3z"/>
	<path fill="#F2F2F2" d="M384.3,369.3l-4.1,13.2l-30.5,112.4c-2.6,8.9-10.8,15.2-20.2,15.2H182.6c-9.3,0-17.6-6.2-20.2-15.2
		l-30.5-112.4l-4.1-13.2H384.3z"/>
	<polygon fill="#CDD6E0" points="384.3,369.3 380.1,382.5 131.8,382.5 127.7,369.3 	"/>
	<circle fill="#F8B64C" cx="256" cy="92.9" r="90.9"/>
	<circle fill="#FFD15C" cx="256" cy="92.9" r="77.6"/>
	<circle fill="#F8B64C" cx="256" cy="92.9" r="62.7"/>
	<path fill="#FFD15C" d="M252.4,117V95.6c-6.7-1.9-11.5-4.8-14.6-8.6c-3.1-3.9-4.7-8.5-4.7-14c0-5.6,1.8-10.2,5.3-14
		c3.5-3.8,8.2-6,14-6.5v-5h7.4v5c5.4,0.6,9.7,2.5,12.9,5.5s5.2,7.1,6.1,12.2l-12.9,1.7c-0.8-4-2.8-6.7-6.1-8.1v19.9
		c8.1,2.2,13.7,5.1,16.6,8.6c3,3.5,4.4,8,4.4,13.5c0,6.1-1.9,11.3-5.6,15.5s-8.9,6.8-15.5,7.7v9.5h-7.4v-9.3
		c-5.9-0.7-10.6-2.9-14.3-6.6c-3.7-3.7-6-8.8-7-15.5l13.3-1.4c0.5,2.7,1.6,5.1,3.1,7C248.9,114.6,250.6,116.1,252.4,117z
		 M252.4,63.5c-2,0.7-3.6,1.8-4.8,3.5c-1.2,1.6-1.8,3.4-1.8,5.4c0,1.8,0.5,3.5,1.6,5c1.1,1.5,2.7,2.8,4.9,3.7V63.5z M259.8,117.7
		c2.5-0.5,4.6-1.7,6.2-3.5c1.6-1.9,2.4-4.1,2.4-6.6c0-2.3-0.7-4.2-2-5.9c-1.3-1.6-3.5-2.9-6.6-3.8V117.7z"/>
	<polygon fill="none" points="306.6,163.1 306.8,162.5 306.3,161.9 	"/>
</g>
</svg>
