<?xml version="1.0" encoding="utf-8"?>
<!-- Generator: Adobe Illustrator 18.0.0, SVG Export Plug-In . SVG Version: 6.00 Build 0)  -->
<!DOCTYPE svg PUBLIC "-//W3C//DTD SVG 1.1//EN" "http://www.w3.org/Graphics/SVG/1.1/DTD/svg11.dtd">
<svg version="1.1" id="Layer_1" xmlns="http://www.w3.org/2000/svg" xmlns:xlink="http://www.w3.org/1999/xlink" x="0px" y="0px"
	 viewBox="0 0 512 512" enable-background="new 0 0 512 512" xml:space="preserve">
<g>
	<g>
		<g>
			<path fill="#40596B" d="M260,274.3L260,274.3h-29.7l0,0c-7.8,19.6-26.8,32.4-47.8,32.4h-11.4v20.4h148v-20.4h-11.4
				C286.8,306.7,267.9,293.8,260,274.3z"/>
			<path fill="#40596B" d="M319.3,3.9c-0.1-0.1-0.1-0.2-0.2-0.2l-1-0.6c-3.1-1.8-7-0.7-8.8,2.4l-8.6,15.1c-1.8,3.1-0.7,7,2.4,8.8
				l1,0.6c3.1,1.8,7,0.7,8.8-2.4l5.1-9c58.4,39.2,77.8,117.5,42.5,179.7c-35.3,62.1-112.4,85.7-176,55.7l5.1-9
				c1.8-3.1,0.7-7-2.4-8.8l-1-0.6c-3.1-1.7-7-0.7-8.8,2.4l-8.6,15.1c-1.8,3.1-0.7,7,2.4,8.8l0.5,0.3l0,0h0l0.5,0.3
				c0.1,0.1,0.2,0,0.3,0.1c70.8,37.6,159.4,12.2,199.2-57.9C411.6,134.5,388,45.3,319.3,3.9z"/>
			<g>
				<circle fill="#84DBFF" cx="245.2" cy="132.8" r="124.3"/>
				<path fill="#54C0EB" d="M366.7,108.7c-7.3-3-14.4-6.4-21.7-9.1c-6.2-2.3-14-3.9-18.7,0.7c-2.5,2.4-3.4,6-4.2,9.4
					c-1.1,4.5-2.2,9.1-4.7,12.9c-2.5,3.9-6.7,7-11.3,7c-3.3,0-6.4-1.6-9.3-3.1c-9-4.6-18.1-8.9-27.3-12.9c-4.4-1.9-9-3.8-13.8-4.2
					c-11.1-0.8-22.1,8.1-23.6,19.2c-0.3,2.5-0.2,5.1,0.5,7.5c1.6,5,6,8.6,10.5,11.3c5,3,10.6,5.1,16.3,6.3c4.7,1,9.8,1.5,13.3,4.7
					c3.3,3.1,4.2,8,4,12.5c-0.1,4.5-1.1,9-0.8,13.5c0.6,9.1,7.1,17.8,16,19.8c4.9,1.1,9.9,0.2,14.8-0.5c12.5-1.8,26.6-2.2,36.4,5.7
					c3.6-4.7,6.9-9.6,9.9-14.9C368.4,167.5,372.5,137.1,366.7,108.7z"/>
				<path fill="#54C0EB" d="M183.2,25c-0.5,7.6,7.6,12.5,14.4,16.1c12.4,6.6,24.7,16.2,27.4,29.9c0.9,4.7,0.7,9.7,2.8,13.9
					c2.6,5.1,8.6,8.2,14.2,7.4c5.6-0.9,10.5-5.6,11.4-11.3c0.8-4.8-1-9.7-0.4-14.5c0.9-6.7,6.2-11.8,9-18c3.3-7.4,2.5-16.4-2-23.1
					c-2.5-3.7-6-6.7-8.4-10.5c-1.3-2-2.1-4.1-2.8-6.4C225.8,7.9,203.1,13.6,183.2,25z"/>
				<path fill="#54C0EB" d="M190.3,141.5c0.4-19.1,15-35.4,16.8-54.5c0.1-1.2,0.2-2.5-0.4-3.6c-0.6-1-1.7-1.7-2.7-2.3
					c-3.7-2.1-7.3-4.2-11-6.3c-2.4-1.4-4.9-2.8-7.7-2.7c-2.6,0.1-4.9,1.6-7,3.1c-5.4,4-10.3,8.6-14.6,13.8
					c-4.3,5.2-8.2,11.1-14.4,13.6c-4.2,1.7-8.9,1.5-13.4,1.6c-4,0.1-8.1,0.6-12.1,1.3c-6.3,28-2.5,57,9.8,82.2
					c3.1-1.5,6-3.7,8.9-5.5c8.2-5.1,18.1-7.5,27.7-6.6c3.7,0.3,7.5,1.1,11.1,0c6.1-1.9,9.3-8.7,9.8-15.1
					C191.6,154.2,190.1,147.9,190.3,141.5z"/>
			</g>
		</g>
		<path fill="#FF7058" d="M510,439.6c0-11.7-9.5-21.2-21.2-21.2H12.6C6.7,418.4,2,423.1,2,429c0,5.8,4.7,10.6,10.6,10.6h441.1v49
			H12.6c-5.8,0-10.6,4.7-10.6,10.6c0,5.8,4.7,10.6,10.6,10.6h476.2c11.7,0,21.2-9.5,21.2-21.2V439.6z"/>
		<path fill="#F2F2F2" d="M14.8,488.5v-49h473c0.6,0,1,0.4,1,1v47c0,0.6-0.4,1-1,1H14.8z"/>
		<path fill="#CDD6E0" d="M28.5,348.3c0-11.7,9.5-21.2,21.2-21.2H473c5.8,0,10.6,4.7,10.6,10.6c0,5.8-4.7,10.6-10.6,10.6H84.8v49
			H473c5.8,0,10.6,4.7,10.6,10.6c0,5.8-4.7,10.6-10.6,10.6H49.6c-11.7,0-21.2-9.5-21.2-21.2V348.3z"/>
		<path fill="#F2F2F2" d="M470.8,397.2v-49H50.6c-0.6,0-1,0.4-1,1v47c0,0.6,0.4,1,1,1H470.8z"/>
	</g>
	<polygon fill="#FFD15C" points="134.6,464.1 117.1,444.4 99.5,464.1 99.5,372.7 134.6,372.7 	"/>
</g>
</svg>
