<?xml version="1.0" encoding="utf-8"?>
<!-- Generator: Adobe Illustrator 18.0.0, SVG Export Plug-In . SVG Version: 6.00 Build 0)  -->
<!DOCTYPE svg PUBLIC "-//W3C//DTD SVG 1.1//EN" "http://www.w3.org/Graphics/SVG/1.1/DTD/svg11.dtd">
<svg version="1.1" id="Layer_1" xmlns="http://www.w3.org/2000/svg" xmlns:xlink="http://www.w3.org/1999/xlink" x="0px" y="0px"
	 viewBox="0 0 48 48" enable-background="new 0 0 48 48" xml:space="preserve">
<g>
	<g>
		<path fill="#344A5E" d="M26.2,26.3L23.5,25l-1.7-2.4l0.4-0.7l1.2-0.2c0,0,1.4,0.3,1.5,0.4C24.9,22.1,26.2,26.3,26.2,26.3z"/>
	</g>
</g>
<g>
	<g>
		<g>
			<g>
				<g>
					<path fill="#F26F5A" d="M9.8,4.4C9.5,4.3,9.2,4.7,9.1,5.1C9.1,5.5,9,6.4,9.1,6.8c0.3,0.9,0.7,1.3,0.8,2.2
						c0.1,0.8,0,1.6-0.3,2.3C9.3,11.6,9,12,8.7,12.4c-0.3,0.4-0.5,0.8-0.4,1.2c0-1-0.2-2-0.5-3.1C7.7,9.8,7.5,9,7.3,8.2
						c-0.1-0.8-0.2-1.7,0-2.6c0.2-0.9,1.1-2.1,1.9-2.3"/>
				</g>
			</g>
		</g>
	</g>
	<g>
		<g>
			<g>
				<g>
					<polygon fill="#E8EAE8" points="16.1,43.5 16.6,43.5 18.4,43 17.7,41.5 15.8,41.7 15.6,42.6 					"/>
				</g>
			</g>
		</g>
		<g>
			<g>
				<g>
					<rect x="15.6" y="31.7" fill="#425A6B" width="2.3" height="5.7"/>
				</g>
			</g>
		</g>
		<g>
			<g>
				<g>
					<rect x="15.8" y="37.5" fill="#E8EAE8" width="1.9" height="4.6"/>
				</g>
			</g>
		</g>
		<g>
			<g>
				<g>
					<g>
						<g>
							<g>
								<ellipse fill="#344A5E" cx="20.1" cy="41.9" rx="0.9" ry="0.9"/>
							</g>
						</g>
					</g>
				</g>
				<g>
					<g>
						<g>
							<g>
								<ellipse fill="#425A6B" cx="20.5" cy="42.1" rx="0.9" ry="0.9"/>
							</g>
						</g>
					</g>
				</g>
				<g>
					<g>
						<g>
							<path fill="#CED6E0" d="M19.7,41.7c0,0,0.2-0.3,0.5-0.4c0.6-0.2,1.2,0.2,1.2,0.8c0,0,0,0,0,0c0,0,0.2-0.6-0.5-1
								c-0.1,0-0.2-0.1-0.2-0.1l-0.8-0.5l-0.7,0.8L19.7,41.7z"/>
						</g>
					</g>
				</g>
			</g>
			<g>
				<g>
					<g>
						<path fill="#E8EAE8" d="M18.1,42.2l2.3-1.5l-0.1-1c0,0-0.3-0.4-0.6,0l-2.3,1.5v1.5L18.1,42.2z"/>
					</g>
				</g>
			</g>
			<g>
				<g>
					<g>
						<g>
							<ellipse fill="#425A6B" cx="7.6" cy="42.9" rx="0.7" ry="1"/>
						</g>
					</g>
				</g>
				<g>
					<g>
						<g>
							<path fill="#CED6E0" d="M7.1,42.2c0,0,0.3-0.3,0.5-0.2c0.3,0.1,0.8,0.6,0.6,1.8l1-0.3c0,0,0.1-0.9-0.6-1.7c0,0-0.1-0.5,0-0.6
								L8,41.2C8,41.2,7.4,41.6,7.1,42.2z"/>
						</g>
					</g>
				</g>
			</g>
			<g>
				<g>
					<g>
						<path fill="#E8EAE8" d="M17.3,41.8c0,0-0.1,0.1-0.1,0.2c0,0.1,0.1,1.2,0.1,1.2l10.9,0.3L28,42.2L17.3,41.8z"/>
					</g>
				</g>
			</g>
			<g>
				<g>
					<g>
						<g>
							<g>
								<path fill="#344A5E" d="M19.8,47c0-0.5-0.2-0.9-0.4-0.9c-0.1,0-0.2,0-0.2,0h-0.1l0,0.6h0v1.2h-0.1c0,0,0,0,0.1,0v0h0.2l0,0
									c0,0,0.1,0,0.1,0C19.7,48,19.8,47.6,19.8,47z"/>
							</g>
						</g>
					</g>
					<g>
						<g>
							<g>
								<path fill="#425A6B" d="M19.5,47c0,0.5-0.1,0.9-0.3,0.9c-0.2,0-0.3-0.4-0.4-0.9c0-0.5,0.1-0.9,0.3-0.9
									C19.3,46.1,19.4,46.5,19.5,47z"/>
							</g>
						</g>
					</g>
				</g>
				<g>
					<g>
						<g>
							<g>
								<path fill="#344A5E" d="M20.8,47c0-0.5-0.2-0.9-0.4-0.9c-0.1,0-0.2,0-0.2,0h-0.1l0,0.6h0v1.2h-0.1c0,0,0,0,0.1,0v0h0.2l0,0
									c0,0,0.1,0,0.1,0C20.7,48,20.8,47.6,20.8,47z"/>
							</g>
						</g>
					</g>
					<g>
						<g>
							<g>
								<path fill="#425A6B" d="M20.4,47c0,0.5-0.1,0.9-0.3,0.9c-0.2,0-0.3-0.4-0.4-0.9c0-0.5,0.1-0.9,0.3-0.9
									C20.3,46.1,20.4,46.5,20.4,47z"/>
							</g>
						</g>
					</g>
				</g>
				<g>
					<g>
						<g>
							<path fill="#CED6E0" d="M19,46.2c0,0,0.1-0.2,0.2,0s0.2,0.4,0.2,0.4l1.2-0.1c0,0,0-0.5-0.2-0.7C20.4,45.9,19,45.8,19,46.2z"
								/>
						</g>
					</g>
				</g>
			</g>
			<g>
				<g>
					<g>
						<path fill="#425A6B" d="M19.1,45.6l0.3,0.5l0.9,0l0-1.2c0,0-0.1-0.4-0.6-0.4c-0.5,0-0.5,0-0.5,0L19.1,45.6z"/>
					</g>
				</g>
			</g>
			<g>
				<g>
					<g>
						<path fill="#E8EAE8" d="M16.3,43.2l3.1,3c0,0-0.1-1.1,0.2-1.4c0.2-0.2,0.6-0.2,0.7,0.1c0.1-0.3-2.2-1.9-3.4-3
							c0,0-0.4-0.1-0.4,0.2C16.3,42.5,16.3,43.2,16.3,43.2z"/>
					</g>
				</g>
			</g>
			<g>
				<g>
					<g>
						<g>
							<g>
								<ellipse fill="#344A5E" cx="7.3" cy="45.8" rx="0.9" ry="0.9"/>
							</g>
						</g>
					</g>
				</g>
				<g>
					<g>
						<g>
							<g>
								<ellipse fill="#425A6B" cx="7.7" cy="46.1" rx="0.9" ry="0.9"/>
							</g>
						</g>
					</g>
				</g>
				<g>
					<g>
						<g>
							<path fill="#CED6E0" d="M6.9,45.7c0,0,0.2-0.3,0.5-0.4C8,45,8.6,45.5,8.6,46.1c0,0,0,0,0,0c0,0,0.2-0.6-0.5-1
								C8.1,45,8,45,7.9,45l-0.8-0.5l-0.7,0.8L6.9,45.7z"/>
						</g>
					</g>
				</g>
			</g>
			<g>
				<g>
					<g>
						<path fill="#E8EAE8" d="M16.2,42.2l0,1.2l-8.8,1.3c0.1-0.4,0.2-0.7,0.1-0.9c0-0.3-0.2-0.4-0.5-0.5l0,0l0,0l8.7-1.4
							C16.1,41.9,16.2,42.2,16.2,42.2z"/>
					</g>
				</g>
			</g>
			<g>
				<g>
					<g>
						<path fill="#344A5E" d="M7.4,44.7l-0.5-0.1l0-1.2c0-0.1,0-0.1,0.1-0.2c0.1-0.1,0.3,0,0.3,0.1C7.5,43.6,7.6,44.1,7.4,44.7z"/>
					</g>
				</g>
			</g>
			<g>
				<g>
					<g>
						<path fill="#E8EAE8" d="M7.9,41.5l7.6,1.4l0.3-1.3l-7.7-1.5c0,0-0.2,0-0.2,0.4C7.9,40.8,7.9,41.5,7.9,41.5z"/>
					</g>
				</g>
			</g>
		</g>
		<g>
			<g>
				<g>
					<polygon fill="#E8EAE8" points="13.2,29 13.2,30.2 20.3,30.2 20.3,29.4 					"/>
				</g>
			</g>
		</g>
		<g>
			<g>
				<g>
					<path fill="#425A6B" d="M27.4,40c0,0,0-0.1-0.1-0.1c-0.1-0.1-0.2-0.1-0.3,0c-0.1,0.1-0.2,0.3-0.2,0.3c0,0,0.1,0.5,0.1,0.5
						s0.6,0,0.6,0C27.6,40.6,27.4,40,27.4,40z"/>
				</g>
			</g>
		</g>
		<g>
			<g>
				<g>
					<path fill="#344A5E" d="M30.8,46.3l0.9,0.1l0.2-0.2c0,0,0.1-0.8-0.5-1c-0.6-0.2-0.8-0.1-0.8-0.1S30.6,46.1,30.8,46.3z"/>
				</g>
			</g>
		</g>
		<g>
			<g>
				<g>
					<path fill="#425A6B" d="M41,38.3l0.8-0.6c0,0,0.2-0.1,0.3,0.1c0.1,0.2,0.1,0.7,0.1,0.7s-1.2,1.3-2,1.8c-0.7,0.5-1,0.5-1.2,0.4
						c-0.2-0.1-1-0.9-1.3-1c-0.3-0.1-1.5-0.9-2.4-0.9c0,0,0.2,0.5,0.4,0.9c0.2,0.4,1.1,1.9,1.1,1.9l-0.3,0.2c0,0-1.6-2.4-2-2.6
						c-0.4-0.3-0.8-0.7-0.8-0.7l0.1-0.4l4.1,0.8C37.9,38.8,40.4,39.4,41,38.3z"/>
				</g>
			</g>
		</g>
		<g>
			<g>
				<g>
					<path fill="#344A5E" d="M41.5,38.3l-0.3,0.1l0,0L41,38.3l0.7-0.6c0,0,0.1,0,0.1,0C41.9,37.9,41.5,38.3,41.5,38.3z"/>
				</g>
			</g>
		</g>
		<g>
			<g>
				<g>
					<path fill="#344A5E" d="M33.9,36c0.1,0.1,0.1,0.3,0,0.4c0,0-0.3-0.1-0.2-0.3C33.7,35.9,33.9,36,33.9,36z"/>
				</g>
			</g>
		</g>
		<g>
			<g>
				<g>
					<path fill="#48B9A5" d="M23.5,29.2l1.3-0.9l-5.6-2.4l-7.5,0.5l-0.6,2.4c0,0,4,0.1,4,0.1C15.2,28.9,22.5,30.2,23.5,29.2z"/>
				</g>
			</g>
		</g>
		<g>
			<g>
				<g>
					<g>
						<path fill="#FFD15C" d="M20.5,28.7C20.5,28.7,20.5,28.7,20.5,28.7c0.3,0,2,0.2,2.6,0.4c0.7,0.2,1.9,0.2,2.6,0
							c0.7-0.2,1.1,0.6,1,0.9c-0.1,0.4-0.5,1.9,0.2,4.7c0.7,2.9,0.6,5.2,0.6,5.2s-0.3,0.5-0.7,0.9c-0.4,0.4,0.8,2.4,0.8,2.4l1.4,2.3
							l1.8,0.5c0,0,0.9,0.2,1.1-0.3s-0.6-0.6-0.6-0.6s-0.7-0.8-0.8-1.5c-0.1-0.7-0.4-1.7-0.5-2.4c-0.1-0.7-0.1-3.2,0.1-4.4
							c0.2-1.2,0.5-5.5,0.5-6.3c0-0.9,0.1-4.4,0.1-4.4l-1.4-1.9l-4.8-0.1l-4.7,3.5"/>
					</g>
				</g>
			</g>
			<g>
				<g>
					<g>
						<path fill="#F5B54C" d="M20.5,28.7c0,0,0.2-0.1,0.6-0.3c0.4-0.2,0.9-0.4,1.5-0.8c0.1,0,0.2-0.1,0.2-0.1c0.1,0,0.2-0.1,0.2-0.1
							c0.1,0,0.2-0.1,0.2-0.1c0,0,0.1,0,0.1-0.1c0,0,0.1-0.1,0.1-0.1c0,0,0.1-0.1,0.1-0.1c0,0,0.1-0.1,0.1-0.1
							c0.1-0.1,0.2-0.1,0.3-0.2c0.2-0.1,0.4-0.2,0.5-0.4c0.2-0.1,0.4-0.2,0.6-0.4c0.2-0.1,0.4-0.2,0.6-0.4c0.2-0.1,0.4-0.2,0.6-0.3
							c0.1-0.1,0.2-0.1,0.3-0.1c0.1,0,0.2-0.1,0.3-0.1l0.1,0c0,0,0.1,0,0.1,0l0.1,0l0,0l0,0l0,0l0,0l0,0l0,0c0,0,0,0,0,0
							c0,0,0.1,0,0.1,0c0.1,0,0.1,0,0.2,0c0.3,0,0.5,0.1,0.7,0.1c0.2,0.1,0.5,0.2,0.7,0.3c0.2,0.1,0.4,0.2,0.6,0.4
							c0.1,0.1,0.2,0.2,0.2,0.3l0,0c0,0,0,0,0,0l0,0l0,0l0,0c0,0,0,0,0,0.1c0,0.1,0,0.1,0,0.2c0.1,0.2,0.1,0.4,0.1,0.6
							c0,0.2,0.1,0.4,0.1,0.6c0,0.2,0,0.4,0.1,0.5c0,0.3,0.1,0.7,0.1,1c0,0.1,0,0.3,0,0.4c0,0.1,0,0.2,0,0.3c0,0.2,0,0.4,0,0.5
							c0,0.1,0,0.2,0,0.2s0-0.1,0-0.2c0-0.1,0-0.1,0-0.2c0-0.1,0-0.2,0-0.3c0-0.1,0-0.2,0-0.3c0-0.1,0-0.3-0.1-0.4
							c0-0.1,0-0.3-0.1-0.4c0-0.1,0-0.2,0-0.2c0-0.1,0-0.2,0-0.3c0-0.2-0.1-0.3-0.1-0.5c0-0.2-0.1-0.4-0.1-0.6
							c0-0.2-0.1-0.4-0.1-0.6c0,0,0-0.1,0-0.1c0,0,0,0,0-0.1l0,0l0,0l0,0c0,0,0,0,0,0l0,0c0-0.1-0.1-0.1-0.2-0.2
							c-0.1-0.1-0.3-0.2-0.5-0.3c-0.1,0-0.2-0.1-0.3-0.1c-0.1,0-0.2-0.1-0.3-0.1c-0.2-0.1-0.4-0.1-0.6-0.1c-0.1,0-0.1,0-0.2,0
							c0,0-0.1,0-0.1,0c0,0,0,0,0,0l0,0l0,0l0,0l-0.1,0c0,0-0.1,0-0.1,0l-0.1,0c-0.1,0-0.2,0.1-0.3,0.1c-0.1,0-0.2,0.1-0.3,0.1
							c-0.2,0.1-0.4,0.2-0.6,0.3c-0.4,0.2-0.8,0.4-1.1,0.7c-0.2,0.1-0.4,0.2-0.5,0.3c-0.1,0.1-0.2,0.1-0.3,0.2c0,0-0.1,0.1-0.1,0.1
							c0,0-0.1,0.1-0.1,0.1c-0.4,0.2-0.7,0.4-1,0.5c-0.3,0.1-0.6,0.3-0.9,0.4c-0.3,0.1-0.5,0.2-0.7,0.3c-0.2,0.1-0.3,0.1-0.4,0.2
							C20.5,28.7,20.5,28.7,20.5,28.7z"/>
					</g>
				</g>
			</g>
			<g>
				<g>
					<g>
						<path fill="#FFD15C" d="M20.5,28.7c0,0,2.5-1,3.4-1.7c0.9-0.6,2.4-1.7,3.5-1.9c1-0.2,2.3,0.5,2.5,1c0.2,0.5,0.6,2.5,0.6,4.3
							c0,0,2.7,3.8,3,4.2c0.3,0.4,0.4,0.8,0.3,1.7l0.3,0.9l3.3,1.6h2l2-0.7c0,0,1-0.7,0.1-1L41,37.5c0,0-0.5,0.1-0.9,0
							c-0.4-0.1-0.9-0.4-1.4-1c-0.5-0.6-0.8-0.4-2.1-1.8c-1.2-1.4-1.8-2.3-2.4-3.9c-0.6-1.6-2.6-5.8-2.9-6.6
							c-0.3-0.8-0.8-2.2-1.8-2.5c-1-0.3-7.2,0.5-7.2,0.5c-1.4,1.3-2.2,2.7-2.8,4.2L20.5,28.7z"/>
					</g>
				</g>
			</g>
		</g>
		<g>
			<g>
				<g>
					<path fill="#425A6B" d="M20,29.1c0,0,0.8-0.4,0.9-1.6c0.2-1.2-0.1-4.3,1.5-5.4c0,0-1.3,0.2-1.9,0.4c0,0-1-1.2-1.6-1.7
						c-0.6-0.4-0.6-0.4-0.6-0.4s-3.6,0.9-5.2,1.9c-1.6,1-2.4,4.8-2.4,4.8s0.5,1.7,0.9,1.7C11.9,28.9,19.1,28.9,20,29.1z"/>
				</g>
			</g>
		</g>
		<g>
			<g>
				<g>
					<path fill="#67C5B8" d="M24.5,29.2c-0.6,0.4-1.4,0.8-2.3,0.9c-2.2,0.2-3.9-0.5-5.2-0.7c-1.3-0.2-3.1-0.4-4.1,0.1
						c-1.1,0.5-2.5,0.2-3.3-0.5c-0.8-0.8-1.5-2-1.3-3.6c0.1-1.7,0.3-3.3,0.3-3.3l1.3,0.5c0,0-0.1,3,0,3.7c0.1,0.8,1.2,1.7,1.8,2
						c0.6,0.2,1.3-0.5,1.9-0.5c0.6-0.1,4.8,0.5,5.5,0.9c0.8,0.4,3,0.8,4,0.3C23.4,29.2,24,29.3,24.5,29.2z"/>
				</g>
			</g>
		</g>
		<g>
			<g>
				<g>
					<path fill="#344A5E" d="M22.4,19.2L22.4,19.2c0,0.2-0.1,0.3-0.3,0.5c-0.7,0.4-1.7-0.9-1.7-0.9v-1l0.8-0.8c0,0,0.9-0.1,1.1,0.3
						C22.6,17.8,22.4,19.2,22.4,19.2z"/>
				</g>
			</g>
		</g>
		<g>
			<g>
				<g>
					<path fill="#425A6B" d="M20.8,17.1c0,0,0,1.2,0.6,2.2c0.2,0.4,0.9,0.3,1-0.1c0,0,0,0,0,0c0,0,0.1,0.6-0.8,0.6
						c0,0-0.8,0.1-1.1,0.2c-0.4,0.2-2,0.6-2,0.6L16,17.3l0.3-4.6c0,0,0.6-0.1,0.6,0.5c0.1,0.5,1,2.6,1.1,3c0,0.4,0.3,1.2,0.6,1.3
						c0.3,0.1,1.2-0.3,1.5-0.3C20.4,17.2,20.8,17.1,20.8,17.1z"/>
				</g>
			</g>
		</g>
		<g>
			<g>
				<g>
					<path fill="#F5B54C" d="M17.3,17.9c0,0,0.6-0.8,0.9-1c0.3-0.2,0.7-0.4,1-0.5c0.3-0.1,0.7-0.4,0.7-0.4s0-0.3-0.7-0.3
						c-0.6,0.1-0.9,0.2-0.9,0.2s0-0.3,0-0.4c0-0.2-0.2,0-0.2,0S17.2,17.7,17.3,17.9z"/>
				</g>
			</g>
		</g>
		<g>
			<g>
				<circle fill="#344A5E" cx="10.1" cy="15.6" r="1.4"/>
			</g>
		</g>
		<g>
			<g>
				<g>
					<path fill="#F26F5A" d="M16.6,3.9l-1.3,1.4l-0.6,1.9l-0.5,1.2c0,0,2.4-1.9,2.8-3.3c0.4-1.4-0.7-1.3-0.7-1.3"/>
				</g>
			</g>
		</g>
		<g>
			<g>
				<path fill="#FFD15C" d="M16.1,4.7c-0.3,0.5-0.5,1.1-0.3,1.6c0,0.1,0.1,0.2,0,0.3c0,0.1-0.1,0.2-0.2,0.2c-0.1,0-0.2,0-0.3,0
					c0,0.1,0,0.2-0.1,0.3c0,0-0.1,0.1-0.2,0c0,0.2,0,0.3-0.1,0.5c-0.1,0.1-0.2,0.1-0.3,0.2c-0.1,0.2-0.1,0.4-0.2,0.7
					c-0.2,0.4-0.8,0.3-1.2,0.2C13.2,9,13,9.2,13,9.5c0,0.1,0.1,0.2,0.1,0.3c0.1,0.1,0.2,0.3,0.3,0.4c0.2,0.2,0.3,0.4,0.5,0.6
					c0.4,0.5,0.7,1.1,0.9,1.7c0,0.1,0,0.2,0,0.2c0,0.1-0.1,0.3-0.3,0.4c-0.4,0.3-1,0.4-1.5,0.4c-0.3,0-0.6,0-0.8-0.1
					c-0.2-0.1-0.3-0.2-0.5-0.4c-0.7-0.8-1.3-1.8-1.6-2.8C10.1,9.8,10,9.5,9.9,9.2c0-0.2-0.1-0.4-0.1-0.5C9.7,8.3,9.6,7.9,9.7,7.5
					c0.1-0.7,0.3-1.3,0.2-2c0,0.1,0,0.1,0,0.2c0-0.8-0.3-1.7,0-2.5c0.2-0.7,0.8-1.2,1.5-1.4c0.3-0.1,0.5-0.1,0.8-0.1
					c1.1-0.1,2.2-0.2,3.2,0C15.7,1.8,16,2,16.2,2.3c0.1,0.1,0.1,0.3,0.1,0.5c0.1,0.6,0.1,1.3-0.1,1.9L16.1,4.7z"/>
			</g>
		</g>
		<g>
			<g>
				<path fill="#FFD15C" d="M15.8,6.5c0,0,0,0.1,0,0.1c0,0.1-0.1,0.2-0.2,0.2c-0.1,0-0.2,0-0.3,0C15.5,6.8,15.7,6.7,15.8,6.5z"/>
			</g>
		</g>
		<g>
			<g>
				<path fill="#FFD15C" d="M16.2,4.6L16.2,4.6l-0.1,0.1c-0.2,0.3-0.4,0.7-0.4,1c-0.1,0.1-0.2,0.2-0.2,0.4c-0.2,0.5-0.6,0.8-0.9,1.2
					c0.2-0.1,0.4-0.2,0.7-0.4c0,0.1,0,0.2-0.1,0.3c0,0-0.1,0.1-0.2,0c0,0.2,0,0.3-0.1,0.5c-0.1,0.1-0.2,0.1-0.3,0.2
					c-0.1,0.2-0.1,0.4-0.2,0.7c-0.2,0.4-0.8,0.3-1.2,0.2C13.2,9,13,9.2,13,9.5c0,0.1,0.1,0.2,0.1,0.3c0.1,0.1,0.2,0.3,0.3,0.4
					c0.2,0.2,0.3,0.4,0.5,0.6c0.4,0.5,0.7,1.1,0.9,1.7c0,0.1,0,0.2,0,0.2c0,0.1-0.1,0.3-0.3,0.4c-0.4,0.3-1,0.4-1.5,0.4
					c-0.3,0-0.6,0-0.8-0.1c-0.2-0.1-0.3-0.2-0.5-0.4c-0.7-0.8-1.3-1.8-1.6-2.8C10.1,9.8,10,9.5,9.9,9.2c0-0.2-0.1-0.4-0.1-0.5
					C9.7,8.3,9.6,7.9,9.7,7.5C9.8,7,9.9,6.5,9.9,6c0-0.2,0-0.3,0-0.5c0,0,0,0.1,0,0.1c0-0.8-0.3-1.7,0-2.4c0.2-0.7,0.8-1.2,1.5-1.4
					c0.3-0.1,0.5-0.1,0.8-0.1c1.1-0.1,2.2-0.2,3.2,0C15.7,1.8,16,2,16.2,2.3c0.1,0.1,0.1,0.3,0.1,0.5C16.4,3.4,16.4,4,16.2,4.6z"/>
			</g>
		</g>
		<g>
			<g>
				<path fill="#FFD15C" d="M13.9,8.8C13.9,8.8,13.9,8.8,13.9,8.8L13.9,8.8C13.9,8.8,13.9,8.8,13.9,8.8z"/>
			</g>
		</g>
		<g>
			<g>
				<path fill="#FFD15C" d="M14.8,12.7c0,0.1-0.1,0.3-0.3,0.4c-0.4,0.3-1,0.4-1.5,0.4c-0.3,0-0.6,0-0.8-0.1
					c-0.2-0.1-0.3-0.2-0.5-0.4c-0.2-0.3-0.4-0.5-0.6-0.8L9.9,8.3L10.4,8c0,0,2.2,2.7,2.4,2.9c0.3,0.2,0.1,0.6,0.1,0.6s0.1,0,0.4,0.2
					c0.2,0.3,1.2,1.2,1.2,1.3c0,0-1.1-2.5-1.5-3.1c-0.3-0.7,0.1-1.1,0.1-1.1C13.2,9,13,9.2,13,9.5c0,0.1,0.1,0.2,0.1,0.3
					c0.1,0.1,0.2,0.3,0.3,0.4c0.2,0.2,0.3,0.4,0.5,0.6c0.4,0.5,0.7,1.1,0.9,1.7C14.8,12.6,14.8,12.7,14.8,12.7z"/>
			</g>
		</g>
		<g>
			<g>
				<g>
					<path fill="#F5B54C" d="M13.5,8.9c-0.1,0-0.2-0.1-0.4-0.1C13.2,9,13,9.1,13,9.3c-0.9-0.6-1.5-1.6-1.7-2.7
						C11.9,7.5,12.7,8.3,13.5,8.9z"/>
				</g>
			</g>
		</g>
		<g>
			<g>
				<g>
					<path fill="#F3F3F3" d="M17.6,20.5c0,0,0,0-0.7,0.4c-0.7,0.4-2.7,1.1-2.7,1.1l-2.8-9.2l-0.2-0.7L9.9,8.3L10.4,8
						c0,0,2.7,3.5,2.9,3.7c0.2,0.3,1.2,1.2,1.2,1.3c0,0-1.1-2.5-1.5-3.1c-0.3-0.7,0.1-1.1,0.1-1.1c0,0,0,0,0,0c0,0,0,0,0,0
						c0,0,0,0,0,0c0,0,0,0,0,0c0,0,0,0,0,0c0.2,0.1,0.5,0.1,0.7,0c0,0,0,0,0,0l0.3,0.2c0.1,0.2,0.2,0.5,0.3,0.7
						c0,0.1,0.1,0.2,0.1,0.3c0.1,0.2,0.2,0.4,0.3,0.6c0.2,0.5,0.4,1,0.6,1.5c0.6,2.1,0.2,4.5,1.2,6.4c0.1,0.3,0.3,0.5,0.5,0.7
						L17.6,20.5z"/>
				</g>
			</g>
		</g>
		<g>
			<g>
				<g>
					<path fill="#425A6B" d="M15.2,6.9C15.3,6.9,15.3,6.9,15.2,6.9C15.3,6.9,15.3,6.9,15.2,6.9C15.2,6.9,15.2,6.9,15.2,6.9z"/>
				</g>
			</g>
			<g>
				<g>
					<path fill="#F26F5A" d="M16.9,5.7C17,5.6,17,5.4,17.1,5.2c-0.2,0.4-0.6,0.8-0.9,1.1c-0.1,0.1-0.2,0.2-0.3,0.2
						c0-0.1,0-0.1,0-0.2c0-0.2-0.1-0.4,0-0.6c0.1-0.1,0.1-0.2,0.1-0.2C16,5.2,16.1,5,16.2,4.7c0.1-0.3,0.2-0.7,0.2-1
						c0-0.4-0.1-0.9-0.5-1.1l-0.1,0c-0.3,0-0.5,0.2-0.6,0.4c-0.2,0.2-0.3,0.4-0.4,0.6c-0.4,0.5-1.1,0.6-1.4,1.1
						C13.1,4.8,13,5,12.8,5.2c-0.3,0.3-0.7,0.5-1.1,0.4C11.9,5.5,12,5.4,12,5.4c-0.3,0-0.5,0.1-0.8,0.1c0.4-0.3,0.7-0.7,1-1
						c-0.2,0.2-0.5,0.2-0.7,0.2C11.2,4.5,11,4.3,11,4c0-0.1,0-0.2-0.1-0.3c0,0-0.1-0.1-0.2,0c-0.2,0-0.4,0.2-0.5,0.5
						C9.9,4.8,9.9,5.6,9.9,6.3c0-0.1,0-0.2,0-0.2C9.8,5.8,9.8,5.5,9.6,5.2C9.5,4.8,9.2,4.4,9.1,4C8.8,2.9,9.2,1.6,10,0.9
						c0.2-0.2,0.5-0.4,0.8-0.5c0.5-0.2,1-0.4,1.5-0.3c0.8,0,1.6,0,2.3,0.4c0.2,0.1,0.4,0.3,0.5,0.5c0.3,0.3,0.7,0.7,1,1
						c0.2,0.2,0.4,0.4,0.6,0.6C16.8,2.7,16.9,2.8,17,3c0.1,0.2,0.1,0.4,0.2,0.6c0,0.3,0.1,0.5,0.1,0.8C17.3,4.9,17.2,5.4,16.9,5.7z"
						/>
				</g>
			</g>
		</g>
		<g>
			<g>
				
					<ellipse transform="matrix(0.998 -6.330622e-002 6.330622e-002 0.998 -0.2671 0.6768)" fill="#FFD15C" cx="10.5" cy="4.6" rx="0.6" ry="1"/>
			</g>
		</g>
		<g>
			<g>
				<g>
					<path fill="#344A5E" d="M6.2,11.7c0,0,0.1-0.1,0.1-0.1C6.2,11.7,6.2,11.7,6.2,11.7z"/>
				</g>
			</g>
			<g>
				<g>
					<g>
						<path fill="#344A5E" d="M14.7,19.9c0,0.3,0,0.6,0,1c0,0.1,0,0.2,0,0.3c-0.2,1.5-0.3,2.9-0.8,4.3c-0.5,1.4-1.5,2.7-2.8,3.3
							c0.1-0.3-0.2-0.8-0.5-1c-0.3-0.2-0.6-0.4-0.8-0.7c-0.4-0.6-0.1-1.4-0.1-2c0.2-1.4-0.6-2.8-0.7-4.3c-0.1-1,0.1-2,0.4-3
							c0.3-1,0.5-1.9,0.6-2.9c0.1-1-0.1-2.1-0.8-2.9c-0.4-0.5-0.9-0.8-1.4-0.9c-0.5-0.1-1.2,0.1-1.5,0.5c0-0.3,0.3-0.6,0.6-0.9
							c1.2-1,2-2.4,2.7-3.7c0,0,0,0,0,0c0,0,0,0,0,0c0.2,0.5,0.5,1,0.8,1.4c0.4,0.6,0.8,1.3,1.1,1.9c0.4,0.7,0.8,1.3,1.2,2
							c0.5,1.2,1.1,2.3,1.4,3.5C14.4,17.2,14.6,18.6,14.7,19.9z"/>
					</g>
				</g>
			</g>
			<g>
				<g>
					<path fill="#344A5E" d="M9.5,7.1c0,0,0-0.1,0.1-0.1C9.5,7,9.5,7.1,9.5,7.1z"/>
				</g>
			</g>
			<g>
				<g>
					<path fill="#344A5E" d="M9.7,6.7c0,0-0.1,0.2-0.2,0.3C9.6,6.9,9.6,6.8,9.7,6.7L9.7,6.7z"/>
				</g>
			</g>
		</g>
		<g>
			<g>
				<g>
					<path fill="#425A6B" d="M9.7,6.8c0,0-0.7,0.8-0.7,1.9c0,1.1,0.2,1.6,0.2,1.6l1.3,0.2l-1.1,0.2c0,0,4.1,6.4,4.4,7.2
						c0.3,0.7,0.8,1.7,0.8,1.7s-0.2-4.3-3.1-9.3L9.7,6.8z"/>
				</g>
			</g>
		</g>
		<g>
			<g>
				<path fill="#425A6B" d="M16.5,20c-0.6,0.3-1.3,0.6-1.9,0.9c-1.6,0.8-3.3,1.5-4.9,2.3c-0.1,0-0.2,0.1-0.3,0.1h0
					c-0.4,0.2-0.9,0.3-1.3,0.2c-0.5-0.2-0.8-0.7-1-1.3C5.9,19,5.5,15.3,6.1,11.9c0-0.1,0-0.1,0.1-0.2c0,0,0.1-0.1,0.1-0.1
					c0,0,0,0,0,0c0.3-0.2,0.7-0.4,1-0.4c0,0,0.1,0,0.1,0c0,0,0.1,0,0.1,0c0.1,0,0.1,0,0.2,0c0.6,0.1,1.1,0.4,1.4,0.9
					c0.1,0.2,0.3,0.4,0.3,0.6c0.1,0.2,0.2,0.4,0.2,0.6c0.1,0.4,0.2,0.9,0.2,1.3v0.2l0,0l-0.1,0.2c0,0.2,0,0.3,0,0.5
					c0.1,1.4,0.2,2.8,0.3,4.1c1.4-0.7,2.8-1.4,4.3-2.1c0.3-0.2,0.6-0.3,0.9-0.5C15.7,18,16.1,19,16.5,20z"/>
			</g>
		</g>
		<g>
			<g>
				<g>
					<path fill="#344A5E" d="M20,22.2c-0.2,0.1-0.3,0.3-0.5,0.3c-0.2,0.1-0.4,0.1-0.6,0.1c-0.2-0.1-0.4-0.3-0.5-0.5
						c-0.5-0.7-1-1.5-1.4-2.3c-0.6-1.2-0.7-2.6-0.8-3.9c-0.1-2.5-0.8-4.9-2.2-7c0.2,0,0.3-0.1,0.4-0.3c0.1,0,0.3,0,0.4,0.1
						c0.3,0.1,0.5,0.4,0.7,0.7c0.5,0.9,0.7,1.9,0.9,2.9c0.2,0.9,0.3,1.7,0.6,2.6c0.4,1.5,0.9,3,1.3,4.4c0.2,0.5,0.3,1.1,0.6,1.6
						C19.2,21.4,19.5,21.9,20,22.2z"/>
				</g>
			</g>
		</g>
		<g>
			<g>
				<g>
					<path fill="#FFD15C" d="M15.3,17.3c0,0,0.5-0.4,0.7-0.6c0.2-0.2,0.7-1,0.8-1.3c0.1-0.3,0.7-0.9,0.7-0.9l0.7-1
						c0,0,0.8-0.1,1.1-0.1c0.3,0,0.6,0.1,0.7,0.1l0.5,0.1c0,0,0,0.4-0.5,0.4c0,0-0.2,0.1-0.7,0.1c0,0,0,0.3-0.3,0.4
						c0,0-0.3,0.4-0.4,0.5c0,0-0.3,0.7-0.4,0.9c0,0.3-0.8,1.8-1.1,2c-0.3,0.2-0.4,0.1-0.7,0.3c-0.2,0.1-0.8,0.7-0.8,0.7L15.3,17.3z"
						/>
				</g>
			</g>
		</g>
		<g>
			<g>
				<g>
					<path fill="#F3F3F3" d="M19,14.1c0,0,0.2,0,0.2-0.3L19,14.1z"/>
				</g>
			</g>
		</g>
		<g>
			<g>
				<g>
					<path fill="#F3F3F3" d="M19.5,13.8c0,0,0,0.3,0.5,0L19.5,13.8z"/>
				</g>
			</g>
		</g>
		<g>
			<g>
				<g>
					<g>
						<path fill="#F5B54C" d="M17.6,15.7c0,0,0-0.1,0.1-0.1l0.1-0.1c0.1-0.1,0.1-0.1,0.2-0.2l0.1-0.1c0,0,0.1-0.1,0.1-0.1
							c0.1-0.1,0.1-0.1,0.2-0.2c0.1-0.1,0.1-0.1,0.2-0.2l0.1-0.1l0.1-0.1l0.2-0.2l0.2-0.2l0,0c0.1-0.1,0.1-0.2,0.2-0.3l0,0l0,0
							c0,0,0,0,0,0c0,0,0,0,0,0c0,0,0,0,0,0c0,0,0,0,0,0c0,0,0,0,0,0c0,0,0,0,0,0l0,0c0,0,0,0,0,0c0,0,0,0,0,0c0,0,0,0,0,0
							c0,0,0,0.1,0,0.1c0,0,0,0,0,0.1l0,0.1l0-0.1c0,0,0,0,0-0.1c0,0,0,0,0-0.1c0,0,0,0,0,0c0,0,0,0,0,0c0,0,0,0,0,0l0,0
							c0,0,0,0,0,0c0,0,0,0,0,0c0,0,0,0,0,0c0,0,0,0,0,0c0,0,0,0,0,0c0,0,0,0,0,0l0,0C19.1,13.9,19,14,19,14.1l0,0l0,0l-0.2,0.2
							l-0.2,0.2c-0.1,0.1-0.1,0.1-0.2,0.2l-0.2,0.2c-0.1,0.1-0.1,0.1-0.2,0.2c0,0-0.1,0.1-0.1,0.1l-0.1,0.1
							c-0.1,0.1-0.1,0.1-0.2,0.2l-0.1,0.1C17.6,15.6,17.6,15.6,17.6,15.7z"/>
					</g>
				</g>
			</g>
			<g>
				<g>
					<g>
						<path fill="#F5B54C" d="M17.5,14.9C17.5,14.9,17.5,14.9,17.5,14.9c0-0.1,0-0.1,0-0.1l0.1-0.1c0-0.1,0.1-0.2,0.1-0.2
							c0-0.1,0.1-0.2,0.1-0.2c0-0.1,0.1-0.2,0.1-0.2l0,0l0,0c0.1,0,0.2-0.1,0.4-0.1l0.2-0.1l0.1,0c0,0,0.1,0,0.1,0
							c0.1,0,0.1,0,0.2,0c0.1,0,0.1,0,0.2,0c0.1,0,0.1,0,0.2,0c0,0,0.1,0,0.1,0c0,0,0,0,0.1,0c0,0,0,0,0,0c0,0,0,0,0,0c0,0,0,0,0,0
							l0,0c0.2,0,0.3,0,0.5,0.1l0,0l0,0c0,0,0,0,0,0c0,0,0,0,0,0c0,0,0,0.1,0,0.1c0,0,0,0.1,0,0.1c0,0,0,0.1,0,0.1c0,0,0-0.1,0-0.1
							c0,0,0-0.1,0-0.1c0,0,0-0.1,0-0.1c0,0,0,0,0,0c0,0,0,0,0,0l0,0c-0.2,0-0.3,0-0.5,0l0,0c0,0,0,0,0,0c0,0,0,0,0,0c0,0,0,0,0,0
							c0,0-0.1,0-0.1,0c-0.1,0-0.1,0-0.2,0c-0.1,0-0.3,0-0.4,0c0,0-0.1,0-0.1,0l-0.1,0l-0.2,0.1c-0.1,0-0.3,0.1-0.4,0.1l0,0
							l-0.1,0.2l-0.1,0.2c0,0.1-0.1,0.2-0.1,0.2l-0.1,0.1L17.5,14.9C17.5,14.9,17.5,14.9,17.5,14.9z"/>
					</g>
				</g>
			</g>
		</g>
		<g>
			<g>
				<g>
					<path fill="#F3F3F3" d="M20.5,13.7C20,13.9,20,13.6,20,13.6L20.5,13.7z"/>
				</g>
			</g>
		</g>
		<g>
			<g>
				<g>
					<g>
						<path fill="#CED6E0" d="M20.8,16.4l-2.1-0.2c-0.1,0-0.2-0.2-0.1-0.2l5.7-5.7c0.1-0.1,0.1-0.1,0.2-0.1l2.2-0.1
							c0,0,0.1,0.1-0.2,0.5c-0.3,0.3-4.8,5-5.5,5.7C21,16.3,20.9,16.4,20.8,16.4z"/>
					</g>
				</g>
			</g>
			<g>
				<g>
					<g>
						<polygon fill="#E8EAE8" points="19,16.1 24.5,10.6 26.7,10.4 21.2,16.2 						"/>
					</g>
				</g>
			</g>
		</g>
		<g>
			<g>
				<g>
					<path fill="#FFD15C" d="M19.2,16.2c0,0-0.2,0-0.3,0.1c-0.1,0.2,0,0.2,0,0.2h0.3c0,0,0.2,0,0.4,0s0.8,0.1,0.8,0.1
						s0.2,0.4,0.3,0.5c0,0,0,1,0.1,1.4c0.2,0.3,0.3,0.2,0.5,0.1c0.1-0.1,0.6-0.5,0.9-0.7c0.2-0.2,0.4-0.4,0.5-0.7c0-0.1,0-0.1,0-0.2
						c0-0.2,0-0.8,0.2-1.3c0.2-0.5,0.5-1.4,0.6-1.7c0.1-0.3,0.2-0.7,0.2-0.7l-0.8,0.8c0,0,0-0.3,0-0.5c0.1-0.3,0.2-0.5,0.1-0.7
						c-0.1-0.2-0.5,0.1-0.5,0.3c-0.1,0.2-0.2,0.4-0.3,0.7c0,0-0.2,0.2-0.1,0.5c0,0-0.1-0.2-0.2-0.4c0-0.2-0.3-0.4-0.4-0.3
						c-0.1,0-0.3,0.2-0.3,0.5c0.1,0.3,0.1,0.9,0.1,1c0,0.1,0.1,0.3-0.1,0.1c-0.2-0.1-0.3-0.2-0.4-0.3c-0.1-0.1-0.3-0.3-0.3-0.2
						c-0.1,0-0.3,0.1-0.3,0.3s0.1,0.2,0.2,0.3c0.1,0.1,0.3,0.3,0.3,0.4c0,0-0.3,0.1-0.3,0.1c-0.1,0.1-0.7,0.1-0.9,0.2
						C19.4,16.2,19.2,16.2,19.2,16.2z"/>
				</g>
			</g>
		</g>
		<g>
			<g>
				<g>
					<path fill="#F3F3F3" d="M22.9,13.2c0,0,0,0.2,0.1,0.2c0.1,0,0.2-0.2,0.2-0.3C23.2,13.1,23.1,13.2,22.9,13.2z"/>
				</g>
			</g>
		</g>
		<g>
			<g>
				<g>
					<path fill="#F3F3F3" d="M21.6,14.2c0,0,0.2,0,0.3-0.2c0,0,0.1,0.1,0,0.3C21.8,14.4,21.6,14.2,21.6,14.2z"/>
				</g>
			</g>
		</g>
		<g>
			<g>
				<g>
					<path fill="#F3F3F3" d="M20.4,15.2c0,0,0.2,0,0.3-0.2c0,0,0.2,0.1,0.1,0.3C20.7,15.4,20.4,15.2,20.4,15.2z"/>
				</g>
			</g>
		</g>
		<g>
			<g>
				<g>
					<path fill="#F3F3F3" d="M19,16.5c0,0,0.1-0.1,0.2-0.1c0.1,0,0.1,0,0.1,0.1H19z"/>
				</g>
			</g>
		</g>
		<g>
			<g>
				<g>
					<path fill="#425A6B" d="M22.4,19.2C22.4,19.2,22.4,19.2,22.4,19.2c-0.2,0.5-0.8,0.5-1,0.1c-0.6-1-0.6-2.2-0.6-2.2
						s-0.4,0.1-0.7,0.1c-0.1,0-0.3,0.1-0.6,0.2v2.9c0.4-0.1,0.8-0.3,1-0.3c0.4-0.2,1.1-0.2,1.1-0.2C22.5,19.8,22.4,19.2,22.4,19.2z"
						/>
				</g>
			</g>
		</g>
		<g>
			<g>
				<g>
					<path fill="#F26F5A" d="M41.5,38.3c-0.3,0.3-2.7,2-3.4,1.5c-0.8-0.5-2.2-1.1-2.9-1.2c-0.8-0.1-1.4-0.1-1.4-0.1
						c-0.2-0.2-0.5-1.3-0.3-1.9c0.1-0.6,0.4-0.6,0.4-0.6c0,0-0.1,0-0.1,0.1c-0.1,0.2,0.2,0.3,0.2,0.3s0.5,0.3,0.9,0.5
						s2.3,1.5,3.4,1.6c1.1,0.1,1.6-0.7,1.8-0.8c0.2-0.2,0.1-0.3,0.1-0.3c0.4,0.1,1.1,0,1.1,0C40.9,37.7,41.5,38.3,41.5,38.3z"/>
				</g>
			</g>
		</g>
		<g>
			<g>
				<g>
					<path fill="#F26F5A" d="M31.9,46.2c0,0,0-0.8-0.4-0.9c-0.4-0.1-0.7,0.5-0.6,1c0.1,0.5,0.1,0.5,0.1,0.5l-1.7-0.3
						c0,0-0.6,0-0.7-0.5c-0.1-0.4-0.1-0.7-0.1-0.7s-0.7-1.7-1.1-2c-0.4-0.3-0.5-0.5-0.5-0.5l-0.6-0.8c0,0-0.3-0.8-0.3-0.8
						s0.3-0.6,0.6-1.1c0.1-0.2,0.2-0.3,0.3-0.4c0.1-0.1,0.3,0,0.3,0c0,0,0,0.1,0,0.1c-0.1-0.1-0.2-0.1-0.3,0C27,40,27,40.2,27,40.5
						c0.1,0.4,0.2,0.9,0.3,1.1c0.1,0.3,0.8,1.7,0.9,1.9c0,0.2,0.6,1.2,1.3,1.4c0.7,0.2,1.9,0.1,1.2-0.7c0,0,0.7,0.6,0.9,0.8
						C31.7,45.2,32.1,45.7,31.9,46.2z"/>
				</g>
			</g>
		</g>
		<g>
			<g>
				<g>
					<path fill="#425A6B" d="M27.1,46.1h0.3v-2.6c0,0,0.1,0,0.2,0.2c0.1,0.2,0.8,1.4,0.8,1.8c0,0.5,0.1,1.2,0.4,1.4
						c0.2,0.2,1.4,0.2,2.2,0.1c0.5-0.1,0.8-0.4,0.9-0.9l0,0c0,0-0.8,0.2-1.4,0.1c-0.6,0-1.4,0-1.7-0.3c0,0-0.2-0.1-0.2-0.6
						c0-0.5-0.8-1.9-1.1-2.2c-0.3-0.3-1.3-1.6-1.3-1.9c0,0-0.1,0.5,0.3,1.2C26.7,43.1,27.1,45.4,27.1,46.1z"/>
				</g>
			</g>
		</g>
		<g>
			<g>
				<g>
					<rect x="15" y="30.2" fill="#CED6E0" width="3.5" height="1.5"/>
				</g>
			</g>
		</g>
	</g>
	<g>
		<g>
			<g>
				<path fill="#425A6B" d="M9.5,4.8C9.4,4.9,9.3,5,9.2,5C8.9,4.6,8.8,4.2,8.3,4C8.4,3.7,8.5,3.4,9,3.3C8.9,3.7,9.3,4.4,9.5,4.8z"/>
			</g>
		</g>
	</g>
</g>
</svg>
