<?xml version="1.0" encoding="utf-8"?>
<!-- Generator: Adobe Illustrator 18.0.0, SVG Export Plug-In . SVG Version: 6.00 Build 0)  -->
<!DOCTYPE svg PUBLIC "-//W3C//DTD SVG 1.1//EN" "http://www.w3.org/Graphics/SVG/1.1/DTD/svg11.dtd">
<svg version="1.1" id="Layer_1" xmlns="http://www.w3.org/2000/svg" xmlns:xlink="http://www.w3.org/1999/xlink" x="0px" y="0px"
	 viewBox="0 0 48 48" enable-background="new 0 0 48 48" xml:space="preserve">
<g>
	<g>
		<g>
			<g>
				<path fill="#FFD15C" d="M48,27.7v12.9l0,0c0,0-1.2-1.7-1.6-2.5c-0.4-0.7-1.8-2.1-1.8-2.1s-0.7-0.7-3.2-0.1
					c-2.5,0.6-5.3-0.2-5.3-0.2l-1.1-0.1c-2.2-0.2-4.8,1.7-4.8,1.7s-1.6,0.8-1.9,1.2c-0.3,0.4-1.6,1.6-1.6,1.6s-1.7,1.4-1.9-1
					c-0.3-2.5,3.3-4.8,3.3-4.8c0.1-0.4,2.4-1.4,3.9-2.4c1-0.8,1.4-3.3,1.5-4.7c0-0.6-0.2-1.2-0.6-1.7c-0.8-0.8-1.9-2.1-1.9-2.1
					c-2-0.8-2.8-2.3-2.8-2.3c-0.1,0.3-1.2,0.8-1.2,0.8c0,0.2-0.1,1.2-0.1,1.2c-0.4,2-2.2,1.8-2.2,1.8l-0.3-2.2c0,0-0.3-1.3-0.1-2
					c0.2-0.7,2.9-2.8,3.3-3c0.3-0.3,0.7-0.3,1-0.2c0.3,0.1,1.9,0.9,1.9,0.9s-2.5-5.5-2.7-5.7c-0.2-0.2-1-2.7-1-3.8
					c0-1.1,1.4-1.1,1.4-1.1s0.5,1.2,0.8,1.6c0.3,0.5,1.2,2.3,1.2,2.3l2.2,3.4c-0.1-0.3-1.4-2.9-1.5-3.9c-0.1-1.1,1.4-1.1,1.4-1.1
					s0.6,1.2,0.8,1.4c0.2,0.2,1,1.5,1,1.5l1.4,1.9l0.3-0.1c0,0,0.2,0.2,0.8,0.9c0.4,0.5,1,1.2,1.9,2.3c2.3,2.6,2.4,5.2,2.4,5.2
					S44.6,25.5,48,27.7z"/>
			</g>
			<g>
				<path fill="#F3F3F3" d="M25.3,38.6c0,0,0.3,1.8,0.9,1.8l1.3-1.6c0,0,0.4-0.3,0-0.7c-0.4-0.4-0.5-0.6-0.5-0.6s-0.3-0.3-0.7,0
					C25.9,37.9,25.3,38.6,25.3,38.6z"/>
			</g>
			<g>
				<path fill="#F3F3F3" d="M27.6,8c0,0,0.4,1.3,1.5,1.2l-0.7-1.8C28.3,7.4,27.7,7.4,27.6,8z"/>
			</g>
			<g>
				<path fill="#F3F3F3" d="M31.5,10.2L31.5,10.2c0-0.1,0.4-0.5,0.8-0.3l0.7,1.5c0,0-0.1,0-0.2,0C32.3,11.3,31.7,10.8,31.5,10.2z"/>
			</g>
			<g>
				<path fill="#F7B64C" d="M27,21.7c0,0.1,0,0.3,0,0.6c0-0.1-0.1-0.3-0.4-0.4c-0.5-0.1-1.4-0.7-1.5-0.8
					C25.2,21.2,26.6,21.9,27,21.7z"/>
			</g>
			<path fill="#F7B64C" d="M28.3,21c0,0-0.1,0.1-0.1,0.2c0,0,0,0,0-0.1c0.1-0.2-0.3-0.9-0.3-1C28.1,20.4,28.3,21,28.3,21z"/>
			<g>
				<g>
					<path fill="#F7B64C" d="M33.6,20.2c-0.1-0.1-0.2-0.1-0.3-0.2c-0.1-0.1-0.2-0.1-0.2-0.2c-0.1-0.1-0.2-0.1-0.2-0.2l-0.2-0.2
						c-0.1-0.1-0.2-0.1-0.2-0.2c-0.1-0.1-0.2-0.1-0.2-0.2c-0.2-0.1-0.3-0.2-0.5-0.3c-0.3-0.2-1.1-0.5-1.1-0.5s-0.1-0.1-0.3-0.2
						l0.3,0.2l0,0l0,0c0.4,0.2,0.7,0.4,1.1,0.6c0.2,0.1,0.3,0.2,0.5,0.3c0.1,0.1,0.2,0.1,0.2,0.2c0.1,0.1,0.2,0.1,0.2,0.2l0.2,0.2
						c0.1,0.1,0.2,0.1,0.2,0.2c0.1,0.1,0.2,0.1,0.3,0.2C33.4,20.1,33.5,20.2,33.6,20.2c0.2,0.1,0.3,0.2,0.5,0.3
						c0.2,0.1,0.4,0.2,0.6,0.2c-0.2-0.1-0.4-0.1-0.6-0.2C34,20.4,33.8,20.3,33.6,20.2z"/>
				</g>
				<g>
					<path fill="#F7B64C" d="M36.7,19.6c-0.1-0.1-0.2-0.1-0.3-0.2c-0.1-0.1-0.2-0.2-0.3-0.3c-0.2-0.2-0.4-0.4-0.5-0.6
						c-0.2-0.2-0.3-0.4-0.5-0.6l-0.5-0.6c-0.2-0.2-0.3-0.4-0.5-0.6c-0.1-0.1-0.2-0.2-0.3-0.3c-0.1-0.1-0.2-0.2-0.3-0.3
						c0,0,0,0-0.1-0.1c0,0,0,0-0.1-0.1c0,0-0.1-0.1-0.1-0.1c-0.1-0.1-0.2-0.2-0.2-0.3c-0.2-0.2-0.3-0.4-0.5-0.6l-0.6-1.2
						c0.3,0.7,0.6,1.2,0.6,1.2s0.6,0.9,0.7,1c0,0.1,0.1,0.1,0.1,0.1c0,0,0.1,0,0.1,0.1c0,0,0.1,0,0.1,0.1c0.1,0.1,0.2,0.2,0.3,0.3
						c0.1,0.1,0.2,0.2,0.3,0.3c0.2,0.2,0.3,0.4,0.5,0.6L35,18c0.2,0.2,0.3,0.4,0.5,0.6c0.2,0.2,0.4,0.4,0.6,0.6
						c0.1,0.1,0.2,0.2,0.3,0.3C36.5,19.5,36.6,19.6,36.7,19.6z"/>
				</g>
				<path fill="#F7B64C" d="M38.9,20.8c-0.1-0.3-0.3-0.6-0.4-0.9c-0.1-0.3-0.3-0.6-0.4-0.9c-0.1-0.3-0.3-0.6-0.5-0.9
					c-0.2-0.3-0.3-0.6-0.5-0.9C37,17,37,16.9,36.9,16.8c-0.1-0.1-0.2-0.3-0.3-0.4c-0.4-0.6-0.7-1.1-1.1-1.7l-0.1,0l-0.1-0.2l0.1,0.2
					l0,0l0,0c0.4,0.6,0.7,1.2,1.1,1.7c0.1,0.1,0.2,0.3,0.3,0.4c0.1,0.1,0.2,0.3,0.3,0.4c0.2,0.3,0.4,0.6,0.5,0.9
					c0.2,0.3,0.3,0.6,0.5,0.9c0.2,0.3,0.3,0.6,0.4,0.9C38.6,20.2,38.8,20.5,38.9,20.8c0.1,0.2,0.1,0.3,0.2,0.5
					c0.1,0.1,0.2,0.3,0.3,0.4c-0.1-0.1-0.2-0.3-0.3-0.4C39.1,21.2,39,21,38.9,20.8z"/>
				<g>
					<path fill="#F3F3F3" d="M35.4,14.6l0.4,0.6c0.2,0.3,0.5,0.4,0.8,0.4c0,0,0,0,0,0l-0.9-1.1c0-0.1-0.1-0.1-0.2-0.1
						C35.6,14.4,35.5,14.4,35.4,14.6z"/>
				</g>
			</g>
		</g>
		<g>
			<g>
				<path fill="#FFD15C" d="M15.1,25.3c-0.4,0.5-0.6,1.1-0.6,1.7c0.1,1.4,0.4,3.9,1.5,4.7c1.5,1.1,3.8,2.1,3.9,2.4
					c0,0,3.5,2.4,3.3,4.8c-0.3,2.4-1.9,1-1.9,1s-1.3-1.2-1.6-1.6c-0.3-0.4-1.9-1.2-1.9-1.2s-2.5-1.9-4.8-1.7l-1.1,0.1
					c0,0-2.8,0.8-5.3,0.2c-2.5-0.6-3.2,0.1-3.2,0.1S2,37.3,1.6,38.1C1.2,38.8,0,40.6,0,40.6l0,0V27.7C3.4,25.5,7.2,23,7.2,23
					s0-2.6,2.4-5.2c0.9-1.1,1.5-1.8,1.9-2.3c0.6-0.7,0.8-0.9,0.8-0.9l0.3,0.1l1.4-1.9c0,0,0.8-1.3,1-1.5c0.2-0.2,0.8-1.4,0.8-1.4
					s1.5,0,1.4,1.1c-0.1,1-1.4,3.6-1.5,3.9l2.2-3.4c0,0,0.9-1.8,1.2-2.3c0.3-0.5,0.8-1.6,0.8-1.6s1.4,0,1.4,1.1c0,1.1-0.8,3.6-1,3.8
					c-0.2,0.2-2.7,5.7-2.7,5.7s1.6-0.9,1.9-0.9c0.3-0.1,0.7,0,1,0.2c0.3,0.3,3,2.3,3.3,3c0.2,0.7,0.4,2,0.4,2l0.2,2.2
					c0,0-1.7,0.6-2.5-1.3c0,0-0.3-0.9-0.3-1.1c0,0-1.5-1.1-1.6-1.3c0,0-0.8,1.5-2.8,2.3C17,23.2,15.8,24.5,15.1,25.3z"/>
			</g>
			<g>
				<path fill="#F3F3F3" d="M22.7,38.6c0,0-0.3,1.8-0.9,1.8l-1.3-1.6c0,0-0.4-0.3,0-0.7c0.4-0.4,0.5-0.6,0.5-0.6s0.3-0.3,0.7,0
					C22.1,37.9,22.7,38.6,22.7,38.6z"/>
			</g>
			<g>
				<path fill="#F3F3F3" d="M20.4,8c0,0-0.4,1.3-1.5,1.2l0.7-1.8C19.7,7.4,20.3,7.4,20.4,8z"/>
			</g>
			<g>
				<path fill="#F3F3F3" d="M16.5,10.2L16.5,10.2c0-0.1-0.4-0.5-0.8-0.3l-0.7,1.5c0,0,0.1,0,0.2,0C15.8,11.3,16.3,10.8,16.5,10.2z"
					/>
			</g>
			<g>
				<path fill="#F7B64C" d="M21.3,22.3c0,0.1,0.1,0.3,0.2,0.5c0-0.1,0-0.3,0.3-0.4c0.5-0.3,1.3-1,1.3-1.1
					C23,21.4,21.8,22.3,21.3,22.3z"/>
			</g>
			<path fill="#F7B64C" d="M19.7,21c0,0,0.1,0.1,0.1,0.2c0,0,0,0,0-0.1c-0.1-0.2,0.3-0.9,0.3-1C20,20.4,19.7,21,19.7,21z"/>
			<g>
				<g>
					<path fill="#F7B64C" d="M14.4,20.2c0.1-0.1,0.2-0.1,0.3-0.2c0.1-0.1,0.2-0.1,0.2-0.2c0.1-0.1,0.2-0.1,0.2-0.2l0.2-0.2
						c0.1-0.1,0.2-0.1,0.2-0.2c0.1-0.1,0.2-0.1,0.2-0.2c0.2-0.1,0.3-0.2,0.5-0.3c0.3-0.2,1.1-0.5,1.1-0.5s0.1-0.1,0.3-0.2l-0.3,0.2
						l0,0l0,0c-0.4,0.2-0.7,0.4-1.1,0.6c-0.2,0.1-0.3,0.2-0.5,0.3c-0.1,0.1-0.2,0.1-0.2,0.2c-0.1,0.1-0.2,0.1-0.2,0.2l-0.2,0.2
						c-0.1,0.1-0.2,0.1-0.2,0.2c-0.1,0.1-0.2,0.1-0.3,0.2C14.6,20.1,14.5,20.2,14.4,20.2c-0.2,0.1-0.3,0.2-0.5,0.3
						c-0.2,0.1-0.4,0.2-0.6,0.2c0.2-0.1,0.4-0.1,0.6-0.2C14,20.4,14.2,20.3,14.4,20.2z"/>
				</g>
				<g>
					<path fill="#F7B64C" d="M11.3,19.6c0.1-0.1,0.2-0.1,0.3-0.2c0.1-0.1,0.2-0.2,0.3-0.3c0.2-0.2,0.4-0.4,0.5-0.6
						c0.2-0.2,0.3-0.4,0.5-0.6l0.5-0.6c0.2-0.2,0.3-0.4,0.5-0.6c0.1-0.1,0.2-0.2,0.3-0.3c0.1-0.1,0.2-0.2,0.3-0.3c0,0,0,0,0.1-0.1
						c0,0,0,0,0.1-0.1c0,0,0.1-0.1,0.1-0.1c0.1-0.1,0.2-0.2,0.2-0.3c0.2-0.2,0.3-0.4,0.5-0.6l0.6-1.2c-0.3,0.7-0.6,1.2-0.6,1.2
						s-0.6,0.9-0.7,1c0,0.1-0.1,0.1-0.1,0.1c0,0-0.1,0-0.1,0.1c0,0-0.1,0-0.1,0.1c-0.1,0.1-0.2,0.2-0.3,0.3
						c-0.1,0.1-0.2,0.2-0.3,0.3c-0.2,0.2-0.3,0.4-0.5,0.6L13,18c-0.2,0.2-0.3,0.4-0.5,0.6c-0.2,0.2-0.4,0.4-0.6,0.6
						c-0.1,0.1-0.2,0.2-0.3,0.3C11.5,19.5,11.4,19.6,11.3,19.6z"/>
				</g>
				<path fill="#F7B64C" d="M9.1,20.8c0.1-0.3,0.3-0.6,0.4-0.9c0.1-0.3,0.3-0.6,0.4-0.9c0.1-0.3,0.3-0.6,0.5-0.9
					c0.2-0.3,0.3-0.6,0.5-0.9c0.1-0.1,0.2-0.3,0.3-0.4c0.1-0.1,0.2-0.3,0.3-0.4c0.4-0.6,0.7-1.1,1.1-1.7l0.1,0l0.1-0.2l-0.1,0.2l0,0
					l0,0c-0.4,0.6-0.7,1.2-1.1,1.7c-0.1,0.1-0.2,0.3-0.3,0.4c-0.1,0.1-0.2,0.3-0.3,0.4c-0.2,0.3-0.4,0.6-0.5,0.9
					c-0.2,0.3-0.3,0.6-0.5,0.9c-0.2,0.3-0.3,0.6-0.4,0.9C9.4,20.2,9.2,20.5,9.1,20.8C9,21,8.9,21.2,8.8,21.3
					c-0.1,0.1-0.2,0.3-0.3,0.4c0.1-0.1,0.2-0.3,0.3-0.4C8.9,21.2,9,21,9.1,20.8z"/>
				<g>
					<path fill="#F3F3F3" d="M12.6,14.6l-0.4,0.6c-0.2,0.3-0.5,0.4-0.8,0.4c0,0,0,0,0,0l0.9-1.1c0-0.1,0.1-0.1,0.2-0.1
						C12.4,14.4,12.5,14.4,12.6,14.6z"/>
				</g>
			</g>
		</g>
	</g>
</g>
</svg>
