<?xml version="1.0" encoding="utf-8"?>
<!-- Generator: Adobe Illustrator 18.0.0, SVG Export Plug-In . SVG Version: 6.00 Build 0)  -->
<!DOCTYPE svg PUBLIC "-//W3C//DTD SVG 1.1//EN" "http://www.w3.org/Graphics/SVG/1.1/DTD/svg11.dtd">
<svg version="1.1" id="Layer_1" xmlns="http://www.w3.org/2000/svg" xmlns:xlink="http://www.w3.org/1999/xlink" x="0px" y="0px"
	 viewBox="0 0 48 48" enable-background="new 0 0 48 48" xml:space="preserve">
<g>
	<g>
		<g>
			<g>
				<path fill="#344A5E" d="M44.1,36.3c-0.6-2.3-2.5-4-4.8-4.4l-9-1.5c-0.4,2.9-2.5,5.6-6.4,5.6c-3.8,0-5.9-2.6-6.4-5.5L8.7,32
					c-2.3,0.4-4.2,2.1-4.8,4.4L0.9,48h46.2L44.1,36.3z"/>
			</g>
			<g>
				<g>
					<g>
						<g>
							<path fill="#E8EAE9" d="M28.8,48c0.4-2.7,2.2-14.9,2.3-16.6L24,34.5l-7.2-3.1c0.1,1.8,1.9,13.9,2.3,16.6H28.8z"/>
						</g>
						<g>
							<path fill="#F3705A" d="M20.2,48h7.5l-1.5-7.7l1.8-1.8c0,0-2.6-4.1-4.1-4.1c-1.4,0-4.1,4.1-4.1,4.1l1.8,1.8L20.2,48z"/>
						</g>
						<g>
							<g>
								<path fill="#F3F3F3" d="M17.4,25.6l6.6,8.9l-4.8,4.9l-3.7-11.1C16.2,27.1,17.4,25.6,17.4,25.6z"/>
							</g>
						</g>
					</g>
					<g>
						<path fill="#F3F3F3" d="M30.6,25.6L24,34.5l4.8,4.9l3.7-11.1C31.8,27.1,30.6,25.6,30.6,25.6z"/>
					</g>
				</g>
			</g>
			<g>
				<g>
					<polygon fill="#415A6B" points="34.7,48 38.8,39 34.7,36.9 39.1,33.9 31.4,26.6 27.8,48 					"/>
				</g>
				<g>
					<polygon fill="#415A6B" points="9.2,39 13.3,48 20.1,48 16.6,26.6 8.9,33.9 13.2,36.9 					"/>
				</g>
			</g>
		</g>
		<g>
			<g>
				<g>
					<circle fill="#66C6B9" cx="24" cy="13.8" r="13.8"/>
				</g>
			</g>
			<g>
				<g>
					<circle fill="#FFFFFF" cx="24" cy="13.8" r="10.7"/>
				</g>
			</g>
			<g>
				<path fill="#F3705A" d="M24,14.6c-0.4,0-0.8-0.4-0.8-0.8V7.5c0-0.4,0.4-0.8,0.8-0.8c0.4,0,0.8,0.4,0.8,0.8v6.4
					C24.8,14.3,24.4,14.6,24,14.6z"/>
			</g>
			<g>
				<g>
					<path fill="#FFD15C" d="M28.5,14.6H24c-0.4,0-0.8-0.4-0.8-0.8s0.4-0.8,0.8-0.8h4.5c0.4,0,0.8,0.4,0.8,0.8S29,14.6,28.5,14.6z"
						/>
				</g>
			</g>
			<g>
				<g>
					<circle fill="#415A6B" cx="24" cy="13.8" r="2.2"/>
				</g>
			</g>
			<g>
				<g>
					<circle fill="#344A5E" cx="24" cy="13.8" r="1.1"/>
				</g>
			</g>
			<g>
				<g>
					<circle fill="#E8EAE9" cx="24" cy="4.7" r="0.6"/>
				</g>
			</g>
			<g>
				<g>
					<circle fill="#E8EAE9" cx="17.5" cy="7.4" r="0.6"/>
				</g>
			</g>
			<g>
				<g>
					<circle fill="#E8EAE9" cx="14.9" cy="13.9" r="0.6"/>
				</g>
			</g>
			<g>
				<g>
					<circle fill="#E8EAE9" cx="17.6" cy="20.4" r="0.6"/>
				</g>
			</g>
			<g>
				<g>
					<circle fill="#E8EAE9" cx="24.1" cy="23" r="0.6"/>
				</g>
			</g>
			<g>
				<g>
					<circle fill="#E8EAE9" cx="30.6" cy="20.3" r="0.6"/>
				</g>
			</g>
			<g>
				<g>
					<circle fill="#E8EAE9" cx="33.2" cy="13.8" r="0.6"/>
				</g>
			</g>
			<g>
				<g>
					<circle fill="#E8EAE9" cx="30.5" cy="7.4" r="0.6"/>
				</g>
			</g>
		</g>
	</g>
</g>
</svg>
