<?xml version="1.0" encoding="utf-8"?>
<!-- Generator: Adobe Illustrator 19.0.1, SVG Export Plug-In . SVG Version: 6.00 Build 0)  -->
<svg version="1.1" id="Layer_1" xmlns="http://www.w3.org/2000/svg" xmlns:xlink="http://www.w3.org/1999/xlink" x="0px" y="0px"
	 viewBox="0 0 48 48" style="enable-background:new 0 0 48 48;" xml:space="preserve">
<style type="text/css">
	.st0{fill:#415A6B;}
	.st1{fill:#ADB3BA;}
	.st2{fill:#E8EAE9;}
	.st3{fill:#55C0EB;}
	.st4{fill:#F3705A;}
	.st5{fill:#FFFFFF;}
	.st6{fill:#FFD15C;}
	.st7{fill:#344A5E;}
	.st8{fill:#CED6E0;}
	.st9{fill:#F05540;}
	.st10{fill:#F7B64C;}
	.st11{fill:#F3F3F3;}
	.st12{fill:#66C6B9;}
	.st13{fill:#4ABAA5;}
	.st14{fill:#8AD7F8;}
	.st15{fill:none;}
	.st16{fill:#E53D35;}
</style>
<g>
	<g>
		<g>
			<path class="st0" d="M48,44.1L48,44.1l-48,0v0C0,46.3,1.7,48,3.9,48h40.2C46.3,48,48,46.3,48,44.1z"/>
		</g>
		<g>
			<polygon class="st1" points="28.4,46.1 19.6,46.1 18.6,44.1 29.4,44.1 			"/>
		</g>
		<g>
			<path class="st2" d="M45.3,13.3v28.8c0,1.1-0.9,2-2,2H4.6c-1.1,0-2-0.9-2-2V13.3c0-1.1,0.9-2,2-2h38.8
				C44.5,11.4,45.3,12.2,45.3,13.3z"/>
		</g>
		<g>
			<rect x="5.6" y="14.3" class="st3" width="36.8" height="26.9"/>
		</g>
		<g>
			<g>
				<path class="st4" d="M48,2v13.1c0,1.1-0.9,2-2,2H35.7l-9.6,6v-6h-0.4c-1.1,0-2-0.9-2-2V2c0-1.1,0.9-2,2-2H46C47.1,0,48,0.9,48,2
					z"/>
			</g>
			<g>
				<g>
					<path class="st5" d="M44.7,8.5c0,1.2-1,2.2-2.2,2.2c-1.2,0-2.2-1-2.2-2.2c0-1.2,1-2.2,2.2-2.2C43.7,6.4,44.7,7.3,44.7,8.5z"/>
				</g>
				<g>
					<path class="st5" d="M38,8.5c0,1.2-1,2.2-2.2,2.2c-1.2,0-2.2-1-2.2-2.2c0-1.2,1-2.2,2.2-2.2C37,6.4,38,7.3,38,8.5z"/>
				</g>
				<g>
					<path class="st5" d="M31.3,8.5c0,1.2-1,2.2-2.2,2.2c-1.2,0-2.2-1-2.2-2.2c0-1.2,1-2.2,2.2-2.2C30.3,6.4,31.3,7.3,31.3,8.5z"/>
				</g>
			</g>
		</g>
		<g>
			<g>
				<path class="st6" d="M13.7,25.3c0.2,0.9,0.6,1.6,1,1.6c0.4,0,0.6-0.8,0.5-1.7s-0.6-1.6-1-1.6C13.7,23.6,13.5,24.4,13.7,25.3z"/>
				<ellipse transform="matrix(0.9946 0.1041 -0.1041 0.9946 2.7536 -2.2775)" class="st6" cx="23.2" cy="25.2" rx="0.7" ry="1.7"/>
			</g>
			<g>
				<path class="st7" d="M24,21.9c0,3.2-2.3,6.7-5.1,6.7s-5.1-3.6-5.1-6.7c0-4.9,2.3-5.8,5.1-5.8S24,17,24,21.9z"/>
			</g>
			<polygon class="st8" points="22.2,41.2 25.1,32 19,32 13.4,32.3 16.9,41.2 			"/>
			<g>
				<polygon class="st4" points="20.6,41.2 20,34.9 18,34.9 17.4,41.2 				"/>
			</g>
			<g>
				<polygon class="st9" points="20,34.9 20.9,33.9 19,32 17,33.9 18,34.9 				"/>
			</g>
			<path class="st10" d="M22.2,25.3v3.5c0,0,0.1,1.3-1.6,2.2C19,31.9,19,32,19,32s0-0.1-1.6-1c-1.6-0.9-1.6-2.2-1.6-2.2v-3.5
				c0,0-0.1-1.3,1.6-2.2c1.6-0.9,1.6-1,1.6-1s0,0.1,1.6,1C22.2,23.9,22.2,25.3,22.2,25.3z"/>
			<g>
				<path class="st6" d="M23.1,26.9c0,0.8-0.9,1.6-1.8,2.3c-1.4,1-3.3,1-4.7,0c-0.9-0.7-1.7-1.5-1.8-2.3c-0.4-2.2-0.5-3.9-0.4-5.2
					c0.1-0.9,0.9-1.6,1.9-1.4c1.4,0.3,3.5,0.3,5,0c0.9-0.2,1.8,0.5,1.9,1.5C23.2,23.7,23.2,25.9,23.1,26.9z"/>
			</g>
			<g>
				<g>
					<path class="st11" d="M15.8,28.7c0,0-0.1,1.3,1.5,2.2s1.6,1,1.6,1l-1.9,2.7L15,31.6C15,31.6,15,30.5,15.8,28.7z"/>
				</g>
			</g>
			<g>
				<g>
					<path class="st11" d="M22.2,28.7c0,0,0.1,1.3-1.5,2.2C19,31.9,19,32,19,32l1.9,2.7l2.1-3.1C22.9,31.6,23,30.5,22.2,28.7z"/>
				</g>
			</g>
			<g>
				<path class="st0" d="M10.8,41.2c-0.1-0.4-0.1-0.7-0.1-0.7l2.4-4c0,0-3.2-4.3-4.7-3.8c-1.2,0.4-1.4,2.3-2.8,8.5H10.8z"/>
			</g>
			<g>
				<path class="st7" d="M10.7,41.2h6.2c-0.6-1.2-1-2-1-2s-2.1-8.2-1.8-8.4c0,0-5.2,1.7-5.7,1.9c0,0,2.1,5.3,2.3,7.8
					C10.7,40.5,10.7,40.8,10.7,41.2z"/>
			</g>
			<g>
				<path class="st0" d="M16,41.2h1.9c-0.5-1.9-1.4-5.8-1.6-6.6c-0.3-0.9-0.7-5.2-0.7-5.2c-0.6,1-1.4,1.4-1.4,1.4l-0.9,2l1.2,0.5
					L13,34.4C13.1,34.9,14.8,38.8,16,41.2z"/>
			</g>
			<g>
				<path class="st0" d="M27.2,41.2h5.2c-1.4-6.2-1.6-8.1-2.8-8.5c-1.5-0.5-4.7,3.8-4.7,3.8l2.4,4C27.3,40.5,27.2,40.8,27.2,41.2z"
					/>
			</g>
			<g>
				<path class="st7" d="M21.1,41.2h6.2c0-2.4,1.4-6.3,2.3-8.5c-0.6-0.2-5.7-1.9-5.7-1.9c0.3,0.2-1.8,8.4-1.8,8.4
					S21.7,40.1,21.1,41.2z"/>
			</g>
			<g>
				<path class="st0" d="M22,41.2c1.1-2.4,2.9-6.3,2.9-6.8l-1.3-1.1l1.2-0.5l-0.9-2c0,0-0.8-0.4-1.4-1.4c-0.5,4.9-0.4,4-2.3,11.8H22
					z"/>
			</g>
		</g>
	</g>
</g>
</svg>
