<?xml version="1.0" encoding="utf-8"?>
<!-- Generator: Adobe Illustrator 18.0.0, SVG Export Plug-In . SVG Version: 6.00 Build 0)  -->
<!DOCTYPE svg PUBLIC "-//W3C//DTD SVG 1.1//EN" "http://www.w3.org/Graphics/SVG/1.1/DTD/svg11.dtd">
<svg version="1.1" id="Layer_1" xmlns="http://www.w3.org/2000/svg" xmlns:xlink="http://www.w3.org/1999/xlink" x="0px" y="0px"
	 viewBox="0 0 48 48" enable-background="new 0 0 48 48" xml:space="preserve">
<g>
	<g>
		<g>
			<g>
				<g>
					<g>
						<g>
							
								<ellipse transform="matrix(1 -3.567840e-003 3.567840e-003 1 -0.1605 0.1202)" fill="#E8EAE8" cx="33.6" cy="45.1" rx="3.1" ry="3.1"/>
						</g>
					</g>
				</g>
				<g>
					<g>
						<g>
							<g>
								<polygon fill="#2F4251" points="34,46.2 33.7,45 34.7,44.3 35.5,45 35.1,46.2 								"/>
							</g>
						</g>
					</g>
					<g>
						<g>
							<g>
								<polygon fill="#2F4251" points="31.6,47.1 32.5,47.8 33.4,47.7 33.1,47 31.9,46.6 								"/>
							</g>
						</g>
					</g>
					<g>
						<g>
							<g>
								<polygon fill="#2F4251" points="31.6,45.4 32.4,44.6 32.2,43.5 31.4,43.6 31,44.7 								"/>
							</g>
						</g>
					</g>
					<g>
						<g>
							<g>
								<polygon fill="#2F4251" points="33.3,42.8 34.4,43.1 35.2,42.7 34.4,42.1 33.4,42.1 								"/>
							</g>
						</g>
					</g>
					<g>
						<g>
							<g>
								<path fill="#2F4251" d="M36.3,43.6l-0.1,0l0.1,1l0.3,0.7l0,0c0-0.1,0-0.2,0-0.3C36.7,44.5,36.5,44,36.3,43.6z"/>
							</g>
						</g>
					</g>
					<g>
						<g>
							<g>
								<path fill="#2F4251" d="M36.1,46.9l0-0.2L35.4,47l-0.8,0.8l0.1,0.1l0,0C35.3,47.7,35.7,47.3,36.1,46.9z"/>
							</g>
						</g>
					</g>
				</g>
			</g>
			<g>
				<g>
					<g>
						<g>
							<g>
								<path fill="#2F4251" d="M25.8,27.4c0,0,0.1,1,0.8,1.1c0.6,0.1,1.9-1.3,1.9-1.3l-1.9-0.9L25.8,27.4z"/>
							</g>
						</g>
					</g>
					<g>
						<g>
							<g>
								<path fill="#FFD15C" d="M25.9,26.7l5-3c0,0,3.5,2.2,4.4,3.3c0,0,1,0.4,0.7,1.8l-0.3,0.7l-3.3,0c0,0-0.7-0.8-1.7-1
									C29.8,28.3,26.4,27.3,25.9,26.7z"/>
							</g>
						</g>
					</g>
					<g>
						<g>
							<g>
								<g>
									<path fill="#E8EAE8" d="M32.3,29.4c0,0,0.3-0.1,0.7-0.1c0.4,0,2.6,0.2,2.8,0L35.6,30c0,0,0,0.4-0.3,0.7l-1,2.5l-1,1.9
										c0,0-1.2,2.3-1.3,2.7c-0.1,0.4,0,1.1,0.1,1.6c0.1,0.4-1.5,0.2-1.5,0.2L29,39.5c0,0-0.1-0.5,0.2-1c0.3-0.5,0.9-1.7,1.1-2.5
										s0.7-1.7,0.7-2.6c0-0.8,0.4-2.3,1.3-3.7C32.3,29.7,32.6,29.6,32.3,29.4z"/>
								</g>
							</g>
						</g>
						<g>
							<g>
								<g>
									<path fill="#F26F5A" d="M35.4,30.6c0.2-0.3,0.2-0.6,0.2-0.6l0,0c-0.8,0.2-2.3-0.3-2.6-0.3c-0.2,0-0.4-0.1-0.6-0.2
										c0,0.1-0.1,0.2-0.1,0.2c0,0.1-0.1,0.1-0.1,0.2C33,30.5,34.9,30.6,35.4,30.6z"/>
								</g>
							</g>
							<g>
								<g>
									<path fill="#F26F5A" d="M34.3,33.2l0.1-0.2c-1.2,0-3.1-0.7-3.2-0.7c-0.1,0.4-0.1,0.8-0.1,1c0,0,0,0,0,0
										c0.9,0.3,2.3,0.5,2.8,0.6L34.3,33.2z"/>
								</g>
							</g>
						</g>
					</g>
					<g>
						<g>
							<g>
								<path fill="#FFD15C" d="M22.5,32.5c0.2,1.2-0.1,1.4-0.1,1.4c0.1,0.7-0.6,1.8-0.6,1.8l0,0.2l-2.5-0.5l0-0.7
									c0,0,0.1-0.9,0.1-1.6c0-0.7-0.3-2.6-0.3-2.8l3.6-0.1C22.8,31.8,22.5,32.5,22.5,32.5z"/>
							</g>
						</g>
						<g>
							<g>
								<path fill="#FFD15C" d="M19.1,30.2C19.1,30.2,19.1,30.2,19.1,30.2L19.1,30.2L19.1,30.2z"/>
							</g>
						</g>
					</g>
					<g>
						<g>
							<g>
								<g>
									<path fill="#425A6B" d="M26.4,20.3l0.9,1.2c0,0,0.5,0.1,0.6,0.5c0,0,0,0.1,0.1,0c0.1-0.1,0.1,0.3,0.3,0.2
										c0.2,0,0.3-0.1,0.4,0c0.1,0.1,0.1,0.5,0.3,0.3c0.2-0.2,0.4-0.1,0.5,0.2l1.8,1.1l-0.2-0.1l-4.6,3.3c0,0-0.7,1.3,0.1,1.5
										c0,0-0.2,0.1-0.4-0.2c-0.2-0.3-1.5-1.1-1.5-1.1l-0.3,0.6l0,1.5c-1.6,1.7-3.5,2.1-5.7,1.3c0,0,0.2-1.7,0.1-2.2
										c-0.1-0.5-0.1-0.6-0.1-0.6s-0.3-0.9-0.2-1.5c-0.8-2.2-0.7-4.4,0.3-6.5l1.3-1l4.2,0.6L26.4,20.3z"/>
								</g>
							</g>
						</g>
						<g>
							<g>
								<g>
									<g>
										<path fill="#344A5E" d="M25.5,23.7c0,0-0.9,0.5-0.3,0.3c0.6-0.2,1.2-0.6,1.2-0.6s1-0.8,1.3-1.2c0,0-1.4,1.5-1.9,1.6
											c0,0,0.4-0.6,0.5-0.9c0.1-0.3,0.8-0.8,0.8-0.8s0.4-0.4-0.3,0c-0.7,0.4-2.4,1.6-1.5,1.1c0.9-0.5,0.9-0.5,0.9-0.5
											S25.8,23.6,25.5,23.7z"/>
									</g>
								</g>
							</g>
							<g>
								<g>
									<g>
										<path fill="#344A5E" d="M27.8,22.3c0,0-0.4,0.5-0.6,0.6c-0.2,0.1-0.8,1-1.1,1c-0.3,0.1-0.6,0.4-0.6,0.4s-1.4,1-0.2,0.7
											c0,0-0.6,0.9,0,0.4c0.6-0.6,0.7-1.3,2.1-2.4C27.3,23,28.2,22.1,27.8,22.3"/>
									</g>
								</g>
							</g>
							<g>
								<g>
									<path fill="#344A5E" stroke="#425A6B" stroke-width="0.25" stroke-miterlimit="10" d="M25.3,22.2"/>
								</g>
							</g>
							<g>
								<g>
									<g>
										<path fill="#344A5E" d="M26.1,25.5c0,0,2.6-0.9,3.3-1.2c0.7-0.3,0.7-0.3,0.7-0.3s-1.6,0.5-2,0.7
											C27.6,24.8,26.1,25.5,26.1,25.5z"/>
									</g>
								</g>
							</g>
							<g>
								<g>
									<g>
										<path fill="#344A5E" d="M28.8,23.5c0.2-0.1,0.3-0.2,0.3-0.2S29,23.4,28.8,23.5z"/>
									</g>
								</g>
								<g>
									<g>
										<path fill="#344A5E" d="M28.6,22.9c0,0-1.5,1.5-1.8,1.8c0,0,1-0.7,1.5-1c0.2-0.1,0.3-0.2,0.4-0.2
											c-0.4,0.2-1.1,0.6-1.3,0.7c0,0,0.1-0.4,0.5-0.6c0.4-0.3,0.8-0.5,0.8-0.5l-0.5,0.1c0,0,0.4-0.4,1.4-0.3l-0.1-0.1
											c-0.3,0-0.7-0.1-0.9,0c0,0,0.3-0.2,0.5-0.2c0.1,0,0.1-0.2-0.1-0.1C28.9,22.7,28.6,22.9,28.6,22.9z"/>
									</g>
								</g>
							</g>
							<g>
								<g>
									<g>
										<path fill="#344A5E" d="M26.7,24.8c0.2-0.2,0.4-0.4,0.4-0.4S26.9,24.6,26.7,24.8z"/>
									</g>
								</g>
								<g>
									<g>
										<g>
											<path fill="#344A5E" d="M27.5,26.3c-1,0-1.9-0.2-1.9-0.2s0,0,1-0.1c1-0.1,0.1-0.5-0.5-0.4c-0.4,0.1,0.1-0.4,0.5-0.8
												c-0.5,0.4-1.1,1.1-1.3,1.2c-0.2,0.2-0.7,1.2-0.7,1.2s1.3,0.8,1.5,1.1c0.2,0.3,0.4,0.2,0.4,0.2c-0.4-0.1-0.4-0.4-0.3-0.7
												c0.1-0.4,0.3-0.8,0.7-1L27.5,26.3z"/>
										</g>
									</g>
								</g>
							</g>
							<g>
								<g>
									<path fill="#344A5E" stroke="#425A6B" stroke-miterlimit="10" d="M24.7,27.8"/>
								</g>
							</g>
						</g>
						<g>
							<g>
								<g>
									<g>
										<path fill="#F5B54C" d="M27.3,12.9c0,0,0.5,1.6,1.6,1.6c0,0-0.7,1.5-0.9,2.6c-0.2,1.1-1.2,2.4-1.2,2.4l-0.2,0.2
											c0,0-0.2-0.1-0.6-0.1l0.5,0.7l0.2,1.1l0.3,0.3l0.3-0.1c0,0,0.3-0.5,0.4-0.9c0,0,0.1-0.2,0.2-0.3c0.1-0.1,0.2-0.4,0.2-0.4
											s0.3-0.7,1-1.7c0.8-1,1.4-2.8,1.4-2.8s0.6-0.7,0-2c-0.6-1.3-1.2-2.4-1.2-2.4l-0.9,0.1L27.3,12.9z"/>
									</g>
								</g>
							</g>
							<g>
								<g>
									<g>
										<g>
											<path fill="#F5B54C" d="M21.3,4.5l0,0.3c0,0,0.1,1,0,1.2c-0.1,0.2-0.3,0.5-0.9,0.5l0,2.9l5.5,0l-1.2-2.3l-0.9-0.9
												l-0.9-1.8L21.3,4.5z"/>
										</g>
									</g>
								</g>
							</g>
							<g>
								<g>
									<g>
										<path fill="#F5B54C" d="M16.6,12.2c0,0-0.4,2.1-2.1,1.9c0,0,1,1.8,1.6,3.2c0.6,1.4,1.8,1.7,2,1.7c0.3-0.1,0.7-0.1,0.8-0.1
											c0.1,0.1,0.6,0.1,0.8,0.1c0.2,0,0.7,0,0.7,0s0.9,0.2,1.2,0.4c0,0,0.2,0.1,0.2,0.3s-0.3,0.2-0.3,0.2l-0.8-0.3l-0.3-0.1
											l-0.7,0.1c0,0-0.1,0,0,0c0.1,0,0.6,0,0.6,0l1.3,0.5c0,0,0.3,0.2,0.1,0.4c-0.1,0.3-0.4,0-0.4,0l-1-0.4l-0.8-0.1
											c0,0-0.2,0,0,0.1c0.3,0,0.5,0.1,0.5,0.1l1.2,0.5c0,0,0.2,0.1,0.1,0.3c-0.1,0.2-0.4,0.1-0.4,0.1l-1.1-0.4
											c0,0-0.6-0.1-0.7,0.2c0,0,0,0.2,0.1,0.2c0.2,0.1,0.2,0.1,0.2,0.1l0.9,0.5c0,0,0.1,0.2,0,0.3c-0.2,0.1-0.4,0-0.4,0L19,21.4
											c0,0-0.2-0.1-0.5-0.1c-0.3,0-1-0.3-1-0.3s-0.9-0.5-1-0.8c-0.1-0.3-0.5-0.5-0.5-0.5s-2.9-2.1-3.8-3.8c0,0-0.6-0.7-0.8-0.9
											c-0.2-0.2-0.2-0.5,0-0.8c0.2-0.3,0.9-1.5,1.2-1.9c0.3-0.4,0.8-1.4,1.5-1.7c0.7-0.3,1.5,0.8,1.5,0.8L16.6,12.2L16.6,12.2z"
											/>
									</g>
								</g>
							</g>
							<g>
								<g>
									<g>
										<g>
											<path fill="#F26F5A" d="M24.1,6.7c0,0,0.4,1.2-0.9,1.9c0,0-0.5-0.2-1.1-0.7c-0.6-0.5-1.8-1.3-1.4-1.5
												c0,0-0.4-0.2-0.6,0.1c0,0-0.4,0.1-0.9,0.3C18.8,7,18.4,7,18.1,7.3c0,0-0.2,0.2-0.5,0.1c-0.3-0.1-0.4,0.2-0.4,0.2
												s-0.3,0-0.6,0.4c0,0-0.9,0.5-1.1,1c0,0-0.3-0.1-0.5,0.5c0,0,0.1,0.1-0.1,0.1c-0.2,0-0.3,0.3-0.3,0.3s0,0.1-0.2,0.1
												c-0.2,0-0.1,0.2-0.1,0.2l-0.6,0.5l0,0.1c0,0,1.8,2,2.7,2.2l0.4-0.5c0,0,0.2,0,0.3-0.3c0,0,0.5,0.9,0.6,1.3
												c0.1,0.4,0.3,1,0.3,1s0.3,1.7,0.4,2.4c0.1,0.7,0.3,1.5,0.8,1.8c0,0,0.2,0.2,0,0.6l0.1,0.8c0,0,2.8,1.3,3.9,0.6l2.1,0.3
												c0,0-0.1-0.3,0.1-0.1c0.2,0.2,0.8,0.6,1.1,0.2c0,0,0-1.7-0.3-2.1c0,0,0.2-1.9,0.2-2.5c0-0.6,0.3-1.1,0-2.4
												c0,0,0-0.8,0.1-1.2l0.6,0.6l0.2-0.1c0,0,2,0.3,2.2-2c0,0-0.5-0.5-0.6-0.8c-0.1-0.3-0.9-1.7-1.6-2.2c0,0-0.3-0.5-1-0.6
												C26.4,7.7,24.4,6.7,24.1,6.7z"/>
										</g>
									</g>
								</g>
								<g>
									<g>
										<g>
											<path fill="#F05640" d="M17.8,10.3C17.8,10.3,17.8,10.3,17.8,10.3C17.8,10.3,17.8,10.3,17.8,10.3z"/>
										</g>
									</g>
									<g>
										<g>
											<g>
												<path fill="#F05640" d="M21.6,14.4c-1.1-1-1-1.1-0.3-0.7c0.7,0.4,1.5,0.2,0.4-0.1c-1.1-0.4-0.4-0.7-2-1.9
													c-1.5-1.2,1.4-0.7,1.4-0.7c-0.2,0-0.3-0.1-0.5-0.1c-1.1-0.4-2.3-0.1-3.1,0.8c-0.2,0.2-0.3,0.4-0.3,0.5
													c0.1,0.1,0.5,0.9,0.6,1.2c0.1,0.4,0.3,1,0.3,1s0.3,1.7,0.4,2.4c0,0.1,0,0.3,0.1,0.4c0.9,0.6,0-3.8,0-3.8
													c0.3,1,1.2,2.1,1.2,2.1c-0.5-0.9-1.1-2.3-1.1-2.3l1.4,1.7c0,0,1.5,1,0-0.5c-1.4-1.5,0.7-0.4,1.4,0.4
													C22.2,15.4,22.7,15.4,21.6,14.4z"/>
											</g>
										</g>
									</g>
									<g>
										<g>
											<polygon fill="#F05640" points="16.8,12.5 16.8,12.5 16.8,12.5 											"/>
										</g>
									</g>
									<g>
										<g>
											<path fill="#F05640" d="M17.2,12.1c-0.1,0.1-0.2,0.2-0.2,0.2C17,12.3,17.1,12.3,17.2,12.1z"/>
										</g>
									</g>
								</g>
								<g>
									<g>
										<g>
											<g>
												<path fill="#E8EAE8" d="M16.8,12.5c-0.1,0.3-0.4,0.6-0.7,0.8c-1-0.5-2.5-2.1-2.7-2.3l-0.1-0.1c0.2-0.3,0.5-0.5,0.8-0.6
													c0.7,0.7,1.9,1.9,2.5,2.1L16.8,12.5z"/>
											</g>
										</g>
									</g>
								</g>
								<g>
									<g>
										<g>
											<g>
												<path fill="#E8EAE8" d="M29.9,11.7c-0.4,0.8-1,1.7-2,2l-0.1,0c0,0,0,0-0.1,0L26.9,13c0.2-0.1,0.4-0.2,0.6-0.2l0.1,0
													c0.8-0.3,1.3-1.1,1.6-1.9l0.3,0.3L29.9,11.7z"/>
											</g>
										</g>
									</g>
								</g>
								<g>
									<g>
										<g>
											<path fill="#E8EAE8" d="M20.1,6.5c0,0.5,0.5,0.9,1.4,1.6c0.1,0.1,0.2,0.2,0.3,0.2C22.4,8.8,23,9,23,9l0.2,0.1L23.5,9
												c1.1-0.5,1.3-1.5,1.3-2.1c-0.3-0.1-0.5-0.2-0.6-0.2c0,0,0.4,1.2-0.9,1.9c0,0-0.5-0.2-1.1-0.7c-0.6-0.5-1.8-1.3-1.4-1.5
												C20.5,6.3,20.3,6.3,20.1,6.5z"/>
										</g>
									</g>
								</g>
							</g>
							<g>
								<g>
									<g>
										<path fill="#F5B54C" d="M21.7,20.1l-1.3-0.5c0,0-0.5,0-0.6,0c-0.1,0,0,0,0,0l0.7-0.1l0.3,0.1l0.8,0.3c0,0,0.3,0.1,0.3-0.2
											s-0.2-0.3-0.2-0.3c-0.4-0.2-1.2-0.4-1.2-0.4s-0.6,0-0.7,0c-0.2,0-0.6,0-0.8-0.1c-0.1-0.1-0.6,0-0.8,0.1c0,0-0.1,0-0.2,0
											l0,2.3c0.2,0.1,0.4,0.1,0.5,0.1c0.3,0,0.5,0.1,0.5,0.1l0.9,0.6c0,0,0.3,0.2,0.4,0c0.2-0.1,0-0.3,0-0.3l-0.9-0.5
											c0,0,0,0-0.2-0.1c-0.2-0.1-0.1-0.2-0.1-0.2c0.1-0.3,0.7-0.2,0.7-0.2l1.1,0.4c0,0,0.3,0.2,0.4-0.1c0.1-0.2-0.1-0.3-0.1-0.3
											l-1.2-0.5c0,0-0.2-0.1-0.5-0.1c-0.3,0,0-0.1,0-0.1l0.8,0.1l1,0.4c0,0,0.3,0.2,0.4,0C21.9,20.3,21.7,20.1,21.7,20.1z"/>
									</g>
								</g>
							</g>
						</g>
					</g>
					<g>
						<g>
							<g>
								<g>
									<path fill="#FFD15C" d="M25.2,2.8c0,0,0.4,0.1,0.4,0.5c-0.1,0.4,0,0.5,0,0.5s0,0.2-0.1,0.4s-0.1,0.5-0.3,0.4
										c0,0,0,1.1-0.7,1.8c0,0-0.2,0.6-0.8,0.7c-0.6,0.1-1.2-0.2-1.4-0.4c0,0-0.9-0.6-1-2c0,0-0.1,0.2-0.2,0.1
										c-0.1-0.1-0.2-0.2-0.1-0.4c0,0-0.2-0.5-0.2-0.6c0,0-0.2-0.4,0-0.6C20.8,2.9,21,2.6,21,2.6S20.7,1,22.6,1c1.9,0,2.1,0,2.2,0
										c0.1,0,0.3,0.4,0.3,0.4l0.2,0.6L25.2,2.8z"/>
								</g>
							</g>
						</g>
						<g>
							<g>
								<g>
									<path fill="#425A6B" d="M24.4,1.3C24.8,1.1,24.9,2,24.9,2s-0.1,0.5,0.2,0.8c0,0,0.1,1,0.1,1.1s0,0.1,0,0.1s0.1,0,0.1-0.3
										s0.1-0.4,0.1-0.4s0.1,0,0.1-0.6c-0.1-0.6-0.1-2.1-1.8-2.7c0,0-0.7-0.3-1.3,0.2c0,0-1.2,0.2-1.5,1.4
										c-0.3,1.3-0.2,1.6-0.2,1.6s0.4,0.2,0.4,0.6c0,0.3,0,0.5,0.2,0.6c0,0-0.2-1,0-1.3c0.2-0.3,0.3-0.5,0.2-0.9
										c0,0,0-0.7,0.6-0.7C22.8,1.7,23.6,1.7,24.4,1.3z"/>
								</g>
							</g>
						</g>
					</g>
					<g>
						<g>
							<g>
								<g>
									<path fill="#67C5B8" d="M28.4,40.4c0,0-0.1,0.3,0,0.4c0.1,0.1,0.1,0.3,0.1,0.3l0.5,0.3l0.1-0.2c0,0,0.4,0,0.4,0.2
										c0,0.2,0,0.2,0,0.2l0.3,0.1l0.1-0.1l0.1,0l0.1-0.1c0,0,1.2,0.4,1.4,0.6l0.2,0.3l0.3,0l0.1-0.1l0.2,0.1l0,0.3l0.3,0l0.1-0.1
										c0,0,0.3,0,0.3,0l0.1,0.2c0,0,0.3,0,0.3,0l0.1-0.1c0,0,0.5,0.1,0.5,0l0,0.2l0.3,0l0.3-0.2c0,0,0.7,0,0.7-0.3l-1.5-0.3
										l-5.5-1.6L28.4,40.4z"/>
								</g>
							</g>
						</g>
						<g>
							<g>
								<g>
									<path fill="#425A6B" d="M35.5,42.4c0,0-2.3,0.1-2.9-0.1c-0.6-0.2-1-0.4-1-0.4s-0.9-0.4-1.8-0.7c-0.6-0.2-1.1-0.4-1.3-0.5
										c-0.1-0.1-0.2-0.2-0.2-0.3c0-0.6,0.2-1.3,0.8-2c0,0,0.1-0.1,0.2,0l0,0c0,0,0,0,0,0.1c0,0.1,0.1,0.4,0,0.5
										c0,0.3,0.7,0.3,0.8,0.3c0.1,0,0.7-0.3,1.2-0.2l0.2-0.4c0,0,0.1-0.2,0.2-0.2c0.1,0,0.2,0.3,0.2,0.3s0.1,0.3,0.2,0.3
										c0.1,0.1,0,0.3-0.1,0.3c0,0,0.2,0.2,0.4,0.4c0.2,0.2,0.2,0.3,0.2,0.3s0.5,0.2,0.6,0.5c0.2,0.3,1.3,0.8,1.9,0.9
										C35.8,41.7,35.5,42.4,35.5,42.4z"/>
								</g>
							</g>
						</g>
					</g>
					<g>
						<g>
							<g>
								<path fill="#E8EAE8" d="M19.3,34.7c0,0,0,0.3,0.4,0.5c0.4,0.2,1.7,0.8,2.1,0.4c0,0,0,0.7,0,0.9c0,0.3,0.3,2.2,0.3,3.2
									c0,1,0.1,2.7,0.3,3.2c0.2,0.5,0.8,1.8,0.8,1.8l-1.3,0.9c0,0-0.7,0.1-0.7,0c0,0-0.1-1.2-0.1-1.2s0-0.3-0.1-0.8
									c-0.2-0.5-0.9-2.5-0.9-2.5C19.5,39.6,19,38,19,36.7l0.2-1c0,0-0.1-0.3,0-0.5C19.3,34.9,19.3,34.7,19.3,34.7z"/>
							</g>
						</g>
					</g>
					<g>
						<g>
							<g>
								<path fill="#F26F5A" d="M21.8,36c-0.7,0.3-1.4,0-1.8-0.1c-0.3-0.1-0.7-0.4-0.9-0.6c0,0.2,0,0.4,0,0.4l0,0
									c0.4,0.4,0.8,0.7,1.5,0.9c0.6,0.2,1,0,1.2-0.1C21.8,36.3,21.8,36.1,21.8,36z"/>
							</g>
						</g>
						<g>
							<g>
								<path fill="#F26F5A" d="M19.5,39.5c1,0.4,2.3,0.4,2.6-0.4c0-0.3,0-0.6-0.1-0.9c-0.1,0.2-0.3,0.4-1,0.6
									c-0.7,0.2-1.4-0.1-1.8-0.3C19.3,38.9,19.4,39.2,19.5,39.5z"/>
							</g>
						</g>
					</g>
					<g>
						<g>
							<g>
								<g>
									<path fill="#67C5B8" d="M21.4,47.2c0,0,0.3,0.4,0.5,0.5l0.1,0.2l0.2,0.1l0.1-0.2l0.2,0.1l0,0.2l0.3,0l0-0.1l0.3,0l0.1,0.2
										l0.3,0l0.3-0.2c0,0,0.4,0,0.5-0.1l0.1,0.2l0.3-0.1l0-0.2c0,0,0.4-0.3,0.2-0.7c-0.2-0.4-0.6-0.4-0.6-0.4l-1.3,0.2L21.4,47.2
										z"/>
								</g>
							</g>
						</g>
						<g>
							<g>
								<g>
									<path fill="#425A6B" d="M21.1,44.4c0,0,0.1,0.3,0.1,0.5c0,0.2,0,0.2,0.2,0.1c0.2-0.1,0.4-0.2,0.5-0.1c0,0,0.2-0.7,0.6-0.8
										c0.4,0,0.7,0.3,0.7,0.3s0.1,0,0.2,0.2s0.2,0.3,0.2,0.3s-0.1,0.6,0.3,1c0.4,0.4,1.1,1.3,0.7,1.6c0,0-0.9,0.2-1.2,0.2
										c-0.3,0-1.4,0-1.8-0.3c-0.4-0.2-0.5-0.6-0.5-0.6s-0.4-0.6-0.3-1.1C21,45.2,21.1,44.4,21.1,44.4z"/>
								</g>
							</g>
						</g>
						<g>
							<g>
								<g>
									<g>
										<path fill="#425A6B" d="M24.7,47.6c0,0-0.9,0.2-1.2,0.2c-0.3,0-1.4,0-1.8-0.3c-0.4-0.2-0.5-0.6-0.5-0.6s-0.4-0.6-0.3-1.1
											c0.1-0.5,0.2-1.3,0.2-1.3c0,0,0.1,0.3,0.1,0.5c0,0.2,0,0.2,0.2,0.1c0.2-0.1,0.4-0.2,0.5-0.1c0,0,0-0.1,0.1-0.2
											c0.1-0.2,0.3-0.5,0.5-0.5c0.2,0,0.4,0.1,0.5,0.2c0.1,0.1,0.2,0.2,0.2,0.2s0.1,0,0.2,0.2c0.1,0.2,0.2,0.3,0.2,0.3
											s-0.1,0.6,0.3,1C24.4,46.4,25.1,47.2,24.7,47.6z"/>
									</g>
								</g>
							</g>
							<g>
								<g>
									<g>
										<path fill="#344A5E" d="M23.2,46.3c-0.4,0.2-1.1-1.3-1.3-1.6c0.1-0.2,0.3-0.5,0.5-0.5c0.2,0,0.4,0.1,0.5,0.2
											c0.1,0.4,0.4,1.1,0.5,1.4C23.7,46,23.7,46.1,23.2,46.3z"/>
									</g>
								</g>
							</g>
						</g>
					</g>
				</g>
			</g>
		</g>
	</g>
	<path fill="#344A5E" d="M24.7,27.3c0,0,0.1,0.1,0.3,0.2c0-0.1,0-0.1,0-0.2c0-1.4-1-3.9-1-3.9c0.7,2,0.4,4.5,0.4,4.5L24.7,27.3z"/>
</g>
</svg>
