<?xml version="1.0" encoding="utf-8"?>
<!-- Generator: Adobe Illustrator 18.0.0, SVG Export Plug-In . SVG Version: 6.00 Build 0)  -->
<!DOCTYPE svg PUBLIC "-//W3C//DTD SVG 1.1//EN" "http://www.w3.org/Graphics/SVG/1.1/DTD/svg11.dtd">
<svg version="1.1" id="Layer_1" xmlns="http://www.w3.org/2000/svg" xmlns:xlink="http://www.w3.org/1999/xlink" x="0px" y="0px"
	 viewBox="0 0 48 48" enable-background="new 0 0 48 48" xml:space="preserve">
<g>
	<g>
		<path fill="#CDD6E0" d="M47.9,45.1c-0.2,0.3-0.5,1-0.9,1H1c-0.3,0-0.7-0.7-0.9-1c0,0-0.7,2.2,0.9,2.2h46
			C48.5,47.3,47.9,45.1,47.9,45.1z"/>
		<path fill="#40596B" d="M43.1,36.3H4.9c-0.6,0-1.2,0.5-1.5,1.1l-3.2,7.2C0,45.4,0.3,46.1,1,46.1H47c0.7,0,1.1-0.7,0.8-1.5
			l-3.2-7.2C44.4,36.8,43.7,36.3,43.1,36.3z"/>
		<polygon fill="#CDD6E0" points="29.1,44.5 18,44.5 19.2,40.9 28,40.9 		"/>
		<path fill="#334A5E" d="M42,36.3H6c-1.1,0-2-0.9-2-2V10.5c0-1.1,0.9-2,2-2H42c1.1,0,2,0.9,2,2v23.8C44,35.4,43.1,36.3,42,36.3z"/>
		<rect x="6.1" y="10.7" fill="#84DBFF" width="35.7" height="23.5"/>
	</g>
	<g>
		<path fill="#40596B" d="M46.9,28.9H31.4c-0.6,0-1-0.4-1-1V1.7c0-0.6,0.4-1,1-1h15.4c0.6,0,1,0.4,1,1v26.2
			C47.9,28.4,47.4,28.9,46.9,28.9z"/>
		<rect x="32.4" y="3.7" fill="#FFD15C" width="13.4" height="20.2"/>
		<path fill="#334A5E" d="M40.8,2.6h-3.3c-0.2,0-0.4-0.2-0.4-0.4v0c0-0.2,0.2-0.4,0.4-0.4h3.3c0.2,0,0.4,0.2,0.4,0.4v0
			C41.2,2.4,41,2.6,40.8,2.6z"/>
		<path fill="#334A5E" d="M40.5,27.1h-2.8c-0.4,0-0.7-0.3-0.7-0.7v0c0-0.4,0.3-0.7,0.7-0.7l2.8,0c0.4,0,0.7,0.3,0.7,0.7v0
			C41.2,26.8,40.9,27.1,40.5,27.1z"/>
	</g>
	<polygon fill="#FFFFFF" points="26,13.2 26,11.3 22.3,15 26,18.7 26,16.8 34.1,16.8 34.1,13.2 	"/>
	<polygon fill="#FFFFFF" points="36.3,17.8 36.3,15.9 40,19.6 36.3,23.3 36.3,21.4 28.2,21.4 28.2,17.8 	"/>
</g>
</svg>
