<?xml version="1.0" encoding="utf-8"?>
<!-- Generator: Adobe Illustrator 16.0.0, SVG Export Plug-In . SVG Version: 6.00 Build 0)  -->
<!DOCTYPE svg PUBLIC "-//W3C//DTD SVG 1.1//EN" "http://www.w3.org/Graphics/SVG/1.1/DTD/svg11.dtd">
<svg version="1.1" id="Layer_1" xmlns="http://www.w3.org/2000/svg" xmlns:xlink="http://www.w3.org/1999/xlink" x="0px" y="0px"
	 width="48px" height="48px" viewBox="0 0 48 48" enable-background="new 0 0 48 48" xml:space="preserve">
<g>
	<path fill="#FF7058" d="M45.06,36.42l-13.97-5.49v0.03l-0.002-0.032l-0.003,0.004c-3.555,4.706-10.622,4.705-14.176,0V30.93l0,0
		l-0.004-0.002v0.004L2.944,36.418C1.168,37.116,0,38.831,0,40.74v7.221h48V40.74C48,38.83,46.83,37.12,45.06,36.42"/>
	<path fill="#F8B64C" d="M16.905,30.932v-0.003l0.004,0.002V30.93v0.002c3.554,4.706,10.621,4.706,14.176,0.001l0.003-0.004v0.003
		v-5.193H16.901v5.194L16.905,30.932z"/>
	<path fill="#F8B64C" d="M16.474,16.055c0.156,1.795-0.715,3.338-1.945,3.445c-1.232,0.108-2.357-1.26-2.516-3.055
		C11.856,14.65,12.728,13.107,13.96,13C15.19,12.892,16.316,14.26,16.474,16.055"/>
	<path fill="#F8B64C" d="M35.979,16.445c-0.156,1.795-1.283,3.163-2.514,3.055c-1.232-0.107-2.104-1.65-1.946-3.445
		s1.283-3.163,2.515-3.055C35.266,13.107,36.137,14.65,35.979,16.445"/>
	<path fill="#FFD15C" d="M34.358,10.25v3.4c0,0.11,0,0.22-0.01,0.33c-0.01,0.61-0.05,1.22-0.13,1.82
		c-0.149,1.18-0.399,2.34-0.75,3.46c-0.851,2.71-2.28,5.21-4.21,7.32l-0.99,1.08c-0.9,0.99-2.18,1.55-3.52,1.55h-1.5
		c-1.33,0-2.61-0.57-3.51-1.55l-0.98-1.08c-1.37-1.49-2.49-3.19-3.32-5c-0.84-1.82-1.4-3.77-1.64-5.78
		c-0.07-0.57-0.12-1.15-0.12-1.73c0-0.01-0.01-0.01-0.01-0.02c-0.01-0.13-0.01-0.27-0.01-0.4c-0.011-0.08-0.011-0.15-0.011-0.23
		v-3.11c0-0.98,0.14-1.94,0.4-2.84c1.229-4.33,5.22-7.51,9.96-7.51c4.73,0,8.72,3.18,9.949,7.51
		C34.219,8.351,34.358,9.291,34.358,10.25"/>
	<g opacity="0.1">
		<g>
			<defs>
				<rect id="SVGID_3_" x="20.528" y="25.738" width="10.559" height="8.41"/>
			</defs>
			<clipPath id="SVGID_2_">
				<use xlink:href="#SVGID_3_"  overflow="visible"/>
			</clipPath>
			<path clip-path="url(#SVGID_2_)" fill="#40596B" d="M29.255,28.078l-0.99,1.08c-0.9,0.99-2.18,1.55-3.52,1.55h-1.5
				c-0.977,0-1.926-0.313-2.717-0.865l5.785,4.3c1.803-0.483,3.481-1.532,4.731-3.165c0.015-0.018,0.026-0.032,0.04-0.05
				l0.003-5.189h-0.035C30.508,26.556,29.923,27.347,29.255,28.078"/>
		</g>
	</g>
	<path fill="#F8B64C" d="M20.196,29.566l-0.016,0.019l0.231,0.172C20.335,29.701,20.271,29.628,20.196,29.566"/>
	<path fill="#40596B" d="M34.358,10.25v3.4c0,0.11,0,0.22-0.01,0.33c-0.029,0.11-0.05,0.17-0.05,0.17s-2.03-2.34-2.97-5.29
		c-0.201-0.63-0.91-0.94-1.5-0.63c-1.451,0.75-3.971,1.88-5.83,1.72c-1.86,0.16-4.381-0.97-5.83-1.72c-0.59-0.31-1.301,0-1.5,0.63
		c-0.94,2.95-2.971,5.29-2.971,5.29s-0.01-0.03-0.02-0.08c0-0.01-0.01-0.01-0.01-0.02c-0.01-0.13-0.01-0.27-0.01-0.4
		c-0.011-0.08-0.011-0.15-0.011-0.23v-3.11c0-0.98,0.14-1.94,0.4-2.84c1.229-4.33,5.22-7.51,9.96-7.51c4.73,0,8.72,3.18,9.949,7.51
		C34.219,8.351,34.358,9.291,34.358,10.25"/>
	<path fill="#40596B" d="M32.265,21.979l-2.49,2.613c0.061-4.193-5.773-3.524-5.773-3.524s-5.833-0.669-5.771,3.524l-2.492-2.613
		l-2.076-6.638l0.011,3.843l0.11,1.175c0.27,2.882,1.24,5.681,2.966,8.005c1.601,2.154,3.967,4.165,7.253,4.249
		c3.287-0.084,5.654-2.095,7.254-4.249c1.727-2.323,2.695-5.123,2.966-8.005l0.11-1.175l0.016-3.874L32.265,21.979z M27.168,26.041
		c0,0-0.826,0.551-3.167,0c-2.34,0.551-3.166,0-3.166,0c-1.239-0.895,1.066-2.087,1.066-2.087c1.48-0.263,2.1-1.734,2.1-1.734
		s0.62,1.471,2.1,1.734C26.101,23.954,28.407,25.146,27.168,26.041"/>
	<polygon fill="#40596B" points="13.648,13.063 14.53,13.058 14.243,17.203 13.661,15.341 	"/>
	<polygon fill="#40596B" points="34.358,13.063 33.478,13.058 33.764,17.203 34.347,15.341 	"/>
</g>
</svg>
