<?xml version="1.0" encoding="utf-8"?>
<!-- Generator: Adobe Illustrator 16.0.0, SVG Export Plug-In . SVG Version: 6.00 Build 0)  -->
<!DOCTYPE svg PUBLIC "-//W3C//DTD SVG 1.1//EN" "http://www.w3.org/Graphics/SVG/1.1/DTD/svg11.dtd">
<svg version="1.1" id="Layer_1" xmlns="http://www.w3.org/2000/svg" xmlns:xlink="http://www.w3.org/1999/xlink" x="0px" y="0px"
	 width="48px" height="48px" viewBox="0 0 48 48" enable-background="new 0 0 48 48" xml:space="preserve">
<g>
	<path fill="#FF7058" d="M46,43.327H2c-1.104,0-2-0.896-2-2V12.066c0-1.104,0.896-2,2-2h44c1.105,0,2,0.896,2,2v29.261
		C48,42.432,47.105,43.327,46,43.327"/>
	<path fill="#40596B" d="M33.625,7.61v2.46h-3V7.61c0-0.859-0.701-1.56-1.561-1.56h-10.12c-0.86,0-1.569,0.7-1.569,1.56v2.46h-3
		V7.61c0-2.51,2.049-4.56,4.569-4.56h10.12C31.574,3.051,33.625,5.101,33.625,7.61"/>
	<path fill="#40596B" d="M8.832,44.949H3.631c-0.552,0-1-0.448-1-1v-0.622h7.201v0.622C9.832,44.501,9.385,44.949,8.832,44.949"/>
	<path fill="#40596B" d="M44.369,44.949h-5.201c-0.551,0-1-0.448-1-1v-0.622h7.201v0.622C45.369,44.501,44.922,44.949,44.369,44.949
		"/>
	<rect x="14.375" y="8.571" fill="#334A5E" width="3" height="1.5"/>
	<rect x="30.625" y="8.571" fill="#334A5E" width="3" height="1.5"/>
	<rect x="8.695" y="10.067" fill="#FFD15C" width="2.273" height="33.258"/>
	<rect x="37.031" y="10.067" fill="#FFD15C" width="2.273" height="33.258"/>
	<path fill="#84DBFF" d="M26.708,19.568L15.85,23.335c-0.18-0.522-0.75-0.799-1.272-0.618l-1.646-4.748
		c0.521-0.181,0.797-0.75,0.617-1.272l10.857-3.765c0.182,0.521,0.751,0.798,1.273,0.617l1.646,4.748
		C26.803,18.478,26.527,19.047,26.708,19.568"/>
	<path fill="#FFFFFF" d="M35.388,30.419c0,2.631-2.133,4.763-4.764,4.763c-2.63,0-4.763-2.132-4.763-4.763
		c0-2.632,2.133-4.765,4.763-4.765C33.255,25.654,35.388,27.787,35.388,30.419"/>
</g>
</svg>
