<?xml version="1.0" encoding="utf-8"?>
<!-- Generator: Adobe Illustrator 18.0.0, SVG Export Plug-In . SVG Version: 6.00 Build 0)  -->
<!DOCTYPE svg PUBLIC "-//W3C//DTD SVG 1.1//EN" "http://www.w3.org/Graphics/SVG/1.1/DTD/svg11.dtd">
<svg version="1.1" id="Layer_1" xmlns="http://www.w3.org/2000/svg" xmlns:xlink="http://www.w3.org/1999/xlink" x="0px" y="0px"
	 viewBox="0 0 48 48" enable-background="new 0 0 48 48" xml:space="preserve">
<g>
	<path fill="#F2F2F2" d="M27.3,3.4c0-0.1,0-0.1,0-0.2c0-1-0.8-1.8-1.8-1.8c-0.5,0-1,0.2-1.3,0.6c-0.3-0.7-0.9-1.1-1.7-1.1
		c-0.5,0-1,0.2-1.3,0.6C20.6,0.6,19.7,0,18.6,0c-1.6,0-2.8,1.2-3,2.7c-0.4-0.4-1-0.7-1.7-0.7c-1.1,0-2,0.8-2.3,1.8
		c-0.2-0.1-0.5-0.1-0.7-0.1c-1,0-1.8,0.8-1.8,1.8c0,0.7,0.4,1.4,1.1,1.7v2.6c0,0.7,0.6,1.3,1.3,1.3c0.7,0,1.3-0.6,1.3-1.3V8.9
		c0.3,0.1,0.6,0.2,0.9,0.2c1,0,1.8-0.6,2.2-1.4c0.6,1,1.6,1.6,2.8,1.6c1.4,0,2.6-0.9,3.1-2.1c0.3,0.2,0.6,0.3,1,0.3
		c0.5,0,1-0.2,1.4-0.5c0.4,1.1,1.4,2,2.6,2c1.5,0,2.8-1.3,2.8-2.8C29.7,4.7,28.7,3.6,27.3,3.4z"/>
	<polygon fill="#FFD15C" points="34.4,43.9 22.5,43.9 22.5,26.9 34.4,20.6 	"/>
	<polygon fill="#FFD15C" points="46.3,43.9 34.4,43.9 34.4,26.9 46.3,20.6 	"/>
	<polygon fill="#CDD6E0" points="17.3,13.1 6.9,13.1 1.7,34.2 1.7,43.9 22.5,43.9 22.5,34.2 	"/>
	<rect x="1.7" y="38.6" fill="#ACB3BA" width="20.8" height="5.4"/>
	<rect x="0" y="43.9" fill="#40596B" width="47.9" height="4.1"/>
	<rect x="6.4" y="9.9" fill="#40596B" width="11.3" height="3.1"/>
	<g>
		<rect x="24.1" y="30.6" fill="#FF7058" width="3.3" height="3.3"/>
		<rect x="29.5" y="30.6" fill="#FF7058" width="3.3" height="3.3"/>
	</g>
	<g>
		<rect x="36" y="30.6" fill="#FF7058" width="3.3" height="3.3"/>
		<rect x="41.4" y="30.6" fill="#FF7058" width="3.3" height="3.3"/>
	</g>
	<polygon fill="#BDCCDB" points="17.7,14.6 17.3,13.1 6.9,13.1 6.5,14.6 	"/>
</g>
</svg>
