<?xml version="1.0" encoding="utf-8"?>
<!-- Generator: Adobe Illustrator 18.0.0, SVG Export Plug-In . SVG Version: 6.00 Build 0)  -->
<!DOCTYPE svg PUBLIC "-//W3C//DTD SVG 1.1//EN" "http://www.w3.org/Graphics/SVG/1.1/DTD/svg11.dtd">
<svg version="1.1" id="Layer_1" xmlns="http://www.w3.org/2000/svg" xmlns:xlink="http://www.w3.org/1999/xlink" x="0px" y="0px"
	 viewBox="0 0 48 48" enable-background="new 0 0 48 48" xml:space="preserve">
<g>
	<path fill="#40596B" d="M34,0H2C0.9,0,0,0.9,0,2v44c0,1.1,0.9,2,2,2h32c1.1,0,2-0.9,2-2V2C36,0.9,35.1,0,34,0z"/>
	<rect x="4" y="5.3" fill="#84DBFF" width="28" height="34.8"/>
	<circle fill="#334A5E" cx="18" cy="44" r="2.2"/>
	<path fill="#334A5E" d="M46,14.2H27.4c-1.1,0-2,0.9-2,2V46c0,1.1,0.9,2,2,2H46c1.1,0,2-0.9,2-2V16.2C48,15.1,47.1,14.2,46,14.2z"/>
	<rect x="27.5" y="18.9" fill="#FF7058" width="18.4" height="23.3"/>
	<g>
		<path fill="#ACB3BA" d="M40.7,16.9h-6.1c-0.2,0-0.4-0.2-0.4-0.4l0,0c0-0.2,0.2-0.4,0.4-0.4h6.1c0.2,0,0.4,0.2,0.4,0.4l0,0
			C41.1,16.8,40.9,16.9,40.7,16.9z"/>
		<circle fill="#ACB3BA" cx="33" cy="16.6" r="0.4"/>
		<circle fill="#ACB3BA" cx="36.7" cy="45.1" r="1.7"/>
	</g>
</g>
</svg>
