<?xml version="1.0" encoding="utf-8"?>
<!-- Generator: Adobe Illustrator 18.0.0, SVG Export Plug-In . SVG Version: 6.00 Build 0)  -->
<!DOCTYPE svg PUBLIC "-//W3C//DTD SVG 1.1//EN" "http://www.w3.org/Graphics/SVG/1.1/DTD/svg11.dtd">
<svg version="1.1" id="Layer_1" xmlns="http://www.w3.org/2000/svg" xmlns:xlink="http://www.w3.org/1999/xlink" x="0px" y="0px"
	 viewBox="0 0 48 48" enable-background="new 0 0 48 48" xml:space="preserve">
<g>
	<g>
		<polygon fill="#435B6C" points="37.3,48 43.4,48 36.4,35.9 32.5,35.9 34.9,41.9 13.1,41.9 15.5,35.9 11.6,35.9 4.6,48 10.7,48 
			11.6,45.6 36.4,45.6 		"/>
		<g>
			<g>
				<path fill="#E8EAE9" d="M40.4,0H7.6c-1.7,0-3,1.3-3,3v33.4c0,1.7,1.3,3,3,3h32.7c1.7,0,3-1.3,3-3V3C43.4,1.3,42,0,40.4,0z"/>
				<g>
					<path fill="#8BD7F8" d="M9.3,8.8v8.9c0,0.5,0.3,0.9,0.7,1.1c3.6,1.6,7.3,2.6,10.9,3c0.7,0.1,1.3-0.5,1.3-1.2V8.8
						c0-0.6-0.5-1.2-1.2-1.2H10.4C9.8,7.6,9.3,8.1,9.3,8.8z"/>
					<path fill="#8BD7F8" d="M25.8,8.8v11.8c0,0.7,0.6,1.2,1.3,1.2c3.6-0.4,7.3-1.3,10.9-3c0.4-0.2,0.7-0.6,0.7-1.1V8.8
						c0-0.6-0.5-1.2-1.2-1.2H27C26.4,7.6,25.8,8.1,25.8,8.8z"/>
				</g>
				<g>
					<path fill="#8BD7F8" d="M21,7.6H10.4c-0.6,0-1.2,0.5-1.2,1.2v8.9c0,0.5,0.3,0.9,0.7,1.1c3.6,1.6,7.3,2.6,10.9,3
						c0.7,0.1,1.3-0.5,1.3-1.2V8.8C22.2,8.1,21.6,7.6,21,7.6z"/>
					<path fill="#8BD7F8" d="M37.6,7.6H27c-0.6,0-1.2,0.5-1.2,1.2v11.8c0,0.7,0.6,1.2,1.3,1.2c3.6-0.4,7.3-1.3,10.9-3
						c0.4-0.2,0.7-0.6,0.7-1.1V8.8C38.7,8.1,38.2,7.6,37.6,7.6z"/>
				</g>
			</g>
			<g>
				<g>
					<circle fill="#435B6C" cx="13.5" cy="31" r="3.5"/>
					<circle fill="#435B6C" cx="34.5" cy="31" r="3.5"/>
				</g>
				<g>
					<g>
						<path fill="#E8EAE9" d="M27.9,28.3h-7.9c-0.4,0-0.7-0.3-0.7-0.7v-0.2c0-0.4,0.3-0.7,0.7-0.7h7.9c0.4,0,0.7,0.3,0.7,0.7v0.2
							C28.6,27.9,28.3,28.3,27.9,28.3z"/>
					</g>
					<path fill="#CFD7E1" d="M27.9,30.2h-7.9c-0.4,0-0.7,0.3-0.7,0.7v0.2c0,0.4,0.3,0.7,0.7,0.7h7.9c0.4,0,0.7-0.3,0.7-0.7v-0.2
						C28.6,30.5,28.3,30.2,27.9,30.2z"/>
					<path fill="#CFD7E1" d="M27.9,33.7h-7.9c-0.4,0-0.7,0.3-0.7,0.7v0.2c0,0.4,0.3,0.7,0.7,0.7h7.9c0.4,0,0.7-0.3,0.7-0.7v-0.2
						C28.6,34,28.3,33.7,27.9,33.7z"/>
				</g>
			</g>
		</g>
		<path fill="#CFD7E1" d="M28.1,2.3h-8.3c-0.7,0-1.3,0.6-1.3,1.3V4c0,0.7,0.6,1.3,1.3,1.3h8.3c0.7,0,1.3-0.6,1.3-1.3V3.6
			C29.4,2.9,28.8,2.3,28.1,2.3z"/>
	</g>
</g>
</svg>
