<?xml version="1.0" encoding="utf-8"?>
<!-- Generator: Adobe Illustrator 18.0.0, SVG Export Plug-In . SVG Version: 6.00 Build 0)  -->
<!DOCTYPE svg PUBLIC "-//W3C//DTD SVG 1.1//EN" "http://www.w3.org/Graphics/SVG/1.1/DTD/svg11.dtd">
<svg version="1.1" id="Layer_1" xmlns="http://www.w3.org/2000/svg" xmlns:xlink="http://www.w3.org/1999/xlink" x="0px" y="0px"
	 viewBox="0 0 48 48" enable-background="new 0 0 48 48" xml:space="preserve">
<g>
	<rect x="6.5" y="19.2" fill="#F3F3F3" width="36.4" height="27.4"/>
	<g>
		<rect x="6.5" y="19.2" fill="#E8EAE9" width="36.4" height="3"/>
		<g>
			<g>
				<path fill="#415A6B" d="M30,46.6H19.4v-8.4c0-2.9,2.4-5.3,5.3-5.3h0c2.9,0,5.3,2.4,5.3,5.3V46.6z"/>
			</g>
		</g>
		<g>
			<polygon fill="#F3705A" points="48,19.2 24.7,0 1.4,19.2 			"/>
		</g>
		<g>
			<path fill="#55C0EB" d="M26.3,48l-1.1-5.3c-0.3-1.3-1.1-2.3-2.3-2.8l-6.2-2.6l-3.5,1.2l-3.5-1.2l-6.2,2.6
				c-1.2,0.5-2.1,1.6-2.3,2.9L0,48H26.3z"/>
			<polygon fill="#55C0EB" points="13.9,48 17.3,37.5 16.7,37.2 13.2,38.4 9.6,37.2 8.9,37.5 12.3,48 			"/>
			<g>
				<polygon fill="#F3F3F3" points="14.2,41.6 15.3,40.5 13.2,38.4 11.1,40.5 12.2,41.6 				"/>
				<polygon fill="#FFFFFF" points="15.1,48 14.2,41.6 12.2,41.6 11.2,48 				"/>
			</g>
			<rect x="10.5" y="32.3" fill="#F7B64C" width="5.2" height="6"/>
			<circle fill="#415A6B" cx="13.1" cy="26.9" r="5.2"/>
			<g>
				<g>
					<path fill="#FFD15C" d="M18.6,30.4c-0.2,0.9-0.7,1.6-1.1,1.5c-0.4-0.1-0.6-1-0.4-1.9c0.2-0.9,0.7-1.6,1.1-1.5
						C18.6,28.6,18.8,29.5,18.6,30.4z"/>
				</g>
				<g>
					<path fill="#FFD15C" d="M7.7,30.4c0.2,0.9,0.7,1.6,1.1,1.5c0.4-0.1,0.6-1,0.4-1.9C9,29,8.5,28.3,8.1,28.5S7.5,29.5,7.7,30.4z"
						/>
				</g>
			</g>
			<g>
				<g>
					<polygon fill="#8AD7F8" points="13.2,38.4 11.2,41.4 9.1,37.5 10.5,35.9 					"/>
				</g>
			</g>
			<g>
				<g>
					<polygon fill="#8AD7F8" points="13.2,38.4 15.1,41.4 17.3,37.5 15.8,35.9 					"/>
				</g>
			</g>
			<g>
				<path fill="#FFD15C" d="M10.1,24.3c0,0,0.8,1.1,2.9,0.6c3.4-0.6,4.7,2.1,4.7,2.1v0v4c0,2.6-2.1,4.6-4.6,4.6
					c-2.6,0-4.6-2.1-4.6-4.6v-3.6C8.6,25.5,10.1,24.3,10.1,24.3z"/>
			</g>
		</g>
	</g>
</g>
</svg>
