<?xml version="1.0" encoding="utf-8"?>
<!-- Generator: Adobe Illustrator 18.0.0, SVG Export Plug-In . SVG Version: 6.00 Build 0)  -->
<!DOCTYPE svg PUBLIC "-//W3C//DTD SVG 1.1//EN" "http://www.w3.org/Graphics/SVG/1.1/DTD/svg11.dtd">
<svg version="1.1" id="Layer_1" xmlns="http://www.w3.org/2000/svg" xmlns:xlink="http://www.w3.org/1999/xlink" x="0px" y="0px"
	 viewBox="0 0 48 48" enable-background="new 0 0 48 48" xml:space="preserve">
<g>
	<g>
		<path fill="#FFD15D" d="M41.5,44c-4.2-3.7-10.1-8.2-18.4-13.8c-4.1-2.8-9.8-8.2-11.3-9.9C10.7,19,6.6,12.9,4.5,9.6
			C4.3,9.3,3.8,9.2,3.5,9.5l-3.2,2.4c-0.3,0.2-0.4,0.6-0.2,0.9l3,5.2C8.1,25.8,16,32.2,26.2,37.5c5.1,3,9.4,6.2,12.9,9.2
			c0.7,0.6,1.6,0.6,2.3,0.1C42.3,46.1,42.4,44.7,41.5,44z"/>
		<g>
			<path fill="#E8EAE9" d="M42.3,3c-3.6-1.1-7.2-1.9-10.7-2.1c-4.5-0.3-6.8,0.3-9.8,0.7C17.5,2,10.6,6.1,7.9,8.2
				c-1.8,1.4-5.3,4-7.4,5.5c-0.3,0.3-0.4,0.7-0.2,1.1l2.4,3.8c0.2,0.3,0.6,0.4,0.9,0.2c2-1.6,5.6-4.4,5.7-4.5
				c0.6-0.6,1.2,0.1,1.2,0.1l2.7,3.3l5.8-6.3c5.3-4.7,10-5.2,13.8-6.2C36.4,4.3,47.9,5,47.9,5L48,4.7L42.3,3z"/>
			<path fill="#F3F3F3" d="M9.2,14.2c0.6-0.6,1.2,0.1,1.2,0.1l2.7,3.4l5.7-6.3c5.3-4.7,10-5.2,13.8-6.2C36.4,4.3,47.9,5,47.9,5
				C19.8-3.9,9.2,14.2,9.2,14.2z"/>
		</g>
	</g>
</g>
</svg>
