<?xml version="1.0" encoding="utf-8"?>
<!-- Generator: Adobe Illustrator 20.1.0, SVG Export Plug-In . SVG Version: 6.00 Build 0)  -->
<!DOCTYPE svg PUBLIC "-//W3C//DTD SVG 1.1//EN" "http://www.w3.org/Graphics/SVG/1.1/DTD/svg11.dtd">
<svg version="1.1" id="Layer_1" xmlns="http://www.w3.org/2000/svg" xmlns:xlink="http://www.w3.org/1999/xlink" x="0px" y="0px"
	 viewBox="0 0 49 49" enable-background="new 0 0 49 49" xml:space="preserve">
<g>
	<path fill="#FF7058" d="M48.5,20.5l-2.7,2l-4,2.9L25.7,37.3c-0.7,0.5-1.7,0.5-2.4,0L7.2,25.4l-3-2.2l-3.7-2.7l3.7-3.2l3-2.6L23.2,1
		c0.4-0.3,0.8-0.5,1.3-0.5c0.5,0,0.9,0.2,1.3,0.5l16,13.8l4,3.4L48.5,20.5z"/>
	<path fill="#FFD15C" d="M25.7,37.2c-0.7,0.5-1.7,0.5-2.4,0L0.5,20.5v26c0,1.1,0.9,2,2,2h44c1.1,0,2-0.9,2-2v-26L25.7,37.2z"/>
	<path fill="#F2F2F2" d="M45.8,8.6v13.8l-4,2.9L25.7,37.3c-0.7,0.5-1.7,0.5-2.4,0L7.2,25.4l-3-2.2V2.5c0-1.1,0.9-2,2-2h31.5
		L45.8,8.6z"/>
	<path fill="#CDD6E0" d="M39.7,8.6h6.1l-8.1-8.1v6.1C37.7,7.7,38.6,8.6,39.7,8.6z"/>
	<g>
		<rect x="9" y="10" fill="#CDD6E0" width="32" height="2.5"/>
		<rect x="9" y="4" fill="#ACB3BA" width="23.2" height="2.5"/>
		<rect x="9" y="15.8" fill="#CDD6E0" width="32" height="2.5"/>
		<rect x="26.5" y="21.8" fill="#ACB3BA" width="14.5" height="2.5"/>
	</g>
</g>
</svg>
