<?xml version="1.0" encoding="utf-8"?>
<!-- Generator: Adobe Illustrator 18.0.0, SVG Export Plug-In . SVG Version: 6.00 Build 0)  -->
<!DOCTYPE svg PUBLIC "-//W3C//DTD SVG 1.1//EN" "http://www.w3.org/Graphics/SVG/1.1/DTD/svg11.dtd">
<svg version="1.1" id="Layer_1" xmlns="http://www.w3.org/2000/svg" xmlns:xlink="http://www.w3.org/1999/xlink" x="0px" y="0px"
	 viewBox="0 0 48 48" enable-background="new 0 0 48 48" xml:space="preserve">
<g>
	<path fill="#40596B" d="M43.7,14.9V2c0-1.1-0.9-2-2-2H14.5l-8,8v22.1H5.3c-0.6,0-1,0.4-1,1v10.6c0,0.6,0.4,1,1,1h1.2V46
		c0,1.1,0.9,2,2,2h33.2c1.1,0,2-0.9,2-2V23.8h-2v-8.9H43.7z"/>
	<g>
		<rect x="37.8" y="2" fill="#FFD15C" width="3.9" height="6.9"/>
		<rect x="32.4" y="2" fill="#FFD15C" width="3.9" height="6.9"/>
		<rect x="27.1" y="2" fill="#FFD15C" width="3.9" height="6.9"/>
		<rect x="21.7" y="2" fill="#FFD15C" width="3.9" height="6.9"/>
		<rect x="16.3" y="2" fill="#FFD15C" width="3.9" height="6.9"/>
	</g>
	<rect x="11.5" y="26.6" fill="#CDD6E0" width="27.2" height="16.8"/>
	<g>
		<rect x="14.3" y="29.1" fill="#F2F2F2" width="21.5" height="2.7"/>
		<rect x="14.3" y="33.6" fill="#F2F2F2" width="21.5" height="2.7"/>
		<rect x="14.3" y="38.1" fill="#F2F2F2" width="21.5" height="2.7"/>
	</g>
</g>
</svg>
