<?xml version="1.0" encoding="utf-8"?>
<!-- Generator: Adobe Illustrator 18.0.0, SVG Export Plug-In . SVG Version: 6.00 Build 0)  -->
<!DOCTYPE svg PUBLIC "-//W3C//DTD SVG 1.1//EN" "http://www.w3.org/Graphics/SVG/1.1/DTD/svg11.dtd">
<svg version="1.1" id="Layer_1" xmlns="http://www.w3.org/2000/svg" xmlns:xlink="http://www.w3.org/1999/xlink" x="0px" y="0px"
	 viewBox="0 0 48 48" enable-background="new 0 0 48 48" xml:space="preserve">
<g>
	<g>
		<rect x="23.4" y="33.5" fill="#FFD15C" width="5.1" height="14.5"/>
		<g>
			<g>
				<polygon fill="#FFD15C" points="18.5,47.8 13.5,47.8 20.6,33.5 25.7,33.5 				"/>
			</g>
			<g>
				<polygon fill="#FFD15C" points="33.4,47.8 38.4,47.8 31.3,33.5 26.2,33.5 				"/>
			</g>
		</g>
	</g>
	<g>
		<g>
			<rect x="6.6" y="4.1" fill="#F3F3F3" width="38.7" height="27.3"/>
		</g>
		<g>
			<path fill="#66C6B9" d="M6.2,5h39.5C47,5,48,3.9,48,2.5C48,1.1,47,0,45.7,0H6.2C4.9,0,3.9,1.1,3.9,2.5C3.9,3.9,4.9,5,6.2,5z"/>
			<path fill="#66C6B9" d="M45.7,31H6.2c-1.3,0-2.3,1.1-2.3,2.5s1,2.5,2.3,2.5h39.5c1.3,0,2.3-1.1,2.3-2.5S47,31,45.7,31z"/>
		</g>
	</g>
	<g>
		<g>
			<rect x="11.3" y="9.3" fill="#F3705A" width="6.8" height="6.8"/>
			<g>
				<g>
					<rect x="20.9" y="9.3" fill="#CED6E0" width="19.7" height="1.8"/>
				</g>
				<g>
					<rect x="20.9" y="14.3" fill="#CED6E0" width="19.7" height="1.8"/>
				</g>
			</g>
		</g>
		<g>
			<rect x="11.3" y="19.9" fill="#F3705A" width="6.8" height="6.8"/>
			<g>
				<g>
					<rect x="20.9" y="19.9" fill="#CED6E0" width="19.7" height="1.8"/>
				</g>
				<g>
					<rect x="20.9" y="24.9" fill="#CED6E0" width="19.7" height="1.8"/>
				</g>
			</g>
		</g>
	</g>
	<g>
		<g>
			<path fill="#415A6B" d="M19.7,28c0.3-1.6,0.3-2.7,0.4-3.4c0.3-3.4-2-6.7-5.8-7.1c-4.3-0.4-7.6,3.1-7.1,6.9
				c0.1,0.7,0.1,1.8,0.4,3.6c0.2,0.9,1,1.5,2,1.5h8.1C18.7,29.5,19.6,28.8,19.7,28z"/>
		</g>
		<g>
			<path fill="#415A6B" d="M27.4,48l-1.2-6.1c-0.4-2.3-2.3-4-4.5-4.3c-2.2-0.4-4.5-0.6-6.7-0.6c0,0.6-0.5,1.2-1.5,1.2
				c-1,0-1.5-0.6-1.5-1.2c-2.1,0.1-4.2,0.3-6.4,0.6C3.4,38,1.6,39.7,1.2,42L0,48H27.4z"/>
		</g>
		<g>
			<polygon fill="#F3F3F3" points="14,48 16.5,39.5 13.7,37.6 10.2,39 13.3,48 			"/>
		</g>
		<g>
			<polygon fill="#F3705A" points="14.6,40.1 15.4,39.3 13.7,37.6 11.9,39.3 12.7,40.1 			"/>
			<polygon fill="#F3705A" points="14.3,48 15.4,45.7 14.6,40.1 12.7,40.1 11.9,45.7 13.1,48 			"/>
		</g>
		<g>
			<g>
				<polygon fill="#E8EAE9" points="17,33.8 13.7,37.6 15.9,40.2 18.1,35.6 				"/>
			</g>
			<g>
				<polygon fill="#344A5E" points="14.6,48 20.9,40 18.7,38 20.6,37.5 17.4,34.4 14,48 				"/>
			</g>
		</g>
		<g>
			<g>
				<polygon fill="#E8EAE9" points="10.3,33.8 13.7,37.6 11.5,40.2 9.3,35.6 				"/>
			</g>
			<g>
				<polygon fill="#344A5E" points="12.7,48 13.4,48 10,34.4 6.8,37.5 8.6,38 6.5,40 				"/>
			</g>
		</g>
		<g>
			<polygon fill="#F7B64C" points="10.3,31.1 13.7,27.3 17,31.1 17,33.8 13.7,37.6 10.3,33.8 			"/>
		</g>
		<g>
			<path fill="#FFD15C" d="M13.4,24.6c-1.9,0-3.4-0.6-4.5-1.6c-0.6,1.2-1,2.7-1,4.3c0,4.3,2.6,7.8,5.7,7.8c3.2,0,5.7-3.5,5.7-7.8
				c0-1.8-0.4-3.4-1.2-4.7C17.1,23.8,15.5,24.6,13.4,24.6z"/>
		</g>
		<g>
			<g>
				<path fill="#FFD15C" d="M20.4,28c-0.1,1-0.7,1.9-1.4,1.8c-0.7,0-1.1-0.9-1-1.9c0.1-1,0.7-1.9,1.4-1.8C20.1,26.1,20.5,27,20.4,28
					z"/>
			</g>
			<g>
				<path fill="#FFD15C" d="M7,28c0.1,1,0.7,1.9,1.4,1.8c0.7,0,1.1-0.9,1-1.9c-0.1-1-0.7-1.9-1.4-1.8C7.3,26.1,6.9,27,7,28z"/>
			</g>
		</g>
	</g>
</g>
</svg>
