<?xml version="1.0" encoding="utf-8"?>
<!-- Generator: Adobe Illustrator 20.1.0, SVG Export Plug-In . SVG Version: 6.00 Build 0)  -->
<!DOCTYPE svg PUBLIC "-//W3C//DTD SVG 1.1//EN" "http://www.w3.org/Graphics/SVG/1.1/DTD/svg11.dtd">
<svg version="1.1" id="Layer_1" xmlns="http://www.w3.org/2000/svg" xmlns:xlink="http://www.w3.org/1999/xlink" x="0px" y="0px"
	 viewBox="0 0 49 49" enable-background="new 0 0 49 49" xml:space="preserve">
<g>
	<path fill="#F2F2F2" d="M44,14.4v32.1c0,1.1-0.9,2-2,2H7c-1.1,0-2-0.9-2-2V14.4H44z"/>
	<polygon fill="#54C0EB" points="44,14.4 5,14.4 10.1,7.8 10.1,7.6 10.1,7.6 10.9,6.3 38.1,6.3 38.9,7.6 38.9,7.8 	"/>
	<polygon fill="#84DBFF" points="9.7,0.5 10.9,6.3 38.1,6.3 39.3,0.5 	"/>
	<path fill="#FF7058" d="M44,23.3v17.2c-3.2,1.9-9.7,4.5-18.9,0.7c-9.4-3.9-16.6-2.6-20-1.6V22.4c3.4-1.1,10.6-2.3,20,1.6
		C34.2,27.8,40.8,25.2,44,23.3z"/>
	<g>
		<path fill="#FFFFFF" d="M13.8,35.5V29h2l1.2,4.4l1.2-4.4h2v6.5h-1.2v-5.1l-1.3,5.1h-1.3L15,30.4v5.1H13.8z"/>
		<path fill="#FFFFFF" d="M21.3,35.5V29h1.3v6.5H21.3z"/>
		<path fill="#FFFFFF" d="M23.9,35.5V29h1.3v5.3h3.3v1.1H23.9z"/>
		<path fill="#FFFFFF" d="M29.4,35.5V29h1.3v2.9l2.6-2.9h1.8l-2.4,2.5l2.6,4h-1.7l-1.8-3l-1.1,1.1v2H29.4z"/>
	</g>
</g>
</svg>
