<?xml version="1.0" encoding="utf-8"?>
<!-- Generator: Adobe Illustrator 18.0.0, SVG Export Plug-In . SVG Version: 6.00 Build 0)  -->
<!DOCTYPE svg PUBLIC "-//W3C//DTD SVG 1.1//EN" "http://www.w3.org/Graphics/SVG/1.1/DTD/svg11.dtd">
<svg version="1.1" id="Layer_1" xmlns="http://www.w3.org/2000/svg" xmlns:xlink="http://www.w3.org/1999/xlink" x="0px" y="0px"
	 viewBox="0 0 512 512" enable-background="new 0 0 512 512" xml:space="preserve">
<g>
	<g>
		<path fill="#ABB2B9" d="M133,24v257.6c0,5,0.8,9.8,2.3,14.3c0.2,0.6,0.5,1.2,0.7,1.9c6.5,17,22.9,29,42.2,29H370l89.7,69.1v-69.1
			h29.1c11.7,0,21.2-9.5,21.2-21.2V24c0-11.7-9.5-21.2-21.2-21.2H154.2C142.5,2.8,133,12.3,133,24z"/>
		<rect x="188.3" y="58.2" fill="#334A5E" width="266.4" height="33.9"/>
		<rect x="188.3" y="141.6" fill="#334A5E" width="266.4" height="33.9"/>
		<rect x="188.3" y="225.1" fill="#334A5E" width="266.4" height="33.9"/>
	</g>
	<g>
		<path fill="#F2F2F2" d="M357.8,116.2H23.2c-11.7,0-21.2,9.5-21.2,21.2v281.5c0,11.7,9.5,21.2,21.2,21.2h29.1v69.1l89.7-69.1h215.8
			c11.7,0,21.2-9.5,21.2-21.2V137.4C379,125.7,369.5,116.2,357.8,116.2z"/>
		<circle fill="#F2705B" cx="82.8" cy="279.9" r="37.4"/>
		<circle fill="#89D6F7" cx="190.5" cy="279.9" r="37.4"/>
		<circle fill="#FFD05C" cx="298.2" cy="279.9" r="37.4"/>
	</g>
</g>
</svg>
