<?xml version="1.0" encoding="utf-8"?>
<!-- Generator: Adobe Illustrator 18.0.0, SVG Export Plug-In . SVG Version: 6.00 Build 0)  -->
<!DOCTYPE svg PUBLIC "-//W3C//DTD SVG 1.1//EN" "http://www.w3.org/Graphics/SVG/1.1/DTD/svg11.dtd">
<svg version="1.1" id="Layer_1" xmlns="http://www.w3.org/2000/svg" xmlns:xlink="http://www.w3.org/1999/xlink" x="0px" y="0px"
	 viewBox="0 0 48 48" enable-background="new 0 0 48 48" xml:space="preserve">
<g>
	<g>
		<g>
			<g>
				<path fill="#66C6B9" d="M13,48L13,48c-2.3,0-3.9-2.3-3.1-4.4l2.6-7H24l-8.5,10.2C14.9,47.6,13.9,48,13,48z"/>
			</g>
			<g>
				<path fill="#66C6B9" d="M35,48L35,48c2.3,0,3.9-2.3,3.1-4.4l-2.6-7H24l8.5,10.2C33.1,47.6,34.1,48,35,48z"/>
			</g>
		</g>
		<g>
			<g>
				<g>
					
						<rect x="6.3" y="7.8" transform="matrix(0.7071 0.7071 -0.7071 0.7071 9.3112 -3.856)" fill="#344A5E" width="6.1" height="3"/>
				</g>
			</g>
			<g>
				<g>
					<path fill="#F3705A" d="M14.9,2.6L2.6,14.9c-3.4-3.4-3.4-8.9,0-12.3C6-0.8,11.5-0.8,14.9,2.6z"/>
				</g>
			</g>
		</g>
		<g>
			<g>
				<g>
					
						<rect x="35.6" y="7.8" transform="matrix(-0.7072 0.7071 -0.7071 -0.7072 72.6313 -11.4638)" fill="#344A5E" width="6.1" height="3"/>
				</g>
			</g>
		</g>
		<g>
			<g>
				<path fill="#F3705A" d="M45.4,14.9L33.1,2.6c3.4-3.4,8.9-3.4,12.3,0C48.8,6,48.8,11.5,45.4,14.9z"/>
			</g>
		</g>
		<g>
			<circle fill="#F3705A" cx="24" cy="25.3" r="20.8"/>
		</g>
		<g>
			<circle fill="#FFFFFF" cx="24" cy="25.3" r="16.2"/>
		</g>
		<path fill="#66C6B9" d="M32.2,32.3L20.5,20.6c-0.3-0.3-0.9-0.3-1.2,0l0,0c-0.3,0.3-0.3,0.9,0,1.2L31,33.5c0.3,0.3,0.9,0.3,1.2,0
			l0,0C32.5,33.2,32.5,32.6,32.2,32.3z"/>
		<g>
			<path fill="#F3705A" d="M24,12.1c-0.6,0-1,0.4-1,1v11.2h-7.2c-0.6,0-1,0.4-1,1s0.4,1,1,1H24c0.6,0,1-0.4,1-1V13.1
				C25,12.6,24.6,12.1,24,12.1z"/>
		</g>
		<g>
			<circle fill="#415A6B" cx="24" cy="25.3" r="3.4"/>
		</g>
		<g>
			<circle fill="#344A5E" cx="24" cy="25.3" r="1.5"/>
		</g>
	</g>
</g>
</svg>
