<?xml version="1.0" encoding="utf-8"?>
<!-- Generator: Adobe Illustrator 18.0.0, SVG Export Plug-In . SVG Version: 6.00 Build 0)  -->
<!DOCTYPE svg PUBLIC "-//W3C//DTD SVG 1.1//EN" "http://www.w3.org/Graphics/SVG/1.1/DTD/svg11.dtd">
<svg version="1.1" id="Layer_1" xmlns="http://www.w3.org/2000/svg" xmlns:xlink="http://www.w3.org/1999/xlink" x="0px" y="0px"
	 viewBox="0 0 48 48" enable-background="new 0 0 48 48" xml:space="preserve">
<g>
	<g>
		<g>
			<path fill="#8AD7F8" d="M9.9,39.5C15.8,25.8,9.6,20,9.6,20c0.9-6.1-1.7-12.7-1.7-12.7l7.3-1.6L24,1.9l8.9,3.8l7.3,1.6
				c0,0-2.6,6.6-1.7,12.7c0,0-6.3,5.8-0.4,19.5C28.8,46.3,19.2,46.3,9.9,39.5z"/>
		</g>
		<g>
			<g>
				<g>
					<path fill="#8AD7F8" d="M24,20.2c0,0,0.2-5.1-2.6-6.3S14.7,2.5,24,1.9s7.2,8.6,7.2,8.6l-2.8,8.1L24,20.2z"/>
				</g>
				<g>
					<path fill="#415A6B" d="M24,20.2c0,0,0.2-5.1-2.6-6.3S14.7,2.5,24,1.9s7.2,8.6,7.2,8.6l-2.8,8.1L24,20.2z"/>
				</g>
				<g>
					<path fill="#55C0EB" d="M42,48h5c0.1-9.1-1.5-27.9-2.7-36c-0.3-2.3-2-4.2-4.3-4.7c0,0-2.6,6.6-1.7,12.7
						C41,26.8,41.8,42.4,42,48z"/>
				</g>
			</g>
			<g>
				<g>
					<path fill="#55C0EB" d="M6,48c0.2-5.6,1-21.2,3.6-28c0.9-6.1-1.7-12.7-1.7-12.7C5.6,7.9,3.9,9.7,3.6,12
						c-1.1,8.1-2.8,26.8-2.7,36H6z"/>
				</g>
			</g>
			<g>
				<path fill="#55C0EB" d="M17.2,3.5c-2.1,2.6-4.2,6.2-5.1,10c0,0,4.5,3.9,7.1,3.6c2.6-0.4,4.7,1.2,4.5,2.5
					c-0.2,1.4-2.3,8.6-2,11.8c0,0,0.8-8,4.8-10.5c4.5-2.8,11-5.2,11-5.2s-2-6.7-5.2-11.6C30.6,1.6,27.7,0,24.5,0h0
					C21.7,0,19,1.3,17.2,3.5z M24.2,19.1c0.4-2.5-3.1-6.6-3.1-6.6s-1.9-2.5-2.2-3.4c-0.1-0.2-0.1-0.5-0.2-0.8
					c-0.3-3.3,2.7-5.9,5.9-5.4C25.1,3,25.6,3.1,26,3.2c2.4,0.7,3.7,3.2,3,5.5C28.4,12.5,26.8,15.9,24.2,19.1z"/>
			</g>
			<g>
				<g>
					<path fill="#55C0EB" d="M22.7,44.6c-0.1,0-0.3,0-0.4,0c-2-16.3,0-18.1,0.1-18.2l0.2,0.1l0.2,0.1c0,0,0,0,0,0
						C22.7,26.7,20.8,28.7,22.7,44.6z"/>
				</g>
			</g>
		</g>
	</g>
</g>
</svg>
