<?xml version="1.0" encoding="utf-8"?>
<!-- Generator: Adobe Illustrator 18.0.0, SVG Export Plug-In . SVG Version: 6.00 Build 0)  -->
<!DOCTYPE svg PUBLIC "-//W3C//DTD SVG 1.1//EN" "http://www.w3.org/Graphics/SVG/1.1/DTD/svg11.dtd">
<svg version="1.1" id="Layer_1" xmlns="http://www.w3.org/2000/svg" xmlns:xlink="http://www.w3.org/1999/xlink" x="0px" y="0px"
	 viewBox="0 0 48 48" enable-background="new 0 0 48 48" xml:space="preserve">
<g>
	<g>
		<g>
			<g>
				<g>
					<g>
						<g>
							<rect x="15.8" y="17.3" fill="#55C0EB" width="16.5" height="1.9"/>
						</g>
					</g>
					<g>
						<g>
							<rect x="15.8" y="28.7" fill="#55C0EB" width="16.5" height="1.9"/>
						</g>
					</g>
				</g>
				<g>
					<g>
						<rect x="12.9" y="23" fill="#55C0EB" width="22.2" height="1.9"/>
					</g>
				</g>
			</g>
			<g>
				<g>
					<g>
						<g>
							<rect x="15.8" y="5.9" fill="#55C0EB" width="16.5" height="1.9"/>
						</g>
					</g>
				</g>
				<g>
					<g>
						<rect x="12.9" y="0.2" fill="#55C0EB" width="22.2" height="1.9"/>
					</g>
				</g>
			</g>
			<g>
				<g>
					<g>
						<g>
							
								<rect x="15.8" y="40.1" transform="matrix(1 6.950285e-003 -6.950285e-003 1 0.2858 -0.166)" fill="#55C0EB" width="16.5" height="1.9"/>
						</g>
					</g>
				</g>
				<g>
					<g>
						
							<rect x="12.9" y="45.8" transform="matrix(1 6.950285e-003 -6.950285e-003 1 0.3254 -0.1656)" fill="#55C0EB" width="22.2" height="1.9"/>
					</g>
				</g>
			</g>
		</g>
		<path fill="#F3F3F3" d="M36.3,1.2V0h-2.4v1.2c0,4.3-6.7,8.5-9.9,10c-3.2-1.6-9.9-5.8-9.9-10V0h-2.4v1.2c0,5.2,6.3,9.5,9.7,11.4
			c-3.4,1.9-9.7,6.2-9.7,11.4c0,5.2,6.3,9.5,9.7,11.4c-3.4,1.9-9.7,6.1-9.7,11.3l0,1.2l2.4,0l0-1.2c0-4.3,6.8-8.4,9.9-10
			c3.2,1.6,9.8,5.8,9.8,10.1l0,1.2l2.4,0l0-1.2c0-5.2-6.3-9.5-9.6-11.5c3.4-1.9,9.7-6.2,9.7-11.4c0-5.2-6.3-9.5-9.7-11.4
			C30.1,10.6,36.3,6.4,36.3,1.2z M33.9,24c0,4.3-6.7,8.5-9.9,10c-3.2-1.6-9.9-5.8-9.9-10c0-4.3,6.7-8.5,9.9-10
			C27.2,15.5,33.9,19.7,33.9,24z"/>
	</g>
</g>
</svg>
