<?xml version="1.0" encoding="utf-8"?>
<!-- Generator: Adobe Illustrator 16.0.0, SVG Export Plug-In . SVG Version: 6.00 Build 0)  -->
<!DOCTYPE svg PUBLIC "-//W3C//DTD SVG 1.1//EN" "http://www.w3.org/Graphics/SVG/1.1/DTD/svg11.dtd">
<svg version="1.1" id="Layer_1" xmlns="http://www.w3.org/2000/svg" xmlns:xlink="http://www.w3.org/1999/xlink" x="0px" y="0px"
	 width="48px" height="48px" viewBox="0 0 48 48" enable-background="new 0 0 48 48" xml:space="preserve">
<g>
	<path fill="#F2F2F2" d="M19.925,26.942c0-3.148-2.552-5.701-5.7-5.701c-1.908,0-3.592,0.941-4.627,2.38
		c-0.615-0.251-1.286-0.392-1.991-0.392c-2.441,0-4.49,1.66-5.093,3.912c-1.5,0.486-2.592,1.879-2.592,3.542
		c0,2.065,1.675,3.74,3.741,3.74h12.521c2.066,0,3.741-1.675,3.741-3.74c0-0.597-0.152-1.152-0.4-1.652
		C19.779,28.383,19.925,27.681,19.925,26.942"/>
	<path fill="#FF7058" d="M28.198,37.156c5.78-7.137,13.98-10.947,13.98-20.065C42.179,7.652,34.005,0,23.922,0
		S5.665,7.652,5.665,17.091c0,9.118,8.198,12.929,13.979,20.065H28.198z"/>
	<path fill="#F2F2F2" d="M27.046,37.156c4.208-7.13,10.166-10.951,10.166-20.065C37.212,7.652,31.262,0,23.921,0
		c-7.34,0-13.29,7.652-13.29,17.091c0,9.114,5.958,12.936,10.166,20.065H27.046z"/>
	<path fill="#FF7058" d="M25.407,37.156c2.002-7.13,4.836-10.951,4.836-20.065C30.243,7.652,27.413,0,23.922,0
		C20.43,0,17.6,7.652,17.6,17.091c0,9.114,2.834,12.936,4.835,20.065H25.407z"/>
	<path fill="#FFD15C" d="M28.413,48h-9.039c-0.406,0-0.736-0.33-0.736-0.737v-6.604c0-0.407,0.33-0.736,0.736-0.736h9.039
		c0.407,0,0.738,0.329,0.738,0.736v6.604C29.151,47.67,28.82,48,28.413,48"/>
	<rect x="19.621" y="37.156" fill="#40596B" width="0.53" height="2.766"/>
	<rect x="27.637" y="37.156" fill="#40596B" width="0.531" height="2.766"/>
	<g>
		<defs>
			<rect id="SVGID_1_" x="28.741" y="2.102" width="12.961" height="11.149"/>
		</defs>
		<clipPath id="SVGID_2_">
			<use xlink:href="#SVGID_1_"  overflow="visible"/>
		</clipPath>
		<path clip-path="url(#SVGID_2_)" fill="#40596B" d="M41.705,13.252h-8.13c-2.66,0-4.83-2.171-4.83-4.83
			c0-1.82,1.021-3.46,2.6-4.28c0.32-0.771,0.78-1.46,1.36-2.04C37.195,4.422,40.535,8.441,41.705,13.252"/>
	</g>
	<path fill="#F2F2F2" d="M48.078,5.083C48.078,2.275,45.802,0,42.995,0c-1.7,0-3.202,0.839-4.125,2.122
		c-0.548-0.225-1.146-0.35-1.775-0.35c-2.176,0-4.003,1.48-4.541,3.487c-1.337,0.434-2.311,1.676-2.311,3.158
		c0,1.842,1.494,3.335,3.336,3.335h11.164c1.842,0,3.335-1.493,3.335-3.335c0-0.531-0.136-1.027-0.357-1.473
		C47.949,6.368,48.078,5.741,48.078,5.083"/>
</g>
</svg>
