<?xml version="1.0" encoding="utf-8"?>
<!-- Generator: Adobe Illustrator 18.0.0, SVG Export Plug-In . SVG Version: 6.00 Build 0)  -->
<!DOCTYPE svg PUBLIC "-//W3C//DTD SVG 1.1//EN" "http://www.w3.org/Graphics/SVG/1.1/DTD/svg11.dtd">
<svg version="1.1" id="Layer_1" xmlns="http://www.w3.org/2000/svg" xmlns:xlink="http://www.w3.org/1999/xlink" x="0px" y="0px"
	 viewBox="0 0 48 48" enable-background="new 0 0 48 48" xml:space="preserve">
<g>
	<path fill="#F2F2F2" d="M45,0H3C1.3,0,0,1.3,0,3v42c0,1.7,1.3,3,3,3h42c1.7,0,3-1.3,3-3V3C48,1.3,46.7,0,45,0z"/>
	<rect x="4" y="4.3" fill="#FFFFFF" width="40" height="10.7"/>
	<path fill="#FF7058" d="M18.4,13.3l-0.7-1.6h-3L14,13.3h-1.7l3.1-7.2H17l3.1,7.2H18.4z M16.2,8.3l-0.9,2.1h1.8L16.2,8.3z"/>
	<path fill="#FF7058" d="M23.4,7.5v5.8h-1.6V7.5h-2V6.1h5.7v1.4H23.4z"/>
	<path fill="#FF7058" d="M33.1,8.8l-1.9,3.9h-1l-1.9-3.9v4.5h-1.6V6.1h2.2l1.8,3.9l1.9-3.9h2.2v7.2h-1.6V8.8z"/>
	<rect x="4" y="18.7" fill="#334A5E" width="20.1" height="6.1"/>
	<rect x="5.8" y="20.4" fill="#F2F2F2" width="16.6" height="6"/>
	<path fill="#4CDBC4" d="M20.7,35.6v-13H7.4v13c0,0.9,0.7,1.6,1.6,1.6h10.1C20,37.1,20.7,36.4,20.7,35.6z"/>
	<g>
		<rect x="28" y="27.3" fill="#ACB3BA" width="4.4" height="4.6"/>
	</g>
	<g>
		<rect x="33.8" y="27.3" fill="#ACB3BA" width="4.4" height="4.6"/>
	</g>
	<g>
		<rect x="39.6" y="27.3" fill="#ACB3BA" width="4.4" height="4.6"/>
	</g>
	<g>
		<rect x="28" y="33.2" fill="#ACB3BA" width="4.4" height="4.6"/>
	</g>
	<g>
		<rect x="33.8" y="33.2" fill="#ACB3BA" width="4.4" height="4.6"/>
	</g>
	<g>
		<rect x="39.6" y="33.2" fill="#ACB3BA" width="4.4" height="4.6"/>
	</g>
	<g>
		<rect x="28" y="39.1" fill="#ACB3BA" width="4.4" height="4.6"/>
	</g>
	<g>
		<rect x="33.8" y="39.1" fill="#ACB3BA" width="4.4" height="4.6"/>
	</g>
	<g>
		<rect x="39.6" y="39.1" fill="#ACB3BA" width="4.4" height="4.6"/>
	</g>
	<rect x="28" y="18.7" fill="#FFD15C" width="16" height="5.7"/>
</g>
</svg>
