<?xml version="1.0" encoding="utf-8"?>
<!-- Generator: Adobe Illustrator 18.0.0, SVG Export Plug-In . SVG Version: 6.00 Build 0)  -->
<!DOCTYPE svg PUBLIC "-//W3C//DTD SVG 1.1//EN" "http://www.w3.org/Graphics/SVG/1.1/DTD/svg11.dtd">
<svg version="1.1" id="Layer_1" xmlns="http://www.w3.org/2000/svg" xmlns:xlink="http://www.w3.org/1999/xlink" x="0px" y="0px"
	 viewBox="0 0 48 48" enable-background="new 0 0 48 48" xml:space="preserve">
<g>
	<g>
		<g>
			<path fill="#E8EAE9" d="M35.5,44.5L7.6,40.8c-0.9-0.1-1.6-1-1.5-1.9l5-37.3c0.1-0.9,1-1.6,1.9-1.5L41,3.8c0.9,0.1,1.6,1,1.5,1.9
				l-5,37.3C37.3,44,36.4,44.6,35.5,44.5z"/>
		</g>
		<g>
			<path fill="#F3F3F3" d="M35.4,48H7.2c-0.9,0-1.7-0.8-1.7-1.7V8.6c0-0.9,0.8-1.7,1.7-1.7h28.1c0.9,0,1.7,0.8,1.7,1.7v37.7
				C37.1,47.2,36.3,48,35.4,48z"/>
			<g>
				<g>
					<path fill="#F3705A" d="M14.6,25.1c0,4.1,6.7,8.3,6.7,8.3s6.7-4.2,6.7-8.3c0-2-1.6-3.6-3.6-3.6c-1.3,0-2.5,0.7-3.1,1.8
						c-0.6-1.1-1.8-1.8-3.1-1.8C16.2,21.5,14.6,23.1,14.6,25.1z"/>
				</g>
				<g>
					<path fill="#F3705A" d="M9.8,13.1c0,2.2,3.6,4.5,3.6,4.5s3.6-2.3,3.6-4.5c0-1.1-0.9-1.9-1.9-1.9c-0.7,0-1.4,0.4-1.7,1
						c-0.3-0.6-1-1-1.7-1C10.7,11.2,9.8,12,9.8,13.1z"/>
				</g>
				<path fill="#F3705A" d="M25.5,39.2c0,2.2,3.6,4.5,3.6,4.5s3.6-2.3,3.6-4.5c0-1.1-0.9-1.9-1.9-1.9c-0.7,0-1.4,0.4-1.7,1
					c-0.3-0.6-1-1-1.7-1C26.4,37.3,25.5,38.2,25.5,39.2z"/>
			</g>
		</g>
	</g>
</g>
</svg>
