<?xml version="1.0" encoding="utf-8"?>
<!-- Generator: Adobe Illustrator 20.1.0, SVG Export Plug-In . SVG Version: 6.00 Build 0)  -->
<!DOCTYPE svg PUBLIC "-//W3C//DTD SVG 1.1//EN" "http://www.w3.org/Graphics/SVG/1.1/DTD/svg11.dtd">
<svg version="1.1" id="Layer_1" xmlns="http://www.w3.org/2000/svg" xmlns:xlink="http://www.w3.org/1999/xlink" x="0px" y="0px"
	 viewBox="0 0 49 49" enable-background="new 0 0 49 49" xml:space="preserve">
<g>
	<path fill="#F2F2F2" d="M2.3,28.1v18.4c0,1.1,0.9,2,2,2h40.4c1.1,0,2-0.9,2-2V28.1H2.3z"/>
	<rect x="2.3" y="26.6" fill="#E2E2E2" width="44.4" height="1.5"/>
	<path fill="#FF7058" d="M44.8,17.9H4.2c-0.9,0-1.7,0.6-1.9,1.5l-1.7,7.2h48l-1.7-7.2C46.5,18.6,45.7,17.9,44.8,17.9z"/>
	<rect x="8.3" y="6.1" fill="#F2F2F2" width="32.3" height="11.8"/>
	<path fill="#FF7058" d="M39.4,0.5H9.6C8.8,0.5,8,1.1,7.7,1.9L6.5,6.1h36l-1.2-4.2C41,1.1,40.2,0.5,39.4,0.5z"/>
	<rect x="8.3" y="6.1" fill="#E2E2E2" width="32.3" height="1.5"/>
	<rect x="7.2" y="38.6" fill="#FFFFFF" width="5.1" height="5.1"/>
	<rect x="36.6" y="38.6" fill="#FFFFFF" width="5.1" height="5.1"/>
	<g>
		<rect x="32.5" y="9.5" fill="#FFFFFF" width="5.1" height="5.1"/>
		<rect x="21.9" y="9.5" fill="#FFFFFF" width="5.1" height="5.1"/>
		<rect x="11.3" y="9.5" fill="#FFFFFF" width="5.1" height="5.1"/>
	</g>
	<g>
		<rect x="18" y="35.5" fill="#40596B" width="6.5" height="13"/>
		<rect x="24.5" y="35.5" fill="#334A5E" width="6.5" height="13"/>
	</g>
</g>
</svg>
