<?xml version="1.0" encoding="utf-8"?>
<!-- Generator: Adobe Illustrator 18.0.0, SVG Export Plug-In . SVG Version: 6.00 Build 0)  -->
<!DOCTYPE svg PUBLIC "-//W3C//DTD SVG 1.1//EN" "http://www.w3.org/Graphics/SVG/1.1/DTD/svg11.dtd">
<svg version="1.1" id="Layer_1" xmlns="http://www.w3.org/2000/svg" xmlns:xlink="http://www.w3.org/1999/xlink" x="0px" y="0px"
	 viewBox="0 0 48 48" enable-background="new 0 0 48 48" xml:space="preserve">
<g>
	<rect x="1" y="3.9" fill="#40596B" width="46.2" height="7"/>
	<rect x="0.8" y="42.4" fill="#ACB3BA" width="24.1" height="5.6"/>
	<rect x="4.6" y="0" fill="#FF7058" width="16.5" height="14.7"/>
	<rect x="9" y="14.7" fill="#40596B" width="7.8" height="27.6"/>
	<g>
		<polygon fill="#334A5E" points="9,28.6 9,35.5 12.9,32 		"/>
		<polygon fill="#334A5E" points="16.8,35.5 16.8,28.6 12.9,32 		"/>
	</g>
	<g>
		<polygon fill="#334A5E" points="9,14.7 9,21.6 12.9,18.2 		"/>
		<polygon fill="#334A5E" points="16.8,21.6 16.8,14.7 12.9,18.2 		"/>
	</g>
	<g>
		<polygon fill="#334A5E" points="16.8,35.5 9,35.5 12.9,38.9 		"/>
		<polygon fill="#334A5E" points="9,42.4 16.8,42.4 12.9,38.9 		"/>
	</g>
	<g>
		<polygon fill="#334A5E" points="16.8,21.6 9,21.6 12.9,25.1 		"/>
		<polygon fill="#334A5E" points="9,28.6 16.8,28.6 12.9,25.1 		"/>
	</g>
	<rect x="34.9" y="10.9" fill="#CDD6E0" width="2.1" height="7.9"/>
	<g>
		<path fill="#CDD6E0" d="M42.3,26.4c-0.2,0-0.4-0.1-0.5-0.2l-5.9-5.9l-5.9,5.9c-0.3,0.3-0.8,0.3-1.1,0s-0.3-0.8,0-1.1l6.4-6.4
			c0.1-0.1,0.3-0.2,0.5-0.2l0,0c0.2,0,0.4,0.1,0.5,0.2l6.4,6.4c0.3,0.3,0.3,0.8,0,1.1C42.7,26.3,42.5,26.4,42.3,26.4z"/>
	</g>
	<path fill="#FFD15C" d="M46.2,24.9H25.7c-0.6,0-1,0.4-1,1v10.8c0,0.6,0.4,1,1,1h20.5c0.6,0,1-0.4,1-1V25.9
		C47.2,25.3,46.7,24.9,46.2,24.9z"/>
	<circle fill="#ACB3BA" cx="35.9" cy="20.5" r="2.2"/>
	<g>
		<path fill="#F8B64C" d="M41.5,28v6.6c0,0.7,0.6,1.2,1.2,1.2h0c0.7,0,1.2-0.6,1.2-1.2V28c0-0.7-0.6-1.2-1.2-1.2h0
			C42,26.8,41.5,27.3,41.5,28z"/>
		<path fill="#F8B64C" d="M34.7,28v6.6c0,0.7,0.6,1.2,1.2,1.2h0c0.7,0,1.2-0.6,1.2-1.2V28c0-0.7-0.6-1.2-1.2-1.2h0
			C35.2,26.8,34.7,27.3,34.7,28z"/>
		<path fill="#F8B64C" d="M27.9,28v6.6c0,0.7,0.6,1.2,1.2,1.2h0c0.7,0,1.2-0.6,1.2-1.2V28c0-0.7-0.6-1.2-1.2-1.2h0
			C28.5,26.8,27.9,27.3,27.9,28z"/>
	</g>
</g>
</svg>
