<?xml version="1.0" encoding="utf-8"?>
<!-- Generator: Adobe Illustrator 18.0.0, SVG Export Plug-In . SVG Version: 6.00 Build 0)  -->
<!DOCTYPE svg PUBLIC "-//W3C//DTD SVG 1.1//EN" "http://www.w3.org/Graphics/SVG/1.1/DTD/svg11.dtd">
<svg version="1.1" id="Layer_1" xmlns="http://www.w3.org/2000/svg" xmlns:xlink="http://www.w3.org/1999/xlink" x="0px" y="0px"
	 viewBox="0 0 48 48" enable-background="new 0 0 48 48" xml:space="preserve">
<g>
	<g>
		<g>
			<g>
				<g>
					<path fill="#E8EAE9" d="M38.9,0.8H3.6c2,0,3.5,1.6,3.5,3.5v39.2c0,1.9,1.6,3.5,3.5,3.5h28.3c1.7,0,3-1.3,3-3V3.8
						C41.9,2.2,40.6,0.8,38.9,0.8z"/>
					<g>
						<rect x="11.2" y="4.9" fill="#FFD15D" width="26.7" height="32.7"/>
					</g>
				</g>
				<path fill="#CFD7E1" d="M14.2,41.7v1.9c0,2-1.6,3.5-3.5,3.5h33.8c2,0,3.5-1.6,3.5-3.5v-1.9H14.2z"/>
			</g>
			<path fill="#CFD7E1" d="M3.5,0.8C1.6,0.8,0,2.4,0,4.4V20h7.1V4.4C7.1,2.4,5.5,0.8,3.5,0.8z"/>
		</g>
		<path fill="#435B6C" d="M37.8,15.7v-3H22.2V4.9h-3V22c-1.3,0-2.5,0.5-3.4,1.4l-4.6,4.6v4.2l6.8-6.8c0.7-0.7,2-0.7,2.7,0l5.9,5.9
			l-6.1,6.2h4.2l13.3-13.4v-4.3l-9.3,9.4l-5.8-5.8c-0.1-0.1-0.3-0.3-0.5-0.4v-7.3H37.8z"/>
		<g>
			<path fill="#FFD15D" d="M20.6,25.6c-0.7-0.7-2-0.7-2.7,0l-6.8,6.8v5.3h9.2l6.1-6.2L20.6,25.6z"/>
			<path fill="#67C6B9" d="M11.2,4.9v23.2l4.6-4.6c0.9-0.9,2.1-1.4,3.4-1.4V4.9H11.2z"/>
			<path fill="#FFD15D" d="M22.3,15.7v7.3c0.2,0.1,0.3,0.3,0.5,0.4l5.9,5.9l9.3-9.4v-4.2H22.3z"/>
			<rect x="22.2" y="4.9" fill="#67C6B9" width="15.6" height="7.8"/>
			<polygon fill="#67C6B9" points="6.3,37.4 19.6,37.4 19.6,23.9 			"/>
		</g>
		<g>
			<path fill="#F3705B" d="M25.7,16.8c-3.5,0-6.4,2.9-6.4,6.4c0,3.5,6.4,11.3,6.4,11.3s6.4-7.7,6.4-11.3
				C32.1,19.7,29.2,16.8,25.7,16.8z"/>
			<circle fill="#FFFFFF" cx="25.7" cy="23.2" r="3.7"/>
		</g>
	</g>
</g>
</svg>
