<?xml version="1.0" encoding="utf-8"?>
<!-- Generator: Adobe Illustrator 16.0.0, SVG Export Plug-In . SVG Version: 6.00 Build 0)  -->
<!DOCTYPE svg PUBLIC "-//W3C//DTD SVG 1.1//EN" "http://www.w3.org/Graphics/SVG/1.1/DTD/svg11.dtd">
<svg version="1.1" id="Layer_1" xmlns="http://www.w3.org/2000/svg" xmlns:xlink="http://www.w3.org/1999/xlink" x="0px" y="0px"
	 width="48px" height="48px" viewBox="0 0 48 48" enable-background="new 0 0 48 48" xml:space="preserve">
<g>
	<path fill="#F2F2F2" d="M4.268,44V4c0-2.209,1.791-4,4-4h25.619l9.846,9.846V44c0,2.209-1.791,4-4,4H8.268
		C6.059,48,4.268,46.209,4.268,44"/>
	<rect x="8.268" y="41.338" fill="#CDD6E0" width="31.465" height="2.662"/>
	<rect x="8.268" y="34.217" fill="#CDD6E0" width="31.465" height="2.662"/>
	<rect x="8.268" y="27.096" fill="#CDD6E0" width="31.465" height="2.662"/>
	<rect x="8.268" y="19.975" fill="#CDD6E0" width="31.465" height="2.662"/>
	<rect x="21.5" y="12.854" fill="#CDD6E0" width="18.234" height="2.662"/>
	<rect x="21.5" y="5.733" fill="#CDD6E0" width="7.518" height="2.662"/>
	<path fill="#CDD6E0" d="M33.887,0l9.846,9.846h-5.846c-2.209,0-4-1.791-4-4V0z"/>
	<path fill="#84DBFF" d="M12.436,17.786v-1.3c-1.508-0.238-2.896-0.921-4.168-2.049l1.656-2.014c0.926,0.808,1.764,1.325,2.512,1.55
		v-2.655c-1.248-0.32-2.162-0.751-2.744-1.292C9.109,9.487,8.818,8.708,8.818,7.693c0-1.016,0.332-1.853,0.998-2.512
		c0.666-0.66,1.537-1.054,2.619-1.185V3.123h1.889v0.909c1.188,0.166,2.369,0.658,3.547,1.478l-1.463,2.102
		c-0.746-0.533-1.443-0.89-2.084-1.068V9.11c1.283,0.332,2.23,0.777,2.842,1.335s0.918,1.349,0.918,2.371
		c0,1.021-0.342,1.865-1.025,2.529c-0.682,0.665-1.594,1.064-2.734,1.194v1.247H12.436z M12.436,6.472
		c-0.51,0.179-0.766,0.505-0.766,0.981c0,0.475,0.256,0.836,0.766,1.086V6.472z M15.232,12.958c0-0.249-0.064-0.457-0.195-0.623
		c-0.131-0.167-0.367-0.321-0.713-0.464v2.192C14.93,13.873,15.232,13.505,15.232,12.958"/>
</g>
</svg>
