<?xml version="1.0" encoding="utf-8"?>
<!-- Generator: Adobe Illustrator 18.0.0, SVG Export Plug-In . SVG Version: 6.00 Build 0)  -->
<!DOCTYPE svg PUBLIC "-//W3C//DTD SVG 1.1//EN" "http://www.w3.org/Graphics/SVG/1.1/DTD/svg11.dtd">
<svg version="1.1" id="Layer_1" xmlns="http://www.w3.org/2000/svg" xmlns:xlink="http://www.w3.org/1999/xlink" x="0px" y="0px"
	 viewBox="0 0 48 48" enable-background="new 0 0 48 48" xml:space="preserve">
<g>
	<rect x="5.9" y="37.7" fill="#40596B" width="3.2" height="9"/>
	<rect x="38.7" y="37.7" fill="#40596B" width="3.2" height="9"/>
	<rect x="37.5" y="46.7" fill="#40596B" width="5.6" height="1.3"/>
	<rect x="7.5" y="41.8" fill="#40596B" width="33.1" height="2.7"/>
	<rect x="4.7" y="46.7" fill="#40596B" width="5.6" height="1.3"/>
	<path fill="#CDD6E0" d="M22,34.9H7.3c0,0-3.2-13.9,0-17.1c2.6-2.6,12-2.6,14.6,0C25.1,21,22,34.9,22,34.9z"/>
	<path fill="#CDD6E0" d="M40.5,34.9H25.8c0,0-3.2-13.9,0-17.1c2.6-2.6,12-2.6,14.6,0C43.6,21,40.5,34.9,40.5,34.9z"/>
	<polygon fill="#334A5E" points="43.6,32.8 43.6,34.9 4.4,34.9 4.4,32.8 1.2,32.8 1.2,38.1 46.8,38.1 46.8,32.8 	"/>
	<path fill="#F1543F" d="M7.4,36.6h14.6c0.9,0,1.7-0.8,1.7-1.7h-18C5.7,35.9,6.4,36.6,7.4,36.6z"/>
	<path fill="#FF7058" d="M21.9,33.2H7.4c-0.9,0-1.7,0.8-1.7,1.7h18C23.6,34,22.9,33.2,21.9,33.2z"/>
	<path fill="#F1543F" d="M25.9,36.6h14.6c0.9,0,1.7-0.8,1.7-1.7h-18C24.1,35.9,24.9,36.6,25.9,36.6z"/>
	<path fill="#FF7058" d="M40.4,33.2H25.9c-0.9,0-1.7,0.8-1.7,1.7h18C42.1,34,41.4,33.2,40.4,33.2z"/>
	<g>
		<path fill="#40596B" d="M43.4,31.7h3.8c0.4,0,0.7,0.3,0.7,0.7l0,0c0,0.4-0.3,0.7-0.7,0.7h-3.8c-0.4,0-0.7-0.3-0.7-0.7l0,0
			C42.7,32.1,43,31.7,43.4,31.7z"/>
		<path fill="#40596B" d="M4.6,31.7H0.7c-0.4,0-0.7,0.3-0.7,0.7l0,0c0,0.4,0.3,0.7,0.7,0.7h3.8c0.4,0,0.7-0.3,0.7-0.7l0,0
			C5.3,32.1,5,31.7,4.6,31.7z"/>
	</g>
	<g>
		<circle fill="#40596B" cx="24.1" cy="5.5" r="5.5"/>
		<circle fill="#F2F2F2" cx="24.1" cy="5.5" r="3.9"/>
		<path fill="#ACB3BA" d="M24.5,3.5c0-0.2-0.1-0.3-0.3-0.3s-0.3,0.1-0.3,0.3v1.7h-1.2c-0.2,0-0.3,0.1-0.3,0.3c0,0.2,0.1,0.3,0.3,0.3
			h1.5c0.2,0,0.3-0.1,0.3-0.3l0,0l0,0V3.5z"/>
	</g>
</g>
</svg>
