<?xml version="1.0" encoding="utf-8"?>
<!-- Generator: Adobe Illustrator 18.0.0, SVG Export Plug-In . SVG Version: 6.00 Build 0)  -->
<!DOCTYPE svg PUBLIC "-//W3C//DTD SVG 1.1//EN" "http://www.w3.org/Graphics/SVG/1.1/DTD/svg11.dtd">
<svg version="1.1" id="Layer_1" xmlns="http://www.w3.org/2000/svg" xmlns:xlink="http://www.w3.org/1999/xlink" x="0px" y="0px"
	 viewBox="0 0 48 48" enable-background="new 0 0 48 48" xml:space="preserve">
<g>
	<g>
		<g>
			<rect x="19" y="36.1" fill="#344A5E" width="9.9" height="4.5"/>
		</g>
		<path fill="#415A6B" d="M45.9,2.1H2.1C0.9,2.1,0,3.1,0,4.2v29.9c0,1.1,0.9,2,2,2.1c14.7,0.5,29.3,0.5,44,0c1.1,0,2-0.9,2-2.1V4.2
			C48,3.1,47.1,2.1,45.9,2.1z"/>
		<rect x="4" y="6.1" fill="#8AD7F8" width="40" height="23.1"/>
		<circle fill="#344A5E" cx="24" cy="33" r="1.3"/>
		<polygon fill="#415A6B" points="14.7,40.7 33.3,40.7 35.9,45.9 12.1,45.9 		"/>
		<g>
			<g>
				<g>
					<path fill="#55C0EB" d="M22.2,11.7L10.2,23.8c-0.6,0.6-1.5,0.6-2.1,0c-0.6-0.6-0.6-1.5,0-2.1L20.1,9.6c0.6-0.6,1.5-0.6,2.1,0
						S22.8,11.1,22.2,11.7z"/>
				</g>
			</g>
			<g>
				<g>
					<path fill="#55C0EB" d="M23.6,18.1l-7,7c-0.6,0.6-1.5,0.6-2.1,0c-0.6-0.6-0.6-1.5,0-2.1l7-7c0.6-0.6,1.5-0.6,2.1,0
						C24.1,16.6,24.1,17.5,23.6,18.1z"/>
				</g>
			</g>
		</g>
	</g>
</g>
</svg>
