<?xml version="1.0" encoding="utf-8"?>
<!-- Generator: Adobe Illustrator 18.0.0, SVG Export Plug-In . SVG Version: 6.00 Build 0)  -->
<!DOCTYPE svg PUBLIC "-//W3C//DTD SVG 1.1//EN" "http://www.w3.org/Graphics/SVG/1.1/DTD/svg11.dtd">
<svg version="1.1" id="Layer_1" xmlns="http://www.w3.org/2000/svg" xmlns:xlink="http://www.w3.org/1999/xlink" x="0px" y="0px"
	 viewBox="0 0 48 48" enable-background="new 0 0 48 48" xml:space="preserve">
<g>
	<g>
		<path fill="#415A6B" d="M45,0H3C1.3,0,0,1.3,0,3v29.8c0,1.7,1.3,3,3,3h42c1.7,0,3-1.3,3-3V3C48,1.3,46.7,0,45,0z"/>
		<g>
			<g>
				<rect x="5" y="5" fill="#E8EAE9" width="38" height="25.8"/>
				<path fill="#66C6B9" d="M43,31.4H5c-0.3,0-0.6-0.3-0.6-0.6V5c0-0.3,0.3-0.6,0.6-0.6h38c0.3,0,0.6,0.3,0.6,0.6v25.8
					C43.6,31.1,43.3,31.4,43,31.4z M5.6,30.1h36.8V5.6H5.6V30.1z"/>
			</g>
		</g>
		<g>
			<g>
				<rect x="9" y="16.1" fill="#CED6E0" width="30" height="1.6"/>
				<rect x="9" y="21" fill="#CED6E0" width="30" height="1.6"/>
				<rect x="9" y="25.9" fill="#CED6E0" width="30" height="1.6"/>
			</g>
			<rect x="14.9" y="8.3" fill="#CED6E0" width="18.2" height="3.8"/>
		</g>
		<g>
			<g>
				<g>
					<polygon fill="#F3705A" points="12.1,34.7 16.8,48 18.7,44 22.7,45.9 18.8,34.7 					"/>
				</g>
				<g>
					<polygon fill="#F3705A" points="7.8,34.7 3.9,45.9 7.9,44 9.8,48 14.5,34.7 					"/>
				</g>
			</g>
			<g>
				<g>
					<circle fill="#FFD15C" cx="13.3" cy="30.2" r="8.7"/>
				</g>
				<g>
					<circle fill="#F7B64C" cx="13.3" cy="30.2" r="5.7"/>
				</g>
			</g>
		</g>
	</g>
</g>
</svg>
