<?xml version="1.0" encoding="utf-8"?>
<!-- Generator: Adobe Illustrator 18.0.0, SVG Export Plug-In . SVG Version: 6.00 Build 0)  -->
<!DOCTYPE svg PUBLIC "-//W3C//DTD SVG 1.1//EN" "http://www.w3.org/Graphics/SVG/1.1/DTD/svg11.dtd">
<svg version="1.1" id="Layer_1" xmlns="http://www.w3.org/2000/svg" xmlns:xlink="http://www.w3.org/1999/xlink" x="0px" y="0px"
	 viewBox="0 0 512 512" enable-background="new 0 0 512 512" xml:space="preserve">
<g>
	<g>
		<g>
			<circle fill="#F8B64C" cx="188.1" cy="32.5" r="30.5"/>
			<circle fill="#FFD15C" cx="188.1" cy="32.5" r="26.1"/>
			<circle fill="#F8B64C" cx="188.1" cy="32.5" r="21.1"/>
			<path fill="#FFD15C" d="M186.9,40.6v-7.2c-2.2-0.6-3.9-1.6-4.9-2.9c-1-1.3-1.6-2.9-1.6-4.7c0-1.9,0.6-3.4,1.8-4.7
				c1.2-1.3,2.7-2,4.7-2.2v-1.7h2.5v1.7c1.8,0.2,3.3,0.8,4.3,1.9c1.1,1,1.8,2.4,2.1,4.1l-4.3,0.6c-0.3-1.3-0.9-2.3-2.1-2.7v6.7
				c2.7,0.7,4.6,1.7,5.6,2.9c1,1.2,1.5,2.7,1.5,4.5c0,2.1-0.6,3.8-1.9,5.2c-1.2,1.4-3,2.3-5.2,2.6v3.2h-2.5v-3.1
				c-2-0.2-3.6-1-4.8-2.2c-1.2-1.2-2-3-2.4-5.2l4.5-0.5c0.2,0.9,0.5,1.7,1,2.4C185.7,39.8,186.3,40.3,186.9,40.6z M186.9,22.6
				c-0.7,0.2-1.2,0.6-1.6,1.2c-0.4,0.5-0.6,1.2-0.6,1.8c0,0.6,0.2,1.2,0.5,1.7s0.9,0.9,1.7,1.3V22.6z M189.4,40.8
				c0.9-0.2,1.5-0.6,2.1-1.2s0.8-1.4,0.8-2.2c0-0.8-0.2-1.4-0.7-2c-0.4-0.6-1.2-1-2.2-1.3V40.8z"/>
		</g>
		<polygon fill="none" points="205.1,56.1 205.1,55.9 205,55.7 		"/>
	</g>
	<g>
		<g>
			<circle fill="#F8B64C" cx="123.2" cy="78.5" r="27.3"/>
			<circle fill="#FFD15C" cx="123.2" cy="78.5" r="23.3"/>
			<circle fill="#F8B64C" cx="123.2" cy="78.5" r="18.8"/>
			<path fill="#FFD15C" d="M122.1,85.7v-6.4c-2-0.6-3.5-1.4-4.4-2.6c-0.9-1.2-1.4-2.6-1.4-4.2c0-1.7,0.5-3.1,1.6-4.2s2.5-1.8,4.2-2
				v-1.5h2.2v1.5c1.6,0.2,2.9,0.7,3.9,1.7c1,0.9,1.6,2.1,1.8,3.7l-3.9,0.5c-0.2-1.2-0.8-2-1.8-2.4v6c2.4,0.7,4.1,1.5,5,2.6
				c0.9,1.1,1.3,2.4,1.3,4.1c0,1.8-0.6,3.4-1.7,4.7c-1.1,1.3-2.7,2-4.7,2.3v2.9h-2.2v-2.8c-1.8-0.2-3.2-0.9-4.3-2
				c-1.1-1.1-1.8-2.7-2.1-4.7l4-0.4c0.2,0.8,0.5,1.5,0.9,2.1C121,85,121.5,85.5,122.1,85.7z M122.1,69.7c-0.6,0.2-1.1,0.6-1.4,1
				c-0.4,0.5-0.5,1-0.5,1.6c0,0.5,0.2,1,0.5,1.5c0.3,0.5,0.8,0.8,1.5,1.1V69.7z M124.3,85.9c0.8-0.1,1.4-0.5,1.9-1.1
				c0.5-0.6,0.7-1.2,0.7-2c0-0.7-0.2-1.3-0.6-1.8c-0.4-0.5-1.1-0.9-2-1.1V85.9z"/>
		</g>
		<polygon fill="none" points="138.4,99.6 138.4,99.4 138.3,99.2 		"/>
	</g>
	<g>
		<g>
			<circle fill="#F8B64C" cx="403.7" cy="97.3" r="27.3"/>
			<circle fill="#FFD15C" cx="403.7" cy="97.3" r="23.3"/>
			<circle fill="#F8B64C" cx="403.7" cy="97.3" r="18.8"/>
			<path fill="#FFD15C" d="M402.6,104.6v-6.4c-2-0.6-3.5-1.4-4.4-2.6c-0.9-1.2-1.4-2.6-1.4-4.2c0-1.7,0.5-3.1,1.6-4.2s2.5-1.8,4.2-2
				v-1.5h2.2v1.5c1.6,0.2,2.9,0.7,3.9,1.7c1,0.9,1.6,2.1,1.8,3.7l-3.9,0.5c-0.2-1.2-0.8-2-1.8-2.4v6c2.4,0.7,4.1,1.5,5,2.6
				s1.3,2.4,1.3,4.1c0,1.8-0.6,3.4-1.7,4.7s-2.7,2-4.7,2.3v2.9h-2.2v-2.8c-1.8-0.2-3.2-0.9-4.3-2c-1.1-1.1-1.8-2.7-2.1-4.7l4-0.4
				c0.2,0.8,0.5,1.5,0.9,2.1S402.1,104.3,402.6,104.6z M402.6,88.5c-0.6,0.2-1.1,0.6-1.4,1c-0.4,0.5-0.5,1-0.5,1.6
				c0,0.5,0.2,1,0.5,1.5s0.8,0.8,1.5,1.1V88.5z M404.8,104.8c0.8-0.1,1.4-0.5,1.9-1.1c0.5-0.6,0.7-1.2,0.7-2c0-0.7-0.2-1.3-0.6-1.8
				c-0.4-0.5-1.1-0.9-2-1.1V104.8z"/>
		</g>
		<polygon fill="none" points="418.9,118.4 419,118.2 418.8,118.1 		"/>
	</g>
	<g>
		<g>
			<circle fill="#F8B64C" cx="315.8" cy="48.5" r="46.5"/>
			<circle fill="#FFD15C" cx="315.8" cy="48.5" r="39.7"/>
			<circle fill="#F8B64C" cx="315.8" cy="48.5" r="32"/>
			<path fill="#FFD15C" d="M314,60.7V49.8c-3.4-1-5.9-2.4-7.5-4.4c-1.6-2-2.4-4.4-2.4-7.2c0-2.8,0.9-5.2,2.7-7.2s4.2-3,7.2-3.3v-2.6
				h3.8v2.6c2.8,0.3,5,1.3,6.6,2.8c1.6,1.6,2.7,3.6,3.1,6.2l-6.6,0.9c-0.4-2-1.4-3.4-3.1-4.2v10.2c4.2,1.1,7,2.6,8.5,4.4
				c1.5,1.8,2.3,4.1,2.3,6.9c0,3.1-0.9,5.8-2.8,7.9c-1.9,2.2-4.5,3.5-7.9,4v4.9H314V67c-3-0.4-5.4-1.5-7.3-3.4
				c-1.9-1.9-3.1-4.5-3.6-7.9l6.8-0.7c0.3,1.4,0.8,2.6,1.6,3.6C312.2,59.6,313.1,60.3,314,60.7z M314,33.4c-1,0.3-1.8,0.9-2.4,1.8
				c-0.6,0.8-0.9,1.8-0.9,2.8c0,0.9,0.3,1.8,0.8,2.6c0.6,0.8,1.4,1.4,2.5,1.9V33.4z M317.8,61.1c1.3-0.2,2.4-0.8,3.2-1.8
				c0.8-1,1.2-2.1,1.2-3.4c0-1.2-0.3-2.2-1-3c-0.7-0.8-1.8-1.5-3.4-1.9V61.1z"/>
		</g>
		<polygon fill="none" points="341.7,84.4 341.8,84 341.5,83.7 		"/>
	</g>
	<g>
		<path fill="#40596B" d="M266,393.7V80.8c0-5.5-4.5-10-10-10c-5.5,0-10,4.5-10,10v313c-2,2.3-3.3,5.2-3.3,8.5v52.2
			c0,15.9-12.9,28.8-28.8,28.8c-15.9,0-28.8-12.9-28.8-28.8v-13.1c0-7.4-6-13.3-13.3-13.3c-7.3,0-13.3,6-13.3,13.3v13.1
			c0,30.6,24.9,55.4,55.4,55.4s55.4-24.9,55.4-55.4v-52.2C269.4,399,268,396,266,393.7z"/>
		<path fill="#F8B64C" d="M368.8,300.8c-50.3-25.3-112.8-22.4-112.8-22.4s-62.4-2.9-112.9,22.4c0,0,18.4-193.5,112.9-203
			C350.4,107.3,368.8,300.8,368.8,300.8z"/>
		<g>
			<path fill="#F7C657" d="M365.8,299.4l1.2,1.4c0,0,0.3-0.2,0.7-0.5C367,300,366.4,299.7,365.8,299.4z"/>
			<path fill="#F7C657" d="M144.3,300.3c0.5,0.3,0.7,0.5,0.7,0.5l1.2-1.4C145.6,299.7,145,300,144.3,300.3z"/>
			<path fill="#FFD15C" d="M256.1,97.8c90.1,9.1,110.9,185.9,112.6,201.7c10.4-7.3,69.5-45.6,125.6-15.4
				C494.3,284.1,441.6,97.8,256.1,97.8z"/>
			<path fill="#FFD15C" d="M17.7,284.1c56.2-30.2,115.2,8.1,125.6,15.4c1.7-15.9,22.5-192.6,112.8-201.7
				C70.4,97.8,17.7,284.1,17.7,284.1z"/>
		</g>
	</g>
</g>
</svg>
