<?xml version="1.0" encoding="utf-8"?>
<!-- Generator: Adobe Illustrator 18.0.0, SVG Export Plug-In . SVG Version: 6.00 Build 0)  -->
<!DOCTYPE svg PUBLIC "-//W3C//DTD SVG 1.1//EN" "http://www.w3.org/Graphics/SVG/1.1/DTD/svg11.dtd">
<svg version="1.1" id="Layer_1" xmlns="http://www.w3.org/2000/svg" xmlns:xlink="http://www.w3.org/1999/xlink" x="0px" y="0px"
	 viewBox="0 0 48 48" enable-background="new 0 0 48 48" xml:space="preserve">
<g>
	<g>
		<g>
			<path fill="#FFD15C" d="M37.5,28.6c0.8-0.8,1.5-1.7,2.1-2.8c1.7-3.4,2.7-8.5,1-11.9c-0.7-1.4-1.7-2.7-2.2-4.3
				c-0.5-1.6-0.3-3.4-0.7-5.1c-0.4-1.7-1.5-3.4-3.2-3.4c0.8,0.9,1,2.3,0.9,3.5s-0.2,2.5,0,3.7c0.3,1.6,1.4,3,2,4.6
				c0.6,1.6,0.6,3.6-0.7,4.6c1.7-5.9-3.6-4.6-3.1-12.5c-3.1,3.1,0.5,7.9-2.9,9.5c0.7-2.2-0.4-4.5-0.8-6.7c-0.4-2-0.2-4.1,0.4-6.1
				c-1.3,0.5-2,2.1-2.1,3.5c-0.1,1.5,0.2,2.9,0.2,4.4c0,1.5-0.4,3.1-1.5,3.9c1-5.1-5.6-3-5.5-13.3c-4.6,7.6,0.3,10,0.7,11.5
				c0.4,1.5,0.1,3.4-1.2,3.9c0.8-0.8,0.8-2.2,0.3-3.2c-0.5-1-1.3-1.8-2-2.7C18.7,8.7,18,7.7,18,6.5c0-1.2,0.7-2.2,1.1-3.3
				C19.6,2.2,19.8,0.8,19,0c0.1,0.9-0.5,1.8-1.2,2.3c-0.7,0.6-1.5,1-2,1.8C15,5.2,15.1,6.7,15.2,8c0.1,1.6,0.3,3.2,0.4,4.8
				c-0.4-0.9-1.1-1.7-1.7-2.5c-0.6-0.8-1-1.8-1.1-2.8c0-1,0.5-2.1,1.4-2.4c-1.4-0.4-2.8,1.1-3.1,2.6s0,3.1,0.1,4.6
				c0.1,2.2-0.4,4.4-1.4,6.3c0.1-2.9-0.5-5.8-1.7-8.4c0.6,1.6,0,3.6-0.3,5.4c-0.4,1.7-1.1,3.4-1.3,5.1c-0.4,2.8,0.4,5.8,2.1,8H37.5z
				"/>
		</g>
		<g>
			<path fill="#F3705A" d="M32.1,18.3c-3.9,0-7.2,2.5-8.4,5.9c-1.2-3.4-4.5-5.9-8.4-5.9c-4.9,0-8.9,4-8.9,8.9
				C6.5,39.9,23.7,48,23.7,48S41,39.8,41,27.2C41,22.3,37,18.3,32.1,18.3z"/>
		</g>
	</g>
</g>
</svg>
