<?xml version="1.0" encoding="utf-8"?>
<!-- Generator: Adobe Illustrator 18.0.0, SVG Export Plug-In . SVG Version: 6.00 Build 0)  -->
<!DOCTYPE svg PUBLIC "-//W3C//DTD SVG 1.1//EN" "http://www.w3.org/Graphics/SVG/1.1/DTD/svg11.dtd">
<svg version="1.1" id="Layer_1" xmlns="http://www.w3.org/2000/svg" xmlns:xlink="http://www.w3.org/1999/xlink" x="0px" y="0px"
	 viewBox="0 0 48 48" enable-background="new 0 0 48 48" xml:space="preserve">
<g>
	<g>
		<g>
			<path fill="#FFD15C" d="M45.4,32.1H2.6c-1.4,0-2.6,1.2-2.6,2.6l0,0c0,1.4,1.2,2.6,2.6,2.6h42.8c1.4,0,2.6-1.2,2.6-2.6l0,0
				C48,33.2,46.8,32.1,45.4,32.1z"/>
		</g>
		<g>
			<g>
				<g>
					<g>
						<path fill="#FFD15C" d="M22.6,9.8c-0.2,0.9-0.9,1.5-1.5,1.3c-0.6-0.2-0.9-1-0.7-1.9c0.2-0.8,0.9-1.4,1.4-1.3
							C22.5,8.2,22.8,9,22.6,9.8z"/>
					</g>
					<g>
						<path fill="#FFD15C" d="M10.7,9.8c0.2,0.9,0.9,1.5,1.5,1.3c0.6-0.2,0.9-1,0.7-1.9c-0.2-0.8-0.9-1.4-1.4-1.3
							C10.8,8.2,10.5,9,10.7,9.8z"/>
					</g>
				</g>
				<g>
					<path fill="#344A5E" d="M22.2,6.3c0,1.4-0.1,2.8-0.8,4.4l-9.6,0.1c-0.6-1.5-0.7-3.1-0.7-4.4C11.2,2.5,13.5,0,16.8,0
						C20,0,22.3,2.3,22.2,6.3z"/>
				</g>
				<g>
					<path fill="#415A6B" d="M28.4,24.7l-0.9-5.7c-0.2-1.3-1.3-2.4-2.6-2.6l-8.2-1.3l-8.3,1.3C7,16.5,6,17.6,5.8,18.9l-0.9,5.7H28.4
						z"/>
				</g>
				<polygon fill="#CED6E0" points="18.6,24.7 19.6,14.7 13.7,14.7 14.7,24.7 				"/>
				<g>
					<g>
						<polygon fill="#F05540" points="17.5,19.4 18.4,18.5 16.6,16.7 14.8,18.5 15.8,19.4 						"/>
					</g>
					<g>
						<polygon fill="#F3705A" points="18.4,24.7 17.5,19.4 15.8,19.4 14.9,24.7 						"/>
					</g>
				</g>
				<g>
					<path fill="#F7B64C" d="M16.6,16.7L16.6,16.7c1.3-0.6,2.2-1.4,2.7-2.4v-2.5H14v2.5C14.7,15.2,15.6,16,16.6,16.7z"/>
				</g>
				<g>
					<g>
						<path fill="#FFD15C" d="M20.4,4.7c-1,1.2-2.5,2-4.2,2c-1.4,0-2.8-0.6-3.8-1.5c-0.6,1-1,2.3-1,3.7c0,3.4,2.3,6.2,5.1,6.2
							c2.8,0,5.1-2.8,5.1-6.2C21.7,7.2,21.2,5.8,20.4,4.7z"/>
					</g>
				</g>
				<g>
					<g>
						<path fill="#F3F3F3" d="M20,15.5L18.6,19l-1.9-2.4c1.1-0.7,2-1.5,2.7-2.4L20,15.5z"/>
					</g>
					<g>
						<path fill="#F3F3F3" d="M13.3,15.5l1.4,3.5l1.9-2.4c-1.1-0.7-2-1.5-2.7-2.4L13.3,15.5z"/>
					</g>
				</g>
				<g>
					<g>
						<polygon fill="#344A5E" points="22.4,24.7 23.9,22.1 20.9,20.9 24.5,19.2 19.6,14.7 18,24.7 						"/>
					</g>
					<g>
						<polygon fill="#344A5E" points="9.3,22.1 10.9,24.7 15.2,24.7 13.7,14.7 8.7,19.2 12.4,20.9 						"/>
					</g>
				</g>
			</g>
			<g>
				<path fill="#F3F3F3" d="M28.1,20.1h-23c-1.1,0-2,1-1.8,2.1l1.3,8.3c0.1,0.9,0.9,1.5,1.8,1.5h20.4c0.9,0,1.7-0.7,1.8-1.5l1.3-8.3
					C30.1,21.2,29.3,20.1,28.1,20.1z"/>
			</g>
			<g>
				<ellipse fill="#E8EAE9" cx="16.6" cy="26.1" rx="3.2" ry="1.8"/>
			</g>
		</g>
		<g>
			<rect x="4.9" y="37.3" fill="#F7B64C" width="38.1" height="10.7"/>
		</g>
		<g>
			<polygon fill="#E8EAE9" points="33,30.6 33.5,32.1 43.3,32.1 43.9,30.6 			"/>
		</g>
		<path fill="#66C6B9" d="M43.5,27.1c-0.2-0.3-0.5-0.5-1-0.5c0,0-0.1,0-0.1,0c0-0.1,0-0.3,0-0.4h-8.3c0.1,2,1.2,3.7,2.8,4.4h2.6
			c0.6-0.2,1.1-0.6,1.5-1.1c0.1,0,0.2,0,0.3,0c0.8,0,1.7-0.6,2.1-1.3v0C43.7,27.8,43.7,27.4,43.5,27.1z M43,28
			c-0.2,0.5-0.8,0.9-1.4,1c0.3-0.5,0.6-1.1,0.7-1.7c0.1,0,0.1,0,0.2,0c0.2,0,0.4,0.1,0.5,0.2C43.1,27.6,43.1,27.8,43,28z"/>
		<g>
			<path fill="#415A6B" d="M37.2,23.3c-0.2,0-0.3,0.1-0.3,0.3v1.4c0,0.2,0.1,0.3,0.3,0.3c0.2,0,0.3-0.1,0.3-0.3v-1.4
				C37.4,23.4,37.3,23.3,37.2,23.3z"/>
			<path fill="#415A6B" d="M38.3,22.3c-0.2,0-0.3,0.1-0.3,0.3v1.4c0,0.2,0.1,0.3,0.3,0.3c0.2,0,0.3-0.1,0.3-0.3v-1.4
				C38.6,22.4,38.5,22.3,38.3,22.3z"/>
			<path fill="#415A6B" d="M39.5,23.3c-0.2,0-0.3,0.1-0.3,0.3v1.4c0,0.2,0.1,0.3,0.3,0.3c0.2,0,0.3-0.1,0.3-0.3v-1.4
				C39.8,23.4,39.6,23.3,39.5,23.3z"/>
		</g>
	</g>
</g>
</svg>
