<?xml version="1.0" encoding="utf-8"?>
<!-- Generator: Adobe Illustrator 18.0.0, SVG Export Plug-In . SVG Version: 6.00 Build 0)  -->
<!DOCTYPE svg PUBLIC "-//W3C//DTD SVG 1.1//EN" "http://www.w3.org/Graphics/SVG/1.1/DTD/svg11.dtd">
<svg version="1.1" id="Layer_1" xmlns="http://www.w3.org/2000/svg" xmlns:xlink="http://www.w3.org/1999/xlink" x="0px" y="0px"
	 viewBox="0 0 512 512" enable-background="new 0 0 512 512" xml:space="preserve">
<g>
	<path fill="#FF7058" d="M508.2,171.6v-77c0-11.6-9.4-21-21-21H24.8c-11.6,0-21,9.4-21,21v77H508.2z"/>
	<path fill="#F2F2F2" d="M3.8,489c0,11.6,9.4,21,21,21h462.4c11.6,0,21-9.4,21-21V171.6H3.8V489z"/>
	<rect x="45.8" y="213.6" fill="#FFFFFF" width="420.4" height="254.3"/>
	<rect x="71" y="237.8" fill="#84DBFF" width="141.4" height="145"/>
	<path fill="#FFFFFF" d="M314.1,129.6H197.9c-3.9,0-7.1-3.2-7.1-7.1l0,0c0-3.9,3.2-7.1,7.1-7.1h116.2c3.9,0,7.1,3.2,7.1,7.1l0,0
		C321.2,126.5,318,129.6,314.1,129.6z"/>
	<path fill="#40596B" d="M306.8,122.6H205.2V6.8c0-2.7,2.2-4.8,4.8-4.8l91.9,0c2.7,0,4.8,2.2,4.8,4.8V122.6z"/>
	<circle fill="#FFFFFF" cx="256" cy="50.7" r="22.8"/>
	<rect x="71" y="420.9" fill="#CDD6E0" width="370.1" height="22.9"/>
	<rect x="260" y="359.9" fill="#CDD6E0" width="181" height="22.9"/>
	<rect x="260" y="298.8" fill="#CDD6E0" width="181" height="22.9"/>
	<rect x="260" y="237.8" fill="#84DBFF" width="181" height="22.9"/>
	<circle fill="#FFFFFF" cx="141.7" cy="276.8" r="31.2"/>
	<path fill="#FFFFFF" d="M164.7,308.1c-6.5,4.8-14.4,7.6-23,7.6s-16.6-2.9-23-7.6c-15.4,5.7-28.2,17-35.8,31.4
		c11.2,21.1,33.3,35.5,58.9,35.5c25.5,0,47.7-14.4,58.9-35.5C192.9,325,180.1,313.8,164.7,308.1z"/>
</g>
</svg>
