<?xml version="1.0" encoding="utf-8"?>
<!-- Generator: Adobe Illustrator 18.0.0, SVG Export Plug-In . SVG Version: 6.00 Build 0)  -->
<!DOCTYPE svg PUBLIC "-//W3C//DTD SVG 1.1//EN" "http://www.w3.org/Graphics/SVG/1.1/DTD/svg11.dtd">
<svg version="1.1" id="Layer_1" xmlns="http://www.w3.org/2000/svg" xmlns:xlink="http://www.w3.org/1999/xlink" x="0px" y="0px"
	 viewBox="0 0 48 48" enable-background="new 0 0 48 48" xml:space="preserve">
<g>
	<g>
		<g>
			<g>
				<g>
					<g>
						<polygon fill="#66C6B9" points="29.1,9.6 27.3,13.3 23.2,13.9 26.2,16.7 25.5,20.8 29.1,18.9 32.8,20.8 32.1,16.7 35,13.9 
							31,13.3 						"/>
					</g>
				</g>
				<g>
					<g>
						<polygon fill="#66C6B9" points="5.9,9.6 4.1,13.3 0,13.9 2.9,16.7 2.3,20.8 5.9,18.9 9.5,20.8 8.8,16.7 11.8,13.9 7.7,13.3 
													"/>
					</g>
				</g>
			</g>
			<g>
				<polygon fill="#F3705A" points="17.5,3.5 14.7,9.2 8.4,10.1 13,14.5 11.9,20.8 17.5,17.9 23.1,20.8 22.1,14.5 26.6,10.1 
					20.3,9.2 				"/>
			</g>
		</g>
		<g>
			<g>
				<g>
					<g>
						<path fill="#FFD15C" d="M0,25.2c0,0,3.6,2.4,4.7,2.9c0,0,2.8,2.2,4.5,2.8c1.7,0.7,6.7,3,6.7,3s1.4,1.9,4.3,1.8
							c2.9-0.1,9.3,0.2,9.3,0.2s5.6,0.8,7,1.4l7.8-7.6l-7.5-4.1c-2.4-1.3-5-2-7.8-1.9c-1.6,0.1-3.3,0.4-4.7,1.3c0,0-4.2,1-7.6,1.2
							s-4.5,1-4.5,1s-0.9-0.6-2.2-0.5c0,0-2-1.3-3.7-1.3c0,0-3.2-2-4.8-1.6C0,24.2,0,25.2,0,25.2z"/>
					</g>
					<g>
						<path fill="#F7B64C" d="M26.8,31.8l-2.3-0.3l-1.2-0.2l-0.6-0.1c-0.2,0-0.4-0.1-0.6-0.1c-0.4,0-0.8,0-1.2,0l-1.2,0
							c-0.8,0-1.6,0-2.4,0.1h0c-0.4,0-0.8-0.1-1.2-0.1L14.9,31l-2.5-0.2h0c-0.2,0-0.4-0.1-0.6-0.3c-0.2-0.1-0.3-0.3-0.5-0.5
							c-0.2-0.4-0.2-0.8-0.2-1.3c0-0.1,0-0.2,0.1-0.3c0-0.1,0.1-0.2,0.1-0.3c0.1-0.2,0.2-0.4,0.3-0.5c0.1-0.2,0.2-0.3,0.4-0.5
							c0.1,0,0.1,0,0.1,0l0,0c-0.1,0.2-0.3,0.3-0.4,0.5c-0.1,0.2-0.2,0.3-0.3,0.5c-0.1,0.2-0.1,0.4-0.1,0.6c-0.1,0.4,0,0.8,0.2,1.2
							c0.1,0.2,0.2,0.3,0.4,0.4c0.2,0.1,0.3,0.2,0.5,0.2c0.8,0,1.6,0.1,2.5,0.1l2.5,0.1h0c0.8,0,1.6,0,2.4,0l1.2,0
							c0.4,0,0.8,0,1.2,0.1c0.2,0,0.4,0.1,0.6,0.1l0.6,0.1l1.2,0.2L26.8,31.8z"/>
					</g>
					<g>
						<path fill="#F3F3F3" d="M15.1,29c0,0.5-0.1,0.8-0.6,1.1c-0.5,0.2-1.5,0.2-1.7,0.2c-1,0-1-2.6,0-2.6c0.4,0,1.3-0.1,1.6-0.1
							C14.8,27.7,15.1,28.4,15.1,29z"/>
					</g>
				</g>
				<g>
					<g>
						<polygon fill="#E8EAE9" points="42.8,27.1 39.2,40 33.6,38.5 37.1,25.6 						"/>
					</g>
					<g>
						<polygon fill="#415A6B" points="48,26.8 43.2,44.5 34.7,42.2 39.6,24.5 						"/>
					</g>
				</g>
			</g>
			<g>
				<path fill="#F3F3F3" d="M2.3,26.7c0,0,0.4-0.7,0.1-1c-0.3-0.3-2-1-2.4-0.5"/>
			</g>
		</g>
	</g>
</g>
</svg>
