<?xml version="1.0" encoding="utf-8"?>
<!-- Generator: Adobe Illustrator 18.0.0, SVG Export Plug-In . SVG Version: 6.00 Build 0)  -->
<!DOCTYPE svg PUBLIC "-//W3C//DTD SVG 1.1//EN" "http://www.w3.org/Graphics/SVG/1.1/DTD/svg11.dtd">
<svg version="1.1" id="Layer_1" xmlns="http://www.w3.org/2000/svg" xmlns:xlink="http://www.w3.org/1999/xlink" x="0px" y="0px"
	 viewBox="0 0 48 48" enable-background="new 0 0 48 48" xml:space="preserve">
<g>
	<g>
		<g>
			<g>
				<polygon fill="#F3705A" points="7.6,0 9.9,4.7 15.1,5.5 11.3,9.2 12.2,14.4 7.6,11.9 2.9,14.4 3.8,9.2 0,5.5 5.2,4.7 				"/>
			</g>
			<g>
				<polygon fill="#F3705A" points="24,0 26.3,4.7 31.6,5.5 27.8,9.2 28.7,14.4 24,11.9 19.3,14.4 20.2,9.2 16.4,5.5 21.7,4.7 				
					"/>
			</g>
			<g>
				<polygon fill="#F3705A" points="40.4,0 42.8,4.7 48,5.5 44.2,9.2 45.1,14.4 40.4,11.9 35.8,14.4 36.7,9.2 32.9,5.5 38.1,4.7 
									"/>
			</g>
		</g>
		<g>
			<g>
				<g>
					<path fill="#FFD15C" d="M25.8,46.5c-0.3-4.5-1.8-8.4-4.4-12.8c-0.4-0.6-0.5-1.3-0.5-2.1l0-5.9c0-0.7,0.3-1.4,0.9-2l0.2-0.2
						c0,0,0.2-10.6,0.4-11.7c0,0-0.4-5.1,1.8-5.3c0.8,0,1.9-0.2,1.8,4.9l0.4,6.6c0,0,0.9-0.9,2.1-0.7c1.2,0.2,1.7,1.8,1.7,2.1
						c0,0,0.9-1.1,2.4-0.5c1.5,0.6,2,3.8,2,3.8s1-3,3.2-1.3c0,0,1.1,0.9,0.9,2.8l0.4,3.4v3.8c0,1.8-0.3,3.5-0.9,5.2l0,0l0.1,9.9
						H25.8z"/>
				</g>
				<g>
					<g>
						<path fill="#F7B64C" d="M22.9,16.7c0,0,0.1-0.1,0.3-0.2c0.2-0.1,0.5-0.2,0.8-0.2c0.3,0,0.6,0,0.8,0c0.1,0,0.2,0,0.3,0
							c0.1,0,0.1,0,0.1,0s0,0-0.1,0.1c-0.1,0-0.1,0.1-0.2,0.1c-0.1,0-0.2,0.1-0.4,0.1c-0.1,0-0.3,0-0.4,0c-0.3,0-0.6,0.1-0.8,0.1
							C23,16.7,22.9,16.7,22.9,16.7z"/>
					</g>
					<g>
						<path fill="#F7B64C" d="M23.4,17.1c0,0,0.1,0,0.3,0c0.2,0,0.4,0,0.7-0.1c0.1,0,0.1,0,0.2,0c0.1,0,0.1,0,0.2-0.1
							c0.1,0,0.2-0.1,0.3-0.1c0.2-0.1,0.3-0.1,0.3-0.1s-0.1,0.1-0.3,0.2c-0.1,0.1-0.2,0.1-0.3,0.2c-0.1,0-0.1,0.1-0.2,0.1
							c-0.1,0-0.1,0-0.2,0.1c-0.3,0.1-0.5,0-0.7,0C23.5,17.1,23.4,17.1,23.4,17.1z"/>
					</g>
					<g>
						<path fill="#F7B64C" d="M22.8,17.2c0,0,0.1,0,0.2,0.1c0.1,0,0.3,0.1,0.5,0.1c0.2,0,0.4,0,0.5,0c0.1,0,0.2,0,0.2,0
							s-0.1,0-0.2,0c-0.1,0-0.3,0-0.5,0c-0.2,0-0.4-0.1-0.5-0.1C22.9,17.2,22.8,17.2,22.8,17.2z"/>
					</g>
					<g>
						<path fill="#F7B64C" d="M23.1,15.9C23.1,15.9,23.1,15.9,23.1,15.9c0.1-0.1,0.2-0.2,0.3-0.3c0.1-0.1,0.2-0.1,0.4-0.2
							c0.1,0,0.1-0.1,0.2-0.1c0.1,0,0.2,0,0.2-0.1c0.1,0,0.2,0,0.2,0c0.1,0,0.2,0,0.2,0c0.2,0,0.3,0,0.4,0c0.1,0,0.2,0,0.3,0.1
							c0.1,0,0.1,0,0.1,0s0,0-0.1,0c-0.1,0-0.2,0-0.3,0c-0.1,0-0.1,0-0.2,0c-0.1,0-0.1,0-0.2,0c-0.1,0-0.3,0-0.4,0.1
							c-0.1,0-0.3,0.1-0.4,0.1c-0.1,0-0.1,0.1-0.2,0.1c-0.1,0-0.1,0.1-0.2,0.1C23.3,15.8,23.2,15.8,23.1,15.9
							C23.1,15.9,23.1,15.9,23.1,15.9z"/>
					</g>
				</g>
				<g>
					<path fill="#F7B64C" d="M26.4,19.9l0.1,0.9c0,0.2,0,0.3,0,0.5c0,0.2,0,0.3,0.1,0.5c0-0.2,0-0.3,0-0.5c0-0.2,0-0.3,0-0.5l0-0.9
						c0-0.6-0.1-1.2-0.1-1.8c0-0.1,0-0.1,0.1-0.2C26.4,18,26.3,18,26.3,18l0,0l0,0C26.3,18.7,26.4,19.3,26.4,19.9z"/>
					<path fill="#F7B64C" d="M30.2,20.9l0.1,0.7c0,0.2,0.1,0.5,0.1,0.7c0-0.2,0-0.5,0-0.7l0-0.7c0-0.5-0.1-1-0.1-1.4
						c0-0.1,0-0.1,0-0.2c-0.1,0.1-0.2,0.2-0.2,0.2c0,0,0,0,0,0l0,0l0,0C30.1,19.9,30.2,20.4,30.2,20.9z"/>
					<path fill="#F7B64C" d="M34.6,22.9c0,0.2,0,0.3,0,0.5c0,0.1,0,0.3,0,0.3c0,0.1,0,0.1,0,0.1s0,0,0-0.1c0-0.1,0-0.2,0-0.3
						c0-0.1,0-0.3,0-0.5c0-0.1,0-0.2,0-0.3c0-0.1,0-0.2,0-0.2c-0.1,0.2-0.1,0.4-0.2,0.4C34.6,22.8,34.6,22.8,34.6,22.9z"/>
				</g>
			</g>
			<g>
				<rect x="23" y="38.1" fill="#F3F3F3" width="16.1" height="3.2"/>
				<rect x="21.7" y="40.7" fill="#415A6B" width="18.7" height="7.3"/>
				<g>
					<circle fill="#344A5E" cx="25.1" cy="43.6" r="1.4"/>
				</g>
			</g>
			<g>
				<path fill="#F3F3F3" d="M23.2,7.7c0,0-0.1-0.4,0.5-0.6C24.2,6.9,25,7.1,25,7.1s0.4,0.1,0.4,0.6c0,0.5,0.1,1.5-0.5,1.4
					c-0.6,0-0.8,0-0.8,0s-0.6,0.1-0.7-0.4L23.2,7.7z"/>
			</g>
		</g>
	</g>
</g>
</svg>
