<?xml version="1.0" encoding="utf-8"?>
<!-- Generator: Adobe Illustrator 18.0.0, SVG Export Plug-In . SVG Version: 6.00 Build 0)  -->
<!DOCTYPE svg PUBLIC "-//W3C//DTD SVG 1.1//EN" "http://www.w3.org/Graphics/SVG/1.1/DTD/svg11.dtd">
<svg version="1.1" id="Layer_1" xmlns="http://www.w3.org/2000/svg" xmlns:xlink="http://www.w3.org/1999/xlink" x="0px" y="0px"
	 viewBox="0 0 48 48" enable-background="new 0 0 48 48" xml:space="preserve">
<g>
	<g>
		<g>
			<g>
				<path fill="#F3F3F3" d="M46.8,20.5c0,5.7-2.4,10.9-6.1,14.6c-3.5,3.4-5.4,8.1-5.7,12.9H13.2v-5.5h-4c-1.8,0-3.3-1.5-3.3-3.3v-7
					H2.5c-1,0-1.7-1-1.2-1.9l4.6-9.8c0-5.7,2.3-10.8,6-14.5c3.7-3.7,8.8-6,14.5-6C32,0,37.1,2.3,40.8,6
					C44.6,9.7,46.8,14.8,46.8,20.5z"/>
			</g>
		</g>
		<g>
			<g>
				<path fill="#F3705A" d="M11.4,24.6c-1-3.6,4.5-8,12.8-10.2c8.2-2.2,15.2-1.1,16.2,2.5l-1.9,0.5c-0.6-2.1-6.6-3-13.8-1.1
					c-7.2,1.9-11.9,5.7-11.4,7.8L11.4,24.6z"/>
			</g>
			<g>
				<g>
					<g>
						<path fill="#4EC0AA" d="M36.4,31.3L35,29.9c1.5-1.5-0.7-7.2-5.9-12.5s-10.9-7.5-12.5-5.9l-1.4-1.4c2.6-2.6,9.2-0.1,15.2,5.9
							S39.1,28.6,36.4,31.3z"/>
					</g>
					<g>
						<g>
							<g>
								<g>
									<path fill="#FFD15C" d="M22,35.2l0.5-1.9c2.1,0.6,5.9-4.2,7.8-11.4c0.9-3.5,1.3-6.9,1-9.6c-0.3-2.3-1-3.9-2.1-4.2l0.5-1.9
										c1.9,0.5,3.1,2.6,3.5,5.8c0.4,2.9,0,6.6-1,10.3C30,30.6,25.6,36.1,22,35.2z"/>
								</g>
								<g>
									<path fill="none" stroke="#FFD15C" stroke-miterlimit="10" d="M35.7,30.6"/>
								</g>
								<g>
									<path fill="none" stroke="#FFD15C" stroke-miterlimit="10" d="M15.9,10.8"/>
								</g>
							</g>
						</g>
						<g>
							<g>
								<path fill="#F3705A" d="M12.3,26.1c-0.5-0.5-0.8-1-0.9-1.6l1.9-0.5c0.3,1,1.8,1.8,4.2,2.1c2.7,0.3,6.1,0,9.6-1
									c7.2-1.9,11.9-5.7,11.4-7.8l1.9-0.5c1,3.6-4.5,8-12.8,10.2c-3.7,1-7.4,1.4-10.3,1C15,27.8,13.3,27.1,12.3,26.1z"/>
							</g>
						</g>
						<g>
							<g>
								<path fill="#4EC0AA" d="M21.2,25.3c-6-6-8.6-12.6-5.9-15.2l1.4,1.4c-1.5,1.5,0.7,7.2,5.9,12.5s10.9,7.5,12.5,5.9l1.4,1.4
									C33.8,33.9,27.2,31.4,21.2,25.3z"/>
							</g>
						</g>
						<g>
							<path fill="#FFD15C" d="M20.4,34.2c-2.3-2.3-2.8-8.3-0.9-15.2c2.2-8.2,6.6-13.7,10.2-12.8l-0.5,1.9
								c-2.1-0.6-5.9,4.2-7.8,11.4c-1.9,7.2-1,13.2,1.1,13.8L22,35.2C21.4,35,20.9,34.7,20.4,34.2z"/>
						</g>
					</g>
				</g>
			</g>
		</g>
	</g>
</g>
</svg>
