<?xml version="1.0" encoding="utf-8"?>
<!-- Generator: Adobe Illustrator 18.0.0, SVG Export Plug-In . SVG Version: 6.00 Build 0)  -->
<!DOCTYPE svg PUBLIC "-//W3C//DTD SVG 1.1//EN" "http://www.w3.org/Graphics/SVG/1.1/DTD/svg11.dtd">
<svg version="1.1" id="Layer_1" xmlns="http://www.w3.org/2000/svg" xmlns:xlink="http://www.w3.org/1999/xlink" x="0px" y="0px"
	 viewBox="0 0 48 48" enable-background="new 0 0 48 48" xml:space="preserve">
<g>
	<g>
		<g>
			<g>
				<g>
					<g>
						<path fill="#425A6B" d="M15.6,41.2C15.6,41.2,15.6,41.2,15.6,41.2c-0.2,0-0.3-0.2-0.3-0.3l3.4-15.6c0-0.1,0.2-0.2,0.3-0.2
							c0.1,0,0.2,0.2,0.2,0.3L15.9,41C15.9,41.1,15.7,41.2,15.6,41.2z"/>
					</g>
				</g>
			</g>
		</g>
		<g>
			<g>
				<g>
					<g>
						<path fill="#425A6B" d="M13.9,48C13.9,48,13.9,48,13.9,48c-0.2,0-0.3-0.1-0.3-0.3l1.2-21.2c0-0.1,0.1-0.3,0.3-0.3
							c0.1,0,0.3,0.1,0.3,0.3l-1.2,21.2C14.2,47.9,14,48,13.9,48z"/>
					</g>
				</g>
			</g>
		</g>
		<g>
			<g>
				<g>
					<g>
						<path fill="#425A6B" d="M30.8,44.2c-0.1,0-0.2-0.1-0.3-0.2l-4.7-19.3c0-0.1,0.1-0.3,0.2-0.3c0.1,0,0.3,0.1,0.3,0.2l4.7,19.3
							C31.1,44,31,44.1,30.8,44.2C30.9,44.2,30.8,44.2,30.8,44.2z"/>
					</g>
				</g>
			</g>
		</g>
	</g>
	<g>
		<g>
			<g>
				<g>
					<path fill="#F3F3F3" d="M12.6,5.2l1.7,22l17-1.2l-3-21.8C28.3,4.2,14.2,3.7,12.6,5.2z"/>
				</g>
			</g>
		</g>
	</g>
	<g>
		<g>
			<g>
				<g>
					<g>
						<path fill="#67C5B8" d="M26,3.4H12.6c-0.5,0-0.9,0.4-0.9,1l0,0c0,0.5,0.4,0.8,0.9,0.8h14.5L26,3.4z"/>
					</g>
				</g>
			</g>
		</g>
		<g>
			<g>
				<g>
					<g>
						<path fill="#67C5B8" d="M27.6,25.8L14.2,27c-0.5,0-0.9,0.5-0.8,1l0,0c0.1,0.5,0.5,0.8,1,0.8l14.4-1.3L27.6,25.8z"/>
					</g>
				</g>
			</g>
		</g>
	</g>
	<g>
		<g>
			<g>
				<g>
					<path fill="#FFD15C" d="M29.7,30.9c0,0-0.5,1.8-0.5,2.9c0.1,1.1-1.2,4.3-1.4,5.1c-0.2,0.8-0.2,2.7-0.2,2.7s-1.7,2.9-2.7,3
						c-1,0.2-1.2-0.4-1.2-0.4l0.3-0.6c0,0,0.5-0.3,0.6-0.8c0.2-0.6,0.8-1.6,0.9-2c0.1-0.4,0.5-3.7,0.6-4.4c0.1-0.7,0.3-4.3,0.8-5.8
						c0.6-1.5,0.6-1.5,0.6-1.5l2.1,1.8V30.9z"/>
				</g>
			</g>
		</g>
	</g>
	<g>
		<g>
			<g>
				<g>
					<path fill="#FFD15C" d="M34.7,30.1c0,0,0.3,1.1,0.7,2c0.4,0.9,0.5,2.6,0.4,3.8c-0.1,1.2-0.6,3.4-0.4,3.9
						c0.1,0.5,0.1,0.5,0.1,0.5l-1.3,2l-1,1l-0.7-0.4c0,0,0.7-0.6,0.8-1c0.1-0.4,0.6-1.6,0.6-2.1c0-0.5,0.2-1.7,0.1-2.1
						c-0.1-0.4-0.8-3.5-0.9-4.1c-0.1-0.6-0.9-3.2-0.9-4.2c0-1,2.7,0.7,2.7,0.7"/>
				</g>
			</g>
		</g>
	</g>
	<g>
		<g>
			<g>
				<g>
					<path fill="#F5B54C" d="M17.6,8.6c0,0-0.3-0.6,0-0.8l0.3,0.5c0.1,0.1,0.2,0.2,0.3,0.3l0.5,0.3c0.1,0.1,0.2,0.2,0.3,0.4l0.2,0.9
						L18,9.1L17.6,8.6z"/>
				</g>
			</g>
		</g>
	</g>
	<g>
		<g>
			<g>
				<g>
					<g>
						<path fill="#425A6B" d="M19.2,9.1l-2.5-1c-0.1-0.1-0.3-0.1-0.5,0l0,0l0,0c0.1,0.1,0.2,0.3,0.3,0.3l2.5,1L19.2,9.1z"/>
					</g>
				</g>
			</g>
		</g>
		<g>
			<g>
				<g>
					<g>
						<path fill="#F26F5A" d="M19.4,9.3L19.4,9.3c0,0.1-0.1,0.1-0.2,0.1l-0.2-0.1l0.1-0.2l0.2,0.1C19.4,9.2,19.5,9.3,19.4,9.3z"/>
					</g>
				</g>
			</g>
		</g>
	</g>
	<g>
		<g>
			<g>
				<g>
					<path fill="#8AD6F7" d="M21,12.6c0,0-0.8,0.5-0.9,1.4c-0.1,0.9,0.3,1.3,0.3,1.3s1.9,1.2,2.3,1.3c0.4,0,1.2-0.4,1.7-0.7
						c0.5-0.3,2.1-1.4,2.1-1.4s-0.2,1.1,0.2,1.6c0.4,0.5,0.6,1.2,0.6,1.8c0,0,1.3,0.3,1.9,0.6c0.6,0.3,1.6,0,2.4-0.2
						c0.8-0.2,1.9-0.6,1.9-0.6s-0.2-2.1-0.2-2.5c-0.1-0.4-0.1-2.7,0-3c0.1-0.3,0.7-2.7,0.4-3.7c-0.3-1-2.1-1.8-2.9-1.5
						c-0.8,0.2-2.3,0.4-2.3,0.4l-1.7,1.3c0,0-1,0.6-1.9,2c-1,1.4-1.9,3-1.9,3s0,0.3-0.3,0S21,12.6,21,12.6z"/>
				</g>
			</g>
		</g>
	</g>
	<g>
		<g>
			<g>
				<g>
					<path fill="#FFD15C" d="M30.3,6.6l-2.7,0.8l-0.3-1.5c0,0-0.5,0.1-1,0.2c-0.6,0.1-0.6-0.2-0.6-0.4c0-0.2-0.2-0.4-0.2-0.4
						c0-0.2,0.1-0.2,0.1-0.2S25.3,5,25.3,4.9c0-0.1,0-0.1,0.1-0.2c0-0.1,0-0.2-0.1-0.2c-0.1-0.1-0.1-0.1-0.2-0.2
						C24.9,4.3,25,4.1,25,4.1l0.3-0.8c0.1-0.2,0.1-0.4,0-0.5c0-0.7,0.3-1.7,0.3-1.7l0.5-0.3h0.1l3.3,1.6c0,0,0.2,0.5,0.1,1.8
						c0,0.7,0.2,1.3,0.5,1.8C30.2,6.3,30.3,6.6,30.3,6.6z"/>
				</g>
			</g>
		</g>
	</g>
	<g>
		<g>
			<g>
				<g>
					<g>
						<polyline fill="#344A5E" points="29.8,1.2 30.1,0.8 30.6,1 30.5,1.6 30.1,1.7 29.8,1.2 						"/>
					</g>
				</g>
			</g>
		</g>
		<g>
			<g>
				<g>
					<g>
						<path fill="#344A5E" d="M29.8,4.5c0.2-0.3,1.2-1.7,0.7-2.8c-0.5-1.2-0.8-1.4-1.5-1.5c-0.7-0.2-2.6-0.2-3.5,1
							c0,0,0.9,0.2,0.9,1.5c0,0,0.7-0.1,0.6,0.5c0,0.3,0,0.4,0,0.5h0.3c0-0.2,0.2-0.9,1.1-0.4C28.7,3.3,29,3.6,29.1,4
							c0.2,0.5,0.5,1.3,0.8,1.7c0,0-0.1-0.5-0.1-0.9C29.8,4.7,29.8,4.5,29.8,4.5z"/>
					</g>
				</g>
			</g>
		</g>
	</g>
	<g>
		<g>
			<g>
				<g>
					
						<ellipse transform="matrix(0.9807 0.1956 -0.1956 0.9807 1.2482 -5.4078)" fill="#FFD15C" cx="28" cy="3.6" rx="0.6" ry="0.8"/>
				</g>
			</g>
		</g>
	</g>
	<g>
		<g>
			<g>
				<g>
					<path fill="#F5B54C" d="M28.3,4.2c0,0-0.3,1.4-1,2l-0.1-0.4c-0.4,0.1-0.7,0.2-1,0.2C26.2,6.1,27.6,5.5,28.3,4.2z"/>
				</g>
			</g>
		</g>
	</g>
	<g>
		<g>
			<g>
				<g>
					<path fill="#56BFEB" d="M26.6,8.6c0-0.3,0.1-0.6,0.2-0.8C27,7.5,27.2,7,27.3,6.9c0.2-0.2,1.3-0.5,1.6-0.6
						c0.1,0,0.4-0.1,0.7-0.1c0.4-0.1,0.8,0,1.2,0.2C31,6.5,31.1,6.7,31,7c0,0-2,0.5-2.6,0.7C27.8,7.8,26.6,8.6,26.6,8.6L26.6,8.6z"
						/>
				</g>
			</g>
		</g>
	</g>
	<g>
		<g>
			<g>
				<g>
					<path fill="#425A6B" d="M27.1,17.9c0,0,4.5,0.6,6.2-0.1c0,0,1.5,1.7,1.6,4.4c0.1,2.6-0.7,5.7,0,8.2c0,0-1.7,0.1-3.3,0.8
						c-1.6,0.6-5.1,0.5-5.1,0.5s-0.5-7.2,0-8.8C27,21.1,27.4,18.2,27.1,17.9z"/>
				</g>
			</g>
		</g>
	</g>
	<g>
		<g>
			<g>
				<g>
					<path fill="#344A5E" d="M30.6,1.3c0.2,0,0.3,0.1,0.4,0.2c0.1,0.1,0.1,0.3,0.1,0.5c0.1,0.7-0.3,1.5-0.5,2.2
						c-0.4,1.6-0.1,3.3,0.8,4.6c0.3,0.4,0.6,0.8,0.7,1.3c0.5-0.6,0.8-1.4,0.8-2.1C33,8.3,33,8.6,33.1,8.9C33.3,8.3,33.2,7.6,33,7
						c-0.2-0.6-0.4-1.2-0.5-1.8c-0.1-0.6-0.1-1.2-0.1-1.8c0-0.6-0.1-1.2-0.4-1.7c-0.3-0.5-0.9-0.9-1.4-0.8"/>
				</g>
			</g>
		</g>
	</g>
	<g>
		<g>
			<g>
				<g>
					<path fill="#F26F5A" d="M30.5,1.6c0.1,0,0.2-0.1,0.3-0.2c0-0.2,0-0.3,0.1-0.4c-0.3-0.2-0.6-0.3-0.8-0.2
						C30.3,1,30.4,1.2,30.5,1.6z"/>
				</g>
			</g>
		</g>
	</g>
	<g>
		<g>
			<g>
				<g>
					<path fill="#FFD15C" d="M17.1,8.4c0-0.1-0.1-0.2,0.1-0.3c0.1-0.1,0.3,0,0.3,0s0.3,0.3,0.4,0.4c0,0.1,0.7,0.6,0.7,0.6
						c0.1,0,0.5,0.6,0.6,0.9c0.1,0.3,2.1,3.2,2.1,3.2l-1.1,0.9c0,0-1.2-1.6-1.5-2.1c-0.3-0.5-0.6-0.9-0.9-1.1
						c-0.2-0.1-0.8-0.7-0.8-0.9c0,0-0.5-0.6-0.3-1c0,0,0.1-0.2,0.2,0c0,0-0.1-0.2,0-0.4c0.1-0.2,0.2-0.1,0.2-0.1S17.2,8.4,17.1,8.4z
						"/>
				</g>
			</g>
		</g>
	</g>
	<g>
		<g>
			<g>
				<g>
					<path fill="#F26F5A" d="M28.2,41.9c0.2,0.4,0.1,0.8,0.1,0.8c-0.3,0.3-0.3,2.2-0.3,2.2h-0.3v-1c0-0.5-0.6-0.8-1-0.5c0,0,0,0,0,0
						h0c-0.4,0.6-0.9,1.7-1.8,1.7c-1,0-2.5-0.7-2.4-1.1c0.1-0.8,1.4-0.5,1.8-0.8c0,0-0.3,0.3-0.1,0.6c0.2,0.3,0.7,0.2,1.1-0.1
						c0.3-0.3,2-2.3,2.2-2.5c0.2-0.2,0.2-0.3,0.2-0.3S28.1,41.5,28.2,41.9z"/>
				</g>
			</g>
		</g>
		<g>
			<g>
				<g>
					<path fill="#F26F5A" d="M36,42.2c-0.2,0.2-0.1,2.1-0.1,2.1h-0.3c0,0,0-1.2-0.1-1.6c-0.1-0.3-0.4-0.4-0.6-0.4
						c-0.1,0-0.1,0.1-0.2,0.1c-0.3,0.3-0.7,1.1-1.3,1.3c-0.6,0.1-1.4-0.7-1.5-1.1c-0.1-0.4,1-0.4,1.1-0.3c0,0-0.3,0.2-0.1,0.4
						c0,0,0.3,0,0.8-0.8c0.5-0.8,1.8-1.8,1.8-1.8s0.7,1,0.8,1.3C36.4,41.8,36,42.2,36,42.2z"/>
				</g>
			</g>
		</g>
	</g>
</g>
</svg>
