<?xml version="1.0" encoding="utf-8"?>
<!-- Generator: Adobe Illustrator 18.0.0, SVG Export Plug-In . SVG Version: 6.00 Build 0)  -->
<!DOCTYPE svg PUBLIC "-//W3C//DTD SVG 1.1//EN" "http://www.w3.org/Graphics/SVG/1.1/DTD/svg11.dtd">
<svg version="1.1" id="Layer_1" xmlns="http://www.w3.org/2000/svg" xmlns:xlink="http://www.w3.org/1999/xlink" x="0px" y="0px"
	 viewBox="0 0 512 512" enable-background="new 0 0 512 512" xml:space="preserve">
<g>
	<path fill="#FF7058" d="M507.7,510H4.3c-1.1,0-2-0.9-2-2V72.1c0-1.1,0.9-2,2-2h503.4c1.1,0,2,0.9,2,2V508
		C509.7,509.1,508.8,510,507.7,510z"/>
	<rect x="44.6" y="112.4" fill="#FFFFFF" width="422.8" height="355.3"/>
	<path fill="#40596B" d="M298.9,44.9C298.9,21.2,279.7,2,256,2c-23.7,0-42.9,19.2-42.9,42.9h-42.3c-11.7,0-21.1,9.5-21.1,21.1v50.5
		c0,11.7,9.5,21.1,21.1,21.1h170.4c11.7,0,21.1-9.5,21.1-21.1V66c0-11.7-9.5-21.1-21.1-21.1H298.9z"/>
	<circle fill="#FFFFFF" cx="256" cy="44.9" r="22"/>
	<rect x="97.2" y="163.4" fill="#F2F2F2" width="317.7" height="23"/>
	<rect x="97.2" y="224.8" fill="#F2F2F2" width="317.7" height="23"/>
	<rect x="97.2" y="286.2" fill="#F2F2F2" width="117.3" height="23"/>
	<circle fill="#4CDBC4" cx="328.1" cy="355.7" r="86.8"/>
	<polygon fill="#FFFFFF" points="303.3,411 262.5,370.2 282.7,350 303.3,370.6 373.4,300.5 393.6,320.7 	"/>
</g>
</svg>
