<?xml version="1.0" encoding="utf-8"?>
<!-- Generator: Adobe Illustrator 18.0.0, SVG Export Plug-In . SVG Version: 6.00 Build 0)  -->
<!DOCTYPE svg PUBLIC "-//W3C//DTD SVG 1.1//EN" "http://www.w3.org/Graphics/SVG/1.1/DTD/svg11.dtd">
<svg version="1.1" id="Layer_1" xmlns="http://www.w3.org/2000/svg" xmlns:xlink="http://www.w3.org/1999/xlink" x="0px" y="0px"
	 viewBox="0 0 48 48" enable-background="new 0 0 48 48" xml:space="preserve">
<g>
	<g>
		<g>
			<g>
				<path fill="#FFD15C" d="M13.1,25.5c0,0-0.1,3.6-0.1,4.1c0.1,0.5,0.1,2.3,0.4,3c0.2,0.8,0.3,3.1,0.3,3.1s0.1,0.6,0.2,0.7
					c0.1,0.1,0,1.1,0,1.1l-0.1,1.8l0.5,1.5c0,0,1.2,0.9,1.7,1c0,0,1.1-0.4,0.2-0.7c-0.8-0.3-0.6-1.7-0.6-1.7l0-1.7l0-3.5
					c0,0,0-1.4,0.2-3c0.2-1.7,0.5-3,0.2-4.8L13.1,25.5z"/>
			</g>
		</g>
		<g>
			<g>
				<path fill="#F3705A" d="M22.9,48c0.1-1.9,0.3-3.8,0.3-3.8s0.1,1.9,0.3,3.8H31c0-2.1,0-4.5,0-5c0-0.8-0.4-7-0.4-7l-14.9,1V48
					H22.9z"/>
			</g>
		</g>
		<g>
			<g>
				<g>
					<g>
						<polygon fill="#FFD15C" points="21.3,7.2 21.2,10.1 26.4,10.1 26.4,7.2 						"/>
					</g>
				</g>
				<g>
					<g>
						<g>
							<g>
								
									<ellipse transform="matrix(0.9546 -0.2977 0.2977 0.9546 -0.7345 6.3952)" fill="#FFD15C" cx="20.6" cy="5.6" rx="0.5" ry="1.1"/>
							</g>
						</g>
						<g>
							<g>
								
									<ellipse transform="matrix(-0.9546 -0.2977 0.2977 -0.9546 51.5961 19.0763)" fill="#FFD15C" cx="27.3" cy="5.6" rx="0.5" ry="1.1"/>
							</g>
						</g>
					</g>
					<g>
						<g>
							<path fill="#415A6B" d="M23.6,0c2.4-0.2,4.2,1.9,4,4.3c-0.1,0.8-0.3,1.6-0.6,2c-0.4,0.6-0.5,1.2-0.5,1.2s-3.2,1.6-5.3,0
								c0,0-0.4-1.5-0.7-2.6c-0.3-0.9-0.3-1.8,0.1-2.7C21.1,0.9,22.3,0.1,23.6,0z"/>
						</g>
					</g>
				</g>
				<g>
					<g>
						<path fill="#E8EAE9" d="M27,10.7c0,0,0.2,0.4,0.5,0.5c0.3,0.1,1.6,1.2,1.6,1.2s3.7,2.1,4.4,4.6c0.7,2.5,1.1,2.6,1.1,3.2
							c0,0.6-0.1,0.6,0.2,1.3s0.8,2.1,0.7,2.9c-0.1,0.8-0.2,1.1-0.2,1.1s-2.1,1.2-4.8,0.5l-0.2,4.6c0,0,0.1,5.2,0.4,6.1
							c0.3,1-1,1.5-1,1.5s-2.2,2.9-6.1,2.4c0,0-1.7-0.1-2.6,0.3c-0.8,0.4-4.8-0.6-6.3-3.8c0,0,1.7-6.1,1.7-6.6
							c0-0.4,0.4-4.5,0.4-4.5s-0.2,0.7-0.4,0.9c-0.2,0.2,0.1,0.1,0.1,0.1s-0.7-0.2-0.9-0.4c0,0-1.9,0.4-2.6-1c0,0-0.1-0.7-0.4-1.3
							c-0.2-0.6,0.3-1.8,0.3-1.8s0.2-1.9,0.4-2.7c0.2-0.8,0.4-6.3,2.5-7.2c2.1-0.9,4.6-2,4.6-2l1.3-0.5L27,10.7z"/>
					</g>
				</g>
				<g>
					<g>
						<path fill="#F3F3F3" d="M20.3,10.7c0,0,0.6-0.7,0.7-1C21,9.4,21.5,9,22,9c0.6,0,3.9,0.3,4.3,0.4c0.4,0.1,0.5,0.9,0.5,0.9
							s0.1,0.7,0.7,0.9c0,0-2.7-0.5-3.6-0.5C23.1,10.6,21,10.4,20.3,10.7z"/>
					</g>
				</g>
			</g>
			<g>
				<g>
					<path fill="#F7B64C" d="M32.1,24.4c0,0-1.5,1.7-1.8,1.9c-0.3,0.2-1.2,0.9-1.5,1.3c-0.3,0.3-2.8,1.1-3,1.1
						c-0.2,0-1.5-0.7-1.5-0.7l-1.5-0.5l-1,3.2c0,0-0.1,0.2-0.2,0.2l1.4,0.4c0,0,2,0.5,2.5-0.2c0,0,5.3-0.3,7.6-2.1
						c0,0,1.5-0.1,1.7-1.2c0,0,0.5-1,0.1-2.7L32.1,24.4z"/>
				</g>
			</g>
			<g>
				<g>
					<path fill="#E8EAE9" d="M30.5,22.5V26h0l0,0c2.7,0.7,4.8-0.5,4.8-0.5s0.1-0.3,0.2-1.1c0.1-0.5-0.1-1.2-0.3-1.9H30.5z"/>
				</g>
			</g>
			<g>
				<g>
					<path fill="#66C6B9" d="M22,22.3c0.7,1.3,0.4,2.8,0.4,2.8s-1.5-0.6-2.2-1.8c-0.7-1.3-0.4-2.8-0.4-2.8S21.3,21,22,22.3z"/>
				</g>
			</g>
			<g>
				<g>
					<path fill="#4ABAA5" d="M23.4,18.3c0.7,1.3,0.4,2.8,0.4,2.8s-1.5-0.6-2.2-1.8c-0.7-1.3-0.4-2.8-0.4-2.8S22.7,17.1,23.4,18.3z"
						/>
				</g>
			</g>
			<g>
				<g>
					<path fill="#4ABAA5" d="M26.8,20.8c-0.5,0.8-1.5,1.1-1.5,1.1s-0.1-1,0.4-1.8s1.5-1.1,1.5-1.1S27.3,20,26.8,20.8z"/>
				</g>
			</g>
			<g>
				<g>
					<g>
						<path fill="#66C6B9" d="M24.9,26.1c0.4-0.2,0.9-0.2,1.2,0.1c0.7-1.9,1.8-5.1,1.7-7.4C27.7,18.8,26.7,22.6,24.9,26.1z"/>
					</g>
				</g>
				<g>
					<g>
						<path fill="#66C6B9" d="M23.9,27.9l-0.6,0.2c-0.2-2.6-1.8-5.5-3.7-8.5C21.8,22.3,23.2,25,23.9,27.9z"/>
					</g>
				</g>
			</g>
			<g>
				<g>
					<g>
						<g>
							<g>
								<g>
									<g>
										<path fill="#F7B64C" d="M20.8,17.8c0,0-1.8-2.9-0.6-4.1c0,0,0,0.4,0.6,1C21.3,15.3,22.3,16.9,20.8,17.8z"/>
									</g>
								</g>
							</g>
							<g>
								<g>
									<g>
										<path fill="#F7B64C" d="M20.9,17.8c0,0-1.7-3-3.2-2.6c0,0,0.3,0.2,0.6,1C18.4,17,19.4,18.7,20.9,17.8z"/>
									</g>
								</g>
							</g>
						</g>
						<g>
							<g>
								<g>
									<g>
										<path fill="#FFD15C" d="M20.9,16.3c0.3,0.5,0.3,1.3,0,1.5c-0.4,0.2-1-0.2-1.3-0.7c-0.3-0.5-1-2.4-0.6-2.6
											C19.3,14.2,20.6,15.8,20.9,16.3z"/>
									</g>
								</g>
							</g>
						</g>
					</g>
					<g>
						<g>
							<g>
								<g>
									<g>
										<path fill="#66C6B9" d="M18.7,17.2c0.5,0.7,1.2,1.2,2.2,0.6l0,0c0,0,0,0,0,0c0,0,0,0,0,0l0,0c1-0.6,0.9-1.5,0.5-2.2
											C21.8,17.1,19.8,18.3,18.7,17.2z"/>
									</g>
								</g>
							</g>
						</g>
					</g>
					<g>
						<g>
							<g>
								<g>
									<path fill="#66C6B9" d="M21,17.5c-0.1-0.1-0.1-0.2-0.2-0.4c-0.3-0.6-0.9-0.9-0.9-0.9s0,0.6,0.3,1.2
										c0.1,0.1,0.1,0.2,0.2,0.3L21,17.5z"/>
								</g>
							</g>
						</g>
					</g>
				</g>
				<g>
					<g>
						<g>
							<g>
								<g>
									<g>
										<path fill="#F7B64C" d="M24.5,17.6c0,0,1.5-3.1,0.3-4.1c0,0,0,0.4-0.5,1C23.8,15.2,22.9,16.9,24.5,17.6z"/>
									</g>
								</g>
							</g>
							<g>
								<g>
									<g>
										<path fill="#F7B64C" d="M24.5,17.6c0,0,1.4-3.1,3-2.8c0,0-0.3,0.2-0.5,1C26.9,16.6,26.1,18.4,24.5,17.6z"/>
									</g>
								</g>
							</g>
						</g>
						<g>
							<g>
								<g>
									<g>
										<path fill="#FFD15C" d="M24.3,16.2c-0.2,0.5-0.2,1.3,0.2,1.5c0.4,0.2,1-0.3,1.2-0.8c0.2-0.5,0.8-2.5,0.4-2.7
											C25.7,13.9,24.6,15.7,24.3,16.2z"/>
									</g>
								</g>
							</g>
						</g>
					</g>
					<g>
						<g>
							<g>
								<g>
									<g>
										<g>
											<path fill="#4ABAA5" d="M26.6,16.8c-0.4,0.7-1.1,1.3-2.1,0.8l0,0c0,0,0,0,0,0c0,0,0,0,0,0l0,0c-1-0.5-1-1.4-0.7-2.1
												C23.5,17.1,25.6,18.1,26.6,16.8z"/>
										</g>
									</g>
								</g>
							</g>
						</g>
						<g>
							<g>
								<g>
									<g>
										<path fill="#4ABAA5" d="M24.4,17.3c0-0.1,0.1-0.2,0.2-0.4c0.3-0.6,0.8-1,0.8-1s0,0.6-0.2,1.2c-0.1,0.1-0.1,0.2-0.2,0.4
											L24.4,17.3z"/>
									</g>
								</g>
							</g>
						</g>
					</g>
				</g>
				<g>
					<g>
						<g>
							<g>
								<g>
									<g>
										<g>
											<path fill="#F05540" d="M23.1,18c0,0-0.8-4.1,1-4.9c0,0-0.2,0.5,0.2,1.4C24.7,15.4,25.1,17.7,23.1,18z"/>
										</g>
									</g>
								</g>
								<g>
									<g>
										<g>
											<path fill="#F05540" d="M23.1,18c0,0-0.7-4.1-2.6-4.2c0,0,0.3,0.4,0.2,1.4S21,18.4,23.1,18z"/>
										</g>
									</g>
								</g>
							</g>
							<g>
								<g>
									<g>
										<g>
											<path fill="#F3705A" d="M23.7,16.4c0.1,0.7-0.1,1.6-0.6,1.7c-0.5,0.1-1.1-0.6-1.2-1.3c-0.1-0.7-0.2-3.2,0.3-3.3
												C22.8,13.4,23.6,15.7,23.7,16.4z"/>
										</g>
									</g>
								</g>
							</g>
						</g>
						<g>
							<g>
								<g>
									<g>
										<g>
											<path fill="#66C6B9" d="M20.9,16.4c0.2,0.9,0.9,1.8,2.2,1.6l0,0c0,0,0,0,0,0c0,0,0,0,0,0l0,0c1.3-0.3,1.6-1.3,1.5-2.3
												C24.4,17.7,21.6,18.2,20.9,16.4z"/>
										</g>
									</g>
								</g>
							</g>
						</g>
						<g>
							<g>
								<g>
									<g>
										<path fill="#66C6B9" d="M23.3,17.7c0-0.2,0-0.3-0.1-0.5c-0.1-0.8-0.6-1.4-0.6-1.4s-0.2,0.7-0.1,1.5c0,0.2,0.1,0.3,0.1,0.5
											L23.3,17.7z"/>
									</g>
								</g>
							</g>
						</g>
					</g>
				</g>
			</g>
			<g>
				<g>
					<path fill="#66C6B9" d="M21.6,38l-0.3-0.2c0,0,1.2-2.4,1.9-6.6c0.7-4.5-2.4-13.3-2.6-13.6l0.1-0.1l0,0l-0.1-0.1l0.2,0
						c0.3,0.1,3.4,9.4,2.8,13.9C22.9,35.5,21.6,38,21.6,38z"/>
				</g>
			</g>
			<g>
				<g>
					<path fill="#66C6B9" d="M23.5,37.9c0,0,0-3.4,0.2-6.5c0.2-3.1-0.9-13.8-0.9-13.9l0.3,0c0,0.4,1.2,10.8,0.9,13.9
						c-0.2,3.1-0.2,6.5-0.2,6.5L23.5,37.9z"/>
				</g>
			</g>
			<g>
				<g>
					<path fill="#4ABAA5" d="M25.8,37.9c0,0-0.3-1.5-1.4-4.9c-1.3-3.6-0.9-13.9,0.1-15.8l0.3,0.2c-0.9,1.7-1.3,12,0,15.5
						c1.2,3.4,1.4,4.8,1.4,4.9L25.8,37.9z"/>
				</g>
			</g>
			<g>
				<g>
					<path fill="#4ABAA5" d="M18.5,19.2c0,0,2.1,0.5,3.9,3.5l0.5-1C22.9,21.7,22.1,19.7,18.5,19.2z"/>
				</g>
			</g>
			<g>
				<path fill="#4ABAA5" d="M26.3,23.3c-0.4,1.5-1.8,2.5-1.8,2.5s-0.7-1.5-0.3-3c0.4-1.5,1.8-2.5,1.8-2.5S26.7,21.7,26.3,23.3z"/>
			</g>
			<g>
				<g>
					<path fill="#66C6B9" d="M22.7,24.4c0.4-0.3,1-0.2,1.4,0.2c0.9-2.3,2.1-6.1,2-8.9C26.2,15.7,25,20.3,22.7,24.4z"/>
				</g>
			</g>
			<g>
				<g>
					<path fill="#66C6B9" d="M23.4,21.8c0.1,1.2-0.6,2.2-0.6,2.2s-0.9-0.9-1-2.1c-0.1-1.2,0.6-2.2,0.6-2.2S23.3,20.6,23.4,21.8z"/>
				</g>
			</g>
			<g>
				<g>
					<path fill="#4ABAA5" d="M21.5,23.9c1,0.9,1.3,2.3,1.3,2.3s-1.5,0-2.5-0.9C19.2,24.4,19,23,19,23S20.5,23,21.5,23.9z"/>
				</g>
			</g>
			<g>
				<g>
					<path fill="#4ABAA5" d="M20.8,21.2c0.7,0.6,0.9,1.6,0.9,1.6s-1,0-1.7-0.6c-0.7-0.6-0.9-1.6-0.9-1.6S20.1,20.6,20.8,21.2z"/>
				</g>
			</g>
			<g>
				<g>
					<path fill="#4ABAA5" d="M24,24.1c0.7,0.6,0.9,1.6,0.9,1.6s-1,0-1.7-0.6c-0.7-0.6-0.9-1.6-0.9-1.6S23.3,23.5,24,24.1z"/>
				</g>
			</g>
			<g>
				<g>
					<path fill="#4ABAA5" d="M26,26.2c-0.8,0.5-1.8,0.4-1.8,0.4s0.3-1,1.1-1.5c0.8-0.5,1.8-0.4,1.8-0.4S26.8,25.7,26,26.2z"/>
				</g>
			</g>
			<g>
				<g>
					<path fill="#4ABAA5" d="M26.6,19c-0.7,1-2,1.2-2,1.2s-0.1-1.3,0.7-2.3c0.7-1,2-1.2,2-1.2S27.3,18,26.6,19z"/>
				</g>
			</g>
			<g>
				<g>
					<path fill="#66C6B9" d="M24.9,18.9c-0.1,1-1,1.7-1,1.7s-0.7-0.9-0.6-1.9c0.1-1,1-1.7,1-1.7S25,17.9,24.9,18.9z"/>
				</g>
			</g>
			<g>
				<g>
					<path fill="#66C6B9" d="M25.6,22.2c-0.9,0.4-2-0.1-2-0.1s0.4-1.1,1.3-1.5s2,0.1,2,0.1S26.5,21.8,25.6,22.2z"/>
				</g>
			</g>
			<g>
				<g>
					<path fill="#4ABAA5" d="M22.7,22.7c-0.5-0.8-0.3-2-0.3-2s1.1,0.2,1.7,1.1c0.5,0.8,0.3,2,0.3,2S23.3,23.5,22.7,22.7z"/>
				</g>
			</g>
			<g>
				<g>
					<path fill="#4ABAA5" d="M26,19.8c0.4-0.3,1.1-0.2,1.1-0.2s-0.1,0.6-0.5,0.9c-0.4,0.3-1.1,0.2-1.1,0.2S25.5,20.1,26,19.8z"/>
				</g>
			</g>
			<g>
				<g>
					<path fill="#4ABAA5" d="M23.9,26.7c0.6-0.4,1.5-0.3,1.5-0.3s-0.1,0.9-0.8,1.3C24,28.2,23.1,28,23.1,28S23.3,27.1,23.9,26.7z"/>
				</g>
			</g>
			<g>
				<g>
					<path fill="#4ABAA5" d="M21.8,22.6c-0.3-0.4-0.1-1-0.1-1s0.6,0.1,0.9,0.5c0.3,0.4,0.1,1,0.1,1S22.1,23,21.8,22.6z"/>
				</g>
			</g>
			<g>
				<g>
					<path fill="#4ABAA5" d="M20.9,18.9c0.8,0.7,1,1.9,1,1.9s-1.2,0-2-0.7c-0.8-0.7-1-1.9-1-1.9S20.1,18.2,20.9,18.9z"/>
				</g>
				<g>
					<g>
						<path fill="#66C6B9" d="M23,19c-0.3,1-1.3,1.7-1.3,1.7s-0.5-1-0.2-2.1c0.3-1,1.3-1.7,1.3-1.7S23.3,18,23,19z"/>
					</g>
				</g>
			</g>
			<g>
				<g>
					<path fill="#66C6B9" d="M24.7,29c0,0,0.8-2.5,3.1-3.6c0,0-2.2,0.3-3.5,3.4"/>
				</g>
			</g>
			<g>
				<g>
					<path fill="#4ABAA5" d="M24.7,38c-0.7-1.6-0.8-6.7-0.8-6.9l0.3,0c0,0.1,0,5.3,0.8,6.8L24.7,38z"/>
				</g>
			</g>
			<g>
				<g>
					<path fill="#4ABAA5" d="M23.1,37.2l-0.3-0.1c0.8-4.3,0.8-10,0.8-10.1h0.3C23.9,27.1,23.9,32.9,23.1,37.2z"/>
				</g>
			</g>
			<g>
				<path fill="#4ABAA5" d="M21.8,35.1l-0.2-0.2c0,0,1.3-1.5,1.3-4.4c0-3-1.5-6.5-1.5-6.6l0.2-0.1c0,0,1.5,3.6,1.5,6.7
					C23.2,33.5,21.9,35,21.8,35.1z"/>
			</g>
			<g>
				<g>
					<g>
						<g>
							<path fill="#FFD15C" d="M23,28.5c-0.1,0-0.1,0-0.1,0c-0.1-0.2-0.8-0.4-0.8-0.4s-0.1-0.1-0.3,0.1c-0.1,0.1-0.1,0.2-0.2,0.3
								c0,0.2,0.1,0.3,0.2,0.4c0.2,0.1,0.6,0.3,1,0.5c0,0,0,0,0,0C23.1,29.5,23.4,28.7,23,28.5z"/>
						</g>
					</g>
					<g>
						<g>
							<g>
								<path fill="#FFD15C" d="M22.5,27.1c0,0,0.4,0.5,0.6,0.7s0.1,0.4,0,0.5c-0.1,0.1-0.2,0.2-0.5,0c-0.3-0.2-0.7-0.5-0.7-0.5
									L22,27.3L22.5,27.1z"/>
							</g>
						</g>
						<g>
							<g>
								<path fill="#F3F3F3" d="M22.9,28.3c0,0,0.3-0.1,0.2-0.3c0,0-0.2-0.1-0.3-0.2c-0.1,0-0.1,0-0.1,0c0,0,0,0.1-0.1,0.2
									s0,0.1,0,0.1L22.9,28.3z"/>
							</g>
						</g>
					</g>
					<g>
						<g>
							<g>
								<path fill="#FFD15C" d="M21.9,29.8c0,0-0.3-0.1-0.2-0.4c0.1-0.3,0.5-0.2,0.5-0.2s0.7,0.3,0.7,0.3s0.8,0.1,0.9,0.4
									c0.1,0.3-0.1,0.6-0.4,0.5c-0.4-0.1-0.6-0.1-0.8-0.2C22.6,30,21.9,29.8,21.9,29.8z"/>
							</g>
						</g>
						<g>
							<g>
								<path fill="#F3F3F3" d="M23.7,30.2c0,0,0.3-0.2,0.1-0.5l-0.4,0c0,0-0.1,0-0.1,0.1c0,0.1,0,0.2,0,0.2s0,0.1,0.1,0.1
									C23.5,30.1,23.7,30.2,23.7,30.2z"/>
							</g>
						</g>
						<g>
							<g>
								<path fill="#F3F3F3" d="M22.9,29.2c0,0,0.3-0.1,0.2-0.4c-0.1-0.1-0.4-0.2-0.5,0c0,0.1,0,0.2,0,0.2s0,0.1,0,0.1
									S22.9,29.2,22.9,29.2z"/>
							</g>
						</g>
					</g>
					<g>
						<g>
							<g>
								<path fill="#FFD15C" d="M21.8,30c-0.2,0-0.3,0.2-0.4,0.4c0,0.1,0,0.2,0.1,0.2c0.2,0.2,0.4,0.1,0.4,0.1s0.2-0.1,0.5-0.2
									c0.3-0.1,0.4-0.3,0.4-0.4c0-0.1-0.1-0.3-0.5-0.3C22,30,21.9,30,21.8,30z"/>
							</g>
						</g>
						<g>
							<g>
								<path fill="#F3F3F3" d="M22.6,30.4c0,0-0.3,0.1-0.4,0.1c-0.1,0,0-0.2,0-0.3c0,0,0-0.1,0.1-0.1l0.3-0.1
									C22.5,30.1,22.6,30.4,22.6,30.4z"/>
							</g>
						</g>
					</g>
				</g>
				<g>
					<g>
						<g>
							<path fill="#FFD15C" d="M24.9,28.1c0,0-0.4,0-0.9,0.2c-0.4,0.3-0.9,0.5-0.8,0.8c0.1,0.3,0.5,0.6,0.8,0.4
								c0.3-0.2,0.6-0.4,0.6-0.4s0.1-0.1,0.3,0.1c0.1,0.1,0.5,0.3,0.7,0.3c0.3,0,0.4-0.5,0.3-0.8C25.9,28.5,25.3,28.1,24.9,28.1z"/>
						</g>
					</g>
					<g>
						<g>
							<path fill="#F3F3F3" d="M23.4,29.1c0,0-0.1-0.1,0-0.1c0.1-0.1,0.2-0.1,0.2-0.1s0.1-0.1,0.1,0c0.1,0.1,0.2,0.3,0.2,0.3
								s0,0.1,0,0.2c-0.1,0.1-0.2,0.2-0.2,0.2s0,0.1-0.1-0.1C23.6,29.3,23.4,29.1,23.4,29.1z"/>
						</g>
					</g>
				</g>
			</g>
			<g>
				<g>
					<path fill="#66C6B9" d="M21.6,26.8c0.7-0.2,1.5,0.2,1.5,0.2s-0.4,0.8-1.1,1c-0.7,0.2-1.5-0.2-1.5-0.2S20.8,27,21.6,26.8z"/>
				</g>
			</g>
			<g>
				<g>
					<path fill="#66C6B9" d="M22.4,27.5c0.2-0.4,0.8-0.6,0.8-0.6s0.2,0.6-0.1,1c-0.2,0.4-0.8,0.6-0.8,0.6S22.1,27.9,22.4,27.5z"/>
				</g>
			</g>
			<g>
				<g>
					<path fill="#66C6B9" d="M22.4,31c0.2-0.4,0.8-0.6,0.8-0.6s0.2,0.6-0.1,1c-0.2,0.4-0.8,0.6-0.8,0.6S22.2,31.5,22.4,31z"/>
				</g>
			</g>
			<g>
				<g>
					<g>
						<g>
							<g>
								<g>
									<g>
										<path fill="#F05540" d="M23.1,27.1c0,0-0.4-2.1,0.5-2.5c0,0-0.1,0.2,0.1,0.7C23.9,25.7,24.2,26.9,23.1,27.1z"/>
									</g>
								</g>
							</g>
							<g>
								<g>
									<g>
										<path fill="#F05540" d="M23.1,27c0,0-0.4-2.1-1.3-2.2c0,0,0.2,0.2,0.1,0.7C21.9,26.1,22.1,27.2,23.1,27z"/>
									</g>
								</g>
							</g>
						</g>
						<g>
							<g>
								<g>
									<g>
										<path fill="#F3705A" d="M23.4,26.2c0.1,0.3-0.1,0.8-0.3,0.8c-0.3,0-0.5-0.3-0.6-0.7c-0.1-0.3-0.1-1.6,0.2-1.7
											C23,24.7,23.4,25.9,23.4,26.2z"/>
									</g>
								</g>
							</g>
						</g>
					</g>
					<g>
						<g>
							<g>
								<g>
									<g>
										<path fill="#66C6B9" d="M22,26.2c0.1,0.5,0.4,0.9,1.1,0.8l0,0c0,0,0,0,0,0c0,0,0,0,0,0l0,0c0.7-0.1,0.8-0.7,0.8-1.2
											C23.8,26.9,22.4,27.1,22,26.2z"/>
									</g>
								</g>
							</g>
						</g>
					</g>
					<g>
						<g>
							<g>
								<g>
									<path fill="#66C6B9" d="M23.2,26.9c0-0.1,0-0.2,0-0.2c-0.1-0.4-0.3-0.7-0.3-0.7s-0.1,0.4,0,0.8c0,0.1,0,0.2,0.1,0.2
										L23.2,26.9z"/>
								</g>
							</g>
						</g>
					</g>
				</g>
			</g>
			<g>
				<g>
					<g>
						<g>
							<g>
								<g>
									<g>
										<path fill="#F05540" d="M24.3,21.1c0,0,1.3-3.1,2.8-2.8c0,0-0.3,0.2-0.4,1C26.5,20.1,25.8,21.8,24.3,21.1z"/>
									</g>
								</g>
							</g>
							<g>
								<g>
									<g>
										<path fill="#F05540" d="M24.3,21.1c0,0,1.4-3,0.1-4c0,0,0,0.4-0.4,1C23.5,18.8,22.8,20.5,24.3,21.1z"/>
									</g>
								</g>
							</g>
						</g>
						<g>
							<g>
								<g>
									<g>
										<path fill="#F3705A" d="M25.4,20.3c-0.2,0.5-0.8,1-1.2,0.8s-0.4-0.9-0.2-1.4c0.2-0.5,1.3-2.2,1.7-2
											C26.2,17.9,25.7,19.8,25.4,20.3z"/>
									</g>
								</g>
							</g>
						</g>
					</g>
					<g>
						<g>
							<g>
								<g>
									<g>
										<path fill="#66C6B9" d="M23.5,19.1c-0.2,0.7-0.2,1.6,0.7,2l0,0c0,0,0,0,0,0c0,0,0,0,0,0l0,0c1,0.4,1.6-0.2,2-0.9
											C25.4,21.5,23.3,20.6,23.5,19.1z"/>
									</g>
								</g>
							</g>
						</g>
					</g>
					<g>
						<g>
							<g>
								<g>
									<path fill="#66C6B9" d="M24.6,21c0.1-0.1,0.1-0.2,0.2-0.3c0.3-0.6,0.2-1.2,0.2-1.2s-0.5,0.4-0.7,0.9
										c-0.1,0.1-0.1,0.2-0.1,0.4L24.6,21z"/>
								</g>
							</g>
						</g>
					</g>
				</g>
			</g>
		</g>
	</g>
</g>
</svg>
