<?xml version="1.0" encoding="utf-8"?>
<!-- Generator: Adobe Illustrator 18.0.0, SVG Export Plug-In . SVG Version: 6.00 Build 0)  -->
<!DOCTYPE svg PUBLIC "-//W3C//DTD SVG 1.1//EN" "http://www.w3.org/Graphics/SVG/1.1/DTD/svg11.dtd">
<svg version="1.1" id="Layer_1" xmlns="http://www.w3.org/2000/svg" xmlns:xlink="http://www.w3.org/1999/xlink" x="0px" y="0px"
	 viewBox="0 0 48 48" enable-background="new 0 0 48 48" xml:space="preserve">
<g>
	<g>
		<path fill="#F2F2F2" d="M33.8,9.2c-0.6-1.1-1-2.3-1.1-3.6c-0.2-2.7,0.6-4.6,0.6-4.6L29.8,0c-0.7,1.7-3,3-5.8,3
			c-2.8,0-5.1-1.2-5.8-3l-3.5,0.9c0,0,0.8,1.9,0.6,4.6c-0.1,1.3-0.5,2.5-1.1,3.6c-0.3,0.7-0.5,1.4-0.5,2.2c0,0.8,0.2,1.5,0.6,2.2
			c0.7,1.3,3,5.9,3,5.9h13.6c0,0,2.3-4.7,3-5.9c0.3-0.6,0.5-1.4,0.6-2.2C34.3,10.6,34.2,9.9,33.8,9.2z"/>
		<path fill="#40596B" d="M24,3c-2.8,0-5.1-1.2-5.8-3l-0.1,0c-0.5,1.2,0.2,2.8,1.6,3.7c1.3,0.9,2.8,0.9,3.7,0.1
			c0.2-0.1,0.4-0.2,0.6-0.2c0,0,0,0,0,0c0.2,0,0.4,0.1,0.6,0.2c0.8,0.8,2.3,0.8,3.7-0.1c1.4-0.9,2.1-2.6,1.6-3.7l-0.1,0
			C29.1,1.7,26.8,3,24,3z"/>
		<circle fill="#ACB3BA" cx="17.3" cy="3.7" r="0.7"/>
		<path fill="#ACB3BA" d="M32.8,3c-0.1,0.4-0.1,0.9-0.1,1.4c0,0-0.1,0-0.1,0c-0.4,0-0.7-0.3-0.7-0.7c0-0.4,0.3-0.7,0.7-0.7
			C32.6,3,32.7,3,32.8,3z"/>
		<path fill="#ACB3BA" d="M16.2,6.7c0,0.4-0.3,0.7-0.7,0.7c-0.2,0-0.3-0.1-0.5-0.2c0.1-0.4,0.2-0.8,0.3-1.3c0.1,0,0.1,0,0.2,0
			C15.9,6,16.2,6.3,16.2,6.7z"/>
		<circle fill="#ACB3BA" cx="19.3" cy="6.7" r="0.7"/>
		<circle fill="#ACB3BA" cx="23.1" cy="6.7" r="0.7"/>
		<circle fill="#ACB3BA" cx="26.9" cy="6.7" r="0.7"/>
		<circle fill="#ACB3BA" cx="30.7" cy="6.7" r="0.7"/>
		<path fill="#ACB3BA" d="M14.3,9.7c0,0.3-0.2,0.6-0.5,0.7c0.1-0.4,0.2-0.7,0.4-1.1C14.2,9.5,14.3,9.6,14.3,9.7z"/>
		<circle fill="#ACB3BA" cx="17.3" cy="9.7" r="0.7"/>
		<circle fill="#ACB3BA" cx="21.1" cy="9.7" r="0.7"/>
		<circle fill="#ACB3BA" cx="24.9" cy="9.7" r="0.7"/>
		<circle fill="#ACB3BA" cx="28.7" cy="9.7" r="0.7"/>
		<circle fill="#ACB3BA" cx="32.5" cy="9.7" r="0.7"/>
		<circle fill="#ACB3BA" cx="15.5" cy="12.8" r="0.7"/>
		<circle fill="#ACB3BA" cx="19.3" cy="12.8" r="0.7"/>
		<circle fill="#ACB3BA" cx="23.1" cy="12.8" r="0.7"/>
		<circle fill="#ACB3BA" cx="26.9" cy="12.8" r="0.7"/>
		<circle fill="#ACB3BA" cx="30.7" cy="12.8" r="0.7"/>
		<circle fill="#ACB3BA" cx="17.3" cy="15.8" r="0.7"/>
		<circle fill="#ACB3BA" cx="21.1" cy="15.8" r="0.7"/>
		<circle fill="#ACB3BA" cx="24.9" cy="15.8" r="0.7"/>
		<circle fill="#ACB3BA" cx="28.7" cy="15.8" r="0.7"/>
		<path fill="#ACB3BA" d="M32.9,15.2c-0.2,0.4-0.4,0.8-0.6,1.3c-0.3-0.1-0.5-0.4-0.5-0.7c0-0.4,0.3-0.7,0.7-0.7
			C32.7,15.1,32.8,15.1,32.9,15.2z"/>
		<circle fill="#ACB3BA" cx="19.3" cy="18.8" r="0.7"/>
		<circle fill="#ACB3BA" cx="23.1" cy="18.8" r="0.7"/>
		<circle fill="#ACB3BA" cx="26.9" cy="18.8" r="0.7"/>
		<path fill="#ACB3BA" d="M31.3,18.5c-0.3,0.6-0.5,1-0.5,1h-0.4c-0.3-0.1-0.4-0.4-0.4-0.7c0-0.4,0.3-0.7,0.7-0.7
			C30.9,18.1,31.2,18.3,31.3,18.5z"/>
	</g>
	<path fill="#F1543F" d="M30.8,19.5c-4.5,0-9.1,0-13.6,0v0c-2.7,5.2-3.8,10.6-3.5,16.4c0.4,5.3,0.7,6,1.1,11.3c6.1,1,12.3,1,18.4,0
		c0.4-5.3,0.7-6.1,1.1-11.3C34.7,30.1,33.5,24.7,30.8,19.5L30.8,19.5z"/>
	<path fill="#FFD15C" d="M32.1,22.3c-0.4-0.9-0.8-1.9-1.3-2.8l0,0H17.2c-0.5,1-0.9,1.9-1.3,2.8H32.1z"/>
</g>
</svg>
