<?xml version="1.0" encoding="utf-8"?>
<!-- Generator: Adobe Illustrator 18.0.0, SVG Export Plug-In . SVG Version: 6.00 Build 0)  -->
<!DOCTYPE svg PUBLIC "-//W3C//DTD SVG 1.1//EN" "http://www.w3.org/Graphics/SVG/1.1/DTD/svg11.dtd">
<svg version="1.1" id="Layer_1" xmlns="http://www.w3.org/2000/svg" xmlns:xlink="http://www.w3.org/1999/xlink" x="0px" y="0px"
	 viewBox="0 0 48 48" enable-background="new 0 0 48 48" xml:space="preserve">
<g>
	<g>
		<g>
			<g>
				<g>
					<g>
						<path fill="#FFD15C" d="M40.5,16.4c-0.2,1-0.9,1.8-1.6,1.6c-0.6-0.2-1-1.2-0.7-2.2c0.2-1,0.9-1.6,1.5-1.5
							C40.3,14.5,40.7,15.4,40.5,16.4z"/>
					</g>
					<g>
						<path fill="#FFD15C" d="M27.8,16.4c0.2,1,0.9,1.8,1.6,1.6c0.6-0.2,1-1.2,0.7-2.2c-0.2-1-0.9-1.6-1.5-1.5
							C28,14.5,27.6,15.4,27.8,16.4z"/>
					</g>
				</g>
			</g>
			<g>
				<path fill="#415A6B" d="M39.4,16.7H28.9c0,0-3.8-11.4,5.2-11.4C43.1,5.3,39.4,16.7,39.4,16.7z"/>
			</g>
			<g>
				<g>
					<path fill="#344A5E" d="M48,34.1l-1.8-7c-0.4-1.4-1.5-2.4-2.9-2.6l-9.2-1.5L25,24.5c-1.4,0.2-2.5,1.3-2.9,2.6l-1.8,7H48z"/>
				</g>
				<g>
					<g>
						<g>
							<g>
								<path fill="#E8EAE9" d="M37,34.1c0.2-1.6,1.3-8.9,1.4-10L34.1,26l-4.3-1.9c0.1,1.1,1.2,8.4,1.4,10H37z"/>
							</g>
							<g>
								<path fill="#F3705A" d="M31.9,34.1h4.5l-0.9-4.6l1.1-1.1c0,0-1.6-2.4-2.4-2.4c-0.9,0-2.4,2.4-2.4,2.4l1.1,1.1L31.9,34.1z"/>
							</g>
							<g>
								<g>
									<path fill="#F3F3F3" d="M30.2,20.6l4,5.3l-2.9,2.9L29,22.2C29.5,21.6,30.2,20.6,30.2,20.6z"/>
								</g>
							</g>
						</g>
						<g>
							<path fill="#F3F3F3" d="M38.1,20.6l-4,5.3l2.9,2.9l2.2-6.7C38.8,21.6,38.1,20.6,38.1,20.6z"/>
						</g>
					</g>
				</g>
				<g>
					<polygon fill="#F7B64C" points="30.2,16.2 30.2,20.6 34.1,26 38.1,20.6 38.1,16.2 					"/>
				</g>
				<g>
					<g>
						<path fill="#FFD15C" d="M36.2,10.6c-0.9,1.5-2.4,2.5-4.6,2.5c-1,0-1.8-0.2-2.5-0.6c-0.2,0.8-0.4,1.7-0.4,2.7
							c0,4.1,2.4,7.3,5.4,7.3s5.4-3.3,5.4-7.3c0-0.9-0.1-1.7-0.3-2.4C37.9,12.5,36.9,11.7,36.2,10.6z"/>
					</g>
				</g>
				<g>
					<g>
						<polygon fill="#415A6B" points="40.5,34.1 43,28.7 40.6,27.4 43.2,25.6 38.6,21.2 36.5,34.1 						"/>
					</g>
					<g>
						<polygon fill="#415A6B" points="25.3,28.7 27.7,34.1 31.8,34.1 29.7,21.2 25.1,25.6 27.7,27.4 						"/>
					</g>
				</g>
			</g>
		</g>
		<g>
			<g>
				<g>
					<polygon fill="#F7B64C" points="10.8,32.3 10.8,38.1 14.2,40.7 17.7,38.1 17.7,32.3 					"/>
				</g>
			</g>
			<g>
				<path fill="#415A6B" d="M19.5,32.4c-2.6,4.7-7.9,4.7-10.6,0c-1.6-2.9-3.8-12,5.3-12C23.3,20.4,21.1,29.5,19.5,32.4z"/>
			</g>
			<g>
				<g>
					<ellipse fill="#4ABAA5" cx="14.2" cy="36.9" rx="5.2" ry="2"/>
				</g>
			</g>
			<g>
				<path fill="#66C6B9" d="M28.4,48l-2-7.7c-0.3-1.3-1.3-2.2-2.6-2.5c-2.7-0.6-7.3-1.5-9.6-1.5s-6.9,0.9-9.6,1.5
					C3.3,38.1,2.3,39,2,40.3L0,48H28.4z"/>
			</g>
		</g>
		<g>
			<g>
				<g>
					<path fill="#F3705A" d="M22.3,13.1l1,4.9l-6.5-2.7c-0.4,0-0.7,0.1-1.1,0.1c-5.2,0-9.4-3.4-9.4-7.7S10.5,0,15.7,0
						s9.4,3.4,9.4,7.7C25.1,9.8,24,11.8,22.3,13.1z"/>
				</g>
			</g>
			<g>
				<g>
					<circle fill="#FFFFFF" cx="10.6" cy="7.7" r="1.7"/>
				</g>
				<g>
					<circle fill="#FFFFFF" cx="15.7" cy="7.7" r="1.7"/>
				</g>
				<g>
					<circle fill="#FFFFFF" cx="20.8" cy="7.7" r="1.7"/>
				</g>
			</g>
		</g>
	</g>
</g>
</svg>
