<?xml version="1.0" encoding="utf-8"?>
<!-- Generator: Adobe Illustrator 18.0.0, SVG Export Plug-In . SVG Version: 6.00 Build 0)  -->
<!DOCTYPE svg PUBLIC "-//W3C//DTD SVG 1.1//EN" "http://www.w3.org/Graphics/SVG/1.1/DTD/svg11.dtd">
<svg version="1.1" id="Layer_1" xmlns="http://www.w3.org/2000/svg" xmlns:xlink="http://www.w3.org/1999/xlink" x="0px" y="0px"
	 viewBox="0 0 512 512" enable-background="new 0 0 512 512" xml:space="preserve">
<g>
	<path fill="#FF7058" d="M165.3,334c-43.7-30.6-104.2-20-134.8,23.8c-30.6,43.7-20,104.2,23.8,134.8
		c43.7,30.6,104.2,19.9,134.8-23.8C219.7,425,209,364.6,165.3,334z M150.7,441.9c-15.8,22.6-47,28.1-69.6,12.3s-28.1-47-12.3-69.6
		c15.8-22.6,47-28.1,69.5-12.3C161,388.1,166.5,419.3,150.7,441.9z"/>
	<path fill="#CDD6E0" d="M412.7,11.5L406.9,2L171.3,338.6c33.4,27.5,44.2,73.7,27.6,112.6l0,1.5c31.6-45.1,60.8-90.2,108.1-118.5
		c26.9-16.1,50.4-37.8,68.7-64l15.8-22.5C442.5,174.8,458.8,87.7,412.7,11.5z"/>
	<path fill="#FF7058" d="M322.9,468.8c30.6,43.7,91.1,54.4,134.8,23.8c43.7-30.6,54.4-91.1,23.8-134.8
		c-30.6-43.7-91.1-54.4-134.8-23.8C303,364.6,292.3,425,322.9,468.8z M373.6,372.3c22.6-15.8,53.8-10.3,69.5,12.3
		c15.8,22.6,10.3,53.8-12.3,69.6s-53.8,10.3-69.6-12.3C345.5,419.3,351,388.1,373.6,372.3z"/>
	<path fill="#F2F2F2" d="M99.3,11.5l5.7-9.5l235.7,336.6c-33.4,27.5-44.2,73.7-27.6,112.6l0,1.5c-31.6-45.1-60.8-90.2-108.1-118.5
		c-26.9-16.1-50.4-37.8-68.7-64l-15.8-22.5C69.5,174.8,53.2,87.7,99.3,11.5z"/>
	<circle fill="#ACB3BA" cx="256" cy="295.2" r="27"/>
</g>
</svg>
