<?xml version="1.0" encoding="utf-8"?>
<!-- Generator: Adobe Illustrator 19.0.1, SVG Export Plug-In . SVG Version: 6.00 Build 0)  -->
<svg version="1.1" id="Layer_1" xmlns="http://www.w3.org/2000/svg" xmlns:xlink="http://www.w3.org/1999/xlink" x="0px" y="0px"
	 viewBox="0 0 48 48" style="enable-background:new 0 0 48 48;" xml:space="preserve">
<style type="text/css">
	.st0{fill:#FFD15C;}
	.st1{fill:#415A6B;}
	.st2{fill:#F7B64C;}
	.st3{fill:#CED6E0;}
	.st4{fill:#344A5E;}
	.st5{fill:#F3F3F3;}
	.st6{fill:#F05540;}
	.st7{fill:#F3705A;}
	.st8{fill:#66C6B9;}
	.st9{fill:#55C0EB;}
	.st10{fill:#F5F6FB;}
	.st11{fill:#4ABAA5;}
	.st12{fill:#ADB3BA;}
	.st13{fill:#E8EAE9;}
	.st14{fill:#2E4556;}
	.st15{fill:#8AD7F8;}
	.st16{fill:#FFFFFF;}
	.st17{fill:#E54838;}
	.st18{fill:#3EAF99;}
	.st19{fill:#EFA943;}
	.st20{fill:#4CAEE5;}
	.st21{fill:#293F4F;}
	.st22{fill:#2D4456;}
	.st23{fill:#2E4454;}
	.st24{fill:#2A3F4F;}
	.st25{fill:#2D4151;}
	.st26{fill:#E89E3D;}
	.st27{fill:#2B4151;}
	.st28{fill:#2A4051;}
	.st29{fill:#2C4151;}
	.st30{fill:#EBEAE8;}
	.st31{fill:#3AA590;}
	.st32{fill:#E84534;}
	.st33{fill:none;}
</style>
<g>
	<g>
		<g>
			<g>
				<g>
					<path class="st13" d="M14.2,33.1c1.2,1.1,2.2,2.4,2.9,3.8h13.7c0.7-1.4,1.7-2.8,2.9-3.8c3.6-3.1,5.7-8,4.9-13.3
						c-0.9-6.6-6.4-11.9-13-12.6c-9-1-16.6,6-16.6,14.8C9.1,26.4,11.1,30.4,14.2,33.1z"/>
				</g>
				<g>
					<g>
						<path class="st1" d="M20,45.8c0.8,1.3,2.3,2.2,4,2.2c1.7,0,3.1-0.9,4-2.2H20z"/>
					</g>
					<g>
						<path class="st4" d="M30.9,44.2v-4.8H17.1v4.8c0,1.1,0.9,2.1,2.1,2.1h9.7C30,46.2,30.9,45.3,30.9,44.2z"/>
					</g>
					<g>
						<path class="st1" d="M31.3,36.6H16.7c-0.8,0-1.4,0.6-1.4,1.4v0c0,0.8,0.6,1.4,1.4,1.4h14.6c0.8,0,1.4-0.6,1.4-1.4v0
							C32.7,37.2,32,36.6,31.3,36.6z"/>
					</g>
					<g>
						<path class="st1" d="M31.3,40.9H16.7c-0.8,0-1.4,0.6-1.4,1.4v0c0,0.8,0.6,1.4,1.4,1.4h14.6c0.8,0,1.4-0.6,1.4-1.4v0
							C32.7,41.6,32,40.9,31.3,40.9z"/>
					</g>
				</g>
			</g>
			<g>
				<g>
					<g>
						<g>
							<path class="st0" d="M14.9,24.4c-1.1-0.4-2-1.3-2.4-2.4c-0.1-0.3-0.2-0.7-0.2-1c0-1.1,0.4-4.3,1.4-5.6s3.8-3.5,6.7-4.2
								s5.7-1,9.6,1.3s5.3,7.4,5.7,8.7c0.4,1.3-0.5,4.6-2.4,5.3c0,0-1,2.8-4.5,3c0,0,0,1.1-0.5,0.9S27,29.2,27,29.2s-1,0.2-1.5-1.5
								c0,0-0.8,0.1-1.1,0.2c0,0-1.9,1.5-3.8,0.9c-2-0.6-3.1-2.4-3.1-2.9c0-0.5,0.4-1.2,0.4-1.2S16.6,25,14.9,24.4z"/>
						</g>
					</g>
					<g>
						<path class="st7" d="M21.6,27.8c-0.3,0.1-0.7,0-1-0.2c-0.3-0.2-0.6-0.5-0.7-0.7c0,0,0-0.1,0-0.2c0,0,0,0,0,0
							c0-0.1,0-0.1,0-0.2c0-0.4-0.1-0.9,0-1.2c0.1-0.5,0.3-1,0.7-1.3c0.1-0.1,0.1-0.2,0-0.2c-0.1-0.1-0.1-0.1-0.2,0
							c-0.4,0.4-0.7,0.9-0.8,1.5c0,0.2,0,0.6,0,1c-0.1-0.1-0.1-0.2-0.2-0.2l-0.7,0c-0.1,0-0.2,0.1-0.2,0.2c0,0.1,0.1,0.2,0.1,0.2
							l0.7,0c0,0,0.1,0.2,0.2,0.3c0.1,0.1,0.1,0.2,0.1,0.2c0.2,0.5,0.7,0.9,0.9,1c0.3,0.2,0.6,0.2,0.9,0.2c0.1,0,0.2,0,0.4,0
							c0.1,0,0.1-0.1,0.1-0.2C21.7,27.9,21.6,27.8,21.6,27.8z"/>
						<path class="st7" d="M32.7,24.2c-0.5,0.4-1.7,0.4-2,0.4c-0.1-0.3-0.2-0.5-0.2-0.7c0.2,0,0.3-0.1,0.5-0.2
							c0.1-0.1,0.1-0.2,0-0.2c-0.1-0.1-0.1-0.1-0.2,0c-0.1,0.1-0.3,0.1-0.5,0.2c-0.8,0.1-1.6,0-2.4-0.1c0-0.2,0.1-0.4,0.1-0.6
							c0,0,0,0,0,0c0,0,0,0,0.1-0.1c0.2-0.2,0.3-0.4,0.5-0.6c0.2-0.4,0.3-0.7,0.5-1.1c0.3,0.3,1,1,1.7,1c-0.1,0.3-0.2,0.8-0.4,1
							C30,23,30,23.1,30,23.2c0,0,0.1,0.1,0.1,0.1c0,0,0.1,0,0.1,0c0.4-0.3,0.5-1,0.6-1.3c0.2-0.1,0.3-0.2,0.5-0.3
							c0.1-0.1,0.2-0.3,0.3-0.4c0.1,0.2,0.1,0.4,0.2,0.6c0,0.3,0,0.7,0,0.9c0,0.2,0,0.4-0.1,0.6c-0.1,0.2-0.2,0.3-0.3,0.4
							c-0.1,0-0.1,0.1-0.1,0.2c0,0.1,0.1,0.1,0.1,0.1c0,0,0,0,0.1,0c0.2-0.1,0.4-0.3,0.5-0.6c0.1-0.2,0.1-0.5,0.1-0.7
							c0-0.3,0-0.7,0-1c0-0.3-0.1-0.6-0.3-0.9c0.4-0.8,0.4-1.3,0.4-1.3c0-0.1-0.1-0.2-0.2-0.1c-0.1,0-0.1,0.1-0.1,0.2
							c0,0,0,0.4-0.4,1.1c0,0,0,0,0,0c0,0-0.1,0.1-0.1,0.1c-0.1,0.2-0.2,0.4-0.4,0.6c-0.2,0.2-0.3,0.3-0.6,0.3h0
							c-0.7,0-1.4-0.8-1.6-1c0.2-1,0.2-2.1,0.2-2.8c0.5-0.1,1-0.3,1.5-0.6c0.1,0,0.1-0.1,0-0.2c0-0.1-0.1-0.1-0.2,0
							c-0.6,0.4-1.3,0.6-2.1,0.6c-0.4,0-0.8-0.1-1.1-0.3c-0.4-0.2-0.6-0.5-0.8-0.8c0-0.1-0.1-0.1-0.2-0.1c-0.1,0-0.1,0.1-0.1,0.2
							c0.2,0.3,0.4,0.5,0.6,0.7c0,0,0,0,0,0c0,0.4,0,0.8-0.1,1.3c-0.1,0.6-0.2,1.1-0.5,1.6c-0.3,0.4-0.8,0.7-1.2,0.5
							c0,0-0.1-0.1-0.1-0.1c-0.1-0.1-0.3-0.2-0.4-0.2c0,0-0.1,0-0.1,0c-0.1,0-0.1-0.1-0.1-0.1c-0.1-0.1-0.1-0.2-0.1-0.3
							c-0.1-0.3-0.2-0.6-0.2-1c0-0.1-0.1-0.2-0.2-0.2c-0.1,0-0.1,0.1-0.1,0.2c0,0.4,0.1,0.7,0.2,1.1c0.1,0.1,0.1,0.3,0.2,0.4
							c0,0,0,0,0,0c-0.4,0.2-0.9,0.4-1.2,0.7c-0.2,0.2-0.3,0.3-0.4,0.5c-0.2,0.3-0.4,0.5-0.7,0.7c-0.3,0.2-0.7,0.1-1,0.1l-0.1,0
							c-0.2,0-0.4-0.1-0.5,0c-0.6,0-1.2,0.6-1.3,1.3c0,0.1,0,0.2,0.1,0.2c0,0,0,0,0,0c0.1,0,0.1-0.1,0.1-0.1c0.1-0.5,0.5-0.9,1-1
							c0.2,0,0.3,0,0.5,0l0.1,0c0.3,0.1,0.8,0.1,1.1-0.1c0.3-0.2,0.6-0.5,0.8-0.8c0.1-0.2,0.2-0.3,0.4-0.5c0.3-0.3,0.8-0.5,1.2-0.7
							c0.1,0,0.2-0.1,0.2-0.1h0c0.1,0,0.2,0.1,0.3,0.1c0.1,0,0.1,0.1,0.2,0.1c0.6,0.3,1.2-0.1,1.6-0.6c0.3-0.5,0.5-1.1,0.5-1.7
							c0.1-0.4,0.1-0.8,0.1-1.2c0,0,0,0,0,0c0.4,0.2,0.8,0.3,1.2,0.3c0.1,0,0.1,0,0.2,0c0.1,0,0.2,0,0.3,0c0,1,0,2.8-0.7,4.1
							c-0.1,0.2-0.3,0.4-0.4,0.6c-0.2,0.2-0.4,0.3-0.6,0.4c-0.9,0.5-2.1,0.6-3.4,0.6c-0.2,0-0.4,0-0.6-0.1c-0.1,0-0.2-0.1-0.3-0.2
							c-0.1-0.1-0.2-0.1-0.2-0.2c-0.5-0.3-1.1-0.3-1.5,0.2c-0.1,0.2-0.2,0.5-0.2,0.7c0,0.4,0.2,0.9,0.4,1.2l0.1,0.1
							c0.1,0.1,0.1,0.1,0.2,0.2c0,0.1,0,0.3-0.1,0.3C21.2,25.9,21.1,26,21,26l-0.1,0c-0.2,0.1-0.5,0.2-0.7,0.4
							c-0.1,0.1-0.1,0.2,0,0.2c0,0,0.1,0.1,0.1,0.1c0,0,0.1,0,0.1,0c0.2-0.1,0.4-0.3,0.6-0.4l0.1,0c0.1-0.1,0.3-0.1,0.4-0.3
							c0.2-0.2,0.3-0.4,0.2-0.7c0-0.2-0.1-0.3-0.2-0.4l0-0.1c-0.2-0.3-0.4-0.6-0.4-1c0-0.2,0-0.4,0.1-0.5c0.2-0.4,0.8-0.4,1.1-0.2
							c0.1,0,0.1,0.1,0.2,0.1c0.1,0.1,0.2,0.2,0.3,0.2c0.2,0.1,0.4,0.1,0.5,0.1c0,0.1,0.1,0.3,0.2,0.4c0.1,0.1,0.2,0.3,0.2,0.4
							c0,0.1,0,0.2,0,0.3c0,0.2,0,0.4,0,0.6c0,0.3,0,0.6,0,0.9c-0.1,0-0.2,0-0.2,0c-0.1,0-0.3,0.1-0.4,0.2L23,26.7
							c-0.3,0.2-0.6,0.3-0.9,0.3c-0.1,0-0.1,0-0.2,0c-0.1,0-0.2,0-0.3,0c-0.2,0.1-0.4,0.2-0.5,0.4c0,0.1,0,0.2,0.1,0.2
							c0,0,0,0,0.1,0c0.1,0,0.1,0,0.1-0.1c0-0.1,0.2-0.2,0.3-0.2c0.1,0,0.2,0,0.3,0c0.1,0,0.1,0,0.2,0c0.4,0,0.7-0.2,1-0.4l0.1-0.1
							c0.1-0.1,0.2-0.1,0.3-0.1c0.1,0,0.3,0,0.4,0c0.3,0,0.7,0,1,0l0,0c0.2,0,0.5,0,0.8-0.1c0.1,0,0.1-0.1,0.2-0.1
							c0.1-0.1,0.2-0.1,0.2-0.1c0.2,0,0.3,0,0.5,0.1c0.1,0,0.1,0.1,0.2,0.1c0.2,0.1,0.5,0.1,0.8,0.1c0.1,0,0.1-0.1,0.1-0.2
							c0-0.1-0.1-0.1-0.2-0.1c-0.2,0-0.4,0-0.6,0c-0.1,0-0.1,0-0.2-0.1c-0.2-0.1-0.4-0.2-0.7-0.1c-0.1,0-0.2,0.1-0.3,0.2
							c-0.1,0-0.1,0.1-0.2,0.1c-0.2,0.1-0.4,0.1-0.6,0l0,0c-0.3,0-0.6,0-1,0c0-0.3,0-0.6,0-0.8c0-0.2,0-0.4,0-0.7c0-0.1,0-0.1,0-0.2
							c0.2,0.1,0.4,0.2,0.7,0.3l0.7,0.3c0.2,0.1,0.4,0.2,0.6,0.2c0.2,0,0.4,0,0.6,0c0,0,0,0,0,0c0.2,0,0.3,0,0.5,0
							c0.1,0,0.2-0.1,0.3-0.1l0,0c0.7-0.2,1.4-0.4,2.2-0.4c0.1,0,0.1-0.1,0.1-0.2c0-0.1-0.1-0.2-0.2-0.2c-0.8,0-1.5,0.2-2.2,0.4l0,0
							c-0.1,0-0.2,0.1-0.3,0.1c-0.1,0-0.3,0-0.4,0c-0.2,0-0.4,0-0.6,0c-0.2,0-0.4-0.1-0.6-0.2l-0.7-0.3c-0.3-0.1-0.6-0.2-0.9-0.3
							c0-0.1-0.1-0.2-0.1-0.3c0-0.1-0.1-0.1-0.1-0.2c1.3,0.1,2.5-0.1,3.4-0.6c0.1-0.1,0.2-0.1,0.3-0.2c0,0.3-0.1,0.7-0.3,0.9
							c-0.2,0.2-0.4,0.3-0.6,0.3c-0.2,0-0.5,0-0.7,0l-0.7,0c-0.1,0-0.2,0.1-0.2,0.2c0,0.1,0.1,0.2,0.1,0.2l0.7,0c0.1,0,0.2,0,0.3,0
							c0.2,0,0.3,0,0.5,0c0.3-0.1,0.5-0.2,0.7-0.4c0.1-0.1,0.2-0.2,0.2-0.4c0,0,0,0,0,0c0.6,0.1,1.1,0.1,1.7,0.1c0.2,0,0.4,0,0.7,0
							c0.2,0.3,0.4,1,0.2,1.4c-0.3,0.5-0.7,0.7-0.7,0.7c-0.1,0-0.1,0.1-0.1,0.2c0,0.1,0.1,0.1,0.1,0.1c0,0,0,0,0.1,0
							c0,0,0.5-0.2,0.9-0.8c0.1-0.2,0.2-0.4,0.1-0.6c0.4,0,1.6-0.1,2.2-0.5c0.1-0.1,0.1-0.2,0-0.2C32.8,24.1,32.7,24.1,32.7,24.2z"
							/>
						<path class="st7" d="M34.9,23.7c-0.3-0.2-0.7-0.3-1.1-0.4c-0.3-0.1-0.7-0.2-1,0c-0.1,0-0.1,0.1-0.1,0.2c0,0.1,0.1,0.1,0.2,0.1
							c0.2-0.1,0.5-0.1,0.8,0c0.4,0.1,0.7,0.2,1,0.4c0,0,0,0,0.1,0c0.1,0,0.1,0,0.1-0.1C35,23.9,35,23.8,34.9,23.7z"/>
						<path class="st7" d="M30.2,18.4c-0.1,0-0.2,0-0.2,0.1c0,0-0.3,0.7,0.1,1.1c0.2,0.2,0.4,0.3,0.7,0.3c0.3,0,0.5-0.3,0.7-0.6
							c0.1-0.2,0.2-0.4,0.2-0.5c0.1-0.3,0.2-0.4,0.2-0.4c0.1,0,0.1,0,0.2,0c0.1,0,0.1,0.1,0.2,0.2c0,0.1,0,0.3,0.1,0.5
							c0.1,0.5,0.1,0.9,0.2,1c0,0,0.1,0.1,0.1,0.1c0,0,0.1,0,0.1,0c0.1-0.1,0.1-0.2,0-0.2c-0.1-0.1-0.1-0.6-0.2-0.9
							c0-0.2,0-0.4-0.1-0.5c0-0.2-0.2-0.4-0.3-0.5c-0.2-0.1-0.3-0.1-0.5,0c-0.2,0.1-0.3,0.3-0.4,0.6c-0.1,0.1-0.1,0.3-0.2,0.5
							c-0.1,0.3-0.3,0.4-0.5,0.5c-0.1,0-0.3,0-0.4-0.2c-0.3-0.3-0.1-0.8-0.1-0.8C30.3,18.6,30.3,18.5,30.2,18.4z"/>
						<path class="st7" d="M22,18c0.2-0.3,0.4-0.5,0.7-0.7c0.3-0.2,0.7-0.3,1-0.3c0.1,0,0.1-0.1,0.1-0.2c0-0.1-0.1-0.1-0.2-0.1
							c-0.4,0.1-0.7,0.2-1.1,0.4c-0.4,0.2-0.7,0.5-0.9,0.8c-0.2,0.3-0.2,0.6-0.3,0.9c-0.1,0.5-0.2,1.2,0,1.7c0,0.1,0.1,0.2,0.1,0.3
							c0,0.1,0.1,0.2,0.1,0.3c0,0.2,0.1,0.4,0,0.6c0,0.1,0,0.2,0.1,0.2c0,0,0,0,0.1,0c0.1,0,0.1,0,0.1-0.1c0.1-0.2,0.1-0.5,0-0.8
							c0-0.1-0.1-0.2-0.1-0.3c0-0.1-0.1-0.2-0.1-0.3c-0.2-0.5-0.1-1.1,0-1.6C21.8,18.6,21.9,18.3,22,18z"/>
						<path class="st7" d="M17,15.2c0.3-0.6,0.8-0.9,1.3-1.2c1.1-0.5,2.1-0.7,2.9-0.5c0.1,0,0.6,0.2,0.6,0.5c0,0.3-0.2,0.6-0.5,0.8
							c-0.1,0.1-0.1,0.1,0,0.2c0,0.1,0.1,0.1,0.2,0.1c0.6-0.3,1.5-0.1,1.9,0.4c0,0,0.1,0.1,0.1,0.1c0,0,0,0,0,0
							c0.1,0,0.1-0.1,0.1-0.1c0.1-0.4,0.6-0.7,1-0.9l0.1,0c0.4-0.2,0.9-0.5,1.1-0.9c0.1-0.1,0.1-0.2,0.1-0.3c0-0.1,0.1-0.1,0.1-0.2
							c0-0.1,0.1-0.2,0.2-0.3c0.4,0.2,0.8,0.5,1.1,0.8c0.3,0.3,0.4,0.8,0.4,1.2c-0.2,0-0.4,0.1-0.7,0.2c-0.3,0.1-0.4,0.2-0.6,0.2
							c-0.2,0-0.3,0.1-0.5,0.2c-0.4,0.3-1.5,2-1.6,2.5c0,0,0,0,0,0c-0.3-0.2-0.8-0.4-1.8-0.2c-0.1,0-0.1,0.1-0.1,0.2
							c0,0.1,0.1,0.1,0.2,0.1c1.1-0.2,1.6,0.2,1.7,0.3c0,0.6,0.1,1.3,0.7,1.5c0,0,0,0,0,0c0.1,0,0.1,0,0.1-0.1c0-0.1,0-0.2-0.1-0.2
							c-0.7-0.2-0.5-1.4-0.5-1.5c0.1-0.5,1.1-2.1,1.4-2.3c0.2-0.1,0.3-0.1,0.4-0.2c0.1,0,0.3-0.1,0.6-0.2c0.6-0.2,1.1-0.3,1.4-0.2
							c0.3,0.1,1.3,0.8,1.6,1.1c0.1,0.2,0.2,0.3,0.2,0.4c0,0.1,0,0.2,0.1,0.3c0.1,0.1,0.3,0.1,0.5,0.2c0.2,0,0.5,0.1,0.9,0.2
							c0.6,0.2,0.7,0.5,0.7,0.5c0,0.1,0.1,0.1,0.2,0.1c0.1,0,0.1-0.1,0.1-0.2c0-0.1-0.1-0.4-0.9-0.7c-0.4-0.2-0.7-0.2-1-0.2
							c-0.1,0-0.3,0-0.3-0.1c0,0,0,0,0-0.1c0-0.1,0-0.3-0.3-0.6c-0.3-0.3-1.4-1.1-1.8-1.2c-0.2,0-0.4,0-0.7,0c0-0.4-0.1-0.8-0.4-1.2
							c0.1-0.3,0.5-0.5,0.8-0.4c0.1,0,0.2,0.1,0.3,0.1c0.1,0,0.1,0,0.2,0.1c0.3,0.1,0.7,0.1,1,0c0.1,0,0.1-0.1,0.1-0.2
							c0-0.1-0.1-0.1-0.2-0.1c-0.3,0.1-0.6,0.1-0.9,0C29,13,29,13,28.9,13c-0.1,0-0.3-0.1-0.4-0.1c-0.4-0.1-0.8,0.2-1,0.5
							c-0.3-0.3-0.7-0.6-1-0.7c0.2-0.2,0.4-0.3,0.6-0.4c0.1,0,0.1-0.1,0.1-0.2c0-0.1-0.1-0.1-0.2-0.1c-0.5,0.2-0.9,0.6-1.2,1.1
							c0,0.1-0.1,0.1-0.1,0.2c0,0.1-0.1,0.2-0.1,0.3c-0.2,0.4-0.6,0.6-1,0.8l-0.1,0c-0.4,0.2-0.8,0.5-1,0.9
							c-0.2-0.2-0.5-0.4-0.8-0.5c0,0,0,0,0-0.1c-0.1-0.4,0-0.8,0.2-1.1c0,0,0.1-0.1,0.1-0.1c0.1-0.1,0.2-0.3,0.3-0.5v0
							c0,0,0-0.1,0.3-0.2c0.1,0,0.2,0,0.4-0.1l0.1,0c0.2,0,0.4,0,0.5-0.2c0.2-0.1,0.3-0.3,0.3-0.5c0.1-0.2,0.1-0.4,0.1-0.5
							c0-0.1,0-0.2-0.1-0.2c-0.1,0-0.2,0-0.2,0.1c0,0.2,0,0.3-0.1,0.5c0,0.1-0.1,0.2-0.2,0.3c-0.1,0.1-0.2,0.1-0.4,0.1l-0.1,0
							c-0.1,0-0.3,0-0.4,0.1c-0.1,0-0.2,0.1-0.3,0.1c0-0.2-0.1-0.4-0.3-0.5c-0.2-0.2-0.5-0.3-0.7-0.4c-0.1,0-0.2,0-0.2,0.1
							c0,0.1,0,0.2,0.1,0.2c0.2,0.1,0.5,0.2,0.6,0.4c0.1,0.1,0.3,0.4,0.2,0.6c0,0.1-0.1,0.2-0.2,0.3c0,0-0.1,0.1-0.1,0.1
							c-0.3,0.4-0.4,0.9-0.3,1.3c-0.2,0-0.3,0-0.5,0c0.1-0.2,0.2-0.4,0.2-0.7c-0.1-0.4-0.4-0.7-0.8-0.8c-0.9-0.3-1.9-0.1-3.1,0.5
							c-0.5,0.3-1.2,0.6-1.4,1.3c0,0.1,0,0.2,0.1,0.2C16.9,15.3,17,15.3,17,15.2z"/>
						<path class="st7" d="M18.9,22.5c0.1-0.1,0.2-0.3,0.2-0.5l0.3-1.3c0-0.1,0-0.2-0.1-0.2c-0.1,0-0.2,0-0.2,0.1L18.8,22
							c0,0.1-0.1,0.3-0.1,0.3c-0.1,0.1-0.3,0.1-0.5,0.1c-0.1,0-0.2-0.1-0.2-0.1c-0.1-0.1-0.3-0.1-0.5-0.2c-0.1,0-0.2,0-0.2,0.1
							c0,0.1,0,0.2,0.1,0.2c0.1,0,0.3,0.1,0.4,0.1c0.1,0,0.2,0.1,0.3,0.1c0.1,0,0.2,0.1,0.3,0.1C18.6,22.7,18.8,22.7,18.9,22.5z"/>
						<path class="st7" d="M17.4,23.6c-0.4,0-0.8,0-1.2-0.1c-0.4-0.1-0.7-0.5-0.8-0.8c0,0,0,0,0-0.1c0,0,0,0,0,0
							c0-0.1,0.1-0.2,0.2-0.3c0.1,0,0.1-0.1,0.2-0.1C16,22.1,16,22,16.1,22c0.1-0.1,0.2-0.2,0.3-0.4c0.5-0.8,1.2-1.3,1.9-1.5l0,0
							c0.1,0,0.1,0,0.2,0c0.2-0.1,0.5-0.1,0.7-0.2c0.4-0.2,0.6-0.5,0.7-0.8c0-0.2,0-0.4,0-0.6c0-0.1,0-0.2,0-0.3
							c0-0.4,0.1-0.7,0.3-1c0.2-0.2,0.4-0.4,0.7-0.5c0.1,0,0.1,0,0.2,0c0.1,0,0.1-0.1,0.1-0.2c0-0.1-0.1-0.1-0.2-0.1
							c0,0-0.1,0-0.1,0c-0.1,0-0.3-0.1-0.4-0.3c-0.1-0.2-0.1-0.5-0.1-0.8c0-0.5,0-1,0-1.4l0-0.1c0-0.1-0.1-0.2-0.2-0.2h0
							c-0.1,0-0.1,0.1-0.1,0.2l0,0.1c0,0.5,0,1,0,1.4c0,0.3,0,0.6,0.1,0.9c0.1,0.1,0.1,0.2,0.2,0.3c-0.2,0.1-0.4,0.3-0.5,0.4
							c-0.1,0.1-0.1,0.2-0.1,0.2c-0.5-0.2-0.8-0.6-1-1.1c-0.2-0.5-0.1-1.1,0-1.6c0-0.1,0-0.2-0.1-0.2c-0.1,0-0.2,0.1-0.2,0.1
							c-0.1,0.6-0.1,1.2,0.1,1.8c0.2,0.5,0.6,1,1.1,1.3c-0.1,0.2-0.1,0.4-0.1,0.7c0,0.1,0,0.2,0,0.3c0,0.2,0.1,0.4,0,0.5
							c-0.1,0.3-0.4,0.5-0.5,0.6c-0.2,0.1-0.4,0.1-0.6,0.2c-0.1,0-0.1,0-0.2,0l0,0c-0.8,0.2-1.5,0.7-2,1.6c-0.1,0.1-0.2,0.2-0.3,0.3
							c-0.1,0.1-0.1,0.1-0.2,0.1c-0.1,0-0.1,0.1-0.2,0.1c-0.1,0.1-0.1,0.1-0.2,0.2c-0.1-0.2-0.4-0.3-0.6-0.3l0,0
							c-0.4-0.1-0.7-0.3-1-0.6c-0.1-0.1-0.2-0.1-0.2,0c-0.1,0.1,0,0.2,0,0.2c0.3,0.3,0.7,0.5,1.2,0.6l0,0c0.2,0,0.3,0.1,0.4,0.2
							c0,0.1,0,0.1,0,0.2c0,0,0,0.1,0,0.1c0.1,0.6,0.6,0.9,1,1.1c0.3,0.1,0.6,0.1,1,0.1c0.1,0,0.3,0,0.4,0c0.1,0,0.1-0.1,0.1-0.2
							C17.6,23.7,17.5,23.6,17.4,23.6z"/>
						<path class="st7" d="M14.9,19.4l-1,0.7c-0.1,0.1-0.2,0.1-0.3,0.2c-0.1,0.1-0.2,0.3-0.2,0.4c0,0.1,0.1,0.1,0.1,0.1c0,0,0,0,0,0
							c0.1,0,0.1-0.1,0.1-0.2c0-0.1,0-0.1,0.1-0.2c0.1-0.1,0.1-0.1,0.2-0.2l1-0.7c0.1,0,0.1-0.1,0.1-0.2
							C15.1,19.4,15,19.4,14.9,19.4z"/>
						<path class="st7" d="M14,18.9c0.1-0.3,0.2-0.5,0.4-0.6c0.1-0.1,0.4-0.2,0.6-0.1c0.1,0,0.1,0.1,0.2,0.2l0.1,0.1
							c0.2,0.2,0.3,0.2,0.5,0.2c0.1,0,0.3-0.1,0.4-0.2c0,0,0.1-0.1,0.1-0.1c0-0.1,0.1-0.1,0.1-0.1c0.2-0.2,0.5-0.2,0.8-0.1
							c0.3,0.1,0.5,0.2,0.8,0.4c0.1,0,0.2,0,0.2-0.1c0-0.1,0-0.2-0.1-0.2c-0.3-0.2-0.6-0.3-0.9-0.4c-0.4-0.1-0.8,0-1,0.2
							c-0.1,0.1-0.1,0.1-0.2,0.2c0,0-0.1,0.1-0.1,0.1c-0.1,0.1-0.2,0.1-0.2,0.1c-0.1,0-0.2,0-0.3-0.1l-0.1-0.1
							c-0.1-0.1-0.2-0.2-0.3-0.2c-0.3-0.1-0.6-0.1-0.9,0.1c-0.2,0.2-0.4,0.5-0.5,0.7c-0.1,0.1-0.1,0.3-0.2,0.3
							c-0.1,0.1-0.3,0-0.4-0.1c0-0.1-0.1-0.1-0.2-0.1c-0.1,0-0.1,0.1,0,0.2c0.1,0.2,0.3,0.3,0.5,0.3c0.1,0,0.2,0,0.3-0.1
							C13.8,19.2,13.9,19,14,18.9z"/>
						<path class="st7" d="M13.1,18.4c0.1,0,0.1,0,0.1-0.1c0.1-0.3,0.4-0.4,0.7-0.5l0.1-0.1c0.3-0.1,0.5-0.2,0.8-0.4
							c0,0,0,0,0.1-0.1c0,0,0.1-0.1,0.1-0.1c0,0,0.1,0,0.1,0c0.1,0.1,0.6,0.3,0.9,0c0.2-0.1,0.2-0.3,0.3-0.5c0-0.1,0.1-0.2,0.1-0.3
							c0.1-0.2,0.3-0.3,0.6-0.4c0.2-0.1,0.5-0.1,0.8-0.1c0.1,0,0.1-0.1,0.1-0.2c0-0.1-0.1-0.2-0.2-0.2c0,0,0,0,0,0
							c-0.3,0-0.6,0-0.8,0.1c-0.2,0.1-0.5,0.2-0.8,0.5C16,16.4,16,16.5,16,16.6c-0.1,0.1-0.1,0.3-0.2,0.4c-0.1,0.1-0.3,0.1-0.6-0.1
							c-0.1-0.1-0.3,0-0.4,0.1c-0.1,0-0.1,0.1-0.2,0.1l-0.1,0.1c-0.2,0.2-0.4,0.3-0.7,0.4l-0.1,0.1c-0.3,0.1-0.6,0.3-0.8,0.7
							C12.9,18.3,12.9,18.4,13.1,18.4C13,18.4,13.1,18.4,13.1,18.4z"/>
						<path class="st7" d="M13.5,17.2c0,0,0.1,0,0.1,0c0.2,0,0.5-0.1,0.8-0.4c0.1-0.1,0.1-0.1,0.2-0.2c0.1-0.2,0.3-0.3,0.4-0.4
							c0.1,0,0.1-0.1,0.2-0.1c0.2-0.1,0.4-0.2,0.5-0.4c0.1-0.2,0.1-0.4,0.1-0.5l0-0.1c0.1-0.5,0.2-0.9,0.5-1.2c0.1-0.1,0-0.2,0-0.2
							c-0.1-0.1-0.2-0.1-0.2,0c-0.3,0.4-0.5,0.9-0.6,1.4l0,0.1c0,0.1,0,0.3-0.1,0.4c-0.1,0.1-0.2,0.2-0.4,0.2
							c-0.1,0-0.2,0.1-0.2,0.1c-0.2,0.1-0.3,0.3-0.5,0.4c-0.1,0.1-0.1,0.1-0.2,0.2c-0.2,0.2-0.4,0.3-0.6,0.3c-0.1,0-0.2,0-0.2,0.1
							C13.4,17.1,13.4,17.2,13.5,17.2z"/>
					</g>
				</g>
				<g>
					<path class="st7" d="M33.9,23.7C33.9,23.7,33.9,23.7,33.9,23.7c-0.1-0.1-0.2-0.2-0.1-0.2c0.3-0.8,0.5-1.5,0.5-2.2
						c0-0.8-0.2-1.6-0.6-2.1c-0.1-0.1,0-0.2,0-0.2c0.1-0.1,0.2,0,0.2,0c0.5,0.6,0.7,1.4,0.7,2.3c0,0.7-0.2,1.5-0.5,2.3
						C34,23.7,34,23.7,33.9,23.7z"/>
				</g>
			</g>
		</g>
		<g>
			<g>
				<path class="st8" d="M25.1,1.1v2.5c0,0.6-0.5,1.1-1.1,1.1c-0.6,0-1.2-0.5-1.2-1.1V1.1C22.9,0.5,23.4,0,24,0
					C24.6,0,25.1,0.5,25.1,1.1z"/>
			</g>
			<g>
				<path class="st1" d="M14.4,3.4l1.2,2.2c0.3,0.5,0.1,1.2-0.4,1.6c-0.6,0.3-1.3,0.1-1.6-0.4l-1.2-2.2C12.1,4,12.3,3.3,12.8,3
					C13.4,2.7,14.1,2.9,14.4,3.4z"/>
			</g>
			<g>
				<path class="st8" d="M6.2,10.7L8.4,12c0.5,0.3,0.7,1,0.4,1.6c-0.3,0.6-1,0.7-1.6,0.4l-2.2-1.2c-0.5-0.3-0.7-1-0.4-1.6
					C5,10.6,5.7,10.4,6.2,10.7z"/>
			</g>
			<g>
				<path class="st1" d="M2.8,21.2h2.5c0.6,0,1.1,0.5,1.1,1.1c0,0.6-0.5,1.2-1.1,1.2H2.8c-0.6,0-1.1-0.5-1.1-1.2
					C1.7,21.7,2.2,21.2,2.8,21.2z"/>
			</g>
			<g>
				<path class="st8" d="M5.1,31.9l2.2-1.2c0.5-0.3,1.2-0.1,1.6,0.4c0.3,0.6,0.1,1.3-0.4,1.6l-2.2,1.2C5.7,34.2,5,34,4.7,33.5
					C4.3,32.9,4.5,32.2,5.1,31.9z"/>
			</g>
			<g>
				<path class="st8" d="M41.8,33.9l-2.2-1.2c-0.5-0.3-0.7-1-0.4-1.6c0.3-0.6,1-0.7,1.6-0.4l2.2,1.2c0.5,0.3,0.7,1,0.4,1.6
					C43,34,42.3,34.2,41.8,33.9z"/>
			</g>
			<g>
				<path class="st1" d="M45.2,23.5h-2.5c-0.6,0-1.1-0.5-1.1-1.1c0-0.6,0.5-1.2,1.1-1.2h2.5c0.6,0,1.1,0.5,1.1,1.2
					C46.3,23,45.8,23.5,45.2,23.5z"/>
			</g>
			<g>
				<path class="st8" d="M42.9,12.7L40.8,14c-0.5,0.3-1.2,0.1-1.6-0.4c-0.3-0.6-0.1-1.3,0.4-1.6l2.2-1.2c0.5-0.3,1.2-0.1,1.6,0.4
					C43.7,11.7,43.5,12.4,42.9,12.7z"/>
			</g>
			<g>
				<path class="st1" d="M35.6,4.6l-1.2,2.2c-0.3,0.5-1,0.7-1.6,0.4c-0.6-0.3-0.7-1-0.4-1.6l1.2-2.2c0.3-0.5,1-0.7,1.6-0.4
					C35.7,3.3,35.9,4,35.6,4.6z"/>
			</g>
		</g>
	</g>
</g>
</svg>
