<?xml version="1.0" encoding="utf-8"?>
<!-- Generator: Adobe Illustrator 19.0.1, SVG Export Plug-In . SVG Version: 6.00 Build 0)  -->
<svg version="1.1" id="Layer_1" xmlns="http://www.w3.org/2000/svg" xmlns:xlink="http://www.w3.org/1999/xlink" x="0px" y="0px"
	 viewBox="0 0 48 48" style="enable-background:new 0 0 48 48;" xml:space="preserve">
<style type="text/css">
	.st0{fill:#66C6B9;}
	.st1{fill:#FFFFFF;}
	.st2{fill:#E8EAE9;}
	.st3{fill:#F3705A;}
	.st4{fill:#415A6B;}
	.st5{fill:#8AD7F8;}
	.st6{fill:#55C0EB;}
</style>
<g>
	<g>
		<g>
			<g>
				<path class="st0" d="M43.5,2.1v43.8c0,1.2-0.9,2.1-2.1,2.1H6.6c-1.2,0-2.1-0.9-2.1-2.1V10l10-10h26.9C42.6,0,43.5,0.9,43.5,2.1z
					"/>
				<g>
					<g>
						<path class="st1" d="M38.8,39.2c0,2.8-2.3,5.1-5.1,5.1c-0.7,0-1.5-0.2-2.1-0.4c-0.5,0.3-1.1,0.4-1.7,0.4
							c-0.9,0-1.7-0.3-2.4-0.9c-0.4,0.4-1,0.6-1.6,0.6c-0.8,0-1.5-0.3-1.9-0.8c-0.5,0.5-1.2,0.8-1.9,0.8c-0.6,0-1.2-0.2-1.6-0.6
							c-0.6,0.6-1.5,0.9-2.4,0.9c-0.6,0-1.2-0.2-1.7-0.4c-0.6,0.3-1.3,0.4-2.1,0.4c-2.8,0-5.1-2.3-5.1-5.1s2.3-5,5.1-5
							c2.1,0,3.9,1.2,4.6,3c1,0.2,1.8,0.8,2.3,1.7c0.3-0.1,0.6-0.2,0.9-0.2c0.2,0,0.4,0,0.7,0.1v-7.6h2.5v7.6
							c0.2-0.1,0.4-0.1,0.7-0.1c0.3,0,0.6,0.1,0.9,0.2c0.5-0.8,1.3-1.4,2.3-1.7c0.8-1.8,2.6-3,4.6-3C36.5,34.1,38.8,36.4,38.8,39.2z
							"/>
					</g>
				</g>
				<g>
					<path class="st2" d="M14.5,0l-10,10h6.6c1.9,0,3.4-1.5,3.4-3.4V0z"/>
				</g>
				<g>
					<path class="st2" d="M14.5,0l-10,10h6.6c1.9,0,3.4-1.5,3.4-3.4V0z"/>
				</g>
				<g>
					<path class="st2" d="M14.5,0l-10,10h6.6c1.9,0,3.4-1.5,3.4-3.4V0z"/>
				</g>
			</g>
			<g>
				<rect x="18.8" y="4" class="st1" width="21.6" height="2.2"/>
			</g>
			<g>
				<rect x="18.8" y="8.5" class="st1" width="21.6" height="2.2"/>
			</g>
		</g>
		<g>
			<g>
				<g>
					<g>
						<g>
							<g>
								<g>
									<g>
										<polygon class="st2" points="18.3,27.8 20.4,26.1 22.6,28.5 18,31.8 										"/>
									</g>
									<g>
										<path class="st1" d="M16.4,32.7c-0.5-2.5-0.7-5.8-0.7-6.4c0-1,1.8-2.4,1.8-2.4s1.8,1.4,1.8,2.4c0,0.6-0.3,3.9-0.7,6.4
											H16.4z"/>
									</g>
									<g>
										<path class="st3" d="M18.6,31.8c-0.1,0.3-0.1,0.7-0.2,1h-2.1c-0.1-0.3-0.1-0.6-0.2-1H18.6z"/>
									</g>
								</g>
							</g>
							<g>
								<g>
									<g>
										<polygon class="st2" points="29.7,27.8 27.6,26.1 25.4,28.5 30,31.8 										"/>
									</g>
									<g>
										<path class="st1" d="M31.6,32.7c0.5-2.5,0.7-5.8,0.7-6.4c0-1-1.8-2.4-1.8-2.4s-1.8,1.4-1.8,2.4c0,0.6,0.3,3.9,0.7,6.4
											H31.6z"/>
									</g>
									<g>
										<path class="st3" d="M29.4,31.8c0.1,0.3,0.1,0.7,0.2,1h2.1c0.1-0.3,0.1-0.6,0.2-1H29.4z"/>
									</g>
								</g>
							</g>
						</g>
						<g>
							<g>
								<path class="st1" d="M20.6,17.3c-0.6,1.5-1,3.4-1,5.9c0,3,0.4,5.9,1,8h6.8c0.6-2.1,1-5,1-8c0-2.5-0.4-4.4-1-5.9H20.6z"/>
							</g>
							<g>
								<path class="st3" d="M27.5,17.5C26.2,14,24,12.8,24,12.8s-2.2,1.3-3.5,4.7H27.5z"/>
							</g>
							<g>
								<path class="st3" d="M20.3,30.2c0.1,0.3,0.2,0.7,0.3,1h6.8c0.1-0.3,0.2-0.6,0.3-1H20.3z"/>
							</g>
						</g>
					</g>
					<g>
						<g>
							<g>
								<g>
									<circle class="st4" cx="24" cy="22.3" r="2.8"/>
								</g>
								<g>
									<circle class="st5" cx="24" cy="22.3" r="2.1"/>
								</g>
							</g>
						</g>
						<g>
							<path class="st6" d="M24.8,20.4c-0.5,0.5-1.4,1.4-2.7,2.7c0-0.1-0.1-0.2-0.1-0.3l0,0l0.1-0.1l1.3-1.3l0.6-0.6l0,0l0.4-0.4
								l0,0C24.6,20.3,24.7,20.4,24.8,20.4z"/>
							<path class="st6" d="M25.7,21.1c-0.8,0.8-1.7,1.7-2.9,2.8c-0.1-0.1-0.2-0.2-0.4-0.3c1-1,2.2-2.1,2.9-2.9
								C25.5,20.9,25.6,21,25.7,21.1z"/>
						</g>
					</g>
				</g>
			</g>
		</g>
	</g>
</g>
</svg>
