<?xml version="1.0" encoding="utf-8"?>
<!-- Generator: Adobe Illustrator 18.0.0, SVG Export Plug-In . SVG Version: 6.00 Build 0)  -->
<!DOCTYPE svg PUBLIC "-//W3C//DTD SVG 1.1//EN" "http://www.w3.org/Graphics/SVG/1.1/DTD/svg11.dtd">
<svg version="1.1" id="Layer_1" xmlns="http://www.w3.org/2000/svg" xmlns:xlink="http://www.w3.org/1999/xlink" x="0px" y="0px"
	 viewBox="0 0 48 48" enable-background="new 0 0 48 48" xml:space="preserve">
<g>
	<g>
		<g>
			<g>
				<g>
					<path fill="#55C0EB" d="M37.6,6H2.9c-1.7,0-3,1.3-3,3v24.4c0,1.7,1.3,3,3,3h34.7c1.7,0,3-1.3,3-3V9C40.6,7.3,39.2,6,37.6,6z"/>
				</g>
			</g>
			<g>
				<g>
					<path fill="#55C0EB" d="M27.6,9.2H12.8V3.7c0-2.1,1.7-3.7,3.7-3.7h7.3c2.1,0,3.7,1.7,3.7,3.7V9.2z M15.3,6.7h9.8v-3
						c0-0.7-0.6-1.2-1.2-1.2h-7.3c-0.7,0-1.2,0.6-1.2,1.2V6.7z"/>
				</g>
			</g>
		</g>
		<g>
			
				<rect x="27.1" y="31.9" transform="matrix(0.5097 -0.8604 0.8604 0.5097 -15.2502 43.089)" fill="#344A5E" width="6.2" height="6.1"/>
			<g>
				<g>
					<circle fill="#FFFFFF" cx="16.3" cy="26.7" r="14.6"/>
				</g>
				<g>
					<g>
						<rect x="5.6" y="30.8" fill="#66C6B9" width="3.3" height="3.8"/>
					</g>
					<g>
						<rect x="11.5" y="23.6" fill="#415A6B" width="3.3" height="11"/>
					</g>
					<g>
						<rect x="17.3" y="25.9" fill="#F3705A" width="3.3" height="8.7"/>
					</g>
					<g>
						<rect x="23.2" y="19.6" fill="#FFD15C" width="3.3" height="15"/>
					</g>
				</g>
				<path fill="#415A6B" d="M30.4,35c-4.6,7.8-14.7,10.4-22.5,5.7S-2.4,26.1,2.2,18.3S16.9,8,24.6,12.6S35,27.3,30.4,35z M5.2,20.1
					c-3.6,6.1-1.6,14,4.5,17.7c6.1,3.6,14,1.6,17.7-4.5c3.6-6.1,1.6-14-4.5-17.7C16.7,12,8.8,14,5.2,20.1z"/>
			</g>
			<g>
				<path fill="#F3705A" d="M39.2,47.2c-4.5-2.7-8.4-7.1-8.4-7.1l4.2-7.1c0,0,5.8,1.4,10.3,4c2.8,1.6,3.7,5.3,2,8.1l0,0
					C45.6,47.9,42,48.9,39.2,47.2z"/>
			</g>
			<g>
				<path fill="#F05540" d="M38.5,34l-5.1,8.7c-1.6-1.5-2.6-2.6-2.6-2.6l4.2-7.1C35,32.9,36.4,33.3,38.5,34z"/>
			</g>
			<g>
				<g>
					<path fill="#F3705A" d="M36.4,33.2l-4.8,8.1c-0.4,0.7-1.3,0.9-1.9,0.5s-0.9-1.3-0.5-1.9l4.8-8.1c0.4-0.7,1.3-0.9,1.9-0.5
						S36.8,32.5,36.4,33.2z"/>
				</g>
			</g>
		</g>
	</g>
</g>
</svg>
