<?xml version="1.0" encoding="utf-8"?>
<!-- Generator: Adobe Illustrator 18.0.0, SVG Export Plug-In . SVG Version: 6.00 Build 0)  -->
<!DOCTYPE svg PUBLIC "-//W3C//DTD SVG 1.1//EN" "http://www.w3.org/Graphics/SVG/1.1/DTD/svg11.dtd">
<svg version="1.1" id="Layer_1" xmlns="http://www.w3.org/2000/svg" xmlns:xlink="http://www.w3.org/1999/xlink" x="0px" y="0px"
	 viewBox="0 0 48 48" enable-background="new 0 0 48 48" xml:space="preserve">
<g>
	<g>
		<g>
			<g>
				<g>
					<path fill="#344A5E" d="M17.1,46c1.2,1.2,2.8,2,4.7,2c1.8,0,3.5-0.8,4.7-2H17.1z"/>
				</g>
			</g>
			<g>
				<path fill="#F3F3F3" d="M35.6,21.6c-0.7-6.3-5.9-11.4-12.2-12.1C15,8.5,7.9,15,7.9,23.2c0,3.9,1.6,7.4,4.2,9.9
					c1.6,1.6,2.8,3.6,3.2,5.9h13.1c0.4-2.2,1.6-4.3,3.2-5.9C34.4,30.2,36.1,26.1,35.6,21.6z"/>
			</g>
			<g>
				<g>
					<g>
						<g>
							<g>
								<path fill="#FFD15C" d="M23.6,39.6h-3.7v-0.4c0-5.1-1.2-10-3.5-14.1c-1.1-2.1-1.4-3.6-0.9-4.6c0.4-0.7,1.3-1.1,2.5-1.1
									c0.7,0,1.2,0.1,1.6,0.3c0.6-0.2,1.3-0.3,2.1-0.3c0.8,0,1.5,0.1,2.1,0.3c0.4-0.2,0.9-0.3,1.6-0.3c1.3,0,2.1,0.4,2.5,1.1
									c0.6,1,0.3,2.5-0.9,4.6c-2.3,4.2-3.5,9.1-3.5,14.1V39.6z M20.8,38.8h2c0.1-5.1,1.3-9.9,3.6-14.1c1.2-2.2,1.1-3.2,0.9-3.7
									c-0.3-0.4-0.9-0.7-1.8-0.7c-0.2,0-0.4,0-0.6,0.1c0.7,0.5,1,1.3,1,2c0,1-0.5,1.7-1.3,1.8c-0.6,0-1.2-0.3-1.5-0.9
									c-0.5-0.8-0.5-1.8-0.1-2.6c0-0.1,0.1-0.2,0.2-0.3c-0.8-0.2-1.9-0.2-2.6,0c0.1,0.1,0.1,0.2,0.2,0.3c0.4,0.8,0.4,1.8-0.1,2.6
									c-0.4,0.6-0.9,0.9-1.5,0.9c-0.8-0.1-1.3-0.8-1.3-1.8c0-0.7,0.4-1.5,1-2c-0.2,0-0.4-0.1-0.6-0.1c-0.9,0-1.5,0.2-1.8,0.7
									c-0.3,0.5-0.3,1.5,0.9,3.7C19.5,28.8,20.7,33.7,20.8,38.8z M23.9,20.8c-0.1,0.1-0.2,0.2-0.3,0.3c-0.3,0.5-0.2,1.2,0.1,1.7
									c0.1,0.2,0.4,0.5,0.8,0.5c0.3,0,0.5-0.4,0.5-0.9C25,21.8,24.6,21.2,23.9,20.8z M19.6,20.8c-0.7,0.4-1.1,1-1.1,1.6
									c0,0.5,0.2,0.9,0.5,0.9c0.4,0,0.6-0.3,0.8-0.5c0.3-0.5,0.3-1.2,0.1-1.7C19.8,21,19.7,20.9,19.6,20.8z"/>
							</g>
						</g>
					</g>
				</g>
			</g>
			<g>
				<g>
					<path fill="#415A6B" d="M27.1,46.3H16.4c-0.8,0-1.5-0.7-1.5-1.5V39h13.7v5.8C28.6,45.7,28,46.3,27.1,46.3z"/>
				</g>
			</g>
			<g>
				<g>
					<g>
						<path fill="#344A5E" d="M28.7,37.6H14.9c-0.8,0-1.4,0.6-1.4,1.4l0,0c0,0.8,0.6,1.4,1.4,1.4h13.8c0.8,0,1.4-0.6,1.4-1.4l0,0
							C30.1,38.2,29.4,37.6,28.7,37.6z"/>
					</g>
				</g>
				<g>
					<g>
						<path fill="#344A5E" d="M28.7,42H14.9c-0.8,0-1.4,0.6-1.4,1.4l0,0c0,0.8,0.6,1.4,1.4,1.4h13.8c0.8,0,1.4-0.6,1.4-1.4l0,0
							C30.1,42.6,29.4,42,28.7,42z"/>
					</g>
				</g>
			</g>
		</g>
		<g>
			<path fill="#F3705A" d="M43,28.6l2.1,0.4l-3.5-5.2l-5.2,3.5l2.1,0.4c-0.9,4.6-4.4,8-8.6,9c0.2,0,0.4,0.1,0.5,0.1
				C36.3,38,41.9,34.3,43,28.6z"/>
		</g>
		<g>
			<path fill="#FFD15C" d="M15.7,2.1L15,0l-2.8,5.6l5.6,2.8l-0.7-2.1c4.4-1.5,9.1-0.2,12.2,3c-0.1-0.2-0.1-0.3-0.2-0.5
				C27.3,3.2,21.3,0.2,15.7,2.1z"/>
		</g>
		<g>
			<path fill="#8AD7F8" d="M6.4,39L5,40.6l6.2-0.4L10.8,34l-1.4,1.6c-3.5-3.1-4.7-7.8-3.5-12c-0.1,0.1-0.3,0.3-0.4,0.4
				C1.6,28.4,2,35.1,6.4,39z"/>
		</g>
	</g>
</g>
</svg>
