<?xml version="1.0" encoding="utf-8"?>
<!-- Generator: Adobe Illustrator 18.0.0, SVG Export Plug-In . SVG Version: 6.00 Build 0)  -->
<!DOCTYPE svg PUBLIC "-//W3C//DTD SVG 1.1//EN" "http://www.w3.org/Graphics/SVG/1.1/DTD/svg11.dtd">
<svg version="1.1" id="Layer_1" xmlns="http://www.w3.org/2000/svg" xmlns:xlink="http://www.w3.org/1999/xlink" x="0px" y="0px"
	 viewBox="0 0 48 48" enable-background="new 0 0 48 48" xml:space="preserve">
<g>
	<g>
		<g>
			<g>
				<path fill="#344A5E" d="M18.8,44.1c0.7,2.3,2.7,3.9,5.2,3.9c2.5,0,4.6-1.7,5.2-3.9H18.8z"/>
			</g>
			<g>
				<path fill="#E8EAE9" d="M30.3,35.7c0.3-3.1,1.8-5.9,4.2-8c3.4-3,5.5-7.5,5.3-12.4C39.6,7.2,33,0.4,24.8,0
					C15.7-0.4,8.1,6.8,8.1,15.9c0,4.7,2.1,9,5.4,11.9c2.4,2.1,3.9,4.9,4.2,8H30.3z"/>
			</g>
			<path fill="#415A6B" d="M32.9,38.8c0-1.1-0.9-1.9-1.9-1.9c1.1,0,1.9-0.9,1.9-1.9s-0.9-1.9-1.9-1.9H17.1c-1.1,0-1.9,0.9-1.9,1.9
				s0.9,1.9,1.9,1.9c-1.1,0-1.9,0.9-1.9,1.9c0,1.1,0.9,1.9,1.9,1.9c-1.1,0-1.9,0.9-1.9,1.9c0,1.1,0.9,1.9,1.9,1.9h13.9
				c1.1,0,1.9-0.9,1.9-1.9c0-1.1-0.9-1.9-1.9-1.9C32,40.7,32.9,39.9,32.9,38.8z"/>
		</g>
		<g>
			<g>
				<g>
					<g>
						<path fill="#FFD15C" d="M20.5,5.8c-1.4,0-2.5,1.1-2.5,2.5c0,0.1,0,0.2,0,0.3c-0.8,0.1-1.7,0.5-2.2,1.2
							c-0.2,0.3-0.3,0.6-0.4,0.9c-0.5,0-1.1,0.3-1.4,0.8c-0.3,0.5-0.3,1-0.1,1.5c-1,0.7-1.7,1.9-1.7,3.2c0,2,1.4,3.6,3.3,3.9
							c-0.3,0.7-0.3,1.6,0,2.4c0.7,1.4,2.3,2,3.7,1.4c-0.1,0.2-0.2,0.5-0.2,0.8c0,1.1,0.8,1.9,1.9,1.9s1.9-0.8,1.9-1.9V8.3
							C23,6.9,21.9,5.8,20.5,5.8z"/>
					</g>
				</g>
			</g>
			<g>
				<g>
					<g>
						<path fill="#FFD15C" d="M20.5,5.8c-1.4,0-2.5,1.1-2.5,2.5c0,0.1,0,0.2,0,0.3c-0.8,0.1-1.7,0.5-2.2,1.2
							c-0.2,0.3-0.3,0.6-0.4,0.9c-0.5,0-1.1,0.3-1.4,0.8c-0.3,0.5-0.3,1-0.1,1.5c-1,0.7-1.7,1.9-1.7,3.2c0,2,1.4,3.6,3.3,3.9
							c-0.3,0.7-0.3,1.6,0,2.4c0.7,1.4,2.3,2,3.7,1.4c-0.1,0.2-0.2,0.5-0.2,0.8c0,1.1,0.8,1.9,1.9,1.9s1.9-0.8,1.9-1.9V8.3
							C23,6.9,21.9,5.8,20.5,5.8z"/>
						<path fill="#F7B64C" d="M21.1,27.1c-1.3,0-2.4-1.1-2.4-2.4c0,0,0-0.1,0-0.1c-1.4,0.2-2.8-0.5-3.5-1.9
							c-0.3-0.7-0.4-1.5-0.2-2.2c-1.9-0.6-3.1-2.3-3.1-4.2c0-1.3,0.6-2.6,1.6-3.4c-0.1-0.5,0-1.1,0.2-1.5c0.3-0.5,0.8-0.9,1.4-1
							c0.1-0.3,0.2-0.5,0.4-0.7c0.5-0.7,1.2-1.2,2-1.4c0-1.6,1.4-2.9,3-2.9c1.6,0,3,1.3,3,3v16.4C23.5,26,22.4,27.1,21.1,27.1z
							 M19.4,23.4c0.1,0,0.3,0,0.3,0.1c0.1,0.1,0.2,0.4,0.1,0.5c-0.1,0.2-0.1,0.4-0.1,0.6c0,0.8,0.6,1.4,1.4,1.4
							c0.8,0,1.4-0.6,1.4-1.4V8.3c0-1.1-0.9-2-2-2c-1.1,0-2,0.9-2,2c0,0.1,0,0.1,0,0.2l0,0.1c0,0.1,0,0.3-0.1,0.4
							c-0.1,0.1-0.2,0.2-0.3,0.2c-0.7,0-1.4,0.4-1.8,1c-0.1,0.2-0.2,0.4-0.3,0.8c-0.1,0.2-0.2,0.4-0.5,0.4c-0.4,0-0.8,0.2-1,0.6
							c-0.2,0.3-0.2,0.7-0.1,1c0.1,0.2,0,0.5-0.2,0.6c-0.9,0.6-1.5,1.7-1.5,2.8c0,1.7,1.2,3.1,2.9,3.4c0.2,0,0.3,0.1,0.4,0.3
							c0.1,0.1,0.1,0.3,0,0.4c-0.3,0.6-0.3,1.3,0,1.9c0.5,1.1,1.9,1.6,3,1.1C19.2,23.4,19.3,23.4,19.4,23.4z"/>
					</g>
				</g>
			</g>
			<g>
				<g>
					<path fill="#F7B64C" d="M20.2,9.7c0.3,0,0.5-0.2,0.5-0.5c0-0.3-0.2-0.5-0.5-0.6c-0.9-0.1-1.7-0.5-2.1-0.9C18,8,18,8.3,18,8.6
						c0,0.1,0,0.2,0,0.3C18.6,9.3,19.3,9.7,20.2,9.7C20.2,9.7,20.2,9.7,20.2,9.7z"/>
				</g>
			</g>
			<g>
				<g>
					<g>
						<path fill="#F7B64C" d="M17.7,13.4C17.7,13.4,17.7,13.4,17.7,13.4c0.3,0,0.6-0.2,0.6-0.4c0.1-0.3-0.1-0.6-0.4-0.6
							c-1.3-0.3-1.8-1.1-2-1.6c0,0,0,0,0,0c-0.4,0-0.7,0.2-1,0.4C15.2,12,16,13.1,17.7,13.4z"/>
					</g>
				</g>
				<g>
					<g>
						<g>
							<path fill="#F7B64C" d="M15.8,12.4v-0.6c-0.5,0.4-1.1,1.4-0.5,2.8c0.1,0.2,0.4,0.4,0.7,0.3c0.3-0.1,0.4-0.4,0.3-0.7
								c-0.5-1.1,0.2-1.6,0.2-1.6c0.1-0.1,0.1-0.1,0.2-0.2H15.8z"/>
						</g>
					</g>
				</g>
			</g>
			<g>
				<g>
					<g>
						<path fill="#F7B64C" d="M16.8,19.5c0.3-0.7,0.2-1.5-0.2-2.3c-0.1-0.3-0.4-0.4-0.7-0.2c-0.3,0.1-0.4,0.4-0.2,0.7
							c0.3,0.5,0.3,1,0.2,1.4c-0.3,0.7-1.3,1.1-1.3,1.1c0,0-0.1,0-0.1,0.1c0.5,0.2,1,0.3,1.5,0.3c0,0,0,0,0,0
							C16.3,20.3,16.6,20,16.8,19.5z"/>
					</g>
				</g>
				<g>
					<g>
						<path fill="#F7B64C" d="M19.2,19c-0.3-0.8-0.8-1.1-1.2-1.2c-0.6-0.2-1.2-0.1-1.5,0.1c0,0.3-0.1,0.7-0.4,1c0,0,0,0,0,0
							c0.2,0.1,0.4,0.2,0.6,0.1c0,0,0.5-0.3,1-0.1c0.2,0.1,0.4,0.3,0.5,0.6c0.1,0.2,0.3,0.3,0.5,0.3c0.1,0,0.1,0,0.2,0
							C19.1,19.6,19.3,19.3,19.2,19z"/>
					</g>
				</g>
			</g>
			<g>
				<g>
					<g>
						<path fill="#F7B64C" d="M20.6,23.4c0.2-0.1,0.5-0.1,0.7,0c0.3,0.1,0.6,0,0.7-0.3c0.1-0.3,0-0.6-0.3-0.7c-0.5-0.2-1-0.2-1.5,0
							c-0.8,0.4-1.4,1.3-1.8,2c0.5,0,0.9,0,1.4-0.2C20,23.8,20.3,23.5,20.6,23.4z"/>
					</g>
				</g>
				<g>
					<g>
						<g>
							<path fill="#F7B64C" d="M19.6,23.1C19.6,23.1,19.6,23.1,19.6,23.1c0.3,0,0.7,0.1,1,0.1c0.3-1.2-0.6-2.2-1.1-2.5
								c-0.2-0.2-0.6-0.1-0.7,0.2c-0.2,0.2-0.1,0.6,0.1,0.7C19,21.6,19.9,22.2,19.6,23.1z"/>
						</g>
					</g>
				</g>
			</g>
			<g>
				<g>
					<path fill="#F7B64C" d="M21.5,16.1c-0.7,0.4-1.7,1.5-1,3.6c0.1,0.2,0.4,0.3,0.6,0.3c0.3-0.1,0.5-0.4,0.4-0.7
						C21,17.6,21.9,17.1,22,17c0.1-0.1,0.2-0.2,0.3-0.3C22,16.5,21.7,16.3,21.5,16.1z"/>
				</g>
			</g>
			<g>
				<g>
					<path fill="#F7B64C" d="M19.5,11.5c-0.1,0.3,0,0.6,0.2,0.7c0.1,0,0.2,0.1,0.2,0.1c0.2,0,0.4-0.1,0.5-0.3
						c0.6-1.2,1.8-1.3,2.5-1.2V9.7C21.8,9.6,20.2,9.9,19.5,11.5z"/>
				</g>
				<g>
					<path fill="#F7B64C" d="M22,16c-0.3-0.3-0.4-0.7-0.4-1.2c0-0.3-0.2-0.5-0.5-0.5c-0.3,0-0.5,0.2-0.5,0.5c0,0.8,0.3,1.5,0.8,2
						c0.5,0.4,1.1,0.6,1.6,0.7v-1.1C22.6,16.4,22.3,16.3,22,16z"/>
				</g>
			</g>
			<g>
				<g>
					<g>
						<path fill="#FFD15C" d="M27.5,5.8c1.4,0,2.5,1.1,2.5,2.5c0,0.1,0,0.2,0,0.3c0.8,0.1,1.7,0.5,2.2,1.2c0.2,0.3,0.3,0.6,0.4,0.9
							c0.5,0,1.1,0.3,1.4,0.8c0.3,0.5,0.3,1,0.1,1.5c1,0.7,1.7,1.9,1.7,3.2c0,2-1.4,3.6-3.3,3.9c0.3,0.7,0.3,1.6,0,2.4
							c-0.7,1.4-2.3,2-3.7,1.4c0.1,0.2,0.2,0.5,0.2,0.8c0,1.1-0.8,1.9-1.9,1.9S25,25.7,25,24.7V8.3C25,6.9,26.1,5.8,27.5,5.8z"/>
					</g>
				</g>
			</g>
			<g>
				<g>
					<g>
						<path fill="#FFD15C" d="M27.5,5.8c1.4,0,2.5,1.1,2.5,2.5c0,0.1,0,0.2,0,0.3c0.8,0.1,1.7,0.5,2.2,1.2c0.2,0.3,0.3,0.6,0.4,0.9
							c0.5,0,1.1,0.3,1.4,0.8c0.3,0.5,0.3,1,0.1,1.5c1,0.7,1.7,1.9,1.7,3.2c0,2-1.4,3.6-3.3,3.9c0.3,0.7,0.3,1.6,0,2.4
							c-0.7,1.4-2.3,2-3.7,1.4c0.1,0.2,0.2,0.5,0.2,0.8c0,1.1-0.8,1.9-1.9,1.9S25,25.7,25,24.7V8.3C25,6.9,26.1,5.8,27.5,5.8z"/>
						<path fill="#F7B64C" d="M24.5,24.7V8.3c0-1.6,1.3-3,3-3c1.6,0,2.9,1.3,3,2.9c0.8,0.2,1.6,0.7,2,1.4c0.1,0.2,0.3,0.5,0.4,0.7
							c0.6,0.1,1.1,0.5,1.4,1c0.3,0.5,0.3,1,0.2,1.5c1,0.8,1.6,2.1,1.6,3.4c0,2-1.3,3.7-3.1,4.2c0.2,0.7,0.1,1.5-0.2,2.2
							c-0.6,1.3-2.1,2.1-3.5,1.9c0,0,0,0.1,0,0.1c0,1.3-1.1,2.4-2.4,2.4C25.6,27.1,24.5,26,24.5,24.7z M28.8,23.5
							c1.2,0.5,2.5,0,3-1.1c0.3-0.6,0.3-1.3,0-1.9c-0.1-0.1-0.1-0.3,0-0.4c0.1-0.1,0.2-0.2,0.4-0.3c1.7-0.3,2.9-1.7,2.9-3.4
							c0-1.1-0.6-2.2-1.5-2.8c-0.2-0.1-0.3-0.4-0.2-0.6c0.1-0.3,0.1-0.7-0.1-1c-0.2-0.3-0.6-0.6-1-0.6c-0.2,0-0.4-0.2-0.5-0.4
							c-0.1-0.3-0.2-0.5-0.3-0.8c-0.4-0.6-1.1-1-1.8-1c-0.1,0-0.3-0.1-0.3-0.2c-0.1-0.1-0.1-0.2-0.1-0.4l0-0.1c0-0.1,0-0.1,0-0.2
							c0-1.1-0.9-2-2-2c-1.1,0-2,0.9-2,2v16.4c0,0.8,0.6,1.4,1.4,1.4c0.8,0,1.4-0.6,1.4-1.4c0-0.2,0-0.4-0.1-0.6
							c-0.1-0.2,0-0.4,0.1-0.5c0.1-0.1,0.2-0.1,0.3-0.1C28.7,23.4,28.8,23.4,28.8,23.5z"/>
					</g>
				</g>
			</g>
			<g>
				<g>
					<path fill="#F7B64C" d="M28,9.7c-0.3,0-0.5-0.3-0.5-0.6c0-0.3,0.3-0.5,0.6-0.5c0.9,0.1,1.7-0.3,2.2-0.7
						c0.1,0.3,0.1,0.6,0.1,0.9c0,0.1,0,0.2-0.1,0.3C29.7,9.5,28.9,9.7,28,9.7C28,9.7,28,9.7,28,9.7z"/>
				</g>
			</g>
			<g>
				<g>
					<g>
						<path fill="#F7B64C" d="M30.4,13C30.4,13,30.3,13,30.4,13c-0.3,0-0.6-0.2-0.6-0.4c-0.1-0.3,0.1-0.6,0.4-0.6
							c1.3-0.3,1.8-1.1,2-1.6c0,0,0,0,0,0c0.4,0,0.7,0.2,1,0.4C32.9,11.7,32.1,12.7,30.4,13z"/>
					</g>
				</g>
				<g>
					<g>
						<g>
							<path fill="#F7B64C" d="M31.8,12.3v-0.6c0.5,0.4,1.1,1.4,0.5,2.8c-0.1,0.2-0.4,0.4-0.7,0.3c-0.3-0.1-0.4-0.4-0.3-0.7
								c0.5-1.1-0.2-1.6-0.2-1.6c-0.1-0.1-0.1-0.1-0.2-0.2H31.8z"/>
						</g>
					</g>
				</g>
			</g>
			<g>
				<g>
					<path fill="#F7B64C" d="M31.2,19.9c-0.6-0.5-0.9-1.2-1-2.1c0-0.3,0.2-0.5,0.5-0.6c0.3,0,0.5,0.2,0.6,0.5c0,0.6,0.2,1,0.5,1.3
						c0.6,0.5,1.6,0.3,1.6,0.3c0,0,0.1,0,0.1,0c-0.3,0.4-0.7,0.8-1.1,1c0,0,0,0,0,0C32,20.3,31.6,20.2,31.2,19.9z"/>
				</g>
			</g>
			<g>
				<g>
					<path fill="#F7B64C" d="M28.5,20.1c0.1-0.8,0.6-1.2,0.9-1.4c0.5-0.3,1.1-0.3,1.5-0.3c0.1,0.3,0.3,0.6,0.6,0.9c0,0,0,0,0,0
						c-0.1,0.2-0.4,0.3-0.6,0.2c0,0-0.6-0.2-1,0.1c-0.2,0.1-0.3,0.4-0.4,0.7c0,0.2-0.2,0.4-0.4,0.4c-0.1,0-0.1,0-0.2,0
						C28.6,20.7,28.4,20.4,28.5,20.1z"/>
				</g>
			</g>
			<g>
				<g>
					<g>
						<path fill="#F7B64C" d="M28.7,24.3l0.7-0.1c-0.2-0.6-0.4-1.4-1-1.8C28,22,27.5,21.8,27,21.8c-0.3,0-0.5,0.3-0.5,0.6
							c0,0.3,0.3,0.5,0.6,0.5c0.3,0,0.5,0.1,0.7,0.2c0.3,0.2,0.4,0.6,0.6,1c0.2,0.1,0.3,0.2,0.5,0.3L28.7,24.3z"/>
					</g>
				</g>
				<g>
					<g>
						<g>
							<path fill="#F7B64C" d="M28.3,23.3C28.3,23.3,28.3,23.3,28.3,23.3c-0.3-0.2-0.6-0.4-0.9-0.6c0.6-1.1,1.9-1.2,2.5-1.1
								c0.3,0,0.5,0.3,0.4,0.6c0,0.3-0.3,0.5-0.6,0.4C29.8,22.6,28.7,22.4,28.3,23.3z"/>
						</g>
					</g>
				</g>
			</g>
			<g>
				<g>
					<path fill="#F7B64C" d="M26.5,14.2c0.7-0.4,1.7-1.5,1-3.6c-0.1-0.2-0.4-0.3-0.6-0.3c-0.3,0.1-0.5,0.4-0.4,0.7
						c0.6,1.6-0.4,2.2-0.5,2.3c-0.1,0.1-0.2,0.2-0.3,0.3C26,13.8,26.3,13.9,26.5,14.2z"/>
				</g>
			</g>
			<g>
				<g>
					<path fill="#F7B64C" d="M27.6,19.4c-0.1,0-0.1,0.1-0.2,0.1c-0.2,0-0.4-0.1-0.5-0.3c-0.4-0.8-1.1-1.1-1.8-1.2v-1.1
						c1,0.1,2.1,0.5,2.7,1.8C28,19,27.9,19.3,27.6,19.4z"/>
				</g>
				<g>
					<path fill="#F7B64C" d="M26,14.2c0.3,0.3,0.4,0.7,0.4,1.2c0,0.3,0.2,0.5,0.5,0.5c0.3,0,0.5-0.2,0.5-0.5c0-0.8-0.3-1.5-0.8-2
						c-0.5-0.4-1.1-0.6-1.6-0.7v1.1C25.4,13.9,25.7,14,26,14.2z"/>
				</g>
			</g>
		</g>
	</g>
</g>
</svg>
