<?xml version="1.0" encoding="utf-8"?>
<!-- Generator: Adobe Illustrator 18.0.0, SVG Export Plug-In . SVG Version: 6.00 Build 0)  -->
<!DOCTYPE svg PUBLIC "-//W3C//DTD SVG 1.1//EN" "http://www.w3.org/Graphics/SVG/1.1/DTD/svg11.dtd">
<svg version="1.1" id="Layer_1" xmlns="http://www.w3.org/2000/svg" xmlns:xlink="http://www.w3.org/1999/xlink" x="0px" y="0px"
	 viewBox="0 0 48 48" enable-background="new 0 0 48 48" xml:space="preserve">
<g>
	<g>
		<g>
			<g>
				<path fill="#E8EAE9" d="M45.3,11v31.5c0,1.6-1.3,2.8-2.8,2.8H2.8c-1.6,0-2.8-1.3-2.8-2.8V11H45.3z"/>
			</g>
			<g>
				<path fill="#8AD7F8" d="M45.3,2.8V11H0V2.8C0,1.3,1.3,0,2.8,0h39.7C44.1,0,45.3,1.3,45.3,2.8z"/>
			</g>
			<g>
				<g>
					<circle fill="#FFFFFF" cx="6.7" cy="5.5" r="2"/>
				</g>
				<g>
					<circle fill="#FFFFFF" cx="13.1" cy="5.5" r="2"/>
				</g>
				<g>
					<circle fill="#FFFFFF" cx="19.4" cy="5.5" r="2"/>
				</g>
			</g>
		</g>
		<g>
			
				<rect x="33.7" y="33.7" transform="matrix(0.7071 -0.7071 0.7071 0.7071 -15.0646 36.3693)" fill="#344A5E" width="5.4" height="5.4"/>
			<circle fill="#FFFFFF" cx="27" cy="27" r="10.7"/>
			<path fill="#415A6B" d="M35.8,35.8c-4.8,4.8-12.7,4.8-17.6,0s-4.8-12.7,0-17.6c4.8-4.8,12.7-4.8,17.6,0
				C40.7,23.1,40.7,31,35.8,35.8z M20.6,20.6c-3.5,3.5-3.5,9.3,0,12.8c3.5,3.5,9.3,3.5,12.8,0c3.5-3.5,3.5-9.3,0-12.8
				S24.2,17.1,20.6,20.6z"/>
			<path fill="#F3705A" d="M36,42.1l4.6,4.6c1.7,1.7,4.4,1.7,6.1,0c1.7-1.7,1.7-4.4,0-6.1L42.1,36L36,42.1z"/>
			<g>
				<g>
					<path fill="#F3F3F3" d="M42.3,36.2l-6.1,6.1c-0.5,0.5-1.4,0.5-1.9,0c-0.5-0.5-0.5-1.4,0-1.9l6.1-6.1c0.5-0.5,1.4-0.5,1.9,0
						C42.8,34.8,42.8,35.7,42.3,36.2z"/>
				</g>
			</g>
			<path fill="#F3705A" d="M32.8,24.5L26.2,31c-0.4,0.4-1,0.4-1.4,0l-3.5-3.5c-0.4-0.4-0.4-1,0-1.4c0.4-0.4,1-0.4,1.4,0l2.8,2.8
				l5.9-5.9c0.4-0.4,1-0.4,1.4,0C33.2,23.4,33.2,24.1,32.8,24.5z"/>
		</g>
	</g>
</g>
</svg>
