<?xml version="1.0" encoding="utf-8"?>
<!-- Generator: Adobe Illustrator 18.0.0, SVG Export Plug-In . SVG Version: 6.00 Build 0)  -->
<!DOCTYPE svg PUBLIC "-//W3C//DTD SVG 1.1//EN" "http://www.w3.org/Graphics/SVG/1.1/DTD/svg11.dtd">
<svg version="1.1" id="Layer_1" xmlns="http://www.w3.org/2000/svg" xmlns:xlink="http://www.w3.org/1999/xlink" x="0px" y="0px"
	 viewBox="0 0 48 48" enable-background="new 0 0 48 48" xml:space="preserve">
<g>
	<path fill="#FF7058" d="M34.3,39.4c-1.2-2-2.6-1.5-2.6-1.5H16.3c0,0-1.4-0.5-2.6,1.5c0,0-8.6,1.8-13.7,5.2v3.5h47.9v-3.5
		C42.8,41.2,34.3,39.4,34.3,39.4z"/>
	<path fill="#FF7058" d="M48,44.6v3.5H0.1v-3.5c5.1-3.4,13.7-5.2,13.7-5.2c0.2-0.3,0.3-0.5,0.5-0.7c0.6-0.7,1.2-0.8,1.6-0.8
		c0.3,0,0.5,0.1,0.5,0.1h15.3c0,0,0.2-0.1,0.5-0.1c0.4,0,1,0.2,1.6,0.9c0.2,0.2,0.3,0.4,0.5,0.7C34.3,39.4,42.8,41.2,48,44.6z"/>
	<path fill="#F8B64C" d="M34.8,45.4c-7.2,2.9-14.4,2.9-21.6,0c3.6-5.8,3.6-11.6,0-17.4c7.2-2.9,14.4-2.9,21.6,0
		C31.2,33.9,31.2,39.6,34.8,45.4z"/>
	<ellipse transform="matrix(0.9786 0.2057 -0.2057 0.9786 6.0434 -6.8819)" fill="#F8B64C" cx="36.1" cy="25.6" rx="1.4" ry="3.5"/>
	
		<ellipse transform="matrix(-0.9786 0.2057 -0.2057 -0.9786 28.7588 48.2702)" fill="#F8B64C" cx="11.9" cy="25.6" rx="1.4" ry="3.5"/>
	<path fill="#FFD15C" d="M34.5,11.6H24H13.4l-2.3,10.7l2.2,7.3c2.5,10.7,10.6,10,10.6,10s8.1,0.7,10.6-10l2.2-7.3L34.5,11.6z"/>
	<path fill="#40596B" d="M31,0.5c-2.9-0.9-6-0.8-8.8,0.2c-8.6,0-15.5,7.7-15.5,17.2c0,6.3,3.1,11.8,7.7,14.8
		c-0.7-2.2-3-9.8-0.1-13.2c3.4-4,3.9-6.6,3.9-6.6s0.3,3.8,4.5,5c0,0-2.5-2.2-2.3-5.7c0,0,2.3,5.6,9.5,7c0,0-4.5-2.3-5-5.2
		c0,0,3.3,4.3,8.4,6.4c0,0-1.7-1.6-1.9-2.2c0,0,2.1,2,3.1,2.4c0,0,1.7,3.4-0.6,11.6c2.9-2.3,5.2-5.6,6.5-9.6
		C43.3,12.9,39.2,3.1,31,0.5z"/>
</g>
</svg>
