<?xml version="1.0" encoding="utf-8"?>
<!-- Generator: Adobe Illustrator 19.0.1, SVG Export Plug-In . SVG Version: 6.00 Build 0)  -->
<svg version="1.1" id="Layer_1" xmlns="http://www.w3.org/2000/svg" xmlns:xlink="http://www.w3.org/1999/xlink" x="0px" y="0px"
	 viewBox="0 0 48 48" style="enable-background:new 0 0 48 48;" xml:space="preserve">
<style type="text/css">
	.st0{fill:#FFD15C;}
	.st1{fill:#415A6B;}
	.st2{fill:#F7B64C;}
	.st3{fill:#CED6E0;}
	.st4{fill:#344A5E;}
	.st5{fill:#F3F3F3;}
	.st6{fill:#F05540;}
	.st7{fill:#F3705A;}
	.st8{fill:#66C6B9;}
	.st9{fill:#55C0EB;}
	.st10{fill:#F5F6FB;}
	.st11{fill:#4ABAA5;}
	.st12{fill:#ADB3BA;}
	.st13{fill:#E8EAE9;}
	.st14{fill:#2E4556;}
	.st15{fill:#8AD7F8;}
	.st16{fill:#FFFFFF;}
	.st17{fill:#E54838;}
	.st18{fill:#3EAF99;}
	.st19{fill:#EFA943;}
	.st20{fill:#4CAEE5;}
	.st21{fill:#293F4F;}
	.st22{fill:#2D4456;}
	.st23{fill:#2E4454;}
	.st24{fill:#2A3F4F;}
	.st25{fill:#2D4151;}
	.st26{fill:#E89E3D;}
	.st27{fill:#2B4151;}
	.st28{fill:#2A4051;}
	.st29{fill:#2C4151;}
	.st30{fill:#EBEAE8;}
	.st31{fill:#3AA590;}
	.st32{fill:#E84534;}
	.st33{fill:none;}
</style>
<g>
	<g>
		<g>
			<g>
				<path class="st1" d="M1.5,32.5l0,2h3.3l0-2c0-4.2,0.1-8.4,0.4-12.6c0.1-1,0.1-2.1,0.1-3.3c0-7.4-0.4-10.1-0.9-11.1H2
					C1.4,6.5,1,9.2,1,16.6c0,1.1,0,2.2,0.1,3.3C1.3,24.1,1.5,28.3,1.5,32.5z"/>
			</g>
			<g>
				<path class="st1" d="M4.7,34.5v0.6c0,3.1-0.6,6.2-1.6,9.1c-1.1-2.9-1.6-6-1.6-9.1l0-0.6H4.7z"/>
			</g>
			<g>
				<path class="st7" d="M1.5,35.2c0,0.8,0,1.6,0.1,2.4h3c0.1-0.8,0.1-1.6,0.1-2.4c0,0,0-3.9,0-4.5H1.5C1.5,31.3,1.5,35.2,1.5,35.2z
					"/>
			</g>
			<g>
				<path class="st7" d="M4,4.6l0,0.9H2.2l0-0.9c0-0.5,0.4-0.9,0.9-0.9C3.6,3.8,4,4.1,4,4.6z"/>
			</g>
			<g>
				<g>
					<path class="st7" d="M5.1,12.4c-0.5-0.8-1.2-1.3-2-1.3c-0.8,0-1.6,0.5-2,1.3c0-1.2,0.1-2.1,0.1-3c0.3-0.5,0.7-1,0.9-1.6
						C2.3,7.3,2.7,7,3.1,7c0.4,0,0.8,0.3,1,0.9C4.3,8.4,4.7,9,5,9.5C5.1,10.3,5.1,11.3,5.1,12.4z"/>
				</g>
				<g>
					<ellipse class="st7" cx="3.1" cy="14.9" rx="0.9" ry="6.9"/>
				</g>
			</g>
		</g>
		<g>
			<g>
				<path class="st3" d="M46.9,8.4l-6.5,37.1c-0.3,1.6-1.8,2.7-3.5,2.5L9,43.1c-1.6-0.3-2.7-1.8-2.5-3.5L13,2.5
					c0.3-1.6,1.8-2.7,3.5-2.5l28,4.9C46.1,5.2,47.2,6.8,46.9,8.4z"/>
			</g>
			<g>
				<g>
					<path class="st13" d="M41.2,2.2L18,2.2l-8.5,8.5l0,32.4c0,1.5,1.2,2.7,2.7,2.7h29c1.5,0,2.7-1.2,2.7-2.7V4.9
						C44,3.4,42.7,2.2,41.2,2.2z"/>
				</g>
				<g>
					<rect x="13.6" y="39.3" class="st12" width="26.3" height="1.7"/>
				</g>
				<g>
					<rect x="13.6" y="35" class="st12" width="26.3" height="1.7"/>
				</g>
				<g>
					<rect x="13.6" y="30.8" class="st12" width="16.7" height="1.7"/>
				</g>
				<g>
					<g>
						<g>
							<path class="st1" d="M34.7,22.3c-0.4,0-0.8-0.4-0.8-0.8v-9.4H19.5v9.4c0,0.4-0.4,0.8-0.8,0.8c-0.4,0-0.8-0.4-0.8-0.8V11.3
								c0-0.4,0.4-0.8,0.8-0.8h16c0.4,0,0.8,0.4,0.8,0.8v10.2C35.5,22,35.1,22.3,34.7,22.3z"/>
						</g>
					</g>
					<g>
						<g>
							<rect x="14.7" y="18.2" class="st7" width="8" height="8"/>
							<rect x="30.7" y="18.2" class="st8" width="8" height="8"/>
						</g>
						<rect x="22.7" y="7.3" class="st0" width="8" height="8"/>
					</g>
				</g>
				<g>
					<path class="st12" d="M15,10.7c1.7,0,3-1.4,3-3V2.2l-8.5,8.5L15,10.7z"/>
				</g>
			</g>
		</g>
	</g>
</g>
</svg>
