<?xml version="1.0" encoding="utf-8"?>
<!-- Generator: Adobe Illustrator 18.0.0, SVG Export Plug-In . SVG Version: 6.00 Build 0)  -->
<!DOCTYPE svg PUBLIC "-//W3C//DTD SVG 1.1//EN" "http://www.w3.org/Graphics/SVG/1.1/DTD/svg11.dtd">
<svg version="1.1" id="Layer_1" xmlns="http://www.w3.org/2000/svg" xmlns:xlink="http://www.w3.org/1999/xlink" x="0px" y="0px"
	 viewBox="0 0 48 48" enable-background="new 0 0 48 48" xml:space="preserve">
<g>
	<g>
		<g>
			<g>
				<path fill="#415A6B" d="M32.6,37.9H15.4c-1.5,0-2.7,1.2-2.7,2.7V48h22.5v-7.4C35.2,39.1,34,37.9,32.6,37.9z"/>
			</g>
			<g>
				<path fill="#F7B64C" d="M32.3,37.9c-3.1-0.4-5.5-3-5.5-6.3v-6.5h-5.6v6.5c0,3.2-2.4,5.9-5.5,6.3H32.3z"/>
			</g>
			<g>
				<g>
					<g>
						<path fill="#FFD15C" d="M44.6,5c-1.4-2-3.6-3.2-6.1-3.2c-1.1,0-2.1,0.2-3.1,0.6v3.3c1-0.5,2.1-0.8,3.1-0.8
							c1.6,0,2.8,0.6,3.6,1.8c1.3,2,1.4,5.3,0.2,8.5c-1.4,3.5-4.2,6.2-6.9,7v3.1c4-0.8,7.9-4.4,9.7-9C46.7,12.2,46.5,7.9,44.6,5z"/>
					</g>
				</g>
				<g>
					<g>
						<path fill="#FFD15C" d="M12.5,22.2c-2.7-0.9-5.4-3.6-6.8-7C4.5,12,4.5,8.7,5.9,6.7c0.8-1.2,2.1-1.8,3.6-1.8c1,0,2,0.3,3,0.8
							V2.4c-1-0.3-2-0.5-3-0.5C6.9,1.9,4.8,3,3.4,5c-1.9,2.8-2.1,7.1-0.5,11.3c1.8,4.6,5.7,8.1,9.6,9V22.2z"/>
					</g>
				</g>
			</g>
			<path fill="#FFD15C" d="M10.8,0v20.5c0,7.3,5.9,13.2,13.2,13.2c7.3,0,13.2-5.9,13.2-13.2V0H10.8z"/>
		</g>
		<g>
			<g>
				<g>
					<path fill="#344A5E" d="M44.6,11.5l-17,17l-11.8-6.1c-0.4-0.2-0.8-0.1-1.1,0.2L2.4,34.9c-0.4,0.4-0.4,0.9,0,1.3
						c0.4,0.4,0.9,0.4,1.3,0l11.9-11.9l11.8,6.1c0.4,0.2,0.8,0.1,1.1-0.2l17.5-17.5C45.1,12.7,44.7,12.1,44.6,11.5z"/>
				</g>
			</g>
			<g>
				<g>
					<polygon fill="#344A5E" points="48,9.4 46.5,15.3 42,10.8 					"/>
				</g>
			</g>
			<g>
				<g>
					<g>
						<circle fill="#8AD7F8" cx="27.7" cy="29.6" r="3"/>
					</g>
				</g>
				<g>
					<g>
						<circle fill="#55C0EB" cx="27.7" cy="29.6" r="1.6"/>
					</g>
				</g>
			</g>
			<g>
				<g>
					<g>
						<circle fill="#F3705A" cx="15.4" cy="23.3" r="3"/>
					</g>
				</g>
				<g>
					<g>
						<circle fill="#F05540" cx="15.4" cy="23.3" r="1.6"/>
					</g>
				</g>
			</g>
			<g>
				<g>
					<g>
						<circle fill="#66C6B9" cx="3" cy="35.6" r="3"/>
					</g>
				</g>
				<g>
					<g>
						<circle fill="#4ABAA5" cx="3" cy="35.6" r="1.6"/>
					</g>
				</g>
			</g>
		</g>
	</g>
</g>
</svg>
