<?xml version="1.0" encoding="utf-8"?>
<!-- Generator: Adobe Illustrator 18.0.0, SVG Export Plug-In . SVG Version: 6.00 Build 0)  -->
<!DOCTYPE svg PUBLIC "-//W3C//DTD SVG 1.1//EN" "http://www.w3.org/Graphics/SVG/1.1/DTD/svg11.dtd">
<svg version="1.1" id="Layer_1" xmlns="http://www.w3.org/2000/svg" xmlns:xlink="http://www.w3.org/1999/xlink" x="0px" y="0px"
	 viewBox="0 0 48 48" enable-background="new 0 0 48 48" xml:space="preserve">
<g>
	<g>
		<g>
			<g>
				<path fill="#F7B64C" d="M21.7,32.1L0,29.6v11.1L7.7,41l17.2,0.6l0.1,0V32C23.5,32.4,21.7,32.1,21.7,32.1z"/>
			</g>
			<g>
				<g>
					<path fill="#F7B64C" d="M5.4,38.7c0.1,0.7,0.3,1.5,0.5,2.2L7.8,41l12.7,0.5c0.2-0.8-0.6-5-0.8-5.8c0-0.3-0.1-1.9,0.1-3
						c0-0.2,0.2-0.4,0.4-0.5c0.1,0,0.2-0.1,0.3-0.1c0.2,0,0.4,0,0.6-0.1c0.1,0,0.2,0,0.3,0c0,0,0,0,0,0c-0.9-0.3-10.2-1.2-16.3-1.9
						c0,0.3-0.1,0.6-0.1,1C4.4,34.3,5.4,38.6,5.4,38.7z"/>
					<g>
						<path fill="#FFD15C" d="M20.1,28.9c0,0-1.7-1.1-3.2-2.6c-1.4-1.5-0.9-4.7-0.9-4.7L18.4,0H7.3L7,7.5L6.4,24.7l-0.2,1.5
							c0,0-0.7,1.7-1.1,4.9c-0.4,3.2,0.7,7.5,0.7,7.5C6,40.5,7,42.9,7,42.9s0.5,1.3,1.8,1.1c1.3-0.3,1.3-1,1.3-1s0.4,0.7,1.6,0.7
							c1.2,0,1.5-0.9,1.5-0.9s0.7,1.3,2.1,0.9c1.4-0.5,1.3-1.6,1.3-1.6c0.2,0.3,1.3,1.6,2.4,1.1c1.1-0.4,1.4-1.2,1.4-2.7
							c0-0.9-0.8-4.9-0.8-4.9s-0.1-1.9,0.1-3.1c0.1-0.8,0.8-0.8,1.2-0.7c0,0,0.2,0,0.3,0.1C21.5,30.1,20.1,28.9,20.1,28.9z"/>
					</g>
					<path fill="#F7B64C" d="M10.2,43.3c0,0,0-0.1,0-0.1c0-0.1-0.1-0.3-0.1-0.5c0-0.2-0.1-0.3-0.1-0.5c0-0.2-0.1-0.3-0.1-0.5
						c-0.1-0.3-0.2-0.7-0.3-1c-0.1-0.3-0.2-0.6-0.3-0.8C9.1,39.7,9,39.5,9,39.3c-0.1-0.1-0.1-0.2-0.1-0.2s0,0.1,0.1,0.2
						c0,0.1,0.1,0.4,0.2,0.6c0.1,0.2,0.2,0.5,0.3,0.8c0.1,0.3,0.2,0.6,0.3,1c0.1,0.3,0.2,0.7,0.3,1c0,0.1,0.1,0.2,0.1,0.3
						c0,0,0,0,0,0S10.1,43.1,10.2,43.3z"/>
					<path fill="#F7B64C" d="M16.4,41.3c0-0.1-0.1-0.3-0.1-0.4c0-0.1-0.1-0.3-0.1-0.4c-0.1-0.3-0.1-0.5-0.2-0.8
						c-0.1-0.4-0.2-0.7-0.2-0.7s0,0.1,0,0.2c0,0.1,0,0.3,0,0.6c0,0.1,0,0.2,0,0.4c0,0.1,0,0.3,0.1,0.4c0,0.3,0.1,0.6,0.2,0.9
						c0,0.1,0.1,0.3,0.1,0.4c0,0.1,0.1,0.3,0.1,0.4c0,0.1,0.1,0.2,0.3,0.3c0-0.1-0.1-0.2-0.1-0.3C16.5,41.9,16.5,41.6,16.4,41.3z"/>
					<path fill="#F7B64C" d="M16.8,42.6c0,0-0.9-3.6-1-4c0,0-0.1,1.2,0.7,3.8l0-0.1C16.4,42.2,16.6,42.4,16.8,42.6z"/>
					<g>
						<path fill="#F7B64C" d="M13.1,42.9c0,0-0.4-1.2-0.6-2.2c-0.1-0.5-0.2-1-0.5-1.5c0,0,0-0.1,0-0.1s0.4,0.5,0.8,2
							c0,0,0.6,2,0.7,2.2C13.4,43.3,13.1,43,13.1,42.9z"/>
					</g>
				</g>
			</g>
			<path fill="#F7B64C" d="M16.1,20.4c0.4-2.4,1.1-10.3,1.7-15.7"/>
			<g>
				<g>
					<path fill="#F7B64C" d="M9.3,5.2C8.6,5.3,7.8,5.5,7.1,5.7L7,7.5L6.6,20.2c0.8,0.2,5-0.6,5.8-0.8c0.3,0,1.9-0.1,3,0.1
						c0.2,0,0.4,0.2,0.5,0.4c0,0.1,0.1,0.2,0.1,0.3c0,0.2,0,0.4,0.1,0.6c0,0.1,0,0.2,0,0.3c0,0,0,0,0,0c0.3-0.9,1.2-10.2,1.9-16.3
						c-0.3,0-0.6-0.1-1-0.1C13.7,4.1,9.5,5.2,9.3,5.2z"/>
					<g>
						<path fill="#F7B64C" d="M40.5,6.8L23.3,6.2l-1.5-0.2c0,0-1.7-0.7-4.9-1.1c-3.2-0.4-7.5,0.7-7.5,0.7C7.5,5.8,5.1,6.7,5.1,6.7
							S3.8,7.3,4,8.5c0.3,1.3,1,1.3,1,1.3s-0.7,0.4-0.7,1.6c0,1.2,0.9,1.5,0.9,1.5s-1.3,0.7-0.9,2.1c0.5,1.4,1.6,1.3,1.6,1.3
							c-0.3,0.2-1.6,1.3-1.1,2.4C5.2,19.7,5.9,20,7.4,20c0.9,0,4.9-0.8,4.9-0.8s1.9-0.1,3.1,0.1c0.8,0.1,0.8,0.8,0.7,1.2
							c0,0,0,0.2-0.1,0.3c1.8,0.5,3.1-0.9,3.1-0.9s1.1-1.7,2.6-3.2c1.5-1.4,4.7-0.9,4.7-0.9L48,18.2V7.1L40.5,6.8z"/>
					</g>
					<path fill="#FFD15C" d="M4.8,10c0,0,0.1,0,0.1,0C5,10,5.2,9.9,5.3,9.9c0.2,0,0.3-0.1,0.5-0.1c0.2,0,0.3-0.1,0.5-0.1
						c0.3-0.1,0.7-0.2,1-0.3C7.6,9.2,7.9,9.1,8.1,9c0.2-0.1,0.4-0.2,0.6-0.2c0.1-0.1,0.2-0.1,0.2-0.1s-0.1,0-0.2,0.1
						c-0.1,0-0.4,0.1-0.6,0.2C7.8,8.9,7.5,9,7.2,9.1c-0.3,0.1-0.6,0.2-1,0.3c-0.3,0.1-0.7,0.2-1,0.3C5.2,9.7,5.1,9.8,5,9.8
						c0,0,0,0,0,0S4.9,9.9,4.8,10z"/>
					<path fill="#FFD15C" d="M6.7,16.1c0.1,0,0.3-0.1,0.4-0.1c0.1,0,0.3-0.1,0.4-0.1c0.3-0.1,0.5-0.1,0.8-0.2
						c0.4-0.1,0.7-0.2,0.7-0.2s-0.1,0-0.2,0c-0.1,0-0.3,0-0.6,0c-0.1,0-0.2,0-0.4,0c-0.1,0-0.3,0-0.4,0.1c-0.3,0-0.6,0.1-0.9,0.2
						c-0.1,0-0.3,0.1-0.4,0.1c-0.1,0-0.3,0.1-0.4,0.1c-0.1,0-0.2,0.1-0.3,0.3c0.1,0,0.2-0.1,0.3-0.1C6.2,16.3,6.4,16.2,6.7,16.1z"/>
					<path fill="#FFD15C" d="M5.5,16.5c0,0,3.6-0.9,4-1c0,0-1.2-0.1-3.8,0.7l0.1,0C5.8,16.2,5.6,16.4,5.5,16.5z"/>
					<g>
						<path fill="#FFD15C" d="M5.1,12.8c0,0,1.2-0.4,2.2-0.6c0.5-0.1,1-0.2,1.5-0.5c0,0,0.1,0,0.1,0s-0.5,0.4-2,0.8
							c0,0-2,0.6-2.2,0.7C4.7,13.2,5,12.9,5.1,12.8z"/>
					</g>
				</g>
				<g>
					<g>
						<g>
							<path fill="#F7B64C" d="M42.8,9.1c-0.1-0.7-0.3-1.5-0.5-2.2l-1.8-0.1L27.8,6.4c-0.2,0.8,0.6,5,0.8,5.8c0,0.3,0.1,1.9-0.1,3
								c0,0.2-0.2,0.4-0.4,0.5c-0.1,0-0.2,0.1-0.3,0.1c-0.2,0-0.4,0-0.6,0.1c-0.1,0-0.2,0-0.3,0c0,0,0,0,0,0
								c0.9,0.3,10.2,1.2,16.3,1.9c0-0.3,0.1-0.6,0.1-1C43.9,13.5,42.8,9.3,42.8,9.1z"/>
						</g>
						<path fill="#F7B64C" d="M27.6,16c2.4,0.4,10.3,1.1,15.7,1.7"/>
						<g>
							<path fill="#FFD15C" d="M41.2,40.3l0.6-17.2l0.2-1.5c0,0,0.7-1.7,1.1-4.9c0.4-3.2-0.7-7.5-0.7-7.5c-0.3-1.8-1.2-4.2-1.2-4.2
								s-0.5-1.3-1.8-1.1c-1.3,0.3-1.3,1-1.3,1s-0.4-0.7-1.6-0.7c-1.2,0-1.5,0.9-1.5,0.9s-0.7-1.3-2.1-0.9c-1.4,0.5-1.3,1.6-1.3,1.6
								c-0.2-0.3-1.3-1.6-2.4-1.1C28.3,5,28,5.8,28.1,7.2c0,0.9,0.8,4.9,0.8,4.9s0.1,1.9-0.1,3.1C28.7,16,28,16,27.6,16
								c0,0-0.2,0-0.3-0.1c-0.5,1.8,0.9,3.1,0.9,3.1s1.7,1.1,3.2,2.6c1.4,1.5,0.9,4.7,0.9,4.7L29.8,48h11.1L41.2,40.3z"/>
						</g>
						<g>
							<path fill="#F7B64C" d="M38,4.6c0,0,0,0.1,0,0.1c0,0.1,0.1,0.3,0.1,0.5c0,0.2,0.1,0.3,0.1,0.5c0,0.2,0.1,0.3,0.1,0.5
								c0.1,0.3,0.2,0.7,0.3,1c0.1,0.3,0.2,0.6,0.3,0.8c0.1,0.2,0.2,0.4,0.2,0.6c0.1,0.1,0.1,0.2,0.1,0.2s0-0.1-0.1-0.2
								c0-0.1-0.1-0.4-0.2-0.6C39.1,7.6,39,7.4,38.9,7c-0.1-0.3-0.2-0.6-0.3-1c-0.1-0.3-0.2-0.7-0.3-1c0-0.1-0.1-0.2-0.1-0.3
								c0,0,0,0,0,0S38.2,4.7,38,4.6z"/>
						</g>
						<path fill="#F7B64C" d="M31.9,6.5c0,0.1,0.1,0.3,0.1,0.4c0,0.1,0.1,0.3,0.1,0.4c0.1,0.3,0.1,0.5,0.2,0.8
							c0.1,0.4,0.2,0.7,0.2,0.7s0-0.1,0-0.2c0-0.1,0-0.3,0-0.6c0-0.1,0-0.2,0-0.4c0-0.1,0-0.3-0.1-0.4c0-0.3-0.1-0.6-0.2-0.9
							c0-0.1-0.1-0.3-0.1-0.4c0-0.1-0.1-0.3-0.1-0.4c0-0.1-0.1-0.2-0.3-0.3c0,0.1,0.1,0.2,0.1,0.3C31.7,6,31.8,6.3,31.9,6.5z"/>
					</g>
					<path fill="#F7B64C" d="M31.5,5.3c0,0,0.9,3.6,1,4c0,0,0.1-1.2-0.7-3.8l0,0.1C31.8,5.7,31.7,5.4,31.5,5.3z"/>
					<g>
						<path fill="#F7B64C" d="M35.2,5c0,0,0.4,1.2,0.6,2.2c0.1,0.5,0.2,1,0.5,1.5c0,0,0,0.1,0,0.1s-0.4-0.5-0.8-2c0,0-0.6-2-0.7-2.2
							C34.9,4.5,35.1,4.8,35.2,5z"/>
					</g>
				</g>
			</g>
			<g>
				<g>
					<g>
						<path fill="#F7B64C" d="M38.9,42.6c0.7-0.1,1.5-0.3,2.2-0.5l0.1-1.8l0.5-12.7c-0.8-0.2-5,0.6-5.8,0.8c-0.3,0-1.9,0.1-3-0.1
							c-0.2,0-0.4-0.2-0.5-0.4c0-0.1-0.1-0.2-0.1-0.3c0-0.2,0-0.4-0.1-0.6c0-0.1,0-0.2,0-0.3c0,0,0,0,0,0
							c-0.3,0.9-1.2,10.2-1.9,16.3c0.3,0,0.6,0.1,1,0.1C34.5,43.7,38.8,42.7,38.9,42.6z"/>
					</g>
					<path fill="#F7B64C" d="M32.1,27.4c-0.4,2.4-1.1,10.3-1.7,15.7"/>
					<g>
						<path fill="#F7B64C" d="M44.2,39.3c-0.3-1.3-1-1.3-1-1.3s0.7-0.4,0.7-1.6c0-1.2-0.9-1.5-0.9-1.5s1.3-0.7,0.9-2.1
							c-0.5-1.4-1.6-1.3-1.6-1.3c0.3-0.2,1.6-1.3,1.1-2.4c-0.4-1.1-1.2-1.4-2.7-1.4c-0.9,0-4.9,0.8-4.9,0.8s-1.9,0.1-3.1-0.1
							c-0.8-0.1-0.8-0.8-0.7-1.2c0,0,0-0.2,0.1-0.3c-1.8-0.5-3.1,0.9-3.1,0.9s-1.1,1.7-2.6,3.2c-0.5,0.5-1.2,0.7-1.8,0.9v9.6l0.3,0
							l1.5,0.2c0,0,1.7,0.7,4.9,1.1c3.2,0.4,7.5-0.7,7.5-0.7c1.8-0.3,4.2-1.2,4.2-1.2S44.4,40.6,44.2,39.3z"/>
					</g>
					<g>
						<path fill="#FFD15C" d="M43.5,37.8c0,0-0.1,0-0.1,0c-0.1,0-0.3,0.1-0.5,0.1c-0.2,0-0.3,0.1-0.5,0.1c-0.2,0-0.3,0.1-0.5,0.1
							c-0.3,0.1-0.7,0.2-1,0.3c-0.3,0.1-0.6,0.2-0.8,0.3c-0.2,0.1-0.4,0.2-0.6,0.2c-0.1,0.1-0.2,0.1-0.2,0.1s0.1,0,0.2-0.1
							c0.1,0,0.4-0.1,0.6-0.2c0.2-0.1,0.5-0.2,0.8-0.3c0.3-0.1,0.6-0.2,1-0.3c0.3-0.1,0.7-0.2,1-0.3c0.1,0,0.2-0.1,0.3-0.1
							c0,0,0,0,0,0S43.3,38,43.5,37.8z"/>
					</g>
					<path fill="#F7B64C" d="M41.5,31.7c-0.1,0-0.3,0.1-0.4,0.1c-0.1,0-0.3,0.1-0.4,0.1c-0.3,0.1-0.5,0.1-0.8,0.2
						c-0.4,0.1-0.7,0.2-0.7,0.2s0.1,0,0.2,0c0.1,0,0.3,0,0.6,0c0.1,0,0.2,0,0.4,0c0.1,0,0.3,0,0.4-0.1c0.3,0,0.6-0.1,0.9-0.2
						c0.1,0,0.3-0.1,0.4-0.1c0.1,0,0.3-0.1,0.4-0.1c0.1,0,0.2-0.1,0.3-0.3c-0.1,0-0.2,0.1-0.3,0.1C42.1,31.5,41.8,31.6,41.5,31.7z"
						/>
				</g>
				<path fill="#FFD15C" d="M42.8,31.3c0,0-3.6,0.9-4,1c0,0,1.2,0.1,3.8-0.7l-0.1,0C42.4,31.6,42.6,31.5,42.8,31.3z"/>
				<g>
					<path fill="#FFD15C" d="M43.1,35c0,0-1.2,0.4-2.2,0.6c-0.5,0.1-1,0.2-1.5,0.5c0,0-0.1,0-0.1,0s0.5-0.4,2-0.8c0,0,2-0.6,2.2-0.7
						C43.5,34.7,43.2,35,43.1,35z"/>
				</g>
			</g>
		</g>
	</g>
</g>
</svg>
