<?xml version="1.0" encoding="utf-8"?>
<!-- Generator: Adobe Illustrator 18.0.0, SVG Export Plug-In . SVG Version: 6.00 Build 0)  -->
<!DOCTYPE svg PUBLIC "-//W3C//DTD SVG 1.1//EN" "http://www.w3.org/Graphics/SVG/1.1/DTD/svg11.dtd">
<svg version="1.1" id="Layer_1" xmlns="http://www.w3.org/2000/svg" xmlns:xlink="http://www.w3.org/1999/xlink" x="0px" y="0px"
	 viewBox="0 0 48 48" enable-background="new 0 0 48 48" xml:space="preserve">
<g>
	<g>
		<g>
			<g>
				<path fill="#E8EAE9" d="M35.9,34c0.7,5.1,0.5,11.4,0.5,11.4h-5.9c-0.1-1.5-0.6-3.4-1.1-5.2c-0.6-2.1-2.7-3.2-4.8-3
					c-2.2,0.5-3.7-0.5-5-2.4c-0.8,0.9-1.9,1.4-3.2,1.4c-1.7,0-3.2-1-3.9-2.5c-1.8,1-4,0.9-5.7-0.5C5.3,31.9,4.6,29.9,5,28
					c-2.4,0.2-4.5-1.4-5-3.7c-0.4-2.1,0.8-4.2,2.7-5c-1.2-1.9-1.2-4.5,0.2-6.4c1.4-2,3.9-2.9,6.2-2.4c0-1.2,0.4-2.4,1.2-3.3
					c1.7-2,4.6-2.3,6.7-0.8C17.9,5,19.4,4,21.1,4c1.1,0,2.1,0.4,2.9,1c1.4-1.9,3.8-2.8,6.2-2.2c2.3,0.6,4,2.4,4.5,4.6
					c1.5-0.6,3.1-0.9,4.8-0.7c5.3,0.6,9.1,5.3,8.5,10.6c-0.5,4.4-3.9,7.8-8.1,8.4C42,29.4,39.7,33.8,35.9,34z"/>
			</g>
		</g>
		<g>
			<g>
				<path fill="#8AD7F8" d="M28.9,23.6l0.1-3l-2.9-0.9c-0.1-0.5-0.3-0.9-0.5-1.3l1.6-2.6l-2-2.2L22.4,15c-0.4-0.2-0.8-0.4-1.3-0.6
					l-0.7-3l-3-0.1l-0.9,2.9c-0.5,0.1-0.9,0.3-1.3,0.5l-2.6-1.6l-2.2,2l1.4,2.7c-0.2,0.4-0.4,0.8-0.6,1.3l-3,0.7L8,23l2.9,0.9
					c0.1,0.5,0.3,0.9,0.5,1.3l-1.6,2.6l2,2.2l2.7-1.4c0.4,0.2,0.8,0.4,1.3,0.6l0.8,3l3,0.1l0.9-2.9c0.5-0.1,0.9-0.3,1.3-0.5l2.6,1.6
					l2.2-2l-1.4-2.7c0.2-0.4,0.4-0.8,0.6-1.3L28.9,23.6z M18.4,25c-1.8-0.1-3.2-1.5-3.1-3.3c0.1-1.8,1.5-3.2,3.3-3.1
					c1.8,0.1,3.2,1.5,3.1,3.3C21.6,23.7,20.2,25.1,18.4,25z"/>
			</g>
			<g>
				<path fill="#F3705A" d="M38.7,21.2l0.9-1.6l-1.3-1.4c0.1-0.3,0.1-0.6,0.1-0.9l1.7-1l-0.5-1.8l-1.9-0.1c-0.2-0.3-0.3-0.5-0.5-0.7
					l0.5-1.9L36.1,11l-1.4,1.3c-0.3-0.1-0.6-0.1-0.9-0.1l-1-1.7L31.1,11L31,12.9c-0.3,0.2-0.5,0.3-0.7,0.5l-1.9-0.5l-0.9,1.6
					l1.3,1.4c-0.1,0.3-0.1,0.6-0.1,0.9l-1.7,1l0.5,1.8l1.9,0.1c0.2,0.3,0.3,0.5,0.5,0.7l-0.5,1.9l1.6,0.9l1.4-1.3
					c0.3,0.1,0.6,0.1,0.9,0.1l1,1.7l1.8-0.5l0.1-1.9c0.2-0.2,0.5-0.3,0.7-0.5L38.7,21.2z M32.5,18.8c-0.9-0.6-1.3-1.8-0.7-2.7
					c0.6-0.9,1.8-1.3,2.7-0.7c0.9,0.6,1.3,1.8,0.7,2.7C34.7,19,33.5,19.3,32.5,18.8z"/>
			</g>
		</g>
	</g>
</g>
</svg>
