<?xml version="1.0" encoding="utf-8"?>
<!-- Generator: Adobe Illustrator 19.0.1, SVG Export Plug-In . SVG Version: 6.00 Build 0)  -->
<svg version="1.1" id="Layer_1" xmlns="http://www.w3.org/2000/svg" xmlns:xlink="http://www.w3.org/1999/xlink" x="0px" y="0px"
	 viewBox="0 0 48 48" style="enable-background:new 0 0 48 48;" xml:space="preserve">
<style type="text/css">
	.st0{fill:#FFD15C;}
	.st1{fill:#415A6B;}
	.st2{fill:#F7B64C;}
	.st3{fill:#CED6E0;}
	.st4{fill:#344A5E;}
	.st5{fill:#F3F3F3;}
	.st6{fill:#F05540;}
	.st7{fill:#F3705A;}
	.st8{fill:#66C6B9;}
	.st9{fill:#55C0EB;}
	.st10{fill:#F5F6FB;}
	.st11{fill:#4ABAA5;}
	.st12{fill:#ADB3BA;}
	.st13{fill:#E8EAE9;}
	.st14{fill:#2E4556;}
	.st15{fill:#8AD7F8;}
	.st16{fill:#FFFFFF;}
	.st17{fill:#E54838;}
	.st18{fill:#3EAF99;}
	.st19{fill:#EFA943;}
	.st20{fill:#4CAEE5;}
	.st21{fill:#293F4F;}
	.st22{fill:#2D4456;}
	.st23{fill:#2E4454;}
	.st24{fill:#2A3F4F;}
	.st25{fill:#2D4151;}
	.st26{fill:#E89E3D;}
	.st27{fill:#2B4151;}
	.st28{fill:#2A4051;}
	.st29{fill:#2C4151;}
	.st30{fill:#EBEAE8;}
	.st31{fill:#3AA590;}
	.st32{fill:#E84534;}
	.st33{fill:none;}
</style>
<g>
	<g>
		<g>
			<g>
				<g>
					<g>
						<path class="st8" d="M36.9,7v38.4c0,1.4-1.1,2.5-2.5,2.5H2.5C1.1,48,0,46.9,0,45.5V7c0-1.4,1.1-2.5,2.5-2.5h31.9
							C35.8,4.5,36.9,5.7,36.9,7z"/>
					</g>
				</g>
			</g>
			<g>
				<rect x="4.3" y="8.5" class="st16" width="28.3" height="35.2"/>
			</g>
			<g>
				<path class="st1" d="M26.4,10.3V4.8c0-0.8-0.6-1.4-1.4-1.4h-3.2v0c0-1.8-1.5-3.4-3.4-3.4c-1.8,0-3.3,1.5-3.3,3.4v0h-3.2
					c-0.8,0-1.4,0.6-1.4,1.4v5.5H26.4z M18.5,2.2c0.6,0,1.2,0.5,1.2,1.2c0,0.6-0.5,1.2-1.2,1.2c-0.6,0-1.2-0.5-1.2-1.2
					C17.3,2.7,17.8,2.2,18.5,2.2z"/>
			</g>
			<g>
				<g>
					<g>
						<g>
							<path class="st3" d="M13.3,20.6H7.8v-5.5h5.5V20.6z M8.4,20h4.4v-4.4H8.4V20z"/>
						</g>
					</g>
					<g>
						<g>
							<g>
								<path class="st7" d="M9.4,19.8c-0.2,0-0.4-0.1-0.6-0.3l-2.2-2.2c-0.3-0.3-0.3-0.9,0-1.2c0.3-0.3,0.9-0.3,1.2,0l1.5,1.5
									l3.2-3.2c0.3-0.3,0.9-0.3,1.2,0c0.3,0.3,0.3,0.9,0,1.2L10,19.6C9.9,19.7,9.6,19.8,9.4,19.8z"/>
							</g>
						</g>
					</g>
				</g>
				<g>
					<g>
						<g>
							<path class="st3" d="M13.3,30.7H7.8v-5.5h5.5V30.7z M8.4,30.2h4.4v-4.4H8.4V30.2z"/>
						</g>
					</g>
					<g>
						<g>
							<g>
								<path class="st7" d="M9.4,29.9c-0.2,0-0.4-0.1-0.6-0.3l-2.2-2.2c-0.3-0.3-0.3-0.9,0-1.2C7,26,7.5,26,7.9,26.3l1.5,1.5
									l3.2-3.2c0.3-0.3,0.9-0.3,1.2,0c0.3,0.3,0.3,0.9,0,1.2L10,29.7C9.9,29.9,9.6,29.9,9.4,29.9z"/>
							</g>
						</g>
					</g>
				</g>
				<g>
					<g>
						<g>
							<path class="st3" d="M13.3,40.9H7.8v-5.5h5.5V40.9z M8.4,40.3h4.4v-4.4H8.4V40.3z"/>
						</g>
					</g>
					<g>
						<g>
							<g>
								<path class="st7" d="M9.4,40.1c-0.2,0-0.4-0.1-0.6-0.3l-2.2-2.2c-0.3-0.3-0.3-0.9,0-1.2c0.3-0.3,0.9-0.3,1.2,0L9.4,38
									l3.2-3.2c0.3-0.3,0.9-0.3,1.2,0c0.3,0.3,0.3,0.9,0,1.2L10,39.8C9.9,40,9.6,40.1,9.4,40.1z"/>
							</g>
						</g>
					</g>
				</g>
			</g>
		</g>
		<g>
			<g>
				
					<rect x="41.3" y="3" transform="matrix(-0.5966 0.8025 -0.8025 -0.5966 74.2735 -27.5049)" class="st1" width="5.5" height="3.9"/>
			</g>
			<g>
				<path class="st7" d="M40.8,5.7c2.1-0.7,5,0.5,5,0.5L29.3,28.4c-2.6,3.5-5.8,6.6-9.5,9.1l0,0l0,0c1.3-4.2,3.4-8.1,6-11.7
					L40.8,5.7z"/>
			</g>
			<g>
				
					<rect x="27.2" y="22.8" transform="matrix(0.5966 -0.8025 0.8025 0.5966 -8.3337 33.4471)" class="st1" width="3.9" height="4.3"/>
			</g>
			<g>
				<path class="st7" d="M44.8,2l1.9,1.4l1.1-1.5c0.4-0.5,0.3-1.2-0.2-1.6l0,0C47-0.2,46.3,0,45.9,0.5L44.8,2z"/>
			</g>
			<g>
				<path class="st1" d="M44.3,3.3l-0.6,0.8L42.2,3l-4.6,5.8c0.4,0.5,0.1,0.9-0.3,1.5c-0.4,0.6-1,1-1.6,0.5l0,0v0
					c-0.2-0.2-0.3-0.5-0.1-0.7l6-8.1c0.2-0.2,0.5-0.3,0.7-0.1L44.3,3.3z"/>
			</g>
		</g>
	</g>
</g>
</svg>
