<?xml version="1.0" encoding="utf-8"?>
<!-- Generator: Adobe Illustrator 18.0.0, SVG Export Plug-In . SVG Version: 6.00 Build 0)  -->
<!DOCTYPE svg PUBLIC "-//W3C//DTD SVG 1.1//EN" "http://www.w3.org/Graphics/SVG/1.1/DTD/svg11.dtd">
<svg version="1.1" id="Layer_1" xmlns="http://www.w3.org/2000/svg" xmlns:xlink="http://www.w3.org/1999/xlink" x="0px" y="0px"
	 viewBox="0 0 48 48" enable-background="new 0 0 48 48" xml:space="preserve">
<g>
	<g>
		<g>
			<g>
				<path fill="#F5B54C" d="M11.6,39.4l2-0.6l2.9,0.6L16,41.9l-2.8,1.5C13.2,43.5,10.8,40.3,11.6,39.4z"/>
			</g>
		</g>
	</g>
	<g>
		<g>
			<g>
				<g>
					<path fill="#FFD15C" d="M33.5,14.5c0.5,0.7-0.9,1.4-0.9,1.4l-6.2,6.3c0,0-3-0.1-3-0.4c0-0.2,0.6-1,1.1-1.8h0
						c0.5-0.7,1-1.4,1-1.4s-0.5-3.3-0.6-3.5c0,0,0,0,0,0S23.1,14,23,11.7C22.8,9.4,22.8,9,22.8,9s-0.2-1.6-0.2-2.3
						c0-0.7,0.7-2.3,0.7-2.3l1.6-0.9h4.8l2.7,0.5l1.4,5.3C33.7,9.2,32.9,13.6,33.5,14.5z"/>
				</g>
			</g>
		</g>
		<g>
			<g>
				<g>
					<path fill="#F5B54C" d="M24.4,20c0.5-0.7,1-1.4,1-1.4s-0.5-3.3-0.6-3.5c0,0,1,1,1.5,1.2c0.6,0.2,2.4,0,3.1-0.2
						c0.7-0.2,2.4-1.3,2.5-1.4C32.6,20.6,26.8,26.9,24.4,20z"/>
				</g>
			</g>
		</g>
		<g>
			<g>
				<g>
					<path fill="#CED6E0" d="M27.2,18.8l-1,0.5c0,0-0.5,1.6-0.4,2.2c0,0,2.5-1.6,3.3-1.7c0.8-0.1,0.8-0.7,0.8-0.7L27.2,18.8z"/>
				</g>
			</g>
		</g>
		<g>
			<g>
				<g>
					<path fill="#CED6E0" d="M23.6,48l1.2-9.2l7.8-20.2l-5.3,1.7l-1.6,1.1l-2.5-2.6c0,0-1.2,2.5-1.4,2.8c-0.1,0.4-2.3,8.5-2.3,8.5
						s-2,15.4-1.4,17.8H23.6z"/>
				</g>
			</g>
		</g>
		<g>
			<g>
				<g>
					<path fill="#425A6B" d="M34.1,7.8L33,9.1l-0.4-0.2c0,0,0-2.2-0.5-2.6c-0.5-0.5-0.5-0.8-0.5-1.7S30,3.8,28.6,4.1
						c-1.3,0.3-4,0-4.7,0.8c-0.1,0.1-0.1,0.2-0.1,0.4c0,0.6-0.3,1-0.8,1.5c-0.5,0.5-0.1,2.3-0.1,2.4c-0.6-1.5-0.6-3.8-0.5-4.4
						c0.3-1,1.7-3.4,3.3-4.3c1.6-0.9,5-0.2,6.8,1.1C34.3,2.9,34.1,7.8,34.1,7.8z"/>
				</g>
			</g>
		</g>
	</g>
	<g>
		<g>
			<g>
				<path fill="#F3F3F3" d="M33.3,12.9c0,0-0.6,1.4-1.9,2.4c-1.2,1-5.2,4-5.2,4s1.2-0.4,1.7-0.3c0.5,0.2,1.6,2.6,1.6,2.6
					s4.1-4.8,4.6-5.6c0.5-0.8,0.4-0.9,0.4-0.9S33.2,13.3,33.3,12.9z"/>
			</g>
		</g>
	</g>
	<g>
		<g>
			<g>
				<path fill="#344A5E" d="M19,48l1.2-12.2c0,0,0.6-11.1,2.3-14.1c1.2-2.2,1.5-3.3,1.6-3.7c-0.3,0.2-2.8,1.4-3.1,1.7
					c-0.3,0.3-1.3,0.6-1.8,2c-0.5,1.4-0.5,5.4-0.7,6.5c-0.1,1-0.4,15.1-0.4,15.1L17.6,48H19z"/>
			</g>
		</g>
	</g>
	<g>
		<g>
			<g>
				<path fill="#425A6B" d="M24,18.6l-2.2,1.7l0.8,0.2l-1.3,0.8c0,0-1.7,4.6-2.1,5.9c-0.4,1.3-0.8,6.4-0.8,7.4c0,1,0.4,7.7,0.4,7.7
					s1.1-4.9,1.4-8.4c0.3-3.5,0.7-5.1,1.8-7.7c1.1-2.6,2.4-6.1,2.4-6.1L24,18.6z"/>
			</g>
		</g>
	</g>
	<g>
		<g>
			<g>
				<path fill="#F3F3F3" d="M25,15.6c0,0-1.4,1.6-1.7,3.2c0,0-1.1,1.7-1,2.3c0,0.6,0.3,1.2,0.3,1.2s1.1-2.1,1-2.2
					c-0.1-0.1,2.2,1.4,2.2,1.4s-1-1.4-0.3-2.8L25,15.6z"/>
			</g>
		</g>
	</g>
	<g>
		<g>
			<g>
				<path fill="#344A5E" d="M40.5,48c0-1.4,0.1-2.9,0.1-2.9L25.5,35c0,0-0.1,0.2-1.8,4.1c-1.1,2.4-1.4,6.4-1.4,8.9H40.5z"/>
			</g>
		</g>
	</g>
	<g>
		<g>
			<g>
				<path fill="#344A5E" d="M35.9,16.9c0,0,6.6,2.8,8.2,4.5l-3.5,16.7L35,43.5l-11.6-4.1l8.2-16.6l1.5-3.8L35.9,16.9z"/>
			</g>
		</g>
	</g>
	<g>
		<g>
			<g>
				<path fill="#425A6B" d="M33.7,14c0,0,0.2,1.1-0.4,2.2c-0.6,1.1-5.4,9.1-6.5,11.9c-1.1,2.8-3.8,11.5-3.9,14.2
					c0,0,4.2-10.7,5.9-13.1c1.7-2.5,5.2-7.5,5.2-7.5l-1.2-1.2l1.7-0.9c0,0,1.4-2,1.3-2.7c0,0-0.3-0.5-0.6-0.9S34.3,14.2,33.7,14z"/>
			</g>
		</g>
	</g>
	<g>
		<g>
			<g>
				<path fill="#F26F5A" d="M27.2,34.8c0.1,0.2,0,0.4-0.2,0.5l-6.6,2.1c-0.8,0.3-1.7,0.4-2.6,0.5l-0.1,0c0,0,0,0,0,0c0,0,0,0,0,0
					c0.8-0.5,1.7-0.9,2.7-1.2l6.4-1.8C27,34.6,27.2,34.6,27.2,34.8L27.2,34.8z"/>
			</g>
		</g>
	</g>
	<g>
		<g>
			<g>
				<path fill="#FFD15C" d="M19.7,36.8c0,0,0.9-0.2,1-0.3l1.3,0.3l0.2,0.1l-1.7-0.1c0,0-0.4,0-0.7,0.1c-0.3,0.2-0.7,0.3-0.7,0.3
					s-0.3,0.2-0.2,0.8c0.1,0.6,0.4,0.7,0.4,0.7s0.4-0.3,0.5-0.5c0,0,1.7,0,1.8,0c0.1,0,0.7,0.1,0.7,0.1v0.1l-1.8,0
					c0,0-0.7-0.1-0.8,0.3c-0.1,0.4,0.2,0.8,0.4,0.9c0.2,0,1.2,0.2,1.2,0.2l1.1,0.1l-0.2,0.1c0,0-1.1-0.1-1.4,0c0,0-0.7-0.5-0.9-0.5
					c-0.2,0-0.4,0.7-0.3,1c0.1,0.3,0.8,0.7,0.9,0.8c0.2,0,1.9,0.1,2.2,0.3c0.3,0.2,2,0.9,2.3,0.9c0.3,0,1.9,0.1,1.9,0.1l1.5-0.6
					l0.3-4c0,0-2.3-0.8-2.6-1.2c-0.3-0.4-1-0.7-1.5-1c-0.5-0.3-1.4-0.4-2-0.6c-0.7-0.2-1.4-0.3-1.4-0.3s-0.4-0.1-0.9,0
					c-0.6,0.1-1.1,0.6-1.4,0.9C18.6,36.5,19,37.6,19.7,36.8z"/>
			</g>
		</g>
	</g>
	<g>
		<g>
			<g>
				<path fill="#F3F3F3" d="M26.4,37.2c0.2,0.1-0.2,4.9-1,5.9c0,0,0.8,0.9,2.4,1.4c1.6,0.5,2.6,0.2,2.6-0.1c0-0.3-0.5-4.2-0.5-4.4
					s-1.6-2.3-1.6-2.3L26.4,37.2z"/>
			</g>
		</g>
	</g>
	<g>
		<g>
			<g>
				<path fill="#425A6B" d="M37.2,32.9c-0.2-2.4,0-4.7,0.6-7c0.4-1.4,0.9-2.9,1.7-3.7c2-2,4-1,4.5-0.9c0.5,0.2,1.8,4.4,1.9,5.9
					c0.1,1.5,0.2,10.5,0.3,11.4s0.2,3.9-0.9,5.4c-1.1,1.6-1.4,1.9-3.3,1.9c-1.9,0-6.6,0-6.6,0s-6.9,0.4-8.2,0.7h-0.6
					c0,0,1.1-5.5,1-7.2c-0.1-1.7-0.2-2-0.6-2c0,0,4.6,0.2,5.5,0.7c0.9,0.6,0.9,0.8,1.5,0.6c0.6-0.2,1.8,0,2,0.2
					c0.2,0.2,1.8-0.2,1.8-0.2s0-1.4-0.4-2.4C37.5,35.7,37.3,34.2,37.2,32.9z"/>
			</g>
			<g>
				<path fill="#425A6B" d="M26.7,46.7h-0.1H26.7c-0.1-0.2,1-5.7,0.9-7.3c-0.1-1.7-0.2-1.9-0.5-1.9l0-0.2c0.2,0,4.6,0.2,5.6,0.7
					c0.3,0.2,0.5,0.3,0.6,0.4c0.3,0.2,0.4,0.3,0.8,0.1c0.7-0.2,1.9,0,2.1,0.2c0.1,0.1,0.9,0,1.7-0.2c0-0.3,0-1.4-0.3-2.3
					c-0.1-0.4-0.3-1.6-0.4-3.3l0,0c-0.2-2.4,0-4.8,0.6-7c0.5-1.8,1-3,1.7-3.7c1.9-1.9,3.8-1.1,4.5-0.9c0,0,0.1,0,0.1,0
					c0.5,0.2,1.9,4.5,2,5.9c0,0.6,0.1,2.5,0.1,4.5c0.1,3,0.1,6.3,0.2,6.8c0.1,0.9,0.1,3.9-0.9,5.5c-1.1,1.6-1.4,1.9-3.3,1.9h-6.6
					c-0.1,0-6.9,0.4-8.2,0.7L26.7,46.7z M26.8,46.5h0.5c1.3-0.2,8.1-0.7,8.2-0.7l6.6,0c1.9,0,2.2-0.3,3.2-1.9c1-1.5,1-4.5,0.9-5.4
					c-0.1-0.5-0.1-3.9-0.2-6.8c0-2-0.1-3.9-0.1-4.5c-0.1-1.6-1.5-5.7-1.9-5.8c0,0-0.1,0-0.1,0c-0.6-0.2-2.5-0.9-4.3,0.9
					c-0.7,0.7-1.2,1.9-1.7,3.6c-0.6,2.2-0.8,4.6-0.6,7l0,0c0.1,1.7,0.3,2.9,0.4,3.3c0.4,1.1,0.4,2.4,0.4,2.5v0.1l-0.1,0
					c-0.4,0.1-1.7,0.3-1.9,0.2c-0.2-0.1-1.4-0.4-2-0.2c-0.5,0.2-0.6,0.1-1-0.2c-0.1-0.1-0.3-0.2-0.6-0.4c-0.8-0.4-4.1-0.6-5.2-0.7
					c0.2,0.2,0.2,0.8,0.3,1.9C27.8,41,26.9,45.8,26.8,46.5z"/>
			</g>
		</g>
	</g>
	<g>
		<g>
			<g>
				<ellipse transform="matrix(0.9858 0.1677 -0.1677 0.9858 2.0402 -5.5595)" fill="#FFD15C" cx="33.9" cy="9.3" rx="1" ry="2"/>
			</g>
		</g>
	</g>
	<g>
		<g>
			<g>
				<path fill="#67C5B8" d="M1.6,31.3l8.1,3c0,0,13.4,7.4,15.6,9.8c0,0-8-2.5-9.5-2.4c0,0-6.4-6.1-8.5-7.2
					C5.2,33.4,1.6,31.3,1.6,31.3z"/>
			</g>
		</g>
	</g>
	<g>
		<g>
			<g>
				<path fill="#FFD15C" d="M10.9,38.9c0,0,0.4-0.4,0.7-0.5c0.3-0.2,0.9-0.3,1.1-0.3c0.2,0,1.1,0.2,1.3,0.3c0.2,0.1,0.3,0.8-0.1,0.9
					c-0.4,0.1-0.6,0-1,0.1s-0.8,0.3-0.8,0.3s0.6,0,0.9,0c0.3,0,1-0.1,1.5-0.1c0.4-0.1,1.1-0.1,1.5,0.1c0.4,0.3,0.2,0.8,0,0.8
					c-0.2,0-0.8,0-1.1,0.1c-0.4,0.1-1.1,0.3-1.4,0.4c-0.3,0.1-1,0.3-1,0.3s0.5,0.1,0.9,0c0.4-0.1,1.2-0.3,1.6-0.4
					c0.5-0.1,1.2-0.4,1.5-0.4c0.2,0,0.5,0,0.6,0.2c0.2,0.2,0.1,0.8-0.4,0.8c0,0,0.2,0.1,0,0.2c-0.2,0.1-0.8,0.6-1,0.8l-0.2,0.2
					c0,0,0.1,0.1-0.1,0.3c-0.1,0.2-1.1,1-1.8,1c-0.8,0-1.1-0.1-1.4-0.5c-0.3-0.5-0.4-0.5-0.6-0.7c-0.2-0.2-0.3-0.3-0.3-0.5
					c0-0.3-0.3-0.6-0.4-0.8c-0.1-0.2-0.3-0.4-0.1-0.8c0.2-0.4,0.1-0.7,0-1C10.8,39.4,10.8,39.2,10.9,38.9z"/>
			</g>
		</g>
	</g>
	<g>
		<g>
			<g>
				<path fill="#F5B54C" d="M16.8,41.4c0,0-0.2,0.1-0.6,0.3c-0.2,0.1-0.4,0.2-0.6,0.3c-0.1,0.1-0.2,0.1-0.3,0.2
					c-0.1,0.1-0.2,0.1-0.3,0.2c-0.1,0.1-0.2,0.1-0.3,0.2c-0.1,0.1-0.3,0.1-0.4,0.1c-0.2,0-0.5,0.1-0.7,0.1c-0.2,0-0.4,0-0.5,0.1
					c-0.1,0-0.2,0-0.2,0s0.1,0,0.2-0.1c0.1-0.1,0.3-0.1,0.4-0.2c0.2-0.1,0.4-0.1,0.6-0.2c0.1,0,0.2-0.1,0.3-0.1
					c0.1-0.1,0.2-0.1,0.3-0.2c0.1-0.1,0.2-0.1,0.3-0.2c0.1-0.1,0.2-0.1,0.3-0.2c0.1-0.1,0.2-0.1,0.3-0.1c0.1,0,0.2-0.1,0.3-0.1
					C16.6,41.4,16.8,41.4,16.8,41.4z"/>
			</g>
		</g>
	</g>
</g>
</svg>
