<?xml version="1.0" encoding="utf-8"?>
<!-- Generator: Adobe Illustrator 18.0.0, SVG Export Plug-In . SVG Version: 6.00 Build 0)  -->
<!DOCTYPE svg PUBLIC "-//W3C//DTD SVG 1.1//EN" "http://www.w3.org/Graphics/SVG/1.1/DTD/svg11.dtd">
<svg version="1.1" id="Layer_1" xmlns="http://www.w3.org/2000/svg" xmlns:xlink="http://www.w3.org/1999/xlink" x="0px" y="0px"
	 viewBox="0 0 48 48" enable-background="new 0 0 48 48" xml:space="preserve">
<g>
	<g>
		<g>
			<g>
				<path fill="#F3705A" d="M27.7,2.4v14.8c0,1.3-1.1,2.4-2.4,2.4H12.6l-9.4,4.9v-4.9H2.4c-1.3,0-2.4-1.1-2.4-2.4V2.4
					C0,1.1,1.1,0,2.4,0h23C26.7,0,27.7,1.1,27.7,2.4z"/>
			</g>
			<g>
				<g>
					<circle fill="#FFFFFF" cx="6.5" cy="9.8" r="2.6"/>
				</g>
				<g>
					<circle fill="#FFFFFF" cx="13.9" cy="9.8" r="2.6"/>
				</g>
				<g>
					<circle fill="#FFFFFF" cx="21.3" cy="9.8" r="2.6"/>
				</g>
			</g>
		</g>
		<g>
			<g>
				<path fill="#FFD15C" d="M20.3,8.3V23c0,1.3,1.1,2.4,2.4,2.4h12.8l9.4,4.9v-4.9h0.7c1.3,0,2.4-1.1,2.4-2.4V8.3
					c0-1.3-1.1-2.4-2.4-2.4h-23C21.3,5.9,20.3,7,20.3,8.3z"/>
			</g>
			<g>
				<g>
					<circle fill="#FFFFFF" cx="41.5" cy="15.7" r="2.6"/>
				</g>
				<g>
					<circle fill="#FFFFFF" cx="34.1" cy="15.7" r="2.6"/>
				</g>
				<g>
					<circle fill="#FFFFFF" cx="26.7" cy="15.7" r="2.6"/>
				</g>
			</g>
		</g>
		<g>
			<g>
				<path fill="#66C6B9" d="M34.8,26v14.8c0,1.3-1.1,2.4-2.4,2.4h-7.9L20.9,48l-3.6-4.9H9.5c-1.3,0-2.4-1.1-2.4-2.4V26
					c0-1.3,1.1-2.4,2.4-2.4h23C33.8,23.6,34.8,24.7,34.8,26z"/>
			</g>
			<g>
				<g>
					<circle fill="#FFFFFF" cx="28.3" cy="33.4" r="2.6"/>
				</g>
				<g>
					<circle fill="#FFFFFF" cx="21" cy="33.4" r="2.6"/>
				</g>
				<g>
					<circle fill="#FFFFFF" cx="13.6" cy="33.4" r="2.6"/>
				</g>
			</g>
		</g>
	</g>
</g>
</svg>
