<?xml version="1.0" encoding="utf-8"?>
<!-- Generator: Adobe Illustrator 18.0.0, SVG Export Plug-In . SVG Version: 6.00 Build 0)  -->
<!DOCTYPE svg PUBLIC "-//W3C//DTD SVG 1.1//EN" "http://www.w3.org/Graphics/SVG/1.1/DTD/svg11.dtd">
<svg version="1.1" id="Layer_1" xmlns="http://www.w3.org/2000/svg" xmlns:xlink="http://www.w3.org/1999/xlink" x="0px" y="0px"
	 viewBox="0 0 48 48" enable-background="new 0 0 48 48" xml:space="preserve">
<g>
	<g>
		<path fill="#F7B64C" d="M43.4,27.2V16.6c0-1.7-1.4-3.1-3.1-3.1h-22l-1.9-3.5c-0.5-1-1.6-1.6-2.7-1.6H6.7c-1.7,0-3.1,1.4-3.1,3.1
			v15.7H43.4z"/>
		<g>
			<path fill="#F3F3F3" d="M32.1,0l8.6,8.6v24.8H7.3V3c0-1.7,1.3-3,3-3L32.1,0z"/>
		</g>
		<g>
			<polygon fill="#CED6E0" points="32.1,0 40.7,8.6 32.1,8.6 			"/>
		</g>
		<path fill="#FFD15C" d="M47.9,23.7l-4.1,22C43.5,47,42.3,48,40.9,48H6.1c-1.4,0-2.6-1-2.9-2.4L0.1,29.1c-0.3-1.8,1-3.5,2.9-3.5h27
			l3.3-4.3c0.6-0.7,1.4-1.1,2.3-1.1h9.5C46.9,20.2,48.3,21.9,47.9,23.7z"/>
		<g>
			<circle fill="#F3705A" cx="24" cy="14.8" r="8.1"/>
			<polygon fill="#F3F3F3" points="21,10.3 21,19.3 28.2,14.8 			"/>
		</g>
	</g>
</g>
</svg>
