<?xml version="1.0" encoding="utf-8"?>
<!-- Generator: Adobe Illustrator 18.0.0, SVG Export Plug-In . SVG Version: 6.00 Build 0)  -->
<!DOCTYPE svg PUBLIC "-//W3C//DTD SVG 1.1//EN" "http://www.w3.org/Graphics/SVG/1.1/DTD/svg11.dtd">
<svg version="1.1" id="Layer_1" xmlns="http://www.w3.org/2000/svg" xmlns:xlink="http://www.w3.org/1999/xlink" x="0px" y="0px"
	 viewBox="0 0 48 48" enable-background="new 0 0 48 48" xml:space="preserve">
<g>
	<g>
		<path fill="#FF7058" d="M46.4,24c-1,0.1-2-0.5-2.4-1.5c-0.4-1-0.1-2.1,0.6-2.8l-0.5-1.1c-1,0.1-2-0.5-2.4-1.5
			c-0.4-1-0.1-2.1,0.6-2.8l-0.5-1.1c-1,0.1-2-0.5-2.4-1.5c-0.4-1-0.1-2.1,0.6-2.8l-0.4-0.9c-1.3,0.6-2.9,0-3.4-1.4L1.4,21.6
			c0.6,1.3,0,2.9-1.4,3.4l0.4,0.9c1-0.1,2,0.5,2.4,1.5c0.4,1,0.1,2.1-0.6,2.8l0.5,1.1c1-0.1,2,0.5,2.4,1.5c0.4,1,0.1,2.1-0.6,2.8
			L5,36.7c1-0.1,2,0.5,2.4,1.5c0.4,1,0.1,2.1-0.6,2.8l0.4,0.9c1.3-0.6,2.9,0,3.4,1.4l34.8-14.9c-0.6-1.3,0-2.9,1.4-3.4L46.4,24z"/>
		<g>
			<path fill="#FFD15C" d="M40.4,25.5L12,37.6L6.4,24.4l28.4-12.2L40.4,25.5z M12.7,35.9l26-11.2L34.1,14l-26,11.2L12.7,35.9z"/>
		</g>
		<g>
			<polygon fill="#FFFFFF" points="11.8,28.1 13.2,27.4 14.9,31.4 15.8,31.1 14.1,27.1 15.5,26.4 15.2,25.6 11.4,27.2 			"/>
			<rect x="16.6" y="25" transform="matrix(-0.919 0.3942 -0.3942 -0.919 43.6311 46.36)" fill="#FFFFFF" width="1" height="5.3"/>
			<path fill="#FFFFFF" d="M22.1,26.8c-0.1,0.5-0.4,0.9-0.9,1.1c-0.9,0.4-1.9,0-2.3-1c-0.4-1-0.1-1.9,0.9-2.3c0.4-0.2,1-0.1,1.4,0.1
				l0.1,0.1l0.6-0.8l-0.2-0.1c-0.7-0.4-1.5-0.5-2.3-0.2c-1.4,0.6-2,2.1-1.4,3.6c0.6,1.4,2.1,2,3.6,1.4c0.8-0.3,1.2-0.9,1.4-1.8
				l0-0.2l-1-0.1L22.1,26.8z"/>
			<polygon fill="#FFFFFF" points="25.5,21.2 24.4,21.6 23.5,24.4 22.6,22.4 21.8,22.8 23.8,27.6 24.7,27.2 24,25.6 24.2,25.2 
				26.6,26.4 27.8,25.9 24.5,24.3 			"/>
			<polygon fill="#FFFFFF" points="28,25.8 31.3,24.4 30.9,23.6 28.5,24.6 28,23.4 30.3,22.4 30,21.6 27.6,22.6 27.2,21.4 
				29.6,20.4 29.2,19.6 25.9,21 			"/>
			<polygon fill="#FFFFFF" points="29.5,19.4 29.9,20.3 31.3,19.7 33,23.7 33.9,23.3 32.2,19.3 33.7,18.7 33.3,17.8 			"/>
		</g>
	</g>
	<path opacity="0.1" fill="#231F20" d="M43.9,22.5c-0.4-1-0.1-2.1,0.6-2.8l-0.5-1.1c-1,0.1-2-0.5-2.4-1.5c-0.4-1-0.1-2.1,0.6-2.8
		l-0.5-1.1c-1,0.1-2-0.5-2.4-1.5c-0.4-1-0.1-2.1,0.6-2.8l-0.4-0.9c-1.3,0.6-2.9,0-3.4-1.4l-32.7,14v0.5l1,0.3
		c0.3,0.1,0.7,0.4,0.7,0.9s-0.3,0.8-0.7,0.9l-1,0.3v3.5H5c0.6,0,1.1,0.5,1.1,1.1v1.5h35.8l3.5-1.5c-0.6-1.3,0-2.9,1.4-3.4L46.4,24
		C45.4,24.1,44.4,23.5,43.9,22.5z"/>
	<g>
		<path fill="#FF7058" d="M48,24.7c-1-0.3-1.7-1.2-1.7-2.3s0.7-2,1.7-2.3v-1.3c-1-0.3-1.7-1.2-1.7-2.3s0.7-2,1.7-2.3V13
			c-1-0.3-1.7-1.2-1.7-2.3s0.7-2,1.7-2.3V7.4c-1.4,0-2.6-1.2-2.6-2.6H7.6c0,1.4-1.2,2.6-2.6,2.6v0.9c1,0.3,1.7,1.2,1.7,2.3
			S5.9,12.6,5,13v1.3c1,0.3,1.7,1.2,1.7,2.3s-0.7,2-1.7,2.3v1.3c1,0.3,1.7,1.2,1.7,2.3s-0.7,2-1.7,2.3v0.9c1.4,0,2.6,1.2,2.6,2.6
			h37.8c0-1.4,1.2-2.6,2.6-2.6V24.7z"/>
		<g>
			<path fill="#FFD15C" d="M41.9,23.7H11V9.4h30.9V23.7z M12.3,22.4h28.3V10.7H12.3V22.4z"/>
		</g>
		<g>
			<polygon fill="#FFFFFF" points="14.6,14.8 16.1,14.8 16.1,19.2 17.1,19.2 17.1,14.8 18.7,14.8 18.7,13.9 14.6,13.9 			"/>
			<rect x="19.1" y="13.9" fill="#FFFFFF" width="1" height="5.3"/>
			<path fill="#FFFFFF" d="M24.6,17.7c-0.3,0.4-0.7,0.6-1.2,0.6c-1,0-1.7-0.8-1.7-1.8s0.7-1.8,1.7-1.8c0.5,0,0.9,0.2,1.2,0.6
				l0.1,0.1l0.8-0.5l-0.1-0.2c-0.5-0.7-1.2-1-2-1c-1.6,0-2.7,1.1-2.7,2.7s1.1,2.7,2.7,2.7c0.8,0,1.5-0.4,2-1.1l0.1-0.2l-0.8-0.5
				L24.6,17.7z"/>
			<polygon fill="#FFFFFF" points="30,13.9 28.7,13.9 26.8,16.1 26.8,13.9 25.8,13.9 25.8,19.2 26.8,19.2 26.8,17.4 27.1,17.1 
				28.9,19.2 30.1,19.2 27.8,16.4 			"/>
			<polygon fill="#FFFFFF" points="30.4,19.2 33.9,19.2 33.9,18.3 31.3,18.3 31.3,16.9 33.9,16.9 33.9,16 31.3,16 31.3,14.8 
				33.9,14.8 33.9,13.9 30.4,13.9 			"/>
			<polygon fill="#FFFFFF" points="34.3,13.9 34.3,14.8 35.9,14.8 35.9,19.2 36.8,19.2 36.8,14.8 38.4,14.8 38.4,13.9 			"/>
		</g>
	</g>
</g>
</svg>
