<?xml version="1.0" encoding="utf-8"?>
<!-- Generator: Adobe Illustrator 19.0.1, SVG Export Plug-In . SVG Version: 6.00 Build 0)  -->
<svg version="1.1" id="Layer_1" xmlns="http://www.w3.org/2000/svg" xmlns:xlink="http://www.w3.org/1999/xlink" x="0px" y="0px"
	 viewBox="0 0 48 48" style="enable-background:new 0 0 48 48;" xml:space="preserve">
<style type="text/css">
	.st0{fill:#415A6B;}
	.st1{fill:#ADB3BA;}
	.st2{fill:#E8EAE9;}
	.st3{fill:#55C0EB;}
	.st4{fill:#F3705A;}
	.st5{fill:#FFFFFF;}
	.st6{fill:#FFD15C;}
	.st7{fill:#344A5E;}
	.st8{fill:#CED6E0;}
	.st9{fill:#F05540;}
	.st10{fill:#F7B64C;}
	.st11{fill:#F3F3F3;}
	.st12{fill:#66C6B9;}
	.st13{fill:#4ABAA5;}
	.st14{fill:#8AD7F8;}
	.st15{fill:none;}
	.st16{fill:#E53D35;}
</style>
<g>
	<g>
		<g>
			<g>
				<rect x="21.1" y="14.4" class="st4" width="5.6" height="29.5"/>
			</g>
			<g>
				<rect x="12.2" y="25.5" class="st6" width="5.6" height="18.5"/>
			</g>
			<g>
				<rect x="3.2" y="34.7" class="st0" width="5.6" height="9.2"/>
			</g>
		</g>
		<g>
			<g>
				<path class="st6" d="M32.6,32.5c0,0,0.3,1.3,0.3,2s-0.1,1.1-0.2,1.3c-0.1,0.1-0.2,0.1-0.2,0.1s0.2,0.3,0.2,0.3
					c0,0,0.5,0.2,0.6,0.6l-0.2,0.3c0,0,0.3,0.2,0.2,0.6l-0.6-0.3c0,0-0.3-0.1-0.5-0.2c-0.2-0.2-0.8-0.6-0.8-0.9
					c-0.1-0.3-0.2-1-0.4-1.2s-0.2-1.7,0.1-2.4c0.3-0.7,0.3-0.7,0.3-0.7L32.6,32.5L32.6,32.5z"/>
			</g>
			<g>
				<path class="st10" d="M32.6,35.9c0,0,0,0-0.1,0c-0.1,0-0.2-0.1-0.2-0.2c0-0.1,0-0.1-0.1-0.2c0-0.1,0-0.1,0-0.2
					c0-0.1-0.1-0.3-0.1-0.5c0-0.1,0-0.2,0-0.2c0-0.1,0-0.2,0-0.2c0-0.1-0.1-0.3-0.1-0.4c0-0.1-0.1-0.2-0.1-0.3c0,0,0-0.1,0-0.1
					c0,0,0,0,0,0s0,0,0,0.1c0,0,0,0.1,0,0.1c0,0,0,0.1,0.1,0.1c0.1,0.1,0.1,0.2,0.2,0.4c0,0.1,0,0.2,0,0.2c0,0.1,0,0.2,0,0.2
					c0,0.2,0,0.3,0.1,0.5c0,0.1,0,0.1,0,0.2c0,0.1,0,0.1,0,0.2c0,0.1,0.1,0.2,0.2,0.2C32.5,35.9,32.6,35.9,32.6,35.9z"/>
			</g>
			<g>
				<path class="st0" d="M34.3,12.6l-0.9,0.1c0,0-0.7,0.5-0.9,1.3c-0.1,0.8-0.2,1.9-0.2,2.5c0.1,0.6,0.3,3.4,0.3,4
					c0,0.6-0.4,1.5-0.3,1.9c0.1,0.4-0.2,1.7-0.2,1.7s-0.3,2.7-0.4,3.2c-0.1,0.5-0.3,1.1-0.3,1.7c0,0.6-0.4,4-0.4,4s0.1-0.2,0.5-0.3
					c0.4-0.1,1.3,0,1.3,0s1.4-10.2,1.4-10.3c0-0.1-1.4-5.7-1.4-5.7L34.3,12.6z"/>
			</g>
			<g>
				<path class="st0" d="M35.1,45.9h4.4c-0.1-1.2-0.3-2.5-0.4-3c-0.2-0.9-0.2-3.2-0.2-3.2s0.2,0.7,0.5,1.5c0.2,0.5,0.9,2.8,1.5,4.7
					h4.7c-0.1-0.8-0.3-1.4-0.3-1.5c0-0.5-0.8-4.1-0.8-4.1c0.1-0.5-0.1-2.4-0.1-2.4c0.2-0.8-0.1-4.6-0.1-4.6l0.3-3.1l-6.6-4.3
					l-4.7,0.8L33,32.3c0,0,0,0-0.1,1c-0.1,1,0.2,3.4,0.5,4.8C33.6,39.4,34.6,44.2,35.1,45.9z"/>
			</g>
			<g>
				<polyline class="st8" points="36.5,10.9 40.1,10.9 34.4,24.9 32.7,16.1 35.5,10.8 36.5,10.9 				"/>
			</g>
			<g>
				<path class="st6" d="M39.6,5.6c0,0,0.1,1.4-0.1,2.3l0.8,2.1l-4.2,2.3l-0.4-2.5v-1c0,0-1.2-1.2-1.3-3c0-1.7,0-1.7,0-1.7l0,0
					c0,0-0.2-2,0.7-2.7s3.2-0.7,3.7-0.3C39.4,1.6,39.6,5.6,39.6,5.6z"/>
				<g>
					<path class="st9" d="M36.9,12.1l-0.1,0.4c0,0-0.1,1.1-0.2,1.8C36.6,15,36,20.7,36,20.7l-1.2,1.8l-0.4-0.7c0,0,0-3.6,0.2-4.7
						c0.2-1.1,0.7-2.8,0.8-3.2s0.4-1.6,0.4-1.6S36.5,11.7,36.9,12.1z"/>
				</g>
				<g>
					<path class="st4" d="M35.7,11.6c0,0-0.1,0.5,0,0.8c0,0,1-0.3,1.2,0.1c0,0,0.4-0.7,0.8-0.7l-1.2-0.9h-0.9L35.7,11.6"/>
				</g>
				<path class="st10" d="M39.5,7.9c0,0-1.2,1.3-2.2,1.5s-1.7-0.6-1.7-0.6v1l0.2,0.9C36.7,10.4,38.8,9.5,39.5,7.9z"/>
				<g>
					<path class="st11" d="M36.5,10.9c0,0-0.8,0.3-0.9,0.9s-0.2,0.7-0.2,0.7s0.1-1.3,0.1-1.5c0-0.2,0-1.6,0.1-1.8c0.1-0.2,0,0,0,0
						S35.7,9.9,36.5,10.9"/>
				</g>
			</g>
			<g>
				<g>
					
						<ellipse transform="matrix(-0.9923 0.1241 -0.1241 -0.9923 69.1493 6.0214)" class="st6" cx="34.4" cy="5.2" rx="0.5" ry="1.1"/>
				</g>
				<g>
					<ellipse transform="matrix(0.9923 0.1241 -0.1241 0.9923 0.9492 -4.9131)" class="st6" cx="39.9" cy="5.2" rx="0.5" ry="1.1"/>
				</g>
			</g>
			<g>
				<path class="st0" d="M34.3,4.9L34.3,4.9c0.1-0.2,0.1-1.6,0.3-2.1c0-0.2,0.2-0.4,0.3-0.6c0.2-0.3,0.6-0.5,1-0.4
					c0.4,0.1,1.1,0.2,1.9,0c0.3-0.1,0.5,0,0.8,0.1c0.2,0.1,0.4,0.3,0.5,0.5c0.2,0.3,0.4,1.8,0.5,2.4h0.1c0-0.2,0-0.5,0.3-0.8
					c0,0,0.1-1.8-0.4-2.8s-2.4-1.5-3.1-1.2c-0.8,0.3-1.7,0.9-2,1.7c0,0-0.2,0.8-0.2,1.6C34.1,4,34.4,4.7,34.3,4.9z"/>
			</g>
			<g>
				<path class="st11" d="M39.5,7.9c-0.5,1-1.7,2-3,2.9c0.5,0.5,0.9,1.1,1.3,1.7l2.6-3.2L39.5,7.9"/>
			</g>
			<g>
				<path class="st7" d="M34.9,11.4c0,0-0.6,0.6-0.9,0.8c-0.3,0.3-0.6,0.4-0.6,0.4s-0.9,1.9-0.8,3.3c0.2,1.4,0.1,4.5,0.5,5.9
					c0.4,1.3,0.4,1.7,0.4,2.3s-1,10.6-1,10.6s0.8,0.9,1.3-0.5c0,0,0.9-4.8,1-7.7c0.1-2.9,0-4.4,0-4.4S33.5,18,33.5,17
					c0-0.7,1-3.2,1.7-4.9c0.4-0.9,0.5-1.9,0.4-2.9v0v0c-0.1,0.7-0.3,1.4-0.6,2L34.9,11.4z"/>
			</g>
			<g>
				<path class="st0" d="M42.5,16.6c0,0,0.5,2.8,0.7,3.8s0.4,2.2,0.6,2.6c0.3,0.4,0.1,1.2,0,1.9c-0.1,0.7-1.9,4.1-1.9,4.1L40.8,31
					c0,0,1.7,0.7,2.4,2.2c0,0,2.3-2.9,3.1-4.7s1.5-3.9,1.5-3.9s0.3-0.5,0-1.5s-0.9-5.5-1-6.2c-0.1-0.7-0.5-2.1-0.5-2.5
					s-0.4-3.1-1.5-3.5c-1.1-0.4-2.9,0.5-2.9,0.5L42.5,16.6z"/>
			</g>
			<g>
				<path class="st7" d="M39.9,8.7c0,0,0.1,0.2,0,0.7c-0.2,0.5-2.9,5.2-3.2,6.2c-0.3,1-1.6,5-1.6,5l-0.7,2.1c0,0-0.1,3.7,0.4,4.9
					c0.6,1.2,3.5,4.9,4.5,5.1c1.1,0.2,1.1-1.5,2.1-1.8c1-0.3,2.4,1.9,2.8,2.4c0,0,0.8-1.2,0.7-2.9c-0.1-1.7-1.3-4.7-0.9-8.5
					c0.5-3.8-1.6-5.4-1.6-5.4s0.2-6,2.5-5.7c0,0-3.8-1.2-4-1.3c-0.1,0-0.1,0-0.1,0S40.5,9,39.9,8.7"/>
				<g>
					<path class="st6" d="M41.2,30.9c0,0-0.4,0.4-0.1,1.2c0.3,0.8,1.2,1.5,1.2,1.5s0.5-0.5,0.6-1.3c0.1-0.8,0.1-0.8,0.1-0.8
						L41.2,30.9z"/>
				</g>
				<g>
					<path class="st5" d="M41,31.1c0,0,0.5,0.7,1,1.2c0.6,0.5,0.9,0.3,0.9,0.3S41.9,31.1,41,31.1"/>
				</g>
			</g>
			<g>
				<path class="st0" d="M47.9,24.5c0,0-0.6,2-1.5,3.9c-0.9,1.9-3.1,4.7-3.1,4.7c-0.8-1.5-2.4-2.2-2.4-2.2l1.1-1.9
					c0,0,1.7-3.5,1.9-4.1s0.3-1.4,0-1.9c-0.3-0.4-0.5-1.6-0.6-2.6c-0.2-1-0.7-3.8-0.7-3.8h4.3c0,0.1,0,0.2,0,0.2
					c0.1,0.7,0.7,5.1,1,6.2C48.2,24,47.9,24.5,47.9,24.5z"/>
			</g>
		</g>
		<g>
			<path class="st12" d="M46,43.9H2c-1.1,0-2,0.9-2,2v0c0,1.1,0.9,2,2,2H46c1.1,0,2-0.9,2-2v0C48,44.8,47.1,43.9,46,43.9z"/>
		</g>
	</g>
</g>
</svg>
