<?xml version="1.0" encoding="utf-8"?>
<!-- Generator: Adobe Illustrator 16.0.0, SVG Export Plug-In . SVG Version: 6.00 Build 0)  -->
<!DOCTYPE svg PUBLIC "-//W3C//DTD SVG 1.1//EN" "http://www.w3.org/Graphics/SVG/1.1/DTD/svg11.dtd">
<svg version="1.1" id="Layer_1" xmlns="http://www.w3.org/2000/svg" xmlns:xlink="http://www.w3.org/1999/xlink" x="0px" y="0px"
	 width="48px" height="48px" viewBox="0 0 48 48" enable-background="new 0 0 48 48" xml:space="preserve">
<g>
	<path fill="#CDD5DF" d="M39.191,46.174H1.445c-0.753,0-1.363-0.609-1.363-1.363c0-0.752,0.61-1.362,1.363-1.362h37.746
		c0.753,0,1.363,0.61,1.363,1.362C40.555,45.564,39.944,46.174,39.191,46.174"/>
	<polygon fill="#ABB2B9" points="35.209,48 5.428,48 2.377,46.174 38.26,46.174 	"/>
	<path fill="#F2F2F2" d="M8.854,43.448h22.93c4.248-3.378,6.974-8.586,6.974-14.435V10.477H1.881v18.537
		C1.881,34.862,4.606,40.07,8.854,43.448"/>
	<path fill="#CDD5DF" d="M38.756,12.959v3.705c3.058,0.293,5.457,2.875,5.457,6.007c0,3.133-2.399,5.714-5.457,6.008v0.335
		c0,1.157-0.111,2.288-0.314,3.387c5.248-0.144,9.477-4.447,9.477-9.729C47.918,17.494,43.857,13.262,38.756,12.959"/>
	<path fill="#CDD6E0" d="M11.928,9.181c-0.272,0-0.545-0.104-0.754-0.312c-0.944-0.946-1.131-1.897-1.121-2.529
		c0.023-1.438,1.031-2.422,1.146-2.529C11.51,3.5,11.672,3.182,11.67,2.861c-0.002-0.459-0.347-0.896-0.479-1.025
		c-0.418-0.409-0.434-1.082-0.029-1.504c0.405-0.422,1.068-0.445,1.495-0.045c0.115,0.107,1.123,1.091,1.146,2.529
		c0.012,0.631-0.176,1.582-1.121,2.527c-0.148,0.146-0.493,0.584-0.495,1.043c-0.002,0.318,0.159,0.637,0.495,0.973
		c0.418,0.418,0.418,1.092,0,1.51C12.475,9.076,12.201,9.181,11.928,9.181"/>
	<path fill="#CDD6E0" d="M20.318,9.181c-0.273,0-0.546-0.104-0.754-0.312c-0.945-0.946-1.133-1.897-1.121-2.529
		c0.023-1.438,1.031-2.422,1.146-2.529C19.9,3.5,20.063,3.182,20.061,2.861c-0.002-0.459-0.348-0.896-0.479-1.025
		c-0.418-0.409-0.434-1.082-0.029-1.504s1.067-0.445,1.494-0.045c0.115,0.107,1.123,1.091,1.146,2.529
		c0.012,0.631-0.176,1.582-1.121,2.527c-0.148,0.146-0.494,0.584-0.496,1.043c-0.002,0.318,0.16,0.637,0.496,0.973
		c0.417,0.418,0.417,1.092,0,1.51C20.864,9.076,20.592,9.181,20.318,9.181"/>
	<path fill="#CDD6E0" d="M28.709,9.181c-0.273,0-0.547-0.104-0.754-0.312c-0.945-0.946-1.133-1.897-1.121-2.529
		c0.022-1.438,1.03-2.422,1.146-2.529c0.312-0.311,0.473-0.629,0.471-0.949c-0.002-0.459-0.347-0.896-0.479-1.025
		c-0.418-0.409-0.432-1.082-0.028-1.504c0.405-0.422,1.067-0.445,1.495-0.045c0.115,0.107,1.123,1.091,1.146,2.529
		c0.01,0.631-0.177,1.582-1.121,2.527c-0.149,0.146-0.494,0.584-0.496,1.043c-0.002,0.318,0.16,0.637,0.496,0.973
		c0.416,0.418,0.416,1.092,0,1.51C29.254,9.076,28.981,9.181,28.709,9.181"/>
	<polygon fill="#FF7058" points="14.457,24.529 14.457,10.477 11.584,10.477 11.584,24.529 7.598,24.529 7.598,32.037 
		18.442,32.037 18.442,24.529 	"/>
</g>
</svg>
