<?xml version="1.0" encoding="utf-8"?>
<!-- Generator: Adobe Illustrator 18.0.0, SVG Export Plug-In . SVG Version: 6.00 Build 0)  -->
<!DOCTYPE svg PUBLIC "-//W3C//DTD SVG 1.1//EN" "http://www.w3.org/Graphics/SVG/1.1/DTD/svg11.dtd">
<svg version="1.1" id="Layer_1" xmlns="http://www.w3.org/2000/svg" xmlns:xlink="http://www.w3.org/1999/xlink" x="0px" y="0px"
	 viewBox="0 0 48 48" enable-background="new 0 0 48 48" xml:space="preserve">
<g>
	<g>
		<circle fill="#40596B" cx="19.5" cy="43.6" r="4.4"/>
		<circle fill="#334A5E" cx="19.5" cy="43.6" r="2"/>
	</g>
	<g>
		<circle fill="#40596B" cx="40.9" cy="43.6" r="4.4"/>
		<circle fill="#334A5E" cx="40.9" cy="43.6" r="2"/>
	</g>
	<g>
		<path fill="#40596B" d="M23.8,33.1c0,0.4,0.3,0.7,0.7,0.7h1.6c0.4,0,0.7-0.3,0.7-0.7v-1.9h-2.9V33.1z"/>
		<path fill="#40596B" d="M35,31.2v1.9c0,0.4,0.3,0.7,0.7,0.7h1.6c0.4,0,0.7-0.3,0.7-0.7v-1.9H35z"/>
	</g>
	<path fill="#40596B" d="M34.5,9.8h-7.1c-0.4,0-0.7-0.3-0.7-0.7V1.7h1.4v6.6h5.7V1.7h1.4v7.4C35.2,9.5,34.8,9.8,34.5,9.8z"/>
	<path fill="#40596B" d="M36,2.5c-0.2,0-0.3-0.1-0.4-0.2c-1.4-1.2-7.8-1.2-9.2,0c-0.3,0.3-0.8,0.2-1-0.1c-0.2-0.3-0.2-0.8,0.1-1
		c2-1.6,9.1-1.6,11,0c0.3,0.3,0.4,0.7,0.1,1C36.4,2.4,36.2,2.5,36,2.5z"/>
	<path fill="#FF7058" d="M39.5,7.3H22.2c-1.1,0-2,0.9-2,2V30c0,1.1,0.9,2,2,2h17.3c1.1,0,2-0.9,2-2V9.3C41.5,8.2,40.6,7.3,39.5,7.3z
		"/>
	<path fill="#F1543F" d="M26.4,11.3L26.4,11.3c-1,0-1.8,0.8-1.8,1.8v13c0,1,0.8,1.8,1.8,1.8l0,0c1,0,1.8-0.8,1.8-1.8v-13
		C28.2,12.2,27.4,11.3,26.4,11.3z"/>
	<path fill="#F1543F" d="M35.4,11.3L35.4,11.3c-1,0-1.8,0.8-1.8,1.8v13c0,1,0.8,1.8,1.8,1.8l0,0c1,0,1.8-0.8,1.8-1.8v-13
		C37.3,12.2,36.5,11.3,35.4,11.3z"/>
	<path fill="#CDD6E0" d="M46,37.7H14.4c-0.9,0-1.7-0.7-1.9-1.6L6.8,6.5L1.1,3.9c-1-0.5-1.4-1.6-0.9-2.6c0.5-1,1.6-1.4,2.6-0.9
		l6.6,3.1c0.6,0.3,1,0.8,1.1,1.4L16,33.7H46c1.1,0,2,0.9,2,2C48,36.8,47.1,37.7,46,37.7z"/>
</g>
</svg>
