<?xml version="1.0" encoding="utf-8"?>
<!-- Generator: Adobe Illustrator 16.0.0, SVG Export Plug-In . SVG Version: 6.00 Build 0)  -->
<!DOCTYPE svg PUBLIC "-//W3C//DTD SVG 1.1//EN" "http://www.w3.org/Graphics/SVG/1.1/DTD/svg11.dtd">
<svg version="1.1" id="Layer_1" xmlns="http://www.w3.org/2000/svg" xmlns:xlink="http://www.w3.org/1999/xlink" x="0px" y="0px"
	 width="48px" height="48px" viewBox="0 0 48 48" enable-background="new 0 0 48 48" xml:space="preserve">
<g>
	<path fill="#4CDBC4" d="M46.455,48H1.545l1.117-6.514c1.088-6.334,6.58-10.965,13.008-10.965h16.66
		c6.428,0,11.92,4.631,13.008,10.965L46.455,48z"/>
	<path fill="#F8B64C" d="M30.156,27.652v2.904c0,0-1.465,3.165-5.034,3.993h-0.021c-0.479,0.117-1.007,0.191-1.564,0.202
		c-4.715-0.096-6.609-4.195-6.609-4.195v-2.871c0.848,0.658,1.805,1.194,2.842,1.523c0.148,0.053,0.299,0.095,0.447,0.138
		c0.788,0.233,1.605,0.35,2.463,0.35h1.715C26.547,29.696,28.531,28.905,30.156,27.652"/>
	<g opacity="0.1">
		<g>
			<defs>
				<rect id="SVGID_41_" x="20.217" y="27.647" width="9.939" height="6.9"/>
			</defs>
			<clipPath id="SVGID_2_">
				<use xlink:href="#SVGID_41_"  overflow="visible"/>
			</clipPath>
			<path clip-path="url(#SVGID_2_)" fill="#40596B" d="M30.156,27.652v2.904c0,0-1.465,3.165-5.034,3.993h-0.021l-4.885-5.203
				c0.788,0.233,1.605,0.35,2.463,0.35h1.715C26.547,29.696,28.531,28.905,30.156,27.652"/>
		</g>
	</g>
	<rect x="23.537" y="34.743" fill="#FFD15C" width="0.002" height="0.004"/>
	<path fill="#40596B" d="M31.407,24c0,0,5.557,6.122,4.17,9.936c-1.388,3.814-1.572,8.511-0.392,9.551c0,0-0.224,1.272-2.188-0.809
		c0,0-5.978-5.647-4.707-12.582C28.29,30.096,30.127,28.396,31.407,24"/>
	<path fill="#40596B" d="M33.563,17.788c0,0,1.487-5.371-7.582-9.334c0,0-4.402,6.692-10.037,7.133c0,0,0.968-0.529,1.231-0.969
		c0,0-1.321,1.028-3.612-1.262c0,0-0.059,1.357-0.076,3.066c-0.019,1.948,0.293,3.89,0.924,5.733l0.916,2.677
		c0,0-6.868-4.578-3.963-16.378c0,0,2.025-10.214,15.41-8.189c0,0,8.541,1.497,8.364,12.944
		C35.138,13.209,35.182,16.087,33.563,17.788"/>
	<path fill="#F8B64C" d="M15.15,18.14c0.39,1.672,0.184,3.15-0.461,3.3c-0.644,0.15-1.481-1.084-1.873-2.756
		c-0.389-1.672-0.184-3.149,0.461-3.3C13.921,15.233,14.76,16.467,15.15,18.14"/>
	<path fill="#F2F2F2" d="M41.049,38.351l-0.68,9.65H7.629l-0.68-9.65c-0.08-0.59,0.39-1.12,0.99-1.12h32.119
		C40.659,37.231,41.129,37.761,41.049,38.351"/>
	<path fill="#ACB3BA" d="M25.307,44.282c-0.709,0-1.283,0.591-1.283,1.313C24.725,45.595,25.299,45.01,25.307,44.282"/>
	<path fill="#ACB3BA" d="M25.499,47.471c0,0.19,0.03,0.37,0.11,0.53h-3.871c-0.119-1.18,0.41-2.21,1.211-2.27
		c0.189-0.02,0.38,0.01,0.55,0.1c0.37,0.18,0.771,0.18,1.13,0c0.18-0.09,0.37-0.12,0.561-0.1c0.369,0.02,0.689,0.28,0.91,0.66
		C25.749,46.621,25.509,47.021,25.499,47.471"/>
	<path fill="#F8B64C" d="M31.912,18.14c-0.391,1.672-0.185,3.15,0.459,3.3c0.645,0.15,1.369-1.114,1.873-2.756
		c0.301-0.979,0.162-2.982-0.459-3.3C33.195,15.083,32.302,16.467,31.912,18.14"/>
	<path fill="#FFD15C" d="M25.98,8.455c0,0-4.402,6.692-10.037,7.132c0,0,0.967-0.528,1.232-0.968c0,0-1.32,1.025-3.607-1.256
		c-0.002,0.026-0.004,0.053-0.009,0.078c-0.013,0.312-0.059,1.514-0.073,2.982c-0.008,0.854,0.059,1.704,0.176,2.548
		c0.056,0.345,0.109,0.69,0.181,1.035c0,0.001,0,0.001,0.001,0.002c0.083,0.405,0.184,0.808,0.289,1.209
		c0.088,0.313,0.171,0.63,0.277,0.938l0.595,1.739c1.806,4.613,4.946,8.35,8.526,8.35c5.39,0,9.785-8.457,10.111-15.64
		C33.54,14.8,32.43,11.271,25.98,8.455"/>
	<path fill="#334A5E" d="M35.039,16.794v3.267c-0.67,4.64-4.67,8.22-9.49,8.22H24.27v-1.25h1.279c4.131,0,7.57-3.02,8.221-6.97
		h-0.58c0,0,0.361-1.664,0.443-3.267H35.039z"/>
	<path fill="#FF7058" d="M25.016,29.201h-2.031c-0.855,0-1.551-0.694-1.551-1.549c0-0.856,0.695-1.55,1.551-1.55h2.031
		c0.856,0,1.55,0.694,1.55,1.55C26.565,28.507,25.872,29.201,25.016,29.201"/>
</g>
</svg>
