<?xml version="1.0" encoding="utf-8"?>
<!-- Generator: Adobe Illustrator 18.0.0, SVG Export Plug-In . SVG Version: 6.00 Build 0)  -->
<!DOCTYPE svg PUBLIC "-//W3C//DTD SVG 1.1//EN" "http://www.w3.org/Graphics/SVG/1.1/DTD/svg11.dtd">
<svg version="1.1" id="Layer_1" xmlns="http://www.w3.org/2000/svg" xmlns:xlink="http://www.w3.org/1999/xlink" x="0px" y="0px"
	 viewBox="0 0 512 512" enable-background="new 0 0 512 512" xml:space="preserve">
<g>
	<path fill="#334A5E" d="M2,439.7v10.6c0,8.5,6.9,15.4,15.4,15.4h477.3c8.5,0,15.4-6.9,15.4-15.4v-10.6H2z"/>
	<path fill="#40596B" d="M455.3,46.4H56.9c-11.7,0-21.2,9.5-21.2,21.2v261.7h440.7V67.6C476.5,55.9,467,46.4,455.3,46.4z"/>
	<rect x="56.9" y="67.6" fill="#84DBFF" width="398.4" height="240.5"/>
	<polygon fill="#CDD6E0" points="476.5,329.3 35.7,329.3 2.2,439.7 510,439.7 	"/>
	<polygon fill="#40596B" points="309.6,375.4 202.4,375.4 191.1,413.7 320.9,413.7 	"/>
	<g>
		<path fill="#FFFFFF" d="M195.4,210.4v12.4h-46.7c0.5-4.7,2-9.1,4.6-13.3c2.5-4.2,7.5-9.7,15-16.7c6-5.6,9.7-9.4,11-11.4
			c1.8-2.7,2.7-5.5,2.7-8.2c0-3-0.8-5.3-2.4-6.9c-1.6-1.6-3.8-2.4-6.6-2.4c-2.8,0-5,0.8-6.6,2.5c-1.6,1.7-2.6,4.5-2.8,8.3l-13.3-1.3
			c0.8-7.3,3.3-12.6,7.4-15.8c4.2-3.2,9.4-4.8,15.6-4.8c6.9,0,12.3,1.8,16.2,5.5c3.9,3.7,5.9,8.3,5.9,13.8c0,3.1-0.6,6.1-1.7,8.9
			c-1.1,2.8-2.9,5.8-5.3,8.9c-1.6,2.1-4.5,5-8.7,8.9c-4.2,3.9-6.9,6.4-8,7.7c-1.1,1.3-2,2.5-2.7,3.7H195.4z"/>
		<path fill="#FFFFFF" d="M222.5,212.7v-18.1h-18.2v-12.5h18.2v-18.1h12.1v18.1h18.3v12.5h-18.3v18.1H222.5z"/>
		<path fill="#FFFFFF" d="M306.1,210.4v12.4h-46.7c0.5-4.7,2-9.1,4.6-13.3c2.5-4.2,7.5-9.7,15-16.7c6-5.6,9.7-9.4,11-11.4
			c1.8-2.7,2.7-5.5,2.7-8.2c0-3-0.8-5.3-2.4-6.9c-1.6-1.6-3.8-2.4-6.6-2.4c-2.8,0-5,0.8-6.6,2.5c-1.6,1.7-2.6,4.5-2.8,8.3l-13.3-1.3
			c0.8-7.3,3.3-12.6,7.4-15.8c4.2-3.2,9.4-4.8,15.6-4.8c6.9,0,12.3,1.8,16.2,5.5c3.9,3.7,5.9,8.3,5.9,13.8c0,3.1-0.6,6.1-1.7,8.9
			c-1.1,2.8-2.9,5.8-5.3,8.9c-1.6,2.1-4.5,5-8.7,8.9c-4.2,3.9-6.9,6.4-8,7.7c-1.1,1.3-2,2.5-2.7,3.7H306.1z"/>
		<path fill="#FFFFFF" d="M315,184v-12.2h48.6V184H315z M315,205.1v-12.3h48.6v12.3H315z"/>
	</g>
</g>
</svg>
