<?xml version="1.0" encoding="utf-8"?>
<!-- Generator: Adobe Illustrator 18.0.0, SVG Export Plug-In . SVG Version: 6.00 Build 0)  -->
<!DOCTYPE svg PUBLIC "-//W3C//DTD SVG 1.1//EN" "http://www.w3.org/Graphics/SVG/1.1/DTD/svg11.dtd">
<svg version="1.1" id="Layer_1" xmlns="http://www.w3.org/2000/svg" xmlns:xlink="http://www.w3.org/1999/xlink" x="0px" y="0px"
	 viewBox="0 0 48 48" enable-background="new 0 0 48 48" xml:space="preserve">
<g>
	<g>
		<g>
			<g>
				<g>
					<g>
						<path fill="#F7B64C" d="M18.1,16c0,0-8.2-11-4.1-16c0,0,0.2,1.6,2.7,3.7C19.2,5.8,23.8,12,18.1,16z"/>
					</g>
					<g>
						<path fill="#F7B64C" d="M18.2,15.9c0,0-7.9-11.3-13.9-9c0,0,1.5,0.7,2.7,3.7C8.2,13.7,12.5,20,18.2,15.9z"/>
					</g>
				</g>
				<g>
					<g>
						<path fill="#FFD15C" d="M17.7,10.1C19,12,19.5,15,18.2,16s-4.1-0.4-5.4-2.3s-5-9.2-3.6-10.2C10.7,2.3,16.4,8.3,17.7,10.1z"/>
					</g>
				</g>
			</g>
			<g>
				<g>
					<g>
						<path fill="#66C6B9" d="M9.2,14.3c2,2.4,5.2,4.3,8.9,1.7l0,0c0,0,0,0,0,0c0,0,0,0,0,0l0,0c3.6-2.7,2.9-6.2,1.2-9
							C21.8,13,14.1,18.6,9.2,14.3z"/>
					</g>
				</g>
			</g>
			<g>
				<g>
					<path fill="#66C6B9" d="M18.5,14.6c-0.3-0.4-0.5-0.9-0.9-1.3c-1.6-2.2-3.8-3.2-3.8-3.2s0.3,2.4,1.8,4.6c0.3,0.5,0.7,0.9,1,1.3
						L18.5,14.6z"/>
				</g>
			</g>
		</g>
		<g>
			<path fill="#4ABAA5" d="M16,12.9c0,0,0.3,0.3,0.7,0.8c0.2,0.3,0.5,0.6,0.8,1c0.3,0.4,0.6,0.9,0.9,1.4c0.6,1,1.2,2.3,1.8,3.7
				c0.6,1.4,1.1,2.9,1.7,4.4c1,3,1.8,6.1,2.2,8.5c0.5,2.4,0.6,4,0.6,4l-1.7,0.2c0,0-0.1-1.5-0.4-3.9c-0.3-2.3-0.9-5.4-1.8-8.5
				c-0.4-1.5-0.9-3-1.4-4.4c-0.5-1.4-1.1-2.6-1.6-3.7c-0.3-0.5-0.5-1-0.8-1.4c-0.3-0.4-0.5-0.7-0.7-1c-0.4-0.5-0.7-0.8-0.7-0.8
				L16,12.9z"/>
		</g>
		<g>
			<path fill="#4ABAA5" d="M31.2,20.4c0,0-0.9,0.7-2,2c-0.5,0.7-1.1,1.5-1.6,2.4c-0.3,0.5-0.5,0.9-0.8,1.5c-0.3,0.5-0.4,1-0.7,1.6
				c-0.2,0.5-0.4,1.1-0.5,1.6c-0.1,0.5-0.3,1.1-0.4,1.6c-0.1,0.5-0.2,1-0.3,1.5c-0.1,0.5-0.1,0.9-0.1,1.4c-0.1,0.8-0.1,1.6-0.1,2
				c0,0.5,0,0.8,0,0.8l-1.7,0c0,0,0-0.3,0.1-0.8c0-0.5,0.1-1.3,0.2-2.2c0.1-0.4,0.1-0.9,0.2-1.4c0.1-0.5,0.2-1,0.4-1.6
				c0.2-0.5,0.3-1.1,0.5-1.7c0.2-0.6,0.4-1.1,0.7-1.7c0.3-0.5,0.5-1.1,0.8-1.6c0.3-0.5,0.6-1,0.9-1.5c0.6-0.9,1.3-1.8,1.9-2.4
				c1.2-1.3,2.2-2,2.2-2L31.2,20.4z"/>
		</g>
		<g>
			<polygon fill="#4ABAA5" points="24.3,20 24.7,45.6 23,45.6 23.3,20 			"/>
		</g>
		<g>
			<g>
				<g>
					<g>
						<path fill="#E8EAE9" d="M29.9,21.7c0,0,8.2-11,4.1-16c0,0-0.2,1.6-2.7,3.7C28.8,11.5,24.2,17.7,29.9,21.7z"/>
					</g>
					<g>
						<path fill="#E8EAE9" d="M29.8,21.6c0,0,7.9-11.3,13.9-9c0,0-1.5,0.7-2.7,3.7C39.8,19.4,35.5,25.7,29.8,21.6z"/>
					</g>
				</g>
				<g>
					<g>
						<path fill="#F3F3F3" d="M30.3,15.8c-1.3,1.8-1.8,4.9-0.4,5.8c1.4,1,4.1-0.4,5.4-2.3c1.3-1.8,5-9.2,3.6-10.2
							C37.3,8,31.6,14,30.3,15.8z"/>
					</g>
				</g>
			</g>
			<g>
				<g>
					<g>
						<path fill="#66C6B9" d="M38.8,20c-2,2.4-5.2,4.3-8.9,1.7l0,0c0,0,0,0,0,0c0,0,0,0,0,0l0,0c-3.6-2.7-2.9-6.2-1.2-9
							C26.2,18.7,33.9,24.3,38.8,20z"/>
					</g>
				</g>
			</g>
			<g>
				<g>
					<path fill="#66C6B9" d="M29.5,20.3c0.3-0.4,0.5-0.9,0.9-1.3c1.6-2.2,3.8-3.2,3.8-3.2s-0.3,2.4-1.8,4.6c-0.3,0.5-0.7,0.9-1,1.3
						L29.5,20.3z"/>
				</g>
			</g>
		</g>
		<g>
			<g>
				<g>
					<g>
						<path fill="#F05540" d="M23.8,22.3c0,0-0.3-16.6,7.3-18.6c0,0-1,1.7,0,5.5C32.1,13.1,32.2,22.3,23.8,22.3z"/>
					</g>
					<g>
						<path fill="#F05540" d="M24,22.3c0,0,0.3-16.6-7.3-18.6c0,0,1,1.7,0,5.5C15.8,13.1,15.6,22.3,24,22.3z"/>
					</g>
				</g>
				<g>
					<g>
						<path fill="#F3705A" d="M27.6,16.3c0,2.7-1.7,6-3.7,6s-3.7-3.3-3.7-6c0-2.7,1.7-12.5,3.7-12.5C26.3,3.7,27.6,13.5,27.6,16.3z"
							/>
					</g>
				</g>
			</g>
			<g>
				<g>
					<g>
						<path fill="#66C6B9" d="M16.3,14.4c0.3,3.8,2,7.8,7.5,7.9h0.1c0,0,0,0,0,0c0,0,0,0,0,0H24c5.4-0.1,7.2-4.1,7.5-7.9
							C29.6,21.9,18.1,21.9,16.3,14.4z"/>
					</g>
				</g>
			</g>
			<g>
				<g>
					<path fill="#66C6B9" d="M25.2,21.2c0.1-0.6,0.1-1.3,0.1-1.9c0-3.2-1.4-5.8-1.4-5.8s-1.4,2.6-1.4,5.8c0,0.7,0,1.3,0.1,1.9H25.2z
						"/>
				</g>
			</g>
		</g>
		<g>
			<g>
				<path fill="#4ABAA5" d="M16.1,48l-0.5-1c8.9-4.8,6.7-16.7,6.7-16.9l1.1-0.2C23.4,30,25.8,42.8,16.1,48z"/>
			</g>
		</g>
		<g>
			<g>
				<path fill="#4ABAA5" d="M26.4,43.9c-4.1-5.9-2.7-13.6-2.6-13.9l1.1,0.2c0,0.1-1.4,7.6,2.4,13.1L26.4,43.9z"/>
			</g>
		</g>
		<g>
			<g>
				<path fill="#344A5E" d="M24.3,32.4c-0.6,0-1.3-0.1-2.1-0.3c-0.3-0.1-0.5-0.4-0.4-0.7c0.1-0.3,0.4-0.5,0.7-0.4
					c1,0.3,1.8,0.4,2.4,0.2c0.3-0.1,0.6,0.1,0.7,0.4c0.1,0.3-0.1,0.6-0.4,0.7C24.9,32.4,24.6,32.4,24.3,32.4z"/>
			</g>
		</g>
		<g>
			<g>
				<path fill="#415A6B" d="M24.4,31.3c-1.7,0-2.5-0.5-2.6-0.6c-0.3-0.2-0.3-0.5-0.1-0.8c0.2-0.3,0.5-0.3,0.8-0.1
					c0,0,0.9,0.5,2.8,0.4c0.3,0,0.6,0.2,0.6,0.5c0,0.3-0.2,0.6-0.5,0.6C25,31.3,24.7,31.3,24.4,31.3z"/>
			</g>
		</g>
		<g>
			<g>
				<path fill="#344A5E" d="M20.6,39.3c-0.2-0.3-0.1-0.6,0.2-0.8c0.1,0,1.2-0.8,0.9-2.9c-0.4-2.9,1.3-4.2,1.4-4.3
					c0.2-0.1,0.4-0.1,0.6-0.1c0.2,0.1,0.3,0.3,0.3,0.5c0,0.1,0.2,2.1,2.2,3.3c0.3,0.2,0.4,0.5,0.2,0.8c-0.2,0.3-0.5,0.4-0.8,0.2
					c-1.4-0.9-2.1-2.1-2.5-3c-0.3,0.5-0.5,1.3-0.4,2.4c0.4,2.9-1.4,4-1.4,4.1C21.1,39.7,20.8,39.7,20.6,39.3z"/>
			</g>
		</g>
	</g>
</g>
</svg>
