<?xml version="1.0" encoding="utf-8"?>
<!-- Generator: Adobe Illustrator 18.0.0, SVG Export Plug-In . SVG Version: 6.00 Build 0)  -->
<!DOCTYPE svg PUBLIC "-//W3C//DTD SVG 1.1//EN" "http://www.w3.org/Graphics/SVG/1.1/DTD/svg11.dtd">
<svg version="1.1" id="Layer_1" xmlns="http://www.w3.org/2000/svg" xmlns:xlink="http://www.w3.org/1999/xlink" x="0px" y="0px"
	 viewBox="0 0 48 48" enable-background="new 0 0 48 48" xml:space="preserve">
<g>
	<circle fill="#F2F2F2" cx="24" cy="24" r="24"/>
	<path fill="#84DBFF" d="M16.9,46.9c-9.2-2.8-16-11-16.9-20.9c1.1-1.5,4.7-5.2,12.4-7.1c0.6,1.7,2,2.9,3.8,3.2
		C15.6,24.4,11,40.8,16.9,46.9z"/>
	<path fill="#FF7058" d="M48,24c0,6.6-2.7,12.6-7,16.9L20.2,21.1c1.1-0.9,1.8-2.3,1.8-3.8c0-0.5-0.1-1-0.2-1.4c3-0.9,18.5-5,24.8,0
		C47.5,18.4,48,21.1,48,24z"/>
	<path fill="#FFD15C" d="M29.5,0.6L29.5,0.6c-5.4,1.5-9.1,9.8-10.1,12.4c-0.7-0.4-1.5-0.6-2.3-0.6c-1.2,0-2.2,0.4-3.1,1.1
		c-3.7-5.2-5.2-8-5.2-8l0-0.1C12.9,2,18.2,0,24,0C25.9,0,27.8,0.2,29.5,0.6z"/>
	<circle fill="#ACB3BA" cx="17.1" cy="17.3" r="4"/>
	<path opacity="0.1" fill="#231F20" d="M0,24c0,5.8,2.1,11.2,5.5,15.3c0.6,0.5,1.1,0.9,1.8,1.4C4.6,36.8,3,32.1,3,27
		C3,13.7,13.7,3,27,3c5.1,0,9.8,1.6,13.7,4.3c-0.4-0.6-0.9-1.2-1.4-1.8C35.2,2.1,29.8,0,24,0C10.7,0,0,10.7,0,24z"/>
</g>
</svg>
