<?xml version="1.0" encoding="utf-8"?>
<!-- Generator: Adobe Illustrator 16.0.0, SVG Export Plug-In . SVG Version: 6.00 Build 0)  -->
<!DOCTYPE svg PUBLIC "-//W3C//DTD SVG 1.1//EN" "http://www.w3.org/Graphics/SVG/1.1/DTD/svg11.dtd">
<svg version="1.1" id="Layer_1" xmlns="http://www.w3.org/2000/svg" xmlns:xlink="http://www.w3.org/1999/xlink" x="0px" y="0px"
	 width="48px" height="48px" viewBox="0 0 48 48" enable-background="new 0 0 48 48" xml:space="preserve">
<g>
	<path fill="#FFD15C" d="M41.429,13.836V4.799c0-0.649-0.526-1.174-1.175-1.174H15.658c-0.649,0-1.176,0.525-1.176,1.174v9.037
		H41.429z"/>
	<path fill="#F8B64C" d="M14.482,14.937v14.459c0,0.649,0.526,1.175,1.176,1.175h24.596c0.648,0,1.175-0.526,1.175-1.175V14.937
		H14.482z"/>
	<rect x="25.047" y="3.625" fill="#F2F2F2" width="5.818" height="5.818"/>
	<path fill="#F2F2F2" d="M42.746,31.133c-0.365-0.065-0.74-0.106-1.125-0.106h-0.094l4.438-19.583H11.563L10.254,1.272
		C10.162,0.545,9.541,0,8.809,0H4.027v3.397h3.075l3.989,31.027h30.529c0.4,0,0.778,0.086,1.125,0.23V31.133z M20.502,27.546
		c0,1.009-0.815,1.825-1.824,1.825c-1.01,0-1.825-0.816-1.825-1.825v-9.327c0-1.009,0.815-1.825,1.825-1.825
		c1.009,0,1.824,0.816,1.824,1.825V27.546z M28.83,27.546c0,1.009-0.826,1.825-1.834,1.825c-1.011,0-1.826-0.816-1.826-1.825v-9.327
		c0-1.009,0.815-1.825,1.826-1.825c1.008,0,1.834,0.816,1.834,1.825V27.546z M37.147,27.546c0,1.009-0.825,1.825-1.834,1.825
		c-1.011,0-1.825-0.816-1.825-1.825v-9.327c0-1.009,0.814-1.825,1.825-1.825c1.009,0,1.834,0.816,1.834,1.825V27.546z"/>
	<line fill="#F2F2F2" x1="41.142" y1="32.729" x2="45.966" y2="11.443"/>
	<path fill="#FF7058" d="M41.621,31.027h-0.094l-0.77,3.397h0.744c1.441,0,2.766,0.97,3.041,2.385
		c0.369,1.901-1.084,3.573-2.922,3.573H9.662c-0.939,0-1.699,0.76-1.699,1.698c0,0.939,0.76,1.699,1.699,1.699h31.959
		c4.203,0,7.469-4.087,6.033-8.494C46.814,32.71,44.33,31.027,41.621,31.027"/>
	<path fill="#334A5E" d="M21.879,42.852c0,2.843-2.305,5.148-5.148,5.148c-2.843,0-5.146-2.305-5.146-5.148
		c0-2.843,2.304-5.148,5.146-5.148C19.574,37.704,21.879,40.009,21.879,42.852"/>
	<path fill="#F2F2F2" d="M18.902,42.852c0,1.199-0.971,2.172-2.172,2.172c-1.199,0-2.172-0.973-2.172-2.172
		c0-1.2,0.973-2.172,2.172-2.172C17.932,40.68,18.902,41.652,18.902,42.852"/>
	<path fill="#334A5E" d="M41.142,42.852c0,2.843-2.306,5.148-5.147,5.148c-2.844,0-5.147-2.305-5.147-5.148
		c0-2.843,2.304-5.148,5.147-5.148C38.836,37.704,41.142,40.009,41.142,42.852"/>
	<path fill="#F2F2F2" d="M38.166,42.852c0,1.199-0.973,2.172-2.172,2.172s-2.172-0.973-2.172-2.172c0-1.2,0.973-2.172,2.172-2.172
		S38.166,41.652,38.166,42.852"/>
	<path fill="#FF7058" d="M5.383,0.001H1.699c-0.938,0-1.697,0.76-1.697,1.698c0,0.937,0.76,1.698,1.697,1.698h3.684
		c0.938,0,1.697-0.761,1.697-1.698C7.08,0.761,6.32,0.001,5.383,0.001"/>
</g>
</svg>
