<?xml version="1.0" encoding="utf-8"?>
<!-- Generator: Adobe Illustrator 18.0.0, SVG Export Plug-In . SVG Version: 6.00 Build 0)  -->
<!DOCTYPE svg PUBLIC "-//W3C//DTD SVG 1.1//EN" "http://www.w3.org/Graphics/SVG/1.1/DTD/svg11.dtd">
<svg version="1.1" id="Layer_1" xmlns="http://www.w3.org/2000/svg" xmlns:xlink="http://www.w3.org/1999/xlink" x="0px" y="0px"
	 viewBox="0 0 48 48" enable-background="new 0 0 48 48" xml:space="preserve">
<g>
	<path fill="#ACB3BA" d="M48,24.6C48,36,37.3,47.2,24,47.2S0,36,0,24.6C0,7.1,24,0.8,24,0.8S48,7.1,48,24.6z"/>
	<path fill="#F2F2F2" d="M41.6,16.9c-4.8-3.8-11.9-2.9-16.3,1.4L24,19.7l-1.3-1.3c-4.4-4.4-11.4-5.3-16.3-1.5
		c-3,2.3-4.6,5.8-4.6,9.5c0,7.1,11.3,14.4,11.3,14.4c3.1,2.4,6.9,3.6,10.9,3.6h0c3.9,0,7.7-1.3,10.9-3.6c0,0,11.3-7.3,11.3-14.4
		C46.2,22.7,44.5,19.3,41.6,16.9z"/>
	<path fill="#CDD6E0" d="M39.1,21.5c-2.7-2.7-7-2.7-9.7,0L24,26.9l-5.4-5.4c-2.7-2.7-7-2.7-9.7,0c-2.7,2.7-2.7,7,0,9.7l9,9l6-6l6,6
		l9-9C41.8,28.6,41.8,24.2,39.1,21.5z"/>
	<path fill="#FFFFFF" d="M31.5,31.1c-4.2-3.9-10.8-3.9-15,0c-1.9,1.8-3.4,3.6-3.4,4.9c0,3.5,2.8,6.3,6.3,6.3c1.8,0,3.4,0.2,4.6-1
		c1.1,1.2,2.7,1,4.6,1c3.5,0,6.3-2.8,6.3-6.3C34.8,34.6,33.4,32.8,31.5,31.1z"/>
	<path fill="#CDD6E0" d="M28.6,37c-1.3-5.3-8-5.3-9.3,0c0,0,0,0,0,0.1c1.9-1,3.2,1.8,4.6,1.8C25.4,38.9,26.7,36.1,28.6,37
		C28.6,37.1,28.6,37.1,28.6,37z"/>
	<path fill="#CDD6E0" d="M26.2,40.4h-0.2c-0.6,0-1-0.5-1-1v0h-1.9v0c0,0.6-0.5,1-1,1h-0.2c-0.2,0-0.4,0.2-0.4,0.4s0.2,0.4,0.4,0.4
		h4.3c0.2,0,0.4-0.2,0.4-0.4S26.5,40.4,26.2,40.4z"/>
	<g>
		<circle fill="#40596B" cx="13.2" cy="25.1" r="3.2"/>
		<circle fill="#F2F2F2" cx="12.5" cy="24.5" r="1.1"/>
	</g>
	<g>
		<circle fill="#40596B" cx="34.8" cy="25.1" r="3.2"/>
		<circle fill="#F2F2F2" cx="34.2" cy="24.5" r="1.1"/>
	</g>
	<g>
		<path fill="#40596B" d="M20.4,15.1c-2.1-1.2-4.5-1.8-6.9-1.8c-2.9,0-5.6,0.9-7.8,2.7c-2.1,1.6-3.6,3.8-4.4,6.2
			c-0.6-1.5-0.8-3.1-0.8-4.7V9.1h8.3C13.5,9.1,17.8,11.5,20.4,15.1z"/>
		<path fill="#40596B" d="M47.6,9.1v8.3c0,1.6-0.3,3.2-0.8,4.7c-0.8-2.4-2.4-4.5-4.4-6.1c-2.3-1.8-5-2.7-7.9-2.7
			c-2.4,0-4.8,0.7-6.9,1.8c2.7-3.6,6.9-5.9,11.7-5.9H47.6z"/>
	</g>
	<g>
		<g>
			<path fill="#CDD6E0" d="M43.4,44.8c0-0.4,0-0.8-0.2-1.3c-0.1-0.5-0.2-1-0.4-1.5c-0.1-0.5-0.4-1-0.7-1.6c-0.3-0.5-0.6-1.1-1-1.6
				c-0.4-0.5-0.8-1-1.2-1.5c-0.5-0.4-0.9-0.9-1.5-1.2c-0.5-0.4-1.1-0.7-1.6-1c-0.5-0.2-1.1-0.5-1.6-0.7c-0.5-0.2-1-0.3-1.5-0.4
				C33.4,34,32.9,34,32.6,34c-0.4,0-0.7,0-1,0c-0.5,0-0.9,0-0.9,0s0.3,0,0.8,0.1c0.3,0,0.6,0.1,1,0.2c0.4,0.1,0.8,0.2,1.2,0.3
				c0.4,0.1,0.9,0.3,1.4,0.5c0.5,0.2,0.9,0.5,1.5,0.7c0.5,0.3,1,0.6,1.4,1c0.5,0.3,0.9,0.8,1.3,1.2c0.4,0.4,0.8,0.9,1.2,1.3
				c0.4,0.5,0.7,1,1,1.4c0.2,0.5,0.5,1,0.7,1.5c0.2,0.5,0.4,0.9,0.5,1.4c0.2,0.4,0.2,0.8,0.3,1.2c0.1,0.4,0.2,0.7,0.2,1
				c0.1,0.5,0.1,0.8,0.1,0.8s0-0.3,0-0.9C43.4,45.5,43.4,45.1,43.4,44.8z"/>
			<path fill="#CDD6E0" d="M38.9,44.4c0-0.3,0-0.6-0.1-0.9c-0.1-0.3-0.1-0.7-0.3-1.1c-0.1-0.4-0.3-0.8-0.5-1.2
				c-0.2-0.4-0.4-0.8-0.7-1.1c-0.3-0.4-0.6-0.7-0.9-1.1c-0.3-0.3-0.7-0.6-1.1-0.9c-0.4-0.3-0.8-0.5-1.1-0.7
				c-0.4-0.2-0.8-0.4-1.2-0.5c-0.4-0.1-0.7-0.2-1.1-0.3c-0.3-0.1-0.7-0.1-0.9-0.1c-0.3,0-0.5,0-0.7,0c-0.4,0-0.6,0-0.6,0
				s0.2,0,0.6,0.1c0.2,0,0.4,0.1,0.7,0.1c0.3,0.1,0.6,0.1,0.9,0.2c0.3,0.1,0.7,0.2,1,0.4c0.4,0.1,0.7,0.3,1.1,0.5
				c0.3,0.2,0.7,0.4,1,0.7c0.4,0.2,0.7,0.6,1,0.8c0.3,0.3,0.6,0.6,0.8,1c0.3,0.3,0.5,0.7,0.7,1c0.2,0.4,0.4,0.7,0.5,1.1
				c0.2,0.3,0.3,0.7,0.4,1c0.1,0.3,0.2,0.6,0.2,0.9c0.1,0.3,0.1,0.5,0.1,0.7c0.1,0.4,0.1,0.6,0.1,0.6s0-0.2,0-0.6
				C38.9,45,38.9,44.7,38.9,44.4z"/>
		</g>
		<g>
			<path fill="#CDD6E0" d="M4.6,44.8c0-0.4,0-0.8,0.2-1.3C4.9,43,5,42.5,5.2,42c0.1-0.5,0.4-1,0.7-1.6c0.3-0.5,0.6-1.1,1-1.6
				c0.4-0.5,0.8-1,1.2-1.5c0.5-0.4,0.9-0.9,1.5-1.2c0.5-0.4,1.1-0.7,1.6-1c0.5-0.2,1.1-0.5,1.6-0.7c0.5-0.2,1-0.3,1.5-0.4
				c0.5-0.1,0.9-0.1,1.3-0.2c0.4,0,0.7,0,1,0c0.5,0,0.9,0,0.9,0s-0.3,0-0.8,0.1c-0.3,0-0.6,0.1-1,0.2c-0.4,0.1-0.8,0.2-1.2,0.3
				c-0.4,0.1-0.9,0.3-1.4,0.5c-0.5,0.2-0.9,0.5-1.5,0.7c-0.5,0.3-1,0.6-1.4,1c-0.5,0.3-0.9,0.8-1.3,1.2c-0.4,0.4-0.8,0.9-1.2,1.3
				c-0.4,0.5-0.7,1-1,1.4c-0.2,0.5-0.5,1-0.7,1.5c-0.2,0.5-0.4,0.9-0.5,1.4C5.1,44,5.1,44.4,5,44.8c-0.1,0.4-0.2,0.7-0.2,1
				c-0.1,0.5-0.1,0.8-0.1,0.8s0-0.3,0-0.9C4.6,45.5,4.6,45.1,4.6,44.8z"/>
			<path fill="#CDD6E0" d="M9.1,44.4c0-0.3,0-0.6,0.1-0.9c0.1-0.3,0.1-0.7,0.3-1.1c0.1-0.4,0.3-0.8,0.5-1.2c0.2-0.4,0.4-0.8,0.7-1.1
				c0.3-0.4,0.6-0.7,0.9-1.1c0.3-0.3,0.7-0.6,1.1-0.9c0.4-0.3,0.8-0.5,1.1-0.7c0.4-0.2,0.8-0.4,1.2-0.5c0.4-0.1,0.7-0.2,1.1-0.3
				c0.3-0.1,0.7-0.1,0.9-0.1c0.3,0,0.5,0,0.7,0c0.4,0,0.6,0,0.6,0s-0.2,0-0.6,0.1c-0.2,0-0.4,0.1-0.7,0.1c-0.3,0.1-0.6,0.1-0.9,0.2
				c-0.3,0.1-0.7,0.2-1,0.4c-0.4,0.1-0.7,0.3-1.1,0.5c-0.3,0.2-0.7,0.4-1,0.7c-0.4,0.2-0.7,0.6-1,0.8c-0.3,0.3-0.6,0.6-0.8,1
				c-0.3,0.3-0.5,0.7-0.7,1c-0.2,0.4-0.4,0.7-0.5,1.1c-0.2,0.3-0.3,0.7-0.4,1c-0.1,0.3-0.2,0.6-0.2,0.9c-0.1,0.3-0.1,0.5-0.1,0.7
				c-0.1,0.4-0.1,0.6-0.1,0.6s0-0.2,0-0.6C9.1,45,9.1,44.7,9.1,44.4z"/>
		</g>
	</g>
</g>
</svg>
