<?xml version="1.0" encoding="utf-8"?>
<!-- Generator: Adobe Illustrator 18.0.0, SVG Export Plug-In . SVG Version: 6.00 Build 0)  -->
<!DOCTYPE svg PUBLIC "-//W3C//DTD SVG 1.1//EN" "http://www.w3.org/Graphics/SVG/1.1/DTD/svg11.dtd">
<svg version="1.1" id="Layer_1" xmlns="http://www.w3.org/2000/svg" xmlns:xlink="http://www.w3.org/1999/xlink" x="0px" y="0px"
	 viewBox="0 0 512 512" enable-background="new 0 0 512 512" xml:space="preserve">
<g>
	<path fill="#40596B" d="M488.8,2H23.2C11.5,2,2,11.5,2,23.2v465.5c0,11.7,9.5,21.2,21.2,21.2h465.5c11.7,0,21.2-9.5,21.2-21.2V23.2
		C510,11.5,500.5,2,488.8,2z"/>
	<path fill="#F2F2F2" d="M69.7,441.3V70.7c0-0.6,0.4-1,1-1h370.5c0.6,0,1,0.4,1,1v370.5c0,0.6-0.4,1-1,1H70.7
		C70.2,442.3,69.7,441.8,69.7,441.3z"/>
	<g>
		<circle fill="#4CDBC4" cx="256" cy="95.1" r="15.1"/>
		<circle fill="#4CDBC4" cx="256" cy="416.9" r="15.1"/>
		<g>
			<circle fill="#4CDBC4" cx="416.9" cy="256" r="15.1"/>
			<circle fill="#4CDBC4" cx="95.1" cy="256" r="15.1"/>
		</g>
	</g>
	<path fill="#ACB3BA" d="M381,121.7c-5.9-5.9-16.4-4.9-23.6,2.2L220.2,261.2c-7.1,7.1-8.1,17.7-2.2,23.6c5.9,5.9,16.4,4.9,23.6-2.2
		l137.3-137.3C386,138.1,386.9,127.6,381,121.7z"/>
	<path fill="#CDD6E0" d="M339.6,330.3c5.9-5.9,6.4-15,1.1-20.2L238.8,208.1c-5.3-5.3-14.3-4.8-20.2,1.1c-5.9,5.9-6.4,15-1.1,20.2
		l101.9,101.9C324.7,336.7,333.7,336.2,339.6,330.3z"/>
	<circle fill="#ACB3BA" cx="256" cy="246.9" r="10.7"/>
</g>
</svg>
