<?xml version="1.0" encoding="utf-8"?>
<!-- Generator: Adobe Illustrator 18.0.0, SVG Export Plug-In . SVG Version: 6.00 Build 0)  -->
<!DOCTYPE svg PUBLIC "-//W3C//DTD SVG 1.1//EN" "http://www.w3.org/Graphics/SVG/1.1/DTD/svg11.dtd">
<svg version="1.1" id="Layer_1" xmlns="http://www.w3.org/2000/svg" xmlns:xlink="http://www.w3.org/1999/xlink" x="0px" y="0px"
	 viewBox="0 0 512 512" enable-background="new 0 0 512 512" xml:space="preserve">
<g>
	<circle fill="#40596B" cx="256" cy="256" r="254"/>
	<path fill="#F2F2F2" d="M456.9,249.9C453.7,141.8,365,55,256,55C147,55,58.3,141.8,55.1,249.9c-0.1,2-0.1,4-0.1,6
		c0,111,90,200.9,201,200.9C367,456.9,457,367,457,256C457,254,456.9,252,456.9,249.9z"/>
	<path fill="#CDD6E0" d="M456.9,250c-0.1,3.9-0.3,7.8-0.7,11.7c-8.6-103.1-94.9-184-200.2-184c-105.3,0-191.6,80.9-200.2,184
		c-0.3-3.9-0.6-7.8-0.7-11.7C58.3,141.8,147,55,256,55C365,55,453.7,141.8,456.9,250z"/>
	<path fill="#CDD6E0" d="M265.2,74.9v3c-3-0.2-6.1-0.2-9.2-0.2c-3.1,0-6.2,0.1-9.2,0.2v-3c0-5.1,4.1-9.2,9.2-9.2
		C261.1,65.7,265.2,69.8,265.2,74.9z"/>
	<path fill="#FFD15C" d="M256,127c-6.1,0-11,4.9-11,11v154.7c0,6.1,4.9,11,11,11c6.1,0,11-4.9,11-11V138
		C267,131.9,262.1,127,256,127z"/>
	<path fill="#FFD15C" d="M153.9,256c0,6.1,4.9,11,11,11l129.9,0c6.1,0,11-4.9,11-11c0-6.1-4.9-11-11-11l-129.9,0
		C158.8,245,153.9,249.9,153.9,256z"/>
	<circle fill="#FF7058" cx="256" cy="256" r="23.8"/>
	<circle fill="#FFFFFF" cx="256" cy="256" r="12.1"/>
	<g>
		<path fill="#40596B" d="M265.2,74.9v23.5c0,5.1-4.1,9.2-9.2,9.2c-5.1,0-9.2-4.1-9.2-9.2V74.9c0-5.1,4.1-9.2,9.2-9.2
			C261.1,65.7,265.2,69.8,265.2,74.9z"/>
		<path fill="#40596B" d="M264.3,446.3h-16.7c-0.5,0-0.9-0.4-0.9-0.9v-40.2c0-0.5,0.4-0.9,0.9-0.9h16.7c0.5,0,0.9,0.4,0.9,0.9v40.2
			C265.2,446,264.8,446.3,264.3,446.3z"/>
	</g>
	<g>
		<path fill="#40596B" d="M404.5,264.3v-16.7c0-0.5,0.4-0.9,0.9-0.9h40.2c0.5,0,0.9,0.4,0.9,0.9v16.7c0,0.5-0.4,0.9-0.9,0.9h-40.2
			C404.8,265.2,404.5,264.8,404.5,264.3z"/>
		<path fill="#40596B" d="M65.7,264.3v-16.7c0-0.5,0.4-0.9,0.9-0.9h40.2c0.5,0,0.9,0.4,0.9,0.9v16.7c0,0.5-0.4,0.9-0.9,0.9H66.5
			C66,265.2,65.7,264.8,65.7,264.3z"/>
	</g>
	<path fill="#334A5E" d="M265.2,74.9v3c-3-0.2-6.1-0.2-9.2-0.2c-3.1,0-6.2,0.1-9.2,0.2v-3c0-5.1,4.1-9.2,9.2-9.2
		C261.1,65.7,265.2,69.8,265.2,74.9z"/>
</g>
</svg>
