<?xml version="1.0" encoding="utf-8"?>
<!-- Generator: Adobe Illustrator 18.0.0, SVG Export Plug-In . SVG Version: 6.00 Build 0)  -->
<!DOCTYPE svg PUBLIC "-//W3C//DTD SVG 1.1//EN" "http://www.w3.org/Graphics/SVG/1.1/DTD/svg11.dtd">
<svg version="1.1" id="Layer_1" xmlns="http://www.w3.org/2000/svg" xmlns:xlink="http://www.w3.org/1999/xlink" x="0px" y="0px"
	 viewBox="0 0 48 48" enable-background="new 0 0 48 48" xml:space="preserve">
<g>
	<path fill="#F2F2F2" d="M19.6,12.6v22.4H0.9v-8.5c0-1,0.5-1.9,1.3-2.5C2.2,23.9,5,22,5,21c0-0.1,0-0.1,0-0.2
		c0.1-4.6,3.9-8.2,8.5-8.2H19.6z"/>
	<path fill="#54C0EB" d="M17.5,21.9v-7.2h-4c-3.5,0-6.4,2.8-6.4,6.2l0,0.2c0,0.3,0,0.6-0.1,0.8H17.5z"/>
	<path fill="#F2F2F2" d="M47.1,12v22.9H19.6V12c0-1.3,1-2.3,2.3-2.3h23C46.1,9.7,47.1,10.7,47.1,12z"/>
	<path fill="#FF7058" d="M48,33.5c0,0.8-0.6,1.4-1.4,1.4H1.4c-0.8,0-1.4-0.6-1.4-1.4c0-0.8,0.6-1.4,1.4-1.4h45.2
		C47.4,32.1,48,32.8,48,33.5z"/>
	<rect x="22" y="14.6" fill="#CDD6E0" width="9.4" height="17.5"/>
	<rect x="23" y="15.6" fill="#ACB3BA" width="7.4" height="6.2"/>
	<rect x="34.1" y="14.6" fill="#54C0EB" width="11.1" height="7.2"/>
	<path fill="#FF7058" d="M18.1,12.6h-3.3v-0.4c0-0.9,0.7-1.6,1.6-1.6h0c0.9,0,1.6,0.7,1.6,1.6V12.6z"/>
	<polygon fill="#84DBFF" points="36.6,21.9 42.6,14.6 40.7,14.6 34.7,21.9 	"/>
	<path fill="#84DBFF" d="M9.3,21.9l6.1-7.2h-1.8c0,0-0.1,0-0.1,0l-6,7.2H9.3z"/>
	<path fill="#E4EAEF" d="M15.9,33.5c0,0.5-0.1,1-0.2,1.4H4.6c-0.1-0.4-0.2-0.9-0.2-1.4s0.1-1,0.2-1.4c0.6-2.5,2.9-4.4,5.6-4.4
		s5,1.9,5.6,4.4C15.9,32.6,15.9,33.1,15.9,33.5z"/>
	<path fill="#F1543F" d="M15.9,33.5c0,0.5-0.1,1-0.2,1.4H4.6c-0.1-0.4-0.2-0.9-0.2-1.4s0.1-1,0.2-1.4h11.1
		C15.9,32.6,15.9,33.1,15.9,33.5z"/>
	<path fill="#E4EAEF" d="M45.4,33.5c0,0.5-0.1,1-0.2,1.4H34c-0.1-0.4-0.2-0.9-0.2-1.4s0.1-1,0.2-1.4c0.6-2.5,2.9-4.4,5.6-4.4
		c2.7,0,5,1.9,5.6,4.4C45.3,32.6,45.4,33.1,45.4,33.5z"/>
	<path fill="#F1543F" d="M45.4,33.5c0,0.5-0.1,1-0.2,1.4H34c-0.1-0.4-0.2-0.9-0.2-1.4s0.1-1,0.2-1.4h11.1
		C45.3,32.6,45.4,33.1,45.4,33.5z"/>
	<circle fill="#40596B" cx="10.2" cy="33.5" r="4.8"/>
	<circle fill="#FFFFFF" cx="10.2" cy="33.5" r="2.1"/>
	<circle fill="#40596B" cx="39.6" cy="33.5" r="4.8"/>
	<circle fill="#FFFFFF" cx="39.6" cy="33.5" r="2.1"/>
	<path fill="#FFD15C" d="M1.6,30.1H0.9v-3.1h0.7c0.8,0,1.5,0.7,1.5,1.5v0C3.1,29.4,2.4,30.1,1.6,30.1z"/>
	<rect x="45.8" y="27.1" fill="#84DBFF" width="1.4" height="3.1"/>
</g>
</svg>
