<?xml version="1.0" encoding="utf-8"?>
<!-- Generator: Adobe Illustrator 18.0.0, SVG Export Plug-In . SVG Version: 6.00 Build 0)  -->
<!DOCTYPE svg PUBLIC "-//W3C//DTD SVG 1.1//EN" "http://www.w3.org/Graphics/SVG/1.1/DTD/svg11.dtd">
<svg version="1.1" id="Layer_1" xmlns="http://www.w3.org/2000/svg" xmlns:xlink="http://www.w3.org/1999/xlink" x="0px" y="0px"
	 viewBox="0 0 48 48" enable-background="new 0 0 48 48" xml:space="preserve">
<g>
	<g>
		<path fill="#F2F2F2" d="M9.1,17.5H4v-2.1c0-0.6,0.4-1,1-1h3.1c0.6,0,1,0.4,1,1V17.5z"/>
		<rect x="4" y="17.5" fill="#CDD6E0" width="5.1" height="3.1"/>
		<rect x="4" y="20.6" fill="#F2F2F2" width="5.1" height="3.1"/>
		<rect x="4" y="23.7" fill="#CDD6E0" width="5.1" height="3.1"/>
		<path fill="#F2F2F2" d="M8.1,29.8H5c-0.6,0-1-0.4-1-1v-2.1h5.1v2.1C9.1,29.4,8.7,29.8,8.1,29.8z"/>
	</g>
	<rect x="9.1" y="17.5" fill="#4CDBC4" width="5.6" height="9.2"/>
	<g>
		<rect x="18" y="46.5" fill="#9EAAB5" width="5.6" height="1.5"/>
		<rect x="43" y="46.5" fill="#9EAAB5" width="5.6" height="1.5"/>
	</g>
	<rect x="18.7" y="7.7" fill="#F1543F" width="10.5" height="4.8"/>
	<path fill="#FF7058" d="M31.5,7.7H16.4c-4.2,0-7.7-3.4-7.7-7.7l0,0h30.5l0,0C39.2,4.2,35.7,7.7,31.5,7.7z"/>
	<path fill="#F2F2F2" d="M50,46.5H16.7c-1.1,0-2-0.9-2-2v-30c0-1.1,0.9-2,2-2h20.3c8.2,0,14.9,6.7,14.9,14.9v17.1
		C52,45.6,51.1,46.5,50,46.5z"/>
	<g>
		<rect x="28.5" y="19.7" fill="#CDD6E0" width="2.7" height="2.7"/>
		<rect x="28.5" y="17.1" fill="#F2F2F2" width="2.7" height="2.7"/>
	</g>
	<g>
		<circle fill="#FFFFFF" cx="35.3" cy="19.7" r="1.9"/>
		<path fill="#F2F2F2" d="M35.4,21.4c-1,0-1.8-0.8-1.8-1.8c0-0.9,0.7-1.7,1.7-1.8c0,0,0,0-0.1,0c-1.1,0-1.9,0.9-1.9,1.9
			c0,1.1,0.9,1.9,1.9,1.9c1.1,0,1.9-0.9,1.9-1.9c0,0,0,0,0-0.1C37.1,20.6,36.4,21.4,35.4,21.4z"/>
		<circle fill="#FFFFFF" cx="41.6" cy="19.7" r="1.9"/>
		<path fill="#F2F2F2" d="M41.8,21.4c-1,0-1.8-0.8-1.8-1.8c0-0.9,0.7-1.7,1.7-1.8c0,0,0,0-0.1,0c-1.1,0-1.9,0.9-1.9,1.9
			c0,1.1,0.9,1.9,1.9,1.9c1.1,0,1.9-0.9,1.9-1.9c0,0,0,0,0-0.1C43.5,20.6,42.7,21.4,41.8,21.4z"/>
	</g>
	<rect x="18.7" y="7.7" fill="#ED4A3A" width="10.5" height="1.5"/>
</g>
</svg>
