<?xml version="1.0" encoding="utf-8"?>
<!-- Generator: Adobe Illustrator 18.0.0, SVG Export Plug-In . SVG Version: 6.00 Build 0)  -->
<!DOCTYPE svg PUBLIC "-//W3C//DTD SVG 1.1//EN" "http://www.w3.org/Graphics/SVG/1.1/DTD/svg11.dtd">
<svg version="1.1" id="Layer_1" xmlns="http://www.w3.org/2000/svg" xmlns:xlink="http://www.w3.org/1999/xlink" x="0px" y="0px"
	 viewBox="0 0 48 48" enable-background="new 0 0 48 48" xml:space="preserve">
<g>
	<g>
		<polygon fill="#FFD15C" points="48,10.5 44.6,12.1 46.9,15.1 43.1,15.1 44,18.9 40.5,17.2 39.6,21 37.3,18 34.9,21 34,17.2 
			30.6,18.9 31.4,15.1 27.6,15.1 30,12.1 26.5,10.5 30,8.8 27.6,5.8 31.4,5.8 30.6,2.1 34,3.7 34.9,0 37.3,3 39.6,0 40.5,3.7 
			44,2.1 43.1,5.8 46.9,5.8 44.6,8.8 		"/>
		<circle fill="#F7B64C" cx="37.3" cy="10.5" r="5.4"/>
	</g>
	<path fill="#F3F3F3" d="M42.7,24.3c0.3-3.3-1.3-6.5-4.3-8.3c-2.8-1.6-6-1.5-8.6,0c-1.7-3.2-4.8-5.7-8.7-6.4
		c-6.8-1.2-13.2,3.2-14.5,10c-0.2,1-0.2,2-0.2,3C2.8,23.2,0,26.4,0,30.2c0,4.2,3.4,7.7,7.7,7.7h33.4c3.8,0,6.9-3.1,6.9-6.9
		C48,27.7,45.8,25,42.7,24.3z"/>
	<g>
		<path fill="#F3705A" d="M31.6,45.1c3.9-3.9,3.9-10.3,0-14.3c-2-2-4.5-2.9-7.1-2.9l0,2.9c1.8,0,3.7,0.7,5.1,2.1
			c2.8,2.8,2.8,7.4,0,10.2l-1.3-1.3l0,4.7l4.7,0L31.6,45.1z"/>
	</g>
	<g>
		<path fill="#66C6B9" d="M17.3,30.8c-3.9,3.9-3.9,10.3,0,14.3c2,2,4.5,2.9,7.1,2.9l0-2.9c-1.8,0-3.7-0.7-5.1-2.1
			c-2.8-2.8-2.8-7.4,0-10.2l1.3,1.3l0-4.7l-4.7,0L17.3,30.8z"/>
	</g>
</g>
</svg>
