<?xml version="1.0" encoding="utf-8"?>
<!-- Generator: Adobe Illustrator 18.0.0, SVG Export Plug-In . SVG Version: 6.00 Build 0)  -->
<!DOCTYPE svg PUBLIC "-//W3C//DTD SVG 1.1//EN" "http://www.w3.org/Graphics/SVG/1.1/DTD/svg11.dtd">
<svg version="1.1" id="Layer_1" xmlns="http://www.w3.org/2000/svg" xmlns:xlink="http://www.w3.org/1999/xlink" x="0px" y="0px"
	 viewBox="0 0 48 48" enable-background="new 0 0 48 48" xml:space="preserve">
<g>
	<g>
		<g>
			<g>
				<path fill="#66C6B9" d="M21.9,21.5c2.3,1.8,5.2,2,7,0c1.9-2,1.9-5.6-0.3-7.4c-1.9-2.3-14-1.7-14.1-1.2
					C14.6,12.4,19.9,19.2,21.9,21.5z"/>
			</g>
			<g>
				<path fill="#415A6B" d="M19.9,14.6c6.3,3,11.1,8.8,13,15.9c0.3-0.3,0.6-0.7,0.9-1C31.6,22.7,26.5,17.3,19.9,14.6z"/>
			</g>
		</g>
		<g>
			<g>
				<path fill="#66C6B9" d="M40.3,22.9c-1.5,1.2-3.5,1.4-4.8,0c-1.3-1.4-1.3-3.8,0.2-5c1.3-1.6,9.5-1.1,9.6-0.8
					C45.2,16.7,41.6,21.3,40.3,22.9z"/>
			</g>
			<g>
				<path fill="#415A6B" d="M41.6,18.1c-4.3,2.1-7.6,6-8.8,10.8c-0.2-0.2-0.4-0.5-0.6-0.7C33.6,23.6,37.1,20,41.6,18.1z"/>
			</g>
		</g>
		<g>
			<line fill="none" stroke="#415A6B" stroke-width="1.5" stroke-miterlimit="10" x1="32.9" y1="28.1" x2="32.9" y2="8"/>
		</g>
		<g>
			<path fill="#F3705A" d="M24.1,32.5c1.5-3.3,4.9-5.7,8.8-5.7s7.3,2.3,8.8,5.7H24.1z"/>
		</g>
		<g>
			<g>
				<g>
					<g>
						<g>
							<g>
								<path fill="#FFD15C" d="M48,30c0,0-3.6,2.4-4.7,2.9c0,0-2.8,2.2-4.5,2.9c-1.7,0.7-6.7,3-6.7,3s-1.4,1.9-4.3,1.8
									c-2.9-0.1-9.3,0.2-9.3,0.2s-5.7,0.8-7,1.4l-7.9-7.6l7.5-4.2c2.4-1.3,5.1-2,7.8-1.9c1.6,0.1,3.3,0.4,4.7,1.3
									c0,0,4.2,1.1,7.7,1.2s4.5,1,4.5,1s0.9-0.6,2.2-0.5c0,0,2.1-1.3,3.8-1.4c0,0,3.2-2,4.8-1.6C48,29,48,30,48,30z"/>
							</g>
							<g>
								<path fill="#F7B64C" d="M21.1,36.6l2.4-0.3l1.2-0.2l0.6-0.1c0.2,0,0.4-0.1,0.6-0.1c0.4,0,0.8,0,1.2,0l1.2,0
									c0.8,0,1.6,0,2.4,0.1h0c0.4,0,0.8-0.1,1.2-0.1l1.2-0.1l2.5-0.2h0c0.2,0,0.4-0.1,0.6-0.3c0.2-0.1,0.3-0.3,0.5-0.5
									c0.2-0.4,0.3-0.9,0.2-1.3c0-0.1,0-0.2-0.1-0.3c0-0.1-0.1-0.2-0.1-0.3c-0.1-0.2-0.2-0.4-0.3-0.5c-0.1-0.2-0.2-0.3-0.4-0.5
									c-0.1,0-0.1,0-0.1,0l0,0c0.1,0.2,0.3,0.3,0.4,0.5c0.1,0.2,0.2,0.3,0.3,0.5c0.1,0.2,0.1,0.4,0.1,0.6c0.1,0.4,0,0.8-0.2,1.2
									c-0.1,0.2-0.3,0.3-0.4,0.4c-0.2,0.1-0.3,0.2-0.5,0.2c-0.8,0-1.6,0.1-2.5,0.1l-2.5,0.1h0c-0.8,0-1.6,0-2.4,0l-1.2,0
									c-0.4,0-0.8,0-1.2,0.1c-0.2,0-0.4,0.1-0.6,0.1L24.6,36l-1.2,0.2L21.1,36.6z"/>
							</g>
							<g>
								<path fill="#F3F3F3" d="M32.8,33.8c0,0.5,0.1,0.8,0.6,1.1c0.5,0.2,1.5,0.2,1.7,0.2c1,0,1-2.7,0-2.7c-0.4,0-1.4-0.1-1.6-0.1
									C33.1,32.5,32.8,33.2,32.8,33.8z"/>
							</g>
						</g>
						<g>
							<g>
								<polygon fill="#E8EAE9" points="5,31.9 8.6,44.9 14.2,43.4 10.7,30.4 								"/>
							</g>
							<g>
								<polygon fill="#415A6B" points="0,32.4 4.2,48 12.7,45.7 8.5,30.1 								"/>
							</g>
						</g>
					</g>
					<g>
						<path fill="#F3F3F3" d="M45.7,31.5c0,0-0.4-0.7-0.1-1c0.3-0.3,2-1,2.4-0.5"/>
					</g>
				</g>
			</g>
		</g>
		<g>
			<g>
				<circle fill="#FFD15C" cx="32.9" cy="7.3" r="7.3"/>
			</g>
			<g>
				<circle fill="#F7B64C" cx="32.9" cy="7.3" r="5.5"/>
			</g>
			<g>
				<path fill="#FFD15C" d="M32.6,10.8v-0.6c-0.7-0.1-1.4-0.4-2-1l0.8-1c0.4,0.4,0.8,0.6,1.2,0.7V7.7c-0.6-0.2-1-0.4-1.3-0.6
					C31,6.8,30.8,6.5,30.8,6c0-0.5,0.2-0.9,0.5-1.2c0.3-0.3,0.7-0.5,1.2-0.6V3.8h0.9v0.4c0.6,0.1,1.1,0.3,1.7,0.7l-0.7,1
					c-0.4-0.3-0.7-0.4-1-0.5v1.2c0.6,0.2,1.1,0.4,1.4,0.6c0.3,0.3,0.4,0.6,0.4,1.1c0,0.5-0.2,0.9-0.5,1.2c-0.3,0.3-0.8,0.5-1.3,0.6
					v0.6H32.6z M32.6,5.4c-0.2,0.1-0.4,0.2-0.4,0.5c0,0.2,0.1,0.4,0.4,0.5V5.4z M33.9,8.5c0-0.1,0-0.2-0.1-0.3
					C33.7,8.1,33.6,8,33.5,8v1C33.8,8.9,33.9,8.8,33.9,8.5z"/>
			</g>
		</g>
	</g>
</g>
</svg>
