<?xml version="1.0" encoding="utf-8"?>
<!-- Generator: Adobe Illustrator 18.0.0, SVG Export Plug-In . SVG Version: 6.00 Build 0)  -->
<!DOCTYPE svg PUBLIC "-//W3C//DTD SVG 1.1//EN" "http://www.w3.org/Graphics/SVG/1.1/DTD/svg11.dtd">
<svg version="1.1" id="Layer_1" xmlns="http://www.w3.org/2000/svg" xmlns:xlink="http://www.w3.org/1999/xlink" x="0px" y="0px"
	 viewBox="0 0 48 48" enable-background="new 0 0 48 48" xml:space="preserve">
<g>
	<g>
		<g>
			<g>
				<g>
					<polygon fill="#55B2E5" points="30,45.1 24.4,39.8 27.4,34.9 32.1,37.5 31,42.4 					"/>
				</g>
			</g>
		</g>
		<g>
			<g>
				<g>
					<polygon fill="#56BFEB" points="43.2,36.6 43.3,36.6 45.8,37.4 45.5,42.5 30,45.1 30.2,39.9 37.5,36.7 					"/>
				</g>
			</g>
		</g>
		<g>
			<g>
				<g>
					<polygon fill="#8AD6F7" points="38.9,32.2 45.8,37.4 30.2,39.9 24.6,34.3 					"/>
				</g>
			</g>
		</g>
	</g>
	<g>
		<g>
			<g>
				<path fill="#FFD15C" d="M32.3,26.2c0,0,1.2,0.4,2.4,1.1c1.1,0.7,3,2.1,4.2,2.8c1.2,0.7,2.4,1.2,2.8,1.5c0.5,0.3,0.8,0.8,0.8,1.3
					c0,0.5,0.4,1.5,0.4,1.7c0.1,0.2,0.4,0.8-0.2,1c-0.5,0.1-1,0-0.9-0.8c0,0,0.1-0.1-0.3-0.3c-0.3-0.2-1.1-0.9-1.1-0.9
					s-0.4-0.2-1.1-0.3c-0.8-0.2-3-0.8-4-1.1c-1-0.3-4.1-0.7-5.6-2.3L32.3,26.2z"/>
			</g>
		</g>
	</g>
	<g>
		<g>
			<g>
				<path fill="#344A5E" d="M15.7,14.9c0,0-0.5-0.8-0.1-1.2c0.4-0.4,1.1-0.6,1.1-0.6l0.5,1L15.7,14.9z"/>
			</g>
		</g>
	</g>
	<g>
		<g>
			<g>
				<g>
					<path fill="#FFD15C" d="M25,17.7c0,0-1.7,3.2-2,3.2c-0.2-0.1-3.9-2.3-3.9-2.3l-2.3-2.7l-1.1-1.3c0,0,0.9-0.9,1-1.3
						c0.1-0.3-0.3-1.5-0.3-1.5c0,0,0,0,0,0c-0.1-0.2-1.7-4.9-1.7-4.9c-0.3-0.5,3.1-4.1,3.1-4.1L23.3,4l0.5,1.9V9c0,0,0,0.3-0.2,1.3
						c-0.1,0.9-0.8,1.9-0.8,1.9s-0.2,1.5-0.2,2c0,0.5-0.2,1.8-0.2,1.8L25,17.7z"/>
				</g>
			</g>
		</g>
		<g>
			<g>
				<g>
					<path fill="#F5B54C" d="M22.8,12.1c0,0.1-0.7,1.8-2.1,2c-1.4,0.2-1.8,0.5-1,0.7c0.8,0.2,1.3,0.6-0.3,0.8
						c-0.7,0.1-1.7,0.2-2.6,0.2l-1.1-1.3c0,0,0.9-0.9,1-1.3c0.1-0.3-0.3-1.5-0.3-1.5c0,0.1,0.8,1.3,2.4,1.7
						C20.5,13.8,22.1,13.3,22.8,12.1z"/>
				</g>
			</g>
		</g>
		<g>
			<g>
				<g>
					
						<ellipse transform="matrix(0.9977 6.829117e-002 -6.829117e-002 0.9977 0.575 -1.6141)" fill="#FFD15C" cx="23.9" cy="7.6" rx="0.6" ry="1.7"/>
				</g>
			</g>
		</g>
		<g>
			<g>
				<g>
					
						<ellipse transform="matrix(0.9322 -0.3619 0.3619 0.9322 -2.1695 6.1857)" fill="#FFD15C" cx="15.4" cy="8.9" rx="0.6" ry="1.7"/>
				</g>
			</g>
		</g>
		<g>
			<g>
				<g>
					<path fill="#425A6B" d="M15.8,9.2c0,0-0.6-2.3-0.6-3.3c-0.1-1-0.1-1.3-0.1-1.3l-0.7,1.9c0,0-0.1,0.5,0.2,1
						c0.4-0.2,0.9,1.9,0.9,1.9L15.8,9.2z"/>
				</g>
			</g>
		</g>
		<g>
			<g>
				<g>
					<path fill="#425A6B" d="M22.5,3.6c0,0,0.7,0.7,0.9,1.6c0.1,0.8,0.2,2.6,0.2,2.6S24,7.3,24,6.6c-0.1-0.7-0.2-1.4-0.2-1.4l-1-1.8
						L22.5,3.6z"/>
				</g>
			</g>
		</g>
		<g>
			<g>
				<g>
					<path fill="#F05640" d="M14.9,5.6l0.5,1c0,0,0.2,0.4,0.6,0c0.5-0.4,1.2-1.6,2.7-1.8c1.4-0.2,3.2,0.5,3.7,0.7
						c0.5,0.2,0.5,0,0.6-0.1c0-0.1,0.2-1,0.2-1V3.4l-8-1L14.9,5.6z"/>
				</g>
			</g>
		</g>
		<g>
			<g>
				<g>
					<path fill="#F26F5A" d="M14.4,6.5c0,0,0.7-1.3,1.7-2.1c1-0.7,2.4-1.3,4.1-1.2c1.7,0.1,3.1,0.9,3.6,1.9c0,0-0.2-1.5-0.7-2.7
						c-0.5-1.1-1.6-2.1-2.8-2.4s-4.1,0.4-5,1.1C14.2,2.1,14.2,4.2,14.4,6.5z"/>
				</g>
			</g>
		</g>
	</g>
	<g>
		<g>
			<g>
				<path fill="#344A5E" d="M20.7,16.8l0.8-0.3l1.2,2.9l0.2-2.6v-1.4c0,0,1.7,0.7,2.2,0.8c0.4,0.1,1.8,0.5,2.5,1.6
					c0.7,1,2.6,4.9,3,5.7s0.9,1.6,1.2,2c0.3,0.4,0.7,0.5,0.7,1c0,0.4-0.8,3-3.1,3.9l-1.1-0.7c0,0-0.3,8.3-0.3,10.2
					c-0.1,1.9-0.1,6.5,0.1,8.1H11.3c0,0-0.3-3.5,0-4.6c0.3-1.1,1.4-8.5-0.2-13.1c0,0-1.6,2.1-2.1,2.8c-0.5,0.7-0.7,1.3-0.7,1.3
					s-1,0.1-2,0.2c-1,0.1-4.1-0.1-4.1,0c0,0,0-2.2,0.6-3.7c0.5-1.5,2.2-5.8,2.8-7.1c0.5-1.3,1.5-3.3,2.4-4.2s4-2.9,5.1-3.3
					c1.1-0.4,1.4-0.7,1.4-0.7l3.6,1.1L20.7,16.8z"/>
			</g>
		</g>
	</g>
	<g>
		<g>
			<g>
				<g>
					<g>
						<path fill="#F26F5A" d="M27,36.2c0,0,0-0.1,0-0.1c0.2-0.4,0.8-1,1.1-1.2c0,0,0.1-0.1,0.1-0.1c0,0,0-0.1,0-0.1l-0.2-0.2
							c0,0,0-0.1,0-0.2c0,0,0.1,0,0.2,0l0.2,0.2c0.1,0.1,0.1,0.2,0.1,0.3c0,0.1-0.1,0.2-0.2,0.3c-0.4,0.2-0.9,0.8-1,1.1
							C27.1,36.2,27.1,36.2,27,36.2C27,36.2,27,36.2,27,36.2z"/>
					</g>
				</g>
			</g>
		</g>
		<g>
			<g>
				<g>
					<g>
						<g>
							<path fill="#67C5B8" d="M16,47.1l13.1-9.4c0.2-0.2,0.3-0.5,0.1-0.7l-6.5-10.3c-0.2-0.3-0.5-0.3-0.8-0.1L9.5,36
								c-0.2,0.2-0.3,0.5-0.1,0.7L15.3,47C15.4,47.2,15.8,47.3,16,47.1z"/>
						</g>
					</g>
				</g>
			</g>
			<g>
				<g>
					<g>
						<g>
							<polygon fill="#F3F3F3" points="28.6,37.2 16,46.9 10.2,37.2 21.8,27.4 							"/>
						</g>
					</g>
				</g>
			</g>
			<g>
				<g>
					<g>
						<g>
							<path fill="#425A6B" d="M25.9,34.9c0,0-0.1,0-0.1,0c-0.2,0-0.3-0.1-0.4-0.3L23.3,31c-0.2-0.3-0.1-0.6,0.2-0.8l0.5-0.3
								c0.1-0.1,0.2-0.1,0.3-0.1c0.1,0,0.2,0.1,0.2,0.2l2.5,4c0.1,0.2,0,0.4-0.1,0.5l0,0l-0.5,0.3C26.2,34.9,26,34.9,25.9,34.9z
								 M24.1,30.1C24.1,30.1,24.1,30.1,24.1,30.1l-0.5,0.3c-0.1,0.1-0.2,0.3-0.1,0.4l2.1,3.6c0,0.1,0.1,0.1,0.2,0.2
								c0.1,0,0.2,0,0.3,0l0.5-0.3c0,0,0.1-0.1,0-0.1L24.1,30.1C24.2,30.1,24.2,30.1,24.1,30.1C24.1,30.1,24.1,30.1,24.1,30.1z"/>
						</g>
					</g>
				</g>
			</g>
		</g>
		<g>
			<g>
				<g>
					<g>
						<g>
							<g>
								<path fill="#F26F5A" d="M28.1,33.7L24.8,37c-0.6,0.6-1.1,1.2-1.5,1.9l0,0c0.7-0.4,1.4-0.9,1.9-1.5l3.3-3.3L28.1,33.7z"/>
							</g>
						</g>
					</g>
				</g>
				<g>
					<g>
						<g>
							<g>
								<path fill="#344A5E" d="M28.5,34l-0.3-0.3l0.1-0.1c0.1-0.1,0.2-0.1,0.3,0l0,0c0.1,0.1,0.1,0.2,0,0.3L28.5,34z"/>
							</g>
						</g>
					</g>
				</g>
			</g>
			<g>
				<g>
					<g>
						<g>
							<g>
								
									<rect x="25" y="36.7" transform="matrix(0.7071 -0.7071 0.7071 0.7071 -18.7865 28.6572)" fill="#344A5E" width="0.3" height="0.6"/>
							</g>
						</g>
					</g>
				</g>
			</g>
		</g>
	</g>
	<g>
		<g>
			<g>
				<path fill="#425A6B" d="M16.7,13.2c0,0-1.1,0.6-1.1,0.9c0,0.3,0.7,0.7,1.4,1c0.6,0.3,3.7,1.7,3.7,1.7s-2.4,1.8-2.7,1.9
					c0,0-1.3-0.5-2.1-1.2c-0.8-0.7-2-1.8-2-1.8s0.6-0.5,0.8-0.9S15.5,13.1,16.7,13.2z"/>
			</g>
		</g>
	</g>
	<g>
		<g>
			<g>
				<path fill="#425A6B" d="M22.6,14.8c0,0,1.3,1.5,1.5,1.7c0.2,0.2,0.7,1.8,0.7,1.8l-0.8-0.7c0,0-1.1,1.4-1.2,1.8
					c0,0,0.2-2.8-0.3-3.5L22.6,14.8z"/>
			</g>
		</g>
	</g>
	<g>
		<g>
			<g>
				<path fill="#FFD15C" d="M8.3,34.4c0,0,1.7,1.8,2.2,2.5c0.5,0.7,2.2,2.3,2.9,2.7c0.7,0.4,2.2,1.2,2.6,1.2c0.3,0,1-0.3,2.5,0
					c0.4,0.1,0.8,0.3,1.1,0.5c0.1,0.1,0.2,0.2,0.3,0.2c0.3,0.1,1.1,0.5,1.2,0.9l0.7,0.6c0,0,0,0.6-0.5,0.6c0,0,0.4,0.3,0.3,0.8
					C21.5,45,21,44.9,21,44.9s0,0.4-0.3,0.5c-0.3,0.2-0.5,0.2-0.5,0.2s-0.4,0.7-1.3,0.7c0,0-0.8,0.7-1.7,0.4c0,0-0.9-0.6-1.3-0.8
					c-0.4-0.2-1.1-1.4-1.4-1.6c-0.3-0.2-0.7-0.5-0.9-0.5c-0.2-0.1-0.6-0.4-1.1-0.8c-0.4-0.4-4.8-2.2-5.6-3c-0.8-0.7-2.7-2.5-3.4-3
					c-0.7-0.5-1.4-0.7-1.3-1.4c0-0.7,0.1-1.3,0.1-1.3L8.3,34.4z"/>
			</g>
		</g>
	</g>
	<g>
		<g>
			<g>
				<path fill="#344A5E" d="M2.4,32.6c-0.2,1.1-0.2,2.1-0.2,2.1c0.1-0.1,3.2,0.1,4.1,0c1-0.1,2-0.2,2-0.2s0.2-0.6,0.7-1.3
					c0.1-0.1,0.2-0.3,0.4-0.6H2.4z"/>
			</g>
		</g>
	</g>
	<g>
		<g>
			<g>
				<path fill="#F5B54C" d="M21.3,43.7c0,0,0,0-0.1,0c-0.1,0-0.2,0-0.4,0c-0.1,0-0.2,0-0.2-0.1c-0.1,0-0.2-0.1-0.2-0.1
					c-0.2-0.1-0.3-0.2-0.5-0.3c-0.1-0.1-0.2-0.1-0.2-0.2c0,0-0.1-0.1-0.1-0.1c0,0-0.1-0.1-0.1-0.1c-0.1-0.1-0.1-0.1-0.1-0.2
					c0,0-0.1,0-0.1-0.1c0,0,0,0,0,0c0,0,0,0-0.1,0c-0.1-0.1-0.1-0.1-0.2-0.2c0-0.1-0.1-0.1-0.1-0.1c0-0.1,0-0.1,0-0.1s0,0,0.1,0.1
					c0,0,0.1,0.1,0.1,0.1c0,0,0.1,0.1,0.1,0.1c0,0,0,0,0,0c0,0,0,0,0.1,0c0,0,0.1,0,0.1,0.1c0.1,0,0.2,0.1,0.2,0.2
					c0,0,0.1,0.1,0.1,0.1c0,0,0.1,0.1,0.1,0.1c0.1,0.1,0.1,0.1,0.2,0.2c0.2,0.1,0.3,0.2,0.5,0.3c0.1,0,0.1,0.1,0.2,0.1
					c0.1,0,0.1,0.1,0.2,0.1c0.1,0.1,0.2,0.1,0.3,0.1C21.2,43.7,21.3,43.7,21.3,43.7z"/>
			</g>
		</g>
	</g>
	<g>
		<g>
			<g>
				<path fill="#FFFFFF" d="M21.7,43L21.7,43c0,0.4-0.4,0.5-0.4,0.5s-0.3-0.2-0.4-0.2c-0.1-0.1-0.1-0.2,0-0.3
					c0.1-0.2,0.2-0.5,0.2-0.5L21.7,43z"/>
			</g>
		</g>
	</g>
	<g>
		<g>
			<path fill="#F5B54C" d="M20.4,44.8c-0.2-0.1-0.4-0.1-0.6-0.1c-0.2,0-0.3,0-0.3,0s0,0.1,0.4,0.2c0.4,0,0.9,0.1,1.1,0.1
				c0-0.1,0-0.1,0-0.1S20.6,44.9,20.4,44.8z"/>
		</g>
	</g>
	<g>
		<g>
			<path fill="#F5B54C" d="M20.2,45.6c0,0-0.6,0.1-0.8,0.1c-0.3,0-0.7,0.1-0.5,0.1c0.2,0,0.2,0,0.6,0c0.2,0,0.4,0,0.6-0.1
				C20.2,45.6,20.2,45.6,20.2,45.6L20.2,45.6L20.2,45.6z"/>
		</g>
	</g>
	<g>
		<g>
			<g>
				<path fill="#F5B54C" d="M18.9,46.2C18.9,46.2,18.9,46.3,18.9,46.2c-0.2,0-0.4,0.1-0.6,0.1c-0.2,0-0.2,0-0.1,0
					C18.3,46.3,18.9,46.2,18.9,46.2z"/>
			</g>
		</g>
	</g>
	<g>
		<g>
			<g>
				<path fill="#FFFFFF" d="M42.2,34.7c0,0,0,0.3,0,0.4c0.1,0.1,0.5,0.2,0.7,0.1c0,0,0.1-0.2-0.1-0.4C42.7,34.7,42.3,34.6,42.2,34.7
					z"/>
			</g>
		</g>
	</g>
</g>
</svg>
