<?xml version="1.0" encoding="utf-8"?>
<!-- Generator: Adobe Illustrator 19.0.1, SVG Export Plug-In . SVG Version: 6.00 Build 0)  -->
<svg version="1.1" id="Layer_1" xmlns="http://www.w3.org/2000/svg" xmlns:xlink="http://www.w3.org/1999/xlink" x="0px" y="0px"
	 viewBox="0 0 48 48" style="enable-background:new 0 0 48 48;" xml:space="preserve">
<style type="text/css">
	.st0{fill:#FFD15C;}
	.st1{fill:#415A6B;}
	.st2{fill:#F7B64C;}
	.st3{fill:#CED6E0;}
	.st4{fill:#344A5E;}
	.st5{fill:#F3F3F3;}
	.st6{fill:#F05540;}
	.st7{fill:#F3705A;}
	.st8{fill:#66C6B9;}
	.st9{fill:#55C0EB;}
	.st10{fill:#F5F6FB;}
	.st11{fill:#4ABAA5;}
	.st12{fill:#ADB3BA;}
	.st13{fill:#E8EAE9;}
	.st14{fill:#2E4556;}
	.st15{fill:#8AD7F8;}
	.st16{fill:#FFFFFF;}
	.st17{fill:#E54838;}
	.st18{fill:#3EAF99;}
	.st19{fill:#EFA943;}
	.st20{fill:#4CAEE5;}
	.st21{fill:#293F4F;}
	.st22{fill:#2D4456;}
	.st23{fill:#2E4454;}
	.st24{fill:#2A3F4F;}
	.st25{fill:#2D4151;}
	.st26{fill:#E89E3D;}
	.st27{fill:#2B4151;}
	.st28{fill:#2A4051;}
	.st29{fill:#2C4151;}
	.st30{fill:#EBEAE8;}
	.st31{fill:#3AA590;}
	.st32{fill:#E84534;}
	.st33{fill:none;}
</style>
<g>
	<g>
		<g>
			<g>
				<g>
					<g>
						<path class="st1" d="M23.7,5.5L23.7,5.5c-0.7,0-1.2,0.6-1.2,1.2l0,37.6l2.5,0l0-37.6C25,6,24.4,5.5,23.7,5.5z"/>
					</g>
					<g>
						<path class="st0" d="M28.9,45.2H18.7c-1.5,0-2.8,1.2-2.8,2.8h15.8C31.6,46.5,30.4,45.2,28.9,45.2z"/>
						<g>
							<rect x="20" y="43.3" class="st2" width="7.4" height="1.9"/>
						</g>
					</g>
				</g>
				<g>
					<path class="st7" d="M48,24.3c-7.7-7.2-15.4,7.2-23,0c0-5.2,0-10.5,0-15.7c7.7,7.2,15.4-7.2,23,0C48,13.8,48,19.1,48,24.3z"/>
				</g>
			</g>
		</g>
	</g>
	<g>
		<g>
			<path class="st4" d="M11.9,46.6l0.7-0.2c0,0,0-0.5-0.5-0.6c-0.6-0.1-1.3-0.3-1.5-0.5s-1.3-1.5-1.3-1.5l-2.9,0.7
				c0,0-0.2,0.6-0.1,1.1c0.1,0.5,0.1,0.5,0.1,0.5s1-0.1,1.8,0.1c0.7,0.2,0.7,0.2,0.7,0.2s0.5,0.3,1,0.4S11.9,46.6,11.9,46.6z"/>
		</g>
		<g>
			<path class="st1" d="M0.8,23.5c0,0,0,1.3,0.5,2.6s0.3,4.6,0.2,5.4c-0.1,0.8-0.7,2.4-0.7,3.1c0,0.7,0.2,5.8,0,6.8
				c-0.2,1-0.1,4.6-0.1,4.6s1.2-0.6,2-0.8s1.1-0.1,1.1-0.1s0-2.2,0-2.7c0-0.5,0.1-2.1,0.2-2.7c0.1-0.6,0-0.7,0.2-1.3
				c0.2-0.6,0.5-2.1,0.5-3.1s0.7-3.7,0.9-4.4s0.3-1.8,0.3-1.8s0.2,1.8,0.3,3c0.1,1.2,0.3,2.3,0.2,2.6S6,35.5,6,35.8
				c0,0.4,0.1,1.5,0.1,1.9c0,0.4,0.1,3.8,0.2,4.1c0.1,0.3,0,0.5,0,0.8s0.1,1.2,0.1,1.2l-0.2,0.9c0,0,0.6,0.1,1.7-0.3S9.6,44,9.6,44
				S9.4,43,9.3,42.6c-0.1-0.4,0.3-2.9,0.3-3.8c0-0.8,0-0.6,0-1.1s0.1-1,0.1-1.2s0-0.7-0.1-1.1C9.5,35,9.9,33.2,10,32.6
				c0.1-0.6,0.8-4.3,0.5-7.2c-0.3-2.9-1.5-8-1.5-8L4.1,18L0.8,23.5z"/>
		</g>
		<g>
			<g>
				<g>
					<path class="st0" d="M3.9,4.8c0,0,0.3,0.8,0.3,1.7c0,0.9,0,0.9,0,0.9l3.2,1L7.1,7.3l0.1-1.1c0,0,0.8-0.7,0.7-2.4
						S7.8,2.1,7.8,2.1s0-1.2-1-1.4s-2.4,0-2.7,0.4C3.9,1.5,3.6,4.1,3.9,4.8z"/>
				</g>
				<g>
					<path class="st0" d="M3.3,4.3C3.4,4.7,3.7,5,3.9,4.9c0.2-0.1,0.3-0.4,0.1-0.8C3.9,3.7,3.6,3.4,3.4,3.5S3.1,3.9,3.3,4.3z"/>
				</g>
				<g>
					<path class="st0" d="M8,4.1c0,0.4-0.3,0.8-0.5,0.8S7.2,4.5,7.2,4.1c0-0.4,0.3-0.8,0.5-0.8S8.1,3.7,8,4.1z"/>
				</g>
				<g>
					<path class="st1" d="M3.5,1.4C3.8,0.8,4.7,0.2,5.4,0s1.7,0.1,2.2,0.8c0.4,0.6,0.5,2,0.4,2.4C7.9,3.5,7.8,3.9,7.8,4H7.7
						c0-0.2,0.1-0.9,0-1.1C7.6,2.6,7.5,2.2,7.5,1.9S7.4,1.3,6.9,1.2C6.4,1,4.7,1.2,4.5,1.3C4.3,1.5,4.2,1.8,4.2,2.1
						c0,0.3-0.3,0.7-0.3,0.9c0,0.2,0,1,0,1H3.7c0,0-0.2-0.3-0.2-0.7C3.4,3.1,3.3,2.1,3.5,1.4z"/>
				</g>
				<path class="st2" d="M5.6,6.4c1,0.3,1.6-0.3,1.6-0.3L7.1,7.3l0.1,0.5C4.6,7,4,5.4,4,5.4S4.6,6.1,5.6,6.4z"/>
				<g>
					<polygon class="st3" points="6.5,7.6 6.4,7.6 4,7.9 7,15.6 8.1,13.1 7.9,8.6 7.4,7.8 					"/>
				</g>
				<g>
					<path class="st7" d="M6,10l0.9,3.9H8l0.2-0.7c0,0-0.4-2.7-0.6-3.4C7.5,9,7.1,8.5,7.1,8.5L6.5,8.2c0,0,0,0-0.1,0.4
						C6.4,8.9,6,10,6,10z"/>
				</g>
				<g>
					<path class="st7" d="M5.8,7.8c0,0,0.5,0.3,0.6,0.7c0.2-0.1,0.4-0.1,0.6,0c0,0,0.1-0.8,0.1-0.9c0,0-0.7-0.1-0.7-0.1l-0.1,0
						L5.8,7.8z"/>
				</g>
			</g>
			<g>
				<ellipse class="st1" cx="10.1" cy="14" rx="1.1" ry="1.4"/>
			</g>
			<g>
				<path class="st4" d="M8,8.4c0,0,0.1,0.1,0.6,0.3s1.3,0.2,1.7,0.7c0.3,0.5,0.5,2,0.2,3.4c-0.3,1.4-0.8,4-0.3,6.6s0.8,6.2,0.8,6.2
					s-0.9,0.4-1.3-0.7C9.2,23.8,8.1,18,8.1,18s-0.2-3.5,0-4.8c0.2-1.4-0.1-4.3-0.2-4.5S8,8.4,8,8.4z"/>
			</g>
			<g>
				<path class="st4" d="M3.1,7.5c0,0-0.6,0.5-1.2,0.5C1.2,8,0.2,8.1,0,8.9s0.3,3.2,0.5,4s1.3,3.5,1,6s-1.2,6.1-1.2,6.1
					s3.3,0.4,4.8,0.4c1.5-0.1,2.2-0.7,2.5-1.4s0.8-4.7,0.8-5.6c-0.1-0.9-0.1-1.2-0.1-1.2s-0.9-3.8-1.8-6.2S3.7,7.2,3.7,7.2L3.1,7.5z
					"/>
			</g>
			<g>
				<path class="st5" d="M4.1,6.2c0,0,0.3,0.3,0.7,0.5c0.4,0.2,1.5,0.8,1.5,0.8l-1,1.2L3.7,7L4.1,6.2z"/>
			</g>
			<g>
				<path class="st5" d="M6.5,7.6L6.5,7.6c0.4,0.3,0.7,0.7,1,1.2l0,0.1c0,0-0.1-0.9-0.2-1.3c0-0.4-0.2-0.8-0.2-0.8S6.9,7.4,6.5,7.6z
					"/>
			</g>
			<g>
				<path class="st1" d="M3.9,6.7c0,0,0.2,0.3,0.4,0.5c0.3,0.2,1.4,1.1,2.2,2.7s1.7,5.5,1.8,7.3c0,0-1.3-4.9-2.3-6.4
					S4.3,8.8,4.3,8.8l0.3-0.5L4,8.3c0,0-0.8-0.7-0.9-0.7C3,7.5,3,7.5,3.1,7.4c0.1-0.1,0.3-0.3,0.5-0.5S3.9,6.7,3.9,6.7z"/>
			</g>
			<g>
				<path class="st1" d="M7.4,7.8C7.4,7.8,8,10,8,11c0,1-0.5,3.3,0,4.9c0,0,0.4-2.4,0.6-3.1c0.2-0.7,0.3-3.3,0.1-3.9L8.1,8.8
					l0.3-0.1c0,0-0.5-0.3-0.7-0.5C7.5,7.9,7.4,7.8,7.4,7.8z"/>
			</g>
			<g>
				<path class="st1" d="M7.2,14.9V17c0,0,0.4,0,0.9,0.1c0.4,0,0.8,0.1,1.1,0.1c0.3,0,0.6,0.1,0.9,0.2c0.5,0.1,1.1,0.3,1.6,0.3
					c0.8,0,1.3-0.7,1.3-1.1c0-0.4,0-1.7-0.1-1.9c-0.1-0.2-0.6-0.9-0.8-1.2c-0.2-0.3-0.4-0.8-0.5-1c-0.1-0.2-0.1-0.5-0.3-0.9
					c-0.1-0.4-0.1-0.5-0.2-1.1c-0.2-0.6-0.8-1-0.8-1c0.3,0.5,0.5,2,0.2,3.4c0,0.1-0.1,0.3-0.1,0.4c0,0,0,0,0,0l0.2,1.6
					c0,0-0.1,0-0.5,0.1c-0.3,0-1.4,0.1-2.1,0.1C7.5,14.9,7.2,14.9,7.2,14.9z"/>
			</g>
			<path class="st4" d="M7.2,14.9c0,0,0.3,0,0.8,0c0.8,0,1.9-0.1,2.1-0.1c0.1,0,0.2,0,0.2,0c0,0.2,0,0.5,0,0.8l0,0.1l-0.1,0
				c0,0-1.4,0.1-2.3,0.2c-0.2,0-0.5,0-0.7,0c0,0-0.1,0-0.1,0V14.9z"/>
			<g>
				<path class="st0" d="M11.2,14.5c0,0-0.4,0.4-1.1,0.3L9,13.9l0.3-0.8c0,0,0.6,0,1.3,0.7C11.2,14.4,11.2,14.5,11.2,14.5z"/>
			</g>
			<g>
				<path class="st1" d="M0.1,10.8c0.2,1.6,1,3.2,2.3,4.3c0.1,0.1,0.2,0.1,0.2,0.2c0.5,0.4,1.4,0.5,1.6,0.5c0.2,0,0.5,0,0.7,0
					c0.2,0,0.3,0.1,0.6,0.1c0.3,0,1.3,0,1.7,0c0.1,0,0.4,0,0.6,0c0.9-0.1,2.3-0.2,2.3-0.2c0.1-2.2-0.9-2.5-0.9-2.5S8.3,13,7.8,13
					c-0.1,0-0.4,0-0.6,0c-0.8-0.1-2-0.2-2.2-0.3c-0.3-0.1-0.3,0-0.5,0.1c-0.1,0.1-0.1,0.2-0.1-0.1c0-0.3-0.1,0-0.2-0.2
					c-0.1-0.2-0.4-0.9-0.8-1.7C3,9.8,2.3,8.7,1.5,8.3C1.3,8.2,1.1,8.1,1,8.1h0C0.5,8.2,0.2,8.4,0,8.9C0,9.3,0,10,0.1,10.8z"/>
			</g>
			<g>
				<path class="st1" d="M0.1,10.8c0.2,1.6,1,3.2,2.3,4.3c0.1,0.1,0.2,0.1,0.2,0.2c0.5,0.4,1.4,0.5,1.6,0.5c0.2,0,0.5,0,0.7,0
					c0.2,0,0.3,0.1,0.6,0.1c0.3,0,1.3,0,1.7,0c0.1,0,0.4,0,0.6,0c0.9-0.1,2.3-0.2,2.3-0.2c0.1-2.2-0.9-2.5-0.9-2.5S8.3,13,7.8,13
					c-0.1,0-0.4,0-0.6,0c-0.8-0.1-2-0.2-2.2-0.3c-0.3-0.1-0.3,0-0.5,0.1c-0.1,0.1-0.1,0.2-0.1-0.1c0-0.3-0.1,0-0.2-0.2
					c-0.1-0.2-0.4-0.9-0.8-1.7C3,9.8,2.3,8.7,1.5,8.3C1.3,8.2,1.1,8.1,1,8.1h0C0.5,8.2,0.2,8.4,0,8.9C0,9.3,0,10,0.1,10.8z"/>
			</g>
		</g>
		<g>
			<g>
				<path class="st4" d="M4.8,47.7l0.8-0.2l0-0.1c0,0,0-0.5-0.4-0.6c-0.4-0.1-0.9-0.5-1.1-0.7c-0.2-0.2-0.8-1.3-0.8-1.3l-2.7,0.7
					c0,0-0.2,0.6,0,1s0.1,0.4,0.1,0.4s0.5,0.2,0.7,0.3c0.1,0.1,0.3,0.4,0.6,0.5C2.4,47.7,4,47.9,4.8,47.7z"/>
			</g>
			<g>
				<path class="st1" d="M5.7,47.4c0,0-1.2,0.3-2.2,0.3s-1.6-0.1-1.7-0.3c-0.1-0.2-0.3-0.4-0.6-0.6s-0.5-0.3-0.5-0.3l0,0.7
					c0,0,0.2,0.2,0.6,0.3l0-0.3c0,0,0.2,0,0.4,0.4s1.5,0.7,2.7,0.5C5.6,47.8,5.9,47.7,5.7,47.4z"/>
			</g>
		</g>
		<g>
			<path class="st1" d="M12.6,46.4c0,0-0.7,0.1-1.9,0.2c-1.2,0.1-1.5-0.1-1.9-0.3c-0.4-0.2-2.3-0.6-2.6-0.7c0,0-0.1,0.6,0,0.7
				c0.1,0,1.1,0.2,1.7,0.2l0-0.3c0,0,0.6,0.1,1,0.3c0.4,0.2,1.4,0.5,2.8,0.3C11.8,46.8,12.7,46.7,12.6,46.4z"/>
		</g>
	</g>
</g>
</svg>
