<?xml version="1.0" encoding="utf-8"?>
<!-- Generator: Adobe Illustrator 18.0.0, SVG Export Plug-In . SVG Version: 6.00 Build 0)  -->
<!DOCTYPE svg PUBLIC "-//W3C//DTD SVG 1.1//EN" "http://www.w3.org/Graphics/SVG/1.1/DTD/svg11.dtd">
<svg version="1.1" id="Layer_1" xmlns="http://www.w3.org/2000/svg" xmlns:xlink="http://www.w3.org/1999/xlink" x="0px" y="0px"
	 viewBox="0 0 48 48" enable-background="new 0 0 48 48" xml:space="preserve">
<g>
	<g>
		<path fill="#FFD15C" d="M48,29.9L48,29.9c0-1.3-1.1-2.3-2.3-2.3H2.3c-1.3,0-2.3,1.1-2.3,2.3v0c0,1.3,1.1,2.3,2.3,2.3h43.3
			C46.9,32.2,48,31.2,48,29.9z"/>
		<rect x="2.3" y="32.2" fill="#F7B64C" width="43.2" height="15.7"/>
		<path fill="#F7B64C" d="M35.9,27.5v-6.1c0-1.3-0.9-2.5-2.2-2.9c-1.8-0.5-3.5-0.9-5.3-1.2c-1-0.1-1.7-0.9-1.7-1.9v-4.1h-5.5v4.1
			c0,1-0.7,1.8-1.7,1.9c-1.8,0.2-3.5,0.6-5.3,1.1c-1.3,0.4-2.2,1.6-2.2,2.9v6.1H35.9z"/>
		<path fill="#F3705A" d="M35.9,27.5v-6.1c0-1.3-0.9-2.5-2.2-2.9c-1.7-0.5-3.5-0.9-5.2-1.1c0,0.1,0,0.1,0,0.2C28.5,20,24,22,24,22
			s-4.5-2-4.5-4.5c0-0.1,0-0.1,0-0.2c-1.8,0.2-3.5,0.6-5.2,1.1c-1.3,0.4-2.2,1.6-2.2,2.9v6.1H35.9z"/>
		<path fill="#FFD15C" d="M24,8.1c-1.6,0-3.1-0.5-4.3-1.4C19.2,7.8,19,9,19,10.4c0,4,2.2,7.2,5,7.2c2.8,0,5-3.2,5-7.2
			c0-1.3-0.3-2.6-0.7-3.7C27.1,7.6,25.6,8.1,24,8.1z"/>
		<path fill="#415A6B" d="M30.8,8.9c0,10.4-1.5,12.4-4.8,12.9c3-4.6,2.5-10.5,1.9-14.3c-2.7,1-5.3,1-8,0c-0.6,3.8-1,9.7,1.9,14.3
			c-3.3-0.4-4.8-2.5-4.8-12.9c0-6.2,3.1-8.8,6.8-8.8S30.8,2.7,30.8,8.9z"/>
		<circle fill="#FFFFFF" cx="23.9" cy="40.1" r="5.9"/>
		<g>
			<rect x="22.8" y="39" fill="#F3705A" width="2.2" height="5.1"/>
			<circle fill="#F3705A" cx="23.9" cy="37.1" r="1.1"/>
		</g>
	</g>
</g>
</svg>
