<?xml version="1.0" encoding="utf-8"?>
<!-- Generator: Adobe Illustrator 19.0.1, SVG Export Plug-In . SVG Version: 6.00 Build 0)  -->
<svg version="1.1" id="Layer_1" xmlns="http://www.w3.org/2000/svg" xmlns:xlink="http://www.w3.org/1999/xlink" x="0px" y="0px"
	 viewBox="0 0 48 48" style="enable-background:new 0 0 48 48;" xml:space="preserve">
<style type="text/css">
	.st0{fill:#FFD15C;}
	.st1{fill:#415A6B;}
	.st2{fill:#F7B64C;}
	.st3{fill:#CED6E0;}
	.st4{fill:#344A5E;}
	.st5{fill:#F3F3F3;}
	.st6{fill:#F05540;}
	.st7{fill:#F3705A;}
	.st8{fill:#66C6B9;}
	.st9{fill:#55C0EB;}
	.st10{fill:#F5F6FB;}
	.st11{fill:#4ABAA5;}
	.st12{fill:#ADB3BA;}
	.st13{fill:#E8EAE9;}
	.st14{fill:#2E4556;}
	.st15{fill:#8AD7F8;}
	.st16{fill:#FFFFFF;}
	.st17{fill:#E54838;}
	.st18{fill:#3EAF99;}
	.st19{fill:#EFA943;}
	.st20{fill:#4CAEE5;}
	.st21{fill:#293F4F;}
	.st22{fill:#2D4456;}
	.st23{fill:#2E4454;}
	.st24{fill:#2A3F4F;}
	.st25{fill:#2D4151;}
	.st26{fill:#E89E3D;}
	.st27{fill:#2B4151;}
	.st28{fill:#2A4051;}
	.st29{fill:#2C4151;}
	.st30{fill:#EBEAE8;}
	.st31{fill:#3AA590;}
	.st32{fill:#E84534;}
	.st33{fill:none;}
</style>
<g>
	<g>
		<path class="st1" d="M44.4,9.6v26.7H2.3V9.6c0-1.6,1.3-2.9,2.9-2.9h36.4C43.1,6.7,44.4,8,44.4,9.6z"/>
		<g>
			<rect x="5.2" y="9.6" class="st15" width="36.4" height="23.9"/>
			<rect x="9" y="13.4" class="st16" width="28.8" height="16.3"/>
		</g>
		<g>
			<path class="st7" d="M16.7,18h1.4v4.4c0,0.6-0.1,1-0.2,1.3c-0.1,0.4-0.4,0.7-0.7,1s-0.8,0.4-1.4,0.4c-0.7,0-1.2-0.2-1.6-0.6
				c-0.4-0.4-0.6-1-0.6-1.7l1.3-0.2c0,0.4,0.1,0.7,0.2,0.8c0.2,0.3,0.4,0.4,0.7,0.4c0.3,0,0.5-0.1,0.7-0.3c0.1-0.2,0.2-0.6,0.2-1.1
				V18z"/>
			<path class="st7" d="M19.3,21.6c0-0.7,0.1-1.3,0.3-1.8c0.2-0.4,0.4-0.7,0.7-1c0.3-0.3,0.6-0.5,0.9-0.6c0.4-0.2,0.9-0.3,1.5-0.3
				c1,0,1.9,0.3,2.5,1s0.9,1.5,0.9,2.7c0,1.1-0.3,2-0.9,2.6c-0.6,0.6-1.4,1-2.5,1c-1,0-1.9-0.3-2.5-1S19.3,22.7,19.3,21.6z
				 M20.8,21.5c0,0.8,0.2,1.4,0.5,1.8c0.4,0.4,0.8,0.6,1.4,0.6c0.6,0,1-0.2,1.4-0.6c0.4-0.4,0.5-1,0.5-1.8c0-0.8-0.2-1.4-0.5-1.8
				c-0.4-0.4-0.8-0.6-1.4-0.6c-0.6,0-1,0.2-1.4,0.6C21,20.1,20.8,20.7,20.8,21.5z"/>
			<path class="st7" d="M27.2,18H30c0.6,0,1,0,1.2,0.1s0.5,0.1,0.7,0.3c0.2,0.1,0.4,0.3,0.5,0.6c0.1,0.2,0.2,0.5,0.2,0.8
				c0,0.3-0.1,0.6-0.3,0.9c-0.2,0.3-0.4,0.5-0.7,0.6c0.4,0.1,0.8,0.3,1,0.6c0.2,0.3,0.3,0.6,0.3,1.1c0,0.3-0.1,0.6-0.2,0.9
				s-0.3,0.5-0.6,0.7s-0.6,0.3-0.9,0.3c-0.2,0-0.8,0-1.7,0h-2.4V18z M28.6,19.2v1.6h0.9c0.5,0,0.9,0,1,0c0.2,0,0.4-0.1,0.6-0.3
				c0.1-0.1,0.2-0.3,0.2-0.5c0-0.2-0.1-0.4-0.2-0.5s-0.3-0.2-0.5-0.2c-0.1,0-0.5,0-1.2,0H28.6z M28.6,22v1.9h1.3c0.5,0,0.8,0,1,0
				c0.2,0,0.4-0.1,0.5-0.3s0.2-0.3,0.2-0.6c0-0.2-0.1-0.4-0.2-0.5c-0.1-0.1-0.2-0.3-0.4-0.3C30.8,22,30.4,22,29.8,22H28.6z"/>
		</g>
	</g>
	<g>
		<path class="st13" d="M46.7,36.3c0,2.7-2.2,4.9-4.9,4.9H4.9c-1.4,0-2.6-0.6-3.5-1.4C0.6,38.9,0,37.7,0,36.3H46.7z"/>
	</g>
	<g>
		<g>
			<g>
				<g>
					<path class="st0" d="M35.9,32.6l-0.1,1.8c0,0,1.4,0.9,2-0.9c0,0,0.7,1.7,1,2c0.3,0.4,0.9,0.8,0.9,0.8s-0.1,0.8,0.3,1.2
						c0.4,0.3,1,0.7,1,0.7s0,0.9,0.5,1.2c0.5,0.3,2.2,1,2.2,1s0.3,0.1,0.7-0.1c0.4-0.2,1.4-0.7,1.4-0.7s1.7,1.2,2.3,1.4V29.9
						l-2.5-1.6c0,0-2.7,0-3.9-0.1s-3.1,0.4-3.1,0.4s-1.7,0.9-2.2,1.8S35.9,32.6,35.9,32.6z"/>
				</g>
				<g>
					<path class="st2" d="M43.7,31.5c-0.5-0.2-0.1-1.3,0.1-1.7c0.1-0.4,0.2-0.6,0.2-0.6s-0.4,0.9-0.6,1.3c-0.1,0.4-0.1,0.8-0.2,0.8
						c-0.1,0-1.4-0.4-1.5-0.5c-0.1-0.1,0.1-1,0-1.5c0,0-0.2,1.1-0.2,1.3c0,0-1.4-0.2-2-0.7c-0.6-0.5-0.5-0.7-0.7-1
						c0,0,0.2,0.6,0.2,0.7c0,0-0.5-0.3-1.4-0.3c-0.4,0.3-0.9,0.7-1.1,1.1c0,0,0,0,0,0c0,0.4,0.1,0.9,0.3,1.1
						c0.5,0.6,1.1,1.3,1.1,1.8c0,0,0.1,0.1,0.1,0.3l0.2-0.9c0,0,1.1,0.6,1.5,0.8c0.4,0.2,0.4,0.4,0.3,0.5c0,0,0.4-0.2,0.7-0.2
						c0.3,0,1.2,0.4,1.9,0.8c0.7,0.4,1.1,0.6,1.1,0.6l-0.6-1.7l2.3-1.6l0.5-0.2l0.5-0.2c0,0-0.3,0.1-0.9,0.1
						C45,31.7,44.1,31.8,43.7,31.5z"/>
				</g>
				<g>
					<path class="st2" d="M39.7,36.2c0.1,0.1,0.1,0.1,0.2,0.1c0.1,0,0.2,0.1,0.2,0.1c0.1,0,0.2,0,0.3,0l0.1,0l0.1,0c0,0,0,0,0.1,0
						l0.1,0l0.1,0c0,0,0,0,0.1,0c0,0,0.1,0,0.1,0c0.1,0,0.2,0,0.3,0c0.1,0,0.2,0,0.3,0c0.1,0,0.2,0,0.3,0l0.3-0.1l0.3-0.1
						c0.2,0,0.3-0.1,0.5-0.1L43,36l0.3-0.1c0.1,0,0.2,0,0.2-0.1c0,0,0.1,0,0.1-0.1c0,0,0,0,0,0c0,0,0,0,0,0l0,0l0.1-0.1l0,0.2
						c0,0.1,0.1,0.2,0.1,0.2c0,0.1,0.1,0.1,0.1,0.2c0,0.1,0.1,0.1,0.1,0.2l0,0.1l0,0l0,0l0,0c0.1,0.1,0.1,0.1,0.2,0.2
						c0.1,0.1,0.1,0.1,0.2,0.2c0.1,0.1,0.1,0.1,0.2,0.2c0.1,0.1,0.1,0.1,0.2,0.2c0.1,0.1,0.1,0.1,0.2,0.2c0.1,0.1,0.1,0.1,0.2,0.2
						c0.1,0.1,0.1,0.1,0.2,0.2c0.1,0.1,0.1,0.1,0.2,0.2l0.1,0.1c0,0,0.1,0,0.1,0.1l0.1,0.1l0.1,0.1c0,0,0.1,0,0.1,0.1l0.1,0.1
						c0,0,0,0,0.1,0l0.1,0l0.1,0.1l-0.1,0l-0.1,0c0,0,0,0-0.1,0l-0.1-0.1c0,0-0.1,0-0.1-0.1c0,0-0.1,0-0.1-0.1L46,38.3
						c0,0-0.1,0-0.1-0.1l-0.1-0.1c-0.1,0-0.1-0.1-0.2-0.1c-0.1,0-0.1-0.1-0.2-0.2c-0.1-0.1-0.1-0.1-0.2-0.2
						c-0.1-0.1-0.1-0.1-0.2-0.2c-0.1-0.1-0.1-0.1-0.2-0.2c-0.1-0.1-0.1-0.1-0.2-0.2c-0.1-0.1-0.1-0.1-0.2-0.2
						c-0.1-0.1-0.1-0.1-0.2-0.2l0,0l0-0.1l0-0.1l0-0.1c-0.1-0.1-0.1-0.1-0.2-0.2c0-0.1-0.1-0.2-0.1-0.2c0-0.1-0.1-0.2-0.1-0.3l0.2,0
						c0,0,0,0,0,0c0,0,0,0,0,0c0,0,0,0-0.1,0c0,0-0.1,0-0.1,0.1c-0.1,0-0.2,0.1-0.3,0.1L43,36.2c-0.1,0-0.2,0-0.3,0.1
						c-0.2,0-0.3,0.1-0.5,0.1c-0.1,0-0.2,0-0.3,0l-0.3,0c-0.1,0-0.2,0-0.3,0c-0.1,0-0.2,0-0.3,0c-0.1,0-0.2,0-0.3,0c0,0-0.1,0-0.1,0
						c0,0-0.1,0-0.1,0l-0.1,0c0,0,0,0-0.1,0l-0.1,0l-0.1,0c-0.1,0-0.2,0-0.3-0.1c-0.1,0-0.2-0.1-0.2-0.1
						C39.8,36.3,39.8,36.3,39.7,36.2z"/>
				</g>
				<g>
					<path class="st2" d="M41,38.1C41,38.1,41,38.1,41,38.1c0.1,0.1,0.1,0.1,0.2,0.1c0.1,0,0.1,0.1,0.2,0.1c0.1,0,0.2,0.1,0.3,0.1
						c0.1,0,0.1,0,0.2,0.1c0.1,0,0.1,0,0.2,0.1c0.1,0,0.3,0.1,0.4,0.1c0.1,0,0.1,0,0.2,0c0.1,0,0.1,0,0.2,0c0.1,0,0.3,0,0.5,0
						c0.2,0,0.3,0,0.5,0c0.1,0,0.3,0,0.4-0.1c0,0,0.1,0,0.1,0c0,0,0.1,0,0.1,0c0.1,0,0.1-0.1,0.2-0.1c0.1-0.1,0.2-0.1,0.3-0.2
						c0.2-0.1,0.4-0.2,0.5-0.2c0.1-0.1,0.2-0.1,0.2-0.1s-0.1,0-0.2,0.1c-0.1,0.1-0.3,0.2-0.5,0.3c-0.1,0.1-0.2,0.1-0.3,0.2
						c-0.1,0-0.1,0.1-0.2,0.1c0,0-0.1,0-0.1,0c0,0-0.1,0-0.1,0c-0.1,0.1-0.3,0.1-0.5,0.1c-0.2,0-0.3,0-0.5,0c-0.2,0-0.3,0-0.5-0.1
						c-0.1,0-0.2,0-0.2,0c-0.1,0-0.1,0-0.2-0.1c-0.1,0-0.3-0.1-0.4-0.1c-0.1-0.1-0.2-0.1-0.3-0.2c-0.1-0.1-0.2-0.1-0.3-0.2
						c-0.1-0.1-0.1-0.1-0.2-0.1C41.1,38.1,41,38.1,41,38.1z"/>
				</g>
			</g>
			<g>
				<g>
					<g>
						
							<rect x="34.9" y="25.6" transform="matrix(-0.7174 -0.6967 0.6967 -0.7174 42.409 71.4222)" class="st4" width="1.6" height="3"/>
					</g>
					<g>
						<path class="st7" d="M41.8,30.6l-4.6-4.5l-2.5,2.5l4.6,4.5c0.7,0.7,1.8,0.7,2.5,0h0C42.5,32.4,42.5,31.3,41.8,30.6z"/>
					</g>
				</g>
				<g>
					<path class="st1" d="M35.4,16.5c-2.9-2.8-7.6-2.8-10.4,0.2c-2.8,2.9-2.8,7.6,0.2,10.4c2.9,2.8,7.6,2.8,10.4-0.1
						C38.4,24,38.3,19.3,35.4,16.5z M34.2,25.6c-2.1,2.2-5.6,2.2-7.7,0.1c-2.2-2.1-2.2-5.6-0.1-7.7c2.1-2.2,5.6-2.2,7.7-0.1
						C36.3,20,36.3,23.4,34.2,25.6z"/>
				</g>
			</g>
			<g>
				<path class="st0" d="M45.9,31.8l-2.3,3.6c0,0-1.7-1.1-2.6-1.4c-0.4-0.1-0.8-0.3-1.1-0.4c-0.7-0.3-1.4-0.6-2-1.1
					c-0.3-0.2-0.6-0.5-0.8-0.8c-0.5-0.7-0.7-1-0.4-1.7c0.3-0.7,1.2-0.6,1.7-0.5c0.5,0.2,2.4,1,2.8,1.2c0.4,0.2,0.8,0.4,1.1,0.5
					c0.3,0.1,1,0.7,2.1,0.7C45.5,32,45.9,31.8,45.9,31.8z"/>
			</g>
		</g>
		<g>
			<g>
				<path class="st16" d="M37.5,31.6c0.1,0.1,0.2,0.1,0.3,0.1c0.2,0,0.4,0,0.5-0.2c0.2-0.4,0.4-0.7,0.4-0.9s0-0.4-0.1-0.5
					c-0.1-0.2-0.8-0.5-0.8-0.5s-0.7,0-0.8,0.6c-0.1,0.3-0.1,0.6-0.1,0.8c0,0.1,0.1,0.2,0.2,0.3C37.2,31.4,37.4,31.6,37.5,31.6z"/>
			</g>
		</g>
	</g>
	<g>
		<polygon class="st12" points="28.5,38.8 18.2,38.8 17.2,36.3 29.5,36.3 		"/>
	</g>
</g>
</svg>
