<?xml version="1.0" encoding="utf-8"?>
<!-- Generator: Adobe Illustrator 19.0.1, SVG Export Plug-In . SVG Version: 6.00 Build 0)  -->
<svg version="1.1" id="Layer_1" xmlns="http://www.w3.org/2000/svg" xmlns:xlink="http://www.w3.org/1999/xlink" x="0px" y="0px"
	 viewBox="0 0 48 48" style="enable-background:new 0 0 48 48;" xml:space="preserve">
<style type="text/css">
	.st0{fill:#FFD15C;}
	.st1{fill:#415A6B;}
	.st2{fill:#F7B64C;}
	.st3{fill:#CED6E0;}
	.st4{fill:#344A5E;}
	.st5{fill:#F3F3F3;}
	.st6{fill:#F05540;}
	.st7{fill:#F3705A;}
	.st8{fill:#66C6B9;}
	.st9{fill:#55C0EB;}
	.st10{fill:#F5F6FB;}
	.st11{fill:#4ABAA5;}
	.st12{fill:#ADB3BA;}
	.st13{fill:#E8EAE9;}
	.st14{fill:#2E4556;}
	.st15{fill:#8AD7F8;}
	.st16{fill:#FFFFFF;}
	.st17{fill:#E54838;}
	.st18{fill:#3EAF99;}
	.st19{fill:#EFA943;}
	.st20{fill:#4CAEE5;}
	.st21{fill:#293F4F;}
	.st22{fill:#2D4456;}
	.st23{fill:#2E4454;}
	.st24{fill:#2A3F4F;}
	.st25{fill:#2D4151;}
	.st26{fill:#E89E3D;}
	.st27{fill:#2B4151;}
	.st28{fill:#2A4051;}
	.st29{fill:#2C4151;}
	.st30{fill:#EBEAE8;}
	.st31{fill:#3AA590;}
	.st32{fill:#E84534;}
	.st33{fill:none;}
</style>
<g>
	<g>
		<g>
			<path class="st1" d="M32.1,0L32.1,0c-0.7,0-1.3,0.6-1.3,1.3v25.2h2.5V1.3C33.3,0.6,32.8,0,32.1,0z"/>
		</g>
		<g>
			<g>
				<path class="st13" d="M11.2,36.7l-0.6,1.6l2.1,0.8l1.2-1.2c-0.6-0.7-0.7-1.8-0.6-2.9L11.2,36.7z"/>
			</g>
			<g>
				<path class="st4" d="M7.8,47.7c0,0,0.2-0.1,0.2-0.2c0-0.1-0.4-0.4-1.3-0.6s-2.1-1-2.4-1.5s-0.3-0.5-0.3-0.5l-3,0.1
					c0,0-1.1,0.6-0.7,2l0.1,0.2c0,0,1.2,0,2.1,0.3s2.8,0.6,4.1,0.4S7.8,47.7,7.8,47.7z"/>
			</g>
			<g>
				<path class="st1" d="M10.9,37.3c0,0,2.3-0.4,3.1-0.3s1.7,0.1,1.7,0.1s0.4-7.9,0.7-9.8s-1.6-2.8-2.1-3.2
					c-0.5-0.3-5.7-3.3-5.7-3.3l-6.2,5.2c0,0-0.4,4.5,0,5.4c0,0-0.2,0.6-0.2,1.1c0,0.5-0.1,1.8-0.4,2.8s-0.6,3.7-0.8,6.1
					s-0.2,3.6-0.2,3.6s0.5,0.7,1.8,0.6s2.1-0.2,2.3-0.6c0.2-0.3-0.2-2.9,0.3-5.3s0.4-4.7,0.4-4.7s1.2-3.2,1.3-4.5
					c0.1-1.3,0.8-3.7,0.8-3.7s2.7,0.5,3.4,0.6s1.1,0.3,1.1,0.3s-0.2,0.8,0,1.1c0.2,0.3-0.3,1.1-0.5,2.2s-0.2,3.4-0.4,4.4
					C10.9,36.6,10.9,37.3,10.9,37.3z"/>
			</g>
			<g>
				<path class="st4" d="M11.1,40L10.6,40c0,0-0.6-0.6-0.1-1.7c0,0,0.7,0.2,1.5,0s1.6-1.2,1.6-1.2s1.4,1.1,2.1,1.2
					c0.7,0.2,2.7-0.2,2.7,0.1s-0.4,0.4-0.4,0.4s-2.1,0.9-3.5,0.9s-1-0.1-1.7,0.1C11.9,40,11.1,40,11.1,40z"/>
			</g>
			<g>
				<path class="st0" d="M12.4,16.6l0.5-0.2l0.5-0.4c0.1-0.1,0.3-0.1,0.4-0.1l0.4,0.2l0.3-0.1c0,0,0.1,0.1,0.1,0.1
					c0,0,0.4-0.1,0.5,0.2c0.1,0.2-0.1,0.4-0.1,0.4s0.3,0.1,0.2,0.3c0,0.2-0.2,0.3-0.2,0.3s0.4,0.1,0.3,0.3s-0.4,0.2-0.4,0.2
					s0,0.1,0.1,0.1s0.5,0.3,0.4,0.6c-0.2,0.3-0.5,0-0.6-0.1c-0.1-0.1-1.1,0.2-1.9-0.2C11.8,18,11.8,18,11.8,18L12.4,16.6z"/>
			</g>
			<g>
				<path class="st0" d="M6.7,1.3L7,1.7c0,0,0.6,0.8,0.6,1.1s0,0.3,0.1,0.4C7.8,3.4,8.3,3.9,8.4,4c0.1,0.1,0,0.2-0.1,0.3
					C8.1,4.5,8,4.5,8,4.6S8.3,4.9,8,5c0,0,0.2,0,0.1,0.2C8,5.4,8.1,5.7,8.2,6c0.1,0.3-0.4,0.6-1,0.5S5.6,8.8,5.6,8.8L3.2,7l0.2-1.2
					C3.4,5.8,3,0.7,6.7,1.3z"/>
			</g>
			<g>
				<path class="st1" d="M5.4,4.2L5.9,4c0,0-0.1-0.5,0-0.9C6,2.6,5.8,1.9,5.5,1.6S6.9,1.5,7,1.7c0,0,0.3-1-0.3-1.4s-2-0.3-2.9,0
					S2.3,1.7,2.2,2.5s1.2,3.3,1.2,3.3s0.7-0.1,0.7-0.3c0-0.2-0.2-0.8,0-1.5C4.4,3.3,5.2,3.5,5.4,4.2z"/>
			</g>
			<g>
				<ellipse transform="matrix(0.8553 -0.5181 0.5181 0.8553 -1.4664 3.0889)" class="st0" cx="4.8" cy="4.2" rx="0.6" ry="0.9"/>
			</g>
			<path class="st2" d="M7.1,6.5c0,0-0.9-0.2-1.7-1.1c0,0,0.2,0.8,1.2,1.6C6.7,6.8,6.9,6.6,7.1,6.5L7.1,6.5z"/>
			<g>
				<path class="st13" d="M3.3,6.1c0,0,1.5,0.2,2.1,0.7s1.1,1.6,1.1,1.6L6.2,9.6L3.1,6.8L3.3,6.1z"/>
			</g>
			<g>
				<path class="st4" d="M8.7,15.6c0,0-0.2,1.8-0.1,2.8c0.1,1,1.3,4.5,1.7,5.5c0.4,1-0.2,1.8-1.1,2.3c-0.8,0.5-5.4,1.5-6.9,1
					s-1.9-0.8-1.9-0.8s0.2-6.2,0.2-7.4s-0.7-7-0.5-8S2,7.5,2.8,7.4c0.9-0.1,0.9-0.1,0.9-0.1S5.8,8.1,7,10S8.7,12.5,8.7,15.6z"/>
			</g>
			<g>
				<path class="st1" d="M3.2,6.6c0,0,1,0.1,1.6,0.6s2.1,2.5,2.7,3.4c0.7,0.9,1.1,1.8,1.1,2.8s0,2.4,0,2.4s0-1.9-0.3-2.6
					s-1-2.1-1.5-2.8c-0.5-0.7-1.6-2-2.3-2.4C3.9,7.4,2.8,7.4,2.8,7.4L3.2,6.6z"/>
			</g>
			<g>
				<path class="st1" d="M13.1,19.4l-5.5,0.2c0,0-1.8,0.1-2.5-0.6c-0.6-0.6-1.8-4.8-2-5.6c0,0,0,0,0,0c0,0,0,0,0,0c0,0,0,0,0-0.1
					c0,0,0,0,0,0C3.1,13.1,3,12.8,3,12.5c-0.1-1.7,0.8-3,1.9-3c1.1,0,2,1.2,2.2,2.8c0,0.2,0,0.4,0.1,0.6c0.1,0.7,0.3,2,0.3,2.4
					c0,0.5,0.2,1,0.2,1.2c0,0.2,0.2-0.1,0.3,0c0.1,0.1,0.6,0.3,1.1,0.3c0.5,0,3.4-0.4,3.4-0.4S13.5,18,13.1,19.4z"/>
			</g>
			<g>
				<path class="st1" d="M10.6,40c0,0,1.1-0.2,2.2-0.3c1.1-0.2,2,0,3.1-0.3s2.3-0.9,2.4-1c0,0,0.2,0.1,0,0.3
					c-0.2,0.2-1.6,0.8-2.9,1.1s-2.5,0.2-2.5,0.2l0.1,0.3l-2.3,0.5C10.7,40.6,10.5,40.2,10.6,40z"/>
			</g>
			<path class="st1" d="M0.2,46.9c0,0,1.3,0.2,2,0.3s0.7,0.5,2.1,0.5s3.5,0,3.7-0.3c0,0,0.2,0.2-0.1,0.3C7.5,48,5.8,48,4.7,48
				c-1.2,0-2-0.3-2.4-0.5v0.3l-2.1-0.2C0,47.3,0.2,46.9,0.2,46.9z"/>
		</g>
		<polygon class="st13" points="48,26.2 48,48 9.6,48 9.6,40.6 19.5,40.6 19.5,33.4 29.3,33.4 29.3,26.2 		"/>
		<g>
			<path class="st8" d="M48,13.7c-4.9-3.1-9.8,3.1-14.7,0c0-3.7,0-7.4,0-11.1c4.9,3.1,9.8-3.1,14.7,0C48,6.3,48,10,48,13.7z"/>
		</g>
	</g>
</g>
</svg>
