<?xml version="1.0" encoding="utf-8"?>
<!-- Generator: Adobe Illustrator 18.0.0, SVG Export Plug-In . SVG Version: 6.00 Build 0)  -->
<!DOCTYPE svg PUBLIC "-//W3C//DTD SVG 1.1//EN" "http://www.w3.org/Graphics/SVG/1.1/DTD/svg11.dtd">
<svg version="1.1" id="Layer_1" xmlns="http://www.w3.org/2000/svg" xmlns:xlink="http://www.w3.org/1999/xlink" x="0px" y="0px"
	 viewBox="0 0 48 48" enable-background="new 0 0 48 48" xml:space="preserve">
<g>
	<g>
		<g>
			<path fill="#F3F3F3" d="M36.1,0H4C1.8,0,0,1.8,0,4V44c0,2.2,1.8,4,4,4h0h36.1V4C40.1,1.8,38.3,0,36.1,0z"/>
			<polygon fill="#F3705A" points="18.6,5.1 18.6,7.4 34.8,7.4 34.8,5.1 			"/>
			<polygon fill="#E8EAE9" points="18.6,11.6 18.6,13.8 34.8,13.8 34.8,11.6 			"/>
			<polygon fill="#E8EAE9" points="18.6,18 18.6,20.3 34.8,20.3 34.8,18 			"/>
			<polygon fill="#E8EAE9" points="34.8,26.7 34.8,24.4 5.2,24.4 5.2,26.7 			"/>
			<polygon fill="#E8EAE9" points="34.8,33.1 34.8,30.8 5.2,30.8 5.2,33.1 			"/>
			<polygon fill="#E8EAE9" points="34.8,39.5 34.8,37.2 5.2,37.2 5.2,39.5 			"/>
			<g>
				<path fill="#415A6B" d="M9.5,20.3v-1.3c-1.6-0.2-3-0.9-4.3-2.1L7,14.7c1,0.8,1.8,1.4,2.6,1.6v-2.7c-1.3-0.3-2.2-0.8-2.8-1.3
					c-0.6-0.6-0.9-1.4-0.9-2.4c0-1,0.3-1.9,1-2.6C7.5,6.6,8.4,6.2,9.5,6V5.1h1.9v0.9c1.2,0.2,2.4,0.7,3.7,1.5l-1.5,2.2
					c-0.8-0.6-1.5-0.9-2.2-1.1v2.6c1.3,0.3,2.3,0.8,2.9,1.4c0.6,0.6,0.9,1.4,0.9,2.4c0,1.1-0.4,1.9-1.1,2.6
					c-0.7,0.7-1.6,1.1-2.8,1.2v1.3H9.5z M9.5,8.6C9,8.8,8.8,9.1,8.8,9.6c0,0.5,0.3,0.9,0.8,1.1V8.6z M12.4,15.3
					c0-0.3-0.1-0.5-0.2-0.6c-0.1-0.2-0.4-0.3-0.7-0.5v2.3C12.1,16.2,12.4,15.8,12.4,15.3z"/>
			</g>
		</g>
		<path fill="#8AD7F8" d="M7.9,44c0,2.2-1.8,4-4,4H44c2.2,0,4-1.8,4-4L7.9,44z"/>
	</g>
</g>
</svg>
