<?xml version="1.0" encoding="utf-8"?>
<!-- Generator: Adobe Illustrator 19.0.1, SVG Export Plug-In . SVG Version: 6.00 Build 0)  -->
<svg version="1.1" id="Layer_1" xmlns="http://www.w3.org/2000/svg" xmlns:xlink="http://www.w3.org/1999/xlink" x="0px" y="0px"
	 viewBox="0 0 48 48" style="enable-background:new 0 0 48 48;" xml:space="preserve">
<style type="text/css">
	.st0{fill:#FFD15C;}
	.st1{fill:#415A6B;}
	.st2{fill:#F7B64C;}
	.st3{fill:#CED6E0;}
	.st4{fill:#344A5E;}
	.st5{fill:#F3F3F3;}
	.st6{fill:#F05540;}
	.st7{fill:#F3705A;}
	.st8{fill:#66C6B9;}
	.st9{fill:#55C0EB;}
	.st10{fill:#F5F6FB;}
	.st11{fill:#4ABAA5;}
	.st12{fill:#ADB3BA;}
	.st13{fill:#E8EAE9;}
	.st14{fill:#2E4556;}
	.st15{fill:#8AD7F8;}
	.st16{fill:#FFFFFF;}
	.st17{fill:#E54838;}
	.st18{fill:#3EAF99;}
	.st19{fill:#EFA943;}
	.st20{fill:#4CAEE5;}
	.st21{fill:#293F4F;}
	.st22{fill:#2D4456;}
	.st23{fill:#2E4454;}
	.st24{fill:#2A3F4F;}
	.st25{fill:#2D4151;}
	.st26{fill:#E89E3D;}
	.st27{fill:#2B4151;}
	.st28{fill:#2A4051;}
	.st29{fill:#2C4151;}
	.st30{fill:#EBEAE8;}
	.st31{fill:#3AA590;}
	.st32{fill:#E84534;}
	.st33{fill:none;}
</style>
<g>
	<g>
		<g>
			<g>
				<g>
					<path class="st0" d="M43.3,34.2c-0.6,0-3.8,1.2-3.8,1.2c-0.5-3.2-6.6-2.3-7.3-2.3c-0.8,0-1.6-0.3-3.4-1.1
						c-1.9-0.8-4.1-1.8-4.1-1.8c-4.5-1.2-9.2,0.6-10.3,1.1c-0.7,0.3-3.8,1.2-6.1,1.9v9.9c2.2-0.9,5.3-2.1,6.2-2.3
						c1.4-0.3,4.9,0.2,6.8,0.8c1.8,0.5,6.2,2.3,8.2,2.5c1.9,0.2,3-0.6,4.1-1.5c1.1-0.9,4.2-2,4.9-2.4c0.7-0.4,1.7-1.2,2.5-1.6
						c0.8-0.3,3.5-1.5,3.5-1.5l3.6-1C47.1,33.4,43.9,34.2,43.3,34.2z"/>
				</g>
				<g>
					<path class="st2" d="M27.2,38.7c0,0,0,0,0.1-0.1c0,0,0.1-0.1,0.1-0.2c0-0.1,0.1-0.1,0.2-0.2c0.1-0.1,0.3-0.3,0.6-0.4
						c0,0,0.1,0,0.1,0c0,0,0.1,0,0.1,0c0.1,0,0.1-0.1,0.2-0.1c0.1-0.1,0.3-0.1,0.5-0.1c0.2,0,0.3-0.1,0.5-0.1c0,0,0.1,0,0.1,0
						c0,0,0.1,0,0.1,0c0.1,0,0.2,0,0.3,0c0.4,0,0.8,0,1.2,0.1c0.4,0.1,0.8,0.1,1.2,0.2c0.1,0,0.2,0,0.3,0c0.1,0,0.2,0,0.3,0
						c0.1,0,0.1,0,0.2,0l0.2,0c0.1,0,0.2,0,0.3,0c0.4,0,0.8,0,1.2-0.1c0.4-0.1,0.8-0.1,1.2-0.2c0.2-0.1,0.4-0.1,0.6-0.2
						c0.1,0,0.2-0.1,0.3-0.1c0.1,0,0.2-0.1,0.3-0.1c0,0,0.1,0,0.1,0c0,0,0.1,0,0.1,0c0.1,0,0.2-0.1,0.2-0.1c0.2-0.1,0.3-0.1,0.5-0.2
						c0.1-0.1,0.3-0.1,0.4-0.2c0.1-0.1,0.2-0.1,0.4-0.2c0.2-0.1,0.4-0.3,0.5-0.4c0.1-0.1,0.2-0.3,0.2-0.4c0,0,0-0.1,0-0.1
						c0,0,0,0,0,0s0,0,0,0c0,0,0,0.1,0,0.1c0,0.1-0.1,0.2-0.2,0.4c-0.1,0.2-0.3,0.3-0.5,0.5c-0.1,0.1-0.2,0.2-0.3,0.2
						c-0.1,0.1-0.3,0.2-0.4,0.2c-0.1,0.1-0.3,0.2-0.4,0.2c-0.1,0-0.2,0.1-0.2,0.1c0,0-0.1,0-0.1,0.1c0,0-0.1,0-0.1,0.1
						c-0.1,0-0.2,0.1-0.3,0.1c-0.1,0-0.2,0.1-0.3,0.1c0,0-0.1,0-0.1,0.1c0,0-0.1,0-0.1,0c-0.1,0-0.2,0.1-0.3,0.1
						c-0.2,0.1-0.4,0.1-0.6,0.2c-0.1,0-0.2,0-0.3,0.1c-0.1,0-0.2,0-0.3,0.1c-0.4,0.1-0.9,0.1-1.3,0.1c-0.1,0-0.2,0-0.3,0l-0.2,0
						c-0.1,0-0.1,0-0.2,0c-0.1,0-0.2,0-0.3,0c-0.1,0-0.2,0-0.3,0c-0.2,0-0.4-0.1-0.6-0.1c-0.2,0-0.4-0.1-0.6-0.1
						c-0.4-0.1-0.8-0.1-1.1-0.2c-0.1,0-0.2,0-0.3,0c0,0-0.1,0-0.1,0c0,0-0.1,0-0.1,0c-0.2,0-0.3,0-0.5,0c-0.3,0-0.6,0.1-0.8,0.2
						c-0.2,0.1-0.4,0.2-0.6,0.3c-0.1,0.1-0.1,0.1-0.2,0.2c-0.1,0-0.1,0.1-0.1,0.1C27.2,38.6,27.2,38.7,27.2,38.7z"/>
				</g>
				<g>
					<path class="st13" d="M37,33.9c0,0-0.4-0.1-0.4,0.4c0.1,0.5,0.2,1.7,0,2c-0.2,0.3,0.3,0.3,0.7,0.3c0.4,0,1.7-0.4,1.7-0.4
						s1.4-0.7,0-2.1c-0.2-0.2-0.4-0.3-0.6-0.3L37,33.9z"/>
				</g>
				<g>
					<path class="st13" d="M48,36l-3,0.9C44.8,35.1,48,36,48,36z"/>
				</g>
			</g>
			<g>
				
					<rect x="5.1" y="35.8" transform="matrix(0.1167 0.9932 -0.9932 0.1167 48.7927 21.5763)" class="st5" width="14.4" height="4.8"/>
			</g>
			<g>
				
					<rect x="-1.8" y="33.1" transform="matrix(0.1167 0.9932 -0.9932 0.1167 44.5277 27.6785)" class="st1" width="17" height="11.5"/>
			</g>
			<g>
				<circle class="st4" cx="9.1" cy="43.1" r="2"/>
			</g>
		</g>
		<g>
			<path class="st8" d="M32.7,20.1l1.7-0.9l-0.3-1.6l-1.9-0.3c-0.2-0.6-0.6-1.1-0.9-1.6L32,14l-1.2-1l-1.6,1
				c-0.5-0.3-1.1-0.5-1.8-0.6l-0.6-1.8h-1.6l-0.6,1.8c-0.6,0.1-1.2,0.4-1.8,0.6l-1.6-1l-1.2,1l0.7,1.8c-0.4,0.5-0.7,1-0.9,1.6
				L18,17.6l-0.3,1.6l1.7,0.9c0,0.6,0.1,1.3,0.3,1.8l-1.3,1.4l0.8,1.4l1.9-0.4c0.4,0.5,0.9,0.9,1.4,1.2l-0.1,1.9l1.5,0.5l1.2-1.5
				c0.3,0,0.6,0.1,0.9,0.1s0.6,0,0.9-0.1l1.2,1.5l1.5-0.5l-0.1-1.9c0.5-0.3,1-0.7,1.4-1.2l1.9,0.4l0.8-1.4l-1.3-1.4
				C32.6,21.4,32.7,20.7,32.7,20.1z M28.5,18.9c-0.3-0.7-0.8-1.3-1.5-1.5l-0.3-1.9c1.9,0.3,3.4,1.8,3.7,3.7L28.5,18.9z M26,21.1
				c-0.7,0-1.2-0.5-1.2-1.2c0-0.7,0.5-1.2,1.2-1.2c0.7,0,1.2,0.5,1.2,1.2C27.2,20.5,26.7,21.1,26,21.1z M25.1,17.4
				c-0.7,0.3-1.3,0.8-1.5,1.5l-1.9,0.3c0.3-1.9,1.8-3.4,3.7-3.7L25.1,17.4z M23.5,20.8c0.3,0.7,0.8,1.3,1.5,1.5l0.3,1.9
				c-1.9-0.3-3.4-1.8-3.7-3.7L23.5,20.8z M27,22.4c0.7-0.3,1.3-0.8,1.5-1.5l1.9-0.3c-0.3,1.9-1.8,3.4-3.7,3.7L27,22.4z"/>
			<path class="st7" d="M46.4,23l1.4-0.7L47.6,21l-1.5-0.2c-0.2-0.5-0.4-0.9-0.7-1.3l0.6-1.4l-1-0.8L43.6,18
				c-0.4-0.2-0.9-0.4-1.4-0.5l-0.4-1.5l-1.3,0L40,17.4c-0.5,0.1-1,0.3-1.4,0.5L37.2,17l-1,0.8l0.6,1.5c-0.3,0.4-0.6,0.8-0.8,1.3
				l-1.5,0.2L34.2,22l1.4,0.7c0,0.5,0.1,1,0.2,1.5l-1.1,1.1l0.6,1.1l1.5-0.3c0.3,0.4,0.7,0.7,1.2,1L38,28.8l1.2,0.5l1-1.2
				c0.2,0,0.5,0.1,0.8,0.1c0.3,0,0.5,0,0.8,0l0.9,1.3l1.2-0.4l0-1.6c0.4-0.3,0.8-0.6,1.2-1l1.5,0.4l0.7-1.1l-1-1.2
				C46.3,24,46.4,23.5,46.4,23z M41,25.2c-1.4,0-2.5-1.2-2.4-2.5c0-1.4,1.2-2.5,2.5-2.5c1.4,0,2.5,1.2,2.4,2.5
				C43.5,24.1,42.3,25.2,41,25.2z"/>
			<path class="st4" d="M43.8,9.6L45.7,9l0-1.6l-1.8-0.6c-0.1-0.6-0.4-1.2-0.7-1.8l1-1.6l-1-1.2l-1.8,0.8c-0.5-0.4-1-0.7-1.6-0.9
				l-0.3-1.9L37.8,0L37,1.7c-0.6,0-1.3,0.2-1.9,0.4l-1.4-1.3l-1.4,0.8l0.4,1.9c-0.5,0.4-0.9,0.9-1.2,1.5l-1.9-0.1l-0.5,1.5l1.5,1.2
				c-0.1,0.6-0.1,1.3,0,1.9l-1.5,1.2l0.6,1.5l1.9-0.1c0.3,0.5,0.8,1,1.2,1.4l-0.4,1.9l1.4,0.8l1.4-1.3c0.3,0.1,0.6,0.2,0.9,0.2
				c0.3,0.1,0.6,0.1,0.9,0.1l0.9,1.7l1.6-0.3l0.2-1.9c0.6-0.2,1.1-0.6,1.6-1l1.8,0.7l1-1.2l-1.1-1.6C43.5,10.9,43.7,10.3,43.8,9.6z
				 M41.8,8.4l-1.9-0.6c-0.2-0.7-0.6-1.4-1.3-1.8l0-1.9C40.5,4.7,41.8,6.4,41.8,8.4z M35,7L33,7c0.6-1.8,2.3-3.1,4.3-3.1l-0.6,1.9
				C36,5.9,35.4,6.4,35,7z M37.1,9.6c-0.7-0.1-1.1-0.7-1-1.4c0.1-0.7,0.7-1.1,1.4-1c0.7,0.1,1.1,0.7,1,1.4
				C38.4,9.2,37.8,9.7,37.1,9.6z M32.8,8.4l1.9,0.6c0.2,0.7,0.6,1.4,1.3,1.7l0,1.9C34.1,12,32.8,10.3,32.8,8.4z M37.3,12.8l0.6-1.9
				c0.7-0.2,1.4-0.6,1.8-1.3l1.9,0C41,11.6,39.2,12.8,37.3,12.8z"/>
		</g>
	</g>
</g>
</svg>
