<?xml version="1.0" encoding="utf-8"?>
<!-- Generator: Adobe Illustrator 18.0.0, SVG Export Plug-In . SVG Version: 6.00 Build 0)  -->
<!DOCTYPE svg PUBLIC "-//W3C//DTD SVG 1.1//EN" "http://www.w3.org/Graphics/SVG/1.1/DTD/svg11.dtd">
<svg version="1.1" id="Layer_1" xmlns="http://www.w3.org/2000/svg" xmlns:xlink="http://www.w3.org/1999/xlink" x="0px" y="0px"
	 viewBox="0 0 48 48" enable-background="new 0 0 48 48" xml:space="preserve">
<g>
	<g>
		<path fill="#FF7058" d="M37.7,40.5H10.3c-1.6-0.6-1-3.4-1-3.4c1-2.8,0.8-18,0.8-18c1.8-5.6,0-17,0-17l7.6-2
			c0.1,3.2,2.8,5.7,6.2,5.7s6.1-2.5,6.2-5.7l7.6,2c0,0-1.8,11.4,0,17c0,0-0.2,15.2,0.8,18C38.7,37.1,39.3,40,37.7,40.5z"/>
	</g>
	<path fill="#F1543F" d="M37.8,2.1c0,0-1.8,11.4,0,17.1c0.6,0.4,1.6,6.9,1.6,6.9c1.2,4.6,0.5,11.6,0.5,11.6l-1.2,6.5l0.3,1.1
		l6.1,0.6l0.5-1c0.9-7.5,1.1-15.1,1.1-15.1C43.7,6.9,37.8,2.1,37.8,2.1z"/>
	<path fill="#40596B" d="M9.2,44.2c0,0-0.1,2.3,0.1,3.1c0,0-1.8,0.7-6.4,0.6c0,0,0-2.5-0.5-3.1L9.2,44.2z"/>
	<path fill="#F1543F" d="M2.8,45.8l-0.5-1c-0.9-7.5-1.1-15.1-1.1-15.1c3-22.8,8.9-27.6,8.9-27.6s1.8,11.4,0,17.1
		C9.6,19.5,8.5,26,8.5,26c-1.2,4.6-0.5,11.6-0.5,11.6l1.2,6.5l-0.3,1.1"/>
	<path fill="#334A5E" d="M2.4,44.8c0.2,0.2,0.3,0.6,0.4,1.1l6.5-0.6c0-0.6,0-1,0-1L2.4,44.8z"/>
	<path fill="#40596B" d="M37.1,43.6c-8.7,1-17.5,1-26.2,0c-0.8-0.1-1.4-0.9-1-1.7c0.2-0.4,0.3-0.9,0.4-1.3c9.1,0,18.3,0,27.4,0
		c0.1,0.5,0.3,0.9,0.4,1.3C38.4,42.7,37.9,43.5,37.1,43.6z"/>
	<path fill="#40596B" d="M38.8,44.2c0,0,0.1,2.3-0.1,3.1c0,0,1.8,0.7,6.4,0.6c0,0,0-2.5,0.5-3.1L38.8,44.2z"/>
	<path fill="#334A5E" d="M45.3,45.9c0.1-0.5,0.2-0.9,0.4-1.1l-6.9-0.6c0,0,0,0.5,0,1.1L45.3,45.9z"/>
	<g>
		<polygon fill="#F1543F" points="17,21.3 17,19.3 18.9,19.3 18.9,17.4 20.9,17.4 20.9,15.4 22.8,15.4 22.8,13.5 24.8,13.5 
			24.8,11.4 22.7,11.4 22.7,13.4 20.8,13.4 20.8,15.3 18.8,15.3 18.8,17.3 16.9,17.3 16.9,19.2 14.9,19.2 14.9,21.2 13,21.2 
			13,23.2 15,23.2 15,21.3 		"/>
		<polygon fill="#F1543F" points="19,23.3 19,21.4 21,21.4 21,19.4 22.9,19.4 22.9,17.5 24.9,17.5 24.9,15.5 26.8,15.5 26.8,13.5 
			24.8,13.5 24.8,15.4 22.8,15.4 22.8,17.4 20.9,17.4 20.9,19.3 18.9,19.3 18.9,21.3 17,21.3 17,23.2 15,23.2 15,25.3 17.1,25.3 
			17.1,23.3 		"/>
		<polygon fill="#F1543F" points="21.1,25.4 21.1,23.4 23,23.4 23,21.5 25,21.5 25,19.5 26.9,19.5 26.9,17.6 28.9,17.6 28.9,15.5 
			26.8,15.5 26.8,17.5 24.9,17.5 24.9,19.4 22.9,19.4 22.9,21.4 21,21.4 21,23.3 19,23.3 19,25.3 17.1,25.3 17.1,27.3 19.1,27.3 
			19.1,25.4 		"/>
		<polygon fill="#F1543F" points="23.1,27.4 23.1,25.5 25.1,25.5 25.1,23.5 27,23.5 27,21.6 29,21.6 29,19.6 30.9,19.6 30.9,17.6 
			28.9,17.6 28.9,19.5 26.9,19.5 26.9,21.5 25,21.5 25,23.4 23,23.4 23,25.4 21.1,25.4 21.1,27.3 19.1,27.3 19.1,29.4 21.2,29.4 
			21.2,27.4 		"/>
		<polygon fill="#F1543F" points="25.2,29.5 25.2,27.5 27.1,27.5 27.1,25.6 29.1,25.6 29.1,23.6 31,23.6 31,21.7 33,21.7 33,19.6 
			30.9,19.6 30.9,21.6 29,21.6 29,23.5 27,23.5 27,25.5 25.1,25.5 25.1,27.4 23.1,27.4 23.1,29.4 21.2,29.4 21.2,31.4 23.2,31.4 
			23.2,29.5 		"/>
		<polygon fill="#F1543F" points="35,21.7 33,21.7 33,23.6 31,23.6 31,25.6 29.1,25.6 29.1,27.5 27.1,27.5 27.1,29.5 25.2,29.5 
			25.2,31.4 23.2,31.4 23.2,33.5 25.3,33.5 25.3,31.5 27.2,31.5 27.2,29.6 29.2,29.6 29.2,27.6 31.1,27.6 31.1,25.7 33.1,25.7 
			33.1,23.7 35,23.7 		"/>
	</g>
	<path fill="#40596B" d="M24,7.3c4.1,0,7.4-3,7.7-6.8l-1.5-0.4c-0.1,3.2-2.8,5.7-6.2,5.7s-6.1-2.5-6.2-5.7l-1.5,0.4
		C16.6,4.3,19.9,7.3,24,7.3z"/>
</g>
</svg>
