<?xml version="1.0" encoding="utf-8"?>
<!-- Generator: Adobe Illustrator 18.0.0, SVG Export Plug-In . SVG Version: 6.00 Build 0)  -->
<!DOCTYPE svg PUBLIC "-//W3C//DTD SVG 1.1//EN" "http://www.w3.org/Graphics/SVG/1.1/DTD/svg11.dtd">
<svg version="1.1" id="Layer_1" xmlns="http://www.w3.org/2000/svg" xmlns:xlink="http://www.w3.org/1999/xlink" x="0px" y="0px"
	 viewBox="0 0 48 48" enable-background="new 0 0 48 48" xml:space="preserve">
<g>
	<g>
		<path fill="#F3705A" d="M29.9,16.7v-3.4c0-0.9-0.7-1.6-1.6-1.6c-0.9,0-1.6,0.7-1.6,1.6V16c-0.5-0.1-1.1-0.1-1.6-0.2
			c-1.2-0.1-2.5,0-3.7,0.2v-2.6c0-0.9-0.7-1.6-1.6-1.6c-0.9,0-1.6,0.7-1.6,1.6v3.3C9.8,19.2,3.8,26.9,3.8,36c0,3.2,0.7,6.2,2,8.8
			C6.2,45.5,6.9,46,7.7,46h0.9v2H13l0.5-2h21.1l0.5,2h4.4v-2h0.9c0.8,0,1.5-0.5,1.8-1.2c1.4-2.8,2.1-6,2-9.4
			C43.9,26.7,37.9,19.2,29.9,16.7z"/>
		<g>
			<g>
				<g>
					<circle fill="#FFFFFF" cx="24" cy="31.7" r="9.5"/>
					<g>
						<g>
							<circle fill="#CED6E0" cx="30" cy="31.7" r="1.5"/>
						</g>
						<g>
							<circle fill="#CED6E0" cx="28.3" cy="27.5" r="1.5"/>
						</g>
						<g>
							<circle fill="#CED6E0" cx="24" cy="25.7" r="1.5"/>
						</g>
						<g>
							<circle fill="#CED6E0" cx="19.7" cy="27.5" r="1.5"/>
						</g>
						<g>
							<circle fill="#CED6E0" cx="18" cy="31.7" r="1.5"/>
						</g>
						<g>
							<circle fill="#CED6E0" cx="19.7" cy="36" r="1.5"/>
						</g>
						<g>
							<circle fill="#CED6E0" cx="24" cy="37.8" r="1.5"/>
						</g>
						<g>
							<circle fill="#CED6E0" cx="28.3" cy="36" r="1.5"/>
						</g>
					</g>
				</g>
			</g>
			<g>
				<path fill="#F3705A" d="M14.8,13.5c1.2-0.3,1.9-1.4,1.5-2.5c-0.3-0.9-0.7-1.8-1-2.7c-0.9-1.8,2.9-4.5,8.7-4.5
					c5.8,0,9.6,2.7,8.7,4.5c-0.4,0.9-0.7,1.8-1,2.7c-0.4,1.1,0.3,2.2,1.5,2.5c3.6,0.8,7.1,2,10.5,3.7c1,0.5,2.1,0.2,2.7-0.7
					c0.4-0.7,0.8-1.5,1.2-2.2C50.3,10.8,40.4,0,24,0C7.6,0-2.3,10.8,0.4,14.4c0.4,0.7,0.8,1.5,1.2,2.2c0.5,0.9,1.7,1.2,2.7,0.7
					C7.7,15.5,11.2,14.3,14.8,13.5z"/>
			</g>
		</g>
	</g>
</g>
</svg>
