<?xml version="1.0" encoding="utf-8"?>
<!-- Generator: Adobe Illustrator 18.0.0, SVG Export Plug-In . SVG Version: 6.00 Build 0)  -->
<!DOCTYPE svg PUBLIC "-//W3C//DTD SVG 1.1//EN" "http://www.w3.org/Graphics/SVG/1.1/DTD/svg11.dtd">
<svg version="1.1" id="Layer_1" xmlns="http://www.w3.org/2000/svg" xmlns:xlink="http://www.w3.org/1999/xlink" x="0px" y="0px"
	 viewBox="0 0 48 48" enable-background="new 0 0 48 48" xml:space="preserve">
<g>
	<g>
		<g>
			<g>
				<g>
					<g>
						<path fill="#344A5E" d="M21.7,39.7C22.2,40.5,23,41,24,41c1,0,1.8-0.5,2.3-1.3H21.7z"/>
					</g>
				</g>
				<g>
					<g>
						<path fill="#FFD15C" d="M28.2,34.6c0.5-1.8,1.5-3.4,2.8-4.8c1.8-1.8,3-4.3,3-7.1c0-5.7-4.8-10.3-10.5-10
							c-5.2,0.3-9.3,4.5-9.5,9.7c-0.1,2.9,1.1,5.5,3,7.4c1.3,1.3,2.3,3,2.8,4.8H28.2z"/>
					</g>
				</g>
				<g>
					<g>
						<path fill="#415A6B" d="M26.9,39.9h-5.7c-0.7,0-1.4-0.6-1.4-1.4v-4h8.5v4C28.2,39.3,27.6,39.9,26.9,39.9z"/>
					</g>
				</g>
				<g>
					<g>
						<path fill="#344A5E" d="M28.2,35.6h-8.5c-0.6,0-1-0.5-1-1s0.5-1,1-1h8.5c0.6,0,1,0.5,1,1S28.8,35.6,28.2,35.6z"/>
					</g>
				</g>
				<g>
					<g>
						<path fill="#344A5E" d="M28.2,39h-8.5c-0.6,0-1-0.5-1-1c0-0.6,0.5-1,1-1h8.5c0.6,0,1,0.5,1,1C29.2,38.6,28.8,39,28.2,39z"/>
					</g>
				</g>
			</g>
			<g>
				<g>
					<g>
						<path fill="#FFD15C" d="M24,11.4c-0.5,0-0.8-0.4-0.8-0.8V7.8C23.2,7.4,23.5,7,24,7c0.5,0,0.8,0.4,0.8,0.8v2.7
							C24.8,11,24.5,11.4,24,11.4z"/>
					</g>
				</g>
			</g>
			<g>
				<g>
					<g>
						<path fill="#FFD15C" d="M16,14.7c-0.3,0.3-0.9,0.3-1.2,0l-1.9-1.9c-0.3-0.3-0.3-0.9,0-1.2c0.3-0.3,0.9-0.3,1.2,0l1.9,1.9
							C16.3,13.9,16.3,14.4,16,14.7z"/>
					</g>
				</g>
			</g>
			<g>
				<g>
					<g>
						<path fill="#FFD15C" d="M12.7,22.7c0,0.5-0.4,0.8-0.8,0.8H9.1c-0.5,0-0.8-0.4-0.8-0.8c0-0.5,0.4-0.8,0.8-0.8h2.7
							C12.3,21.9,12.7,22.2,12.7,22.7z"/>
					</g>
				</g>
			</g>
			<g>
				<g>
					<g>
						<path fill="#FFD15C" d="M16,30.7c0.3,0.3,0.3,0.9,0,1.2l-1.9,1.9c-0.3,0.3-0.9,0.3-1.2,0c-0.3-0.3-0.3-0.9,0-1.2l1.9-1.9
							C15.2,30.4,15.7,30.4,16,30.7z"/>
					</g>
				</g>
			</g>
			<g>
				<g>
					<g>
						<path fill="#FFD15C" d="M32,30.7c0.3-0.3,0.9-0.3,1.2,0l1.9,1.9c0.3,0.3,0.3,0.9,0,1.2s-0.9,0.3-1.2,0L32,31.9
							C31.7,31.6,31.7,31,32,30.7z"/>
					</g>
				</g>
			</g>
			<g>
				<g>
					<g>
						<path fill="#FFD15C" d="M35.3,22.7c0-0.5,0.4-0.8,0.8-0.8h2.7c0.5,0,0.8,0.4,0.8,0.8s-0.4,0.8-0.8,0.8h-2.7
							C35.7,23.6,35.3,23.2,35.3,22.7z"/>
					</g>
				</g>
			</g>
			<g>
				<g>
					<g>
						<path fill="#FFD15C" d="M32,14.7c-0.3-0.3-0.3-0.9,0-1.2l1.9-1.9c0.3-0.3,0.9-0.3,1.2,0c0.3,0.3,0.3,0.9,0,1.2l-1.9,1.9
							C32.8,15.1,32.3,15.1,32,14.7z"/>
					</g>
				</g>
			</g>
		</g>
		<g>
			<g>
				<path fill="#415A6B" d="M12.4,9.9l-0.6-2.2C6.4,9.3,3,14.2,3.3,19.6c-0.5-0.8-0.9-1.7-1.2-2.7C0.3,10.6,3.9,4,10.2,2.2L9.5,0
					l8.3,2.9L12.4,9.9z"/>
			</g>
		</g>
		<g>
			<g>
				<path fill="#4EC0AA" d="M9.9,35.6l-2.2,0.6c1.6,5.3,6.6,8.7,11.9,8.5c-0.8,0.5-1.7,0.9-2.7,1.2c-6.3,1.8-12.9-1.7-14.7-8L0,38.5
					l2.9-8.3L9.9,35.6z"/>
			</g>
		</g>
		<g>
			<g>
				<path fill="#F3705A" d="M35.6,38.1l0.6,2.2c5.3-1.6,8.7-6.6,8.5-11.9c0.5,0.8,0.9,1.7,1.2,2.7c1.8,6.3-1.7,12.9-8,14.7l0.6,2.2
					l-8.3-2.9L35.6,38.1z"/>
			</g>
		</g>
		<g>
			<g>
				<path fill="#8AD7F8" d="M38.1,12.4l2.2-0.6C38.7,6.4,33.8,3,28.4,3.3c0.8-0.5,1.7-0.9,2.7-1.2c6.3-1.8,12.9,1.7,14.7,8L48,9.5
					l-2.9,8.3L38.1,12.4z"/>
			</g>
		</g>
	</g>
</g>
</svg>
