<?xml version="1.0" encoding="utf-8"?>
<!-- Generator: Adobe Illustrator 19.0.1, SVG Export Plug-In . SVG Version: 6.00 Build 0)  -->
<svg version="1.1" id="Layer_1" xmlns="http://www.w3.org/2000/svg" xmlns:xlink="http://www.w3.org/1999/xlink" x="0px" y="0px"
	 viewBox="0 0 48 48" style="enable-background:new 0 0 48 48;" xml:space="preserve">
<style type="text/css">
	.st0{fill:#FFD15C;}
	.st1{fill:#415A6B;}
	.st2{fill:#F7B64C;}
	.st3{fill:#CED6E0;}
	.st4{fill:#344A5E;}
	.st5{fill:#F3F3F3;}
	.st6{fill:#F05540;}
	.st7{fill:#F3705A;}
	.st8{fill:#66C6B9;}
	.st9{fill:#55C0EB;}
	.st10{fill:#F5F6FB;}
	.st11{fill:#4ABAA5;}
	.st12{fill:#ADB3BA;}
	.st13{fill:#E8EAE9;}
	.st14{fill:#2E4556;}
	.st15{fill:#8AD7F8;}
	.st16{fill:#FFFFFF;}
	.st17{fill:#E54838;}
	.st18{fill:#3EAF99;}
	.st19{fill:#EFA943;}
	.st20{fill:#4CAEE5;}
	.st21{fill:#293F4F;}
	.st22{fill:#2D4456;}
	.st23{fill:#2E4454;}
	.st24{fill:#2A3F4F;}
	.st25{fill:#2D4151;}
	.st26{fill:#E89E3D;}
	.st27{fill:#2B4151;}
	.st28{fill:#2A4051;}
	.st29{fill:#2C4151;}
	.st30{fill:#EBEAE8;}
	.st31{fill:#3AA590;}
	.st32{fill:#E84534;}
	.st33{fill:none;}
</style>
<g>
	<g>
		<g>
			<g>
				<polygon class="st4" points="7.1,35.8 4.1,48 8.4,48 11.3,35.8 				"/>
			</g>
			<g>
				<polygon class="st4" points="24.4,35.8 20.1,35.8 23.1,48 27.3,48 				"/>
			</g>
		</g>
		<path class="st5" d="M31.4,2v33.1c0,1.1-0.9,2-2,2H2c-1.1,0-2-0.9-2-2V2c0-1.1,0.9-2,2-2h27.4C30.5,0,31.4,0.9,31.4,2z"/>
		<g>
			<g>
				<polygon class="st3" points="27,20.9 25.3,19.7 19.3,28.3 10.5,27.2 6.1,33.9 4.4,32.8 9.6,25 18.3,26.2 23.7,18.6 22.1,17.4 
					26.4,16.6 				"/>
			</g>
			<g>
				<circle class="st7" cx="10.2" cy="26.2" r="2.4"/>
				<circle class="st6" cx="10.2" cy="26.2" r="1.2"/>
			</g>
			<g>
				<circle class="st8" cx="18.7" cy="27.4" r="2.4"/>
				<circle class="st11" cx="18.7" cy="27.4" r="1.2"/>
			</g>
		</g>
		<g>
			<g>
				<rect x="5.6" y="10.5" class="st1" width="3.1" height="4.4"/>
			</g>
			<g>
				<rect x="11.5" y="6.1" class="st8" width="3.1" height="8.8"/>
			</g>
			<g>
				<rect x="17.3" y="8.2" class="st0" width="3.1" height="6.7"/>
			</g>
			<g>
				<rect x="23.2" y="4" class="st7" width="3.1" height="11"/>
			</g>
		</g>
	</g>
	<g>
		<path class="st4" d="M33.6,17.3l0.8-0.7h0.5l-0.4,7.8l-2.3-1.1C32.1,23.2,33,18,33.6,17.3z"/>
		<g>
			<ellipse class="st4" cx="33.5" cy="24.2" rx="1.3" ry="1.9"/>
			<g>
				<g>
					<g>
						<path class="st1" d="M45.5,43.6C45.1,45.8,45,48,45,48H34.7c0,0-2.1-6.5-1.2-11.3c0.9-4.8,1.8-7.5,1.8-7.5l7.8,0.8l2.6,7.9
							C45.7,37.9,45.9,41.4,45.5,43.6z"/>
					</g>
					<g>
						<path class="st4" d="M36.9,15.7l-0.5,0.1c0,0-1.9,0.4-2.2,0.9c-0.3,0.4-1.2,2.1-1.1,3.6c0.1,1.5,0.7,3.9,0.8,6.3
							c0.1,2.4-0.4,6.3-0.6,7.9c-0.2,1.6-0.5,5.3-0.5,5.3s0.1,0.4,0.5-0.5c0.4-0.9,1.5-6.4,1.9-7.6s1.2-6.7,1.2-6.7
							s-0.2-6.4,0.1-7.7C36.9,15.9,36.9,15.7,36.9,15.7z"/>
					</g>
					<g>
						<path class="st13" d="M33.3,25.6c0,0-0.3-0.4-0.4-0.8c0-0.5,0.1-1.2,0.5-1.6c0.4-0.4,0.9-0.4,0.9-0.4l0.9,0.2L33.3,25.6z"/>
					</g>
					<g>
						<path class="st0" d="M42.4,10.3l-0.3,2.6l-4.2,3.3v-3.4c0,0-1.2-0.9-1.1-3.4c0,0-0.1-1.4,0.1-2.4s0.6-1.9,1.4-2.2
							s3.3,0.3,3.8,0.7C42.6,6,43.2,9.3,42.4,10.3z"/>
					</g>
					<g>
						<path class="st1" d="M42.3,9.3l0.2,0.1l0.8-0.6c0,0,0.3-1.5-0.2-2.6c-0.5-1.1-1.8-2.2-2.6-2.3c-0.8-0.2-1.4-0.2-2,0.2
							c-0.6,0.4-1.2,1-1.4,1.7s-0.5,2-0.5,2.6c0.1,0.6,0.1,1,0.1,1h0.1c0,0-0.2-0.9,0-1.5s0.2-0.6,0.3-1.1c0-0.5,0.2-1.1,0.7-1.3
							c0.5-0.2,1.9-0.3,2.6,0c0.7,0.2,1.2,0.6,1.4,0.6c0,0-0.4,0.8-0.1,1.3C42.2,7.8,42.4,8.7,42.3,9.3z"/>
					</g>
					<g>
						
							<ellipse transform="matrix(0.9551 0.2964 -0.2964 0.9551 4.8356 -12.2538)" class="st0" cx="42.8" cy="9.8" rx="0.5" ry="1.2"/>
					</g>
					<path class="st2" d="M37.9,12.8v2.5c2.8-1.1,4-4,4-4C40.3,13.5,37.9,12.8,37.9,12.8z"/>
					<g>
						<polygon class="st3" points="37.9,14.3 38.4,14.6 38.7,14.6 40.8,14.9 37.9,21.7 36.1,25.9 36.3,17.3 						"/>
					</g>
					<g>
						<path class="st7" d="M38.4,15.9c0,0,0.6,1.9,0.5,3.2c-0.1,1.3-2.1,5.3-2.1,5.3l-1-3.2c0,0,0.6-3.8,0.6-3.9s1.1-1.3,1.1-1.3
							l0.8-0.5L38.4,15.9"/>
					</g>
					<g>
						<path class="st7" d="M39.3,14.8c0,0-0.6,0.5-1,1.1c0,0-0.5-0.3-0.9,0c0,0,0.2-1,0.4-1.2c0.2-0.2,0.6,0,0.6,0h0.4L39.3,14.8z"
							/>
					</g>
					<g>
						<path class="st5" d="M42.1,12.7c0,0-0.6,0.5-1.3,0.8c-0.8,0.3-2.1,1.2-2.1,1.2s1.3,1.2,1.3,2c0.1,0.8,0.1,0.8,0.1,0.8l2.7-3.6
							C42.4,13.5,42.3,12.5,42.1,12.7z"/>
					</g>
					<g>
						<path class="st4" d="M43.5,14.5c0,0,0.8,0.5,1.4,0.7c0.6,0.2,1.8-0.1,2.6,1c0,0,0.9,0.7,0.3,3.2c-0.6,2.5-2.1,5.8-2.2,6.6
							C45.4,26.9,47,39.6,47,39.6s-7.2,1.6-9.2,0s-2.3-7.5-2.1-9.5c0.2-1.9,0.3-3.2,0.3-3.2s1.4-5.6,2.1-7.3s3.4-5,3.4-5L43.5,14.5z
							"/>
					</g>
					<g>
						<path class="st0" d="M36.5,28c0,0,2.4,0.1,2.3-1.1c-0.1-1.2-1.6-1.2-1.6-1.2l-1.5,0.9L36.5,28z"/>
					</g>
					<g>
						<path class="st13" d="M37,26.2c0,0-0.2,1.4,0,1.9l-3,0.2l0.3-2.3L37,26.2z"/>
					</g>
					<g>
						<path class="st23" d="M36.2,29c0,0-0.2,0-0.5,0c-0.5,0-1.2-0.1-1.8-0.1c-0.6,0-1.1,0-1.3,0c-0.4,0-2.4-0.3-2.6-0.5
							c-0.2-0.2-0.7-1.2-0.7-2.2c0-1,0.8-2.2,0.8-2.2s0.8-1.3,1-1.6c0.2-0.3,0.5-0.5,0.7-0.8c0.2-0.3,0.2-0.7,0.2-0.7
							s-0.1-0.4,0.2-1c0.3-0.6,0.5-1.1,0.5-1.1s0.2-1.1,0.8-1.7c0.5-0.5,0.8-0.5,0.8-0.5c-0.1,0-0.1,0.1-0.2,0.1
							c-0.3,0.4-1.2,2.1-1.1,3.6c0,0.7,0.2,1.6,0.4,2.7v0c0,0-0.7,1.5-0.8,1.7c-0.1,0.2-0.1,0.5,0.3,0.6c0.1,0,0.4,0.1,0.8,0.2
							c0.8,0.1,1.9,0.3,2.4,0.3c0.2,0,0.2,0,0.2,0C35.8,26.9,36.2,29,36.2,29z"/>
					</g>
					<g>
						<path class="st1" d="M36.3,25.9c0.7-1.8,2-5.4,2.6-6.6c0.9-1.7,2.5-3,2.5-3l-0.4-0.5l0.9-0.1c0,0,1.4-1.1,1.5-1.2
							c0,0-0.2-0.3-0.4-0.4c-0.2-0.2-0.4-0.5-0.6-0.6c0,0-2,1.3-2.9,2.7c-0.9,1.3-1.9,3.2-2.5,5.3c-0.4,1.3-0.8,3.3-1,4.5H36.3z"/>
					</g>
					<g>
						<path class="st5" d="M37.9,13.6c0,0,0.2,0.7,0.5,1.1c0,0-0.6,0-0.8,0.6c-0.2,0.6-0.2,0.6-0.2,0.6s0-0.7,0.2-1
							C37.7,14.6,37.6,13.7,37.9,13.6z"/>
					</g>
					<g>
						<path class="st1" d="M36.1,26c0.2-1.2,0.6-3,0.6-3.5c0-0.8,0-3.9,0.2-4.7c0.1-0.8,0.8-3.1,0.8-3.1s-0.4,0.7-1.2,1.1l0.2,0.2
							c0,0-0.7,0.2-1,0.9c-0.3,0.7-0.3,3.5-0.3,4.3c0,0.6,0.3,3.3,0.4,4.8H36.1z"/>
					</g>
					<g>
						<path class="st1" d="M47.8,19.3c-0.3,1.3-0.9,2.9-1.4,4.1l0,0c-1.4,1.7-4.2,3.3-4.7,3.5c-0.5,0.2-0.7,0.3-1,0.4
							c-0.3,0.1-1,0-1.3,0.1c-0.4,0.1-0.6,0-1-0.1c-0.2,0-1.3-0.3-2.5-0.6c-1.4-0.3-2.9-0.7-2.9-0.7c0.4-1.2,2-3.3,2-3.3
							s1.1,0.1,2,0.1c0.4,0,0.8,0,0.9,0c0.5-0.1,1.7-0.2,1.9-0.2c0.1-0.1,0.7,0.2,1,0.3c0.3,0.1,0.4,0.1,0.5-0.4
							c0.1-0.5,0.4-0.8,0.6-1.3c0.2-0.5,0.4-2.1,1.6-4.1c0.6-0.9,1.4-1.4,2.2-1.7c0.6-0.2,1.4-0.1,1.8,0.5c0,0,0,0,0,0
							C47.5,16.1,48.4,16.8,47.8,19.3z"/>
					</g>
				</g>
				<g>
					<path class="st4" d="M39.7,48h-0.8c-0.2-1-0.6-2.2-0.7-3c-0.1-1.2,0-3.5,0.2-2.7c0.3,0.8,0.7,2.8,0.6,3
						c-0.1,0.2,0.3,0.4,0.3,1.5C39.4,47.2,39.6,47.6,39.7,48z"/>
				</g>
			</g>
		</g>
	</g>
</g>
</svg>
