<?xml version="1.0" encoding="utf-8"?>
<!-- Generator: Adobe Illustrator 18.0.0, SVG Export Plug-In . SVG Version: 6.00 Build 0)  -->
<!DOCTYPE svg PUBLIC "-//W3C//DTD SVG 1.1//EN" "http://www.w3.org/Graphics/SVG/1.1/DTD/svg11.dtd">
<svg version="1.1" id="Layer_1" xmlns="http://www.w3.org/2000/svg" xmlns:xlink="http://www.w3.org/1999/xlink" x="0px" y="0px"
	 viewBox="0 0 48 48" enable-background="new 0 0 48 48" xml:space="preserve">
<g>
	<g>
		<path fill="#F3F3F3" d="M45,0H3C1.3,0,0,1.3,0,3v29.9c0,1.7,1.3,3,3,3h42c1.7,0,3-1.3,3-3V3C48,1.3,46.7,0,45,0z"/>
		<g>
			<g>
				<rect x="6.4" y="24.5" fill="#415A6B" width="6.2" height="6.1"/>
			</g>
			<g>
				<rect x="16" y="12.7" fill="#8AD7F8" width="6.2" height="17.9"/>
			</g>
			<g>
				<rect x="25.7" y="18.6" fill="#FFD15C" width="6.2" height="11.9"/>
			</g>
			<g>
				<rect x="35.4" y="5.3" fill="#F3705A" width="6.2" height="25.2"/>
			</g>
		</g>
		<g>
			<g>
				<g>
					<polygon fill="#F7B64C" points="20.4,33.7 20.4,39.8 24,42.6 27.6,39.8 27.6,33.7 					"/>
				</g>
			</g>
			<g>
				<path fill="#415A6B" d="M29.5,33.8c-2.8,4.9-8.3,4.9-11.1,0c-1.7-3-4-12.6,5.5-12.6C33.5,21.2,31.2,30.8,29.5,33.8z"/>
			</g>
			<g>
				<g>
					<ellipse fill="#4ABAA5" cx="24" cy="38.5" rx="5.5" ry="2.1"/>
				</g>
			</g>
			<g>
				<path fill="#66C6B9" d="M38.4,48l-1.5-5.9c-0.3-1.3-1.4-2.3-2.7-2.6c-2.8-0.6-7.7-1.6-10.1-1.6c-2.4,0-7.3,1-10.1,1.6
					c-1.3,0.3-2.4,1.3-2.7,2.6L9.6,48H38.4z"/>
			</g>
		</g>
	</g>
</g>
</svg>
