<?xml version="1.0" encoding="utf-8"?>
<!-- Generator: Adobe Illustrator 18.0.0, SVG Export Plug-In . SVG Version: 6.00 Build 0)  -->
<!DOCTYPE svg PUBLIC "-//W3C//DTD SVG 1.1//EN" "http://www.w3.org/Graphics/SVG/1.1/DTD/svg11.dtd">
<svg version="1.1" id="Layer_1" xmlns="http://www.w3.org/2000/svg" xmlns:xlink="http://www.w3.org/1999/xlink" x="0px" y="0px"
	 viewBox="0 0 48 48" enable-background="new 0 0 48 48" xml:space="preserve">
<g>
	<g>
		<g>
			<path fill="#F3F3F3" d="M41.3,0H6.7c-1.7,0-3,1.3-3,3v42c0,1.7,1.3,3,3,3h34.6c1.7,0,3-1.3,3-3V3C44.3,1.3,43,0,41.3,0z"/>
			<rect x="23.7" y="5" fill="#CED6E0" width="15.5" height="2.7"/>
			<rect x="23.7" y="12.4" fill="#CED6E0" width="15.5" height="2.7"/>
			<rect x="26.8" y="19.7" fill="#CED6E0" width="12.4" height="2.7"/>
			<rect x="26.8" y="27" fill="#CED6E0" width="12.4" height="2.7"/>
			<rect x="26.8" y="34.3" fill="#CED6E0" width="12.4" height="2.7"/>
			<rect x="26.8" y="41.6" fill="#CED6E0" width="12.4" height="2.7"/>
			<g>
				<g>
					<path fill="#F3705A" d="M18.9,27.4c0,0.9-0.3,1.7-0.8,2.3h-5.8c-0.5-0.6-0.8-1.4-0.8-2.3c0-1.8,1.3-3.3,3-3.7v-1.6h-1.3v-1.4
						h1.3v-1.5h1.4v1.5h1.3v1.4h-1.3v1.6C17.6,24,18.9,25.5,18.9,27.4z"/>
				</g>
				<path fill="#F3705A" d="M22.7,44c-0.1-1.2-1-2.1-2.2-2.1H9.9c-1.2,0-2.2,1-2.2,2.1H22.7z"/>
				<path fill="#F3705A" d="M20.4,40H10c1.9-2.2,2-5.4,2.2-8.8h6.1C18.3,34.6,18.5,37.8,20.4,40z"/>
				<g>
					<path fill="#F05540" d="M11,30.3L11,30.3c0,0.5,0.4,0.9,0.9,0.9h6.4c0.5,0,0.9-0.4,0.9-0.9v0c0-0.5-0.4-0.9-0.9-0.9H12
						C11.5,29.3,11,29.8,11,30.3z"/>
					<path fill="#F05540" d="M20.4,40H10C9.4,40,9,40.4,9,40.9c0,0.5,0.4,0.9,0.9,0.9h10.4c0.5,0,0.9-0.4,0.9-0.9
						C21.3,40.4,20.9,40,20.4,40z"/>
				</g>
			</g>
		</g>
		<rect x="8.8" y="5" fill="#CED6E0" width="11.8" height="10"/>
	</g>
</g>
</svg>
