<?xml version="1.0" encoding="utf-8"?>
<!-- Generator: Adobe Illustrator 18.0.0, SVG Export Plug-In . SVG Version: 6.00 Build 0)  -->
<!DOCTYPE svg PUBLIC "-//W3C//DTD SVG 1.1//EN" "http://www.w3.org/Graphics/SVG/1.1/DTD/svg11.dtd">
<svg version="1.1" id="Layer_1" xmlns="http://www.w3.org/2000/svg" xmlns:xlink="http://www.w3.org/1999/xlink" x="0px" y="0px"
	 viewBox="0 0 48 48" enable-background="new 0 0 48 48" xml:space="preserve">
<g>
	<g>
		<rect x="2.4" y="41" fill="#415A6B" width="32.7" height="7"/>
	</g>
	<g>
		<rect x="4.7" y="40.9" fill="#344A5E" width="1.8" height="7"/>
		<rect x="11.3" y="40.9" fill="#344A5E" width="1.8" height="7"/>
		<rect x="17.9" y="40.9" fill="#344A5E" width="1.8" height="7"/>
		<rect x="24.5" y="40.9" fill="#344A5E" width="1.8" height="7"/>
		<rect x="31.1" y="40.9" fill="#344A5E" width="1.8" height="7"/>
	</g>
	<path fill="#F1543F" d="M44.9,21.9L44.9,21.9c-2.3-2.3-6.1-2.3-8.5,0L25.8,32.5l8.5,8.5l10.6-10.6C47.2,28.1,47.2,24.3,44.9,21.9z"
		/>
	<path fill="#FF7058" d="M36.2,41H1.4V17.4C1.4,7.8,9.2,0,18.8,0h0c9.6,0,17.4,7.8,17.4,17.4V41z"/>
	<g>
		<path fill="#F1543F" d="M30.1,4.2c-0.4,0.4-0.9,0.7-1.5,0.7c-1.1,0-2-0.9-2-2c0-0.3,0.1-0.7,0.2-0.9C28,2.6,29.1,3.3,30.1,4.2z"/>
		<circle fill="#F1543F" cx="18.8" cy="2.9" r="2"/>
		<path fill="#F1543F" d="M11,2.9c0,1.1-0.9,2-2,2c-0.6,0-1.1-0.3-1.5-0.7c1-0.8,2.1-1.6,3.2-2.2C10.9,2.3,11,2.6,11,2.9z"/>
		<path fill="#F1543F" d="M35,11.1c-0.4,0.5-0.9,0.8-1.5,0.8c-1.1,0-2-0.9-2-2c0-1.1,0.8-1.9,1.9-2C34.1,9,34.6,10,35,11.1z"/>
		<circle fill="#F1543F" cx="23.7" cy="10" r="2"/>
		<circle fill="#F1543F" cx="13.9" cy="10" r="2"/>
		<path fill="#F1543F" d="M6.1,10c0,1.1-0.9,2-2,2c-0.6,0-1.2-0.3-1.5-0.8C3,10,3.5,9,4.2,8C5.2,8,6.1,8.9,6.1,10z"/>
		<circle fill="#F1543F" cx="28.6" cy="17" r="2"/>
		<circle fill="#F1543F" cx="18.8" cy="17" r="2"/>
		<circle fill="#F1543F" cx="9" cy="17" r="2"/>
		<circle fill="#F1543F" cx="33.5" cy="24" r="2"/>
		<circle fill="#F1543F" cx="23.7" cy="24" r="2"/>
		<circle fill="#F1543F" cx="13.9" cy="24" r="2"/>
		<circle fill="#F1543F" cx="4.1" cy="24" r="2"/>
		<circle fill="#F1543F" cx="28.6" cy="31.1" r="2"/>
		<circle fill="#F1543F" cx="18.8" cy="31.1" r="2"/>
		<circle fill="#F1543F" cx="9" cy="31.1" r="2"/>
		<circle fill="#F1543F" cx="33.5" cy="38.1" r="2"/>
		<circle fill="#F1543F" cx="23.7" cy="38.1" r="2"/>
		<circle fill="#F1543F" cx="13.9" cy="38.1" r="2"/>
		<circle fill="#F1543F" cx="4.1" cy="38.1" r="2"/>
	</g>
</g>
</svg>
