<?xml version="1.0" encoding="utf-8"?>
<!-- Generator: Adobe Illustrator 19.0.1, SVG Export Plug-In . SVG Version: 6.00 Build 0)  -->
<svg version="1.1" id="Layer_1" xmlns="http://www.w3.org/2000/svg" xmlns:xlink="http://www.w3.org/1999/xlink" x="0px" y="0px"
	 viewBox="0 0 48 48" style="enable-background:new 0 0 48 48;" xml:space="preserve">
<style type="text/css">
	.st0{fill:#FFD15C;}
	.st1{fill:#415A6B;}
	.st2{fill:#F7B64C;}
	.st3{fill:#CED6E0;}
	.st4{fill:#344A5E;}
	.st5{fill:#F3F3F3;}
	.st6{fill:#F05540;}
	.st7{fill:#F3705A;}
	.st8{fill:#66C6B9;}
	.st9{fill:#55C0EB;}
	.st10{fill:#F5F6FB;}
	.st11{fill:#4ABAA5;}
	.st12{fill:#ADB3BA;}
	.st13{fill:#E8EAE9;}
	.st14{fill:#2E4556;}
	.st15{fill:#8AD7F8;}
	.st16{fill:#FFFFFF;}
	.st17{fill:#E54838;}
	.st18{fill:#3EAF99;}
	.st19{fill:#EFA943;}
	.st20{fill:#4CAEE5;}
	.st21{fill:#293F4F;}
	.st22{fill:#2D4456;}
	.st23{fill:#2E4454;}
	.st24{fill:#2A3F4F;}
	.st25{fill:#2D4151;}
	.st26{fill:#E89E3D;}
	.st27{fill:#2B4151;}
	.st28{fill:#2A4051;}
	.st29{fill:#2C4151;}
	.st30{fill:#EBEAE8;}
	.st31{fill:#3AA590;}
	.st32{fill:#E84534;}
	.st33{fill:none;}
</style>
<g>
	<g>
		<g>
			<g>
				<g>
					<g>
						<g>
							<path class="st0" d="M43.3,34.2c-0.6,0-3.8,1.2-3.8,1.2c-0.5-3.2-6.6-2.3-7.3-2.3c-0.8,0-1.6-0.3-3.4-1.1
								c-1.9-0.8-4.1-1.8-4.1-1.8c-4.5-1.2-9.2,0.6-10.3,1.1c-0.7,0.3-3.8,1.2-6.1,1.9v9.9c2.2-0.9,5.3-2.1,6.2-2.3
								c1.4-0.3,4.9,0.2,6.8,0.8c1.8,0.5,6.2,2.3,8.2,2.5c1.9,0.2,3-0.6,4.1-1.5c1.1-0.9,4.2-2,4.9-2.4c0.7-0.4,1.7-1.2,2.5-1.6
								c0.8-0.3,3.5-1.5,3.5-1.5l3.6-1C47.1,33.4,43.9,34.2,43.3,34.2z"/>
						</g>
						<g>
							<path class="st2" d="M27.2,38.7c0,0,0,0,0.1-0.1c0,0,0.1-0.1,0.1-0.2c0-0.1,0.1-0.1,0.2-0.2c0.1-0.1,0.3-0.3,0.6-0.4
								c0,0,0.1,0,0.1,0c0,0,0.1,0,0.1,0c0.1,0,0.1-0.1,0.2-0.1c0.1-0.1,0.3-0.1,0.5-0.1c0.2,0,0.3-0.1,0.5-0.1c0,0,0.1,0,0.1,0
								c0,0,0.1,0,0.1,0c0.1,0,0.2,0,0.3,0c0.4,0,0.8,0,1.2,0.1c0.4,0.1,0.8,0.1,1.2,0.2c0.1,0,0.2,0,0.3,0c0.1,0,0.2,0,0.3,0
								c0.1,0,0.1,0,0.2,0l0.2,0c0.1,0,0.2,0,0.3,0c0.4,0,0.8,0,1.2-0.1c0.4-0.1,0.8-0.1,1.2-0.2c0.2-0.1,0.4-0.1,0.6-0.2
								c0.1,0,0.2-0.1,0.3-0.1c0.1,0,0.2-0.1,0.3-0.1c0,0,0.1,0,0.1,0c0,0,0.1,0,0.1,0c0.1,0,0.2-0.1,0.2-0.1
								c0.2-0.1,0.3-0.1,0.5-0.2c0.1-0.1,0.3-0.1,0.4-0.2c0.1-0.1,0.2-0.1,0.4-0.2c0.2-0.1,0.4-0.3,0.5-0.4c0.1-0.1,0.2-0.3,0.2-0.4
								c0,0,0-0.1,0-0.1c0,0,0,0,0,0s0,0,0,0c0,0,0,0.1,0,0.1c0,0.1-0.1,0.2-0.2,0.4c-0.1,0.2-0.3,0.3-0.5,0.5
								c-0.1,0.1-0.2,0.2-0.3,0.2c-0.1,0.1-0.3,0.2-0.4,0.2c-0.1,0.1-0.3,0.2-0.4,0.2c-0.1,0-0.2,0.1-0.2,0.1c0,0-0.1,0-0.1,0.1
								c0,0-0.1,0-0.1,0.1c-0.1,0-0.2,0.1-0.3,0.1c-0.1,0-0.2,0.1-0.3,0.1c0,0-0.1,0-0.1,0.1c0,0-0.1,0-0.1,0
								c-0.1,0-0.2,0.1-0.3,0.1c-0.2,0.1-0.4,0.1-0.6,0.2c-0.1,0-0.2,0-0.3,0.1c-0.1,0-0.2,0-0.3,0.1c-0.4,0.1-0.9,0.1-1.3,0.1
								c-0.1,0-0.2,0-0.3,0l-0.2,0c-0.1,0-0.1,0-0.2,0c-0.1,0-0.2,0-0.3,0c-0.1,0-0.2,0-0.3,0c-0.2,0-0.4-0.1-0.6-0.1
								c-0.2,0-0.4-0.1-0.6-0.1c-0.4-0.1-0.8-0.1-1.1-0.2c-0.1,0-0.2,0-0.3,0c0,0-0.1,0-0.1,0c0,0-0.1,0-0.1,0c-0.2,0-0.3,0-0.5,0
								c-0.3,0-0.6,0.1-0.8,0.2c-0.2,0.1-0.4,0.2-0.6,0.3c-0.1,0.1-0.1,0.1-0.2,0.2c-0.1,0-0.1,0.1-0.1,0.1
								C27.2,38.6,27.2,38.7,27.2,38.7z"/>
						</g>
						<g>
							<path class="st5" d="M37,33.9c0,0-0.4-0.1-0.4,0.4s0.2,1.7,0,2c-0.2,0.3,0.3,0.3,0.7,0.3c0.4,0,1.7-0.4,1.7-0.4
								s1.4-0.7,0-2.1c-0.2-0.2-0.4-0.3-0.6-0.3L37,33.9z"/>
						</g>
					</g>
					<g>
						
							<rect x="5.1" y="35.8" transform="matrix(0.1167 0.9932 -0.9932 0.1167 48.7933 21.5769)" class="st5" width="14.4" height="4.8"/>
					</g>
					<g>
						
							<rect x="-1.8" y="33.1" transform="matrix(0.1167 0.9932 -0.9932 0.1167 44.5284 27.6791)" class="st1" width="17" height="11.5"/>
					</g>
					<g>
						<circle class="st4" cx="9.1" cy="43.1" r="2"/>
					</g>
				</g>
			</g>
		</g>
		<g>
			<circle class="st9" cx="32.9" cy="15.1" r="15.1"/>
		</g>
		<g>
			<path class="st5" d="M18.6,11.7c0.1,0,0.1-0.1,0.2-0.1c0,0.1,0.1,0.1,0.1,0.2c0,0,0,0.1,0,0.1c0,0,0,0,0,0.1c0,0,0,0.1,0,0.1
				c0.1,0,0,0.1,0,0.1c0,0,0,0.1,0,0.1c0,0,0,0,0,0c0,0.1,0,0.1,0.1,0.2c0,0,0,0.1,0,0.1c0,0.1,0.1,0.1,0.1,0.1
				c0-0.1,0.1-0.1,0.1-0.2c0-0.2,0-0.4,0-0.6c0,0,0-0.1,0-0.1c0-0.1,0-0.2,0-0.3c0-0.1,0.1-0.2,0.1-0.2c0-0.1,0.1-0.1,0.2-0.1
				c0.1,0,0.1-0.1,0.2-0.1c0,0,0.1-0.1,0.1-0.1c0-0.1,0.1-0.1,0.2-0.1c0,0,0,0,0.1,0c0.1-0.1,0.2-0.1,0.3-0.2c0,0,0-0.1,0-0.1
				c0,0,0.1,0,0.1,0c0.1-0.1-0.1-0.1-0.1-0.2c0.1,0,0.1,0,0.2,0c0,0,0-0.1,0-0.1c0,0,0-0.1,0-0.1c0.1-0.1,0-0.2,0-0.3
				c0.1,0,0.1,0,0.2,0c0.1,0,0.2,0,0.2-0.1c0,0,0-0.1,0-0.2c0,0,0.1,0,0.1,0.1c0,0,0.1-0.1,0.1-0.1c0.1-0.1,0-0.1,0.1-0.2
				c0,0,0.1,0,0.1,0c0,0,0-0.1,0-0.1c0.1,0,0.3,0,0.4-0.1c0.1,0,0.1-0.1,0.1-0.1c0-0.1,0-0.2,0.1-0.3c0.1,0,0.1-0.1,0.2-0.1
				c0,0,0.1,0,0.1-0.1c0.1-0.1,0.1-0.1,0.2-0.1c0,0,0.1,0,0.1,0c0.1-0.1,0.2-0.1,0.3-0.1c0.1,0,0.2-0.1,0.2-0.1c0,0,0.1,0.1,0,0.2
				c-0.1,0-0.1,0-0.2,0c-0.1,0-0.1,0.1-0.2,0.1c0,0-0.1,0.1-0.1,0.2c0.1,0,0.2,0,0.2-0.1c0.1-0.1,0.2-0.1,0.3-0.1
				c0.1,0,0.2-0.1,0.3-0.2c0,0-0.1,0-0.1-0.1c-0.1,0.2-0.1,0-0.2,0C23,8.2,23,8.1,23,8c-0.1-0.1,0.1-0.2,0-0.2c0,0-0.1,0-0.1,0
				c0,0,0,0,0,0c0.1,0,0.1,0,0.2,0c0,0,0.1,0,0.1-0.1c0,0,0.1-0.1,0-0.2c-0.1,0-0.2,0-0.2,0c0,0-0.1,0-0.1,0c-0.1,0-0.1,0.1-0.2,0.1
				c0,0-0.1,0-0.1,0.1c0,0-0.1,0-0.1,0c0-0.1,0.1-0.1,0.2-0.2c0.1-0.1,0.2-0.1,0.2-0.2c0-0.1,0.1-0.1,0.2-0.1c0.3,0,0.6,0,0.9,0
				c0,0,0.1,0,0.1,0c0.1,0,0.1-0.1,0.2-0.1c0,0,0.1,0,0.1,0c0.1,0,0.2,0,0.3,0c0,0,0,0,0,0l0,0c0,0,0.1-0.1,0.2-0.1
				c0-0.1,0-0.2,0.1-0.3c-0.1,0-0.1,0-0.1,0c0-0.1,0-0.1-0.1-0.1c0,0,0,0,0-0.1c-0.1,0-0.1-0.1-0.2-0.1c0,0,0,0,0,0
				c-0.1-0.1-0.1-0.2-0.2-0.3c0,0,0,0,0,0c0,0,0.1,0,0.1,0c0-0.1,0-0.2,0-0.2c0,0,0-0.1,0-0.1c0,0,0-0.1,0-0.1c0,0,0-0.1,0-0.1
				c0,0,0-0.1,0-0.1c-0.2,0.1-0.3,0.2-0.4,0.4c0,0,0,0-0.1-0.1c-0.1,0-0.1,0.1-0.1,0.1c0,0-0.1,0-0.1,0c-0.1-0.1-0.1-0.1-0.1-0.2
				c0-0.1,0.1-0.2,0.1-0.3c0,0-0.1,0-0.1,0c0-0.1,0-0.1,0-0.1c-0.1-0.1-0.3-0.1-0.4-0.1c0,0-0.1,0-0.1,0c0,0-0.1,0-0.1,0
				c-0.1-0.1-0.1-0.1-0.2,0c0,0,0,0-0.1,0c0,0.1,0,0.1-0.1,0.2c-0.1,0.1-0.1,0.1-0.1,0.2c0,0,0,0,0,0c-0.1,0.1-0.2,0.1-0.3,0.2
				c0,0,0,0.1,0.1,0.1c0.1,0.1,0.1,0.1,0,0.2c0,0,0,0.1,0,0.1C22.2,5.9,22.1,6,22,6c-0.1,0.1-0.2,0.1-0.3,0.2c0,0,0,0,0,0
				c-0.1,0-0.2,0.1-0.3,0.1c0,0.1,0,0.1,0,0.2c0,0.1,0,0.1,0,0.2c0,0,0,0.1,0,0.1c-0.1,0-0.2,0.1-0.2,0.2C21.2,7,21.1,7,21,7
				c0-0.1-0.1-0.2-0.2-0.3c0,0,0,0,0-0.1c0,0,0,0,0,0c0-0.1,0.1-0.2,0.1-0.3c0,0,0,0,0.1,0c0-0.1-0.1-0.1-0.1-0.2
				c-0.1,0-0.1,0-0.2,0c0,0,0,0,0,0c-1.2,1.6-2,3.4-2.5,5.4C18.4,11.5,18.5,11.6,18.6,11.7z"/>
			<path class="st5" d="M23.7,26.3C23.6,26.3,23.6,26.2,23.7,26.3c-0.1-0.1-0.2-0.2-0.1-0.3c0,0,0-0.1,0-0.1c-0.1,0-0.1,0-0.2-0.1
				c0-0.1-0.1-0.1-0.1-0.2c0,0,0.1,0,0.1,0c0,0,0,0,0.1,0c0.1,0.1,0.2,0.1,0.4,0.1c0.1,0,0.2-0.1,0.2-0.1c0,0,0.1-0.1,0.1-0.2
				c0,0,0-0.1,0-0.1c0-0.1,0.1-0.2,0.1-0.3c0,0,0,0,0,0c0-0.1,0.1-0.2,0.1-0.3c0,0,0.1,0,0.1,0c0-0.1,0.1-0.2,0.1-0.3
				c0,0,0.1,0,0.1,0c0-0.1,0-0.2,0.1-0.2c0,0,0-0.1,0-0.1c-0.1-0.1,0-0.2,0-0.3c0-0.1,0-0.3,0.1-0.3c0,0,0.1-0.1,0.1-0.1
				c0-0.1,0.1-0.1,0.2-0.1c0.1,0,0.1,0,0.2-0.1c0,0,0.1-0.1,0.1-0.1c0.1,0,0.2,0,0.3-0.1c0,0,0.1,0,0.1-0.1c0.1-0.1,0.1-0.1,0.2-0.1
				c0,0-0.1-0.1,0-0.1c0-0.1,0.1-0.2,0.1-0.3c0,0,0-0.1,0-0.1c0.1-0.1,0.1-0.1,0-0.2c0,0,0,0,0,0c0-0.1,0.1-0.2,0.1-0.3
				c0-0.1,0-0.1,0-0.2c0,0,0-0.1,0-0.2c0,0,0,0,0-0.1c0-0.2,0-0.3,0-0.5c0.1,0,0.1,0,0.1,0c0.1-0.2,0.2-0.3,0.2-0.5
				c0,0,0-0.1,0.1-0.1c0.1,0,0.1-0.1,0.1-0.2c0,0,0-0.1,0-0.1c0.1,0,0.1-0.1,0.1-0.2c0,0,0-0.1,0-0.1c0,0,0-0.1,0-0.1
				c0-0.1,0-0.2-0.1-0.3c0-0.1-0.1-0.2-0.3-0.2c-0.1,0-0.1,0-0.2-0.1c-0.1-0.1-0.1-0.2-0.2-0.2C26,19,26,19,25.9,18.9
				c0,0-0.1-0.1-0.1-0.1c-0.1,0-0.2,0-0.3-0.1c0,0,0,0,0,0c-0.1,0-0.1,0-0.2,0c0,0-0.1,0-0.1,0c0,0.1-0.1,0-0.2,0c0,0,0,0,0,0
				c0,0,0,0,0.1,0c0-0.1-0.1-0.2-0.2-0.2c-0.1,0-0.1-0.1-0.2-0.1c-0.1,0-0.2,0-0.3,0c0,0.1,0,0.1-0.1,0.1c0-0.1,0-0.1,0-0.2h-0.2
				c0,0-0.1,0,0-0.1c0,0-0.1,0-0.1,0c0-0.1,0.1,0,0.1-0.1c0,0,0-0.1,0-0.1c0-0.1,0.1-0.1,0.1-0.3c-0.1,0-0.1,0-0.1-0.1
				c0-0.1,0-0.2-0.1-0.4c0,0-0.1,0-0.1,0c0-0.1-0.1-0.1-0.1-0.2c0,0,0-0.1-0.1-0.1c-0.1-0.1-0.3-0.1-0.4-0.1c-0.1,0-0.2,0-0.2,0
				c0,0-0.1,0-0.1,0c-0.1-0.1-0.2-0.2-0.2-0.3c0-0.1-0.1-0.1-0.1-0.2c0-0.1-0.1-0.1-0.1-0.1c-0.1,0-0.1,0-0.2,0c0,0,0-0.1,0-0.1
				c-0.1-0.1-0.2-0.1-0.3-0.1c0-0.2-0.1-0.2-0.3-0.1c0,0,0,0-0.1,0c-0.1,0-0.3,0-0.3-0.1c-0.1,0.1-0.2,0-0.3,0c0,0,0-0.1,0-0.1
				c0-0.1-0.2-0.3-0.3-0.2c-0.1,0.1-0.2,0.1-0.2,0.1c0,0,0,0.1,0,0.1c0.1,0.1,0,0.2,0,0.2c-0.1,0-0.1,0-0.1-0.1c0,0,0-0.1,0-0.1
				c0.1-0.1,0-0.2,0-0.3c0.1,0,0.1-0.1,0.2-0.1c0,0,0,0,0-0.1h-0.1c0,0,0,0.1,0,0.1c-0.1,0-0.1,0.1-0.2,0.1c-0.1,0-0.2,0.1-0.3,0.1
				c0,0-0.1,0-0.1,0.1c0,0.1-0.1,0.1-0.1,0.2c0,0,0,0,0,0.1c-0.1,0.1-0.1,0.1-0.2,0.2c0,0,0,0.1,0,0.1c0,0,0,0,0,0c0,0,0-0.1,0-0.1
				c0,0-0.1,0-0.1,0c0-0.1,0-0.1-0.1-0.2c-0.1,0-0.1,0-0.2-0.1c0,0,0,0,0,0c-0.1,0.1-0.2,0.1-0.3,0.1c-0.1,0-0.1,0-0.1-0.1
				c0,0,0-0.1-0.1-0.1c0,0,0,0,0,0c0-0.1-0.1-0.1-0.1-0.2c0,0,0-0.1,0-0.1c0-0.2,0.1-0.3,0.1-0.5c0,0,0,0,0,0
				c0.1-0.1,0.1-0.2,0.1-0.3c0,0-0.1,0-0.1,0c0,0,0-0.1,0-0.1h-0.4c0,0.1,0,0.2,0,0.3c0,0.2,0,0.4,0,0.7c0,0,0,0,0,0
				c0,0,0,0.1,0,0.1c0,0,0,0,0,0c0,0.1,0,0.1,0,0.2c0,0,0.1,0,0.1-0.1c0.1,0.1,0.2,0.2,0.3,0.4h0.2c0,0,0,0.1,0,0.1c0,0,0.1,0,0.1,0
				c0,0,0,0.1,0,0.1c0,0,0.1-0.1,0.1-0.1c0.1-0.1,0-0.1,0-0.2c0,0,0.1,0,0.1-0.1c0-0.1,0.1-0.1,0.2,0c0,0,0.1,0.1,0.1,0.1
				c-0.1,0.1-0.1,0.2,0,0.2c0.1,0.1,0.1,0.2,0.1,0.3c0,0.1,0,0.2,0,0.3c0,0,0,0.1,0,0.1c0.1,0.1,0.1,0.1,0,0.1
				c-0.1,0.1-0.1,0.2-0.1,0.2c0,0-0.1,0-0.1,0c0,0.1,0,0.1,0,0.1c0,0.1,0,0.1-0.1,0.1c-0.1,0-0.1,0.1-0.2,0.2c0,0,0,0.1,0,0.1
				c-0.1,0.1-0.1,0.3-0.1,0.5c0.1,0,0.1,0,0.2,0c0,0.2-0.1,0.3-0.3,0.4c0,0,0,0.1,0,0.1c0,0.1,0.1,0.2,0.1,0.4c0,0,0,0.1,0.1,0.1
				c0.1,0,0.1,0.1,0.1,0.1c0,0.1,0,0.1,0.1,0.2c0.1,0.2,0.2,0.3,0.3,0.6c0,0,0,0,0,0c0.1,0,0.1,0.1,0.1,0.2c0.1,0.1,0.1,0.2,0.2,0.3
				c0,0,0.1,0.1,0,0.1c0,0.1,0,0.2,0.1,0.2c0.1,0.2,0.3,0.3,0.5,0.4c0.1,0.1,0.3,0.1,0.4,0.3c0,0.1,0.1,0.1,0.2,0.2c0,0,0,0.1,0,0.2
				c0.1,0.1,0,0.2,0,0.3c0,0,0,0.1,0,0.1c0.1,0.1,0.1,0.3,0,0.4c0,0,0,0.1,0,0.1c0.1,0.1,0,0.2,0,0.3c0,0,0,0.1,0,0.1
				c-0.1,0.1-0.1,0.1,0,0.2c0,0,0,0.1,0,0.1c0.7,1,1.5,1.8,2.5,2.6c0.1,0,0.2,0,0.2-0.1C23.6,26.5,23.6,26.4,23.7,26.3z"/>
			<path class="st5" d="M25.6,2.1c-0.1,0-0.1,0-0.1-0.1c-0.1,0.1,0.1,0.1,0,0.2c0.1,0,0.1,0,0.2,0c0,0,0,0,0.1,0c0,0,0,0,0.1,0
				c0,0,0.1,0,0.1,0c0,0,0,0,0,0c0,0,0.1,0,0.1,0c0.2,0,0.3,0,0.5,0.1c0.1,0.1,0,0.2,0.2,0.2c0,0.1-0.1,0.1,0,0.2
				c0.1,0.1,0,0.2-0.1,0.3c-0.1,0-0.1,0.1-0.1,0.2c0.1,0,0.1,0,0.2-0.1c0-0.1,0.1-0.1,0.1,0c0,0,0,0.1,0.1,0.1c0,0,0.1,0,0.2,0
				c-0.1,0.1-0.2,0-0.3,0.1c0,0,0,0.1,0,0.1c0.2,0,0.2,0,0.3,0c0,0-0.1,0-0.1,0c0,0,0,0.1,0,0.1c-0.1,0.1-0.1,0.1-0.2,0.2
				c0,0,0-0.1,0-0.1c0,0-0.1,0-0.1,0c0,0,0,0,0,0c0,0,0,0,0,0.1c-0.1,0-0.2,0.1-0.3,0.1c0,0.1-0.1,0.1-0.1,0.2c0,0,0,0.1,0,0.1
				c0,0.1,0.1,0.1,0.1,0.2c0,0,0,0-0.1,0.1c0,0,0,0.1,0,0.1c0.1,0.1,0,0.2,0.1,0.2c0,0.2,0.1,0.3,0.1,0.4c0.1,0,0.2,0,0.3-0.1
				c0,0.1,0,0.1,0.1,0.1c0,0,0,0.1,0.1,0.1c0,0,0.1,0.1,0.1,0c0-0.1,0.1-0.2,0.1-0.2c0.1-0.1,0.2-0.2,0.1-0.3c0,0,0,0,0-0.1
				c0.1,0,0.2,0,0.2-0.1c0,0,0,0,0.1,0c0,0,0.1-0.1,0.1-0.1c0,0,0-0.1-0.1-0.1c0.1,0,0.1,0,0.1-0.1c0,0,0,0,0,0c0,0,0.1,0,0.1-0.1
				c0,0,0.1-0.1,0.1,0c0.1,0,0.1,0,0.2-0.1c0-0.1,0.1-0.1,0.1,0c0,0.1,0.1,0,0.1,0c0-0.1,0.1,0,0.1,0c0,0,0.1,0,0.1,0
				c0.1-0.1,0.2-0.1,0.2-0.2c0.1-0.1,0.1-0.1,0.2-0.1c0,0,0,0,0-0.1c0,0,0,0,0-0.1c0.1,0.1,0.2,0.1,0.2,0c0,0,0.1,0,0.1,0
				c0.1,0,0.3,0,0.4-0.1c0,0,0,0,0,0c0.1-0.1,0.2-0.1,0.4-0.2V3.2c-0.1,0-0.2,0-0.4-0.1c0,0,0.1,0,0.1,0c0,0,0-0.1,0-0.1
				c0,0,0.1,0,0.1,0c0,0,0,0.1,0,0.1c0,0,0.1,0,0.1,0.1c0,0,0-0.1,0-0.1c0,0,0.1,0,0.1,0c0,0,0,0,0,0c0,0,0-0.1,0-0.1
				c0-0.1-0.1-0.1-0.1-0.2c0,0,0,0,0,0c0,0,0,0,0,0l0,0c0,0-0.1,0-0.1,0c0-0.1,0-0.1-0.1-0.1c0.1,0,0.1-0.1,0.1-0.1
				c0-0.1,0.1-0.1,0.1,0c0,0.1,0.1,0.1,0.2,0.1c0.1,0,0.1,0,0.2-0.1c0,0,0-0.1,0-0.1c0,0,0.1,0,0.1,0c0,0,0-0.1,0-0.1
				c0,0-0.1,0-0.1,0c0,0,0,0,0,0c0,0,0.1,0,0.1,0c0-0.1,0-0.2-0.1-0.2c0,0-0.1,0-0.1,0c0,0,0,0,0,0c0,0,0,0,0.1,0
				c0.1,0,0.1,0,0.2-0.1c0.1,0,0.1-0.1,0-0.1c-0.1,0-0.1,0-0.2,0c0.1,0,0.1-0.1,0.1-0.1c0,0,0.1-0.1,0.1-0.1c0.1,0,0.1,0,0.1-0.1
				c0.1,0,0.1-0.1,0.2-0.1c0,0,0,0.1,0.1,0c0,0,0-0.1,0-0.1c0.2,0,0.3,0,0.5-0.1C32,1.3,32,1.3,32,1.3c-0.1,0.1-0.2,0-0.3,0.1
				c0,0-0.1,0-0.1,0c-0.1,0.1-0.1,0-0.2,0c0,0.1-0.1,0.1-0.2,0c0,0,0-0.1,0-0.1c-0.1,0-0.1,0-0.1,0c0,0,0-0.1,0-0.1
				c-0.1-0.1-0.3-0.1-0.4-0.1c-0.3,0-0.6,0-0.9,0c-0.1,0-0.2,0-0.3,0.1c0,0,0,0,0,0c-0.1,0-0.2-0.1-0.2-0.1c-0.1,0.1-0.1,0-0.2,0.1
				c-0.1,0,0,0.1-0.1,0.1c0,0.1-0.1,0.1-0.1,0.1c-0.1,0-0.1-0.1-0.2-0.1c-0.1,0-0.2,0-0.2,0c0,0,0,0.1,0,0.1c0,0-0.1,0-0.1,0
				c-0.1-0.1-0.2-0.1-0.2,0c0,0,0,0-0.1,0c-0.1-0.1-0.2,0-0.4-0.1c0,0-0.1,0-0.1,0c0,0.1-0.1,0.1-0.2,0c-0.1,0-0.2,0-0.3,0.1
				c0,0-0.1,0-0.1,0c-0.1-0.1-0.1-0.1-0.1,0c0,0,0,0,0,0c-0.1,0-0.1,0-0.2,0c0,0-0.1,0-0.1,0.1c0,0,0,0.1,0,0.1c0,0,0,0.1-0.1,0.1
				c-0.1,0-0.2,0.1-0.3,0.1c-0.1,0-0.1,0-0.2,0c-0.1,0.1-0.2,0.1-0.3,0.2C25.6,2,25.6,2,25.6,2.1z"/>
			<path class="st5" d="M42.7,3.6c0,0-0.1,0-0.1,0c0,0,0,0-0.1,0C42.5,3.6,42.6,3.6,42.7,3.6c-0.3-0.3-0.6-0.5-0.8-0.7
				c-0.1,0-0.1,0-0.1,0c0,0-0.1,0-0.2-0.1c0,0,0,0,0,0c0,0.1-0.1,0-0.2,0.1c0,0,0,0.1,0,0.1c0,0-0.1,0.1-0.2,0c0,0,0,0,0,0
				c-0.1,0.1-0.2,0-0.3,0c0,0-0.1,0-0.1,0c0,0.1-0.1,0-0.1,0c0,0,0,0-0.1,0c0,0,0,0-0.1,0c-0.1,0-0.3,0-0.4,0.1c0,0-0.1,0-0.1,0.1
				c0,0,0,0.1,0,0.1c0,0-0.1,0.1-0.2,0.1c-0.1,0-0.1,0-0.2,0c-0.1,0-0.1,0-0.2,0c0,0-0.1,0-0.2,0c0.1,0.1,0.1,0.1,0.1,0.1
				c0,0,0.1,0,0.1,0.1c0,0-0.1,0-0.1,0c-0.1,0-0.2,0-0.2,0.2c0,0-0.1,0-0.1,0C39,4,39,4,38.9,3.8c-0.1,0-0.1,0-0.2,0.1
				c0,0,0,0.1,0.1,0.1c0.1,0,0.1,0.1,0.2,0.1c-0.1,0.1-0.1,0.1,0,0.2c0,0,0,0,0,0c0,0.1,0.1,0,0.1,0c0.1-0.1,0.2-0.1,0.3,0
				c-0.1,0-0.1,0.1-0.2,0.1c-0.1,0,0,0.1,0,0.1c0,0,0.1,0,0.1,0c0,0.1,0,0.1-0.1,0.2c-0.1,0-0.1,0.1-0.1,0.1c-0.1,0.1-0.2,0.1-0.3,0
				C39,4.9,38.9,4.7,39,4.7c0.1-0.1,0-0.2,0-0.3c0,0,0,0,0,0c-0.1,0-0.1,0-0.2-0.2c0,0,0,0,0-0.1c0,0-0.1-0.1-0.1-0.1
				C38.7,4,38.7,4,38.6,4c0-0.1,0-0.1,0.1-0.2c-0.2-0.1-0.4-0.1-0.5-0.1c0,0.1,0,0.2-0.1,0.3c0,0,0.1,0.1,0.1,0.1c0,0,0,0.1,0,0.2
				h0.2c0,0,0,0.1,0,0.1c0,0,0.1,0,0.1,0c0,0.1,0,0.1,0,0.2c-0.1,0-0.1-0.1-0.2-0.1c-0.1,0-0.2-0.1-0.3-0.1c0,0,0,0,0,0
				c-0.1,0-0.2-0.1-0.3-0.1c0,0-0.1,0-0.1,0c0,0-0.1,0-0.1,0c0,0,0,0-0.1,0.1c0,0,0,0,0,0c0,0,0,0,0,0c0.1,0,0.1,0.1,0,0.1
				c0,0.1-0.1,0.1-0.2,0c-0.1-0.1-0.1-0.1-0.2,0c0,0-0.1,0-0.1,0c0,0-0.1,0-0.1,0c0,0,0,0-0.1,0.1c-0.1-0.1-0.1-0.1-0.2,0
				c0-0.1,0-0.1,0-0.2c-0.1,0.1-0.2,0.1-0.3,0.1c0,0-0.1,0-0.1,0c0,0-0.1,0.1-0.2,0.1c-0.1,0-0.1,0-0.1,0.1c0,0,0,0,0,0.1
				c-0.1,0-0.2,0-0.2,0c-0.1,0-0.1,0-0.1-0.2c0.1,0,0.1,0,0.1-0.1h-0.2v0.2c0,0,0.1,0,0.1,0c0,0.1,0,0.1,0,0.1c-0.1,0-0.1,0-0.2,0
				c0,0-0.1,0-0.1,0c0,0-0.1,0.1-0.1,0.1c-0.1,0-0.1,0-0.2,0.1c0,0,0.1,0.1,0.1,0.1c-0.2,0-0.3,0-0.5-0.1c0,0.1,0,0.1,0.2,0.2
				c0,0,0,0.1,0,0.1c-0.1,0-0.2,0-0.3-0.1c-0.1,0-0.2,0-0.2-0.1c0-0.1-0.1-0.1,0-0.2c0,0-0.1-0.1-0.1-0.1c-0.1,0-0.2-0.1-0.2-0.2
				c0,0,0.1,0,0.1,0c0.1,0.1,0.2,0.1,0.4,0.1c0,0,0,0,0,0c0.1,0.1,0.1,0,0.2,0c0.1,0,0.2,0,0.2,0c0.1,0,0.2,0,0.3-0.2
				c-0.1-0.1-0.2-0.2-0.3-0.2c0,0,0,0,0,0c-0.1,0-0.1-0.1-0.2-0.1c-0.1,0-0.2-0.1-0.3-0.1c-0.1-0.1-0.1,0-0.2-0.1
				c-0.1,0-0.1-0.1-0.2-0.1c-0.1,0.1-0.1,0-0.2,0c0-0.1,0-0.1,0-0.2c-0.1,0-0.2,0-0.2,0.1c0,0,0-0.1,0-0.1c-0.1,0-0.1,0.1-0.2,0.1
				c-0.1-0.1-0.1-0.1-0.2,0c0,0,0-0.1,0-0.1c-0.1,0-0.1,0-0.2,0.1c0,0,0,0.1,0,0.1c0,0-0.1,0-0.1,0c-0.1,0-0.1,0-0.2,0.1
				c-0.1,0-0.1,0-0.2,0c0,0,0,0-0.1-0.1c0,0.1,0,0.1,0,0.2c-0.1,0-0.1,0.1-0.2,0.2c0,0,0,0-0.1-0.1c-0.1,0-0.1,0.1-0.2,0.1
				c0,0,0,0.1,0,0.1c-0.1,0-0.3,0.2-0.4,0.5c-0.2,0-0.3,0.1-0.3,0.3c-0.1,0-0.2,0.1-0.3,0.1c0,0,0,0,0,0c-0.1,0-0.2,0.1-0.3,0.1
				c0,0.1,0,0.2-0.1,0.2c0,0.1,0,0.1,0.1,0.2c0,0,0,0,0.1,0c0,0.1-0.1,0.1,0,0.2c0,0,0,0,0,0c0,0,0,0.1,0,0.1c0,0,0.1,0,0.1,0.1
				c0.1,0,0.2,0,0.3,0c0.1-0.1,0.1-0.1,0.2-0.1c0,0,0-0.1,0-0.1c0,0.1,0.1,0.1,0.1,0.1c0.1,0.1,0.1,0.3,0.2,0.4
				c0,0.1,0.1,0.1,0.1,0.2c0,0,0,0,0,0.1c0,0,0.1,0,0.1,0c0.1-0.1,0.2-0.1,0.3-0.1c0.1,0,0.1-0.1,0.1-0.2c0-0.1,0-0.2,0-0.4
				c0.1-0.1,0.3-0.1,0.3-0.3C32.1,6.1,32,6,32,6c0,0-0.1-0.1-0.1-0.1c0-0.1,0-0.2,0-0.3c0,0,0.1,0,0.1,0c0.1-0.1,0.2-0.2,0.3-0.2
				c0,0,0.1-0.1,0.1-0.1c0-0.1,0.1-0.2,0.1-0.2c0.2-0.1,0.4-0.1,0.5,0.1c0,0-0.1,0.1-0.1,0.1c-0.1,0-0.1,0.1-0.2,0.1
				c0,0-0.1,0-0.1,0.1c0,0,0,0,0,0c0,0.1,0,0.1-0.1,0.1c-0.1,0-0.1,0.1-0.1,0.1c0.1,0.1,0.1,0.1,0.1,0.2c0,0.1,0,0.1,0.1,0.2
				c0,0,0,0.1,0.1,0.1c0,0,0.1,0.1,0.1,0.1c0.1,0,0.2,0,0.3-0.1c0,0,0,0,0,0C33.1,6,33.1,6,33.2,6c0.1,0,0.1,0,0.2,0
				c0,0,0.1,0,0.1,0c0,0,0,0,0,0c0,0,0,0.1,0,0.1c0.1,0,0.1,0,0.2,0c-0.1,0-0.2,0.1-0.2,0.1c-0.1,0-0.1,0-0.2,0c0,0-0.1,0-0.2,0
				c0,0-0.1,0-0.1,0c0,0-0.1,0-0.1,0v0.2c0.1,0,0.1,0,0.1,0v0.3c-0.1,0-0.1,0-0.2,0c-0.1-0.1-0.2-0.1-0.2-0.1c0,0.1,0,0.1-0.1,0.2
				c0,0,0,0.1,0,0.1c0.1,0.1,0,0.2,0,0.3c-0.1-0.1-0.1-0.1-0.2,0c0,0,0,0-0.1,0.1c0,0-0.1,0-0.1,0c0,0,0,0,0,0
				c-0.1-0.1-0.1-0.1-0.2,0c0,0-0.1,0.1-0.2,0.1c-0.1,0-0.1,0-0.2,0.1c0,0-0.1,0-0.1,0c0,0,0-0.1,0-0.1c0,0-0.1,0-0.1,0
				c-0.1-0.1-0.1,0-0.1,0c-0.1,0-0.1,0.1-0.2,0.1c0-0.1,0-0.1-0.1-0.1V7.1h0v0H31C31,7,31,7,30.9,7v0c0,0,0,0,0,0
				C30.9,7,31,6.9,31,6.8c0-0.1,0-0.1,0-0.2c0,0,0,0-0.1,0c0,0-0.1,0.1-0.1,0.1c0,0-0.1,0.1-0.2,0.2c0.1,0.1,0.1,0.3,0.1,0.5
				c-0.1,0-0.2,0-0.2,0.1c0,0,0,0,0,0c-0.1,0-0.2,0-0.3,0.1c0,0-0.1,0.1-0.1,0.1c0,0.1-0.1,0.2-0.2,0.2C29.8,8,29.7,8,29.6,8
				c0,0.1,0,0.1,0,0.2c-0.1,0-0.2,0-0.2,0.2c0,0-0.1,0-0.1,0c0,0-0.1-0.1-0.1,0c0,0.1,0,0.1,0,0.2c-0.1,0-0.2,0-0.3,0
				c-0.1,0-0.1,0-0.2,0.1c0,0.1,0,0.1,0.1,0.2c0,0,0.1,0,0.1,0C29,8.7,29,8.8,29,8.9c0,0,0,0,0,0c0.1,0.1,0.1,0.1,0.1,0.2
				c0,0,0,0,0,0.1c0,0.1,0,0.3-0.1,0.4c-0.2,0-0.5,0-0.7,0c0,0-0.1,0-0.1-0.1c0,0,0,0,0,0.1c-0.1-0.1-0.1-0.1-0.2,0c0,0,0,0-0.1,0
				c-0.1,0-0.1,0.1-0.1,0.2c0,0,0,0.1,0,0.1c0,0.1,0,0.1,0,0.2c0,0,0,0.1,0,0.1c0,0,0,0.1,0,0.1c0,0.1,0,0.1-0.1,0.2
				c-0.1,0.1-0.1,0.1,0,0.2c0.1,0.1,0.1,0.1,0.1,0.2c0,0,0,0.1,0,0.1c0.1,0,0.2,0,0.3,0c0.1,0,0.1,0.1,0.1,0.1c0,0,0,0.1,0,0.1
				c0.1,0,0.1,0,0.2,0c0.1-0.1,0.1-0.1,0.2-0.1c0.1,0,0.1,0,0.2,0c0.1,0,0.1,0,0.1-0.1c0.1-0.1,0.1-0.1,0.2-0.1
				c0.1-0.1,0-0.2,0.2-0.2c0,0,0-0.1,0-0.1c-0.1-0.1,0-0.1,0-0.2c0,0,0-0.1,0-0.1c0,0,0,0,0,0c0,0,0,0,0,0c0-0.1,0.1-0.1,0.2-0.1
				c0,0,0.1,0,0.1,0c0.1-0.1,0.1-0.1,0.1-0.2c0,0,0,0,0-0.1c0-0.1,0-0.1,0.1-0.2c0,0,0.1,0,0.1-0.1c0,0,0,0.1,0,0.1
				c0.1,0,0.2,0,0.2,0.1c0.1,0,0.1-0.1,0.2-0.1c0.1,0,0.1,0,0.2-0.1c0,0,0.1-0.1,0.1-0.1c0,0,0.1,0,0.1,0c0.1,0,0.1,0.1,0.1,0.1
				c0,0.1,0.1,0.3,0.2,0.3c0.1,0,0.1,0.1,0.2,0.1c0,0,0.1,0.1,0.1,0.1c0,0,0.1,0,0.1,0c0,0,0.1,0.1,0.1,0.1c0,0,0,0.1,0,0.1
				c0,0,0.1,0,0.1,0c0,0.1,0,0.1,0,0.2c0,0.1,0,0.1,0,0.1c0,0.1,0,0.1,0.1,0.1c0,0,0-0.1,0.1-0.1c0,0,0-0.1,0-0.1c0,0,0,0,0-0.1
				c0,0-0.1-0.1,0-0.1c0,0,0,0,0-0.1c0.1,0,0.1,0,0.2,0c-0.1-0.1-0.2-0.2-0.3-0.2c0,0,0-0.1,0-0.1c-0.1-0.1-0.2-0.1-0.2-0.1
				c-0.1-0.1-0.1-0.1-0.2-0.2c-0.1-0.1-0.1-0.2-0.2-0.3c0-0.1,0-0.1,0-0.2c0,0,0.1,0,0.1-0.1c0,0.1,0.1,0.1,0.1,0.2c0,0,0,0,0,0
				c0.1-0.1,0.1-0.1,0.1,0c0,0,0,0.1,0,0.1c0,0,0,0.1,0,0.1c0.1,0.1,0.1,0.1,0.2,0.1C32,9.6,32,9.7,32.1,9.7c0.1,0,0.2,0.1,0.3,0.2
				c0,0.1,0,0.2,0,0.2c0,0,0,0,0,0.1c0,0,0,0,0,0c0.1,0,0.1,0.2,0.2,0.2c0,0,0,0,0,0c0,0.1,0.1,0.1,0.1,0.2c-0.1,0-0.1,0.1-0.1,0.1
				c0.1,0,0,0.1,0.1,0.1c0.1,0,0.1,0,0.2,0.1c0-0.1,0-0.1,0-0.1c0,0,0-0.1,0-0.2c0,0,0.1,0,0.1,0.1c0-0.1,0-0.1-0.1-0.2
				c0-0.1-0.1-0.1,0-0.2c0-0.1-0.1-0.1-0.1-0.2c0.1-0.1,0.1,0.1,0.2,0.1c0,0,0-0.1,0.1-0.1c0-0.1,0.2-0.1,0.3,0c0,0,0.1,0,0.1,0
				c0.1,0,0.2-0.1,0.3-0.1c0.1-0.1,0-0.1-0.1-0.1c0-0.1,0-0.1-0.1-0.2c0,0,0-0.1,0-0.2c0,0,0.1-0.1,0.1-0.1c0-0.1,0-0.2,0.1-0.3
				c0,0,0.1,0,0.1,0.1c0-0.1,0-0.2,0.1-0.3c0,0,0.1-0.1,0.1-0.1h0.2c0,0,0,0.1,0,0.1c0.1,0,0.1,0,0.2,0c0,0,0,0,0,0c0,0-0.1,0-0.1,0
				c0,0.1,0,0.1,0.1,0.1c0,0,0,0.1,0.1,0.1c0.1,0,0.2-0.1,0.2-0.1c0-0.1,0-0.1-0.1-0.2c0,0,0-0.1,0-0.1c0.1,0,0.2-0.1,0.2-0.1
				c0,0,0,0,0,0c0-0.1,0.1-0.1,0.2-0.1c0,0,0.1,0,0.2,0c-0.1,0-0.2,0.1-0.2,0.2c0,0,0,0,0,0c0,0.1-0.1,0.1-0.1,0.2
				c0.1,0,0.1,0.1,0.1,0.1c0,0,0.1,0,0.1,0.1c0.1,0.1,0.2,0.1,0.2,0.2c0,0,0,0,0,0c0.2,0,0.2,0.2,0.3,0.3c0,0,0,0.1,0,0.1
				c-0.1,0.1-0.2,0.1-0.3,0.1c-0.2,0-0.4,0-0.5-0.1c-0.1,0-0.2,0-0.2-0.1c-0.1,0-0.1,0-0.2-0.1c0-0.1-0.1-0.1-0.1,0
				c-0.1,0.1-0.1,0-0.2,0.1c0,0-0.1,0-0.1,0.1c-0.1,0.1-0.2,0.1-0.3,0c0,0-0.1,0-0.1,0c0,0,0,0.1,0.1,0.1c0,0.1-0.1,0.1-0.1,0.1
				c-0.1,0-0.1,0-0.1,0.1c0-0.1-0.1-0.1-0.2-0.1c0,0,0,0.1-0.1,0.1c0,0,0,0.1,0,0.1c0.1,0,0.1,0.1,0.1,0.2c0,0.1,0.1,0.2,0.1,0.3
				c0.1,0,0.1,0,0.1,0c0,0.1,0.2,0.1,0.2,0.2c0.1,0.1,0.1,0.1,0.2,0c0,0,0,0,0-0.1c0.1,0,0.2,0,0.3,0.1c0,0,0.1,0.1,0.1,0.1
				c0.1,0,0.2,0,0.3-0.1c0,0,0,0,0,0c0.1,0,0.1,0,0.2,0.1c0,0.2,0,0.3,0.2,0.4c-0.1,0-0.1,0-0.2,0c0,0,0,0.1,0,0.1c0,0,0,0.1,0,0.1
				c0,0.1-0.1,0.2-0.1,0.3c0,0.1-0.1,0.2-0.2,0.2c-0.1,0-0.3,0-0.4-0.1c0,0-0.1,0-0.1,0c-0.1,0-0.1,0.1-0.2,0.1
				c-0.1,0.1-0.1,0.1-0.2,0c-0.1-0.1-0.2,0-0.3-0.1c-0.1,0-0.2-0.1-0.3-0.1c0,0,0,0,0,0c-0.1-0.1-0.3-0.1-0.3-0.2
				c0,0-0.1-0.1-0.1-0.1c0,0-0.1,0-0.1,0c0,0-0.1,0-0.1,0c-0.1,0-0.1,0.1-0.1,0.2c0,0.1,0,0.2,0,0.3c0,0-0.1,0-0.1,0
				c-0.1,0.1-0.2,0.1-0.2,0c0-0.1-0.1-0.1-0.2-0.1c-0.1,0-0.2,0-0.2-0.1c-0.1,0-0.1-0.1-0.1-0.2c-0.1,0-0.2,0-0.3-0.1c0,0,0,0,0,0
				c0,0-0.1,0-0.1,0c0,0,0,0,0,0c0,0-0.1,0-0.1,0c0,0-0.1,0-0.1,0c-0.1-0.1-0.2-0.1-0.2-0.2c0,0,0-0.1,0.1-0.1
				c0.1-0.1,0.1-0.2,0.1-0.3c0,0,0,0,0,0c0,0,0,0,0,0c0.1-0.1,0-0.2,0-0.3c-0.1,0-0.2,0-0.2,0c0,0-0.1,0-0.1,0c-0.1,0-0.2,0-0.3,0
				c0,0-0.1,0-0.1,0c-0.1,0-0.2,0.1-0.2,0c0,0-0.1,0-0.1,0c-0.1,0.1-0.1,0-0.2,0c0,0-0.1,0-0.1,0c-0.1,0.1-0.2,0-0.3,0.2
				c0,0,0,0,0,0c-0.1,0-0.1,0-0.1,0.1c-0.1,0.1-0.2,0.1-0.3,0.1c0,0,0,0,0,0c-0.1,0-0.1,0-0.2,0c-0.1,0-0.2,0-0.1-0.2
				c-0.1,0-0.1,0-0.2,0.1c0,0.1,0,0.2-0.1,0.2c0,0.1-0.1,0.1-0.2,0.2c-0.1,0.1-0.3,0.1-0.3,0.3c0,0,0,0,0,0c-0.1,0-0.1,0.1-0.1,0.2
				c0,0.2,0,0.3-0.1,0.4c0,0,0,0,0,0c-0.1,0.1-0.1,0.1-0.2,0.2C27.2,13,27.1,13,27,13c0,0,0,0,0,0.1c0,0.1,0,0.2-0.1,0.2
				c0,0-0.1,0.1-0.1,0.1c0,0.1-0.1,0.2-0.1,0.3c0,0,0,0,0,0.1c0,0-0.1,0-0.1,0c0,0.1-0.1,0.3-0.2,0.4c-0.1,0.1-0.1,0.2,0,0.3
				c0.1,0.1,0.1,0.2,0,0.3c0,0.1,0,0.1,0,0.2c0.1,0.1,0.1,0.2,0,0.3c0,0.1-0.1,0.2-0.1,0.3c0,0,0,0,0,0.1c0,0.1-0.1,0.2-0.1,0.3
				c0,0.1,0,0.1,0,0.1c0,0,0,0.1,0,0.1c-0.1,0.1-0.1,0.2,0,0.2c0,0,0.1,0.1,0.2,0.1c0,0,0,0.1,0.1,0.2c0,0,0,0,0,0.1
				c0,0.1,0.1,0.2,0.2,0.2c0,0.1,0.1,0.3,0.1,0.4c0,0,0,0,0,0c0,0.1,0.1,0.1,0.2,0.1c0.1,0.1,0.2,0.2,0.3,0.3c0.1,0,0.1,0.1,0.2,0.2
				c0.1,0.1,0.1,0.1,0.2,0.1c0.1,0,0.2,0,0.3-0.1c0,0,0,0,0,0c0,0,0.1,0,0.1,0c0.1,0,0.2,0,0.3-0.1c0,0,0,0,0,0c0,0,0.1,0.1,0.1,0
				c0,0.1,0.2,0,0.2,0.1c0,0,0.1,0,0.1,0c0-0.1,0.1-0.1,0.1-0.1c0.1-0.1,0.3-0.1,0.4-0.3c0,0,0,0,0.1,0c0,0,0.1,0,0.1,0
				c0,0,0.1,0,0.1,0c0.1,0,0.1,0,0.2,0c0.1,0,0.1,0,0.1,0.1c0,0.1,0.1,0.1,0.1,0.2c0,0.1,0.1,0.1,0.1,0.2c0,0,0.1,0,0.1,0
				c0,0,0.1,0,0.1,0c0,0,0.1,0,0.1,0c0.1-0.1,0.1,0,0.2,0c0,0,0,0.1,0,0.1c0.1,0,0.1,0.1,0.1,0.1c0.1,0.1,0,0.1,0,0.2
				c0,0.1,0,0.1-0.1,0.2c0,0-0.1,0.1,0,0.2c0,0.1,0,0.2,0,0.2c0,0.1-0.1,0.1-0.1,0.2c0,0.1,0,0.2,0.1,0.3c0.1,0.1,0.1,0.1,0.2,0.2
				c0,0.1,0.1,0.1,0.1,0.1c0,0,0.1,0.1,0.1,0.1c0,0.1,0.1,0.1,0.1,0.2c0,0,0,0,0,0.1c0,0,0.1,0,0.1,0c0,0.1-0.1,0.1,0,0.2
				c0.1,0.1,0.1,0.3,0.1,0.4c0,0,0,0.1,0,0.1c0,0,0,0.1,0,0.1c0,0,0,0.1,0,0.1c0,0,0,0.1,0,0.1c0.1,0.1,0.1,0.2,0.1,0.3
				c0,0.1,0,0.2-0.1,0.2c0,0-0.1,0-0.1,0c0,0,0,0.1,0,0.1c-0.1,0.1-0.1,0.2-0.1,0.3c0,0,0,0,0,0.1c-0.1,0.1-0.1,0.3-0.1,0.4
				c0,0.1,0,0.3,0.1,0.4c0.1,0.1,0.1,0.2,0.1,0.3c0,0.1,0.1,0.2,0.2,0.4c0,0,0,0.1,0.1,0.1c0.1,0.1,0.1,0.2,0.1,0.2
				c0,0.1,0,0.2,0,0.3c0,0,0,0.1,0,0.1c0.1,0.1,0,0.2,0,0.2c0,0,0,0.1,0,0.1c0,0,0,0.1,0,0.1c0,0.1,0,0.1,0.1,0.2
				c0.1,0,0,0.2,0.1,0.1c0,0,0,0,0,0c0,0.1,0.1,0.2,0.1,0.3c0,0.1,0,0.1,0.1,0.1c0,0,0,0.1,0.1,0.2c0,0,0,0.1,0,0.1
				c0,0.1,0,0.2,0,0.2c0,0,0,0.1,0,0.1c0.1,0.1,0,0.1,0.1,0.2c0.1,0.1,0.1,0.1,0.2,0.2c0.1,0,0.2-0.1,0.3-0.1c0,0,0.1,0,0.1,0
				c0.1-0.1,0.2,0,0.2,0c0.1,0,0.2,0,0.3,0c0,0,0.1,0,0.1,0c0-0.1,0.1,0,0.1,0c0,0,0.1,0,0.1,0c0.1-0.1,0.2-0.1,0.3-0.2
				c0,0,0.1-0.1,0.1-0.1c0.1-0.1,0.2-0.2,0.3-0.4c0,0,0,0,0,0c0.1-0.1,0.1-0.2,0.1-0.3c0.1,0,0.1-0.2,0.2-0.2c0-0.1,0.1-0.3,0.1-0.4
				c0,0,0-0.1,0-0.1c0,0,0.1,0,0.1-0.1c0-0.1,0.1-0.1,0.2-0.1c0.1,0,0.1-0.1,0.2-0.1c0,0,0-0.1,0-0.1c0-0.1,0-0.1,0-0.2
				c0-0.1,0-0.1,0-0.2c0-0.1,0-0.1,0-0.2c0-0.1,0-0.1,0-0.2c0,0,0-0.1,0-0.1c0.1-0.1,0.1-0.2,0.2-0.2c0.1,0,0.1-0.1,0.2-0.1
				c0-0.1,0.1-0.2,0.2-0.2c0.1,0,0.2-0.2,0.4-0.2c0,0,0-0.1,0.1-0.1c0,0,0-0.1,0.1-0.1c0,0,0-0.1,0-0.1c0-0.3,0-0.6,0-0.9
				c0-0.1,0-0.1,0-0.1c-0.1-0.1-0.1-0.2-0.1-0.3c0,0,0,0,0-0.1c0,0,0-0.1,0-0.1c0,0,0-0.1,0-0.1c0,0,0-0.1,0-0.1c0,0,0,0,0-0.1
				c0,0-0.1-0.1-0.1-0.1c-0.1-0.2,0.1-0.3,0.1-0.4c0,0,0,0,0,0c0,0,0.1-0.1,0.1-0.2c0-0.1,0.1-0.1,0.1-0.2c0,0,0-0.1,0.1-0.1
				c0.1-0.1,0.2-0.1,0.2-0.3c0,0,0-0.1,0-0.1c0.1-0.1,0.2-0.2,0.3-0.3c0.1-0.2,0.2-0.3,0.4-0.4c0.1,0,0.1-0.1,0.1-0.2c0,0,0,0,0,0
				c0,0,0.1,0,0.1,0c0-0.1,0.1-0.1,0.1-0.2c0.1,0,0-0.1,0.1-0.2c0.1-0.1,0.1-0.2,0.1-0.3c0,0,0,0,0-0.1c0,0,0.1-0.1,0.1-0.2
				c0.1,0,0.1-0.1,0.1-0.2c0,0,0,0,0-0.1c0,0,0.1-0.1,0.1-0.2c0,0,0-0.1,0-0.1c0.1-0.1,0-0.2,0-0.3c-0.1,0-0.2,0.1-0.3,0.1
				c0,0,0,0,0,0c0,0.1-0.1,0.1-0.1,0.1c0,0-0.1,0-0.1,0c-0.1,0-0.1,0-0.2,0.1c0,0.1-0.1,0-0.1,0c-0.1,0-0.1,0-0.2,0
				c-0.1,0.1-0.2,0-0.3,0c0-0.1-0.1-0.2-0.3-0.3c0.1,0,0.1,0,0.1,0c0-0.1,0-0.2-0.1-0.2c-0.1-0.1-0.2-0.2-0.3-0.3c0,0,0-0.1-0.1-0.1
				c-0.1,0-0.1-0.1-0.2-0.1c-0.1,0-0.1-0.1-0.1-0.2c0,0,0-0.1,0-0.1c0-0.1-0.1-0.2-0.1-0.3c-0.1-0.1-0.1-0.1-0.2-0.2
				c0,0-0.1-0.1-0.1-0.1c0-0.1,0-0.2,0-0.3c0-0.1,0-0.2-0.1-0.3c-0.1,0-0.2-0.1-0.3-0.2c0,0,0,0,0,0c0-0.1,0-0.2-0.1-0.3
				c0,0,0,0,0,0c-0.1-0.1-0.1-0.3-0.2-0.3c0,0,0,0,0-0.1c0,0,0-0.1,0-0.1c-0.1-0.1,0-0.1,0-0.2c0,0,0.1,0,0.1,0c0-0.1,0-0.2,0.1-0.3
				v0.2c0,0,0.1,0,0.1,0.1c0,0,0,0.1,0.1,0.1c0,0.1,0.2,0.2,0.2,0.3c0,0,0,0.1,0,0.1c0.1,0.1,0.1,0.1,0.1,0.2c0.1,0,0.1,0,0.1,0.1
				c0.1,0.2,0.2,0.3,0.2,0.5c0,0,0,0,0,0c0,0.1,0.1,0.2,0.1,0.3c0.1,0.1,0.2,0.2,0.2,0.3c0.1,0.1,0.1,0.1,0.1,0.1
				c0,0.1,0.1,0.2,0.2,0.3c0,0,0,0.1,0,0.1c0,0.1,0,0.2,0.1,0.3c0,0,0,0,0,0c0,0.1,0,0.3,0.1,0.4c0.1,0,0.1,0,0.2,0
				c0.1,0,0.1,0,0.1-0.1c0,0,0.1-0.1,0.1-0.1c0.1,0,0.1,0,0.2,0c0.1,0,0.2-0.2,0.3-0.2c0,0,0,0,0.1-0.1c0-0.1,0.1-0.1,0.1-0.1
				c0,0,0,0,0,0c0.1-0.1,0.2-0.1,0.2-0.1c0,0,0.1,0,0.1-0.1c0,0,0-0.1,0-0.1c0,0,0.1-0.1,0.1-0.1c0.1,0,0.2-0.2,0.4-0.1c0,0,0,0,0,0
				c0,0,0-0.1,0-0.2c0.1,0,0.1,0,0.2,0C39,15.1,39,15,39,15c0,0,0.1,0,0.1,0c0-0.1,0-0.1,0-0.2c0-0.1,0-0.1,0-0.2
				c0.1,0,0.1-0.1,0.2-0.1c0.1-0.2,0.2-0.3,0-0.4c0,0-0.1-0.1-0.1-0.1c0,0-0.1,0-0.1-0.1c0,0-0.1-0.1-0.2-0.1c0,0,0-0.1,0-0.1
				c-0.1-0.1-0.1-0.1-0.1-0.3c0,0-0.1,0-0.1,0.1c0,0.1-0.1,0.1-0.1,0.1c-0.1,0.1-0.1,0.1-0.2,0.2c-0.1,0-0.2,0-0.3,0.1
				C38,13.8,38,13.8,38,13.6v-0.2c0,0-0.1,0-0.1,0c0,0.1,0,0.2,0,0.2c0-0.1-0.1-0.2-0.1-0.3c0-0.2-0.2-0.2-0.3-0.3
				c0-0.2-0.1-0.3-0.2-0.5c0.1,0,0.1,0,0.1,0c0,0,0,0,0,0c0,0,0,0,0,0c0,0,0.1,0,0.1,0c0.1,0,0.1,0,0.1,0.1c0,0,0,0,0,0.1
				c0.1,0.1,0.1,0.2,0.1,0.2c0,0.1,0.1,0.1,0.1,0.1c0.1,0,0.1,0,0.1,0.1c0,0,0,0,0,0c0,0,0.1,0,0.1,0.1c0.1,0.1,0.2,0,0.2,0.1
				c0,0,0,0,0.1,0c0.1,0,0.1-0.1,0.2-0.1c0,0,0.1,0,0.1,0c0,0.1,0.1,0.1,0.1,0.2c0,0.1,0.1,0.1,0.1,0.1c0.1,0,0.1,0,0.1,0
				c0.1,0.1,0.2,0,0.2,0c0,0,0.1,0,0.1,0c0,0,0.1,0,0.1,0c0.1,0,0.2,0,0.3-0.1h0.6c0,0.1,0.1,0.1,0.1,0.1c0,0.1,0,0.2,0.1,0.2
				c0.1,0,0.1,0.1,0.2,0.1c0.1,0,0.1,0.1,0.2,0.1c0,0,0.1,0,0.1,0v0.1c-0.1,0-0.1,0-0.2,0v0.1c0.1,0,0.2,0.1,0.2,0.2
				c0.1,0.1,0.2,0,0.3-0.1c0,0,0-0.1,0-0.1c0,0,0,0,0.1-0.1c0,0.1,0.1,0.1,0,0.2c0,0,0,0.1,0.1,0.1c0.1,0,0,0.1,0,0.1
				c0,0-0.1,0.1,0,0.2c0.1,0,0,0.1,0,0.1c0,0,0,0.1,0,0.1c0.1,0.1,0,0.2,0.1,0.3c0,0.1,0,0.2,0.1,0.2c0.1,0.1,0.1,0.2,0.2,0.3
				c0,0,0.1,0.1,0.1,0.2c0,0.1,0,0.2,0.1,0.3c0,0.1,0.1,0.2,0.2,0.3c0.1,0.1,0.1,0.2,0.2,0.4c0,0.1,0,0.1,0.1,0.2
				c0,0.1,0.1,0.1,0.1,0.1c0,0,0.1,0,0.1,0c0-0.1,0-0.1,0-0.2c0,0,0.1,0,0.1,0c0-0.1,0-0.1,0-0.1c0,0,0-0.1,0.1-0.1c0,0,0.1,0,0.1,0
				c0-0.1,0-0.2,0-0.3c0,0,0-0.1,0-0.1c0-0.1,0-0.2,0-0.2c-0.1-0.1,0-0.2,0-0.3c0,0,0-0.1,0-0.1c-0.1,0,0-0.1,0-0.1
				c0-0.1,0.1-0.1,0.1-0.1c0-0.1,0.1,0,0.2-0.1c0-0.1,0-0.2,0.1-0.2c0.1-0.1,0.1-0.2,0.2-0.2c0-0.1,0.1-0.2,0.1-0.2
				c0-0.1,0.1-0.1,0.2-0.1c0.1,0,0.1,0,0.1-0.1c0,0,0-0.1,0-0.1c0-0.1,0-0.2,0.1-0.2c0,0,0,0,0,0c0.1,0,0.1,0,0.2,0c0,0,0.1,0,0.1,0
				c0.1,0,0.1,0,0.2-0.1c0,0,0.1-0.1,0.1-0.1c0,0,0.1,0,0.1,0c0.1,0.1,0.1,0.2,0.1,0.3c0,0.1,0.1,0.2,0.1,0.2
				c0.1,0.1,0.2,0.1,0.2,0.3c0.1,0,0.1,0.1,0.1,0.1c0,0.1,0.1,0.1,0.1,0.2c0,0.1,0,0.2,0,0.3c0,0,0,0,0,0c0.1,0.1,0.1,0.1,0.2,0
				c0.1-0.1,0.1-0.1,0.2-0.1c0,0,0-0.1,0-0.1c0,0.1,0,0.1,0.1,0.1c0.1,0.1,0.1,0.1,0.1,0.2c0,0,0,0,0,0.1c0.1,0.1,0.1,0.2,0.1,0.3
				c0.1,0.1,0.1,0.2,0.1,0.3c0,0.1,0,0.1,0,0.2c0,0,0,0.1,0,0.1c0,0,0,0.1,0,0.1c0,0.2,0,0.3,0,0.4c0.1,0.1,0.2,0.1,0.2,0.2
				c0,0.1,0.1,0.2,0.1,0.3c0,0,0.1,0.1,0,0.2c0,0,0,0.1,0,0.1c0,0,0.1,0.1,0.1,0.1c0,0,0,0-0.1,0c0,0.1,0,0.1,0.1,0.2
				c0.1,0.1,0.1,0.1,0.1,0.2c0,0,0.1,0,0.1,0c0,0.1,0.1,0.1,0.1,0.1c0.1,0,0.1,0.1,0.1,0.1c0,0,0.1,0,0.1,0c0-0.1,0-0.1,0-0.2
				c-0.1-0.1-0.1-0.2-0.1-0.3c0,0,0-0.1,0-0.1c0-0.1,0-0.2-0.1-0.3c-0.1-0.1-0.1-0.2-0.2-0.2c0,0-0.1-0.1-0.1-0.1
				c-0.1,0-0.2-0.1-0.2-0.1c0.1-0.1,0.1-0.1,0-0.2c0,0,0-0.1-0.1-0.1c0,0-0.1,0-0.1,0c0-0.2,0-0.3,0-0.4c0,0,0-0.1,0-0.1
				c0-0.1,0.1-0.1,0-0.2c0,0,0,0,0,0c0.1,0,0-0.1,0-0.1c0.1-0.1,0.1-0.1,0.2,0c0,0,0,0,0,0.1c0,0,0.1,0.1,0.1,0.1c0,0,0.1,0,0.1,0
				c0,0.1,0,0.1,0.1,0.1c0,0,0.1,0,0.1,0.1c0,0.1,0.1,0.1,0.1,0.2c0,0,0.1,0,0.1,0c0.1,0.1,0.2,0.2,0.3,0.2c0,0,0,0.1,0,0.1
				c-0.1,0,0,0.1,0,0.2c0.1,0.1,0.2-0.1,0.3-0.1c0,0,0,0,0.1-0.1c0,0,0,0,0,0c0,0,0-0.1,0-0.1c0,0,0.1,0,0.1,0
				c0-0.4,0.1-0.8,0.1-1.2c0,0,0-0.1,0-0.1c-0.2-0.1-0.2-0.2-0.4-0.3c0-0.1-0.1-0.1-0.1-0.2c-0.1-0.1-0.1-0.2,0-0.3
				c0,0,0.1-0.1,0.1-0.1c0-0.1,0.1-0.1,0.2-0.2c0,0,0.1-0.1,0.2-0.1c0,0,0,0,0.1,0.1c0,0,0,0,0,0C47.8,10.1,45.8,6.2,42.7,3.6z"/>
			<path class="st5" d="M45,21.8c0-0.1,0-0.2-0.1-0.2c-0.1-0.1-0.1-0.1-0.1-0.2c0,0,0,0,0-0.1c-0.1,0-0.1,0-0.1,0
				c0-0.1,0-0.3-0.1-0.4c0,0,0-0.1,0.1-0.1c-0.1-0.1-0.2,0-0.2-0.2c0,0,0,0,0,0c0,0-0.1-0.1-0.1-0.1c0-0.1,0-0.2,0-0.3
				c0,0,0-0.1,0-0.1c-0.1-0.1,0-0.1,0-0.2c0-0.1,0-0.1,0-0.2c0,0,0-0.1,0-0.1c0-0.1-0.1-0.1-0.2-0.1c0,0,0-0.1,0-0.1
				c-0.1,0-0.1-0.1,0-0.1c0,0,0-0.1,0-0.1c0,0,0,0,0-0.1c0-0.1-0.1-0.2-0.1-0.3h-0.1c0,0.1,0,0.1-0.1,0.2c-0.1,0.1-0.1,0.1-0.1,0.2
				c0,0,0,0.1,0,0.1c-0.1,0,0,0.1,0,0.1c0,0.1,0,0.2,0,0.3c0,0.1,0,0.1-0.1,0.2c0,0.1-0.1,0.2-0.2,0.3c0,0,0,0,0,0
				c-0.1,0-0.2,0-0.2-0.2c-0.1,0-0.2-0.1-0.2-0.1c0,0-0.1-0.1-0.1-0.1c-0.1,0-0.1-0.1-0.1-0.1c0,0-0.1-0.1-0.1-0.1
				c0-0.1,0.1-0.2,0.1-0.3c0-0.1,0-0.1,0.1-0.1c0.1,0,0.1-0.1,0.1-0.2c-0.1,0-0.1,0-0.2-0.1c0,0-0.1,0-0.1,0c0,0,0,0-0.1,0
				c-0.1,0-0.1,0-0.2-0.1c0,0-0.1,0-0.1,0c0,0.1,0,0.2-0.1,0.2c-0.1,0-0.2,0-0.3,0.1c-0.1,0-0.1,0.1-0.1,0.1c0,0.1,0,0.2-0.2,0.2
				c0,0.1,0,0.2,0,0.2c0,0,0,0,0,0c0,0-0.1,0-0.1,0c0,0-0.1,0-0.1,0c0,0,0-0.1,0-0.1c0,0,0,0,0-0.1c0-0.1-0.1-0.1-0.1-0.1
				c-0.1,0.1-0.2,0.1-0.3,0.1c0,0,0,0.1-0.1,0.1c-0.1,0.1-0.1,0.2-0.1,0.3c-0.1,0-0.1,0-0.1,0c-0.1,0.1,0,0.1,0,0.1
				c0,0-0.1,0.1-0.1,0.1c0,0,0,0-0.1-0.1c0,0-0.1-0.1-0.1,0c0,0-0.1,0.1-0.1,0.1c0,0.1-0.1,0.2-0.1,0.3c-0.1,0.1-0.1,0.1-0.2,0.2
				c0,0-0.1,0.1-0.1,0.1c-0.1,0-0.2,0.1-0.3,0.1c0,0,0,0,0,0c-0.1,0.1-0.2,0.1-0.3,0.1c-0.1,0-0.1,0-0.2,0.1c0,0-0.1,0.1-0.1,0.1
				c-0.1,0-0.2,0.1-0.2,0.2c0,0,0,0-0.1,0.1c0,0-0.1,0-0.1-0.1v0.2c0,0,0,0.1,0,0.1c-0.1,0-0.1,0.1-0.1,0.2c0,0.1,0,0.2,0.1,0.2
				c0,0.1,0,0.1,0,0.2c0,0-0.1,0-0.1,0.1c0,0.1,0.1,0.2,0,0.3c0,0.1,0.1,0.2,0.1,0.3c0,0,0,0,0,0.1c-0.1,0.1-0.1,0.2,0,0.4
				c0,0,0,0.1,0,0.1c-0.1,0.1-0.1,0.2-0.1,0.4c0,0,0,0-0.1,0c-0.1,0-0.1,0.1-0.1,0.2c0.1,0.1,0.1,0.1,0.2,0.2c0.1,0,0.1,0,0.2,0
				c0.1,0,0.2-0.1,0.3-0.1c0.1-0.1,0.2-0.2,0.4-0.1c0.1,0,0.2,0,0.3,0c0.1,0,0.2,0,0.2-0.1c0,0,0.1-0.1,0.1-0.1
				c0.1,0,0.2-0.1,0.3-0.1c0.1-0.1,0.1-0.1,0.3-0.1c0.1,0,0.2,0,0.2-0.1c0.1-0.1,0.2-0.1,0.3-0.1c0,0,0.1,0,0.1,0c0,0,0.1,0,0.1,0
				c0.1,0.1,0.2,0.1,0.3,0.1c0.1,0,0.1,0,0.1,0.1c0,0.1,0,0.1,0,0.1c0,0,0,0.1,0.1,0.1c0,0,0,0.1,0,0.1c0,0,0,0.1,0,0.1
				c0.1,0,0.1,0,0.1-0.1c0.1-0.1,0.2-0.2,0.3-0.3c0,0,0.1,0,0.1-0.1c0.1,0.1-0.1,0.1,0,0.2c0,0,0,0,0,0c-0.1,0-0.1,0.1-0.1,0.1
				c0.1,0,0.1,0,0.2,0c0,0,0,0.1,0,0.1c0,0,0,0.1,0,0.1c0,0,0.1,0,0.1,0c0,0,0,0,0,0c0,0,0,0-0.1,0c0.1,0.1,0.1,0.1,0.1,0.2
				c-0.1,0.1,0,0.2,0,0.3c0.1,0,0.2,0.1,0.3,0.1c0,0,0,0,0,0c0.1,0.1,0.2,0.1,0.2,0c0.1,0,0.1-0.1,0.2-0.1c0,0.1,0.1,0.1,0.1,0.2
				c0.1,0,0.1,0,0.1,0c0.1,0,0.1,0,0.1-0.1c0.1,0,0.1-0.1,0.2-0.1c0.1,0,0.2,0,0.4-0.1c0,0,0,0,0-0.1c0.1-0.2,0.1-0.3,0.3-0.5
				c0,0,0.1-0.1,0.1-0.1c0-0.1,0.1-0.1,0.1-0.1c0-0.1,0-0.1,0.1-0.2c0.1-0.1,0.1-0.1,0.2-0.2c0-0.1,0.1-0.1,0.2-0.2
				c0.1,0,0.1-0.1,0.1-0.2c0,0,0-0.1,0-0.1c0,0,0-0.1,0.1-0.1c0-0.1,0.1-0.1,0.1-0.2c0-0.1,0.1-0.1,0.1-0.2c0,0,0-0.1,0-0.1
				c0-0.1,0.1-0.3,0.1-0.4C45.1,21.9,45,21.8,45,21.8z"/>
		</g>
	</g>
</g>
</svg>
