<?xml version="1.0" encoding="utf-8"?>
<!-- Generator: Adobe Illustrator 18.0.0, SVG Export Plug-In . SVG Version: 6.00 Build 0)  -->
<!DOCTYPE svg PUBLIC "-//W3C//DTD SVG 1.1//EN" "http://www.w3.org/Graphics/SVG/1.1/DTD/svg11.dtd">
<svg version="1.1" id="Layer_1" xmlns="http://www.w3.org/2000/svg" xmlns:xlink="http://www.w3.org/1999/xlink" x="0px" y="0px"
	 viewBox="0 0 48 48" enable-background="new 0 0 48 48" xml:space="preserve">
<g>
	<g>
		<g>
			<g>
				<path fill="#67C5B8" d="M23.6,7.4C23.5,7.4,23.5,7.4,23.6,7.4c-0.2-0.1-0.2-0.2-0.1-0.2c0.8-0.9,2.4-1.1,3.4-0.6
					c0,0,0.1,0,0.1,0.1c0.1,0,0.1,0.1,0,0.2c0,0.1-0.1,0.1-0.2,0c0,0-0.1,0-0.1,0c-1-0.5-2.4-0.2-3.1,0.5
					C23.7,7.4,23.6,7.4,23.6,7.4z"/>
			</g>
		</g>
	</g>
	<g>
		<g>
			<g>
				<g>
					<polygon fill="#F5B54C" points="28.3,43.9 28.6,43.1 28.3,42.2 25.4,42.6 26.1,44.6 					"/>
				</g>
			</g>
		</g>
		<g>
			<g>
				<g>
					<g>
						<path fill="#F05640" d="M23,45.9c0,0,0,0.2,0.3,0.4c0.2,0.1,1.7,0,2-0.1c0.3-0.1,1.3-0.7,1.6-0.8c0.3-0.1,1.6,0,1.9-0.3l0-0.4
							l-0.9-0.2L23,45.9z"/>
					</g>
				</g>
			</g>
			<g>
				<g>
					<g>
						<path fill="#F05640" d="M25.6,43.9c0,0,0.4,0.6,1,0.6c0.6,0,2.1-1.3,2.1-1.3s0.4,0.9,0.1,1.5c0,0-1.2,0.4-1.8,0.5
							C26.2,45.3,25,46,24.7,46c-0.2,0.1-1.1,0.2-1.6,0c-0.2-0.1-0.2-0.3-0.1-0.4c0.1-0.1,0.2-0.3,0.5-0.4c0.6-0.3,1.5-0.9,1.6-1
							C25.1,44,25.6,43.9,25.6,43.9z"/>
					</g>
				</g>
			</g>
		</g>
		<g>
			<g>
				<g>
					<path fill="#FFD15C" d="M24,46.5c0,0-0.1-0.6,0.1-0.8c0.1-0.3,0.5-0.7,0.5-0.8c0-0.1,0.3-2,0.3-2l1.7,0.4c0,0,0.3,0.4,0.3,1.2
						c0,0.8,0,0.8,0,0.8l-0.8,1.5C26.1,46.9,23.8,47.3,24,46.5z"/>
				</g>
			</g>
		</g>
		<g>
			<g>
				<g>
					<path fill="#CED6E0" d="M20.8,22.3c0,0,0.4,6.4,0.9,8.4c0.5,2,1.5,6.8,1.6,6.8c0.1,0,2,6.3,2,6.3s2,0.5,3-1.1
						c0,0,0-0.1,0.1-0.1c1-1.7-0.5-5.2-0.5-5.2l-3.5-15.1L20.8,22.3z"/>
				</g>
			</g>
		</g>
		<g>
			<g>
				<g>
					<path fill="#ACB2BA" d="M27.9,37.3l-3.3-14.2c-0.3,0.1-0.4,0.2-0.5,0.2c-0.1,0.1-0.1,0.2-0.1,0.3c0,0.5,0.1,5.3,0.1,5.5l0,0
						c0,0.1,0.4,6.1,0.4,7.1c0,0.5-0.2,2.1-0.4,3.7c0.6,1.8,1.2,3.8,1.2,3.8s1.3,0.3,2.3-0.4c0.1-0.6,0.2-1.4,0.4-2.1
						c0.1-0.4,0.2-0.8,0.2-1.2c0-0.3,0.1-0.6,0.2-1.1C28.2,38,27.9,37.3,27.9,37.3z"/>
				</g>
			</g>
			<g>
				<g>
					<path fill="#CED6E0" d="M29,22.3c0,0,0.9,2.7,0.6,5.6c-0.3,2.9-0.5,5.9-0.5,5.9s-0.7,4.7-0.9,6.1c-0.2,1.4-0.6,3.7-0.5,4.1
						c0,0-2,1.1-3.4-0.8c0,0,0.7-6.3,0.7-7.3c0-1-0.7-7.4-0.7-7.4s-0.3-5.2-0.3-5.7C23.9,22.2,29,22.3,29,22.3z"/>
				</g>
			</g>
		</g>
		<g>
			<g>
				<g>
					<polygon fill="#67C5B8" points="16.6,27.1 18.4,32.7 24.4,27.5 21.8,23.1 					"/>
				</g>
			</g>
		</g>
		<g>
			<g>
				<g>
					<path fill="#FFD15C" d="M31.4,13c0,0-0.3,1.4-0.4,1.9c-0.1,0.5-0.1,1.5,0,1.9c0.1,0.5,0.3,3.2,0.1,4.7c0,0,0.1,2.2-0.1,2.6
						c-0.1,0.3,0,1.6,0,2c0,0.1,0,0.1,0,0.2l-0.5,1c0,0.1-0.1,0.1-0.2,0.2l-1.3,0.7c0,0-0.1-0.3,0.2-0.6c0.3-0.2,0.3-0.2,0.3-0.2
						s0.1-0.5,0.1-0.6l-0.2-0.6c0,0,0.2,1.3-0.4,1.4l0-0.6c0,0-0.1-0.4-0.1-0.6c0-0.2,0.1-0.9,0.1-1.1c0-0.2,0.3-0.7,0.4-1.2
						c0.2-0.5,0.1-2,0-2.8c-0.1-0.7-0.5-3-0.5-3s-0.1-0.8-0.1-1.6c0-0.8-0.1-3.4-0.1-3.4S30.6,11.7,31.4,13z"/>
				</g>
			</g>
		</g>
		<g>
			<g>
				<g>
					<g>
						<path fill="#FFD15C" d="M27.2,3.9L27,5c0,0-0.1,0.6-0.2,0.9v2l-2.4,3.5l-0.7-3.9c0,0,0.4-0.4,0.3-0.8c0,0-1-1.7-1.2-2.7
							c-0.1-1-0.1-1.8-0.1-1.8l1.4-1.3c0,0,2.7,0.9,2.9,1.4C27.1,2.6,27.2,3.9,27.2,3.9z"/>
					</g>
				</g>
			</g>
			<g>
				<g>
					<path fill="#F5B54C" d="M25.1,7.3C24.5,7.4,24,6.6,24,6.6c0,0.5-0.3,0.8-0.3,0.8l0.2,0.9c0.4,0.1,0.9,0,1.4-0.4
						c1-0.9,1.6-2,1.6-2S25.7,7.2,25.1,7.3z"/>
				</g>
			</g>
		</g>
		<g>
			<g>
				<g>
					<path fill="#344A5E" d="M22.8,3.9c0.1,0.4-0.4-1.4-0.4-1.9s0.4-0.9,1-1.5C24.1,0,25-0.2,25.9,0.2c0.9,0.3,1.7,1.6,1.9,2.4
						C27.9,3.4,27,5,27,5l-0.1-1c-0.1-0.1-0.1-0.3-0.2-0.5c-0.4-1-1.3-1.7-2.3-1.9l0,0c0,0-0.8,0.1-1.1,0.3S22.7,2.9,22.8,3.9z"/>
				</g>
			</g>
		</g>
		<g>
			<g>
				<g>
					<path fill="#E8EAE8" d="M26.8,6.9l-1,0.8l-1.3,2.7l-0.4-2.6l-0.3-0.5c0,0-0.7,0.5-1.1,0.6c-0.5,0.1-2.1,0.4-2.4,0.9
						c-0.3,0.6-1.2,3.7-1.2,3.7s1.2,0.5,1.5,0.5c0,0,0.4,1.7,0.6,2.4c0.2,0.6,0.3,2.5,0,3.2c-0.3,0.7-1.3,3.9-1.3,3.9
						s2.5,0.8,5.1,0.7c2.7-0.1,4.8-0.4,4.8-0.4s-0.9-4-0.9-4.8c0-0.8,0.1-4.6,0.1-4.6s1.8-0.9,2.5-0.5c0,0-0.2-2.9-0.6-3.6
						c-0.4-0.7-2.3-1.3-2.7-1.6C27.7,7.6,27,7,26.8,6.9z"/>
				</g>
			</g>
		</g>
		<g>
			<g>
				<g>
					<path fill="#FFD15C" d="M21.3,17.9c0,0.3-0.1,0.5-0.1,0.5c0,0,0,0,0,0v0c0,0.1-0.3,2.8-0.4,4.4c-0.1,0.6-0.1,1.1-0.1,1.2
						c-0.1,0.2-0.3,0.7-0.4,1c-0.1,0.2-0.1,0.4-0.1,0.7c0.1,0.3,0,0.8-0.3,0.7c-0.1,0-0.2-0.1-0.2-0.2c-0.1-0.2-0.1-0.4-0.1-0.6
						c0-0.1,0-0.2,0-0.3c0-0.3-0.2-0.1-0.2-0.1l-0.5,0.4l-0.2-0.7c0-0.1,0-0.3,0.1-0.4c0.1-0.2,0.4-0.5,0.6-0.8
						c0.3-0.5,0.4-2.1,0.4-2.1s0-3.4,0.1-3.9c0-0.5,0.3-1.5,0.3-1.9v-2.7c0.2,0.1,0.3,0.1,0.4,0.1c0,0,0.4,1.7,0.6,2.4
						c0,0.1,0.1,0.2,0.1,0.3c0,0.4,0,0.7,0.1,1.1c0,0,0,0,0,0C21.4,17.1,21.3,17.5,21.3,17.9z"/>
				</g>
			</g>
		</g>
		<g>
			<g>
				<g>
					<path fill="#F26F5A" d="M26.9,44.6c0,0-0.2,0.3-0.4,0.9c-0.3,0.6-0.7,1.1-0.7,1.1s-0.6-0.7-1.5-0.7c-0.1,0-0.2-0.1-0.1-0.2l0,0
						c0,0-0.5,0.4-0.9,1.3c-0.4,1,0,0.9,0.1,0.9c0.1,0,2.2-0.1,2.8-0.7c0.5-0.7,0.7-1,1-1.1c0,0,0.1-0.1,0.1-0.1
						c0.1-0.1,0.1-0.2,0.1-0.4C27.2,45.3,27.1,44.6,26.9,44.6z"/>
				</g>
			</g>
		</g>
	</g>
	<g>
		<g>
			<g>
				<circle fill="#425A6B" cx="22.7" cy="13.6" r="0.8"/>
			</g>
		</g>
	</g>
	<g>
		<g>
			<g>
				<g>
					<g>
						<path fill="#425A6B" d="M25.9,13.9l-0.2-0.1l0.1-0.3l0.2,0.1c0.2,0.1,0.4,0,0.5-0.2l0.9-1.9c0,0,0-0.1,0-0.1
							c0.2-0.6,0-1.1-0.5-1.2c-0.2-0.1-0.5,0-0.8,0.1c-0.2,0.2-0.4,0.4-0.5,0.7l-0.7,1.8c-0.1,0.2,0,0.4,0.1,0.5l0.2,0.1l-0.1,0.3
							l-0.2-0.1c-0.3-0.1-0.4-0.4-0.2-0.8l0.7-1.8c0.1-0.3,0.4-0.6,0.7-0.8c0.3-0.2,0.6-0.3,0.9-0.2c0.6,0.1,0.9,0.8,0.6,1.5
							c0,0,0,0.1-0.1,0.1l-0.8,1.9C26.5,13.9,26.2,14,25.9,13.9z"/>
					</g>
				</g>
			</g>
		</g>
		<g>
			<g>
				<g>
					<g>
						<g>
							<path fill="#67C5B8" d="M25.3,10.9c0.2-0.3,0.4-0.6,0.7-0.8c0.3-0.2,0.7-0.3,1-0.2c0.3,0.1,0.6,0.3,0.7,0.6
								c0.1,0.3,0.1,0.7-0.1,1.1l-0.4-0.1c0.1-0.3,0.1-0.5,0-0.7c-0.1-0.2-0.2-0.4-0.5-0.4c-0.2-0.1-0.4,0-0.7,0.1
								c-0.2,0.1-0.4,0.3-0.5,0.6L25.3,10.9z"/>
						</g>
					</g>
				</g>
			</g>
		</g>
		<g>
			<g>
				<g>
					<g>
						<g>
							<path fill="#CED6E0" d="M25.3,13.5c-0.1,0.2-0.1,0.3-0.3,0.3c-0.1-0.1-0.2-0.3-0.1-0.4c0.1-0.2,0.3-0.3,0.4-0.2
								C25.5,13.2,25.4,13.3,25.3,13.5z"/>
						</g>
					</g>
				</g>
			</g>
			<g>
				<g>
					<g>
						<g>
							<path fill="#CED6E0" d="M25.5,13.6c-0.1,0.2-0.2,0.3,0,0.4c0.1,0.1,0.3,0,0.4-0.2c0.1-0.2,0-0.4-0.1-0.4
								C25.7,13.3,25.6,13.4,25.5,13.6z"/>
						</g>
					</g>
				</g>
			</g>
		</g>
	</g>
	<g>
		<g>
			<g>
				<path fill="#67C5B8" d="M22.7,13.3C22.7,13.3,22.7,13.3,22.7,13.3c-0.1,0-0.1-0.1-0.1-0.2c0,0,0.2-3.8,0.4-5.1
					c0.1-0.3,0.2-0.6,0.5-0.9c0.1-0.1,0.1-0.1,0.2,0c0.1,0.1,0.1,0.1,0,0.2c-0.2,0.2-0.3,0.5-0.4,0.8c-0.2,1.3-0.4,5-0.4,5
					C22.9,13.2,22.8,13.3,22.7,13.3z"/>
			</g>
		</g>
		<g>
			<g>
				<g>
					<path fill="#67C5B8" d="M27.2,10.1L27,10c0,0,1-2.4-0.1-3.2L27,6.6C28.3,7.5,27.3,10,27.2,10.1z"/>
				</g>
			</g>
		</g>
	</g>
	<g>
		<g>
			<g>
				<circle fill="#344A5E" cx="22.7" cy="13.3" r="0.4"/>
			</g>
		</g>
	</g>
</g>
</svg>
