<?xml version="1.0" encoding="utf-8"?>
<!-- Generator: Adobe Illustrator 18.0.0, SVG Export Plug-In . SVG Version: 6.00 Build 0)  -->
<!DOCTYPE svg PUBLIC "-//W3C//DTD SVG 1.1//EN" "http://www.w3.org/Graphics/SVG/1.1/DTD/svg11.dtd">
<svg version="1.1" id="Layer_1" xmlns="http://www.w3.org/2000/svg" xmlns:xlink="http://www.w3.org/1999/xlink" x="0px" y="0px"
	 viewBox="0 0 48 48" enable-background="new 0 0 48 48" xml:space="preserve">
<g>
	<g>
		<path fill="#4CDBC4" d="M48,10.7L36.7,6.2h-5.6l0,0c0,3.9-3.2,7.1-7.1,7.1S17,10.1,17,6.2l0,0h-5.6L0,10.7L4,21l7.4-2.9v23.7h25.3
			V18.2L44,21L48,10.7z"/>
	</g>
	<polygon fill="#40596B" points="4,21 5.9,20.2 5.9,20.2 1.9,9.9 0,10.7 	"/>
	<path fill="#40596B" d="M24.1,13.3c-3.9,0-7.1-3.2-7.1-7.1h-2.1v0c0,5,4.1,9.1,9.1,9.1c5,0,9.1-4.1,9.1-9.1v0h-2.1
		C31.1,10.1,28,13.3,24.1,13.3z"/>
	<polygon fill="#40596B" points="44,21 48,10.7 46.1,9.9 46.1,9.9 42.1,20.2 42.1,20.2 	"/>
</g>
</svg>
