<?xml version="1.0" encoding="utf-8"?>
<!-- Generator: Adobe Illustrator 18.0.0, SVG Export Plug-In . SVG Version: 6.00 Build 0)  -->
<!DOCTYPE svg PUBLIC "-//W3C//DTD SVG 1.1//EN" "http://www.w3.org/Graphics/SVG/1.1/DTD/svg11.dtd">
<svg version="1.1" id="Layer_1" xmlns="http://www.w3.org/2000/svg" xmlns:xlink="http://www.w3.org/1999/xlink" x="0px" y="0px"
	 viewBox="0 0 48 48" enable-background="new 0 0 48 48" xml:space="preserve">
<g>
	<g>
		<g>
			<g>
				<path fill="#F7B64C" d="M15.6,22.1v5.6c0,2.6,8.9,2.6,8.9,0v-5.6H15.6z"/>
			</g>
			<g>
				<g>
					<g>
						
							<ellipse transform="matrix(0.9892 0.1465 -0.1465 0.9892 2.469 -3.9645)" fill="#FFD15C" cx="28.1" cy="14.8" rx="1.6" ry="2.4"/>
					</g>
					<g>
						
							<ellipse transform="matrix(-0.9892 0.1465 -0.1465 -0.9892 25.8498 27.6541)" fill="#FFD15C" cx="11.9" cy="14.8" rx="1.6" ry="2.4"/>
					</g>
				</g>
				<g>
					<path fill="#415A6B" d="M29.4,8.9c0,8.9-4.2,10.9-9.3,10.9s-9.3-2-9.3-10.9C10.7,4,14.9,0,20,0S29.4,4,29.4,8.9z"/>
				</g>
				<g>
					<path fill="#FFD15C" d="M22.4,6.2c-2.2,2.6-5.5,4.4-9.9,4.4c-0.2,0-0.4,0-0.6,0c-0.2,0.9-0.2,1.7-0.2,2.6
						c0,6.2,3.7,11.2,8.3,11.2c4.6,0,8.3-5,8.3-11.2c0-1.1-0.1-2.2-0.4-3.3C25.7,9.3,23.8,7.9,22.4,6.2z"/>
				</g>
			</g>
			<g>
				<path fill="#415A6B" d="M40.1,40.9H0l2.6-8.7c0.6-1.9,2.1-3.4,4-4l7.4-2.2l5.9,2l5.9-2l7.4,2.2c1.9,0.6,3.5,2.1,4,4L40.1,40.9z"
					/>
			</g>
			<polygon fill="#E8EAE9" points="15.8,29.6 20,28 24.7,29.3 21,40.9 19.1,40.9 			"/>
			<g>
				<g>
					<polygon fill="#F3705A" points="21.4,32.1 22.7,30.7 20,28 17.3,30.7 18.7,32.1 					"/>
				</g>
				<g>
					<polygon fill="#F3705A" points="22.7,40.9 17.4,40.9 18.7,32.1 21.4,32.1 					"/>
				</g>
			</g>
			<polygon fill="#F3F3F3" points="24.5,23.1 26,26.1 23,32.3 20,28 			"/>
			<polygon fill="#344A5E" points="26,29.4 28.4,31.4 23.7,40.9 21,40.9 25.2,24.6 29.2,28.4 			"/>
			<g>
				<g>
					<polygon fill="#F3F3F3" points="15.6,23.1 14.1,26.1 17.1,32.3 20,28 					"/>
				</g>
				<g>
					<polygon fill="#344A5E" points="19.1,40.9 16.3,40.9 11.7,31.4 14.1,29.4 10.9,28.4 14.8,24.6 					"/>
				</g>
			</g>
		</g>
		<g>
			<g>
				<circle fill="#FFFFFF" cx="35.5" cy="35.5" r="11"/>
				<path fill="#8AD7F8" d="M35.5,48C28.6,48,23,42.4,23,35.5S28.6,23,35.5,23S48,28.6,48,35.5S42.4,48,35.5,48z M35.5,26
					c-5.2,0-9.5,4.3-9.5,9.5s4.3,9.5,9.5,9.5s9.5-4.3,9.5-9.5S40.7,26,35.5,26z"/>
			</g>
		</g>
		<g>
			<g>
				<path fill="#F3705A" d="M36.8,38.1h-2.7v-1.3c0-0.5,0.1-0.8,0.2-1.1c0.1-0.2,0.4-0.6,0.8-1l1.2-1.2c0.2-0.2,0.3-0.5,0.3-0.8
					c0-0.3-0.1-0.6-0.3-0.8c-0.2-0.2-0.4-0.3-0.7-0.3c-0.3,0-0.6,0.1-0.8,0.4c-0.2,0.3-0.3,0.6-0.4,1.1h-2.8
					c0.1-1.2,0.6-2.1,1.3-2.8c0.7-0.7,1.7-1,2.8-1c1.1,0,2,0.3,2.7,0.9c0.7,0.6,1,1.4,1,2.5c0,0.5-0.1,0.8-0.2,1.1
					C39.1,33.8,39,33.9,39,34c0,0.1-0.2,0.3-0.3,0.5c-0.2,0.2-0.3,0.3-0.3,0.4c-0.3,0.3-0.6,0.5-0.8,0.8c-0.3,0.2-0.4,0.5-0.5,0.6
					c-0.1,0.2-0.1,0.4-0.1,0.7V38.1z"/>
			</g>
			<circle fill="#F3705A" cx="35.5" cy="40.3" r="1.6"/>
		</g>
	</g>
</g>
</svg>
