<?xml version="1.0" encoding="utf-8"?>
<!-- Generator: Adobe Illustrator 19.0.1, SVG Export Plug-In . SVG Version: 6.00 Build 0)  -->
<svg version="1.1" id="Layer_1" xmlns="http://www.w3.org/2000/svg" xmlns:xlink="http://www.w3.org/1999/xlink" x="0px" y="0px"
	 viewBox="0 0 48 48" style="enable-background:new 0 0 48 48;" xml:space="preserve">
<style type="text/css">
	.st0{fill:#FFD15C;}
	.st1{fill:#415A6B;}
	.st2{fill:#F7B64C;}
	.st3{fill:#CED6E0;}
	.st4{fill:#344A5E;}
	.st5{fill:#F3F3F3;}
	.st6{fill:#F05540;}
	.st7{fill:#F3705A;}
	.st8{fill:#66C6B9;}
	.st9{fill:#55C0EB;}
	.st10{fill:#F5F6FB;}
	.st11{fill:#4ABAA5;}
	.st12{fill:#ADB3BA;}
	.st13{fill:#E8EAE9;}
	.st14{fill:#2E4556;}
	.st15{fill:#8AD7F8;}
	.st16{fill:#FFFFFF;}
	.st17{fill:#E54838;}
	.st18{fill:#3EAF99;}
	.st19{fill:#EFA943;}
	.st20{fill:#4CAEE5;}
	.st21{fill:#293F4F;}
	.st22{fill:#2D4456;}
	.st23{fill:#2E4454;}
	.st24{fill:#2A3F4F;}
	.st25{fill:#2D4151;}
	.st26{fill:#E89E3D;}
	.st27{fill:#2B4151;}
	.st28{fill:#2A4051;}
	.st29{fill:#2C4151;}
	.st30{fill:#EBEAE8;}
	.st31{fill:#3AA590;}
	.st32{fill:#E84534;}
	.st33{fill:none;}
</style>
<g>
	<g>
		<g>
			<g>
				<g>
					<path class="st8" d="M48,24.5v-5c0-1.6-1-3-2.4-3.5L40,13.9L36.3,14l-3.6-0.1L27.1,16c-1.5,0.5-2.4,1.9-2.4,3.5v5H48z"/>
				</g>
			</g>
			<g>
				<g>
					<path class="st1" d="M36.2,15h0.5l2.4,0.5c0,0-1.6,0.6-1.9,1.5c-0.4-0.2-0.8-0.2-1.2,0c0,0-0.6-1.1-1.3-1.5
						C34,15.1,36.2,15,36.2,15z"/>
				</g>
				<g>
					<path class="st1" d="M34.9,24.5h3.3c-0.1-2.1-0.1-3.7-0.2-4.2c0-1.3-0.9-3.4-0.9-3.4l-0.9-1l-0.2,1c0,0-1,2.6-1,3.9
						C35.1,21.2,35,22.6,34.9,24.5z"/>
				</g>
			</g>
			<g>
				<g>
					<path class="st13" d="M39.5,12.2L36.7,15c0,0,3.3,1.9,3.7,2.7c0,0,0.4-2.3,0.1-3C40.3,13.8,39.5,12.2,39.5,12.2z"/>
				</g>
				<g>
					<path class="st13" d="M33.4,12.2l2.7,2.7c0,0-3.3,1.9-3.7,2.7c0,0-0.4-2.3-0.1-3C32.6,13.8,33.4,12.2,33.4,12.2z"/>
				</g>
			</g>
			<g>
				<g>
					<path class="st0" d="M40.7,8.4c0,0-0.2,3.5-1.5,5.2s-3.5,1.8-4.9,0.5c-1.4-1.3-2-3.5-2.3-5.3c-0.3-1.8-0.2-5.5,0.1-6.4
						s6.7-1,7.4-0.5S41,6.9,40.7,8.4z"/>
				</g>
				<g>
					<path class="st0" d="M31.1,8.4c0.2,0.8,0.5,1.4,0.8,1.4c0.3,0,0.4-0.7,0.3-1.5c-0.2-0.8-0.5-1.4-0.8-1.4
						C31,7,30.9,7.6,31.1,8.4z"/>
				</g>
				<g>
					<path class="st1" d="M40.2,7.7l0.2,0c0,0,0-0.6,0.3-0.9c0.3-0.3,0.6-2.5,0.2-3.6S38.7-0.3,35.4,0c-3.3,0.3-4.2,3.1-4.4,3.7
						s0,2.9,0.4,3.5S32,8.8,32,8.8h0.2c0,0-0.2-1.1,0-2c0.2-0.9,0.7-1.9,0.5-2.6c-0.2-0.7,0-0.9,0.8-1c0.8-0.1,3.6,0.4,4.6,0.1
						c0.9-0.3,1.2,0,1.3,0.9c0.1,0.9,0.7,1.8,0.8,2C40.2,6.4,40.2,7.7,40.2,7.7z"/>
				</g>
				<g>
					<path class="st0" d="M41.4,7.7c-0.1,0.9-0.3,1.6-0.6,1.6c-0.3,0-0.5-0.7-0.4-1.6s0.3-1.6,0.6-1.6S41.5,6.8,41.4,7.7z"/>
				</g>
			</g>
		</g>
		<g>
			<g>
				<ellipse transform="matrix(0.9536 0.3011 -0.3011 0.9536 9.6221 -3.9108)" class="st0" cx="17.5" cy="29.3" rx="0.7" ry="1.6"/>
			</g>
			<g>
				<ellipse transform="matrix(-0.9844 0.1758 -0.1758 -0.9844 22.1099 56.0557)" class="st0" cx="8.6" cy="29" rx="0.7" ry="1.6"/>
			</g>
			<g>
				<path class="st0" d="M17.4,28.8l0.1,0.1c0,0-0.5,2.4-0.8,3l-0.2,4.3l-3.2,3.5l-3.5-3.3l0-3.1c0,0-1.2-2-1.2-4.9l0.1-5.2l7.9-0.9
					c0,0,0.6,1.3,0.9,3.2C17.6,27.3,17.4,28.8,17.4,28.8z"/>
			</g>
			<g>
				<path class="st1" d="M8.5,28.3l0.3,0c0-0.4,0-1.7,0.2-2.1c0.3-0.5,0-0.9,0.1-1.6c0.1-0.6,0.2-0.8,1.3-1.2c1.2-0.4,4.7,0,5.4-0.1
					s1.4,1.1,1.1,1.7c-0.3,0.6,0.2,0.9,0.3,1.8c0.1,0.6,0,1.5,0,2l0.2,0c0.2-0.7,0.7-2.2,0.7-3.4c0-1.6-0.7-3.6-1.8-4.6
					c-1.1-1-4.1-1.1-6,0c-2,1-2.3,3.3-2.2,4.2C8.1,26,8.4,27.8,8.5,28.3z"/>
			</g>
			<path class="st2" d="M14.6,34.6c-0.6,0.4-2,0.6-2.8,0.3c-0.9-0.2-2.1-1.7-2.1-1.7l0,3.1l1.4,1.4c0.8-0.3,1.9-0.8,2.8-1.6
				c1.8-1.5,2.7-4.2,2.7-4.2C16.4,32.4,15.2,34.2,14.6,34.6z"/>
			<g>
				<path class="st4" d="M26,48l-0.7-5.3c-0.3-2.3-1.8-4.3-4-5.2l-4-1.6L13,38.3l-4.3-2.4l-4,1.6c-2.2,0.9-3.7,2.9-4,5.2L0,48H26z"
					/>
			</g>
			<g>
				<g>
					<path class="st7" d="M14.9,38.3c0,0-1.3,1.5-1.5,2c-0.3-0.2-0.6-0.2-1,0c-0.2-0.5-1.5-2-1.5-2H14.9z"/>
				</g>
				<g>
					<path class="st7" d="M14.5,48c-0.1-2.3-0.2-4.3-0.2-4.7c-0.1-1.1-0.8-3-0.8-3l0.1-0.7l-0.8-0.1l-0.3,0.7c0,0-0.7,2-0.8,2.6
						c0,0.2-0.2,2.6-0.3,5.2H14.5z"/>
				</g>
			</g>
			<g>
				<g>
					<path class="st13" d="M16.5,34.1c0,0-0.2,0.7-0.6,1.4c-0.4,0.6-2.9,2.8-2.9,2.8s1.5,0.6,2.2,1.1c0.7,0.5,0.7,0.5,0.7,0.5
						s1.4-2.4,1.5-3c0.1-0.6,0-0.9-0.2-1.2C16.9,35.2,16.6,34.1,16.5,34.1z"/>
				</g>
			</g>
			<g>
				<g>
					<path class="st13" d="M9.7,34.1c0,0-0.1,0.8,0.4,1.4c0.4,0.6,2.9,2.8,2.9,2.8s-1.5,0.6-2.2,1.1s-0.7,0.5-0.7,0.5
						s-1.4-2.4-1.5-3c-0.1-0.6,0-0.9,0.2-1.2C9.1,35.2,9.6,34.1,9.7,34.1z"/>
				</g>
			</g>
		</g>
		<g>
			<g>
				<path class="st7" d="M45.4,37.8l2.6-1l-0.4-2.5l-2.8,0c-0.3-0.7-0.6-1.3-1.1-1.9l1.4-2.4l-2-1.7L41,30.1c-0.6-0.3-1.3-0.6-2-0.7
					l-0.5-2.7h-2.6l-0.5,2.7c-0.7,0.1-1.4,0.4-2,0.7l-2.2-1.8l-2,1.7l1.4,2.4c-0.4,0.6-0.8,1.2-1.1,1.9l-2.8,0l-0.4,2.5l2.6,1
					c0,0.7,0.1,1.4,0.4,2.1l-2.1,1.8l1.3,2.2l2.6-0.9c0.5,0.5,1,1,1.6,1.4l-0.5,2.8l2.4,0.9l1.4-2.4c0.4,0.1,0.7,0.1,1.1,0.1
					c0.4,0,0.7,0,1.1-0.1l1.4,2.4l2.4-0.9l-0.5-2.8c0.6-0.4,1.2-0.8,1.6-1.4l2.6,0.9l1.3-2.2L45,39.9C45.2,39.2,45.4,38.5,45.4,37.8
					z M37.1,40.3c-1.6,0-2.9-1.3-2.9-2.9c0-1.6,1.3-2.9,2.9-2.9s2.9,1.3,2.9,2.9C40,39,38.7,40.3,37.1,40.3z"/>
			</g>
			<path class="st6" d="M42.5,37.4c0-3-2.4-5.4-5.4-5.4c-3,0-5.4,2.4-5.4,5.4s2.4,5.4,5.4,5.4C40.1,42.8,42.5,40.4,42.5,37.4z
				 M34.3,37.4c0-1.6,1.3-2.9,2.9-2.9s2.9,1.3,2.9,2.9s-1.3,2.9-2.9,2.9S34.3,39,34.3,37.4z"/>
		</g>
		<g>
			<path class="st1" d="M16.8,10.6v-2c-4.9,0-9,3.3-10.2,7.9c-0.2-0.8-0.4-1.7-0.4-2.7C6.3,7.9,11,3.2,16.8,3.2v-2l5.8,4.7
				L16.8,10.6z"/>
		</g>
	</g>
</g>
</svg>
