<?xml version="1.0" encoding="utf-8"?>
<!-- Generator: Adobe Illustrator 18.0.0, SVG Export Plug-In . SVG Version: 6.00 Build 0)  -->
<!DOCTYPE svg PUBLIC "-//W3C//DTD SVG 1.1//EN" "http://www.w3.org/Graphics/SVG/1.1/DTD/svg11.dtd">
<svg version="1.1" id="Layer_1" xmlns="http://www.w3.org/2000/svg" xmlns:xlink="http://www.w3.org/1999/xlink" x="0px" y="0px"
	 viewBox="0 0 48 48" enable-background="new 0 0 48 48" xml:space="preserve">
<g>
	<g>
		<g>
			<path fill="#F3F3F3" d="M40.8,0H15.6L4.2,11.4V45c0,1.7,1.3,3,3,3h33.6c1.7,0,3-1.3,3-3V3C43.8,1.3,42.4,0,40.8,0z"/>
			<polygon fill="#8AD7F8" points="15.6,0 4.2,11.4 15.6,11.4 			"/>
		</g>
		<g>
			<path fill="#F3705A" d="M34.3,12.5l0.8,2.5C17.3,21,10.2,36.1,8.7,40c-0.2,0.5,0.1,1.1,0.6,1.2c0.5,0.1,1-0.1,1.1-0.5
				c1.4-3.6,8.2-18.2,25.3-24l0.8,2.5l3.1-4.8L34.3,12.5z"/>
			<g>
				<g>
					<path fill="#415A6B" d="M20.5,41.5c-2.1,0-3.8-1.7-3.8-3.8c0-2.1,1.7-3.8,3.8-3.8c2.1,0,3.8,1.7,3.8,3.8
						C24.3,39.8,22.6,41.5,20.5,41.5z M20.5,36c-1,0-1.8,0.8-1.8,1.8c0,1,0.8,1.8,1.8,1.8c1,0,1.8-0.8,1.8-1.8
						C22.3,36.8,21.5,36,20.5,36z"/>
				</g>
			</g>
			<g>
				<g>
					<g>
						<path fill="#415A6B" d="M15.8,19.2l1.3-1.3c0.4-0.4,0.4-1,0-1.4l0,0c-0.4-0.4-1-0.4-1.4,0l-1.3,1.3l-1.3-1.3
							c-0.4-0.4-1-0.4-1.4,0l0,0c-0.4,0.4-0.4,1,0,1.4l1.3,1.3l-1.3,1.3c-0.4,0.4-0.4,1,0,1.4c0.4,0.4,1,0.4,1.4,0l1.3-1.3l1.3,1.3
							c0.4,0.4,1,0.4,1.4,0v0c0.4-0.4,0.4-1,0-1.4L15.8,19.2z"/>
						<path fill="#415A6B" d="M31.8,29.7l1.3,1.3c0.4,0.4,0.4,1,0,1.4l0,0c-0.4,0.4-1,0.4-1.4,0l-1.3-1.3l-1.3,1.3
							c-0.4,0.4-1,0.4-1.4,0l0,0c-0.4-0.4-0.4-1,0-1.4l1.3-1.3l-1.3-1.3c-0.4-0.4-0.4-1,0-1.4l0,0c0.4-0.4,1-0.4,1.4,0l1.3,1.3
							l1.3-1.3c0.4-0.4,1-0.4,1.4,0l0,0c0.4,0.4,0.4,1,0,1.4L31.8,29.7z"/>
					</g>
				</g>
			</g>
		</g>
	</g>
</g>
</svg>
