<?xml version="1.0" encoding="utf-8"?>
<!-- Generator: Adobe Illustrator 18.0.0, SVG Export Plug-In . SVG Version: 6.00 Build 0)  -->
<!DOCTYPE svg PUBLIC "-//W3C//DTD SVG 1.1//EN" "http://www.w3.org/Graphics/SVG/1.1/DTD/svg11.dtd">
<svg version="1.1" id="Layer_1" xmlns="http://www.w3.org/2000/svg" xmlns:xlink="http://www.w3.org/1999/xlink" x="0px" y="0px"
	 viewBox="0 0 48 48" enable-background="new 0 0 48 48" xml:space="preserve">
<g>
	<g>
		<g>
			<path fill="#415A6B" d="M43,14.6H5c-1.1,0-2,0.9-2,2v26.7h42V16.5C45,15.4,44.1,14.6,43,14.6z"/>
			<rect x="6" y="17.5" fill="#8AD7F8" width="36.1" height="22.7"/>
			<g>
				<path fill="#E8EAE9" d="M48,43.2L48,43.2l-48,0v0C0,45.8,2.2,48,4.8,48h38.4C45.8,48,48,45.8,48,43.2z"/>
			</g>
			<polygon fill="#CED6E0" points="28.6,45.3 19.4,45.3 18.3,43.2 29.7,43.2 			"/>
		</g>
		<path fill="#F3F3F3" d="M36.6,37H11.4c-1.1,0-2-0.9-2-2V2c0-1.1,0.9-2,2-2h25.2c1.1,0,2,0.9,2,2v33C38.6,36.1,37.7,37,36.6,37z"/>
		<g>
			<g>
				<rect x="13.4" y="4.2" fill="#CED6E0" width="21.2" height="2"/>
			</g>
			<g>
				<rect x="13.4" y="10.9" fill="#CED6E0" width="9.4" height="2"/>
			</g>
			<g>
				<rect x="13.4" y="17.5" fill="#CED6E0" width="21.2" height="2"/>
			</g>
			<g>
				<rect x="13.4" y="24.2" fill="#CED6E0" width="21.2" height="2"/>
			</g>
			<g>
				<rect x="13.4" y="30.8" fill="#CED6E0" width="21.2" height="2"/>
			</g>
		</g>
		<g>
			<circle fill="#FFFFFF" cx="29.7" cy="22.2" r="9.4"/>
			<g>
				
					<rect x="35.3" y="27.8" transform="matrix(0.7071 -0.7071 0.7071 0.7071 -10.2525 35.3525)" fill="#344A5E" width="4.5" height="4.5"/>
				<path fill="#415A6B" d="M37.2,29.7c-4.1,4.1-10.8,4.1-15,0s-4.1-10.8,0-15c4.1-4.1,10.8-4.1,15,0S41.3,25.6,37.2,29.7z
					 M23.9,16.4c-3.2,3.2-3.2,8.4,0,11.6s8.4,3.2,11.6,0c3.2-3.2,3.2-8.4,0-11.6S27.1,13.2,23.9,16.4z"/>
				<path fill="#F3705A" d="M37.6,35.4l4.1,4.1c1.4,1.4,3.8,1.4,5.2,0l0,0c1.4-1.4,1.4-3.8,0-5.2l-4.1-4.1L37.6,35.4z"/>
				<g>
					
						<rect x="39.9" y="29.9" transform="matrix(0.7071 0.7071 -0.7071 0.7071 35.7749 -19.1807)" fill="#F05540" width="2.3" height="7.4"/>
				</g>
				<g>
					<g>
						<g>
							<path fill="#F3705A" d="M43.3,31.1l-4.8,4.8c-0.7,0.7-1.8,0.7-2.5,0c-0.7-0.7-0.7-1.8,0-2.5l4.8-4.8c0.7-0.7,1.8-0.7,2.5,0
								C44,29.3,44,30.4,43.3,31.1z"/>
						</g>
					</g>
				</g>
			</g>
			<g>
				<path fill="#4EC0AA" d="M34.5,18.6c-0.3-0.2-0.8-0.1-1.1,0.1l-5.6,5.6l-2.3-2.3c-0.3-0.3-0.9-0.3-1.3,0c-0.3,0.3-0.3,0.9,0,1.3
					l2.9,2.9c0.3,0.3,0.9,0.3,1.3,0l6.2-6.2C35.1,19.6,35,18.9,34.5,18.6z"/>
			</g>
		</g>
	</g>
</g>
</svg>
