<?xml version="1.0" encoding="utf-8"?>
<!-- Generator: Adobe Illustrator 19.0.1, SVG Export Plug-In . SVG Version: 6.00 Build 0)  -->
<svg version="1.1" id="Layer_1" xmlns="http://www.w3.org/2000/svg" xmlns:xlink="http://www.w3.org/1999/xlink" x="0px" y="0px"
	 viewBox="0 0 48 48" style="enable-background:new 0 0 48 48;" xml:space="preserve">
<style type="text/css">
	.st0{fill:#FFD15C;}
	.st1{fill:#415A6B;}
	.st2{fill:#F7B64C;}
	.st3{fill:#CED6E0;}
	.st4{fill:#344A5E;}
	.st5{fill:#F3F3F3;}
	.st6{fill:#F05540;}
	.st7{fill:#F3705A;}
	.st8{fill:#66C6B9;}
	.st9{fill:#55C0EB;}
	.st10{fill:#F5F6FB;}
	.st11{fill:#4ABAA5;}
	.st12{fill:#ADB3BA;}
	.st13{fill:#E8EAE9;}
	.st14{fill:#2E4556;}
	.st15{fill:#8AD7F8;}
	.st16{fill:#FFFFFF;}
	.st17{fill:#E54838;}
	.st18{fill:#3EAF99;}
	.st19{fill:#EFA943;}
	.st20{fill:#4CAEE5;}
	.st21{fill:#293F4F;}
	.st22{fill:#2D4456;}
	.st23{fill:#2E4454;}
	.st24{fill:#2A3F4F;}
	.st25{fill:#2D4151;}
	.st26{fill:#E89E3D;}
	.st27{fill:#2B4151;}
	.st28{fill:#2A4051;}
	.st29{fill:#2C4151;}
	.st30{fill:#EBEAE8;}
	.st31{fill:#3AA590;}
	.st32{fill:#E84534;}
	.st33{fill:none;}
</style>
<g>
	<g>
		<g>
			<g>
				<g>
					<g>
						<polygon class="st17" points="37.4,38.3 37.4,38.3 37.4,45.6 39.1,48 47,48 47,48 39.1,39.3 						"/>
					</g>
				</g>
				<g>
					<polygon class="st6" points="47,39.3 44.2,38.3 37.4,38.3 39.1,39.3 47,48 					"/>
				</g>
				<g>
					<g>
						<rect x="39.1" y="39.3" class="st7" width="7.9" height="8.7"/>
					</g>
				</g>
			</g>
			<g>
				<g>
					<g>
						<polygon class="st18" points="24.9,32.1 24.9,32.1 24.9,45.6 26.6,48 34.5,48 34.5,48 26.6,33.1 						"/>
					</g>
				</g>
				<g>
					<polygon class="st11" points="34.5,33.1 31.7,32.1 24.9,32.1 26.6,33.1 34.5,48 					"/>
				</g>
				<g>
					<g>
						<rect x="26.6" y="33.1" class="st8" width="7.9" height="14.9"/>
					</g>
				</g>
			</g>
			<g>
				<g>
					<g>
						<polygon class="st19" points="12.5,22.4 12.5,22.4 12.5,45.6 14.1,48 22.1,48 22.1,48 14.1,23.5 						"/>
					</g>
				</g>
				<g>
					<polygon class="st2" points="22.1,23.5 19.2,22.4 12.5,22.4 14.1,23.5 22.1,48 					"/>
				</g>
				<g>
					<g>
						<rect x="14.1" y="23.5" class="st0" width="7.9" height="24.5"/>
					</g>
				</g>
			</g>
			<g>
				<g>
					<g>
						<polygon class="st20" points="0,13.4 0,13.4 0,45.6 1.7,48 9.6,48 9.6,48 1.7,14.4 						"/>
					</g>
				</g>
				<g>
					<polygon class="st9" points="9.6,14.4 7.7,13.4 0,13.4 1.7,14.4 9.6,48 					"/>
				</g>
				<g>
					<g>
						<rect x="1.7" y="14.4" class="st15" width="7.9" height="33.6"/>
					</g>
				</g>
			</g>
		</g>
	</g>
	<g>
		<g>
			<g>
				<path class="st3" d="M27.6,23.8c0,0,0.7-1.1,0.7-1.1l-1.5-0.4l-1.1,0.8L27.6,23.8z"/>
			</g>
		</g>
		<g>
			<g>
				<path class="st4" d="M23.6,23l-0.2,0c0,0-0.1,0.1,0,0.2c0.1,0.1,0.9,0.7,1.5,0.8c0.6,0.1,1,0.1,1.2,0.2l-0.1,0.2
					c0,0,0.9,0.4,1.1,0.4c0.2,0,0.4-0.2,0.4-0.4s0-0.1,0-0.1l-2.7-1L23.6,23z"/>
			</g>
		</g>
		<g>
			<g>
				<path class="st3" d="M43.2,24.1l0.6,0.1l0.7,0.3l-0.1,1.8l-0.5-0.1c0,0-0.8-0.8-2.2-1.1C40.2,24.9,43.2,24.1,43.2,24.1z"/>
			</g>
		</g>
		<g>
			<g>
				<path class="st4" d="M44.9,24.4L45,24h0.4l0.2,1.4h-0.2c0,0,0.5,1.6,0.5,2.4c0,0.8,0,1.5-0.3,1.4l-0.2-1.8L44.9,24.4z"/>
			</g>
		</g>
		<g>
			<g>
				<path class="st1" d="M39.4,15.8c0,0-0.1,1.1-0.8,2.4c-0.7,1.2-0.6,3.6-0.6,3.6s4.2,1.7,4.9,2c0.7,0.3,0.7,0.3,0.7,0.3
					s-1.1,2-1.3,2.3c0,0-1.3-0.9-3-1.5c-1.6-0.5-3.3-0.9-3.7-1.7s-0.4-4.9-0.4-4.9s-2.1,1-3,1.6s-4.5,3.6-4.5,3.6s-1.4-0.3-1.6-1.5
					c0,0,3.9-3.2,4.1-3.5c0.2-0.3,2.4-2.2,3.1-2.9c0.7-0.6,1.7-1,1.7-1L39.4,15.8z"/>
			</g>
		</g>
		<g>
			<g>
				<path class="st4" d="M35.1,10.5l-2.7,4.2c0,0,1.5,0.3,2.7,0.3s1.3-0.1,1.3-0.1S36.7,10.9,35.1,10.5z"/>
			</g>
		</g>
		<g>
			<g>
				<path class="st0" d="M31.6,2.6l0.6-0.4c0,0,0.1-0.1,0.1-0.1l0.3-0.3c0.1-0.1,0.1-0.2,0.1-0.3l0-0.3c0,0-0.3-0.2-0.4,0.3
					c0,0-0.2,0.2-0.3,0.2c-0.1,0-0.2-0.1-0.2-0.1s0-0.4,0-0.5c0,0,0.1-0.4,0-0.6c0-0.1-0.2-0.5-0.2-0.5s-0.3-0.1-0.2,0.2
					s0.1,0.3,0.1,0.3l0,0.3h-0.1c0,0,0-0.2-0.1-0.4C31.3,0.2,31.1,0,31.1,0s-0.2,0-0.2,0.1s0.1,0.4,0.1,0.4s-0.2-0.3-0.3-0.4
					c-0.1-0.1-0.2,0.1-0.1,0.2s0.1,0.3,0.1,0.3V1l-0.1,0c0,0-0.1-0.2-0.1-0.5c-0.1-0.2,0-0.3-0.2-0.4s-0.2,0.1-0.2,0.3
					c0,0.2,0.1,0.5,0.1,0.6s0,0.9,0.2,1.4s0.2,1.9,0.2,1.9l1.1-0.7L31.6,2.6z"/>
			</g>
		</g>
		<g>
			<g>
				<path class="st4" d="M35.1,6.7c0-0.1,0.1-0.3,0.1-0.4c-0.2,0-0.4,0.1-0.5,0c-0.2-0.1-1.1-0.2-1.5-0.2C32.9,6,33.1,6,33.1,5.7
					c-0.1-0.2-0.8-1-0.9-1.3c0-0.3-0.5-1.4-0.5-1.4c-0.3,0.6-1.6,0.8-1.6,0.8s1.3,2.7,1.4,3.2s0.6,0.6,1.5,0.9
					c0.8,0.3,1.7,0.4,1.7,0.4l0.2-0.4C34.9,7.5,35,7.1,35.1,6.7z"/>
			</g>
		</g>
		<g>
			<g>
				<path class="st0" d="M45.2,13.8l0.2,0.5l-0.3,1c0,0-0.1,0.2,0,0.2l0,0.3c0,0,0.5,0.1,0.4-0.5c0,0,0.1-0.4,0.2-0.4
					s0.3,0.2,0.4,0.3c0,0.1,0.2,0.4,0.2,0.4c0,0,0.3,0.6,0.5,0.5s0-0.4-0.1-0.6c0,0,0.3,0.5,0.5,0.5c0.1,0,0.2-0.1,0.1-0.3
					S47,15.2,47,15.2l0,0c0,0,0.3,0.5,0.5,0.4c0.2-0.1-0.2-0.5-0.3-0.6c0,0,0-0.1,0-0.1s0.5,0.5,0.6,0.4c0.2-0.1-0.1-0.4-0.2-0.5
					c-0.1-0.1-0.3-0.3-0.4-0.5s-0.4-0.6-0.7-1c-0.3-0.3-0.3-0.3-0.3-0.3L45.2,13.8z"/>
			</g>
		</g>
		<g>
			<g>
				<g>
					<g>
						<g>
							<path class="st0" d="M35.5,2.4c0,0-0.3,0.6-0.3,0.8c0,0.2,0,0.2,0,0.3S34.9,4,34.9,4s0,0.2,0.1,0.2c0.1,0,0.1,0.3,0.1,0.3
								s0,0.1,0.1,0.1c0,0-0.1,0.1,0,0.2c0.1,0.1,0.1,0.2,0,0.4s0.3,0.3,0.5,0.3c0.3,0,0.7,0.5,0.7,0.8c0,0.4,0,0.4,0,0.4L37.7,6
								c0.4-0.3,0.6-0.8,0.6-1.3l0-0.2c0,0-0.7-2.4-1.2-2.7S35.5,2.4,35.5,2.4z"/>
						</g>
					</g>
					<g>
						<g>
							<path class="st2" d="M35.8,5.6c0.1,0,0.4,0.1,0.5,0.3c0.5-0.4,0.8-1,0.9-1.2C36.9,5.1,35.8,5.6,35.8,5.6z"/>
						</g>
					</g>
					<g>
						<g>
							<path class="st3" d="M36.2,5.7c0,0-1.1,0.4-1.3,1.2c-0.2,0.8,0.2,3.3,0.2,3.3s0.3,3.8,0.4,4.6l2.7-0.3V5.4l-1.8,0.8L36.2,5.7
								z"/>
						</g>
					</g>
					<g>
						<g>
							<polygon class="st5" points="36.2,5.7 36.5,6 36,6.9 35.8,5.8 							"/>
						</g>
					</g>
					<g>
						<g>
							<path class="st1" d="M35.5,2.4c0,0,0.6-0.2,0.9-0.2c0,0-0.2,0.6,0.1,0.9c0.2,0.3,0,0.8,0,0.8h0.3c0,0,0-0.6,0.5-0.6
								s0.5,1.1,0.6,1.2c0.1,0,0.3,0.1,0.5-0.2C38.5,4.1,39,2.8,38.6,2s-1.5-0.9-2.3-0.7C35.5,1.4,35.1,1.8,35.5,2.4z"/>
						</g>
					</g>
				</g>
			</g>
			<g>
				<g>
					<ellipse transform="matrix(0.9732 0.23 -0.23 0.9732 1.8588 -8.4448)" class="st0" cx="37.2" cy="3.8" rx="0.4" ry="0.5"/>
				</g>
			</g>
		</g>
		<g>
			<g>
				<path class="st5" d="M38.3,4.7c0,0-0.8,0.2-1.2,0.7c-0.5,0.5-0.7,0.8-0.7,0.8l0.2,1l1.8-1.7l0.1-0.2C38.4,5.1,38.4,4.9,38.3,4.7
					L38.3,4.7z"/>
			</g>
		</g>
		<g>
			<g>
				<path class="st1" d="M35.4,6.4c-0.2,0.5-0.1,2.4-0.1,3.2c0,0.9,0.6,0.6,0.1,1.3c-0.5,0.7-1.9,2.5-2.3,3
					c-0.4,0.4-0.6,0.7-0.6,0.7c0,0,0.4-0.9,0.6-1.7c0.2-0.8,0.1-1,0.4-1.6c0.3-0.6,0.7-1.1,0.8-1.7c0.1-0.6,0.2-1.7,0.4-2.3
					c0.1-0.5,0.6-1.4,1-1.8c0.1,0,0.2,0.1,0.4,0c0.1,0,0.2,0,0.3,0.1C35.9,5.8,35.5,6.1,35.4,6.4z"/>
			</g>
		</g>
		<g>
			<g>
				<path class="st4" d="M37.5,10.9l-0.1,0.7c0,0-0.1,0.4-0.6,0.8c-0.5,0.4-0.9,0.6-1.1,1.2s-0.3,1.6-0.2,1.9
					c0.2,0.3,3.6,1.3,4.2,0.9c0,0,0-3.3,0.3-4.3c0.3-1,0.6-2,0.6-2.8s0.5-2.9-0.1-3.5s-1.3,0-1.3,0s-0.6-0.5-1-0.5
					c-0.4,0.1-0.5,0.3-0.7,0.9C37.5,6.7,37.5,10.9,37.5,10.9z"/>
			</g>
		</g>
		<g>
			<g>
				<path class="st1" d="M38.3,4.7c0,0,0,0.1-0.4,0.5c-0.4,0.4-0.9,2-0.8,3s0.5,2.9,0.4,3.4c0,0,0.3-1.1,0.3-2S37.5,7.1,38,6.3
					l-0.2,0C37.8,6.3,38.8,5.5,38.3,4.7z"/>
			</g>
		</g>
		<g>
			<g>
				<path class="st1" d="M40.7,9.2c0,0-1-0.4-1.2-1.7s0.6-2.3,1.1-1.8c0.5,0.5,0.6,1.1,0.6,1.1s0.8,0.8,1.4,1.2
					c0.6,0.4,1.1,0.8,1.7,1.3c0.6,0.5,2.7,3.6,2.8,4.1c0,0-1.6,0.8-1.7,1c0,0-1-1.8-1.7-2.5C42.8,11.1,41.3,9.4,40.7,9.2z"/>
			</g>
		</g>
		<g>
			<g>
				<path class="st1" d="M43.8,24.2c0,0,0.5,0.9,0.4,1.4c-0.1,0.5-0.4,0.8-0.4,0.8s1,0.9,1.3,1.6c0.3,0.8,0.3,1.2,0.5,1.2
					c0,0,0.2-0.8,0.1-1.5s-0.4-1.8-0.5-2.2S45,24.1,45,24C45,24,44.7,23.7,43.8,24.2z"/>
			</g>
		</g>
		<g>
			<g>
				<path class="st1" d="M27.7,23.6c0,0-0.7,0-0.8-0.2c-0.1-0.3-0.6-0.8-0.6-0.8s-0.7,0.3-0.9,0.4c-0.2,0.1-0.7,0.1-1.1,0
					c-0.4-0.1-0.6-0.1-0.8,0.1c0,0,0.9,0.7,1.5,0.8s1.2,0.1,1.5,0.4c0.4,0.2,1,0.4,1.2,0.3C27.6,24.4,28,23.8,27.7,23.6z"/>
			</g>
		</g>
	</g>
</g>
</svg>
