<?xml version="1.0" encoding="utf-8"?>
<!-- Generator: Adobe Illustrator 18.0.0, SVG Export Plug-In . SVG Version: 6.00 Build 0)  -->
<!DOCTYPE svg PUBLIC "-//W3C//DTD SVG 1.1//EN" "http://www.w3.org/Graphics/SVG/1.1/DTD/svg11.dtd">
<svg version="1.1" id="Layer_1" xmlns="http://www.w3.org/2000/svg" xmlns:xlink="http://www.w3.org/1999/xlink" x="0px" y="0px"
	 viewBox="0 0 48 48" enable-background="new 0 0 48 48" xml:space="preserve">
<g>
	<g>
		<g>
			<path fill="#66C6B9" d="M44.8,48H3.2C1.4,48,0,46.6,0,44.8V6.1c0-1.8,1.4-3.2,3.2-3.2h41.6c1.8,0,3.2,1.4,3.2,3.2v38.7
				C48,46.6,46.6,48,44.8,48z"/>
			<g>
				<circle fill="#344A5E" cx="10.6" cy="8.4" r="2.7"/>
			</g>
			<path fill="#CED6E0" d="M10.6,0c-1,0-1.8,0.8-1.8,1.8V8c0,1,0.8,1.8,1.8,1.8c1,0,1.8-0.8,1.8-1.8V1.8C12.3,0.8,11.6,0,10.6,0z"/>
			<g>
				<g>
					<circle fill="#344A5E" cx="37.4" cy="8.4" r="2.7"/>
				</g>
				<path fill="#CED6E0" d="M37.4,0c-1,0-1.8,0.8-1.8,1.8V8c0,1,0.8,1.8,1.8,1.8c1,0,1.8-0.8,1.8-1.8V1.8C39.2,0.8,38.4,0,37.4,0z"
					/>
			</g>
		</g>
		<g>
			<rect x="4.3" y="14" fill="#FFFFFF" width="39.4" height="29.7"/>
		</g>
		<g>
			<path fill="#F3705A" d="M24,40.8c-6.6,0-11.9-5.4-11.9-11.9c0-6.6,5.4-11.9,11.9-11.9c6.6,0,11.9,5.4,11.9,11.9
				C35.9,35.4,30.6,40.8,24,40.8z"/>
			<path fill="#FFFFFF" d="M24,37.5c4.8,0,8.7-3.9,8.7-8.7c0-4.8-3.9-8.7-8.7-8.7c-4.8,0-8.7,3.9-8.7,8.7
				C15.3,33.6,19.2,37.5,24,37.5z"/>
			<path fill="#F3705A" d="M24,34.3c-3,0-5.4-2.4-5.4-5.4c0-3,2.4-5.4,5.4-5.4c3,0,5.4,2.4,5.4,5.4C29.4,31.8,27,34.3,24,34.3z"/>
			<circle fill="#FFFFFF" cx="24" cy="28.9" r="2.1"/>
		</g>
	</g>
</g>
</svg>
