<?xml version="1.0" encoding="utf-8"?>
<!-- Generator: Adobe Illustrator 20.1.0, SVG Export Plug-In . SVG Version: 6.00 Build 0)  -->
<!DOCTYPE svg PUBLIC "-//W3C//DTD SVG 1.1//EN" "http://www.w3.org/Graphics/SVG/1.1/DTD/svg11.dtd">
<svg version="1.1" id="Layer_1" xmlns="http://www.w3.org/2000/svg" xmlns:xlink="http://www.w3.org/1999/xlink" x="0px" y="0px"
	 viewBox="0 0 49 49" enable-background="new 0 0 49 49" xml:space="preserve">
<g>
	<path fill="#F8B64C" d="M31.3,0.5c1.1,5.3-10.2,6.3-10.2,6.3l5.2,2.8c0,0,6.6,1.8,8.7-1.5C37.1,4.8,31.3,0.5,31.3,0.5z"/>
	<path fill="#FFD15C" d="M29.1,6h-9.2c-3.8,0-6.8,3-6.8,6.8h22.8C35.9,9,32.9,6,29.1,6z"/>
	<path fill="#F8B64C" d="M33.8,10.6H15.2c-3.8,0-6.8,3-6.8,6.8l0,0h32.2l0,0C40.6,13.7,37.6,10.6,33.8,10.6z"/>
	<path fill="#CDD6E0" d="M43.2,24.3H5.8c-1.4,0-2.4,1.3-2.1,2.7l0.9,3.8l4.6,16c0.2,1,1.1,1.7,2.1,1.7h26.4c1,0,1.9-0.7,2.1-1.7
		l4.6-16l0.9-3.8C45.6,25.6,44.6,24.3,43.2,24.3z"/>
	<path fill="#F2F2F2" d="M43.9,22.5H5.1c-1.7,0-3.1,1.4-3.1,3.1v0.6c0,1.7,1.4,3.1,3.1,3.1h38.7c1.7,0,3.1-1.4,3.1-3.1v-0.6
		C47,23.9,45.6,22.5,43.9,22.5z"/>
	<path fill="#ACB3BA" d="M43.9,29.3H5.1c-0.3,0-0.6-0.1-0.9-0.1l0.4,1.6c0.2,0,0.3,0,0.5,0h38.7c0.2,0,0.4,0,0.5,0l0.4-1.6
		C44.5,29.3,44.2,29.3,43.9,29.3z"/>
	<path fill="#FFD15C" d="M38,15.6H11c-3.8,0-6.8,3-6.8,6.8h40.5C44.8,18.7,41.7,15.6,38,15.6z"/>
</g>
</svg>
