<?xml version="1.0" encoding="utf-8"?>
<!-- Generator: Adobe Illustrator 18.0.0, SVG Export Plug-In . SVG Version: 6.00 Build 0)  -->
<!DOCTYPE svg PUBLIC "-//W3C//DTD SVG 1.1//EN" "http://www.w3.org/Graphics/SVG/1.1/DTD/svg11.dtd">
<svg version="1.1" id="Layer_1" xmlns="http://www.w3.org/2000/svg" xmlns:xlink="http://www.w3.org/1999/xlink" x="0px" y="0px"
	 viewBox="0 0 48 48" enable-background="new 0 0 48 48" xml:space="preserve">
<g>
	<g>
		<path fill="#F3705A" d="M19.4,40.8l-2.4-10.3h-9l2.9,12.3c0.5,2,2.3,3.4,4.3,3.4C17.9,46.2,20,43.6,19.4,40.8z"/>
		<path fill="#415A6B" d="M41.2,15.6c3.7,0,6.8,3,6.8,6.8s-3,6.8-6.8,6.8"/>
		<path fill="#F3705A" d="M38.8,42.9c-1.4,0-2.5-1.1-2.5-2.5V4.2c0-1.4,1.1-2.5,2.5-2.5s2.5,1.1,2.5,2.5v36.2
			C41.3,41.8,40.2,42.9,38.8,42.9z"/>
		<path fill="#E8EAE9" d="M18.1,13.4v17.8c7.8,1.9,15.1,6.1,18.2,9.2V4.2C33.2,7.4,25.9,11.5,18.1,13.4z"/>
		<path fill="#415A6B" d="M18.8,32.1h-9c-5.4,0-9.8-4.4-9.8-9.8v0c0-5.4,4.4-9.8,9.8-9.8h9c0.5,0,1,0.4,1,1v17.7
			C19.8,31.7,19.4,32.1,18.8,32.1z"/>
	</g>
</g>
</svg>
