<?xml version="1.0" encoding="utf-8"?>
<!-- Generator: Adobe Illustrator 18.0.0, SVG Export Plug-In . SVG Version: 6.00 Build 0)  -->
<!DOCTYPE svg PUBLIC "-//W3C//DTD SVG 1.1//EN" "http://www.w3.org/Graphics/SVG/1.1/DTD/svg11.dtd">
<svg version="1.1" id="Layer_1" xmlns="http://www.w3.org/2000/svg" xmlns:xlink="http://www.w3.org/1999/xlink" x="0px" y="0px"
	 viewBox="0 0 48 48" enable-background="new 0 0 48 48" xml:space="preserve">
<g>
	<rect x="14.7" y="21" fill="#F2F2F2" width="18.7" height="5.9"/>
	<g>
		<path fill="#334A5E" d="M7.1,13.9c-1.4,0-2.5,1.1-2.5,2.5v15.2c0,1.4,1.1,2.5,2.5,2.5c1.4,0,2.5-1.1,2.5-2.5V16.4
			C9.6,15,8.5,13.9,7.1,13.9z"/>
		<path fill="#40596B" d="M12.1,9.2c-1.4,0-2.5,1.1-2.5,2.5v24.6c0,1.4,1.1,2.5,2.5,2.5c1.4,0,2.5-1.1,2.5-2.5V11.7
			C14.7,10.3,13.5,9.2,12.1,9.2z"/>
	</g>
	<g>
		<path fill="#334A5E" d="M40.9,13.9c-1.4,0-2.5,1.1-2.5,2.5v15.2c0,1.4,1.1,2.5,2.5,2.5s2.5-1.1,2.5-2.5V16.4
			C43.4,15,42.3,13.9,40.9,13.9z"/>
		<path fill="#40596B" d="M35.9,9.2c-1.4,0-2.5,1.1-2.5,2.5v24.6c0,1.4,1.1,2.5,2.5,2.5c1.4,0,2.5-1.1,2.5-2.5V11.7
			C38.4,10.3,37.3,9.2,35.9,9.2z"/>
	</g>
	<g>
		<rect x="2.3" y="18.6" fill="#CDD6E0" width="2.3" height="10.8"/>
	</g>
	<g>
		<path fill="#F2F2F2" d="M1.8,20.4h0.5l0,7.3H1.8c-1,0-1.8-0.8-1.8-1.8l0-3.7C0,21.2,0.8,20.4,1.8,20.4z"/>
	</g>
	<g>
		<g>
			<g>
				<rect x="43.4" y="18.6" fill="#CDD6E0" width="2.3" height="10.8"/>
			</g>
			<g>
				<path fill="#F2F2F2" d="M46.2,27.6h-0.5v-7.3h0.5c1,0,1.8,0.8,1.8,1.8v3.7C48,26.8,47.2,27.6,46.2,27.6z"/>
			</g>
		</g>
	</g>
</g>
</svg>
