<?xml version="1.0" encoding="utf-8"?>
<!-- Generator: Adobe Illustrator 18.0.0, SVG Export Plug-In . SVG Version: 6.00 Build 0)  -->
<!DOCTYPE svg PUBLIC "-//W3C//DTD SVG 1.1//EN" "http://www.w3.org/Graphics/SVG/1.1/DTD/svg11.dtd">
<svg version="1.1" id="Layer_1" xmlns="http://www.w3.org/2000/svg" xmlns:xlink="http://www.w3.org/1999/xlink" x="0px" y="0px"
	 viewBox="0 0 48 48" enable-background="new 0 0 48 48" xml:space="preserve">
<g>
	<path fill="#F2F2F2" d="M37.2,48H10.8c-1.1,0-2-0.9-2-2V17.3c0-1.2,0.3-2.4,0.8-3.5l0,0c1.3-2.7,4.1-4.3,7-4.3h14.6
		c3,0,5.7,1.7,7,4.3l0,0c0.5,1.1,0.8,2.3,0.8,3.5V46C39.2,47.1,38.3,48,37.2,48z"/>
	<rect x="16.7" y="8.1" fill="#F2F2F2" width="14.6" height="1.3"/>
	<path fill="#40596B" d="M31.9,0H15.6c-0.6,0-1,0.4-1,1v6.1c0,0.6,0.4,1,1,1h16.2c0.6,0,1-0.4,1-1V1C32.9,0.4,32.4,0,31.9,0z"/>
	<rect x="8.8" y="19.7" fill="#F8B64C" width="30.3" height="17.9"/>
	<rect x="8.8" y="20.6" fill="#FFD15C" width="30.3" height="16.3"/>
	<g>
		<rect x="16.2" y="1.6" fill="#334A5E" width="1.2" height="4.8"/>
		<rect x="20.8" y="1.6" fill="#334A5E" width="1.2" height="4.8"/>
		<rect x="25.5" y="1.6" fill="#334A5E" width="1.2" height="4.8"/>
		<rect x="30.1" y="1.6" fill="#334A5E" width="1.2" height="4.8"/>
	</g>
	<path fill="#FF7058" d="M28.1,29.5l-2.8-1.3l2.8-6c0.1-0.2-0.2-0.5-0.4-0.3l-7.9,5.5c-0.2,0.1-0.1,0.4,0,0.5l2.8,1.3l-2.8,6
		c-0.1,0.2,0.2,0.5,0.4,0.3l7.9-5.5C28.3,29.9,28.3,29.6,28.1,29.5z"/>
</g>
</svg>
