<?xml version="1.0" encoding="utf-8"?>
<!-- Generator: Adobe Illustrator 18.0.0, SVG Export Plug-In . SVG Version: 6.00 Build 0)  -->
<!DOCTYPE svg PUBLIC "-//W3C//DTD SVG 1.1//EN" "http://www.w3.org/Graphics/SVG/1.1/DTD/svg11.dtd">
<svg version="1.1" id="Layer_1" xmlns="http://www.w3.org/2000/svg" xmlns:xlink="http://www.w3.org/1999/xlink" x="0px" y="0px"
	 viewBox="0 0 48 48" enable-background="new 0 0 48 48" xml:space="preserve">
<g>
	<g>
		<g>
			<g>
				<path fill="#66C6B9" d="M24.7,9.7c0,0,0.1,1.3,0.1,3.4c0,2-0.1,4.7-0.4,7.5c-0.2,1.4-0.4,2.7-0.6,4c-0.3,1.3-0.6,2.5-0.9,3.5
					c-0.3,1-0.6,1.9-0.8,2.5c-0.2,0.6-0.4,0.9-0.4,0.9L17.5,29c0,0,0.2-0.3,0.5-0.7c0.3-0.4,0.7-1.1,1.2-1.9c0.5-0.8,1-1.8,1.5-2.9
					c0.5-1.1,1-2.3,1.4-3.5c0.9-2.5,1.6-5,2-7C24.5,11,24.7,9.7,24.7,9.7z"/>
			</g>
			<g>
				<path fill="#66C6B9" d="M45.8,25.7C37.7,27,27.5,35.9,27.5,35.9l-1.6-1.6C33.6,29.7,41,25.7,45.8,25.7z"/>
			</g>
			<g>
				<path fill="#66C6B9" d="M44,28.7c0,0-9.6,3.3-15.6,7.2l-1.3-2.1C27.1,33.7,37.1,29.6,44,28.7z"/>
			</g>
			<g>
				<path fill="#66C6B9" d="M31.7,32.2C33.4,24.3,42.8,20,48,19.4c-14.5-1.1-19,6.7-20.2,12.5L31.7,32.2z"/>
			</g>
			<g>
				<path fill="#66C6B9" d="M21.8,28.2c9.5-1.8,14.8-12.9,15.6-19.1c0.8,17.3-8.5,22.5-15.4,23.6L21.8,28.2z"/>
			</g>
			<g>
				<path fill="#66C6B9" d="M16.5,23.8c-1.2-9.6,7.6-18.1,13.2-20.9C13,7.6,11,18.1,12.1,25L16.5,23.8z"/>
			</g>
			<g>
				<path fill="#66C6B9" d="M10.7,19.7l-1.3-0.4c0,0,2.7-8.5,2.6-13.1C12.1,7,12.4,12.7,10.7,19.7z"/>
			</g>
			<g>
				<path fill="#66C6B9" d="M11.1,23.3L10,22.9c0,0,2.6-7.3,2.6-11.4C12.7,12.3,12.7,17.2,11.1,23.3z"/>
			</g>
			<g>
				<path fill="#66C6B9" d="M16.1,2.5c0,0-1.2,10.6-5.6,17.5l2.3,1.5C12.8,21.5,17.1,12.6,16.1,2.5z"/>
			</g>
			<g>
				<g>
					<path fill="#F3F3F3" d="M16.3,48C9.7,47.7,3.8,43.5,1.5,37.3c1.9,0.6,5.5,0.1,7.7-0.6c0.7-0.2,1-0.9,0.8-1.5
						c-1.6-5.2-2.6-16,0-23.2c7.6,8.7,16.8,15.3,27.5,19.8c-6,4.8-16.6,7.2-22,7.4c-0.7,0-1.2,0.6-1.2,1.2
						C14.4,42.7,15.1,46.3,16.3,48z"/>
				</g>
				<g>
					<path fill="#E8EAE9" d="M11.8,38.2c9.9-1.1,15.7-3.7,15.7-3.7c-3.8,2.9-15.1,3.9-15.1,3.9s1-6.8,0.4-10.8
						c-0.4-3.3-0.2-4.2-0.2-4.2s0.6,3.3,0.6,4.1c0.5,8.5-0.9,11-0.9,11"/>
				</g>
				<g>
					<path fill="#E8EAE9" d="M22,32.8c-1.6,2.4-9.7,5.8-9.7,5.8l-1-0.7C14.9,37.5,22,32.8,22,32.8z"/>
				</g>
				<g>
					<path fill="#E8EAE9" d="M11.6,38.9c-0.9,1.5-3.4,2.4-4.8,2.8c2.2-0.8,4.5-3,4.5-3L11.6,38.9z"/>
					<path fill="#E8EAE9" d="M6.8,41.7c-0.3,0.1-0.5,0.1-0.7,0.2C6.3,41.9,6.6,41.8,6.8,41.7z"/>
				</g>
				<g>
					<path fill="#E8EAE9" d="M11.6,44.2c-0.3-1.4-0.7-3.9-0.2-5.7c0.7-2.6,0.2,0,0.2,0l0.4,0.3C12,38.9,11.4,42.1,11.6,44.2z"/>
					<path fill="#E8EAE9" d="M11.8,45.1c0-0.1-0.1-0.4-0.2-0.7C11.7,44.6,11.7,44.9,11.8,45.1z"/>
				</g>
				<g>
					<path fill="#E8EAE9" d="M11.1,38.1c0,0,0.1,0,0.1,0.1c0.5-1.1,1-2.8,0.7-4.6c-0.5-2.6-1.6-8.7-1.9-11c0.1,2.2,0.6,8.3,1.3,10.8
						C11.9,35.3,11.5,37,11.1,38.1z"/>
				</g>
				<g>
					<g>
						<path fill="#F05540" d="M10.4,36c-1.6,0.8-3,2-4.2,3.5c-1.6,2-3.8,2.8-6.2,1.6l2.2,1.5l-1,0.9c2.4,1.1,4.6,0.3,6.2-1.6
							c1.5-1.8,3.2-3.3,5.5-4L10.4,36z"/>
					</g>
					<g>
						<path fill="#F05540" d="M16.7,45.6c-2.4-1-3.3-3.2-2.9-5.7c0.1-0.5,0.1-1,0.1-1.4l-2.6-1.9c0.2,1.3,0.1,2.6-0.1,4
							c-0.4,2.5,0.5,4.6,2.9,5.7l0-1.3L16.7,45.6z"/>
					</g>
				</g>
				<g>
					<g>
						<g>
							<path fill="#F3705A" d="M12.5,38.9c0,0-4.9,0.1-6.2-0.9C5,37,6.4,36.5,7.4,35.1c0.9-1.3,1-2.9,2.3-1.9
								C11,34.2,12.5,38.9,12.5,38.9z"/>
						</g>
						<g>
							<path fill="#F05540" d="M9.7,33.2c-0.5-0.4-0.9-0.4-1.1-0.1c-0.5,0.5-0.5,1.2-0.1,1.8c0.9,1.4,2.4,2.7,4.1,3.9h0
								C12.5,38.9,11,34.2,9.7,33.2z"/>
						</g>
					</g>
					<g>
						<g>
							<path fill="#F3705A" d="M11.3,38c0,0,1.5,4.7,2.8,5.6c1.3,0.9,1.4-0.6,2.3-1.9c0.9-1.3,2.4-1.9,1.1-2.8S11.3,38,11.3,38z"/>
						</g>
						<g>
							<path fill="#F05540" d="M17.6,38.9c0.5,0.4,0.6,0.7,0.4,1.1c-0.3,0.6-1,0.8-1.6,0.7c-1.6-0.4-3.3-1.4-5-2.6l0,0
								C11.3,38,16.3,37.9,17.6,38.9z"/>
						</g>
					</g>
					<g>
						<path fill="#FFD15C" d="M12,40c-0.7,0-1.4-0.5-1.6-1.2c0.5-0.6,0.9-1.3,1.4-1.9c0.7,0,1.4,0.5,1.6,1.2
							C13,38.7,12.5,39.3,12,40z"/>
					</g>
				</g>
			</g>
			<g>
				<g>
					<g>
						
							<ellipse transform="matrix(0.8108 0.5853 -0.5853 0.8108 10.76 -9.547)" fill="#F05540" cx="20.1" cy="11.9" rx="1.1" ry="3.2"/>
					</g>
					<g>
						
							<ellipse transform="matrix(0.9872 -0.1596 0.1596 0.9872 -1.5721 2.9485)" fill="#F05540" cx="17.6" cy="11.3" rx="1.1" ry="3.2"/>
					</g>
					<g>
						
							<ellipse transform="matrix(0.5851 -0.811 0.811 0.5851 -3.9092 17.6653)" fill="#F05540" cx="15.3" cy="12.7" rx="1.1" ry="3.2"/>
					</g>
					<g>
						
							<ellipse transform="matrix(-0.1595 -0.9872 0.9872 -0.1595 2.004 32.1757)" fill="#F05540" cx="14.7" cy="15.2" rx="1.1" ry="3.2"/>
					</g>
					<g>
						
							<ellipse transform="matrix(-0.8108 -0.5853 0.5853 -0.8108 18.901 41.0944)" fill="#F05540" cx="16.1" cy="17.5" rx="1.1" ry="3.2"/>
					</g>
					<g>
						
							<ellipse transform="matrix(-0.9872 0.1596 -0.1596 -0.9872 39.9956 32.9956)" fill="#F05540" cx="18.7" cy="18.1" rx="1.1" ry="3.2"/>
					</g>
					<g>
						
							<ellipse transform="matrix(-0.5851 0.811 -0.811 -0.5851 46.7278 9.5144)" fill="#F05540" cx="20.9" cy="16.7" rx="1.1" ry="3.2"/>
					</g>
					<g>
						
							<ellipse transform="matrix(0.1595 0.9872 -0.9872 0.1595 32.0518 -9.3907)" fill="#F05540" cx="21.5" cy="14.1" rx="1.1" ry="3.2"/>
					</g>
				</g>
				<g>
					<g>
						
							<ellipse transform="matrix(0.4953 0.8687 -0.8687 0.4953 21.7722 -10.9741)" fill="#F3705A" cx="20.3" cy="13.2" rx="0.8" ry="2.3"/>
					</g>
					<g>
						
							<ellipse transform="matrix(0.9645 0.2641 -0.2641 0.9645 3.8604 -4.5014)" fill="#F3705A" cx="18.7" cy="12.1" rx="0.8" ry="2.3"/>
					</g>
					<g>
						
							<ellipse transform="matrix(0.8687 -0.4954 0.4954 0.8687 -3.9862 9.9056)" fill="#F3705A" cx="16.7" cy="12.5" rx="0.8" ry="2.3"/>
					</g>
					<g>
						
							<ellipse transform="matrix(0.2639 -0.9645 0.9645 0.2639 -2.1879 25.3942)" fill="#F3705A" cx="15.5" cy="14.1" rx="0.8" ry="2.3"/>
					</g>
					<g>
						
							<ellipse transform="matrix(-0.4953 -0.8687 0.8687 -0.4953 9.7901 37.9149)" fill="#F3705A" cx="15.9" cy="16.1" rx="0.8" ry="2.3"/>
					</g>
					<g>
						
							<ellipse transform="matrix(-0.9645 -0.2641 0.2641 -0.9645 29.9571 38.5418)" fill="#F3705A" cx="17.6" cy="17.3" rx="0.8" ry="2.3"/>
					</g>
					<g>
						
							<ellipse transform="matrix(-0.8687 0.4954 -0.4954 -0.8687 44.9035 21.8815)" fill="#F3705A" cx="19.6" cy="16.9" rx="0.8" ry="2.3"/>
					</g>
					<g>
						
							<ellipse transform="matrix(-0.2639 0.9645 -0.9645 -0.2639 40.85 -0.7078)" fill="#F3705A" cx="20.7" cy="15.2" rx="0.8" ry="2.3"/>
					</g>
				</g>
				<g>
					<circle fill="#FFD15C" cx="18.1" cy="14.7" r="1.6"/>
				</g>
				<g>
					<circle fill="#415A6B" cx="18.1" cy="14.7" r="0.9"/>
				</g>
			</g>
			<g>
				<g>
					<g>
						
							<ellipse transform="matrix(0.8108 0.5853 -0.5853 0.8108 20.9672 -16.2331)" fill="#F05540" cx="35.6" cy="24.3" rx="1.1" ry="3.2"/>
					</g>
					<g>
						
							<ellipse transform="matrix(0.9872 -0.1596 0.1596 0.9872 -3.3601 5.5722)" fill="#F05540" cx="33" cy="23.7" rx="1.1" ry="3.2"/>
					</g>
					<g>
						
							<ellipse transform="matrix(0.5851 -0.811 0.811 0.5851 -7.5941 35.3559)" fill="#F05540" cx="30.8" cy="25.1" rx="1.1" ry="3.2"/>
					</g>
					<g>
						
							<ellipse transform="matrix(-0.1596 -0.9872 0.9872 -0.1596 7.6281 61.857)" fill="#F05540" cx="30.1" cy="27.7" rx="1.1" ry="3.2"/>
					</g>
					<g>
						
							<ellipse transform="matrix(-0.8108 -0.5853 0.5853 -0.8108 39.5862 72.6738)" fill="#F05540" cx="31.5" cy="29.9" rx="1.1" ry="3.2"/>
					</g>
					<g>
						
							<ellipse transform="matrix(-0.9872 0.1596 -0.1596 -0.9872 72.6769 55.2642)" fill="#F05540" cx="34.1" cy="30.6" rx="1.1" ry="3.2"/>
					</g>
					<g>
						
							<ellipse transform="matrix(-0.5851 0.811 -0.811 -0.5851 81.3056 16.7166)" fill="#F05540" cx="36.4" cy="29.2" rx="1.1" ry="3.2"/>
					</g>
					<g>
						
							<ellipse transform="matrix(0.1596 0.9872 -0.9872 0.1596 57.3207 -14.1787)" fill="#F05540" cx="37" cy="26.6" rx="1.1" ry="3.2"/>
					</g>
				</g>
				<g>
					<g>
						
							<ellipse transform="matrix(0.4953 0.8687 -0.8687 0.4953 40.3822 -18.1108)" fill="#F3705A" cx="35.8" cy="25.7" rx="0.8" ry="2.3"/>
					</g>
					<g>
						
							<ellipse transform="matrix(0.9645 0.2641 -0.2641 0.9645 7.6961 -8.139)" fill="#F3705A" cx="34.1" cy="24.6" rx="0.8" ry="2.3"/>
					</g>
					<g>
						
							<ellipse transform="matrix(0.8687 -0.4954 0.4954 0.8687 -8.1236 19.1925)" fill="#F3705A" cx="32.1" cy="24.9" rx="0.8" ry="2.3"/>
					</g>
					<g>
						
							<ellipse transform="matrix(0.2639 -0.9645 0.9645 0.2639 -2.8234 49.4545)" fill="#F3705A" cx="31" cy="26.6" rx="0.8" ry="2.3"/>
					</g>
					<g>
						
							<ellipse transform="matrix(-0.4953 -0.8687 0.8687 -0.4953 22.0732 69.9447)" fill="#F3705A" cx="31.4" cy="28.6" rx="0.8" ry="2.3"/>
					</g>
					<g>
						
							<ellipse transform="matrix(-0.9645 -0.2641 0.2641 -0.9645 57.0132 67.0735)" fill="#F3705A" cx="33" cy="29.7" rx="0.8" ry="2.3"/>
					</g>
					<g>
						
							<ellipse transform="matrix(-0.8687 0.4954 -0.4954 -0.8687 79.9339 37.4871)" fill="#F3705A" cx="35" cy="29.3" rx="0.8" ry="2.3"/>
					</g>
					<g>
						
							<ellipse transform="matrix(-0.2639 0.9645 -0.9645 -0.2639 72.3786 0.125)" fill="#F3705A" cx="36.1" cy="27.7" rx="0.8" ry="2.3"/>
					</g>
				</g>
				<g>
					<circle fill="#FFD15C" cx="33.6" cy="27.1" r="1.6"/>
				</g>
				<g>
					<circle fill="#415A6B" cx="33.6" cy="27.1" r="0.9"/>
				</g>
			</g>
			<g>
				<g>
					<g>
						
							<ellipse transform="matrix(0.8108 0.5853 -0.5853 0.8108 21.133 -11.9073)" fill="#4ABAA5" cx="29" cy="26.7" rx="0.8" ry="2.3"/>
					</g>
					<g>
						
							<ellipse transform="matrix(0.9872 -0.1596 0.1596 0.9872 -3.849 4.6636)" fill="#4ABAA5" cx="27.1" cy="26.3" rx="0.8" ry="2.3"/>
					</g>
					<g>
						
							<ellipse transform="matrix(0.5851 -0.8109 0.8109 0.5851 -11.5796 31.9779)" fill="#4ABAA5" cx="25.5" cy="27.3" rx="0.8" ry="2.3"/>
					</g>
					<g>
						
							<ellipse transform="matrix(-0.1596 -0.9872 0.9872 -0.1596 0.1998 58.5412)" fill="#4ABAA5" cx="25" cy="29.2" rx="0.8" ry="2.3"/>
					</g>
					<g>
						
							<ellipse transform="matrix(-0.8108 -0.5853 0.5853 -0.8108 29.0989 71.0629)" fill="#4ABAA5" cx="26" cy="30.8" rx="0.8" ry="2.3"/>
					</g>
					<g>
						
							<ellipse transform="matrix(-0.9872 0.1596 -0.1596 -0.9872 60.4581 57.6918)" fill="#4ABAA5" cx="27.9" cy="31.3" rx="0.8" ry="2.3"/>
					</g>
					<g>
						
							<ellipse transform="matrix(-0.5851 0.811 -0.811 -0.5851 71.3874 23.9969)" fill="#4ABAA5" cx="29.6" cy="30.3" rx="0.8" ry="2.3"/>
					</g>
					<g>
						
							<ellipse transform="matrix(0.1596 0.9872 -0.9872 0.1596 53.2302 -5.7633)" fill="#4ABAA5" cx="30" cy="28.4" rx="0.8" ry="2.3"/>
					</g>
				</g>
				<g>
					<g>
						
							<ellipse transform="matrix(0.4953 0.8687 -0.8687 0.4953 38.7973 -11.2947)" fill="#66C6B9" cx="29.1" cy="27.7" rx="0.6" ry="1.7"/>
					</g>
					<g>
						
							<ellipse transform="matrix(0.9645 0.264 -0.264 0.9645 8.0955 -6.4147)" fill="#66C6B9" cx="27.9" cy="26.9" rx="0.6" ry="1.7"/>
					</g>
					<g>
						
							<ellipse transform="matrix(0.8687 -0.4954 0.4954 0.8687 -9.9857 16.681)" fill="#66C6B9" cx="26.5" cy="27.2" rx="0.6" ry="1.7"/>
					</g>
					<g>
						
							<ellipse transform="matrix(0.2639 -0.9645 0.9645 0.2639 -8.5063 45.6171)" fill="#66C6B9" cx="25.6" cy="28.4" rx="0.6" ry="1.7"/>
					</g>
					<g>
						
							<ellipse transform="matrix(-0.4953 -0.8687 0.8687 -0.4953 12.8171 67.0971)" fill="#66C6B9" cx="25.9" cy="29.8" rx="0.6" ry="1.7"/>
					</g>
					<g>
						
							<ellipse transform="matrix(-0.9645 -0.2641 0.2641 -0.9645 45.1569 67.3873)" fill="#66C6B9" cx="27.1" cy="30.7" rx="0.6" ry="1.7"/>
					</g>
					<g>
						
							<ellipse transform="matrix(-0.8687 0.4954 -0.4954 -0.8687 68.4097 42.6488)" fill="#66C6B9" cx="28.6" cy="30.4" rx="0.6" ry="1.7"/>
					</g>
					<g>
						
							<ellipse transform="matrix(-0.2639 0.9645 -0.9645 -0.2639 65.2887 8.5444)" fill="#66C6B9" cx="29.4" cy="29.2" rx="0.6" ry="1.7"/>
					</g>
				</g>
				<g>
					<circle fill="#E8EAE9" cx="27.5" cy="28.8" r="1.1"/>
				</g>
				<g>
					<circle fill="#415A6B" cx="27.5" cy="28.8" r="0.7"/>
				</g>
			</g>
			<g>
				<g>
					<g>
						
							<ellipse transform="matrix(0.8108 0.5853 -0.5853 0.8108 15.7693 -12.5084)" fill="#E8EAE9" cx="27.2" cy="18.1" rx="1" ry="2.9"/>
					</g>
					<g>
						
							<ellipse transform="matrix(0.9872 -0.1596 0.1596 0.9872 -2.4865 4.1908)" fill="#E8EAE9" cx="24.8" cy="17.6" rx="1" ry="2.9"/>
					</g>
					<g>
						
							<ellipse transform="matrix(0.5851 -0.811 0.811 0.5851 -5.8582 26.2773)" fill="#E8EAE9" cx="22.8" cy="18.9" rx="1" ry="2.9"/>
					</g>
					<g>
						
							<ellipse transform="matrix(-0.1595 -0.9872 0.9872 -0.1595 4.742 46.5482)" fill="#E8EAE9" cx="22.2" cy="21.3" rx="1" ry="2.9"/>
					</g>
					<g>
						
							<ellipse transform="matrix(-0.8108 -0.5853 0.5853 -0.8108 28.8456 56.0181)" fill="#E8EAE9" cx="23.5" cy="23.3" rx="1" ry="2.9"/>
					</g>
					<g>
						
							<ellipse transform="matrix(-0.9872 0.1596 -0.1596 -0.9872 55.2203 43.3908)" fill="#E8EAE9" cx="25.9" cy="23.9" rx="1" ry="2.9"/>
					</g>
					<g>
						
							<ellipse transform="matrix(-0.5851 0.811 -0.811 -0.5851 62.663 13.1861)" fill="#E8EAE9" cx="28" cy="22.6" rx="1" ry="2.9"/>
					</g>
					<g>
						
							<ellipse transform="matrix(0.1596 0.9872 -0.9872 0.1596 43.9447 -11.1562)" fill="#E8EAE9" cx="28.5" cy="20.2" rx="1" ry="2.9"/>
					</g>
				</g>
				<g>
					<g>
						
							<ellipse transform="matrix(0.4953 0.8687 -0.8687 0.4953 30.6995 -14.0057)" fill="#F3F3F3" cx="27.4" cy="19.4" rx="0.8" ry="2.1"/>
					</g>
					<g>
						
							<ellipse transform="matrix(0.9645 0.264 -0.264 0.9645 5.7648 -6.1779)" fill="#F3F3F3" cx="25.9" cy="18.4" rx="0.8" ry="2.1"/>
					</g>
					<g>
						
							<ellipse transform="matrix(0.8687 -0.4954 0.4954 0.8687 -6.1056 14.3595)" fill="#F3F3F3" cx="24" cy="18.7" rx="0.8" ry="2.1"/>
					</g>
					<g>
						
							<ellipse transform="matrix(0.264 -0.9645 0.9645 0.264 -2.6093 37.0458)" fill="#F3F3F3" cx="23" cy="20.2" rx="0.8" ry="2.1"/>
					</g>
					<g>
						
							<ellipse transform="matrix(-0.4952 -0.8688 0.8688 -0.4952 15.676 53.2472)" fill="#F3F3F3" cx="23.3" cy="22.1" rx="0.8" ry="2.1"/>
					</g>
					<g>
						
							<ellipse transform="matrix(-0.9645 -0.2641 0.2641 -0.9645 42.6987 51.9992)" fill="#F3F3F3" cx="24.8" cy="23.1" rx="0.8" ry="2.1"/>
					</g>
					<g>
						
							<ellipse transform="matrix(-0.8687 0.4954 -0.4954 -0.8687 61.149 29.3717)" fill="#F3F3F3" cx="26.7" cy="22.8" rx="0.8" ry="2.1"/>
					</g>
					<g>
						
							<ellipse transform="matrix(-0.2639 0.9645 -0.9645 -0.2639 55.5625 0.1061)" fill="#F3F3F3" cx="27.7" cy="21.3" rx="0.8" ry="2.1"/>
					</g>
				</g>
				<g>
					<circle fill="#F3705A" cx="25.4" cy="20.7" r="1.3"/>
				</g>
				<g>
					<circle fill="#FFD15C" cx="25.4" cy="20.7" r="0.9"/>
				</g>
			</g>
			<g>
				<g>
					<g>
						
							<ellipse transform="matrix(0.8108 0.5853 -0.5853 0.8108 15.4065 -16.8744)" fill="#FFD15C" cx="33.8" cy="15.4" rx="1.1" ry="3.2"/>
					</g>
					<g>
						
							<ellipse transform="matrix(0.9872 -0.1596 0.1596 0.9872 -1.9591 5.1725)" fill="#FFD15C" cx="31.2" cy="14.8" rx="1.1" ry="3.2"/>
					</g>
					<g>
						
							<ellipse transform="matrix(0.5851 -0.8109 0.8109 0.5851 -1.1006 30.203)" fill="#FFD15C" cx="29" cy="16.2" rx="1.1" ry="3.2"/>
					</g>
					<g>
						
							<ellipse transform="matrix(-0.1596 -0.9872 0.9872 -0.1596 14.3627 49.7455)" fill="#FFD15C" cx="28.4" cy="18.8" rx="1.1" ry="3.2"/>
					</g>
					<g>
						
							<ellipse transform="matrix(-0.8108 -0.5853 0.5853 -0.8108 41.5704 55.4701)" fill="#FFD15C" cx="29.7" cy="21" rx="1.1" ry="3.2"/>
					</g>
					<g>
						
							<ellipse transform="matrix(-0.9872 0.1596 -0.1596 -0.9872 67.7001 37.8175)" fill="#FFD15C" cx="32.3" cy="21.6" rx="1.1" ry="3.2"/>
					</g>
					<g>
						
							<ellipse transform="matrix(-0.5851 0.811 -0.811 -0.5851 71.2353 4.0236)" fill="#FFD15C" cx="34.6" cy="20.2" rx="1.1" ry="3.2"/>
					</g>
					<g>
						
							<ellipse transform="matrix(0.1596 0.9872 -0.9872 0.1596 47.0095 -19.9123)" fill="#FFD15C" cx="35.2" cy="17.7" rx="1.1" ry="3.2"/>
					</g>
				</g>
				<g>
					<g>
						
							<ellipse transform="matrix(0.4953 0.8687 -0.8687 0.4953 31.7282 -21.0609)" fill="#F7B64C" cx="34" cy="16.8" rx="0.8" ry="2.3"/>
					</g>
					<g>
						
							<ellipse transform="matrix(0.9645 0.2641 -0.2641 0.9645 5.2746 -7.9819)" fill="#F7B64C" cx="32.3" cy="15.6" rx="0.8" ry="2.3"/>
					</g>
					<g>
						
							<ellipse transform="matrix(0.8687 -0.4954 0.4954 0.8687 -3.9382 17.1347)" fill="#F7B64C" cx="30.3" cy="16" rx="0.8" ry="2.3"/>
					</g>
					<g>
						
							<ellipse transform="matrix(0.2639 -0.9645 0.9645 0.2639 4.4663 41.162)" fill="#F7B64C" cx="29.2" cy="17.7" rx="0.8" ry="2.3"/>
					</g>
					<g>
						
							<ellipse transform="matrix(-0.4953 -0.8687 0.8687 -0.4953 27.1507 55.0498)" fill="#F7B64C" cx="29.6" cy="19.6" rx="0.8" ry="2.3"/>
					</g>
					<g>
						
							<ellipse transform="matrix(-0.9645 -0.2641 0.2641 -0.9645 55.8568 49.073)" fill="#F7B64C" cx="31.2" cy="20.8" rx="0.8" ry="2.3"/>
					</g>
					<g>
						
							<ellipse transform="matrix(-0.8687 0.4954 -0.4954 -0.8687 72.172 21.7)" fill="#F7B64C" cx="33.2" cy="20.4" rx="0.8" ry="2.3"/>
					</g>
					<g>
						
							<ellipse transform="matrix(-0.2639 0.9645 -0.9645 -0.2639 61.5123 -9.4276)" fill="#F7B64C" cx="34.4" cy="18.8" rx="0.8" ry="2.3"/>
					</g>
				</g>
				<g>
					<circle fill="#F05540" cx="31.8" cy="18.2" r="1.5"/>
				</g>
				<g>
					<circle fill="#415A6B" cx="31.8" cy="18.2" r="0.9"/>
				</g>
			</g>
			<g>
				<g>
					<g>
						
							<ellipse transform="matrix(0.8108 0.5853 -0.5853 0.8108 11.9205 -16.015)" fill="#4ABAA5" cx="30.7" cy="10.4" rx="0.9" ry="2.6"/>
					</g>
					<g>
						
							<ellipse transform="matrix(0.9872 -0.1596 0.1596 0.9872 -1.2171 4.687)" fill="#4ABAA5" cx="28.6" cy="9.9" rx="0.9" ry="2.6"/>
					</g>
					<g>
						
							<ellipse transform="matrix(0.5851 -0.8109 0.8109 0.5851 2.0751 26.2335)" fill="#4ABAA5" cx="26.7" cy="11.1" rx="0.9" ry="2.6"/>
					</g>
					<g>
						
							<ellipse transform="matrix(-0.1596 -0.9872 0.9872 -0.1596 17.2547 41.1977)" fill="#4ABAA5" cx="26.2" cy="13.3" rx="0.9" ry="2.6"/>
					</g>
					<g>
						
							<ellipse transform="matrix(-0.8108 -0.5853 0.5853 -0.8108 40.6286 43.4268)" fill="#4ABAA5" cx="27.3" cy="15.1" rx="0.9" ry="2.6"/>
					</g>
					<g>
						
							<ellipse transform="matrix(-0.9872 0.1596 -0.1596 -0.9872 61.1158 26.4112)" fill="#4ABAA5" cx="29.5" cy="15.7" rx="0.9" ry="2.6"/>
					</g>
					<g>
						
							<ellipse transform="matrix(-0.5851 0.811 -0.811 -0.5851 61.5086 -2.486)" fill="#4ABAA5" cx="31.4" cy="14.5" rx="0.9" ry="2.6"/>
					</g>
					<g>
						
							<ellipse transform="matrix(0.1596 0.9872 -0.9872 0.1596 38.9805 -21.1345)" fill="#4ABAA5" cx="31.9" cy="12.3" rx="0.9" ry="2.6"/>
					</g>
				</g>
				<g>
					<g>
						
							<ellipse transform="matrix(0.4953 0.8687 -0.8687 0.4953 25.6577 -20.9835)" fill="#66C6B9" cx="30.9" cy="11.6" rx="0.7" ry="1.9"/>
					</g>
					<g>
						
							<ellipse transform="matrix(0.9645 0.2641 -0.2641 0.9645 3.8543 -7.412)" fill="#66C6B9" cx="29.5" cy="10.6" rx="0.7" ry="1.9"/>
					</g>
					<g>
						
							<ellipse transform="matrix(0.8686 -0.4954 0.4954 0.8686 -1.762 15.2257)" fill="#66C6B9" cx="27.8" cy="10.9" rx="0.7" ry="1.9"/>
					</g>
					<g>
						
							<ellipse transform="matrix(0.2639 -0.9645 0.9645 0.2639 7.8903 34.995)" fill="#66C6B9" cx="26.9" cy="12.3" rx="0.7" ry="1.9"/>
					</g>
					<g>
						
							<ellipse transform="matrix(-0.4953 -0.8687 0.8687 -0.4953 28.4864 44.5319)" fill="#66C6B9" cx="27.2" cy="14" rx="0.7" ry="1.9"/>
					</g>
					<g>
						
							<ellipse transform="matrix(-0.9645 -0.2641 0.2641 -0.9645 52.1802 36.9153)" fill="#66C6B9" cx="28.6" cy="15" rx="0.7" ry="1.9"/>
					</g>
					<g>
						
							<ellipse transform="matrix(-0.8686 0.4954 -0.4954 -0.8686 63.7518 12.3864)" fill="#66C6B9" cx="30.2" cy="14.6" rx="0.7" ry="1.9"/>
					</g>
					<g>
						
							<ellipse transform="matrix(-0.2639 0.9645 -0.9645 -0.2639 52.2087 -13.3369)" fill="#66C6B9" cx="31.2" cy="13.3" rx="0.7" ry="1.9"/>
					</g>
				</g>
				<g>
					<circle fill="#E8EAE9" cx="29" cy="12.8" r="1.2"/>
				</g>
				<g>
					<circle fill="#415A6B" cx="29" cy="12.8" r="0.8"/>
				</g>
			</g>
			<g>
				<g>
					<g>
						
							<ellipse transform="matrix(0.8108 0.5853 -0.5853 0.8108 18.6976 -20.4931)" fill="#E8EAE9" cx="41" cy="18.7" rx="0.8" ry="2.3"/>
					</g>
					<g>
						
							<ellipse transform="matrix(0.9872 -0.1596 0.1596 0.9872 -2.408 6.4878)" fill="#E8EAE9" cx="39.2" cy="18.2" rx="0.8" ry="2.3"/>
					</g>
					<g>
						
							<ellipse transform="matrix(0.5851 -0.8109 0.8109 0.5851 -1.935305e-002 38.4432)" fill="#E8EAE9" cx="37.6" cy="19.2" rx="0.8" ry="2.3"/>
					</g>
					<g>
						
							<ellipse transform="matrix(-0.1596 -0.9872 0.9872 -0.1596 22.2137 61.1144)" fill="#E8EAE9" cx="37.1" cy="21.1" rx="0.8" ry="2.3"/>
					</g>
					<g>
						
							<ellipse transform="matrix(-0.8108 -0.5853 0.5853 -0.8108 55.7355 63.4728)" fill="#E8EAE9" cx="38.1" cy="22.7" rx="0.8" ry="2.3"/>
					</g>
					<g>
						
							<ellipse transform="matrix(-0.9872 0.1596 -0.1596 -0.9872 83.1577 39.6601)" fill="#E8EAE9" cx="40" cy="23.2" rx="0.8" ry="2.3"/>
					</g>
					<g>
						
							<ellipse transform="matrix(-0.5851 0.811 -0.811 -0.5851 83.9358 1.3866)" fill="#E8EAE9" cx="41.6" cy="22.2" rx="0.8" ry="2.3"/>
					</g>
					<g>
						
							<ellipse transform="matrix(0.1596 0.9872 -0.9872 0.1596 55.3875 -24.4504)" fill="#E8EAE9" cx="42.1" cy="20.3" rx="0.8" ry="2.3"/>
					</g>
				</g>
				<g>
					<g>
						
							<ellipse transform="matrix(0.4953 0.8687 -0.8687 0.4953 37.8745 -25.8471)" fill="#F3F3F3" cx="41.2" cy="19.7" rx="0.6" ry="1.7"/>
					</g>
					<g>
						
							<ellipse transform="matrix(0.9645 0.264 -0.264 0.9645 6.3952 -9.8889)" fill="#F3F3F3" cx="40" cy="18.8" rx="0.6" ry="1.7"/>
					</g>
					<g>
						
							<ellipse transform="matrix(0.8687 -0.4954 0.4954 0.8687 -4.4028 21.6106)" fill="#F3F3F3" cx="38.6" cy="19.1" rx="0.6" ry="1.7"/>
					</g>
					<g>
						
							<ellipse transform="matrix(0.2639 -0.9645 0.9645 0.2639 8.1875 51.3399)" fill="#F3F3F3" cx="37.7" cy="20.3" rx="0.6" ry="1.7"/>
					</g>
					<g>
						
							<ellipse transform="matrix(-0.4953 -0.8687 0.8687 -0.4953 37.9296 65.5064)" fill="#F3F3F3" cx="38" cy="21.7" rx="0.6" ry="1.7"/>
					</g>
					<g>
						
							<ellipse transform="matrix(-0.9645 -0.264 0.264 -0.9645 71.0337 54.666)" fill="#F3F3F3" cx="39.2" cy="22.6" rx="0.6" ry="1.7"/>
					</g>
					<g>
						
							<ellipse transform="matrix(-0.8687 0.4954 -0.4954 -0.8687 86.9497 21.5413)" fill="#F3F3F3" cx="40.6" cy="22.3" rx="0.6" ry="1.7"/>
					</g>
					<g>
						
							<ellipse transform="matrix(-0.2639 0.9645 -0.9645 -0.2639 72.7338 -13.3055)" fill="#F3F3F3" cx="41.4" cy="21.1" rx="0.6" ry="1.7"/>
					</g>
				</g>
				<g>
					<circle fill="#F3705A" cx="39.6" cy="20.7" r="1"/>
				</g>
				<g>
					<circle fill="#FFD15C" cx="39.6" cy="20.7" r="0.7"/>
				</g>
			</g>
			<g>
				<g>
					<g>
						
							<ellipse transform="matrix(0.8108 0.5853 -0.5853 0.8108 7.1322 -13.267)" fill="#E8EAE9" cx="24.1" cy="4.4" rx="1.3" ry="3.7"/>
					</g>
					<g>
						
							<ellipse transform="matrix(0.9872 -0.1596 0.1596 0.9872 -0.3173 3.4062)" fill="#E8EAE9" cx="21" cy="3.7" rx="1.3" ry="3.7"/>
					</g>
					<g>
						
							<ellipse transform="matrix(0.5851 -0.8109 0.8109 0.5851 3.3132 17.1177)" fill="#E8EAE9" cx="18.4" cy="5.3" rx="1.3" ry="3.7"/>
					</g>
					<g>
						
							<ellipse transform="matrix(-0.1596 -0.9872 0.9872 -0.1596 12.2298 27.1379)" fill="#E8EAE9" cx="17.7" cy="8.4" rx="1.3" ry="3.7"/>
					</g>
					<g>
						
							<ellipse transform="matrix(-0.8108 -0.5853 0.5853 -0.8108 28.5122 31.2627)" fill="#E8EAE9" cx="19.3" cy="11" rx="1.3" ry="3.7"/>
					</g>
					<g>
						
							<ellipse transform="matrix(-0.9872 0.1596 -0.1596 -0.9872 46.2879 19.7699)" fill="#E8EAE9" cx="22.4" cy="11.7" rx="1.3" ry="3.7"/>
					</g>
					<g>
						
							<ellipse transform="matrix(-0.5851 0.811 -0.811 -0.5851 47.8354 -4.2696)" fill="#E8EAE9" cx="25" cy="10.1" rx="1.3" ry="3.7"/>
					</g>
					<g>
						
							<ellipse transform="matrix(0.1596 0.9872 -0.9872 0.1596 28.5935 -19.4672)" fill="#E8EAE9" cx="25.7" cy="7.1" rx="1.3" ry="3.7"/>
					</g>
				</g>
				<g>
					<g>
						
							<ellipse transform="matrix(0.4953 0.8687 -0.8687 0.4953 17.5003 -18.0727)" fill="#F3F3F3" cx="24.3" cy="6" rx="1" ry="2.7"/>
					</g>
					<g>
						
							<ellipse transform="matrix(0.9645 0.2641 -0.2641 0.9645 2.0283 -5.7358)" fill="#F3F3F3" cx="22.3" cy="4.7" rx="1" ry="2.7"/>
					</g>
					<g>
						
							<ellipse transform="matrix(0.8687 -0.4954 0.4954 0.8687 9.892814e-002 10.5844)" fill="#F3F3F3" cx="20" cy="5.1" rx="1" ry="2.7"/>
					</g>
					<g>
						
							<ellipse transform="matrix(0.2639 -0.9645 0.9645 0.2639 6.926 23.1996)" fill="#F3F3F3" cx="18.7" cy="7.1" rx="1" ry="2.7"/>
					</g>
					<g>
						
							<ellipse transform="matrix(-0.4952 -0.8688 0.8688 -0.4952 20.3844 30.6404)" fill="#F3F3F3" cx="19.1" cy="9.4" rx="1" ry="2.7"/>
					</g>
					<g>
						
							<ellipse transform="matrix(-0.9645 -0.2641 0.2641 -0.9645 38.5129 26.6706)" fill="#F3F3F3" cx="21" cy="10.7" rx="1" ry="2.7"/>
					</g>
					<g>
						
							<ellipse transform="matrix(-0.8687 0.4954 -0.4954 -0.8687 48.8098 7.6934)" fill="#F3F3F3" cx="23.4" cy="10.3" rx="1" ry="2.7"/>
					</g>
					<g>
						
							<ellipse transform="matrix(-0.2639 0.9645 -0.9645 -0.2639 39.3253 -13.2885)" fill="#F3F3F3" cx="24.7" cy="8.4" rx="1" ry="2.7"/>
					</g>
				</g>
				<g>
					<circle fill="#F3705A" cx="21.7" cy="7.7" r="1.7"/>
				</g>
				<g>
					<circle fill="#FFD15C" cx="21.7" cy="7.7" r="1.1"/>
				</g>
			</g>
			<g>
				<g>
					<g>
						
							<ellipse transform="matrix(0.8108 0.5853 -0.5853 0.8108 16.1239 -8.5058)" fill="#FFD15C" cx="21.2" cy="20.7" rx="0.9" ry="2.6"/>
					</g>
					<g>
						
							<ellipse transform="matrix(0.9872 -0.1596 0.1596 0.9872 -2.9773 3.3104)" fill="#FFD15C" cx="19.1" cy="20.2" rx="0.9" ry="2.6"/>
					</g>
					<g>
						
							<ellipse transform="matrix(0.5851 -0.8109 0.8109 0.5851 -10.1198 22.8672)" fill="#FFD15C" cx="17.3" cy="21.3" rx="0.9" ry="2.6"/>
					</g>
					<g>
						
							<ellipse transform="matrix(-0.1595 -0.9872 0.9872 -0.1595 -3.6489 43.7361)" fill="#FFD15C" cx="16.8" cy="23.4" rx="0.9" ry="2.6"/>
					</g>
					<g>
						
							<ellipse transform="matrix(-0.8108 -0.5853 0.5853 -0.8108 17.676 56.224)" fill="#FFD15C" cx="17.9" cy="25.3" rx="0.9" ry="2.6"/>
					</g>
					<g>
						
							<ellipse transform="matrix(-0.9872 0.1596 -0.1596 -0.9872 43.8967 47.977)" fill="#FFD15C" cx="20" cy="25.8" rx="0.9" ry="2.6"/>
					</g>
					<g>
						
							<ellipse transform="matrix(-0.5851 0.8109 -0.8109 -0.5851 54.6078 21.3029)" fill="#FFD15C" cx="21.9" cy="24.6" rx="0.9" ry="2.6"/>
					</g>
					<g>
						
							<ellipse transform="matrix(0.1595 0.9872 -0.9872 0.1595 41.0192 -3.1354)" fill="#FFD15C" cx="22.4" cy="22.5" rx="0.9" ry="2.6"/>
					</g>
				</g>
				<g>
					<g>
						
							<ellipse transform="matrix(0.4952 0.8688 -0.8688 0.4952 29.7325 -7.5548)" fill="#F7B64C" cx="21.4" cy="21.8" rx="0.7" ry="1.9"/>
					</g>
					<g>
						
							<ellipse transform="matrix(0.9645 0.264 -0.264 0.9645 6.2233 -4.5449)" fill="#F7B64C" cx="20" cy="20.9" rx="0.7" ry="1.9"/>
					</g>
					<g>
						
							<ellipse transform="matrix(0.8686 -0.4954 0.4954 0.8686 -8.0733 11.9024)" fill="#F7B64C" cx="18.4" cy="21.2" rx="0.7" ry="1.9"/>
					</g>
					<g>
						
							<ellipse transform="matrix(0.264 -0.9645 0.9645 0.264 -8.8595 33.4386)" fill="#F7B64C" cx="17.5" cy="22.5" rx="0.7" ry="1.9"/>
					</g>
					<g>
						
							<ellipse transform="matrix(-0.4953 -0.8687 0.8687 -0.4953 5.6135 51.5314)" fill="#F7B64C" cx="17.8" cy="24.1" rx="0.7" ry="1.9"/>
					</g>
					<g>
						
							<ellipse transform="matrix(-0.9645 -0.2641 0.2641 -0.9645 30.9506 54.2896)" fill="#F7B64C" cx="19.1" cy="25.1" rx="0.7" ry="1.9"/>
					</g>
					<g>
						
							<ellipse transform="matrix(-0.8687 0.4954 -0.4954 -0.8687 51.0163 36.0116)" fill="#F7B64C" cx="20.7" cy="24.8" rx="0.7" ry="1.9"/>
					</g>
					<g>
						
							<ellipse transform="matrix(-0.264 0.9645 -0.9645 -0.264 49.9716 8.7064)" fill="#F7B64C" cx="21.7" cy="23.4" rx="0.7" ry="1.9"/>
					</g>
				</g>
				<g>
					<circle fill="#F05540" cx="19.6" cy="23" r="1.2"/>
				</g>
				<g>
					<circle fill="#415A6B" cx="19.6" cy="23" r="0.8"/>
				</g>
			</g>
		</g>
	</g>
</g>
</svg>
