<?xml version="1.0" encoding="utf-8"?>
<!-- Generator: Adobe Illustrator 16.0.0, SVG Export Plug-In . SVG Version: 6.00 Build 0)  -->
<!DOCTYPE svg PUBLIC "-//W3C//DTD SVG 1.1//EN" "http://www.w3.org/Graphics/SVG/1.1/DTD/svg11.dtd">
<svg version="1.1" id="Layer_1" xmlns="http://www.w3.org/2000/svg" xmlns:xlink="http://www.w3.org/1999/xlink" x="0px" y="0px"
	 width="48px" height="48px" viewBox="0 0 48 48" enable-background="new 0 0 48 48" xml:space="preserve">
<g>
	<path fill="#54C0EB" d="M45.878,23.999c0,12.083-9.795,21.878-21.877,21.878c-12.084,0-21.879-9.795-21.879-21.878
		S11.917,2.121,24.001,2.121C36.083,2.121,45.878,11.916,45.878,23.999"/>
	<path fill="#FF7058" d="M5.622,0.25l1.426,1.87c-7.336,6.201-9.213,16.657-4.709,24.927c-0.133-0.898-0.205-1.817-0.218-2.747
		c-0.047-3.431,0.698-6.681,2.069-9.589c1.267-3.148,3.328-6.026,6.146-8.295l1.426,1.87l1.805-7.756L5.622,0.25z"/>
	<path fill="#40596B" d="M45.659,20.943c0.132,0.897,0.205,1.816,0.218,2.757c0.046,3.36-0.67,6.56-1.991,9.418
		c-0.01,0.031-0.02,0.062-0.039,0.091c-1.267,3.179-3.347,6.076-6.186,8.375l-1.426-1.87l-1.805,7.745l7.955,0.291l-1.436-1.87
		C48.296,39.68,50.163,29.223,45.659,20.943"/>
	<path fill="#F2F2F2" d="M22.311,40.151c-0.171,0.035-0.297,0.179-0.458,0.246c-0.26,0.106-0.552-0.003-0.833-0.018
		c-0.28-0.013-0.63,0.179-0.567,0.452c0.299,0.39,0.597,0.78,0.895,1.17c0.159,0.208,0.325,0.433,0.348,0.694
		c0.021,0.261-0.17,0.558-0.432,0.545c0.114-0.288-0.141-0.64-0.45-0.66c-0.309-0.02-0.593,0.251-0.632,0.558
		c0.098-0.269,0.068-0.582-0.074-0.829c-0.104-0.177-0.262-0.322-0.328-0.517c-0.186-0.55,0.432-0.997,0.838-1.414
		c0.652-0.671,0.834-1.814,0.278-2.569c-0.271-0.368-0.716-0.729-0.6-1.171c0.034-0.127,0.114-0.237,0.155-0.362
		c0.174-0.513-0.532-1.052-0.981-0.748c-0.447,0.303-0.354,0.972-0.263,1.505c0.091,0.533,0.002,1.256-0.528,1.36
		c-0.358,0.069-0.694-0.216-1.06-0.243c-0.478-0.037-0.916,0.464-0.815,0.932c0.101,0.469,0.705,0.747,1.125,0.519
		c-0.085,0.346-0.59,0.327-0.917,0.183c-0.326-0.146-0.747-0.322-1-0.07c0.123,0.204,0.246,0.409,0.369,0.613
		c-0.592,0.271-1.184,0.544-1.776,0.816c-0.36,0.166-0.907,0.262-1.045-0.11c0.724-0.969,1.567-1.848,2.504-2.613
		c0.232-0.188,0.472-0.372,0.738-0.507c0.282-0.144,0.592-0.232,0.866-0.393c0.67-0.395,1.031-1.183,1.105-1.956
		c0.075-0.773-0.094-1.549-0.261-2.308c-0.202-0.913-0.426-1.87-1.054-2.563c-0.627-0.693-1.797-0.989-2.5-0.373
		c-0.527-0.273-1.016,0.009-1.445,0.42c-0.43,0.41-0.723,0.945-1.148,1.36c-0.424,0.416-1.074,0.701-1.611,0.448
		c-0.223-0.104-0.396-0.289-0.608-0.414c-0.362-0.213-0.802-0.236-1.206-0.355c-0.775-0.227-1.429-0.831-1.715-1.585l0.084,0.176
		c-0.695,0.169-1.374-0.28-1.979-0.664c-0.605-0.385-1.387-0.729-2.008-0.372c-0.19,0.11-0.328,0.263-0.422,0.442
		c1.065,3.904,3.187,7.372,6.036,10.08c0.228-0.028,0.461-0.032,0.691-0.032c1.138,0,2.321,0.01,3.343,0.51
		c-1.139,0.02-2.277,0.038-3.417,0.058c-0.011,0.001-0.021,0.002-0.032,0.002c2.895,2.559,6.471,4.36,10.424,5.103
		c0.118-0.213,0.361-0.322,0.586-0.419c0.955-0.408,1.902-0.953,2.463-1.826c0.56-0.874,0.606-2.146-0.135-2.873
		C22.712,40.234,22.513,40.11,22.311,40.151"/>
	<path fill="#F2F2F2" d="M24.789,2.826c0.019,0.312,0.271,0.677,0.565,0.574c0.396-0.375,0.791-0.749,1.188-1.124
		c0.001-0.001,0.002-0.002,0.004-0.004c-0.58-0.067-1.169-0.111-1.762-0.132C24.817,2.359,24.776,2.6,24.789,2.826"/>
	<path fill="#F2F2F2" d="M45.229,18.705c-1.558-6.27-5.82-11.468-11.478-14.291c-0.403,0.217-0.905,0.009-1.278-0.259
		c-0.378-0.269-0.74-0.609-1.201-0.664c-0.232-0.026-0.479,0.022-0.695-0.064C30.384,3.349,30.252,3.182,30.142,3
		c-0.886-0.259-1.793-0.466-2.721-0.611c-0.107,0.109-0.184,0.255-0.177,0.409c0.015,0.344,0.347,0.627,0.69,0.634
		c-0.309-0.077-0.65-0.009-0.908,0.18c-0.183,0.134-0.326,0.326-0.531,0.421c-0.586,0.27-1.152-0.359-1.659-0.759
		c-0.819-0.643-2.104-0.71-2.872-0.008c-0.375,0.342-0.721,0.877-1.223,0.8c-0.145-0.023-0.276-0.098-0.42-0.13
		c-0.586-0.132-1.098,0.712-0.711,1.172c0.388,0.459,1.115,0.278,1.693,0.115c0.578-0.164,1.387-0.151,1.563,0.424
		c0.121,0.389-0.154,0.792-0.143,1.199c0.014,0.532,0.618,0.957,1.125,0.792c0.506-0.165,0.742-0.866,0.439-1.305
		c0.393,0.054,0.432,0.614,0.311,0.992c-0.123,0.377-0.269,0.862,0.039,1.113c0.211-0.16,0.424-0.32,0.635-0.48
		c0.369,0.622,0.738,1.244,1.108,1.866c0.226,0.379,0.396,0.974,0.001,1.168c-1.154-0.686-2.227-1.515-3.179-2.461
		c-0.236-0.233-0.468-0.477-0.648-0.755c-0.19-0.296-0.325-0.628-0.534-0.911c-0.514-0.693-1.426-1.001-2.289-0.993
		c-0.865,0.008-1.701,0.284-2.52,0.559c-0.984,0.33-2.016,0.688-2.708,1.463c-0.692,0.772-0.882,2.101-0.12,2.806
		c-0.238,0.615,0.13,1.12,0.633,1.547c0.504,0.428,1.129,0.688,1.639,1.109c0.508,0.421,0.9,1.104,0.684,1.729
		c-0.09,0.258-0.273,0.472-0.386,0.72c-0.194,0.426-0.169,0.914-0.253,1.375c-0.159,0.881-0.75,1.675-1.551,2.08l0.185-0.114
		c0.269,0.749-0.147,1.551-0.502,2.264s-0.644,1.615-0.177,2.26c0.589,0.813,1.852,0.563,2.763,0.145
		c1.002-0.46,1.952-1.021,2.901-1.581c0.41-0.242,0.828-0.491,1.137-0.853c0.309-0.362,0.49-0.817,0.783-1.193
		c1.134-1.46,3.529-1.34,4.74-2.737c-0.455,0.085-0.912-0.228-1.141-0.631c-0.23-0.403-0.283-0.879-0.332-1.34
		c-0.134-1.257-0.261-2.566,0.172-3.753c0.155,1.256,0.309,2.512,0.463,3.768c0.031,0.248,0.066,0.508,0.211,0.711
		c0.316,0.442,0.969,0.417,1.508,0.346c0.427-0.058,0.867-0.117,1.238-0.336c0.37-0.219,0.659-0.638,0.59-1.063
		c-0.076-0.474-0.535-0.77-0.871-1.115c-0.336-0.344-0.535-0.981-0.139-1.256c0.652,1.126,1.514,2.131,2.526,2.949
		c0.344,0.277,0.718,0.549,0.907,0.948c0.216,0.458,0.146,0.994,0.072,1.495c-0.136,0.928-0.272,1.856-0.41,2.785
		c0.567-0.753,1.418-1.284,2.342-1.466c0.714-0.139,1.695,0.16,1.673,0.888c-0.015,0.47-0.452,1.017-0.104,1.335
		c0.19,0.175,0.498,0.118,0.729,0.237c0.443,0.229,0.343,0.875,0.23,1.36c-0.111,0.486-0.004,1.192,0.494,1.201
		c-0.959,0.623-1.218,1.972-0.904,3.072c0.312,1.101,1.067,2.012,1.806,2.887c0.272-0.329-0.063-0.804-0.369-1.102
		c-0.575-0.559-1.151-1.373-0.806-2.096c0.178-0.368,0.57-0.622,0.662-1.02c0.088-0.378-0.121-0.801,0.049-1.148
		c0.177-0.361,0.675-0.461,0.878-0.808c0.204-0.353,0.03-0.791-0.083-1.184c-0.112-0.392-0.09-0.926,0.292-1.069
		c0.252-0.096,0.526,0.04,0.769,0.156c0.977,0.464,2.209,0.626,3.092,0.003c0.258-0.182,0.483-0.443,0.516-0.758
		c0.021-0.203-0.041-0.405-0.104-0.6l-1.013-3.224c0.548-0.23,1.168,0.257,1.358,0.819c0.189,0.563,0.1,1.177,0.127,1.771
		s0.232,1.256,0.771,1.509c0.257-0.147,0.241-0.531,0.114-0.799c-0.126-0.269-0.331-0.515-0.35-0.812
		c-0.02-0.347,0.227-0.651,0.479-0.89C44.647,19.009,44.933,18.822,45.229,18.705"/>
	<path fill="#FFFFFF" d="M45.685,21.126c-0.086,0.056-0.172,0.111-0.259,0.165c-0.138,0.083-0.285,0.173-0.351,0.319
		c-0.139,0.31,0.211,0.663,0.549,0.641c0.062-0.004,0.117-0.025,0.176-0.044C45.77,21.844,45.731,21.483,45.685,21.126"/>
</g>
</svg>
