<?xml version="1.0" encoding="utf-8"?>
<!-- Generator: Adobe Illustrator 18.0.0, SVG Export Plug-In . SVG Version: 6.00 Build 0)  -->
<!DOCTYPE svg PUBLIC "-//W3C//DTD SVG 1.1//EN" "http://www.w3.org/Graphics/SVG/1.1/DTD/svg11.dtd">
<svg version="1.1" id="Layer_1" xmlns="http://www.w3.org/2000/svg" xmlns:xlink="http://www.w3.org/1999/xlink" x="0px" y="0px"
	 viewBox="0 0 48 48" enable-background="new 0 0 48 48" xml:space="preserve">
<g>
	<rect x="3.1" y="12.8" fill="#FFD15C" width="41.7" height="31"/>
	<rect x="26.6" y="21.4" fill="#415A6B" width="15.2" height="22.4"/>
	<rect x="28.1" y="22.9" fill="#8AD7F8" width="12.2" height="19.4"/>
	<g>
		<g>
			<g>
				<path fill="#F05540" d="M0,9.6v4.5c0,2.7,2.1,4.8,4.8,4.8c2.7,0,4.8-2.1,4.8-4.8V9.6H0z"/>
			</g>
			<g>
				<path fill="#E8EAE9" d="M9.6,9.6v4.5c0,2.7,2.1,4.8,4.8,4.8c2.7,0,4.8-2.1,4.8-4.8V9.6H9.6z"/>
			</g>
			<g>
				<path fill="#F05540" d="M19.2,9.6v4.5c0,2.7,2.1,4.8,4.8,4.8c2.7,0,4.8-2.1,4.8-4.8V9.6H19.2z"/>
			</g>
			<g>
				<path fill="#E8EAE9" d="M28.8,9.6v4.5c0,2.7,2.1,4.8,4.8,4.8c2.7,0,4.8-2.1,4.8-4.8V9.6H28.8z"/>
			</g>
			<g>
				<path fill="#F05540" d="M38.4,9.6v4.5c0,2.7,2.1,4.8,4.8,4.8c2.7,0,4.8-2.1,4.8-4.8V9.6H38.4z"/>
			</g>
		</g>
		<polygon fill="#F3705A" points="11.7,0 3.5,0 0,9.6 9.6,9.6 		"/>
		<polygon fill="#F3F3F3" points="19.9,0 11.7,0 9.6,9.6 19.2,9.6 		"/>
		<polygon fill="#F3705A" points="28.1,0 19.9,0 19.2,9.6 28.8,9.6 		"/>
		<polygon fill="#F3F3F3" points="36.3,0 28.1,0 28.8,9.6 38.4,9.6 		"/>
		<polygon fill="#F3705A" points="44.5,0 36.3,0 38.4,9.6 48,9.6 		"/>
	</g>
	<rect x="0" y="43.8" fill="#CED6E0" width="48" height="4.2"/>
	<circle fill="#415A6B" cx="30" cy="32.6" r="1.3"/>
	<rect x="6.1" y="21.4" fill="#415A6B" width="16.9" height="15.2"/>
	<rect x="7.6" y="22.9" fill="#8AD7F8" width="13.9" height="12.2"/>
	<g>
		<path fill="#55C0EB" d="M14.9,24.8c-0.2-0.2-0.7-0.2-0.9,0l-4.9,4.9c-0.2,0.2-0.2,0.7,0,0.9c0.2,0.2,0.7,0.2,0.9,0l4.9-4.9
			C15.2,25.4,15.2,25,14.9,24.8z"/>
		<path fill="#55C0EB" d="M16,27.7c-0.2-0.2-0.7-0.2-0.9,0L12,30.8c-0.2,0.2-0.2,0.7,0,0.9c0.2,0.2,0.7,0.2,0.9,0l3.1-3.1
			C16.3,28.3,16.3,27.9,16,27.7z"/>
	</g>
</g>
</svg>
