<?xml version="1.0" encoding="utf-8"?>
<!-- Generator: Adobe Illustrator 18.0.0, SVG Export Plug-In . SVG Version: 6.00 Build 0)  -->
<!DOCTYPE svg PUBLIC "-//W3C//DTD SVG 1.1//EN" "http://www.w3.org/Graphics/SVG/1.1/DTD/svg11.dtd">
<svg version="1.1" id="Layer_1" xmlns="http://www.w3.org/2000/svg" xmlns:xlink="http://www.w3.org/1999/xlink" x="0px" y="0px"
	 viewBox="0 0 48 48" enable-background="new 0 0 48 48" xml:space="preserve">
<g>
	<g>
		<path fill="#354B5E" d="M0,36.2c0.6,2.8,2.1,5.3,4.3,7.1C6.5,45,9.3,46,12,45.9c4.1,0,8.1-2.2,12.1-1.3c2,0.5,3.8,1.7,5.8,2.4
			c3.4,1.3,7.3,1.2,10.7-0.3c3.3-1.5,6-4.4,7.4-7.9l0-0.4C32.4,29.7,16.5,28.7,0,36.2z"/>
		<g>
			<path fill="none" stroke="#908F8F" stroke-miterlimit="10" d="M13.8,33.3"/>
			<path fill="#435B6C" d="M28.6,0.8c-0.2-1-1.5-1.1-1.8-0.2l-13,32.6c6.8,3.7,14.2,4.3,20.9,1.5L28.6,0.8z"/>
			<g>
				<g>
					<path fill="#FFFFFF" d="M23.6,37.6C23.6,37.6,23.6,37.6,23.6,37.6c-0.2,0-0.4-0.2-0.4-0.4l0.4-5.2c0-0.2,0.2-0.4,0.4-0.3
						c0.2,0,0.4,0.2,0.3,0.4L24,37.3C24,37.5,23.8,37.6,23.6,37.6z"/>
				</g>
			</g>
			<path fill="#F3705B" d="M34.1,31.3l-0.7,0.3c-5.7,2.4-12.1,1.9-18.1-1.3l-0.3-0.2c-0.9,0.9-1.3,1.9-1.2,3.1
				c6.8,3.7,14.2,4.3,20.9,1.5C34.9,33.4,34.7,32.3,34.1,31.3z"/>
		</g>
		<path fill="#FFFFFF" d="M26.2,31.9l-4.3-0.4c-0.1,0-0.2,0-0.3,0.1c-0.1,0.1-0.1,0.2-0.1,0.3l-0.4,5.2c0,0.2,0.1,0.4,0.3,0.4
			l4.3,0.4c0,0,0,0,0,0c0.1,0,0.2,0,0.2-0.1c0.1-0.1,0.1-0.2,0.1-0.3l0.4-5.2C26.6,32.1,26.4,31.9,26.2,31.9z M25.4,37l-3.6-0.3
			l0.4-4.4l3.6,0.3L25.4,37z"/>
	</g>
</g>
</svg>
