<?xml version="1.0" encoding="utf-8"?>
<!-- Generator: Adobe Illustrator 18.0.0, SVG Export Plug-In . SVG Version: 6.00 Build 0)  -->
<!DOCTYPE svg PUBLIC "-//W3C//DTD SVG 1.1//EN" "http://www.w3.org/Graphics/SVG/1.1/DTD/svg11.dtd">
<svg version="1.1" id="Layer_1" xmlns="http://www.w3.org/2000/svg" xmlns:xlink="http://www.w3.org/1999/xlink" x="0px" y="0px"
	 viewBox="0 0 48 48" enable-background="new 0 0 48 48" xml:space="preserve">
<g>
	<g>
		<path fill="#F3F3F3" d="M27.9,0H2C0.9,0,0,0.9,0,2v44c0,1.1,0.9,2,2,2h34.4c1.1,0,2-0.9,2-2V10.5L27.9,0z"/>
		<g>
			<rect x="4.9" y="5.4" fill="#CED6E0" width="18.1" height="2.4"/>
			<rect x="4.9" y="12.4" fill="#CED6E0" width="28.6" height="2.4"/>
			<rect x="4.9" y="19.3" fill="#CED6E0" width="28.6" height="2.4"/>
			<rect x="4.9" y="26.3" fill="#CED6E0" width="9.1" height="2.4"/>
		</g>
		<polygon fill="#66C6B9" points="27.9,0 38.4,10.5 27.9,10.5 		"/>
		<g>
			<g>
				<path fill="#FFD15C" d="M20.3,32.8l-3.7,9.4l10.1-1C32.6,36.8,26.2,28.3,20.3,32.8z"/>
			</g>
			<g>
				<path fill="#F3705A" d="M24.6,38.4c2.3-0.3,3,0.6,2.1,2.8l15.2-11.6l-2.1-2.8L24.6,38.4z"/>
			</g>
			<g>
				<path fill="#F05540" d="M22.4,35.6c2.3-0.3,3,0.6,2.1,2.8l15.2-11.6l-2.1-2.8L22.4,35.6z"/>
			</g>
			<g>
				<path fill="#F3705A" d="M20.3,32.8c2.3-0.3,3,0.6,2.1,2.8l15.2-11.6l-2.1-2.8L20.3,32.8z"/>
			</g>
			<path fill="#415A6B" d="M47.6,23.1l-4.3-5.7c-0.6-0.8-1.7-0.9-2.4-0.3l-3.9,3l6.4,8.4l3.9-3C48.1,25,48.2,23.9,47.6,23.1z"/>
			<g>
				
					<rect x="38.5" y="19.6" transform="matrix(0.7962 -0.6051 0.6051 0.7962 -7.0241 28.9493)" fill="#E8EAE9" width="1.8" height="10.6"/>
			</g>
			<g>
				<path fill="#415A6B" d="M17.9,39l-1.3,3.3l3.5-0.4C20,40.6,19.1,39.5,17.9,39z"/>
			</g>
		</g>
	</g>
</g>
</svg>
