<?xml version="1.0" encoding="utf-8"?>
<!-- Generator: Adobe Illustrator 19.0.1, SVG Export Plug-In . SVG Version: 6.00 Build 0)  -->
<svg version="1.1" id="Layer_1" xmlns="http://www.w3.org/2000/svg" xmlns:xlink="http://www.w3.org/1999/xlink" x="0px" y="0px"
	 viewBox="0 0 48 48" style="enable-background:new 0 0 48 48;" xml:space="preserve">
<style type="text/css">
	.st0{fill:#FFD15C;}
	.st1{fill:#415A6B;}
	.st2{fill:#F7B64C;}
	.st3{fill:#CED6E0;}
	.st4{fill:#344A5E;}
	.st5{fill:#F3F3F3;}
	.st6{fill:#F05540;}
	.st7{fill:#F3705A;}
	.st8{fill:#66C6B9;}
	.st9{fill:#55C0EB;}
	.st10{fill:#F5F6FB;}
	.st11{fill:#4ABAA5;}
	.st12{fill:#ADB3BA;}
	.st13{fill:#E8EAE9;}
	.st14{fill:#2E4556;}
	.st15{fill:#8AD7F8;}
	.st16{fill:#FFFFFF;}
	.st17{fill:#E54838;}
	.st18{fill:#3EAF99;}
	.st19{fill:#EFA943;}
	.st20{fill:#4CAEE5;}
	.st21{fill:#293F4F;}
	.st22{fill:#2D4456;}
	.st23{fill:#2E4454;}
	.st24{fill:#2A3F4F;}
	.st25{fill:#2D4151;}
	.st26{fill:#E89E3D;}
	.st27{fill:#2B4151;}
	.st28{fill:#2A4051;}
	.st29{fill:#2C4151;}
	.st30{fill:#EBEAE8;}
	.st31{fill:#3AA590;}
	.st32{fill:#E84534;}
	.st33{fill:none;}
</style>
<g>
	<g>
		<g>
			<path class="st13" d="M35,0H11.4L0,11.4L0,46c0,1.1,0.9,2,2,2h33c1.1,0,2-0.9,2-2V2C37,0.9,36.1,0,35,0z"/>
		</g>
		<g>
			<path class="st12" d="M0,11.4l8.7,0c1.5,0,2.7-1.2,2.7-2.7l0-8.7L0,11.4z"/>
		</g>
		<g>
			<path class="st7" d="M18.5,22.2c-2.9,0-5.3,2.4-5.3,5.3s2.4,5.3,5.3,5.3s5.3-2.4,5.3-5.3S21.4,22.2,18.5,22.2z M18.5,29.9
				c-1.3,0-2.3-1-2.3-2.3s1-2.3,2.3-2.3s2.3,1,2.3,2.3S19.8,29.9,18.5,29.9z"/>
			<path class="st7" d="M33,26h-2.7c-0.7-5.4-4.9-9.6-10.3-10.3V13h-3v2.7C11.6,16.4,7.3,20.6,6.7,26H4v3h2.7
				c0.7,5.4,4.9,9.6,10.3,10.3V42h3v-2.7c5.4-0.7,9.6-4.9,10.3-10.3H33V26z M18.5,36.4c-4.9,0-8.9-4-8.9-8.9c0-4.9,4-8.9,8.9-8.9
				c4.9,0,8.9,4,8.9,8.9C27.4,32.4,23.4,36.4,18.5,36.4z"/>
		</g>
		<g>
			<g>
				
					<ellipse transform="matrix(0.9547 0.2976 -0.2976 0.9547 10.2794 -10.4439)" class="st0" cx="39.4" cy="28.5" rx="0.7" ry="1.5"/>
			</g>
			<g>
				
					<ellipse transform="matrix(-0.9858 0.1679 -0.1679 -0.9858 67.1896 50.6234)" class="st0" cx="31.5" cy="28.2" rx="0.7" ry="1.5"/>
			</g>
			<g>
				<path class="st0" d="M31.7,28.1c0,0-0.2,1.8,0.3,3.5V37H38l0.3-5.2c0,0,0.7-1.7,0.9-3.7s0.5-4.2,0.5-4.2l-1.3-1.7l-4.4,0.1
					l-1.7,1.4L31.7,28.1z"/>
			</g>
			<g>
				<rect x="29.5" y="36.7" class="st3" width="10.8" height="11.3"/>
			</g>
			<g>
				<path class="st1" d="M32,28.1c0-0.5,0-1.3,0.2-1.7c0.3-0.7,0.3-1.3,0.4-1.8c0.1-0.5,0.5-1.2,1.4-1.2c0.9,0,2.7,0.2,3.6,0.1
					c1-0.1,1.2,0.4,1.2,1.1c0,0.7,0.2,1.8,0.3,2.1c0.1,0.2,0,1.1,0,1.4h0.3c0.2-0.3,0.6-1,0.6-1.6c0-0.8,0.9-4.3-1-4.2
					c0,0,0.1-2.5-3.9-2c-4,0.6-3.9,4.6-4,5.3c0,0.5,0.3,1.7,0.6,2.5H32z"/>
			</g>
			<path class="st2" d="M34.9,33.5c-1.5-0.1-2.9-2-2.9-2v4.7c4.8-0.4,6.2-4.5,6.2-4.5C37.9,32.4,36.4,33.6,34.9,33.5z"/>
			<g>
				<g>
					<path class="st1" d="M48,48c-0.6-1.6-0.9-4.4-1.1-5.9c-0.2-1.5-1.4-3.4-1.4-3.4l-0.9,0.2L42.4,40l1.1,8H48z"/>
				</g>
				<g>
					<path class="st4" d="M37.8,48H44c0.2-3.6,1.5-8.9,1.5-9.3c0-0.4,0-0.5-1.4-1S39.4,35,39.4,35l0.2,3.5L37.8,48z"/>
				</g>
				<g>
					<path class="st13" d="M38.1,33.8c0,0-1.5,2.2-3,2.9c0,0,1.2,0.4,1.6,0.8c0.5,0.4,1.1,0.6,1.1,0.6l1.2-2.6L38.1,33.8z"/>
				</g>
				<g>
					<path class="st1" d="M38.3,39.1c-0.1,2-0.5,6.1-0.9,8.9h1.4c1-2.6,2.4-7.9,2.3-10.5l-1.3-0.3c0,0,0.8-0.6,1-0.7
						c0,0-0.7-1-1.4-1.5s-0.8-0.9-1.2-1C38.3,34,38.5,36.4,38.3,39.1z"/>
				</g>
			</g>
			<g>
				<g>
					<path class="st1" d="M26.7,48l1.1-8l-2.2-1.1l-0.9-0.2c0,0-1.1,1.8-1.4,3.4c-0.2,1.5-0.6,4.4-1.1,5.9H26.7z"/>
				</g>
				<g>
					<path class="st4" d="M32.3,48l-1.8-9.5l0.2-3.5c0,0-3.3,2.2-4.7,2.7s-1.4,0.6-1.4,1c0,0.4,1.2,5.7,1.5,9.3H32.3z"/>
				</g>
				<g>
					<path class="st13" d="M32,33.8c0,0,1.5,2.2,3,2.9c0,0-1.2,0.4-1.6,0.8c-0.5,0.4-1.1,0.6-1.1,0.6l-1.2-2.6L32,33.8z"/>
				</g>
				<g>
					<path class="st1" d="M31.3,48h1.4c-0.4-2.8-0.8-6.9-0.9-8.9c-0.1-2.7,0.1-5.1,0.1-5.1c-0.4,0.1-0.4,0.5-1.2,1
						c-0.8,0.5-1.4,1.5-1.4,1.5c0.3,0.1,1,0.7,1,0.7L29,37.5C28.9,40.1,30.3,45.4,31.3,48z"/>
				</g>
			</g>
			<g>
				<g>
					<polygon class="st7" points="36,39.9 37.1,38.7 35.1,36.7 33,38.7 34.1,39.9 					"/>
				</g>
				<g>
					<polygon class="st7" points="36.9,48 36,39.9 34.1,39.9 33.2,48 					"/>
				</g>
			</g>
		</g>
	</g>
</g>
</svg>
