<?xml version="1.0" encoding="utf-8"?>
<!-- Generator: Adobe Illustrator 18.0.0, SVG Export Plug-In . SVG Version: 6.00 Build 0)  -->
<!DOCTYPE svg PUBLIC "-//W3C//DTD SVG 1.1//EN" "http://www.w3.org/Graphics/SVG/1.1/DTD/svg11.dtd">
<svg version="1.1" id="Layer_1" xmlns="http://www.w3.org/2000/svg" xmlns:xlink="http://www.w3.org/1999/xlink" x="0px" y="0px"
	 viewBox="0 0 48 48" enable-background="new 0 0 48 48" xml:space="preserve">
<g>
	<g>
		<g>
			<path fill="#66C6B9" d="M37.8,38.3c2.3-2.6,5.2-15.6,5.2-15.6s-12.5,4.5-14.8,7.1s-2.1,6.7,0.6,9S35.4,41,37.8,38.3z"/>
		</g>
		<g>
			<g>
				<path fill="#66C6B9" d="M9.5,34.1C7.5,31.8,5,20.8,5,20.8s10.6,3.8,12.6,6.1s1.8,5.7-0.5,7.7S11.5,36.4,9.5,34.1z"/>
			</g>
			<polygon fill="#415A6B" points="36.5,34.5 31.6,36.1 33,34.5 33,34.5 33,34.5 38.9,27.4 33.2,33.4 34.3,28.2 32.3,34.4 
				32.3,34.4 23.6,43.7 23.6,24.4 21.6,24.4 21.6,38.7 14.1,30.7 14.1,30.7 12.4,25.4 13.3,29.9 8.5,24.7 13.5,30.8 13.5,30.9 
				13.6,30.9 14.7,32.2 10.5,30.8 15.4,33.1 21.6,40.5 21.6,48 23.6,48 23.6,45.8 30.8,37.1 			"/>
		</g>
		<g>
			<g>
				<circle fill="#FFD15C" cx="22.6" cy="13" r="13"/>
			</g>
			<g>
				<circle fill="#F7B64C" cx="22.6" cy="13" r="9.8"/>
			</g>
			<g>
				<path fill="#FFD15C" d="M21.9,19.7v-1.2c-1.4-0.2-2.7-0.8-3.8-1.9l1.5-1.8c0.8,0.7,1.6,1.2,2.3,1.4v-2.4c-1.1-0.3-2-0.7-2.5-1.2
					c-0.5-0.5-0.8-1.2-0.8-2.1c0-0.9,0.3-1.7,0.9-2.3c0.6-0.6,1.4-1,2.4-1.1V6.3h1.7v0.8c1.1,0.2,2.2,0.6,3.2,1.4l-1.3,1.9
					c-0.7-0.5-1.3-0.8-1.9-1v2.3c1.2,0.3,2,0.7,2.6,1.2c0.6,0.5,0.8,1.2,0.8,2.2c0,0.9-0.3,1.7-0.9,2.3c-0.6,0.6-1.5,1-2.5,1.1v1.1
					H21.9z M21.9,9.4c-0.5,0.2-0.7,0.5-0.7,0.9c0,0.4,0.2,0.8,0.7,1V9.4z M24.5,15.3c0-0.2-0.1-0.4-0.2-0.6
					c-0.1-0.2-0.3-0.3-0.7-0.4v2C24.2,16.2,24.5,15.8,24.5,15.3z"/>
			</g>
		</g>
	</g>
</g>
</svg>
