<?xml version="1.0" encoding="utf-8"?>
<!-- Generator: Adobe Illustrator 18.0.0, SVG Export Plug-In . SVG Version: 6.00 Build 0)  -->
<!DOCTYPE svg PUBLIC "-//W3C//DTD SVG 1.1//EN" "http://www.w3.org/Graphics/SVG/1.1/DTD/svg11.dtd">
<svg version="1.1" id="Layer_1" xmlns="http://www.w3.org/2000/svg" xmlns:xlink="http://www.w3.org/1999/xlink" x="0px" y="0px"
	 viewBox="0 0 48 48" enable-background="new 0 0 48 48" xml:space="preserve">
<g>
	<g>
		<g>
			<g>
				<g>
					<g>
						<path fill="#FFD15C" d="M38.3,30.8c-1.3,0.4-2.5,0.6-3.7,0.7c0,0-3.9-1.7-5-1.6c-1,0.1-5.6,0-6.8,0.9
							c-1.2,0.9-4.2,1.3-4.2,1.3c-1.9-0.3-5.9,0.6-5.9,0.6l-2.4-0.5c-0.8-0.7-4.5-1.9-4.5-1.9S6,30,3.3,29.1C0.6,28.2,0,30.5,0,30.5
							l2,1.2c2.7,1.3,5.3,3.4,7.2,4.8c0.8,0.6,1.6,1.1,2.4,1.5c1,0.6,1.9,1.2,2.5,1.7c0.5,0.4,1,0.9,1.4,1.5c1,1.3,2.6,1.9,5.2,1.4
							c0.5-0.2,3.2-0.6,3.7-0.6c0.1,0,0.1,0,0.2,0c3.5-0.2,9.2-1.2,9.2-1.2c0.7,0,3.1-0.5,5.5-1L38.3,30.8z"/>
						<path fill="#F3F3F3" d="M2.2,31.7c0-0.1,0-0.2-0.1-0.3c-0.1-0.4-1.3-1.2-1.9-1.5C0.1,30.2,0,30.5,0,30.5l2,1.2
							C2.1,31.7,2.1,31.7,2.2,31.7z"/>
					</g>
					<g>
						<path fill="#F7B64C" d="M23.4,36.1c-0.4,0-0.8-0.1-1.3-0.1c-0.4,0-0.8,0-1.3,0c-0.4,0.1-0.8,0.1-1.2,0.2
							c-0.4,0.1-0.8,0.1-1.2,0.2c-0.8,0.1-1.7,0.2-2.5,0.3c-0.4,0-0.8,0.1-1.2,0.1c-0.4,0-0.8,0-1.2,0c-0.4,0-0.8-0.1-1.2-0.1
							c-0.1,0-0.2,0-0.3-0.1c-0.1,0-0.2-0.1-0.3-0.1c-0.2-0.1-0.4-0.2-0.5-0.3c0,0-0.1-0.1-0.1-0.1c0,0-0.1-0.1-0.1-0.1l-0.1-0.3
							l-0.1-0.3c0-0.1,0-0.2-0.1-0.3c-0.1-0.4,0-0.8,0.2-1.1c0.2-0.3,0.5-0.6,0.9-0.8c0.4-0.2,0.7-0.3,1.1-0.4l0,0l0,0
							c0,0,0.1-0.1,0.1-0.1c-0.1,0-0.2,0-0.2,0l-0.1,0c-0.4,0.1-0.7,0.2-1.1,0.4c-0.4,0.2-0.7,0.5-0.9,0.9c-0.2,0.4-0.3,0.8-0.3,1.3
							c0,0.1,0,0.2,0.1,0.3c0,0.1,0.1,0.2,0.1,0.3l0.1,0.3c0,0.1,0.1,0.1,0.1,0.1c0,0,0.1,0.1,0.1,0.1c0.2,0.2,0.4,0.3,0.6,0.3
							c0.1,0,0.2,0.1,0.3,0.1c0.1,0,0.2,0.1,0.3,0.1c0.4,0.1,0.8,0.1,1.3,0.2c0.8,0,1.7,0,2.5-0.1c0.8-0.1,1.7-0.2,2.5-0.3
							c0.4-0.1,0.8-0.1,1.2-0.2c0.4-0.1,0.8-0.2,1.2-0.2c0.4-0.1,0.8-0.1,1.2-0.1c0.4,0,0.8,0,1.2,0c0.8,0,1.7,0.1,2.5,0.2
							C25,36.3,24.2,36.2,23.4,36.1z"/>
					</g>
					<g>
						<path fill="#F3F3F3" d="M12.8,33.6c0,0,0.9-0.3,1.1,0.4c0.3,0.7,0.3,1.3,0.3,1.3s0.1,0.8-0.6,0.8c-0.8,0.1-2.3,0.3-2.3,0.3
							s-0.9,0.1-1.1-0.6c-0.1-0.7-0.3-1.7,0.8-1.9C12.1,33.7,12.8,33.6,12.8,33.6z"/>
					</g>
				</g>
				<g>
					<g>
						
							<rect x="35.6" y="30.2" transform="matrix(0.9946 -0.1034 0.1034 0.9946 -3.52 3.9824)" fill="#F3F3F3" width="2.1" height="11.4"/>
					</g>
					<g>
						
							<rect x="37.7" y="28.4" transform="matrix(0.9946 -0.1034 0.1034 0.9946 -3.4255 4.5836)" fill="#415A6B" width="9.6" height="13.9"/>
					</g>
				</g>
			</g>
			<g>
				<circle fill="#344A5E" cx="42.2" cy="38.9" r="1.6"/>
			</g>
		</g>
		<g>
			<g>
				<g>
					<rect x="23.4" y="5.2" fill="#F3705A" width="4.1" height="16.7"/>
				</g>
				<g>
					<rect x="11" y="8.4" fill="#66C6B9" width="4.1" height="13.6"/>
				</g>
				<g>
					<rect x="17.2" y="13.2" fill="#415A6B" width="4.1" height="8.8"/>
				</g>
				<g>
					<rect x="4.8" y="17" fill="#FFD15C" width="4.1" height="5"/>
				</g>
			</g>
			<g>
				<path fill="#415A6B" d="M28.5,26.9H3.9c-0.8,0-1.5-0.7-1.5-1.5l0,0c0-0.8,0.7-1.5,1.5-1.5h24.5c0.8,0,1.5,0.7,1.5,1.5l0,0
					C29.9,26.2,29.3,26.9,28.5,26.9z"/>
			</g>
		</g>
	</g>
</g>
</svg>
