<?xml version="1.0" encoding="utf-8"?>
<!-- Generator: Adobe Illustrator 19.0.1, SVG Export Plug-In . SVG Version: 6.00 Build 0)  -->
<svg version="1.1" id="Layer_1" xmlns="http://www.w3.org/2000/svg" xmlns:xlink="http://www.w3.org/1999/xlink" x="0px" y="0px"
	 viewBox="0 0 48 48" style="enable-background:new 0 0 48 48;" xml:space="preserve">
<style type="text/css">
	.st0{fill:#FFD15C;}
	.st1{fill:#415A6B;}
	.st2{fill:#F7B64C;}
	.st3{fill:#CED6E0;}
	.st4{fill:#344A5E;}
	.st5{fill:#F3F3F3;}
	.st6{fill:#F05540;}
	.st7{fill:#F3705A;}
	.st8{fill:#66C6B9;}
	.st9{fill:#55C0EB;}
	.st10{fill:#F5F6FB;}
	.st11{fill:#4ABAA5;}
	.st12{fill:#ADB3BA;}
	.st13{fill:#E8EAE9;}
	.st14{fill:#2E4556;}
	.st15{fill:#8AD7F8;}
	.st16{fill:#FFFFFF;}
	.st17{fill:#E54838;}
	.st18{fill:#3EAF99;}
	.st19{fill:#EFA943;}
	.st20{fill:#4CAEE5;}
	.st21{fill:#293F4F;}
	.st22{fill:#2D4456;}
	.st23{fill:#2E4454;}
	.st24{fill:#2A3F4F;}
	.st25{fill:#2D4151;}
	.st26{fill:#E89E3D;}
	.st27{fill:#2B4151;}
	.st28{fill:#2A4051;}
	.st29{fill:#2C4151;}
	.st30{fill:#EBEAE8;}
	.st31{fill:#3AA590;}
	.st32{fill:#E84534;}
	.st33{fill:none;}
</style>
<g>
	<g>
		<g>
			<path class="st1" d="M37.2,29.4c-0.4,0.7-1.2,1.3-2.2,1.3c-1,0-1.8-0.5-2.2-1.3H37.2z"/>
		</g>
		<g>
			<g>
				<path class="st4" d="M18.5,45L18,36.6h0.7l1.1,1c0.7,0.7,1.6,5.5,1.9,7.4H18.5z"/>
				<g>
					<g>
						<g>
							<g>
								<path class="st4" d="M16,45c0-2.7,0-6.2-0.3-7.3c-0.5-1.9-0.5-2.2-0.5-2.2l0.6,0.1c0,0,2.6,0.6,3.1,1.2
									c0.5,0.6,1.6,2.9,1.5,4.9c0,0.9-0.2,2-0.4,3.3H16z"/>
							</g>
							<g>
								<path class="st0" d="M7.7,28l0.4,3.6l5.8,4.5v-4.7c0,0,1.6-1.2,1.5-4.7c0,0,0.2-1.9-0.2-3.3c-0.4-1.3-0.8-2.5-2-3
									s-4.5,0.4-5.2,1C7.4,22.1,6.7,26.6,7.7,28z"/>
							</g>
							<g>
								<path class="st1" d="M7.9,26.6l-0.3,0.2L6.6,26c0,0-0.4-2,0.2-3.6c0.7-1.6,2.5-3,3.6-3.2s1.9-0.3,2.7,0.3s1.6,1.4,1.9,2.3
									c0.3,0.9,0.7,2.8,0.6,3.6s-0.2,1.4-0.2,1.4h-0.2c0,0,0.2-1.3,0-2s-0.3-0.8-0.4-1.5c-0.1-0.7-0.3-1.5-1-1.8
									c-0.7-0.3-2.6-0.4-3.6,0c0,0-0.1,0-0.1,0c-0.9,0.3-1.5,1.2-1.7,2.1c0,0.1-0.1,0.3-0.1,0.4C8,24.5,7.7,25.8,7.9,26.6z"/>
							</g>
							<g>
								
									<ellipse transform="matrix(-0.9551 0.2964 -0.2964 -0.9551 21.9943 51.309)" class="st0" cx="7.1" cy="27.3" rx="0.7" ry="1.6"/>
							</g>
							<path class="st2" d="M13.9,31.4v3.5c-3.9-1.5-5.5-5.4-5.5-5.4C10.6,32.4,13.9,31.4,13.9,31.4z"/>
							<g>
								<polygon class="st3" points="14.4,45 13.9,43.7 9.8,34.3 12.8,33.9 13.3,33.9 13.9,33.5 16.1,37.6 16.2,45 								"/>
							</g>
							<g>
								<path class="st7" d="M14.3,45c-0.8-1.7-1.7-3.9-1.8-4.9c-0.1-1.8,0.7-4.3,0.7-4.3v-0.1l0.1-0.6l1.2,0.7c0,0,1.4,1.8,1.5,1.8
									c0,0,0.8,5.3,0.8,5.3L16.1,45H14.3z"/>
							</g>
							<g>
								<path class="st7" d="M11.9,34.2c0,0,0.8,0.6,1.3,1.5c0,0,0.7-0.4,1.3,0c0,0-0.3-1.4-0.5-1.7c-0.2-0.3-0.8,0-0.8,0h-0.5
									L11.9,34.2z"/>
							</g>
							<g>
								<path class="st5" d="M8.1,31.3c0,0,0.8,0.7,1.8,1.1c1.1,0.4,2.8,1.6,2.8,1.6s-1.8,1.7-1.8,2.8s-0.1,1.1-0.1,1.1l-3.7-5
									C7.6,32.4,7.9,31,8.1,31.3z"/>
							</g>
							<g>
								<path class="st4" d="M1.7,45c-0.5-1.5-1.1-3.1-1.4-4.5C-0.6,36.9,0.7,36,0.7,36c1.1-1.4,2.8-1.1,3.6-1.3s1.9-1,1.9-1
									l2.9,0.3c0,0,3.7,4.5,4.6,6.8c0.4,0.8,0.8,2.4,1.3,4H1.7z"/>
							</g>
							<g>
								<path class="st23" d="M19.9,45c0.2-1.3,0.4-2.4,0.4-3.3c0.1-2-1-4.3-1.5-4.9c0-0.1-0.1-0.1-0.2-0.2c0,0,0.4,0.1,1.1,0.7
									c0.8,0.7,1,2.3,1,2.3s0.4,0.7,0.8,1.5c0.4,0.8,0.2,1.4,0.2,1.4s0,0.5,0.3,0.9c0.3,0.4,0.6,0.7,0.9,1.1
									c0.1,0.1,0.2,0.2,0.3,0.4H19.9z"/>
							</g>
							<g>
								<path class="st1" d="M14.4,45c-0.7-1.9-1.5-3.7-2-4.6C11.2,38,9,36.2,9,36.2l0.5-0.7l-1.2-0.1c0,0-1.9-1.6-2.1-1.7
									c0,0,0.2-0.4,0.5-0.6c0.3-0.2,0.6-0.7,0.8-0.8c0,0,2.7,1.8,3.9,3.7c1.2,1.8,2.7,4.4,3.5,7.2c0.1,0.5,0.3,1.1,0.4,1.7H14.4z"
									/>
							</g>
							<g>
								<path class="st5" d="M13.9,32.5c0,0-0.2,1-0.7,1.4c0,0,0.8,0,1,0.9c0.3,0.9,0.3,0.9,0.3,0.9s0-0.9-0.2-1.4
									C14.2,33.8,14.3,32.7,13.9,32.5z"/>
							</g>
							<g>
								<path class="st1" d="M15.5,45c0-0.1,0-0.1,0-0.2c0-1,0-5.3-0.2-6.5c-0.2-1.1-1-4.2-1-4.2s0.5,0.9,1.6,1.5l-0.3,0.2
									c0,0,1,0.3,1.3,1.3c0.3,1,0.4,4.8,0.4,5.9c0,0.3-0.1,1.1-0.1,2H15.5z"/>
							</g>
						</g>
					</g>
				</g>
			</g>
			<g>
				<g>
					<path class="st9" d="M22,45l0.7-5.3c0.3-2.3,1.8-4.3,4-5.2l4-1.6l4.3,2.4l4.3-2.4l4,1.6c2.2,0.9,3.7,2.9,4,5.2L48,45H22z"/>
				</g>
				<g>
					<g>
						<path class="st1" d="M33.1,35.2c0,0,1.3,1.5,1.5,2c0.3-0.2,0.6-0.2,1,0c0.2-0.5,1.5-2,1.5-2H33.1z"/>
					</g>
					<g>
						<path class="st1" d="M33.5,45c0.1-2.3,0.2-4.3,0.2-4.7c0.1-1.1,0.8-3,0.8-3l-0.1-0.7l0.8-0.1l0.3,0.7c0,0,0.7,2,0.8,2.6
							c0,0.2,0.2,2.6,0.3,5.2H33.5z"/>
					</g>
				</g>
				<g>
					<g>
						<path class="st13" d="M31.5,31.1l3.5,4.1l-2.9,1.6c0,0-1.4-2.4-1.5-3s0-0.9,0.2-1.2S31.4,31.1,31.5,31.1z"/>
					</g>
				</g>
				<g>
					<g>
						<path class="st13" d="M38.3,31L35,35.2l2.9,1.6c0,0,1.4-2.4,1.5-3c0.1-0.6,0-0.9-0.2-1.2S38.4,31.1,38.3,31z"/>
					</g>
				</g>
			</g>
			<g>
				<path class="st0" d="M39.1,23.5H31c-0.3-1.9-1.1-3.6-2.5-5c-1.9-1.9-2.9-4.7-2.5-7.7c0.6-4,3.9-7.2,7.9-7.7
					c5.5-0.6,10.2,3.7,10.2,9c0,2.3-0.9,4.5-2.3,6.1C40.4,19.7,39.5,21.5,39.1,23.5z"/>
				<g>
					<g>
						<path class="st16" d="M33.4,24.1v-7.2l-1.8-3.7c0-0.1,0-0.2,0-0.3c0.1-0.1,0.1-0.1,0.2-0.1h6.4c0.1,0,0.2,0.1,0.2,0.1
							c0.1,0.1,0.1,0.2,0,0.3l-1.8,3.7v7.2c0,0.2-0.1,0.3-0.3,0.3h-2.6C33.6,24.4,33.4,24.2,33.4,24.1z M36,16.8c0,0,0-0.1,0-0.1
							l1.7-3.4h-5.4l1.7,3.4c0,0,0,0.1,0,0.1v7h2V16.8z"/>
					</g>
				</g>
				<path class="st1" d="M30.7,25.2h8.7c0.4,0,0.8-0.3,0.8-0.8v-0.2c0-0.4-0.3-0.8-0.8-0.8h-8.7c-0.4,0-0.8,0.3-0.8,0.8v0.2
					C29.9,24.9,30.2,25.2,30.7,25.2z"/>
				<path class="st4" d="M38.3,29.4h-6.5c-0.6,0-1-0.5-1-1v-3.2h8.5v3.2C39.3,28.9,38.8,29.4,38.3,29.4z"/>
				<path class="st1" d="M30.7,28.2h8.7c0.4,0,0.8-0.3,0.8-0.8v-0.2c0-0.4-0.3-0.8-0.8-0.8h-8.7c-0.4,0-0.8,0.3-0.8,0.8v0.2
					C29.9,27.8,30.2,28.2,30.7,28.2z"/>
			</g>
		</g>
	</g>
</g>
</svg>
