<?xml version="1.0" encoding="utf-8"?>
<!-- Generator: Adobe Illustrator 18.0.0, SVG Export Plug-In . SVG Version: 6.00 Build 0)  -->
<!DOCTYPE svg PUBLIC "-//W3C//DTD SVG 1.1//EN" "http://www.w3.org/Graphics/SVG/1.1/DTD/svg11.dtd">
<svg version="1.1" id="Layer_1" xmlns="http://www.w3.org/2000/svg" xmlns:xlink="http://www.w3.org/1999/xlink" x="0px" y="0px"
	 viewBox="0 0 48 48" enable-background="new 0 0 48 48" xml:space="preserve">
<g>
	<g>
		<g>
			<g>
				<g>
					<path fill="#FFD15C" d="M12.8,21.7l-1-4c-0.1-0.3-0.1-0.7,0-1c0.2-0.7,0.7-2,1.5-2.5c1.2-0.7,3.3-1.4,4.9,0.9l0.7,1.4
						L12.8,21.7z"/>
				</g>
			</g>
			<g>
				<g>
					<path fill="#FFD15C" d="M19.2,44.2c0,0.8,0,2.3-0.1,3.8h17.4l-0.2-7.2c0,0,2.3-8,2-12c0,0,0.1-1.5,0.3-2.3c0,0,0-1.4-0.9-2.1
						c0,0-0.2-3.1-1.1-4.1c-1-1-4.5-1.9-4.5-1.9c0-0.9-3.4-3.6-6.7-2.9c0,0-2.1-2.2-4.9-1.6c-0.6,0.1-1.2,0.4-1.7,0.8
						c-0.8,0.6-2.2,1.8-3.1,2.3c-0.6,0.3-1.5,0.7-2.3,1.1c-0.9,0.4-1.6,1.2-1.8,2.2l-2,7.8c-0.3,1.2-0.1,2.4,0.7,3.4
						c1.9,2.5,5.6,7.5,7.8,9C18.1,40.5,19.2,41.9,19.2,44.2z"/>
				</g>
			</g>
			<g>
				<g>
					<path fill="#E8EAE9" d="M25.4,27.8c0,0,1.3,0.3,2.4,0.1c1.1-0.2,1.2,0.5,1.2,0.5s-0.9,0.7-1.9,0.6
						C26.3,28.9,25.6,28.5,25.4,27.8z"/>
				</g>
			</g>
			<g>
				<g>
					<path fill="#E8EAE9" d="M17.4,26.5c0,0-0.4-0.2-0.3-0.6v-0.1c0.1-0.2,0.4-0.3,0.6-0.4c0.5-0.2,1.3-0.4,1.7-0.3
						c0,0,0,1.1,0.6,1.6C20,26.6,18.4,26.8,17.4,26.5z"/>
				</g>
			</g>
			<g>
				<g>
					<path fill="#F7B64C" d="M19.2,44.2c0,0.8,0,2.3-0.1,3.8H21c-0.2-0.9-0.3-1.7-0.3-2.6c0,0,0,0,0,0c-0.2-0.9-0.3-1.9-0.1-2.9
						c0.1-0.4,0.4-0.5,0.6-0.4c0.7,0,1.4,0,2.1,0c-2.7,0-5.4-1.6-6.6-4c0.1,0,0.6-0.3,1.1-0.8c-0.4,0.3-0.8,0.5-1.3,0.7
						c0.6-0.3,1-0.8,1.1-1.5c-0.2,0.6-0.7,1.1-1.4,1.1c-1-1.3-2.5-2.3-3.1-3.7c0.4-0.4,0.7-0.9,1-1.5c-0.2,0.3-1.1,1.4-1.1,1.4
						c-1.1-0.8-2.2-3-2.1-4.2c0-0.7,0.3-1.8,0.5-2.7c0.2-1.4,0.6-2.8,1.1-4.2c0.4-1.2,0.9-2.2,1.8-3.1c0.7-0.6,1.7-1,2.2-1.8
						c0.2-0.3,0.5-0.6,0.8-0.8c0.3-0.5,0.6-1.1,0.4-1.4c-0.4,0.3-1.8,1.2-2.1,1.4c-0.6,0.3-1.5,0.7-2.3,1.1
						c-0.9,0.4-1.6,1.2-1.8,2.2l-2,7.8c-0.3,1.2-0.1,2.4,0.7,3.4c1.9,2.5,5.6,7.5,7.8,9C18.1,40.5,19.2,41.9,19.2,44.2z"/>
				</g>
			</g>
			<g>
				<g>
					<path fill="#E8EAE9" d="M17,16.2c0,0-0.7,0.4-0.6,1c0.1,0.6,0.5,1.6,1.1,1.8c0.4,0.1,1.2-0.4,1.8-0.8c0.7-0.5,1.1-1.3,0.9-2.1
						c0-0.1,0-0.1-0.1-0.2c-0.1-0.4-0.3-0.8-0.5-1c-0.1-0.3-0.5-0.4-0.7-0.2c0,0,0,0,0,0C18.5,14.9,17,16.2,17,16.2z"/>
				</g>
			</g>
			<g>
				<path fill="#F7B64C" d="M14,28.3c0.6-0.1,1.1-0.3,1.7-0.4c0.6-0.1,1.2-0.4,1.4-0.9c0.1-0.2,0.1-0.4,0.1-0.7
					c0-1.1,0.1-2.1,0.1-3.2c-0.4,0.4-1.7,0.6-2.2,0.4c0.5,0.2,1.6,0.2,2-0.1c0.1,0.7-0.2,1.3-0.1,2.1c0,0.4,0,0.7-0.1,1.1
					c0,0.1-0.1,0.1-0.1,0.2c-0.1,0.2-0.3,0.5-0.5,0.5C15.5,27.6,14.8,28,14,28.3"/>
			</g>
			<g>
				<path fill="#F7B64C" d="M24.2,24.7c0,0.4,0,0.7,0,1c0,0.3,0.1,0.6,0.2,0.8c0.1,0.2,0.2,0.4,0.3,0.6c0.1,0.3,0.2,0.4,0.2,0.5
					c0-0.1-0.1-0.2-0.3-0.5c-0.1-0.2-0.2-0.4-0.3-0.6c-0.1-0.2-0.2-0.5-0.2-0.9c0-0.3,0-0.7,0-1c0-0.4,0-0.7,0-1.1
					c0-0.8,0-1.6,0-2.5c0-0.8,0-1.7,0-2.5c0-0.4,0-0.8,0-1.1c0-0.4,0.2-0.7,0.3-1c0.3-0.5,0.7-0.8,1-1c0,0,0,0,0,0c0,0,0.1,0,0.1,0
					c-0.3,0.2-0.7,0.5-1,1c-0.1,0.3-0.2,0.6-0.3,1c0,0.4,0,0.7,0,1.1c0,0.8,0,1.6,0,2.5c0,0.9,0,1.7-0.1,2.5
					C24.2,24,24.2,24.4,24.2,24.7z"/>
			</g>
			<g>
				<path fill="#F7B64C" d="M32.1,18.4c-0.1,0-0.3,0-0.4,0c-0.1,0-0.1,0-0.2,0c-0.1,0-0.1,0-0.2,0.1c-0.1,0-0.2,0.1-0.4,0.2
					c-0.5,0.2-0.9,0.6-1.3,1l-0.1,0.2l-0.1,0.3c-0.1,0.2-0.1,0.4-0.2,0.5c-0.1,0.4-0.2,0.7-0.3,1.1c-0.2,0.7-0.4,1.5-0.5,2.2
					c-0.1,0.4-0.1,0.7-0.2,1.1c-0.1,0.4-0.1,0.8-0.1,1.1c0,0.1,0,0.2,0,0.3c0,0.1,0,0.2,0.1,0.2c0.1,0.2,0.2,0.3,0.3,0.5
					c0.2,0.3,0.4,0.6,0.7,0.9L29,28.4c-0.3-0.3-0.5-0.6-0.7-0.9c-0.1-0.2-0.2-0.3-0.3-0.5c0-0.1-0.1-0.2-0.1-0.3l0,0c0,0,0,0,0,0v0
					l0-0.1c0-0.1,0-0.1,0-0.2c0-0.2,0-0.4,0-0.6c0-0.2,0-0.4,0.1-0.6c0.1-0.4,0.1-0.8,0.2-1.1c0.2-0.8,0.3-1.5,0.5-2.2
					c0.1-0.4,0.2-0.7,0.3-1.1c0.1-0.2,0.1-0.4,0.2-0.5l0.1-0.3l0.2-0.3h0v0c0.2-0.2,0.4-0.4,0.6-0.5c0.2-0.2,0.5-0.3,0.7-0.4
					c0.1-0.1,0.3-0.1,0.4-0.1c0.1,0,0.1,0,0.2-0.1c0.1,0,0.1,0,0.2,0C31.8,18.4,31.9,18.4,32.1,18.4L32.1,18.4
					C32,18.4,32.1,18.4,32.1,18.4z"/>
			</g>
			<g>
				<path fill="#F7B64C" d="M33.4,26.5c0,0,0.2-0.6,0.5-1.3c0.1-0.3,0.2-0.6,0.3-0.9c0.1-0.2,0.1-0.4,0.1-0.4s0,0.2,0,0.4
					c0,0.3-0.1,0.6-0.2,0.9c-0.1,0.3-0.2,0.7-0.3,0.9c-0.1,0.2-0.2,0.4-0.2,0.4L33.4,26.5z"/>
			</g>
			<g>
				<path fill="#F7B64C" d="M34.1,24.4c0,0,0.1-0.1,0.3-0.2c0.2-0.1,0.5-0.3,0.7-0.5c0.5-0.4,1-0.8,1-0.8s-0.1,0.1-0.3,0.3
					c-0.2,0.2-0.4,0.4-0.7,0.6c-0.3,0.2-0.5,0.4-0.7,0.5C34.3,24.4,34.2,24.5,34.1,24.4L34.1,24.4z"/>
			</g>
			<g>
				<g>
					<path fill="#F7B64C" d="M21.5,18.2c-0.9,2.6-2.3,4.4-4.1,5.3l-0.1-0.2c1.7-0.9,3.1-2.6,4-5.1c0.4-1.2,0.3-2.2-0.3-2.9
						c-0.4-0.5-1.2-0.7-1.7-0.8c0,0,0.1-0.1,0.1-0.1c0.6,0.1,1.4,0.3,1.7,0.7C21.8,15.8,21.9,16.9,21.5,18.2z"/>
				</g>
			</g>
			<g>
				<g>
					<path fill="#E8EAE9" d="M29.7,28.5c0,0,1,0.5,1.9,0.2c0.9-0.3,1,0.6,1,0.6s-0.8,0.7-1.7,0.3C30,29.3,29.7,28.5,29.7,28.5z"/>
				</g>
			</g>
			<g>
				<g>
					<path fill="#E8EAE9" d="M21.1,27.1c0,0,0.7,1,1.7,1.2c1.1,0.1,1.6-0.1,2-0.7c0,0-0.3-0.7-1.2-0.6
						C22.7,27.2,21.9,27.3,21.1,27.1z"/>
				</g>
			</g>
			<g>
				<g>
					<path fill="#F7B64C" d="M17.6,39.7c0,0,0.2,0,0.4-0.1c0.2-0.1,0.6-0.2,0.9-0.4c0.3-0.2,0.6-0.4,0.8-0.5
						c0.2-0.1,0.4-0.3,0.4-0.3s-0.1,0.1-0.3,0.3c-0.2,0.2-0.5,0.4-0.8,0.6c-0.3,0.2-0.6,0.3-0.9,0.4c-0.3,0.1-0.4,0.1-0.4,0.1
						L17.6,39.7z"/>
				</g>
			</g>
			<g>
				<g>
					<path fill="#F7B64C" d="M18.8,41.1c0,0,0.1,0,0.1-0.1c0.1-0.1,0.2-0.1,0.4-0.3c0.3-0.2,0.7-0.5,1-0.9c0.3-0.3,0.7-0.7,0.9-1
						c0.1-0.1,0.2-0.3,0.3-0.4c0.1-0.1,0.1-0.1,0.1-0.1s0,0.1-0.1,0.2c0,0.1-0.1,0.2-0.2,0.4c-0.2,0.3-0.5,0.7-0.8,1.1
						c-0.4,0.4-0.8,0.6-1.1,0.8C19,41,18.8,41.1,18.8,41.1z"/>
				</g>
			</g>
			<g>
				<g>
					<path fill="#F7B64C" d="M20.2,42c0,0,0-0.1,0-0.2c0-0.1,0.1-0.2,0.1-0.4c0.1-0.2,0.1-0.4,0.3-0.5c0.1-0.2,0.2-0.4,0.4-0.6
						c0.3-0.4,0.6-0.7,0.8-1c0.2-0.3,0.4-0.4,0.4-0.4s-0.1,0.2-0.3,0.5c-0.2,0.3-0.5,0.6-0.8,1c-0.3,0.4-0.5,0.7-0.7,1.1
						c-0.1,0.2-0.1,0.3-0.2,0.4C20.2,41.9,20.2,42,20.2,42z"/>
				</g>
				<g>
					<path fill="#F7B64C" d="M19.6,41.2c0,0,0.1-0.1,0.3-0.2c0.2-0.1,0.4-0.2,0.6-0.4c0.2-0.2,0.4-0.3,0.6-0.4
						c0.1-0.1,0.3-0.2,0.3-0.2s-0.1,0.1-0.2,0.3c-0.1,0.2-0.3,0.4-0.5,0.5c-0.2,0.2-0.5,0.3-0.6,0.3C19.7,41.2,19.6,41.2,19.6,41.2z
						"/>
				</g>
			</g>
			<g>
				<g>
					<path fill="#F7B64C" d="M24.3,27.9c0,0,0.2,0.3,0.5,0.8c0.3,0.5,0.6,1.2,1,1.9c0.2,0.3,0.3,0.7,0.5,1c0.1,0.3,0.3,0.6,0.4,0.9
						c0.2,0.5,0.3,0.9,0.3,0.9l0,0c0,0-0.2-0.3-0.4-0.9c-0.1-0.3-0.3-0.6-0.4-0.9c-0.1-0.3-0.3-0.7-0.5-1c-0.3-0.7-0.7-1.4-1-1.9
						c-0.3-0.5-0.5-0.8-0.5-0.8L24.3,27.9z"/>
				</g>
			</g>
			<g>
				<g>
					<path fill="#F7B64C" d="M16.7,27.3c0,0-0.1,0.3-0.2,0.6c-0.1,0.4-0.3,0.9-0.6,1.3c-0.2,0.5-0.5,0.9-0.7,1.3
						c-0.2,0.3-0.4,0.5-0.4,0.5s0.2-0.2,0.4-0.5c0.2-0.3,0.5-0.8,0.7-1.3c0.2-0.5,0.4-1,0.5-1.4c0.1-0.4,0.2-0.6,0.2-0.6L16.7,27.3z
						"/>
				</g>
			</g>
			<g>
				<path fill="#F7B64C" d="M19.2,22c0,0,0.1,0.3,0.2,0.7c0.1,0.4,0.2,1,0.2,1.6c0,0.2,0,0.3,0,0.5c0,0.1,0,0.3,0,0.4
					c0,0.3,0.1,0.5,0.2,0.7c0.1,0.2,0.1,0.4,0.2,0.5c0.1,0.1,0.1,0.2,0.1,0.2s-0.2-0.2-0.5-0.6c-0.1-0.2-0.2-0.5-0.3-0.8
					c0-0.1,0-0.3,0-0.5c0-0.1,0-0.3,0-0.4c0-0.6,0-1.2-0.1-1.6C19.2,22.3,19.2,22,19.2,22z"/>
			</g>
			<g>
				<path fill="#F7B64C" d="M21.5,27.8c0,0-0.2,0-0.5,0.1c-0.3,0.1-0.6,0.2-1,0.3c-0.7,0.3-1.4,0.7-1.4,0.7s0.1-0.1,0.4-0.3
					c0.2-0.2,0.6-0.4,0.9-0.5c0.4-0.2,0.7-0.3,1-0.3c0.3-0.1,0.5-0.1,0.5-0.1L21.5,27.8z"/>
			</g>
			<g>
				<g>
					<path fill="#F7B64C" d="M17.1,26c0,0.1,0.1,0.1,0.1,0.2c0,0.1,0,0.1,0.1,0.2c0.1,0.1,0.2,0.1,0.3,0.1c0.3,0,0.6,0.1,0.8,0.1
						l0.4,0c0.1,0,0.3,0,0.4,0c0.3,0,0.6,0,0.9,0c0.3,0.1,0.6,0.3,0.8,0.4c0.2,0.2,0.5,0.4,0.7,0.6c0.2,0.2,0.4,0.4,0.7,0.5
						c0.2,0.1,0.5,0.2,0.8,0.2c0.3,0,0.5,0,0.8-0.2c0.1-0.1,0.2-0.1,0.3-0.2c0.1-0.1,0.2-0.2,0.4-0.3c0.1-0.1,0.4-0.1,0.5,0
						c0.2,0.1,0.3,0.3,0.3,0.4c0.2,0.2,0.3,0.4,0.6,0.6c0.2,0.2,0.5,0.3,0.7,0.3C27,29,27.3,29,27.6,29c0.5-0.1,1.1-0.3,1.4-0.8
						l0-0.1l0.1,0c0.4,0.1,0.6,0.3,0.8,0.5c0.2,0.2,0.4,0.5,0.6,0.7c0.2,0.2,0.5,0.4,0.7,0.4c0.3,0,0.6,0,0.8-0.1
						c0.3-0.1,0.5-0.3,0.7-0.5c0.2-0.2,0.3-0.5,0.4-0.8c0.2-0.6,0.2-1.2,0.1-1.8l0-0.1l0.1,0c0.8,0.2,1.7,0.2,2.6,0.1
						c0.9-0.1,1.7-0.3,2.5-0.6c-0.8,0.3-1.6,0.5-2.5,0.7c-0.9,0.1-1.7,0.1-2.6,0l0.1-0.1c0.1,0.6,0.1,1.3-0.1,1.9
						c-0.2,0.6-0.6,1.2-1.2,1.4c-0.3,0.1-0.6,0.2-1,0.1c-0.3,0-0.7-0.2-0.9-0.5c-0.2-0.2-0.4-0.5-0.6-0.7c-0.2-0.2-0.4-0.4-0.7-0.4
						l0.1,0c-0.4,0.5-1,0.8-1.6,0.8c-0.3,0-0.6,0-0.9-0.1c-0.3-0.1-0.6-0.2-0.8-0.4c-0.2-0.2-0.5-0.4-0.6-0.7
						c-0.1-0.1-0.2-0.2-0.2-0.3c-0.1,0-0.2,0-0.3,0c-0.1,0.1-0.2,0.1-0.3,0.2c-0.1,0.1-0.3,0.2-0.4,0.2c-0.3,0.1-0.6,0.2-0.9,0.2
						c-0.3,0-0.6-0.1-0.9-0.2c-0.3-0.1-0.5-0.3-0.7-0.5c-0.2-0.2-0.4-0.4-0.7-0.6c-0.2-0.2-0.5-0.3-0.7-0.4c-0.3-0.1-0.5-0.1-0.8,0
						c-0.1,0-0.3,0-0.4,0l-0.4,0c-0.3,0-0.6-0.1-0.9-0.1c-0.1,0-0.3,0-0.4-0.2C17,26.4,17,26.3,17,26.2c0-0.1,0-0.1-0.1-0.2L17.1,26
						z"/>
				</g>
			</g>
			<g>
				<g>
					<path fill="#F7B64C" d="M21.2,41.8c0,0,2.3,0.4,3.9,0.2c-0.6,0.3-2.9,0.2-4,0L21.2,41.8z"/>
				</g>
			</g>
		</g>
		<g>
			<path fill="#F7B64C" d="M27.4,41.1L27.4,41.1C27.4,41.1,27.4,41.1,27.4,41.1C27.5,41.1,27.4,41.1,27.4,41.1z M35.3,41.3
				c-0.1,0-0.2,0-0.4,0.1c-0.5,0-0.9,0-1.4,0.1c-0.7,0.1-1.4,0.1-2.1,0.1c-0.7-0.1-1.4,0-2.1-0.1c-0.6-0.1-1.2-0.2-1.8-0.3h0
				c0,0-0.1,0-0.1,0h0c0.1,0,0.1,0.1,0.3,0.1c0.2,0.1,0.5,0.2,0.9,0.3c0.4,0.1,0.8,0.2,1.3,0.2s1,0.1,1.5,0.1c0.5,0,1.1,0,1.5,0
				c0.5,0,0.9-0.1,1.3-0.2c0.3-0.1,0.6-0.1,0.8-0.2c0.2,0,0.4-0.1,0.5-0.1C35.7,41.3,35.5,41.3,35.3,41.3z"/>
		</g>
	</g>
	<g>
		<polygon fill="#415A6B" points="29.9,3.9 24,9.8 18.2,3.9 21.1,3.9 21.1,0 27,0 27,3.9 		"/>
	</g>
	<g>
		<polygon fill="#F3705A" points="13.8,5.1 13.8,13.4 5.5,13.4 7.6,11.4 4.8,8.6 9,4.4 11.7,7.2 		"/>
	</g>
	<g>
		<polygon fill="#8AD7F8" points="4.2,17.8 10.1,23.6 4.2,29.5 4.2,26.6 0.3,26.6 0.3,20.7 4.2,20.7 		"/>
	</g>
	<g>
		<polygon fill="#8AD7F8" points="43.8,29.6 37.9,23.7 43.8,17.9 43.8,20.8 47.7,20.8 47.7,26.7 43.8,26.7 		"/>
	</g>
	<g>
		<polygon fill="#F3705A" points="42.1,13.9 33.9,13.9 33.9,5.6 35.9,7.6 38.7,4.9 42.8,9 40.1,11.8 		"/>
	</g>
</g>
</svg>
