<?xml version="1.0" encoding="utf-8"?>
<!-- Generator: Adobe Illustrator 18.0.0, SVG Export Plug-In . SVG Version: 6.00 Build 0)  -->
<!DOCTYPE svg PUBLIC "-//W3C//DTD SVG 1.1//EN" "http://www.w3.org/Graphics/SVG/1.1/DTD/svg11.dtd">
<svg version="1.1" id="Layer_1" xmlns="http://www.w3.org/2000/svg" xmlns:xlink="http://www.w3.org/1999/xlink" x="0px" y="0px"
	 viewBox="0 0 48 48" enable-background="new 0 0 48 48" xml:space="preserve">
<g>
	<g>
		<g>
			<path fill="#F3F3F3" d="M39.9,0H15.5L5.1,10.5V45c0,1.7,1.3,3,3,3h31.9c1.7,0,3-1.3,3-3V3C42.9,1.3,41.6,0,39.9,0z"/>
			<g>
				<rect x="9.8" y="41.8" fill="#CED6E0" width="17.2" height="2.2"/>
			</g>
			<rect x="9.8" y="35.4" fill="#CED6E0" width="28.3" height="2.2"/>
			<rect x="9.8" y="29" fill="#F3705A" width="28.3" height="2.2"/>
			<polygon fill="#CED6E0" points="15.5,0 5.1,10.5 15.5,10.5 			"/>
			<g>
				<g>
					
						<ellipse transform="matrix(0.9947 0.1029 -0.1029 0.9947 1.3977 -2.8786)" fill="#FFD15C" cx="28.6" cy="12.1" rx="1" ry="1.6"/>
				</g>
				<g>
					
						<ellipse transform="matrix(-0.9947 0.1029 -0.1029 -0.9947 40.0254 22.1566)" fill="#FFD15C" cx="19.4" cy="12.1" rx="1" ry="1.6"/>
				</g>
				<g>
					<g>
						<g>
							<g>
								<ellipse fill="#344A5E" cx="21.9" cy="9.6" rx="2.9" ry="5.1"/>
							</g>
							<g>
								<ellipse fill="#344A5E" cx="24.3" cy="9.7" rx="4.7" ry="5.9"/>
							</g>
						</g>
						<g>
							<g>
								<g>
									<path fill="#344A5E" d="M34.9,24.8c-0.3-1.9-0.7-3.9-1.4-4.7c-1.7-1.8-7.1-1.9-9.5-1.9c-2.4,0-7.8,0-9.5,1.9
										c-0.7,0.8-1.1,2.8-1.4,4.7H34.9z"/>
								</g>
								<g>
									<g>
										<path fill="#F7B64C" d="M26.5,15.6l0,1.1c-0.7,1.7-1.5,2.6-2.4,3.6c-0.9-1-1.7-1.9-2.4-3.6l0-1.1c0.7-1.8,1.6-3,2.4-4
											C24.8,12.6,25.8,13.8,26.5,15.6z"/>
									</g>
								</g>
								<g>
									<polygon fill="#FFFFFF" points="26,24.8 26.1,19.7 21.9,19.7 22,24.8 									"/>
								</g>
								<g>
									<g>
										<path fill="#55C0EB" d="M22.8,24.8h2.4l-0.5-3l0.7-0.7c0,0-0.9-1.4-1.4-1.4c-0.5,0-1.4,1.4-1.4,1.4l0.7,0.7L22.8,24.8z"/>
									</g>
								</g>
								<g>
									<g>
										<polygon fill="#F3F3F3" points="26.5,16.4 24,19.7 25.9,21.6 27.3,17.9 										"/>
									</g>
									<g>
										<polygon fill="#F3F3F3" points="21.6,16.4 24,19.7 22.1,21.6 20.7,17.9 										"/>
									</g>
								</g>
							</g>
							<g>
								<path fill="#FFD15C" d="M20.2,8.2c-0.4,0.9-0.7,2-0.7,3.1c0,3.3,2,5.9,4.5,5.9c2.5,0,4.5-2.6,4.5-5.9c0-0.9-0.2-1.7-0.4-2.5
									c0,0,0,0,0,0C25.4,9.8,22.8,9.6,20.2,8.2z"/>
							</g>
						</g>
					</g>
					<g>
						<polygon fill="#415A6B" points="27.1,24.8 28.8,22.8 27,21.2 29.5,19.7 27,17.4 25,24.8 						"/>
						<polygon fill="#415A6B" points="19.2,22.8 20.9,24.8 23,24.8 21,17.4 18.5,19.7 21,21.2 						"/>
					</g>
				</g>
			</g>
		</g>
	</g>
</g>
</svg>
