<?xml version="1.0" encoding="utf-8"?>
<!-- Generator: Adobe Illustrator 18.0.0, SVG Export Plug-In . SVG Version: 6.00 Build 0)  -->
<!DOCTYPE svg PUBLIC "-//W3C//DTD SVG 1.1//EN" "http://www.w3.org/Graphics/SVG/1.1/DTD/svg11.dtd">
<svg version="1.1" id="Layer_1" xmlns="http://www.w3.org/2000/svg" xmlns:xlink="http://www.w3.org/1999/xlink" x="0px" y="0px"
	 viewBox="0 0 48 48" enable-background="new 0 0 48 48" xml:space="preserve">
<g>
	<g>
		<g>
			<g>
				<path fill="#F3F3F3" d="M41.1,48H6.9c-1.7,0-3-1.3-3-3V3c0-1.7,1.3-3,3-3h34.3c1.7,0,3,1.3,3,3v42C44.1,46.7,42.8,48,41.1,48z"
					/>
			</g>
			<g>
				<g>
					<polygon fill="#415A6B" points="37.3,42 37.3,40.6 36,40.6 36,42 32.6,42 32.6,40.6 31.3,40.6 31.3,42 27.9,42 27.9,40.6 
						26.7,40.6 26.7,42 23.3,42 23.3,40.6 22,40.6 22,42 18.6,42 18.6,40.6 17.3,40.6 17.3,42 13.9,42 13.9,40.6 12.7,40.6 12.7,42 
						9.8,42 9.8,39.2 11.3,39.2 11.3,37.9 9.8,37.9 9.8,34.5 11.3,34.5 11.3,33.2 9.8,33.2 9.8,29.9 11.3,29.9 11.3,28.6 9.8,28.6 
						9.8,25.2 11.3,25.2 11.3,23.9 9.8,23.9 9.8,20.5 11.3,20.5 11.3,19.2 9.8,19.2 9.8,15.8 11.3,15.8 11.3,14.6 9.8,14.6 
						9.8,11.8 7.9,11.8 7.9,43.9 40.1,43.9 40.1,42 					"/>
					<g>
						<g>
							<g>
								<g>
									<g>
										<path fill="#4EC0AA" d="M35.8,20.8l-0.9,3.2l-0.7-0.7l-7.1,7.1c-0.3,0.3-0.7,0.3-0.9,0l-2.6-2.6l-9.6,9.6l-0.9-1L23,26.4
											c0.3-0.3,0.7-0.3,0.9,0l2.6,2.6l6.7-6.6l-0.7-0.7L35.8,20.8z"/>
									</g>
								</g>
							</g>
						</g>
					</g>
					<g>
						<g>
							<g>
								<g>
									<path fill="#F3705A" d="M32.9,37.6v-1h-1.9c-0.2,0-0.3-0.1-0.5-0.2l-2.8-2.8l-6.7,4c-0.3,0.2-0.8,0.1-0.9-0.3l-6-11.8
										l1.2-0.6L20.9,36l6.5-3.9c0.3-0.2,0.6-0.1,0.8,0.1l2.9,3h1.7v-1l2.9,1.7L32.9,37.6z"/>
								</g>
							</g>
						</g>
					</g>
				</g>
				<g>
					<rect x="14.7" y="9.7" fill="#FFD15C" width="3.4" height="8.5"/>
				</g>
				<g>
					<rect x="20.9" y="5.4" fill="#8AD7F8" width="3.4" height="12.9"/>
				</g>
				<g>
					<rect x="27.2" y="13.2" fill="#415A6B" width="3.4" height="5"/>
				</g>
				<g>
					<rect x="33.4" y="5.4" fill="#F3705A" width="3.4" height="12.9"/>
				</g>
			</g>
		</g>
	</g>
</g>
</svg>
