<?xml version="1.0" encoding="utf-8"?>
<!-- Generator: Adobe Illustrator 18.0.0, SVG Export Plug-In . SVG Version: 6.00 Build 0)  -->
<!DOCTYPE svg PUBLIC "-//W3C//DTD SVG 1.1//EN" "http://www.w3.org/Graphics/SVG/1.1/DTD/svg11.dtd">
<svg version="1.1" id="Layer_1" xmlns="http://www.w3.org/2000/svg" xmlns:xlink="http://www.w3.org/1999/xlink" x="0px" y="0px"
	 viewBox="0 0 48 48" enable-background="new 0 0 48 48" xml:space="preserve">
<g>
	<g>
		<path fill="#F3F3F3" d="M45,0H22L10.1,11.9V45c0,1.7,1.3,3,3,3H45c1.7,0,3-1.3,3-3V3C48,1.3,46.7,0,45,0z"/>
		<g>
			<path fill="#F3705A" d="M40.1,20.8c-0.1,0.5-0.6,0.9-1.2,0.8l-0.1,0c-0.5-0.1-0.8-0.6-0.7-1.2l0.6-3.1
				c-6.7,4.9-11.5,11.8-13.7,19.9L23.5,43c-0.1,0.5-0.7,0.9-1.2,0.7c-0.5-0.1-0.9-0.7-0.7-1.2l1.5-5.8c2.3-8.6,7.4-16,14.6-21.1
				l-3.2-0.7c-0.5-0.1-0.9-0.6-0.8-1.2c0.1-0.5,0.6-0.9,1.2-0.8l5.5,1.1c0.5,0.1,0.9,0.6,0.8,1.2L40.1,20.8z"/>
			<g>
				<g>
					<g>
						<g>
							<path fill="#F3705A" d="M39.3,37.6c0,0.6-0.4,1-1,1h-2.1v2.1c0,0.6-0.4,1-1,1c-0.5,0-1-0.4-1-1v-2.1h-2.1c-0.6,0-1-0.4-1-1
								c0-0.6,0.4-1,1-1h2.1v-2.1c0-0.5,0.5-1,1-1c0.6,0,1,0.5,1,1v2.1h2.1C38.9,36.6,39.3,37.1,39.3,37.6z"/>
						</g>
					</g>
				</g>
				<g>
					<path fill="#F3705A" d="M23,22c-2,0-3.6-1.6-3.6-3.6c0-2,1.6-3.6,3.6-3.6c2,0,3.6,1.6,3.6,3.6C26.6,20.4,25,22,23,22z M23,16.8
						c-0.9,0-1.6,0.7-1.6,1.6c0,0.9,0.7,1.6,1.6,1.6c0.9,0,1.6-0.7,1.6-1.6C24.6,17.5,23.9,16.8,23,16.8z"/>
				</g>
			</g>
		</g>
		<polygon fill="#CED6E0" points="22,0 10.1,11.9 22,11.9 		"/>
		<g>
			<g>
				<g>
					<g>
						<polygon fill="#8AD7F8" points="25.7,48 0,48 1.5,40.5 8.8,37.5 12.9,39.6 16.9,37.5 24.2,40.5 						"/>
					</g>
					<g>
						<path fill="#415A6B" d="M11.1,48h3.6l-0.7-5.1l0.9-0.9c0,0-1.2-1.9-1.9-1.9c-0.7,0-1.9,1.9-1.9,1.9l0.9,0.9L11.1,48z"/>
					</g>
					<g>
						<g>
							<path fill="#FFFFFF" d="M9.7,35.9c0.6,1.8,1.8,3.1,3.2,4.2c-1,0.7-1.8,1.5-2.3,2.3l-2.2-4.8C8.7,37.1,9.6,35.9,9.7,35.9z"/>
						</g>
					</g>
				</g>
				<g>
					<path fill="#FFFFFF" d="M16,35.9c-0.6,1.8-1.8,3.1-3.2,4.2c1,0.7,1.8,1.5,2.3,2.3l2.2-4.8C17.1,37.1,16.2,35.9,16,35.9z"/>
				</g>
			</g>
			<g>
				<g>
					<path fill="#F7B64C" d="M9.7,33.9v2c0.6,1.8,1.8,3.1,3.2,4.2c1.4-1.1,2.5-2.4,3.2-4.2v-2H9.7z"/>
				</g>
			</g>
			<g>
				<g>
					<g>
						<g>
							<path fill="#FFD15C" d="M18.8,31.4c-0.2,1-0.8,1.6-1.5,1.5c-0.6-0.2-0.9-1.1-0.7-2.1c0.2-0.9,0.9-1.5,1.4-1.4
								C18.6,29.6,19,30.5,18.8,31.4z"/>
						</g>
						<g>
							<path fill="#FFD15C" d="M7,31.4c0.2,1,0.8,1.6,1.5,1.5c0.6-0.2,0.9-1.1,0.7-2.1c-0.2-0.9-0.9-1.5-1.4-1.4
								C7.1,29.6,6.8,30.5,7,31.4z"/>
						</g>
					</g>
					<g>
						<path fill="#344A5E" d="M17.6,32.2c0.7-1.7,0.8-3.2,0.8-4.7c0.1-4.3-2.3-5.5-5.5-5.5c-3.2,0-5.5,1.3-5.5,5.7
							c0,1.4,0.1,3,0.6,4.6H17.6z"/>
					</g>
				</g>
				<g>
					<path fill="#FFD15C" d="M12.7,28c-1.5,0-2.7-0.4-3.6-1.1C8.3,28,7.8,29.4,7.8,31c0,3.4,2.3,6.1,5.1,6.1s5.1-2.7,5.1-6.1
						c0-1.7-0.6-3.2-1.5-4.3C15.5,27.5,14.3,28,12.7,28z"/>
				</g>
			</g>
		</g>
	</g>
</g>
</svg>
