<?xml version="1.0" encoding="utf-8"?>
<!-- Generator: Adobe Illustrator 18.0.0, SVG Export Plug-In . SVG Version: 6.00 Build 0)  -->
<!DOCTYPE svg PUBLIC "-//W3C//DTD SVG 1.1//EN" "http://www.w3.org/Graphics/SVG/1.1/DTD/svg11.dtd">
<svg version="1.1" id="Layer_1" xmlns="http://www.w3.org/2000/svg" xmlns:xlink="http://www.w3.org/1999/xlink" x="0px" y="0px"
	 viewBox="0 0 48 48" enable-background="new 0 0 48 48" xml:space="preserve">
<g>
	<g>
		<g>
			<g>
				<rect x="11.2" y="23.2" fill="#CED6E0" width="7.2" height="6.4"/>
			</g>
			<g>
				<g>
					<polygon fill="#55C0EB" points="16.3,25.1 17.8,23.7 14.9,20.9 11.9,23.7 13.4,25.1 					"/>
				</g>
			</g>
			<g>
				<g>
					<polygon fill="#55C0EB" points="17.7,31.3 16.3,25.1 13.4,25.1 12,31.3 					"/>
				</g>
			</g>
			<path fill="#F7B64C" d="M10.9,16v1.8c0.9,1.4,2.2,2.4,3.9,3.1c1.5-0.7,2.9-1.6,3.9-3.1V16H10.9z"/>
			<g>
				<g>
					<g>
						<g>
							<path fill="#FFD15C" d="M21.6,11.2c-0.3,1.2-1,2.1-1.7,2c-0.7-0.1-1-1.2-0.7-2.5s1-2.1,1.7-2C21.6,8.9,21.9,10,21.6,11.2z"/>
						</g>
					</g>
				</g>
				<g>
					<g>
						<g>
							<path fill="#FFD15C" d="M8.1,11.2c0.3,1.2,1,2.1,1.7,2s1-1.2,0.7-2.5s-1-2.1-1.7-2C8.1,8.9,7.8,10,8.1,11.2z"/>
						</g>
					</g>
				</g>
				<path fill="#415A6B" d="M19.9,12.4c0.8-2.2,1.3-4.5,1.3-6c0-3.6-2.9-6.4-6.4-6.4S8.4,2.9,8.4,6.4c0,1.5,0.5,3.8,1.3,6H19.9z"/>
				<path fill="#FFD15C" d="M14.6,5.8c-0.9,0-1.8-0.1-2.6-0.2c-1.6-0.3-3,1-3,2.6l0,2.3c0,4.4,2.6,7.9,5.9,7.9s5.9-3.5,5.9-7.9
					l0-2.4c0-1.7-1.6-2.9-3.2-2.5C16.6,5.7,15.6,5.8,14.6,5.8z"/>
			</g>
			<g>
				<g>
					<g>
						<polygon fill="#F3F3F3" points="18.8,17.8 14.9,20.9 17.9,25.1 19.9,20.2 						"/>
					</g>
					<g>
						<g>
							<path fill="#344A5E" d="M29.7,31.3l-0.4-3.8c-0.2-2.1-1.6-3.9-3.5-4.8L20,19.9l-3.3,11.4H29.7z"/>
						</g>
						<polygon fill="#415A6B" points="20.2,31.3 22.7,26.3 20.2,24.5 23.4,23.9 19.3,19 16.4,31.3 						"/>
					</g>
				</g>
				<g>
					<g>
						<polygon fill="#F3F3F3" points="10.9,17.8 14.9,20.9 11.8,25.1 9.8,20.2 						"/>
					</g>
					<g>
						<g>
							<path fill="#344A5E" d="M12.9,31.3L9.7,19.9L4,22.7c-1.9,0.9-3.3,2.7-3.5,4.8L0,31.3H12.9z"/>
						</g>
						<polygon fill="#415A6B" points="7,26.3 9.5,31.3 13.3,31.3 10.4,19 6.3,23.9 9.5,24.5 						"/>
					</g>
				</g>
			</g>
		</g>
		<g>
			<g>
				<g>
					<path fill="#344A5E" d="M32.7,46.8c0.4,0.7,1.1,1.2,1.9,1.2s1.6-0.5,1.9-1.2H32.7z"/>
				</g>
				<g>
					<path fill="#FFD15C" d="M37.5,44c0.1-2.1,1-4,2.5-5.4c1.9-1.7,3-4.3,2.6-7.1c-0.5-3.6-3.5-6.6-7.1-7c-4.9-0.6-9.1,3.3-9.1,8.1
						c0,2.4,1,4.6,2.7,6.1c1.6,1.4,2.5,3.4,2.5,5.4H37.5z"/>
				</g>
				<path fill="#415A6B" d="M31.4,42.2v3.5c0,0.7,0.6,1.3,1.3,1.3h3.8c0.7,0,1.3-0.6,1.3-1.3v-3.5H31.4z"/>
				<g>
					<g>
						<g>
							<path fill="#344A5E" d="M31.4,44c-0.4,0-0.7-0.3-0.7-0.7c0-0.4,0.3-0.8,0.7-0.8l6.4-0.5c0.4,0,0.8,0.3,0.8,0.7
								c0,0.4-0.3,0.8-0.7,0.8L31.4,44C31.5,44,31.5,44,31.4,44z"/>
						</g>
					</g>
					<g>
						<g>
							<path fill="#344A5E" d="M31.4,46.2c-0.4,0-0.7-0.3-0.7-0.7c0-0.4,0.3-0.8,0.7-0.8l6.4-0.5c0.4,0,0.8,0.3,0.8,0.7
								c0,0.4-0.3,0.8-0.7,0.8L31.4,46.2C31.5,46.2,31.5,46.2,31.4,46.2z"/>
						</g>
					</g>
				</g>
			</g>
			<g>
				<g>
					<path fill="#FFD15C" d="M34.6,19.2c-0.4,0-0.8,0.3-0.8,0.8v1.9c0,0.4,0.3,0.8,0.8,0.8c0.4,0,0.8-0.3,0.8-0.8v-1.9
						C35.4,19.5,35,19.2,34.6,19.2z"/>
				</g>
				<g>
					<path fill="#FFD15C" d="M27.9,21c-0.4,0.2-0.5,0.7-0.3,1l0.9,1.6c0.2,0.4,0.7,0.5,1,0.3c0.4-0.2,0.5-0.7,0.3-1L29,21.3
						C28.8,20.9,28.3,20.8,27.9,21z"/>
				</g>
				<g>
					<path fill="#FFD15C" d="M23,25.9c-0.2,0.4-0.1,0.8,0.3,1l1.6,0.9c0.4,0.2,0.8,0.1,1-0.3c0.2-0.4,0.1-0.8-0.3-1l-1.6-0.9
						C23.7,25.4,23.3,25.5,23,25.9z"/>
				</g>
				<g>
					<path fill="#FFD15C" d="M21.3,32.6c0,0.4,0.3,0.8,0.8,0.8h1.9c0.4,0,0.8-0.3,0.8-0.8c0-0.4-0.3-0.8-0.8-0.8H22
						C21.6,31.8,21.3,32.1,21.3,32.6z"/>
				</g>
				<g>
					<path fill="#FFD15C" d="M23,39.2c0.2,0.4,0.7,0.5,1,0.3l1.6-0.9c0.4-0.2,0.5-0.7,0.3-1c-0.2-0.4-0.7-0.5-1-0.3l-1.6,0.9
						C23,38.4,22.8,38.9,23,39.2z"/>
				</g>
				<g>
					<path fill="#FFD15C" d="M46.2,39.2c0.2-0.4,0.1-0.8-0.3-1l-1.6-0.9c-0.4-0.2-0.8-0.1-1,0.3c-0.2,0.4-0.1,0.8,0.3,1l1.6,0.9
						C45.5,39.7,46,39.6,46.2,39.2z"/>
				</g>
				<g>
					<path fill="#FFD15C" d="M48,32.6c0-0.4-0.3-0.8-0.8-0.8h-1.9c-0.4,0-0.8,0.3-0.8,0.8c0,0.4,0.3,0.8,0.8,0.8h1.9
						C47.7,33.3,48,33,48,32.6z"/>
				</g>
				<g>
					<path fill="#FFD15C" d="M46.2,25.9c-0.2-0.4-0.7-0.5-1-0.3l-1.6,0.9c-0.4,0.2-0.5,0.7-0.3,1c0.2,0.4,0.7,0.5,1,0.3l1.6-0.9
						C46.3,26.7,46.4,26.2,46.2,25.9z"/>
				</g>
				<g>
					<path fill="#FFD15C" d="M41.3,21c-0.4-0.2-0.8-0.1-1,0.3l-0.9,1.6c-0.2,0.4-0.1,0.8,0.3,1c0.4,0.2,0.8,0.1,1-0.3l0.9-1.6
						C41.8,21.6,41.7,21.2,41.3,21z"/>
				</g>
			</g>
		</g>
		<g>
			<g>
				<path fill="#F3705A" d="M4,35.7c-0.1-1-0.1-2,0-3c2,4.8,7,7.8,12.4,7.1l-0.3-2.2l6.5,4.4l-5.1,6l-0.3-2.2
					C10.8,46.7,4.9,42.2,4,35.7z"/>
			</g>
		</g>
		<g>
			<g>
				<path fill="#F3705A" d="M44,12.3c0.1,1,0.1,2,0,3c-2-4.8-7-7.8-12.4-7.1l0.3,2.2L25.4,6l5.1-6l0.3,2.2
					C37.2,1.3,43.1,5.8,44,12.3z"/>
			</g>
		</g>
	</g>
</g>
</svg>
