<?xml version="1.0" encoding="utf-8"?>
<!-- Generator: Adobe Illustrator 18.0.0, SVG Export Plug-In . SVG Version: 6.00 Build 0)  -->
<!DOCTYPE svg PUBLIC "-//W3C//DTD SVG 1.1//EN" "http://www.w3.org/Graphics/SVG/1.1/DTD/svg11.dtd">
<svg version="1.1" id="Layer_1" xmlns="http://www.w3.org/2000/svg" xmlns:xlink="http://www.w3.org/1999/xlink" x="0px" y="0px"
	 viewBox="0 0 48 48" enable-background="new 0 0 48 48" xml:space="preserve">
<g>
	<g>
		<g>
			<g>
				<g>
					<g>
						<path fill="#ACB2BA" d="M16.3,39.1L16.3,39.1c-0.1,0-0.1-0.1-0.1-0.1v-2.4h0.3V39C16.4,39.1,16.4,39.1,16.3,39.1z"/>
					</g>
				</g>
				<g>
					<g>
						<path fill="#344A5E" d="M16.5,36.6c0.1-0.1,0.2-0.2,0.4-0.4v-1.2h-1.1v1.2l0.4,0.4H16.5z"/>
					</g>
				</g>
			</g>
			<g>
				<g>
					<path fill="#425A6B" d="M17.2,30c0,0-0.2-1.1-0.3-1.6s0.8-1.6,0.8-1.6l-1.5-0.4l-0.5,2.1c0,0-0.1,0.5-0.2,1
						c-0.1,0.6-0.1,0.7-0.1,0.7h0.9L17.2,30z"/>
				</g>
			</g>
			<g>
				<g>
					<path fill="#FFD15C" d="M19,10.3l-0.6-0.1c0,0-0.5,1-0.7,2c-0.1,1-0.4,3.4-0.4,3.9c0,0.5-0.3,1.2-0.5,1.6
						C16.6,18.1,16,22.1,16,23c-0.1,0.9-0.2,1.6-0.2,2c0,0.4-0.5,1.9-0.4,2.2c0.1,0.3,0.4,1,0.4,1.3c0,0,0.3-0.2,0.3-0.5
						c0-0.3,0.2-0.5,0.2-0.7c0.1-0.2,0.3-0.3,0.4-0.3c0.1,0,0.3,0.4,0.4,0.6c0.1,0.1,0.4,0.2,0.4,0.2s-0.3-1.5-0.5-2.2
						c-0.2-0.7-0.2-0.7-0.1-1.2c0.1-0.5,1-4.2,1.2-4.6c0.2-0.4,1.1-2.7,1.3-3.4c0.1-0.6,0.5-3.8,0.5-4.1C19.8,12,19,10.3,19,10.3z"
						/>
				</g>
			</g>
			<g>
				<g>
					<path fill="#FFD15C" d="M19,10.3l-0.6-0.1c0,0-0.5,1-0.7,2c-0.1,1-0.4,3.4-0.4,3.9c0,0.5-0.3,1.2-0.5,1.6
						C16.6,18.1,16,22.1,16,23c-0.1,0.9-0.2,1.6-0.2,2c0,0.4-0.5,1.9-0.4,2.2c0.1,0.3,0.4,1,0.4,1.3c0,0,0.3-0.2,0.3-0.5
						c0-0.3,0.2-0.5,0.2-0.7c0.1-0.2,0.3-0.3,0.4-0.3c0.1,0,0.3,0.4,0.4,0.6c0.1,0.1,0.4,0.2,0.4,0.2s-0.3-1.5-0.5-2.2
						c-0.2-0.7-0.2-0.7-0.1-1.2c0.1-0.5,1-4.2,1.2-4.6c0.2-0.4,1.1-2.7,1.3-3.4c0.1-0.6,0.5-3.8,0.5-4.1C19.8,12,19,10.3,19,10.3z"
						/>
				</g>
			</g>
			<g>
				<g>
					<path fill="#FFD15C" d="M28.9,10.9l0.4-0.2c0,0,1.4,1.5,1.2,3.4c-0.2,1.8-0.1,3.1,0,3.9c0.1,0.8,0.1,3.6-0.2,4.9
						c-0.3,1.3-0.3,3.2-0.2,3.5c0.1,0.3,0.3,0.8,0.2,1.1c-0.1,0.3-0.7,1.6-1.2,1.9l-0.2,0.1c0,0-0.2-0.2,0-0.6s0.5-0.6,0.5-0.6
						s0-0.5,0-0.6c0,0-0.1-0.6-0.1-0.8c0,0-0.1,0-0.1,0.2c0,0.1,0.2,1.3-0.2,1.2c-0.4,0-0.3-0.9-0.3-1c0-0.2-0.2-1-0.1-1.4
						c0.1-0.4,0.6-1,0.6-1.7c-0.1-0.7-0.3-3.7-0.3-4.2c0-0.5-0.2-2.1-0.3-2.5c-0.1-0.4-0.4-2.5-0.4-2.5S28,11.7,28.9,10.9z"/>
				</g>
			</g>
			<g>
				<g>
					<path fill="#344A5E" d="M23.4,46.3l0-0.4c0,0,0.2-0.4-0.1-0.8C23,44.8,23,44.6,23,44.6l-2.3,0.5c0,0,0,0.2,0,0.4
						c-0.1,0.2-0.6,0.9-0.6,1.2c-0.1,0.3,0.6,0.5,0.6,0.5s1.5,0.3,1.5,0.3c0,0,0.9-0.1,1-0.5c0.1-0.4,0.3-0.5,0.3-0.5L23.4,46.3z"/>
				</g>
			</g>
			<g>
				<g>
					<g>
						<path fill="#344A5E" d="M27.4,46.2c0,0-0.4-0.7-0.4-1c0-0.3,0.4-1.1,0.4-1.1l3.8,0.1c0,0,0.1,0.7,0.8,1c0,0,1,0.4,0.9,1.1
							c-0.1,0.7-2.2,0.9-2.7,0.6c-0.5-0.3-1.2-0.7-1.4-0.8C28.5,46.1,27.4,46.2,27.4,46.2z"/>
					</g>
				</g>
				<g>
					<g>
						<path fill="#425A6B" d="M27,45.2c0,0,0.2,0.7,0.9,0.6l0,0c0.4,0,0.8,0.1,1,0.4c0.1,0.1,0.2,0.2,0.3,0.2
							c0.4,0.2,1.1,0.5,1.9,0.3c0.7-0.2,1.5-0.4,1.7-0.4l0,0c0.1,0.3-0.1,0.6-0.4,0.7c-0.3,0.1-0.8,0.2-1,0.2
							c-0.5,0-1.6-0.2-2.3-0.5l0-0.3c0,0-0.4-0.1-0.7,0c0,0-1.1,0.1-1.3-0.6C26.9,45.8,26.9,45.5,27,45.2z"/>
					</g>
				</g>
			</g>
			<g>
				<g>
					<ellipse fill="#425A6B" cx="22.3" cy="7.8" rx="1.6" ry="2.7"/>
				</g>
			</g>
			<g>
				<g>
					<path fill="#FFD15C" d="M25.5,4.2c0,0-0.1,1.9-0.4,2.7l0.4,2.6l0.2,1.1l-0.5,2.3l-2.8,0l-0.8-3.7c0,0,1-0.9,0.7-1.8
						c0,0-1-1.3-1.2-2.2c-0.1-0.9,0-2.5,0-2.5l1.9-1l0.9,0.2C23.9,1.9,25.4,3,25.5,4.2z"/>
				</g>
			</g>
			<g>
				<g>
					<path fill="#E8EAE8" d="M25.9,10.6v3.3h-4.7v-3.5c0.5,0.9,1.4,1.5,2.4,1.5C24.6,11.8,25.4,11.3,25.9,10.6z"/>
				</g>
			</g>
			<g>
				<g>
					<path fill="#67C5B8" d="M27.2,9.1c0,0-1.1,4-2.6,5.1c-1.6-1.1-2.6-3-3.5-5l-2.7,1.1c0,0,1,3.4,1.1,3.9s-0.2,2.8-0.7,4
						c-0.5,1.2-2,6.5-1.4,8.8c0.5,2.4,0.4,6,0.9,7.9c0.5,1.9,1.5,4.8,1.5,5.4c0,0.6,0.5,3.6,1,5c0,0,2.3-0.3,2.7-0.1
						c0,0,0.7-1.5,0.5-3.1c-0.2-1.6-0.1-4.1-0.5-5.1c-0.4-1-0.6-1.5-0.4-2c0.2-0.5,0.3-6.3,0.3-6.3s1.1,5.4,1.2,6
						c0.1,0.7,2.1,4.9,2.5,5.4c0.4,0.5,0.2,4.3,0.2,4.3s0.6,0.5,1.9,0.4c1.3-0.2,2.3-0.4,2.3-0.4l0-1.1c0,0,0.4-2.4-0.3-4.1
						c-0.7-1.8-1.2-5.2-1.3-5.9c-0.1-0.7-0.7-5.1-1-6.2c-0.2-1.1-0.9-5.6-0.9-6.7c0-1.1,0.5-5.9,0.5-5.9s0.2-2.7,1-3.7
						C29.4,10.8,27.8,9.4,27.2,9.1z"/>
				</g>
			</g>
			<g>
				<g>
					<path fill="#F05640" d="M20.5,3.6l0,0.8c0,0,0.1,0.3,0.4-0.1C21.2,4,21,5.6,21,5.4C21,5.2,20.9,4,20.9,4l-0.1-0.7"/>
				</g>
			</g>
			<g>
				<g>
					<path fill="#425A6B" d="M24.8,2.4c0,0,0.7,1.2,0.7,1.2l0.4,0.3l0.1-0.3c0,0-0.4-1-0.8-1.2"/>
				</g>
			</g>
			<g>
				<g>
					<path fill="#425A6B" d="M24.7,2.2c0.5,0.6,1,1.2,1.3,1.9c0.2,0.4,0.3,0.9,0.4,1.4c0.2,1.1,0.5,2.1,0.7,3.2
						c0.2,0.7,0.2,1.4,0.1,2.1c0,0.4-0.2,0.8-0.3,1.3c-0.1,0.5-0.2,1-0.4,1.4c-0.1,0.3-0.2,0.7-0.5,0.8c0.4-0.4,0.5-1.1,0.1-1.6
						c-0.5,0.8-0.6,1.7-0.4,2.6c0.1,0.4,0.3,0.9,0.4,1.3c0.1,0.4,0.2,0.9,0.2,1.3c0-0.5-0.2-0.9-0.4-1.3c-0.2-0.4-0.4-0.8-0.4-1.3
						c-0.1,0.5-0.1,1.1,0,1.6c0.1,0.3,0.2,0.7,0.3,1c0,0.3,0,0.7-0.2,1c0.1-0.1,0.1-0.2,0.1-0.4c0-0.1-0.1-0.2-0.2-0.3
						c-0.4-0.6-0.8-1.2-1.1-1.8c-0.3-0.6-0.5-1.3-0.6-2s0.1-1.4,0.5-2c0.9-1.3,0.7-3.3,0.2-4.8C24.7,7.3,25,7,25.1,6.7
						c0.3-0.8,0.3-1.7,0.1-2.6c-0.3-0.8-0.8-1.6-1.5-2.1"/>
				</g>
			</g>
			<g>
				<g>
					<path fill="#425A6B" d="M20.8,3.9c0,0-0.2,3.8-0.2,4.6c0,0.8,0.2,1.1,0.1,1.9c-0.1,0.7-0.1,2.7,0.2,3.6c0.3,0.9,0.1,2.9,0,3.3
						c0,0,0.6-1.7,0.4-2.2c0,0,0.3,1,0.2,1.7c-0.1,0.6,0.2,1.6,0.2,1.6s-0.2-1.1-0.1-1.6c0.1-0.5,0.2-1,0.2-1.5c0,0,0.5,0.6,0.4,1
						c-0.1,0.5-0.4,1.3-0.2,1.9c0,0,0.1-1.5,0.3-1.8c0.2-0.3,0.2-0.7,0.2-0.7s0,1.3,0.2,2.1c0.1,0.8-0.1,1.4-0.1,1.4
						s1.6-1.6,1.6-2.9c0-1.3-0.7-3.4-1.2-4.3c-0.5-0.9-1.5-4.9-1.5-5.5S21.1,5,21.1,4.4c0-0.5,0.8-1.8,0.8-1.8S21.1,2.8,20.8,3.9z"
						/>
				</g>
			</g>
			<g>
				<g>
					<path fill="#F26F5A" d="M26,3.9c0-0.1-0.1-0.2-0.1-0.2c0-0.6-0.4-0.9-0.8-1c-0.3-0.1-0.6-0.2-0.6-0.2c-0.1,0-0.2,0-0.4,0
						c-2.5-0.2-3.5,1.5-3.6,1.9c-0.2-0.4-0.4-1.1-0.3-1.8c0.1-0.5,0.4-2.1,1.9-2.5c1.5-0.4,2.7,0.8,2.9,1.3s0.9,1.6,0.9,1.6
						C26.1,3.3,26,3.7,26,3.9z"/>
				</g>
			</g>
			<g>
				<g>
					<path fill="#425A6B" d="M20,46.7c0,0,1.3,0.3,2,0.3c0.7,0,1,0,1.2-0.2c0.1-0.2,0.2-0.7,0.2-1c0,0,0.2,0.3,0,0.7
						c-0.1,0.2-0.3,0.5-0.3,0.7c0,0.2-0.2,0.8-1.4,0.7C20.7,47.8,19.8,47.8,20,46.7z"/>
				</g>
			</g>
			<g>
				<g>
					<path fill="#FFD15C" d="M30.2,24.9H29c-0.1,0.4-0.4,0.8-0.5,1.1c-0.1,0.4,0.1,1.2,0.1,1.4c0,0.2-0.1,1,0.3,1
						c0.4,0,0.2-1.1,0.2-1.2c0-0.1,0.1-0.2,0.1-0.2c0,0.2,0.1,0.8,0.1,0.8c-0.1,0.2,0,0.6,0,0.6s-0.2,0.2-0.5,0.6s0,0.6,0,0.6
						l0.2-0.1c0.5-0.4,1.1-1.6,1.2-1.9c0.1-0.3-0.1-0.8-0.2-1.1C30.1,26.2,30.1,25.6,30.2,24.9z"/>
				</g>
			</g>
			<g>
				<g>
					<path fill="#344A5E" d="M17.4,32.3c-0.1,1.4-0.6,2.3-1.1,2.3c-0.5,0-1-0.9-1.1-2.3c-0.2-1.8,0.3-3.8,1.1-3.8
						C17.1,28.5,17.6,30.5,17.4,32.3z"/>
				</g>
			</g>
			<g>
				<g>
					<ellipse fill="#425A6B" cx="16.3" cy="32.5" rx="1.1" ry="3.5"/>
				</g>
			</g>
		</g>
	</g>
</g>
</svg>
