<?xml version="1.0" encoding="utf-8"?>
<!-- Generator: Adobe Illustrator 19.0.1, SVG Export Plug-In . SVG Version: 6.00 Build 0)  -->
<svg version="1.1" id="Layer_1" xmlns="http://www.w3.org/2000/svg" xmlns:xlink="http://www.w3.org/1999/xlink" x="0px" y="0px"
	 viewBox="0 0 48 48" style="enable-background:new 0 0 48 48;" xml:space="preserve">
<style type="text/css">
	.st0{fill:#FFD15C;}
	.st1{fill:#415A6B;}
	.st2{fill:#F7B64C;}
	.st3{fill:#CED6E0;}
	.st4{fill:#344A5E;}
	.st5{fill:#F3F3F3;}
	.st6{fill:#F05540;}
	.st7{fill:#F3705A;}
	.st8{fill:#66C6B9;}
	.st9{fill:#55C0EB;}
	.st10{fill:#F5F6FB;}
	.st11{fill:#4ABAA5;}
	.st12{fill:#ADB3BA;}
	.st13{fill:#E8EAE9;}
	.st14{fill:#2E4556;}
	.st15{fill:#8AD7F8;}
	.st16{fill:#FFFFFF;}
	.st17{fill:#E54838;}
	.st18{fill:#3EAF99;}
	.st19{fill:#EFA943;}
	.st20{fill:#4CAEE5;}
	.st21{fill:#293F4F;}
	.st22{fill:#2D4456;}
	.st23{fill:#2E4454;}
	.st24{fill:#2A3F4F;}
	.st25{fill:#2D4151;}
	.st26{fill:#E89E3D;}
	.st27{fill:#2B4151;}
	.st28{fill:#2A4051;}
	.st29{fill:#2C4151;}
	.st30{fill:#EBEAE8;}
	.st31{fill:#3AA590;}
	.st32{fill:#E84534;}
	.st33{fill:none;}
</style>
<g>
	<g>
		<g>
			<path class="st13" d="M48,3v32.3c0,1.7-1.3,3-3,3H3c-1.7,0-3-1.3-3-3V3c0-1.7,1.3-3,3-3h42C46.7,0,48,1.3,48,3z"/>
		</g>
		<g>
			<g>
				<path class="st9" d="M20.2,7.3c0,0-0.1,0-0.1,0c0,0-0.1,0-0.1,0c0,0-0.1,0-0.1,0c0,0-0.1,0-0.2,0c0,0,0,0.1,0,0.1
					c-0.1,0-0.2,0.1-0.3,0.2c0,0-0.1,0.1-0.1,0.1c0,0-0.1,0-0.1,0c0,0-0.1,0-0.1,0c0,0-0.1-0.1-0.1,0c0,0.1-0.1,0.1-0.1,0.1
					c0,0-0.1,0-0.1,0.1c0,0-0.1,0.1-0.1,0.1c0,0,0,0,0,0.1c0,0,0,0-0.1,0c0,0,0,0.1,0,0.1c-0.1,0.1-0.2,0.2-0.3,0.2c0,0,0,0,0,0
					c0,0.2,0,0.2-0.1,0.3c-0.1,0-0.1,0.1-0.1,0.2c-0.1,0.1-0.1,0-0.2-0.1c-0.1,0-0.1-0.1-0.1-0.2c-0.1,0.1-0.2,0-0.2,0
					c0-0.1-0.1-0.2-0.1-0.3c0-0.1,0-0.1,0-0.2c0,0,0-0.1-0.1-0.2c0,0,0-0.1,0-0.1c0,0,0-0.1,0-0.1c0-0.1-0.1-0.1-0.1-0.2
					c0,0,0,0,0-0.1c0-0.1,0-0.1,0.1-0.2c0.1,0,0.1-0.2,0.3-0.1c0,0,0,0,0-0.1c0,0,0,0,0,0c0,0,0.1,0,0.1,0c0,0,0,0.1,0,0.1
					c0.1,0,0.1-0.2,0.2-0.2c0,0,0-0.1,0-0.1c0,0,0.1,0,0.1,0c0-0.1-0.1,0-0.1,0c0,0-0.1,0-0.1,0V7h0.3c0,0,0,0,0,0c0,0-0.1,0-0.1,0
					c0,0,0-0.1-0.1-0.1c0-0.1-0.1-0.1-0.1,0c0,0.1-0.1,0.1-0.2,0.1c0-0.1,0-0.1,0.1-0.2c0.1,0,0.2-0.2,0.1-0.3c0-0.1,0-0.1,0-0.2
					c-0.1,0-0.1-0.1-0.2-0.2C17.1,6,17,5.9,16.8,6c0,0-0.1,0-0.1,0c0,0-0.1,0-0.1,0c0,0,0,0-0.1,0c0,0,0,0.1-0.1,0c0,0,0,0,0,0
					c0,0.1-0.1,0-0.1,0c0-0.1,0-0.1-0.1-0.2c0.1,0,0.1,0,0.1,0.1c0-0.2-0.1-0.1-0.2-0.1V5.6c0.1,0,0.1,0,0.2,0c0.1,0,0.1,0,0.2,0
					c0,0,0,0,0.1,0c0.1,0,0.1,0,0.2,0c0.1,0,0.2-0.1,0.3-0.1c0,0,0,0,0.1-0.1c0-0.1-0.1-0.1,0-0.2v0h0v0c0.1,0,0.2,0,0.3,0
					c0,0,0,0,0,0c0-0.1,0.1-0.1,0.1,0c0,0,0.1,0,0.1,0c0.1-0.1,0.2-0.1,0.3-0.1c0,0,0.1,0,0.1,0c0,0,0,0,0.1,0h0.2c0,0,0.1,0,0.1,0
					c0,0.1,0.1,0,0.1,0c0,0,0.1,0,0.2,0c0,0,0.1,0,0.1,0c0,0,0-0.1,0-0.1c0.1,0,0.2,0,0.2,0c0,0,0.1,0,0.1,0.1c0,0,0.1,0,0.1-0.1
					c0,0,0,0,0,0c0,0,0-0.1,0-0.1c0.1,0,0.1,0,0.2-0.1c0,0,0.1,0.1,0.2,0.1c0,0,0,0,0,0c0.1,0,0.2-0.1,0.3-0.1c0.3,0,0.7,0,1,0
					c0.1,0,0.1,0,0.2,0.1c0,0,0,0.1,0,0.1c0,0,0.1,0,0.1,0c0,0,0,0.1,0,0.1c0.1,0,0.1,0,0.2,0c0.1,0.1,0.1,0.1,0.2,0c0,0,0,0,0.1,0
					c0.1,0,0.1,0,0.2,0c0,0,0,0,0.1,0c0.1,0,0.1-0.1,0.2,0c-0.1,0-0.1,0.1-0.2,0.1c-0.1,0-0.1,0-0.2,0c0,0,0,0.1-0.1,0.1
					c0,0-0.1,0-0.1-0.1c0,0-0.1,0.1-0.1,0.1c0,0,0,0.1-0.1,0.1c-0.1,0-0.1,0.1-0.2,0.2c0.1,0.1,0.1,0,0.2,0c0,0,0,0.1,0,0.1
					c-0.1,0.1-0.2,0.1-0.3,0.1c0,0.1,0.1,0,0.1,0c0.1,0,0.1,0,0.1,0.2c0,0,0,0-0.1,0c0,0,0,0-0.1,0c0,0.1,0.1,0,0.1,0.1
					c0,0-0.1,0-0.1,0c0,0,0,0.1,0,0.1c-0.1,0-0.1,0.1-0.2,0.1c-0.1,0-0.1,0-0.2-0.1c0-0.1-0.1-0.1-0.1,0c0,0-0.1,0.1-0.1,0.1
					c0,0,0,0.1,0,0.1c0,0,0.1,0,0.1,0c0,0.1,0.1,0.1,0.1,0.2c0,0,0.1,0.1,0,0.1c0,0-0.1,0-0.1,0c0,0,0,0,0,0.1c0,0-0.1,0-0.1-0.1
					c0,0,0,0,0-0.1c0,0-0.1,0-0.1,0c0,0,0,0.1,0,0.1c0,0-0.1,0-0.1,0C20.4,7,20.5,7,20.6,7c0,0,0,0.1,0,0.1c-0.1,0-0.2,0.1-0.2,0.1
					C20.3,7.3,20.3,7.3,20.2,7.3z"/>
				<path class="st9" d="M37.5,18.3c-0.1,0-0.1,0.1-0.2,0.1c-0.1,0.1-0.1,0.1-0.1,0c0,0,0,0,0,0c0-0.1,0-0.2,0-0.3
					c0-0.1,0-0.2-0.1-0.3c0,0-0.1-0.1-0.1-0.1c0-0.1-0.1-0.2-0.2-0.3c-0.1,0-0.1-0.1-0.1-0.2c0-0.1,0-0.2-0.1-0.3c0,0-0.1,0-0.1,0
					c0,0.2-0.1,0.2-0.2,0.2c0,0-0.1,0-0.1,0c0,0,0,0-0.1,0c-0.1,0-0.1,0.1-0.2,0.1c0,0,0,0,0,0.1c0,0,0,0.1,0,0.1
					c0,0.1,0,0.1-0.1,0.1c-0.1,0-0.1,0-0.1,0.1c0,0.1-0.1,0.1-0.1,0.2c-0.1,0-0.1,0.1-0.2,0.2c0,0.1-0.1,0.1-0.1,0.3
					c-0.2,0-0.3,0.1-0.3,0.3c0,0.1,0,0.1,0,0.2c0,0.1,0,0.2,0,0.3c0,0,0,0.1,0,0.2c0,0,0,0.1,0,0.1c0,0.1,0,0.2,0,0.3
					c0,0-0.1,0-0.1,0c0,0.1,0,0.2-0.1,0.3c0,0,0,0-0.1,0c0,0,0,0.1,0,0.2c0,0-0.1,0-0.1,0c-0.1,0-0.1,0-0.1-0.1
					c0-0.1-0.1-0.2-0.1-0.4c0,0,0-0.1,0-0.1c0-0.1-0.1-0.2-0.1-0.3c0,0-0.1-0.1-0.1-0.1c0-0.1,0-0.2-0.1-0.3c0,0,0-0.1,0-0.1
					c-0.1-0.1-0.1-0.3-0.2-0.4c0,0,0,0,0-0.1c0-0.1,0-0.1,0-0.1c0,0,0-0.1,0-0.1c0-0.1,0-0.1,0-0.2c0,0,0-0.1,0-0.1c0,0,0-0.1,0-0.1
					c0,0,0-0.1,0-0.2c0.1-0.1,0-0.1,0-0.1c0,0,0-0.1-0.1-0.1c0,0,0,0,0,0c0-0.1,0-0.1-0.1-0.2c0,0,0,0.1-0.1,0.1c0,0,0,0.1,0,0.1
					c0,0-0.1,0-0.1,0.1c-0.1,0.1-0.1,0.1-0.2,0c-0.1-0.1-0.1-0.2-0.2-0.1V17c0,0,0.1,0,0.1,0v-0.1c-0.1,0.1-0.1,0-0.2-0.1
					c-0.1-0.1-0.1-0.1-0.2-0.1c-0.1,0-0.1-0.1-0.1-0.2c-0.1,0-0.1,0-0.1-0.1h-0.6c-0.1,0.1-0.2,0.1-0.2,0.1c0,0-0.1,0-0.1,0
					c0,0,0,0-0.1,0c-0.1,0-0.2,0-0.2,0c0,0-0.1,0-0.2,0c0-0.1,0-0.1,0-0.2c0-0.1-0.1-0.1-0.1-0.1c0-0.1-0.1,0-0.1,0
					c0,0-0.1,0.1-0.1,0.1c0,0,0,0-0.1,0c-0.1-0.1-0.1,0-0.2-0.1c-0.1-0.1-0.1-0.1-0.2-0.2c0,0,0,0-0.1,0c-0.1,0-0.1-0.1-0.1-0.1
					c0-0.1,0-0.2-0.1-0.2c0,0,0,0,0-0.1c0-0.1,0-0.1-0.1-0.1c0,0-0.1,0-0.1,0c0,0,0,0.1,0,0.1c0,0-0.1,0-0.1,0
					c0,0.2,0.1,0.3,0.1,0.5c0.1,0.1,0.2,0.2,0.2,0.3c0,0.1,0,0.1,0.1,0.2c0,0,0,0.1,0.1,0.1c0-0.1,0-0.1,0-0.2c0,0,0,0,0.1,0
					c0,0.1,0,0.1,0,0.2c0,0.1,0,0.2,0.1,0.3c0.1-0.1,0.1,0,0.2,0c0.1,0,0.1,0,0.1-0.1c0,0,0.1-0.1,0.1-0.1c0,0,0-0.1,0.1-0.2h0.1
					c0,0,0,0,0,0c0,0.1,0,0.1,0.1,0.2c0,0,0,0.1,0,0.1c0.1,0,0.1,0.1,0.2,0.1c0,0,0,0,0,0c0.1,0,0.2,0.1,0.2,0.2c0,0,0,0.1,0,0.2
					c0,0.1-0.1,0.2-0.1,0.3c0,0-0.1,0-0.1,0c0,0.1,0,0.1,0,0.2c0,0.1,0,0.1,0,0.2c-0.1,0-0.1,0-0.1,0c0,0.1-0.1,0.1-0.1,0.2
					c-0.1,0-0.1,0-0.2,0c0,0.1,0,0.1,0,0.2c-0.2,0-0.3,0.1-0.5,0.2c0,0.1,0,0.1-0.1,0.2c0,0,0,0,0,0c-0.1,0-0.1,0.1-0.2,0.1
					c0,0,0,0,0,0c0,0-0.1,0-0.1,0.1c0,0-0.1,0.1-0.1,0.1c0,0-0.1,0-0.1,0C30,19,29.9,19,29.8,19c0,0-0.1,0-0.1,0.1
					c0,0.1-0.1,0.1-0.1,0.1c-0.1,0-0.1,0-0.2,0c0,0,0-0.1,0-0.1c0-0.1,0-0.1,0-0.2c0,0,0-0.1,0-0.1c0-0.1,0-0.1,0-0.1c0,0,0,0,0-0.1
					c0-0.1,0-0.1,0-0.2c0-0.1,0-0.2-0.1-0.2s-0.1-0.2-0.1-0.2c0,0-0.1-0.1-0.1-0.1c0-0.2-0.1-0.2-0.2-0.3c-0.1-0.1-0.1-0.2-0.2-0.3
					c0,0,0,0,0-0.1c0-0.2-0.1-0.3-0.1-0.5c0,0-0.1-0.1-0.1-0.1c0-0.1,0-0.2-0.1-0.2c0,0,0-0.1-0.1-0.2c0,0,0,0,0-0.1
					c-0.1-0.1-0.1-0.2-0.2-0.3c0,0,0-0.1,0-0.1c0,0-0.1,0-0.1,0v-0.3c-0.1,0.1,0,0.2,0,0.3c-0.1,0.1-0.1,0-0.1,0c0,0.1,0,0.1,0,0.2
					c0,0,0,0.1,0,0.1c0,0,0,0.1,0,0.1c0.1,0.1,0.1,0.2,0.2,0.3c0,0,0,0,0,0c0.1,0.1,0.1,0.2,0.1,0.3c0,0,0,0,0,0
					c0.1,0.1,0.1,0.2,0.2,0.2c0,0.1,0,0.1,0,0.2c0,0,0,0,0,0.1c0,0.1,0,0.1,0,0.2c0,0.2,0.1,0.3,0.2,0.4c0,0,0,0,0.1,0
					c0,0.1,0.1,0.2,0.1,0.3c0,0,0,0,0,0c0,0.2,0.1,0.4,0.3,0.4c0.1,0,0.1,0.1,0.1,0.1c0,0.1,0.1,0.1,0.1,0.2
					c0.1,0.1,0.1,0.1,0.2,0.2c0.1,0.1,0,0.1,0,0.2c0,0-0.1,0-0.1,0c0.1,0.1,0.2,0.2,0.2,0.3c0.1,0,0.2,0,0.2,0c0,0,0.1,0,0.1,0
					c0.1,0,0.1,0,0.2-0.1c0,0,0,0,0.1,0c0.1,0,0.1,0,0.2,0c0,0,0.1,0,0.1,0c0,0,0,0,0,0c0.1,0,0.2-0.1,0.3-0.1c0,0.1,0,0.2,0,0.3
					c0,0,0,0.1,0,0.2c0,0.1,0,0.1,0,0.1c0,0,0,0.1,0,0.1c0,0.1-0.1,0.2-0.1,0.3c0,0-0.1,0.1,0,0.1c0,0.1-0.1,0.1-0.1,0.2
					c-0.1,0-0.1,0.1-0.1,0.2c0,0.1-0.1,0.2-0.1,0.2c0,0,0,0,0,0c0,0,0,0,0,0c0,0.1-0.1,0.2-0.2,0.2c0,0,0,0,0,0
					c-0.1,0.1-0.2,0.2-0.3,0.4c-0.1,0.1-0.2,0.2-0.2,0.3c0,0,0,0.1,0,0.1c0,0.2-0.1,0.2-0.2,0.3c-0.1,0-0.1,0.1-0.1,0.1
					c0,0.1,0,0.2-0.1,0.3c0,0,0,0,0,0c0,0.1,0,0.1-0.1,0.2c0,0,0,0.1,0,0.1c0,0.1,0,0.1,0.1,0.1c0.1,0.1,0.1,0.2,0,0.2
					c0,0,0.1,0.1,0,0.2c0,0,0,0,0,0c0.1,0.1,0,0.2,0.1,0.3c0,0,0,0,0,0c0.1,0.1,0.1,0.2,0.1,0.3v0.8c0,0.1-0.1,0.1-0.1,0.2
					c0,0,0,0.1-0.1,0.1c-0.1,0-0.2,0.2-0.3,0.2c-0.1,0-0.1,0.1-0.2,0.2c0,0.1-0.1,0.1-0.1,0.1c-0.1,0-0.1,0.1-0.2,0.2
					c0,0,0,0.1,0,0.1c0.1,0.1,0,0.1,0,0.2s0,0.1,0,0.2c0,0.1,0,0.2,0,0.3c0.1,0.1,0.1,0.1,0,0.2c0,0-0.1,0.1-0.1,0.1
					c-0.1,0-0.1,0-0.2,0.1c0,0-0.1,0-0.1,0.1c0,0,0,0.1,0,0.1c0,0.1,0,0.3,0,0.4c-0.1,0.1-0.1,0.2-0.2,0.2c0,0.1-0.1,0.2-0.1,0.3
					c0,0,0,0,0,0c0,0.2-0.1,0.2-0.2,0.3c0,0.1-0.1,0.1-0.2,0.2c-0.1,0.1-0.1,0.2-0.2,0.2c0,0-0.1,0-0.1,0c0,0-0.1,0-0.1,0
					c0,0,0,0-0.1,0c-0.1,0-0.2,0-0.3,0c-0.1,0-0.1,0-0.2,0c0,0,0,0-0.1,0c-0.1,0-0.1,0.1-0.2,0.1c-0.1-0.1-0.1-0.1-0.2-0.2
					c0,0,0-0.1,0-0.2c0,0,0-0.1,0-0.1c0.1-0.1,0-0.2,0-0.2c0,0,0,0,0,0c-0.1,0-0.1-0.2-0.1-0.2c0,0,0,0,0-0.1c0-0.1,0-0.2-0.1-0.3
					c0,0,0-0.1-0.1-0.1c0,0,0,0,0,0c0,0,0-0.1,0-0.1c-0.1-0.1-0.1-0.1-0.1-0.2c0-0.1,0-0.1,0-0.2c0-0.1,0-0.1,0-0.2
					c-0.1-0.2,0-0.3,0-0.5c0-0.1,0-0.1-0.1-0.2c0,0,0-0.1,0-0.1c-0.1-0.1-0.1-0.3-0.2-0.4c0,0,0,0,0,0c0-0.2-0.1-0.2-0.1-0.4
					c0,0,0,0,0,0c0-0.2,0-0.3,0-0.5c0-0.1,0-0.1,0-0.2c0.1-0.1,0-0.3,0.1-0.4c0,0,0,0,0-0.1c0,0,0.1,0,0.1,0c0-0.1,0-0.1,0.1-0.2
					c0-0.1,0-0.2-0.1-0.3c0,0,0,0,0-0.1c0-0.1,0-0.1,0-0.2c0,0,0-0.1,0-0.1c0-0.1,0-0.1,0-0.2c0-0.1,0-0.2-0.1-0.2c0,0,0-0.1,0-0.2
					c0,0,0,0-0.1,0c0,0,0.1-0.1,0-0.1c0,0,0-0.1-0.1-0.2c0,0,0,0,0,0c-0.1-0.1-0.2-0.3-0.3-0.4c0,0-0.1-0.1-0.1-0.2
					c0-0.1,0-0.1,0-0.2c0-0.1,0.1-0.1,0.1-0.2c0,0,0,0,0-0.1c0-0.1,0-0.1,0-0.2c0,0,0,0,0-0.1c0,0,0-0.1,0-0.1c0-0.1,0-0.2-0.1-0.3
					c0,0,0,0,0,0c0-0.1-0.1-0.1-0.2-0.1c0,0-0.1,0-0.1,0c-0.1,0-0.1,0-0.1,0c0,0-0.1,0-0.1,0c0-0.1-0.1-0.1-0.1-0.2
					c0-0.1,0-0.1-0.1-0.2c0-0.1-0.1-0.1-0.1-0.1c0,0-0.1,0-0.1-0.1c0,0-0.1,0-0.1,0.1c0,0-0.1,0-0.1,0c0,0,0,0-0.1,0
					c-0.1,0.1-0.1,0.1-0.2,0.1c-0.1,0-0.2,0.1-0.2,0.1c0,0,0,0,0,0c0,0-0.1,0-0.1,0c0-0.1-0.1,0-0.1-0.1c0,0,0,0-0.1,0c0,0,0,0,0,0
					c0,0,0,0,0,0c0,0-0.1,0-0.1,0c0,0-0.1,0-0.1,0c-0.1,0-0.1,0-0.2,0.1c0,0.1-0.1,0.1-0.2,0.1c-0.1,0-0.2,0-0.2-0.1
					c0-0.1-0.1-0.1-0.1-0.2c0,0,0,0,0,0c-0.1,0-0.1-0.1-0.2-0.2c0,0-0.1,0-0.1-0.1c-0.1-0.1-0.1-0.1-0.1-0.2c0-0.1,0-0.2-0.1-0.3
					c0,0,0-0.1,0-0.1c-0.1,0-0.2-0.1-0.2-0.2c0,0,0-0.1,0-0.1c0,0,0,0,0-0.1c0-0.1,0-0.1-0.1-0.1c-0.1,0-0.1-0.1,0-0.3c0,0,0,0,0,0
					c0-0.1-0.1-0.2-0.1-0.3c0-0.1,0-0.1,0.1-0.2c0,0,0-0.1,0-0.1c0-0.1,0-0.2,0.1-0.3c0,0,0-0.1,0-0.1c-0.1,0,0-0.1-0.1-0.2
					c0,0,0,0,0,0c0-0.1,0-0.1,0-0.2c0-0.1,0-0.1-0.1-0.2c0-0.1,0-0.2,0-0.2c0.1-0.1,0.2-0.3,0.2-0.4c0,0,0,0,0.1,0c0,0,0-0.1,0-0.1
					c0.1-0.1,0.1-0.2,0.1-0.3c0.1,0,0.1-0.1,0.2-0.2c0,0,0.1-0.1,0.1-0.2c0,0,0-0.1,0-0.1c0.1,0,0.2,0,0.2-0.1
					c0.1,0,0.1-0.1,0.2-0.2c0,0,0,0,0,0c0.1-0.1,0.1-0.3,0.1-0.4c0-0.1,0-0.2,0.1-0.2c0,0,0,0,0,0c0-0.2,0.2-0.3,0.3-0.3
					c0,0,0.1-0.1,0.1-0.1c0-0.1,0.1-0.1,0.1-0.2c0-0.1,0-0.1,0.1-0.1c0,0,0,0,0,0.1c0,0,0,0,0,0c0.1,0,0.1,0.1,0.2,0.1
					c0,0,0,0,0.1,0c0,0,0,0,0.1,0c0.1,0,0.1,0,0.2,0c0,0,0.1-0.1,0.1-0.1c0,0,0,0,0,0c0.1,0,0.1,0,0.2-0.1c0,0,0,0,0,0
					c0.1,0,0.2,0,0.3-0.1c0.1,0,0.1,0,0.2,0c0,0,0.1,0,0.1,0c0.1,0.1,0.1,0.1,0.2,0c0,0,0.1,0,0.1,0c0.1,0,0.1,0,0.2,0
					c0.1,0,0.1,0,0.2-0.1c0,0,0.1,0,0.2,0c0,0.1,0.1,0.2,0,0.3c0,0,0.1,0,0.1,0c0,0.1,0,0.2-0.1,0.3c0,0,0,0,0,0.1
					c0.1,0.1,0.2,0.1,0.2,0.2c0,0,0.1,0,0.1,0c0,0,0.1,0,0.1,0c0,0,0,0,0,0c0.1,0,0.1,0.1,0.2,0.1c0,0,0.1,0,0.1,0c0,0,0,0.1,0,0.1
					c0.1,0.1,0.2,0.2,0.3,0.1c0.1,0,0.1,0,0.1,0.1c0.1,0.1,0.1,0.1,0.2,0.1c0,0,0,0,0.1,0c0-0.1,0-0.2,0-0.3c0-0.1,0-0.1,0.1-0.1
					c0,0,0.1,0,0.1,0c0,0,0.1,0,0.1,0c0,0,0.1,0.1,0.1,0.1c0,0,0.1,0.1,0.1,0.1c0,0,0.1,0,0.1,0.1c0,0.1,0.1,0,0.1,0
					c0.1,0,0.2,0,0.3,0.1c0,0,0.1,0,0.1,0c0,0,0.1,0,0.1,0c0.1,0,0.1,0,0.2,0c0,0,0.1-0.1,0.1-0.1c0,0,0.1,0,0.1,0
					c0.1,0.1,0.2,0.1,0.4,0.1c0,0,0.1-0.1,0.1-0.2c0-0.1,0-0.2,0.1-0.3c0-0.1,0-0.2,0-0.3c0,0,0.1,0,0.1,0c0,0,0,0,0,0
					c0,0,0,0-0.1,0C28,14.2,28,14.1,28,13.9c-0.1,0-0.1,0-0.2-0.1c0,0,0,0,0,0c0,0.1-0.1,0.1-0.2,0.1c-0.1,0-0.1,0-0.1-0.1
					c-0.1-0.1-0.1-0.1-0.2-0.1c0,0,0,0,0,0.1c0,0.1-0.1,0.1-0.2,0c0,0-0.1,0-0.1-0.1c0,0-0.1-0.1-0.1-0.1c0,0-0.1,0-0.1,0
					c0-0.1-0.1-0.2,0-0.4c0,0,0-0.1-0.1-0.2c0,0,0-0.1,0-0.1c0,0,0,0,0.1-0.1c0,0,0.1,0,0.1,0.1c0-0.1,0.1-0.1,0.1-0.1
					c0.1,0,0.1,0,0.1-0.1c0,0,0,0-0.1-0.1c0,0,0.1,0,0.1,0c0.1,0.1,0.1,0.1,0.2,0c0,0,0.1-0.1,0.1-0.1c0.1,0,0.1,0,0.2-0.1
					c0,0,0.1,0,0.1,0c0,0,0,0,0,0c0.1,0,0.2,0.1,0.3,0.1c0.2,0.1,0.3,0,0.5,0c0.1,0,0.1-0.1,0.2-0.1c0,0,0-0.1,0-0.1
					c0-0.1-0.1-0.1-0.1-0.2c0,0-0.1-0.1-0.2-0.1c0,0,0,0,0,0c0-0.1-0.1-0.1-0.1-0.1c-0.1,0-0.1-0.1-0.2-0.1c0,0,0,0-0.1,0
					c0-0.1,0-0.1,0.1-0.2c0,0,0,0,0,0c0.1-0.2,0.1-0.2,0.2-0.3c-0.1,0-0.2,0-0.3,0c0,0,0,0-0.1,0c0,0,0,0-0.1,0c0,0,0,0,0,0
					c-0.1,0-0.1,0.1-0.2,0.1c0,0,0,0.1,0,0.1c0.1,0.1,0.1,0.1,0.1,0.2c-0.1,0-0.1,0.1-0.2,0.1c0-0.1-0.1-0.1-0.1-0.2
					c-0.1-0.1-0.1-0.1,0-0.1c0,0,0,0,0,0h-0.2c0,0,0-0.1,0-0.1h-0.1c0,0.1-0.1,0.1-0.1,0.2c-0.1,0,0,0.1-0.1,0.2c0,0,0,0-0.1-0.1
					c0,0.1,0,0.2-0.1,0.3c0,0,0,0.1-0.1,0.1c-0.1,0-0.1,0.1,0,0.2c0.1,0.1,0,0.1,0,0.2c0,0,0.1,0,0.1,0.1c-0.1,0-0.2,0.1-0.3,0.1
					c0,0-0.1,0-0.1,0c-0.1-0.1-0.2,0-0.2,0c0,0,0,0.1-0.1,0.1c-0.1,0.1-0.1-0.1-0.2-0.1c0,0.1,0,0.1,0.1,0.2c-0.1,0.1,0,0.1,0,0.2
					c0,0,0.1,0.1,0.1,0.1c0,0,0,0.1,0,0.1c0,0-0.1,0-0.1-0.1c0,0.1,0,0.1,0,0.1c0,0.1,0,0.1,0,0.2c-0.1,0-0.1,0-0.2-0.1
					c0,0,0-0.1-0.1-0.1c0,0,0-0.1,0.1-0.1c-0.1-0.1-0.1-0.1-0.1-0.2c0,0,0,0,0,0c-0.1,0-0.1-0.1-0.1-0.2c0,0,0,0,0-0.1
					c0,0,0-0.1,0-0.1c0,0,0,0,0,0c0-0.3-0.1-0.4-0.2-0.5c-0.1,0-0.1-0.1-0.2-0.2c-0.1,0-0.1,0-0.2-0.1c0,0,0-0.1,0-0.1
					c0,0,0-0.1,0-0.1c-0.1-0.1-0.1-0.1-0.1,0c0,0,0,0,0,0h0c0-0.1,0-0.1-0.1-0.2c0,0-0.1,0-0.1,0.1c0,0.1,0,0.1,0,0.2
					c0.1,0.1,0.1,0.2,0.2,0.3c0,0.1,0.1,0.2,0.2,0.2c0.1,0.1,0.1,0.1,0.2,0.2c0,0,0,0,0,0.1c0.1,0,0.2,0.1,0.3,0.2c0,0-0.1,0-0.1,0
					c0,0,0,0,0,0c0,0.1,0,0.1,0,0.2c0.1,0.1,0.1,0.1,0,0.1c0,0,0,0.1-0.1,0.1h-0.1c0,0,0,0,0,0c0-0.1,0.1-0.1,0-0.2
					c0,0,0-0.1-0.1-0.2c0,0-0.1,0-0.1,0c0,0,0-0.1,0-0.1c0,0-0.1,0-0.1-0.1c0,0-0.1-0.1-0.1-0.1c0,0,0,0-0.1,0
					c-0.1-0.1-0.2-0.2-0.3-0.3c-0.1-0.1-0.1-0.1-0.1-0.2c0-0.1,0-0.1-0.1-0.1c0,0-0.1-0.1-0.1-0.1c0,0-0.1,0.1-0.1,0.1
					c0,0.1-0.1,0-0.1,0.1c-0.1,0.1-0.1,0.1-0.2,0.1c0,0-0.1,0-0.1,0c0,0-0.1,0-0.1-0.1c0,0,0,0-0.1,0.1c-0.1,0-0.1,0.1-0.1,0.2
					c0,0,0,0,0,0.1c0,0.1-0.1,0.2-0.2,0.2c-0.1,0-0.1,0-0.2,0.1c0,0,0,0,0,0c0,0.1-0.1,0.1-0.1,0.1c0,0,0,0.1,0,0.1
					c0,0.1,0,0.1,0,0.2c0,0,0,0.1,0,0.1c0,0-0.1,0-0.1,0c0,0.1,0,0.1-0.1,0.2c-0.1,0-0.1,0-0.2,0.1c0,0-0.1,0.1-0.1,0.1
					c-0.1,0-0.1,0-0.2,0c-0.1,0-0.1,0-0.2,0.1c0,0-0.1,0-0.1,0c0-0.1,0-0.2-0.1-0.2h-0.3c0,0,0-0.1,0-0.1c0-0.1,0-0.2,0-0.2
					c-0.1-0.1-0.1-0.1,0-0.2c0,0,0.1-0.1,0-0.2c0,0,0-0.1,0-0.1c0,0,0-0.1,0-0.1c0-0.1,0-0.1,0-0.2c0,0,0-0.1,0-0.1
					c0-0.1,0-0.1,0-0.2c0,0,0.1,0,0.1-0.1c0,0,0.1,0,0.1,0.1c0,0,0,0,0-0.1c0,0,0.1,0.1,0.1,0.1c0.2,0,0.4,0,0.6,0c0,0,0,0,0,0
					c0.1-0.1,0.1-0.2,0.1-0.4c0,0,0,0,0-0.1c0-0.1,0-0.2,0-0.2c0,0-0.1-0.1-0.1-0.1c0,0,0-0.1-0.1-0.1c-0.1,0-0.1-0.1-0.2-0.1
					c-0.1,0-0.1-0.1-0.1-0.2c0,0,0.1,0,0.1-0.1c0,0,0,0,0,0c0.1,0.1,0.2,0,0.2,0c0-0.1,0-0.1,0-0.2c0.1,0,0.1,0,0.2,0.1
					c0-0.1,0.1-0.1,0.2-0.2c0,0,0-0.1,0-0.2c0.1,0,0.2-0.1,0.3-0.1c0.1-0.1,0.1-0.2,0.1-0.2c0,0,0.1-0.1,0.1-0.1
					c0.1-0.1,0.1-0.1,0.2-0.1c0,0,0,0,0,0c0-0.1,0.1-0.1,0.2-0.1c0-0.1,0-0.2,0-0.3c0-0.1-0.1-0.2-0.1-0.2c0.1-0.1,0.1-0.1,0.1-0.2
					c0,0,0.1-0.1,0.1-0.1c0,0,0,0,0.1,0c-0.1,0.1,0,0.3-0.1,0.4v0c0.1,0,0.1,0,0.1,0.1l-0.1,0v0h0v0.1c0.1,0,0.1,0,0.1,0.1
					c0.1,0.1,0.2,0,0.2-0.1c0.1,0,0.1,0,0.1,0c0,0,0,0,0.1,0c0,0,0,0.1,0,0.1c0,0,0.1,0,0.1,0c0,0,0.1-0.1,0.1-0.1
					c0.1,0,0.1-0.1,0.2-0.1c0.1,0,0.1-0.1,0.1,0c0,0,0,0,0,0c0,0.1,0.1,0,0.1,0c0,0,0,0,0-0.1c0.1-0.1,0.1-0.1,0.2,0
					c0-0.1,0-0.2,0-0.3c0,0,0-0.1,0-0.1c0.1-0.1,0-0.1,0-0.2c0.1,0,0.2,0,0.2,0.1c0,0.1,0.1,0.1,0.1,0V9.3c0,0-0.1,0-0.1,0V9.1
					c0,0,0.1,0,0.1,0c0.1,0,0.1,0,0.2,0c0.1,0,0.1,0,0.2,0c0,0,0.1,0,0.1,0C26.6,9,26.7,9,26.8,9c0,0-0.1,0-0.1,0c0,0-0.1,0-0.1,0
					c0,0,0-0.1,0-0.1c0,0,0,0,0,0c0,0-0.1,0-0.1,0c-0.1,0-0.1,0-0.2,0c0,0-0.1,0-0.1,0.1c0,0,0,0,0,0C26.1,9,26,9,25.9,9
					c0,0-0.1,0-0.1,0c0,0-0.1-0.1-0.1-0.2c0,0,0-0.1,0-0.1c0-0.1,0-0.1,0-0.2c0,0,0-0.1,0-0.1c0,0,0.1-0.1,0.1-0.1
					c0,0,0.1-0.1,0.1-0.1c0,0,0-0.1,0.1-0.1c0,0,0.1,0,0.1-0.1c-0.1-0.2-0.3-0.2-0.5-0.1c0,0.1-0.1,0.1-0.1,0.2c0,0,0,0.1-0.1,0.1
					c-0.1,0-0.2,0.1-0.2,0.2c0,0-0.1,0-0.1,0.1c0,0.1,0,0.2,0,0.2c0,0.1,0,0.1,0.1,0.1c0.1,0,0.1,0.1,0.2,0.1c0,0.1-0.1,0.1-0.1,0.2
					c0,0.1-0.1,0.1-0.2,0.1v0.4C25.1,9.7,25,9.8,25,9.8c-0.1,0-0.1,0-0.1,0.1c0,0.1-0.1,0-0.1,0c0,0,0-0.1,0-0.1c0-0.1,0-0.1,0-0.2
					c-0.1-0.1-0.1-0.2-0.1-0.3c0-0.1-0.1-0.1-0.1-0.2c0,0.1,0,0.1,0,0.1c-0.1,0-0.1,0-0.2,0.1c0,0.1-0.2,0.1-0.3,0
					c0,0-0.1,0-0.1-0.1c0,0,0-0.1,0-0.1c0,0,0,0,0-0.1c0,0,0-0.1,0-0.1c0,0,0,0,0,0c0-0.1,0-0.1-0.1-0.2c0,0,0,0,0,0
					c0-0.1,0-0.1,0-0.2c0.1,0,0.1,0,0.2-0.1c0,0,0,0,0.1,0c0,0,0,0,0.1,0c0.1-0.1,0.2-0.1,0.3-0.1c0-0.2,0.1-0.3,0.3-0.3
					c0-0.1,0.1-0.2,0.1-0.3c0.1-0.1,0.1-0.2,0.2-0.2c0,0,0-0.1,0-0.1c0.1,0,0.1-0.1,0.2-0.1c0,0,0,0,0,0c0,0,0-0.1,0.1-0.1
					c0,0,0.1-0.1,0.1-0.1c0,0,0-0.1,0-0.2c0,0.1,0.1,0.1,0.1,0.1c0,0,0.1,0,0.1,0C25.6,7,25.6,7,25.7,7c0,0,0,0,0.1,0
					c0-0.1,0.1-0.1,0.1-0.2C26,6.9,26,6.9,26,7C26,7,26.1,6.9,26.1,7c0.1,0,0.1-0.1,0.2-0.1c0,0,0,0.1,0,0.1c0.1-0.1,0.1-0.1,0.2,0
					c0,0.1,0,0.1,0,0.2c0.1,0,0.1,0,0.2,0c0.1,0,0.1,0.1,0.2,0.1c0,0,0.1,0,0.1,0c0,0,0,0,0,0c0.1,0,0.2,0,0.3,0.1
					c0.1,0,0.1,0.1,0.2,0.1c0,0,0,0,0,0c0.1,0,0.2,0.1,0.3,0.2c-0.1,0.1-0.1,0.2-0.2,0.2c-0.1,0-0.1,0-0.2,0c-0.1,0-0.1,0-0.2,0
					c0,0,0,0,0,0c-0.1,0-0.2-0.1-0.3-0.1c0,0,0,0-0.1,0c0,0.1,0.1,0.1,0.2,0.2c0.1,0,0.1,0,0.1,0.1c0,0,0,0,0,0
					c0,0.1,0.1,0.1,0.1,0.2c0,0.1,0.1,0,0.1,0.1c0,0.1,0.1,0.1,0.2,0.1c0,0,0-0.1,0-0.1c-0.1,0-0.2,0-0.2-0.2
					c0.1,0.1,0.3,0.1,0.4,0.1c0,0-0.1-0.1-0.1-0.1c0-0.1,0.1-0.1,0.1-0.1c0,0,0,0,0.1-0.1c0.1-0.1,0.1-0.1,0.2,0c0,0,0.1,0,0.1,0
					c0-0.1,0-0.1,0-0.1c0,0-0.1,0-0.1,0V7.4h0.2c0,0.1,0,0.1-0.1,0.1c0,0.1,0,0.1,0.1,0.1c0.1,0,0.1,0,0.2,0c0,0,0-0.1,0-0.1
					c0,0,0.1-0.1,0.1-0.1c0,0,0.1,0,0.1-0.1c0,0,0.1-0.1,0.1,0c0.1,0,0.2,0,0.2-0.1c0,0,0,0.1,0,0.2c0.1,0,0.1-0.1,0.2,0
					c0,0,0.1,0,0.1-0.1c0-0.1,0.1-0.1,0.1,0c0,0,0.1,0,0.1,0c0.1-0.1,0.1-0.1,0.2,0c0.1,0.1,0.2,0,0.2-0.1c0,0-0.1,0-0.1,0
					c0,0,0-0.1,0.1-0.1c0,0,0.1,0,0.1,0c0,0,0.1,0,0.1,0c0.1,0,0.1,0,0.2,0c0.1,0,0.2,0,0.2,0.1c0.1,0,0.2,0.1,0.3,0.2
					c0,0,0-0.1,0-0.1c0,0,0,0,0-0.1c0,0-0.1,0-0.1,0c0,0,0-0.1,0-0.1c-0.1,0-0.1,0-0.2,0c0-0.1,0-0.2-0.1-0.3
					c0.1-0.1,0.1-0.2,0.1-0.3c0.2-0.1,0.3,0,0.5,0.1c0,0.1,0,0.1-0.1,0.2c0.1,0,0.1,0.1,0.2,0.2c0,0.1,0.1,0.1,0.1,0.2
					c0.1,0,0.1,0.1,0.2,0.1c0,0.1,0,0.2,0,0.2c-0.1,0,0,0.2-0.1,0.2c0.1,0,0.2,0.1,0.3,0c0,0,0.1,0,0.1-0.1c0-0.1,0-0.1,0-0.2
					c0,0,0,0-0.1,0V7.3c0.1,0,0.1-0.1,0.2-0.1c-0.1-0.1-0.2-0.1-0.2,0c-0.1,0-0.1,0-0.1,0c0,0,0,0,0,0c-0.1-0.1-0.1-0.1,0-0.2
					c-0.1-0.1-0.1-0.1-0.2-0.2V6.7c0.1,0,0.1,0,0.2-0.1c0,0,0,0,0,0.1c0,0.1,0.1,0.1,0.1,0.1c0.1,0,0.1,0,0.2,0c0,0,0-0.1,0-0.1
					c0-0.1,0.1-0.1,0.1-0.1c0.1,0,0.1,0,0.2,0c0,0,0-0.1,0-0.1c0,0-0.1-0.1-0.1-0.2c0,0,0.1,0,0.1,0c0.1,0,0.2,0,0.2,0
					c0.1,0,0.2,0,0.3-0.1c0,0,0-0.1,0-0.1c0,0,0.1-0.1,0.1-0.1c0.1,0,0.2-0.1,0.4-0.1c0,0,0,0,0,0c0,0,0,0,0.1,0c0,0,0.1,0,0.1,0
					c0,0,0,0,0.1,0C33.1,6,33.2,6,33.3,6c0,0,0,0,0,0c0,0,0,0.1,0.1,0c0,0,0,0,0.1-0.1c0,0,0,0,0-0.1c0,0,0,0,0-0.1
					c0.1,0,0.1,0,0.2-0.1c0,0,0,0,0,0c0,0.1,0.1,0,0.2,0.1c0,0,0.1,0,0.1,0c0,0,0.1,0,0.1,0c0,0,0,0.1,0,0.1c0.1,0,0.1,0,0.1,0
					c0,0,0,0,0.1,0h0.2c0,0,0.1,0,0.1,0c0,0,0,0,0.1,0h0.1c0,0,0,0.1,0,0.1c0,0,0.1,0,0.1,0c0,0.1,0,0.1-0.1,0.2c0,0,0,0-0.1,0
					c0,0,0,0.1,0,0.1c-0.1,0-0.2,0.1-0.3,0.2c0,0,0.1,0,0.1,0c0-0.1,0.1-0.1,0.1,0c0.1,0,0.2-0.1,0.3-0.1c0,0,0,0,0,0
					c0.1,0.1,0.1,0.1,0.2,0c0,0,0.1,0,0.1,0c0.1,0,0.3,0,0.4,0c0.1,0,0.1,0,0.1,0.1c0,0,0,0,0.1,0c0.1,0,0.3,0,0.4,0
					c0-0.1,0-0.1,0-0.2c0,0,0.1,0,0.1,0c0.1,0,0.1,0,0.2,0c0,0,0,0,0,0c0.1-0.1,0.1,0,0.2,0c0.1,0,0.1,0.1,0.2,0.1c0,0,0,0.1,0,0.1
					c0,0,0,0,0,0c0.1,0,0.1,0.1,0.2,0.1c0,0,0,0,0.1,0c0.1,0,0.2,0.1,0.2,0.1c0,0,0.1,0,0.1-0.1c0,0,0-0.1,0-0.1c0,0,0.1,0,0.1,0
					c0.1,0,0.1,0,0.2,0c0.1-0.1,0.1,0,0.2,0c0,0,0.1,0,0.1,0c0,0,0.1,0,0.1-0.1c0,0,0-0.1-0.1-0.2h0.4c0,0,0,0,0,0
					c0.1,0.1,0.1,0,0.2,0c0,0.1,0,0.1,0,0.2c0,0,0.1,0,0.1,0c0-0.1,0.1-0.1,0.2-0.1c0,0,0.1,0,0.1,0c0,0,0,0.1,0,0.1
					c0.1,0,0.2,0.1,0.4,0.1c0.1,0,0.1,0.1,0.2,0.1c0,0,0.1,0,0.1,0c0-0.1,0.1,0,0.1,0c0.1,0,0.2,0,0.3,0c0.1,0,0.1,0,0.1,0
					c0,0,0,0,0,0c0.1,0,0.2,0,0.2,0.1c0,0,0,0.1,0,0.1c0,0,0,0,0,0c0.2,0,0.4,0,0.6,0c0,0,0.1,0,0.1,0c0,0,0.1,0,0.1,0
					c0,0,0,0,0.1-0.1c0.1,0.1,0.3,0.2,0.4,0.2c0-0.1,0-0.1-0.1-0.1c0,0-0.1-0.1-0.1-0.1c0,0,0.1,0,0.1,0c0.2,0,0.3,0,0.5,0
					c0,0,0,0,0.1,0c0,0.1,0.1,0.1,0.2,0.1c0,0,0.1,0,0.1,0c0,0,0,0,0,0c0.1,0,0.2,0,0.2,0c0.1,0,0.1,0,0.2,0.1c0,0,0.1,0,0.1,0
					c0,0,0.1,0,0.1,0c0,0,0,0,0.1,0c0,0,0.1,0,0.1,0c0,0,0,0,0.1,0c0,0,0.1,0,0.1,0.1c0,0,0,0,0,0c0.1,0,0.2,0.1,0.3,0.1
					c0,0,0.1,0.1,0.1,0.1c0,0,0,0,0.1,0c0.1-0.1,0.2-0.1,0.3,0c0,0,0,0,0,0c0.1,0,0.2,0,0.2,0.1v0.1c-0.1,0-0.1,0-0.1,0
					C44.9,8,45,8,45,8.1c0,0-0.1,0-0.1,0c0-0.1-0.1-0.1-0.2,0c-0.1,0-0.1-0.1-0.2-0.1c-0.1-0.1-0.2-0.1-0.4-0.1
					c-0.1,0-0.2,0-0.2-0.1c0,0-0.1,0-0.1,0c0.1,0,0.1,0.1,0.2,0.1v0.1c-0.1,0-0.1,0-0.2,0C44,8.1,44,8.2,44.1,8.2c0,0,0,0,0.1,0
					c0.1,0.1,0.2,0.1,0.3,0.1c0,0.1,0,0.1,0,0.1c0,0,0,0,0,0c-0.1,0-0.2,0.1-0.2,0.1c0,0-0.1,0-0.1,0.1c0,0.1-0.1,0.1-0.1,0.2
					c0,0,0,0.1-0.1,0.1c0,0-0.1,0-0.1,0c0-0.1-0.1-0.1-0.1-0.1c0,0-0.1,0-0.1,0c0,0.1-0.1,0-0.1,0.1c0,0.1-0.1,0-0.1-0.1
					c0,0-0.1,0.1-0.1,0.1c-0.1-0.1-0.1-0.1-0.2,0c0.1,0.1,0.1,0.1,0.1,0.2c0,0,0,0,0,0c0,0,0,0.1,0.1,0.1c0,0,0,0,0,0
					c0.2,0,0.2,0.2,0.3,0.3c0,0,0,0,0,0.1c0,0.1,0,0.1,0.1,0.2c0,0,0.1,0.1,0.1,0.1c0,0,0,0.1,0,0.1c0,0-0.1,0-0.1,0
					c0,0.1,0,0.1,0,0.2c0,0,0,0.1,0,0.1c0,0.1,0,0.1,0.1,0.1c0,0.1,0,0.2-0.1,0.3c0,0-0.1-0.1-0.1-0.2c0-0.1-0.1-0.1-0.2-0.1
					c-0.1,0-0.1-0.1-0.2-0.2c0,0-0.1-0.1-0.1-0.1c-0.1,0-0.1-0.1-0.1-0.1c0,0-0.1-0.1-0.1-0.1c0,0,0,0,0,0c-0.1,0-0.1-0.1-0.1-0.2
					c0,0,0-0.2,0-0.3c0,0,0.1-0.1,0.1-0.2c0-0.1,0-0.1,0-0.2c0,0,0-0.1,0-0.2c0,0,0.1,0,0.1,0c0-0.1-0.1-0.1-0.1-0.2c0,0,0,0,0,0
					c-0.1,0-0.1-0.1-0.1-0.1h-0.2c0.1,0.1,0.1,0.1,0.1,0.2c0,0.1-0.1,0.1-0.1,0.2c-0.1,0-0.2-0.1-0.2-0.2c0,0,0,0-0.1,0.1
					c-0.1,0-0.1-0.1-0.2,0c0,0-0.1,0-0.1,0c0,0,0,0.1,0,0.1c0,0,0,0.1,0,0.1c0,0.1,0,0.1,0,0.2c0,0,0,0.1,0,0.1
					c-0.1,0.1-0.2,0-0.2,0c-0.1,0-0.1,0-0.2,0c0,0-0.1,0-0.2,0c0,0,0,0-0.1,0.1h-0.7c0,0.2-0.1,0.3-0.1,0.5c0,0,0,0.1,0,0.2
					c-0.1,0.1-0.1,0.1-0.1,0.2c0.1,0.1,0.2,0.1,0.3,0.1c0,0,0,0.1,0,0.1c0.1,0,0.2,0.1,0.3,0.1c0-0.1,0-0.1,0-0.1
					c0.1,0,0.1,0,0.2,0.1c0.1,0.1,0.1,0.1,0.2,0.1c0,0.1,0.1,0.1,0.1,0.2c0,0,0,0.1,0.1,0.1c0,0.2,0.1,0.2,0.1,0.4
					c0,0.1,0.1,0.2,0.2,0.3c0,0,0,0.1,0,0.1c-0.1,0.1,0,0.2,0,0.2c0,0.1,0,0.1,0,0.2c0,0,0,0.1,0,0.1c0,0,0,0,0,0
					c0,0.1-0.1,0.2-0.1,0.3c0,0.1-0.1,0.2-0.2,0.2c-0.1,0-0.2-0.1-0.3-0.1c0,0,0,0.1,0,0.1c0,0-0.1,0-0.1,0c0,0.1,0,0.1,0,0.2
					c0,0,0.1,0.1,0.1,0.1c0,0.1,0,0.1-0.1,0.1c0,0.1-0.1,0.1-0.1,0.2c0,0,0,0.1,0,0.1c0.1,0.1,0.1,0.1,0.1,0.1
					c0,0.1,0.1,0.1,0.1,0.2c0,0,0.1,0,0.1,0.1c0,0,0.1,0.1,0.1,0.2c0,0,0,0.1,0,0.1c0.1,0.1,0.1,0.2,0.1,0.3c0,0,0,0,0,0
					c-0.1,0-0.2,0-0.3,0.1c0,0-0.1,0-0.1-0.1c0,0,0-0.1,0-0.1c0,0,0-0.1,0-0.1c0-0.1,0-0.1,0-0.2c-0.1-0.1-0.2-0.2-0.4-0.2
					c0-0.1,0-0.1,0-0.2c0-0.1,0-0.1,0-0.1c-0.1-0.1-0.2-0.1-0.3-0.1c-0.1,0-0.1,0.1-0.1,0.2c0,0,0,0-0.1,0c-0.1,0-0.1-0.1,0-0.1
					c0-0.1,0-0.1,0-0.2c0,0-0.1,0-0.1,0c0,0-0.1-0.1-0.1,0c0,0-0.1,0.1-0.1,0.1c0,0.1-0.1,0.1-0.1,0.2c0,0,0,0.1,0,0.1
					c0,0-0.1,0-0.1,0c0,0,0,0.1,0,0.1c0.1,0,0.2,0.1,0.3,0.1c0,0.1,0,0.1,0,0.2c0.1,0,0.1,0,0.2-0.1c0-0.1,0.1-0.1,0.1,0
					c0.1,0.1,0.1,0,0.2,0.1c0,0,0,0.1,0,0.1c-0.1,0-0.1,0.1-0.1,0.1c0,0,0,0,0,0c0,0.1-0.1,0.1-0.1,0.1c0,0.1,0,0.2-0.1,0.3
					c0,0.1,0.1,0.1,0.1,0.1c0.1,0,0.1,0,0.1,0.1c0,0.1,0,0.1,0.1,0.1c0,0,0.1,0.1,0.1,0.1c0,0,0,0.1,0.1,0.1c0,0,0.1,0,0.1,0.1
					c0,0,0,0.1,0.1,0.1c0,0,0,0,0,0.1c0,0.1,0,0.1,0,0.2c0,0,0,0.1-0.1,0.1c0.1,0,0.1,0,0.1,0c0,0,0.1,0,0.1,0.1v0.1
					c0,0.1,0,0.2,0,0.2c0,0-0.1,0.1-0.1,0.2c0,0,0,0.1-0.1,0.1c0,0,0.1,0.1,0,0.1c0,0,0,0.1,0,0.1c-0.1,0.1-0.1,0.1-0.1,0.2
					c0,0-0.1,0-0.1,0c0,0.1-0.1,0.1-0.1,0.2c0,0.1-0.1,0.1-0.1,0.2c0,0,0,0.1-0.1,0H40c0,0,0,0.1,0,0.1h-0.1c0,0,0-0.1,0-0.1h0
					c0,0,0,0.1,0,0.1c0,0,0,0,0,0c-0.1,0-0.1,0.1-0.2,0.1c-0.1,0-0.1,0-0.2,0.1c0,0,0,0.1,0,0.1c0,0,0,0.1,0,0.1c0,0,0,0-0.1,0
					c0-0.1-0.1-0.2-0.1-0.2c0,0-0.1-0.1-0.2-0.1c0,0-0.1,0.1-0.1,0.1c-0.1,0-0.1,0.1-0.2,0.2c0,0,0,0.1,0,0.1c0,0-0.1,0.1-0.1,0.2
					c0,0.1,0,0.1,0.1,0.2c0,0,0.1,0.1,0.1,0.2c0,0,0,0,0,0c0.1,0.1,0.1,0.2,0.3,0.3c0,0,0,0,0,0c0,0.1,0.1,0.1,0.1,0.2
					c0,0,0,0.1,0.1,0.1c0,0.1,0.1,0.2,0.1,0.3c0.1,0.1,0,0.1,0,0.2c0,0.2,0,0.3-0.2,0.4c0,0,0,0,0,0c0,0.1-0.1,0.1-0.2,0.1
					c0,0,0,0.1,0,0.1c0,0.1,0,0.1-0.1,0.1c-0.1,0-0.1,0.1-0.1,0.1c0,0-0.1,0-0.1,0c0-0.1,0-0.1,0-0.2c0,0,0-0.1,0-0.1
					c-0.1,0-0.1-0.1-0.1-0.1c0,0-0.1,0-0.1-0.2c0,0-0.1,0-0.1,0.1c0-0.1,0-0.1-0.1-0.2c0-0.1-0.1-0.1-0.1-0.1c0,0,0-0.1,0-0.1
					c-0.1,0.1-0.1,0.1-0.2,0c0,0,0,0,0-0.1c-0.1-0.1-0.1-0.1-0.2,0c0,0,0,0,0,0c0,0.1,0,0.1,0,0.2c0,0.1,0,0.1-0.1,0.2
					c0,0,0,0.1,0,0.1c0,0.1,0,0.3,0,0.4c0,0,0.1,0,0.1,0c0,0.1,0,0.1,0.1,0.1c0.1,0.1,0.1,0.1,0,0.2c0.1,0.1,0.1,0.2,0.2,0.2
					c0,0,0.1,0,0.1,0.1c0.1,0.1,0.1,0.2,0.2,0.2c0.1,0.1,0.1,0.2,0.1,0.3c0,0.1,0,0.1,0,0.2c0,0.1,0,0.2,0.1,0.3c0,0,0,0.1,0,0.2
					c0,0-0.1,0-0.1,0c-0.1-0.1-0.1-0.1-0.2-0.2c0,0,0,0,0,0c0-0.1,0-0.1-0.1-0.1c0-0.1,0-0.2-0.1-0.2c0,0-0.1-0.1,0-0.2
					c0,0,0-0.1,0-0.1c-0.1-0.1-0.1-0.1,0-0.1c-0.1-0.1-0.1-0.3-0.2-0.4c0-0.1-0.1-0.2-0.2-0.2v-0.5c0,0,0,0,0-0.1c0-0.1,0-0.1,0-0.2
					c0,0,0-0.1,0-0.2c0-0.2-0.1-0.3-0.1-0.4c0,0,0,0,0-0.1c0-0.1,0-0.1,0-0.1C37.6,18.4,37.6,18.3,37.5,18.3
					C37.5,18.2,37.5,18.3,37.5,18.3z"/>
				<path class="st9" d="M42.3,27.3c0,0.1,0,0.1,0,0.2c0.1,0.1,0,0.2-0.1,0.3c0,0-0.1,0.1-0.1,0.1c0,0.1,0,0.1-0.1,0.2c0,0,0,0,0,0
					c0,0.1,0,0.2-0.1,0.2c0,0-0.1,0.1-0.1,0.2c0,0.1-0.1,0.1-0.2,0.2c0,0-0.1,0.1-0.1,0.1c0,0,0,0,0,0c-0.1,0-0.1,0.1-0.2,0.2
					c-0.1,0-0.1,0.1-0.2,0.2c-0.1,0.1-0.1,0.2-0.2,0.4c-0.1,0-0.2,0.1-0.3,0.1c-0.1,0-0.1,0-0.2,0.1c-0.1,0-0.1,0.1-0.2,0.1
					c0,0-0.1,0-0.1,0c0-0.1,0-0.1-0.1-0.2c-0.1,0-0.1,0.1-0.2,0.1c-0.1,0-0.1,0-0.2,0c0,0,0,0,0,0c-0.1,0-0.2-0.1-0.2-0.1v-0.2
					c0,0,0,0,0-0.1c0.1-0.1,0-0.1,0-0.2c0,0,0,0,0.1-0.1c0,0-0.1,0-0.1,0c0-0.1,0-0.1,0.1-0.2c0,0-0.1,0-0.1,0c0,0,0-0.1,0.1-0.1
					c0,0,0,0,0,0c0-0.1,0.1-0.1,0-0.2c-0.1,0.2-0.3,0.3-0.5,0.5c0,0,0-0.1,0-0.1c0,0,0-0.1,0-0.1c0,0,0-0.1-0.1-0.1c0,0,0-0.1,0-0.1
					c0,0-0.1-0.1-0.1-0.1c-0.1,0-0.2,0-0.2-0.1c0,0-0.1,0-0.1,0c0,0-0.1,0-0.1,0c-0.1,0-0.2,0-0.2,0.1c-0.1,0.1-0.1,0-0.2,0.1h0
					c-0.1,0-0.2,0-0.3,0.1c-0.1,0-0.1,0.1-0.2,0.1c0,0-0.1,0-0.1,0.1c0,0.1-0.1,0.1-0.2,0.1c-0.1,0-0.2,0-0.3,0
					c-0.1,0-0.2,0.1-0.3,0.1c-0.1,0.1-0.2,0.1-0.2,0.2c-0.1,0-0.1,0-0.2,0c-0.1,0-0.1-0.1-0.2-0.2c0,0,0-0.1,0.1-0.2c0,0,0,0,0.1,0
					c0-0.1,0-0.3,0.1-0.4c0,0,0-0.1,0-0.1c-0.1-0.2,0-0.2,0-0.4c0,0,0-0.1,0-0.1c0,0,0-0.1,0-0.1c0-0.1,0-0.1,0-0.2c0,0,0-0.1,0-0.1
					c0,0,0,0,0-0.1c0,0,0,0,0,0c0.1,0,0.1-0.1,0.1-0.2c0-0.1-0.1-0.2-0.1-0.2c0-0.1,0-0.2,0-0.2c0,0,0-0.1,0-0.1v-0.2
					c0,0,0.1,0,0.1,0.1c0,0,0,0,0,0c0.1-0.1,0.1-0.2,0.2-0.2c0,0,0.1-0.1,0.1-0.1c0-0.1,0.1-0.1,0.1-0.1c0.1,0,0.2,0,0.3-0.1
					c0,0,0,0,0,0c0.1,0,0.2-0.1,0.3-0.1c0,0,0.1-0.1,0.1-0.1c0-0.1,0.1-0.1,0.1-0.2c0.1-0.1,0.1-0.1,0.1-0.3c0-0.1,0-0.1,0.1-0.1
					c0,0,0.1,0,0.1,0c0,0,0,0,0.1,0.1c0,0,0.1,0,0.1-0.1c0,0-0.1-0.1-0.1-0.1c0,0,0.1,0,0.1,0c0-0.1,0-0.2,0.1-0.3c0,0,0-0.1,0-0.1
					c0.1,0,0.2-0.1,0.3-0.1c0.1,0,0.1,0,0.1,0.1c0,0,0,0.1,0,0.1c0,0,0.1,0,0.1,0c0,0,0.1,0,0.1,0c0-0.1,0-0.1,0-0.2
					c0,0,0.1,0,0.1,0c0-0.1,0-0.1,0.1-0.2c0-0.1,0.1-0.1,0.2-0.1c0,0,0,0,0.1,0c0.1,0,0.1,0,0.2-0.2c0.1,0,0.2,0.1,0.3,0.1
					c0,0,0.1,0.1,0.1,0c0,0,0,0,0,0c0.1,0,0.1,0,0.2,0.1c0,0.1,0,0.1-0.1,0.2c-0.1,0-0.1,0.1-0.1,0.1c0,0.1,0,0.2-0.1,0.3
					c0.1,0.1,0.1,0.2,0.2,0.2c0,0,0,0.1,0.1,0.1c0.1,0.1,0.1,0.2,0.2,0.1c0,0.2,0.1,0.2,0.2,0.2c0.1,0,0.1,0,0.1-0.1
					c0,0,0-0.1,0-0.1c0,0,0-0.1,0-0.1c0-0.1,0-0.2,0-0.2c0.1-0.1,0-0.2,0-0.3c0-0.1,0-0.1,0-0.2c0,0,0-0.1,0-0.1
					c0-0.1,0-0.1,0.1-0.2c0.1,0,0-0.1,0-0.2c0,0,0,0,0.1,0c0,0.1,0.1,0.2,0.1,0.3c0,0,0,0,0,0.1c0,0,0.1,0.1,0,0.1c0,0,0,0.1,0,0.1
					c0,0,0,0.1,0.1,0.1c0,0,0.1,0,0.1,0c0.1,0.1,0.1,0.1,0.1,0.2c0,0.1,0,0.1,0,0.2c0,0,0,0,0,0.1c0,0.1,0.1,0.1,0,0.2
					c0,0.1,0,0.2,0,0.3c0,0,0.1,0.1,0.1,0.1c0,0,0,0,0,0c0,0.1,0.1,0.1,0.2,0.2c0,0.1,0,0.1,0,0.1c0,0.1,0.1,0.1,0.1,0.2
					c0,0.1,0,0.1,0,0.2c0,0,0.1,0,0.1,0c0,0.2,0,0.2,0.1,0.3c0,0,0,0.2,0.1,0.2c0,0.1,0,0.1,0,0.2C42.3,27.2,42.3,27.3,42.3,27.3z"
					/>
				<path class="st9" d="M17.4,23.2c0,0.1,0.1,0.2,0.1,0.4c0,0,0,0.1,0,0.1c0,0.1,0,0.1,0,0.2c0,0.1-0.1,0.1-0.1,0.1
					c0,0,0,0.1-0.1,0.1c0,0,0,0,0,0c-0.1,0-0.1,0.2-0.2,0.3c0,0.1-0.1,0.2-0.1,0.3c0,0-0.1,0-0.1,0c0,0.2,0,0.4,0,0.5c0,0,0,0,0,0.1
					c0,0,0,0.1,0,0.1c-0.1,0.1,0,0.2,0,0.2c0,0.1-0.1,0.2-0.1,0.3c0,0,0,0,0,0c0.1,0.1,0.1,0.1,0,0.2c0,0-0.1,0.1-0.1,0.1
					c0,0.1,0,0.1-0.1,0.2c0,0.1,0,0.1,0,0.2c-0.1,0-0.1,0.1-0.2,0.1c0,0-0.1,0.1-0.1,0.1c-0.1,0.1-0.2,0-0.2,0.1c0,0-0.1,0-0.1,0.1
					c0,0.1-0.1,0.1-0.1,0.1c-0.1,0-0.1,0-0.2,0.1c0,0-0.1,0.1-0.1,0.1c-0.1,0-0.1,0.1-0.1,0.2c0,0.1,0,0.2,0,0.2c0,0,0,0.1,0,0.1
					c0,0,0,0.1,0,0.1c-0.1,0.1,0,0.2,0,0.2c0,0,0,0-0.1,0c0,0.1,0,0.2-0.1,0.3c0,0-0.1,0-0.1,0c0,0.1,0,0.1-0.1,0.1
					c0,0.1,0,0.2-0.1,0.3c0,0.1,0,0.2-0.1,0.4c0,0.1,0,0.1-0.1,0.2c0,0,0,0,0,0c-0.1,0-0.2,0-0.3,0c-0.1,0-0.2-0.1-0.3-0.1
					c0,0,0,0,0,0c0,0.1,0,0.1,0.1,0.2c0,0.1,0.1,0,0.2,0.1c0,0,0,0.1,0,0.1c-0.1,0,0,0.1,0,0.1c0,0.1,0,0.1,0.1,0.1
					c0,0,0.1,0,0.1,0.1c0,0.1-0.1,0.2-0.1,0.3c-0.1,0-0.1,0.1-0.2,0.1c-0.1,0.1-0.3,0-0.4,0.1c0,0,0,0,0,0c0,0,0,0.1,0.1,0.1
					c0,0,0,0.1,0,0.1c0,0.1,0,0.1,0,0.1c0,0,0,0.1,0,0.1c-0.1,0-0.2,0-0.4-0.1c0,0.1,0,0.2,0.1,0.3c0,0,0.1,0.1,0.1,0.1
					c0,0,0,0-0.1,0c0,0.1,0.1,0.1,0,0.2c0,0,0,0.1,0,0.1c0,0.1,0.1,0.1,0,0.2c0,0.1-0.1,0.1-0.1,0.1c0,0,0,0.1-0.1,0.1
					c0,0,0,0.1,0,0.1c0,0,0.1,0.1,0.1,0.1c0,0.1,0.1,0.1,0.1,0.1c0,0,0.1,0,0.1,0.1v0.2c-0.1,0.1-0.1,0.1-0.1,0.2
					c0,0.1,0,0.1-0.1,0.2c-0.1,0.1,0,0.2,0.1,0.3c0,0,0,0.1,0,0.1c-0.1,0-0.1,0.1-0.2,0.1c0,0-0.1,0-0.1,0c-0.1-0.1-0.2,0-0.3-0.1
					c0,0,0-0.1,0-0.1c-0.1,0-0.2-0.2-0.2-0.2c-0.1-0.1-0.1-0.2-0.1-0.3c-0.1,0,0,0.1-0.1,0.1c0,0,0,0-0.1,0c0,0,0,0-0.1,0.1
					c0-0.1,0-0.1,0-0.2c0,0-0.1,0-0.1,0v-0.1c0,0,0.1,0,0.1,0c-0.1-0.1-0.1-0.1-0.1-0.2c-0.1,0-0.1-0.1-0.2-0.1v-0.2
					c0,0,0.1,0.1,0.1,0.1c0-0.1,0-0.2,0-0.3c0,0,0,0,0-0.1c0,0,0,0,0,0c-0.1-0.1,0-0.2,0-0.3c-0.1-0.1,0-0.2,0-0.3
					c-0.1,0-0.1,0-0.1,0.1c0.1,0.1,0,0.2,0,0.3c0,0-0.1-0.1-0.1-0.1c0,0,0-0.1,0-0.2c0,0,0-0.1,0-0.2c0,0,0,0,0-0.1c0,0,0-0.1,0-0.1
					c0-0.1,0-0.1,0-0.2c0,0,0,0,0-0.1c-0.1-0.1,0-0.3-0.1-0.4c0,0-0.1-0.1,0-0.1c0,0,0-0.1,0-0.1c0-0.1,0-0.2,0-0.3c0,0,0-0.1,0-0.1
					v-0.4c0-0.1,0-0.2,0-0.2c-0.1-0.1,0-0.2-0.1-0.3c0,0,0-0.1,0-0.1c0-0.1,0-0.1,0-0.2c0,0,0-0.1,0-0.1c0-0.2,0-0.3,0-0.5
					c0,0,0-0.1,0-0.1c-0.1-0.1-0.1-0.1,0-0.2c0-0.1,0-0.1,0-0.2c0-0.1,0-0.2,0-0.3c0,0,0-0.1,0-0.1c0.1-0.1,0-0.1,0-0.2
					c0-0.1,0-0.2,0-0.2c0,0,0-0.1,0-0.1c0-0.1,0-0.2,0-0.3c0-0.1,0-0.2,0-0.2c-0.1-0.1-0.2-0.2-0.2-0.2c-0.1-0.1-0.1-0.1-0.2-0.2
					c-0.1,0-0.1-0.1-0.2-0.1c-0.2-0.1-0.3-0.3-0.4-0.4c0,0,0,0,0-0.1c0-0.1,0-0.3-0.1-0.3c0,0,0,0,0,0c0-0.1-0.1-0.2-0.1-0.3
					c0,0,0,0,0-0.1c0,0-0.1-0.1-0.1-0.2c0-0.1-0.1-0.2-0.1-0.3c-0.1-0.1-0.2-0.2-0.2-0.4c0,0,0-0.1-0.1-0.1c0,0-0.1,0-0.1-0.1
					c0-0.1-0.1-0.3-0.1-0.4c0,0,0,0,0-0.1c0,0,0.1-0.1,0.1-0.1c0-0.1,0.1-0.1,0.1-0.2c-0.1,0-0.1,0-0.2,0c0-0.2,0-0.3,0-0.5
					c0-0.1,0.1-0.1,0.1-0.2c0,0,0-0.1,0.1-0.1c0.1-0.1,0.1-0.1,0.1-0.2c0,0,0-0.1,0-0.1c0,0,0,0,0.1,0c0,0,0,0,0.1,0
					c0-0.1,0-0.2,0.1-0.2c0.1-0.1,0-0.1,0-0.1c0-0.1,0-0.1,0-0.2c0-0.1,0-0.2,0-0.2c0-0.1,0-0.2-0.1-0.3c-0.1-0.1-0.1-0.2,0-0.3
					c0,0-0.1-0.1-0.1-0.1c-0.1-0.1-0.1-0.1-0.2,0c0,0.1-0.1,0.1-0.1,0.1c0,0.1,0.1,0.1,0,0.2c0,0-0.1,0.1-0.1,0.1
					c0-0.1,0-0.2-0.1-0.1c0,0,0-0.1,0-0.1h-0.2c-0.1-0.2-0.2-0.3-0.3-0.4c0,0-0.1,0-0.1,0.1c0-0.1,0-0.1,0-0.2c0,0,0-0.1,0-0.1
					c-0.1-0.1-0.2-0.2-0.2-0.3c0,0,0,0,0,0c0,0,0-0.1,0-0.1c0,0,0,0-0.1,0c0,0.1-0.1,0.1-0.1,0c-0.1,0-0.2-0.2-0.4-0.1
					c-0.1-0.1-0.2-0.2-0.3-0.4c0-0.1-0.1-0.1-0.2-0.2c0,0,0,0,0,0c0,0.1-0.1,0.1-0.2,0.1c-0.1,0-0.1,0.1-0.2,0c0,0,0,0,0,0
					c-0.1,0-0.2-0.1-0.3-0.1c-0.1,0-0.2-0.1-0.3-0.2c0,0,0-0.1,0-0.1c0,0,0,0,0,0c-0.1,0-0.1,0-0.2-0.1c0,0,0,0,0,0
					c0-0.1,0-0.1-0.1-0.1c-0.1,0-0.1-0.1-0.2-0.2c0,0,0-0.1,0-0.1c0,0,0-0.1,0.1-0.1c0,0,0,0,0-0.1c0-0.1,0.1-0.1,0-0.2
					c0,0,0-0.1,0-0.2c0-0.1,0-0.1,0-0.1c0,0-0.1-0.1-0.1-0.2c0-0.1-0.1-0.1-0.1-0.2c0,0,0,0,0-0.1c0,0-0.1-0.1-0.1-0.1
					c-0.1,0-0.1-0.1,0-0.2c0-0.1,0-0.1,0-0.1c0,0,0-0.1-0.1-0.1c0,0,0,0-0.1-0.1c0,0,0,0,0-0.1c-0.1-0.1-0.1-0.3-0.1-0.5
					c0-0.1,0-0.1,0-0.2c0-0.1,0-0.1-0.1-0.2c0,0-0.1,0-0.1,0c0,0.1,0,0.1-0.1,0.2c0,0.1,0,0.2,0.1,0.3c0,0,0.1,0.1,0.1,0.2
					c0,0.2,0.1,0.3,0.1,0.4c0,0,0,0,0,0.1c0,0.2,0.1,0.3,0.1,0.5c0.1,0,0.1,0.1,0.1,0.2c0,0,0,0,0,0.1c0,0-0.1,0-0.1,0
					c0-0.1-0.1-0.2-0.2-0.3c0-0.1-0.1-0.1-0.1-0.2c0-0.1,0-0.1,0-0.2C6,16.1,6,16.1,5.9,16c0,0-0.1-0.1-0.1-0.2c0,0,0,0,0.1,0
					c0.1,0,0.1-0.1,0.1-0.2c0-0.1-0.1-0.2-0.2-0.3c0,0,0.1,0,0-0.1c0,0,0-0.1,0-0.1v-0.5c0-0.1-0.1-0.2-0.1-0.2c0,0,0,0-0.1,0
					c-0.1-0.1-0.1-0.1-0.2-0.1c0,0,0-0.1,0-0.1c0-0.1,0-0.1,0-0.2c0,0,0-0.1,0-0.1c0-0.1,0-0.1,0-0.2c0,0,0-0.1,0-0.1
					c0,0,0.1-0.1,0-0.1c0,0,0,0-0.1,0c0-0.1,0-0.1-0.1-0.2c0,0,0-0.1,0.1-0.2c0,0,0,0,0,0c-0.1-0.1,0-0.1,0-0.2
					c0.1-0.1,0.1-0.2,0.1-0.3c0-0.1,0-0.2,0.1-0.2c0.1-0.1,0.1-0.2,0.2-0.3C5.9,12.2,5.9,12.1,6,12c0-0.1,0.1-0.1,0.1-0.1
					c0-0.1,0-0.3,0.1-0.4c0,0,0.1,0,0.1,0c0.1,0.1,0.1,0.1,0.2,0c0.1-0.1,0.1-0.1,0.1-0.3c0,0-0.1-0.1-0.1-0.1c0,0-0.1,0-0.1-0.1
					c0,0,0,0,0,0.1c0,0,0,0.1,0,0.1c0.1,0.1,0.1,0.1,0,0.2c-0.1,0-0.1,0-0.1,0c-0.1,0-0.1-0.1-0.1-0.1c0,0-0.1,0-0.1,0
					c0,0,0,0,0-0.1C6,11.1,6,11,6,10.9c0.1,0,0.1,0,0.1,0c0,0,0.1,0,0.1,0c0,0,0,0,0,0c0,0-0.1,0-0.1,0c0-0.1,0.1-0.2,0.1-0.3
					c0,0-0.1-0.1-0.1-0.2c0-0.1,0-0.1,0-0.2c0,0,0.1-0.1,0.1-0.1c0,0-0.1,0,0-0.1c0,0,0-0.1,0-0.1c0,0,0-0.1,0-0.1
					c0-0.1,0.1-0.2,0.1-0.3c0,0,0-0.1,0-0.1c0,0,0-0.1,0-0.1c-0.1-0.1,0-0.1,0-0.2c-0.1-0.1-0.1,0-0.1,0.1c0-0.1,0-0.1-0.1-0.1
					c0,0,0,0.1,0,0.1H6c0,0,0-0.1,0-0.1c0,0,0,0-0.1,0c0,0,0-0.1,0-0.1c0,0,0,0,0,0C5.8,9,5.8,9,5.7,9c-0.1,0-0.1,0-0.2,0
					c0-0.1-0.2-0.1-0.2-0.2c0,0-0.1,0-0.1,0C5,8.8,5,8.8,5,9c0,0-0.1,0-0.1,0C4.7,9,4.6,9,4.5,9.1c-0.1,0-0.1,0-0.1-0.1
					C4.5,9,4.6,9,4.7,8.8c0,0-0.1,0-0.1,0C4.5,8.9,4.4,9,4.3,9c0,0-0.1,0-0.1,0c-0.1,0-0.1,0.1-0.2,0.1C4,9.2,4,9.3,4,9.3
					c-0.1,0-0.1,0-0.2,0.1c0,0-0.1,0-0.1,0.1c0,0-0.1,0-0.1,0c0,0-0.1,0-0.2,0.1c-0.1,0-0.1,0.1-0.2,0.1c0,0-0.1,0-0.2,0
					c0,0,0-0.1,0-0.1c0.1,0,0.2,0,0.3-0.1c0.1-0.1,0.2-0.1,0.2-0.2c-0.1,0-0.1-0.1-0.2,0c0,0-0.1,0-0.1,0c-0.1,0-0.1,0-0.1,0
					c-0.1,0-0.1,0-0.1-0.1c0,0,0.1-0.1,0.1-0.1c0,0,0,0,0,0C3.1,9,3.1,9,3,9V8.8c0,0,0.1,0,0.1,0c0,0,0-0.1,0-0.1
					c0.1-0.1,0.2-0.1,0.3-0.2c0,0,0.1-0.1,0.1-0.1c0,0,0.1,0,0.1,0c0,0,0,0,0.1,0c0.1,0,0.1,0,0.2,0c0,0,0,0,0.1,0
					c0.2,0,0.3-0.1,0.4-0.2c-0.1,0-0.2,0-0.2,0c0,0,0,0-0.1,0C4,8,3.9,8.1,3.9,8.1c0,0-0.1,0-0.1,0c0-0.1,0-0.1,0.1-0.2
					c0,0,0,0,0-0.1c0,0,0,0,0,0c0.1,0,0.1,0,0.2-0.1c0,0,0,0,0,0c0,0,0,0,0.1,0c0.1-0.1,0.2-0.1,0.3,0c0,0,0.1,0.1,0.1,0.1
					c0,0,0.1,0,0.1-0.1c0.1,0,0.1-0.1,0.2-0.1c-0.1-0.1-0.1-0.1-0.2,0c0-0.1,0-0.1,0-0.2c0,0,0-0.1-0.1-0.2c0.1,0,0.1,0,0.2,0
					c0.1,0,0.1,0,0.2,0c0,0,0,0,0,0c0.1,0,0.2-0.1,0.3-0.1c0-0.1,0.2,0,0.2-0.1C5.6,7,5.7,6.9,5.9,7C5.9,7,6,7,6,6.9c0,0,0,0,0.1,0
					c0,0,0.1,0,0.1,0c0.1-0.1,0.1,0,0.2,0c0,0,0.1,0.1,0.1,0c0,0,0.1,0,0.1,0c0,0,0,0.1,0,0.1C6.7,7,6.9,7,7,7c0.1,0,0.1,0,0.2,0
					c0,0,0.1,0,0.2,0c0,0,0.1,0,0.1,0c0,0,0.1,0,0.1,0c0.1,0,0.2,0,0.2,0.1C7.9,7.3,8,7.3,8,7.3c0,0,0-0.1,0-0.1c0,0,0.1,0,0.1,0
					c0,0,0.1,0,0.1,0c0,0,0,0,0,0c0.1,0,0.1,0,0.1,0c0,0,0,0,0.1,0c0,0,0.1,0,0.1-0.1c0.1,0,0.1-0.1,0.2,0c0,0,0.1,0,0.1,0
					C9,7,9.1,7.1,9.2,7c0,0,0,0,0,0c0,0.1,0,0.1,0,0.2c0,0,0,0,0,0c0.1,0,0.1-0.1,0.1,0c0,0,0.1,0,0.1,0c0,0,0.1,0,0.1,0
					c0.1-0.1,0.2-0.1,0.3,0c0.1,0,0.2,0.1,0.3,0.1c0.1,0.1,0.1,0,0.2,0c0.1-0.1,0.1,0,0.1,0c0,0,0,0,0,0c-0.1,0.1-0.2,0.1-0.2,0.1
					c0,0,0,0.1,0.1,0.1c0.2,0,0.3,0,0.5,0c0,0,0,0,0.1-0.1c0,0,0.1,0.1,0.1,0.2c0,0,0,0,0,0.1c0,0,0.1,0,0.1,0c0-0.1,0-0.1,0-0.1
					c0.1-0.1,0.2-0.1,0.2-0.1c0.1,0,0.2-0.1,0.2,0c0,0,0,0,0.1,0c0,0,0.1,0,0.1,0.1c0,0,0,0,0,0c0.2,0,0.4,0,0.6,0c0,0,0-0.1,0-0.1
					c0,0,0.1,0,0.1,0c0,0.1,0,0.1,0,0.2c0,0,0,0,0.1,0.1c0.1,0,0.1-0.1,0.1-0.2c0.1,0,0.2-0.1,0.3-0.1c0.1,0,0.1-0.1,0.1-0.2
					c0,0-0.1,0-0.1,0c0-0.1,0-0.1,0-0.1c0.1-0.1,0.1-0.2,0.2-0.2c0,0,0.1,0,0.1-0.1c0,0,0-0.1,0.1-0.1c0,0,0,0,0,0
					c0-0.1,0.1-0.1,0.1-0.1c0.1-0.1,0.1-0.1,0.2-0.1c0.1-0.1,0.1-0.2,0.3-0.1c0,0,0.1,0,0.1,0c0,0.1-0.1,0.1-0.2,0.2
					c0,0-0.1,0-0.1,0c0,0-0.1,0-0.1,0c0,0,0,0.1,0,0.1c-0.1,0-0.1,0.1-0.2,0.1c0,0.1,0.1,0.1,0,0.2c0,0,0,0.1,0,0.1c0,0-0.1,0-0.1,0
					c0.2,0.1,0.2,0.1,0.1,0.2c0,0,0.1,0,0.1,0c0.1-0.1,0.1-0.1,0.2-0.1c0,0,0,0.1,0,0.1c0,0-0.1,0-0.1,0.1c0,0,0,0.1,0.1,0.2
					c0.1,0,0.1,0,0.1-0.2c0,0,0.1,0,0.1,0c0.1,0,0.1,0,0.1-0.1c0,0,0,0,0.1-0.1c0,0,0.1-0.1,0.1-0.2c0.1,0,0.2,0,0.3,0
					c0.1,0,0.1,0.1,0.1,0.1c-0.1,0-0.1,0.1-0.2,0.1c0,0.1,0,0.1,0,0.2c-0.1,0-0.1,0.1-0.2,0.1c-0.1,0-0.2,0-0.2,0.1
					c-0.1,0-0.2,0-0.2-0.1c0,0.1,0,0.1,0,0.1c-0.1,0-0.2,0.1-0.3,0.2c0,0.1-0.1,0.1-0.2,0.1c-0.1,0.1-0.2,0-0.2,0.1
					c-0.1,0-0.2,0-0.3,0.1c0,0,0,0.1,0.1,0.1c0,0-0.1,0-0.1,0c-0.1,0-0.2,0-0.3,0.1c-0.1,0.1-0.2,0.2-0.3,0.2c0,0-0.1,0.1-0.1,0.1
					c0,0-0.1,0.1-0.1,0.1c0,0.1,0,0.1-0.1,0.1c0,0-0.1,0.1-0.1,0.2c0,0,0.1,0,0.1,0c0,0,0,0,0,0.1c-0.1,0.1-0.1,0.2-0.1,0.3
					c0.1,0,0.1,0,0.2,0c0,0,0,0,0,0c0.1,0,0.1,0.1,0.2,0.1c0,0,0,0,0,0c0.1,0,0.1,0.1,0.1,0.1c0.1,0.1,0.2,0.1,0.2,0.1
					c0.1,0,0.1,0,0.2,0c0.1,0,0.1,0.1,0.1,0.2c0,0,0,0-0.1,0c0,0.1,0,0.2-0.1,0.3l0,0.1c0,0,0,0,0,0.1c0,0.1,0.1,0.1,0.1,0.2
					c0,0,0,0.1,0,0.1c0.1,0,0.1,0,0.2-0.1c0,0,0-0.1,0.1-0.1c0,0,0.1,0,0.1-0.1v-0.2c0,0,0-0.1,0-0.1c0,0,0-0.1,0-0.2
					c0.1,0,0.2-0.1,0.3-0.1c0-0.1,0.1-0.1,0.2-0.2c0.1-0.1,0.1-0.1,0.1-0.2c0,0,0,0,0-0.1c0-0.1,0-0.1,0-0.2c0,0-0.1-0.1-0.1-0.1
					c0.1-0.1,0.2-0.1,0.2-0.2c0-0.1,0-0.1,0-0.2c0-0.1,0.1-0.1,0.1-0.2c0,0,0-0.1,0-0.1c0,0,0,0,0.1,0c0-0.1,0.1-0.1,0.1,0
					c0,0,0,0,0,0c0,0,0.1,0,0.1,0c0.1,0,0.2,0,0.3,0.1c0,0,0,0.1,0,0.1c0,0,0.1,0,0.1,0c0,0.1,0,0.2-0.1,0.3c0,0.1,0.1,0.2,0.1,0.2
					c0,0,0.1,0,0.1,0c0,0,0.1-0.1,0.1-0.1c0,0,0,0,0,0.1c0,0,0,0,0,0C15,9.2,15.1,9.1,15.1,9c0,0,0,0,0.1-0.1c0,0.2,0.1,0.3,0,0.4
					c0.1,0.1,0.1,0.2,0,0.3c0,0-0.1,0-0.1,0c0.1,0.1,0.1,0.2,0.2,0.3c0.1,0,0.2,0.1,0.2,0.1c0,0,0,0,0,0.1c0,0,0,0.1,0.1,0.1h0.1
					c0,0.1,0,0.2-0.1,0.3c-0.1,0-0.1,0.1-0.2,0.1c0,0,0,0,0,0c-0.1,0-0.1,0-0.2,0c0,0-0.1,0-0.1,0.1C15.1,10.9,15,11,14.9,11
					c-0.2,0-0.5,0-0.7,0c0,0-0.1,0-0.1,0.1c0,0.1-0.1,0.1-0.2,0.2c-0.1,0-0.1,0.1-0.2,0.1c0,0,0,0,0,0c0,0,0.1,0,0.1,0
					c0-0.1,0.1,0,0.2-0.1c0,0,0.1,0,0.1-0.1c0,0,0.1,0,0.2,0c0.1,0,0.1,0,0.2,0c0,0.1,0,0.2-0.1,0.2c-0.1,0-0.1,0.1-0.2,0.1
					c0,0,0,0,0,0c0,0.1,0.1,0,0.1,0.1c0,0,0,0.1,0,0.1c0,0,0,0.1,0,0.1c0,0,0,0.1,0,0.1c0,0,0.1,0.1,0.1,0.1c0,0,0.1,0,0.1,0
					c0,0.1,0.1,0,0.1,0c0,0,0.1,0,0.1,0.1c0,0,0,0.1-0.1,0.1c-0.1,0-0.2,0.1-0.3,0.1c0,0,0,0-0.1,0c0,0,0,0-0.1,0.1
					c-0.1,0-0.1,0.1-0.2,0.1c0,0-0.1,0-0.1,0c0-0.1,0-0.1,0.1-0.2c0,0,0.1-0.1,0.1-0.1c0,0,0.1,0,0.2,0c0-0.1,0-0.1,0-0.2
					c-0.1,0-0.2,0-0.2,0.1c-0.1,0.1-0.2,0-0.2,0.1c0,0-0.1,0-0.1,0c-0.1,0-0.1,0-0.2,0.1c0,0-0.1,0-0.1,0.1c-0.1,0-0.1,0.1-0.2,0.1
					c0,0.1-0.1,0.2-0.1,0.3c0,0.1,0,0.1-0.1,0.1c-0.1,0-0.1,0-0.2,0c-0.1,0-0.1,0-0.2,0c0,0,0,0.1,0,0.1c0,0-0.1,0-0.1,0
					c0,0.1,0,0.1-0.1,0.2c0,0-0.1,0.1-0.1,0.1c0,0,0,0-0.1,0c0,0,0,0.1,0,0.1c0,0.1,0,0.1,0,0.2c0,0-0.1,0-0.1,0c0-0.1-0.1,0-0.2,0
					c0.1,0.1,0.1,0.2,0,0.3c0,0,0,0.1,0,0.1c0,0,0,0.1,0,0.1c-0.1,0-0.1,0-0.1,0c0.1,0,0.1,0.1,0.1,0.2c0,0-0.1,0-0.1,0
					c0,0,0,0.1,0,0.1c-0.1,0-0.1,0.1-0.2,0.1c-0.1,0.1-0.1,0.1-0.2,0.1c-0.1,0.1-0.1,0.2-0.2,0.3c0,0-0.1,0.1-0.1,0.1
					C11,14.9,11,15,11,15c0,0,0,0.1-0.1,0.1c-0.1,0.1-0.1,0.2,0,0.4c0,0,0,0.1,0,0.1c0,0.1,0,0.2,0,0.3c0,0.2,0,0.3-0.1,0.5
					c0,0,0,0-0.1,0c0,0,0-0.1-0.1-0.1c0,0,0-0.1,0-0.1c-0.1-0.1-0.1-0.2-0.1-0.3c0,0,0-0.1,0-0.1c0,0,0-0.1,0-0.1c0,0,0-0.1,0-0.1
					c0-0.1,0-0.1,0-0.2c0-0.1-0.1-0.1-0.1-0.2c-0.1,0-0.1,0.1-0.2,0.1c-0.1,0-0.1-0.1-0.2-0.1c0,0,0,0-0.1,0c-0.1,0-0.2,0-0.3,0
					c0,0,0,0-0.1,0c-0.1,0.1-0.1,0-0.2,0c0,0.1,0,0.1,0,0.1c0.1,0,0,0.1,0,0.1c-0.1,0-0.1,0.1-0.2,0.1c0,0-0.1,0-0.1,0
					c0-0.1-0.1-0.1-0.1-0.1c-0.1,0-0.3,0-0.4,0c0,0,0,0.1,0,0.1c-0.1,0-0.1,0.1-0.2,0.1c0,0,0,0,0,0c-0.1,0-0.1,0.1-0.2,0.1
					c-0.1,0.1-0.1,0.2-0.1,0.3c0,0.1,0,0.1,0,0.2c0,0.1,0,0.1-0.1,0.2c0,0,0,0,0,0.1c0,0.1,0,0.2-0.1,0.3c0,0,0,0,0,0.1
					c0,0.1,0,0.1,0,0.2c0,0,0,0.1,0,0.1c0.1,0,0,0.1,0,0.1c0,0.1,0,0.1,0,0.2c0,0.1,0.1,0.2,0.1,0.3c0,0,0,0,0,0c0,0,0,0.1,0.1,0.1
					c0.1,0,0.2,0.2,0.3,0.1c0.1-0.1,0.2,0,0.3-0.1c0,0,0,0,0,0c0,0.1,0.1,0,0.1,0c0-0.1,0.1-0.2,0.1-0.3c0-0.1,0.1-0.2,0.1-0.3
					c0.2-0.1,0.3-0.1,0.5-0.1v0.2c0,0-0.1,0-0.1,0c0,0.1,0,0.2-0.1,0.3c0,0.1-0.1,0.1-0.1,0.1V18c0,0.1,0,0.1,0,0.2c0,0,0,0.1,0,0.1
					c0,0-0.1,0-0.1,0.1H10c0,0,0,0.1,0,0.1c0,0,0.1,0,0.1,0c0,0.1,0,0.2-0.1,0.3c0,0,0,0.1,0,0.1c0,0.1,0,0.2,0,0.2
					c0,0.2,0,0.3,0.1,0.4c0,0,0,0,0,0.1c0,0,0,0.1,0,0.1c0,0,0,0,0,0.1c0,0.1,0.1,0.1,0.1,0.1c0.1,0,0.2,0,0.3-0.1c0,0,0,0,0,0
					c0.1,0,0.1,0,0.2,0.1c0.1,0,0.1,0.1,0.1,0.2c0,0,0.1,0,0.1,0c0,0,0,0.1,0,0.1c0,0,0,0,0,0c0,0,0-0.1,0-0.1
					c0.1-0.1,0.2-0.1,0.2-0.3c0-0.1,0.1-0.2,0.2-0.2c0.1,0,0.1-0.1,0.2-0.1c0,0,0,0,0,0c0,0,0.1-0.1,0.1-0.1c0,0,0-0.1,0-0.1h0.1
					c0,0,0,0.1,0,0.1c0,0-0.1,0.1-0.1,0.1c0.1,0.1,0.1,0.2,0,0.3c0,0,0,0.1,0,0.1c0,0,0.1,0.1,0.1,0.1c0-0.1,0-0.2,0-0.2
					c0,0,0-0.1,0-0.1c0.1-0.1,0.2-0.1,0.2-0.2c0.1,0,0.1,0,0.2,0c0,0,0.1,0.1,0.1,0.2c0.1,0.1,0.2,0,0.3,0c0.1,0.1,0.2,0.1,0.3,0.1
					c0,0,0,0,0.1,0c0.1-0.1,0.2-0.1,0.2,0.1c0.1,0.1,0.2,0.1,0.3,0.2c0,0.1,0,0.1-0.1,0.2c0.2-0.1,0.3,0.1,0.4,0.2
					c0,0.1,0.1,0.1,0.1,0.2c0.1,0.1,0.1,0.2,0.2,0.1c0.1,0,0.1,0,0.2,0c0.1,0,0.1,0,0.2,0c0,0,0.1,0,0.2,0.1c0,0,0.1,0.1,0.1,0.1
					c0,0.1,0.1,0.1,0.1,0.2c0,0,0,0,0.1,0c0,0.1,0,0.2,0.1,0.3c0,0.1,0.1,0.1,0.1,0.1c0,0.1-0.1,0.2-0.1,0.3c0,0,0,0.1,0,0.1
					c0,0-0.1,0-0.1,0c0,0,0,0,0,0.1l0.1,0c0,0,0,0.1,0,0.1h0.2c0,0.1,0,0.1,0,0.2c0.1,0,0-0.1,0.1-0.1c0.1,0,0.2,0,0.3,0.1
					c0.1,0.1,0.2,0.1,0.2,0.3c0,0,0,0,0,0c0,0,0,0,0,0c0,0,0.1,0,0.1,0c0,0,0.1,0,0.1,0c0,0,0.1,0,0.1,0c0,0,0,0,0,0
					c0.1,0.1,0.2,0,0.3,0.1c0,0,0.1,0,0.1,0.1c0,0.1,0.1,0.1,0.1,0.1c0.1,0,0.1,0.1,0.2,0.2c0,0.1,0.1,0.1,0.2,0.1
					C17.3,23,17.4,23.1,17.4,23.2z"/>
			</g>
		</g>
		<g>
			<g>
				<path class="st0" d="M15.2,34l-0.5-1.7c-0.1-0.2-0.2-0.5-0.5-0.6l-0.7-0.4c0,0-1-1.1-1.6-1.6c-0.6-0.5-1-0.8-1.3-0.8
					c-0.3-0.1-0.5,0.2-0.4,0.3s0.2,0.4,0.5,0.6c0.3,0.2,1.2,1.3,1.2,1.3s-0.1,0,0,0.2c0,0-0.5-0.3-0.7-0.1s-0.3,0.4-0.2,0.5
					c0,0.1,0.2,0.4,0.2,0.4s-0.3-0.1-0.4,0.2c-0.2,0.3,0.1,0.6,0.1,0.6s-0.2,0-0.4,0.1c-0.2,0.2,0,0.6,0,0.6s0.6,0.4,0.7,0.6
					c0.1,0.2,1.2,1.3,1.8,1.4l0.3,0.5l2.3-1.3L15.2,34z"/>
			</g>
			<g>
				<path class="st7" d="M27.8,39.1c0,0,0,0.8-1.1,1.8c-1.2,1.1-3.2,2.6-4.1,2.9c-1,0.3-1,0.7-1.8,0.4s-3.5-2-4.3-3
					c-0.8-0.9-3.4-5.3-3.4-5.3s1.6-0.8,1.8-1.2s0.5-0.7,0.4-0.9l1.7,2.2c0,0,0.7,0.5,1,0.8s1.1,0.4,1.4,0.8c0.3,0.4,0.4,0.9,0.6,1
					c0.2,0.1,0.6,0.2,0.9,0.4c0.3,0.2,0.3,0.3,0.4,0.2c0.1-0.1-0.2,0,0.3-0.4c0.5-0.4,1.2-0.7,1.2-0.7s1.8-1.9,2-2.4
					c0.3-0.5,1.7-3.1,2.2-3.2c0.4-0.1,1.9,0.3,1.9,0.3S29.4,38.1,27.8,39.1z"/>
			</g>
			<g>
				<path class="st7" d="M45,33c0,0,0.8,1.6,1.2,3s1.5,5.1,1.7,6.5c0.2,1.4-0.2,5.4-0.2,5.4h-4.4c0,0-1.5-5.8-1.3-7.2
					C42.3,39.5,45,33,45,33z"/>
			</g>
			<g>
				<path class="st6" d="M38.5,30.6c0,0,0.9,0.4,2.4,0.8c1.5,0.3,3.7,1.1,4,1.6c0,0-1.2,3.1-1.2,5.9c0,0-0.9,5.7-0.9,9.1H28.5
					c0,0-0.2-6.9-0.8-8.9c0,0,0.9-4.5-1-6.8c0,0,2.7-0.6,3.2-0.7s2.7-0.9,2.7-0.9L38.5,30.6z"/>
			</g>
			<g>
				<g>
					<path class="st1" d="M35.5,31.5h0.4l1.9,0.4c0,0-1.3,0.5-1.5,1.2c-0.3-0.1-0.6-0.1-1,0c0,0-0.5-0.9-1.1-1.2
						C33.7,31.6,35.5,31.5,35.5,31.5z"/>
				</g>
				<g>
					<path class="st1" d="M36.3,33.1c0,0,0.7,1.7,0.7,2.7S37.5,48,37.5,48H34c0,0,0.6-10.8,0.6-11.8c0-1,0.8-3.1,0.8-3.1l0.2-0.8
						L36.3,33.1z"/>
				</g>
			</g>
			<g>
				<g>
					<path class="st13" d="M38.1,29.3l-2.2,2.2c0,0,2.7,1.5,3,2.2c0,0,0.3-1.8,0.1-2.4S38.1,29.3,38.1,29.3z"/>
				</g>
				<g>
					<path class="st13" d="M33.3,29.3l2.2,2.2c0,0-2.7,1.5-3,2.2c0,0-0.3-1.8-0.1-2.4C32.6,30.6,33.3,29.3,33.3,29.3z"/>
				</g>
			</g>
			<g>
				<g>
					<path class="st0" d="M39.1,26.2c0,0-0.2,2.8-1.2,4.2c-1,1.4-2.8,1.4-4,0.4s-1.6-2.9-1.9-4.3s-0.1-4.5,0.1-5.1
						c0.2-0.7,5.4-0.8,5.9-0.4S39.4,25,39.1,26.2z"/>
				</g>
				<g>
					<path class="st0" d="M31.3,26.2c0.1,0.6,0.4,1.1,0.7,1.1c0.2,0,0.3-0.6,0.2-1.2c-0.1-0.6-0.4-1.1-0.7-1.1S31.2,25.6,31.3,26.2z
						"/>
				</g>
				<g>
					<path class="st1" d="M38.7,25.6l0.2,0c0,0,0-0.5,0.2-0.7s0.5-2,0.2-2.9c-0.3-0.8-1.8-2.8-4.5-2.6c-2.7,0.2-3.4,2.5-3.5,3
						c-0.2,0.5,0,2.4,0.3,2.8c0.3,0.5,0.4,1.3,0.4,1.3h0.1c0,0-0.2-0.9,0-1.6c0.2-0.7,0.6-1.5,0.4-2.1c-0.1-0.6,0-0.8,0.7-0.8
						c0.7,0,2.9,0.3,3.7,0.1c0.8-0.2,1,0,1,0.7c0.1,0.7,0.6,1.4,0.6,1.6C38.8,24.6,38.7,25.6,38.7,25.6z"/>
				</g>
				<g>
					<path class="st0" d="M39.7,25.6c0,0.7-0.3,1.3-0.5,1.3s-0.4-0.6-0.3-1.3s0.3-1.3,0.5-1.3C39.6,24.3,39.8,24.9,39.7,25.6z"/>
				</g>
			</g>
			<g>
				<g>
					<path class="st2" d="M10.4,33.7c0.3,0.1,0.6,0.1,0.9,0.2c0.1,0,0.3,0.1,0.4,0c0,0,0.1,0,0.1,0c0,0,0.1,0,0.1-0.1
						c0,0,0.1-0.1,0-0.2l0-0.1l0.1,0.1c0.1,0.1,0.2,0.2,0.4,0.2c0,0,0.1,0,0.1,0c0,0,0.1,0,0.1,0c0.1,0,0.1-0.1,0.1-0.1
						c0-0.1,0-0.1,0.1-0.2c0,0,0-0.1,0-0.1c0,0,0-0.1,0-0.1c-0.1-0.1-0.2-0.2-0.3-0.3l-0.1-0.1l0.1,0c0.1,0,0.2-0.1,0.3-0.2
						c0-0.1,0-0.2,0-0.3c0-0.1-0.1-0.2-0.2-0.3c-0.1-0.1-0.2-0.2-0.3-0.2c0.1,0.1,0.2,0.1,0.3,0.2c0.1,0.1,0.2,0.2,0.2,0.3
						c0,0.1,0.1,0.3,0,0.4c0,0.1-0.2,0.2-0.3,0.3l0-0.1c0.1,0.1,0.2,0.1,0.3,0.3c0,0,0,0.1,0,0.1c0,0,0,0.1,0,0.1
						c0,0.1,0,0.2-0.1,0.2c0,0.1-0.1,0.1-0.2,0.2c0,0-0.1,0-0.1,0c0,0-0.1,0-0.1,0c-0.2,0-0.3-0.1-0.4-0.2l0.1,0
						c0,0.1,0,0.2-0.1,0.2c0,0-0.1,0.1-0.1,0.1c0,0-0.1,0-0.1,0c-0.2,0-0.3,0-0.5,0C11,33.9,10.7,33.8,10.4,33.7z"/>
				</g>
				<g>
					<path class="st2" d="M11.9,31.2c0,0.1,0.1,0.2,0.1,0.4c0,0.1,0.1,0.1,0.1,0.1c0,0,0,0,0.1,0.1c0,0,0,0,0.1,0.1l0.1,0.1l0.1,0
						c0.1,0,0.1,0,0.2,0.1c0.1,0,0.1,0,0.2,0.1l0.2,0l0,0l0,0c0.1,0.1,0.3,0.2,0.4,0.3l0,0l0,0c0,0,0,0.1,0.1,0.1
						c0,0,0.1,0.1,0.1,0.1c0.1,0,0.1,0.1,0.2,0.1c-0.1,0-0.2,0-0.2-0.1c-0.1,0-0.1-0.1-0.2-0.2l0,0c-0.2-0.1-0.3-0.2-0.5-0.3l0,0
						l-0.2,0c-0.1,0-0.1,0-0.2-0.1c-0.1,0-0.1,0-0.2-0.1l-0.1,0l-0.1-0.1c0,0-0.1,0-0.1-0.1c0,0,0,0-0.1-0.1c0-0.1-0.1-0.1-0.1-0.2
						c0-0.1,0-0.1-0.1-0.2C11.9,31.3,11.9,31.3,11.9,31.2z"/>
				</g>
				<g>
					<path class="st2" d="M11.9,31.1C11.9,31.1,11.9,31.1,11.9,31.1C12,31,12,31,12.1,31c0,0,0.1,0,0.1,0c0.1,0,0.2,0,0.3,0
						c0,0,0.1,0,0.1,0c0,0,0.1,0,0.1,0c0.2,0,0.4,0.1,0.5,0.1c0.1,0,0.2,0.1,0.2,0.1s-0.1,0-0.2,0c-0.1,0-0.3,0-0.5-0.1
						c0,0-0.1,0-0.1,0c0,0-0.1,0-0.1,0c-0.1,0-0.2,0-0.2-0.1c0,0-0.1,0-0.1,0C12,31.1,12,31.1,11.9,31.1
						C11.9,31.1,11.9,31.1,11.9,31.1z"/>
				</g>
				<path class="st2" d="M12.3,32.9c0,0-0.1,0-0.2-0.1c-0.1-0.1-0.3-0.1-0.5-0.2c-0.2-0.1-0.3-0.3-0.4-0.4c-0.1-0.1-0.1-0.2-0.1-0.2
					s0.1,0.1,0.2,0.2c0.1,0.1,0.2,0.2,0.4,0.3c0.2,0.1,0.3,0.2,0.4,0.3C12.3,32.9,12.3,32.9,12.3,32.9z"/>
				<g>
					<path class="st2" d="M12,33.6c0,0-0.1,0-0.2-0.1c-0.1-0.1-0.3-0.1-0.4-0.2c-0.2-0.1-0.3-0.2-0.4-0.3c-0.1-0.1-0.2-0.1-0.2-0.1
						s0.1,0,0.2,0.1c0.1,0.1,0.3,0.1,0.4,0.2c0.2,0.1,0.3,0.2,0.4,0.3C11.9,33.5,12,33.6,12,33.6z"/>
				</g>
			</g>
		</g>
		<g>
			<circle class="st7" cx="10.4" cy="11.3" r="1.6"/>
			<circle class="st6" cx="10.4" cy="11.3" r="0.8"/>
		</g>
		<g>
			<circle class="st7" cx="27" cy="21.7" r="1.6"/>
			<circle class="st6" cx="27" cy="21.7" r="0.8"/>
		</g>
		<g>
			<circle class="st7" cx="37.1" cy="10.7" r="1.6"/>
			<circle class="st6" cx="37.1" cy="10.7" r="0.8"/>
		</g>
		<g>
			<circle class="st7" cx="14.1" cy="23.5" r="1.6"/>
			<circle class="st6" cx="14.1" cy="23.5" r="0.8"/>
		</g>
	</g>
</g>
</svg>
