<?xml version="1.0" encoding="utf-8"?>
<!-- Generator: Adobe Illustrator 18.0.0, SVG Export Plug-In . SVG Version: 6.00 Build 0)  -->
<!DOCTYPE svg PUBLIC "-//W3C//DTD SVG 1.1//EN" "http://www.w3.org/Graphics/SVG/1.1/DTD/svg11.dtd">
<svg version="1.1" id="Layer_1" xmlns="http://www.w3.org/2000/svg" xmlns:xlink="http://www.w3.org/1999/xlink" x="0px" y="0px"
	 viewBox="0 0 48 48" enable-background="new 0 0 48 48" xml:space="preserve">
<g>
	<g>
		<g>
			<path fill="#F3F3F3" d="M20,13.5"/>
		</g>
	</g>
	<g>
		<g>
			<g>
				<g>
					<path fill="#67C5B8" d="M12,41.7c0,0-0.5-2.2-0.6-5.1c-0.1-2.9,1.3-6.9,1.3-6.9l2.6,0.4C15.3,30,13.7,40.6,12,41.7z"/>
				</g>
			</g>
			<g>
				<g>
					<polygon fill="#344A5E" points="13.2,32.8 13,33.9 12,41.7 21.6,41.1 23.7,33.2 					"/>
				</g>
			</g>
			<g>
				<g>
					<path fill="#425A6B" d="M12.6,30l0.4,3.9l10.7-0.7l-0.6-4.3C19.3,28.4,12.1,28.4,12.6,30z"/>
				</g>
			</g>
		</g>
		<g>
			<g>
				<g>
					<polygon fill="#E8EAE8" points="16.1,33.7 16.6,33.7 17.6,27.5 17.2,27.5 					"/>
				</g>
			</g>
			<g>
				<g>
					<polygon fill="#E8EAE8" points="19.7,33.5 20.1,33.5 21.2,27.6 20.7,27.6 					"/>
				</g>
			</g>
		</g>
		<g>
			<g>
				<path fill="#425A6B" d="M17,27.5h0.6c0,0,0.1-0.4,0.3-0.4s2.2-0.1,2.2-0.1v-0.8c0,0-1.8,0.1-2.4,0.2C17.2,26.5,17,26.9,17,27.5z
					"/>
			</g>
		</g>
		<g>
			<g>
				<g>
					<path fill="#FFD15C" d="M27.8,30.4c0,0-1.1,2.7-1.3,3.4c-0.2,0.7,0.1,0.8,0.4,1.3c0.3,0.6,0.6,2.2,0.6,3.8
						c0,1.6-0.1,2.7-0.1,2.7s0.7,1.8,0.8,2.6c0.1,0.8,0.2,1.9-0.2,2.1c-0.4,0.2-1.7-0.2-1.7-0.2s-0.3-2.3-0.4-2.8
						c-0.1-0.5-0.1-1.3-0.3-1.8c-0.2-0.5-1.8-5.3-2-5.7s-0.8-1.5-0.6-2.5c0.2-0.9,0.8-3.5,0.8-3.5L27.8,30.4z"/>
				</g>
			</g>
			<g>
				<g>
					<path fill="#344A5E" d="M26,44.1c0,0,0.3,1.5,0.2,1.8c0,0.4-0.2,1.7,0.1,2.1c0.3,0.4,1.8,0.1,1.9-0.8c0.1-0.5-0.1-2.7-0.1-3.1
						s0.2-1.9-0.8-2.5c0,0,0.5,1.6,0.6,1.9c0.1,0.3,0.2,1.5,0,1.9c-0.2,0.4-0.9,0.7-1.4,0.5c0,0-0.2,0-0.3-0.6
						c-0.1-0.7-0.2-1.5-0.3-1.9L26,44.1z"/>
				</g>
			</g>
			<g>
				<g>
					<path fill="#FFD15C" d="M24.2,46.4c0.6,0.3,1.5,0.6,1.9,0c0,0,0.2-1.6-0.2-2.3c-0.3-0.7-0.4-3.7-0.4-3.7l-1.8-7.6l0.6-3.3
						l-2.9-0.3c0,0,0.3,2,0.5,2.7c0.2,0.7,0.2,1.4,0.1,2.1c-0.1,0.7,0.9,5.6,1.1,6c0.1,0.4,1,3.2,0.8,4.1c-0.1,0.7-0.2,1.1-0.2,1.7
						C23.8,46,23.9,46.3,24.2,46.4z"/>
				</g>
			</g>
			<g>
				<g>
					<path fill="#F5B54C" d="M23.5,29.6l-0.8-0.9c0,0.1-0.1,2.1,0,3.8c0,0.4,0,0.8,0,1.2c0,0.9,0.4,1.9,0.7,2.3
						c0.1,0.2,0.9,2.5,1.4,3.9c0.3,0.9,0.5,1.6,0.6,1.7c0.1,0.1,0.2,0.7,0.3,1.2c-0.1-1.1-0.2-2.4-0.2-2.4l-1.8-7.6l0.5-3L23.5,29.6
						z"/>
				</g>
			</g>
			<g>
				<g>
					<path fill="#FFD15C" d="M26.9,42.2c-0.1-0.2,0.1-0.5,0.3-0.6c0,0,0.1,0,0.1,0c0-0.2,0.1-1.2,0.1-2.6c0-1.6-0.4-3.3-0.6-3.8
						c-0.3-0.6-0.6-0.6-0.4-1.3c0.2-0.7,1.3-3.4,1.3-3.4l-4.1-0.6c0,0-0.6,2.6-0.8,3.5c-0.2,0.9,0.4,2.1,0.6,2.5s1.8,5.2,2,5.7
						c0.1,0.2,0.2,0.6,0.2,0.9H27C26.9,42.3,26.9,42.2,26.9,42.2z"/>
				</g>
			</g>
			<g>
				<g>
					<g>
						<path fill="#425A6B" d="M23.9,44.4c0,0-0.1,1.5,0.4,1.9s1.8,0.3,1.9-0.2c0,0,0.3,1.8-0.7,1.9c-0.6,0-1.6-0.1-1.7-0.5
							c0-0.4-0.1-0.7-0.1-1C23.6,46.2,23.9,44.4,23.9,44.4z"/>
					</g>
				</g>
			</g>
		</g>
		<g>
			<path fill="#67C5B8" d="M28.6,2.4c0,0,0.2-1.8-1.4-2.4c-1.6-0.6-3.1,0-3.4,0.8c-0.3,0.7,0,2.2,0,2.2S29.5,3.8,28.6,2.4z"/>
		</g>
		<g>
			<path fill="#48B9A5" d="M23,2.9l0.5-0.8c0,0,1.2-0.1,2,0c0.8,0.1,2.6,0.3,3.2,0.1C29.3,2.1,32,2.4,32.4,3
				c0.4,0.6-0.7,1.7-0.7,1.7s-2.9,0.5-3.5,0.5C27.5,5.3,22.9,2.9,23,2.9"/>
		</g>
		<g>
			<path fill="#FFD15C" d="M26.1,6.1c0,0,0.4-0.5,0.5-0.7c0-0.1,0-0.5,0-0.7"/>
		</g>
		<g>
			<g>
				<path fill="#67C5B8" d="M19.1,4.4c-0.2-0.9,0.4-1.9,1.4-2c0.8-0.1,2.2-0.3,2.9-0.3c1,0,4.4,0.7,5.8,0.6c1.4-0.1,2.8-0.2,3.2,0.4
					c0.4,0.6-0.2,2.9-0.8,3.4C31,7,28.5,7.8,25.1,7.7c-3.4-0.1-4-0.3-4.9-1.4C19.8,5.9,19.3,5.1,19.1,4.4z"/>
			</g>
		</g>
		<g>
			<g>
				<ellipse fill="#425A6B" cx="26.2" cy="7.1" rx="2.5" ry="2.8"/>
			</g>
		</g>
		<g>
			<g>
				<path fill="#FFD15C" d="M32.6,19.3c0-0.7-0.4-2.3-0.5-3c-0.2-0.7,0-3.7,0.1-4.2c0.1-0.5,0.2-2.5-0.1-3.4c-0.4-0.8-1.7-0.8-3.2-1
					C27.4,7.4,27.6,6,27.6,6c0.3-0.4,0.6-1.6,0.6-1.6c0.1-0.3-0.1-1-0.3-1.7c-1-0.1-2.3-0.3-3.2-0.4c-0.1,0-0.2,0.1-0.2,0.2
					c-0.1,0.5-0.2,1.2-0.3,1.9c-0.1,1.4,0.4,1.8,0.4,1.8c0,0.7,0,1.2-0.8,1.8c-0.8,0.7-1.9,0.5-2.6,1.2c-0.7,0.7-0.8,1.6-0.8,2
					s0.3,3.4,0.3,4.1c0,0.7-0.4,2.5-0.7,3.3c-0.2,0.8-0.1,0.9-0.2,2.1c-0.1,1.2,0.1,4.1,0.1,4.1s1.9-6.6,2.5-7.7
					c0.6-1.1,0.8-4.1,0.8-4.1l7.2-0.3c0,0-0.3,1.5-0.4,2.2s-0.1,2.5,0,2.9c0.1,0.4,1.4,3.6,1.5,4.2c0.1,0.6,0.9,2.3,0.9,2.3l1.5-0.8
					C33.9,23.4,32.6,20,32.6,19.3z"/>
			</g>
		</g>
		<g>
			<g>
				<path fill="#425A6B" d="M28,5.6c0,0.4,0.1,0.7,0,1.1c-0.1,0.4-0.3,0.7-0.5,1c-0.2,0.3-0.2,1.3,0,1.7c0-0.4,0-0.9,0.2-1.1
					c0.2-0.3,0.4-0.3,0.5-0.6c-0.1,0.8,0.2,0.9,0.6,1.6c0.3-1.1,0.3-2.3,0.2-3.4c0-0.6,0-1.1-0.2-1.7c-0.1-0.5-0.3-1-0.6-1.3
					c-0.3,0-0.5,0-0.8-0.1C27.7,3.6,27.9,4.6,28,5.6z"/>
			</g>
		</g>
		<g>
			<g>
				<path fill="#425A6B" d="M24.3,8.1c0,0.5-0.6,0.9-0.7,1.5c0,0-0.5-0.4-0.7-1.2c-0.2-0.8,0.5-4.8,0.5-4.8c0-0.1,0.2-1,1.2-1.3l0,0
					c0,0,0.1,0,0.1,0c0,0.4-0.4,3.1-0.4,3.6C24.3,6.4,24.3,7.5,24.3,8.1z"/>
			</g>
		</g>
		<g>
			<g>
				<path fill="#425A6B" d="M28.3,7C28.3,7,28.3,7,28.3,7C28.3,7.1,28.3,7.1,28.3,7c0,0.1,0,0.1,0,0.1c0,0.1,0,0.2-0.1,0.4
					c0,0.1-0.1,0.1-0.1,0.2c0,0.1-0.1,0.1-0.1,0.2c-0.1,0.1-0.2,0.3-0.3,0.5c0,0.1-0.1,0.2-0.1,0.3c0,0.1,0,0.2,0,0.3
					c0,0.2,0.2,0.3,0.3,0.3c0.1,0,0.1,0,0.2,0c0.1,0,0.1-0.1,0.1-0.1c0,0,0-0.1,0-0.1c0,0,0,0,0,0s0,0,0,0c0,0,0,0.1,0,0.1
					c0,0-0.1,0.1-0.1,0.1c-0.1,0-0.1,0-0.2,0c-0.1,0-0.3-0.2-0.3-0.3c0-0.1,0-0.2,0-0.3c0-0.1,0-0.2,0.1-0.3
					c0.1-0.2,0.2-0.3,0.3-0.5c0-0.1,0.1-0.1,0.1-0.2c0-0.1,0.1-0.1,0.1-0.2c0-0.1,0.1-0.2,0-0.3C28.2,7.1,28.2,7.1,28.3,7
					C28.2,7.1,28.2,7.1,28.3,7C28.2,7.1,28.2,7,28.3,7L28.3,7z"/>
			</g>
		</g>
		<g>
			<g>
				<path fill="#425A6B" d="M28.2,7.4C28.2,7.4,28.2,7.4,28.2,7.4c0,0.2-0.1,0.2-0.1,0.4c0,0.1,0,0.2,0,0.4c0,0.1,0,0.1,0.1,0.2
					c0,0.1,0.1,0.1,0.1,0.2c0.1,0.1,0.2,0.2,0.3,0.3c0,0.1,0.1,0.1,0.1,0.2c0,0.1,0,0.1,0.1,0.2c0,0.1,0,0.2,0,0.3c0,0,0,0.1,0,0.1
					c0,0,0,0,0,0s0,0,0,0c0,0,0,0,0-0.1c0-0.1,0-0.2,0-0.3c0-0.1,0-0.1-0.1-0.2c0-0.1-0.1-0.1-0.1-0.2c-0.1-0.1-0.2-0.2-0.3-0.3
					c0-0.1-0.1-0.1-0.1-0.2c0-0.1-0.1-0.1-0.1-0.2c0-0.1,0-0.3,0-0.4c0-0.1,0-0.2,0-0.3C28.1,7.4,28.1,7.4,28.2,7.4L28.2,7.4z"/>
			</g>
		</g>
		<g>
			<g>
				<path fill="#425A6B" d="M24.2,6c0,0,0.2,0.8,0.3,1.6c0,0.2,0.1,0.4,0,0.6c0,0.1,0,0.2-0.1,0.3c0,0.1-0.1,0.2-0.1,0.2
					C24.3,8.9,24.2,9,24.2,9c-0.1,0.1-0.1,0.1-0.1,0.1s0,0,0.1-0.1c0.1-0.1,0.1-0.2,0.2-0.3c0-0.1,0.1-0.1,0.1-0.2
					c0-0.1,0-0.2,0.1-0.3c0-0.2,0-0.4-0.1-0.6C24.2,6.8,24,6,24,6L24.2,6z"/>
			</g>
		</g>
		<g>
			<g>
				<path fill="#425A6B" d="M24.1,7.8C24.1,7.8,24.2,7.8,24.1,7.8C24.2,7.8,24.2,7.8,24.1,7.8c0.1,0.1,0.1,0.1,0.1,0.2
					c0,0,0,0.1,0.1,0.1c0,0,0,0.1,0.1,0.1c0,0.1,0,0.1,0.1,0.2c0,0.1,0,0.1,0,0.2c0,0.1,0,0.1,0,0.2c0,0.1,0,0.1,0,0.2
					c0,0.1,0,0.1-0.1,0.2c0,0.1-0.1,0.1-0.1,0.2c0,0-0.1,0.1-0.1,0.1c0,0-0.1,0.1-0.1,0.1c0,0-0.1,0-0.1,0.1c0,0,0,0-0.1,0
					c0,0,0,0,0,0s0,0,0,0c0,0,0,0,0.1,0c0,0,0,0,0.1-0.1c0,0,0.1-0.1,0.1-0.1c0,0,0.1-0.1,0.1-0.1c0,0,0.1-0.1,0.1-0.2
					c0-0.1,0-0.1,0.1-0.2c0-0.1,0-0.1,0-0.2c0-0.1,0-0.1,0-0.2c0-0.1,0-0.1,0-0.2c0-0.1,0-0.1-0.1-0.2c0,0,0-0.1-0.1-0.1
					c0,0-0.1-0.1-0.1-0.1c0,0,0-0.1-0.1-0.1c0,0,0,0,0,0c0,0,0,0,0,0L24.1,7.8z"/>
			</g>
		</g>
		<g>
			<g>
				<path fill="#425A6B" d="M23.2,6.8c0,0,0,0.1,0,0.2c0,0.1-0.1,0.2-0.1,0.4c0,0.1,0,0.2-0.1,0.3c0,0.1,0,0.2,0,0.3
					c0,0.1,0,0.2,0,0.3c0,0.1,0,0.2,0,0.4c0,0.2,0.1,0.5,0.2,0.7c0,0.1,0.1,0.2,0.1,0.3c0,0.1,0,0.2,0.1,0.3c0,0.2,0,0.3,0,0.4
					c0,0.1,0,0.1,0,0.1c0,0,0,0,0,0s0,0,0,0c0,0,0-0.1,0-0.1c0-0.1,0-0.3,0-0.4c0-0.1,0-0.2-0.1-0.3c0-0.1-0.1-0.2-0.1-0.3
					c-0.1-0.2-0.2-0.4-0.2-0.7c0-0.1,0-0.2,0-0.4c0-0.1,0-0.2,0-0.4c0-0.1,0-0.2,0-0.3c0-0.1,0-0.2,0.1-0.3C23,7.2,23,7,23,6.9
					c0-0.1,0-0.2,0-0.2L23.2,6.8z"/>
			</g>
		</g>
		<g>
			<g>
				<path fill="#F26F5A" d="M26.2,11.9c0,0,1.5-1,2.8-0.9c1.4,0.1,1.8,1.4,1.7,2s-0.7,2.9-0.7,3.5c0,0.6,0.9,6.6,0.9,6.6l0.6,6.6
					l-0.8,1.5c0,0-2.9,0-4.8-0.3c-1.9-0.3-2.4-0.2-2.9-0.3c-0.6-0.1-4.7-1.8-5-2c0,0,1.3-5.6,2.3-8c1-2.4,2.1-3.9,2.1-3.9
					s0.3-1.4,0.1-2.4c-0.2-1-0.4-1.7-0.2-2.3C22.5,11.4,23.9,10.4,26.2,11.9z"/>
			</g>
		</g>
		<g>
			<g>
				<path fill="#425A6B" d="M31.9,24.4l3.6,0.6c0.1,0,0.1,0,0.1-0.1l1-2.1c0-0.1,0-0.2-0.1-0.2l-3.7-0.8c-0.1,0-0.1,0-0.2,0.1
					l-0.9,2.3C31.7,24.3,31.8,24.4,31.9,24.4z"/>
			</g>
		</g>
		<g>
			<g>
				<polygon fill="#67C5B8" points="32.5,24.7 33.4,22.5 36.4,23 35.4,25.2 				"/>
			</g>
		</g>
		<g>
			<g>
				<path fill="#FFD15C" d="M34.9,25.4c0,0.2-0.4,0.1-0.4,0.1c0,0.2-0.4,0.1-0.4,0.1c-0.1,0.1-0.5,0-0.5,0s0,0-0.2,0.1
					c-0.1,0-0.6-0.1-0.6-0.3c-0.1-0.1-0.5-0.9-0.5-0.9l0.3,0l-0.1,0.2l0.8,0.1c0-0.2,0.3-0.2,0.3-0.1l0-0.2
					c-0.1-0.2,0.2-0.3,0.3-0.1c-0.1-0.3,0.2-0.4,0.3-0.2l0.3,0.5c-0.1-0.2,0.2-0.2,0.2-0.2s0.2,0.2,0.3,0.3
					C34.9,25,34.9,25.2,34.9,25.4z"/>
			</g>
		</g>
		<g>
			<g>
				<g>
					<path fill="#F5B54C" d="M33.3,24.8L33.3,24.8c0,0.1,0,0.3,0,0.4c-0.1,0.1-0.3,0-0.3,0.1c0.1,0,0.2,0,0.3-0.1c0,0,0.1,0,0.1,0
						c0,0,0-0.1,0-0.1C33.3,25,33.3,24.9,33.3,24.8z"/>
				</g>
				<g>
					<path fill="#F5B54C" d="M33.1,24.8c-0.1,0-0.2,0.1-0.4,0.1C32.8,24.9,33,24.9,33.1,24.8L33.1,24.8z"/>
				</g>
			</g>
		</g>
		<g>
			<g>
				<g>
					<path fill="#F5B54C" d="M33.6,24.8C33.6,24.8,33.6,24.8,33.6,24.8c0,0.1,0,0.1,0.1,0.1c0,0,0,0.1,0.1,0.1c0,0,0,0.1,0,0.1
						c0,0,0,0.1,0,0.1c0,0.1,0,0.1,0,0.2c0,0.1,0,0.1-0.1,0.1c-0.1,0.1-0.1,0.1-0.1,0.1s0,0,0,0c0,0,0-0.1,0-0.1c0,0,0-0.1,0.1-0.1
						c0,0,0-0.1,0-0.2c0,0,0-0.1,0-0.1c0,0,0-0.1,0-0.1c0-0.1,0-0.1,0-0.1C33.6,24.9,33.6,24.8,33.6,24.8
						C33.6,24.8,33.6,24.8,33.6,24.8z"/>
				</g>
			</g>
			<g>
				<g>
					<path fill="#F5B54C" d="M34,25.6C34,25.6,34.1,25.6,34,25.6c0-0.1,0-0.1,0-0.2c0-0.1,0-0.1,0-0.2c0,0,0,0,0-0.1c0,0,0,0,0-0.1
						c0,0,0-0.1,0-0.1c0-0.1-0.1-0.1-0.1-0.2c0-0.1-0.1-0.1-0.1-0.2c0-0.1,0-0.1-0.1-0.1c0,0,0,0,0,0s0,0,0,0c0,0,0,0.1,0.1,0.1
						c0,0.1,0.1,0.1,0.1,0.2c0,0.1,0.1,0.1,0.1,0.2c0,0,0,0.1,0,0.1c0,0,0,0,0,0.1c0,0,0,0,0,0.1c0,0.1,0,0.1,0,0.2
						C34.1,25.5,34.1,25.6,34,25.6C34.1,25.6,34,25.6,34,25.6z"/>
				</g>
			</g>
			<g>
				<g>
					<path fill="#F5B54C" d="M34.4,24.8C34.4,24.8,34.4,24.8,34.4,24.8c0,0,0,0.1,0.1,0.1c0,0.1,0.1,0.2,0.1,0.3c0,0.1,0,0.2,0,0.3
						c0,0.1,0,0.1,0,0.1s0,0,0,0c0,0,0-0.1,0-0.1c0-0.1,0-0.2,0-0.3c0-0.1,0-0.2-0.1-0.3C34.4,24.9,34.4,24.8,34.4,24.8
						C34.4,24.8,34.4,24.8,34.4,24.8z"/>
				</g>
			</g>
		</g>
		<g>
			<g>
				<path fill="#344A5E" d="M12.9,42.2L12.9,42.2c-0.2,0-0.3-0.2-0.3-0.4l0.2-0.8h0.6l-0.2,1C13.2,42.1,13.1,42.2,12.9,42.2z"/>
			</g>
		</g>
		<g>
			<g>
				<path fill="#344A5E" d="M20.5,41.8L20.5,41.8c-0.2,0-0.3-0.2-0.3-0.4l0.2-0.8H21l-0.2,1C20.7,41.7,20.6,41.8,20.5,41.8z"/>
			</g>
		</g>
	</g>
</g>
</svg>
