<?xml version="1.0" encoding="utf-8"?>
<!-- Generator: Adobe Illustrator 19.0.1, SVG Export Plug-In . SVG Version: 6.00 Build 0)  -->
<svg version="1.1" id="Layer_1" xmlns="http://www.w3.org/2000/svg" xmlns:xlink="http://www.w3.org/1999/xlink" x="0px" y="0px"
	 viewBox="0 0 48 48" style="enable-background:new 0 0 48 48;" xml:space="preserve">
<style type="text/css">
	.st0{fill:#FFD15C;}
	.st1{fill:#415A6B;}
	.st2{fill:#F7B64C;}
	.st3{fill:#CED6E0;}
	.st4{fill:#344A5E;}
	.st5{fill:#F3F3F3;}
	.st6{fill:#F05540;}
	.st7{fill:#F3705A;}
	.st8{fill:#66C6B9;}
	.st9{fill:#55C0EB;}
	.st10{fill:#F5F6FB;}
	.st11{fill:#4ABAA5;}
	.st12{fill:#ADB3BA;}
	.st13{fill:#E8EAE9;}
	.st14{fill:#2E4556;}
	.st15{fill:#8AD7F8;}
	.st16{fill:#FFFFFF;}
	.st17{fill:#E54838;}
	.st18{fill:#3EAF99;}
	.st19{fill:#EFA943;}
	.st20{fill:#4CAEE5;}
	.st21{fill:#293F4F;}
	.st22{fill:#2D4456;}
	.st23{fill:#2E4454;}
	.st24{fill:#2A3F4F;}
	.st25{fill:#2D4151;}
	.st26{fill:#E89E3D;}
	.st27{fill:#2B4151;}
	.st28{fill:#2A4051;}
	.st29{fill:#2C4151;}
	.st30{fill:#EBEAE8;}
	.st31{fill:#3AA590;}
	.st32{fill:#E84534;}
	.st33{fill:none;}
</style>
<g>
	<g>
		<path class="st7" d="M21.8,29.9l-0.6-1.7l-2.4,0.3c-0.3-0.5-0.6-1-1-1.5l1.2-2.1l-1.4-1.2l-2,1.5c-0.5-0.3-1-0.6-1.6-0.8l0-2.4
			l-1.8-0.4l-1,2.2c-0.6,0-1.2,0-1.7,0.1l-1.2-2.1l-1.7,0.6l0.3,2.4c-0.5,0.3-1,0.6-1.5,1l-2.1-1.2l-1.2,1.4l1.5,2
			c-0.3,0.5-0.6,1-0.8,1.6l-2.4,0L0,31.3l2.2,1c0,0.6,0,1.2,0.1,1.7l-2.1,1.2l0.6,1.7l2.4-0.3c0.3,0.5,0.6,1,1,1.5L3,40.2l1.4,1.2
			l2-1.5c0.5,0.3,1,0.6,1.6,0.8l0,2.4l1.8,0.4l1-2.2c0.6,0,1.2,0,1.7-0.1l1.2,2.1l1.7-0.6l-0.3-2.4c0.5-0.3,1-0.6,1.5-1l2.1,1.2
			l1.2-1.4l-1.5-2c0.3-0.5,0.6-1,0.8-1.6l2.4,0l0.4-1.8l-2.2-1c0-0.6,0-1.2-0.1-1.7L21.8,29.9z M12.5,37c-2.5,0.8-5.1-0.5-6-3
			c-0.8-2.5,0.5-5.1,3-6c2.5-0.8,5.1,0.5,6,3C16.3,33.5,15,36.2,12.5,37z M11.7,34.5c-1.1,0.4-2.3-0.2-2.7-1.3
			c-0.4-1.1,0.2-2.3,1.3-2.7c1.1-0.4,2.3,0.2,2.7,1.3C13.4,33,12.8,34.2,11.7,34.5z"/>
	</g>
	<g>
		<path class="st0" d="M21.8,10.7L25.1,6c0.6-0.8,1.5-1.2,2.5-1.1c2.9,0.3,8.9,1,9.6,0.9c0.8,0,3.8,0,5.1,3.1
			c1.3,3.1,4,11.4,5.7,13.4v18.1c0,0-7.1-3.5-8.7-4.9c0,0-4.7-1.2-6.2-4.2c-1.5-3-2.5-4.8-2.5-4.8s-2-0.2-4.1-1.4
			c-2.1-1.2-2.2-2.6-1.7-3.7c0,0-2-2.6-2-4.5C22.8,15.1,21.8,10.7,21.8,10.7z"/>
	</g>
	<g>
		<path class="st2" d="M29.5,21c-0.2-0.2-0.5-0.5-0.9-0.8c-0.2-0.2-0.4-0.3-0.6-0.5c-0.2-0.2-0.5-0.3-0.7-0.5
			c-0.3-0.2-0.5-0.3-0.8-0.5c-0.1-0.1-0.3-0.1-0.4-0.2c-0.1,0-0.2-0.1-0.2-0.1c-0.1,0-0.2-0.1-0.2-0.1l-0.2-0.1l-0.2-0.1
			c-0.2,0-0.3-0.1-0.5-0.1c-0.3-0.1-0.6-0.2-0.9-0.3c-0.3-0.1-0.6-0.2-0.8-0.3c0,0.2,0.1,0.3,0.1,0.5c0.2,0.1,0.3,0.2,0.5,0.2
			c0.3,0.1,0.6,0.2,0.9,0.3c0.2,0.1,0.3,0.1,0.5,0.1l0.2,0.1l0.2,0.1c0.1,0,0.1,0.1,0.2,0.1c0.1,0,0.1,0,0.2,0.1
			c0.1,0.1,0.3,0.1,0.4,0.2c0.3,0.1,0.6,0.3,0.8,0.4c0.3,0.2,0.5,0.3,0.7,0.4c0.2,0.1,0.5,0.3,0.7,0.4C28.9,20.7,29.2,21,29.5,21
			c0.2,0.2,0.3,0.3,0.3,0.3S29.7,21.2,29.5,21z"/>
	</g>
	<g>
		<path class="st2" d="M23.5,11.1c0.2,0.1,0.4,0.1,0.6,0.2c0.4,0.2,0.7,0.3,1.1,0.5c0.2,0.1,0.4,0.2,0.5,0.3
			c0.2,0.1,0.3,0.2,0.5,0.3l0,0l0,0c0.2,0.1,0.4,0.2,0.6,0.4c0.2,0.1,0.4,0.2,0.6,0.3c0.4,0.2,0.9,0.4,1.3,0.7
			c0.2,0.1,0.4,0.2,0.7,0.3l0.7,0.3c0.2,0.1,0.5,0.2,0.7,0.3c0.2,0.1,0.5,0.2,0.7,0.2l0.4,0.1l0.4,0.1c0.2,0.1,0.5,0.1,0.7,0.2
			c0.2,0.1,0.5,0.1,0.7,0.2c0.2,0,0.5,0.1,0.7,0.1c0.2,0,0.5,0.1,0.7,0.1c0.2,0,0.5,0.1,0.7,0.1c0.2,0,0.5,0.1,0.7,0.1
			c0.2,0,0.5,0.1,0.7,0.1c-0.5-0.1-0.9-0.2-1.4-0.3c-0.2-0.1-0.5-0.1-0.7-0.2c-0.2-0.1-0.5-0.1-0.7-0.2c-0.5-0.1-0.9-0.3-1.4-0.4
			c-0.2-0.1-0.5-0.1-0.7-0.2L32,14.6l-0.3-0.1c-0.2-0.1-0.4-0.2-0.7-0.3c-0.2-0.1-0.4-0.2-0.6-0.3c-0.4-0.2-0.9-0.4-1.3-0.6
			c-0.4-0.2-0.9-0.4-1.3-0.7l-0.6-0.3c-0.2-0.1-0.4-0.2-0.6-0.3l0,0c-0.2-0.1-0.4-0.2-0.5-0.3c-0.2-0.1-0.4-0.2-0.6-0.3
			c-0.2-0.1-0.4-0.2-0.6-0.3c-0.2-0.1-0.4-0.2-0.6-0.2c-0.2-0.1-0.4-0.1-0.6-0.2c-0.2-0.1-0.4-0.1-0.6-0.2c-0.1,0-0.2-0.1-0.3-0.1
			l-0.2,0.4c0.1,0,0.2,0.1,0.4,0.1C23.1,11,23.3,11,23.5,11.1z"/>
		<path class="st2" d="M24.8,18.4c0.2,0,0.3,0,0.4,0.1c0.1,0,0.1,0,0.1,0s-0.2-0.1-0.4-0.2c-0.1-0.1-0.3-0.1-0.5-0.2
			c-0.2-0.1-0.4-0.2-0.6-0.3c-0.2-0.1-0.5-0.2-0.7-0.4c0,0.2,0.1,0.3,0.1,0.5c0.2,0.1,0.3,0.1,0.5,0.2C24,18.3,24.5,18.4,24.8,18.4z
			"/>
	</g>
	<g>
		<path class="st8" d="M18.5,5.5l-1.3-0.6L16,6.5c-0.5-0.1-0.9-0.2-1.4-0.2L14,4.5l-1.5,0.2l-0.2,1.9c-0.4,0.1-0.9,0.3-1.3,0.5
			L9.6,5.8L8.5,6.7l0.8,1.8C9,8.8,8.7,9.2,8.4,9.6L6.5,9.2l-0.6,1.3l1.6,1.1c-0.1,0.5-0.2,0.9-0.2,1.4l-1.8,0.6l0.2,1.5l1.9,0.2
			c0.1,0.4,0.3,0.9,0.5,1.3L6.9,18l0.9,1.2l1.8-0.8c0.3,0.3,0.7,0.6,1.1,0.9l-0.4,1.9l1.3,0.6l1.1-1.6c0.5,0.1,0.9,0.2,1.4,0.2
			l0.6,1.8l1.5-0.2l0.2-1.9c0.4-0.1,0.9-0.3,1.3-0.5l1.5,1.3l1.2-0.9l-0.8-1.8c0.3-0.3,0.6-0.7,0.9-1.1l1.9,0.4l0.6-1.3L21.1,15
			c0.1-0.5,0.2-0.9,0.2-1.4l1.8-0.6L23,11.5L21,11.3c-0.1-0.4-0.3-0.9-0.5-1.3l1.3-1.5l-0.9-1.2l-1.8,0.8c-0.3-0.3-0.7-0.6-1.1-0.9
			L18.5,5.5z M17.8,14.8c-0.8,1.9-3,2.8-4.9,2c-1.9-0.8-2.8-3-2-4.9c0.8-1.9,3-2.8,4.9-2C17.7,10.7,18.6,12.9,17.8,14.8z M15.9,14
			c-0.4,0.9-1.4,1.3-2.2,0.9c-0.9-0.4-1.3-1.4-0.9-2.2c0.4-0.9,1.4-1.3,2.2-0.9C15.9,12.1,16.3,13.1,15.9,14z"/>
	</g>
	<g>
		<path class="st2" d="M33.4,7.5c0,0-1.5,2-1.8,3.6c-0.4,1.6-0.2,2.3,0.3,2.9c0.5,0.6,1.8,0.6,1.8,0.6s1.6-2.1,2.2-3.3
			s2.3-2.7,2.3-2.7s-2.1,2.9-2.9,4.3c-0.8,1.4-1,1.7-1,1.7s-0.2,0.4,1.2,0.5c1.3,0.1,2.7-0.7,2-0.2s-2.3,1-3.6,1s-4.1-1.5-4.1-1.5
			s1-0.4,0.9-1.5s-0.3-1.2-1.4-1.2c-1.1,0.1-1.7,0.2-2.5,0.5c-0.9,0.3-1.1,0.5-1.1,0.5s1.7-1,1.9-1.7c0.2-0.6,0.4-3.1-0.2-4.7
			c0,0,0.9,2.5,0.8,3.7s1.8,1.1,2.5,0.9c0.7-0.2,2-3,2.9-3.6"/>
	</g>
	<g>
		<path class="st0" d="M26.3,12.2c0,0-1.3-0.9-4.2-1.8S18.2,11,17.8,12c-0.5,1,0,3.5,2.9,4.7s3,1.4,4.6,1.8c1.6,0.4,3.7,2.1,4.6,2.8
			c0.9,0.7,1.6,1.5,1.6,1.5l5.8-6.8c0,0-4.3-0.6-6.9-1.8S26.3,12.2,26.3,12.2z"/>
	</g>
	<g>
		<g>
			<path class="st16" d="M20.7,14.9c0.2-0.8,1-2.3,1.4-2.7s0.1-0.9,0-1s-1.1-0.7-1.5-0.7s-1.7,0.3-2.1,1.3c-0.4,0.9-0.5,1.8,0.1,2.5
				C19.2,15,20.4,15.7,20.7,14.9z"/>
		</g>
	</g>
</g>
</svg>
