<?xml version="1.0" encoding="utf-8"?>
<!-- Generator: Adobe Illustrator 18.0.0, SVG Export Plug-In . SVG Version: 6.00 Build 0)  -->
<!DOCTYPE svg PUBLIC "-//W3C//DTD SVG 1.1//EN" "http://www.w3.org/Graphics/SVG/1.1/DTD/svg11.dtd">
<svg version="1.1" id="Layer_1" xmlns="http://www.w3.org/2000/svg" xmlns:xlink="http://www.w3.org/1999/xlink" x="0px" y="0px"
	 viewBox="0 0 48 48" enable-background="new 0 0 48 48" xml:space="preserve">
<g>
	<g>
		<g>
			<g>
				<g>
					<g>
						<g>
							<g>
								<path fill="#8AD7F8" d="M16.4,40.4l2.4-0.5v-2.6l-2.4-0.5c-0.2-0.7-0.4-1.3-0.8-1.9l1.3-2.1L15.2,31l-2.1,1.3
									c-0.6-0.3-1.2-0.6-1.9-0.8h0l-0.5-2.4H8.1l-0.5,2.4h0c-0.7,0.2-1.3,0.4-1.9,0.8L3.7,31l-1.8,1.8l1.3,2.1
									c-0.3,0.6-0.6,1.2-0.8,1.9v0L0,37.3v2.6l2.4,0.5c0.2,0.7,0.4,1.3,0.8,1.9l-1.3,2.1l1.8,1.8l2.1-1.3c0.6,0.3,1.2,0.6,1.9,0.8
									h0L8.1,48h2.6l0.5-2.4h0c0.7-0.2,1.3-0.4,1.9-0.8l2.1,1.3l1.8-1.8l-1.3-2.1C16,41.7,16.2,41.1,16.4,40.4L16.4,40.4z
									 M9.4,41.2c-1.5,0-2.6-1.2-2.6-2.6C6.8,37.1,8,36,9.4,36c1.4,0,2.6,1.2,2.6,2.6C12,40,10.9,41.2,9.4,41.2z"/>
							</g>
							<path fill="#55C0EB" d="M9.4,34.3c-2.4,0-4.3,1.9-4.3,4.3c0,2.4,1.9,4.3,4.3,4.3c2.4,0,4.3-1.9,4.3-4.3
								C13.7,36.2,11.8,34.3,9.4,34.3z M9.4,41.2c-1.5,0-2.6-1.2-2.6-2.6C6.8,37.1,8,36,9.4,36c1.4,0,2.6,1.2,2.6,2.6
								C12,40,10.9,41.2,9.4,41.2z"/>
						</g>
					</g>
				</g>
			</g>
		</g>
		<g>
			<g>
				<g>
					<g>
						<g>
							<g>
								<path fill="#F3705A" d="M45.6,40.4l2.4-0.5v-2.6l-2.4-0.5c-0.2-0.7-0.4-1.3-0.8-1.9l1.3-2.1L44.3,31l-2.1,1.3
									c-0.6-0.3-1.2-0.6-1.9-0.8h0l-0.5-2.4h-2.6l-0.5,2.4h0c-0.7,0.2-1.3,0.4-1.9,0.8L32.8,31L31,32.9l1.3,2.1
									c-0.3,0.6-0.6,1.2-0.8,1.9v0l-2.4,0.5v2.6l2.4,0.5c0.2,0.7,0.4,1.3,0.8,1.9L31,44.3l1.8,1.8l2.1-1.3
									c0.6,0.3,1.2,0.6,1.9,0.8h0l0.5,2.4h2.6l0.5-2.4h0c0.7-0.2,1.3-0.4,1.9-0.8l2.1,1.3l1.8-1.8l-1.3-2.1
									C45.2,41.7,45.4,41.1,45.6,40.4L45.6,40.4z M38.6,41.2c-1.5,0-2.6-1.2-2.6-2.6c0-1.5,1.2-2.6,2.6-2.6c1.4,0,2.6,1.2,2.6,2.6
									C41.2,40,40,41.2,38.6,41.2z"/>
							</g>
							<path fill="#F05540" d="M38.6,34.3c-2.4,0-4.3,1.9-4.3,4.3c0,2.4,1.9,4.3,4.3,4.3c2.4,0,4.3-1.9,4.3-4.3
								C42.9,36.2,41,34.3,38.6,34.3z M38.6,41.2c-1.5,0-2.6-1.2-2.6-2.6c0-1.5,1.2-2.6,2.6-2.6c1.4,0,2.6,1.2,2.6,2.6
								C41.2,40,40,41.2,38.6,41.2z"/>
						</g>
					</g>
				</g>
			</g>
		</g>
		<g>
			<g>
				<g>
					<g>
						<path fill="#FFD15C" d="M28.6,22.5c0.5-1.1,1.2-2.2,2-3.2c1.5-1.7,2.4-3.9,2.3-6.4c-0.2-4.6-3.9-8.4-8.5-8.6
							c-5.2-0.2-9.4,3.9-9.4,9c0,2.3,0.9,4.4,2.3,6c0.9,1,1.6,2.1,2.1,3.2H28.6z"/>
					</g>
					<g>
						<g>
							<path fill="#344A5E" d="M28.7,28v-5.5h-9.4V28c0,0.7,0.5,1.2,1.2,1.2h7C28.2,29.2,28.7,28.6,28.7,28z"/>
						</g>
						<g>
							<g>
								<path fill="#415A6B" d="M18,23.6L18,23.6c0-0.5,0.4-1,0.9-1.1l10-0.9c0.5,0,1,0.4,1.1,0.9v0L18,23.6z"/>
							</g>
							<path fill="#415A6B" d="M30,22.6c0,0.5-0.4,1-0.9,1.1l-10,0.9c-0.5,0-1-0.4-1.1-0.9"/>
						</g>
						<g>
							<g>
								<path fill="#415A6B" d="M18,27L18,27c0-0.5,0.4-1,0.9-1.1l10-0.9c0.5,0,1,0.4,1.1,0.9v0L18,27z"/>
							</g>
							<path fill="#415A6B" d="M30,25.9c0,0.5-0.4,1-0.9,1.1l-10,0.9c-0.5,0-1-0.4-1.1-0.9"/>
						</g>
					</g>
				</g>
			</g>
			<g>
				<g>
					<path fill="#FFD15C" d="M24.2,3.1h-0.4c-0.3,0-0.6-0.3-0.6-0.6v-2c0-0.3,0.3-0.6,0.6-0.6l0.4,0c0.3,0,0.6,0.3,0.6,0.6v2
						C24.8,2.9,24.5,3.1,24.2,3.1z"/>
				</g>
				<g>
					<path fill="#FFD15C" d="M19,4.4l-0.3,0.2c-0.3,0.2-0.6,0.1-0.8-0.2l-1-1.7c-0.2-0.3-0.1-0.6,0.2-0.8l0.3-0.2
						c0.3-0.2,0.6-0.1,0.8,0.2l1,1.7C19.4,3.9,19.3,4.2,19,4.4z"/>
				</g>
				<g>
					<path fill="#FFD15C" d="M15.2,8.1L15,8.4c-0.2,0.3-0.5,0.4-0.8,0.2l-1.7-1c-0.3-0.2-0.4-0.5-0.2-0.8l0.2-0.3
						c0.2-0.3,0.5-0.4,0.8-0.2l1.7,1C15.3,7.4,15.4,7.8,15.2,8.1z"/>
				</g>
				<g>
					<path fill="#FFD15C" d="M13.7,13.2v0.4c0,0.3-0.3,0.6-0.6,0.6h-2c-0.3,0-0.6-0.3-0.6-0.6v-0.4c0-0.3,0.3-0.6,0.6-0.6h2
						C13.5,12.6,13.7,12.9,13.7,13.2z"/>
				</g>
				<g>
					<path fill="#FFD15C" d="M15,18.3l0.2,0.3c0.2,0.3,0.1,0.6-0.2,0.8l-1.7,1c-0.3,0.2-0.6,0.1-0.8-0.2l-0.2-0.3
						c-0.2-0.3-0.1-0.6,0.2-0.8l1.7-1C14.5,18,14.9,18,15,18.3z"/>
				</g>
				<g>
					<path fill="#FFD15C" d="M32.8,18.7l0.2-0.3c0.2-0.3,0.5-0.4,0.8-0.2l1.7,1c0.3,0.2,0.4,0.5,0.2,0.8l-0.2,0.3
						c-0.2,0.3-0.5,0.4-0.8,0.2l-1.7-1C32.7,19.3,32.6,18.9,32.8,18.7z"/>
				</g>
				<g>
					<path fill="#FFD15C" d="M34.3,13.6v-0.4c0-0.3,0.3-0.6,0.6-0.6h2c0.3,0,0.6,0.3,0.6,0.6v0.4c0,0.3-0.3,0.6-0.6,0.6h-2
						C34.5,14.1,34.3,13.9,34.3,13.6z"/>
				</g>
				<g>
					<path fill="#FFD15C" d="M33,8.4l-0.2-0.3c-0.2-0.3-0.1-0.6,0.2-0.8l1.7-1c0.3-0.2,0.6-0.1,0.8,0.2l0.2,0.3
						c0.2,0.3,0.1,0.6-0.2,0.8l-1.7,1C33.5,8.8,33.1,8.7,33,8.4z"/>
				</g>
				<g>
					<path fill="#FFD15C" d="M29.3,4.6L29,4.4c-0.3-0.2-0.4-0.5-0.2-0.8l1-1.7c0.2-0.3,0.5-0.4,0.8-0.2l0.3,0.2
						c0.3,0.2,0.4,0.5,0.2,0.8l-1,1.7C29.9,4.6,29.6,4.7,29.3,4.6z"/>
				</g>
			</g>
		</g>
		<path fill="#344A5E" d="M27.4,38l-2.7-2.7v-2.8c0-0.4-0.3-0.7-0.7-0.7h0c-0.4,0-0.7,0.3-0.7,0.7v2.8L20.6,38
			c-0.3,0.3-0.3,0.8,0,1.1s0.8,0.3,1.1,0l2.4-2.4l2.4,2.4c0.3,0.3,0.8,0.3,1.1,0h0C27.7,38.7,27.7,38.3,27.4,38z"/>
	</g>
</g>
</svg>
