<?xml version="1.0" encoding="utf-8"?>
<!-- Generator: Adobe Illustrator 18.0.0, SVG Export Plug-In . SVG Version: 6.00 Build 0)  -->
<!DOCTYPE svg PUBLIC "-//W3C//DTD SVG 1.1//EN" "http://www.w3.org/Graphics/SVG/1.1/DTD/svg11.dtd">
<svg version="1.1" id="Layer_1" xmlns="http://www.w3.org/2000/svg" xmlns:xlink="http://www.w3.org/1999/xlink" x="0px" y="0px"
	 viewBox="0 0 48 48" enable-background="new 0 0 48 48" xml:space="preserve">
<g>
	<g>
		<g>
			<circle fill="#8AD7F8" cx="22.4" cy="22.4" r="22.4"/>
			<g>
				<path fill="#F3F3F3" d="M20.5,6.5c0,0.1-0.1,0.3-0.2,0.3c0,0,0,0-0.1,0.1c-0.1,0.2-0.2,0.4-0.3,0.5c0,0,0,0.1,0,0.1
					c0,0.1,0.1,0.2,0.1,0.3c-0.1,0.1-0.2,0.2-0.3,0.3c-0.4,0.3-0.9,0.5-1.3,0.5c-0.1,0-0.2,0.1-0.3,0.2c-0.2,0.3-0.4,0.3-0.6,0.5
					c-0.1,0.1-0.3,0.1-0.4,0.1c-0.1,0-0.1,0.1-0.2,0.1c0,0,0,0,0,0.1c-0.3,0.5-0.5,1-0.8,1.5C16,11,16,10.9,15.9,10.8
					c-0.1,0-0.1-0.1-0.2,0c-0.2,0.1-0.3,0-0.4-0.2c-0.1-0.2-0.2-0.4-0.3-0.6c0.1-0.1,0.1-0.2,0.2-0.3c-0.2,0-0.3,0-0.3-0.4
					c0-0.1,0.1-0.3,0.2-0.4c0.1-0.1,0.3-0.4,0.3,0c0.1-0.4,0.3-0.7,0.1-0.9c0,0.2-0.2,0.4-0.2,0.4c-0.1,0.4-0.2,0.2-0.3,0.2
					c0,0,0-0.1-0.1-0.2c0.1-0.1,0.1-0.2,0.2-0.2c0.1,0,0.1,0,0.2,0c0-0.1-0.1-0.2-0.1-0.3c-0.1,0.1-0.1,0.1-0.2,0.2
					C15.1,8.2,15,8.2,15,7.9c0.1-0.6,0-1-0.3-1c-0.3,0-0.7,0.1-0.9,0.1c-0.3,0-0.5-0.1-0.5-0.6c0.4-0.2,0.8-0.3,1.2-0.5
					C14.4,6,14.3,6,14.2,6c0.1-0.1,0.2-0.2,0.3-0.3c-0.2,0.2-0.4,0.3-0.6,0.4c-0.2,0.1-0.4,0.2-0.6,0.3c-0.2,0.1-0.4,0-0.7,0.4
					c-0.1,0.1-0.1,0.1-0.2,0.2c-0.1,0-0.1,0.1-0.2,0.1c-0.3,0.4-0.4,0.3-0.6,0.4c0,0,0.1,0,0.1,0.1c0,0,0.1,0.1,0.1,0.2
					c-0.2,0.1-0.4,0.3-0.5,0.2C11.2,7.9,11,8,10.9,8h0c-0.1,0.1-0.3,0.3-0.3,0.4c0,0.1-0.1,0.1-0.1,0.2c0,0,0.1,0,0.1-0.1
					c0.3-0.4,0.5-0.4,0.7-0.5c0,0,0.1,0,0,0.1c-0.1,0.4,0.1,0.2,0.2,0.2c-0.1-0.1-0.1-0.1-0.2-0.2c0,0,0-0.1,0.1-0.1
					c0.2-0.1,0.4-0.1,0.5,0c0.1,0.1,0.2,0.2,0.3,0.3c0,0,0.1,0,0.1,0c0.1,0,0.3-0.1,0.2,0.1c0.2,0,0.3,0.1,0.5,0.1
					C13,8.8,13,8.9,12.9,9c0.1,0.1,0.2,0.1,0.3,0.2c0.1,0,0.1,0,0.2,0.1c0.1,0,0.1,0.1,0.2,0.1c0,0,0.1,0.1,0.1,0.1
					c0,0.1-0.1,0.1-0.1,0.1c-0.1,0-0.3,0.4-0.5,0.3c-0.1-0.1-0.2-0.2-0.3-0.3c-0.2,0.5,0.1,0.4,0.2,0.6c-0.1,0.1-0.1,0.3-0.2,0.4
					c-0.1,0-0.2-0.1-0.2-0.1c0,0,0,0.1,0,0.1c-0.1,0.1-0.2,0.2-0.2,0.2c-0.3-0.1-0.6-0.2-0.7-0.5c0-0.1-0.2,0-0.3,0
					c0.3-0.3,0.5-0.6,0.8-0.9c-0.2-0.1-0.3-0.1-0.5-0.2c-0.1-0.1-0.2-0.1-0.2-0.2c-0.1-0.2-0.3,0-0.4,0c-0.1,0-0.2,0.1-0.4,0.2
					c0,0.1,0.1,0.1,0.1,0.2c-0.1,0.1-0.1,0.1-0.2,0.1c0,0.1,0.1,0.1,0.1,0.2c-0.2,0.2-0.4,0.3-0.6,0.5c0,0,0,0.1-0.1,0.1
					c0.2,0.2,0.4,0.4,0.6,0.5c0.1,0.1,0.3,0,0.5,0c0.1,0,0.3,0.1,0.4,0.1c0,0,0,0.1,0.1,0.1c0.3,0.1,0.3,0.1,0.1,0.7
					c0.2,0,0.3,0,0.5,0c0.1,0,0.1-0.1,0.2-0.1c0.2-0.3,0.3-0.3,0.4-0.1c0.1,0.2,0.1,0.4,0.2,0.6c0,0-0.1,0.2-0.1,0.3
					c0.1,0.1,0.3,0.1,0.5,0.3c0.1,0.1,0.2,0.2,0.3,0.4c0,0.1,0,0.3-0.1,0.4c0,0.1-0.1,0.1-0.2,0.1c-0.2,0.1-0.3,0.2-0.5,0.3
					c-0.1,0.1-0.2,0.1-0.3,0.1c-0.3,0.1-0.6,0.1-0.9,0.2c-0.2,0-0.3,0.2-0.5,0.4c0.3,0,0.7-0.5,0.9,0c-0.1,0.1-0.2,0.1-0.2,0.2
					c0,0.6,0.3,0.7,0.7,0.2c0,0.1,0.1,0.1,0.1,0.2c-0.4,0.2-0.8,0.4-1.2,0.7c0.1-0.2,0.1-0.3,0.2-0.4c0,0,0,0,0,0
					c-0.2-0.1-0.9,0.4-1.1,0.7c-0.1,0.1-0.1,0.3-0.2,0.4c0,0-0.1,0.1-0.1,0.1c-0.1,0.1-0.2,0.1-0.4,0.2c-0.2,0.2-0.4,0.3-0.5,0.6
					c-0.1,0.1-0.1,0.4-0.2,0.6C9,18,8.9,18.2,8.8,18.3c-0.4,0.3-0.7,0.7-0.7,1.2c-0.3-0.1-0.7-0.2-1-0.2c-0.1,0-0.3,0.1-0.5,0.1
					c-0.1,0-0.2-0.1-0.3-0.1c-0.1,0.1-0.3,0.1-0.4,0.2c-0.2,0.1-0.4,0.3-0.5,0.5C5,20.2,5.1,20.6,5,21c0,0.2,0,0.4,0,0.5
					c0,0.5,0.3,0.8,0.5,1c0.1,0.1,0.3,0.1,0.4,0c0.1-0.1,0.2-0.3,0.3-0.4c0-0.1,0.1-0.2,0.1-0.3C6.8,22,6.7,22,6.7,22.4
					c0,0.2,0,0.4,0,0.7c0.1,0,0.3,0,0.4,0c0.2,0,0.3,0.1,0.5,0.2c0,0,0.1,0.1,0.1,0.2c0,0.2,0,0.5,0,0.7c0,0.3,0.3,0.7,0.5,0.7
					c0.1,0,0.2-0.1,0.4-0.1c0.1,0,0.2,0,0.3,0.1C8.8,25,9,25,9,24.7c0.1-0.2,0.4-0.6,0.6-0.5c0,0,0.1,0.1,0.1,0.2
					c0,0.1,0.1,0.3,0.1,0.5c0.1-0.1,0.1-0.2,0.1-0.2c0.1-0.1-0.1-0.4,0.2-0.4c0.1,0,0.2-0.1,0.4,0.1c0,0,0.1,0,0.1,0
					c0.1,0,0.2,0,0.2,0c0.2,0.3,0.4,0.1,0.5-0.1c0.1,0.2,0.2,0.3,0.3,0.4c0,0,0,0-0.1,0.1c0.1,0.1,0.2,0.1,0.3,0.1
					c0.1,0.1,0.3,0.1,0.4,0.3c0.2,0.4,0.4,0.5,0.7,0.5c0.4,0,0.7,0.4,0.8,0.9c0,0.2,0.2,0.4,0,0.6c-0.1,0.1-0.2,0.3-0.3,0.5
					c0.1,0.1,0.2,0.3,0.2,0.3c0.2-0.1,0.5,0.1,0.6-0.3c0.1-0.2,0.1-0.2,0.2-0.1c0.1,0.1,0.2,0.2,0.4,0.3c-0.1,0.1-0.1,0.1-0.1,0.2
					c0,0,0,0,0,0.1c0.1,0,0.1,0.1,0.2,0.1c0.1,0,0.2-0.1,0.3-0.1c0.1,0,0.2-0.1,0.3,0c0.2,0.1,0.3,0.2,0.5,0.3
					c0.2,0.1,0.3,0.4,0.5,0.3c0,0,0.1,0.1,0.1,0.1c0.2,0.3,0.1,0.9,0,1.2c-0.2,0.3-0.3,0.6-0.4,0.9c0,0.1,0,0.2,0,0.4
					c0.1,0.7,0,1.3-0.1,1.9c-0.1,0.4-0.4,0.3-0.5,0.5c-0.1,0.1-0.2,0.2-0.4,0.3c-0.2,0.1-0.2,0.3-0.1,0.7c0.1,0.4,0,0.7-0.2,0.8
					c0,0,0,0,0,0c-0.1,0.3-0.2,0.5-0.2,0.8c0,0.2,0,0.5-0.1,0.5c-0.3,0-0.5-0.2-0.6-0.5c-0.1,0-0.2-0.1-0.3-0.1c0,0-0.1,0-0.1,0
					c0,0.1,0.1,0.1,0.1,0.2c0.1,0.1,0.2,0.2,0.3,0.3c0.1,0.1,0.2,0.2,0.3,0.3c0,0.1,0,0.1-0.1,0.2c0,0.1,0.1,0.1,0.1,0.2
					c0.1,0.3,0.1,0.4,0,0.5c-0.2,0-0.4,0.1-0.6,0.1c0.1,0.1,0.1,0.2,0.1,0.3c0,0.1,0,0.2-0.1,0.2c0,0-0.1,0-0.2-0.1
					c0.1,0.1,0.1,0.3,0.2,0.4c0,0,0,0,0.1,0.1c-0.1,0.3-0.1,0.6-0.1,0.9c0.1,0.1,0.2,0.2,0.4,0.4c-0.1,0.2-0.1,0.4-0.2,0.6
					c0,0.1,0,0.3,0.2,0.5c0,0-0.1,0.1-0.1,0.1c0.2,0.2,0.4,0.4,0.6,0.6c0,0.3-0.2,0.3-0.7-0.3c0.1,0,0.1-0.1,0.2-0.1
					c-0.1-0.1-0.2-0.2-0.3-0.2c0.1,0.3,0,0.4-0.1,0.2c-0.1-0.1-0.2-0.3-0.3-0.5c-0.1-0.2-0.2-0.4-0.3-0.5c-0.2-0.2-0.3-0.5-0.1-0.5
					c-0.1-0.1-0.1-0.2-0.2-0.4c-0.1,0-0.1-0.1-0.1-0.1c-0.1-0.4-0.1-0.8-0.1-1.1c-0.2,0-0.3-0.2-0.4-0.5c0-0.1,0-0.2-0.1-0.3
					c-0.1-0.2-0.1-0.4-0.1-0.6c0-0.3,0-0.6-0.1-1c-0.2-0.7-0.2-1.2-0.4-1.8c-0.1-0.6-0.2-1.1-0.3-1.7c-0.1-0.4-0.4-0.5-0.6-0.7
					c-0.2-0.2-0.5-0.4-0.7-0.7c-0.3-0.4-0.5-0.8-0.7-1.2c-0.2-0.3-0.4-0.6-0.5-1c-0.1-0.1-0.1-0.3-0.1-0.5c0-0.1,0.1-0.3,0.1-0.4
					c-0.1-0.1-0.1-0.1-0.1-0.2c-0.1-0.3,0-0.7,0.2-0.8c0.3-0.3,0.4-0.8,0.3-1.3c0-0.2-0.2-0.5-0.4-0.6c0-0.1-0.2,0-0.3,0.1
					c-0.1,0.1-0.2,0.2-0.3,0c-0.2-0.2-0.4-0.3-0.6-0.5C7.1,24.4,7,24.2,6.9,24c0,0-0.1-0.1-0.1-0.1c-0.4-0.1-0.8-0.3-1.1-0.7
					c-0.1-0.1-0.2-0.1-0.4-0.1c-0.2,0-0.4-0.1-0.6-0.2c-0.2-0.1-0.4-0.2-0.6-0.3c-0.1-0.1-0.3-0.2-0.4-0.3c-0.1-0.1-0.1-0.3-0.1-0.5
					c0-0.4-0.2-0.5-0.3-0.7c-0.1-0.1-0.1-0.2-0.2-0.3c-0.2-0.2-0.3-0.5-0.4-0.7c-0.1-0.1-0.1-0.3-0.1-0.4c-0.1-0.1-0.2-0.2-0.3-0.4
					c0,0-0.1,0.1-0.1,0.1c0.1,0.3,0.2,0.7,0.4,1c0,0.1,0,0.2,0,0.3c-0.1,0-0.1,0-0.2-0.1c-0.3-0.3-0.3-0.8-0.4-1.2
					c-0.1-0.3-0.1-0.6-0.4-0.5c0,0-0.1,0-0.1-0.1c-0.1-0.3-0.1-0.5-0.2-0.8c0-0.1-0.1-0.2-0.1-0.3c0-0.4,0.1-0.9,0.4-1.4
					c0.1-0.2,0.1-0.4,0.2-0.6c0.1-0.3-0.1-0.2-0.1-0.3c-0.1-0.1-0.1-0.2-0.2-0.3c0,0,0,0,0.1,0c0-0.1,0-0.2,0-0.3c0,0,0-0.1,0-0.1
					c0.5-1.3,1.1-2.5,1.8-3.7c0.2,0,0.6-0.3,0.9-0.5c0,0,0.1,0,0.1,0c0.1,0.1,0.4,0,0.8-0.1c0.2-0.1,0.3,0,0.4,0
					c0.1,0,0.2,0,0.3-0.1c0-0.1,0-0.1,0-0.2c0-0.1,0.1-0.1,0.2-0.2c-0.1,0-0.1,0-0.2,0c0.1-0.2,0.2-0.3,0.3-0.5
					c-0.7,0.6-0.9,0.7-1.1,0.5C5,9.9,5.1,9.7,5.3,9.5c0,0,0.1-0.1,0.2-0.1c0.1,0,0.1-0.1,0.2-0.1c0.1,0,0.3-0.1,0.4-0.1
					c0.1,0,0.1,0,0.1,0c0.2,0,0.4,0.1,0.7,0.1c0.1,0,0.4-0.2,0.3,0.1C7.5,9,7.8,8.8,7.9,8.9c-0.3,0.3-0.3,0.6,0,0.7
					C7.8,9.7,7.7,9.9,7.6,10C7.5,10,7.4,10.1,7.4,10C7.3,9.9,7.1,10,6.9,10.2c0.2,0,0.4,0.1,0.7,0.1c0.3,0,0.6-0.2,0.9-0.2
					c0,0,0-0.1,0.1-0.1c-0.1,0-0.1,0-0.2,0c0,0,0,0,0-0.1c0.1,0,0.2-0.1,0.2-0.1c0.1,0,0.2,0,0,0.3c-0.1,0.1-0.1,0.3-0.1,0.3
					c0,0.1,0.1-0.1,0.2-0.2c0.1-0.2,0.3-0.3,0.5-0.4c0,0,0-0.1,0-0.1c-0.1,0-0.2,0.1-0.2,0c0,0-0.1-0.1,0-0.2C8.9,9.3,9,9.2,9,9.1
					C9.2,9,9.3,8.8,9.3,8.7c0,0,0.2-0.3,0.3-0.3c0.1-0.1,0.1,0,0.2-0.1c0.1,0,0.2,0,0.3-0.1c0.1,0,0.1,0,0.1,0.1
					C10.1,8.4,10,8.5,9.9,8.6C9.8,8.6,9.8,8.6,9.7,8.7C9.6,8.7,9.5,8.8,9.4,8.9c-0.1,0.3,0.2,0.2,0,0.5c0.1,0.1,0.1,0.2,0.2,0.2
					c0.1-0.1,0.1-0.2,0.3-0.3c0,0.2-0.1,0.3-0.1,0.4c0,0.1,0.1,0.2,0.2,0c0.1-0.1,0.3-0.3,0.3-0.5c0.1-0.1,0.2-0.1,0.2-0.1
					C10.4,9.1,10.4,9,10.3,9c-0.1,0-0.2,0.1-0.3,0.2c0,0,0,0,0-0.1c0,0,0,0,0,0C10.1,9,10,8.9,9.9,8.8c0.2-0.1,0.3-0.5,0.5-0.7
					c-0.1,0-0.2,0-0.4,0c0,0-0.1,0,0,0c0.2-0.4,0-0.3-0.2-0.2C9.7,8,9.6,8,9.7,7.7c0.2,0,0.5-0.1,0.6,0c0,0.1,0.1,0.2,0.4,0
					c0.1-0.1,0.1,0.1,0.2,0c0.2-0.1,0.5-0.2,0.7-0.3c-0.1,0-0.3,0-0.4,0c-0.1,0-0.2,0.1-0.3,0.1c-0.1,0,0-0.2,0.1-0.4
					c0.2-0.2,0.4-0.3,0.6-0.5c0-0.1-0.1-0.1-0.1-0.2c0.1,0,0.3-0.1,0.4-0.1c-0.2-0.2-0.6,0.2-0.8-0.1c0.1-0.1,0.2-0.1,0.2-0.1
					c0.1,0,0.4-0.2,0.5-0.2c0,0,0.2-0.1,0.4-0.2c0.5-0.2,1-0.5,1.3-0.4c0.1,0,0.2-0.1,0.3-0.1c0.1,0,0.2,0,0.3,0
					c0.2,0,0.4-0.1,0.6-0.1c0.1,0,0.1,0.1,0.2,0.1c-0.1,0.1-0.2,0.2-0.2,0.2c0,0,0,0,0,0.1c0.1,0,0.3,0,0.4-0.1
					c0.4-0.4,0.7-0.3,1-0.4c0.2-0.1,0.4,0.1,0.7-0.2c0.1-0.1,0.3-0.1,0.4-0.3c0.2-0.2,0.2,0,0.1,0.3c0-0.1,0.1-0.2,0.1-0.3
					c0.2-0.2,0.4-0.1,0.5,0c0,0,0,0,0,0c0.2-0.1,0.3-0.2,0.5-0.3c0,0,0.1,0,0.1,0c0.4,0,0.8,0,1.3,0c0.1,0,0.3,0,0.4,0.1
					c0,0,0,0.2,0.1,0.3c0.1,0,0.2,0,0.3-0.1c0.3,0,0.6,0,0.9-0.1c0,0,0,0,0.1,0.1c-0.4,0.2-0.9,0.5-1.4,0.9c0.1,0.1,0.1,0.1,0.2,0.2
					c-0.1,0.1-0.1,0.2-0.2,0.3C20.4,6.2,20.6,6.1,20.5,6.5z"/>
				<path fill="#F3F3F3" d="M43.3,15.8c0,0.1-0.1,0.2-0.2,0.2c-0.1,0.1-0.4-0.1-0.4-0.3c0-0.3-0.2-0.2-0.3-0.3
					c-0.1-0.1-0.2-0.2-0.3-0.2c-0.3-0.1-0.4,0.1-0.6,0.3c-0.1-0.2-0.1-0.3-0.2-0.4c-0.3,0.1-0.2,0.6-0.7,0.3c0,0.1-0.1,0.2-0.1,0.3
					c0.4,0.4,0.7,0.3,1,0c0.1-0.1,0.3,0,0.4,0c0,0,0,0.1,0.1,0.1c-0.1,0.1-0.1,0.1-0.2,0.2c0,0.1-0.1,0.2-0.1,0.3
					c0.2,0.2,0.4,0.3,0.7,0.5c-0.1,0.1-0.1,0.1-0.2,0.1c0,0,0.1,0,0.1,0c0.3,0.1,0.6,0.4,0.6,0.7c0,0.3,0,0.6-0.1,0.8
					c-0.1,0.3-0.3,0.5-0.5,0.8c0,0.1-0.2,0-0.3,0c0,0.2,0,0.3-0.2,0.4c-0.2,0-0.3,0.2-0.5,0.1c0,0-0.1,0.2-0.1,0.2
					c-0.2,0-0.2,0.1-0.2,0.2c-0.1,0.3,0,0.5,0.3,0.6c0.3,0.2,0.6,0.4,0.8,0.8c0.1,0.2,0.1,0.4,0,0.7c-0.1,0.3-0.3,0.1-0.5,0
					c-0.1,0-0.1-0.1-0.2-0.1c0,0.1,0.1,0.2,0.1,0.3c0,0,0,0.1,0.1,0.1c0,0,0,0.1,0,0.1c-0.3-0.2-0.6-0.3-0.9-0.5c0-0.1,0-0.1,0-0.2
					c-0.1,0-0.1,0-0.2,0c0,0,0,0.2,0,0.2c0.2,0.2,0.1,0.4,0.1,0.7c0,0.1,0,0.2,0,0.2c0.2,0.2,0.3,0.7,0.6,0.8
					c0.3,0.1,0.7,0.7,0.8,1.1c-0.4-0.1-0.8-0.3-1-0.9c0-0.1-0.2-0.3-0.3-0.3c-0.3-0.1-0.4-0.5-0.4-0.7c0-0.3-0.1-0.5-0.3-0.7
					c-0.1-0.1-0.2-0.3-0.3-0.5c-0.1-0.2-0.2-0.3-0.4-0.3c-0.2,0-0.4,0.1-0.5-0.3c0-0.1-0.2-0.2-0.4-0.3c0,0-0.1,0-0.1,0
					c-0.2-0.2-0.4-0.4-0.6-0.6c0,0.1,0.1,0.2,0.1,0.4c0,0,0,0-0.1,0c-0.1-0.2-0.2-0.4-0.3-0.6c-0.1,0-0.1,0.1-0.2,0.1
					c0,0.2,0.1,0.4,0.1,0.6c0,0,0,0,0.1,0c0,0.2-0.1,0.3-0.1,0.5c-0.2,0.5-0.3,1-0.5,1.4c-0.1,0.2-0.1,0.2,0,0.4
					c0.3,0.5,0.2,0.9,0.1,1.4c0,0,0,0,0,0c0,0.1-0.1,0.2-0.1,0.3c-0.1-0.1-0.2-0.2-0.3-0.3c-0.3-0.5-0.7-0.9-1-1.4
					c-0.3-0.4-0.5-0.9-0.6-1.4c0-0.1-0.1-0.1-0.1-0.2c0,0.2,0,0.4,0,0.4c-0.1,0-0.3,0-0.4-0.1c0,0,0-0.1,0-0.1
					c0-0.1,0.1-0.2,0.2-0.4c-0.1,0-0.3,0.1-0.4,0.1c0,0,0-0.1,0-0.1c0-0.1,0-0.1,0-0.2c-0.2-0.1-0.4-0.1-0.7-0.2
					c-0.3,0.1-0.6,0.2-1,0.3c-0.1,0-0.2,0-0.3,0.1c-0.1,0-0.3,0.1-0.4-0.2c0-0.1-0.2-0.1-0.2,0c-0.2,0.2-0.3,0.2-0.6,0.1
					c-0.3-0.1-0.5-0.3-0.7-0.5c-0.1-0.1-0.3-0.3-0.4-0.1c-0.1-0.1-0.1-0.2-0.2-0.3c-0.1-0.1-0.3-0.3-0.4-0.1c0,0.1-0.1,0.1-0.2,0.1
					c0,0,0,0.1,0,0.1c0.1,0,0.3,0.1,0.4,0.1c0.1,0,0.3,0,0.3,0.2c0,0.1,0.1,0.2,0.2,0.3c0.2,0.2,0.4,0.3,0.6,0.6
					c0.1,0.1,0.3,0.3,0.5,0.4c0.2,0.1,0.4-0.1,0.4-0.5c0-0.1,0-0.2,0.1-0.3c0.1,0.1,0.1,0.2,0.2,0.3c0.1,0.2,0.2,0.3,0.4,0.3
					c0.1,0,0.3,0.2,0.4,0.3c0,0,0,0.2,0,0.3c0,0.1-0.1,0.2-0.1,0.3c0.1,0.3,0,0.3-0.2,0.3c0.1,0.3,0,0.5-0.1,0.6
					c-0.1,0.1-0.3,0.2-0.3,0.5c0,0.1-0.1,0.1-0.1,0.1c-0.3,0.4-0.7,0.7-1,1c-0.1,0.1-0.1,0.1-0.2,0.1c0.1,0.4,0.3,0.6,0.6,0.4
					c0.3-0.2,0.6-0.4,0.9-0.6c0.1,0.3,0.1,0.4,0.1,0.6c0,0.5-0.1,1.1-0.2,1.6c-0.1,0.6-0.3,1-0.7,1.3c0.1,0,0.1,0.1,0.3,0.1
					c-0.1,0.2-0.2,0.4-0.2,0.6c0,0.2,0,0.4,0,0.6c-0.1,0.7,0.3,1.2,0.5,1.7c0.2,0.4,0.4,0.8,0.4,1.2c0.1,0.5-0.1,0.8-0.3,0.9
					c-0.2,0.2-0.2,0.6-0.3,0.9c0,0,0,0.1,0,0.2c0.1,0.2,0.2,0.4,0.3,0.6c0.1,0.3,0.1,0.5-0.1,0.6c-0.2,0.1-0.2,0.3-0.1,0.6
					c0,0.1,0,0.2,0,0.3c-0.1,0.7-0.2,1.4-0.5,1.8c-0.2,0.2-0.3,0.4-0.6,0.4c-0.1,0-0.2,0.1-0.3,0.2c-0.2,0.2-0.4,0-0.5-0.4
					c-0.1-0.3-0.3-0.6-0.5-0.8c-0.3-0.3-0.5-0.7-0.7-1.2c-0.2-0.6-0.5-1-0.9-1.4c-0.1-0.1-0.2-0.3-0.2-0.4c-0.1-0.4-0.1-0.8-0.1-1.2
					c0-0.1,0-0.3-0.1-0.4c-0.2-0.3-0.3-0.7-0.5-1c-0.2-0.4-0.5-0.7-0.8-1c-0.2-0.2-0.4-0.5-0.4-0.9c0-0.3-0.2-0.5-0.3-0.8
					c-0.1-0.2-0.4-0.3-0.6-0.1c-0.1,0.1-0.2,0.1-0.3-0.1c-0.1-0.2-0.5-0.2-0.7-0.1c-0.2,0.1-0.3,0.3-0.4,0.5
					c-0.1,0.1-0.2,0.2-0.4,0.2c-0.2,0-0.4,0.1-0.6,0.3c-0.2,0.2-0.4,0.2-0.6,0.1c-0.2-0.1-0.4-0.2-0.5-0.3c-0.2-0.1-0.4-0.3-0.5-0.5
					c-0.2-0.3-0.4-0.5-0.7-0.7c-0.4-0.3-0.6-0.7-0.4-1.1c0-0.2,0-0.3-0.1-0.5c0-0.1-0.1-0.2-0.1-0.3c-0.1-0.2-0.3-0.3-0.3-0.4
					c-0.1-0.2-0.1-0.5-0.1-0.7c0-0.4,0.2-0.7,0.2-1.1c0-0.3,0.2-0.5,0.2-0.7c0-0.1,0.1-0.3,0.1-0.5c-0.1-0.5,0-0.7,0.1-1
					c0.1-0.1,0.1-0.3,0.1-0.5c0-0.1,0.1-0.2,0.1-0.1c0.4,0.1,0.7-0.2,1-0.5c0.1-0.1,0.3-0.3,0.4-0.3c0.3-0.1,0.5-0.2,0.8-0.3
					c0.1,0,0.2-0.1,0.3-0.1c0.2,0.2,0.3,0.5,0.2,0.7c0.3,0.2,0.5,0.3,0.8,0.2c0.1,0,0.2,0,0.3,0.1c0.3,0.3,0.6,0,0.9,0.3
					c0,0,0.2-0.2,0.1-0.3c-0.1-0.2-0.1-0.3,0-0.4c0.1-0.1,0.3-0.2,0.4-0.2c0.5,0.2,1,0.1,1.5,0.1c0.6,0,0.8-0.8,0.4-1.6
					c0-0.1,0-0.1-0.1-0.3c-0.1,0.1-0.2,0.2-0.4,0.3c-0.2,0.1-0.5,0.1-0.7,0.2c-0.2,0.1-0.6-0.2-0.8-0.6c-0.1-0.1-0.1-0.2-0.1-0.3
					c-0.1,0-0.2-0.1-0.3,0c-0.1,0.1-0.1,0.2-0.2,0.4c0.1,0.2,0.1,0.3,0.2,0.5c0.1,0.3,0,0.4-0.2,0.2c-0.3-0.3-0.6-0.4-0.8-1
					c0-0.1-0.3-0.2-0.4-0.3c-0.2-0.1-0.4-0.2-0.6-0.3c-0.1,0-0.1,0-0.2,0c-0.3-0.3-0.3-0.3-0.4,0.1c0.4,0.3,0.9,0.5,1.3,0.8
					c0.1,0.2,0.1,0.4,0.2,0.6c-0.3-0.2-0.5-0.4-0.7-0.5c-0.2-0.1-0.4-0.2-0.7-0.3c0,0-0.1,0-0.1-0.1c-0.3-0.3-0.5-0.2-0.7,0.1
					c0,0.1-0.2,0.1-0.2,0.1c-0.2,0-0.3,0-0.2,0.4c0,0.1,0,0.3-0.1,0.3c-0.1,0.1-0.2,0.3-0.2,0.6c0,0.4-0.1,0.7-0.3,0.8
					c-0.1,0-0.1,0.1-0.1,0.1c-0.1,0.1-0.2,0.3-0.4,0.1c-0.1-0.1-0.2,0-0.4,0.1c-0.2-0.5-0.4-1-0.5-1.5c-0.1-0.3,0.1-0.3,0.2-0.4
					c0.3-0.1,0.5-0.1,0.8-0.2c0.1,0,0.1-0.1,0.2-0.2c0.1-0.2-0.1-0.5-0.2-0.7c-0.2-0.3-0.4-0.3-0.6-0.4c0,0,0-0.1,0-0.1
					c0.1,0,0.2-0.1,0.2-0.1c0.1-0.1,0.1-0.2,0.2-0.2c0.2-0.1,0.3-0.5,0.5-0.6c0.2-0.1,0.3-0.3,0.5-0.4c0,0,0.1-0.1,0.1-0.1
					c0-0.4,0.3-0.5,0.5-0.7c0.1-0.1,0.2-0.3,0.4-0.3c0.1,0,0.2,0,0.3,0c0.1-0.2,0.2-0.6,0.6-0.4c0.1,0.1,0.2-0.2,0.4-0.3
					c-0.1-0.2-0.3-0.4-0.2-0.6c0.1-0.2,0.2,0,0.4,0.1c0-0.2,0-0.5-0.2-0.7c0.2-0.1,0.2-0.5,0.5-0.1c0.1-0.1,0.2-0.3,0.2-0.4
					c-0.3,0-0.6,0-0.8,0.2c-0.2,0.2-0.5,0-0.7-0.4c0-0.1,0-0.2,0-0.2c0-0.1,0.1-0.2,0.1-0.4c0-0.1,0.1-0.2,0.2-0.4
					c-0.1,0-0.3-0.1-0.3-0.1c-0.1,0.1-0.4,0-0.3,0.5c0,0.1-0.1,0.3-0.2,0.4c-0.2,0.3-0.2,0.5,0.2,0.8c-0.1,0.1-0.2,0.1-0.2,0.2
					c0.1,0.1,0.2,0.2,0.2,0.3c0,0.2,0,0.3,0.1,0.5c0.1,0.3,0,0.2-0.1,0.3c0,0,0,0.1,0,0.1c0,0.1-0.1,0.1-0.1,0.1
					c0,0-0.1-0.1-0.1-0.1c0-0.2-0.1-0.3-0.2-0.4c-0.1-0.1-0.3-0.3-0.4-0.5c-0.1,0.2-0.2,0.3-0.3,0.5C20.1,16,20,16,19.8,15.8
					c-0.1-0.2-0.3-0.4-0.3-0.7c0-0.1,0-0.2,0-0.2c0.2-0.2,0.4-0.4,0.6-0.5c0.1-0.1,0.2-0.1,0-0.3c0-0.2,0-0.3,0.1-0.5
					c0-0.1,0-0.3,0.1-0.3c0.2-0.1,0.1-0.6,0.4-0.6c0,0,0,0,0-0.1c0-0.4,0.2-0.3,0.3-0.4c0.1-0.1,0.2-0.2,0.4-0.3
					c0.1-0.1,0.3-0.1,0.4-0.1c0.1,0,0.2-0.1,0.3-0.1c0.1,0,0.2,0,0.3,0c0,0.1-0.1,0.1-0.1,0.2c0,0,0,0,0,0c0.2,0,0.4,0,0.6,0
					c0.3-0.1,0.7,0,1.1,0c0.1,0,0.3,0.1,0.4,0.2c0,0.1,0,0.2,0,0.3c0.2-0.1,0.3-0.3,0.5,0c0,0,0-0.2,0-0.3c0.1-0.2,0.6,0.3,0.4-0.3
					c0.3-0.1,0.5-0.3,0.8-0.4c0.3-0.1,0.6-0.2,0.9-0.3c0,0-0.1-0.1-0.1-0.1c0-0.1,0-0.2,0-0.2c0.2,0,0.4,0,0.6,0c0.1,0,0.2,0,0.3,0
					c0.1,0,0.3,0.1,0.5,0.1c-0.3-0.2-0.5-0.4-0.7-0.5c0-0.2,0-0.4,0-0.5c0.1-0.1,0.3-0.1,0.5-0.1c0.3,0.4,0.4,0.7,0.8,1
					c0.1,0.3,0,0.5-0.3,0.5c0.7,0.1,0.8-0.2,0.5-0.6c0.1,0,0.2-0.1,0.3,0c0.1,0,0.3,0.2,0.2,0c-0.3-0.2-0.4-0.2-0.5-0.1
					c-0.1,0-0.2,0.1-0.4-0.2c0-0.1-0.2-0.2-0.3-0.3c0.1,0,0.1-0.2,0.4,0c0.1,0.1,0.2-0.1,0.3-0.2c0.1,0,0.2,0,0.3,0c0,0,0.1,0,0.1,0
					c0.2,0,0.4,0.1,0.8,0.4C30.1,9.9,30,9.7,30,9.6c-0.3-0.1-0.4,0.1-0.8-0.4C29.4,9.2,29.8,9.2,30,9c0-0.1-0.1-0.3,0-0.3
					c0.1-0.1,0.3-0.1,0.4-0.2c0,0,0.1,0,0.1-0.1c0.1,0,0.3,0,0.4-0.1c0,0,0.1,0,0.1,0c0.1,0,0.2,0,0.3-0.1c0.1,0,0.2-0.1,0.2-0.2
					c0-0.2,0.2-0.2,0.6-0.1c0.2,0.1,0.3,0,0.5,0c0.2,0,0.4,0,0.6,0c0.1,0,0.2,0.1,0.4,0.1c0,0,0.1,0.1,0.1,0.1
					c-0.2,0.1-0.4,0.3-0.5,0.4c0,0,0.1,0,0.1,0.1c0.2,0,0.3-0.1,0.5-0.1c0.1-0.1,0.2-0.2,0.6,0.1c-0.3-0.3,0.1-0.2,0.2-0.2
					c0.1,0,0.3,0,0.5,0c0.1,0,0.3,0.1,0.3,0.1c0.2,0,0.3-0.1,0.4-0.1c0.1,0,0.3,0,0.5,0.1c0.3,0.1,0.6,0.2,1,0.3
					c0.2,0.1,0.2,0,0.1-0.1c0.1,0,0.2,0,0.2,0c0.2,0,0.4,0,0.6,0c0.2,0,0.3,0,0.2-0.2c-0.1-0.2,0.2-0.2,0.4-0.1
					c0.2,0,0.2-0.1,0.6,0.1c0,0,0.1,0,0.1,0c0.1-0.1,0.2-0.1,0.6,0c0,0,0,0,0,0c0.6,0.7,1.1,1.5,1.5,2.3c-0.1,0.2-0.2,0.5-0.3,0.7
					c0.3,0.2,0.6,0.3,0.7,0.1c0,0,0,0,0,0c0.4,0.7,0.8,1.5,1.1,2.3c-0.1,0.1-0.2,0.1-0.3,0.1c-0.3,0-0.3,0.1-0.3,0.4
					c0,0.1,0,0.2-0.1,0.3c0,0.1-0.1,0.1-0.1,0.2c0.2,0.1,0.4,0.3,0.6,0.4C43.1,15.5,43.3,15.7,43.3,15.8z"/>
			</g>
		</g>
		<g>
			<g>
				<g>
					<circle fill="#415A6B" cx="33.2" cy="33.2" r="14.8"/>
				</g>
			</g>
			<g>
				<g>
					<circle fill="#FFFFFF" cx="33.2" cy="33.2" r="11.5"/>
				</g>
			</g>
			<g>
				<g>
					<g>
						<path fill="#66C6B9" d="M27.7,39.3c-0.1,0-0.3-0.1-0.4-0.2c-0.2-0.2-0.2-0.6,0-0.8l8.4-8.4c0.2-0.2,0.6-0.2,0.8,0
							c0.2,0.2,0.2,0.6,0,0.8l-8.4,8.4C27.9,39.2,27.8,39.3,27.7,39.3z"/>
					</g>
				</g>
			</g>
			<g>
				<path fill="#F3705A" d="M38.4,34h-5.2c-0.5,0-0.8-0.4-0.8-0.8c0-0.5,0.4-0.8,0.8-0.8h5.2c0.5,0,0.8,0.4,0.8,0.8
					C39.3,33.7,38.9,34,38.4,34z"/>
			</g>
			<g>
				<g>
					<path fill="#FFD15C" d="M33.2,34c-0.5,0-0.8-0.4-0.8-0.8v-8c0-0.5,0.4-0.8,0.8-0.8c0.5,0,0.8,0.4,0.8,0.8v8
						C34,33.7,33.7,34,33.2,34z"/>
				</g>
			</g>
			<g>
				<g>
					<g>
						<circle fill="#415A6B" cx="33.2" cy="33.2" r="2.4"/>
					</g>
				</g>
				<g>
					<g>
						<circle fill="#344A5E" cx="33.2" cy="33.2" r="1.1"/>
					</g>
				</g>
			</g>
		</g>
	</g>
</g>
</svg>
