<?xml version="1.0" encoding="utf-8"?>
<!-- Generator: Adobe Illustrator 18.0.0, SVG Export Plug-In . SVG Version: 6.00 Build 0)  -->
<!DOCTYPE svg PUBLIC "-//W3C//DTD SVG 1.1//EN" "http://www.w3.org/Graphics/SVG/1.1/DTD/svg11.dtd">
<svg version="1.1" id="Layer_1" xmlns="http://www.w3.org/2000/svg" xmlns:xlink="http://www.w3.org/1999/xlink" x="0px" y="0px"
	 viewBox="0 0 512 512" enable-background="new 0 0 512 512" xml:space="preserve">
<g>
	<path fill="#F2F2F2" d="M488.8,510H23.2C11.5,510,2,500.5,2,488.8V152c0-11.7,9.5-21.2,21.2-21.2h465.5c11.7,0,21.2,9.5,21.2,21.2
		v336.8C510,500.5,500.5,510,488.8,510z"/>
	<path fill="#41596B" d="M376.1,63.8h-58.3C317.8,29.7,290.1,2,256,2c-34.1,0-61.8,27.7-61.8,61.8h-58.4
		c-15.6,0-28.2,12.6-28.2,28.2v75.1h296.7V92C404.3,76.4,391.7,63.8,376.1,63.8z M256,31.9c17.6,0,31.8,14.3,31.8,31.9
		c0,17.6-14.3,31.8-31.8,31.8c-17.6,0-31.9-14.3-31.9-31.8C224.1,46.2,238.4,31.9,256,31.9z"/>
	<rect x="266.7" y="238.5" fill="#FFD05C" width="185.3" height="26.4"/>
	<rect x="266.7" y="325.4" fill="#65C5B8" width="185.3" height="26.4"/>
	<rect x="266.7" y="412.3" fill="#CDD5DF" width="185.3" height="26.4"/>
	<rect x="60" y="238.5" fill="#89D6F7" width="174.5" height="200.2"/>
	<path fill="#FFFFFF" d="M170.5,359.5c14.6-8.2,24.4-23.7,24.4-41.6c0-26.3-21.4-47.7-47.7-47.7c-26.3,0-47.7,21.4-47.7,47.7
		c0,17.9,9.9,33.5,24.4,41.6c-34.2,10-59.2,41.6-59.2,79.1h165C229.7,401.2,204.7,369.6,170.5,359.5z"/>
</g>
</svg>
