<?xml version="1.0" encoding="utf-8"?>
<!-- Generator: Adobe Illustrator 16.0.0, SVG Export Plug-In . SVG Version: 6.00 Build 0)  -->
<!DOCTYPE svg PUBLIC "-//W3C//DTD SVG 1.1//EN" "http://www.w3.org/Graphics/SVG/1.1/DTD/svg11.dtd">
<svg version="1.1" id="Layer_1" xmlns="http://www.w3.org/2000/svg" xmlns:xlink="http://www.w3.org/1999/xlink" x="0px" y="0px"
	 width="48px" height="48px" viewBox="0 0 48 48" enable-background="new 0 0 48 48" xml:space="preserve">
<g>
	<path fill="#F2F2F2" d="M8.528,10.889c-0.459,0-0.831,0.372-0.831,0.832v4.885c0,0.586-0.474,1.06-1.058,1.06
		c-0.586,0-1.06-0.474-1.06-1.06v-4.885c0-0.46-0.372-0.832-0.831-0.832H4.61c-0.459,0-0.831,0.372-0.831,0.832v4.885
		c0,0.586-0.474,1.06-1.058,1.06c-0.586,0-1.059-0.474-1.059-1.06v-4.885c0-0.46-0.373-0.832-0.832-0.832S0,11.261,0,11.721v5.047
		c0,2.029,1.24,3.848,3.026,4.557c-0.635,3.31-2.508,14.355,0.189,17.051c0.518,0.519,2.412,0.519,2.93,0
		c2.691-2.69,0.828-13.708,0.191-17.036c1.766-0.669,3.023-2.375,3.023-4.375v-5.244C9.359,11.261,8.987,10.889,8.528,10.889"/>
	<path fill="#F2F2F2" d="M43.322,9.235c-2.584,0-4.68,3.737-4.68,6.321v0.972c0,2.03,1.295,3.754,3.103,4.402
		c-0.533,2.689-2.706,14.627,0.112,17.446c0.518,0.518,2.41,0.518,2.93,0c2.818-2.818,0.646-14.757,0.111-17.446
		C46.706,20.282,48,18.559,48,16.528v-0.972C48,12.972,45.906,9.235,43.322,9.235"/>
	<path fill="#FF7058" d="M2.019,28.246c-0.392,4.086-0.388,8.546,1.195,10.13c0.519,0.519,2.412,0.519,2.93,0
		c1.583-1.584,1.587-6.044,1.195-10.13H2.019z"/>
	<path fill="#FF7058" d="M40.658,28.246c-0.393,4.083-0.385,8.546,1.199,10.13c0.519,0.519,2.412,0.519,2.931,0
		c1.582-1.584,1.59-6.047,1.196-10.13H40.658z"/>
	<path fill="#CDD6E0" d="M38.643,24c0,8.086-6.556,14.643-14.643,14.643c-8.086,0-14.641-6.557-14.641-14.643
		c0-8.086,6.556-14.641,14.641-14.641C32.087,9.358,38.643,15.914,38.643,24"/>
	<path fill="#ACB3BA" d="M34.996,24c0,6.074-4.923,10.996-10.995,10.996c-6.072,0-10.994-4.922-10.994-10.996
		C13.006,17.927,17.928,13.005,24,13.005C30.072,13.005,34.996,17.927,34.996,24"/>
	<path fill="#9FACB7" d="M24,14.005c5.904,0,10.707,4.656,10.971,10.494c0.006-0.166,0.024-0.33,0.024-0.5
		C34.996,17.926,30.074,13.005,24,13.005c-6.072,0-10.995,4.922-10.995,10.994c0,0.17,0.019,0.334,0.025,0.5
		C13.293,18.661,18.096,14.005,24,14.005"/>
</g>
</svg>
