<?xml version="1.0" encoding="utf-8"?>
<!-- Generator: Adobe Illustrator 16.0.0, SVG Export Plug-In . SVG Version: 6.00 Build 0)  -->
<!DOCTYPE svg PUBLIC "-//W3C//DTD SVG 1.1//EN" "http://www.w3.org/Graphics/SVG/1.1/DTD/svg11.dtd">
<svg version="1.1" id="Layer_1" xmlns="http://www.w3.org/2000/svg" xmlns:xlink="http://www.w3.org/1999/xlink" x="0px" y="0px"
	 width="48px" height="48px" viewBox="0 0 48 48" enable-background="new 0 0 48 48" xml:space="preserve">
<g>
	<path fill="#CDD6E0" d="M34.26,39.691c-0.771,2.98-4.96,5.93-8.13,7.79c-0.61,0.35-1.27,0.52-1.92,0.52
		c-1.43,0-2.811-0.8-3.471-2.2c-0.43-0.92-0.459-1.96-0.14-2.92c0.12-0.35,0.2-0.7,0.261-1.05c0.229-1.35,0.09-2.75-0.431-4.05
		l-5.45-13.39l-2.93-7.19c-0.689-1.71-2.32-2.84-4.15-2.9c-0.91-0.04-1.56-0.07-1.869-0.07c-2.041,0-4.511-4.08-5.69-8.15
		c-1.181-4.07,1.08-5.58,1.08-5.58c2.78-1.04,13.3-0.21,18.36,0.26c2.58,0.24,5.06,1.16,7.119,2.72c1.61,1.22,2.92,2.79,2.391,4.48
		c-0.34,0.56-0.75,1.08-1.211,1.55c-1.17,1.21-1.64,2.95-1.17,4.57l5.931,20.69C33.319,34.721,34.56,39.691,34.26,39.691"/>
	<path fill="#ACB3BA" d="M1.415,0.505c0,0-2.252,1.501-1.072,5.576c1.18,4.074,3.646,8.148,5.684,8.148
		c2.037,0,18.549,1.501,23.268-6.272c0.529-1.689-0.785-3.258-2.392-4.474c-2.063-1.561-4.543-2.477-7.119-2.719
		C14.72,0.287,4.194-0.542,1.415,0.505"/>
	<path fill="#CDD6E0" d="M26.902,3.483c-2.063-1.561-4.543-2.477-7.119-2.72C14.72,0.287,4.194-0.542,1.415,0.505
		c0,0-2.251,1.501-1.072,5.575c0.301,1.036,0.893,2.194,1.133,3.064C6.427,9.27,25.793,9.394,29.341,6.596
		C29.075,5.433,28.067,4.364,26.902,3.483"/>
	<path fill="#F8B64C" d="M32.394,20.501c-0.043-0.011-0.076-0.011-0.076-0.011s-0.01,0-0.032-0.011
		C32.317,20.491,32.361,20.491,32.394,20.501"/>
	<path fill="#F8B64C" d="M12.16,17.462c-0.634,0.354-2.582,1.451-2.972,1.777c-0.469,0.389-1.248,2.552,1.207,3.059
		c2.592,0.409,3.488-0.545,3.488-0.545l-0.117-0.344L12.16,17.462z"/>
	<path fill="#F8B64C" d="M24.355,24.82c0.01-0.34,0.04-0.68,0.149-0.95c0,0,0.051,0.4,0.131,0.9L24.355,24.82z"/>
	<path fill="#ADB3BA" d="M16.298,22.428c1.281,1.401,2.5,2.918,4.482,3.281c2.412,0.441,4.661-0.145,6.686,1.495
		c1.672,1.353,1.916,3.239,2.955,4.979c0.678,1.134,1.647,3.262,3.469,2.724c1.291-0.381,1.297-2.918,1.188-4.114
		c-0.229-2.536-1.559-3.928-3.515-5.415c-0.971-0.738-2.17-1.289-3.245-1.787c-2.024-0.937-4.574-0.601-6.748-0.772
		c-1.733-0.136-3.44-0.311-5.192-0.311"/>
	<path fill="#ADB3BA" d="M24.63,37.141c-0.32,0.77-0.9,0.61-0.84,1.45c0.119,1.69,0.199,2.58-1.791,2.86
		c-0.409,0.06-0.77,0.2-1.139,0.38c0.229-1.35,0.09-2.75-0.431-4.05l-5.45-13.39c0.03-0.1,0.07-0.19,0.12-0.28l0.24,0.16
		c0.62,0.49,1.29,0.95,1.88,1.48c0.689,0.62,1.5,1.22,2.07,1.95c0.92,1.15,2.16,2.66,1.75,4.22c1.59,0.89,2.82,1.41,3.4,3.25
		C24.62,35.721,24.87,36.561,24.63,37.141"/>
	<path fill="#FFD15C" d="M48.001,30.38c-1.996-0.632-4.468-1.724-6.666-3.615c-4.578-4.946-8.218-9.233-13.586-9.73l0.616,2.127
		l0.054,0.206c-0.303-0.152-2.711-0.994-2.711-0.994c-0.81-0.227-1.662-0.194-2.451,0.097l-1.522,0.551
		c-0.961,0.346-1.966,0.583-2.981,0.702l-1.586,0.184c-0.281,0.032-0.541,0.183-0.692,0.421c-0.486,0.712-1.155,2.354,1.469,3.672
		c3.467,1.738,6.329,1.015,6.565,0.723c0,0,1.815,0.81,2.572,0.691c1.717,0.756,2.592,2.106,2.592,2.106s1.576,5.573,3.801,8.715
		c0.227,0.713,0.346,1.458,0.346,2.193c0,1.242-0.324,2.473-0.939,3.574l-0.324,0.573c0,0,5.886,3.272,12.085,3.272l2.979-0.367
		l0.381,0.116V30.38z"/>
	<path fill="#F2F2F2" d="M20.415,19.841c-0.512,0.121-1.094,0.213-1.616,0.274l-1.593,0.184c-0.168,0.02-0.317,0.108-0.408,0.244
		c-0.238,0.355-0.49,0.901-0.337,1.486c0.057,0.216,0.165,0.424,0.323,0.625c0.479,0.605,1.269,0.863,2.035,0.77
		c0.664-0.08,1.242-0.227,1.596-0.499C20.051,21.903,20.051,20.812,20.415,19.841"/>
	<path fill="#F8B64C" d="M31.259,19.983c0,0,0.367,0.335,1.026,0.497c-0.161-0.021-0.831-0.13-1.685-0.346
		c-0.68-0.173-1.469-0.432-2.182-0.767l-0.054-0.205l-0.075-0.281c0,0,0.366-0.518,0.475-0.831c0,0,0.098,0.551,0.098,0.831
		c0,0,0.54-0.486,0.551-0.831c0,0,0.313,0.507,0.215,0.939c0,0,0.433-0.486,0.887-0.637c0,0-0.454,0.562-0.508,0.994
		c0,0,0.658,0,0.734,0.378c0,0,0.615-0.562,0.993-0.583C31.734,19.141,31.302,19.627,31.259,19.983"/>
	<path fill="#F8B64C" d="M33.478,36.24c0.068,0.217,0.125,0.437,0.173,0.658c0.437,0.409,0.955,0.865,1.499,1.289
		c0.188,0.141,0.377,0.282,0.563,0.42c0.191,0.13,0.377,0.263,0.562,0.382c0.188,0.114,0.366,0.232,0.542,0.331
		c0.178,0.096,0.344,0.187,0.499,0.271c0.159,0.074,0.306,0.142,0.435,0.202c0.127,0.065,0.25,0.098,0.344,0.137
		c0.191,0.071,0.301,0.112,0.301,0.112s-0.105-0.049-0.292-0.133c-0.093-0.046-0.209-0.086-0.331-0.159
		c-0.124-0.069-0.264-0.146-0.417-0.23c-0.147-0.094-0.306-0.195-0.474-0.303c-0.168-0.109-0.334-0.238-0.512-0.363
		c-0.174-0.131-0.348-0.274-0.527-0.415c-0.172-0.149-0.348-0.301-0.523-0.452c-0.689-0.621-1.328-1.294-1.787-1.815
		c-0.182-0.208-0.335-0.389-0.453-0.533C33.208,35.846,33.341,36.048,33.478,36.24"/>
	<path fill="#FFD15C" d="M19.796,41.066c-0.798-0.345-1.488-1.224-1.053-3.363c0,0-3.938-1.772-2.981-6.387
		c0,0-4.183-2.054-0.942-7.316c1.653,1.387,3.155,2.883,4.487,4.502c0,0,1.183,1.942-0.534,3.686c0,0,4.699,1.384,4.728,3.45
		c0.028,2.065-1.099,2.375-1.099,2.375s1.139,0.848,0.078,2.257C21.854,41.101,20.751,41.478,19.796,41.066"/>
	<path fill="#F8B64C" d="M20.289,32.747c-0.841-0.36-1.517-0.559-1.517-0.559c-0.73-0.101-2.416-0.663-3.183-1.028
		C15.59,31.16,16.834,32.448,20.289,32.747"/>
	<path fill="#F2F2F2" d="M17.616,31.899c-0.552-0.177-2.176-0.849-2.015-2.59c0.282-1.073,0.603-1.208,1.092-0.95
		c0.472,0.249,1.162,1.508,1.11,3.398C17.802,31.853,17.704,31.927,17.616,31.899"/>
	<path fill="#F8B64C" d="M18.228,37.409c0.811,0.447,2.994,0.957,4.484,0.957c-0.145-0.229-0.311-0.353-0.311-0.353
		s0.056-0.016,0.138-0.06C21.251,38.198,18.228,37.409,18.228,37.409"/>
	<path fill="#F2F2F2" d="M19.381,34.552c1.68-1.236,1.944-0.349,1.944-0.349s0.647,2.09,0.519,3.221
		c-0.028,0.248-0.29,0.471-0.521,0.388C19.338,37.099,17.7,35.788,19.381,34.552"/>
	<path fill="#F2F2F2" d="M19.934,40.511c-0.228-0.337-0.985-1.611-0.093-2.409c0.039-0.034,0.092-0.05,0.144-0.043l1.147,0.143
		c0.115,0.014,0.186,0.131,0.146,0.239c-0.14,0.381-0.397,1.21-0.285,1.892c0.017,0.102-0.061,0.195-0.163,0.203l-0.736,0.052
		C20.03,40.593,19.97,40.564,19.934,40.511"/>
</g>
</svg>
