<?xml version="1.0" encoding="utf-8"?>
<!-- Generator: Adobe Illustrator 18.0.0, SVG Export Plug-In . SVG Version: 6.00 Build 0)  -->
<!DOCTYPE svg PUBLIC "-//W3C//DTD SVG 1.1//EN" "http://www.w3.org/Graphics/SVG/1.1/DTD/svg11.dtd">
<svg version="1.1" id="Layer_1" xmlns="http://www.w3.org/2000/svg" xmlns:xlink="http://www.w3.org/1999/xlink" x="0px" y="0px"
	 viewBox="0 0 48 48" enable-background="new 0 0 48 48" xml:space="preserve">
<g>
	<g>
		<g>
			<polygon fill="#CED6E0" points="8.3,21 24,5.3 39.7,21 43.3,21 24,1.8 4.7,21 			"/>
		</g>
	</g>
	<g>
		<path fill="#66C6B9" d="M44,48H4c-2.2,0-4-1.8-4-4V24.8c0-2.2,1.8-4,4-4h40c2.2,0,4,1.8,4,4V44C48,46.2,46.2,48,44,48z"/>
		<rect x="4" y="24.8" fill="#FFFFFF" width="40" height="19.2"/>
		<g>
			<path fill="#415A6B" d="M14.1,32.9c0,1.4-0.6,2.4-1.7,2.8l2.3,3.2h-2.4l-2-2.8H8.8v2.8h-2v-8.9h3.4c1.4,0,2.4,0.2,3,0.7
				C13.8,31.1,14.1,31.8,14.1,32.9z M11.7,33.9c0.2-0.2,0.4-0.6,0.4-1.1s-0.1-0.8-0.4-1c-0.3-0.2-0.7-0.3-1.3-0.3H8.8v2.6h1.5
				C11,34.3,11.4,34.2,11.7,33.9z"/>
			<path fill="#415A6B" d="M22.5,29.9v1.8h-4.4v1.8h4v1.7h-4v1.8h4.6v1.8h-6.6v-8.9H22.5z"/>
			<path fill="#415A6B" d="M30.7,29.9h2v8.9h-2l-4.2-5.6v5.6h-2v-8.9h1.9l4.4,5.7V29.9z"/>
			<path fill="#415A6B" d="M38.6,31.6v7.2h-2v-7.2h-2.5v-1.7h7v1.7H38.6z"/>
		</g>
	</g>
	<g>
		<circle fill="#F3705A" cx="24" cy="3.5" r="3.5"/>
		<circle fill="#F05540" cx="24" cy="3.5" r="1.7"/>
	</g>
</g>
</svg>
