<?xml version="1.0" encoding="utf-8"?>
<!-- Generator: Adobe Illustrator 18.0.0, SVG Export Plug-In . SVG Version: 6.00 Build 0)  -->
<!DOCTYPE svg PUBLIC "-//W3C//DTD SVG 1.1//EN" "http://www.w3.org/Graphics/SVG/1.1/DTD/svg11.dtd">
<svg version="1.1" id="Layer_1" xmlns="http://www.w3.org/2000/svg" xmlns:xlink="http://www.w3.org/1999/xlink" x="0px" y="0px"
	 viewBox="0 0 48 48" enable-background="new 0 0 48 48" xml:space="preserve">
<g>
	<g>
		<g>
			<rect x="7" y="6.9" fill="#CED6E0" width="33.9" height="36.6"/>
			<path fill="#E8EAE9" d="M41,6.9H7c-1.2,0-2.3-1-2.3-2.3v0c0-1.2,1-2.3,2.3-2.3H41c1.2,0,2.3,1,2.3,2.3v0
				C43.2,5.9,42.2,6.9,41,6.9z"/>
		</g>
		<g>
			<path fill="#E8EAE9" d="M41,48H7c-1.2,0-2.3-1-2.3-2.3v0c0-1.2,1-2.3,2.3-2.3H41c1.2,0,2.3,1,2.3,2.3v0C43.2,47,42.2,48,41,48z"
				/>
		</g>
	</g>
	<g>
		<circle fill="#F3F3F3" cx="24" cy="25.2" r="10.2"/>
		<g>
			<g>
				<path fill="#415A6B" d="M25.8,28.5l2.2,3.9c2.6-1.5,4.2-4.2,4.1-7.2l-4.5,0C27.7,26.6,27,27.8,25.8,28.5z"/>
			</g>
			<g>
				<g>
					<path fill="#415A6B" d="M25.9,22l2.3-3.9c-2.6-1.5-5.7-1.5-8.3,0l2.3,3.9C23.3,21.4,24.7,21.4,25.9,22z"/>
				</g>
				<g>
					<path fill="#415A6B" d="M20.3,25.2l-4.5,0c0,3,1.6,5.7,4.1,7.2l2.2-3.9C21,27.8,20.3,26.6,20.3,25.2z"/>
				</g>
				<circle fill="#415A6B" cx="24" cy="25.3" r="2.3"/>
			</g>
		</g>
	</g>
	<g>
		<rect x="11.7" y="0" fill="#415A6B" width="5.9" height="2.4"/>
	</g>
</g>
</svg>
