<?xml version="1.0" encoding="utf-8"?>
<!-- Generator: Adobe Illustrator 19.0.1, SVG Export Plug-In . SVG Version: 6.00 Build 0)  -->
<svg version="1.1" id="Layer_1" xmlns="http://www.w3.org/2000/svg" xmlns:xlink="http://www.w3.org/1999/xlink" x="0px" y="0px"
	 viewBox="0 0 48 48" style="enable-background:new 0 0 48 48;" xml:space="preserve">
<style type="text/css">
	.st0{fill:#E8EAE9;}
	.st1{fill:#CED6E0;}
	.st2{fill:#66C6B9;}
	.st3{fill:#415A6B;}
	.st4{fill:#344A5E;}
	.st5{fill:#F05540;}
	.st6{fill:#F3705A;}
	.st7{fill:#FFD15C;}
	.st8{fill:#F7B64C;}
</style>
<g>
	<g>
		<g>
			<path class="st0" d="M34,0H9.4L0,9.4V45c0,1.7,1.3,3,3,3h31c1.7,0,3-1.3,3-3V3C37,1.3,35.7,0,34,0z"/>
		</g>
		<path class="st1" d="M0,9.4h6.4c1.7,0,3-1.3,3-3V0L0,9.4z"/>
		<g>
			<rect x="4" y="41" class="st1" width="29" height="3"/>
		</g>
		<g>
			<rect x="4" y="34" class="st1" width="29" height="3"/>
		</g>
		<g>
			<rect x="4" y="27" class="st1" width="29" height="3"/>
		</g>
		<g>
			<rect x="4" y="20" class="st1" width="29" height="3"/>
		</g>
		<g>
			<rect x="4" y="13" class="st1" width="13.4" height="3"/>
		</g>
		<g>
			<rect x="20.6" y="4" class="st2" width="12.4" height="12.4"/>
		</g>
		<g>
			<g>
				<path class="st3" d="M47.5,39.6L47.5,39.6c-0.6,0.6-1.7,0.6-2.3,0l-9.8-9.8l2.3-2.3l9.8,9.8C48.2,37.9,48.2,38.9,47.5,39.6z"/>
			</g>
			<g>
				<g>
					
						<rect x="31.3" y="22.5" transform="matrix(0.7071 0.7071 -0.7071 0.7071 29.1739 -16.7031)" class="st4" width="6.8" height="8.8"/>
				</g>
				<g>
					<g>
						<path class="st3" d="M42,26.4L42,26.4c-0.5,0.5-1.4,0.5-1.9,0l-4.9-4.9c-0.5-0.5-0.5-1.4,0-1.9l0,0c0.5-0.5,1.4-0.5,1.9,0
							l4.9,4.9C42.5,25.1,42.5,25.9,42,26.4z"/>
					</g>
					<g>
						<path class="st3" d="M34.4,34L34.4,34c-0.5,0.5-1.4,0.5-1.9,0l-4.9-4.9c-0.5-0.5-0.5-1.4,0-1.9l0,0c0.5-0.5,1.4-0.5,1.9,0
							l4.9,4.9C34.9,32.6,34.9,33.5,34.4,34z"/>
					</g>
				</g>
			</g>
		</g>
		<g>
			<g>
				<g>
					<polygon class="st5" points="6.8,33.8 13.7,48 15,44.2 18.8,45.5 11.9,31.3 					"/>
				</g>
				<g>
					<polygon class="st6" points="12,33.8 5.2,48 3.8,44.2 0,45.5 6.9,31.3 					"/>
				</g>
			</g>
			<g>
				<g>
					<path class="st7" d="M18.8,30.4c0,0.9-2.1,1.5-2.4,2.3c-0.3,0.8,1.1,2.5,0.6,3.2s-2.5-0.1-3.3,0.5c-0.7,0.5-0.6,2.7-1.4,3
						c-0.8,0.3-2-1.5-2.9-1.5c-0.9,0-2.1,1.8-2.9,1.5s-0.7-2.4-1.4-3c-0.7-0.5-2.7,0.3-3.3-0.5c-0.5-0.7,0.8-2.4,0.6-3.2
						C2.1,31.9,0,31.4,0,30.4c0-0.9,2.1-1.5,2.4-2.3s-1.1-2.5-0.6-3.2s2.5,0.1,3.3-0.5c0.7-0.5,0.6-2.7,1.4-3s2,1.5,2.9,1.5
						s2.1-1.8,2.9-1.5c0.8,0.3,0.7,2.4,1.4,3c0.7,0.5,2.7-0.3,3.3,0.5c0.5,0.7-0.8,2.4-0.6,3.2C16.7,29,18.8,29.5,18.8,30.4z"/>
				</g>
				<g>
					<circle class="st8" cx="9.4" cy="30.4" r="4.8"/>
				</g>
			</g>
		</g>
	</g>
</g>
</svg>
