<?xml version="1.0" encoding="utf-8"?>
<!-- Generator: Adobe Illustrator 18.0.0, SVG Export Plug-In . SVG Version: 6.00 Build 0)  -->
<!DOCTYPE svg PUBLIC "-//W3C//DTD SVG 1.1//EN" "http://www.w3.org/Graphics/SVG/1.1/DTD/svg11.dtd">
<svg version="1.1" id="Layer_1" xmlns="http://www.w3.org/2000/svg" xmlns:xlink="http://www.w3.org/1999/xlink" x="0px" y="0px"
	 viewBox="0 0 48 48" enable-background="new 0 0 48 48" xml:space="preserve">
<g>
	<g>
		<g>
			<path fill="#F3F3F3" d="M38.5,48H11.7L0,36.3V3c0-1.7,1.3-3,3-3h35.5c1.7,0,3,1.3,3,3v42C41.5,46.7,40.2,48,38.5,48z"/>
			<rect x="5" y="5" fill="#CED6E0" width="31.5" height="2.7"/>
			<rect x="5" y="13.3" fill="#CED6E0" width="31.5" height="2.7"/>
			<rect x="5" y="21.6" fill="#CED6E0" width="31.5" height="2.7"/>
			<rect x="5" y="29.9" fill="#CED6E0" width="31.5" height="2.7"/>
			<polygon fill="#CED6E0" points="11.7,48 11.7,36.3 0,36.3 			"/>
		</g>
		<g>
			<g>
				<path fill="#F3705A" d="M34.7,18.5c0,0.3,0,0.7,0,1l-1.9,1.2l1,2.4l2.2-0.5c0.2,0.3,0.5,0.5,0.7,0.8l-0.5,2.2l2.4,1l1.2-1.9
					c0.3,0,0.7,0,1,0l1.2,1.9l2.4-1L44,23.5c0.3-0.2,0.5-0.5,0.8-0.7l2.2,0.5l1-2.4l-1.9-1.2c0-0.3,0-0.7,0-1l1.9-1.2l-1-2.4
					l-2.2,0.5c-0.2-0.3-0.5-0.5-0.7-0.8l0.5-2.2l-2.4-1L41,13.4c-0.4,0-0.7,0-1,0l-1.2-1.9l-2.4,1l0.5,2.2c-0.3,0.2-0.5,0.5-0.7,0.7
					l-2.2-0.5l-1,2.4L34.7,18.5z M37.1,17.6c0.8-1.9,3-2.7,4.8-1.9c1.9,0.8,2.7,3,1.9,4.8c-0.8,1.9-3,2.7-4.8,1.9
					C37.1,21.6,36.3,19.5,37.1,17.6z M38.8,18.4c0.4-0.9,1.4-1.3,2.3-0.9c0.9,0.4,1.3,1.4,0.9,2.3c-0.4,0.9-1.4,1.3-2.3,0.9
					C38.8,20.3,38.4,19.3,38.8,18.4z"/>
			</g>
			<g>
				<path fill="#FFD15C" d="M24.5,31c-0.3,0.5-0.6,1-0.9,1.6l-3.5,0.6l-0.3,3.1l3.3,1.4c0.1,0.6,0.3,1.2,0.5,1.7l-2,2.9l2,2.4
					l3.3-1.4c0.5,0.3,1,0.6,1.6,0.9l0.6,3.5l3.1,0.3l1.4-3.3c0.6-0.1,1.2-0.3,1.7-0.5l2.9,2l2.4-2L39.2,41c0.3-0.5,0.6-1,0.9-1.6
					l3.5-0.6l0.3-3.1l-3.3-1.4c-0.1-0.6-0.3-1.2-0.5-1.7l2-2.9l-2-2.4l-3.3,1.4c-0.5-0.4-1-0.6-1.6-0.9l-0.6-3.5L31.5,24l-1.3,3.3
					c-0.6,0.1-1.2,0.3-1.7,0.5l-2.9-2l-2.4,2L24.5,31z M29.5,33.1c1.6-1.3,3.9-1,5.2,0.5c1.3,1.6,1.1,3.9-0.5,5.2
					c-1.6,1.3-3.9,1-5.2-0.6C27.6,36.7,27.9,34.4,29.5,33.1z"/>
			</g>
		</g>
	</g>
</g>
</svg>
