<?xml version="1.0" encoding="utf-8"?>
<!-- Generator: Adobe Illustrator 18.0.0, SVG Export Plug-In . SVG Version: 6.00 Build 0)  -->
<!DOCTYPE svg PUBLIC "-//W3C//DTD SVG 1.1//EN" "http://www.w3.org/Graphics/SVG/1.1/DTD/svg11.dtd">
<svg version="1.1" id="Layer_1" xmlns="http://www.w3.org/2000/svg" xmlns:xlink="http://www.w3.org/1999/xlink" x="0px" y="0px"
	 viewBox="0 0 48 48" enable-background="new 0 0 48 48" xml:space="preserve">
<g>
	<g>
		<g>
			<g>
				<path fill="#FFD15C" d="M32.4,36.8c0,0-0.2,1.5,0,1.8c0.2,0.2,0.3,0.7,0.4,1c0,0.2,0,0.4,0,0.6c-0.2,0.5-0.5,1.6-0.6,1.8
					c-0.1,0.2-1,1-1,1l-0.7,0.3c0,0-0.4-0.5,0.4-0.9c0,0,0.2-0.5,0.4-0.5c0,0,0-0.7,0-0.9l-0.1-0.7l-0.6-0.1c0,0,0.1,1.9-0.8,1.9v-1
					c0,0,0.1-1.7,0.3-2.2c0.2-0.5,0.3-2,0.3-2L32.4,36.8z"/>
			</g>
		</g>
		<g>
			<g>
				<g>
					<path fill="#425A6B" d="M30.2,39.1L29.5,48H17.1c0,0,0.3-2.9,0.2-3.6c-0.1-0.7-1.6-5.5,2.1-7.8s10.4-2.8,10.4-2.8L30.2,39.1z"
						/>
				</g>
			</g>
			<g>
				<g>
					<path fill="#425A6B" d="M29.1,13.1c0,0,1,0.9,1.2,2.3s0.5,4.7,0.7,5.2c0.1,0.5,0.6,6.8,0.6,6.8s1.1,6.5,1.3,7.2
						c0.2,0.7,0.1,2.5,0.1,2.5h-2.8L29.2,32l-1.3-11.4C27.9,20.6,28.4,13.6,29.1,13.1z"/>
				</g>
			</g>
			<g>
				<g>
					<path fill="#FFD15C" d="M20.9,8.6V10l4.9,3.4c0,0,0.1-2.2,0.1-2.6c0-0.3,0-0.5,0-0.5s1.3-1.2,1.5-4c0.1-2.9,0.1-2.9,0.1-2.9
						S26.9,2.3,25.6,2c-1.4-0.3-3.3-0.3-3.3-0.3L20.6,3C20.5,3,20.6,8.2,20.9,8.6z"/>
				</g>
			</g>
			<g>
				<g>
					<path fill="#F5B54C" d="M25.9,10.8c0-0.3,0-0.5,0-0.5s-0.6,0.8-2.5,0.4S20.9,8,20.8,7.6c0,0,0.1,1.5,1.1,3.1l3.9,2.7
						C25.8,13.4,25.8,11.2,25.9,10.8z"/>
				</g>
			</g>
			<g>
				<g>
					<path fill="#CED6E0" d="M23.3,12.3L21,12.4c0,0,2,5.1,2.1,5.4c0,0.4,5.8,7.5,5.9,7.7c0.1,0.1,0.3-0.1,0.4-1.5
						c0.1-1.4-2-10.1-2-10.1l-0.7-1.7L25.4,13l-0.2,0L23.3,12.3z"/>
				</g>
			</g>
			<g>
				<g>
					<ellipse fill="#344A5E" cx="20.1" cy="18.1" rx="2" ry="3.5"/>
				</g>
			</g>
			<g>
				<g>
					<path fill="#425A6B" d="M18.3,12.7c0,0-1.4-0.2-1.9,0c-0.5,0.2-1.3,1.3-1.3,1.8c-0.1,0.5,0.1,2.3,0.4,3.1
						c0.3,0.8,0.4,0.8,0.2,1.2c-0.2,0.4-0.5,1.7-0.3,2.3c0,0-0.5,1.1-0.3,2.1c0.2,1,0.9,1.5,1.2,1.7c0.3,0.2,2.7,1,2.7,1
						s-0.2-2,0-2.8c0.2-0.8,1.1-1.9,2-1.7c0,0-1.1-0.3-1.2-0.4c-0.1-0.1,0.3,0,0.3-0.4c0-0.3,0-1.3,0.2-1.9c0.2-0.6,0.4-1.6,0.4-1.6
						l0.1-3L18.3,12.7z"/>
				</g>
			</g>
			<g>
				<g>
					<path fill="#344A5E" d="M29.5,34.7c0,0-0.2,5-1.5,6c-1.2,1.1-4.7,1.4-7.5,1.2c-2.8-0.3-3.9-0.9-3.9-0.9s0.7-6.3,1.2-8.8
						c0.5-2.5,0.6-9.6,0.6-9.6s2.4-3.7,2.3-4.9c-0.1-1.2-1.7-5.2-4.4-4.9c0,0,2-0.5,2.5-0.8c0.5-0.3,1-0.5,1-0.5H21l3.1,3l4.3,7.9
						l0.7,1.4C29,23.7,29.6,30.7,29.5,34.7z"/>
				</g>
			</g>
			<g>
				<g>
					<path fill="#E8EAE8" d="M18.6,25.4c0,0,4.7,0.8,2.4-4c0,0-1.6-0.4-2.2,0.3C18.3,22.4,17.1,24.6,18.6,25.4z"/>
				</g>
			</g>
			<g>
				<g>
					<path fill="#FFD15C" d="M20.1,21.4c0,0,0.8,0.2,0.9,0.2c0,0-0.1-0.7,0.3-1.1c0.4-0.4,0.7-0.7,0.8-0.9c0.1-0.2,0.4-1.1,0.4-1.5
						c0-0.4,0.6-0.4,0.8-0.1c0.1,0.4,0.2,0.9,0.2,1.1c0,0.2-0.2,0.8-0.2,0.8l0.2,0.8l-0.2,4.1c0,0-0.4,0.4-0.8,0.4
						c-0.4,0-1.2-0.5-1.3-0.6c0-0.1-1.8,0.1-2.7-0.2C17.7,24.2,18.4,21.6,20.1,21.4z"/>
				</g>
			</g>
			<g>
				<g>
					<path fill="#344A5E" d="M26.9,12.2c0,0,1.1,0.6,1.7,0.7c0.7,0.1,1.3,1.7,1.4,2.5c0.1,0.8,0.3,4.3,0.3,4.3s0,10,0.2,10.8
						c0.2,0.8-0.2,10.3-0.2,10.3s-0.2,0.4-0.3,0c-0.2-0.4-0.3-4.6-0.4-5.5c-0.1-0.9-0.8-8.5-0.8-8.5s0.5-5.1,0.3-5.6
						c-0.2-0.6-2-7.9-2-7.9L26.9,12.2z"/>
				</g>
			</g>
			<g>
				<g>
					<path fill="#425A6B" d="M27.1,13l1.3,1c0,0,0.7,3.4,0.8,4.6c0,0,0,0.1,0,0.1c0.1,2.3,0.1,4.6-0.2,6.8c-0.1,0.6-0.1,1.1-0.1,1.3
						l0,0c-0.1-3.1-0.4-6.1-1.1-9.1l-0.6-2.8L27.1,13z"/>
				</g>
			</g>
			<g>
				<g>
					<path fill="#E8EAE8" d="M27.1,12.2c0,0,0.3,0.1,0.3,0.6c0,0.5-0.3,2.1-0.3,2.1l-1.2-2.2C25.9,12.7,26.9,12.2,27.1,12.2z"/>
				</g>
			</g>
			<g>
				<g>
					<path fill="#F3F3F3" d="M20.9,9.4c0,0,0.5,0.7,1,1c0.5,0.3,3.5,2.6,3.5,2.6l-1.1,1.9l-3.9-4L20.9,9.4z"/>
				</g>
			</g>
			<g>
				<g>
					<polygon fill="#F3F3F3" points="25.9,10.6 25.4,13 27.1,12.2 					"/>
				</g>
			</g>
			<g>
				<g>
					<path fill="#425A6B" d="M20.7,10c0,0-0.3,0.2-0.4,0.6c-0.1,0.4-0.5,0.8-0.5,0.8l1.1,1.7l1.2,0.1l-0.2,1c0,0,2.1,2.5,3.2,3.7
						c1.1,1.2,3.2,3.7,3.4,4.5c0,0-0.9-2.3-1.3-3.3c-0.2-0.4-0.5-1-0.7-1.6c-0.7-1.4-1.5-2.8-2.5-4c-0.7-0.9-1.5-1.9-1.9-2.2
						C21.1,10.5,20.6,10.4,20.7,10z"/>
				</g>
			</g>
			<g>
				<g>
					<path fill="#425A6B" d="M20.1,20.7c0-0.3,0-1.3,0.2-1.9c0-0.1,0.1-0.2,0.1-0.4h-4.7c0,0.1,0,0.2-0.1,0.3
						c-0.2,0.4-0.5,1.7-0.3,2.3c0,0-0.5,1.1-0.3,2.1c0.2,1,0.9,1.5,1.2,1.7c0.3,0.2,2.7,1,2.7,1s-0.2-2,0-2.8c0.2-0.8,1.1-1.9,2-1.7
						c0,0-1.1-0.3-1.2-0.4C19.7,20.9,20.1,21,20.1,20.7z"/>
				</g>
			</g>
			<g>
				<g>
					<path fill="#FFD15C" d="M21.2,20.8c0,0,0.7-0.1,1.3-0.1s1.4,0.2,1.6,0.3s0.3,0.5,0.2,0.8C24.3,22,24.2,22,24.2,22
						s0.3,0.2,0.3,0.6S24.3,23,24.3,23s0.2,0.1,0.2,0.5c0,0.4-0.3,0.4-0.3,0.4s0.2,0.2,0.1,0.5c-0.1,0.3-0.4,0.5-0.4,0.5
						s-1,0.3-1.3,0.3c-0.3,0-0.8-0.5-0.8-0.5L21.2,20.8z"/>
				</g>
			</g>
			<g>
				<g>
					<g>
						<path fill="#F5B54C" d="M24.2,22c0,0-0.1,0-0.2,0c-0.1,0-0.1,0-0.2,0c-0.1,0-0.2,0-0.2,0c0,0-0.1,0-0.1,0c0,0-0.1,0-0.1,0
							c-0.1,0-0.1,0-0.2,0c-0.1,0-0.2,0-0.2,0s0.1,0,0.2,0c0.1,0,0.1,0,0.2,0c0.1,0,0.2,0,0.2,0c0.1,0,0.2,0,0.2,0
							c0.1,0,0.1,0,0.2,0C24.1,22,24.2,22,24.2,22z"/>
					</g>
				</g>
				<g>
					<g>
						<path fill="#F5B54C" d="M24.3,23c0,0-0.1,0-0.2,0c-0.1,0-0.1,0-0.2,0c0,0-0.1,0-0.1,0c0,0-0.1,0-0.1,0c-0.1,0-0.1,0-0.2,0
							c-0.1,0-0.1,0-0.2,0c-0.1,0-0.1,0-0.1,0c0,0,0,0,0,0s0.1,0,0.2,0c0.1,0,0.1,0,0.2,0c0,0,0.1,0,0.1,0c0,0,0.1,0,0.1,0
							c0.1,0,0.1,0,0.2,0c0.1,0,0.1,0,0.2,0C24.2,23,24.3,23,24.3,23z"/>
					</g>
				</g>
				<g>
					<g>
						<path fill="#F5B54C" d="M24.2,23.9c0,0-0.1,0-0.2,0c-0.1,0-0.1,0-0.2,0c-0.1,0-0.1,0-0.2,0c-0.1,0-0.2,0-0.2,0
							c-0.1,0-0.1,0-0.2,0c-0.1,0-0.1,0-0.1,0c0,0-0.1,0-0.1,0s0,0,0.1,0c0,0,0,0,0.1,0c0,0,0,0,0.1,0c0.1,0,0.1,0,0.2,0
							c0,0,0.1,0,0.1,0c0,0,0.1,0,0.1,0c0.1,0,0.2,0,0.2,0c0.1,0,0.1,0,0.2,0C24.1,23.9,24.2,23.9,24.2,23.9z"/>
					</g>
				</g>
			</g>
			<g>
				<path fill="#344A5E" d="M25,48h1.3l0.4-6c0,0,0,0.2-0.4,1.6C25.9,44.6,25.5,46.7,25,48z"/>
			</g>
		</g>
	</g>
	<g>
		<g>
			<path fill="#425A6B" d="M20.9,8.6c0,0-0.4-2.1-0.3-2.6c0,0,0.4,0.3,0.4,0.7l0.2,0c0,0-0.3-1.7,0.4-2.2c0.7-0.5-0.3-0.6-0.1-1.3
				c0.3-0.6,0.8-1,2.4-1c1.6-0.1,2.8,0.6,3.1,0.9c0.3,0.3,0.4,2.8,0.4,3.2c0,0,0.5-0.9,0.3-2.3c-0.2-1.5-0.7-2.4-1.3-2.9
				c-0.5-0.5-2.5-1.2-3.3-1c-0.8,0.1-2.1,0.8-2.5,1.5c-0.4,0.7-0.8,2.4-0.7,3.3C20.1,5.8,20.5,8.3,20.9,8.6z"/>
		</g>
	</g>
	<g>
		<g>
			<path fill="#FFD15C" d="M21,6.8c0.1,0.7,0,1.3-0.3,1.3c-0.3,0-0.7-0.6-0.8-1.3c-0.1-0.7,0-1.3,0.3-1.3C20.4,5.4,20.8,6.1,21,6.8z
				"/>
		</g>
	</g>
</g>
</svg>
