<?xml version="1.0" encoding="utf-8"?>
<!-- Generator: Adobe Illustrator 18.0.0, SVG Export Plug-In . SVG Version: 6.00 Build 0)  -->
<!DOCTYPE svg PUBLIC "-//W3C//DTD SVG 1.1//EN" "http://www.w3.org/Graphics/SVG/1.1/DTD/svg11.dtd">
<svg version="1.1" id="Layer_1" xmlns="http://www.w3.org/2000/svg" xmlns:xlink="http://www.w3.org/1999/xlink" x="0px" y="0px"
	 viewBox="0 0 48 48" enable-background="new 0 0 48 48" xml:space="preserve">
<g>
	<g>
		<g>
			<g>
				<g>
					<g>
						<path fill="#FFD15C" d="M27.4,42.3L27.3,43c0,0,0,0.9-0.2,1.4c-0.2,0.5-0.5,1.5-0.8,1.8l-0.1,0.3l-0.3,0.2
							c0,0-0.2,0.4-0.1,0.6c0,0.2,0.5,0.5,0.5,0.5l0.9-0.5c0,0,1.9-1.7,2.2-2.9c0.3-1.2,0-1.7,0-1.7L27.4,42.3z"/>
					</g>
				</g>
			</g>
			<g>
				<g>
					<g>
						<path fill="#425A6B" d="M25.8,47.3c0,0,0.3,0.3,0.8,0.2c0.5-0.1,1.7-0.7,1.7-0.7l0.8-2.2l0.6-0.7c0,0-0.5,1.3-0.5,1.5
							c0,0.3,0,0.9,0,0.9l-0.2,0l-0.1-0.9c0,0-0.2,0.5-0.3,0.8c-0.1,0.3,0,1-0.7,1.3S25.9,48.3,25.8,47.3z"/>
					</g>
				</g>
			</g>
			<g>
				<g>
					<g>
						<path fill="#F26F5A" d="M29.2,45.2c-0.4,0.7-0.3,1-0.6,1.6c-0.3,0.6-2,0.7-2,0.7s0.1-0.3,0-0.6c-0.1-0.3-0.7-0.2-0.7-0.2
							l0.4-0.4c0.9,0.9,2.1-0.1,2.4-0.8c0.3-0.7,0.2-1.1,0.4-1.5c0.2-0.4,0.2-1.1,0.2-1.1s-1.1-0.7,0-0.1
							C30.4,43.3,29.6,44.5,29.2,45.2z"/>
					</g>
				</g>
			</g>
		</g>
		<g>
			<g>
				<g>
					<g>
						<path fill="#FFD15C" d="M18.3,42.4l-0.1,0.7c0,0,0,0.9-0.2,1.4c-0.2,0.5-0.5,1.5-0.8,1.8l-0.1,0.3l-0.3,0.2
							c0,0-0.2,0.4-0.1,0.6c0,0.2,0.5,0.5,0.5,0.5l0.9-0.5c0,0,1.9-1.7,2.2-2.9c0.3-1.2,0-1.7,0-1.7L18.3,42.4z"/>
					</g>
				</g>
			</g>
			<g>
				<g>
					<g>
						<path fill="#425A6B" d="M16.6,47.4c0,0,0.3,0.3,0.8,0.2c0.5-0.1,1.7-0.7,1.7-0.7l0.8-2.2l0.6-0.7c0,0-0.5,1.3-0.5,1.5
							c0,0.3,0,0.9,0,0.9l-0.2,0l-0.1-0.9c0,0-0.2,0.5-0.3,0.8c-0.1,0.3,0,1-0.7,1.3C18.2,47.9,16.7,48.4,16.6,47.4z"/>
					</g>
				</g>
			</g>
			<g>
				<g>
					<g>
						<path fill="#F26F5A" d="M20,45.3c-0.4,0.7-0.3,1-0.6,1.6c-0.3,0.6-2,0.7-2,0.7s0.1-0.3,0-0.6c-0.1-0.3-0.7-0.2-0.7-0.2
							l0.4-0.4c0.9,0.9,2.1-0.1,2.4-0.8c0.3-0.7,0.2-1.1,0.4-1.5c0.2-0.4,0.2-1.1,0.2-1.1s-1.1-0.7,0-0.1
							C21.2,43.4,20.4,44.6,20,45.3z"/>
					</g>
				</g>
			</g>
		</g>
		<g>
			<g>
				<g>
					<path fill="#425A6B" d="M30.7,27.2c-0.6,3.1-0.8,4.7-0.7,5.1c0.1,0.4,0.4,4.3,0.4,5.4c-0.1,1-0.5,5.3-0.5,5.3s-1.5,0.8-2.6,0
						c0,0,0.3-2.1,0.3-3.1c-0.1-1,0.3-3.4-0.3-5.3c-0.5-1.9-1.5-8.2-1.5-8.2s-0.3,0.6-0.6,1.3c-0.3,0.6-0.5,1.2-0.6,1.5
						c-0.2,0.7-1.6,6.2-1.6,6.2s-1.3,3.6-1.6,4.4c-0.3,0.8-0.9,2.4-0.8,3.2c0,0-1.4,1.2-2.5,0.1c0,0,0.6-4,1-5.4
						c0.5-1.3,1.5-5,1.3-6.1c-0.2-1.2-0.4-6.6,1.1-9.1c1.4-2.5,8.4-0.6,8.4-0.6S31.4,24.1,30.7,27.2z"/>
				</g>
			</g>
		</g>
		<g>
			<g>
				<path fill="#56BFEB" d="M23,15.5C23,15.5,23,15.5,23,15.5c0.1,0,0.2,0.1,0.3,0.1c0.2,0.1,0.4,0.1,0.7,0.2
					c0.3,0.1,0.5,0.2,0.7,0.3c0.1,0,0.2,0.1,0.2,0.1c0.1,0,0.1,0,0.1,0s0,0-0.1,0c-0.1,0-0.1,0-0.2-0.1C24.5,16,24.3,16,24,15.9
					c-0.3-0.1-0.5-0.2-0.7-0.3C23.2,15.6,23.2,15.5,23,15.5C23,15.5,23,15.5,23,15.5z"/>
			</g>
		</g>
		<g>
			<g>
				<g>
					<path fill="#425A6B" d="M26,3.1c0,0,0.3,3.4,0.5,4.2c0.2,0.8-0.6,1.6-0.6,1.6s-1.8-0.1-1.9-1.3c-0.1-1.2-0.6-4.4,1.5-5.4
						C27.5,1.2,26.1,3,26,3.1"/>
				</g>
			</g>
		</g>
		<g>
			<g>
				<g>
					<path fill="#FFD15C" d="M24.5,2.9c0,0-0.3,1.7,0,2.5c0.3,0.8,0.8,1.2,0.8,1.2s0.2,1.4-0.7,2.1l-0.8,1.5
						c0.7,2.6,2.4,2.4,3.9-0.4l0.1-1.2L28,6c0,0,1-2.1-0.1-3.3c-1.2-1.2-1.2-1.2-1.2-1.2L24.5,2.9z"/>
				</g>
			</g>
		</g>
		<g>
			<g>
				<g>
					<path fill="#E8EAE8" d="M27.4,8.8l-1.9,8.3l3.8,5.2c0,0-1.7,1-4.4,0.6c-2.7-0.4-3.3,0.7-4.1,0.3c-0.7-0.4,0-2,0-2l0.6-9.3
						l3.5-3.6c0,0-1,1.8,0.3,2.2C26.1,10.8,27.4,8.8,27.4,8.8z"/>
				</g>
			</g>
		</g>
		<g>
			<g>
				<g>
					<path fill="#425A6B" d="M24.3,15.9c0,0,0.3,2.1-0.7,1.9c-1-0.3-1.2-0.9-1.2-0.9S23.7,15.8,24.3,15.9z"/>
				</g>
			</g>
		</g>
		<g>
			<g>
				<g>
					<path fill="#8AD6F7" d="M29.7,18.6c0.3,0.7,0.8,3.9,0.8,3.9s-3.9,0.6-4.6-0.9c-0.7-1.6-1-5.7-1-6.4c0-0.7,1.8-6,3.6-7.3
						c0,0,0.4,0.9,0.7,1c0.2,0.1,2.1,0.1,2.2,0.8c0.1,0.7-0.9,4.7-2,6.1c0,0,0,0.2,0,0.4C29.4,16.8,29.5,18.1,29.7,18.6z"/>
				</g>
			</g>
		</g>
		<g>
			<g>
				<g>
					<path fill="#56BFEB" d="M30.3,10.1c-1.5,0.9-2.3,2.1-2.1,2.7c0.2,0.6-0.6,0.8-1.1,0.8c-0.4,0-1.1,0.1-1.5,0.1v0l2.5,0
						c0.5,0.1,0.8,0.6,0.8,0.6c-0.1-0.5-0.4-0.7-0.4-0.7c0.7,0.5,0.7,0,0.2-0.1c-0.5-0.2-0.3-0.6,0-1.2c0.3-0.6,0.6-0.8,0.1-0.3
						c-0.5,0.5-0.3,0.1,0.1-0.5C29.2,10.9,30.3,10.1,30.3,10.1z"/>
				</g>
			</g>
		</g>
		<g>
			<g>
				<g>
					<path fill="#FFFFFF" d="M28.4,7.9l0.8,1.2l-1,0.6l0.4,0.2c0,0-2.9,3.4-3.6,6.4c0,0-0.4-1.3,0.6-3.7
						C26.5,10.3,27.5,8.4,28.4,7.9z"/>
				</g>
			</g>
		</g>
		<g>
			<g>
				<g>
					<path fill="#FFD15C" d="M22.9,15.8l1.4,0.1c0,0,1.4,0.5,1.9,0.7c0.5,0.2,1.2,0.1,1.2,0.1s-1.5,0.4-2.6,0.3
						c-1.1,0-1.6,0.1-1.6,0.1L22.9,15.8"/>
				</g>
			</g>
		</g>
		<g>
			<g>
				<g>
					<g>
						<path fill="#8AD6F7" d="M24.9,8.3C24.9,8.3,24.9,8.3,24.9,8.3C24.9,8.3,24.9,8.4,24.9,8.3c-0.1,0.2-1.4,2-1.5,3.8
							c0,1-0.1,2.4-0.3,3.7c0,0,0,0,0,0c-0.1,0.5-0.1,1-0.2,1.4v0c0,0,0,0,0,0c0,0,0,0,0,0s0,0,0,0c0,0.1-0.1,0.3-0.1,0.4
							c0,0,0,0.1,0,0.1c-0.1,0.2-0.1,0.4-0.2,0.5c-0.4,0.8-1.2,3.9-2.2,3.9c-1,0-1-0.2-1-0.2l1.2-4.5l0.1-0.3c0,0-2.3-0.4-2.4-1.2
							c-0.1-0.8,0-1.6,0.4-2.4c0.5-0.7,2.4-4.5,2.4-4.5s0.4-1.1,2-0.9C24.8,8.3,24.9,8.3,24.9,8.3z"/>
					</g>
				</g>
			</g>
			<g>
				<g>
					<g>
						<path fill="#56BFEB" d="M23.1,15.5c0,0-0.4-0.2-1.1-0.4c-0.7-0.2-0.9-0.3-0.9-0.3s-0.6-0.8-1.2-0.9c0,0,0,0,0,0
							c0,0,0.6,0,0.9,0.3c0,0,1-3.3,0.6-4.2c0,0,0.4,0.4,0.2,2c0,0-0.2,0.9-0.1,1.2S21.2,14,21.2,14s0.3,0.8,0.9,1
							C22.8,15.3,23.1,15.5,23.1,15.5z"/>
					</g>
				</g>
			</g>
			<g>
				<g>
					<g>
						<path fill="#FFFFFF" d="M24.9,8.3L23.8,9c0,0-1.4,0.9-1.3,3.2c0,2.3,0.6,4,0.4,5s0,0.1,0,0.1s0.5-3,0.6-4.5
							C23.5,11.2,24,9.7,24.9,8.3L24.9,8.3z"/>
					</g>
				</g>
			</g>
		</g>
		<g>
			<g>
				<g>
					<path fill="#FFD15C" d="M23.3,13.4c0,0-0.4,0-0.6-0.1s-1.1-0.2-1.5-0.1c-0.3,0.1-0.3,0.3-0.3,0.3c0,0-0.2,0.1,0,0.3
						c0,0-0.2,0.1-0.1,0.3c0,0-0.1,0.3,0.1,0.4c0,0,0.2,0.4,0.6,0.4c0.4,0,0.7,0,0.8,0.2c0.1,0.2,1.3,0.2,1.3,0.2L23.3,13.4z"/>
				</g>
			</g>
		</g>
		<g>
			<g>
				<g>
					<path fill="#56BFEB" d="M29.4,16.2c-1.6,1.3-3.2,0.5-3.3,0.4c0.1,0,0.6,0.2,1.4,0.2c0.9,0,1.8-1,1.8-1S29.4,15.9,29.4,16.2z"/>
				</g>
			</g>
		</g>
		<g>
			<g>
				<g>
					<path fill="#8AD6F7" d="M23.7,15.7l0.6,0.2c0,0-1.3,0.5-0.7,1.9l-1.7-0.3l-0.2-1.3l0.9-0.9l0,0C23,15.5,23.3,15.6,23.7,15.7z"
						/>
				</g>
			</g>
		</g>
		<g>
			<g>
				<g>
					<path fill="#56BFEB" d="M23.6,17.8c0,0-0.4,0-0.8-0.1c-0.7-0.1-1.6-0.2-2.2-0.3l0.1-0.3c0,0,1.2,0.3,2.1,0.5
						C23.1,17.7,23.6,17.8,23.6,17.8z"/>
				</g>
			</g>
		</g>
		<g>
			<g>
				<g>
					<g>
						<path fill="#425A6B" d="M27.6,2.8c0,0.1,0,0.1,0,0.2c0.3,0.7,0.7,1.4,0.6,2.1c0,0.3-0.1,0.5-0.2,0.8c-0.1,0.5-0.1,0.9-0.1,1.4
							c0,0.5,0,0.9-0.3,1.3c0.1,0,0.2-0.1,0.2-0.2c0,0.2,0,0.4-0.1,0.6c0.5-0.2,0.9-0.4,1.2-0.8c0.3-0.3,0.3-0.8,0.4-1.2
							c0.1-0.8,0.2-1.5,0.1-2.3c-0.1-0.8-0.4-1.5-0.9-2.1c-0.4-0.5-1-0.8-1.7-1.1c-0.6-0.2-1.3-0.3-1.9-0.4L27.6,2.8z"/>
					</g>
				</g>
			</g>
		</g>
		<g>
			<g>
				<g>
					<g>
						<path fill="#F05640" d="M23.8,3.1c0,0-1.1,0.4-0.3,0.8c0.7,0.3,3.6,0.1,4.6,0c1-0.1,2.2-0.8,1.1-0.9c0,0-0.2-1.8-1.1-2.5
							c-0.9-0.7-2.6-0.7-3.3-0.1C24.1,1,23.8,3.1,23.8,3.1z"/>
					</g>
				</g>
			</g>
			<g>
				<g>
					<g>
						<path fill="#F26F5A" d="M28.8,2.4c0,0-0.1-0.2-0.2-0.4c-0.1-0.2-0.3-0.5-0.5-0.7C28.1,1.2,28,1.2,28,1.1
							c-0.1,0-0.1-0.1-0.2-0.1c0,0,0,0-0.1,0c0,0-0.1,0-0.1,0c-0.1,0-0.1,0-0.2-0.1c-0.1,0-0.2-0.1-0.2-0.1c-0.1,0-0.1,0-0.1,0
							C27,0.8,27,0.7,27,0.6c0-0.1,0.1-0.2,0.2-0.2c0,0,0,0,0,0l0,0c0,0,0,0,0.1,0c0.1,0,0.2,0.1,0.3,0.1c0.1,0.1,0.2,0.1,0.3,0.2
							C28,0.9,28.1,0.9,28.1,1c0.1,0.1,0.1,0.1,0.1,0.2c0.2,0.3,0.3,0.6,0.4,0.8C28.7,2.2,28.8,2.4,28.8,2.4z"/>
					</g>
				</g>
			</g>
			<g>
				<g>
					<g>
						<path fill="#F26F5A" d="M28.1,3.9c-1,0.1-3.8,0.3-4.6,0c-0.7-0.3,0.3-0.8,0.3-0.8s2.5,0.7,5.3-0.1C30.3,3.1,29,3.8,28.1,3.9z"
							/>
					</g>
				</g>
			</g>
		</g>
		<g>
			<g>
				<path fill="#8AD6F7" d="M23.2,13.3c0,0-0.4,1.6-0.2,2.2l2,0.7l1-2.5L23.2,13.3z"/>
			</g>
		</g>
		<g>
			<g>
				<g>
					<path fill="#56BFEB" d="M23,15.5C23,15.5,23,15.5,23,15.5c0.1,0,0.2,0.1,0.3,0.1c0.2,0.1,0.4,0.1,0.7,0.2
						c0.3,0.1,0.5,0.2,0.7,0.3c0.1,0,0.2,0.1,0.2,0.1c0.1,0,0.1,0,0.1,0s0,0-0.1,0c-0.1,0-0.1,0-0.2-0.1C24.5,16,24.3,16,24,15.9
						c-0.3-0.1-0.5-0.2-0.7-0.3C23.2,15.6,23.2,15.5,23,15.5C23,15.5,23,15.5,23,15.5z"/>
				</g>
			</g>
		</g>
		<g>
			<g>
				<g>
					<path fill="#344A5E" d="M25.8,26.3c0,0-0.3,0.6-0.6,1.3c0-0.8,0-1.8,0.2-2c0.3-0.4,1.1-0.4,1.1-0.4
						C25.7,25.5,25.8,26.3,25.8,26.3z"/>
				</g>
			</g>
		</g>
	</g>
	<g>
		<g>
			<g>
				<path fill="#F5B54C" d="M28,5.9C28,5.9,28,5.9,28,5.9C28,6,28,6,28,5.9C28,6,28,6,28,5.9C28,6,28,6,28,5.9c-0.1,0.4-0.5,2-2.9,2
					c0.3-0.7,0.2-1.3,0.2-1.3s0.3,0.6,1.3,0.5C27.1,7,27.6,6.4,28,5.9z"/>
			</g>
		</g>
	</g>
</g>
</svg>
