<?xml version="1.0" encoding="utf-8"?>
<!-- Generator: Adobe Illustrator 19.0.1, SVG Export Plug-In . SVG Version: 6.00 Build 0)  -->
<svg version="1.1" id="Layer_1" xmlns="http://www.w3.org/2000/svg" xmlns:xlink="http://www.w3.org/1999/xlink" x="0px" y="0px"
	 viewBox="0 0 48 48" style="enable-background:new 0 0 48 48;" xml:space="preserve">
<style type="text/css">
	.st0{fill:#FFD15C;}
	.st1{fill:#415A6B;}
	.st2{fill:#F7B64C;}
	.st3{fill:#CED6E0;}
	.st4{fill:#344A5E;}
	.st5{fill:#F3F3F3;}
	.st6{fill:#F05540;}
	.st7{fill:#F3705A;}
	.st8{fill:#66C6B9;}
	.st9{fill:#55C0EB;}
	.st10{fill:#F5F6FB;}
	.st11{fill:#4ABAA5;}
	.st12{fill:#ADB3BA;}
	.st13{fill:#E8EAE9;}
	.st14{fill:#2E4556;}
	.st15{fill:#8AD7F8;}
	.st16{fill:#FFFFFF;}
	.st17{fill:#E54838;}
	.st18{fill:#3EAF99;}
	.st19{fill:#EFA943;}
	.st20{fill:#4CAEE5;}
	.st21{fill:#293F4F;}
	.st22{fill:#2D4456;}
	.st23{fill:#2E4454;}
	.st24{fill:#2A3F4F;}
	.st25{fill:#2D4151;}
	.st26{fill:#E89E3D;}
	.st27{fill:#2B4151;}
	.st28{fill:#2A4051;}
	.st29{fill:#2C4151;}
	.st30{fill:#EBEAE8;}
	.st31{fill:#3AA590;}
	.st32{fill:#E84534;}
	.st33{fill:none;}
</style>
<g>
	<g>
		<g>
			<path class="st0" d="M31.2,11.3c0,0-0.2,1.1-0.6,1.4c0,0,0,1.9-0.2,2.5c0,0,1.6,1.1,1.7,1.6c0,0,1.1,0,1.5,0.4
				c0.3,0,0.3,1.4,0,1.4c0,0-1.5,1.8-3.9,0c0,0,0.4,0.9,0.3,1.4c0,0,1.8,0.7,2.1,1.5c0.8,0.4-0.4,2.6-1.2,2.2c0,0-2.4-0.7-3.4-1.7
				s-1.2-1.2-1.2-1.2s0.3,0.9,0.1,1.2c0,0,3.1,4.6-0.3,5.7l-1.3-2.2l-0.3-11.9L31.2,9V11.3z"/>
		</g>
		<g>
			<g>
				<g>
					<path class="st4" d="M30,26.8c0,1.3-1.1,2.4-2.4,2.4c-1.3,0-2.4-1.1-2.4-2.4s1.1-2.8,2.4-2.8C29,24,30,25.5,30,26.8z"/>
				</g>
				<g>
					<path class="st4" d="M31.2,34.7h-7.1c0.5-0.5,0.9-1,1.2-1.7c0.3-0.6,0.4-1.3,0.4-2v0c0-0.7-0.3-1.3-0.8-1.7
						c-0.1-0.1-0.2-0.2-0.2-0.4c0-0.6,1.3-1,2.9-1c1.6,0,2.8,0.5,2.8,1c0,0.1-0.1,0.2-0.2,0.4c-0.5,0.5-0.8,1.1-0.8,1.7v0
						C29.6,32.4,30.2,33.7,31.2,34.7z"/>
				</g>
				<g>
					<path class="st1" d="M31.2,28.1c0,0.2-0.1,0.3-0.2,0.4c-0.1,0.1-0.3,0.2-0.4,0.2h-5.7c-0.3,0-0.6-0.3-0.6-0.6
						c0-0.2,0.1-0.3,0.2-0.4c0.1-0.1,0.3-0.2,0.4-0.2h5.7C30.9,27.5,31.2,27.8,31.2,28.1z"/>
				</g>
			</g>
			<g>
				<path class="st1" d="M32.3,35.7c-0.4-1.2-2.3-2-4.7-2c-2.3,0-4.3,0.9-4.7,2H32.3z"/>
			</g>
		</g>
		<g>
			<path class="st2" d="M30.8,20.4c-0.1,0.1-0.1,0.1-0.2,0.2c-0.1,0.2-0.2,0.4-0.3,0.5c-0.2,0.4-0.4,0.7-0.6,1.1
				c-0.1,0.2-0.2,0.4-0.3,0.6c0,0.1-0.1,0.2-0.1,0.3c0.1,0.1,0.2,0.1,0.4,0.2c0-0.1,0.1-0.2,0.1-0.3c0.1-0.2,0.2-0.4,0.2-0.6
				c0.2-0.4,0.4-0.7,0.6-1.1c0.1-0.2,0.2-0.3,0.3-0.5c0.1-0.1,0.1-0.2,0.2-0.2C31,20.5,30.9,20.4,30.8,20.4z"/>
			<path class="st2" d="M32.6,16.8c0,0.1-0.1,0.1-0.1,0.2c-0.1,0.1-0.1,0.2-0.2,0.3c-0.1,0.1-0.1,0.2-0.2,0.3
				c-0.2,0.4-0.4,0.8-0.6,1.3c-0.1,0.2-0.2,0.4-0.2,0.5c0.1,0,0.2,0,0.4,0c0.1-0.2,0.1-0.3,0.2-0.5c0.2-0.4,0.4-0.9,0.6-1.3
				c0-0.1,0.1-0.2,0.2-0.3c0-0.1,0.1-0.2,0.2-0.3c0-0.1,0.1-0.2,0.1-0.2C32.7,16.8,32.7,16.8,32.6,16.8z"/>
		</g>
		<g>
			<path class="st0" d="M48,0h-9.9c-0.6,0.3-1.3,0.6-2,0.7c-1.5,0.2-5.7,1.3-7.3,1.7c-1.6,0.5-2.1,0.2-3.2,0.7s-1.6,2.6-1.6,2.6
				s-0.6,3-1.3,4.3s-1.5,3.8-1.8,4.7c-0.3,0.9-0.4,1.9,0,2.8c0.4,0.9,1.3,4.5,1.6,5.3c0.3,0.8,1.1,4.5,1.1,4.5s3.5,0.9,2.3-5.3
				c0,0,0.1-3.7,0-4.6c0,0,1.9-3.2,1.9-4.3c0,0,1.9-1.2,2.4-2.4c0,0,1.9,3.5,2.9,4.2c0,0,0.2,1.1-0.4,2.1c-0.6,0.9-1.5,3.1-1.5,3.1
				s-2.5,3.4-2.1,6.1c0.4,2.7,2.1,1.6,2.1,1.6l1.7-2.8c0,0,1.7-1,2.8-3.3s3-5.1,3-5.1s3.9-2.8,5.1-4.9c1.2-2.1,1.6-2.7,1.6-2.7
				s1.2-1.5,2.6-3V0z"/>
		</g>
		<g>
			<path class="st2" d="M29.7,18.6l-0.5-0.5c-0.2-0.2-0.3-0.3-0.5-0.5c-0.2-0.2-0.3-0.3-0.5-0.5C28.2,17.1,28.1,17,28,17
				c0,0-0.1-0.1-0.1-0.1c0,0-0.1,0-0.1-0.1l-0.1-0.1l0-0.1c0.1-0.3,0.2-0.5,0.3-0.8c0-0.1,0.1-0.3,0.1-0.4c0-0.1,0.1-0.3,0.1-0.4
				c0-0.1,0-0.3,0.1-0.4c0-0.1,0-0.1,0-0.2c0-0.1,0-0.1,0-0.2l0-0.2c0-0.1,0-0.1,0-0.2c0-0.1,0-0.3-0.1-0.4l0.1,0.2
				c0,0.1,0,0.1,0.1,0.2c0,0.1,0,0.1,0,0.2l0,0.2c0,0.1,0,0.1,0,0.2c0,0.1,0,0.2,0,0.2c0,0.2,0,0.3,0,0.4c0,0.1,0,0.3-0.1,0.4
				c0,0.1-0.1,0.3-0.1,0.4c-0.1,0.3-0.2,0.6-0.3,0.9l-0.1-0.1c0.1,0,0.1,0.1,0.2,0.1c0.1,0,0.1,0.1,0.2,0.1c0.1,0.1,0.2,0.2,0.3,0.2
				c0.2,0.2,0.3,0.3,0.5,0.5c0.2,0.2,0.3,0.4,0.4,0.5C29.4,18.3,29.6,18.5,29.7,18.6z"/>
		</g>
		<g>
			<path class="st2" d="M26.3,20.8c0,0,0-0.1-0.1-0.3c0-0.1,0-0.2-0.1-0.3c0-0.1,0-0.2-0.1-0.3c-0.1-0.2-0.1-0.4-0.2-0.6
				c0-0.1,0-0.1-0.1-0.2c0,0,0-0.1,0-0.1s0,0,0.1,0.1c0,0,0.1,0.1,0.1,0.2c0.1,0.1,0.1,0.2,0.1,0.2c0,0.1,0.1,0.2,0.1,0.3
				c0.1,0.2,0.1,0.4,0.1,0.6C26.4,20.7,26.3,20.8,26.3,20.8z"/>
		</g>
		<path class="st2" d="M26.2,23.7c0-0.1,0-0.3,0-0.4c0-0.1,0-0.3-0.1-0.4c0-0.3-0.1-0.6-0.1-0.8c0-0.8,0-1.5,0-2.3
			c0-0.4,0-0.8,0-1.2c0-0.2,0-0.4,0-0.6c0-0.1,0-0.2,0-0.3c0-0.1,0-0.2,0-0.3c0.4-0.7,0.7-1.4,1.1-2.1c0.2-0.4,0.3-0.7,0.5-1.1
			l0.1-0.3c0-0.1,0.1-0.2,0.1-0.3c0-0.1,0-0.2,0.1-0.3c0-0.1,0-0.2,0-0.3c0,0.1,0,0.2,0,0.3c0,0.1,0,0.2-0.1,0.3
			c0,0.1-0.1,0.2-0.1,0.3l-0.1,0.3c-0.2,0.4-0.3,0.7-0.5,1.1c-0.4,0.7-0.7,1.4-1.1,2l0,0l0,0c0,0.1,0,0.2,0,0.3c0,0.1,0,0.2,0,0.3
			c0,0.2,0,0.4,0,0.6c0,0.4,0,0.8,0,1.2l0,2.3l0,0l0,0c0.1,0.3,0.1,0.6,0.1,0.8c0,0.1,0,0.3,0.1,0.4c0,0.1,0,0.3,0,0.4
			c0,0.1,0,0.3,0,0.4c0,0.1,0,0.3,0,0.4c0,0.1,0,0.3,0,0.4c0,0.1,0,0.3-0.1,0.4c0,0.1-0.1,0.3-0.1,0.4c0,0.1,0,0.1-0.1,0.2
			c0,0.1,0,0.1-0.1,0.2c0,0.1-0.1,0.2-0.2,0.3l0.1,0.1c0.1-0.1,0.1-0.2,0.2-0.3c0-0.1,0.1-0.1,0.1-0.2c0-0.1,0.1-0.1,0.1-0.2
			c0.1-0.1,0.1-0.3,0.1-0.4c0-0.1,0.1-0.3,0.1-0.4c0-0.1,0-0.3,0-0.4C26.2,24.3,26.2,24,26.2,23.7z"/>
	</g>
	<g>
		<g>
			<g>
				<path class="st11" d="M8.1,37.7c0,1.5-1.2,2.7-2.7,2.7s-2.7-1.2-2.7-2.7s1.2-3.2,2.7-3.2S8.1,36.2,8.1,37.7z"/>
			</g>
			<g>
				<path class="st11" d="M9.5,46.8H1.3c0.6-0.5,1.1-1.2,1.4-1.9c0.3-0.7,0.5-1.5,0.5-2.4v0c0-0.8-0.4-1.5-0.9-2
					c-0.1-0.1-0.2-0.3-0.2-0.4c0-0.7,1.5-1.2,3.3-1.2c1.8,0,3.3,0.5,3.3,1.2c0,0.1-0.1,0.3-0.2,0.4c-0.5,0.5-0.9,1.2-0.9,2v0
					C7.6,44.2,8.3,45.7,9.5,46.8z"/>
			</g>
			<g>
				<path class="st8" d="M9.4,39.3c0,0.2-0.1,0.4-0.2,0.5C9.1,39.9,8.9,40,8.7,40H2.1c-0.4,0-0.7-0.3-0.7-0.7c0-0.2,0.1-0.4,0.2-0.5
					c0.1-0.1,0.3-0.2,0.5-0.2h6.6C9.1,38.5,9.4,38.9,9.4,39.3z"/>
			</g>
		</g>
		<g>
			<path class="st8" d="M10.8,48c-0.4-1.3-2.7-2.3-5.4-2.3c-2.7,0-4.9,1-5.4,2.3H10.8z"/>
		</g>
	</g>
	<g>
		<g>
			<g>
				<path class="st6" d="M41.5,37.7c0,1.5-1.2,2.7-2.7,2.7s-2.7-1.2-2.7-2.7s1.2-3.2,2.7-3.2S41.5,36.2,41.5,37.7z"/>
			</g>
			<g>
				<path class="st6" d="M42.9,46.8h-8.2c0.6-0.5,1.1-1.2,1.4-1.9c0.3-0.7,0.5-1.5,0.5-2.4v0c0-0.8-0.4-1.5-0.9-2
					c-0.1-0.1-0.2-0.3-0.2-0.4c0-0.7,1.5-1.2,3.3-1.2c1.8,0,3.3,0.5,3.3,1.2c0,0.1-0.1,0.3-0.2,0.4c-0.5,0.5-0.9,1.2-0.9,2v0
					C41,44.2,41.7,45.7,42.9,46.8z"/>
			</g>
			<g>
				<path class="st7" d="M42.8,39.3c0,0.2-0.1,0.4-0.2,0.5c-0.1,0.1-0.3,0.2-0.5,0.2h-6.6c-0.4,0-0.7-0.3-0.7-0.7
					c0-0.2,0.1-0.4,0.2-0.5c0.1-0.1,0.3-0.2,0.5-0.2h6.6C42.5,38.5,42.8,38.9,42.8,39.3z"/>
			</g>
		</g>
		<g>
			<path class="st7" d="M44.2,48c-0.4-1.3-2.7-2.3-5.4-2.3c-2.7,0-4.9,1-5.4,2.3H44.2z"/>
		</g>
	</g>
	<g>
		<g>
			<path class="st1" d="M19,37.6c0,1.4-1.2,2.6-2.6,2.6s-2.6-1.2-2.6-2.6s1.2-3,2.6-3S19,36.1,19,37.6z"/>
		</g>
		<g>
			<path class="st4" d="M20.3,46.2h-7.8c0.6-0.5,1-1.1,1.3-1.8c0.3-0.7,0.5-1.5,0.5-2.2v0c0-0.7-0.3-1.4-0.9-1.9
				c-0.1-0.1-0.2-0.2-0.2-0.4c0-0.6,1.4-1.1,3.1-1.1c1.7,0,3.1,0.5,3.1,1.1c0,0.1-0.1,0.3-0.2,0.4c-0.5,0.5-0.9,1.2-0.9,1.9v0
				C18.5,43.7,19.1,45.2,20.3,46.2z"/>
		</g>
		<g>
			<path class="st1" d="M21.3,47.1c0,0.2-0.1,0.5-0.3,0.6c-0.2,0.2-0.4,0.3-0.6,0.3h-8.1c-0.5,0-0.9-0.4-0.9-0.9
				c0-0.2,0.1-0.5,0.3-0.6c0.2-0.2,0.4-0.3,0.6-0.3h8.1C20.9,46.2,21.3,46.6,21.3,47.1z"/>
		</g>
	</g>
</g>
</svg>
