<?xml version="1.0" encoding="utf-8"?>
<!-- Generator: Adobe Illustrator 18.0.0, SVG Export Plug-In . SVG Version: 6.00 Build 0)  -->
<!DOCTYPE svg PUBLIC "-//W3C//DTD SVG 1.1//EN" "http://www.w3.org/Graphics/SVG/1.1/DTD/svg11.dtd">
<svg version="1.1" id="Layer_1" xmlns="http://www.w3.org/2000/svg" xmlns:xlink="http://www.w3.org/1999/xlink" x="0px" y="0px"
	 viewBox="0 0 48 48" enable-background="new 0 0 48 48" xml:space="preserve">
<g>
	<g>
		<g>
			<path fill="#E8EAE9" d="M47.9,7.8c0,3.8-2.3,7-5.5,8.4v12.7h-7.5V16.2c-3.2-1.4-5.5-4.7-5.5-8.4c0-3.3,1.7-6.2,4.3-7.8v7.5
				l4.9,2.8l4.9-2.8V0C46.2,1.6,47.9,4.5,47.9,7.8z"/>
		</g>
		<path fill="#F7B64C" d="M39.5,22.3c0,0.1,0,0.3,0.1,0.4C39.5,22.6,39.5,22.5,39.5,22.3z"/>
		<path fill="#FFD15C" d="M46.9,30.6c0,0,1.6-1.1,0.7-3.4c-1-2.7-1.8-2.7-1.8-2.7L45.6,27L46.9,30.6z"/>
		<path fill="#F7B64C" d="M47.1,30.5c-0.1,0.1-0.2,0.1-0.2,0.1l-1.3-3.6l0.2-2.6c0,0,0.1,0,0.2,0.1l-0.2,2.6L47.1,30.5z"/>
		<path fill="#FFD15C" d="M46.6,32.4l0.4-1.8L45.6,27l0.2-2.6c0,0,0.4-2-0.6-2.7c-1-0.6-1.9-0.7-1.9-0.7l-7.8-0.6
			c0,0-3.4-0.9-6.1,2.8c-3.6,3.1-6.7,5.4-6.7,5.4s-1.2,0.7-3.1,0.8c-1.3,0.1-17.4-0.3-19.5-0.1v17.3c1.5-0.2,19-2.1,20.7-1.3
			c1.9,0.9,3.1,1,5.7,1.5c2.6,0.5,5.8,1.1,7.7,1.1l6.1-1c0,0,2.8,0.5,4-1.8c1.2-2.3,1-3.2,1-3.2s1.4-3.8,0.5-4.8
			C45.8,37.1,47.2,35.5,46.6,32.4z"/>
		<path fill="#F3F3F3" d="M35.5,28.6c0,0-0.7,0.8-0.5,1.9c0,0,0.1,0.4,0.3,0.5s0,0,0,0l0,0c0,0,0.9,0.5,1.3,0.5c0,0-0.6-1.1-0.7-2.2
			C35.8,28.6,35.5,28.6,35.5,28.6z"/>
		<path fill="#F3F3F3" d="M33.9,36.3c-0.1-0.2-1.3,0.2-1.2,1.2c0.1,0.9,0.3,1.1,0.3,1.1C33,38.7,32.9,37.4,33.9,36.3z"/>
		<path fill="#F3F3F3" d="M33.6,40.7c0,0,0.7,0.5,1.1,0.5c0,0-0.6,1.5-0.5,2.3L33.3,43c0,0-0.7-0.4-0.6-1
			C32.7,41.3,33.1,40.6,33.6,40.7z"/>
		<path fill="#F3F3F3" d="M42.9,29.4c0,0-0.2-1.1,0.4-1.4c0,0,2-0.6,2.3-1l1.4,3.8c0,0,0.4,1.2-0.6,1.5c-1.2,0.1-2.1-0.1-2.5-0.5
			C43.9,31.8,43.1,30.7,42.9,29.4z"/>
		<path fill="#F7B64C" d="M40,25.1c0,0-0.3,0.5-0.5,1.1c-0.1,0.3-0.2,0.6-0.2,0.8c0,0.2,0,0.3,0,0.3l-0.5,0c0,0,0-0.2,0.1-0.4
			c0.1-0.2,0.2-0.5,0.4-0.8C39.6,25.6,40,25.1,40,25.1z"/>
		<path fill="#F7B64C" d="M37.9,27.2c0,0-0.1-0.2-0.2-0.5c-0.1-0.3-0.2-0.7-0.2-1c0-0.4,0.1-0.8,0.2-1c0.1-0.3,0.2-0.4,0.2-0.4
			s-0.1,0.2-0.1,0.4c-0.1,0.3-0.1,0.6,0,1c0.1,0.3,0.2,0.7,0.3,0.9c0.1,0.2,0.2,0.3,0.2,0.3L37.9,27.2z"/>
		<path fill="#F7B64C" d="M36.9,27.8c0,0-0.1,0-0.1-0.1c-0.1,0-0.1-0.1-0.2-0.2c-0.1-0.1-0.2-0.4-0.3-0.6c-0.2-0.4-0.2-0.8-0.2-0.8
			s0.2,0.4,0.4,0.7c0.1,0.2,0.3,0.3,0.4,0.4c0.1,0,0.1,0.1,0.1,0.1c0,0,0,0,0,0L36.9,27.8z"/>
		<path fill="#F7B64C" d="M21.1,31.5c0,0-0.1,0.9-0.1,2.2c0,1.3,0,3.1,0.1,4.9c0.1,0.9,0.2,1.8,0.3,2.6c0.1,0.8,0.1,1.6,0.1,2.3
			c0,1.4-0.2,2.2-0.2,2.2s0-0.2,0.1-0.6c0-0.4,0-1,0-1.6c0-0.7-0.1-1.4-0.2-2.3c-0.1-0.8-0.3-1.7-0.4-2.6c-0.1-0.9-0.1-1.8-0.1-2.6
			c0-0.8,0.1-1.6,0.1-2.3C20.9,32.4,21.1,31.5,21.1,31.5z"/>
		<path fill="#F7B64C" d="M18.8,38.6c0,0,0.1,0.4,0.3,0.9c0.2,0.6,0.4,1.3,0.5,2.1c0.1,0.4,0.2,0.8,0.2,1.1c0.1,0.4,0.1,0.7,0.1,1
			c0,0.6,0,1,0,1s-0.1-0.4-0.2-1c-0.1-0.3-0.1-0.6-0.2-1c-0.1-0.4-0.2-0.7-0.3-1.1c-0.2-0.8-0.3-1.5-0.4-2.1
			C18.9,39,18.8,38.6,18.8,38.6z"/>
		<path fill="#F7B64C" d="M32.7,37.4c0,0-1.2,0.6-2.4,0.8c-0.6,0.1-1.3,0.2-1.7,0.2c-0.5,0-0.8-0.1-0.8-0.1s0.3,0.1,0.8,0.1
			c0.5,0,1.1-0.1,1.7-0.3c1.2-0.4,2.3-1,2.3-1L32.7,37.4z"/>
		<path fill="#F7B64C" d="M28.6,39.2c0,0,0.1-0.2,0.3-0.3c0.2-0.2,0.5-0.4,0.8-0.5c0.6-0.3,1.3-0.4,1.3-0.4l0,0.1
			C30.2,38.3,29.3,38.6,28.6,39.2z"/>
		<path fill="#F7B64C" d="M35.5,28.8c0,0-0.1,0-0.1,0c-0.1,0-0.1-0.1-0.2-0.1c-0.1-0.1-0.3-0.3-0.4-0.5c-0.2-0.4-0.2-0.7-0.2-0.7
			s0.2,0.3,0.4,0.6c0.1,0.1,0.3,0.2,0.4,0.2c0,0,0.1,0,0.1,0c0,0,0,0,0,0L35.5,28.8z"/>
		<path fill="#F7B64C" d="M35.3,28.9c0,0-0.2,0-0.4,0c-0.2,0-0.6-0.1-0.8-0.3c-0.6-0.2-1.1-0.7-1.1-0.7s0.5,0.3,1.1,0.5
			c0.3,0.1,0.6,0.1,0.8,0.1c0.2,0,0.4,0,0.4,0L35.3,28.9z"/>
		<path fill="#F7B64C" d="M45.9,37.2c-0.2,0.2-0.5,0.3-0.8,0.4c-0.6,0.3-1.4,0.5-2.2,0.5c-0.8,0.1-1.7,0-2.6,0c-0.9,0-1.7,0.1-2.6,0
			c-0.8,0-1.6-0.2-2.2-0.4c-0.6-0.3-1.1-0.7-1.3-1c-0.1-0.1-0.2-0.3-0.3-0.4c-0.1-0.1-0.1-0.1-0.1-0.1l0.2-0.1c0,0,0.1,0.2,0.3,0.5
			c0.2,0.3,0.7,0.6,1.2,0.8c0.6,0.3,1.3,0.4,2.1,0.4c0.8,0,1.7-0.1,2.6,0c0.9,0,1.7,0.1,2.6,0.1c0.8,0,1.6-0.2,2.1-0.4
			C45.4,37.4,45.6,37.2,45.9,37.2C45.8,37.1,45.8,37.1,45.9,37.2C45.9,37.1,45.9,37.2,45.9,37.2z"/>
		<path fill="#F7B64C" d="M45.4,41.7c0,0.1,0,0.1,0,0.1v0c-0.2,0.2-0.5,0.4-0.9,0.6c-0.6,0.3-1.3,0.5-2.1,0.5
			c-0.8,0.1-1.7-0.1-2.5-0.3c-0.4-0.1-0.8-0.2-1.2-0.3c-0.4-0.1-0.8-0.1-1.2-0.2c-0.8-0.1-1.5-0.4-2.1-0.6c-0.6-0.2-1.1-0.5-1.4-0.7
			c-0.3-0.2-0.5-0.3-0.5-0.3l0.1-0.2c0,0,0.7,0.5,1.9,0.9c0.6,0.2,1.3,0.4,2.1,0.6c0.4,0.1,0.8,0.1,1.2,0.2c0.4,0.1,0.8,0.2,1.2,0.3
			c0.8,0.2,1.7,0.4,2.4,0.4c0.8,0,1.5-0.2,2.1-0.4C44.8,42.2,45.1,42,45.4,41.7z"/>
		<path fill="#F7B64C" d="M35,30.7c0.5,0.4,1,0.7,1.6,0.7l0,0l0,0.1c0.3,0.4,0.6,0.8,1.1,1c0.5,0.2,0.9,0.1,1.5,0
			c1-0.2,2.1-0.4,3.1-0.5l0,0.2c-1,0.3-2.1,0.5-3.1,0.7c-0.3,0-0.5,0.1-0.8,0.1c-0.3,0-0.6-0.1-0.8-0.2c-0.5-0.2-0.9-0.6-1.2-1.1
			l0.1,0.1C35.9,31.5,35,31.1,35,30.7z"/>
		<path fill="#F7B64C" d="M46.6,32.7c-0.5,0.3-1.1,0.6-1.8,0.5c-0.5,0-1-0.2-1.4-0.4c-0.4-0.2-0.8-0.5-1.2-0.8
			c-0.8-0.6-1.4-1.3-2-2.1c-0.3-0.4-0.5-0.8-0.7-1.3c-0.2-0.4-0.4-0.9-0.5-1.3c0,0-0.1,0-0.2-0.1c-0.1,0-0.2,0-0.3,0
			c-0.2,0-0.3,0-0.5,0.1c-0.4,0.1-0.7,0.2-1,0.4c-0.3,0.2-0.7,0.4-1,0.6c-0.1,0.1-0.3,0.2-0.4,0.4c-0.1,0.1-0.1,0.1-0.2,0.2
			c0,0.1-0.1,0.2-0.1,0.2l-0.1,0.1c0,0,0,0,0,0.1c0,0,0,0.1,0,0.1c0,0.1,0,0.1-0.1,0.2c0,0.2,0,0.3,0,0.5c0,0.3,0,0.7,0.1,1v0
			c-0.1,0.5-0.2,0.9-0.4,1.3c-0.1,0.2-0.2,0.4-0.3,0.6c-0.1,0.2-0.2,0.3-0.3,0.5C34,34,34,34.4,34,34.9c0,0.2,0,0.4,0,0.7l0,0.3
			c0,0.1,0,0.2,0.1,0.3l0.1,0.2l-0.2,0c-0.2,0-0.5,0.1-0.7,0.2c-0.1,0.1-0.2,0.2-0.3,0.2c-0.1,0.1-0.1,0.2-0.2,0.3
			c-0.1,0.2-0.1,0.5-0.1,0.8c0,0.2,0.1,0.5,0.3,0.7l0,0l0,0.1c-0.1,0.6,0.1,1.3,0.5,1.8l0.1,0.2l-0.2,0c-0.4,0.1-0.7,0.4-0.7,0.8
			c0,0.1,0,0.2,0,0.3c0,0.1,0,0.2,0.1,0.3c0.1,0.2,0.1,0.4,0.2,0.6c0.2,0.4,0.4,0.7,0.7,1.1l0.9,1c0.5,0.4,1.1,0.7,1.6,0.9
			c0.6,0.2,1.2,0.4,1.8,0.6c0.6,0.2,1.2,0.3,1.9,0.5c0.4,0.1,0.9,0.1,1.3,0.2c-0.6,0.1-1.1,0-1.1,0l-0.2,0c0,0-0.1,0-0.1,0
			c-0.6-0.1-1.3-0.3-1.9-0.5c-0.6-0.2-1.2-0.4-1.9-0.6c-0.6-0.2-1.2-0.5-1.7-0.9l0,0l-0.9-1c-0.3-0.3-0.6-0.7-0.8-1.1
			c-0.1-0.2-0.2-0.4-0.2-0.6c0-0.1-0.1-0.2-0.1-0.3c0-0.1,0-0.2,0-0.4c0-0.2,0.1-0.5,0.3-0.7c0.1-0.1,0.3-0.2,0.4-0.3
			c-0.2-0.2-0.3-0.5-0.4-0.8c-0.1-0.3-0.1-0.7-0.1-1c-0.2-0.2-0.3-0.5-0.3-0.8c0-0.3,0-0.6,0.1-0.9c0-0.1,0.1-0.3,0.2-0.4
			c0.1-0.1,0.2-0.2,0.3-0.3c0.2-0.1,0.4-0.2,0.7-0.3c0-0.1,0-0.1,0-0.2l0-0.3c0-0.2,0-0.5-0.1-0.7c0-0.5,0-0.9,0.1-1.4
			c0.1-0.2,0.2-0.5,0.4-0.6c0.1-0.2,0.2-0.4,0.3-0.6c0.2-0.4,0.3-0.8,0.4-1.2c0,0,0,0,0,0c0-0.3-0.1-0.7-0.1-1c0-0.2,0-0.4,0-0.5
			c0-0.1,0-0.2,0.1-0.3c0,0,0-0.1,0.1-0.1c0,0,0-0.1,0.1-0.1c0,0,0,0,0,0c0-0.1,0.1-0.2,0.1-0.3c0.1-0.1,0.1-0.2,0.2-0.2
			c0.1-0.2,0.3-0.3,0.4-0.4c0.3-0.2,0.7-0.4,1-0.6c0.3-0.2,0.7-0.3,1.1-0.4c0.2,0,0.4-0.1,0.6-0.1c0.1,0,0.2,0,0.3,0
			c0.1,0,0.2,0.1,0.3,0.1l0,0l0,0c0.1,0.4,0.3,0.9,0.5,1.3c0.2,0.4,0.4,0.8,0.7,1.2c0.5,0.8,1.2,1.5,1.9,2.1
			c0.4,0.3,0.8,0.6,1.2,0.8c0.4,0.3,0.8,0.4,1.3,0.4c0.6,0,1.2-0.2,1.7-0.5C46.6,32.6,46.6,32.6,46.6,32.7z"/>
		<path fill="#F3705A" d="M23.5,13.4l0-3.5L20,9c-0.1-0.4-0.3-0.8-0.5-1.2l1.8-3.2l-2.4-2.4L15.7,4c-0.4-0.2-0.8-0.4-1.2-0.5l-1-3.5
			l-3.5,0l-1,3.5C8.7,3.7,8.3,3.8,7.9,4L4.7,2.2L2.3,4.7l1.8,3.2C3.9,8.2,3.8,8.6,3.6,9l-3.5,1l0,3.5l3.5,1c0.1,0.4,0.3,0.8,0.5,1.2
			l-1.8,3.2l2.4,2.4l3.2-1.8c0.4,0.2,0.8,0.4,1.2,0.5l1,3.5h3.5l1-3.5c0.4-0.1,0.8-0.3,1.2-0.5l3.2,1.8l2.4-2.4l-1.8-3.2
			c0.2-0.4,0.4-0.8,0.5-1.2L23.5,13.4z M11.8,15.5c-2.1,0-3.8-1.7-3.8-3.8c0-2.1,1.7-3.8,3.8-3.8c2.1,0,3.8,1.7,3.8,3.8
			C15.6,13.8,13.9,15.5,11.8,15.5z"/>
	</g>
</g>
</svg>
