<?xml version="1.0" encoding="utf-8"?>
<!-- Generator: Adobe Illustrator 18.0.0, SVG Export Plug-In . SVG Version: 6.00 Build 0)  -->
<!DOCTYPE svg PUBLIC "-//W3C//DTD SVG 1.1//EN" "http://www.w3.org/Graphics/SVG/1.1/DTD/svg11.dtd">
<svg version="1.1" id="Layer_1" xmlns="http://www.w3.org/2000/svg" xmlns:xlink="http://www.w3.org/1999/xlink" x="0px" y="0px"
	 viewBox="0 0 48 48" enable-background="new 0 0 48 48" xml:space="preserve">
<g>
	<g>
		<g>
			<g>
				<circle fill="#66C6B9" cx="24" cy="24" r="18.9"/>
			</g>
			<g>
				<circle fill="#FFFFFF" cx="24" cy="24" r="14.5"/>
			</g>
			<path fill="#F3705A" d="M24.9,23.6l4.1,4.1c0.4,0.4,0.4,0.9,0,1.3l0,0c-0.4,0.4-0.9,0.4-1.3,0l-4.3-4.3"/>
			<g>
				<g>
					<path fill="#FFD15C" d="M23.4,24.6c-0.2-0.2-0.3-0.4-0.3-0.6v-9.1c0-0.5,0.4-0.9,0.9-0.9h0c0.5,0,0.9,0.4,0.9,0.9v8.7"/>
				</g>
			</g>
			<g>
				<g>
					<circle fill="#415A6B" cx="24" cy="24" r="2.3"/>
				</g>
				<g>
					<circle fill="#344A5E" cx="24" cy="24" r="1.1"/>
				</g>
			</g>
			<g>
				<circle fill="#E8EAE9" cx="24" cy="11.5" r="0.9"/>
			</g>
			<g>
				<circle fill="#E8EAE9" cx="15.2" cy="15.2" r="0.9"/>
			</g>
			<g>
				<circle fill="#E8EAE9" cx="11.5" cy="24" r="0.9"/>
			</g>
			<g>
				<circle fill="#E8EAE9" cx="15.2" cy="32.8" r="0.9"/>
			</g>
			<g>
				<circle fill="#E8EAE9" cx="24" cy="36.5" r="0.9"/>
			</g>
			<g>
				<circle fill="#E8EAE9" cx="32.8" cy="32.8" r="0.9"/>
			</g>
			<g>
				<circle fill="#E8EAE9" cx="36.5" cy="24" r="0.9"/>
			</g>
			<g>
				<circle fill="#E8EAE9" cx="32.8" cy="15.2" r="0.9"/>
			</g>
		</g>
		<g>
			<path fill="#F3705A" d="M39,38.3c-1.1,0.9-2.2,1.6-3.4,2.3c7.6-8.6,8.2-21.8,0.7-31L34,11.4L33.9,0l11.1,2.6l-2.2,1.8
				C51,14.8,49.4,30,39,38.3z"/>
		</g>
		<g>
			<path fill="#FFD15C" d="M9,9.7c1.1-0.9,2.2-1.6,3.4-2.3c-7.6,8.6-8.2,21.8-0.7,31l2.2-1.8L14.1,48L3.1,45.4l2.2-1.8
				C-3,33.2-1.4,18,9,9.7z"/>
		</g>
	</g>
</g>
</svg>
