<?xml version="1.0" encoding="utf-8"?>
<!-- Generator: Adobe Illustrator 18.0.0, SVG Export Plug-In . SVG Version: 6.00 Build 0)  -->
<!DOCTYPE svg PUBLIC "-//W3C//DTD SVG 1.1//EN" "http://www.w3.org/Graphics/SVG/1.1/DTD/svg11.dtd">
<svg version="1.1" id="Layer_1" xmlns="http://www.w3.org/2000/svg" xmlns:xlink="http://www.w3.org/1999/xlink" x="0px" y="0px"
	 viewBox="0 0 48 48" enable-background="new 0 0 48 48" xml:space="preserve">
<g>
	<g>
		<g>
			<polygon fill="#F3F3F3" points="29.6,5.6 32.5,0 38.7,0 38.7,5.6 			"/>
		</g>
		<path fill="#F3F3F3" d="M35.6,0H3.1C1.4,0,0,1.4,0,3.1v41.8C0,46.6,1.4,48,3.1,48h29.4c1.7,0,3.1-1.4,3.1-3.1V0z"/>
		<rect x="4" y="4" fill="#55C0EB" width="27.6" height="2"/>
		<rect x="4" y="9.4" fill="#CED6E0" width="27.6" height="2"/>
		<rect x="4" y="14.9" fill="#CED6E0" width="17.8" height="2"/>
		<g>
			<g>
				<polygon fill="#E8EAE9" points="38.7,22.9 44.9,22.9 44.9,18.3 37.3,18.3 				"/>
			</g>
			<g>
				<path fill="#E8EAE9" d="M41.8,22.9h-6.2V3.1C35.6,1.4,37,0,38.7,0h0c1.7,0,3.1,1.4,3.1,3.1V22.9z"/>
			</g>
		</g>
		<g>
			<path fill="#CED6E0" d="M41.8,7.7v12.1c0,1.7,1.4,3.1,3.1,3.1s3.1-1.4,3.1-3.1V7.7H41.8z"/>
		</g>
		<g>
			<path fill="#F3705A" d="M30.5,25.4l-4.2-3.7c-0.3-0.3-0.8-0.2-1.1,0.1c-0.3,0.3-0.2,0.8,0.1,1.1l2.8,2.5
				C18.4,26.6,10.2,33.5,7.4,43c-0.1,0.4,0.1,0.8,0.5,0.9c0.4,0.1,0.8-0.1,0.9-0.5c2.7-8.9,10.3-15.4,19.5-16.6l-2.5,2.8
				c-0.3,0.3-0.2,0.8,0.1,1.1h0c0.3,0.3,0.8,0.2,1.1-0.1l3.7-4.2C30.9,26.2,30.8,25.7,30.5,25.4z"/>
			<path fill="#415A6B" d="M28.5,34L28.5,34c-0.3-0.3-0.8-0.3-1.1,0L26,35.5L24.5,34c-0.3-0.3-0.8-0.3-1.1,0l0,0
				c-0.3,0.3-0.3,0.8,0,1.1l1.5,1.5L23.5,38c-0.3,0.3-0.3,0.8,0,1.1l0,0c0.3,0.3,0.8,0.3,1.1,0l1.5-1.5l1.5,1.5
				c0.3,0.3,0.8,0.3,1.1,0l0,0c0.3-0.3,0.3-0.8,0-1.1l-1.5-1.5l1.5-1.5C28.8,34.8,28.8,34.3,28.5,34z"/>
			<path fill="#415A6B" d="M9,32.6c0.3,0.3,0.8,0.3,1.1,0l0,0c0.3-0.3,0.3-0.8,0-1.1l-1.5-1.5l1.5-1.5c0.3-0.3,0.3-0.8,0-1.1l0,0
				c-0.3-0.3-0.8-0.3-1.1,0L7.6,29l-1.5-1.5c-0.3-0.3-0.8-0.3-1.1,0l0,0c-0.3,0.3-0.3,0.8,0,1.1l1.5,1.5L5,31.5
				c-0.3,0.3-0.3,0.8,0,1.1l0,0c0.3,0.3,0.8,0.3,1.1,0l1.5-1.5L9,32.6z"/>
			<path fill="#F3705A" d="M15,27.5c1.7,0,3.1-1.4,3.1-3.1c0-1.7-1.4-3.1-3.1-3.1c-1.7,0-3.1,1.4-3.1,3.1C12,26.1,13.4,27.5,15,27.5
				z M15,22.9c0.9,0,1.6,0.7,1.6,1.6c0,0.9-0.7,1.6-1.6,1.6c-0.9,0-1.6-0.7-1.6-1.6C13.5,23.6,14.2,22.9,15,22.9z"/>
			<path fill="#F3705A" d="M16.6,37.8c-1.7,0-3.1,1.4-3.1,3.1s1.4,3.1,3.1,3.1s3.1-1.4,3.1-3.1S18.3,37.8,16.6,37.8z M16.6,42.4
				c-0.9,0-1.6-0.7-1.6-1.6s0.7-1.6,1.6-1.6c0.9,0,1.6,0.7,1.6,1.6S17.5,42.4,16.6,42.4z"/>
		</g>
	</g>
</g>
</svg>
