<?xml version="1.0" encoding="utf-8"?>
<!-- Generator: Adobe Illustrator 18.0.0, SVG Export Plug-In . SVG Version: 6.00 Build 0)  -->
<!DOCTYPE svg PUBLIC "-//W3C//DTD SVG 1.1//EN" "http://www.w3.org/Graphics/SVG/1.1/DTD/svg11.dtd">
<svg version="1.1" id="Layer_1" xmlns="http://www.w3.org/2000/svg" xmlns:xlink="http://www.w3.org/1999/xlink" x="0px" y="0px"
	 viewBox="0 0 48 48" enable-background="new 0 0 48 48" xml:space="preserve">
<g>
	<g>
		<g>
			<circle fill="#F05640" cx="40.6" cy="33.2" r="3.3"/>
		</g>
	</g>
	<g>
		<g>
			<g>
				<g>
					<path fill="#FFD15C" d="M12.7,35.6c0,0,1.7,2.1,1.9,2.6c0.2,0.5,1.7,2,2.2,2c0.5,0,2.6,1.3,3.3,1.1c0.7-0.2,1.8-1.9,1.8-1.9
						l-0.6-2.7l-1.7-2.1L12.7,35.6z"/>
				</g>
			</g>
		</g>
		<g>
			<g>
				<g>
					<path fill="#F26F5A" d="M21.3,38.6c0,0-0.8-1.4-1.5-1.8c-0.7-0.4-1.1-2.2-1.1-2.2l0.8-4.8l1.2-1l1.2,7L21.3,38.6z"/>
				</g>
			</g>
		</g>
		<g>
			<g>
				<g>
					<path fill="#F26F5A" d="M44,21.8c0,0,0.9,1.7,0.9,2.7c0,1,0.7,2,0.6,3.3c0,1.3,2.4,5.2,2.5,7.3c0.1,2.1-0.4,2.9-0.4,2.9
						S46,35.2,44,34.4c0,0-0.4-0.3-2.8-0.4c0,0-1.5-0.9-1.5-2.1c0-1.2,0.8-7.8,0.8-7.8L44,21.8"/>
				</g>
			</g>
		</g>
		<g>
			<g>
				<g>
					<path fill="#F05640" d="M32.8,17.1c0,0,1.2-0.1,1.4,1c0.2,1-0.1,1.1-0.1,1.1s-1.3-0.5-1.3-0.9C32.8,17.9,32.8,17.1,32.8,17.1z"
						/>
				</g>
			</g>
		</g>
		<g>
			<g>
				<g>
					<path fill="#FFD15C" d="M34.7,19.1c0,0-0.9,3.4-1,3.4c0,0-2.8,3.5-3,3.5c-0.1,0-2.3,1.1-2.8,0.1c-0.5-1-1.9-3-1.9-3.2
						c0,0,0-0.1,0-0.2c0.1-0.5,0.7-1.9,0.8-2.3c0.2-0.4,0.3-0.7,0.3-0.7s-0.6-1-1.2-1.6c-0.6-0.6-1-1.5-1.3-2.9
						c-0.3-1.4-0.4-1.9-0.5-2.2c-0.1-0.3-0.3-1.1-0.3-1.1s-1-2.2-0.6-3.3c0.5-1,0.9-1.2,1.5-1.5c0.7-0.2,2.5-0.5,2.7-0.5
						c0.2,0,2.3-0.1,2.3-0.1s1.8,1.3,1.9,1.4c0,0.1,1,5.9,1,5.9s0,0.8,0.2,1.7c0,0.2,0,0.4,0.1,0.5c0,0,0,0,0,0
						c0.1,0.7,0.2,1.5,0.4,1.8C33.8,18.5,34.7,19.1,34.7,19.1z"/>
				</g>
			</g>
		</g>
		<g>
			<g>
				<g>
					<path fill="#F5B54C" d="M32.9,15.7C32.9,15.7,32.9,15.7,32.9,15.7c-0.7,5.9-5.6,5.5-3,6c1.6,0.3,1.1,1.1-0.4,1.3
						c-1.5,0.2-3.4-0.1-3.4-0.1s0-0.1-0.1-0.2c0.1-0.5,0.7-1.9,0.8-2.3c0.2-0.4,0.3-0.7,0.3-0.7s1.2,1.2,3.4-0.7
						c1.7-1.5,2.2-2.9,2.3-3.5C32.9,15.6,32.9,15.6,32.9,15.7z"/>
				</g>
			</g>
		</g>
		<g>
			<g>
				<g>
					<path fill="#48B9A5" d="M35.4,42.9L34.1,26v-6.8c0,0-1.5,4.1-3.7,4.2c-2.2,0.1-3.8-2.2-3.8-2.2s-3,4.1-3.1,4.2
						c-0.1,0.1-1.2,14.6-1.5,17.5H35.4z"/>
				</g>
			</g>
		</g>
		<g>
			<g>
				<g>
					<path fill="#F05640" d="M20.6,42.9h1.3l2.3-10.2l2.8-7.5l-0.3-1l-0.6-2.5l-0.4-1.2c0,0-0.9,0.4-1.4,0.8
						c-0.5,0.4-3.5,1.1-4.3,1.6l-1,0.9c0,0,1.3,8.3,1.9,11C21.6,36.9,20.9,41.1,20.6,42.9z"/>
				</g>
			</g>
		</g>
		<g>
			<g>
				<g>
					<path fill="#F05640" d="M33.9,36.6l0.2,6.3h8.2c-1-3.1-2.3-10.6-2.3-10.6s0.1-3.2,0.6-5.2c0.5-2,3.5-5.2,3.5-5.2
						s-0.6-0.7-1.6-1.1c-1-0.4-4.2-1.1-5.1-1.3c-1-0.2-1.9-0.7-1.9-0.7l-0.3,0.1l-0.8,0.6l-1.1,2.2l-0.7,2.5l0.4,5.3L33.9,36.6z"/>
				</g>
			</g>
		</g>
		<g>
			<g>
				<g>
					<path fill="#F26F5A" d="M33.3,36.3c0.3,1.1,0.2,3.3,0.1,4.1c0,0.5,0,1.8,0,2.5h1.5c0-1,0-3.1,0-3.9c0-1-0.8-7.3-0.9-7.4
						c0-0.1-1-5.3-1-6.5s0.3-2.6,0.3-2.6S32,23.1,32,23.3c0,0.3-0.2,4-0.1,4.9C32,29.1,32.9,35.3,33.3,36.3z"/>
				</g>
			</g>
		</g>
		<g>
			<g>
				<g>
					<path fill="#F26F5A" d="M22.5,42.9c0.6-2.2,1.7-7.3,1.9-8.4c0.2-1.3,1.3-4.6,2.1-6.1c0.7-1.5,0.9-3.2,0.9-3.2l-0.1-0.6
						l-0.5-0.4c0,0.7-0.2,1.5-0.6,2.1c-0.4,0.6-2,4.3-2.1,4.9c-0.1,0.5-1.2,4.8-1.4,5.3c-0.1,0.4-1.1,4.6-1.5,6.3H22.5z"/>
				</g>
			</g>
		</g>
		<g>
			<g>
				<g>
					<path fill="#425A6B" d="M23.9,11.9c0,0-0.4-1.7,0-2.2c0.4-0.6,1-0.2,2-0.6c1-0.4,2.8-1,3.5-1.2c0.7-0.2,1.1-0.2,1.1,0.3
						c0,0.5-0.5,1.7-0.3,2.1c0.2,0.4,1.2,0.4,1.4,0.7c0.2,0.3,0.4,2.6,0.4,2.6l0.4-0.2l0.7-2c0,0,0-1.3-0.4-2.5
						c-0.4-1.2-0.9-1.5-0.9-1.5s0-2.2-2.4-2.1c-2.4,0.1-5.6,1.9-5.9,2.3c-0.3,0.4-1.4,1.4-0.2,2.9C23.3,10.4,23.6,11.9,23.9,11.9z"
						/>
				</g>
			</g>
		</g>
		<g>
			<g>
				<g>
					<path fill="#FFD15C" d="M33.8,12.6c-0.1,1-0.5,1.9-1,1.9c-0.5,0-0.8-0.8-0.7-1.9c0.1-1,0.5-1.9,1-1.9
						C33.5,10.8,33.8,11.6,33.8,12.6z"/>
				</g>
			</g>
		</g>
		<g>
			<g>
				<g>
					<path fill="#F26F5A" d="M33.1,16.9c0,0,0.6-0.1,1.2,0.7c0.7,0.8,1.1,1.2,1.1,1.2s0,2.9-0.5,4.2c0,0-0.2,0.4-0.3,0.2
						c0,0,0.1-0.9-0.9-1.4l-0.8,1.3L32,23.3c0,0,0.9-1.4,1.1-2c0.2-0.6,0.8-1.5,0.9-2.8c0.1-1.3-0.5-1.3-0.9-1.3L33.1,16.9z"/>
				</g>
			</g>
		</g>
		<g>
			<g>
				<g>
					<path fill="#F26F5A" d="M27.3,19.7c0,0-0.8,2.5-0.5,3.7c0.3,1.2,0.7,1.2,0.7,1.9c0,0-0.5-0.8-1-1.3c-0.4-0.5-1-0.7-1.1-1
						c0,0-0.5,0.8-1,0.8c0,0-0.2,0-0.1-0.3c0.1-0.3,1.2-2.4,1.4-2.9c0.3-0.5,1-1.6,1-1.6L27.3,19.7z"/>
				</g>
			</g>
		</g>
		<g>
			<g>
				<g>
					<path fill="#FFD15C" d="M22.5,28c0,0,0.2-0.2,0.7-0.3c0.5-0.1,0.8,0,0.8,0s1.6,0,1.9,0c0.3,0,0.8,0.1,1.2,0.1
						c0.4-0.1,1.4,0,1.7,0.1c0.4,0.1,1.1,0,1.4-0.1s0.5-0.1,0.9,0.1c0.4,0.2,1.1,1.4,1.2,1.6c0.1,0.2,0.4,0.6,0.7,0.8
						c0.3,0.2,2.8,1.7,3.8,2.1c0.9,0.4,3,1.6,4.5,1.7c1.5,0.2,2.8-0.6,2.8-0.6s2.7,1.8,2.8,1.9c0.1,0.1,0.7,2.7,0.7,2.7
						s-0.5,2.1-0.9,2.5c-0.5,0.4-1,0.1-1.3,0c-0.3-0.1-1.1,0-2-0.1c-0.9-0.2-2.1-0.3-2.7-0.6c-0.6-0.3-3.1-1.7-5.2-3.6
						c-2.1-1.8-2.7-2.5-3.1-2.6c-0.4-0.1-0.6-0.2-0.6-0.2s-1.6,0.1-2.3-0.1c-0.7-0.2-2-0.6-2.2-1.1c-0.2-0.5,0-0.7,0-0.7
						s-0.5-0.9-0.4-1.1c0.1-0.2,0.2-0.2,0.2-0.2s-0.4-0.5-0.4-0.8c0-0.3,0.1-0.4,0.1-0.4s-1.4-0.3-1.9-0.2c-0.5,0-1.7,0-1.7,0
						S22.3,28.4,22.5,28z"/>
				</g>
			</g>
		</g>
		<g>
			<g>
				<g>
					<path fill="#F26F5A" d="M47.5,33.2h-7.2c0.4,0.5,1,0.8,1,0.8c2.3,0.1,2.8,0.4,2.8,0.4c1.9,0.9,3.5,3.6,3.5,3.6s0.5-0.8,0.4-2.9
						C48,34.6,47.8,33.9,47.5,33.2z"/>
				</g>
			</g>
		</g>
		<g>
			<g>
				<g>
					<path fill="#E8EAE8" d="M22.6,28.3c0-0.2,0.1-0.3,0.3-0.3c0.1,0,0.3,0,0.4,0.1c0,0,0,0.1,0.1,0.1c0.1,0.2-0.1,0.4-0.3,0.4
						C22.9,28.5,22.7,28.5,22.6,28.3z"/>
				</g>
			</g>
		</g>
		<g>
			<g>
				<path fill="#425A6B" d="M20.5,21.1v12.1c0,0.3-0.3,0.6-0.6,0.6H2.7c-0.3,0-0.6-0.3-0.6-0.6V21.1c0-0.3,0.3-0.6,0.6-0.6h17.1
					C20.2,20.6,20.5,20.8,20.5,21.1z"/>
			</g>
		</g>
		<g>
			<g>
				<g>
					<g>
						<path fill="#CED6E0" d="M19.9,33.8H2.4c-0.2,0-0.4,0.1-0.6,0.3l-1.8,2.6c-0.1,0.2-0.1,0.4,0.1,0.4l20.5,0.5
							c0.3,0,0.5-0.2,0.4-0.4l-0.7-3C20.4,33.9,20.2,33.8,19.9,33.8z"/>
					</g>
				</g>
			</g>
		</g>
		<g>
			<g>
				<g>
					<g>
						<path fill="#ACB2BA" d="M17.9,34.3h-13c-0.1,0-0.2,0.1-0.3,0.2l-0.9,1.3c-0.1,0.1,0,0.2,0.1,0.2l14.6,0.2
							c0.1,0,0.2-0.1,0.2-0.2l-0.4-1.5C18.1,34.4,18,34.3,17.9,34.3z"/>
					</g>
				</g>
			</g>
		</g>
		<g>
			<g>
				<g>
					<g>
						<rect x="3.4" y="21.7" fill="#F3F3F3" width="15.9" height="10.9"/>
					</g>
				</g>
			</g>
			<g>
				<g>
					<g>
						<g>
							<rect x="5.1" y="29.8" fill="#FFD15C" width="1.3" height="1.1"/>
						</g>
					</g>
				</g>
				<g>
					<g>
						<g>
							<rect x="7.9" y="28.2" fill="#67C5B8" width="1.3" height="2.7"/>
						</g>
					</g>
				</g>
				<g>
					<g>
						<g>
							<rect x="10.7" y="26.7" fill="#F26F5A" width="1.3" height="4.2"/>
						</g>
					</g>
				</g>
				<g>
					<g>
						<g>
							<rect x="13.5" y="25.1" fill="#425A6B" width="1.3" height="5.8"/>
						</g>
					</g>
				</g>
				<g>
					<g>
						<g>
							<rect x="16.2" y="23.4" fill="#56BFEB" width="1.3" height="7.5"/>
						</g>
					</g>
				</g>
			</g>
		</g>
	</g>
</g>
</svg>
