<?xml version="1.0" encoding="utf-8"?>
<!-- Generator: Adobe Illustrator 18.0.0, SVG Export Plug-In . SVG Version: 6.00 Build 0)  -->
<!DOCTYPE svg PUBLIC "-//W3C//DTD SVG 1.1//EN" "http://www.w3.org/Graphics/SVG/1.1/DTD/svg11.dtd">
<svg version="1.1" id="Layer_1" xmlns="http://www.w3.org/2000/svg" xmlns:xlink="http://www.w3.org/1999/xlink" x="0px" y="0px"
	 viewBox="0 0 48 48" enable-background="new 0 0 48 48" xml:space="preserve">
<g>
	<g>
		<g>
			<g>
				<g>
					<circle fill="#415A6B" cx="21.2" cy="21.2" r="21.2"/>
				</g>
			</g>
			<g>
				<g>
					<circle fill="#FFFFFF" cx="21.2" cy="21.2" r="16.5"/>
				</g>
			</g>
			<g>
				<path fill="#66C6B9" d="M21.2,22.2h-7.3c-0.6,0-1-0.4-1-1s0.4-1,1-1h7.3c0.6,0,1,0.4,1,1S21.8,22.2,21.2,22.2z"/>
			</g>
			<g>
				<g>
					<g>
						<path fill="#F3705A" d="M21.2,22.2c-0.6,0-1-0.4-1-1V11c0-0.6,0.4-1,1-1c0.6,0,1,0.4,1,1v10.2C22.2,21.8,21.8,22.2,21.2,22.2z
							"/>
					</g>
				</g>
				<g>
					<g>
						<circle fill="#E8EAE9" cx="21.2" cy="7" r="1"/>
					</g>
				</g>
				<g>
					<g>
						<circle fill="#E8EAE9" cx="11.1" cy="11.1" r="1"/>
					</g>
				</g>
				<g>
					<g>
						<circle fill="#E8EAE9" cx="7" cy="21.2" r="1"/>
					</g>
				</g>
				<g>
					<g>
						<circle fill="#E8EAE9" cx="11.1" cy="31.3" r="1"/>
					</g>
				</g>
				<g>
					<g>
						<circle fill="#E8EAE9" cx="21.2" cy="35.4" r="1"/>
					</g>
				</g>
				<g>
					<g>
						<circle fill="#E8EAE9" cx="31.3" cy="31.3" r="1"/>
					</g>
				</g>
				<g>
					<g>
						<circle fill="#E8EAE9" cx="35.4" cy="21.2" r="1"/>
					</g>
				</g>
				<g>
					<g>
						<circle fill="#E8EAE9" cx="31.3" cy="11.1" r="1"/>
					</g>
				</g>
			</g>
			<g>
				<g>
					<circle fill="#FFD15C" cx="21.2" cy="21.2" r="3.3"/>
				</g>
			</g>
			<g>
				<g>
					<circle fill="#F7B64C" cx="21.2" cy="21.2" r="1.7"/>
				</g>
			</g>
		</g>
		<g>
			<g>
				<path fill="#F3705A" d="M32.7,48c-7.1,0-12.9-5.8-12.9-12.9c0-7.1,5.8-12.9,12.9-12.9c7.1,0,12.9,5.8,12.9,12.9
					C45.6,42.2,39.8,48,32.7,48z"/>
				<path fill="#FFFFFF" d="M32.7,44.6c-5.2,0-9.4-4.2-9.4-9.4s4.2-9.4,9.4-9.4s9.4,4.2,9.4,9.4S37.9,44.6,32.7,44.6z"/>
				<path fill="#F3705A" d="M32.7,41.1c-3.3,0-6-2.7-6-6c0-3.3,2.7-6,6-6c3.3,0,6,2.7,6,6C38.8,38.4,36.1,41.1,32.7,41.1z"/>
				<circle fill="#FFFFFF" cx="32.7" cy="35.1" r="2.6"/>
			</g>
			<g>
				<g>
					<g>
						<path fill="#415A6B" d="M42.4,24L32,34.4c-0.4,0.4-0.4,1,0,1.4c0.4,0.4,1,0.4,1.4,0l10.4-10.4C43.4,24.9,42.9,24.5,42.4,24z"
							/>
					</g>
				</g>
				<g>
					<polygon fill="#66C6B9" points="44.1,19.9 40.1,23.9 40.9,27.1 44.1,27.8 48,23.9 44.8,23.1 					"/>
				</g>
			</g>
		</g>
	</g>
</g>
</svg>
