<?xml version="1.0" encoding="utf-8"?>
<!-- Generator: Adobe Illustrator 19.0.1, SVG Export Plug-In . SVG Version: 6.00 Build 0)  -->
<svg version="1.1" id="Layer_1" xmlns="http://www.w3.org/2000/svg" xmlns:xlink="http://www.w3.org/1999/xlink" x="0px" y="0px"
	 viewBox="-475 477 48 48" style="enable-background:new -475 477 48 48;" xml:space="preserve">
<style type="text/css">
	.st0{fill:#55C0EB;}
	.st1{fill:#F3F3F3;}
	.st2{fill:#344A5E;}
	.st3{fill:#E8EAE9;}
	.st4{fill:#FFD15C;}
	.st5{fill:#415A6B;}
	.st6{fill:#F7B64C;}
	.st7{fill:#CED6E0;}
	.st8{fill:#F3705A;}
	.st9{fill:#2E4454;}
</style>
<g>
	<g>
		<g>
			<circle class="st0" cx="-444.9" cy="500.5" r="17.9"/>
		</g>
		<g>
			<path class="st1" d="M-462,496.5c0.1,0,0.2-0.1,0.2-0.1c0,0.1,0.1,0.2,0.1,0.2c0,0.1,0.1,0.1,0,0.2c0,0,0,0.1,0,0.1
				c0,0,0,0.1,0,0.1c0.1,0.1,0,0.1,0,0.1c0,0,0,0.1,0,0.1c0,0,0,0,0,0.1c0,0.1,0,0.1,0.1,0.2c0,0,0,0.1,0,0.1c0,0.1,0.1,0.2,0.2,0.1
				c0-0.1,0.1-0.2,0.1-0.3c0-0.2,0-0.5,0-0.7c0-0.1,0-0.1,0-0.2c0-0.1,0-0.2,0-0.3c0-0.1,0.1-0.2,0.1-0.3c0-0.1,0.1-0.2,0.2-0.2
				c0.1,0,0.1-0.1,0.2-0.1c0.1,0,0.1-0.1,0.1-0.2c0.1-0.1,0.1-0.1,0.2-0.1c0,0,0,0,0.1,0c0.1-0.1,0.2-0.1,0.3-0.2c0,0,0-0.1,0-0.1
				c0.1,0,0.1,0,0.1,0c0.1-0.1-0.1-0.1-0.1-0.2c0.1,0,0.1,0,0.2,0c0,0,0-0.1,0-0.1c0,0,0-0.1,0-0.1c0.1-0.1,0.1-0.2,0-0.3
				c0.1,0,0.2,0,0.2,0c0.1,0.1,0.2,0,0.2-0.1c0-0.1,0-0.1,0-0.2c0,0,0.1,0.1,0.1,0.1c0.1-0.1,0.1-0.1,0.2-0.2c0.1-0.1,0-0.2,0.1-0.2
				c0,0,0.1,0,0.1,0c0,0,0-0.1,0-0.1c0.2,0,0.3-0.1,0.5-0.1c0.1,0,0.1-0.1,0.1-0.1c0-0.1,0-0.2,0.1-0.3c0.1-0.1,0.2-0.1,0.2-0.1
				c0,0,0.1,0,0.1-0.1c0.1-0.1,0.2-0.1,0.3-0.1c0,0,0.1,0,0.1,0c0.1-0.1,0.2-0.1,0.3-0.2c0.1-0.1,0.2-0.1,0.3-0.1
				c0,0,0.1,0.1,0.1,0.2c-0.1,0-0.1,0-0.2,0c-0.1,0-0.1,0.1-0.2,0.1c0,0-0.1,0.1-0.1,0.2c0.1,0,0.2,0,0.3-0.1
				c0.1-0.1,0.2-0.1,0.3-0.2c0.1-0.1,0.3-0.1,0.4-0.2c0,0-0.1,0-0.1-0.1c-0.1,0.2-0.1,0-0.2,0c-0.1,0-0.1-0.1-0.2-0.2
				c-0.1-0.1,0.1-0.2,0-0.3c0,0-0.1,0-0.2,0c0,0,0,0,0,0c0.1,0,0.1,0,0.2,0c0.1,0,0.1,0,0.2-0.1c0,0,0.1-0.1,0.1-0.2
				c-0.1,0-0.2,0-0.3,0c0,0-0.1,0-0.1,0c-0.1,0-0.2,0.1-0.3,0.1c-0.1,0-0.1,0-0.2,0.1c0,0-0.1,0-0.1,0c0-0.1,0.2-0.1,0.3-0.2
				c0.1-0.1,0.2-0.1,0.3-0.2c0.1-0.1,0.1-0.1,0.2-0.1c0.3,0,0.7,0,1,0c0.1,0,0.1,0,0.2,0c0.1,0,0.2-0.1,0.2-0.2c0,0,0.1-0.1,0.1-0.1
				c0.1,0,0.2,0,0.3,0l0,0l0,0c0,0,0.2-0.1,0.2-0.1c0-0.1,0.1-0.3,0.1-0.4c-0.1,0-0.1,0-0.2,0c0-0.1-0.1-0.1-0.1-0.2c0,0,0,0,0-0.1
				c-0.1,0-0.2-0.1-0.3-0.1c0,0,0,0,0,0c-0.1-0.1-0.1-0.2-0.2-0.3c0,0,0,0,0,0c0,0,0.1,0,0.1,0c0-0.1,0-0.2,0-0.2c0-0.1,0-0.1,0-0.2
				c0,0,0-0.1,0-0.1c-0.1,0,0-0.1,0-0.2c0,0,0-0.1,0-0.1c-0.2,0.1-0.3,0.3-0.5,0.4c0,0,0,0-0.1-0.1c-0.1,0-0.1,0.1-0.2,0.1
				c-0.1,0-0.1,0-0.1,0c-0.1-0.1-0.1-0.2-0.2-0.3c0-0.1,0.2-0.2,0.1-0.4c-0.1,0-0.1,0-0.2,0c0-0.1,0-0.1,0-0.2
				c-0.1-0.1-0.3-0.1-0.5-0.1c0,0-0.1,0-0.1,0c0,0-0.1,0-0.1,0c-0.1-0.1-0.1-0.1-0.2,0c0,0,0,0-0.1,0c0,0.1,0,0.2-0.1,0.2
				c-0.1,0.1-0.1,0.2-0.1,0.3c0,0,0,0,0,0c-0.1,0.1-0.2,0.1-0.3,0.2c0,0.1,0,0.1,0.1,0.1c0.1,0.1,0.1,0.1,0,0.2c0,0,0,0.1,0,0.1
				c0,0.1-0.1,0.2-0.2,0.3c-0.1,0.1-0.2,0.1-0.3,0.2c0,0,0,0,0,0c-0.1,0-0.2,0.1-0.3,0.1c0,0.1,0,0.2,0,0.2c0,0.1,0,0.1,0,0.2
				c0,0.1,0,0.1,0,0.2c-0.1,0-0.2,0.1-0.2,0.2c-0.1,0-0.2,0-0.2,0.1c-0.1-0.1-0.1-0.2-0.2-0.3c0,0,0,0,0.1-0.1c0,0,0,0,0,0
				c0-0.1,0.1-0.3,0.1-0.4c0,0,0,0,0.1,0c0-0.1-0.1-0.1-0.1-0.2c-0.1,0-0.2,0-0.2,0c0,0,0,0,0,0c-1.4,1.9-2.4,4-3,6.4
				C-462.2,496.3-462.1,496.4-462,496.5z"/>
			<path class="st1" d="M-455.9,513.9C-456,513.9-456,513.8-455.9,513.9c-0.2-0.1-0.2-0.2-0.2-0.3c0,0,0-0.1,0-0.1
				c-0.1,0-0.2,0-0.2-0.1c0-0.1-0.1-0.1-0.1-0.2c0.1,0,0.1,0,0.2,0c0,0,0.1,0,0.1,0c0.1,0.1,0.3,0.1,0.4,0.1c0.1,0,0.2-0.1,0.3-0.2
				c0-0.1,0.1-0.1,0.1-0.2c0,0,0.1-0.1,0.1-0.1c0-0.1,0.1-0.2,0.1-0.4c0,0,0,0,0,0c0-0.1,0.1-0.2,0.1-0.3c0,0,0.1,0,0.1,0
				c0-0.1,0.1-0.2,0.1-0.3c0,0,0.1,0,0.1,0c0-0.1,0-0.2,0.1-0.3c0,0,0-0.1,0-0.1c-0.1-0.1,0-0.2-0.1-0.3c0-0.2,0-0.3,0.1-0.4
				c0,0,0.1-0.1,0.1-0.1c0.1-0.1,0.1-0.1,0.2-0.1c0.1,0,0.1,0,0.2-0.1c0,0,0.1-0.1,0.1-0.1c0.1,0,0.2,0,0.3-0.1c0,0,0.1,0,0.1-0.1
				c0.1-0.1,0.1-0.1,0.2-0.2c0-0.1-0.1-0.1,0-0.2c0.1-0.1,0.1-0.2,0.1-0.3c0,0,0-0.1,0.1-0.1c0.1-0.1,0.1-0.1,0-0.2
				c0,0,0.1,0,0.1-0.1c0-0.1,0.1-0.3,0.1-0.4c0-0.1,0-0.1,0-0.2c0,0,0-0.1,0-0.2c0,0,0-0.1,0-0.1c0-0.2,0-0.4,0-0.6
				c0.1,0,0.1,0,0.2,0c0.1-0.2,0.2-0.3,0.2-0.5c0,0,0-0.1,0.1-0.1c0.1,0,0.1-0.1,0.2-0.2c0,0,0-0.1,0-0.1c0.1-0.1,0.1-0.1,0.1-0.3
				c0,0,0-0.1,0-0.1c0.1,0,0-0.1,0-0.2c0-0.1,0-0.3-0.1-0.4c0-0.1-0.1-0.3-0.3-0.2c-0.1,0-0.1-0.1-0.2-0.1c-0.1-0.1-0.1-0.2-0.2-0.2
				c-0.1,0-0.1-0.1-0.2-0.2c0,0-0.1-0.1-0.1-0.1c-0.1,0-0.3,0-0.4-0.1c0,0,0,0,0,0c-0.1,0-0.1,0-0.2-0.1c0,0-0.1,0-0.1,0
				c-0.1,0.1-0.1,0-0.2,0c0,0,0,0,0,0c0,0,0,0,0.1-0.1c-0.1-0.1-0.1-0.2-0.2-0.2c-0.1-0.1-0.2-0.1-0.3-0.1c-0.1,0-0.2,0-0.3,0
				c0,0.1,0,0.1-0.1,0.1c0-0.1,0-0.2,0-0.2h-0.3c0,0-0.1,0-0.1-0.1c0,0-0.1,0-0.1,0c0-0.1,0.1,0,0.1-0.1c0,0,0-0.1-0.1-0.1
				c0-0.1,0.1-0.2,0.1-0.3c-0.1,0-0.2,0-0.2-0.1c0-0.1-0.1-0.3-0.1-0.4c0,0-0.1,0-0.1,0c0-0.1-0.1-0.2-0.2-0.2c0,0-0.1-0.1-0.1-0.1
				c-0.2-0.1-0.3-0.2-0.5-0.1c-0.1,0-0.2,0-0.3,0c0,0-0.1,0-0.1,0c-0.1-0.1-0.2-0.2-0.3-0.3c0-0.1-0.1-0.1-0.1-0.2
				c0-0.1-0.1-0.1-0.2-0.2c-0.1,0-0.1,0-0.2,0c0-0.1,0-0.1,0.1-0.2c-0.1-0.1-0.2-0.2-0.4-0.2c0-0.2-0.2-0.3-0.3-0.1
				c0,0,0,0.1-0.1,0.1c-0.1,0-0.3,0.1-0.4-0.1c-0.1,0.1-0.3,0-0.4,0.1c0,0,0-0.1,0-0.1c0-0.2-0.2-0.3-0.4-0.2
				c-0.1,0.1-0.2,0.1-0.3,0.2c0,0,0,0.1,0,0.1c0.1,0.1,0,0.2,0,0.3c-0.1,0-0.1,0-0.2-0.1c0-0.1,0-0.1,0-0.2c0.1-0.1,0.1-0.2,0-0.4
				c0.1,0,0.1-0.1,0.2-0.1c0,0,0-0.1,0-0.1h-0.2c0,0,0,0.1,0,0.1c-0.1,0-0.1,0.1-0.2,0.1c-0.1,0-0.3,0.1-0.4,0.1
				c0,0-0.1,0.1-0.1,0.1c0,0.1-0.1,0.1-0.1,0.2c0,0,0,0.1,0,0.1c-0.1,0.1-0.1,0.1-0.2,0.2c0,0,0,0.1,0,0.1c0,0,0,0,0,0
				c0-0.1,0-0.1,0-0.1c0,0-0.1,0-0.1,0c0-0.1,0-0.2-0.1-0.2c-0.1,0-0.1,0-0.2-0.1c0,0,0,0-0.1,0c-0.1,0.1-0.2,0.2-0.4,0.2
				c-0.1,0-0.2,0-0.2-0.1c0,0,0-0.1-0.1-0.1c0,0,0,0-0.1,0c0-0.1-0.1-0.1-0.1-0.2c0,0,0-0.1,0-0.1c0-0.2,0.1-0.4,0.1-0.6
				c0,0,0,0,0,0c0.1-0.1,0.1-0.3,0.1-0.4c-0.1,0-0.1,0-0.2,0c0,0,0-0.1,0-0.1h-0.4c0,0.1,0,0.3,0,0.4c0,0.3,0,0.5,0,0.8c0,0,0,0,0,0
				c0,0.1,0.1,0.1,0,0.1c0,0,0,0,0,0c0,0.1,0,0.1,0,0.2c0.1,0,0.1,0,0.1-0.1c0.1,0.2,0.3,0.3,0.3,0.5h0.3c0,0.1,0,0.1,0,0.1
				c0,0,0.1,0,0.1,0c0,0,0,0.1,0,0.1c0.1,0,0.1-0.1,0.1-0.1c0.1-0.1-0.1-0.1,0-0.2c0.1,0,0.1,0,0.1-0.1c0-0.1,0.1-0.1,0.2,0
				c0,0,0.1,0.1,0.2,0.1c-0.1,0.1-0.1,0.2,0,0.3c0.1,0.1,0.2,0.2,0.1,0.4c0,0.1,0,0.2,0,0.3c0,0.1,0,0.1-0.1,0.2
				c0.1,0.1,0.1,0.1,0,0.1c-0.1,0.1-0.1,0.2-0.1,0.3c0,0-0.1,0-0.2,0c0,0.1,0,0.1,0,0.2c0,0.1,0,0.2-0.1,0.2c-0.2,0-0.2,0.2-0.2,0.2
				c0,0,0,0.1-0.1,0.1c-0.1,0.2-0.1,0.3-0.1,0.5c0.1,0,0.1,0,0.2,0c0,0.2-0.2,0.3-0.3,0.4c0,0,0,0.1,0,0.1c0,0.2,0.1,0.3,0.1,0.4
				c0,0,0.1,0.1,0.1,0.1c0.1,0,0.1,0.1,0.1,0.1c0,0.1,0,0.1,0.1,0.2c0.2,0.2,0.2,0.4,0.3,0.7c0,0,0,0,0,0.1c0.1,0.1,0.1,0.2,0.2,0.3
				c0.1,0.1,0.1,0.3,0.2,0.4c0,0,0.1,0.1,0.1,0.1c0,0.1,0.1,0.2,0.1,0.3c0.2,0.2,0.4,0.4,0.6,0.5c0.2,0.1,0.3,0.1,0.4,0.3
				c0.1,0.1,0.1,0.1,0.3,0.2c0,0.1,0,0.2,0,0.2c0.1,0.1,0,0.2,0.1,0.4c0,0,0,0.1,0,0.1c0.1,0.2,0.1,0.4,0,0.5c0,0,0,0.1,0,0.1
				c0.1,0.1,0,0.2,0.1,0.3c0,0.1,0,0.1,0,0.2c-0.1,0.1-0.1,0.2,0,0.3c0,0,0,0.1,0,0.1c0.9,1.1,1.8,2.2,2.9,3.1c0.1,0,0.2,0,0.3-0.1
				C-456,514.1-456,514-455.9,513.9z"/>
			<path class="st1" d="M-453.6,485.1c-0.1,0-0.1,0-0.2-0.1c-0.1,0.1,0.1,0.1,0,0.2c0.1,0,0.1,0,0.2,0c0,0,0,0,0.1,0c0,0,0,0,0.1,0
				c0,0,0.1,0,0.1,0c0,0,0,0,0.1,0c0,0,0.1,0,0.1,0c0.2,0,0.4,0.1,0.6,0.1c0.1,0.1,0.1,0.2,0.2,0.2c-0.1,0.1-0.1,0.1,0,0.2
				c0.1,0.1,0,0.3-0.1,0.3c-0.1,0-0.1,0.1-0.1,0.2c0.1,0,0.2,0,0.2-0.1c0-0.1,0.1-0.1,0.1,0c0,0,0.1,0.1,0.1,0.2c0.1,0,0.1,0,0.2,0
				c-0.2,0.1-0.3,0-0.4,0.1c0,0,0,0.1,0,0.1c0.2,0,0.2,0,0.3,0c-0.1,0-0.1,0-0.1,0c0,0,0,0.1,0,0.1c-0.1,0.1-0.2,0.2-0.3,0.2
				c0,0,0-0.1,0-0.1c0,0-0.1,0-0.1,0c0,0,0,0,0,0.1c0,0,0,0,0,0.1c-0.2,0-0.3,0.1-0.4,0.2c0,0.1-0.1,0.2-0.1,0.2c0,0,0,0.1,0,0.1
				c0,0.1,0.1,0.1,0.1,0.2c0,0-0.1,0-0.1,0.1c0,0,0,0.1,0,0.1c0.1,0.1,0,0.2,0.1,0.3c0,0.2,0.1,0.3,0.1,0.5c0.1,0,0.2,0,0.3-0.1
				c0,0.1,0,0.1,0.1,0.1c0,0,0.1,0.1,0.1,0.1c0.1,0,0.1,0.1,0.2,0c0-0.1,0.1-0.2,0.2-0.3c0.1-0.1,0.2-0.2,0.2-0.3c0,0,0,0,0-0.1
				c0.1,0,0.2,0,0.3-0.1c0,0,0.1,0,0.1,0c0,0,0.1-0.1,0.1-0.1c0,0,0-0.1-0.1-0.1c0.1,0,0.1,0,0.1-0.1c0,0,0,0,0,0c0,0,0.1,0,0.1-0.1
				c0-0.1,0.1-0.1,0.1-0.1c0.1,0,0.2,0,0.2-0.1c0-0.1,0.1-0.1,0.1,0c0.1,0.1,0.1,0.1,0.2,0c0.1-0.1,0.1,0,0.2-0.1c0,0,0.1,0,0.1,0
				c0.1-0.1,0.2-0.1,0.3-0.2c0.1-0.1,0.2-0.1,0.3-0.1c0,0,0-0.1,0-0.1c0,0,0,0,0-0.1c0.1,0.1,0.2,0.1,0.3,0c0,0,0.1,0,0.1,0
				c0.2,0,0.4,0,0.5-0.1c0,0,0,0,0,0c0.1-0.1,0.3-0.1,0.4-0.2v-0.1c-0.1,0-0.3,0-0.4-0.1c0.1,0,0.1,0,0.2,0c0,0,0-0.1,0-0.1
				c0.1,0,0.1,0,0.2,0c0,0,0,0.1,0,0.1c0.1,0,0.1,0,0.2,0.1c0,0,0-0.1,0-0.1c0.1,0,0.1,0,0.1,0.1c0,0,0,0,0,0c0,0,0-0.1,0-0.1
				c0-0.1-0.1-0.2-0.2-0.2c0,0,0,0,0,0c0,0,0,0,0,0l0,0c-0.1,0-0.1,0-0.2,0c0-0.1-0.1-0.1-0.1-0.2c0.1,0,0.1-0.1,0.2-0.1
				c0.1-0.1,0.1-0.1,0.1,0c0,0.1,0.1,0.1,0.2,0.1c0.1,0,0.2-0.1,0.2-0.1c0,0,0-0.1,0-0.1c0.1,0,0.1,0,0.2,0c0,0,0-0.1,0-0.1
				c0,0-0.1,0-0.1,0c0,0,0,0,0,0c0.1,0,0.1,0,0.2,0c0-0.1,0-0.2-0.1-0.2c-0.1,0-0.1,0-0.2,0c0,0,0,0,0,0c0,0,0,0,0.1,0
				c0.1,0,0.2,0,0.2-0.1c0.1,0,0.1-0.1,0.1-0.1c-0.1,0-0.2,0-0.2-0.1c0.1,0,0.1-0.1,0.2-0.1c0,0,0.1-0.1,0.1-0.1
				c0.1,0,0.1,0,0.1-0.1c0.1-0.1,0.1-0.1,0.2-0.2c0,0,0,0.1,0.1,0c0,0,0-0.1,0-0.1c0.2,0,0.4,0,0.6-0.1c-0.1-0.1-0.1-0.1-0.2-0.1
				c-0.1,0.1-0.2,0-0.3,0.1c0,0-0.1,0-0.1,0c-0.1,0.1-0.2,0-0.3,0c-0.1,0.1-0.1,0.1-0.2,0.1c0,0,0-0.1,0-0.1c-0.1,0-0.1,0-0.2,0
				c0,0,0-0.1,0-0.1c-0.1-0.1-0.3-0.1-0.5-0.1c-0.4,0-0.7,0-1.1,0c-0.1,0-0.3,0-0.4,0.1c0,0,0,0,0,0c-0.1,0-0.2-0.1-0.3-0.1
				c-0.1,0.1-0.2,0-0.2,0.1c-0.1,0,0,0.1-0.1,0.1c0,0.1-0.1,0.1-0.2,0.1c-0.1,0-0.2-0.1-0.3-0.1c-0.1,0-0.2,0-0.3,0
				c0,0.1,0,0.1,0,0.1c0,0-0.1,0-0.1,0c-0.1-0.1-0.2-0.1-0.3,0c0,0-0.1,0-0.1,0c-0.1-0.1-0.3,0-0.4-0.1c0,0-0.1,0-0.1,0
				c-0.1,0.1-0.1,0.1-0.2,0.1c-0.1,0-0.2,0-0.3,0.1c0,0-0.1,0-0.1,0c-0.1-0.1-0.1-0.1-0.2,0c0,0,0,0-0.1,0c-0.1,0-0.2,0-0.3,0
				c0,0-0.1,0-0.1,0.1c0,0,0,0.1,0,0.1c0,0,0,0.1-0.1,0.1c-0.1,0-0.2,0.1-0.4,0.1c-0.1,0-0.1,0-0.2,0c-0.1,0.1-0.3,0.2-0.4,0.2
				C-453.7,485-453.7,485-453.6,485.1z"/>
			<path class="st1" d="M-433.3,486.9c-0.1,0-0.1,0-0.2,0.1c0,0,0,0-0.1,0C-433.5,486.9-433.4,486.9-433.3,486.9
				c-0.4-0.3-0.7-0.6-1-0.8c-0.1,0-0.1,0-0.2-0.1c0,0-0.1,0-0.2-0.1c0,0-0.1,0-0.1,0c-0.1,0.1-0.1,0-0.2,0.1c0,0.1,0,0.1,0,0.2
				c0,0-0.1,0.1-0.2,0c0,0,0,0,0,0c-0.1,0.1-0.2,0.1-0.3,0c0,0-0.1,0-0.1,0c0,0.1-0.1,0-0.1,0.1c0,0,0,0-0.1,0c0,0,0,0-0.1,0
				c-0.2,0-0.3,0-0.5,0.1c-0.1,0-0.1,0-0.1,0.1c0,0,0,0.1,0,0.2c-0.1,0-0.1,0.1-0.2,0.1c-0.1,0-0.2,0-0.2,0c-0.1,0-0.1,0-0.2,0
				c-0.1,0-0.1,0-0.2,0c0.1,0.1,0.1,0.1,0.1,0.1c0,0,0.1,0.1,0.1,0.1c-0.1,0-0.1,0-0.2,0c-0.2,0-0.2,0-0.2,0.2c0,0-0.1,0-0.1,0
				c-0.2,0-0.2,0-0.3-0.2c-0.1,0-0.1,0-0.2,0.1c0,0.1,0,0.1,0.1,0.1c0.1,0,0.2,0.1,0.2,0.1c-0.1,0.1-0.1,0.1,0,0.2c0,0,0,0,0.1,0.1
				c0,0.1,0.1,0.1,0.1,0c0.1-0.1,0.2-0.1,0.3,0c-0.1,0-0.1,0.1-0.2,0.1c-0.1,0-0.1,0.1-0.1,0.1c0,0,0.1,0,0.1,0c0,0.1,0,0.2-0.1,0.2
				c-0.1,0-0.1,0.1-0.2,0.1c-0.1,0.1-0.2,0.1-0.3,0c0.2,0.1,0.1-0.1,0.2-0.2c0.1-0.1,0-0.2,0.1-0.3c0,0,0,0-0.1,0
				c-0.1,0-0.2,0-0.2-0.2c0,0,0-0.1,0-0.1c0,0-0.1-0.1-0.1-0.1c0-0.1-0.1-0.2-0.2-0.2c0-0.1,0-0.2,0.1-0.2c-0.2-0.1-0.4-0.1-0.6-0.1
				c0,0.1,0,0.3-0.1,0.4c0,0,0.1,0.1,0.1,0.1c0,0.1,0,0.1,0,0.2h0.2c0,0,0,0.1,0,0.1c0.1,0,0.1,0,0.2,0c0,0.1,0,0.1,0,0.2
				c-0.1,0-0.2-0.1-0.2-0.1c-0.1,0-0.2-0.1-0.3-0.1c0,0,0,0,0,0c-0.1-0.1-0.2-0.1-0.4-0.1c-0.1,0-0.1,0-0.2,0c-0.1,0-0.1,0-0.2-0.1
				c0,0,0,0.1-0.1,0.1c0,0,0,0,0,0c0,0,0,0,0,0c0.1,0,0.1,0.1,0,0.1c-0.1,0.1-0.1,0.1-0.2,0c-0.1-0.1-0.2-0.1-0.3,0c0,0-0.1,0-0.1,0
				c-0.1-0.1-0.1,0-0.1,0c0,0-0.1,0-0.1,0.1c-0.1-0.1-0.1-0.1-0.2,0c0-0.1,0-0.1,0-0.2c-0.1,0.1-0.2,0.1-0.3,0.1c0,0-0.1,0-0.1,0
				c-0.1,0.1-0.1,0.1-0.2,0.1c-0.1,0-0.1,0.1-0.2,0.1c0,0,0,0.1,0.1,0.1c-0.1,0-0.2,0-0.3,0c-0.1,0-0.1-0.1-0.1-0.2
				c0.1,0,0.1,0,0.1-0.2h-0.3v0.3c0,0,0.1,0,0.1,0c0,0.1,0,0.1,0,0.2c-0.1,0-0.1,0-0.2-0.1c0,0-0.1,0-0.1,0c0,0-0.1,0.1-0.1,0.1
				c-0.1,0-0.2,0-0.2,0.1c0,0,0.1,0.1,0.1,0.1c-0.2,0.1-0.4,0-0.5-0.1c0,0.1,0,0.2,0.2,0.2c0,0,0,0.1,0,0.1c-0.1,0-0.3,0-0.3-0.1
				c-0.1,0-0.2,0-0.2-0.1c0-0.1-0.1-0.1,0-0.2c0-0.1-0.1-0.1-0.2-0.1c-0.1,0-0.2-0.1-0.3-0.2c0,0,0.1,0,0.1,0
				c0.1,0.1,0.3,0.1,0.4,0.1c0,0,0,0,0,0c0.1,0.1,0.1,0.1,0.2,0.1c0.1,0,0.2,0,0.3,0c0.1,0,0.3,0,0.3-0.2c-0.1-0.1-0.2-0.3-0.4-0.3
				c0,0,0,0,0,0c-0.1,0-0.2-0.1-0.3-0.1c-0.1,0-0.3-0.1-0.4-0.1c-0.1-0.1-0.2-0.1-0.3-0.1c-0.1,0-0.1-0.1-0.2-0.1
				c-0.1,0.1-0.2,0.1-0.3,0.1c0-0.1,0-0.1,0-0.2c-0.1,0-0.2,0-0.3,0.1c0-0.1,0-0.1,0-0.1c-0.1,0-0.1,0.1-0.2,0.1
				c-0.1-0.1-0.1-0.1-0.2,0c0,0,0-0.1,0-0.2c-0.1,0-0.1,0-0.2,0.1c0,0,0,0.1,0,0.1c0,0-0.1-0.1-0.1-0.1c-0.1,0-0.2,0.1-0.3,0.1
				c-0.1,0.1-0.1,0.1-0.2,0c0,0,0,0-0.1-0.1c0,0.1,0,0.1,0,0.2c-0.1,0-0.2,0.1-0.2,0.2c0,0-0.1,0-0.1-0.1c-0.1,0.1-0.1,0.1-0.2,0.2
				c0,0,0,0.1,0,0.1c-0.2,0-0.4,0.3-0.5,0.6c-0.2,0.1-0.3,0.2-0.4,0.4c-0.1,0-0.3,0.1-0.4,0.2c0,0,0,0,0,0c-0.1,0-0.2,0.1-0.3,0.1
				c0,0.1,0,0.2-0.1,0.3c0,0.1,0.1,0.1,0.1,0.2c0,0,0.1,0,0.1,0c0,0.1-0.1,0.1,0,0.2c0,0,0,0,0,0.1c0,0,0,0.1,0,0.1
				c0.1,0,0.1,0,0.1,0.1c0.1,0.1,0.3,0,0.3,0c0.1-0.1,0.2-0.2,0.3-0.1c0,0,0-0.1,0-0.2c0,0.1,0.1,0.1,0.1,0.2
				c0.1,0.2,0.2,0.3,0.2,0.5c0,0.1,0.1,0.2,0.1,0.3c0,0,0,0.1,0,0.1c0.1,0,0.1,0,0.2,0c0.1-0.1,0.2-0.1,0.3-0.1
				c0.1,0,0.2-0.1,0.2-0.2c0-0.1,0-0.3,0-0.4c0.2-0.1,0.3-0.1,0.4-0.3c-0.1-0.1-0.2-0.1-0.3-0.2c0,0-0.1-0.1-0.1-0.1
				c0-0.1,0-0.2,0-0.3c0,0,0.1,0,0.1,0c0.1-0.1,0.2-0.2,0.4-0.3c0,0,0.1-0.1,0.1-0.1c0-0.1,0.1-0.2,0.1-0.3c0.2-0.2,0.4-0.1,0.6,0.1
				c0,0-0.1,0.1-0.1,0.1c-0.1,0-0.1,0.1-0.2,0.2c0,0-0.1,0.1-0.1,0.1c0,0,0,0,0,0c0,0.1-0.1,0.1-0.1,0.1c-0.1,0-0.1,0.1-0.1,0.2
				c0.1,0.1,0.1,0.1,0.1,0.2c0,0.1,0,0.1,0.1,0.2c0,0,0,0.1,0.1,0.1c0,0,0.1,0.1,0.2,0.1c0.1,0,0.2,0,0.4-0.1c0,0,0,0,0,0
				c0-0.1,0.1-0.1,0.1-0.1c0.1,0,0.2,0,0.2,0c0,0,0.1,0,0.1,0c0,0,0,0,0,0c0,0.1,0,0.1,0,0.1c0.1,0.1,0.2,0,0.2,0.1
				c-0.1,0-0.2,0.1-0.3,0.1c-0.1,0.1-0.2,0.1-0.3,0c-0.1,0-0.1,0-0.2,0c0,0-0.1,0-0.1,0c-0.1,0-0.1,0-0.2,0v0.2c0.1,0,0.1,0,0.2,0
				v0.3c-0.1,0-0.1,0-0.2,0c-0.1-0.1-0.2-0.1-0.3-0.1c0,0.1,0,0.2-0.1,0.2c0,0,0,0.1,0,0.1c0.1,0.1,0,0.2,0,0.3
				c-0.1-0.1-0.1-0.1-0.2,0c0,0,0,0-0.1,0.1c0,0-0.1,0.1-0.1,0c0,0,0,0,0,0c-0.1-0.1-0.1-0.1-0.2,0c-0.1,0-0.1,0.1-0.2,0.1
				c-0.1,0-0.2,0-0.2,0.1c0,0-0.1,0-0.1,0c0-0.1,0-0.1,0-0.1c0,0-0.1,0-0.1,0c-0.1-0.1-0.1,0-0.2,0c-0.1,0-0.2,0.1-0.3,0.1
				c0-0.1-0.1-0.1-0.1-0.1v-0.1h0v0h0.1c0-0.1,0-0.1-0.1-0.1v0c0,0,0,0,0,0c0-0.1,0.1-0.1,0.1-0.2c0-0.1,0-0.2,0-0.3
				c0,0-0.1,0-0.1,0c-0.1,0-0.1,0.1-0.2,0.1c-0.1,0.1-0.1,0.1-0.2,0.2c0.1,0.2,0.2,0.4,0.1,0.6c-0.1,0-0.2,0-0.3,0.1c0,0,0,0,0,0
				c-0.1,0-0.2,0-0.3,0.1c-0.1,0-0.1,0.1-0.1,0.1c-0.1,0.1-0.1,0.2-0.2,0.3c-0.1,0.1-0.2,0.1-0.3,0.2c0,0.1,0,0.1,0,0.2
				c-0.1,0-0.2,0.1-0.3,0.2c-0.1,0-0.1,0-0.1,0c0,0-0.1-0.1-0.1,0c0,0.1,0,0.1,0,0.2c-0.1,0-0.2,0.1-0.3,0c-0.1,0-0.1,0-0.2,0.1
				c0,0.1,0,0.2,0.1,0.2c0,0,0.1,0,0.1,0c0.1,0,0.2,0.1,0.2,0.2c0,0,0,0,0,0c0.1,0.1,0.1,0.2,0.1,0.3c0,0,0,0,0,0.1
				c0,0.2,0,0.3-0.1,0.5c-0.3,0-0.6,0-0.8,0c0,0-0.1,0-0.1-0.1c0,0,0,0,0,0.1c-0.1-0.1-0.1-0.1-0.2,0c0,0,0,0-0.1,0
				c-0.1,0-0.1,0.1-0.1,0.2c0,0,0,0.1,0,0.1c0,0.1,0,0.1,0,0.2c0,0,0,0.1,0,0.1c0,0.1,0,0.1,0,0.1c0,0.1,0,0.1-0.1,0.2
				c-0.1,0.1-0.1,0.1,0,0.2c0.1,0.1,0.1,0.2,0.1,0.3c0,0,0,0.1-0.1,0.1c0.1,0,0.2,0,0.3,0c0.1,0,0.2,0.1,0.2,0.2c0,0,0,0.1,0,0.1
				c0.1,0,0.1,0,0.2,0c0.1-0.1,0.2-0.1,0.3-0.1c0.1,0,0.1,0,0.2,0c0.1,0,0.1,0,0.2-0.1c0.1-0.1,0.2-0.2,0.3-0.2
				c0.1-0.1,0.1-0.3,0.2-0.3c0,0,0-0.1,0-0.1c-0.1-0.1,0-0.1,0-0.2c0,0,0-0.1,0.1-0.1c0,0,0,0,0.1-0.1c0,0,0.1,0,0.1,0
				c0-0.1,0.1-0.1,0.2-0.2c0,0,0.1,0,0.1,0c0.1-0.1,0.1-0.1,0.2-0.2c0,0,0-0.1,0-0.1c-0.1-0.1,0-0.2,0.1-0.2c0,0,0.1,0,0.1-0.1
				c0,0,0,0.1,0.1,0.1c0.1,0,0.2,0,0.3,0.1c0.1,0.1,0.2-0.1,0.2-0.1c0.1,0,0.2,0,0.2-0.1c0,0,0.1-0.1,0.1-0.1c0,0,0.1,0,0.1,0.1
				c0.1,0,0.1,0.1,0.1,0.2c0,0.2,0.1,0.3,0.3,0.4c0.1,0,0.1,0.1,0.2,0.2c0,0,0.1,0.1,0.1,0.1c0,0,0.1,0,0.1,0.1c0,0,0.1,0.1,0.2,0.1
				c0,0,0,0.1,0,0.1c0.1,0,0.1,0,0.2,0c0,0.1,0,0.1,0,0.2c0,0.1,0,0.1,0,0.2c-0.1,0.1,0,0.1,0.1,0.1c0-0.1,0-0.1,0.1-0.1
				c0,0,0-0.1,0-0.1c0,0,0-0.1-0.1-0.1c-0.1,0-0.1-0.1,0-0.1c0,0,0-0.1,0-0.1c0.1,0,0.1,0,0.2,0c-0.1-0.1-0.2-0.2-0.4-0.2
				c0,0,0-0.1,0-0.1c-0.1-0.1-0.2-0.1-0.3-0.2c-0.1-0.1-0.2-0.2-0.2-0.3c-0.1-0.1-0.2-0.2-0.3-0.3c0-0.1,0-0.2,0.1-0.2
				c0,0,0.1-0.1,0.2-0.1c0,0.1,0.1,0.1,0.1,0.2c0,0,0,0,0,0c0.1-0.1,0.1-0.1,0.2,0c0,0,0,0.1,0,0.1c0,0.1,0,0.1,0.1,0.1
				c0.1,0.1,0.2,0.1,0.2,0.1c0.1,0.1,0.1,0.2,0.3,0.2c0.1,0,0.2,0.1,0.3,0.3c0,0.1,0,0.2,0,0.3c0,0,0,0.1,0,0.1c0,0,0,0.1,0,0.1
				c0.1,0.1,0.1,0.3,0.3,0.3c0,0,0,0,0,0c0,0.1,0.1,0.1,0.2,0.2c-0.1,0-0.1,0.1-0.1,0.1c0.1,0,0,0.1,0.1,0.1c0.1,0,0.2,0,0.2,0.1
				c0-0.1,0-0.1,0-0.2c0-0.1,0-0.1,0.1-0.2c0.1,0,0.1,0.1,0.2,0.1c0-0.1,0-0.2-0.2-0.2c0-0.1-0.1-0.1,0-0.2c0-0.1-0.2-0.1-0.1-0.2
				c0.1-0.1,0.1,0.1,0.2,0.1c0-0.1,0-0.1,0.1-0.1c0.1-0.1,0.2-0.1,0.3,0c0,0,0.1,0,0.1,0c0.1,0,0.2-0.1,0.4-0.1
				c0.1-0.1-0.1-0.1-0.1-0.1c0-0.1,0-0.2-0.1-0.2c0,0,0-0.1,0-0.2c0,0,0.1-0.1,0.1-0.1c0-0.1,0.1-0.2,0.1-0.4c0,0,0.1,0,0.1,0.1
				c0-0.2,0-0.2,0.1-0.3c0,0,0.1-0.1,0.1-0.2h0.2c0,0,0,0.1,0,0.1c0.1,0,0.2,0,0.3,0c0,0,0,0,0,0c0,0-0.1,0-0.1,0.1
				c0,0.1,0.1,0.1,0.1,0.2c0,0.1,0.1,0.1,0.1,0.2c0.1,0,0.2-0.1,0.3-0.1c0-0.1,0-0.2-0.1-0.2c0,0,0-0.1-0.1-0.1
				c0.1,0,0.2-0.1,0.3-0.1c0,0,0,0,0,0c0-0.1,0.2-0.1,0.3-0.1c0.1,0,0.2,0,0.3,0c-0.2,0.1-0.2,0.1-0.2,0.3c0,0,0,0,0,0.1
				c0,0.1-0.1,0.2-0.1,0.2c0.1,0,0.1,0.1,0.2,0.1c0,0,0.1,0,0.1,0.1c0.1,0.1,0.2,0.1,0.2,0.2c0,0,0,0,0,0c0.2,0,0.3,0.2,0.4,0.4
				c0,0,0,0.1,0,0.1c-0.1,0.1-0.2,0.1-0.3,0.1c-0.2,0-0.4,0.1-0.6-0.1c-0.1,0-0.2,0-0.3-0.1c-0.1-0.1-0.2,0-0.2-0.1
				c0-0.1-0.1-0.1-0.1,0c-0.1,0.1-0.2,0.1-0.2,0.1c-0.1,0-0.1,0.1-0.1,0.1c-0.1,0.1-0.2,0.1-0.3,0c0,0-0.1,0-0.1,0
				c0,0,0,0.1,0.1,0.1c0,0.1-0.1,0.1-0.2,0.1c-0.1,0-0.1,0-0.2,0.1c0-0.2-0.1-0.1-0.2-0.1c0,0-0.1,0.1-0.1,0.1c0,0,0,0.1,0,0.1
				c0.1,0,0.1,0.1,0.1,0.2c0,0.2,0.1,0.3,0.1,0.4c0.1,0,0.1,0,0.2,0c0.1,0.1,0.2,0.1,0.3,0.2c0.1,0.1,0.2,0.1,0.2-0.1
				c0,0,0-0.1,0-0.1c0.1,0,0.2,0,0.3,0.1c0,0,0.1,0.1,0.1,0.1c0.1,0,0.3,0,0.3-0.1c0,0,0,0,0.1-0.1c0.1,0,0.2,0,0.2,0.1
				c0,0.2,0,0.4,0.2,0.5c-0.1,0-0.1,0-0.2,0c0,0.1,0,0.1,0,0.1c0,0,0,0.1,0,0.1c0,0.1-0.1,0.2-0.1,0.4c0,0.1-0.1,0.2-0.2,0.2
				c-0.2,0-0.4,0-0.5-0.1c0,0-0.1,0-0.1,0c-0.1,0-0.1,0.1-0.2,0.1c-0.1,0.1-0.1,0.1-0.2,0c-0.1-0.1-0.2-0.1-0.3-0.1
				c-0.1-0.1-0.2-0.1-0.4-0.1c0,0,0,0,0,0c-0.1-0.1-0.3-0.1-0.4-0.2c0,0-0.1-0.1-0.1-0.1c0,0-0.1,0-0.1,0c0,0-0.1,0-0.1,0
				c-0.1,0-0.1,0.1-0.2,0.2c0,0.1,0,0.2,0,0.4c0,0-0.1,0-0.1,0c-0.1,0.1-0.2,0.1-0.3-0.1c-0.1-0.1-0.1-0.1-0.2-0.1
				c-0.1,0-0.2,0-0.3-0.1c-0.1,0-0.1-0.2-0.1-0.2c-0.1,0-0.2-0.1-0.3-0.1c0,0,0,0,0,0c0-0.1-0.1,0-0.1,0c0,0,0,0,0,0
				c0,0-0.1,0-0.1,0c0,0-0.1,0-0.1,0c-0.1-0.1-0.2-0.1-0.3-0.2c0-0.1,0-0.1,0.1-0.1c0.1-0.1,0.1-0.2,0.1-0.4c0,0,0,0-0.1,0
				c0,0,0,0-0.1,0c0.2-0.1-0.1-0.2,0-0.3c-0.1,0-0.2,0-0.3,0.1c0,0-0.1,0-0.1,0c-0.1,0-0.2,0-0.3,0c0,0-0.1,0-0.1,0
				c-0.1,0.1-0.2,0.1-0.3,0c0,0-0.1,0-0.2,0c-0.1,0.1-0.2,0-0.2,0.1c-0.1,0-0.1,0-0.1,0c-0.1,0.1-0.3,0-0.4,0.2c0,0,0,0,0,0
				c-0.1,0-0.1,0-0.2,0.1c-0.1,0.1-0.3,0.1-0.4,0.1c0,0,0,0-0.1,0c-0.1,0.1-0.2,0.1-0.2,0c-0.1,0-0.2,0-0.1-0.2
				c-0.1,0-0.2,0-0.2,0.1c0,0.1,0,0.2-0.1,0.2c-0.1,0.1-0.1,0.1-0.2,0.2c-0.1,0.1-0.3,0.2-0.3,0.4c0,0,0,0,0,0
				c-0.1,0.1-0.1,0.2-0.1,0.3c0,0.2,0,0.4-0.2,0.5c0,0,0,0,0,0c-0.1,0.1-0.1,0.2-0.2,0.2c-0.1,0.1-0.2,0.1-0.3,0.1c0,0,0,0.1,0,0.1
				c0,0.1,0,0.2-0.2,0.3c-0.1,0-0.1,0.1-0.1,0.2c0,0.2-0.1,0.3-0.1,0.4c0,0,0,0.1,0,0.1c0,0-0.1,0-0.1,0c0,0.1-0.1,0.4-0.2,0.5
				c-0.1,0.1-0.1,0.2,0,0.3c0.1,0.1,0.1,0.2,0,0.3c0,0.1,0,0.2,0,0.2c0.1,0.1,0.1,0.2,0,0.3c0,0.1-0.1,0.2-0.1,0.4c0,0,0,0,0,0.1
				c-0.1,0.1-0.1,0.2-0.1,0.4c0,0.1,0,0.1,0.1,0.2c0,0,0,0.1,0,0.1c-0.1,0.1-0.1,0.2,0,0.3c0.1,0,0.1,0.1,0.2,0.1
				c0,0.1,0,0.2,0.1,0.2c0,0,0,0,0,0.1c0,0.1,0.1,0.2,0.2,0.2c0,0.2,0.1,0.3,0.1,0.5c0,0,0,0,0,0c0.1,0.1,0.1,0.1,0.2,0.1
				c0.1,0.1,0.2,0.2,0.4,0.3c0.1,0.1,0.1,0.1,0.2,0.2c0.1,0.1,0.2,0.1,0.2,0.1c0.1,0,0.2,0,0.3-0.1c0,0,0,0,0,0c0,0,0.1,0,0.1-0.1
				c0.1,0,0.2,0,0.3-0.1c0,0,0,0,0,0c0,0,0.1,0.1,0.1,0c0,0.1,0.2,0,0.2,0.1c0,0,0.1,0,0.1,0c0-0.1,0.1-0.1,0.2-0.1
				c0.2-0.1,0.4-0.1,0.5-0.3c0,0,0,0,0.1,0c0.1,0,0.1,0,0.2,0c0,0,0.1,0,0.1,0c0.1,0,0.1,0,0.2,0c0.1,0,0.1,0,0.2,0.1
				c0,0.1,0.1,0.2,0.1,0.3c0,0.1,0.1,0.1,0.1,0.2c0,0,0.1,0,0.1,0c0,0,0.1,0,0.1,0c0.1,0,0.1,0,0.1,0c0.1-0.1,0.1,0,0.2,0
				c0,0,0,0.1,0,0.1c0.1,0,0.1,0.1,0.1,0.1c0.1,0.1,0.1,0.2,0.1,0.2c0,0.1,0,0.2-0.1,0.2c-0.1,0-0.1,0.1,0,0.2c0,0.1,0,0.2,0,0.3
				c0,0.1-0.1,0.1-0.1,0.2c0,0.2,0,0.3,0.2,0.4c0.1,0.1,0.2,0.2,0.2,0.3c0,0.1,0.1,0.1,0.1,0.2c0,0.1,0.1,0.1,0.1,0.2
				c0,0.1,0.1,0.1,0.1,0.2c0,0,0,0.1,0,0.1c0,0,0.1,0,0.1,0c-0.1,0.1-0.1,0.1,0,0.2c0.1,0.1,0.1,0.3,0.1,0.4c0,0,0,0.1,0,0.1
				c0,0,0,0.1,0,0.1c0,0,0,0.1,0,0.1c0,0,0,0.1,0,0.1c0.1,0.1,0.1,0.2,0.1,0.4c0,0.1,0,0.2-0.1,0.3c0,0-0.1,0-0.1,0c0,0,0,0.1,0,0.1
				c-0.1,0.1-0.1,0.2-0.1,0.4c0,0,0,0,0,0.1c-0.1,0.2-0.1,0.3-0.1,0.5c0,0.2,0,0.3,0.1,0.5c0.1,0.1,0.1,0.2,0.1,0.3
				c0,0.1,0.1,0.3,0.2,0.4c0,0.1,0,0.1,0.1,0.1c0.1,0.1,0.1,0.2,0.1,0.3c0,0.1,0,0.2,0,0.4c0,0,0,0.1,0,0.1c0.1,0.1,0,0.2,0.1,0.3
				c0,0.1,0,0.1,0,0.2c0,0,0,0.1,0,0.1c0,0.1,0,0.2,0.1,0.2c0.1,0,0,0.2,0.2,0.2c0,0,0,0,0,0c0,0.1,0.1,0.2,0.1,0.4
				c0,0.1,0,0.1,0.1,0.2c0,0,0,0.1,0.1,0.2c0,0,0,0.1,0,0.1c0,0.1,0,0.2,0,0.3c0,0,0,0.1,0,0.1c0.1,0.1,0,0.2,0.1,0.2
				c0.1,0.1,0.2,0.1,0.3,0.2c0.1-0.1,0.2-0.1,0.3-0.1c0,0,0.1,0,0.1,0c0.1-0.1,0.2-0.1,0.3-0.1c0.1,0,0.2,0,0.4,0c0,0,0.1,0,0.1,0
				c0-0.1,0.1-0.1,0.1-0.1c0.1,0,0.1,0,0.2,0c0.1-0.1,0.3-0.1,0.3-0.3c0-0.1,0.1-0.1,0.1-0.1c0.1-0.2,0.3-0.2,0.3-0.4c0,0,0,0,0,0
				c0.1-0.1,0.1-0.2,0.2-0.3c0.2,0,0.1-0.2,0.2-0.3c0-0.2,0.1-0.3,0.1-0.5c0-0.1,0-0.1,0-0.1c0.1,0,0.1,0,0.1-0.1
				c0.1-0.1,0.1-0.1,0.2-0.1c0.1,0,0.1-0.1,0.2-0.1c0,0,0.1-0.1,0-0.1c0-0.1,0-0.2,0-0.2c0-0.1,0-0.2,0-0.2c-0.1-0.1,0-0.2,0-0.3
				c0-0.1,0-0.2,0-0.2c0,0,0-0.1,0-0.1c0.1-0.1,0.1-0.2,0.2-0.3c0.1,0,0.2-0.1,0.2-0.2c0-0.1,0.1-0.2,0.2-0.2
				c0.2-0.1,0.3-0.2,0.4-0.3c0,0,0.1-0.1,0.1-0.1c0,0,0-0.1,0.1-0.1c0,0,0.1-0.1,0.1-0.1c0-0.4,0-0.7,0-1.1c0-0.1,0-0.1-0.1-0.2
				c-0.1-0.1-0.1-0.2-0.1-0.3c0,0,0-0.1,0-0.1c0-0.1-0.1-0.1,0-0.2c0,0-0.1-0.1,0-0.1c0.1-0.1,0-0.1,0-0.2c0,0,0,0,0-0.1
				c0,0-0.1-0.1-0.1-0.1c-0.1-0.2,0.1-0.3,0.1-0.5c0,0,0,0,0,0c0-0.1,0.1-0.1,0.1-0.2c0-0.1,0.1-0.2,0.1-0.3c0,0,0.1-0.1,0.1-0.1
				c0.1-0.1,0.3-0.2,0.3-0.3c0,0,0-0.1,0-0.1c0.1-0.1,0.2-0.2,0.3-0.4c0.1-0.2,0.3-0.3,0.5-0.4c0.1,0,0.2-0.1,0.2-0.2c0,0,0,0,0,0
				c0,0,0.1,0,0.1,0c0-0.1,0.2-0.2,0.1-0.3c0.1,0,0-0.1,0.1-0.2c0.1-0.1,0.2-0.2,0.1-0.4c0,0,0-0.1,0-0.1c0.1-0.1,0.1-0.1,0.1-0.2
				c0.1,0,0.1-0.1,0.1-0.2c0,0,0,0,0-0.1c0.1-0.1,0.1-0.1,0.1-0.2c0-0.1,0-0.1,0-0.2c0.1-0.1,0-0.2,0-0.4c-0.1,0-0.2,0.1-0.4,0.1
				c0,0,0,0,0,0c0,0.1-0.1,0.1-0.1,0.1c-0.1,0-0.1,0-0.2,0c-0.1,0-0.1,0-0.2,0.1c0,0.1-0.1,0.1-0.1,0.1c-0.1,0-0.1,0-0.2,0
				c-0.1,0.1-0.2,0-0.3,0c0-0.2-0.1-0.3-0.3-0.3c0.1,0,0.1,0,0.2,0c0-0.1,0-0.2-0.1-0.3c-0.1-0.1-0.3-0.2-0.3-0.4c0,0,0-0.1-0.1-0.1
				c-0.1,0-0.1-0.1-0.2-0.1c-0.1,0-0.1-0.2-0.2-0.2c0,0,0-0.1,0-0.1c0-0.1-0.1-0.3-0.1-0.4c-0.1-0.1-0.2-0.1-0.2-0.2
				c0,0-0.1-0.1-0.1-0.2c0-0.1,0-0.2,0-0.4c0-0.1,0-0.2-0.1-0.3c-0.1,0-0.2-0.2-0.3-0.3c0,0,0,0,0,0c0-0.1,0-0.3-0.1-0.4
				c0,0,0,0,0,0c-0.1-0.1-0.1-0.3-0.2-0.4c0,0,0-0.1,0-0.1c0,0,0-0.1,0-0.1c-0.1-0.1,0-0.2,0-0.2c0.1,0,0.1,0,0.2,0.1
				c0.1-0.1,0-0.3,0.1-0.4v0.3c0.1,0,0.1,0.1,0.1,0.1c0,0,0.1,0.1,0.1,0.2c0.1,0.1,0.2,0.2,0.2,0.4c0,0,0,0.1,0.1,0.1
				c0.1,0.1,0.1,0.2,0.1,0.3c0.1,0,0.1,0,0.1,0.1c0.1,0.2,0.2,0.4,0.2,0.6c0,0,0,0,0,0c0,0.1,0.1,0.2,0.2,0.3
				c0.2,0.1,0.3,0.2,0.3,0.4c0.1,0.1,0.1,0.1,0.1,0.2c0.1,0.1,0.1,0.2,0.2,0.3c0,0.1,0.1,0.1,0.1,0.2c0,0.1-0.1,0.3,0.1,0.4
				c0,0,0,0,0,0c0,0.2,0.1,0.3,0.1,0.5c0.1,0,0.2,0,0.2,0c0.1,0,0.1,0,0.2-0.1c0-0.1,0.1-0.1,0.1-0.1c0.1,0,0.1,0,0.2,0
				c0.1,0,0.2-0.2,0.4-0.2c0,0,0,0,0.1-0.1c0-0.1,0.1-0.1,0.1-0.1c0,0,0,0,0.1,0c0.1-0.1,0.2-0.1,0.3-0.1c0.1,0,0.1-0.1,0.1-0.1
				c0,0,0-0.1,0-0.1c0.1,0,0.1-0.1,0.1-0.1c0.2-0.1,0.3-0.2,0.5-0.2c0,0,0,0,0,0c0-0.1,0-0.1,0-0.2c0.1,0,0.2,0,0.2,0
				c0-0.1,0.1-0.2,0.1-0.3c0.1,0,0.1,0,0.2,0c0-0.1,0-0.1,0-0.2c0-0.1,0-0.1,0.1-0.2c0.1,0,0.2-0.1,0.2-0.2c0.1-0.2,0.2-0.3,0-0.5
				c0,0-0.1-0.1-0.1-0.1c-0.1,0-0.1,0-0.2-0.1c-0.1-0.1-0.1-0.1-0.2-0.1c0,0,0-0.1,0-0.1c-0.1-0.1-0.1-0.2-0.1-0.3
				c0,0-0.1,0-0.1,0.1c0,0.1-0.1,0.1-0.1,0.2c-0.1,0.1-0.1,0.1-0.2,0.2c-0.1,0-0.3,0-0.4,0.1c-0.1-0.2-0.1-0.2-0.1-0.4v-0.2
				c-0.1,0-0.1,0-0.1,0c0,0.1,0,0.2,0,0.3c-0.1-0.1-0.1-0.2-0.1-0.3c0-0.2-0.2-0.3-0.3-0.4c0-0.2-0.2-0.3-0.2-0.6c0.1,0,0.1,0,0.2,0
				c0,0,0,0,0-0.1c0,0,0,0,0,0c0.1,0,0.1,0,0.1,0c0.1,0,0.1,0,0.2,0.1c0,0,0,0.1,0,0.1c0.1,0.1,0.1,0.2,0.2,0.3
				c0,0.1,0.1,0.1,0.2,0.1c0.1,0,0.1,0.1,0.2,0.1c0,0,0,0,0.1,0.1c0,0,0.1,0,0.1,0.1c0.1,0.1,0.2,0.1,0.3,0.1c0,0,0.1,0,0.1-0.1
				c0.1,0,0.1-0.1,0.2-0.1c0,0,0.1,0,0.1,0c0.1,0.1,0.2,0.1,0.2,0.2c0,0.1,0.1,0.2,0.2,0.2c0.1,0,0.1,0,0.2,0c0.1,0.1,0.2,0,0.3,0.1
				c0,0,0.1,0,0.1,0c0,0,0.1,0,0.1,0c0.1,0,0.2,0,0.3-0.1h0.7c0,0.1,0.1,0.1,0.1,0.2c0,0.1,0,0.2,0.1,0.2c0.1,0,0.1,0.1,0.2,0.2
				c0.1,0,0.1,0.1,0.2,0.1c0,0,0.1,0,0.1-0.1v0.1c-0.1,0-0.1,0-0.2,0v0.2c0.2,0,0.2,0.1,0.3,0.2c0.2,0.1,0.2,0,0.4-0.1
				c0,0,0-0.1-0.1-0.1c0,0,0.1-0.1,0.1-0.1c0,0.1,0.1,0.2,0,0.2c0,0,0.1,0.1,0.1,0.1c0.1,0.1,0.1,0.1,0,0.1c-0.1,0.1-0.1,0.2,0,0.2
				c0.1,0,0.1,0.1,0.1,0.2c0,0,0,0.1,0,0.1c0.1,0.1,0,0.3,0.1,0.4c0,0.1,0,0.2,0.1,0.3c0.1,0.1,0.1,0.3,0.2,0.4
				c0,0.1,0.1,0.1,0.1,0.2c0,0.1,0,0.2,0.1,0.3c0,0.1,0.2,0.2,0.2,0.4c0.1,0.1,0.1,0.3,0.2,0.4c0,0.1,0.1,0.2,0.1,0.2
				c0,0.1,0.1,0.1,0.2,0.1c0,0,0.1,0,0.1,0c0-0.1,0-0.1,0-0.2c0,0,0.1,0,0.1,0c0-0.1,0-0.1,0-0.2c0-0.1,0.1-0.1,0.1-0.2
				c0,0,0.1,0,0.1,0c0-0.1,0-0.2,0-0.3c0,0,0-0.1,0-0.1c0.1-0.1,0.1-0.2,0-0.2c-0.1-0.1,0-0.2-0.1-0.4c0,0,0-0.1,0-0.1
				c-0.1-0.1,0-0.1,0-0.1c0-0.1,0.1-0.2,0.2-0.2c0-0.1,0.2,0,0.2-0.1c0-0.1,0.1-0.2,0.1-0.3c0.1-0.1,0.1-0.2,0.2-0.2
				c0-0.1,0.1-0.2,0.1-0.3c0.1-0.1,0.1-0.2,0.2-0.2c0.1,0,0.1-0.1,0.1-0.1c0,0,0-0.1,0-0.1c0-0.1,0-0.2,0.1-0.2c0,0,0,0,0,0
				c0.1-0.1,0.1,0,0.2,0c0,0,0.1,0,0.1,0c0.1,0,0.2,0,0.2-0.1c0,0,0.1-0.1,0.1-0.2c0,0,0.1,0,0.1,0c0.1,0.1,0.2,0.2,0.2,0.3
				c0,0.1,0.1,0.2,0.2,0.3c0.1,0.1,0.2,0.1,0.2,0.3c0.1,0,0.1,0.1,0.2,0.1c0,0.1,0.1,0.2,0.1,0.3c0,0.1,0,0.2,0,0.4c0,0,0,0,0.1,0
				c0.1,0.1,0.1,0.1,0.2,0c0.1-0.1,0.2-0.1,0.3-0.2c0,0,0-0.1,0-0.1c0,0.1,0,0.1,0.1,0.1c0.1,0.1,0.1,0.1,0.1,0.2c0,0,0,0,0,0.1
				c0.1,0.1,0.1,0.3,0.2,0.4c0.1,0.1,0.1,0.2,0.1,0.3c0,0.1,0,0.2,0,0.3c0,0,0,0.1,0,0.2c0,0,0,0.1,0,0.1c0,0.2,0,0.4,0,0.5
				c0.1,0.1,0.2,0.2,0.2,0.3c0.1,0.1,0.1,0.2,0.2,0.3c0,0.1,0.1,0.1,0,0.2c0,0,0,0.1,0,0.1c0,0,0.1,0.1,0.1,0.1c0,0,0,0-0.1,0
				c0,0.1,0,0.2,0.1,0.2c0.1,0.1,0.1,0.2,0.1,0.3c0,0,0.1,0,0.1,0c0,0.1,0.1,0.1,0.2,0.2c0.1,0,0.1,0.1,0.2,0.1c0,0.1,0.1,0,0.1,0
				c0-0.1,0-0.2,0-0.2c-0.1-0.1-0.1-0.3-0.1-0.4c0-0.1,0-0.1,0-0.2c0-0.1-0.1-0.2-0.1-0.3c-0.1-0.1-0.2-0.2-0.2-0.3
				c0,0-0.1-0.1-0.1-0.1c-0.1,0-0.2-0.1-0.3-0.2c0.1-0.1,0.1-0.1,0-0.2c0,0-0.1-0.1-0.1-0.2c0,0-0.1,0-0.1,0c0-0.2,0-0.3,0-0.5
				c0,0,0-0.1,0-0.1c0-0.1,0.2-0.2,0-0.3c0,0,0,0,0,0c0.1-0.1,0-0.1,0-0.1c0.1-0.1,0.1-0.1,0.2,0c0,0,0,0-0.1,0.1
				c0,0,0.1,0.1,0.1,0.1c0,0,0.1,0,0.1,0c0,0.1,0,0.1,0.1,0.1c0,0,0.1,0.1,0.1,0.1c0,0.1,0.1,0.2,0.1,0.3c0,0,0.1,0,0.1,0
				c0.1,0.1,0.2,0.2,0.4,0.3c0,0,0,0.1,0,0.1c-0.1,0-0.1,0.1-0.1,0.2c0.2,0.1,0.2-0.1,0.3-0.1c0,0,0.1-0.1,0.1-0.1c0,0,0,0,0,0
				c0,0,0-0.1,0-0.1c0,0,0.1,0,0.1,0c0.1-0.5,0.1-0.9,0.1-1.4c0,0,0-0.1,0-0.1c-0.2-0.1-0.3-0.3-0.4-0.4c0-0.1-0.1-0.2-0.2-0.2
				c-0.1-0.1-0.1-0.2,0-0.3c0-0.1,0.1-0.1,0.1-0.2c0-0.1,0.1-0.2,0.2-0.2c0.1-0.1,0.1-0.1,0.2-0.1c0,0,0,0,0.1,0.1c0,0,0,0,0,0
				C-427.3,494.6-429.6,490-433.3,486.9z"/>
			<path class="st1" d="M-430.6,508.5c-0.1-0.1,0-0.2-0.1-0.3c-0.1-0.1-0.1-0.1-0.1-0.3c0,0,0-0.1,0-0.1c-0.1,0-0.1,0-0.2,0
				c0-0.2,0-0.3-0.1-0.4c0-0.1,0-0.1,0.1-0.1c-0.1-0.1-0.3-0.1-0.3-0.2c0,0,0,0,0,0c-0.1,0-0.1-0.1-0.2-0.1c0-0.1,0-0.3,0-0.4
				c0,0,0-0.1,0-0.1c-0.1-0.1,0-0.2,0-0.2c0-0.1,0-0.2,0-0.2c0,0,0-0.1,0-0.1c0-0.1-0.1-0.1-0.2-0.1c0,0,0-0.1,0-0.1
				c-0.1-0.1-0.1-0.1,0-0.2c0,0,0-0.1,0-0.1c0,0,0,0,0-0.1c0-0.1-0.1-0.3-0.1-0.4h-0.1c0,0.1,0,0.2-0.1,0.2
				c-0.1,0.1-0.1,0.2-0.1,0.3c0,0,0,0.1,0,0.1c-0.1,0,0,0.1-0.1,0.2c0,0.1,0,0.2-0.1,0.3c0,0.1-0.1,0.2-0.1,0.3
				c0,0.2-0.1,0.2-0.2,0.4c0,0,0,0-0.1,0c-0.2,0-0.2,0-0.3-0.2c-0.1,0-0.2-0.1-0.3-0.2c0,0-0.1-0.1-0.1-0.1c-0.1,0-0.1-0.1-0.1-0.1
				c0,0-0.1-0.1-0.1-0.1c0-0.1,0.1-0.2,0.1-0.3c0-0.1,0.1-0.1,0.1-0.2c0.1,0,0.1-0.1,0.1-0.2c-0.1,0-0.2,0-0.2-0.1c0,0-0.1,0-0.1,0
				c0,0,0,0-0.1,0c-0.1,0-0.2,0-0.3-0.1c0,0-0.1,0-0.2-0.1c0,0.1,0,0.2-0.2,0.2c-0.1,0-0.2,0-0.3,0.1c-0.1,0-0.1,0.1-0.1,0.2
				c0,0.1,0,0.2-0.2,0.2c0,0.1,0,0.2,0,0.3c0,0,0,0,0,0c-0.1,0-0.1,0-0.2,0c0,0-0.1,0-0.2,0c0,0,0-0.1,0-0.1c0,0,0-0.1,0-0.1
				c0-0.1-0.1-0.2-0.2-0.1c-0.1,0.1-0.2,0.1-0.4,0.1c0,0.1,0,0.1-0.1,0.2c-0.1,0.1-0.2,0.2-0.1,0.3c-0.1,0-0.1,0-0.2,0
				c-0.1,0.1,0,0.1,0,0.2c0,0-0.1,0.1-0.1,0.1c0,0-0.1,0-0.1-0.1c0,0-0.1-0.1-0.1,0c0,0-0.1,0.1-0.1,0.1c0,0.2-0.1,0.2-0.1,0.3
				c-0.1,0.1-0.1,0.1-0.2,0.2c0,0-0.1,0.1-0.1,0.1c-0.1,0-0.2,0.1-0.3,0.1c0,0,0,0,0,0c-0.1,0.1-0.2,0.1-0.4,0.1
				c-0.1,0-0.1,0-0.2,0.1c0,0-0.1,0.1-0.1,0.1c-0.1,0.1-0.2,0.1-0.3,0.2c0,0-0.1,0.1-0.1,0.1c0,0-0.1,0-0.1-0.1v0.2
				c0,0.1,0,0.1,0,0.1c-0.1,0.1-0.1,0.2-0.1,0.3c0,0.1,0,0.2,0.1,0.3c0,0.1,0,0.1,0,0.2c0,0-0.1,0-0.1,0.1c0,0.1,0.1,0.2,0,0.3
				c0,0.1,0.1,0.2,0.1,0.4c0,0,0,0.1,0,0.1c-0.1,0.2-0.1,0.3,0,0.5c0,0,0,0.1,0,0.1c-0.1,0.1-0.1,0.3-0.1,0.4c0,0-0.1,0-0.1,0
				c-0.1,0-0.1,0.1-0.1,0.2c0.1,0.1,0.1,0.2,0.2,0.2c0.1,0,0.2,0,0.2,0c0.1,0,0.2-0.1,0.3-0.2c0.1-0.1,0.2-0.2,0.4-0.2
				c0.1,0,0.2,0,0.3,0c0.1,0,0.2,0,0.3-0.1c0,0,0.1-0.1,0.1-0.1c0.1,0,0.2-0.1,0.3-0.1c0.2-0.1,0.2-0.1,0.3-0.1c0.1,0,0.2,0,0.3-0.1
				c0.1-0.1,0.2-0.1,0.3-0.1c0.1,0,0.1,0,0.2,0c0.1,0,0.1,0,0.2-0.1c0.1,0.1,0.2,0.1,0.3,0.2c0.1,0,0.1,0,0.2,0.1c0,0.1,0,0.1,0,0.1
				c0,0.1,0,0.1,0.1,0.2c0,0.1,0,0.1,0,0.2c0,0,0,0.1,0,0.1c0.1,0,0.1,0,0.2-0.1c0.1-0.1,0.3-0.3,0.4-0.4c0,0,0.1-0.1,0.1-0.1
				c0.1,0.1-0.1,0.1-0.1,0.2c0,0,0,0,0,0c-0.1,0-0.1,0.1-0.1,0.1c0.1,0,0.1,0,0.2,0c0,0,0,0.1,0,0.1c0,0,0,0.1,0,0.1
				c0.1,0,0.1,0,0.1,0c0,0,0,0,0,0c0,0-0.1,0-0.1,0c0.1,0.1,0.1,0.2,0.1,0.2c-0.1,0.1,0,0.2,0,0.4c0.1,0,0.2,0.1,0.3,0.1
				c0,0,0,0,0,0c0.1,0.1,0.2,0.1,0.3,0c0.1-0.1,0.1-0.1,0.2-0.1c0,0.1,0.1,0.2,0.1,0.2c0.1,0,0.1,0,0.2,0c0.1,0,0.1,0,0.2-0.1
				c0.1-0.1,0.1-0.1,0.2-0.1c0.1,0,0.3,0,0.4-0.1c0,0,0,0,0-0.1c0.1-0.2,0.2-0.4,0.3-0.5c0.1,0,0.1-0.1,0.1-0.2
				c0-0.1,0.1-0.1,0.1-0.1c0-0.1,0-0.2,0.1-0.2c0.1-0.1,0.2-0.1,0.2-0.2c0.1-0.1,0.1-0.2,0.2-0.2c0.1-0.1,0.1-0.1,0.1-0.2
				c0,0,0-0.1,0-0.1c0-0.1,0-0.1,0.1-0.2c0-0.1,0.1-0.2,0.1-0.2c0-0.1,0.1-0.2,0.1-0.2c0-0.1,0-0.1,0-0.2c0-0.2,0.1-0.3,0.1-0.4
				C-430.5,508.6-430.5,508.6-430.6,508.5z"/>
		</g>
	</g>
	<g>
		<ellipse class="st2" cx="-449.7" cy="512.3" rx="2.3" ry="4.2"/>
		<g>
			<g>
				<g>
					<path class="st2" d="M-467,525l0.5-1.7l13.8-1.4c0,0,0.3,1.1,0.9,3.1H-467z"/>
				</g>
				<g>
					<path class="st2" d="M-450.2,517.3c-0.1,2.2,0.1,5,0.4,7.7h-2.9c-0.8-3.4-1.8-10.4-1.8-10.4s0.4-11.2-0.3-13.7
						c-0.6-2.4-0.7-2.8-0.7-2.8l0.8,0.2c0,0,3.4,0.8,3.9,1.6s2,3.7,1.9,6.3C-448.9,508.7-450,513-450.2,517.3z"/>
				</g>
				<g>
					<path class="st3" d="M-449.1,515.6c0,0,0.6-0.6,0.7-1.5c0.1-0.8-0.2-2.1-0.9-2.9c-0.8-0.8-1.6-0.6-1.6-0.6l-1.5,0.4
						L-449.1,515.6z"/>
				</g>
				<g>
					<path class="st4" d="M-465,488.6l0.5,4.6l7.4,5.8v-6c0,0,2.1-1.5,1.9-6c0,0,0.2-2.5-0.2-4.2c-0.5-1.7-1.1-3.3-2.6-3.9
						c-1.5-0.6-5.8,0.6-6.7,1.3C-465.5,481-466.4,486.7-465,488.6z"/>
				</g>
				<g>
					<path class="st5" d="M-466.5,486l1.4,1l0.3-0.3c-0.2-1,0.2-2.6,0.7-3.4c0.2-0.3,0.2-0.7,0.2-1c-0.1-0.8,0.4-1.6,1.2-1.9
						c0,0,0,0,0,0c0.2-0.1,0.5-0.1,0.7-0.1c1.6,0.2,3.2,0.2,4.6-0.2c0.2-0.1,0.4,0,0.6,0.1c0.7,0.5,0.9,1.4,1,2.2
						c0.1,0.9,0.2,1,0.5,1.9c0.3,0.9,0,2.6,0,2.6h0.2c0,0,0.1-0.7,0.3-1.8c0.1-1.1-0.4-3.6-0.8-4.7c-0.4-1.1-1.4-2.2-2.4-2.9
						c-1-0.7-2.1-0.7-3.4-0.4c-1.4,0.3-3.8,2.1-4.6,4.1C-467.1,483.4-466.5,486-466.5,486z"/>
				</g>
				<g>
					
						<ellipse transform="matrix(-0.955 0.2965 -0.2965 -0.955 -766.1899 1091.6021)" class="st4" cx="-465.9" cy="487.7" rx="0.9" ry="2.1"/>
				</g>
				<path class="st6" d="M-457.1,493v4.5c-5-2-7.1-7-7.1-7C-461.4,494.2-457.1,493-457.1,493z"/>
				<g>
					<polygon class="st7" points="-457.1,495.7 -458,496.2 -458.6,496.2 -462.3,496.7 -457.1,508.8 -454,516.1 -454.3,500.9 					
						"/>
				</g>
				<g>
					<path class="st8" d="M-458,498.4c0,0-1.1,3.3-0.9,5.6c0.2,2.3,3.7,9.3,3.7,9.3l1.8-5.7c0,0-1-6.8-1-6.8c0-0.1-1.9-2.3-1.9-2.3
						l-1.5-0.9l-0.2,0.8"/>
				</g>
				<g>
					<path class="st8" d="M-459.6,496.6c0,0,1,0.8,1.7,1.9c0,0,0.9-0.5,1.7,0c0,0-0.4-1.8-0.7-2.2c-0.3-0.4-1,0-1,0h-0.6
						L-459.6,496.6z"/>
				</g>
				<g>
					<path class="st1" d="M-464.6,492.8c0,0,1,0.9,2.3,1.4c1.4,0.5,3.6,2.1,3.6,2.1s-2.3,2.2-2.4,3.6s-0.1,1.4-0.1,1.4l-4.7-6.4
						C-465.2,494.2-464.8,492.5-464.6,492.8z"/>
				</g>
				<g>
					<path class="st2" d="M-471.5,525c0.5-4.4,0.8-8.1,0.7-8.7c-0.3-1.6-2.8-7.3-3.9-11.7c-1.1-4.5,0.5-5.7,0.5-5.7
						c1.4-1.8,3.6-1.4,4.6-1.7c1-0.3,2.4-1.2,2.4-1.2l3.7,0.4c0,0,4.7,5.8,6,8.8c1.3,3,3.7,12.9,3.7,12.9s0.1,2.2,0.5,5.6
						c0,0.4,0.1,0.8,0.1,1.3H-471.5z"/>
				</g>
				<g>
					<path class="st3" d="M-455.1,517c0,0,0.3,2.4-0.1,3.6l4.3-0.1l-0.5-4.4L-455.1,517z"/>
				</g>
				<g>
					<path class="st9" d="M-454.2,521.6c0,0,0.3,0,0.8,0c0.8,0,2.1-0.1,3.3-0.2c1.1,0,2-0.1,2.2-0.1c0.8,0,4.2-0.5,4.6-0.9
						c0.4-0.4,1.2-2.1,1.2-3.8c0-1.7-1.4-3.9-1.4-3.9s-1.4-2.2-1.8-2.8c-0.4-0.5-0.8-0.9-1.2-1.4c-0.4-0.5-0.4-1.2-0.4-1.2
						s0.2-0.8-0.3-1.9c-0.5-1.1-1-1.9-1-1.9s-0.3-2-1.3-2.9c-0.9-0.9-1.4-0.9-1.5-0.9c0.1,0.1,0.2,0.2,0.3,0.2
						c0.6,0.8,2,3.7,1.9,6.3c-0.1,1.3-0.3,2.9-0.7,4.7v0c0,0,1.2,2.7,1.4,3c0.2,0.4,0.1,0.8-0.6,1c-0.2,0.1-0.7,0.2-1.5,0.3
						c-1.4,0.2-3.4,0.5-4.3,0.6c-0.3,0-0.4,0.1-0.4,0.1C-453.5,517.8-454.2,521.6-454.2,521.6z"/>
				</g>
				<g>
					<path class="st5" d="M-454.3,516.1c-1.2-3.2-3.5-9.5-4.7-11.7c-1.6-3-4.5-5.3-4.5-5.3l0.7-0.9l-1.5-0.2c0,0-2.5-2-2.7-2.1
						c0,0,0.3-0.5,0.7-0.8c0.4-0.3,0.8-1,1.1-1c0,0,3.5,2.3,5.1,4.7c1.6,2.4,3.4,5.7,4.5,9.3c0.7,2.4,1.4,5.8,1.8,8H-454.3z"/>
				</g>
				<g>
					<path class="st1" d="M-457.1,494.4c0,0-0.3,1.3-0.9,1.9c0,0,1,0,1.3,1.1c0.3,1.1,0.3,1.1,0.3,1.1s0-1.2-0.3-1.8
						C-456.8,496.1-456.6,494.6-457.1,494.4z"/>
				</g>
				<g>
					<path class="st5" d="M-454,516.4c-0.4-2.1-1.1-5.3-1.1-6.2c0-1.3-0.1-6.9-0.3-8.3c-0.2-1.5-1.3-5.4-1.3-5.4s0.6,1.2,2,1.9
						l-0.4,0.3c0,0,1.2,0.4,1.7,1.6c0.4,1.2,0.5,6.2,0.5,7.7c0,1-0.5,5.8-0.7,8.5H-454z"/>
				</g>
				<g>
					<path class="st5" d="M-474.6,504.5c0.6,2.4,1.6,5.1,2.4,7.3l0,0c2.5,2.9,7.5,5.9,8.3,6.3c0.8,0.4,1.2,0.5,1.7,0.7
						c0.6,0.2,1.7,0,2.3,0.2c0.6,0.2,1-0.1,1.7-0.2c0.3-0.1,2.4-0.5,4.5-1c2.5-0.6,5.2-1.2,5.2-1.2c-0.8-2.1-3.5-5.8-3.5-5.8
						s-2,0.2-3.5,0.2c-0.7,0-1.4,0-1.6,0c-0.9-0.1-3.1-0.3-3.3-0.4c-0.2-0.1-1.3,0.3-1.7,0.5c-0.5,0.2-0.7,0.2-0.9-0.7
						c-0.3-0.9-0.8-1.3-1.1-2.3c-0.3-0.9-0.7-3.8-2.9-7.2c-1.1-1.7-2.6-2.5-3.8-3c-1.1-0.4-2.5-0.1-3.2,0.8c0,0,0,0,0,0
						C-474.1,498.9-475.7,500-474.6,504.5z"/>
				</g>
			</g>
		</g>
	</g>
</g>
</svg>
