<?xml version="1.0" encoding="utf-8"?>
<!-- Generator: Adobe Illustrator 18.0.0, SVG Export Plug-In . SVG Version: 6.00 Build 0)  -->
<!DOCTYPE svg PUBLIC "-//W3C//DTD SVG 1.1//EN" "http://www.w3.org/Graphics/SVG/1.1/DTD/svg11.dtd">
<svg version="1.1" id="Layer_1" xmlns="http://www.w3.org/2000/svg" xmlns:xlink="http://www.w3.org/1999/xlink" x="0px" y="0px"
	 viewBox="0 0 48 48" enable-background="new 0 0 48 48" xml:space="preserve">
<g>
	<g>
		<g>
			<g>
				<polygon fill="#F7B64C" points="16.9,22.2 16.9,24.3 21.9,28 27,24.3 27,22.2 				"/>
			</g>
			<g>
				<g>
					
						<ellipse transform="matrix(0.9845 0.1751 -0.1751 0.9845 3.086 -5.0338)" fill="#FFD15C" cx="30.1" cy="15" rx="1.5" ry="2.7"/>
					<g>
						
							<ellipse transform="matrix(-0.9845 0.1751 -0.1751 -0.9845 29.9067 27.2953)" fill="#FFD15C" cx="13.7" cy="15" rx="1.5" ry="2.7"/>
					</g>
				</g>
				<g>
					<path fill="#415A6B" d="M31.6,7.7c0,4.3-2.7,15.1-9.7,15.1c-7,0-9.7-10.8-9.7-15.1S16.6,0,21.9,0C27.3,0,31.6,3.5,31.6,7.7z"/>
				</g>
				<g>
					<path fill="#FFD15C" d="M29.6,8.6c-1.6-0.3-3-1-4.3-1.8c-2,1.6-4.5,2.6-7.7,2.6c-1.4,0-2.6-0.2-3.8-0.6
						c-0.3,2.2-0.2,4.8-0.1,5.8c0.3,5.8,4.3,10.7,8.2,10.7s7-4.1,8.1-9.8c0,0,0,0,0,0c0.3-1.4,0.2-2.9,0.1-4.4
						C29.9,10.3,29.8,9.5,29.6,8.6z"/>
				</g>
			</g>
			<g>
				<g>
					<path fill="#E8EAE9" d="M43.8,48l-1.3-12.5c-0.3-2.4-1.9-4.5-4.2-5.2l-9.6-3.1L21.9,28l-6.8-0.7l-9.6,3.1
						c-2.3,0.7-4,2.8-4.2,5.2L0,48H43.8z"/>
				</g>
				<g>
					<g>
						<g>
							<polygon fill="#F05540" points="23.4,32 24.7,30.8 21.9,28 19.1,30.8 20.4,32 							"/>
						</g>
					</g>
					<g>
						<g>
							<polygon fill="#F05540" points="20.4,32 18.1,42.5 21.9,46.3 25.7,42.5 23.4,32 							"/>
						</g>
					</g>
				</g>
				<g>
					<g>
						<polygon fill="#F3F3F3" points="27,24.3 21.9,28 24.8,32 28.7,27.2 						"/>
					</g>
					<g>
						<polygon fill="#F3F3F3" points="16.9,24.3 21.9,28 19,32 15.1,27.2 						"/>
					</g>
				</g>
			</g>
		</g>
		<g>
			<g>
				<g>
					<circle fill="#FFFFFF" cx="37.8" cy="37.8" r="9.1"/>
					<path fill="#415A6B" d="M37.8,48c-5.6,0-10.2-4.6-10.2-10.2s4.6-10.2,10.2-10.2S48,32.2,48,37.8S43.4,48,37.8,48z M37.8,29.8
						c-4.5,0-8.1,3.6-8.1,8.1s3.6,8.1,8.1,8.1s8.1-3.6,8.1-8.1S42.3,29.8,37.8,29.8z"/>
				</g>
			</g>
			<g>
				<g>
					<path fill="#66C6B9" d="M36.2,42.5c-0.3,0-0.5-0.1-0.7-0.3l-3.3-3.3c-0.4-0.4-0.4-1.1,0-1.5c0.4-0.4,1.1-0.4,1.5,0l2.5,2.5
						l5.7-5.7c0.4-0.4,1.1-0.4,1.5,0c0.4,0.4,0.4,1.1,0,1.5l-6.4,6.4C36.7,42.4,36.4,42.5,36.2,42.5z"/>
				</g>
			</g>
		</g>
	</g>
</g>
</svg>
