<?xml version="1.0" encoding="utf-8"?>
<!-- Generator: Adobe Illustrator 18.0.0, SVG Export Plug-In . SVG Version: 6.00 Build 0)  -->
<!DOCTYPE svg PUBLIC "-//W3C//DTD SVG 1.1//EN" "http://www.w3.org/Graphics/SVG/1.1/DTD/svg11.dtd">
<svg version="1.1" id="Layer_1" xmlns="http://www.w3.org/2000/svg" xmlns:xlink="http://www.w3.org/1999/xlink" x="0px" y="0px"
	 viewBox="0 0 48 48" enable-background="new 0 0 48 48" xml:space="preserve">
<g>
	<path fill="#344A5E" d="M17.5,28.1l-3,14l-3.3-0.9c0,0,1.4-16.6,4.9-18.1L17.5,28.1z"/>
	<path fill="#425A6B" d="M37.8,22.1c0,0,2.5,0.5,2.8,0.7c0.4,0.2,1.6,3,0.9,6.1c-0.7,3.1-2.3,8.2-4.7,11c-2.4,2.8-5.4,4.6-5.4,4.6
		s-1.8,1.7-4.3,1.5c-2.5-0.2-13.4-0.7-13.4-0.7s-0.7-4.6,2.3-8.8l4.9,0.5l6.5-0.1l4-6.9l-0.1-3.9C31.4,26.1,36.2,22.3,37.8,22.1z"/>
	<path fill="#344A5E" d="M12.6,48h6.1l3.2-7.4c0,0-1.9-4.9-1.6-8.9c0.2-4,2.5-11.2,2.5-11.2s-1.6,0.6-2.8,1.1
		c-1.2,0.5-3.8,1.5-3.8,1.5s-1.8,2.2-1.9,4.8c0,2.7,0,8.6,0,8.6C13.2,38.5,12.9,43.3,12.6,48z"/>
	<path fill="#344A5E" d="M35.4,48c-0.3-2.4,0.2-4.9,1.3-7c2.7-5.4,3.6-7.7,3.6-7.7c-3.3,0.6-5.9,2-7.5,4.9c-0.9-3.6-1.5-7.2-1.3-8.6
		c0.6-3.3,4.1-6,5.6-6.8c1.2-0.6,2.8-0.3,3.3-0.1c-0.5-0.2-1.8-0.6-2.6-1.1c-1-0.5-3.6-1.8-3.6-1.8L33,20c0,0-7.9,7.6-8.8,9.2
		c-0.9,1.6-4.5,11.6-4.5,11.6L18.2,48H35.4z"/>
	<path fill="#344A5E" d="M40.4,22.7c0.1,0,0.2,0.1,0.2,0.1C40.6,22.8,40.5,22.7,40.4,22.7z"/>
	<path fill="#FFD15C" d="M20.4,46.8c0,0,2.9-0.6,4.5-1.9c1.5-1.3-2.5-2.8-2.5-2.8L20.4,47"/>
	<path fill="#FFD15C" d="M21,5.1l-0.4,2.6c0,0-0.2,0.8,0,1.4c0.2,0.6-0.1,1.2-0.1,2.1c0,0.9,0.9,3.5,0.8,4.1c0,0.6-0.2,3.2,1.9,3.2
		l0.3,4.5l8.4-3.8c0,0-0.8-2.2-0.8-3.1c0-1,0.8-3.6,0.8-3.6l0.7-3.3c0,0-1-5.4-3.7-6.5C26.3,1.6,22.3,1.6,21,5.1z"/>
	<path fill="#425A6B" d="M21.8,4.7c0.3-0.5,1.8-0.4,2.9-0.5c1-0.1,3.6,0.3,3.9,0.6c0.3,0.3-0.8,1-0.6,1.9c0.1,0.8,1.2,1.3,1.4,2
		c0.3,0.8,0,2.8,0,2.8l0.6,0.3c0,0,1.3-1.5,2-1.4c0.7,0.1-0.8,3.3-0.8,4.6s0,1.2,0,1.2s1.1-2.7,1.5-3.8s1.4-3.9,1.4-5.7
		c0-1.8-1.6-4.3-3.1-5c-1.5-0.7-6.2-2.2-8.3-1.5c-2.1,0.7-2.6,3.5-2.4,4.4c0.2,0.9,0.3,3.2,0.3,3.2S21.5,5.2,21.8,4.7z"/>
	<path fill="#F5B54C" d="M30.7,14.9c-2.4,3.4-7.4,3.7-7.4,3.7l0.3,3.8C28.8,19.8,30.7,14.9,30.7,14.9z"/>
	<path fill="#E8EAE8" d="M28.3,24.7c-1.9,1.9-3.7,3.9-4.1,4.6c-0.6,1-2.3,5.5-3.4,8.5L19.6,35l3.1-14.2l0.8-0.6l2,0.7l2.2,0
		L28.3,24.7z"/>
	<path fill="#F26F5A" d="M25.6,22.4l-0.1,1.1l-2.3,8.1l-1.6,4l-1.1-0.7l0.9-6.7c0,0,2.7-4.6,2.7-5.3c0-0.7,0.1-0.8,0.1-0.8
		L25.6,22.4z"/>
	<path fill="#F05640" d="M23.7,21.6c0,0,0,0.9,0.3,1.3c0,0,1.3-0.1,1.4,0.6c0,0,0.9-1.2,1.6-1.2c0,0-1-1.1-1.6-1.3s-0.8-0.2-0.8-0.2
		L23.7,21.6z"/>
	<path fill="#F3F3F3" d="M31.2,16.3c0,0,0,0.7-0.4,1.1c-0.4,0.4-5.4,3.5-5.4,3.5c0.9,0.6,1.5,1.5,1.7,2.4l5.4-4.9
		C32.6,18.5,31.7,16.6,31.2,16.3z"/>
	<path fill="#425A6B" d="M32.1,17.5c0,0,0.2,0.3,0,0.6c-0.1,0.1-0.4,0.4-0.8,0.8c-2.4,2.4-4.6,5-6.5,7.8c-0.9,1.3-1.7,2.6-2.1,3.5
		c-1.1,2.6-3.1,8.5-3.2,10.9c0,0,3.6-8.3,5.5-10.9c1.9-2.6,6.9-6.8,7.5-7.1l-1.1-1.1h1.8c0,0,0.7-1.8,0.9-2l-0.3-0.5
		C33.9,19.4,32.7,17.3,32.1,17.5z"/>
	<path fill="#425A6B" d="M21.1,21.9l0.4,0.3l-2,1.2c0,0-1.4,5.8-0.8,9.3c0.3,2,0.9,4.5,1.4,6.3c0.2-0.5,0.4-1.1,0.5-1.7
		c0-0.2,0.2-0.3,0.4-0.3c0.1-3.4,0.4-7.8,0.6-9c0.4-2,1.9-8.5,1.9-8.5S21.9,21.3,21.1,21.9z"/>
	<path fill="#F3F3F3" d="M23.3,18.6c0,0,0.8,1.9,2.1,2.3c0,0-1.6,0.3-2.1,2.2C23.3,23.1,22.9,19.7,23.3,18.6z"/>
	<path fill="#425A6B" d="M9.4,46.4l3.2,0.9l2.2,0.6h5.5l1.6-4.4l-1.1-0.4l-7.4-2.6l0.9-4c0,0,0-5.9,0-8.6c0-2.7,1.9-4.8,1.9-4.8
		c-1.5,0.2-3,3.6-3.4,4.4c-0.4,0.8-0.6,1.5-0.7,2c-0.1,0.5-0.5,1.1-1,1.9c-0.5,0.8-0.6,1.4-0.8,1.8C10,33.5,7.6,37,7.1,37.8
		c-0.4,0.8-1,4.4-0.8,6.4C6.5,46.2,9.4,46.4,9.4,46.4z"/>
	<path fill="#FFD15C" d="M14.4,40.9l-1-0.4c0-1.1,0.1-2.1,0.4-3c0.2-0.6,0.8-0.9,1.4-0.7l1.9,0.7L14.4,40.9z"/>
	<path fill="#344A5E" d="M20.5,45.5l-1.7-0.1c-0.6,0-1.1-0.1-1.7-0.1c-0.6,0-1.1-0.1-1.7-0.1l-1.5-0.1c0-0.1,0-0.3,0-0.4
		c0-0.2,0-0.4,0-0.6c0-0.2,0-0.4,0-0.6c0-0.2,0-0.4,0-0.6c0-0.2,0-0.4,0.1-0.6l0-0.3l0-0.3c0-0.2,0.1-0.4,0.1-0.6
		c0-0.1,0-0.2,0.1-0.3c0,0,0-0.1,0-0.1L14,40.8c0,0,0,0.1,0,0.1c0,0.1,0,0.2-0.1,0.3c0,0.2-0.1,0.4-0.1,0.6l0,0.3l0,0.3
		c0,0.2,0,0.4-0.1,0.6c0,0.2,0,0.4,0,0.6c0,0.2,0,0.4,0,0.6c0,0.2,0,0.4,0,0.6c0,0.2,0,0.4,0.1,0.6l0,0.1l0.1,0l1.7,0.1
		c0.6,0,1.1,0.1,1.7,0.1c0.6,0,1.1,0.1,1.7,0.1l1.7,0.1l0.6,0l0.1-0.3L20.5,45.5z"/>
	<path fill="#425A6B" d="M41.3,30c-0.8,3.1-2.3,7.4-4.4,9.8c-2.4,2.8-5.4,4.6-5.4,4.6s-1.8,1.7-4.3,1.5c-2.5-0.2-13.4-0.7-13.4-0.7
		s-0.7-4.6,2.3-8.8l4.9,0.5l6.5-0.1l4-6.9H41.3z"/>
	<path fill="#FFD15C" d="M27.4,37c0.5-0.4,1.1-0.8,1.7-1.2c0,0,0.2-0.5-0.3-0.6l0.3,0.1l1.8-1c0,0,0.4-0.5,0-0.7
		c0,0,0.9-0.3,0.7-0.6c-0.2-0.4-0.7-0.3-0.7-0.3s0.3-0.3,0.2-0.5c-0.1-0.2-0.4-0.1-0.6-0.1c-0.2,0.1-1.1,0.6-1.1,0.6l-1.3,1.2
		c0,0-0.4,0.4-0.6,0.7c-0.2,0.3-0.7,1.4-0.7,1.6c0,0.2-0.2,0.8-0.2,0.8L27.4,37z"/>
	<polygon fill="#FFD15C" points="29.2,35.1 29.1,35.2 29,35.4 28.7,35.1 	"/>
	<path fill="#F5B54C" d="M28.8,35.2c-0.1,0.1-0.1,0.1-0.2,0.1c-0.1,0-0.1,0.1-0.2,0.1l-0.2,0.1c-0.1,0-0.1,0.1-0.2,0.1l0,0l0,0
		c-0.1,0.1-0.2,0.1-0.4,0.2c-0.1,0-0.1,0.1-0.2,0.1c0,0-0.1,0-0.1,0.1c0,0,0,0-0.1,0.1c-0.1,0.1-0.2,0.2-0.2,0.3L27,36.8
		c0.1-0.1,0.1-0.2,0.2-0.3c0.1-0.1,0.2-0.2,0.2-0.3c0,0,0-0.1,0.1-0.1c0,0,0.1,0,0.1-0.1c0.1,0,0.1-0.1,0.2-0.1
		c0.1,0,0.1-0.1,0.2-0.1c0.1,0,0.1-0.1,0.2-0.1l0,0c0.1,0,0.1-0.1,0.2-0.1l0.2-0.1c0.1,0,0.1-0.1,0.2-0.1
		C28.7,35.2,28.8,35.2,28.8,35.2z"/>
	<path fill="#F5B54C" d="M31,33.6C31,33.6,30.9,33.6,31,33.6c-0.1,0-0.1,0-0.1,0c0,0-0.1,0-0.2,0c-0.1,0-0.1,0-0.2,0
		c-0.2,0.1-0.3,0.1-0.5,0.2c-0.1,0-0.2,0.1-0.3,0.1c-0.1,0.1-0.2,0.1-0.3,0.2c-0.2,0.1-0.4,0.2-0.6,0.3c-0.2,0.1-0.3,0.2-0.5,0.3
		C28.2,34.8,28,34.9,28,35c0,0-0.1,0.1-0.1,0.1c0,0,0,0,0,0s0,0,0,0c0,0,0,0,0.1-0.1c0.1-0.1,0.2-0.2,0.3-0.3
		c0.1-0.1,0.3-0.2,0.5-0.3c0.1-0.1,0.2-0.1,0.3-0.2c0.1-0.1,0.2-0.1,0.3-0.2c0.1-0.1,0.2-0.1,0.3-0.2c0.1-0.1,0.2-0.1,0.3-0.1
		c0.1,0,0.2-0.1,0.3-0.1c0.1,0,0.2-0.1,0.3-0.1c0,0,0,0,0.1,0c0,0,0,0,0.1,0c0,0,0,0,0,0l0,0l0,0c0,0,0,0,0.1,0c0.1,0,0.1,0,0.2,0
		C30.9,33.5,30.9,33.5,31,33.6C30.9,33.6,31,33.6,31,33.6z"/>
	<path fill="#F5B54C" d="M30.9,32.6c0,0,0,0-0.1,0.1c-0.1,0-0.2,0.1-0.3,0.2c-0.1,0-0.1,0.1-0.2,0.1c0,0-0.1,0-0.1,0c0,0,0,0-0.1,0
		c0,0,0,0-0.1,0c-0.1,0-0.2,0-0.3,0.1c-0.1,0-0.2,0.1-0.3,0.1c-0.1,0-0.2,0.1-0.3,0.1c-0.1,0.1-0.2,0.1-0.2,0.1
		c-0.2,0.1-0.3,0.2-0.4,0.3c-0.1,0.1-0.2,0.1-0.3,0.2c-0.1,0-0.1,0.1-0.1,0.1s0,0,0.1-0.1c0.1,0,0.2-0.1,0.3-0.2
		c0.1-0.1,0.3-0.2,0.4-0.3c0.1,0,0.2-0.1,0.2-0.2c0.1-0.1,0.2-0.1,0.3-0.1c0.1,0,0.2-0.1,0.3-0.1c0.1,0,0.2-0.1,0.3-0.1
		c0,0,0,0,0.1,0c0,0,0,0,0.1,0c0,0,0.1,0,0.1,0c0.1,0,0.2-0.1,0.2-0.1C30.7,32.7,30.9,32.6,30.9,32.6z"/>
	<path fill="#FFD15C" d="M32.1,11.8c-0.3,1-1.1,1.7-1.7,1.5c-0.6-0.2-0.8-1.2-0.5-2.2c0.3-1,1.1-1.7,1.7-1.5
		C32.2,9.8,32.4,10.8,32.1,11.8z"/>
</g>
</svg>
