<?xml version="1.0" encoding="utf-8"?>
<!-- Generator: Adobe Illustrator 18.0.0, SVG Export Plug-In . SVG Version: 6.00 Build 0)  -->
<!DOCTYPE svg PUBLIC "-//W3C//DTD SVG 1.1//EN" "http://www.w3.org/Graphics/SVG/1.1/DTD/svg11.dtd">
<svg version="1.1" id="Layer_1" xmlns="http://www.w3.org/2000/svg" xmlns:xlink="http://www.w3.org/1999/xlink" x="0px" y="0px"
	 viewBox="0 0 48 48" enable-background="new 0 0 48 48" xml:space="preserve">
<g>
	<g>
		<g>
			<g>
				<path fill="#E8EAE9" d="M41.6,29.8H25.2v-4.9h-2v4.9H6.7c-0.6,0-1,0.5-1,1v4.4h2v-3.4h15.5v3.4h2v-3.4h15.5v3.4h2v-4.4
					C42.6,30.3,42.2,29.8,41.6,29.8z"/>
			</g>
		</g>
		<g>
			<path fill="#F7B64C" d="M37.3,10.8V6.3c0-1-0.8-1.8-1.8-1.8H21.2l-1.5-2.2c-0.3-0.5-0.9-0.8-1.5-0.8h-5.8c-1,0-1.8,0.8-1.8,1.8
				v7.5H37.3z"/>
			<g>
				<path fill="#F3F3F3" d="M34.4,5.8v11.4c0,1-0.8,1.8-1.8,1.8H15.4c-1,0-1.8-0.8-1.8-1.8V1.8c0-1,0.8-1.8,1.8-1.8h13.2L34.4,5.8z"
					/>
				<g>
					<polygon fill="#CED6E0" points="34.4,5.8 28.6,5.8 28.6,0 					"/>
				</g>
				<g>
					<rect x="16.6" y="2.9" fill="#8AD7F8" width="6.7" height="5.6"/>
				</g>
				<g>
					<rect x="16.6" y="10.7" fill="#E8EAE9" width="14.9" height="1"/>
				</g>
				<g>
					<rect x="25.5" y="7.5" fill="#E8EAE9" width="5.9" height="1"/>
				</g>
			</g>
			<path fill="#FFD15C" d="M37.6,9.8H10.4c-1.5,0-2.6,1.3-2.3,2.8l2.3,11.8c0.2,1.1,1.2,1.9,2.3,1.9h22.7c1.1,0,2.1-0.8,2.3-1.9
				l2.3-11.8C40.2,11.1,39.1,9.8,37.6,9.8z"/>
		</g>
		<g>
			<path fill="#F3705A" d="M10.6,34.6H2.7c-1.5,0-2.7,1.2-2.7,2.7v7.9C0,46.8,1.2,48,2.7,48h7.9c1.5,0,2.7-1.2,2.7-2.7v-7.9
				C13.4,35.8,12.1,34.6,10.6,34.6z"/>
			<rect x="2.9" y="37.5" fill="#F05540" width="7.6" height="7.6"/>
		</g>
		<g>
			<path fill="#415A6B" d="M28,34.6H20c-1.5,0-2.7,1.2-2.7,2.7v7.9c0,1.5,1.2,2.7,2.7,2.7H28c1.5,0,2.7-1.2,2.7-2.7v-7.9
				C30.7,35.8,29.5,34.6,28,34.6z"/>
			<rect x="20.2" y="37.5" fill="#344A5E" width="7.6" height="7.6"/>
		</g>
		<g>
			<path fill="#66C6B9" d="M45.3,34.6h-7.9c-1.5,0-2.7,1.2-2.7,2.7v7.9c0,1.5,1.2,2.7,2.7,2.7h7.9c1.5,0,2.7-1.2,2.7-2.7v-7.9
				C48,35.8,46.8,34.6,45.3,34.6z"/>
			<rect x="37.5" y="37.5" fill="#4ABAA5" width="7.6" height="7.6"/>
		</g>
	</g>
</g>
</svg>
