<?xml version="1.0" encoding="utf-8"?>
<!-- Generator: Adobe Illustrator 19.0.1, SVG Export Plug-In . SVG Version: 6.00 Build 0)  -->
<svg version="1.1" id="Layer_1" xmlns="http://www.w3.org/2000/svg" xmlns:xlink="http://www.w3.org/1999/xlink" x="0px" y="0px"
	 viewBox="0 0 48 48" style="enable-background:new 0 0 48 48;" xml:space="preserve">
<style type="text/css">
	.st0{fill:#FFD15C;}
	.st1{fill:#415A6B;}
	.st2{fill:#F7B64C;}
	.st3{fill:#CED6E0;}
	.st4{fill:#344A5E;}
	.st5{fill:#F3F3F3;}
	.st6{fill:#F05540;}
	.st7{fill:#F3705A;}
	.st8{fill:#66C6B9;}
	.st9{fill:#55C0EB;}
	.st10{fill:#F5F6FB;}
	.st11{fill:#4ABAA5;}
	.st12{fill:#ADB3BA;}
	.st13{fill:#E8EAE9;}
	.st14{fill:#2E4556;}
	.st15{fill:#8AD7F8;}
	.st16{fill:#FFFFFF;}
	.st17{fill:#E54838;}
	.st18{fill:#3EAF99;}
	.st19{fill:#EFA943;}
	.st20{fill:#4CAEE5;}
	.st21{fill:#293F4F;}
	.st22{fill:#2D4456;}
	.st23{fill:#2E4454;}
	.st24{fill:#2A3F4F;}
	.st25{fill:#2D4151;}
	.st26{fill:#E89E3D;}
	.st27{fill:#2B4151;}
	.st28{fill:#2A4051;}
	.st29{fill:#2C4151;}
	.st30{fill:#EBEAE8;}
	.st31{fill:#3AA590;}
	.st32{fill:#E84534;}
	.st33{fill:none;}
</style>
<g>
	<g>
		<g>
			<path class="st0" d="M28,14.8c0,0,0.6-2,5.6-1.5c0,0,2.9-2.5,6.2-1.1l1.8,0.3c0,0,0-2.3-0.2-4.3c-0.1-2-1.5-4.4-1.5-4.4
				s-0.5,0.7-1.4,0.7c-0.8,0-1.1,0.1-1.4,0.4c-0.3,0.2-1.3,0.3-1.6,0.1c-0.3-0.2-0.2-0.6,0.1-0.9c0,0-1-0.1-0.9-1.2s0.9-2.2,1.2-2.2
				c0,0,0.3-0.8,1.1-0.5c0,0,0.6-0.3,1.1,0c0,0,1.7,0.3,2.4,0.6c0.7,0.3,1.2,0.7,1.6,1.7c0.4,1,2.2,3,3.2,4.3s1.7,3.2,2,4.9
				c0.3,1.7,0.5,2.2,0.7,2.7s-0.2,1.3-0.7,1.5c-0.5,0.2-3.3,1.2-4.9,2.2c-1.6,0.9-3.1,1.4-4.4,1.4s-6.2,0.9-6.2,0.9L28,14.8z"/>
		</g>
		<g>
			<path class="st0" d="M20,14.8c0,0-0.6-2-5.6-1.5c0,0-2.9-2.5-6.2-1.1l-1.8,0.3c0,0,0-2.3,0.2-4.3s1.5-4.4,1.5-4.4
				s0.5,0.7,1.4,0.7s1.1,0.1,1.4,0.4c0.3,0.2,1.3,0.3,1.6,0.1s0.2-0.6-0.1-0.9c0,0,1-0.1,0.9-1.2c-0.1-1.1-0.9-2.2-1.2-2.2
				c0,0-0.3-0.8-1.1-0.5c0,0-0.6-0.3-1.1,0c0,0-1.7,0.3-2.4,0.6S6.3,1.5,5.9,2.5s-2.2,3-3.2,4.3s-1.7,3.2-2,4.9s-0.5,2.2-0.7,2.7
				s0.2,1.3,0.7,1.5c0.5,0.2,3.3,1.2,4.9,2.2c1.6,0.9,3.1,1.4,4.4,1.4s6.5,0.9,6.5,0.9L20,14.8z"/>
		</g>
	</g>
	<g>
		<g>
			<path class="st1" d="M23.4,48c-0.1-1.8-0.4-4.4-0.4-4.4s-0.3,1.6-0.5,2.6c-0.1,0.3-0.2,1-0.4,1.7h-5.5c0-0.4,0.1-0.6,0.1-0.8
				c-1.3-4.7-1.1-12-1.1-12l5-8.2l7.4-1c0,0,1.8,7.6,2.2,12c0.4,3.7-0.3,8.1-0.7,10H23.4z"/>
		</g>
		<g>
			<g>
				<g>
					<path class="st0" d="M20.1,7.2c0,0,0.4,1.2,0.4,2.6s-0.1,1.4-0.1,1.4l4.8,1.5L24.9,11L25,9.3c0,0,1.1-1.1,1-3.6S26,3.1,26,3.1
						s0-1.7-1.4-2.1s-3.6,0.1-4,0.6C20.1,2.2,19.7,6.1,20.1,7.2z"/>
				</g>
				<g>
					<path class="st0" d="M19.2,6.5c0.2,0.6,0.6,1,1,0.9c0.3-0.1,0.4-0.6,0.2-1.2s-0.6-1-1-0.9C19.1,5.3,19,5.9,19.2,6.5z"/>
				</g>
				<g>
					<path class="st0" d="M26.3,6.2c-0.1,0.6-0.4,1.1-0.7,1.1c-0.3,0-0.6-0.5-0.5-1.2S25.5,5,25.8,5S26.4,5.5,26.3,6.2z"/>
				</g>
				<g>
					<path class="st1" d="M19.6,2.2c0.4-0.9,1.8-1.9,2.7-2.1s2.6,0.2,3.2,1.1c0.6,0.9,0.8,3,0.7,3.6C26.1,5.2,26,5.9,26,6h-0.1
						c0-0.2,0.1-1.3,0-1.7c-0.2-0.4-0.4-1-0.4-1.4S25.3,2,24.7,1.8C24,1.5,21.4,1.8,21,2c-0.3,0.2-0.5,0.7-0.4,1.1
						c0,0.4-0.4,1.1-0.5,1.4c-0.1,0.3,0,1.5,0,1.5h-0.2c0,0-0.3-0.5-0.4-1C19.5,4.6,19.2,3.1,19.6,2.2z"/>
				</g>
				<path class="st2" d="M22.7,9.7c1.5,0.5,2.4-0.4,2.4-0.4L24.9,11l0.2,0.8c-3.8-1.2-4.7-3.7-4.7-3.7S21.2,9.1,22.7,9.7z"/>
				<g>
					<polygon class="st3" points="24,11.4 23.9,11.4 20.3,11.9 24.8,23.4 26.4,19.6 26.2,12.8 25.3,11.7 					"/>
				</g>
				<g>
					<path class="st7" d="M23.3,15l1.3,5.8h1.8l0.3-1c0,0-0.5-4.1-0.8-5.1c-0.3-1-0.9-1.8-0.9-1.8L24,12.2c0,0,0,0.1-0.1,0.6
						C23.9,13.3,23.3,15,23.3,15z"/>
				</g>
				<g>
					<path class="st7" d="M23.1,11.8c0,0,0.7,0.4,0.9,1c0.3-0.2,0.6-0.2,1,0c0,0,0.2-1.3,0.2-1.3c0,0-1.1-0.1-1.1-0.1l-0.2,0
						L23.1,11.8z"/>
				</g>
			</g>
			<g>
				<ellipse class="st1" cx="29.4" cy="20.9" rx="1.7" ry="2"/>
			</g>
			<g>
				<path class="st4" d="M26.3,12.6c0,0,0.2,0.1,0.9,0.4c0.7,0.3,2,0.4,2.5,1.1s0.8,3,0.3,5s-1.2,5.9-0.4,9.8
					c0.8,3.9,1.1,9.4,1.1,9.4s-1.3,0.6-2-1c-0.7-1.6-2.3-10.4-2.3-10.4s-0.4-5.2-0.1-7.2s-0.2-6.4-0.3-6.8
					C26,12.5,26.3,12.6,26.3,12.6z"/>
			</g>
			<g>
				<path class="st4" d="M18.9,11.2c0,0-0.9,0.7-1.8,0.8c-0.9,0-2.4,0.2-2.7,1.4s0.4,4.8,0.7,6s1.9,5.2,1.5,9
					c-0.4,3.8-1.9,9.1-1.9,9.1s5,0.6,7.2,0.5c2.3-0.1,3.3-1,3.7-2c0.4-1,1.3-7,1.2-8.4c-0.1-1.3-0.2-1.8-0.2-1.8S25.4,20,24,16.4
					s-4.1-5.6-4.1-5.6L18.9,11.2z"/>
			</g>
			<g>
				<path class="st5" d="M20.5,9.4c0,0,0.5,0.5,1.1,0.7s2.3,1.3,2.3,1.3l-1.5,1.8l-2.4-2.7L20.5,9.4z"/>
			</g>
			<g>
				<path class="st5" d="M24,11.4L24,11.4c0.6,0.5,1.1,1.1,1.5,1.8l0.1,0.1c0,0-0.2-1.4-0.2-2c-0.1-0.6-0.3-1.2-0.3-1.2
					S24.6,11.1,24,11.4z"/>
			</g>
			<g>
				<path class="st1" d="M20.1,10.1c0,0,0.2,0.5,0.6,0.8c0.4,0.3,2.2,1.6,3.2,4c1.1,2.4,2.5,8.2,2.6,10.9c0,0-2-7.4-3.4-9.7
					c-1.4-2.3-2.4-2.9-2.4-2.9l0.4-0.7l-0.9,0c0,0-1.2-1-1.4-1.1c-0.1-0.1-0.1-0.1,0-0.2c0.1-0.1,0.5-0.5,0.7-0.7
					C20,10.1,20.1,10.1,20.1,10.1z"/>
			</g>
			<g>
				<path class="st1" d="M25.3,11.7c0,0,1,3.2,0.9,4.8c0,1.5-0.7,4.9,0,7.4c0,0,0.6-3.6,0.9-4.6c0.3-1,0.4-5,0.1-5.9l-0.9-0.3
					l0.4-0.2c0,0-0.7-0.5-1-0.8C25.6,11.9,25.3,11.7,25.3,11.7z"/>
			</g>
			<g>
				<path class="st1" d="M25,22.4v3.1c0,0,0.6,0,1.3,0.1c0.5,0,1.1,0.1,1.6,0.1c0.4,0,0.8,0.1,1.3,0.2c0.8,0.2,1.6,0.5,2.4,0.5
					c1.2,0,2-1.1,2-1.7c0-0.6,0-2.5-0.1-2.8c-0.1-0.3-0.9-1.4-1.2-1.8c-0.3-0.4-0.6-1.1-0.7-1.5c-0.1-0.3-0.2-0.8-0.4-1.4
					c-0.2-0.6-0.1-0.8-0.4-1.7c-0.3-0.8-1.2-1.5-1.2-1.5c0.5,0.7,0.8,3,0.3,5c0,0.2-0.1,0.4-0.1,0.6c0,0,0,0,0,0l0.3,2.4
					c0,0-0.1,0-0.7,0.1c-0.4,0-2.1,0.1-3.2,0.2C25.6,22.4,25,22.4,25,22.4z"/>
			</g>
			<path class="st4" d="M25,22.4c0,0,0.5,0,1.2,0c1.2,0,2.8-0.1,3.2-0.2c0.1,0,0.2,0,0.3,0c0,0.4,0.1,0.8,0,1.3l0,0.2l-0.2,0
				c0,0-2.1,0.2-3.4,0.3c-0.3,0-0.8,0.1-1,0.1c0,0-0.1,0-0.1,0V22.4z"/>
			<g>
				<path class="st0" d="M31.1,21.8c0,0-0.5,0.6-1.6,0.4l-1.7-1.4l0.4-1.2c0,0,1,0.1,1.9,1.1C31,21.7,31.1,21.8,31.1,21.8z"/>
			</g>
			<g>
				<path class="st1" d="M14.5,16.1c0.4,2.5,1.6,4.7,3.4,6.4c0.1,0.1,0.2,0.2,0.3,0.3c0.8,0.6,2.1,0.7,2.3,0.8c0.2,0.1,0.8,0,1.1,0
					c0.3,0,0.4,0.2,0.9,0.2c0.5,0,1.9,0,2.6,0c0.2,0,0.5,0,1-0.1c1.3-0.1,3.4-0.3,3.4-0.3c0.1-3.3-1.4-3.8-1.4-3.8s-1.5-0.2-2.2-0.1
					c-0.2,0-0.5,0-1-0.1c-1.2-0.1-3-0.3-3.3-0.4c-0.4-0.1-0.5,0-0.7,0.1c-0.2,0.1-0.1,0.2-0.2-0.2c0-0.4-0.1,0-0.2-0.4
					c-0.1-0.3-0.5-1.3-1.2-2.6c-0.6-1.3-1.7-2.9-2.9-3.6c-0.2-0.1-0.5-0.2-0.8-0.3c0,0,0,0,0,0c-0.6,0.2-1.2,0.5-1.4,1.2
					C14.2,13.9,14.3,15,14.5,16.1z"/>
			</g>
			<g>
				<path class="st1" d="M14.5,16.1c0.4,2.5,1.6,4.7,3.4,6.4c0.1,0.1,0.2,0.2,0.3,0.3c0.8,0.6,2.1,0.7,2.3,0.8c0.2,0.1,0.8,0,1.1,0
					c0.3,0,0.4,0.2,0.9,0.2c0.5,0,1.9,0,2.6,0c0.2,0,0.5,0,1-0.1c1.3-0.1,3.4-0.3,3.4-0.3c0.1-3.3-1.4-3.8-1.4-3.8s-1.5-0.2-2.2-0.1
					c-0.2,0-0.5,0-1-0.1c-1.2-0.1-3-0.3-3.3-0.4c-0.4-0.1-0.5,0-0.7,0.1c-0.2,0.1-0.1,0.2-0.2-0.2c0-0.4-0.1,0-0.2-0.4
					c-0.1-0.3-0.5-1.3-1.2-2.6c-0.6-1.3-1.7-2.9-2.9-3.6c-0.2-0.1-0.5-0.2-0.8-0.3c0,0,0,0,0,0c-0.6,0.2-1.2,0.5-1.4,1.2
					C14.2,13.9,14.3,15,14.5,16.1z"/>
			</g>
		</g>
	</g>
</g>
</svg>
