<?xml version="1.0" encoding="utf-8"?>
<!-- Generator: Adobe Illustrator 18.0.0, SVG Export Plug-In . SVG Version: 6.00 Build 0)  -->
<!DOCTYPE svg PUBLIC "-//W3C//DTD SVG 1.1//EN" "http://www.w3.org/Graphics/SVG/1.1/DTD/svg11.dtd">
<svg version="1.1" id="Layer_1" xmlns="http://www.w3.org/2000/svg" xmlns:xlink="http://www.w3.org/1999/xlink" x="0px" y="0px"
	 viewBox="0 0 48 48" enable-background="new 0 0 48 48" xml:space="preserve">
<g>
	<g>
		<g>
			<g>
				<g>
					<path fill="#E8EAE9" d="M27.8,19.1l4.6-8.5h-2.3l-4.1,7.6C26.7,18.3,27.3,18.6,27.8,19.1z"/>
				</g>
			</g>
			<g>
				<path fill="#E8EAE9" d="M30,24.3c0,0.7-0.1,1.3-0.3,2l8.1,1.7v-2L30,24.3z"/>
			</g>
		</g>
		<g>
			<g>
				<path fill="#E8EAE9" d="M18.3,26.3l-8.6,5.2c0.3,0.6,0.6,1.2,0.7,1.9l8.8-5.3C18.8,27.5,18.5,26.9,18.3,26.3z"/>
				<path fill="#E8EAE9" d="M24,30.3c-0.3,0-0.7,0-1-0.1v8.4h2v-8.4C24.7,30.2,24.3,30.3,24,30.3z"/>
			</g>
		</g>
		<g>
			<path fill="#E8EAE9" d="M20.3,18.9L8.9,7.5C8.6,8.1,8.2,8.6,7.7,9.2L19,20.4C19.3,19.8,19.8,19.3,20.3,18.9z"/>
		</g>
		<g>
			<g>
				<g>
					<circle fill="#415A6B" cx="24" cy="24" r="7.3"/>
				</g>
			</g>
			<g>
				<g>
					<circle fill="#344A5E" cx="24" cy="24" r="4.4"/>
				</g>
			</g>
		</g>
		<g>
			<g>
				<g>
					<circle fill="#8AD7F8" cx="5.5" cy="5.5" r="5.5"/>
				</g>
			</g>
			<g>
				<g>
					<circle fill="#55C0EB" cx="5.5" cy="5.5" r="3.4"/>
				</g>
			</g>
		</g>
		<g>
			<g>
				<g>
					<circle fill="#FFD15C" cx="32.9" cy="7.7" r="5.5"/>
				</g>
			</g>
			<g>
				<g>
					<circle fill="#F7B64C" cx="32.9" cy="7.7" r="3.4"/>
				</g>
			</g>
		</g>
		<g>
			<g>
				<g>
					<circle fill="#CED6E0" cx="24" cy="42.5" r="5.5"/>
				</g>
			</g>
			<g>
				<g>
					<circle fill="#ADB3BA" cx="24" cy="42.5" r="3.4"/>
				</g>
			</g>
		</g>
		<g>
			<g>
				<g>
					<circle fill="#F3705A" cx="6.7" cy="34.4" r="5.5"/>
				</g>
			</g>
			<g>
				<g>
					<circle fill="#F05540" cx="6.7" cy="34.4" r="3.4"/>
				</g>
			</g>
		</g>
		<g>
			<g>
				<g>
					<circle fill="#66C6B9" cx="42.5" cy="28" r="5.5"/>
				</g>
			</g>
			<g>
				<g>
					<circle fill="#4ABAA5" cx="42.5" cy="28" r="3.4"/>
				</g>
			</g>
		</g>
	</g>
</g>
</svg>
