<?xml version="1.0" encoding="utf-8"?>
<!-- Generator: Adobe Illustrator 19.0.1, SVG Export Plug-In . SVG Version: 6.00 Build 0)  -->
<svg version="1.1" id="Layer_1" xmlns="http://www.w3.org/2000/svg" xmlns:xlink="http://www.w3.org/1999/xlink" x="0px" y="0px"
	 viewBox="0 0 48 48" style="enable-background:new 0 0 48 48;" xml:space="preserve">
<style type="text/css">
	.st0{fill:#FFD15C;}
	.st1{fill:#415A6B;}
	.st2{fill:#F7B64C;}
	.st3{fill:#CED6E0;}
	.st4{fill:#344A5E;}
	.st5{fill:#F3F3F3;}
	.st6{fill:#F05540;}
	.st7{fill:#F3705A;}
	.st8{fill:#66C6B9;}
	.st9{fill:#55C0EB;}
	.st10{fill:#F5F6FB;}
	.st11{fill:#4ABAA5;}
	.st12{fill:#ADB3BA;}
	.st13{fill:#E8EAE9;}
	.st14{fill:#2E4556;}
	.st15{fill:#8AD7F8;}
	.st16{fill:#FFFFFF;}
	.st17{fill:#E54838;}
	.st18{fill:#3EAF99;}
	.st19{fill:#EFA943;}
	.st20{fill:#4CAEE5;}
	.st21{fill:#293F4F;}
	.st22{fill:#2D4456;}
	.st23{fill:#2E4454;}
	.st24{fill:#2A3F4F;}
	.st25{fill:#2D4151;}
	.st26{fill:#E89E3D;}
	.st27{fill:#2B4151;}
	.st28{fill:#2A4051;}
	.st29{fill:#2C4151;}
	.st30{fill:#EBEAE8;}
	.st31{fill:#3AA590;}
	.st32{fill:#E84534;}
	.st33{fill:none;}
</style>
<g>
	<g>
		<path class="st7" d="M19.7,6c0.1,0,0.1,0,0.2,0.1c1,2.3,1.2,5.1,0.7,7.6c-0.5,2.5-1.7,4.8-3.5,6.5c-0.8,0.8-1.8,1.5-2.5,2.4
			c-1.1,1.3-1.6,3.1-1.4,4.8c-1.1-1.4-1.7-3.2-1.9-5s-0.1-3.6,0-5.4c0.2-2.6,0.6-5.3,1.8-7.7s3.2-4.5,5.8-5.1"/>
	</g>
	<g>
		<g>
			<g>
				<g>
					<ellipse class="st4" cx="11.3" cy="36.2" rx="2.9" ry="8.7"/>
				</g>
				<g>
					<g>
						<g>
							<path class="st7" d="M17.8,5c0.2,2.4-0.6,4.9-2.2,6.7c-0.4,0.5-0.9,0.9-1.2,1.5c-0.5,0.9-0.3,2.2,0.4,3
								c-0.7-0.2-1.3-0.9-1.6-1.6s-0.5-1.5-0.4-2.3C14.1,3.1,18.4,0,19.4,0c0.7,0,1.5,0.2,1.9,0.7c0.4,0.6,0.2,1.3-0.2,1.9
								S20.2,3.5,19.7,4c-0.5,0.4-1,0.9-1.2,1.5"/>
						</g>
						<g>
							<path class="st7" d="M19.7,6.6c0,0,0,0-0.1,0.1c0,0,0,0.1-0.1,0.1c0,0,0,0.1,0,0.1c0,0,0,0.1-0.1,0.1c0,0.1-0.1,0.2-0.1,0.2
								c0,0.1-0.1,0.2-0.1,0.3C19.1,7.8,19,8,18.8,8.2c0,0,0,0.1-0.1,0.1c0,0,0,0.1-0.1,0.1c0,0.1-0.1,0.1-0.1,0.2
								c-0.1,0.1-0.2,0.3-0.3,0.4c-0.2,0.3-0.4,0.5-0.6,0.8c-0.1,0.1-0.2,0.3-0.3,0.4c-0.1,0.1-0.1,0.1-0.2,0.2
								c-0.1,0.1-0.1,0.1-0.2,0.2c-0.1,0.1-0.1,0.1-0.2,0.2c-0.1,0.1-0.1,0.1-0.2,0.2c-0.1,0.1-0.1,0.1-0.2,0.2
								c-0.1,0.1-0.1,0.1-0.2,0.2c-0.1,0.1-0.3,0.3-0.4,0.4c-0.1,0.1-0.3,0.2-0.4,0.4c-0.1,0.1-0.2,0.3-0.3,0.4
								C15.1,12.7,15,12.8,15,13c-0.1,0.2-0.1,0.3-0.1,0.5c0,0.2,0,0.3,0.1,0.5c0.1,0.3,0.3,0.5,0.6,0.6c0.1,0.1,0.2,0.1,0.4,0.1
								c0.1,0,0.2,0,0.3,0c0.1,0,0.1,0,0.2,0c0,0,0.1,0,0.1,0c0.1,0,0.2-0.1,0.2-0.1c0.1-0.1,0.2-0.2,0.3-0.2c0,0,0,0,0,0
								c0,0,0,0,0,0c0,0,0,0,0,0s0,0,0,0c0,0,0,0,0,0c0,0,0,0,0,0c-0.1,0.1-0.1,0.2-0.3,0.3c-0.1,0-0.1,0.1-0.2,0.1
								c0,0-0.1,0-0.1,0.1c-0.1,0-0.1,0-0.2,0c-0.2,0-0.5,0-0.7-0.1c-0.3-0.1-0.5-0.3-0.6-0.6c-0.1-0.1-0.1-0.3-0.1-0.5
								c0-0.2,0-0.3,0.1-0.5c0.1-0.2,0.1-0.3,0.2-0.5c0.1-0.2,0.2-0.3,0.3-0.4c0.1-0.1,0.3-0.3,0.4-0.4c0.1-0.1,0.3-0.3,0.4-0.4
								c0.1-0.1,0.1-0.1,0.2-0.2c0.1-0.1,0.1-0.1,0.2-0.2c0.1-0.1,0.1-0.1,0.2-0.2c0.1-0.1,0.1-0.1,0.2-0.2c0.1-0.1,0.1-0.1,0.2-0.2
								c0.1-0.1,0.1-0.1,0.2-0.2c0.1-0.1,0.2-0.3,0.3-0.4c0.2-0.3,0.4-0.5,0.6-0.8c0.1-0.1,0.2-0.3,0.2-0.4c0-0.1,0.1-0.1,0.1-0.2
								c0,0,0-0.1,0.1-0.1c0,0,0-0.1,0.1-0.1c0.1-0.2,0.3-0.5,0.4-0.7c0-0.1,0.1-0.2,0.1-0.3c0-0.1,0.1-0.2,0.1-0.2c0,0,0-0.1,0-0.1
								c0,0,0-0.1,0-0.1c0-0.1,0-0.1,0.1-0.1c0-0.1,0.1-0.1,0.1-0.1L19.7,6.6z"/>
						</g>
						<g>
							<path class="st7" d="M17.8,7.6c0,0,0,0.1,0,0.2c0,0,0,0,0,0c0,0,0,0,0,0.1c0,0,0,0.1,0,0.1c0,0.1,0,0.2,0,0.3
								c0,0.2-0.1,0.5-0.2,0.7c0,0,0,0.1,0,0.1c0,0,0,0.1,0,0.1c0,0.1-0.1,0.1-0.1,0.2c-0.1,0.1-0.2,0.3-0.3,0.4
								c0,0.1-0.1,0.1-0.2,0.2c-0.1,0.1-0.1,0.1-0.2,0.2c0,0,0,0,0,0.1l0,0l0,0c0,0-0.1,0.1-0.1,0.1c-0.1,0.1-0.1,0.1-0.2,0.2
								c-0.3,0.3-0.6,0.6-0.9,0.9c-0.3,0.3-0.6,0.6-0.8,1c-0.2,0.4-0.4,0.8-0.5,1.2c0,0.2-0.1,0.4-0.1,0.6c0,0.2,0.1,0.4,0.1,0.6
								l0,0.1l0,0.1c0,0,0,0.1,0.1,0.1c0.1,0.1,0.1,0.2,0.2,0.3c0.1,0.2,0.3,0.3,0.4,0.5c0.1,0.2,0.2,0.4,0.3,0.6
								c0.1,0.2,0.1,0.4,0.1,0.6c0,0.4-0.1,0.8-0.3,1.1c0,0,0,0,0,0.1c0,0,0,0,0,0l0,0c0,0,0,0.1-0.1,0.1c0,0,0,0.1-0.1,0.1
								c0,0-0.1,0.1-0.1,0.1c-0.1,0.1-0.2,0.2-0.3,0.3c-0.1,0.1-0.2,0.2-0.3,0.2c-0.1,0.1-0.2,0.1-0.3,0.1c-0.2,0.1-0.3,0.1-0.4,0.1
								c-0.1,0-0.1,0-0.1,0c0,0,0,0,0,0s0,0,0,0c0,0,0.1,0,0.1,0c0.1,0,0.3,0,0.4-0.1c0.1,0,0.2-0.1,0.3-0.1
								c0.1-0.1,0.2-0.1,0.3-0.2c0.1-0.1,0.2-0.2,0.3-0.3c0,0,0-0.1,0.1-0.1c0,0,0-0.1,0.1-0.1c0,0,0-0.1,0.1-0.1l0,0l0,0
								c0,0,0,0,0-0.1c0.1-0.3,0.2-0.7,0.2-1c0-0.2,0-0.4-0.1-0.6c-0.1-0.2-0.2-0.4-0.3-0.5c-0.1-0.2-0.3-0.3-0.4-0.5
								c-0.1-0.1-0.1-0.2-0.2-0.3c0,0-0.1-0.1-0.1-0.1l0-0.1c0,0,0-0.1,0-0.1c-0.1-0.2-0.2-0.4-0.2-0.7c0-0.2,0-0.5,0-0.7
								c0.1-0.5,0.3-0.9,0.5-1.3c0.2-0.4,0.5-0.7,0.8-1c0.3-0.3,0.6-0.6,0.8-0.9c0.1-0.1,0.1-0.1,0.2-0.2c0,0,0.1-0.1,0.1-0.1l0,0
								l0,0c0,0,0,0,0-0.1c0.1-0.1,0.1-0.1,0.2-0.2c0-0.1,0.1-0.1,0.1-0.2c0.1-0.1,0.2-0.3,0.2-0.4c0-0.1,0.1-0.1,0.1-0.2
								c0,0,0-0.1,0-0.1c0,0,0-0.1,0-0.1c0.1-0.2,0.1-0.5,0.1-0.6c0-0.1,0-0.2,0-0.2c0,0,0-0.1,0-0.1c0,0,0,0,0,0c0,0,0,0,0,0
								c0-0.1,0-0.2,0-0.2L17.8,7.6z"/>
						</g>
						<g>
							<path class="st7" d="M17.5,9.5C17.5,9.5,17.5,9.5,17.5,9.5c-0.1,0.1-0.1,0.1-0.2,0.1c0,0,0,0-0.1,0c0,0,0,0-0.1,0.1
								c0,0-0.1,0.1-0.1,0.1c0,0.1-0.1,0.1-0.1,0.2c-0.1,0.1-0.2,0.3-0.3,0.4c0,0,0,0,0,0.1c0,0,0,0,0,0.1c0,0,0,0.1-0.1,0.1
								c0,0,0,0,0,0.1c0,0,0,0,0,0.1c0,0,0,0.1-0.1,0.1c0,0.1,0,0.1-0.1,0.2c0,0,0,0.1,0,0.1c0,0,0,0.1,0,0.1c0,0.1,0,0.1,0,0.2
								c0,0.1,0,0.1,0,0.2c0,0,0,0.1,0,0.1c0,0,0,0.1,0,0.1c0,0.1,0,0.1,0,0.2c0,0.1,0,0.1,0,0.2c0,0,0,0.1,0,0.1c0,0,0,0.1,0,0.1
								c0,0.3,0,0.5,0.1,0.8c0.1,0.2,0.1,0.5,0.2,0.7c0.1,0.2,0.2,0.5,0.3,0.7c0,0.1,0,0.1,0.1,0.2c0,0.1,0,0.1,0,0.2
								c0,0.1,0,0.1,0,0.2c0,0,0,0.1,0,0.1c0,0,0,0.1,0,0.1c0,0.2,0,0.4,0,0.6c0,0.2-0.1,0.4-0.1,0.5c0,0.1,0,0.1-0.1,0.2
								c0,0.1,0,0.1-0.1,0.2c0,0.1,0,0.1-0.1,0.1c0,0,0,0.1-0.1,0.1c0,0.1,0,0.1,0,0.1s0,0,0-0.1c0,0,0-0.1,0-0.1c0,0,0-0.1,0.1-0.1
								c0-0.1,0-0.1,0.1-0.2c0-0.1,0-0.1,0.1-0.2c0-0.2,0.1-0.3,0.1-0.5c0-0.2,0-0.4,0-0.6c0,0,0-0.1,0-0.1c0,0,0-0.1,0-0.1
								c0-0.1,0-0.1,0-0.2c0-0.1,0-0.1,0-0.2c0-0.1,0-0.1-0.1-0.2c-0.1-0.2-0.2-0.5-0.3-0.7c-0.1-0.2-0.2-0.5-0.3-0.7
								C16,12.9,16,12.6,16,12.4c0,0,0-0.1,0-0.1c0,0,0-0.1,0-0.1c0-0.1,0-0.1,0-0.2c0-0.1,0-0.1,0-0.2c0,0,0-0.1,0-0.1
								c0,0,0-0.1,0-0.1c0-0.1,0-0.1,0-0.2c0-0.1,0-0.1,0-0.2c0,0,0-0.1,0-0.1c0,0,0-0.1,0-0.1c0-0.1,0-0.1,0.1-0.2
								c0-0.1,0-0.1,0.1-0.2c0,0,0-0.1,0-0.1c0,0,0-0.1,0-0.1c0,0,0-0.1,0.1-0.1c0,0,0,0,0-0.1c0,0,0,0,0-0.1
								c0.1-0.2,0.2-0.3,0.3-0.5c0.1-0.1,0.1-0.1,0.1-0.2c0-0.1,0.1-0.1,0.1-0.1c0,0,0,0,0.1-0.1c0,0,0,0,0.1,0c0,0,0.1-0.1,0.1-0.1
								c0,0,0.1-0.1,0.1-0.1L17.5,9.5z"/>
						</g>
					</g>
					<g>
						<path class="st0" d="M17.6,11.3c0,0,0.4,0.8,0.4,1.9s-1.1,4-1.7,5c-0.6,1-0.6,1-0.6,1l6.1,15.2l5.6-13.2l-2.9-3.4
							c0,0,0.7,0,1.2-0.6s1.6-3.3,2.1-4.2c0.5-0.9,0.6-2.4,0.6-2.4s0.4-0.4,0.5-1c0-0.6,0.2-2.9,0.2-2.9l-0.7-1.3l-3.9-1.9
							C24.4,3.3,16.4,7.5,17.6,11.3z"/>
					</g>
					<g>
						<path class="st7" d="M17.7,10.5c0,0,1.2-0.8,1.6-1.2c0,0,0.3,0.8-0.1,1c0,0,3.4-0.8,4.5-1.5c1.1-0.7,1.1-2.1,1.4-2.6
							s2.2-0.7,2.7-0.7s1.1,1,1.1,1s0.7-0.8,0.3-1.8c-0.4-1-1.5-1.7-1.9-2.5c-0.4-0.7-3.7-3.3-7-1.7s-3.8,5.1-3.9,5.8
							S17.7,10.5,17.7,10.5z"/>
					</g>
					<g>
						
							<ellipse transform="matrix(0.9872 -0.1595 0.1595 0.9872 -1.2658 2.9264)" class="st0" cx="17.6" cy="9.3" rx="1.2" ry="2.3"/>
					</g>
					<path class="st7" d="M23.7,8.8c-1.1,0.7-5.1,2.4-5.1,2.4c0.6-0.8,0.7-1.8,0.7-1.8L23.7,8.8z"/>
				</g>
				<path class="st7" d="M26.4,5.6C26.4,5.6,26.4,5.6,26.4,5.6c-0.1,0-0.1,0-0.1,0c0,0,0,0,0,0c0,0,0,0,0,0c0,0,0,0,0,0
					c0,0-0.1,0-0.1,0c0,0-0.1,0-0.1,0.1c-0.1,0.1-0.2,0.1-0.3,0.2c-0.1,0.1-0.2,0.2-0.2,0.3c0,0,0,0.1-0.1,0.1c0,0,0,0.1,0,0.1
					c0,0.1-0.1,0.2-0.1,0.2c-0.1,0.3-0.2,0.7-0.3,1.1c0,0.1-0.1,0.2-0.1,0.3c0,0,0,0.1-0.1,0.1c0,0-0.1,0.1-0.1,0.1
					c-0.1,0.2-0.2,0.3-0.4,0.5C24.1,9,24,9.1,23.9,9.2c0,0-0.1,0-0.1,0.1c0,0,0,0-0.1,0c0,0,0,0-0.1,0c0,0-0.1,0-0.1,0.1
					c0,0-0.1,0-0.1,0.1c-0.1,0.1-0.3,0.1-0.4,0.2c-0.1,0-0.2,0.1-0.3,0.1c-0.1,0-0.2,0-0.2,0c0,0-0.1,0-0.1,0s0,0,0.1,0
					c0,0,0.1,0,0.2-0.1c0.1,0,0.2-0.1,0.3-0.1c0.1,0,0.2-0.1,0.4-0.2c0,0,0.1,0,0.1-0.1c0,0,0.1,0,0.1-0.1c0,0,0,0,0,0c0,0,0,0,0,0
					c0,0,0.1-0.1,0.1-0.1C23.9,9,24,8.9,24.1,8.8c0.1-0.1,0.2-0.3,0.3-0.5c0,0,0-0.1,0.1-0.1c0,0,0-0.1,0.1-0.1l0,0l0,0l0-0.1
					c0,0,0-0.1,0-0.1c0.1-0.4,0.1-0.8,0.2-1.1c0-0.1,0.1-0.2,0.1-0.3c0,0,0-0.1,0-0.1c0,0,0-0.1,0.1-0.1c0.1-0.2,0.2-0.3,0.3-0.5
					c0.1-0.1,0.2-0.2,0.3-0.3c0.1,0,0.1-0.1,0.2-0.1c0.1,0,0.1-0.1,0.2-0.1c0,0,0,0,0.1,0c0,0,0,0,0.1,0c0,0,0,0,0.1,0c0,0,0,0,0,0
					c0,0,0.1,0,0.1,0L26.4,5.6z"/>
				<g>
					<path class="st3" d="M29,19.2v27H16.1v-27h0.3c1,1.8,2.9,3.1,5.1,3.1c2.2,0,4.1-1.3,5.1-3.1H29z"/>
				</g>
				<g>
					<path class="st4" d="M11.4,30.9c0.2,2.4,0.6,16.4,0.6,16.4h8.6l-0.4-1.5c0,0-5.6-16.5-5.6-20.1s1.4-6.8,1.4-6.8l-0.4-1.2
						c0,0-2.5,1.3-4.1,1.9c-1.7,0.6-4,1.6-4,1.6C9.5,23.8,10.8,27.2,11.4,30.9z"/>
				</g>
				<g>
					<path class="st13" d="M18.5,48c0,0,1.3,0.4,1-5.7l-1.7,0.5l-0.3,4.6L18.5,48z"/>
				</g>
				<path class="st1" d="M31.8,19.7l0.3-0.3c0,0,1.3,0.1,1.4,1.5c0.1,1.4,0,1.5,0.2,2.1c0.2,0.7,3.2,9.6,3.2,9.6s4-1.1,5.3,1.3
					s0.8,3.7,0.6,4.1c-0.2,0.4-9.8,5.6-9.8,5.6l-1.3-11.6L31.8,19.7z"/>
				<g>
					<path class="st4" d="M25.4,17.3c0,0,1.6,0.7,3.2,1.1c1.6,0.4,3.5,1.1,3.5,1.1s1.1,3,0.6,5.6c-0.5,2.6,0.4,18.6,0.4,18.6h-0.6
						l-6.6-23.9L25.4,17.3z"/>
				</g>
				<g>
					<path class="st1" d="M25.4,17.3l1.5,0.9l-0.3,1l1.8,0.3c0,0,1.7,8.7,2.3,11.8s1.8,12.4,1.8,12.4S26,27.1,25.7,24
						c-0.3-3.1-1.3-6.3-1.3-6.3C24.8,17.7,25.1,17.5,25.4,17.3z"/>
				</g>
				<path class="st4" d="M39.3,32.4L39.3,32.4c-0.1,0.9-0.3,3,0.3,4.2c0,0,1.3,1,2.3,1.3c0.7,0.2,1.3-0.3,1.3-1
					c0-0.7-0.2-1.6-0.9-2.8C41.7,32.8,40.4,32.5,39.3,32.4z"/>
				<g>
					<g>
						<path class="st8" d="M38.8,25.8v20.4c0,0.6-0.5,1-1,1H23.6c-0.6,0-1-0.5-1-1V25.8c0-0.6,0.5-1,1-1h14.2
							C38.4,24.8,38.8,25.3,38.8,25.8z"/>
					</g>
					<g>
						<path class="st5" d="M23.6,27.1v19.1c0,0,0,0.1,0.1,0.1h14.2c0,0,0.1,0,0.1-0.1V27.1H23.6z"/>
					</g>
					<g>
						<g>
							<path class="st7" d="M33.1,28.4h-4c-0.5,0-1-0.4-1-1v-1.6c0-0.2,0.1-0.3,0.3-0.3h5.4c0.2,0,0.3,0.1,0.3,0.3v1.6
								C34.1,28,33.6,28.4,33.1,28.4z M28.7,26.2v1.3c0,0.2,0.2,0.3,0.3,0.3h4c0.2,0,0.3-0.2,0.3-0.3v-1.3H28.7z"/>
						</g>
					</g>
				</g>
				<g>
					<path class="st0" d="M38.8,35.8c0,0,0.7,0.9,1,0.9s2-2.3,2-3.7c0-1.3-0.9-3.3-1.1-4c-0.2-0.7-0.1-0.7-0.6-1.3
						c-0.5-0.6-1.9-1.1-2.6-1.3s-1.2,0.2-1,1.1c0,0-0.3,0.5-0.2,1s0.2,0.6,0.2,0.6s-0.3,0.6-0.1,0.9c0.1,0.3,0.4,0.4,0.4,0.4
						s-0.3,0-0.4,0.3c-0.1,0.3,0.1,0.6,0.3,0.8c0.2,0.1,1.2,0.7,1.3,0.8l0.8,1.1C38.8,33.3,38.8,35.8,38.8,35.8z"/>
				</g>
				<g>
					<path class="st1" d="M17.5,15.4c0,0-0.9,3.2-0.4,10.4s3.1,20,3.1,20s-2.3-4.3-3.4-6.8c-1.1-2.5-3.1-7.1-3.2-9.8
						s-1.2-8.4-1.2-8.4l2.3-0.8l-1.2-0.5c0,0,0.9-1.4,1.6-1.8C15.9,17.2,16.9,15.4,17.5,15.4z"/>
				</g>
				<g>
					<path class="st0" d="M18.9,42.4c0,0,0.9,0,1.3-0.2c0.4-0.2,1.6-1.1,1.8-1.2c0.2-0.2,0.6-0.3,0.6-0.3v0.9c0,0,0.2,0.1,0.5,0.1
						c0.4,0,1.5,0,2,0.1c0.5,0.1,1.2,0.2,1.4,0.6c0.2,0.4,0,0.9-0.7,1c0,0,0.6,0.2,0.6,0.8c0,0.6-0.9,0.7-0.9,0.7s0.4,0.3,0.4,0.8
						c0,0.5-0.8,0.6-0.8,0.6s0.2,0.6,0,1c-0.2,0.4-2,0.1-2.6,0c-0.6-0.1-2.2-0.3-2.9-0.6c-0.8-0.2-2.5-0.6-2.5-0.6
						S17.5,43.2,18.9,42.4z"/>
				</g>
				<g>
					<path class="st1" d="M18.1,44.8c-0.3,0.9-0.1,1.8,0.1,2.5c0.1,0.5,0.3,0.7,0.3,0.7s-3.4-0.1-4.4-0.4c-0.3-0.1-0.8-0.2-1.5-0.3
						c-0.2,0-0.3-0.1-0.5-0.1c-1.9-0.3-4.3-0.7-4.7-0.9c-0.6-0.3-1.1-0.8-1.7-1.6s-1-3-0.7-3.8c0.3-0.8,0.3-3.3,0.3-4.1
						c0-0.8,0-2.8,0.2-4c0.2-1.2,1-8.8,1.2-10.3c0.2-1.5,0.9-1.3,0.9-1.3c2.1,2.7,3.3,6.1,3.9,9.8c0,0,0,0.1,0,0.1l0,0v0
						c0,0.2-0.1,7.4-0.1,8c0,0.6,0.3,1.1,0.3,1.4c0,0.3-0.2,0.7-0.2,0.9c0,0.1,0.1,0.1,0.5,0.2c0.3,0.1,4.1,0.4,5,0.4
						c0.6,0,1.5,0.2,2.1,0.4c0.3,0.1,0.5,0.1,0.5,0.1s-0.1,0.1-0.3,0.4C18.9,43.2,18.4,43.9,18.1,44.8z"/>
				</g>
			</g>
			<g>
				<path class="st3" d="M37.1,32.6v4.8H24.4v-2.6c0.3-0.3,1-1,1-1l0.8,0.8l2.5-1l1.5,0.7l1.8-0.5l1.6,0.3L37.1,32.6z"/>
			</g>
			<g>
				<g>
					<rect x="35.4" y="39.3" class="st7" width="1.3" height="5.8"/>
				</g>
				<g>
					<rect x="33.1" y="41.7" class="st1" width="1.3" height="3.4"/>
				</g>
				<g>
					<rect x="30.8" y="40.4" class="st0" width="1.3" height="4.7"/>
				</g>
				<g>
					<rect x="28.5" y="42.8" class="st11" width="1.3" height="2.2"/>
				</g>
			</g>
		</g>
		<g>
			<g>
				<g>
					<path class="st7" d="M36.7,31.5l-0.9,1.1l-0.2-0.4l-0.9,0.4l-1.8-0.3l-2.1,0.6l-1.6-0.8l-2.8,1.1l-0.9-0.9
						c-0.3,0.3-0.7,0.7-1,0.9L24.3,33c0.4-0.4,1.1-1.1,1.1-1.1l0.2-0.2l1,1l2.7-1.1l1.7,0.8l2-0.6l1.8,0.3l0.8-0.3l-0.2-0.4
						L36.7,31.5z"/>
				</g>
			</g>
		</g>
	</g>
</g>
</svg>
