<?xml version="1.0" encoding="utf-8"?>
<!-- Generator: Adobe Illustrator 18.0.0, SVG Export Plug-In . SVG Version: 6.00 Build 0)  -->
<!DOCTYPE svg PUBLIC "-//W3C//DTD SVG 1.1//EN" "http://www.w3.org/Graphics/SVG/1.1/DTD/svg11.dtd">
<svg version="1.1" id="Layer_1" xmlns="http://www.w3.org/2000/svg" xmlns:xlink="http://www.w3.org/1999/xlink" x="0px" y="0px"
	 viewBox="0 0 48 48" enable-background="new 0 0 48 48" xml:space="preserve">
<g>
	<g>
		<g>
			<g>
				<g>
					<path fill="#F5B54C" d="M38.9,29.7c-0.4-0.1-1.3-0.5-1.3-0.5l0.8-9.2l1.1-0.6h-13c0.1,0.2,0.2,0.3,0.2,0.5c0.4,1.1,1.3,2,1.3,2
						l0.4-0.3c1.8-1.7,4.4-1.3,5.6-1.4c1.2,0,3.1-0.1,3.1-0.1l-0.3,2c0,0,0.1,0.5-0.2,1.1c-0.3,0.6-0.5,1.9-0.5,1.9
						s-0.1,2.1-0.2,2.5s-0.2,1.5-0.3,1.8c-0.1,0.3-0.1,0.6,0.2,1.1c0.3,0.5,0.9,0.3,0.9,0.3l1.7-0.1c0,0,0.8,0,1.2,0
						c0.4,0,0.4-0.2,0.4-0.2c0.4,0.1,0.4-0.3,0.4-0.3c0,0,0-0.1,0-0.1C40.5,29.9,39.2,29.8,38.9,29.7z"/>
				</g>
			</g>
		</g>
		<g>
			<g>
				<g>
					<g>
						<path fill="#F5B54C" d="M1.2,30.3l-0.4,0.1c0,0-0.1,0.3,0.2,0.3c0,0-0.1,0.1,0,0.1c0,0,0,0.2,0,0.1c0,0,0,0.3,0.1,0.1
							c0,0,0.4,0.3,0.4,0.1c0,0,0.9,0.1,1.2,0c0.3-0.1,1.6-0.2,2-0.2c0.5,0,2,0.2,2.1-0.7C7,29.5,7,29.5,7,29.5l-1.2-1.3
							c0,0-1,0.2-2.4,1C1.9,30,1.6,30.2,1.2,30.3z"/>
					</g>
				</g>
			</g>
			<g>
				<g>
					<g>
						<path fill="#48B9A5" d="M7.1,28.5c3-1.6,6.2-2.8,8.9-4.8c0.5-0.5,0.9-1,1.4-1.5c0.4-0.4,0.8-0.7,1.2-0.9
							c0.4-0.3,0.9-0.5,1.4-0.7c0.7-0.3,1.4-0.5,2.1-0.6c1.1-0.2,2.1-0.3,3.2-0.5c-0.2-0.4-0.8-1.1-0.8-2.1l-0.7,0.3l-1.2,0.5
							c0,0-0.6,0.5-1.2,0.5c-0.7,0.1-2.9,0.7-3.7,1.4c-0.8,0.7-2.5,1.8-2.5,1.8s-0.9,0.4-1.2,1.1c-0.3,0.7-1.8,1.8-1.8,1.8
							s-3.1,1.6-3.5,2.1C8.3,27.1,5.6,28,5.6,28s-0.2,0.4,0.2,1.2C6.2,29,6.7,28.7,7.1,28.5z"/>
					</g>
				</g>
			</g>
		</g>
		<g>
			<g>
				<g>
					<g>
						<path fill="#FFD15C" d="M0.5,31L0,31.2c0,0-0.1,0.3,0.2,0.3c0,0-0.1,0.1,0,0.1c0,0,0,0.2,0,0.1c0,0,0,0.3,0.1,0.1
							c0,0,0.4,0.3,0.4,0.1c0,0,0.9,0.1,1.2,0c0.3-0.1,1.6-0.2,2-0.2c0.5,0,2,0.2,2.1-0.7c0.1-0.9,0.1-0.9,0.1-0.9l-1.2-1.3
							c0,0-1,0.2-2.4,1S0.9,30.9,0.5,31z"/>
					</g>
				</g>
			</g>
			<g>
				<g>
					<g>
						<path fill="#67C5B8" d="M4.9,28.9c0,0-0.4,1,0.6,1.8c0,0,0.6,0.4,1.2-0.2c0,0,3.8-0.5,5-1.3c1.2-0.7,1.8-1.2,1.8-1.2
							s1.7-1.5,2.8-1.8c1-0.4,2.7-0.8,2.7-0.8s2.5-1,3.6-1.2c1.1-0.1,3.6,0.3,5-1.9l0.6-0.7c0,0-1.6-2.5-1.7-2.8
							c-0.1-0.3-0.8-1.1-0.7-2.3L25,16.9l-1.6,0.8c0,0-0.8,0.6-1.6,0.8c-0.8,0.2-3.6,1.2-4.5,2c-1,0.8-2.9,2.1-2.9,2.1
							s-1,0.5-1.4,1.2c-0.4,0.7-1.9,1.8-1.9,1.8s-3.1,1.7-3.5,2.1C7.3,28.2,4.9,28.9,4.9,28.9z"/>
					</g>
				</g>
			</g>
		</g>
		<g>
			<g>
				<g>
					<path fill="#FFD15C" d="M44.1,16.2l-0.6-3.1c0,0-0.5,0.6-0.5,1.1c0,0.4-0.3,0.4-0.3,0.4s-1.6,0.3-2.2,0.4
						c-0.5,0.1-1.4-0.1-1.4-0.1c-0.4-0.2-0.9-0.6-0.9-0.6c-1.1-0.3-1.1-0.8-2-1.1c-1-0.4-2.2,0.4-2.4,0.6C33.6,14,33.2,14,33.2,14
						c-1.3-0.1-2.3,0.3-2.5,0.5c-0.2,0.2-0.9,0.7-2.2,1.1c-1.3,0.4-2.9,0.9-2.9,0.9s-0.5,1.1-0.1,1.8c0.2,0.3,0.7,0.5,1.1,1.6
						c0.4,1.1,1.3,2,1.3,2l0.4-0.3c0.1-0.1,0.2-0.2,0.3-0.3v-0.1h0.1c1.8-1.3,4.1-1,5.2-1c1.2,0,3.1-0.1,3.1-0.1l0,0l0.6,0
						c0.5,0,1-0.2,1.4-0.4l2.3-1.3c0.1-0.1,0.5-0.1,0.5-0.1l3.4,1.1l0.8-1.2L44.1,16.2z"/>
				</g>
			</g>
		</g>
		<g>
			<g>
				<g>
					<path fill="#E8EAE8" d="M41.6,17.8c0.1-0.4,0-1-0.6-1.5c-0.6-0.5-1.5-0.9-1.9-1.1c-0.5-0.2-1.7-0.2-2.2,0.5
						c-0.6,0.7-1.1,2-0.9,3.2c0.1,1.1,1,1.1,1.1,1.1c-0.2,0-1.9,0.1-3,0.1c-1.2,0-3.8-0.4-5.6,1.4L28,21.9c0,0-0.9-0.9-1.3-2
						c-0.4-1.1-1-1.3-1.1-1.6c-0.4-0.8,0.1-1.8,0.1-1.8s1.6-0.5,2.9-0.9c1.3-0.4,2-0.9,2.2-1.1c0.2-0.2,1.2-0.6,2.5-0.5
						c0,0,0.4,0,0.6-0.2c0.2-0.2,1.4-0.9,2.4-0.6c1,0.4,0.9,0.8,2,1.1c0,0,0.6,0.3,0.9,0.6c0,0,1.3,0.8,2,1.6
						C41.9,17.2,41.6,17.8,41.6,17.8z"/>
				</g>
			</g>
		</g>
		<g>
			<g>
				<g>
					<path fill="#FFD15C" d="M37,20.1c-0.2,0-1,0-1.1-1.1c-0.1-1.2,0.4-2.4,0.9-3.2c0.6-0.7,1.8-0.7,2.2-0.5
						c0.5,0.2,1.3,0.6,1.9,1.1c0.6,0.5,0.8,1,0.6,1.5l-0.2,0.5c0,0-0.2,1.6-0.5,2.5c-0.4,0.9-1.3,4-1.3,4s-0.1,0.5-0.2,0.8
						c0,0-0.4,3-0.4,3.4c0,0.4-0.3,1.5-0.5,2.3c-0.2,0.7-0.4,1.4-0.3,1.6c0.1,0.2,0.3,0.4,0.3,0.4s1.3,0.3,1.4,0.4
						c0,0,1.3,0.2,1.5,0.3l0.5,0.1c0,0,0.1,0.1,0,0.2l0.3,0.1c0,0,0.4,0.1,0.4,0.2l0,0.1c0,0,0.2,0.4-0.3,0.2c0,0-0.2,0.3-0.8,0.1
						c0,0-0.6,0-0.8-0.1c0,0-0.6,0-0.8-0.1c0,0-0.6,0-0.7-0.1c0,0,0.2,0.3,0.1,0.4c-0.1,0.1-0.5,0-0.5,0s-0.4-0.2-0.5-0.3
						c-0.1,0-0.5-0.1-0.5-0.1s-0.8-0.1-0.8-0.7c0,0-0.3-0.6-0.2-1.1c0-0.5,0.2-2.9,0.2-3.5s0.2-2.9,0.2-2.9s0.1-0.9,0.1-1.3
						c0-0.4,0.1-1.6,0.3-2.6c0.3-1,0.5-2.5,0.5-2.5L37,20.1z"/>
				</g>
			</g>
		</g>
		<g>
			<g>
				<g>
					<path fill="#FFD15C" d="M43.5,13.1c0,0-0.6,2.9,1,4.7c1.7,1.7,3,0.1,3,0.1s0.2-0.7,0.2-0.8c0-0.1,0.2-0.7-0.7-1.7
						c0,0-0.4-0.2-0.5-0.4c-0.1-0.2-0.4-1.2-0.4-1.2s-0.2-0.1-0.4,0c-0.2,0.1-0.3,0.2-0.3,0.2s-0.1,0-0.2-0.2c0-0.1-0.2-0.1-0.2-0.1
						c0,0,0-0.2-0.2-0.2c0,0-0.3,0-0.6-0.3C44,12.8,43.5,12.9,43.5,13.1z"/>
				</g>
			</g>
		</g>
		<g>
			<g>
				<g>
					<path fill="#425A6B" d="M47.7,17c0,0,0,0.4-0.4,0.2c-0.4-0.2-1.7-0.5-1.8,0.2s-0.4,1.2-1.3,1c-0.8-0.2-1.9-0.5-2.3-0.7
						c0,0-0.9,1-0.2,1.9c0.6,0.9,1.7,0.6,1.9,0.8c0.2,0.2,0.1,0.6,0.1,0.6s-0.5,0.9-0.8,1.2c-0.2,0.3-1.4,3.3-1.5,4.4
						c0,1.1,0,1.3,0,1.6c0,0,0.2-2.3,0.6-3c0,0-0.2,2.1-0.1,2.6c0.1,0.5-0.1,2.1-0.2,2.5c0,0,0.3-1.5,0.4-2c0,0,0,2.3-0.1,2.9
						c0,0,0.4-1,0.4-1.6c0,0,0.6,2,0.2,2.2c0,0,1.3-0.3,1.5-2.2c0.2-1.9,0.5-4.3,0.5-4.3s0.1-2.6-0.3-3.8l0-0.6c0,0,0.3-0.4,0.7-0.4
						c0.4,0,2.4,0.1,3-2C47.8,18.6,48.3,17.1,47.7,17z"/>
				</g>
			</g>
		</g>
		<g>
			<g>
				<g>
					<path fill="#F26F5A" d="M43.3,20.5c-0.1,0.3,0,0.6,0.1,1c0.3-0.1,0.6-0.1,0.8,0c0.3-0.2,0.5-0.5,0.4-0.8
						C44.2,20.7,43.7,20.6,43.3,20.5z"/>
				</g>
			</g>
		</g>
		<g>
			<g>
				<g>
					
						<ellipse transform="matrix(0.88 -0.4749 0.4749 0.88 -2.9436 23.2809)" fill="#FFD15C" cx="44.6" cy="17.5" rx="0.5" ry="0.8"/>
				</g>
			</g>
		</g>
	</g>
	<g>
		<g>
			<g>
				<path fill="#F5B54C" d="M43.9,16.8c0,0-0.8-1-1.3-2.2c0.1,0,0.1,0,0.1,0s0.3,0,0.3-0.4c0,0,0-0.1,0-0.1
					C43,14,43.1,15.4,43.9,16.8z"/>
			</g>
		</g>
	</g>
</g>
</svg>
