<?xml version="1.0" encoding="utf-8"?>
<!-- Generator: Adobe Illustrator 18.0.0, SVG Export Plug-In . SVG Version: 6.00 Build 0)  -->
<!DOCTYPE svg PUBLIC "-//W3C//DTD SVG 1.1//EN" "http://www.w3.org/Graphics/SVG/1.1/DTD/svg11.dtd">
<svg version="1.1" id="Layer_1" xmlns="http://www.w3.org/2000/svg" xmlns:xlink="http://www.w3.org/1999/xlink" x="0px" y="0px"
	 viewBox="0 0 48 48" enable-background="new 0 0 48 48" xml:space="preserve">
<g>
	<path fill="#CDD6E0" d="M46,48H2c-1.1,0-2-0.9-2-2V2c0-1.1,0.9-2,2-2h44c1.1,0,2,0.9,2,2v44C48,47.1,47.1,48,46,48z"/>
	<rect x="1.7" y="2" fill="#FFFFFF" width="44" height="44"/>
	<g>
		<g>
			<path fill="#F2F2F2" d="M38.4,18.6C38.4,10.5,31.8,4,23.7,4C15.6,4,9,10.5,9,18.6H38.4z"/>
			<g>
				<rect x="23.4" y="5.9" fill="#CDD6E0" width="0.6" height="2.6"/>
			</g>
			<g>
				<rect x="17.7" y="7.5" transform="matrix(0.866 -0.5 0.5 0.866 -1.9639 10.1472)" fill="#CDD6E0" width="0.6" height="2.6"/>
			</g>
			<g>
				<rect x="13.5" y="11.7" transform="matrix(0.5 -0.866 0.866 0.5 -4.342 18.3905)" fill="#CDD6E0" width="0.6" height="2.6"/>
			</g>
			<g>
				<rect x="33.4" y="11.7" transform="matrix(-0.5 -0.866 0.866 -0.5 39.229 48.6118)" fill="#CDD6E0" width="0.6" height="2.6"/>
			</g>
			<g>
				<rect x="29.2" y="7.5" transform="matrix(-0.866 -0.5 0.5 -0.866 50.5986 31.1239)" fill="#CDD6E0" width="0.6" height="2.6"/>
			</g>
			<g>
				
					<rect x="21.3" y="6.1" transform="matrix(0.9848 -0.1736 0.1736 0.9848 -0.88 3.8626)" fill="#CDD6E0" width="0.6" height="1.8"/>
			</g>
			<g>
				
					<rect x="19.3" y="6.6" transform="matrix(0.9397 -0.342 0.342 0.9397 -1.3796 7.1679)" fill="#CDD6E0" width="0.6" height="1.8"/>
			</g>
			<g>
				
					<rect x="15.8" y="8.7" transform="matrix(0.766 -0.6428 0.6428 0.766 -2.3852 12.5622)" fill="#CDD6E0" width="0.6" height="1.8"/>
			</g>
			<g>
				
					<rect x="14.3" y="10.1" transform="matrix(0.6428 -0.766 0.766 0.6428 -3.2271 15.122)" fill="#CDD6E0" width="0.6" height="1.8"/>
			</g>
			<g>
				
					<rect x="12.2" y="13.7" transform="matrix(0.342 -0.9397 0.9397 0.342 -5.4618 21.3845)" fill="#CDD6E0" width="0.6" height="1.8"/>
			</g>
			<g>
				
					<rect x="11.7" y="15.7" transform="matrix(0.1736 -0.9848 0.9848 0.1736 -6.4203 25.5316)" fill="#CDD6E0" width="0.6" height="1.8"/>
			</g>
			<g>
				
					<rect x="35.1" y="15.7" transform="matrix(-0.1736 -0.9848 0.9848 -0.1736 25.1954 54.3247)" fill="#CDD6E0" width="0.6" height="1.8"/>
			</g>
			<g>
				
					<rect x="34.6" y="13.7" transform="matrix(-0.342 -0.9397 0.9397 -0.342 33.0623 52.3355)" fill="#CDD6E0" width="0.6" height="1.8"/>
			</g>
			<g>
				
					<rect x="32.5" y="10.1" transform="matrix(-0.6428 -0.766 0.766 -0.6428 45.4278 43.226)" fill="#CDD6E0" width="0.6" height="1.8"/>
			</g>
			<g>
				
					<rect x="31" y="8.7" transform="matrix(-0.766 -0.6428 0.6428 -0.766 49.1842 37.0173)" fill="#CDD6E0" width="0.6" height="1.8"/>
			</g>
			<g>
				
					<rect x="27.5" y="6.6" transform="matrix(-0.9397 -0.342 0.342 -0.9397 51.2774 24.0337)" fill="#CDD6E0" width="0.6" height="1.8"/>
			</g>
			<g>
				
					<rect x="25.5" y="6.1" transform="matrix(-0.9848 -0.1736 0.1736 -0.9848 49.9169 18.2879)" fill="#CDD6E0" width="0.6" height="1.8"/>
			</g>
		</g>
		<g>
			<polygon fill="#40596B" points="25.8,16.2 21.6,16.2 23.7,10 			"/>
		</g>
		<g>
			<path fill="#FF7058" d="M27.2,18.6h-7c0-1.9,1.6-3.5,3.5-3.5C25.6,15.1,27.2,16.6,27.2,18.6z"/>
		</g>
	</g>
	<g>
		<rect x="22.5" y="23.6" fill="#CDD6E0" width="2.3" height="23.1"/>
	</g>
</g>
</svg>
