<?xml version="1.0" encoding="utf-8"?>
<!-- Generator: Adobe Illustrator 18.0.0, SVG Export Plug-In . SVG Version: 6.00 Build 0)  -->
<!DOCTYPE svg PUBLIC "-//W3C//DTD SVG 1.1//EN" "http://www.w3.org/Graphics/SVG/1.1/DTD/svg11.dtd">
<svg version="1.1" id="Layer_1" xmlns="http://www.w3.org/2000/svg" xmlns:xlink="http://www.w3.org/1999/xlink" x="0px" y="0px"
	 viewBox="0 0 512 512" enable-background="new 0 0 512 512" xml:space="preserve">
<g>
	<path fill="#41596B" d="M187.9,421.9c-20.6-6.7-25.1-45.2-42.2-57.7c-11.1-8.1-30.7-7.9-46.7-11.3l-6.1,10.3l-48.1,80.9l86.7-19.7
		l24.3,85.5l45.3-76.3l8.7-14.7C202.1,422.3,194.6,424.1,187.9,421.9z"/>
	<path fill="#41596B" d="M413,353c-16,3.4-35.6,3.2-46.8,11.3c-17.1,12.5-21.6,51-42.2,57.7c-6.7,2.2-14.1,0.4-21.8-3l8.7,14.7
		l45.3,76.3l24.2-85.5l86.7,19.7l-48-80.9L413,353z"/>
	<path fill="#334A5E" d="M419.1,363.2c-6.5,1.7-13.3,2.6-19.8,3.5c-10.3,1.4-21,2.8-26.4,6.7c-5.3,3.9-9.9,13.5-14.3,22.8
		c-7,14.7-15,31.3-31,36.6c-3.1,1-6.4,1.5-9.8,1.5c-2.3,0-4.6-0.2-6.9-0.6L256,341.2l-54.9,92.5c-2.3,0.4-4.6,0.6-6.9,0.6
		c-3.4,0-6.7-0.5-9.8-1.5c-16-5.2-24-21.9-31-36.6c-4.4-9.3-9-18.9-14.3-22.7c-5.4-3.9-16.1-5.3-26.4-6.8
		c-6.5-0.8-13.3-1.7-19.7-3.4L156,257l100,59.3L356,257L419.1,363.2z"/>
	<path fill="#F2705B" d="M434.5,154.5c-6.7-20.6,12.2-54.3-0.3-71.5c-12.6-17.3-50.6-9.7-67.9-22.3c-17.1-12.5-21.6-51-42.2-57.7
		C304.2-3.5,278,24.9,256,24.9c-22,0-48.2-28.3-68.1-21.9c-20.6,6.7-25.1,45.2-42.2,57.7c-17.3,12.6-55.3,5-67.9,22.3
		c-12.5,17.1,6.4,50.9-0.3,71.5c-6.4,19.8-41.8,36-41.8,58s35.3,38.1,41.8,58c6.7,20.6-12.2,54.3,0.3,71.5
		c12.6,17.3,50.6,9.7,67.9,22.3c17.1,12.5,21.6,51,42.2,57.7C207.8,428.4,234,400,256,400c22,0,48.2,28.3,68.1,21.9
		c20.6-6.7,25.1-45.2,42.2-57.7c17.3-12.6,55.3-5,67.9-22.3c12.5-17.1-6.4-50.9,0.3-71.5c6.4-19.8,41.8-36,41.8-58
		S440.9,174.3,434.5,154.5z"/>
	<path fill="#FFD05C" d="M256,80.6c-72.8,0-131.9,59-131.9,131.8c0,0.8,0,1.6,0.1,2.4v0.6c1.6,71.5,60,128.8,131.8,128.8
		c2,0,4.1-0.1,6.1-0.2c69.9-3.2,125.7-60.9,125.7-131.6C387.8,139.6,328.8,80.6,256,80.6z"/>
	<polygon fill="#FFFFFF" points="256,110.1 279.3,181.8 354.7,181.8 293.7,226.2 317,297.9 256,253.6 194.9,297.9 218.2,226.2 
		157.2,181.8 232.6,181.8 	"/>
</g>
</svg>
