<?xml version="1.0" encoding="utf-8"?>
<!-- Generator: Adobe Illustrator 18.0.0, SVG Export Plug-In . SVG Version: 6.00 Build 0)  -->
<!DOCTYPE svg PUBLIC "-//W3C//DTD SVG 1.1//EN" "http://www.w3.org/Graphics/SVG/1.1/DTD/svg11.dtd">
<svg version="1.1" id="Layer_1" xmlns="http://www.w3.org/2000/svg" xmlns:xlink="http://www.w3.org/1999/xlink" x="0px" y="0px"
	 viewBox="0 0 48 48" enable-background="new 0 0 48 48" xml:space="preserve">
<g>
	<g>
		<path fill="#415A6B" d="M45,18.2H3c-1.7,0-3,1.3-3,3v13.8c0,1.7,1.3,3,3,3h42c1.7,0,3-1.3,3-3V21.2C48,19.5,46.7,18.2,45,18.2z"/>
		<g>
			<g>
				<path fill="#344A5E" d="M19.7,23.1L19.7,23.1c0-0.8-0.6-1.4-1.4-1.4H5.7c-0.8,0-1.4,0.6-1.4,1.4v0c0,0.8,0.6,1.4,1.4,1.4h12.5
					C19,24.5,19.7,23.9,19.7,23.1z"/>
			</g>
			<g>
				<path fill="#344A5E" d="M19.7,28L19.7,28c0-0.8-0.6-1.4-1.4-1.4H5.7c-0.8,0-1.4,0.6-1.4,1.4v0c0,0.8,0.6,1.4,1.4,1.4h12.5
					C19,29.5,19.7,28.8,19.7,28z"/>
			</g>
			<g>
				<path fill="#344A5E" d="M19.7,33L19.7,33c0-0.8-0.6-1.4-1.4-1.4H5.7c-0.8,0-1.4,0.6-1.4,1.4l0,0c0,0.8,0.6,1.4,1.4,1.4h12.5
					C19,34.4,19.7,33.8,19.7,33z"/>
			</g>
		</g>
		<g>
			<circle fill="#344A5E" cx="33.3" cy="20.6" r="12.7"/>
		</g>
		<g>
			<circle fill="#F3F3F3" cx="33.3" cy="20.6" r="9.4"/>
		</g>
		<g>
			<circle fill="#8AD7F8" cx="33.3" cy="20.6" r="6.4"/>
		</g>
		<g>
			<rect x="4.4" y="37.9" fill="#344A5E" width="6.4" height="2.2"/>
			<rect x="37.3" y="37.9" fill="#344A5E" width="6.4" height="2.2"/>
		</g>
		
			<ellipse transform="matrix(0.7071 0.7071 -0.7071 0.7071 23.2372 -20.0913)" fill="#FFFFFF" cx="35.9" cy="18" rx="2.5" ry="1.1"/>
	</g>
</g>
</svg>
