<?xml version="1.0" encoding="utf-8"?>
<!-- Generator: Adobe Illustrator 18.0.0, SVG Export Plug-In . SVG Version: 6.00 Build 0)  -->
<!DOCTYPE svg PUBLIC "-//W3C//DTD SVG 1.1//EN" "http://www.w3.org/Graphics/SVG/1.1/DTD/svg11.dtd">
<svg version="1.1" id="Layer_1" xmlns="http://www.w3.org/2000/svg" xmlns:xlink="http://www.w3.org/1999/xlink" x="0px" y="0px"
	 viewBox="0 0 48 48" enable-background="new 0 0 48 48" xml:space="preserve">
<g>
	<g>
		<g>
			<g>
				<g>
					<path fill="#E8EAE9" d="M24,5c-0.1,0-0.3-0.1-0.3-0.3V4.1c0-0.7,0.3-1.3,0.9-1.7c0.3-0.2,0.4-0.5,0.4-0.9c0-0.5-0.5-1-1-1
						c-0.3,0-0.6,0.1-0.8,0.3C23.1,1,23,1.3,23,1.6c0,0.1-0.1,0.3-0.3,0.3s-0.3-0.1-0.3-0.3c0-0.4,0.2-0.8,0.5-1.1
						C23.2,0.1,23.6,0,24,0c0.8,0,1.5,0.7,1.5,1.5c0,0.5-0.2,1-0.6,1.3c-0.4,0.3-0.7,0.8-0.7,1.3v0.7C24.3,4.9,24.1,5,24,5z"/>
				</g>
			</g>
			<g>
				<path fill="#FFD15C" d="M30.9,8.2V10c-0.5-0.4-1-0.7-1.5-1.1C26.7,7.2,24,7.2,24,7.2s-2.7,0-5.4,1.7c-0.5,0.3-1,0.7-1.5,1.1V8.2
					c0,0,0.1,0,0.1-0.1c1-0.4,3.6-1.6,4.7-3.1c0.3-0.4,0.8-0.8,1.3-1c0.5-0.2,1-0.2,1.5,0c0.5,0.2,1,0.5,1.3,1
					c1.1,1.5,3.7,2.7,4.7,3.1C30.8,8.2,30.9,8.2,30.9,8.2z"/>
			</g>
		</g>
		<g>
			<g>
				<path fill="#415A6B" d="M36.8,13c0,0-2.8-3.8-4.1-4.8c-1.3-1-1.9-0.5-1.9-0.5l-1.4-0.7c0,0-2.6,7.3-5.3,10.5
					c-2.7-3.2-5.3-10.5-5.3-10.5l-1.4,0.7c0,0-0.6-0.5-1.9,0.5C14,9.2,11.2,13,11.2,13s3.3,2.6,2.8,5.2c0,0,1.5,0.9,0.1,3.1l0.1,3.3
					c0,0-0.9,0.2-0.6,1.5c0.3,1.3,0.7,2-0.1,2.7c-0.8,0.7-0.2,2.5,0,3.7c0.3,1.3-0.4,1-0.4,1l0.7,2.2l-0.6,0.5l1.5,3.4L14.4,40
					l2.1,2.8l0.3-0.2l-0.7,1.6c0,0,1.1,4.6,4.2,3.8c1.9-0.5,0.1-2.2,0.1-2.2s1.3-0.3,1.8,1.3c1.2,0.9,2.4,0.9,3.7,0
					c0.6-1.5,1.8-1.3,1.8-1.3s-1.8,1.7,0.1,2.2c3,0.7,4.2-3.8,4.2-3.8l-0.7-1.6l0.3,0.2l2.1-2.8l-0.3-0.3l1.5-3.4l-0.6-0.5l0.7-2.2
					c0,0-0.7,0.2-0.4-1c0.3-1.3,0.9-3.1,0-3.7c-0.8-0.7-0.4-1.4-0.1-2.7c0.3-1.3-0.6-1.5-0.6-1.5l0.1-3.3C32.5,19,34,18.1,34,18.1
					C33.5,15.6,36.8,13,36.8,13z"/>
			</g>
			<g>
				<g>
					<path fill="#344A5E" d="M30.6,11.8c0.8,2.9,3.4,6.3,3.4,6.3c-0.1-0.3-0.1-0.6,0-0.9C32.2,15.3,30.6,11.8,30.6,11.8z"/>
					<path fill="#344A5E" d="M29.6,14.5c1.2,5.8,4.3,6.8,4.3,6.8c-0.2-0.4-0.4-0.7-0.5-1C30.8,18.3,29.6,14.5,29.6,14.5z"/>
					<path fill="#344A5E" d="M34.5,28.8c0,0-4.9-3.1-7.2-11.6c0,0,0.7,7.5,7.6,13C35,29.5,34.9,29,34.5,28.8z"/>
					<path fill="#344A5E" d="M34.4,32.8c-3.9-0.9-7.8-13.3-7.8-13.3c3.5,13.2,7.2,14.1,8.1,14.1C34.5,33.5,34.4,33.3,34.4,32.8z"/>
					<path fill="#344A5E" d="M26.9,22.3c0,0,0.9,10.2,7.6,14.4l0.2-0.5l-0.6-0.5C34.2,35.7,29.2,33.2,26.9,22.3z"/>
					<path fill="#344A5E" d="M32.9,40.9l0.7-0.9l-0.3-0.3c0,0-5.4-6.6-7.2-18.1C26.1,21.5,26.6,32.4,32.9,40.9z"/>
					<path fill="#344A5E" d="M25.4,20.1c0,0,0.9,13.3,6.3,24.6c0.1-0.4,0.2-0.6,0.2-0.6l-0.7-1.6l0.3,0.2
						C31.5,42.7,27.3,34.7,25.4,20.1z"/>
					<g>
						<path fill="#344A5E" d="M27.7,45.7c0,0-1.3-0.3-1.8,1.3c0,0-0.1,0-0.1,0.1l-1.1-23.3L27.7,45.7z"/>
					</g>
					<path fill="#344A5E" d="M28.8,15.6c0,0-0.4,5.9,5.6,10.4c0.3-1.3-0.6-1.5-0.6-1.5S29.4,21.2,28.8,15.6z"/>
				</g>
				<path fill="#344A5E" d="M17.4,11.8c-0.8,2.9-3.4,6.3-3.4,6.3c0.1-0.3,0.1-0.6,0-0.9C15.8,15.3,17.4,11.8,17.4,11.8z"/>
				<path fill="#344A5E" d="M18.4,14.5c-1.2,5.8-4.3,6.8-4.3,6.8c0.2-0.4,0.4-0.7,0.5-1C17.2,18.3,18.4,14.5,18.4,14.5z"/>
				<path fill="#344A5E" d="M13.5,28.8c0,0,4.9-3.1,7.2-11.6c0,0-0.7,7.5-7.6,13C13,29.5,13.1,29,13.5,28.8z"/>
				<path fill="#344A5E" d="M13.6,32.8c3.9-0.9,7.8-13.3,7.8-13.3c-3.5,13.2-7.2,14.1-8.1,14.1C13.5,33.5,13.6,33.3,13.6,32.8z"/>
				<path fill="#344A5E" d="M21.1,22.3c0,0-0.9,10.2-7.6,14.4l-0.2-0.5l0.6-0.5C13.8,35.7,18.8,33.2,21.1,22.3z"/>
				<path fill="#344A5E" d="M15.1,40.9L14.4,40l0.3-0.3c0,0,5.4-6.6,7.2-18.1C21.9,21.5,21.4,32.4,15.1,40.9z"/>
				<path fill="#344A5E" d="M22.6,20.1c0,0-0.9,13.3-6.3,24.6c-0.1-0.4-0.2-0.6-0.2-0.6l0.7-1.6l-0.3,0.2
					C16.5,42.7,20.7,34.7,22.6,20.1z"/>
				<g>
					<path fill="#344A5E" d="M23.3,23.8l-1.1,23.3c0,0-0.1,0-0.1-0.1c-0.6-1.6-1.8-1.3-1.8-1.3L23.3,23.8z"/>
				</g>
				<path fill="#344A5E" d="M19.2,15.6c0,0,0.4,5.9-5.6,10.4c-0.3-1.3,0.6-1.5,0.6-1.5S18.6,21.2,19.2,15.6z"/>
			</g>
			<g>
				<g>
					<path fill="#E8EAE9" d="M30.7,7.7c-0.4,1.1-2.9,7.6-5.5,10.8L24,19.8l-1.1-1.3c-2.7-3.1-5.1-9.7-5.5-10.8l1.3-0.6
						c0,0,2.6,7.3,5.3,10.5c2.7-3.2,5.3-10.5,5.3-10.5L30.7,7.7z"/>
				</g>
			</g>
		</g>
	</g>
</g>
</svg>
