<?xml version="1.0" encoding="utf-8"?>
<!-- Generator: Adobe Illustrator 16.0.0, SVG Export Plug-In . SVG Version: 6.00 Build 0)  -->
<!DOCTYPE svg PUBLIC "-//W3C//DTD SVG 1.1//EN" "http://www.w3.org/Graphics/SVG/1.1/DTD/svg11.dtd">
<svg version="1.1" id="Layer_1" xmlns="http://www.w3.org/2000/svg" xmlns:xlink="http://www.w3.org/1999/xlink" x="0px" y="0px"
	 width="48px" height="48px" viewBox="0 0 48 48" enable-background="new 0 0 48 48" xml:space="preserve">
<g>
	<path fill="#CDD6E0" d="M46,48H2c-1.105,0-2-0.895-2-2V13.94c0-1.104,0.895-2,2-2h44c1.104,0,2,0.896,2,2V46
		C48,47.105,47.104,48,46,48"/>
	<path fill="#F2F2F2" d="M38.394,48H9.606V2c0-1.104,0.896-2,2-2h24.787c1.104,0,2,0.896,2,2V48z"/>
	<rect x="27.971" y="5.216" fill="#84DBFF" width="5.138" height="5.138"/>
	<rect x="27.971" y="14.923" fill="#84DBFF" width="5.138" height="5.138"/>
	<rect x="27.971" y="24.63" fill="#84DBFF" width="5.138" height="5.137"/>
	<rect x="14.891" y="5.216" fill="#84DBFF" width="5.138" height="5.138"/>
	<rect x="14.891" y="14.923" fill="#84DBFF" width="5.138" height="5.138"/>
	<rect x="14.891" y="24.63" fill="#84DBFF" width="5.138" height="5.137"/>
	<rect x="17.509" y="34.984" fill="#40596B" width="6.491" height="13.016"/>
	<rect x="24" y="34.984" fill="#334A5E" width="6.491" height="13.016"/>
	<rect x="40.628" y="16.785" fill="#ACB3BA" width="5.137" height="5.137"/>
	<rect x="40.628" y="27.568" fill="#ACB3BA" width="5.137" height="5.137"/>
	<rect x="40.628" y="38.019" fill="#ACB3BA" width="5.137" height="5.137"/>
	<rect x="2.235" y="16.785" fill="#ACB3BA" width="5.137" height="5.137"/>
	<rect x="2.235" y="27.568" fill="#ACB3BA" width="5.137" height="5.137"/>
	<rect x="2.235" y="38.019" fill="#ACB3BA" width="5.137" height="5.137"/>
</g>
</svg>
