<?xml version="1.0" encoding="utf-8"?>
<!-- Generator: Adobe Illustrator 20.1.0, SVG Export Plug-In . SVG Version: 6.00 Build 0)  -->
<!DOCTYPE svg PUBLIC "-//W3C//DTD SVG 1.1//EN" "http://www.w3.org/Graphics/SVG/1.1/DTD/svg11.dtd">
<svg version="1.1" id="Layer_1" xmlns="http://www.w3.org/2000/svg" xmlns:xlink="http://www.w3.org/1999/xlink" x="0px" y="0px"
	 viewBox="0 0 49 49" enable-background="new 0 0 49 49" xml:space="preserve">
<g>
	<path fill="#F2F2F2" d="M24.1,14.9v33.6H5.9c-1.1,0-2-0.9-2-2V14.9L14,4.8L24.1,14.9z"/>
	<path fill="#FF7058" d="M25.7,15.8c-0.5,0-0.9-0.2-1.2-0.5L14,4.8L3.5,15.3c-0.7,0.7-1.8,0.7-2.5,0c-0.7-0.7-0.7-1.8,0-2.5L12.8,1
		c0.7-0.7,1.8-0.7,2.5,0L27,12.7c0.7,0.7,0.7,1.8,0,2.5C26.7,15.6,26.2,15.8,25.7,15.8z"/>
	<path fill="#E2E2E2" d="M24.1,14.9v2.2c-0.3-0.2-0.6-0.4-0.8-0.6L14,7.2l-9.3,9.3c-0.2,0.2-0.5,0.4-0.8,0.6v-2.2L14,4.8L24.1,14.9z
		"/>
	<path fill="#FF7058" d="M46.5,24.5H24.1v-5.9h21.6c0.8,0,1.5,0.5,1.8,1.2l0.8,1.9C48.9,23.1,47.9,24.5,46.5,24.5z"/>
	<path fill="#E2E2E2" d="M44.1,48.5h-20V26h22v20.5C46.1,47.6,45.2,48.5,44.1,48.5z"/>
	<rect x="24.1" y="24.5" fill="#CDD6E0" width="22" height="1.5"/>
	<rect x="6.5" y="22.5" fill="#FFFFFF" width="5.1" height="5.1"/>
	<rect x="16.4" y="22.5" fill="#FFFFFF" width="5.1" height="5.1"/>
	<g>
		<rect x="28.2" y="33" fill="#FFFFFF" width="13.8" height="9.3"/>
		<rect x="27.2" y="42.3" fill="#54C0EB" width="15.7" height="1.1"/>
	</g>
	<g>
		<path fill="#4CDBC4" d="M14.5,14.9V18c1.6-0.2,2.8-1.5,3.1-3.1H14.5z"/>
		<path fill="#4CDBC4" d="M13.5,13.8v-3.1c-1.6,0.2-2.8,1.5-3.1,3.1H13.5z"/>
		<path fill="#4CDBC4" d="M14.5,13.8h3.1c-0.2-1.6-1.5-2.9-3.1-3.1V13.8z"/>
		<path fill="#4CDBC4" d="M13.5,14.9h-3.1c0.2,1.6,1.5,2.9,3.1,3.1V14.9z"/>
	</g>
	<g>
		<path fill="#40596B" d="M20.5,39v9.5H7.5V39c0-3.6,2.9-6.5,6.5-6.5h0C17.6,32.5,20.5,35.4,20.5,39z"/>
	</g>
</g>
</svg>
