<?xml version="1.0" encoding="utf-8"?>
<!-- Generator: Adobe Illustrator 18.0.0, SVG Export Plug-In . SVG Version: 6.00 Build 0)  -->
<!DOCTYPE svg PUBLIC "-//W3C//DTD SVG 1.1//EN" "http://www.w3.org/Graphics/SVG/1.1/DTD/svg11.dtd">
<svg version="1.1" id="Layer_1" xmlns="http://www.w3.org/2000/svg" xmlns:xlink="http://www.w3.org/1999/xlink" x="0px" y="0px"
	 viewBox="0 0 48 48" enable-background="new 0 0 48 48" xml:space="preserve">
<g>
	<path fill="#F2F2F2" d="M40.2,21.5L33.9,9.3c-0.3-0.6-0.9-0.9-1.6-0.8C31.7,8.6,31.2,9,31,9.7l-5.5,20.8l-2.3-14.1
		c-0.1-0.7-0.6-1.2-1.3-1.3c-0.7-0.1-1.3,0.2-1.6,0.9l-5.7,11.6l-3.4-5.3c-0.3-0.4-0.8-0.7-1.3-0.7H0.7c0.4,1,0.8,2.1,1.4,3.1H9
		l4.4,6.9c0.3,0.5,0.8,0.7,1.4,0.7c0.6,0,1.1-0.4,1.3-0.9l4.7-9.7l2.7,16.5c0.1,0.7,0.7,1.3,1.5,1.3c0,0,0,0,0.1,0
		c0.7,0,1.3-0.5,1.5-1.2L33,14.4l4.9,9.4c0.3,0.5,0.8,0.8,1.4,0.8h6.6c0.6-1,1-2.1,1.4-3.1H40.2z"/>
	<path fill="#FF7058" d="M2.1,24.6c-0.3-0.5-0.5-1-0.8-1.5C1.6,23.6,1.8,24.1,2.1,24.6z"/>
	<path fill="#FFD15C" d="M0.7,21.5h9.2c0.5,0,1,0.3,1.3,0.7l3.4,5.3l5.7-11.6c0.3-0.6,1-1,1.6-0.9c0.7,0.1,1.2,0.6,1.3,1.3l2.3,14.1
		L31,9.7c0.2-0.6,0.7-1.1,1.3-1.2c0.6-0.1,1.3,0.3,1.6,0.8l6.3,12.2h7.1c-0.2,0.5-0.4,1-0.6,1.5c0.8-1.8,1.3-3.6,1.3-5.3
		C48,9,41.6,2,33.8,2C30,2,26.5,3.6,24,6.3C21.5,3.6,18,2,14.2,2C6.4,2,0,9,0,17.7c0,1.7,0.5,3.5,1.3,5.3C1.1,22.5,0.9,22,0.7,21.5z
		"/>
	<path fill="#FF7058" d="M45.9,24.6c0.3-0.5,0.5-1,0.7-1.5C46.4,23.6,46.2,24.1,45.9,24.6z"/>
	<path fill="#FF7058" d="M39.3,24.6c-0.6,0-1.1-0.3-1.4-0.8L33,14.4l-6.3,23.9c-0.2,0.7-0.8,1.2-1.5,1.2c0,0,0,0-0.1,0
		c-0.7,0-1.3-0.6-1.5-1.3l-2.7-16.5l-4.7,9.7c-0.2,0.5-0.7,0.8-1.3,0.9c-0.6,0-1.1-0.2-1.4-0.7L9,24.6H2.1C8,35.2,24,46,24,46
		s16.1-10.7,21.9-21.4H39.3z"/>
	<path opacity="0.1" fill="#231F20" d="M37.9,23.8L33,14.4l-6.3,23.9c-0.2,0.7-0.8,1.2-1.5,1.2c0,0,0,0-0.1,0
		c-0.7,0-1.3-0.6-1.5-1.3l-2.7-16.5l-4.7,9.7c-0.2,0.5-0.7,0.8-1.3,0.9c-0.6,0-1.1-0.2-1.4-0.7L9,24.6H2.1c0.2,0.3,0.4,0.7,0.6,1
		h5.8l4.2,6.4c0.5,0.7,1.3,1.2,2.1,1.2c0.1,0,0.1,0,0.2,0c0.9-0.1,1.7-0.6,2.1-1.4l3.4-6.9l2.2,13.4c0.2,1.2,1.2,2.1,2.4,2.1l0.1,0
		c1.2,0,2.2-0.8,2.5-1.9l5.6-21.4l3.7,7.1c0.4,0.9,1.3,1.4,2.3,1.4h6c0.2-0.3,0.4-0.7,0.6-1h-6.6C38.7,24.6,38.2,24.3,37.9,23.8z"/>
</g>
</svg>
