<?xml version="1.0" encoding="utf-8"?>
<!-- Generator: Adobe Illustrator 18.0.0, SVG Export Plug-In . SVG Version: 6.00 Build 0)  -->
<!DOCTYPE svg PUBLIC "-//W3C//DTD SVG 1.1//EN" "http://www.w3.org/Graphics/SVG/1.1/DTD/svg11.dtd">
<svg version="1.1" id="Layer_1" xmlns="http://www.w3.org/2000/svg" xmlns:xlink="http://www.w3.org/1999/xlink" x="0px" y="0px"
	 viewBox="0 0 48 48" enable-background="new 0 0 48 48" xml:space="preserve">
<g>
	<g>
		<circle fill="#CDD6E0" cx="24" cy="24" r="24"/>
		<circle fill="#ACB3BA" cx="24" cy="24" r="17.3"/>
	</g>
	<g>
		<g>
			<g>
				<path fill="#F2F2F2" d="M24.7,0c-0.5,0-0.8,0.5-0.8,0.9V10c0,0.5-0.4,0.9-0.9,0.9c-0.5,0-0.9-0.4-0.9-0.9V0.9
					c0-0.5-0.3-0.9-0.8-0.9c-0.5-0.1-1,0.4-1,0.9V10c0,0.5-0.4,0.9-0.9,0.9h0c-0.5,0-0.9-0.4-0.9-0.9V0.9c0-0.5-0.3-0.9-0.8-0.9
					c-0.5-0.1-1,0.4-1,0.9V10c0,0.5-0.4,0.9-0.9,0.9h0c-0.5,0-0.9-0.4-0.9-0.9V0.9c0-0.5-0.3-0.9-0.8-0.9c-0.5-0.1-1,0.4-1,0.9V11
					c0,1.7,0.7,3.2,1.8,4.4c1.8,1.8,2.8,4.3,2.6,6.8l-2,21.6c0,0.2,0,0.5,0,0.7c0.2,2.2,2.3,3.8,4.5,3.4c2-0.4,3.3-2.3,3.1-4.3
					l-1.9-21.5c-0.2-2.6,0.8-5,2.6-6.8c1.1-1.1,1.8-2.7,1.8-4.4V0.9C25.6,0.4,25.2,0,24.7,0z"/>
			</g>
		</g>
		<g>
			<g>
				<path fill="#40596B" d="M21.3,22.5l-3.8,0l-1.9,21.3c0,0.2,0,0.5,0,0.7c0.2,2.2,2.3,3.8,4.5,3.4c2-0.4,3.3-2.3,3.1-4.3
					L21.3,22.5z"/>
			</g>
		</g>
		<path fill="#F2F2F2" d="M33.3,0c0,0-4.3,1.7-6.1,14.6c-0.7,5.3,0.4,10.5,2.4,15.4c0.2,0.5,0.3,1.1,0.3,1.7l-1.2,12.9
			c0,0.2,0,0.4,0,0.6c0.2,1.7,1.7,3,3.5,2.8c1.6-0.2,2.7-1.9,2.6-3.5L33.3,0z"/>
		<g>
			<path fill="#FF7058" d="M29.9,31.6c0,0.1,0,0.1,0,0.2l-1.2,12.9c0,0.2,0,0.4,0,0.6c0.2,1.7,1.7,3,3.5,2.8
				c1.6-0.2,2.7-1.9,2.6-3.5l-0.4-12.9H29.9z"/>
		</g>
	</g>
</g>
</svg>
