<?xml version="1.0" encoding="utf-8"?>
<!-- Generator: Adobe Illustrator 16.0.0, SVG Export Plug-In . SVG Version: 6.00 Build 0)  -->
<!DOCTYPE svg PUBLIC "-//W3C//DTD SVG 1.1//EN" "http://www.w3.org/Graphics/SVG/1.1/DTD/svg11.dtd">
<svg version="1.1" id="Layer_1" xmlns="http://www.w3.org/2000/svg" xmlns:xlink="http://www.w3.org/1999/xlink" x="0px" y="0px"
	 width="48px" height="48px" viewBox="0 0 48 48" enable-background="new 0 0 48 48" xml:space="preserve">
<g>
	<path fill="#CDD5DF" d="M45.852,35.478L31.614,21.241L21.241,31.615l14.237,14.236c2.864,2.865,7.509,2.865,10.373,0
		C48.716,42.987,48.716,38.343,45.852,35.478"/>
	<path fill="#66C6B9" d="M40.127,40.127L40.127,40.127c-0.964,0.963-2.524,0.963-3.488,0l-5.575-5.576
		c-0.964-0.963-0.964-2.524,0-3.487c0.963-0.964,2.524-0.964,3.487,0l5.576,5.575C41.09,37.603,41.09,39.165,40.127,40.127"/>
	<path fill="#4EC0AA" d="M31.058,31.062c-0.182,0.183-0.33,0.379-0.438,0.61c0.927-0.512,2.111-0.354,2.894,0.428l5.572,5.572
		c0.78,0.781,0.939,1.965,0.426,2.893c0.232-0.11,0.428-0.256,0.611-0.439c0.965-0.965,0.965-2.527,0-3.492l-5.572-5.572
		C33.585,30.098,32.022,30.098,31.058,31.062"/>
	<path fill="#E7E9E8" d="M22.024,10.419l-2.453,9.153l-9.152,2.452l-9.751-9.751c-1.708,5.845-0.085,12.164,4.22,16.469
		c6.588,6.588,17.275,6.596,23.863,0.009c6.587-6.587,6.578-17.275-0.01-23.862C24.437,0.583,18.118-1.04,12.272,0.668
		L22.024,10.419z"/>
	<polygon fill="#41596B" points="13.854,2.25 4.702,4.702 2.249,13.854 8.949,20.555 18.103,18.103 20.554,8.95 	"/>
	<path fill="#F2F2F2" d="M8.788,14.016c1.443,1.444,3.783,1.444,5.229,0c1.443-1.444,1.443-3.784,0-5.228
		c-1.445-1.444-3.785-1.444-5.229,0C7.344,10.232,7.344,12.572,8.788,14.016"/>
</g>
</svg>
