<?xml version="1.0" encoding="utf-8"?>
<!-- Generator: Adobe Illustrator 18.0.0, SVG Export Plug-In . SVG Version: 6.00 Build 0)  -->
<!DOCTYPE svg PUBLIC "-//W3C//DTD SVG 1.1//EN" "http://www.w3.org/Graphics/SVG/1.1/DTD/svg11.dtd">
<svg version="1.1" id="Layer_1" xmlns="http://www.w3.org/2000/svg" xmlns:xlink="http://www.w3.org/1999/xlink" x="0px" y="0px"
	 viewBox="0 0 48 48" enable-background="new 0 0 48 48" xml:space="preserve">
<g>
	<path fill="#CDD6E0" d="M46,2.7H2c-1.1,0-2,0.9-2,2v31.5c0,1.1,0.9,2,2,2h44c1.1,0,2-0.9,2-2V4.7C48,3.5,47.1,2.7,46,2.7z"/>
	<path fill="#F2F2F2" d="M4,30.1V10.7c2.2,0,4-1.8,4-4h32c0,2.2,1.8,4,4,4v19.5c-2.2,0-4,1.8-4,4H8C8,31.9,6.2,30.1,4,30.1z"/>
	<rect x="7.5" y="11.5" fill="#CDD6E0" width="33" height="2.5"/>
	<rect x="7.5" y="18.6" fill="#CDD6E0" width="33" height="2.5"/>
	<rect x="7.5" y="25.7" fill="#CDD6E0" width="13.9" height="2.5"/>
	<g>
		<polygon fill="#F1543F" points="39,45.3 34.5,42.4 29.9,45.3 29.9,33.1 39,33.1 		"/>
		<circle fill="#FF7058" cx="34.5" cy="32" r="7.3"/>
		<circle fill="#FFD15C" cx="34.5" cy="32" r="4.6"/>
	</g>
</g>
</svg>
