<?xml version="1.0" encoding="utf-8"?>
<!-- Generator: Adobe Illustrator 18.0.0, SVG Export Plug-In . SVG Version: 6.00 Build 0)  -->
<!DOCTYPE svg PUBLIC "-//W3C//DTD SVG 1.1//EN" "http://www.w3.org/Graphics/SVG/1.1/DTD/svg11.dtd">
<svg version="1.1" id="Layer_1" xmlns="http://www.w3.org/2000/svg" xmlns:xlink="http://www.w3.org/1999/xlink" x="0px" y="0px"
	 viewBox="0 0 48 48" enable-background="new 0 0 48 48" xml:space="preserve">
<g>
	<path fill="#CDD6E0" d="M8.2,23.9c-0.2,0-0.4-0.1-0.6-0.3c-0.3-0.3-0.2-0.8,0.1-1.1l15.6-12.3c0.3-0.3,0.8-0.2,1.1,0.1
		c0.3,0.3,0.2,0.8-0.1,1.1L8.7,23.8C8.5,23.9,8.4,23.9,8.2,23.9z"/>
	<g>
		<g>
			<path fill="#ACB3BA" d="M23.8,13.7c-1.8,0-3.2-1.5-3.2-3.2c0-0.5,0.4-0.9,0.9-0.9s0.9,0.4,0.9,0.9c0,0.8,0.6,1.4,1.4,1.4
				c0.8,0,1.4-0.6,1.4-1.4S24.6,9,23.8,9c-0.5,0-0.9-0.4-0.9-0.9V6.4c0-0.5,0.4-0.9,0.9-0.9s0.9,0.4,0.9,0.9v0.9
				C26,7.7,27,8.9,27,10.4C27,12.2,25.6,13.7,23.8,13.7z"/>
		</g>
		<polygon fill="#40596B" points="27.7,3.8 26.3,6.5 21.2,6.5 19.8,3.8 21.2,0 26.3,0 		"/>
		<circle fill="#FFFFFF" cx="23.8" cy="3.3" r="1.1"/>
	</g>
	<rect x="7" y="20.9" fill="#F1543F" width="1.8" height="1.7"/>
	<path fill="#CDD6E0" d="M39.7,23.9c-0.2,0-0.3-0.1-0.5-0.2L23.3,11.5c-0.3-0.3-0.4-0.7-0.1-1.1s0.7-0.4,1.1-0.1l15.9,12.3
		c0.3,0.3,0.4,0.7,0.1,1.1C40.2,23.8,39.9,23.9,39.7,23.9z"/>
	<rect x="39.2" y="20.9" fill="#F1543F" width="1.8" height="1.7"/>
	<rect y="22.6" fill="#FF7058" width="48" height="25.4"/>
	<g>
		<g>
			<rect x="26.3" y="27.5" fill="#F1543F" width="2.5" height="15.6"/>
			<rect x="19.2" y="27.5" fill="#F1543F" width="2.5" height="15.6"/>
			<rect x="12.1" y="27.5" fill="#F1543F" width="2.5" height="15.6"/>
			<rect x="5" y="27.5" fill="#F1543F" width="2.5" height="15.6"/>
		</g>
		<g>
			<rect x="40.5" y="27.5" fill="#F1543F" width="2.5" height="15.6"/>
			<rect x="33.4" y="27.5" fill="#F1543F" width="2.5" height="15.6"/>
			<rect x="26.3" y="27.5" fill="#F1543F" width="2.5" height="15.6"/>
			<rect x="19.2" y="27.5" fill="#F1543F" width="2.5" height="15.6"/>
		</g>
	</g>
</g>
</svg>
