<?xml version="1.0" encoding="utf-8"?>
<!-- Generator: Adobe Illustrator 18.0.0, SVG Export Plug-In . SVG Version: 6.00 Build 0)  -->
<!DOCTYPE svg PUBLIC "-//W3C//DTD SVG 1.1//EN" "http://www.w3.org/Graphics/SVG/1.1/DTD/svg11.dtd">
<svg version="1.1" id="Layer_1" xmlns="http://www.w3.org/2000/svg" xmlns:xlink="http://www.w3.org/1999/xlink" x="0px" y="0px"
	 viewBox="0 0 512 512" enable-background="new 0 0 512 512" xml:space="preserve">
<g>
	<path fill="#40596B" d="M488.8,217.8H23.2c-11.7,0-21.2,9.5-21.2,21.2v249.9c0,11.7,9.5,21.2,21.2,21.2h465.7
		c11.7,0,21.2-9.5,21.2-21.2V238.9C510,227.2,500.5,217.8,488.8,217.8z"/>
	<path fill="#F2F2F2" d="M256,2C162.4,2,86.2,78.2,86.2,171.9v45.9h56.4v-45.9c0-62.5,50.9-113.4,113.4-113.4
		c62.5,0,113.4,50.9,113.4,113.4v45.9h56.4v-45.9C425.8,78.2,349.7,2,256,2z"/>
	<path fill="#4CDBC4" d="M460.6,272.1c-4.1,0-7.7,1.6-10.3,4.3c-2.6,2.7-4.2,6.3-4.2,10.3c0,8.1,6.5,14.6,14.6,14.6H510v-29.1H460.6
		z"/>
	<path fill="#4CDBC4" d="M450.3,353.6c-2.6,2.7-4.2,6.3-4.2,10.3c0,8.1,6.5,14.6,14.6,14.6H510v-29.1h-49.4
		C456.5,349.3,452.9,350.9,450.3,353.6z"/>
	<path fill="#4CDBC4" d="M450.3,430.8c-2.6,2.7-4.2,6.3-4.2,10.3c0,8.1,6.5,14.6,14.6,14.6H510v-29.1h-49.4
		C456.5,426.5,452.9,428.1,450.3,430.8z"/>
	<path fill="#334A5E" d="M304.7,337.2c0-26.9-21.8-48.7-48.7-48.7s-48.7,21.8-48.7,48.7c0,16.6,8.3,31.2,21,40l-16.9,62h89.3
		l-16.9-62C296.4,368.4,304.7,353.8,304.7,337.2z"/>
</g>
</svg>
