<?xml version="1.0" encoding="utf-8"?>
<!-- Generator: Adobe Illustrator 18.0.0, SVG Export Plug-In . SVG Version: 6.00 Build 0)  -->
<!DOCTYPE svg PUBLIC "-//W3C//DTD SVG 1.1//EN" "http://www.w3.org/Graphics/SVG/1.1/DTD/svg11.dtd">
<svg version="1.1" id="Layer_1" xmlns="http://www.w3.org/2000/svg" xmlns:xlink="http://www.w3.org/1999/xlink" x="0px" y="0px"
	 viewBox="0 0 48 48" enable-background="new 0 0 48 48" xml:space="preserve">
<g>
	<path fill="#ACB3BA" d="M48,30.2c-5.8-0.4-10.3,0-10.3,0c-6.2-0.9-7.5-10-7.7-11.6c0-0.2,0-0.3,0-0.5c0.1-11.1-3.2-13.8-3.2-13.8
		C21.9-2,16.2-0.1,13,2C11.3,3,10.5,5,10.8,7l0.1,0.5c0.3,1.6,1.4,2.9,2.9,3.6c7.2,3.5,6.8,12.4,6.6,14.3c0,0.2,0,0.4-0.1,0.6
		c-2.4,10.6-1.8,18.2-1.1,22H48V30.2z"/>
	<g>
		<path fill="#FFD15C" d="M0,8.6c0,0-0.6-1.1,4-1.8s7.1-2.9,7.1-2.9l2.3-1l-1.6,2.9c0,0,0.5,2.7,1.8,2.4c0,0-1,1-4.9,1.6
			C4.8,10.4,0,8.6,0,8.6z"/>
		<path fill="#F8B64C" d="M14.2,8.7l-0.5-0.5c0,0-1,1-4.9,1.6c-0.3,0-0.6,0.1-0.9,0.1c0.1,0,0.1,0,0.2,0.1c2.5,0.6,5.7,0,5.7,0
			C13.2,8.8,14.2,8.7,14.2,8.7z"/>
	</g>
	<g>
		<ellipse fill="#40596B" cx="18.5" cy="2.6" rx="1.3" ry="0.8"/>
		<circle fill="#FFFFFF" cx="19.3" cy="2.6" r="0.2"/>
	</g>
	<path fill="#40596B" d="M48,27.5c-5.8-0.4-12.7,0.4-18.1,4.8c-4.9,4-5,11.5-0.4,15.6H48V27.5z"/>
	<path opacity="0.1" fill="#231F20" d="M29.4,48H35c-1.1-0.6-2-1.3-2.8-1.9c-4.3-3.5-4.9-9.8-1.8-14.1c-0.2,0.1-0.4,0.2-0.5,0.4
		C25,36.3,24.9,43.8,29.4,48z"/>
</g>
</svg>
