<?xml version="1.0" encoding="utf-8"?>
<!-- Generator: Adobe Illustrator 18.0.0, SVG Export Plug-In . SVG Version: 6.00 Build 0)  -->
<!DOCTYPE svg PUBLIC "-//W3C//DTD SVG 1.1//EN" "http://www.w3.org/Graphics/SVG/1.1/DTD/svg11.dtd">
<svg version="1.1" id="Layer_1" xmlns="http://www.w3.org/2000/svg" xmlns:xlink="http://www.w3.org/1999/xlink" x="0px" y="0px"
	 viewBox="0 0 48 48" enable-background="new 0 0 48 48" xml:space="preserve">
<g>
	<path fill="#FF7058" d="M43,5.9H8.2c-2.2,0-4,1.8-4,4v10.6c-0.9,0.6-1.6,1.4-2.1,2.3c-0.7,1.1-1,2.4-1,3.8v11.2h7.2H47V22.8v-6.6
		V9.9C47,7.7,45.2,5.9,43,5.9z"/>
	<path fill="#FFD15C" d="M48,37.7c0,0.6-0.5,1.2-1.2,1.2H1.2c-0.7,0-1.2-0.5-1.2-1.2c0-0.6,0.4-1.1,1-1.2c0.1,0,0.1,0,0.2,0h45.7
		c0.1,0,0.1,0,0.2,0C47.6,36.7,48,37.2,48,37.7z"/>
	<g>
		<rect x="16.5" y="7.9" fill="#CDD6E0" width="7.9" height="8"/>
		<rect x="26.8" y="7.9" fill="#CDD6E0" width="7.9" height="8"/>
		<path fill="#CDD6E0" d="M45,15.9v-6c0-1.1-0.9-2-2-2h-5.8v8H45z"/>
		<path fill="#CDD6E0" d="M14,15.9v-8H8.2c-1.1,0-2,0.9-2,2v6H14z"/>
		<rect x="27.2" y="21.2" fill="#CDD6E0" width="7.9" height="8.8"/>
		<rect x="16.8" y="21.2" fill="#CDD6E0" width="7.9" height="8.8"/>
		<rect x="37.6" y="21.2" fill="#CDD6E0" width="7.8" height="8.8"/>
		<path fill="#CDD6E0" d="M14.3,21.2H8.7c-1.9,0-3.7,1-4.6,2.6l0,0c-0.5,0.8-0.8,1.8-0.8,2.7v3.4h11V21.2z"/>
	</g>
	<path fill="#CDD6E0" d="M10.5,35.4c-1.3,0-2.3,1-2.3,2.3c0,0.1,0,0.2,0,0.3c0.1-1.1,1.1-2,2.3-2c1.2,0,2.1,0.9,2.3,2
		c0-0.1,0-0.2,0-0.3C12.8,36.5,11.8,35.4,10.5,35.4z"/>
	<path fill="#CDD6E0" d="M37.5,35.4c-1.3,0-2.3,1-2.3,2.3c0,0.1,0,0.2,0,0.3c0.1-1.1,1.1-2,2.3-2c1.2,0,2.1,0.9,2.3,2
		c0-0.1,0-0.2,0-0.3C39.8,36.5,38.8,35.4,37.5,35.4z"/>
	<g>
		<path fill="#F2F2F2" d="M42.9,7.9l-5.7,6.7v1.2h0.9l6.2-7.4C44,8.2,43.5,7.9,43,7.9H42.9z"/>
		<polygon fill="#F2F2F2" points="32.6,7.9 26.8,14.7 26.8,15.9 27.8,15.9 34.5,7.9 		"/>
		<polygon fill="#F2F2F2" points="22.2,7.9 16.5,14.7 16.5,15.9 17.5,15.9 24.2,7.9 		"/>
		<polygon fill="#F2F2F2" points="11.9,7.9 6.2,14.7 6.2,15.9 7.1,15.9 13.8,7.9 		"/>
		<polygon fill="#F2F2F2" points="43.2,21.2 37.6,27.9 37.6,29.9 37.8,29.9 45.2,21.2 		"/>
		<polygon fill="#F2F2F2" points="32.9,21.2 27.2,28 27.2,29.9 27.5,29.9 34.9,21.2 		"/>
		<polygon fill="#F2F2F2" points="22.5,21.2 16.8,28 16.8,29.9 17.1,29.9 24.5,21.2 		"/>
		<polygon fill="#F2F2F2" points="10.6,21.2 3.3,29.8 3.3,29.9 5.2,29.9 12.6,21.2 		"/>
	</g>
	<path fill="#F1543F" d="M15.8,37.7c0,0.4,0,0.8-0.1,1.2H5.3c-0.1-0.4-0.1-0.8-0.1-1.2c0-0.4,0-0.8,0.1-1.2c0.5-2.4,2.6-4.1,5.2-4.1
		c2.5,0,4.7,1.8,5.2,4.1C15.8,36.9,15.8,37.3,15.8,37.7z"/>
	<path fill="#F8B64C" d="M15.8,37.7c0,0.4,0,0.8-0.1,1.2H5.3c-0.1-0.4-0.1-0.8-0.1-1.2c0-0.4,0-0.8,0.1-1.2h10.4
		C15.8,36.9,15.8,37.3,15.8,37.7z"/>
	<path fill="#F1543F" d="M42.8,37.7c0,0.4,0,0.8-0.1,1.2H32.3c-0.1-0.4-0.1-0.8-0.1-1.2c0-0.4,0-0.8,0.1-1.2
		c0.5-2.4,2.6-4.1,5.2-4.1c2.5,0,4.7,1.8,5.2,4.1C42.8,36.9,42.8,37.3,42.8,37.7z"/>
	<path fill="#F8B64C" d="M42.8,37.7c0,0.4,0,0.8-0.1,1.2H32.3c-0.1-0.4-0.1-0.8-0.1-1.2c0-0.4,0-0.8,0.1-1.2h10.4
		C42.8,36.9,42.8,37.3,42.8,37.7z"/>
	<circle fill="#40596B" cx="10.5" cy="37.7" r="4.3"/>
	<circle fill="#F2F2F2" cx="10.5" cy="37.7" r="2.3"/>
	<circle fill="#40596B" cx="37.5" cy="37.7" r="4.3"/>
	<circle fill="#F2F2F2" cx="37.5" cy="37.7" r="2.3"/>
</g>
</svg>
