<?xml version="1.0" encoding="utf-8"?>
<!-- Generator: Adobe Illustrator 20.1.0, SVG Export Plug-In . SVG Version: 6.00 Build 0)  -->
<!DOCTYPE svg PUBLIC "-//W3C//DTD SVG 1.1//EN" "http://www.w3.org/Graphics/SVG/1.1/DTD/svg11.dtd">
<svg version="1.1" id="Layer_1" xmlns="http://www.w3.org/2000/svg" xmlns:xlink="http://www.w3.org/1999/xlink" x="0px" y="0px"
	 viewBox="0 0 49 49" enable-background="new 0 0 49 49" xml:space="preserve">
<g>
	<path fill="#F8B64C" d="M33.5,29.9l-3.7-0.1l0.1,3.7C30,39.5,35,44.4,41,44.6l3.7,0.1L44.6,41C44.4,35,39.5,30,33.5,29.9z"/>
	<path fill="#FFD15C" d="M34.5,31.9l-2.6-0.1l0.1,2.6c0.1,4.3,3.7,7.9,8,8l2.6,0.1l-0.1-2.6C42.4,35.6,38.8,32,34.5,31.9z"/>
	<path fill="#FF7058" d="M48.5,29.6c-0.5-0.9-1.2-1.7-1.9-2.4c-1.8-1.8-4-3-6.4-3.6c-4.5-1.1-9.5,0.1-13,3.6
		c-3.5,3.5-4.7,8.5-3.6,13c0.6,2.3,1.8,4.6,3.6,6.4c0.7,0.7,1.6,1.4,2.4,1.9C24.4,48.7,19,46.8,15,42.8c-3.2-3.2-5-7.1-5.6-11.2
		c-0.8-5.9,1.1-12,5.6-16.5c4.5-4.5,10.7-6.4,16.5-5.6c4.1,0.6,8.1,2.4,11.2,5.6C46.8,19,48.7,24.4,48.5,29.6z"/>
	<path fill="#F2F2F2" d="M39.9,29.7C37.1,12.6,22.4,0,4.2,0.5L0.6,0.6L0.5,4.2C0,22.4,12.6,37.1,29.7,39.9L39.9,29.7z"/>
	<path fill="#40596B" d="M21.9,37.7c2.5,1,5.1,1.7,7.8,2.2l10.1-10.1c-0.4-2.7-1.2-5.3-2.2-7.8L21.9,37.7z"/>
	<path fill="#40596B" d="M16.1,2.1C12.4,1,8.4,0.4,4.2,0.5L0.6,0.6L0.5,4.2C0.4,8.4,1,12.4,2.1,16.1L16.1,2.1z"/>
	<path fill="#F2F2F2" d="M29.7,39.9c1,0.2,2.1,0.3,3.1,0.4l7.4-7.4c-0.1-1.1-0.2-2.1-0.4-3.1L29.7,39.9z"/>
	
		<ellipse transform="matrix(0.7071 -0.7071 0.7071 0.7071 -7.1368 17.2301)" fill="#40596B" cx="17.2" cy="17.2" rx="7.7" ry="7.7"/>
	
		<ellipse transform="matrix(0.7071 -0.7071 0.7071 0.7071 -7.1368 17.2302)" fill="#84DBFF" cx="17.2" cy="17.2" rx="5.4" ry="5.4"/>
	<path fill="#54C0EB" d="M13.8,14.6c1.9-1.9,4.9-1.9,6.8,0c1.8,1.8,1.9,4.7,0.2,6.6c0.1-0.1,0.2-0.1,0.2-0.2c2.1-2.1,2.1-5.5,0-7.6
		c-2.1-2.1-5.5-2.1-7.6,0c-2.1,2.1-2.1,5.5,0,7.6c0.1,0.1,0.2,0.1,0.2,0.2C12,19.3,12,16.4,13.8,14.6z"/>
</g>
</svg>
