<?xml version="1.0" encoding="utf-8"?>
<!-- Generator: Adobe Illustrator 18.0.0, SVG Export Plug-In . SVG Version: 6.00 Build 0)  -->
<!DOCTYPE svg PUBLIC "-//W3C//DTD SVG 1.1//EN" "http://www.w3.org/Graphics/SVG/1.1/DTD/svg11.dtd">
<svg version="1.1" id="Layer_1" xmlns="http://www.w3.org/2000/svg" xmlns:xlink="http://www.w3.org/1999/xlink" x="0px" y="0px"
	 viewBox="0 0 48 48" enable-background="new 0 0 48 48" xml:space="preserve">
<g>
	<g>
		<path fill="#415A6B" d="M36.8,0H11.2c-1.7,0-3,1.3-3,3v42c0,1.7,1.3,3,3,3h25.6c1.7,0,3-1.3,3-3l0-42C39.8,1.3,38.4,0,36.8,0z"/>
		<g>
			<rect x="11.9" y="5.1" fill="#8AD7F8" width="24.3" height="34.7"/>
		</g>
		<g>
			<circle fill="#344A5E" cx="24" cy="43.9" r="2.5"/>
		</g>
		<g>
			<g>
				<g>
					<path fill="#F05540" d="M32.6,28.4H15.4c-0.6,0-1,0.4-1,1v5.3c0,0.6,0.4,1,1,1l17.2,0c0.6,0,1-0.4,1-1v-5.3
						C33.6,28.9,33.2,28.4,32.6,28.4z"/>
				</g>
				<g>
					<path fill="#FFFFFF" d="M16.7,32.7c0.1,0.1,0.2,0.2,0.4,0.2c0.2,0,0.3-0.1,0.4-0.2c0.1-0.1,0.1-0.3,0.1-0.5v-1.5h0.6v1.5
						c0,0.4-0.1,0.7-0.3,0.9c-0.2,0.2-0.5,0.3-0.8,0.3c-0.3,0-0.6-0.1-0.8-0.3c-0.2-0.2-0.3-0.5-0.3-0.9v-1.5h0.6v1.5
						C16.5,32.4,16.6,32.6,16.7,32.7z"/>
					<path fill="#FFFFFF" d="M20.7,31c0.2,0.2,0.3,0.4,0.3,0.7c0,0.3-0.1,0.6-0.3,0.7c-0.2,0.2-0.5,0.2-0.9,0.2h-0.4v0.8h-0.6v-2.7
						h1C20.2,30.7,20.5,30.8,20.7,31z M20.3,32c0.1-0.1,0.1-0.2,0.1-0.4c0-0.2,0-0.3-0.1-0.3c-0.1-0.1-0.2-0.1-0.4-0.1h-0.3v0.9h0.4
						C20.1,32.1,20.2,32.1,20.3,32z"/>
					<path fill="#FFFFFF" d="M21.5,33.4v-2.7h0.6v2.2h1.2v0.5H21.5z"/>
					<path fill="#FFFFFF" d="M25.9,33.1c-0.3,0.3-0.6,0.4-1,0.4c-0.4,0-0.7-0.1-1-0.4c-0.3-0.3-0.4-0.6-0.4-1c0-0.4,0.1-0.7,0.4-1
						c0.3-0.3,0.6-0.4,1-0.4c0.4,0,0.7,0.1,1,0.4c0.3,0.3,0.4,0.6,0.4,1C26.3,32.5,26.2,32.8,25.9,33.1z M25.7,32.1
						c0-0.2-0.1-0.4-0.2-0.6c-0.2-0.2-0.3-0.3-0.6-0.3c-0.2,0-0.4,0.1-0.6,0.3c-0.2,0.2-0.2,0.4-0.2,0.6c0,0.2,0.1,0.4,0.2,0.6
						c0.2,0.2,0.3,0.3,0.6,0.3c0.2,0,0.4-0.1,0.6-0.3C25.6,32.5,25.7,32.3,25.7,32.1z"/>
					<path fill="#FFFFFF" d="M28.7,33.4l-0.3-0.6h-1.1L27,33.4h-0.6l1.2-2.7h0.6l1.2,2.7H28.7z M27.9,31.5l-0.3,0.8h0.7L27.9,31.5z"
						/>
					<path fill="#FFFFFF" d="M31.7,31.1c0.3,0.2,0.4,0.6,0.4,1c0,0.4-0.1,0.8-0.4,1c-0.3,0.2-0.6,0.4-1.2,0.4h-0.9v-2.7h1
						C31.1,30.7,31.5,30.8,31.7,31.1z M31.3,32.7c0.1-0.1,0.2-0.3,0.2-0.6c0-0.3-0.1-0.5-0.2-0.6c-0.1-0.1-0.4-0.2-0.7-0.2h-0.3v1.7
						h0.4C30.9,32.9,31.1,32.8,31.3,32.7z"/>
				</g>
			</g>
			<g>
				<polygon fill="#FFFFFF" points="21,24.6 27,24.6 27,15.5 30.4,15.5 24,9.1 17.6,15.5 21,15.5 				"/>
			</g>
		</g>
	</g>
</g>
</svg>
