<?xml version="1.0" encoding="utf-8"?>
<!-- Generator: Adobe Illustrator 18.0.0, SVG Export Plug-In . SVG Version: 6.00 Build 0)  -->
<!DOCTYPE svg PUBLIC "-//W3C//DTD SVG 1.1//EN" "http://www.w3.org/Graphics/SVG/1.1/DTD/svg11.dtd">
<svg version="1.1" id="Layer_1" xmlns="http://www.w3.org/2000/svg" xmlns:xlink="http://www.w3.org/1999/xlink" x="0px" y="0px"
	 viewBox="0 0 48 48" enable-background="new 0 0 48 48" xml:space="preserve">
<g>
	<g>
		<g>
			<g>
				<circle fill="#66C6B9" cx="32.1" cy="32.1" r="15.9"/>
			</g>
			<g>
				<circle fill="#FFFFFF" cx="32.1" cy="32.1" r="12.2"/>
			</g>
			<path fill="#F3705A" d="M32.9,31.8l3.4,3.4c0.3,0.3,0.3,0.8,0,1.1l0,0c-0.3,0.3-0.8,0.3-1.1,0l-3.7-3.7"/>
			<g>
				<g>
					<path fill="#FFD15C" d="M31.5,32.6c-0.1-0.1-0.2-0.3-0.2-0.5v-7.7c0-0.4,0.3-0.8,0.8-0.8h0c0.4,0,0.8,0.3,0.8,0.8v7.3"/>
				</g>
			</g>
			<g>
				<g>
					<circle fill="#415A6B" cx="32.1" cy="32.1" r="1.9"/>
				</g>
				<g>
					<circle fill="#344A5E" cx="32.1" cy="32.1" r="0.9"/>
				</g>
			</g>
			<g>
				<circle fill="#E8EAE9" cx="32.1" cy="21.6" r="0.8"/>
			</g>
			<g>
				<circle fill="#E8EAE9" cx="24.7" cy="24.7" r="0.8"/>
			</g>
			<g>
				<circle fill="#E8EAE9" cx="21.6" cy="32.1" r="0.8"/>
			</g>
			<g>
				<circle fill="#E8EAE9" cx="24.7" cy="39.5" r="0.8"/>
			</g>
			<g>
				<circle fill="#E8EAE9" cx="32.1" cy="42.6" r="0.8"/>
			</g>
			<g>
				<circle fill="#E8EAE9" cx="39.5" cy="39.5" r="0.8"/>
			</g>
			<g>
				<circle fill="#E8EAE9" cx="42.6" cy="32.1" r="0.8"/>
			</g>
			<g>
				<circle fill="#E8EAE9" cx="39.5" cy="24.7" r="0.8"/>
			</g>
		</g>
		<g>
			<g>
				<circle fill="#FFD15C" cx="12" cy="12" r="12"/>
			</g>
			<g>
				<circle fill="#F7B64C" cx="12" cy="12" r="8.7"/>
			</g>
			<g>
				<path fill="#FFD15C" d="M11.4,17.6v-1c-1.2-0.2-2.2-0.7-3.2-1.6l1.3-1.5c0.7,0.6,1.4,1,1.9,1.2v-2c-1-0.2-1.7-0.6-2.1-1
					c-0.4-0.4-0.7-1-0.7-1.8c0-0.8,0.3-1.4,0.8-1.9c0.5-0.5,1.2-0.8,2-0.9V6.4h1.4v0.7c0.9,0.1,1.8,0.5,2.7,1.1l-1.1,1.6
					c-0.6-0.4-1.1-0.7-1.6-0.8v2c1,0.3,1.7,0.6,2.2,1c0.5,0.4,0.7,1,0.7,1.8c0,0.8-0.3,1.4-0.8,1.9c-0.5,0.5-1.2,0.8-2.1,0.9v1H11.4
					z M11.4,8.9c-0.4,0.1-0.6,0.4-0.6,0.8s0.2,0.6,0.6,0.8V8.9z M13.6,13.9c0-0.2-0.1-0.4-0.2-0.5c-0.1-0.1-0.3-0.2-0.5-0.4v1.7
					C13.3,14.6,13.6,14.3,13.6,13.9z"/>
			</g>
		</g>
		<g>
			<path fill="#F3705A" d="M45.6,11.2C43.7,3.5,36-1.3,28.2,0.3c-1.1,0.2-2.2,0.6-3.2,1C31.6,1.5,37.5,6,39.1,12.6l-2.4,0.5l7.1,5.8
				l4.1-8.2L45.6,11.2z"/>
		</g>
		<g>
			<path fill="#F3705A" d="M2.4,34.3c0.6,7.9,7.3,14,15.3,13.7c1.1,0,2.2-0.2,3.3-0.5c-6.5-1.2-11.5-6.7-12-13.4l2.4-0.1l-6-6.9
				L0,34.4L2.4,34.3z"/>
		</g>
	</g>
</g>
</svg>
