<?xml version="1.0" encoding="utf-8"?>
<!-- Generator: Adobe Illustrator 18.0.0, SVG Export Plug-In . SVG Version: 6.00 Build 0)  -->
<!DOCTYPE svg PUBLIC "-//W3C//DTD SVG 1.1//EN" "http://www.w3.org/Graphics/SVG/1.1/DTD/svg11.dtd">
<svg version="1.1" id="Layer_1" xmlns="http://www.w3.org/2000/svg" xmlns:xlink="http://www.w3.org/1999/xlink" x="0px" y="0px"
	 viewBox="0 0 48 48" enable-background="new 0 0 48 48" xml:space="preserve">
<g>
	<path fill="#FFD15C" d="M17.5,5.5c0,0,0.4,1.4,0.6,1.7h-0.1L18,7.9l0.8,1L21,9.5l1.4-0.9l-0.1-1.3l0-0.1c0,0,0.4-1.1,0.4-1.8
		c0.1-0.7,0-1.6,0-1.6s-0.1-2-0.9-2.4c-0.8-0.4-1.1-0.5-1.1-0.5S17.9,1,17.6,1.6S17.2,4.7,17.5,5.5z"/>
	<path fill="#F5B54C" d="M21.2,8.3c-1.1,0.9-2-0.2-2.3-0.4c-0.2-0.2-0.8-0.7-0.8-0.7h-0.1L18,7.9l0.6,0.7l0.2,0.3L21,9.5l1.4-0.9
		l-0.1-1.3l0-0.1C22,7.5,21.7,7.9,21.2,8.3z"/>
	<path fill="#425A6B" d="M16.8,42.7c0.2,0.7,1.2,3.5,1.8,5.3h3.9c-0.1-1.7-0.3-4.1-0.5-4.7c-0.4-1.1-0.8-4.1-0.9-5.5
		c-0.1-1.4,0.3-5.7,0.7-6.5c0.4-0.8,0.5-1.2,0.5-1.2l-3-0.5l-3.9,0.3c0,0-0.1,2.8,0.2,5.8C15.9,38.7,16.5,41.7,16.8,42.7z"/>
	<path fill="#E8EAE8" d="M12.5,24c0,0,0.4,0.6,0.8,0.7c0.4,0.1,2.2-2.2,1.7-3.1c-0.5-1-2-0.8-2-0.8S11.5,22.5,12.5,24z"/>
	<path fill="#425A6B" d="M15,16.2c0,0-0.2,3.1-0.2,3.8c0,0.7,0,0.7,0,0.7S13.4,20.3,13,21c-0.4,0.7-0.7,2.7-0.2,3.4
		c0,0,0.3,0.3,0.5,0.3c0,0-0.4,0-0.7-0.2c-0.3-0.1-1.8-2.1-2.1-2.5c-0.2-0.4-0.6-1.5-0.4-1.8c0.2-0.4,0.4-0.9,0.5-1.2
		c0.1-0.4,0.7-1.8,0.9-3c0.2-1.1,0.9-3.7,1-4.2c0.1-0.5,0.3-1.6,0.7-1.4c0.4,0.2,1.1,0.4,1.1,0.4S15.9,14.7,15,16.2z"/>
	<path fill="#344A5E" d="M14.8,20.6c0,0,0,0,0-0.7c0-0.2,0-0.8,0.1-1.5c-0.2,0.8-0.5,0.8-1,0.6C13.4,19,11.3,19,11.3,19s0,0,0.7,0.1
		c0.7,0.1,1.4,0.2,1.4,0.2s-0.8,0-1.4-0.1s-1.2,0.1-1.2,0.1s0.6-0.1,1,0c0.4,0.1,0.7,0.3,0.9,0.4c0.2,0.2,0.8,0.4,1.1,0.6
		c0.1,0.1,0.2,0.2,0.4,0.3C14.6,20.6,14.8,20.6,14.8,20.6z"/>
	<path fill="#FFD15C" d="M15.4,21.4c0,0-0.7,0-0.8,0l-0.1-0.1c0,0,0.1,0.2-0.1,0.2c-0.2,0-0.6,0.1-0.7-0.1c0,0-0.2,0.4,0.1,0.9
		c0.3,0.5,0.1,0.8,0.1,0.8s0.3,0.3,0.4,0.3c0,0,0.6,0.3,0.6,0.6c0,0.3-0.2,0.3-0.5,0.1c0,0,0,0.3-0.5,0.1c-0.5-0.2-1.2-1-1.3-1.1
		c0-0.1-0.4-1.2-0.4-1.2l0.8-1.7l1.1,0.1c0,0,0.2,0.1,0.6,0.1c0.2,0,0.6,0,0.7,0c0.1,0,0.1,0,0.2,0c0.2,0.1,0.5,0.3,0.6,0.4l0.4,0.3
		C16.7,21.4,16.4,21.8,15.4,21.4z"/>
	<path fill="#CED6E0" d="M20.4,9.3l2.5,0.2l-1,10.4l-3.7-3.4C18.3,16.5,15.7,9.2,20.4,9.3z"/>
	<path fill="#67C5B8" d="M22.5,14.5l-0.7,5.1l-1.6-1.1l-0.4-3.6c0,0,0-2.1,0.5-3.9l0.6-1.1l0,0.1l0.2,1.1c0,0,0.5,1.5,0.7,1.9
		C22,13.3,22.5,14.5,22.5,14.5z"/>
	<path fill="#48B9A5" d="M19.5,9.4c0,0,0.9-0.1,0.9-0.1h1.3c0,0-0.3,1.3-0.7,1.7c0,0-0.5-0.3-0.7,0c0,0-0.8-0.9-1.1-1
		C18.9,9.8,19.5,9.4,19.5,9.4z"/>
	<ellipse fill="#F5B54C" cx="34.4" cy="21.1" rx="1.4" ry="0.7"/>
	<path fill="#FFD15C" d="M35.1,23.1c-0.2,0.2,0.2,0.5,0.4,0.3l0.9-1l0.1-0.9l-0.3-0.1C36.2,21.4,35.4,22.7,35.1,23.1z"/>
	<path fill="#F5B54C" d="M36.1,21.6L36.1,21.6C36.1,21.6,36.1,21.6,36.1,21.6L36.1,21.6c-0.1,0-0.1,0-0.1,0.1c0,0,0,0,0,0L36.1,21.6
		C36,21.7,36,21.8,36,21.8c0,0,0,0.1,0,0.1c0,0.1,0,0.1-0.1,0.2c0,0.1,0,0.2-0.1,0.3c0,0,0,0.1,0,0.1c0,0,0,0.1,0,0.1
		c0,0,0,0.1,0,0.1c0,0,0,0.1,0,0.1c0,0,0,0,0,0c0,0,0,0,0,0c0,0,0,0,0,0l0,0c0,0,0,0,0,0c0,0,0,0,0,0c0,0,0,0,0,0c0,0,0,0,0-0.1
		c0,0,0,0,0-0.1c0,0,0,0,0-0.1c0,0,0-0.1,0-0.1c0-0.1,0-0.2,0.1-0.3c0,0,0-0.1,0.1-0.1c0,0,0,0,0-0.1c0,0,0,0,0-0.1L36.1,21.6
		L36.1,21.6C36.1,21.6,36.1,21.6,36.1,21.6z"/>
	<path fill="#344A5E" d="M17.5,8.2c0,0-0.6,0.3-0.8,0.5c-0.2,0.2-3.5,1.8-3.5,1.8s1.7,3.6,1.8,5.5s1.1,6.8-0.6,15.4
		c0,0,3,1.6,4.2,1.6c1.2,0,2.2-0.9,2.5-2.6c0.4-1.6,0.3-11.1,0.3-11.1l-2.7-5.2L17.5,8.2z"/>
	<path fill="#FFD15C" d="M15.4,21.4c0,0-0.7,0-0.8,0l-0.1-0.1c0,0,0.1,0.2-0.1,0.2c-0.2,0-0.6,0.1-0.7-0.1c0,0-0.2,0.4,0.1,0.9
		c0.3,0.5,0.1,0.8,0.1,0.8s0.3,0.3,0.4,0.3c0,0,0.6,0.3,0.6,0.6c0,0.3-0.2,0.3-0.5,0.1c0,0,0,0.3-0.5,0.1c-0.5-0.2-1.2-1-1.3-1.1
		c0-0.1-0.4-1.2-0.4-1.2l0.8-1.7l1.1,0.1c0,0,0.2,0.1,0.6,0.1c0.2,0,0.6,0,0.7,0c0.1,0,0.1,0,0.2,0c0.2,0.1,0.5,0.3,0.6,0.4l0.4,0.3
		C16.7,21.4,16.4,21.8,15.4,21.4z"/>
	<path fill="#425A6B" d="M26.6,9.1l0.4-0.4c0,0,0.5-0.2,0.7,0.4c0.2,0.6,1.1,1.9,1.4,2.4c0.3,0.5,1.3,1.6,1.5,1.9
		c0.1,0.4,2,2,2.3,2.2c0.3,0.3,2.3,2.8,2.5,4.2c0,0-2.8-0.1-2.9,1.3c0,0-0.8-1.1-1-1.2c-0.2-0.1-0.6-0.3-1.1-1
		c-0.5-0.7-1.8-1.5-2.1-1.9c-0.3-0.4-1-1.9-1-1.9S25.5,9.7,26.6,9.1z"/>
	<path fill="#344A5E" d="M22.7,7.8c0,0,2,0.5,2.4,0.6c0.4,0,1.9,0.4,1.9,0.4s-0.2,5.1,0.2,6.4c0,0-0.6,8-0.3,10.3l-0.2,7.4
		c0,0-5,1.6-5.5-2c-0.5-3.6-0.1-9.7,0-10.3c0.1-0.6,1.4-5.3,1.4-5.3L22.7,7.8z"/>
	<path fill="#E8EAE8" d="M22.3,7.2c0,0-0.1,0.4-0.4,0.8s-1.4,1.3-1.4,1.3s1.4,0.2,1.9,1.6l0.5-2.7L22.3,7.2z"/>
	<path fill="#425A6B" d="M22.3,7.2c0,0,0,2.7,0,4c0,1.3-0.8,8.4-1.1,9.3c0,0,1.3-3.7,1.6-4.5c0.3-0.8,1.2-5.2,1.3-5.9l-1-0.7
		l0.6-0.2C23.7,9.3,23.1,7.8,22.3,7.2z"/>
	<path fill="#E8EAE8" d="M20.4,9.3c0,0-1.4,0.8-1.8,2l-1-3l0.5-1.1c0,0,0,0.5,0.5,0.9C19.2,8.6,20.4,9.3,20.4,9.3z"/>
	<path fill="#425A6B" d="M18,7.4c0,0,0.1,1.3,0.9,4.2s2.6,7.7,2.6,7.7s-2.3-3-2.8-4c-0.5-1-1.9-4.4-1.9-4.4l0.8-0.9l-0.7-0.2
		c0,0,0.1-1.1,0.5-1.6C17.9,7.7,18,7.4,18,7.4z"/>
	<rect x="21.4" y="25.5" fill="#F26F5A" width="8.5" height="22.5"/>
	<path fill="#F05640" d="M33.4,22.5H17.9l1.1,2.4c0.2,0.4,0.5,0.6,1,0.6h11.3c0.4,0,0.8-0.2,1-0.6L33.4,22.5z"/>
	<path fill="#F26F5A" d="M37.2,22.6h-23c-0.4,0-0.8-0.3-0.8-0.8c0-0.4,0.3-0.8,0.8-0.8h23c0.4,0,0.8,0.3,0.8,0.8
		C37.9,22.3,37.6,22.6,37.2,22.6z"/>
	<path fill="#FFD15C" d="M36.6,22.1l-0.2,0.5l-0.1,0.3c-0.1-0.1-0.2-0.1-0.2-0.2c-0.1-0.4,0.1-0.9,0.1-0.9c-0.1,0-0.4-0.5-0.6-0.7
		c0-0.1-0.1-0.1-0.1-0.1c-0.4,0.1-1,0-1,0c-0.1,0.1-0.1,0.1-0.2,0.1h-1.7c0-0.1,0-0.2,0-0.2c0.4-1.5,2.4-1.4,2.5-1.2
		c0.2,0.1,0.2,0.3,0.5,0.3c0.3,0,0.8,0.8,0.8,0.8s0.1,0.2,0.1,0.4c0.1,0.2,0.1,0.5,0.2,0.6C36.6,21.9,36.6,22.1,36.6,22.1z"/>
	<path fill="#425A6B" d="M29,17.6c0.5,0.4,1.1,0.9,1.4,1.3c0.5,0.7,1,0.9,1.1,1c0.2,0.1,1,1.2,1,1.2c0.1-1.4,2.9-1.3,2.9-1.3
		c-0.1-0.6-0.5-1.4-1-2.2H29z"/>
	<path fill="#425A6B" d="M10.5,19.4c-0.1,0.3-0.3,0.5-0.4,0.8c-0.2,0.4,0.2,1.4,0.4,1.8c0.2,0.4,1.8,2.4,2.1,2.5
		c0.3,0.1,0.7,0.2,0.7,0.2c-0.2,0-0.5-0.3-0.5-0.3c-0.5-0.7-0.2-2.7,0.2-3.4c0.4-0.7,1.8-0.3,1.8-0.3s0,0,0-0.7c0-0.1,0-0.3,0-0.6
		H10.5z"/>
	<path fill="#344A5E" d="M12.3,19.4c0.2,0.1,0.4,0.2,0.5,0.3c0.2,0.2,0.8,0.4,1.1,0.6c0.1,0.1,0.2,0.2,0.4,0.3
		c0.3,0,0.5,0.1,0.5,0.1s0,0,0-0.7c0-0.1,0-0.3,0-0.6H12.3z"/>
	<path fill="#F5B54C" d="M14.4,24.3c-0.1,0-0.1-0.1-0.1-0.1c0,0-0.1-0.1-0.1-0.1c-0.1-0.1-0.2-0.1-0.3-0.2c-0.2-0.1-0.4-0.3-0.6-0.4
		l0,0l0,0l-0.1-0.3c0,0,0-0.1,0-0.1s0-0.1,0-0.1c0,0,0,0.1,0,0.1c0,0,0,0.1,0,0.1l0.1,0.3l0,0c0.2,0.1,0.4,0.3,0.6,0.4
		c0.1,0.1,0.2,0.1,0.3,0.2c0,0,0.1,0.1,0.1,0.1C14.3,24.2,14.4,24.2,14.4,24.3z"/>
	<path fill="#425A6B" d="M17.4,4.7c0,0-0.1-0.4,0.1-0.9c0.2-0.5,0.3-0.9,0.2-1.4c-0.1-0.5,0-0.8,0.3-0.7C18.5,1.8,21,2,21.6,1.6
		c0.5-0.2,0.6,0.5,0.6,0.8s0.4,1.3,0.4,1.6c0,0.3,0,0.4,0,0.4l0.3-0.2c0,0,0.1-2-0.5-2.7c-0.6-0.7-1.1-1.2-2-1.4
		c-0.8-0.2-2,0.2-2.5,0.7c-0.5,0.5-0.9,2-0.8,2.5c0,0.5,0.3,1.7,0.3,1.7L17.4,4.7z"/>
	<path fill="#FFD15C" d="M23.3,4.8c-0.1,0.6-0.3,1.1-0.5,1.1c-0.2,0-0.3-0.5-0.2-1.1c0.1-0.6,0.3-1.1,0.5-1.1
		C23.3,3.7,23.4,4.2,23.3,4.8z"/>
	<path fill="#FFD15C" d="M16.9,5C17,5.6,17.2,6,17.4,6c0.2,0,0.3-0.5,0.2-1.1c-0.1-0.6-0.3-1.1-0.5-1.1C17,3.9,16.9,4.4,16.9,5z"/>
</g>
</svg>
