<?xml version="1.0" encoding="utf-8"?>
<!-- Generator: Adobe Illustrator 18.0.0, SVG Export Plug-In . SVG Version: 6.00 Build 0)  -->
<!DOCTYPE svg PUBLIC "-//W3C//DTD SVG 1.1//EN" "http://www.w3.org/Graphics/SVG/1.1/DTD/svg11.dtd">
<svg version="1.1" id="Layer_1" xmlns="http://www.w3.org/2000/svg" xmlns:xlink="http://www.w3.org/1999/xlink" x="0px" y="0px"
	 viewBox="0 0 48 48" enable-background="new 0 0 48 48" xml:space="preserve">
<g>
	<g>
		<g>
			<g>
				<path fill="#E8EAE9" d="M29.4,16.6H2c-1.1,0-2,0.9-2,2v22.7c0,1.1,0.9,2,2,2h29.4V18.6C31.4,17.5,30.5,16.6,29.4,16.6z"/>
				<g>
					<path fill="#CED6E0" d="M7.1,21.8L7.1,21.8c-1.2,0-2.2,1-2.2,2.2V36c0,1.2,1,2.2,2.2,2.2h0c1.2,0,2.2-1,2.2-2.2V23.9
						C9.2,22.7,8.3,21.8,7.1,21.8z"/>
					<path fill="#CED6E0" d="M15.7,21.8L15.7,21.8c-1.2,0-2.2,1-2.2,2.2V36c0,1.2,1,2.2,2.2,2.2h0c1.2,0,2.2-1,2.2-2.2V23.9
						C17.8,22.7,16.9,21.8,15.7,21.8z"/>
					<path fill="#CED6E0" d="M24.3,21.8L24.3,21.8c-1.2,0-2.2,1-2.2,2.2V36c0,1.2,1,2.2,2.2,2.2h0c1.2,0,2.2-1,2.2-2.2V23.9
						C26.4,22.7,25.5,21.8,24.3,21.8z"/>
				</g>
			</g>
			<path fill="#F3705A" d="M48,29.7v12.4c0,0.6-0.5,1.2-1.2,1.2H31.4V23h9.9c0.3,0,0.6,0.1,0.8,0.3l5.6,5.6
				C47.9,29.1,48,29.4,48,29.7z"/>
			<g>
				<polygon fill="#F3F3F3" points="40.8,25.3 40.8,25.3 35.1,25.3 35.1,33.9 45.7,33.9 45.7,30.2 				"/>
			</g>
			<circle fill="#415A6B" cx="11.5" cy="43.3" r="4.7"/>
			<circle fill="#CED6E0" cx="11.5" cy="43.3" r="1.8"/>
			<circle fill="#415A6B" cx="39.4" cy="43.3" r="4.7"/>
			<circle fill="#CED6E0" cx="39.4" cy="43.3" r="1.8"/>
		</g>
		<g>
			<g>
				<g>
					<g>
						<circle fill="#FFFFFF" cx="12.5" cy="12.5" r="11.3"/>
					</g>
					<g>
						<g>
							<path fill="#F3705A" d="M17.5,13.4h-5c-0.5,0-0.9-0.4-0.9-0.9s0.4-0.9,0.9-0.9h5c0.5,0,0.9,0.4,0.9,0.9S18,13.4,17.5,13.4z"
								/>
						</g>
					</g>
					<g>
						<g>
							<path fill="#FFD15C" d="M12.5,13.4c-0.5,0-0.9-0.4-0.9-0.9V5.4c0-0.5,0.4-0.9,0.9-0.9s0.9,0.4,0.9,0.9v7.1
								C13.4,13,13,13.4,12.5,13.4z"/>
						</g>
					</g>
					<g>
						<path fill="#8AD7F8" d="M12.5,25C5.6,25,0,19.4,0,12.5C0,5.6,5.6,0,12.5,0C19.4,0,25,5.6,25,12.5C25,19.4,19.4,25,12.5,25z
							 M12.5,2.3C6.9,2.3,2.3,6.9,2.3,12.5c0,5.6,4.6,10.2,10.2,10.2c5.6,0,10.2-4.6,10.2-10.2C22.7,6.9,18.1,2.3,12.5,2.3z"/>
					</g>
				</g>
			</g>
			<g>
				<g>
					<g>
						<circle fill="#344A5E" cx="12.5" cy="12.5" r="2.3"/>
					</g>
				</g>
				<g>
					<g>
						<circle fill="#415A6B" cx="12.5" cy="12.5" r="1.1"/>
					</g>
				</g>
			</g>
		</g>
	</g>
</g>
</svg>
