<?xml version="1.0" encoding="utf-8"?>
<!-- Generator: Adobe Illustrator 19.0.1, SVG Export Plug-In . SVG Version: 6.00 Build 0)  -->
<svg version="1.1" id="Layer_1" xmlns="http://www.w3.org/2000/svg" xmlns:xlink="http://www.w3.org/1999/xlink" x="0px" y="0px"
	 viewBox="0 0 48 48" style="enable-background:new 0 0 48 48;" xml:space="preserve">
<style type="text/css">
	.st0{fill:#FFD15C;}
	.st1{fill:#415A6B;}
	.st2{fill:#F7B64C;}
	.st3{fill:#CED6E0;}
	.st4{fill:#344A5E;}
	.st5{fill:#F3F3F3;}
	.st6{fill:#F05540;}
	.st7{fill:#F3705A;}
	.st8{fill:#66C6B9;}
	.st9{fill:#55C0EB;}
	.st10{fill:#F5F6FB;}
	.st11{fill:#4ABAA5;}
	.st12{fill:#ADB3BA;}
	.st13{fill:#E8EAE9;}
	.st14{fill:#2E4556;}
	.st15{fill:#8AD7F8;}
	.st16{fill:#FFFFFF;}
	.st17{fill:#E54838;}
	.st18{fill:#3EAF99;}
	.st19{fill:#EFA943;}
	.st20{fill:#4CAEE5;}
	.st21{fill:#293F4F;}
	.st22{fill:#2D4456;}
	.st23{fill:#2E4454;}
	.st24{fill:#2A3F4F;}
	.st25{fill:#2D4151;}
	.st26{fill:#E89E3D;}
	.st27{fill:#2B4151;}
	.st28{fill:#2A4051;}
	.st29{fill:#2C4151;}
	.st30{fill:#EBEAE8;}
	.st31{fill:#3AA590;}
	.st32{fill:#E84534;}
	.st33{fill:none;}
</style>
<g>
	<g>
		<path class="st8" d="M40.3,35.1C40.3,35.1,40.2,35.1,40.3,35.1C40.1,35,40,34.8,40,34.7c0.2-0.6,0.6-1,1.1-1.2
			c0.3-0.1,0.6-0.1,0.9,0c0.1,0.1,0.2,0.3,0.1,0.4s-0.3,0.2-0.4,0.1c-0.1-0.1-0.3,0-0.4,0c-0.3,0.1-0.6,0.4-0.7,0.8
			C40.6,35,40.4,35.1,40.3,35.1z"/>
	</g>
	<g>
		<g>
			<g>
				<g>
					<path class="st1" d="M41.4,37.7V27.5c0-0.2-0.2-0.3-0.3-0.3l0,0c-0.2,0-0.3,0.2-0.3,0.3v10.2H41.4z"/>
				</g>
			</g>
		</g>
		<g>
			<g>
				<g>
					<path class="st7" d="M46.2,29.3C44.6,28.4,43,32,41.4,31c0-1.1,0-2.3,0-3.4C43,29.7,44.6,27.3,46.2,29.3L46.2,29.3z"/>
				</g>
			</g>
		</g>
	</g>
	<g>
		<g>
			<g>
				<g>
					<g>
						<path class="st3" d="M35.4,48c0.2-0.4,0.4-0.6,0.6-0.9c0.3-0.6,0.3-1.2,0.3-2c0-0.8,0.2-3.2,0.3-4.3c0.1-1.1,1.1-1.5,1.1-1.9
							s0.5-1.1,0.5-1.1s0.2-0.6,0.5-1c0.4-0.3,1.8-1.7,2.2-1.9s0.9-0.1,1.3,0c0.3,0.1,1.6,1.1,1.6,1.4c0.1,0.3,0.4,0.6,0.7,0.9
							c0.3,0.4,0.6,1.9,0.6,1.9s0.8,0.9,1.4,1.4c0.5,0.5,1.4,1.5,1.5,2.7c0.1,1.1,0.1,3.2,0.2,4.7H35.4z"/>
					</g>
				</g>
				<g>
					<g>
						<path class="st12" d="M35.4,48c0.2-0.4,0.4-0.6,0.6-0.9c0.3-0.6,0.3-1.2,0.3-2c0-0.5,0.1-1.5,0.2-2.5l0.2,5L36.5,48H35.4z"/>
					</g>
				</g>
				<g>
					<g>
						<polygon class="st12" points="39.2,48 38,48 37.8,46.6 40.2,36.4 40.2,47.5 39.3,46 						"/>
					</g>
				</g>
			</g>
			<g>
				<g>
					<g>
						<path class="st12" d="M46.5,48c-0.1-1.1,0-1.6-0.7-3.8c-0.9-2.7-2.3-6.4-2.3-6.4l1.5,2.1c0,0,1.2,1.9,1.6,2.8
							c0.4,0.9,0.5,2.4,0.5,4.1c0,0.4,0,0.8,0.1,1.2H46.5z"/>
					</g>
				</g>
			</g>
			<g>
				<g>
					<g>
						<path class="st12" d="M43.5,48c0-0.1-0.2-4.1-0.2-4.3c0,0,0.6,2.3,1.1,4.3H43.5z"/>
					</g>
				</g>
			</g>
		</g>
		<g>
			<g>
				<path class="st8" d="M41.7,35c0,0.1,0,0.1-0.1,0.2l0,0c-3.2,3.4-7.2,4.6-11.3,4.6c-11,0-22.8-8.9-23-9c-0.1-0.1-0.2-0.3-0.1-0.4
					c0.1-0.1,0.3-0.2,0.4-0.1c0.2,0.2,21.9,16.5,33.6,4.5c0,0,0,0,0,0c0.1-0.1,0.1-0.1,0.2-0.1C41.6,34.7,41.7,34.8,41.7,35z"/>
			</g>
		</g>
		<g>
			<g>
				<g>
					<path class="st1" d="M9.2,37.2V17.7c0-0.4-0.3-0.7-0.7-0.7l0,0c-0.4,0-0.7,0.3-0.7,0.7v19.4H9.2z"/>
				</g>
			</g>
		</g>
		<g>
			<g>
				<g>
					<g>
						<path class="st3" d="M16.1,48c-0.2-0.5-0.5-0.7-0.7-1.1C15,46.2,15,45.4,15,44.5c0-0.9-0.2-3.9-0.4-5.2
							c-0.2-1.3-1.3-1.8-1.3-2.3c0-0.5-0.7-1.4-0.7-1.4s-0.2-0.8-0.7-1.2c-0.4-0.4-2.3-2-2.8-2.3c-0.5-0.3-1.2-0.2-1.6,0
							c-0.4,0.2-2,1.4-2.1,1.7C5.4,34.2,5,34.5,4.6,35c-0.4,0.5-0.7,2.3-0.7,2.3s-1,1.1-1.7,1.7c-0.7,0.6-1.7,1.8-1.9,3.3
							C0.1,43.6,0.1,46.2,0,48H16.1z"/>
					</g>
				</g>
				<g>
					<g>
						<path class="st12" d="M16.1,48c-0.2-0.5-0.5-0.7-0.7-1.1C15,46.2,15,45.4,15,44.5c0-0.6-0.1-1.8-0.2-3l-0.3,6.1l0.1,0.5H16.1z
							"/>
					</g>
				</g>
				<g>
					<g>
						<polygon class="st12" points="11.2,48 12.8,48 13,46.3 9.9,33.9 9.9,47.4 11.1,45.6 						"/>
					</g>
				</g>
			</g>
			<g>
				<g>
					<g>
						<path class="st12" d="M1.9,48c0.1-1.3-0.1-1.9,0.9-4.6c1.2-3.3,2.9-7.8,2.9-7.8l-2,2.5c0,0-1.5,2.3-2.1,3.4
							c-0.5,1.1-0.6,3-0.6,5c0,0.4,0,1-0.1,1.5H1.9z"/>
					</g>
				</g>
			</g>
			<g>
				<g>
					<g>
						<path class="st12" d="M5.8,48c0-0.2,0.3-5,0.3-5.2c0,0-0.8,2.7-1.4,5.2H5.8z"/>
					</g>
				</g>
			</g>
		</g>
		<g>
			<g>
				<g>
					<path class="st7" d="M18.4,21.2c-3-1.8-6.1,5-9.1,3.3c0-2.2,0-4.3,0-6.5C12.3,21.9,15.3,17.3,18.4,21.2L18.4,21.2z"/>
				</g>
			</g>
		</g>
		<g>
			<g>
				<g>
					<g>
						<path class="st4" d="M36.8,37.1c0,0,0.4,0.9,0.4,1.7s0,0.8,0,0.8s-1.6,0.2-2.2-0.5l0-0.4c0,0-1,0.3-1.8-0.3
							c-0.8-0.6-0.7-1.1-0.7-1.3c0-0.2,0.5-0.8,1-0.8C34,36.3,36.8,37.1,36.8,37.1z"/>
					</g>
				</g>
			</g>
			<g>
				<g>
					<g>
						<path class="st4" d="M23.4,36.6c0,0-0.2,0-0.5-0.2c-0.4-0.1-1.1,0.2-1,0.8c0.1,0.6,0.8,1.2,1.3,1.3c0.5,0.1,1,0.1,1,0.1
							l-0.1,0.5c0,0,1.2,0.4,1.6,0.3c0.4-0.1,0.8-0.6,0.7-0.9c0-0.3-0.4-1.2-0.4-1.2C26,37.2,23.4,36.6,23.4,36.6z"/>
					</g>
				</g>
			</g>
			<g>
				<g>
					<g>
						<g>
							<path class="st0" d="M22.9,6.8c0,0-0.3,0.1-0.4-0.4c-0.1-0.4-0.3-0.3-0.2-0.6c0,0-0.2,0-0.1-0.2l0-0.3c0,0-0.2,0.1-0.4,0
								c-0.2-0.1-0.2-0.2-0.2-0.3c0-0.1,0.3-0.8,0.3-0.8s-0.3-0.2-0.4-0.5s-0.2-1-0.2-1.3s0.6-0.9,0.8-1s1.3-0.3,1.8-0.2
								S26.1,3,26.1,3l0.6,1.4L22.9,6.8z"/>
						</g>
					</g>
				</g>
				<g>
					<g>
						<g>
							<path class="st1" d="M21.2,2.7c0,0,0.1-0.4,0.4-0.7c0.3-0.2,0.4-0.2,0.4,0c0,0.2,0.1,0.7,0.4,0.8s0.5,0.6,0.5,0.6l0.2-0.1
								c0,0-0.1-0.5,0.3-0.9c0.4-0.4,1,0.2,1.4,0.7s1.1,1,1.1,1L26.4,4c0,0,0-0.9-0.3-2c-0.3-1.1-1.1-1.8-2.1-2s-2.3,0.5-2.6,0.9
								S20.8,2,21.2,2.7z"/>
						</g>
					</g>
				</g>
				<g>
					<g>
						<g>
							<path class="st0" d="M35.2,9.7c0,0,0.1-0.1,0.4-0.4C36,9,36.1,8.9,36.3,9.1c0,0,0.3-0.2,0.5-0.2c0.3,0.1,0.3,0.4,0.3,0.4
								s0.4,0.1,0.3,0.5c0,0,0.2,0.3,0,0.4c-0.2,0.1-0.3-0.2-0.3-0.2s-0.3,0.1-0.4,0.4s-0.3,0.4-0.3,0.4L35.2,9.7z"/>
						</g>
					</g>
				</g>
				<g>
					<g>
						<g>
							<path class="st1" d="M29.9,5.3c0,0,0.8,0.6,1.6,1.5s1.2,0.8,1.8,1.2c0.6,0.4,2,1.5,2,1.5s0.9,0.4,1,0.9
								c0.1,0.4,0.1,0.4,0.1,0.4s-0.4,0.6-1.1,0.7c-0.7,0.1-2.1-0.5-2.6-0.8c-0.5-0.3-1.4-0.4-2-1C30,9,29.9,5.3,29.9,5.3z"/>
						</g>
					</g>
				</g>
				<g>
					<g>
						<g>
							<path class="st3" d="M20.5,10.2c0,0-0.6-0.3-0.7-0.5s0.6-2.2,1.7-1.9s1.2,0.4,1.2,0.4S21.9,10.1,20.5,10.2z"/>
						</g>
					</g>
				</g>
				<g>
					<g>
						<g>
							<path class="st0" d="M21.8,10.1c0,0-0.9-0.4-1.7-0.6c-0.7-0.3-1.3-0.9-1.5-1.1s-1-0.8-1-0.8s0.3-0.6,0.8-0.2
								C19,7.6,19,7.6,19,7.6S19,7.3,19,7c0-0.3-0.2-0.5-0.3-0.7c-0.1-0.2-0.6-0.5-0.6-0.5s0.5-0.5,0.8-0.1c0,0,0.8-0.1,1,0.1
								c0.3,0.2,0.3,0.4,0.3,0.4s0.5,0.1,0.4,0.8c0,0,0.6,0,0.6,0.6c0,0.6,0,0.6,0,0.6l1.2,0.4L21.8,10.1z"/>
						</g>
					</g>
				</g>
				<g>
					<g>
						<g>
							<path class="st1" d="M23,36.3c0,0,0.2,0.7,0.8,1.2c0.6,0.5,2.1,0.4,2.4,0.3c0,0,0-1.4-0.2-2.5c-0.2-1-0.3-4.3-0.2-5.1
								s0.1-0.8-0.1-1.3c-0.2-0.5,0.1-1,0.3-1.2s2-3.4,2-3.4s0.8,1.6,0.8,2.6c0.1,0.9,0.1,1.9,0.3,2.3c0.3,0.4,0.8,1,1.1,1.5
								c0.2,0.5,1.4,3.7,2.2,4.8c0.7,1.2,0.9,1.5,0.9,1.5s0.7,0.6,1.5,0.6c0.8,0,2-0.4,2-0.4s-0.4-1.6-0.7-2.4
								c-0.2-0.8-0.6-1.4-0.9-2.1s-1.7-3.7-2-3.9c-0.3-0.2-0.2-0.3-0.5-0.8c-0.3-0.5-0.4-1.8-0.4-2.8c0.1-1,0.7-4.9,0.2-6.6
								s-0.5-1.7-0.5-1.7l-6.1,0.5c0,0-1.3,1.6-1.5,2.2c-0.2,0.5-0.3,1.4-0.8,2.5s-0.7,1.1-0.8,2c-0.1,0.9-0.4,2.7-0.6,3.5
								c-0.3,0.8,0.2,2.1,0.3,2.8c0.1,0.7,0.4,4.6,0.3,5C23,35.7,23,36.3,23,36.3z"/>
						</g>
					</g>
				</g>
				<g>
					<g>
						<g>
							<path class="st4" d="M22.7,6.8c0,0,0.6,3.3,1,4.3c0.4,0.9,1.1,2.1,1.1,2.1s-0.6,5.8-0.3,7.6c0,0,5.2-0.4,6.8-1
								c1.7-0.6,2.1-0.9,2.1-0.9s-1.3-2.7-1.7-4.7c-0.4-2-0.9-4-0.8-4.5c0.1-0.5,0.9-2.8-0.3-4S28.8,5.1,28,4.8
								c-0.5-0.2-0.8-0.5-1-0.7c-0.2-0.2-0.4-0.3-0.6-0.2c-0.3,0.1-0.8,0.2-1.4,0.6C23.9,5.2,22.7,6.8,22.7,6.8z"/>
						</g>
					</g>
				</g>
				<g>
					<g>
						<g>
							<path class="st1" d="M27.1,9.5c-0.3,0.4-1.6,0.9-2.4,1c-0.8,0.1-3.2,0.1-3.8,0.1c-0.6-0.1-1-0.6-1.1-0.8c0,0,0.5,0.4,1,0.3
								c0.1,0,0.2-0.1,0.3-0.1c0.3-0.3,0.6-0.8,0.5-1.3c0-0.1-0.1-0.2-0.1-0.3c0-0.1-0.1-0.2-0.1-0.2c0-0.1,0-0.2,0-0.5
								c0.5,0,1.3-0.1,1.6-0.2c0.5-0.1,1.2-0.3,1.2-0.4c0,0,0-0.4,0.8-0.6c0.8-0.3,1.8,0.7,2,1.1C27.2,7.9,27.4,9,27.1,9.5z"/>
						</g>
					</g>
				</g>
			</g>
		</g>
		<g>
			<path class="st8" d="M10.3,35.6c0,0-0.1,0-0.1,0c-0.2-0.1-0.3-0.3-0.2-0.4c0,0,0.3-1.1,0.1-3.5c-0.1-1.2-0.8-1.8-1.5-1.8
				c-0.3,0-0.7,0.2-0.8,0.7c0,0.2-0.2,0.3-0.4,0.3c-0.2,0-0.3-0.2-0.3-0.4c0-0.8,0.6-1.3,1.5-1.3c0.9,0,2.1,0.7,2.2,2.4
				c0.2,2.5-0.2,3.7-0.2,3.7C10.6,35.5,10.4,35.6,10.3,35.6z"/>
		</g>
	</g>
	<g>
		<g>
			<path class="st8" d="M41.4,35.3c-0.1,0-0.2,0-0.2-0.1c-0.1-0.1-0.1-0.3,0-0.4c0.3-0.3,0.5-0.7,0.5-0.8c-0.1-0.1-0.2-0.3-0.1-0.4
				c0.1-0.1,0.3-0.2,0.4-0.1c0.2,0.1,0.3,0.3,0.3,0.4c0.1,0.5-0.5,1.1-0.7,1.3C41.6,35.3,41.5,35.3,41.4,35.3z"/>
		</g>
	</g>
	<g>
		<g>
			<path class="st8" d="M40.9,37.8c-0.1,0-0.2,0-0.2-0.1c0,0-0.2-0.3-0.6-1.6c-0.2-0.4-0.2-0.9,0-1.4c0.1-0.2,0.2-0.2,0.4-0.2
				c0.2,0.1,0.2,0.2,0.2,0.4c-0.1,0.2-0.1,0.6,0,1c0.4,1.2,0.5,1.4,0.5,1.5c0.1,0.1,0,0.3-0.1,0.4C41,37.7,40.9,37.8,40.9,37.8z"/>
		</g>
	</g>
</g>
</svg>
