<?xml version="1.0" encoding="utf-8"?>
<!-- Generator: Adobe Illustrator 18.0.0, SVG Export Plug-In . SVG Version: 6.00 Build 0)  -->
<!DOCTYPE svg PUBLIC "-//W3C//DTD SVG 1.1//EN" "http://www.w3.org/Graphics/SVG/1.1/DTD/svg11.dtd">
<svg version="1.1" id="Layer_1" xmlns="http://www.w3.org/2000/svg" xmlns:xlink="http://www.w3.org/1999/xlink" x="0px" y="0px"
	 viewBox="0 0 48 48" enable-background="new 0 0 48 48" xml:space="preserve">
<g>
	<g>
		<g>
			<g>
				<g>
					<path fill="#F3F3F3" d="M25,41.1v-4.8h-2v4.8c-1.5,0.4-2.5,1.8-2.5,3.4c0,1.9,1.6,3.5,3.5,3.5c1.9,0,3.5-1.6,3.5-3.5
						C27.5,42.9,26.5,41.5,25,41.1z M24,46c-0.8,0-1.5-0.7-1.5-1.5c0-0.8,0.7-1.5,1.5-1.5c0.9,0,1.5,0.7,1.5,1.5
						C25.5,45.3,24.8,46,24,46z"/>
				</g>
			</g>
		</g>
		<g>
			<path fill="#415A6B" d="M45.3,5.5H2.7C1.2,5.5,0,4.2,0,2.7l0,0C0,1.2,1.2,0,2.7,0h42.5C46.8,0,48,1.2,48,2.7l0,0
				C48,4.2,46.8,5.5,45.3,5.5z"/>
		</g>
		<path fill="#F3F3F3" d="M2.6,5.5v29c0,1.7,1.3,3,3,3h36.5c1.7,0,3-1.3,3-3v-29H2.6z"/>
		<g>
			<g>
				<polygon fill="#CED6E0" points="40.3,11.5 38.7,18.6 36.8,16.7 25.8,27.7 18.5,20.4 7.5,31.4 7.5,28.1 18.5,17.1 25.8,24.4 
					35.1,15.1 33.2,13.1 				"/>
			</g>
			<g>
				<g>
					<g>
						<circle fill="#F3705A" cx="18.8" cy="18.7" r="3.5"/>
					</g>
					<g>
						<circle fill="#F05540" cx="18.8" cy="18.7" r="1.8"/>
					</g>
				</g>
				<g>
					<g>
						<circle fill="#FFD15C" cx="25.6" cy="26" r="3.5"/>
					</g>
					<g>
						<circle fill="#F7B64C" cx="25.6" cy="26" r="1.8"/>
					</g>
				</g>
			</g>
		</g>
		<g>
			<g>
				<g>
					<g>
						<g>
							<circle fill="#8AD7F8" cx="11.1" cy="36.9" r="11.1"/>
						</g>
					</g>
					<g>
						<g>
							<circle fill="#FFFFFF" cx="11.1" cy="36.9" r="8.6"/>
						</g>
					</g>
					<g>
						<path fill="#66C6B9" d="M11.1,37.4H7.3c-0.3,0-0.5-0.2-0.5-0.5c0-0.3,0.2-0.5,0.5-0.5h3.8c0.3,0,0.5,0.2,0.5,0.5
							C11.6,37.2,11.4,37.4,11.1,37.4z"/>
					</g>
					<g>
						<g>
							<g>
								<path fill="#F3705A" d="M10.7,37.3c-0.2-0.2-0.2-0.5,0-0.7l3.8-3.8c0.2-0.2,0.5-0.2,0.7,0s0.2,0.5,0,0.7l-3.8,3.8
									C11.2,37.5,10.9,37.5,10.7,37.3z"/>
							</g>
						</g>
						<g>
							<g>
								<circle fill="#E8EAE9" cx="11.1" cy="29.5" r="0.5"/>
							</g>
						</g>
						<g>
							<g>
								<circle fill="#E8EAE9" cx="5.8" cy="31.7" r="0.5"/>
							</g>
						</g>
						<g>
							<g>
								<circle fill="#E8EAE9" cx="3.6" cy="36.9" r="0.5"/>
							</g>
						</g>
						<g>
							<g>
								<circle fill="#E8EAE9" cx="5.8" cy="42.2" r="0.5"/>
							</g>
						</g>
						<g>
							<g>
								<circle fill="#E8EAE9" cx="11.1" cy="44.4" r="0.5"/>
							</g>
						</g>
						<g>
							<g>
								<circle fill="#E8EAE9" cx="16.3" cy="42.2" r="0.5"/>
							</g>
						</g>
						<g>
							<g>
								<circle fill="#E8EAE9" cx="18.5" cy="36.9" r="0.5"/>
							</g>
						</g>
						<g>
							<g>
								<circle fill="#E8EAE9" cx="16.3" cy="31.7" r="0.5"/>
							</g>
						</g>
					</g>
					<g>
						<g>
							<circle fill="#FFD15C" cx="11.1" cy="36.9" r="1.7"/>
						</g>
					</g>
					<g>
						<g>
							<circle fill="#F7B64C" cx="11.1" cy="36.9" r="0.9"/>
						</g>
					</g>
				</g>
			</g>
		</g>
	</g>
</g>
</svg>
