<?xml version="1.0" encoding="utf-8"?>
<!-- Generator: Adobe Illustrator 18.0.0, SVG Export Plug-In . SVG Version: 6.00 Build 0)  -->
<!DOCTYPE svg PUBLIC "-//W3C//DTD SVG 1.1//EN" "http://www.w3.org/Graphics/SVG/1.1/DTD/svg11.dtd">
<svg version="1.1" id="Layer_1" xmlns="http://www.w3.org/2000/svg" xmlns:xlink="http://www.w3.org/1999/xlink" x="0px" y="0px"
	 viewBox="0 0 48 48" enable-background="new 0 0 48 48" xml:space="preserve">
<g>
	<path fill="#425A6B" d="M16.5,46.4L16.4,47l0.2,0.2l0.1-0.1c0,0-0.2,0.2,0,0.4c0.1,0.3,1.2,0.4,1.6,0.4c0.4,0,2,0.2,1.6-0.4
		c-0.4-0.5-0.4-0.5-0.4-0.5L16.5,46.4z"/>
	<path fill="#344A5E" d="M16.5,46.4c0,0,0.2,0.1,0.1,0.4c-0.1,0.3,0,0.5,0.2,0.6c0.1,0.1,1.2,0.2,1.9,0.2c0.7,0,1.2,0,1.2,0
		s0-0.5-0.1-0.7c-0.1-0.3-0.5-1.2-0.5-1.2l-1-0.8l-1.8,0.9C16.6,45.8,16.5,46.2,16.5,46.4z"/>
	<path fill="#425A6B" d="M16.6,45.8c0,0,0.2,0.2,0.9,0.1c0.7-0.1,1.6-0.3,1.8-0.2c0,0,0.7-1.2,0.5-2.2c-0.2-0.9-0.2-3.8-0.1-4.6
		c0.2-0.8,2.1-7.5,2.1-7.5l-3.6-9.5c0,0-0.6,2.3-0.4,4.8c0.1,2.5-0.5,6.4-0.6,7.1c-0.1,0.7-0.6,5-0.6,6.1
		C16.5,41,16.2,44.4,16.6,45.8z"/>
	<path fill="#344A5E" d="M31.3,47.6l0.4-0.2c0,0,0.5-0.8-0.4-0.8c-0.9,0-2.2-1.2-2.2-1.2L25,45.6l-0.1,0.9c0,0-0.1,0.1-0.1,0.2
		C28.1,46.5,27.7,47.9,31.3,47.6z"/>
	<path fill="#425A6B" d="M22.5,31.5c0,0,1.2,5.9,1.3,6.7c0.1,0.8,1.1,8.3,1.1,8.3s3.7,0.2,4.4-0.9c0,0-1.1-1.8-1.3-2.5
		c-0.2-0.6-0.6-6.7-0.6-8c0-1.2,0.1-4.9,0.1-4.9L22.5,31.5z"/>
	<polygon fill="#CED6E0" points="23.4,8.7 21.1,8.6 23.8,14.1 24.9,13.1 	"/>
	<path fill="#F05640" d="M22.6,9.6c0,0-0.4,0.8,0.1,3.1c0.6,2.3,1.6,2.3,1.6,2.3l0.6-1.7c0,0-1.2-2.6-1.4-3.8
		C23.5,9.4,22.8,8.9,22.6,9.6z"/>
	<path fill="#CED6E0" d="M22.9,7.8c0,0,0.1-0.6-0.1-0.7C22.5,7.1,22.7,7.6,22.9,7.8z"/>
	<path fill="#E8EAE8" d="M25.9,21.4c0,0,1.7,0,1.8,1.1c0,0,0.4-0.6,0.4-1c0-0.4,0.1-1.2,0.2-1.9c0.1-0.8,0.1-1.6-0.1-2.5
		c-0.2-0.9-0.6-1.7-0.9-2.5c-0.3-0.8-0.8-2.8-1.3-3.6c-0.4-0.8-1.9-2-2.7-2.3c0,0,1.9,2.2,1.6,3.2c-0.3,1.1,0.8,6.7,1.3,6.6l0.2,0
		C26.3,18.4,26.6,20.2,25.9,21.4z"/>
	<path fill="#344A5E" d="M23.3,8.6c0,0,0.8,0.9,1.1,1.1c0.3,0.2,1.1,1.1,1.3,2c0.2,0.9,0.1,2,0,2.5c0,0,0,2.3,0.5,3.5
		c0.5,1.1,1.8,11.2,1.9,13.8c0,0-3.3-0.2-4.4,0.3c-1.1,0.5-4,0.8-4,0.8s-1.2-3.9-1.4-6.1c-0.2-2.2-0.4-3.9,0.3-5.9
		c0.6-2,1.6-8.1,1.6-8.1s0.3-1.3-0.6-3c-0.8-1.7-0.7-1.7-0.7-1.7s0.7-0.5,0.8-1c0.1-0.4,0.2,1,0.2,1l2.7,4.2l1.4,1.4l0.3,0.6
		l-0.1-0.6l0.6-1.9L23.3,8.6"/>
	<path fill="#344A5E" d="M25.9,22l-1.1,1.5l-1.5-0.8c0,0-1.2-0.3-1.8-0.8c-0.5-0.3-1.9-1.5-2.7-2.4c0.6-2.5,1.3-7,1.3-7s0,0,0,0
		c0,0.3,0.1,1.3,0.1,2.2c0,1,0.9,2.9,1.5,3.6c0.6,0.7,2.2,2.5,2.2,2.5l1,0.7L25.9,22z"/>
	<path fill="#FFD15C" d="M19.8,5.4l0,0.7l-0.1,1L23,8.8c0,0-0.2-1.3-0.2-1.7s0-0.7,0-0.7s0.6-0.5,0.8-2.1c0.3-1.5,0.3-1.5,0.3-1.5
		s0.2-1.1-0.5-1.4C22.8,1,22.7,1,22.7,1S20.3,0.3,20,1.2c-0.3,0.9-0.4,2.6-0.4,2.6L19.8,5.4z"/>
	<path fill="#F26F5A" d="M22.1,8.9c0,0,0.4,0.6,0.6,0.7c0,0,0.7-0.2,0.8-0.2l-0.3-1l-0.7-0.3L22.1,8.9z"/>
	<path fill="#F5B54C" d="M21.7,7.3c0.7,0,1.1-0.9,1.1-0.9c-0.4,0.6-1,0.5-1,0.5c-1.2-0.2-1.9-1.5-1.9-1.5l-0.1,0.1l0,0.6l-0.1,0.7
		C20.2,7,20.9,7.3,21.7,7.3z"/>
	<path fill="#2A4051" d="M19.8,4.3L20,4.3c0,0-0.1-0.5,0.1-0.9c0.2-0.4,0.3-0.8,0.3-1.2c0-0.4,0.2-0.6,0.6-0.6c0.5,0,1,0.3,1.6,0.2
		c0.5-0.1,0.8,0.1,1,0.3c0.2,0.3,0.1,2.5,0,2.5c0,0,0.4-0.3,0.5-0.8c0.1-0.4,0.5-1.7-0.2-2.7C23.2,0,21.8,0,21.3,0
		c-0.5,0-1.5,0.6-1.9,1.3C19,2,19,3.4,19.2,4c0.2,0.6,0.6,1.8,0.5,2.1C19.8,6.1,20,5,19.8,4.3z"/>
	<path fill="#FFD15C" d="M20.1,4.4c0.1,0.5-0.1,0.9-0.3,0.9c-0.2,0-0.5-0.4-0.5-0.9c-0.1-0.5,0.1-0.9,0.3-0.9
		C19.8,3.5,20,3.9,20.1,4.4z"/>
	<path fill="#E8EAE8" d="M19.7,6.4c0,0,0.9,0.3,1.2,0.6c0.3,0.2,1.5,1.1,1.5,1.1l-0.4,1.1l-2.6-1.6C19.5,7.6,19.6,6.8,19.7,6.4z"/>
	<path fill="#425A6B" d="M19.6,6.9l-0.6,0.8c0,0,2.1,2.3,2.5,3.3s1.9,2.3,2.3,2.4c0,0-0.7-1.9-1.4-3.1S19.6,6.9,19.6,6.9z"/>
	<path fill="#425A6B" d="M23.3,8.6c0,0,0.5,1.7,0.6,2.4c0.1,0.7,0.2,2.4,0.2,2.4s1,0.1,1.1-0.7c0.1-0.7-0.1-1.3-0.4-2
		C24.5,10,23.3,8.6,23.3,8.6z"/>
	<path fill="#FFD15C" d="M24.9,21.4l0.7,0.5c0,0,0.1,0.2-0.1,0.5c-0.1,0.3-0.5,0.7-0.7,0.9c-0.2,0.2-0.3,0.2-0.3,0.2
		c-0.2,0.2,0.1,0.6,0.4,0.4c-0.2,0.3,0.2,0.6,0.4,0.3c-0.2,0.3,0.1,0.6,0.3,0.5c-0.1,0.1,0,0.2,0.1,0.2c0.1,0,0.2,0,0.3,0l0.5-0.2
		c0.1,0,0.2-0.1,0.2-0.2l0.6-0.8c0,0,0.2-0.8,0.3-1.3c0.1-0.5,0.1-0.8,0.1-0.8L27,21.2c0,0,0,0-0.1,0c-0.5,0.1-1,0.1-1.5,0.1
		C25.3,21.3,25.1,21.3,24.9,21.4z"/>
	<path fill="#E8EAE8" d="M28.4,18.8c0,0.3,0,0.5-0.1,0.8c-0.1,0.8-0.2,1.5-0.2,1.9c0,0.4-0.4,1-0.4,1c-0.1-1.1-1.8-1.1-1.8-1.1
		c0.7-1.2,0.5-2.9,0.5-2.9C27.1,18.3,27.8,18.4,28.4,18.8z"/>
	<path fill="#F5B54C" d="M25.6,24.7C25.6,24.7,25.7,24.7,25.6,24.7c0.1-0.1,0.2-0.1,0.2-0.1c0.1,0,0.1-0.1,0.2-0.1
		c0,0,0.1,0,0.1-0.1c0,0,0,0,0.1,0c0,0,0,0,0.1,0c0.1-0.1,0.3-0.3,0.4-0.4c0.1-0.1,0.1-0.1,0.1-0.1c0,0,0.1,0,0.1,0s0,0,0,0.1
		c0,0-0.1,0.1-0.1,0.1c-0.1,0.1-0.2,0.3-0.4,0.4c0,0,0,0-0.1,0.1c0,0,0,0-0.1,0c0,0-0.1,0-0.1,0.1c-0.1,0-0.2,0.1-0.2,0.1
		C25.7,24.7,25.6,24.7,25.6,24.7z"/>
	<path fill="#F5B54C" d="M25.3,24.2c0,0,0.1,0,0.2-0.1c0,0,0.1,0,0.1,0c0,0,0.1,0,0.1-0.1c0,0,0,0,0,0c0,0,0,0,0,0
		c0,0,0.1-0.1,0.1-0.1c0.1-0.1,0.3-0.2,0.4-0.3c0.1,0,0.1-0.1,0.1-0.1c0,0,0.1,0,0.1,0s0,0,0,0c0,0-0.1,0.1-0.1,0.1
		c-0.1,0.1-0.2,0.2-0.4,0.4c0,0-0.1,0.1-0.1,0.1c0,0,0,0-0.1,0c0,0,0,0-0.1,0c0,0-0.1,0-0.1,0c0,0-0.1,0-0.1,0
		C25.4,24.2,25.3,24.2,25.3,24.2z"/>
	<path fill="#F5B54C" d="M24.9,23.9c0,0,0.1,0,0.1-0.1c0,0,0.1,0,0.1-0.1c0.1,0,0.2-0.1,0.2-0.1l0,0c0.1-0.1,0.2-0.2,0.3-0.3
		c0.1-0.1,0.1-0.1,0.2-0.2c0,0,0.1,0,0.1-0.1c0,0,0.1,0,0.1-0.1c0,0,0,0.1-0.1,0.1c0,0,0,0.1-0.1,0.1c0,0.1-0.1,0.1-0.1,0.2
		c-0.1,0.1-0.2,0.2-0.3,0.3l0,0l0,0c-0.1,0-0.2,0.1-0.3,0.1c0,0-0.1,0-0.1,0.1C25,23.9,24.9,23.9,24.9,23.9z"/>
	<path fill="#E8EAE8" d="M25.5,22.4c-0.1,0.3-0.5,0.7-0.7,0.9c-0.1,0-0.1,0.1-0.1,0.1l-1.4-0.7c0,0-1.2-0.3-1.8-0.8
		c-0.5-0.3-1.9-1.5-2.7-2.4c-0.3-0.3-0.6-0.6-0.7-0.7c-0.3-0.5-1.5-3.7-1.8-5.2c-0.3-1.6-0.1-3,0.4-3.9c0.4-0.8,2.1-1.8,2.2-1.9
		c0,0,0,0.2,0.7,1.7c0.6,1.3,0.6,2.3,0.6,2.8v0c0,0,0,0.1,0,0.1c0,0,0,0,0,0.1c0,0.3,0.1,1.3,0.1,2.2c0,1,0.9,2.9,1.5,3.6
		c0.6,0.7,2.2,2.5,2.2,2.5l1,0.7l0.7,0.5C25.5,21.9,25.6,22.1,25.5,22.4z"/>
	<path fill="#E8EAE8" d="M22.8,7.2c0,0,0.4,0.2-0.2,1c0,0,0.8,0.5,0.8,0.8C23.4,8.9,23.2,7.3,22.8,7.2z"/>
	<path fill="#425A6B" d="M24.8,46.7v0.7l2.2,0.2l0.1-0.5c0,0,0.9,0.2,1.3,0.4c0.4,0.2,2.3,0.3,3,0.2c0.1,0,0.3-0.1,0.3-0.3
		c0,0-2,0.3-3.2-0.1C27.3,46.9,26.2,46.5,24.8,46.7z"/>
</g>
</svg>
