<?xml version="1.0" encoding="utf-8"?>
<!-- Generator: Adobe Illustrator 18.0.0, SVG Export Plug-In . SVG Version: 6.00 Build 0)  -->
<!DOCTYPE svg PUBLIC "-//W3C//DTD SVG 1.1//EN" "http://www.w3.org/Graphics/SVG/1.1/DTD/svg11.dtd">
<svg version="1.1" id="Layer_1" xmlns="http://www.w3.org/2000/svg" xmlns:xlink="http://www.w3.org/1999/xlink" x="0px" y="0px"
	 viewBox="0 0 48 48" enable-background="new 0 0 48 48" xml:space="preserve">
<g>
	<g>
		<g>
			<g>
				<rect x="33.6" y="17.1" fill="#FFD15C" width="14.4" height="30.9"/>
			</g>
			<g>
				<rect x="33.6" y="19.8" fill="#F7B64C" width="14.4" height="0.8"/>
			</g>
			<g>
				<rect x="33.6" y="23.3" fill="#F7B64C" width="14.4" height="0.8"/>
			</g>
			<g>
				<rect x="33.6" y="26.8" fill="#F7B64C" width="14.4" height="0.8"/>
			</g>
			<g>
				<rect x="33.6" y="30.3" fill="#F7B64C" width="14.4" height="0.8"/>
			</g>
			<g>
				<rect x="33.6" y="33.9" fill="#F7B64C" width="14.4" height="0.8"/>
			</g>
			<g>
				<rect x="33.6" y="37.4" fill="#F7B64C" width="14.4" height="0.8"/>
			</g>
			<g>
				<rect x="33.6" y="40.9" fill="#F7B64C" width="14.4" height="0.8"/>
			</g>
			<g>
				<rect x="33.6" y="44.5" fill="#F7B64C" width="14.4" height="0.8"/>
			</g>
		</g>
		<g>
			<g>
				<rect x="16.8" y="27.7" fill="#FFD15C" width="14.4" height="20.3"/>
			</g>
			<g>
				<rect x="16.8" y="30.3" fill="#F7B64C" width="14.4" height="0.8"/>
			</g>
			<g>
				<rect x="16.8" y="33.9" fill="#F7B64C" width="14.4" height="0.8"/>
			</g>
			<g>
				<rect x="16.8" y="37.4" fill="#F7B64C" width="14.4" height="0.8"/>
			</g>
			<g>
				<rect x="16.8" y="40.9" fill="#F7B64C" width="14.4" height="0.8"/>
			</g>
			<g>
				<rect x="16.8" y="44.5" fill="#F7B64C" width="14.4" height="0.8"/>
			</g>
		</g>
		<g>
			<g>
				<rect x="0" y="34.7" fill="#FFD15C" width="14.4" height="13.3"/>
			</g>
			<g>
				<rect x="0" y="37.4" fill="#F7B64C" width="14.4" height="0.8"/>
			</g>
			<g>
				<rect x="0" y="40.9" fill="#F7B64C" width="14.4" height="0.8"/>
			</g>
			<g>
				<rect x="0" y="44.5" fill="#F7B64C" width="14.4" height="0.8"/>
			</g>
		</g>
		<g>
			<polygon fill="#F3705A" points="22.1,10.9 20.6,7.9 2.5,17.2 0,12.2 18.1,3 16.6,0 24.8,2.7 			"/>
		</g>
		<g>
			<path fill="#F7B64C" d="M23.4,25.4v-1.1c-1.2-0.2-2.4-0.8-3.4-1.7l1.4-1.6c0.8,0.7,1.4,1.1,2.1,1.3v-2.2c-1-0.3-1.8-0.6-2.2-1.1
				c-0.5-0.4-0.7-1.1-0.7-1.9c0-0.8,0.3-1.5,0.8-2.1c0.5-0.5,1.3-0.9,2.1-1v-0.7h1.5v0.7c1,0.1,1.9,0.5,2.9,1.2l-1.2,1.7
				c-0.6-0.4-1.2-0.7-1.7-0.9v2.1c1.1,0.3,1.8,0.6,2.3,1.1s0.8,1.1,0.8,1.9c0,0.8-0.3,1.5-0.8,2.1s-1.3,0.9-2.2,1v1H23.4z
				 M23.4,16.1c-0.4,0.1-0.6,0.4-0.6,0.8c0,0.4,0.2,0.7,0.6,0.9V16.1z M25.7,21.4c0-0.2-0.1-0.4-0.2-0.5c-0.1-0.1-0.3-0.3-0.6-0.4
				v1.8C25.4,22.2,25.7,21.9,25.7,21.4z"/>
		</g>
		<g>
			<path fill="#F7B64C" d="M6.7,32.7v-0.9c-1-0.2-2-0.6-2.9-1.4L4.9,29c0.6,0.6,1.2,0.9,1.7,1.1v-1.8c-0.9-0.2-1.5-0.5-1.9-0.9
				c-0.4-0.4-0.6-0.9-0.6-1.6c0-0.7,0.2-1.3,0.7-1.7c0.5-0.5,1.1-0.7,1.8-0.8v-0.6H8v0.6c0.8,0.1,1.6,0.5,2.5,1l-1,1.5
				c-0.5-0.4-1-0.6-1.4-0.7v1.8c0.9,0.2,1.5,0.5,2,0.9s0.6,0.9,0.6,1.6c0,0.7-0.2,1.3-0.7,1.8S8.8,31.8,8,31.9v0.9H6.7z M6.7,24.9
				c-0.4,0.1-0.5,0.4-0.5,0.7c0,0.3,0.2,0.6,0.5,0.8V24.9z M8.6,29.4c0-0.2,0-0.3-0.1-0.4c-0.1-0.1-0.3-0.2-0.5-0.3v1.5
				C8.4,30,8.6,29.8,8.6,29.4z"/>
		</g>
		<g>
			<path fill="#F7B64C" d="M40.2,14.9v-1.2c-1.4-0.2-2.6-0.8-3.7-1.8l1.5-1.8c0.8,0.7,1.6,1.2,2.3,1.4V9.1C39,8.9,38.2,8.5,37.7,8
				c-0.5-0.5-0.8-1.2-0.8-2.1s0.3-1.7,0.9-2.3c0.6-0.6,1.4-0.9,2.3-1.1V1.8h1.7v0.8C42.9,2.8,44,3.2,45,3.9l-1.3,1.9
				c-0.7-0.5-1.3-0.8-1.9-1v2.3c1.2,0.3,2,0.7,2.5,1.2c0.5,0.5,0.8,1.2,0.8,2.1s-0.3,1.7-0.9,2.3s-1.4,1-2.5,1.1v1.1H40.2z
				 M40.2,4.8c-0.5,0.2-0.7,0.5-0.7,0.9c0,0.4,0.2,0.7,0.7,1V4.8z M42.7,10.6c0-0.2-0.1-0.4-0.2-0.6c-0.1-0.2-0.3-0.3-0.6-0.4v2
				C42.4,11.4,42.7,11.1,42.7,10.6z"/>
		</g>
	</g>
</g>
</svg>
