<?xml version="1.0" encoding="utf-8"?>
<!-- Generator: Adobe Illustrator 18.0.0, SVG Export Plug-In . SVG Version: 6.00 Build 0)  -->
<!DOCTYPE svg PUBLIC "-//W3C//DTD SVG 1.1//EN" "http://www.w3.org/Graphics/SVG/1.1/DTD/svg11.dtd">
<svg version="1.1" id="Layer_1" xmlns="http://www.w3.org/2000/svg" xmlns:xlink="http://www.w3.org/1999/xlink" x="0px" y="0px"
	 viewBox="0 0 48 48" enable-background="new 0 0 48 48" xml:space="preserve">
<g>
	<g>
		<g>
			<g>
				<g>
					
						<rect x="29" y="10.4" transform="matrix(-0.6774 0.7356 -0.7356 -0.6774 58.6582 -2.9656)" fill="#344A5E" width="2" height="2"/>
				</g>
				<g>
					<path fill="#415A6B" d="M33.2,10l-2-1.9C31,8,30.9,8,30.8,8.1l-1.1,1.2c-0.1,0.1-0.1,0.3,0,0.4l2,1.9c0.1,0.1,0.3,0.1,0.4,0
						l1.1-1.2C33.3,10.2,33.3,10.1,33.2,10z"/>
				</g>
			</g>
			<g>
				<g>
					<g>
						<rect x="16.4" y="5.1" fill="#344A5E" width="3.5" height="2.2"/>
					</g>
					<g>
						<path fill="#415A6B" d="M20.6,0h-4.9c-0.2,0-0.4,0.2-0.4,0.4v4.2c0,0.2,0.2,0.4,0.4,0.4h4.9c0.2,0,0.4-0.2,0.4-0.4V0.4
							C21,0.2,20.8,0,20.6,0z"/>
					</g>
				</g>
				<g>
					<circle fill="#F3705A" cx="18.1" cy="24.5" r="18.1"/>
				</g>
				<g>
					<circle fill="#FFFFFF" cx="18.1" cy="24.5" r="14.3"/>
				</g>
				<g>
					<path fill="#FFD15C" d="M17.3,32.8v-1.5c-1.7-0.3-3.3-1-4.7-2.3l1.9-2.3c1,0.9,2,1.5,2.8,1.8v-3c-1.4-0.4-2.4-0.8-3.1-1.5
						c-0.7-0.6-1-1.5-1-2.6c0-1.1,0.4-2.1,1.1-2.8c0.8-0.7,1.7-1.2,3-1.3v-1h2.1v1c1.3,0.2,2.7,0.7,4,1.7l-1.7,2.4
						c-0.8-0.6-1.6-1-2.4-1.2v2.9c1.5,0.4,2.5,0.9,3.2,1.5c0.7,0.6,1,1.5,1,2.7c0,1.2-0.4,2.1-1.2,2.9c-0.8,0.8-1.8,1.2-3.1,1.4v1.4
						H17.3z M17.3,20c-0.6,0.2-0.9,0.6-0.9,1.1c0,0.5,0.3,0.9,0.9,1.2V20z M20.5,27.3c0-0.3-0.1-0.5-0.2-0.7
						c-0.1-0.2-0.4-0.4-0.8-0.5v2.5C20.1,28.3,20.5,27.9,20.5,27.3z"/>
				</g>
				<g>
					<circle fill="#E8EAE9" cx="18.1" cy="12.4" r="0.8"/>
				</g>
				<g>
					<circle fill="#E8EAE9" cx="9.6" cy="15.9" r="0.8"/>
				</g>
				<g>
					<circle fill="#E8EAE9" cx="6.1" cy="24.5" r="0.8"/>
				</g>
				<g>
					<circle fill="#E8EAE9" cx="9.6" cy="33" r="0.8"/>
				</g>
				<g>
					<circle fill="#E8EAE9" cx="18.1" cy="36.5" r="0.8"/>
				</g>
				<g>
					<circle fill="#E8EAE9" cx="26.7" cy="33" r="0.8"/>
				</g>
				<g>
					<circle fill="#E8EAE9" cx="30.2" cy="24.5" r="0.8"/>
				</g>
				<g>
					<circle fill="#E8EAE9" cx="26.7" cy="15.9" r="0.8"/>
				</g>
			</g>
		</g>
		<g>
			<g>
				<path fill="#415A6B" d="M27.4,18.2H46c1.1,0,2,0.9,2,2V46c0,1.1-0.9,2-2,2H27.4c-1.1,0-2-0.9-2-2V20.2
					C25.4,19.1,26.3,18.2,27.4,18.2z"/>
				<g>
					<rect x="28.4" y="21.2" fill="#8AD7F8" width="16.6" height="5.9"/>
				</g>
			</g>
			<g>
				<g>
					<path fill="#FFFFFF" d="M32.2,40.6h-3.4c-0.3,0-0.5,0.2-0.5,0.5v3.4c0,0.3,0.2,0.5,0.5,0.5h3.4c0.3,0,0.5-0.2,0.5-0.5v-3.4
						C32.7,40.9,32.5,40.6,32.2,40.6z"/>
					<path fill="#FFFFFF" d="M38.4,40.6H35c-0.3,0-0.5,0.2-0.5,0.5v3.4c0,0.3,0.2,0.5,0.5,0.5h3.4c0.3,0,0.5-0.2,0.5-0.5v-3.4
						C38.9,40.9,38.6,40.6,38.4,40.6z"/>
				</g>
				<g>
					<path fill="#FFFFFF" d="M32.2,34.9h-3.4c-0.3,0-0.5,0.2-0.5,0.5v3.4c0,0.3,0.2,0.5,0.5,0.5h3.4c0.3,0,0.5-0.2,0.5-0.5v-3.4
						C32.7,35.1,32.5,34.9,32.2,34.9z"/>
					<path fill="#FFFFFF" d="M38.4,34.9H35c-0.3,0-0.5,0.2-0.5,0.5v3.4c0,0.3,0.2,0.5,0.5,0.5h3.4c0.3,0,0.5-0.2,0.5-0.5v-3.4
						C38.9,35.1,38.6,34.9,38.4,34.9z"/>
					<g>
						<path fill="#F3705A" d="M45,35.4v9.1c0,0.3-0.2,0.5-0.5,0.5h-3.4c-0.3,0-0.5-0.2-0.5-0.5v-9.1c0-0.3,0.2-0.5,0.5-0.5h3.4
							C44.8,34.9,45,35.1,45,35.4z"/>
					</g>
				</g>
				<g>
					<path fill="#66C6B9" d="M32.2,29.1h-3.4c-0.3,0-0.5,0.2-0.5,0.5V33c0,0.3,0.2,0.5,0.5,0.5h3.4c0.3,0,0.5-0.2,0.5-0.5v-3.4
						C32.7,29.4,32.5,29.1,32.2,29.1z"/>
					<path fill="#FFD15C" d="M38.4,29.1H35c-0.3,0-0.5,0.2-0.5,0.5V33c0,0.3,0.2,0.5,0.5,0.5h3.4c0.3,0,0.5-0.2,0.5-0.5v-3.4
						C38.9,29.4,38.6,29.1,38.4,29.1z"/>
					<path fill="#FFFFFF" d="M44.5,29.1h-3.4c-0.3,0-0.5,0.2-0.5,0.5V33c0,0.3,0.2,0.5,0.5,0.5h3.4c0.3,0,0.5-0.2,0.5-0.5v-3.4
						C45,29.4,44.8,29.1,44.5,29.1z"/>
				</g>
			</g>
			<g>
				<g>
					<polygon fill="#55C0EB" points="31.3,27.1 29.7,27.1 33,21.2 34.6,21.2 					"/>
				</g>
				<g>
					<polygon fill="#55C0EB" points="36.3,21.2 35.4,21.2 32.1,27.1 33,27.1 					"/>
				</g>
			</g>
		</g>
	</g>
</g>
</svg>
