<?xml version="1.0" encoding="utf-8"?>
<!-- Generator: Adobe Illustrator 19.0.1, SVG Export Plug-In . SVG Version: 6.00 Build 0)  -->
<svg version="1.1" id="Layer_1" xmlns="http://www.w3.org/2000/svg" xmlns:xlink="http://www.w3.org/1999/xlink" x="0px" y="0px"
	 viewBox="0 0 48 48" style="enable-background:new 0 0 48 48;" xml:space="preserve">
<style type="text/css">
	.st0{fill:#FFD15C;}
	.st1{fill:#415A6B;}
	.st2{fill:#F7B64C;}
	.st3{fill:#CED6E0;}
	.st4{fill:#344A5E;}
	.st5{fill:#F3F3F3;}
	.st6{fill:#F05540;}
	.st7{fill:#F3705A;}
	.st8{fill:#66C6B9;}
	.st9{fill:#55C0EB;}
	.st10{fill:#F5F6FB;}
	.st11{fill:#4ABAA5;}
	.st12{fill:#ADB3BA;}
	.st13{fill:#E8EAE9;}
	.st14{fill:#2E4556;}
	.st15{fill:#8AD7F8;}
	.st16{fill:#FFFFFF;}
	.st17{fill:#E54838;}
	.st18{fill:#3EAF99;}
	.st19{fill:#EFA943;}
	.st20{fill:#4CAEE5;}
	.st21{fill:#293F4F;}
	.st22{fill:#2D4456;}
	.st23{fill:#2E4454;}
	.st24{fill:#2A3F4F;}
	.st25{fill:#2D4151;}
	.st26{fill:#E89E3D;}
	.st27{fill:#2B4151;}
	.st28{fill:#2A4051;}
	.st29{fill:#2C4151;}
	.st30{fill:#EBEAE8;}
	.st31{fill:#3AA590;}
	.st32{fill:#E84534;}
	.st33{fill:none;}
</style>
<g>
	<g>
		<g>
			<path class="st1" d="M30.8,10c0,0-0.1,0-0.1,0c-0.1-0.1-0.2-0.2-0.1-0.3C32.7,6,34,4.5,35.1,4.5c0,0,0,0,0,0
				c0.1,0,0.2,0.1,0.2,0.3c0,0.1-0.1,0.2-0.3,0.2c0,0,0,0,0,0C34,5,32.2,7.8,31,9.9C30.9,10,30.9,10,30.8,10z"/>
		</g>
		<g>
			<path class="st1" d="M32.7,9.6c-0.3,0-0.6-0.1-0.8-0.3c-0.9-0.8-0.2-3.2-0.2-3.5c0-0.1,0.2-0.2,0.3-0.2c0.1,0,0.2,0.2,0.2,0.3
				c-0.3,0.9-0.5,2.5,0,3c0.2,0.2,0.5,0.2,1,0.1c0.1,0,0.3,0,0.3,0.2c0,0.1,0,0.3-0.2,0.3C33.1,9.6,32.9,9.6,32.7,9.6z"/>
		</g>
		<g>
			<path class="st4" d="M32,6.2C31.9,6.2,31.9,6.2,32,6.2c-0.2-0.1-0.3-0.2-0.2-0.3c0,0,0.4-1,1.2-1.3c0.4-0.1,0.8-0.1,1.2,0.1
				c0.1,0.1,0.2,0.2,0.1,0.3c-0.1,0.1-0.2,0.2-0.3,0.1C33.6,5,33.4,4.9,33.1,5c-0.5,0.2-0.8,0.8-0.9,1C32.2,6.1,32.1,6.2,32,6.2z"/>
		</g>
	</g>
	<g>
		<path class="st4" d="M22.7,22.8c-0.2,0-0.3-0.1-0.4-0.2c-0.4-0.4-0.2-1.4,0-2c0.3-0.6,0.6-0.7,0.8-0.7c0.1,0,0.2,0.1,0.2,0.3
			c0,0.1-0.1,0.2-0.3,0.2c-0.1,0-0.4,0.5-0.5,1c-0.1,0.4,0,0.7,0.1,0.7c0,0,0.2,0,0.4-0.1c0.1-0.1,0.3,0,0.3,0.1
			c0.1,0.1,0,0.3-0.1,0.3C23,22.8,22.9,22.8,22.7,22.8z"/>
	</g>
	<g>
		<path class="st4" d="M23.9,23.6c-0.1,0-0.1,0-0.2-0.1c-0.1-0.1-0.1-0.3,0-0.4c0.8-0.8,1.1-1.4,1-1.8c-0.2-0.5-1-0.8-1.7-0.8
			c-0.1,0-0.2-0.1-0.2-0.3c0-0.1,0.1-0.2,0.3-0.2c0.4,0,1.8,0.3,2.1,1.2c0.2,0.6-0.2,1.4-1.1,2.3C24,23.6,23.9,23.6,23.9,23.6z"/>
	</g>
	<g>
		<g>
			<g>
				<path class="st3" d="M48,6.8c-0.2,0.2-0.3,0.3-0.5,0.5h-5.1V6.4h5.1C47.7,6.5,47.8,6.6,48,6.8z"/>
			</g>
		</g>
		<g>
			<g>
				<path class="st9" d="M17.2,0C21.6,0,25,6.8,25,6.8s-3.4,6.8-7.8,6.8c-1.9,0-3.5-1.6-3.5-3.5c0-1.5,1-2.8,2.4-3.3
					c-1.4-0.5-2.4-1.8-2.4-3.3C13.7,1.6,15.3,0,17.2,0z"/>
			</g>
		</g>
		<g>
			<g>
				<g>
					<path class="st3" d="M43.2,5.5v2.6c0,0.3-0.2,0.5-0.5,0.5l-2.3,0V4.9l2.3,0C43,4.9,43.2,5.2,43.2,5.5z"/>
				</g>
			</g>
			<g>
				<g>
					<path class="st15" d="M14.4,6c-0.9,0-0.9,1.6,0,1.6l23.7,1.1V4.9L14.4,6z"/>
				</g>
			</g>
		</g>
		<g>
			<g>
				<path class="st1" d="M40.4,4.9v3.7c0,0.2-0.1,0.3-0.3,0.3h-3.4c-0.2,0-0.3-0.1-0.3-0.3V4.9c0-0.2,0.1-0.3,0.3-0.3h3.4
					C40.3,4.7,40.4,4.8,40.4,4.9z"/>
			</g>
		</g>
	</g>
	<g>
		<path class="st1" d="M33.2,9.5c-0.1,0-0.2-0.1-0.2-0.2c0-0.1,0-0.3,0.2-0.3c1.7-0.5,2-2.1,2.1-2.5C35.4,5.7,35.2,5.2,35,5
			c-0.1-0.1-0.1-0.2-0.1-0.3s0.2-0.1,0.3-0.1c0.4,0.3,0.6,1.1,0.5,2C35.5,8,34.6,9.1,33.2,9.5C33.3,9.5,33.3,9.5,33.2,9.5z"/>
	</g>
	<g>
		<g>
			<g>
				<g>
					<g>
						<polygon class="st6" points="23.5,32.6 18.6,29.2 19.7,27.8 24.1,31.9 						"/>
					</g>
				</g>
				<g>
					<g>
						<circle class="st7" cx="24.3" cy="32.6" r="1"/>
					</g>
				</g>
			</g>
			<g>
				<g>
					<g>
						<polygon class="st6" points="13.3,24.5 17.7,28.5 18.8,27.1 13.9,23.7 						"/>
					</g>
				</g>
				<g>
					<g>
						<circle class="st7" cx="13.1" cy="23.7" r="1"/>
					</g>
				</g>
			</g>
		</g>
		<g>
			<g>
				<g>
					<path class="st6" d="M20.1,26.4c-1.4-1.2-1.7-3.3-0.5-4.7s3.3-1.7,4.7-0.5c1.4,1.2,1.7,3.3,0.5,4.7
						C23.7,27.3,21.6,27.6,20.1,26.4z M23.5,22.2c-0.9-0.7-2.2-0.6-2.9,0.3c-0.7,0.9-0.6,2.2,0.3,2.9c0.9,0.7,2.2,0.6,2.9-0.3
						C24.6,24.2,24.4,22.9,23.5,22.2z"/>
				</g>
			</g>
		</g>
		<g>
			<g>
				<path class="st7" d="M21.4,45.1L16,48c0,0-1.8-0.5-3.4-0.5s-3.5-0.2-5.1-0.8c-1.4-0.5-3.1-0.1-3.6,0.1c0-0.6,0.1-2.3-0.7-3.6
					c-1-1.5-1.6-3.3-2-4.8C0.9,36.8,0,35.2,0,35.2l1.7-5.9c0.1-0.4,0.5-0.7,0.9-0.7h0c0.5,0,0.9,0.3,0.9,0.8l0.8,5.5
					c0,0-0.9,1.5-1,2c0,0.5,0.5,2.2,1.1,2.7C5,40.2,5.9,40.8,7,39.8c1.1-1,12.5-14.3,12.5-14.3l1.6,1.3c0,0-10.4,14.1-11.1,15.4
					c-0.7,1.3,0.1,2.1,0.7,2.5c0.6,0.4,2.4,0.6,2.9,0.5c0.5-0.1,1.7-1.4,1.7-1.4l5.5-0.5c0.5,0,0.9,0.3,1,0.7v0
					C22,44.5,21.8,44.9,21.4,45.1z"/>
			</g>
		</g>
		<g>
			<g>
				<path class="st7" d="M22.1,25.9l-1,1.2c-0.1,0.1-0.3,0.2-0.5,0L19.3,26c-0.1-0.1-0.2-0.3-0.1-0.5l1-1.2c0.1-0.2,0.3-0.2,0.5-0.1
					l1.4,1.1C22.2,25.5,22.3,25.8,22.1,25.9z"/>
			</g>
		</g>
	</g>
	<g>
		<g>
			<g>
				<path class="st4" d="M24.2,27.4c-0.5-0.6-0.9-1.3-1.1-2c-0.3-0.8,0-1.6,0.6-2.2l0.1,0l0.1,0.2l0.2,0.2c-0.5,0.4-0.6,1.1-0.4,1.7
					c0.2,0.7,0.6,1.3,1,1.9C24.9,27.4,24.5,27.7,24.2,27.4z"/>
			</g>
		</g>
		<g>
			<path class="st4" d="M23.1,22.7c-0.1,0-0.2,0-0.2-0.1c-0.1-0.1,0-0.3,0.1-0.3c1.5-0.8,9.7-13.1,10.7-16.5
				c0.1-0.5,0.1-0.6,0.1-0.6c-0.1-0.1-0.1-0.3,0-0.3c0.1-0.1,0.3-0.1,0.4,0c0.1,0.1,0.2,0.4,0.1,0.7C33.9,8.3,25,21.7,23.3,22.7
				C23.2,22.7,23.2,22.7,23.1,22.7z"/>
		</g>
	</g>
</g>
</svg>
