<?xml version="1.0" encoding="utf-8"?>
<!-- Generator: Adobe Illustrator 18.0.0, SVG Export Plug-In . SVG Version: 6.00 Build 0)  -->
<!DOCTYPE svg PUBLIC "-//W3C//DTD SVG 1.1//EN" "http://www.w3.org/Graphics/SVG/1.1/DTD/svg11.dtd">
<svg version="1.1" id="Layer_1" xmlns="http://www.w3.org/2000/svg" xmlns:xlink="http://www.w3.org/1999/xlink" x="0px" y="0px"
	 viewBox="0 0 48 48" enable-background="new 0 0 48 48" xml:space="preserve">
<g>
	<g>
		<polygon fill="#344A5E" points="13,7.7 11.3,7.8 11.5,10.9 13.2,13.5 15.1,13.2 		"/>
	</g>
	<g>
		<g>
			<path fill="#344A5E" d="M16,45.2c0,0,0,0.3,0,0.6c0,0.3,0,0.3,0.1,0.6c0.1,0.2,0.3,0.9,0.2,1.1c-0.1,0.2-0.1,0.2-0.1,0.2
				s-2.8-0.1-3.1-0.4c0,0,0-0.4,0.2-0.7c0.2-0.3,0.3-1.4,0.3-1.4S15.7,44.2,16,45.2z"/>
		</g>
		<g>
			<path fill="#425A6B" d="M17,46.1c0,0-0.1,0.4,0,0.6c0.1,0.2,0.4,0.4,0.8,0.5c0.4,0.1,1.5,0.1,1.8,0.1c0.3,0,0.9,0.1,0.9-0.3
				L20,46.7L17,46.1z"/>
		</g>
		<g>
			<path fill="#344A5E" d="M16.1,45l0.5-1.5l2.1,0.2c0,0,0.2,0.8,0.2,1.3c0,0.4,0,0.5,0.1,0.7c0.2,0.2,0.1,0.3,0.3,0.5
				c0.3,0.2,1.2,0.3,0.9,0.9l-1,0.1c-0.2,0-0.3,0-0.5,0c-0.5,0-1.5-0.1-1.6-0.2C17,46.6,17,46.1,17,46.1L16.1,45z"/>
		</g>
		<g>
			<path fill="#425A6B" d="M15.8,44.5c0,0,0.8,0.6,1,1c0.2,0.3,0.1,0.7,0.1,0.7s-0.9-0.8-1.1-0.9C15.8,45.1,15.8,44.5,15.8,44.5z"/>
		</g>
		<g>
			<path fill="#425A6B" d="M21.9,25l0.1,0.8c0,0-0.3,3.2-0.6,4.4c-0.3,1.2-1.2,5.2-1.2,5.6c0,0.4-1.3,7-1.3,8.2c0,0-0.7,0.6-1.4,0.6
				c-0.7,0-1.9-0.6-1.9-0.6s0.5-5.3,0.8-6.5c0.3-1.2,0.7-3.2,0.7-4c-0.1-0.8,0.1-3.1,0.1-3.1s-0.9,5.5-0.9,6.2L12.7,37
				c0,0,0.2-4.7,0.2-5.5c0-0.8-0.8-5.7-0.8-7.2c0.1-1.6,1.2-3,1.2-3l2.4-0.6l5.3-0.2L21.9,25z"/>
		</g>
		<g>
			<path fill="#344A5E" d="M16.5,42.4c-0.2-0.4-0.2-1.4-0.1-1.9c0.1-0.4,0-2.2,0-3.2c0,0.1,0,0.1,0,0.1c-0.3,1.2-0.8,6.5-0.8,6.5
				s0.7,0.3,1.3,0.5C17.1,43.4,16.6,42.6,16.5,42.4z"/>
		</g>
		<g>
			<path fill="#67C5B8" d="M16.1,22.2c0,0,1.6,0,2.6-0.2c1-0.2,2.7,0.5,2.7,0.5L20.1,9l-1.8-1.1l-0.8,0.4l-3.1,0.4L16.1,22.2z"/>
		</g>
		<g>
			<path fill="#F26F5A" d="M18,9.5c0,0,0.2,0.5,0.3,0.8c0.2,0.2,1,3.9,1.1,4.4c0.2,0.5,1,5.4,1,5.4l-0.8,2.5l-1.6-2
				c0,0-0.8-7.3-0.8-8.2c0-1,0.2-2.7,0.2-2.7l0-0.4C17.4,9.1,17.9,9.2,18,9.5z"/>
		</g>
		<g>
			<path fill="#344A5E" d="M17.8,19.1c0,0-1.7,5.2-2.3,5.8c-0.6,0.7-4.6,0-4.6,0s1.1-5.7,1.1-6.5c0-0.7,1.3-6.4,1.3-6.4
				S13,9.5,12.8,8.7c-0.3-0.9-1.5-0.9-1.5-0.9l3.2-0.9l1.1,2l2.2,7.5L17.8,19.1z"/>
		</g>
		<g>
			<path fill="#E8EAE8" d="M15.1,6.3c0,0,0.2-0.3,0.4-0.3c0.2,0,0.2,0,0.2,0l-0.2,0.6L15.1,6.3z"/>
		</g>
		<g>
			<path fill="#425A6B" d="M20.7,9.8L21.1,9c0,0,0.6,0.4,0.6,1.4s0.3,2.2,0.5,2.8c0.2,0.6,1,3.8,1,3.8s-1,2.8-1.2,3.1
				c-0.3,0.3-0.6-0.4-0.6-0.4L21,12.3L20.7,9.8z"/>
		</g>
		<g>
			<path fill="#344A5E" d="M18.2,7.6c0,0,2.5,0.7,2.9,1.4c0,0-0.1,2.3,0,3c0,0,0.2,8.5,0.6,10.5c0.5,1.9,0.2,3.2,0.2,3.2
				s-1.4-6.4-1.5-8.3c-0.1-1.9-0.1-4-0.1-4S19,8.4,18.2,7.6z"/>
		</g>
		<g>
			<polygon fill="#FFD15C" points="17.7,7.6 18,7.5 18.1,7.9 17.6,8.4 17.4,7.8 			"/>
		</g>
		<g>
			<path fill="#FFD15C" d="M20,1.1L20.4,2c0,0,0.3,1.1,0.3,1.3c0,0-0.2,0.3-0.2,0.5c0,0.3,0.3,0.9,0.3,0.9s0,0.3-0.3,0.3
				c0,0,0,0.3,0,0.5c0,0,0,0.2-0.2,0.2c0,0,0.2,0.1,0,0.3c0,0-0.4,0.1-0.4,0.3c0,0.3-0.3,0.7-1.2,0.4c0,0-0.5,0.3-0.8,1
				c-0.4,0.8-0.4,0.9-0.4,0.9l-2.3-1.9c0,0,0.5-0.9,0.3-1.4c0,0,0.6-3.2,0.6-3.2C16.1,2.1,20,1.1,20,1.1z"/>
		</g>
		<g>
			<path fill="#F05640" d="M17.6,8.4l-0.2-0.1l-0.6,0.3c0,0,0.1,0.7,0.6,1c0,0,0.5-0.2,0.6,0c0,0,0.2-0.7,0.2-1
				C18.1,8.3,17.6,8.4,17.6,8.4z"/>
		</g>
		<g>
			<g>
				<g>
					<path fill="#FFD15C" d="M34,31.8c0,0-0.4,1.5-0.4,2s0.2,3.7,0,4.6c-0.2,0.9-0.8,3.8-0.8,4.3c0,0.5,0.1,1.4,0.1,1.9
						c0,0.5-0.3,2.3-0.3,2.3h-1.7c0,0,0-1.4,0.1-2c0.1-0.6,0.2-1.4,0.4-1.8c0.1-0.4,0.1-2.9-0.1-4.1c-0.2-1.2-0.1-4.2-0.1-4.2
						s-0.2-0.4-0.1-1.4c0.1-1,0.1-2,0.1-2L34,31.8z"/>
				</g>
				<g>
					<path fill="#F5B54C" d="M30.9,45.7c0-0.1,0-0.2,0-0.3C31,45.5,30.9,45.6,30.9,45.7z"/>
					<path fill="#F5B54C" d="M31,33.6c-0.1,1,0.1,1.4,0.1,1.4s0,0.4,0,1c0.1-1,0.2-1.7,0.3-1.9c0.1-0.3,0.1-2.4,0.1-2.4l-0.1-0.1
						l-0.3,0C31.1,31.5,31.1,32.6,31,33.6z"/>
				</g>
				<g>
					<path fill="#FFD15C" d="M30.8,31.1l0.4,0.6c0,0,0.1,2,0,2.4c-0.1,0.3-0.5,5.2-0.7,6.8c-0.2,1.6,0,2.7,0.1,3.2
						c0.1,0.5,0.4,0.9,0.4,0.9s0,1.7-0.2,2c-0.2,0.3-2,0-2,0s0.2-1,0.1-1.4c0-0.5-0.1-1.9-0.1-2.3c-0.1-0.4-0.8-5.5-0.6-7.5
						c0.2-2,0.3-3.6,0.2-4.4C28.2,30.5,30.8,31.1,30.8,31.1z"/>
				</g>
				<g>
					<path fill="#F26F5A" d="M34.4,4c0.1-0.1,0.3-0.2,0.4-0.1c0.1,0.1,0.3,0.2,0.4,0.3c0.1,0.7-0.3,1.6-0.7,2.3
						c-0.4,0.7-0.7,1.4-0.7,2.2c0.1,1.2,1.4,2.1,1.5,3.4c0.3-0.6,0.6-1.3,0.9-1.9c0.2-0.7,0.4-1.4,0.3-2.1c-0.1-1-0.5-1.9-0.5-2.9
						c0-0.4,0.1-0.8,0-1.2c0-0.4-0.3-0.8-0.6-1c-0.3-0.2-0.9,0-1.1,0.4"/>
				</g>
				<g>
					<path fill="#FFD15C" d="M33.2,7c0,0-0.3,0.7-0.1,1.2c0.2,0.5,0.2,0.7,0.2,0.7v1.8l-1.2,1.8l-2.7,0c0,0,0.1-2.1,0.3-2.7
						c0.3-0.6,0.6-0.8,0.6-0.8l0.2-0.7c0,0-1.3,0.2-1.1-0.7c0,0-0.1-0.5-0.2-0.9c-0.1-0.4-0.2-0.8,0.2-1.3c0,0,0-0.5,0.1-0.7
						c0.2-0.2,0.5-1.5,1.3-1.6c0.8-0.1,2,0.3,2,0.3S34.5,4.8,33.2,7z"/>
				</g>
				<g>
					<path fill="#E8EAE8" d="M30.1,9.9c0.4,1,1.5,1.1,2.6-0.1l1.4,0.7l-2.2,8.2l4.2,5.1c0,0-0.1,2.6-0.2,3.7s-0.2,5.1-0.2,5.1
						s-2.6-0.3-3.4-0.3c-0.8,0-3.8-0.7-4.4-0.3c0,0-0.3-3.8-0.5-4.4c-0.2-0.6-0.3-3.1-0.1-4c0.2-0.9,1.9-5.9,1.8-8
						C29,13.3,29.3,10.4,30.1,9.9z"/>
				</g>
				<g>
					<path fill="#F5B54C" d="M32.7,7.3c-0.8,0.7-2.2,1-2.2,1l-0.2,0.7C31.4,8.8,32.5,8,32.7,7.3z"/>
				</g>
				<g>
					<path fill="#F26F5A" d="M30.1,3.7c0,0,0.6-0.3,0.8-0.2c0.6,0,1.2,0.2,1.3,0.5c0.1,0.1-0.4,0.7-0.3,0.9c0.1,0.3,0.6,0.4,0.8,0.4
						C32.9,5.3,32.5,6,32.5,6l0.2,0.1c0,0,0.5-0.4,0.8-0.2c0.3,0.2-0.4,0.9-0.4,0.9S32.9,7.3,33,7.7c0,0,0.2-0.4,0.4-0.5
						c0.2-0.1,1.4-0.6,1.4-2.1c0-1.5-0.9-2.1-1.6-2.4C32.4,2.3,30.9,2.3,30.1,3.7z"/>
				</g>
				<ellipse fill="#344A5E" cx="27.8" cy="15.8" rx="0.9" ry="2.9"/>
				<g>
					<path fill="#425A6B" d="M28.1,10.4l-1,0c0,0-0.5,0.4-0.6,1.3c-0.2,1-0.6,5.2-0.7,5.7c-0.1,0.5-0.4,1.3,0.2,1.7
						c0.6,0.4,2.4,1,2.4,1s-0.6-1.1-0.3-1.6c0.3-0.6,1-0.7,1-0.7l-1.2-0.5l0-3.5l0.6-1.8L28.1,10.4z"/>
				</g>
				<g>
					<path fill="#344A5E" d="M29.6,16.3c0,0,0.3,2.1,0.2,2.9c-0.1,0.8-0.5,4.6-1.4,4.8s-1.9,0-1.9,0l1.1-4.1c0,0,0.2-2.4,0.2-2.8
						c0-0.4-0.1-3.1-0.1-3.1s0.5-3.6-0.7-3.5l2.8-1.1C29.6,9.3,29.2,14.7,29.6,16.3z"/>
				</g>
				<g>
					<path fill="#344A5E" d="M36.6,9.7c0,0-1.4,1.5-1.2,3.4c0,0,0.1,6.3,0.4,7.7c0.3,1.3,0.5,3,0.5,3s-1.3-0.2-2.3-0.1
						c-1.1,0-2.8,0.3-2.8-1.1s-0.3-5.6-0.3-5.6l1.9-5.4l0.9-2.9C33.5,8.6,36.2,9.4,36.6,9.7z"/>
				</g>
				<g>
					
						<ellipse transform="matrix(0.8276 0.5613 -0.5613 0.8276 9.2596 -17.5981)" fill="#FFD15C" cx="33.3" cy="6.3" rx="0.5" ry="0.7"/>
				</g>
				<g>
					<path fill="#FFD15C" d="M33.5,6.5c-0.3,0.3-0.7,0.5-0.9,0.3c-0.2-0.1-0.2-0.5,0.1-0.8c0.3-0.3,0.7-0.5,0.9-0.3
						C33.8,5.8,33.8,6.2,33.5,6.5z"/>
				</g>
				<g>
					<path fill="#425A6B" d="M33,8.1c0,0,0,0.5-0.1,1c-0.1,0.5-1,2.6-1.1,3.1c-0.2,0.5-1,4.3-1,4.7c0,0,0.7-1.3,1-1.9
						c0.3-0.6,2-4.2,2.1-4.6l-0.5-0.3l0.7,0c0,0,0-0.7-0.1-1.1c0-0.2-0.2-0.3-0.3-0.4C33.4,8.4,33.1,8.1,33,8.1z"/>
				</g>
				<g>
					<path fill="#425A6B" d="M30.5,8.4c0,0-0.1,0.8-0.3,1.3c-0.2,0.5-0.4,0.6-0.4,1.3c-0.1,0.7,0.1,4.8,0.1,5.4c0,0.6,0,2.8,0,2.8
						s-0.3-2.6-0.5-3.1c-0.2-0.5-0.8-3.6-0.6-5.3l0.4-0.3l-0.3-0.2c0,0,0.7-0.8,0.8-1C29.8,9.2,30.5,8.4,30.5,8.4z"/>
					<g>
						<path fill="#F5B54C" d="M28.8,17.9c0,0,1,0.1,1.3,0.7c0.3,0.6,0.8,1.6,0.8,1.6c0.1,0.2-0.2,0.4-0.3,0.2l-0.3-0.5l-1.5,0.3
							c0,0-0.6-0.4-0.9-1.1C27.4,18.3,28.5,17.8,28.8,17.9z"/>
						<g>
							<path fill="#E8EAE8" d="M30.8,20.2c0,0,0-0.1-0.1-0.2c0,0.1-0.1,0.1-0.2,0.2l0.1,0.2c0,0,0,0,0.1,0
								C30.7,20.4,30.8,20.4,30.8,20.2C30.8,20.3,30.8,20.3,30.8,20.2z"/>
						</g>
					</g>
					<g>
						<path fill="#FFD15C" d="M32.7,18.5c0,0-0.3,0-0.4,0.3c-0.1,0.2-1,1-1,1l-1.1,0.8c0,0-0.5,0.2-0.8-0.1c0,0-0.6,0.2-0.5-0.2
							c-0.3,0.3-0.6,0-0.4-0.2c-0.3,0.1-0.5-0.2-0.2-0.3l0.7-0.6l1-0.8c0,0-0.4,0-0.5-0.1c0,0-0.8,0.2-0.8-0.3l0.5-0.1
							c0,0,0.5-0.1,0.6-0.1c0.1,0,0.6,0,1-0.1c0.4-0.1,1.2-0.5,1.9-0.3C33.4,17.7,32.7,18.5,32.7,18.5z"/>
					</g>
					<g>
						<g>
							<path fill="#F5B54C" d="M29.3,20.6C29.3,20.6,29.3,20.6,29.3,20.6c0.1,0,0.2-0.1,0.2-0.1c0.1,0,0.1,0,0.2-0.1
								c0,0,0.1,0,0.1,0c0,0,0,0,0.1,0c0,0,0,0,0.1,0c0.1-0.1,0.1-0.1,0.2-0.2c0.1-0.1,0.1-0.1,0.2-0.2c0.1,0,0.1-0.1,0.1-0.1
								c0,0,0.1,0,0.1,0s0,0,0,0.1c0,0-0.1,0.1-0.1,0.1c-0.1,0.1-0.1,0.1-0.2,0.2c-0.1,0.1-0.1,0.1-0.2,0.2c0,0,0,0-0.1,0
								c0,0,0,0-0.1,0c0,0-0.1,0-0.1,0c-0.1,0-0.2,0-0.2,0.1C29.5,20.5,29.4,20.5,29.3,20.6C29.3,20.6,29.3,20.6,29.3,20.6z"/>
						</g>
						<g>
							<g>
								<path fill="#F5B54C" d="M28.8,20.4c0.1,0,0.1-0.1,0.2-0.1c0.1,0,0.1-0.1,0.2-0.1c0.1-0.1,0.2-0.1,0.4-0.2l0,0
									c0.1-0.1,0.2-0.2,0.4-0.3l0.2-0.2c0,0,0.1,0,0.1-0.1c0,0,0.1,0,0.1-0.1c0,0-0.1,0.1-0.1,0.1c0,0-0.1,0.1-0.1,0.1l-0.2,0.2
									c-0.1,0.1-0.2,0.2-0.4,0.3l0,0l0,0c-0.1,0.1-0.2,0.1-0.4,0.2c-0.1,0-0.1,0.1-0.2,0.1C28.9,20.3,28.9,20.4,28.8,20.4z"/>
							</g>
							<g>
								<path fill="#F5B54C" d="M28.4,20.1c0.1,0,0.1-0.1,0.2-0.1c0.1,0,0.1-0.1,0.2-0.1c0.1-0.1,0.2-0.1,0.3-0.2l0,0
									c0.1-0.1,0.3-0.2,0.4-0.3l0.2-0.2c0,0,0.1-0.1,0.1-0.1c0,0,0.1,0,0.1-0.1c0,0-0.1,0.1-0.1,0.1c0,0-0.1,0.1-0.1,0.1l-0.2,0.2
									c-0.1,0.1-0.3,0.2-0.4,0.3l0,0l0,0c-0.1,0.1-0.2,0.1-0.3,0.2c-0.1,0-0.1,0.1-0.2,0.1C28.5,20.1,28.5,20.1,28.4,20.1z"/>
							</g>
						</g>
					</g>
				</g>
				<g>
					<path fill="#425A6B" d="M28.3,20.1c0,0-1.8-0.6-2.4-1c-0.6-0.4-0.3-1.2-0.2-1.7c0.1-0.3,0.2-2,0.4-3.6h1.6l0,3.5l1.2,0.5
						c0,0-0.7,0.1-1,0.7C27.7,19.1,28.3,20.1,28.3,20.1z"/>
				</g>
				<g>
					<path fill="#425A6B" d="M34.7,4.2C34.8,4.2,35,4.1,35,4c-0.1-0.4-0.3-0.7-0.3-1.2c-0.3-0.2-0.6-0.1-1,0.1
						C34.1,3.3,34.4,3.7,34.7,4.2z"/>
				</g>
				<g>
					<path fill="#F05640" d="M32.9,44.6c0,0-0.2,1.5-0.3,1.7c-0.1,0.3-0.2,0.4-0.4,0.4c-0.2,0-1.1-0.1-1.1-0.4
						c0-0.2-0.1-1.5-0.1-1.5s-0.2,1.4-0.2,2.2c0,0.7,0.3,0.7,0.8,0.8c0.5,0,0.9,0.1,1.1-0.3C32.9,47,32.9,44.6,32.9,44.6z"/>
				</g>
				<g>
					<path fill="#F26F5A" d="M30.6,44.2c0,0,0.2,1,0.1,1.3c-0.1,0.3,0,0.9,0.1,1c0,0.1-0.1,0.4-0.7,0.4c-0.5,0-1-0.1-1.1-0.2
						c-0.1-0.1-0.1-0.8-0.1-0.8s-0.1,0.5-0.2,0.8c-0.1,0.2-0.1,0.4-0.1,0.7l0,0c0,0.2,0.1,0.4,0.2,0.5c0,0,0.1,0.1,0.2,0.1
						c0.2,0,1.7,0,2-0.3c0.2-0.5,0-1.8,0-1.8S31.3,44.7,30.6,44.2z"/>
				</g>
			</g>
			<g>
				<path fill="#425A6B" d="M37.9,18.2c-0.3,0.7-1.3,0.8-1.7,0.9c-0.1,0-0.3,0.1-0.6,0.1c-1.1,0.2-3.1,0.4-3.1,0.4s-0.1-2.5-1-2.2
					c0,0,0.6-0.4,1.3-0.5c0.7,0,2.4-0.2,2.4-0.2l0.3,0h0l-0.1-3.3v0l0-0.5l0,0c0,0,0,0,0,0c0,0,0,0,0,0c-0.1-1.8,1.2-3.2,1.2-3.2
					s0.3,0.1,0.4,1c0,0.9,0.8,4.1,0.9,4.4C37.9,15.5,38.2,17.5,37.9,18.2z"/>
			</g>
		</g>
		<g>
			<path fill="#425A6B" d="M15.4,5.3c0,0,0.6,0,0.8-0.6c0.2-0.6,0.1-1.2,0.5-1.4c0.4-0.2,1,0,1,0.7h0.3c0,0,0.1-0.9,0.4-1.1
				c0.4-0.2,0.3-0.5,0.3-0.7c0-0.2,0.1-0.5,0.7-0.5c0.5,0,1,0.4,1,0.4s0.5-0.6,0.2-1.1c-0.3-0.4-2.6-1.2-3.8-0.8
				c-1.2,0.4-1.9,1.8-1.9,2.4C14.9,3.2,15.4,5.3,15.4,5.3z"/>
		</g>
		<g>
			<path fill="#FFD15C" d="M17.7,3.9c0,0.5-0.2,0.8-0.5,0.8c-0.3,0-0.6-0.4-0.6-0.8c0-0.5,0.2-0.8,0.5-0.8
				C17.4,3.1,17.7,3.4,17.7,3.9z"/>
		</g>
		<path fill="#F5B54C" d="M18.1,7.3c0.3-0.4,0.6-0.6,0.6-0.6c-0.3-0.2-1.2-0.4-2.1-1.3C16.6,5.4,17.2,6.5,18.1,7.3z"/>
		<g>
			<path fill="#48B9A5" d="M18,7.5l-0.4,0.9c0,0,0.5,0.4,0.5,1L18.6,8L18,7.5z"/>
		</g>
		<g>
			<path fill="#48B9A5" d="M17.6,8.4l-1.1,1l-2-2.6c0,0,0.4-0.9,1-0.9c0,0-0.4,0-0.1,0.4C15.5,6.8,17.6,8.4,17.6,8.4z"/>
		</g>
		<g>
			<path fill="#425A6B" d="M20.6,18.2c0,0-1.3-7-1.4-7.8c-0.2-0.8-1.2-3-1.2-3l0.1-0.1c0,0.1,0.9,1,0.9,1c0.2,0.3,1.1,1.4,1.4,3.3
				C20.7,13.9,20.6,18.2,20.6,18.2z"/>
		</g>
		<g>
			<path fill="#425A6B" d="M14.9,6.2c0,0-0.6,0.5-0.7,0.8C14,7.4,14,7.4,14,7.4l0.8,0.3l-0.6,0.2l3.5,8.5c0,0-0.5-3.2-0.8-4.3
				s-1.1-3.7-1.5-4.6C15.1,6.7,14.9,6.5,14.9,6.2z"/>
		</g>
		<g>
			<path fill="#425A6B" d="M15.1,35.9l1,0.6c0,0,0.1,3.5,0,4c-0.1,0.5-0.2,1.6,0.1,2.1c0.3,0.4,0.8,1.7-0.1,2.9c0,0-1.4-0.8-2.7,0.2
				c0,0-0.2-1.4-0.2-2.3c0-0.9-0.6-5.6-0.5-6.3C12.7,36.4,15.1,35.9,15.1,35.9z"/>
		</g>
		<g>
			<path fill="#425A6B" d="M13.1,47.3c0,0,0.6,0.1,1,0c0.5-0.1,1.8,0,1.9,0.1c0.1,0.1,0.2,0.1,0.2,0.1s0,0.4-0.4,0.4
				c-0.4,0-2.2,0-2.5-0.1C13.2,47.6,13.1,47.4,13.1,47.3z"/>
		</g>
		<g>
			<g>
				<path fill="#E8EAE8" d="M18.4,19.5l4.6,2.2c0.1,0,0.2,0,0.2,0l4-3c0.1-0.1,0.1-0.3,0-0.4l-5-2.7c-0.1,0-0.2,0-0.3,0l-3.5,3.5
					C18.2,19.3,18.2,19.5,18.4,19.5z"/>
			</g>
			<g>
				<g>
					<path fill="#FFD15C" d="M17.5,17.9c0,0,0.2,0.1,0.5,0s0.6-0.1,0.8-0.1c0.2,0,0.8,0.1,1.1,0.1c0.3,0,1.2,0.3,1.2,0.6
						c0,0.3-0.4,0.2-0.7,0.1c-0.3-0.1-1.1-0.2-1.2-0.2l0,0.1c0,0,0.5,0.2,0.7,0.2c0.1,0.1,0.8,0.2,0.8,0.4c0,0.2,0,0.4-0.3,0.4
						c0,0,0,0.5-0.5,0.4c0,0-0.1,0.4-0.6,0.4c-0.4,0-0.7,0-0.9,0c-0.1,0-0.1,0-0.2-0.1c-0.2-0.1-0.8-0.4-0.9-0.5
						c-0.1,0-0.8-0.3-0.8-0.3L17.5,17.9z"/>
				</g>
				<g>
					<g>
						<path fill="#F5B54C" d="M20.3,19.5C20.3,19.5,20.3,19.5,20.3,19.5c-0.1,0-0.2,0-0.2,0c-0.1,0-0.2,0-0.2,0
							c-0.1,0-0.2,0-0.3-0.1c-0.1,0-0.2,0-0.3-0.1c-0.1,0-0.2,0-0.2-0.1c-0.1,0-0.2-0.1-0.2-0.1s0,0,0.1,0c0,0,0.1,0,0.2,0
							c0.1,0,0.2,0,0.2,0c0.1,0,0.2,0,0.3,0.1c0.1,0,0.2,0,0.3,0.1c0.1,0,0.2,0,0.2,0.1C20.2,19.4,20.2,19.4,20.3,19.5
							C20.3,19.5,20.3,19.5,20.3,19.5z"/>
					</g>
					<g>
						<path fill="#F5B54C" d="M19.8,19.9c0,0-0.1,0-0.2,0c-0.1,0-0.2,0-0.4,0c-0.1,0-0.3,0-0.4-0.1c-0.1,0-0.1,0-0.1,0c0,0,0,0,0,0
							s0,0,0,0c0,0,0.1,0,0.1,0c0.1,0,0.2,0,0.4,0.1c0.1,0,0.3,0,0.4,0C19.7,19.8,19.7,19.8,19.8,19.9
							C19.8,19.8,19.8,19.9,19.8,19.9z"/>
					</g>
				</g>
			</g>
			<g>
				<path fill="#425A6B" d="M17.4,18.2c-0.4,0.5-1.1,1.4-1.1,2.2c0,0-2.3-1.3-2.8-1.6c-0.4-0.2-1.2-0.7-1.7-1.1
					c-0.3-0.2-0.2-0.2-0.3-0.3c-0.4-0.3-1-1.6-1.1-2.7c-0.2-1.1-0.4-3.3-0.3-4.2c0.2-1.5,0.8-2.5,1.3-2.6c0,0,1.2,0,1.5,0.9
					c0.3,0.9,0.6,3.4,0.6,3.4s-0.1,2.6,0,2.9c0,0,1,0.9,1.2,1.2c0.3,0.3,1.8,1,1.8,1l1.2,0.5l0.3,0.1C17.8,17.8,17.6,18,17.4,18.2z"
					/>
			</g>
		</g>
	</g>
</g>
</svg>
