<?xml version="1.0" encoding="utf-8"?>
<!-- Generator: Adobe Illustrator 18.0.0, SVG Export Plug-In . SVG Version: 6.00 Build 0)  -->
<!DOCTYPE svg PUBLIC "-//W3C//DTD SVG 1.1//EN" "http://www.w3.org/Graphics/SVG/1.1/DTD/svg11.dtd">
<svg version="1.1" id="Layer_1" xmlns="http://www.w3.org/2000/svg" xmlns:xlink="http://www.w3.org/1999/xlink" x="0px" y="0px"
	 viewBox="0 0 48 48" enable-background="new 0 0 48 48" xml:space="preserve">
<g>
	<g>
		<g>
			<g>
				<path fill="#FFD15C" d="M42.9,23.8V19l-5.5-1.3c-0.4-1.8-1.1-3.4-2-4.9L38.3,8l-3.4-3.4l-4.8,2.9c-1.5-0.9-3.1-1.6-4.9-2L23.8,0
					H19l-1.3,5.5c-1.8,0.4-3.4,1.1-4.9,2L8,4.6L4.6,8l2.9,4.8c-0.9,1.5-1.6,3.1-2,4.9L0,19v4.8l5.5,1.3c0.4,1.8,1.1,3.4,2,4.9
					l-2.9,4.8L8,38.3l4.8-2.9c1.5,0.9,3.1,1.6,4.9,2l1.3,5.5h4.8l1.3-5.5c1.8-0.4,3.4-1.1,4.9-2l4.8,2.9l3.4-3.4l-2.9-4.8
					c0.9-1.5,1.6-3.1,2-4.9L42.9,23.8z M21.4,26.6c-2.9,0-5.2-2.3-5.2-5.2c0-2.9,2.3-5.2,5.2-5.2c2.9,0,5.2,2.3,5.2,5.2
					C26.6,24.3,24.3,26.6,21.4,26.6z"/>
			</g>
			<g>
				<path fill="#F7B64C" d="M21.4,11.2c-5.7,0-10.3,4.6-10.3,10.2s4.6,10.3,10.3,10.3c5.7,0,10.3-4.6,10.3-10.3S27.1,11.2,21.4,11.2
					z M21.4,26.6c-2.9,0-5.2-2.3-5.2-5.2c0-2.9,2.3-5.2,5.2-5.2c2.8,0,5.2,2.3,5.2,5.2C26.6,24.3,24.3,26.6,21.4,26.6z"/>
			</g>
		</g>
		<g>
			<g>
				<circle fill="#66C6B9" cx="36.5" cy="36.5" r="11.5"/>
			</g>
			<g>
				<path fill="#FFFFFF" d="M40.9,32.1l-6.2,6.2l-2.6-2.6c-0.5-0.5-1.3-0.5-1.8,0c-0.5,0.5-0.5,1.3,0,1.8l3.5,3.5
					c0.5,0.5,1.3,0.5,1.8,0l7.1-7.1c0.5-0.5,0.5-1.3,0-1.8C42.2,31.6,41.4,31.6,40.9,32.1z"/>
			</g>
		</g>
	</g>
</g>
</svg>
