<?xml version="1.0" encoding="utf-8"?>
<!-- Generator: Adobe Illustrator 18.0.0, SVG Export Plug-In . SVG Version: 6.00 Build 0)  -->
<!DOCTYPE svg PUBLIC "-//W3C//DTD SVG 1.1//EN" "http://www.w3.org/Graphics/SVG/1.1/DTD/svg11.dtd">
<svg version="1.1" id="Layer_1" xmlns="http://www.w3.org/2000/svg" xmlns:xlink="http://www.w3.org/1999/xlink" x="0px" y="0px"
	 viewBox="0 0 48 48" enable-background="new 0 0 48 48" xml:space="preserve">
<g>
	<g>
		<g>
			<g>
				<path fill="#E8EAE9" d="M42.2,6.6H5.8c-1.1,0-2,0.9-2,2V37h40.4V8.6C44.2,7.5,43.3,6.6,42.2,6.6z"/>
				<rect x="6.8" y="9.6" fill="#8AD7F8" width="34.5" height="24.5"/>
				<g>
					<path fill="#344A5E" d="M27.9,34.1c-0.6-4.4-1.7-4.7-1.7-4.7l-4.8-2.3l-4,1.3l-4-1.3l-4.8,2.3c0,0-1.1,0.2-1.7,4.7H27.9z"/>
					<polygon fill="#CED6E0" points="19.7,34.1 19.8,27.6 17.4,28.4 15,27.6 15.1,34.1 					"/>
					<g>
						<polygon fill="#F3705A" points="16,34.1 18.9,34.1 18.1,30.7 18.8,29.7 17.4,28.4 16,29.7 16.7,30.7 						"/>
					</g>
					<path fill="#F7B64C" d="M14.8,23.8v1.7c0.2,1.4,2.6,2.9,2.6,2.9s2.4-1.5,2.6-2.9l0-1.7H14.8z"/>
					<polygon fill="#E8EAE9" points="17.4,28.3 20,25.4 20.9,27 19.2,30.7 					"/>
					<polygon fill="#415A6B" points="20.4,34.1 22.8,29.8 21.4,29.1 22.9,28.5 20.5,26.2 18.6,34.1 					"/>
					<polygon fill="#E8EAE9" points="17.4,28.3 14.8,25.4 13.9,27 15.6,30.7 					"/>
					<polygon fill="#415A6B" points="12,29.8 14.4,34.1 16.2,34.1 14.3,26.2 11.9,28.5 13.4,29.1 					"/>
					<ellipse fill="#415A6B" cx="15.3" cy="17.9" rx="2.1" ry="4.1"/>
					<ellipse fill="#415A6B" cx="18" cy="17.4" rx="3.8" ry="4.5"/>
					<path fill="#FFD15C" d="M22,19.9c-0.2,0.8-0.7,1.4-1.1,1.4c-0.4-0.1-0.7-0.8-0.5-1.7c0.2-0.8,0.7-1.4,1.1-1.4
						C21.9,18.3,22.1,19.1,22,19.9z"/>
					<path fill="#FFD15C" d="M21,16.9c-0.2-0.7-1-0.8-1.6-0.5c-0.5,0.4-1.2,0.6-2.1,0.6c-0.8,0-1.5-0.2-2-0.6
						c-0.6-0.4-1.3-0.2-1.5,0.5c-0.2,0.7-0.3,1.4-0.3,2.2c0,3,1.8,5.4,3.9,5.4s3.9-2.4,3.9-5.4C21.4,18.4,21.2,17.6,21,16.9z"/>
					<path fill="#FFD15C" d="M12.8,19.9c0.2,0.8,0.7,1.4,1.1,1.4s0.7-0.8,0.5-1.7c-0.2-0.8-0.7-1.4-1.1-1.4
						C12.9,18.3,12.7,19.1,12.8,19.9z"/>
					<g>
						<path fill="#415A6B" d="M19.7,22.7c-0.6-1.5-2.1-1.7-2.3-1.7c-0.2,0-1.8,0.2-2.3,1.7c-0.5-0.4-1.2-1.5-1.6-2.8
							c0,0,0,5.9,3.9,6c3.9,0,3.9-5.9,3.9-6C20.9,21.2,20.3,22.3,19.7,22.7z M18.3,23.6c0,0-1.1,0.3-0.5-0.3c0.3-0.3,0.2-0.5,0-0.6
							c-0.1-0.1-0.2-0.1-0.3-0.1c-0.1,0-0.2,0-0.3,0.1c-0.2,0.1-0.2,0.3,0,0.6c0.5,0.6-0.5,0.3-0.5,0.3s-1.8-1.3,0.9-1.8
							C20.1,22.2,18.3,23.6,18.3,23.6z"/>
					</g>
				</g>
				<path fill="#E8EAE9" d="M47.8,45.2L44.2,37H3.8l-3.6,8.2C-0.4,46.5,0.5,48,2,48h44C47.5,48,48.4,46.5,47.8,45.2z"/>
				<polygon fill="#CED6E0" points="18.4,45 20.6,40 27.4,40 29.6,45 				"/>
			</g>
			<g>
				<path fill="#F3705A" d="M46.5,0H28.6c-0.8,0-1.5,0.7-1.5,1.5v12.9c0,0.8,0.7,1.5,1.5,1.5H30v6.4l7.9-6.4h8.6
					c0.8,0,1.5-0.7,1.5-1.5V1.5C48,0.7,47.3,0,46.5,0z"/>
			</g>
		</g>
		<g>
			<g>
				<rect x="31.1" y="4.1" fill="#FFFFFF" width="12.9" height="2.2"/>
			</g>
			<g>
				<rect x="31.1" y="9.5" fill="#FFFFFF" width="12.9" height="2.2"/>
			</g>
		</g>
	</g>
</g>
</svg>
