<?xml version="1.0" encoding="utf-8"?>
<!-- Generator: Adobe Illustrator 19.0.1, SVG Export Plug-In . SVG Version: 6.00 Build 0)  -->
<svg version="1.1" id="Layer_1" xmlns="http://www.w3.org/2000/svg" xmlns:xlink="http://www.w3.org/1999/xlink" x="0px" y="0px"
	 viewBox="0 0 48 48" style="enable-background:new 0 0 48 48;" xml:space="preserve">
<style type="text/css">
	.st0{fill:#FFD15C;}
	.st1{fill:#415A6B;}
	.st2{fill:#F7B64C;}
	.st3{fill:#CED6E0;}
	.st4{fill:#344A5E;}
	.st5{fill:#F3F3F3;}
	.st6{fill:#F05540;}
	.st7{fill:#F3705A;}
	.st8{fill:#66C6B9;}
	.st9{fill:#55C0EB;}
	.st10{fill:#F5F6FB;}
	.st11{fill:#4ABAA5;}
	.st12{fill:#ADB3BA;}
	.st13{fill:#E8EAE9;}
	.st14{fill:#2E4556;}
	.st15{fill:#8AD7F8;}
	.st16{fill:#FFFFFF;}
	.st17{fill:#E54838;}
	.st18{fill:#3EAF99;}
	.st19{fill:#EFA943;}
	.st20{fill:#4CAEE5;}
	.st21{fill:#293F4F;}
	.st22{fill:#2D4456;}
	.st23{fill:#2E4454;}
	.st24{fill:#2A3F4F;}
	.st25{fill:#2D4151;}
	.st26{fill:#E89E3D;}
	.st27{fill:#2B4151;}
	.st28{fill:#2A4051;}
	.st29{fill:#2C4151;}
	.st30{fill:#EBEAE8;}
	.st31{fill:#3AA590;}
	.st32{fill:#E84534;}
	.st33{fill:none;}
</style>
<g>
	<g>
		<g>
			<g>
				<ellipse transform="matrix(0.9929 0.1194 -0.1194 0.9929 0.4944 -1.2083)" class="st0" cx="10.3" cy="3.5" rx="0.3" ry="0.6"/>
			</g>
			<g>
				<ellipse transform="matrix(-0.9929 0.1194 -0.1194 -0.9929 14.1242 6.1994)" class="st0" cx="6.9" cy="3.5" rx="0.3" ry="0.6"/>
			</g>
		</g>
		<g>
			<path class="st0" d="M9.8,6.8V5.3c0.5-0.6,0.5-2,0.5-2l0-0.6c0,0,0.1-1.4-0.4-1.7S7,1.1,6.9,1.6s0,1.8,0,1.8s0,1.1,0.3,1.7v1.6
				L9.8,6.8z"/>
		</g>
		<g>
			<path class="st4" d="M7,3.3c0,0,0.3-0.5,0.2-1c-0.1-0.5-0.1-0.6,0-0.7C7.4,1.5,9,1.6,9.3,1.5c0.3-0.1,0.6,0.2,0.5,0.4
				C9.8,2,9.9,2.5,10,2.7s0.2,0.5,0.1,0.7h0.1c0,0,0.3-1.3,0.2-2C10.2,0.6,9.7,0.2,8.8,0S6.9,0.5,6.8,1.1S6.9,3.3,7,3.3L7,3.3z"/>
		</g>
	</g>
	<g>
		<g>
			<path class="st3" d="M29,44.5l8.5-3c-0.6-0.3-1.2-0.7-1.8-1l-11.4,4.1H29z"/>
			<path class="st3" d="M23.6,44.5l-10.2-3.6c-0.9,0.3-1.8,0.5-2.7,0.7l8.2,2.9H23.6z"/>
		</g>
	</g>
	<g>
		<g>
			<ellipse class="st7" cx="24" cy="45.5" rx="11.8" ry="2.5"/>
		</g>
		<g>
			<ellipse class="st6" cx="24" cy="45.5" rx="8" ry="1.7"/>
		</g>
	</g>
	<g>
		<g>
			<ellipse class="st0" cx="9.2" cy="40.2" rx="9.2" ry="2"/>
		</g>
		<g>
			<ellipse class="st2" cx="9.2" cy="40.2" rx="6.3" ry="1.3"/>
		</g>
	</g>
	<g>
		<g>
			<ellipse class="st8" cx="38.8" cy="40.2" rx="9.2" ry="2"/>
		</g>
		<g>
			<ellipse class="st11" cx="38.8" cy="40.2" rx="6.3" ry="1.3"/>
		</g>
	</g>
	<g>
		<g>
			<g>
				<path class="st1" d="M29.9,46.4l0.2-0.3c0,0,0.1-0.3-0.1-0.6c-0.2-0.3-0.4-0.4-0.6-0.6c-0.2-0.3-0.6-0.9-0.7-1
					c-0.1-0.1-2.4-0.3-2.4-0.3s-0.2,0.6-0.1,1c0.2,0.5,0.2,0.5,0.2,0.5s0.9,0.3,1.2,0.7S29.2,46.6,29.9,46.4z"/>
			</g>
			<g>
				<path class="st4" d="M26.2,44.6c0,0,0.2,0.2,0.5,0.3c0.4,0.1,0.7,0.3,0.7,0.6c0.1,0.3,0.5,0.6,0.8,0.6c0.4,0,1.6,0.1,1.7-0.1
					c0,0,0.1,0.3-0.1,0.4c-0.3,0.1-1.3,0.1-1.7,0s-0.8-0.3-0.8-0.5c0-0.2,0-0.2,0-0.3c0-0.1-0.4,0-0.6-0.1c-0.2-0.1-0.5-0.2-0.6-0.3
					C26.1,45,26.2,44.6,26.2,44.6z"/>
			</g>
		</g>
		<g>
			<g>
				<path class="st1" d="M18.9,46.4l-0.2-0.3c0,0-0.1-0.3,0-0.6s0.4-0.3,0.6-0.6c0.2-0.2,0.6-0.8,0.6-0.9c0-0.1,2.2-0.2,2.2-0.2
					s0.2,0.5,0.1,1s-0.2,0.4-0.2,0.4s-0.9,0.2-1.1,0.6S19.5,46.6,18.9,46.4z"/>
			</g>
			<g>
				<path class="st4" d="M22.2,44.8c0,0-0.2,0.2-0.5,0.3c-0.3,0.1-0.6,0.3-0.7,0.6c-0.1,0.3-0.4,0.5-0.8,0.6s-1.4,0.1-1.6-0.1
					c0,0-0.1,0.3,0.1,0.4c0.3,0.1,1.3,0.1,1.6,0s0.8-0.3,0.8-0.4c0-0.2,0-0.2,0-0.3c0-0.1,0.3,0,0.5-0.1c0.2-0.1,0.5-0.1,0.6-0.3
					C22.4,45.1,22.2,44.8,22.2,44.8z"/>
			</g>
		</g>
		<g>
			<path class="st4" d="M28.8,44c0,0-0.9-0.2-1.8,0.1c-0.9,0.2-1-0.2-1-0.2s-0.2-0.7-0.1-1.6c0.1-0.9,0-3.5-0.1-4.4
				c-0.1-0.9,0-1.5-0.2-2.3c-0.3-0.8-0.5-1.5-0.5-2.1s-0.7-2-0.8-2.8c-0.1-0.8-0.9-4.3-0.9-4.3s-0.3,1.9-0.5,2.9
				c-0.2,0.9-0.3,1.7-0.3,2.5c0,0.8-0.3,2.1-0.3,2.1s0.1,1.9,0.1,3c0,1.1,0,1.3,0,2.2c0,0.9-0.1,1.2,0.1,1.6
				c0.2,0.4,0.4,1.9,0.3,2.5c-0.1,0.6-0.5,1.6-0.5,1.6s-0.4,0-1-0.4c-0.6-0.4-1.5-0.1-1.5-0.1s-0.2-0.6-0.1-1.1
				c0-0.5-0.1-0.7-0.2-1.4c-0.1-0.8-0.3-3.4-0.3-4.6c0.1-1.2-0.1-5.6-0.3-7.3c-0.2-1.7-0.7-4.3-0.3-6c0.4-1.7,3-7.2,3-7.2l3.4,0.4
				l2.8,6.6c0,0,0.3,1.3,0.5,3.4c0.3,2.1,0.7,4.2,0.5,4.8c-0.2,0.7,0.1,6.1,0,7.9C28.8,41.5,28.8,44,28.8,44z"/>
		</g>
		<g>
			<polygon class="st12" points="25.7,7.7 23,14.7 21,7.7 			"/>
		</g>
		<g>
			<g>
				<path class="st7" d="M23.4,8.9l0.4-0.4c0,0-0.5-0.8-0.8-0.8c-0.3,0-0.8,0.8-0.8,0.8l0.4,0.4H23.4z"/>
			</g>
			<g>
				<polygon class="st7" points="22.7,8.9 21.7,13.9 23,15.2 24.4,13.9 23.4,8.9 				"/>
			</g>
		</g>
		<g>
			<path class="st24" d="M22.8,16.7c0,0-0.5,5.9-1.2,7.1c-0.7,1.1-1.5,0.9-1.5,0.9l-2.7-0.4c0,0,0.1-0.6,0.7-2.7
				c0.6-2.1,1.3-8.4,1.2-9.5c-0.1-1.1-1.2-4-1.2-4s1.4-0.4,1.8-0.7c0.4-0.2,1-0.2,1-0.2C21.8,10.9,22.9,15.4,22.8,16.7z"/>
		</g>
		<g>
			<path class="st24" d="M25.4,7.3c0,0,0.4,0.2,1,0.4S27.9,7.9,28,8c0,0-1.1,1-1.4,2.8c-0.2,1.8,1.9,13.6,1.9,13.6s-2.7,0.5-3.4,0.4
				c-0.8-0.1-1.3-0.8-1.7-1.9c-0.4-1.1-0.8-4.9-0.6-6.1S25.4,7.3,25.4,7.3z"/>
		</g>
		<g>
			<g>
				<g>
					<ellipse transform="matrix(0.9806 0.196 -0.196 0.9806 1.3226 -4.8267)" class="st0" cx="25.1" cy="4.3" rx="0.4" ry="0.7"/>
				</g>
				<g>
					<ellipse transform="matrix(0.9806 -0.196 0.196 0.9806 -0.4275 4.22)" class="st0" cx="21.1" cy="4.3" rx="0.4" ry="0.7"/>
				</g>
				<g>
					<path class="st0" d="M25,3.3L25,4c0,0,0.1,1.5-0.5,2.1v1.7h-3V6.1c-0.5-1-0.4-2.2-0.4-2.2s0.1-2.3,0.4-2.6
						c0.3-0.2,2.7-0.4,3.2,0.1C25.2,2,25,3.3,25,3.3z"/>
				</g>
				<g>
					<path class="st1" d="M21.2,3.9L21.2,3.9c0.1,0,0.1-0.4,0.2-0.7c0.2-0.3,0.2-0.6,0.2-0.9s-0.1-0.7,0.3-0.7c0.4,0,1.5,0,2.3,0.1
						c0.8,0,0.5,0.6,0.5,0.9c0,0.3,0.3,1.1,0.3,1.4H25c0,0,1.1-2.4,0-2.7c0,0,0.1-0.9-1.4-1.2c-1.5-0.2-2.2,0.7-2.4,1.1
						S21,3.1,21.2,3.9z"/>
				</g>
			</g>
			<path class="st2" d="M22.8,7c-0.8-0.1-1.3-0.9-1.3-0.9v1.6h1.6c1-0.6,1.4-1.7,1.4-1.7S23.6,7.1,22.8,7z"/>
		</g>
		<g>
			<g>
				<path class="st5" d="M24.5,6.6c0,0-0.9,0.9-1.5,1.1c0,0,0.8,0.5,0.9,1l0.9-1.5L24.5,6.6z"/>
			</g>
			<g>
				<path class="st5" d="M21.5,6.6c0,0,0.9,0.9,1.5,1.1c0,0-0.8,0.5-0.9,1l-0.9-1.5L21.5,6.6z"/>
			</g>
		</g>
		<g>
			<path class="st4" d="M24.6,6.8c0,0-0.2,1-0.5,1.8c-0.3,0.8-1.1,3.9-1.2,5.5c-0.2,1.6-0.1,2.6-0.1,2.6s1.4-4.6,2-6.1s1-2.2,1-2.2
				l-0.6-0.1L25.9,8c0,0-0.1-0.5-0.6-0.8C24.9,7,24.9,7,24.6,6.8z"/>
		</g>
		<g>
			<path class="st0" d="M22.2,16.5c0,0,2.1,0.5,2.6-1.2s0.5-1.8,0.5-1.8l-2.5,1L22.2,16.5z"/>
		</g>
		<g>
			<path class="st4" d="M21.4,6.8L20.1,8h0.6l-0.7,0.3c0,0,2.5,5.2,2.7,8.5c0,0,0.2-2.8-0.2-4.8C22.2,10,21.4,7.2,21.4,6.8z"/>
		</g>
		<g>
			<path class="st1" d="M23.3,14.7c-0.1,0.3-0.3,1.2-0.5,1.9c-0.1,0.5-0.2,0.9-0.2,0.9s-2.3-0.4-3.7-0.6c-0.4-0.1-0.8-0.1-0.9-0.1
				c-0.6,0-0.9,0.2-1.2-0.1c-0.3-0.3-0.5-1.1-0.6-1.7c-0.1-0.7,0-1.4,0.2-1.9c0.2-0.5,0.3-1.1,0.4-1.4c0-0.3,0.1-0.5,0.2-1
				c0-0.5,0.4-1.1,0.6-2c0.3-0.8,0.5-0.6,0.5-0.6s1.1,2.9,1.2,4c0.1,0.6,0,1.6-0.1,1.7c0,0,0,0,0,0s0.9,0.3,1.7,0.4
				c0.5,0,1.1,0.2,1.6,0.3C23,14.6,23.3,14.7,23.3,14.7z"/>
		</g>
		<path class="st24" d="M23.3,14.7c0,0-0.3-0.1-0.7-0.2c-0.2,0-0.4-0.1-0.6-0.1c0,0.3,0,0.6,0,0.7l0,0.2l0.2,0c0,0,0.4,0.1,0.9,0.1
			C23.2,15.1,23.2,14.8,23.3,14.7z"/>
		<g>
			<path class="st0" d="M19.7,12.8c0,0-0.2-0.1-0.4,0c-0.2,0.2-0.1,0.3-0.1,0.3S19,13.1,19,13.4c0,0-0.2,0.3,0.1,0.4
				c0.2,0.1,0.8,0.2,1.1,0.3s0.7,0.1,1.2,0.1c0.4,0,0.4,0,0.4,0l-0.2-1.4c0,0-0.8,0.1-1.1,0C20.2,12.8,19.7,12.8,19.7,12.8z"/>
		</g>
		<g>
			<path class="st5" d="M22.4,14.8l-1-0.2c0,0-0.1-1.2,0.2-1.8h1.1L22.4,14.8"/>
		</g>
		<g>
			<path class="st1" d="M29.2,14.3c-0.2,0.6-0.5,1.3-1.1,1.4c-0.2,0-0.6,0.1-1,0.1c-0.9,0-2.1-0.1-2.6-0.2c-0.3-0.1-0.9-0.2-1.4-0.3
				c-0.5-0.1-1-0.1-1-0.1s-0.1-1.8,0.2-2.4c0,0,0.9,0,1.4,0c0.1,0,0.3,0,0.3,0c0.2,0,0.4-0.1,0.6-0.1c0.2,0,0.6,0.1,0.9,0
				c0.3-0.1,0.8,0,0.8,0l0.2-1.8l0-0.1C26.9,9,28,8,28,8s0.5-0.1,0.7,0.9c0.2,1,0.2,2,0.3,2.7C29.1,12.2,29.4,13.6,29.2,14.3z"/>
		</g>
	</g>
	<g>
		<g>
			<path class="st4" d="M34.1,40.3l-0.6-0.2c0,0,0-0.4,0.5-0.5c0.5-0.1,1.1-0.2,1.3-0.4c0.2-0.1,1.1-1.3,1.1-1.3l2.5,0.6
				c0,0,0.2,0.5,0.1,1c-0.1,0.4-0.1,0.4-0.1,0.4s-0.9-0.1-1.5,0C36.7,40,36.7,40,36.7,40s-0.4,0.3-0.9,0.3
				C35.4,40.4,34.1,40.3,34.1,40.3z"/>
		</g>
		<g>
			<path class="st1" d="M43.7,20.3c0,0,0.1,4.2-0.6,6.9c0.1,0.7,0.5,7.7,0.6,8.6s0.1,4,0.1,4s-1-0.5-1.7-0.7
				c-0.7-0.1-0.9-0.1-0.9-0.1s0-1.9,0-2.3c0-0.5-0.1-1.8-0.1-2.4c-0.1-0.5,0-0.6-0.1-1.1s-0.4-1.8-0.4-2.7s-0.6-3.2-0.8-3.8
				c-0.1-0.6-0.3-1.5-0.3-1.5s-0.2,1.5-0.2,2.6c-0.1,1.1-0.3,2-0.2,2.3c0.1,0.3,0.2,0.6,0.2,0.9s-0.1,1.3-0.1,1.6
				c0,0.3-0.1,3.3-0.2,3.6c-0.1,0.3,0,0.5,0,0.7c0,0.2,0,1,0,1l0.2,0.8c0,0-0.5,0.1-1.5-0.3C36.7,38,36.1,38,36.1,38
				s0.2-0.8,0.3-1.1c0.1-0.3-0.3-2.5-0.3-3.3s0-0.5,0-0.9s-0.1-0.8-0.1-1c0-0.2,0-0.6,0.1-1c0.1-0.4-0.3-2-0.3-2.5
				c-0.1-0.5-0.7-3.7-0.5-6.2c0.3-2.5,1.3-6.9,1.3-6.9l4.3,0.6L43.7,20.3z"/>
		</g>
		<g>
			<g>
				<g>
					<path class="st0" d="M41,4.1c0,0-0.3,0.7-0.2,1.5c0,0.8,0,0.8,0,0.8l-2.8,0.9l0.2-1l-0.1-1c0,0-0.7-0.6-0.6-2.1
						s0.1-1.5,0.1-1.5s0-1,0.8-1.2s2.1,0,2.3,0.4C41,1.3,41.3,3.5,41,4.1z"/>
				</g>
				<g>
					<path class="st0" d="M41.5,3.7c-0.1,0.3-0.4,0.6-0.6,0.5c-0.2,0-0.2-0.4-0.1-0.7C41,3.2,41.2,3,41.4,3
						C41.6,3.1,41.6,3.4,41.5,3.7z"/>
				</g>
				<g>
					<path class="st0" d="M37.4,3.5c0,0.4,0.2,0.7,0.4,0.7c0.2,0,0.3-0.3,0.3-0.7s-0.2-0.7-0.4-0.7C37.5,2.9,37.4,3.2,37.4,3.5z"/>
				</g>
				<g>
					<path class="st1" d="M41.3,1.2c-0.2-0.5-1.1-1.1-1.6-1.2s-1.5,0.1-1.9,0.7c-0.4,0.5-0.4,1.7-0.4,2.1c0.1,0.3,0.1,0.6,0.1,0.7
						h0.1c0-0.1-0.1-0.8,0-1c0.1-0.3,0.2-0.6,0.2-0.8S38,1.2,38.4,1c0.4-0.1,1.9,0,2.1,0.1c0.2,0.1,0.3,0.4,0.3,0.6
						C40.7,2,41,2.5,41,2.6c0,0.2,0,0.9,0,0.9h0.1c0,0,0.2-0.3,0.2-0.6C41.4,2.7,41.5,1.8,41.3,1.2z"/>
				</g>
				<path class="st2" d="M39.5,5.6c-0.8,0.3-1.4-0.2-1.4-0.2l0.1,1l-0.1,0.4c2.2-0.7,2.7-2.1,2.7-2.1S40.4,5.3,39.5,5.6z"/>
				<g>
					<polygon class="st3" points="38.8,6.5 38.9,6.6 40.9,6.9 38.3,13.4 37.4,11.3 37.5,7.4 38,6.8 					"/>
				</g>
				<g>
					<path class="st7" d="M39.2,8.6L38.5,12h-1l-0.2-0.6c0,0,0.3-2.4,0.5-3c0.2-0.6,0.5-1.1,0.5-1.1L38.8,7c0,0,0,0,0,0.3
						C38.8,7.7,39.2,8.6,39.2,8.6z"/>
				</g>
				<g>
					<path class="st7" d="M39.3,6.8c0,0-0.4,0.2-0.5,0.6c-0.2-0.1-0.4-0.1-0.5,0c0,0-0.1-0.7-0.1-0.8c0,0,0.6-0.1,0.6-0.1l0.1,0
						L39.3,6.8z"/>
				</g>
			</g>
			<g>
				<ellipse class="st1" cx="35.7" cy="12.1" rx="1" ry="1.2"/>
			</g>
			<g>
				<path class="st4" d="M37.4,7.2c0,0-0.1,0.1-0.5,0.3c-0.4,0.2-1.2,0.2-1.4,0.6C35.2,8.5,35,9.8,35.3,11s0.7,3.4,0.2,5.7
					c-0.4,2.3-0.6,5.4-0.6,5.4s0.7,0.4,1.1-0.6s1.4-6,1.4-6s0.2-3,0-4.2c-0.2-1.2,0.1-3.7,0.2-3.9C37.6,7.2,37.4,7.2,37.4,7.2z"/>
			</g>
			<g>
				<path class="st4" d="M41.7,6.4c0,0,0.5,0.4,1.1,0.4c0.5,0,1.4,0.1,1.5,0.8c0.2,0.7-0.2,2.7-0.4,3.4s-1.1,3-0.9,5.2
					s1.1,5.2,1.1,5.2s-2.9,0.4-4.2,0.3s-1.9-0.6-2.1-1.2s-0.7-4-0.7-4.8c0-0.8,0.1-1,0.1-1s0.7-3.3,1.5-5.4c0.8-2.1,2.4-3.2,2.4-3.2
					L41.7,6.4z"/>
			</g>
			<g>
				<path class="st5" d="M40.8,5.4c0,0-0.3,0.3-0.6,0.4c-0.3,0.2-1.3,0.7-1.3,0.7l0.9,1L41.1,6L40.8,5.4z"/>
			</g>
			<g>
				<path class="st5" d="M38.8,6.5L38.8,6.5c-0.4,0.3-0.6,0.6-0.8,1.1l0,0.1c0,0,0.1-0.8,0.1-1.2c0-0.4,0.2-0.7,0.2-0.7
					S38.4,6.4,38.8,6.5z"/>
			</g>
			<g>
				<path class="st1" d="M41,5.8c0,0-0.1,0.3-0.4,0.5c-0.2,0.2-1.2,0.9-1.9,2.3s-1.4,4.7-1.5,6.3c0,0,1.1-4.3,2-5.6s1.4-1.7,1.4-1.7
					l-0.3-0.4l0.5,0c0,0,0.7-0.6,0.8-0.6c0.1-0.1,0.1-0.1,0-0.1S41.4,6.1,41.2,6C41.1,5.8,41,5.8,41,5.8z"/>
			</g>
			<g>
				<path class="st1" d="M38,6.8c0,0-0.6,1.9-0.5,2.7c0,0.9,0.4,2.8,0,4.3c0,0-0.3-2.1-0.5-2.7s-0.3-2.9-0.1-3.4l0.5-0.1l-0.2-0.1
					c0,0,0.4-0.3,0.6-0.4C37.9,6.9,38,6.8,38,6.8z"/>
			</g>
			<g>
				<path class="st1" d="M38.2,12.9v1.8c0,0-0.3,0-0.7,0c-0.3,0-0.7,0-0.9,0.1c-0.2,0-0.5,0.1-0.7,0.1c-0.5,0.1-0.9,0.3-1.4,0.3
					c-0.7,0-1.2-0.6-1.2-1s0-1.4,0.1-1.6c0.1-0.2,0.5-0.8,0.7-1c0.2-0.2,0.4-0.7,0.4-0.9c0-0.2,0.1-0.5,0.2-0.8c0.1-0.3,0-0.5,0.2-1
					c0.2-0.5,0.7-0.9,0.7-0.9C35.2,8.5,35,9.8,35.3,11c0,0.1,0,0.2,0.1,0.3l0,0l-0.2,1.4c0,0,0.1,0,0.4,0.1c0.2,0,1.2,0.1,1.8,0.1
					C37.9,12.9,38.2,12.9,38.2,12.9z"/>
			</g>
			<path class="st4" d="M38.2,12.9c0,0-0.3,0-0.7,0c-0.7,0-1.6-0.1-1.8-0.1c-0.1,0-0.1,0-0.2,0c0,0.2,0,0.5,0,0.7l0,0.1l0.1,0
				c0,0,1.2,0.1,2,0.2c0.2,0,0.4,0,0.6,0c0,0,0.1,0,0.1,0V12.9z"/>
			<g>
				<path class="st0" d="M34.7,12.5c0,0,0.3,0.3,0.9,0.2l1-0.8l-0.2-0.7c0,0-0.6,0-1.1,0.6C34.7,12.5,34.7,12.5,34.7,12.5z"/>
			</g>
			<g>
				<path class="st1" d="M44.3,9.3c-0.2,1.4-0.9,2.7-2,3.7c-0.1,0.1-0.1,0.1-0.2,0.1c-0.4,0.3-1.2,0.4-1.3,0.5c-0.1,0-0.4,0-0.6,0
					c-0.2,0-0.3,0.1-0.5,0.1c-0.3,0-1.1,0-1.5,0c-0.1,0-0.3,0-0.6,0c-0.8-0.1-2-0.2-2-0.2c-0.1-1.9,0.8-2.2,0.8-2.2s0.8-0.1,1.3-0.1
					c0.1,0,0.3,0,0.5,0c0.7-0.1,1.7-0.2,1.9-0.2c0.2,0,0.3,0,0.4,0.1c0.1,0.1,0.1,0.1,0.1-0.1c0-0.2,0.1,0,0.1-0.2
					c0.1-0.2,0.3-0.8,0.7-1.5c0.4-0.7,1-1.7,1.7-2.1C43.2,7,43.4,7,43.5,7h0c0.4,0.1,0.7,0.3,0.8,0.7C44.4,8,44.4,8.6,44.3,9.3z"/>
			</g>
			<g>
				<path class="st1" d="M44.3,9.3c-0.2,1.4-0.9,2.7-2,3.7c-0.1,0.1-0.1,0.1-0.2,0.1c-0.4,0.3-1.2,0.4-1.3,0.5c-0.1,0-0.4,0-0.6,0
					c-0.2,0-0.3,0.1-0.5,0.1c-0.3,0-1.1,0-1.5,0c-0.1,0-0.3,0-0.6,0c-0.8-0.1-2-0.2-2-0.2c-0.1-1.9,0.8-2.2,0.8-2.2s0.8-0.1,1.3-0.1
					c0.1,0,0.3,0,0.5,0c0.7-0.1,1.7-0.2,1.9-0.2c0.2,0,0.3,0,0.4,0.1c0.1,0.1,0.1,0.1,0.1-0.1c0-0.2,0.1,0,0.1-0.2
					c0.1-0.2,0.3-0.8,0.7-1.5c0.4-0.7,1-1.7,1.7-2.1C43.2,7,43.4,7,43.5,7h0c0.4,0.1,0.7,0.3,0.8,0.7C44.4,8,44.4,8.6,44.3,9.3z"/>
			</g>
		</g>
		<g>
			<g>
				<path class="st4" d="M40.2,41.2L39.5,41l0-0.1c0,0,0-0.4,0.4-0.6c0.4-0.1,0.8-0.4,0.9-0.6c0.1-0.2,0.6-1.1,0.6-1.1l2.3,0.6
					c0,0,0.1,0.5,0,0.8c-0.1,0.3-0.1,0.3-0.1,0.3s-0.5,0.2-0.6,0.3c-0.1,0.1-0.2,0.4-0.5,0.4C42.3,41.2,40.9,41.4,40.2,41.2z"/>
			</g>
			<g>
				<path class="st1" d="M39.4,40.9c0,0,1,0.3,1.9,0.2c0.9,0,1.3-0.1,1.4-0.3c0.1-0.2,0.3-0.4,0.5-0.5s0.4-0.3,0.4-0.3l0,0.6
					c0,0-0.2,0.2-0.5,0.3l0-0.3c0,0-0.2,0-0.3,0.3c-0.1,0.3-1.3,0.6-2.3,0.4C39.5,41.2,39.3,41.2,39.4,40.9z"/>
			</g>
		</g>
		<g>
			<path class="st1" d="M33.5,40.1c0,0,0.6,0.1,1.6,0.2c1,0,1.3-0.1,1.6-0.2s2-0.5,2.3-0.6c0,0,0.1,0.6,0,0.6s-0.9,0.2-1.4,0.1
				l0-0.2c0,0-0.5,0.1-0.9,0.3s-1.2,0.5-2.5,0.3C34.2,40.4,33.4,40.3,33.5,40.1z"/>
		</g>
	</g>
	<g>
		<g>
			<path class="st4" d="M13.9,40.3l0.6-0.2c0,0,0-0.4-0.5-0.5c-0.5-0.1-1.1-0.2-1.3-0.4c-0.2-0.1-1.1-1.3-1.1-1.3l-2.5,0.6
				c0,0-0.2,0.5-0.1,1c0.1,0.4,0.1,0.4,0.1,0.4s0.9-0.1,1.5,0c0.6,0.2,0.6,0.2,0.6,0.2s0.4,0.3,0.9,0.3
				C12.6,40.4,13.9,40.3,13.9,40.3z"/>
		</g>
		<g>
			<path class="st1" d="M4.3,20.3c0,0,0,9,0,9.6c0,0.6,0.1,5,0,5.9s-0.1,4-0.1,4s1-0.5,1.7-0.7C6.6,38.9,6.9,39,6.9,39s0-1.9,0-2.3
				c0-0.5,0.1-1.8,0.1-2.4c0.1-0.5,0-0.6,0.1-1.1c0.1-0.5,0.4-1.8,0.4-2.7s0.6-3.2,0.8-3.8c0.1-0.6,0.3-1.5,0.3-1.5s0.2,1.5,0.2,2.6
				c0.1,1.1,0.3,2,0.2,2.3c-0.1,0.3-0.2,0.6-0.2,0.9s0.1,1.3,0.1,1.6c0,0.3,0.1,3.3,0.2,3.6c0.1,0.3,0,0.5,0,0.7c0,0.2,0,1,0,1
				L9,38.6c0,0,0.5,0.1,1.5-0.3c0.9-0.3,1.5-0.4,1.5-0.4s-0.2-0.8-0.3-1.1c-0.1-0.3,0.3-2.5,0.3-3.3c0-0.7,0-0.5,0-0.9
				s0.1-0.8,0.1-1c0-0.2,0-0.6-0.1-1s0.3-2,0.3-2.5s0.7-3.7,0.5-6.2c-0.3-2.5-1.3-6.9-1.3-6.9l-4.3,0.6L4.3,20.3z"/>
		</g>
		<g>
			<g>
				<path class="st2" d="M7.3,5.1c0,0,0.4,1,2.5,1.7V5.3C9,5.9,8.2,5.8,7.3,5.1z"/>
				<g>
					<polygon class="st3" points="9.2,6.5 9.1,6.6 7.1,6.9 9.7,13.4 10.6,11.3 10.5,7.4 10,6.8 					"/>
				</g>
				<g>
					<path class="st8" d="M8.8,8.6L9.5,12h1l0.2-0.6c0,0-0.3-2.4-0.5-3c-0.2-0.6-0.5-1.1-0.5-1.1L9.2,7c0,0,0,0,0,0.3
						C9.2,7.7,8.8,8.6,8.8,8.6z"/>
				</g>
				<g>
					<path class="st8" d="M8.7,6.8c0,0,0.4,0.2,0.5,0.6c0.2-0.1,0.4-0.1,0.5,0c0,0,0.1-0.7,0.1-0.8c0,0-0.6-0.1-0.6-0.1l-0.1,0
						L8.7,6.8z"/>
				</g>
			</g>
			<g>
				<ellipse class="st1" cx="12.3" cy="12.1" rx="1" ry="1.2"/>
			</g>
			<g>
				<path class="st4" d="M10.6,7.2c0,0,0.1,0.1,0.5,0.3c0.4,0.2,1.2,0.2,1.4,0.6S13,9.8,12.7,11s-0.7,3.4-0.2,5.7s0.6,5.4,0.6,5.4
					s-0.7,0.4-1.1-0.6c-0.4-0.9-1.4-6-1.4-6s-0.2-3,0-4.2c0.2-1.2-0.1-3.7-0.2-3.9C10.4,7.2,10.6,7.2,10.6,7.2z"/>
			</g>
			<g>
				<path class="st4" d="M6.3,6.4c0,0-0.5,0.4-1.1,0.4C4.7,6.9,3.8,7,3.7,7.7s0.2,2.7,0.4,3.4c0.2,0.7,1.1,3,0.9,5.2
					s-1.1,5.2-1.1,5.2s2.9,0.4,4.2,0.3s1.9-0.6,2.1-1.2c0.2-0.6,0.7-4,0.7-4.8c0-0.8-0.1-1-0.1-1S10,11.5,9.2,9.4
					C8.5,7.4,6.9,6.2,6.9,6.2L6.3,6.4z"/>
			</g>
			<g>
				<path class="st5" d="M7.2,5.4c0,0,0.3,0.3,0.6,0.4C8.1,6,9.1,6.6,9.1,6.6l-0.9,1L6.9,6L7.2,5.4z"/>
			</g>
			<g>
				<path class="st5" d="M9.2,6.5L9.2,6.5c0.4,0.3,0.6,0.6,0.8,1.1l0,0.1c0,0-0.1-0.8-0.1-1.2c0-0.4-0.2-0.7-0.2-0.7
					S9.6,6.4,9.2,6.5z"/>
			</g>
			<g>
				<path class="st1" d="M7,5.8c0,0,0.1,0.3,0.4,0.5s1.2,0.9,1.9,2.3c0.6,1.4,1.4,4.7,1.5,6.3c0,0-1.1-4.3-2-5.6
					C7.9,7.9,7.4,7.6,7.4,7.6l0.3-0.4l-0.5,0c0,0-0.7-0.6-0.8-0.6c-0.1-0.1-0.1-0.1,0-0.1S6.6,6.1,6.8,6C6.9,5.8,7,5.8,7,5.8z"/>
			</g>
			<g>
				<path class="st1" d="M10,6.8c0,0,0.6,1.9,0.5,2.7c0,0.9-0.4,2.8,0,4.3c0,0,0.3-2.1,0.5-2.7s0.3-2.9,0.1-3.4l-0.5-0.1l0.2-0.1
					c0,0-0.4-0.3-0.6-0.4C10.1,6.9,10,6.8,10,6.8z"/>
			</g>
			<g>
				<path class="st1" d="M9.8,12.9v1.8c0,0,0.3,0,0.7,0c0.3,0,0.7,0,0.9,0.1c0.2,0,0.5,0.1,0.7,0.1c0.5,0.1,0.9,0.3,1.4,0.3
					c0.7,0,1.2-0.6,1.2-1s0-1.4-0.1-1.6c-0.1-0.2-0.5-0.8-0.7-1c-0.2-0.2-0.4-0.7-0.4-0.9c0-0.2-0.1-0.5-0.2-0.8
					c-0.1-0.3,0-0.5-0.2-1c-0.2-0.5-0.7-0.9-0.7-0.9c0.3,0.4,0.5,1.7,0.2,2.9c0,0.1,0,0.2-0.1,0.3l0,0l0.2,1.4c0,0-0.1,0-0.4,0.1
					c-0.2,0-1.2,0.1-1.8,0.1C10.1,12.9,9.8,12.9,9.8,12.9z"/>
			</g>
			<path class="st4" d="M9.8,12.9c0,0,0.3,0,0.7,0c0.7,0,1.6-0.1,1.8-0.1c0.1,0,0.1,0,0.2,0c0,0.2,0,0.5,0,0.7l0,0.1l-0.1,0
				c0,0-1.2,0.1-2,0.2c-0.2,0-0.4,0-0.6,0c0,0-0.1,0-0.1,0V12.9z"/>
			<g>
				<path class="st0" d="M13.3,12.5c0,0-0.3,0.3-0.9,0.2l-1-0.8l0.2-0.7c0,0,0.6,0,1.1,0.6C13.3,12.5,13.3,12.5,13.3,12.5z"/>
			</g>
			<g>
				<path class="st1" d="M3.7,9.3C4,10.7,4.6,12,5.7,13c0.1,0.1,0.1,0.1,0.2,0.1c0.4,0.3,1.2,0.4,1.3,0.5c0.1,0,0.4,0,0.6,0
					c0.2,0,0.3,0.1,0.5,0.1c0.3,0,1.1,0,1.5,0c0.1,0,0.3,0,0.6,0c0.8-0.1,2-0.2,2-0.2c0.1-1.9-0.8-2.2-0.8-2.2s-0.8-0.1-1.3-0.1
					c-0.1,0-0.3,0-0.5,0c-0.7-0.1-1.7-0.2-1.9-0.2c-0.2,0-0.3,0-0.4,0.1c-0.1,0.1-0.1,0.1-0.1-0.1c0-0.2-0.1,0-0.1-0.2
					c-0.1-0.2-0.3-0.8-0.7-1.5c-0.4-0.7-1-1.7-1.7-2.1C4.8,7,4.6,7,4.5,7h0C4.1,7.1,3.8,7.3,3.7,7.7C3.6,8,3.6,8.6,3.7,9.3z"/>
			</g>
			<g>
				<path class="st1" d="M3.7,9.3C4,10.7,4.6,12,5.7,13c0.1,0.1,0.1,0.1,0.2,0.1c0.4,0.3,1.2,0.4,1.3,0.5c0.1,0,0.4,0,0.6,0
					c0.2,0,0.3,0.1,0.5,0.1c0.3,0,1.1,0,1.5,0c0.1,0,0.3,0,0.6,0c0.8-0.1,2-0.2,2-0.2c0.1-1.9-0.8-2.2-0.8-2.2s-0.8-0.1-1.3-0.1
					c-0.1,0-0.3,0-0.5,0c-0.7-0.1-1.7-0.2-1.9-0.2c-0.2,0-0.3,0-0.4,0.1c-0.1,0.1-0.1,0.1-0.1-0.1c0-0.2-0.1,0-0.1-0.2
					c-0.1-0.2-0.3-0.8-0.7-1.5c-0.4-0.7-1-1.7-1.7-2.1C4.8,7,4.6,7,4.5,7h0C4.1,7.1,3.8,7.3,3.7,7.7C3.6,8,3.6,8.6,3.7,9.3z"/>
			</g>
		</g>
		<g>
			<g>
				<path class="st4" d="M7.8,41.2L8.5,41l0-0.1c0,0,0-0.4-0.4-0.6c-0.4-0.1-0.8-0.4-0.9-0.6c-0.1-0.2-0.6-1.1-0.6-1.1l-2.3,0.6
					c0,0-0.1,0.5,0,0.8c0.1,0.3,0.1,0.3,0.1,0.3s0.5,0.2,0.6,0.3c0.1,0.1,0.2,0.4,0.5,0.4S7.1,41.4,7.8,41.2z"/>
			</g>
			<g>
				<path class="st1" d="M8.6,40.9c0,0-1,0.3-1.9,0.2c-0.9,0-1.3-0.1-1.4-0.3c-0.1-0.2-0.3-0.4-0.5-0.5s-0.4-0.3-0.4-0.3l0,0.6
					c0,0,0.2,0.2,0.5,0.3l0-0.3c0,0,0.2,0,0.3,0.3c0.1,0.3,1.3,0.6,2.3,0.4C8.5,41.2,8.7,41.2,8.6,40.9z"/>
			</g>
		</g>
		<g>
			<path class="st1" d="M14.5,40.1c0,0-0.6,0.1-1.6,0.2s-1.3-0.1-1.6-0.2s-2-0.5-2.3-0.6c0,0-0.1,0.6,0,0.6s0.9,0.2,1.4,0.1l0-0.2
				c0,0,0.5,0.1,0.9,0.3c0.3,0.2,1.2,0.5,2.5,0.3C13.8,40.4,14.6,40.3,14.5,40.1z"/>
		</g>
	</g>
</g>
</svg>
