<?xml version="1.0" encoding="utf-8"?>
<!-- Generator: Adobe Illustrator 18.0.0, SVG Export Plug-In . SVG Version: 6.00 Build 0)  -->
<!DOCTYPE svg PUBLIC "-//W3C//DTD SVG 1.1//EN" "http://www.w3.org/Graphics/SVG/1.1/DTD/svg11.dtd">
<svg version="1.1" id="Layer_1" xmlns="http://www.w3.org/2000/svg" xmlns:xlink="http://www.w3.org/1999/xlink" x="0px" y="0px"
	 viewBox="0 0 48 48" enable-background="new 0 0 48 48" xml:space="preserve">
<g>
	<g>
		<g>
			<g>
				<path fill="#F3F3F3" d="M35.5,0L10.8,0L0,10.8l0,33.5c0,2,1.6,3.6,3.6,3.6h31.9c2,0,3.6-1.6,3.6-3.6V3.6C39.1,1.6,37.5,0,35.5,0
					z"/>
				<g>
					<rect x="5.7" y="40.1" fill="#CED6E0" width="27.7" height="2.4"/>
				</g>
				<g>
					<rect x="5.7" y="32.3" fill="#CED6E0" width="27.7" height="2.4"/>
				</g>
				<g>
					<rect x="5.7" y="24.6" fill="#CED6E0" width="27.7" height="2.4"/>
				</g>
				<g>
					<rect x="5.7" y="16.9" fill="#CED6E0" width="27.7" height="2.4"/>
				</g>
				<g>
					<rect x="16.3" y="9.2" fill="#CED6E0" width="17" height="2.4"/>
				</g>
			</g>
			<g>
				<g>
					<polygon fill="#CED6E0" points="10.8,0 0,10.8 10.8,10.8 					"/>
				</g>
			</g>
		</g>
		<g>
			<g>
				<g>
					<path fill="#66C6B9" d="M46.8,40.5l-26.7,7.5c-0.9,0.2-1.8-0.3-2.1-1.2l-4.2-15.1c-0.2-0.9,0.3-1.8,1.2-2.1l26.7-7.5
						c0.9-0.2,1.8,0.3,2.1,1.2l4.2,15.1C48.2,39.3,47.7,40.2,46.8,40.5z"/>
					<g>
						<path fill="#FFFFFF" d="M19.4,41L18,35.9c2.1-0.6,3.3-2.7,2.7-4.8l16.7-4.7c0.6,2.1,2.7,3.3,4.8,2.7l1.4,5.1
							C41.6,34.8,40.4,37,41,39l-16.7,4.7C23.7,41.6,21.5,40.4,19.4,41z"/>
					</g>
				</g>
				<g>
					<path fill="#66C6B9" d="M31.6,39.5l-0.2-0.8c-0.9,0.1-1.9-0.1-2.8-0.5l0.6-1.5c0.7,0.3,1.3,0.5,1.7,0.5l-0.4-1.6
						c-0.8,0-1.4-0.1-1.8-0.3c-0.4-0.2-0.7-0.6-0.9-1.2c-0.2-0.6-0.1-1.1,0.2-1.6c0.3-0.5,0.7-0.9,1.3-1.1l-0.1-0.5l1.1-0.3l0.1,0.5
						c0.7-0.1,1.5,0,2.3,0.3l-0.5,1.5c-0.5-0.2-1-0.3-1.4-0.3l0.4,1.5c0.8,0,1.4,0.1,1.9,0.3c0.5,0.2,0.8,0.6,0.9,1.2
						c0.2,0.6,0.1,1.2-0.2,1.7c-0.3,0.5-0.8,0.9-1.4,1.1l0.2,0.7L31.6,39.5z M29.8,32.8c-0.3,0.2-0.4,0.4-0.3,0.7
						c0.1,0.3,0.3,0.4,0.6,0.5L29.8,32.8z M32.5,36.2c0-0.1-0.1-0.3-0.2-0.3c-0.1-0.1-0.3-0.1-0.5-0.2l0.4,1.3
						C32.5,36.8,32.6,36.5,32.5,36.2z"/>
				</g>
			</g>
			<g>
				<circle fill="#66C6B9" cx="22.9" cy="37.3" r="1.3"/>
				<circle fill="#66C6B9" cx="38.9" cy="32.8" r="1.3"/>
			</g>
		</g>
	</g>
</g>
</svg>
