<?xml version="1.0" encoding="utf-8"?>
<!-- Generator: Adobe Illustrator 19.0.1, SVG Export Plug-In . SVG Version: 6.00 Build 0)  -->
<svg version="1.1" id="Layer_1" xmlns="http://www.w3.org/2000/svg" xmlns:xlink="http://www.w3.org/1999/xlink" x="0px" y="0px"
	 viewBox="0 0 48 48" style="enable-background:new 0 0 48 48;" xml:space="preserve">
<style type="text/css">
	.st0{fill:#FFD15C;}
	.st1{fill:#415A6B;}
	.st2{fill:#F7B64C;}
	.st3{fill:#CED6E0;}
	.st4{fill:#344A5E;}
	.st5{fill:#F3F3F3;}
	.st6{fill:#F05540;}
	.st7{fill:#F3705A;}
	.st8{fill:#66C6B9;}
	.st9{fill:#55C0EB;}
	.st10{fill:#F5F6FB;}
	.st11{fill:#4ABAA5;}
	.st12{fill:#ADB3BA;}
	.st13{fill:#E8EAE9;}
	.st14{fill:#2E4556;}
	.st15{fill:#8AD7F8;}
	.st16{fill:#FFFFFF;}
	.st17{fill:#E54838;}
	.st18{fill:#3EAF99;}
	.st19{fill:#EFA943;}
	.st20{fill:#4CAEE5;}
	.st21{fill:#293F4F;}
	.st22{fill:#2D4456;}
	.st23{fill:#2E4454;}
	.st24{fill:#2A3F4F;}
	.st25{fill:#2D4151;}
	.st26{fill:#E89E3D;}
	.st27{fill:#2B4151;}
	.st28{fill:#2A4051;}
	.st29{fill:#2C4151;}
	.st30{fill:#EBEAE8;}
	.st31{fill:#3AA590;}
	.st32{fill:#E84534;}
	.st33{fill:none;}
</style>
<g>
	<g>
		<g>
			<path class="st7" d="M21.8,19.3c-0.1,0-0.1-0.1-0.1-0.1c0-0.3,0.1-0.6,0.4-0.8c0.3-0.2,0.6-0.3,1-0.4c0.8-0.1,1.5,0.3,1.5,0.9
				c0,0.1-0.1,0.2-0.1,0.2c-0.1,0-0.2-0.1-0.2-0.1c0-0.4-0.6-0.7-1.2-0.6c-0.3,0-0.6,0.1-0.8,0.3C22.1,18.8,22,19,22,19.2
				C22,19.3,21.9,19.3,21.8,19.3C21.8,19.3,21.8,19.3,21.8,19.3z"/>
		</g>
	</g>
	<g>
		<g>
			<path class="st7" d="M20.1,20.4C20.1,20.4,20.1,20.4,20.1,20.4c-0.1,0-0.2-0.1-0.1-0.2c0-0.4-0.5-0.8-1.1-0.9
				c-0.3,0-0.7,0-0.9,0.2c-0.2,0.1-0.4,0.3-0.4,0.5c0,0.1-0.1,0.1-0.2,0.1c-0.1,0-0.1-0.1-0.1-0.2c0-0.3,0.2-0.6,0.5-0.7
				c0.3-0.2,0.7-0.2,1.1-0.2c0.8,0.1,1.5,0.6,1.4,1.2C20.2,20.3,20.2,20.4,20.1,20.4z"/>
		</g>
	</g>
	<g>
		<g>
			<path class="st7" d="M14.8,21.2C14.7,21.2,14.7,21.2,14.8,21.2c-0.1,0-0.2-0.1-0.1-0.2c0.1-0.5-0.4-1-1.1-1.2
				c-0.4-0.1-0.7-0.1-1,0c-0.3,0.1-0.4,0.3-0.5,0.5c0,0.1-0.1,0.1-0.2,0.1c-0.1,0-0.1-0.1-0.1-0.2c0.1-0.3,0.3-0.5,0.7-0.7
				c0.3-0.1,0.8-0.1,1.2,0c0.4,0.1,0.8,0.3,1,0.6c0.3,0.3,0.3,0.6,0.3,0.9C14.9,21.2,14.8,21.2,14.8,21.2z"/>
		</g>
	</g>
	<g>
		<path class="st7" d="M11.8,14.5C11.8,14.5,11.7,14.5,11.8,14.5c-0.1-0.1-0.2-0.2-0.1-0.2c0.1-0.2,0.1-0.5,0-0.8
			c-0.2-0.3-0.4-0.6-0.8-0.8c-0.4-0.2-0.8-0.3-1.1-0.3c-0.3,0-0.6,0.2-0.7,0.4c0,0.1-0.1,0.1-0.2,0.1c-0.1,0-0.1-0.1-0.1-0.2
			c0.2-0.3,0.5-0.5,1-0.5c0.4,0,0.9,0.1,1.3,0.3c0.4,0.2,0.8,0.6,0.9,1c0.2,0.4,0.2,0.8,0,1.1C11.9,14.5,11.8,14.5,11.8,14.5z"/>
	</g>
	<g>
		<path class="st7" d="M27.5,18.8C27.5,18.8,27.5,18.8,27.5,18.8c-0.3-0.2-0.4-0.4-0.5-0.8c0-0.3,0.1-0.6,0.3-0.9
			c0.4-0.6,1.1-0.8,1.5-0.5c0.1,0,0.1,0.1,0,0.2c0,0.1-0.1,0.1-0.2,0c-0.3-0.2-0.8,0-1.1,0.4c-0.1,0.2-0.2,0.5-0.2,0.7
			c0,0.2,0.1,0.4,0.3,0.5c0.1,0,0.1,0.1,0,0.2C27.6,18.7,27.6,18.8,27.5,18.8z"/>
	</g>
	<g>
		<g>
			<path class="st0" d="M17.5,4.4c0,0-1.2,0.8-1.5,1.2c-0.3,0.4-2,1.7-2.6,2.2c-0.6,0.5-1.6,1-1.8,1.7c-0.2,0.7-1.3,1.9-2.3,2.8
				c-0.9,0.9-1,1.3-1,1.3l-1.7,1.8c0,0,2.8,2.3,5.2-1.4c0,0,1.5-1.4,1.8-1.7s0.8,0.1,1,0.3c0.2,0.2-0.4,1.7-1,3.3s-1.7,4.6-2,6
				c-0.3,1.4-0.5,2.8,0.4,3s1.9-1.4,2.1-3c0,0,0.8-2,1-2.4c0,0,1-2.2,1.2-2.4c0.3-0.3,1.4-0.5,1.4-0.5s-0.2,1.2-0.2,2.3
				c0,1.2,0,2.7,0.1,3.1c0.1,0.4,0.7,0.7,1,0.7c0.2,0,1-0.2,1.1-0.9c0,0,0.2-2.5,0.3-3.1c0-0.6,0.1-1.9,0.1-1.9s0.9-0.3,1.4-0.2
				c0,0,0,1.2,0.2,1.8c0,0,0.5,2,0.6,2.4s0.5,0.8,1.1,0.8c0.6,0,0.9-0.5,0.9-1.1c0-0.6-0.3-2.4-0.3-2.9c0-0.4-0.2-1.2-0.2-1.2
				l0.8-0.1c0,0,0.7,0.4,1,0.6s1.2,0.9,1.5,1.2c0.3,0.2,1,1,1.7,1.3c0.7,0.3,1,0.3,1.4,0s0.3-0.6,0.1-0.9s-1.8-1.5-2.3-2.3
				s-1.4-1.5-1.5-2c-0.1-0.4-0.2-0.8-0.1-1.9c0.1-1.1,0.2-2,0.2-2l-6.2-7.1L17.5,4.4z"/>
		</g>
	</g>
	<g>
		<g>
			<path class="st7" d="M20.8,46.1L20.8,46.1c-0.1,0-0.2-0.1-0.1-0.2l2.4-26c0-0.1,0.1-0.1,0.2-0.1c0.1,0,0.1,0.1,0.1,0.2l-2.4,26
				C21,46,20.9,46.1,20.8,46.1z"/>
		</g>
	</g>
	<g>
		<g>
			<path class="st7" d="M18,35.6L18,35.6c-0.1,0-0.2-0.1-0.1-0.2L18.5,21c0-0.1,0.1-0.1,0.2-0.1c0.1,0,0.1,0.1,0.1,0.2l-0.6,14.4
				C18.1,35.6,18.1,35.6,18,35.6z"/>
		</g>
	</g>
	<g>
		<g>
			<path class="st7" d="M10.9,31.8C10.9,31.8,10.9,31.8,10.9,31.8c-1.1-0.3-1.4-1.1-1.4-1.2c0-0.1,0-0.2,0.1-0.2
				c0.1,0,0.2,0,0.2,0.1c0,0,0.2,0.7,1.1,0.9c0.1,0,0.1,0.1,0.1,0.2C11,31.7,11,31.8,10.9,31.8z"/>
		</g>
	</g>
	<g>
		<g>
			<path class="st7" d="M10.9,31.8C10.9,31.8,10.9,31.8,10.9,31.8l-1.3-0.2c-0.1,0-0.1-0.1-0.1-0.2c0-0.1,0.1-0.1,0.2-0.1l1.3,0.2
				c0.1,0,0.1,0.1,0.1,0.2C11.1,31.7,11,31.8,10.9,31.8z"/>
		</g>
	</g>
	<g>
		<g>
			<path class="st7" d="M26.3,31.4C26.3,31.4,26.3,31.4,26.3,31.4c-0.2-0.1-0.2-0.2-0.1-0.2l0.8-1c0-0.1,0.1-0.1,0.2,0
				c0.1,0,0.1,0.1,0,0.2l-0.8,1C26.4,31.4,26.4,31.4,26.3,31.4z"/>
		</g>
	</g>
	<g>
		<g>
			<path class="st4" d="M26,31.2c0,0,0.4,0.2,0.7-1.3l-0.8-0.1C25.9,29.8,25.7,30.9,26,31.2z"/>
		</g>
	</g>
	<g>
		<g>
			<path class="st3" d="M26.4,31.3c0,0,0.5-0.1,0.8-0.9l-0.6-0.1C26.6,30.3,26.3,30.9,26.4,31.3z"/>
		</g>
	</g>
	<g>
		<g>
			<g>
				<path class="st7" d="M14.6,44.9c-0.1,0-0.1-0.1-0.1-0.1l-1.3-23c0-0.1,0.1-0.2,0.1-0.2c0.1,0,0.2,0.1,0.2,0.1l1.3,23
					C14.7,44.8,14.7,44.9,14.6,44.9L14.6,44.9z"/>
			</g>
		</g>
		<g>
			<g>
				<path class="st13" d="M19.9,2L17.5,4c0,0,1.4,4.8,3.9,5.9s5.8,0.6,5.8,0.6L19.9,2z"/>
			</g>
		</g>
		<g>
			<path class="st1" d="M21.3,0l-2.2,1.8c0,0,1.3,4.1,2.2,5.6c0.9,1.5,5.2,4.2,7.6,3L41.4,0H21.3z"/>
		</g>
	</g>
	<g>
		<g>
			<g>
				<path class="st4" d="M9.5,30.9c0,0,1.2,1.2,1.6,0.5c0.5-0.6-0.6-1.2-0.6-1.2S9.8,30.6,9.5,30.9z"/>
			</g>
		</g>
		<g>
			<g>
				<path class="st3" d="M9.7,31l-0.1,0.1c0,0,1.1,1,1.3,0.3C11.2,30.7,9.7,31,9.7,31z"/>
			</g>
		</g>
		<g>
			<g>
				<path class="st0" d="M11,31.2c0,0-0.1,0.4,0,0.5l0.5,0.5c0.1,0.1,0.2,0.2,0.3,0.4c0.1,0.2,0.2,0.3,0.2,0.4l0.2,0.2
					c0,0-0.1,0.3-0.5,0.1c-0.1-0.1-0.2-0.2-0.3-0.3c-0.1-0.1-0.1-0.2-0.2-0.2c0,0-0.1,0-0.2,0c-0.1,0.1-0.2,0.3-0.2,0.4
					c0,0.1-0.1,0.6-0.1,0.6s0.1,0.1,0.2,0.2l-0.2,0.2c0,0-0.2,0.2-0.4-0.2c0,0-0.1,0.1-0.3,0c-0.2-0.1-0.2-0.3-0.2-0.3
					s-0.2,0-0.2-0.2s-0.1-1.1-0.1-1.4c0-0.3,0-1,0.2-1.3c0.3-0.2,1-0.3,1-0.3L11,31.2z"/>
			</g>
		</g>
		<g>
			<g>
				<path class="st13" d="M9.6,31.1c0,0,0.9-0.2,1.3,0.3l0.5-0.7l-0.9-0.6L9.6,31.1z"/>
			</g>
		</g>
		<g>
			<g>
				<g>
					<g>
						<path class="st0" d="M16.3,26.6l0.7,1.6l0.1,0.7l1.7,1.1l0.4-1l-0.1-0.5c0,0,0.2-0.6,0-1.3s-0.5-1.5-0.5-1.5s-0.7-0.5-1.2-0.4
							C17,25.5,16.2,26.1,16.3,26.6z"/>
					</g>
				</g>
				<g>
					<g>
						<path class="st1" d="M12.6,44.8l-0.1,0l-0.3,0.1c0,0,0,0.3,0,0.5c0.1,0.2,0.3,0.7,0.3,0.7l0.3-0.1l0.2,0.2c0,0,0,0.8,0.1,1.2
							c0.1,0.4,0.4,0.6,0.8,0.6c0.4,0,1,0,1.2-0.1c0.2-0.1,0.3-0.1,0.2-0.3s-0.7,0-1.3-0.4c-0.6-0.4-0.7-1-1.1-1.4
							S12.6,44.8,12.6,44.8z"/>
					</g>
				</g>
				<g>
					<g>
						<path class="st4" d="M13.3,44.5c0,0-0.7-0.1-0.9,0.2c0,0,0.1,0.5,0.3,1c0.2,0.5,0.3,0.8,0.3,1.1c0.1,0.3,0.2,0.7,0.7,0.8
							c0.5,0.1,1.1,0.1,1.2,0s0.3-0.1,0.2-0.2s-0.6-0.3-0.8-0.4c-0.2-0.1-0.2-0.3-0.2-0.7S13.3,44.5,13.3,44.5z"/>
					</g>
				</g>
				<g>
					<g>
						<path class="st1" d="M19.1,46.5L19,46.8c0,0,0.3,0.3,0.5,0.3c0.2,0,0.4-0.1,0.4-0.1s0.1,0.4,0.2,0.5s0.5,0.4,0.8,0.4
							c0.2,0,0.9,0.1,0.9-0.2c0-0.3-0.4-0.5-0.4-0.5S19.6,46.2,19.1,46.5z"/>
					</g>
				</g>
				<g>
					<g>
						<path class="st4" d="M19,45.9c0,0-0.1,0.3,0,0.6c0,0,0.4,0.1,0.6,0.2c0.2,0.2,0.3,0.5,0.4,0.7c0.1,0.1,0.6,0.4,0.8,0.4
							s0.7-0.1,0.8,0c0.1,0.1,0-0.2-0.1-0.4c-0.1-0.2-0.7-1-1-1.2C20.3,46,20.3,46,20.3,46L19,45.9z"/>
					</g>
				</g>
				<g>
					<g>
						<path class="st1" d="M21.7,44.8l-0.3,0.9c0,0-0.2,0.2-0.3,0.2c-0.1,0.1,0,0.2-0.2,0.4c-0.2,0.1-0.6,0.3-1.1,0.2
							C19.3,46.3,19,46,19,46s0-0.4,0.3-0.7c0.2-0.3,1-1.6,1-1.6l0.7-0.7L21.7,44.8z"/>
					</g>
				</g>
				<g>
					<g>
						<path class="st4" d="M20.3,43.6c0,0-0.5,0.8-0.8,1.3c0.5-0.2,0.9-0.4,1-0.6c0.2-0.2,0.3-0.7,0.4-1.3L20.3,43.6z"/>
					</g>
				</g>
				<g>
					<g>
						<path class="st1" d="M16.8,37.7c0,0,0.6,2.3,0.9,3.1s0.8,2,0.8,2s0,0.1-0.2,0.1c-0.2,0-0.5,0.1-1,0.2
							c-0.5,0.2-1.7,0.8-2.2,0.9c-0.5,0.2-2.1,0.4-2.3,0.5c-0.2,0.1,0.5,1.2,0.8,1.7c0.4,0.5,0.9,0.5,0.9,0.5s0.1-0.3,0.6-0.4
							c0.5-0.2,2-0.4,2.7-0.7c0.8-0.3,2.3-0.9,2.6-1.3c0.3-0.4,0.5-1.9,0.5-2.6c0-0.7,0-0.7,0-0.7s0.3,0.6,0.5,0.8c0,0,0,0.1,0,0.3
							c0,0.2-0.1,0.2-0.1,0.3c0,0.1-0.3,0.5-0.3,0.5l0.4,2.8c0,0,1.4-1.6,1.6-1.9s0.5-0.9,0.7-1.2c0.2-0.3,0.1-1,0-1.6
							c-0.1-0.5-1.1-2.9-1.6-3.4c-0.6-0.6-0.6-0.6-0.6-0.6l-3.2-3.3L16.8,37.7z"/>
					</g>
				</g>
				<g>
					<g>
						<path class="st0" d="M27.2,30.3c0,0,0.4,0.4,0.5,0.6c0.1,0.2,0.2,0.2,0.5,0.3c0.3,0.1,0.6,0.3,0.8,0.5
							c0.2,0.2,0.1,0.2,0.1,0.4c0,0.2,0.1,0.3,0,0.3c0,0,0,0.2-0.1,0.3c0,0-0.1,0.3-0.3,0.3c0,0-0.1,0.2-0.4,0.1c0,0-0.1-0.1,0-0.2
							c0,0-0.1-0.1-0.1-0.2c-0.1-0.1-0.2-0.3-0.2-0.3l-0.3,0c0,0,0.3,0.8-0.2,0.8l0-0.3c0,0-0.1-0.2-0.2-0.3s-0.1-0.2-0.1-0.3
							c0-0.1,0-0.5-0.1-0.6c-0.1-0.2-0.8-0.6-0.8-0.6C26.4,30.5,26.7,30.2,27.2,30.3z"/>
					</g>
				</g>
				<g>
					<g>
						<path class="st13" d="M26.4,31.3c0.1-0.4,0.4-1,0.8-0.9l-0.8-0.7l-1,0.9L26.4,31.3z"/>
					</g>
				</g>
				<g>
					<g>
						<ellipse transform="matrix(0.9813 -0.1927 0.1927 0.9813 -4.8028 4.1685)" class="st0" cx="19" cy="26.8" rx="0.3" ry="0.5"/>
					</g>
				</g>
				<g>
					<path class="st2" d="M17,28.2l0.1,0.7l1.3,0.8c0.7-0.4,0.8-1.2,0.8-1.2C18.5,29.7,17,28.2,17,28.2z"/>
				</g>
				<g>
					<g>
						<polygon class="st3" points="18,29.2 18.3,29.3 18.6,29.2 19.4,28.8 19.5,28.2 21,30 18.5,33.8 15.3,29.5 17,28.8 						"/>
					</g>
				</g>
				<g>
					<g>
						<path class="st7" d="M18.7,29.6l0.1,0.3c0,0,0.1,0.4,0.1,0.6c0,0.1,0.4,1.4,0.3,2.1c-0.1,0.6-0.1,0.6-0.1,0.6l-1.2-0.2
							c0,0-0.1-1.6,0-2.1c0.1-0.5,0.5-0.8,0.6-0.9C18.5,29.8,18.7,29.6,18.7,29.6z"/>
					</g>
				</g>
				<g>
					<g>
						<path class="st7" d="M18,29.5c0,0,0.4,0.3,0.4,0.4c0.1-0.1,0.3-0.1,0.4,0l0.3-0.6l-0.5-0.1l-0.2,0.1L18,29.5z"/>
					</g>
				</g>
				<g>
					<g>
						<path class="st5" d="M19.3,28.2c0,0,0,0.6-0.7,1c0,0,0.7,0.2,0.8,0.7l0.2-1.4L19.3,28.2z"/>
					</g>
				</g>
				<g>
					<g>
						<path class="st5" d="M17,28.4c0,0,0.7,0.7,1.3,0.9c0,0-0.4,0.3-0.7,0.9l-0.7-1.4L17,28.4z"/>
					</g>
				</g>
				<g>
					<g>
						<path class="st1" d="M20.3,27.2c0.4,0,0.7,0.2,0.9,0.5c0.1,0.1,0.2,0.2,0.2,0.3c0.1,0.3,0.1,0.2,0.6,0.3s1.2,0.1,1.6,0.1
							s1,0.1,1.3,0.2c0.3,0.1,1.9,1.4,1.9,1.4s-0.6,0.2-0.7,0.7c-0.1,0.4,0,0.6,0,0.6s-1-0.7-1.2-0.9c-0.2-0.2-0.2-0.2-0.3-0.3
							c-0.1,0-0.3-0.1-0.3-0.1s-0.2,0.2-0.7,0.2c-0.5,0-0.5,0-0.8,0c-0.3,0.1-1.1,0.2-1.2,0.2c0,0,0.1-1.6-0.4-2.2
							C20.6,27.4,20.3,27.2,20.3,27.2L20.3,27.2z"/>
					</g>
				</g>
				<g>
					<g>
						<path class="st4" d="M22,37.6c0,0-0.1,0.3-0.6,0.1c-0.5-0.1-2.1-1.9-2.5-2.6s-0.2-2.5-0.2-2.5c0.5-0.4,2.1-1.8,1.8-2.5
							c-0.2-0.5-0.8-1.7-1.2-2.2c0-0.1,0-0.2,0-0.4l1-0.4c0,0,0.6-0.1,0.9,0.5c0,0.1,0.1,0.2,0.1,0.4c0.2,0.7,0.4,1.6,0.4,2v0
							c0,0.3-0.1,0.5-0.2,0.5l0,0c-0.2,0.4-0.6,1.3-0.7,1.9c-0.2,0.8,0,1.2,0,1.6c0,0.5,0.2,1,0.5,1.4C21.5,35.9,22,37.6,22,37.6z"
							/>
					</g>
				</g>
				<g>
					<g>
						<path class="st1" d="M20.8,30.6c-0.4,0.8-1.7,1.9-2.2,2c0,0,1.3-1.2,1.4-1.5c0.1-0.3,0.2-0.6,0.2-1.1
							c-0.1-0.3-0.5-1.2-0.9-1.8c0-0.2,0-0.4,0-0.6c0.4,0.1,1,0.4,1,0.4l-0.1,0.3l0.5,0C20.6,28.2,21.2,29.8,20.8,30.6z"/>
					</g>
				</g>
				<g>
					<g>
						<path class="st1" d="M14.9,27.9l-0.2-0.3c0,0-0.2-0.2-0.3,0.2c-0.2,0.4-0.2,0.6-0.2,0.7s-0.2,0.2-0.5,0.2c-0.3,0-0.3,0-0.6,0
							c-0.3,0-0.3,0.2-0.5,0.1c-0.2-0.1-0.4-0.2-0.5-0.1c-0.2,0.1-0.7,0.1-1,0.2c-0.3,0.1-1.5,1.9-1.5,1.9s0.8-0.3,1.3,0
							c0.2,0.2,0.4,0.5,0.4,0.5s0.5-0.6,0.6-0.7c0.1-0.2,0.1-0.1,0.2-0.1c0,0,0.2,0.1,0.3,0.1c0.2,0,2.5,0.1,2.5,0.1L14.9,27.9z"/>
					</g>
				</g>
				<g>
					<g>
						<path class="st4" d="M18.1,32.2l0.5,0.4c0,0,0.5,2.5-0.1,4c-0.6,1.6-0.9,2.2-1.6,2.1c-0.7-0.1-0.5-0.3-0.9-0.6
							c-0.4-0.3-0.5-0.1-0.6-0.4c-0.1-0.3,0-2.4,0.1-3.5c0-1.1,0.2-1.3,0-1.8c-0.2-0.4-0.6-1.4-0.7-1.8c-0.1-0.5-0.4-2.1-0.2-2.5
							s0.2-0.5,0.2-0.5s1,0.1,1.3,0.2c0.2,0,0.6,0,0.8,0.2c0,0-0.4,1.2-0.5,1.7C16.1,30.1,18.1,32.2,18.1,32.2z"/>
					</g>
				</g>
				<g>
					<g>
						<path class="st1" d="M17,28.2c0,0,0.1,0.5-0.1,0.9c-0.2,0.4-0.5,0.8-0.5,1c0,0.3,2.2,2.6,2.2,2.6s-1.3-0.9-1.9-1.4
							c-0.6-0.5-1.2-1.1-1.2-1.6c0-0.5,0.2-0.8,0.2-0.8l0.4,0.1l-0.2-0.3c0,0,0.3,0,0.4-0.1s0.5-0.6,0.5-0.6L17,28.2z"/>
					</g>
				</g>
				<g>
					<g>
						
							<ellipse transform="matrix(0.8467 -0.5321 0.5321 0.8467 -12.1809 13.1834)" class="st0" cx="16.8" cy="27.7" rx="0.3" ry="0.5"/>
					</g>
				</g>
			</g>
			<g>
				<g>
					<path class="st1" d="M18.9,26.6L18.9,26.6c0.1,0,0.1-0.6-0.2-1.1s-1-0.6-1.6-0.5c-0.6,0.1-1.2,0.9-1.2,1.4
						c0,0.5,0.8,1.2,0.8,1.2l0.1,0c0,0-0.4-0.7-0.4-0.9c0-0.3,0.1-0.5,0.1-0.5s0.5,0,1.1-0.3c0.7-0.3,0.7-0.3,0.8-0.2
						C18.6,25.7,18.7,26,18.9,26.6z"/>
				</g>
			</g>
		</g>
	</g>
	<g>
		<g>
			<path class="st7" d="M26.7,31.4C26.7,31.4,26.7,31.4,26.7,31.4c-0.1-0.1-0.2-0.1-0.1-0.2c0,0,0.3-0.6,0.8-0.8
				c0.1,0,0.2,0,0.2,0.1c0,0.1,0,0.2-0.1,0.2c-0.3,0.1-0.6,0.5-0.6,0.7C26.8,31.4,26.8,31.4,26.7,31.4z"/>
		</g>
	</g>
	<g>
		<g>
			<path class="st7" d="M26.7,31.4c-0.1,0-0.1-0.1-0.1-0.1c0,0,0-0.7,0.4-1.2c0.1-0.1,0.1-0.1,0.2,0c0.1,0.1,0.1,0.1,0,0.2
				c-0.3,0.4-0.3,1-0.3,1C26.9,31.4,26.8,31.4,26.7,31.4L26.7,31.4z"/>
		</g>
	</g>
	<g>
		<g>
			<path class="st7" d="M26.3,31.4C26.3,31.4,26.3,31.4,26.3,31.4c-0.1,0-0.2-0.1-0.1-0.2c0-0.1,2.2-11.9,2.3-12.8
				c0-0.1,0.1-0.1,0.2-0.1c0.1,0,0.1,0.1,0.1,0.2c-0.1,0.9-2.2,12.3-2.3,12.8C26.5,31.3,26.4,31.4,26.3,31.4z"/>
		</g>
	</g>
	<g>
		<g>
			<path class="st7" d="M27.9,18.9c-0.2,0-0.3,0-0.5-0.1c-0.1,0-0.1-0.1,0-0.2c0-0.1,0.1-0.1,0.2,0c0.3,0.2,0.8,0,1.1-0.4
				c0.1-0.2,0.2-0.5,0.2-0.7c0-0.2-0.1-0.4-0.3-0.5c-0.1,0-0.1-0.1,0-0.2c0-0.1,0.1-0.1,0.2,0c0.2,0.2,0.4,0.4,0.4,0.7
				c0,0.3-0.1,0.6-0.3,0.9C28.7,18.6,28.3,18.9,27.9,18.9z"/>
		</g>
	</g>
	<g>
		<g>
			<path class="st7" d="M27,32.3C27,32.3,27,32.3,27,32.3c-0.1-0.1-0.2-0.1-0.1-0.2c0.4-0.7,0.2-1.4,0.2-1.4c0-0.1,0-0.2,0.1-0.2
				c0.1,0,0.2,0,0.2,0.1c0,0,0.3,0.8-0.2,1.6C27.1,32.3,27.1,32.3,27,32.3z"/>
		</g>
	</g>
	<g>
		<g>
			<path class="st7" d="M11.3,31.4c-0.1,0-0.1,0-0.1-0.1c-0.5-0.8-1.4-0.6-1.5-0.6c-0.1,0-0.2,0-0.2-0.1c0-0.1,0-0.2,0.1-0.2
				c0,0,1.2-0.2,1.8,0.7C11.5,31.2,11.5,31.3,11.3,31.4C11.4,31.4,11.3,31.4,11.3,31.4z"/>
		</g>
	</g>
	<g>
		<g>
			<path class="st7" d="M9.6,31.6c0,0-0.1,0-0.1,0c-0.1-0.1-0.1-0.2,0-0.2c0,0,0.6-0.6,1.7-0.4c0.1,0,0.1,0.1,0.1,0.2
				c0,0.1-0.1,0.1-0.2,0.1c-0.9-0.2-1.4,0.3-1.4,0.3C9.7,31.5,9.6,31.6,9.6,31.6z"/>
		</g>
	</g>
	<g>
		<g>
			<path class="st7" d="M9.3,33.4c0,0-0.1,0-0.1-0.1c0-0.1,0-0.2,0-0.2c0,0,0.7-0.5,0.8-1.1c0.1-0.7,0.2-1,0.3-1
				c0-0.1,0.1-0.1,0.2-0.1c0.1,0,0.1,0.1,0.1,0.2c0,0-0.1,0.3-0.2,0.9C10.2,32.8,9.4,33.3,9.3,33.4C9.3,33.4,9.3,33.4,9.3,33.4z"/>
		</g>
	</g>
	<g>
		<g>
			<path class="st7" d="M10.8,15c-0.4,0-0.8-0.1-1.2-0.3c-0.4-0.2-0.8-0.6-0.9-1c-0.2-0.4-0.2-0.8,0-1.1c0-0.1,0.1-0.1,0.2-0.1
				C9,12.5,9,12.6,9,12.7c-0.3,0.5,0.1,1.2,0.8,1.7c0.4,0.2,0.8,0.3,1.1,0.3c0.3,0,0.6-0.2,0.7-0.4c0-0.1,0.1-0.1,0.2-0.1
				c0.1,0,0.1,0.1,0.1,0.2c-0.2,0.3-0.5,0.5-1,0.5C10.9,15,10.9,15,10.8,15z"/>
		</g>
	</g>
	<g>
		<g>
			<path class="st7" d="M13.6,21.9c-0.2,0-0.4,0-0.6-0.1c-0.9-0.2-1.4-0.9-1.3-1.5c0-0.1,0.1-0.1,0.2-0.1c0.1,0,0.1,0.1,0.1,0.2
				c-0.1,0.5,0.4,1,1.1,1.2c0.4,0.1,0.7,0.1,1,0c0.3-0.1,0.4-0.3,0.5-0.5c0-0.1,0.1-0.1,0.2-0.1c0.1,0,0.1,0.1,0.1,0.2
				c-0.1,0.3-0.3,0.5-0.7,0.7C14,21.9,13.8,21.9,13.6,21.9z"/>
		</g>
	</g>
	<g>
		<g>
			<g>
				<path class="st7" d="M18.8,21.2c-0.1,0-0.1,0-0.2,0c-0.8-0.1-1.5-0.6-1.4-1.2c0-0.1,0.1-0.1,0.2-0.1c0.1,0,0.1,0.1,0.1,0.2
					c0,0.4,0.5,0.8,1.1,0.9c0.3,0,0.7,0,0.9-0.2c0.2-0.1,0.4-0.3,0.4-0.5c0-0.1,0.1-0.1,0.2-0.1c0.1,0,0.1,0.1,0.1,0.2
					c0,0.3-0.2,0.6-0.5,0.7C19.4,21.1,19.1,21.2,18.8,21.2z"/>
			</g>
		</g>
	</g>
	<g>
		<g>
			<g>
				<path class="st7" d="M23,20.1c-0.7,0-1.3-0.4-1.3-0.9c0-0.1,0.1-0.2,0.1-0.2c0.1,0,0.2,0.1,0.2,0.1c0,0.4,0.6,0.7,1.2,0.6
					c0.3,0,0.6-0.1,0.8-0.3c0.2-0.2,0.3-0.3,0.3-0.5c0-0.1,0.1-0.2,0.1-0.2c0.1,0,0.2,0.1,0.2,0.1c0,0.3-0.1,0.6-0.4,0.8
					c-0.3,0.2-0.6,0.3-1,0.4C23.2,20.1,23.1,20.1,23,20.1z"/>
			</g>
		</g>
	</g>
	<g>
		<g>
			<path class="st7" d="M10.3,30.7c-0.1,0-0.1-0.1-0.1-0.1L9.6,14.5c0-0.1,0.1-0.2,0.1-0.2c0.1,0,0.2,0.1,0.2,0.1l0.5,16.1
				C10.4,30.7,10.3,30.7,10.3,30.7C10.3,30.7,10.3,30.7,10.3,30.7z"/>
		</g>
	</g>
	<g>
		<g>
			<path class="st7" d="M15.6,46.2c-0.1,0-0.1,0-0.1-0.1c-0.3-0.7-0.5-1.4-0.5-2.2c0-0.1,0.1-0.2,0.1-0.2c0.1,0,0.2,0.1,0.2,0.1
				c0.1,0.8,0.2,1.4,0.5,2.1C15.8,46.1,15.8,46.2,15.6,46.2C15.7,46.2,15.6,46.2,15.6,46.2z"/>
		</g>
	</g>
	<g>
		<g>
			<path class="st7" d="M15.3,46.3c-0.1,0-0.1,0-0.1-0.1c-0.3-0.7-0.5-1.4-0.5-2.2c0-0.1,0.1-0.2,0.1-0.2c0.1,0,0.2,0.1,0.2,0.1
				c0.1,0.8,0.2,1.4,0.5,2.1C15.4,46.1,15.4,46.2,15.3,46.3C15.3,46.3,15.3,46.3,15.3,46.3z"/>
		</g>
	</g>
	<g>
		<g>
			<path class="st7" d="M14.9,46.5c-0.1,0-0.1,0-0.1-0.1c-0.3-0.7-0.5-1.4-0.5-2.2c0-0.1,0.1-0.2,0.1-0.2c0.1,0,0.2,0.1,0.2,0.1
				c0.1,0.8,0.2,1.4,0.5,2.1C15.1,46.3,15.1,46.4,14.9,46.5C15,46.5,14.9,46.5,14.9,46.5z"/>
		</g>
	</g>
	<g>
		<g>
			<g>
				<path class="st7" d="M21.1,45.8C21.1,45.8,21.1,45.8,21.1,45.8c-0.7-0.1-1.3-0.3-1.9-0.7c-0.1,0-0.1-0.1-0.1-0.2
					c0-0.1,0.1-0.1,0.2-0.1c0.6,0.3,1.1,0.6,1.7,0.7c0.1,0,0.1,0.1,0.1,0.2C21.2,45.8,21.2,45.8,21.1,45.8z"/>
			</g>
		</g>
		<g>
			<g>
				<path class="st7" d="M21,46.2C21,46.2,21,46.2,21,46.2c-0.6-0.1-1.3-0.3-1.9-0.7c-0.1,0-0.1-0.1-0.1-0.2c0-0.1,0.1-0.1,0.2-0.1
					c0.6,0.3,1.1,0.6,1.7,0.7c0.1,0,0.1,0.1,0.1,0.2C21.1,46.1,21.1,46.2,21,46.2z"/>
			</g>
		</g>
		<g>
			<g>
				<path class="st7" d="M20.9,46.6C20.9,46.6,20.9,46.6,20.9,46.6c-0.7-0.1-1.4-0.4-2-0.7c-0.1,0-0.1-0.1-0.1-0.2
					c0-0.1,0.1-0.1,0.2-0.1c0.6,0.4,1.2,0.6,1.9,0.7c0.1,0,0.1,0.1,0.1,0.2C21.1,46.5,21,46.6,20.9,46.6z"/>
			</g>
		</g>
	</g>
</g>
</svg>
