<?xml version="1.0" encoding="utf-8"?>
<!-- Generator: Adobe Illustrator 18.0.0, SVG Export Plug-In . SVG Version: 6.00 Build 0)  -->
<!DOCTYPE svg PUBLIC "-//W3C//DTD SVG 1.1//EN" "http://www.w3.org/Graphics/SVG/1.1/DTD/svg11.dtd">
<svg version="1.1" id="Layer_1" xmlns="http://www.w3.org/2000/svg" xmlns:xlink="http://www.w3.org/1999/xlink" x="0px" y="0px"
	 viewBox="0 0 48 48" enable-background="new 0 0 48 48" xml:space="preserve">
<g>
	<g>
		<path fill="#FFD15C" d="M27.2,7.2c-0.1,0.7-0.4,1.2-0.7,1.2s-0.4-0.5-0.2-1.2C26.4,6.5,26.7,6,27,6C27.2,6,27.3,6.5,27.2,7.2z"/>
	</g>
	<g>
		<path fill="#FFD15C" d="M19,7.2c0.1,0.7,0.4,1.2,0.7,1.2s0.4-0.5,0.2-1.2C19.8,6.5,19.5,6,19.3,6C19,6,18.9,6.5,19,7.2z"/>
	</g>
	<g>
		<path fill="#FFD15C" d="M26.2,12.1c0,0,0.2-1.1,0-1.3C26,10.6,26,10.6,26,10.6s0.4-2.6,0.5-3.9C26.6,5.4,26.7,4,26,3.4
			c-0.7-0.6-5.3-1.3-5.6-0.9s-1,1.9-1,1.9S20,8.7,20,9.1s0.4,1.8,0.9,2.1l-0.2,0.3l0,1l1.2,1.5C21.8,14,25.6,13.6,26.2,12.1z"/>
	</g>
	<path fill="#F5B54C" d="M23.4,12.4c-1.6,0.4-2.5-1.2-2.5-1.2l-0.2,0.3l0,1l1.2,1.5c0,0,1.1-0.1,2.2-0.5c0.1-0.1,0.3-0.2,0.4-0.3
		c1.1-1.1,1.6-2.6,1.6-2.6S25,12,23.4,12.4z"/>
	<g>
		<g>
			<path fill="#425A6B" d="M15.5,42.5c0,0-0.6,3.7,0.3,5.5h16.3c0,0,0.5-5.2-1.2-6.2L15.5,42.5z"/>
		</g>
		<g>
			<path fill="#425A6B" d="M16.7,27.2c0,0-0.6,0.8,0,2.7c0.6,1.8,0.6,1.8,0.6,1.8l-1.6,6.1c0,0-1.4-2.9-1.7-3.5
				c-0.4-0.7-1.7-2.7-1.7-4.3c0-1.6-0.2-5.2,0.2-6.8c0.4-1.6,1.5-7.3,2.3-7.8l1.4,2.8L16.7,27.2z"/>
		</g>
		<g>
			<path fill="#56BFEB" d="M26.7,12.3l-0.3,3.6l-4.7,14.6L19.5,30c0,0-1.7-9.8-1.1-12.7s1.4-3.5,1.4-3.5l2.5,0.3L26.7,12.3z"/>
		</g>
		<g>
			<path fill="#8AD6F7" d="M26.2,10.8l0.5,0.7l0.1,0.6c0.1,0.5-0.1,1.1-0.5,1.4c-0.9,0.6-2.3,1.3-3.8,1.3l-0.1-0.8
				C22.4,13.9,26.3,12.3,26.2,10.8z"/>
		</g>
		<g>
			<path fill="#8AD6F7" d="M20.7,11.5c0,0-0.1,0.3,0.1,0.5c0.2,0.3,1.5,1.8,1.5,1.8l-0.5,1c0,0-1.8-1.1-1.8-1.6
				C20.1,12.8,20.5,11.7,20.7,11.5z"/>
		</g>
		<g>
			<g>
				<path fill="#F3F3F3" d="M22.9,13.8c0,0,1.1-0.8,2.1-1c0,0,0.6,1.4,0,2.5c0,0-1.7-0.4-2.1-0.8L22.9,13.8z"/>
			</g>
			<g>
				<path fill="#F3F3F3" d="M22.4,14.6c0,0-1,1-1.9,1.3c0,0-0.9-1.3-0.4-2.4c0,0,1.7,0.1,2.2,0.4L22.4,14.6z"/>
			</g>
			<g>
				<path fill="#CED6E0" d="M23.2,14.7c0,0.1-1,0.2-1,0c0-0.4,0-0.7-0.2-0.9c0-0.2,1.1-0.3,1.1-0.2C23.1,14,23.1,14.3,23.2,14.7z"/>
			</g>
		</g>
		<ellipse fill="#344A5E" cx="30.7" cy="24.5" rx="1.6" ry="5.2"/>
		<g>
			<path fill="#344A5E" d="M28,12.8l0.3,0.1l5.2,2.2c0,0-2.2,1.9-2.8,7.1c0,0,0.3,11.7,0.8,14.3c0.5,2.6,1.1,7.5,1.1,7.5
				s-11.6,2.4-18.5-0.8c0,0,2.4-13.8,2.5-14.6c0.1-0.8,0.1-1.1,0.1-1.1l-1.1-4.9c0,0-2.5-4.6-0.9-7.2c0,0,2.9-0.9,3.4-1.3
				c0.5-0.4,2.1-1.8,2.1-1.8l-0.8,2.8c0,0-2.3,6.3-0.9,9.5c1.4,3.2,2.7,5.1,2.7,5.1l4.9-13L28,12.8z"/>
		</g>
		<path fill="#425A6B" d="M21,29.4l0.1,0.6c0,0.1,1.2,10.9,0,14.7c0.1,0,0.2,0,0.3,0c0.5-1.6,0.7-4.4,0.5-8.4
			C21.7,33,21.3,30,21.3,30l-0.1-0.4l-0.1,0.2C21.2,29.8,21.1,29.7,21,29.4z"/>
		<g>
			<path fill="#425A6B" d="M26.7,11.5c0,0,0.2,0.5,0,1.2c-0.2,0.7-2.1,6.6-2.1,6.6l-3.3,10.5c0,0,3.7-7.6,4-8.1c0.3-0.5,3-7,3.1-7.7
				c0.1-0.7,0-1,0-1s-0.3-0.2-0.8-0.6C27.1,11.9,26.7,11.5,26.7,11.5z"/>
		</g>
		<g>
			<path fill="#425A6B" d="M20.3,12.4c0,0-1.1,1-1.6,1.9c-0.4,0.9-0.8,3.2-1.1,4.5c-0.5,2.1-0.1,5.4,0.4,6.6
				c0.4,0.9,3.3,4.7,3.3,4.7s-2.8-5.8-2.7-7.7C18.7,20.4,20.3,12.4,20.3,12.4z"/>
		</g>
		<g>
			<path fill="#CED6E0" d="M29.4,29c0,0-0.6-0.2-0.8-0.1c-0.2,0.1-1.6,4,0.3,4.7c0,0,2.7-0.6,2.6-1.7C31.3,30.8,29.4,29,29.4,29z"/>
		</g>
		<g>
			<path fill="#FFD15C" d="M30,32.3c0,0-2.7-0.2-3.5-0.7c-0.8-0.4-2.9-2.8-2.9-2.8s-1.6-1.3-1.9-1.5c-0.3-0.3-1.6-1.2-1.6-1.2
				s0-0.5,0.7-0.3c0,0,0.6-0.2,1.2,0.1c0.6,0.3,1.7,1.2,2,1.3c0.3,0.1,0.3,0.1,0.3,0.1s-0.3-0.6-0.7-0.8c-0.4-0.3-0.4-0.8,0.4-0.8
				c0.8,0,1.6,1.3,1.6,1.3c0,0,0.4,0.2,0.9,0.2c0.6,0,0.9-0.4,1.1-0.6c0.2-0.2,1.4-1.8,2.1-0.5l-0.6,0.7c0,0-0.1,0.3-0.2,0.4
				c0,0,0,1.1-0.3,1.5c0,0-0.2,0.6,0.3,0.9c0.4,0.3,1.6,0.7,1.6,0.7L30,32.3z"/>
		</g>
		<g>
			<path fill="#425A6B" d="M35,32.1c-0.5,0.3-2.2,0.8-3.8,1.2c-1.5,0.4-2.8,0.6-2.9,0.6c0,0,1-0.4,1.2-1.6c0.1-1.2,0.5-3.1-1-3.4
				l2.4-0.7h0l-0.2-6c0.6-5.2,2.8-7.1,2.8-7.1s0.7,0.6,0.7,1.6c0,1.1,0.7,5.2,0.9,6.1c0.2,0.9,0.5,7.6,0.5,7.6S36.1,31.4,35,32.1z"
				/>
		</g>
		<g>
			<path fill="#F5B54C" d="M20.8,25.8c0,0-0.1,0.1-0.1,0.1c0,0,0,0,0,0.1c0,0,0,0,0,0c0,0,0,0,0,0c0,0,0,0,0,0c0,0,0,0,0,0l0,0
				c0,0,0,0,0,0c0,0,0,0,0,0l0,0c0,0,0,0,0,0l0,0l0,0c0.1,0,0.2,0.1,0.3,0.1c0.1,0,0.2,0.1,0.3,0.1l0,0l0,0c0.1,0,0.2,0.1,0.2,0.2
				c0.1,0.1,0.2,0.1,0.2,0.2c0.1,0.1,0.2,0.1,0.2,0.2c0,0,0.1,0.1,0.1,0.1c0,0,0,0,0.1,0.1c0,0,0,0,0,0.1c0,0,0.1,0.1,0.1,0.1
				c0,0,0,0,0,0l0,0c0,0,0,0,0.1,0c0,0,0.1,0.1,0.1,0.1c0,0,0.1,0.1,0.1,0.1c0.1,0.1,0.2,0.1,0.2,0.2l0.2,0.2
				c-0.1,0-0.2-0.1-0.3-0.1c-0.1-0.1-0.2-0.1-0.2-0.2c-0.1-0.1-0.2-0.1-0.2-0.2c0,0,0,0-0.1,0l0,0c0,0,0,0,0,0c0,0-0.1-0.1-0.1-0.1
				c0,0,0,0,0-0.1c0,0,0,0-0.1,0c0,0-0.1-0.1-0.1-0.1c-0.1-0.1-0.2-0.1-0.2-0.2c-0.1-0.1-0.2-0.1-0.2-0.2c-0.1-0.1-0.2-0.1-0.2-0.2
				l0,0c-0.1,0-0.2-0.1-0.3-0.1c-0.1,0-0.2-0.1-0.3-0.1l0,0l0,0l0,0c0,0,0,0,0,0l0,0c0,0,0,0,0,0c0,0,0,0,0,0l0,0c0,0,0,0,0,0
				c0,0,0,0,0,0c0,0,0,0,0,0c0,0,0,0,0,0c0,0,0,0,0-0.1C20.7,25.9,20.7,25.9,20.8,25.8z"/>
		</g>
		<g>
			<g>
				<path fill="#CED6E0" d="M25.3,18.8c0,0.4-0.3,0.5-0.7,0.5c-0.4,0-0.7-0.1-0.7-0.5c0-0.4,0.3-0.7,0.7-0.7
					C25,18.1,25.3,18.4,25.3,18.8z"/>
			</g>
			<g>
				<g>
					<g>
						<path fill="#F3F3F3" d="M30.6,25.1H18.6l0,0c0.2,0.5,0.7,0.8,1.2,0.8h9.6C29.9,25.8,30.4,25.6,30.6,25.1L30.6,25.1z"/>
					</g>
					<g>
						<path fill="#CED6E0" d="M30.6,24.6H18.6c-0.1,0-0.2,0.1-0.2,0.2l0,0c0,0.1,0.1,0.2,0.2,0.2h12.1c0.1,0,0.2-0.1,0.2-0.2l0,0
							C30.9,24.7,30.8,24.6,30.6,24.6z"/>
					</g>
				</g>
				<g>
					<path fill="#F3F3F3" d="M18.8,24.6c0-3.2,2.6-5.9,5.8-5.9c3.2,0,5.8,2.6,5.8,5.9"/>
				</g>
			</g>
		</g>
	</g>
	<g>
		<g>
			<path fill="#344A5E" d="M27.1,2.7c-0.2-0.7-1.6-2.3-2.4-2.6s-2.7-0.2-4.3,1.1c-0.7,0.6-1,1.5-1.1,2.3c-0.2,1.1,0,2.2,0.3,3.2
				l0.1,0.3h0.2c0-0.1-0.1-1.5,0.2-1.7c0.2-0.1,0.2-0.5,0.1-0.8c0-0.2,0.2-0.4,0.4-0.4c1.6,0.4,3.1,0.5,4.6,0.1c0.5-0.1,1,0.3,1,0.8
				c0,0.8,0,1.9,0,2.2h0.2c0.1-0.1,0.3-0.8,0.5-1.2C27,5.5,27.3,3.4,27.1,2.7z"/>
		</g>
	</g>
</g>
</svg>
