<?xml version="1.0" encoding="utf-8"?>
<!-- Generator: Adobe Illustrator 19.0.1, SVG Export Plug-In . SVG Version: 6.00 Build 0)  -->
<svg version="1.1" id="Layer_1" xmlns="http://www.w3.org/2000/svg" xmlns:xlink="http://www.w3.org/1999/xlink" x="0px" y="0px"
	 viewBox="-475 477 48 48" style="enable-background:new -475 477 48 48;" xml:space="preserve">
<style type="text/css">
	.st0{fill:#415A6B;}
	.st1{fill:#344A5E;}
	.st2{fill:#FFD15C;}
	.st3{fill:#CED6E0;}
	.st4{fill:#F7B64C;}
	.st5{fill:#F3F3F3;}
	.st6{fill:#2D4151;}
	.st7{fill:#F3705A;}
	.st8{fill:#F05540;}
</style>
<g>
	<g>
		<g>
			<g>
				<path class="st0" d="M-445.8,523.4c0,0-0.1,0.5,0,0.5c0.1,0.1,0.4,0.3,0.4,0.3s0.1-0.1,0.2,0.1c0.1,0.1,0.1,0.3,0.4,0.5
					c0.3,0.2,1.9,0.5,1.9-0.1c0.1-0.6-1.4-1.3-1.4-1.3L-445.8,523.4z"/>
			</g>
		</g>
		<g>
			<g>
				<path class="st1" d="M-445.7,523.6c0,0,0.4,0.6,0.7,0.8c0.3,0.2,0.7,0.3,1.3,0.3c0.6,0,0.8,0,0.8,0s0.1-0.2-0.2-0.7
					c-0.3-0.5-0.7-1.2-0.9-1.5c-0.2-0.2-0.4-0.6-0.4-0.6l-1.5,0.7C-445.9,522.5-446,523.2-445.7,523.6z"/>
			</g>
		</g>
	</g>
	<g>
		<g>
			<g>
				<path class="st0" d="M-450.4,523.4c0,0,0.1,0.5,0,0.5c-0.1,0.1-0.4,0.3-0.4,0.3s-0.1-0.1-0.2,0.1c-0.1,0.1-0.1,0.3-0.4,0.5
					c-0.3,0.2-1.9,0.5-1.9-0.1c-0.1-0.6,1.4-1.3,1.4-1.3L-450.4,523.4z"/>
			</g>
		</g>
		<g>
			<g>
				<path class="st1" d="M-450.5,523.6c0,0-0.4,0.6-0.7,0.8c-0.3,0.2-0.7,0.3-1.3,0.3c-0.6,0-0.8,0-0.8,0s-0.1-0.2,0.2-0.7
					c0.3-0.5,0.7-1.2,0.9-1.5c0.2-0.2,0.4-0.6,0.4-0.6l1.5,0.7C-450.3,522.5-450.2,523.2-450.5,523.6z"/>
			</g>
		</g>
	</g>
	<g>
		<g>
			<path class="st0" d="M-451.7,506.9c0,0,0.1,3,0.3,4.2c0.3,1.2,0.3,2.1,0,3c-0.3,0.9-0.2,1.9-0.3,2.2c-0.1,0.4-0.3,3.7-0.4,4.6
				c-0.1,0.9,0,1,0,1s0.9,0.5,1.4,0.7c0.5,0.2,0.7,0.1,0.7,0.1s0.8-3.9,0.9-4.9c0.1-1,0.5-4.6,0.7-5.7c0.2-1.2,0.9-4.2,0.9-4.2
				s0.3,2.2,0.4,3c0.1,0.9,0.7,3.9,0.7,5.5c0.1,1.6,0.6,6.1,0.7,6.4c0,0,0.5-0.3,0.9-0.4c0.4,0,1-0.2,1-0.2s0.4-3.5,0.4-4.7
				c0-1.2-0.2-2.4-0.5-3.2c-0.2-0.8,1-6.3,0.7-8.4c-0.4-2.2-0.4-2.2-0.4-2.2L-451.7,506.9z"/>
		</g>
	</g>
	<g>
		<ellipse class="st0" cx="-443.9" cy="497.5" rx="0.9" ry="1.7"/>
	</g>
	<g>
		<g>
			<path class="st2" d="M-448.7,492.5h2.6v-2c0.2-0.4,0.2-1,0.2-1l0-0.3c0,0,0.3-1.6,0.1-2.1c-0.2-0.5-1.1-0.4-1.7-0.4
				c-0.7,0-1.3,0.2-1.3,0.5c0,0.3-0.2,2.2-0.2,2.2s0.1,0.7,0.3,1V492.5z"/>
		</g>
	</g>
	<g>
		<g>
			<polygon class="st3" points="-447.5,492.5 -447.4,492.5 -445.5,492.5 -447.9,500 -449.4,492.3 			"/>
		</g>
	</g>
	<g>
		<g>
			<g>
				
					<ellipse transform="matrix(0.9908 0.1356 -0.1356 0.9908 62.242 64.9802)" class="st2" cx="-445.7" cy="489.3" rx="0.3" ry="0.6"/>
			</g>
		</g>
		<g>
			<g>
				
					<ellipse transform="matrix(-0.9908 0.1356 -0.1356 -0.9908 -827.1323 1034.863)" class="st2" cx="-448.8" cy="489.3" rx="0.3" ry="0.6"/>
			</g>
		</g>
		<g>
			<g>
				<path class="st0" d="M-445.9,489.5h0.1c0,0,0.4-0.9,0.5-1.7c0-0.9-0.8-1.6-1.7-1.7c-0.9,0-1.8,0.3-1.9,1.2c-0.1,0.9,0,2.3,0,2.3
					h0.1c0,0,0-0.5,0.1-0.9s0.2-0.8,0.2-1.1c0-0.3,0.2-0.3,0.5-0.3c0.2,0.1,1.4,0,1.7-0.2c0.2-0.2,0.6,0.4,0.6,0.7
					c-0.1,0.3,0.1,0.5,0,0.7C-445.9,488.8-445.9,489.5-445.9,489.5z"/>
			</g>
		</g>
	</g>
	<g>
		<path class="st4" d="M-447.6,491.3c-0.7-0.2-1.1-0.9-1.1-0.9v1.8c0.4-0.1,0.9-0.2,1.4-0.5c1-0.6,1.2-1.3,1.2-1.3
			S-446.9,491.5-447.6,491.3z"/>
	</g>
	<g>
		<g>
			<path class="st5" d="M-446.1,491.4l-1.3,1.1c0,0,0.9,0,1.3,1l0.4-1.1C-445.6,492.3-445.8,491.6-446.1,491.4z"/>
		</g>
	</g>
	<g>
		<g>
			<path class="st5" d="M-448.7,491.4l1.2,1.1c0,0-0.8,0.3-1,0.6l-0.4-1.3L-448.7,491.4z"/>
		</g>
	</g>
	<g>
		<g>
			<path class="st1" d="M-449,491.7c0,0-1.4,0.4-2.1,0.8c-0.7,0.3-1,0.4-1,0.4s1.2,4.2,1,5.9c-0.2,1.7-0.8,8.6-0.8,8.6
				s4.4,0.9,4.6-1.2c0.1-2-0.7-7.8-0.7-7.8l-0.4-4.9L-449,491.7z"/>
		</g>
	</g>
	<g>
		<path class="st6" d="M-447.3,506.2c0.1-1.7-0.4-6-0.6-7.3c-0.1,0.7-0.2,1.3-0.2,1.3l0,0l0,5.6c0,0.4,0.2,0.8,0.5,1.1
			C-447.5,506.7-447.3,506.5-447.3,506.2z"/>
	</g>
	<g>
		<g>
			<path class="st1" d="M-445.3,492.4c0,0,2.3,0.8,2.5,1.1c0,0-0.9,1.7-1,3.6c-0.1,1.9,0.7,9.6,0.7,9.6s-2.1,1-3.8,0.6
				c-0.6-0.2-1.1-0.8-1.1-1.4l0-5.6c0,0,0.2-2.5,1.1-4.1C-446,494.4-445.3,492.4-445.3,492.4z"/>
		</g>
	</g>
	<g>
		<g>
			<path class="st2" d="M-443.9,506.3c0,0-0.1,0.7-0.2,0.9c-0.1,0.2-0.2,0.3-0.2,0.6c-0.1,0.3-0.1,0.8-0.1,1c0,0.2,0.1,0.5,0.1,0.5
				s0.4,0,0.4-0.5c0-0.4,0.1-0.8,0.1-0.8s0.1,0.2,0.2,0.3c0.1,0.2-0.1,0.9,0,1c0.1,0.1,0.2,0.2,0.3,0c0,0,0.3,0,0.3-0.2
				c0,0,0.2,0,0.3-0.3c0.1-0.3,0.2-0.8,0.2-0.8s0.1-0.8-0.1-1.1s-0.2-0.9-0.2-0.9L-443.9,506.3z"/>
		</g>
	</g>
	<g>
		<g>
			<path class="st0" d="M-445.8,491.7c0,0-0.3,1.8-0.5,2.3s-1.2,2.3-1.5,3.4c-0.3,1.1-0.2,2.7-0.2,2.7s0.4-2.3,0.9-3.3
				c0.5-1,2.4-3.1,2.4-3.1l-0.5-0.6h0.4c0,0,0.1-0.4-0.3-0.7S-445.8,491.9-445.8,491.7z"/>
		</g>
	</g>
	<g>
		<g>
			<path class="st0" d="M-448.8,491.5c0,0,0.7,1.8,0.8,2.8c0.2,0.9,0,4.4,0,4.4s-0.4-3.3-0.8-4.2c-0.4-1-0.4-1-0.4-1l0.2-0.3h-0.4
				c0,0-0.1-0.8,0.1-1.2C-449,491.6-448.8,491.5-448.8,491.5z"/>
		</g>
	</g>
	<g>
		<g>
			<path class="st0" d="M-441.9,499.5c0,1-0.1,4.9-0.1,4.9l-0.2,2.5c0,0-0.5-0.1-1-0.2c-0.4,0-0.8-0.1-0.9-0.1c0,0,0.5-7.2,0.5-8.2
				v0c0-1,0-2,0-2c0.2-1.6,1-3,1-3s0.4,0.2,0.4,0.9c0,0.7,0.3,2,0.2,2.8C-442.1,498-441.9,498.4-441.9,499.5z"/>
		</g>
	</g>
	<g>
		<g>
			<path class="st0" d="M-452.1,492.9c0,0-0.2,0.1-0.5,1.3c-0.4,1.2-0.4,1.6-0.7,2c-0.3,0.4-0.3,0.3-0.3,0.6c0,0.3-0.5,1.3-0.5,1.9
				s0.1,1.3,0.5,1.6c0.3,0.2,0.9,0.2,1.1,0c0.2-0.2,0.8-0.9,0.9-1.1c0-0.2,0.4-1.3,0.4-1.3l0.4-1.8L-452.1,492.9z"/>
		</g>
	</g>
	<g>
		<g>
			<path class="st1" d="M-451.5,495.9c0.1,0.4,0.5,0.6,0.5,0.2c0-0.3-0.1-0.6-0.3-1c-0.2-0.4-0.6-0.3-0.6-0.3
				C-451.7,495.2-451.6,495.6-451.5,495.9z"/>
		</g>
	</g>
	<g>
		<path class="st1" d="M-452.1,494.9c0,0-0.3,0.5-0.4,0.8c-0.1,0.3-0.4,0.8-0.6,1c-0.2,0.2-0.6,0.9-0.6,0.9s-0.1-0.1,0.2-0.4
			c0.2-0.3,0.2-0.3,0.4-0.7c0.2-0.4,0.5-1.2,0.8-1.7c0.3-0.5,0.5-0.9,0.5-0.9L-452.1,494.9z"/>
	</g>
	<g>
		<g>
			<path class="st3" d="M-450.9,495.1c-0.1,0-0.2-0.1-0.2-0.2v-17.7c0-0.1,0.1-0.2,0.2-0.2c0.1,0,0.2,0.1,0.2,0.2v17.7
				C-450.7,495-450.7,495.1-450.9,495.1z"/>
		</g>
	</g>
	<g>
		<g>
			<path class="st7" d="M-439.8,485L-439.8,485c0,0-1-0.4-1,0.2c0,0-5.1-0.6-7.4,0.4c0,0-6-0.9-9.5-0.1c0,0-2.1-0.8-4.4,0
				c0.8-1.1,3.6-4.4,5.9-5.3c2.8-1.1,5.3-1.6,5.3-1.6s3.8,0.7,5.9,1.7C-443.2,481.2-440.5,484.1-439.8,485z"/>
		</g>
	</g>
	<g>
		<g>
			<g>
				<path class="st8" d="M-448.2,486c-0.1,0-0.1,0-0.1-0.1c0-0.9-0.6-3-1-4.4c-0.1-0.2-0.1-0.5-0.2-0.7c-0.3-1.1-1.1-1.9-1.3-2.1
					c-0.3,0.1-1.6,0.7-2.6,1.2c-1.1,0.5-3.4,3.4-4.3,5.9c0,0.1-0.1,0.1-0.1,0.1c-0.1,0-0.1-0.1-0.1-0.1c0.8-2.4,3.2-5.5,4.4-6
					c1.1-0.5,2.6-1.2,2.6-1.2c0,0,0.1,0,0.1,0c0,0,1.1,0.9,1.5,2.2c0.1,0.2,0.1,0.4,0.2,0.7c0.4,1.4,1,3.5,1,4.5
					C-448.1,485.9-448.1,486-448.2,486L-448.2,486z"/>
			</g>
		</g>
		<g>
			<g>
				<path class="st8" d="M-440.6,485.5C-440.6,485.5-440.7,485.5-440.6,485.5c-0.5-0.5-2.4-2.9-3.4-3.7c-1.1-0.9-4.2-2.6-6.9-3.1
					c-0.1,0-0.1-0.1-0.1-0.1c0-0.1,0.1-0.1,0.1-0.1c0,0,3.8,0.7,5.9,1.7c1.8,0.9,4.5,3.9,5.3,4.8c0,0,0,0.1,0,0.1c0,0-0.1,0-0.1,0
					c-0.5-0.6-3.4-3.8-5.2-4.7c-1-0.5-2.3-0.9-3.4-1.2c1.9,0.7,3.7,1.8,4.5,2.4c0.9,0.8,2.8,3,3.3,3.7
					C-440.5,485.4-440.5,485.5-440.6,485.5C-440.6,485.5-440.6,485.5-440.6,485.5z"/>
			</g>
		</g>
		<g>
			<g>
				<path class="st8" d="M-462.3,485.9C-462.3,485.9-462.3,485.9-462.3,485.9c-0.1-0.1-0.1-0.1-0.1-0.2c0.6-0.7,3.6-4.5,6.1-5.6
					c2.8-1.1,5.3-1.6,5.4-1.6c0.1,0,0.1,0,0.1,0.1c0,0.1,0,0.1-0.1,0.1c0,0-2.5,0.5-5.3,1.6C-458.7,481.4-461.7,485.1-462.3,485.9
					C-462.2,485.9-462.3,485.9-462.3,485.9z"/>
			</g>
		</g>
	</g>
	<g>
		<g>
			<path class="st2" d="M-450.1,494.9c0.1,0.2-0.1,0.3-0.3,0.3c-0.2,0-0.4,0.1-0.4,0.1c0,0.1-0.3,1-0.3,1c-0.1,0-0.3-0.2-0.3-0.4v0
				c0,0,0,0,0-0.1c-0.1-0.3-0.3-1-0.3-1s0.1-0.9,0.2-1.2c0-0.3,0.4-0.4,0.6-0.4c0.2,0,0.7-0.1,0.9,0.2c0.2,0.3,0,0.4,0,0.4
				c0.3,0.2,0,0.4,0,0.4C-450,494.5-450.1,494.9-450.1,494.9z"/>
		</g>
	</g>
</g>
</svg>
