<?xml version="1.0" encoding="utf-8"?>
<!-- Generator: Adobe Illustrator 18.0.0, SVG Export Plug-In . SVG Version: 6.00 Build 0)  -->
<!DOCTYPE svg PUBLIC "-//W3C//DTD SVG 1.1//EN" "http://www.w3.org/Graphics/SVG/1.1/DTD/svg11.dtd">
<svg version="1.1" id="Layer_1" xmlns="http://www.w3.org/2000/svg" xmlns:xlink="http://www.w3.org/1999/xlink" x="0px" y="0px"
	 viewBox="0 0 48 48" enable-background="new 0 0 48 48" xml:space="preserve">
<g>
	<g>
		<g>
			<g>
				<g>
					<path fill="#FFD15C" d="M38.6,24.1c1.8,7.7-4.6,15.5-14.6,15.5c-10.1,0-16.4-7.8-14.6-15.5C10.8,18,17.8,9.5,24,9.5
						C30.2,9.5,37.2,18,38.6,24.1z"/>
				</g>
				<g>
					<path fill="#FFD15C" d="M31.3,5.5c-0.9,1.1-4.3,5.3-4.1,6c-2.2,0-4.4,0-6.5,0c0.2-0.8-3.1-4.9-4.1-6c-0.3-0.6-0.7-1.1-1-1.7
						c-0.3-0.5-0.4-1.2,0-1.8c0.3-0.6,1.2-1.2,1.8-0.9c0.6,0.3,0.8,1.1,1.3,1.5c0.6,0.4,1.4,0.2,1.9-0.3c0.6-0.4,1-1.1,1.7-1.4
						c1-0.7,2.2-0.7,3.2,0c0.6,0.4,1.1,1,1.7,1.4c0.6,0.4,1.4,0.7,1.9,0.3C29.8,2.1,30,1.3,30.6,1C31.2,0.8,32,1.4,32.4,2
						c0.3,0.6,0.2,1.2,0,1.8C32.1,4.4,31.6,4.9,31.3,5.5z"/>
				</g>
			</g>
			<g>
				<path fill="#F7B64C" d="M23.2,32.9v-1.5c-1.7-0.3-3.3-1-4.7-2.3l1.9-2.3c1.1,0.9,2,1.5,2.8,1.8v-3c-1.4-0.4-2.5-0.9-3.1-1.5
					c-0.7-0.6-1-1.5-1-2.6c0-1.2,0.4-2.1,1.1-2.8c0.8-0.7,1.7-1.2,3-1.3v-1h2.1v1c1.3,0.2,2.7,0.7,4,1.7l-1.7,2.4
					c-0.8-0.6-1.6-1-2.4-1.2v2.9c1.5,0.4,2.5,0.9,3.2,1.5c0.7,0.6,1,1.5,1,2.7c0,1.2-0.4,2.1-1.2,2.9c-0.8,0.8-1.8,1.2-3.1,1.4v1.4
					H23.2z M23.2,20.1c-0.6,0.2-0.9,0.6-0.9,1.1c0,0.5,0.3,0.9,0.9,1.2V20.1z M26.3,27.4c0-0.3-0.1-0.5-0.2-0.7
					c-0.1-0.2-0.4-0.4-0.8-0.5v2.5C26,28.5,26.3,28,26.3,27.4z"/>
			</g>
		</g>
		<g>
			<g>
				<polygon fill="#66C6B9" points="35.1,9.8 38.2,12.9 44.3,6.8 46.2,8.7 48,0 39.3,1.8 41.2,3.7 				"/>
			</g>
			<g>
				<polygon fill="#415A6B" points="38.2,35.1 35.1,38.2 41.2,44.3 39.3,46.2 48,48 46.2,39.3 44.3,41.2 				"/>
			</g>
		</g>
		<g>
			<g>
				<polygon fill="#F3705A" points="12.9,9.8 9.8,12.9 3.7,6.8 1.8,8.7 0,0 8.7,1.8 6.8,3.7 				"/>
			</g>
			<g>
				<polygon fill="#8AD7F8" points="9.8,35.1 12.9,38.2 6.8,44.3 8.7,46.2 0,48 1.8,39.3 3.7,41.2 				"/>
			</g>
		</g>
	</g>
</g>
</svg>
