<?xml version="1.0" encoding="utf-8"?>
<!-- Generator: Adobe Illustrator 19.0.1, SVG Export Plug-In . SVG Version: 6.00 Build 0)  -->
<svg version="1.1" id="Layer_1" xmlns="http://www.w3.org/2000/svg" xmlns:xlink="http://www.w3.org/1999/xlink" x="0px" y="0px"
	 viewBox="0 0 48 48" style="enable-background:new 0 0 48 48;" xml:space="preserve">
<style type="text/css">
	.st0{fill:#FFD15C;}
	.st1{fill:#415A6B;}
	.st2{fill:#F7B64C;}
	.st3{fill:#CED6E0;}
	.st4{fill:#344A5E;}
	.st5{fill:#F3F3F3;}
	.st6{fill:#F05540;}
	.st7{fill:#F3705A;}
	.st8{fill:#66C6B9;}
	.st9{fill:#55C0EB;}
	.st10{fill:#F5F6FB;}
	.st11{fill:#4ABAA5;}
	.st12{fill:#ADB3BA;}
	.st13{fill:#E8EAE9;}
	.st14{fill:#2E4556;}
	.st15{fill:#8AD7F8;}
	.st16{fill:#FFFFFF;}
	.st17{fill:#E54838;}
	.st18{fill:#3EAF99;}
	.st19{fill:#EFA943;}
	.st20{fill:#4CAEE5;}
	.st21{fill:#293F4F;}
	.st22{fill:#2D4456;}
	.st23{fill:#2E4454;}
	.st24{fill:#2A3F4F;}
	.st25{fill:#2D4151;}
	.st26{fill:#E89E3D;}
	.st27{fill:#2B4151;}
	.st28{fill:#2A4051;}
	.st29{fill:#2C4151;}
	.st30{fill:#EBEAE8;}
	.st31{fill:#3AA590;}
	.st32{fill:#E84534;}
	.st33{fill:none;}
</style>
<g>
	<g>
		<g>
			<g>
				<path class="st0" d="M6.1,35.9c1.6-0.7,3.4,0.1,4.1,1.7c0.7,1.6-0.1,3.4-1.7,4.1C6.9,42.3,0,41.8,0,41.8S4.5,36.5,6.1,35.9z"/>
			</g>
			<g>
				<path class="st7" d="M8.2,36.7c0.8-0.3,1.6,0,2,0.8c0.3,0.8,0,1.6-0.8,2c-0.8,0.3-4.1,0.1-4.1,0.1S7.4,37.1,8.2,36.7z"/>
			</g>
		</g>
		<g>
			<g>
				<g>
					<path class="st7" d="M9.6,32.7l6.5-3c-2.7-3.4-7.7-4.2-11.3-1.7c-1,0.7-1.8,1.6-2.4,2.6C5,30.1,7.7,30.9,9.6,32.7z"/>
				</g>
				<g>
					<path class="st7" d="M13.4,40.9l6.5-3c0.8,4.3-1.8,8.5-6.1,9.7c-1.2,0.3-2.4,0.4-3.5,0.2C12.3,46.1,13.5,43.6,13.4,40.9z"/>
				</g>
			</g>
			<g>
				<g>
					<path class="st13" d="M41.2,29.3c-8,7.6-12.3,7.8-28.3,12.4l-4.2-9.1c13.9-9.1,16.9-12.2,27.8-13.3
						C39.4,22.1,41.1,25.4,41.2,29.3z"/>
				</g>
				<g>
					<path class="st7" d="M36.6,19.2c2.8,2.8,4.5,6.1,4.6,10l6.8-9.2L36.6,19.2z"/>
				</g>
			</g>
			<g>
				<g>
					<path class="st1" d="M7.1,32.8l4.6,10c0.4-0.3,0.8-0.7,1.2-1.1l-4.2-9.1C8.2,32.6,7.6,32.7,7.1,32.8z"/>
				</g>
			</g>
		</g>
	</g>
	<g>
		<path class="st0" d="M33.9,3.7c0,0,1.5-0.5,1.8-0.7s1-0.5,1.1-0.6c0.1-0.1,0.6-0.3,0.8-0.2c0.1,0.1,0.8,1,0.7,1.2
			s-0.2,0.2-0.2,0.2s0.2,0.3-0.1,0.5c-0.3,0.2-1.1,0.2-1.4,0.1c-0.3-0.1-0.7-0.2-0.7-0.2L34.3,5L33.9,3.7z"/>
	</g>
	<g>
		<path class="st13" d="M32.7,4l1.7-0.7c0,0,0.5,1.7,0.7,1.9L33.5,6L32.7,4z"/>
	</g>
	<g>
		<path class="st3" d="M23.1,35.3c0,0-0.1-1,0.8-1.8c1-0.8,1-1.7,1-1.7L22.7,32c0,0-0.6,0.5-1.1,0.6c-0.4,0.1-0.4,0.1-0.4,0.1
			S20.7,35.8,23.1,35.3z"/>
	</g>
	<g>
		<path class="st4" d="M18.2,20.3c0,0-1.5,3.2,2.9,4.7c4.5,1.6,7,2.6,7,2.6s-2.7,2-3.9,3c-1.2,1-2.3,1.8-2.3,1.8s1.2,1.4,2,1.8
			s1.8,1.3,1.8,1.3l3.9-4.6c0,0,3.1-1.9,3.4-2.8s-0.1-2.2-0.8-2.9c-0.8-0.7-5.2-4-5.2-4s-1.4-3.2-1.8-5.1S24.3,13,24.3,13L18.2,20.3
			z"/>
	</g>
	<g>
		<path class="st1" d="M24.5,7.3c0,0,0.7-0.1,1.9-0.5c1.2-0.4,2.9-1.2,3.8-1.7s3-1.3,3-1.3s0.3,1.8,1.2,2.3c0,0-2.9,1.3-3.6,1.7
			s-5.1,2.5-5.8,2.7L24.5,7.3z"/>
	</g>
	<g>
		<path class="st1" d="M24.4,7.1c0,0,0.7,0.5,0.6,2.7s-0.2,2.3,0,3.7s1.9,7.2,1.9,7.6c0,0.4-0.1,0-0.1,0s-1.6-1-1.7-2.5
			c-0.1-1.5-1.4-4.9-1.2-5.9C24.1,11.7,24.4,7.1,24.4,7.1z"/>
	</g>
	<g>
		<path class="st1" d="M10.4,15.8c0,0-0.1,0.3-1.2-0.5c-1.1-0.8-1.2-1-1.2-1l1.4-0.1C9.4,14.2,10.5,14.7,10.4,15.8z"/>
	</g>
	<g>
		<path class="st0" d="M23.8,8.3c0.2-1.2,0.5-2,0.9-1.9c1.7,0.3,1.8-0.6,1.8-0.7c0-0.1,0-0.2,0.1-0.4C26.7,5.1,26.5,5,26.5,5
			c0.1,0,0.2-0.1,0.1-0.2c-0.1-0.2-0.1-0.3-0.1-0.3s0.3-0.1,0.4-0.1c0.1-0.1,0.1-0.1,0-0.3C26.7,3.8,26,3,26,3s0.1,0,0-0.4
			c-0.1-0.4-0.9-1.5-0.9-1.5l-3.7,2.3l-0.5,2.3c0,0-0.8,2.1-1,2.6H23.8z"/>
	</g>
	<g>
		<polygon class="st5" points="24.3,6.7 23.6,7.2 23.8,8.3 24.3,7.4 		"/>
	</g>
	<g>
		<polygon class="st5" points="21.5,5 23.6,7.2 22.7,8.2 20.7,5.6 		"/>
	</g>
	<g>
		<path class="st1" d="M23.7,3.8l0.4-0.2c0,0-0.2-0.4-0.1-0.8s0.4-0.6,0.5-0.9c0.1-0.3,0.8-0.4,0.8-0.4s0.2-0.5-0.1-0.9
			C25,0,24,0.1,22.9,0.3c-1.1,0.2-2.3,0.8-2.5,1.3c-0.3,0.5,0.2,2.9,0.4,3.5s1.6-0.4,1.7-0.9c0.1-0.5-0.1-0.6,0.3-0.9
			C23.2,2.9,23.7,3.8,23.7,3.8z"/>
	</g>
	<g>
		<ellipse transform="matrix(0.8825 -0.4703 0.4703 0.8825 1.0243 11.3064)" class="st0" cx="23.1" cy="3.6" rx="0.5" ry="0.8"/>
	</g>
	<g>
		<path class="st4" d="M24.3,6.7c0,0-0.6,0.8-0.5,2s0.2,3.9,0.2,3.9s0.3-1,0.6-1.5c0.3-0.6,0.5-1.3,0.5-2S24.7,8,24.7,8l0.2-0.1
			C24.9,7.9,24.6,6.7,24.3,6.7z"/>
	</g>
	<g>
		<path class="st11" d="M13.2,19.7v6.8c0,0.3-0.2,0.5-0.5,0.5H3.1c-0.3,0-0.5-0.2-0.5-0.5v-6.8c0-0.3,0.2-0.5,0.5-0.5h9.7
			C13,19.2,13.2,19.4,13.2,19.7z"/>
	</g>
	<g>
		<path class="st11" d="M6.7,19.5v-0.9c0-0.1,0.1-0.1,0.1-0.1H9c0.1,0,0.1,0.1,0.1,0.1v0.9h0.8v-0.9c0-0.5-0.4-0.9-0.9-0.9H6.8
			c-0.5,0-0.9,0.4-0.9,0.9v0.9H6.7z"/>
	</g>
	<g>
		<path class="st0" d="M9.9,15.5c0,0-0.2,0.8-0.2,0.9c0,0.1,0.4,0.6,0.5,0.9c0.1,0.3-0.2,1-0.3,1.1c0,0-0.1-0.3-0.2-0.4
			c-0.1-0.1-0.2,0-0.4,0.2c-0.2,0.1-0.4,0.4-0.5,0.6c0,0.1-0.1,0.1-0.2,0.1c-0.1,0-0.3-0.1-0.3-0.2c0,0-0.4,0.1-0.5,0
			c0,0-0.5,0-0.6-0.1c0,0-0.4,0.1-0.4-0.3c0.1-0.3,0.4-1,0.6-1.3c0.2-0.5,0.5-1.2,0.8-1.6c0.7-1.2,1.3-1.2,1.3-1.2L9.9,15.5z"/>
	</g>
	<g>
		<path class="st13" d="M8.2,15.1c0,0,1.6,0.3,1.7,1l1-1.5l-1.7-1.3L8.2,15.1z"/>
	</g>
	<g>
		<path class="st4" d="M16.1,6.7c0,0-0.2,0.5-2.1,1.5S11,11,10,12S8,14.3,8,14.3s2,0.6,2.4,1.5c0,0,1-1.7,1.6-2.3
			c0.6-0.6,1.2-1.3,1.3-1.4c0.1-0.1,1.9-0.8,2.4-1c0.5-0.2,1.1-0.5,1.1-0.5S17.6,7.1,16.1,6.7z"/>
	</g>
	<g>
		<path class="st1" d="M20.7,5.1c0,0-0.4,0.4-1.1,0.4c-0.7,0.1-1.1-0.2-1.9-0.3c-0.8-0.1-1.5,1-1.6,1.4c-0.1,0.4,0.5,9.1,0.5,10.1
			s0.1,4.9,0.1,4.9s4.4,0.2,5.8-0.5s1.8-1.4,2-2.1c0.1-0.7-0.4-6.4-0.4-6.4s0.2-1-0.6-2.1S20.7,5.1,20.7,5.1z"/>
	</g>
	<g>
		<path class="st4" d="M24,12.7c0,0,0-1.1-0.3-1.5c-0.3-0.5-0.8-0.7-1-1.1c-0.2-0.4-0.8-1.7-1.2-2.2c-0.4-0.5-0.9-1.6-0.9-1.6
			L20.9,6l-0.8-0.2l0.6-0.9c0,0.1,0.1,0.2,0.1,0.2c0.1,0.2,0.3,0.2,0.5,0.1c0.3,0.6,0.7,1.3,1.1,1.8c0.5,0.7,0.7,1.7,0.8,2.2
			c0,0.5,0.7,1.5,0.8,1.9C24.1,11.5,24,12.7,24,12.7z"/>
	</g>
	<g>
		<g>
			<g>
				<rect x="4" y="19.2" class="st8" width="1.2" height="7.8"/>
			</g>
		</g>
		<g>
			<g>
				<rect x="10.6" y="19.2" class="st8" width="1.2" height="7.8"/>
			</g>
		</g>
	</g>
	<g>
		<path class="st1" d="M21.7,32.6c0,0-0.1,0.7,0.1,1.2c0.3,0.6,1.1,0.5,1.4,0.7c0.3,0.2-0.2,2.1,0.2,3.3c0.4,1.2,0.8,1.6,0.5,1.8
			s-0.8-0.2-1.3-0.8c-0.5-0.6-1.4-1.9-1.5-2.5c-0.1-0.7-0.3-1-0.3-1l-0.5,0.2l-1.1-1.8l0.7-0.4C19.9,33.2,20.7,32,21.7,32.6z"/>
	</g>
</g>
</svg>
