<?xml version="1.0" encoding="utf-8"?>
<!-- Generator: Adobe Illustrator 19.0.1, SVG Export Plug-In . SVG Version: 6.00 Build 0)  -->
<svg version="1.1" id="Layer_1" xmlns="http://www.w3.org/2000/svg" xmlns:xlink="http://www.w3.org/1999/xlink" x="0px" y="0px"
	 viewBox="0 0 48 48" style="enable-background:new 0 0 48 48;" xml:space="preserve">
<style type="text/css">
	.st0{fill:#415A6B;}
	.st1{fill:#ADB3BA;}
	.st2{fill:#E8EAE9;}
	.st3{fill:#55C0EB;}
	.st4{fill:#F3705A;}
	.st5{fill:#FFFFFF;}
	.st6{fill:#FFD15C;}
	.st7{fill:#344A5E;}
	.st8{fill:#CED6E0;}
	.st9{fill:#F05540;}
	.st10{fill:#F7B64C;}
	.st11{fill:#F3F3F3;}
	.st12{fill:#66C6B9;}
	.st13{fill:#4ABAA5;}
	.st14{fill:#8AD7F8;}
	.st15{fill:none;}
	.st16{fill:#E53D35;}
</style>
<g>
	<g>
		<g>
			<g>
				<g>
					<polygon class="st0" points="36.3,42.1 36.3,39.6 31.6,39.6 31.6,25.3 36.3,25.3 36.3,22.8 31.6,22.8 31.6,8.4 36.3,8.4 
						36.3,5.9 29.1,5.9 29.1,22.8 24.3,22.8 24.3,25.3 29.1,25.3 29.1,42.1 					"/>
				</g>
			</g>
		</g>
		<g>
			<path class="st3" d="M26.9,26v-4l-3.7-0.9c-0.2-0.7-0.5-1.3-0.8-2l2-3.3l-2.8-2.8l-3.3,2c-0.6-0.3-1.3-0.6-2-0.8l-0.9-3.7h-4
				l-0.9,3.7c-0.7,0.2-1.3,0.5-2,0.8l-3.3-2l-2.8,2.8l2,3.3c-0.3,0.6-0.6,1.3-0.8,2L0,22v4l3.7,0.9c0.2,0.7,0.5,1.3,0.8,2l-2,3.3
				l2.8,2.8l3.3-2c0.6,0.3,1.3,0.6,2,0.8l0.9,3.7h4l0.9-3.7c0.7-0.2,1.3-0.5,2-0.8l3.3,2l2.8-2.8l-2-3.3c0.3-0.6,0.6-1.3,0.8-2
				L26.9,26z M13.5,30.4C9.9,30.4,7,27.6,7,24c0-3.6,2.9-6.4,6.4-6.4c3.6,0,6.4,2.9,6.4,6.4C19.9,27.6,17,30.4,13.5,30.4z"/>
			<g>
				<circle class="st3" cx="13.5" cy="24" r="3.5"/>
			</g>
		</g>
		<g>
			<g>
				<g>
					<circle class="st4" cx="40.9" cy="7.1" r="7.1"/>
				</g>
				<g>
					<circle class="st9" cx="40.9" cy="7.1" r="4.1"/>
				</g>
			</g>
			<g>
				<g>
					<circle class="st12" cx="40.9" cy="24" r="7.1"/>
				</g>
				<g>
					<circle class="st13" cx="40.9" cy="24" r="4.1"/>
				</g>
			</g>
			<g>
				<g>
					<circle class="st6" cx="40.9" cy="40.9" r="7.1"/>
				</g>
				<g>
					<circle class="st10" cx="40.9" cy="40.9" r="4.1"/>
				</g>
			</g>
		</g>
	</g>
</g>
</svg>
