<?xml version="1.0" encoding="utf-8"?>
<!-- Generator: Adobe Illustrator 18.0.0, SVG Export Plug-In . SVG Version: 6.00 Build 0)  -->
<!DOCTYPE svg PUBLIC "-//W3C//DTD SVG 1.1//EN" "http://www.w3.org/Graphics/SVG/1.1/DTD/svg11.dtd">
<svg version="1.1" id="Layer_1" xmlns="http://www.w3.org/2000/svg" xmlns:xlink="http://www.w3.org/1999/xlink" x="0px" y="0px"
	 viewBox="0 0 48 48" enable-background="new 0 0 48 48" xml:space="preserve">
<g>
	<path fill="#40596B" d="M48,2c0-1.1-0.9-2-2-2H2C0.9,0,0,0.9,0,2v30.2h48V2z"/>
	<path fill="#CDD6E0" d="M38.5,46.7h-1.8c-1.7,0-3-1.3-3-3v-4.4H14.3v4.4c0,1.7-1.3,3-3,3H9.5c-0.3,0-0.6,0.3-0.6,0.6v0
		c0,0.3,0.3,0.6,0.6,0.6h29c0.3,0,0.6-0.3,0.6-0.6v0C39.1,47,38.8,46.7,38.5,46.7z"/>
	<rect x="3" y="3" fill="#FFFFFF" width="42" height="26.1"/>
	<rect x="3" y="3" fill="#F2F2F2" width="42" height="26.1"/>
	<rect x="3" y="3" fill="#CDD6E0" width="42" height="2.2"/>
	<path fill="#F2F2F2" d="M0,32.2v5.2c0,1.1,0.9,2,2,2h44c1.1,0,2-0.9,2-2v-5.2H0z"/>
	<circle fill="#CDD6E0" cx="24" cy="35.8" r="1.6"/>
	<rect x="14.3" y="39.4" fill="#C3D0DB" width="19.3" height="1.5"/>
	<polygon fill="#55BFE9" points="37.3,26.6 37.3,27.2 37.3,26.6 	"/>
	<polygon fill="#FFD15C" points="36.3,27.2 36.3,27.2 37.3,27.2 	"/>
	<rect x="35.7" y="26.6" fill="#55BFE9" width="0" height="1.3"/>
	<g>
		<rect x="4.2" y="9" fill="#CDD6E0" width="4.2" height="18.1"/>
		<rect x="4.2" y="7.8" fill="#40596B" width="4.2" height="1.2"/>
		<g>
			<rect x="5.2" y="11.1" fill="#ACB3BA" width="2.2" height="1.4"/>
			<rect x="5.2" y="15.3" fill="#ACB3BA" width="2.2" height="1.4"/>
			<rect x="5.2" y="19.4" fill="#ACB3BA" width="2.2" height="1.4"/>
			<rect x="5.2" y="23.6" fill="#ACB3BA" width="2.2" height="1.4"/>
		</g>
	</g>
	<g>
		<rect x="35.7" y="9.5" fill="#CDD6E0" width="8.3" height="6"/>
		<rect x="35.7" y="7.8" fill="#40596B" width="8.3" height="1.7"/>
		<rect x="35.7" y="21.1" fill="#CDD6E0" width="8.3" height="6"/>
		<rect x="35.7" y="19.4" fill="#40596B" width="8.3" height="1.7"/>
		<g>
			<rect x="36.8" y="10.6" fill="#ACB3BA" width="6" height="1.4"/>
			<rect x="36.8" y="13" fill="#ACB3BA" width="6" height="1.4"/>
		</g>
		<g>
			<rect x="36.8" y="22.2" fill="#ACB3BA" width="6" height="1.4"/>
			<rect x="36.8" y="24.6" fill="#ACB3BA" width="6" height="1.4"/>
		</g>
	</g>
	<g>
		<polygon fill="#F8B64C" points="17.6,15.4 12.1,24.3 23,24.3 		"/>
		<polygon fill="#FFD15C" points="23.8,11.8 16.2,24.3 31.5,24.3 		"/>
		<circle fill="#FF7058" cx="19.9" cy="13.3" r="1.5"/>
	</g>
	<polygon fill="#40596B" points="31.4,16 29.3,14.5 29.1,17.1 29.8,16.6 30.3,17.7 31.1,17.3 30.6,16.2 	"/>
</g>
</svg>
