<?xml version="1.0" encoding="utf-8"?>
<!-- Generator: Adobe Illustrator 18.0.0, SVG Export Plug-In . SVG Version: 6.00 Build 0)  -->
<!DOCTYPE svg PUBLIC "-//W3C//DTD SVG 1.1//EN" "http://www.w3.org/Graphics/SVG/1.1/DTD/svg11.dtd">
<svg version="1.1" id="Layer_1" xmlns="http://www.w3.org/2000/svg" xmlns:xlink="http://www.w3.org/1999/xlink" x="0px" y="0px"
	 viewBox="0 0 48 48" enable-background="new 0 0 48 48" xml:space="preserve">
<g>
	<g>
		<g>
			<g>
				<g>
					<g>
						<path fill="#66C6B9" d="M36,28.7c5.2-5.2,12-8.2,12-14.6c0-3.5-2.8-6.4-6.3-6.4c-2.5,0-4.7,1.5-5.7,3.6
							c-1-2.1-3.2-3.6-5.7-3.6c-3.5,0-6.3,2.9-6.3,6.4C24,20.6,31.1,23.6,36,28.7z"/>
					</g>
				</g>
				<g>
					<g>
						<path fill="#66C6B9" d="M38.3,29.6c-1.3,1.3-3.2,1.3-4.5,0c0.5-0.6,1.4-1.1,1.4-1.9c0.5,0,1.1,0,1.6,0
							C36.8,28.5,37.8,28.9,38.3,29.6z"/>
					</g>
				</g>
			</g>
			<g>
				<g>
					<path fill="#FFFFFF" d="M44.9,11.5c0.7,0.8,1,1.8,0.6,2.1c-0.4,0.3-1.3,0-2-0.9c-0.7-0.8-1-1.8-0.6-2.1
						C43.2,10.3,44.1,10.7,44.9,11.5z"/>
				</g>
			</g>
			<g>
				<g>
					<path fill="#415A6B" d="M37,28.3h-1.9c-0.2,0-0.3-0.1-0.3-0.3c0-0.2,0.1-0.3,0.3-0.3H37c0.2,0,0.3,0.1,0.3,0.3
						C37.3,28.1,37.2,28.3,37,28.3z"/>
				</g>
			</g>
			<g>
				<g>
					<path fill="#415A6B" d="M34.2,30.4c-0.1,0-0.3-0.1-0.3-0.2c0-0.2,0.1-0.3,0.2-0.4c0.3-0.1,0.5-0.2,0.5-0.7
						c0.1-0.7,0.8-1.2,0.9-1.3c0.1-0.1,0.3-0.1,0.4,0.1c0.1,0.1,0.1,0.3-0.1,0.4c-0.2,0.1-0.6,0.5-0.6,0.9
						C35.2,29.9,34.9,30.2,34.2,30.4C34.2,30.4,34.2,30.4,34.2,30.4z"/>
				</g>
			</g>
			<g>
				<g>
					<path fill="#415A6B" d="M37.6,34.6c-1.7-2.9-1-6.6-1-6.6c0,0,0-0.1,0-0.1H36c-0.1,0.3-0.7,3.9,1.1,7c1.6,2.9-0.8,8.1-0.8,8.2
						c-0.1,0.2,0,0.3,0.1,0.4c0,0,0.1,0,0.1,0c0.1,0,0.2-0.1,0.3-0.2C36.9,43.1,39.4,37.8,37.6,34.6z"/>
				</g>
			</g>
		</g>
		<g>
			<g>
				<g>
					<g>
						<path fill="#F3705A" d="M12.6,22c5.5-5.5,12.6-8.6,12.6-15.3c0-3.7-3-6.7-6.6-6.7c-2.6,0-4.9,1.5-5.9,3.8
							C11.5,1.5,9.2,0,6.6,0C3,0,0,3,0,6.7C0,13.5,7.5,16.6,12.6,22z"/>
					</g>
				</g>
				<g>
					<g>
						<path fill="#F3705A" d="M14.9,22.9c-1.4,1.3-3.3,1.3-4.7,0c0.5-0.7,1.5-1.1,1.5-2c0.6,0,1.1,0,1.7,0
							C13.4,21.7,14.4,22.2,14.9,22.9z"/>
					</g>
				</g>
			</g>
			<g>
				<g>
					<path fill="#FFFFFF" d="M21.9,3.9c0.8,0.9,1,1.9,0.6,2.2c-0.4,0.4-1.4,0-2.1-0.9c-0.8-0.9-1-1.9-0.6-2.2
						C20.2,2.6,21.1,3,21.9,3.9z"/>
				</g>
			</g>
			<g>
				<g>
					<path fill="#415A6B" d="M13.6,21.5h-2c-0.2,0-0.3-0.1-0.3-0.3c0-0.2,0.1-0.3,0.3-0.3h2c0.2,0,0.3,0.1,0.3,0.3
						C14,21.3,13.8,21.5,13.6,21.5z"/>
				</g>
			</g>
			<g>
				<g>
					<path fill="#415A6B" d="M10.7,23.7c-0.1,0-0.3-0.1-0.3-0.2c0-0.2,0.1-0.3,0.2-0.4c0.3-0.1,0.5-0.2,0.6-0.7
						c0.1-0.7,0.8-1.3,0.9-1.4c0.1-0.1,0.3-0.1,0.4,0.1c0.1,0.1,0.1,0.3-0.1,0.4c-0.2,0.1-0.6,0.5-0.7,0.9
						C11.7,23.2,11.4,23.5,10.7,23.7C10.7,23.7,10.7,23.7,10.7,23.7z"/>
				</g>
			</g>
			<g>
				<g>
					<path fill="#415A6B" d="M14.2,28.1c-1.7-3.1-1.1-6.9-1-6.9c0,0,0-0.1,0-0.1h-0.6c-0.1,0.3-0.7,4.1,1.1,7.3
						c1.7,3-0.8,8.5-0.9,8.6c-0.1,0.2,0,0.4,0.2,0.4c0,0,0.1,0,0.1,0c0.1,0,0.2-0.1,0.3-0.2C13.5,37.1,16.1,31.4,14.2,28.1z"/>
				</g>
			</g>
		</g>
		<g>
			<g>
				<g>
					<g>
						<path fill="#FFD15C" d="M24,37.1c5-4.9,11.4-7.8,11.4-13.8c0-3.3-2.7-6-6-6c-2.4,0-4.4,1.4-5.4,3.4c-1-2-3-3.4-5.4-3.4
							c-3.3,0-6,2.7-6,6C12.6,29.4,19.4,32.2,24,37.1z"/>
					</g>
				</g>
				<g>
					<g>
						<path fill="#FFD15C" d="M26.1,37.8c-1.2,1.2-3,1.2-4.2,0c0.5-0.6,1.4-1,1.4-1.8c0.5,0,1,0,1.5,0
							C24.8,36.8,25.7,37.2,26.1,37.8z"/>
					</g>
				</g>
			</g>
			<g>
				<g>
					<path fill="#FFFFFF" d="M32.4,20.7c0.7,0.8,0.9,1.7,0.6,2s-1.2,0-1.9-0.8c-0.7-0.8-0.9-1.7-0.6-2
						C30.8,19.6,31.7,19.9,32.4,20.7z"/>
				</g>
			</g>
			<g>
				<g>
					<path fill="#415A6B" d="M25,36.6h-1.8c-0.2,0-0.3-0.1-0.3-0.3c0-0.2,0.1-0.3,0.3-0.3H25c0.2,0,0.3,0.1,0.3,0.3
						C25.2,36.5,25.1,36.6,25,36.6z"/>
				</g>
			</g>
			<g>
				<g>
					<path fill="#415A6B" d="M22.3,38.6c-0.1,0-0.3-0.1-0.3-0.2c0-0.2,0.1-0.3,0.2-0.4c0.3-0.1,0.5-0.2,0.5-0.6
						c0.1-0.7,0.8-1.2,0.8-1.2c0.1-0.1,0.3-0.1,0.4,0.1c0.1,0.1,0.1,0.3-0.1,0.4c-0.2,0.1-0.6,0.5-0.6,0.8
						C23.2,38.1,22.9,38.5,22.3,38.6C22.3,38.6,22.3,38.6,22.3,38.6z"/>
				</g>
			</g>
			<g>
				<g>
					<path fill="#415A6B" d="M25.2,47.8c0,0.3,0.6,0.3,0.6,0c0.4-1.7,0.6-3.7-0.3-5.2c-1.6-2.8-0.9-6.2-0.9-6.2c0,0,0-0.1,0-0.1H24
						c-0.1,0.3-0.6,3.7,1,6.6C25.8,44.3,25.6,46.2,25.2,47.8z"/>
				</g>
			</g>
		</g>
	</g>
</g>
</svg>
