<?xml version="1.0" encoding="utf-8"?>
<!-- Generator: Adobe Illustrator 18.0.0, SVG Export Plug-In . SVG Version: 6.00 Build 0)  -->
<!DOCTYPE svg PUBLIC "-//W3C//DTD SVG 1.1//EN" "http://www.w3.org/Graphics/SVG/1.1/DTD/svg11.dtd">
<svg version="1.1" id="Layer_1" xmlns="http://www.w3.org/2000/svg" xmlns:xlink="http://www.w3.org/1999/xlink" x="0px" y="0px"
	 viewBox="0 0 48 48" enable-background="new 0 0 48 48" xml:space="preserve">
<g>
	<g>
		<g>
			<path fill="#8AD7F8" d="M37,48.1H3c-1.7,0-3-1.3-3-3v-38c0-1.7,1.3-3,3-3h34c1.7,0,3,1.3,3,3v38C40,46.8,38.7,48.1,37,48.1z"/>
			<g>
				<rect x="3.7" y="7.8" fill="#FFFFFF" width="32.7" height="36.6"/>
			</g>
			<path fill="#415A6B" d="M23.4,3.2c-0.1-1.8-1.6-3.3-3.4-3.3c-1.9,0-3.4,1.5-3.4,3.3C13.2,4.1,10.7,6.3,10,9h20
				C29.3,6.3,26.8,4.1,23.4,3.2z M20,4.1c-0.6,0-1-0.5-1-1s0.4-1,1-1c0.5,0,1,0.4,1,1S20.5,4.1,20,4.1z"/>
			<g>
				<rect x="18.4" y="19.4" fill="#E8EAE9" width="14.8" height="2.3"/>
				<rect x="18.4" y="12.9" fill="#E8EAE9" width="14.8" height="2.3"/>
			</g>
			<g>
				<g>
					<path fill="#CED6E0" d="M14.3,21.1H7v-7.3h7.3V21.1z M8.3,19.7h4.6v-4.6H8.3V19.7z"/>
				</g>
				<g>
					<path fill="#F3705A" d="M16.7,13.9c-0.4-0.4-1.1-0.4-1.5,0l-4.1,4.1l-1.7-1.7c-0.4-0.4-1.1-0.4-1.5,0c-0.4,0.4-0.4,1.1,0,1.5
						l2.4,2.4c0.4,0.4,1.1,0.4,1.5,0l4.8-4.8C17.1,14.9,17.1,14.3,16.7,13.9z"/>
				</g>
			</g>
			<g>
				<g>
					<path fill="#CED6E0" d="M14.3,33.9H7v-7.3h7.3V33.9z M8.3,32.5h4.6V28H8.3V32.5z"/>
				</g>
				<g>
					<path fill="#F3705A" d="M16.7,26.7c-0.4-0.4-1.1-0.4-1.5,0l-4.1,4.1l-1.7-1.7c-0.4-0.4-1.1-0.4-1.5,0c-0.4,0.4-0.4,1.1,0,1.5
						l2.4,2.4c0.4,0.4,1.1,0.4,1.5,0l4.8-4.8C17.1,27.8,17.1,27.1,16.7,26.7z"/>
				</g>
			</g>
			<g>
				<rect x="18.4" y="32.2" fill="#E8EAE9" width="14.8" height="2.3"/>
				<rect x="18.4" y="25.8" fill="#E8EAE9" width="14.8" height="2.3"/>
			</g>
		</g>
		<g>
			<g>
				<g>
					<g>
						<path fill="#F3705A" d="M41.4,39.5l1.4-1.9L29.1,27.5c-0.1,0.9-0.6,1.5-1.4,1.9L41.4,39.5z"/>
					</g>
					<g>
						<path fill="#F05540" d="M40,41.4l1.4-1.9L27.7,29.4c-0.1,0.9-0.6,1.5-1.4,1.9L40,41.4z"/>
					</g>
					<g>
						<path fill="#F3705A" d="M38.6,43.3l1.4-1.9L26.3,31.3c-0.1,0.9-0.6,1.5-1.4,1.9L38.6,43.3z"/>
					</g>
				</g>
				<g>
					<g>
						<path fill="#415A6B" d="M38.6,43.3l4.7,3.4c0.6,0.4,1.3,0.3,1.8-0.3l2.7-3.7c0.4-0.6,0.3-1.3-0.3-1.8l-4.7-3.4L38.6,43.3z"/>
					</g>
				</g>
				<g>
					<g>
						<polygon fill="#E8EAE9" points="44.3,38.6 42.8,37.5 38.6,43.3 40,44.3 						"/>
					</g>
				</g>
				<g>
					<g>
						<g>
							<path fill="#FFD15C" d="M21.9,26.6l7.2,0.9c-0.1,0.9-0.6,1.5-1.4,1.9c-0.1,0.9-0.6,1.5-1.4,1.9c-0.1,0.9-0.6,1.5-1.4,1.9
								L21.9,26.6z"/>
						</g>
					</g>
				</g>
			</g>
			<path fill="#415A6B" d="M22.9,28.8l-1-2.2l2.4,0.3C24.2,27.8,23.7,28.5,22.9,28.8z"/>
		</g>
	</g>
</g>
</svg>
