<?xml version="1.0" encoding="utf-8"?>
<!-- Generator: Adobe Illustrator 18.0.0, SVG Export Plug-In . SVG Version: 6.00 Build 0)  -->
<!DOCTYPE svg PUBLIC "-//W3C//DTD SVG 1.1//EN" "http://www.w3.org/Graphics/SVG/1.1/DTD/svg11.dtd">
<svg version="1.1" id="Layer_1" xmlns="http://www.w3.org/2000/svg" xmlns:xlink="http://www.w3.org/1999/xlink" x="0px" y="0px"
	 viewBox="0 0 48 48" enable-background="new 0 0 48 48" xml:space="preserve">
<g>
	<g>
		<g>
			<g>
				<path fill="#F3F3F3" d="M10.3-0.1L-0.1,10.3v28.9c0,1.7,1.3,3,3,3h36.3c1.7,0,3-1.3,3-3V2.9c0-1.7-1.3-3-3-3H10.3z"/>
			</g>
		</g>
		<g>
			<polygon fill="#E8EAE9" points="10.3,-0.1 -0.1,10.3 10.3,10.3 			"/>
		</g>
		<g>
			<g>
				<g>
					<g>
						<path fill="#8AD7F8" d="M38.3,38.9H3.8c-0.3,0-0.5-0.2-0.5-0.5V13.8c0-0.3,0.2-0.5,0.5-0.5s0.5,0.2,0.5,0.5v24.1h33.6V4.3
							H13.8c-0.3,0-0.5-0.2-0.5-0.5s0.2-0.5,0.5-0.5h24.6c0.3,0,0.5,0.2,0.5,0.5v34.6C38.8,38.6,38.6,38.9,38.3,38.9z"/>
					</g>
				</g>
			</g>
			<g>
				<g>
					<path fill="#8AD7F8" d="M29.3,17.2h-7.9c-0.3,0-0.5-0.2-0.5-0.5v-13h1v12.5h7.4V17.2z"/>
				</g>
			</g>
			<g>
				<g>
					<path fill="#8AD7F8" d="M29.3,20.8c-0.3,0-0.5-0.2-0.5-0.5v-7.1c0-0.3,0.2-0.5,0.5-0.5s0.5,0.2,0.5,0.5v7.1
						C29.8,20.6,29.5,20.8,29.3,20.8z"/>
				</g>
			</g>
			<g>
				<g>
					<path fill="#8AD7F8" d="M16.6,38.4h-1V26.5H3.8v-1h12.3c0.3,0,0.5,0.2,0.5,0.5V38.4z"/>
				</g>
			</g>
			<g>
				<path fill="#8AD7F8" d="M38.3,27H22.9c-0.3,0-0.5-0.2-0.5-0.5s0.2-0.5,0.5-0.5h15.5c0.3,0,0.5,0.2,0.5,0.5S38.6,27,38.3,27z"/>
			</g>
			<g>
				<path fill="#8AD7F8" d="M29.7,33.9h-6.9c-0.3,0-0.5-0.2-0.5-0.5s0.2-0.5,0.5-0.5h6.4v-6.5c0-0.3,0.2-0.5,0.5-0.5
					s0.5,0.2,0.5,0.5v7C30.2,33.7,30,33.9,29.7,33.9z"/>
			</g>
		</g>
	</g>
	<g>
		<g>
			<g>
				
					<rect x="32.7" y="32.5" transform="matrix(-0.7071 -0.7071 0.7071 -0.7071 35.4791 85.654)" fill="#344A5E" width="5.6" height="5.9"/>
			</g>
		</g>
		<g opacity="0.3">
			<g>
				<circle fill="#FFFFFF" cx="25.5" cy="25.5" r="11.4"/>
			</g>
		</g>
		<g>
			<g>
				<path fill="#415A6B" d="M34.8,34.8c-5.2,5.2-13.6,5.2-18.7,0s-5.2-13.6,0-18.7s13.6-5.2,18.7,0S40,29.7,34.8,34.8z M18.7,18.7
					c-3.7,3.7-3.7,9.8,0,13.6s9.8,3.7,13.6,0s3.7-9.8,0-13.6C28.5,14.9,22.4,14.9,18.7,18.7z"/>
			</g>
		</g>
		<g>
			<g>
				<g>
					<path fill="#F3705A" d="M34.9,41.1l5.6,5.6c1.7,1.7,4.5,1.7,6.2,0l0,0c1.7-1.7,1.7-4.5,0-6.2l-5.6-5.6L34.9,41.1z"/>
				</g>
			</g>
			<g>
				<g>
					
						<rect x="37.7" y="34.5" transform="matrix(0.7071 0.7071 -0.7071 0.7071 38.9106 -16.1173)" fill="#F05540" width="2.5" height="8.8"/>
				</g>
			</g>
			<g>
				<g>
					<g>
						<path fill="#F3705A" d="M41.8,35.8l-6,6c-0.6,0.6-1.6,0.6-2.1,0c-0.6-0.6-0.6-1.6,0-2.1l6-6c0.6-0.6,1.6-0.6,2.1,0
							S42.4,35.2,41.8,35.8z"/>
					</g>
				</g>
			</g>
		</g>
	</g>
</g>
</svg>
