<?xml version="1.0" encoding="utf-8"?>
<!-- Generator: Adobe Illustrator 18.0.0, SVG Export Plug-In . SVG Version: 6.00 Build 0)  -->
<!DOCTYPE svg PUBLIC "-//W3C//DTD SVG 1.1//EN" "http://www.w3.org/Graphics/SVG/1.1/DTD/svg11.dtd">
<svg version="1.1" id="Layer_1" xmlns="http://www.w3.org/2000/svg" xmlns:xlink="http://www.w3.org/1999/xlink" x="0px" y="0px"
	 viewBox="0 0 48 48" enable-background="new 0 0 48 48" xml:space="preserve">
<g>
	<path fill="#F8B64C" d="M19.8,3.9L9.2,16.4c-1,1.2-0.1,2.9,1.4,2.9h21.1c1.5,0,2.3-1.8,1.4-2.9L22.5,3.9C21.8,3,20.5,3,19.8,3.9z"
		/>
	<path fill="#FFD15C" d="M27.9,1.9L16.1,16c-1.1,1.3-0.2,3.3,1.5,3.3h23.7c1.7,0,2.6-2,1.5-3.3L31,1.9C30.2,1,28.7,1,27.9,1.9z"/>
	<path fill="#40596B" d="M38.2,39.7H9.8c-1.9,0-3.5-1.3-3.9-3.1l-4.3-17h44.7l-4.3,17C41.7,38.4,40,39.7,38.2,39.7z"/>
	<path fill="#334A5E" d="M44.6,23H3.4C1.5,23,0,21.5,0,19.6v0c0-1.9,1.5-3.4,3.4-3.4h41.2c1.9,0,3.4,1.5,3.4,3.4v0
		C48,21.5,46.5,23,44.6,23z"/>
	<circle fill="#334A5E" cx="15.3" cy="39.7" r="7.1"/>
	<circle fill="#334A5E" cx="32.7" cy="39.7" r="7.1"/>
	<circle fill="#CDD6E0" cx="32.7" cy="39.7" r="3.3"/>
	<path fill="#ACB3BA" d="M32.7,37.4c1.7,0,3,1.2,3.3,2.8c0-0.2,0-0.3,0-0.5c0-1.8-1.5-3.3-3.3-3.3c-1.8,0-3.3,1.5-3.3,3.3
		c0,0.2,0,0.3,0,0.5C29.7,38.6,31,37.4,32.7,37.4z"/>
	<circle fill="#CDD6E0" cx="15.3" cy="39.7" r="3.3"/>
	<path fill="#ACB3BA" d="M15.3,37.4c1.7,0,3,1.2,3.3,2.8c0-0.2,0-0.3,0-0.5c0-1.8-1.5-3.3-3.3-3.3S12,37.9,12,39.7
		c0,0.2,0,0.3,0,0.5C12.3,38.6,13.6,37.4,15.3,37.4z"/>
</g>
</svg>
