<?xml version="1.0" encoding="utf-8"?>
<!-- Generator: Adobe Illustrator 18.0.0, SVG Export Plug-In . SVG Version: 6.00 Build 0)  -->
<!DOCTYPE svg PUBLIC "-//W3C//DTD SVG 1.1//EN" "http://www.w3.org/Graphics/SVG/1.1/DTD/svg11.dtd">
<svg version="1.1" id="Layer_1" xmlns="http://www.w3.org/2000/svg" xmlns:xlink="http://www.w3.org/1999/xlink" x="0px" y="0px"
	 viewBox="0 0 48 48" enable-background="new 0 0 48 48" xml:space="preserve">
<g>
	<path fill="#FF7058" d="M32.3,41.6c-0.2-0.4-0.5-0.7-0.9-0.8l-3.6-1.1l-1.6-3.1c-0.4-0.8-1.3-1.1-2.1-0.7c-0.4,0.2-0.7,0.5-0.8,0.9
		c-0.1,0.4-0.1,0.8,0.1,1.2l1.6,3.1l-1.1,3.6c-0.1,0.4-0.1,0.8,0.1,1.2c0.2,0.4,0.5,0.7,0.9,0.8c0.2,0.1,0.3,0.1,0.5,0.1
		c0.2,0,0.5-0.1,0.7-0.2c0.4-0.2,0.7-0.5,0.8-0.9l0.9-2.7l2.7,0.9c0.4,0.1,0.8,0.1,1.2-0.1c0.4-0.2,0.7-0.5,0.8-0.9
		C32.5,42.4,32.5,42,32.3,41.6z"/>
	<path fill="#334A5E" d="M33.8,4.9c0,0,6.5-2,10.6-2.3s-4-1.7-4-1.7l-9,2.3L33.8,4.9z"/>
	<path fill="#40596B" d="M30.3,3.3c0-0.6,0.4-1.1,1-1.3C35.3,1,43.7-2,48,2.6c0,0-6-0.1-10.2,0.6c-3.3,0.6-5.3,1.5-9,3.3
		c0,0-0.8-0.8,0.8-1.8C29.7,4.7,30.3,4.5,30.3,3.3z"/>
	<path fill="#CDD6E0" d="M8.8,48c1.2-0.5,2.3-1.2,3.4-1.9c8.7-4.6,12.3-8.4,16-9.9c6.2-2.7,10.6-14.1,6.1-19.8l0,0
		c-1.1-1.4-1.3-3.4-0.5-5c0.5-1,0.8-2.2,0.8-3.4c0.1-4.2-3.4-7.7-7.5-7.8c-4.4-0.1-8,3.4-8,7.7c0,0.2,0,0.4,0,0.6
		c0.2,2-0.9,3.8-2.7,4.6c-0.1,0-0.2,0.1-0.3,0.1C12.5,14.7,5.3,23.3,2.2,33.5c-0.7,2.1-1.4,4-2.2,5.7V48H8.8z"/>
	<path fill="#54C0EB" d="M32.3,16c-0.8-1.7-0.5-3.6,0.7-5c0.8-0.9,1.3-1.9,1.6-3.1c0.1-4.2-3.4-7.7-7.5-7.8c-4.4-0.1-8,3.4-8,7.7
		c0,0.2,0,0.4,0,0.6c0.2,2-0.9,3.8-2.7,4.6c-0.1,0-0.2,0.1-0.3,0.1C12.5,14.7,5.3,23.3,2.2,33.5c-0.7,2.1-1.4,4-2.2,5.7v1.5
		c1.3-0.3,2.6-0.6,3.8-1.1c9.6-2.4,14-5.2,17.9-5.9C28.4,32.7,35.4,22.7,32.3,16L32.3,16z"/>
	<path fill="#FFD15C" d="M32.3,10.5c0.9-0.7,1.7-1.6,2.3-2.6c0.1-4.2-3.4-7.7-7.5-7.8c-4.4-0.1-8,3.4-8,7.7c0,0.2,0,0.4,0,0.6
		c0.2,2-0.9,3.8-2.7,4.6c-0.1,0-0.2,0.1-0.3,0.1c-3.4,1.5-9.8,9-13.2,18.2c6.2-0.5,9.9-1.4,12.9-1.2c6.8,0.5,15.9-7.6,14.5-14.8l0,0
		C30.1,13.4,30.8,11.6,32.3,10.5z"/>
	<g>
		<circle fill="#40596B" cx="28.6" cy="4.1" r="1.5"/>
		<circle fill="#FFFFFF" cx="29.3" cy="3.8" r="0.6"/>
	</g>
</g>
</svg>
