<?xml version="1.0" encoding="utf-8"?>
<!-- Generator: Adobe Illustrator 18.0.0, SVG Export Plug-In . SVG Version: 6.00 Build 0)  -->
<!DOCTYPE svg PUBLIC "-//W3C//DTD SVG 1.1//EN" "http://www.w3.org/Graphics/SVG/1.1/DTD/svg11.dtd">
<svg version="1.1" id="Layer_1" xmlns="http://www.w3.org/2000/svg" xmlns:xlink="http://www.w3.org/1999/xlink" x="0px" y="0px"
	 viewBox="0 0 48 48" enable-background="new 0 0 48 48" xml:space="preserve">
<g>
	<circle fill="#FF7058" cx="24" cy="24" r="24"/>
	<circle fill="#F2F2F2" cx="24" cy="24" r="18.2"/>
	<path fill="#E4EAEF" d="M24,7.8c9.7,0,17.6,7.6,18.2,17.2c0-0.3,0.1-0.7,0.1-1c0-10.1-8.2-18.2-18.2-18.2C13.9,5.8,5.8,13.9,5.8,24
		c0,0.3,0,0.7,0.1,1C6.4,15.4,14.3,7.8,24,7.8z"/>
	<g>
		<circle fill="#ACB3BA" cx="24" cy="9.1" r="1.1"/>
		<circle fill="#ACB3BA" cx="24" cy="38.9" r="1.1"/>
		<circle fill="#ACB3BA" cx="38.9" cy="24" r="1.1"/>
		<circle fill="#ACB3BA" cx="10.1" cy="25" r="1.1"/>
	</g>
	<path fill="#FF7058" d="M24,25.3c-0.3,0-0.7-0.1-0.9-0.4l-7-7.7c-0.5-0.5-0.4-1.3,0.1-1.8c0.5-0.5,1.3-0.4,1.8,0.1l7,7.7
		c0.5,0.5,0.4,1.3-0.1,1.8C24.6,25.1,24.3,25.3,24,25.3z"/>
	<path fill="#40596B" d="M23.2,24.7v9.2c0,0.4,0.3,0.8,0.8,0.8s0.8-0.3,0.8-0.8v-9.2H23.2z"/>
	<path fill="#40596B" d="M16.4,31.8c-0.1,0-0.1,0-0.2-0.1c-0.1-0.1-0.1-0.3,0-0.4l8.1-8.1c0.1-0.1,0.3-0.1,0.4,0
		c0.1,0.1,0.1,0.3,0,0.4l-8.1,8.1C16.5,31.8,16.5,31.8,16.4,31.8z"/>
	<circle fill="#40596B" cx="24" cy="24" r="3.2"/>
	<circle fill="#FFFFFF" cx="24" cy="24" r="1.2"/>
</g>
</svg>
