<?xml version="1.0" encoding="utf-8"?>
<!-- Generator: Adobe Illustrator 18.0.0, SVG Export Plug-In . SVG Version: 6.00 Build 0)  -->
<!DOCTYPE svg PUBLIC "-//W3C//DTD SVG 1.1//EN" "http://www.w3.org/Graphics/SVG/1.1/DTD/svg11.dtd">
<svg version="1.1" id="Layer_1" xmlns="http://www.w3.org/2000/svg" xmlns:xlink="http://www.w3.org/1999/xlink" x="0px" y="0px"
	 viewBox="0 0 512 512" enable-background="new 0 0 512 512" xml:space="preserve">
<g>
	<g>
		<path fill="#F8B64C" d="M424.6,208.6c-3.1,0-6.2-1.6-8-4.4c-9.2-14.3-11.7-28.2-7.5-41.4c7.2-22.7,32.5-36.1,47-42.1
			c9.2-3.8,16.8-8.7,22.6-14.6c9.2-9.3,13.3-19.3,12-28.8c-1.1-7.9-5.7-13.7-9.8-15.9c-8-4.5-18-4.4-25.6,0
			c-10.7,6.3-7.7,15.5-7.6,15.9c1.7,5-0.9,10.4-5.9,12.1c-5,1.7-10.4-0.9-12.1-5.9c-2.9-8.4-3.3-27.2,16-38.5
			c13.5-7.9,30.6-8,44.5-0.2c10.1,5.7,17.5,17.1,19.4,29.9c2.2,15.4-4,31.4-17.3,44.9c-7.6,7.7-17.4,14.1-28.9,18.8
			c-9.2,3.8-31.1,14.3-36.1,30.2c-2.4,7.7-0.7,16,5.4,25.4c2.8,4.4,1.6,10.3-2.9,13.2C428.1,208.1,426.3,208.6,424.6,208.6z"/>
	</g>
	<g>
		<path fill="#F8B64C" d="M87.4,208.6c3.1,0,6.2-1.6,8-4.4c9.2-14.3,11.7-28.2,7.5-41.4c-7.2-22.7-32.5-36.1-47-42.1
			c-9.2-3.8-16.8-8.7-22.6-14.6c-9.2-9.3-13.3-19.3-12-28.8c1.1-7.9,5.7-13.7,9.8-15.9c8-4.5,18-4.4,25.6,0
			c10.7,6.3,7.7,15.5,7.6,15.9c-1.7,5,0.9,10.4,5.9,12.1c5,1.7,10.4-0.9,12.1-5.9c2.9-8.4,3.3-27.2-16-38.5
			c-13.5-7.9-30.6-8-44.5-0.2C11.7,50.5,4.2,61.9,2.4,74.7c-2.2,15.4,4,31.4,17.3,44.9c7.6,7.7,17.4,14.1,28.9,18.8
			c9.2,3.8,31.1,14.3,36.1,30.2c2.4,7.7,0.7,16-5.4,25.4c-2.8,4.4-1.6,10.3,2.9,13.2C83.9,208.1,85.7,208.6,87.4,208.6z"/>
	</g>
	<path fill="#FFD15C" d="M82.6,2v63.9C82.6,193,153,305.2,256,342.3h0C359,305.2,429.4,193,429.4,65.9V2H82.6z"/>
	<path fill="#F8B64C" d="M308.8,401.3c-5.4-1.3-10.9-2.2-16.7-2.2h-72.2c-5.8,0-11.3,0.9-16.6,2.2l14.2-64.2l2.5-11.5
		c11.5,6.6,23.5,12.2,36.1,16.8c12.5-4.5,24.6-10.2,36.1-16.8l2.5,11.5L308.8,401.3z"/>
	<path fill="#40596B" d="M372.8,389.6H139.1c-11.7,0-21.2,9.5-21.2,21.2v69.8h276.2v-69.8C394.1,399.1,384.6,389.6,372.8,389.6z"/>
	<rect x="89.7" y="480.7" fill="#334A5E" width="332.6" height="29.3"/>
	<g>
		<circle fill="#FFFFFF" cx="208.4" cy="435.2" r="11.9"/>
		<circle fill="#FFFFFF" cx="256" cy="435.2" r="11.9"/>
		<circle fill="#FFFFFF" cx="303.5" cy="435.2" r="11.9"/>
	</g>
	<path fill="#EFAA45" d="M294.6,337.1c-11.1,6.2-22.7,11.5-34.8,15.9l-3.8,1.4l-3.8-1.4c-12.1-4.3-23.6-9.7-34.8-15.9l2.5-11.5
		c11.5,6.6,23.5,12.2,36.1,16.8c12.5-4.5,24.6-10.2,36.1-16.8L294.6,337.1z"/>
	<polygon fill="#EFAA45" points="342.7,104.3 282.8,95.6 256,41.3 229.2,95.6 169.2,104.3 212.6,146.6 202.4,206.3 256,178.1 
		309.6,206.3 299.3,146.6 	"/>
</g>
</svg>
