<?xml version="1.0" encoding="utf-8"?>
<!-- Generator: Adobe Illustrator 16.0.0, SVG Export Plug-In . SVG Version: 6.00 Build 0)  -->
<!DOCTYPE svg PUBLIC "-//W3C//DTD SVG 1.1//EN" "http://www.w3.org/Graphics/SVG/1.1/DTD/svg11.dtd">
<svg version="1.1" id="Layer_1" xmlns="http://www.w3.org/2000/svg" xmlns:xlink="http://www.w3.org/1999/xlink" x="0px" y="0px"
	 width="48px" height="48px" viewBox="0 0 48 48" enable-background="new 0 0 48 48" xml:space="preserve">
<g>
	<path fill="#F2F2F2" d="M42.785,39.154H5.215c-1.658,0-3-1.343-3-3V8.418c0-1.657,1.342-3,3-3h37.57c1.657,0,3,1.343,3,3v27.736
		C45.785,37.811,44.442,39.154,42.785,39.154"/>
	<rect x="6.214" y="9.417" fill="#40596B" width="35.571" height="23.747"/>
	<path fill="#CDD6E0" d="M48,37.557L48,37.557H0c0,2.775,2.25,5.025,5.025,5.025h37.949C45.75,42.582,48,40.332,48,37.557"/>
	<polygon fill="#ACB3BA" points="17.25,37.557 17.914,39.399 30.085,39.399 30.749,37.557 	"/>
	<path fill="#54C0EB" d="M24,21.898c-6.652,0-12.147,4.889-13.129,11.266h26.258C36.146,26.788,30.651,21.898,24,21.898"/>
	<path fill="#F2F2F2" d="M24.479,22.328c0.012,0.189,0.164,0.411,0.345,0.349c0.239-0.228,0.481-0.456,0.722-0.683
		c0-0.001,0.001-0.002,0.002-0.003c-0.353-0.041-0.71-0.067-1.07-0.08C24.496,22.043,24.471,22.189,24.479,22.328"/>
	<path fill="#FFFFFF" d="M37.183,33.452c-0.052,0.034-0.104,0.068-0.157,0.1c-0.084,0.051-0.174,0.106-0.214,0.195
		c-0.084,0.187,0.129,0.403,0.334,0.389c0.037-0.003,0.071-0.015,0.106-0.027C37.234,33.889,37.211,33.669,37.183,33.452"/>
	<path fill="#F2F2F2" d="M36.124,32.836c-0.013-0.211,0.137-0.396,0.29-0.541c0.138-0.13,0.312-0.243,0.492-0.314
		c-0.947-3.812-3.539-6.972-6.979-8.688c-0.245,0.131-0.55,0.005-0.777-0.158c-0.229-0.163-0.449-0.37-0.729-0.403
		c-0.142-0.017-0.291,0.013-0.423-0.04c-0.117-0.047-0.198-0.149-0.266-0.259c-0.537-0.157-1.089-0.283-1.652-0.372
		c-0.066,0.067-0.112,0.155-0.108,0.249c0.009,0.209,0.211,0.381,0.42,0.385c-0.188-0.046-0.396-0.005-0.552,0.11
		c-0.111,0.081-0.198,0.198-0.323,0.256c-0.356,0.163-0.7-0.219-1.009-0.462c-0.498-0.391-1.279-0.431-1.746-0.004
		c-0.229,0.207-0.439,0.532-0.743,0.485c-0.088-0.013-0.168-0.059-0.255-0.078c-0.357-0.081-0.669,0.433-0.434,0.712
		c0.236,0.279,0.679,0.169,1.029,0.07c0.353-0.099,0.844-0.092,0.951,0.258c0.073,0.236-0.095,0.481-0.088,0.729
		c0.01,0.323,0.377,0.582,0.684,0.481c0.309-0.1,0.453-0.526,0.269-0.792c0.239,0.032,0.262,0.373,0.188,0.602
		c-0.074,0.23-0.164,0.525,0.023,0.677c0.129-0.097,0.257-0.194,0.387-0.292c0.225,0.379,0.448,0.757,0.674,1.135
		c0.137,0.23,0.239,0.591,0,0.71c-0.703-0.417-1.353-0.921-1.933-1.496c-0.144-0.142-0.284-0.29-0.394-0.459
		c-0.116-0.18-0.197-0.382-0.325-0.554c-0.312-0.422-0.867-0.608-1.392-0.604c-0.525,0.005-1.033,0.173-1.531,0.34
		c-0.598,0.2-1.225,0.418-1.646,0.889c-0.421,0.47-0.537,1.277-0.072,1.706c-0.146,0.373,0.078,0.681,0.385,0.94
		c0.306,0.26,0.686,0.419,0.994,0.675c0.31,0.255,0.549,0.671,0.416,1.05c-0.055,0.157-0.166,0.287-0.234,0.438
		c-0.117,0.259-0.102,0.556-0.153,0.835c-0.097,0.537-0.456,1.019-0.942,1.265l0.111-0.069c0.108,0.3,0.029,0.613-0.095,0.916h4.112
		c0.057-0.097,0.111-0.195,0.181-0.283c0.688-0.888,2.146-0.815,2.882-1.664c-0.277,0.051-0.554-0.139-0.693-0.384
		s-0.172-0.534-0.201-0.814c-0.081-0.765-0.159-1.56,0.104-2.282c0.093,0.763,0.188,1.527,0.281,2.291
		c0.019,0.15,0.04,0.308,0.128,0.432c0.191,0.269,0.589,0.253,0.916,0.21c0.26-0.035,0.527-0.072,0.753-0.205
		c0.226-0.132,0.401-0.387,0.359-0.646c-0.048-0.288-0.326-0.468-0.53-0.678c-0.204-0.209-0.324-0.597-0.084-0.763
		c0.396,0.684,0.92,1.295,1.536,1.792c0.209,0.169,0.437,0.334,0.551,0.577c0.132,0.278,0.09,0.604,0.045,0.909
		c-0.073,0.503-0.147,1.005-0.222,1.508h0.141c0.335-0.356,0.775-0.612,1.256-0.706c0.434-0.085,1.03,0.098,1.016,0.539
		c-0.002,0.055-0.018,0.111-0.032,0.167h4.34c-0.192-0.614-0.386-1.227-0.579-1.841c0.333-0.14,0.71,0.156,0.826,0.498
		c0.115,0.343,0.061,0.716,0.077,1.076c0.004,0.088,0.015,0.179,0.032,0.267h0.416C36.187,33.06,36.131,32.954,36.124,32.836"/>
	<path fill="#FF7058" d="M22.949,19.197c0,3.854-6.979,11.166-6.979,11.166s-6.979-7.312-6.979-11.166s3.125-6.979,6.979-6.979
		S22.949,15.343,22.949,19.197"/>
	<path fill="#FFFFFF" d="M19.594,19.197c0,2.001-1.622,3.623-3.623,3.623c-2,0-3.622-1.622-3.622-3.623s1.622-3.623,3.622-3.623
		C17.972,15.574,19.594,17.196,19.594,19.197"/>
</g>
</svg>
