<?xml version="1.0" encoding="utf-8"?>
<!-- Generator: Adobe Illustrator 18.0.0, SVG Export Plug-In . SVG Version: 6.00 Build 0)  -->
<!DOCTYPE svg PUBLIC "-//W3C//DTD SVG 1.1//EN" "http://www.w3.org/Graphics/SVG/1.1/DTD/svg11.dtd">
<svg version="1.1" id="Layer_1" xmlns="http://www.w3.org/2000/svg" xmlns:xlink="http://www.w3.org/1999/xlink" x="0px" y="0px"
	 viewBox="0 0 48 48" enable-background="new 0 0 48 48" xml:space="preserve">
<g>
	<polygon fill="#FFD15C" points="22.2,45.6 22.2,45 22.2,44.6 23.7,44.3 23.8,44.9 24,45.3 24,45.7 	"/>
	<g>
		<path fill="#CED6E0" d="M26,46.4l0.8,0.2c0,0,0.2,0.4,0,0.7c-0.2,0.3-0.6,0.4-0.9,0.4c-0.3,0-1.2,0-1.6-0.3
			c-0.4-0.3-0.2-0.8-0.2-0.8S25.1,45.8,26,46.4z"/>
	</g>
	<g>
		<path fill="#FFD15C" d="M24.5,46.3c0,0-0.6-0.7-0.5-1.7c0.1-1,1-0.7,1-0.7l0.5,0.6l0.3,0.7L24.5,46.3z"/>
	</g>
	<g>
		<path fill="#344A5E" d="M24.4,46.8c0,0,0.5,0.4,1.4,0.3c0.9-0.1,1-0.5,1-0.5s-0.4-0.7-0.5-1c-0.2-0.2-0.5-1-0.7-1.2l0.2,0.5
			c0,0-1.1-0.2-1.3,0.1c-0.2,0.3-0.2,0.4-0.2,0.4V46L24.4,46.8z"/>
	</g>
	<g>
		<path fill="#425A6B" d="M24,44.6c0,0,1.4,0,1.5,0c0.2,0,0.2-0.6,0.2-0.8c0-0.2,0.8-4.7,0.8-4.7l-2.4,0.3c0,0-0.1,1.8-0.1,2.1
			C24,41.8,23.8,44,24,44.6z"/>
	</g>
	<g>
		<path fill="#E8EAE8" d="M21.8,46.6c0,0-0.1,0.9,0,1.1c0.1,0.2,1.7,0.4,2,0.3c0.4-0.1,0.7-0.3,0.5-1.2l0,0c-0.1-0.5-0.5-0.8-1-0.6
			L21.8,46.6z"/>
	</g>
	<g>
		<path fill="#425A6B" d="M23.5,39.4c0,0,0,1.7,0.2,2.2c0.2,0.5,0.2,2.9,0.2,2.9s-1.3,0.2-1.6,0.3C22,45,22,44.4,22,44.4
			s-0.3-2.3-0.5-2.8c-0.2-0.5-0.8-2.3-0.8-2.3L23.5,39.4z"/>
	</g>
	<g>
		<path fill="#425A6B" d="M22.2,45v0.5c0,0,0.2-0.4,0.8-0.5c0.6-0.1,0.9,0.3,0.9,0.3l-0.1-0.4c0,0,0.3,0.5,0.4,1
			c0.1,0.5,0.3,1.2-0.2,1.3c-0.5,0.1-1.5,0-1.8-0.2c-0.3-0.2-0.5-0.4-0.4-0.7C21.9,46.1,22.2,45,22.2,45z"/>
	</g>
	<g>
		<path fill="#344A5E" d="M19.6,21.3c0,0-0.2,2.7-0.3,4.3c-0.1,1.6-0.2,8.2,0,9.4c0.2,1.2,0.8,5.4,0.8,5.4s2.3-0.2,3.3-0.6
			c1-0.4,1.7-0.5,2.6-0.3c0.9,0.2,2.6,0.1,2.6,0.1s0-8.6,0-10.6S28,20.6,28,20.6l0.9-5l0.9-4.6c0,0-0.3-1-0.5-1.3
			C29.1,9.6,29,9.5,29,9.5l-9.9,1.7l-0.4,5.3C18.7,16.6,19.6,19.6,19.6,21.3z"/>
	</g>
	<g>
		<path fill="#2D4454" d="M17.3,11.2l-0.7,0.1c0,0,0.2,0.5,0.4,0.7c0.3,0.2,0.4,0.2,0.4,0.2l0.4-0.7L17.3,11.2z"/>
	</g>
	<g>
		<path fill="#2D4454" d="M20.6,16.4c0,0-0.8,1.8-1.1,2.3c-0.4,0.5-0.7,1.7-0.6,2.2c0.1,0.5,1.2,0.9,1.8,0.3
			c0.5-0.5,1.4-2.8,1.4-3.3C22.1,17.4,20.6,16.4,20.6,16.4z"/>
	</g>
	<g>
		<path fill="#F5B54C" d="M21.6,17.1c0,0-0.9,1-2,1.2l0.1-1.7l1.1-0.5L21.6,17.1z"/>
	</g>
	<g>
		<path fill="#425A6B" d="M19.5,19c-0.4,0.5-0.6,1.3-0.5,1.8c0.1,0.5,1,0.8,1.6,0.5c0,0,0.1,0,0.1-0.1c0,0-0.3,0.6-1.2,0.4
			c-0.9-0.2-1-1.2-0.9-1.6c0.1-0.4,0.4-0.9,0.1-1c-0.3-0.2-1.7-0.7-1.9-1.8c-0.2-1.1-0.2-3.2,0-3.9c0.2-0.8,0.8-1.7,0.8-1.7l2.5,0.7
			c0,0-0.3,3.1-0.3,3.5c-0.1,0.3-0.3,0.4-0.5,0.4c0.2-0.1,0.7-0.2,1.2-0.1c0.6,0.1,1.6,1.2,1.6,1.6c-0.3-0.5-1.5-1.5-1.5-1.5
			S19.8,18.5,19.5,19z"/>
	</g>
	<g>
		<polygon fill="#344A5E" points="17.5,11.8 20.1,13.7 20.5,12.7 		"/>
	</g>
	<g>
		<path fill="#F5B54C" d="M21.3,14.5c0,0,0.1-0.1,0.3,0c0.2,0.1,0.4,0.5,0.4,0.5s0,0.3-0.3,0.3s-0.8,0-0.9,0.1c-0.1,0.1,0-0.3,0-0.3
			L21.3,14.5z"/>
	</g>
	<g>
		<path fill="#2D4454" d="M27.5,23.6l-0.2,0c0,0-1.4-0.7-1.8-2.2c-0.5-1.6-1.1-3.6-0.8-3.9c0,0,1.2-0.2,1.6,0.5
			c0.7,1,1.5,5.2,1.5,5.3C27.8,23.3,27.8,23.5,27.5,23.6z"/>
	</g>
	<g>
		<g>
			<path fill="#FFD15C" d="M25.4,17.5c0,0-0.6,0-0.9,0c-0.2,0-0.6,0-0.8,0c-0.1,0-0.2,0.1-0.2,0.1c-0.1,0.2-0.3,0.5-0.3,0.7L23,18.9
				c0,0,0.4,0.1,0.5-0.4l0.2-0.4c0,0,0.5-0.4,0.7-0.4C24.6,17.6,25.4,17.5,25.4,17.5z"/>
		</g>
		<g>
			<path fill="#F3F3F3" d="M23,18.9c0,0,0.5-0.5,0.1-0.6L23,18.9z"/>
		</g>
	</g>
	<g>
		<g>
			<g>
				<path fill="#67C5B8" d="M25.3,20c0.1,0.1,0.3,0.1,0.5-0.1c0.2-0.2,0.2-0.4,0.1-0.5l-5.5-5.5c-0.1-0.1-0.3-0.1-0.5,0.1
					c-0.2,0.2-0.2,0.4-0.1,0.5L25.3,20z"/>
			</g>
		</g>
		<g>
			<g>
				
					<ellipse transform="matrix(0.7055 0.7087 -0.7087 0.7055 16.0095 -10.1308)" fill="#48B9A5" cx="20.2" cy="14.2" rx="0.3" ry="0.4"/>
			</g>
		</g>
	</g>
	<g>
		<g>
			<path fill="#FFD15C" d="M26.4,18.7c0,0-0.4,0.5-0.6,0.6c-0.2,0.1-1.2,0.6-1.2,0.6c-0.1,0.1-0.4,0-0.3-0.2
				c-0.1,0.1-0.5-0.2-0.3-0.3c-0.2,0.1-0.5-0.2-0.3-0.4c-0.1,0.1-0.2,0-0.3-0.2c0.1-0.1,0.1-0.2,0.1-0.3l0.2-0.4
				c0,0,0.5-0.4,0.7-0.4c0.2,0,0.9-0.2,0.9-0.2l0,0l0.1,0.1L26.4,18.7z"/>
		</g>
		<g>
			<g>
				<g>
					<path fill="#F5B54C" d="M24.3,19.7C24.3,19.7,24.3,19.7,24.3,19.7c0.1,0,0.1-0.1,0.1-0.1c0.1-0.1,0.2-0.1,0.3-0.2
						c0,0,0,0,0.1,0c0,0,0,0,0.1,0c0,0,0.1-0.1,0.1-0.1c0,0,0.1,0,0.1,0c0,0,0,0,0,0s0,0,0,0c0,0,0,0-0.1,0.1c0,0-0.1,0.1-0.1,0.1
						c0,0-0.1,0.1-0.1,0.1c-0.1,0.1-0.2,0.1-0.3,0.2C24.4,19.6,24.4,19.6,24.3,19.7C24.3,19.7,24.3,19.7,24.3,19.7z"/>
				</g>
				<g>
					<path fill="#F5B54C" d="M24,19.4C24,19.4,24,19.4,24,19.4c0.1,0,0.1-0.1,0.1-0.1c0.1-0.1,0.2-0.1,0.3-0.2c0,0,0,0,0.1-0.1
						c0,0,0,0,0,0c0,0,0,0,0,0c0,0,0.1-0.1,0.1-0.1c0,0,0.1,0,0.1-0.1c0,0,0,0,0,0s0,0,0,0c0,0-0.1,0-0.1,0.1c0,0-0.1,0.1-0.1,0.1
						c0,0,0,0,0,0c0,0,0,0,0,0c0,0,0,0-0.1,0.1c-0.1,0.1-0.2,0.1-0.3,0.2C24.1,19.3,24,19.3,24,19.4C24,19.4,24,19.4,24,19.4z"/>
				</g>
				<g>
					<path fill="#F5B54C" d="M23.7,19C23.7,19,23.7,19,23.7,19c0.1,0,0.1-0.1,0.1-0.1c0.1-0.1,0.2-0.1,0.3-0.2
						c0.1-0.1,0.2-0.1,0.2-0.2c0,0,0.1-0.1,0.1-0.1c0,0,0,0,0,0s0,0-0.1,0.1c-0.1,0.1-0.1,0.1-0.2,0.2c0,0-0.1,0.1-0.1,0.1
						c0,0-0.1,0.1-0.1,0.1C23.8,19,23.7,19,23.7,19C23.7,19,23.7,19,23.7,19z"/>
				</g>
			</g>
			<g>
				<path fill="#F5B54C" d="M23.4,18.8c0-0.1,0.1-0.1,0.1-0.2c0-0.1,0-0.1,0-0.2l0,0l0,0c0.1-0.1,0.2-0.3,0.2-0.4l0,0l0,0
					c0.1,0,0.1-0.1,0.2-0.1c0,0,0.1,0,0.1-0.1c0,0,0.1,0,0.1-0.1L24,18l-0.2,0.2l0,0c-0.1,0.1-0.2,0.3-0.2,0.4l0,0
					c0,0.1,0,0.1,0,0.2C23.5,18.7,23.4,18.8,23.4,18.8z"/>
			</g>
		</g>
	</g>
	<g>
		<path fill="#F26F5A" d="M25.3,4.5c0.2,0.4,0.4,0.8,0.5,1.2c0.1,0.4,0.2,0.9,0,1.3c-0.2,0.6-1.1,2.5-1.6,2.8
			c-0.5,0.3-1.1-0.3-1.6,0s-1,0.7-1.2,1.3c0.3-1.2-0.1-2.5,0.1-3.7c0.2-1.3,1.1-2.4,2.3-2.9"/>
	</g>
	<g>
		<g>
			<path fill="#FFD15C" d="M25.6,2.9c0,0,0.1,2-0.1,2.6c-0.1,0.6-0.5,1.2-0.5,1.2s0.3,1.5,0.2,2.2c-0.2,0.7-0.8,1.6-0.8,1.6
				c-0.1,2.4-2.2,2.3-2.1-0.1l-0.7-1.6c0,0,0.8-0.5,0.8-1.1s0-0.8,0-0.8S21.8,6,21.6,5.5c-0.1-0.6-0.3-2-0.3-2.4
				c0-0.3,1.8-0.5,1.8-0.5L25.6,2.9z"/>
		</g>
		<path fill="#F5B54C" d="M23.4,7.5c-0.7,0-1.2-0.7-1.2-0.7s0,0.2,0,0.8s-0.8,1.1-0.8,1.1l0.2,0.4c0.1,0,0.3,0,0.4,0
			c1.3,0,2-0.6,1.7-0.7c-0.4-0.1-0.3-0.2,0.2-0.5c0.6-0.3,0.9-1.2,0.9-1.2C24.8,7,24.1,7.6,23.4,7.5z"/>
		<g>
			<g>
				<ellipse transform="matrix(0.995 0.1002 -0.1002 0.995 0.5658 -2.5468)" fill="#FFD15C" cx="25.6" cy="4.4" rx="0.4" ry="0.8"/>
			</g>
			<g>
				
					<ellipse transform="matrix(-0.995 0.1002 -0.1002 -0.995 42.9819 6.5528)" fill="#FFD15C" cx="21.3" cy="4.4" rx="0.4" ry="0.8"/>
			</g>
		</g>
	</g>
	<g>
		<path fill="#F26F5A" d="M24.8,3.2c0,0,0.7,0.3,0.7,1.1h0.1c0,0,0-0.5,0.3-0.6c0,0,0.1-0.7-0.3-0.9C24.9,2.5,24.8,3.2,24.8,3.2z"/>
	</g>
	<g>
		<path fill="#F26F5A" d="M22.1,3.2c0,0-0.7,0.3-0.7,1.1h-0.1c0,0,0-0.5-0.3-0.6c0,0-0.1-0.7,0.3-0.9C22,2.5,22.1,3.2,22.1,3.2z"/>
	</g>
	<g>
		<g>
			<g>
				<path fill="#FFD15C" d="M28.3,2.1H28V1.7c0-0.1,0.1-0.1,0.1-0.1l0,0c0.1,0,0.1,0.1,0.1,0.1V2.1z"/>
			</g>
		</g>
		<g>
			<g>
				<path fill="#FFD15C" d="M28.4,5.4h-0.5V2.3C27.9,2.1,28,2,28.2,2l0,0c0.1,0,0.2,0.1,0.2,0.3V5.4z"/>
			</g>
		</g>
		<g>
			<g>
				<rect x="28.1" y="0.9" fill="#FFD15C" width="0.1" height="0.8"/>
			</g>
		</g>
	</g>
	<g>
		<path fill="#2D4454" d="M18.4,1.2l5.3,0.4l4.6-0.6c0,0,0-0.1,0-0.1L23.6,0L18.4,1.2z"/>
	</g>
	<g>
		<path fill="#425A6B" d="M21.1,3.4c0,0,1.8-0.1,2.5,0.2c0,0,1.6-0.5,2.2-0.3L26,0.9c0-0.5-5.2-0.4-5.2,0.3L21.1,3.4z"/>
	</g>
	<g>
		<path fill="#425A6B" d="M29.4,9.6c0,0-1.1,1.6-1.4,1.8c-0.2,0.3-1.4,1.1-1.8,1.8c-0.4,0.7-1.7,1.9-1.7,1.9s-2.8-1.4-3.1-1.6
			c-0.3-0.2-1.2-0.7-1.8-0.8c-0.6-0.1-1.9-0.9-2.1-1c-0.2-0.2-0.9-0.5-0.9-0.5l2.6-2c0.8-0.6,1.8-1,2.8-1.1l0,0
			c0,0.9,0.5,1.8,1.4,2.5c1.5-1.1,1.7-2.8,1.7-2.8C25.9,8.3,29.4,9.6,29.4,9.6z"/>
	</g>
	<path fill="#F3F3F3" d="M26.5,8.5c-0.1,0.5-0.3,1.3-1,2c-1.1,1.2-1.7,1.6-1.7,1.6s-1.6-0.8-2.2-1c-0.6-0.2-2.4-1.8-2.4-1.8
		l-1.7,1.3c0,0,0.8,0.6,1.4,0.9c0.6,0.3,2.1,0.9,2.6,1.1c0.5,0.2,2.7,1.4,2.7,1.4s1.6-1.7,1.8-1.9c0.2-0.2,2.4-2.2,2.6-3L26.5,8.5z"
		/>
	<g>
		<path fill="#425A6B" d="M29.3,9.8c0,0,0.5,0.6,0.8,1c0.4,0.5,0.3,2.3,0.5,2.8c0.2,0.5,1,3.4,0.7,3.8c-0.3,0.5-1.9,2.4-2.2,3
			c-0.2,0.6-1.2,2.5-1.3,2.8c-0.1,0.3-0.3,0.3-0.5,0.2c0,0,0.5,0,0.4-0.3c0-0.3-0.9-2.8-1.1-3.2c-0.2-0.4-0.8-2.7-2-2.6
			c0,0,1.3-0.5,1.9-0.5c0.6,0,0.9-0.2,0.9-0.2s-0.1-1.8,0-2.3c0.1-0.5,0.2-1.4,0.2-1.4S29.4,10.6,29.3,9.8z"/>
	</g>
	<g>
		<path fill="#FFD15C" d="M20.6,15.2c0,0,0.2,0.2,0.4,0.2c0.2,0,0.6-0.2,0.7-0.3c0.1-0.1,0.3,0,0.3,0.3c0,0,0.4-0.1,0.4,0.3
			c0,0,0.3-0.1,0.3,0.4c0,0,0.3,0,0.2,0.2c0,0-0.1,0.2-0.3,0.4c-0.2,0.2-0.7,0.8-0.7,0.8s-0.3,0.1-0.4-0.1c-0.1-0.2-0.3-0.2-0.4-0.3
			c-0.1-0.2-0.2-0.2-0.3-0.2c-0.1-0.1-0.1,0-0.1-0.2c0-0.1-0.1-0.2-0.1-0.3c-0.1-0.1-0.2-0.3-0.2-0.5C20.4,15.7,20.6,15.2,20.6,15.2
			z"/>
	</g>
	<g>
		<g>
			<path fill="#F5B54C" d="M22,15.4C22,15.4,22,15.4,22,15.4c0,0.1-0.1,0.1-0.1,0.1c0,0-0.1,0.1-0.1,0.1c-0.1,0.1-0.1,0.1-0.2,0.2
				l0,0l0,0c-0.1,0.1-0.2,0.1-0.3,0.2c-0.1,0-0.1,0-0.2,0.1c-0.1,0-0.1,0-0.2,0l0.1,0c0,0,0.1,0,0.1,0c0.1,0,0.1,0,0.2-0.1
				c0.1-0.1,0.2-0.1,0.3-0.2l0,0c0.1-0.1,0.1-0.1,0.2-0.2c0,0,0.1-0.1,0.1-0.1C21.9,15.4,21.9,15.4,22,15.4
				C21.9,15.4,22,15.4,22,15.4z"/>
		</g>
		<g>
			<path fill="#F5B54C" d="M22.4,15.7C22.4,15.7,22.3,15.7,22.4,15.7c0,0.1-0.1,0.1-0.1,0.2c0,0-0.1,0.1-0.1,0.2c0,0,0,0.1-0.1,0.1
				c0,0,0,0,0,0c0,0,0,0,0,0c-0.1,0-0.1,0.1-0.2,0.1c-0.1,0-0.1,0.1-0.2,0.1c0,0-0.1,0-0.1,0.1c0,0,0,0,0,0s0,0,0,0
				c0,0,0.1,0,0.1-0.1c0,0,0.1-0.1,0.2-0.1c0.1,0,0.1-0.1,0.2-0.1c0,0,0,0,0,0c0,0,0,0,0,0c0,0,0-0.1,0.1-0.1c0-0.1,0.1-0.1,0.1-0.1
				C22.3,15.7,22.4,15.7,22.4,15.7z"/>
		</g>
		<g>
			<path fill="#F5B54C" d="M22.6,16C22.6,16,22.6,16,22.6,16c0,0.1-0.1,0.1-0.1,0.2c0,0-0.1,0.1-0.1,0.2c0,0,0,0.1-0.1,0.1
				c0,0,0,0,0,0l0,0l0,0c-0.1,0-0.1,0.1-0.2,0.1c-0.1,0-0.1,0.1-0.1,0.1c0,0-0.1,0.1-0.1,0.1c0,0,0,0,0,0s0,0,0,0c0,0,0.1,0,0.1-0.1
				c0,0,0.1-0.1,0.1-0.1c0.1,0,0.1-0.1,0.2-0.1l0,0l0,0c0,0,0,0,0,0c0,0,0,0,0.1-0.1c0-0.1,0.1-0.1,0.1-0.1S22.6,16.1,22.6,16
				C22.6,16,22.6,16,22.6,16z"/>
		</g>
	</g>
</g>
</svg>
