<?xml version="1.0" encoding="utf-8"?>
<!-- Generator: Adobe Illustrator 19.0.1, SVG Export Plug-In . SVG Version: 6.00 Build 0)  -->
<svg version="1.1" id="Layer_1" xmlns="http://www.w3.org/2000/svg" xmlns:xlink="http://www.w3.org/1999/xlink" x="0px" y="0px"
	 viewBox="-475 477 48 48" style="enable-background:new -475 477 48 48;" xml:space="preserve">
<style type="text/css">
	.st0{fill:#344A5E;}
	.st1{fill:#FFD15C;}
	.st2{fill:#E8EAE9;}
	.st3{fill:#F7B64C;}
	.st4{fill:#CED6E0;}
	.st5{fill:#F3705A;}
	.st6{fill:#415A6B;}
	.st7{fill:#E89E3D;}
	.st8{fill:#F3F3F3;}
	.st9{fill:#55C0EB;}
</style>
<g>
	<g>
		<g>
			<ellipse class="st0" cx="-459.5" cy="513.2" rx="1.4" ry="3.7"/>
		</g>
		<g>
			<path class="st0" d="M-443.5,524.9l-5.2-15.8c0,0,0.5-1.6,1.9-2.8c1.3-1.2,3.3-1.5,3.3-1.5s-0.8-0.6-2.3-1.2
				c-1.5-0.6-2.2-0.5-2.2-0.5c-3.6,3-7.1,13.5-7.3,15.7c-0.1,1.7,0.5,5,0.7,6.1H-443.5z"/>
		</g>
		<g>
			<path class="st1" d="M-453.9,518.9l1.7-0.3c0,0,1.6,0.4,2.1-1.2c0.5-1.6-0.3-2.2-0.3-2.2s-1.9,0.6-2.7,0.7
				c-0.8,0.1-1.8,1.4-1.8,1.4L-453.9,518.9"/>
		</g>
		<g>
			<path class="st2" d="M-453.4,515.6l0.5,0.1c0,0,0.2,2.5,0.4,3c0.2,0.5,0.2,0.5,0.2,0.5l-2.3,0.6L-453.4,515.6z"/>
		</g>
		<g>
			<path class="st3" d="M-452.6,492.5l-0.9,0.6c0,0-1.1,1.6-1.3,2.2c-0.3,0.6-0.1,0.5-0.4,1c-0.3,0.5-0.9,3.6-0.8,4.4
				c0.1,0.8,1,1.3,1,1.3l0.3,3.6l4.9-1.2c0,0,0.1-2.8,0.4-3.4c0.3-0.7,1.8-1.8,2-2.6c0.2-0.9-0.4-4-1.1-5
				C-449.2,492.4-452.6,492.5-452.6,492.5z"/>
		</g>
		<g>
			<polygon class="st4" points="-453.6,503.9 -453,504 -452.8,504 -449.4,504.2 -454.8,515.1 -456.2,505.3 			"/>
		</g>
		<g>
			<g>
				<polygon class="st5" points="-451.9,505 -452.5,505.5 -453.5,505.5 -454,504.9 -453,504 -452.8,504 				"/>
			</g>
			<g>
				<polygon class="st5" points="-453.5,505.5 -454.3,510.4 -453.3,511.5 -452.3,510.5 -452.5,505.5 				"/>
			</g>
		</g>
		<g>
			<path class="st6" d="M-453.4,493.2c0,0,1.1,0.2,2.2,0.5s2.3,1.5,2.2,2.2c-0.1,0.7-0.4,1.2-0.4,1.8c0.1,0.6-0.5,1.7-0.5,1.7
				l0.3,0.3c0,0,1.3-0.9,2-0.7c0.7,0.1,1.4-3.5,0.7-5.3c-0.7-1.8-3.9-3.1-4.6-3.1C-452.3,490.5-454.4,490.9-453.4,493.2z"/>
		</g>
		<g>
			<path class="st3" d="M-447.9,500.2c-0.6,0.5-1.4,0.6-1.7,0.2c-0.3-0.3-0.1-1,0.5-1.5c0.6-0.5,1.4-0.6,1.7-0.2
				C-447.1,499.1-447.3,499.7-447.9,500.2z"/>
		</g>
		<g>
			<path class="st7" d="M-454.9,502.1l0.1,1.6c2.9-0.8,4.4-2.6,4.4-2.6C-451.7,502.3-454.9,502.1-454.9,502.1z"/>
		</g>
		<g>
			<path class="st8" d="M-453,504c-0.3,0.3-1.8,1.8-1.8,2.5l-0.8-0.8l0.4-1.4c0,0,0-2,0.3-2.1C-454.9,502.1-454.8,502.8-453,504z"/>
		</g>
		<g>
			<path class="st0" d="M-460.4,524.9h6.9l-0.8-10.2l-0.9-9.9c0,0,0.1-1.6,0.2-2.4c0,0-0.4,0.7-1,1c-0.6,0.3-4,1.6-4.6,2.1
				c0,0,0.4,4.3,0.7,5.8C-459.7,512.6-459.6,520.7-460.4,524.9z"/>
		</g>
		<g>
			<path class="st6" d="M-455.3,518.7c0,0-0.3-3.1-0.3-5c0-1.9-0.3-10.2-0.3-10.2l0.9-1.2C-455,502.4-453.8,511.3-455.3,518.7z"/>
		</g>
		<g>
			<path class="st1" d="M-454.9,506.2c0,0-0.1-0.1,0-0.3c0.1-0.2,0.6-0.6,0.7-1.2c0.1-0.5,0.4-1.2,0.6-1.3c0.2-0.2,0.9-0.9,1-1.2
				c0.1-0.3,0.1-0.4-0.2-0.6c-0.3-0.2-0.6,0.1-0.7,0.2c-0.1,0.1-0.7,0.7-0.9,0.9c-0.2,0.2-0.4,0.3-0.9,0.3c-0.5,0-0.5-0.1-0.6-0.3
				c-0.1-0.2,0-1.2,0.1-1.6c0,0,0-0.9,0-1.1c0-0.2-0.2-0.4-0.3-0.3c-0.1,0.1-0.1,0.3-0.2,0.6c-0.1,0.3-0.4,1.2-0.7,1.6
				c-0.2,0.4-0.4,0.5-0.5,0.6c0,0-0.4,0.1-0.3,0.8c0.1,0.7,0.3,2.5,0.3,2.9c0,0.4,0.5,1.8,0.5,1.8L-454.9,506.2z"/>
		</g>
		<g>
			<path class="st8" d="M-449.4,501.7c0,0-0.5,0.8-1,1.1c-0.5,0.3-2.4,1.2-2.4,1.2s1,1.3,1.2,2l2.7-2.4
				C-448.9,503.5-449.3,502-449.4,501.7z"/>
		</g>
		<g>
			<path class="st6" d="M-449.4,501.7c0,0,0.2,0.6-0.3,1.4c-0.5,0.7-2.4,2.5-3,3.9c-0.6,1.4-2.5,7.2-2.6,11.8c0,0,2.8-7.7,4.2-10
				c1.3-2.3,3.5-5.2,3.6-5.4s-0.5-0.6-0.9-0.8C-448.9,502.3-449.4,501.7-449.4,501.7z"/>
		</g>
		<g>
			<path class="st2" d="M-454.6,506.3l-0.2-0.1c0,0-1.3,0.2-2.1,1s-0.7,1.1-0.7,1.1l0.2,0.9c0,0,2.5-1.2,2.5-1.2
				C-454.9,507.9-454.6,506.3-454.6,506.3z"/>
		</g>
		<g>
			<path class="st6" d="M-443,506.4c-0.1,1.5-0.4,2.2-0.5,2.8c-0.1,0.6-0.6,1.9-0.6,2.2c-0.1,0.2-1.3,4.1-1.9,5.6
				c-0.1,0.2-0.2,0.4-0.3,0.5c-0.5,0.7-1.2,2-2.6,1.7c-1.4-0.4-2.8-1.9-3.7-3.4c-0.2-0.4-0.8-1-1.5-1.7c-1.8-1.8-4.3-4-4.3-4
				s0.7-1.4,1.6-2.4c0.9-1,2.3-1.4,2.3-1.4s1.9,1.9,2.3,2.3c0.1,0.1,0.2,0.2,0.3,0.3c0.4,0.4,0.7,1.1,1,1.4c0.4,0.4,1.1,0.5,1.4,0.8
				c0.3,0.3,0.6,0.5,0.6,0.5s-0.2-1.6,0.3-2.4c0,0,0.5-1.6,1.9-2.8c1.3-1.2,3.3-1.5,3.3-1.5S-442.9,504.9-443,506.4z"/>
		</g>
		<g>
			<path class="st6" d="M-452.9,520.5c0,0-0.3,0.1-0.9,0.1c-1.5,0.2-4.6,0.5-5.7,0.5c-0.2,0-0.3,0-0.5,0c-1.3,0-3.1,0-3.4-0.3
				c-0.4-0.3-0.9-2-1-2.6c-0.1-0.6,0.2-1.1,0.4-1.8c0.2-0.7,0.8-2.9,1.1-3.6c0.3-0.7,0.2-0.8,0.2-1.3c0-0.5,0.1-0.5,0.2-0.9
				c0.1-0.4,0.2-0.7,0.2-1.2c0.1-0.5,0.4-1.1,0.6-1.5c0.2-0.4,0.2-0.9,0.4-1.6c0.2-0.7,0.7-0.9,0.7-0.9s0.4,4.3,0.7,5.8
				c0,0.1,0,0.3,0.1,0.4l0.1,4.1v0c0,0,0.3,0,0.4,0c0.2,0,2.3-0.1,3-0.3c0.4-0.1,1.4-0.1,2.2-0.1c0.6,0,1.2,0,1.2,0s-0.1,1-0.4,1.9
				C-453.7,518.2-452.9,520.4-452.9,520.5z"/>
		</g>
	</g>
	<g>
		<g>
			<g>
				<path class="st5" d="M-431.2,482L-431.2,482L-431.2,482c-1.4,0.9-2.6,2.9-3.4,4.4c-0.8,1.6-1.1,3.2-1.2,4c0,0.1,0,0.2-0.1,0.3
					c-0.1,0.6-0.4,0.6-0.4,0.6l0,0l-0.6-0.3l0-0.1c0,0-0.3-1,0-2.6c0.2-1.1,0.8-2.3,1.2-3.1c-2.3,2.1-4.1,4.2-5.5,6.3
					c-0.7,1.2-1.2,2.4-1.6,3.2c-0.2,0.5-0.4,0.9-0.5,1c-0.3,0.4-0.9,0.4-1.1,0.4c0,0,0,0,0,0l-0.1,0l0.2-1.4
					c0.8-2.9,2.2-4.8,3.5-6.5c1.1-1.4,3.3-3.4,4.2-4.2c-0.5,0.1-1.4,0.4-2,0.5c-0.5,0.1-1.3,0.2-1.9,0.2c-1.2,0-1.3-0.3-1.3-0.4
					c-0.1-0.3-0.5-0.7-0.7-0.9l-0.2-0.2l0.3,0c2.8,0,5.2-0.7,6.9-1.2c0.2-0.1,0.5-0.1,0.7-0.2c1.7-0.5,3.1-1.1,3.1-1.1l0,0l0,0
					c0.3,0,0.6,0.2,0.7,0.4C-431,481.4-431.2,482-431.2,482z"/>
			</g>
		</g>
		<g>
			<g>
				<path class="st5" d="M-470.8,482L-470.8,482L-470.8,482c1.4,0.9,2.6,2.9,3.4,4.4c0.8,1.6,1.1,3.2,1.2,4c0,0.1,0,0.2,0.1,0.3
					c0.1,0.6,0.4,0.6,0.4,0.6l0,0l0.6-0.3l0-0.1c0,0,0.3-1,0-2.6c-0.2-1.1-0.8-2.3-1.2-3.1c2.3,2.1,4.1,4.2,5.5,6.3
					c0.7,1.2,1.2,2.4,1.6,3.2c0.2,0.5,0.4,0.9,0.5,1c0.3,0.4,0.9,0.4,1.1,0.4c0,0,0,0,0.1,0l0.1,0l-0.2-1.4
					c-0.8-2.9-2.2-4.8-3.5-6.5c-1.1-1.4-3.3-3.4-4.2-4.2c0.5,0.1,1.4,0.4,2,0.5c0.5,0.1,1.3,0.2,1.9,0.2c1.2,0,1.3-0.3,1.3-0.4
					c0.1-0.3,0.5-0.7,0.7-0.9l0.2-0.2l-0.3,0c-2.8,0-5.2-0.7-6.9-1.2c-0.2-0.1-0.5-0.1-0.7-0.2c-1.7-0.5-3.1-1.1-3.1-1.1l0,0l0,0
					c-0.3,0-0.6,0.2-0.7,0.4C-471,481.4-470.8,482-470.8,482z"/>
			</g>
		</g>
	</g>
	<g>
		<g>
			<g>
				<g>
					<path class="st9" d="M-447.7,481.5c-1.1,1-1.8,1.9-2.1,2.6c-0.2,0.4-0.2,0.7-0.2,0.9c0,0.2,0,0.3-0.1,0.5
						c-0.1,0.2-0.3,0.3-0.6,0.3c0,0-0.1,0-0.1,0c-0.4,0-0.8-0.3-0.9-0.7c-0.4-0.9,0.8-2.8,0.9-2.8c0.4-0.7,2-2.1,2.4-2.5
						c0.4-0.3,0.5-0.5,0.4-0.9c-0.1-0.2-0.9-0.2-1.2-0.2h-0.2c-0.4,0-1.7,0.7-2,1.2c-0.2,0.4-0.2,0.7-0.1,1c0,0.1,0,0.2,0,0.2
						c0,0.4-0.2,0.5-0.3,0.6c-0.2,0.1-0.4,0.1-0.5-0.1c0,0-0.2-0.1-0.3-0.1c-0.3,0-0.6-0.3-0.6-0.6c0-0.1,0-0.2,0-0.4
						c0-0.3,0-1.2,0.5-1.7c0.4-0.5,1.8-1.3,3.2-1.5c1.1-0.1,2.5-0.1,3.2,1.2C-445.7,479.6-446.7,480.6-447.7,481.5z"/>
					<path class="st9" d="M-449.6,488.4c-0.1,0.1-0.3,0.4-0.6,0.4c-0.1,0-0.2,0-0.3-0.1c-0.1-0.1-0.1-0.1-0.2-0.1
						c-0.1,0-0.1,0-0.2-0.1c-0.1,0-0.3,0-0.4-0.2c-0.2-0.2-0.3-0.4-0.2-0.7c0-0.1,0.1-0.3,0.2-0.4l0.1-0.1c0.3-0.1,0.4-0.2,0.5-0.3
						c0.2-0.3,0.6-0.1,0.7-0.1c0.3,0.1,0.5,0.4,0.5,0.6c0,0.1,0,0.1,0,0.2v0C-449.4,487.9-449.4,488.1-449.6,488.4z"/>
				</g>
			</g>
		</g>
	</g>
</g>
</svg>
