<?xml version="1.0" encoding="utf-8"?>
<!-- Generator: Adobe Illustrator 18.0.0, SVG Export Plug-In . SVG Version: 6.00 Build 0)  -->
<!DOCTYPE svg PUBLIC "-//W3C//DTD SVG 1.1//EN" "http://www.w3.org/Graphics/SVG/1.1/DTD/svg11.dtd">
<svg version="1.1" id="Layer_1" xmlns="http://www.w3.org/2000/svg" xmlns:xlink="http://www.w3.org/1999/xlink" x="0px" y="0px"
	 viewBox="0 0 48 48" enable-background="new 0 0 48 48" xml:space="preserve">
<g>
	<g>
		<g>
			<g>
				<g>
					<g>
						<path fill="#F3705A" d="M43.5,22.9c-1.4,0.1-2.8-0.4-3.9-1.3c-1.1-0.9-1.8-2.2-2.1-3.6c-0.2-0.7-0.3-1.4-0.1-2.2
							c0.2-0.7,0.5-1.3,1-1.8c0.5-0.5,1-1,1.5-1.4l0.1,0.3c-0.5,1.8,0.4,2.7,1.3,3.5c0.3,0.2,0.4,0.6,0.5,0.9
							c0.3,0.7,0.1,1.4,0.1,2.1c0,1.1,0.6,2,1.4,2.7L43.5,22.9z"/>
					</g>
					<g>
						<path fill="#415A6B" d="M45.7,28.2l0.1-0.5c0,0,0.1-4.1-1.9-5.3c-2.1-1.3-3.1-2-3.1-2l-7.7,1l-1.7,0.8
							c-1.1,0.6-1.9,1.7-2.1,2.9l-0.5,3.1H45.7z"/>
					</g>
					<g>
						<polygon fill="#E8EAE9" points="33.1,28.2 36.2,23.8 39.9,18.5 32.8,24.7 31.1,28.2 						"/>
					</g>
					<g>
						<polygon fill="#344A5E" points="36.1,28.2 38.6,24.6 36.8,24.7 39.1,23.7 40.8,20.4 39.9,18.5 36.2,23.8 33.1,28.2 						"/>
					</g>
					<polygon fill="#344A5E" points="31.1,28.2 32.8,24.7 31,24.3 29.5,28.2 					"/>
					<g>
						<path fill="#F7B64C" d="M33.7,18.4c0,0,0.9,1.9,0.8,2.5c-0.1,0.6-0.9,2.2-0.8,2.3c0.1,0.1-0.8,3-0.8,3s0.9-1.3,1.4-1.5
							c0,0,0.6-1.1,0.8-1.3l2.5-3.9l1.1-2.1c0,0-0.5-1.2,0-2.2l0.5-1.9l-3.9,1.3l-1.1,2.8L33.7,18.4z"/>
					</g>
				</g>
				<g>
					<path fill="#E8EAE9" d="M32.5,28.2l1.3-0.9l2.8-4c0,0,1.5,0.5,2.2,0.2c0,0,1-3.5,1.1-4.6c0,0,0.1-0.7-0.6-1.4
						c0,0-0.5-0.6-0.7-0.5c0.1,0.4,0,0.8-0.2,1.2c-0.7,1.3-2.4,4-2.4,4s-1,1.5-1.2,1.7c-0.2,0.2-0.5,0.9-0.5,0.9l0,0
						c-0.9,0.6-1.5,1.6-1.7,2.7c-0.1,0.3-0.1,0.6-0.2,0.8H32.5z"/>
				</g>
				<g>
					<path fill="#F3F3F3" d="M31.9,24.6c0.5,0.9,0.2,2.6-0.1,3.6h0.2c0.5-0.9,1-2.4,1-2.4l0.8-2.9c0,0,0.4-1.3,0.6-1.9
						c0.2-0.3-0.4-2-0.5-2l-3,4.2C31,23.3,31.2,23.3,31.9,24.6z"/>
				</g>
				<g>
					<path fill="#FFD15C" d="M37.8,11.3c-1-0.6-4.5-2.8-4.5-2.8h-1.9l-0.5,1.7c0,0-0.5,3.8,0,5.1c0.5,1.3,1.9,4.1,2.9,4.1
						c1,0,2.6-1.1,3.2-1.9c0.4-0.5,0.9-1.3,1.2-2c0.1-1.1,1.5-2.7,0.7-3.2C38.9,12.2,37.9,11.3,37.8,11.3z"/>
					<g>
						<path fill="#F3705A" d="M32.4,9.1c0.8,0,1.8,1,2.7,1.8c0.9,0.8,2.5,1.2,3.3,1.6c0.9,0.3,0.5,2.6,0.2,3.1c0,0,0.7-1,0.6-1.7
							c0,0-0.3,2.2,0.4,3.5c-0.3-2.5,0.3-3.3,0.8-5.3c0,0,1-5.2-4.7-6.3c0,0-1.8-0.1-2.5,0.7c0,0-1.8,0.6-2.6,2.6
							c-0.8,2-0.9,3.9,0,4.8C30.7,13.7,30.4,9.1,32.4,9.1z"/>
					</g>
				</g>
			</g>
			<g>
				<path fill="#FFD15C" d="M37.7,16c0.1-0.1,0.4-0.1,0.6-1c0,0,2.1-1.6,0.5-2.9c0,0-0.6-0.4-0.9,0.6l-0.4,0.8c0,0-0.3,2-0.3,2
					C37.3,15.7,37.6,16.1,37.7,16z"/>
			</g>
		</g>
		<g>
			<g>
				<g>
					<g>
						<g>
							<path fill="#FFD15C" d="M20.6,14.1c-0.2,0.9-0.7,1.4-1.3,1.3c-0.5-0.2-0.8-1-0.6-1.8c0.2-0.8,0.8-1.3,1.3-1.2
								C20.5,12.5,20.8,13.3,20.6,14.1z"/>
						</g>
						<g>
							<path fill="#FFD15C" d="M10.2,14.1c0.2,0.9,0.7,1.4,1.3,1.3c0.5-0.2,0.8-1,0.6-1.8c-0.2-0.8-0.8-1.3-1.3-1.2
								C10.3,12.5,10,13.3,10.2,14.1z"/>
						</g>
					</g>
				</g>
				<path fill="#415A6B" d="M19.4,14.7h-8c0,0-3.4-9.8,4-9.8C22.8,5,19.4,14.7,19.4,14.7z"/>
				<path fill="#E8EAE9" d="M26,28.5l-1.1-6c-0.2-1.2-1.1-2.2-2.3-2.6l-3.9-1.1h-6.6l-3.9,1.1c-1.2,0.3-2.1,1.3-2.3,2.6l-1.1,6H26z"
					/>
				<g>
					<g>
						<g>
							<path fill="#F3705A" d="M13.5,28.5h3.8l-1-4.7L17,23c0,0-1.1-1.6-1.6-1.6c-0.6,0-1.6,1.6-1.6,1.6l0.7,0.7L13.5,28.5z"/>
						</g>
						<g>
							<g>
								<path fill="#F3F3F3" d="M12.4,17.7l3,3.6c-0.9,0.6-1.5,1.3-2,2.3l-1.9-4.9C11.8,18.3,12.4,17.7,12.4,17.7z"/>
							</g>
						</g>
					</g>
					<g>
						<path fill="#F3F3F3" d="M18.4,17.7l-3,3.6c1,0.7,1.6,1.4,2,2.3l1.9-4.9C19,18.3,18.4,17.7,18.4,17.7z"/>
					</g>
				</g>
				<path fill="#F7B64C" d="M12.4,14.3l0,3.4c0.7,1.4,1.7,2.4,3,3.7c1.2-1.1,2.2-2,3-3.7l0-3.4H12.4z"/>
			</g>
			<g>
				<path fill="#FFD15C" d="M15.3,10.1c-1.3,0-2.4-0.3-3.3-0.8c-0.5,1-0.8,2.3-0.8,3.7c0,3.4,1.9,6.2,4.2,6.2c2.3,0,4.2-2.8,4.2-6.2
					c0-1.4-0.3-2.8-0.9-3.8C17.8,9.8,16.6,10.1,15.3,10.1z"/>
			</g>
		</g>
		<g>
			<g>
				<path fill="#FFD15C" d="M45.8,32.7H2.2c-1.2,0-2.2-1-2.2-2.2l0,0c0-1.2,1-2.2,2.2-2.2h43.5c1.2,0,2.2,1,2.2,2.2l0,0
					C48,31.7,47,32.7,45.8,32.7z"/>
			</g>
			<g>
				<rect x="3.2" y="32.7" fill="#F7B64C" width="41.5" height="10.4"/>
			</g>
		</g>
		<g>
			<g>
				<path fill="#8AD7F8" d="M29,23.2v4.3c0,0.4-0.3,0.7-0.7,0.7H25c-0.4,0-0.7-0.3-0.7-0.7v-4.3H29z"/>
				<g>
					<path fill="#8AD7F8" d="M28.6,27.1l-0.2-0.6c1.6-0.4,1.5-1.9,1.5-2c0-0.4-0.5-0.4-0.5-0.4c-0.1,0-0.5,0-0.5,0.4l-0.7,0
						c0-1.5,2.4-1.5,2.4,0C30.6,25.2,30.3,26.7,28.6,27.1z"/>
				</g>
			</g>
			<g>
				<g>
					<path fill="#415A6B" d="M25.7,21.4L25.7,21.4c-0.1,0-0.2,0.1-0.2,0.2v1c0,0.1,0.1,0.2,0.2,0.2l0,0c0.1,0,0.2-0.1,0.2-0.2v-1
						C25.9,21.4,25.8,21.4,25.7,21.4z"/>
				</g>
				<g>
					<path fill="#415A6B" d="M26.7,20.7L26.7,20.7c-0.1,0-0.2,0.1-0.2,0.2v1c0,0.1,0.1,0.2,0.2,0.2l0,0c0.1,0,0.2-0.1,0.2-0.2v-1
						C26.9,20.7,26.8,20.7,26.7,20.7z"/>
				</g>
				<g>
					<path fill="#415A6B" d="M27.6,21.4L27.6,21.4c-0.1,0-0.2,0.1-0.2,0.2v1c0,0.1,0.1,0.2,0.2,0.2l0,0c0.1,0,0.2-0.1,0.2-0.2v-1
						C27.8,21.4,27.7,21.4,27.6,21.4z"/>
				</g>
			</g>
		</g>
		<g>
			<g>
				<path fill="#8AD7F8" d="M4,23.2v4.3c0,0.4,0.3,0.7,0.7,0.7h3.3c0.4,0,0.7-0.3,0.7-0.7v-4.3H4z"/>
				<g>
					<path fill="#8AD7F8" d="M4.3,27.1l0.2-0.6c-1.6-0.4-1.5-1.9-1.5-2c0-0.4,0.5-0.4,0.5-0.4c0.1,0,0.5,0,0.5,0.4l0.7,0
						c0-1.5-2.4-1.5-2.4,0C2.3,25.2,2.6,26.7,4.3,27.1z"/>
				</g>
			</g>
			<g>
				<g>
					<path fill="#415A6B" d="M7.2,21.4L7.2,21.4c0.1,0,0.2,0.1,0.2,0.2v1c0,0.1-0.1,0.2-0.2,0.2l0,0c-0.1,0-0.2-0.1-0.2-0.2v-1
						C7,21.4,7.1,21.4,7.2,21.4z"/>
				</g>
				<g>
					<path fill="#415A6B" d="M6.3,20.7L6.3,20.7c0.1,0,0.2,0.1,0.2,0.2v1c0,0.1-0.1,0.2-0.2,0.2l0,0c-0.1,0-0.2-0.1-0.2-0.2v-1
						C6.1,20.7,6.2,20.7,6.3,20.7z"/>
				</g>
				<g>
					<path fill="#415A6B" d="M5.4,21.4L5.4,21.4c0.1,0,0.2,0.1,0.2,0.2v1c0,0.1-0.1,0.2-0.2,0.2l0,0c-0.1,0-0.2-0.1-0.2-0.2v-1
						C5.2,21.4,5.2,21.4,5.4,21.4z"/>
				</g>
			</g>
		</g>
	</g>
</g>
</svg>
