<?xml version="1.0" encoding="utf-8"?>
<!-- Generator: Adobe Illustrator 19.0.1, SVG Export Plug-In . SVG Version: 6.00 Build 0)  -->
<svg version="1.1" id="Layer_1" xmlns="http://www.w3.org/2000/svg" xmlns:xlink="http://www.w3.org/1999/xlink" x="0px" y="0px"
	 viewBox="0 0 48 48" style="enable-background:new 0 0 48 48;" xml:space="preserve">
<style type="text/css">
	.st0{fill:#FFD15C;}
	.st1{fill:#415A6B;}
	.st2{fill:#F7B64C;}
	.st3{fill:#CED6E0;}
	.st4{fill:#344A5E;}
	.st5{fill:#F3F3F3;}
	.st6{fill:#F05540;}
	.st7{fill:#F3705A;}
	.st8{fill:#66C6B9;}
	.st9{fill:#55C0EB;}
	.st10{fill:#F5F6FB;}
	.st11{fill:#4ABAA5;}
	.st12{fill:#ADB3BA;}
	.st13{fill:#E8EAE9;}
	.st14{fill:#2E4556;}
	.st15{fill:#8AD7F8;}
	.st16{fill:#FFFFFF;}
	.st17{fill:#E54838;}
	.st18{fill:#3EAF99;}
	.st19{fill:#EFA943;}
	.st20{fill:#4CAEE5;}
	.st21{fill:#293F4F;}
	.st22{fill:#2D4456;}
	.st23{fill:#2E4454;}
	.st24{fill:#2A3F4F;}
	.st25{fill:#2D4151;}
	.st26{fill:#E89E3D;}
	.st27{fill:#2B4151;}
	.st28{fill:#2A4051;}
	.st29{fill:#2C4151;}
	.st30{fill:#EBEAE8;}
	.st31{fill:#3AA590;}
	.st32{fill:#E84534;}
	.st33{fill:none;}
</style>
<g>
	<g>
		<path class="st0" d="M9.6,11.4c0,0,0.2,0.7,0.2,0.9c0,0.2,0,0.2,0.1,0.4c0.1,0.2,0.3,0.5,0.3,0.5s0.1,0.2,0,0.2
			c-0.1,0-0.3,0.1-0.3,0.1s0,0.1,0,0.2c0.1,0.1,0,0.2,0,0.2s0.1,0,0,0.3c-0.1,0.2-0.2,0.3-0.1,0.6c0,0.5-0.7,0.2-1,0.2
			c-0.2,0-0.9,0.4-1.3,1c-0.4,0.6-1.5-1.5-1.5-1.5l0.8-2L8.3,11L9.6,11.4z"/>
		<g>
			<path class="st8" d="M41.3,18.6c0,0-0.1,0-0.1,0c-0.1-0.1-0.1-0.2,0-0.3c0.1-0.1,0.1-0.3,0-0.5c-1.6-1.4-2.8-2.1-3.2-2.1
				c-0.1,0-0.2-0.1-0.2-0.2c0-0.1,0.1-0.2,0.2-0.2c0.6-0.1,1.8,0.6,3.5,2.2c0.3,0.3,0.3,0.7,0.1,1C41.4,18.6,41.4,18.6,41.3,18.6z"
				/>
		</g>
		<g>
			<g>
				<path class="st0" d="M16.5,20.4c0,0,0.7,0,1.1,0c0.4,0,0.7-0.1,0.8-0.3c0.1-0.2,0.5,0,0.5-0.1s0.1-0.2,0-0.4
					c-0.1-0.2-0.1-0.3-0.3-0.4c-0.1,0-0.2,0-0.2,0s0.1,0.2,0.1,0.2s-0.2-0.3-0.3-0.3S17.9,19,17.9,19s-0.1-0.1-0.3,0
					c0,0-0.3,0.1-0.4,0.2c-0.1,0.1,0,0.1,0,0.1s0.2,0,0.3,0.1c0.1,0.1,0.2,0.2,0.2,0.3c0,0.1-0.3,0.1-0.4,0.1s-0.6,0.2-0.6,0.2V20.4
					z"/>
			</g>
		</g>
		<g>
			<g>
				<path class="st13" d="M16.5,19.8v1l0.8-0.2c0,0-0.1-0.1-0.3-0.4c-0.1-0.1-0.1-0.3-0.1-0.5H16.5z"/>
			</g>
		</g>
		<g>
			<g>
				<g>
					<polygon class="st7" points="48,7.3 45.8,18.9 42.8,16.3 23.4,38.8 12.5,37.7 1,40.7 0,37 12.2,33.7 21.8,34.7 39.8,13.8 
						36.8,11.2 					"/>
				</g>
			</g>
		</g>
		<g>
			<g>
				<g>
					<polygon class="st13" points="8.9,34.8 8.9,33.8 8.5,33.2 7.7,33.7 7.5,34.8 					"/>
				</g>
			</g>
			<g>
				<g>
					<path class="st4" d="M8.9,33.8c0,0,0,0.5-0.2,0.7s-0.6,0.2-0.6,0.2S8,34.4,7.4,34.2c0,0-0.3,0.3-0.5,0.5
						c-0.2,0.2-1,0.6-1.1,0.9c-0.1,0.3-0.1,0.3,0,0.4c0.1,0.1,1.3,0.2,1.6,0c0.3-0.2,0.7-0.6,0.7-0.6l0,0.1c0,0,0.6-0.1,0.8-0.2
						c0.2-0.1,0.2-0.3,0.2-0.6C9.2,34.3,9,33.8,8.9,33.8z"/>
				</g>
			</g>
			<g>
				<g>
					<path class="st13" d="M18.6,33.2c0,0,0.4,0.6,0.8,0.8c0.4,0.2,0.4,0.2,0.4,0.2l-1.5,0.2l-0.4-0.8L18.6,33.2z"/>
				</g>
			</g>
			<g>
				<g>
					<path class="st4" d="M17.6,33.9c0,0,0.3,0.2,0.8,0.2c0.6,0,0.7-0.4,0.8-0.4c0,0,0,0.1,0.5,0.4c0.6,0.3,0.8,0.6,1.3,0.6
						s0.4,0.3,0.3,0.3c-0.2,0.1-1,0.4-1.6,0.2c-0.6-0.2-1.1-0.5-1.1-0.5V35c0,0-0.9-0.1-1-0.2S17.5,34.2,17.6,33.9z"/>
				</g>
			</g>
			<g>
				<g>
					<path class="st1" d="M4.3,24.8c0,0-0.3,1.1-0.3,2.2c0,1.2,0.1,1.4,0.4,1.9s0.6,1.1,1,1.9c0.4,0.7,1.3,2.1,1.5,2.4
						c0.2,0.3,0.5,1.2,0.5,1.2s0.4,0.2,0.7-0.1c0.3-0.3,0.6-0.6,0.6-0.6s-0.2-0.9-0.6-1.8c-0.4-0.8-1-2-1.4-2.6
						c-0.4-0.6-0.1-0.8-0.2-1.2c-0.1-0.3-0.1,0-0.1-0.4s0.2-1,0.4-1.3c0.2-0.3,0.4-0.5,0.5-0.5s0.7-0.1,2,0.6
						c1.3,0.7,2.7,1.9,3.5,2.3s1,0.8,1.3,1.1c0.3,0.3,1.8,2.2,2.1,2.6c0.3,0.4,1.5,1.7,1.5,1.7s0.4,0.1,0.7-0.2
						c0.3-0.4,0.3-0.7,0.3-0.7s-0.7-1-1.2-1.8c-0.5-0.8-1.4-2.1-1.8-2.5c-0.3-0.5-0.4-0.7-0.8-1.1c-0.4-0.4-1.4-1.6-1.8-2
						c-0.4-0.4-2.1-1.6-2.1-1.6l-3.7-1.5L4.3,24.8z"/>
				</g>
			</g>
			<g>
				<g>
					<path class="st29" d="M16.4,19.4c0,0,0.9,1.8,0.2,1.8c-0.6,0-0.6,0-0.6,0S15.7,19.8,16.4,19.4z"/>
				</g>
			</g>
			<g>
				<g>
					<path class="st13" d="M15.9,19.6c0,0,0.9-0.1,0.9-0.1s-0.1,0.6,0.1,0.8c0.2,0.2,0.3,0.4,0.3,0.4l-1.3,0.3L15.9,19.6z"/>
				</g>
			</g>
			<g>
				<g>
					<path class="st1" d="M9.8,18.9l0.6,0.2c0,0,0.2,0.6,0.5,1.2s0.8,1.1,1.1,1.3c0.3,0.2,0.2,0.3,0.6,0.3c0.4,0,4-0.7,4-0.7
						s-0.5-0.4-0.5-0.8c-0.1-0.4,0.3-1,0.3-1s-1.6,0.2-2.4,0.3c-0.7,0.1-0.8,0.3-1.1,0.1c-0.3-0.2-0.3-0.3-0.4-0.6
						c-0.1-0.3-0.7-1.5-0.8-1.8c-0.1-0.3-0.9-1.8-0.9-1.8L9.8,18.9z"/>
				</g>
			</g>
			<g>
				<g>
					<g>
						<path class="st3" d="M7.1,15.8l0.4,0l0.3,0l0.7-0.1L9,16c0.2,1.8-0.4,4.2-1.4,6.7l-1.8-1.9l-1-5.7l1.3-0.5L7.1,15.8z"/>
					</g>
				</g>
				<g>
					<g>
						<path class="st7" d="M7.7,16.3l0,0.6L8,21.9L6.4,22c0.2-2.3,0.5-4.1,0.9-5l0.1-0.5L7.7,16.3z"/>
					</g>
				</g>
				<g>
					<g>
						<path class="st7" d="M8.3,15.8c0,0-0.4,0.4-0.6,0.7c-0.2,0.3-0.1,0.5-0.1,0.5c-0.2-0.1-0.3-0.1-0.4,0c0,0-0.2-0.8-0.5-1.1
							c-0.3-0.3,0.8-0.1,0.8-0.1l0.3,0L8.3,15.8z"/>
					</g>
				</g>
				<g>
					<path class="st2" d="M9.2,15.1c-0.3-0.1-0.9-0.3-1.4-0.8c0,0,0.2,0.6,0.7,1c0.2-0.1,0.3-0.2,0.4-0.2C9,15.1,9.1,15.1,9.2,15.1z
						"/>
				</g>
			</g>
			<g>
				<g>
					<path class="st1" d="M6.4,14.1c0,0,0.5,0.3,0.8-0.5c0.3-0.8,0.6-0.7,0.8-0.6c0.2,0.1,0.3,0.4,0.3,0.4l0.3-0.1
						c0,0-0.1-0.3,0-0.6c0.1-0.3,0.4-0.5,0.7-0.6c0.3-0.1,0.6-0.1,0.7-0.4s0.2-0.8-0.5-1c-0.7-0.4-1.5-0.5-2.1-0.4
						c-0.6,0.2-1.1,0.8-1.3,1.2C5.8,11.9,5.7,13.3,6.4,14.1z"/>
				</g>
			</g>
			<g>
				<g>
					<path class="st4" d="M6.3,14.4c0,0-0.6,0.1-1.1,0.2c-0.5,0.1-1.7,0.3-1.7,0.3s0.4,2.4,0,3.4c0,0,1.1,3.2,0.4,7.1
						c0,0,0.5-0.5,1.1-0.3c0.5,0.2,1.9-0.3,2.2-1.1c0.3-0.8,0-2.9,0-2.9s0-1.1-0.7-1.6c-0.8-0.5-1.2-1.7-1.2-2.3
						C5.3,16.5,6.3,14.4,6.3,14.4z"/>
				</g>
			</g>
			<g>
				<g>
					<path class="st29" d="M3.7,21l0.1,0.3c0,0,0.6,0.3,0.5-1.9c0,0-0.3,0.1-0.5,0.3C3.7,19.8,3.7,21,3.7,21L3.7,21z"/>
				</g>
			</g>
			<g>
				<g>
					<path class="st4" d="M11.1,24.1c0,0-0.7,1.1-1,1.4c-0.2,0.3-0.6,0.2-0.8,0.1c-0.1-0.1-1.9-1.7-2-2.1c-0.1-0.4,0-2.1,0-2.1
						s0.1-0.3,0.5-0.7C8.3,20.2,9,18.4,9,17.9c0-0.4-0.2-2-0.3-2.7c0.1-0.1,0.2-0.1,0.3-0.1c0.2,0,0.5,0.1,0.8,0
						c0.5,0.1,0.9,0.3,1.1,0.5c0,0-0.5,2.6-0.4,3.6c0,0-0.7,1.3-0.8,1.9c-0.1,0.6,0.5,0.9,0.7,1.5C10.6,23.1,11.1,24.1,11.1,24.1z"
						/>
				</g>
			</g>
			<g>
				<g>
					<path class="st1" d="M8.8,19.4c-0.8,1.6-1,1.4-1.4,1.9c0-0.1,0.2-0.6,0.4-1.1c0.3-0.6,0.7-1.4,0.8-1.9c0.1-0.6,0-3.1,0-3.1
						c0.1-0.1,0.2-0.1,0.3-0.1l0.4,0.6L9,15.9L9.4,16C9.4,16,9.6,17.8,8.8,19.4z"/>
				</g>
			</g>
			<g>
				<g>
					<path class="st13" d="M6.3,14.2l1.2,1.6l-1.1,0.7l-0.3-1.3C6.1,14.8,6.1,14.5,6.3,14.2L6.3,14.2z"/>
				</g>
			</g>
			<g>
				<path class="st13" d="M7.8,15.8c0,0,0.4-0.6,0.9-0.7c0,0,0.1,0.8,0,1.2c-0.1,0.4-0.2,0.4-0.2,0.4s0.1-0.6,0-0.7
					C8.4,15.8,7.8,15.8,7.8,15.8z"/>
			</g>
			<g>
				<g>
					<path class="st1" d="M6.3,14.3c0,0-0.4,1.8-0.4,2.7s0,1.3,0.3,1.8s1,0.9,1.1,1.6c0.1,0.7,0.1,0.7,0.1,0.7s-0.1-0.9-0.4-1.2
						c-0.4-0.3-1-0.5-1.4-1.5c-0.4-0.9-0.3-2.7-0.3-2.7c0,0,0.4-0.2,0.4-0.2l-0.4-0.2C5.2,15.2,5.8,14.4,6.3,14.3z"/>
				</g>
			</g>
			<g>
				<g>
					<g>
						<g>
							<path class="st8" d="M37,25.5c0,0-0.1,0-0.1,0c-0.9-0.6-1.9-3.5-1.9-5.6c0-1.2,0.3-2,0.9-2.3c0.3-0.2,0.6-0.3,1-0.2
								c0-1,0.3-1.9,0.9-2c0.1,0,0.2,0.1,0.2,0.2c0,0.1-0.1,0.2-0.2,0.2c-0.3,0-0.5,0.7-0.6,1.7c0.1,0.1,0.3,0.1,0.4,0.2
								c1.5,1.2,1.6,1.7,1.5,1.9c-0.1,0.2-0.3,0.3-0.6,0.3c-0.8,0-1.6-0.6-1.7-1.5c0-0.2,0-0.5,0-0.8c-0.3,0-0.5,0-0.8,0.1
								c-0.6,0.4-0.8,1.3-0.8,2c0,2,1,4.7,1.7,5.2c0.1,0.1,0.1,0.2,0.1,0.3C37.1,25.4,37,25.5,37,25.5z M37.3,17.9
								c0,0.2,0,0.4,0,0.6c0.1,0.6,0.6,1.1,1.2,1.1c0.2,0,0.2,0,0.2-0.1c0,0,0.1-0.3-1.4-1.5C37.4,18,37.4,17.9,37.3,17.9z"/>
						</g>
					</g>
					<g>
						<path class="st8" d="M2.4,26.8C2.4,26.8,2.4,26.8,2.4,26.8c-0.2-0.1-0.2-0.2-0.2-0.3c0.2-0.4,0.2-0.7,0.2-1.3
							c0-0.5-0.1-1.2,0-2.3c0,0,0-0.1,0-0.1c0.2-1.7,1.6-3,3.3-3.1l35.1-1.3c0.1,0,0.2-0.1,0.2-0.1c0.1-0.1,0.2-0.1,0.3,0
							c0.1,0.1,0.1,0.2,0,0.3c-0.1,0.2-0.3,0.2-0.5,0.3L5.8,20.1c-1.5,0.1-2.8,1.2-3,2.7c0,0,0,0.1,0,0.1c-0.1,1.1,0,1.8,0,2.2
							c0,0.6,0.1,1-0.2,1.5C2.6,26.8,2.5,26.8,2.4,26.8z"/>
					</g>
				</g>
			</g>
			<g>
				<g>
					<path class="st0" d="M4.4,20.6c0,0,1.1,0.1,1.3,0.1c0.2,0,0.3-0.3,0.3-0.3s0.9,0,1.1-0.1s0.3-0.1,0.1-0.2C7,20,6.7,20.1,6.5,20
						s-0.5-0.1-0.8-0.2s0.4-0.1,0.6-0.1s0.1-0.2,0.1-0.2l-0.4,0c0,0-0.3-0.1-0.6-0.1c-0.3,0-0.2,0-0.5,0s-0.6,0.2-0.6,0.2L4.4,20.6z
						"/>
				</g>
			</g>
			<g>
				<g>
					<path class="st13" d="M4.1,19.5l0.7-0.2c0,0-0.2,1.2,0.1,1.5l-1.2-0.1C3.6,20.8,3.7,19.7,4.1,19.5z"/>
				</g>
			</g>
			<g>
				<path class="st1" d="M4.4,19.3C4.2,19.4,4,19.6,4,19.9c-0.2,0.6-0.1,1.4-0.1,1.4s-2.8-1.3-3.2-1.6c-0.4-0.3-0.7-0.6-0.6-0.9
					s1.3-1.4,1.6-1.6c0.3-0.3,0.6-0.7,0.9-1c0.3-0.3,0.4-0.6,0.5-0.9c0.2-0.3,0.4-0.4,0.4-0.4l0,0c0,0.1,0.4,2.5,0,3.4L2.8,19
					c0,0,0.2,0.2,0.3,0.3c0.1,0,0.3,0,0.5,0.1c0.1,0,0.2,0.1,0.3,0.1C4.1,19.4,4.4,19.3,4.4,19.3z"/>
			</g>
		</g>
		<path class="st0" d="M18.9,20c-0.1,0.1-0.5,0-0.5,0.1l-1-0.4l-0.2,0c0.1,0,0.4,0,0.4-0.1c0-0.1,0-0.2-0.1-0.3
			c-0.1-0.1-0.3,0-0.3,0s-0.1,0,0-0.1c0.1-0.1,0.4-0.2,0.4-0.2c0.3-0.1,0.3,0,0.3,0s0.2,0,0.3,0.1c0.1,0.1,0.3,0.3,0.3,0.3
			c0,0,0-0.1,0-0.2c0-0.1,0.1-0.1,0.2,0s0.2,0.2,0.3,0.4C19,19.8,19,19.9,18.9,20z"/>
	</g>
</g>
</svg>
