<?xml version="1.0" encoding="utf-8"?>
<!-- Generator: Adobe Illustrator 18.0.0, SVG Export Plug-In . SVG Version: 6.00 Build 0)  -->
<!DOCTYPE svg PUBLIC "-//W3C//DTD SVG 1.1//EN" "http://www.w3.org/Graphics/SVG/1.1/DTD/svg11.dtd">
<svg version="1.1" id="Layer_1" xmlns="http://www.w3.org/2000/svg" xmlns:xlink="http://www.w3.org/1999/xlink" x="0px" y="0px"
	 viewBox="0 0 48 48" enable-background="new 0 0 48 48" xml:space="preserve">
<g>
	<g>
		<polygon fill="#425A6B" points="21.5,2.7 21.6,4.1 22.2,4.2 21.9,2.4 		"/>
	</g>
	<g>
		<path fill="#FFD15C" d="M25.7,7.3L24,9l-1.8-1.8c0,0,0-0.4,0-0.4s0.1-0.4,0-0.7c-0.1-0.3-0.4-0.8-0.4-1.6c0-0.8,0-2.2,0-2.2
			s-0.3-1.1,1-1.4c1.3-0.3,2.2-0.1,2.2-0.1L25.4,2l-0.1,1.9c0,0,0,1.1-0.1,1.2l0.1,0.9L25.7,7.3z"/>
	</g>
	<path fill="#F5B54C" d="M23.9,7.4c-0.6,0-0.1-0.3-0.1-0.3c1.3-0.8,1.4-1.9,1.4-1.9h0c-0.1,0.5-0.9,1.4-1.7,1.3
		c-0.9-0.1-1.3-0.6-1.3-0.6c0,0.1,0,0.1,0.1,0.2c0.1,0.3,0,0.7,0,0.7s0,0.4,0,0.4l1.1,1.2c0.1,0,0.1,0,0.2-0.1
		C24.7,7.9,24.2,7.4,23.9,7.4z"/>
	<g>
		<g>
			<path fill="#344A5E" d="M26.6,47.8L26,47.7l-0.3-0.3c0,0,0-0.4,0.1-0.6c0.1-0.2-0.2-0.5-0.1-0.8c0.1-0.3,0.2-0.4,0.2-0.4l1.5-0.1
				c0,0,0.8,0.6,0.9,0.9c0.1,0.3,0.1,0.4,0.1,0.6c0,0.1,0.1,0.6,0.1,0.6l-0.1,0.2L26.6,47.8z"/>
		</g>
		<g>
			<path fill="#425A6B" d="M25.8,47.4c0,0,0.1,0.2,0.5,0.3c0.3,0,0.6,0,0.7-0.1c0.1,0,1.2,0,1.4,0.1c0.2,0,0.3-0.1,0.3-0.1
				s0.2,0.4-0.2,0.4s-1.8,0-2.1,0C25.9,47.9,25.8,47.4,25.8,47.4z"/>
		</g>
		<g>
			<path fill="#425A6B" d="M25.7,46c0,0,2-0.5,2.8,0.7c0,0-0.2-1-0.2-1.4c0-0.4-0.1-2.6-0.1-3c0-0.4-0.2-5.5-0.3-7
				c-0.1-1.4-0.3-6.7-0.3-6.7l-4.5,0.6c0,0,0.5,2.9,0.7,3.6c0.2,0.7,0.7,3.6,0.8,4.6c0.1,0.9,0.5,4.2,0.4,4.9c0,0.7,0.3,3.6,0.3,3.7
				L25.7,46z"/>
		</g>
	</g>
	<g>
		<path fill="#425A6B" d="M21.4,45.6l0.2,0.2l-0.1,0.4c0,0.1-0.1,0.2-0.2,0.2c-0.3,0.1-1.2,0.2-1.6,0.1c0,0-0.3,0.5-1.2,0.5
			s-3-0.2-2.8-0.5s0.2-0.3,0.2-0.3L21.4,45.6z"/>
	</g>
	<g>
		<path fill="#344A5E" d="M18.9,44.3l-0.8,0.4c0,0-0.3,0.5-0.6,0.7c-0.3,0.2-1.5,0.7-1.7,0.7c-0.2,0-0.1,0.4-0.1,0.4
			s0.6,0.1,1.1,0.2c0.5,0.1,1.8,0.3,2.2,0.1c0.3-0.2,0.7-0.5,0.9-0.5c0.2,0,1.5-0.1,1.7-0.4c0,0-0.1-1.1-0.3-1.3
			C21,44.4,18.9,44.3,18.9,44.3z"/>
	</g>
	<g>
		<path fill="#425A6B" d="M23.2,30.3c0,0-0.3,2.7-0.5,3.4c-0.2,0.8-0.3,1.9-0.3,2.7c0,0.8-0.7,6.7-0.7,6.7l-0.4,2.8
			c0,0-0.6,0.9-1.5,0c-0.9-0.9-1.7-1.2-1.7-1.2s0.6-1.1,0.8-1.6c0.2-0.5,0-5.7,0-6.5c0-0.8,0.2-5.9,0.2-6.8
			C19.1,29,23.2,30.3,23.2,30.3z"/>
	</g>
	<g>
		<polygon fill="#67C5B8" points="26.2,16.8 27.7,16 28.2,13.1 26.4,11.8 		"/>
	</g>
	<g>
		<path fill="#67C5B8" d="M32.4,15.7c0,0.3-0.3,1.5-0.7,2c-0.4,0.4-1.1,0.4-1.7,0.6c-0.6,0.2-1.8,0.2-1.8,0.2l-0.3-2.3
			c0,0,0.4-0.1,0.7-0.2c0.3-0.1,0.6-0.3,0.6-0.3l-0.9-2.3L26.8,13l-4.4,0.9c0,0-1.4-3.2-1.7-2.5c-0.3,0.7-0.5,4.6-0.4,4.8
			c0,0.2-0.1,2.2-0.6,2.6c-0.4,0.3-1.3,0.6-1.9-0.3c-0.6-0.9,0.4-1.8,0.4-1.8s0.4-5.3,0.5-6.1c0.1-0.8,1.8-2.1,2.4-2.4
			c0.6-0.3,1.1-1.3,1.1-1.3l0.5,1.1l0.8,0.3l2.4-1.4c0,0,3.6,1.8,4.1,2.2c0.4,0.4,1.3,3.4,1.5,4C31.5,13.5,32.4,15.4,32.4,15.7z"/>
	</g>
	<g>
		<path fill="#48B9A5" d="M23.5,8.2c0,0,0.8,0.9,0.8,1.2l1.8-2.3l-0.2-0.3l-0.5-0.6c0,0,0.1,0.3,0,0.5C25.3,6.7,23.5,8.2,23.5,8.2z"
			/>
	</g>
	<g>
		<path fill="#48B9A5" d="M22.2,6.8l1.3,1.4c0,0-0.5,0.2-0.8,0.8c-0.3,0.6-0.4,0.9-0.4,0.9S22,7.8,22.2,6.8z"/>
	</g>
	<g>
		<path fill="#344A5E" d="M26.2,7.1h0.4c0,0,0.4,4.3,0.5,4.9c0.1,0.6,0.7,5,0.7,5s-0.1,5.9,0.2,6.8c0.3,0.9,0.1,7.3,0.1,7.3
			s-4.7-0.5-6.1-0.6c-1.4,0-3.3-0.1-3.3-0.1s0.2-6.2,0.4-7.5c0.2-1.2,0.8-6.2,0.7-7.6c-0.1-1.3-0.1-3.4-0.1-3.4s0.8-2.1,1.1-2.6
			c0.3-0.5,1.2-1.9,1.2-1.9L22,8.7l0.9,4.8l0.2-0.5L26.2,7.1z"/>
	</g>
	<g>
		<g>
			<g>
				<path fill="#E8EAE8" d="M24.4,13.4l0.6,1.4c0.3,0.7,0.2,1.5,0,2.2l-0.3,0.1c-0.6-0.4-1.2-0.9-1.5-1.6l-0.6-1.4L24.4,13.4z"/>
			</g>
			<g>
				
					<rect x="25" y="16.6" transform="matrix(-0.926 0.3775 -0.3775 -0.926 55.1499 24.6379)" fill="#E8EAE8" width="0.3" height="2.3"/>
			</g>
		</g>
		<g>
			<path fill="#E8EAE8" d="M24.9,19.3c0-0.3,0.2-0.6,0.6-0.8c0.4-0.2,0.8-0.1,0.9,0.1L24.9,19.3z"/>
		</g>
	</g>
	<g>
		<g>
			<g>
				<path fill="#FFFFFF" d="M25.5,13.2L25,14.6c-0.3,0.7-0.2,1.5,0,2.2l0.3,0.1c0.6-0.4,1.2-0.9,1.4-1.6l0.5-1.5L25.5,13.2z"/>
			</g>
			<g>
				
					<rect x="24.7" y="16.4" transform="matrix(0.9373 0.3485 -0.3485 0.9373 7.6768 -7.5856)" fill="#FFFFFF" width="0.3" height="2.3"/>
			</g>
		</g>
		<g>
			<path fill="#FFFFFF" d="M25.2,19.2c0-0.3-0.2-0.6-0.6-0.7c-0.4-0.1-0.8-0.1-0.9,0.2L25.2,19.2z"/>
		</g>
	</g>
	<g>
		<path fill="#E8EAE8" d="M27.3,18.2l-0.5,0.4c0,0-0.9-0.1-0.6-2.3L27.3,18.2z"/>
	</g>
	<g>
		<g>
			<path fill="#425A6B" d="M22.2,8.3c0.1,0.8,0.5,3.8,0.7,4.8c-0.2,0-0.8,0.2-1.4-0.4c-0.6-0.6-0.2-3.4,0-4.1
				c0.2-0.7,0.6-1.6,0.7-1.8C22.2,6.8,22.1,7.4,22.2,8.3z"/>
		</g>
		<g>
			<path fill="#425A6B" d="M25.9,6.7c0,0-1.1,2.1-1.5,3.2s-1.2,3.1-1.2,3.1s1.4,0,1.8-1.2c0.4-1.2,1.5-4.3,1.7-4.7L25.9,6.7z"/>
		</g>
	</g>
	<g>
		<path fill="#E8EAE8" d="M20.2,15v2.8c0,0.6-2.4,0.6-2.4,0V15c0-0.7,0.1-1.5,0.4-2.1c0.2-0.6,0.4-1.2,0.4-1.8v0h0.8
			c0,0.3,0,0.6,0.1,0.9c0.1,0.3,0.1,0.6,0.3,0.9c0.1,0.2,0.2,0.4,0.2,0.7C20.2,14,20.2,14.5,20.2,15z"/>
	</g>
	<path fill="#F26F5A" d="M20.2,15h-0.5c-0.1-0.3-0.4-0.5-0.7-0.5c-0.3,0-0.6,0.2-0.7,0.5h-0.5v1.1h0.5c0.1,0.3,0.4,0.5,0.7,0.5
		c0.3,0,0.6-0.2,0.7-0.5h0.5V15z"/>
	<g>
		<path fill="#344A5E" d="M19.2,10.7h-0.3c-0.2,0-0.3,0.2-0.3,0.3l0,0c0,0.2,0.2,0.3,0.3,0.3h0.3c0.2,0,0.3-0.2,0.3-0.3l0,0
			C19.5,10.8,19.4,10.7,19.2,10.7z"/>
	</g>
	<g>
		<path fill="#FFD15C" d="M17.3,16.5c0,0,0.5-0.3,0.5,0.4c0,0.4,0,0.8,0,0.8s0.1-0.2,0.2-0.4c0.1-0.2,0.7-0.7,0.7-0.7s0.2,0,0.3,0
			c0.1,0.1,0,0.3,0,0.3l-0.6,1c0,0,0.1,0.2,0.2,0.1s0.4-0.7,0.4-0.7s0.3-0.8,0.6-0.7c0.3,0.1,0.1,0.7,0.1,0.7l-0.4,0.8l0.3-0.3
			c0,0,0.1-0.4,0.1-0.5c0,0-0.1-0.6,0.1-0.7c0.1-0.1,0.4,0,0.4,0.4s-0.1,1-0.1,1l-0.4,0.5c0,0-0.4,0.5-0.5,0.5
			c-0.1,0-1.1-0.4-1.3-0.6c-0.2-0.1-0.5-0.5-0.5-0.8c0-0.3-0.1-0.4,0-0.6V16.5z"/>
	</g>
	<g>
		<g>
			<path fill="#FFD15C" d="M23.6,16.1c-0.2,0.1-0.1,0.4,0.1,0.4c-0.3,0.1-0.2,0.7,0.1,0.6c-0.3,0.1-0.1,0.5,0.2,0.5h0.3
				c0,0,0,0.5,0.3,0.6c0,0,0.5,0,0.6,0c0.2,0,0.9,0.1,1.2,0c0.3-0.1,0.4-0.1,0.7-0.1l-0.2-1.6l-0.7-0.2L25.9,16
				c-0.1-0.1-0.3-0.2-0.5-0.2l-1.2,0c-0.1,0-0.2,0-0.2,0.1L23.6,16.1z"/>
		</g>
		<g>
			<g>
				<path fill="#F5B54C" d="M23.7,16.5c0.1,0,0.1,0,0.2-0.1c0.1,0,0.1,0,0.2-0.1l0,0l0,0c0.1,0,0.1,0,0.2,0c0.1,0,0.1,0,0.2,0
					c0.1,0,0.1,0,0.2,0c0.1,0,0.1,0,0.2,0c0,0-0.1,0-0.1,0c0,0-0.8,0-0.8,0c-0.1,0-0.1,0-0.2,0.1C23.8,16.5,23.7,16.5,23.7,16.5z"/>
			</g>
			<g>
				<path fill="#F5B54C" d="M23.8,17.1c0,0,0.1,0,0.1-0.1c0,0,0.1,0,0.1-0.1l0,0l0,0c0.1,0,0.2,0,0.3,0c0.1,0,0.1,0,0.2,0
					c0.1,0,0.1,0,0.2,0c-0.1,0-0.7,0.1-0.7,0.1c0,0-0.1,0-0.1,0C23.9,17.1,23.9,17.1,23.8,17.1z"/>
			</g>
			<g>
				<path fill="#F5B54C" d="M24.2,17.6C24.2,17.6,24.3,17.6,24.2,17.6c0.2,0,0.2,0,0.3,0c0.1,0,0.2,0,0.2,0c0.1,0,0.1,0,0.1,0
					s0,0-0.1,0c-0.1,0-0.1,0-0.2,0C24.5,17.6,24.4,17.6,24.2,17.6C24.3,17.6,24.2,17.6,24.2,17.6z"/>
			</g>
		</g>
	</g>
	<g>
		<path fill="#67C5B8" d="M28.9,16.6c0,0-1.1-0.4-1.1-0.4l-1.5,0.1c0,0,0.8,1.2,0.6,2.3l1.3-0.1L28.9,16.6z"/>
	</g>
	<g>
		<g>
			
				<ellipse transform="matrix(0.9986 5.311100e-002 -5.311100e-002 0.9986 0.2487 -1.3407)" fill="#FFD15C" cx="25.3" cy="4" rx="0.3" ry="0.8"/>
		</g>
		<g>
			
				<ellipse transform="matrix(-0.9986 5.311102e-002 -5.311102e-002 -0.9986 43.8038 6.8537)" fill="#FFD15C" cx="21.8" cy="4" rx="0.3" ry="0.8"/>
		</g>
	</g>
	<g>
		<path fill="#425A6B" d="M21.8,3.3l0,0.5h0.2c0-0.3,0-0.8,0.1-0.9c0.2-0.2,0.1-0.4,0-0.5c-0.1-0.2,0.1-0.6,0.5-0.7
			c0.4-0.1,1.7,0.1,2.1,0C25,1.5,25.2,2,25.2,2.1c0,0.1,0.1,1.2,0.1,1.6h0.1c0.1-0.3,0.2-1,0.2-1.5c0-0.6-0.1-1.5-0.7-1.9
			c-0.6-0.4-1.5-0.5-2.2-0.2c-0.6,0.3-1,0.9-1,1.4C21.3,3.3,21.8,3.3,21.8,3.3z"/>
	</g>
</g>
</svg>
