<?xml version="1.0" encoding="utf-8"?>
<!-- Generator: Adobe Illustrator 19.0.1, SVG Export Plug-In . SVG Version: 6.00 Build 0)  -->
<svg version="1.1" id="Layer_1" xmlns="http://www.w3.org/2000/svg" xmlns:xlink="http://www.w3.org/1999/xlink" x="0px" y="0px"
	 viewBox="0 0 48 48" style="enable-background:new 0 0 48 48;" xml:space="preserve">
<style type="text/css">
	.st0{fill:#FFD15C;}
	.st1{fill:#415A6B;}
	.st2{fill:#F7B64C;}
	.st3{fill:#CED6E0;}
	.st4{fill:#344A5E;}
	.st5{fill:#F3F3F3;}
	.st6{fill:#F05540;}
	.st7{fill:#F3705A;}
	.st8{fill:#66C6B9;}
	.st9{fill:#55C0EB;}
	.st10{fill:#F5F6FB;}
	.st11{fill:#4ABAA5;}
	.st12{fill:#ADB3BA;}
	.st13{fill:#E8EAE9;}
	.st14{fill:#2E4556;}
	.st15{fill:#8AD7F8;}
	.st16{fill:#FFFFFF;}
	.st17{fill:#E54838;}
	.st18{fill:#3EAF99;}
	.st19{fill:#EFA943;}
	.st20{fill:#4CAEE5;}
	.st21{fill:#293F4F;}
	.st22{fill:#2D4456;}
	.st23{fill:#2E4454;}
	.st24{fill:#2A3F4F;}
	.st25{fill:#2D4151;}
	.st26{fill:#E89E3D;}
	.st27{fill:#2B4151;}
	.st28{fill:#2A4051;}
	.st29{fill:#2C4151;}
	.st30{fill:#EBEAE8;}
	.st31{fill:#3AA590;}
	.st32{fill:#E84534;}
	.st33{fill:none;}
</style>
<g>
	<g>
		<g>
			<rect x="17.2" y="34.2" class="st7" width="13.5" height="13.8"/>
			<g>
				<g>
					<rect x="17.2" y="34.2" class="st6" width="13.5" height="3"/>
				</g>
			</g>
		</g>
		<g>
			<g>
				<g>
					<path class="st1" d="M25.5,34.5l0.1,0.4c0,0-0.7,0.2-0.8,0.1c-0.1,0-0.2-0.2-0.2-0.2s-0.2,0-0.5,0.3c-0.4,0.3-0.6,0.4-1.4,0.4
						s-0.9-0.2-0.9-0.3l2.4-0.5L25.5,34.5z"/>
				</g>
				<g>
					<path class="st4" d="M25.2,33.3c0,0,0.4,0.9,0.2,1.2c0,0-0.6,0.1-1,0.2s-0.4,0.3-0.7,0.5c-0.3,0.1-0.5,0.3-1,0.2
						c-0.5-0.1-1-0.1-1-0.1s0-0.3,0.4-0.4c0,0,0.2-0.1,0.5-0.4c0.3-0.3,0.6-0.7,0.9-0.9s0.3-0.3,0.3-0.3L25.2,33.3z"/>
				</g>
			</g>
			<g>
				<path class="st4" d="M27.2,36.6c0,0,0.1-0.3,0.1-0.5c0-0.2-0.1-0.5-0.1-0.8s-0.2-1-0.3-1.2C26.8,34,26.8,34,26.8,34l-1.3,0
					c0,0-0.1,1-0.1,1.3c0,0.3,0,0.6-0.1,0.9c0,0.3,0,0.5,0,0.5s0.1,0.2,0.2,0.3S27,37.2,27.2,36.6z"/>
			</g>
			<g>
				<g>
					<path class="st1" d="M25.2,33.5c-0.2,0.3-0.7,0.2-0.7,0.2s-0.4-0.1-0.8-0.1c-0.3,0-0.4,0.1-0.4,0.1s-0.1-0.6-0.2-0.9
						c0-0.3-0.2-0.5-0.5-1.1c-0.1-0.2-0.4-0.7-0.6-1.2h2.2c0.2,0.6,0.4,1,0.4,1.1C24.8,31.8,25,32,25,32l0.3,0.2
						C25.3,32.2,25.4,33.1,25.2,33.5z"/>
				</g>
				<path class="st4" d="M25.3,32.2L25,32c0,0,0,0,0,0c0,0,0,0,0,0c0,0.5,0.1,1.1,0.2,1.6c0.1,0,0.1-0.1,0.1-0.1
					C25.4,33.1,25.3,32.2,25.3,32.2z"/>
				<g>
					<path class="st1" d="M25.7,20.3l0,0.9c0,0,0.2,1.5,0.2,2s0,1.1,0,1.3s0.2,0.2,0.2,0.4s0,0.4,0,0.6c0.1,0.2,0.4,0.6,0.4,1.2
						c0.1,0.6,0.3,4.6,0.3,4.6s0.2,1.4,0.1,2c0,0.6-0.2,1-0.2,1s-0.4-0.1-0.9,0s-0.7,0-0.7,0S25.1,33,25.1,32c0-1-0.7-3.5-0.7-3.8
						s0.1-0.3,0-0.6s-0.3-1-0.4-1.3c-0.1-0.4-0.3-0.8-0.4-1.3c-0.1-0.6-0.3-0.6-0.3-0.9c0-0.3-0.1-0.2-0.2-0.4
						c-0.1-0.2,0-0.1-0.1-0.4C22.9,23,22.5,22,22.5,22s-0.1,2.2-0.1,2.4c0,0.2,0.1,0.5,0.1,0.7c0,0.2-0.1,0.2,0,0.4
						c0.1,0.2,0.2,1.1,0.2,1.1s0.2,0.1,0.2,0.3c0,0.2,0.2,0.5,0.3,0.7c0.1,0.3,1.2,3.8,1.4,4S25,32,25,32l-0.5,1.7
						c0,0-0.4-0.1-0.8-0.1c-0.3,0-0.4,0.1-0.4,0.1s-0.1-0.6-0.2-0.9c0-0.3-0.2-0.5-0.5-1.1s-1.5-2.4-1.8-3.6c0,0-0.5-0.4-0.5-0.9
						c-0.1-0.5-0.7-2.4-0.9-3.6c-0.3-1.3-0.7-4.2-0.6-4.7s1.2-2.6,1.2-2.6l5.5,1.7L25.7,20.3z"/>
				</g>
				<g>
					<path class="st1" d="M26.9,31.3c0,0-0.2-4-0.3-4.6c-0.1-0.6-0.4-1-0.4-1.2c-0.1-0.2,0-0.3,0-0.6s-0.2-0.3-0.2-0.4s0-0.8,0-1.3
						s-0.2-2-0.2-2l0-0.9l-0.2-2.3L20,16.2c0,0-1.1,2.1-1.2,2.6c-0.1,0.5,0.3,3.4,0.6,4.7c0.2,1.1,0.7,2.5,0.8,3.3
						c0.3-0.2,0.6-0.4,0.8-0.6c0.3-0.2,0.5-0.4,0.8-0.7c0.1-0.1,0.3-0.2,0.4-0.4c0.1-0.1,0.2-0.1,0.2-0.2c0-0.2-0.1-0.5-0.1-0.7
						c0-0.2,0.1-2.4,0.1-2.4s0.4,1.1,0.5,1.3c0.1,0.2,0,0.2,0.1,0.4c0.1,0.2,0.1,0.1,0.2,0.4c0,0.3,0.2,0.3,0.3,0.9
						c0.1,0.6,0.3,1,0.4,1.3c0.1,0.4,0.3,1,0.4,1.3s0,0.3,0,0.6S25,31,25.1,32c0,1,0.3,2.3,0.3,2.3s0.2,0.1,0.7,0s0.9,0,0.9,0
						s0.1-0.4,0.2-1C27.1,32.7,26.9,31.3,26.9,31.3z"/>
				</g>
				<g>
					<path class="st0" d="M26,9.3L26,9.1c0,0,0-0.5,0-0.8c0-0.2,0.1-1.4,0-1.9s-0.7-1.1-1.1-1.2c-0.4-0.1-1.4,0.3-1.5,0.4
						s-0.3,0.8-0.3,1.2c0,0.4,0.4,2,0.4,2l0,0.5l0.8,1.7l2,0.2l-0.1-1.4L26,9.3z"/>
				</g>
				<path class="st2" d="M24.1,10.6c0.4-0.1,1-0.3,1.2-0.6c0.4-0.4,0.6-1.2,0.6-1.3c0,0,0,0,0,0c-0.1,0.1-0.5,0.7-0.6,0.9
					c-0.2,0.3-0.7,0.3-1,0.2c-0.3-0.1-0.7-0.6-0.8-0.7c0,0,0,0,0,0l0,0l0,0.3L24.1,10.6z"/>
				<g>
					<path class="st4" d="M26.5,19c0,0-0.2,0.2-0.5,0.2c-0.3,0-0.5-0.6-0.4-1s0.2-0.8,0.4-0.9c0,0,0.5,0,0.8,0.2
						C27.1,17.7,26.5,19,26.5,19z"/>
				</g>
				<g>
					<path class="st12" d="M26.4,18.7c0,0-0.3,0.2-0.4,0.2s-0.2,0-0.2,0s-0.4-0.4,0.1-1.4c0,0,0.3-0.1,0.6,0.1
						C26.7,17.8,26.4,18.7,26.4,18.7z"/>
				</g>
				<g>
					<path class="st3" d="M18.2,2.7c0-0.3,1.4-0.4,1.4-0.1L19,3C18.6,3,18.2,3,18.2,2.7z"/>
				</g>
				<g>
					<path class="st4" d="M18.4,3.8L18,3.3c0,0-0.1-0.7,1.6-0.3c0,0-0.2,0.6-0.4,0.8C19,4,18.4,3.8,18.4,3.8z"/>
				</g>
				<g>
					<g>
						<path class="st3" d="M23.9,9.6c0,0,0.3,0.2,0.4,0.3c0.1,0.2,0.1,0.3,0.2,0.5c0.1,0.2,0.2,0.4,0.2,0.4s0.2-0.2,0.5-0.2
							c0.3,0,0.5-0.1,0.5-0.1s0.3-0.1,0.5-0.3c0.2-0.2,0.2-0.2,0.2-0.2l0.2,0.4l-1.1,7.5c0,0-0.8,0.3-2,0.1s-0.9,0-2.1-0.3
							c-1.1-0.3-2.4,0.4-2.4,0.4L23.9,9.6z"/>
					</g>
					<g>
						<path class="st4" d="M26.7,10.1c0,0,0.5,0.3,0.8,0.7s1.1,0.8,1.1,0.8s-0.6,1.7-1,2.4s-1.5,1.9-1.7,2.4
							c-0.3,0.4-0.1,4.8-0.1,4.8s0-0.6-0.1-1.1c-0.1-0.5-0.5-2.2-0.5-2.2s0-1.4,0.2-2.6S26.7,10.1,26.7,10.1z"/>
					</g>
					<g>
						<path class="st1" d="M26.3,9.5c0,0,0.2,0.3,0.3,0.5c0.1,0.2,0.3,0.2,0.4,0.4s0.1,0.4,0.1,0.4L26.7,11l0.3,0.5
							c0,0-0.4,1.2-0.7,1.7c-0.2,0.5-0.9,1.5-1,1.9c-0.1,0.3-0.3,2.1-0.3,2.9c0,0-0.2-1.7,0-3c0.2-1.3,0.8-3,0.9-3.4
							C26.2,11.1,26.4,9.9,26.3,9.5z"/>
					</g>
					<g>
						<path class="st4" d="M21.8,8.2L21.9,8c0,0,0.6-0.3,0.8-0.2s0.3,0.3,0.4,0.5c0.2,0.2,0.4,0.5,0.4,0.5l0,1.6
							c0,0-0.8,2.3-0.9,2.8c-0.1,0.5-0.1,1.1-0.5,2c-0.4,0.9-1.6,2.8-2,3.4c-0.4,0.5-1.1,0.8-1.4,0.6c-0.3-0.1-1.3-1-1.3-1
							s1.1-2.4,1.8-3.7s1.4-3,1.4-3s-0.1-0.4-0.1-0.5c0-0.2-0.1-0.4-0.1-0.4L21.8,8.2z"/>
					</g>
				</g>
				<g>
					<g>
						<path class="st0" d="M20.5,0.8c-0.1-0.1-0.3-0.1-0.3-0.1l-0.2-0.1c0,0,0.1-0.1,0.1-0.2c0-0.1-0.1-0.2-0.2-0.3
							c-0.1-0.1-0.2,0-0.2,0c-0.1-0.1-0.3-0.1-0.3-0.1S19.3,0,19.2,0c-0.1,0.1,0,0.2-0.2,0.1c-0.2,0-0.3,0.2-0.3,0.2
							c-0.1-0.1-0.3,0.1-0.3,0.1s-0.2,0.7-0.2,0.9c0,0.2,0.1,0.4,0.1,0.6c0,0.2,0,1.3,0,1.3l1.2,0c0,0,0-1.2,0.1-1.3
							c0.1-0.1,0.6-0.3,0.7-0.4c0.1-0.1,0.3-0.3,0.3-0.5C20.6,0.9,20.6,0.9,20.5,0.8z M19.9,0.9C20,0.9,20,0.9,19.9,0.9
							C20,0.9,20,0.9,19.9,0.9C20,1,20,1,19.9,0.9z"/>
					</g>
					<g>
						<path class="st13" d="M20.1,0.6c0,0,0,0.1,0,0.2s0.1,0.1,0.2,0.1c0,0,0.1,0,0-0.1c0,0,0-0.1,0-0.1c0,0,0-0.1-0.1-0.1L20.1,0.6
							z"/>
					</g>
					<g>
						<g>
							<path class="st2" d="M18.8,0.8c0,0.1,0,0.1,0,0.2c0,0,0,0,0,0c0,0,0,0,0,0c0,0,0,0,0.1,0.1c0,0,0,0,0.1,0c0,0,0,0,0,0
								c0,0,0,0,0,0c0.1,0,0.1,0,0.2,0l0,0l0,0c0,0,0.1,0,0.1,0c0,0,0.1,0,0.1,0c0,0,0,0,0,0c0,0,0,0,0,0c0,0,0,0,0,0
								c0,0,0,0,0.1-0.1l0,0l0,0c0,0,0,0,0,0c0,0,0,0,0,0l0,0l0,0c0,0,0,0.1,0.1,0.1c0,0,0,0,0,0c0,0,0,0,0,0c0,0,0,0,0,0
								c0,0,0,0,0,0c0,0,0,0,0,0c0,0,0.1,0,0.1-0.1c0,0,0-0.1,0-0.1c0,0,0-0.1,0-0.1c0,0,0-0.1,0-0.1c0,0,0,0,0,0c0,0,0,0,0.1,0
								c0,0-0.1,0-0.1,0.1c0,0,0,0.1,0,0.1c0,0,0,0.1,0,0.1c0,0,0,0.1,0,0.1c0,0,0,0.1-0.1,0.1c0,0,0,0,0,0c0,0,0,0,0,0c0,0,0,0,0,0
								c0,0,0,0-0.1,0c0,0,0,0-0.1,0c0,0,0,0,0,0c0,0,0,0,0-0.1l0,0c0,0,0,0-0.1,0c0,0-0.1,0-0.1,0l0,0c0,0,0,0.1-0.1,0.1
								c0,0,0,0,0,0c0,0,0,0,0,0c0,0,0,0,0,0l0,0l0,0c0,0,0,0,0,0c0,0,0,0,0,0c0,0,0,0-0.1,0c0,0,0,0-0.1,0c0,0,0,0,0,0l0,0
								c-0.1,0-0.1,0.1-0.2,0.1c0,0,0,0,0,0c0,0,0,0,0,0c0,0-0.1,0-0.1,0c0,0,0,0-0.1-0.1c0,0,0,0,0,0c0,0,0,0,0,0
								C18.7,0.9,18.7,0.9,18.8,0.8z"/>
						</g>
						<g>
							<g>
								<path class="st2" d="M19.1,1.1C19.1,1.1,19.1,1.1,19.1,1.1c0-0.1,0-0.1,0-0.2c0,0,0,0,0-0.1c0,0,0-0.1,0-0.1
									c0-0.1,0-0.1,0-0.2c0,0,0-0.1,0-0.1c0,0,0,0,0,0c0,0,0,0,0,0c0,0-0.1-0.1-0.1-0.1c-0.1-0.1-0.1-0.1-0.1-0.1s0,0,0,0
									c0,0,0.1,0,0.1,0.1c0,0,0.1,0.1,0.1,0.1c0,0,0,0,0,0c0,0,0,0,0,0c0,0,0,0.1,0,0.1c0,0.1,0,0.1,0,0.2c0,0,0,0.1,0,0.1
									c0,0,0,0.1,0,0.1C19.2,1,19.1,1.1,19.1,1.1C19.1,1.1,19.1,1.1,19.1,1.1z"/>
							</g>
							<path class="st2" d="M19.1,0.1C19.1,0.1,19.1,0.1,19.1,0.1c0.1,0,0.1,0.1,0.1,0.1c0,0,0,0,0.1,0.1c0,0,0,0,0.1,0.1
								c0,0,0,0,0.1,0.1c0,0,0,0,0,0l0,0c0,0,0,0,0,0.1c0,0,0,0.1,0,0.1c0,0,0,0.1,0,0.1c0,0.1,0,0.1,0,0.2c0,0,0,0.1,0,0.1
								c0,0,0,0,0,0s0-0.1,0-0.2c0,0,0-0.1,0-0.2c0,0,0-0.1,0-0.1c0,0,0-0.1,0-0.1c0,0,0,0,0,0l0,0c0,0,0,0,0,0c0,0,0-0.1-0.1-0.1
								c0,0-0.1-0.1-0.1-0.1C19.2,0.2,19.2,0.2,19.1,0.1C19.1,0.2,19.1,0.1,19.1,0.1z"/>
							<g>
								<path class="st2" d="M19.6,1C19.6,1,19.6,1,19.6,1c0.1,0,0.1-0.1,0.1-0.1c0,0,0,0,0,0c0,0,0,0,0,0c0,0,0,0,0-0.1
									c0-0.1,0-0.1,0-0.2c0-0.1,0-0.1,0-0.2c0,0,0-0.1,0-0.1c0,0,0-0.1,0-0.1c0,0,0,0,0-0.1c0,0,0,0,0,0c0,0,0,0,0,0c0,0,0,0,0,0
									s0,0,0,0c0,0,0,0,0,0c0,0,0,0,0,0c0,0,0,0,0,0c0,0,0,0,0,0c0,0,0,0.1,0,0.2c0,0,0,0.1,0,0.1c0,0,0,0.1,0,0.1
									c0,0.1,0,0.1,0,0.2c0,0,0,0.1,0,0.1c0,0,0,0,0,0c0,0,0,0,0,0C19.7,1,19.6,1,19.6,1C19.6,1,19.6,1,19.6,1z"/>
							</g>
						</g>
						<g>
							<path class="st2" d="M18.7,1C18.7,1,18.7,1,18.7,1C18.7,1,18.7,1,18.7,1c-0.1,0-0.1,0-0.1,0c0,0-0.1,0-0.1-0.1c0,0,0,0,0,0
								s0,0,0,0c0,0,0,0,0.1,0C18.6,0.9,18.7,1,18.7,1C18.7,1,18.7,1,18.7,1C18.7,1,18.7,1,18.7,1L18.7,1z"/>
						</g>
						<g>
							<path class="st2" d="M18.7,0.9C18.7,0.9,18.7,0.9,18.7,0.9C18.7,0.9,18.7,0.9,18.7,0.9c-0.1,0-0.1-0.1-0.1-0.1
								c0,0,0-0.1-0.1-0.1c0,0,0,0,0,0s0,0,0,0c0,0,0,0.1,0.1,0.1C18.6,0.8,18.7,0.8,18.7,0.9C18.7,0.9,18.7,0.9,18.7,0.9
								C18.7,0.9,18.7,0.9,18.7,0.9L18.7,0.9z"/>
						</g>
					</g>
				</g>
				<g>
					<path class="st5" d="M18.2,2.7c0.1,0.1,1.1,0.2,1.4-0.1l0,1.2h-1.4L18.2,2.7z"/>
				</g>
				<g>
					<path class="st1" d="M19.7,3c0,0-0.2,0.4-0.5,0.5c-0.4,0.2-0.9,0-1.1-0.2c0,0,0.1,1.4,0.1,1.8c0,0.3,0.1,1.2,0.1,1.5
						c0,0.3,0,0.3,0.1,0.4c0.1,0.1,0.7,1.5,0.9,1.8c0.2,0.3,0.8,1,0.9,1.2c0.1,0.2,0.3,0.6,0.3,0.6s1-0.6,1.3-1.3S21.9,8,21.9,8
						s-0.2,0-0.4-0.1c-0.2-0.1-0.4-0.5-0.5-0.8c-0.1-0.3-0.5-0.5-0.6-0.7S20,5.3,20,5.3s-0.1-0.6-0.2-0.8C19.8,4.3,19.7,3,19.7,3z"
						/>
				</g>
				<g>
					<path class="st4" d="M23.5,8.8L23.1,9l0.2,0.1c0,0-0.1,0.4-0.3,1.4c-0.3,1-0.5,3.3-0.6,3.8s-0.3,0.8-0.3,0.8s0.3-0.4,0.7-2
						c0.4-1.6,1-2.8,1-2.8L23.5,8.8z"/>
				</g>
				<g>
					<path class="st5" d="M23.5,9c0,0,0.4,0.5,0.6,0.7s0.2,0.2,0.2,0.2S24,9.6,23.8,9.8c-0.1,0.2-0.2,0.6-0.2,0.6S23.4,9.4,23.5,9z"
						/>
				</g>
				<g>
					<path class="st5" d="M25.5,10.6c0,0,0.4-0.2,0.5-0.1c0.1,0.1,0.2,0.2,0,0.5c0,0,0,0.1,0.1,0s0.3-0.4,0.4-0.7
						c0.1-0.2,0-0.9-0.5-1.2c0,0-0.1,0.3,0,0.5c0.1,0.2,0.2,0.3,0.2,0.3S26,10.4,25.5,10.6z"/>
				</g>
				<g>
					<path class="st0" d="M26.1,17.4c0,0-0.2,0.1-0.3,0c-0.1,0-0.7-0.5-0.7-0.5h-0.6c0,0-0.1,0-0.2,0.1L24,17.1c0,0-0.1,0.2,0.4,0.3
						c0,0-0.2,0.1-0.1,0.4c0,0-0.1,0-0.1,0.2s0.1,0.2,0.1,0.2s-0.1,0.1,0.1,0.3c0,0-0.1,0.1,0,0.3c0.1,0.1,0.2,0.2,0.3,0.2
						c0,0,0.5,0,0.6,0c0.1,0,0.3-0.1,0.5-0.2s0.6-0.2,0.8-0.2c0,0,0.2-0.3,0.1-0.6S26.1,17.4,26.1,17.4z"/>
				</g>
				<g>
					<path class="st13" d="M25.8,17.4c0,0,0.3,0,0.4,0.2c0.1,0.2,0.2,0.5,0.2,0.9s-0.3,0.4-0.5,0.4s-0.1,0-0.1,0s0,0.1,0.2,0.1
						c0.2,0,0.5-0.1,0.6-0.3c0.1-0.1,0.1-0.1,0.1-0.1s0.2-0.7,0.1-0.9c-0.1-0.2-0.6-0.2-0.6-0.2l-0.1,0L25.8,17.4z"/>
				</g>
				<g>
					<path class="st1" d="M28.7,13c0,0.4,0,0.7,0,1c-0.1,0.2-0.1,0.3-0.1,0.7c0,0.4,0,1.6-0.1,1.8c0,0.2,0,0.2,0,0.3
						c0,0.2,0,0.2-0.1,0.4s-0.1,0.4-0.2,0.5c-0.1,0.2-0.8,0.6-0.9,0.7c-0.1,0.1-1.1,0.8-1.1,0.8s0.4-0.6,0.4-1c0-0.4,0-0.9-0.7-0.9
						c0,0,0.4-0.2,0.5-0.3c0.1-0.1,0.1-0.1,0.1-0.1s0-0.2,0-0.3c0-0.1,0,0-0.1-0.2c0-0.2,0-0.8,0.1-1.2c0.4-0.5,0.7-1,0.9-1.3
						c0.4-0.7,1-2.4,1-2.4s0.2-0.1,0.2,0.5C28.7,12.7,28.7,12.6,28.7,13z"/>
				</g>
				<ellipse transform="matrix(0.9898 0.1422 -0.1422 0.9898 1.3158 -3.6265)" class="st0" cx="26" cy="7.4" rx="0.2" ry="0.6"/>
				<g>
					
						<ellipse transform="matrix(-0.9898 0.1422 -0.1422 -0.9898 47.6034 12.245)" class="st0" cx="23.4" cy="7.8" rx="0.2" ry="0.6"/>
				</g>
				<g>
					<path class="st1" d="M23.2,7.6L23.2,7.6c0.1,0-0.1-0.7,0-0.9c0-0.3,0.1-0.6,0.2-0.8c0.1-0.2,0.2-0.3,0.4-0.3
						c0.1,0.1,0.7,0.1,1-0.1s0.7,0.2,0.8,0.3s0.3,0.6,0.3,0.8c0,0.2,0.1,0.6,0.2,0.7c0,0.1,0,0.1,0,0.1l0.1,0c0,0,0.1-0.9,0-1.4
						c-0.1-0.5-0.7-1-1.4-1.2c-0.7-0.1-1.2,0.4-1.4,0.9S23,7.2,23.2,7.6z"/>
				</g>
			</g>
			<g>
				<path class="st1" d="M25.4,36.8c0,0,0,0.2,0.1,0.2c0.1,0,0.6,0,0.8,0s0.4,0,0.6-0.1c0.3-0.2,0.3-0.7,0.3-0.7s0.1,0.4-0.1,0.6
					c-0.2,0.3-0.4,0.3-0.8,0.4c-0.4,0-0.7,0-0.8,0C25.4,37.1,25.3,37,25.4,36.8z"/>
			</g>
		</g>
		<g>
			<rect x="0" y="36.8" class="st8" width="13.5" height="11.2"/>
			<g>
				<g>
					<rect x="0" y="36.8" class="st11" width="13.5" height="3"/>
				</g>
			</g>
		</g>
		<g>
			<rect x="34.5" y="40.5" class="st15" width="13.5" height="7.5"/>
			<g>
				<g>
					<rect x="34.5" y="40.5" class="st9" width="13.5" height="3"/>
				</g>
			</g>
		</g>
		<g>
			<g>
				<g>
					<g>
						<path class="st4" d="M43.2,40.2c0,0-0.1,0.2,0,0.6c0.1,0.4,0.3,0.6,0.3,1s0.3,0.8,0.7,1c0.4,0.1,1,0.2,1-0.2
							c0.1-0.4-0.1-0.6-0.2-0.9c-0.1-0.3-0.3-0.8-0.4-1.1C44.5,40.3,43.9,39.8,43.2,40.2z"/>
					</g>
					<g>
						<path class="st0" d="M44.4,40.5c0,0,0.3,0.5,0.4,0.9c0.1,0.4,0.1,0.5,0,0.5c-0.1,0-0.2-0.2-0.6-0.1s-0.5,0.1-0.5-0.1
							c-0.1-0.1-0.1-0.3-0.2-0.7c-0.1-0.4-0.1-0.7-0.1-0.7S44.3,40.4,44.4,40.5z"/>
					</g>
				</g>
				<g>
					<g>
						<path class="st4" d="M39.7,40.2c0,0,0.1,0.2,0,0.6c-0.1,0.4-0.3,0.6-0.3,1c0,0.4-0.3,0.8-0.7,1c-0.4,0.1-1,0.2-1-0.2
							c-0.1-0.4,0.1-0.6,0.2-0.9c0.1-0.3,0.3-0.8,0.4-1.1C38.4,40.3,39,39.8,39.7,40.2z"/>
					</g>
					<g>
						<path class="st0" d="M38.5,40.5c0,0-0.3,0.5-0.4,0.9c-0.1,0.4-0.1,0.5,0,0.5c0.1,0,0.2-0.2,0.6-0.1c0.4,0.1,0.5,0.1,0.5-0.1
							c0.1-0.1,0.1-0.3,0.2-0.7c0.1-0.4,0.1-0.7,0.1-0.7S38.6,40.4,38.5,40.5z"/>
					</g>
				</g>
				<g>
					<path class="st1" d="M43.2,40.8c0,0,0.2,0.2,0.6,0.1s0.8,0,1-0.1c0.1-0.1,0.4-0.8,0.3-1.2c-0.1-0.3-0.3-0.7-0.2-1.3
						c0.1-0.5-0.3-4.6-0.3-5.8c0-1.1,0.3-2.5,0.1-3.4c-0.2-0.9-0.2-0.9-0.2-0.9l-5,0l-0.8,0.4c0,0,0,1.3,0.3,2.2
						c0.2,0.9-0.2,4.3-0.3,5.2c0,0.9,0.1,3.6,0,3.9c-0.1,0.3-0.1,0.7-0.1,0.7s0.2,0.2,0.5,0.1c0.3-0.1,0.8-0.1,0.8-0.1
						s0-0.8,0.3-1.4s0.3-3.1,0.4-3.5s0.3-1.8,0.4-2.3c0.1-0.5,0.6-3.4,0.6-3.4l0.2-0.3c0,0,0.1,0.2,0.2,0.6s0.5,1.8,0.5,2.4
						c0.1,0.6,0.5,2.2,0.5,2.5c0,0.4,0.1,2.5,0.1,3.1S43.2,40.8,43.2,40.8z"/>
				</g>
			</g>
			<g>
				<path class="st4" d="M41.3,22.8l0.2,0.9l0,4.9c0,0.5-0.4,1-1,1h-1.9c-0.2,0-0.4-0.2-0.4-0.4c0-0.6,0-1.7,0.2-2.5
					c0.2-1.2,0.6-5.3,0.6-5.3s-0.1-2.7-0.8-3.2c0,0,1-0.2,1.6-0.5s0.7-0.2,0.7-0.2L41.3,22.8z"/>
			</g>
			<g>
				<path class="st0" d="M40.9,24.5c0,0-1.3,0.1-1.6-0.7l1.4-0.1L40.9,24.5z"/>
			</g>
			<g>
				<path class="st7" d="M42.9,14.2c0.2,0,0.4,0.1,0.5,0.3c0.1,0.2,0.1,0.4,0.1,0.6c0,0.2-0.1,0.4-0.1,0.6c-0.1,0.6,0,1.2,0.2,1.7
					c0.2,0.5,0.6,1,1.1,1.3c-0.4,0-0.8,0-1.2-0.1s-0.8-0.4-1-0.7c-0.2-0.3-0.3-0.6-0.3-0.9c-0.1-0.4-0.1-0.8,0-1.2
					c0.1-0.4,0.3-0.8,0.5-1.1"/>
			</g>
			<g>
				<g>
					<rect x="40.6" y="16.2" class="st2" width="1.8" height="2.6"/>
				</g>
				<g>
					<path class="st13" d="M40.4,18.1c0.8,0.6,1.6,0.6,2.6,0.2l-1,4.8l-0.8-0.1L40.4,18.1z"/>
				</g>
				<g>
					<ellipse class="st0" cx="41.5" cy="15.3" rx="1.4" ry="1.8"/>
				</g>
				<g>
					<g>
						<path class="st0" d="M43.1,15.5c-0.1,0.3-0.2,0.4-0.3,0.4c-0.1,0-0.2-0.3-0.1-0.5S42.9,15,43,15C43.1,15,43.2,15.3,43.1,15.5z
							"/>
					</g>
					<g>
						<path class="st0" d="M39.9,15.5c0.1,0.3,0.2,0.4,0.3,0.4c0.1,0,0.2-0.3,0.1-0.5C40.3,15.2,40.1,15,40,15
							C39.9,15,39.9,15.3,39.9,15.5z"/>
					</g>
				</g>
				<g>
					<path class="st7" d="M42,12.9c-0.5-0.2-1.6,0-1.9,0.9c-0.4,0.8,0,1.7,0,1.7h0.1c0-0.1-0.1-0.5,0-0.6c0.1-0.1,0.2-0.4,0.4-0.6
						c0.1-0.3,0.6-0.5,0.9-0.4c0.3,0.1,0.7,0.3,1,0.6c0.2,0.3,0.4,0.7,0.4,1.1h0.1c0,0,0.2-0.6,0.2-1.2S42.5,13,42,12.9z"/>
				</g>
			</g>
			<g>
				<path class="st4" d="M42.7,17.6l2,0.7c0,0-0.5,0.9-0.6,2.4c-0.1,1.3,0.5,6.9,0.7,8.5c0,0.2-0.2,0.4-0.4,0.4h-1.9
					c-0.5,0-1-0.4-1-0.9l0-5L42.7,17.6z"/>
			</g>
			<g>
				<path class="st1" d="M45.6,22.3c-0.1,0.4-0.3,1.2-0.6,1.5c-0.1,0.1-0.4,0.2-0.8,0.4c-0.8,0.3-2,0.7-2.8,0.9
					c-0.4,0.1-0.6,0.2-0.6,0.2s-0.5-1.3-0.5-1.6c0-0.1,0.6-0.3,1.2-0.5c0.7-0.2,1.4-0.3,1.6-0.4c0.4-0.1,0.6-0.1,0.7-0.3
					c0-0.1,0.2-1.8,0.2-1.8c0.1-1.5,0.6-2.4,0.6-2.4s0.4,0.3,0.4,0.8c0,0.6,0,1.4,0.1,1.8C45.4,21.2,45.7,21.9,45.6,22.3z"/>
			</g>
			<g>
				<path class="st1" d="M42.4,17.3c0,0,0,0.8-0.3,2s-0.7,4.1-0.7,4.1l0.1,0.4c0,0,0.3-0.7,0.6-1.7c0.4-1.1,0.9-3.4,1-3.9
					C43.2,17.7,42.4,17.3,42.4,17.3z"/>
			</g>
			<g>
				<path class="st1" d="M40.6,17.3c0,0,0,0.8,0.3,2s0.7,4.1,0.7,4.1l-0.1,0.4c0,0-0.3-0.7-0.6-1.7c-0.4-1.1-0.9-3.4-1-3.9
					C39.9,17.7,40.6,17.3,40.6,17.3z"/>
			</g>
			<g>
				<path class="st0" d="M45.3,22.9c-0.1-0.1-0.3-0.3-0.4-0.3s-0.4-0.1-0.4-0.1l0,0c0,0,0.4,0,0.5,0c0,0,0.2,0.2,0.3,0.2
					c0,0,0.1,0.3,0.4,0.1l-0.1-0.2c0,0,0-0.1-0.1-0.2C45.3,22.3,45,22,45,22l-0.5,0c0,0,0.2-0.1,0.2-0.2c0,0,0.2,0.1,0.3,0
					c0,0,0.4,0.3,0.5,0l-0.2-0.1c0,0-0.1-0.1-0.3-0.1c-0.1,0-0.3-0.1-0.5,0c-0.2,0-0.5,0.2-0.7,0.3c-0.2,0.1-0.7,0.4-0.8,0.5
					c-0.1,0-0.7,0-1,0v0.8c0.2,0,0.6,0,0.7,0c0.1,0.1,0.3,0.1,0.5,0.1c0.2,0,0.7-0.2,0.8-0.3c0.1,0,0.4,0.1,0.5,0.1
					c0,0,0.2,0.1,0.3,0.1c0,0,0.2,0.2,0.3,0.2s0.1-0.1,0.1-0.1l-0.2-0.2c0,0,0,0-0.1-0.1c-0.1-0.1-0.3-0.2-0.4-0.2
					c-0.1,0-0.3-0.1-0.3-0.1h0.1c0,0,0.4,0.1,0.5,0.1c0,0,0.1,0.1,0.2,0.2c0,0,0.2,0.3,0.4,0.2l-0.1-0.2
					C45.4,23.1,45.4,22.9,45.3,22.9z"/>
			</g>
			<g>
				<path class="st1" d="M42.5,22.4c0,0-0.3,0.7-0.4,1.6c0,0-0.3,0-0.6,0c-0.3,0-0.6,0-0.8,0c-0.5-0.1-1.4,0.1-1.9,0c0,0,0,0,0,0
					c-0.5-0.1-1-0.2-1.1-0.5c-0.1-0.3-0.2-1.9-0.1-2.3s0.2-0.9,0.2-1.1c0-0.2,0.1-1.4,0.4-1.8h0c0.6,0.5,0.8,2.8,0.8,3.2
					c0,0.2-0.1,0.4-0.1,0.5c0,0.2-0.1,0.3,0,0.4c0,0,0,0,0.1,0c0.2,0,1.2,0.1,1.7,0.1h0.5C41.8,22.4,42.5,22.4,42.5,22.4z"/>
			</g>
			<g>
				<path class="st0" d="M38.7,21.8c0.1,0.2,0.1,0.2,0.1,0.2s-0.1,0-0.1,0.1l0.2,0.2c0.1,0,0.7,0.1,0.7,0c-0.1-0.1-0.2-0.3-0.2-0.4
					c-0.1-0.1-0.3-0.4-0.3-0.5c0-0.1-0.1,0-0.1,0.1l-0.2-0.3c0,0-0.2,0-0.2,0.2C38.7,21.5,38.6,21.5,38.7,21.8z"/>
			</g>
		</g>
		<g>
			<ellipse class="st7" cx="5.9" cy="12.7" rx="0.6" ry="1.5"/>
			<g>
				<path class="st7" d="M7,11.7c0.3-0.2,0.6,0,0.7,0.3c0.1,0.3,0.2,0.8,0,1.1c-0.2,0.6-0.6,1.2-0.5,1.9c0.1,0.7,0.4,1.3,1,1.6
					c-0.1-0.3-0.1-0.6,0-0.9s0.2-0.6,0.3-0.8c0.3-0.8,0.3-1.6,0.1-2.4c-0.1-0.3-0.2-0.7-0.4-0.9C7.9,11.2,7.4,11,6.9,11"/>
			</g>
			<g>
				<g>
					<g>
						<g>
							<path class="st4" d="M5.2,36.6c0,0,0.1,0.2,0,0.6c-0.1,0.4-0.3,0.6-0.3,1c0,0.4-0.3,0.8-0.7,1s-1,0.2-1-0.2s0.1-0.6,0.2-0.9
								c0.1-0.3,0.3-0.8,0.4-1.1C3.9,36.7,4.5,36.2,5.2,36.6z"/>
						</g>
						<g>
							<path class="st0" d="M4,36.9c0,0-0.3,0.5-0.4,0.9s-0.1,0.5,0,0.5c0.1,0,0.2-0.2,0.6-0.1c0.4,0.1,0.5,0.1,0.5-0.1
								C4.9,38,4.9,37.9,5,37.5c0.1-0.4,0.1-0.7,0.1-0.7S4.1,36.8,4,36.9z"/>
						</g>
					</g>
					<g>
						<g>
							<path class="st4" d="M8.7,36.6c0,0-0.1,0.2,0,0.6c0.1,0.4,0.3,0.6,0.3,1c0,0.4,0.3,0.8,0.7,1c0.4,0.1,1,0.2,1-0.2
								s-0.1-0.6-0.2-0.9c-0.1-0.3-0.3-0.8-0.4-1.1C10,36.7,9.4,36.2,8.7,36.6z"/>
						</g>
						<g>
							<path class="st0" d="M9.9,36.9c0,0,0.3,0.5,0.4,0.9s0.1,0.5,0,0.5c-0.1,0-0.2-0.2-0.6-0.1s-0.5,0.1-0.5-0.1
								C9,38,9,37.9,8.9,37.5c-0.1-0.4-0.1-0.7-0.1-0.7S9.8,36.8,9.9,36.9z"/>
						</g>
					</g>
					<g>
						<path class="st1" d="M5.2,37.2c0,0-0.2,0.2-0.6,0.1c-0.4-0.2-0.8,0-1-0.1s-0.4-0.8-0.3-1.2c0.1-0.3,0.3-0.7,0.2-1.3
							S4,30.2,4,29c0-1.1-0.3-2.5-0.1-3.4c0.2-0.9,0.2-0.9,0.2-0.9l5,0l0.8,0.4c0,0,0,1.3-0.3,2.2s0.2,4.3,0.3,5.2
							c0,0.9-0.1,3.6,0,3.9s0.1,0.7,0.1,0.7s-0.2,0.2-0.5,0.1c-0.3-0.1-0.8-0.1-0.8-0.1s0-0.8-0.3-1.4c-0.3-0.6-0.3-3.1-0.4-3.5
							s-0.3-1.8-0.4-2.3C7.6,29.3,7,26.5,7,26.5l-0.2-0.3c0,0-0.1,0.2-0.2,0.6s-0.5,1.8-0.5,2.4c-0.1,0.6-0.5,2.2-0.5,2.5
							c0,0.4-0.1,2.5-0.1,3.1C5.5,35.5,5.2,37.2,5.2,37.2z"/>
					</g>
				</g>
				<g>
					<path class="st4" d="M7.1,19.3l-0.2,0.9l0,4.9c0,0.5,0.4,1,1,1h1.9c0.2,0,0.4-0.2,0.4-0.4c0-0.6,0-1.7-0.2-2.5
						c-0.2-1.2-0.6-5.3-0.6-5.3s0.1-2.7,0.8-3.2c0,0-1-0.2-1.6-0.5s-0.7-0.2-0.7-0.2L7.1,19.3z"/>
				</g>
				<g>
					<path class="st0" d="M7.5,20.9c0,0,1.3,0.1,1.6-0.7l-1.4-0.1L7.5,20.9z"/>
				</g>
				<g>
					<g>
						<rect x="6" y="12.6" class="st2" width="1.8" height="2.6"/>
					</g>
					<g>
						<path class="st13" d="M8,14.6c-0.8,0.6-1.6,0.6-2.6,0.2l1,4.8l0.8-0.1L8,14.6z"/>
					</g>
					<g>
						<ellipse class="st0" cx="6.9" cy="11.8" rx="1.4" ry="1.8"/>
					</g>
					<g>
						<g>
							<path class="st0" d="M8.5,11.9c-0.1,0.3-0.2,0.4-0.3,0.4c-0.1,0-0.2-0.3-0.1-0.5s0.2-0.4,0.3-0.4S8.5,11.7,8.5,11.9z"/>
						</g>
					</g>
				</g>
				<g>
					<path class="st4" d="M5.7,14.1l-2,0.7c0,0,0.5,0.9,0.6,2.4c0.1,1.3-0.5,6.9-0.7,8.5c0,0.2,0.2,0.4,0.4,0.4h1.9
						c0.5,0,1-0.4,1-0.9l0-5L5.7,14.1z"/>
				</g>
				<g>
					<path class="st1" d="M2.8,18.7c0.1,0.4,0.3,1.2,0.6,1.5c0.1,0.1,0.4,0.2,0.8,0.4c0.8,0.3,2,0.7,2.8,0.9
						c0.4,0.1,0.6,0.2,0.6,0.2S8,20.3,8,20c0-0.1-0.6-0.3-1.2-0.5c-0.7-0.2-1.4-0.3-1.6-0.4C4.9,19,4.6,19,4.6,18.9
						c0-0.1-0.2-1.8-0.2-1.8c-0.1-1.5-0.6-2.4-0.6-2.4S3.3,15,3.3,15.6c0,0.6,0,1.4-0.1,1.8C3,17.7,2.7,18.3,2.8,18.7z"/>
				</g>
				<g>
					<path class="st1" d="M6,13.7c0,0,0,0.8,0.3,2C6.5,16.9,7,19.8,7,19.8l-0.1,0.4c0,0-0.3-0.7-0.6-1.7c-0.4-1.1-0.9-3.4-1-3.9
						C5.2,14.1,6,13.7,6,13.7z"/>
				</g>
				<g>
					<path class="st1" d="M7.8,13.7c0,0,0,0.8-0.3,2s-0.7,4.1-0.7,4.1l0.1,0.4c0,0,0.3-0.7,0.6-1.7c0.4-1.1,0.9-3.4,1-3.9
						C8.5,14.1,7.8,13.7,7.8,13.7z"/>
				</g>
				<g>
					<path class="st0" d="M3.1,19.3C3.2,19.2,3.4,19,3.5,19s0.4-0.1,0.4-0.1l0,0c0,0-0.4,0-0.5,0c0,0-0.2,0.2-0.3,0.2
						c0,0-0.1,0.3-0.4,0.1L2.9,19c0,0,0-0.1,0.1-0.2c0.1-0.1,0.4-0.3,0.4-0.3l0.5,0c0,0-0.2-0.1-0.2-0.2c0,0-0.2,0.1-0.3,0
						c0,0-0.4,0.3-0.5,0l0.2-0.1c0,0,0.1-0.1,0.3-0.1c0.1,0,0.3-0.1,0.5,0c0.2,0,0.5,0.2,0.7,0.3c0.2,0.1,0.7,0.4,0.8,0.5
						c0.1,0,0.7,0,1,0v0.8c-0.2,0-0.6,0-0.7,0c-0.1,0.1-0.3,0.1-0.5,0.1c-0.2,0-0.7-0.2-0.8-0.3c-0.1,0-0.4,0.1-0.5,0.1
						c0,0-0.2,0.1-0.3,0.1c0,0-0.2,0.2-0.3,0.2s-0.1-0.1-0.1-0.1l0.2-0.2c0,0,0,0,0.1-0.1c0.1-0.1,0.3-0.2,0.4-0.2
						c0.1,0,0.3-0.1,0.3-0.1H4c0,0-0.4,0.1-0.5,0.1c0,0-0.1,0.1-0.2,0.2c0,0-0.2,0.3-0.4,0.2L3,19.5C3,19.5,3,19.4,3.1,19.3z"/>
				</g>
				<g>
					<path class="st1" d="M5.9,18.8c0,0,0.3,0.7,0.4,1.6c0,0,0.3,0,0.6,0c0.3,0,0.6,0,0.8,0c0.5-0.1,1.4,0.1,1.9,0c0,0,0,0,0,0
						c0.5-0.1,1-0.2,1.1-0.5c0.1-0.3,0.2-1.9,0.1-2.3c-0.1-0.3-0.2-0.9-0.2-1.1c0-0.2-0.1-1.4-0.4-1.8h0c-0.6,0.5-0.8,2.8-0.8,3.2
						c0,0.2,0.1,0.4,0.1,0.5c0,0.2,0.1,0.3,0,0.4c0,0,0,0-0.1,0c-0.2,0-1.2,0.1-1.7,0.1H7.2C6.6,18.8,5.9,18.8,5.9,18.8z"/>
				</g>
				<g>
					<path class="st0" d="M9.7,18.2c-0.1,0.2-0.1,0.2-0.1,0.2s0.1,0,0.1,0.1l-0.2,0.2c-0.1,0-0.7,0.1-0.7,0c0.1-0.1,0.2-0.3,0.2-0.4
						c0.1-0.1,0.3-0.4,0.3-0.5s0.1,0,0.1,0.1l0.2-0.3c0,0,0.2,0,0.2,0.2C9.7,17.9,9.8,18,9.7,18.2z"/>
				</g>
			</g>
			<path class="st7" d="M5.7,11.1c-0.3,0.5-0.3,1.1-0.1,1.6s0.4,1,0.5,1.6c0.1,0.6,0,1.3-0.3,1.8c0.1-0.5-0.1-1-0.3-1.5
				C5.2,13.7,5,12.8,5,11.8c0-0.4,0-0.9,0.1-1.3c0.2-0.6,0.8-1.1,1.5-1.2"/>
			<g>
				<path class="st0" d="M5.3,11.9c0.1,0.3,0.2,0.4,0.3,0.4c0.1,0,0.2-0.3,0.1-0.5c-0.1-0.3-0.2-0.4-0.3-0.4
					C5.3,11.5,5.2,11.7,5.3,11.9z"/>
			</g>
			<g>
				<path class="st7" d="M6.4,9.3c0.5-0.2,1.6,0,1.9,0.9c0.4,0.8,0,1.7,0,1.7H8.2c0-0.1,0.1-0.5,0-0.6c-0.1-0.1-0.2-0.4-0.4-0.6
					c-0.1-0.3-0.6-0.5-0.9-0.4c-0.3,0.1-0.7,0.3-1,0.6c-0.2,0.3-0.4,0.7-0.4,1.1H5.5c0,0-0.2-0.6-0.2-1.2S5.9,9.5,6.4,9.3z"/>
			</g>
			<g>
				<path class="st7" d="M8.7,13.1c0,0.6,0,1.2-0.2,1.8c-0.1,0.3-0.2,0.6-0.3,0.8c-0.1,0.3-0.1,0.6,0,0.9c-0.5-0.3-0.9-0.9-1-1.6
					c-0.1-0.7,0.3-1.3,0.6-1.9L8.7,13.1z"/>
			</g>
		</g>
	</g>
</g>
</svg>
