<?xml version="1.0" encoding="utf-8"?>
<!-- Generator: Adobe Illustrator 18.0.0, SVG Export Plug-In . SVG Version: 6.00 Build 0)  -->
<!DOCTYPE svg PUBLIC "-//W3C//DTD SVG 1.1//EN" "http://www.w3.org/Graphics/SVG/1.1/DTD/svg11.dtd">
<svg version="1.1" id="Layer_1" xmlns="http://www.w3.org/2000/svg" xmlns:xlink="http://www.w3.org/1999/xlink" x="0px" y="0px"
	 viewBox="0 0 48 48" enable-background="new 0 0 48 48" xml:space="preserve">
<g>
	<g>
		<g>
			<g>
				<path fill="#FFFFFF" d="M16.2,41C11.1,41,7,36.9,7,31.8c0-5.1,4.1-9.2,9.2-9.2c5.1,0,9.2,4.1,9.2,9.2C25.3,36.9,21.2,41,16.2,41
					z"/>
				<g>
					<g>
						<rect x="14.3" y="37" fill="#CED6E0" width="3.7" height="3.3"/>
					</g>
					<g>
						<g>
							<polygon fill="#F3705A" points="16.9,38 17.7,37.3 16.2,35.9 14.7,37.3 15.4,38 							"/>
						</g>
					</g>
					<g>
						<g>
							<polygon fill="#F3705A" points="17.6,41.2 16.9,38 15.4,38 14.7,41.2 							"/>
						</g>
					</g>
					<path fill="#F7B64C" d="M14.1,33.4v0.9c0.5,0.7,1.1,1.2,2,1.6c0.8-0.3,1.5-0.8,2-1.6v-0.9H14.1z"/>
					<g>
						<g>
							<g>
								<g>
									<path fill="#FFD15C" d="M19.7,30.9c-0.1,0.6-0.5,1.1-0.9,1c-0.3-0.1-0.5-0.6-0.4-1.3c0.1-0.6,0.5-1.1,0.9-1
										C19.6,29.7,19.8,30.3,19.7,30.9z"/>
								</g>
							</g>
						</g>
						<g>
							<g>
								<g>
									<path fill="#FFD15C" d="M12.7,30.9c0.1,0.6,0.5,1.1,0.9,1c0.3-0.1,0.5-0.6,0.4-1.3c-0.1-0.6-0.5-1.1-0.9-1
										C12.7,29.7,12.5,30.3,12.7,30.9z"/>
								</g>
							</g>
						</g>
						<path fill="#415A6B" d="M18.8,31.5c0.4-1.1,0.7-2.3,0.7-3.1c0-1.8-1.5-3.3-3.3-3.3c-1.8,0-3.3,1.5-3.3,3.3
							c0,0.8,0.3,1.9,0.7,3.1H18.8z"/>
						<path fill="#FFD15C" d="M16,28.1c-0.5,0-0.9,0-1.3-0.1c-0.8-0.2-1.6,0.5-1.6,1.3l0,1.2c0,2.2,1.4,4.1,3,4.1c1.7,0,3-1.8,3-4.1
							l0-1.2c0-0.9-0.8-1.5-1.6-1.3C17.1,28.1,16.5,28.1,16,28.1z"/>
					</g>
					<g>
						<g>
							<g>
								<polygon fill="#F3F3F3" points="18.2,34.3 16.2,35.9 17.7,38 18.7,35.5 								"/>
							</g>
							<g>
								<g>
									<path fill="#344A5E" d="M23.8,41.2l-0.2-2c-0.1-1.1-0.8-2-1.8-2.5l-2.9-1.4l-1.7,5.9H23.8z"/>
								</g>
								<polygon fill="#415A6B" points="18.9,41.2 20.2,38.6 18.9,37.7 20.6,37.4 18.5,34.9 17,41.2 								"/>
							</g>
						</g>
						<g>
							<g>
								<polygon fill="#F3F3F3" points="14.1,34.3 16.2,35.9 14.6,38 13.6,35.5 								"/>
							</g>
							<g>
								<g>
									<path fill="#344A5E" d="M15.2,41.2l-1.7-5.9l-2.9,1.4c-1,0.4-1.7,1.4-1.8,2.5l-0.2,2H15.2z"/>
								</g>
								<polygon fill="#415A6B" points="12.1,38.6 13.4,41.2 15.4,41.2 13.9,34.9 11.8,37.4 13.4,37.7 								"/>
							</g>
						</g>
					</g>
				</g>
				<g>
					<path fill="#55C0EB" d="M32.3,34.5v-5.4l-4.2-1.1c-0.2-0.7-0.5-1.4-0.8-2l2.3-3.7l-3.8-3.8l-3.7,2.3c-0.6-0.3-1.3-0.6-2-0.8
						l-1.1-4.2h-5.4l-1,4.2c-0.7,0.2-1.4,0.5-2,0.8l-3.7-2.2l-3.8,3.8l2.3,3.7c-0.3,0.6-0.6,1.3-0.8,2L0,29.1l0,5.4l4.2,1
						c0.2,0.7,0.5,1.4,0.8,2l-2.2,3.7l3.8,3.8l3.7-2.2c0.6,0.3,1.3,0.6,2,0.8l1,4.2h5.4l1.1-4.2c0.7-0.2,1.4-0.5,2-0.8l3.7,2.3
						l3.8-3.8l-2.2-3.7c0.3-0.6,0.6-1.3,0.8-2L32.3,34.5z M16.2,41C11.1,41,7,36.9,7,31.8c0-5.1,4.1-9.2,9.2-9.2
						c5.1,0,9.2,4.1,9.2,9.2C25.3,36.9,21.2,41,16.2,41z"/>
				</g>
			</g>
			<g>
				<g>
					<path fill="#FFFFFF" d="M33.5,17.8c-3.2-1.4-4.7-5.1-3.4-8.3s5.1-4.7,8.3-3.4c3.2,1.4,4.7,5.1,3.4,8.3S36.8,19.2,33.5,17.8z"/>
				</g>
				<g>
					<g>
						<g>
							<g>
								<g>
									<path fill="#F3705A" d="M40.6,15.8h-9.1v0c0.9-1.6,1.4-3.3,1.4-5.2V10c0-1.7,1.4-3.1,3.1-3.1h0c1.7,0,3.1,1.4,3.1,3.1v0.7
										C39.1,12.5,39.6,14.2,40.6,15.8L40.6,15.8z"/>
								</g>
							</g>
						</g>
						<g>
							<path fill="#F7B64C" d="M40.9,18.8v-2.3c0-0.6-0.3-1.1-0.9-1.4c-0.7-0.3-1.4-0.5-2.1-0.6c-0.3,0-0.4-0.3-0.4-0.5v-1.7
								L36,11.2l-1.4,1.1V14c0,0.3-0.2,0.5-0.4,0.5c-0.7,0.1-1.4,0.3-2.1,0.6c-0.6,0.2-0.9,0.8-0.9,1.4l0,2.3H40.9z"/>
						</g>
						<g>
							<g>
								<path fill="#FFD15C" d="M38.7,11.4c-0.1,0.5-0.4,0.8-0.7,0.8c-0.3,0-0.4-0.5-0.3-1s0.4-0.8,0.7-0.8S38.8,10.9,38.7,11.4z"/>
							</g>
						</g>
						<g>
							<g>
								<path fill="#FFD15C" d="M33.4,11.4c0.1,0.5,0.4,0.8,0.7,0.8c0.3,0,0.4-0.5,0.3-1s-0.4-0.8-0.7-0.8S33.2,10.9,33.4,11.4z"/>
							</g>
						</g>
					</g>
					<g>
						<path fill="#66C6B9" d="M40.9,18.8v-2.3c0-0.6-0.4-1.2-0.9-1.4c-0.6-0.2-1.2-0.4-1.9-0.6C38,15.6,36,16.5,36,16.5
							s-2-0.8-2.1-1.9c-0.6,0.1-1.3,0.3-1.9,0.6c-0.6,0.2-0.9,0.8-0.9,1.4v2.3H40.9z"/>
					</g>
					<g>
						<path fill="#FFD15C" d="M36,9.4c-0.7,0-1.3-0.1-1.8-0.3c-0.3,0.5-0.5,1.2-0.5,1.9c0,1.7,1,3,2.3,3s2.3-1.3,2.3-3
							c0-0.7-0.2-1.4-0.5-1.9C37.3,9.3,36.7,9.4,36,9.4z"/>
					</g>
				</g>
				<g>
					<path fill="#415A6B" d="M47,18l1-2.3L44.9,13c0.1-0.6,0.1-1.2,0-1.8L48,8.5l-0.9-2.3L43,6.4c-0.4-0.5-0.8-0.9-1.3-1.3L42,1
						l-2.3-1L37,3.1c-0.6-0.1-1.2-0.1-1.8,0L32.5,0l-2.3,0.9L30.4,5c-0.5,0.4-0.9,0.8-1.3,1.3L25,6l-1,2.3l3.1,2.7
						c-0.1,0.6-0.1,1.2,0,1.8L24,15.5l0.9,2.3l4.1-0.3c0.4,0.5,0.8,0.9,1.3,1.3L30,23l2.3,1l2.7-3.1c0.6,0.1,1.2,0.1,1.8,0l2.7,3.1
						l2.3-0.9L41.6,19c0.5-0.4,0.9-0.8,1.3-1.3L47,18z M33.5,17.8c-3.2-1.4-4.7-5.1-3.4-8.3s5.1-4.7,8.3-3.4
						c3.2,1.4,4.7,5.1,3.4,8.3S36.8,19.2,33.5,17.8z"/>
				</g>
			</g>
		</g>
	</g>
</g>
</svg>
