<?xml version="1.0" encoding="utf-8"?>
<!-- Generator: Adobe Illustrator 18.0.0, SVG Export Plug-In . SVG Version: 6.00 Build 0)  -->
<!DOCTYPE svg PUBLIC "-//W3C//DTD SVG 1.1//EN" "http://www.w3.org/Graphics/SVG/1.1/DTD/svg11.dtd">
<svg version="1.1" id="Layer_1" xmlns="http://www.w3.org/2000/svg" xmlns:xlink="http://www.w3.org/1999/xlink" x="0px" y="0px"
	 viewBox="0 0 48 48" enable-background="new 0 0 48 48" xml:space="preserve">
<g>
	<g>
		<g>
			<g>
				<path fill="#FFD15C" d="M48,27.5H0V45c0,1.7,1.3,3,3,3h42c1.7,0,3-1.3,3-3V27.5z"/>
			</g>
			<g>
				<path fill="#415A6B" d="M15.9,35.6v-3.4c0-0.7,0.6-1.3,1.3-1.3l0,0c0.7,0,1.3,0.6,1.3,1.3v0.9l11,0v-0.9c0-0.7,0.6-1.3,1.3-1.3
					h0c0.7,0,1.3,0.6,1.3,1.3v3.4c0,0.7-0.6,1.3-1.3,1.3l-13.6,0C16.5,36.9,15.9,36.3,15.9,35.6z"/>
			</g>
		</g>
		<g>
			<polygon fill="#F3705A" points="13.9,38.3 15.1,40.8 17.8,41.2 15.8,43.1 16.3,45.8 13.9,44.5 11.4,45.8 11.9,43.1 9.9,41.2 
				12.6,40.8 			"/>
			<polygon fill="#F3705A" points="24,38.3 25.2,40.8 27.9,41.2 26,43.1 26.4,45.8 24,44.5 21.6,45.8 22,43.1 20.1,41.2 22.8,40.8 
							"/>
			<polygon fill="#F3705A" points="34.1,38.3 35.4,40.8 38.1,41.2 36.1,43.1 36.6,45.8 34.1,44.5 31.7,45.8 32.2,43.1 30.2,41.2 
				32.9,40.8 			"/>
		</g>
		<g>
			<polygon fill="#66C6B9" points="32.2,14.3 24,24 15.8,14.3 19.9,14.3 19.9,0 28.1,0 28.1,14.3 			"/>
		</g>
	</g>
</g>
</svg>
