<?xml version="1.0" encoding="utf-8"?>
<!-- Generator: Adobe Illustrator 19.0.1, SVG Export Plug-In . SVG Version: 6.00 Build 0)  -->
<svg version="1.1" id="Layer_1" xmlns="http://www.w3.org/2000/svg" xmlns:xlink="http://www.w3.org/1999/xlink" x="0px" y="0px"
	 viewBox="0 0 48 48" style="enable-background:new 0 0 48 48;" xml:space="preserve">
<style type="text/css">
	.st0{fill:#FFD15C;}
	.st1{fill:#415A6B;}
	.st2{fill:#F7B64C;}
	.st3{fill:#CED6E0;}
	.st4{fill:#344A5E;}
	.st5{fill:#F3F3F3;}
	.st6{fill:#F05540;}
	.st7{fill:#F3705A;}
	.st8{fill:#66C6B9;}
	.st9{fill:#55C0EB;}
	.st10{fill:#F5F6FB;}
	.st11{fill:#4ABAA5;}
	.st12{fill:#ADB3BA;}
	.st13{fill:#E8EAE9;}
	.st14{fill:#2E4556;}
	.st15{fill:#8AD7F8;}
	.st16{fill:#FFFFFF;}
	.st17{fill:#E54838;}
	.st18{fill:#3EAF99;}
	.st19{fill:#EFA943;}
	.st20{fill:#4CAEE5;}
	.st21{fill:#293F4F;}
	.st22{fill:#2D4456;}
	.st23{fill:#2E4454;}
	.st24{fill:#2A3F4F;}
	.st25{fill:#2D4151;}
	.st26{fill:#E89E3D;}
	.st27{fill:#2B4151;}
	.st28{fill:#2A4051;}
	.st29{fill:#2C4151;}
	.st30{fill:#EBEAE8;}
	.st31{fill:#3AA590;}
	.st32{fill:#E84534;}
	.st33{fill:none;}
</style>
<g>
	<g>
		<polygon class="st4" points="15,23.6 16.3,24.1 18.2,20.2 14,15 		"/>
	</g>
	<g>
		<ellipse class="st4" cx="32.3" cy="26.2" rx="1.3" ry="2.1"/>
		<g>
			<g>
				<path class="st0" d="M27.7,6.8C27.6,7.5,27.2,8,26.9,8c-0.3,0-0.5-0.6-0.5-1.3c0.1-0.7,0.5-1.2,0.8-1.2
					C27.6,5.5,27.8,6.1,27.7,6.8z"/>
			</g>
			<g>
				<path class="st0" d="M19.6,6.8C19.7,7.5,20,8,20.4,8c0.3,0,0.5-0.6,0.5-1.3C20.7,6,20.4,5.5,20,5.5C19.7,5.5,19.5,6.1,19.6,6.8z
					"/>
			</g>
			<g>
				<path class="st0" d="M26.6,8.8c-0.2,0.6-0.2,2.3-0.2,2.3L26,11.9c-0.3,0.5-0.9,1.2-1.7,2c0,0-1.3-0.9-2.2-1.6
					c-0.8-0.6-1-1.2-1-1.2S21,9.8,20.9,9.5c-0.1-0.3-0.7-1.4-0.8-2.7c-0.1-1.3-0.1-3.7,0.3-4.7c0.3-1,2.3-1.4,3.5-1.3
					c1.3,0.1,2.5,0.7,2.7,1.2C26.8,2.4,27,6.5,27,6.5l0,0.3C27,6.8,26.8,8.3,26.6,8.8z"/>
			</g>
			<path class="st2" d="M26.6,9L26.6,9c-0.6,1.2-2.1,2-3.3,2c-1.3,0-2.4-1.5-2.4-1.5c0.1,0.3,0.2,1.6,0.2,1.6s0.2,0.5,1,1.2
				c0.2,0.1,0.4,0.3,0.6,0.5C25.9,11.6,26.6,9,26.6,9z"/>
			<g>
				<g>
					<path class="st1" d="M34,41c-0.3-0.4-0.3-0.9-0.4-1.4c-0.2-0.8-0.4-1.6-0.7-2.4H21.5v4.3h-3.9V48h8.1l0.2-2.4l0.2,2.4h8.1v-6.6
						C34.2,41.3,34.1,41.2,34,41z"/>
				</g>
				<g>
					<path class="st11" d="M30.9,35.7c0,0-7.3,1.5-10.3,0.5c-3.1-1-0.7-22.7-0.7-22.7l4.3,0.3l3.2-1L30.9,35.7z"/>
				</g>
				<g>
					<path class="st4" d="M19.9,12.7c0,0-1.9,0.9-3,1.2c-1.1,0.3-3,1.1-3,1.1s2,5,2.2,8.2c0.2,3.2,1.3,10.7-0.5,20.8
						c0,0,2.4,5.4,6.5,2c2.8-2.3,2.5-14.2,2.5-14.2s-0.1-2.8-1.1-6S19.9,12.7,19.9,12.7z"/>
				</g>
				<g>
					<path class="st27" d="M18,40.2c0,0,1.4,0.9,2-3.9l-2.3,0.2L18,40.2z"/>
					<g>
						<path class="st3" d="M18.7,39.4L19,40c0,0,1.2,0.8,1.5-3.7L18.7,39.4z"/>
					</g>
				</g>
				<g>
					<path class="st4" d="M27.3,12.1c0,0,1.9,0.7,3,0.9c1.1,0.3,2.5,0.7,2.5,0.7l0.6,1.9c0,0-1.7,9.9-1.2,13.6s2.8,13.4,2.8,13.4
						s0.3,0.4-1,1.4c-1.2,1-1.8,1.4-2.3,0.7c-0.5-0.6-5.3-8.4-5.2-11.4c0.1-3,0.9-19.9,0.9-19.9L27.3,12.1z"/>
				</g>
				<g>
					<path class="st8" d="M26.5,11.1c0,0-0.5,1.1-2.2,2.7c0,0,1.6,0.8,2.2,2.5c0,0,0.8-2.9,0.7-3.6C27.2,12.1,26.5,11.1,26.5,11.1z"
						/>
				</g>
				<g>
					<path class="st1" d="M26.7,11.5c0,0,0.4,2.5,0.4,3.4c0,0.9-0.4,18.4-0.4,18.4s0.8-6.6,1.3-8.5s1.8-10.4,1.8-10.4l-1.1-0.2
						l0.8-0.7c0,0-1.6-1.3-2.1-1.6C26.8,11.7,27,11.5,26.7,11.5z"/>
				</g>
				<g>
					<path class="st1" d="M37.4,27.8c-0.2,0.5-0.8,1.5-1.3,1.8c-0.5,0.3-0.6,0.7-0.8,1.1c-0.2,0.4-0.5,0.5-1.1,0.8
						c-0.5,0.4-1.2,1-2,1.9c-0.8,0.9-1,0.5-1,0.5s0.7,0.2,0.8-2.2c0-0.2,0-0.4,0-0.5c0-1-0.3-1.8-0.5-2.3c0-0.1-0.1-0.1-0.1-0.2
						c0-0.1-0.1-0.2-0.2-0.3c-0.1-0.1-0.1-0.2-0.2-0.2c0.2,0,0.9-0.2,1.1-0.3c0.2-0.2,0.5-0.1,0.5-0.4c0-0.3,0.2-0.5,0.2-0.5
						l-0.9-1.8c0,0,0,0,0.5-1.9c0.5-1.9,0.3-9.3,0.3-9.3s0.4,0.2,0.5,0.6c0.2,0.4,0.4,1.4,0.7,2.1c0.3,0.7,1.5,4.1,1.5,4.5
						c0.1,0.4,0.8,3.3,1.1,3.8c0.3,0.5,0.8,1.8,0.8,2.1C37.6,27,37.5,27.3,37.4,27.8z"/>
				</g>
				<g>
					<path class="st4" d="M32.3,32.7c0,0-0.4,1.3-1,1.2s-1.2-4.8-0.1-5.8l2.4,1.3L32.3,32.7z"/>
				</g>
				<g>
					<path class="st12" d="M31.7,32.4c0,0-0.2,0.2-0.4,0c-0.2-0.2-0.4-3,0.4-3.6c0.8-0.6,2,0.4,2,0.4L31.7,32.4z"/>
				</g>
				<g>
					<g>
						<g>
							<g>
								<g>
									<g>
										<g>
											<path class="st3" d="M28.3,17.6l0.2-0.4l-0.1,0.2l0.1-0.2c0,0-1-0.4-0.8-1.6l-0.4-0.1C27,16.8,27.8,17.5,28.3,17.6z"/>
										</g>
									</g>
									<g>
										<g>
											<path class="st3" d="M26.4,24.8c0.1,0,0.2,0,0.2-0.1c0.8-1.2,0.4-2.5-0.1-3.8c-0.3-0.8-0.6-1.6-0.7-2.5
												c-0.1-1.6,0.3-3.7,1.2-4c0.8-0.3,1.1,0.3,1.2,0.3c0.1,0.1,0.1,0.3,0,0.4c0,0.1-0.1,0.2-0.2,0.3c-0.1,0.1-0.2,0.1-0.4,0
												c-0.1,0-0.2-0.1-0.3-0.2c-0.1-0.1-0.2-0.1-0.3-0.1c-0.1,0.1-0.1,0.2-0.1,0.3c0.1,0.2,0.3,0.4,0.5,0.4
												c0.2,0.1,0.5,0,0.7-0.1c0.2-0.1,0.4-0.3,0.4-0.5c0.1-0.2,0-0.5-0.1-0.7c-0.2-0.3-0.7-0.9-1.7-0.5
												c-1.2,0.5-1.5,2.9-1.4,4.4c0.1,0.9,0.4,1.8,0.7,2.6c0.5,1.3,0.9,2.5,0.2,3.5C26.3,24.6,26.3,24.7,26.4,24.8
												C26.4,24.8,26.4,24.8,26.4,24.8z"/>
										</g>
									</g>
								</g>
								<g>
									<g>
										<circle class="st3" cx="27.3" cy="15.2" r="0.4"/>
									</g>
								</g>
							</g>
						</g>
						<g>
							<g>
								<g>
									<g>
										<g>
											<path class="st3" d="M34.7,19.5l0.1-0.4l0,0.2l0-0.2c0,0,1.1,0.2,1.5-0.9l0.4,0.1C36.3,19.5,35.2,19.6,34.7,19.5z"/>
										</g>
									</g>
									<g>
										<g>
											<path class="st3" d="M32.4,26.6c-0.1,0-0.1-0.1-0.1-0.2c0-1.4,1-2.3,2.2-3.2c0.7-0.5,1.4-1.1,1.9-1.8
												c1-1.3,1.7-3.3,1.2-4c-0.5-0.7-1.1-0.4-1.2-0.3c-0.1,0.1-0.2,0.2-0.2,0.3c0,0.1,0,0.3,0,0.4c0.1,0.1,0.2,0.2,0.3,0.2
												c0.1,0,0.3,0,0.4,0c0.1-0.1,0.2,0,0.3,0.1c0.1,0.1,0,0.2-0.1,0.3c-0.2,0.1-0.5,0.1-0.7,0.1c-0.2-0.1-0.4-0.2-0.5-0.4
												c-0.1-0.2-0.1-0.5-0.1-0.7c0.1-0.2,0.2-0.4,0.4-0.5c0.3-0.2,1.1-0.4,1.7,0.4c0.8,1-0.3,3.3-1.2,4.5
												c-0.6,0.8-1.3,1.3-2,1.9c-1.1,0.9-2.1,1.6-2,2.8C32.7,26.5,32.6,26.6,32.4,26.6C32.4,26.6,32.4,26.6,32.4,26.6z"/>
										</g>
									</g>
								</g>
								<g>
									<g>
										<circle class="st3" cx="36.8" cy="18" r="0.4"/>
									</g>
								</g>
							</g>
						</g>
						<path class="st13" d="M35,20.3c-0.8,2.7-2.4,5.1-4.6,6.9c-0.9,0.7-1.4,1.7-1.3,2.8c0,0.7,0.2,1.3,0.4,2
							c0.2,0.5,0.2,1.2,0.1,1.7l-4.6-1.4c0.2-0.6,0.5-1.1,1-1.4c0.5-0.4,1-0.9,1.4-1.4c0.6-0.9,0.8-2,0.4-3.1
							c-0.9-2.7-1-5.6-0.2-8.3l0.5-1.8c1.3,0.2,2.6,0.4,3.8,0.8c1.2,0.4,2.4,0.8,3.6,1.4L35,20.3z"/>
						<g>
							<path class="st7" d="M30.1,34.5l-1.5,5l-6.1-1.8l1.5-5c0.1-0.3,0.4-0.5,0.7-0.4l5,1.5C30.1,33.9,30.2,34.2,30.1,34.5z"/>
						</g>
						<polygon class="st6" points="21.5,38.1 22.6,37.7 28.7,39.5 29.4,40.4 						"/>
						<g>
							
								<rect x="24.7" y="33.7" transform="matrix(-0.2821 0.9594 -0.9594 -0.2821 68.2427 20.487)" class="st5" width="3.5" height="4.2"/>
						</g>
						<g>
							<circle class="st3" cx="30.8" cy="20.9" r="2.1"/>
							<g>
								<polygon class="st13" points="31.2,19.5 31.4,20.5 32.3,20.9 31.4,21.3 31.3,22.3 30.6,21.6 29.7,21.8 30.1,21 29.6,20.1 
									30.6,20.2 								"/>
							</g>
						</g>
					</g>
					<g>
						<g>
							
								<rect x="26.5" y="33.5" transform="matrix(-0.2821 0.9594 -0.9594 -0.2821 67.7595 19.1895)" class="st12" width="0.3" height="2.8"/>
						</g>
						<g>
							
								<rect x="26.3" y="34.3" transform="matrix(-0.2821 0.9594 -0.9594 -0.2821 68.2229 20.4341)" class="st12" width="0.3" height="2.8"/>
						</g>
						<g>
							
								<rect x="26.1" y="35.1" transform="matrix(-0.2821 0.9594 -0.9594 -0.2821 68.6864 21.6787)" class="st12" width="0.3" height="2.8"/>
						</g>
					</g>
					<g>
						
							<rect x="21.2" y="39.2" transform="matrix(-0.9594 -0.2821 0.2821 -0.9594 38.4644 84.7384)" class="st7" width="8.2" height="0.7"/>
					</g>
				</g>
				<g>
					<path class="st0" d="M30.6,27.6c0,0-0.1-0.3-0.2-0.4c-0.1-0.1,0-0.4-0.3-0.6c-0.3-0.2-0.6-0.1-0.8,0.3S29,27.6,29,27.6
						s0.2,0.4,0.7,0.3c0.1,0.1,0.1,0.2,0,0.3c0,0-0.1,0-0.4,0.1c-0.2,0.1-0.7,0.2-0.8,0.2s-0.7,0.2-0.7,0.5c0,0.3,0.2,0.4,0.2,0.4
						s-0.7,0-0.8,0.2c-0.2,0.2,0,0.6,0.3,0.7c0,0-0.2,0.2-0.1,0.6c0.1,0.4,1,0.4,1,0.4s-0.3,0.6,0.2,0.7c0.5,0.2,1.5,0,1.6,0
						s0.6,0.1,0.9,0s0.9-0.6,0.9-0.6l1-0.5l-0.7-2.1c0,0-0.6,0.3-0.7,0.3c-0.1,0,0-0.3-0.2-0.5S31.2,28,31,27.8
						C30.7,27.7,30.6,27.6,30.6,27.6z"/>
				</g>
				<g>
					<path class="st13" d="M31.6,28.8c0,0,0.4,2.4,0.1,3.1s-0.5,0.5-0.5,0.5s0.2,0.3,0.6,0.1s1.9-1.6,1.9-1.6S33.7,28.9,31.6,28.8z"
						/>
				</g>
				<g>
					<path class="st0" d="M33,30.7l-0.9,0.4c0-1-0.3-1.8-0.5-2.3c0.1,0,0.7-0.3,0.7-0.3L33,30.7z"/>
				</g>
				<g>
					<path class="st2" d="M29.8,28.1c0,0,0.1,0,0.3-0.1c0.2-0.1,0.3-0.2,0.4-0.4c0,0,0,0,0,0c-0.1,0.1-0.2,0.2-0.4,0.2
						c0.1-0.1,0.2-0.3,0.2-0.4c-0.1,0.3-0.3,0.4-0.6,0.5c0,0,0,0,0,0C29.8,28,29.8,28,29.8,28.1z"/>
				</g>
				<g>
					<path class="st2" d="M28,29.4c0,0,0,0,0.1,0c0.1,0,0.2,0,0.3,0c0.1,0,0.2,0,0.4,0c0.1,0,0.1,0,0.2,0c0.1,0,0.1,0,0.2-0.1
						c0.1,0,0.2,0,0.2,0c0.1,0,0.2,0,0.2,0c0.1,0,0.3,0,0.4,0c0.1,0,0.2,0,0.3,0c0.1,0,0.1,0,0.1,0s0,0-0.1,0c-0.1,0-0.2,0-0.3,0.1
						c-0.1,0-0.2,0-0.4,0.1c-0.1,0-0.3,0-0.4,0.1c-0.1,0-0.1,0-0.2,0.1c-0.1,0-0.2,0-0.2,0c-0.1,0-0.3,0-0.4,0
						C28.1,29.4,28,29.4,28,29.4z"/>
				</g>
				<g>
					<path class="st2" d="M27.4,30.2c0,0,0,0,0.1,0c0.1,0,0.2,0,0.3,0c0.1,0,0.3,0,0.5,0c0.2,0,0.4,0,0.6,0c0.2,0,0.4,0,0.6,0
						c0.2,0,0.3,0,0.5,0c0.1,0,0.3,0,0.3-0.1c0.1,0,0.1,0,0.1,0s0,0-0.1,0c0,0-0.1,0-0.1,0c-0.1,0-0.1,0-0.2,0.1
						c-0.1,0-0.3,0.1-0.5,0.1c-0.2,0-0.4,0-0.6,0c-0.2,0-0.4,0-0.6,0c-0.2,0-0.3,0-0.5,0c-0.1,0-0.3,0-0.3,0
						C27.5,30.2,27.4,30.2,27.4,30.2z"/>
				</g>
				<g>
					<path class="st2" d="M28.3,31.1C28.3,31.1,28.4,31.1,28.3,31.1c0.1,0,0.2,0,0.3,0c0.1,0,0.2,0,0.3,0c0.1,0,0.2,0,0.4,0
						c0.1,0,0.1,0,0.2,0c0.1,0,0.1,0,0.2,0c0.1,0,0.2,0,0.3-0.1c0.1,0,0.2,0,0.2,0c0.1,0,0.1,0,0.1,0s0,0-0.1,0
						c-0.1,0-0.1,0.1-0.2,0.1c-0.1,0-0.2,0.1-0.3,0.1c-0.1,0-0.1,0-0.2,0c-0.1,0-0.1,0-0.2,0c-0.3,0-0.5,0-0.7-0.1
						C28.6,31.2,28.5,31.2,28.3,31.1C28.4,31.1,28.3,31.1,28.3,31.1z"/>
				</g>
				<g>
					<path class="st1" d="M37.5,26.6h-4.7l0.1,0.2c0,0-0.2,0.2-0.2,0.5c0,0.3-0.2,0.3-0.5,0.4c-0.2,0.1-0.9,0.3-1.1,0.3
						c0,0.1,0.1,0.2,0.2,0.2c0.1,0.1,0.1,0.2,0.2,0.3c0,0.1,0.1,0.1,0.1,0.2c0.2,0.5,0.5,1.3,0.5,2.3c0,0.2,0,0.4,0,0.5
						c-0.1,2.4-0.8,2.2-0.8,2.2s0.2,0.4,1-0.5c0.8-0.9,1.5-1.6,2-1.9c0.5-0.4,0.9-0.5,1.1-0.8c0.2-0.4,0.3-0.8,0.8-1.1
						c0.5-0.3,1.1-1.3,1.3-1.8c0.2-0.5,0.3-0.8,0.2-1C37.6,26.8,37.6,26.7,37.5,26.6z"/>
				</g>
				<g>
					<path class="st8" d="M21.1,11.1c0,0,0.2,0.5,1,1.2s2.2,1.6,2.2,1.6s-0.4,0.3-0.8,1.2c-0.3,0.8-1,1.5-1,1.5s-1.1-1.8-1.6-2.5
						s-0.7-1-0.7-1S20.8,11.4,21.1,11.1z"/>
				</g>
				<g>
					<path class="st1" d="M21.1,11.1c0,0-0.5,1.4,0.4,5.2c0.9,3.8,2.9,11.2,3,13.1s0.1,2.4,0.1,2.4s-0.2-2-1.1-4.7s-4.8-11-4.8-11
						l1.4-1L19,14.6c0,0,0-1.2,0.4-1.7c0.4-0.5,0.7-0.8,0.9-1.2S21.1,11.1,21.1,11.1z"/>
				</g>
				<g>
					<path class="st0" d="M23,36.3c0,0,0.1,0.8-0.5,1s-0.6,0.1-0.9,0.2c-0.2,0.1-0.3,1.2-0.3,1.2c0,0,5,1.5,5,1.5s0.2,0.5-0.2,0.7
						l-0.6-0.1c0,0-0.8-0.2-1.2-0.1s-1.2-0.1-1.6-0.2s-0.8,0.1-1.3,0c-0.5-0.1-1.9-1.5-2.2-1.7c-0.4-0.2-1.6-0.8-1.6-0.8l1.6-1.9
						l0.9,0.1c0,0,0.7,0,1.1,0c0.4,0,0.6,0.2,0.8,0.1C22.1,36.3,23,36.3,23,36.3z"/>
				</g>
				<g>
					<path class="st5" d="M20,36.3l0.5,0c0,0-1.5,2.5-1.5,3.7l-2.6-2.4L20,36.3z"/>
				</g>
				<g>
					<path class="st1" d="M20,36.3c-0.3,0.1-1.1,0.9-1.5,1.9C18,39.1,18,40.2,18,40.2s-0.7-0.6-1.6-1.4c-0.9-0.8-2-1.9-2.8-2.8
						c-1.6-1.9-3.3-4.8-3.6-5.4c-0.3-0.6,0-1.6,0.3-2.2c0.3-0.6,0.5-2.9,1.2-4.9c0.7-2,1.6-5.2,1.6-5.6c0-0.4,0.1-0.4,0.2-0.9
						c0.2-0.5,0.1-0.4,0.2-1.2C13.8,14.9,14,15,14,15s2,5,2.2,8.2c0,0.3,0,0.5,0.1,0.9c0,0.4-0.1,1-0.1,1.3
						c-0.1,0.6-0.6,2.7-0.7,3.4s-0.8,1.3-0.8,1.3s1.1,1.3,1.3,1.9c0.2,0.4,0.5,0.7,0.8,1c0.1,0.1,0.2,0.2,0.4,0.3
						c0.5,0.3,0.4,0.6,0.8,1.3c0.4,0.7,0.4,0.1,0.8,0.6C19.2,35.6,20,36.3,20,36.3z"/>
				</g>
			</g>
			<g>
				<path class="st1" d="M20.1,6.8h0.2c0-0.2-0.2-1.6-0.1-1.9c0.1-0.3,0.4-1.2,0.3-2.1c0-0.9,1.6-1.1,1.6-1.1l3.4,0.1
					c1.3,0.3,1,1.3,1.1,1.8s0.3,1.1,0.4,1.8c0.1,0.5,0,1,0,1.3H27c0.1-0.6,0.3-1.7,0.3-2.1C27.3,4,27-0.3,23.2,0
					c-3.8,0.3-3.4,4-3.4,5C19.8,5.9,20,6.6,20.1,6.8z"/>
			</g>
		</g>
	</g>
</g>
</svg>
