<?xml version="1.0" encoding="utf-8"?>
<!-- Generator: Adobe Illustrator 18.0.0, SVG Export Plug-In . SVG Version: 6.00 Build 0)  -->
<!DOCTYPE svg PUBLIC "-//W3C//DTD SVG 1.1//EN" "http://www.w3.org/Graphics/SVG/1.1/DTD/svg11.dtd">
<svg version="1.1" id="Layer_1" xmlns="http://www.w3.org/2000/svg" xmlns:xlink="http://www.w3.org/1999/xlink" x="0px" y="0px"
	 viewBox="0 0 48 48" enable-background="new 0 0 48 48" xml:space="preserve">
<g>
	<g>
		<path fill="#F3F3F3" d="M48,11.5V45c0,1.7-1.3,3-3,3H3c-1.7,0-3-1.3-3-3V11.5H48z"/>
		<path fill="#F3705A" d="M48,11.5V3c0-1.7-1.3-3-3-3H3C1.3,0,0,1.3,0,3v8.5H48z"/>
		<circle fill="#FFFFFF" cx="7.1" cy="5.7" r="2.4"/>
		<circle fill="#FFFFFF" cx="13.8" cy="5.7" r="2.4"/>
		<circle fill="#FFFFFF" cx="20.6" cy="5.7" r="2.4"/>
		<g>
			<path fill="#415A6B" d="M24.3,39h1.5V19.1c0-0.4-0.3-0.8-0.8-0.8h-7v1.5h6.2V39z"/>
		</g>
		<g>
			<g>
				<g>
					<rect x="25.3" y="21.3" fill="#415A6B" width="6.1" height="1.5"/>
				</g>
			</g>
			<g>
				<rect x="25.3" y="29.8" fill="#415A6B" width="6.1" height="1.5"/>
			</g>
		</g>
		<g>
			<path fill="#8AD7F8" d="M17.5,22.5H5.7c-0.6,0-1-0.4-1-1v-4.8c0-0.6,0.4-1,1-1h11.9c0.6,0,1,0.4,1,1v4.8
				C18.5,22,18.1,22.5,17.5,22.5z"/>
		</g>
		<g>
			<g>
				<rect x="18.1" y="27" fill="#415A6B" width="6.6" height="1.5"/>
			</g>
		</g>
		<g>
			<g>
				<path fill="#FFD15C" d="M18.9,30.4H9.7c-0.4,0-0.8-0.3-0.8-0.8v-3.7c0-0.4,0.3-0.8,0.8-0.8h9.2c0.4,0,0.8,0.3,0.8,0.8v3.7
					C19.7,30,19.3,30.4,18.9,30.4z"/>
			</g>
		</g>
		<g>
			<path fill="#8AD7F8" d="M39.7,43.8H18.5c-0.4,0-0.8-0.3-0.8-0.8v-3.7c0-0.4,0.3-0.8,0.8-0.8h21.2c0.4,0,0.8,0.3,0.8,0.8V43
				C40.4,43.4,40.1,43.8,39.7,43.8z"/>
		</g>
		<g>
			<path fill="#F3705A" d="M42.4,33.9H30.5c-0.5,0-1-0.4-1-1v-4.8c0-0.5,0.4-1,1-1h11.8c0.5,0,1,0.4,1,1v4.8
				C43.3,33.5,42.9,33.9,42.4,33.9z"/>
		</g>
		<g>
			<path fill="#8AD7F8" d="M39.5,24.7h-9.2c-0.4,0-0.8-0.3-0.8-0.8v-3.7c0-0.4,0.3-0.8,0.8-0.8h9.2c0.4,0,0.8,0.3,0.8,0.8v3.7
				C40.3,24.4,39.9,24.7,39.5,24.7z"/>
		</g>
	</g>
</g>
</svg>
