<?xml version="1.0" encoding="utf-8"?>
<!-- Generator: Adobe Illustrator 19.0.1, SVG Export Plug-In . SVG Version: 6.00 Build 0)  -->
<svg version="1.1" id="Layer_1" xmlns="http://www.w3.org/2000/svg" xmlns:xlink="http://www.w3.org/1999/xlink" x="0px" y="0px"
	 viewBox="0 0 48 48" style="enable-background:new 0 0 48 48;" xml:space="preserve">
<style type="text/css">
	.st0{fill:#FFD15C;}
	.st1{fill:#415A6B;}
	.st2{fill:#F7B64C;}
	.st3{fill:#CED6E0;}
	.st4{fill:#344A5E;}
	.st5{fill:#F3F3F3;}
	.st6{fill:#F05540;}
	.st7{fill:#F3705A;}
	.st8{fill:#66C6B9;}
	.st9{fill:#55C0EB;}
	.st10{fill:#F5F6FB;}
	.st11{fill:#4ABAA5;}
	.st12{fill:#ADB3BA;}
	.st13{fill:#E8EAE9;}
	.st14{fill:#2E4556;}
	.st15{fill:#8AD7F8;}
	.st16{fill:#FFFFFF;}
	.st17{fill:#E54838;}
	.st18{fill:#3EAF99;}
	.st19{fill:#EFA943;}
	.st20{fill:#4CAEE5;}
	.st21{fill:#293F4F;}
	.st22{fill:#2D4456;}
	.st23{fill:#2E4454;}
	.st24{fill:#2A3F4F;}
	.st25{fill:#2D4151;}
	.st26{fill:#E89E3D;}
	.st27{fill:#2B4151;}
	.st28{fill:#2A4051;}
	.st29{fill:#2C4151;}
	.st30{fill:#EBEAE8;}
	.st31{fill:#3AA590;}
	.st32{fill:#E84534;}
	.st33{fill:none;}
</style>
<g>
	<g>
		<g>
			<path class="st28" d="M25.2,45.5H23c0,0.2-0.1,0.4-0.1,0.5c-0.1,0.4-0.1,0.8,0.1,1.2c0.2,0.4,0.5,0.6,1.1,0.7
				c0.6,0.1,1.6-0.2,1.4-1.3C25.4,46,25.2,45.8,25.2,45.5z"/>
		</g>
		<g>
			<path class="st1" d="M23.1,44.1c0,0,0,1.3-0.1,1.7c-0.1,0.4-0.1,0.8,0.1,1.1c0.2,0.4,0.5,0.6,1.1,0.7c0.6,0.1,1.5,0,1.3-1.1
				c-0.2-1.1-0.4-1.3-0.3-1.9c0.1-0.6,0-1-0.2-1.2C24.8,43.2,23.1,44.1,23.1,44.1z"/>
		</g>
		<g>
			<path class="st1" d="M27.9,30.6l0.1,0.4c0,0,0.6,0.8,0.1,1.3c-0.5,0.6-1.1-0.1-1.4-0.4c-0.4-0.3-1-1.6-1-2c0-0.4-0.8-1.6-1.1-1.9
				c-0.3-0.3,0-0.9,0.4-1.2c0.3-0.3,1.3,0.1,1.4,0.5C26.6,27.8,27.9,30.6,27.9,30.6z"/>
		</g>
		<g>
			<path class="st28" d="M30.5,22.4c0,0,0.4,1,0.8,2.2c0.4,1.2,0.9,3.7,1,4.1c0.1,0.4,0.1,1.7-0.6,2c-0.6,0.3-2.7-0.4-2.7-0.4
				L28.1,31c0,0-2.1-0.4-2.3-1.5c-0.1-1.1,0-2.4,0-2.4l1.9,0.4l-1.2-1.3c0,0-0.7,0.2-0.9,0.1c0,0-0.9,3.3-0.8,5.1
				c0.1,1.8-0.3,5.2-0.2,6.8s0.1,2.8,0.3,3.7s0.3,1.5,0.3,1.5s-0.2,1.4-0.9,1.4c-0.7-0.1-1.1-0.6-1.1-0.6s-0.1-1.2-0.6-2.2
				c-0.5-1-1.1-3.5-1.2-4.9s-0.3-3.4-0.3-4.2c0-0.9-0.8-5.7-0.9-7.2c-0.1-1.6,0-6,0-6l10.2-1L30.5,22.4z"/>
		</g>
		<g>
			<g>
				<path class="st0" d="M33.6,15.5c0,0,0.5,1.1,0.9,1.3s-0.4,1-0.4,1s-0.2,0.3,0.5,0.5c0.7,0.2,1.3-0.1,1.4-0.5
					c0.1-0.4,0.5-0.5-0.1-1.1c-0.6-0.6-1.5-2.4-1.5-2.4L33.6,15.5z"/>
			</g>
			<g>
				<path class="st5" d="M34.8,14.7l0.3,0.5c-0.3,0.5-0.7,0.8-1.3,0.9l-0.4-0.5L34.8,14.7z"/>
			</g>
		</g>
		<g>
			<g>
				<g>
					<ellipse transform="matrix(0.9746 0.2239 -0.2239 0.9746 1.7074 -5.7924)" class="st0" cx="26.4" cy="4.6" rx="0.4" ry="0.9"/>
				</g>
				<g>
					
						<ellipse transform="matrix(-0.9746 0.2239 -0.2239 -0.9746 44.2443 3.6537)" class="st0" cx="21.9" cy="4.3" rx="0.4" ry="0.9"/>
				</g>
			</g>
			<g>
				<path class="st0" d="M26.4,3.4l-0.1,0.8c0,0-0.2,1.5-0.6,2.1l-0.1,3.8l-3.6,0.4L21.9,8l0.2-2.6c0,0-0.3-0.9-0.2-2
					c0.2-1.1,0.5-2.6,1.1-2.8s2.3,0.1,2.8,0.4C26.4,1.2,26.6,2.8,26.4,3.4z"/>
			</g>
			<g>
				<path class="st1" d="M21.9,4l0.2,0c0,0-0.1-0.4,0.1-1s0.3-0.7,0.4-1.1c0.1-0.4,0.3-0.6,0.5-0.6c0.2,0,1.9,0.2,2.3,0.1
					c0.4-0.1,0.6,0.1,0.7,0.8s0,0.7,0.1,1.1c0.1,0.3,0,1,0,1l0.1,0c0,0,0.4-0.9,0.4-1.9c0-1-0.4-1.8-1.3-2.1s-2.2-0.3-2.9,0
					c-0.8,0.3-0.9,1.6-0.9,2.4S21.9,4,21.9,4z"/>
			</g>
			<path class="st2" d="M23.8,7.6c-1-0.2-1.7-1.6-1.7-1.6l-0.1,2L22,9.4c0.2,0,0.5-0.1,0.8-0.2c2.4-0.5,3-2.9,3-2.9
				C25.6,6.9,24.9,7.8,23.8,7.6z"/>
			<g>
				<path class="st3" d="M24.7,8.5l0.4-0.2l1.5-1.1c0,0,2.9,3.2,3.2,5.8c0.3,2.7,0,5.8,0,5.8s-0.8,2.8-3.4,3.3
					c-2.6,0.5-5.3-0.6-5.3-0.6l0.4-13.7L24.7,8.5z"/>
			</g>
			<g>
				<path class="st9" d="M24.9,8.9l0.5,0.7c0,0,0.6,2.2,0.7,3c0.1,0.8,0.1,10.9,0.1,10.9l-1,1.3l-1.1-1.1c0,0,0.5-6.3,0.4-7.2
					c-0.1-0.9,0.3-6.8,0.3-6.8L24.9,8.9z"/>
			</g>
			<g>
				<g>
					<path class="st9" d="M25.4,9.6c-0.2,0-0.3,0-0.5,0c0,0-0.2-0.8-0.6-0.9l0.2-0.1c0,0,0.3,0.1,0.5,0c0.2-0.1,0.6-0.3,0.6-0.3
						S25.4,9.3,25.4,9.6z"/>
				</g>
			</g>
		</g>
		<g>
			<path class="st5" d="M25.8,7.1c0,0-0.3,0.9-0.7,1.2l1.1,1l0.3-2.3L25.8,7.1z"/>
		</g>
		<g>
			<path class="st5" d="M22,6.6c0,0,0.7,1.5,2.7,1.9l-1,1.4l-2.5-2.2L22,6.6z"/>
		</g>
		<g>
			<path class="st4" d="M23.3,15.8l0.1,2.8c0,0-1.4,4.7-2.8,6.8s-1.9,1.5-2.4,1.1c-0.5-0.4-1.2-1.2-1.2-1.2s1-5.9,1.3-7.4
				s0.4-4.2,0.4-4.2s-0.6,0.3-1.4,0.7c-0.8,0.4-2.4,0.6-3.3,0.2s-0.5-2-0.3-2.5c0.2-0.5,1.2-1.8,1.5-2.2s2.7-1.7,3.4-1.9
				c0.7-0.2,2.1-0.8,2.1-0.8L22.1,9C22.1,9,23.5,14,23.3,15.8z"/>
		</g>
		<g>
			<path class="st4" d="M26.1,6.1c0,0,0.4-0.2,1-0.3c0.5-0.1,1.1,0.1,1.5,0.4c0.4,0.3,0.7,2.1,1.1,2.4c0.4,0.3,2,2,2.2,2.3
				c0.2,0.3,1.5,1.5,1.8,2c0.4,0.5,1.2,1.6,1.2,1.6s0.2,1.1-1.5,1.4c0,0-1.3-1-1.9-1.7c-0.6-0.7-1.6-1.5-1.6-1.5s0.6,3.7,0.6,5
				c0,1.3-0.3,2.8,0,3.6c0.3,0.9,0,1,0,1s-0.8-2.4-0.9-3.7c-0.1-1.3-0.1-5-0.3-6.5S26.1,6.1,26.1,6.1z"/>
		</g>
		<g>
			<path class="st1" d="M26,6l-0.2,0.4l0,0.8c0,0,2.2,2.5,2.9,4.2c0.7,1.7,1,7.3,1,7.3s0.2-2.9,0.2-4.7s-0.5-3.7-1-5
				s-0.7-1.7-0.7-1.7l-0.7,0.1l0.4-0.6L26,6z"/>
		</g>
		<g>
			<path class="st1" d="M22.1,6.1c0,0.3,0,0.6,0.1,0.8c0.1,0.7,0.5,2.2,0.8,2.9c0.5,1,0.7,4.1,0.7,5.4c0,1.4-0.2,3.4-0.2,3.4
				s-0.2-2.9-0.4-4.7s-0.5-2.1-1.2-3.2s-1-1.5-1-1.5L21.3,9l-0.6-0.4c0,0-0.1-1.1,0-1.4C20.8,6.9,22,6.1,22.1,6.1L22.1,6.1z"/>
		</g>
		<g>
			<path class="st0" d="M15.4,11.1L15.1,10c0,0,0.9-0.8,1.2-1.3s0.3-1.1,0.4-1.4s0-1,0.2-1.2c0,0-0.1-0.1,0.2-0.6
				c0.2-0.5,0.5-0.7,0.5-0.7L18,4c0.1-0.3,0.5-0.1,0.4,0.1c0,0-0.2,0.3-0.3,0.5c-0.1,0.2,0.3,0.2,0.3,0.3c-0.1,0.1-0.2,0.2-0.3,0.3
				c-0.1,0.1,0.1,0.2,0.1,0.2s0.1,0.4-0.1,0.4c0,0,0.1,1.2,0.1,1.5h0.1c0,0,0.4-0.9,0.6-1.1s0.4-0.1,0.6,0c0.1,0.1,0.1,0.3-0.1,0.6
				c-0.2,0.3-0.7,0.8-0.7,1c0,0.2,0,0.4-0.2,0.8c-0.2,0.4-0.9,1.1-0.9,1.1L17.6,10c0,0-0.1,0.7-0.5,1C16.8,11.2,15.4,11.1,15.4,11.1
				z"/>
		</g>
		<path class="st5" d="M15.1,10c0,0-0.1,1.9,0.2,2.3c0.3,0.4,2-1.3,2.1-1.7s0.1-0.5,0.1-0.5s-0.1,0.5-0.5,0.7S15.5,10.7,15.1,10z"/>
	</g>
	<g>
		<path class="st7" d="M48,24.5c0-0.1-3.7,0.2-6.5-0.5c-2.8-1-11.3-2.3-12.8-2.4c-1.5-0.3-5.5-0.2-7.7,0.3c-2.3,0.4-6.4,1.6-8.6,2.3
			C10.2,24.8,8,25.4,8,25.4c0,0-3.7,1.1-5.4,1.3C0.9,26.9,0,26.6,0,26.6c0,0,3.5-1,5.5-2.2c2-1.4,6.8-2.3,10.1-2.6
			c3.4-0.3,5.5-0.6,6.4-1c0.9-0.4,6.4-0.3,11.2-0.1c2.4,0.1,6.2,0.8,9.3,1.8C45.6,23.4,48,24.5,48,24.5z"/>
	</g>
</g>
</svg>
