<?xml version="1.0" encoding="utf-8"?>
<!-- Generator: Adobe Illustrator 18.0.0, SVG Export Plug-In . SVG Version: 6.00 Build 0)  -->
<!DOCTYPE svg PUBLIC "-//W3C//DTD SVG 1.1//EN" "http://www.w3.org/Graphics/SVG/1.1/DTD/svg11.dtd">
<svg version="1.1" id="Layer_1" xmlns="http://www.w3.org/2000/svg" xmlns:xlink="http://www.w3.org/1999/xlink" x="0px" y="0px"
	 viewBox="0 0 48 48" enable-background="new 0 0 48 48" xml:space="preserve">
<g>
	<g>
		<g>
			<path fill="#FFD15C" d="M18.7,15l-0.1,1.1c0,0-0.4-0.2-0.6-0.5c-0.2-0.3-0.9-1.5-0.9-1.5L17,13.5l-0.2-1.4l-0.5-0.5
				c0,0-0.2-0.2-0.4,0.1l-0.3,0.1c0,0-0.1,0.1,0,0.2c0,0-0.5-0.2-0.6,0.1c-0.1,0.3,0,0.3,0,0.3s-0.3,0.2-0.3,0.4
				c0,0.2,0.1,0.2,0,0.3c0,0.1,0,0.2,0.1,0.3c0,0.1-0.1,0.3,0,0.4c0.1,0.1,0.5,0.5,0.7,0.6c0.1,0.1,0.6,0.5,0.7,0.6
				c0.1,0.2,1.1,2.1,1.3,2.4c0.2,0.3,1.3,1.8,1.6,1.9c0.3,0.1,0.8,0,0.9-0.3c0.1-0.3,0.6-2.4,0.6-2.4s1.2-1,0.1-1.7
				C19.5,14.4,18.7,15,18.7,15z"/>
		</g>
	</g>
	<g>
		<g>
			<path fill="#425A6B" d="M31.4,31.9c0,0.1-0.1,0.2-0.2,0.2c-0.1,0-0.2-0.1-0.2-0.2v-0.6h0.5L31.4,31.9
				C31.4,31.9,31.4,31.9,31.4,31.9z"/>
		</g>
	</g>
	<g>
		<g>
			<path fill="#E8EAE8" d="M32.1,32C32.1,32,32,32,32.1,32c-0.2-3.8-0.6-5.1-0.6-5.1c0,0,0-0.1,0-0.1c0,0,0.1,0,0.1,0
				C31.7,26.9,32.1,28.2,32.1,32C32.2,32,32.1,32,32.1,32C32.1,32,32.1,32,32.1,32z"/>
		</g>
	</g>
	<g>
		<g>
			<path fill="#FFD15C" d="M29.9,14.2c0,0,0.1,2.1,0.3,2.5c0.2,0.4,0.5,1.4,0.5,1.8c0,0.4,0.6,4.3,0.6,4.8s0.2,0.8,0.2,1.1
				c0,0,0.8,1.6,1,1.8c0.2,0.2-0.1,0.3-0.1,0.5c-0.1,0.2-0.4,0.8-0.4,0.8s-0.1,0.2-0.3,0c-0.2-0.1-0.4-0.3-0.4-0.3s0.2,0.6-0.2,0.6
				l-0.1-0.3c0,0-0.2-0.2-0.3-0.5c0-0.2-0.1-0.7-0.1-0.9c0-0.2,0.1-1.3,0-1.5c0-0.2-0.4-1.4-0.5-1.9s-1.5-3.9-1.5-3.9
				s-0.2-0.6-0.2-1.8c0-1.2-0.9-3.7-0.9-3.7L29.9,14.2z"/>
		</g>
	</g>
	<g>
		<path fill="#F5B54C" d="M31.8,26.8c0-0.1,0-0.2,0-0.3c0-0.1-0.1-0.2-0.2-0.2c-0.1-0.1-0.2-0.1-0.3,0c-0.1,0-0.1,0.1-0.1,0.1
			c0,0.1,0,0.1,0,0.2c0,0.2,0,0.4,0.1,0.6c0,0,0,0,0,0c-0.1-0.2-0.1-0.4-0.1-0.6c0,0,0-0.1,0-0.1c0,0,0.1-0.1,0.1-0.1
			c0.1,0,0.1,0.1,0.2,0.1c0.1,0.1,0.1,0.3,0,0.4c0.1,0,0.1,0.1,0.2,0.1C31.6,27,31.7,26.9,31.8,26.8z"/>
	</g>
	<g>
		<g>
			<circle fill="#425A6B" cx="31.6" cy="26.8" r="0.3"/>
		</g>
	</g>
	<g>
		<g>
			<circle fill="#344A5E" cx="31.6" cy="26.9" r="0.1"/>
		</g>
	</g>
	<g>
		<g>
			<path fill="#F26F5A" d="M23,46.5l0-0.5c0,0,0.1-0.9-0.2-1.1c-0.3-0.2-2.3,0.3-2.3,0.3s-0.2,0.5-0.5,0.7c-0.3,0.2-1.2,0.6-1.2,0.8
				c0,0.3,0,0.4,0,0.4s2.1,0.3,2.7-0.2C22.1,46.5,23,46.5,23,46.5z"/>
		</g>
	</g>
	<g>
		<g>
			<path fill="#E8EAE8" d="M18.7,46.7c0,0,0.5,0.2,1.2,0.3c0.7,0,1.1-0.1,1.5-0.3C21.8,46.4,23,46,23,46s0.3,0.6,0,0.7
				c-0.3,0.1-0.8,0.1-1.1,0.3c-0.3,0.2-0.9,0.7-1.8,0.6c-0.7-0.1-1.1-0.1-1.4-0.3c-0.1-0.1-0.2-0.2-0.2-0.3
				C18.6,47,18.6,46.8,18.7,46.7z"/>
		</g>
	</g>
	<g>
		<g>
			<path fill="#F26F5A" d="M29.1,47.6l0.4-0.7c0,0,0.1-0.3-0.4-0.5c-0.4-0.2-1.1-0.9-1.3-1.4c-0.2-0.4-0.2-0.4-0.2-0.4l-1.8,1.7
				l0.5,0.4C26.2,46.7,28.4,47.6,29.1,47.6z"/>
		</g>
	</g>
	<g>
		<g>
			<path fill="#E8EAE8" d="M26,46.5c0,0,0.3-0.1,0.6,0.2c0.3,0.3,1.2,0.6,1.8,0.5c0.6-0.1,1-0.2,1-0.2s0.2,0.5,0,0.8
				c-0.2,0.3-1.6,0.4-2.1,0.2c-0.4-0.2-0.5-0.4-0.7-0.6c-0.2-0.2-0.9-0.4-0.9-0.4L26,46.5z"/>
		</g>
	</g>
	<g>
		<path fill="#E8EAE8" d="M26.2,46.9l-0.4,0c0,0-0.4-0.1-0.2-0.8c0.2-0.6,0.4-0.5,0.4-0.5s-0.1,0.6,0,0.8c0.1,0.2,0.2,0.2,0.2,0.2"
			/>
	</g>
	<g>
		<g>
			<path fill="#425A6B" d="M28.7,27.8c0,0,0.3,0.9,0.2,2.5c-0.1,1.7-0.4,7.3-0.5,8.4c-0.1,1.1-0.6,3-0.4,3.9c0.2,1,0,2.4,0,2.4
				s-1.7,0.8-1.8,1.4c-0.1,0.4-0.2,0.4-0.2,0.4s-0.6-1-0.6-2.1c0-1.2-0.5-1.5-0.4-4.1c0.1-2.5-0.5-8.6-0.6-9.3c0-0.7,0-1.7,0-1.7
				S24,33.2,23.8,34c-0.1,0.8,0,1.5,0,2.5c0,1.1-0.7,5-0.6,5.7c0.1,0.7-0.3,1.1-0.2,1.6c0.2,0.6-0.1,2.6-0.4,2.5c0,0-1.1-0.8-1.7-1
				c-0.5-0.2-0.5-0.2-0.5-0.2s0.1-1.9,0.1-3c0-1.1,0.1-4.8,0-5.2c-0.1-0.4-1.1-2.9-1.1-5.3c0-2.4,0-4.3,0-4.3L28.7,27.8z"/>
		</g>
	</g>
	<g>
		<g>
			<path fill="#425A6B" d="M26.5,7.9c0,0,0.8,0.1,1.4,0.3c0.6,0.1,1.5,0.7,1.5,0.7s0.5,1.4,0.7,2.3c0.2,0.9,0.7,3.1,0.7,3.1
				s-2.4,0.4-2.8,0.4l0.2,3.4c0,0-4.6,1.6-8,0.1c0,0,0.2-0.8,0.4-1.2c0.2-0.4-0.1-1.1,0-1.6l-2.4-0.2c0,0,0.4-2,0.4-2.9
				c0-0.9,0.1-2.4,0.5-2.8c0.4-0.4,2.1-1.2,2.6-1.3c0,0,2.3,2.4,2.4,2.9l0.9-1.8L26.5,7.9z"/>
		</g>
	</g>
	<g>
		<g>
			<path fill="#FFD15C" d="M22,3.9c0.1,0.4,0.2,0.7,0.4,0.7c0.1,0,0.2-0.3,0.1-0.7c-0.1-0.4-0.2-0.7-0.4-0.7C22,3.2,22,3.5,22,3.9z"
				/>
		</g>
	</g>
	<g>
		<g>
			<path fill="#FFD15C" d="M22.3,3.6c0,0,0,1.5,0.5,2.2c0,0,0.1,0.9,0,1.1c-0.1,0.2-0.2,0.3-0.3,0.7c-0.1,0.3,1.4,3.5,1.4,3.5
				l0.5-0.9l1-3.2c0,0-0.1-1.1-0.1-1.2c0,0,0.3-0.5,0.4-1.2C26,3.9,26,3.2,26,3.2s0.3-1.8-0.8-2.1c-1.1-0.4-2.6,0.1-2.6,0.1
				S22.1,2.5,22.3,3.6z"/>
		</g>
	</g>
	<g>
		<g>
			<path fill="#425A6B" d="M22.2,3.8l0.2-0.1c0,0-0.2-0.7,0-0.9c0.2-0.2,0.2-0.7,0.5-1c0.2-0.3,0.6-0.7,1.4-0.6s1.5,0.8,1.5,1
				c0.1,0.2,0.1,1.5,0.1,1.5l0.5-0.1c0,0,0.2-1.5-0.1-2.3S24.8,0,24.1,0c-1.4,0-1.8,1.2-1.9,1.8C22,2.5,22.2,3.8,22.2,3.8z"/>
		</g>
	</g>
	<g>
		<g>
			<path fill="#FFD15C" d="M26.3,3.9c0,0.4-0.2,0.7-0.3,0.7c-0.1,0-0.2-0.3-0.1-0.7c0-0.4,0.2-0.7,0.3-0.7
				C26.3,3.2,26.4,3.5,26.3,3.9z"/>
		</g>
	</g>
	<g>
		<path fill="#F5B54C" d="M22.9,5.8c0,0,0.1,0.9,0,1.1c-0.1,0.2-0.2,0.3-0.3,0.7c0,0.1,0.1,0.5,0.3,1.1c1.2-0.2,1.7-1,1.5-1
			c-0.2,0-1.8-0.4-0.7-0.6c1.1-0.2,1.8-1.3,1.8-1.3s-0.7,0.7-1.3,0.8C23.5,6.6,22.9,5.8,22.9,5.8z"/>
	</g>
	<g>
		<g>
			<path fill="#344A5E" d="M25.5,6.6c0,0-0.1,0.4-0.2,0.7c-0.1,0.3-1.4,3.1-1.3,4c0,0,0.1-0.4,0.6-0.7c0.4-0.3,0.5-0.5,1-0.6
				c0.5-0.1,1.3-0.4,1.3-0.4s0.1-1.1-0.2-1.5C26.5,7.7,25.6,7.1,25.5,6.6z"/>
		</g>
	</g>
	<g>
		<g>
			<path fill="#344A5E" d="M22.9,6.7c0,0,0,0.4,0.1,0.7c0.1,0.3,1.1,3.1,1,3.9c0,0-0.1-0.4-0.5-0.7c-0.4-0.3-0.5-0.5-1-0.6
				c-0.5-0.1-1.4-0.1-1.4-0.1s0.1-1.5,0.4-1.8C21.8,7.7,22.7,7.1,22.9,6.7z"/>
		</g>
	</g>
	<g>
		<g>
			<path fill="#E8EAE8" d="M20.2,17.9c0,0,4.9,1.3,7.9,0c0,0,1.1,6.5,1.3,7.4c0.2,0.9,0.3,3-1,3.6c-1.2,0.5-6.5,0.6-7.8,0.1
				c-1.3-0.5-2.2-1.6-2-3.5C19,23.5,20.2,17.9,20.2,17.9z"/>
		</g>
	</g>
	<g>
		<g>
			<path fill="#67C5B8" d="M35,32.9l0,5.1c0,0.9-6.3,0.9-6.3,0l-0.5-5.1H35z"/>
		</g>
	</g>
	<g>
		<g>
			<polygon fill="#48B9A5" points="35.7,31.4 35,32.9 28.2,32.9 28,31.5 			"/>
		</g>
	</g>
	<g>
		<g>
			<path fill="#67C5B8" d="M31.4,31.9c0,0.1-0.1,0.2-0.2,0.2c-0.1,0-0.2-0.1-0.2-0.2v-0.6h0.5L31.4,31.9
				C31.4,31.9,31.4,31.9,31.4,31.9z"/>
		</g>
	</g>
	<g>
		<g>
			<path fill="#67C5B8" d="M27.8,31.4L27.8,31.4c0,0.1,0.1,0.1,0.1,0.1h7.8c0.1,0,0.1-0.1,0.1-0.1l0,0c0-0.1-0.1-0.1-0.1-0.1h-7.8
				C27.9,31.3,27.8,31.3,27.8,31.4z"/>
		</g>
	</g>
	<g>
		<g>
			<path fill="#E8EAE8" d="M31.1,32C31.1,32,31.1,32,31.1,32c-0.2-1.2,0.4-5,0.4-5.1c0,0,0-0.1,0.1-0.1c0,0,0.1,0,0.1,0.1
				C31.6,26.9,31.1,30.8,31.1,32C31.2,32,31.2,32,31.1,32C31.1,32,31.1,32,31.1,32z"/>
		</g>
	</g>
	<g>
		<path fill="#F5B54C" d="M19.8,17.5c0.3,0.6,0.3,0.6,0.3,0.6s-0.2-1.5-1.4-2.4l0,0.4C18.6,16.2,19.5,16.9,19.8,17.5z"/>
	</g>
	<g>
		<g>
			
				<rect x="0.7" y="22.3" transform="matrix(5.270532e-003 1 -1 5.270532e-003 38.3985 6.5168)" fill="#425A6B" width="30.5" height="0.5"/>
		</g>
	</g>
	<g>
		<g>
			<g>
				<path fill="#F26F5A" d="M16.4,36.7h-0.7c0,1,0,1.8,0,2.6c0,0.2,0.2,0.4,0.4,0.4h0c0.2,0,0.4-0.2,0.4-0.4
					C16.3,38.5,16.3,37.7,16.4,36.7z M16,39.4c-0.1,0-0.2-0.1-0.2-0.2c0-0.4,0-0.7,0-1.2h0.4c0,0.4,0,0.8,0,1.2
					C16.2,39.4,16.1,39.4,16,39.4z"/>
			</g>
		</g>
	</g>
	<g>
		<g>
			<g>
				<g>
					<path fill="#FFD15C" d="M16.3,13.6c0.1,0,0.1,0.5-0.1,0.5c0,0-0.5-0.1-0.7,0.1l-0.2,0.2c-0.2-0.1-0.4-0.4-0.5-0.4
						c-0.1-0.1,0-0.4,0-0.4c0-0.1-0.1-0.2-0.1-0.3c0-0.1,0-0.1,0-0.3c0-0.2,0.3-0.4,0.3-0.4s-0.1,0,0-0.3c0.1-0.3,0.6-0.1,0.6-0.1
						s0.2,0.1,0.4,0.1c0.1,0,0.1,0.1,0.2,0.1c0.2,0.2,0.1,0.4,0,0.4c0.2,0,0.2,0.5,0.1,0.5C16.5,13.2,16.5,13.6,16.3,13.6z"/>
				</g>
			</g>
			<g>
				<g>
					<g>
						<path fill="#F5B54C" d="M16.3,13.6c-0.1,0-0.1,0-0.2,0c-0.1,0-0.1,0-0.2,0l0,0c-0.1,0-0.1,0-0.2,0c-0.1,0-0.1,0-0.2,0
							c0.1,0,0.1,0,0.2,0c0.1,0,0.1,0,0.2,0l0,0l0,0c0.1,0,0.1,0,0.2,0C16.2,13.6,16.3,13.6,16.3,13.6z"/>
					</g>
				</g>
				<g>
					<g>
						<path fill="#F5B54C" d="M16.4,13.2c-0.2,0-0.4,0-0.6-0.1l0,0c-0.2,0-0.4,0-0.6,0c0.2,0,0.4,0,0.6,0h0l0,0
							C16,13.1,16.2,13.1,16.4,13.2z"/>
					</g>
				</g>
				<g>
					<g>
						<path fill="#F5B54C" d="M16.3,12.7c-0.1,0-0.2,0-0.3,0c-0.1,0-0.2,0-0.3-0.1l0,0c-0.2,0-0.3,0-0.5,0c0.2,0,0.3,0,0.5,0h0l0,0
							c0.1,0,0.2,0,0.3,0.1C16.1,12.6,16.2,12.6,16.3,12.7z"/>
					</g>
				</g>
			</g>
		</g>
		<g>
			<g>
				<path fill="#F5B54C" d="M16.5,13.3C16.5,13.3,16.5,13.3,16.5,13.3c0,0.1,0,0.1,0,0.1c0,0,0,0,0,0.1c0,0,0,0,0,0.1c0,0,0,0,0,0
					c0,0,0,0,0,0c0,0,0,0,0,0c0,0,0,0,0,0c0,0,0,0.1,0,0.1c0,0.1,0,0.1,0,0.2c0,0.1,0,0.1-0.1,0.2c0,0,0,0-0.1,0.1c0,0,0,0,0,0
					c0,0,0,0,0,0l0,0l0,0l0,0c-0.1,0-0.2,0-0.3,0c-0.1,0-0.1,0-0.2,0c0,0,0,0-0.1,0c0,0,0,0,0,0l0,0l0,0c0,0,0,0,0,0c0,0,0,0,0.1,0
					c0.1,0,0.1,0,0.2,0c0.1,0,0.2,0,0.3,0l0,0l0,0l0,0h0c0,0,0,0,0,0c0,0,0,0,0,0c0,0,0-0.1,0-0.1c0,0,0-0.1,0-0.1c0,0,0,0,0-0.1
					c0,0,0,0,0,0l-0.2,0l0.2,0c0,0,0,0,0,0c0,0,0,0,0,0c0,0,0,0,0,0c0,0,0,0,0,0c0,0,0,0,0-0.1c0,0,0,0,0-0.1
					C16.4,13.4,16.4,13.4,16.5,13.3C16.4,13.3,16.4,13.3,16.5,13.3C16.4,13.3,16.4,13.3,16.5,13.3C16.4,13.3,16.4,13.2,16.5,13.3
					c-0.1,0-0.1,0-0.1,0c0,0,0,0,0,0L16,13.1l0.3,0c0,0,0,0,0,0c0,0,0,0,0-0.1c0,0,0-0.1,0-0.1c0,0,0-0.1,0-0.1c0,0,0,0,0-0.1
					c0,0,0,0,0,0l-0.2-0.1h0.2c0,0,0,0,0,0c0,0,0,0,0-0.1c0,0,0-0.1,0-0.1c0,0,0,0,0-0.1c0,0,0,0,0-0.1c0,0-0.1-0.1-0.1-0.1
					c0,0-0.1,0-0.1-0.1c0,0-0.1,0-0.1,0c-0.1,0-0.2-0.1-0.3-0.1c0.1,0,0.2,0.1,0.3,0.1c0,0,0.1,0,0.1,0c0,0,0.1,0,0.1,0.1
					c0,0,0.1,0.1,0.1,0.1c0,0,0,0,0,0.1c0,0,0,0,0,0.1c0,0,0,0.1,0,0.2c0,0,0,0.1,0,0.1c0,0,0,0,0,0c0,0,0,0,0,0c0,0,0,0-0.1,0
					l0,0.1c0,0,0,0,0.1,0c0,0,0,0,0,0c0,0,0,0,0,0.1c0,0.1,0,0.1,0,0.2c0,0.1,0,0.1,0,0.2c0,0,0,0.1,0,0.1
					C16.5,13.2,16.5,13.2,16.5,13.3c0-0.1-0.1-0.1-0.1-0.1c0,0,0,0,0,0l0,0.1C16.4,13.2,16.4,13.2,16.5,13.3
					C16.4,13.2,16.4,13.2,16.5,13.3C16.4,13.2,16.5,13.2,16.5,13.3C16.5,13.2,16.5,13.2,16.5,13.3C16.5,13.2,16.5,13.3,16.5,13.3z"
					/>
			</g>
			<g>
				<path fill="#F5B54C" d="M16.4,12.6C16.4,12.6,16.4,12.6,16.4,12.6C16.4,12.7,16.3,12.7,16.4,12.6L16.4,12.6
					C16.3,12.6,16.3,12.6,16.4,12.6z"/>
			</g>
			<g>
				<path fill="#F5B54C" d="M16.4,13.2C16.4,13.2,16.4,13.2,16.4,13.2C16.4,13.2,16.4,13.2,16.4,13.2L16.4,13.2
					C16.4,13.2,16.4,13.2,16.4,13.2C16.4,13.2,16.4,13.2,16.4,13.2z"/>
			</g>
		</g>
	</g>
	<g>
		<g>
			<path fill="#48B9A5" d="M19.1,4.2c-0.1,0.2-0.3,0.3-0.5,0.3c-0.2,0-0.4,0-0.6,0c-0.2,0.1-0.3,0.2-0.5,0.2c-0.2,0-0.3-0.1-0.5-0.1
				c-0.2,0-0.3,0.3-0.4,0.3c-0.2,0-0.4-0.2-0.6-0.1c-0.2,0.1-0.2,0.4-0.4,0.5c-0.2,0.1-0.4-0.1-0.6,0c-0.1,0-0.2,0.2-0.3,0.3
				C14.7,5.8,14.6,6,14.4,6c-0.2,0-0.3-0.2-0.5-0.2c-0.2,0-0.3,0.3-0.6,0.3c-0.1,0-0.1-0.1-0.2-0.1c-0.1,0-0.1-0.1-0.2,0
				c-0.1,0.1-0.1,0.2-0.1,0.2c0,0.1-0.1,0.1-0.2,0.1c-0.1,0-0.2,0-0.2,0c-0.1,0-0.2,0-0.2,0.1c0,0.1,0,0.2,0.1,0.1
				c0,0.1,0,0.3,0,0.4c-0.1,0.2-0.2,0.4-0.3,0.6c0,0.1,0,0.3,0.1,0.4c0,0.2,0,0.3-0.1,0.5c0,0,0.1,0,0.1,0c0,0.1,0,0.2,0,0.3
				c0,0,0.1,0,0.1,0c0,0.1-0.1,0.3-0.1,0.4c0.1,0.1,0.2,0,0.3-0.1c0,0.1,0,0.3,0,0.4c0.1-0.2,0.1-0.3,0.2-0.5c0,0.2,0.1,0.3,0.1,0.5
				c0-0.2,0-0.4,0.1-0.4c0.1,0,0.2,0,0.2,0.1c0,0.1,0,0.2,0,0.3c0.1-0.1,0.1-0.2,0.2-0.4c0-0.1,0.1-0.3,0.2-0.3
				c0.1,0,0.3,0.1,0.2,0.2c0-0.2,0.2-0.3,0.3-0.3c0.1,0,0.2,0,0.3,0c0.1,0,0.2-0.1,0.2-0.1c0.1-0.1,0.1-0.1,0.2-0.1
				c0.1,0,0.2,0.1,0.2,0.2c0-0.2,0.2-0.3,0.4-0.3c0.2,0,0.4,0,0.6,0c0.1,0,0.3-0.1,0.4-0.1c0.2-0.1,0.5-0.2,0.7-0.3
				c0.2-0.1,0.3-0.1,0.5-0.2c0.1,0,0.1,0,0.2,0c0.2,0,0.4-0.1,0.6-0.1c0.3-0.1,0.6-0.1,0.8-0.3c0.1-0.1,0.2-0.3,0.3-0.4
				c0.2-0.4,0.3-0.9,0.3-1.4c0-0.3,0.1-0.6,0.1-0.9c-0.2-0.1-0.4-0.1-0.6-0.2c0-0.1,0-0.2,0-0.2"/>
		</g>
	</g>
</g>
</svg>
