<?xml version="1.0" encoding="utf-8"?>
<!-- Generator: Adobe Illustrator 18.0.0, SVG Export Plug-In . SVG Version: 6.00 Build 0)  -->
<!DOCTYPE svg PUBLIC "-//W3C//DTD SVG 1.1//EN" "http://www.w3.org/Graphics/SVG/1.1/DTD/svg11.dtd">
<svg version="1.1" id="Layer_1" xmlns="http://www.w3.org/2000/svg" xmlns:xlink="http://www.w3.org/1999/xlink" x="0px" y="0px"
	 viewBox="0 0 48 48" enable-background="new 0 0 48 48" xml:space="preserve">
<g>
	<g>
		<g>
			<g>
				<g>
					<path fill="#E8EAE9" d="M41.8,11.7v28.6c0,1.4-1.2,2.6-2.6,2.6H2.6c-1.4,0-2.6-1.2-2.6-2.6V11.7H41.8z"/>
				</g>
				<path fill="#66C6B9" d="M41.8,11.7V6.1c0-1.4-1.2-2.6-2.6-2.6H2.6C1.2,3.5,0,4.6,0,6.1v5.6H41.8z"/>
				<path fill="#415A6B" d="M9.3,0L9.3,0C8.3,0,7.6,0.8,7.6,1.7V6c0,0.9,0.8,1.7,1.7,1.7h0C10.2,7.7,11,6.9,11,6V1.7
					C11,0.8,10.2,0,9.3,0z"/>
				<path fill="#415A6B" d="M32.5,0L32.5,0c-0.9,0-1.7,0.8-1.7,1.7V6c0,0.9,0.8,1.7,1.7,1.7h0c0.9,0,1.7-0.8,1.7-1.7V1.7
					C34.2,0.8,33.4,0,32.5,0z"/>
			</g>
			<g>
				<g>
					<g>
						<path fill="#CED6E0" d="M28.7,21.7h-6.3v-6.3h6.3V21.7z M23.8,20.3h3.5v-3.5h-3.5V20.3z"/>
					</g>
				</g>
				<g>
					<g>
						<path fill="#CED6E0" d="M38.1,21.7h-6.3v-6.3h6.3V21.7z M33.2,20.3h3.5v-3.5h-3.5V20.3z"/>
					</g>
				</g>
				<g>
					<g>
						<path fill="#CED6E0" d="M10,30.6H3.7v-6.3H10V30.6z M5.1,29.2h3.5v-3.5H5.1V29.2z"/>
					</g>
				</g>
				<g>
					<g>
						<path fill="#CED6E0" d="M19.3,30.6h-6.3v-6.3h6.3V30.6z M14.4,29.2H18v-3.5h-3.5V29.2z"/>
					</g>
				</g>
				<g>
					<g>
						<path fill="#CED6E0" d="M28.7,30.6h-6.3v-6.3h6.3V30.6z M23.8,29.2h3.5v-3.5h-3.5V29.2z"/>
					</g>
				</g>
				<g>
					<g>
						<path fill="#CED6E0" d="M38.1,30.6h-6.3v-6.3h6.3V30.6z M33.2,29.2h3.5v-3.5h-3.5V29.2z"/>
					</g>
				</g>
				<g>
					<g>
						<path fill="#CED6E0" d="M19.3,39.5h-6.3v-6.3h6.3V39.5z M14.4,38.1H18v-3.5h-3.5V38.1z"/>
					</g>
				</g>
			</g>
			<g>
				<g>
					<g>
						<path fill="#CED6E0" d="M28.7,39.5h-6.3v-6.3h6.3V39.5z M23.8,38.1h3.5v-3.5h-3.5V38.1z"/>
					</g>
				</g>
			</g>
			<g>
				<g>
					<path fill="#F3705A" d="M11.9,18.1l1.9,1.9l4.7-4.7c0.3-0.3,0.7-0.3,1,0c0.3,0.3,0.3,0.7,0,1l-5.2,5.2
						c-0.1,0.1-0.3,0.2-0.5,0.2l0,0c-0.2,0-0.4-0.1-0.5-0.2l-2.4-2.4C10.2,18.4,11.2,17.4,11.9,18.1z"/>
				</g>
			</g>
			<g>
				<g>
					<path fill="#F3705A" d="M4.1,35.8L6,37.7l4.7-4.7c0.3-0.3,0.7-0.3,1,0c0.3,0.3,0.3,0.7,0,1l-5.2,5.2c-0.1,0.1-0.3,0.2-0.5,0.2
						l0,0c-0.2,0-0.4-0.1-0.5-0.2l-2.4-2.4C2.4,36,3.3,35,4.1,35.8z"/>
				</g>
			</g>
		</g>
		<g>
			<g>
				<g>
					<path fill="#FFD15C" d="M23.5,29.1c1.2-0.1,1.8-0.7,1.9-1.9c1.2-0.1,1.8-0.7,1.9-1.9c1.2-0.1,1.8-0.7,1.9-1.9l-6.8-1.2
						L23.5,29.1z"/>
				</g>
				<g>
					<path fill="#F3705A" d="M25.4,27.2c1.2-0.1,1.8-0.7,1.9-1.9l14.9,14.9l-1.9,1.9L25.4,27.2z"/>
					<path fill="#F05540" d="M27.2,25.4c1.2-0.1,1.8-0.7,1.9-1.9L44,38.4l-1.9,1.9L27.2,25.4z"/>
					<path fill="#F05540" d="M23.5,29.1c1.2-0.1,1.8-0.7,1.9-1.9l14.9,14.9L38.4,44L23.5,29.1z"/>
				</g>
				<g>
					<path fill="#415A6B" d="M47.6,42L44,38.4L38.4,44l3.6,3.6c0.5,0.5,1.4,0.5,2,0l3.6-3.6C48.1,43.4,48.1,42.5,47.6,42z"/>
					<g>
						
							<rect x="41" y="37.8" transform="matrix(0.7071 0.7071 -0.7071 0.7071 41.7573 -17.2965)" fill="#E8EAE9" width="1.5" height="7.9"/>
					</g>
				</g>
			</g>
			<g>
				<path fill="#415A6B" d="M22.7,24.5l-0.4-2.1l2.1,0.4C24.3,23.6,23.6,24.3,22.7,24.5z"/>
			</g>
		</g>
	</g>
</g>
</svg>
