<?xml version="1.0" encoding="utf-8"?>
<!-- Generator: Adobe Illustrator 18.0.0, SVG Export Plug-In . SVG Version: 6.00 Build 0)  -->
<!DOCTYPE svg PUBLIC "-//W3C//DTD SVG 1.1//EN" "http://www.w3.org/Graphics/SVG/1.1/DTD/svg11.dtd">
<svg version="1.1" id="Layer_1" xmlns="http://www.w3.org/2000/svg" xmlns:xlink="http://www.w3.org/1999/xlink" x="0px" y="0px"
	 viewBox="0 0 48 48" enable-background="new 0 0 48 48" xml:space="preserve">
<g>
	<g>
		<g>
			<g>
				<path fill="#F3705A" d="M48,3.1v15.2c0,1.7-1.4,3.1-3.1,3.1h-10l-9.1,6.1v-6.1h-4.3c-1.7,0-3.1-1.4-3.1-3.1V3.1
					c0-1.7,1.4-3.1,3.1-3.1h23.4C46.6,0,48,1.4,48,3.1z"/>
			</g>
			<g>
				<g>
					<g>
						<circle fill="#FFFFFF" cx="24.5" cy="10.7" r="2.7"/>
					</g>
					<g>
						<circle fill="#FFFFFF" cx="33.2" cy="10.7" r="2.7"/>
					</g>
					<g>
						<circle fill="#FFFFFF" cx="41.8" cy="10.7" r="2.7"/>
					</g>
				</g>
			</g>
		</g>
		<g>
			<g>
				<g>
					<g>
						<path fill="#FFD15C" d="M5.7,32.5l3.6-0.3c3.7-0.3,6.9-2.6,8.4-5.9c0.3-0.6,0.5-1.3,0.8-1.9c0.3-0.8,0.7-1.5,1.2-2.2
							c1.1-1.7,3.3-5,3.7-6c0.4-1.4,0.9-2.4,0.9-2.4s3.7,0.4,1.4,6.4c0,0-2.1,5.6-2,6.5c0,0,1.2-0.2,4.1,0.4
							c2.9,0.7,5.9,0.4,6.1,2.6S32.6,32,32.6,32s1.7,0.4,1.7,2c0,2-1.7,2-1.7,2s1.5,0.6,1.4,2.4c-0.2,2.2-2.1,1.8-2.1,1.8
							s1.5,0.6,1.2,2.2c-0.3,1.9-1.9,1.6-1.9,1.6s-5.3,2-13.1,0.7c-1.4-0.2-2.9-0.3-4.3-0.2l-8.1,0.6V32.5z"/>
					</g>
				</g>
				<g>
					<g>
						<rect x="10.6" y="30.2" fill="#E8EAE9" width="2.6" height="15.8"/>
					</g>
					<g>
						<rect x="0" y="28.3" fill="#415A6B" width="10.6" height="19.7"/>
					</g>
				</g>
				<path fill="#F3F3F3" d="M24.3,13.8c0,0-0.6,1.3-1,2.7c0,0,1-0.7,1.6-2.6C24.5,13.8,24.3,13.8,24.3,13.8z"/>
			</g>
			<g>
				<circle fill="#344A5E" cx="5.9" cy="43.8" r="2.2"/>
			</g>
		</g>
	</g>
</g>
</svg>
