<?xml version="1.0" encoding="utf-8"?>
<!-- Generator: Adobe Illustrator 18.0.0, SVG Export Plug-In . SVG Version: 6.00 Build 0)  -->
<!DOCTYPE svg PUBLIC "-//W3C//DTD SVG 1.1//EN" "http://www.w3.org/Graphics/SVG/1.1/DTD/svg11.dtd">
<svg version="1.1" id="Layer_1" xmlns="http://www.w3.org/2000/svg" xmlns:xlink="http://www.w3.org/1999/xlink" x="0px" y="0px"
	 viewBox="0 0 48 48" enable-background="new 0 0 48 48" xml:space="preserve">
<g>
	<g>
		<g>
			<path fill="#67C5B8" d="M23.6,42.4l0.6-4.1c0.1-0.8,0.7-1.4,1.5-1.5c3.5-0.5,13.2-1.7,18.7,0.2c0.7,0.2,1.2,0.9,1.2,1.6v6.8
				L23.6,42.4z"/>
		</g>
		<g>
			<g>
				<path fill="#FFD15C" d="M18.4,3L18.4,3c0-0.1,0.2-0.4,0.6-0.4c0.4,0,0.4,0.2,0.4,0.2s0.1-0.3,0.6-0.2c0.5,0.1,0.3,0.3,0.3,0.3
					s0.2-0.2,0.6,0c0.4,0.2,0.3,0.4,0.3,0.4s0.2-0.4,0.6-0.1c0.5,0.3,0.3,1.4,0.2,1.5C22,4.9,21.8,5,21.8,5s0.1,0.5-0.1,0.7
					c-0.2,0.1-1.6,1-1.7,1.3c-0.2,0.2-0.4,2-0.4,2.7c0,0.7,0,5.7,0,6.3c0.1,0.6,0.1,2.4,0.6,2.8c0.5,0.4,4.3,2.7,4.9,3.1
					c0.5,0.4,1.2,0.6,1.9,0.8c0.7,0.2,1.3,0.4,1.7,0.8c0.3,0.3,1.1,1.4,2.4,1.4c0,0,0.5-0.1,0.7-0.3l-0.1-1.1c0,0-1.8,0.3-1.9-0.6
					c-0.1-0.9-0.1-1-0.2-1.3c-0.1-0.4-0.9-1.6-1.2-2c-0.3-0.4-0.6-0.8-0.5-1.3c0.1-0.6,0.2-1.1,0.2-1.1s-0.3-0.9-0.2-1.4
					c0.1-0.5,0.4-1.9,0.5-2.2c0.1-0.3,0.6-0.8,0.6-0.8l3.3-0.4l4.7,3.2c0,0-0.9,4.8-0.7,5.6c0.2,0.8,0.5,2.1,1.3,2.6
					c0.8,0.5,1.4,0.8,1.4,0.8s1.3-1.5,2-1.7c0,0,2.2-3.8,2.6-4.5c0,0-0.5-2.4-0.8-3.3c-0.4-1-0.5-2.5-0.8-3.6
					c-0.3-1-1.3-3.9-1.5-4.3c-0.2-0.5-0.8-1.5-1.2-1.9c0,0-1-0.8-1.3-1.7c-0.3-0.8-0.3-1.5-0.3-1.5s-0.1-0.5,0.1-0.9l0.1-0.9
					c0,0,0.8,0.1,0.7,0.7c0,0,0.3-0.6,0.5-0.3c0,0,0.1-0.2,0.4-0.2c0.2,0,1.1,0.3,1.6,0.4c0.2,0,0.4,0.2,0.4,0.4
					c0.1,0.8,0.2,2.5,0.1,2.7c0,0,0.2,0.8,0.4,0.9c0.2,0.1,1.2,2.7,1.3,3c0.1,0.3,2.2,4.1,2.5,4.6c0.2,0.4,1.4,3.8,1.5,4.2
					c0.1,0.4,0.2,1.5-0.2,2.5s-2.2,5.9-3,7.5c-0.9,1.6-1.8,2.7-1.8,2.7s-0.3,2.1-0.7,3.2c-0.4,1.1-2.6,6.4-2.9,8.6
					c-0.3,2.2-0.4,2.9-0.4,2.9l-13.7-2c0,0,0.8-1.5,1.7-2.7c0.9-1.1,0.4-3.3,0.3-3.6c0,0-1.1-2.6-0.1-4.8l0.8-1.7c0,0-1.7-1.4-2.7-2
					c-1-0.6-4-3.1-5.3-4.6c-1.3-1.4-2.1-2.4-2.1-2.4s-0.4-0.4-0.7-0.6c-0.3-0.2-0.4-0.6-0.4-1.1c0-0.5-0.4-2.8,0.2-6
					c0.6-3.2,1-5,1-5.6c0-0.5,0.2-2.4,0.5-3.1C18,3.5,18.4,3,18.4,3z"/>
			</g>
			<g>
				<path fill="#F5B54C" d="M34,24.2c-0.7,0.4-1.4,0.3-0.6-0.2c1.4-0.9,2.1-2.9,2.1-2.9c-0.8,1.5-3.8,2.6-3.8,2.6l0.1,1.1
					c-0.2,0.2-0.7,0.3-0.7,0.3c-0.1,0-0.2,0-0.3,0v1.3C34.8,26,34.5,23.9,34,24.2z"/>
			</g>
			<g>
				<path fill="#F5B54C" d="M20.7,5.1c0.1,0.1,0.1,0.2,0.2,0.2C20.8,5.2,20.7,5.1,20.7,5.1c-0.1-0.1-0.2-0.2-0.2-0.2
					c-0.1-0.1-0.3-0.1-0.5-0.1c-0.2,0-0.3,0.1-0.5,0.1c-0.2,0-0.3,0-0.5-0.1c-0.1-0.1-0.1-0.3-0.2-0.4c-0.1-0.1-0.1-0.2-0.2-0.2
					c-0.1-0.1-0.1-0.2-0.1-0.4c0-0.1-0.1-0.2-0.1-0.2c0.1,0,0.1,0.1,0.2,0.1c0.1-0.2,0-0.4-0.1-0.6l0.1,0c0.1,0.2,0.1,0.4,0.1,0.6
					c0,0.2,0,0.4,0.2,0.6c0.1,0.1,0.2,0.1,0.2,0C19,4.1,19,4.1,19,4c0.1-0.4,0.3-0.8,0.4-1.2c-0.1,0.3-0.2,0.6-0.2,0.9
					c-0.1,0.2-0.1,0.4-0.1,0.6c0,0.1,0.1,0.2,0.2,0.3c0.1,0.1,0.3,0,0.3-0.1c0.1-0.1,0.1-0.2,0.1-0.2c0-0.5,0.3-1,0.6-1.4
					c-0.2,0.4-0.5,0.8-0.6,1.2c0,0.1-0.1,0.3,0,0.4c0.1,0.1,0.1,0.1,0.2,0.2c0.3,0.1,0.6,0,0.8-0.1c0,0.1-0.2,0.2-0.3,0.2
					c0,0.2,0.2,0.3,0.4,0.3C20.9,5.1,20.8,5.1,20.7,5.1z"/>
				<path fill="#F5B54C" d="M18.3,3.5c0,0-0.1,0-0.1-0.1C18.3,3.5,18.3,3.5,18.3,3.5z"/>
			</g>
			<g>
				<path fill="#F5B54C" d="M20.5,3.8l0.3-0.1c0,0,0.3-0.4,0.4-0.4L21,3.7c0,0,0.3,0.1,0.5,0.4c0.2,0.3,0.1,0.3,0.1,0.3l0.3-0.4
					c0,0-0.1,0.2-0.1,0.3c0,0.1,0,0.1,0.1,0.2c0.1,0,0,0.1-0.1,0.2c0,0.1,0,0.2,0.1,0.2c0.1,0,0.1,0,0.1,0s-0.1,0.1-0.2,0.1
					l-0.2-0.5c0,0-0.2-0.6-0.6-0.7c0,0,0,0-0.1,0L20.5,3.8z"/>
			</g>
			<g>
				<path fill="#FFD15C" d="M19.6,3.9c0,0-0.2,1,0.8,0.8c0,0,0.3,0,0.5-0.2l0.1-0.6l-0.7-0.1L19.6,3.9z"/>
			</g>
			<g>
				<path fill="#F3F3F3" d="M19.6,3.9c0,0,0.9,0.5,0.9-0.1L19.6,3.9z"/>
			</g>
			<g>
				<path fill="#F5B54C" d="M20.5,3.8c-0.1,0-0.1,0-0.2,0c-0.1,0-0.1,0-0.2,0c-0.1,0-0.3,0-0.4,0l0,0c0,0.1,0,0.1,0,0.2
					c0,0.1,0,0.1,0,0.2c0,0.1,0,0.1,0,0.2c0,0.1,0,0.1,0.1,0.1c0.1,0.1,0.2,0.1,0.3,0.2c0.1,0,0.1,0,0.2,0c0,0,0.1,0,0.1,0
					c0,0,0.1,0,0.1,0c0,0-0.1,0-0.1,0c0,0-0.1,0-0.1,0c-0.1,0-0.1,0-0.2,0c-0.1,0-0.1,0-0.2-0.1c-0.1,0-0.1-0.1-0.1-0.1
					c-0.1-0.1-0.1-0.2-0.1-0.3c0-0.1,0-0.1,0-0.2c0-0.1,0-0.1,0-0.2l0,0l0,0c0.1,0,0.3,0,0.4,0c0.1,0,0.1,0,0.2,0
					C20.4,3.8,20.4,3.8,20.5,3.8z"/>
			</g>
			<g>
				<g>
					<path fill="#425A6B" d="M27.3,29.5l-0.8,1.7c-1,2.2,0.1,4.8,0.1,4.8c0,0.3,0.5,2.5-0.3,3.6c-0.9,1.1-1.7,2.7-1.7,2.7l13.7,2
						c0,0,0.1-0.8,0.4-2.9c0.3-2.2,2.5-7.5,2.9-8.6c0.2-0.7,0.4-1.8,0.6-2.5c-0.2,1-1.6,2.3-2.4,1.9c-0.8-0.4-1.8-2.9-1.8-4.7
						c0-1.8,1.1-2.9,1.1-2.9s-0.5-0.2-1.1-0.6l0,0c0,0-1,0.8-1.9,1.6c-0.9,0.8-1.9,1.5-2,1.6c-1.3,0.9-3.5,0.6-3.1-0.1
						c0,0,1-2,0.8-2.5c-0.2,0.2-0.7,0.3-0.7,0.3c-0.3,0-0.5-0.1-0.8-0.1C29,26.2,28,27.7,27.3,29.5z"/>
				</g>
				<path fill="#425A6B" d="M30.3,24.8"/>
			</g>
			<g>
				<path fill="#425A6B" d="M28.3,12.9c0,0,0.1,4.2,7.5,5.2c0,0-2.6-0.7-3.3-2.8c0,0,1,1.4,2.5,1.8c0,0-2.1-1.4-2.5-2.4
					c-0.5-1-0.5-1.6-0.5-1.6s0.8,0.3,1.4,1.3c0.6,1,1,2,1.8,2.1c0.8,0.1,1.6-0.1,1.6-0.1s-1.1,2.5-0.6,4c0,0,1.3-1.2,1.5-2.9
					c0.2-1.8,0.4-4.6-2-6.2C33.3,9.9,29.7,10.9,28.3,12.9z"/>
			</g>
			<g>
				
					<ellipse transform="matrix(0.9082 0.4185 -0.4185 0.9082 10.708 -13.4028)" fill="#FFD15C" cx="35.9" cy="17.7" rx="0.9" ry="1.7"/>
			</g>
			<g>
				<path fill="#425A6B" d="M33.2,16.5h-2.3c1.1,0.7,2.7,1.3,4.9,1.6C35.8,18.1,34.2,17.6,33.2,16.5z"/>
			</g>
			<g>
				<g>
					<path fill="#425A6B" d="M28.6,12.6c-0.1,0.1-0.1,0.1-0.2,0.2c-0.1,0.1-0.1,0.1-0.2,0.2c0,0.1-0.1,0.2-0.1,0.2
						c-0.1,0.2-0.1,0.3-0.2,0.5c0,0.2-0.1,0.3-0.1,0.5c0,0.2-0.1,0.3-0.1,0.5c0,0.2,0,0.3,0,0.5c0,0,0,0.1,0,0.1c0,0,0,0.1,0,0.1
						c0,0.1,0,0.1,0,0.2c0,0.3,0.1,0.5,0.2,0.6c0,0.1,0.1,0.1,0.1,0.2c0,0,0,0.1,0,0.1s0,0,0-0.1c0,0,0-0.1-0.1-0.2
						c-0.1-0.1-0.1-0.4-0.1-0.6c0-0.1,0-0.1,0-0.2c0,0,0-0.1,0-0.1c0,0,0-0.1,0-0.1c0-0.1,0-0.3,0.1-0.5c0-0.2,0.1-0.3,0.1-0.5
						c0-0.2,0.1-0.3,0.1-0.5c0.1-0.2,0.1-0.3,0.2-0.5c0-0.1,0.1-0.1,0.1-0.2c0-0.1,0.1-0.1,0.1-0.2c0.1-0.1,0.1-0.1,0.2-0.2
						C28.7,12.7,28.7,12.7,28.6,12.6z"/>
				</g>
				<g>
					<path fill="#425A6B" d="M28.7,12.7c0,0.1-0.1,0.1-0.1,0.2c-0.1,0.1-0.1,0.2-0.1,0.2c0,0.1-0.1,0.2-0.1,0.3l0,0.1l0,0.1
						c0,0,0,0.1,0,0.1c0,0.1,0,0.2-0.1,0.3c0,0.1,0,0.2,0,0.3c0,0.1,0,0.2,0,0.2c0,0.1,0,0.1,0,0.2c0,0.1,0,0.1,0,0.1
						c0,0,0,0.1,0,0.1c0,0,0,0,0,0s0,0,0,0c0,0,0-0.1,0-0.1c0,0,0-0.1,0-0.1c0-0.1,0-0.1,0-0.2c0-0.1,0-0.1,0-0.2
						c0-0.1,0-0.2,0.1-0.2c0-0.1,0.1-0.2,0.1-0.3c0,0,0-0.1,0.1-0.1l0-0.1l0-0.1c0-0.1,0.1-0.2,0.1-0.2c0.1-0.1,0.1-0.1,0.2-0.2
						c0,0,0.1-0.1,0.1-0.1C28.8,12.8,28.7,12.7,28.7,12.7z"/>
				</g>
			</g>
		</g>
		<g>
			<polygon fill="#F26F5A" points="48,44.2 0,39.6 0,47.6 48,47.6 			"/>
		</g>
		<g>
			<rect y="45" fill="#F05640" width="48" height="2.7"/>
		</g>
		<g>
			<g>
				<g>
					<polygon fill="#425A6B" points="20,19.6 21.4,19.3 24.4,38.7 23.1,39 18.7,31.9 19.6,20 					"/>
				</g>
				<g>
					<polygon fill="#344A5E" points="5.8,20 7.2,19.6 21.4,19.3 19.9,19.9 					"/>
				</g>
			</g>
			<g>
				<polygon fill="#ACB2BA" points="5.8,20 19.9,19.9 23.1,39 8.7,37.3 				"/>
			</g>
			<g>
				<polygon fill="#F3F3F3" points="5.8,20 19.9,19.9 23.1,39 8.7,37.3 				"/>
			</g>
			<g>
				<polygon fill="#CED6E0" points="11.1,27.6 10.7,33.1 8.9,37.4 8.7,37.3 5.8,20 8.2,25.1 				"/>
			</g>
			<g>
				<polygon fill="#E8EAE8" points="8.2,25.1 14.8,25.1 16.4,34.3 9.6,33.4 				"/>
			</g>
			<g>
				<polygon fill="#425A6B" points="19,43.3 19,44 10.4,44.4 3.9,42.7 3.9,42 				"/>
			</g>
			<g>
				<polygon fill="#344A5E" points="19,43.3 19,44 10.4,44.4 10.4,42.6 				"/>
			</g>
			<g>
				<polygon fill="#2A3F4C" points="3.9,42 10.4,43.7 19,43.3 12,41.7 				"/>
			</g>
			<g>
				<path fill="#344A5E" d="M13.2,28.9l-0.1,1.2l-0.9,0.4l-2,12.7H9.6l1.2-12.7C10.8,30.5,11.7,28.9,13.2,28.9z"/>
			</g>
			<g>
				<path fill="#425A6B" d="M9.6,43.2l2-13.3c0,0,0-0.8,1.6-1l-2-0.1c0,0-1.2-0.1-1.4,0.5c-0.1,0.6-2,13.2-2,13.2L9.6,43.2z"/>
			</g>
			<g>
				<polygon fill="#CED6E0" points="23.1,39 16.4,34.3 14.8,25.1 19.9,19.9 				"/>
			</g>
		</g>
	</g>
	<g>
		<path fill="#F5B54C" d="M39.9,3c-0.1,0-0.1,0-0.2,0c-0.2,0-0.4-0.1-0.5-0.1c-0.2,0-0.3-0.2-0.4-0.3c-0.1-0.2-0.1-0.4-0.1-0.6
			c0-0.3,0-0.6,0-0.9c-0.1,0.7-0.4,0.8-0.6,0.8c0.1,0,0.2-0.1,0.3-0.1c0.1,0,0.2,0,0.2,0.1c0,0.1,0.1,0.2,0.1,0.4
			c0,0.1,0.1,0.3,0.2,0.4c0.1,0.1,0.2,0.2,0.4,0.2c0.2,0.1,0.4,0.1,0.6,0.2c0,0,0,0,0.1,0C39.9,3.1,39.9,3,39.9,3z"/>
	</g>
	<g>
		<path fill="#F5B54C" d="M39.5,1.7c0,0,0.2,0,0.3,0s0.3,0.2,0.4,0.3c0,0,0.3-0.4,0.4-0.4c0,0-0.3,0.1-0.4,0.3c0,0-0.3,0-0.3-0.2
			c0,0,0.2-0.3,0.3-0.4c0,0-0.3,0.4-0.4,0.3C39.7,1.3,39.6,1,39.6,1s0.2,0.4,0.2,0.5C39.8,1.5,39.7,1.6,39.5,1.7z"/>
	</g>
	<g>
		<g>
			<g>
				<path fill="#F5B54C" d="M39.9,3c-0.1-0.1-0.1-0.2-0.1-0.3l0-0.1c0,0,0-0.1,0-0.1c0,0,0,0,0,0c0,0,0,0,0,0c0,0,0,0,0,0.1l0,0
					c0.1,0.1,0,0,0,0.1c0,0-0.1,0-0.1,0c-0.1,0-0.2,0-0.3,0l-0.1,0l0,0l-0.1,0c-0.1,0-0.2-0.1-0.2-0.1c-0.1-0.2-0.2-0.3-0.2-0.4
					c0-0.1,0-0.1,0-0.3l0-0.1c0-0.1,0.1-0.2,0.1-0.3c0.1-0.2,0.2-0.4,0.3-0.5c0.2,0.2,0.2,0.4,0.3,0.5c0,0.1,0.1,0.2,0.1,0.3l0,0.1
					c0,0,0,0,0,0c0,0,0.1,0.1,0,0c0,0,0,0-0.1-0.1l0,0l0,0c0,0,0,0,0,0l0,0l0,0l0,0l0.1,0c0.1,0,0.2,0.1,0.3,0.1c0,0,0.1,0,0.1,0.1
					c0.1,0,0.1,0.1,0.2,0.2l0,0l0,0c0.1,0.1,0.1,0.1,0.1,0.2c0,0,0,0.1,0,0.1c0,0.1,0,0.1-0.1,0.2c0,0.1,0,0-0.1,0.1l-0.1,0.1
					C40.1,2.8,40,2.9,39.9,3z"/>
			</g>
		</g>
	</g>
	<g>
		<g>
			<path fill="#F5B54C" d="M40.2,1.8c0.2,0,0.2,0.1,0.3,0.1l0,0c0.1,0.1,0.2,0.3,0.1,0.4c-0.1,0.1-0.2,0.2-0.6,0.2
				c-0.3-0.2-0.3-0.3-0.4-0.4c0-0.1,0-0.2,0.2-0.2l0,0C39.9,1.9,40,1.8,40.2,1.8z"/>
		</g>
	</g>
	<g>
		<path fill="#F3F3F3" d="M37.8,1.3l0.1-0.9C37.9,0.4,38.4,1.2,37.8,1.3z"/>
	</g>
</g>
</svg>
