<?xml version="1.0" encoding="utf-8"?>
<!-- Generator: Adobe Illustrator 19.0.1, SVG Export Plug-In . SVG Version: 6.00 Build 0)  -->
<svg version="1.1" id="Layer_1" xmlns="http://www.w3.org/2000/svg" xmlns:xlink="http://www.w3.org/1999/xlink" x="0px" y="0px"
	 viewBox="0 0 48 48" style="enable-background:new 0 0 48 48;" xml:space="preserve">
<style type="text/css">
	.st0{fill:#FFD15C;}
	.st1{fill:#415A6B;}
	.st2{fill:#F7B64C;}
	.st3{fill:#CED6E0;}
	.st4{fill:#344A5E;}
	.st5{fill:#F3F3F3;}
	.st6{fill:#F05540;}
	.st7{fill:#F3705A;}
	.st8{fill:#66C6B9;}
	.st9{fill:#55C0EB;}
	.st10{fill:#F5F6FB;}
	.st11{fill:#4ABAA5;}
	.st12{fill:#ADB3BA;}
	.st13{fill:#E8EAE9;}
	.st14{fill:#2E4556;}
	.st15{fill:#8AD7F8;}
	.st16{fill:#FFFFFF;}
	.st17{fill:#E54838;}
	.st18{fill:#3EAF99;}
	.st19{fill:#EFA943;}
	.st20{fill:#4CAEE5;}
	.st21{fill:#293F4F;}
	.st22{fill:#2D4456;}
	.st23{fill:#2E4454;}
	.st24{fill:#2A3F4F;}
	.st25{fill:#2D4151;}
	.st26{fill:#E89E3D;}
	.st27{fill:#2B4151;}
	.st28{fill:#2A4051;}
	.st29{fill:#2C4151;}
	.st30{fill:#EBEAE8;}
	.st31{fill:#3AA590;}
	.st32{fill:#E84534;}
	.st33{fill:none;}
</style>
<g>
	<g>
		<g>
			<path class="st0" d="M23.2,26.1c-0.2,0.2-0.5,0.5-0.9,0.7l-1.7-1.7l2.1-0.4L23.2,26.1z"/>
		</g>
		<g>
			<g>
				<path class="st4" d="M22.8,38.5c-0.2-0.3-0.5-0.5-0.9-0.8c-2.7-1.5-9.5-3-9.5-3H6.5v3.8H22.8z"/>
			</g>
			<g>
				<path class="st1" d="M17.3,38.5c-0.2-0.2-0.7-0.5-1.6-0.9c-1.6-0.6-7.2-2.6-7.3-2.6l-2-0.4v3.8H17.3z"/>
			</g>
			<g>
				<path class="st4" d="M31.6,38.5l2.1-4.1c0,0-4,1.3-5,1.7c-1,0.4-3.3,0.9-3.8,2.3c0,0.1,0,0.1,0,0.2H31.6z"/>
			</g>
			<g>
				<path class="st0" d="M10.7,11.7l-0.1,0.6c0,0,0.5,1.2,0.5,1.6c0,0.4-0.2,0.6-0.2,0.6s0.4,0.6,0.5,1s-0.1,0.5-0.2,0.5
					c-0.1,0-0.3,0.1-0.3,0.1s-0.1,0.4,0,0.6c0.1,0.1-0.1,0.3-0.2,0.2c0,0,0.3,0.2,0.1,0.5c-0.2,0.3,0.2,1.2-0.7,1.4
					c-0.9,0.2-1,0.3-1,0.3l-0.3,1.9l-3.9-3.5l-0.2-0.5L6,12.1l2.7-1.3L10.7,11.7z"/>
			</g>
			<g>
				<polyline class="st3" points="8.1,20 8.7,19.8 8.9,19.7 10.4,20.7 11.6,29.3 11.8,31.6 8.7,31.6 				"/>
			</g>
			<g>
				<path class="st1" d="M4.7,16.9c0,0,1-0.3,1.1-1.8s0.6-1.8,1-1.7s0.7,0.8,0.7,0.8l0.5,0c0,0-0.1-0.7,0.1-0.9
					c0.3-0.2,0.6-0.2,0.6-0.6c0-0.1,0-0.2,0-0.3c0-0.6,0.6-1,1.1-0.8c0,0,0.1,0,0.1,0.1c0.4,0.3,0.6,0.5,0.6,0.5S11.5,12,11,11
					s-3.3-1.7-4.9-0.7s-2.2,3.3-2,4.7C4.4,16.4,4.7,16.9,4.7,16.9z"/>
			</g>
			<g>
				
					<ellipse transform="matrix(0.996 -8.946484e-002 8.946484e-002 0.996 -1.259 0.6421)" class="st0" cx="6.5" cy="14.4" rx="0.7" ry="1.1"/>
			</g>
			<g>
				<path class="st27" d="M9.3,20.5l1.5,3.3l1.8,6.1c0,0,0.3,0.5,1.8,0.9c1.4,0.3,3.8,1,3.8,1s-0.5-0.6-0.3-1.4
					c0.2-0.9,0.8-1.4,1.4-1.4c0,0-1.1-0.3-1.3-0.4c-0.3-0.1-0.6-0.2-0.9-0.4s-0.8-0.3-1.2-0.6c-0.4-0.3-0.9-0.6-0.9-0.6
					s-2.1-3-2.4-3.6c-0.3-0.6-0.5-1.2-0.6-1.8c-0.1-0.6-1-1.6-1.9-1.7S9.3,20.5,9.3,20.5z"/>
			</g>
			<g>
				<path class="st4" d="M9.2,19.4c0,0,0.5,0.4,0.9,0.6c0.4,0.2,1.1,0.9,1.4,1.5s0.8,8,1,8.6c0.1,0.6,2.4,5,2.5,5.5
					c0.1,0.6,0,1.2,0,1.2l-3.8-1.8c0,0-1.2-13.2-1.6-14C9.2,20.1,9.2,19.4,9.2,19.4z"/>
			</g>
			<g>
				<path class="st1" d="M9.1,19.5l0.6,0.6l-0.1,0.7l0.5,0.1c0,0,1.3,3.4,1.7,6c0.4,2.6,0.3,3.4,0.3,3.4S11.3,27,11,25.9
					c-0.3-1-2-6.2-2-6.2L9.1,19.5z"/>
			</g>
			<g>
				<path class="st5" d="M4.6,17.9l0.2-1c0,0,1.4,0.4,2.4,1.3s1.5,1.6,1.5,1.6l-0.6,1.6L4.6,17.9z"/>
			</g>
			<g>
				<path class="st4" d="M0.1,31.9c0.1,0.5,0.9,5.3,1.1,6.6h6.5c1.4-0.7,2.3-1.7,2.4-3.3c0.2-1.8,0-4.6,0-4.6s-0.7-5.4-1.7-7.9
					s-3.9-5.1-3.9-5.1l-0.2,0.1c0,0-0.8,0.1-1.5,0.5c-0.7,0.4-2.1,2.5-2.6,3.9c-0.4,1.5-0.2,5.6,0.1,6.5C0.6,29.7,0,31.3,0.1,31.9z"
					/>
			</g>
			<g>
				<path class="st2" d="M23,24.3l-2-1c-0.1-0.1-0.3-0.1-0.4,0c-0.1,0-0.3,0.1-0.4,0.1c-0.3,0.1-0.4,0.1-0.9,0
					c-0.3-0.1-1.2-0.1-1.9-0.2v2.3c0.5,0,1.2,0,1.3,0.1c0.3,0.1,0.3,0.1,0.5,0.3c0.2,0.2,1.6,1,1.6,1.2s-0.1,0.2-0.1,0.2
					c0,0.2,0.1,0.2,0.3,0.2c0.2,0,0.3-0.1,0.3-0.1c0.3,0.1,0.8-0.2,0.8-0.2c0.2,0,0.3-0.1,0.5-0.2c0.1-0.2,0.3-0.4,0.2-0.5
					c0-0.1-0.3-0.6-0.4-0.7c0.1,0.1,0.4,0.3,0.4,0.3c0,0.1,0.2,0.5,0.2,0.5c0,0.8,0.5,0.6,0.5,0.6v-0.3c0-0.1,0.1-0.2,0.1-0.2v-0.4
					C23.9,25.7,23,24.3,23,24.3z"/>
			</g>
			<g>
				<path class="st4" d="M26,27.3c0,0-0.5,0.6-1,0.5c-0.5-0.1-0.5-3.2,0-3.7l1.7,1L26,27.3z"/>
			</g>
			<g>
				<path class="st12" d="M25.3,25L24.8,27c-0.7,0,0-2.8,0-2.8L25.3,25z"/>
			</g>
			<g>
				<path class="st0" d="M25.3,24.2l-1.9,0.1c0,0-0.3-0.2-0.8-0.5c-0.5-0.2-0.6-0.5-0.9-0.5c-0.2-0.1-1,0-1,0s-0.2,0.1-0.2,0.3
					l-0.3,0.2c0,0,0.3,0.7,0.9,0.2c0,0,0.3-0.1,0.4,0c0,0,0.8,0.5,1,0.7c0.2,0.2,0.8,0.6,0.9,0.9s0.2,0.6,0.2,0.6l2.8,0.7L26.1,25
					L25.3,24.2z"/>
			</g>
			<g>
				<path class="st5" d="M25.5,24.1l-0.7,0c0,0,0.5,2,0,2.8l1.6-0.1C26.4,26.8,27.2,24.8,25.5,24.1z"/>
			</g>
			<g>
				<path class="st1" d="M37.4,18.3c0,0-0.6,0.3-1.1,1.2c-0.5,0.8-0.6,1.1-0.6,1.1s-0.5,0.6-0.7,0.9c-0.2,0.2-0.3,0.2-0.4,0.4
					s-0.2,0.2-0.4,0.3c-0.2,0.1-0.2,0.1-0.7,0.4s-1.7,0.9-2.4,0.9c-0.7,0-2.1,0.3-2.6,0.4S25,24.1,25,24.1s1.3,1.2,0.9,2.4
					c-0.4,1.2-0.6,1.3-0.9,1.3c0,0,0.3,0.2,0.9,0s1.6-0.3,2.4-0.4c0.7-0.1,3.6-0.4,4.4-0.6s2.4-0.9,2.8-1s0.8-0.3,0.8-0.3L37.4,18.3
					z"/>
			</g>
			<g>
				<path class="st1" d="M42,38.5l-2.2-4.7l-8,2.2l-0.9,0.9c0,0-0.5,0.9-0.5,1.6H42z"/>
			</g>
			<g>
				<path class="st0" d="M38.7,10.7c0,0-0.8-0.1-1.1,0.5c-0.3,0.6-0.9,1.6-0.9,1.8c0,0.2,0.1,0.4,0,0.6c-0.1,0.1-0.7,0.9-0.7,1.1
					c0,0.2,0,0.3,0.2,0.4s0.4,0.1,0.4,0.1s-0.3,0.6,0.1,0.7c0,0-0.3,0.1-0.1,0.4c0.2,0.2-0.3,1.3,0.5,1.4s1.5-0.1,1.7,0.3
					c0.2,0.4-0.1,1.9-0.1,1.9l4.4-2.5l-0.2-0.7l-0.2-5.1L38.7,10.7z"/>
			</g>
			<g>
				<path class="st4" d="M36.2,26.8l-0.7,3.6c0,0-1.2,3.3-1.7,4.2c-0.5,0.9-0.5,0.9-0.5,0.9l3.4-1.1l0.4-11.3L36.2,26.8z"/>
			</g>
			<g>
				<g>
					<polygon class="st7" points="20.4,38.5 20.2,33.6 18,33.6 18.3,38.5 					"/>
				</g>
				<g>
					<path class="st6" d="M5.3,33.7c0,0.7,6,1,13.5,0.5s13.5-1.4,13.5-2.1v-1.2c0-0.7-6-1-13.5-0.5c-7.5,0.4-13.5,1.4-13.5,2.1V33.7
						z"/>
				</g>
				<g>
					<path class="st7" d="M32.3,30.9c0,0.7-6,1.7-13.5,2.1c-7.5,0.4-13.5,0.2-13.5-0.5s6-1.7,13.5-2.1C26.2,30,32.3,30.2,32.3,30.9z
						"/>
				</g>
				<g>
					<path class="st5" d="M27.6,31.3l1,0c0,0,0.9,0,1.3-0.6h-8.1c0,0-1.7,0.6-3.3,0.4l4.3,0.2H27.6z"/>
				</g>
				<g>
					<path class="st3" d="M18.9,31.5l9.7-0.1c0,0-0.1,0-0.6-0.1l-9.6-0.1L18.9,31.5z"/>
				</g>
				<g>
					<path class="st0" d="M19.2,29.1c0,0,0.3,0.1,0.5,0c0.1-0.1,0.8-0.5,1.1-0.6c0.3-0.1,0.4-0.1,0.7,0.1c0.3,0.2,0.5,0.4,0.5,0.4
						s0.2-0.1,0.5,0.3c0.3,0.4,0.4,0.7,0.4,0.7s-1.5,0.3-1.6,0.3c-0.1,0,0-0.5,0-0.5s-0.3,0-0.4-0.2l-0.3,0.2c0,0,0.4,0,0.5,0.2
						c0.1,0.2,0.1,0.5-0.1,0.5s-0.5,0.2-0.8-0.1c0,0-0.3,0.4-0.8,0.4c-0.5,0-1.5-0.2-1.5-0.2s0-0.6,0.2-0.9
						C18.4,29.5,19.2,29.1,19.2,29.1z"/>
				</g>
				<g>
					<path class="st13" d="M20.6,30.2l4-0.6c0,0-2,1-2.8,1.3c-0.8,0.3-2.2,0.7-3,0.6l-0.5-0.3c0,0,0.7,0,1.3-0.1
						C20.3,31,20.6,30.4,20.6,30.2z"/>
				</g>
			</g>
			<g>
				<g>
					<path class="st11" d="M38.9,19l2.7-0.3l-2.4,14.6l-3.2,0.6l0.5-11.2c0,0,1.9-4.2,1.9-4.2C38.3,18.6,38.9,19,38.9,19z"/>
				</g>
				<g>
					<path class="st0" d="M35.8,33.6c0,0-0.3,0.2-0.6,0.3C34.9,34,34.9,34,34.8,34c-0.1,0-0.9-0.1-1.5,0.2s-1,0.2-1,0.6
						s-0.2,0.5-0.2,0.5s-0.6,0.2-0.8,0.4c-0.2,0.1-0.2,0.5-0.2,0.5l-0.2,0.5c0,0,0.1,0.2,0.3,0.2c0.2-0.1,0.3-0.4,0.4-0.4
						s0.5-0.2,0.6-0.3c0,0,0.8-0.1,1.4,0c0.6,0,2,0,2.4-0.3c0.3-0.3,0.5-0.5,0.6-0.6c0.2-0.1,1-0.6,1-0.6L35.8,33.6z"/>
				</g>
				<g>
					<path class="st5" d="M36.3,33.2l-0.6,0.4c0,0,0.5,0.4,0.8,0.7c0.3,0.3,1,1.1,1,1.2s-0.1,0.1-0.1,0.1s0.1,0.1,0.2,0.1
						c0.2,0,1.1-0.8,1.1-0.8L36.3,33.2z"/>
				</g>
				<g>
					<path class="st1" d="M39.1,14.2l0.6,0.1c0,0,0-0.7,0.9-0.8s0.9,1.1,1.1,1.6c0.2,0.5,1.3,1.5,1.3,1.5s0.2-1.1,0.5-1.5
						c0.3-0.4,0.8-1.8,0.4-3.1s-1-2.1-2.7-2.4c-1.7-0.3-3.2,0.2-3.5,0.5s0.1,1,0.1,1s0.8-0.4,1.3-0.3c0.4,0.1,0.4,0.2,0.4,0.2
						s-0.9,0.7-0.5,1.5C39.3,13.5,39.1,14.2,39.1,14.2z"/>
				</g>
			</g>
			<g>
				<path class="st5" d="M43.1,17.2c0,0-1.6,1.5-2.2,2c-0.7,0.5-1.3,1.4-1.3,1.4L38.9,19l1.1-1c0.3-0.3,0.6-0.5,0.9-0.6
					c0.8-0.4,2-0.8,2-0.8L43.1,17.2z"/>
			</g>
			<g>
				<path class="st4" d="M38.9,18.5c-0.1,0.2-0.2,0.3-0.3,0.5c-0.1,0.1-0.2,0.3-0.2,0.4c-0.2,0.3-0.4,0.6-0.5,0.9
					c-0.3,0.6-0.5,1.2-0.7,1.9c-0.2,0.6-0.4,1.3-0.6,1.9c-0.2,0.7-0.3,1.5-0.4,2.2c0,0.2,0.1,0.3,0.3,0.3c0,0.1,0,0.1,0,0.2
					l-0.8,2.3c0.1-0.6,0.1-5.6,0.1-6.7c0-1.2,0.8-3.5,1.1-3.9c0.3-0.4,0.4-0.4,0.9-0.6c0.2-0.1,0.6-0.1,0.9-0.2c0,0,0.1,0.1,0.1,0.1
					C38.9,18,38.9,18.2,38.9,18.5z"/>
			</g>
			<g>
				<path class="st1" d="M38.9,18.4c-0.2,0.4-0.6,1-0.9,2c-0.4,1.5-1.1,4.4-1.5,6.5c-0.4,2.1-1,3.6-1,3.6c0.2-0.6,0.3-2.8,0.3-4.3
					c0-1.5,1.3-6,1.8-6.9c0.3-0.6,1-1,1.3-1.1C38.9,18.2,38.9,18.3,38.9,18.4z"/>
			</g>
			<g>
				<path class="st4" d="M40.3,37.5c0.1,0.5,0.3,0.8,0.6,1H48c0,0,0,0,0,0s-0.1-2.4-0.2-3.5c-0.1-1.1-1.2-6.5-1.1-7.2s0.4-3,0.6-4.1
					c0.2-1.1,0-3.9-0.8-4.8s-3.1-1.3-3.1-1.3L43,17.5c-1.9,1.2-4.8,6.4-5.3,7.9s-0.5,2.8-0.3,3.7C37.6,30,40,36.5,40.3,37.5z"/>
			</g>
			<g>
				<path class="st1" d="M42.9,16.6c0,0-0.8,0.8-1.3,1.2c-0.4,0.4-1,1.6-1.5,2.4c-0.5,0.8-2.1,3.8-2.7,5.5c-0.6,1.7-0.1,3.5-0.1,3.5
					s-0.2-1.8,0-2.5c0.2-0.7,1.7-4.2,3.8-6.8L41,19.8l0.6-0.5c0,0,1-1.3,1.8-1.7C43.5,17.7,43.3,16.9,42.9,16.6z"/>
			</g>
			<g>
				<path class="st1" d="M42.7,24.1c0,0-0.8-1-0.5-2.4c0,0,0.7-3,3.1-3.2c0.6-0.1,1.2,0.3,1.5,0.8c0.3,0.5,0.5,1.2,0.4,2.3
					c-0.1,2.2-0.4,3.5-0.9,5s-1.2,3-2,4.1c-0.8,1.1-5.2,5.3-5.2,5.3s-1.8-1.6-2.3-2.1c-0.5-0.5-0.7-0.6-0.7-0.6s1.9-1.5,2.3-2.1
					c0.5-0.6,0.3-0.7,0.7-0.9c0.4-0.1,1.4-1.6,1.8-2c0.4-0.5,0.6-0.9,0.7-1.3c0.1-0.3,0.7-2.2,0.7-2.2
					C42.4,24.7,42.7,24.1,42.7,24.1z"/>
			</g>
			<g>
				<path class="st5" d="M38.9,18.1c0.1,0.2,0.1,0.5,0.1,0.9c0,0-0.6,0.2-0.6,0.7C38.3,19.6,38.7,18.3,38.9,18.1z"/>
			</g>
			<g>
				<path class="st0" d="M20.7,27.5c0,0-0.3,0-0.4-0.5c0,0-0.2,0.1-0.4,0c-0.2-0.1-0.1-0.3-0.1-0.3s-0.2,0.1-0.3-0.1
					c-0.1-0.1-0.2-0.2-0.2-0.4c0,0-0.2,0.1-0.4,0s-0.1-0.5,0-0.6c0.1-0.1,0.5,0.2,0.5,0.4c0,0,0.3-0.2,0.6-0.2s0.3,0.3,0.3,0.3
					s0.1-0.2,0.4-0.1s0.1,0.5,0.1,0.5s0.2,0.1,0.2,0.3S20.7,27.3,20.7,27.5z"/>
			</g>
			<path class="st5" d="M24.8,27c0.7,0,0.5-1.9,0.5-1.9"/>
			<g>
				<path class="st5" d="M18.2,23.3c0,0,0,2.3-0.1,2.6h-2.5l0.3-2.7L18.2,23.3z"/>
			</g>
			<g>
				<path class="st1" d="M4.7,17c0,0,3,2.9,3.5,3.8c0.6,0.9,1.7,5.3,1.8,6.8c0.1,1.6,0.1,3.1,0.1,3.1s-0.6-2.5-0.9-4.1
					c-0.3-1.5-1.6-5.1-2.3-6.4s-2.6-2.6-2.6-2.6L4.7,17z"/>
			</g>
			<g>
				<path class="st1" d="M2.6,24.6c0,0-1.4-0.6-1.6-2.3s0.1-3.3,1.6-3.9s3.5,1.1,4,2c0.5,0.9,0.3,1.1,0.3,1.1s2,1.2,2.4,1.3
					s0.7,0.2,0.8,0.1c0.1-0.1,2.8,0.1,3.9,0.1s3.1,0.2,3.1,0.2s0,3-0.2,3.3c0,0-5.5-0.1-6.5-0.1c-1,0-1.8,0.1-2.6-0.1
					C7,26.2,2.6,24.6,2.6,24.6z"/>
			</g>
			<g>
				<path class="st5" d="M8.9,19.7l0.4,1.2c0,0,0.3-0.5,0.2-1c-0.1-0.5-0.3-1-0.3-1S9,19.6,8.9,19.7z"/>
			</g>
		</g>
	</g>
	<g>
		<path class="st13" d="M17.5,31.2l0.9,0.2c0,0-0.3-0.9-0.1-1.5s1.1-0.8,1.1-0.8l-1-0.2l-1.8,0.7L17.5,31.2z"/>
	</g>
	<g>
		<path class="st27" d="M17.7,30.3c-0.2,0.9,0.3,1.4,0.3,1.4s-2.3-0.7-3.8-1c-0.5-0.1-0.8-0.2-1.1-0.4v-1.9c0,0,4.5,0.1,4.6,0.1
			c0.3,0.1,1.3,0.4,1.3,0.4C18.5,28.9,18,29.4,17.7,30.3z"/>
	</g>
	<g>
		<path class="st0" d="M21.1,30c-0.1-0.2-0.5-0.2-0.5-0.2l0.1-0.1h-0.8v1.1c0.2-0.1,0.4-0.3,0.4-0.3c0.3,0.2,0.5,0.1,0.8,0.1
			C21.2,30.5,21.2,30.2,21.1,30z"/>
	</g>
</g>
</svg>
