<?xml version="1.0" encoding="utf-8"?>
<!-- Generator: Adobe Illustrator 18.0.0, SVG Export Plug-In . SVG Version: 6.00 Build 0)  -->
<!DOCTYPE svg PUBLIC "-//W3C//DTD SVG 1.1//EN" "http://www.w3.org/Graphics/SVG/1.1/DTD/svg11.dtd">
<svg version="1.1" id="Layer_1" xmlns="http://www.w3.org/2000/svg" xmlns:xlink="http://www.w3.org/1999/xlink" x="0px" y="0px"
	 viewBox="0 0 48 48" enable-background="new 0 0 48 48" xml:space="preserve">
<g>
	<g>
		<g>
			<path fill="#E8EAE9" d="M44.9,30.4V16L31.1,2.2L17.3,16v16h26C43.9,31.4,44.3,31,44.9,30.4z"/>
		</g>
		<g>
			<rect x="19.9" y="20.5" fill="#415A6B" width="8.6" height="11.5"/>
		</g>
		<g>
			<rect x="19.9" y="20.5" fill="#415A6B" width="9.5" height="11.5"/>
			<rect x="20.9" y="21.5" fill="#344A5E" width="7.4" height="10.5"/>
		</g>
		<path fill="#F3705A" d="M47.5,15.7L32.3,0.5c-0.7-0.7-1.8-0.7-2.5,0L14.7,15.7c-0.7,0.7-0.7,1.8,0,2.5s1.8,0.7,2.5,0l13.9-14
			l13.9,14c0.7,0.7,1.8,0.7,2.5,0C48.2,17.5,48.2,16.4,47.5,15.7z"/>
		<g>
			<g>
				<g>
					<g>
						<g>
							<g>
								<path fill="#FFD15C" d="M46.5,28.6c-1.6-0.4-4.8,1.6-4.8,1.6C40,30.2,38,31.5,38,31.5c-1.2,0-2.1,0.5-2.1,0.5s-1-0.9-4.4-1
									c-3.4-0.1-7.6-1.2-7.6-1.2c-1.4-0.9-3.1-1.2-4.7-1.3c-2.7-0.1-5.4,0.6-7.7,1.9L10.3,31l1.4,11.1c1.3-0.6,6.9-1.4,6.9-1.4
									s6.3-0.3,9.2-0.2c2.9,0.1,4.3-1.8,4.3-1.8s5-2.4,6.7-3c1.7-0.6,4.5-2.8,4.5-2.8c1.1-0.5,4.7-2.9,4.7-2.9
									S47.9,28.9,46.5,28.6z"/>
							</g>
							<g>
								<path fill="#F7B64C" d="M21.3,36.5l2.3-0.3l1.2-0.2l0.6-0.1c0.2,0,0.4-0.1,0.6-0.1c0.4,0,0.8,0,1.2,0l1.2,0
									c0.8,0,1.6,0,2.3,0.1h0c0.4,0,0.8-0.1,1.2-0.1l1.2-0.1l2.4-0.2h0c0.2,0,0.4-0.1,0.6-0.3c0.2-0.1,0.3-0.3,0.5-0.5
									c0.2-0.4,0.2-0.8,0.2-1.3c0-0.1,0-0.2-0.1-0.3c0-0.1-0.1-0.2-0.1-0.3c-0.1-0.2-0.2-0.4-0.3-0.5c-0.1-0.2-0.2-0.3-0.4-0.5
									c-0.1,0-0.1,0-0.1,0l0,0c0.1,0.2,0.3,0.3,0.4,0.5c0.1,0.2,0.2,0.3,0.3,0.5c0.1,0.2,0.1,0.4,0.1,0.6c0.1,0.4,0,0.8-0.2,1.1
									c-0.1,0.2-0.2,0.3-0.4,0.4c-0.2,0.1-0.3,0.2-0.5,0.2c-0.8,0-1.6,0.1-2.4,0.1l-2.4,0.1h0c-0.8,0-1.6,0-2.3,0l-1.2,0
									c-0.4,0-0.8,0-1.2,0.1c-0.2,0-0.4,0.1-0.6,0.1l-0.6,0.1l-1.2,0.2L21.3,36.5z"/>
							</g>
							<g>
								<path fill="#F3F3F3" d="M32.9,33.7c0,0.5,0.1,0.8,0.6,1.1C34,35,35,35,35.2,35c1,0,1-2.6,0-2.6c-0.4,0-1.3-0.1-1.6-0.1
									C33.2,32.4,32.9,33.1,32.9,33.7z"/>
							</g>
						</g>
						<g>
							<g>
								<polygon fill="#E8EAE9" points="5.1,30.9 7.1,44.1 12.8,43.2 10.9,30 								"/>
							</g>
							<g>
								<polygon fill="#415A6B" points="0,29.9 2.7,48 11.3,46.7 8.6,28.6 								"/>
							</g>
						</g>
					</g>
					<g>
						<path fill="#F3F3F3" d="M45.6,31.5c0,0-0.4-0.6-0.1-1c0.3-0.3,2-0.9,2.4-0.5"/>
					</g>
				</g>
			</g>
		</g>
		<rect x="31.7" y="20.5" fill="#415A6B" width="10" height="9"/>
		<rect x="32.7" y="21.5" fill="#8AD7F8" width="3.4" height="6.9"/>
		<rect x="37.2" y="21.5" fill="#8AD7F8" width="3.4" height="6.9"/>
	</g>
</g>
</svg>
