<?xml version="1.0" encoding="utf-8"?>
<!-- Generator: Adobe Illustrator 18.0.0, SVG Export Plug-In . SVG Version: 6.00 Build 0)  -->
<!DOCTYPE svg PUBLIC "-//W3C//DTD SVG 1.1//EN" "http://www.w3.org/Graphics/SVG/1.1/DTD/svg11.dtd">
<svg version="1.1" id="Layer_1" xmlns="http://www.w3.org/2000/svg" xmlns:xlink="http://www.w3.org/1999/xlink" x="0px" y="0px"
	 viewBox="0 0 48 48" enable-background="new 0 0 48 48" xml:space="preserve">
<g>
	<g>
		<g>
			<g>
				<path fill="#415A6B" d="M30.7,0H3C1.3,0,0,1.3,0,3v42c0,1.7,1.3,3,3,3h27.7c1.7,0,3-1.3,3-3V3C33.7,1.3,32.3,0,30.7,0z"/>
				<g>
					<rect x="3.8" y="6.5" fill="#55C0EB" width="26.1" height="33"/>
				</g>
			</g>
			<g>
				<circle fill="#344A5E" cx="16.8" cy="43.7" r="2.5"/>
			</g>
		</g>
		<g>
			<path fill="#344A5E" d="M19.1,4h-6.5c-0.4,0-0.7-0.3-0.7-0.7l0,0c0-0.4,0.3-0.7,0.7-0.7h6.5c0.4,0,0.7,0.3,0.7,0.7l0,0
				C19.8,3.7,19.5,4,19.1,4z"/>
		</g>
		<line fill="#415A6B" x1="28.7" y1="0" x2="3" y2="0"/>
		<g>
			<g>
				<circle fill="#F3705A" cx="43.8" cy="12.6" r="4.2"/>
			</g>
			<g>
				<g>
					<path fill="#FFD15C" d="M28.9,35.9L28.9,35.9c-1.5,0.5-3.1-0.2-3.8-1.6l-4.4-8.2l6.2-2l3.8,7.2C31.8,33.1,30.9,35.3,28.9,35.9z
						"/>
				</g>
				<g>
					<g>
						<path fill="#E8EAE9" d="M21.7,13.9l-1.4,0.4l3.4,10.5l1.4-0.4c6.3-2,13.1-1.8,19.3,0.6L37.1,2.2C33.5,7.7,28,11.9,21.7,13.9z"
							/>
					</g>
					<g>
						<g>
							<path fill="#FFD15C" d="M46.4,26.3c-0.9,0.3-1.9-0.2-2.2-1.1L36.9,2.2c-0.3-0.9,0.2-1.9,1.1-2.2c0.9-0.3,1.9,0.2,2.2,1.1
								l7.3,22.9C47.8,25,47.3,26,46.4,26.3z"/>
						</g>
					</g>
					<path fill="#F3705A" d="M27.1,24.9l-5.2,1.7c-3.5,1.1-7.2-0.8-8.3-4.3l0,0c-1.1-3.5,0.8-7.2,4.3-8.3l5.2-1.7
						c0.5-0.2,1.1,0.1,1.3,0.7l3.4,10.6C27.9,24.2,27.6,24.7,27.1,24.9z"/>
				</g>
			</g>
		</g>
	</g>
</g>
</svg>
