<?xml version="1.0" encoding="utf-8"?>
<!-- Generator: Adobe Illustrator 18.0.0, SVG Export Plug-In . SVG Version: 6.00 Build 0)  -->
<!DOCTYPE svg PUBLIC "-//W3C//DTD SVG 1.1//EN" "http://www.w3.org/Graphics/SVG/1.1/DTD/svg11.dtd">
<svg version="1.1" id="Layer_1" xmlns="http://www.w3.org/2000/svg" xmlns:xlink="http://www.w3.org/1999/xlink" x="0px" y="0px"
	 viewBox="0 0 48 48" enable-background="new 0 0 48 48" xml:space="preserve">
<g>
	<g>
		<path fill="#E8EAE8" d="M10.8,9.2c0,0-0.4,3.2,0.9,3.1s1.2-1.3,1.2-1.3S12.1,8.9,10.8,9.2z"/>
	</g>
	<g>
		<g>
			<polygon fill="#E8EAE8" points="40.8,12 42,19.1 45.9,18.9 47.2,18.8 45.9,11 			"/>
		</g>
		<g>
			<path fill="#FFD15C" d="M41.3,14.9l0.1,0.6c0,0,0.2,0,0.4,0c0.2,0,0.4-0.2,0.5-0.2l0.3-0.3c0,0,0.4,0.4,0,0.7
				c-0.4,0.4-0.8,0.4-0.8,0.4s-0.1,0.4-0.4,0.5l0.1,0.7c0,0-0.3,0.4-0.9,0.5c-0.6,0.1-1.2,0.6-1.2,0.6l0.3-1.9c0,0,0.4-0.1,0.6-0.4
				C40.6,15.9,41,15,41.3,14.9z"/>
		</g>
		<g>
			<path fill="#344A5E" d="M1.3,17.8l5.4-0.4c0.3,0,0.5-0.3,0.5-0.6l-1.1-10c0-0.3-0.3-0.5-0.6-0.5L0.5,6.5C0.2,6.5,0,6.8,0,7.1
				l0.8,10.2C0.8,17.6,1,17.8,1.3,17.8z"/>
		</g>
		<g>
			<path fill="#F5B54C" d="M11,12.4c0-0.2-1-0.1-1.4,0c-0.4,0-0.7,0.2-0.6,0.4c0,0.2,0.3,0.3,0.7,0.2C10,12.9,11,12.5,11,12.4z"/>
		</g>
		<g>
			<g>
				<path fill="#F05640" d="M9,13.9H8.4v-0.7H9c0.2,0,0.4-0.2,0.4-0.4v-2.5C9.4,10.1,9.2,10,9,10H8.2V9.2H9c0.6,0,1.1,0.5,1.1,1.1
					v2.5C10.1,13.4,9.6,13.9,9,13.9z"/>
			</g>
		</g>
		<g>
			<g>
				<path fill="#FFD15C" d="M11.7,9.9c0,0-0.1,0-0.4-0.1c-0.4-0.1-1.4,0-1.7,0.1C9.3,10,9,10.2,9,10.2s-0.3,0.3,0.1,0.5
					c0,0-0.5,0.4,0,0.7c0,0-0.4,0.2,0,0.6c0,0-0.3,0.5,0.1,0.7c0.4,0.2,1.1,0,1.3-0.1c0.2-0.1,0.8-0.4,1.4-0.6
					c0.5-0.2,0.5-0.3,0.5-0.3L11.7,9.9z"/>
			</g>
			<g>
				<g>
					<path fill="#F5B54C" d="M9.1,10.7C9.1,10.7,9.1,10.7,9.1,10.7c0.1,0,0.2-0.1,0.2-0.1c0.1,0,0.1,0,0.2,0c0,0,0.1,0,0.1,0
						s0,0-0.1,0c0,0-0.1,0-0.2,0C9.3,10.7,9.2,10.7,9.1,10.7C9.1,10.7,9.1,10.7,9.1,10.7z"/>
				</g>
				<g>
					<path fill="#F5B54C" d="M9.1,11.4C9.1,11.4,9.1,11.4,9.1,11.4c0.1,0,0.1-0.1,0.1-0.1c0,0,0.1,0,0.1,0c0,0,0,0,0,0s0,0,0,0
						c0,0,0,0,0,0c0,0-0.1,0-0.1,0C9.2,11.4,9.2,11.4,9.1,11.4C9.1,11.4,9.1,11.4,9.1,11.4z"/>
				</g>
				<g>
					<path fill="#F5B54C" d="M9.2,12C9.2,12,9.2,12,9.2,12c0.1,0,0.1,0,0.1-0.1c0,0,0.1,0,0.1,0c0,0,0,0,0,0s0,0,0,0
						c0,0-0.1,0-0.1,0C9.3,12,9.2,12,9.2,12C9.2,12,9.2,12,9.2,12z"/>
				</g>
			</g>
		</g>
		<g>
			<path fill="#67C5B8" d="M30.9,17.9c0,0,1.9,2.3,2.3,2.5c0.4,0.2,1.5,0,2.2-0.1c0.7-0.2,3.8-1.1,4.8-1.1c0,0,0.1-1.1,0-1.8
				c-0.2-0.7-0.1-1-0.1-1s-3.3,0.5-4,0.8c-0.8,0.2-1.4,0.3-1.4,0.3s-0.6,0-1-0.7c-0.5-0.9-0.7-1.5-0.7-1.5L30.9,17.9z"/>
		</g>
		<g>
			<path fill="#67C5B8" d="M24.9,7.7l-0.8-0.5c0,0-0.9,0.4-1.4,0.6c-0.4,0.2-1.7,0.3-3,0.1c-1.4-0.2-8.9,1.2-8.9,1.2
				s1.1,0.9,1.1,1.9c-0.1,1-0.2,1.3-0.4,1.4c0,0,2.4-0.3,3.1-0.4c0.6-0.1,3.9-0.4,4.8-0.4c0.9,0,3.2,0.5,3.5,0.7
				c0.3,0.2,0.8,0.2,0.8,0.2S27.3,8.5,24.9,7.7z"/>
		</g>
		<g>
			<path fill="#CED6E0" d="M8,37.7c0,0,1.9-0.5,2.8-0.3s1,0.2,1,0.2l-1-2.3c0,0-1.7-0.6-2.1-0.8c-0.4-0.3-0.4-0.3-0.4-0.3
				S5.7,36.1,8,37.7z"/>
		</g>
		<g>
			<path fill="#344A5E" d="M7.4,34l-0.3-0.2l-0.7-0.2l-0.9,1.7l0.2,0.4c0,0-0.9,1-1.3,2.5c-0.5,1.5-0.4,3-0.3,3.2
				c0.1,0.2,0.3,0.2,0.3,0.2L7.4,34z"/>
		</g>
		<g>
			<path fill="#CED6E0" d="M43.7,39.4l-0.5-0.5c0,0-0.5,0-0.9-0.1c-0.4-0.1-2.1-2-2.1-2l-0.9,2.1c0,0,1,1.6,1.2,1.9
				c0.1,0.3,0.6,0.4,0.6,0.4S43.7,40.3,43.7,39.4z"/>
		</g>
		<g>
			<path fill="#344A5E" d="M41.3,42.7l0.3,0.5l2-1.2l-0.1-0.4c0,0,2.2-1,3.1-1.7c0.9-0.7,1.4-1.8,1.4-1.8l-0.2-0.2l-1.6,1.2
				C46.3,39.1,41.5,41.8,41.3,42.7z"/>
		</g>
		<g>
			<path fill="#425A6B" d="M19.8,22.8c0,0,2.1,0.3,3.7,0.8c1.6,0.5,2.6,1.1,2.6,1.1s0.2,0.5,0.6,0.5s2.8,0.4,5.7,1.5
				c2.9,1.2,3.4,1.8,3.6,2.2c0.2,0.4,0.5,1.4,1.5,2.2c1,0.8,1.3,1.9,2.3,2.5c1,0.6,2.5,1.8,2.5,1.8s-2.2,3.4-3,3.7
				c0,0-2.3-2.6-2.7-3c-0.4-0.4-3-4-3.3-4.5c-0.2-0.3-0.8-0.4-1.2-0.5c-0.4-0.1-7.7-1.1-7.7-1.1s-0.8,2.8-1.2,5.7
				c-0.4,2.9-0.6,3.9-1.6,4.3c-0.9,0.5-2.7,0.1-3.4-0.1c-0.7-0.2-7.9-2.2-7.9-2.2s-0.3-2.5,0-2.9l2.7,0.4c0,0,5,0.3,5.6,0.7
				c0,0-0.2-3.4,0-4.7c0.2-1.3,0.1-2.1,0.1-2.1s-1.6-2.7-0.3-5.9"/>
		</g>
		<g>
			<path fill="#48B9A5" d="M32.8,11.9c0,0,1.5,1.3,1.5,1.7c0,0.3-0.5,1.9-0.7,2.4c-0.2,0.5-1.4,2.4-1.5,2.9s-0.1,0.8,0.3,1.2
				c0.4,0.3,1.9,1.3,1.9,1.3c-0.2,0.6-1,1-1.8,1.5l-4-2.6L32.8,11.9z"/>
		</g>
		<g>
			<path fill="#CED6E0" d="M32.8,22.6c0,0-0.7,0.1-1.1-1.1c-0.4-1.2-0.7-2.7,0-3.8c0.7-1.1,2.3-3.1,2.2-3.5c-0.1-0.5-1.5-2-1.5-2
				h-1.4l-4.3,10.9c0,0,2.3,0.3,3.2,0.1C30.7,23,31.8,23.1,32.8,22.6z"/>
		</g>
		<g>
			<path fill="#E8EAE8" d="M31.2,12.6c0,0,0.5,1.6,0,3c-0.4,1.3-2.9,4.8-3.3,5.4c-0.4,0.6-1.8,3.1-1.9,3.7l-5.7-1.5l4.4-5.9l4.3-6.5
				l1.7,1.7L31.2,12.6z"/>
		</g>
		<g>
			<path fill="#48B9A5" d="M27.9,9.3c0,0-0.5-0.7-1.6-1.1c-1.1-0.5-2.2-0.8-2.2-0.8S25.2,7.9,25,9c-0.2,1.1-1.1,3-2.1,3.4
				c0,0-2.2,4.5-3.7,6.5c-1.5,2-2.3,4.5-2.9,5c0,0,3.4,0.2,5.3-0.8c1.9-1,5.8-4.8,6.1-6.2c0.4-1.4,0.4-1.5,0.4-1.5
				S28.8,10.2,27.9,9.3z"/>
		</g>
		<g>
			<path fill="#FFD15C" d="M34.4,10.5c-0.2,0.2-0.4,0.1-0.4,0.1s-0.1,0.1-0.1,0.2s-0.1,0.3-0.2,0.3c0,0,0.2,0.1,0,0.3
				c-0.1,0.2-0.4,0.5-0.4,0.8c0,0.3-0.3,0.7-0.6,0.6c-0.4-0.1-1-0.3-1.3-0.3c-0.1,0-0.1,0-0.2,0l-0.5-0.1l-0.7-0.7l-1.5-2.5L29,9.1
				c0,0,2.6-5.6,5.3-2.3l0,0.6l0.1,1.3c0,0-0.3,0.3-0.2,0.6C34.3,9.7,34.6,10.3,34.4,10.5z"/>
		</g>
		<g>
			<path fill="#F26F5A" d="M31,13.1c0,0,0.1,0.9,0.1,1.1c0,0.1,0.1,1.2,0.1,2.1c0.1,0.8,0,1.6-0.2,2.4l0,0c-0.2,0.8-0.5,1.6-0.9,2.3
				c-0.4,0.7-0.9,1.5-1.2,2c-0.3,0.5-0.7,1-1.1,1.4l-0.1,0.1c0,0-1-0.2-1-0.7c0,0,0.7-0.6,1-1.2c0.3-0.6,1.4-2,1.6-2.5
				c0.2-0.5,1-1.5,1.1-3.1c0.1-1.5,0-3.9,0-3.9S30.7,12.6,31,13.1z"/>
		</g>
		<g>
			<path fill="#F05640" d="M29.8,12.1c0,0,0.2,0.7,0.5,1c0,0,0.6-0.2,0.7,0l0.2-0.4l-0.5-0.2L29.8,12.1z"/>
		</g>
		<g>
			<path fill="#F3F3F3" d="M29.2,9.4c0,0,1.2,1.2,1.4,1.8c0.2,0.6,0.2,1.4,0.2,1.4l-1.1-0.1l-1.5-2.3C28.1,10.1,28.2,10.1,29.2,9.4z
				"/>
		</g>
		<g>
			<path fill="#425A6B" d="M27.9,9.7c0,0,2.2-0.1,2.6-0.3c0,0,0.1-1.3,0.6-1.5c0.6-0.2,0.2,1,0.2,1l0.4,0c0,0,0.5-0.6,0.5-1.2
				c0,0,0.6-0.1,0.4-0.7c-0.2-0.6,0.5-0.8,0.9-0.6c0.3,0.3,0.8,1.2,0.8,1.2s0.5-0.7,0.5-1.2c-0.1-0.8-1.8-1.5-3.2-1.5
				c-1.3,0-2.5,0.8-2.8,1.4C28.5,6.9,27.8,8.5,27.9,9.7z"/>
		</g>
		<g>
			<path fill="#FFD15C" d="M31.5,8.5c0.1-0.6-0.1-1-0.4-1s-0.6,0.4-0.7,1c-0.1,0.6,0.1,1,0.4,1C31.1,9.5,31.4,9.1,31.5,8.5z"/>
		</g>
		<g>
			<path fill="#67C5B8" d="M27.8,9c0.2,0.1,0.4,0.2,0.6,0.3c0.4,0.3,1,0.9,1,1.3c0.1,0.6-0.6,3.1-0.8,3.6c-0.2,0.5-1,2.8-1,2.8
				s0-3.5,0.1-4.2C27.8,12.1,27.9,9.4,27.8,9L27.8,9z"/>
		</g>
		<g>
			<path fill="#344A5E" d="M32.9,31.3c-0.1-0.1-7.7-2.3-7.1-3.1c0.2-0.3,1.6-1.5,1.9-1.8c0.3-0.3-1.4,1.1-1.9,1.7s-0.3,0.2,0.5-1.1
				s0.5-1,0.5-1s-1.1,1.6-1.4,2.2c-0.3,0.6-0.8,1.8-0.8,1.8s7.3,1,7.7,1.1C32.4,31.2,32.7,31.2,32.9,31.3z"/>
		</g>
		<g>
			<path fill="#425A6B" d="M40.6,40.8c0,0,2-0.1,2.4-2c0,0,2,0,2.3,0s1.1-0.2,1.3-0.4c0.2-0.3,0.9-1,1.3-0.5c0,0-0.7,1.2-1.4,1.7
				c-0.7,0.5-3.1,1.6-3.4,1.8c-0.3,0.2-1.8,1.2-1.8,1.2S40.4,41.6,40.6,40.8z"/>
		</g>
		<g>
			<path fill="#425A6B" d="M8.7,34.5c0,0-1,0.8-1,1.6c0,0.8,0.6,1.7,0.6,1.7s-1.5,0.7-1.9,1.1c-0.4,0.4-1.1,1.2-1.2,1.8
				c-0.1,0.5-0.3,1-0.8,0.8c0,0-0.3-1.3,0-2.4c0.3-1.1,0.9-2.5,1.3-3c0.5-0.5,1.1-2.2,1.4-2.4C7.1,33.7,8.4,33.7,8.7,34.5z"/>
		</g>
		<g>
			<path fill="#425A6B" d="M8.1,6.1l0.7,11.1c0,0-0.3,0.8-3.7,0.4L4.5,6.1C4.5,6.1,8.1,5.8,8.1,6.1z"/>
		</g>
	</g>
</g>
</svg>
