<?xml version="1.0" encoding="utf-8"?>
<!-- Generator: Adobe Illustrator 18.0.0, SVG Export Plug-In . SVG Version: 6.00 Build 0)  -->
<!DOCTYPE svg PUBLIC "-//W3C//DTD SVG 1.1//EN" "http://www.w3.org/Graphics/SVG/1.1/DTD/svg11.dtd">
<svg version="1.1" id="Layer_1" xmlns="http://www.w3.org/2000/svg" xmlns:xlink="http://www.w3.org/1999/xlink" x="0px" y="0px"
	 viewBox="0 0 48 48" enable-background="new 0 0 48 48" xml:space="preserve">
<g>
	<g>
		<g>
			<g>
				<g>
					<path fill="#F3F3F3" d="M10.6,0L0,10.6L0,45c0,1.7,1.3,3,3,3h32c1.7,0,3-1.3,3-3V3c0-1.7-1.3-3-3-3L10.6,0z"/>
				</g>
				<g>
					<polygon fill="#CED6E0" points="10.6,0 0,10.6 10.6,10.6 					"/>
				</g>
			</g>
			<g>
				<rect x="5.2" y="40.4" fill="#CED6E0" width="27.6" height="2.5"/>
				<rect x="5.2" y="31.6" fill="#CED6E0" width="27.6" height="2.5"/>
				<rect x="5.2" y="22.8" fill="#CED6E0" width="27.6" height="2.5"/>
				<rect x="5.2" y="13.9" fill="#CED6E0" width="27.6" height="2.5"/>
				<rect x="15.8" y="5.1" fill="#CED6E0" width="17" height="2.5"/>
			</g>
		</g>
		<g>
			<g>
				
					<rect x="34.7" y="34.7" transform="matrix(0.7071 -0.7071 0.7071 0.7071 -15.4324 37.2566)" fill="#344A5E" width="5.2" height="5.2"/>
			</g>
		</g>
		<g>
			<g>
				<circle fill="#F3F3F3" cx="27.7" cy="27.7" r="11"/>
				<path fill="#415A6B" d="M36.5,36.5c-4.9,4.9-12.8,4.9-17.7,0s-4.9-12.8,0-17.7s12.8-4.9,17.7,0S41.4,31.6,36.5,36.5z M21,21
					c-3.7,3.7-3.7,9.7,0,13.4c3.7,3.7,9.7,3.7,13.4,0c3.7-3.7,3.7-9.7,0-13.4C30.7,17.3,24.7,17.3,21,21z"/>
			</g>
		</g>
		<g>
			<g>
				<g>
					<g>
						<path fill="#F3705A" d="M46.8,46.8L46.8,46.8c-1.6,1.6-4.3,1.6-5.9,0L36.1,42l5.9-5.9l4.8,4.8C48.4,42.5,48.4,45.1,46.8,46.8z
							"/>
					</g>
				</g>
			</g>
			<g>
				<g>
					<g>
						
							<rect x="38.7" y="35.7" transform="matrix(0.7071 0.7071 -0.7071 0.7071 39.8385 -16.5016)" fill="#F05540" width="2.3" height="8.4"/>
					</g>
				</g>
			</g>
			<g>
				<g>
					<g>
						<path fill="#F3705A" d="M42.6,36.6l-5.9,5.9c-0.5,0.5-1.3,0.5-1.8,0c-0.5-0.5-0.5-1.3,0-1.8l5.9-5.9c0.5-0.5,1.3-0.5,1.8,0
							C43,35.4,43,36.2,42.6,36.6z"/>
					</g>
				</g>
			</g>
		</g>
		<g>
			<g>
				<path fill="#66C6B9" d="M34,25.3l-7.3,7.3c-0.5,0.5-1.2,0.5-1.7,0L21.4,29c-0.5-0.5-0.5-1.2,0-1.7c0.5-0.5,1.2-0.5,1.7,0
					l2.8,2.8l6.4-6.4c0.5-0.5,1.2-0.5,1.7,0C34.4,24.1,34.4,24.8,34,25.3z"/>
			</g>
		</g>
	</g>
</g>
</svg>
