<?xml version="1.0" encoding="utf-8"?>
<!-- Generator: Adobe Illustrator 19.0.1, SVG Export Plug-In . SVG Version: 6.00 Build 0)  -->
<svg version="1.1" id="Layer_1" xmlns="http://www.w3.org/2000/svg" xmlns:xlink="http://www.w3.org/1999/xlink" x="0px" y="0px"
	 viewBox="0 0 48 48" style="enable-background:new 0 0 48 48;" xml:space="preserve">
<style type="text/css">
	.st0{fill:#FFD15C;}
	.st1{fill:#415A6B;}
	.st2{fill:#F7B64C;}
	.st3{fill:#CED6E0;}
	.st4{fill:#344A5E;}
	.st5{fill:#F3F3F3;}
	.st6{fill:#F05540;}
	.st7{fill:#F3705A;}
	.st8{fill:#66C6B9;}
	.st9{fill:#55C0EB;}
	.st10{fill:#F5F6FB;}
	.st11{fill:#4ABAA5;}
	.st12{fill:#ADB3BA;}
	.st13{fill:#E8EAE9;}
	.st14{fill:#2E4556;}
	.st15{fill:#8AD7F8;}
	.st16{fill:#FFFFFF;}
	.st17{fill:#E54838;}
	.st18{fill:#3EAF99;}
	.st19{fill:#EFA943;}
	.st20{fill:#4CAEE5;}
	.st21{fill:#293F4F;}
	.st22{fill:#2D4456;}
	.st23{fill:#2E4454;}
	.st24{fill:#2A3F4F;}
	.st25{fill:#2D4151;}
	.st26{fill:#E89E3D;}
	.st27{fill:#2B4151;}
	.st28{fill:#2A4051;}
	.st29{fill:#2C4151;}
	.st30{fill:#EBEAE8;}
	.st31{fill:#3AA590;}
	.st32{fill:#E84534;}
	.st33{fill:none;}
</style>
<g>
	<g>
		<g>
			<g>
				<g>
					<path class="st3" d="M44.3,28.6l-0.1-0.1c0,0,0.6-0.9,1-1.5c0.4-0.6,2-2.5,2.5-3l0.1,0.1c-0.6,0.5-2.2,2.4-2.5,2.9
						C44.9,27.6,44.3,28.6,44.3,28.6z"/>
				</g>
			</g>
			<g>
				<g>
					<path class="st3" d="M44.3,28.2l-0.2-0.1c0-0.1,0.7-1.7,1.1-2.4c0.4-0.6,2.3-3.2,2.4-3.3l0.1,0.1c0,0-2,2.6-2.3,3.3
						C45,26.4,44.3,28.2,44.3,28.2z"/>
				</g>
			</g>
			<g>
				<g>
					<path class="st3" d="M44.2,27.7L44,27.7c0,0,0.6-1.7,1.1-2.8c0.5-1,2.1-3.8,2.2-3.8l0.2,0.1c0,0-1.7,2.8-2.2,3.8
						C44.8,26,44.2,27.7,44.2,27.7z"/>
				</g>
			</g>
			<g>
				<g>
					<path class="st3" d="M43.9,27.6l-0.2,0c0,0,0.5-2,0.9-3.1c0.4-1.1,2.2-4,2.3-4.1l0.1,0.1c0,0-1.9,3-2.3,4.1
						C44.5,25.5,43.9,27.5,43.9,27.6z"/>
				</g>
			</g>
			<g>
				<g>
					<path class="st3" d="M43.8,27.2l-0.2,0c0,0,0.3-1.9,0.9-3.7c0.6-1.7,1.8-4.4,1.8-4.4l0.2,0.1c0,0-1.2,2.7-1.8,4.4
						C44.1,25.2,43.8,27.2,43.8,27.2z"/>
				</g>
			</g>
			<g>
				<g>
					<path class="st3" d="M43.4,26.8l-0.2,0c0,0,0.5-2.3,0.7-3.2c0.2-1,1.7-4.6,1.8-4.8l0.2,0.1c0,0-1.6,3.8-1.8,4.8
						C43.9,24.5,43.4,26.8,43.4,26.8z"/>
				</g>
			</g>
		</g>
		<g>
			<g>
				<path class="st3" d="M36.1,30.1c0,0.4-0.1,0.7-0.2,1c-0.4,1.2-2.3,6.4-2.3,6.4c-0.1,0.1,0,0.3,0.2,0.3l0,0
					c0.1,0.1,0.3,0,0.3-0.1c0.1-0.1,1.9-5.3,2.3-6.5c0.1-0.4,0.2-0.8,0.2-1.2H36.1z"/>
			</g>
		</g>
		<g>
			<g>
				<path class="st12" d="M39.4,33.2c-2.8,0-5-1.9-5-4.2s2.3-4.2,5-4.2c2.8,0,5,1.9,5,4.2S42.2,33.2,39.4,33.2z M39.4,25.2
					c-2.5,0-4.6,1.7-4.6,3.7s2,3.7,4.6,3.7S44,31,44,29S41.9,25.2,39.4,25.2z"/>
			</g>
		</g>
		<g>
			<g>
				<path class="st3" d="M43.4,37.1L43.4,37.1c-0.1,0-0.3-0.1-0.3-0.3c0-0.1,0-3.6,0.1-4.9c0.1-1.4,0.9-2.9,2.1-3.8
					c1.1-0.9,1.5-1.7,1.9-3c0.2-0.6,0.2-1.8,0-3.2c-0.2-1.4-0.7-2.5-1.3-2.8c-0.3-0.2-0.6-0.2-0.9-0.1c-0.4,0.1-1,0.7-1.6,2.5
					c-0.4,1.2-1.8,5.5-1.8,5.5c0,0.1-0.2,0.2-0.3,0.2c-0.1,0-0.2-0.2-0.2-0.3c0,0,1.4-4.3,1.8-5.5c0.5-1.6,1.2-2.5,1.9-2.8
					c0.4-0.2,0.9-0.1,1.3,0.2c1.7,1,1.9,5.2,1.5,6.6c-0.4,1.4-0.9,2.3-2.1,3.3c-1.1,0.9-1.8,2.2-1.9,3.4c-0.1,1.3-0.1,4.8-0.1,4.9
					C43.7,36.9,43.6,37.1,43.4,37.1z"/>
			</g>
		</g>
		<g>
			<ellipse class="st8" cx="39.2" cy="28.3" rx="4.9" ry="4"/>
		</g>
		<g>
			<path class="st1" d="M33.1,32.2c0,0-0.4,0.3-1,0.7c-0.6,0.4-1.1,0.8-1.1,1.1c0,0.4,0,0.7,0.8,0.8s1.2,0.2,1.6-0.3
				c0.4-0.5,1.1-1.2,1.3-1.3s0.2-0.1,0.2-0.1l0.1,0.8l0.4,0c0,0,0.7-1.6,0.6-2.2c-0.1-0.6-0.4-0.7-0.7-0.6
				C34.9,31.1,33.1,32.2,33.1,32.2z"/>
		</g>
		<g>
			<ellipse class="st7" cx="25" cy="31.6" rx="4.7" ry="3.7"/>
		</g>
		<g>
			<path class="st2" d="M32.1,33.2c0,0,0.1,0.5,0.3,0.7c0.3,0.2,0.8,0.1,1-0.1c0.2-0.2,0.8-0.8,1.2-1.1c0.4-0.3,0.9-0.8,0.9-1.2
				s-0.5-0.8-0.5-0.8L33,28l3.4-0.9l1-0.5l-1.4-1l-6.8,1.4c0,0-1.9,1.2-0.6,2.3c1.3,1.1,2.7,1.1,3.4,1.6c0.8,0.5,1.2,0.9,1.2,1.2
				s-0.4,0.4-0.7,0.7C32.1,33,32.1,33,32.1,33.2z"/>
		</g>
		<g>
			<path class="st1" d="M35.8,27.7l-1-0.4c0,0-0.6-0.9-1.1-1.2l2.9-0.8l0.7,2"/>
		</g>
		<g>
			<path class="st1" d="M25.4,36.3c0,0-0.3,0-1.2,0.5c-0.8,0.5-1,0.7-1,1c0,0.2,0.5,0.9,1.2,0.9s1.4-0.1,1.7-0.4
				c0.3-0.3,1.4-1.1,1.4-1.1l0.1,0.3c0,0,0.3-0.1,0.5-0.3s0.2-0.5,0.3-0.6c0.1-0.1,0.4-0.4,0.4-0.7c0-0.3-0.1-0.5-0.4-0.7
				C28.1,35.1,25.4,36.3,25.4,36.3z"/>
		</g>
		<g>
			<g>
				<path class="st3" d="M5.6,33.8C5.6,34,5,34,5,33.8l-0.2-3.3h0.5L5.6,33.8z"/>
			</g>
			<g>
				<path class="st3" d="M12.4,38c0,0.3-0.5,0.3-0.5,0l-0.4-5.1h0.5L12.4,38z"/>
			</g>
		</g>
		<g>
			<path class="st0" d="M25.4,36.3c0,0-0.7,0.3-0.8,0.6c-0.1,0.3,0,0.8,0.3,1.1c0.3,0.2,0.5,0.3,0.9,0.2c0.3-0.2,0.8-0.6,1.4-0.9
				s1-1,1-1.2s0.1-0.5,0.1-0.5s1.8-1.8,2.2-2.5c0.4-0.8,0.5-2.2,0.5-2.2c0-0.1,0-0.1,0-0.1s1-0.2,1.7-0.2c0.6,0,3.9,0.4,4.5,0.4
				c0.6,0,0.7-1.2,0.7-1.2l-1.9-2.5c0,0-2.9,0.3-3.8,0.3s-1.8-0.1-2.5,0c-0.7,0.2-1.2,0.9-1.4,2c-0.2,1-0.3,2.1-0.6,3
				c-0.3,0.8-0.6,1.8-1,2.3c-0.4,0.5-0.7,0.9-0.8,1S25.4,36.2,25.4,36.3z"/>
		</g>
		<g>
			<path class="st1" d="M34.8,27.3c0,0,1.1,1.7,1.4,2.8c0.3,1,0.3,1,0.3,1s2.9,0.4,4.3-0.4c1.4-0.8,2.1-2.9,1.8-4
				c-0.3-1.2-0.9-2.1-0.9-2.1s0,1.5-1.2,2c-1.2,0.6-3.1-0.6-3.1-0.6S35.4,27.3,34.8,27.3z"/>
		</g>
		<g>
			<path class="st8" d="M2.1,24.2c0.3,2.5,1.3,6.1,1.7,7.1c0.4,1,6.3,3.1,8.1,2.5s0.5-1.3,0.5-1.3L2.1,24.2z"/>
		</g>
		<g>
			<g>
				<path class="st4" d="M12.9,22.8c0,0,4.1,5.2,5.8,5.8s-1.2,8.2-1.2,8.2l-2.7-1.3c0,0-1-4.3-3.5-6.3S8.3,26,8.3,26
					C8.8,22.8,10.1,21.3,12.9,22.8z"/>
			</g>
			<g>
				<path class="st3" d="M14.8,38l0.5-1.2l1.9,0.4l0.4,0.5l0.5,1.6c0,0-1.7,0.3-2,0.1C15.6,39.2,14.8,38,14.8,38z"/>
			</g>
			<g>
				<path class="st1" d="M14.8,38.2c0,0-0.2,0.4-0.1,0.6c0.1,0.2,1,1,1,1l0.1-0.1c0,0,0.6,0.8,0.8,1.1s0.5,1,2,1.2
					c1.5,0.2,1.9,0.1,2.1-0.1c0.2-0.2,0.4-0.4,0.1-0.9c-0.3-0.5-2.2-0.9-2.2-0.9s-2-0.5-2.6-1S14.8,38.2,14.8,38.2z"/>
			</g>
			<g>
				<path class="st4" d="M15,37.7c0,0,0.1,0.9,0.5,1.1c0.4,0.2,0.8,0.3,1.1,0s1.2-0.7,1.2-0.7s0.6,0.8,1,1c0.5,0.2,1.3,1.3,1.6,1.6
					c0.3,0.3,0.4,0.6,0.3,0.8c-0.1,0.2-0.3,0.5-1.3,0.5c-1-0.1-2.2-0.2-2.6-0.9c-0.4-0.7-0.9-1.2-1.3-1.7c-0.4-0.5-1.4-0.8-0.7-2
					L15,37.7z"/>
			</g>
			<g>
				<path class="st1" d="M7.8,31.3c0,0,1.7,1.7,4.6,2.9c0,0,0.4,0.6,0.6,0.8c0.2,0.2,1.7,2.5,2,2.7c0.2,0.2,1.1,0.4,2,0.6
					s1.8-0.4,1.8-0.4s-1.4-2.2-1.8-3c-0.4-0.7,0.3-1.8-0.7-2.8c-1-1-1-1-1-1l-4.6-3.9L7.8,31.3z"/>
			</g>
			<ellipse class="st4" cx="12.2" cy="20.4" rx="2" ry="3.3"/>
			<g>
				<path class="st32" d="M26.7,31.6c0,0.7-0.7,1.3-1.7,1.3c-0.9,0-1.7-0.6-1.7-1.3c0-0.1,0-0.2,0.1-0.3c0.4-1.3,0.7-2.7,0.7-4.1v-3
					h1.8v2.9c0,1.4,0.3,2.8,0.7,4.1C26.7,31.4,26.7,31.5,26.7,31.6z"/>
			</g>
			<g>
				<g>
					<path class="st6" d="M36,20v1.4c0,4.8-4.9,8.8-11,8.8c-6.1,0-11-3.9-11-8.8V20h0.1c0.9-4.2,5.4-7.3,10.9-7.3
						c5.5,0,10,3.2,10.9,7.3H36z"/>
				</g>
				<g>
					<ellipse class="st7" cx="25" cy="20" rx="11" ry="8.8"/>
				</g>
				<g>
					<g>
						<polygon class="st1" points="24.1,22.2 31.6,26.6 35.2,22.6 28.3,19.5 						"/>
					</g>
					<g>
						<polygon class="st16" points="34.6,22.7 31.6,26.1 25.2,22.5 28.9,20.1 						"/>
					</g>
					<g>
						<polygon class="st3" points="29.9,21.1 27.3,23.1 27.6,23.2 30.2,21.3 						"/>
						<polygon class="st3" points="31.1,21.7 28.6,23.8 28.9,24 31.4,21.8 						"/>
						<polygon class="st3" points="32.2,22.2 29.9,24.6 30.1,24.7 32.5,22.4 						"/>
						<polygon class="st3" points="33.4,22.8 31.2,25.3 31.4,25.5 33.7,22.9 						"/>
					</g>
				</g>
				<path class="st0" d="M29.7,20.8c0,0-0.3,0.1-0.9,0.1c-0.6,0-1.4-0.1-1.6-0.1c-0.2,0-0.3,0.2-0.4,0.3s-0.5,0.6-0.5,0.6
					s-0.1,0.2-0.1,0.3c0,0.2,0.1,1.2,0.1,1.2s0.3,0,0.3-0.6c0,0,0.8,0.5,0.9,0.5c0.1,0,0.2-0.1,0.1-0.3c0,0,0.2-0.1,0.1-0.3
					c-0.2-0.2-0.6-0.4-0.6-0.4s-0.1-0.1,0-0.2c0.1-0.1,0.3-0.2,0.4-0.2c0,0,0.2,0.3,0.2,0.3l2-0.6L29.7,20.8z"/>
			</g>
			<g>
				<path class="st4" d="M2.6,13.9c0,0-1.6,2.4-2.3,2.9c0,0,1,0,2.1,1.1c1.1,1.1,1.3,5.5,1,7.6s0.3,4.6,0.8,5.4s3.9,2.1,5.5,1.1
					s1.8-3.2,1.8-4.2S10.4,23,10.4,23l-5.6-7.2L2.6,13.9z"/>
			</g>
			<g>
				<path class="st0" d="M10.9,27.3c0,0,0.8,0.1,1,0.2s0.6,0.1,0.8,0.1c0.2,0,1,0.4,1.1,0.5c0.2,0.1,0.5,0.5,0.5,0.5
					s0.1,0.6-0.3,0.4c0,0,0.1,0.3,0,0.4s-0.3,0.1-0.3,0.1s0.1,0.2-0.1,0.4c-0.2,0.1-0.3,0-0.3,0s-0.1,0.2-0.2,0.3
					c-0.1,0.1-0.4-0.5-0.7-0.7c-0.3-0.2-1.5-0.5-1.9-0.7c-0.3-0.2-0.8-0.5-0.8-0.5L10.9,27.3z"/>
			</g>
			<g>
				<path class="st1" d="M8.7,11.5l0-0.2c0,0,0.5,0,0.9,0.5c0.4,0.5,0.5,0.9,0.8,1.1s1.2,1.3,1.4,1.5c0.2,0.2,0.3,0.4,0.5,0.5
					s0.2,0.2,0.3,0.4c0.1,0.1,1.1,1.2,1.6,1.5c0.5,0.3,0.6,0.6,0.9,1c0.3,0.5,0.7,1.2,0.7,1.8s0.3,3.5,0.3,3.5s-1.9-0.4-2.3,0.4
					c0,0-0.7-1.8-0.8-2.4c-0.1-0.7-0.1-0.6-0.2-0.9s-0.3-0.6-0.3-0.9c0-0.3-1.2-0.7-1.2-0.7L8.7,11.5z"/>
			</g>
			<g>
				<path class="st4" d="M6.6,11.5c0,0,1.9-0.3,2.2-0.2c0.3,0.1,0.9,0.5,1.1,1.2s1.4,3.4,1.8,4.5c0.3,1.1,0.3,3.1,0.5,3.5
					c0.1,0.3,3,3.9,3.2,4.6c0.2,0.7-1.2,1.6-1.7,1.5c-0.5-0.1-1.2-4.3-1.2-4.4s-1.7-4.2-2.7-6.2s-3.4-4-3.4-4L6.6,11.5z"/>
			</g>
			<g>
				<path class="st0" d="M13.9,23c0,0,0.1,0.8-0.1,1.2s-0.6,1.1-0.6,1.5s-0.1,1.2-0.1,1.2v0.6c0,0,0.4,0.2,0.4-0.2
					c0,0-0.1,0.6,0.2,0.6c0.3,0,0.4-0.3,0.4-0.4c0,0,0.1,0.2,0.3,0.1c0.2-0.1,0.3-0.2,0.3-0.2s0.1,0.1,0.3,0.1
					c0.2,0,0.2-0.2,0.2-0.2s0.2,0.2,0.4-0.1c0.2-0.3,0.1-1.9,0.1-1.9s-0.1-0.8-0.2-1.1c-0.1-0.4-0.1-1.6-0.1-1.6L13.9,23z"/>
			</g>
			<g>
				<path class="st1" d="M6.5,11.9c0,0,1.1,0.6,1.1,0.6l0.1,0.6l0.9-0.1c0,0,2.2,3.2,2.6,4.6c0.4,1.4,1.2,5.2,1.2,5.2
					s-1.7-3.8-2.2-5c-0.6-1.1-2.3-3.6-2.3-3.6l-1.4-2.3H6.5z"/>
			</g>
			<g>
				<path class="st0" d="M2.7,11.4c0.2,0.4,0.3,0.9,0.2,0.9s-0.5-0.2-0.7-0.7c-0.2-0.4-0.3-0.9-0.2-0.9C2.2,10.7,2.5,11,2.7,11.4z"
					/>
			</g>
			<g>
				<path class="st0" d="M6.5,9.4l0.1,0.3c0,0,0.3,1.1,0.4,1.7s-0.3,1.2-0.3,1.2L6.8,15L3,14.7c0,0-0.1-2.3-0.1-2.5
					c0-0.2-0.3-0.7-0.3-0.7S1.2,9.4,1.2,9c0-0.4-0.3-0.9,1.1-1.6s3-1.1,3.4-0.6C6,7.4,6.5,9.4,6.5,9.4z"/>
			</g>
			<g>
				<path class="st1" d="M2,10.8l0.5,0.8h0c0,0-0.5-0.8-0.5-1.2c0-0.3,0.1-0.6-0.1-0.8S1.7,9.2,1.7,9c0.1-0.2,0.5-0.9,0.8-0.9
					c0.3,0,1.6,0.1,2-0.5S5.9,8,6,8.3s0.5,1.4,0.5,1.4l0,0c0,0-0.2-0.9-0.2-1.3c0-0.5,0.1-1.2-0.9-1.9S4.2,6.2,4.2,6.2
					S3.1,5.3,1.6,6.6S1.3,9.9,2,10.8z"/>
			</g>
			<path class="st2" d="M6.8,14.4l-0.1-1.9l0,0c0,0-0.3,0.8-1.1,1c-0.9,0.1-2.6-1.1-2.6-1.1S4.2,14.2,6.8,14.4z"/>
			<g>
				<path class="st3" d="M10.1,17.9c0.5,0.9,1.7,3.8,2.1,4.6c-0.1,0.6-0.5,1.6-1.3,2.1c-0.3-2.1-7-9.6-7-9.6l2.4-0.9l0.1-0.1
					l0.8-0.5l0.5,0.8C7.8,14.2,9.5,16.7,10.1,17.9z"/>
			</g>
			<g>
				<path class="st5" d="M6.8,12.3l-0.1,0.2c0,0,0.1,0.8-0.1,1.4c0,0,0.4-0.1,0.8,0c0.3,0.2,0.5,0.6,0.5,0.6s0.1-0.1,0-0.4
					S6.8,12.3,6.8,12.3z"/>
			</g>
			<g>
				<path class="st5" d="M2.9,12.6c0,0,0.7,1,2,1.3c1.3,0.3,1.5,0.1,1.5,0.1L6,16.2l-3-1.6L2.9,12.6z"/>
			</g>
			<g>
				<path class="st1" d="M2.9,12.4c0,0-0.1,0.6-0.2,0.9c-0.1,0.3-0.1,0.4-0.1,0.6s1.2,2.2,1.2,2.2h0.9l-0.3,0.9c0,0,1.8,1.5,3.5,3.1
					s2.7,3.5,2.7,3.5s-0.4-1.2-1-2.3c-0.6-1-2-3.6-2.9-4.6S3.3,13.6,2.9,12.4z"/>
			</g>
			<g>
				<path class="st1" d="M15.7,19.1h-3.3c0,0,0,0.1,0,0.1c0,0.3,0.2,0.6,0.3,0.9s0.1,0.2,0.2,0.9c0.1,0.7,0.8,2.4,0.8,2.4
					c0.4-0.8,2.3-0.4,2.3-0.4s-0.3-2.9-0.3-3.5C15.8,19.4,15.8,19.3,15.7,19.1z"/>
			</g>
			<g>
				<path class="st1" d="M0.3,16.9c0,0,1.1-0.3,2.3,1c1.2,1.3,1.9,2.5,2.3,3.4S5.7,23,6,23.6c0.3,0.6,0.9,1.2,1.1,1.7
					c0.2,0.5,4,1.8,4,1.8s0.1,1.4-1.2,2.1c0,0-1.5-0.3-2.4-0.4c-0.9-0.1-1.2-0.1-1.9-0.4c-0.6-0.3-0.9,0.2-1.8-1.2S1.4,23.9,1.2,23
					c-0.2-0.8-1.1-2.5-1.1-3.2C0.2,19.1-0.3,17.7,0.3,16.9z"/>
			</g>
		</g>
		<g>
			<ellipse class="st1" cx="34.1" cy="14" rx="1.1" ry="4"/>
		</g>
		<g>
			<path class="st0" d="M38.1,12.1l-0.8,1c0,0,1.3,1.1,2.1,2.1c0.9,1,1.3,1.7,1.4,3.3c0.1,1.6,0.4,3,0.7,3.7
				c0.3,0.8,0.5,2.5,0.4,3.1s-0.3,0.7-0.8,0.7s-2.4,0.5-4,0.4c-1.6-0.1-2.2,0-2.6,0s-0.6-0.1-1.1,0.1c-0.4,0.1-1.5,0-1.8,0
				c-0.3,0-0.3,0-0.3,0s-0.3-0.3,0-0.5c0,0-0.2,0-0.3-0.1c-0.1-0.1-0.1-0.4,0.1-0.4c0,0-0.2,0-0.3-0.2S31,25,31.2,25
				c0,0-0.2-0.1-0.1-0.3c0-0.2,0.2-0.2,0.2-0.2s-0.3,0-0.3-0.4l0.5-0.1c0,0,0.2-0.1,0.4-0.1s0.9,0.1,0.9,0.1s1,0.7,1.2,0.8
				c0.2,0.1,3,0,4.1-0.1c1-0.1,1.5-0.6,1.5-0.6s-0.6-2.2-0.7-2.6c-0.1-0.4-0.2-0.5-0.2-0.5l-1.9,0.6l-2,0.3l-0.5-0.7
				c0,0-0.8,0.3-1.9,0.4c-1.2,0-2.6,0.1-3,0.2c-0.4,0.1-0.4,0.5-1,0.5c-0.6,0.1-0.6,0-0.8,0c-0.2,0.1-0.5,0.2-0.8,0.3
				c-0.3,0-0.4,0-0.4,0s-0.2-0.2,0-0.4c0.3-0.2,0.4-0.1,0.7-0.2s0.4-0.1,0.7-0.3s1-0.7,1.4-0.8c0.5-0.1,1.5-0.5,1.9-0.6
				s1.9-0.7,2-0.8c0.1-0.2,0.2-1.7,0.2-1.7s0.8-1.9,1.1-2.6c0.4-0.6,0.4-0.9,0.4-0.9s-1.4-1.1-1.4-2.4s0.3-2.4,1.1-3
				c0.8-0.6,1.9-1.4,2.7-0.9C38.1,8.5,38.1,12.1,38.1,12.1z"/>
		</g>
		<g>
			<path class="st13" d="M40.7,17.5L40.7,17.5c0,0-0.3-1.1-1.1-1.1c-0.8-0.1-1.6,0.4-2,1.2c-0.4,0.8-0.8,2-0.5,2.6
				c0.3,0.6,1.6,0.8,1.6,0.8l0,0l0,0l0,0.1l0,0l0,0c0,0.1,0.1,0.2,0.2,0.4c0.1,0.4,0.7,2.6,0.7,2.6s-0.5,0.5-1.5,0.6
				c-0.5,0.1-1.4,0.1-2.3,0.1c-0.1-0.5-0.3-1.2-0.5-1.5c-0.3-0.4-0.7-1.6-1-2.1c-0.1-0.1-0.1-0.2-0.1-0.2c-0.2-0.3-0.7-0.9-0.9-1.5
				c-0.1-0.3-0.2-0.6-0.2-0.9c0-0.9,1.4-3.2,1.5-3.3c0,0,0,0,0,0c0,0,0,0,0,0c0,0,0,0,0,0c-0.1,0.2-1,2-0.9,2.9c0.1,1,1,2,1.3,2
				c0.3,0,1.2-1,1.6-2.2c0.4-1.2,1.7-2.4,2.1-2.7c0.4-0.2,0.1-0.8-0.1-1.1c0-0.1-0.1-0.1-0.1-0.1C38.4,14.1,40.7,15.6,40.7,17.5z"/>
			<path class="st13" d="M41.3,26c0,0-0.7,1.1-1.9,1c-0.5,0-1.2-0.3-1.8-0.6c1.5,0,3.1-0.4,3.6-0.4C41.2,26,41.3,26,41.3,26L41.3,26
				z"/>
		</g>
		<g>
			<path class="st1" d="M37.3,8.7c0,0,0.6,2.4,0.1,4.1s-1.8,4-2.4,4.8c-0.5,0.8-0.7,3.2-0.6,3.6c0,0,0-0.6,1.1-1.3s2.3-2.5,2.9-4.8
				c0.5-2.3,0.8-3.6,0.8-4.4c0-0.8,0.2-2.8-1-3.7c-1.2-0.8-3.3-0.9-4.3,1.3s-1.3,5.1-1.4,6.4c0,1.3,0,3.3-0.1,3.8
				c0,0,1.7-0.9,1.4-3.9c-0.1-1-0.4-2.2-0.4-2.9c0-0.7,0.7-2.1,1.4-2.5C35.5,8.8,37,8.4,37.3,8.7z"/>
		</g>
	</g>
	<g>
		<g>
			<g>
				<path class="st16" d="M25.7,19.9l-4.4,3.8c-0.2,0.1-0.4,0.2-0.6,0l-4-2.4c-0.2-0.1-0.2-0.3-0.1-0.4l4.4-3.8
					c0.2-0.1,0.4-0.2,0.6,0l4,2.4C25.8,19.6,25.8,19.8,25.7,19.9z"/>
			</g>
			<g>
				<g>
					<g>
						<polygon class="st3" points="22.6,18.5 21.3,17.7 21.2,17.8 22.5,18.6 						"/>
					</g>
					<g>
						<polygon class="st3" points="24.1,20.4 24.3,20.2 20.8,18.1 20.6,18.3 						"/>
					</g>
					<g>
						<polygon class="st3" points="23.6,20.8 23.7,20.7 20.3,18.6 20.1,18.7 						"/>
					</g>
					<g>
						<polygon class="st3" points="23,21.3 23.2,21.1 19.8,19 19.6,19.2 						"/>
					</g>
				</g>
			</g>
		</g>
		<g>
			<g>
				<path class="st11" d="M20.9,20.5c-0.6-0.4-1.5-0.3-2,0.1c-0.5,0.4-0.4,1.1,0.2,1.5c0.6,0.4,1.5,0.3,2-0.1c0,0,0,0,0,0L20,21.3
					L20.9,20.5z"/>
			</g>
			<g>
				<path class="st0" d="M21.1,22L21.1,22c-0.3,0.2-0.6,0.3-1,0.4l-0.1-1L21.1,22z"/>
			</g>
			<g>
				<path class="st1" d="M20.9,20.5L20,21.3l1.1,0.7C21.6,21.6,21.6,20.9,20.9,20.5z"/>
			</g>
		</g>
	</g>
</g>
</svg>
