<?xml version="1.0" encoding="utf-8"?>
<!-- Generator: Adobe Illustrator 18.0.0, SVG Export Plug-In . SVG Version: 6.00 Build 0)  -->
<!DOCTYPE svg PUBLIC "-//W3C//DTD SVG 1.1//EN" "http://www.w3.org/Graphics/SVG/1.1/DTD/svg11.dtd">
<svg version="1.1" id="Layer_1" xmlns="http://www.w3.org/2000/svg" xmlns:xlink="http://www.w3.org/1999/xlink" x="0px" y="0px"
	 viewBox="0 0 48 48" enable-background="new 0 0 48 48" xml:space="preserve">
<g>
	<g>
		<g>
			<g>
				<g>
					<circle fill="#344A5E" cx="30.1" cy="41.9" r="3.3"/>
				</g>
			</g>
			<g>
				<g>
					<circle fill="#E8EAE8" cx="30.1" cy="41.9" r="1.5"/>
				</g>
			</g>
			<g>
				<g>
					<circle fill="#425A6B" cx="30.1" cy="41.9" r="0.4"/>
				</g>
			</g>
		</g>
		<g>
			<g>
				<g>
					<path fill="#344A5E" d="M35.6,44.5c-0.1,0-0.2-0.1-0.3-0.2L22.4,23c-0.4-0.6-0.9-1-1.5-1.3L16,19.5c-0.2-0.1-0.2-0.3-0.2-0.4
						c0.1-0.2,0.3-0.2,0.4-0.2l4.9,2.1c0.7,0.3,1.4,0.9,1.8,1.6l13,21.3c0.1,0.2,0,0.4-0.1,0.5C35.8,44.5,35.7,44.5,35.6,44.5z"/>
				</g>
			</g>
			<g>
				<g>
					<g>
						<path fill="#67C5B8" d="M19.9,20.4l-0.4,0.8c-0.7-0.3-1.3-0.6-2-0.9c-0.5-0.2-1.1-0.5-1.6-0.7c-0.2-0.1-0.3-0.4-0.2-0.6
							c0.1-0.2,0.4-0.3,0.6-0.2c0.5,0.2,1.1,0.5,1.6,0.7C18.6,19.8,19.3,20.1,19.9,20.4z"/>
					</g>
				</g>
			</g>
		</g>
		<g>
			<g>
				<g>
					<g>
						<polygon fill="#F05640" points="41.5,34.1 42,33.2 39.7,30.9 29.5,35.9 31,38.3 38.2,37.6 						"/>
					</g>
				</g>
				<g>
					<g>
						<polygon fill="#F26F5A" points="30.7,38.4 35.2,45.5 45.3,40.8 42,33.2 						"/>
					</g>
				</g>
			</g>
			<g>
				<g>
					<g>
						<polygon fill="#F05640" points="35.5,28.4 35.9,27.7 34,25.9 25.9,29.9 27.1,31.8 32.9,31.3 						"/>
					</g>
				</g>
				<g>
					<g>
						<polygon fill="#F26F5A" points="26.8,31.9 30.4,37.6 38.6,33.8 35.9,27.7 						"/>
					</g>
				</g>
			</g>
			<g>
				<g>
					<g>
						<polygon fill="#F05640" points="30.7,24.2 31,23.7 29.6,22.2 23.2,25.3 24.1,26.9 28.7,26.4 						"/>
					</g>
				</g>
				<g>
					<g>
						<polygon fill="#F26F5A" points="24,27 26.8,31.4 33.1,28.4 31,23.7 						"/>
					</g>
				</g>
			</g>
		</g>
		<g>
			<g>
				<path fill="#344A5E" d="M2.9,42.8l-0.4,0.2c0,0-0.1,0.7-0.3,0.9c0,0,1.1,1,1.5,1.1c0,0,0.1-0.2,0.6,0.1c0.5,0.3,1.3,1.1,2.7,1.2
					c1.4,0.1,2.1-0.1,2.3-0.2c0.2-0.1,0.1-0.7,0.1-0.7L2.9,42.8z"/>
			</g>
		</g>
		<g>
			<g>
				<path fill="#E8EAE8" d="M4.5,40l0.2,0c0,0,1.4,0.4,1.7,0.5c0.3,0.2,0.1,0.7,0.1,0.7l-2.5-0.9c0,0-0.1-0.3,0.2-0.4
					C4.4,40,4.4,40,4.5,40z"/>
			</g>
		</g>
		<g>
			<g>
				<path fill="#344A5E" d="M17.9,43.7c0,0,0,0.9-0.2,1.1c0,0,1.4,0.6,2.2,0.5s1.4,0.1,2,0.2c0.6,0.2,2.9,0.4,3.6-0.3
					c0,0,0.2-0.4-0.1-0.6c-0.4-0.3-0.6-0.3-0.6-0.3L17.9,43.7z"/>
			</g>
		</g>
		<g>
			<g>
				<path fill="#F3F3F3" d="M18.5,31.1l0.4,0.9c1.1,0.1,3.1-0.6,5.4-2.3l-0.6-0.6L18.5,31.1z"/>
			</g>
		</g>
		<g>
			<g>
				<path fill="#FFD15C" d="M19.4,30.2c0,0,1.1,1,1.5,1.4c0.4,0.4,0.5,1.1,0.5,1.1s-1.8,2.4-1.9,4.2c-0.1,1.8,0,2.4-0.2,3.3
					C19,41.1,19,41.1,19,41.1l2.9-0.3c0,0-0.3-0.8,0.8-3c1.1-2.3,1.5-3.7,1.9-4.5c0.4-0.8,0.6-1.4,0.4-2.1s-1.3-2.4-1.3-2.4
					L19.4,30.2z"/>
			</g>
		</g>
		<g>
			<g>
				<path fill="#F3F3F3" d="M21.8,40.9L19,41.1c0,0,0,0,0.2-0.9c0.1-0.3,0.2-0.6,0.2-0.9c0.6,0.1,1.8,0.3,2.6,0.3
					C21.8,40.5,21.8,40.9,21.8,40.9z"/>
			</g>
		</g>
		<g>
			<g>
				<path fill="#FFD15C" d="M14.9,33.7c0,0-0.5,0.9-0.6,1.2c-0.2,0.3-0.2,0.9-1,1.3c-0.8,0.4-1.7,1.1-2.3,1.6s-3.2,2.5-3.7,3.1
					c-0.5,0.6-0.8,1.1-0.8,1.1l-2-0.9c0,0,1.2-1.8,1.8-2.7c0.5-0.9,1.6-2.6,3.2-3.3c1.6-0.7,1.9-1.2,2.1-1.9
					C11.5,32.4,14.9,33.7,14.9,33.7z"/>
			</g>
		</g>
		<g>
			<g>
				<path fill="#FFFFFF" d="M7.6,40.3c-0.2,0.2-0.4,0.4-0.5,0.5c-0.5,0.6-0.8,1.1-0.8,1.1l-2-0.9c0,0,0.8-1.1,1.4-2L7.6,40.3z"/>
			</g>
		</g>
		<g>
			<g>
				<path fill="#CED6E0" d="M11.6,21.5l-0.5,1.2c0,0,0,1.4,0.2,3c0.2,1.6-0.3,7.5-0.3,7.5s1.5,0.6,3,0.6c1.5,0.1,1.9-0.3,1.9-0.3
					l1.2-3.7l1.7,2.2c0,0,1-1.3,1.9-1.5c0.9-0.2,3.5-0.8,3.5-0.8s-1.5-2.9-2.6-4.3c-1.2-1.3-3-2.8-3-2.8S13.9,20.2,11.6,21.5z"/>
			</g>
		</g>
		<g>
			<g>
				<path fill="#ACB2BA" d="M18.9,27.2c-0.1,0,1.6-2,1.8-1.5c0,0.1-1.8,1.7-1.8,1.7L18.9,27.2z"/>
			</g>
		</g>
		<g>
			<g>
				<path fill="#E8EAE8" d="M14.4,6.2c0,0,0.4,0.3,1.4,0.5c1,0.3,1.1,1.5,1,1.9c-0.1,0.4,1.1,1.8,0.9,3.2c-0.2,1.4,0.5,4.6,0.6,5.2
					C18.5,17.7,19,22,19,22l-0.5,0.6c0,0,0.3,0.9-1.9,0c-2.2-0.9-3.5-1.6-4.2-1.1c-0.7,0.5-1.3,1.3-1.3,1.3s0.9-3.2,0.8-3.6
					c-0.1-0.4-2.9-5.1-3.5-5.6l0.2-0.2c0,0-2.2-0.9-3.2-1.7c0,0,1.2-0.9,1.4-1.1c0,0,0.4-1.3,1.1-1.8c0.7-0.5,2.7-1.6,2.7-1.6
					l1.6,0.1L14,6.8L14.4,6.2z"/>
			</g>
		</g>
		<g>
			<g>
				<path fill="#CED6E0" d="M12.7,0.1c0,0,0.5,0,0.6,0.3c0.1,0.3-0.5,0.7-0.8,0.8C12.1,1.3,11.5,1,11.5,1S12,0.1,12.7,0.1z"/>
			</g>
		</g>
		<g>
			<g>
				<path fill="#FFD15C" d="M11.7,0.7c0,0,0.6,0.2,0.8,0.4c0.2,0.2,0.5,0.3,0.6,0.4c0.1,0,0.1,0.3,0.2,0.4c0.1,0.1,0.7,1,0.8,1.5
					c0.2,0.4,0.4,0.8,0.6,1.1c0.2,0.2-0.5,0.8-0.6,0.9c-0.1,0.1,0,0.8,0.1,1.1C14.4,6.8,14,7.2,14,7.2l-2.7-0.8c0,0-0.6-0.3-0.8-0.4
					c-0.2-0.2-1.7-1.4-1.6-2.3C8.9,2.9,11.7,0.7,11.7,0.7z"/>
			</g>
		</g>
		<g>
			<g>
				<path fill="#425A6B" d="M10.6,6.1c0,0-0.7-0.7-0.8-1.1C9.8,4.5,10.1,4,10.8,4.6L11,4.3c0,0-1-1.2-0.5-2.1l-1,0.6
					C8.6,3.4,8.6,4.2,9.3,5.3C9.3,5.3,10.1,6,10.6,6.1z"/>
			</g>
		</g>
		<g>
			<g>
				<path fill="#CED6E0" d="M12.6,19C12.6,19,12.6,19,12.6,19C12.6,19,12.6,19,12.6,19L12.6,19z"/>
			</g>
		</g>
		<g>
			<g>
				<path fill="#CED6E0" d="M9.8,3.1c0,0-0.6,1.4-0.5,2.2c0,0-1.2-1-1.2-2.1c0-1,0.6-2.1,1.1-2.4c0.4-0.3,0.9-0.6,1.4-0.5
					c0.6,0.1,1.2,0.1,1.2,0.1S10.2,2.7,9.8,3.1z"/>
			</g>
		</g>
		<g>
			<g>
				<path fill="#E8EAE8" d="M13.3,0.3c0,0-0.1-0.2-0.4-0.2c-0.3,0-0.6,0.1-0.7,0.4c-0.1,0.3-0.4,1.2-0.7,1.5S9.8,3.1,9.8,3.1
					s0.5-1.3,0.9-1.9c0.4-0.6,1-0.8,1-0.8S12.8-0.4,13.3,0.3z"/>
			</g>
		</g>
		<g>
			<g>
				<path fill="#F5B54C" d="M14.2,6.2c-1.8,0.1-2.7-0.5-2.7-0.5C13.3,6,14,5.4,14.1,5.4C14,5.5,14.1,5.9,14.2,6.2z"/>
			</g>
		</g>
		<g>
			<g>
				<path fill="#F3F3F3" d="M10.9,6.2c0,0,2.8,0.6,3.1,0.6v1.1c0,0-1.1-0.1-1.6-0.2c-0.5-0.1-1.5-0.4-1.7-0.6L10.9,6.2z"/>
			</g>
		</g>
		<g>
			<g>
				<path fill="#F3F3F3" d="M14,6.8l0.2,0c0,0,0.5,0.2,0.7,0.2c0.2,0,0.3,0.2,0.3,0.2s-0.1-0.4-0.3-0.7c-0.2-0.3-0.3-0.2-0.4-0.4
					c-0.1-0.2-0.4-0.5-0.4-0.5S14.2,6.2,14,6.8z"/>
			</g>
		</g>
		<g>
			<g>
				<path fill="#CED6E0" d="M12,14.8c1.5,0.6,2.6,0.9,3.2,1.3c0.6,0.4,0.4-0.3-1-0.7c-1.4-0.5-3-1-3.5-1.6C10.1,13.3,9.9,13,9.9,13
					s1.4,0.4,2.5,0.8c1.1,0.4,2.6,0.8,1.7,0.4c-0.9-0.4-3.4-1.2-3.7-1.3c0,0,2.5,0.5,3.1,0.4c0.6-0.1,0.5,0-0.3-0.2
					c-0.8-0.1-2.5-0.4-2.8-0.5l0,0c-0.2-0.1-0.5-0.1-0.7,0.1L9,13.1c-0.2,0.1-0.4,0.2-0.5,0.4l0,0L9.4,13C9.4,13,10.4,14.3,12,14.8z
					"/>
			</g>
		</g>
		<g>
			<g>
				<path fill="#CED6E0" d="M14.3,21.5c-0.3-0.1-0.6-0.4-0.7-0.7c-0.1-0.4-0.3-1-0.4-1c-0.3-0.1-0.2-0.2-0.4-0.4
					c-0.2-0.2-0.2-0.3-0.2-0.3c-0.1,0.2-0.3,0.4-0.4,0.6c-0.1,0.1-0.1,0.2-0.2,0.2c0,0,0,0-0.1,0c0.1-0.3,0.1-0.5,0.1-0.6
					c0.1-0.2-0.5-2.4-0.8-2.7c-0.4-0.4-0.2-0.2,0.1-0.1c0.3,0.1-1.5-1.5-1.5-1.6c0,0,1,0.7,1.6,1.3c0.5,0.5-0.2-0.5-0.4-1.3
					c-0.3-0.7,1.1,1.7,1.3,2.1c0.2,0.4,1.4,2.2,2.2,3.8C14.8,21.5,14.6,21.6,14.3,21.5z"/>
			</g>
		</g>
		<g>
			<g>
				<g>
					<path fill="#FFD15C" d="M13.6,19.7c-0.1,0.2-0.4-0.1-0.5-0.2c-0.1-0.1-0.5-0.6-0.5-0.6c0,0-0.1,0-0.2,0.1
						c-0.1,0.1-0.5,0.6-0.5,0.6s-0.4-0.4-0.5-0.7c-0.1-0.3-0.4-0.9-0.5-1.1c-0.1-0.2-0.3-0.4-0.7-0.4c-0.4,0-3.7-0.3-4.5-0.4
						c-0.8-0.2-1.9-0.5-2.1-0.5c-0.2,0-0.7-0.5-0.6-1c0.1-0.5,1.2-2.4,1.5-2.8c0.3-0.4,0.9-1,0.9-1c0.9,0.7,2.8,1.5,3.1,1.6
						c0,0,0,0,0,0c0,0-0.3,0.2-0.6,0.5c-0.3,0.2-0.5,0.4-0.9,0.5c-0.4,0.2-0.6,0.4-0.6,0.4s1.4,0.6,1.8,0.8c0.4,0.2,2.3,0.7,2.3,0.7
						s0.9,0.3,1.4,0.8c0.5,0.4,1.2,1.9,1.3,2C13.4,19,13.8,19.5,13.6,19.7z"/>
				</g>
			</g>
		</g>
		<g>
			<g>
				<path fill="#425A6B" d="M18.5,40.9c0,0,0.1-0.5,0.9-0.5c0.8,0,1.7,0.2,1.7,0.2s0.6-0.6,1.1-0.7c0,0-0.3,1.7-0.3,1.9
					c0.1,0.1,0.1,0.4,0.3,0.7c0.2,0.3,0.8,1,1.4,1.2c0.6,0.2,1.8,0.4,1.7,1c0,0-1.3,0.5-2.4,0.3c-1.1-0.2-2-0.4-2.7-0.5
					c-0.7-0.1-2.1-0.3-2.4-0.7c0,0,0.2-1.2,0.3-1.4C18.3,42,18.5,40.9,18.5,40.9z"/>
			</g>
		</g>
		<g>
			<g>
				<path fill="#425A6B" d="M4.7,40c0,0-1,0.1-0.3,0.4s1.4,0.5,1.6,0.7c0.2,0.3,1,0.2,1,0.2s-0.4,0.6-0.3,1c0.2,0.4,0.5,0.8,0.6,1.1
					c0.1,0.3,1.5,0.9,1.7,1.2c0.2,0.2,0.1,0.7,0.1,0.7s-1.6,0.5-3.1,0c-1.5-0.5-3.6-2.3-3.6-2.3s0.1-0.6,0.4-1
					C3.7,41,3.7,39.7,4.7,40z"/>
			</g>
		</g>
		<g>
			<g>
				<g>
					<path fill="#344A5E" d="M35.3,46c-0.1,0-0.2-0.1-0.3-0.2l-13-21.3c-0.4-0.6-0.9-1-1.5-1.3l-4.9-2.1c-0.2-0.1-0.2-0.3-0.2-0.4
						c0.1-0.2,0.3-0.2,0.4-0.2l4.9,2.1c0.7,0.3,1.4,0.9,1.8,1.6l13,21.3c0.1,0.2,0,0.4-0.1,0.5C35.4,46,35.4,46,35.3,46z"/>
				</g>
			</g>
			<g>
				<g>
					<g>
						<path fill="#67C5B8" d="M19.6,22l-0.4,0.8c-0.7-0.3-1.3-0.6-2-0.9c-0.5-0.2-1.1-0.5-1.6-0.7c-0.2-0.1-0.3-0.4-0.2-0.6
							c0.1-0.2,0.4-0.3,0.6-0.2c0.5,0.2,1.1,0.5,1.6,0.7C18.3,21.4,18.9,21.7,19.6,22z"/>
					</g>
				</g>
			</g>
		</g>
		<g>
			<g>
				<g>
					<circle fill="#425A6B" cx="30.4" cy="44.7" r="3.3"/>
				</g>
			</g>
			<g>
				<g>
					<circle fill="#F3F3F3" cx="30.4" cy="44.7" r="1.5"/>
				</g>
			</g>
			<g>
				<g>
					<circle fill="#425A6B" cx="30.4" cy="44.7" r="0.4"/>
				</g>
			</g>
		</g>
		<g>
			<g>
				<path fill="#ACB2BA" d="M21.6,27.9c-0.9-0.1-2.6-0.7-2.6-0.7s1.7-1.8,1.9-2.2c0.1-0.2-0.4,0.2-0.9,0.6c-0.9,0.7-1.6,1.6-2.1,2.5
					c0,0,0,0.1-0.1,0.1c-0.5,0.8-0.6,1.6-0.6,1.6l0.1,0.1c0.5-1.7,1.7-2.2,1.7-2.2C19.7,27.9,22.5,28,21.6,27.9z"/>
			</g>
		</g>
		<g>
			<g>
				<path fill="#344A5E" d="M35.3,46c-0.1,0-0.2-0.1-0.3-0.2c-0.1-0.2,0-0.4,0.2-0.4l10.1-4.7c0.2-0.1,0.4,0,0.4,0.2
					c0.1,0.2,0,0.4-0.2,0.4L35.5,46C35.4,46,35.4,46,35.3,46z"/>
			</g>
		</g>
	</g>
	<g>
		<g>
			
				<ellipse transform="matrix(0.8976 0.4408 -0.4408 0.8976 3.1604 -4.0339)" fill="#FFD15C" cx="10.3" cy="4.8" rx="0.8" ry="0.5"/>
		</g>
	</g>
</g>
</svg>
