<?xml version="1.0" encoding="utf-8"?>
<!-- Generator: Adobe Illustrator 18.0.0, SVG Export Plug-In . SVG Version: 6.00 Build 0)  -->
<!DOCTYPE svg PUBLIC "-//W3C//DTD SVG 1.1//EN" "http://www.w3.org/Graphics/SVG/1.1/DTD/svg11.dtd">
<svg version="1.1" id="Layer_1" xmlns="http://www.w3.org/2000/svg" xmlns:xlink="http://www.w3.org/1999/xlink" x="0px" y="0px"
	 viewBox="0 0 48 48" enable-background="new 0 0 48 48" xml:space="preserve">
<g>
	<g>
		<g>
			<g>
				<g>
					<path fill="#FFD15C" d="M46.4,29.2l-1,0.1c0,0-3.4,1.9-4.8,3.1c0,0-3.6,1.7-4.1,2.3c0,0-3.6-0.6-4.9-0.1c0,0-4-0.8-5.3-1.9
						c-1.3-1.1-3.4-1.7-5.3-2c0,0-5.6-1-9.9,0.8c-4.3,1.8-7.7,3.1-7.7,3.1l3.7,8.1l6.4-2.3c0,0,9.7,2.6,11.7,3.9
						c2,1.3,3.1,1.3,4.4,0.3c1.3-1,7.8-4.4,8.7-4.8c0,0,1.3-0.2,2.7-2.3c0.2-0.3,0.3-0.5,0.4-0.7l4.6-4.6l1.7-1.3
						C47.9,31.1,48.5,29.4,46.4,29.2z"/>
					<path fill="#E8EAE9" d="M38.2,36.4c-0.3-1.2-1.5-1.1-1.5-1.1s0,0-0.6,0c-0.6,0-0.7,0.4-0.7,0.4c0.1,0.6,0.1,1.3-0.1,1.9
						c0.1,0.7,1.9,0.5,1.9,0.5C38.1,38,38.3,37.4,38.2,36.4z"/>
					<path fill="#F7B64C" d="M22.9,38.8c-0.1,0-0.3,0.1-0.4,0.1C22.6,38.9,22.8,38.8,22.9,38.8z"/>
					<g>
						<g>
							
								<rect x="4.1" y="35" transform="matrix(-0.2236 -0.9747 0.9747 -0.2236 -23.5825 56.6731)" fill="#E8EAE9" width="13.4" height="5.5"/>
						</g>
						<g>
							
								<rect x="1.7" y="30.4" transform="matrix(0.9747 -0.2236 0.2236 0.9747 -8.5002 2.4498)" fill="#415A6B" width="9.6" height="16.7"/>
						</g>
					</g>
					<g>
						<path fill="#F7B64C" d="M39,36.8C39,36.7,39,36.7,39,36.8C39,36.7,39,36.7,39,36.8c0-0.3-0.1-0.4-0.1-0.6c0,0,0,0,0,0l0,0
							c0-0.1,0-0.1-0.1-0.2l0,0c0,0-0.4-1.1-2-1.4l-0.2,0.2c0,0,0.3,0.1,0.6,0.2c0.2,0.1,0.4,0.2,0.6,0.3c0.5,0.3,0.8,0.8,0.9,1.4
							c0,0.1,0,0.3,0,0.4c-0.1,0.6-0.6,1.4-2,1.6c-1.1,0.2-2.2,0.3-3.4,0.5c-0.4,0.1-0.7,0.1-1.1,0.1c-0.4,0-0.8-0.1-1.2-0.2
							c-0.8-0.2-1.6-0.3-2.4-0.5c-0.4-0.1-0.9-0.3-1.3-0.3c-0.4,0-0.7,0-1.1,0c-0.5,0-1,0.1-1.4,0.1c-0.8,0.1-1.6,0.1-2.3-0.2l0,0
							c0.3,0.1,0.5,0.3,0.8,0.3c-0.1,0.1-0.2,0.2-0.3,0.2c0.3-0.1,0.5-0.2,0.7-0.3c-0.1,0.2-0.2,0.3-0.4,0.4c0.2,0,0.4-0.3,0.6-0.2
							c1-0.2,2-0.3,3-0.2c-0.2,0.3-0.5,0.6-0.7,0.9c0.4-0.3,0.8-0.6,1.1-0.9c0.3,0.1,0.4,0.1,0.7,0.3c0,0.4,0.1,0.8,0.3,1.2
							c0-0.3-0.1-0.7-0.1-1c0.1,0,0.4,0,0.6,0c-0.1-0.1-0.4-0.1-0.5-0.2c0,0,0.1,0,0.1,0l0,0c0,0,0,0,0,0c0.5,0.2,1,0.3,1.5,0.5
							c0,0,0,0,0,0c0.4,0.2,1,0.3,1.7,0.3c0.2,0,0.4,0,0.6,0c0,0,0.1,0,0.1,0c0.8,0,1.7-0.1,2.4-0.2c0.1,0,0.1,0,0.2,0
							c0.1,0,0.2,0,0.3,0c0.2,0,0.5-0.1,0.7-0.1c0.4-0.1,0.7-0.1,0.7-0.2c0,0,2.2-0.5,2.4-2C39,36.9,39,36.8,39,36.8z"/>
					</g>
				</g>
			</g>
			<g>
				<path fill="#E8EAE9" d="M46.2,32.4l-0.1-0.7c0,0,1.2-1.4,1.8-0.6"/>
			</g>
		</g>
		<g>
			<g>
				<path fill="#F05540" d="M43.4,2.9H23.9l-1.4-2C22,0.3,21.4,0,20.6,0h-4.7c-1.2,0-2.2,1-2.2,2.2v21.8c0,1.2,1,2.2,2.2,2.2h27.5
					c1.2,0,2.2-1,2.2-2.2V5.2C45.6,3.9,44.7,2.9,43.4,2.9z"/>
			</g>
			<g>
				<path fill="#F3705A" d="M15.9,5.5h10.9l1.5-2.6c0.4-0.7,1.1-1.1,1.9-1.1h13.2c1.2,0,2.2,1,2.2,2.2v20.1c0,1.2-1,2.2-2.2,2.2
					H15.9c-1.2,0-2.2-1-2.2-2.2V7.7C13.7,6.5,14.7,5.5,15.9,5.5z"/>
			</g>
		</g>
	</g>
</g>
</svg>
