<?xml version="1.0" encoding="utf-8"?>
<!-- Generator: Adobe Illustrator 19.0.1, SVG Export Plug-In . SVG Version: 6.00 Build 0)  -->
<svg version="1.1" id="Layer_1" xmlns="http://www.w3.org/2000/svg" xmlns:xlink="http://www.w3.org/1999/xlink" x="0px" y="0px"
	 viewBox="0 0 48 48" style="enable-background:new 0 0 48 48;" xml:space="preserve">
<style type="text/css">
	.st0{fill:#FFD15C;}
	.st1{fill:#415A6B;}
	.st2{fill:#F7B64C;}
	.st3{fill:#CED6E0;}
	.st4{fill:#344A5E;}
	.st5{fill:#F3F3F3;}
	.st6{fill:#F05540;}
	.st7{fill:#F3705A;}
	.st8{fill:#66C6B9;}
	.st9{fill:#55C0EB;}
	.st10{fill:#F5F6FB;}
	.st11{fill:#4ABAA5;}
	.st12{fill:#ADB3BA;}
	.st13{fill:#E8EAE9;}
	.st14{fill:#2E4556;}
	.st15{fill:#8AD7F8;}
	.st16{fill:#FFFFFF;}
	.st17{fill:#E54838;}
	.st18{fill:#3EAF99;}
	.st19{fill:#EFA943;}
	.st20{fill:#4CAEE5;}
	.st21{fill:#293F4F;}
	.st22{fill:#2D4456;}
	.st23{fill:#2E4454;}
	.st24{fill:#2A3F4F;}
	.st25{fill:#2D4151;}
	.st26{fill:#E89E3D;}
	.st27{fill:#2B4151;}
	.st28{fill:#2A4051;}
	.st29{fill:#2C4151;}
	.st30{fill:#EBEAE8;}
	.st31{fill:#3AA590;}
	.st32{fill:#E84534;}
	.st33{fill:none;}
</style>
<g>
	<g>
		<g>
			<path class="st4" d="M14.6,38.6l0-3.6h-1.3l0,3.6c-0.3,0.1-0.6,0.2-0.8,0.5c-0.4,0.4-0.7,0.9-0.7,1.5c0,0.6,0.2,1.1,0.6,1.6
				c0.4,0.4,0.9,0.7,1.5,0.7c0.1,0,0.1,0,0.2,0c0.5,0,1-0.2,1.4-0.6c0.4-0.4,0.7-0.9,0.7-1.5C16.3,39.8,15.6,38.9,14.6,38.6z
				 M14.7,41.4c-0.2,0.1-0.4,0.2-0.6,0.2c-0.3,0-0.5-0.1-0.7-0.3c-0.2-0.2-0.3-0.4-0.3-0.7c0-0.2,0.1-0.4,0.2-0.6
				c0.1-0.1,0.3-0.2,0.5-0.2c0,0,0,0,0.1,0c0.5,0,1,0.5,1,1C15,41,14.9,41.2,14.7,41.4z"/>
		</g>
		<g>
			<g>
				<polygon class="st5" points="26.8,34.9 1.2,33.2 1,2.2 26.6,3.9 				"/>
			</g>
			<g>
				<g>
					<polygon class="st12" points="4.3,31.4 3.8,30.9 6.3,28.5 9,30.3 13.8,28.7 15.6,29.7 18.4,28.8 18.6,29.4 15.6,30.4 
						13.8,29.4 8.9,31 6.5,29.2 					"/>
				</g>
				<g>
					<polygon class="st12" points="18.6,30.3 19.9,28.7 17.8,28.2 					"/>
				</g>
			</g>
			<g>
				<polygon class="st7" points="17.6,24.9 15.3,24.7 15.3,17.1 17.6,17.2 				"/>
			</g>
			<g>
				<path class="st1" d="M27.8,2.9c0,0.6-0.5,1-1.1,1h-0.1L1,2.2C0.4,2.2,0,1.6,0,1c0-0.6,0.5-1,1.1-1h0.1l25.6,1.7
					C27.4,1.7,27.8,2.3,27.8,2.9z"/>
				<path class="st1" d="M27.8,36.1c0,0.6-0.5,1-1.1,1h-0.1L1,35.5c-0.6,0-1.1-0.6-1-1.2c0-0.6,0.5-1,1.1-1h0.1l25.6,1.7
					C27.4,35,27.8,35.5,27.8,36.1z"/>
			</g>
		</g>
		<g>
			<path class="st1" d="M5.8,7.5c0.3-0.3,0.6-0.4,1.1-0.4c0-0.8,0-1.6,0-2.3c-1-0.1-2,0.3-2.7,0.9C4.7,6.3,5.3,6.9,5.8,7.5z"/>
			<g>
				<path class="st0" d="M8.4,8.7c0.8,0.1,1.6,0.1,2.3,0.2c0-2.1-1.7-3.9-3.8-4.1c0,0.6,0,1.4,0,2.3C7.7,7.2,8.4,7.9,8.4,8.7z"/>
			</g>
			<g>
				<path class="st7" d="M10.6,8.9c0,2.1-1.7,3.7-3.8,3.5c-1-0.1-2-0.6-2.7-1.3c-0.7-0.7-1.1-1.7-1.1-2.8s0.4-2,1.1-2.6
					c0.5,0.5,1.1,1.2,1.6,1.7c-0.3,0.3-0.4,0.6-0.4,1c0,0.8,0.7,1.6,1.5,1.6s1.5-0.6,1.5-1.4L10.6,8.9z"/>
			</g>
		</g>
		<g>
			<g>
				<polygon class="st8" points="3.7,21.3 3.7,24 5.9,24.1 5.9,21.5 				"/>
			</g>
			<g>
				<polygon class="st0" points="9.8,24.4 7.6,24.2 7.6,16.6 9.8,16.7 				"/>
			</g>
			<g>
				<polygon class="st9" points="11.4,20.1 11.4,24.5 13.7,24.6 13.7,20.2 				"/>
			</g>
		</g>
	</g>
	<g>
		<g>
			<g>
				<rect x="21.6" y="42" class="st8" width="9.3" height="6"/>
			</g>
			<g>
				<path class="st3" d="M16.1,37.7c0,0-1.8-0.2-2.1-0.3c-0.4-0.1-0.4-0.5-0.4-0.5s0.5-2.5,2.1-3c0,0,0.1,1.6,0.1,2.2
					S16.1,37.7,16.1,37.7z"/>
			</g>
			<g>
				<path class="st0" d="M13,30c0,0-0.4,0.4,0.1,0.9c0.3,0.3,0.3,0.3,0.4,0.3c0,0,0.1,0.3,0.2,0.4c0,0-0.6-0.6-1.1-0.7L12.4,31
					l0.1,2.2L12,33.3c0,0,0,0.3,0.2,0.6c0.2,0.4,1,1,1.6,1.3s1.3,1,1.3,1l1.1-1.9c0,0-0.8-0.5-0.9-0.7c-0.1-0.2-0.1-0.4-0.2-0.9
					c-0.2-0.4-0.3-1-0.3-1l-1-1c0,0-0.2-0.2-0.4-0.2L13,30z"/>
			</g>
			<g>
				<path class="st2" d="M12.5,31.3L12.5,31.3C12.5,31.3,12.5,31.3,12.5,31.3z"/>
				<path class="st2" d="M13.8,32.8c0,0,0.1-0.1,0.1-0.1c0-0.1,0-0.1,0-0.2c0-0.1,0-0.1,0-0.2c0,0,0-0.1,0-0.1c0,0,0-0.1,0-0.1
					c0,0-0.1-0.1-0.1-0.1c0,0,0,0-0.1,0l-0.1,0l-0.1-0.1c-0.2-0.1-0.3-0.2-0.5-0.3c-0.1-0.1-0.2-0.1-0.2-0.2l-0.2-0.1c0,0,0,0,0,0
					c0,0,0,0,0,0c0,0,0,0,0,0c0,0,0,0,0.1,0c0,0,0,0,0.1,0l0,0c0,0,0,0,0,0c0,0,0,0,0,0c0,0,0,0,0,0c0,0,0,0,0,0l0,0c0,0,0,0,0,0
					c0,0,0,0,0,0c0,0,0,0,0,0c0,0,0,0,0,0c0,0,0,0,0,0l0,0c0,0,0,0,0,0c0,0,0,0,0,0c0,0,0,0,0,0c0,0,0,0,0,0l0,0c0,0,0,0-0.1,0
					c0,0,0,0-0.1,0c0,0,0,0-0.1,0l0,0l0,0c0,0,0,0,0,0c0,0,0,0,0,0c0,0,0,0,0,0l0,0l0,0l0,0.1l0.2,0.2c0.1,0.1,0.2,0.1,0.2,0.2
					c0.2,0.1,0.3,0.2,0.5,0.3l0.1,0.1l0.1,0c0,0,0,0,0.1,0c0,0,0.1,0.1,0.1,0.1c0,0,0,0,0,0.1c0,0,0,0,0,0.1c0,0,0,0.1,0,0.1
					c0,0,0,0.1,0,0.1C13.7,32.6,13.7,32.7,13.8,32.8c-0.1-0.1-0.2,0-0.2,0l-0.1,0l0,0.1l0,0.1c0,0,0,0,0,0l0,0c0,0,0,0,0,0.1l0,0
					c0,0,0,0,0,0c0,0,0,0,0,0l0,0l0,0c0,0,0,0,0,0c0,0,0,0,0,0c0,0,0,0,0,0c0,0,0,0,0,0c0,0,0,0,0,0c0,0,0,0,0,0l-0.1,0l0,0.1
					c0,0,0,0,0.1,0.1c0,0,0,0,0,0c0,0,0,0,0,0c0,0,0,0,0,0c0,0,0,0,0,0c0,0,0,0,0,0c0,0,0,0,0,0c0,0,0,0,0,0c0,0,0,0-0.1,0
					c0,0,0,0,0,0c0,0,0,0,0,0c0,0,0,0,0,0l0,0l0,0l0,0l0,0l0,0l0,0l0,0l0,0c-0.1,0-0.3-0.1-0.4-0.1c-0.1,0-0.3-0.1-0.4-0.1l0,0l0,0
					l-0.2,0l0.2,0c0.1,0,0.2,0.1,0.4,0.1c0.1,0,0.2,0.1,0.4,0.1l0,0l0,0l0,0l0,0l0,0l0,0l0,0l0,0c0,0,0,0,0.1,0c0,0,0,0,0.1,0
					c0,0,0,0,0.1,0c0,0,0.1,0,0.1-0.1c0,0,0,0,0,0c0,0,0,0,0,0c0,0,0,0,0-0.1l0,0c0,0,0,0,0,0c0,0,0,0,0-0.1c0,0,0,0,0-0.1
					c0,0,0,0,0,0c0,0,0,0,0,0c0,0,0,0,0,0c0,0,0,0,0,0c0,0,0,0,0,0c0,0,0,0,0,0l0,0l0,0c0,0,0,0,0,0c0,0,0,0,0,0l0,0
					c0,0,0-0.1,0-0.1l0,0C13.7,32.9,13.7,32.9,13.8,32.8L13.8,32.8C13.7,32.8,13.7,32.8,13.8,32.8C13.7,32.8,13.7,32.8,13.8,32.8z"
					/>
			</g>
			<g>
				<path class="st7" d="M13.4,33.4l-0.3,0.1c-0.1,0-0.2,0-0.2-0.1l-1.5-6c0-0.1,0-0.2,0.1-0.2l0.3-0.1c0.1,0,0.2,0,0.2,0.1l1.5,6
					C13.6,33.3,13.5,33.4,13.4,33.4z"/>
			</g>
			<g>
				<path class="st8" d="M22,27.7c0,0-0.8,0-0.9,1c-0.2,1,0,4.4-0.1,5.1c-0.1,0.7-0.2,1.6-0.2,1.9s-0.1,1-0.1,1s-0.1,0.1-0.3-0.1
					s-0.3-0.3-0.8-0.3c-0.5-0.1-1.1-0.4-1.5-0.7c-0.5-0.3-2.3-1.6-2.3-1.6c0.1,0.6-0.9,2.9-1.5,3.2c-0.6,0.4-0.7-0.3-0.7-0.3
					s-0.2,0.5,0.3,0.8s4.9,2.3,5.5,2.5c0.6,0.2,2.8,0.8,2.8,0.8L22,27.7z"/>
			</g>
			<g>
				<path class="st0" d="M24.5,23.8l1,2.2l-0.9,2.9l3.6,0.2L28,25.7c0,0,0.7,0.1,1-0.7s0.5-2.4,0.4-3.4c-0.2-1-0.3-1.5-0.3-1.5
					s0.4-1.9-0.9-2.6c-1.3-0.7-5.1,0.8-5.3,1.9C22.9,20.5,24.5,23.8,24.5,23.8z"/>
			</g>
			<path class="st2" d="M28,25.7c0,0-1.8,0.1-3-1.2c0,0,0.8,1.5,3.1,2.2L28,25.7z"/>
			<g>
				<path class="st3" d="M27.6,26.2c0,0-1.2,0.7-1.5,1.3s-0.3,0.6-0.3,0.6s-0.2-0.4-0.6-0.8c-0.4-0.4-1.1,0.1-1.1,0.1l-1.3,14.4
					l5.4-0.4l2.6-14.2L27.6,26.2z"/>
			</g>
			<g>
				<path class="st11" d="M21.5,39c0,1-0.5,6-0.8,9h2.5l0.4-5.1v-2c-0.2-2.2,1.1-14.7,1.1-14.7s-3.4,1.1-3.5,2.1
					c-0.1,1,0.4,5.8,0.4,6.3C21.7,35.1,21.6,37.5,21.5,39z"/>
			</g>
			<g>
				<path class="st8" d="M25.1,26c0,0-1.4,1.1-2.2,2.5l0.3,0.5l-0.8,0.4c0,0,0.1,6.5,0.8,9.4s0.6,4,0.6,4S24,36.3,24,34
					C24.3,29.9,25.1,26,25.1,26z"/>
			</g>
			<g>
				<path class="st1" d="M24.4,22.7l0.3-0.2c0,0-0.7-0.8-0.4-1.5c0.3-0.7,0.5-0.7,0.4-1.3c-0.1-0.6-0.3-1.2,0.4-1.2s1.7,0.1,2.6-0.3
					c0.8-0.4,1.2,0.3,1.3,0.7s0.2,1.2,0.2,1.2s0.3-0.5,0.1-1.7s-1.5-2.1-2.3-2.2c-0.8-0.2-3,0.3-3.9,1.7c-0.9,1.4-0.3,3.1-0.1,3.5
					c0.2,0.3,1.6,2.5,1.6,2.5L24,22.3L24.4,22.7z"/>
			</g>
			<g>
				
					<ellipse transform="matrix(0.8158 -0.5783 0.5783 0.8158 -8.6509 17.8397)" class="st0" cx="23.7" cy="22.5" rx="0.6" ry="1.1"/>
			</g>
			<g>
				<path class="st13" d="M30.1,25.1l-1.2,3.9l-0.8-1.7l-0.5-1l0.4-0.5l0,0c0,0,0.7,0.1,1-0.7c0.1-0.3,0.2-0.6,0.3-1L30.1,25.1z"/>
			</g>
			<g>
				<path class="st13" d="M25.5,26.1c0,0-0.2,1.3,0.3,2.1c0,0-0.6-0.8-0.9-0.5s-0.6,0.9-0.6,0.9c0.2-1.2,0.5-2.3,0.9-3.1L25.5,26.1z
					"/>
			</g>
			<g>
				<path class="st11" d="M26.5,48h7.9c-0.3-3.5-1.2-13.6-1.2-16.2c0-3.1,1.7-5.1,1.7-5.1l-4.2-1.1l-5,15.1c0,0,0.2,3.1,0.3,4.8
					C26.1,46.3,26.2,47.2,26.5,48z"/>
			</g>
			<g>
				<path class="st8" d="M29.7,24.5c0,0,0.1,0.4-0.1,0.8s-1.5,3.4-2.3,7.1s-1.6,8.4-1.6,8.4s1.6-3,2.2-4.5c0.6-1.4,3.1-6.7,3.1-6.7
					l-0.9-0.6l0.9-0.6c0,0-0.2-1.7-0.1-2.6c0,0,0-0.2-0.2-0.4C30.4,25.1,29.8,24.4,29.7,24.5z"/>
			</g>
			<g>
				<path class="st8" d="M32.2,48H35c0.4-5.5,1.1-16.1,1.3-18.3c0.2-2.9-1.4-3-1.4-3s-1.7,1.9-1.7,5.1c0,1,0.1,3.1,0.3,5.5
					C33.3,40.8,32.6,45.3,32.2,48z"/>
			</g>
			<g>
				<path class="st0" d="M12.2,33.6h0.2c0,0,0.6,0.2,0.8,0.2s0.5-0.1,0.3-0.4c0,0,0.3-0.1,0.1-0.6c0,0,0.3-0.2,0.2-0.5
					c0-0.1-0.1-0.2-0.2-0.2c-0.2-0.1-1.2-0.8-1.2-0.8s0.1,0,0-0.1c0,0,0.4,0,0.4-0.3s-0.2-0.3-0.4-0.4c-0.1,0-0.3,0-0.4,0.1
					c-0.1,0.1-0.2,0.4-0.1,0.6c0.1,0.2,0.1,0.2,0.1,0.2s-0.2,0.4,0.1,0.7c0,0-0.4,0.4,0,0.8C12.2,32.8,11.8,33.3,12.2,33.6z"/>
			</g>
		</g>
		<g>
			<g>
				<path class="st0" d="M31,18.6l-0.3,0.9c0,0-0.3,1.3-0.1,1.8c0.2,0.5,0.1,0.5,0.1,0.7s-0.5,1.2-0.5,1.2s-0.1,0.4,0.2,0.5
					s0.6,0.1,0.6,0.2c0.1,0.1,0,0.5,0.3,0.6c0,0-0.2,0.1,0,0.4c0.2,0.3,0.3,0.4,0.2,0.9c-0.1,0.4,0.7,1.2,2.2,0.8
					c1.5-0.4-1.6,4.4-1.6,4.4l7.4,0.8l-0.7-6.6c0,0-0.3-0.4-0.5-1.1s-2.3-6.3-4.3-6.8S31,18.6,31,18.6z"/>
			</g>
			<path class="st2" d="M36.2,24.1c-0.5,1.4-2.1,2.2-2.7,2.6c0.1,0,0.2,0,0.3-0.1c0.5-0.1,0.5,0.4,0.2,1.2
				C35.8,26.4,36.2,24.1,36.2,24.1z"/>
			<g>
				<path class="st3" d="M39.6,48h-9.7l2.5-18.3l1.5-1c0.1,0.5,0.3,0.9,0.6,1.3l0.1,0.2c0.8-0.6,1.4-1.7,1.4-1.7l2.5,0.8
					C38.6,29.2,43,44.4,39.6,48z"/>
			</g>
			<g>
				<path class="st4" d="M22.8,46.3c0,0-0.3,0.1-0.5,0.1s-0.4-0.3-0.4-0.4c0-0.2-0.5-1,0-3.8c0,0,0.6-0.1,1.4,0.3
					C24.2,42.9,23.5,45.7,22.8,46.3z"/>
			</g>
			<g>
				<path class="st3" d="M22.6,45.3l-0.3,0c0,0-0.6,0.1-0.4-3.1l1.3,1.3L22.6,45.3z"/>
			</g>
			<g>
				<path class="st0" d="M23.9,44.7l-2.2,0c-0.2,0.2-1.2,0.5-1.6,0.5c-0.4,0-0.9-0.1-1.3-0.1c-0.4,0-0.9-0.1-1.2,0
					c-0.3,0-0.4,0.3-0.8,0.2c-0.4-0.1-1.5-0.5-1.5-0.5l-0.5-0.2c-0.1-0.3,0.2-0.3,0.4-0.4l2.1-0.8c0.3-0.1,1.3-0.7,1.5-0.8
					c0.2-0.2,0.4-0.4,0.4-0.4s-0.1,0-0.2-0.1c-0.2-0.1-0.8-0.1-1.2-0.2c-0.4-0.1-1-0.5-0.7-0.7c0.3-0.3,0.5-0.3,1-0.2
					c0.5,0.1,1.2,0.2,1.5,0.2c0.3,0,0.4,0.1,0.6,0.3c0.2,0.2,0.6,0.2,1,0.4c0.4,0.2,0.5,0.4,0.8,0.4c0.3,0,0.8-0.1,0.8-0.1
					C23.6,42.2,23.9,44.7,23.9,44.7z"/>
			</g>
			<g>
				<path class="st5" d="M21.9,42.3c0,0,0.8,1.9,0.4,3.1l2.2-0.1L23.7,42L21.9,42.3z"/>
			</g>
			<g>
				<path class="st1" d="M31,29.6c0,0-0.9,0.4-1.2,1.1c-0.3,0.7-0.3,3.1-0.3,3.9c0,0.8-0.3,1.5-0.3,1.7s-0.2,1.9-0.2,2.3
					c-0.1,0.5-0.1,0.7-0.1,1c0,0.2,0.2,0.3-0.1,0.5c-0.3,0.2-1.4,0.9-1.7,1s-0.7,0.5-2,0.6c-1.3,0.1-3.1,0.5-3.1,0.5
					s1.1,0.1,1.3,1.5c0.2,1.3,0,2-0.5,2.5c-0.5,0.5-0.8-0.2-0.8-0.2s0,0.6,0.8,0.5c0.7-0.2,1.9-0.5,2.6-0.7c0.7-0.2,1.5-0.4,2.2-0.6
					c0.6-0.2,2.1-0.6,2.1-0.6L31,29.6z"/>
			</g>
			<g>
				<path class="st4" d="M29.2,48h0.7l1-9.4l2.1-8.9l-0.3-1c0,0-2.2,1-2.5,1.6c-0.3,0.6-0.3,1.3-0.3,1.3s0.1,3.6,0,5.2
					C29.8,37.9,29.4,44.5,29.2,48z"/>
			</g>
			<g>
				<path class="st1" d="M30,48c1.1-7.8,2.3-15.2,3.7-20.1l-2,1.3l0.8,0.5l-1.1,0.8c0,0-0.6,5.7-0.9,8.9c-0.2,2-0.5,6.1-0.6,8.7H30z
					"/>
			</g>
			<g>
				<path class="st4" d="M37.6,48h7.8c-0.2-1.7-0.5-4-0.5-5.3c0-2.1-1.7-5.7-2.1-6.7c-0.4-1-0.4-3.6,0.1-5.3
					c0.5-1.7,1.7-2.4,1.7-2.4l-3.9-1c0,0-3.3,3.3-4.4,7.3c-1.1,4,0,6.4,0,6.4L37.6,48z"/>
			</g>
			<g>
				<path class="st1" d="M39.6,18.6c0.4,1.7-0.5,2.9-0.8,3.9c-0.3,1.1-0.3,1.7-0.3,1.7c-1.7-0.2-1.7-1.3-2.1-2.1s-0.8-1.1-1.5-0.9
					c-0.8,0.3-1,1.1-1,1.1l-0.7-0.1c0.1-0.4-0.2-1.3-0.5-1.6s0-0.7,0.2-1.2c0.1-0.3,0-0.6-0.2-0.8c-0.1-0.2-0.4-0.3-0.6-0.2
					c-0.4,0.2-1.1,0.5-1.4,1.1c0,0-0.6-0.8,0-1.8c0.6-1,1.7-2,4.8-1.9S39.6,18.6,39.6,18.6z"/>
			</g>
			<g>
				<path class="st5" d="M38.9,25.3c0,0-0.1,1-1.1,1.8c-1,0.8-1.8,1.4-1.8,1.4l1.7,1.5l2.1-3.5L38.9,25.3z"/>
			</g>
			<g>
				<path class="st1" d="M39.3,25.8c0,0-0.1,0.2-0.5,1c-0.4,0.8-1.2,2.1-2.2,4.7c-0.9,2.6-1.1,4.7-1.1,6.4c0,1.7,0.7,3.3,0.7,3.3
					s-0.6-1.9-0.2-3.7s4.8-8.8,4.8-8.8l-0.7-0.2l0.8-0.5c0,0,0.1-0.5-0.2-0.8S39.3,25.8,39.3,25.8z"/>
			</g>
			<g>
				<path class="st1" d="M43.5,48h4.2c0.6-1,0.2-13-0.2-13.7c-0.4-0.7-0.3-2.1-0.8-4.1c-0.5-2.1-2.1-1.8-2.1-1.8s-1.2,0.7-1.7,2.4
					c-0.5,1.7-0.5,4.3-0.1,5.3C43,36.6,43.5,48,43.5,48z"/>
			</g>
			<g>
				<path class="st30" d="M34.2,27c0,0,0.3,1.2,0.3,1.6s0,1.3,0,1.3s-0.2-0.1-0.5-0.3c-0.3-0.2-0.5-0.3-0.5-0.3L33.2,30l0.1-1.1
					c0-0.5,0.2-1,0.5-1.4C33.9,27.3,34,27.1,34.2,27z"/>
			</g>
		</g>
	</g>
</g>
</svg>
