<?xml version="1.0" encoding="utf-8"?>
<!-- Generator: Adobe Illustrator 18.0.0, SVG Export Plug-In . SVG Version: 6.00 Build 0)  -->
<!DOCTYPE svg PUBLIC "-//W3C//DTD SVG 1.1//EN" "http://www.w3.org/Graphics/SVG/1.1/DTD/svg11.dtd">
<svg version="1.1" id="Layer_1" xmlns="http://www.w3.org/2000/svg" xmlns:xlink="http://www.w3.org/1999/xlink" x="0px" y="0px"
	 viewBox="0 0 48 48" enable-background="new 0 0 48 48" xml:space="preserve">
<g>
	<g>
		<g>
			<g>
				<g>
					<g>
						<path fill="#F5B54C" d="M1.7,27.7l0.6,0.4c0,0,0.3,0.2,0.4,0.3c0.1,0.1,0.5,0.4,0.8,0.5c0.2,0,0.4,0.1,0.5,0.4
							c0,0,0.9,0.6,1,0.8c0,0.2,0.3,0.3,0.5,0.4c0.2,0,3.2-0.4,4.9-1.1c1.7-0.7,2.6-0.9,2.6-0.9s0.6-0.1,0.7-0.6
							c0.1-0.5,1.3-3.6,1.5-4.5c0.2-0.9,0.5-2.7,0.5-2.7s0.5-2.8,2.4-3.1s3.4-1.1,3.4-1.1s0.6-0.3,0.7-1.2c0.1-0.8,0.1-1.2,0.1-1.2
							l4-0.3c0,0,0,2.3,1,2.8c1,0.5,3.6,1.6,3.6,1.6s0.8,0.2,1.2,1.4c0.4,1.2,0.8,4.1,0.8,4.1l1,4.5c0,0,0.1,0.6,0.6,0.8
							c0.5,0.1,3.8,1.2,4.5,1.5c0.7,0.2,2.8,0.6,3,0.6c0.2,0,0.7,0,0.8-0.2c0.1-0.2,0.8-0.5,0.8-0.5l0.4-0.4c0,0,1.1-0.1,1.3-0.3
							c0.2-0.2,0.5-0.1,0.5-0.1l0.7-0.2c0,0,0.2,0.8-0.9,1c0,0-0.7,0.3-0.8,0.5c0,0.2,0.2,0.6,0.3,0.6c0.1,0,0.8,0.1,1,0.2
							c0,0,0.1-0.3,0.5-0.4c0,0-0.1-0.4,0.1-0.7c-0.4-0.5-0.4-0.8,0-1l0.5,0.8v0.3c0,0,0-0.2,0.4-0.2l0.1,0.1c0,0,0-0.3,0.4-0.2
							l-0.2,1l-0.2,0.3l0,0.3l-0.3,0.8c0,0-1,0.3-1.3,0.2c0,0,0.5,0.2,0.5,0.3c0,0,0.3-0.1,0.4,0c0,0,0.5-0.5,0.9-0.1l-0.6,0.5
							l-0.9,0.2l-0.9-0.5c0,0-0.6-0.2-1-0.3c-0.4,0-1.7-0.2-1.7-0.2s-0.8,0-1.1-0.1c0,0-6.1-0.2-7.8-0.7c0,0-0.4-0.1-0.7-0.1
							c-0.3,0-0.7,0-0.9-0.5c-0.2-0.4-2.1-4.9-2.1-4.9l-11.7-2.9c0,0,0.2,2.8-2.2,6.3c0,0-0.5,0.7-0.5,0.9c-0.1,0.2-0.3,0.6-0.9,0.6
							c-0.6,0-3.4,0.9-6.9,0.9c0,0-1.4-0.1-1.7,0c-0.2,0.1-1.1,0.1-1.6,0l-1.5-0.1c0,0-0.7,0-1.1-0.1l-1,0c0,0-0.6-0.6-0.7-0.9
							l-0.2-0.5c0,0,0-0.1,0.1-0.1L0,29c0,0,0-0.2,0.1-0.3l0.1-0.6c0,0,0.5,0,0.4,0.6l0.2-0.4l0.6-0.6c0,0,0.6,0.4-0.2,1
							c0,0,0.1,0.5-0.1,0.8c0,0,0.4,0.3,0.4,0.5c0,0,0.8,0,0.9,0.1c0,0,0.4-0.4,0.4-0.5c0-0.1-0.2-0.3-0.2-0.3s-0.4-0.2-0.5-0.4
							C1.5,28.6,1.4,28.1,1.7,27.7z"/>
					</g>
				</g>
			</g>
		</g>
		<g>
			<g>
				<g>
					<g>
						<circle fill="#425A6B" cx="24.4" cy="5.4" r="1"/>
					</g>
				</g>
			</g>
			<g>
				<g>
					<g>
						<path fill="#FFD15C" d="M23.4,15c-2.6-1.2-2.2-4.9-2.1-5.6c0-0.1,0-0.2,0-0.2C21.2,7,23.8,7,24.2,7.1c0,0,0.1,0,0.1,0
							c0.5,0,3-0.1,2.9,2.2c0,0.1,0,0.2,0,0.2c0.1,0.7,0.5,4.3-2.1,5.6C24.7,15.3,24,15.3,23.4,15z"/>
					</g>
				</g>
			</g>
			<g>
				<g>
					<g>
						<path fill="#425A6B" d="M23.1,7.7c0,0,1.6,0.3,2-0.1c0.5-0.4,1.6,0.4,1.7,1.2c0.1,0.8,0.6,2.1,0.6,2.1l0.2-0.1
							c0,0,0.2-2.1-0.3-3.3c-0.4-1.2-1.4-2.3-2.8-2.3c-1.4,0-3,0.8-3.5,2.1c-0.5,1.3,0.2,3.7,0.2,3.7h0.2C21.4,11,21.3,7.4,23.1,7.7
							z"/>
					</g>
				</g>
			</g>
			<g>
				<g>
					<g>
						
							<ellipse transform="matrix(0.9934 0.1145 -0.1145 0.9934 1.4687 -3.0731)" fill="#FFD15C" cx="27.5" cy="11.2" rx="0.5" ry="1.3"/>
					</g>
				</g>
			</g>
			<g>
				<g>
					<g>
						
							<ellipse transform="matrix(-0.9934 0.1145 -0.1145 -0.9934 43.4743 19.9956)" fill="#FFD15C" cx="21.2" cy="11.2" rx="0.5" ry="1.3"/>
					</g>
				</g>
			</g>
			<g>
				<g>
					<g>
						<path fill="#425A6B" d="M25,4C25,4,25,4,25,4c0,0.1,0,0.2,0,0.2c0,0-0.2,0.1-0.2,0.1c0,0.1-0.1,0.1-0.1,0.2
							c-0.2,0.3-0.3,0.9-0.1,1.4c0,0.1,0.1,0.3,0.1,0.4l0,0.1l0,0l0,0l0,0l0,0c0,0,0.3,0,0.1,0l0,0l0,0l0.1,0.2
							c0.1,0.1,0.2,0.2,0.3,0.3l0.1,0.1l0,0l0,0l0,0c0,0,0.2,0,0.1,0l0,0l0,0l0,0c0,0,0.1,0.1,0.1,0.1C25.9,7.4,26,7.7,26,7.8
							c0,0.2,0,0.2,0,0.2s-0.1-0.1-0.4-0.1c-0.1,0-0.3,0.1-0.4,0.1c-0.1,0-0.2,0-0.2,0.1c-0.1,0-0.2,0-0.3,0.1
							c-0.4,0.1-0.8,0.1-1.1,0C23.2,8.1,23,8,23,8.1L25,4z"/>
					</g>
				</g>
			</g>
			<g>
				<g>
					<g>
						<path fill="#425A6B" d="M21.4,11c0,0,0-2.4,1.1-3.2c0,0,1.4,1.4,4.1,0.9c0,0,0.5,2,0.7,2.5L27,8l-1.6-1.8L23,6.9
							C23,6.9,20.9,7.8,21.4,11z"/>
					</g>
				</g>
			</g>
		</g>
	</g>
	<g>
		<g>
			<g>
				<path fill="#E8EAE8" d="M29.7,32.2c0.5,0.9,0.7,3.1,0.7,3.1c-7,4.1-12.9-0.7-12.9-0.7s-0.2-0.7,0-1.1c0.2-0.5,1-2.7,1.2-3.4
					c0.2-0.7-0.2-1.8,0-2.1c0.2-0.4,0.3-0.7,0.1-0.9c-0.2-0.2-0.3-0.2-0.5-0.4c-0.1-0.2,0.3-0.5,0.1-1c-0.2-0.5-0.1-2.3-0.1-2.3
					s-0.1-1,0.5-1.8c0.5-0.8,0.6-2.6,0.4-3.1c-0.1-0.3-0.2-0.7-0.2-1.1c0.2-0.2,0.4-0.2,0.7-0.2c0.3,0.7,1,2.3,1.3,2.9
					c0.4,0.8,0.9,1.3,2.1,1.7c1.1,0.4,3.3,0.4,4.4,0c1-0.4,1.5-2.7,1.8-3.6c0.1-0.4,0.1-0.7,0.1-0.8c0.3,0,0.7,0.1,0.9,0.4
					c-0.3,1.3-0.1,3.2,0.2,5.2c0.3,2-0.1,3.4-0.4,3.9c-0.2,0.5-0.6,3.2-0.6,3.2S29.2,31.3,29.7,32.2z"/>
			</g>
		</g>
	</g>
	<g>
		<g>
			<g>
				<path fill="#67C5B8" d="M34.4,35.3l0.1,0.5c0,0-0.1,0.3-0.9,0.4c-0.8,0.1-1.8,0.5-1.8,0.5l-0.3,0.1l-4.1,1.5L25,38.1
					c0,0,0.3-1.1,2.2-1.6c1.9-0.5,1.7-1.3,2.8-1.4C31.1,35,34.1,34.9,34.4,35.3z"/>
			</g>
		</g>
	</g>
	<g>
		<g>
			<g>
				<path fill="#425A6B" d="M25,38.1c0,0,0.2-0.6,0.9-0.8c0.6-0.1,2-0.7,2.6-1.1c0.5-0.4,1.4-1,2.4-0.9c1,0.1,3.2,0.2,3.6,0.6
					c0,0,0.1-0.5,0-0.8c0,0-3.1-0.9-4.6-0.3c0,0-0.3,0.2-0.5,0.3c-0.2,0.1-1.6,1.1-2.5,1.2c-1,0.2-2.1,0.6-2.3,1S25,38.1,25,38.1z"
					/>
			</g>
		</g>
	</g>
	<g>
		<g>
			<g>
				<path fill="#F5B54C" d="M16.4,39.2c0,0,2.1-1.3,3.4-1c1.3,0.2,1.7,0.3,1.7,0.3l6.2,2.4c0,0,0,0.5-1.6,0.8
					c-1.5,0.2-5.4,1.5-5.4,1.5s-3.3,1-5,0.7C16.6,42.1,17,40.5,16.4,39.2z"/>
			</g>
		</g>
	</g>
	<g>
		<g>
			<g>
				<path fill="#425A6B" d="M38.5,41.2c-0.7,0.7-1.8,1.1-2.8,1.3c-1,0.2-1.8,0.2-1.8,0.2s-0.6-1.3-0.7-3.1s-0.1-1.9-0.1-1.9l0.3-0.5
					l-2-0.4l0.1-0.1l0.3-0.1c0,0,1-0.4,1.8-0.5c0.3,0,0.5-0.1,0.6-0.2c0.9,0.2,2,0.4,2.2,0.5c0.6,0.3,2.2,1,2.5,1.9
					C39.3,39.5,39.3,40.5,38.5,41.2z"/>
			</g>
		</g>
	</g>
	<g>
		<g>
			<g>
				<path fill="#425A6B" d="M19.6,37.9l-2.5,1.4c0,0,0,3.5-1.3,4.5c0,0-1.6,0.4-2.5-0.1c0,0-0.3,0-0.5,0c0,0-1.6-1.2-1.9-2.4
					c-0.3-1.3,0.8-2.6,1.5-3.1c0.7-0.6,3-1.7,4.3-1.6C17.8,36.7,19.5,37.8,19.6,37.9z"/>
			</g>
		</g>
	</g>
	<g>
		<g>
			<g>
				<path fill="#FFD15C" d="M19.4,37.2l0.5,0.9c0,0,1.2,0.4,1.6,0.7c0.4,0.3,2,1.3,3.1,1.6c1.2,0.3,4.5,1.2,5,1.5
					c0.5,0.2,2.9,1.4,4.7,0.9l-0.5-5.3c0,0-1.9-1.2-5.6-0.4c0,0-2.4,0.3-3.7,0.3c-1.3-0.1-1.3-0.1-1.3-0.1l-2.5-0.9L19.4,37.2z"/>
			</g>
		</g>
	</g>
	<g>
		<g>
			<g>
				<path fill="#48B9A5" d="M22.3,35.3l0.6,0.5l0.2,1.4c0,0-1.2-0.1-2-0.5c-0.8-0.4-1.6,0.9-1.3,1.3c0,0-1.3,0-2-0.8
					c-0.6-0.4-1.1-0.5-1.1-0.5s-1.2-0.2-1.6-0.1c-0.5,0.1-1.6-0.3-1.7-0.5c-0.1-0.2,0.9-2,2.2-2.3s1.8-0.1,2.1,0
					c0.3,0.1,1.1,0.8,2.2,0.9C21.1,35,22.3,35.3,22.3,35.3z"/>
			</g>
		</g>
	</g>
	<g>
		<g>
			<g>
				<path fill="#425A6B" d="M13.5,36.3c0,0-0.3-0.1-0.4-0.5c0-0.2,0-0.3,0.1-0.4c0.3-0.3,1-1,1.7-1.3c0.9-0.3,1.5-0.7,2.3-0.4
					c0,0,1.4,0.9,2.2,1c0.7,0.1,2.8,0.2,3.1,0.5c0.3,0.3,0.4,0.8,0.4,0.8s-0.5-0.4-1.1-0.5c-0.7-0.1-1.8-0.2-2-0.3
					c-0.3-0.1-0.9-0.3-1.3-0.5c-0.4-0.2-0.9-0.7-1.5-0.6c-0.5,0.1-1.8,0.6-2,0.8C14.7,34.8,13.6,35.5,13.5,36.3z"/>
			</g>
		</g>
	</g>
</g>
</svg>
