<?xml version="1.0" encoding="utf-8"?>
<!-- Generator: Adobe Illustrator 18.0.0, SVG Export Plug-In . SVG Version: 6.00 Build 0)  -->
<!DOCTYPE svg PUBLIC "-//W3C//DTD SVG 1.1//EN" "http://www.w3.org/Graphics/SVG/1.1/DTD/svg11.dtd">
<svg version="1.1" id="Layer_1" xmlns="http://www.w3.org/2000/svg" xmlns:xlink="http://www.w3.org/1999/xlink" x="0px" y="0px"
	 viewBox="0 0 48 48" enable-background="new 0 0 48 48" xml:space="preserve">
<polygon opacity="0.2" fill="#55BFE9" points="24,23.7 24,24.3 24,23.7 "/>
<polygon opacity="0.2" fill="#FFD15C" points="23.5,24 23.5,24 24.5,24 "/>
<rect x="24" y="23.4" opacity="0.2" fill="#55BFE9" width="0" height="1.2"/>
<g>
	<g>
		<path fill="#40596B" d="M28.1,13.9V7.2h-5.5v6.7c-3.7,1.3-6.4,4.9-6.4,9.1V46c0,1.1,0.9,2,2,2h14.3c1.1,0,2-0.9,2-2V22.9
			C34.5,18.8,31.8,15.2,28.1,13.9z"/>
		<rect x="22.6" fill="#CDD6E0" width="5.5" height="7.2"/>
		<rect x="22.6" y="2.3" fill="#ACB3BA" width="5.5" height="1.1"/>
		<rect x="16.2" y="26.2" fill="#FF7058" width="18.3" height="14.4"/>
	</g>
	<path fill="#F2F2F2" d="M46,48h-9.5c-1.1,0-2-0.9-2-2V32.2c0-1.1,0.9-2,2-2H46c1.1,0,2,0.9,2,2V46C48,47.1,47.1,48,46,48z"/>
	<rect x="37.8" y="29.2" fill="#ACB3BA" width="6.9" height="1"/>
	<path fill="#CDD6E0" d="M45,29.2h-7.4c-0.6,0-1-0.4-1-1V27c0-0.6,0.4-1,1-1H45c0.6,0,1,0.4,1,1v1.2C46,28.8,45.5,29.2,45,29.2z"/>
	<rect x="34.5" y="35.7" fill="#CDD6E0" width="13.5" height="6.8"/>
	<g>
		<path fill="#ACB3BA" d="M9.1,48H2c-1.1,0-2-0.9-2-2V23.6l4.5-7.2l4.5,7.2V48z"/>
		<polygon fill="#E4EAEF" points="0,23.6 4.5,16.4 9.1,23.6 		"/>
		<path fill="#CDD6E0" d="M21,48H9.1V23.6H23V46C23,47.1,22.1,48,21,48z"/>
		<polygon fill="#F2F2F2" points="18.4,16.4 4.5,16.4 9.1,23.6 23,23.6 		"/>
		<path fill="#ACB3BA" d="M18.4,16.4H4.5v-2.6c0-0.5,0.4-0.9,0.9-0.9h12.2c0.5,0,0.9,0.4,0.9,0.9V16.4z"/>
		<ellipse fill="#FFFFFF" cx="16" cy="35.8" rx="4.1" ry="4.9"/>
	</g>
</g>
</svg>
