<?xml version="1.0" encoding="utf-8"?>
<!-- Generator: Adobe Illustrator 18.0.0, SVG Export Plug-In . SVG Version: 6.00 Build 0)  -->
<!DOCTYPE svg PUBLIC "-//W3C//DTD SVG 1.1//EN" "http://www.w3.org/Graphics/SVG/1.1/DTD/svg11.dtd">
<svg version="1.1" id="Layer_1" xmlns="http://www.w3.org/2000/svg" xmlns:xlink="http://www.w3.org/1999/xlink" x="0px" y="0px"
	 viewBox="0 0 48 48" enable-background="new 0 0 48 48" xml:space="preserve">
<g>
	<g>
		<g>
			<g>
				<g>
					<g>
						<path fill="#344A5E" d="M4.8,7.5l2-0.7l0.4,1.1L5.7,8.4L8.8,17c0.1,0.3,0,0.6-0.3,0.7c-0.3,0.1-0.6,0-0.7-0.3L4.4,8.2
							C4.3,7.9,4.5,7.6,4.8,7.5z"/>
					</g>
				</g>
				<g>
					<path fill="#415A6B" d="M18.3,20.7L12.4,4.3c-0.6-1.8-2.6-2.7-4.3-2l0,0c-1.8,0.6-2.7,2.6-2,4.3l5.1,14.1H18.3z"/>
				</g>
				
					<rect x="11.5" y="10.2" transform="matrix(-0.3385 -0.941 0.941 -0.3385 3.5481 29.5516)" fill="#344A5E" width="1.3" height="6.8"/>
			</g>
			<g>
				<g>
					<g>
						<path fill="#F7B64C" d="M27.3,8.4c0-0.2,0-0.3,0-0.5L22.9,0l-4.4,7.9c0,0.2,0,0.3,0,0.5L27.3,8.4z"/>
						<polygon fill="#FFD15C" points="24.6,8.4 24.5,7.5 22.9,0 21.3,7.5 21.2,8.4 						"/>
						<path fill="#F05540" d="M27.4,20.7l0-12.8c-0.3,0.3-0.8,0.5-1.3,0.5c-0.7,0-1.3-0.4-1.6-0.9c-0.3,0.5-0.9,0.9-1.6,0.9
							c-0.7,0-1.3-0.4-1.6-0.9C21,8,20.4,8.4,19.7,8.4c-0.5,0-0.9-0.2-1.3-0.5l0,12.8H27.4z"/>
						<path fill="#F3705A" d="M24.5,20.7l0-13.2c-0.3,0.5-0.9,0.9-1.6,0.9c-0.7,0-1.3-0.4-1.6-0.9l0,13.2H24.5z"/>
						<path fill="#344A5E" d="M21.3,2.9L22.9,0l1.6,2.9C23.5,3.5,22.3,3.5,21.3,2.9z"/>
						<path fill="#415A6B" d="M23.6,3.3L22.9,0l0,0l0,0l-0.7,3.3C22.7,3.4,23.1,3.4,23.6,3.3z"/>
					</g>
				</g>
			</g>
			<g>
				<g>
					<path fill="#8AD7F8" d="M39.3,20.7l3.9-12.8c0.2-0.5-0.1-1.1-0.7-1.2l-8-2.4c-0.5-0.2-1.1,0.1-1.2,0.7l-4.8,15.8H39.3z"/>
				</g>
				
					<rect x="32.7" y="6.5" transform="matrix(0.9563 0.2925 -0.2925 0.9563 3.584 -9.6769)" fill="#55C0EB" width="2.8" height="1.4"/>
				
					<rect x="31.7" y="9.8" transform="matrix(0.9563 0.2925 -0.2925 0.9563 4.4881 -9.0886)" fill="#55C0EB" width="1.9" height="1.4"/>
				
					<rect x="30.6" y="13.4" transform="matrix(0.9563 0.2925 -0.2925 0.9563 5.5141 -8.7559)" fill="#55C0EB" width="2.8" height="1.4"/>
				
					<rect x="29.6" y="16.7" transform="matrix(0.9563 0.2925 -0.2925 0.9563 6.4182 -8.1676)" fill="#55C0EB" width="1.9" height="1.4"/>
			</g>
		</g>
		<g>
			<g>
				<path fill="#E8EAE9" d="M36.9,45.4l4-21.3H8.6l4,21.3c0.3,1.5,1.6,2.6,3.1,2.6h18.1C35.3,48,36.7,46.9,36.9,45.4z"/>
			</g>
			<g>
				<g>
					<polygon fill="#CED6E0" points="40.2,28.2 40.9,24.1 8.6,24.1 9.4,28.2 					"/>
				</g>
			</g>
			<g>
				<path fill="#E8EAE9" d="M40.9,25.2H8.6c-1.5,0-2.7-1.2-2.7-2.7c0-1.5,1.2-2.7,2.7-2.7h32.3c1.5,0,2.7,1.2,2.7,2.7
					C43.6,24,42.4,25.2,40.9,25.2z"/>
			</g>
		</g>
	</g>
</g>
</svg>
