<?xml version="1.0" encoding="utf-8"?>
<!-- Generator: Adobe Illustrator 18.0.0, SVG Export Plug-In . SVG Version: 6.00 Build 0)  -->
<!DOCTYPE svg PUBLIC "-//W3C//DTD SVG 1.1//EN" "http://www.w3.org/Graphics/SVG/1.1/DTD/svg11.dtd">
<svg version="1.1" id="Layer_1" xmlns="http://www.w3.org/2000/svg" xmlns:xlink="http://www.w3.org/1999/xlink" x="0px" y="0px"
	 viewBox="0 0 48 48" enable-background="new 0 0 48 48" xml:space="preserve">
<g>
	<g>
		<path fill="#F1543F" d="M47.5,41.3L47.5,41.3c0.7-0.7,0.7-1.8,0-2.4c-0.7-0.7-0.7-1.8,0-2.4v0c0.7-0.7,0.7-1.8,0-2.4v0
			c-0.7-0.7-0.7-1.8,0-2.4v0c0.7-0.7,0.7-1.8,0-2.4v0c-1.5-1.5-3.7-1.9-5.6-1l-4.6,2.2v9.7l4.6,2.2C43.8,43.2,46,42.8,47.5,41.3z"/>
		<path fill="#F1543F" d="M0.5,41.3L0.5,41.3c-0.7-0.7-0.7-1.8,0-2.4c0.7-0.7,0.7-1.8,0-2.4v0c-0.7-0.7-0.7-1.8,0-2.4v0
			c0.7-0.7,0.7-1.8,0-2.4v0c-0.7-0.7-0.7-1.8,0-2.4v0c1.5-1.5,3.7-1.9,5.6-1l4.6,2.2v9.7l-4.6,2.2C4.2,43.2,2,42.8,0.5,41.3z"/>
		<path fill="#FFD15C" d="M33,26.4H15c-2.3,0-4.2,1.9-4.2,4.2v9.2c0,2.3,1.9,4.2,4.2,4.2h18c2.3,0,4.2-1.9,4.2-4.2v-9.2
			C37.3,28.3,35.4,26.4,33,26.4z"/>
		<g>
			<polygon fill="#FF7058" points="23.8,26.4 10.8,39.4 10.8,32.9 17.2,26.4 			"/>
			<path fill="#FF7058" d="M35.4,27.2L18.5,44.1H15c-0.9,0-1.7-0.3-2.4-0.7l16.9-16.9H33L35.4,27.2z"/>
			<polygon fill="#FF7058" points="37.3,31.1 37.3,37.6 30.8,44.1 30.8,44.1 24.2,44.1 24.3,44.1 			"/>
		</g>
		<g>
			<g>
				<path fill="#FF7058" d="M39.9,35.5c0.5,0,0.9-0.1,1.3-0.1c0.4-0.1,0.6-0.1,0.6-0.1s-0.2-0.1-0.6-0.1c-0.4-0.1-0.8-0.1-1.3-0.1
					c-0.5,0-0.9,0.1-1.3,0.1c-0.4,0.1-0.6,0.1-0.6,0.1s0.2,0.1,0.6,0.1C38.9,35.5,39.4,35.5,39.9,35.5z"/>
				<path fill="#FF7058" d="M40,32.6c0.4-0.2,0.9-0.4,1.2-0.6c0.3-0.2,0.5-0.3,0.5-0.3s-0.2,0-0.6,0.1c-0.4,0.1-0.8,0.2-1.3,0.3
					c-0.4,0.2-0.9,0.4-1.2,0.6c-0.3,0.2-0.5,0.3-0.5,0.3s0.2,0,0.6-0.1C39.1,32.8,39.5,32.7,40,32.6z"/>
				<path fill="#FF7058" d="M41.1,38.5c-0.3-0.2-0.7-0.4-1.2-0.6c-0.4-0.2-0.9-0.3-1.3-0.3c-0.4-0.1-0.6-0.1-0.6-0.1
					s0.2,0.2,0.5,0.3c0.3,0.2,0.7,0.4,1.2,0.6c0.4,0.2,0.9,0.3,1.3,0.3c0.4,0.1,0.6,0.1,0.6,0.1S41.4,38.7,41.1,38.5z"/>
			</g>
			<g>
				<path fill="#FF7058" d="M8.1,35.5c-0.5,0-0.9-0.1-1.3-0.1c-0.4-0.1-0.6-0.1-0.6-0.1s0.2-0.1,0.6-0.1C7.2,35.1,7.7,35,8.1,35
					c0.5,0,0.9,0.1,1.3,0.1c0.4,0.1,0.6,0.1,0.6,0.1s-0.2,0.1-0.6,0.1C9.1,35.5,8.6,35.5,8.1,35.5z"/>
				<path fill="#FF7058" d="M8,32.6c-0.4-0.2-0.9-0.4-1.2-0.6c-0.3-0.2-0.5-0.3-0.5-0.3s0.2,0,0.6,0.1c0.4,0.1,0.8,0.2,1.3,0.3
					c0.4,0.2,0.9,0.4,1.2,0.6c0.3,0.2,0.5,0.3,0.5,0.3s-0.2,0-0.6-0.1C8.9,32.8,8.5,32.7,8,32.6z"/>
				<path fill="#FF7058" d="M6.9,38.5C7.2,38.4,7.6,38.1,8,38c0.4-0.2,0.9-0.3,1.3-0.3c0.4-0.1,0.6-0.1,0.6-0.1s-0.2,0.2-0.5,0.3
					c-0.3,0.2-0.7,0.4-1.2,0.6c-0.4,0.2-0.9,0.3-1.3,0.3c-0.4,0.1-0.6,0.1-0.6,0.1S6.6,38.7,6.9,38.5z"/>
			</g>
		</g>
	</g>
	<g>
		<path fill="#84DBFF" d="M47.7,15L47.7,15c0.3-0.9-0.2-1.9-1.1-2.2c-0.9-0.3-1.4-1.3-1.1-2.2l0,0c0.3-0.9-0.2-1.9-1.1-2.2l0,0
			c-0.9-0.3-1.4-1.3-1.1-2.2l0,0c0.3-0.9-0.2-1.9-1.1-2.2l0,0c-2-0.7-4.2,0-5.5,1.7l-3.1,4l4.4,8.7l5.1-0.1
			C45.2,18.3,47,16.9,47.7,15z"/>
		<path fill="#84DBFF" d="M5.8,36.2L5.8,36.2c-0.9-0.3-1.4-1.3-1.1-2.2c0.3-0.9-0.2-1.9-1.1-2.2l0,0c-0.9-0.3-1.4-1.3-1.1-2.2l0,0
			c0.3-0.9-0.2-1.9-1.1-2.2l0,0c-0.9-0.3-1.4-1.3-1.1-2.2l0,0c0.7-2,2.5-3.4,4.6-3.4l5.1-0.1l4.4,8.7l-3.1,4
			C10,36.2,7.8,36.9,5.8,36.2z"/>
		<path fill="#CDD6E0" d="M28,8.2L12,16.4C9.9,17.5,9,20,10.1,22.1l4.2,8.2c1.1,2.1,3.6,2.9,5.7,1.9L36,24c2.1-1.1,2.9-3.6,1.9-5.7
			l-4.2-8.2C32.7,8,30.1,7.2,28,8.2z"/>
		<g>
			<polygon fill="#F2F2F2" points="19.8,12.4 14.1,29.9 11.1,24.1 14,15.4 			"/>
			<path fill="#F2F2F2" d="M30.5,7.8L23,30.6L20,32.1c-0.8,0.4-1.6,0.5-2.4,0.4L25,9.8L28,8.2L30.5,7.8z"/>
			<polygon fill="#F2F2F2" points="33.9,10.5 36.9,16.3 34.1,25 34.1,25 28.2,28 28.2,27.9 			"/>
		</g>
		<g>
			<g>
				<path fill="#54C0EB" d="M38.3,13.2c0.4-0.2,0.8-0.5,1.1-0.7c0.3-0.2,0.5-0.4,0.5-0.4s-0.2,0-0.6,0.1c-0.3,0.1-0.8,0.3-1.2,0.5
					c-0.4,0.2-0.8,0.5-1.1,0.7c-0.3,0.2-0.5,0.4-0.5,0.4s0.2,0,0.6-0.1C37.4,13.6,37.8,13.5,38.3,13.2z"/>
				<path fill="#54C0EB" d="M37,10.5c0.3-0.3,0.6-0.7,0.8-1C38,9.2,38.1,9,38.1,9s-0.2,0.1-0.5,0.3c-0.3,0.2-0.6,0.5-1,0.9
					c-0.3,0.3-0.6,0.7-0.8,1c-0.2,0.3-0.3,0.5-0.3,0.5s0.2-0.1,0.5-0.3C36.3,11.2,36.7,10.9,37,10.5z"/>
				<path fill="#54C0EB" d="M40.8,15.3c-0.4,0-0.8,0-1.3,0c-0.5,0.1-0.9,0.2-1.3,0.3c-0.3,0.1-0.6,0.2-0.6,0.2s0.2,0.1,0.6,0.1
					c0.4,0,0.8,0,1.3,0c0.5-0.1,0.9-0.2,1.3-0.3c0.3-0.1,0.6-0.2,0.6-0.2S41.1,15.4,40.8,15.3z"/>
			</g>
			<g>
				<path fill="#54C0EB" d="M10,27.6c-0.4,0.2-0.9,0.4-1.2,0.5c-0.3,0.1-0.6,0.1-0.6,0.1s0.2-0.2,0.5-0.4c0.3-0.2,0.7-0.5,1.1-0.7
					c0.4-0.2,0.9-0.4,1.2-0.5c0.3-0.1,0.6-0.1,0.6-0.1s-0.2,0.2-0.5,0.4C10.8,27.1,10.4,27.4,10,27.6z"/>
				<path fill="#54C0EB" d="M8.5,25c-0.5,0.1-0.9,0.1-1.3,0C6.9,25,6.6,25,6.6,25s0.2-0.1,0.6-0.2c0.3-0.1,0.8-0.2,1.3-0.3
					c0.5-0.1,0.9-0.1,1.3,0c0.4,0,0.6,0.1,0.6,0.1s-0.2,0.1-0.6,0.2C9.5,24.8,9,24.9,8.5,25z"/>
				<path fill="#54C0EB" d="M10.2,30.9c0.2-0.3,0.5-0.7,0.8-1c0.3-0.3,0.7-0.7,1-0.9c0.3-0.2,0.5-0.3,0.5-0.3s-0.1,0.2-0.3,0.5
					c-0.2,0.3-0.5,0.7-0.8,1c-0.3,0.3-0.7,0.6-1,0.9c-0.3,0.2-0.5,0.3-0.5,0.3S10,31.2,10.2,30.9z"/>
			</g>
		</g>
	</g>
</g>
</svg>
