<?xml version="1.0" encoding="utf-8"?>
<!-- Generator: Adobe Illustrator 19.0.1, SVG Export Plug-In . SVG Version: 6.00 Build 0)  -->
<svg version="1.1" id="Layer_1" xmlns="http://www.w3.org/2000/svg" xmlns:xlink="http://www.w3.org/1999/xlink" x="0px" y="0px"
	 viewBox="0 0 48 48" style="enable-background:new 0 0 48 48;" xml:space="preserve">
<style type="text/css">
	.st0{fill:#415A6B;}
	.st1{fill:#ADB3BA;}
	.st2{fill:#E8EAE9;}
	.st3{fill:#55C0EB;}
	.st4{fill:#F3705A;}
	.st5{fill:#FFFFFF;}
	.st6{fill:#FFD15C;}
	.st7{fill:#344A5E;}
	.st8{fill:#CED6E0;}
	.st9{fill:#F05540;}
	.st10{fill:#F7B64C;}
	.st11{fill:#F3F3F3;}
	.st12{fill:#66C6B9;}
	.st13{fill:#4ABAA5;}
	.st14{fill:#8AD7F8;}
	.st15{fill:none;}
	.st16{fill:#E53D35;}
</style>
<g>
	<g>
		<g>
			<g>
				<path class="st4" d="M24.2,24.8c0,0,1.3-2,1.9-3.2s1.5-6.2,1.5-6.2l-1.7,0.2C25.9,15.7,24,23,24.2,24.8z"/>
			</g>
			<g>
				<path class="st4" d="M14.6,21.7l2,1.3l1.1-4.6l-4.5-5.7C13.1,12.7,9.9,18.5,14.6,21.7z"/>
			</g>
			<g>
				<path class="st6" d="M24.9,37.2c1.2-5.2,1.7-10,0-13.6l0-2.3c2-2.9,2.1-7,2.1-7l-1.4-7.6c0,0-0.8-3.1-3.6-2.8s-5.7,2-5.7,2
					l-2.9,7.8c0,0-0.2,3.2,2.4,7.3l0,2.6c-1.5,4.6-1.4,9.1,0,13.5H24.9z"/>
			</g>
			<g>
				<path class="st2" d="M25.5,48l-0.6-15.7c0.2,4.5-9.5,4.5-9.3,0L15,48H25.5z"/>
			</g>
			<g>
				<path class="st10" d="M15.9,21.1L15.9,21.1l-1.1,6.2c8.3-2.4,10.1-6,10.1-6C21.9,23.8,18.9,23.7,15.9,21.1z"/>
			</g>
			<g>
				<g>
					<path class="st0" d="M33,48h7.9c-0.9-7.3-2.5-18-4.8-19l-5,12.1l3.5,0.7C34.4,41.7,33.4,44.3,33,48z"/>
				</g>
				<g>
					<path class="st7" d="M33.2,48c0.6-3.5,1.4-6.3,1.4-6.3C34,37.4,36.1,29,36.1,29l-7.8-2.5L22.5,48H33.2z"/>
				</g>
				<g>
					<path class="st0" d="M22,46.9c0,0.4-0.1,0.7-0.1,1.1H24c3.1-5.1,5.5-10.6,7.1-16.4l-2.8-1.8l1.8-0.5c0,0-1.1-2.2-1.8-2.9
						c-0.7-0.6-2.8-2.7-3.3-2.8c0,0,1.2,2.3,0.2,6.9S22.1,44.9,22,46.9z"/>
				</g>
			</g>
			<g>
				<g>
					<path class="st0" d="M7.9,48c-0.4-3.7-1.4-6.3-1.6-6.3L9.8,41L4.8,29C2.5,30,0.9,40.7,0,48H7.9z"/>
				</g>
				<g>
					<path class="st7" d="M6.3,41.7c0,0,0.8,2.8,1.4,6.3h10.7l-5.7-21.5L4.8,29C4.8,29,6.9,37.4,6.3,41.7z"/>
				</g>
				<g>
					<path class="st0" d="M16.9,48H19c0-0.4-0.1-0.8-0.1-1.1c-0.2-1.9-2.2-11.6-3.2-16.2s0.2-6.9,0.2-6.9c-0.6,0.1-2.6,2.2-3.3,2.8
						c-0.7,0.6-1.8,2.9-1.8,2.9l1.8,0.5l-2.8,1.8C11.4,37.4,13.8,42.9,16.9,48z"/>
				</g>
			</g>
			<g>
				<path class="st4" d="M22.9,5.1c0,0-2,2.9-4.9,5.6s-4.3,3-4.7,3.8c-0.3,0.7,0,5,2.1,7.5c1,1.1,1.6,2.5,1.6,4c0,0.1,0,0.3,0,0.4
					c0,0-3.4-1.7-4.9-6.7s-2-9.7-0.4-14.1s7.8-6.8,11-5.2s5.5,5.4,6,8.3c0.5,2.9,0.5,5.4,0.3,7.4c-0.2,1.7-0.5,3.7-2.6,7.7
					c-1.1,1.5-1.4,4.9-1.4,4.9s-0.9-2-0.6-3.9c0.6-3,1.9-4.6,2.2-7.5c0.4-3-1-9.4-2-10.8C23.7,5.2,22.9,5.1,22.9,5.1z"/>
			</g>
		</g>
		<g>
			<g>
				<circle class="st6" cx="36.1" cy="36.1" r="11.9"/>
			</g>
			<g>
				<circle class="st10" cx="36.1" cy="36.1" r="8.3"/>
			</g>
			<g>
				<g>
					<path class="st6" d="M35.6,39.3v-2.8c-0.9-0.3-1.5-0.6-1.9-1.1c-0.4-0.5-0.6-1.1-0.6-1.9c0-0.7,0.2-1.4,0.7-1.9
						s1.1-0.8,1.9-0.9v-0.7h1v0.7c0.7,0.1,1.3,0.3,1.7,0.7c0.4,0.4,0.7,0.9,0.8,1.6l-1.7,0.2c-0.1-0.5-0.4-0.9-0.8-1.1v2.6
						c1.1,0.3,1.8,0.7,2.2,1.1c0.4,0.5,0.6,1.1,0.6,1.8c0,0.8-0.2,1.5-0.7,2.1c-0.5,0.6-1.2,0.9-2.1,1v1.3h-1v-1.2
						c-0.8-0.1-1.4-0.4-1.9-0.9S33,38.9,32.8,38l1.8-0.2c0.1,0.4,0.2,0.7,0.4,0.9C35.2,39,35.4,39.2,35.6,39.3z M35.6,32.2
						c-0.3,0.1-0.5,0.2-0.6,0.5c-0.2,0.2-0.2,0.5-0.2,0.7c0,0.2,0.1,0.5,0.2,0.7c0.1,0.2,0.4,0.4,0.7,0.5V32.2z M36.6,39.4
						c0.3-0.1,0.6-0.2,0.8-0.5c0.2-0.2,0.3-0.5,0.3-0.9c0-0.3-0.1-0.6-0.3-0.8c-0.2-0.2-0.5-0.4-0.9-0.5V39.4z"/>
				</g>
			</g>
		</g>
	</g>
</g>
</svg>
