<?xml version="1.0" encoding="utf-8"?>
<!-- Generator: Adobe Illustrator 18.0.0, SVG Export Plug-In . SVG Version: 6.00 Build 0)  -->
<!DOCTYPE svg PUBLIC "-//W3C//DTD SVG 1.1//EN" "http://www.w3.org/Graphics/SVG/1.1/DTD/svg11.dtd">
<svg version="1.1" id="Layer_1" xmlns="http://www.w3.org/2000/svg" xmlns:xlink="http://www.w3.org/1999/xlink" x="0px" y="0px"
	 viewBox="0 0 48 48" enable-background="new 0 0 48 48" xml:space="preserve">
<g>
	<g>
		<g>
			<g>
				<g>
					<g>
						<g>
							<rect x="35" y="14.3" fill="#E8EAE9" width="5.8" height="10.2"/>
						</g>
					</g>
					<g>
						<g>
							<path fill="#66C6B9" d="M35.7,24.5c1.7-1.2,3.4,0.3,5.1-2.4v-2c-1.9,3.1-3.9,0.7-5.8,3v1.3H35.7z"/>
						</g>
						<g>
							<path fill="#66C6B9" d="M36.5,14.3c-0.5,0.1-1,0.4-1.5,1v2c1.9-2.3,3.9,0,5.8-3H36.5z"/>
						</g>
						<g>
							<path fill="#66C6B9" d="M40.9,16.2c-1.9,3.1-3.9,0.7-5.8,3v2c1.9-2.3,3.9,0.1,5.8-3V16.2z"/>
						</g>
					</g>
				</g>
				<g>
					<g>
						<path fill="#FFD15C" d="M40.1,11.3c0-1.2-2.1-4.6-2.1-4.6s-2.1,3.4-2.1,4.6s1,2.1,2.1,2.1S40.1,12.5,40.1,11.3z"/>
					</g>
					<g>
						<path fill="#F3705A" d="M39.2,12.2c0-0.7-1.2-2.6-1.2-2.6s-1.2,2-1.2,2.6c0,0.7,0.5,1.2,1.2,1.2
							C38.6,13.4,39.2,12.9,39.2,12.2z"/>
					</g>
				</g>
			</g>
			<g>
				<g>
					<g>
						<g>
							<rect x="21.1" y="7.6" fill="#E8EAE9" width="5.8" height="16.9"/>
						</g>
					</g>
					<g>
						<g>
							<path fill="#66C6B9" d="M26.9,13.4c-1.9,3.1-3.9,0.7-5.8,3v2c1.9-2.3,3.9,0.1,5.8-3V13.4z"/>
						</g>
						<g>
							<path fill="#66C6B9" d="M26.9,17.4c-1.9,3.1-3.9,0.7-5.8,3v2c1.9-2.3,3.9,0.1,5.8-3V17.4z"/>
						</g>
						<g>
							<path fill="#66C6B9" d="M25.7,24.5c0.4-0.3,0.8-0.7,1.2-1.3v-2c-1.9,3.1-3.9,0.7-5.8,3v0.2H25.7z"/>
						</g>
						<g>
							<path fill="#66C6B9" d="M22.6,7.6c-0.5,0.2-1,0.4-1.5,1v2c1.9-2.3,3.9,0,5.8-3H22.6z"/>
						</g>
						<g>
							<path fill="#66C6B9" d="M26.9,9.5c-1.9,3.1-3.9,0.7-5.8,3v2c1.9-2.3,3.9,0.1,5.8-3V9.5z"/>
						</g>
					</g>
				</g>
				<g>
					<g>
						<path fill="#FFD15C" d="M26.1,4.6C26.1,3.4,24,0,24,0s-2.1,3.4-2.1,4.6c0,1.2,1,2.1,2.1,2.1C25.2,6.7,26.1,5.8,26.1,4.6z"/>
					</g>
					<g>
						<path fill="#F3705A" d="M25.2,5.5c0-0.7-1.2-2.6-1.2-2.6s-1.2,2-1.2,2.6c0,0.7,0.5,1.2,1.2,1.2C24.7,6.7,25.2,6.2,25.2,5.5z"
							/>
					</g>
				</g>
			</g>
			<g>
				<g>
					<g>
						<g>
							<rect x="7.1" y="14.3" fill="#E8EAE9" width="5.8" height="10.2"/>
						</g>
					</g>
					<g>
						<g>
							<path fill="#66C6B9" d="M7.8,24.5c1.7-1.2,3.4,0.3,5.1-2.4v-2c-1.9,3.1-3.9,0.7-5.8,3v1.3H7.8z"/>
						</g>
						<g>
							<path fill="#66C6B9" d="M8.6,14.3c-0.5,0.1-1,0.4-1.5,1v2c1.9-2.3,3.9,0,5.8-3H8.6z"/>
						</g>
						<g>
							<path fill="#66C6B9" d="M13,16.2c-1.9,3.1-3.9,0.7-5.8,3v2c1.9-2.3,3.9,0.1,5.8-3V16.2z"/>
						</g>
					</g>
				</g>
				<g>
					<g>
						<path fill="#FFD15C" d="M12.2,11.3c0-1.2-2.1-4.6-2.1-4.6s-2.1,3.4-2.1,4.6s1,2.1,2.1,2.1C11.2,13.4,12.2,12.5,12.2,11.3z"/>
					</g>
					<g>
						<path fill="#F3705A" d="M11.3,12.2c0-0.7-1.2-2.6-1.2-2.6s-1.2,2-1.2,2.6c0,0.7,0.5,1.2,1.2,1.2
							C10.7,13.4,11.3,12.9,11.3,12.2z"/>
					</g>
				</g>
			</g>
		</g>
		<g>
			<g>
				<path fill="#FFD15C" d="M47.5,48H1.1V25.6c0-1.7,1.4-3.1,3.1-3.1h40.1c1.7,0,3.1,1.4,3.1,3.1V48z"/>
			</g>
			<g>
				<path fill="#344A5E" d="M0.4,30.9l4.3-3.1c11.4-1.1,22.9-0.4,34,2.2c2.7,0.6,5.7-3,7.5-0.9c1.6,1.9,1.8,7,1.5,10.8
					c-0.2,2.3-2.7,3.5-4.6,2.2c-0.5-0.4-1-0.7-1.3-0.7c-3.2-0.9-6.2,2-9.5,2.2c-2.6,0.2-5.1-1-7.5-2.1c-2.4-1-5.1-1.9-7.6-1.1
					c-2.2,0.7-4.2,2.8-6.5,2.3c-2.1-0.4-3.6-2.9-5.7-2.8c-1.3,0.1-2.6,1.2-3.7,0.6c-0.9-0.5-1-1.7-0.9-2.7V30.9z"/>
			</g>
			<g>
				<path fill="#415A6B" d="M47.8,34.6c-0.2,2.8-4.9,3.4-7.2,2c-1.3-0.8-2.4-2.2-3.9-2.1c-1.4,0.1-2.4,1.5-3.6,2.3
					c-1.5,1-3.4,1-5.1,0.6c-1.7-0.4-3.4-1.1-5.1-1.6c-1.7-0.5-2.4-0.7-4.2-0.8c-0.6-0.1-1.2-0.1-1.8-0.2c-1.3-0.1-2.5-0.3-3.8,0
					c-1.7,0.3-3,1.3-4.6,0.6c-1.1-0.5-1.8-1.6-3-1.9c-1.1-0.2-2.5,2.4-4.3,1.7C-0.4,34-1.4,21.5,4.8,21.5c7.1,0,37.5,0,37.5,0
					C46.2,21.5,48.8,22.5,47.8,34.6z"/>
			</g>
		</g>
	</g>
</g>
</svg>
