<?xml version="1.0" encoding="utf-8"?>
<!-- Generator: Adobe Illustrator 18.0.0, SVG Export Plug-In . SVG Version: 6.00 Build 0)  -->
<!DOCTYPE svg PUBLIC "-//W3C//DTD SVG 1.1//EN" "http://www.w3.org/Graphics/SVG/1.1/DTD/svg11.dtd">
<svg version="1.1" id="Layer_1" xmlns="http://www.w3.org/2000/svg" xmlns:xlink="http://www.w3.org/1999/xlink" x="0px" y="0px"
	 viewBox="0 0 48 48" enable-background="new 0 0 48 48" xml:space="preserve">
<g>
	<path fill="#F2F2F2" d="M46,48H2c-1.1,0-2-0.9-2-2V2c0-1.1,0.9-2,2-2h44c1.1,0,2,0.9,2,2v44C48,47.1,47.1,48,46,48z"/>
	<g>
		<g>
			<ellipse fill="#40596B" cx="35.7" cy="17.8" rx="1.4" ry="2.1"/>
			
				<ellipse transform="matrix(0.1575 0.9875 -0.9875 0.1575 44.6404 -16.3736)" fill="#40596B" cx="31.9" cy="18" rx="3.1" ry="2.1"/>
			<ellipse fill="#40596B" cx="38.6" cy="18.2" rx="1.2" ry="1.8"/>
			<ellipse fill="#40596B" cx="41.2" cy="19.3" rx="1.2" ry="1.8"/>
			
				<ellipse transform="matrix(0.1573 -0.9875 0.9875 0.1573 15.4815 60.4973)" fill="#40596B" cx="43.2" cy="21.2" rx="1.4" ry="0.9"/>
			<path fill="#40596B" d="M37.5,20.2c-5.6-0.3-6.2,4.4-6.2,4.4c-0.3,1.3,0.3,2.4,1,3.4c0.7,0.9,1.5,1.5,2.5,2
				c0.1,0,0.2,0.1,0.2,0.1c2,1.2,2.7,3.6,1.9,5.8c-0.5,1.4-1.1,2.6-1.1,2.6c-2,3.5-0.7,6.4-0.7,6.4c1.5,3.8,5.4,1.8,5.4,1.8
				c3.1-2.2,2.5-6,2.5-6c-0.4-2.7,0.3-7.2,0.3-7.2c1.3-6.5,0-9.4,0-9.4C41.5,20.2,37.5,20.2,37.5,20.2z"/>
		</g>
		<g>
			<ellipse fill="#40596B" cx="12.5" cy="17.8" rx="1.4" ry="2.1"/>
			
				<ellipse transform="matrix(-0.1575 0.9875 -0.9875 -0.1575 36.6443 4.6893)" fill="#40596B" cx="16.3" cy="18" rx="3.1" ry="2.1"/>
			<ellipse fill="#40596B" cx="9.6" cy="18.2" rx="1.2" ry="1.8"/>
			<ellipse fill="#40596B" cx="7" cy="19.3" rx="1.2" ry="1.8"/>
			
				<ellipse transform="matrix(-0.1573 -0.9875 0.9875 -0.1573 -15.0708 29.4944)" fill="#40596B" cx="5" cy="21.2" rx="1.4" ry="0.9"/>
			<path fill="#40596B" d="M10.7,20.2c5.6-0.3,6.2,4.4,6.2,4.4c0.3,1.3-0.3,2.4-1,3.4c-0.7,0.9-1.5,1.5-2.5,2
				c-0.1,0-0.2,0.1-0.2,0.1c-2,1.2-2.7,3.6-1.9,5.8c0.5,1.4,1.1,2.6,1.1,2.6c2,3.5,0.7,6.4,0.7,6.4c-1.5,3.8-5.4,1.8-5.4,1.8
				c-3.1-2.2-2.5-6-2.5-6C5.7,38.1,5,33.6,5,33.6c-1.3-6.5,0-9.4,0-9.4C6.8,20.2,10.7,20.2,10.7,20.2z"/>
		</g>
	</g>
	<path fill="#84DBFF" d="M26.5,2.7V0h-4.9v2.7c-2.4,1-4.1,3.3-4.1,6c0,3.6,2.9,6.5,6.5,6.5s6.5-2.9,6.5-6.5
		C30.6,6,28.9,3.7,26.5,2.7z"/>
	<g>
		<path fill="#F2F2F2" d="M24.1,2.8c-0.1,0-0.3,0.1-0.3,0.3v1c0,0.1,0.1,0.3,0.3,0.3s0.3-0.1,0.3-0.3V3C24.3,2.9,24.2,2.8,24.1,2.8z
			"/>
		<path fill="#F2F2F2" d="M24.1,13.3c-0.1,0-0.3,0.1-0.3,0.3v1c0,0.1,0.1,0.3,0.3,0.3s0.3-0.1,0.3-0.3v-1
			C24.3,13.4,24.2,13.3,24.1,13.3z"/>
		<path fill="#F2F2F2" d="M28,4.5l-0.7,0.7c-0.1,0.1-0.1,0.3,0,0.4c0,0,0.1,0.1,0.2,0.1c0.1,0,0.1,0,0.2-0.1l0.7-0.7
			c0.1-0.1,0.1-0.3,0-0.4S28.1,4.4,28,4.5z"/>
		<path fill="#F2F2F2" d="M20.5,12l-0.7,0.7c-0.1,0.1-0.1,0.3,0,0.4c0,0,0.1,0.1,0.2,0.1s0.1,0,0.2-0.1l0.7-0.7
			c0.1-0.1,0.1-0.3,0-0.4S20.6,11.9,20.5,12z"/>
		<path fill="#F2F2F2" d="M29.9,8.5h-1c-0.1,0-0.3,0.1-0.3,0.3S28.7,9,28.9,9h1c0.1,0,0.3-0.1,0.3-0.3S30,8.5,29.9,8.5z"/>
		<path fill="#F2F2F2" d="M19.3,8.5h-1c-0.1,0-0.3,0.1-0.3,0.3S18.2,9,18.3,9h1c0.1,0,0.3-0.1,0.3-0.3S19.4,8.5,19.3,8.5z"/>
		<path fill="#F2F2F2" d="M27.6,12c-0.1-0.1-0.3-0.1-0.4,0s-0.1,0.3,0,0.4L28,13c0,0,0.1,0.1,0.2,0.1s0.1,0,0.2-0.1
			c0.1-0.1,0.1-0.3,0-0.4L27.6,12z"/>
		<path fill="#F2F2F2" d="M20.2,4.5c-0.1-0.1-0.3-0.1-0.4,0s-0.1,0.3,0,0.4l0.7,0.7c0,0,0.1,0.1,0.2,0.1s0.1,0,0.2-0.1
			c0.1-0.1,0.1-0.3,0-0.4L20.2,4.5z"/>
	</g>
	<path fill="#F2F2F2" d="M24.1,8.5L24.1,8.5c-0.1,0-0.3-0.1-0.3-0.3V5.2c0-0.1,0.1-0.3,0.3-0.3l0,0c0.1,0,0.3,0.1,0.3,0.3v3.1
		C24.3,8.4,24.2,8.5,24.1,8.5z"/>
	<circle fill="#F2F2F2" cx="24.1" cy="8.8" r="1.6"/>
</g>
</svg>
