<?xml version="1.0" encoding="utf-8"?>
<!-- Generator: Adobe Illustrator 18.0.0, SVG Export Plug-In . SVG Version: 6.00 Build 0)  -->
<!DOCTYPE svg PUBLIC "-//W3C//DTD SVG 1.1//EN" "http://www.w3.org/Graphics/SVG/1.1/DTD/svg11.dtd">
<svg version="1.1" id="Layer_1" xmlns="http://www.w3.org/2000/svg" xmlns:xlink="http://www.w3.org/1999/xlink" x="0px" y="0px"
	 viewBox="0 0 48 48" enable-background="new 0 0 48 48" xml:space="preserve">
<g>
	<path fill="#F2F2F2" d="M46.1,39.9H25.6c-2.6-7.5-2.6-15.6,0-23h20.5C48.6,24.3,48.6,32.4,46.1,39.9z"/>
	<path fill="#FFD15C" d="M45.9,18.9H25.8c-1.1,0-2.1-0.9-2.1-2.1l0,0c0-1.1,0.9-2.1,2.1-2.1h20.1c1.1,0,2.1,0.9,2.1,2.1l0,0
		C48,18,47.1,18.9,45.9,18.9z"/>
	<path opacity="0.1" fill="#231F20" d="M45.9,18.9H25.8c-0.3,0-0.5-0.1-0.8-0.1c-0.1,0.3-0.2,0.7-0.3,1c0.3,0.1,0.7,0.2,1,0.2h20.1
		c0.4,0,0.7-0.1,1-0.2c-0.1-0.4-0.2-0.7-0.3-1C46.4,18.9,46.2,18.9,45.9,18.9z"/>
	<g>
		<path fill="#CDD6E0" d="M28.3,39.9H2.4c-3.2-9.4-3.2-19.7,0-29.1h25.9C31.5,20.2,31.5,30.4,28.3,39.9z"/>
		<path fill="#FFD15C" d="M28.1,13.4H2.6c-1.5,0-2.6-1.2-2.6-2.6l0,0c0-1.5,1.2-2.6,2.6-2.6h25.5c1.5,0,2.6,1.2,2.6,2.6l0,0
			C30.7,12.2,29.5,13.4,28.1,13.4z"/>
		<path opacity="0.1" fill="#231F20" d="M28.1,13.4H2.6c-0.3,0-0.7-0.1-1-0.2c-0.1,0.4-0.2,0.9-0.4,1.3c0.4,0.1,0.9,0.2,1.3,0.2
			h25.5c0.5,0,0.9-0.1,1.3-0.2c-0.1-0.4-0.2-0.9-0.4-1.3C28.7,13.3,28.4,13.4,28.1,13.4z"/>
	</g>
</g>
</svg>
