<?xml version="1.0" encoding="utf-8"?>
<!-- Generator: Adobe Illustrator 20.1.0, SVG Export Plug-In . SVG Version: 6.00 Build 0)  -->
<!DOCTYPE svg PUBLIC "-//W3C//DTD SVG 1.1//EN" "http://www.w3.org/Graphics/SVG/1.1/DTD/svg11.dtd">
<svg version="1.1" id="Layer_1" xmlns="http://www.w3.org/2000/svg" xmlns:xlink="http://www.w3.org/1999/xlink" x="0px" y="0px"
	 viewBox="0 0 49 49" enable-background="new 0 0 49 49" xml:space="preserve">
<g>
	<rect x="3.8" y="27.5" fill="#F2F2F2" width="41.3" height="21"/>
	<rect x="7.7" y="11.6" fill="#F2F2F2" width="33.6" height="8.8"/>
	<polygon fill="#FF7058" points="46.2,20.4 2.8,20.4 0.5,27.5 48.5,27.5 	"/>
	<polygon fill="#FF7058" points="42.2,4.5 6.8,4.5 4.5,11.6 44.5,11.6 	"/>
	<rect x="3.8" y="27.5" fill="#E2E2E2" width="41.3" height="1.5"/>
	<rect x="7.7" y="11.6" fill="#E2E2E2" width="33.6" height="1.5"/>
	<rect x="13" y="2.3" fill="#ACB3BA" width="3.5" height="2.2"/>
	<rect x="12.2" y="0.5" fill="#CDD6E0" width="5.1" height="1.8"/>
	<rect x="7.6" y="37.5" fill="#CDD6E0" width="5.1" height="5.1"/>
	<rect x="36.3" y="37.5" fill="#CDD6E0" width="5.1" height="5.1"/>
	<rect x="11" y="14.4" fill="#ACB3BA" width="3.2" height="3.1"/>
	<rect x="18.9" y="14.4" fill="#ACB3BA" width="3.2" height="3.1"/>
	<rect x="26.8" y="14.4" fill="#ACB3BA" width="3.2" height="3.1"/>
	<rect x="34.8" y="14.4" fill="#ACB3BA" width="3.2" height="3.1"/>
	<g>
		<path fill="#40596B" d="M31,39v9.5H18V39c0-3.6,2.9-6.5,6.5-6.5l0,0C28.1,32.5,31,35.4,31,39z"/>
	</g>
</g>
</svg>
