<?xml version="1.0" encoding="utf-8"?>
<!-- Generator: Adobe Illustrator 16.0.0, SVG Export Plug-In . SVG Version: 6.00 Build 0)  -->
<!DOCTYPE svg PUBLIC "-//W3C//DTD SVG 1.1//EN" "http://www.w3.org/Graphics/SVG/1.1/DTD/svg11.dtd">
<svg version="1.1" id="Layer_1" xmlns="http://www.w3.org/2000/svg" xmlns:xlink="http://www.w3.org/1999/xlink" x="0px" y="0px"
	 width="48px" height="48px" viewBox="0 0 48 48" enable-background="new 0 0 48 48" xml:space="preserve">
<g>
	<path fill="#334A5E" d="M48,23.999c0,13.256-10.746,24-24,24c-13.256,0-24-10.744-24-24C0,10.745,10.744,0,24,0
		C37.254,0,48,10.745,48,23.999"/>
	<path fill="#F2F2F2" d="M42.986,23.999c0,10.486-8.5,18.988-18.986,18.988S5.012,34.485,5.012,23.999
		C5.012,13.513,13.514,5.012,24,5.012S42.986,13.513,42.986,23.999"/>
	<path fill="#CDD6E0" d="M24,7.036c-0.168,0-0.305,0.136-0.305,0.304v1.847c0,0.168,0.137,0.303,0.305,0.303
		s0.303-0.135,0.303-0.303V7.339C24.303,7.171,24.168,7.036,24,7.036"/>
	<path fill="#CDD6E0" d="M24,38.509c-0.168,0-0.305,0.136-0.305,0.304v1.846c0,0.168,0.137,0.305,0.305,0.305
		s0.303-0.137,0.303-0.305v-1.846C24.303,38.645,24.168,38.509,24,38.509"/>
	<path fill="#CDD6E0" d="M15.518,9.308c-0.145,0.084-0.195,0.269-0.111,0.415l0.924,1.6c0.084,0.145,0.27,0.194,0.414,0.11
		s0.195-0.271,0.111-0.415l-0.922-1.6C15.85,9.274,15.662,9.224,15.518,9.308"/>
	<path fill="#CDD6E0" d="M31.254,36.565c-0.145,0.084-0.193,0.27-0.109,0.416l0.922,1.598c0.084,0.146,0.27,0.195,0.416,0.111
		c0.145-0.084,0.193-0.27,0.109-0.414l-0.922-1.6C31.586,36.532,31.4,36.481,31.254,36.565"/>
	<path fill="#CDD6E0" d="M9.309,15.517c-0.084,0.146-0.033,0.331,0.111,0.415l1.598,0.923c0.146,0.085,0.332,0.034,0.416-0.11
		c0.084-0.146,0.033-0.332-0.111-0.416l-1.6-0.922C9.578,15.323,9.393,15.372,9.309,15.517"/>
	<path fill="#CDD6E0" d="M36.566,31.254c-0.084,0.145-0.035,0.33,0.109,0.414l1.6,0.924c0.146,0.084,0.332,0.033,0.416-0.111
		s0.033-0.33-0.111-0.414l-1.6-0.924C36.834,31.059,36.65,31.11,36.566,31.254"/>
	<path fill="#CDD6E0" d="M7.035,23.999c0,0.168,0.137,0.305,0.305,0.305h1.846c0.168,0,0.305-0.137,0.305-0.305
		s-0.137-0.303-0.305-0.303H7.34C7.172,23.696,7.035,23.831,7.035,23.999"/>
	<path fill="#CDD6E0" d="M38.51,23.999c0,0.168,0.137,0.305,0.305,0.305h1.846c0.168,0,0.303-0.137,0.303-0.305
		s-0.135-0.303-0.303-0.303h-1.846C38.646,23.696,38.51,23.831,38.51,23.999"/>
	<path fill="#CDD6E0" d="M9.309,32.481c0.084,0.145,0.27,0.195,0.414,0.111l1.6-0.924c0.145-0.084,0.195-0.27,0.111-0.414
		c-0.084-0.146-0.27-0.195-0.416-0.111L9.42,32.066C9.275,32.15,9.225,32.336,9.309,32.481"/>
	<path fill="#CDD6E0" d="M36.566,16.745c0.084,0.145,0.268,0.194,0.414,0.11l1.6-0.923c0.145-0.084,0.195-0.27,0.111-0.415
		s-0.27-0.194-0.416-0.11l-1.6,0.922C36.531,16.413,36.482,16.599,36.566,16.745"/>
	<path fill="#CDD6E0" d="M15.518,38.69c0.145,0.084,0.332,0.034,0.416-0.111l0.922-1.598c0.084-0.146,0.033-0.332-0.111-0.416
		s-0.33-0.033-0.414,0.111l-0.924,1.6C15.322,38.42,15.373,38.606,15.518,38.69"/>
	<path fill="#CDD6E0" d="M31.254,11.433c0.146,0.084,0.332,0.034,0.416-0.111l0.922-1.599c0.084-0.145,0.035-0.331-0.109-0.415
		c-0.146-0.084-0.332-0.034-0.416,0.11l-0.922,1.6C31.061,11.165,31.109,11.349,31.254,11.433"/>
	
		<rect x="12.853" y="21.066" transform="matrix(-0.7071 -0.7071 0.7071 -0.7071 21.1622 51.0914)" fill="#ACB3BA" width="16.62" height="0.193"/>
	<path fill="#F2705B" d="M24,10.61c-0.574,0-1.039,0.465-1.039,1.039v15.813c0,0.573,0.465,1.038,1.039,1.038
		c0.572,0,1.037-0.465,1.037-1.038V11.649C25.037,11.075,24.572,10.61,24,10.61"/>
	<path fill="#F2705B" d="M13.754,23.999c0,0.574,0.465,1.039,1.039,1.039h12.941c0.574,0,1.039-0.465,1.039-1.039
		c0-0.572-0.465-1.037-1.039-1.037H14.793C14.219,22.961,13.754,23.426,13.754,23.999"/>
	<path fill="#334A5E" d="M26.959,23.999c0,1.636-1.324,2.961-2.959,2.961s-2.961-1.325-2.961-2.961c0-1.635,1.326-2.959,2.961-2.959
		S26.959,22.364,26.959,23.999"/>
	<path fill="#E5E8EC" d="M25.416,23.999c0,0.783-0.633,1.418-1.416,1.418s-1.418-0.635-1.418-1.418c0-0.781,0.635-1.416,1.418-1.416
		S25.416,23.217,25.416,23.999"/>
	<path fill="#E4EAEF" d="M24,7.012c10.148,0,18.412,7.969,18.936,17.986c0.018-0.332,0.051-0.662,0.051-1
		c0-10.485-8.5-18.986-18.986-18.986S5.012,13.513,5.012,23.999c0,0.338,0.033,0.668,0.053,1C5.586,14.981,13.85,7.012,24,7.012"/>
</g>
</svg>
