<?xml version="1.0" encoding="utf-8"?>
<!-- Generator: Adobe Illustrator 18.0.0, SVG Export Plug-In . SVG Version: 6.00 Build 0)  -->
<!DOCTYPE svg PUBLIC "-//W3C//DTD SVG 1.1//EN" "http://www.w3.org/Graphics/SVG/1.1/DTD/svg11.dtd">
<svg version="1.1" id="Layer_1" xmlns="http://www.w3.org/2000/svg" xmlns:xlink="http://www.w3.org/1999/xlink" x="0px" y="0px"
	 viewBox="0 0 48 48" enable-background="new 0 0 48 48" xml:space="preserve">
<g>
	<g>
		<g>
			<path fill="#F3705A" d="M28.6,8.3V6.6h-9.2v1.7C15.2,13.7,13,20.3,13,27v17.6c0,1.8,1.5,3.3,3.3,3.3h15.4c1.8,0,3.3-1.5,3.3-3.3
				V27C35,20.3,32.8,13.7,28.6,8.3z"/>
		</g>
		<g>
			<rect x="13" y="27" fill="#F3F3F3" width="22" height="15.7"/>
		</g>
		<g>
			<g>
				<g>
					<path fill="#415A6B" d="M29.3,36.2C29.3,36.2,29.3,36.1,29.3,36.2c0.2-0.4-0.1-0.8-0.5-0.9c-0.2,0-0.5,0.1-0.6,0.3c0,0,0,0,0,0
						c-0.3,0.5-0.8,1-1.4,1.2l-3.9,1.6c-0.6,0.2-1.2,0.3-1.8,0.1c0,0,0,0,0,0c-0.2,0-0.5,0.1-0.6,0.3c-0.2,0.3-0.1,0.8,0.3,1
						c0,0,0,0,0,0c0,0,0,0,0,0c-0.2,0.4,0.1,0.8,0.5,0.9c0.2,0,0.5-0.1,0.6-0.3c0,0,0,0,0,0c0.3-0.5,0.8-1,1.4-1.2l3.9-1.6
						c0.6-0.2,1.2-0.3,1.8-0.1c0,0,0,0,0,0c0.2,0,0.5-0.1,0.6-0.3C29.8,36.8,29.7,36.3,29.3,36.2C29.3,36.2,29.3,36.2,29.3,36.2z"/>
				</g>
				<g>
					<path fill="#415A6B" d="M27.3,39.7C27.3,39.7,27.4,39.7,27.3,39.7c0.4-0.2,0.5-0.6,0.3-1c-0.1-0.2-0.4-0.3-0.6-0.3c0,0,0,0,0,0
						c-0.6,0.1-1.3,0.1-1.8-0.1l-3.9-1.6c-0.6-0.2-1-0.7-1.4-1.2c0,0,0,0,0,0c-0.1-0.2-0.4-0.3-0.6-0.3c-0.4,0.1-0.6,0.5-0.5,0.9
						c0,0,0,0,0,0c0,0,0,0,0,0c-0.4,0.2-0.5,0.6-0.3,1c0.1,0.2,0.4,0.3,0.6,0.3c0,0,0,0,0,0c0.6-0.1,1.3-0.1,1.8,0.1l3.9,1.6
						c0.6,0.2,1,0.7,1.4,1.2c0,0,0,0,0,0c0.1,0.2,0.4,0.3,0.6,0.3C27.3,40.5,27.5,40.1,27.3,39.7C27.3,39.7,27.3,39.7,27.3,39.7z"/>
				</g>
			</g>
			<g>
				<path fill="#415A6B" d="M27.5,32.5c0-1.8-1.6-3.3-3.5-3.3s-3.5,1.5-3.5,3.3c0,0.6,0.2,1.2,0.5,1.7c-0.2,0.2-0.3,0.4-0.3,0.6
					c0,0.6,0.6,1.1,1.3,1.1c0,0.4,0.1,0.7,0.3,0.9c0.6,0.6,2.7,0.6,3.3,0c0.2-0.2,0.2-0.5,0.3-0.9c0.8-0.1,1.3-0.5,1.3-1.1
					c0-0.2-0.1-0.5-0.3-0.6C27.3,33.7,27.5,33.2,27.5,32.5z"/>
				<g>
					<g>
						<g>
							<path fill="#F3F3F3" d="M24.5,33.2c0.2,0.6,1.1,0.4,1.5,0.2c0.4-0.2,0.6-0.6,0.5-1.1c-0.2-0.4-0.6-0.6-1-0.5
								S24.2,32.7,24.5,33.2z"/>
						</g>
					</g>
					<g>
						<g>
							<path fill="#F3F3F3" d="M23.5,33.2c-0.2,0.6-1.1,0.4-1.5,0.2c-0.4-0.2-0.6-0.6-0.5-1.1c0.2-0.4,0.6-0.6,1-0.5
								S23.8,32.7,23.5,33.2z"/>
						</g>
					</g>
				</g>
				<g>
					<path fill="#F3F3F3" d="M24.6,35.6c-0.1,0.3-0.3,0.2-0.5,0.1c-0.1-0.1-0.2-0.1-0.3,0c-0.2,0.1-0.4,0.2-0.5-0.1
						c-0.1-0.5,0.5-1.1,0.6-1.3C24.1,34.5,24.7,35.2,24.6,35.6z"/>
				</g>
			</g>
		</g>
		<g>
			<g>
				<path fill="#415A6B" d="M18.2,1.1V7h11.6V1.1c0-0.6-0.5-1.1-1.1-1.1h-9.4C18.7,0,18.2,0.5,18.2,1.1z"/>
			</g>
			<g>
				<g>
					<path fill="#344A5E" d="M20.1,5.8L20.1,5.8c-0.3,0-0.5-0.2-0.5-0.4V2c0-0.2,0.2-0.4,0.4-0.4h0.1c0.2,0,0.4,0.2,0.4,0.4v3.5
						C20.5,5.7,20.3,5.8,20.1,5.8z"/>
				</g>
				<g>
					<path fill="#344A5E" d="M22.1,5.8L22.1,5.8c-0.3,0-0.5-0.2-0.5-0.4V2c0-0.2,0.2-0.4,0.4-0.4h0.1c0.2,0,0.4,0.2,0.4,0.4v3.5
						C22.5,5.7,22.3,5.8,22.1,5.8z"/>
				</g>
				<g>
					<path fill="#344A5E" d="M24,5.8L24,5.8c-0.3,0-0.5-0.2-0.5-0.4V2c0-0.2,0.2-0.4,0.4-0.4H24c0.2,0,0.4,0.2,0.4,0.4v3.5
						C24.4,5.7,24.3,5.8,24,5.8z"/>
				</g>
				<g>
					<path fill="#344A5E" d="M26,5.8L26,5.8c-0.3,0-0.5-0.2-0.5-0.4V2c0-0.2,0.2-0.4,0.4-0.4H26c0.2,0,0.4,0.2,0.4,0.4v3.5
						C26.4,5.7,26.2,5.8,26,5.8z"/>
				</g>
				<g>
					<path fill="#344A5E" d="M28,5.8L28,5.8c-0.3,0-0.5-0.2-0.5-0.4V2c0-0.2,0.2-0.4,0.4-0.4H28c0.2,0,0.4,0.2,0.4,0.4v3.5
						C28.4,5.7,28.2,5.8,28,5.8z"/>
				</g>
			</g>
		</g>
	</g>
</g>
</svg>
