<?xml version="1.0" encoding="utf-8"?>
<!-- Generator: Adobe Illustrator 18.0.0, SVG Export Plug-In . SVG Version: 6.00 Build 0)  -->
<!DOCTYPE svg PUBLIC "-//W3C//DTD SVG 1.1//EN" "http://www.w3.org/Graphics/SVG/1.1/DTD/svg11.dtd">
<svg version="1.1" id="Layer_1" xmlns="http://www.w3.org/2000/svg" xmlns:xlink="http://www.w3.org/1999/xlink" x="0px" y="0px"
	 viewBox="0 0 512 512" enable-background="new 0 0 512 512" xml:space="preserve">
<g>
	<path fill="#CDD6E0" d="M491.4,388.2H20.6c-10.3,0-18.6,8.3-18.6,18.6c0,10.3,8.3,18.6,18.6,18.6h470.7c10.3,0,18.6-8.3,18.6-18.6
		C510,396.5,501.7,388.2,491.4,388.2z"/>
	<path fill="#CDD6E0" d="M475,425.4l-24.2,10.7l-18.9,8.4c-2.7,1.2-5.6,1.8-8.6,1.8H88.6c-2.9,0-5.9-0.6-8.6-1.8l-18.9-8.4L37,425.4
		H475z"/>
	<path fill="#40596B" d="M464.4,65.8H47.6c-11.7,0-21.2,9.5-21.2,21.2v301.3h459.1V86.9C485.6,75.2,476.1,65.8,464.4,65.8z"/>
	<rect x="56.7" y="92.9" fill="#FFFFFF" width="398.7" height="268.2"/>
	<polygon fill="#ACB3BA" points="475,425.4 450.8,436.1 61.2,436.1 37,425.4 	"/>
	<circle fill="#FFFFFF" cx="451.3" cy="406.8" r="6"/>
	<circle fill="#FFFFFF" cx="433.8" cy="406.8" r="6"/>
	<rect x="109.6" y="190.8" fill="#FFD15C" width="44.5" height="113.8"/>
	<rect x="192.5" y="156.6" fill="#FF7058" width="44.5" height="148"/>
	<rect x="275.5" y="190.8" fill="#CDD6E0" width="44.5" height="113.8"/>
	<rect x="358.4" y="128.2" fill="#84DBFF" width="44.5" height="176.3"/>
</g>
</svg>
