<?xml version="1.0" encoding="utf-8"?>
<!-- Generator: Adobe Illustrator 18.0.0, SVG Export Plug-In . SVG Version: 6.00 Build 0)  -->
<!DOCTYPE svg PUBLIC "-//W3C//DTD SVG 1.1//EN" "http://www.w3.org/Graphics/SVG/1.1/DTD/svg11.dtd">
<svg version="1.1" id="Layer_1" xmlns="http://www.w3.org/2000/svg" xmlns:xlink="http://www.w3.org/1999/xlink" x="0px" y="0px"
	 viewBox="0 0 512 512" enable-background="new 0 0 512 512" xml:space="preserve">
<g>
	<circle fill="#FFD15C" cx="256" cy="256" r="254"/>
	<circle fill="#F8B64C" cx="256" cy="256" r="193.2"/>
	<g>
		<path fill="#FFD15C" d="M224.3,334.1c-5.5-7.3-9.3-16-11.3-26l-49.3,5.3c3.8,24.8,12.5,44,26,57.6c13.6,13.6,31.3,21.7,53,24.3
			V420h27.4v-25.7c24.5-3.5,43.7-13.1,57.5-28.7c13.8-15.6,20.7-34.8,20.7-57.6c0-20.4-5.5-37.1-16.4-50.1
			c-10.9-13-31.5-23.6-61.7-31.8v-73.8c12.2,5.3,19.8,15.4,22.6,30.2l47.8-6.2c-3.3-18.9-10.8-33.9-22.6-45.2
			c-11.8-11.3-27.7-18.1-47.8-20.5V92h-27.4v18.7c-21.6,2.1-39,10.2-52,24.3c-13,14-19.5,31.4-19.5,52c0,20.4,5.8,37.7,17.3,52
			c11.5,14.3,29.6,24.9,54.3,32V350C236,346.7,229.8,341.4,224.3,334.1z M270.2,279c11.3,3.3,19.5,8,24.4,14.1
			c5,6.1,7.5,13.4,7.5,21.8c0,9.4-3,17.6-8.9,24.6c-5.9,7-13.6,11.4-23,13.1V279z M224.5,203.2c-4-5.7-6-11.9-6-18.6
			c0-7.3,2.2-14,6.6-20c4.4-6,10.3-10.3,17.7-12.8v65.3C234.6,213.6,228.5,209,224.5,203.2z"/>
	</g>
</g>
</svg>
