<?xml version="1.0" encoding="utf-8"?>
<!-- Generator: Adobe Illustrator 18.0.0, SVG Export Plug-In . SVG Version: 6.00 Build 0)  -->
<!DOCTYPE svg PUBLIC "-//W3C//DTD SVG 1.1//EN" "http://www.w3.org/Graphics/SVG/1.1/DTD/svg11.dtd">
<svg version="1.1" id="Layer_1" xmlns="http://www.w3.org/2000/svg" xmlns:xlink="http://www.w3.org/1999/xlink" x="0px" y="0px"
	 viewBox="0 0 48 48" enable-background="new 0 0 48 48" xml:space="preserve">
<g>
	<g>
		<g>
			<path fill="#F3705B" d="M47.6,26.5l-4.6-9.6c-0.6-1.3-2-2.2-3.4-2.2H29.4v20.5h16c1.4,0,2.6-1.2,2.6-2.6v-4.6
				C48,27.6,47.9,27,47.6,26.5z"/>
			<path fill="#435B6C" d="M40.7,18.1c-0.2-0.4-0.6-0.7-1.1-0.7H32v8.6h12.5L40.7,18.1z"/>
		</g>
		<path fill="#F15741" d="M0,29.2v4.1c0,1.1,0.9,2,2,2h27.4v-6.1H0z"/>
		<path fill="#E8EAE9" d="M27.4,7.8H2c-1.1,0-2,0.9-2,2v19.4h29.4V9.8C29.4,8.7,28.5,7.8,27.4,7.8z"/>
		<path fill="#354B5E" d="M9.8,28.8c-3.6,0-6.5,2.9-6.5,6.5h13.1C16.3,31.7,13.4,28.8,9.8,28.8z"/>
		<g>
			<circle fill="#435B6C" cx="9.8" cy="35.3" r="4.9"/>
			<g>
				<circle fill="#F3F3F3" cx="9.8" cy="35.3" r="2"/>
			</g>
		</g>
		<path fill="#354B5E" d="M37.6,28.8c-3.6,0-6.5,2.9-6.5,6.5h13.1C44.1,31.7,41.2,28.8,37.6,28.8z"/>
		<g>
			<circle fill="#435B6C" cx="37.6" cy="35.3" r="4.9"/>
			<g>
				<circle fill="#F3F3F3" cx="37.6" cy="35.3" r="2"/>
			</g>
		</g>
	</g>
</g>
</svg>
