<?xml version="1.0" encoding="utf-8"?>
<!-- Generator: Adobe Illustrator 18.0.0, SVG Export Plug-In . SVG Version: 6.00 Build 0)  -->
<!DOCTYPE svg PUBLIC "-//W3C//DTD SVG 1.1//EN" "http://www.w3.org/Graphics/SVG/1.1/DTD/svg11.dtd">
<svg version="1.1" id="Layer_1" xmlns="http://www.w3.org/2000/svg" xmlns:xlink="http://www.w3.org/1999/xlink" x="0px" y="0px"
	 viewBox="0 0 48 48" enable-background="new 0 0 48 48" xml:space="preserve">
<g>
	<circle fill="#ACB3BA" cx="18" cy="38.8" r="2.7"/>
	<path fill="#F2F2F2" d="M44.3,0C33.8-0.1,26.9,5.6,18.6,11.3v22.5c8.3,5.7,15.2,11.4,25.8,11.3V0z"/>
	<path fill="#FFD15C" d="M18.6,33.8h-11c-1.1,0-2-0.9-2-2V13.3c0-1.1,0.9-2,2-2h11V33.8z"/>
	<path fill="#F8B64C" d="M5.5,14.4C2.3,15.5,0,18.5,0,22.1V23c0,3.6,2.3,6.6,5.5,7.7V14.4z"/>
	<path fill="#FFD15C" d="M46,45.1h-1.7V0H46c1.1,0,2,0.9,2,2v41.1C48,44.2,47.1,45.1,46,45.1z"/>
	<path fill="#4CDBC4" d="M15.2,48c-2,0-3.8-1.2-4.5-3.1c-0.1-0.2-0.1-0.3-0.1-0.5L10,42.9l-0.3-1.1l-0.6-2.1l-0.3-1.1l-0.6-2.1
		l-0.4-1.3l-0.4-1.5h10.1l0.4,1.5l1.8,6.5C20.7,44.9,18.4,48,15.2,48z"/>
	<polygon fill="#3DC9AE" points="18,35.3 7.9,35.3 7.5,33.8 17.6,33.8 	"/>
	<g>
		<path fill="#3DC9AE" d="M12.5,37.6c0,0.6-0.5,1-1,1H8.9l-0.6-2.1h3.2C12,36.6,12.5,37.1,12.5,37.6z"/>
		<path fill="#3DC9AE" d="M13.4,40.8c0,0.6-0.5,1-1,1H9.7l-0.6-2.1h3.2C12.9,39.7,13.4,40.2,13.4,40.8z"/>
		<path fill="#3DC9AE" d="M14.2,43.9c0,0.6-0.5,1-1,1h-2.6c-0.1-0.2-0.1-0.3-0.1-0.5L10,42.9h3.2C13.8,42.9,14.2,43.3,14.2,43.9z"/>
	</g>
</g>
</svg>
