<?xml version="1.0" encoding="utf-8"?>
<!-- Generator: Adobe Illustrator 18.0.0, SVG Export Plug-In . SVG Version: 6.00 Build 0)  -->
<!DOCTYPE svg PUBLIC "-//W3C//DTD SVG 1.1//EN" "http://www.w3.org/Graphics/SVG/1.1/DTD/svg11.dtd">
<svg version="1.1" id="Layer_1" xmlns="http://www.w3.org/2000/svg" xmlns:xlink="http://www.w3.org/1999/xlink" x="0px" y="0px"
	 viewBox="0 0 48 48" enable-background="new 0 0 48 48" xml:space="preserve">
<g>
	<g>
		<path fill="#FFD15C" d="M39.6,6.2H8.4c-1.6,0-2.9,1.3-2.9,2.9v36c0,1.6,1.3,2.9,2.9,2.9h31.2c1.6,0,2.9-1.3,2.9-2.9v-36
			C42.5,7.5,41.2,6.2,39.6,6.2z"/>
		<g>
			<rect x="9.4" y="10.1" fill="#FFFFFF" width="29.2" height="34.1"/>
		</g>
		<g>
			<g>
				<g>
					<path fill="#415A6B" d="M34.8,39.2h-1.5v-5.1H14.6v5.1h-1.5v-5.4c0-0.6,0.5-1.1,1.1-1.1h19.6c0.6,0,1.1,0.5,1.1,1.1V39.2z"/>
				</g>
			</g>
			<g>
				<g>
					<polygon fill="#415A6B" points="19.9,33.5 19.9,39.2 21.3,39.2 21.3,34.1 26.6,34.1 26.6,39.2 28.1,39.2 28.1,33.5 					"/>
				</g>
			</g>
			<g>
				<g>
					<g>
						<circle fill="#F3705A" cx="13.9" cy="39.2" r="2.2"/>
					</g>
				</g>
				<g>
					<g>
						<circle fill="#F3705A" cx="20.6" cy="39.2" r="2.2"/>
					</g>
				</g>
				<g>
					<g>
						<circle fill="#F3705A" cx="27.4" cy="39.2" r="2.2"/>
					</g>
				</g>
				<g>
					<g>
						<circle fill="#F3705A" cx="34.1" cy="39.2" r="2.2"/>
					</g>
				</g>
			</g>
			<g>
				<rect x="23.3" y="26.2" fill="#415A6B" width="1.5" height="7.2"/>
			</g>
			<g>
				<g>
					<g>
						<polygon fill="#415A6B" points="24.7,26.9 14.1,26.9 14.1,25.5 23.3,25.5 23.3,15.8 24.7,15.8 						"/>
					</g>
					<g>
						<rect x="24" y="25.5" fill="#415A6B" width="9.9" height="1.5"/>
					</g>
				</g>
				<g>
					<circle fill="#F3705A" cx="24" cy="15.8" r="2.4"/>
				</g>
				<g>
					<circle fill="#F3705A" cx="14.1" cy="26.2" r="2.4"/>
				</g>
				<g>
					<g>
						<circle fill="#F3705A" cx="33.9" cy="26.2" r="2.4"/>
					</g>
				</g>
				<g>
					<g>
						<rect x="20.8" y="23" fill="#F3705A" width="6.5" height="6.5"/>
					</g>
				</g>
			</g>
		</g>
		<g>
			<path fill="#415A6B" d="M30.3,4.6h-2.6C27.7,2.8,26.1,0,24,0c-2.1,0-3.7,2.8-3.7,4.6h-2.6c-1.1,0-2,0.9-2,2v5h16.6v-5
				C32.3,5.5,31.4,4.6,30.3,4.6z M24,1.8c0.5,0,0.9,0.5,0.9,1.1C24.9,3.6,24.5,4,24,4c-0.5,0-0.9-0.5-0.9-1.1
				C23.1,2.3,23.5,1.8,24,1.8z"/>
		</g>
	</g>
</g>
</svg>
