<?xml version="1.0" encoding="utf-8"?>
<!-- Generator: Adobe Illustrator 19.0.1, SVG Export Plug-In . SVG Version: 6.00 Build 0)  -->
<svg version="1.1" id="Layer_1" xmlns="http://www.w3.org/2000/svg" xmlns:xlink="http://www.w3.org/1999/xlink" x="0px" y="0px"
	 viewBox="0 0 48 48" style="enable-background:new 0 0 48 48;" xml:space="preserve">
<style type="text/css">
	.st0{fill:#FFD15C;}
	.st1{fill:#415A6B;}
	.st2{fill:#F7B64C;}
	.st3{fill:#CED6E0;}
	.st4{fill:#344A5E;}
	.st5{fill:#F3F3F3;}
	.st6{fill:#F05540;}
	.st7{fill:#F3705A;}
	.st8{fill:#66C6B9;}
	.st9{fill:#55C0EB;}
	.st10{fill:#F5F6FB;}
	.st11{fill:#4ABAA5;}
	.st12{fill:#ADB3BA;}
	.st13{fill:#E8EAE9;}
	.st14{fill:#2E4556;}
	.st15{fill:#8AD7F8;}
	.st16{fill:#FFFFFF;}
	.st17{fill:#E54838;}
	.st18{fill:#3EAF99;}
	.st19{fill:#EFA943;}
	.st20{fill:#4CAEE5;}
	.st21{fill:#293F4F;}
	.st22{fill:#2D4456;}
	.st23{fill:#2E4454;}
	.st24{fill:#2A3F4F;}
	.st25{fill:#2D4151;}
	.st26{fill:#E89E3D;}
	.st27{fill:#2B4151;}
	.st28{fill:#2A4051;}
	.st29{fill:#2C4151;}
	.st30{fill:#EBEAE8;}
	.st31{fill:#3AA590;}
	.st32{fill:#E84534;}
	.st33{fill:none;}
</style>
<g>
	<g>
		<g>
			<circle class="st9" cx="24" cy="24" r="24"/>
		</g>
		<g>
			<path class="st5" d="M3.1,12.2c0.1,0.2,0.2,0.2,0.4,0.3c0.1,0.1,0.2,0.1,0.3,0.2c0,0,0.1,0,0.2,0.1c0-0.1-0.1-0.2-0.1-0.2
				c-0.2-0.3-0.4-0.5-0.6-0.7c0.5-0.8,1-1.6,1.5-2.3c0,0.1,0,0.1,0,0.2c0,0.1-0.1,0.2-0.1,0.3c0.2,0.1,0.4,0,0.6,0
				c0,0.3,0,0.3,0.2,0.4c0-0.1,0-0.2,0-0.2c0,0,0.2,0,0.3,0C5.7,10.2,5.9,10.1,6,10c-0.1,0.1-0.2,0.1-0.2,0.1c-0.1,0-0.1,0.1-0.2,0
				C5.6,10,5.6,9.8,5.7,9.6c0,0.1,0.1,0.2,0.1,0.3C5.9,9.9,5.9,10,6,10v0.2c0,0.1,0,0.1,0,0.2c0,0.2,0,0.3,0.3,0.3
				c0.1,0,0.3,0,0.4,0.1c0.1,0,0.1,0,0.2,0.1c0.2,0.2,0.4,0.4,0.6,0.6c0.1,0.1,0.1,0.2,0,0.3c-0.1,0.1-0.1,0.2-0.2,0.3
				c0,0.1,0,0.2,0,0.2c0.1,0.1,0.2,0,0.2,0c0.1-0.1,0.2-0.1,0.3,0c0.2,0,0.4,0.1,0.5,0.1c0,0,0.1,0,0.1,0c0,0.2,0,0.3,0,0.4
				c0,0.1,0,0.2-0.1,0.3c-0.1,0.1-0.2,0.2-0.3,0.3c0.1,0.1,0.2,0,0.3-0.1C8.7,13.2,9,13,9.2,12.8c0.1,0.1,0.2,0.2,0.2,0.3
				c0,0.1,0,0.2,0.2,0.3c0-0.1,0-0.2-0.1-0.3c-0.1-0.2,0-0.3,0.1-0.5c0,0.1,0.1,0.2,0.1,0.3c0,0.1,0,0.2,0.1,0.3
				c0.2,0.3,0.3,0.6,0,0.9c0,0.1,0.1,0.2,0.1,0.2c0,0.2,0,0.3-0.1,0.5c-0.1,0-0.2,0.1-0.3,0.1c0,0,0,0,0,0c0.1,0,0.2,0.1,0.3,0.1
				c-0.1,0.1-0.2,0.2-0.2,0.3c0.1,0.1,0.1,0.2,0.2,0.3c0,0.2,0,0.3,0.2,0.3c0,0,0.1,0.1,0.1,0.1c0.1,0.1,0.4,0.2,0.6,0
				c0,0,0.1-0.1,0.1-0.1c-0.2,0-0.3,0-0.5-0.1c-0.1,0-0.1-0.1-0.2-0.1c-0.1-0.2-0.2-0.5-0.1-0.7c0-0.1,0-0.2,0-0.3
				c0.1-0.1,0.1-0.3,0.1-0.4c-0.1-0.2,0-0.4,0-0.6c0-0.1,0-0.3,0-0.4c-0.1-0.2-0.1-0.4,0-0.6c0.1,0,0.1,0,0.2,0
				c-0.1-0.2,0-0.3,0.1-0.3c0.1,0.1,0.2,0.2,0.3,0.3c0,0,0.1,0.1,0.1,0.2c0,0.2,0.1,0.3,0.1,0.5c0,0.1,0.1,0.3,0.2,0.4
				c0.1,0.1,0.2,0.2,0.2,0.2c0,0.2-0.1,0.3-0.1,0.4c0,0.1-0.1,0.2-0.2,0.3c-0.1,0-0.1,0.1-0.1,0.1c-0.1,0.1-0.2,0.2-0.1,0.4
				c0.2-0.1,0.3-0.2,0.5-0.2c0.1-0.1,0.2-0.1,0.2-0.2c0.1-0.2,0.3-0.3,0.4-0.3c0.1,0,0.2,0,0.3-0.1c0.2,0,0.3-0.1,0.4-0.2
				c0,0,0,0,0.1-0.1c0.1,0.2,0.1,0.2,0,0.3c-0.1,0.1-0.2,0.2-0.2,0.3c-0.1,0.1-0.1,0.2-0.1,0.4c0.2,0,0.2-0.1,0.3-0.3
				c0,0.1,0.1,0.1,0.1,0.2c0.2,0,0.3,0,0.5-0.1c0.1-0.1,0.1,0,0.2,0.1c0,0,0,0.1-0.1,0.1c0.2,0.1,0.2,0.3,0.5,0.2
				c-0.2-0.1-0.3-0.2-0.2-0.4c0.2,0,0.3,0,0.4,0.1c0.1,0.1,0.3,0.2,0.4,0.4c0.1,0.1,0.2,0.2,0.3,0.3c0.1,0.2,0.3,0.2,0.4,0.1
				c0,0,0-0.1,0.1-0.1c-0.1,0-0.1-0.1-0.2-0.1c-0.1-0.1-0.2-0.2,0-0.3c0.1-0.1,0.3-0.2,0.5-0.2c0,0.1-0.1,0.2-0.1,0.4
				c0,0.1,0.1,0.2,0.1,0.3c-0.2,0.3-0.2,0.4-0.1,0.5c0.2-0.1,0.1-0.3,0.2-0.4c0.1,0.1,0.2,0.3,0.3,0.4c0.1,0.1,0.2,0.2,0.4,0.3
				c-0.2,0.3-0.2,0.3,0,0.5c0.1-0.2,0.3-0.3,0.5-0.4c0,0.1,0.1,0.2,0,0.2c-0.1,0.1-0.2,0.1-0.3,0.2c0,0.1,0.1,0.1,0.1,0.2
				c0.1-0.1,0.1-0.2,0.2-0.2c0.1-0.1,0.2-0.1,0.2-0.3c0-0.1,0.1-0.3,0-0.4c0,0,0-0.1,0-0.1c0.2,0,0.3-0.1,0.4-0.3
				c-0.1,0-0.1,0-0.2,0c-0.2,0.1-0.4,0.1-0.6,0.2c-0.1,0-0.2,0-0.3,0c-0.2-0.1-0.3-0.2-0.3-0.4c0-0.1,0-0.2,0.1-0.3
				c0.1,0,0.2-0.1,0.2-0.2c0.2-0.3,0.4-0.5,0.8-0.7c0.3-0.1,0.5-0.3,0.9-0.2c0,0,0.1,0,0.1,0c0,0,0-0.1,0-0.1c0-0.1-0.1-0.1-0.2-0.2
				c0.2-0.2,0.4-0.3,0.6-0.3c0.1,0,0.2,0,0.2,0c0.3,0,0.6,0,0.9,0.3c0.1,0.1,0.1,0.1,0.2,0.1c0.2,0,0.3,0,0.4,0.2
				c0.1,0.1,0.2,0.3,0.4,0.3c0.2,0.1,0.3,0.2,0.4,0.4c0,0.1,0.1,0.2,0.2,0.2c0,0.1,0.1,0.1,0.1,0.1c0.1,0.1,0,0.2-0.1,0.2
				c0-0.2-0.2-0.2-0.3-0.3c-0.1,0.1-0.1,0.1,0,0.2c0.1,0.1,0.2,0.3,0.3,0.4c0.1,0.2,0.2,0.3,0.3,0.5c0,0.2,0,0.4,0.2,0.4
				c0,0,0,0.1,0,0.1c0,0,0.1,0.1,0.1,0.1c0.5,0.3,0.8,0.7,1,1.2c0.1,0.1,0.1,0.3,0,0.4c0,0,0,0.1,0,0.1c0,0.1,0,0.2,0,0.2
				c-0.1,0.1-0.2,0.2-0.3,0.4c-0.1,0.1-0.3,0.2-0.4,0.1c-0.1-0.1-0.2-0.1-0.2-0.2c-0.1,0-0.1-0.1-0.2-0.1c0,0,0,0.1,0,0.1
				c-0.1,0.2-0.1,0.4-0.2,0.6c0,0.1,0,0.1,0.1,0.1c0.2-0.1,0.2-0.3,0.3-0.4c0.4,0.2,0.4,0.3,0.4,0.8c0,0,0,0,0,0
				c0,0.2,0.1,0.4,0.3,0.5c0-0.1,0-0.2,0-0.3c0.1,0.1,0.2,0.3,0.3,0.4c0.1,0.1,0.2,0.3,0.3,0.4c0.1,0.1,0.2,0.2,0.3,0.4
				c0.1,0.2,0.3,0.3,0.5,0.3c0.1,0,0.1,0,0.2,0c0,0.1,0,0.2,0,0.2c0.2,0,0.3-0.2,0.5,0c-0.1,0.1-0.3,0.3-0.4,0.4
				c-0.2,0.1-0.2,0.3-0.3,0.5c0,0.1,0,0.3,0.1,0.4c0.1,0.1,0.2,0.1,0.3,0.1c0.3,0,0.5,0,0.8,0c0.2,0,0.4,0.1,0.3,0.3
				c0,0.1,0,0.3,0,0.4c0.1,0.2,0.1,0.4,0,0.6c0,0.2-0.1,0.2-0.3,0.3c-0.1,0-0.2,0.1-0.3,0.1c-0.1,0-0.1,0.1-0.1,0.1
				c-0.2-0.1-0.3-0.1-0.5-0.1c-0.3,0-0.5-0.2-0.5-0.5c0-0.2-0.1-0.3-0.2-0.4c-0.1-0.1-0.3-0.2-0.4-0.3c0,0,0-0.1,0.1-0.1
				c0-0.1-0.1-0.2-0.2-0.2c0,0-0.1,0-0.1,0c-0.2,0.1-0.3,0.1-0.5-0.1c-0.1-0.1-0.2-0.2-0.3-0.2c0,0.1-0.1,0.1-0.1,0.2
				c-0.2,0.3-0.5,0.5-0.8,0.7c0,0,0,0-0.1,0c-0.3,0.2-0.3,0.2-0.2,0.5c0,0,0,0,0,0c0.2-0.1,0.3,0,0.5,0.1c-0.2,0.1-0.3,0.2-0.5,0.2
				c0-0.1,0-0.1-0.1-0.2c-0.2,0-0.3-0.2-0.4-0.3c0-0.1,0.1-0.2,0.1-0.3c-0.1,0.1-0.2,0.1-0.3,0.1c-0.1-0.1,0-0.2,0.1-0.3
				c0.1-0.1,0.3-0.2,0.4-0.3c0.2-0.1,0.4-0.3,0.5-0.5c0.1-0.2,0.1-0.2-0.1-0.3c0,0,0,0-0.1,0.1c-0.2,0.3-0.5,0.5-0.8,0.7
				c0,0-0.1,0-0.1,0.1c-0.1,0.1-0.2,0.2-0.2,0.3c-0.1,0.2-0.1,0.3-0.2,0.5c0,0.2-0.2,0.3-0.3,0.3c-0.1-0.1-0.2-0.2-0.1-0.3
				c0-0.1,0-0.2,0-0.3c-0.2,0.1-0.3,0.1-0.4,0.2c0-0.3-0.2-0.3-0.4-0.3c0,0.1,0,0.1,0.1,0.1c0.1,0.1,0.1,0.3,0,0.4c0,0,0,0.1,0,0.2
				c0.1,0.2,0,0.3-0.1,0.4c-0.3-0.1-0.5-0.1-0.8-0.2c-0.1,0-0.2,0-0.3,0c-0.1,0.1-0.2,0.1-0.3,0c-0.1,0-0.2-0.1-0.2,0
				c0,0.1,0,0.2,0,0.2c0,0,0,0.1,0,0.1C17,26,17,26.2,17,26.4c0,0,0,0.1,0,0.1c0.2,0.2,0.3,0.2,0.5,0.1c0.1-0.1,0.2-0.1,0.3,0
				c0,0,0.1,0,0.1,0c0.4,0,0.7,0,1-0.2c0,0,0.1-0.1,0.1-0.1c0.1-0.1,0.2,0,0.3,0c0.1,0.1,0.1,0.2,0.2,0.3c0.1,0.1,0.2,0.2,0.3,0.1
				c0.2-0.1,0.4-0.1,0.6-0.2c0.2-0.1,0.3-0.2,0.5-0.2c0.2,0,0.2,0,0.3-0.2c0-0.1,0-0.2,0.1-0.3c0.1-0.1,0.1-0.3,0-0.4
				c0.2-0.2,0.2-0.2,0.5-0.2c0.4,0,0.8,0.1,1.1,0.1c0.1,0,0.3,0.1,0.4,0.1c0.2,0.1,0.3,0.2,0.5,0.2c0.2,0,0.4,0,0.6-0.1
				c0.1,0.2,0.3,0.4,0.4,0.5c0.3,0.2,0.4,0.5,0.5,0.8c0,0.1,0.1,0.2,0.2,0.3c0.3,0.2,0.6,0.5,0.7,0.8c0,0.1,0.1,0.2,0.2,0.3
				c0.1,0.1,0.1,0.2,0.1,0.3c-0.1,0.2-0.1,0.4,0,0.6c0.1,0.3,0.1,0.6,0.2,0.9c0,0.2,0,0.2-0.1,0.3c-0.2,0.1-0.3,0.3-0.4,0.4
				c-0.1,0.2-0.3,0.4-0.5,0.6c-0.1,0.1-0.2,0.2-0.3,0.2c-0.5,0.3-0.4,0.3-1,0.2c-0.2,0-0.3-0.1-0.5,0c-0.2,0.1-0.4,0-0.6-0.1
				c-0.1-0.1-0.3-0.2-0.5-0.1c-0.2,0-0.3,0.1-0.4,0.2c-0.1,0.1-0.2,0.2-0.3,0.1c-0.2,0-0.3,0-0.4,0.1c0,0-0.1,0.1-0.1,0.2
				c0,0.2,0.1,0.4,0.1,0.6c0.1,0.3,0.1,0.3-0.2,0.5c0,0-0.1,0-0.1,0.1c-0.1,0.1-0.2,0.2-0.3,0.3c-0.1,0.2-0.1,0.3-0.2,0.5
				c0,0,0,0.1,0,0.1c0,0.1,0,0.2-0.1,0.3c-0.1,0.3-0.1,0.3,0.1,0.5c0.1,0.1,0.1,0.1,0.1,0.2c0.1,0.2,0.1,0.4,0.1,0.6
				c0,0.1,0,0.2-0.1,0.2c-0.2,0.1-0.3,0.3-0.3,0.6c0,0,0,0.1-0.1,0.1c-0.1,0.1-0.1,0.2-0.1,0.3c0,0.3,0,0.5-0.1,0.8
				c-0.1,0.2-0.2,0.5-0.4,0.7c-0.1,0.2-0.2,0.3-0.1,0.5c0,0.3-0.3,0.5-0.5,0.4c-0.3-0.1-0.6-0.2-0.9-0.2c-0.4-0.1-0.8-0.3-1-0.7
				c-0.1-0.2-0.3-0.4-0.4-0.7c0-0.1-0.1-0.2-0.1-0.3c0-0.1-0.1-0.2-0.2-0.2c-0.1,0-0.1-0.1-0.2-0.2c-0.1-0.1-0.1-0.3-0.1-0.4
				c0-0.1,0-0.1,0-0.2c0.1-0.2,0.1-0.2,0-0.3c-0.2-0.2-0.4-0.3-0.6-0.5c-0.1-0.1-0.2-0.2-0.2-0.3c0-0.2-0.1-0.4-0.1-0.6
				c0-0.1,0-0.3,0.1-0.4c0.1-0.2,0.2-0.4,0.1-0.6c0-0.1,0-0.1,0-0.2c0.1-0.2,0-0.4-0.2-0.6c-0.4-0.4-0.8-0.9-1.3-1.3
				c-0.1-0.1-0.2-0.2-0.3-0.3c-0.2-0.3-0.3-0.7-0.4-1.1c0.2-0.1,0.2-0.1,0.5,0c0.3,0,0.5,0.1,0.8,0.1c0.3,0,0.3,0,0.4-0.2
				c0.1-0.2,0.2-0.4,0.3-0.6c0,0,0-0.1,0-0.1c0-0.2,0.1-0.2,0.2-0.3c0.3-0.1,0.4-0.3,0.5-0.5c0-0.1,0.1-0.2,0.1-0.3
				c0.2-0.5,0.4-1,0.7-1.5c0,0,0,0,0-0.1c-0.1,0.1-0.1,0.1-0.2,0.2c0-0.1,0-0.2-0.1-0.3c-0.1,0.1-0.1,0.1-0.1,0.2
				c-0.1,0.4-0.3,0.8-0.6,1.1c-0.1,0.2-0.2,0.3-0.2,0.5c0,0.1,0,0.2-0.1,0.3c-0.1,0.1-0.1,0.1-0.2,0.2c-0.2,0.2-0.4,0.4-0.5,0.7
				c0,0,0,0.1-0.1,0.1c-0.1,0.2-0.1,0.2-0.3,0.2c-0.2,0-0.4-0.1-0.5-0.2c-0.5-0.2-0.9-0.5-1.3-0.7c-0.2-0.1-0.3-0.2-0.5-0.3
				c0-0.1,0-0.1,0.1-0.2c-0.1,0-0.2,0-0.3,0c-0.1-0.2-0.1-0.3-0.2-0.5c0.2-0.1,0.3-0.2,0.4-0.3c0.1,0,0.2-0.1,0.2-0.2
				c0-0.1,0.1-0.2,0.2-0.2c0.1,0.2,0.3,0.3,0.6,0.3c0.1,0,0.2,0,0.2-0.2c0-0.1,0-0.2,0-0.3c0.2,0,0.3-0.1,0.4-0.2
				c0.1-0.1,0.2-0.3,0.2-0.4c0-0.1,0-0.1,0.1-0.2c-0.1-0.1-0.2,0-0.3,0.1c-0.3,0.2-0.5,0.3-0.8,0.5c-0.2,0.1-0.3,0.2-0.5,0
				c-0.1,0.1-0.2,0.2-0.2,0.3c-0.1,0.1-0.1,0.1-0.2,0.1c-0.3,0-0.6,0.1-0.9,0c-0.2,0-0.4,0-0.6,0.2c-0.1,0.1-0.3,0.3-0.4,0.4
				c-0.1,0.2-0.2,0.2-0.4,0.2c-0.1,0-0.1,0-0.2,0c0,0,0,0.1,0,0.1c0,0.3,0,0.6-0.1,0.9c0,0.1-0.1,0.2-0.1,0.2
				c-0.1,0.1-0.2,0.2-0.2,0.3c-0.1,0.3-0.2,0.5-0.3,0.8c0,0.1-0.1,0.2-0.1,0.2c-0.2-0.1-0.4-0.2-0.4-0.4c0-0.2-0.1-0.5-0.1-0.7
				c0-0.1,0-0.2-0.2-0.3c-0.1,0-0.1-0.1-0.1-0.1C8,29.3,7.6,29,7.2,28.6c-0.1,0-0.1-0.1-0.2-0.1c-0.2,0-0.4,0-0.6,0
				c0,0.1-0.1,0.2-0.1,0.3c0,0.1-0.1,0.2-0.2,0.3C6,29.2,5.9,29.4,6,29.6c0,0.1,0,0.2-0.1,0.3c-0.1,0.1-0.2-0.1-0.2-0.1
				c-0.1-0.1-0.2-0.2-0.3-0.2c0,0.1,0,0.1,0,0.1c0.1,0.2,0,0.3,0,0.5c0,0.1,0,0.2,0,0.3c0,0,0,0.1,0,0.2c-0.1,0.1-0.1,0.2,0,0.3
				c0,0.1,0,0.2,0,0.2C5.2,31.4,5,31.7,4.8,32c0,0.1-0.1,0.1-0.1,0.2c0.2-0.2,0.4-0.3,0.5-0.4c0.2-0.1,0.4-0.2,0.6-0.2
				c-0.1,0.1-0.2,0.2-0.2,0.4c0,0.1,0,0.2-0.2,0.2c-0.2,0-0.2,0.1-0.1,0.2c0.1,0.2,0,0.3-0.1,0.4c-0.1,0.1-0.2,0.1-0.3,0.2
				c0-0.2,0.2-0.3,0.2-0.5c-0.1,0.1-0.1,0.1-0.2,0.2c-0.2,0.2-0.4,0.4-0.6,0.7c-0.4,0.5-0.8,0.4-0.6,0c0,0,0-0.1,0-0.1
				c-0.2-0.1-0.3,0-0.4,0.1H3.3c0.1-0.2,0.3-0.3,0.5-0.3c0.1,0,0.2,0,0.2-0.1c0.1-0.1,0.3-0.2,0.4-0.4c0.1-0.1,0.2-0.2,0.1-0.3
				c-0.1,0-0.2,0-0.3,0.1c0-0.2,0-0.3,0-0.5c0-0.1,0-0.2,0.1-0.2c0.1,0,0.1-0.1,0.2-0.1c0.2-0.1,0.4-0.3,0.5-0.5C5,31,5,31,4.9,30.9
				c0,0-0.1-0.1-0.1-0.1c0.3-0.2,0.3-0.2,0.2-0.4c-0.3-0.1-0.5,0-0.6,0.2c0,0-0.1,0.1-0.1,0.1c-0.1,0.1-0.2,0.2-0.1,0.4
				c-0.5-0.2-0.8-0.5-1.1-0.9c0.2-0.4,0.5-0.8,0.9-1c-0.2-0.2-0.3-0.3-0.4-0.5c-0.1-0.1-0.2-0.2-0.4-0.1c0,0-0.1,0-0.1,0
				c-0.1,0-0.2-0.1-0.3-0.1c-0.3,0-0.5-0.1-0.8-0.3c-0.3-0.1-0.5-0.4-0.7-0.6c-0.1-0.2-0.2-0.4-0.3-0.5c-0.1-0.1-0.1-0.3-0.1-0.4
				c0,0,0-0.1,0.1-0.1c0,0,0.1-0.1,0.1-0.1c0.1-0.2,0.2-0.4,0.3-0.7c0,0,0,0,0-0.1c-0.1-0.1-0.2-0.1-0.3-0.2
				c-0.1-0.1-0.1-0.1-0.1-0.2c0-0.1,0.1-0.1,0.2-0.1c0.1,0,0.2,0.1,0.3,0.1C1.4,25.1,1.5,25,1.6,25c0,0,0.1,0,0.1-0.1
				c-0.4-0.1-0.6-0.4-0.9-0.5c0,0.2,0.2,0.2,0.2,0.4c-0.2,0-0.4-0.2-0.6-0.1c0,0.3,0,0.3-0.2,0.6c0,0.1-0.1,0.2-0.1,0.3
				c0,0.1,0,0.1,0,0.2C0,25.1,0,24.6,0,24C0,19.7,1.1,15.7,3.1,12.2z"/>
			<path class="st5" d="M47,18.8c0,0-0.1,0-0.2,0.1c-0.1,0.1-0.3,0.1-0.4,0.2c-0.1,0.1-0.3,0.2-0.4,0.2c-0.1,0-0.2,0.1-0.2,0.2
				c0,0.1,0,0.1,0,0.2c0,0.2-0.1,0.3-0.2,0.4c-0.2,0.1-0.3,0.3-0.5,0.5c-0.1,0.1-0.2,0.2-0.3,0.2c-0.1,0-0.2,0.1-0.2,0.2
				c-0.1,0.2-0.2,0.4-0.3,0.5c-0.1,0.1-0.1,0.2-0.1,0.3c0.1,0.2,0,0.3-0.2,0.4c-0.2,0.1-0.3,0.2-0.3,0.4c0,0.1-0.1,0.2-0.1,0.2
				c-0.1,0.3-0.1,0.5,0,0.8c0,0.1,0.1,0.2,0.1,0.3c0.1,0.2,0.1,0.5,0,0.7c-0.2,0.3-0.3,0.7-0.5,1c-0.1,0.2-0.3,0.4-0.5,0.5
				c-0.1,0-0.2,0.1-0.2,0.1c-0.1,0.2-0.2,0.3-0.3,0.6c0,0.1-0.1,0.3-0.2,0.3c-0.1,0-0.1,0.1-0.1,0.3c0,0,0,0.1,0.1,0.1
				c0,0,0,0-0.1,0.1c-0.2,0.1-0.4,0.2-0.4,0.5c0,0-0.1,0.1-0.1,0.1c-0.2,0-0.3,0.1-0.3,0.3c-0.2-0.1-0.2-0.1-0.1-0.2
				c0.1-0.1,0.2-0.2,0.2-0.3c0.1-0.3,0.4-0.5,0.5-0.8c0.1-0.1,0.1-0.2,0.2-0.3c0.1-0.1,0.1-0.1-0.1-0.2c0,0-0.1,0.1-0.1,0.1
				c-0.1,0.3-0.3,0.5-0.5,0.8c0,0,0,0,0,0.1c-0.1,0.1-0.1,0.2-0.2,0.2c-0.3,0.2-0.5,0.4-0.7,0.7c-0.1,0.1-0.1,0.1,0,0.2
				c0,0,0,0.1,0.1,0.1c-0.2,0.2-0.4,0.4-0.6,0.5c-0.3,0.1-0.7,0.2-1,0.4c0,0-0.1,0-0.1,0c-0.1-0.1-0.2-0.2-0.3-0.3
				c-0.1,0.1-0.1,0.1-0.2,0.2c-0.2,0-0.3,0.2-0.4,0.2c-0.1,0.1-0.3,0.2-0.5,0.2c-0.2-0.1-0.2,0.1-0.3,0.2c-0.1,0.2-0.2,0.3-0.3,0.5
				c-0.2,0.2-0.3,0.3-0.5,0.4c-0.2,0.1-0.3,0.1-0.5,0c-0.1-0.1-0.2-0.1-0.3,0c-0.1,0-0.2,0.1-0.3,0.2c-0.1,0.2-0.1,0.3,0.1,0.5
				c0.1,0.1,0.2,0.3,0.4,0.4c0.2,0.2,0.2,0.4,0.2,0.7c0,0.1,0,0.2,0.1,0.3c0.2,0.2,0.2,0.3,0,0.5c-0.3,0.3-0.4,0.6-0.5,0.9
				c0,0.2-0.1,0.4-0.2,0.5c-0.1,0.2-0.3,0.3-0.5,0.4c-0.2,0.1-0.3,0.2-0.5,0.2c-0.1,0-0.1,0.1-0.1,0.2c0.1,0.3,0,0.7,0,1
				c0.1,0.3,0.1,0.5,0.1,0.8c0.1,0,0.1,0,0.2,0.1c-0.1,0-0.1,0.1-0.1,0.1c-0.1,0-0.1,0.1-0.1,0.2c0.1,0.3,0.1,0.5,0.1,0.8
				c0,0.3,0.1,0.5,0.3,0.7c0,0.1,0.1,0.1,0.1,0.2c0,0.2,0,0.3-0.1,0.5c0.1,0.1,0.1,0.2,0.1,0.4c0,0.1,0,0.2,0,0.3
				c0,0.1,0,0.3,0.1,0.3c0,0,0.1,0.1,0.1,0.1c0,0.1-0.1,0.3,0,0.4c0,0,0,0,0,0c-0.1,0.1,0,0.2,0.1,0.3c0.1,0.1,0.1,0.2,0,0.3
				c-0.1-0.1,0-0.2-0.2-0.2c0,0.1,0,0.1,0,0.1c0.1,0.1,0.1,0.3,0.1,0.5c0,0.1,0,0.1,0,0.2c0,0.2,0,0.4,0,0.6c0,0,0,0,0,0.1
				c-0.2,0.3-0.4,0.5-0.5,0.8c0,0-0.1,0.1-0.1,0.1c0,0.1-0.1,0.1-0.2,0.2c-0.2,0.1-0.5,0.1-0.7,0.3c-0.1-0.1-0.2-0.2-0.2-0.3
				c-0.1-0.1-0.2-0.2-0.3-0.1c-0.1,0-0.1,0-0.2-0.1c0.1,0,0.2,0,0.3-0.1c0.2,0,0.4-0.1,0.5-0.3c0.1-0.1,0.1-0.1,0.1-0.2
				c0-0.2,0-0.3,0.1-0.5c0,0,0.1-0.1,0.1-0.2c-0.1-0.1-0.2-0.1-0.2-0.2c0-0.1-0.1-0.1-0.1-0.2c0-0.2-0.1-0.2-0.2-0.3
				c-0.2-0.1-0.2-0.3,0-0.5c0,0,0.1,0,0.1-0.1c0.1-0.1,0.1-0.2,0.1-0.3c-0.1-0.1-0.2-0.1-0.3-0.1c0-0.3,0-0.3-0.2-0.5
				c-0.1-0.1-0.1-0.1,0-0.2c0.1-0.1,0.1-0.1,0.2-0.2c-0.1,0-0.1-0.1-0.2-0.1c-0.3,0-0.4-0.1-0.4-0.4c0-0.1-0.1-0.1-0.2-0.2
				c-0.1,0-0.3,0-0.4,0c-0.2,0-0.3-0.1-0.4-0.3c0-0.1-0.1-0.2-0.1-0.2c0.1-0.1,0.1-0.2,0.2-0.3c-0.1,0-0.3-0.1-0.4-0.1
				c-0.2,0-0.3-0.1-0.4-0.2c-0.2-0.3-0.5-0.6-0.6-0.9c0,0,0-0.1-0.1-0.1c-0.2-0.1-0.2-0.2-0.2-0.4c0-0.1,0-0.2,0-0.2
				c0-0.1,0-0.2-0.1-0.2c-0.2-0.1-0.3-0.3-0.6-0.3c-0.1,0-0.1,0-0.2-0.1c-0.1,0-0.1-0.1-0.2-0.1c-0.1,0-0.2,0-0.2-0.1
				c0-0.1-0.1-0.2-0.1-0.3c0-0.1-0.1-0.2-0.1-0.2c-0.1,0-0.1-0.1-0.1-0.2c0-0.2,0-0.5-0.1-0.7c0-0.2,0-0.4,0-0.5
				c-0.1-0.1-0.2-0.1-0.2-0.2c-0.1-0.2-0.3-0.3-0.4-0.4c-0.2-0.2-0.2-0.6,0.1-0.8c0.1-0.1,0.3-0.2,0.4-0.3c0.1-0.1,0.3-0.2,0.4-0.2
				c0.1,0,0.2,0,0.3,0c0.1,0,0.1,0,0.2-0.1c0.1-0.1,0.1-0.1,0.3,0c0-0.2,0.2-0.3,0.4-0.4c0.1,0.1,0.3,0.3,0.4,0.4c0,0,0,0,0,0
				c0-0.1-0.1-0.2-0.1-0.3c0.2-0.1,0.4,0.2,0.6,0.1c-0.1-0.1-0.1-0.1-0.1-0.2c0,0-0.1-0.1-0.1-0.1c-0.1-0.1-0.1-0.1,0-0.2
				C30,32.3,30,32.2,30,32c0-0.1,0.1-0.1,0.1-0.2c0.1,0.2,0.2,0.4,0.3,0.5c0.1-0.1,0.2-0.1,0.3-0.2c0.1,0.1,0.1,0.1,0.2,0.2
				c0.2-0.2,0.3-0.4,0.2-0.7c0-0.2,0-0.3,0.2-0.4c0.1,0,0.1-0.1,0.2-0.2c0.1-0.1,0.2-0.2,0.3-0.3c-0.1-0.1-0.2-0.2-0.1-0.3
				c0,0,0,0,0,0c0,0,0,0,0.1,0c0.2,0.1,0.3,0.1,0.5,0c0.1-0.1,0.1,0,0.2,0c0.1,0,0.2,0.1,0.3-0.1c0,0,0.1-0.1,0.2-0.1
				c0.1,0,0.3,0,0.4,0c0.1,0,0.2,0,0.3,0.1c0.1-0.1,0.1-0.1,0.1-0.2c0.1,0.1,0.1,0.1,0.2,0.1c0.1,0,0.1,0.1,0.2,0.1
				c0.2,0,0.3,0.1,0.4,0.3c0.1,0.3,0.2,0.3,0.5,0.2c0.1,0,0.2-0.1,0.3,0c0,0,0.1,0,0.1,0c0.1,0,0.2-0.1,0.3-0.1
				c0.2-0.1,0.2-0.1,0.2-0.4c0-0.2,0-0.3-0.1-0.5c0.2-0.1,0.4-0.2,0.6-0.2c0.2-0.1,0.3-0.2,0.4-0.4c-0.1-0.3-0.2-0.5-0.3-0.7
				c0-0.1,0-0.2,0.1-0.2c0.2,0,0.3,0,0.5,0c0.1,0,0.1,0.1,0.1,0.1c0,0.1,0.1,0.2,0.1,0.3c0,0.1,0.1,0.2,0.2,0.2c0.1,0,0.3,0,0.4,0
				c0.3-0.1,0.4-0.3,0.4-0.5c0-0.1,0-0.2,0-0.3c0-0.2,0-0.4-0.1-0.6c0-0.1,0.1-0.2,0.1-0.3c0-0.1,0-0.2-0.1-0.2
				c-0.2-0.1-0.4-0.3-0.7-0.3c-0.1,0-0.2,0-0.4,0.1c-0.1,0-0.3,0-0.4-0.1c-0.2-0.2-0.3-0.2-0.5,0c-0.1,0-0.1,0.1-0.2,0.1
				c-0.1,0-0.2,0-0.2,0c-0.2,0-0.3,0.2-0.3,0.3c0,0.2-0.1,0.4-0.2,0.5c0,0-0.1,0.1-0.2,0.1c0-0.1,0-0.2,0-0.3c0-0.2,0-0.4,0.2-0.6
				c0.1-0.2,0.1-0.5,0-0.7c-0.2-0.2-0.4-0.4-0.7-0.5c-0.1-0.1-0.2-0.1-0.3-0.2c0.1-0.1,0.1-0.3,0-0.4c-0.1-0.1-0.1-0.2-0.2-0.4
				c-0.1-0.2-0.2-0.3-0.3-0.3c-0.1,0-0.2-0.1-0.2-0.1c-0.1,0-0.2-0.1-0.3-0.1c0.1-0.1,0.2-0.1,0.2-0.1c-0.1-0.3-0.6-0.7-1-0.8
				c0.1,0.1,0.2,0.3,0.1,0.5c0,0-0.1,0-0.1-0.1c-0.3-0.2-0.6-0.4-0.9-0.5c0,0-0.1,0-0.1-0.1c0-0.1,0.1-0.3,0.2-0.4
				c0.1,0.1,0.2,0.2,0.2,0.3c0.2-0.1,0.4-0.1,0.5-0.2c0-0.1,0-0.2-0.2-0.2v-0.3c0.2,0,0.4,0,0.6-0.1c-0.1,0-0.1-0.1-0.2-0.1
				c-0.2-0.1-0.4-0.1-0.5,0.1c-0.1,0.1-0.1,0.1-0.3,0.1c0.1-0.1,0.2-0.2,0.2-0.3c0,0,0,0-0.1,0c-0.2,0.1-0.4,0-0.6-0.2
				c-0.1-0.1-0.2-0.1-0.3-0.2c0,0,0,0,0,0c0,0.3,0.3,0.6,0.3,0.9c-0.2,0-0.4,0.1-0.6,0.1c0.1,0,0.1,0.1,0.2,0.1
				c-0.2,0.3-0.2,0.3-0.5,0c0,0,0,0-0.1,0c-0.2,0.1-0.3,0.1-0.3-0.1c0-0.2,0-0.3,0.1-0.4c0.1-0.1,0.3-0.2,0.4-0.3
				C31,22,31,22,30.9,21.8c-0.1-0.1-0.1-0.2,0-0.3c0.1-0.1,0-0.2,0-0.3c0,0,0-0.1,0-0.2c0-0.1,0.3-0.3,0.5-0.2
				c-0.1-0.1,0-0.2,0.1-0.2c0,0,0.1-0.1,0.1-0.1c0.2-0.1,0.3-0.3,0.4-0.5c0.1-0.1,0-0.2,0-0.2c0,0,0-0.1,0-0.1
				c0.1-0.3,0.3-0.6,0.4-0.9c0-0.1,0.1-0.1,0.1-0.2c0.2,0.3,0.3,0.6,0.5,0.8c0.2-0.1,0.4-0.3,0.3-0.5c0-0.3,0-0.4,0.3-0.5
				c0.1-0.1,0.2-0.1,0.3-0.3c0-0.1,0.1-0.2,0.2-0.3c0.1,0,0.1-0.1,0.2-0.1c0,0,0.1,0.1,0.1,0.1c0.1,0,0.1-0.1,0.2-0.1
				c0.3-0.1,0.4,0,0.4,0.3c0,0.1,0,0.2,0,0.3c0,0.1,0,0.2,0,0.3c-0.1,0.1,0,0.2,0.1,0.3c0.1,0.1,0.1,0.1,0,0.2
				c-0.1,0.1-0.1,0.1-0.2,0.2c-0.2,0.2-0.2,0.5-0.1,0.7c0.1,0.1,0.2,0.3,0.3,0.4c0.1,0.1,0.1,0.1,0.1,0.3c0,0.2,0,0.3-0.1,0.5
				c0,0.1,0,0.2,0,0.2c0,0.1,0.1,0.2,0.2,0.1c0,0,0.1-0.1,0.1-0.1c0.1-0.1,0.2-0.2,0.3-0.3c0,0-0.1-0.1,0-0.1c0.1-0.1,0-0.2-0.1-0.3
				c0.1-0.1,0.2-0.2,0.3-0.3c0.1-0.1,0.2-0.1,0.2-0.2c0.1-0.2,0.3-0.5,0.4-0.7c0.1-0.2,0.3-0.3,0.6-0.4c0.2,0,0.3,0,0.3,0.2
				c0.1,0.2,0.3,0.4,0.4,0.6c0,0,0,0,0.1,0c0.2-0.2,0.2-0.4,0.3-0.6c0.1-0.4,0-0.8-0.3-1.2c-0.1-0.1-0.3-0.3-0.4-0.5
				c0,0-0.1-0.1-0.1-0.1c0-0.2-0.2-0.3-0.3-0.4c-0.1,0-0.2-0.1-0.2-0.2c0-0.1-0.1-0.1-0.2-0.1c0.1,0.2,0.1,0.3,0.2,0.5
				c-0.2,0-0.3,0-0.4,0.2c-0.2-0.1-0.2-0.3-0.3-0.5c-0.2,0.1-0.3,0.2-0.6,0.2c0.1-0.4,0.5-0.5,0.8-0.8c0,0-0.1,0-0.1-0.1
				c-0.2-0.1-0.2-0.2-0.2-0.3c0-0.1,0-0.1-0.1-0.2c-0.1-0.1-0.1-0.2-0.1-0.3c0-0.2,0-0.4,0-0.6c-0.1-0.2,0-0.2,0.1-0.3
				c0.1-0.1,0.3-0.2,0.5-0.3c-0.2-0.1-0.4-0.1-0.6-0.2c-0.1,0-0.2,0-0.2,0.1c0,0.1-0.1,0.2-0.2,0.1c0,0,0-0.1,0-0.1
				c0-0.1-0.1-0.1-0.2-0.2c0,0-0.1,0.1-0.2,0.1c-0.2,0.4-0.5,0.7-0.7,1.1c-0.1,0.1-0.1,0.3-0.1,0.4c0,0.1-0.1,0.2-0.2,0.2
				c-0.1,0-0.1,0-0.2,0c-0.1,0-0.2,0.1-0.3,0.1c0.1,0.1,0.2,0.2,0.2,0.3c0.1-0.1,0.1-0.1,0.2-0.2c0.1-0.1,0.1-0.1,0.2-0.1
				c0.2-0.1,0.3,0,0.3,0.2c0,0.1,0,0.2-0.1,0.3c0,0,0.1,0,0.1,0c0.1,0,0.2,0,0.3,0c0.2,0,0.2,0,0.3,0.2c0,0.1,0.1,0.2,0.1,0.3
				c0,0,0,0.1,0,0.2c-0.1,0-0.2-0.1-0.2-0.1c-0.1,0-0.2-0.1-0.3-0.1c-0.2-0.1-0.2-0.1-0.3,0.1c-0.1,0.1-0.1,0.2-0.2,0.3
				c-0.1,0.1-0.2,0.2-0.2,0.3c-0.1,0.1-0.2,0.2-0.3,0.2c-0.1,0-0.1,0-0.2,0.1c-0.2,0-0.3,0.1-0.5,0.1c0.2-0.2,0.4-0.4,0.5-0.6
				c-0.1,0.1-0.3,0.2-0.4,0.3c-0.1,0.1-0.2,0.2-0.4,0.3c0-0.1,0.1-0.2,0.1-0.3c-0.1-0.1-0.2-0.1-0.3-0.2c0.1-0.1,0.2-0.2,0.3-0.3
				c0.3-0.2,0.4-0.5,0.4-0.9c0,0,0-0.1,0-0.1c-0.1,0-0.1,0.1-0.2,0.1c-0.1,0.1-0.3,0.2-0.3,0.4c0,0.1-0.1,0.3-0.3,0.3
				c0-0.1,0-0.2,0-0.2c0-0.2,0-0.4-0.2-0.5c-0.1-0.1-0.1-0.1,0-0.2c0,0,0.1-0.1,0.1-0.1c0.3-0.3,0.6-0.5,1-0.8
				c0.1-0.1,0.1-0.1,0.2-0.2c0.1-0.2,0.1-0.3-0.1-0.4c0,0-0.1-0.1-0.1-0.1c0.1-0.1,0.2-0.1,0.3-0.1c0.1,0,0.1,0.1,0.3,0
				c0,0-0.1-0.1-0.1-0.1c0,0-0.1-0.1-0.1-0.1c0.1-0.1,0.3-0.2,0.4-0.2c0.1,0,0.2,0,0.3-0.1c-0.1-0.1-0.2-0.1-0.3-0.2
				c0.1-0.1,0.1-0.3,0.2-0.4c0.1,0.1,0.1,0.2,0.2,0.4c0.2-0.1,0.3-0.2,0.3-0.4c0-0.2,0-0.3,0.2-0.4c0,0,0.1-0.1,0.1-0.2
				c0,0,0-0.1,0-0.1c0-0.1,0.1-0.3,0.2-0.3c0.2,0,0.4,0,0.6,0c-0.2,0.2-0.4,0.3-0.7,0.4c0.1,0.1,0.1,0.2,0.2,0.3
				c0,0.1,0.1,0.2,0.1,0.3c0.1-0.1,0.2-0.2,0.2-0.3c0.1,0.1,0.1,0.2,0.2,0.3c0-0.2,0-0.4,0-0.6c0-0.2,0.1-0.4,0.2-0.6
				c0.3,0.2,0.5,0.4,0.7,0.6c0,0,0,0.1,0,0.1c-0.1,0.1-0.2,0.2-0.1,0.4c0,0,0,0.1,0,0.1c0,0.1,0,0.3,0,0.4c0.1,0,0.2-0.1,0.2-0.2
				c0-0.1,0.1-0.2,0.1-0.4c0,0,0.1-0.1,0-0.1c-0.1-0.1,0-0.2,0-0.3c-0.1-0.2-0.3-0.4-0.4-0.6c0.2,0,0.4,0,0.6,0.1c0,0,0.1,0,0.1,0.1
				c0.2,0.4,0.4,0.7,0.3,1.1c0,0.1-0.1,0.2-0.2,0.2c-0.1,0-0.2,0.1-0.3,0.1c0,0,0,0,0,0c0.1,0,0.2,0.1,0.4,0.1
				c-0.3,0.2-0.6,0.4-0.8,0.5c0,0.2,0.1,0.4-0.1,0.5c0.2,0.1,0.3,0.2,0.3,0.4c0,0.1,0.1,0.3,0.2,0.4c0.2-0.2,0.3-0.3,0.2-0.5
				c0,0,0-0.1,0-0.1c0-0.2,0-0.2,0.1-0.3c0.1,0,0.1,0,0.2-0.1c0,0.2,0,0.3,0.1,0.5c0.2,0,0.1-0.1,0.1-0.2c0-0.3,0-0.3,0.2-0.5
				c0.2-0.1,0.2-0.1,0.1-0.3c-0.1-0.1,0-0.2,0.1-0.3c0.1-0.1,0.2-0.2,0.2-0.3c0.1-0.2,0.1-0.3,0-0.4c-0.1-0.1-0.1-0.1-0.1-0.2
				c0.1-0.1,0.2-0.2,0.3-0.3c-0.1,0-0.2-0.1-0.3-0.1c-0.1,0-0.2,0.1-0.3,0.1c0-0.1,0-0.1-0.1-0.2c0-0.2-0.1-0.4-0.3-0.6
				c0,0,0-0.1-0.1-0.1c0.2-0.1,0.5,0,0.7,0c0.2,0,0.3,0.1,0.4,0.2c0,0.1,0,0.3,0,0.4c0,0.1,0,0.2,0,0.3c-0.1,0.3,0,0.5,0.2,0.7
				c0.1,0.1,0.1,0.2,0,0.3c-0.1,0.1-0.1,0.2,0,0.3c0.1,0.1,0,0.2-0.1,0.2c-0.1,0.1-0.2,0.1-0.3,0.2c0,0-0.1,0.1-0.1,0.2
				c0,0.3,0,0.6,0.3,0.8c0,0,0,0,0,0c0,0.1,0,0.1-0.1,0.2c0.2,0,0.3-0.1,0.2-0.2c-0.1-0.2,0-0.3,0.1-0.4c-0.3-0.2-0.3-0.6,0-0.8
				c0.1,0.1,0.2,0.2,0.4,0.3c0.2,0.1,0.2,0.2,0,0.3c-0.1,0-0.1,0.1-0.2,0.1c0,0-0.1,0.1-0.2,0.1c0.1,0.1,0.2,0.1,0.2,0.1
				c0,0.1,0,0.1,0,0.2c0.1,0,0.2,0,0.2,0c0.3,0,0.6-0.1,0.9-0.3c0.2-0.1,0.2-0.1,0.3,0.1c0,0,0,0,0.1,0.1c0.1,0.1,0.1,0.2,0,0.3
				c-0.1,0.2-0.1,0.3,0.1,0.5c0.1-0.1,0.1-0.2,0.2-0.3c0.1-0.1,0.1-0.2,0.2-0.3c0.1-0.1,0.1-0.1,0.2,0c0.3,0.1,0.5,0.1,0.8,0
				c0,0,0,0,0-0.1c0,0,0,0-0.1,0c-0.2-0.1-0.2-0.3,0-0.4c0.1,0,0.2,0,0.3,0c0.1,0,0.2,0,0.3-0.1c0.2-0.1,0.4-0.2,0.6-0.3
				c0.1-0.1,0.2-0.1,0.3,0.1c0,0,0.1,0.1,0.1,0.1c0.1-0.2,0.1-0.3,0.2-0.4c0.1,0.2,0.2,0.3,0.2,0.4c0.1-0.2,0.2-0.5,0.4-0.6
				c0.1,0.1,0.1,0.1,0.1,0.2c0,0.1,0.1,0.2,0.2,0.2c0.1,0,0.1-0.1,0.2-0.1c0.2,0.2,0.3,0.5,0.5,0.7c0.1,0,0.2-0.1,0.2-0.2
				c0-0.2,0.1-0.2,0.3-0.1c0,0.1-0.1,0.2,0,0.4c0.1-0.1,0.2-0.1,0.3-0.2c0.1-0.1,0.2-0.1,0.2-0.2c0.5,1.3,0.9,2.6,1.2,3.9
				c0,0,0,0,0,0C47.3,18.8,47.2,18.9,47,18.8z"/>
			<path class="st5" d="M26.6,15.2C26.6,15.2,26.6,15.1,26.6,15.2C26.6,15.1,26.6,15.1,26.6,15.2c-0.3,0.2-0.3,0.2-0.5,0
				c-0.3-0.2-0.6-0.4-0.9-0.6c-0.1-0.1-0.3-0.2-0.4-0.3c0.2-0.1,0.4-0.2,0.6-0.2c0.1,0,0.2,0,0.2-0.1c0-0.1,0-0.1-0.1-0.2
				c-0.1,0-0.1-0.1-0.2-0.1c0.1-0.2,0.1-0.2,0-0.3c-0.3,0.1-0.2,0.5-0.5,0.6c-0.1-0.1-0.1-0.1-0.2-0.2c-0.2-0.2-0.2-0.2,0-0.4
				c0.2-0.3,0.4-0.5,0.6-0.7c0,0,0.1-0.1,0.1-0.1c-0.1-0.1-0.3,0-0.4,0c0-0.1-0.1-0.2-0.1-0.3c-0.2,0.1-0.2,0.1-0.4,0
				c-0.1-0.3,0.2-0.3,0.3-0.5c-0.2-0.1-0.3-0.1-0.5-0.2c0.1-0.3,0.4-0.4,0.4-0.7c-0.2,0-0.3,0.2-0.4,0.2c0.1-0.3,0.2-0.6,0.5-0.8
				c0.1,0,0.1-0.1,0.1-0.2c-0.1-0.1-0.1-0.2-0.2-0.3c-0.1-0.1-0.1-0.1-0.2,0c-0.1,0.1-0.1,0.1-0.2,0.2V9.5c0.1,0,0.3,0.1,0.4,0
				c0-0.1-0.1-0.2-0.2-0.3c0.1,0,0.3,0.1,0.4,0.1c0.1-0.2,0.1-0.3-0.1-0.4c-0.1-0.1-0.1-0.1-0.1-0.3c0,0,0-0.1,0-0.1
				c0-0.1,0-0.2-0.1-0.3c0,0-0.1-0.1-0.1-0.1c-0.2-0.1-0.2-0.2-0.2-0.4c0,0,0-0.1,0-0.1c0-0.1,0-0.2-0.1-0.3C24.1,7.2,24,7.1,24,7
				c0,0,0,0,0,0c0,0,0.1,0,0.1,0c0.1,0.2,0.2,0.1,0.3,0.1c0-0.2-0.1-0.3-0.2-0.4c-0.3,0.2-0.3,0.2-0.5-0.1c0,0,0-0.1,0-0.1
				c0.1-0.1,0.1-0.2,0.3-0.2c0.1,0,0.2,0,0.4,0c0.1,0,0.1,0.2,0.3,0.1c-0.1-0.1-0.2-0.2-0.2-0.2c-0.3,0.1-0.3,0.1-0.4,0
				c-0.1-0.1-0.2-0.1-0.3-0.1c-0.1,0-0.1,0-0.2-0.1c-0.2-0.2-0.4-0.4-0.5-0.7c-0.1-0.1-0.1-0.2,0-0.2C23,5,23.1,4.9,23.3,4.7
				c0.3-0.2,0.5-0.2,0.6,0.1c0,0,0,0.1,0,0.1c0,0.1,0.1,0.1,0.1,0.2c0.1,0.1,0.3,0.1,0.3-0.1c0,0,0-0.1,0.1-0.1
				c0.1,0.1,0.2,0.2,0.3,0.4c0.1,0.1,0.1,0.2,0.2,0.3c0,0.1,0,0.2,0.1,0.3c0.1,0.2,0.1,0.2,0.3,0.1c-0.4-0.5-0.6-1.1-0.4-1.8
				c0.2,0.1,0.4,0.2,0.5,0.5c0.1,0.2,0.2,0.4,0.5,0.4c-0.1-0.1-0.1-0.1-0.2-0.2C25.6,5,25.5,5,25.5,4.9c-0.1-0.1,0-0.3,0.1-0.3
				c0.2,0,0.5,0,0.7,0.1c0.2,0.1,0.3,0.2,0.5,0.3c0.1,0,0.1,0.1,0.2,0c-0.2-0.4-0.7-0.7-1.1-0.6c-0.1,0-0.2,0-0.3,0
				c-0.2-0.1-0.4-0.2-0.6-0.3c-0.2-0.1-0.2-0.3-0.1-0.4c0.1-0.1,0.3-0.2,0.4-0.3c0.1,0,0.1,0.1,0.2,0.1c-0.1-0.2-0.1-0.4,0-0.6
				c0.1,0,0.1,0.1,0.2,0.1c0.1,0.2,0.3,0.2,0.5,0.1c0.2-0.1,0.4,0,0.6,0.1c0.2,0.1,0.4,0.2,0.7,0.2c0,0-0.1-0.1-0.1-0.1
				c-0.2-0.1-0.4-0.2-0.5-0.3c-0.2-0.1-0.3-0.1-0.5-0.1c-0.1,0-0.2,0-0.2,0c-0.2,0-0.4-0.1-0.5-0.3c0.2-0.1,0.4-0.3,0.7-0.3
				c0.2,0,0.5,0,0.6-0.2h0.5c0.2,0.1,0.2,0.2,0.1,0.4c0.1,0,0.1,0,0.2-0.1c0,0,0,0.1,0.1,0.1c0.1,0,0.1,0,0.2-0.1
				c0.2,0.2-0.1,0.3-0.2,0.4c0.1,0,0.2,0,0.4,0.1C28,3.2,28,3.2,28,3.2c0,0,0.1,0.1,0.1,0.1c0,0.1-0.1,0.1-0.1,0.2
				c0.2,0,0.3-0.2,0.5-0.3c0.1-0.1,0.2-0.3,0.4-0.4c0,0.1,0,0.2-0.1,0.2c0.1,0,0.2,0,0.3,0c0,0.1,0,0.2,0,0.3
				c-0.4,0.1-0.5,0.1-0.6,0.2c-0.2,0.1-0.2,0.4-0.2,0.5c0.2-0.2,0.2-0.4,0.5-0.5c0.2,0,0.4-0.1,0.7-0.1c-0.3,0.3-0.5,0.6-0.8,0.8
				c0.2,0.1,0.3-0.1,0.4-0.1c0,0.2,0.2,0.4-0.1,0.5c0.1,0.1,0.1,0.1,0.2,0.1c0.2-0.2,0.4-0.4,0.6-0.7c-0.1-0.1-0.1-0.1-0.2-0.1
				c0.1-0.1,0.1-0.2,0.2-0.3c0,0,0.1,0.1,0.1,0.1c0.1-0.1,0.1-0.1,0.2,0c0.1,0,0.1,0.1,0.1,0.2c0,0.2,0,0.3-0.2,0.5
				c-0.1,0.1-0.1,0.2,0,0.3c0.1-0.1,0.3-0.2,0.3-0.4c0-0.1,0-0.2,0.1-0.2c0,0,0,0,0.1,0c0,0.1,0,0.1,0,0.2c0.1-0.1,0.2-0.2,0.3-0.3
				c0.2,0.3,0.6,0.4,0.9,0.5c-0.1,0.1-0.1,0.2-0.1,0.3c0,0.1-0.1,0.1-0.1,0.2c0.1-0.1,0.2-0.2,0.3-0.3c0.2-0.1,0.2,0.1,0.4,0.2
				c0,0,0,0.1,0,0.1c-0.1,0.1-0.3,0.2-0.2,0.4c0,0,0,0.1,0,0.1c0,0,0,0.1,0,0.2c0.1,0,0.2-0.1,0.3-0.1c0.2,0.2,0.4,0.4,0.6,0.6
				c0,0.1,0.1,0.2,0.2,0.2c0.1,0,0.2,0,0.2,0.1c0,0.1,0,0.2,0.1,0.3c0,0,0,0,0,0C33.2,7,33,7,32.9,7c-0.2,0-0.3-0.1-0.5,0
				c0,0,0.1,0.1,0.1,0.1c0,0,0.1,0,0.1,0.1c-0.1,0.1-0.1,0.2-0.2,0.3c0.1,0.1,0.2,0.2,0.2,0.2C32.8,7.9,33,7.9,33.2,8
				c0.1,0,0.2,0,0.3,0.2c0,0,0.1,0.1,0.2,0.1c0.1,0.1,0.3,0.1,0.4,0.2c0.1,0.1,0.1,0.2,0,0.3c-0.1,0.1-0.1,0.1-0.2,0.2
				c-0.1,0.1-0.1,0.2-0.2,0.3c0,0.1,0,0.1,0.1,0.3c-0.1,0-0.1,0-0.2-0.1c-0.1,0-0.1-0.1-0.2-0.1c-0.1-0.1-0.2,0-0.3,0.1
				c0.2,0,0.3,0,0.4,0c0.1,0.1,0.2,0.2,0.3,0.2c0,0,0.1,0,0.1,0c0,0,0.1,0,0.1,0c0,0.1,0,0.1,0,0.1c-0.1,0.1-0.2,0.3-0.3,0.5
				c0,0-0.1,0.1-0.1,0.1c-0.1,0.1-0.3,0.2-0.4,0.2c-0.2,0-0.4,0-0.6-0.2c-0.1-0.1-0.2-0.1-0.3,0c-0.3,0.1-0.5,0.3-0.7,0.5
				c0,0-0.1,0.1-0.1,0.2c0,0.3-0.1,0.6-0.2,0.9c0,0.1-0.1,0.2-0.1,0.4c-0.1,0.1-0.2,0.2-0.3,0.4c0.1,0.2,0.1,0.2,0.1,0.3
				c0.2,0.2,0.2,0.2,0.1,0.4c-0.2-0.1-0.4-0.2-0.6-0.2c0,0.3-0.2,0.5-0.1,0.8c0.1,0,0.1,0,0.3-0.1c0.2-0.1,0.2-0.1,0.3,0.1
				c-0.1,0.1-0.2,0.1-0.3,0.2c0.1,0,0.2,0,0.3,0.1c0,0.2-0.2,0.4-0.3,0.6c-0.1-0.1-0.2-0.2-0.2-0.3c0,0,0-0.1,0-0.1c0,0,0-0.1,0-0.1
				c-0.3,0-0.3,0.1-0.2,0.3c0,0.1,0.1,0.1,0.1,0.2c0,0.2,0.1,0.3,0.2,0.4c0.2,0.2,0.3,0.4,0.2,0.7c0,0.1-0.1,0.2-0.1,0.3
				c-0.1,0.3-0.3,0.5-0.5,0.6c0,0-0.1,0-0.1,0.1c0.1,0,0.1,0.1,0.2,0.1c0.2,0.1,0.3,0.1,0.1,0.4c-0.1,0.1-0.1,0.1-0.2,0.2
				c-0.1,0.1-0.2,0.3-0.3,0.4c-0.2,0.2-0.2,0.2,0,0.5c-0.1,0-0.1,0-0.2,0c-0.2,0-0.3,0.1-0.4,0.2c0,0.1-0.1,0.2-0.2,0.2
				c0-0.2-0.1-0.3-0.1-0.5c-0.1-0.4-0.2-0.7-0.5-1c-0.1-0.1-0.1-0.2-0.1-0.4c0-0.2,0-0.3-0.2-0.5c-0.1-0.1-0.2-0.2-0.3-0.3
				c-0.1-0.1-0.2-0.2-0.3-0.1c-0.1-0.1-0.2-0.1-0.3-0.2c-0.1-0.1-0.2-0.3-0.4-0.4C26.6,15.5,26.5,15.3,26.6,15.2z"/>
		</g>
	</g>
	<g>
		<path class="st4" d="M17.9,25.1l-1-0.9h-0.6l0.5,9.7l2.9-1.3C19.8,32.5,18.7,26,17.9,25.1z"/>
		<g>
			<ellipse class="st4" cx="18.1" cy="33.7" rx="1.7" ry="2.4"/>
			<g>
				<g>
					<g>
						<path class="st8" d="M3.7,48L6,40.9l9.7-1c0,0,0.9,2.9,2,8.1H3.7z"/>
					</g>
					<g>
						<path class="st4" d="M18.3,46.5c0.1,0.4,0.1,0.9,0.2,1.5h-1.3c-0.5-2.1-0.9-4.2-1.2-4.9c-0.5-1.4-1.5-8.3-1.5-8.3
							s0.3-7.9-0.2-9.6c-0.4-1.7-0.5-2-0.5-2l0.6,0.1c0,0,2.4,0.6,2.8,1.1c0.4,0.5,1.4,2.6,1.4,4.4c-0.1,1.8-0.9,4.9-1,7.9
							C17.3,39.7,18,44.5,18.3,46.5z"/>
					</g>
					<g>
						<path class="st13" d="M18.3,35.5c0,0,0.4-0.4,0.5-1s-0.1-1.5-0.7-2C17.6,31.9,17,32,17,32L16,32.3L18.3,35.5z"/>
					</g>
					<g>
						<path class="st0" d="M7,16.5l0.4,3.2l5.2,4.1v-4.2c0,0,1.5-1.1,1.4-4.2c0,0,0.2-1.8-0.2-3S13.1,10,12,9.6
							C11,9.2,8,10,7.3,10.6C6.7,11.1,6,15.1,7,16.5z"/>
					</g>
					<g>
						<path class="st1" d="M7.2,15.1l-0.2,0.2l-1-0.7c0,0-0.4-1.8,0.2-3.3s2.3-2.7,3.3-2.9c1-0.2,1.7-0.2,2.4,0.3
							c0.7,0.5,1.5,1.3,1.7,2.1c0.3,0.8,0.7,2.5,0.6,3.3c-0.1,0.8-0.2,1.3-0.2,1.3h-0.2c0,0,0.2-1.2,0-1.8c-0.2-0.7-0.3-0.7-0.4-1.4
							c0-0.6-0.3-1.4-0.9-1.7c-0.6-0.3-2.4-0.3-3.3,0c-0.3,0.1-0.6,0.2-0.8,0.3C8,11,7.7,11.5,7.8,12.1c0,0.2,0,0.5-0.1,0.6
							C7.3,13.3,7,14.4,7.2,15.1z"/>
					</g>
					<g>
						
							<ellipse transform="matrix(-0.9551 0.2964 -0.2964 -0.9551 17.2838 29.0104)" class="st0" cx="6.4" cy="15.8" rx="0.6" ry="1.5"/>
					</g>
					<path class="st2" d="M12.6,19.5v3.2c-3.5-1.4-5-4.9-5-4.9C9.6,20.4,12.6,19.5,12.6,19.5z"/>
					<g>
						<polygon class="st8" points="12.6,21.4 12,21.8 11.6,21.8 8.9,22.2 12.6,30.7 14.8,35.8 14.6,25.1 						"/>
					</g>
					<g>
						<path class="st4" d="M12,23.4c0,0-0.8,2.3-0.6,3.9c0.1,1.6,2.6,6.5,2.6,6.5l1.3-4c0,0-0.7-4.8-0.7-4.8c0,0-1.3-1.7-1.3-1.7
							l-1.1-0.7L12,23.4"/>
					</g>
					<g>
						<path class="st4" d="M10.8,22.1c0,0,0.7,0.6,1.2,1.3c0,0,0.6-0.4,1.2,0c0,0-0.3-1.3-0.5-1.5c-0.2-0.3-0.7,0-0.7,0h-0.4
							L10.8,22.1z"/>
					</g>
					<g>
						<path class="st13" d="M7.3,19.4c0,0,0.7,0.6,1.7,1s2.6,1.4,2.6,1.4s-1.6,1.5-1.7,2.5c-0.1,1-0.1,1-0.1,1l-3.3-4.5
							C6.9,20.4,7.2,19.2,7.3,19.4z"/>
					</g>
					<g>
						<path class="st4" d="M1.8,48C2.4,43.2,3.1,36.7,3,36c-0.2-1.1-1.9-5.1-2.7-8.3c-0.8-3.2,0.4-4,0.4-4c1-1.3,2.5-1,3.3-1.2
							s1.7-0.9,1.7-0.9l2.6,0.3c0,0,3.3,4.1,4.2,6.2c0.9,2.1,2.6,9.1,2.6,9.1s0.1,1.5,0.3,3.9c0.1,1.3,0.1,4.2-0.4,6.8H1.8z"/>
					</g>
					<g>
						<path class="st0" d="M14.3,38.4c0,0-3,0.1-2.9-1.4s2-1.5,2-1.5l1.9,1.2L14.3,38.4z"/>
					</g>
					<g>
						<path class="st13" d="M13.6,36.3c0,0,0.3,1.7,0,2.4l3.7,0.3L16.9,36L13.6,36.3z"/>
					</g>
					<g>
						<path class="st23" d="M14.6,39.7c0,0,0.2,0,0.6,0c0.6,0,1.5-0.1,2.3-0.1c0.7,0,1.4-0.1,1.6-0.1c0.5,0,3-0.4,3.2-0.7
							c0.3-0.3,0.9-1.5,0.9-2.7c0-1.2-1-2.8-1-2.8s-1-1.6-1.3-2c-0.3-0.4-0.6-0.6-0.9-1c-0.3-0.3-0.3-0.8-0.3-0.8s0.2-0.6-0.2-1.3
							c-0.4-0.8-0.7-1.4-0.7-1.4s-0.2-1.4-0.9-2.1c-0.7-0.6-1-0.7-1-0.7c0.1,0.1,0.1,0.1,0.2,0.2c0.4,0.5,1.4,2.6,1.3,4.4
							c0,0.9-0.2,2-0.5,3.3v0c0,0,0.9,1.9,1,2.1c0.1,0.3,0.1,0.6-0.4,0.7c-0.1,0-0.5,0.1-1,0.2c-1,0.2-2.4,0.3-3,0.4
							c-0.2,0-0.3,0-0.3,0C15.2,37,14.6,39.7,14.6,39.7z"/>
					</g>
					<g>
						<path class="st1" d="M14.6,35.9c-0.8-2.3-2.5-6.7-3.3-8.2c-1.1-2.1-3.2-3.7-3.2-3.7l0.5-0.6l-1.1-0.1c0,0-1.7-1.4-1.9-1.5
							c0,0,0.2-0.4,0.5-0.6c0.3-0.2,0.5-0.7,0.7-0.7c0,0,2.4,1.6,3.6,3.3c1.1,1.7,2.4,4,3.2,6.6c0.5,1.7,1,4.1,1.3,5.6H14.6z"/>
					</g>
					<g>
						<path class="st13" d="M12.6,20.5c0,0-0.2,0.9-0.6,1.3c0,0,0.7,0,0.9,0.8s0.2,0.8,0.2,0.8s0-0.8-0.2-1.3
							C12.8,21.7,13,20.7,12.6,20.5z"/>
					</g>
					<g>
						<path class="st1" d="M14.8,36c-0.3-1.5-0.8-3.8-0.7-4.4c0-0.9,0-4.8-0.2-5.9c-0.2-1-0.9-3.8-0.9-3.8s0.5,0.8,1.4,1.3l-0.3,0.2
							c0,0,0.9,0.3,1.2,1.1c0.3,0.9,0.4,4.4,0.4,5.4c0,0.7-0.3,4.1-0.5,6H14.8z"/>
					</g>
					<g>
						<path class="st1" d="M0.3,27.7c0.4,1.7,1.1,3.6,1.7,5.2l0,0c1.7,2.1,5.3,4.1,5.9,4.4c0.6,0.3,0.8,0.4,1.2,0.5
							c0.4,0.1,1.2,0,1.6,0.1c0.4,0.1,0.7,0,1.2-0.1c0.2,0,1.7-0.4,3.2-0.7c1.8-0.4,3.6-0.8,3.6-0.8c-0.5-1.5-2.4-4.1-2.4-4.1
							s-1.4,0.1-2.5,0.2c-0.5,0-1,0-1.2,0c-0.6-0.1-2.2-0.2-2.3-0.3c-0.2-0.1-0.9,0.2-1.2,0.4c-0.3,0.1-0.5,0.1-0.6-0.5
							c-0.2-0.6-0.6-0.9-0.8-1.6c-0.2-0.6-0.5-2.7-2-5c-0.8-1.2-1.8-1.8-2.7-2.1c-0.8-0.3-1.7-0.1-2.3,0.6c0,0,0,0,0,0
							C0.6,23.7-0.5,24.5,0.3,27.7z"/>
					</g>
				</g>
			</g>
		</g>
	</g>
</g>
</svg>
