<?xml version="1.0" encoding="utf-8"?>
<!-- Generator: Adobe Illustrator 18.0.0, SVG Export Plug-In . SVG Version: 6.00 Build 0)  -->
<!DOCTYPE svg PUBLIC "-//W3C//DTD SVG 1.1//EN" "http://www.w3.org/Graphics/SVG/1.1/DTD/svg11.dtd">
<svg version="1.1" id="Layer_1" xmlns="http://www.w3.org/2000/svg" xmlns:xlink="http://www.w3.org/1999/xlink" x="0px" y="0px"
	 viewBox="0 0 48 48" enable-background="new 0 0 48 48" xml:space="preserve">
<g>
	<g>
		<g>
			<path fill="#E8EAE9" d="M0.1,31.8l5.3-11.6c0-11.9,10.3-21.4,22.4-20c9.1,1,16.5,8.3,17.6,17.5C46.2,23,44.7,28,41.8,32
				c-3.5,4.8-5.6,10.3-6.4,16H11.6v-7.7H8.2c-1.5,0-2.8-1.2-2.8-2.8v-4H1.2C0.3,33.5-0.3,32.6,0.1,31.8z"/>
		</g>
		<g>
			<path fill="#FFFFFF" d="M36.5,12.4c4.1,5.5,2.9,13.3-2.6,17.4s-13.3,2.9-17.4-2.6s-2.9-13.3,2.6-17.4S32.4,6.8,36.5,12.4z"/>
			
				<rect x="32.8" y="29.2" transform="matrix(0.8028 -0.5963 0.5963 0.8028 -12.1479 27.636)" fill="#344A5E" width="5.9" height="5.9"/>
			<path fill="#415A6B" d="M35,31.2c-6.3,4.7-15.2,3.3-19.8-2.9s-3.3-15.2,2.9-19.8s15.2-3.3,19.8,2.9S41.3,26.5,35,31.2z
				 M20.1,11.2c-4.8,3.5-5.8,10.3-2.2,15c3.5,4.8,10.3,5.8,15,2.2c4.8-3.5,5.8-10.3,2.2-15C31.6,8.6,24.9,7.6,20.1,11.2z"/>
			<path fill="#F3705A" d="M47.4,42.6l-5.1,3.8c-0.7,0.5-1.7,0.4-2.2-0.3l-6.5-8.8l7.6-5.7l6.5,8.8C48.2,41.1,48.1,42.1,47.4,42.6z"
				/>
			
				<rect x="36.9" y="30.8" transform="matrix(0.5959 0.8031 -0.8031 0.5959 43.9491 -16.3063)" fill="#F05540" width="2.6" height="9.5"/>
			<path fill="#F3705A" d="M41.8,32.4L34.1,38c-0.6,0.5-1.5,0.3-2-0.3c-0.5-0.6-0.3-1.5,0.3-2l7.6-5.7c0.6-0.5,1.5-0.3,2,0.3
				C42.5,31,42.4,31.9,41.8,32.4z"/>
		</g>
		<g>
			<polygon fill="#FFD15C" points="23.5,26.1 25.4,20 22.9,20 24.8,13.5 29.5,13.5 27.6,18.4 30.2,18.4 			"/>
		</g>
	</g>
</g>
</svg>
