<?xml version="1.0" encoding="utf-8"?>
<!-- Generator: Adobe Illustrator 19.0.1, SVG Export Plug-In . SVG Version: 6.00 Build 0)  -->
<svg version="1.1" id="Layer_1" xmlns="http://www.w3.org/2000/svg" xmlns:xlink="http://www.w3.org/1999/xlink" x="0px" y="0px"
	 viewBox="0 0 48 48" style="enable-background:new 0 0 48 48;" xml:space="preserve">
<style type="text/css">
	.st0{fill:#FFD15C;}
	.st1{fill:#415A6B;}
	.st2{fill:#F7B64C;}
	.st3{fill:#CED6E0;}
	.st4{fill:#344A5E;}
	.st5{fill:#F3F3F3;}
	.st6{fill:#F05540;}
	.st7{fill:#F3705A;}
	.st8{fill:#66C6B9;}
	.st9{fill:#55C0EB;}
	.st10{fill:#F5F6FB;}
	.st11{fill:#4ABAA5;}
	.st12{fill:#ADB3BA;}
	.st13{fill:#E8EAE9;}
	.st14{fill:#2E4556;}
	.st15{fill:#8AD7F8;}
	.st16{fill:#FFFFFF;}
	.st17{fill:#E54838;}
	.st18{fill:#3EAF99;}
	.st19{fill:#EFA943;}
	.st20{fill:#4CAEE5;}
	.st21{fill:#293F4F;}
	.st22{fill:#2D4456;}
	.st23{fill:#2E4454;}
	.st24{fill:#2A3F4F;}
	.st25{fill:#2D4151;}
	.st26{fill:#E89E3D;}
	.st27{fill:#2B4151;}
	.st28{fill:#2A4051;}
	.st29{fill:#2C4151;}
	.st30{fill:#EBEAE8;}
	.st31{fill:#3AA590;}
	.st32{fill:#E84534;}
	.st33{fill:none;}
</style>
<g>
	<g>
		<path class="st0" d="M5.8,3.3c0,0-0.4-1.2-0.4-1.5s0.4-0.3,0.5-0.2c0.1,0.1,0.5,0,0.7,0.2s0.7,0.9,0.7,1.3s0.1,1.6,0.1,1.6l0.7,1
			L7.4,6.6c0,0-0.5-0.7-0.6-1S6,5,6,4.6S5.8,3.3,5.8,3.3z"/>
	</g>
	<g>
		<path class="st1" d="M8.1,5.3L7,6.4c0,0,1.6,1.7,2.3,2.6s2,1.6,2.9,1.7c0.9,0.1,4.8-0.3,4.8-0.3l-0.2-2.8c0,0-3,1.2-3.7,1.3
			c-0.7,0.1-1.5-0.5-1.5-0.5L8.1,5.3z"/>
	</g>
	<g>
		<g>
			<path class="st3" d="M11.6,39.5c1,0.3,1.3-0.3,1.3,0.2c0.1,0.5,1.4,0.7,2.1,1.3c0.7,0.6,1.3,0.4,1.6,1c0.3,0.6,0.1,1.1,1.9,1.6
				c1.8,0.5,1.2,0.4,1.3,0.8c0.1,0.4,0.4,1.2,1.1,1.3c0.7,0.2,1.8,0.7,2.4,1.1c0.6,0.4,1.6,0.5,2.2,0.4c0.5-0.1,0.7,0.3,0.7,0.7
				h17.9c-0.2-0.5-0.4-0.9-0.6-1.3c-0.5-1.4-1.6-2.7-3.3-3.3C38.7,42.7,34,38,34,38c-0.6,0-1.5-1.2-2.6-1.3c-1.8-0.2-5-1.5-6.3-1.4
				c-1.3,0.1-2.4,0.9-2.4,0.9s-4.2-0.4-5.2-0.4c-0.9,0-1.4,0.3-1.9,0.3c-0.4,0-1.3-0.1-1.9,0c-0.6,0.1-1.8,0.7-2.2,1.1
				c-0.4,0.4-1.6,0.6-1.8,1.1C9.6,38.7,10.7,39.2,11.6,39.5z"/>
		</g>
		<g>
			<polygon class="st12" points="25.1,38 28.8,39 28.3,39.2 32.9,41.3 32,41.5 33.5,43.1 			"/>
		</g>
		<g>
			<polygon class="st12" points="33,44.7 15.8,38.4 26.7,41.3 25.8,41.5 			"/>
		</g>
		<g>
			<polygon class="st12" points="17.6,41 20,42.7 20.7,44.3 24.6,45.9 21.8,44 20.9,42 16.4,39.5 19.7,42 			"/>
		</g>
		<g>
			<polygon class="st12" points="23.8,44.2 29.5,48 30.3,48 27,45 29.1,44.9 21.4,41.2 24.7,44.2 			"/>
		</g>
		<g>
			<polygon class="st12" points="35.8,48 32.1,45.5 34.7,48 			"/>
		</g>
		<g>
			<polygon class="st12" points="38,47.8 38.3,48 41.1,48 35.3,41.5 39.7,48 			"/>
		</g>
	</g>
	<g>
		<g>
			<g>
				<path class="st0" d="M19.4,5.5l0.1-0.2c0,0-0.1-0.1-0.1-0.6c0.1-0.5-0.6-3.5-0.6-3.5l-2.1-0.4c0,0-0.6,0.7-0.5,1.3
					c0,0,0.1,0.1,0,0.3s-0.6,0.6-0.6,0.6s-0.2,0.3,0,0.4c0.2,0.1,0.2,0.1,0.2,0.1s0,0.2,0,0.4c0,0.2,0.1,0.2,0.1,0.2
					s-0.2,0.1-0.1,0.4c0.1,0.3,0.1,0.6,0.3,0.6c0.2,0.1,0.9,0,1.1,0.2c0.2,0.2,0.4,1.8,0.4,1.8L19.4,5.5z"/>
			</g>
			<g>
				<path class="st13" d="M19.4,5.4c-1.1,0.5-2.1,1-3,1.6l0.1,0.9l3.2-1.6l-0.1-0.8C19.6,5.4,19.5,5.3,19.4,5.4z"/>
			</g>
			<g>
				<g>
					<path class="st2" d="M20.3,34.3l0-0.9c0,0-0.4-0.1-0.6-0.7c-0.2-0.7-0.6-1.8-0.7-2.9c-0.1-1-1.1-2.5-1.5-3.3s-0.4-0.7-0.4-0.7
						l-1.2,1.9c0,0,1.8,4.1,2.1,5.1c0.4,1,0.2,2.9,0,3.2s-0.3,0.5-0.3,0.5l1,0.7C18.8,37.1,19.8,34.9,20.3,34.3z"/>
				</g>
				<g>
					<g>
						<path class="st6" d="M20.8,34c0,0,0.1,0.5,0,0.9c-0.1,0.4,0,1.8,0,1.8h-0.2c0,0,0-1.5-0.5-1.6S20.8,34,20.8,34z"/>
					</g>
					<g>
						<path class="st6" d="M18,36c0,0-0.3,0.2-0.6,0.4c-0.4,0.1-0.6,0.5-0.4,0.8s1.5,0.5,1.9,0.2c0.4-0.3,0.4-0.7,0.6-1.2
							s0.5-1,0.8-1.2c0.3-0.2,0.6-0.6,0.5-1c-0.1-0.5-0.5-0.6-0.5-0.6s-0.2,0.7-0.5,1.3c-0.3,0.6-0.8,1.7-1.1,1.8
							C18.3,36.6,17.8,36.4,18,36z"/>
					</g>
				</g>
			</g>
			<g>
				<g>
					<path class="st0" d="M13.9,39.1l-0.2-0.4c0,0,0-0.3,0.2-0.7s0.5-0.9,0.6-1.4c0.2-0.4,0.3-1.5,0.5-1.9s0-6.1,0-6.1l2.3-0.4
						c0,0,0.6,2,0.1,3.3s-0.9,2.9-0.9,3.3c0.1,0.4,0.1,0.6,0.1,0.6s0.2,0.7,0.1,1.1c-0.1,0.4-1,1.1-1.2,1.5S13.9,39.1,13.9,39.1z"/>
				</g>
				<g>
					<path class="st7" d="M13.8,37.9c0,0-0.1,0.2,0.1,0.4c0.2,0.2,0.7,0.2,1-0.1c0.3-0.2,1.5-1.7,1.7-2.2c0.1-0.5,0.1-0.7,0.1-0.7
						s0.6,0.5,0.5,1c-0.1,0.5-0.9,0.9-1.3,1.6c-0.4,0.7-0.4,1.1-0.6,1.3c-0.2,0.2-1.1,0.4-1.7,0.2c-0.6-0.2-0.9-0.6-0.8-0.7
						C12.8,38.5,13.8,37.9,13.8,37.9z"/>
				</g>
				<g>
					<path class="st7" d="M16.4,37l0,1.9h0.1c0,0,0.1-1.5,0.4-2c0.3-0.5,0.2-0.8,0.2-0.8L16.4,37z"/>
				</g>
			</g>
			<g>
				<path class="st4" d="M13.9,28.8c0,0,2.1,1.1,3.7-0.4c0,0,0.4-0.8,0.2-1.4c-0.2-0.6-0.3-4.5,0.1-5.8s0.7-3.4,0-4.9
					s-0.7-1.5-0.7-1.5l-4.2,2c0,0,0,2.4,0.4,5.3C13.9,25,13.9,28.8,13.9,28.8z"/>
			</g>
			<g>
				<path class="st1" d="M12.3,17.5c0,0,0.5,1.1,1.6,1.3c1.1,0.2,4.5,0.1,4.5,0.1s0.6-1.8-0.1-3.2c-0.7-1.3-0.6-2.1-0.4-2.6
					c0.3-0.5,2.3-2.5,2.3-4.3c0-1.8-0.2-3.1-0.2-3.1s-0.6,0-1.7,0.5s-3,1.7-3.6,2.5s-1.4,3.5-1.9,4.4S12.1,16.9,12.3,17.5z"/>
			</g>
			<g>
				<path class="st7" d="M16.2,1.6c0,0,0.2,0,0.6-0.1c0.3-0.2,1.3-0.2,1.1,0.2C17.7,2,17.6,2.5,17.8,3s0.4,0.4,0.4,0.7s0,0.2,0,0.2
					h0.2c0,0,0.2-0.4,0.5-0.4c0.3,0,0.5,1.3,0.5,1.3c0,0,0.5-0.2,0.6-1.4c0.2-1.2,0.2-1.9-0.3-2.5c-0.5-0.6-1-0.8-1.7-0.9
					S16,0.3,16.2,1.6z"/>
			</g>
			<g>
				<g>
					<rect x="3.7" y="2.3" class="st1" width="3.9" height="1.3"/>
				</g>
				<g>
					<rect x="7.7" y="2.4" class="st4" width="3.3" height="1"/>
				</g>
				<g>
					<rect x="11" y="2.6" class="st1" width="1.9" height="0.7"/>
				</g>
				<g>
					<polygon class="st1" points="13.3,2.4 13.3,3.4 12.8,3.3 12.8,2.6 					"/>
				</g>
			</g>
			<path class="st0" d="M6.6,4.9c0,0-0.4-0.4-0.4-0.8c0-0.4,0-0.5-0.2-0.7C5.9,3.1,5.8,3,5.9,2.8c0.1-0.2,0.4-0.1,0.5,0.1
				C6.5,3,6.8,3.4,6.8,3.5S7.1,4,7.1,4L6.6,4.9z"/>
			<g>
				<path class="st0" d="M10.1,5.8c0,0-0.3-0.5-0.3-0.7c0-0.3,0.1-0.8,0.2-1s0.1-0.4,0.1-0.4S9.9,3.3,9.8,3C9.6,2.8,9.4,2.4,9.4,2.4
					C9.4,2.2,9.7,2.1,9.7,2.3c0,0,0.4,0.6,0.5,0.8c0.1,0.2,0.2,0.3,0.2,0.3s0-0.2,0-0.3c0-0.1-0.1-0.2-0.1-0.2L9.8,2.2
					c0,0,0.1-0.1,0.4-0.1c0.2,0,0.6,0.4,0.7,0.5s0.1,0.7,0.1,0.7l0-0.7c0,0-0.5-0.5-0.7-0.5c0,0,0.3,0,0.6,0c0.2,0,0.5,0.2,0.5,0.4
					s0.2,1,0.2,1.1c0,0.1,0.2,0.2,0,0.5S11.1,5,11.1,5.5s0,0.5,0,0.5L10.1,5.8z"/>
			</g>
			<g>
				<path class="st4" d="M16.7,7.8C17.3,7.3,18,7,18.8,7c0.2,0,0.5,0,0.7,0.1c0.9,0.4,0.7,1.9,0.3,2.6c-0.4,0.6-1.4,1.5-2.5,1.7
					c-1.1,0.3-2.5,0.5-3.5,0.3c-1-0.2-1.5-0.2-2.2-0.6c-0.7-0.5-2.3-4.9-2.3-4.9s0.7-0.8,1.3-0.9s0.6,0.2,0.6,0.2s0.5,1.7,0.7,2.1
					c0.2,0.3,0.4,0.9,0.5,1C12.5,8.6,12.8,9,12.8,9s0.3,0.2,0.6,0.1c0.3-0.1,1.7-0.3,2.3-0.6C16,8.4,16.4,8.1,16.7,7.8z"/>
			</g>
			<g>
				<path class="st7" d="M19.6,11.9c0.7-0.5,1.4-1.3,1.2-2.1c-0.1-0.5,0-1,0.1-1.5c0.2-0.5,0.4-1,0.6-1.4c0.2-0.6,0.2-1.3,0.1-1.9
					c-0.1-0.9-1-1.5-1.6-2.2L20,3.4c0.4,0.5,0.5,1.3,0.3,1.9c-0.1,0.7-0.4,1.4-0.6,2.1c-0.2,0.7-0.3,1.5-0.2,2.2
					c0,0.1,0,0.2,0.1,0.3C19.8,10.6,19.8,11.2,19.6,11.9L19.6,11.9z"/>
			</g>
			<g>
				<path class="st1" d="M20,3.8c0.1,0.1,0.1,0.2,0.2,0c0.1-0.2,0.3-0.4,0.5-0.5c0-0.5-0.2-0.7-0.6-0.7C19.9,3,19.9,3.4,20,3.8z"/>
			</g>
		</g>
	</g>
</g>
</svg>
