<?xml version="1.0" encoding="utf-8"?>
<!-- Generator: Adobe Illustrator 18.0.0, SVG Export Plug-In . SVG Version: 6.00 Build 0)  -->
<!DOCTYPE svg PUBLIC "-//W3C//DTD SVG 1.1//EN" "http://www.w3.org/Graphics/SVG/1.1/DTD/svg11.dtd">
<svg version="1.1" id="Layer_1" xmlns="http://www.w3.org/2000/svg" xmlns:xlink="http://www.w3.org/1999/xlink" x="0px" y="0px"
	 viewBox="0 0 48 48" enable-background="new 0 0 48 48" xml:space="preserve">
<g>
	<g>
		<g>
			<g>
				<g>
					<g>
						<g>
							<g>
								<path fill="#F3705A" d="M20,8.3c-1.6,0-2.9,1.3-2.9,2.9c0,0.1,0,0.3,0,0.4c-1,0.1-1.9,0.5-2.5,1.4c-0.2,0.3-0.4,0.7-0.4,1.1
									c-0.6,0-1.2,0.4-1.6,0.9c-0.3,0.5-0.3,1.2-0.1,1.7c-1.2,0.8-2,2.2-2,3.7c0,2.3,1.6,4.1,3.8,4.5c-0.4,0.8-0.4,1.8,0,2.7
									c0.8,1.6,2.6,2.3,4.2,1.6c-0.1,0.3-0.2,0.6-0.2,0.9c0,1.2,1,2.2,2.2,2.2c1.2,0,2.2-1,2.2-2.2V11.2C22.8,9.6,21.5,8.3,20,8.3
									z"/>
							</g>
						</g>
					</g>
					<g>
						<g>
							<g>
								<path fill="#F3705A" d="M20,8.3c-1.6,0-2.9,1.3-2.9,2.9c0,0.1,0,0.3,0,0.4c-1,0.1-1.9,0.5-2.5,1.4c-0.2,0.3-0.4,0.7-0.4,1.1
									c-0.6,0-1.2,0.4-1.6,0.9c-0.3,0.5-0.3,1.2-0.1,1.7c-1.2,0.8-2,2.2-2,3.7c0,2.3,1.6,4.1,3.8,4.5c-0.4,0.8-0.4,1.8,0,2.7
									c0.8,1.6,2.6,2.3,4.2,1.6c-0.1,0.3-0.2,0.6-0.2,0.9c0,1.2,1,2.2,2.2,2.2c1.2,0,2.2-1,2.2-2.2V11.2C22.8,9.6,21.5,8.3,20,8.3
									z"/>
								<path fill="#F05540" d="M20.6,32.8c-1.5,0-2.7-1.2-2.7-2.7c0,0,0-0.1,0-0.1c-1.6,0.2-3.3-0.6-4-2.1
									c-0.4-0.8-0.5-1.7-0.3-2.6c-2.1-0.6-3.6-2.6-3.6-4.9c0-1.5,0.7-3,1.9-3.9c-0.1-0.6,0-1.2,0.3-1.7c0.4-0.6,0.9-1,1.6-1.2
									c0.1-0.3,0.2-0.6,0.4-0.9c0.6-0.8,1.4-1.4,2.4-1.6c0.1-1.8,1.6-3.3,3.4-3.3c1.9,0,3.4,1.5,3.4,3.4V30
									C23.4,31.6,22.1,32.8,20.6,32.8z M18.6,28.6c0.1,0,0.3,0.1,0.4,0.2c0.2,0.2,0.2,0.4,0.1,0.6C19.1,29.6,19,29.8,19,30
									c0,0.9,0.7,1.6,1.6,1.6c0.9,0,1.6-0.7,1.6-1.6V11.2c0-1.3-1-2.3-2.3-2.3c-1.3,0-2.3,1-2.3,2.3c0,0.1,0,0.2,0,0.2l0,0.1
									c0,0.2,0,0.3-0.1,0.4c-0.1,0.1-0.2,0.2-0.4,0.2c-0.8,0.1-1.6,0.5-2.1,1.2c-0.2,0.2-0.3,0.5-0.4,0.9
									c-0.1,0.2-0.3,0.4-0.5,0.4c-0.5,0-0.9,0.3-1.1,0.7c-0.2,0.4-0.2,0.8-0.1,1.2c0.1,0.2,0,0.5-0.2,0.7c-1.1,0.7-1.7,2-1.7,3.3
									c0,2,1.4,3.6,3.3,3.9c0.2,0,0.3,0.1,0.4,0.3c0.1,0.2,0.1,0.3,0,0.5c-0.3,0.7-0.3,1.5,0,2.2c0.6,1.3,2.2,1.9,3.5,1.3
									C18.5,28.6,18.6,28.6,18.6,28.6z"/>
							</g>
						</g>
					</g>
					<g>
						<g>
							<path fill="#F05540" d="M19.7,12.8c0.3,0,0.6-0.2,0.6-0.6c0-0.3-0.2-0.6-0.6-0.6c-1-0.1-1.9-0.6-2.5-1.1
								c-0.1,0.3-0.2,0.6-0.2,1c0,0.1,0,0.3,0,0.4C17.8,12.3,18.6,12.7,19.7,12.8C19.6,12.8,19.7,12.8,19.7,12.8z"/>
						</g>
					</g>
					<g>
						<g>
							<g>
								<path fill="#F05540" d="M16.7,17c0,0,0.1,0,0.1,0c0.3,0,0.5-0.2,0.6-0.5c0.1-0.3-0.2-0.6-0.5-0.7c-1.6-0.3-2.1-1.2-2.3-1.8
									c0,0,0,0,0,0c-0.4,0-0.8,0.2-1.1,0.4C13.9,15.4,14.8,16.6,16.7,17z"/>
							</g>
						</g>
						<g>
							<g>
								<g>
									<path fill="#F05540" d="M14.5,15.8v-0.6c-0.6,0.5-1.2,1.6-0.6,3.3c0.1,0.2,0.5,0.5,0.8,0.3c0.3-0.1,0.5-0.5,0.3-0.8
										c-0.5-1.3,0.2-1.8,0.3-1.9c0.1-0.1,0.1-0.1,0.2-0.2H14.5z"/>
								</g>
							</g>
						</g>
					</g>
					<g>
						<g>
							<g>
								<path fill="#F05540" d="M15.7,24c0.3-0.8,0.3-1.7-0.2-2.6c-0.1-0.3-0.5-0.4-0.8-0.3c-0.3,0.1-0.4,0.5-0.3,0.8
									c0.3,0.6,0.4,1.1,0.2,1.6c-0.3,0.9-1.4,1.3-1.5,1.3c0,0-0.1,0-0.1,0.1c0.5,0.2,1.1,0.4,1.7,0.4c0,0,0,0,0,0
									C15.1,25,15.5,24.6,15.7,24z"/>
							</g>
						</g>
						<g>
							<g>
								<path fill="#F05540" d="M18.4,23.5c-0.4-0.9-0.9-1.3-1.3-1.4c-0.7-0.2-1.4-0.1-1.8,0.1c0,0.4-0.2,0.8-0.4,1.1c0,0,0,0,0,0
									c0.2,0.2,0.5,0.2,0.7,0.1c0,0,0.6-0.3,1.1-0.2c0.3,0.1,0.5,0.3,0.6,0.7c0.1,0.2,0.3,0.4,0.6,0.4c0.1,0,0.2,0,0.2,0
									C18.4,24.2,18.5,23.8,18.4,23.5z"/>
							</g>
						</g>
					</g>
					<g>
						<g>
							<g>
								<path fill="#F05540" d="M20.1,28.5c0.3-0.1,0.5-0.1,0.8,0c0.3,0.1,0.7,0,0.8-0.3c0.1-0.3,0-0.7-0.3-0.8
									c-0.6-0.2-1.2-0.2-1.8,0.1c-1,0.4-1.6,1.5-2,2.3c0.5,0,1.1,0,1.6-0.3C19.4,29,19.7,28.7,20.1,28.5z"/>
							</g>
						</g>
						<g>
							<g>
								<g>
									<path fill="#F05540" d="M18.9,28.1C18.9,28.1,18.9,28.2,18.9,28.1c0.4-0.2,0.7-0.3,1.1-0.4c-0.4-1.4-1.7-2-2.4-2
										c-0.3,0-0.6,0.2-0.7,0.5c0,0.3,0.2,0.6,0.5,0.7C17.5,26.9,18.7,27,18.9,28.1z"/>
								</g>
							</g>
						</g>
					</g>
					<g>
						<g>
							<path fill="#F05540" d="M21.1,20.1c-0.8,0.4-1.9,1.8-1.1,4.1c0.1,0.2,0.4,0.4,0.7,0.4c0.3-0.1,0.6-0.5,0.5-0.8
								c-0.7-1.9,0.4-2.6,0.6-2.6c0.1-0.1,0.2-0.2,0.3-0.4C21.7,20.6,21.4,20.4,21.1,20.1z"/>
						</g>
					</g>
					<g>
						<g>
							<path fill="#F05540" d="M18.8,14.8c-0.1,0.3,0,0.7,0.3,0.8c0.1,0,0.2,0.1,0.3,0.1c0.2,0,0.4-0.1,0.5-0.3
								c0.7-1.4,2.1-1.4,2.9-1.3v-1.2C21.5,12.7,19.7,13,18.8,14.8z"/>
						</g>
						<g>
							<path fill="#F05540" d="M21.7,20.1c-0.3-0.3-0.5-0.8-0.5-1.4c0-0.3-0.3-0.6-0.6-0.6c-0.3,0-0.6,0.3-0.6,0.6
								c0,1,0.3,1.7,0.9,2.3c0.6,0.5,1.3,0.7,1.9,0.8v-1.2C22.4,20.5,22,20.4,21.7,20.1z"/>
						</g>
					</g>
				</g>
				<g>
					<g>
						<g>
							<g>
								<path fill="#F3705A" d="M28.1,8.3c1.6,0,2.9,1.3,2.9,2.9c0,0.1,0,0.3,0,0.4c1,0.1,1.9,0.5,2.5,1.4c0.2,0.3,0.4,0.7,0.4,1.1
									c0.6,0,1.2,0.4,1.6,0.9c0.3,0.5,0.3,1.2,0.1,1.7c1.2,0.8,2,2.2,2,3.7c0,2.3-1.6,4.1-3.8,4.5c0.4,0.8,0.4,1.8,0,2.7
									c-0.8,1.6-2.6,2.3-4.2,1.6c0.1,0.3,0.2,0.6,0.2,0.9c0,1.2-1,2.2-2.2,2.2c-1.2,0-2.2-1-2.2-2.2V11.2
									C25.2,9.6,26.5,8.3,28.1,8.3z"/>
							</g>
						</g>
					</g>
					<g>
						<g>
							<g>
								<path fill="#F3705A" d="M28.1,8.3c1.6,0,2.9,1.3,2.9,2.9c0,0.1,0,0.3,0,0.4c1,0.1,1.9,0.5,2.5,1.4c0.2,0.3,0.4,0.7,0.4,1.1
									c0.6,0,1.2,0.4,1.6,0.9c0.3,0.5,0.3,1.2,0.1,1.7c1.2,0.8,2,2.2,2,3.7c0,2.3-1.6,4.1-3.8,4.5c0.4,0.8,0.4,1.8,0,2.7
									c-0.8,1.6-2.6,2.3-4.2,1.6c0.1,0.3,0.2,0.6,0.2,0.9c0,1.2-1,2.2-2.2,2.2c-1.2,0-2.2-1-2.2-2.2V11.2
									C25.2,9.6,26.5,8.3,28.1,8.3z"/>
								<path fill="#F05540" d="M24.6,30V11.2c0-1.9,1.5-3.4,3.4-3.4c1.8,0,3.4,1.5,3.4,3.3c1,0.2,1.8,0.8,2.4,1.6
									c0.2,0.3,0.3,0.5,0.4,0.9c0.7,0.1,1.3,0.6,1.6,1.2c0.3,0.5,0.4,1.2,0.3,1.7c1.2,1,1.9,2.4,1.9,3.9c0,2.3-1.5,4.2-3.6,4.9
									c0.2,0.9,0.1,1.8-0.3,2.6c-0.7,1.6-2.4,2.4-4,2.1c0,0,0,0.1,0,0.1c0,1.5-1.2,2.7-2.7,2.7C25.9,32.8,24.6,31.6,24.6,30z
									 M29.6,28.6c1.3,0.6,2.9,0,3.5-1.3c0.3-0.7,0.4-1.5,0-2.2c-0.1-0.2-0.1-0.3,0-0.5c0.1-0.2,0.2-0.3,0.4-0.3
									c1.9-0.3,3.3-2,3.3-3.9c0-1.3-0.6-2.5-1.7-3.3c-0.2-0.2-0.3-0.4-0.2-0.7c0.2-0.4,0.1-0.8-0.1-1.2c-0.2-0.4-0.6-0.6-1.1-0.7
									c-0.3,0-0.5-0.2-0.5-0.4c-0.1-0.4-0.2-0.6-0.4-0.9c-0.5-0.7-1.2-1.1-2.1-1.2c-0.2,0-0.3-0.1-0.4-0.2
									c-0.1-0.1-0.1-0.3-0.1-0.4l0-0.1c0-0.1,0-0.2,0-0.2c0-1.3-1-2.3-2.3-2.3c-1.3,0-2.3,1-2.3,2.3V30c0,0.9,0.7,1.6,1.6,1.6
									c0.9,0,1.6-0.7,1.6-1.6c0-0.2,0-0.4-0.1-0.7c-0.1-0.2,0-0.5,0.1-0.6c0.1-0.1,0.3-0.2,0.4-0.2C29.4,28.6,29.5,28.6,29.6,28.6
									z"/>
							</g>
						</g>
					</g>
					<g>
						<g>
							<path fill="#F05540" d="M28.6,12.8c-0.3,0-0.6-0.3-0.5-0.6c0-0.3,0.3-0.6,0.6-0.6c1,0.1,2-0.4,2.6-0.8c0.1,0.3,0.1,0.7,0.1,1
								c0,0.1-0.1,0.2-0.1,0.4C30.5,12.5,29.6,12.8,28.6,12.8C28.6,12.8,28.6,12.8,28.6,12.8z"/>
						</g>
					</g>
					<g>
						<g>
							<g>
								<path fill="#F05540" d="M31.4,16.6c0,0-0.1,0-0.1,0c-0.3,0-0.5-0.2-0.6-0.5c-0.1-0.3,0.2-0.6,0.5-0.7
									c1.6-0.3,2.1-1.2,2.3-1.8c0,0,0,0,0,0c0.4,0,0.8,0.2,1.1,0.4C34.2,15,33.3,16.2,31.4,16.6z"/>
							</g>
						</g>
						<g>
							<g>
								<g>
									<path fill="#F05540" d="M33.4,15.6v-0.6c0.6,0.5,1.2,1.6,0.6,3.3c-0.1,0.2-0.5,0.5-0.8,0.3c-0.3-0.1-0.5-0.5-0.3-0.8
										c0.5-1.3-0.2-1.8-0.3-1.9c-0.1-0.1-0.1-0.1-0.2-0.2H33.4z"/>
								</g>
							</g>
						</g>
					</g>
					<g>
						<g>
							<g>
								<path fill="#F05540" d="M32.3,24c-0.4-0.7-0.5-1.6-0.1-2.6c0.1-0.3,0.5-0.5,0.8-0.4c0.3,0.1,0.5,0.5,0.4,0.8
									c-0.2,0.7-0.2,1.2,0,1.6c0.5,0.8,1.6,1,1.6,1c0,0,0.1,0,0.1,0.1c-0.5,0.3-1.1,0.5-1.6,0.6c0,0,0,0,0,0
									C33,24.9,32.6,24.5,32.3,24z"/>
							</g>
						</g>
						<g>
							<g>
								<path fill="#F05540" d="M29.6,23.5c0.4-0.9,0.9-1.3,1.3-1.4c0.7-0.2,1.4-0.1,1.8,0.1c0,0.4,0.2,0.8,0.4,1.1c0,0,0,0,0,0
									c-0.2,0.2-0.5,0.2-0.7,0.1c0,0-0.6-0.3-1.1-0.2c-0.3,0.1-0.5,0.3-0.6,0.7c-0.1,0.2-0.3,0.4-0.6,0.4c-0.1,0-0.2,0-0.2,0
									C29.6,24.2,29.5,23.8,29.6,23.5z"/>
							</g>
						</g>
					</g>
					<g>
						<g>
							<g>
								<path fill="#F05540" d="M29.4,29.6l0.8-0.1c-0.2-0.7-0.5-1.6-1.1-2.1c-0.5-0.4-1-0.6-1.7-0.6c-0.3,0-0.6,0.3-0.6,0.6
									c0,0.3,0.3,0.6,0.6,0.6c0.3,0,0.6,0.1,0.8,0.3c0.3,0.3,0.5,0.7,0.6,1.1c0.2,0.2,0.4,0.3,0.6,0.4L29.4,29.6z"/>
							</g>
						</g>
						<g>
							<g>
								<g>
									<path fill="#F05540" d="M29.1,27.9C29.1,27.9,29.1,28,29.1,27.9c-0.3-0.2-0.6-0.5-1-0.7c0.7-1.3,2.2-1.4,2.9-1.3
										c0.3,0.1,0.6,0.4,0.5,0.7c0,0.3-0.3,0.6-0.7,0.5C30.8,27.1,29.6,26.9,29.1,27.9z"/>
								</g>
							</g>
						</g>
					</g>
					<g>
						<g>
							<path fill="#F05540" d="M26.9,20.1c0.8,0.4,1.9,1.8,1.1,4.1c-0.1,0.2-0.4,0.4-0.7,0.4c-0.3-0.1-0.6-0.5-0.5-0.8
								c0.7-1.9-0.4-2.6-0.6-2.6C26.1,21.1,26,21,26,20.8C26.3,20.6,26.6,20.4,26.9,20.1z"/>
						</g>
					</g>
					<g>
						<g>
							<path fill="#F05540" d="M29.2,14.8c0.1,0.3,0,0.7-0.3,0.8c-0.1,0-0.2,0.1-0.3,0.1c-0.2,0-0.4-0.1-0.5-0.3
								c-0.7-1.4-2.1-1.4-2.9-1.3v-1.2C26.6,12.7,28.4,13,29.2,14.8z"/>
						</g>
						<g>
							<path fill="#F05540" d="M26.3,20.1c0.3-0.3,0.5-0.8,0.5-1.4c0-0.3,0.3-0.6,0.6-0.6c0.3,0,0.6,0.3,0.6,0.6
								c0,1-0.3,1.7-0.9,2.3c-0.6,0.5-1.3,0.7-1.9,0.8v-1.2C25.6,20.5,26,20.4,26.3,20.1z"/>
						</g>
					</g>
				</g>
			</g>
			<g>
				<path fill="#FFD15C" d="M10.4,22.5c0.5,2,1.4,3.9,2.7,5.5c2.5,3.1,4.1,6.7,4.8,10.5h12.2c0.7-3.8,2.3-7.4,4.8-10.4
					c1.3-1.6,2.3-3.5,2.8-5.6H10.4z"/>
			</g>
			<g>
				<path fill="#415A6B" d="M20.4,45.9c0.7,1.3,2.1,2.1,3.6,2.1c1.6,0,2.9-0.9,3.6-2.1H20.4z"/>
				<path fill="#344A5E" d="M30.1,44.1v-5.6H17.9v5.6c0,1.1,0.9,2,2,2h8C29.1,46.1,30.1,45.2,30.1,44.1z"/>
			</g>
			<g>
				<g>
					<path fill="#415A6B" d="M16.6,42.9L16.6,42.9c0,0.7,0.6,1.3,1.3,1.3h12.3c0.7,0,1.3-0.6,1.3-1.3l0,0c0-0.7-0.6-1.3-1.3-1.3
						H17.9C17.1,41.6,16.6,42.2,16.6,42.9z"/>
				</g>
			</g>
			<g>
				<g>
					<path fill="#415A6B" d="M16.6,38.6L16.6,38.6c0,0.7,0.6,1.3,1.3,1.3h12.3c0.7,0,1.3-0.6,1.3-1.3v0c0-0.7-0.6-1.3-1.3-1.3H17.9
						C17.1,37.3,16.6,37.9,16.6,38.6z"/>
				</g>
			</g>
		</g>
		<g>
			<path fill="#FFD15C" d="M24,5L24,5c-0.7,0-1.2-0.5-1.2-1.2V1.2C22.8,0.5,23.3,0,24,0l0,0c0.6,0,1.2,0.5,1.2,1.2v2.6
				C25.2,4.4,24.7,5,24,5z"/>
		</g>
		<g>
			<path fill="#FFD15C" d="M16.2,7.1L16.2,7.1c-0.6,0.3-1.3,0.2-1.6-0.4l-1.3-2.3c-0.3-0.6-0.1-1.3,0.4-1.6l0,0
				c0.6-0.3,1.3-0.1,1.6,0.4l1.3,2.3C17,6,16.8,6.7,16.2,7.1z"/>
		</g>
		<g>
			<path fill="#FFD15C" d="M10.5,12.8L10.5,12.8c-0.3,0.6-1.1,0.8-1.6,0.5l-2.3-1.3c-0.6-0.3-0.8-1-0.4-1.6l0,0
				c0.3-0.6,1-0.8,1.6-0.4l2.3,1.3C10.6,11.5,10.8,12.2,10.5,12.8z"/>
		</g>
		<g>
			<path fill="#FFD15C" d="M8.4,20.6L8.4,20.6c0,0.7-0.5,1.2-1.2,1.2H4.6c-0.6,0-1.2-0.5-1.2-1.2v0c0-0.6,0.5-1.2,1.2-1.2h2.6
				C7.8,19.4,8.4,19.9,8.4,20.6z"/>
		</g>
		<g>
			<path fill="#FFD15C" d="M10.4,28.4L10.4,28.4c0.3,0.6,0.2,1.3-0.4,1.6l-2.3,1.3c-0.6,0.3-1.3,0.1-1.6-0.4l0,0
				c-0.3-0.6-0.1-1.3,0.4-1.6L8.8,28C9.4,27.7,10.1,27.9,10.4,28.4z"/>
		</g>
		<g>
			<path fill="#FFD15C" d="M37.5,28.5L37.5,28.5c0.3-0.6,1.1-0.8,1.6-0.5l2.3,1.3c0.6,0.3,0.8,1,0.4,1.6l0,0c-0.3,0.6-1,0.8-1.6,0.4
				L38,30.1C37.4,29.7,37.2,29,37.5,28.5z"/>
		</g>
		<g>
			<path fill="#FFD15C" d="M39.6,20.6L39.6,20.6c0-0.7,0.5-1.2,1.2-1.2h2.6c0.6,0,1.2,0.5,1.2,1.2v0c0,0.6-0.5,1.2-1.2,1.2h-2.6
				C40.2,21.8,39.6,21.3,39.6,20.6z"/>
		</g>
		<g>
			<path fill="#FFD15C" d="M37.6,12.8L37.6,12.8c-0.3-0.6-0.2-1.3,0.4-1.6l2.3-1.3c0.6-0.3,1.3-0.1,1.6,0.4l0,0
				c0.3,0.6,0.1,1.3-0.4,1.6l-2.3,1.3C38.6,13.6,37.9,13.4,37.6,12.8z"/>
		</g>
		<g>
			<path fill="#FFD15C" d="M31.8,7.1L31.8,7.1C31.2,6.7,31,6,31.4,5.5l1.3-2.3c0.3-0.6,1-0.8,1.6-0.4l0,0c0.6,0.3,0.8,1,0.4,1.6
				l-1.3,2.3C33.1,7.2,32.4,7.4,31.8,7.1z"/>
		</g>
	</g>
</g>
</svg>
