<?xml version="1.0" encoding="utf-8"?>
<!-- Generator: Adobe Illustrator 18.0.0, SVG Export Plug-In . SVG Version: 6.00 Build 0)  -->
<!DOCTYPE svg PUBLIC "-//W3C//DTD SVG 1.1//EN" "http://www.w3.org/Graphics/SVG/1.1/DTD/svg11.dtd">
<svg version="1.1" id="Layer_1" xmlns="http://www.w3.org/2000/svg" xmlns:xlink="http://www.w3.org/1999/xlink" x="0px" y="0px"
	 viewBox="0 0 48 48" enable-background="new 0 0 48 48" xml:space="preserve">
<g>
	<g>
		<g>
			<path fill="#425A6B" d="M23.4,47.5l-0.5-0.8c0,0-0.2-0.4-0.2-0.7c0-0.2,0-0.5,0-0.5l2-0.3c0,0,0,0.5,0.3,0.9
				c0.3,0.3,0.5,0.9,0.4,1.1c-0.1,0.3-0.3,0.4-0.4,0.4C24.8,47.7,23.9,47.7,23.4,47.5z"/>
		</g>
		<g>
			<path fill="#425A6B" d="M22,47.4l0.2-0.5c0,0,0.1-0.4,0-0.7s0-0.7,0-0.7l-2,0.1c0,0-0.6,1.1-0.6,1.4c0,0.3,0.2,0.7,0.4,0.7
				C20.2,47.8,21.6,48,22,47.4z"/>
		</g>
		<g>
			<path fill="#E8EAE8" d="M22.5,46c0,0,1.4-0.7,2.4-0.1c0,0,1-1.5,1-2.9s0.4-5.8,0.4-5.8l-2.2-0.8l-1.3,0.6c0,0-0.1,1.7-0.1,2.7
				s-0.7,3.6-0.5,4.2C22.4,44.7,22.5,46,22.5,46z"/>
		</g>
		<g>
			<path fill="#CED6E0" d="M22.7,38c0,0.6,0,1.3-0.1,1.7c0,1-0.7,3.6-0.5,4.2c0.2,0.7,0.4,2,0.4,2s0,0,0.1,0l0-0.3
				c0,0,0-1.5,0.1-2.6c0-0.3,0.1-0.6,0.2-0.8c0.2-0.6,0.3-1.1,0-2.9C22.8,39,22.8,38.5,22.7,38z"/>
		</g>
		<g>
			<path fill="#E8EAE8" d="M18.7,22.2c0,0-0.7,0.6-0.8,3.1s0.7,6.8,0.7,8.1c0,1.3,0.3,3.2,0.3,4c0,0.9,0.3,6.7,1,8.4
				c0,0,1.9-0.4,2.5-0.2c0,0,0-1.5,0.1-2.7c0.1-1.2,0.6-1.1,0.2-3.6c-0.4-2.5-0.2-5.8-0.1-6.9c0.1-1.2,0.5-4.9,0.5-4.9
				s-0.4,5.5-0.3,6.1c0,0.6,0,3.3,0,3.3l3.5,0.1c0,0,0.3-4.2,0.6-5.7c0.3-1.5,1.2-7.4,0.7-9.1C27,20.7,24.2,21,24.2,21L18.7,22.2z"
				/>
		</g>
		<g>
			<path fill="#FFD15C" d="M24.7,4.7c0,0-0.3,2-0.2,2.6c0.1,0.6,0.1,0.6,0.1,0.6L24,10.2L22.8,10l-1.8-3c0,0-0.1-4.5,0.5-5.5
				s1.4-1.2,2.3-0.9S25.7,2,24.7,4.7z"/>
		</g>
		<path fill="#F5B54C" d="M23,6.9c0.2-0.1,0.4-0.2,0.6-0.3C24,6.3,24.3,6,24.4,5.5c-0.4,0.7-1.3,1.1-1.9,1c-0.6-0.2-0.9-0.9-0.9-0.9
			c-0.2,0-0.4,0-0.6,0c0,0.7,0,1.3,0,1.3l0.5,0.9c0.9-0.2,1.9-0.5,1.4-0.6C22.5,7.1,22.8,7,23,6.9z"/>
		<g>
			<path fill="#F3F3F3" d="M16.4,12.7c0,0,2.4,0.2,2.7,0.8c0,0,0.9,5-1,9.1c0,0,2.6,0.4,4.2,0.4c1.6-0.1,5.3-0.3,5.6-0.5
				c0,0-1.4-3-1.5-3.9c-0.1-0.9,2.9-8.4,2.9-8.4S27.7,8.4,26,7.7L25,6.8c0,0-1.5,0.5-1.5,0.9c-0.1,0.4,0,2,0,2s-0.3-2.1-0.8-2.3
				c-0.5-0.2-1.9-0.3-1.9-0.3S20,7.7,19.3,7.9c-0.7,0.2-1.5,0.5-1.8,1C17.1,9.3,16.4,12.7,16.4,12.7"/>
		</g>
		<g>
			<path fill="#425A6B" d="M22.8,18.7l2.9-9c0-0.1,0.2-0.2,0.4-0.2l5.2,0.8c0.2,0,0.3,0.2,0.3,0.4l-3,8.6c0,0.1-0.2,0.2-0.3,0.2
				l-5.1-0.4C22.9,19.1,22.8,18.9,22.8,18.7z"/>
		</g>
		<g>
			<g>
				<path fill="#FFD15C" d="M30.3,16.3c0,0-0.6-0.5-0.9-0.7c-0.3-0.2-1.2-0.4-1.2-0.4s-0.4,0.1-0.1,0.4c0,0,0.4,0.2,0.6,0.2
					c0.2,0.1,0.9,0.5,0.9,0.5l-0.8-0.3l-1-0.4c-0.2-0.1-0.4,0.4-0.2,0.4l1.8,0.8h-0.3l-1.6-0.7c-0.2-0.1-0.4,0.3-0.2,0.4l0.5,0.2
					c-0.3-0.1-0.4,0.3-0.1,0.4L29,18l-0.1,0.5c0,0,0.8-0.1,0.9-0.3c0.1-0.2,0.1-0.1,0.1-0.2c0,0,0.3-0.2,0.3-0.6
					c0,0,0.3-0.5,0.1-0.7C30.2,16.7,30.5,16.6,30.3,16.3z"/>
			</g>
			<g>
				<path fill="#F5B54C" d="M27.7,16.9C27.7,16.9,27.7,16.9,27.7,16.9c0.1,0.1,0.2,0.1,0.2,0.1c0.1,0,0.2,0.1,0.2,0.1
					c0.1,0,0.2,0.1,0.3,0.1c0.1,0,0.2,0.1,0.3,0.1c0.1,0,0.2,0.1,0.2,0.1c0.1,0.1,0.2,0.1,0.2,0.1s-0.1,0-0.2-0.1
					c-0.1,0-0.2,0-0.2-0.1c-0.1,0-0.2-0.1-0.3-0.1c-0.1,0-0.2-0.1-0.3-0.1c-0.1,0-0.2-0.1-0.2-0.1C27.8,17,27.8,17,27.7,16.9
					C27.7,16.9,27.7,16.9,27.7,16.9z"/>
			</g>
		</g>
		<g>
			<path fill="#FFD15C" d="M25.2,17.5c0.2,0.1,0.1,0.4-0.1,0.3l-0.8,0.1c0.2,0,0.2,0.2,0,0.3c0,0-0.7,0.1-1.1,0.3
				c-0.4,0.1-0.3,0.4-0.6,0.3c-0.2-0.1-0.5-0.3-0.5-0.3s-0.9,0-1.6,0c-0.3,0-0.8-0.1-1.3-0.2c-0.4-0.1-0.9-0.2-1.1-0.3
				c-0.4-0.1-0.9-0.6-0.9-1.4c0-0.7,0-2.8,0.1-4c0.7,0.1,1.6,0.3,1.8,0.7c0,0,0,0,0,0c0,0.4-0.1,1.1-0.1,1.4c0,0.4,0,1.5,0,1.5
				s0.1,0.1,0.3,0.2c0.2,0.1,0.5,0.2,0.8,0.3c0.4,0.1,2.1,0.2,2.1,0.2s0.3-0.6,0.6-0.8c0.4-0.3,1-0.5,1-0.5l0,0.1l-0.2,0.5h0.4
				c0.1,0,0.2,0,0.3,0.1l0.6,0.4c0.2,0,0.2,0.4-0.1,0.3l0.3,0.1C25.5,17.1,25.4,17.5,25.2,17.5z"/>
		</g>
		<g>
			<g>
				<path fill="#F5B54C" d="M25,17c-0.1,0-0.2-0.1-0.3-0.1c-0.1,0-0.2-0.1-0.3-0.1l0,0c-0.2,0-0.3,0-0.5,0c-0.1,0-0.2,0-0.3,0
					c-0.1,0-0.2,0-0.2,0c0.1,0,0.2,0,0.3,0c0.1,0,0.2,0,0.3,0c0.2,0,0.3,0,0.5,0l0,0l0,0c0.1,0,0.2,0.1,0.3,0.1
					C24.8,16.9,24.9,17,25,17z"/>
			</g>
			<g>
				<path fill="#F5B54C" d="M25.2,17.5c0,0-0.1,0-0.3,0c-0.1,0-0.2,0-0.3,0c-0.1,0-0.1,0-0.2,0c0,0-0.1,0-0.1,0l-0.1,0
					c-0.1,0-0.2,0-0.3,0c-0.1,0-0.2,0-0.3,0c-0.2,0-0.3,0-0.3,0s0.1,0,0.3,0c0.1,0,0.2,0,0.3,0c0.1,0,0.2,0,0.3,0l0.1,0
					c0,0,0.1,0,0.1,0c0.1,0,0.1,0,0.2,0c0.1,0,0.2,0,0.3,0C25.1,17.5,25.2,17.5,25.2,17.5z"/>
			</g>
			<g>
				<path fill="#F5B54C" d="M24.2,18c0,0-0.1,0-0.1,0c-0.1,0-0.2,0-0.3,0c-0.1,0-0.2,0-0.3,0c-0.1,0-0.1,0-0.1,0s0.1,0,0.1,0
					c0.1,0,0.2,0,0.3,0c0.1,0,0.2,0,0.3,0C24.1,18,24.1,18,24.2,18C24.2,18,24.2,18,24.2,18z"/>
			</g>
		</g>
		<g>
			<g>
				<path fill="#425A6B" d="M26.3,8.3c0,0-0.1-0.1-0.3-0.2C26,8.1,25.9,8,25.7,8c-0.1,0-0.1-0.1-0.2-0.1c-0.1,0-0.1-0.1-0.2-0.1
					c-0.2-0.1-0.3-0.3-0.4-0.4c-0.1,0.3-0.2,0.6-0.2,1c0,0.2,0,0.4,0,0.6c0,0.2,0.1,0.4,0.1,0.5c0,0.1,0.1,0.1,0.1,0.2
					c0,0.1,0,0.1,0.1,0.1c0,0,0,0.1,0.1,0.1c0,0,0,0,0,0c0,0,0,0,0,0c0,0,0,0-0.1-0.1c0,0-0.1-0.1-0.1-0.1c0-0.1-0.1-0.1-0.1-0.2
					c-0.1-0.1-0.1-0.3-0.2-0.5c0-0.2-0.1-0.4-0.1-0.6v0c0,0.1,0,0.3,0,0.4c0,0.8,0.3,1.7,0.3,1.7s-0.3-0.2-0.5-0.9S24.3,6,24.5,5.4
					c0.2-0.6,0.4-2.5,0.3-3.2c-0.2-0.7-1.4-1.1-1.4-1.1s-0.6-0.1-1.2,0.3c-0.9,0.6-0.8,2.3-0.8,2.9c0,0.4,0.3,1.5,0.5,2.7
					C21.9,7.2,22,7.6,22,8c0,0.1,0,0.3,0,0.4c0,0.1,0,0.2,0,0.4c0,0.1-0.1,0.2-0.1,0.3c0,0.1-0.1,0.2-0.1,0.3c0,0.1-0.1,0.2-0.1,0.2
					c0,0.1-0.1,0.1-0.1,0.2c0,0-0.1,0.1-0.1,0.1c0,0,0,0,0,0c0,0,0,0,0,0c0,0,0-0.1,0.1-0.1c0,0,0.1-0.1,0.1-0.2
					c0-0.1,0.1-0.1,0.1-0.2c0-0.1,0.1-0.2,0.1-0.3c0-0.1,0.1-0.2,0.1-0.3c0-0.1,0-0.2,0-0.4c0,0,0,0,0-0.1c-0.1,1.3-1.5,1.9-1.6,1.9
					c0.5-0.6,0.8-1.9,0.8-2c-0.2,0.7-0.8,1.4-0.8,1.4c0.6-0.8,0.5-1.8,0.5-1.8c-0.4,0.4-1.9,0.3-1.9,0.3c1.6-0.3,1.4-3.9,1.4-5
					c0.1-1.1,0.9-2.6,1.6-3c0.7-0.4,2-0.3,3,0.6c1,0.9,1.2,4.2,1.1,5.2c0,1,0.1,2.1,0.1,2.1C26,8,25.7,7.8,25.4,7.6
					c0,0,0.1,0,0.1,0.1c0,0,0.1,0.1,0.1,0.1c0.1,0,0.1,0.1,0.2,0.1C25.9,8,26,8,26.1,8.1C26.2,8.2,26.3,8.3,26.3,8.3z"/>
			</g>
		</g>
	</g>
	<g>
		<path fill="#E8EAE8" d="M19.7,47c0,0,0.2,0.6,0.4,0.6s0.8,0.1,1.3,0c0.4,0,0.9-0.8,0.9-0.8s-0.2,0.9-0.7,1c-0.5,0.1-1,0.1-1.4,0
			C19.8,47.8,19.7,47.4,19.7,47z"/>
	</g>
	<g>
		<path fill="#E8EAE8" d="M22.9,46.7c0,0,0.4,0.8,1,0.9c0.6,0.1,1.2,0,1.4-0.3c0,0-0.1,0.3-0.3,0.5c-0.3,0.1-1,0.1-1.5-0.1
			C23.1,47.5,22.9,46.7,22.9,46.7z"/>
	</g>
</g>
</svg>
