<?xml version="1.0" encoding="utf-8"?>
<!-- Generator: Adobe Illustrator 18.0.0, SVG Export Plug-In . SVG Version: 6.00 Build 0)  -->
<!DOCTYPE svg PUBLIC "-//W3C//DTD SVG 1.1//EN" "http://www.w3.org/Graphics/SVG/1.1/DTD/svg11.dtd">
<svg version="1.1" id="Layer_1" xmlns="http://www.w3.org/2000/svg" xmlns:xlink="http://www.w3.org/1999/xlink" x="0px" y="0px"
	 viewBox="0 0 48 48" enable-background="new 0 0 48 48" xml:space="preserve">
<g>
	<g>
		<g>
			<g>
				<g>
					<g>
						<path fill="#E8EAE9" d="M47.4,47.1H26c-2.4,0-4.3-1.9-4.3-4.3l0,0c0-2.4,1.9-4.3,4.3-4.3h21.4l0,0C46,41.2,46,44.4,47.4,47.1
							L47.4,47.1z"/>
					</g>
					<g>
						<path fill="#F3705A" d="M47.1,48H26.3c-2.7,0-5.1-2-5.4-4.7c-0.3-3.1,2.1-5.7,5.2-5.7h21.1c0.5,0,0.9,0.4,0.9,0.9l0,0
							c0,0.5-0.4,0.9-0.9,0.9h-21c-1.6,0-3.1,1.1-3.5,2.7c-0.5,2.2,1.2,4.1,3.4,4.1h21.1c0.5,0,0.9,0.4,0.9,0.9l0,0
							C48,47.6,47.6,48,47.1,48z"/>
					</g>
				</g>
			</g>
			<g>
				<g>
					<g>
						<path fill="#E8EAE9" d="M24.6,36.9h18.8c2.1,0,3.8-1.7,3.8-3.8l0,0c0-2.1-1.7-3.8-3.8-3.8H24.6l0,0
							C25.8,31.7,25.8,34.5,24.6,36.9L24.6,36.9z"/>
					</g>
					<g>
						<path fill="#66C6B9" d="M24.8,37.6h18.4c2.4,0,4.5-1.7,4.7-4.1c0.3-2.7-1.9-5-4.5-5H24.8c-0.4,0-0.8,0.3-0.8,0.8l0,0
							c0,0.4,0.3,0.8,0.8,0.8h18.5c1.4,0,2.8,1,3,2.4c0.4,1.9-1.1,3.7-3,3.7H24.8c-0.4,0-0.8,0.3-0.8,0.8l0,0
							C24.1,37.3,24.4,37.6,24.8,37.6z"/>
					</g>
				</g>
			</g>
		</g>
		<g>
			<g>
				<g>
					<path fill="#E8EAE9" d="M20.4,10.8c-1-0.6-1.9-1.3-2.8-2.1L2.8,26.5l10.7,18.1h4.1L7,26.8L20.4,10.8z"/>
				</g>
			</g>
			<g>
				<g>
					<path fill="#F3705A" d="M38.5,6c-5-4.5-12.8-4.3-17.6,0.5c-4.8,4.8-5,12.5-0.5,17.6L38.5,6z"/>
				</g>
				<g>
					<path fill="#F3705A" d="M28.6,6.5l-7.7,7.7L16,9.3c-2.1-2.1-2.1-5.6,0-7.7l0,0c2.1-2.1,5.6-2.1,7.7,0L28.6,6.5z"/>
				</g>
				<g>
					<g>
						<g>
							<path fill="#FFD15C" d="M27.4,19.8c1.9,1.7,4.8,1.6,6.6-0.2c1.8-1.8,1.9-4.7,0.2-6.6L27.4,19.8z"/>
						</g>
					</g>
					<g>
						<g>
							<path fill="#F3F3F3" d="M40,7.6L22,25.7c-0.6,0.6-1.5,0.6-2.1,0c-0.6-0.6-0.6-1.5,0-2.1L38,5.5C38.6,5,39.5,5,40,5.5
								C40.6,6.1,40.6,7,40,7.6z"/>
						</g>
					</g>
				</g>
			</g>
			<g>
				<polygon fill="#415A6B" points="4.3,43.3 2,48 29.3,48 27.1,43.3 				"/>
			</g>
			<g>
				<circle fill="#415A6B" cx="6" cy="26.6" r="6"/>
				<g>
					<circle fill="#344A5E" cx="6" cy="26.6" r="2.5"/>
				</g>
			</g>
		</g>
	</g>
</g>
</svg>
