<?xml version="1.0" encoding="utf-8"?>
<!-- Generator: Adobe Illustrator 18.0.0, SVG Export Plug-In . SVG Version: 6.00 Build 0)  -->
<!DOCTYPE svg PUBLIC "-//W3C//DTD SVG 1.1//EN" "http://www.w3.org/Graphics/SVG/1.1/DTD/svg11.dtd">
<svg version="1.1" id="Layer_1" xmlns="http://www.w3.org/2000/svg" xmlns:xlink="http://www.w3.org/1999/xlink" x="0px" y="0px"
	 viewBox="0 0 48 48" enable-background="new 0 0 48 48" xml:space="preserve">
<g>
	<g>
		<g>
			<g>
				<rect x="18.6" y="36.7" fill="#67C5B8" width="10.6" height="4.1"/>
			</g>
			<g>
				<path fill="#344A5E" d="M31.6,39.7c0,0,2,3.3,1.8,5c-0.3,1.7-0.4,1.6-0.5,2.6c0,1,0,0.6,0,0.6H14.4c0,0-1.5-5.5,1-7.8
					c2.6-2.4,3.8,0.3,3.8,0.3S26,41.2,31.6,39.7z"/>
			</g>
			<g>
				<path fill="#67C5B8" d="M16.4,24c0,0.6-0.5,2.1-0.7,2.4c-0.2,0.4-2.2,2.4-2.2,2.4s1.7,0.4,2.8,0.5c1.2,0.1,1.9,0.2,1.9,0.2
					c1.3-0.4,2.4,0,2.4,0s-0.8-0.1-1.3,1.6c-0.5,1.7,0.1,2.5,0.1,2.5l-0.3,0.4c0,0-5.9,0.5-6.5,0.5c-0.6,0-2.6-0.6-3.5-0.6
					s-1.1-0.3-1.1-0.5c-0.1-0.2-0.4-1.9-0.4-2.7c0-0.8,0.3-1.8,0.5-2.5c0.2-0.7,1.3-2.9,2.1-4.4c0.7-1.4,0.9-1.3,1.2-1.9
					c0.2-0.6,0-0.8,0.5-1.9c0.5-1.2,1.2-2.2,2.1-2.8c0.9-0.6,4.2-2.1,5-2.6c0.8-0.4,1.3-1,1.3-1l1.9,0.5l2.7-0.1l2.2-0.4l0.4,0
					c0,0,2.9,1.8,3.5,2.1c0.6,0.3,3.5,1.7,4.2,3.8c0.7,2.1,1.8,9.3,2.2,10.4c0.5,1.1,0.3,1.2,0.3,1.2s0.8,1.1,0,2.5
					c-0.7,1.4-1.8,2.8-2.8,2.7c0,0-0.5-0.2-1.4-0.5c-0.9-0.3-1.5-0.7-1.7-1.7c-0.2-0.9-0.6-1.4-0.6-1.9l-0.5-4.5L16.4,24z"/>
			</g>
			<g>
				<path fill="#FFD15C" d="M20.5,8.4c0,0,0.3,1.5,0.6,2c0.2,0.5-0.2,2.6-0.2,2.6l3.1,1.9l2.9-2.6c0,0-0.3-1.6-0.3-1.8
					c0,0,0.6-0.7,0.6-2.1s0.1-3,0.1-3S27.5,3.9,27,3c-0.5-0.9-2.6-1.8-4-1.2c-1.4,0.5-2,0.9-2.4,1.8C20.3,4.5,20,6.3,20.5,8.4z"/>
			</g>
			<g>
				<path fill="#FFD15C" d="M27.9,7.4c-0.1,0.8-0.5,1.3-0.8,1.3c-0.4-0.1-0.6-0.7-0.5-1.5s0.5-1.3,0.8-1.3C27.8,6,28,6.7,27.9,7.4z"
					/>
			</g>
			<g>
				<path fill="#FFD15C" d="M19.5,7.5c0.1,0.7,0.4,1.3,0.8,1.2c0.4-0.1,0.6-0.7,0.6-1.4c-0.1-0.7-0.4-1.3-0.8-1.2
					C19.7,6.1,19.4,6.8,19.5,7.5z"/>
			</g>
			<path fill="#F5B54C" d="M24.1,12.5c-1.5,0-3-1.9-3-1.9c0.1,0.7-0.2,2.4-0.2,2.4l2.3,1.4c3.1-1.5,3.4-3.9,3.4-3.9
				S25.6,12.5,24.1,12.5z"/>
			<g>
				<path fill="#F3F3F3" d="M26.7,11.5c0,0,0,0.7-1.1,1.5c-1.1,0.7-1.5,1.2-1.5,1.2l2.2,2.1c0,0,1-1.5,1.2-2.6c0,0-0.3-0.7-0.4-1.1
					C26.9,12.2,26.7,11.5,26.7,11.5z"/>
			</g>
			<g>
				<path fill="#F3F3F3" d="M21.1,11.5c0,0,0,0.7,1.1,1.5c1.1,0.7,1.5,1.2,1.5,1.2l-2.2,2.1c0,0-1-1.5-1.2-2.6c0,0,0.3-0.7,0.4-1.1
					C20.8,12.2,21.1,11.5,21.1,11.5z"/>
			</g>
			<g>
				<g>
					<g>
						<path fill="#F05640" d="M25.9,15.7c-0.4,0.4-2.1-0.8-2.1-0.8v-0.5c0,0,1.7-1.2,2.1-0.8C26.2,14,26.2,15.4,25.9,15.7z"/>
					</g>
					<g>
						<path fill="#F05640" d="M21.7,13.7c0.4-0.4,2.1,0.8,2.1,0.8v0.5c0,0-1.7,1.2-2.1,0.8C21.4,15.4,21.4,14,21.7,13.7z"/>
					</g>
				</g>
				<g>
					<path fill="#F26F5A" d="M24.2,15.2c-0.3,0.1-0.5,0.1-0.8,0c0.2-0.3,0.2-0.6,0-1c0.3-0.1,0.6-0.2,0.8,0
						C24.1,14.5,24.1,14.8,24.2,15.2z"/>
				</g>
			</g>
			<g>
				<path fill="#425A6B" d="M16,16.2c0,0,0,0.8,0,1.7c0,0.9,0.5,7.5-0.9,9.3c0,0,0.8,3.2,0.9,4c0.1,0.8-1.7,9.2-1.7,9.2l5.7,2l5.1-6
					V24.2c0,0-4.1-4.3-5.4-10L16,16.2z"/>
			</g>
			<path fill="#344A5E" d="M22.9,23.7l-0.2,13.8l0.7,1l1.7-2V24.2c0,0-0.6-0.6-1.4-1.7C23.4,22.8,23.2,23.2,22.9,23.7L22.9,23.7z"/>
			<g>
				<path fill="#CED6E0" d="M20,29.6l0.8,0.1c0,0,0.5,3.4-1.4,4.1C17.3,34.5,19.2,29.9,20,29.6z"/>
			</g>
			<g>
				<path fill="#425A6B" d="M31.9,36.2c0.2,0.9,0,3.8,0,3.8l-5.1,2.5L23,37.4l0.2-13.7c2.4-3.7,4.6-7.4,5-9.5l3.9,2.3
					c-0.8,2.4-1,5.1-0.6,8C31.5,25.1,31.7,35.3,31.9,36.2z"/>
			</g>
			<g>
				<g>
					<path fill="#E8EAE8" d="M39.6,24.8H26.1l0,0c0,0.5,0.4,0.9,0.9,0.9h11.6C39.2,25.7,39.6,25.3,39.6,24.8L39.6,24.8z"/>
				</g>
				<g>
					<g>
						<path fill="#F3F3F3" d="M39.9,24.9H25.8c-0.2,0-0.3-0.1-0.3-0.3c0-0.2,0.1-0.3,0.3-0.3h14.2c0.2,0,0.3,0.1,0.3,0.3
							C40.3,24.7,40.1,24.9,39.9,24.9z"/>
					</g>
				</g>
			</g>
			<g>
				<g>
					<circle fill="#344A5E" cx="24.4" cy="26.4" r="0.4"/>
				</g>
				<g>
					<circle fill="#344A5E" cx="24.4" cy="29.2" r="0.4"/>
				</g>
				<g>
					<circle fill="#344A5E" cx="24.4" cy="32" r="0.4"/>
				</g>
				<g>
					<circle fill="#344A5E" cx="24.4" cy="34.7" r="0.4"/>
				</g>
			</g>
			<g>
				<path fill="#FFD15C" d="M18.9,30.2l1.8-0.6c0,0,2.1,0.2,2.9,0.1c0.8-0.2,2.2-0.3,2.7-0.2c0.5,0.1,0.9,0.4,1.1,0.6
					c0.2,0.2,1.2,1.3,1.2,1.3c0.2,0.1-0.1,0.9-0.4,0.7c0.4,0.4,0.1,1.2-0.4,0.9c0.3,0.6-0.1,0.9-0.7,0.8c0.2,0.7-0.3,0.9-0.9,0.8
					l-0.8-0.8c0,0-1.5,0.1-2.1-0.2c-0.6-0.3-1.5-0.6-1.8-0.8c-0.3-0.1-1.8,0.1-2.4,0.3c-0.6,0.2-0.6,0.2-0.6,0.2L18.9,30.2z"/>
			</g>
			<g>
				<g>
					<path fill="#F5B54C" d="M28.2,32.1c0,0-0.1-0.1-0.2-0.2c0,0-0.1-0.1-0.2-0.2c0,0-0.1-0.1-0.1-0.1c0,0-0.1-0.1-0.1-0.1
						c0,0-0.1-0.1-0.1-0.1c0,0-0.1-0.1-0.1-0.1c-0.1-0.1-0.1-0.1-0.1-0.2c-0.1-0.1-0.1-0.2-0.1-0.2s0.1,0.1,0.2,0.2
						c0,0,0.1,0.1,0.2,0.2c0,0,0.1,0.1,0.1,0.1c0,0,0.1,0.1,0.1,0.1c0,0,0.1,0.1,0.1,0.1c0,0,0.1,0.1,0.1,0.1
						c0.1,0.1,0.1,0.1,0.1,0.2C28.2,32,28.2,32.1,28.2,32.1z"/>
				</g>
				<g>
					<path fill="#F5B54C" d="M27.8,33.1c0,0-0.1-0.1-0.2-0.1c0,0-0.1-0.1-0.2-0.1c0,0-0.1-0.1-0.1-0.1c0,0-0.1-0.1-0.1-0.1
						c0,0-0.1-0.1-0.1-0.1c0,0-0.1-0.1-0.1-0.1c-0.1-0.1-0.1-0.1-0.1-0.2c-0.1-0.1-0.1-0.2-0.1-0.2s0.1,0.1,0.2,0.1
						c0,0,0.1,0.1,0.2,0.1c0,0,0.1,0.1,0.1,0.1c0,0,0.1,0.1,0.1,0.1c0,0,0.1,0.1,0.1,0.1c0,0,0.1,0.1,0.1,0.1
						c0.1,0.1,0.1,0.1,0.1,0.2C27.8,33,27.8,33.1,27.8,33.1z"/>
				</g>
				<g>
					<path fill="#F5B54C" d="M27.1,33.9c0,0-0.1,0-0.1-0.1c0,0-0.1-0.1-0.1-0.1c0,0-0.1,0-0.1-0.1c0,0-0.1,0-0.1-0.1
						c0,0-0.1-0.1-0.1-0.1c0,0,0-0.1-0.1-0.1c0,0-0.1-0.1-0.1-0.1c-0.1-0.1-0.1-0.1-0.1-0.1s0.1,0,0.1,0.1c0,0,0.1,0.1,0.1,0.1
						c0,0,0.1,0,0.1,0.1c0,0,0.1,0,0.1,0.1c0,0,0.1,0.1,0.1,0.1c0,0,0,0.1,0.1,0.1c0,0,0.1,0.1,0.1,0.1
						C27.1,33.8,27.1,33.9,27.1,33.9z"/>
				</g>
			</g>
			<g>
				<path fill="#67C5B8" d="M18.3,29.6c0,0-0.8-0.2-1.9-0.2c-0.5,0-1.1-0.1-1.6-0.2v5.3c1.9-0.1,5-0.4,5-0.4l-0.2-0.3
					c0,0-0.6-0.8-0.1-2.5c0.5-1.7,1.3-1.6,1.3-1.6S19.7,29.2,18.3,29.6z"/>
			</g>
		</g>
		<g>
			<g>
				<path fill="#FFD15C" d="M31.1,32.1c0,0,0.4,1.5,1,1.9c0.5,0.4,2,0.4,2.5-0.7s0.7-1.6,0.1-2.2c0,0,0.1-0.8,0.3-1.2
					c0.1-0.4,0.8-2,1-2.4c0.2-0.4,0.6-0.7,0.6-0.9l1.1-0.7c0,0-0.8-1.2-2.2,0.2l-0.9,1.2c0,0-0.1-1.4-0.5-1.8
					c-0.4-0.4-0.9,0-0.9,0.2c0,0.2,0.2,0.7,0.2,1c0,0.3-0.2,1.1-0.3,1.2c-0.2,0.1-0.1-0.3-0.2-0.7c-0.1-0.3-0.3-0.9-0.4-1.3
					c-0.1-0.3-0.4-0.6-0.8-0.6c-0.2,0-0.4,0.1-0.4,0.5c0,0,0.2,0.6,0.3,1c0.1,0.4,0.4,1.3,0.4,1.3s-0.2,0.2-0.3-0.1
					c-0.1-0.3-0.3-0.6-0.5-1c-0.1-0.3-0.5-1.1-0.6-1.4c0-0.1-0.1-0.2-0.3-0.3c0,0,0,0,0,0c-0.4-0.1-0.7,0.2-0.6,0.6
					c0.1,0.3,0.3,0.8,0.3,1c0.1,0.2,0.5,1.3,0.5,1.3s-0.7-1.8-1.1-2.2c-0.4-0.4-0.8-0.8-1.2-0.4l0.4,0.7c0,0,0.1,0.2,0.2,0.3
					c0.1,0.2,0.5,0.9,0.6,1s0.8,1.8,0.8,1.8c0,0.1,0,0.3,0,0.4C30.2,30.8,30.5,31.5,31.1,32.1L31.1,32.1z"/>
			</g>
		</g>
		<g>
			<g>
				<path fill="#FFFFFF" d="M33.4,25.7c0.1-0.1,0.2-0.1,0.4,0c0.1,0,0.1,0.1,0.1,0.2c0,0.1,0,0.4-0.1,0.4c-0.1,0.1-0.4,0.1-0.4-0.1
					c0-0.1-0.1-0.2-0.1-0.3C33.3,25.8,33.4,25.7,33.4,25.7z"/>
			</g>
			<g>
				<path fill="#FFFFFF" d="M31.2,25.8c0.1-0.1,0.3-0.1,0.6-0.1c0.1,0,0.1,0.1,0.1,0.1c0,0.2,0,0.5-0.2,0.5c-0.2,0-0.4-0.1-0.6-0.4
					C31.2,25.8,31.2,25.8,31.2,25.8z"/>
			</g>
			<g>
				<path fill="#FFFFFF" d="M29.6,25.8c0,0,0.3-0.1,0.6,0c0,0,0.1,0.5-0.2,0.6C29.8,26.4,29.7,26,29.6,25.8z"/>
			</g>
			<g>
				<path fill="#FFFFFF" d="M28.2,25.8c0,0,0.2-0.1,0.4,0c0,0,0.1,0.1,0.1,0.2c0,0.1,0,0.2,0,0.3c0,0.1-0.1,0.1-0.2,0
					C28.3,26.1,28.2,25.8,28.2,25.8z"/>
			</g>
		</g>
		<g>
			<g>
				<path fill="#48B9A5" d="M34.6,31.2c0,0,0.5-0.1,0.8-0.2c0.3-0.1,1.1-0.2,1.5,0.2c0.5,0.4,0.8,1.4,0.8,1.4s-0.2-1-0.8-1.5
					c-0.6-0.5-2.3-0.1-2.3-0.1L34.6,31.2z"/>
			</g>
			<g>
				<path fill="#48B9A5" d="M36.2,30.7c0,0,1.2,0.1,1.5,0.6C37.7,31.2,37.5,30.5,36.2,30.7"/>
			</g>
		</g>
		<g>
			<path fill="#FFFFFF" d="M37.6,26l-1.1,0.7C36.5,26.7,36,26.2,37.6,26z"/>
		</g>
	</g>
	<g>
		<path fill="#425A6B" d="M22.3,2.4c0.5-0.1,1.2-0.2,1.9-0.1C25.6,2.4,27,3,27,4.3v2.5c0,0,0.4-0.7,0.4-1.5c0-0.9,0.2-1.6-0.3-3
			C26.6,0.9,25.2,0,23.1,0c-1.7,0-2.6,0.6-3,1.7c-0.8,2-0.4,2.7,0.2,5.1h0.3c0,0-0.2-1.1-0.1-1.8c0-0.2,0,0.2,0-0.1
			C20.4,3.6,21.1,2.8,22.3,2.4z"/>
	</g>
</g>
</svg>
