<?xml version="1.0" encoding="utf-8"?>
<!-- Generator: Adobe Illustrator 19.0.1, SVG Export Plug-In . SVG Version: 6.00 Build 0)  -->
<svg version="1.1" id="Layer_1" xmlns="http://www.w3.org/2000/svg" xmlns:xlink="http://www.w3.org/1999/xlink" x="0px" y="0px"
	 viewBox="0 0 48 48" style="enable-background:new 0 0 48 48;" xml:space="preserve">
<style type="text/css">
	.st0{fill:#FFD15C;}
	.st1{fill:#415A6B;}
	.st2{fill:#F7B64C;}
	.st3{fill:#CED6E0;}
	.st4{fill:#344A5E;}
	.st5{fill:#F3F3F3;}
	.st6{fill:#F05540;}
	.st7{fill:#F3705A;}
	.st8{fill:#66C6B9;}
	.st9{fill:#55C0EB;}
	.st10{fill:#F5F6FB;}
	.st11{fill:#4ABAA5;}
	.st12{fill:#ADB3BA;}
	.st13{fill:#E8EAE9;}
	.st14{fill:#2E4556;}
	.st15{fill:#8AD7F8;}
	.st16{fill:#FFFFFF;}
	.st17{fill:#E54838;}
	.st18{fill:#3EAF99;}
	.st19{fill:#EFA943;}
	.st20{fill:#4CAEE5;}
	.st21{fill:#293F4F;}
	.st22{fill:#2D4456;}
	.st23{fill:#2E4454;}
	.st24{fill:#2A3F4F;}
	.st25{fill:#2D4151;}
	.st26{fill:#E89E3D;}
	.st27{fill:#2B4151;}
	.st28{fill:#2A4051;}
	.st29{fill:#2C4151;}
	.st30{fill:#EBEAE8;}
	.st31{fill:#3AA590;}
	.st32{fill:#E84534;}
	.st33{fill:none;}
</style>
<g>
	<g>
		<g>
			<g>
				<g>
					<path class="st1" d="M32.3,46.7C32.3,46.7,32.3,46.7,32.3,46.7c0-0.2,0-0.2,0-0.4c0-0.2,0-0.5-0.1-0.9c0-0.8,0-1.9,0-3.3
						c0-0.7,0-1.4,0-2.2c0-0.2,0-0.4,0-0.6c0-0.1,0-0.2,0-0.3c0-0.1,0-0.2,0-0.3c0-0.4,0-0.8,0.1-1.2c0-0.2,0-0.4,0.1-0.6
						c0-0.2,0-0.4,0.1-0.6c0-0.1,0-0.2,0-0.3c0-0.1,0-0.2,0-0.3c0-0.2,0.1-0.4,0.1-0.7c0.1-0.9,0.3-1.8,0.5-2.6
						c0.2-0.9,0.4-1.7,0.6-2.6c0.2-0.9,0.3-1.7,0.4-2.5c0-0.8,0-1.6,0.1-2.4c0.1-0.8,0.1-1.5,0.3-2.1c0-0.2,0.1-0.3,0.1-0.5
						c0-0.2,0.1-0.3,0.1-0.5c0-0.1,0.1-0.3,0.1-0.4c0-0.1,0.1-0.3,0.1-0.4c0.2-0.5,0.3-1,0.5-1.3c0.2-0.3,0.3-0.6,0.4-0.8
						c0.1-0.2,0.2-0.3,0.2-0.3s-0.1,0.1-0.2,0.3c-0.1,0.2-0.2,0.5-0.4,0.8C35.2,20,35,20.4,34.9,21c0,0.1-0.1,0.3-0.1,0.4
						c0,0.1-0.1,0.3-0.1,0.4c0,0.1-0.1,0.3-0.1,0.5c0,0.2,0,0.3-0.1,0.5c-0.1,0.7-0.1,1.4-0.2,2.1c0,0.8,0,1.6,0,2.4
						c0,0.9-0.1,1.7-0.3,2.6c-0.1,0.9-0.3,1.7-0.5,2.6c-0.1,0.9-0.3,1.7-0.4,2.6c0,0.2,0,0.4-0.1,0.6c0,0.1,0,0.2,0,0.3
						c0,0.1,0,0.2,0,0.3c0,0.2,0,0.4,0,0.6c0,0.2,0,0.4,0,0.6c0,0.4,0,0.8,0,1.2c0,0.1,0,0.2,0,0.3c0,0.1,0,0.2,0,0.3
						c0,0.2,0,0.4,0,0.6c0,0.8,0,1.5,0,2.1c0,1.3,0.1,2.4,0.2,3.2c0,0.4,0.1,0.7,0.1,0.9c0,0.1,0,0.2,0,0.2c0,0,0,0.1,0,0.1
						L32.3,46.7z"/>
				</g>
			</g>
			<g>
				<g>
					<path class="st0" d="M24.4,47.3c0.2-0.4,0.8-0.4,1.2-0.4c0.5,0,1,0,1.5,0c0.1,0,0.2,0,0.3-0.1c0.2-0.1,0.3-0.3,0.5-0.4
						c0.2-0.2,0.6-0.2,0.8-0.3c0.2-0.2,0.4-0.5,0.7-0.5c0.2,0,0.3,0.1,0.5,0.1c0.2,0,0.3-0.2,0.4-0.3c0.2,0,0.4,0.2,0.6,0.2
						c0.2,0,0.3-0.1,0.5-0.3c0.1-0.1,0.4-0.2,0.5-0.1c0,0,0.1,0.1,0.1,0.1c0.1,0.1,0.2,0.1,0.2,0c0.1,0,0.2,0,0.3,0.1
						c0.2,0.1,0.4,0.2,0.6,0.1c0.2-0.1,0.3-0.3,0.5-0.2c0.1,0.1,0.2,0.2,0.3,0.2c0.1,0,0.1-0.1,0.2-0.2c0.1-0.1,0.2,0,0.3,0.1
						c0.1,0.1,0.1,0.2,0.1,0.3c0.2-0.1,0.4-0.2,0.5-0.1c0.1,0,0.1,0.1,0.1,0.2c0.1,0.2,0.4,0.2,0.6,0.1c0.2,0,0.4-0.1,0.6-0.1
						c0.5,0,0.9,0.6,1.4,0.6c0.3,0,0.6-0.1,0.8,0.1c0.1,0.1,0.1,0.2,0.2,0.2c0.1,0,0.2,0,0.3,0c0.1,0,0.1,0.1,0.2,0.2
						c0.2,0.2,0.6,0.2,1,0.2c0.5,0,0.9-0.1,1.4-0.1c0.1,0,0.2,0,0.3,0.1c0.1,0.1,0,0.2,0,0.3c-0.1,0.1-0.3,0.2-0.5,0.2
						c-1,0-1.9,0.1-2.9,0.1c-0.6,0-1.2,0-1.8,0.1c-0.4,0-0.8,0-1.2,0c-0.2,0-0.4-0.1-0.6-0.1c-0.2,0-0.5,0-0.7,0
						c-0.5,0-1,0.1-1.5,0.1c-0.4,0-0.9,0.1-1.3,0.1c-0.7,0-1.4,0.1-2,0c-0.6,0-1.2-0.1-1.9-0.1c-0.6,0-1.2,0.1-1.8,0.1
						C25.3,47.9,24.8,47.8,24.4,47.3"/>
				</g>
			</g>
			<g>
				<g>
					<g>
						<g>
							<path class="st8" d="M32.2,37.7c-0.1-1.5-0.5-3-1.1-4.5v0c-0.2-0.5-0.5-1-0.8-1.4c-0.8-1.2-2.1-2-3.4-2.4
								c-1.4-0.4-2.8-0.6-4.2-0.7c-1-0.1-2-0.2-3,0c1.4,0.8,1.9,2.7,3.2,3.6c0.4,0.3,0.8,0.4,1.2,0.6c1.7,0.7,3.4,1.2,5,2.1
								c1.6,0.9,2.9,2.4,3.3,4.1L32.2,37.7z"/>
						</g>
					</g>
					<g>
						<g>
							<path class="st1" d="M32.5,41.5C32.5,41.5,32.5,41.4,32.5,41.5c0-0.1,0-0.1,0-0.2c0-0.1,0-0.3,0-0.5c0-0.2,0-0.5-0.1-0.8
								c-0.1-0.3-0.1-0.6-0.2-1c-0.1-0.4-0.2-0.8-0.4-1.2c-0.1-0.2-0.2-0.4-0.3-0.6c0-0.1-0.1-0.2-0.2-0.3c-0.1-0.1-0.1-0.2-0.2-0.3
								c-0.1-0.1-0.1-0.2-0.2-0.3c-0.1-0.1-0.1-0.2-0.2-0.3c-0.1-0.2-0.3-0.4-0.4-0.6c-0.1-0.1-0.2-0.2-0.2-0.3
								c-0.1-0.1-0.2-0.2-0.2-0.3l-0.3-0.3l-0.1-0.1l-0.1-0.1c-0.2-0.2-0.4-0.4-0.5-0.5c-0.1-0.1-0.2-0.2-0.3-0.3
								c-0.1-0.1-0.2-0.2-0.3-0.2c-0.1-0.1-0.2-0.2-0.3-0.2c-0.1-0.1-0.2-0.2-0.3-0.2c-0.1-0.1-0.2-0.1-0.3-0.2
								c-0.1-0.1-0.2-0.1-0.3-0.2c-0.4-0.3-0.8-0.5-1.2-0.7c-0.4-0.2-0.7-0.4-1.1-0.6c-0.2-0.1-0.3-0.2-0.5-0.2
								c-0.2-0.1-0.3-0.1-0.5-0.2c-0.1-0.1-0.3-0.1-0.4-0.2c-0.1-0.1-0.2-0.1-0.3-0.1c-0.4-0.2-0.7-0.3-0.7-0.3s0.2,0.1,0.7,0.2
								c0.1,0,0.2,0.1,0.3,0.1c0.1,0.1,0.3,0.1,0.4,0.2c0.1,0.1,0.3,0.1,0.5,0.2c0.2,0.1,0.3,0.2,0.5,0.2c0.4,0.2,0.7,0.4,1.1,0.6
								c0.4,0.2,0.8,0.5,1.2,0.7c0.1,0.1,0.2,0.1,0.3,0.2c0.1,0.1,0.2,0.1,0.3,0.2c0.1,0.1,0.2,0.1,0.3,0.2c0.1,0.1,0.2,0.2,0.3,0.2
								c0.1,0.1,0.2,0.2,0.3,0.2c0.1,0.1,0.2,0.2,0.3,0.3c0.2,0.2,0.4,0.4,0.6,0.5l0.1,0.1l0.1,0.1l0.3,0.3c0.1,0.1,0.2,0.2,0.2,0.3
								c0.1,0.1,0.2,0.2,0.2,0.3c0.2,0.2,0.3,0.4,0.4,0.6c0.1,0.1,0.1,0.2,0.2,0.3c0.1,0.1,0.1,0.2,0.2,0.3c0.1,0.1,0.1,0.2,0.2,0.3
								c0.1,0.1,0.1,0.2,0.2,0.3c0.1,0.2,0.2,0.4,0.3,0.6c0.2,0.4,0.3,0.8,0.4,1.2c0.1,0.4,0.2,0.7,0.3,1c0.1,0.3,0.1,0.6,0.1,0.8
								c0,0.2,0,0.4,0,0.5c0,0.1,0,0.1,0,0.1c0,0,0,0,0,0L32.5,41.5z"/>
						</g>
					</g>
				</g>
				<g>
					<g>
						<g>
							<path class="st1" d="M25.8,31.4c0,0,0,0,0.1,0c0.1,0,0.2-0.1,0.3-0.1c0.1,0,0.3-0.1,0.4-0.1c0.1,0,0.2,0,0.2,0
								c0.1,0,0.2,0,0.3,0c0.2,0,0.3,0,0.5,0c0.2,0,0.3,0,0.4,0c0.1,0,0.1,0,0.2,0c0.1,0,0.1,0,0.1,0c0.1,0,0.1,0,0.1,0s0,0-0.1,0
								c0,0-0.1,0-0.1,0c-0.1,0-0.1,0-0.2,0c-0.1,0-0.3,0-0.4,0c-0.2,0-0.3,0-0.5,0.1c-0.2,0-0.3,0-0.5,0.1c-0.2,0-0.3,0-0.4,0.1
								c-0.1,0-0.2,0-0.3,0C25.8,31.4,25.8,31.4,25.8,31.4z"/>
						</g>
					</g>
					<g>
						<g>
							<path class="st1" d="M26.6,31.8C26.6,31.8,26.6,31.9,26.6,31.8c0,0.1,0,0.2,0,0.2c0,0.1,0,0.3,0,0.5c0,0.2,0,0.4,0,0.5
								c0,0.1,0,0.1,0,0.2c0,0,0,0.1,0,0.1s0-0.1,0-0.2c0-0.1,0-0.3,0-0.5c0-0.2,0-0.4,0.1-0.5C26.5,32,26.5,31.9,26.6,31.8
								C26.6,31.9,26.6,31.8,26.6,31.8z"/>
						</g>
					</g>
					<g>
						<path class="st1" d="M24.3,30.6c0,0,0,0.1,0,0.3c0,0.1,0,0.2,0,0.3c0,0.1,0,0.2,0,0.3c0,0.1,0,0.2,0,0.3c0,0.1,0,0.2,0,0.3
							c0,0.1,0,0.2,0,0.2c0,0,0,0.1,0,0.1s0,0,0-0.1c0,0,0-0.1,0-0.1c0,0,0-0.1,0-0.1c0-0.1,0-0.2,0-0.3c0-0.1,0-0.1,0-0.2
							c0-0.1,0-0.1,0-0.2c0-0.1,0-0.2,0-0.3c0-0.1,0-0.2,0.1-0.3C24.2,30.8,24.2,30.7,24.3,30.6C24.3,30.6,24.3,30.6,24.3,30.6z"/>
					</g>
				</g>
			</g>
			<g>
				<g>
					<g>
						<g>
							<g>
								<path class="st8" d="M41.2,27.7c0-0.4,0.1-0.9,0.3-1.3l0,0c0.1-0.1,0.1-0.3,0.2-0.4c0.2-0.3,0.6-0.6,1-0.7
									c0.4-0.1,0.8-0.2,1.2-0.2c0.3,0,0.6-0.1,0.9,0c-0.4,0.2-0.5,0.8-0.9,1.1c-0.1,0.1-0.2,0.1-0.3,0.2c-0.5,0.2-1,0.4-1.4,0.6
									c-0.4,0.3-0.8,0.7-0.9,1.2L41.2,27.7z"/>
							</g>
						</g>
						<g>
							<g>
								<path class="st1" d="M40.9,28.9C40.9,28.9,40.9,28.8,40.9,28.9c0-0.1,0-0.2,0-0.2c0-0.1,0-0.2,0-0.2c0-0.1,0-0.2,0.1-0.3
									c0-0.1,0-0.1,0.1-0.2c0-0.1,0-0.1,0.1-0.2c0-0.1,0.1-0.1,0.1-0.2c0-0.1,0.1-0.1,0.1-0.2c0,0,0-0.1,0.1-0.1
									c0,0,0-0.1,0.1-0.1c0-0.1,0.1-0.1,0.1-0.2c0-0.1,0.1-0.1,0.1-0.2c0.1-0.1,0.1-0.1,0.2-0.2l0.2-0.2l0.1-0.1
									c0,0,0.1,0,0.1-0.1c0.1,0,0.1-0.1,0.2-0.1c0,0,0.1,0,0.1-0.1c0,0,0.1,0,0.1-0.1c0.1-0.1,0.2-0.1,0.3-0.2
									c0.1-0.1,0.2-0.1,0.3-0.2c0,0,0.1,0,0.1-0.1c0,0,0.1,0,0.1-0.1c0.1,0,0.2-0.1,0.2-0.1c0.1,0,0.2-0.1,0.2-0.1s-0.1,0-0.2,0.1
									c-0.1,0-0.1,0.1-0.2,0.1c0,0-0.1,0-0.1,0.1c0,0-0.1,0.1-0.1,0.1c-0.1,0.1-0.2,0.1-0.3,0.2c-0.1,0.1-0.2,0.2-0.3,0.2
									c0,0-0.1,0-0.1,0.1c0,0-0.1,0-0.1,0.1c-0.1,0-0.1,0.1-0.2,0.1c0,0-0.1,0-0.1,0.1l-0.1,0.1L42,26.7c-0.1,0.1-0.1,0.1-0.1,0.2
									c0,0.1-0.1,0.1-0.1,0.2c0,0.1-0.1,0.1-0.1,0.2c0,0,0,0.1-0.1,0.1c0,0,0,0.1,0,0.1c0,0.1-0.1,0.1-0.1,0.2
									c0,0.1,0,0.1-0.1,0.2c0,0.1,0,0.1-0.1,0.2c0,0.1,0,0.1,0,0.2c0,0.1,0,0.2,0,0.3c0,0.1,0,0.2,0,0.2c0,0.1,0,0.1,0,0.1
									c0,0,0,0,0,0L40.9,28.9z"/>
							</g>
						</g>
					</g>
					<g>
						<g>
							<g>
								<path class="st1" d="M43,25.9c0,0-0.1,0-0.1,0c-0.1,0-0.2,0-0.3,0c-0.1,0-0.2,0-0.3,0c0,0-0.1,0-0.1,0c0,0,0,0,0,0
									s0,0,0.1,0c0,0,0.1,0,0.1,0c0,0,0.1,0,0.1,0c0.1,0,0.2,0,0.3,0.1C43,25.8,43,25.9,43,25.9z"/>
							</g>
						</g>
						<g>
							<g>
								<path class="st1" d="M42.8,26C42.8,26,42.8,26,42.8,26c0.1,0.1,0.1,0.2,0.1,0.2c0,0.1,0,0.1,0,0.2c0,0,0,0.1,0,0.1
									s0,0,0-0.1c0,0,0-0.1,0-0.2C42.8,26.2,42.8,26.1,42.8,26C42.8,26,42.8,26,42.8,26z"/>
							</g>
						</g>
						<g>
							<path class="st1" d="M43.4,25.6C43.4,25.6,43.5,25.7,43.4,25.6c0.1,0.1,0.1,0.2,0.1,0.2c0,0.1,0,0.1,0,0.2c0,0.1,0,0.1,0,0.1
								s0,0,0-0.1c0,0,0-0.1,0-0.2C43.4,25.8,43.4,25.8,43.4,25.6C43.4,25.7,43.4,25.6,43.4,25.6z"/>
						</g>
					</g>
				</g>
				<g>
					<g>
						<g>
							<g>
								<path class="st8" d="M40.8,27.8c-0.1-0.4-0.3-0.8-0.6-1.2l0,0c-0.1-0.1-0.2-0.3-0.3-0.4c-0.3-0.3-0.7-0.4-1.1-0.5
									s-0.8,0-1.2,0c-0.3,0-0.6,0.1-0.9,0.2c0.4,0.2,0.7,0.7,1.1,0.9c0.1,0.1,0.2,0.1,0.4,0.1c0.5,0.1,1,0.2,1.5,0.3
									c0.5,0.2,1,0.5,1.1,1L40.8,27.8z"/>
							</g>
						</g>
						<g>
							<g>
								<path class="st1" d="M40.9,28.9C40.9,28.9,40.9,28.8,40.9,28.9c0-0.1,0-0.1,0-0.2c0-0.1,0-0.1-0.1-0.2
									c0-0.1-0.1-0.2-0.1-0.3c0,0,0-0.1-0.1-0.1c0-0.1-0.1-0.1-0.1-0.2c0-0.1-0.1-0.1-0.1-0.2c0-0.1-0.1-0.1-0.1-0.2
									c0,0,0-0.1-0.1-0.1c0,0,0-0.1-0.1-0.1c0-0.1-0.1-0.1-0.1-0.2c-0.1,0-0.1-0.1-0.2-0.1c-0.1,0-0.1-0.1-0.2-0.1l-0.2-0.1
									l-0.1-0.1c0,0-0.1,0-0.1-0.1c-0.1,0-0.1-0.1-0.2-0.1c0,0-0.1,0-0.1-0.1c0,0-0.1,0-0.1,0c-0.1-0.1-0.2-0.1-0.4-0.2
									c-0.1,0-0.2-0.1-0.3-0.1c-0.1,0-0.1,0-0.2-0.1c0,0-0.1,0-0.1,0c-0.1,0-0.2,0-0.2-0.1c-0.1,0-0.2,0-0.2,0s0.1,0,0.2,0
									c0.1,0,0.1,0,0.2,0c0,0,0.1,0,0.1,0c0,0,0.1,0,0.2,0c0.1,0,0.2,0.1,0.4,0.1c0.1,0,0.2,0.1,0.4,0.1c0,0,0.1,0,0.1,0
									c0,0,0.1,0,0.1,0c0.1,0,0.1,0.1,0.2,0.1c0,0,0.1,0,0.1,0l0.1,0.1l0.2,0.1c0.1,0,0.1,0.1,0.2,0.1c0.1,0,0.1,0.1,0.2,0.1
									c0.1,0.1,0.1,0.1,0.2,0.2c0,0,0.1,0,0.1,0.1c0,0,0,0.1,0.1,0.1c0,0.1,0.1,0.1,0.1,0.2c0,0.1,0.1,0.1,0.1,0.2
									c0,0.1,0.1,0.1,0.1,0.2c0,0.1,0.1,0.1,0.1,0.2c0.1,0.1,0.1,0.2,0.1,0.3c0,0.1,0.1,0.2,0.1,0.2c0,0.1,0,0.1,0,0.2
									c0,0,0,0.1,0,0.1L40.9,28.9z"/>
							</g>
						</g>
					</g>
					<g>
						<g>
							<g>
								<path class="st1" d="M38.6,26.3c0,0,0,0,0.1-0.1c0.1,0,0.2-0.1,0.2-0.1c0,0,0.1,0,0.1,0c0,0,0.1,0,0.1,0c0.1,0,0.1,0,0.1,0
									s0,0,0,0c0,0,0,0-0.1,0c-0.1,0-0.2,0.1-0.2,0.1c-0.1,0-0.2,0.1-0.3,0.1C38.6,26.3,38.6,26.3,38.6,26.3z"/>
							</g>
						</g>
						<g>
							<g>
								<path class="st1" d="M38.8,26.4C38.8,26.4,38.9,26.5,38.8,26.4c0,0.1,0.1,0.2,0.1,0.2c0,0.1,0,0.1,0,0.2c0,0,0,0.1,0,0.1
									s0,0,0-0.1c0,0,0-0.1,0-0.2C38.8,26.6,38.8,26.5,38.8,26.4C38.8,26.5,38.8,26.4,38.8,26.4z"/>
							</g>
						</g>
						<g>
							<path class="st1" d="M38.1,26.2C38.1,26.2,38.1,26.2,38.1,26.2c0,0.1,0.1,0.2,0.1,0.3c0,0.1,0,0.1,0,0.2c0,0,0,0.1,0,0.1
								s0,0-0.1-0.1c0,0,0-0.1,0-0.2C38.1,26.4,38.1,26.3,38.1,26.2C38.1,26.2,38.1,26.2,38.1,26.2z"/>
						</g>
					</g>
				</g>
			</g>
			<g>
				<g>
					<path class="st1" d="M32.2,41.7c0,0,0-0.1,0.1-0.3c0-0.2,0.1-0.4,0.2-0.7c0-0.2,0.1-0.3,0.2-0.5c0.1-0.2,0.1-0.4,0.2-0.6
						c0.1-0.2,0.2-0.4,0.2-0.7c0.1-0.2,0.2-0.5,0.3-0.7c0.2-0.5,0.4-1.1,0.7-1.6c0.3-0.6,0.6-1.1,0.9-1.7c0.3-0.6,0.7-1.2,1.1-1.8
						c0.4-0.6,0.9-1.2,1.3-1.7c0.5-0.6,1-1.1,1.5-1.6c0.3-0.2,0.6-0.4,0.9-0.6l0.1-0.1l0,0l0,0l0,0l0.1,0c0.1,0,0.2-0.1,0.2-0.1
						c0.2-0.1,0.3-0.2,0.5-0.2c0.6-0.3,1.3-0.5,1.9-0.6c0.6-0.1,1.2-0.2,1.7-0.2c0.5,0,1,0,1.5,0c0.4,0,0.8,0,1.1,0.1
						c0.3,0.1,0.5,0.2,0.7,0.2c0.1,0,0.1,0.1,0.2,0.1c0,0,0.1,0,0.1,0s0,0-0.1,0c0,0-0.1,0-0.2-0.1c-0.2-0.1-0.4-0.1-0.7-0.2
						C46.8,28,46.4,28,45.9,28c-0.4,0-0.9,0-1.5,0.1c-0.5,0.1-1.1,0.1-1.7,0.3c-0.6,0.1-1.2,0.3-1.8,0.6c-0.2,0.1-0.3,0.2-0.4,0.2
						c-0.1,0-0.1,0.1-0.2,0.1l-0.1,0l0,0c0,0,0,0,0,0l0,0l-0.1,0.1c-0.3,0.2-0.5,0.4-0.8,0.6c-0.5,0.5-1,1-1.4,1.6
						c-0.4,0.6-0.9,1.1-1.2,1.7c-0.4,0.6-0.7,1.2-1.1,1.8c-0.3,0.6-0.6,1.2-0.8,1.7c-0.3,0.6-0.5,1.1-0.6,1.6
						c-0.1,0.3-0.2,0.5-0.2,0.7c-0.1,0.2-0.1,0.5-0.2,0.7c-0.1,0.2-0.1,0.4-0.2,0.6c-0.1,0.2-0.1,0.3-0.1,0.5
						c-0.1,0.3-0.1,0.5-0.2,0.7c0,0.2-0.1,0.3-0.1,0.3L32.2,41.7z"/>
				</g>
			</g>
			<g>
				<g>
					<g>
						<g>
							<path class="st8" d="M33.8,33.9c0.4-0.8,0.9-1.5,1.6-2.1l0,0c0.2-0.2,0.5-0.4,0.7-0.6c0.7-0.5,1.6-0.6,2.4-0.5
								c0.8,0.1,1.6,0.3,2.4,0.6c0.6,0.2,1.1,0.4,1.6,0.7c-0.9,0.1-1.6,1-2.5,1.2c-0.3,0.1-0.5,0.1-0.8,0c-1.1,0-2.1-0.1-3.2,0
								c-1,0.2-2.1,0.6-2.7,1.5L33.8,33.9z"/>
						</g>
					</g>
					<g>
						<g>
							<path class="st1" d="M32.6,35.8c0,0,0,0,0-0.1c0-0.1,0.1-0.2,0.1-0.3c0.1-0.1,0.1-0.3,0.2-0.4c0.1-0.2,0.2-0.3,0.4-0.5
								c0.1-0.2,0.3-0.4,0.5-0.5c0.2-0.2,0.4-0.4,0.6-0.5c0.2-0.2,0.5-0.3,0.7-0.5c0.1-0.1,0.3-0.1,0.4-0.2c0.1-0.1,0.3-0.1,0.4-0.2
								c0.1-0.1,0.3-0.1,0.4-0.2c0.1,0,0.1,0,0.2-0.1c0.1,0,0.1,0,0.2-0.1c0.1,0,0.1,0,0.2-0.1c0.1,0,0.1,0,0.2-0.1
								c0.1,0,0.1,0,0.2-0.1c0.1,0,0.1,0,0.2,0c0.3-0.1,0.5-0.1,0.8-0.1c0.3,0,0.5-0.1,0.7-0.1c0.1,0,0.2,0,0.3,0c0.1,0,0.2,0,0.3,0
								c0.1,0,0.2,0,0.3,0c0.1,0,0.2,0,0.2,0c0.3,0,0.4,0,0.4,0s-0.1,0-0.4,0c-0.1,0-0.1,0-0.2,0c-0.1,0-0.2,0-0.3,0s-0.2,0-0.3,0
								c-0.1,0-0.2,0-0.3,0c-0.2,0-0.5,0-0.7,0.1c-0.3,0-0.5,0.1-0.8,0.1c-0.1,0-0.1,0-0.2,0c-0.1,0-0.1,0-0.2,0.1
								c-0.1,0-0.1,0-0.2,0.1c-0.1,0-0.1,0-0.2,0.1c-0.1,0-0.1,0-0.2,0.1c-0.1,0-0.1,0.1-0.2,0.1c-0.1,0-0.3,0.1-0.4,0.2
								c-0.1,0.1-0.3,0.1-0.4,0.2c-0.1,0.1-0.3,0.1-0.4,0.2c-0.2,0.2-0.5,0.3-0.7,0.5c-0.2,0.2-0.4,0.4-0.6,0.5
								c-0.2,0.2-0.3,0.4-0.5,0.5c-0.1,0.2-0.2,0.3-0.3,0.5c-0.1,0.2-0.2,0.3-0.2,0.4c-0.1,0.1-0.1,0.2-0.1,0.3c0,0.1,0,0.1,0,0.1
								L32.6,35.8z"/>
						</g>
					</g>
				</g>
				<g>
					<g>
						<g>
							<path class="st1" d="M38.7,31.9c0,0-0.1,0-0.2-0.1c-0.1,0-0.1-0.1-0.2-0.1c-0.1,0-0.2-0.1-0.2-0.1c-0.2-0.1-0.3-0.2-0.5-0.3
								c-0.1,0-0.1-0.1-0.2-0.1c0,0-0.1,0-0.1,0s0,0,0.1,0c0,0,0,0,0.1,0c0,0,0.1,0,0.1,0c0.1,0,0.2,0.1,0.2,0.1
								c0.1,0,0.2,0.1,0.3,0.1c0.2,0.1,0.3,0.2,0.4,0.3C38.5,31.8,38.6,31.8,38.7,31.9C38.6,31.9,38.7,31.9,38.7,31.9z"/>
						</g>
					</g>
					<g>
						<g>
							<path class="st1" d="M38.1,32c0,0,0,0.1,0,0.1c0,0.1,0,0.2-0.1,0.3c0,0.1-0.1,0.2-0.1,0.3c0,0.1-0.1,0.1-0.1,0.1s0-0.1,0-0.1
								c0-0.1,0-0.2,0.1-0.3c0-0.1,0.1-0.2,0.1-0.3C38.1,32,38.1,32,38.1,32z"/>
						</g>
					</g>
					<g>
						<path class="st1" d="M39.6,31.8c0,0,0,0.1,0,0.2c0,0.1,0,0.2-0.1,0.4c0,0.1-0.1,0.2-0.1,0.3c0,0-0.1,0.1-0.1,0.1c0,0,0,0,0,0
							s0-0.1,0-0.2c0-0.1,0.1-0.2,0.1-0.3c0-0.1,0.1-0.2,0.1-0.3C39.6,31.9,39.6,31.8,39.6,31.8z"/>
					</g>
				</g>
			</g>
			<g>
				<g>
					<g>
						<g>
							<path class="st8" d="M34.9,25c0.3-0.6,0.7-1.1,1.2-1.6h0c0.2-0.2,0.3-0.3,0.5-0.4c0.5-0.3,1.1-0.4,1.7-0.4
								c0.6,0,1.2,0.2,1.8,0.4c0.4,0.1,0.8,0.3,1.2,0.5c-0.7,0.1-1.2,0.7-1.8,0.9c-0.2,0-0.4,0-0.6,0c-0.8,0-1.5-0.1-2.3,0
								c-0.8,0.1-1.5,0.5-1.9,1.1L34.9,25z"/>
						</g>
					</g>
					<g>
						<g>
							<path class="st1" d="M34,26.4C34,26.4,34,26.3,34,26.4c0.1-0.1,0.1-0.2,0.1-0.3c0.1-0.2,0.2-0.4,0.5-0.7
								c0.2-0.3,0.5-0.5,0.8-0.8c0.2-0.1,0.3-0.2,0.5-0.3c0.2-0.1,0.4-0.2,0.6-0.3c0.1,0,0.2-0.1,0.3-0.1c0.1,0,0.2-0.1,0.3-0.1
								c0.1,0,0.1,0,0.2,0c0.1,0,0.1,0,0.2,0c0.1,0,0.2,0,0.3-0.1c0.2,0,0.4-0.1,0.6-0.1c0.2,0,0.4,0,0.5,0c0.1,0,0.2,0,0.2,0
								c0.1,0,0.1,0,0.2,0c0.1,0,0.2,0,0.3,0c0.2,0,0.3,0,0.3,0s-0.1,0-0.3,0c-0.1,0-0.2,0-0.3,0c-0.1,0-0.1,0-0.2,0
								c-0.1,0-0.2,0-0.2,0c-0.2,0-0.3,0-0.5,0.1c-0.2,0-0.4,0.1-0.6,0.1c-0.1,0-0.2,0-0.3,0.1c0,0-0.1,0-0.2,0c0,0-0.1,0-0.1,0.1
								c-0.1,0-0.2,0.1-0.3,0.1c-0.1,0-0.2,0.1-0.3,0.1c-0.2,0.1-0.4,0.2-0.6,0.3c-0.2,0.1-0.3,0.2-0.5,0.4
								c-0.3,0.2-0.6,0.5-0.8,0.8c-0.2,0.3-0.3,0.5-0.4,0.6c0,0.1-0.1,0.1-0.1,0.2c0,0,0,0.1,0,0.1L34,26.4z"/>
						</g>
					</g>
				</g>
				<g>
					<g>
						<g>
							<path class="st1" d="M38.4,23.6c0,0-0.1,0-0.2-0.1c0,0-0.1-0.1-0.2-0.1c-0.1,0-0.1-0.1-0.2-0.1c-0.1-0.1-0.2-0.1-0.3-0.2
								c0,0-0.1,0-0.1-0.1c0,0,0,0,0,0s0,0,0.1,0c0,0,0.1,0,0.1,0c0.1,0,0.1,0,0.2,0.1c0.1,0,0.1,0.1,0.2,0.1
								c0.1,0.1,0.2,0.2,0.3,0.2C38.4,23.5,38.4,23.6,38.4,23.6z"/>
						</g>
					</g>
					<g>
						<g>
							<path class="st1" d="M38.1,23.6c0,0,0,0,0,0.1c0,0.1,0,0.1,0,0.2c0,0.1-0.1,0.2-0.1,0.2c0,0.1-0.1,0.1-0.1,0.1s0,0,0-0.1
								c0-0.1,0-0.1,0.1-0.2C37.9,23.9,38,23.8,38.1,23.6C38,23.7,38.1,23.6,38.1,23.6z"/>
						</g>
					</g>
					<g>
						<path class="st1" d="M39.1,23.5c0,0,0,0,0,0.1c0,0.1,0,0.2,0,0.3c0,0.1-0.1,0.2-0.1,0.2c0,0.1-0.1,0.1-0.1,0.1s0,0,0-0.1
							c0-0.1,0-0.2,0.1-0.2c0-0.1,0.1-0.2,0.1-0.2C39.1,23.6,39.1,23.5,39.1,23.5z"/>
					</g>
				</g>
			</g>
			<g>
				<g>
					<g>
						<g>
							<path class="st8" d="M32.9,28.7c-0.3-0.6-0.7-1.1-1.2-1.6l0,0c-0.2-0.2-0.3-0.3-0.5-0.4c-0.5-0.3-1.1-0.4-1.7-0.4
								s-1.2,0.2-1.8,0.4c-0.4,0.1-0.8,0.3-1.2,0.5c0.7,0.1,1.2,0.7,1.8,0.9c0.2,0,0.4,0,0.6,0c0.8,0,1.5-0.1,2.3,0s1.5,0.5,1.9,1.1
								L32.9,28.7z"/>
						</g>
					</g>
					<g>
						<g>
							<path class="st1" d="M33.5,30.2C33.5,30.2,33.5,30.1,33.5,30.2c0-0.1-0.1-0.2-0.1-0.3c-0.1-0.2-0.2-0.4-0.4-0.6
								c-0.2-0.3-0.4-0.5-0.8-0.8c-0.2-0.1-0.3-0.2-0.5-0.4c-0.2-0.1-0.4-0.2-0.6-0.3c-0.1,0-0.2-0.1-0.3-0.1
								c-0.1,0-0.2-0.1-0.3-0.1c-0.1,0-0.1,0-0.1-0.1c-0.1,0-0.1,0-0.2,0c-0.1,0-0.2-0.1-0.3-0.1c-0.2,0-0.4-0.1-0.6-0.1
								c-0.2,0-0.4,0-0.5-0.1c-0.1,0-0.2,0-0.2,0c-0.1,0-0.1,0-0.2,0c-0.1,0-0.2,0-0.3,0c-0.2,0-0.3,0-0.3,0s0.1,0,0.3,0
								c0.1,0,0.2,0,0.3,0c0.1,0,0.1,0,0.2,0c0.1,0,0.2,0,0.2,0c0.2,0,0.3,0,0.5,0c0.2,0,0.4,0,0.6,0.1c0.1,0,0.2,0,0.3,0.1
								c0.1,0,0.1,0,0.2,0c0.1,0,0.1,0,0.2,0c0.1,0,0.2,0.1,0.3,0.1c0.1,0,0.2,0.1,0.3,0.1c0.2,0.1,0.4,0.2,0.6,0.3
								c0.2,0.1,0.4,0.2,0.5,0.3c0.3,0.2,0.6,0.5,0.8,0.8c0.2,0.3,0.4,0.5,0.5,0.7c0,0.1,0.1,0.2,0.1,0.2c0,0,0,0.1,0,0.1L33.5,30.2
								z"/>
						</g>
					</g>
				</g>
				<g>
					<g>
						<g>
							<path class="st1" d="M29.3,27.3c0,0,0-0.1,0.1-0.1c0.1-0.1,0.2-0.2,0.3-0.2c0.1,0,0.1-0.1,0.2-0.1c0.1,0,0.1,0,0.2-0.1
								c0.1,0,0.1,0,0.1,0c0,0,0.1,0,0.1,0s0,0,0,0c0,0-0.1,0-0.1,0.1c-0.1,0.1-0.2,0.1-0.3,0.2c-0.1,0-0.1,0.1-0.2,0.1
								c-0.1,0-0.1,0.1-0.2,0.1C29.4,27.2,29.3,27.3,29.3,27.3z"/>
						</g>
					</g>
					<g>
						<g>
							<path class="st1" d="M29.7,27.3C29.7,27.3,29.8,27.4,29.7,27.3c0.1,0.1,0.1,0.2,0.1,0.3c0,0.1,0,0.2,0.1,0.2
								c0,0.1,0,0.1,0,0.1s0,0-0.1-0.1c0-0.1-0.1-0.1-0.1-0.2c0-0.1,0-0.2,0-0.2C29.7,27.4,29.7,27.3,29.7,27.3z"/>
						</g>
					</g>
					<g>
						<path class="st1" d="M28.6,27.2c0,0,0,0,0.1,0.1c0,0.1,0.1,0.2,0.1,0.2c0,0.1,0,0.2,0.1,0.2c0,0.1,0,0.1,0,0.1s0,0-0.1-0.1
							c0-0.1-0.1-0.1-0.1-0.2c0-0.1,0-0.2,0-0.3C28.6,27.3,28.6,27.2,28.6,27.2z"/>
					</g>
				</g>
			</g>
			<g>
				<g>
					<path class="st2" d="M33.3,28.3v-2.7c-0.8-0.2-1.4-0.6-1.8-1.1c-0.4-0.5-0.6-1.1-0.6-1.7c0-0.7,0.2-1.3,0.7-1.7
						c0.4-0.5,1-0.7,1.7-0.8v-0.6h0.9v0.6c0.7,0.1,1.2,0.3,1.6,0.7c0.4,0.4,0.7,0.9,0.8,1.5l-1.6,0.2c-0.1-0.5-0.4-0.8-0.8-1v2.5
						c1,0.3,1.7,0.6,2.1,1.1c0.4,0.4,0.6,1,0.6,1.7c0,0.8-0.2,1.4-0.7,1.9c-0.5,0.5-1.1,0.8-1.9,1v1.2h-0.9v-1.2
						c-0.7-0.1-1.3-0.4-1.8-0.8c-0.5-0.5-0.7-1.1-0.9-1.9l1.7-0.2c0.1,0.3,0.2,0.6,0.4,0.9C32.8,28,33,28.2,33.3,28.3z M33.3,21.6
						c-0.2,0.1-0.4,0.2-0.6,0.4c-0.1,0.2-0.2,0.4-0.2,0.7c0,0.2,0.1,0.4,0.2,0.6c0.1,0.2,0.3,0.3,0.6,0.5V21.6z M34.2,28.4
						c0.3-0.1,0.6-0.2,0.8-0.4s0.3-0.5,0.3-0.8c0-0.3-0.1-0.5-0.3-0.7c-0.2-0.2-0.4-0.4-0.8-0.5V28.4z"/>
				</g>
			</g>
		</g>
		<g>
			<circle class="st0" cx="38.8" cy="46.8" r="0.2"/>
			<circle class="st0" cx="37.9" cy="46.3" r="0"/>
			<circle class="st0" cx="38.3" cy="46.5" r="0.1"/>
			<circle class="st0" cx="38.7" cy="46.4" r="0.1"/>
			<circle class="st0" cx="39.5" cy="47" r="0.1"/>
			<circle class="st0" cx="39.8" cy="47.3" r="0.1"/>
			<circle class="st0" cx="37.6" cy="46.4" r="0.1"/>
			<circle class="st0" cx="37.9" cy="46.7" r="0.1"/>
			<circle class="st0" cx="36.6" cy="46" r="0.1"/>
			<circle class="st0" cx="37.3" cy="46.7" r="0.3"/>
			<circle class="st0" cx="36" cy="46" r="0.1"/>
			<circle class="st0" cx="36.2" cy="46.3" r="0"/>
			<circle class="st0" cx="36.3" cy="46.5" r="0"/>
			<circle class="st0" cx="35.2" cy="46" r="0.1"/>
			<circle class="st0" cx="35.6" cy="46.3" r="0"/>
			<circle class="st0" cx="35.7" cy="46.2" r="0.1"/>
			<circle class="st0" cx="36.1" cy="46.5" r="0.1"/>
			<circle class="st0" cx="36.3" cy="46.8" r="0.1"/>
			<circle class="st0" cx="34.8" cy="45.6" r="0.1"/>
			<circle class="st0" cx="35" cy="45.9" r="0.1"/>
			<circle class="st0" cx="35.1" cy="46.2" r="0"/>
			<circle class="st0" cx="35.3" cy="45.4" r="0.1"/>
			<circle class="st0" cx="35.7" cy="45.8" r="0.1"/>
			<circle class="st0" cx="35.9" cy="46" r="0"/>
			<circle class="st0" cx="36.3" cy="45.7" r="0"/>
			<circle class="st0" cx="36.3" cy="46" r="0.1"/>
			<circle class="st0" cx="37.1" cy="45.9" r="0.1"/>
			<circle class="st0" cx="37.2" cy="46.3" r="0.1"/>
			<circle class="st0" cx="37.5" cy="45.9" r="0.1"/>
			<circle class="st0" cx="38" cy="46" r="0.1"/>
			<circle class="st0" cx="38.5" cy="46" r="0.1"/>
		</g>
		<g>
			<circle class="st0" cx="27.3" cy="46.8" r="0.2"/>
			<circle class="st0" cx="28.3" cy="46.3" r="0"/>
			<circle class="st0" cx="27.9" cy="46.5" r="0.1"/>
			<circle class="st0" cx="27.5" cy="46.4" r="0.1"/>
			<circle class="st0" cx="26.7" cy="47" r="0.1"/>
			<circle class="st0" cx="26.4" cy="47.3" r="0.1"/>
			<circle class="st0" cx="28.6" cy="46.4" r="0.1"/>
			<circle class="st0" cx="28.3" cy="46.7" r="0.1"/>
			<circle class="st0" cx="29.5" cy="46" r="0.1"/>
			<circle class="st0" cx="28.9" cy="46.7" r="0.3"/>
			<circle class="st0" cx="30.2" cy="46" r="0.1"/>
			<circle class="st0" cx="30" cy="46.3" r="0"/>
			<circle class="st0" cx="29.8" cy="46.5" r="0"/>
			<circle class="st0" cx="30.9" cy="46" r="0.1"/>
			<circle class="st0" cx="30.5" cy="46.3" r="0"/>
			<circle class="st0" cx="30.5" cy="46.2" r="0.1"/>
			<circle class="st0" cx="30.1" cy="46.5" r="0.1"/>
			<circle class="st0" cx="29.9" cy="46.8" r="0.1"/>
			<circle class="st0" cx="31.4" cy="45.6" r="0.1"/>
			<circle class="st0" cx="31.2" cy="45.9" r="0.1"/>
			<circle class="st0" cx="31" cy="46.2" r="0"/>
			<circle class="st0" cx="30.8" cy="45.4" r="0.1"/>
			<circle class="st0" cx="30.5" cy="45.8" r="0.1"/>
			<circle class="st0" cx="30.2" cy="46" r="0"/>
			<circle class="st0" cx="29.8" cy="45.7" r="0"/>
			<circle class="st0" cx="29.8" cy="46" r="0.1"/>
			<circle class="st0" cx="29.1" cy="45.9" r="0.1"/>
			<circle class="st0" cx="29" cy="46.3" r="0.1"/>
			<circle class="st0" cx="28.7" cy="45.9" r="0.1"/>
			<circle class="st0" cx="28.2" cy="46" r="0.1"/>
			<circle class="st0" cx="27.7" cy="46" r="0.1"/>
		</g>
	</g>
	<g>
		<g>
			<g>
				<path class="st2" d="M23.4,5.9c0,0,0.5,0.2,0.6-0.2l-0.3-0.1c0,0-0.1-0.1-0.2-0.2c-0.1-0.1-0.8-0.4-0.8-0.4S21.9,5,21.6,5
					S20,6.5,20,6.5l0.7,0.9c0,0,0.6-0.5,0.8-0.6c0.1-0.1,0.8,0,1.1,0c0.3,0,0.3,0,0.3,0L23.4,5.9z"/>
			</g>
			<g>
				<g>
					<g>
						<path class="st2" d="M13.7,46l-0.5-0.8c0,0-0.5-1.1-0.9-1.6C12,43,11.6,42,11.6,41.4c0-0.6,0-7.2,0-7.2l-2.3-0.3l1,9.3
							l1.1,2.4L13.7,46z"/>
					</g>
					<g>
						<path class="st4" d="M13.2,45.2c0,0,0.1,0.2-0.2,0.3c-0.4,0.1-0.9-0.1-1.1-0.3c-0.2-0.2-1.6-2.1-1.6-2.1l0.3,2.1
							c0,0,1.5,1.8,2.8,2c1.3,0.1,1.5-0.8,1.5-0.8S15,45.6,13.2,45.2z"/>
					</g>
				</g>
				<g>
					<path class="st0" d="M7.5,43.2l0.2-0.7c0,0,0.3-1.3,0.1-1.9c-0.2-0.6-1.4-5.7-1.4-6.9c0-1.2,3.6-0.4,3.6-0.4s0.2,3.1,0.1,4.2
						c-0.1,1.1,0,4.6,0.3,5.5s1.2,2.7,1.5,3c0.3,0.3,0.3,0.3,0.3,0.3s0.2,0.7-0.6,0.7s-1.7-0.3-1.9-0.7c-0.3-0.4-2.3-3.2-2.3-3.2"/>
				</g>
				<g>
					<path class="st1" d="M10.8,17c0,0-0.8,1.5-0.8,1.9s0.9,2.1,1.2,3.9c0.3,1.8,1.1,11,0.9,12.5c0,0-1,0.5-2.5,0.1
						c-1.5-0.4-3.2-0.1-3.2-0.1s-0.5-5.5-0.7-7.5c-0.2-2-1-3.9-1.5-4.7c0,0-3.2-5.1,0.7-8.8c0,0,2-0.1,2.9,0
						C8.8,14.4,10.8,17,10.8,17z"/>
				</g>
				<g>
					<path class="st3" d="M16.7,7.3c0,0,1-0.3,1.8-0.5c0.8-0.1,2-0.6,2-0.6s0.4,1.1,0.7,1.3c0,0-0.7,0.4-1.1,0.6
						c-0.3,0.2-0.7,0.4-1,0.6c-0.2,0.2-0.3,0.2-0.5,0.3S18,9.5,17.7,9.7c-0.3,0.2-1.1,0.9-1.1,0.9s0.2,1.5-0.6,2.4
						c-0.8,0.9-5.3,4-5.3,4s-2.1-1-3.5-1.8s-2.3-0.9-2.3-0.9s1.2-1.2,1.9-1.7c0.6-0.5,3.6-5.2,3.6-5.2S11.8,5,14,5l1,2.7L16.7,7.3z"
						/>
				</g>
				<g>
					<path class="st6" d="M12.7,27.2l-1,7.5c-0.1,0.5-0.6,0.9-1.1,0.9l-9.7-1.3c-0.5-0.1-0.9-0.6-0.8-1.1l1-7.5
						c0.1-0.5,0.6-0.9,1.1-0.8l9.7,1.3C12.4,26.1,12.8,26.6,12.7,27.2z"/>
				</g>
				<g>
					<path class="st7" d="M12.9,27l-0.5,3.6L0.4,29l0.5-3.6c0.1-0.5,0.5-0.8,0.9-0.8c0,0,0.1,0,0.1,0l10.2,1.3
						C12.6,26,13,26.4,12.9,27z"/>
				</g>
				<g>
					<path class="st16" d="M7.2,29.6l-0.1,0.9l-2-0.3l0.1-0.9c0-0.1,0.1-0.1,0.2-0.1c0,0,0,0,0,0L7,29.4C7.1,29.4,7.2,29.5,7.2,29.6
						z"/>
				</g>
				<g>
					<g>
						<path class="st7" d="M9,27C9,27,8.9,27,9,27L5,26.5c-0.4-0.1-0.7-0.4-0.6-0.8l0.2-1.6c0-0.4,0.4-0.7,0.8-0.6L9.3,24
							c0.4,0.1,0.7,0.4,0.6,0.8l0,0l-0.2,1.6C9.6,26.7,9.3,27,9,27z M5.4,24.2C5.4,24.2,5.4,24.2,5.4,24.2l-0.2,1.6c0,0,0,0,0,0
							L9,26.3c0,0,0,0,0,0l0.2-1.6c0,0,0,0,0,0L5.4,24.2L5.4,24.2z"/>
					</g>
				</g>
				<g>
					<path class="st0" d="M8.5,23.9l-0.5-0.1c0,0-0.5,0.8-0.4,1.3c0,0.1-0.7,0-0.7-0.1c0,0.1-0.6-0.1-0.5-0.2c0,0.1-0.4,0-0.4-0.1
						c0,0.1-0.5,0-0.4-0.2c0,0-0.2-0.7,0-1.2c0.2-0.5,0.5-1,0.5-1L8,21.6l0.2,1c0,0,0,0.2,0.2,0.4C8.5,23.2,8.5,23.9,8.5,23.9z"/>
				</g>
				<g>
					<path class="st13" d="M9.1,8.3c0.3-0.6,0.7-1.1,1.2-1.6c0.5-0.4,1-0.7,1.7-0.6c1.5,0.1,1.5,2.3,1,3.8c-0.5,1.5-1.2,1.7-1.9,2.6
						c-0.7,0.9-2,2.2-2,2.7c0,0.5,0.2,0.8-0.2,1.3s-0.4,0.4-0.4,0.9s-0.1,5.4-0.1,5.4s-1.4,0.4-2.5-0.1c0,0,0.2-0.7,0.2-1.2
						s-0.3-2.4-0.2-2.8c0.1-0.5,0.2-0.8,0.2-1.5c0-0.8,0.1-1.4,0.3-1.9c0.1-0.5,0.7-1.8,1-2.7C7.6,11.9,8.6,9.4,9.1,8.3z"/>
				</g>
				<g>
					<g>
						<g>
							<path class="st1" d="M17.8,2c-0.3,0.7-0.9,1.2-1.4,1c-0.5-0.2-0.6-0.9-0.3-1.6c0.3-0.7,0.9-1.2,1.4-1C18,0.5,18.1,1.2,17.8,2
								z"/>
						</g>
						<g>
							<path class="st1" d="M16.7,1.6c-0.2,0.4-0.5,0.7-0.8,0.6c-0.3-0.1-0.3-0.5-0.1-0.9s0.5-0.7,0.8-0.6S16.9,1.2,16.7,1.6z"/>
						</g>
					</g>
					<g>
						<path class="st0" d="M14,5c0,0,1.7-0.3,2.3-1.1s1.2-2.3,2.4-2.5s2.9,0,3.3,0.5c0.4,0.5,0.5,0.8,0.5,1.1s-0.5,1.6-0.5,1.6
							s-0.3,0.2-0.4,0.3c0,0,0.1,1,0,1.2s-0.2,0.3-0.6,0.2c0,0,0,0.2,0,0.4c0,0.2-0.1,0.2-0.2,0.2c0,0,0,0.3-0.2,0.3
							c-0.2,0-0.3,0.3-0.4,0.5c-0.1,0.2-1.1-0.1-1.7-0.5c-0.6-0.4-2,0.7-2,0.7s0.5,1.1,0,2c-0.5,0.9-0.7,0.9-0.7,0.9L14,5z"/>
					</g>
					<g>
						<path class="st1" d="M16.2,4c0,0,0.3,0.3,0.7-0.2s0.8-1.1,1.2-1c0.4,0.1,0.7,0.4,0.6,1L19,3.9c0,0,0.5-0.5,1-0.7
							c0.5-0.2,0.8-0.3,1-0.5c0.2-0.3,0.6-0.7,0.8-0.6c0.2,0.1,0.7,0.6,0.7,1c0,0,0.4-0.5-0.1-1.4S20.8,0.2,19.6,0
							c-1.3-0.2-2,0.8-2.5,1.3C16.5,1.9,16,3.4,16.2,4z"/>
					</g>
					<g>
						<ellipse class="st0" cx="18.2" cy="3.5" rx="0.6" ry="0.9"/>
					</g>
					<path class="st2" d="M18.1,4.9c0,0-0.1,1,0,2c0.2,0,0.3,0,0.4,0.1c0.3,0.2,0.7,0.4,1.1,0.5C19.1,7.1,18.4,6.3,18.1,4.9z"/>
				</g>
				<g>
					<path class="st13" d="M15.3,4.6c0,0,0,1.2,0,2s0.5,2,0.5,2l-1.6,0.1L14,5c0,0,0.5-0.1,0.7-0.3S15.2,4.5,15.3,4.6z"/>
				</g>
				<g>
					<path class="st13" d="M17.2,7.3c0,0,0.3,1.3,0.3,1.5l-0.8,0.6c0,0,0-1.4-0.1-1.7C16.8,7.5,17,7.4,17.2,7.3z"/>
				</g>
				<g>
					<path class="st13" d="M15.1,8.2l0.7,0.5c0,0,0.2,1.5,0.1,1.9l-0.9-2L15.1,8.2z"/>
				</g>
				<g>
					<path class="st13" d="M17.2,9c0,0-0.7,1.5-1.3,1.6l0.8-1.1L17.2,9z"/>
				</g>
				<g>
					<path class="st1" d="M7.7,42.5c0,0,0.6,0.7,0.9,1.4c0.3,0.7,0.9,1.7,1.6,2.1s1.8,0.2,1.8-0.1c0,0,1.1,0.2,1.4,0.6
						c0.3,0.4,0.1,0.8-0.3,1.1c-0.4,0.3-2.3,0.5-2.6,0.2c-0.3-0.2-0.4-1.2-1.2-2S7.9,45,7.9,45v2.3H7.6c0,0-0.1-2.1-0.7-3.1
						C6.3,43.3,7.4,42.4,7.7,42.5z"/>
				</g>
			</g>
			<g>
				<g>
					<g>
						<path class="st3" d="M32.4,8.9l-5.4,2l-0.2,0.4c-0.2,0.3-0.6,0.5-0.9,0.3l-3.2-1.8c-0.3-0.2-0.5-0.6-0.3-1l2.4-4.4l4.5,2.5
							l-0.8,1.5l3.8-0.1L32.4,8.9z"/>
					</g>
					<g>
						<g>
							<path class="st3" d="M22.6,8.4C21.9,8,21.6,6.9,22,5.9c0.2-0.6,0.7-1,1.1-1.2c0.3-0.1,0.7-0.1,0.9,0.1
								c0.7,0.4,0.9,1.5,0.5,2.5l0,0c-0.2,0.6-0.7,1-1.1,1.2C23.2,8.6,22.9,8.6,22.6,8.4z M23.9,5.3c-0.1-0.1-0.3-0.1-0.5,0
								c-0.3,0.1-0.6,0.4-0.8,0.9c-0.3,0.7-0.2,1.6,0.3,1.8C23,8,23.1,8,23.3,8c0.3-0.1,0.6-0.4,0.8-0.9l0,0
								C24.4,6.3,24.3,5.5,23.9,5.3z"/>
						</g>
					</g>
				</g>
				<g>
					<path class="st3" d="M29.1,6.3c0.3-0.7-0.2-1.7-1.3-2.3c-1-0.6-2.2-0.5-2.6,0.1L29.1,6.3z"/>
				</g>
				<g>
					<g>
						<path class="st13" d="M29.1,6.9l-4.5-2.5c-0.2-0.1-0.2-0.3-0.1-0.4c0.1-0.2,0.3-0.2,0.4-0.1l4.5,2.5c0.2,0.1,0.2,0.3,0.1,0.4
							C29.5,7,29.3,7,29.1,6.9z"/>
					</g>
				</g>
			</g>
			<g>
				<path class="st0" d="M22.6,7L22,6.6c-0.1-0.1,0-0.4,0.2-0.2C22,6.1,22.3,5.8,22.5,6c-0.2-0.2,0.1-0.4,0.3-0.2
					c-0.1-0.1,0.1-0.3,0.2-0.2l0.7,0.5c0.1,0.1-0.1,0.3-0.2,0.2c0.1,0.1-0.2,0.3-0.3,0.3c0.1,0.1-0.2,0.4-0.3,0.3
					c0.1,0.1-0.1,0.3-0.2,0.2L22.6,7z"/>
			</g>
		</g>
		<g>
			<g>
				<g>
					<path class="st15" d="M33.2,10.5c-0.1-0.2-0.8-0.4-0.8-0.4c0,0,0.3,0.6,0.4,0.7c0.1,0.1,0.3,0.1,0.4,0.1
						C33.3,10.8,33.3,10.6,33.2,10.5z"/>
				</g>
				<g>
					<path class="st15" d="M33.9,11.8c0-0.2-0.5-0.6-0.5-0.6c0,0,0,0.6,0.1,0.8c0,0.1,0.2,0.2,0.3,0.2C33.9,12.2,34,12,33.9,11.8z"
						/>
				</g>
				<g>
					<path class="st15" d="M34.1,13.4c0-0.2-0.2-0.8-0.3-0.8c0,0-0.2,0.6-0.3,0.7c0,0.2,0.1,0.3,0.2,0.3
						C33.9,13.7,34.1,13.6,34.1,13.4z"/>
				</g>
			</g>
			<g>
				<g>
					<path class="st15" d="M34.1,9.4c-0.2-0.2-1.1-0.6-1.1-0.5c0,0,0.4,0.9,0.6,1.1c0.1,0.2,0.4,0.2,0.6,0.1
						C34.2,9.9,34.3,9.6,34.1,9.4z"/>
				</g>
				<g>
					<path class="st15" d="M35.2,11.5c-0.1-0.3-0.8-1-0.8-0.9c0,0,0,1,0.1,1.2c0.1,0.2,0.3,0.4,0.5,0.3C35.1,12,35.3,11.7,35.2,11.5
						z"/>
				</g>
				<g>
					<path class="st15" d="M35.4,13.8c0.1-0.3-0.4-1.2-0.4-1.2c0,0-0.3,0.9-0.4,1.1c0,0.2,0.1,0.5,0.3,0.5
						C35.2,14.2,35.4,14.1,35.4,13.8z"/>
				</g>
			</g>
			<g>
				<g>
					<path class="st15" d="M35.1,9.8c-0.1-0.2-0.7-0.4-0.7-0.4c0,0,0.3,0.6,0.4,0.7c0.1,0.1,0.3,0.1,0.4,0.1
						C35.2,10.1,35.2,9.9,35.1,9.8z"/>
				</g>
				<g>
					<path class="st15" d="M35.8,11.1c0-0.2-0.5-0.6-0.5-0.6c0,0,0,0.6,0.1,0.8c0,0.1,0.2,0.2,0.3,0.2
						C35.8,11.4,35.8,11.3,35.8,11.1z"/>
				</g>
				<g>
					<path class="st15" d="M35.9,12.6c0-0.2-0.2-0.8-0.2-0.8c0,0-0.2,0.6-0.3,0.7c0,0.1,0.1,0.3,0.2,0.3
						C35.8,12.9,35.9,12.8,35.9,12.6z"/>
				</g>
			</g>
		</g>
	</g>
</g>
</svg>
