<?xml version="1.0" encoding="utf-8"?>
<!-- Generator: Adobe Illustrator 18.0.0, SVG Export Plug-In . SVG Version: 6.00 Build 0)  -->
<!DOCTYPE svg PUBLIC "-//W3C//DTD SVG 1.1//EN" "http://www.w3.org/Graphics/SVG/1.1/DTD/svg11.dtd">
<svg version="1.1" id="Layer_1" xmlns="http://www.w3.org/2000/svg" xmlns:xlink="http://www.w3.org/1999/xlink" x="0px" y="0px"
	 viewBox="0 0 48 48" enable-background="new 0 0 48 48" xml:space="preserve">
<g>
	<g>
		<g>
			<g>
				<g>
					<path fill="#415A6B" d="M0,23.7L0,23.7c0,1.1,0.9,1.9,1.9,1.9h44.1c1.1,0,1.9-0.9,1.9-1.9v0c0-1.1-0.9-1.9-1.9-1.9H1.9
						C0.9,21.7,0,22.6,0,23.7z"/>
				</g>
				<rect x="2.6" y="25.6" fill="#344A5E" width="3" height="22.4"/>
				<rect x="28.8" y="25.6" fill="#344A5E" width="16.8" height="22.4"/>
				<rect x="30.4" y="27.3" fill="#415A6B" width="13.5" height="5.9"/>
				<rect x="30.4" y="34.9" fill="#415A6B" width="13.5" height="11.5"/>
				<g>
					<path fill="#E8EAE9" d="M38.5,30.9h-2.6c-0.4,0-0.6-0.3-0.6-0.6l0,0c0-0.4,0.3-0.6,0.6-0.6h2.6c0.4,0,0.6,0.3,0.6,0.6l0,0
						C39.1,30.6,38.8,30.9,38.5,30.9z"/>
				</g>
				<g>
					<path fill="#E8EAE9" d="M32.7,41.1l0-2.6c0-0.4,0.3-0.6,0.6-0.6l0,0c0.4,0,0.6,0.3,0.6,0.6l0,2.6c0,0.4-0.3,0.6-0.6,0.6h0
						C33,41.8,32.7,41.5,32.7,41.1z"/>
				</g>
			</g>
			<g>
				<g>
					<g>
						<rect x="33.9" y="0" fill="#E8EAE9" width="2.7" height="6.3"/>
					</g>
				</g>
				<g>
					<g>
						<g>
							<path fill="#FFD15C" d="M31.4,14.8c0.2,2,1.8,3.5,3.9,3.5c2,0,3.7-1.5,3.9-3.5H31.4z"/>
						</g>
					</g>
					<g>
						<g>
							<g>
								<path fill="#E8EAE9" d="M43,13.2c-0.1-4.4-3.5-8-7.8-8c-4.2,0-7.7,3.6-7.8,8H43z"/>
							</g>
						</g>
						<g>
							<g>
								<path fill="#CED6E0" d="M43,15H27.4c-0.6,0-1-0.5-1-1s0.5-1,1-1H43c0.6,0,1,0.5,1,1S43.5,15,43,15z"/>
							</g>
						</g>
					</g>
				</g>
			</g>
		</g>
		<g>
			<g>
				<g>
					<circle fill="#F3705A" cx="8.9" cy="8.9" r="8.9"/>
				</g>
			</g>
			<g>
				<g>
					<circle fill="#F3F3F3" cx="8.9" cy="8.9" r="7.1"/>
				</g>
			</g>
			<g>
				<g>
					<path fill="#8AD7F8" d="M11.8,9.4H8.4V3.9c0-0.3,0.2-0.5,0.5-0.5s0.5,0.2,0.5,0.5v4.5h2.4c0.3,0,0.5,0.2,0.5,0.5
						S12.1,9.4,11.8,9.4z"/>
				</g>
			</g>
			<g>
				<g>
					<circle fill="#415A6B" cx="8.9" cy="8.9" r="1.5"/>
				</g>
				<g>
					<circle fill="#344A5E" cx="8.9" cy="8.9" r="0.7"/>
				</g>
			</g>
		</g>
	</g>
</g>
</svg>
