<?xml version="1.0" encoding="utf-8"?>
<!-- Generator: Adobe Illustrator 19.0.1, SVG Export Plug-In . SVG Version: 6.00 Build 0)  -->
<svg version="1.1" id="Layer_1" xmlns="http://www.w3.org/2000/svg" xmlns:xlink="http://www.w3.org/1999/xlink" x="0px" y="0px"
	 viewBox="0 0 48 48" style="enable-background:new 0 0 48 48;" xml:space="preserve">
<style type="text/css">
	.st0{fill:#FFD15C;}
	.st1{fill:#415A6B;}
	.st2{fill:#F7B64C;}
	.st3{fill:#CED6E0;}
	.st4{fill:#344A5E;}
	.st5{fill:#F3F3F3;}
	.st6{fill:#F05540;}
	.st7{fill:#F3705A;}
	.st8{fill:#66C6B9;}
	.st9{fill:#55C0EB;}
	.st10{fill:#F5F6FB;}
	.st11{fill:#4ABAA5;}
	.st12{fill:#ADB3BA;}
	.st13{fill:#E8EAE9;}
	.st14{fill:#2E4556;}
	.st15{fill:#8AD7F8;}
	.st16{fill:#FFFFFF;}
	.st17{fill:#E54838;}
	.st18{fill:#3EAF99;}
	.st19{fill:#EFA943;}
	.st20{fill:#4CAEE5;}
	.st21{fill:#293F4F;}
	.st22{fill:#2D4456;}
	.st23{fill:#2E4454;}
	.st24{fill:#2A3F4F;}
	.st25{fill:#2D4151;}
	.st26{fill:#E89E3D;}
	.st27{fill:#2B4151;}
	.st28{fill:#2A4051;}
	.st29{fill:#2C4151;}
	.st30{fill:#EBEAE8;}
	.st31{fill:#3AA590;}
	.st32{fill:#E84534;}
	.st33{fill:none;}
</style>
<g>
	<g>
		<polygon class="st12" points="10.6,26.8 8.4,24.7 6.6,21 8.7,20.9 8.8,21 		"/>
	</g>
	<g>
		<path class="st1" d="M8.2,19.7c0,0,0.4,3.1,0.7,3.9s1.4,2.4,1.7,3.3c0.3,0.9,0.4,2.2,0.4,2.2s0.1-2.7-0.3-4.1
			c-0.5-1.5-1.3-2.5-1.5-3.4C8.9,20.7,8.8,19.8,8.2,19.7z"/>
	</g>
	<g>
		<path class="st0" d="M39.2,12.7c0,0-1.2,1.4-1.5,2.6c0,0-0.1,0.3,0,0.5c0.1,0.2,0.1,0.3-0.1,0.6c-0.2,0.3-0.6,0.7-0.4,1
			c0.2,0.3,0.6,0.4,0.6,0.4s-0.4,0.7,0,0.9c0,0-0.3,0.2,0,0.6c0.3,0.3-0.3,1.1,0.9,1.5c1.3,0.3,1.6,0.7,1.8,1
			c0.1,0.3,0.1,0.3,0.1,0.3l4.3-1.4c0,0-0.3-0.6-0.3-1.5c0-0.9,0-0.9,0-0.9S42.4,13,39.2,12.7z"/>
	</g>
	<g>
		<path class="st3" d="M38.6,26.1c0,0-0.2-0.5,0.1-1.3c0.3-0.8,0.5-0.5,0.7-1.5c0.1-1.1,0-1.5,0-1.5l2.3-0.8l4.7,2.9
			c0,0,0.2,4.1-0.3,6c-0.5,1.8-2,3.7-2,3.7L38.6,26.1z"/>
	</g>
	<g>
		<path class="st5" d="M39.4,21.8c0,0,0.2-0.1,0.2,0.3c0.1,0.4,0.5,1.6,0.5,1.8s-0.1,0.2-0.1,0.2s2.1-1.3,3.1-1.6
			c1-0.4,2.3-1.3,2.3-1.3s0-0.6-0.1-0.9c0-0.1-0.2-0.2-0.3-0.2C43.1,20.5,41.2,21,39.4,21.8z"/>
	</g>
	<g>
		<path class="st7" d="M36.7,26.8l0.5,10.7c0,0-28.5,0.5-28.5,0s5.5-12.1,5.5-12.1L36.7,26.8z"/>
	</g>
	<g>
		<g>
			<path class="st3" d="M23.3,26.7l-0.5,0.3l-0.4,1c0,0.1-0.1,0.2-0.1,0.2c0,0.1,0,0.2,0.1,0.2l4.4,0.1c0.2,0,0.3-0.1,0.3-0.3
				L27,27.1L23.3,26.7z"/>
		</g>
		<g>
			<rect x="22.8" y="25.7" class="st12" width="4.3" height="1.4"/>
		</g>
		<g>
			<path class="st12" d="M33.1,26.6l-17.4-0.3c-0.3,0-0.5-0.2-0.5-0.5l0-12c0-0.3,0.2-0.5,0.5-0.5l17.9,0.3c0.3,0,0.5,0.2,0.5,0.5
				l-0.4,11.9C33.6,26.4,33.4,26.6,33.1,26.6z"/>
		</g>
		<g>
			<path class="st12" d="M34,14.2l-0.4,10.7l-18.5-0.6l0-10.5c0-0.3,0.2-0.5,0.5-0.5l17.9,0.3C33.8,13.7,34.1,13.9,34,14.2z"/>
			<path class="st1" d="M33.6,13.7l-17.9-0.3c-0.3,0-0.5,0.2-0.5,0.5l0,10.5l18.5,0.6L34,14.2C34.1,13.9,33.8,13.7,33.6,13.7z"/>
			<polygon class="st16" points="16,14.2 16.1,23.5 32.9,24.1 33.2,14.5 			"/>
		</g>
		<g>
			<path class="st3" d="M33.7,24.9l0,1.2c0,0.3-0.2,0.5-0.5,0.5l-17.4-0.3c-0.3,0-0.5-0.2-0.5-0.5l0-1.5L33.7,24.9z"/>
		</g>
		<g>
			<g>
				<g>
					<path class="st0" d="M17.9,25.1c0,0,0.7-0.2,1-0.5s0.2-0.4,0.3-0.5c0.1-0.1,0.5-0.2,0.5-0.2s1,0,0.6-0.7l-0.4,0.1
						c0,0-0.1,0-0.3,0s-0.4,0-0.8-0.1c-0.3,0-0.6-0.1-0.8,0.1c-0.2,0.1-0.5,0.5-0.6,0.6c-0.2,0.1-1.9,0.7-1.9,0.7l0.8,1.5
						c0,0,1.2,0,1.9-0.3c0.7-0.2,1.3-0.7,1.5-1.1s0.2-0.8,0.2-0.8s-0.8,1.1-1.3,1.3C18.1,25.5,17.9,25.1,17.9,25.1z"/>
				</g>
				<g>
					<path class="st16" d="M15.2,24.8l0.8-0.3c0,0,0.2,1.5,0.8,2.1l-2.1,0.9L15.2,24.8z"/>
				</g>
				<g>
					<path class="st0" d="M17.5,25.8l1.2-0.3l1.2-0.9l0.2-0.4l0-0.5l-1.5,0.3C18.7,23.9,16.9,25.3,17.5,25.8z"/>
				</g>
				<g>
					<g>
						<path class="st1" d="M18.5,25.4l0.2,0.2c0.1,0,0.4-0.3,1-1c0.1-0.1,0.2-0.2,0.3-0.3c0.3-0.4,0.6-0.8,1-1.2l0.2-0.2
							c0.2-0.3,0.4-0.6,0.6-1l0,0l0,0c-0.3,0.2-0.6,0.4-0.9,0.7l-0.2,0.2c-0.3,0.4-0.7,0.8-1,1.2c-0.1,0.1-0.2,0.2-0.3,0.3
							C18.7,24.9,18.6,25.2,18.5,25.4z"/>
					</g>
					<g>
						<path class="st11" d="M21.1,22.8c0.1-0.1,0.1-0.2,0.2-0.2L21,22.3c-0.1,0.1-0.1,0.1-0.2,0.2l-0.2,0.2c0,0.1-0.1,0.1-0.1,0.2
							l0.3,0.3c0-0.1,0.1-0.1,0.1-0.2L21.1,22.8z"/>
					</g>
					<g>
						<path class="st7" d="M18.5,25.5L18.5,25.5l0.2,0.1l-0.1,0.1c0,0-0.1,0.1-0.2,0C18.5,25.6,18.4,25.5,18.5,25.5z"/>
					</g>
					<g>
						<g>
							<path class="st11" d="M19,24.6c0,0.1,0,0.2,0.1,0.3c0.1,0.1,0.2,0.1,0.3,0c-0.1,0.1-0.2,0.2-0.2,0.3c-0.1,0-0.1,0-0.2,0.1
								c-0.1,0-0.1,0-0.2,0c0,0,0-0.1,0-0.2c0-0.1,0-0.1,0-0.2C18.8,24.9,18.9,24.8,19,24.6z"/>
						</g>
						<g>
							
								<ellipse transform="matrix(-0.7652 -0.6438 0.6438 -0.7652 18.3898 55.8564)" class="st11" cx="19.4" cy="24.6" rx="0.1" ry="0.9"/>
						</g>
					</g>
				</g>
				<g>
					<path class="st0" d="M18.5,25.2c0,0-0.3,0.2-0.1,0.5c0.2,0.3,0.8,0.2,0.9,0.1c0.1-0.1,0.2-0.3,0.2-0.3s0.4-0.1,0.4-0.3
						c0-0.2,0-0.2,0-0.2s0.3-0.1,0.4-0.3c0.1-0.2-0.1-0.4-0.1-0.4l0-0.1c0,0,0.5,0,0.5-0.3s-0.2-0.4-0.2-0.4S19.7,24,20,24.3l0,0.1
						c0,0-0.2,0.1-0.5,0.1s-0.3,0-0.4,0c-0.1,0-0.4,0.2-0.1,0.4s0.2,0.2,0.2,0.2s-0.2,0.1-0.3,0c-0.1-0.1-0.2-0.1-0.3,0
						C18.5,25,18.5,25.2,18.5,25.2z"/>
				</g>
			</g>
			<g>
				<path class="st0" d="M20.3,23.3l-0.4,0.1c0,0-0.1,0-0.3,0c-0.1,0-0.3,0-0.4,0v0.8c0.1-0.1,0.5-0.2,0.5-0.2S20.6,24,20.3,23.3z"
					/>
			</g>
		</g>
	</g>
	<g>
		<path class="st1" d="M39.5,24.5c0,0,1.8-0.7,3.2-0.6s3.1,1.7,3.3,3.8s-1.1,4.2-4.8,5.2c-3.6,1-4,1.8-4,1.8v2.8H45
			c0,0,3.1-9.7,3-12.1s-2.5-4.3-2.5-4.3s-1.7,0.6-3,1S39.8,24,39.5,24.5z"/>
	</g>
	<g>
		<g>
			<g>
				<path class="st0" d="M26.8,28.7l-0.3,0.2c0,0-0.3,0.9-0.3,1.1c0,0.2,0.3,0.2,0.4,0c0.1-0.2,0.3-0.8,0.3-0.8l0.2-0.3
					c0,0-0.2,0.5-0.2,0.8c0,0.3,0,0.5,0.2,0.6c0.2,0,0.3-0.1,0.3-0.2c0,0,0.1,0.1,0.2,0.1c0.2,0,0.2-0.1,0.2-0.2
					c0,0,0.1,0.1,0.2,0.1c0.1,0,0.2,0,0.2,0c0,0,0.2-0.4,0.2-0.4l0-0.8L28,28.4L26.8,28.7z"/>
			</g>
			<g>
				<path class="st0" d="M27.2,29.3c0,0-0.4,0.1-0.6,0.4c-0.2,0.2,0,0.5,0.3,0.5c0.3,0,0.7-0.1,0.9-0.3c0.2-0.1,0.5-0.3,0.7-0.3
					s0.4,0.2,1.1,0.2c0.7,0,1.9-0.2,2.5-0.2c0.6,0.1,0.6,0.1,0.6,0.1L32,28.2c0,0-1.2,0.1-1.5,0s-1.9-0.5-2.1-0.6
					c-0.3-0.1-0.4,0-0.5,0.1c-0.1,0.1-1,0.6-1.1,0.7s-0.2,0.5-0.2,0.5l0.4,0.2c0,0,0.1-0.1,0.2-0.2c0.1-0.1,0.4-0.3,0.4-0.3
					s0.4,0,0.6,0l0.1,0.3C28.2,28.8,27.7,29.2,27.2,29.3z"/>
			</g>
		</g>
		<g>
			<path class="st3" d="M31.5,30c0,0-0.2-1.4,0.2-1.8l2.2,0.1c0,0,0.6-0.2,1.1-0.2s0.8-0.1,1.1-0.1c0.3-0.1,1.6-0.4,1.6-0.4l1.3,2.2
				c0,0-2.4,0.5-3.4,0.5c-1,0-1.8-0.1-1.8-0.1L31.5,30z"/>
		</g>
	</g>
	<g>
		<path class="st5" d="M34.8,30.6c0,0-0.1,0.2,0.1,0c0.2-0.2,0.9-0.4,1-0.6c0.2-0.2,0.8-0.8,1-1.3c0.2-0.5,0.2-1.1,0.6-1.5
			s1.1-3.3,3.1-2.4c1.9,0.9,3,3.1,2.9,4.6c-0.1,1.6,0.1,2.3-0.6,2.9c-0.7,0.6-3.2,2-4.7,2.4s-2.4,0.6-2.8,0.8
			c-0.4,0.1-1.5,0.2-2-0.1c-0.5-0.4-0.8-1.4-0.5-2.4s0.3-1.5,0.3-1.5S33.4,31,34.8,30.6z"/>
	</g>
	<g>
		<path class="st1" d="M39,17.8l0.7,0.2c0,0-0.1-0.7,0.4-1.1c0.5-0.4,1.3,0.5,1.8,1.5c0.5,1,2.6,0.8,2.6,0.8s0-0.7,0.5-1.5
			s1.2-3.9-1.2-5.6s-5-0.2-5-0.2s-0.5,0.9,0.1,1.2c0.6,0.3,0.7,0.1,0.6,0.6c-0.1,0.4-0.5,0.6-0.6,1c0,0.1,0,0.3,0.1,0.4
			C39.1,15.4,39.3,16,39,17.8z"/>
	</g>
	<g>
		<path class="st4" d="M15.7,24.5c0,0-1.3,0.4-1.7,0.6c-0.4,0.2-0.3,0.2-0.5,0.3c-0.2,0-0.4,0-0.7,0.1s-0.4,0.2-0.6,0.2
			s-0.4,0-0.7,0.1c-0.2,0.1-0.8,0.1-0.8,0.1L9.3,26l0.9,3.3c0,0,2.5-0.7,3.2-1c0.8-0.4,2.9-0.9,2.9-0.9S15.3,25.3,15.7,24.5z"/>
	</g>
	<g>
		<path class="st0" d="M11.7,14c0,0-0.3,0.8-0.4,1c-0.2,0.2-0.1,0.4,0,0.6c0.1,0.2,0.4,0.6,0.5,0.7c0.1,0.1,0,0.4-0.2,0.4
			c-0.2,0-0.4,0-0.4,0s0.2,0.8-0.2,0.8c0,0,0.2,0.2,0,0.3c-0.2,0.2,0.2,0.9-0.9,1.1C9,19.2,8,20.9,8,20.9l-3.5-2.6l0.2-0.7
			c0,0,0.9-3.7,2.4-4.4C8.5,12.6,11.8,12.8,11.7,14z"/>
	</g>
	<g>
		<path class="st1" d="M4.7,17.6c0,0,2.1-0.2,2.2-1.7c0.2-1.6,1.8-1.2,1.9-0.5S9,16,9,16l0,0l0.5-0.1c0,0-0.5-0.6,0.1-1.1
			c0.6-0.5,0.9-0.2,1.1-0.6c0,0-0.2,0.6-0.5,0.8c0,0,0.9,0,1.2-0.3c0.3-0.3,0.6-0.9,0.7-1.5c0-0.6-0.7-1.7-2.4-2.3
			c-1.7-0.6-2.2-1-3.8-0.6s-1.9,2.7-1.9,3.4C3.9,14.6,4.4,16.7,4.7,17.6z"/>
	</g>
	<g>
		<path class="st16" d="M4.7,17.6c0,0,0.5,0.8,1.4,1.5s2.6,1.6,2.6,1.6l-1,2.8l-3.7-4.7L4.7,17.6z"/>
	</g>
	<g>
		<path class="st4" d="M11,32.4c-1.2,2.6-2.3,5-2.3,5.2c0,0,0,0,0,0H2c0,0-1-5.1-1.5-6.9c-0.4-1.7-0.6-5-0.5-5.7
			c0.2-0.7,0.4-1,0.8-2.2c0.4-1.3,0.5-0.8,1.4-2.1c0.9-1.4,1.6-1.9,1.6-1.9s5.1,5.8,6,7.2c0.9,1.3,1.1,4.3,1.1,4.3V32.4z"/>
	</g>
	<path class="st1" d="M6.6,29.1c0.1-1.7-0.5-3.5-1.3-4.4c-0.8-0.9-2.3-1-3.5,0.3c-1.2,1.3-0.7,3.4-0.7,3.4s1.1,2.9,1.3,3.9
		c0.1,1,1.4,3,2.9,3.9c0.9,0.5,2.4,0.9,3.5,1.2c0.2-0.5,0.7-1.7,1.4-3.1C8.6,32.5,6.5,30.1,6.6,29.1z"/>
	<g>
		<path class="st1" d="M4.5,18c0,0,0.4,1.2,1.5,2.3s3.8,4.9,4.4,6c0.6,1.1,0.6,3.9,0.6,3.9s-0.3-2-0.6-2.9c-0.3-0.9-2.3-3.3-3.2-4.1
			c-0.8-0.7-2.7-2.9-3.3-3.9C3.8,19,3.9,18.8,4,18.6L4.5,18z"/>
	</g>
	<g>
		<g>
			<polygon class="st8" points="22.4,21 22.4,22.9 21.9,22.9 21.9,21 			"/>
		</g>
		<g>
			<polygon class="st0" points="23.5,19 23.5,22.9 23,22.9 23,19 			"/>
		</g>
		<g>
			<polygon class="st9" points="24.5,21.8 24.5,22.9 24,22.9 24,21.8 			"/>
		</g>
		<g>
			<polygon class="st1" points="25.6,20.7 25.6,23 25.1,23 25.1,20.7 			"/>
		</g>
		<g>
			<polygon class="st7" points="26.6,20.2 26.6,23 26.1,23 26.1,20.1 			"/>
		</g>
		<g>
			<polygon class="st0" points="27.7,22.3 27.7,23 27.2,23 27.2,22.3 			"/>
		</g>
		<g>
			<polygon class="st9" points="28.7,19.5 28.7,23.1 28.2,23 28.2,19.5 			"/>
		</g>
		<g>
			<polygon class="st1" points="29.8,21.7 29.8,23.1 29.3,23.1 29.3,21.7 			"/>
		</g>
		<g>
			<polygon class="st8" points="30.8,20.8 30.8,23.1 30.3,23.1 30.3,20.7 			"/>
		</g>
		<g>
			<polygon class="st7" points="31.9,21.4 31.9,23.2 31.4,23.1 31.4,21.4 			"/>
		</g>
	</g>
	<g>
		<path class="st1" d="M19.2,15.8c-0.6,0-1.2,0.2-1.6,0.6l1.6,1.7V15.8z"/>
		<path class="st8" d="M20.8,16.5c-0.4-0.4-1-0.7-1.6-0.7v2.3L20.8,16.5z"/>
		<path class="st7" d="M19.2,18.1l0.6,2.2c1-0.3,1.7-1.2,1.7-2.2c0-0.6-0.2-1.2-0.7-1.6L19.2,18.1z"/>
		<path class="st9" d="M17.6,16.5c-0.4,0.4-0.7,1-0.7,1.7c0,1.1,0.8,2,1.8,2.3l0.5-2.3L17.6,16.5z"/>
		<path class="st0" d="M18.7,20.4c0.2,0,0.3,0,0.5,0c0.2,0,0.4,0,0.6-0.1l-0.6-2.2L18.7,20.4z"/>
	</g>
</g>
</svg>
