<?xml version="1.0" encoding="utf-8"?>
<!-- Generator: Adobe Illustrator 18.0.0, SVG Export Plug-In . SVG Version: 6.00 Build 0)  -->
<!DOCTYPE svg PUBLIC "-//W3C//DTD SVG 1.1//EN" "http://www.w3.org/Graphics/SVG/1.1/DTD/svg11.dtd">
<svg version="1.1" id="Layer_1" xmlns="http://www.w3.org/2000/svg" xmlns:xlink="http://www.w3.org/1999/xlink" x="0px" y="0px"
	 viewBox="0 0 48 48" enable-background="new 0 0 48 48" xml:space="preserve">
<g>
	<g>
		<g>
			<g>
				<g>
					<path fill="#F3F3F3" d="M42.3,18.8V2.5c0-1.4-1.1-2.5-2.5-2.5h-24l-10,10v8.9H42.3z"/>
				</g>
				<g>
					<g>
						<rect x="10.1" y="11.9" fill="#E8EAE9" width="27.8" height="2.3"/>
					</g>
					<g>
						<rect x="20.8" y="6.1" fill="#E8EAE9" width="17.1" height="2.3"/>
					</g>
				</g>
			</g>
			<g>
				<polygon fill="#8AD7F8" points="15.7,0 5.7,10 15.7,10 				"/>
			</g>
		</g>
		<g>
			<g>
				<g>
					<g>
						<path fill="#FFD15C" d="M42.8,17.7H18.5l-1.8-2.5c-0.5-0.7-1.4-1.2-2.3-1.2H5.2c-1.6,0-2.8,1.3-2.8,2.8v28.4
							c0,1.6,1.3,2.8,2.8,2.8h37.5c1.6,0,2.8-1.3,2.8-2.8V20.5C45.6,18.9,44.3,17.7,42.8,17.7z"/>
					</g>
				</g>
			</g>
		</g>
	</g>
</g>
</svg>
