<?xml version="1.0" encoding="utf-8"?>
<!-- Generator: Adobe Illustrator 18.0.0, SVG Export Plug-In . SVG Version: 6.00 Build 0)  -->
<!DOCTYPE svg PUBLIC "-//W3C//DTD SVG 1.1//EN" "http://www.w3.org/Graphics/SVG/1.1/DTD/svg11.dtd">
<svg version="1.1" id="Layer_1" xmlns="http://www.w3.org/2000/svg" xmlns:xlink="http://www.w3.org/1999/xlink" x="0px" y="0px"
	 viewBox="0 0 48 48" enable-background="new 0 0 48 48" xml:space="preserve">
<g>
	<g>
		<g>
			<g>
				<g>
					<g>
						<path fill="#344A5E" d="M37.4,46.1H38l0.1-1l0.1-1h-0.6c-0.3,0-0.5,0.5-0.6,1C37,45.6,37.2,46.1,37.4,46.1z"/>
					</g>
				</g>
			</g>
			<g>
				<g>
					<path fill="#425A6B" d="M37.6,45.1c0,0.6,0.1,1,0.4,1s0.5-0.5,0.6-1c0-0.6-0.1-1-0.4-1C37.9,44,37.7,44.5,37.6,45.1z"/>
				</g>
			</g>
			<g>
				<g>
					<path fill="#F3F3F3" d="M38.1,45.7c0.2,0,0.3-0.3,0.3-0.6l0.3-0.2c0.1-0.1,0.1-0.2,0.1-0.3l0-0.9l-0.5,0l-0.1,0.8
						c0,0,0,0-0.1,0c-0.2,0-0.3,0.3-0.3,0.6C37.8,45.4,37.9,45.7,38.1,45.7z"/>
				</g>
			</g>
			<g>
				<g>
					<path fill="#344A5E" d="M37.9,45.1c0,0.2,0,0.3,0.1,0.3c0.1,0,0.2-0.2,0.2-0.3c0-0.2,0-0.3-0.1-0.3S38,44.9,37.9,45.1z"/>
				</g>
			</g>
		</g>
	</g>
	<g>
		<g>
			<path fill="#ACB2BA" d="M37.8,45c-0.1,0-0.1,0-0.1-0.1c0-0.1,0-0.2,0-0.2l1.3-0.8l-13.1-1.5c-0.1,0-0.1-0.1-0.1-0.2l0.1-2.4
				c0,0,0,0,0-0.1l2.8-4.7l-2.9-12.6l-1-0.9c-0.1-0.1-0.1-0.2,0-0.2s0.2-0.1,0.2,0l1,0.9c0,0,0,0,0,0.1L29,35c0,0,0,0.1,0,0.1
				l-2.8,4.7L26.1,42l13.4,1.6c0.1,0,0.1,0.1,0.1,0.1c0,0.1,0,0.1-0.1,0.2L37.8,45C37.9,45,37.8,45,37.8,45z"/>
		</g>
	</g>
	<g>
		<g>
			<path fill="#ACB2BA" d="M27.8,42.6c-0.1,0-0.2-0.1-0.2-0.2v-1.6c0,0,0-0.1,0-0.1l3.2-6c0-0.1,0.1-0.1,0.2-0.1
				c0.1,0,0.1,0.1,0.1,0.2L28,40.9v1.6C28,42.5,27.9,42.6,27.8,42.6z"/>
		</g>
	</g>
	<g>
		<g>
			<path fill="#E8EAE8" d="M39.4,43.9c-0.1,0-0.1,0-0.1-0.1c0-0.1,0-0.2,0-0.2l0.4-0.3l-10.6-1.5c0,0-0.1,0-0.1-0.1L28.5,41h-0.7
				c0,0,0,0,0,0l-1.7-0.2c-0.1,0-0.2-0.1-0.1-0.2c0-0.1,0.1-0.1,0.2-0.1l1.7,0.2h0.8c0.1,0,0.1,0,0.1,0.1l0.5,0.9l10.9,1.5
				c0.1,0,0.1,0.1,0.1,0.1c0,0.1,0,0.1-0.1,0.2L39.4,43.9C39.5,43.9,39.5,43.9,39.4,43.9z"/>
		</g>
	</g>
	<g>
		<g>
			<g>
				<g>
					<g>
						<path fill="#344A5E" d="M25.6,45.3h0.6l0.1-1l0.1-1h-0.6c-0.3,0-0.5,0.5-0.6,1C25.2,44.8,25.3,45.3,25.6,45.3z"/>
					</g>
				</g>
			</g>
			<g>
				<g>
					<path fill="#425A6B" d="M25.8,44.3c0,0.6,0.1,1,0.4,1c0.3,0,0.5-0.5,0.6-1c0-0.6-0.1-1-0.4-1C26.1,43.2,25.8,43.7,25.8,44.3z"
						/>
				</g>
			</g>
			<g>
				<g>
					<path fill="#F3F3F3" d="M26.2,44.9c0.2,0,0.3-0.3,0.3-0.6l0.3-0.2c0.1-0.1,0.1-0.2,0.1-0.3l0-0.9l-0.5,0l-0.1,0.8
						c0,0,0,0-0.1,0c-0.2,0-0.3,0.3-0.3,0.6C26,44.6,26.1,44.9,26.2,44.9z"/>
				</g>
			</g>
			<g>
				<g>
					<path fill="#344A5E" d="M26.1,44.3c0,0.2,0,0.3,0.1,0.3c0.1,0,0.2-0.2,0.2-0.3c0-0.2,0-0.3-0.1-0.3
						C26.2,43.9,26.1,44.1,26.1,44.3z"/>
				</g>
			</g>
		</g>
		<g>
			<g>
				<g>
					<path fill="#F05640" d="M25.6,43c0,0.1,0.4,0.2,1,0.2c0.5,0,1-0.1,1-0.2v-0.6c0-0.1-0.4-0.2-1-0.2c-0.5,0-1,0.1-1,0.2V43z"/>
				</g>
			</g>
			<g>
				<g>
					<g>
						<ellipse fill="#F26F5A" cx="26.5" cy="42.4" rx="1" ry="0.2"/>
					</g>
				</g>
			</g>
		</g>
		<g>
			<g>
				<g>
					<path fill="#CED6E0" d="M25.9,42.4c0,0.1,0.3,0.2,0.7,0.2s0.7-0.1,0.7-0.2v-1.9c0-0.1-0.3-0.2-0.7-0.2s-0.7,0.1-0.7,0.2V42.4z"
						/>
				</g>
			</g>
			<g>
				<g>
					<g>
						<ellipse fill="#ACB2BA" cx="26.5" cy="40.5" rx="0.7" ry="0.2"/>
					</g>
				</g>
			</g>
		</g>
	</g>
	<g>
		<g>
			<polygon fill="#CED6E0" points="37.8,45 25.8,44.6 24.3,43.5 21.3,43.2 21.4,42.9 24.4,43.2 25.9,44.2 37.8,44.7 			"/>
		</g>
	</g>
	<g>
		<g>
			
				<rect x="23.7" y="38.6" transform="matrix(0.5088 0.8609 -0.8609 0.5088 47.08 -0.3673)" fill="#E8EAE8" width="0.3" height="5"/>
		</g>
	</g>
	<g>
		<g>
			<g>
				<polygon fill="#F3F3F3" points="41.4,27.4 35.1,29.8 22.4,24.3 27.6,23.4 41.4,26.6 				"/>
			</g>
		</g>
	</g>
	<g>
		<polygon fill="#425A6B" points="41.6,26.7 40.6,28.1 27.6,28.1 27.6,23.4 		"/>
	</g>
	<g>
		<g>
			<g>
				<polygon fill="#ACB2BA" points="41.3,27 27.5,23.5 26.5,22 25.6,21.5 25.8,21.2 26.7,21.8 27.7,23.2 41.6,26.7 				"/>
			</g>
		</g>
	</g>
	<g>
		<g>
			<g>
				<g>
					<g>
						<g>
							<g>
								<path fill="#F26F5A" d="M33.9,28L33,32c-0.1,0.4-1.3,0.6-2.8,0.4c-1.5-0.1-2.7-0.6-2.7-0.9l-0.2-4.1c0-0.5,1.6-0.7,3.4-0.5
									C32.5,27.1,33.9,27.6,33.9,28z"/>
							</g>
						</g>
					</g>
				</g>
			</g>
			<g>
				<g>
					<g>
						<g>
							<g>
								<path fill="#F05640" d="M34.2,27.5l-0.1,1c0,0.5-1.7,0.7-3.7,0.6c-2-0.2-3.6-0.7-3.5-1.2l0.1-1c0-0.5,1.7-0.7,3.7-0.6
									C32.7,26.4,34.3,27,34.2,27.5z"/>
							</g>
						</g>
					</g>
				</g>
			</g>
			<g>
				<g>
					<g>
						<g>
							<g>
								
									<ellipse transform="matrix(0.9957 9.221503e-002 -9.221503e-002 0.9957 2.6322 -2.7093)" fill="#F26F5A" cx="30.6" cy="27.1" rx="3.6" ry="0.9"/>
							</g>
						</g>
					</g>
				</g>
			</g>
			<g>
				<g>
					<g>
						<g>
							<g>
								
									<ellipse transform="matrix(0.9957 9.221505e-002 -9.221505e-002 0.9957 2.6322 -2.7093)" fill="#F05640" cx="30.6" cy="27.1" rx="3.1" ry="0.6"/>
							</g>
						</g>
					</g>
				</g>
			</g>
		</g>
		<g>
			<g>
				<g>
					<path fill="#48B9A5" d="M29.2,24.2c0.1,0,0.3,0.1,0.3,0.1s-0.3,0.4-0.2,0.5c0,0.1,0.2,0,0.2,0s0,0.3,0.2,0.5
						c0,0,0.3-0.3,0.2-0.6c0,0,0.1,0.3,0.1,0.4s0.1,0,0.1,0s-0.1,0.2,0,0.4c0.2,0.2,0.6,0,0.4-0.3c0,0,0.4,0.3,0.4,0.2
						c0,0,0.4,0.1,0.5,0.1c0,0,0.4,0.1,0.5,0.1c0,0,0-0.3-0.2-0.4l0.1,0c0,0-0.2-0.2-0.3-0.3c0-0.1-0.6-0.2-0.6-0.2s0.3-0.1,0.4-0.2
						c0,0-0.5-0.4-0.8-0.3l0.1-0.2c0,0-0.4-0.1-1,0.2L29.2,24.2L29.2,24.2z"/>
				</g>
			</g>
		</g>
		<g>
			<g>
				<g>
					<g>
						<g>
							<g>
								<path fill="#48B9A5" d="M27,20c0,0-0.3,0.2-0.4,0.2c-0.1,0-0.1-0.3-0.1-0.3L26,20.5l0.1-0.5l-0.9,0.4c0,0,0.2-0.4,0.6-0.5
									l-0.2-0.2c0,0,0.6-0.1,0.9-0.1c0.2,0,0.3-0.1,0.8,0c0.5,0.1,0.7,0.3,0.7,0.3S27.1,19.7,27,20z"/>
							</g>
						</g>
					</g>
				</g>
				<g>
					<g>
						<g>
							<g>
								<path fill="#48B9A5" d="M28.2,19.6c0,0,0.4-0.1,0.4-0.2c0.1-0.1-0.2-0.2-0.2-0.2l0.8,0L28.8,19l0.9-0.4c0,0-0.5-0.1-0.7,0.1
									l0-0.3c0,0-0.5,0.4-0.7,0.6c-0.2,0.2-0.3,0.2-0.5,0.7c0,0.1-0.1,0.2-0.1,0.2c0,0.1,0.1,0.1,0.1,0.1
									C27.9,19.7,28,19.6,28.2,19.6z"/>
							</g>
						</g>
					</g>
				</g>
				<g>
					<g>
						<g>
							<g>
								<path fill="#F26F5A" d="M28.2,19.3c0,0,0.6-0.7,0.5-1.1c-0.1-0.4-0.3,0.5-0.5,0.7c0,0,0.3-0.7-0.3-1c0,0-0.1,0.3-0.1,0.7
									c0,0-0.4-0.2-0.3,0.2c0.1,0.3,0.1,0.3,0.1,0.3s-0.2-0.6-0.5-0.7c0,0-0.2,0.1-0.2,0.3c0-0.1-0.3-0.2-0.5-0.2
									c0,0,0.1,0.2,0.3,0.4c0,0-0.3,0.1-0.4,0.2c0,0.1,0.3,0.3,0.3,0.3s-0.3,0.1-0.7,0.1c0,0,0,0.4,0.7,0.3
									C27.2,19.8,27.6,19.7,28.2,19.3z"/>
							</g>
						</g>
					</g>
				</g>
				<g>
					<g>
						<g>
							<g>
								
									<ellipse transform="matrix(-0.9007 -0.4345 0.4345 -0.9007 43.8392 49.103)" fill="#48B9A5" cx="27.5" cy="19.5" rx="0.3" ry="0.4"/>
							</g>
						</g>
					</g>
				</g>
				<g>
					<g>
						<g>
							<g>
								<path fill="#48B9A5" d="M30.4,28.4h0.3c-0.1-0.6-0.2-1.7-0.7-3.3c-0.9-3.4-2.3-5.6-2.4-5.6l-0.2,0.2c0,0,1.5,2.2,2.3,5.5
									C30.2,26.8,30.4,27.8,30.4,28.4z"/>
							</g>
						</g>
					</g>
				</g>
				<g>
					<g>
						<g>
							<g>
								<path fill="#48B9A5" d="M29.1,22.6c-0.1,0-0.3,0.2-0.3,0.2s0.4,0.4,0.4,0.4c0,0.1-0.2,0-0.2,0s0.1,0.4-0.1,0.6
									c0,0-0.4-0.3-0.3-0.6c0,0,0,0.3,0,0.4c0,0.1-0.1,0-0.1,0s0.2,0.2,0,0.4c-0.1,0.2-0.6,0.1-0.5-0.3c0,0-0.3,0.3-0.4,0.3
									c0,0-0.4,0.2-0.5,0.1c0,0-0.3,0.2-0.5,0.2c0,0,0-0.3,0.1-0.5l-0.1,0c0,0,0.2-0.2,0.2-0.4c0-0.1,0.5-0.2,0.5-0.2
									s-0.4-0.1-0.5-0.1c0,0,0.4-0.4,0.8-0.4l-0.1-0.1c0,0,0.4-0.1,1.1,0.1L29.1,22.6L29.1,22.6z"/>
							</g>
						</g>
					</g>
				</g>
				<g>
					<g>
						<g>
							<g>
								<path fill="#48B9A5" d="M30.1,25.2c-0.1,0-0.3,0.1-0.3,0.1s0.3,0.4,0.3,0.5c0,0.1-0.2,0-0.2,0s0,0.4-0.1,0.5
									c0,0-0.3-0.3-0.3-0.6c0,0,0,0.3,0,0.4c0,0.1-0.1,0-0.1,0s0.1,0.2,0,0.4c-0.1,0.2-0.6,0-0.5-0.3c0,0-0.3,0.3-0.4,0.2
									c0,0-0.4,0.2-0.5,0.1c0,0-0.3,0.2-0.5,0.2c0,0,0-0.3,0.2-0.5l-0.1,0c0,0,0.2-0.2,0.2-0.3c0-0.1,0.5-0.2,0.5-0.2
									s-0.4-0.1-0.5-0.2c0,0,0.4-0.4,0.8-0.4l-0.1-0.2c0,0,0.4-0.1,1.1,0.2L30.1,25.2L30.1,25.2z"/>
							</g>
						</g>
					</g>
				</g>
				<g>
					<g>
						<g>
							<g>
								<path fill="#48B9A5" d="M28.7,21.9c0-0.2,0.3-0.6,0.3-0.6c0,0-0.4-0.3-0.4-0.4c0-0.1,0.1-0.1,0.1-0.1c0,0-0.1-0.3,0-0.5
									c0,0,0.3,0.2,0.4,0.5c0,0,0-0.3-0.1-0.4c0-0.1,0.1,0,0.1,0c0,0-0.1-0.2-0.1-0.3c0.1-0.2,0.5-0.1,0.5,0.2
									c0,0,0.3-0.3,0.3-0.2c0,0,0.4-0.2,0.4-0.1c0,0,0.3-0.1,0.5-0.1c0,0,0,0.2-0.2,0.3c0,0,0,0,0.1,0c0,0-0.2,0.2-0.2,0.3
									c0,0.1-0.5,0.2-0.5,0.2c0,0,0.3,0,0.4,0.1c0,0-0.3,0.4-0.6,0.4c0,0,0.1,0.1,0.1,0.1c0,0-0.2,0.2-0.8,0
									C29,21.4,28.8,21.8,28.7,21.9C28.8,22,28.7,21.9,28.7,21.9z"/>
							</g>
						</g>
					</g>
				</g>
				<g>
					<g>
						<g>
							<g>
								<path fill="#48B9A5" d="M29.9,24.8c0-0.2,0.3-0.6,0.3-0.6c0,0-0.4-0.3-0.4-0.4c0-0.1,0.1-0.1,0.1-0.1c0,0-0.1-0.3,0-0.5
									c0,0,0.3,0.2,0.4,0.5c0,0,0-0.3-0.1-0.4c0-0.1,0.1,0,0.1,0c0,0-0.1-0.2-0.1-0.3c0.1-0.2,0.5-0.1,0.5,0.2
									c0,0,0.3-0.3,0.3-0.2c0,0,0.4-0.2,0.4-0.1c0,0,0.3-0.1,0.5-0.1c0,0,0,0.2-0.2,0.3c0,0,0,0,0.1,0c0,0-0.2,0.2-0.2,0.3
									c0,0.1-0.5,0.2-0.5,0.2c0,0,0.3,0,0.4,0.1c0,0-0.3,0.4-0.6,0.4c0,0,0.1,0.1,0.1,0.1c0,0-0.2,0.2-0.8,0
									C30.2,24.3,29.9,24.7,29.9,24.8C29.9,24.9,29.9,24.8,29.9,24.8z"/>
							</g>
						</g>
					</g>
				</g>
				<g>
					<g>
						<g>
							<g>
								<path fill="#48B9A5" d="M28.4,21.1c0-0.2,0.3-0.6,0.3-0.6c0,0-0.4-0.3-0.4-0.4c0-0.1,0.1-0.1,0.1-0.1c0,0-0.1-0.3,0-0.5
									c0,0,0.3,0.2,0.4,0.5c0,0,0-0.3-0.1-0.4c0-0.1,0.1,0,0.1,0c0,0-0.1-0.2-0.1-0.3c0.1-0.2,0.5-0.1,0.5,0.2
									c0,0,0.3-0.3,0.3-0.2c0,0,0.4-0.2,0.4-0.1c0,0,0.3-0.1,0.5-0.1c0,0,0,0.2-0.2,0.3c0,0,0,0,0.1,0c0,0-0.2,0.2-0.2,0.3
									c0,0.1-0.5,0.2-0.5,0.2c0,0,0.3,0,0.4,0.1c0,0-0.3,0.4-0.6,0.4c0,0,0.1,0.1,0.1,0.1c0,0-0.2,0.2-0.8,0
									C28.7,20.5,28.5,20.9,28.4,21.1C28.4,21.1,28.4,21.1,28.4,21.1z"/>
							</g>
						</g>
					</g>
				</g>
			</g>
			<g>
				<g>
					<g>
						<g>
							<g>
								<path fill="#48B9A5" d="M32.8,20.9c0,0.1,0.3,0.2,0.3,0.2s-0.4,0.3-0.4,0.4c0,0.1,0.1,0.1,0.1,0.1s-0.1,0.3,0,0.6
									c0,0,0.4-0.2,0.4-0.5c0,0-0.1,0.3-0.1,0.4c0,0.1,0.1,0.1,0.1,0.1s-0.2,0.1-0.1,0.4c0.1,0.2,0.5,0.2,0.6-0.2
									c0,0,0.2,0.4,0.3,0.3c0,0,0.4,0.3,0.4,0.2c0,0,0.3,0.2,0.4,0.3c0,0,0.1-0.3,0-0.5l0.1,0c0,0-0.1-0.3-0.1-0.4
									c0-0.1-0.5-0.3-0.5-0.3s0.4,0,0.5,0c0,0-0.3-0.5-0.7-0.6l0.1-0.1c0,0-0.3-0.2-1.1-0.1L32.8,20.9L32.8,20.9z"/>
							</g>
						</g>
					</g>
				</g>
				<g>
					<g>
						<g>
							<g>
								<path fill="#67C5B8" d="M38.9,21.7c0,0,0.2,0.3,0.3,0.4c0.1,0,0.2-0.2,0.2-0.2l0.1,0.8l0.2-0.4l0.6,0.8c0,0,0-0.5-0.3-0.7
									l0.3,0c0,0-0.5-0.4-0.7-0.5c-0.2-0.1-0.2-0.2-0.8-0.4s-0.7,0-0.7,0S38.9,21.5,38.9,21.7z"/>
							</g>
						</g>
					</g>
				</g>
				<g>
					<g>
						<g>
							<g>
								<path fill="#67C5B8" d="M38.1,20.8c0,0-0.3-0.3-0.3-0.3c0-0.1,0.3-0.1,0.3-0.1L37.3,20l0.5,0l-0.6-0.8c0,0,0.5,0.1,0.6,0.4
									l0.1-0.2c0,0,0.3,0.6,0.3,0.8c0.1,0.2,0.2,0.3,0.1,0.8c0,0.1,0,0.2,0,0.2c0,0.1-0.1,0.1-0.1,0
									C38.2,21.1,38.2,20.9,38.1,20.8z"/>
							</g>
						</g>
					</g>
				</g>
				<g>
					<g>
						<g>
							<g>
								<path fill="#F26F5A" d="M38.2,20.6c0,0-0.2-0.9,0-1.2c0.3-0.3,0,0.6,0.1,0.8c0,0,0.1-0.7,0.8-0.7c0,0,0,0.3-0.2,0.6
									c0,0,0.4,0,0.2,0.3c-0.2,0.3-0.2,0.3-0.2,0.3s0.5-0.4,0.7-0.4c0,0,0.2,0.2,0,0.4c0,0,0.3,0.1,0.6,0.1c0,0-0.2,0.2-0.4,0.2
									c0,0,0.3,0.2,0.3,0.3s-0.4,0.1-0.4,0.1s0.2,0.3,0.6,0.4c0,0-0.2,0.3-0.7,0C38.9,21.4,38.5,21.2,38.2,20.6z"/>
							</g>
						</g>
					</g>
				</g>
				<g>
					<g>
						<g>
							<g>
								
									<ellipse transform="matrix(0.9994 3.442368e-002 -3.442368e-002 0.9994 0.7489 -1.3182)" fill="#67C5B8" cx="38.7" cy="21.1" rx="0.3" ry="0.4"/>
							</g>
						</g>
					</g>
				</g>
				<g>
					<g>
						<g>
							<g>
								<path fill="#67C5B8" d="M31.6,28.3l-0.3-0.1c0,0,0.2-0.8,2.6-3.4c2.3-2.6,4.6-3.8,4.7-3.8l0.1,0.2c0,0-2.3,1.2-4.6,3.8
									C31.8,27.5,31.6,28.3,31.6,28.3z"/>
							</g>
						</g>
					</g>
				</g>
				<g>
					<g>
						<g>
							<g>
								<path fill="#67C5B8" d="M35.9,23.1c0,0.1,0.2,0.3,0.2,0.3s-0.5,0.1-0.5,0.2c0,0.1,0.1,0.1,0.1,0.1s-0.2,0.3-0.2,0.5
									c0,0,0.5-0.1,0.6-0.3c0,0-0.1,0.3-0.2,0.4c-0.1,0.1,0.1,0.1,0.1,0.1s-0.2,0.1-0.2,0.3c0,0.2,0.5,0.3,0.6,0
									c0,0,0.1,0.4,0.2,0.4c0,0,0.3,0.4,0.3,0.3c0,0,0.2,0.3,0.3,0.4c0,0,0.2-0.3,0.1-0.5h0.1c0,0-0.1-0.3,0-0.4
									c0.1-0.1-0.4-0.4-0.4-0.4s0.4,0.1,0.5,0.1c0,0-0.1-0.5-0.5-0.7l0.1-0.1c0,0-0.3-0.3-1-0.4L35.9,23.1L35.9,23.1z"/>
							</g>
						</g>
					</g>
				</g>
				<g>
					<g>
						<g>
							<g>
								<path fill="#67C5B8" d="M33.7,24.9c0,0.1,0.2,0.3,0.2,0.3s-0.5,0.2-0.5,0.3c0,0.1,0.1,0.1,0.1,0.1s-0.2,0.3-0.1,0.5
									c0,0,0.5-0.1,0.5-0.4c0,0-0.1,0.3-0.2,0.4c-0.1,0.1,0.1,0.1,0.1,0.1s-0.2,0.1-0.2,0.3c0,0.2,0.5,0.3,0.6-0.1
									c0,0,0.2,0.4,0.2,0.4c0,0,0.3,0.3,0.4,0.3c0,0,0.2,0.3,0.4,0.4c0,0,0.2-0.3,0.1-0.5l0.1,0c0,0-0.1-0.3,0-0.4
									c0.1-0.1-0.4-0.4-0.4-0.4s0.4,0.1,0.5,0.1c0,0-0.2-0.5-0.5-0.7l0.1-0.1c0,0-0.3-0.3-1-0.4L33.7,24.9L33.7,24.9z"/>
							</g>
						</g>
					</g>
				</g>
				<g>
					<g>
						<g>
							<g>
								<path fill="#48B9A5" d="M32.2,27.7c0,0-0.1,0.3,0,0.6c0,0,0.4-0.2,0.4-0.4c0,0.1-0.1,0.3-0.1,0.4c0,0.1,0.1,0.1,0.1,0.1
									s-0.1,0.1-0.1,0.2H33c0,0,0,0,0,0c0,0,0,0,0,0h1.1c0,0,0,0,0-0.1c0-0.1-0.5-0.3-0.5-0.3s0.4,0,0.5,0c0,0-0.3-0.5-0.7-0.6
									l0.1-0.1c0,0-0.3-0.2-1.1-0.1L32.2,27l0,0c0,0.1,0.3,0.2,0.3,0.2S32,27.5,32,27.6C32,27.7,32.2,27.7,32.2,27.7z"/>
							</g>
						</g>
					</g>
				</g>
				<g>
					<g>
						<g>
							<g>
								<path fill="#67C5B8" d="M36.5,22.6c0.1-0.2,0-0.7,0-0.7c0,0,0.5-0.1,0.5-0.2c0-0.1-0.1-0.1-0.1-0.1c0,0,0.3-0.2,0.3-0.4
									c0,0-0.4,0.1-0.5,0.3c0,0,0.2-0.2,0.2-0.3c0.1-0.1,0-0.1,0-0.1c0,0,0.2-0.1,0.2-0.3c0-0.2-0.4-0.3-0.5,0
									c0,0-0.1-0.4-0.2-0.4c0,0-0.3-0.3-0.3-0.3c0,0-0.2-0.3-0.4-0.3c0,0-0.1,0.2,0,0.4c0,0,0,0-0.1,0c0,0,0.1,0.2,0,0.3
									c-0.1,0.1,0.3,0.4,0.3,0.4c0,0-0.3-0.1-0.4-0.1c0,0,0.1,0.5,0.3,0.7c0,0-0.1,0-0.1,0.1c0,0,0.1,0.3,0.7,0.4
									C36.5,22,36.5,22.5,36.5,22.6C36.4,22.7,36.5,22.6,36.5,22.6z"/>
							</g>
						</g>
					</g>
				</g>
				<g>
					<g>
						<g>
							<g>
								<path fill="#67C5B8" d="M34.2,24.7c0.1-0.2,0-0.7,0-0.7c0,0,0.5-0.1,0.5-0.2c0-0.1-0.1-0.1-0.1-0.1c0,0,0.3-0.2,0.3-0.4
									c0,0-0.4,0.1-0.5,0.3c0,0,0.2-0.2,0.2-0.3c0.1-0.1,0-0.1,0-0.1c0,0,0.2-0.1,0.2-0.3c0-0.2-0.4-0.3-0.5,0
									c0,0-0.1-0.4-0.2-0.4c0,0-0.3-0.3-0.3-0.3c0,0-0.2-0.3-0.4-0.3c0,0-0.1,0.2,0,0.4c0,0,0,0-0.1,0c0,0,0.1,0.2,0,0.3
									c-0.1,0.1,0.3,0.4,0.3,0.4c0,0-0.3-0.1-0.4-0.1c0,0,0.1,0.5,0.3,0.7c0,0-0.1,0-0.1,0.1c0,0,0.1,0.3,0.7,0.4
									C34.1,24.1,34.2,24.5,34.2,24.7C34.1,24.7,34.1,24.7,34.2,24.7z"/>
							</g>
						</g>
					</g>
				</g>
			</g>
			<g>
				<g>
					<g>
						<g>
							<g>
								<path fill="#67C5B8" d="M36.8,19.4c0,0,0.3,0.2,0.4,0.2c0.1,0,0.1-0.3,0.1-0.3l0.4,0.7l0-0.5l0.9,0.5c0,0-0.2-0.5-0.5-0.5
									l0.2-0.1c0,0-0.6-0.2-0.9-0.2c-0.2,0-0.3-0.1-0.8,0c-0.5,0.1-0.7,0.2-0.7,0.2S36.6,19.1,36.8,19.4z"/>
							</g>
						</g>
					</g>
				</g>
				<g>
					<g>
						<g>
							<g>
								<path fill="#67C5B8" d="M35.6,18.9c0,0-0.4-0.1-0.4-0.2c0-0.1,0.2-0.2,0.2-0.2l-0.8,0l0.4-0.2l-0.9-0.5c0,0,0.5-0.1,0.7,0.2
									l0-0.3c0,0,0.5,0.4,0.6,0.6c0.1,0.2,0.3,0.2,0.4,0.7c0,0.1,0.1,0.2,0.1,0.2c0,0.1-0.1,0.1-0.1,0
									C35.9,19.1,35.7,18.9,35.6,18.9z"/>
							</g>
						</g>
					</g>
				</g>
				<g>
					<g>
						<g>
							<g>
								<path fill="#FFD15C" d="M35.6,18.6c0,0-0.6-0.8-0.4-1.1c0.2-0.4,0.3,0.6,0.4,0.7c0,0-0.2-0.7,0.4-1c0,0,0.1,0.3,0,0.7
									c0,0,0.4-0.2,0.3,0.2c-0.1,0.3-0.1,0.3-0.1,0.3s0.3-0.6,0.5-0.7c0,0,0.2,0.1,0.1,0.4c0,0,0.3-0.1,0.5-0.1
									c0,0-0.1,0.2-0.3,0.3c0,0,0.3,0.1,0.4,0.2c0,0.1-0.3,0.2-0.3,0.2s0.3,0.2,0.7,0.2c0,0-0.1,0.4-0.7,0.3
									C36.6,19.1,36.2,19.1,35.6,18.6z"/>
							</g>
						</g>
					</g>
				</g>
				<g>
					<g>
						<g>
							<g>
								
									<ellipse transform="matrix(0.9387 -0.3447 0.3447 0.9387 -4.2933 13.6563)" fill="#67C5B8" cx="36.3" cy="18.9" rx="0.3" ry="0.4"/>
							</g>
						</g>
					</g>
				</g>
				<g>
					<g>
						<g>
							<g>
								<path fill="#67C5B8" d="M32.1,28.3c0,0-0.1-0.8,1.1-4.1c1.2-3.3,2.9-5.3,2.9-5.3l0.2,0.2c0,0-1.7,2-2.8,5.2
									c-1.2,3.2-1.1,4-1.1,4L32.1,28.3z"/>
							</g>
						</g>
					</g>
				</g>
			</g>
			<g>
				<g>
					<g>
						<g>
							<g>
								<path fill="#48B9A5" d="M33.6,20.6c0,0,0.3,0.1,0.4,0.1c0.1,0,0-0.3,0-0.3l0.5,0.4l-0.1-0.4l0.8,0.2c0,0-0.3-0.3-0.6-0.3
									l0.1-0.2c0,0-0.5,0-0.7,0.1c-0.2,0-0.3,0-0.7,0.2c-0.4,0.2-0.5,0.4-0.5,0.4S33.4,20.5,33.6,20.6z"/>
							</g>
						</g>
					</g>
				</g>
				<g>
					<g>
						<g>
							<g>
								<path fill="#48B9A5" d="M32.5,20.6c0,0-0.3,0-0.4-0.1c-0.1,0,0.1-0.2,0.1-0.2l-0.6,0.2l0.3-0.3L31.1,20c0,0,0.4-0.2,0.6,0
									l-0.1-0.2c0,0,0.5,0.2,0.7,0.4c0.2,0.1,0.3,0.1,0.5,0.5c0,0.1,0.1,0.1,0.1,0.2c0,0.1,0,0.1-0.1,0.1
									C32.8,20.6,32.6,20.5,32.5,20.6z"/>
							</g>
						</g>
					</g>
				</g>
				<g>
					<g>
						<g>
							<g>
								<path fill="#F26F5A" d="M32.5,20.4c0,0-0.7-0.5-0.6-0.8c0-0.3,0.4,0.4,0.5,0.5c0,0-0.3-0.5,0.1-0.9c0,0,0.2,0.2,0.2,0.5
									c0,0,0.3-0.2,0.3,0.1c0,0.3,0,0.3,0,0.3s0.1-0.5,0.3-0.7c0,0,0.2,0,0.2,0.2c0,0,0.2-0.1,0.4-0.3c0,0,0,0.2-0.1,0.3
									c0,0,0.3,0,0.3,0.1c0.1,0.1-0.2,0.3-0.2,0.3s0.3,0,0.6,0c0,0,0,0.3-0.5,0.4C33.4,20.5,33,20.6,32.5,20.4z"/>
							</g>
						</g>
					</g>
				</g>
				<g>
					<g>
						<g>
							<g>
								<path fill="#67C5B8" d="M32.3,28.4c-0.1-0.5-0.1-1.4-0.1-2.9c0.1-2.9,0.9-5,0.9-5l-0.3-0.1c0,0-0.8,2.1-0.9,5.1
									c-0.1,1.5,0,2.4,0.1,3H32.3z"/>
							</g>
						</g>
					</g>
					<g>
						<g>
							<g>
								<path fill="#48B9A5" d="M31.5,28.2c0-0.5,0-1.3,0.3-2.8c0.4-2.8,1.4-4.8,1.5-4.8l-0.2-0.1c0,0-1.1,2-1.5,4.9
									c-0.2,1.5-0.3,2.3-0.3,2.8H31.5z"/>
							</g>
						</g>
					</g>
					<g>
						<g>
							<g>
								<g>
									
										<ellipse transform="matrix(0.7856 -0.6187 0.6187 0.7856 -5.5304 24.8289)" fill="#48B9A5" cx="33.1" cy="20.4" rx="0.3" ry="0.3"/>
								</g>
							</g>
						</g>
					</g>
				</g>
				<g>
					<g>
						<g>
							<g>
								<path fill="#48B9A5" d="M32.4,23.2c0.1,0,0.3,0.1,0.3,0.1s-0.2,0.4-0.2,0.4c0,0.1,0.1,0,0.1,0s0,0.3,0.2,0.4
									c0,0,0.2-0.3,0.2-0.5c0,0,0.1,0.3,0.1,0.4c0,0.1,0.1,0,0.1,0s-0.1,0.2,0,0.3c0.1,0.2,0.5,0,0.4-0.3c0,0,0.3,0.2,0.4,0.2
									c0,0,0.4,0.1,0.4,0c0,0,0.3,0.1,0.4,0.1c0,0,0-0.3-0.2-0.4l0.1,0c0,0-0.2-0.1-0.2-0.3c0-0.1-0.5-0.1-0.5-0.1
									s0.3-0.1,0.4-0.2c0,0-0.4-0.3-0.7-0.2l0-0.1c0,0-0.3-0.1-0.9,0.3L32.4,23.2L32.4,23.2z"/>
							</g>
						</g>
					</g>
				</g>
				<g>
					<g>
						<g>
							<g>
								<path fill="#67C5B8" d="M31.9,25.6c0.1,0,0.3,0.1,0.3,0.1S32,26,32,26.1c0,0.1,0.1,0,0.1,0s0,0.3,0.2,0.4
									c0,0,0.2-0.3,0.1-0.5c0,0,0.1,0.3,0.1,0.3c0,0.1,0.1,0,0.1,0s-0.1,0.2,0.1,0.3c0.1,0.1,0.5-0.1,0.4-0.4c0,0,0.3,0.2,0.4,0.1
									c0,0,0.4,0.1,0.4,0c0,0,0.3,0.1,0.4,0c0,0-0.1-0.3-0.2-0.4l0,0c0,0-0.2-0.1-0.2-0.3c0-0.1-0.5,0-0.5,0s0.3-0.2,0.4-0.2
									c0,0-0.4-0.2-0.7-0.1l0-0.1c0,0-0.3,0-0.9,0.3L31.9,25.6L31.9,25.6z"/>
							</g>
						</g>
					</g>
				</g>
				<g>
					<g>
						<g>
							<g>
								<path fill="#67C5B8" d="M32.5,22.6c-0.1-0.2-0.4-0.5-0.4-0.5c0,0,0.3-0.3,0.2-0.4c0-0.1-0.1,0-0.1,0c0,0,0.1-0.3-0.1-0.4
									c0,0-0.2,0.3-0.2,0.5c0,0,0-0.3,0-0.3c0-0.1-0.1,0-0.1,0c0,0,0.1-0.2,0-0.3c-0.1-0.1-0.4,0-0.3,0.3c0,0-0.3-0.2-0.3-0.1
									c0,0-0.4-0.1-0.4,0c0,0-0.3,0-0.4,0c0,0,0.1,0.2,0.2,0.2c0,0,0,0,0,0c0,0,0.2,0.1,0.2,0.2c0,0.1,0.4,0.1,0.4,0.1
									c0,0-0.3,0.1-0.3,0.1c0,0,0.3,0.3,0.6,0.2c0,0,0,0.1-0.1,0.1c0,0,0.2,0.1,0.7-0.1C32.2,22.2,32.4,22.5,32.5,22.6
									C32.5,22.6,32.5,22.6,32.5,22.6z"/>
							</g>
						</g>
					</g>
				</g>
				<g>
					<g>
						<g>
							<g>
								<path fill="#67C5B8" d="M32.1,25.2c-0.1-0.2-0.4-0.5-0.4-0.5c0,0,0.3-0.3,0.2-0.4c0-0.1-0.1,0-0.1,0c0,0,0.1-0.3-0.1-0.4
									c0,0-0.2,0.3-0.2,0.5c0,0,0-0.3,0-0.3c0-0.1-0.1,0-0.1,0c0,0,0.1-0.2,0-0.3c-0.1-0.1-0.4,0-0.3,0.3c0,0-0.3-0.2-0.3-0.1
									c0,0-0.4-0.1-0.4,0c0,0-0.3,0-0.4,0c0,0,0.1,0.2,0.2,0.2c0,0,0,0,0,0c0,0,0.2,0.1,0.2,0.2c0,0.1,0.4,0.1,0.4,0.1
									c0,0-0.3,0.1-0.3,0.1c0,0,0.3,0.3,0.6,0.2c0,0,0,0.1-0.1,0.1c0,0,0.2,0.1,0.7-0.1C31.8,24.8,32,25.1,32.1,25.2
									C32.1,25.2,32.1,25.2,32.1,25.2z"/>
							</g>
						</g>
					</g>
				</g>
			</g>
			<g>
				<g>
					<g>
						<g>
							<g>
								<path fill="#67C5B8" d="M33.2,18.9c0,0,0.3,0.2,0.4,0.2c0.1,0,0-0.3,0-0.3l0.5,0.6L34,18.8l1,0.3c0,0-0.3-0.4-0.6-0.4
									l0.2-0.2c0,0-0.6,0-0.9,0c-0.2,0-0.3-0.1-0.8,0.1c-0.5,0.2-0.6,0.4-0.6,0.4S33,18.6,33.2,18.9z"/>
							</g>
						</g>
					</g>
				</g>
				<g>
					<g>
						<g>
							<g>
								<path fill="#67C5B8" d="M31.9,18.6c0,0-0.4-0.1-0.4-0.1c-0.1-0.1,0.2-0.3,0.2-0.3l-0.8,0.1l0.4-0.3l-0.9-0.3
									c0,0,0.5-0.2,0.7,0l0-0.3c0,0,0.5,0.3,0.7,0.5c0.2,0.2,0.3,0.2,0.6,0.6c0,0.1,0.1,0.1,0.1,0.2c0,0.1-0.1,0.1-0.1,0.1
									C32.2,18.7,32.1,18.6,31.9,18.6z"/>
							</g>
						</g>
					</g>
				</g>
				<g>
					<g>
						<g>
							<g>
								<path fill="#FFD15C" d="M31.9,18.4c0,0-0.7-0.6-0.6-1c0.1-0.4,0.4,0.5,0.5,0.6c0,0-0.3-0.7,0.2-1c0,0,0.2,0.3,0.2,0.7
									c0,0,0.3-0.2,0.3,0.1c0,0.3,0,0.3,0,0.3s0.2-0.6,0.4-0.8c0,0,0.2,0,0.2,0.3c0,0,0.3-0.1,0.5-0.2c0,0,0,0.2-0.2,0.4
									c0,0,0.3,0,0.4,0.1c0.1,0.1-0.2,0.3-0.2,0.3s0.3,0.1,0.7,0c0,0,0,0.4-0.6,0.4C32.9,18.7,32.5,18.7,31.9,18.4z"/>
							</g>
						</g>
					</g>
				</g>
				<g>
					<g>
						<g>
							<g>
								
									<ellipse transform="matrix(0.8484 -0.5293 0.5293 0.8484 -4.851 20.0434)" fill="#67C5B8" cx="32.6" cy="18.5" rx="0.3" ry="0.4"/>
							</g>
						</g>
					</g>
				</g>
				<g>
					<g>
						<g>
							<g>
								<path fill="#67C5B8" d="M30.7,28.4c0-0.2-0.2-1.2,0.3-4.1c0.5-3.4,1.7-5.7,1.7-5.7l-0.2-0.1c0,0-1.2,2.4-1.7,5.8
									c-0.4,2.7-0.3,3.8-0.3,4.1H30.7z"/>
							</g>
						</g>
					</g>
				</g>
				<g>
					<g>
						<g>
							<g>
								<path fill="#67C5B8" d="M31.4,21.7c0.1,0,0.3,0.1,0.3,0.1s-0.3,0.4-0.3,0.5c0,0.1,0.2,0,0.2,0s0,0.4,0.1,0.5
									c0,0,0.3-0.4,0.3-0.6c0,0,0.1,0.3,0.1,0.4c0,0.1,0.1,0,0.1,0s-0.1,0.2,0,0.4c0.1,0.2,0.6,0,0.5-0.4c0,0,0.3,0.3,0.4,0.2
									c0,0,0.4,0.1,0.5,0.1c0,0,0.3,0.2,0.5,0.1c0,0,0-0.3-0.2-0.5l0.1,0c0,0-0.2-0.2-0.2-0.3c0-0.1-0.5-0.2-0.5-0.2
									s0.4-0.1,0.5-0.2c0,0-0.4-0.4-0.8-0.3l0.1-0.2c0,0-0.4-0.1-1.1,0.2L31.4,21.7L31.4,21.7z"/>
							</g>
						</g>
					</g>
				</g>
				<g>
					<g>
						<g>
							<g>
								<path fill="#67C5B8" d="M30.6,24.4c0.1,0,0.3,0.1,0.3,0.1S30.6,25,30.6,25c0,0.1,0.2,0,0.2,0s0,0.4,0.2,0.5
									c0,0,0.3-0.4,0.2-0.6c0,0,0.1,0.3,0.1,0.4c0,0.1,0.1,0,0.1,0s-0.1,0.2,0,0.4c0.1,0.2,0.6,0,0.5-0.4c0,0,0.4,0.2,0.4,0.2
									c0,0,0.4,0.1,0.5,0c0,0,0.3,0.1,0.5,0.1c0,0,0-0.3-0.2-0.4l0.1,0c0,0-0.2-0.2-0.2-0.3c0-0.1-0.5-0.1-0.5-0.1
									s0.3-0.1,0.4-0.2c0,0-0.4-0.3-0.8-0.3l0.1-0.2c0,0-0.4-0.1-1.1,0.3L30.6,24.4L30.6,24.4z"/>
							</g>
						</g>
					</g>
				</g>
				<g>
					<g>
						<g>
							<g>
								<path fill="#67C5B8" d="M31.6,21c-0.1-0.2-0.4-0.6-0.4-0.6c0,0,0.3-0.3,0.3-0.4c0-0.1-0.1,0-0.1,0c0,0,0.1-0.3,0-0.5
									c0,0-0.3,0.3-0.3,0.5c0,0,0-0.3,0-0.4c0-0.1-0.1,0-0.1,0c0,0,0.1-0.2,0-0.3c-0.1-0.2-0.5,0-0.4,0.3c0,0-0.3-0.2-0.4-0.2
									c0,0-0.4-0.1-0.5-0.1c0,0-0.4-0.1-0.5-0.1c0,0,0.1,0.2,0.2,0.3c0,0,0,0-0.1,0c0,0,0.2,0.1,0.2,0.3c0,0.1,0.5,0.1,0.5,0.1
									c0,0-0.3,0.1-0.4,0.1c0,0,0.4,0.4,0.6,0.4c0,0-0.1,0.1-0.1,0.1c0,0,0.3,0.1,0.8,0C31.3,20.5,31.5,20.8,31.6,21
									C31.6,21,31.6,21,31.6,21z"/>
							</g>
						</g>
					</g>
				</g>
				<g>
					<g>
						<g>
							<g>
								<path fill="#67C5B8" d="M30.8,24c-0.1-0.2-0.4-0.6-0.4-0.6c0,0,0.3-0.3,0.3-0.4c0-0.1-0.1,0-0.1,0c0,0,0.1-0.3,0-0.5
									c0,0-0.3,0.3-0.3,0.5c0,0,0-0.3,0-0.4c0-0.1-0.1,0-0.1,0c0,0,0.1-0.2,0-0.3c-0.1-0.2-0.5,0-0.4,0.3c0,0-0.3-0.2-0.4-0.2
									c0,0-0.4-0.1-0.5-0.1c0,0-0.4-0.1-0.5-0.1c0,0,0.1,0.2,0.2,0.3c0,0,0,0-0.1,0c0,0,0.2,0.1,0.2,0.3c0,0.1,0.5,0.1,0.5,0.1
									c0,0-0.3,0.1-0.4,0.1c0,0,0.4,0.4,0.6,0.4c0,0-0.1,0.1-0.1,0.1c0,0,0.3,0.1,0.8,0C30.5,23.5,30.7,23.8,30.8,24
									C30.8,24,30.8,24,30.8,24z"/>
							</g>
						</g>
					</g>
				</g>
			</g>
			<g>
				<g>
					<g>
						<g>
							<g>
								<path fill="#48B9A5" d="M30.6,21.5c0,0,0.4,0.2,0.4,0.2c0.1,0,0-0.3,0-0.3l0.6,0.6l-0.2-0.4l1,0.3c0,0-0.3-0.4-0.7-0.4
									l0.2-0.2c0,0-0.6,0-0.9,0c-0.2,0-0.3-0.1-0.8,0.1c-0.5,0.2-0.6,0.4-0.6,0.4S30.4,21.3,30.6,21.5z"/>
							</g>
						</g>
					</g>
				</g>
				<g>
					<g>
						<g>
							<g>
								<path fill="#67C5B8" d="M29.4,21.3c0,0-0.4-0.1-0.4-0.1c-0.1-0.1,0.1-0.3,0.1-0.3L28.3,21l0.3-0.3l-1-0.3c0,0,0.4-0.2,0.7,0
									l-0.1-0.3c0,0,0.6,0.3,0.8,0.5c0.2,0.2,0.3,0.2,0.7,0.6c0.1,0.1,0.1,0.1,0.1,0.2c0,0.1,0,0.1-0.1,0.1
									C29.7,21.4,29.5,21.2,29.4,21.3z"/>
							</g>
						</g>
					</g>
				</g>
				<g>
					<g>
						<g>
							<g>
								<path fill="#FFD15C" d="M29.3,21c0,0-0.8-0.6-0.8-1c0-0.4,0.4,0.5,0.6,0.6c0,0-0.4-0.7,0.1-1c0,0,0.2,0.3,0.2,0.6
									c0,0,0.3-0.2,0.3,0.1c0,0.3,0,0.3,0,0.3s0.1-0.6,0.3-0.7c0,0,0.3,0,0.2,0.3c0,0,0.3-0.1,0.5-0.2c0,0,0,0.2-0.2,0.4
									c0,0,0.3,0,0.4,0.1c0.1,0.1-0.2,0.3-0.2,0.3s0.3,0.1,0.7,0c0,0,0,0.4-0.6,0.4C30.4,21.3,30,21.3,29.3,21z"/>
							</g>
						</g>
					</g>
				</g>
				<g>
					<g>
						<g>
							<g>
								<path fill="#67C5B8" d="M30.2,21c0.1,0.2,0.1,0.4,0,0.5c-0.1,0.1-0.3,0-0.5-0.1c-0.1-0.2-0.1-0.4,0-0.5
									C29.9,20.7,30.1,20.8,30.2,21z"/>
							</g>
						</g>
					</g>
				</g>
				<g>
					<g>
						<g>
							<g>
								<path fill="#48B9A5" d="M29.1,28.4c0-0.4,0-1,0-1.6c0.1-3.3,1-5.6,1-5.6l-0.3-0.1c0,0-0.9,2.3-1,5.7c0,0.6,0,1.1,0,1.6H29.1
									z"/>
							</g>
						</g>
					</g>
				</g>
				<g>
					<g>
						<g>
							<g>
								<path fill="#67C5B8" d="M29.4,23.6C29.3,23.4,29,23,29,23c0,0,0.3-0.3,0.3-0.4c0-0.1-0.1,0-0.1,0c0,0,0.1-0.3-0.1-0.5
									c0,0-0.3,0.3-0.2,0.5c0,0,0-0.3,0-0.4c0-0.1-0.1,0-0.1,0c0,0,0.1-0.2,0-0.3c-0.1-0.2-0.5,0-0.4,0.3c0,0-0.3-0.2-0.4-0.2
									c0,0-0.4-0.1-0.5-0.1c0,0-0.4-0.1-0.5-0.1c0,0,0.1,0.2,0.3,0.3c0,0,0,0-0.1,0c0,0,0.2,0.1,0.3,0.3c0,0.1,0.5,0.1,0.5,0.1
									c0,0-0.3,0.1-0.4,0.1c0,0,0.4,0.3,0.7,0.4c0,0,0,0.1-0.1,0.1c0,0,0.3,0.1,0.8,0C29,23.1,29.3,23.4,29.4,23.6
									C29.4,23.6,29.4,23.6,29.4,23.6z"/>
							</g>
						</g>
					</g>
				</g>
				<g>
					<g>
						<g>
							<g>
								<path fill="#67C5B8" d="M28.9,26.5c-0.1-0.2-0.4-0.6-0.4-0.6c0,0,0.3-0.3,0.3-0.4c0-0.1-0.1,0-0.1,0c0,0,0.1-0.3-0.1-0.5
									c0,0-0.3,0.3-0.2,0.5c0,0,0-0.3,0-0.4c0-0.1-0.1,0-0.1,0c0,0,0.1-0.2,0-0.3c-0.1-0.2-0.5,0-0.4,0.3c0,0-0.3-0.2-0.4-0.2
									c0,0-0.4-0.1-0.5-0.1c0,0-0.4-0.1-0.5-0.1c0,0,0.1,0.2,0.3,0.3c0,0,0,0-0.1,0c0,0,0.2,0.1,0.3,0.3c0,0.1,0.5,0.1,0.5,0.1
									c0,0-0.3,0.1-0.4,0.1c0,0,0.4,0.3,0.7,0.4c0,0,0,0.1-0.1,0.1c0,0,0.3,0.1,0.8,0C28.5,26,28.8,26.4,28.9,26.5
									C28.9,26.6,28.9,26.5,28.9,26.5z"/>
							</g>
						</g>
					</g>
				</g>
			</g>
		</g>
		<g>
			<g>
				<g>
					<g>
						<path fill="#F05640" d="M34.2,27.5L34.2,27.5l-0.1,1c0,0.5-1.7,0.7-3.7,0.6c-2-0.2-3.6-0.7-3.5-1.2l0.1-1v0l0.5,0
							c0,0.3,1.3,0.7,3.1,0.9s3.2,0,3.2-0.3L34.2,27.5z"/>
					</g>
				</g>
			</g>
			<g>
				<g>
					<g>
						<path fill="#F26F5A" d="M34.2,27.5C34.2,27.5,34.2,27.5,34.2,27.5c-0.1,0.5-1.7,0.7-3.7,0.6c-2-0.2-3.5-0.7-3.5-1.2v0l0.5,0v0
							c0,0.3,1.3,0.7,3.1,0.9s3.2,0,3.2-0.3v0L34.2,27.5z"/>
					</g>
				</g>
			</g>
		</g>
		<g>
			<g>
				<g>
					<g>
						<path fill="#48B9A5" d="M29,27.1c-0.1,0-0.3,0.1-0.3,0.1s0-0.5-0.1-0.5c-0.1,0-0.1,0.1-0.1,0.1s-0.2-0.3-0.5-0.3
							c0,0,0,0.4,0.2,0.6c0,0-0.3-0.2-0.3-0.3c-0.1-0.1-0.1,0-0.1,0s0-0.2-0.3-0.3c-0.2-0.1-0.4,0.4-0.1,0.6c0,0-0.4,0-0.5,0.1
							c0,0-0.4,0.2-0.4,0.2c0,0-0.4,0.1-0.5,0.2c0,0,0.2,0.2,0.5,0.2l0,0.1c0,0,0.3,0,0.4,0.1c0.1,0.1,0.5-0.2,0.5-0.2
							s-0.2,0.3-0.2,0.4c0,0,0.6,0,0.8-0.3l0.1,0.2c0,0,0.4-0.2,0.7-0.8L29,27.1L29,27.1z"/>
					</g>
				</g>
			</g>
		</g>
		<g>
			<g>
				<g>
					<g>
						<path fill="#48B9A5" d="M29,27.2c0,0.1,0,0.3,0,0.3s0.5-0.2,0.5-0.2c0.1,0,0,0.2,0,0.2s0.3,0.1,0.5,0.3c0,0-0.4,0.2-0.7,0.1
							c0,0,0.3,0.1,0.4,0.2c0.1,0,0,0.1,0,0.1s0.2-0.1,0.4,0.1c0.1,0.2-0.2,0.6-0.5,0.4c0,0,0.1,0.4,0.1,0.4c0,0,0,0.4-0.1,0.5
							c0,0,0,0.4,0,0.5c0,0-0.3-0.1-0.4-0.3l-0.1,0c0,0-0.1-0.3-0.3-0.3c-0.1,0,0-0.6,0-0.6s-0.2,0.3-0.3,0.4c0,0-0.2-0.5-0.1-0.9
							l-0.2,0c0,0,0-0.4,0.5-1L29,27.2L29,27.2z"/>
					</g>
				</g>
			</g>
		</g>
		<g>
			<g>
				<g>
					<g>
						<path fill="#67C5B8" d="M30.5,27c0,0.1,0.2,0.3,0.2,0.3s-0.5,0.2-0.5,0.3c0,0.1,0.1,0.1,0.1,0.1s-0.2,0.3-0.1,0.5
							c0,0,0.5-0.1,0.5-0.4c0,0-0.1,0.3-0.2,0.4c-0.1,0.1,0.1,0.1,0.1,0.1s-0.2,0.1-0.2,0.3c0,0.2,0.5,0.3,0.6-0.1
							c0,0,0.2,0.4,0.2,0.4c0,0,0.3,0.3,0.4,0.3c0,0,0.2,0.3,0.4,0.4c0,0,0.2-0.3,0.1-0.5l0.1,0c0,0-0.1-0.3,0-0.4
							c0.1-0.1-0.4-0.4-0.4-0.4s0.4,0.1,0.5,0.1c0,0-0.2-0.5-0.5-0.7l0.1-0.1c0,0-0.3-0.3-1-0.4L30.5,27L30.5,27z"/>
					</g>
				</g>
			</g>
		</g>
	</g>
	<g>
		<g>
			<g>
				<g>
					<path fill="#344A5E" d="M37.5,48h-0.6l-0.1-1l-0.1-1h0.6c0.3,0,0.5,0.5,0.6,1C38,47.5,37.8,48,37.5,48z"/>
				</g>
			</g>
		</g>
		<g>
			<g>
				<path fill="#425A6B" d="M37.3,46.9c0,0.6-0.1,1-0.4,1c-0.3,0-0.5-0.5-0.6-1c0-0.6,0.1-1,0.4-1S37.3,46.4,37.3,46.9z"/>
			</g>
		</g>
		<g>
			<g>
				<path fill="#F3F3F3" d="M36.9,47.5c-0.2,0-0.3-0.3-0.3-0.6l-0.3-0.2c-0.1-0.1-0.1-0.2-0.1-0.3l0-0.9l0.5,0l0.1,0.8
					c0,0,0,0,0.1,0c0.2,0,0.3,0.3,0.3,0.6C37.2,47.3,37.1,47.5,36.9,47.5z"/>
			</g>
		</g>
		<g>
			<g>
				<path fill="#344A5E" d="M37,46.9c0,0.2,0,0.3-0.1,0.3c-0.1,0-0.2-0.2-0.2-0.3c0-0.2,0-0.3,0.1-0.3C36.9,46.6,37,46.8,37,46.9z"
					/>
			</g>
		</g>
	</g>
	<g>
		<g>
			<path fill="#344A5E" d="M24.2,21.2l1,0.7l1.2-0.4l-1.7-1.1C24.2,20.2,23.8,21,24.2,21.2z"/>
		</g>
	</g>
	<g>
		<g>
			<path fill="#FFD15C" d="M24.9,21.1c0,0,0,0.1-0.1,0.2c0,0.1-0.7,0.4-0.7,0.4s0.1,0.2,0,0.3c-0.1,0.1-0.5,0.1-0.6,0
				c-0.1,0-0.1-0.1-0.3-0.1c-0.1-0.1-0.4-0.1-0.6-0.3c-0.2-0.2-0.7-0.9-0.7-1.1c-0.1-0.2-0.6-0.8-0.9-1.1c-0.4-0.3-2.4-2.5-2.5-2.7
				c-0.1-0.2-0.8-0.8-0.9-1.2c-0.1-0.4-1.1-2.3-1.1-2.3l-0.8-1.6l1.9-0.8c0,0,0.7,1.5,0.8,1.7c0.1,0.2,0.4,1.1,0.9,1.5
				c0.5,0.5,1.7,2.6,1.9,3.2c0.2,0.6,1.2,2.1,1.4,2.4c0.2,0.2,0.4,0.3,0.4,0.4c0,0,0.2,0.2,0.6,0C24,20,24.4,20,24.5,20
				c0.1,0.1,0.2,0.1,0.2,0.2C24.7,20.4,24.9,21.1,24.9,21.1z"/>
		</g>
	</g>
	<g>
		<g>
			<path fill="#F5B54C" d="M23.2,20.9c0.1,0,0.2,0,0.3,0c0,0,0,0,0.1,0c0,0,0,0,0,0c0.1,0.1,0.1,0.2,0.2,0.3c0,0.1-0.1,0.2-0.1,0.2
				c-0.1,0-0.2,0-0.2,0c-0.1,0-0.2,0-0.2,0c0.1,0,0.1,0,0.2,0c0.1,0,0.1,0,0.2,0.1c0.2,0,0.3,0.1,0.4,0.2c0-0.1-0.1-0.1-0.2-0.1
				c0,0-0.1,0-0.1,0c0,0-0.1,0-0.1,0c0,0,0-0.1,0-0.1c0,0,0.1,0,0.1,0c0,0,0.1,0,0.1,0c-0.1-0.1-0.1-0.2-0.2-0.3c0-0.1,0-0.2,0-0.3
				c-0.1,0-0.1,0-0.2,0c-0.1,0-0.1-0.1-0.1-0.1C23.5,20.7,23.4,20.8,23.2,20.9c0,0-0.1,0-0.2,0.1c0.1,0,0.3,0,0.4,0"/>
		</g>
	</g>
	<g>
		<g>
			<g>
				<path fill="#67C5B8" d="M23.8,21.2L20,21.9l-0.1-0.5l3.7-0.6C23.8,20.9,23.8,21.1,23.8,21.2z"/>
			</g>
		</g>
	</g>
	<g>
		<g>
			<path fill="#F05640" d="M12.5,1.4c0,0-0.6-1.2-1.4-1.4c-0.8-0.1-1.7,0.1-2.4,0.8C7.9,1.5,8,2.9,8.9,3.9c0,0,0.5-1,1.2-1.5
				C10.8,1.9,12.5,1.4,12.5,1.4z"/>
		</g>
	</g>
	<g>
		<g>
			<path fill="#E8EAE8" d="M7.2,6.9L6.4,6.6c0,0,0.6-0.7,0.9-1c0.3-0.3,1.2-1.3,1.3-1.5c0.1-0.1,1-1.7,1.7-2.1s1.8-0.6,2.1-0.6
				c0.3-0.1,2.7-1,3-0.6l-2.7,3.4L7.2,6.9z"/>
		</g>
	</g>
	<g>
		<g>
			<path fill="#F05640" d="M6.5,6.9c0,0-0.3-0.4,0.3-0.4C7.4,6.3,8.1,6.1,8.4,6c0.3-0.2,0.8-0.7,0.9-1.3C9.4,4,9.5,2.8,10.4,2.3
				c1-0.5,2.1-0.4,2.6-0.7c0.6-0.3,2-1.1,2.4-0.9c0.4,0.2,0.9,1.5,0.9,2.1c0,0,0,0.8-0.5,2c-0.4,1.2-0.4,1.3-0.9,1.3
				c-0.6,0-1.1,0.2-1.6,0.5S10.3,8,9,7.9C7.6,7.9,6.8,7.6,6.5,6.9z"/>
		</g>
	</g>
	<g>
		<g>
			<ellipse fill="#425A6B" cx="10" cy="6" rx="0.6" ry="1.6"/>
		</g>
	</g>
	<g>
		<g>
			<ellipse fill="#425A6B" cx="13.1" cy="4.6" rx="0.5" ry="1.4"/>
		</g>
	</g>
	<g>
		<g>
			<path fill="#FFD15C" d="M13.5,7.8l-0.4-2.2c0.3-0.8,0.1-2.2,0.1-2.3C13.1,3.3,13,3,12.8,2.6c-0.2-0.4-0.7-0.8-0.7-0.8
				c0,0-0.1,0-0.1-0.1c0,0-0.1,0-0.1,0c-0.4,0-0.8,0.1-1.2,0.2c-0.3,0.1-0.6,0.2-0.8,0.5c0,0,0,0,0,0c-0.2,0.3-0.3,0.7-0.4,1
				c0,0,0,0,0,0.1c0.2,0.9,0.6,2,0.7,2.3c0.1,0.5-0.1,1.6-0.1,1.6l3.6,4.1l1-0.3L13.5,7.8z"/>
		</g>
	</g>
	<g>
		<g>
			<path fill="#F5B54C" d="M10.1,5.4c0,0,1.3,1.5,2.6,0.9L13,7.8C13,7.8,10.9,7.2,10.1,5.4z"/>
		</g>
	</g>
	<g>
		<g>
			<path fill="#F3F3F3" d="M10.4,18.9c-0.1,0-0.9-0.8-1-1.4c-0.1-0.6-0.3-1.3-0.2-1.9c0.1-0.6,0.1-0.7-0.3-1.2
				c-0.3-0.5-1-1.8-1.1-2.9c0,0-0.1-1.7,0.6-2.4c0.7-0.7,1.3-1.3,1.3-1.3l3.8,3.6l1.5-0.5l-1.3-4c0,0,1.8-0.1,2.3,0.6
				c0.5,0.7,1.9,3.6,1.9,3.6s-1,0.3-1.3,0.9l-2.3,4.8L10.4,18.9z"/>
		</g>
	</g>
	<g>
		<g>
			<path fill="#67C5B8" d="M17.3,12.7c0,0-0.6,1.8-0.6,2.1c0,0.3-0.8,2.2-0.7,2.9c0,0.3,0.1,1,0.2,1.6c0.2,1,0.2,1.9,0.1,2.9
				c0,0.1,0,0.3,0,0.4c0.2,0.4,1.3,4,1.5,4.8c0.2,0.8,1.3,4,1.3,4s0.2,0.8,0,1.8c-0.2,1-0.6,1.9-0.8,2.4c-0.2,0.5-0.4,1.3-0.4,1.3
				l-3.2-0.6c0,0,0.3-1.4,0.5-1.9c0.2-0.5,0.1-0.7,0.2-0.9c0.1-0.3-0.1-0.3-0.3-0.9c-0.2-0.6-0.6-1.7-1.1-2.5
				c-0.5-0.8-1.3-2.1-1.3-2.1s-0.1,3.2-0.1,3.8s0,1.1,0.1,1.5c0.1,0.4,0.3,0.8,0.1,0.9c-0.2,0.2-0.3,0.2-0.3,0.5
				c0,0.3,0.1,2.3,0.1,2.3l-3.3,0.5c0,0-0.3-2.6,0-3c0,0-0.3-0.6-0.1-0.9c0.2-0.4,0.1-1.1-0.1-1.8c-0.3-0.7-0.9-3.7-1.1-4.1
				c-0.2-0.4-1-2.4-0.8-4.2c0.2-1.8,0.6-3.2,1.1-4.1c0.5-0.9,0.9-1.8,0.9-1.8s0.2,0.4,0.7,0.1c0.5-0.3,2.8-2.8,3-3.3
				c0.2-0.5,0.3-1.4,0.2-2.1c-0.1-0.8-1.6-2.7-1.6-2.7l1.8,1.7l1.4-0.8l0.9-0.1L17.3,12.7z"/>
		</g>
	</g>
	<g>
		<g>
			<path fill="#425A6B" d="M13.9,11.5c0.1,0.5,0.6,1,1.1,1c-0.3-0.3-0.5-0.7-0.7-1c-0.2-0.4-0.5-0.7-0.8-0.9
				c-0.3-0.3-0.7-0.6-0.9-1.1c-0.1-0.2-0.3-0.4-0.5-0.5c-0.2-0.1-0.4-0.2-0.6-0.4c-0.6-0.4-1.1-1-1.3-1.7C10.6,7,11,7.1,11.4,7
				c-0.3,0-0.6,0-0.8-0.2c-0.2-0.2-0.4-0.4-0.5-0.7c0-0.2,0-0.5,0-0.7c0.1-0.9,0-1.8-0.3-2.6c0,0,0,0,0,0.1C9.6,3.1,9.5,3.4,9.4,3.6
				c0,0.1-0.1,0.2-0.3,0.2C8.9,4.3,8.8,4.7,8.8,5.2C8.6,6,8.6,7,8.9,7.8c0.3,0.7,0.7,1.3,1.2,2c0.3,0.5,0.6,1.1,0.8,1.7l-0.1-1
				c0.2,0.8,0.7,1.6,1.4,2.1c0.4,0.3,1,0.5,1.2,1c-0.5-0.8-0.9-1.7-1.3-2.5l1.1,1.4c0.4,0.5,0.9,1.1,1.6,1.3c0-0.4-0.3-0.8-0.4-1.1
				C14,12.3,13.9,11.9,13.9,11.5z"/>
		</g>
	</g>
	<g>
		<g>
			<path fill="#425A6B" d="M17.3,11.8c0,0,0.1-0.3-0.3-1c-0.4-0.6-0.7-0.8-0.9-1.6c-0.2-0.7-0.5-1.4-1-1.7c-0.5-0.3-1-1-1.1-1.8
				c-0.1-0.8-0.2-2.3-0.6-3c-0.3-0.5-0.9-1.1-1.2-1.4c-0.1,0-0.1,0.1-0.2,0.1l0,0.1c0,0,0.5,0.5,0.7,0.9s1,1.3,0.3,3.1
				c0,0.1-0.5,0.6-0.5,1.3c0,0.6,0.4,1.7,0.9,2.8c0.5,1.1,1.5,2.2,1.7,3.2c0.2,1,0.2,1.4,0.2,1.4s0.4-1,0.2-1.5c0,0,1.1,0.4,1.1,1
				c0,0,0.3-0.9-0.2-1.6c-0.5-0.7-0.4-0.2-0.6-1.2c-0.1-0.6-0.2-1.1-0.2-1.4c0,0.1,0.2,0.4,0.4,0.7C16.7,11.2,17.2,11.4,17.3,11.8z"
				/>
		</g>
	</g>
	<g>
		<g>
			<path fill="#425A6B" d="M11.9,1.6C11.9,1.6,11.9,1.6,11.9,1.6C11.9,1.6,12,1.6,11.9,1.6C12,1.6,12,1.7,12,1.7c0,0,0,0,0.1,0
				c0,0,0,0,0.1,0c0,0,0,0,0.1,0.1c0,0,0.1,0.1,0.1,0.1c0,0,0.1,0.1,0.1,0.2c0.1,0.1,0.2,0.2,0.3,0.4c0,0.1,0.1,0.1,0.1,0.2
				c0,0.1,0.1,0.1,0.1,0.2C13,2.9,13,3,13,3c0,0.1,0,0.1,0,0.2c0,0.1,0,0.1,0,0.2c0,0,0,0.1,0,0.1c0,0,0,0.1,0,0.1c0,0,0,0,0,0
				s0,0,0,0c0,0,0,0,0-0.1c0,0,0-0.1,0-0.1c0,0,0-0.1,0-0.2c0-0.1,0-0.1,0-0.2c0-0.1,0-0.1-0.1-0.2c0-0.1-0.1-0.1-0.1-0.2
				c0-0.1-0.1-0.1-0.1-0.2c-0.1-0.1-0.2-0.2-0.3-0.3c0,0-0.1-0.1-0.1-0.1c0,0-0.1-0.1-0.1-0.1c0,0,0,0-0.1,0c0,0,0,0-0.1,0
				c0,0,0,0-0.1,0c0,0,0,0,0,0c0,0-0.1,0-0.1,0c0,0,0,0,0,0L11.9,1.6z"/>
		</g>
	</g>
	<g>
		<g>
			<path fill="#F26F5A" d="M15.5,0.7c-0.4-0.2-1.8,0.5-2.4,0.9c-0.6,0.3-1.7,0.3-2.6,0.7c-1,0.5-1,1.7-1.1,2.3
				C9.3,5.3,8.8,5.8,8.4,6C8.1,6.1,7.4,6.3,6.8,6.4c-0.2,0-0.3,0.1-0.3,0.2l0,0c0,0,0.6-0.7,0.9-1c0.3-0.3,1.2-1.3,1.3-1.5
				c0.1-0.1,1-1.7,1.7-2.1s1.8-0.6,2.1-0.6C12.7,1.3,15.1,0.4,15.5,0.7z"/>
		</g>
	</g>
	<g>
		<g>
			<g>
				<path fill="#425A6B" d="M15.7,10.4C15.7,10.4,15.7,10.4,15.7,10.4c0,0.1,0,0.1,0,0.1c0,0,0,0.1,0,0.1c0,0.1,0,0.1,0,0.2
					c0,0.1,0,0.1,0.1,0.2c0,0.1,0.1,0.1,0.1,0.2c0,0.1,0.1,0.2,0.1,0.2c0.1,0.1,0.1,0.1,0.2,0.2c0.1,0.1,0.1,0.1,0.2,0.2
					c0.1,0.1,0.1,0.1,0.2,0.2c0.1,0.1,0.1,0.1,0.2,0.2c0,0.1,0.1,0.1,0.1,0.2c0.1,0.1,0.1,0.2,0.1,0.3c0,0,0,0.1,0,0.1c0,0,0,0,0,0
					s0,0,0,0c0,0,0-0.1,0-0.1c0-0.1-0.1-0.2-0.1-0.3c0-0.1-0.1-0.1-0.1-0.2c0-0.1-0.1-0.1-0.2-0.2c-0.1-0.1-0.1-0.1-0.2-0.2
					c-0.1-0.1-0.1-0.1-0.2-0.2c-0.1-0.1-0.1-0.1-0.2-0.2c-0.1-0.1-0.1-0.2-0.2-0.2c-0.1-0.1-0.1-0.2-0.1-0.2c0-0.1-0.1-0.2-0.1-0.2
					c0-0.1,0-0.1-0.1-0.2c0-0.1,0-0.1,0-0.2c0,0,0-0.1,0-0.1c0,0,0,0,0,0L15.7,10.4z"/>
			</g>
		</g>
		<g>
			<g>
				<path fill="#425A6B" d="M15.6,12.4C15.6,12.4,15.6,12.5,15.6,12.4C15.6,12.5,15.6,12.5,15.6,12.4c0.1,0.1,0.1,0.2,0.1,0.3
					c0,0.1,0.1,0.2,0.1,0.4c0,0.1,0,0.3,0,0.4c0,0.1,0,0.1,0,0.2c0,0.1,0,0.1,0,0.2c0,0.1,0,0.1,0,0.2c0,0.1,0,0.1,0,0.2
					c0,0.1,0,0.1-0.1,0.1c0,0,0,0.1,0,0.1c0,0,0,0,0,0.1c0,0,0,0,0,0s0,0,0,0c0,0,0,0,0-0.1c0,0,0-0.1,0-0.1c0,0,0-0.1,0-0.1
					c0-0.1,0-0.1,0-0.2c0-0.1,0-0.1,0-0.2c0-0.1,0-0.1,0-0.2c0-0.1,0-0.1,0-0.2c0-0.1,0-0.3-0.1-0.4c0-0.1-0.1-0.2-0.1-0.3
					c0-0.1-0.1-0.2-0.1-0.2c0,0,0,0,0-0.1c0,0,0,0,0,0L15.6,12.4z"/>
			</g>
		</g>
		<g>
			<g>
				<path fill="#425A6B" d="M15.6,12.5c0,0,0.1,0.1,0.3,0.3c0.1,0.1,0.2,0.2,0.3,0.3c0.1,0.1,0.2,0.2,0.3,0.4c0,0.1,0.1,0.2,0.1,0.2
					c0,0,0,0,0,0.1c0,0,0,0,0,0.1c0,0,0,0.1,0,0.1c0,0.2,0,0.3,0,0.4c0,0.1,0,0.1,0,0.2c0,0,0,0.1,0,0.1c0,0,0,0.1,0,0.1
					c0,0,0,0,0,0s0,0,0,0c0,0,0,0-0.1-0.1c0,0,0-0.1-0.1-0.1c0,0,0-0.1,0-0.2c0-0.1,0-0.3,0-0.4c0,0,0-0.1,0-0.1c0,0,0,0,0-0.1
					c0,0,0,0,0-0.1c0-0.1-0.1-0.1-0.1-0.2c-0.1-0.1-0.2-0.2-0.3-0.3C16.1,13,16,13,15.9,12.9c-0.2-0.1-0.4-0.2-0.4-0.2L15.6,12.5z"
					/>
			</g>
		</g>
		<g>
			<g>
				<path fill="#425A6B" d="M15.6,8.1C15.6,8.1,15.6,8.1,15.6,8.1C15.6,8.2,15.7,8.2,15.6,8.1c0.1,0.1,0.2,0.2,0.2,0.2
					c0,0,0.1,0.1,0.1,0.2C16,8.6,16,8.8,16.1,8.9c0,0,0,0.1,0,0.1c0,0,0,0.1,0,0.1c0,0.1,0.1,0.2,0.1,0.3c0,0.1,0.1,0.2,0.1,0.2
					c0,0,0,0.1,0.1,0.1c0,0,0,0,0,0.1c0,0,0,0,0,0.1c0,0.1,0.1,0.1,0.1,0.2c0,0.1,0.1,0.1,0.1,0.2c0,0,0.1,0.1,0.1,0.1
					c0,0,0,0,0.1,0c0,0,0,0,0.1,0c0,0,0.1,0,0.1,0c0,0,0,0,0,0s0,0,0,0c0,0,0,0-0.1,0c0,0,0,0-0.1,0c0,0,0,0-0.1,0
					c0,0-0.1-0.1-0.2-0.1c-0.1,0-0.1-0.1-0.2-0.2c-0.1-0.1-0.1-0.1-0.2-0.2c0,0,0,0,0-0.1c0,0,0,0,0-0.1c0,0,0-0.1-0.1-0.1
					c0-0.1-0.1-0.2-0.1-0.2c0-0.1-0.1-0.2-0.1-0.2c0,0,0-0.1-0.1-0.1C16,9.1,16,9,16,9c-0.1-0.1-0.1-0.3-0.2-0.4
					c0-0.1-0.1-0.1-0.1-0.1c0,0-0.1-0.1-0.1-0.1c0,0,0,0-0.1-0.1c0,0,0,0,0,0L15.6,8.1z"/>
			</g>
		</g>
		<g>
			<g>
				<path fill="#425A6B" d="M11.8,8.8c0,0,0,0,0.1,0c0.1,0,0.2,0.1,0.3,0.1c0.1,0,0.3,0.1,0.4,0.2c0,0,0,0,0,0c0,0,0,0,0,0
					c0,0,0.1,0.1,0.1,0.1c0.1,0.1,0.1,0.1,0.2,0.2c0.1,0.1,0.2,0.3,0.3,0.4c0.1,0.1,0.2,0.2,0.3,0.3c0,0,0.1,0.1,0.1,0.1
					c0,0,0.1,0.1,0.1,0.1c0,0,0.1,0,0.1,0c0,0,0,0,0,0s0,0,0,0c0,0,0,0-0.1,0c0,0-0.1,0-0.1-0.1c0,0-0.1-0.1-0.1-0.1
					c-0.1-0.1-0.2-0.2-0.3-0.3c-0.1-0.1-0.2-0.2-0.3-0.4c-0.1-0.1-0.1-0.1-0.2-0.2c0,0-0.1,0-0.1-0.1c0,0,0,0,0,0c0,0,0,0,0,0
					c-0.1-0.1-0.2-0.1-0.4-0.2c-0.1,0-0.2-0.1-0.3-0.1c-0.1,0-0.1,0-0.1,0L11.8,8.8z"/>
			</g>
		</g>
		<g>
			<g>
				<path fill="#425A6B" d="M10.3,6.6c0,0,0,0.1,0.1,0.2c0,0.1,0.1,0.1,0.1,0.2c0,0.1,0.1,0.2,0.1,0.2c0,0,0.1,0.1,0.1,0.1
					c0,0,0.1,0.1,0.1,0.1C10.9,7.6,11,7.6,11,7.7c0.1,0,0.1,0.1,0.1,0.1c0,0,0.1,0,0.1,0s0,0-0.1,0c0,0-0.1,0-0.2-0.1
					c-0.1,0-0.1-0.1-0.2-0.1c0,0-0.1-0.1-0.1-0.1c0,0-0.1-0.1-0.1-0.1c-0.1-0.1-0.2-0.3-0.3-0.4c-0.1-0.1-0.1-0.2-0.1-0.2L10.3,6.6z
					"/>
			</g>
		</g>
		<g>
			<g>
				<path fill="#425A6B" d="M10.9,10.3C10.9,10.3,10.9,10.3,10.9,10.3c0,0.1,0,0.1,0,0.1c0,0,0,0,0,0c0,0,0,0,0,0c0,0,0,0.1,0,0.1
					c0,0,0,0.1,0,0.1c0,0,0,0.1,0,0.1c0,0,0,0.1,0,0.2c0,0.1,0.1,0.2,0.1,0.3c0.1,0.1,0.1,0.2,0.2,0.4c0.1,0.1,0.2,0.2,0.2,0.4
					c0.1,0.1,0.2,0.2,0.3,0.3c0,0,0.1,0,0.1,0.1c0,0,0.1,0,0.1,0.1c0.1,0,0.1,0.1,0.2,0.1c0.1,0.1,0.2,0.2,0.4,0.3
					c0.1,0,0.1,0.1,0.2,0.1c0,0,0.1,0.1,0.1,0.2c0.1,0.1,0.2,0.2,0.2,0.3c0.1,0.1,0.1,0.2,0.1,0.3c0,0.1,0.1,0.2,0.1,0.2
					c0,0,0,0.1,0,0.1c0,0,0,0,0,0.1c0,0,0,0.1,0,0.1s0,0,0-0.1c0,0,0,0,0-0.1c0,0,0-0.1,0-0.1c0-0.1,0-0.1-0.1-0.2
					c0-0.1-0.1-0.2-0.1-0.3c-0.1-0.1-0.1-0.2-0.2-0.3c0,0-0.1-0.1-0.1-0.1c0,0-0.1-0.1-0.2-0.1c-0.1-0.1-0.2-0.2-0.4-0.2
					c-0.1,0-0.1-0.1-0.2-0.1c0,0-0.1,0-0.1-0.1c0,0-0.1,0-0.1-0.1c-0.1-0.1-0.2-0.2-0.3-0.3c-0.1-0.1-0.2-0.2-0.3-0.4
					c-0.1-0.1-0.2-0.2-0.2-0.4c-0.1-0.1-0.1-0.2-0.1-0.3c0-0.1,0-0.1-0.1-0.2c0-0.1,0-0.1,0-0.1c0,0,0-0.1,0-0.1c0,0,0-0.1,0-0.1
					c0,0,0,0,0,0c0,0,0,0,0,0c0,0,0,0,0-0.1c0,0,0-0.1,0-0.1L10.9,10.3z"/>
			</g>
		</g>
	</g>
	<g>
		<g>
			<path fill="#425A6B" d="M17.5,12.7c-0.1,0.5-0.5,1-0.5,1.6c0-0.4,0-0.9,0-1.3c0-0.2,0-0.4-0.1-0.6c-0.2-0.3-0.5-0.4-0.7-0.6
				c-0.5-0.4-0.8-1-0.8-1.7l0.5-0.6c0.2,0.3,0.4,0.6,0.6,0.8c0.3,0.4,0.5,0.7,0.7,1.1C17.4,11.8,17.5,12.2,17.5,12.7z"/>
		</g>
	</g>
	<g>
		<path fill="#48B9A5" d="M12.9,27.9c0,0,0.5,0.8,0.9,1.6c-0.2-0.9-0.5-1.9-0.6-2.3c-0.2-0.6,0-2.2,0-2.4c0-0.2,0.2-0.2,0.5-0.3
			c0.3-0.1,1.1-0.5,1.5-0.7c0.4-0.1,0.5-0.2,0.2-0.2c-0.3,0-0.8,0.3-1.1,0.5c-0.3,0.2-0.7,0.3-0.6,0.2c0.1-0.1,0.5-0.4,0.8-0.6
			c0.3-0.2,0.8-0.2,0.9-0.3c0.1-0.1-0.4,0-0.9,0.2c-0.5,0.2-0.6,0.5-1.1,0.7c-0.5,0.3,0-0.1-0.6-0.2c-0.6,0-0.8,0.7-0.4,0.3
			c0.3-0.3,0.5-0.2,0.6-0.1c0.1,0.1,0.1,0.5,0,1.3C12.9,26.4,12.9,27.9,12.9,27.9z"/>
	</g>
	<g>
		<g>
			<path fill="#CED6E0" d="M10.6,12.8c-0.4,0.2-0.9,0.4-1.4,0.8c-1,1,0.3,0.5,0.3,0.5c0.7-0.2,1.2-0.5,1.6-0.7
				C10.9,13.2,10.7,13,10.6,12.8z"/>
		</g>
	</g>
	<g>
		<g>
			<path fill="#FFD15C" d="M21.1,20.9c-0.1-0.2-0.2-0.3-0.4-0.3c-0.2,0-0.5,0-0.7,0.1c-0.2,0.1-0.8,0.2-1,0.2c-0.3,0-0.7-0.6-1-0.9
				c-0.3-0.3-1.1-1-1.6-1.9c-0.5-0.9-1.3-1.9-1.5-2c-0.2-0.1-0.9-0.6-1-0.9c-0.1-0.3-1.2-1.5-1.4-1.8s-0.7-0.8-0.7-0.8
				c-0.5,0-1.6,0.2-2.5,1.1c0.3,0.7,1.8,2,3.4,3.3c0.2,0.1,0.6,0.5,1,1c0.4,0.5,2.2,2.1,2.3,2.2c0.2,0.1,2,1.3,2.1,1.5
				c0.1,0.2,0.3,0.2,0.8,0.3c0.5,0.1,0.4-0.5,0.6-0.6c0.1-0.1,0.4,0,0.6,0.2c0.2,0.2,0.3,0.5,0.3,0.5s0.8,0,0.9-0.1
				c0.1,0,0-0.4,0-0.7C21.2,21.2,21.1,21,21.1,20.9z"/>
		</g>
	</g>
	<g>
		<g>
			<g>
				<path fill="#425A6B" d="M18.7,45.2c0,0,0.2,0.4-0.1,0.6c-0.3,0.1-0.6,0.3-1.3,0.3c-0.8,0-2.6-0.9-3.4-1.3
					c-0.8-0.5,0.3-1.7,0.3-1.7l2,0.9L18.7,45.2z"/>
			</g>
		</g>
		<g>
			<g>
				<path fill="#344A5E" d="M11.3,44.9l0,0.6l0.6,0.3l0.1-0.3c0,0,0.6,0.3,0.7,0.5c0.1,0.1,0.5,0.3,1,0.3c0.4,0,1.2-0.1,1.7-0.2
					c0.2,0,0.5-0.1,0.6-0.2c0,0,0.3-0.1,0.1-0.4l0,0L14,45.4L11.3,44.9z"/>
			</g>
		</g>
		<g>
			<g>
				<path fill="#344A5E" d="M15,35.5c0,0,0.3,0.7,0.9,0.8c0.6,0.2,1.8,0.3,2.2,0c0,0-0.2,1.2-0.4,1.8c-0.2,0.6-0.9,2.6-1,3.2
					c-0.2,0.5-0.3,1.6,0,2.1c0.3,0.5,1.7,1.5,1.9,1.6c0.2,0.1,0.1,0.6-0.4,0.7c-0.5,0.1-1.4,0.1-2.1-0.2c-0.7-0.3-2.6-1.5-2.6-2
					c-0.1-0.5,0.2-1.1,0.4-1.5c0.2-0.4,0-1.7,0.1-2.2"/>
			</g>
		</g>
	</g>
	<g>
		<path fill="#CED6E0" d="M15.3,40.5"/>
	</g>
	<g>
		<g>
			<path fill="#425A6B" d="M9.5,36.8c0,0,1,0.2,2,0c1-0.2,1.3-0.5,1.3-0.5s0.2,0.8,0.2,1.1c0,0.3,0.5,3.2,0.5,3.4
				c0,0.3,0.3,2,0.7,2.6c0.4,0.6,1.3,1.2,1.6,1.3c0.3,0.1,0.5,0.7,0.5,0.7s-1,0.3-1.8,0.4c-0.9,0.1-1.1,0.1-1.5-0.1
				s-0.5-0.3-0.9-0.6s-0.7-0.4-0.7-0.4s0-0.6,0.1-1.1c0,0-0.3-0.5-0.4-1.1c-0.1-0.5-0.6-2.1-0.7-2.5C10.2,39.7,9.5,37.6,9.5,36.8z"
				/>
		</g>
	</g>
	<g>
		<g>
			<polygon fill="#E8EAE8" points="39.4,34.9 25.1,34.9 22,25.7 21.2,25.1 20.9,23.7 39.3,27.7 			"/>
		</g>
	</g>
	<g>
		<g>
			
				<rect x="18.9" y="29.3" transform="matrix(0.4689 0.8833 -0.8833 0.4689 39.2896 -6.4853)" fill="#E8EAE8" width="12.3" height="0.3"/>
		</g>
	</g>
	<g>
		<g>
			<polyline fill="#CED6E0" points="39.4,34.9 41.6,33.6 41.6,26.7 39.3,27.7 			"/>
		</g>
	</g>
	<g>
		<g>
			<polygon fill="#CED6E0" points="23.7,44.8 23.4,44.8 23.4,43.1 23.4,43.1 27.7,35 25,35 21.8,25.8 21.1,25.2 20.5,23 20,22.4 
				20.2,22.2 20.8,22.9 21.4,25 22.1,25.6 22.1,25.7 25.2,34.7 28.2,34.7 23.7,43.2 			"/>
		</g>
	</g>
	<g>
		<g>
			<g>
				<path fill="#CED6E0" d="M38,45.7C38,45.7,38,45.7,38,45.7l-16.7-0.9c-0.1,0-0.1-0.1-0.1-0.2l-0.1-1.5c0,0,0-0.1,0-0.1l4.6-8.3
					l-4-12.1l-0.7-0.5c-0.1,0-0.1-0.1,0-0.2c0-0.1,0.1-0.1,0.2,0l0.8,0.5c0,0,0.1,0,0.1,0.1L26,34.8c0,0,0,0.1,0,0.1l-4.6,8.3l0,1.3
					L38,45.4c0.1,0,0.2,0.1,0.1,0.2C38.2,45.7,38.1,45.7,38,45.7z"/>
			</g>
		</g>
	</g>
	<g>
		<g>
			<g>
				<g>
					<g>
						<path fill="#344A5E" d="M22.6,48H22l-0.1-1l-0.1-1h0.6c0.3,0,0.5,0.5,0.6,1C23,47.5,22.8,48,22.6,48z"/>
					</g>
				</g>
			</g>
			<g>
				<g>
					<path fill="#425A6B" d="M22.4,47c0,0.6-0.1,1-0.4,1c-0.3,0-0.5-0.5-0.6-1c0-0.6,0.1-1,0.4-1C22.1,46,22.3,46.4,22.4,47z"/>
				</g>
			</g>
			<g>
				<g>
					<path fill="#F3F3F3" d="M22,47.6c-0.2,0-0.3-0.3-0.3-0.6l-0.3-0.2c-0.1-0.1-0.1-0.2-0.1-0.3l0-0.9l0.5,0l0.1,0.8c0,0,0,0,0.1,0
						c0.2,0,0.3,0.3,0.3,0.6C22.2,47.3,22.1,47.6,22,47.6z"/>
				</g>
			</g>
			<g>
				<g>
					<path fill="#344A5E" d="M22.1,47c0,0.2,0,0.3-0.1,0.3c-0.1,0-0.2-0.2-0.2-0.3c0-0.2,0-0.3,0.1-0.3C22,46.6,22.1,46.8,22.1,47z"
						/>
				</g>
			</g>
		</g>
		<g>
			<g>
				<g>
					<g>
						<path fill="#F05640" d="M20.8,45.7c0,0.1,0.4,0.2,1,0.2c0.5,0,1-0.1,1-0.2v-0.6c0-0.1-0.4-0.2-1-0.2c-0.5,0-1,0.1-1,0.2V45.7z
							"/>
					</g>
				</g>
				<g>
					<g>
						<g>
							<ellipse fill="#F26F5A" cx="21.8" cy="45.1" rx="1" ry="0.2"/>
						</g>
					</g>
				</g>
			</g>
			<g>
				<g>
					<g>
						<path fill="#CED6E0" d="M21.1,45.1c0,0.1,0.3,0.2,0.7,0.2s0.7-0.1,0.7-0.2v-1.9c0-0.1-0.3-0.2-0.7-0.2s-0.7,0.1-0.7,0.2V45.1z
							"/>
					</g>
				</g>
				<g>
					<g>
						<g>
							<ellipse fill="#ACB2BA" cx="21.8" cy="43.2" rx="0.7" ry="0.2"/>
						</g>
					</g>
				</g>
			</g>
		</g>
	</g>
	<g>
		<g>
			<g>
				<path fill="#F05640" d="M37.9,45l-0.1-0.2c0,0,2.2-1.5,2.4-1.6c0.2,0,0.3,0.1,0.3,0.1L40.2,44C39.5,44.5,38.2,45.2,37.9,45z"/>
			</g>
		</g>
		<g>
			<g>
				<path fill="#F26F5A" d="M40.5,44.2c0,0-2.1,1.4-2.3,1.5c-0.2,0.1-0.5,0-0.5,0l0.1-0.9c0.1,0,0.2,0.1,0.3,0
					c0.2,0,2.3-1.5,2.3-1.5L40.5,44.2z"/>
			</g>
		</g>
	</g>
	<g>
		<g>
			<path fill="#344A5E" d="M19.3,22.2c-0.1-0.1-0.2-0.2-0.2-0.3c0-0.1,0-0.3,0.1-0.6c0.4-0.4,2.3,1,2.3,1l-1.3,0.5L19.3,22.2z"/>
		</g>
	</g>
</g>
</svg>
