<?xml version="1.0" encoding="utf-8"?>
<!-- Generator: Adobe Illustrator 19.0.1, SVG Export Plug-In . SVG Version: 6.00 Build 0)  -->
<svg version="1.1" id="Layer_1" xmlns="http://www.w3.org/2000/svg" xmlns:xlink="http://www.w3.org/1999/xlink" x="0px" y="0px"
	 viewBox="0 0 48 48" style="enable-background:new 0 0 48 48;" xml:space="preserve">
<style type="text/css">
	.st0{fill:#FFD15C;}
	.st1{fill:#415A6B;}
	.st2{fill:#F7B64C;}
	.st3{fill:#CED6E0;}
	.st4{fill:#344A5E;}
	.st5{fill:#F3F3F3;}
	.st6{fill:#F05540;}
	.st7{fill:#F3705A;}
	.st8{fill:#66C6B9;}
	.st9{fill:#55C0EB;}
	.st10{fill:#F5F6FB;}
	.st11{fill:#4ABAA5;}
	.st12{fill:#ADB3BA;}
	.st13{fill:#E8EAE9;}
	.st14{fill:#2E4556;}
	.st15{fill:#8AD7F8;}
	.st16{fill:#FFFFFF;}
	.st17{fill:#E54838;}
	.st18{fill:#3EAF99;}
	.st19{fill:#EFA943;}
	.st20{fill:#4CAEE5;}
	.st21{fill:#293F4F;}
	.st22{fill:#2D4456;}
	.st23{fill:#2E4454;}
	.st24{fill:#2A3F4F;}
	.st25{fill:#2D4151;}
	.st26{fill:#E89E3D;}
	.st27{fill:#2B4151;}
	.st28{fill:#2A4051;}
	.st29{fill:#2C4151;}
	.st30{fill:#EBEAE8;}
	.st31{fill:#3AA590;}
	.st32{fill:#E84534;}
	.st33{fill:none;}
</style>
<g>
	<g>
		<g>
			<polygon class="st1" points="32,10.6 20.8,17.1 20.8,20.6 32,14 			"/>
			<polygon class="st1" points="32,32.5 20.8,25.9 20.8,29.4 32,36 			"/>
		</g>
	</g>
	<g>
		<g>
			<path class="st13" d="M13.2,33.9c-5.5,0-9.9-4.5-9.9-9.9c0-5.5,4.5-9.9,9.9-9.9c5.5,0,9.9,4.5,9.9,9.9
				C23.2,29.5,18.7,33.9,13.2,33.9z"/>
		</g>
		<g>
			<g>
				<g>
					<path class="st4" d="M16.9,34.6c0.7-0.2,1.4-0.4,2-0.6c0.8-0.4,1.6-0.8,2.4-1.3c-0.2-0.9-0.5-1.6-0.6-1.9
						c-0.4-0.7-1-1.6-1.5-1.7c-0.5-0.1-0.7-0.1-1.4-0.6c-0.7-0.4-1.9-0.7-1.9-0.7s0,0.4,0.1,1.1C16.1,29.5,16.7,33.1,16.9,34.6z"/>
				</g>
			</g>
			<g>
				<g>
					<g>
						<path class="st0" d="M16.1,22.3c0,0,0.1,1.6-0.7,2.9L15,30L10.4,29l0.2-3.4c0,0-0.2-2.9-0.2-3s-0.3-2.1,0.3-4
							c0.6-1.9,2.4-2.2,3.4-2.1c1,0.1,2.4,0.9,2.4,1.8C16.5,19.3,16.2,21.9,16.1,22.3z"/>
					</g>
				</g>
				<g>
					<g>
						<path class="st3" d="M16.7,34.7L16,28l-3.3,0.2L11,28.5l3.3,6.6C15.1,35,15.9,34.9,16.7,34.7z"/>
					</g>
				</g>
				<g>
					<g>
						<polygon class="st7" points="14,28.7 14.2,28.8 14.2,28.5 						"/>
					</g>
					<g>
						<path class="st7" d="M16.5,34.8c-0.2-1-0.3-2-0.5-2.4c-0.5-1.2-1.1-3.2-1.1-3.2l-0.6-0.4l-0.1,0.5c0,0,0.1,1.3,0,2.1
							C14,31.8,14,33.5,14,35.2C14.8,35.1,15.6,34.9,16.5,34.8z"/>
					</g>
				</g>
				<g>
					<g>
						<path class="st7" d="M13.3,27.8l0.7,0l0.7,0l0.5,0.2c0,0-0.3,0.9-0.3,1.2c-0.2-0.1-0.5-0.1-0.7,0.1c0,0-0.4-0.9-0.8-1.2
							C12.8,27.9,13.3,27.8,13.3,27.8z"/>
					</g>
				</g>
				<g>
					<g>
						
							<ellipse transform="matrix(-0.9763 -0.2165 0.2165 -0.9763 27.0017 46.6781)" class="st0" cx="16.1" cy="21.9" rx="0.6" ry="1.2"/>
					</g>
				</g>
				<g>
					<g>
						<path class="st1" d="M10.5,22.2l0.4,0c0,0-0.3-1.2-0.1-1.8c0.2-0.6,0.4-0.5,0.4-1.3c0-0.8,0-1.3,0.6-1.4
							c0.6-0.2,2.7,0.2,3.4,0.3s1,1,1.1,1.4c0,0.4,0,2.3,0,2.3h0.1c0,0,0.1-1.4,0.3-2.3c0.2-0.8,0-3.2-2.5-3.8s-4,0.9-4.4,2
							c-0.4,1-0.1,3.2,0,3.4C10,21.1,10.6,21.8,10.5,22.2z"/>
					</g>
				</g>
				<g>
					<g>
						
							<ellipse transform="matrix(0.9763 -0.2165 0.2165 0.9763 -4.4944 2.6986)" class="st0" cx="10.1" cy="21.9" rx="0.6" ry="1.2"/>
					</g>
				</g>
				<g>
					<path class="st2" d="M13.7,26.2c-1.2-0.3-2.5-1.6-2.8-2c0,0,0.9,1.8,2.7,2.7c0.8,0.4,1.3,0.6,1.7,0.8l0.2-2.4
						C15.4,25.2,14.8,26.5,13.7,26.2z"/>
				</g>
			</g>
			<g>
				<g>
					<path class="st5" d="M10.6,25.4c0,0,2,1.8,3.4,2.3l-1.3,2.1l-2.6-3.4L10.6,25.4z"/>
				</g>
			</g>
			<g>
				<g>
					<path class="st4" d="M5.1,31.9c3,3.2,6.4,3.7,10.1,3.2c-0.9-1.9-2.3-4.5-2.8-5c-0.7-0.8-1.3-2-1.3-2l-1.3-1.1
						c0,0-3.6,1.9-4.1,2.1c-0.4,0.2-1,0.8-1.2,2.2C4.6,31.4,4.9,31.6,5.1,31.9z"/>
				</g>
			</g>
			<g>
				<g>
					<path class="st1" d="M11.2,28.7l-0.5,0.4c0,0,2.8,3.1,4.2,6c0.3,0,0.6-0.1,0.9-0.1c-0.2-0.7-0.4-1.4-0.6-1.9
						c-0.7-1.6-2.9-4.8-3.8-5.7c-0.9-0.9-1.3-1.4-1.3-1.4l-0.8,1c0.2,0.2,1.1,1.5,1.1,1.5L11.2,28.7z"/>
				</g>
			</g>
			<g>
				<g>
					<path class="st1" d="M16.3,34.8c0.4-0.1,0.8-0.2,1.2-0.3c0.3-2.4,0-5,0-5L16.4,29l0.5-0.3l-1.3-1.3c0,0-0.5-0.1-0.1,1
						C15.7,29.3,16.2,32.6,16.3,34.8z"/>
				</g>
			</g>
			<g>
				<g>
					<path class="st5" d="M15.3,26.5c0,0-0.3,1-0.7,1.3l0.7,1.4c0,0,0.5-1.1,0.5-1.7S15.3,26.5,15.3,26.5z"/>
				</g>
			</g>
		</g>
		<g>
			<g>
				<path class="st7" d="M13.2,10.8C5.9,10.8,0,16.7,0,24s5.9,13.2,13.2,13.2c7.3,0,13.2-5.9,13.2-13.2S20.5,10.8,13.2,10.8z
					 M13.2,33.9c-5.5,0-9.9-4.4-9.9-9.9c0-5.5,4.5-9.9,9.9-9.9s9.9,4.5,9.9,9.9C23.2,29.5,18.7,33.9,13.2,33.9z"/>
			</g>
		</g>
	</g>
	<g>
		<path class="st13" d="M37.2,45.3c-4.5,0-8.1-3.6-8.1-8.1c0-4.5,3.6-8.1,8.1-8.1c4.5,0,8.1,3.6,8.1,8.1
			C45.3,41.7,41.7,45.3,37.2,45.3z"/>
	</g>
	<g>
		<g>
			<path class="st0" d="M39.5,35.5c0,0-0.1,1.3-0.4,1.8l-0.1,2.6L37,41.1l-1.7-1.7l-0.1-2c0,0-0.4-1.4-0.4-2.6c0-1.3,0-1.3,0-1.3
				s-0.1-1.6,1.5-1.9s2.5-0.2,2.9,0.3C39.6,32.5,39.5,35.5,39.5,35.5z"/>
		</g>
		<g>
			<path class="st2" d="M37.5,38.6c-0.8-0.1-1.7-0.7-2.2-1.2c0,0,0,0,0,0l0,0c0.2,0.3,1,1.4,2.4,2c0.5,0.2,1.1,0.3,1.6,0.3l0-2.5
				C39.2,37.3,38.3,38.7,37.5,38.6z"/>
		</g>
		<g>
			<ellipse transform="matrix(0.9804 0.1971 -0.1971 0.9804 7.6924 -7.1222)" class="st0" cx="39.6" cy="35.1" rx="0.4" ry="0.8"/>
		</g>
		<g>
			
				<ellipse transform="matrix(-0.9442 0.3295 -0.3295 -0.9442 79.2636 57.424)" class="st0" cx="34.8" cy="35.4" rx="0.4" ry="0.8"/>
		</g>
		<g>
			<path class="st1" d="M34.9,35.5l0.1,0c0-0.1-0.1-0.9,0-1.2c0.1-0.4,0.3-0.5,0.3-1c0-0.5,0.2-0.9,0.6-1s2,0.2,2.6,0.1
				c0.6-0.1,0.8,0.5,0.8,1.1c0,0.5,0.2,1,0.2,1.3l0,0.5l0.1,0c0.1-0.5,0.9-3-0.1-3.2c0,0,0.2-1.3-1.4-1.6c-1.6-0.2-2.7,0.2-3.1,1.2
				c-0.5,1-0.5,2.7-0.4,3.1C34.7,35.1,34.8,35.4,34.9,35.5z"/>
		</g>
		<g>
			<g>
				<path class="st3" d="M39.8,45.7l0.1-4.8l-0.6-1.1l-2.1,0.7l-0.5,0.1L35.7,40c-0.5-0.3-1.1,0.1-1.1,0.6l-0.1,5
					C36.3,46.1,38,46,39.8,45.7z"/>
			</g>
		</g>
		<g>
			<g>
				<path class="st4" d="M43.8,44.5l-0.1-2.3c0-0.9-0.6-1.7-1.5-1.9l-2.3-0.6c0,0,0,3.5-0.4,6.2C40.9,45.5,42.4,45.1,43.8,44.5z"/>
			</g>
		</g>
		<g>
			<g>
				<path class="st4" d="M31.5,44.5c1.1,0.6,2.3,1,3.4,1.2c-0.4-2.7-0.4-6.2-0.4-6.2l-2.3,0.6c-0.9,0.2-1.5,1-1.5,1.9L30.6,44
					C30.9,44.2,31.2,44.3,31.5,44.5z"/>
			</g>
		</g>
		<g>
			<g>
				<path class="st5" d="M39.2,38.4c0,0-0.1,1.1-1.9,2.1c0,0,1.6,1,1.8,1.4c0,0,0.5-1.9,0.5-2.3C39.5,39.1,39.2,38.4,39.2,38.4z"/>
			</g>
			<g>
				<g>
					<path class="st1" d="M38.9,45.8c0.4-0.1,0.9-0.1,1.3-0.2C40.9,42.9,41,41,41,41l-0.8-0.1l0.7-0.5c0,0-0.4-0.5-0.9-0.8
						s-0.5-0.7-0.7-0.9c0,0,0.2,2.4,0,4.1C39.2,43.4,39,44.6,38.9,45.8z"/>
				</g>
			</g>
			<g>
				<path class="st5" d="M35.3,38.4c0,0,0.1,1.1,1.9,2.1c0,0-1.6,1-1.8,1.4c0,0-0.5-1.9-0.5-2.3C34.9,39.1,35.3,38.4,35.3,38.4z"/>
			</g>
			<g>
				<g>
					<path class="st1" d="M34.2,45.6c0.4,0.1,0.9,0.2,1.3,0.3c-0.2-1.3-0.3-2.4-0.4-3.1c-0.2-1.7,0-4.1,0-4.1
						c-0.2,0.2-0.3,0.6-0.7,0.9s-0.9,0.8-0.9,0.8l0.7,0.5L33.4,41C33.4,41,33.5,42.9,34.2,45.6z"/>
				</g>
			</g>
		</g>
		<g>
			<g>
				<polygon class="st7" points="37.8,42.4 38.5,41.8 37.2,40.5 35.9,41.8 36.6,42.4 				"/>
			</g>
			<g>
				<path class="st7" d="M38.1,45.9l-0.3-3.5h-1.3l-0.3,3.5C36.9,46,37.5,46,38.1,45.9z"/>
			</g>
		</g>
	</g>
	<g>
		<g>
			<path class="st9" d="M37.2,26.4c-6,0-10.8,4.8-10.8,10.8S31.2,48,37.2,48c6,0,10.8-4.8,10.8-10.8S43.2,26.4,37.2,26.4z
				 M37.2,45.3c-4.5,0-8.1-3.6-8.1-8.1c0-4.5,3.6-8.1,8.1-8.1s8.1,3.6,8.1,8.1C45.3,41.7,41.7,45.3,37.2,45.3z"/>
		</g>
	</g>
	<g>
		<g>
			<path class="st13" d="M37.2,18.9c-4.5,0-8.1-3.6-8.1-8.1c0-4.5,3.6-8.1,8.1-8.1c4.5,0,8.1,3.6,8.1,8.1
				C45.3,15.3,41.7,18.9,37.2,18.9z"/>
		</g>
		<g>
			<g>
				<g>
					<g>
						<g>
							<path class="st0" d="M39.4,9.7c-0.2,0.6,0,1.1,0.3,1.1c0.3,0,0.7-0.5,0.8-1c0.2-0.6,0-1.1-0.3-1.1
								C39.9,8.7,39.5,9.1,39.4,9.7z"/>
						</g>
					</g>
				</g>
				<g>
					<g>
						<g>
							<path class="st0" d="M34.6,7.7l0,0.7c0,0-0.2,2.8,0.6,3.6v2.9h2.9c0.5-0.5,0.8-0.8,1.3-1.3l0-1.8c0,0,0.2-0.9,0.2-1.2
								s0-0.7,0-0.7s0.7-2,0.4-3.1s-2.8-2.3-3.7-1.9C35.4,5.2,34.5,6.1,34.6,7.7z"/>
						</g>
					</g>
				</g>
				<g>
					<g>
						<g>
							<path class="st1" d="M39.6,9.8c0,0,0.1-0.5,0-0.9c-0.1-0.4-0.4-1-0.4-1.7c0-0.7,0-1-0.4-1.2c-0.4-0.2-1.9-0.6-3.3-0.2
								c-0.4,0.1-0.7,0.4-0.7,0.8c-0.1,0.4-0.1,1.2-0.1,1.4s-0.1,0.4-0.1,0.4s-0.5-2.5,0.8-3.8s3-0.6,4-0.1s1.2,1.5,1.3,1.9
								c0,0.4-0.2,1.9-0.5,2.5C40.1,9,40.1,9.1,39.6,9.8L39.6,9.8z"/>
						</g>
					</g>
				</g>
				<g>
					<g>
						<path class="st2" d="M35.2,12c0,0,0.7,0.7,1.7,0.7c1.1-0.1,2.4-1,2.7-1.8c0,0-0.5,1.7-1.7,2.8c-0.6,0.6-1.5,1-2.3,1.3h-0.4V12
							z"/>
					</g>
				</g>
				<g>
					<g>
						<g>
							<path class="st3" d="M36.2,19.7l1.3-5.1L37,14.4l-0.7-0.1h-0.2l-1.5,0.1l-0.9,5C34.4,19.7,35.2,19.8,36.2,19.7z"/>
						</g>
					</g>
				</g>
				<g>
					<g>
						<g>
							<path class="st6" d="M35.9,19.7l0.6-3.3l-0.5-1.3L35,16.4c0,0-0.6,1.7-1,3.1C34.6,19.7,35.2,19.7,35.9,19.7z"/>
						</g>
					</g>
				</g>
				<g>
					<g>
						<g>
							<path class="st7" d="M36.9,15.6l-0.7,0.9c0,0-0.6-0.6-1.3-0.1c0,0,0.5-1.9,0.4-2c0-0.1,0.7-0.1,0.7-0.1l0.3,0
								C36.4,14.3,36.9,15.2,36.9,15.6z"/>
						</g>
					</g>
				</g>
				<g>
					<g>
						<g>
							<g>
								<path class="st13" d="M39.5,11.7c0,0,0,0.3-0.5,0.7s-1.3,0.8-1.9,1.2c-0.6,0.4-0.8,0.6-0.8,0.6l0.7,2.1l3.1-3
									C40,13.4,39.8,12.5,39.5,11.7z"/>
							</g>
						</g>
					</g>
					<g>
						<g>
							<g>
								<path class="st13" d="M35.2,12.5c0,0,0,0.6,0.2,1s0.7,0.7,0.7,0.7s-0.6,0.5-0.8,0.9c-0.2,0.5-0.5,0.9-0.5,0.9
									s-0.1-1.9-0.1-1.9S35,13.1,35.2,12.5z"/>
							</g>
						</g>
					</g>
				</g>
			</g>
			<g>
				<g>
					<g>
						<path class="st4" d="M36.7,19.7c1.1-0.1,2.1-0.3,3.1-0.6c0-0.2,0-0.3,0-0.4c0.1-0.3,0.6-1.9,1.9-3.2c1.3-1.3,2.6-0.7,2.6-0.7
							c-0.2-0.1-1.5-0.9-2.3-1.3c-0.8-0.4-1.3-0.5-1.3-0.5S39,14.9,37,16.6c-1.1,0.9-1.7,2.2-2.1,3.1C35.5,19.7,36.1,19.7,36.7,19.7
							z"/>
					</g>
				</g>
			</g>
			<g>
				<g>
					<g>
						<path class="st1" d="M31.6,18.1c0.1-1.5,0.2-2.9,0.2-2.9L31.8,15c0,0-0.4-0.1-0.7,0.5c-0.2,0.3-0.3,0.6-0.5,1
							C30.9,17.1,31.2,17.6,31.6,18.1z"/>
					</g>
				</g>
			</g>
			<g>
				<g>
					<g>
						<path class="st4" d="M33.5,19.4c-0.1-0.3-0.1-0.5-0.1-0.6c0-1.2,1-4.8,1-4.8s-0.5,0.1-1,0.4c-0.5,0.3-1.4,0.5-1.7,0.7
							c-0.2,0.2-0.7,0.9-0.9,2.1C31.6,18.1,32.4,18.9,33.5,19.4z"/>
					</g>
				</g>
			</g>
			<g>
				<g>
					<g>
						<path class="st1" d="M33.1,19.2c0.4,0.2,0.9,0.4,1.4,0.4c0-1,0-2.1,0.1-2.3c0-0.1,0-0.3,0.1-0.5c0.2-0.9,0.2-1.8,0.2-2.7
							c0-0.4,0-0.8,0.1-1.1c-0.3,0.5-0.4,0.6-0.7,0.9c-0.3,0.3-0.7,0.5-0.7,0.5l0,0.4l-0.9,0.5c-0.1,0.3-0.1,1.5,0.3,3.5
							C33.1,19,33.1,19.1,33.1,19.2z"/>
					</g>
				</g>
			</g>
			<g>
				<g>
					<g>
						<path class="st1" d="M35,19.7c0.3-0.7,0.8-1.4,1.6-1.9c1.5-1,3.6-2.4,3.6-2.4l-0.3-0.5l1-0.3c0,0,0-1,0.1-1.3
							c0.1-0.4-0.2-0.2-0.5-0.5c-0.3-0.3-0.6-0.6-0.8-0.5c0,0-0.2,0.4-0.8,0.9c-0.5,0.5-3.1,3-3.5,3.9c-0.3,0.5-0.5,1.7-0.6,2.5
							C34.8,19.7,34.9,19.7,35,19.7z"/>
					</g>
				</g>
			</g>
			<g>
				<g>
					<g>
						<path class="st1" d="M42.6,18.2c0.4-0.1,0.8-0.3,1.2-0.4c0.4-0.5,0.9-0.9,1.3-1.3c-0.1-1.2-0.8-1.6-0.8-1.6l0,0c0,0,0,0,0,0
							c-0.2-0.1-1.4-0.5-2.6,0.7c-1.3,1.3-1.8,2.9-1.9,3.2c-0.1,0.1-0.2,0.3-0.3,0.4C40.6,18.9,41.6,18.6,42.6,18.2z"/>
					</g>
				</g>
			</g>
		</g>
		<g>
			<g>
				<path class="st8" d="M37.2,0c-6,0-10.8,4.8-10.8,10.8s4.8,10.8,10.8,10.8c6,0,10.8-4.8,10.8-10.8S43.2,0,37.2,0z M37.2,18.9
					c-4.5,0-8.1-3.6-8.1-8.1c0-4.5,3.6-8.1,8.1-8.1s8.1,3.6,8.1,8.1C45.3,15.3,41.7,18.9,37.2,18.9z"/>
			</g>
		</g>
	</g>
</g>
</svg>
