<?xml version="1.0" encoding="utf-8"?>
<!-- Generator: Adobe Illustrator 18.0.0, SVG Export Plug-In . SVG Version: 6.00 Build 0)  -->
<!DOCTYPE svg PUBLIC "-//W3C//DTD SVG 1.1//EN" "http://www.w3.org/Graphics/SVG/1.1/DTD/svg11.dtd">
<svg version="1.1" id="Layer_1" xmlns="http://www.w3.org/2000/svg" xmlns:xlink="http://www.w3.org/1999/xlink" x="0px" y="0px"
	 viewBox="0 0 48 48" enable-background="new 0 0 48 48" xml:space="preserve">
<g>
	<g>
		<g>
			<path fill="#F3F3F3" d="M34.6,0L8.4,0c-1.7,0-3,1.3-3,3v42c0,1.7,1.3,3,3,3h31.2c1.7,0,3-1.3,3-3l0-37L34.6,0z"/>
			<polygon fill="#CED6E0" points="34.6,0 42.6,8 34.6,8 			"/>
		</g>
		<g>
			<g>
				<g>
					<rect x="21.9" y="40.6" fill="#CED6E0" width="10.4" height="2"/>
				</g>
				<g>
					<rect x="21.9" y="35.7" fill="#CED6E0" width="16.7" height="2"/>
				</g>
			</g>
		</g>
		<g>
			<g>
				<g>
					<rect x="21.9" y="27.7" fill="#CED6E0" width="10.4" height="2"/>
				</g>
				<g>
					<rect x="21.9" y="22.9" fill="#CED6E0" width="16.7" height="2"/>
				</g>
			</g>
		</g>
		<g>
			<g>
				<g>
					<rect x="21.9" y="14.9" fill="#CED6E0" width="10.4" height="2"/>
				</g>
				<g>
					<rect x="21.9" y="10.1" fill="#CED6E0" width="16.7" height="2"/>
				</g>
			</g>
		</g>
		<g>
			<path fill="#F3705A" d="M14.3,14.9l2.2,2.2c0.4,0.4,1,0.4,1.4,0c0.4-0.4,0.4-1,0-1.4l-2.2-2.2l2.2-2.2c0.4-0.4,0.4-1,0-1.4
				c-0.4-0.4-1-0.4-1.4,0l-2.2,2.2l-2.2-2.2c-0.4-0.4-1-0.4-1.4,0c-0.4,0.4-0.4,1,0,1.4l2.2,2.2l-2.2,2.2c-0.4,0.4-0.4,1,0,1.4
				c0.4,0.4,1,0.4,1.4,0L14.3,14.9z"/>
		</g>
		<g>
			<path fill="#66C6B9" d="M19.4,23.2c-0.4-0.4-1-0.4-1.4,0l-4.3,4.3l-1.8-1.8c-0.4-0.4-1-0.4-1.4,0c-0.4,0.4-0.4,1,0,1.4l2.3,2.3
				c0.5,0.5,1.3,0.5,1.8,0l4.8-4.8C19.8,24.2,19.8,23.6,19.4,23.2z"/>
		</g>
		<g>
			<path fill="#66C6B9" d="M19.4,36c-0.4-0.4-1-0.4-1.4,0l-4.3,4.3l-1.8-1.8c-0.4-0.4-1-0.4-1.4,0c-0.4,0.4-0.4,1,0,1.4l2.3,2.3
				c0.5,0.5,1.3,0.5,1.8,0l4.8-4.8C19.8,37.1,19.8,36.4,19.4,36z"/>
		</g>
	</g>
</g>
</svg>
