<?xml version="1.0" encoding="utf-8"?>
<!-- Generator: Adobe Illustrator 18.0.0, SVG Export Plug-In . SVG Version: 6.00 Build 0)  -->
<!DOCTYPE svg PUBLIC "-//W3C//DTD SVG 1.1//EN" "http://www.w3.org/Graphics/SVG/1.1/DTD/svg11.dtd">
<svg version="1.1" id="Layer_1" xmlns="http://www.w3.org/2000/svg" xmlns:xlink="http://www.w3.org/1999/xlink" x="0px" y="0px"
	 viewBox="0 0 48 48" enable-background="new 0 0 48 48" xml:space="preserve">
<g>
	<g>
		<g>
			<g>
				<g>
					<path fill="#344A5E" d="M21.3,26.8c0.5,1,1.5,1.6,2.7,1.6c1.2,0,2.2-0.7,2.7-1.6H21.3z"/>
				</g>
			</g>
			<g>
				<g>
					<g>
						<path fill="#E8EAE9" d="M28,21.9c0.4-1.3,1.2-2.4,2.1-3.4c1.5-1.5,2.4-3.6,2.4-5.8C32.6,8,28.9,4,24.3,3.9
							c-4.9-0.1-8.8,3.7-8.8,8.6c0,2.4,1,4.6,2.6,6.2c0.9,0.9,1.6,2,2,3.3H28z"/>
					</g>
					<g>
						<g>
							<path fill="#FFD15C" d="M28.8,11.5c-0.4-0.8-0.9-1.2-1.6-1.3c-0.7-0.1-1.5,0.4-2.1,1.2c-0.3,0.5-0.7,0.7-1.1,0.7
								c-0.4,0-0.7-0.2-1.1-0.7c-0.6-0.8-1.3-1.3-2.1-1.2c-0.7,0.1-1.3,0.5-1.6,1.3c-0.1,0.1-0.1,0.3,0,0.5c1.8,3.9,2.9,7.3,3.2,10
								h1c-0.3-2.8-1.4-6.2-3.2-10.2c0.2-0.3,0.4-0.5,0.7-0.5c0.4,0,0.9,0.3,1.2,0.8c0.5,0.7,1.2,1.1,1.8,1.1h0
								c0.7,0,1.3-0.4,1.8-1.1c0.4-0.5,0.8-0.8,1.2-0.8c0.3,0,0.5,0.2,0.7,0.5c-1.8,4-2.9,7.4-3.2,10.2h1c0.3-2.7,1.4-6,3.2-10
								C28.9,11.8,28.9,11.7,28.8,11.5z"/>
						</g>
					</g>
					<g>
						<g>
							<path fill="#344A5E" d="M27,27.1h-6c-0.5,0-1-0.4-1-1v-4.3H28v4.3C28,26.7,27.5,27.1,27,27.1z"/>
						</g>
					</g>
					<g>
						<path fill="#415A6B" d="M28,23.5h-7.9c-0.5,0-0.8-0.4-0.8-0.8l0,0c0-0.5,0.4-0.8,0.8-0.8H28c0.5,0,0.8,0.4,0.8,0.8l0,0
							C28.8,23.1,28.4,23.5,28,23.5z"/>
					</g>
				</g>
				<g>
					<path fill="#415A6B" d="M28,26.5h-7.9c-0.5,0-0.8-0.4-0.8-0.8l0,0c0-0.5,0.4-0.8,0.8-0.8H28c0.5,0,0.8,0.4,0.8,0.8l0,0
						C28.8,26.1,28.4,26.5,28,26.5z"/>
				</g>
			</g>
		</g>
		<g>
			<rect x="8.8" y="25.8" fill="#F7B64C" width="30.4" height="22.2"/>
			<g>
				<polygon fill="#FFD15C" points="42.1,33.9 39.2,25.8 8.8,25.8 5.9,33.9 				"/>
			</g>
		</g>
		<g>
			<g>
				<path fill="#FFD15C" d="M30.7,19.2L30.7,19.2c0.2-0.2,0.6-0.2,0.8,0l1.2,1.2c0.2,0.2,0.2,0.6,0,0.8h0c-0.2,0.2-0.6,0.2-0.8,0
					L30.7,20C30.5,19.8,30.5,19.4,30.7,19.2z"/>
			</g>
			<g>
				<path fill="#FFD15C" d="M33.5,12.5L33.5,12.5c0-0.3,0.3-0.6,0.6-0.6h1.7c0.3,0,0.6,0.3,0.6,0.6l0,0c0,0.3-0.3,0.6-0.6,0.6h-1.7
					C33.8,13.1,33.5,12.8,33.5,12.5z"/>
			</g>
			<g>
				<path fill="#FFD15C" d="M30.7,5.7L30.7,5.7c-0.2-0.2-0.2-0.6,0-0.8L32,3.6c0.2-0.2,0.6-0.2,0.8,0h0c0.2,0.2,0.2,0.6,0,0.8
					l-1.2,1.2C31.3,6,31,6,30.7,5.7z"/>
			</g>
			<g>
				<path fill="#FFD15C" d="M24,2.9L24,2.9c-0.3,0-0.6-0.3-0.6-0.6V0.6C23.4,0.3,23.7,0,24,0l0,0c0.3,0,0.6,0.3,0.6,0.6v1.7
					C24.6,2.7,24.3,2.9,24,2.9z"/>
			</g>
			<g>
				<path fill="#FFD15C" d="M17.3,5.7L17.3,5.7C17,6,16.7,6,16.4,5.7l-1.2-1.2c-0.2-0.2-0.2-0.6,0-0.8l0,0c0.2-0.2,0.6-0.2,0.8,0
					l1.2,1.2C17.5,5.1,17.5,5.5,17.3,5.7z"/>
			</g>
			<g>
				<path fill="#FFD15C" d="M14.5,12.5L14.5,12.5c0,0.3-0.3,0.6-0.6,0.6h-1.7c-0.3,0-0.6-0.3-0.6-0.6l0,0c0-0.3,0.3-0.6,0.6-0.6h1.7
					C14.2,11.9,14.5,12.1,14.5,12.5z"/>
			</g>
			<g>
				<path fill="#FFD15C" d="M17.3,19.2L17.3,19.2c0.2,0.2,0.2,0.6,0,0.8L16,21.3c-0.2,0.2-0.6,0.2-0.8,0l0,0c-0.2-0.2-0.2-0.6,0-0.8
					l1.2-1.2C16.7,19,17,19,17.3,19.2z"/>
			</g>
		</g>
	</g>
</g>
</svg>
