<?xml version="1.0" encoding="utf-8"?>
<!-- Generator: Adobe Illustrator 19.0.1, SVG Export Plug-In . SVG Version: 6.00 Build 0)  -->
<svg version="1.1" id="Layer_1" xmlns="http://www.w3.org/2000/svg" xmlns:xlink="http://www.w3.org/1999/xlink" x="0px" y="0px"
	 viewBox="0 0 48 48" style="enable-background:new 0 0 48 48;" xml:space="preserve">
<style type="text/css">
	.st0{fill:#E8EAE9;}
	.st1{fill:#CED6E0;}
	.st2{fill:#ADB3BA;}
	.st3{fill:#4ABAA5;}
	.st4{fill:#415A6B;}
	.st5{fill:#8AD7F8;}
	.st6{fill:#FFD15C;}
	.st7{fill:#F3F3F3;}
	.st8{fill:#344A5E;}
	.st9{fill:#FFFFFF;}
	.st10{fill:#F3705A;}
</style>
<g>
	<g>
		<path class="st0" d="M48,2.8v30.3c0,1.5-1.3,2.8-2.8,2.8H2.8c-1.5,0-2.8-1.3-2.8-2.8V2.8C0,1.3,1.3,0,2.8,0h42.4
			C46.7,0,48,1.3,48,2.8z"/>
	</g>
	<g>
		<g>
			<path class="st1" d="M3.3,8.1L3.2,8V7.9c0.1,0,0.2-0.1,0.3-0.1s0.1,0,0.2,0c0,0,0,0,0,0.1c0.1,0,0.1,0,0.2,0c0-0.1,0-0.1-0.1-0.1
				c0,0,0,0-0.1,0H3.6c0-0.1-0.1-0.1-0.1-0.1H3.4c0,0-0.1,0-0.1-0.1c0,0,0,0,0-0.1s0-0.1,0.1-0.1h0.1h0.1c0,0,0.1,0,0.1-0.1
				c0,0,0-0.1,0.1-0.1c0,0,0.1-0.1,0.2-0.1C4,7.1,4.1,7,4.1,7s0.1,0,0.1-0.1l0,0h0.1h0.1c0,0,0.1-0.1,0.1,0c0.1,0,0.1,0,0.2,0.1
				c0,0,0,0,0.1,0C5,7,5,7,5,6.9c0.1,0,0.1,0,0.2,0.1c0,0,0,0,0.1,0s0.2,0,0.2,0h0.1h0.1h0.1h0.1H6c0.1,0,0.1,0,0.2,0h0.1
				c0.1,0,0.2,0,0.3,0h0.1c0,0,0.1,0,0.1,0.1h0.1c0,0,0,0,0-0.1H7l0,0c0.1,0,0.2,0,0.2,0h0.1h0.2l0,0c0,0,0.1,0,0.2,0h0.1v0.1h0.1
				c0-0.1,0-0.1,0-0.1l0,0H8c0,0,0.1,0,0.1,0.1s0.1,0.1,0.1,0.1s0-0.1,0.1-0.1c0,0,0.1-0.1,0.1,0v0.1v0.1c0,0,0.1,0,0.1-0.1H9
				c0.1,0,0.1,0,0.2,0.1h0.1h0.1c0.1,0,0.2,0,0.3,0c0,0,0,0,0.1,0c-0.1,0-0.1,0-0.2-0.1c0,0,0,0,0-0.1c0.1,0,0.1,0,0.2-0.1
				C9.7,7,9.6,7,9.5,6.9c0,0,0,0,0-0.1s-0.1,0-0.1-0.1V6.6l0,0l0,0l0,0l0,0L9.3,6.7c0,0,0,0-0.1,0.1c0,0.1,0,0.1-0.1,0.1l0,0
				c-0.1,0-0.1,0-0.2,0s-0.1,0-0.1,0s0-0.1-0.1-0.1S8.6,6.7,8.5,6.7l0,0V6.6c0-0.1,0.1-0.1,0.1-0.2V6.3c0,0,0,0,0-0.1l0,0h0.1h0.1
				h0.1l0,0H9c0.1,0,0.1,0,0.2,0c0.1,0,0.1,0,0.2,0c0.1,0,0.1,0,0.2,0.1c0,0,0.1,0,0.1,0.1c0,0,0,0,0.1,0s0.1,0,0.1,0.1
				c0,0,0,0,0.1,0c0,0,0,0,0.1,0s0.1,0,0.2,0.1c0,0,0,0,0.1,0V6.5h0.1c0,0,0,0,0.1,0l0,0c0,0,0,0,0.1,0l0,0V6.4c0,0,0-0.1,0.1-0.1
				c0,0,0.1,0,0.1,0.1l0,0L11,6.3c0.1,0,0.1,0,0.2,0l0,0v0.1c0,0,0,0-0.1,0.1c0,0.1,0,0.1,0.1,0.2v0.1c0,0,0,0,0.1,0
				c0,0,0.1,0,0.1,0.1c0.1,0,0.1,0,0.2,0h0.1V7c0,0.1,0,0.1,0,0.1s0,0-0.1,0.1l0,0l0,0l0,0c-0.1,0-0.2,0-0.3,0h-0.1l0,0l0,0
				c0,0.1,0,0.1,0.1,0.1c0,0,0,0,0.1,0h0.1c0.1,0,0.1,0,0.2,0h0.1h0.1V7.2l0,0H12l0,0h-0.1V7.1c0,0,0,0,0.1,0l0,0c0,0,0-0.1,0.1-0.1
				h0.1l0,0c0,0.1,0.1,0.1,0.1,0.1l0,0c0-0.1,0-0.1,0-0.1V6.9V6.8c0.1,0,0.2-0.1,0.2-0.2l-0.1-0.1c0-0.1,0-0.1,0-0.2l0,0
				c0,0,0-0.1,0.1-0.1h0.1l0,0c0.1,0,0.1,0,0.2,0c0.1,0,0.1,0,0.2,0h0.1l0,0l0,0l0,0l0,0c-0.1,0-0.1,0.1-0.2,0.2c0,0-0.1,0.1-0.1,0
				c0,0,0,0-0.1,0v0.1l0,0c0,0,0,0.1,0.1,0.1l0.1,0.1l0,0c0,0,0,0,0.1,0c0,0,0,0,0.1,0.1c0,0,0,0,0,0.1L13.2,7c0,0,0.1,0,0.1,0.1
				l0,0h0.1c0,0,0.1,0,0.1,0.1c0,0,0,0,0,0.1v0.1c0,0,0,0-0.1,0l0,0l0,0l0.1,0.1c0,0,0,0,0.1,0l0,0c0,0,0,0,0-0.1c0,0,0,0,0.1,0
				c0,0,0,0,0.1,0c0,0,0-0.1,0.1-0.1c0-0.1,0-0.1,0-0.2c0,0,0,0,0-0.1l0,0h-0.1h-0.1c0,0-0.1,0-0.1-0.1h-0.1c0,0,0,0,0-0.1
				c0,0,0,0-0.1,0l0,0c0,0,0,0,0-0.1s0-0.1,0-0.2c0.1-0.1,0.1-0.2,0.2-0.2c0.1-0.1,0.1,0,0.2,0h0.1c0.1,0,0.1,0,0.2,0.1
				c0.1,0,0.2-0.1,0.4,0c0,0,0,0,0.1,0l0,0c0.1,0,0.1,0,0.2,0l0,0h0.1l0,0c0.1,0,0.1,0.1,0.2,0.1c0,0.1,0.1,0.1,0.1,0.1l0.1,0.1
				c0,0,0,0,0,0.1c0.1,0,0.1,0,0.2,0c0.1,0,0.1,0,0.2,0.1L15.8,7c0,0,0,0,0.1,0s0.1,0,0.2,0c0,0,0.1,0,0.1,0.1l0.1,0.1v0.1
				c0,0,0,0,0.1,0.1l0,0l0,0l0,0l0,0h0.1h0.1h0.1l0,0c0.1,0,0.1,0.1,0.2,0.1H17c0.1,0,0.1,0.1,0.2,0.1c0,0,0,0,0,0.1c0,0,0,0-0.1,0
				c0,0.1,0,0.1-0.1,0.1c0,0,0,0.1-0.1,0.1h-0.1c-0.1,0-0.1,0-0.2-0.1l0,0l0,0c0-0.1-0.1-0.1-0.1-0.1v0.1C16,8,16,8.1,16,8.1
				c0.1,0,0.2,0.1,0.3,0.3l0,0c-0.1,0-0.1,0-0.1,0.1c0,0,0,0,0.1,0c0,0.1-0.1,0.1-0.1,0l0,0c-0.1-0.1-0.1-0.1-0.2-0.1l0,0l0.1,0.1
				c0,0,0-0.1,0.1,0c0,0,0.1,0,0.1,0.1c0,0,0,0.1-0.1,0l0,0c-0.1-0.1-0.2-0.1-0.3-0.1l0,0c-0.1,0-0.1,0-0.2,0c0,0-0.1,0-0.1-0.1l0,0
				h-0.1c-0.1-0.1-0.2-0.2-0.3-0.2c0,0-0.1,0-0.1-0.1H15h-0.1l0,0c0,0,0,0-0.1,0s-0.1,0-0.2-0.1l0,0c0-0.1,0-0.1,0-0.1s0,0,0.1-0.1
				c0.1,0,0.1,0,0.2,0l0,0c0.1,0,0.1,0,0.2,0l0,0c0,0,0-0.1-0.1-0.1c0-0.1,0.1-0.1,0.1-0.1s0.1,0,0.1-0.1l0.1-0.1
				c0-0.1-0.1-0.1-0.1-0.2l0,0l0,0l0,0l0,0l0,0h-0.1H15c0,0.1-0.1,0.1-0.1,0.1h-0.1l0,0c0,0-0.1,0-0.1-0.1V7.1C14.8,7,14.8,7,14.9,7
				l0,0l0,0c0,0,0,0,0-0.1h-0.1l0,0c0-0.1-0.1-0.1-0.1-0.1l0,0l-0.1,0.1h0.1l0,0l0,0c0,0.1-0.1,0-0.1,0s0,0,0,0.1c0,0,0,0-0.1,0V6.9
				c0,0-0.1,0-0.1-0.1l0.1-0.1l0,0h-0.1c0,0,0,0-0.1,0c0-0.1-0.1,0-0.1-0.1h-0.1l0,0c0.1,0.1,0.1,0.2,0,0.2l0,0v0.1
				c0,0,0.1,0,0.1,0.1s0,0.1-0.1,0.1c0,0,0,0.1-0.1,0.1c0,0,0,0-0.1,0.1c0,0,0,0-0.1,0v0.1c-0.1,0-0.1,0-0.2,0l0,0
				c0,0,0,0.1,0.1,0.1s0.1,0.1,0.2,0.1c0,0,0,0,0.1,0l0.1,0.1c0,0,0.1,0,0.1,0.1l0,0l0,0l0,0c-0.1,0-0.1,0-0.2-0.1h-0.1l-0.1,0.1
				c0,0,0,0-0.1,0c0,0-0.1,0-0.1-0.1l0,0c-0.1,0-0.1,0-0.2,0c0-0.1,0.1-0.1,0.1-0.1c0-0.1,0-0.2,0-0.3c-0.1,0-0.1,0-0.1,0.1
				c0,0,0,0,0,0.1l-0.1,0.1c0,0-0.1,0-0.1,0.1l0,0c-0.1,0-0.1,0-0.2,0.1l0,0c0,0.1-0.1,0.1-0.1,0.1l0,0c-0.1,0-0.1,0.1-0.1,0.1l0,0
				l0,0h-0.1c0,0,0,0-0.1,0.1l0,0c-0.1,0.1-0.1,0.2-0.1,0.3c0,0,0,0.1,0.1,0.1c0,0,0,0,0.1,0c0,0,0.1,0,0.1,0.1c0,0,0,0,0,0.1
				s0,0.1,0.1,0.2H13h0.1c0.1,0,0.1,0.1,0.2,0.1l0,0l0.1,0.1c0,0,0.1,0,0.1,0.1c0,0,0.1,0,0.1,0.1l0,0c0,0,0.1,0,0.1,0.1
				c0.1,0,0.2,0,0.2,0l0,0H14l0,0v0.1v0.1v0.1h0.1c0,0,0.1,0,0.1,0.1v0.1l0,0c0,0,0,0,0,0.1c0,0,0,0,0,0.1l0,0
				c0-0.1,0.1-0.1,0.1-0.1c0-0.1,0-0.1,0-0.2V9.7c0,0,0-0.1-0.1-0.1c0,0,0-0.1,0.1-0.1s0.2-0.1,0.2-0.1l0,0c0,0,0.1-0.1,0.1-0.2
				c0-0.1,0-0.2-0.1-0.2l-0.1-0.1c0,0-0.1,0-0.1-0.1l0,0c0,0,0.1,0,0.1-0.1c0,0,0.1-0.1,0.1-0.2V8.4c0,0,0,0-0.1,0c0,0,0,0,0.1-0.1
				V8.2c0-0.1,0-0.1,0-0.2c0.1,0,0.1,0,0.2,0c0.1,0,0.2,0,0.3,0l0,0c0,0,0,0-0.1,0l0,0c0,0,0.1,0,0.1,0.1c0,0,0.1,0,0.1,0.1l0,0
				c0,0,0.1,0,0.1,0.1v0.1c0.1,0,0.1,0,0.2,0c0,0,0,0,0.1,0v0.1c0,0.1,0,0.1,0,0.2c0.1,0.1,0.1,0.1,0.2,0.2c0.1,0.1,0.1,0.1,0.2,0
				l0,0L16,8.8c0,0,0-0.1,0.1-0.1c0,0,0-0.1,0.1-0.1s0.1,0.1,0.1,0.2c0,0,0,0,0,0.1C16.4,9,16.4,9,16.4,9.1c0,0,0,0.1,0.1,0.1
				c0,0,0,0.1,0.1,0.1v0.1l0,0l0,0c0,0.1,0.1,0.2,0.1,0.2l0.1,0.1h0.1c0,0,0.1,0,0.1,0.1h0.1c0,0,0,0,0,0.1V10l0,0c0,0,0,0,0.1,0.1
				c0,0,0.1,0.1,0,0.1v0.1v0.1v0.1c0,0,0,0,0,0.1l0,0l-0.1,0.1h0.1l0.1,0.1h0.1c0.1,0,0.1,0,0.2,0.1V11h0.1v0.1l0,0c0,0,0,0,0,0.1
				c0,0,0,0,0,0.1v0.1c0,0.1,0,0.1-0.1,0.1c0,0-0.1,0-0.1-0.1v-0.1h-0.1c0,0.1-0.1,0-0.1,0v-0.1c0,0,0,0-0.1,0s-0.1,0-0.2,0
				c0,0,0,0-0.1,0h-0.1c0,0,0,0,0-0.1c0,0,0-0.1,0.1-0.1l0,0c0,0,0,0,0.1-0.1c0-0.1,0.1-0.2,0.1-0.3v-0.1c0,0,0,0,0-0.1l0,0
				c-0.1,0-0.1,0-0.2,0.1c0,0.1-0.1,0.1-0.1,0.1l0,0c-0.1,0-0.1,0-0.2,0l0,0c-0.1,0-0.1,0-0.2,0c0,0,0,0-0.1,0s-0.1,0-0.2,0H16
				c0,0,0,0,0,0.1s-0.1,0.1-0.1,0.1l-0.1,0.1l0,0h0.1c0.1-0.1,0.2-0.1,0.3-0.1c0.1,0,0.1,0,0.2,0c0,0,0,0,0,0.1V11l0,0v0.1
				c0,0,0,0-0.1,0v0.2l0.1-0.1l0,0l0,0h0.1c0,0,0,0,0.1,0l0,0c0,0,0,0,0,0.1h0.1c0-0.1,0.1-0.2,0.1-0.2s0,0,0,0.1c0,0,0,0,0,0.1
				c0,0,0,0,0.1,0.1v0.1c0,0-0.1,0-0.1,0.1l0,0c0,0.1-0.1,0.1-0.1,0.1s-0.1,0-0.1,0.1l0,0h-0.1c-0.1,0.1-0.1,0.1-0.2,0.2l0,0
				c0,0-0.1,0-0.1-0.1v-0.1c0-0.1,0.1-0.1,0.2-0.2l0,0c-0.1,0-0.1,0-0.2,0.1c0,0,0,0,0,0.1c-0.1,0-0.2,0.1-0.2,0.1s0,0-0.1,0
				s-0.1,0.1-0.2,0.2v0.1l0,0v0.1l0,0l0,0v0.1c0,0,0,0-0.1,0.1l0,0h-0.1c0,0,0,0-0.1,0c0,0,0,0,0,0.1c0,0,0,0-0.1,0h-0.1
				c0,0-0.1,0-0.1,0.1s0,0.1-0.1,0.2V13l0,0c0,0.1,0,0.2,0,0.2s0,0,0,0.1s0,0.1-0.1,0.1c0,0,0,0,0,0.1v0.1c0,0.1,0,0.1,0,0.2
				c0,0,0,0-0.1,0.1L14.7,14c0,0-0.1,0-0.1,0.1v0.1h-0.1c0,0-0.1,0-0.1,0.1c0,0,0,0,0,0.1c-0.1,0.1-0.1,0.1-0.2,0.2
				c-0.1,0-0.1,0.1-0.1,0.2c0,0.1,0,0.1,0,0.2c0,0.1,0,0.2,0.1,0.3l0,0c0,0.1,0,0.1,0,0.2c0,0,0,0.1,0,0.2v0.1v0.1c0,0,0,0,0,0.1
				v0.1c0,0,0,0-0.1,0c0,0,0,0,0-0.1c0,0,0,0,0-0.1s-0.2-0.3-0.2-0.3v-0.1v-0.1l0,0c0-0.1-0.1-0.1-0.1-0.2l0,0c0,0-0.1,0-0.1,0.1
				c0,0,0,0-0.1,0c0,0,0-0.1-0.1-0.1s-0.1-0.1-0.2,0c-0.1,0-0.1,0-0.2,0l0,0v0.1c0,0.1,0,0.1,0,0.1c0-0.1,0-0.1-0.1,0c0,0,0,0-0.1,0
				s-0.1,0-0.2-0.1c0,0-0.1,0-0.1-0.1c-0.1,0-0.2,0-0.2,0.1s-0.1,0.1-0.2,0.1c-0.1,0-0.1,0.1-0.1,0.2v0.1c0,0.1,0,0.1,0,0.2V16v0.1
				c0,0.1,0,0.2,0,0.3c0,0.1,0,0.1,0,0.2l0,0c0,0.1,0,0.2,0.1,0.2c0,0,0,0.1,0.1,0.1c0,0.1,0,0.1,0.1,0.2h0.1c0,0,0.1,0,0.1,0.1
				c0,0,0,0,0.1,0h0.1l0,0h0.1l0,0l0,0c0.1-0.1,0.1-0.1,0.1-0.3c0-0.1,0-0.2,0.1-0.2h0.1l0,0c0.1,0,0.1,0,0.2,0c0,0,0,0,0.1,0
				c0,0.1,0,0.1,0,0.2l0,0l0,0c0,0.1,0,0.2,0,0.4l0,0c0,0,0,0.1,0,0.2s0,0.1,0,0.2c0,0,0,0,0,0.1h0.1h0.1c0.1,0,0.1,0,0.1,0h0.1l0,0
				H14l0.1,0.1l0,0V18v0.1c0,0.1,0,0.1,0,0.2s0,0.2,0,0.3v0.1l0,0c0,0.1,0.1,0.2,0.1,0.2s0.1,0,0.1,0.1c0,0,0.1,0,0.1,0.1l0,0l0,0
				l0.1-0.1l0,0h0.1c0,0,0,0,0.1,0c0,0,0.1,0,0.1,0.1c0,0,0,0.1,0.1,0.1c0.1-0.1,0.1-0.1,0.2-0.2v-0.1c0,0,0,0,0-0.1
				s0.1-0.1,0.1-0.1l0,0c0-0.1,0-0.1,0.1,0l0,0l0.1-0.1v-0.1h0.1l0,0v0.1c0,0,0,0-0.1,0v0.1l0,0c0-0.1,0.1,0,0.1-0.1s0-0.1,0-0.1
				l0,0l0,0c0,0.1,0,0.1,0.1,0.2c0.1,0,0.2,0.1,0.2,0.2h0.1H16h0.1c0,0,0.1,0,0.1,0.1c0.1,0,0.1,0,0.1-0.1l0,0c0,0,0,0,0.1,0V19l0,0
				c0.1,0,0.1,0,0.2,0c0,0,0,0-0.1,0.1c0,0.1,0,0,0.1,0l0,0V19c0,0,0,0,0.1,0v0.1l0,0l0,0c0.1,0,0.1,0.1,0.1,0.2l0.1,0.1
				c0.1,0.1,0.1,0.1,0.2,0.2c0,0.1,0.1,0.2,0.2,0.2h0.1c0.1,0,0.1,0,0.2,0c0,0,0.1,0,0.1,0.1l0,0c0.1,0,0.1,0,0.1,0.1l0.1,0.1
				l0.1,0.1v0.1c0,0.1,0,0.1,0,0.2c0,0,0.1,0,0.1,0.1c0,0,0,0,0.1,0c0,0,0.1,0,0.1,0.1c0,0,0,0,0,0.1l0,0c0,0.1,0,0.1,0.1,0.2v0.1
				c0.1,0,0.1,0,0.2,0.1c0,0,0.1,0,0.1,0.1c0,0,0,0,0.1,0c0,0,0.1,0,0.1,0.1v0.1c0,0,0,0.1,0.1,0c0,0,0,0,0.1,0c0,0,0.1,0,0.1,0.1
				l0,0h0.1c0,0,0,0,0.1,0h0.1c0,0,0,0,0.1,0c0.1,0.1,0.1,0.1,0.2,0.2c0,0.1,0.1,0.1,0.1,0.1H20h0.1c0,0,0.1,0,0.1,0.1
				s0.1,0.2,0.1,0.3v0.1v0.1c0,0.1,0,0.2-0.1,0.2c0,0,0,0.1-0.1,0.1c0,0,0,0.1-0.1,0.1l0,0c0,0.1-0.1,0.1-0.1,0.2s-0.1,0.2-0.2,0.3
				c0,0.1,0,0.3,0,0.5c0,0,0,0,0,0.1s0,0.1,0,0.2v0.1v0.1c0,0,0,0.1,0,0.2v0.1c0,0.1,0,0.1-0.1,0.2V25c0,0.1-0.1,0.1-0.1,0.2v0.1
				c-0.1,0-0.1,0.1-0.1,0.1l0,0c-0.1,0-0.1,0-0.2,0h-0.1c0,0-0.1,0-0.1,0.1v0.1h-0.1c-0.1,0-0.1,0.1-0.2,0.2c-0.1,0-0.1,0.1-0.1,0.2
				v0.1c0,0.1,0,0.2,0,0.3v0.1c0,0.1,0,0.1-0.1,0.1c-0.1,0.1-0.1,0.1-0.1,0.2c0,0.2-0.1,0.3-0.2,0.4l-0.1,0.1v0.1
				c0,0.1-0.1,0.1-0.1,0.2l0,0c-0.1,0.1-0.1,0.1-0.2,0.1c0,0-0.1,0-0.1,0.1l-0.1,0.1c0,0,0,0,0,0.1v0.1c0,0,0,0.1-0.1,0.1l-0.1,0.1
				c0,0,0,0.1-0.1,0.1c-0.1,0.1-0.1,0-0.2,0.1c-0.1,0-0.1,0-0.2,0s-0.1,0.1-0.1,0.2v0.1c0,0.1,0,0.1-0.1,0.1h-0.1h-0.1h-0.1l0,0l0,0
				c0,0,0,0.1,0,0.2c0,0,0,0.1,0.1,0h0.1v0.1c0,0,0,0-0.1,0l0,0c0,0,0,0.1-0.1,0.1c0,0,0,0.1-0.1,0.1c0,0,0,0,0,0.1s0,0.1,0,0.1v0.1
				h-0.1c-0.1,0-0.1,0.1-0.1,0.2V30c0.1,0,0.1,0.1,0.2,0.1l0,0c0,0,0,0,0,0.1v0.1c0,0-0.1,0-0.1,0.1c0,0,0,0-0.1,0.1
				c-0.1,0-0.1,0.1-0.1,0.2l-0.1,0.1c0,0-0.1,0-0.1,0.1V31c0,0.1,0,0.2,0.1,0.2l0,0c0,0,0,0,0.1,0.1v0.1c0,0,0,0,0,0.1
				c0.1,0.1,0.1,0.1,0.2,0.2h0.1v0.1l0,0h-0.1l0,0l0,0h-0.1v0.1c-0.1,0-0.1,0-0.1,0s-0.1,0-0.1-0.1l0,0c-0.1,0-0.1,0-0.1-0.1l0,0
				c-0.1,0-0.1-0.1-0.1-0.1s0,0-0.1,0c0,0,0,0,0-0.1C15.1,31,15,31,15,30.9l0,0l0,0c0,0,0-0.1-0.1-0.1v-0.1l0,0c0,0,0,0,0-0.1v-0.1
				c0-0.1,0-0.2,0-0.2s0,0,0-0.1v-0.1V30c0,0,0-0.1,0.1-0.1l0,0v-0.1l0,0l0,0c0,0,0,0-0.1,0v-0.1l0.1-0.1c0-0.1,0-0.1,0.1-0.2
				c0,0,0,0,0-0.1c0,0,0,0,0-0.1v-0.1c0,0,0-0.1,0,0c0,0,0,0,0,0.1l0,0l0,0v-0.1V29c0-0.1,0-0.1,0-0.2l0,0l0,0v0.1
				c0,0,0,0.1-0.1,0.2c0,0,0,0-0.1,0l0,0c0-0.1,0-0.1,0-0.2v-0.1l0,0c0-0.1,0-0.1,0-0.2l0,0c0-0.1,0-0.2,0.1-0.2c0,0,0,0,0-0.1l0,0
				c0-0.1,0-0.1,0-0.2s0-0.1,0-0.2l0,0l0,0c0-0.1,0-0.2,0.1-0.3c0-0.1,0.1-0.2,0.1-0.3c0-0.1,0-0.1,0-0.2l0,0c0-0.1,0-0.2,0-0.3
				v-0.1c0-0.1,0-0.1,0-0.2l0,0c0,0,0,0,0-0.1s0-0.1,0-0.2s0-0.2,0-0.2s0,0,0-0.1s0-0.1,0-0.2v-0.1c0-0.1,0-0.1,0-0.2l0,0
				c0-0.1,0-0.1,0-0.2v-0.1c0-0.1,0-0.1,0-0.2l0,0v-0.1c0,0,0-0.1,0-0.2v-0.1c0-0.1,0-0.2,0-0.3l-0.1-0.1l0,0c0-0.1-0.1-0.2-0.2-0.2
				c-0.1-0.1-0.1-0.1-0.2-0.2c-0.1,0-0.1-0.2-0.2-0.3v-0.1c0,0,0,0,0-0.1s0-0.1-0.1-0.2v-0.1c0-0.1,0-0.1,0-0.1v-0.1
				c-0.1-0.1-0.1-0.3-0.1-0.4c0,0,0-0.1-0.1-0.1c0,0,0-0.1-0.1-0.1c0-0.1-0.1-0.2-0.2-0.2v-0.1v-0.1v-0.1c0-0.1,0-0.1,0-0.2v-0.1
				c0,0,0,0,0.1,0l0,0c0-0.1,0-0.1-0.1-0.2c0,0,0,0,0-0.1v-0.1c0,0,0,0,0-0.1c0,0,0,0,0-0.1c0,0,0,0,0-0.1s0-0.1,0-0.2
				c0,0,0-0.1,0.1-0.1c0,0,0,0,0.1-0.1v-0.1c0-0.1,0-0.1,0-0.1s0,0,0.1,0c0,0,0-0.1,0.1-0.1c0,0,0,0,0-0.1c0,0,0,0,0-0.1
				s0-0.1,0-0.2v-0.1c0-0.1,0-0.1,0-0.2s-0.1-0.1-0.1-0.2v-0.1l0,0c0,0,0-0.1-0.1-0.1c0,0,0,0-0.1,0l-0.1,0.1V19
				c0,0.1-0.1,0.1-0.1,0.1s0-0.1-0.1-0.1c0-0.1,0-0.1-0.1-0.1l0,0c0,0,0,0-0.1,0c0,0,0,0-0.1,0l0,0c0-0.1,0-0.1-0.1-0.1
				c0,0-0.1,0-0.1-0.1l0,0l0,0l-0.1-0.1c0,0,0,0,0-0.1s0-0.1-0.1-0.1c0,0,0,0,0-0.1s-0.1-0.1-0.1-0.2V18c-0.1,0-0.1,0-0.2,0
				c0,0-0.1,0-0.2-0.1h-0.1h-0.1l-0.1-0.1c0-0.1-0.1-0.1-0.1-0.2L12,17.5h-0.1c-0.1,0-0.1,0.1-0.2,0.1l0,0c-0.1,0-0.1-0.1-0.2-0.1
				l-0.1-0.1c-0.1,0-0.1-0.1-0.2-0.1l-0.1-0.1c0,0,0,0-0.1,0h-0.1c0,0-0.1,0-0.1-0.1c0,0,0-0.1-0.1-0.1c0,0-0.1,0-0.1-0.1
				c0,0,0-0.1-0.1-0.1c0-0.1,0-0.1,0.1-0.2c0-0.1-0.1-0.1-0.1-0.2v-0.1c0,0,0,0-0.1-0.1c0-0.1-0.1-0.1-0.1-0.2l-0.1-0.1
				c0-0.1-0.1-0.1-0.1-0.2c0,0,0,0-0.1-0.1v-0.1l0,0c0,0,0,0-0.1-0.1l0,0l-0.1-0.1c-0.1,0-0.1-0.1-0.2-0.2c0,0,0,0-0.1,0l0,0
				c0-0.1,0-0.1,0-0.2c0,0,0-0.1-0.1-0.1v-0.1l-0.1-0.1l0,0v0.1c0,0.1,0,0.1,0,0.2l0,0c0,0,0,0.1,0.1,0.1c0,0,0,0,0.1,0.1
				c0,0.1,0.1,0.2,0.1,0.3l0,0c0.1,0.1,0.1,0.1,0.1,0.2c0,0,0,0,0,0.1v0.1c0,0.1,0,0.1,0.1,0.1V16l0,0h0.1c0,0.1,0.1,0.1,0.1,0.2
				c0,0,0,0.1-0.1,0.1l0,0l0,0c0-0.1-0.1-0.2-0.2-0.3c0,0-0.1,0-0.1-0.1c0,0,0,0,0-0.1s0-0.2-0.1-0.2s-0.1-0.1-0.2-0.1
				c-0.1,0-0.1-0.1-0.2-0.2h0.1l0,0v-0.1c0,0,0-0.1-0.1-0.1l0,0c0,0-0.1-0.1-0.1-0.2c0-0.1,0-0.2-0.1-0.2c0,0,0,0,0-0.1l0,0
				c0-0.1-0.1-0.2-0.1-0.3l0,0c-0.1-0.1-0.1-0.1-0.2-0.1C9.3,14,9.3,14,9.2,14l0,0c0-0.1,0-0.1-0.1-0.2c0,0-0.1-0.1-0.1-0.2v-0.1
				c0-0.1-0.1-0.1-0.1-0.2l0,0l0,0c0-0.1-0.1-0.1-0.1-0.2V13v-0.1l0,0c0,0,0-0.1,0-0.2c0-0.1,0-0.2,0-0.2c0-0.1,0-0.2,0-0.3
				s0-0.2,0-0.2v-0.1v-0.1c0-0.1,0-0.3-0.1-0.4c0,0,0-0.1,0-0.2c0,0-0.1,0-0.1-0.1c0,0-0.1,0-0.1-0.1c-0.1,0-0.1-0.1-0.2-0.2
				c0,0,0,0-0.1,0c0,0,0,0,0-0.1l0,0l0,0c0,0,0,0,0-0.1c0,0,0,0,0-0.1s0-0.1-0.1-0.2v-0.1c0,0-0.1,0-0.1-0.1c0,0,0,0,0-0.1
				s0-0.2,0-0.2H7.9c0,0,0,0,0,0.1l0,0l0,0H7.8l0,0c0,0,0,0,0-0.1c0,0,0,0,0-0.1s0-0.1-0.1-0.2v0.1c0-0.1-0.1-0.1-0.1-0.2l0,0
				c0,0,0-0.1-0.1-0.1c0,0,0,0,0-0.1l0,0C7,9.4,7,9.3,7,9.3l0,0c0,0-0.1,0-0.1-0.1c0,0,0,0,0-0.1c-0.1,0-0.1,0-0.2,0S6.5,9,6.4,9.1
				H6.3c0,0,0,0,0-0.1C6.1,9,6,9,6,9s0,0-0.1,0l0,0V8.9H5.8l0,0l0,0l0,0l0,0C5.8,9,5.7,9,5.7,9C5.6,9,5.6,9,5.5,9S5.3,9.1,5.2,9.1V9
				c0-0.1,0-0.1-0.1-0.1c0,0,0,0.1-0.1,0.1c0,0-0.1,0-0.1,0.1l0,0l0,0l0,0c0,0,0.1,0,0.1,0.1v0.1c0,0,0,0-0.1,0.1l0,0
				c-0.1,0-0.1,0-0.1,0.1l0,0c0,0-0.1,0-0.1,0.1c0,0,0,0-0.1,0.1L4.5,9.8l0,0l0,0L4.4,9.9l0,0H4.3c0,0.1,0,0.1,0,0.1s0.1,0,0.1,0.1
				c0,0,0,0-0.1,0.1c0,0,0,0,0-0.1c0,0,0,0-0.1,0l0,0c0,0,0,0-0.1,0l0,0C4,10,4,10,4,10H3.9l0,0l0,0H3.8H3.7l-0.1,0.1H3.5l-0.1,0.1
				l0,0H3.3H3.2c0,0,0,0-0.1,0v-0.1c0,0,0.1-0.1,0.1,0c0,0,0,0,0.1,0l0,0l0,0c0,0,0,0,0.1,0l0,0c0-0.1,0.1,0,0.2,0
				c0,0,0-0.1,0.1-0.1h0.1c0.1,0,0.1-0.1,0.1-0.1L4,9.8h0.1h0.1l0,0c0-0.1,0.1-0.1,0.1-0.1s0.1,0,0.1-0.1l0.1-0.1V9.4H4.4
				c0,0,0,0-0.1,0c0-0.1-0.1-0.1-0.1,0c0,0,0,0-0.1,0c0,0,0,0,0,0.1c0,0-0.1,0-0.2,0l0,0c0,0,0,0,0-0.1c0,0,0,0,0-0.1
				c-0.1-0.1-0.2-0.1-0.3,0L3.5,9.2c0,0-0.1,0-0.1-0.1c0,0,0,0,0-0.1c0,0,0,0-0.1-0.1c0-0.1,0-0.1,0-0.2l0,0l0.1-0.1
				c0,0,0-0.1,0.1-0.1c0,0,0,0,0.1,0h0.1l0,0h0.1h0.1c0,0,0.1,0,0.1-0.1c0-0.1,0-0.2,0-0.2l0,0l0,0H3.9H3.8H3.7c-0.1,0-0.2,0-0.3,0
				C3.3,8.1,3.3,8.1,3.3,8.1z"/>
		</g>
		<g>
			<path class="st1" d="M16.7,4.9C16.6,4.9,16.6,4.9,16.7,4.9C16.6,4.8,16.7,4.8,16.7,4.9c0.1-0.1,0.1-0.1,0.2-0.1c0,0,0,0,0.1,0
				l0,0c0.1,0,0.1,0,0.2,0h0.1h0.1h0.1c0,0,0.1,0,0.1,0.1l0,0l0,0l0,0V4.8c0.1,0,0.1,0,0.1,0.1V4.8l0,0c0.1,0,0.1,0.1,0.2,0.1H18
				l0,0c0,0,0-0.1-0.1-0.1l0,0H18h0.1c0,0,0,0,0.1,0s0.1,0,0.2,0h0.1c0,0,0,0,0.1,0c0,0-0.1,0-0.1-0.1c0,0,0,0-0.1,0h-0.1l0,0
				c0,0,0,0,0.1,0h0.1l0,0l0,0c0,0,0,0,0.1,0h0.1h0.1c0.1,0,0.1,0,0.2,0h0.1l0,0h0.1c0.1,0,0.2,0,0.3,0c0.1,0,0.2,0,0.3,0
				c0,0,0,0,0.1,0l0,0c0.1,0,0.2,0,0.3,0h0.1c0,0,0,0,0.1,0h0.1c0.1,0,0.1,0,0.2,0h0.1h0.1l0,0c0,0,0,0,0.1,0h0.1l0,0h0.1h0.1h0.1
				c0,0,0,0,0.1,0c-0.1,0-0.1,0.1-0.2,0.1c0,0,0,0-0.1,0l0,0l0,0h0.1l0,0c0,0,0,0,0,0.1C21.5,5,21.4,5,21.4,5h0.1h0.1c0,0,0,0,0.1,0
				h0.1c0,0,0,0,0,0.1c0.1,0,0.1,0,0.2,0l0,0l0,0h0.1l0,0h0.1h0.1c0.1,0,0.2-0.1,0.3,0h0.1c0.1,0,0.1,0,0.2,0l0,0
				c-0.1,0-0.1,0-0.2,0.1l0,0l0,0c-0.1,0.1-0.1,0-0.2,0l-0.1,0.1l0,0c0,0-0.1,0.1-0.2,0.1h-0.1c0,0,0,0.1,0.1,0.1v0.1
				c0,0,0.1,0,0.1-0.1h0.1c0,0.1-0.1,0.1-0.1,0.2v0.1v0.1c0,0,0,0,0.1,0c0,0,0,0,0,0.1c0,0,0,0.1-0.1,0.1v0.1h-0.1
				c0,0,0-0.1-0.1-0.1c0,0,0,0-0.1,0c0,0,0,0-0.1,0v0.1c0-0.3,0-0.2,0.1-0.2v0.1l0,0c0,0.1,0.1,0.1,0.1,0.1c0-0.1,0,0,0-0.1l0,0V6
				h0.1l0.1,0.1c0,0.1,0,0.1,0,0c0,0,0,0-0.1,0c0,0,0,0,0,0.1c-0.1,0-0.1,0.1-0.2,0.1c0,0.1-0.1,0.1-0.1,0.1c-0.1,0-0.2,0-0.2,0
				s0.1,0.1,0,0.1c0,0.1,0,0.1-0.1,0.1c0,0,0.1,0,0.1,0.1v0.1v0.1c0,0.1,0,0.1-0.1,0.1c0,0,0,0-0.1,0h-0.1c0,0-0.1,0-0.1-0.1
				c0,0,0,0,0-0.1c0,0-0.1,0-0.1,0.1c0,0,0,0,0,0.1c0.1,0,0.1,0,0.2,0.1c0.1,0,0.1,0,0.2,0l0,0c0,0-0.1,0-0.1,0.1l0,0h-0.1
				c0,0-0.1,0-0.1,0.1c-0.1,0-0.1,0.1-0.2,0.1s-0.2,0-0.3,0.1c-0.1,0-0.2,0.1-0.3,0h-0.1c0,0,0,0-0.1,0l-0.1,0.1
				c-0.1,0.1-0.1,0.1-0.2,0.2c-0.1,0-0.1,0-0.2,0.1h-0.1c-0.1,0-0.1,0-0.2,0s-0.1,0-0.1,0.1h-0.1c0,0,0,0,0,0.1v0.1v0.1
				c-0.1,0.1-0.1,0.2-0.2,0.2l0,0c0,0.1,0,0.2,0,0.2C19,8.9,19,8.9,19,9s0,0.1-0.1,0.1l0,0c-0.1,0-0.1,0-0.2,0l0,0
				C18.6,9,18.6,9,18.5,9l0,0h-0.1h-0.1c0,0,0,0,0-0.1s-0.1-0.1-0.1-0.2c0-0.1-0.1-0.1-0.1-0.1l0,0C18,8.6,18,8.5,18,8.5l0,0
				c-0.1,0-0.1-0.1-0.1-0.2c0-0.1,0-0.1-0.1-0.1c0,0,0-0.1-0.1-0.1V8V7.9V7.8l0,0c0-0.1,0-0.1,0-0.2c0,0,0-0.1,0.1-0.1h0.1l0,0l0,0
				V7.4c0,0,0-0.1-0.1-0.1l0,0c0,0.1,0,0.1-0.1,0.1h-0.1h-0.1l0,0h-0.1V7.3c0,0,0,0,0-0.1c0,0,0,0,0.1,0l0,0l0,0l0,0
				c0.1,0,0.2,0,0.2,0l0,0l0,0h-0.1c0,0-0.1,0-0.1-0.1h-0.1h-0.1l0,0c0,0-0.1-0.1,0-0.1c0,0,0,0,0-0.1V6.8c0,0,0,0,0-0.1l0,0V6.6
				c0,0,0-0.1-0.1-0.1s-0.1-0.1-0.1-0.2c0,0,0-0.1-0.1-0.1h-0.1c-0.1,0-0.1-0.1-0.2,0c0,0,0,0-0.1,0s-0.1,0-0.2,0c0,0,0,0-0.1,0
				h-0.1c-0.1,0-0.1,0-0.2,0l0,0c-0.1,0-0.1,0-0.2,0c-0.1,0-0.2,0-0.2-0.1c0,0,0,0-0.1,0c0,0,0,0,0-0.1c0,0-0.1,0-0.1-0.1l0,0l0,0
				l0,0l0,0c0,0,0,0,0.1,0l0,0c-0.1,0-0.1,0-0.2,0h-0.1c0,0,0,0,0-0.1c0,0,0.1-0.1,0.2-0.1c0.1,0,0.2,0,0.3-0.1h0.1
				c0.1,0,0.2,0,0.3,0c0.1,0,0.1,0,0.2-0.1c0,0,0,0,0-0.1l0,0c-0.1,0.1-0.1,0-0.2,0c0,0,0,0-0.1,0c0-0.1,0-0.1,0-0.1
				c0.1,0,0.2-0.1,0.3-0.1c0,0,0.1-0.1,0.1,0c0.1,0,0.1,0,0.2,0l0,0C16.6,5,16.6,5,16.7,4.9C16.6,5,16.6,5,16.7,4.9L16.7,4.9z"/>
		</g>
		<g>
			<path class="st1" d="M30.2,25.6L30.2,25.6C30.2,25.6,30.3,25.6,30.2,25.6c0.1,0,0.1,0,0.1,0C30.3,25.6,30.3,25.6,30.2,25.6
				c0.1-0.1,0.1-0.1,0.1-0.2s0-0.1,0-0.2v-0.1V25c0-0.1,0-0.1,0-0.2l0,0l0,0c0,0,0,0,0,0.1l0.1-0.1c0.1,0,0.1-0.1,0.1-0.1
				s0,0,0.1-0.1c0,0,0,0,0.1,0c0,0,0,0,0.1,0c0,0,0,0,0.1,0l0,0c0,0,0.1,0,0.1-0.1c0.1,0,0.1,0,0.2,0s0.1-0.1,0.1-0.2
				c0,0,0-0.1,0.1-0.1c0,0,0,0,0-0.1V24l0,0c0-0.1,0.1-0.1,0.1-0.2l0,0v0.1l0,0c0,0,0-0.1,0-0.2h0.1c0-0.1,0-0.1,0-0.2
				c0.1,0,0.1,0,0.1-0.2l0,0l0,0l0,0c0-0.1,0.1-0.1,0.1-0.1s0.1,0,0.1,0.1c0,0,0,0,0,0.1c0.1,0.1,0.1,0.1,0.2,0c0,0,0,0,0-0.1l0,0
				c0,0,0,0,0-0.1c0,0,0,0,0-0.1V23c0,0,0,0,0.1-0.1v-0.1c0,0,0,0-0.1,0c0-0.1,0-0.1,0-0.1h0.1c0,0,0,0,0.1,0.1v0.1c0,0,0,0,0.1,0
				h0.1v-0.1l0,0l0,0l0,0c0,0,0,0,0.1,0c0,0,0,0.1,0.1,0.1c0,0,0,0,0.1,0l0.1,0.1l0,0c0,0,0,0,0.1,0c0,0,0,0,0.1-0.1c0,0,0,0,0.1,0
				c0,0,0,0,0,0.1l0,0c0,0,0,0,0.1,0.1l0,0c0,0.1,0,0.1-0.1,0.2c0,0,0,0,0,0.1l0,0h0.1v0.1c-0.1,0-0.1,0-0.1-0.1c0,0,0,0.1-0.1,0.1
				c0,0,0,0.1,0.1,0.1h0.1l0,0v0.1l0,0c0,0,0,0,0,0.1h0.1l0,0l0,0c0,0.1,0,0.1-0.1,0.1l0,0c0,0.1,0,0.1,0.1,0.1l0,0
				c0.1,0,0.1,0,0.1-0.1s0.1-0.2,0.1-0.3c0-0.1,0-0.2,0-0.3v-0.1c0-0.1,0-0.1,0-0.2v-0.1c0-0.1,0-0.2,0.1-0.3h0.1v0.1v0.1l0,0
				c0,0.1,0,0.1,0,0.2s0,0.1,0,0.2c0,0,0,0,0,0.1l0,0c0,0,0,0,0.1,0c0,0,0,0.1,0.1,0.1c0,0.1,0,0.2,0,0.3c0,0,0,0.1,0.1,0.1
				c0,0,0,0.1,0,0.2l0,0c0,0,0,0.1,0,0.2l0,0c0,0,0.1,0,0.1,0.1c0,0,0,0,0.1,0.1l0.1,0.1c0,0,0,0,0,0.1c0.1,0.1,0.1,0.2,0.1,0.3
				c0,0,0,0,0.1,0c0,0,0,0,0.1,0V25v0.1l0,0l0,0c0.1,0,0.1,0.1,0.1,0.2l0,0c0,0,0,0,0.1,0c0,0,0,0,0-0.1c0,0,0,0,0,0.1s0,0.2,0,0.3
				c0,0,0,0,0,0.1v0.1l0,0c0,0.1,0,0.2,0,0.2c0,0.1,0,0.1,0,0.2s0,0.1,0,0.2v0.1v0.1c0,0-0.1,0.1-0.1,0.2s-0.1,0.2-0.1,0.3
				c0,0,0,0,0,0.1c0,0-0.1,0.1-0.1,0.2c0,0,0,0,0,0.1v0.1v0.1h-0.1h-0.1c0,0,0,0-0.1,0c-0.1,0.1-0.1,0.1-0.2,0.2L34,27.8
				c-0.1,0-0.1,0-0.1,0s-0.1,0.1-0.1,0h-0.1h-0.1l0,0c0,0,0,0-0.1,0c0,0,0,0-0.1,0c0,0,0,0-0.1-0.1v-0.1c0-0.1,0-0.1-0.1-0.2
				c0,0,0,0-0.1-0.1c-0.2,0.1-0.2,0.1-0.3,0.1c0,0,0,0,0-0.1h0.1l0,0l0.1-0.1c0,0,0,0,0-0.1v0.1h-0.1l0,0l0,0l0,0c0-0.1,0-0.2,0-0.2
				s0,0,0-0.1c0,0.1,0,0.1-0.1,0.1l-0.1,0.1c0,0,0,0,0,0.1c-0.1,0-0.1,0-0.1-0.1V27c0,0,0-0.1-0.1-0.1l0,0l-0.1-0.1
				c0,0,0-0.1-0.1-0.1l0,0c0,0,0,0-0.1,0l0,0c0,0-0.1,0-0.1-0.1l0,0H32h-0.1h-0.1c-0.1,0-0.2,0.1-0.2,0.1h-0.1
				c-0.1,0-0.1,0.1-0.2,0.1c0,0,0,0.1-0.1,0.2h-0.1l0,0c-0.1,0-0.2,0-0.2,0h-0.1c0,0,0,0-0.1,0.1l0,0h-0.1c0,0-0.1,0-0.1,0.1l0,0
				c0,0-0.1-0.1-0.1,0c0,0-0.1,0-0.1-0.1c0,0,0,0-0.1-0.1c-0.1,0-0.1,0-0.1-0.2l0,0v-0.1c0-0.1,0-0.1,0-0.2c0,0,0,0,0-0.1v-0.1
				c0-0.1,0-0.1,0-0.2s0-0.1,0-0.2s0-0.1-0.1-0.2c0,0,0,0,0-0.1s0-0.1,0-0.1C30.2,25.8,30.2,25.7,30.2,25.6z"/>
		</g>
		<g>
			<path class="st1" d="M44.7,8.1c-0.1,0-0.1,0.1-0.2,0.1c0,0.1,0,0.2,0,0.3s0,0.1,0,0.2c-0.1,0-0.1,0-0.1,0c-0.1,0-0.1,0.1-0.2,0.1
				C44.1,8.9,44,9,43.9,9c0,0-0.1,0-0.1,0.1h-0.1l0,0c0,0,0,0-0.1,0s-0.1,0-0.1,0c-0.1,0-0.1,0-0.2,0.1c0,0-0.1,0.1-0.1,0
				c0,0,0,0,0-0.1c0,0-0.1,0-0.1,0.1c0,0-0.1,0-0.1,0.1c0,0,0,0,0-0.1c0,0,0,0-0.1,0c0,0,0,0-0.1,0l0,0c0,0.1,0,0.1-0.1,0.2
				c-0.1,0-0.1,0.1-0.1,0.1c0.1,0,0.1,0,0.2,0c0,0.1-0.1,0.1-0.1,0.2c0,0,0,0,0.1,0v0.1c0,0,0,0-0.1,0l0,0c-0.1,0-0.1,0.1-0.1,0.1
				l0,0c0,0,0,0,0,0.1s0,0.1-0.1,0.1c0,0,0,0-0.1,0c0,0,0,0-0.1,0s-0.1,0.1-0.1,0.2l0,0h-0.1H42c0,0.1-0.1,0.2-0.1,0.3l-0.1,0.1
				c0,0-0.1-0.1-0.1-0.2v-0.1c0-0.1,0-0.1,0-0.2c0-0.1,0-0.2,0-0.3s0-0.1,0-0.2V9.6c0,0,0-0.1,0.1-0.1c0,0,0,0,0.1,0s0,0,0-0.1l0,0
				H42c0.1,0,0.1-0.1,0.2-0.2c0-0.1,0.1-0.1,0.2-0.2l0.1-0.1c0-0.1,0.1-0.1,0.2-0.1c0,0,0.1,0,0.1-0.1s0-0.1,0.1-0.2
				c0,0-0.1,0-0.1,0.1c0,0,0,0,0,0.1v0.1l0,0h-0.1c-0.1,0.1-0.2,0.1-0.2,0.2c0,0,0,0,0-0.1l0,0V8.8h-0.1h-0.1l0,0h-0.1
				c0,0-0.1,0-0.1,0.1l0,0l0,0C42,9,41.9,9,41.9,9l-0.1,0.1c0,0,0,0,0.1,0c0,0,0,0,0,0.1l0,0h-0.1c-0.1,0-0.1,0-0.2,0
				c-0.1,0-0.1,0-0.2,0l0,0c0,0,0,0,0.1-0.1c0-0.1-0.1,0-0.1,0c-0.1,0-0.1-0.1-0.2,0c0,0,0,0,0,0.1c-0.1,0-0.1,0-0.1,0
				S41,9.3,41,9.2h-0.1c0,0-0.1,0.1-0.1,0c0,0,0,0-0.1,0h-0.1c-0.1,0-0.1,0-0.2,0c-0.1,0-0.1,0-0.2,0.1l0,0c-0.1,0-0.1,0-0.1,0.1
				l0,0L40,9.5c-0.1,0-0.1,0.1-0.1,0.1l-0.1,0.1c-0.1,0-0.1,0.1-0.1,0.1l-0.1,0.1l0,0h0.1V10l0,0l0,0c0-0.1-0.1,0-0.1-0.1
				s0.1,0,0.1-0.1h0.1v0.1l0,0V10v0.1l0.1-0.1H40l0.1,0.1c0,0,0.1,0.1,0.1,0l0,0h0.1l0,0c0,0,0,0,0-0.1l0,0h0.1c0,0.1,0,0.2,0.1,0.2
				c0,0.1,0,0.1,0,0.2c0,0,0,0,0,0.1v0.1c0,0.1,0.1,0.3,0.1,0.4l0,0c0,0-0.1,0-0.1-0.1c0,0,0,0-0.1,0s-0.1,0-0.1,0.1v0.1v0.1l0,0
				c0,0.1,0,0.1,0.1,0.1v0.1c0,0,0,0,0-0.1c0,0,0,0-0.1,0c0,0-0.1,0-0.1,0.1c0,0,0,0.1-0.1,0.1v-0.1c0-0.1,0-0.1,0-0.2v-0.1l0,0V11
				v-0.1v-0.1v-0.1c0,0,0,0,0-0.1c0,0,0-0.1-0.1-0.1h-0.1l0,0v0.1c0,0.1,0,0.1,0,0.2c-0.1,0.1,0,0.2-0.1,0.2c0,0.1-0.1,0.1-0.2,0.2
				c0,0.1-0.1,0.1-0.1,0.2c0,0.1-0.1,0.1-0.1,0.2l-0.1,0.1c-0.1,0.1-0.1,0.2-0.1,0.2c-0.1,0.1-0.2,0.2-0.3,0.2l0,0h-0.1
				c0,0,0,0,0-0.1c0,0,0,0-0.1,0l-0.1,0.1c0,0,0,0-0.1,0c0,0-0.1,0-0.1,0.1v0.1c0,0,0,0.1-0.1,0.1l-0.1,0.1c0,0,0,0-0.1,0l0,0v0.1
				c0,0,0,0,0.1,0.1c0,0,0,0,0,0.1l0.1,0.1c0,0.1,0,0.1,0.1,0.2v0.1c0,0.1,0,0.2-0.1,0.2c0,0,0,0-0.1,0h-0.1l0,0c0,0-0.1,0-0.1,0.1
				c0,0,0,0-0.1,0c0-0.1,0-0.1,0-0.1v-0.1l0,0v-0.1c0-0.1,0-0.1,0-0.2v-0.1c-0.1,0-0.1,0-0.1,0c0-0.1,0.1-0.2,0.1-0.3l0,0l0,0
				c-0.1,0-0.1-0.1-0.2,0l-0.1,0.1l0,0c0,0-0.1,0.1-0.1,0v-0.1c0,0,0,0,0-0.1c0,0,0,0,0-0.1c0,0,0-0.1-0.1,0c0,0,0,0-0.1,0.1
				c0,0-0.1,0-0.1,0.1l0,0c0,0.1-0.1,0.1-0.1,0.1s0.1,0,0.1,0.1s0.1,0.1,0.1,0.2l0.1-0.1c0,0,0,0,0.1,0c0,0,0.1,0.1,0.1,0h0.1V13
				l0,0c-0.1,0-0.1,0-0.2,0.1l-0.1,0.1l-0.1,0.1c0,0,0,0,0.1,0s0.2,0.1,0.2,0.1v0.1c0,0.1,0,0.1,0,0.2l0,0c0,0,0,0,0,0.1
				s0,0.1,0,0.2c0,0.1,0,0.1,0,0.2c0,0,0,0,0,0.1s0,0.2-0.1,0.3v0.1c0,0,0,0,0,0.1l0,0l-0.1,0.1c0,0,0,0,0,0.1v0.1
				c0,0,0,0.1-0.1,0.1c0,0-0.1,0-0.1,0.1c0,0,0,0,0,0.1c0,0,0,0-0.1,0.1s0,0.1-0.1,0.1l-0.1,0.1c0,0-0.1,0.1-0.2,0.1h-0.1
				c0,0-0.1,0-0.1,0.1h-0.1l0,0l0,0c-0.1,0-0.2,0-0.2,0.1c0,0.1,0,0.1,0,0.2l0,0l0,0c0,0.1-0.1,0.1-0.1,0.2c0,0,0,0.1-0.1,0.1h-0.1
				c0,0,0,0-0.1,0v-0.1v-0.1c0,0,0.1-0.1,0.2-0.1c0-0.1,0-0.2-0.1-0.2h-0.1c-0.1,0-0.1,0-0.2,0.1l0,0c0,0-0.1,0-0.1,0.1l0,0
				l-0.1,0.1v0.2l0,0c0,0,0,0,0,0.1c0,0,0,0,0,0.1c0.1,0.1,0.1,0.2,0.2,0.2l0,0c0,0.1,0,0.1,0.1,0.1c0,0.1,0,0.1,0,0.2
				c0,0,0,0,0,0.1s0,0.1,0,0.2s0,0.2,0,0.2c0,0.1-0.1,0.1-0.1,0.2S35.5,18,35.4,18c0,0,0,0,0,0.1s-0.1,0.1-0.1,0.1s-0.1,0-0.1,0.1
				c0,0,0,0-0.1,0.1c0,0,0,0,0-0.1v-0.1c0-0.1,0-0.1-0.1-0.2c0,0,0,0,0,0.1L34.9,18l0,0c0,0,0,0,0-0.1v-0.1c0,0,0,0-0.1,0
				c0-0.1-0.1-0.1-0.2-0.1c0,0,0,0,0-0.1v-0.1c0,0,0,0-0.1,0c0,0.1,0,0.1,0,0.2c0,0,0,0,0,0.1s-0.1,0.2-0.1,0.3l0,0
				c0,0.1,0,0.1,0.1,0.1c0,0,0.1,0,0.1,0.1c0,0,0,0,0,0.1c0,0,0,0,0,0.1s0,0.1,0.1,0.2h0.1l0,0c0,0,0,0.1,0.1,0.1l0.1,0.1
				c0,0,0,0,0.1,0.1c0,0.1,0.1,0.2,0,0.2l0,0v0.1c0.1,0.1,0.1,0.2,0.1,0.3l0,0c0,0,0,0,0,0.1h-0.1c0,0.1,0,0.2,0,0.3c0,0,0,0,0.1,0
				c0,0,0,0,0.1,0.1l0,0c0,0,0,0,0.1,0.1l0.1-0.1c0,0,0,0.1,0,0.2c0,0,0,0,0.1,0v0.1h-0.1c0,0.1-0.1,0.2,0,0.3v0.1
				c0,0.1,0,0.1,0,0.2l0,0h-0.1h-0.1c0,0,0-0.1-0.1-0.1c0-0.1-0.1-0.1-0.1-0.2L35,20.6l0,0c-0.1-0.1-0.1-0.1-0.1-0.2l0,0
				c0-0.1,0-0.2-0.1-0.2c0,0,0,0,0-0.1c0,0,0-0.1-0.1-0.1c0,0,0,0-0.1-0.1c0,0,0-0.1,0-0.2l-0.1-0.1c0,0,0,0-0.1,0c0,0,0,0,0-0.1
				v-0.1l0,0c0-0.1,0-0.1-0.1-0.1c0,0-0.1-0.1-0.1-0.2V19c0-0.1,0.1,0,0.1,0c0.1,0.1,0.1,0,0.2,0.1c0.1,0,0.1,0,0.1,0.1
				c0,0,0,0,0,0.1s0.1,0.1,0.1,0.2l0.1,0.1c0,0,0,0,0,0.1l0,0l0,0l0,0l0,0c0,0,0,0,0,0.1l0.1,0.1l0,0l-0.1-0.1l-0.1-0.1l0,0
				c0-0.1-0.1-0.2-0.1-0.3c0,0,0,0,0-0.1c0,0,0-0.1,0-0.2V19h-0.1c0-0.1,0-0.2,0-0.2s0-0.1-0.1-0.1l0,0l0,0c0-0.1,0-0.1,0-0.2l0,0
				c0-0.1,0-0.1,0-0.2v-0.1v-0.1l0,0V18c0-0.1,0-0.1,0-0.1v-0.1l0,0c0-0.1,0-0.2,0-0.3v-0.1l0,0c0,0,0,0-0.1,0s-0.1,0-0.2,0
				c-0.1,0-0.1,0-0.1-0.1v-0.1l0,0c0-0.1,0-0.2,0-0.2s0,0,0-0.1c0,0,0,0-0.1,0c0,0,0,0,0-0.1v-0.1c-0.1,0-0.1-0.1-0.2-0.2
				c0,0,0,0,0-0.1c0,0,0-0.1-0.1,0h-0.1c-0.1,0-0.1,0-0.1,0h-0.1l0,0h-0.1h-0.1c0,0,0,0,0,0.1c0,0,0,0,0,0.1S33,16.7,33,16.7
				s0,0.2,0,0.3l-0.1,0.1l0,0l0,0c0,0.1-0.1,0.1-0.1,0.2v0.1l0,0l0,0c-0.1,0-0.1,0-0.1,0.1l0,0l0,0c0,0.1,0,0.1,0,0.2c0,0,0,0,0,0.1
				V18c0,0.1,0,0.2,0,0.3v0.1c0,0.1,0,0.1,0,0.2h-0.1c0,0,0,0,0,0.1c0,0,0,0,0,0.1l0,0l0,0c0,0,0,0-0.1,0c0,0,0,0,0,0.1l0,0
				c0,0-0.1,0.1-0.1,0c-0.1-0.1-0.1-0.1-0.1-0.3c0-0.1,0-0.1,0-0.2c0,0,0,0,0-0.1s0-0.1-0.1-0.2c0,0-0.1-0.1-0.1-0.2s0-0.2-0.1-0.3
				l0,0c-0.1-0.1-0.1-0.2-0.1-0.3c0,0,0-0.1,0-0.2s0-0.2,0-0.2c0-0.1,0-0.2-0.1-0.3c0-0.1,0-0.1,0-0.2l0,0h-0.1l-0.1-0.1l0,0
				l-0.1-0.1c0,0,0,0,0-0.1V16c0,0,0,0,0-0.1c0,0,0,0,0-0.1c0,0,0,0-0.1-0.1l-0.1-0.1v-0.1l0,0c0-0.1,0-0.1-0.1-0.1s-0.1,0-0.2,0
				c0,0,0,0-0.1,0h-0.1h-0.1c-0.1,0-0.1,0-0.2,0l0,0c-0.1,0-0.1,0-0.2,0s-0.2,0-0.3-0.1c0-0.1-0.1-0.1-0.1-0.2l0,0l0,0
				c0,0.1-0.1,0.1-0.2,0.1c0,0,0,0-0.1,0l0,0c0-0.1,0-0.1-0.1,0l0,0c0,0-0.1,0-0.1-0.1L29.3,15h-0.1v-0.1c0-0.1,0-0.1-0.1-0.1
				c0,0,0,0,0-0.1c0,0,0-0.1-0.1-0.1h-0.1h-0.1v0.1v0.1c0,0.1,0,0.1,0.1,0.2c0,0,0,0,0.1,0.1c0,0,0,0,0.1,0.1l0,0
				c0.1,0,0.1,0.1,0.1,0.1l0,0c0,0,0,0,0.1,0c0,0,0,0,0,0.1v0.2c0,0,0,0.1,0.1,0.1l0,0l0,0l0,0c0,0,0,0,0.1,0l0,0
				c0.1,0,0.1,0,0.2-0.1c0,0,0,0,0-0.1c0,0,0-0.1,0.1-0.1c0,0,0-0.1,0.1-0.1c0,0,0,0,0.1,0v0.1c0,0.1,0,0.1,0,0.2
				c0,0.1,0.1,0.1,0.1,0.1h0.1l0,0c0,0.1,0.1,0.1,0.1,0.2c0,0.1,0,0.2-0.1,0.2c0,0-0.1,0.1,0,0.1c0,0,0,0,0,0.1l0,0h-0.1v0.1V17l0,0
				C30,17,30,17,30,17.1s-0.1,0-0.1,0.1v0.1l0,0c0,0,0,0-0.1,0l0,0c0,0.1,0,0.1-0.1,0.1c0,0,0,0-0.1,0s-0.1,0.1-0.2,0.1l-0.1,0.1
				l0,0c-0.1,0-0.1,0.1-0.2,0.1s-0.1,0-0.2,0.1c0,0-0.1,0-0.1,0.1S28.7,18,28.7,18h-0.1l-0.1,0.1c-0.1,0-0.1,0-0.1,0.1
				c-0.1,0.1-0.1,0.1-0.2,0.1l0,0l0,0c0,0.1,0,0.1,0,0.2v0.1c0.1,0.1,0.1,0.1,0.2,0.1c0,0,0,0,0.1,0s0.1,0,0.2,0l0,0
				c0.1,0,0.1,0,0.2,0s0.2,0,0.2-0.1c0.1-0.1,0.1-0.1,0.1,0c0,0.2,0,0.2,0,0.3c0,0,0,0-0.1,0l0,0c0,0.2,0,0.3-0.1,0.4l0,0
				c0,0.1,0,0.1-0.1,0.2v0.1c0,0.1,0,0.2-0.1,0.2l-0.1,0.1V20c0,0-0.1,0.1-0.1,0.2c-0.1,0.1-0.1,0.2-0.2,0.3c0,0,0,0-0.1,0.1
				s-0.2,0.2-0.2,0.3c0,0,0,0.1-0.1,0.1c0,0,0,0.1-0.1,0.1c0,0.1-0.1,0.2-0.1,0.2s0,0-0.1,0.1v0.1v0.1c0,0,0,0.1-0.1,0.1
				c0,0.1,0,0.1-0.1,0.2c0,0.1,0,0.1,0,0.2l0,0c0,0.1,0,0.1,0,0.2l0,0v0.1c0,0,0,0,0,0.1s0,0.1,0,0.2c0,0,0,0.1,0.1,0.1
				s0.1,0.1,0.1,0.2s0,0.1,0,0.2s0,0.2,0,0.2c0,0.1,0,0.1,0,0.2c0,0,0,0,0,0.1s0,0.2-0.1,0.2l0,0c0,0.1-0.1,0.1-0.1,0.2l0,0
				c-0.1,0-0.1,0.1-0.2,0.1c0,0,0,0,0,0.1s-0.1,0.1-0.1,0.2c-0.1,0-0.1,0.1-0.1,0.2c0,0,0,0,0,0.1c0,0,0,0,0,0.1V25l0,0
				c0,0.1,0,0.1,0,0.2v0.1c0,0,0,0,0,0.1v0.1L27,25.6c-0.1,0-0.1,0.1-0.2,0.1c0,0,0,0,0,0.1s0,0.1,0,0.1c0,0.1,0,0.2,0,0.3
				c0,0.1,0,0.1-0.1,0.2c-0.1,0-0.1,0.1-0.1,0.2s-0.1,0.2-0.1,0.2s0,0,0,0.1c0,0,0,0-0.1,0.1c0,0.1-0.1,0.2-0.2,0.2l-0.1,0.1H26
				c0,0,0,0-0.1,0c0,0,0,0-0.1,0c0,0,0,0-0.1,0h-0.1h-0.1h-0.1c0,0,0,0-0.1,0h-0.1c0,0,0,0.1-0.1,0.1s-0.1,0-0.1-0.1h-0.1
				c0-0.1,0-0.1,0-0.2c0,0,0,0,0-0.1l0,0c0-0.1,0-0.1,0-0.2c0,0,0,0,0-0.1s-0.1-0.2-0.1-0.3c0-0.1-0.1-0.2-0.1-0.3c0,0,0,0,0-0.1
				c-0.1-0.2-0.1-0.3-0.1-0.5v-0.1c0-0.1,0-0.2,0-0.3c0-0.1,0-0.1,0-0.2s0-0.1-0.1-0.2c0,0,0,0,0-0.1s-0.1-0.2-0.1-0.3
				c0,0,0,0,0-0.1c-0.1-0.1-0.1-0.2-0.1-0.3l0,0c0-0.1,0-0.1,0-0.2c0,0,0,0,0-0.1s0.1-0.2,0-0.3v-0.1c0,0,0,0,0-0.1s0-0.1,0.1-0.1
				c0,0,0.1-0.1,0.1-0.2s0-0.1,0-0.2c0,0,0,0,0-0.1v-0.1l0,0c0,0,0.1,0,0.1-0.1v-0.1l0,0c0-0.1-0.1-0.2-0.1-0.3c0,0,0-0.1,0-0.2l0,0
				c0,0,0-0.1-0.1-0.2c0,0,0,0,0-0.1s-0.1-0.1-0.1-0.2c-0.1-0.1-0.1-0.3-0.2-0.4l0,0l0,0c0,0,0.1-0.1,0-0.1c0-0.1,0-0.1,0-0.2v-0.1
				c0,0,0,0,0-0.1v-0.1v-0.1L24,20h-0.1c0,0,0,0,0-0.1l0,0l0,0h-0.1c-0.1,0-0.1,0-0.1-0.1s0-0.1-0.1-0.2c0-0.1-0.1-0.1-0.1-0.1
				c-0.1,0-0.1,0-0.2,0l0,0c0,0-0.1,0.1-0.1,0l0,0c0,0.1-0.1,0.1-0.1,0.1c-0.1,0-0.2,0.1-0.3,0.1c0,0,0,0-0.1,0h-0.1
				c-0.1,0-0.1,0-0.2,0s-0.2,0-0.2,0.1c0,0-0.1,0-0.1,0.1H22h-0.1c0,0,0-0.1-0.1-0.1s-0.1-0.1-0.1-0.2s-0.1-0.1-0.2-0.2l0,0
				c0-0.1-0.1-0.1-0.2-0.2c0-0.1,0-0.1,0-0.2l0,0c0-0.1,0-0.2-0.1-0.3c0,0,0,0,0-0.1l-0.1-0.1c0-0.1-0.1,0-0.1,0l0,0c0,0,0,0,0-0.1
				v-0.1c0,0,0,0,0-0.1s0-0.1,0-0.2s0-0.1,0-0.2c0,0,0,0-0.1-0.1l0,0c0.1-0.1,0.1-0.2,0.1-0.3v-0.1c0-0.1,0-0.2,0-0.3v-0.1
				c-0.1-0.1,0-0.1,0-0.2l0,0c0,0,0-0.1-0.1-0.1c0-0.1,0-0.1,0-0.2c0,0,0-0.1,0.1-0.1l0,0c0-0.1,0.1-0.2,0.1-0.3l0.1-0.1
				c0,0,0-0.1,0.1-0.1c0-0.1,0-0.1,0.1-0.2c0,0,0,0,0.1-0.1c0,0,0,0,0-0.1c0,0,0-0.1,0.1-0.1c0,0,0-0.1,0.1-0.1h0.1
				c0,0,0-0.1,0.1-0.1c0,0,0.1,0,0.1-0.1c0,0,0.1-0.1,0.1-0.2v-0.1c0-0.1,0-0.2,0-0.2s0.1-0.1,0-0.2l0.1-0.1c0,0,0.1,0,0.1-0.1
				l0.1-0.1l0,0c0,0,0,0,0-0.1s0.1-0.1,0.1-0.2c0,0,0-0.1-0.1-0.1c0-0.1-0.1-0.1-0.1,0c-0.1,0-0.1,0-0.2,0c0-0.1,0-0.1,0-0.2v-0.1
				l0,0c0,0,0,0,0-0.1c0,0,0,0,0-0.1l0,0l0,0V13c0-0.1,0-0.1,0-0.2v-0.1c0-0.1,0-0.1,0-0.2v-0.1c0,0,0.1,0,0.1-0.1h0.1
				c0.1,0,0.1,0,0.2,0h0.1l0,0c0.1,0,0.1,0,0.1,0h0.1h0.1c0.1,0,0.1,0,0.1-0.1v-0.1V12c0-0.1,0-0.2,0-0.2c0-0.1-0.1-0.1-0.1-0.2
				c0-0.1-0.1-0.1-0.1,0c0,0,0,0,0-0.1h-0.1c0,0,0-0.1-0.1-0.1v-0.1h0.1c0,0,0,0,0.1,0s0.1,0,0.2,0c0,0,0,0,0-0.1v-0.1h0.1
				c0,0,0,0,0.1,0c0-0.1,0.1-0.1,0.1-0.1l0,0c0,0,0.1,0,0-0.1c0-0.1,0-0.1,0.1-0.1h0.1c0.1,0,0.2-0.1,0.2-0.2c0,0,0-0.1,0.1-0.1
				c0-0.1,0.1-0.1,0.1-0.1H24h0.1h0.1l0,0c0-0.1,0-0.1,0-0.2l0,0l0,0v-0.1c0-0.1,0-0.1,0-0.1h0.1c0.1,0,0.1,0,0.1-0.1c0,0,0,0,0.1,0
				V10v0.1c0,0,0,0,0.1,0c0,0,0,0,0,0.1s0,0.1,0,0.2v-0.1c0,0,0,0,0.1,0h0.1v-0.1c0,0,0-0.1-0.1-0.1c-0.1-0.1-0.1-0.2-0.1-0.3
				s0-0.1-0.1-0.1s-0.1,0-0.2,0.1s-0.1,0.1-0.2,0.1c0,0,0,0-0.1,0c0,0-0.1,0-0.1-0.1c0,0,0,0,0-0.1s-0.1-0.1-0.1-0.2V9.4
				c-0.1-0.1,0-0.2,0-0.4l0,0c0,0,0.1,0,0.1-0.1H24c0,0,0.1,0,0.1-0.1l0,0c0,0,0.1-0.1,0.1,0h0.1c0,0,0-0.1,0.1-0.1l0,0
				c0,0,0,0,0-0.1c0.1,0,0.1,0,0.1,0s0,0,0-0.1c0,0,0.1-0.1,0.1-0.2l0,0c0,0,0,0,0.1,0c0,0,0-0.1,0.1-0.1l0,0c0,0,0.1,0,0.1-0.1
				c0,0,0,0,0-0.1h-0.1l0,0h-0.1V7.9c0.1,0,0.1-0.1,0.2-0.1l0,0L25,7.7c0,0,0,0,0.1,0l0,0h0.1c0-0.1,0.1-0.1,0.1-0.1s0.1,0,0.1-0.1
				s0.1,0,0.1,0c0.1,0,0.1,0,0.2,0l0,0h0.1c0,0,0,0,0-0.1c0.1,0,0.1-0.1,0.2,0c0,0,0,0,0-0.1c0,0,0,0,0.1,0h0.1l0,0h0.1l0,0l0,0l0,0
				c0-0.1,0.1-0.1,0.1-0.1c0.1,0,0.1,0,0.2,0c0,0,0.1,0,0.2,0c0,0,0.1,0,0.1,0.1s-0.1,0-0.1,0.1c0.1,0.1,0.1,0.1,0.2,0h0.1
				c0,0,0.1,0,0.1,0.1c0,0,0,0,0.1,0s0.2,0,0.2,0h0.1h0.1l0,0c0.1,0.1,0.1,0.1,0.3,0.1c0,0,0.1,0,0.1,0.1l0,0l0,0c0,0,0,0,0,0.1
				c0,0,0,0-0.1,0.1S27.8,8,27.7,8c-0.1,0-0.2,0-0.3,0c-0.1,0-0.1,0-0.2,0l0,0c0-0.1-0.1,0-0.1,0l0,0c0,0.1,0.1,0.1,0.2,0.2
				c0,0,0,0,0,0.1l0,0l0.1,0.1l0,0h0.1c0,0,0,0,0.1,0c0,0,0,0,0.1,0.1l0,0l0,0c-0.1,0-0.1-0.1-0.2-0.1C26.9,8.1,27,8,27,8.1
				c0,0,0.1,0.1,0.2,0.1h0.1h0.1V8.1c0,0,0-0.1,0.1-0.1s0.1,0,0.2-0.1l0.1-0.1c0,0,0,0,0.1,0H28c0,0,0.1,0,0.1-0.1l0,0H28
				c0.1,0,0.1,0,0.1-0.2c0,0-0.1,0-0.1-0.1l0,0c0.1,0,0.1,0,0.2,0h0.1c0,0,0.1,0,0.1,0.1c-0.1,0-0.1,0-0.2,0.1l0,0
				c0,0,0,0.1,0.1,0.1s0.1,0,0.2,0c0,0,0-0.1,0.1-0.1c0,0,0,0,0.1,0h0.1c0.1,0,0.2-0.1,0.2-0.1h0.1c0.1,0,0.1,0,0.2-0.1h0.1
				c0.1,0,0.1,0,0.2,0h0.1h0.1h0.1c0,0,0,0,0.1,0s0.1,0,0.1,0l0,0c0,0,0,0,0-0.1c0.1,0,0.1,0,0.2,0.1c0,0,0,0,0.1,0c0,0,0,0,0.1,0
				c0,0,0-0.1-0.1-0.1c0,0,0,0-0.1,0s-0.1,0-0.2-0.1l0,0c0,0,0,0,0-0.1h0.1l0.1,0.1l0,0c0.1,0,0.1,0,0.2,0s0.2,0,0.2,0h0.1
				c0.1,0,0.2,0,0.2,0.1c0,0,0.1,0,0.1,0.1h0.1l0,0c0-0.1-0.1-0.1-0.1-0.1H31c0-0.1,0-0.1,0-0.2c0,0,0,0-0.1-0.1l0,0
				c0-0.1,0.1-0.1,0.1-0.1s0.1,0,0.1-0.1c0,0,0,0,0.1-0.1c0,0,0-0.1,0.1-0.1c0,0,0,0,0.1,0l0,0c0.1-0.1,0.2-0.1,0.3,0
				c0,0,0,0,0.1,0.1l0,0c0,0,0,0,0.1,0c0,0,0,0,0.1,0s0.1,0,0.2,0c0,0,0,0,0.1,0s0.1,0,0.2,0c0.1,0,0.1,0,0.2,0c0.1,0,0.1,0,0.1-0.1
				l0,0l0,0l0,0l0,0c0,0.1,0,0.1,0.1,0.2v0.1H33V6.8c0-0.1,0-0.1-0.1-0.1c0-0.1,0.1-0.1,0.1-0.1s0,0,0.1,0c0,0,0,0,0.1,0l0,0
				c0.1,0,0.1,0,0.2,0s0.1,0,0.2,0h-0.1h0.1l0,0h0.1c0-0.1,0,0-0.1-0.1h-0.1V6.4l0,0c0,0,0,0,0.1,0c0,0,0.1,0,0.1-0.1l0,0V6.2h0.1
				l0,0l0,0h0.1c0,0,0-0.1,0.1-0.1V6l0,0l0,0l0,0c0.1,0,0.1,0,0.2,0h0.1c0,0,0.1,0,0.1-0.1l0,0c0.1,0,0.2,0,0.3,0l0,0l0,0l0,0
				c0,0,0,0-0.1,0h-0.1h-0.1l0,0l0,0h0.1c0,0,0,0,0,0.1c0,0,0.1,0,0.1-0.1h0.1h0.1c0.1,0,0.1,0,0.1,0l0,0c0,0,0,0,0.1,0s0.2,0,0.3,0
				s0.2,0,0.3-0.1c0,0,0.1,0,0.1-0.1c0,0,0,0,0.1,0h0.1l0,0H36c0.1,0,0.2,0,0.2,0h0.1l0,0c0,0,0,0-0.1,0c0,0,0,0,0,0.1h0.1l0,0l0,0
				l0,0c0,0,0.1,0.1,0.1,0h0.1c0.1,0,0.2,0,0.3,0c0,0,0,0,0.1,0l0,0H37l0,0c0,0.1,0,0.1,0.1,0.1V6c0,0,0,0-0.1,0c0,0,0,0-0.1,0.1
				c0,0,0.1,0.1,0.1,0.2h0.1c0.1,0,0.1,0,0.2,0c0,0,0,0,0.1,0h0.1h0.1h0.2c0,0,0,0,0.1,0.1H38h0.1h0.1h0.1V6.3l0,0h0.1h0.1
				c0.1,0,0.1,0,0.2,0c0.1,0,0.2,0,0.2,0l0,0l0,0H39c0,0,0,0,0,0.1c0,0,0-0.1,0.1,0c0,0,0,0,0,0.1h0.1c0,0,0,0.1,0.1,0.1l-0.1,0.1
				c0,0.1,0,0.1,0,0.1h-0.1c0,0.1,0,0.1,0.2,0.1c0,0,0.1-0.1,0.1-0.2c0,0,0,0,0.1-0.1c0.1,0,0.1,0,0.2,0c0,0,0,0,0.1,0s0.1,0,0.2,0
				l0,0c0,0,0,0,0.1,0s0.1,0,0.2,0h0.1l0,0h0.1l0,0h0.1h0.1c0,0,0,0,0.1,0c-0.1,0-0.2-0.1-0.2,0c0,0,0,0-0.1,0V6.5
				c0,0,0-0.1,0.1-0.1l0,0c0.1,0,0.1,0,0.1,0h0.1c0,0,0,0,0.1,0c0,0,0,0,0.1,0h0.1c0-0.1,0-0.1,0-0.1h0.1h0.1c0,0,0.1,0,0.1-0.1
				c0,0,0,0-0.1,0s-0.1,0-0.2,0H41l0,0c0,0,0,0-0.1,0s-0.2,0-0.3,0l0,0h-0.1h-0.1l0,0c0,0,0,0-0.1,0l0,0h-0.1c0,0,0,0-0.1,0
				c0,0,0,0,0-0.1H40c0,0-0.1,0,0-0.1V5.9c0,0,0,0,0.1-0.1c0,0,0-0.1,0.1,0c0,0,0,0,0-0.1h0.1l0,0l0,0h-0.1h-0.1h0.1l0,0h-0.1
				c-0.1,0-0.1,0-0.2,0c0,0-0.1,0-0.2,0c0,0,0,0,0-0.1c0,0,0,0,0.1,0c0-0.1,0.1-0.1,0.2-0.1c0,0,0.1,0,0.2,0c0.1,0,0.1,0,0.2,0v0.1
				l0,0l0,0c0,0,0,0,0.1,0v0.1l0,0c0,0,0,0,0.1,0c0,0,0,0,0.1,0H40c0,0,0,0,0,0.1h0.1h0.1l0,0h0.1h0.1l0,0c0,0,0,0,0.1,0
				c0,0,0-0.1,0.1,0c0,0,0,0,0.1,0h0.2c0,0,0.1,0,0.1,0.1l0,0l0,0l0,0h0.1c0.1,0,0.1,0,0.2,0h0.1h0.1c0,0,0,0,0.1,0V5.8
				c0.1,0,0,0.1,0.1,0.1c0,0,0,0,0.1,0s0,0.1,0.1,0c0,0,0,0,0-0.1H42l0,0c0,0,0,0,0.1,0c0,0,0.1,0,0.1,0.1c0,0,0,0,0.1,0s0,0,0.1,0
				c0,0-0.1,0-0.1,0.1c0,0,0-0.1-0.1-0.1h-0.1c0,0,0,0,0-0.1c0,0,0,0-0.1,0c0,0,0,0-0.1,0l0,0c0,0,0,0,0,0.1V6c-0.1,0-0.2,0-0.3,0
				l0,0h-0.1l0,0l0,0c-0.1,0-0.1,0-0.2,0l0,0c0,0,0,0,0.1-0.1l0,0l0,0c0,0,0,0-0.1,0l0,0h-0.1l0,0l0,0l0,0c-0.1,0-0.1,0.1-0.1,0.1
				l0,0c0,0,0,0,0.1-0.1l0,0l0,0l0,0c0,0,0.1,0,0.1,0.1c0,0,0.1,0.1,0.1,0c0,0,0,0,0.1,0l0,0c0,0,0,0,0.1,0c0,0,0,0,0.1,0l0,0
				c0.1,0.1,0.1,0.1,0.2,0.1l0,0c0,0,0,0,0.1,0s0,0,0.1,0h0.1c0,0,0.1,0,0.1-0.1c0.1,0,0.1,0,0.1,0h0.1l0,0c0.1,0,0.1,0,0.1,0l0,0
				c0.1,0,0.1,0,0.2,0l0,0c0.1,0,0.2,0,0.3,0.1l0,0c0,0.1,0.1,0.1,0.1,0.1c-0.1,0-0.1,0-0.2,0.1c0.1,0,0.1,0,0.2,0h0.1h0.1
				c0.1,0,0.1,0,0.2,0c0.1,0,0.1,0,0.2,0c0.1-0.1,0.1-0.1,0.2,0l0,0l0,0l0,0h-0.1l0,0H44h0.1c0,0.1,0.1,0,0.1,0l0,0
				c0,0,0-0.1-0.1-0.1l0,0c0-0.1,0,0,0,0s0,0,0-0.1l0,0c0.1,0,0.1,0,0.2,0c0,0,0,0,0.1,0h0.1l0,0c0.1,0,0.1,0,0.2,0
				c0.1,0,0.1,0,0.2,0H45h0.1v0.1c0,0.1-0.1,0.1-0.1,0.2s0,0.2,0,0.2s0.1,0,0.1,0.1C44.8,7.9,44.7,8,44.7,8.1z"/>
		</g>
	</g>
	<g>
		<g>
			<g>
				<g>
					<path class="st2" d="M9.3,29l-1.1-8l4.9,2L9.3,29z M8.5,21.5l1,6.6l3.1-5L8.5,21.5z"/>
				</g>
			</g>
			<g>
				<path class="st2" d="M21.7,24.1l-9.1-0.9l4.5-5.7L21.7,24.1z M13.1,23l7.9,0.7L17,18L13.1,23z"/>
			</g>
			<g>
				<path class="st2" d="M37,30.8L21.2,24l3.2-8.5L37,30.8z M21.6,23.8L36,30L24.5,16.1L21.6,23.8z"/>
			</g>
			<g>
				<path class="st2" d="M16.8,17.9l1.1-7l6.9-5.8l-0.2,10.7L16.8,17.9z M18.2,11.1l-1,6.4l7.1-1.8l0.2-9.8L18.2,11.1z"/>
			</g>
			<g>
				<path class="st2" d="M24.4,16l-6.8-5.1l14.2-0.2L24.4,16z M18.5,11.2l5.9,4.4l6.4-4.6L18.5,11.2z"/>
			</g>
			<g>
				<path class="st2" d="M31.3,11l-7.2-5.7l16.7,3.1L31.3,11z M25.2,5.8l6.2,4.9l8.1-2.3L25.2,5.8z"/>
			</g>
			<g>
				<path class="st2" d="M41.1,17.2l-3.6-3.8l2.7-5.6L41.1,17.2z M37.8,13.4l2.9,3L40,8.9L37.8,13.4z"/>
			</g>
			<g>
				<path class="st2" d="M35,20.3l-4-9.7l6.8,2.8L35,20.3z M31.6,11.1l3.4,8.3l2.4-6L31.6,11.1z"/>
			</g>
			<g>
				<path class="st2" d="M39.6,22.5l-4.9-2.7l6.4-3.6L39.6,22.5z M35.3,19.9l4.1,2.2l1.2-5.2L35.3,19.9z"/>
			</g>
			<g>
				<path class="st2" d="M17.3,18l-8.9-4l5.3-5.9L17.3,18z M8.8,13.9l7.9,3.6l-3.2-8.8L8.8,13.9z"/>
			</g>
			<g>
				<g>
					<polygon class="st2" points="18,11.2 13.2,8.3 24.6,5.4 24.7,5.7 14,8.4 18.1,10.9 					"/>
				</g>
			</g>
		</g>
		<g>
			<g>
				<g>
					<circle class="st3" cx="31.3" cy="10.9" r="0.8"/>
				</g>
			</g>
			<g>
				<g>
					<circle class="st3" cx="40.1" cy="8.4" r="0.8"/>
				</g>
			</g>
			<g>
				<g>
					<circle class="st3" cx="40.9" cy="16.8" r="0.8"/>
				</g>
			</g>
			<g>
				<g>
					<circle class="st3" cx="37.6" cy="13.4" r="0.8"/>
				</g>
				<g>
					<circle class="st3" cx="35" cy="19.9" r="0.8"/>
				</g>
			</g>
			<g>
				<g>
					<circle class="st3" cx="39.5" cy="22.3" r="0.8"/>
				</g>
				<g>
					<circle class="st3" cx="24.4" cy="15.8" r="0.8"/>
				</g>
				<g>
					<circle class="st3" cx="18.1" cy="11.1" r="0.8"/>
				</g>
				<g>
					<circle class="st3" cx="17" cy="17.7" r="0.8"/>
				</g>
				<g>
					<circle class="st3" cx="24.6" cy="5.5" r="0.8"/>
				</g>
				<g>
					<circle class="st3" cx="13.6" cy="8.4" r="0.8"/>
				</g>
				<g>
					<circle class="st3" cx="8.6" cy="13.9" r="0.8"/>
				</g>
				<g>
					<circle class="st3" cx="8.3" cy="21.3" r="0.8"/>
				</g>
				<g>
					<circle class="st3" cx="12.8" cy="23.1" r="0.8"/>
				</g>
				<g>
					<circle class="st3" cx="9.4" cy="28.6" r="0.8"/>
				</g>
			</g>
			<g>
				<g>
					<circle class="st3" cx="36.5" cy="30.4" r="0.8"/>
				</g>
				<g>
					<circle class="st3" cx="21.4" cy="23.9" r="0.8"/>
				</g>
			</g>
		</g>
	</g>
	<g>
		<g>
			<g>
				<path class="st4" d="M47.9,32.7c-0.8,1.2-3.1,4.7-4.2,6.2c-0.2,0.2-0.5,0.3-0.7,0.1l-3.3-2.2c-0.2-0.2-0.3-0.5-0.1-0.7
					c1.2-1.5,3.4-4.8,4.2-6c0.2-0.2,0.4-0.3,0.7-0.1l3.3,2C48,32.1,48.1,32.5,47.9,32.7z"/>
			</g>
			<g>
				<path class="st5" d="M47.5,32.4c-0.6,0.9-2.5,3.8-3.7,5.5l0,0l-3.3-2.2l0,0c1.2-1.6,2.9-4.2,3.7-5.3L47.5,32.4z"/>
			</g>
		</g>
		<g>
			<g>
				<g>
					<path class="st6" d="M26.3,26.3V26c0,0-1-1-1.2-1.8s-0.2-2.6,0-3c0.2-0.5,0.2-0.5,0.2-0.5l5.7,1.4c0,0-0.2,3.1,0,3.8
						C31.3,26.5,26.3,26.3,26.3,26.3z"/>
				</g>
			</g>
			<g>
				<g>
					<path class="st6" d="M20.6,26.3c-0.1,0.4,0.1,2.9,0.1,2.9l0.1,5.1L19,32.6l-0.3-6v-0.1c0-0.2-1-1.2-1-1.4s0.2-0.4,0.2-0.4
						s-0.2-0.5,0-0.6s0.2-0.1,0.2-0.1s-0.1-0.6,0.4-0.6c0,0,0.3-0.1,0.3-0.3s-0.1-1-0.2-1.3s-0.3-0.6-0.1-0.8
						c0.2-0.2,0.4,0.1,0.7,0.6c0.2,0.5,0.4,1.1,0.4,1.3c0.1,0.2,0.4,0.6,0.5,0.6s0.1-0.1,0.1-0.1S20,22.9,20,22.8c0,0-0.3-0.9,0.4-1
						l0.2,0.5c0,0,0.1,0.3,0.1,0.5c0,0,0.3,0.8,0.2,1.4C21,24.7,20.7,25.9,20.6,26.3z"/>
				</g>
			</g>
			<g>
				<g>
					<path class="st7" d="M19.1,33.1c0,0-0.2-0.9-0.1-1.1c0.1-0.2,1.3-1,1.3-1S20.1,33,19.1,33.1z"/>
				</g>
			</g>
			<g>
				<g>
					<path class="st4" d="M21.6,28.3c0,0-1.2,0.5-1.4,1.2C20,30.2,20,30.7,19.9,31s-0.1,0.2-0.2,0.6s-0.1,0.7-0.1,0.7
						s-0.5,0.4-0.5,0.6s0.1,1.1,0.3,1.6s0.1,0.9,0.7,1c0.5,0.1,1.6,0.1,1.9-0.1c0.2-0.2,0.6-0.9,0.6-0.9L21.6,28.3z"/>
				</g>
			</g>
			<g>
				<g>
					<path class="st8" d="M22.4,35.3c0.4,0.6,1.7,4.1,2,5s-0.4,2.5-0.5,3.3s-0.1,2.5-0.3,3.2c-0.1,0.3-0.2,0.8-0.3,1.2h12.5
						c-0.3-1.9-0.9-3.7-0.9-3.7l1.3-14.4c0,0-0.7-0.6-1.7-0.9c-1-0.2-1.9-1-1.9-1l-0.7-0.6l-7.6,0.4c0,0-2.6,0-3.1,0.8
						s-0.4,2.6-0.3,3.7C21,33.5,22,34.7,22.4,35.3z"/>
				</g>
			</g>
			<g>
				<g>
					<path class="st6" d="M46,36.5c-0.1,0.5-0.3,1-0.3,1.4s0.2,0.5,0.1,0.7c-0.1,0.2-2,1.5-2.3,1.9c-0.4,0.4-0.8,0.6-1.5,1.3
						c-0.7,0.7-5,4.2-5,4.2v-3.2c0,0,1.7-0.9,2.2-1.2s2.7-1.7,2.9-2.7s0.7-2,1.1-2.2c0.4-0.2,0.7-0.5,0.9-0.9
						c0.3-0.4,0.8-0.9,1.1-0.6c0.3,0.2,0.2,0.6-0.1,1s-0.8,1-0.9,1.2c-0.1,0.2,0.3,0.2,0.5,0c0.3-0.4,0.6-0.9,1-1.4
						C45.9,35.9,46.1,36.1,46,36.5z"/>
				</g>
			</g>
			<g>
				<g>
					<path class="st9" d="M36.4,42.9l0.7-0.3c0,0,1.1,1.2,0.7,2.2c-0.4,1-0.8,1.3-1.4,1.5s-0.6,0.2-0.6,0.2L36.4,42.9z"/>
				</g>
			</g>
			<g>
				<g>
					<path class="st7" d="M26.2,26.3c0,0-0.1-0.5,0.2-0.9c0.4-0.4,1-0.4,1.6-0.4s3.2,0,3.5,1s-0.1,1.4-0.1,1.4l-5.2-0.6V26.3z"/>
				</g>
			</g>
			<g>
				<g>
					<path class="st4" d="M24.3,27.8c0,0,0.9-1.4,1.5-1.5c0.5-0.1,4.6,0.1,5.2,0.3c0.6,0.2,1.4,1.3,1.6,1.4c0,0-1.1,0-3.3,0
						S24.7,27.7,24.3,27.8z"/>
				</g>
			</g>
			<g>
				<g>
					<g>
						<g>
							<path class="st10" d="M24.6,20.3c0,0-0.3,2.9,4.3,3.6c0,0,1.6,0.6,2.2-0.5s1.5-3.6-0.9-5.9S24.7,17.9,24.6,20.3z"/>
						</g>
					</g>
					<g>
						<path class="st10" d="M28.9,23.5c0.1,0.3,0.2,0.6,0.1,0.9s-0.2,0.6-0.3,0.9c-0.1,0.3-0.3,0.6-0.4,0.9
							c-0.5,0.9-1.2,1.6-1.7,2.4c-0.6,0.9-0.9,2-0.9,3.1c0,0.9,0.3,1.8,0.3,2.7c0,0.3,0,0.6,0,0.9c0,0.2,0.1,0.5,0.2,0.7
							c0.2,0.8,0.6,1.6,1.2,2.1c0.2,0.2,0.4,0.3,0.7,0.5c0.2,0.2,0.4,0.4,0.4,0.7c0.2-1,0.8-1.9,1.1-2.8c0.1-0.4,0.2-0.7,0.3-1.1
							c0.1-0.3,0.3-0.5,0.4-0.8c0.5-1.1,0.7-2.4,0.8-3.6c0-0.3,0-0.7,0.1-1c0.1-0.2,0.2-0.4,0.2-0.6c0.1-0.2,0.1-0.4,0.1-0.6
							c0-0.5,0-1-0.1-1.4c-0.3-1.2-1.2-2.1-1.5-3.3c-0.1-0.3-0.2-0.6-0.2-1"/>
					</g>
				</g>
				<g>
					<g>
						<path class="st4" d="M29.9,24.6c-0.3-0.2-0.6-0.1-0.9,0.1c-0.2-0.2-0.3-0.5-0.2-0.7c0.4,0.1,0.8,0.2,1.1,0.2
							C30.1,24.2,30.1,24.4,29.9,24.6z"/>
					</g>
				</g>
			</g>
			<g>
				<g>
					<path class="st4" d="M33.8,33c0.8-2.2,1.2-3.2,2.1-3.2s1.5,2.5,1.2,4.1c-0.2,1.6-0.7,4.2-0.7,5.6c0,1.3-0.3,3.6-0.3,3.6
						l0.5-0.2c0,0,1.4,1.6,0,3.6c0,0-1.1,0.8-1.9,1c-0.8,0.2-1.1-0.2-1.4-0.8c-0.3-0.6-0.9-2.1-0.9-2.7C32.2,43.2,31.9,38.7,33.8,33
						z"/>
				</g>
			</g>
		</g>
		<g>
			<circle class="st8" cx="41.7" cy="37.4" r="0.3"/>
		</g>
	</g>
</g>
</svg>
