<?xml version="1.0" encoding="utf-8"?>
<!-- Generator: Adobe Illustrator 18.0.0, SVG Export Plug-In . SVG Version: 6.00 Build 0)  -->
<!DOCTYPE svg PUBLIC "-//W3C//DTD SVG 1.1//EN" "http://www.w3.org/Graphics/SVG/1.1/DTD/svg11.dtd">
<svg version="1.1" id="Layer_1" xmlns="http://www.w3.org/2000/svg" xmlns:xlink="http://www.w3.org/1999/xlink" x="0px" y="0px"
	 viewBox="0 0 48 48" enable-background="new 0 0 48 48" xml:space="preserve">
<g>
	<g>
		<g>
			<path fill="#FFD15C" d="M45.5,4.9H17.2l-1.4-3.3C15.4,0.6,14.5,0,13.5,0h-11C1.1,0,0,1.1,0,2.5v35.9c0,1.4,1.1,2.5,2.5,2.5h43
				c1.4,0,2.5-1.1,2.5-2.5v-31C48,6,46.9,4.9,45.5,4.9z"/>
		</g>
		<g>
			<g>
				<path fill="#E8EAE9" d="M18.9,30.6v-6.8c0-2.8,2.3-5.1,5.1-5.1c2.8,0,5.1,2.3,5.1,5.1v6.8h3v-6.8c0-4.4-3.6-8.1-8.1-8.1
					c-4.4,0-8.1,3.6-8.1,8.1v6.8H18.9z"/>
			</g>
		</g>
		<g>
			<path fill="#F3705A" d="M33.2,29.1H14.8c-1.1,0-2,0.9-2,2V46c0,1.1,0.9,2,2,2h18.5c1.1,0,2-0.9,2-2V31.1
				C35.2,30,34.3,29.1,33.2,29.1z"/>
		</g>
		<g>
			<path fill="#415A6B" d="M21.5,43.4h5l-1.4-3.9c0.7-0.4,1.3-1.2,1.3-2.1c0-1.3-1.1-2.4-2.4-2.4c-1.3,0-2.4,1.1-2.4,2.4
				c0,0.9,0.5,1.7,1.3,2.1L21.5,43.4z"/>
		</g>
	</g>
</g>
</svg>
