<?xml version="1.0" encoding="utf-8"?>
<!-- Generator: Adobe Illustrator 18.0.0, SVG Export Plug-In . SVG Version: 6.00 Build 0)  -->
<!DOCTYPE svg PUBLIC "-//W3C//DTD SVG 1.1//EN" "http://www.w3.org/Graphics/SVG/1.1/DTD/svg11.dtd">
<svg version="1.1" id="Layer_1" xmlns="http://www.w3.org/2000/svg" xmlns:xlink="http://www.w3.org/1999/xlink" x="0px" y="0px"
	 viewBox="0 0 48 48" enable-background="new 0 0 48 48" xml:space="preserve">
<g>
	<g>
		<path fill="#FFD15C" d="M11.6,23.9c0,0,0.8,1.6,1.7,2.3c0.9,0.7,0.9,0.7,0.9,0.7l-1.8,2.7c0,0-0.8-0.4-1.9-1.1
			c-1.1-0.7-2.8-3.2-3.2-3.5s-0.9-1.1-0.4-2C7.5,22,7.1,21.9,8,21c0.9-0.8,0.9-0.8,0.9-0.8S11.6,23,11.6,23.9z"/>
	</g>
	<g>
		<g>
			<path fill="#48B9A5" d="M40,23C40,23,40,23,40,23C40,23,40,23,40,23c0-0.1,0-0.1,0-0.1c0,0,0-0.1,0-0.1c0-0.1,0-0.1,0-0.2
				c0,0,0-0.1,0-0.1c0,0,0-0.1,0-0.1c0-0.1,0-0.1,0.1-0.2c0-0.1,0.1-0.2,0.1-0.2c0-0.1,0.1-0.2,0.1-0.2c0,0,0-0.1,0.1-0.1
				c0,0,0-0.1,0.1-0.1c0,0,0-0.1,0.1-0.1c0,0,0-0.1,0.1-0.1c0,0,0-0.1,0.1-0.1c0,0,0-0.1,0.1-0.1c0,0,0-0.1,0.1-0.1
				c0,0,0-0.1,0.1-0.1c0,0,0.1-0.1,0.1-0.1c0,0,0.1-0.1,0.1-0.1c0.1-0.1,0.1-0.1,0.1-0.1s0,0-0.1,0.1c0,0-0.1,0.1-0.1,0.1
				c0,0-0.1,0.1-0.1,0.1c0,0,0,0.1-0.1,0.1c0,0,0,0.1-0.1,0.1c0,0,0,0.1-0.1,0.1c0,0,0,0.1-0.1,0.1c0,0,0,0.1-0.1,0.1
				c0,0,0,0.1-0.1,0.1c0,0,0,0.1-0.1,0.1c0,0,0,0.1,0,0.1c0,0.1-0.1,0.2-0.1,0.2c0,0.1,0,0.2-0.1,0.2c0,0.1,0,0.1-0.1,0.2
				c0,0,0,0.1,0,0.1c0,0,0,0.1,0,0.1c0,0.1,0,0.1,0,0.2c0,0,0,0.1,0,0.1c0,0,0,0,0,0c0,0,0,0,0,0c0,0,0,0,0,0L40,23z"/>
		</g>
		<g>
			<path fill="#48B9A5" d="M39.6,23C39.6,23,39.6,23,39.6,23c0-0.1,0-0.1,0-0.2c0-0.1,0.1-0.3,0.1-0.4c0-0.1,0.1-0.2,0.1-0.3
				c0-0.1,0.1-0.2,0.1-0.3c0-0.1,0.1-0.2,0.1-0.3c0-0.1,0.1-0.2,0.1-0.4c0-0.1,0.1-0.2,0.1-0.3c0-0.1,0-0.1,0.1-0.2c0,0,0-0.1,0-0.1
				c0,0,0-0.1,0-0.1c0.1-0.1,0.1-0.2,0.1-0.3c0,0,0-0.1,0.1-0.1c0,0,0-0.1,0.1-0.1c0-0.1,0.1-0.2,0.1-0.2c0-0.1,0.1-0.1,0.1-0.2
				c0.1-0.1,0.1-0.1,0.1-0.1s0,0.1-0.1,0.1c0,0-0.1,0.1-0.1,0.2c0,0.1-0.1,0.1-0.1,0.2c0,0,0,0.1-0.1,0.1c0,0,0,0.1-0.1,0.1
				c0,0.1-0.1,0.2-0.1,0.3c0,0,0,0.1,0,0.1c0,0,0,0.1,0,0.1c0,0.1,0,0.1-0.1,0.2c0,0.1-0.1,0.2-0.1,0.4c0,0.1-0.1,0.2-0.1,0.4
				c0,0.1-0.1,0.2-0.1,0.3c0,0.1,0,0.2-0.1,0.3c0,0.1,0,0.2-0.1,0.3c0,0.2-0.1,0.3-0.1,0.4c0,0.1,0,0.1,0,0.1c0,0,0,0,0,0L39.6,23z"
				/>
		</g>
		<g>
			<path fill="#67C5B8" d="M39.4,23C39.4,23,39.4,23,39.4,23c0-0.1,0-0.1,0-0.2c0-0.1,0.1-0.3,0.1-0.4c0-0.2,0.1-0.4,0.1-0.6
				c0-0.1,0-0.2,0-0.4c0-0.1,0-0.3,0-0.4c0-0.1,0-0.3,0-0.4c0-0.1,0-0.1,0-0.2c0-0.1,0-0.1,0-0.2c0-0.1,0-0.2,0-0.3
				c0-0.1,0-0.1,0-0.2c0-0.1,0-0.1,0-0.1c0,0,0-0.1,0-0.1c0,0,0-0.1,0-0.1c0,0,0-0.1,0-0.1c0,0,0-0.1,0-0.1c0,0,0,0,0-0.1
				c0,0,0,0,0,0c0,0,0,0,0,0s0,0,0,0c0,0,0,0,0,0c0,0,0,0,0,0.1c0,0,0,0,0.1,0.1c0,0,0,0.1,0.1,0.1c0,0,0,0.1,0.1,0.1
				c0,0,0,0.1,0.1,0.1c0,0,0,0.1,0,0.1c0,0,0,0.1,0,0.2c0,0.1,0.1,0.2,0.1,0.3c0,0.1,0,0.1,0,0.2c0,0.1,0,0.1,0,0.2
				c0,0.1,0,0.3,0,0.4c0,0.5,0,1-0.1,1.4c0,0.2,0,0.4-0.1,0.5c0,0.1,0,0.1,0,0.1c0,0,0,0,0,0L39.4,23z"/>
		</g>
		<g>
			<path fill="#48B9A5" d="M39,23C39,23,39,22.9,39,23c0-0.1,0-0.1,0-0.1c0-0.1,0-0.2,0.1-0.4c0-0.1,0-0.2,0.1-0.3
				c0-0.1,0-0.2,0.1-0.3c0-0.1,0.1-0.2,0.1-0.3c0-0.1,0.1-0.2,0.1-0.3c0-0.1,0.1-0.2,0.1-0.3c0-0.1,0.1-0.2,0.1-0.3
				c0-0.1,0.1-0.2,0.1-0.3c0-0.1,0.1-0.2,0.1-0.2c0-0.1,0.1-0.1,0.1-0.2c0,0,0,0,0,0c0,0,0,0,0,0c0,0,0,0,0-0.1
				c0.1-0.1,0.1-0.1,0.1-0.1s0,0-0.1,0.1c0,0,0,0,0,0.1c0,0,0,0,0,0c0,0,0,0,0,0c0,0.1-0.1,0.1-0.1,0.2c0,0.1-0.1,0.2-0.1,0.2
				c0,0.1-0.1,0.2-0.1,0.3c0,0.1-0.1,0.2-0.1,0.3c0,0.1-0.1,0.2-0.1,0.3c0,0.1-0.1,0.2-0.1,0.3c0,0.1,0,0.2-0.1,0.3
				c0,0.1,0,0.2-0.1,0.3c0,0.1,0,0.2,0,0.3c0,0.2,0,0.3,0,0.4c0,0,0,0.1,0,0.1c0,0,0,0,0,0L39,23z"/>
		</g>
		<g>
			<path fill="#67C5B8" d="M38.4,23C38.4,23,38.4,23,38.4,23c0-0.1,0-0.1,0-0.2c0,0,0-0.1,0-0.2c0-0.1,0-0.1,0-0.2
				c0-0.1,0-0.2,0-0.3c0-0.1,0-0.2,0-0.3c0-0.1,0-0.1,0-0.2c0-0.1,0-0.1,0-0.2c0-0.1,0-0.2,0-0.3c0-0.1,0-0.2,0-0.3
				c0-0.1,0-0.2,0-0.3c0-0.1,0-0.2,0-0.3c0-0.1,0-0.2,0-0.3c0-0.1,0-0.2,0-0.2c0-0.1,0-0.1,0-0.2c0-0.1,0-0.1,0-0.1s0,0.1,0,0.1
				c0,0,0,0.1,0,0.2c0,0.1,0,0.1,0,0.2c0,0.1,0,0.2,0,0.3c0,0.1,0,0.2,0,0.3c0,0.1,0,0.2,0,0.3c0,0.1,0,0.2,0,0.3c0,0.1,0,0.2,0,0.3
				c0,0.1,0,0.1,0,0.2c0,0.1,0,0.1,0,0.2c0,0.1,0,0.2,0,0.3c0,0.1,0,0.2,0,0.3c0,0.1,0,0.2,0,0.2c0,0.1,0,0.1,0,0.2c0,0,0,0.1,0,0.1
				c0,0,0,0,0,0L38.4,23z"/>
		</g>
		<g>
			<path fill="#67C5B8" d="M38.7,23C38.7,23,38.7,22.9,38.7,23c0-0.1,0-0.1,0-0.2c0-0.1,0-0.1,0-0.2c0-0.1,0-0.2,0-0.3
				c0-0.1,0-0.2,0-0.4c0-0.1,0-0.3,0-0.4c0-0.1,0-0.3,0-0.4c0-0.1,0-0.3,0-0.4c0-0.1,0-0.3,0-0.4c0-0.1,0-0.3,0-0.4
				c0-0.1,0-0.3,0-0.4c0-0.1,0-0.2,0-0.4c0-0.1,0-0.2,0-0.3c0-0.1,0-0.2,0-0.2c0-0.1,0-0.2,0-0.2s0,0.1,0,0.2c0,0.1,0,0.1,0.1,0.2
				c0,0.1,0,0.2,0.1,0.3c0,0.1,0.1,0.2,0.1,0.4c0,0.1,0.1,0.3,0.1,0.4c0,0.1,0,0.3,0.1,0.4c0,0.1,0,0.3,0.1,0.4c0,0.1,0,0.3,0.1,0.4
				c0,0.1,0,0.3,0,0.4c0,0.1,0,0.3,0,0.4c0,0.1,0,0.3,0,0.4c0,0.1,0,0.2,0,0.3c0,0.1,0,0.2,0,0.2c0,0.1,0,0.1,0,0.2c0,0,0,0.1,0,0.1
				L38.7,23z"/>
		</g>
		<g>
			<path fill="#48B9A5" d="M37.8,22.8c0,0,0-0.1,0-0.2c0-0.1,0-0.2,0-0.4c0-0.2,0-0.4,0-0.6c0-0.1,0-0.2,0-0.3c0-0.1,0-0.2,0-0.3
				c0-0.1,0-0.2,0-0.3c0-0.1,0-0.1,0-0.2c0-0.1,0-0.1,0-0.2c0-0.1,0-0.2,0-0.3c0-0.1,0-0.2,0-0.3c0,0,0-0.1,0-0.1c0,0,0-0.1,0-0.1
				c0-0.1,0-0.1,0-0.2c0-0.1,0-0.2,0-0.2s0,0.1,0,0.2c0,0.1,0,0.1,0,0.2c0,0,0,0.1,0,0.1c0,0,0,0.1,0,0.1c0,0.1,0,0.2,0,0.3
				c0,0.1,0,0.2,0,0.3c0,0.1,0,0.1,0,0.2c0,0.1,0,0.1,0,0.2c0,0.1,0,0.2,0,0.3c0,0.1,0,0.2,0,0.3c0,0.1,0,0.2,0,0.3
				c0,0.2,0,0.4,0,0.6c0,0.2,0,0.3,0,0.4c0,0.1,0,0.2,0,0.2L37.8,22.8z"/>
		</g>
		<g>
			<path fill="#67C5B8" d="M37.5,22.9C37.5,22.9,37.5,22.9,37.5,22.9c0-0.1,0-0.1,0-0.2c0-0.1,0-0.1,0-0.2c0-0.1,0-0.2,0-0.3
				c0-0.1,0-0.2,0-0.3c0-0.1,0-0.2,0-0.4c0-0.1,0-0.1,0-0.2c0-0.1,0-0.1,0-0.2c0-0.1,0-0.3,0-0.4c0-0.1,0-0.3,0-0.4
				c0-0.1,0-0.3-0.1-0.4c0-0.1,0-0.2-0.1-0.4c0-0.1,0-0.2-0.1-0.3c0-0.1-0.1-0.2-0.1-0.3c0-0.1,0-0.1-0.1-0.2c0-0.1-0.1-0.2-0.1-0.2
				s0,0.1,0.1,0.2c0,0.1,0.1,0.1,0.1,0.2c0,0.1,0.1,0.2,0.1,0.3c0,0.1,0.1,0.2,0.1,0.3c0,0.1,0.1,0.2,0.1,0.4c0,0.1,0.1,0.2,0.1,0.4
				c0,0.1,0.1,0.3,0.1,0.4c0,0.1,0,0.3,0.1,0.4c0,0.1,0,0.1,0,0.2c0,0.1,0,0.1,0,0.2c0,0.1,0,0.2,0,0.4c0,0.1,0,0.2,0,0.3
				c0,0.1,0,0.2,0,0.3c0,0.1,0,0.2,0,0.2c0,0.1,0,0.1,0,0.1c0,0,0,0,0,0L37.5,22.9z"/>
		</g>
		<g>
			<path fill="#67C5B8" d="M36.6,23c0,0,0,0,0-0.1c0-0.1,0-0.2,0-0.3c0-0.1,0-0.3,0-0.4c0-0.1,0-0.2,0-0.2c0-0.1,0-0.2,0-0.3
				c0-0.1,0-0.2,0-0.3c0-0.1,0-0.2,0-0.2c0-0.1,0-0.2,0.1-0.2c0-0.1,0-0.1,0.1-0.2c0-0.1,0-0.1,0.1-0.2c0-0.1,0-0.1,0-0.1
				c0-0.1,0-0.1,0-0.1s0,0,0,0.1c0,0,0,0.1,0,0.1c0,0.1,0,0.1,0,0.2c0,0.1,0,0.1,0,0.2c0,0.1,0,0.1,0,0.2c0,0.1,0,0.2,0,0.2
				c0,0.1,0,0.2,0,0.3c0,0.1,0,0.2,0,0.3c0,0.1,0,0.2,0,0.2c0,0.2,0,0.3,0,0.4c0,0.1,0,0.2,0,0.3c0,0.1,0,0.1,0,0.1L36.6,23z"/>
		</g>
		<g>
			<path fill="#67C5B8" d="M35.7,22.8C35.7,22.8,35.7,22.8,35.7,22.8c0-0.1,0-0.1,0-0.1c0-0.1,0-0.2,0-0.3c0-0.1,0-0.1,0-0.2
				c0-0.1,0-0.2,0-0.2c0-0.1,0-0.2,0-0.2c0-0.1,0-0.2-0.1-0.3c0-0.1,0-0.2-0.1-0.3c0-0.1,0-0.2-0.1-0.2c0-0.1,0-0.2-0.1-0.2
				c0-0.1-0.1-0.1-0.1-0.2c0-0.1-0.1-0.1-0.1-0.2c0,0,0,0,0-0.1c0,0,0,0,0-0.1c0-0.1-0.1-0.1-0.1-0.1s0,0,0.1,0.1c0,0,0,0,0,0.1
				c0,0,0,0,0,0.1c0,0,0.1,0.1,0.1,0.2c0,0.1,0.1,0.1,0.1,0.2c0,0.1,0.1,0.1,0.1,0.2c0,0.1,0.1,0.2,0.1,0.2c0,0.1,0.1,0.2,0.1,0.2
				c0,0.1,0.1,0.2,0.1,0.3c0,0.1,0,0.2,0.1,0.2c0,0.1,0,0.2,0.1,0.2c0,0.1,0,0.1,0,0.2c0,0.1,0,0.2,0.1,0.3c0,0,0,0.1,0,0.1
				c0,0,0,0,0,0L35.7,22.8z"/>
		</g>
		<g>
			<path fill="#67C5B8" d="M36,22.9C36,22.9,36,22.9,36,22.9c0-0.1,0-0.1,0-0.2c0-0.1,0-0.1,0-0.2c0-0.1,0-0.2,0-0.2
				c0-0.1,0-0.2,0-0.3c0-0.1,0-0.2,0-0.3c0-0.1,0-0.1,0-0.2c0-0.1,0-0.1,0-0.2c0-0.1,0-0.2-0.1-0.3c0-0.1,0-0.1,0-0.2
				c0-0.1,0-0.1,0-0.2c0-0.1-0.1-0.2-0.1-0.3c0-0.1-0.1-0.2-0.1-0.3c0-0.1-0.1-0.2-0.1-0.3c0-0.1-0.1-0.2-0.1-0.2
				c0-0.1-0.1-0.1-0.1-0.2c0-0.1-0.1-0.1-0.1-0.1s0,0.1,0.1,0.1c0,0,0.1,0.1,0.1,0.2c0,0.1,0.1,0.1,0.1,0.2c0,0.1,0.1,0.2,0.1,0.3
				c0,0.1,0.1,0.2,0.1,0.3c0,0.1,0.1,0.2,0.1,0.3c0,0.1,0,0.1,0.1,0.2c0,0.1,0,0.1,0.1,0.2c0,0.1,0.1,0.2,0.1,0.3c0,0.1,0,0.1,0,0.2
				c0,0.1,0,0.1,0,0.2c0,0.1,0.1,0.2,0.1,0.3c0,0.1,0,0.2,0.1,0.3c0,0.1,0,0.2,0,0.2c0,0.1,0,0.1,0,0.2c0,0.1,0,0.1,0,0.1
				c0,0,0,0,0,0L36,22.9z"/>
		</g>
		<g>
			<path fill="#48B9A5" d="M36.3,22.9C36.3,22.9,36.3,22.9,36.3,22.9c0-0.1,0-0.1,0-0.2c0-0.1,0-0.3,0-0.5c0-0.4,0-1,0-1.6
				c0-0.1,0-0.3,0.1-0.4c0-0.1,0-0.3,0.1-0.4c0-0.1,0.1-0.3,0.1-0.4c0-0.1,0.1-0.2,0.1-0.3c0-0.1,0.1-0.2,0.1-0.3
				c0-0.1,0.1-0.2,0.1-0.2c0.1-0.1,0.1-0.2,0.1-0.2s0,0.1-0.1,0.2c0,0.1,0,0.1-0.1,0.2c0,0.1-0.1,0.2-0.1,0.3c0,0.1-0.1,0.2-0.1,0.3
				c0,0.1,0,0.2-0.1,0.4c0,0.1,0,0.3,0,0.4c0,0.1,0,0.3,0,0.4c0,0.6,0,1.1,0.1,1.6c0,0.2,0.1,0.4,0.1,0.5c0,0.1,0,0.1,0,0.1
				c0,0,0,0,0,0L36.3,22.9z"/>
		</g>
		<g>
			<path fill="#67C5B8" d="M37.1,23C37.1,23,37.1,23,37.1,23c0-0.1,0-0.1,0-0.2c0-0.1,0-0.3-0.1-0.4c-0.1-0.4-0.2-0.8-0.3-1.3
				c0-0.1,0-0.1-0.1-0.2c0-0.1,0-0.1-0.1-0.2c0-0.1-0.1-0.2-0.1-0.3c0-0.1-0.1-0.2-0.1-0.3c0-0.1-0.1-0.2-0.1-0.3c0,0,0-0.1-0.1-0.1
				c0,0,0-0.1-0.1-0.1c0-0.1-0.1-0.1-0.1-0.2c0,0-0.1-0.1-0.1-0.1c0,0,0,0,0,0s0,0,0,0c0,0,0.1,0.1,0.1,0.1c0,0,0.1,0.1,0.1,0.1
				c0,0,0,0.1,0.1,0.1c0,0,0.1,0.1,0.1,0.1c0.1,0.1,0.1,0.2,0.2,0.3c0.1,0.1,0.1,0.2,0.2,0.3c0.1,0.1,0.1,0.2,0.2,0.3
				c0,0.1,0.1,0.1,0.1,0.2c0,0.1,0.1,0.1,0.1,0.2c0.2,0.5,0.4,0.9,0.5,1.3c0.1,0.2,0.1,0.3,0.1,0.4c0,0.1,0,0.1,0,0.1c0,0,0,0,0,0
				L37.1,23z"/>
		</g>
		<g>
			<path fill="#67C5B8" d="M38.1,23C38.1,23,38.1,22.9,38.1,23c0-0.1,0-0.1,0-0.1c0-0.1,0-0.2,0.1-0.4c0.1-0.3,0.1-0.7,0.3-1
				c0-0.1,0.1-0.2,0.1-0.3c0,0,0-0.1,0.1-0.1c0,0,0-0.1,0.1-0.1c0-0.1,0.1-0.2,0.1-0.2c0-0.1,0.1-0.1,0.1-0.2c0,0,0-0.1,0.1-0.1
				c0,0,0-0.1,0.1-0.1c0,0,0.1-0.1,0.1-0.1c0,0,0.1-0.1,0.1-0.1c0,0,0,0,0,0s0,0,0,0c0,0,0,0-0.1,0.1c0,0-0.1,0.1-0.1,0.1
				c0,0,0,0.1,0,0.1c0,0,0,0.1,0,0.1c0,0.1-0.1,0.1-0.1,0.2c0,0.1-0.1,0.2-0.1,0.2c0,0,0,0.1,0,0.1c0,0,0,0.1,0,0.1
				c0,0.1,0,0.2-0.1,0.3c-0.1,0.4-0.1,0.8-0.1,1c0,0.1,0,0.3,0,0.3c0,0,0,0.1,0,0.1c0,0,0,0,0,0L38.1,23z"/>
		</g>
		<g>
			<path fill="#48B9A5" d="M39.4,23.2C39.4,23.2,39.4,23.2,39.4,23.2c0-0.1,0-0.1,0-0.2c0-0.1,0-0.3,0-0.5c0-0.2,0-0.4,0-0.7
				c0-0.1,0-0.3,0-0.4c0-0.1,0-0.3,0-0.4c0-0.1,0-0.3,0.1-0.4c0-0.1,0-0.1,0-0.2c0,0,0-0.1,0-0.1c0,0,0-0.1,0-0.1c0-0.1,0-0.1,0-0.2
				c0-0.1,0-0.1,0.1-0.2c0-0.1,0-0.1,0.1-0.2c0-0.1,0-0.1,0.1-0.1c0,0,0-0.1,0.1-0.1c0,0,0,0,0-0.1c0,0,0,0,0-0.1c0,0,0-0.1,0.1-0.1
				c0,0,0-0.1,0.1-0.1c0,0,0,0,0-0.1c0,0,0,0,0,0c0,0,0,0,0,0s0,0,0,0c0,0,0,0,0,0c0,0,0,0,0,0.1c0,0,0,0.1,0,0.1c0,0,0,0.1-0.1,0.1
				c0,0,0,0,0,0.1c0,0,0,0,0,0.1c0,0,0,0.1-0.1,0.1c0,0,0,0.1-0.1,0.1c0,0.1,0,0.1,0,0.2c0,0.1,0,0.1,0,0.2c0,0.1,0,0.1,0,0.2
				c0,0,0,0.1,0,0.1c0,0,0,0.1,0,0.1c0,0.1,0,0.1,0,0.2c0,0.1,0,0.3,0,0.4c0,0.1,0,0.3,0,0.4c0,0.1,0,0.3,0,0.4c0,0.3,0,0.5,0,0.7
				c0,0.2,0,0.4,0,0.5c0,0.1,0,0.1,0,0.1c0,0,0,0,0,0L39.4,23.2z"/>
		</g>
	</g>
	<g>
		<path fill="#FFD15C" d="M29.7,27.4c0,0,1.5,1.5,2.7,1.5c1.2,0.1,1.6-0.1,1.9,0c0.3,0.1,0.7-0.5,0.7-0.5l0.3-1.7
			c0,0-0.6-0.2-1.4-0.9c-0.8-0.7-2.3-2-2.3-2l-2.7,1.5L29.7,27.4z"/>
	</g>
	<g>
		<path fill="#F3F3F3" d="M34.9,26.5l0.8,0.2c0,0,0.1-0.1,0.5-0.2c0.4-0.1,3.5-0.6,3.5-0.6s0.7-0.4,1.2-0.2c0.4,0.2,0.4,0.9-0.4,1.2
			c-0.8,0.3-2.7,1.4-3.5,1.4c-0.8,0-2-0.2-2-0.2L34.4,28C34.4,28,34.7,26.7,34.9,26.5z"/>
	</g>
	<g>
		<path fill="#E8EAE8" d="M40.9,25.7c-0.4-0.2-1.2,0.2-1.2,0.2s-0.4,0.1-1,0.2v1.7c0.7-0.3,1.4-0.7,1.8-0.8
			C41.3,26.6,41.3,25.9,40.9,25.7z"/>
	</g>
	<g>
		<g>
			<path fill="#344A5E" d="M40.1,27.3c-0.1,0.3-4.1,0.3-4.2,0l-0.3-3.4h4.8L40.1,27.3z"/>
		</g>
		<g>
			<path fill="#425A6B" d="M40.6,23.9c0,0.3-5.2,0.3-5.2,0v-1.2h5.2V23.9z"/>
		</g>
	</g>
	<g>
		<path fill="#FFD15C" d="M20.2,5.1c0,0,0.4-2.6,1.1-3.6c0.8-0.9,2.5-1,2.6-1c0.1,0,2.7,0.7,3.1,1.4c0.4,0.7,0.5,0.9,0.5,1.7
			c0,0.7-0.2,3.4-0.4,4c-0.2,0.6-1,2.1-1,2.3c-0.1,0.2-0.1,1.6-0.1,1.6l-1.6,3.9l-4.4-4.6c0,0,0.5-1.8,0.5-2.4c0-0.6-0.1-1-0.1-1
			S20.1,5.6,20.2,5.1z"/>
	</g>
	<g>
		<path fill="#E8EAE8" d="M26.1,11.1c0,0,1.2,0.6,2,0.9c0.8,0.3,2.5,0.9,2.9,1.8c0.3,0.8,1.7,6,1.8,6.5c0.1,0.6,1,4,1,4l-4.2,1.3
			L15.7,27c0,0-0.4-1.2-0.8-2.4c-0.4-1.3-0.8-3.2-0.8-3.2s-1.3,1.1-1.9,1.2l-0.6,1.3c0,0,0.3,0.1-1.2-0.4c-1.5-0.6-3.2-1.6-3.2-1.6
			s2.8-3.7,3.3-4.4c0.4-0.7,2.6-4.7,4.4-5.5c1.8-0.9,5.1-1.6,5.1-1.6l0.5,2.3l3.4,1.3l0.4,0.1C24.2,14,26,12.4,26.1,11.1z"/>
	</g>
	<g>
		<path fill="#67C5B8" d="M19.5,12.2l-0.4,5.1h-0.4c0,0-1.3,2.7-1.9,4.8c-0.6,2-1.4,4.6-1.4,4.6s-0.1,1.8-0.3,5.1
			c-0.2,3.3-1,16.2-1,16.2h16.6c0,0-0.1-6.5-0.2-8c-0.1-1.5-0.3-11.3-0.4-12.4c-0.1-1.2-0.4-5.6-0.8-6.7c-0.4-1.2-1.2-3.3-1.2-3.3
			l-0.4,0c0,0-0.6-2.5-0.8-3.6l-0.7,0l0.9,3.6c-2.4,0.3-5,0.3-7.6-0.1l0.5-4.5L19.5,12.2z"/>
	</g>
	<g>
		
			<ellipse transform="matrix(-0.9703 -0.2417 0.2417 -0.9703 51.6663 19.9899)" fill="#FFD15C" cx="27.1" cy="6.8" rx="0.5" ry="1.6"/>
	</g>
	<path fill="#F5B54C" d="M23.2,10.5c-1.6-0.4-2.8-2.1-2.8-2.1c0,0.5-0.3,1.6-0.5,2.2c1,0.4,2.3,0.9,3.2,0.9c1.7,0,2.8-1.5,2.8-1.5
		S24.9,10.9,23.2,10.5z"/>
	<g>
		<path fill="#425A6B" d="M20.9,4c0.6-0.4,0.8,0,0.8-0.7c0-0.7-0.2-2.3,0.9-2.2c1.1,0.1,3.3,0.7,3.8,0.7c0.5,0,0.8,1,0.8,1.5
			s0,2.5,0,2.5s0.5-0.2,0.5-2.1c0-1.9-0.9-2.9-2-3.4c-1.1-0.5-3.8-0.5-4.7,0.5s-1.4,3.3-0.9,4.7l0.5,0C20.6,5.6,20.7,4.2,20.9,4z"/>
	</g>
	<g>
		<ellipse transform="matrix(0.9866 -0.1632 0.1632 0.9866 -0.7075 3.3545)" fill="#FFD15C" cx="20.1" cy="6" rx="0.5" ry="1.6"/>
	</g>
	<g>
		<g>
			<path fill="#F3F3F3" d="M26,10.4c0,0,0,1-0.5,1.7C25,12.7,24.2,14,24.2,14l3,0.4c0,0,0.1-1.7-0.3-2.5
				C26.4,11.1,26.1,10.9,26,10.4z"/>
		</g>
		<g>
			<path fill="#F3F3F3" d="M20.3,9.2c0,0-0.2,1.1,0.7,2s2.8,2.6,2.8,2.6s-1.9,0.6-3.2,0.4c0,0-1.5-2-1.6-2.5
				c-0.1-0.6,0.3-1.3,0.8-1.5C19.9,10.2,19.9,9.5,20.3,9.2z"/>
		</g>
	</g>
	<g>
		<path fill="#F3F3F3" d="M34.9,26.5c0,0-3.1,1.1-0.8,2.6c0,0,0.6,0,0.8,0c0,0,0.8,0.1,1.3,0.1c0.4,0,1.6,0.7,2.4,0.3
			c0.8-0.5,1-0.5,1.1-0.7c0,0,0.8-0.4,1-0.7c0.2-0.3,0-1.6-0.3-1.9c-0.3-0.3-0.7-0.2-0.7,0.2c0,0-0.2-0.5-0.6-0.6
			c-0.5,0-0.4,0.6-0.4,0.6s0-0.7-0.4-0.7c-0.3,0-0.5,0.4-0.6,0.6c-0.1,0.2-0.2,1.4-0.2,1.5c0,0.2-0.2,0.2-0.2-0.6
			c0-0.6,0.2-1.4-0.2-1.5c-0.4-0.1-0.5,0.3-0.7,0.6c-0.1,0.3-0.3,1-0.3,1s-0.3,0.3-0.6,0.4c-0.2,0.1-1,0-1,0L34.9,26.5z"/>
	</g>
	<g>
		<g>
			<path fill="#CED6E0" d="M38.5,26.4c0,0,0,0.1,0,0.4c0,0.1,0,0.2,0,0.4c0,0.1,0,0.1,0,0.2c0,0.1,0,0.1,0,0.2c0,0.1,0,0.1,0,0.2
				c0,0.1,0,0.1,0,0.2c0,0,0,0.1,0,0.1c0,0,0,0.1,0,0.1c0,0.1,0,0.1,0,0.2c0,0.1-0.1,0.2-0.1,0.3c0,0.1,0,0.1,0,0.1s0,0,0-0.1
				c0-0.1,0-0.2,0-0.3c0-0.1,0-0.1,0-0.2c0,0,0-0.1,0-0.1c0,0,0-0.1,0-0.1c0-0.1,0-0.1,0-0.2c0-0.1,0-0.1,0-0.2c0-0.1,0-0.1,0-0.2
				c0-0.1,0-0.1,0-0.2c0-0.1,0-0.3,0-0.4C38.5,26.5,38.5,26.4,38.5,26.4z"/>
		</g>
		<g>
			<path fill="#CED6E0" d="M39.5,26.4c0,0,0,0.1,0.1,0.4c0,0.1,0,0.2,0.1,0.4c0,0.1,0,0.1,0,0.2c0,0.1,0,0.1,0,0.2c0,0,0,0.1,0,0.1
				c0,0,0,0.1,0,0.1c0,0.1,0,0.1,0,0.2c0,0.1,0,0.1,0,0.2c0,0.1,0,0.1-0.1,0.2c0,0.1,0,0.1-0.1,0.1c0,0,0,0,0,0.1c0,0,0,0,0,0
				c0,0,0,0,0,0.1c0,0,0,0,0,0s0,0,0,0c0,0,0,0,0-0.1c0,0,0,0,0,0c0,0,0,0,0-0.1c0,0,0-0.1,0-0.1c0-0.1,0-0.1,0-0.2
				c0-0.1,0-0.1,0-0.2c0-0.1,0-0.1,0-0.2c0,0,0-0.1,0-0.1c0,0,0-0.1,0-0.1c0-0.1,0-0.3,0-0.4c0-0.1,0-0.3,0-0.4
				C39.5,26.6,39.5,26.4,39.5,26.4z"/>
		</g>
	</g>
	<g>
		<path fill="#E8EAE8" d="M12.4,29.9c0,0-0.4-3.2,1.8-3c0,0,0.6,0.6,0.9,0.8c0.3,0.2,0.7,0.4,1.3,0.2c0.6-0.2,1.2-0.3,1.9-0.3
			c0.7,0,2.5,0.4,2.8,0.5c0.3,0.2-0.1,0.9-1.1,0.8c-1-0.1-1.2,0-1.2,0s1.3,0.9,1.8,1.1c0.4,0.2,0.6,0.5,0.5,0.8
			C21,31,20.5,31,20.2,30.9c0,0-0.3,0.7-1,0.6c0,0-0.2,0.5-0.8,0.5c0,0-0.4,0.7-1.4,0.5c-1-0.1-2-1-2.2-1.3
			C14.6,31,12.4,29.9,12.4,29.9z"/>
	</g>
	<g>
		<path fill="#425A6B" d="M20.2,27.5c-0.1-0.1-0.1-0.3,0-0.4c0.6-0.4,2.1-1.5,2.9-1.8c1-0.5,2.3-0.6,2.8-0.4
			c0.5,0.1,0.1,0.9-0.2,1.3c-0.3,0.4-2.9,2.7-2.9,2.7l-0.8-0.1c0,0-0.4-0.4-0.8-0.1C21,28.8,20.9,29,20.9,29l-0.2-0.4
			c0,0,0.5-0.3,0.4-0.4C20.9,28,20.5,27.7,20.2,27.5z"/>
	</g>
	<g>
		<path fill="#344A5E" d="M23.2,27.3c0.5-0.8-1.6,0.3-2.4,0.7c0.1,0.1,0.1,0.1,0.1,0.2c0.1,0.2-0.4,0.4-0.4,0.4l0.2,0.4
			c0,0,0.1-0.2,0.5-0.5c0.3-0.2,0.6,0,0.7,0.1C22.4,28.3,22.9,27.9,23.2,27.3z"/>
	</g>
	<g>
		<path fill="#F26F5A" d="M20.8,28.3l0.4,0.4c0.1,0.1,0.1,0.2,0,0.3c-0.4,0.6-1.3,1.3-2.2,2c-0.1,0.1-0.2,0.1-0.3,0l-0.5-0.6
			c-0.1-0.1-0.1-0.2,0-0.3c0.8-0.8,1.5-1.4,2.3-1.8C20.7,28.2,20.8,28.2,20.8,28.3z"/>
	</g>
	<g>
		<g>
			<path fill="#E8EAE8" d="M20.6,29.9c-0.4-0.2-1.8-1.1-1.8-1.1s0.1,0,0.8,0v-1.1c-0.5-0.1-1-0.1-1.3-0.1c-0.7,0-1.3,0.1-1.9,0.3
				c-0.6,0.2-1,0-1.3-0.2c-0.3-0.2-0.9-0.8-0.9-0.8c-2.2-0.1-1.8,3-1.8,3s2.2,1.2,2.5,1.4c0.3,0.2,1.2,1.1,2.2,1.3
				c1,0.1,1.4-0.5,1.4-0.5c0.6,0,0.8-0.5,0.8-0.5c0.7,0.1,1-0.6,1-0.6c0.3,0.1,0.8,0.1,0.9-0.2C21.2,30.4,21,30.1,20.6,29.9z"/>
		</g>
		<g>
			<g>
				<g>
					<path fill="#CED6E0" d="M20.2,30.9c0,0,0,0.1-0.1,0.1c0,0-1-0.3-1.5-0.6c-0.5-0.3-0.8-1-0.6-0.7c0.2,0.3,0.6,0.5,1.3,0.9
						C19.9,30.8,20.1,30.9,20.2,30.9z"/>
				</g>
				<g>
					<path fill="#CED6E0" d="M19.2,31.5C19.2,31.5,19.2,31.6,19.2,31.5c0,0.1-0.3,0.1-0.7-0.1c-0.4-0.1-0.8-0.6-0.8-0.7
						c0,0,0.4,0.4,0.6,0.5C18.4,31.3,19.2,31.5,19.2,31.5z"/>
				</g>
				<g>
					<path fill="#CED6E0" d="M18.4,32C18.4,32,18.4,32,18.4,32c-0.3,0-0.5-0.1-0.7-0.1c-0.4-0.2-0.6-0.5-0.3-0.2S18.4,32,18.4,32z"
						/>
				</g>
			</g>
		</g>
	</g>
</g>
</svg>
