<?xml version="1.0" encoding="utf-8"?>
<!-- Generator: Adobe Illustrator 18.0.0, SVG Export Plug-In . SVG Version: 6.00 Build 0)  -->
<!DOCTYPE svg PUBLIC "-//W3C//DTD SVG 1.1//EN" "http://www.w3.org/Graphics/SVG/1.1/DTD/svg11.dtd">
<svg version="1.1" id="Layer_1" xmlns="http://www.w3.org/2000/svg" xmlns:xlink="http://www.w3.org/1999/xlink" x="0px" y="0px"
	 viewBox="0 0 48 48" enable-background="new 0 0 48 48" xml:space="preserve">
<g>
	<g>
		<g>
			<g>
				<path fill="#8AD7F8" d="M25,37.6v-4.2l-3.5-0.7c-0.2-0.5-0.4-1.1-0.6-1.6l1.9-3l-3-3l-3,2c-0.5-0.3-1-0.5-1.6-0.7L14.6,23h-4.2
					l-0.7,3.5c-0.5,0.2-1.1,0.4-1.6,0.7l-3-2l-3,3l2,3c-0.3,0.5-0.5,1-0.7,1.6L0,33.4v4.2l3.5,0.7c0.2,0.5,0.4,1.1,0.7,1.6l-2,3l3,3
					l3-1.9c0.5,0.3,1,0.5,1.6,0.6l0.7,3.5h4.2l0.7-3.5c0.5-0.2,1.1-0.4,1.6-0.6l3,1.9l3-3l-1.9-3c0.3-0.5,0.5-1,0.6-1.6L25,37.6z
					 M12.5,38.7c-1.8,0-3.2-1.4-3.2-3.2c0-1.8,1.4-3.2,3.2-3.2c1.8,0,3.2,1.4,3.2,3.2C15.7,37.3,14.3,38.7,12.5,38.7z"/>
			</g>
			<g>
				<path fill="#55C0EB" d="M12.5,29.7c-3.2,0-5.8,2.6-5.8,5.8c0,3.2,2.6,5.8,5.8,5.8c3.2,0,5.8-2.6,5.8-5.8
					C18.3,32.3,15.7,29.7,12.5,29.7z M12.5,38.7c-1.8,0-3.2-1.4-3.2-3.2c0-1.8,1.4-3.2,3.2-3.2c1.8,0,3.2,1.4,3.2,3.2
					C15.7,37.3,14.3,38.7,12.5,38.7z"/>
			</g>
		</g>
		<g>
			<g>
				<g>
					<g>
						<g>
							<path fill="#F3705A" d="M28.2,0.6C26.4,0.6,25,2,25,3.8c0,0.1,0,0.3,0,0.4C24,4.2,23,4.8,22.3,5.7c-0.2,0.4-0.4,0.8-0.5,1.2
								c-0.7,0-1.4,0.4-1.7,1c-0.3,0.6-0.3,1.3-0.1,1.8c-1.3,0.9-2.2,2.4-2.2,4.1c0,2.5,1.8,4.5,4.2,4.9c-0.4,0.9-0.4,2,0.1,3
								c0.8,1.7,2.9,2.5,4.7,1.7c-0.1,0.3-0.2,0.6-0.2,1c0,1.3,1.1,2.4,2.4,2.4c1.3,0,2.4-1.1,2.4-2.4V3.8C31.3,2,29.9,0.6,28.2,0.6
								z"/>
						</g>
					</g>
				</g>
				<g>
					<g>
						<g>
							<path fill="#F3705A" d="M28.2,0.6C26.4,0.6,25,2,25,3.8c0,0.1,0,0.3,0,0.4C24,4.2,23,4.8,22.3,5.7c-0.2,0.4-0.4,0.8-0.5,1.2
								c-0.7,0-1.4,0.4-1.7,1c-0.3,0.6-0.3,1.3-0.1,1.8c-1.3,0.9-2.2,2.4-2.2,4.1c0,2.5,1.8,4.5,4.2,4.9c-0.4,0.9-0.4,2,0.1,3
								c0.8,1.7,2.9,2.5,4.7,1.7c-0.1,0.3-0.2,0.6-0.2,1c0,1.3,1.1,2.4,2.4,2.4c1.3,0,2.4-1.1,2.4-2.4V3.8C31.3,2,29.9,0.6,28.2,0.6
								z"/>
							<path fill="#F05540" d="M28.9,27.5c-1.7,0-3-1.4-3-3c0,0,0-0.1,0-0.1c-1.8,0.3-3.6-0.7-4.4-2.4c-0.4-0.9-0.5-1.9-0.3-2.8
								c-2.3-0.7-4-2.9-4-5.4c0-1.7,0.8-3.3,2.1-4.3c-0.1-0.7,0-1.3,0.3-1.9c0.4-0.7,1-1.1,1.8-1.3c0.1-0.4,0.3-0.7,0.5-0.9
								c0.6-0.9,1.5-1.5,2.6-1.7c0.1-2,1.7-3.6,3.8-3.6c2.1,0,3.8,1.7,3.8,3.8v20.7C31.9,26.2,30.6,27.5,28.9,27.5z M26.7,22.9
								c0.2,0,0.3,0.1,0.4,0.2c0.2,0.2,0.2,0.5,0.1,0.7c-0.1,0.2-0.2,0.5-0.2,0.7c0,1,0.8,1.8,1.8,1.8c1,0,1.8-0.8,1.8-1.8V3.8
								c0-1.4-1.1-2.5-2.5-2.5c-1.4,0-2.5,1.1-2.5,2.5c0,0.1,0,0.2,0,0.3l0,0.1c0,0.2,0,0.3-0.1,0.5c-0.1,0.1-0.3,0.2-0.4,0.2
								c-0.9,0.1-1.7,0.5-2.3,1.3c-0.2,0.3-0.3,0.6-0.4,1c-0.1,0.3-0.3,0.5-0.6,0.5c-0.5,0-1,0.3-1.2,0.7c-0.2,0.4-0.3,0.9-0.1,1.3
								c0.1,0.3,0,0.6-0.2,0.8c-1.2,0.8-1.9,2.2-1.9,3.6c0,2.1,1.5,4,3.6,4.3c0.2,0,0.4,0.1,0.4,0.3c0.1,0.2,0.1,0.4,0,0.5
								c-0.4,0.8-0.3,1.7,0,2.5c0.7,1.4,2.4,2.1,3.9,1.4C26.6,22.9,26.6,22.9,26.7,22.9z"/>
						</g>
					</g>
				</g>
				<g>
					<g>
						<path fill="#F05540" d="M27.8,5.5c0.4,0,0.6-0.3,0.7-0.6c0-0.4-0.3-0.7-0.6-0.7c-1.1-0.1-2.1-0.7-2.7-1.2
							C25,3.4,25,3.8,25,4.1c0,0.1,0,0.3,0,0.4C25.7,5,26.7,5.5,27.8,5.5C27.8,5.5,27.8,5.5,27.8,5.5z"/>
					</g>
				</g>
				<g>
					<g>
						<g>
							<path fill="#F05540" d="M24.6,10.2c0,0,0.1,0,0.1,0c0.3,0,0.6-0.2,0.7-0.5c0.1-0.4-0.2-0.7-0.5-0.8c-1.7-0.3-2.3-1.4-2.5-2
								c0,0,0,0,0,0c-0.5,0-0.9,0.2-1.2,0.5C21.5,8.4,22.5,9.8,24.6,10.2z"/>
						</g>
					</g>
					<g>
						<g>
							<g>
								<path fill="#F05540" d="M22.2,8.9V8.2c-0.6,0.5-1.4,1.8-0.6,3.6c0.1,0.3,0.5,0.5,0.9,0.4c0.3-0.2,0.5-0.5,0.4-0.9
									c-0.6-1.4,0.2-2,0.3-2.1c0.1-0.1,0.2-0.2,0.2-0.3H22.2z"/>
							</g>
						</g>
					</g>
				</g>
				<g>
					<g>
						<g>
							<path fill="#F05540" d="M23.5,17.9c0.4-0.9,0.3-1.8-0.2-2.9c-0.2-0.3-0.6-0.5-0.9-0.3c-0.3,0.2-0.5,0.6-0.3,0.9
								c0.3,0.7,0.4,1.3,0.2,1.8c-0.4,0.9-1.6,1.4-1.6,1.4c-0.1,0-0.1,0.1-0.1,0.1c0.6,0.3,1.2,0.4,1.9,0.4c0,0,0,0,0,0
								C22.8,19,23.3,18.5,23.5,17.9z"/>
						</g>
					</g>
					<g>
						<g>
							<path fill="#F05540" d="M26.5,17.3c-0.4-1-1-1.4-1.5-1.5c-0.8-0.3-1.5-0.1-1.9,0.1c0,0.4-0.2,0.8-0.5,1.2c0,0,0,0,0,0
								c0.2,0.2,0.5,0.2,0.8,0.1c0,0,0.7-0.4,1.2-0.2c0.3,0.1,0.5,0.4,0.7,0.8c0.1,0.3,0.4,0.4,0.6,0.4c0.1,0,0.2,0,0.2,0
								C26.5,18.1,26.6,17.7,26.5,17.3z"/>
						</g>
					</g>
				</g>
				<g>
					<g>
						<g>
							<path fill="#F05540" d="M28.3,22.8c0.3-0.1,0.6-0.1,0.9,0c0.3,0.1,0.7,0,0.9-0.4c0.1-0.3,0-0.7-0.4-0.9
								c-0.6-0.2-1.3-0.2-1.9,0.1c-1.1,0.5-1.8,1.6-2.2,2.5c0.6,0,1.2,0,1.7-0.3C27.5,23.4,27.9,23,28.3,22.8z"/>
						</g>
					</g>
					<g>
						<g>
							<g>
								<path fill="#F05540" d="M27,22.4C27,22.4,27,22.4,27,22.4c0.4-0.2,0.8-0.3,1.3-0.4c-0.4-1.6-1.9-2.2-2.7-2.2
									c-0.4,0-0.7,0.2-0.7,0.6c0,0.4,0.2,0.7,0.6,0.7C25.4,21,26.7,21.2,27,22.4z"/>
							</g>
						</g>
					</g>
				</g>
				<g>
					<g>
						<path fill="#F05540" d="M29.5,13.6c-0.9,0.5-2.1,2-1.2,4.5c0.1,0.3,0.5,0.4,0.7,0.4c0.3-0.1,0.6-0.5,0.5-0.9
							c-0.8-2.1,0.5-2.8,0.6-2.9c0.2-0.1,0.3-0.2,0.3-0.4C30.1,14.1,29.7,13.9,29.5,13.6z"/>
					</g>
				</g>
				<g>
					<g>
						<path fill="#F05540" d="M26.9,7.8c-0.2,0.3,0,0.7,0.3,0.9c0.1,0,0.2,0.1,0.3,0.1c0.2,0,0.5-0.1,0.6-0.4
							c0.7-1.5,2.3-1.6,3.2-1.5V5.6C29.8,5.4,27.8,5.8,26.9,7.8z"/>
					</g>
					<g>
						<path fill="#F05540" d="M30.1,13.5c-0.4-0.4-0.6-0.8-0.6-1.5c0-0.4-0.3-0.7-0.7-0.7c-0.4,0-0.7,0.3-0.7,0.7c0,1,0.3,1.9,1,2.5
							c0.6,0.6,1.4,0.8,2.1,0.9v-1.4C30.9,14,30.5,13.8,30.1,13.5z"/>
					</g>
				</g>
			</g>
			<g>
				<g>
					<g>
						<g>
							<path fill="#F3705A" d="M37.1,0.6c1.7,0,3.1,1.4,3.1,3.1c0,0.1,0,0.3,0,0.4c1.1,0.1,2.1,0.6,2.7,1.6c0.2,0.4,0.4,0.8,0.5,1.2
								c0.7,0,1.4,0.4,1.7,1c0.3,0.6,0.3,1.3,0.1,1.8c1.3,0.9,2.2,2.4,2.2,4.1c0,2.5-1.8,4.5-4.2,4.9c0.4,0.9,0.4,2-0.1,3
								c-0.8,1.7-2.9,2.5-4.7,1.7c0.1,0.3,0.2,0.6,0.2,1c0,1.3-1.1,2.4-2.4,2.4s-2.4-1.1-2.4-2.4V3.8C33.9,2,35.3,0.6,37.1,0.6z"/>
						</g>
					</g>
				</g>
				<g>
					<g>
						<g>
							<path fill="#F3705A" d="M37.1,0.6c1.7,0,3.1,1.4,3.1,3.1c0,0.1,0,0.3,0,0.4c1.1,0.1,2.1,0.6,2.7,1.6c0.2,0.4,0.4,0.8,0.5,1.2
								c0.7,0,1.4,0.4,1.7,1c0.3,0.6,0.3,1.3,0.1,1.8c1.3,0.9,2.2,2.4,2.2,4.1c0,2.5-1.8,4.5-4.2,4.9c0.4,0.9,0.4,2-0.1,3
								c-0.8,1.7-2.9,2.5-4.7,1.7c0.1,0.3,0.2,0.6,0.2,1c0,1.3-1.1,2.4-2.4,2.4s-2.4-1.1-2.4-2.4V3.8C33.9,2,35.3,0.6,37.1,0.6z"/>
							<path fill="#F05540" d="M33.3,24.5V3.8C33.3,1.7,35,0,37.1,0c2,0,3.7,1.6,3.8,3.6c1.1,0.2,2,0.8,2.6,1.7
								c0.2,0.3,0.3,0.6,0.5,0.9c0.7,0.2,1.4,0.6,1.8,1.3c0.3,0.6,0.4,1.3,0.3,1.9c1.3,1.1,2.1,2.6,2.1,4.3c0,2.5-1.6,4.7-4,5.4
								c0.2,0.9,0.1,1.9-0.3,2.8c-0.8,1.7-2.6,2.6-4.4,2.4c0,0,0,0.1,0,0.1c0,1.7-1.3,3-3,3C34.7,27.5,33.3,26.2,33.3,24.5z
								 M38.7,22.9c1.5,0.6,3.2,0,3.9-1.4c0.4-0.8,0.4-1.7,0-2.5c-0.1-0.2-0.1-0.4,0-0.5c0.1-0.2,0.3-0.3,0.4-0.3
								c2.1-0.3,3.6-2.2,3.6-4.3c0-1.4-0.7-2.8-1.9-3.6c-0.2-0.2-0.3-0.5-0.2-0.8c0.2-0.4,0.2-0.9-0.1-1.3c-0.2-0.4-0.7-0.7-1.2-0.7
								c-0.3,0-0.5-0.2-0.6-0.5c-0.1-0.4-0.2-0.7-0.4-1c-0.5-0.8-1.3-1.2-2.3-1.3c-0.2,0-0.3-0.1-0.4-0.2c-0.1-0.1-0.2-0.3-0.1-0.5
								l0-0.1c0-0.1,0-0.2,0-0.3c0-1.4-1.1-2.5-2.5-2.5c-1.4,0-2.5,1.1-2.5,2.5v20.7c0,1,0.8,1.8,1.8,1.8c1,0,1.8-0.8,1.8-1.8
								c0-0.2-0.1-0.5-0.2-0.7c-0.1-0.2-0.1-0.5,0.1-0.7c0.1-0.1,0.3-0.2,0.4-0.2C38.6,22.9,38.7,22.9,38.7,22.9z"/>
						</g>
					</g>
				</g>
				<g>
					<g>
						<path fill="#F05540" d="M37.6,5.5c-0.3,0-0.6-0.3-0.6-0.7c0-0.4,0.3-0.6,0.7-0.6c1.1,0.1,2.2-0.4,2.8-0.9
							c0.1,0.4,0.1,0.7,0.1,1.1c0,0.1-0.1,0.3-0.1,0.4C39.8,5.2,38.8,5.6,37.6,5.5C37.7,5.5,37.6,5.5,37.6,5.5z"/>
					</g>
				</g>
				<g>
					<g>
						<g>
							<path fill="#F05540" d="M40.7,9.7c0,0-0.1,0-0.1,0c-0.3,0-0.6-0.2-0.7-0.5c-0.1-0.4,0.2-0.7,0.5-0.8c1.7-0.3,2.3-1.4,2.5-2
								c0,0,0,0,0,0c0.5,0,0.9,0.2,1.2,0.5C43.8,8,42.8,9.3,40.7,9.7z"/>
						</g>
					</g>
					<g>
						<g>
							<g>
								<path fill="#F05540" d="M43,8.6V7.9c0.6,0.5,1.4,1.8,0.6,3.6c-0.1,0.3-0.5,0.5-0.9,0.4c-0.3-0.2-0.5-0.5-0.4-0.9
									c0.6-1.4-0.2-2-0.3-2.1c-0.1-0.1-0.2-0.2-0.2-0.3H43z"/>
							</g>
						</g>
					</g>
				</g>
				<g>
					<g>
						<g>
							<path fill="#F05540" d="M41.7,17.9c-0.5-0.8-0.5-1.8-0.2-2.9c0.1-0.3,0.5-0.5,0.8-0.4c0.3,0.1,0.5,0.5,0.4,0.8
								c-0.2,0.7-0.2,1.3,0,1.8c0.5,0.9,1.8,1.1,1.8,1.1c0.1,0,0.1,0,0.1,0.1c-0.5,0.3-1.2,0.6-1.8,0.7c0,0,0,0,0,0
								C42.5,18.8,42,18.5,41.7,17.9z"/>
						</g>
					</g>
					<g>
						<g>
							<path fill="#F05540" d="M38.7,17.3c0.4-1,1-1.4,1.5-1.5c0.8-0.3,1.5-0.1,1.9,0.1c0,0.4,0.2,0.8,0.5,1.2c0,0,0,0,0,0
								c-0.2,0.2-0.5,0.2-0.8,0.1c0,0-0.7-0.4-1.2-0.2c-0.3,0.1-0.5,0.4-0.7,0.8c-0.1,0.3-0.4,0.4-0.6,0.4c-0.1,0-0.2,0-0.2,0
								C38.8,18.1,38.6,17.7,38.7,17.3z"/>
						</g>
					</g>
				</g>
				<g>
					<g>
						<g>
							<path fill="#F05540" d="M38.6,24l0.8-0.1c-0.2-0.8-0.6-1.7-1.2-2.3c-0.5-0.5-1.1-0.7-1.8-0.7c-0.4,0-0.6,0.3-0.6,0.7
								c0,0.4,0.3,0.6,0.7,0.6c0.3,0,0.6,0.1,0.9,0.3c0.3,0.3,0.5,0.8,0.7,1.3c0.2,0.2,0.4,0.3,0.6,0.4L38.6,24z"/>
						</g>
					</g>
					<g>
						<g>
							<g>
								<path fill="#F05540" d="M38.2,22.2C38.2,22.2,38.2,22.2,38.2,22.2c-0.3-0.3-0.7-0.5-1.1-0.8c0.8-1.4,2.4-1.6,3.2-1.5
									c0.4,0.1,0.6,0.4,0.6,0.8c-0.1,0.4-0.4,0.6-0.8,0.6C40,21.3,38.7,21.1,38.2,22.2z"/>
							</g>
						</g>
					</g>
				</g>
				<g>
					<g>
						<path fill="#F05540" d="M35.8,13.6c0.9,0.5,2.1,2,1.2,4.5c-0.1,0.3-0.5,0.4-0.7,0.4c-0.3-0.1-0.6-0.5-0.5-0.9
							c0.8-2.1-0.5-2.8-0.6-2.9c-0.2-0.1-0.3-0.2-0.3-0.4C35.1,14.1,35.5,13.9,35.8,13.6z"/>
					</g>
				</g>
				<g>
					<g>
						<path fill="#F05540" d="M38.4,7.8c0.2,0.3,0,0.7-0.3,0.9c-0.1,0-0.2,0.1-0.3,0.1c-0.2,0-0.5-0.1-0.6-0.4
							c-0.7-1.5-2.3-1.6-3.2-1.5V5.6C35.4,5.4,37.4,5.8,38.4,7.8z"/>
					</g>
					<g>
						<path fill="#F05540" d="M35.1,13.5c0.4-0.4,0.6-0.8,0.6-1.5c0-0.4,0.3-0.7,0.7-0.7c0.4,0,0.7,0.3,0.7,0.7c0,1-0.3,1.9-1,2.5
							c-0.6,0.6-1.4,0.8-2.1,0.9v-1.4C34.3,14,34.8,13.8,35.1,13.5z"/>
					</g>
				</g>
			</g>
		</g>
		<g>
			<g>
				<path fill="#415A6B" d="M16.5,5.7L13,12.9l-0.8-2.3c-4.7,1.6-7.6,6.1-7.4,10.8c-0.6-0.9-1.1-1.8-1.5-2.9c-2-5.8,1.1-12,6.9-14
					L9.4,2.3L16.5,5.7z"/>
			</g>
		</g>
		<g>
			<g>
				<path fill="#415A6B" d="M31.5,42.3l3.5-7.1l0.8,2.3c4.7-1.6,7.6-6.1,7.4-10.8c0.6,0.9,1.1,1.8,1.5,2.9c2,5.8-1.1,12-6.9,14
					l0.8,2.3L31.5,42.3z"/>
			</g>
		</g>
	</g>
</g>
</svg>
