<?xml version="1.0" encoding="utf-8"?>
<!-- Generator: Adobe Illustrator 19.0.1, SVG Export Plug-In . SVG Version: 6.00 Build 0)  -->
<svg version="1.1" id="Layer_1" xmlns="http://www.w3.org/2000/svg" xmlns:xlink="http://www.w3.org/1999/xlink" x="0px" y="0px"
	 viewBox="0 0 48 48" style="enable-background:new 0 0 48 48;" xml:space="preserve">
<style type="text/css">
	.st0{fill:#FFD15C;}
	.st1{fill:#415A6B;}
	.st2{fill:#F7B64C;}
	.st3{fill:#CED6E0;}
	.st4{fill:#344A5E;}
	.st5{fill:#F3F3F3;}
	.st6{fill:#F05540;}
	.st7{fill:#F3705A;}
	.st8{fill:#66C6B9;}
	.st9{fill:#55C0EB;}
	.st10{fill:#F5F6FB;}
	.st11{fill:#4ABAA5;}
	.st12{fill:#ADB3BA;}
	.st13{fill:#E8EAE9;}
	.st14{fill:#2E4556;}
	.st15{fill:#8AD7F8;}
	.st16{fill:#FFFFFF;}
	.st17{fill:#E54838;}
	.st18{fill:#3EAF99;}
	.st19{fill:#EFA943;}
	.st20{fill:#4CAEE5;}
	.st21{fill:#293F4F;}
	.st22{fill:#2D4456;}
	.st23{fill:#2E4454;}
	.st24{fill:#2A3F4F;}
	.st25{fill:#2D4151;}
	.st26{fill:#E89E3D;}
	.st27{fill:#2B4151;}
	.st28{fill:#2A4051;}
	.st29{fill:#2C4151;}
	.st30{fill:#EBEAE8;}
	.st31{fill:#3AA590;}
	.st32{fill:#E84534;}
	.st33{fill:none;}
</style>
<g>
	<g>
		<g>
			<g>
				<path class="st1" d="M37.3,42.7h-5c-0.6,0-1-0.4-1-1V6.4c0-0.6,0.4-1,1-1h5v2h-4v33.3h4V42.7z"/>
			</g>
		</g>
		<g>
			<g>
				<rect x="29.7" y="23" class="st1" width="7.1" height="2"/>
			</g>
		</g>
	</g>
	<g>
		<g>
			<g>
				<polygon class="st0" points="7.4,42.6 5.6,43.1 4.3,40.9 6.1,40.3 				"/>
			</g>
		</g>
		<g>
			<g>
				<polygon class="st0" points="26.4,41.9 24.9,43.8 23.8,40.9 25.9,39.7 				"/>
			</g>
		</g>
		<g>
			<g>
				<g>
					<path class="st13" d="M24.7,17.6l0.8-1c0,0,1.7,1.8,2.3,3.8c0.6,2,0.9,4.2,1.4,5.4s1.9,4,1.4,5.7c-0.4,1.7-2.6,7.3-2.8,7.9
						c-0.3,0.7-0.3,0.7-0.3,0.7l-1.5,2.5c0,0-0.7-1.4-2.7-2l0.9-2.3c0,0,0.5-0.9,0.6-1.8c0.1-0.9,0-1.4,0.2-2.4
						c0.2-0.9,0.4-2.2,0.5-2.6c0.1-0.5,0.5-1.1,0.2-1.7c-0.3-0.6-2.5-5.2-2.5-5.2L24.7,17.6z"/>
				</g>
			</g>
			<g>
				<g>
					<path class="st13" d="M6.1,17.7l-0.8-1c0,0-1.7,1.8-2.3,3.8S2.1,24.8,1.5,26s-1.9,4-1.4,5.7c0.4,1.7,2.6,7.3,2.8,7.9
						s0.3,0.7,0.3,0.7l1.5,2.5c0,0,0.7-1.4,2.7-2l-0.9-2.3c0,0-0.5-0.9-0.6-1.8c-0.1-0.9,0-1.4-0.2-2.4c-0.2-0.9-0.4-2.2-0.5-2.6
						C5,31.2,4.6,30.6,4.9,30s2.5-5.2,2.5-5.2L6.1,17.7z"/>
				</g>
			</g>
			<g>
				<g>
					<path class="st0" d="M18.5,8.7c0,0-0.1,2.1-0.4,2.8v2.3l-2.3,2.9l-3.5-1.9v-2.8c0,0-0.6-1.6-0.7-3.3c-0.1-1.6-0.4-3.4-0.2-4.2
						s3.6-2,4.7-2s2.4,1.4,2.5,2.1C18.7,5.1,18.8,8.3,18.5,8.7z"/>
				</g>
			</g>
			<g>
				<g>
					<g>
						
							<ellipse transform="matrix(0.9791 0.2033 -0.2033 0.9791 1.9902 -3.6545)" class="st0" cx="18.8" cy="7.9" rx="0.6" ry="1.4"/>
					</g>
				</g>
				<g>
					<g>
						
							<ellipse transform="matrix(-0.9791 0.2033 -0.2033 -0.9791 23.8155 13.2748)" class="st0" cx="11.2" cy="7.9" rx="0.6" ry="1.4"/>
					</g>
				</g>
			</g>
			<g>
				<g>
					<path class="st1" d="M11.5,8.5h0.2c0,0-0.3-1.3-0.1-1.8c0.2-0.5,0.4-1,0.4-1.5s0-1.1,0.7-1s4.1,0.2,4.9,0.1
						c0.8-0.1,0.8,1.2,0.8,1.6s0.3,1.3,0.3,1.6c0,0.4-0.1,0.9-0.1,0.9h0.1c0,0,0.7-2,0.8-3.3S18.7,1,15.7,0.2s-4.5,1.7-4.2,2.6
						c0,0-1.4,0.3-1,2.3S11.5,8.5,11.5,8.5z"/>
				</g>
			</g>
			<g>
				<path class="st2" d="M14.8,13.8c-1.4-0.1-2.5-1.9-2.5-1.9v2.8l1.6,0.9c3.9-1.5,4.2-4.1,4.2-4.1C17.7,12.4,16.2,13.9,14.8,13.8z"
					/>
			</g>
			<g>
				<g>
					<path class="st3" d="M18.6,13.3c0,0,0.7,0.7,1.9,1.3c1.2,0.6,4.4,1.6,5,2c0,0,0.2,4.3-2.2,7.9c0,0-0.5,10.4,0,12.7
						c0,0-5.3,1.5-7.1,1.5c-1.8,0-7.8-1.5-8.4-1.9c-0.7-0.4,0.8-5.6,0.9-6.5c0-0.8-1-5.6-1-5.6s-2.9-5.2-2.3-8.1
						c0,0,2.2-0.8,3.7-1.6c1.6-0.8,2.9-2.1,2.9-2.1l2.7,2.2l0.9-0.1l2.2-0.6L18.6,13.3z"/>
				</g>
			</g>
			<g>
				<g>
					<g>
						<path class="st1" d="M15,16.8c0.4-0.1,0.6-0.1,0.9,0c0.1-0.4,0.6-0.8,1.1-1.1l-1.7-0.3l-0.4,0l-0.9,0.3
							C14.6,15.9,14.9,16.4,15,16.8z"/>
					</g>
				</g>
				<g>
					<g>
						<path class="st1" d="M17.4,32.6c-0.6,0.6-0.9,1-1.6,1.6c-0.3-0.3-1.3-1.3-1.6-1.6c0,0,0.3-13,0.4-13.7
							c0.1-0.7,0.4-2.1,0.4-2.1l0.7-0.4l0.3,0.5c0,0,0.5,1.8,0.5,2.9C16.5,20.6,17.1,28.4,17.4,32.6z"/>
					</g>
				</g>
			</g>
			<g>
				<g>
					<g>
						<path class="st5" d="M18.1,12.8c0,0-1.3,1.9-2.6,2.5c0,0,1.4,1,1.5,1.6c0,0,1.8-2.2,1.8-3S18.1,12.8,18.1,12.8z"/>
					</g>
				</g>
				<g>
					<g>
						<path class="st5" d="M15.1,15.3c0,0-0.7,0.5-1.2,1.6c0,0-1.7-1.8-2.2-3c-0.1-0.3-0.1-0.6,0.2-0.9l0.5-0.5
							C12.3,12.5,12.7,14.3,15.1,15.3z"/>
					</g>
				</g>
			</g>
			<g>
				<g>
					<path class="st1" d="M23.2,36.8c0,0,0.7,3.2,1.4,4.7c0.7,1.5,0.4,2.2,0.4,2.2s-0.9,0.7-0.9,4.3h-8.7l-0.1-0.4L15.1,48H6.7
						c0,0,0.1-2.8-1.3-5.2c0,0,0.5-1.9,1.3-3.4c0.8-1.5,1.1-2.8,1.1-2.8C12.8,37.9,18,38,23.2,36.8z"/>
				</g>
			</g>
		</g>
	</g>
	<g>
		<g>
			<path class="st7" d="M48,2v8.8c0,1.1-0.9,2-2,2h-8.8c-1.1,0-2-0.9-2-2V2c0-1.1,0.9-2,2-2H46C47.1,0,48,0.9,48,2z"/>
		</g>
		<g>
			<rect x="38.2" y="3" class="st6" width="6.8" height="6.8"/>
		</g>
	</g>
	<g>
		<g>
			<path class="st8" d="M48,19.6v8.8c0,1.1-0.9,2-2,2h-8.8c-1.1,0-2-0.9-2-2v-8.8c0-1.1,0.9-2,2-2H46C47.1,17.6,48,18.5,48,19.6z"/>
		</g>
		<g>
			<rect x="38.2" y="20.6" class="st11" width="6.8" height="6.8"/>
		</g>
	</g>
	<g>
		<g>
			<path class="st0" d="M48,37.2V46c0,1.1-0.9,2-2,2h-8.8c-1.1,0-2-0.9-2-2v-8.8c0-1.1,0.9-2,2-2H46C47.1,35.2,48,36.1,48,37.2z"/>
		</g>
		<g>
			<rect x="38.2" y="38.2" class="st2" width="6.8" height="6.8"/>
		</g>
	</g>
</g>
</svg>
