<?xml version="1.0" encoding="utf-8"?>
<!-- Generator: Adobe Illustrator 18.0.0, SVG Export Plug-In . SVG Version: 6.00 Build 0)  -->
<!DOCTYPE svg PUBLIC "-//W3C//DTD SVG 1.1//EN" "http://www.w3.org/Graphics/SVG/1.1/DTD/svg11.dtd">
<svg version="1.1" id="Layer_1" xmlns="http://www.w3.org/2000/svg" xmlns:xlink="http://www.w3.org/1999/xlink" x="0px" y="0px"
	 viewBox="0 0 48 48" enable-background="new 0 0 48 48" xml:space="preserve">
<g>
	<path fill="#FFD15C" d="M38.5,20.7L38.5,20.7C38.5,9.3,31.9,0,24,0C16.1,0,9.5,9.3,9.5,20.7l0,0c-0.1,1.7-0.2,6.4,3.2,9.2
		c3.9,3.1,10.2-2.2,11.2-3c1,0.9,7.4,6.2,11.2,3C38.7,27.1,38.6,22.4,38.5,20.7z M24,26.5c-0.9-1.5-6.1-9.8-12.8-7.2
		C11.6,9.4,17.3,1.6,24,1.6s12.4,7.8,12.8,17.7C30.1,16.7,24.9,25,24,26.5z"/>
	<g>
		<g>
			<g>
				<g>
					<path fill="#F7B64C" d="M25.4,26.7c1.3,0.4,2.9,0.6,4.8,0.6c-1.9,0.1-3.6,0.1-5-0.3"/>
				</g>
				<g>
					<path fill="#F7B64C" d="M25.4,27.1c0,0,1.2,1.1,4.8,2.5c0,0-3-0.9-5.1-2.2L25.4,27.1z"/>
				</g>
				<g>
					<path fill="#F7B64C" d="M25.3,26.2c0,0,1.4-1,3-1.6c0,0-2.6,1.6-2.9,1.8L25.3,26.2z"/>
				</g>
				<g>
					<path fill="#F7B64C" d="M25.1,25.8c0,0,2.3-2.9,4.8-4.1c0,0-3.8,2.9-4.8,5V25.8z"/>
				</g>
				<path fill="#8AD7F8" d="M26.5,26"/>
			</g>
			<g>
				<g>
					<path fill="#F7B64C" d="M22.7,26.7c-1.3,0.5-2.9,0.8-4.8,1c1.9,0,3.6-0.2,5-0.7"/>
				</g>
				<g>
					<path fill="#F7B64C" d="M22.6,27.1c0,0-1.2,1.1-4.8,2.5c0,0,3-0.9,5.1-2.2L22.6,27.1z"/>
				</g>
				<g>
					<path fill="#F7B64C" d="M22.7,26.2c0,0-1.8-1.3-4-2c0,0,3.5,2.1,3.8,2.3L22.7,26.2z"/>
				</g>
				<g>
					<path fill="#F7B64C" d="M22.9,25.8c0,0-2.3-2.9-4.8-4.1c0,0,3.8,2.9,4.8,5V25.8z"/>
				</g>
				<path fill="#8AD7F8" d="M21.5,26"/>
			</g>
			<circle fill="#415A6B" cx="24" cy="26.7" r="1.7"/>
		</g>
		<g>
			<g>
				<g>
					<path fill="#FFD15C" d="M37.8,33.2l1.1,3.1l0,0c-1.1,0.4-2.2,0.9-3.2,1.5C32.6,39.7,26.3,44,25,48H23
						c-1.4-4.3-7.3-8.4-10.4-10.2c-0.9-0.6-2-1-3-1.4c-0.2-0.1-0.4-0.1-0.4-0.1l1.1-3.1C19.2,35.8,28.4,35.8,37.8,33.2z"/>
				</g>
			</g>
		</g>
	</g>
</g>
</svg>
