<?xml version="1.0" encoding="utf-8"?>
<!-- Generator: Adobe Illustrator 18.0.0, SVG Export Plug-In . SVG Version: 6.00 Build 0)  -->
<!DOCTYPE svg PUBLIC "-//W3C//DTD SVG 1.1//EN" "http://www.w3.org/Graphics/SVG/1.1/DTD/svg11.dtd">
<svg version="1.1" id="Layer_1" xmlns="http://www.w3.org/2000/svg" xmlns:xlink="http://www.w3.org/1999/xlink" x="0px" y="0px"
	 viewBox="0 0 48 48" enable-background="new 0 0 48 48" xml:space="preserve">
<g>
	<g>
		<polygon fill="#344A5E" points="37.3,43.2 10.7,43.2 12.5,39.6 35.5,39.6 		"/>
		<path fill="#415A6B" d="M9.5,35.8l-3.6,7.1C4.7,45.2,6.4,48,9,48h0c1.3,0,2.5-0.7,3.1-1.9l5.2-10.3H9.5z"/>
		<path fill="#415A6B" d="M38.5,35.8h-7.9l5.2,10.3c0.6,1.2,1.8,1.9,3.1,1.9h0c2.6,0,4.3-2.8,3.1-5.1L38.5,35.8z"/>
		<path fill="#F3705A" d="M45.6,0H2.4C1.1,0,0,1.1,0,2.4c0,1.3,1.1,2.4,2.4,2.4h43.3c1.3,0,2.4-1.1,2.4-2.4C48,1.1,46.9,0,45.6,0z"
			/>
		<path fill="#F3705A" d="M45.6,32.3H2.4c-1.3,0-2.4,1.1-2.4,2.4C0,35.9,1.1,37,2.4,37h43.3c1.3,0,2.4-1.1,2.4-2.4
			C48,33.3,46.9,32.3,45.6,32.3z"/>
		<rect x="2.4" y="4.7" fill="#F3F3F3" width="43.3" height="27.6"/>
		<g>
			<g>
				<g>
					<rect x="27.2" y="8.8" fill="#415A6B" width="14.4" height="2.1"/>
				</g>
				<g>
					<rect x="27.2" y="14.5" fill="#CED6E0" width="14.4" height="2.1"/>
				</g>
				<g>
					<rect x="27.2" y="20.3" fill="#CED6E0" width="14.4" height="2.1"/>
				</g>
				<g>
					<rect x="27.2" y="26.1" fill="#CED6E0" width="14.4" height="2.1"/>
				</g>
			</g>
			<g>
				<path fill="#F3705A" d="M9.8,17.8c0.3-2.5,2.3-4.5,4.8-4.8V9.7c-4.4,0.3-7.9,3.8-8.2,8.2H9.8z"/>
				<path fill="#FFD15C" d="M15.8,9.7v3.4c1,0.1,2,0.5,2.7,1.1l2.4-2.4C19.5,10.6,17.8,9.8,15.8,9.7z"/>
				<path fill="#8AD7F8" d="M19.4,15.1c0.7,0.9,1.2,2.1,1.2,3.4c0,3-2.4,5.5-5.5,5.5c-2.8,0-5.1-2.1-5.4-4.8H6.4
					c0.3,4.6,4.2,8.2,8.8,8.2c4.9,0,8.8-4,8.8-8.8c0-2.2-0.8-4.2-2.2-5.8L19.4,15.1z"/>
			</g>
		</g>
	</g>
</g>
</svg>
