<?xml version="1.0" encoding="utf-8"?>
<!-- Generator: Adobe Illustrator 18.0.0, SVG Export Plug-In . SVG Version: 6.00 Build 0)  -->
<!DOCTYPE svg PUBLIC "-//W3C//DTD SVG 1.1//EN" "http://www.w3.org/Graphics/SVG/1.1/DTD/svg11.dtd">
<svg version="1.1" id="Layer_1" xmlns="http://www.w3.org/2000/svg" xmlns:xlink="http://www.w3.org/1999/xlink" x="0px" y="0px"
	 viewBox="0 0 48 48" enable-background="new 0 0 48 48" xml:space="preserve">
<g>
	<path fill="#ACB3BA" d="M39.2,5H8.8c-1.1,0-2,0.9-2,2v39c0,1.1,0.9,2,2,2h30.4c1.1,0,2-0.9,2-2V7C41.2,5.9,40.3,5,39.2,5z"/>
	<path fill="#F2F2F2" d="M38.2,9v35c0,0.5-0.4,1-1,1H10.8c-0.6,0-1-0.5-1-1V9c0-0.6,0.4-1,1-1h26.4C37.8,8,38.2,8.5,38.2,9z"/>
	<path fill="#40596B" d="M30.1,3.8h-2.3c0-2.1-1.7-3.8-3.8-3.8s-3.8,1.7-3.8,3.8h-2.5c-1.1,0-2,0.9-2,2V10h16.2V5.8
		C32.1,4.7,31.2,3.8,30.1,3.8z"/>
	<circle fill="#FFFFFF" cx="24.1" cy="3.8" r="1.8"/>
	<g>
		<path fill="#FF7058" d="M25.1,25.9C25,25.9,25,25.9,25.1,25.9c-0.3,0-0.5-0.2-0.5-0.5l-0.9-8.3l-2.1,5.5c-0.1,0.2-0.3,0.3-0.5,0.3
			c0,0,0,0,0,0c-0.2,0-0.4-0.1-0.5-0.3L19.2,19l-1.6,1.7c-0.1,0.1-0.2,0.2-0.4,0.2h-5.2c-0.3,0-0.5-0.2-0.5-0.5
			c0-0.3,0.2-0.5,0.5-0.5h5l2.1-2.1c0.1-0.1,0.3-0.2,0.5-0.1c0.2,0,0.3,0.2,0.4,0.3l1.1,3.1l2.4-6.2c0.1-0.2,0.3-0.4,0.6-0.3
			c0.2,0,0.4,0.2,0.4,0.5l1,8.6l2.5-5.3c0.1-0.2,0.3-0.3,0.5-0.3c0.2,0,0.4,0.1,0.5,0.3l1.8,3.3l0.7-1.3c0.1-0.2,0.3-0.3,0.5-0.3
			h4.3c0.3,0,0.5,0.2,0.5,0.5c0,0.3-0.2,0.5-0.5,0.5h-4l-1,1.9C31,22.9,30.8,23,30.6,23c0,0,0,0,0,0c-0.2,0-0.4-0.1-0.5-0.3
			l-1.8-3.2l-2.8,6C25.5,25.7,25.3,25.9,25.1,25.9z"/>
	</g>
	<g>
		<rect x="12.9" y="29.2" fill="#CDD5DF" width="22.3" height="2"/>
		<rect x="12.9" y="34" fill="#CDD5DF" width="22.3" height="2"/>
		<rect x="12.9" y="38.7" fill="#CDD5DF" width="16" height="2"/>
	</g>
</g>
</svg>
