<?xml version="1.0" encoding="utf-8"?>
<!-- Generator: Adobe Illustrator 18.0.0, SVG Export Plug-In . SVG Version: 6.00 Build 0)  -->
<!DOCTYPE svg PUBLIC "-//W3C//DTD SVG 1.1//EN" "http://www.w3.org/Graphics/SVG/1.1/DTD/svg11.dtd">
<svg version="1.1" id="Layer_1" xmlns="http://www.w3.org/2000/svg" xmlns:xlink="http://www.w3.org/1999/xlink" x="0px" y="0px"
	 viewBox="0 0 48 48" enable-background="new 0 0 48 48" xml:space="preserve">
<g>
	<path fill="#FFD15C" d="M28.3,16.5L26.7,4.9h-5.4l-1.6,11.6c-0.1,1.2-0.7,2.3-1.5,3.3c-0.2,0.2-0.4,0.5-0.6,0.7
		c-0.4,0.6-0.6,1.4-0.6,2.2L17,45c0,1.3,1.1,2.6,2.4,2.8c3,0.3,6.1,0.3,9.1,0c1.4-0.2,2.4-1.4,2.4-2.8l0-22.3c0-0.8-0.2-1.5-0.6-2.2
		c-0.2-0.3-0.4-0.5-0.6-0.7C29,18.9,28.4,17.8,28.3,16.5z"/>
	<path fill="#F8B64C" d="M18,45.6V22.7c0-0.6,0.2-1.1,0.5-1.6c0.2-0.2,0.3-0.4,0.5-0.6c1-1.2,1.6-2.5,1.8-3.8l0.8-6.2h4.9l0.8,6.2
		c0.1,1.3,0.8,2.6,1.8,3.8c0.2,0.2,0.3,0.4,0.5,0.6c0.3,0.4,0.5,1,0.5,1.6v22.9C30,46.4,18,46.4,18,45.6z"/>
	<path fill="#F2F2F2" d="M26.7,4.9L27,6.7H21l0.2-1.8c0.2-0.4,0.2-0.9,0-1.3c-0.3-0.1-0.5-0.4-0.5-0.7c0-0.5,0.4-0.8,0.8-0.8h4.6
		c0.5,0,0.8,0.4,0.8,0.8c0,0.3-0.2,0.6-0.5,0.7C26.5,4,26.6,4.5,26.7,4.9z"/>
	<g>
		<rect x="21.6" y="1.6" fill="#F8B64C" width="4.8" height="0.4"/>
		<path fill="#FF7058" d="M26.7,0.5c0-0.3-0.2-0.5-0.5-0.5h-4.4c-0.3,0-0.5,0.2-0.5,0.5c0,0.2,0.3,0.3,0.4,0.5
			c0.1,0.1-0.1,0.3-0.1,0.6h4.8c-0.1-0.2-0.2-0.4-0.1-0.6C26.4,0.8,26.7,0.8,26.7,0.5z"/>
	</g>
	<g>
		<polygon fill="#40596B" points="27.5,11.1 20.5,11.1 21,7.1 27,7.1 		"/>
		<polygon fill="#FF7058" points="27,7.1 21,7.1 21.1,6.5 26.9,6.5 		"/>
		<polygon fill="#FF7058" points="27.6,11.8 20.4,11.8 20.5,11.1 27.5,11.1 		"/>
	</g>
	<path fill="#40596B" d="M31,29.2h-3.1c-0.9-1.5-2.3-2.5-3.8-2.5c-1.6,0-2.9,1-3.8,2.5h-3.1v8.1h3.1c0.9,1.5,2.3,2.5,3.8,2.5
		c1.6,0,2.9-1,3.8-2.5H31V29.2z"/>
	<g>
		<path fill="#FFFFFF" d="M19.9,32.6c0-0.1,0-0.2,0-0.3c0-0.1-0.1-0.1-0.1-0.1c0,0-0.1,0-0.2-0.1c0,0,0,0,0,0c0,0,0,0,0,0
			c0,0,0-0.1,0-0.1c0.1,0,0.2,0,0.2,0c0.1,0,0.1,0,0.2,0l0.5,0c0.3,0,0.5,0.1,0.7,0.2s0.2,0.3,0.2,0.5c0,0.1,0,0.2-0.1,0.3
			c-0.1,0.1-0.2,0.2-0.3,0.2c0,0,0,0,0,0c0,0,0,0,0,0c0.2,0.1,0.4,0.1,0.5,0.2c0.1,0.1,0.2,0.3,0.2,0.5c0,0.2-0.1,0.4-0.2,0.5
			s-0.3,0.2-0.6,0.2l-0.3,0l-0.4,0c-0.1,0-0.3,0-0.4,0l-0.1,0c0,0,0,0,0,0c0,0,0,0,0,0c0,0,0-0.1,0-0.1c0.1,0,0.2,0,0.3-0.1
			c0-0.1,0.1-0.1,0.1-0.2V32.6z M20.3,33C20.3,33.1,20.3,33.1,20.3,33C20.3,33.1,20.3,33.1,20.3,33l0.2,0.1c0.2,0,0.4,0,0.4-0.1
			c0.1-0.1,0.1-0.2,0.1-0.4c0-0.2,0-0.3-0.1-0.4c-0.1-0.1-0.2-0.1-0.4-0.1h-0.1c0,0-0.1,0-0.1,0c0,0,0,0.1,0,0.1V33z M20.3,33.8
			c0,0.2,0,0.3,0,0.4c0,0.1,0,0.1,0.1,0.2s0.1,0,0.3,0c0.2,0,0.3,0,0.4-0.1c0.1-0.1,0.1-0.2,0.1-0.4c0-0.2-0.1-0.3-0.2-0.4
			c-0.1-0.1-0.3-0.1-0.5-0.1h-0.1c-0.1,0-0.1,0-0.1,0c0,0,0,0.1,0,0.1V33.8z"/>
		<path fill="#FFFFFF" d="M23.6,32C23.6,32,23.6,32,23.6,32C23.6,32,23.6,32,23.6,32L23.6,32c0.1,0.1,0.1,0.1,0.1,0.2v0.1l0,0.3
			c0,0,0,0,0,0c0,0,0,0,0,0c0,0-0.1,0-0.1,0c0-0.1,0-0.2-0.1-0.3c0-0.1-0.1-0.1-0.1-0.1c0,0-0.1,0-0.3,0h-0.2c-0.1,0-0.2,0-0.2,0
			c0,0,0,0-0.1,0.1c0,0,0,0.1,0,0.2v0.7c0,0.1,0,0.1,0.1,0.1c0.1,0,0.2,0,0.3,0s0.1,0,0.1-0.1s0.1-0.1,0.1-0.2c0,0,0,0,0.1,0
			c0,0,0.1,0,0.1,0c0,0.1,0,0.1,0,0.2c0,0.1,0,0.2,0,0.2c0,0.1,0,0.1,0,0.2c0,0.1,0,0.1,0,0.2c0,0,0,0-0.1,0s-0.1,0-0.1,0
			c0-0.1,0-0.2-0.1-0.3c0,0-0.1-0.1-0.1-0.1c-0.1,0-0.2,0-0.3,0c0,0-0.1,0-0.1,0.1v0.5c0,0.2,0,0.3,0,0.3c0,0.1,0.1,0.1,0.1,0.1
			c0.1,0,0.2,0,0.4,0c0.1,0,0.2,0,0.3,0c0.1,0,0.2-0.1,0.2-0.2c0-0.1,0.1-0.2,0.1-0.3c0,0,0,0,0.1,0c0,0,0,0,0,0c0,0,0,0,0,0l0,0.3
			c0,0.1,0,0.2,0,0.2v0.1c0,0,0,0,0,0c0,0,0,0-0.1,0h-1.4c-0.1,0-0.3,0-0.5,0c0,0,0,0,0,0s0,0,0,0c0,0,0-0.1,0-0.1
			c0.1,0,0.2,0,0.3-0.1c0-0.1,0.1-0.1,0.1-0.2v-1.5c0-0.1,0-0.2,0-0.3c0-0.1-0.1-0.1-0.1-0.1c0,0-0.1,0-0.2-0.1c0,0,0,0,0-0.1
			c0,0,0,0,0,0c0,0,0,0,0,0l0.5,0H23.6z"/>
		<path fill="#FFFFFF" d="M25.8,32C25.9,32,25.9,32,25.8,32C25.9,32,25.9,32,25.8,32L25.8,32c0.1,0.1,0.1,0.1,0.1,0.2v0.1l0,0.3
			c0,0,0,0,0,0c0,0,0,0,0,0c0,0-0.1,0-0.1,0c0-0.1,0-0.2-0.1-0.3c0-0.1-0.1-0.1-0.1-0.1c0,0-0.1,0-0.3,0h-0.2c-0.1,0-0.2,0-0.2,0
			c0,0,0,0-0.1,0.1c0,0,0,0.1,0,0.2v0.7c0,0.1,0,0.1,0.1,0.1c0.1,0,0.2,0,0.3,0c0.1,0,0.1,0,0.1-0.1c0,0,0.1-0.1,0.1-0.2
			c0,0,0,0,0.1,0c0,0,0.1,0,0.1,0c0,0.1,0,0.1,0,0.2c0,0.1,0,0.2,0,0.2c0,0.1,0,0.1,0,0.2c0,0.1,0,0.1,0,0.2c0,0,0,0-0.1,0
			s-0.1,0-0.1,0c0-0.1,0-0.2-0.1-0.3c0,0-0.1-0.1-0.1-0.1c-0.1,0-0.2,0-0.3,0c0,0-0.1,0-0.1,0.1v0.5c0,0.2,0,0.3,0,0.3
			c0,0.1,0.1,0.1,0.1,0.1c0.1,0,0.2,0,0.4,0c0.1,0,0.2,0,0.3,0c0.1,0,0.2-0.1,0.2-0.2c0-0.1,0.1-0.2,0.1-0.3c0,0,0,0,0.1,0
			c0,0,0,0,0,0c0,0,0,0,0,0l0,0.3c0,0.1,0,0.2,0,0.2v0.1c0,0,0,0,0,0c0,0,0,0-0.1,0h-1.4c-0.1,0-0.3,0-0.5,0c0,0,0,0,0,0
			c0,0,0,0,0,0c0,0,0-0.1,0-0.1c0.1,0,0.2,0,0.3-0.1c0-0.1,0.1-0.1,0.1-0.2v-1.5c0-0.1,0-0.2,0-0.3c0-0.1-0.1-0.1-0.1-0.1
			s-0.1,0-0.2-0.1c0,0,0,0,0-0.1c0,0,0,0,0,0c0,0,0,0,0,0l0.5,0H25.8z"/>
		<path fill="#FFFFFF" d="M26.6,32.6c0-0.1,0-0.2,0-0.3c0-0.1-0.1-0.1-0.1-0.1c0,0-0.1,0-0.2-0.1c0,0,0,0,0-0.1c0,0,0,0,0,0
			c0,0,0,0,0,0c0.1,0,0.2,0,0.2,0c0.1,0,0.1,0,0.2,0l0.7,0c0.2,0,0.4,0.1,0.6,0.2c0.1,0.1,0.2,0.3,0.2,0.5c0,0.3-0.2,0.5-0.6,0.6
			c0,0,0,0,0,0c0,0,0,0,0,0c0.1,0.1,0.3,0.2,0.3,0.3c0.1,0.1,0.1,0.3,0.2,0.5c0,0.1,0,0.2,0.1,0.2c0,0,0,0.1,0.1,0.1
			c0,0,0.1,0,0.1,0c0,0,0.1,0,0.1,0s0-0.1,0.1-0.1c0,0,0,0,0.1,0c0,0,0,0,0,0c0,0,0,0,0,0v0c0,0.1-0.1,0.2-0.1,0.3
			c-0.1,0.1-0.2,0.1-0.3,0.1c-0.1,0-0.1,0-0.2,0c-0.1,0-0.1-0.1-0.1-0.1c0-0.1-0.1-0.2-0.1-0.5l0-0.1c0-0.2-0.1-0.3-0.2-0.3
			c-0.1-0.1-0.2-0.1-0.3-0.1c-0.1,0-0.2,0-0.2,0.1V34c0,0.1,0,0.2,0,0.2c0,0.1,0.1,0.1,0.1,0.1c0.1,0,0.1,0,0.3,0.1c0,0,0,0,0,0
			c0,0,0,0,0,0c0,0,0,0,0,0c0,0,0,0,0,0c-0.1,0-0.2,0-0.3,0c-0.1,0-0.2,0-0.3,0c-0.1,0-0.2,0-0.3,0c-0.1,0-0.2,0-0.3,0c0,0,0,0,0,0
			s0,0,0,0c0,0,0-0.1,0-0.1c0.1,0,0.2,0,0.2-0.1c0,0,0.1-0.1,0.1-0.1c0,0,0-0.1,0-0.2V32.6z M27.1,33.1c0,0.1,0,0.1,0.1,0.1
			c0,0,0.1,0,0.2,0c0.2,0,0.3,0,0.4-0.1c0.1-0.1,0.1-0.2,0.1-0.4c0-0.2,0-0.3-0.1-0.4c-0.1-0.1-0.2-0.1-0.4-0.1c-0.1,0-0.2,0-0.2,0
			c0,0,0,0.1,0,0.2V33.1z"/>
	</g>
</g>
</svg>
