<?xml version="1.0" encoding="utf-8"?>
<!-- Generator: Adobe Illustrator 19.0.1, SVG Export Plug-In . SVG Version: 6.00 Build 0)  -->
<svg version="1.1" id="Layer_1" xmlns="http://www.w3.org/2000/svg" xmlns:xlink="http://www.w3.org/1999/xlink" x="0px" y="0px"
	 viewBox="0 0 48 48" style="enable-background:new 0 0 48 48;" xml:space="preserve">
<style type="text/css">
	.st0{fill:#415A6B;}
	.st1{fill:#ADB3BA;}
	.st2{fill:#E8EAE9;}
	.st3{fill:#55C0EB;}
	.st4{fill:#F3705A;}
	.st5{fill:#FFFFFF;}
	.st6{fill:#FFD15C;}
	.st7{fill:#344A5E;}
	.st8{fill:#CED6E0;}
	.st9{fill:#F05540;}
	.st10{fill:#F7B64C;}
	.st11{fill:#F3F3F3;}
	.st12{fill:#66C6B9;}
	.st13{fill:#4ABAA5;}
	.st14{fill:#8AD7F8;}
	.st15{fill:none;}
	.st16{fill:#E53D35;}
</style>
<g>
	<g>
		<g>
			<g>
				<path class="st7" d="M17.8,48c0-6.7-1.1-13.4-3-20.1c-2.5,1.2-1.8,7.1-2,9.1c-0.1,1.1-0.1,6.7-0.1,11.1H17.8z"/>
			</g>
			<path class="st4" d="M34.6,8.9c0,3.9-0.1,7.9-0.1,11.8c0,1.4-0.1,2.8-0.9,3.9c-0.9,1.1-2.4,1.6-3.8,1.8c-1.5,0.3-3.1,0.4-4.7,0.4
				c-0.7,0-1.3,0-2-0.3c-0.9-0.4-1.5-1.3-1.9-2.2c-0.3-0.9-0.4-1.9-0.4-2.9c-0.1-1.3-0.1-2.7,0.1-4s0.6-2.6,1.5-3.7
				c0.9-1.1,2.2-1.8,3.6-2.3c1.4-0.4,2.8-0.6,4.3-0.7"/>
			<g>
				<path class="st6" d="M35.4,24.7l-1.8-2.8c0,0-1-0.7-1.1-1.6c-0.1-0.9,0-1.8,0-1.8s1.3-3.6,0.9-9l-3.7-5.8l-5.2-0.9l-4.3,7.1
					c0,0-0.2,6.6,3.2,10.2c0,0,0.7,2.3,0.6,2.8l-1.7,2.5l-0.9,5.4l4.6,2.3C26,32.9,33.6,29.4,35.4,24.7z"/>
			</g>
			<path class="st10" d="M34.6,24.3l-0.7-2.1l-0.2-0.4c0,0-1-0.7-1.1-1.6s0-1.8,0-1.8c-5.2,7.1-9.2,1.6-9.2,1.6
				C28.1,27.4,34.6,24.3,34.6,24.3z"/>
			<g>
				<path class="st2" d="M29.2,48l6-23.6l-2.3-0.3c-1.7,4-8.9,7.2-9.9,5.7c-1-1.5-0.8-4.6-0.8-4.6c-2,1.3-3.1,16.1-3.5,22.8H29.2z"
					/>
			</g>
			<g>
				<path class="st7" d="M40.3,44.9c-0.1,0.7-0.2,1.8-0.2,3.1h7.7c0.1-1.8,0.2-3.6,0.2-5c0-3.4-1.3-12.8-1.6-14.5
					c-0.3-1.8-1.9-2.2-1.9-2.2s-6.2,3.8-6.2,4l1.2,10.5C39.5,40.8,40.7,43,40.3,44.9z"/>
			</g>
			<g>
				<path class="st0" d="M17.1,48h4.9c-0.4-0.8-0.8-1.6-1.2-2.5C18.1,39.9,22.1,26,24,22.7c0,0-1.9,1.3-2.8,2
					c-0.9,0.6-6.4,3.2-6.4,3.2s-0.8,5,0,9.2C15.3,39.7,16.4,44.2,17.1,48z"/>
				<path class="st0" d="M39.3,48c0.2-2.1,0.7-4.5,1.6-6.7c0,0-1-12.6,3.6-15c0,0-3.9-1.8-6.8-2.8c-0.9-0.3-3.5-1.5-4.1-1.7
					c0,0-2.3,6-4.2,9.7c-2.6,5-4.2,12.3-4.7,16.4H39.3z"/>
			</g>
			<g>
				<path class="st4" d="M27.3,5c0,0,1,0,3.3,2.1s3,3.6,3.2,4.6s-1.1,8.7-1.1,8.7c1.1,3.7,2.1,7.1,6.8,10.4c0,0-2.6-9.1-3.5-12.3
					c-0.9-3.2,0.9-5.9-0.8-11.3C33.5,1.8,29.9-0.3,26,0s-6.1,4-6.5,6.2s-0.1,10.1,0.3,11.9c0.4,1.8,1.8,10,1.8,10l-0.3-11.8
					c0,0-0.9-2.5-0.2-4.1c0.6-1.7,0.1-4.7,1.4-5.9C23.6,5.3,25.5,4.6,27.3,5z"/>
			</g>
			<path class="st4" d="M19.6,16.7c0,0,0.7,7.3-0.3,11.5c-1.1,4.2-1.8,5.1-1.8,5.1s4.3-1.7,5-6.1c0.8-4.5,0-6,0-6"/>
			<g>
				<path class="st4" d="M24.2,29.1c-0.6,1.4-1.6,2.6-2.3,4c-0.7,1.4-1.1,3-0.6,4.4c-1.3-1-1.6-2.9-1.4-4.5c0.2-1.6,0.9-3.1,1.3-4.7
					c0.5-2.3,0.4-4.6,0.3-6.9l1.9-1.4C25.3,22.5,25.5,26.2,24.2,29.1z"/>
			</g>
			<path class="st4" d="M32.6,18.4c-0.5,1.8-0.1,4.8,0.5,6.5c0.5,1.4,1.4,2.7,1.8,4.1c0.4,1.5,0.4,3-0.1,4.5
				c0.9-0.3,1.4-1.3,1.5-2.2c0.1-0.9-0.2-1.9-0.5-2.7c-0.4-0.9-0.9-1.7-1.2-2.5c-0.9-2.2-0.8-4.8,0.1-6.9"/>
		</g>
		<g>
			<g>
				<path class="st12" d="M23.9,38v-3.9l-3.2-0.7c-0.2-0.5-0.4-1.1-0.6-1.6l1.7-2.8L19,26.2L16.2,28c-0.5-0.3-1-0.5-1.6-0.6
					l-0.7-3.2H10l-0.7,3.2c-0.5,0.2-1.1,0.4-1.5,0.6l-2.8-1.7L2.1,29l1.7,2.8c-0.3,0.5-0.5,1-0.6,1.6L0,34.1V38l3.2,0.7
					c0.2,0.5,0.4,1.1,0.6,1.6l-1.7,2.8l2.8,2.8l2.8-1.7c0.5,0.3,1,0.5,1.5,0.6L10,48l3.9,0l0.7-3.2c0.5-0.2,1.1-0.4,1.6-0.6l2.8,1.7
					l2.8-2.8L20,40.3c0.3-0.5,0.5-1,0.6-1.6L23.9,38z M11.9,39.7c-2,0-3.6-1.6-3.6-3.6c0-2,1.6-3.6,3.6-3.6c2,0,3.6,1.6,3.6,3.6
					C15.5,38,13.9,39.7,11.9,39.7z"/>
			</g>
			<g>
				<path class="st13" d="M11.9,30c-3.3,0-6.1,2.7-6.1,6c0,3.3,2.7,6,6.1,6c3.3,0,6-2.7,6-6C18,32.7,15.3,30,11.9,30z M11.9,39.7
					c-2,0-3.6-1.6-3.6-3.6c0-2,1.6-3.6,3.6-3.6c2,0,3.6,1.6,3.6,3.6C15.5,38,13.9,39.7,11.9,39.7z"/>
			</g>
		</g>
	</g>
</g>
</svg>
