<?xml version="1.0" encoding="utf-8"?>
<!-- Generator: Adobe Illustrator 18.0.0, SVG Export Plug-In . SVG Version: 6.00 Build 0)  -->
<!DOCTYPE svg PUBLIC "-//W3C//DTD SVG 1.1//EN" "http://www.w3.org/Graphics/SVG/1.1/DTD/svg11.dtd">
<svg version="1.1" id="Layer_1" xmlns="http://www.w3.org/2000/svg" xmlns:xlink="http://www.w3.org/1999/xlink" x="0px" y="0px"
	 viewBox="0 0 48 48" enable-background="new 0 0 48 48" xml:space="preserve">
<g>
	<polygon fill="#CDD6E0" points="18.1,3.3 14.2,9.2 33.8,9.2 29.9,3.3 	"/>
	<path fill="#40596B" d="M11,6.1H7c-0.5,0-1,0.4-1,1v2.5h6V7C12,6.5,11.6,6.1,11,6.1z"/>
	<path fill="#F2F2F2" d="M45,8.9H3c-1.7,0-3,1.3-3,3v29.9c0,1.7,1.3,3,3,3h42c1.7,0,3-1.3,3-3V11.9C48,10.2,46.7,8.9,45,8.9z"/>
	<rect y="12.8" fill="#40596B" width="48" height="27.9"/>
	<circle fill="#FFFFFF" cx="24" cy="26.8" r="12.4"/>
	<circle fill="#84DBFF" cx="24" cy="26.8" r="9.6"/>
	<circle fill="#54C0EB" cx="24" cy="26.8" r="5.2"/>
	<circle fill="#FFFFFF" cx="28.3" cy="24.4" r="2.4"/>
	<circle fill="#FFFFFF" cx="22.1" cy="28.2" r="1"/>
	<circle fill="#FF7058" cx="8" cy="19.2" r="2"/>
</g>
</svg>
