<?xml version="1.0" encoding="utf-8"?>
<!-- Generator: Adobe Illustrator 16.0.0, SVG Export Plug-In . SVG Version: 6.00 Build 0)  -->
<!DOCTYPE svg PUBLIC "-//W3C//DTD SVG 1.1//EN" "http://www.w3.org/Graphics/SVG/1.1/DTD/svg11.dtd">
<svg version="1.1" id="Layer_1" xmlns="http://www.w3.org/2000/svg" xmlns:xlink="http://www.w3.org/1999/xlink" x="0px" y="0px"
	 width="48px" height="48px" viewBox="0 0 48 48" enable-background="new 0 0 48 48" xml:space="preserve">
<g>
	<polygon fill="#F8B64C" points="30.82,27.289 30.82,30.819 27.49,34.139 24.002,37.609 23.99,37.609 17.172,30.819 17.172,27.289 	
		"/>
	<g opacity="0.1">
		<g>
			<defs>
				<rect id="SVGID_59_" x="20.322" y="27.287" width="10.5" height="9.229"/>
			</defs>
			<clipPath id="SVGID_2_">
				<use xlink:href="#SVGID_59_"  overflow="visible"/>
			</clipPath>
			<polygon clip-path="url(#SVGID_2_)" fill="#40596B" points="30.82,27.289 30.82,30.819 30.811,36.519 27.49,34.139 20.32,28.989 
				20.891,28.289 			"/>
		</g>
	</g>
	<path fill="#FF7058" d="M17.168,30.819l-2.354,0.715L4.041,34.726c-1.531,0.455-2.648,1.769-2.844,3.354
		c-0.432,3.499-1.156,9.339-1.234,9.868h24.035V37.609L17.168,30.819z"/>
	<path fill="#F1543F" d="M48.037,47.949H23.996v-10.34l6.82-6.79h0.02l13.121,3.91c1.529,0.449,2.648,1.77,2.84,3.35
		C47.227,41.579,47.957,47.419,48.037,47.949"/>
	<path fill="#F8B64C" d="M16.754,18.346c0.152,1.729-0.686,3.212-1.871,3.316c-1.186,0.103-2.27-1.213-2.42-2.941
		c-0.152-1.727,0.686-3.211,1.873-3.314C15.52,15.302,16.604,16.619,16.754,18.346"/>
	<path fill="#F8B64C" d="M35.525,18.722c-0.15,1.728-1.234,3.044-2.418,2.939c-1.186-0.104-2.025-1.588-1.873-3.314
		c0.15-1.729,1.234-3.044,2.42-2.941C34.84,15.51,35.678,16.994,35.525,18.722"/>
	<path fill="#FFD15C" d="M33.963,13.826v3.272c-0.01,0.693-0.049,1.386-0.135,2.069c-0.145,1.136-0.385,2.252-0.723,3.329
		c-0.816,2.608-2.193,5.014-4.051,7.045l-0.953,1.038c-0.865,0.953-2.098,1.492-3.387,1.492h-1.443
		c-1.279,0-2.512-0.549-3.379-1.492l-0.941-1.038c-1.32-1.435-2.398-3.07-3.195-4.813c-0.809-1.751-1.348-3.628-1.58-5.562
		c-0.086-0.684-0.133-1.376-0.133-2.069c-0.01-0.077-0.01-0.145-0.01-0.221v-2.993c0-0.943,0.135-1.867,0.385-2.733
		c1.184-4.167,5.023-7.227,9.584-7.227c4.553,0,8.391,3.06,9.576,7.227C33.828,11.999,33.963,12.902,33.963,13.826"/>
	<path fill="#ACB3BA" d="M32.881,28.234c-0.01,0.012-0.02,0.012-0.02,0.012v-0.022C32.871,28.224,32.881,28.234,32.881,28.234"/>
	<path fill="#ACB3BA" d="M32.924,28.224v0.021c0,0-0.01,0-0.02-0.01C32.904,28.235,32.914,28.224,32.924,28.224"/>
	<path fill="#40596B" d="M33.807,19.525c0.311-3.048-0.221-5.1-0.664-6.21c-0.271-0.674-0.383-1.405-0.285-2.125
		c0.412-2.984-1.158-2.582-1.158-2.582c-3.379,1.661-7.701,1.624-7.701,1.624s-4.322,0.037-7.703-1.624c0,0-1.57-0.402-1.158,2.582
		c0.1,0.72-0.014,1.451-0.283,2.125c-0.443,1.11-0.977,3.162-0.664,6.21c0,0-6.594-19.283,9.809-18.564
		C40.4,0.242,33.807,19.525,33.807,19.525"/>
	<path fill="#FF7058" d="M35.115,13.234H12.879V2.051c0-1.104,0.896-2,2-2h18.236c1.105,0,2,0.896,2,2V13.234z"/>
	<rect x="12.879" y="11.384" fill="#F1543F" width="22.236" height="0.926"/>
	<rect x="12.879" y="9.534" fill="#F1543F" width="22.236" height="0.925"/>
	<rect x="12.879" y="7.685" fill="#F1543F" width="22.236" height="0.926"/>
	<path fill="#FF7058" d="M26.098,41.583c0,0.376-0.307,0.683-0.684,0.683c-0.375,0-0.68-0.307-0.68-0.683
		c0-0.377,0.305-0.682,0.68-0.682C25.791,40.901,26.098,41.206,26.098,41.583"/>
	<path fill="#FF7058" d="M26.098,43.953c0,0.376-0.307,0.682-0.684,0.682c-0.375,0-0.68-0.306-0.68-0.682s0.305-0.683,0.68-0.683
		C25.791,43.271,26.098,43.577,26.098,43.953"/>
	<path fill="#FF7058" d="M26.098,46.322c0,0.376-0.307,0.683-0.684,0.683c-0.375,0-0.68-0.307-0.68-0.683s0.305-0.682,0.68-0.682
		C25.791,45.641,26.098,45.946,26.098,46.322"/>
	<polygon fill="#F95D48" points="17.168,30.819 14.814,31.534 23.998,40.429 23.998,37.609 	"/>
	<polygon fill="#EF4433" points="32.986,31.469 23.996,40.429 23.996,37.609 30.816,30.819 30.836,30.819 	"/>
	<rect x="32.068" y="43.953" fill="#FF7058" width="8.148" height="2.531"/>
	
		<rect x="4.313" y="34.094" transform="matrix(0.9593 -0.2825 0.2825 0.9593 -9.591 4.0286)" fill="#F8B64C" width="9.724" height="2.359"/>
	
		<rect x="33.955" y="34.094" transform="matrix(-0.9593 -0.2826 0.2826 -0.9593 66.0845 80.0772)" fill="#F8B64C" width="9.722" height="2.359"/>
	<path fill="#40596B" d="M20.596,30.581c-0.355,0.073-0.557,0.483-0.375,0.8c0.514,0.895,2.012,1.607,3.777,1.657
		c1.764-0.05,3.264-0.763,3.777-1.657c0.18-0.316-0.021-0.727-0.377-0.8C25.154,30.122,22.84,30.122,20.596,30.581"/>
</g>
</svg>
