<?xml version="1.0" encoding="utf-8"?>
<!-- Generator: Adobe Illustrator 16.0.0, SVG Export Plug-In . SVG Version: 6.00 Build 0)  -->
<!DOCTYPE svg PUBLIC "-//W3C//DTD SVG 1.1//EN" "http://www.w3.org/Graphics/SVG/1.1/DTD/svg11.dtd">
<svg version="1.1" id="Layer_1" xmlns="http://www.w3.org/2000/svg" xmlns:xlink="http://www.w3.org/1999/xlink" x="0px" y="0px"
	 width="48px" height="48px" viewBox="0 0 48 48" enable-background="new 0 0 48 48" xml:space="preserve">
<g>
	
		<rect x="16.992" y="27.92" transform="matrix(0.4497 0.8932 -0.8932 0.4497 38.5014 -4.8028)" fill="#344A5E" width="12.312" height="1.85"/>
	<path fill="#FFD15C" d="M0.175,21.581l5.338,12.138l19.783-8.699L24.048,8.818l4.023-1.77c0.865-0.38,1.258-1.39,0.877-2.256
		c-0.379-0.865-1.391-1.258-2.254-0.878l-6.014,2.646c-0.477,0.209-0.832,0.625-0.967,1.128l-0.91,3.436L1.239,18.849
		C0.19,19.31-0.286,20.533,0.175,21.581"/>
	<path fill="#F7B64C" d="M7.817,21.075l2.398,5.451c0.426,0.968,0.055,2.066-0.826,2.454c-0.883,0.388-1.943-0.082-2.367-1.05
		l-2.398-5.451C4.2,21.512,4.569,20.414,5.45,20.025C6.333,19.638,7.394,20.107,7.817,21.075"/>
	<path fill="#F7B64C" d="M13.573,18.545l2.396,5.451c0.426,0.968,0.055,2.066-0.826,2.454c-0.883,0.388-1.941-0.082-2.367-1.05
		l-2.396-5.451c-0.426-0.968-0.057-2.066,0.826-2.454C12.087,17.107,13.147,17.577,13.573,18.545"/>
	<path fill="#F7B64C" d="M19.327,16.015l2.396,5.451c0.426,0.968,0.057,2.066-0.826,2.454c-0.881,0.388-1.941-0.082-2.367-1.05
		l-2.396-5.451c-0.426-0.968-0.057-2.066,0.826-2.454C17.841,14.577,18.901,15.047,19.327,16.015"/>
	<path fill="#F3705A" d="M38.509,17.632h-4.156c-1.021,0-1.85,0.828-1.85,1.85v13.727H6.202c-1.428,0-2.586,1.157-2.586,2.585
		c0,1.427,1.158,2.585,2.586,2.585h39.725c1.145,0,2.072-0.929,2.072-2.074c0,0,0-4.564,0.002-9.18
		C48.001,21.882,43.751,17.632,38.509,17.632"/>
	<path fill="#8AD7F8" d="M45.45,29.228v-2.104c0-3.827-3.113-6.941-6.941-6.941h-3.457v9.046H45.45z"/>
	<path fill="#344A5E" d="M3.616,35.793L3.616,35.793c0,1.428,1.158,2.585,2.586,2.585h26.301v-5.17H6.202
		C4.774,33.208,3.616,34.365,3.616,35.793"/>
	<path fill="#415A6B" d="M33.974,38.378c0,3.231,2.619,5.852,5.852,5.852s5.852-2.62,5.852-5.852c0-3.232-2.619-5.853-5.852-5.853
		S33.974,35.146,33.974,38.378"/>
	<path fill="#ADB3BA" d="M37.171,38.378c0,1.466,1.189,2.653,2.654,2.653s2.654-1.188,2.654-2.653s-1.189-2.654-2.654-2.654
		S37.171,36.912,37.171,38.378"/>
	<path fill="#415A6B" d="M9.507,38.378c0,3.231,2.621,5.852,5.852,5.852c3.232,0,5.854-2.62,5.854-5.852
		c0-3.232-2.621-5.853-5.854-5.853C12.128,32.525,9.507,35.146,9.507,38.378"/>
	<path fill="#ADB3BA" d="M12.706,38.378c0,1.466,1.188,2.653,2.654,2.653c1.465,0,2.652-1.188,2.652-2.653s-1.188-2.654-2.652-2.654
		C13.894,35.724,12.706,36.912,12.706,38.378"/>
</g>
</svg>
