<?xml version="1.0" encoding="utf-8"?>
<!-- Generator: Adobe Illustrator 16.0.0, SVG Export Plug-In . SVG Version: 6.00 Build 0)  -->
<!DOCTYPE svg PUBLIC "-//W3C//DTD SVG 1.1//EN" "http://www.w3.org/Graphics/SVG/1.1/DTD/svg11.dtd">
<svg version="1.1" id="Layer_1" xmlns="http://www.w3.org/2000/svg" xmlns:xlink="http://www.w3.org/1999/xlink" x="0px" y="0px"
	 width="48px" height="48px" viewBox="0 0 48 48" enable-background="new 0 0 48 48" xml:space="preserve">
<g>
	<path fill="#84DBFF" d="M48,24c0,13.256-10.745,24-24,24S0,37.255,0,24C0,10.746,10.745,0,24,0S48,10.746,48,24"/>
	<path fill="#54C0EB" d="M47.853,21.356c-0.191,1.567-0.439,3.123-0.745,4.675c-0.072,0.356-0.149,0.719-0.341,1.028
		c-0.62,1.009-2.306,1.263-2.446,2.44c-0.112,0.906,0.817,1.949,0.197,2.617c-0.372,0.397-1.117,0.342-1.375,0.821
		c-0.099,0.181-0.099,0.399-0.176,0.591c-0.073,0.186-0.285,0.361-0.472,0.268c0.197,0.42,0.058,0.926-0.222,1.293
		c-0.279,0.361-0.678,0.611-1.07,0.854c-0.816,0.506-1.893,1.008-2.669,0.434c-0.517-0.383-0.641-1.09-0.729-1.727
		c-0.175-1.277-0.352-2.561-0.3-3.847c0.025-0.646,0.099-1.329-0.206-1.894c-0.192-0.351-0.508-0.615-0.709-0.955
		c-0.201-0.336-0.253-0.834,0.052-1.086c0.114-0.094,0.264-0.146,0.331-0.27c0.129-0.238-0.129-0.512-0.383-0.609
		c-1.138-0.451-2.415,0.366-3.619,0.149c-1.309-0.238-2.084-1.587-2.508-2.849c-0.172-0.522-0.315-1.092-0.15-1.613
		c0.124-0.389,0.403-0.699,0.677-0.998c0.838-0.922,1.67-1.842,2.509-2.762c-0.471-0.104-0.791-0.58-0.869-1.055
		c-0.072-0.48,0.047-0.967,0.166-1.433h1.866c-0.125-0.595-0.249-1.194-0.373-1.789c0.704-0.16,1.434-0.331,2.008-0.771
		c0.572-0.434,0.95-1.22,0.687-1.893c-0.176-0.46-0.625-0.879-0.475-1.35c0.186-0.594,1.163-0.594,1.405-1.174
		c0.077-0.19,0.063-0.414,0.141-0.604c0.144-0.341,0.542-0.47,0.873-0.631c0.326-0.16,0.673-0.486,0.559-0.837l-0.047,0.01
		c0.13-0.145,0.259-0.29,0.398-0.419C44.218,9.82,47.186,15.244,47.853,21.356"/>
	<path fill="#54C0EB" d="M32.429,1.527c-0.058,0.129-0.124,0.248-0.218,0.361c-0.32,0.403-0.816,0.637-1.133,1.045
		c-0.609,0.807-0.346,2.047-0.977,2.844c-0.817,1.039-2.523,0.656-3.65,1.35c-0.745,0.455-1.147,1.4-0.957,2.254
		c-0.326,0.285-0.853,0.124-1.174-0.165c-0.325-0.29-0.537-0.688-0.879-0.957c-0.419-0.336-1.023-0.47-1.282-0.946
		c-0.507-0.92,0.776-2.037,0.408-3.02c-0.48-0.005-0.796-0.501-0.946-0.961c-0.145-0.455-0.243-0.979-0.62-1.271
		c-0.636-0.498-1.551-0.043-2.348-0.104c-0.17-0.011-0.351-0.062-0.439-0.202c-0.093-0.154-0.042-0.352,0.016-0.521
		c0.062-0.191,0.124-0.383,0.181-0.574h0.005c1.789-0.43,3.661-0.656,5.585-0.656C26.969,0.001,29.807,0.539,32.429,1.527"/>
	<path fill="#54C0EB" d="M25.464,28.781c-0.119,0.739-0.905,1.194-1.163,1.898c-0.27,0.708-0.078,1.753-0.781,2.037
		c-0.279,0.109-0.59,0.035-0.884,0.093c-0.937,0.181-1.112,1.448-1.774,2.136c-0.227,0.232-0.512,0.398-0.796,0.563
		c-0.548,0.315-1.096,0.631-1.65,0.946c-0.832,0.476-1.768,1.117-1.799,2.074c-0.005,0.186,0.021,0.371,0.01,0.553
		c-0.01,0.269-0.103,0.521-0.195,0.77c-0.254,0.688-0.513,1.381-0.767,2.074c-0.278,0.083-0.542-0.191-0.63-0.471
		c-0.083-0.279-0.067-0.584-0.191-0.848c-0.104-0.218-0.294-0.383-0.418-0.59c-0.275-0.46-0.207-1.039-0.119-1.572
		c0.367-2.291,0.832-4.565,1.396-6.82c0.077-0.299,0.145-0.641-0.037-0.889c-0.107-0.16-0.294-0.244-0.443-0.356
		c-0.564-0.44-0.605-1.257-0.905-1.908c-0.331-0.714-1.029-1.364-0.864-2.136c0.114-0.506,0.601-0.91,0.585-1.428
		c-0.025-0.688-0.838-0.992-1.391-1.396c-0.481-0.351-0.833-0.869-1.355-1.147c-0.341-0.176-0.729-0.238-1.101-0.342
		c-1.257-0.347-2.368-1.189-3.036-2.306c-0.201-0.336-0.392-0.724-0.749-0.884c-0.217-0.104-0.466-0.104-0.692-0.176
		c-1.039-0.336-1.051-1.836-1.77-2.664c-0.175-0.201-0.392-0.361-0.558-0.568c-0.243-0.311-0.353-0.708-0.435-1.092
		c-0.104-0.485-0.176-0.981-0.212-1.473c2.063-3.94,5.196-7.234,9.012-9.498c0.316,0.305,0.637,0.609,0.952,0.914
		c0.347,0.336,0.844,0.693,1.267,0.461c0.14-0.078,0.243-0.207,0.378-0.289c0.352-0.213,0.889,0.041,0.945,0.449
		c0.058,0.408-0.388,0.801-0.785,0.692c0.03,0.543,0.444,1.045,0.967,1.179c-0.703,0.574-1.732-0.222-2.637-0.124
		c-0.946,0.104-1.479,1.427-0.88,2.156c0.637,0.771,2.012,0.719,2.451,1.619c0.099,0.202,0.134,0.435,0.27,0.62
		c0.129,0.181,0.424,0.285,0.579,0.123c-0.031-1.008,0.062-2.016,0.283-2.998c0.042-0.191,0.104-0.398,0.265-0.506
		c0.129-0.078,0.29-0.084,0.439-0.068c0.936,0.1,1.769,0.859,1.944,1.783c0.279-0.227,0.465-0.563,0.512-0.92
		c0.771,1.102,1.645,2.137,2.602,3.076c-0.436,0.348-1.045,0.389-1.536,0.652c-0.56,0.305-0.91,0.874-1.268,1.4
		c-1.028,1.521-2.296,2.887-3.732,4.033c-0.171,0.141-0.357,0.281-0.445,0.488c-0.176,0.407,0.073,0.971-0.243,1.291
		c-0.677-1.091-2.182-1.582-3.371-1.101c-0.201,0.083-0.397,0.19-0.543,0.351c-0.48,0.543-0.166,1.469,0.435,1.867
		c0.604,0.402,1.37,0.43,2.094,0.439c-0.212,0.734,0.342,1.51,1.035,1.826c0.698,0.31,1.489,0.278,2.254,0.248
		c0.76-0.031,1.561-0.047,2.239,0.295c0.397,0.201,0.724,0.506,1.06,0.795c1.194,1.029,2.554,1.863,4.012,2.461
		c0.518,0.218,1.056,0.404,1.495,0.75C25.226,27.68,25.557,28.228,25.464,28.781"/>
</g>
</svg>
