<?xml version="1.0" encoding="utf-8"?>
<!-- Generator: Adobe Illustrator 18.0.0, SVG Export Plug-In . SVG Version: 6.00 Build 0)  -->
<!DOCTYPE svg PUBLIC "-//W3C//DTD SVG 1.1//EN" "http://www.w3.org/Graphics/SVG/1.1/DTD/svg11.dtd">
<svg version="1.1" id="Layer_1" xmlns="http://www.w3.org/2000/svg" xmlns:xlink="http://www.w3.org/1999/xlink" x="0px" y="0px"
	 viewBox="0 0 48 48" enable-background="new 0 0 48 48" xml:space="preserve">
<g>
	<g>
		<g>
			<g>
				<path fill="#F05540" d="M15.9,3.3c1.8,2.3,1.6,5.8-0.5,7.8c-2.3,2.1-5.6,1.6-7.4-1C6.4,7.5,7,4.1,9.2,2.4
					C11.3,0.7,14.2,1.1,15.9,3.3z"/>
			</g>
		</g>
		<g>
			<g>
				<path fill="#F05540" d="M32.1,3.3C30.3,5.5,30.4,9,32.6,11c2.3,2.1,5.6,1.6,7.4-1c1.6-2.5,1-5.9-1.1-7.6
					C36.7,0.7,33.8,1.1,32.1,3.3z"/>
			</g>
		</g>
	</g>
	<g>
		<path fill="#F05540" d="M33.3,41.9c2.9-2.7,4.7-6.6,4.7-10.9c0-8.1-6.3-14.6-14-14.6c-7.8,0-14,6.5-14,14.6
			c0,4.4,1.8,8.3,4.7,10.9C17.2,44.9,30,44.9,33.3,41.9z"/>
	</g>
	<g>
		<g>
			<path fill="#F05540" d="M36.2,31c-2-4.7-6.9-9.7-6.1-11.2c1-1.8,9.5,2,12.5,8.4c3,6.2,1,9.3-0.8,9.3C39.7,37.7,38.4,35.6,36.2,31
				z"/>
		</g>
		<g>
			<path fill="#F05540" d="M11.8,31c2-4.7,6.9-9.7,6.1-11.2c-1-1.8-9.5,2-12.5,8.4c-3,6.2-1,9.3,0.8,9.3C8.3,37.7,9.6,35.6,11.8,31z
				"/>
		</g>
	</g>
	<g>
		<path fill="#F3F3F3" d="M32.1,28.4c0,7.2-3.6,10.8-8.1,10.8c-4.5,0-8.1-3.5-8.1-10.8S19.5,13,24,13C28.5,13,32.1,21.2,32.1,28.4z"
			/>
	</g>
	<g>
		<g>
			<ellipse fill="#F3705A" cx="24" cy="11.8" rx="12.6" ry="11.8"/>
		</g>
		<g>
			<g>
				<g>
					<g>
						<g>
							<ellipse fill="#F3F3F3" cx="23.7" cy="17.6" rx="5.1" ry="4.4"/>
						</g>
					</g>
					<g>
						<g>
							<g>
								<path fill="#415A6B" d="M27.2,18.9c-0.6,1.1-2,1.9-3.4,1.9c-1.5,0-2.8-0.7-3.4-1.9c-0.1-0.1,0-0.3,0.1-0.3
									c0.1-0.1,0.3,0,0.3,0.1c0.5,0.9,1.6,1.6,2.8,1.6v-4.1c0-0.1,0.1-0.2,0.2-0.2c0.1,0,0.2,0.1,0.2,0.2v4.1
									c1.2-0.1,2.3-0.7,2.8-1.6c0.1-0.1,0.2-0.2,0.3-0.1C27.2,18.6,27.2,18.7,27.2,18.9z"/>
							</g>
						</g>
					</g>
				</g>
				<g>
					<g>
						<ellipse fill="#415A6B" cx="23.7" cy="14.6" rx="2.5" ry="2.2"/>
					</g>
				</g>
			</g>
			<g>
				<g>
					<g>
						<g>
							<g>
								<circle fill="#415A6B" cx="28" cy="12.5" r="1.4"/>
							</g>
						</g>
						<g>
							<g>
								<circle fill="#344A5E" cx="28" cy="12.5" r="0.7"/>
							</g>
						</g>
						<g>
							<g>
								<circle fill="#FFFFFF" cx="28.5" cy="12.1" r="0.2"/>
							</g>
						</g>
					</g>
				</g>
				<g>
					<g>
						<g>
							<g>
								<circle fill="#415A6B" cx="19.4" cy="12.5" r="1.4"/>
							</g>
						</g>
						<g>
							<g>
								<circle fill="#344A5E" cx="19.4" cy="12.5" r="0.7"/>
							</g>
						</g>
						<g>
							<g>
								<circle fill="#FFFFFF" cx="18.9" cy="12.1" r="0.2"/>
							</g>
						</g>
					</g>
				</g>
			</g>
		</g>
	</g>
	<g>
		<g>
			<g>
				<ellipse fill="#F3705A" cx="15.7" cy="41.3" rx="6.6" ry="6.7"/>
			</g>
			<g>
				<g>
					<path fill="#415A6B" d="M18.7,43.1c0.2,1.3-1,2.4-2.7,2.5c-1.6,0.1-3.1-0.8-3.3-2.1c-0.2-1.3,1-2.4,2.7-2.5
						C17.1,40.9,18.5,41.8,18.7,43.1z"/>
				</g>
				<g>
					<g>
						
							<ellipse transform="matrix(0.9979 6.436907e-002 -6.436907e-002 0.9979 2.5004 -0.9316)" fill="#415A6B" cx="15.7" cy="38.3" rx="1" ry="1.4"/>
					</g>
					
						<ellipse transform="matrix(0.9814 -0.1921 0.1921 0.9814 -7.2916 3.1084)" fill="#415A6B" cx="12.4" cy="39.1" rx="1" ry="1.4"/>
					
						<ellipse transform="matrix(-0.9814 -0.1921 0.1921 -0.9814 30.1939 81.2272)" fill="#415A6B" cx="19" cy="39.1" rx="1" ry="1.4"/>
				</g>
			</g>
		</g>
		<g>
			<g>
				<ellipse fill="#F3705A" cx="32.7" cy="41.3" rx="6.6" ry="6.7"/>
			</g>
			<g>
				<g>
					<path fill="#415A6B" d="M35.7,43.1c0.2,1.3-1,2.4-2.7,2.5c-1.6,0.1-3.1-0.8-3.3-2.1c-0.2-1.3,1-2.4,2.7-2.5
						C34,40.9,35.5,41.8,35.7,43.1z"/>
				</g>
				<g>
					<g>
						
							<ellipse transform="matrix(0.9979 6.436907e-002 -6.436907e-002 0.9979 2.5357 -2.0249)" fill="#415A6B" cx="32.7" cy="38.3" rx="1" ry="1.4"/>
					</g>
					
						<ellipse transform="matrix(0.9814 -0.1921 0.1921 0.9814 -6.9736 6.3701)" fill="#415A6B" cx="29.4" cy="39.2" rx="1" ry="1.4"/>
					
						<ellipse transform="matrix(-0.9814 -0.1921 0.1921 -0.9814 63.8505 84.4912)" fill="#415A6B" cx="36" cy="39.2" rx="1" ry="1.4"/>
				</g>
			</g>
		</g>
	</g>
</g>
</svg>
