<?xml version="1.0" encoding="utf-8"?>
<!-- Generator: Adobe Illustrator 18.0.0, SVG Export Plug-In . SVG Version: 6.00 Build 0)  -->
<!DOCTYPE svg PUBLIC "-//W3C//DTD SVG 1.1//EN" "http://www.w3.org/Graphics/SVG/1.1/DTD/svg11.dtd">
<svg version="1.1" id="Layer_1" xmlns="http://www.w3.org/2000/svg" xmlns:xlink="http://www.w3.org/1999/xlink" x="0px" y="0px"
	 viewBox="0 0 48 48" enable-background="new 0 0 48 48" xml:space="preserve">
<g>
	<rect y="15.9" fill="#F2F2F2" width="48" height="24.1"/>
	<rect x="3" y="28.9" fill="#CDD6E0" width="18.2" height="2.2"/>
	<rect x="34.7" y="18.9" fill="#FF7058" width="10.3" height="2.2"/>
	<rect x="34.7" y="22.9" fill="#FF7058" width="10.3" height="2.2"/>
	<rect x="3" y="34.8" fill="#CDD6E0" width="27.3" height="2.2"/>
	<circle fill="#FFD15C" cx="6.1" cy="22" r="3.1"/>
	<g>
		<path fill="#54C0EB" d="M44.1,13.9L28.8,29.2l-4.1,0.7l-2.4,0.4l0.4-2.4l0.7-4.1L38.7,8.6c0.7-0.7,1.9-0.7,2.6,0l2.8,2.8
			C44.8,12,44.8,13.2,44.1,13.9z"/>
		
			<rect x="34.9" y="10.7" transform="matrix(0.7071 -0.7071 0.7071 0.7071 0.9103 31.2125)" fill="#84DBFF" width="6.6" height="7.6"/>
		
			<rect x="25.6" y="21.2" transform="matrix(0.7071 -0.7071 0.7071 0.7071 -9.5798 26.8665)" fill="#84DBFF" width="4.2" height="7.6"/>
		<path fill="#FFFFFF" d="M39.1,10.8l-0.9,0.9l0.9,0.9l-5,5c-0.3,0-0.5,0.1-0.7,0.3c-0.4,0.4-0.4,1,0,1.4c0.4,0.4,1,0.4,1.4,0
			c0.2-0.2,0.3-0.4,0.3-0.7l5-5l0.9,0.9l0.9-0.9L39.1,10.8z"/>
		<polygon fill="#334A5E" points="24.7,29.9 22.3,30.3 22.7,27.9 		"/>
	</g>
</g>
</svg>
