<?xml version="1.0" encoding="utf-8"?>
<!-- Generator: Adobe Illustrator 16.0.0, SVG Export Plug-In . SVG Version: 6.00 Build 0)  -->
<!DOCTYPE svg PUBLIC "-//W3C//DTD SVG 1.1//EN" "http://www.w3.org/Graphics/SVG/1.1/DTD/svg11.dtd">
<svg version="1.1" id="Layer_1" xmlns="http://www.w3.org/2000/svg" xmlns:xlink="http://www.w3.org/1999/xlink" x="0px" y="0px"
	 width="48px" height="48px" viewBox="0 0 48 48" enable-background="new 0 0 48 48" xml:space="preserve">
<g>
	<rect x="14.119" y="2.049" fill="#F8B64C" width="19.762" height="14.44"/>
	<rect x="12.258" y="-0.05" fill="#FFD15C" width="23.484" height="2.099"/>
	<rect x="15.995" y="3.298" fill="#FFFFFF" width="7.07" height="3.284"/>
	<rect x="24.938" y="3.298" fill="#FFFFFF" width="7.07" height="3.284"/>
	<rect x="9.648" y="11.456" fill="#54C0EB" width="28.703" height="13.09"/>
	<rect x="8.133" y="9.424" fill="#84DBFF" width="31.735" height="2.032"/>
	<rect x="11.848" y="13.346" fill="#FFFFFF" width="6.886" height="3.726"/>
	<rect x="20.558" y="13.346" fill="#FFFFFF" width="6.886" height="3.726"/>
	<rect x="29.269" y="13.346" fill="#FFFFFF" width="6.886" height="3.726"/>
	<polygon fill="#F2F2F2" points="43.182,25.395 34.438,48.05 13.56,48.05 4.818,25.395 23.998,19.949 	"/>
	<polygon fill="#40596B" points="43.182,25.395 34.438,48.05 13.56,48.05 4.818,25.395 23.998,19.949 	"/>
	<polygon fill="#334A5E" points="23.999,19.949 23.878,19.983 23.878,48.05 34.438,48.05 43.182,25.395 	"/>
</g>
</svg>
