<?xml version="1.0" encoding="utf-8"?>
<!-- Generator: Adobe Illustrator 18.0.0, SVG Export Plug-In . SVG Version: 6.00 Build 0)  -->
<!DOCTYPE svg PUBLIC "-//W3C//DTD SVG 1.1//EN" "http://www.w3.org/Graphics/SVG/1.1/DTD/svg11.dtd">
<svg version="1.1" id="Layer_1" xmlns="http://www.w3.org/2000/svg" xmlns:xlink="http://www.w3.org/1999/xlink" x="0px" y="0px"
	 viewBox="0 0 48 48" enable-background="new 0 0 48 48" xml:space="preserve">
<g>
	<g>
		<path fill="#ADB3BA" d="M33.7,31.7c-0.4,0-0.9-0.1-1.3-0.3l0.5-1.1c1.6,0.8,4.8-1.4,7-5.9c1-2.1,1.6-4.2,1.5-6
			c0-1.6-0.5-2.8-1.3-3.1l0.5-1.1c1.3,0.6,2,2.1,2,4.3c0,2-0.6,4.3-1.7,6.5C39.1,29,36.1,31.7,33.7,31.7z"/>
	</g>
	<g>
		<polygon fill="#F3F3F3" points="27.9,19.8 27.9,6 23.7,6 23.7,8.7 17.6,8.7 15.3,11 12.9,8.6 10.7,10.8 9,9 6.8,11.3 4.5,9.1 
			3.8,9.1 0,12.9 4.1,17 23.7,17 23.7,19.8 		"/>
		<g>
			<path fill="#E8EAE9" d="M21.5,14.8c0-0.4-0.3-0.6-0.6-0.6l-19.6,0l1.3,1.3l18.3,0C21.2,15.5,21.5,15.2,21.5,14.8z"/>
		</g>
		<path fill="#E8EAE9" d="M29.5,3c-1.1,0.2-2,1.2-2,2.4l0,15c0,1.2,0.8,2.2,2,2.4l15.6,3c1.5,0.3,2.9-0.9,2.9-2.4l0-20.9
			c0-1.5-1.4-2.7-2.9-2.4L29.5,3z M44.3,12.9c0,1.8-1.4,3.2-3.2,3.2c-1.8,0-3.2-1.4-3.2-3.2c0-1.8,1.4-3.2,3.2-3.2
			C42.8,9.6,44.3,11.1,44.3,12.9z"/>
	</g>
	<g>
		<g>
			
				<rect x="15.7" y="28.8" transform="matrix(0.8443 -0.5358 0.5358 0.8443 -16.5338 17.7195)" fill="#8AD7F8" width="13" height="17.1"/>
			<path fill="#F3705A" d="M37.8,27.4l-16.5-3.7l12.8,20.1L37.8,27.4z M31.1,31.7c-0.5-0.8-0.3-1.8,0.5-2.3c0.8-0.5,1.8-0.3,2.3,0.5
				c0.5,0.8,0.3,1.8-0.5,2.3C32.6,32.7,31.6,32.4,31.1,31.7z"/>
		</g>
		
			<rect x="16.8" y="36.3" transform="matrix(0.5358 0.8443 -0.8443 0.5358 42.0402 1.9853)" fill="#415A6B" width="4.8" height="5.9"/>
	</g>
	<g>
		<path fill="#ADB3BA" d="M32.4,31.4c-1.3-0.6-2-2.1-2-4.3c0-2,0.6-4.3,1.7-6.5c2.3-4.8,6.1-7.7,8.7-6.4l-0.5,1.1
			c-1.6-0.8-4.8,1.4-7,5.9c-1,2.1-1.6,4.2-1.5,6c0,1.6,0.5,2.8,1.3,3.1L32.4,31.4z"/>
	</g>
</g>
</svg>
