<?xml version="1.0" encoding="utf-8"?>
<!-- Generator: Adobe Illustrator 18.0.0, SVG Export Plug-In . SVG Version: 6.00 Build 0)  -->
<!DOCTYPE svg PUBLIC "-//W3C//DTD SVG 1.1//EN" "http://www.w3.org/Graphics/SVG/1.1/DTD/svg11.dtd">
<svg version="1.1" id="Layer_1" xmlns="http://www.w3.org/2000/svg" xmlns:xlink="http://www.w3.org/1999/xlink" x="0px" y="0px"
	 viewBox="0 0 48 48" enable-background="new 0 0 48 48" xml:space="preserve">
<g>
	<g>
		<path fill="#4CDBC4" d="M45.8,37.9H13.5c-1.1,0-2-0.9-2-2V20.3c0-1.1,0.9-2,2-2h32.3c1.1,0,2,0.9,2,2v15.6
			C47.8,37,46.9,37.9,45.8,37.9z"/>
		<path fill="#F2F2F2" d="M41.3,21.1H18c0,2-1.7,3.7-3.7,3.7v6.6c2,0,3.7,1.7,3.7,3.7h23.3c0-2,1.7-3.7,3.7-3.7v-6.6
			C43,24.8,41.3,23.1,41.3,21.1z"/>
		<ellipse fill="#4CDBC4" cx="29.7" cy="28.1" rx="3.6" ry="5.3"/>
		<g>
			<path fill="#F2F2F2" d="M29.3,31.1c-0.9-0.1-1.6-0.4-2-0.9l0.7-1c0.3,0.3,0.8,0.6,1.4,0.7v-1.3c-0.9-0.2-1.8-0.5-1.8-1.7
				c0-0.9,0.7-1.6,1.8-1.7v-0.8h0.8v0.8c0.7,0.1,1.3,0.3,1.8,0.8l-0.7,0.9c-0.3-0.3-0.7-0.5-1.1-0.6v1.2c0.9,0.2,1.9,0.6,1.9,1.7
				c0,1-0.6,1.7-1.9,1.8v0.8h-0.8V31.1z M29.3,27.3v-1c-0.4,0.1-0.6,0.3-0.6,0.5C28.8,27.1,29,27.2,29.3,27.3z M30.2,28.8V30
				c0.4-0.1,0.6-0.3,0.6-0.6C30.8,29.1,30.5,28.9,30.2,28.8z"/>
		</g>
		<g>
			<circle fill="#4CDBC4" cx="22.9" cy="28.1" r="1.3"/>
			<circle fill="#4CDBC4" cx="36.5" cy="28.1" r="1.3"/>
		</g>
		<path fill="#3DC9AE" d="M46.1,22.4l-1.7-4.1h-1.1l1.8,4.5c0.4,1-0.1,2.2-1.1,2.6L14.2,37.7c-0.7,0.3-1.5,0.1-2.1-0.3
			c0.4,0.3,0.8,0.5,1.4,0.5h2.9l28.1-11.6c0.7-0.3,1.3-0.9,1.6-1.6C46.4,23.9,46.4,23.1,46.1,22.4z"/>
		<path fill="#4CDBC4" d="M44.1,25.4L14.3,37.7c-1,0.4-2.2-0.1-2.6-1.1l-6-14.4c-0.4-1,0.1-2.2,1.1-2.6L36.6,7.3
			c1-0.4,2.2,0.1,2.6,1.1l6,14.4C45.6,23.8,45.1,24.9,44.1,25.4z"/>
		<path fill="#F2F2F2" d="M33.5,11.5L12,20.5c0.8,1.9-0.1,4.1-2,4.8l2.5,6.1c1.9-0.8,4.1,0.1,4.8,2l21.5-8.9c-0.8-1.9,0.1-4.1,2-4.8
			l-2.5-6.1C36.4,14.3,34.3,13.4,33.5,11.5z"/>
		
			<ellipse transform="matrix(0.9239 -0.3827 0.3827 0.9239 -6.6678 11.4383)" fill="#4CDBC4" cx="25.4" cy="22.5" rx="3.6" ry="5.3"/>
		<path fill="#F2F2F2" d="M26.2,25.3c-0.9,0.3-1.6,0.2-2.2,0l0.3-1.1c0.4,0.2,1,0.3,1.5,0.2l-0.5-1.2c-0.9,0.1-1.9,0.2-2.4-0.9
			c-0.3-0.8,0-1.7,1-2.3l-0.3-0.7l0.7-0.3l0.3,0.8c0.7-0.2,1.3-0.2,1.9,0l-0.3,1.1c-0.4-0.1-0.8-0.2-1.2-0.1l0.5,1.1
			c0.9-0.1,2-0.2,2.4,0.9c0.4,0.9,0.1,1.8-1,2.4l0.3,0.7L26.5,26L26.2,25.3z M24.8,21.9l-0.4-1c-0.3,0.2-0.4,0.5-0.3,0.7
			C24.2,21.9,24.4,21.9,24.8,21.9z M26.1,23l0.4,1.1c0.4-0.2,0.5-0.6,0.4-0.8C26.8,22.9,26.5,22.9,26.1,23z"/>
		<circle fill="#4CDBC4" cx="19.1" cy="25.1" r="1.3"/>
		<circle fill="#4CDBC4" cx="31.7" cy="19.9" r="1.3"/>
		<path fill="#3DC9AE" d="M38.2,10.9l-3.1-3.1l-1,0.4l3.3,3.3c0.8,0.8,0.8,2,0,2.8L14.6,37.3c-0.4,0.4-0.9,0.6-1.4,0.6
			c0.3,0,0.7,0,1-0.1l2.3-0.9l21.6-21.6C39.3,14,39.3,12.1,38.2,10.9z"/>
		<g>
			<path fill="#4CDBC4" d="M37.5,14.4L14.6,37.3c-0.8,0.8-2,0.8-2.8,0l-11-11c-0.8-0.8-0.8-2,0-2.8L23.6,0.6c0.8-0.8,2-0.8,2.8,0
				l11,11C38.2,12.4,38.2,13.7,37.5,14.4z"/>
			<path fill="#F2F2F2" d="M22.4,5.7L5.9,22.2c1.4,1.4,1.4,3.8,0,5.2l4.7,4.7c1.4-1.4,3.8-1.4,5.2,0l16.5-16.5
				c-1.4-1.4-1.4-3.8,0-5.2l-4.7-4.7C26.2,7.2,23.8,7.2,22.4,5.7z"/>
			
				<ellipse transform="matrix(0.7071 -0.7071 0.7071 0.7071 -7.7797 19.061)" fill="#4CDBC4" cx="19.1" cy="18.9" rx="3.6" ry="5.3"/>
			<g>
				<path fill="#F2F2F2" d="M21,21.2c-0.7,0.6-1.4,0.8-2.1,0.8l-0.2-1.1c0.5,0,1-0.1,1.5-0.4l-0.9-0.9c-0.8,0.5-1.7,0.9-2.5,0.1
					c-0.6-0.6-0.7-1.6,0.1-2.5l-0.6-0.6l0.6-0.6l0.6,0.6c0.5-0.4,1.1-0.7,1.8-0.7l0.2,1.1c-0.4,0-0.8,0.2-1.2,0.4l0.8,0.8
					c0.8-0.5,1.7-0.9,2.6-0.1c0.7,0.7,0.8,1.6,0,2.6l0.5,0.5l-0.6,0.6L21,21.2z M18.3,18.6l-0.7-0.7c-0.2,0.3-0.2,0.6,0,0.8
					C17.7,18.8,18,18.8,18.3,18.6z M20,19.1l0.8,0.8c0.2-0.4,0.2-0.7,0-0.9C20.6,18.8,20.3,18.9,20,19.1z"/>
			</g>
			<g>
				<circle fill="#4CDBC4" cx="14.3" cy="23.7" r="1.3"/>
				<circle fill="#4CDBC4" cx="23.9" cy="14.1" r="1.3"/>
			</g>
		</g>
	</g>
	<g>
		<g>
			<path fill="#F8B64C" d="M18.8,43.8c0,2.3-4.2,4.2-9.3,4.2s-9.3-1.9-9.3-4.2v-2.2h18.6V43.8z"/>
			<ellipse fill="#FFD15C" cx="9.5" cy="41.6" rx="9.3" ry="4.2"/>
			<ellipse fill="#F8B64C" cx="9.5" cy="41.6" rx="7.4" ry="3.2"/>
			<g>
				<path fill="#FFD15C" d="M9.1,43.3c-1.1,0-2-0.2-2.6-0.5l0.9-0.6c0.4,0.2,1,0.4,1.7,0.4v-0.8c-1.1-0.1-2.3-0.3-2.3-1
					c0-0.5,0.9-0.9,2.3-1v-0.5h1v0.5c0.9,0,1.6,0.2,2.2,0.4l-0.9,0.5c-0.4-0.2-0.9-0.3-1.4-0.3v0.7c1.1,0.1,2.4,0.3,2.4,1
					c0,0.6-0.8,1-2.4,1.1v0.4h-1V43.3z M9.1,41.1v-0.6c-0.5,0-0.8,0.1-0.8,0.3C8.3,41,8.6,41.1,9.1,41.1z M10.1,42v0.7
					c0.6,0,0.8-0.2,0.8-0.4C10.9,42.2,10.6,42.1,10.1,42z"/>
			</g>
		</g>
		<g>
			<path fill="#F8B64C" d="M18.8,40.5c0,2.3-4.2,4.2-9.3,4.2s-9.3-1.9-9.3-4.2v-2.2h18.6V40.5z"/>
			<ellipse fill="#FFD15C" cx="9.5" cy="38.4" rx="9.3" ry="4.2"/>
			<ellipse fill="#F8B64C" cx="9.5" cy="38.4" rx="7.4" ry="3.2"/>
			<g>
				<path fill="#FFD15C" d="M9.1,40.1c-1.1,0-2-0.2-2.6-0.5L7.4,39c0.4,0.2,1,0.4,1.7,0.4v-0.8c-1.1-0.1-2.3-0.3-2.3-1
					c0-0.5,0.9-0.9,2.3-1v-0.5h1v0.5c0.9,0,1.6,0.2,2.2,0.4l-0.9,0.5c-0.4-0.2-0.9-0.3-1.4-0.3V38c1.1,0.1,2.4,0.3,2.4,1
					c0,0.6-0.8,1-2.4,1.1v0.4h-1V40.1z M9.1,37.9v-0.6c-0.5,0-0.8,0.1-0.8,0.3C8.3,37.7,8.6,37.8,9.1,37.9z M10.1,38.8v0.7
					c0.6,0,0.8-0.2,0.8-0.4C10.9,38.9,10.6,38.8,10.1,38.8z"/>
			</g>
		</g>
		<g>
			<path fill="#F8B64C" d="M18.8,37.3c0,2.3-4.2,4.2-9.3,4.2s-9.3-1.9-9.3-4.2v-2.2h18.6V37.3z"/>
			<ellipse fill="#FFD15C" cx="9.5" cy="35.1" rx="9.3" ry="4.2"/>
			<ellipse fill="#F8B64C" cx="9.5" cy="35.1" rx="7.4" ry="3.2"/>
			<g>
				<path fill="#FFD15C" d="M9.1,36.8c-1.1,0-2-0.2-2.6-0.5l0.9-0.6c0.4,0.2,1,0.4,1.7,0.4v-0.8c-1.1-0.1-2.3-0.3-2.3-1
					c0-0.5,0.9-0.9,2.3-1V33h1v0.5c0.9,0,1.6,0.2,2.2,0.4l-0.9,0.5c-0.4-0.2-0.9-0.3-1.4-0.3v0.7c1.1,0.1,2.4,0.3,2.4,1
					c0,0.6-0.8,1-2.4,1.1v0.4h-1V36.8z M9.1,34.6V34c-0.5,0-0.8,0.1-0.8,0.3C8.3,34.5,8.6,34.6,9.1,34.6z M10.1,35.5v0.7
					c0.6,0,0.8-0.2,0.8-0.4C10.9,35.7,10.6,35.6,10.1,35.5z"/>
			</g>
		</g>
		<g>
			<path fill="#F8B64C" d="M18.8,34c0,2.3-4.2,4.2-9.3,4.2S0.2,36.4,0.2,34v-2.2h18.6V34z"/>
			<ellipse fill="#FFD15C" cx="9.5" cy="31.9" rx="9.3" ry="4.2"/>
			<ellipse fill="#F8B64C" cx="9.5" cy="31.9" rx="7.4" ry="3.2"/>
			<g>
				<path fill="#FFD15C" d="M9.1,33.6c-1.1,0-2-0.2-2.6-0.5l0.9-0.6c0.4,0.2,1,0.4,1.7,0.4v-0.8c-1.1-0.1-2.3-0.3-2.3-1
					c0-0.5,0.9-0.9,2.3-1v-0.5h1v0.5c0.9,0,1.6,0.2,2.2,0.4l-0.9,0.5c-0.4-0.2-0.9-0.3-1.4-0.3v0.7c1.1,0.1,2.4,0.3,2.4,1
					c0,0.6-0.8,1-2.4,1.1V34h-1V33.6z M9.1,31.4v-0.6c-0.5,0-0.8,0.1-0.8,0.3C8.3,31.3,8.6,31.3,9.1,31.4z M10.1,32.3v0.7
					c0.6,0,0.8-0.2,0.8-0.4C10.9,32.4,10.6,32.4,10.1,32.3z"/>
			</g>
		</g>
		<g>
			<path fill="#F8B64C" d="M18.8,30.8c0,2.3-4.2,4.2-9.3,4.2s-9.3-1.9-9.3-4.2v-2.2h18.6V30.8z"/>
			<ellipse fill="#FFD15C" cx="9.5" cy="28.6" rx="9.3" ry="4.2"/>
			<ellipse fill="#F8B64C" cx="9.5" cy="28.6" rx="7.4" ry="3.2"/>
			<g>
				<path fill="#FFD15C" d="M9.1,30.3c-1.1,0-2-0.2-2.6-0.5l0.9-0.6c0.4,0.2,1,0.4,1.7,0.4v-0.8c-1.1-0.1-2.3-0.3-2.3-1
					c0-0.5,0.9-0.9,2.3-1v-0.5h1v0.5c0.9,0,1.6,0.2,2.2,0.4l-0.9,0.5c-0.4-0.2-0.9-0.3-1.4-0.3v0.7c1.1,0.1,2.4,0.3,2.4,1
					c0,0.6-0.8,1-2.4,1.1v0.4h-1V30.3z M9.1,28.2v-0.6c-0.5,0-0.8,0.1-0.8,0.3C8.3,28,8.6,28.1,9.1,28.2z M10.1,29v0.7
					c0.6,0,0.8-0.2,0.8-0.4C10.9,29.2,10.6,29.1,10.1,29z"/>
			</g>
		</g>
	</g>
</g>
</svg>
