<?xml version="1.0" encoding="utf-8"?>
<!-- Generator: Adobe Illustrator 18.0.0, SVG Export Plug-In . SVG Version: 6.00 Build 0)  -->
<!DOCTYPE svg PUBLIC "-//W3C//DTD SVG 1.1//EN" "http://www.w3.org/Graphics/SVG/1.1/DTD/svg11.dtd">
<svg version="1.1" id="Layer_1" xmlns="http://www.w3.org/2000/svg" xmlns:xlink="http://www.w3.org/1999/xlink" x="0px" y="0px"
	 viewBox="0 0 48 48" enable-background="new 0 0 48 48" xml:space="preserve">
<g>
	<g>
		<g>
			<g>
				<path fill="#F7B64C" d="M46.2,17.3l-19-16.1c-1.9-1.6-4.6-1.6-6.5,0l-19,16.1c-1.1,1-1.8,2.4-1.8,3.8V43c0,2.8,2.3,5,5,5H43
					c2.8,0,5-2.3,5-5V21.1C48,19.7,47.3,18.2,46.2,17.3z"/>
				<path fill="#CED6E0" d="M46.2,17.3l-19-16.1c-1.9-1.6-4.6-1.6-6.5,0l-19,16.1c-0.6,0.5-1.1,1.1-1.4,1.9l23.6,20l23.6-20
					C47.3,18.4,46.8,17.8,46.2,17.3z"/>
			</g>
			<path fill="#F3705A" d="M40.6,3.1H7.4c-1.7,0-3,1.3-3,3v16.4L24,39.2l19.6-16.7V6.1C43.6,4.4,42.3,3.1,40.6,3.1z"/>
			<polygon fill="#FFFFFF" points="24,39.2 39.6,25.9 39.6,11.7 8.4,11.7 8.4,25.9 			"/>
			<rect x="12.4" y="15.7" fill="#E8EAE9" width="23.3" height="2"/>
			<rect x="12.4" y="21.1" fill="#E8EAE9" width="23.3" height="2"/>
			<rect x="12.4" y="26.6" fill="#E8EAE9" width="12.5" height="2"/>
			<g>
				<g>
					<circle fill="#FFFFFF" cx="10.6" cy="7.4" r="1.7"/>
				</g>
				<g>
					<circle fill="#FFFFFF" cx="15.9" cy="7.4" r="1.7"/>
				</g>
				<g>
					<circle fill="#FFFFFF" cx="21.1" cy="7.4" r="1.7"/>
				</g>
			</g>
		</g>
	</g>
	<path fill="#FFD15C" d="M1.6,46.6C2.5,47.5,3.7,48,5,48H43c1.3,0,2.5-0.5,3.4-1.4L28.5,31.4c-2.6-2.2-6.4-2.2-9,0L1.6,46.6z"/>
</g>
</svg>
