<?xml version="1.0" encoding="utf-8"?>
<!-- Generator: Adobe Illustrator 18.0.0, SVG Export Plug-In . SVG Version: 6.00 Build 0)  -->
<!DOCTYPE svg PUBLIC "-//W3C//DTD SVG 1.1//EN" "http://www.w3.org/Graphics/SVG/1.1/DTD/svg11.dtd">
<svg version="1.1" id="Layer_1" xmlns="http://www.w3.org/2000/svg" xmlns:xlink="http://www.w3.org/1999/xlink" x="0px" y="0px"
	 viewBox="0 0 48 48" enable-background="new 0 0 48 48" xml:space="preserve">
<g>
	<path fill="#F3705A" d="M46.6,12.3l-21.1-12c-0.9-0.5-1.9-0.5-2.8,0l-21.2,12c-1.4,0.8-1.8,2.5-1.1,3.9c0.8,1.4,2.5,1.8,3.9,1.1
		L24,6.1l19.7,11.2c1.4,0.8,3.1,0.3,3.9-1.1v0C48.4,14.9,47.9,13.1,46.6,12.3z"/>
	<polygon fill="#F3F3F3" points="43.8,17.3 24,6.1 4.2,17.3 4.2,48 43.8,48 43.8,17.3 	"/>
	<g>
		<g>
			<path fill="#66C6B9" d="M22.4,37.1c6-1,16.1-10.1,16.2-14.4C25.9,21.2,20.5,26.1,22.4,37.1z"/>
			<g>
				<path fill="#4EC0AA" d="M20.3,42.8c1.3-7.8,6.4-14.5,13.5-18.2C27,28.5,22.1,35.5,20.9,43.8C20.7,43.5,20.5,43.1,20.3,42.8z"/>
				<g>
					<g>
						<path fill="#4EC0AA" d="M24.7,32.4c1.7-0.7,3.6-1.3,5.8-1.9c-2.1,0.8-4,1.6-5.6,2.5C24.8,32.8,24.8,32.6,24.7,32.4z"/>
					</g>
					<g>
						<path fill="#4EC0AA" d="M26.8,30.6c0.4-2,0.8-3.7,1.2-5.3c-0.6,1.6-1.2,3.3-1.7,5.3C26.4,30.6,26.6,30.6,26.8,30.6z"/>
					</g>
					<g>
						<path fill="#4EC0AA" d="M29.2,27.9c-0.2,0.2-0.4,0.4-0.6,0.6c1.7-0.6,3.6-1.1,5.6-1.5C32.3,27.2,30.7,27.5,29.2,27.9z"/>
					</g>
				</g>
			</g>
		</g>
		<g>
			<path fill="#66C6B9" d="M20.3,40.7C15.7,39.1,9,30.7,9.4,27.3C19.6,27.7,23.2,32.2,20.3,40.7z"/>
			<g>
				<path fill="#4EC0AA" d="M21,42c-0.9-5-3.8-9.6-8-12.7c3.9,3.1,6.6,7.7,7.4,12.9L21,42z"/>
				<g>
					<g>
						<path fill="#4EC0AA" d="M19.1,36.6c-1.3-0.7-2.7-1.5-4.3-2.2c1.5,0.9,2.9,1.8,4.1,2.7C19,36.9,19,36.8,19.1,36.6z"/>
					</g>
					<g>
						<path fill="#4EC0AA" d="M17.7,35c0-1.6-0.1-3-0.3-4.3c0.3,1.3,0.5,2.8,0.7,4.4C18,35,17.9,35,17.7,35z"/>
					</g>
					<g>
						<path fill="#4EC0AA" d="M16.2,32.5c0.1,0.2,0.3,0.4,0.4,0.5c-1.3-0.7-2.7-1.3-4.2-1.9C13.8,31.6,15,32,16.2,32.5z"/>
					</g>
				</g>
			</g>
		</g>
	</g>
</g>
</svg>
