<?xml version="1.0" encoding="utf-8"?>
<!-- Generator: Adobe Illustrator 18.0.0, SVG Export Plug-In . SVG Version: 6.00 Build 0)  -->
<!DOCTYPE svg PUBLIC "-//W3C//DTD SVG 1.1//EN" "http://www.w3.org/Graphics/SVG/1.1/DTD/svg11.dtd">
<svg version="1.1" id="Layer_1" xmlns="http://www.w3.org/2000/svg" xmlns:xlink="http://www.w3.org/1999/xlink" x="0px" y="0px"
	 viewBox="0 0 48 48" enable-background="new 0 0 48 48" xml:space="preserve">
<g>
	<g>
		<path fill="#E8EAE8" d="M17.3,47.2c-0.2,0.2-0.5,0.3-0.7,0.4c-0.3,0-0.6,0-0.8-0.1c-3.1-0.5-6.2-0.6-9.4-0.3l0,0
			c0-0.4,0.3-0.9,0.7-1c0.4-0.2,0.9-0.2,1.3-0.2c1.7,0,3.5,0.1,5.2,0.1c1,0,1.9,0,2.9,0.1c0.3,0,0.7,0,0.9,0.3
			C17.5,46.6,17.5,47,17.3,47.2z"/>
	</g>
	<g>
		<g>
			<path fill="#ACB2BA" d="M17.6,45.9c-0.4-0.3-0.9-0.3-1.3-0.3c-2.8,0-5.7,0.4-8.5,0c-0.4-0.1-0.8-0.1-1.2,0
				c-0.4,0.1-0.7,0.5-0.9,0.8c-0.2,0.4-0.2,0.8-0.2,1.2l0.1,0.1c3.4-0.2,6.9-0.2,10.3,0.2c0.5,0.1,1.1,0.1,1.5-0.2
				c0.3-0.2,0.5-0.6,0.5-0.9C18.1,46.5,17.9,46.1,17.6,45.9z M17.1,47.2c-0.2,0.2-0.4,0.2-0.7,0.2c-0.2,0-0.5-0.1-0.7-0.1
				c-0.5-0.1-1-0.1-1.5-0.2C13,47,11.7,47,10.5,46.9c-1.4,0-2.7,0-4.1,0.2l0,0c0-0.4,0.3-0.7,0.7-0.9c0.4-0.2,0.8-0.2,1.1-0.2
				c2.8-0.1,5.6,0,8.3,0.2c0.3,0,0.6,0.1,0.7,0.3C17.4,46.7,17.3,47,17.1,47.2z"/>
		</g>
	</g>
	<g>
		<g>
			<polygon fill="#425A6B" points="22.5,27.6 22.9,28 13.6,43.5 13.1,43.2 			"/>
		</g>
	</g>
	<g>
		<ellipse fill="#F5B54C" cx="23.8" cy="26.3" rx="0.5" ry="0.6"/>
	</g>
	<g>
		<path fill="#FFD15C" d="M24,25.4l-0.8-0.2C23.1,25,23,24.6,23,24.1c0-0.4,0.2-0.9,0.5-2.1c0.3-1.2,0.3-2.8,0.2-3.4
			c0-0.6,0.1-1.4,0.2-1.9c0.1-0.5,0.2-2.1,0.2-2.1s-2-0.9-2.4-0.1c-0.4,0.8-0.3,2.1-0.3,2.8s0,1.3-0.1,1.6c-0.1,0.3-0.2,2.7-0.2,3
			c0,0.4,0.4,1.8,0.4,2.4c0,0.6,0,1.2,0,1.4c0,0.2,0.1,1.4,0.1,1.4s0,0.1,0,0.2c0,0.1,0.7,0.8,0.7,0.8s0.2,0.1,0.5,0.1
			c0.3,0,0.2-0.3,0.2-0.3s0.1,0,0.2,0c0.2-0.1,0.2-0.2,0.2-0.2s0.1,0.1,0.3-0.1c0.1-0.2,0.1-0.3,0.1-0.3c0.1,0,0.1,0,0.2-0.1
			c0.1,0.3,0.3,0.3,0.3,0.3l0.1-0.5l0.2-0.2c0.1-0.1,0.1-0.2,0.1-0.3l-0.2-0.8C24.4,25.6,24.2,25.5,24,25.4z M24,26.7l-0.2-0.2
			c-0.6-0.3-0.3-0.7-0.3-0.7l0.4,0.5L24,26.7C24,26.6,24,26.7,24,26.7z"/>
	</g>
	<g>
		<g>
			<path fill="#344A5E" d="M42,46.1c0,0,0.3,0,0.3-0.1c0,0,0.1-0.1,0.1-0.1s0-0.2-0.1-0.4c-0.1-0.2-0.3-0.6-0.4-0.8
				c-0.1-0.2-0.3-0.5-0.4-1.1c-0.1-0.6,0.1-1.8-0.5-1.9c-0.6-0.1-0.6-0.1-0.6-0.1l-1.4,0.7c0,0-0.2,0.9-0.2,1.3c0,0.3,0,0.5,0,0.5
				s0.5,0.7,0.5,1c0,0.2,0,0.4,0.2,0.7C39.7,46.1,41.6,46.6,42,46.1z"/>
		</g>
		<g>
			<path fill="#425A6B" d="M42.4,46c0.1,0.3,0,0.5-0.2,0.7c-0.2,0.1-1.7,0.2-2.2,0c-0.5-0.2-0.6-0.7-0.6-1c0-0.3,0-0.5-0.1-0.6
				l0,0.2c0,0-0.5-0.3-0.5-0.6c0-0.4,0-0.7,0.1-1c0,0,0.1,0.4,0.3,0.7c0.2,0.3,0.2,0.8,0.3,1.1c0.1,0.2,0.3,0.5,0.9,0.6
				C41,46.2,42.2,46.1,42.4,46z"/>
		</g>
	</g>
	<g>
		<path fill="#344A5E" d="M26.7,46.8c0,0-1.2-0.3-1.2-0.5c0-0.2-0.1-0.6,0.2-0.8c0.3-0.1,1.2-0.5,1.4-0.7c0.2-0.2,0.8-0.9,0.9-1.4
			c0.2-0.5,0.3-0.8,0.3-0.8l2.6-0.5c0,0,0.3,1.4,0.4,1.8c0,0.4-0.2,1-0.2,1l-1.3,0.5c0,0-0.4,0.5-0.7,0.8c-0.2,0.3-0.4,0.4-1,0.5
			S26.7,46.8,26.7,46.8z"/>
	</g>
	<g>
		<path fill="#FFD15C" d="M20.9,3.6l0.6,1.5c0,0,0.3,0.1,0.3,0.4c0.1,0.3,0.8,1,1.1,1.3c0.3,0.3,0.7,0.5,0.8,0.8
			c0.1,0.3,0.6,0.2,0.6,0.2l1.1,1.8l2.2,0.9l1-3.6l-0.7-1.2c0,0-0.9,0-1.4-0.7s-0.6-2.4-0.6-2.4l-2.9-0.9l-2.3,0.6L20.9,3.6z"/>
	</g>
	<g>
		<path fill="#425A6B" d="M21.1,4.4c0,0-0.2-0.9-0.2-0.9c0,0,0.8,0.1,1.4-0.7c0.1-0.1,0.2-0.2,0.2-0.2c0.3-0.2,0.5,0,0.5,0.1
			C23.2,2.9,23.9,3,24.1,3c0.2,0,1,0.5,1.2,1.1l0.2,0c0,0-0.3-0.7-0.3-1c0-0.3,0.4-2,0.4-2s-1.2-1.5-2.7-0.9
			c-1.5,0.6-1.8,0.9-2.3,1.6c0,0,0,0,0,0c-0.4,0.6-0.4,1.4,0.1,1.9c0.1,0.1,0.1,0.2,0.2,0.3C21.1,4.3,21.1,4.4,21.1,4.4z"/>
	</g>
	<g>
		<path fill="#425A6B" d="M24.5,0.7L25.5,1c0,0,0.7,0.9,0.4,2.1c-0.1,0.8-0.3,1.1-0.8,0.2l-1.6-2.6L24.5,0.7z"/>
	</g>
	<g>
		<path fill="#FFD15C" d="M26.3,3.5c0.1,0.5-0.1,0.9-0.4,0.9S25.3,4,25.2,3.5c-0.1-0.5,0.1-0.9,0.4-0.9C25.9,2.6,26.2,3,26.3,3.5z"
			/>
	</g>
	<path fill="#F5B54C" d="M26,4.9c0,0,0.1,0.6-0.4,1.7c-0.5,1.1-1.3,1.3-1.3,1.3L24.9,9c0.1-0.2,0.2-0.3,0.3-0.5
		C26.2,6.8,26,4.9,26,4.9z"/>
	<g>
		<path fill="#E8EAE8" d="M24.5,8.3c0,0,1,1.7,2,1.5c1.1-0.2,1.4-1.6,1.4-2.4c0-0.8-0.4-1.7-0.4-1.7s0.8,0.1,1.3,0.1
			C29.2,5.8,31.6,6,32,6s1.3,0.2,1.8,0.8c0.5,0.6,1.5,1.6,2.1,1.9c0.6,0.4,0.6,0.4,0.6,0.4s-0.8,2-2.4,2.6c0,0,0.6,2.5,1.1,3.3
			s0.4,1.8,0.4,1.8l-0.7,1.1l-9.6-3c0,0-0.9-0.3-1.1-0.5l0.1,0.7c0,0-1.8,0.4-2.8-0.2c0,0-0.1-2.3,0.2-3.2c0.3-0.9,0.7-1.8,1-2.1
			C23.1,9.1,24.3,8,24.3,8L24.5,8.3z"/>
	</g>
	<g>
		<path fill="#67C5B8" d="M29.4,5.8c0,0,0.1,0.9,0.2,1.9c0.2,1,1.1,5.2,1.1,5.2h0.6c0,0,4.2,5.6,4.3,3.5c0,0,0.3,1.8,0.8,3.1
			c0.5,1.2,0.8,1.1,0.9,2.3c0.1,1.2,0,1.3,0.3,1.7c0.2,0.4,1.5,5.4,1.7,6.6c0.1,1.2,0.6,3,0.7,3.9c0.2,0.9,1.4,8,1.4,8
			s-1.4,1.9-3.6-0.3c0,0-0.9-3-1-3.5c-0.1-0.5-1.3-3.9-1.7-4.7c-0.3-0.8-1.8-4.7-2.4-6c-0.6-1.3-1.1-1.9-1.1-1.9s-0.8,4.7-1.1,5.4
			c-0.3,0.7-0.5,1.1-0.5,1.1s-0.1,4.1,0.2,5.5c0.3,1.4,0.8,4.6,0.8,4.6s-0.7,0.6-1.1,1c-0.4,0.4-1.6,0.9-2.1,0.1c0,0,0-1-0.2-1.5
			c-0.2-0.5-0.7-2.5-0.9-3.5c-0.2-0.9-0.5-2.7-0.5-2.7s-0.7-2.3-0.5-4.1c0.2-1.8,0.1-3.3,0.1-3.6c0-0.3,0.2-2.9,0.4-3.7
			c0.2-0.8,0.2-1,0.3-1.2c0-0.2,0.2-0.9,0.3-1.2c0.1-0.3,0-0.8,0.1-1.3c0.1-0.5-0.2-2.1-0.2-2.5c0,0,0,0,0-0.1c0-0.1-1.2-0.6-1.3-1
			C25.2,16.8,25,16,25,15.4c-0.1-0.6-0.2-0.9-0.2-0.9l0.4-0.2c0,0-0.8-2.3-1-3.5c-0.2-1.1-0.3-2.2-0.3-2.6L24.3,8l0.1,0.1
			c0,0,0.6,2.7,0.8,3.2c0.2,0.5,1,2.8,1,2.8s1.7,0.1,2,0c0.2-0.1,1.6-0.7,1.6-0.7s-0.6-2.1-0.7-2.7c-0.1-0.6-0.7-4.2-0.7-4.9
			L29.4,5.8z"/>
	</g>
	<path fill="#425A6B" d="M31.8,26.6"/>
	<g>
		<path fill="#48B9A5" d="M31.3,25.2c-0.2-0.1-2.3-0.3-2.6-0.3c-0.3,0-0.8,0-0.1,0.1c0.7,0.1,1.8,0.1,1.8,0.1s-1.6,0.4-2.2,0.5
			c-0.6,0.1-1.3,0.4-0.6,0.2s2.7-0.6,3-0.7c0.2-0.1,0.4,0.1,0.3,0.2c-0.1,0.1-1.7,0.6-2.5,0.7c-0.8,0-1.4,0.2-0.3,0.2
			c1.1,0,2.9-0.5,3.1-0.7c0.2-0.2-0.4,1-0.8,1.5c-0.5,0.4-2.4,2.2-2.1,2.1c0.3-0.1,2.2-1.9,2.6-2.3c0.4-0.5,0.6-0.8,0.6-0.8
			s-0.2,1.4-0.3,1.9c0.2-1.2,0.4-2.2,0.4-2.2S31.5,25.3,31.3,25.2z"/>
	</g>
	<g>
		<path fill="#425A6B" d="M25.5,46.3c0,0,0.7,0.3,1.3,0.3c0.6,0,1.6-0.1,1.9-0.3c0.3-0.3,0.7-1,1.2-1.2c0.5-0.2,1.3-0.5,1.3-1
			c0,0,0,0,0-0.1c-0.1-0.6,0.4,1.1,0,1.5c-0.4,0.4-0.9,0.5-1,0.4c-0.1-0.1-0.5-0.3-0.8,0c-0.3,0.3-0.2,0.3-0.4,0.5
			c-0.2,0.2-1.1,0.8-2.6,0.6C26.5,47.1,25.4,47,25.5,46.3z"/>
	</g>
	<path fill="#425A6B" d="M30.5,15.5l-6.7,11c-0.4-0.2-0.4-0.5-0.3-0.6l0.1-0.1L30,15.2L30.5,15.5z"/>
	<g>
		<g>
			<rect x="29.2" y="15.5" transform="matrix(0.52 -0.8541 0.8541 0.52 0.77 33.2075)" fill="#F26F5A" width="1.5" height="0.8"/>
		</g>
	</g>
	<g>
		<g>
			<g>
				<path fill="#FFD15C" d="M39.4,12.7c-0.1-0.9-1.1-1.8-1.3-2c-0.1-0.2-0.9-1.3-1.6-1.6c-0.1,0.3-0.9,1.9-2.3,2.5
					c0.2,0.2,0.9,0.5,1.7,0.6c0,0-0.3,0.4-0.7,0.6c-0.1,0.1-0.4,0.2-0.7,0.3c-0.9,0.3-2.3,0.6-2.3,0.6l-0.3-0.8
					c-0.1-0.2-0.2-0.3-0.4-0.3l-0.7,0c-0.1,0-0.2,0.1-0.3,0.2l-0.2,0.3L30,13.4c0,0,0.1,0.1,0.2,0.1c0,0-0.3,0-0.4,0.2
					c0,0.2,0,0.2,0.1,0.2c-0.1,0-0.3-0.1-0.3,0.1c-0.1,0.3,0.1,0.3,0.1,0.3s-0.1,0-0.2,0.2s0.1,0.3,0.1,0.3s-0.1,0-0.2,0.1
					c0,0.1,0.1,0.3,0.2,0.4c0.1,0.1,0.9,0.4,0.9,0.4s0.4,0.2,0.8,0.2c0.3-0.1,0.5-0.3,0.8-0.4c0.3-0.1,1.1-0.3,1.7-0.3
					c0.2,0,0.8-0.1,1.5-0.2c1-0.2,2.1-0.5,2.9-0.9C39.5,13.4,39.5,13.6,39.4,12.7z M30.4,13.5c0.2,0,0.4-0.1,0.5-0.3
					c0,0,0.1,0.2,0.3,0.3L30.4,13.5z"/>
			</g>
			<g>
				<path fill="#FFD15C" d="M30.4,13.5c-0.1,0-0.2,0-0.2,0L30.4,13.5z"/>
			</g>
		</g>
		<g>
			<g>
				<path fill="#F5B54C" d="M29.9,14c0,0,0.1,0,0.1,0c0.1,0,0.2,0,0.3,0.1c0.1,0,0.2,0.1,0.3,0.1c0,0,0.1,0,0.1,0c0,0,0,0,0,0
					s0,0,0,0c0,0,0,0,0,0c0,0-0.1,0-0.1,0c-0.1,0-0.2,0-0.3-0.1c-0.1,0-0.2-0.1-0.3-0.1C30,14,30,14,29.9,14C30,14,29.9,14,29.9,14z
					"/>
			</g>
			<g>
				<g>
					<path fill="#F5B54C" d="M29.7,14.4C29.7,14.4,29.7,14.4,29.7,14.4c0.1,0,0.1,0,0.1,0c0.1,0,0.2,0.1,0.3,0.1
						c0.1,0,0.2,0.1,0.3,0.1c0,0,0.1,0,0.1,0c0,0,0,0,0,0s0,0,0,0c0,0-0.1,0-0.1,0c-0.1,0-0.2-0.1-0.3-0.1c-0.1,0-0.2-0.1-0.3-0.1
						C29.8,14.5,29.8,14.5,29.7,14.4C29.7,14.4,29.7,14.4,29.7,14.4z"/>
				</g>
				<g>
					<path fill="#F5B54C" d="M29.6,14.9C29.6,14.9,29.6,14.9,29.6,14.9c0.1,0,0.1,0,0.2,0c0,0,0.1,0,0.2,0.1c0.1,0,0.1,0,0.2,0.1
						c0.1,0,0.1,0,0.2,0.1c0.1,0,0.1,0,0.2,0.1c0,0,0.1,0,0.1,0c0,0,0,0,0,0s0,0,0,0c0,0-0.1,0-0.1,0c0,0-0.1,0-0.2-0.1
						c-0.1,0-0.1,0-0.2-0.1c-0.1,0-0.1,0-0.2-0.1c-0.1,0-0.1,0-0.2-0.1S29.7,15,29.6,14.9C29.6,14.9,29.6,14.9,29.6,14.9z"/>
				</g>
			</g>
		</g>
	</g>
	<g>
		<g>
			<path fill="#F5B54C" d="M23.8,27.4C23.8,27.4,23.8,27.4,23.8,27.4L23.8,27.4c-0.1-0.1-0.1-0.1-0.2-0.1l-0.1-0.1
				c-0.1,0-0.2-0.1-0.2-0.2c-0.1-0.1-0.1-0.1-0.2-0.2c0,0-0.1-0.1-0.1-0.1c0,0,0,0,0,0c0,0,0,0,0-0.1c0,0,0,0,0.1,0c0,0,0,0,0.1,0
				c0,0,0.1,0.1,0.1,0.1l0.2,0.2l0.2,0.2l0.1,0.1C23.7,27.3,23.8,27.3,23.8,27.4L23.8,27.4L23.8,27.4C23.8,27.4,23.8,27.4,23.8,27.4
				z"/>
		</g>
		<g>
			<path fill="#F5B54C" d="M23.4,27.8C23.4,27.8,23.4,27.8,23.4,27.8c-0.1,0-0.1-0.1-0.1-0.1c0,0-0.1-0.1-0.1-0.1
				c-0.1,0-0.1-0.1-0.2-0.1c-0.1,0-0.1-0.1-0.2-0.1c-0.1,0-0.1-0.1-0.1-0.1c0,0-0.1-0.1-0.1-0.1c0,0,0,0,0,0s0,0,0,0
				c0,0,0.1,0,0.1,0.1c0,0,0.1,0.1,0.1,0.1c0.1,0,0.1,0.1,0.2,0.1c0.1,0,0.1,0.1,0.2,0.1c0.1,0,0.1,0.1,0.1,0.1S23.4,27.7,23.4,27.8
				C23.4,27.8,23.4,27.8,23.4,27.8z"/>
		</g>
		<g>
			<path fill="#F5B54C" d="M23,28.1C23,28.1,23,28.1,23,28.1c-0.1,0-0.1,0-0.1-0.1c0,0-0.1,0-0.1-0.1c-0.1,0-0.1-0.1-0.2-0.1
				c0,0-0.1,0-0.1-0.1c0,0,0,0-0.1-0.1c0,0,0,0-0.1-0.1c0,0,0,0-0.1-0.1c0,0,0,0,0,0c0,0,0,0,0,0c0,0,0,0,0,0s0,0,0,0c0,0,0,0,0,0
				c0,0,0,0,0,0c0,0,0.1,0.1,0.1,0.1c0,0,0,0,0.1,0.1c0,0,0.1,0,0.1,0.1c0.1,0,0.1,0.1,0.2,0.1c0,0,0.1,0.1,0.1,0.1
				C22.9,28,23,28.1,23,28.1z"/>
		</g>
	</g>
	<path fill="#F5B54C" d="M24,27.3C24,27.2,24,27.2,24,27.3c0-0.1,0-0.1,0-0.1c0,0,0-0.1,0-0.1c0,0,0-0.1,0-0.1c0,0,0-0.1,0-0.1
		c0,0,0-0.1,0-0.1c0,0,0,0,0-0.1c0,0,0,0,0-0.1c0,0,0,0,0,0l0,0c0,0,0,0,0,0c0,0,0,0.1,0,0.1c0,0,0,0.1,0,0.1c0,0,0,0.1,0,0.1
		c0,0,0,0.1,0,0.1c0,0,0,0.1,0,0.1C23.9,27.2,24,27.2,24,27.3C24,27.2,24,27.3,24,27.3C24,27.3,24,27.3,24,27.3
		C24,27.3,24,27.3,24,27.3C24,27.3,24,27.3,24,27.3C24,27.3,24,27.3,24,27.3z"/>
	<g>
		<path fill="#F26F5A" d="M14.7,42.1l-2.2,3.5L12,46.3L11.4,46l0,0c0.2-0.6,0.5-1.1,0.8-1.6l1.7-2.7L14.7,42.1z"/>
	</g>
	<g>
		<path fill="#425A6B" d="M12.4,46.7c-0.6,0.1-1.3,0.1-1.8,0c0.1,0,0.3-0.2,0.5-0.4c0.1-0.1,0.3-0.3,0.3-0.4
			c0.1-0.1,0.2-0.2,0.4-0.2c0.2,0,0.3,0.2,0.4,0.4c0,0.1,0,0.1,0,0.2c0,0.1,0,0.3,0.1,0.4C12.3,46.7,12.4,46.7,12.4,46.7z"/>
	</g>
</g>
</svg>
