<?xml version="1.0" encoding="utf-8"?>
<!-- Generator: Adobe Illustrator 19.0.1, SVG Export Plug-In . SVG Version: 6.00 Build 0)  -->
<svg version="1.1" id="Layer_1" xmlns="http://www.w3.org/2000/svg" xmlns:xlink="http://www.w3.org/1999/xlink" x="0px" y="0px"
	 viewBox="0 0 48 48" style="enable-background:new 0 0 48 48;" xml:space="preserve">
<style type="text/css">
	.st0{fill:#FFD15C;}
	.st1{fill:#415A6B;}
	.st2{fill:#F7B64C;}
	.st3{fill:#CED6E0;}
	.st4{fill:#344A5E;}
	.st5{fill:#F3F3F3;}
	.st6{fill:#F05540;}
	.st7{fill:#F3705A;}
	.st8{fill:#66C6B9;}
	.st9{fill:#55C0EB;}
	.st10{fill:#F5F6FB;}
	.st11{fill:#4ABAA5;}
	.st12{fill:#ADB3BA;}
	.st13{fill:#E8EAE9;}
	.st14{fill:#2E4556;}
	.st15{fill:#8AD7F8;}
	.st16{fill:#FFFFFF;}
	.st17{fill:#E54838;}
	.st18{fill:#3EAF99;}
	.st19{fill:#EFA943;}
	.st20{fill:#4CAEE5;}
	.st21{fill:#293F4F;}
	.st22{fill:#2D4456;}
	.st23{fill:#2E4454;}
	.st24{fill:#2A3F4F;}
	.st25{fill:#2D4151;}
	.st26{fill:#E89E3D;}
	.st27{fill:#2B4151;}
	.st28{fill:#2A4051;}
	.st29{fill:#2C4151;}
	.st30{fill:#EBEAE8;}
	.st31{fill:#3AA590;}
	.st32{fill:#E84534;}
	.st33{fill:none;}
</style>
<g>
	<g>
		<path class="st7" d="M25.2,45.6c-12.6,0-22.8-10.2-22.8-22.8S12.6,0,25.2,0S48,10.2,48,22.8S37.8,45.6,25.2,45.6z"/>
		<path class="st5" d="M25.2,40.7c-9.9,0-17.9-8-17.9-17.9c0-9.9,8-17.9,17.9-17.9s17.9,8,17.9,17.9C43.1,32.7,35.1,40.7,25.2,40.7z
			"/>
		<path class="st7" d="M25.2,35.9c-7.2,0-13.1-5.9-13.1-13.1S18,9.7,25.2,9.7s13.1,5.9,13.1,13.1S32.4,35.9,25.2,35.9z"/>
		<path class="st5" d="M25.2,31c-4.5,0-8.2-3.7-8.2-8.2c0-4.5,3.7-8.2,8.2-8.2s8.2,3.7,8.2,8.2C33.4,27.3,29.7,31,25.2,31z"/>
		<circle class="st7" cx="25.2" cy="22.8" r="3.4"/>
	</g>
	<g>
		<g>
			<g>
				<path class="st0" d="M11.6,23.4c0,0,0.3,2,0.6,2.5l0.2,7.3l5.6,3.2l4.5-3.4c0,0-0.3-2.8,0-4.2c0.4-1.4,1.2-2,1.3-4.5
					c0.2-2.5,0.6-7.3,0.2-9.1c-0.4-1.8-3.3-3.2-6.2-2.9c-2.9,0.2-6,0.1-6.4,1.4S11.6,23.4,11.6,23.4z"/>
			</g>
			<g>
				
					<ellipse transform="matrix(-0.996 8.908782e-002 -8.908782e-002 -0.996 24.5348 43.5511)" class="st0" cx="11.3" cy="22.3" rx="1.2" ry="2.3"/>
			</g>
			<g>
				
					<ellipse transform="matrix(0.9981 6.235763e-002 -6.235763e-002 0.9981 1.4867 -1.4282)" class="st0" cx="23.6" cy="23.1" rx="1.2" ry="2.3"/>
			</g>
			<g>
				<path class="st1" d="M12.3,23l-0.3,0c0,0-1.3-2.7-1.4-4c-0.1-1.3-1.3-8.7,4-8.2c0,0,0.6-4,6-2.4s5.4,7.8,5.2,9.1
					c-0.3,1-1.6,5-1.9,6.1l-0.3,0c0.1-0.3,0.2-1.4,0.2-2.2c-0.1-0.9-0.1-2.6,0-3.8c0-1.2-0.4-3-1-3.1c-0.6-0.1-4.3,0.1-6.2-0.4
					c-1.9-0.5-3.4,1.2-3.4,2.4c0,1.2-0.2,2.2-0.5,3.5C12.5,21.3,12.4,22.7,12.3,23z"/>
			</g>
			<path class="st2" d="M18.1,31.2c3.1-0.3,4.4-2.7,4.4-2.7l0,0c0,0,0,0.1,0,0.1c-1.2,3.7-6,4.9-9.2,5.2l-1-0.6l-0.2-7.3
				C12.6,27.4,15,31.6,18.1,31.2z"/>
			<g>
				<path class="st15" d="M34,48v-6.2c0-3-1.8-5.7-4.5-6.9c-3.3-1.5-7.2-3-7.2-3l-3.8,2.9l-1.3,0.1l-4.3-0.5l-1.5-3.1
					c0,0-3.7,1.7-6.9,3.1C1.7,35.6,0,38.3,0,41.3V48H34z"/>
			</g>
		</g>
		<g>
			<g>
				<path class="st1" d="M19.3,34.6l-0.8,0.1l-1.3,0.1l-2.5,0.7c0.8,0.8,1.5,1.6,2,2.4l2,0.2c0.4-0.9,1-1.6,1.9-2.2L19.3,34.6z"/>
			</g>
			<path class="st1" d="M15.9,48h5.8c-0.1-0.6-0.2-1.1-0.3-1.5c-1-3.5-2.7-6.8-2.6-8.3c0.1-1.5-1.6-1.7-1.6-1.7L16.8,38
				c0,0-1.4,4.9-1,7.6C15.9,46,15.9,46.9,15.9,48z"/>
		</g>
		<g>
			<path class="st5" d="M12.2,29.3c0,0,1.5,4.2,5,5.5c0,0-2.5,2.8-3.7,5c0,0-1.7-3.5-2.2-4.6c-0.5-1-1.1-2.3-0.4-3.9
				C11.6,29.9,12.2,29.3,12.2,29.3z"/>
		</g>
		<g>
			<path class="st5" d="M22.3,30.7c0,0-1.5,2.3-3.8,4c0,0,1.4,1.1,2.5,3c1.1,1.9,1.1,1.9,1.1,1.9s1.2-4.1,1.2-5.1
				C23.3,33.6,22.3,30.7,22.3,30.7z"/>
		</g>
	</g>
</g>
</svg>
