<?xml version="1.0" encoding="utf-8"?>
<!-- Generator: Adobe Illustrator 19.0.1, SVG Export Plug-In . SVG Version: 6.00 Build 0)  -->
<svg version="1.1" id="Layer_1" xmlns="http://www.w3.org/2000/svg" xmlns:xlink="http://www.w3.org/1999/xlink" x="0px" y="0px"
	 viewBox="0 0 48 48" style="enable-background:new 0 0 48 48;" xml:space="preserve">
<style type="text/css">
	.st0{fill:#FFD15C;}
	.st1{fill:#415A6B;}
	.st2{fill:#F7B64C;}
	.st3{fill:#CED6E0;}
	.st4{fill:#344A5E;}
	.st5{fill:#F3F3F3;}
	.st6{fill:#F05540;}
	.st7{fill:#F3705A;}
	.st8{fill:#66C6B9;}
	.st9{fill:#55C0EB;}
	.st10{fill:#F5F6FB;}
	.st11{fill:#4ABAA5;}
	.st12{fill:#ADB3BA;}
	.st13{fill:#E8EAE9;}
	.st14{fill:#2E4556;}
	.st15{fill:#8AD7F8;}
	.st16{fill:#FFFFFF;}
	.st17{fill:#E54838;}
	.st18{fill:#3EAF99;}
	.st19{fill:#EFA943;}
	.st20{fill:#4CAEE5;}
	.st21{fill:#293F4F;}
	.st22{fill:#2D4456;}
	.st23{fill:#2E4454;}
	.st24{fill:#2A3F4F;}
	.st25{fill:#2D4151;}
	.st26{fill:#E89E3D;}
	.st27{fill:#2B4151;}
	.st28{fill:#2A4051;}
	.st29{fill:#2C4151;}
	.st30{fill:#EBEAE8;}
	.st31{fill:#3AA590;}
	.st32{fill:#E84534;}
	.st33{fill:none;}
</style>
<g>
	<g>
		<g>
			<g>
				<path class="st4" d="M22,40.2v-8.4h-1.5v8.4c-1,0.3-1.7,1.3-1.7,2.4c0,1.4,1.1,2.5,2.5,2.5c1.4,0,2.5-1.1,2.5-2.5
					C23.7,41.5,23,40.5,22,40.2z M21.2,43.6c-0.5,0-1-0.4-1-1c0-0.6,0.4-1,1-1c0.6,0,1,0.4,1,1C22.2,43.1,21.8,43.6,21.2,43.6z"/>
			</g>
		</g>
	</g>
	<g>
		<g>
			<rect x="2.2" y="2.3" class="st5" width="38" height="28.9"/>
		</g>
		<g>
			<path class="st1" d="M40.1,29.9H2.3c-1.3,0-2.3,1-2.3,2.3l0,0c0,1.3,1,2.3,2.3,2.3h37.8c1.3,0,2.3-1,2.3-2.3l0,0
				C42.4,30.9,41.4,29.9,40.1,29.9z"/>
			<path class="st1" d="M2.3,4.6h37.8c1.3,0,2.3-1,2.3-2.3S41.4,0,40.1,0H2.3C1,0,0,1,0,2.3S1,4.6,2.3,4.6z"/>
		</g>
	</g>
	<g>
		<path class="st0" d="M17.8,16.7c-2.5-2.5-6.6-2.5-9.1,0l4.6,4.6L17.8,16.7z"/>
		<path class="st7" d="M6.8,21.2c0,1.7,0.6,3.3,1.9,4.6c2.5,2.5,6.6,2.5,9.1,0l-4.6-4.6L6.8,21.2z"/>
		<path class="st8" d="M13.2,21.2l-4.6-4.6c-1.3,1.3-1.9,2.9-1.9,4.6L13.2,21.2z"/>
		<path class="st1" d="M17.8,25.8c2.5-2.5,2.5-6.6,0-9.1l-4.6,4.6L17.8,25.8z"/>
	</g>
	<g>
		<g>
			<path class="st0" d="M45.9,44.6c0,0-1,2.5-1.2,2.8c-0.2,0.3-0.2,0.3-0.2,0.3l-1.7-3.6l2.3-0.5L45.9,44.6z"/>
		</g>
		<g>
			<path class="st8" d="M44.9,48c0.1-0.4,0-1.4-0.4-2.7c-0.5-1.4-1.5-7.4-1.5-7.4s-11.4-1.3-12.5,1.2c-1,2.2-1.6,7.6-1.7,8.9H44.9z"
				/>
		</g>
		<g>
			<g>
				<path class="st0" d="M34.2,18.8V18c0,0-0.9-1.3-1.1-2.5s-0.5-3.4-0.5-3.4s0.4-1.5,1.5-1.9c1.2-0.3,1.9-0.5,2.5-0.4
					c0.6,0.1,2.2,1.6,2.2,2s0.2,4.1-0.1,4.8c0,0,0,2.2,1.2,3.1h0c0.7,0.5,0.8,1.4,0.2,2.1c-0.9-0.3-2.3,2-3.7,4.2l-2.8-4.4
					C33.8,21.7,33.7,19.4,34.2,18.8z"/>
			</g>
			<path class="st2" d="M36.8,20.8c1.6-0.9,2.1-4.1,2.1-4.1s-1.2,2.3-2.6,2.5c-1.4,0.2-2.1-1.1-2.1-1.1v0.7c-0.4,0.5-0.4,2-0.4,2.7
				C34.7,21.5,35.9,21.4,36.8,20.8z"/>
			<g>
				<path class="st3" d="M35.7,21.4c0,0,0.5,0.3,0.7,0.5s0.7,0.6,0.7,0.6s0.7-0.3,1-0.8s1.2-0.9,1.2-0.9l1.5,0.2l0.7,18.5
					c-3.1,1.5-6.3,1.5-9.4,0L33,21.1L35.7,21.4z"/>
			</g>
			<g>
				<path class="st5" d="M34.2,18.8c0,0,0.7,1.8,1.5,2.6c0,0-1.1,0.3-1,1.7l-1.4-2.4L34.2,18.8z"/>
			</g>
			<g>
				<ellipse transform="matrix(0.9898 0.1422 -0.1422 0.9898 2.4402 -5.4101)" class="st0" cx="39.1" cy="14.4" rx="0.5" ry="1.1"/>
			</g>
			<g>
				
					<ellipse transform="matrix(-0.976 0.2177 -0.2177 -0.976 68.8945 22.8528)" class="st0" cx="33.2" cy="15.2" rx="0.5" ry="1.1"/>
			</g>
		</g>
		<g>
			<path class="st1" d="M38.7,14.6h0.2c0,0,0-1,0.3-1.2s0.4-1,0.2-1.8c-0.2-0.8-1.3-2.6-2.8-2.8c-1.5-0.2-3,0.3-3.8,1.9
				C32,12.2,33,14.5,33,14.8c0,0.3,0.1,0.5,0.1,0.5h0.1c0,0-0.3-1.4-0.2-2c0.1-0.6,0-1.1,0.1-1.4s1.3-1.4,3-1
				c1.7,0.4,1.9,0.7,2.1,1.1S38.8,13.5,38.7,14.6z"/>
		</g>
		<g>
			<path class="st5" d="M39.1,18.3c0,0,0,2.1-1,3.5c0,0,1-0.5,1.2,0.1s0.3,1.1,0.3,1.1s0.6-1.4,0.6-2.7S39.5,18.5,39.1,18.3z"/>
		</g>
		<g>
			<g>
				<path class="st11" d="M19.5,26.9l0.3-0.8c0,0,1.1-1.9,2.4-1.7c0,0,0.5,0.5,0.2,1.2s-1,1.9-1.1,1.9c0,0-1.8,0.2-1.8,0.2
					S19.4,27.2,19.5,26.9z"/>
			</g>
			<g>
				<g>
					<path class="st0" d="M20.7,27.5c0,0-0.4-1.3-0.6-1.5s-0.1-0.6-0.2-0.7c-0.1-0.1-1-0.7-1.3-1.3c-0.2-0.6-0.5-0.7-0.4-1
						c0,0-0.1-0.5,0-0.6c0,0-0.3-0.6,0.4-1.1c0,0-0.3-0.3-0.6-0.6s-0.7-0.6-1-0.7s-0.6-0.4-0.5-0.7c0.1-0.3,0.7-0.1,1,0
						c0.3,0.1,0.9,0.6,1.2,0.8c0.3,0.2,0.5,0.5,0.9,0.7l0.7,0.5c0,0,0.2-0.2,0.8,0c0.5,0.2,0.8,0,0.8,0.5c0,0.5,0.2,1.4,0,1.7
						c-0.1,0.4,0.4,1.8,0.4,1.8L20.7,27.5z"/>
				</g>
				<path class="st16" d="M22.1,24.6c0,0-0.7,1.6-2,2.3l0.7,1.3l2-2.4L22.1,24.6z"/>
				<g>
					<g>
						<g>
							<path class="st2" d="M19,23.7c0,0,0.4-0.1,0.4-0.2c0,0,0.3,0,0.4,0.1s0.3,0.2,0.5,0.2s0.4-0.1,0.4-0.3c0-0.2-0.1-0.3-0.1-0.3
								s0.3,0,0.3-0.2c0.1-0.2,0-0.4-0.2-0.5c-0.2-0.1-0.5-0.3-0.5-0.3s0.3,0,0.5-0.1c0.1-0.1,0.3-0.2,0.3-0.2s-0.1,0.2,0.1,0.2
								c0.2,0,0.2,0,0.2,0s-0.5,0.1-0.5,0.2c-0.1,0.1,0.1,0.5,0.1,0.8s0,0.6,0,0.7c0,0,0-0.1-0.2-0.1c-0.1-0.1-0.2,0.1-0.4,0.1
								c-0.2,0-0.6-0.1-0.8-0.1C19.5,23.8,19,24,19,24s0-0.1,0.1-0.1L19,23.7z"/>
						</g>
						<g>
							<path class="st2" d="M20.4,22.3l-0.2,0c0,0-0.3-0.1-0.4-0.3c-0.2-0.2-0.5-0.4-0.7-0.3c-0.2,0-0.5,0.4-0.5,0.4
								s0.4-0.3,0.6-0.3c0.2,0,0.6,0.2,0.7,0.4C19.9,22.2,20.4,22.4,20.4,22.3C20.6,22.4,20.4,22.3,20.4,22.3z"/>
						</g>
						<g>
							<path class="st2" d="M20.7,23.3c0,0-0.2-0.1-0.4-0.2c-0.2-0.1-0.5-0.4-0.7-0.5c-0.2-0.1-0.2-0.1-0.3,0s-0.5,0.2-0.5,0.2
								s0.4-0.2,0.6-0.1s0.5,0.2,0.6,0.3c0.2,0.1,0.5,0.4,0.5,0.4L20.7,23.3L20.7,23.3z"/>
						</g>
					</g>
					<g>
						<g>
							<path class="st2" d="M20.4,21.2c0,0-0.1,0-0.1,0.1c0,0-0.1,0.1-0.1,0.1c-0.1,0-0.1,0.1-0.2,0.1c0,0,0,0-0.1,0.1c0,0,0,0,0,0
								c0,0,0,0,0,0c0,0.1,0,0.1,0,0.2c0,0.1,0,0.2,0,0.2s0-0.1-0.1-0.2c0-0.1,0-0.1,0-0.2c0,0,0,0,0-0.1c0,0,0,0,0-0.1
								c0,0,0-0.1,0.1-0.1c0.1-0.1,0.2-0.2,0.3-0.2C20.3,21.2,20.4,21.2,20.4,21.2z"/>
						</g>
						<g>
							<path class="st2" d="M18.7,21.2c0,0,0.4-0.3,0.4-0.3c0.1,0,0.1,0,0.2-0.1c0.1,0,0.1,0,0.2,0c0.1,0,0.2,0.1,0.3,0.1
								c0.1,0.1,0.1,0.1,0.2,0.2c0,0.1,0.1,0.1,0.1,0.2c0,0,0,0.1,0,0.1s0,0,0-0.1c0,0-0.1-0.1-0.1-0.1c-0.1-0.1-0.1-0.1-0.2-0.2
								c-0.1-0.1-0.2-0.1-0.3-0.1c0,0-0.1,0-0.1,0c0,0-0.1,0-0.1,0C19.1,21,18.7,21.2,18.7,21.2z"/>
						</g>
					</g>
				</g>
			</g>
			<g>
				<path class="st8" d="M22.1,24.4c0,0,0.8,1.7-2.2,3.1c0,0-0.5,0.4-0.4-0.1s0.2-1.3,0.2-1.3s-0.6,1-0.4,1.6c0.2,0.7,2,2.6,2.4,3.4
					c0.4,0.8,1.2,2.7,2,2.9c0.8,0.2,1.8-0.2,2.2-0.5c0.5-0.2,1.2-0.6,1.5-0.8s0.4-0.7,0.7-1.1c0.3-0.4,1.4-2.2,1.4-2.2
					s1.4-2.4,1.4-2.4c0-0.1-2.2-5.6-2.2-5.6s-0.6-0.2-0.8,0.3s-0.2,1-0.4,1.4c-0.2,0.4-0.4,0.7-0.6,1.3c-0.2,0.6-0.3,1-0.4,1.2
					s-0.3,0.3-0.3,0.7s-0.1,0.5-0.1,0.5l-1.6,1.8c0,0-0.5-0.7-0.6-1C23.9,27.2,22.5,24.6,22.1,24.4z"/>
			</g>
			<g>
				<path class="st11" d="M33.9,35.4c-0.1,3.4-2,9-3.3,10.1c-1.3,1.1-3.4-1.4-3.4-1.4S28,40.5,29,37c1-3.5,0.6-7.7,0.6-7.7
					c-1.1-4-0.9-7.8-0.9-7.8c0.4,0,2.7-0.8,3.7-1.3c0.9-0.5,1.7-1.3,1.8-1.3c-0.3,0.6-0.4,4.2-0.1,6.4C34.3,27.5,34,32,33.9,35.4z"
					/>
			</g>
			<g>
				<path class="st8" d="M34.2,18.8c0,0-0.7,0.5-0.9,0.6s-0.6,1-0.6,1l0.5,0.5h-1.1c0,0,0.2,6,0.5,7.8c0.3,1.8,1.2,5.7,1.2,7.2
					c-0.1,1.5-0.1,1.5-0.1,1.5s0.6-4.1,0.7-6.7C34.5,28.2,34,20.3,34.2,18.8z"/>
			</g>
		</g>
		<g>
			<path class="st8" d="M43.2,21.6l2.8-0.7c0,0,0.3,0.1,0.4,1.1c0,1,0.6,1.6,0.6,2.2c0,0.6-0.2,1,0,1.5c0.2,0.5,0.7,5.2,0.8,6.2
				c0.1,1,0.3,2.1,0.2,2.6c-0.1,0.4-0.8,6.1-1,7.1s-1,4-1,4s-0.9-1.7-2.7-1.9c0,0,0.5-5.3,0.9-6.7s0.6-1.4,0.4-1.8s-0.9-1.1-0.9-1.6
				s0.3-1.7,0.1-2.5S43.2,21.6,43.2,21.6z"/>
		</g>
		<g>
			<path class="st11" d="M40.5,19.3c0,0,1.7,0.5,3,1c1.2,0.5,2.6,0.7,2.6,0.7s-1.3,2.5-1.8,5.7c0,0-1.2,14.1,1,17.9
				c0,0-3.5,1.3-4.6-0.2c-1.1-1.5-0.7-8-0.7-8C39.7,34.5,40.2,25.8,40.5,19.3z"/>
		</g>
		<g>
			<path class="st8" d="M39.5,18.6c0,0,0.5,3.2,0.3,5.6s-0.2,10.9,0.1,12.1c0,0-0.2-2.2,0.2-3.1c0.4-1,2-7.5,1.6-12.5l-0.8,0.3
				l0.4-0.5c0,0-0.3-0.9-0.9-1.3C39.8,18.7,39.7,18.6,39.5,18.6z"/>
		</g>
	</g>
	<g>
		<g>
			<g>
				<polygon class="st12" points="16.6,12.3 13,9 8.6,12.2 8.2,11.5 13.1,8 16.5,11.2 20.8,7 25.5,9.1 28.4,6.2 29,6.7 25.6,10.1 
					20.9,7.9 				"/>
			</g>
		</g>
		<g>
			<g>
				<path class="st1" d="M14.1,8.6c0,0.6-0.5,1.1-1.1,1.1c-0.6,0-1.1-0.5-1.1-1.1c0-0.6,0.5-1.1,1.1-1.1C13.6,7.6,14.1,8,14.1,8.6z"
					/>
				<path class="st9" d="M17.6,11.7c0,0.6-0.5,1.1-1.1,1.1s-1.1-0.5-1.1-1.1c0-0.6,0.5-1.1,1.1-1.1S17.6,11.1,17.6,11.7z"/>
				<path class="st7" d="M9.5,11.9C9.5,12.5,9,13,8.4,13c-0.6,0-1.1-0.5-1.1-1.1c0-0.6,0.5-1.1,1.1-1.1C9,10.7,9.5,11.2,9.5,11.9z"
					/>
				<path class="st0" d="M21.9,7.6c0,0.6-0.5,1.1-1.1,1.1c-0.6,0-1.1-0.5-1.1-1.1c0-0.6,0.5-1.1,1.1-1.1C21.4,6.5,21.9,6.9,21.9,7.6
					z"/>
				<path class="st8" d="M26.7,9.5c0,0.6-0.5,1.1-1.1,1.1c-0.6,0-1.1-0.5-1.1-1.1c0-0.6,0.5-1.1,1.1-1.1C26.2,8.4,26.7,8.9,26.7,9.5
					z"/>
				<path class="st7" d="M29.8,6.5c0,0.6-0.5,1.1-1.1,1.1c-0.6,0-1.1-0.5-1.1-1.1c0-0.6,0.5-1.1,1.1-1.1C29.3,5.3,29.8,5.8,29.8,6.5
					z"/>
			</g>
		</g>
	</g>
</g>
</svg>
