<?xml version="1.0" encoding="utf-8"?>
<!-- Generator: Adobe Illustrator 19.0.1, SVG Export Plug-In . SVG Version: 6.00 Build 0)  -->
<svg version="1.1" id="Layer_1" xmlns="http://www.w3.org/2000/svg" xmlns:xlink="http://www.w3.org/1999/xlink" x="0px" y="0px"
	 viewBox="0 0 48 48" style="enable-background:new 0 0 48 48;" xml:space="preserve">
<style type="text/css">
	.st0{fill:#FFD15C;}
	.st1{fill:#415A6B;}
	.st2{fill:#F7B64C;}
	.st3{fill:#CED6E0;}
	.st4{fill:#344A5E;}
	.st5{fill:#F3F3F3;}
	.st6{fill:#F05540;}
	.st7{fill:#F3705A;}
	.st8{fill:#66C6B9;}
	.st9{fill:#55C0EB;}
	.st10{fill:#F5F6FB;}
	.st11{fill:#4ABAA5;}
	.st12{fill:#ADB3BA;}
	.st13{fill:#E8EAE9;}
	.st14{fill:#2E4556;}
	.st15{fill:#8AD7F8;}
	.st16{fill:#FFFFFF;}
	.st17{fill:#E54838;}
	.st18{fill:#3EAF99;}
	.st19{fill:#EFA943;}
	.st20{fill:#4CAEE5;}
	.st21{fill:#293F4F;}
	.st22{fill:#2D4456;}
	.st23{fill:#2E4454;}
	.st24{fill:#2A3F4F;}
	.st25{fill:#2D4151;}
	.st26{fill:#E89E3D;}
	.st27{fill:#2B4151;}
	.st28{fill:#2A4051;}
	.st29{fill:#2C4151;}
	.st30{fill:#EBEAE8;}
	.st31{fill:#3AA590;}
	.st32{fill:#E84534;}
	.st33{fill:none;}
</style>
<g>
	<g>
		<g>
			<g>
				<path class="st0" d="M29.7,10.9c-0.2,1.1-0.7,2-1.3,1.9c-0.6,0-0.9-1-0.7-2.1c0.2-1.1,0.7-2,1.3-1.9
					C29.5,8.9,29.9,9.9,29.7,10.9z"/>
			</g>
			<g>
				<path class="st0" d="M16.7,10.9c0.2,1.1,0.7,2,1.3,1.9c0.6,0,0.9-1,0.7-2.1c-0.2-1.1-0.7-2-1.3-1.9C16.8,8.9,16.5,9.9,16.7,10.9
					z"/>
			</g>
			<g>
				<path class="st0" d="M28.1,14.2c-0.3,0.9-0.3,3.7-0.3,3.7l-0.7,1.2c-0.5,0.8-1.4,1.9-2.8,3.2c0,0-2.2-1.5-3.5-2.5
					c-1.3-1-1.7-1.9-1.7-1.9s-0.1-2.1-0.3-2.6c-0.1-0.5-1.1-2.3-1.3-4.4C17.3,8.8,17.4,5,18,3.4c0.6-1.6,3.7-2.3,5.7-2.1
					c2,0.1,4,1.1,4.3,1.9c0.4,0.8,0.6,7.3,0.6,7.3l0,0.5C28.6,10.9,28.3,13.3,28.1,14.2z"/>
			</g>
			<g>
				<path class="st11" d="M29.2,18.6c0,0,3,1.3,5.5,2.2c2.5,0.9,5.2,3.2,5.2,3.2s-3.8,2.2-5.4,6c-1.6,3.8,2.7,12.9,2.7,12.9
					s-6.9,3.7-11.5,3.6C21.1,46.5,12.6,45,12.6,45l-2.2-4.4l1.9-8c0.2-1,0.2-2-0.2-2.9c-0.9-2.2-2.6-5.9-5-6.3c0,0,3.7-1.8,5.2-2.2
					c1.5-0.4,5.6-2.6,5.6-2.6l5.7,2.3l0.3,0.1L29.2,18.6z"/>
			</g>
			<path class="st2" d="M28,14.5L28,14.5c-1,1.9-3.3,3.2-5.4,3.2c-2-0.1-3.8-2.4-3.8-2.4c0.1,0.5,0.3,2.6,0.3,2.6s0.3,0.8,1.7,1.9
				c0.3,0.2,0.6,0.5,1,0.7C26.9,18.6,28,14.5,28,14.5z"/>
			<g>
				<path class="st1" d="M17.5,10.9h0.3c-0.1-0.4-0.4-2.6-0.2-3.1c0.2-0.5,0.6-1.9,0.5-3.4C18,3,20.6,2.7,20.6,2.7L26,2.9
					c2.2,0.5,1.6,2,1.8,3c0.2,0.9,0.4,1.7,0.6,2.9c0.2,0.8,0,1.6-0.1,2.1h0.3c0.2-0.9,0.6-2.7,0.6-3.4c0-1.1-0.6-8-6.7-7.4
					c-6.1,0.5-5.5,6.4-5.5,8C17,9.5,17.4,10.6,17.5,10.9z"/>
			</g>
		</g>
		<g>
			<g>
				<path class="st13" d="M27.7,16.2c0,0-1.6,2.7-4.1,4.4c0,0,4.6,1.4,5.2,2.9c0,0,0.6-2.7,0.6-4.1S27.7,16.2,27.7,16.2z"/>
			</g>
			<g>
				<path class="st13" d="M23.5,20.6c0,0-1.9,0.6-3.2,2c-1.3,1.4-2,1.6-2,1.6s-1.2-3.5-1.1-4.8s1.6-2.9,1.6-2.9S18.7,18.6,23.5,20.6
					z"/>
			</g>
		</g>
		<g>
			<g>
				<path class="st8" d="M42.3,41.5c-0.6,1.5-1.2,1.9-1.2,2.8c0,0.9-0.4,1.9-2,2.2s-6.4,0.8-7.1,0.8c-0.6,0-2.4,0.2-2.9,0.2
					c0.5-0.1,2.3-0.3,2.5-1c0-0.2,0.1-0.7,0.1-1.2c0-1.3-0.2-3.1-1.2-3.5c0,0,2.3-0.6,2.5-0.7c0.2-0.1,0.6-0.6,0.9-1.2
					c0.3-0.7,0.2-3,0.2-4c0-0.6,0-2.2,0.1-3.3v0c0-0.7,0-1.2,0-1.2v0c0-0.5,0.1-0.9,0.3-1.3c1.6-3.8,5.3-6,5.4-6l0,0
					c0,0,1.5,3.1,1.8,4.8c0.4,1.7,0.4,7,0.4,7.6C42,37.1,43,40,42.3,41.5z"/>
			</g>
			<g>
				<path class="st0" d="M26.4,41c0,0,0.6-0.9,2.2-1.3c1.6-0.3,2.1-0.4,2.1-0.4s1-1.7,2.2-0.6c0,0,0,0.5-0.2,1c0,0-0.1,0.6-0.4,1
					c0,0-0.1,0.7-0.4,1.2c0,0-0.3,0.1-0.1,0.7c0.2,0.5,0,1.6,0,1.6s0.1,1.4,0,2c-0.1,0.5-0.1,0.9-1.1,1.2c-1,0.2-2.2-0.1-2.6-0.2
					s-2.8-1-2.4-2.7C25.9,42.7,26.4,41,26.4,41z"/>
			</g>
			<g>
				<path class="st2" d="M31.8,43.4h-6c-0.1,0.3-0.2,0.6-0.2,1c-0.4,1.7,2,2.6,2.4,2.7s1.6,0.4,2.6,0.2c1-0.2,1-0.6,1.1-1.2
					c0.1-0.5,0-2,0-2S31.7,43.8,31.8,43.4z"/>
			</g>
			<g>
				<path class="st2" d="M29,40.7c-0.4-0.2-0.8-0.4-1-0.5c-0.1-0.1-0.2-0.1-0.3-0.1c-0.1,0-0.2,0.1-0.3,0.1c0.2,0,0.4,0.1,0.5,0.2
					c0.2,0.1,0.5,0.3,1,0.5c0.6,0.3,1.3,0.7,1.5,0.8l0,0l0.1-0.2l0,0C30.2,41.4,29.5,41,29,40.7z"/>
			</g>
			<g>
				<path class="st2" d="M30.7,39.3c0,0-0.6,0.7-0.8,1c-0.2,0.3-0.2,0.6-0.2,0.6s0.5,0.6,0.8,0.6c0.3,0.1,0.7-0.2,1,0
					c0.3,0.2,0.4,0.3,0.4,0.3s0-0.4-0.4-0.5l0.3-0.3c0,0-0.6,0-0.8-0.1S30,40.5,30.7,39.3z"/>
			</g>
			<g>
				<path class="st0" d="M28,47.1c-0.1,0.1-0.4,0.2-0.9,0.5c-0.8,0.4-1.1,0.6-1.5,0.5c-0.4-0.1-1-0.9-1.1-1.3s-0.2-0.8-0.4-1.4
					s0.1-1,0.2-1.1c0.1-0.1,0.2-0.1,0.2-0.1s-0.7-0.9-0.7-1.4c0-0.4,0.6-1.1,1.1-0.7c0,0-0.5-0.6,0-1c0.5-0.5,1-0.1,1.4,0.2
					s0.6,0.4,0.6,0.4s-0.7-0.6-0.5-1.2c0.3-0.6,1-0.3,1.4-0.1c0.4,0.2,2.1,1.2,2.4,1.3c0.3,0.1,1,0.5,1,0.5s0.7,1.2,0.3,1.9
					c-0.5,0.7-0.7,0.5-1,0.8c-0.2,0.3,0.1,0.3-0.4,0.7C29.9,45.9,28.1,47,28,47.1z"/>
			</g>
			<g>
				<g>
					<path class="st2" d="M29.8,44.1C29.8,44.1,29.8,44.1,29.8,44.1c-0.1,0-0.1,0-0.2-0.1c0,0-0.1-0.1-0.2-0.1
						c-0.1,0-0.1-0.1-0.2-0.2c0,0,0,0,0-0.1c0,0,0,0,0-0.1c0,0-0.1-0.1-0.1-0.1c0,0,0,0,0,0c0,0,0,0,0,0c0,0,0,0,0-0.1
						c0,0-0.1-0.1-0.1-0.1c0,0-0.1-0.1-0.1-0.1c0,0-0.1-0.1-0.1-0.1c-0.1-0.1-0.2-0.2-0.3-0.2c-0.1-0.1-0.2-0.2-0.3-0.2
						c0,0-0.1-0.1-0.1-0.1c0,0,0,0-0.1-0.1c0,0,0,0-0.1-0.1c-0.1-0.1-0.2-0.1-0.2-0.2c-0.1-0.1-0.1-0.1-0.2-0.2
						c-0.1-0.1-0.2-0.2-0.3-0.3c0,0-0.1-0.1-0.1-0.1c0,0,0,0,0,0s0.1,0,0.1,0.1c0.1,0.1,0.2,0.1,0.4,0.2c0.1,0,0.2,0.1,0.2,0.2
						c0.1,0.1,0.2,0.1,0.3,0.2c0,0,0,0,0.1,0.1c0,0,0,0,0.1,0.1c0,0,0.1,0.1,0.1,0.1c0.1,0.1,0.2,0.1,0.3,0.2
						c0.1,0.1,0.2,0.2,0.3,0.2c0.1,0.1,0.2,0.2,0.2,0.2c0,0,0.1,0.1,0.1,0.1c0,0,0,0,0,0.1c0,0,0,0,0,0c0,0,0,0,0,0c0,0,0,0,0,0.1
						c0,0,0,0,0,0.1c0,0,0,0,0,0.1c0,0,0,0,0,0.1c0.1,0.1,0.1,0.1,0.1,0.2c0,0.1,0.1,0.1,0.1,0.1C29.7,44,29.8,44.1,29.8,44.1
						C29.8,44.1,29.8,44.1,29.8,44.1z"/>
				</g>
				<g>
					<path class="st2" d="M28.3,45.5C28.3,45.5,28.3,45.5,28.3,45.5c0-0.1,0-0.1-0.1-0.2c0-0.1-0.1-0.1-0.2-0.2c0,0-0.1-0.1-0.1-0.1
						c0,0,0,0-0.1,0c0,0,0,0-0.1,0c-0.1-0.1-0.2-0.1-0.3-0.2c-0.1-0.1-0.2-0.2-0.3-0.3c-0.1-0.1-0.2-0.2-0.3-0.3c0,0,0-0.1-0.1-0.1
						l0,0l0,0c0,0,0,0,0,0l0,0l0,0l0,0l0,0c0,0,0-0.1-0.1-0.1l-0.1-0.1c-0.1-0.1-0.2-0.2-0.3-0.3c-0.1-0.1-0.2-0.2-0.3-0.3
						c-0.1-0.1-0.2-0.2-0.3-0.3c0,0,0,0-0.1-0.1c0,0,0,0,0,0l0,0l0,0l0,0c0,0,0-0.1,0-0.1c0,0,0,0,0-0.1c-0.1-0.1-0.1-0.2-0.2-0.3
						c-0.1-0.1-0.1-0.1-0.1-0.2C25,42.1,25,42,25,42s0,0,0,0c0,0,0.1,0.1,0.1,0.1c0,0,0.1,0.1,0.2,0.2c0.1,0.1,0.1,0.1,0.2,0.2
						c0,0,0,0,0.1,0.1c0,0,0,0.1,0.1,0.1l0,0c0,0,0,0,0,0l0,0l0,0l0,0l0,0c0,0,0,0,0,0c0,0,0,0,0.1,0.1c0.1,0.1,0.2,0.2,0.3,0.3
						c0.1,0.1,0.2,0.2,0.3,0.3c0.1,0.1,0.2,0.2,0.3,0.3l0.1,0.1c0,0,0.1,0.1,0.1,0.1l0,0l0,0l0,0l0,0l0,0c0,0,0,0.1,0.1,0.1
						c0.1,0.1,0.2,0.2,0.3,0.3c0.1,0.1,0.2,0.2,0.3,0.3c0.1,0.1,0.2,0.2,0.3,0.3c0,0,0,0,0.1,0c0,0,0,0,0.1,0c0,0,0.1,0.1,0.1,0.1
						c0.1,0.1,0.1,0.1,0.2,0.2C28.2,45.4,28.2,45.5,28.3,45.5C28.3,45.5,28.3,45.5,28.3,45.5z"/>
				</g>
				<g>
					<path class="st2" d="M26.6,46.6c0,0,0,0-0.1-0.1c0,0-0.1-0.1-0.1-0.1c0,0-0.1-0.1-0.1-0.2c-0.1-0.1-0.1-0.1-0.2-0.2
						c0,0,0,0,0,0c0,0,0,0,0,0c0,0,0,0-0.1,0c0,0,0,0-0.1-0.1c0,0,0,0-0.1-0.1c-0.1-0.1-0.1-0.1-0.2-0.2c-0.1-0.1-0.1-0.2-0.2-0.2
						c-0.1-0.1-0.1-0.2-0.2-0.2c-0.1-0.1-0.1-0.2-0.2-0.2c0,0-0.1-0.1-0.1-0.1c0,0,0,0,0-0.1c0,0,0,0,0-0.1c0-0.1-0.1-0.1-0.1-0.2
						c-0.1-0.1-0.2-0.2-0.2-0.3c0,0,0-0.1-0.1-0.1c0,0,0,0,0,0s0,0,0,0c0,0,0,0,0.1,0.1c0,0,0.1,0.1,0.1,0.1c0,0,0.1,0.1,0.1,0.2
						c0.1,0.1,0.1,0.1,0.2,0.2c0,0,0,0,0,0.1c0,0,0,0,0,0.1c0,0,0.1,0.1,0.1,0.1c0.1,0.1,0.1,0.2,0.2,0.2c0.1,0.1,0.1,0.2,0.2,0.2
						c0.1,0.1,0.1,0.2,0.2,0.2c0,0,0.1,0.1,0.1,0.1c0,0,0.1,0.1,0.1,0.1c0,0,0,0,0,0.1c0,0,0,0,0,0c0,0,0,0,0,0c0,0,0,0,0,0
						c0.1,0.1,0.1,0.1,0.2,0.2c0,0.1,0.1,0.1,0.1,0.2c0,0.1,0.1,0.1,0.1,0.2C26.6,46.5,26.6,46.6,26.6,46.6
						C26.6,46.6,26.6,46.6,26.6,46.6z"/>
				</g>
			</g>
		</g>
		<g>
			<g>
				<path class="st8" d="M19,47.5c-0.5,0-2.3-0.2-2.9-0.2c-0.7,0-5.5-0.5-7.1-0.8s-2-1.2-2-2.2S6.4,43,5.8,41.5s-0.2-4.6-0.2-5.3
					c0-0.7-0.2-6.3,0.2-8C6.1,26.5,7,23.1,7,23.1s0.2,0,0.5,0c-0.2,0.1-0.3,0.1-0.3,0.1c2.6,0.5,4.5,5,5.3,7c0,0.2,0,0.3,0,0.6v0
					c0,0.2,0.1,0.5,0.2,0.8c0.4,1.4,1.6,3.6,1.6,4.1c0,1-0.1,3.4,0.2,4c0.3,0.7,0.7,1.2,0.9,1.2c0.2,0.1,2.5,0.7,2.5,0.7
					c-1,0.4-1.3,2.2-1.2,3.5c0,0.1,0,0.2,0,0.3c0,0.4,0.1,0.7,0.1,0.9C16.7,47.2,18.5,47.5,19,47.5z"/>
			</g>
			<g>
				<path class="st0" d="M21.7,41c0,0-0.6-0.9-2.2-1.3c-1.6-0.3-2.1-0.4-2.1-0.4s-1-1.7-2.2-0.6c0,0,0,0.5,0.2,1c0,0,0.1,0.6,0.4,1
					c0,0,0.1,0.7,0.4,1.2c0,0,0.3,0.1,0.1,0.7s0,1.6,0,1.6s-0.1,1.4,0,2c0.1,0.5,0.1,0.9,1.1,1.2c1,0.2,2.2-0.1,2.6-0.2
					s2.8-1,2.4-2.7C22.2,42.7,21.7,41,21.7,41z"/>
			</g>
			<g>
				<path class="st2" d="M16.4,43.4h6c0.1,0.3,0.2,0.6,0.2,1c0.4,1.7-2,2.6-2.4,2.7s-1.6,0.4-2.6,0.2c-1-0.2-1-0.6-1.1-1.2
					c-0.1-0.5,0-2,0-2S16.4,43.8,16.4,43.4z"/>
			</g>
			<g>
				<path class="st2" d="M19.2,40.7c0.4-0.2,0.8-0.4,1-0.5c0.1-0.1,0.2-0.1,0.3-0.1c0.1,0,0.2,0.1,0.3,0.1c-0.2,0-0.4,0.1-0.5,0.2
					c-0.2,0.1-0.5,0.3-1,0.5c-0.6,0.3-1.3,0.7-1.5,0.8l0,0l-0.1-0.2l0,0C17.9,41.4,18.6,41,19.2,40.7z"/>
			</g>
			<g>
				<path class="st2" d="M17.5,39.3c0,0,0.6,0.7,0.8,1c0.2,0.3,0.2,0.6,0.2,0.6s-0.5,0.6-0.8,0.6c-0.3,0.1-0.7-0.2-1,0
					c-0.3,0.2-0.4,0.3-0.4,0.3s0-0.4,0.4-0.5L16.5,41c0,0,0.6,0,0.8-0.1C17.5,40.7,18.2,40.5,17.5,39.3z"/>
			</g>
			<g>
				<path class="st0" d="M20.1,47.1c0.1,0.1,0.4,0.2,0.9,0.5c0.8,0.4,1.1,0.6,1.5,0.5c0.4-0.1,1-0.9,1.1-1.3s0.2-0.8,0.4-1.4
					c0.2-0.5-0.1-1-0.2-1.1s-0.2-0.1-0.2-0.1s0.7-0.9,0.7-1.4c0-0.4-0.6-1.1-1.1-0.7c0,0,0.5-0.6,0-1c-0.5-0.5-1-0.1-1.4,0.2
					c-0.4,0.3-0.6,0.4-0.6,0.4s0.7-0.6,0.5-1.2c-0.3-0.6-1-0.3-1.4-0.1c-0.4,0.2-2.1,1.2-2.4,1.3s-1,0.5-1,0.5S16,43.3,16.5,44
					s0.7,0.5,1,0.8c0.2,0.3-0.1,0.3,0.4,0.7C18.3,45.9,20,47,20.1,47.1z"/>
			</g>
			<g>
				<g>
					<path class="st2" d="M18.3,44.1C18.3,44.1,18.3,44.1,18.3,44.1c0.1,0,0.1,0,0.2-0.1c0,0,0.1-0.1,0.2-0.1c0.1,0,0.1-0.1,0.2-0.2
						c0,0,0,0,0-0.1c0,0,0,0,0-0.1c0,0,0.1-0.1,0.1-0.1c0,0,0,0,0,0c0,0,0,0,0,0c0,0,0,0,0-0.1c0,0,0.1-0.1,0.1-0.1
						c0,0,0.1-0.1,0.1-0.1c0,0,0.1-0.1,0.1-0.1c0.1-0.1,0.2-0.2,0.3-0.2c0.1-0.1,0.2-0.2,0.3-0.2c0,0,0.1-0.1,0.1-0.1
						c0,0,0,0,0.1-0.1c0,0,0,0,0.1-0.1c0.1-0.1,0.2-0.1,0.2-0.2c0.1-0.1,0.1-0.1,0.2-0.2c0.1-0.1,0.2-0.2,0.3-0.3
						c0,0,0.1-0.1,0.1-0.1c0,0,0,0,0,0s-0.1,0-0.1,0.1c-0.1,0.1-0.2,0.1-0.4,0.2c-0.1,0-0.2,0.1-0.2,0.2c-0.1,0.1-0.2,0.1-0.3,0.2
						c0,0,0,0-0.1,0.1c0,0,0,0-0.1,0.1c0,0-0.1,0.1-0.1,0.1c-0.1,0.1-0.2,0.1-0.3,0.2c-0.1,0.1-0.2,0.2-0.3,0.2
						c-0.1,0.1-0.2,0.2-0.2,0.2c0,0-0.1,0.1-0.1,0.1c0,0,0,0,0,0.1c0,0,0,0,0,0c0,0,0,0,0,0c0,0,0,0,0,0.1c0,0,0,0,0,0.1
						c0,0,0,0,0,0.1c0,0,0,0,0,0.1c-0.1,0.1-0.1,0.1-0.1,0.2c0,0.1-0.1,0.1-0.1,0.1C18.4,44,18.4,44.1,18.3,44.1
						C18.3,44.1,18.3,44.1,18.3,44.1z"/>
				</g>
				<g>
					<path class="st2" d="M19.9,45.5C19.9,45.5,19.9,45.5,19.9,45.5c0-0.1,0-0.1,0.1-0.2c0-0.1,0.1-0.1,0.2-0.2c0,0,0.1-0.1,0.1-0.1
						c0,0,0,0,0.1,0c0,0,0,0,0.1,0c0.1-0.1,0.2-0.1,0.3-0.2c0.1-0.1,0.2-0.2,0.3-0.3c0.1-0.1,0.2-0.2,0.3-0.3c0,0,0-0.1,0.1-0.1l0,0
						l0,0c0,0,0,0,0,0l0,0l0,0l0,0l0,0c0,0,0-0.1,0.1-0.1l0.1-0.1c0.1-0.1,0.2-0.2,0.3-0.3c0.1-0.1,0.2-0.2,0.3-0.3
						c0.1-0.1,0.2-0.2,0.3-0.3c0,0,0,0,0.1-0.1c0,0,0,0,0,0l0,0l0,0l0,0c0,0,0-0.1,0-0.1c0,0,0,0,0-0.1c0.1-0.1,0.1-0.2,0.2-0.3
						c0.1-0.1,0.1-0.1,0.1-0.2c0.1-0.1,0.1-0.2,0.1-0.2s0,0,0,0c0,0-0.1,0.1-0.1,0.1c0,0-0.1,0.1-0.2,0.2c-0.1,0.1-0.1,0.1-0.2,0.2
						c0,0,0,0-0.1,0.1c0,0,0,0.1-0.1,0.1l0,0c0,0,0,0,0,0l0,0l0,0l0,0l0,0c0,0,0,0,0,0c0,0,0,0-0.1,0.1c-0.1,0.1-0.2,0.2-0.3,0.3
						c-0.1,0.1-0.2,0.2-0.3,0.3c-0.1,0.1-0.2,0.2-0.3,0.3l-0.1,0.1c0,0-0.1,0.1-0.1,0.1l0,0l0,0l0,0l0,0l0,0c0,0,0,0.1-0.1,0.1
						c-0.1,0.1-0.2,0.2-0.3,0.3c-0.1,0.1-0.2,0.2-0.3,0.3c-0.1,0.1-0.2,0.2-0.3,0.3c0,0,0,0-0.1,0c0,0,0,0-0.1,0
						c0,0-0.1,0.1-0.1,0.1c-0.1,0.1-0.1,0.1-0.2,0.2C19.9,45.4,19.9,45.5,19.9,45.5C19.9,45.5,19.9,45.5,19.9,45.5z"/>
				</g>
				<g>
					<path class="st2" d="M21.5,46.6c0,0,0,0,0.1-0.1c0,0,0.1-0.1,0.1-0.1c0,0,0.1-0.1,0.1-0.2c0.1-0.1,0.1-0.1,0.2-0.2c0,0,0,0,0,0
						c0,0,0,0,0,0c0,0,0,0,0.1,0c0,0,0,0,0.1-0.1c0,0,0,0,0.1-0.1c0.1-0.1,0.1-0.1,0.2-0.2c0.1-0.1,0.1-0.2,0.2-0.2
						c0.1-0.1,0.1-0.2,0.2-0.2c0.1-0.1,0.1-0.2,0.2-0.2c0,0,0.1-0.1,0.1-0.1c0,0,0,0,0-0.1c0,0,0,0,0-0.1c0-0.1,0.1-0.1,0.1-0.2
						c0.1-0.1,0.2-0.2,0.2-0.3c0,0,0-0.1,0.1-0.1c0,0,0,0,0,0s0,0,0,0c0,0,0,0-0.1,0.1c0,0-0.1,0.1-0.1,0.1c0,0-0.1,0.1-0.1,0.2
						c-0.1,0.1-0.1,0.1-0.2,0.2c0,0,0,0,0,0.1c0,0,0,0,0,0.1c0,0-0.1,0.1-0.1,0.1c-0.1,0.1-0.1,0.2-0.2,0.2
						c-0.1,0.1-0.1,0.2-0.2,0.2c-0.1,0.1-0.1,0.2-0.2,0.2c0,0-0.1,0.1-0.1,0.1c0,0-0.1,0.1-0.1,0.1c0,0,0,0,0,0.1c0,0,0,0,0,0
						c0,0,0,0,0,0c0,0,0,0,0,0c-0.1,0.1-0.1,0.1-0.2,0.2c0,0.1-0.1,0.1-0.1,0.2c0,0.1-0.1,0.1-0.1,0.2
						C21.5,46.5,21.5,46.6,21.5,46.6C21.5,46.6,21.5,46.6,21.5,46.6z"/>
				</g>
			</g>
		</g>
	</g>
	<g>
		<g>
			<path class="st1" d="M24.5,30.5l-0.8,0.1c-0.1-0.3-0.3-0.7-0.5-1l0.5-0.6c0.2-0.3,0.2-0.7-0.1-0.9l-0.5-0.4
				c-0.3-0.2-0.7-0.2-0.9,0.1l-0.5,0.6c-0.3-0.1-0.7-0.3-1-0.3l-0.1-0.8c0-0.4-0.4-0.6-0.7-0.6l-0.7,0.1c-0.4,0-0.6,0.4-0.6,0.7
				l0.1,0.8c-0.3,0.1-0.7,0.3-1,0.5l-0.6-0.5c-0.3-0.2-0.7-0.2-0.9,0.1l-0.4,0.5c-0.2,0.3-0.2,0.7,0.1,0.9l0.6,0.5
				c-0.1,0.3-0.3,0.7-0.3,1l-0.8,0.1c-0.4,0-0.6,0.4-0.6,0.7l0.1,0.7c0,0.4,0.4,0.6,0.7,0.6l0.8-0.1c0.1,0.3,0.3,0.7,0.5,1l-0.5,0.6
				c-0.2,0.3-0.2,0.7,0.1,0.9l0.5,0.4c0.3,0.2,0.7,0.2,0.9-0.1l0.5-0.6c0.3,0.1,0.7,0.3,1,0.3l0.1,0.8c0,0.4,0.4,0.6,0.7,0.6
				l0.7-0.1c0.4,0,0.6-0.4,0.6-0.7l-0.1-0.8c0.3-0.1,0.7-0.3,0.9-0.5l0.6,0.5c0.3,0.2,0.7,0.2,0.9-0.1l0.4-0.5
				c0.2-0.3,0.2-0.7-0.1-0.9l-0.6-0.5c0.1-0.3,0.3-0.7,0.3-1l0.8-0.1c0.4,0,0.6-0.4,0.6-0.7l-0.1-0.7C25.2,30.7,24.9,30.5,24.5,30.5
				z M20.2,33.3c-0.7,0.1-1.4-0.4-1.4-1.2c-0.1-0.7,0.4-1.4,1.2-1.4c0.7-0.1,1.4,0.4,1.4,1.2C21.4,32.5,20.9,33.2,20.2,33.3z"/>
			<path class="st4" d="M19.8,29.4c-1.4,0.2-2.5,1.4-2.3,2.9c0.2,1.4,1.4,2.5,2.9,2.3c1.4-0.2,2.5-1.4,2.3-2.9
				C22.5,30.3,21.2,29.2,19.8,29.4z M20.2,33.3c-0.7,0.1-1.4-0.4-1.4-1.2c-0.1-0.7,0.4-1.4,1.2-1.4c0.7-0.1,1.4,0.4,1.4,1.2
				C21.4,32.5,20.9,33.2,20.2,33.3z"/>
		</g>
		<g>
			<path class="st5" d="M30.9,32.1l-0.5,0.3c-0.2-0.2-0.4-0.4-0.6-0.5l0.2-0.6c0.1-0.3-0.1-0.5-0.3-0.6l-0.5-0.1
				c-0.3-0.1-0.5,0.1-0.6,0.3l-0.2,0.6c-0.3,0-0.5,0-0.8,0.1l-0.3-0.5c-0.1-0.2-0.4-0.3-0.6-0.2l-0.4,0.2c-0.2,0.1-0.3,0.4-0.2,0.6
				l0.3,0.5c-0.2,0.2-0.4,0.4-0.5,0.6l-0.6-0.2c-0.3-0.1-0.5,0.1-0.6,0.3l-0.1,0.5c-0.1,0.3,0.1,0.5,0.3,0.6l0.6,0.2
				c0,0.3,0,0.5,0.1,0.8L25,35.4c-0.2,0.1-0.3,0.4-0.2,0.6l0.2,0.4c0.1,0.2,0.4,0.3,0.6,0.2l0.5-0.3c0.2,0.2,0.4,0.4,0.6,0.5
				l-0.2,0.6c-0.1,0.3,0.1,0.5,0.3,0.6l0.5,0.1c0.3,0.1,0.5-0.1,0.6-0.3l0.2-0.6c0.3,0,0.5,0,0.8-0.1l0.3,0.5
				c0.1,0.2,0.4,0.3,0.6,0.2l0.4-0.2c0.2-0.1,0.3-0.4,0.2-0.6l-0.3-0.5c0.2-0.2,0.4-0.4,0.5-0.6l0.6,0.2c0.3,0.1,0.5-0.1,0.6-0.3
				l0.1-0.5c0.1-0.3-0.1-0.5-0.3-0.6l-0.6-0.2c0-0.3,0-0.5-0.1-0.8l0.5-0.3c0.2-0.1,0.3-0.4,0.2-0.6l-0.2-0.4
				C31.4,32.1,31.1,32,30.9,32.1z M28.7,35.2c-0.5,0.3-1,0.1-1.3-0.4c-0.3-0.5-0.1-1,0.4-1.3s1-0.1,1.3,0.4
				C29.4,34.4,29.2,35,28.7,35.2z"/>
			<path class="st3" d="M27.4,32.7c-0.9,0.5-1.3,1.7-0.8,2.6c0.5,0.9,1.7,1.3,2.6,0.8s1.3-1.7,0.8-2.6
				C29.4,32.6,28.3,32.2,27.4,32.7z M28.7,35.2c-0.5,0.3-1,0.1-1.3-0.4c-0.3-0.5-0.1-1,0.4-1.3s1-0.1,1.3,0.4
				C29.4,34.4,29.2,35,28.7,35.2z"/>
		</g>
	</g>
</g>
</svg>
