<?xml version="1.0" encoding="utf-8"?>
<!-- Generator: Adobe Illustrator 18.0.0, SVG Export Plug-In . SVG Version: 6.00 Build 0)  -->
<!DOCTYPE svg PUBLIC "-//W3C//DTD SVG 1.1//EN" "http://www.w3.org/Graphics/SVG/1.1/DTD/svg11.dtd">
<svg version="1.1" id="Layer_1" xmlns="http://www.w3.org/2000/svg" xmlns:xlink="http://www.w3.org/1999/xlink" x="0px" y="0px"
	 viewBox="0 0 48 48" enable-background="new 0 0 48 48" xml:space="preserve">
<g>
	<g>
		<g>
			<path fill="#FFD15C" d="M9.6,3.3l0.9,0.9c0,0,1.4,1.7,1.5,3c0,0-0.1,0.4-0.2,0.5c0,0,1,1.1,1.3,1.4c0.3,0.2,0.4,0.7,0.2,0.9
				c-0.2,0.2-0.7,0.5-0.7,0.5s0.6,1,0,1.2c0,0,0.4,0.1,0.3,0.6c-0.1,0.5-0.1,0.6,0,0.9c0.1,0.3,0,1.4-0.6,1.5
				c-0.6,0.1-2.2,0.1-2.2,0.1s-0.8,1.9-1,2.2c-0.2,0.3-0.2,0.3-0.2,0.3l-5.6-2.7L3.6,7l3.3-3.2L9.6,3.3z"/>
		</g>
		<g>
			<path fill="#425A6B" d="M3.3,14.4l-0.2-0.1c0,0-0.1-0.8-0.8-2.5C1.5,10.2,0.1,8.2,1,5.3c0.9-2.9,6.3-3.8,7.9-3.5
				c1.6,0.2,2.6,1.7,1.5,2.4c0,0-2.9-0.1-3,0.8c0,0.9,1.1,0.7,0.9,1.5s-1.1,1-0.8,2.1c0.3,1.1,0.3,1.1,0.3,1.1L7.2,10
				c0,0-0.9-1.6-2-1.6C4,8.5,4.4,11,4.2,12.1C4,13.1,3.3,14.4,3.3,14.4z"/>
		</g>
		<g>
			<ellipse transform="matrix(0.8475 -0.5308 0.5308 0.8475 -4.4088 4.463)" fill="#FFD15C" cx="5.6" cy="9.9" rx="1.2" ry="2"/>
		</g>
		<g>
			<path fill="#F5B54C" d="M9.4,16.1c0.3-0.6,0.6-1.4,0.6-1.4c-2.5-1-3.2-1.5-4.6-3C5.4,11.7,6.7,14.4,9.4,16.1z"/>
		</g>
	</g>
	<g>
		<path fill="#F3F3F3" d="M9.9,16.5L9.3,19l-6.5-3.5L3,14c0.3,0,2.3,0.6,3.6,1C7.8,15.3,8.9,15.9,9.9,16.5z"/>
	</g>
	<g>
		<path fill="#CED6E0" d="M24.1,27.9c0,0-0.3,0.1-0.4,1.7c-0.2,1.6-1,10.3-1,10.3l6.4,0.6l0.8-11.7L24.1,27.9z"/>
	</g>
	<g>
		<path fill="#344A5E" d="M2.3,16.8c0,0-2,2.5-2.1,5.2c-0.1,2.6-0.3,5.3,0.2,6.6c0.5,1.3,2.9,9.7,3,11.8c0.1,2.2-0.2,5.9-0.2,5.9
			h16.2c0,0-0.5-11.1-2.2-14.3c-1.7-3.2-1.2-5.2-3.3-8.5c-2.1-3.2-4.3-5.1-5.7-5.7C6.8,17.3,3.3,16.3,2.3,16.8z"/>
	</g>
	<g>
		<path fill="#425A6B" d="M2.8,15.3c0,0-0.3,1.1-0.4,1.4C2.2,16.9,2.2,17,2.5,17c0.3,0,1.6,0.2,3.3,0.8c1.7,0.6,3.7,1.4,4.5,2
			c0.8,0.6,3.5,3.8,4.3,5.6c0.8,1.8,2.8,8.6,2.8,8.6s-1.1-6.9-3.7-10.9c-2.6-4-3.2-4.2-4.4-5.1C8,17.1,5,15.3,2.8,15.3z"/>
	</g>
	<g>
		<path fill="#FFD15C" d="M35.4,29.5c0,0-0.4,1.6-0.6,1.6l-3.3,0.1l-0.6-2.4l1.4-0.2h1.3C33.6,28.6,35.4,28.5,35.4,29.5z"/>
	</g>
	<g>
		<path fill="#CED6E0" d="M38.5,26.2c0,0,0-0.8,0.2-1c0.2-0.2,0.6-0.6,0.7-0.9c0.1-0.2-1-0.3-1.2,0c-0.3,0.3-0.3,1-0.3,1
			S36.9,26.3,38.5,26.2z"/>
	</g>
	<g>
		<path fill="#CED6E0" d="M38.5,26.1c0,0,1.3-0.7,1.6-1c0.3-0.3,1.2-0.9,1.5-1c0.3-0.1,0.9,0,0.8,0.5c0,0.5-0.3,0.5-0.3,0.5
			L38.5,26.1z"/>
	</g>
	<g>
		<path fill="#E8EAE8" d="M36.4,25.4c0-0.1-0.1-0.9,0.5-1.2c0.5-0.3,1.2,0.1,1.2,0.5c0.1,0.4,0.1,1,0.3,1.2c0.1,0.2,1.2,0,1.5-0.2
			c0.4-0.2,1.5-0.7,1.9-0.9c0.4-0.2,1.4-0.7,1.8-0.8c0.3-0.1,0.9,0.1,0.9,0.4c0,0.4-0.7,0.6-1.1,0.7c-0.4,0.1-1.3,0.9-1.7,1.2
			c-0.4,0.2-1.2,0.5-1.4,0.8c-0.2,0.2-2,1.9-2.4,2.2c-0.4,0.3-2.7,1.9-3.1,2c0,0,0.2-0.1,0.1-0.6c-0.2-0.9-1.3-1.9-1.3-2
			c0,0,0.4-0.4,0.7-0.7c0.3-0.2,0.8-0.5,1-0.8C35.5,26.8,36.4,25.4,36.4,25.4z"/>
	</g>
	<g>
		<path fill="#425A6B" d="M33.2,23.3c0.2,0.6,0.7,1,1.4,1h12c0.6,0,1.2-0.4,1.4-1H33.2z"/>
	</g>
	<g>
		<path fill="#425A6B" d="M32.6,28.2c0,0,0.4,0.4,0.4,1.3s-0.4,4.3-0.4,4.3s-8,0.4-10.1,0.4c-2,0-3.7,0.2-5.4-0.4
			c-1.7-0.6-7.6-2.9-8.7-3.2c-1.1-0.3-4.3-1.8-5-4.8c-0.7-3,0-4.8,0.6-5.5c0.6-0.7,2.4-1.6,4.6-0.8c2.2,0.9,3.6,2.6,3.8,3.3
			c0,0,0.8,0.4,0.8,0.9c0,0,0.4-0.1,0.9,0.3c0.5,0.4,0.9,0.9,1.3,1.2c0.4,0.3,2.6,1.5,3.2,1.8c0.6,0.3,4.5,1.2,6.8,1.1
			C27.5,28.3,32.6,28.2,32.6,28.2z"/>
	</g>
	<g>
		<path fill="#E8EAE8" d="M24.1,27.9c0,0,0.2,0.6,0.3,1.5c0,0.9,0,10.4,0,10.4l7.3,0.1V29.8c0,0,0-1.2-0.6-1.6L24.1,27.9z"/>
	</g>
</g>
</svg>
