<?xml version="1.0" encoding="utf-8"?>
<!-- Generator: Adobe Illustrator 19.0.1, SVG Export Plug-In . SVG Version: 6.00 Build 0)  -->
<svg version="1.1" id="Layer_1" xmlns="http://www.w3.org/2000/svg" xmlns:xlink="http://www.w3.org/1999/xlink" x="0px" y="0px"
	 viewBox="0 0 48 48" style="enable-background:new 0 0 48 48;" xml:space="preserve">
<style type="text/css">
	.st0{fill:#FFD15C;}
	.st1{fill:#415A6B;}
	.st2{fill:#F7B64C;}
	.st3{fill:#CED6E0;}
	.st4{fill:#344A5E;}
	.st5{fill:#F3F3F3;}
	.st6{fill:#F05540;}
	.st7{fill:#F3705A;}
	.st8{fill:#66C6B9;}
	.st9{fill:#55C0EB;}
	.st10{fill:#F5F6FB;}
	.st11{fill:#4ABAA5;}
	.st12{fill:#ADB3BA;}
	.st13{fill:#E8EAE9;}
	.st14{fill:#2E4556;}
	.st15{fill:#8AD7F8;}
	.st16{fill:#FFFFFF;}
	.st17{fill:#E54838;}
	.st18{fill:#3EAF99;}
	.st19{fill:#EFA943;}
	.st20{fill:#4CAEE5;}
	.st21{fill:#293F4F;}
	.st22{fill:#2D4456;}
	.st23{fill:#2E4454;}
	.st24{fill:#2A3F4F;}
	.st25{fill:#2D4151;}
	.st26{fill:#E89E3D;}
	.st27{fill:#2B4151;}
	.st28{fill:#2A4051;}
	.st29{fill:#2C4151;}
	.st30{fill:#EBEAE8;}
	.st31{fill:#3AA590;}
	.st32{fill:#E84534;}
	.st33{fill:none;}
</style>
<g>
	<g>
		<path class="st1" d="M24.2,17.4c1.2-0.1,1.2-0.1,1.2-0.1l1.4,11.8l-0.9,1.3c0,0-3.6-5-3.5-7S23,17.6,24.2,17.4z"/>
	</g>
	<g>
		<g>
			<g>
				<polygon class="st6" points="0,35.3 0,44.8 48,44.8 48,38 				"/>
			</g>
			<g>
				<rect x="0" y="41.9" class="st7" width="48" height="2.9"/>
			</g>
			<g>
				<g>
					<path class="st4" d="M29.3,15.9c0,0-4,1.1-4.5,1.3c-0.6,0.2-1.2,0.4-1.3,1.4c-0.1,1-0.6,5.2,1.1,9.1l-1.3,8.5l7.2,0.1l-0.9-5.5
						C29.7,30.8,28.5,17.9,29.3,15.9z"/>
				</g>
				<g>
					<path class="st4" d="M38,16.3c0,0,4.5,0.7,7.9,3.5l-3.1,16.5l-13.5,1.4l0-2.9C30,32.6,34.5,23.5,38,16.3z"/>
				</g>
				<g>
					<path class="st0" d="M29.5,35.2c0,0-2.3,0.3-3.3,0.3s-2.4-0.7-3.2-1c-0.8-0.3-1.2-0.1-1.7,0.2c-0.4,0.3-1.2,2.6-1.2,2.9
						s4.6,0.9,5.8,0.7s1.6-0.3,2.4-0.3c0.8,0,2.5,0,2.5,0S32,35.4,29.5,35.2z"/>
				</g>
				<path class="st2" d="M21.4,34.6c-0.4,0.3-1,1.9-1.2,2.6c0.1,0.1,0.2,0.3,0.4,0.5c0.4,0.1,1,0.2,1.7,0.3c0-0.2-0.1-0.3-0.2-0.4
					c0,0-0.1-0.1-0.2-0.3c0.2,0.2,0.4,0.3,0.5,0.3c0.2,0,0.4-0.1,0.5-0.3c0.1-0.2,0.2-0.5,0.1-0.7c-0.2-0.4-1.1-1.5-1.3-1.8
					c0,0,0.1-0.1,0.2-0.1c0,0,0,0,0.1,0c0.1,0,0.6,0.6,0.9,0.9c0.4,0.4,0.6,0.7,0.7,0.7c0.1,0.1,0.2,0.1,0.3,0.1
					c0.1,0,0.2,0,0.4-0.1c0.2-0.2,0-0.6-0.2-1c0-0.1,0-0.1-0.1-0.1c0-0.1-0.2-0.3-0.4-0.6c-0.2-0.1-0.4-0.2-0.5-0.2
					C22.2,34.1,21.8,34.2,21.4,34.6z"/>
				<g>
					<path class="st0" d="M20.2,37c0,0,1,1.4,1.6,1.4s0.5-0.6,0.3-0.8S20.7,36,20.7,36l0.1-0.1c0,0,1.4,1.7,1.7,1.7
						c0.3,0,0.7-0.4,0.5-0.9c-0.2-0.4-1.3-1.8-1.3-1.8s0.2-0.2,0.4-0.1c0.2,0.1,1.4,1.5,1.6,1.6c0.2,0.1,0.4,0.1,0.6,0
						c0.2-0.2-0.2-0.9-0.3-1.1s-1.2-1.7-1.4-1.9s-1.3-0.7-1.5,0c0,0-0.2,0.3-0.5,0.3s-0.6,0.2-0.6,0.6C19.7,34.5,20.2,37,20.2,37z"
						/>
				</g>
				<g>
					<path class="st5" d="M28.9,35.1c0,0,0.8,0.2,1.1,1.1c0.3,1,0.1,2,0.1,2h2.7v-3.4L28.9,35.1z"/>
				</g>
				<g>
					<path class="st0" d="M27.7,11.8l0.4,1.8c0,0,0.1,1.3,1.9,3.1l0.4,5.3l3.8-0.4c1.6-1.9,2.6-3,4.3-4.9v0c0,0-2.3-1.4-2.5-2
						c-0.2-0.6-0.2-2.9-0.2-2.9s0-4.7-0.8-6.3s-7.2-0.4-7.6,1.5C27.1,9,27.7,11.8,27.7,11.8z"/>
				</g>
				<path class="st2" d="M35.9,14.1C35.9,14.1,35.9,14.1,35.9,14.1c-1.9,3.6-4.1,3.4-4.1,3.4c-1.3,0.1-1.8-0.7-1.8-0.7l0.2,3.1
					C34.6,18.9,35.8,14.5,35.9,14.1z"/>
				<g>
					<path class="st13" d="M30,16.7l0.2,2.7c0,0-0.7,0.3-1.5,2.3v-3.9L30,16.7z"/>
				</g>
				<g>
					<path class="st3" d="M30.3,19.4c0,0,0.2,0.1,0.5,0.5c0.2,0.3,0.8,1.6,0.8,1.6s0.4-0.9,0.5-1.3c0.1-0.4,0-0.8,0.3-1
						c0.3-0.1,1.2-0.1,1.2-0.1l3.5,0.1L29.8,33l-1.3-13.8C28.5,19.2,29.9,18.9,30.3,19.4z"/>
				</g>
				<g>
					<path class="st1" d="M27.7,11.8c-0.1-1-0.1-2-0.2-3c0-0.4-0.1-0.7,0-1.1c0.1-0.4,0.3-0.7,0.6-0.8c0.2-0.1,0.5-0.1,0.7-0.1
						l4.1,0c0.4,0,0.9,0,1.2,0.3c0.1,0.1,0.2,0.3,0.3,0.4c1.2,1.4,0.3,3.6,0.4,4l1.8,0c0-0.1,0-0.3,0-0.4c0-1.1,0-2.2,0-3.4
						c0-0.9,0-1.9-0.5-2.7c-0.5-0.9-1.5-1.5-2.5-1.7s-2.1-0.1-3.1,0.2c-0.7,0.2-1.5,0.4-2,0.9c-0.4,0.4-0.7,0.9-0.9,1.4
						c-0.5,0.5-0.7,1.1-0.8,1.8c-0.1,0.7,0,1.4,0.1,2.1C27.1,10.4,27.7,11.8,27.7,11.8z"/>
				</g>
				<g>
					
						<ellipse transform="matrix(0.9987 5.155592e-002 -5.155592e-002 0.9987 0.6167 -1.8493)" class="st0" cx="36.2" cy="11" rx="0.9" ry="1.6"/>
				</g>
				<g>
					<path class="st13" d="M36.2,14.9c0,0,0.3,1.6-3.7,4.3c0,0,2.3,1.2,2.5,3.1l2.8-6.1L36.2,14.9z"/>
				</g>
				<g>
					<path class="st1" d="M36.8,15.4c0,0-0.8,2.2-2.1,4.6s-5.3,13.2-5.4,14.8c0,0,0.9-2.2,1.5-3.1S38,21.5,38,21.5l-1.2-1.1l1.2-0.6
						c0,0,0.8-2.6,0.6-3.3C38.5,15.8,38.2,16,36.8,15.4z"/>
				</g>
				<g>
					<path class="st1" d="M30.2,32.4l-0.3,0.7c-1.6-4.3-2.7-8.6-2.9-12.7l1.1-0.8l-0.5-0.5l1.8-3.2c0.2,0.2,0.3,0.4,0.5,0.6
						c-0.1,0.5-0.5,3.5-0.3,7.4C29.8,28.1,30.5,31.2,30.2,32.4z"/>
				</g>
				<g>
					<path class="st1" d="M40.2,27c0,0,0.3-2.9,2-5.3s3.8-1.9,3.8-1.9s1,0.6,0.6,3s-0.3,6.9-0.3,8.5c0,1.6,0.3,5.8-2.4,6.5
						c-2.7,0.8-12.4,0.8-12.4,0.8s0.6-2.6-0.3-3.3c-0.9-0.6-0.9-0.6-0.9-0.6s3-0.5,4.5-0.5c1.5,0,4.6-0.6,4.6-0.6s0.1-1.1,0.4-1.9
						s0.2-2.2,0.3-2.9C40.2,28.1,40.2,27,40.2,27z"/>
				</g>
			</g>
		</g>
		<path class="st1" d="M25.8,30.5c0,0.5-0.3,4.7-0.3,4.7c-0.7-0.4-1.3-0.7-1.9-0.9c-2.8-1-4.5,0.3-4.5,0.3v-1c0,0,1.1-3.1,1.5-4.2
			c0.4-1.1,0.7-2.9,0.7-3.6s0.3-0.8,0.4-1.3s0.5-3.6,1.1-5.4c0.6-1.8,1.3-1.7,1.3-1.7c-0.3,0.2-0.6,0.5-0.7,1.1
			c-0.1,1-0.6,5.2,1.1,9.1C24.6,27.7,25.8,30,25.8,30.5z"/>
		<g>
			<g>
				<path class="st12" d="M28.3,38.8c0,0,0.6-0.4,0.6-0.6l-10.4-0.8l1.6,2.5L28.3,38.8z"/>
			</g>
			<g>
				<path class="st3" d="M28.9,38.2c-0.1,0.3-5.3,0.9-6.6,1.2c-0.7,0.1-1.2,0.2-1.5,0.2l0.1,0.9c0,0,6-0.9,7.2-1
					C29.2,39.3,28.9,38.2,28.9,38.2z"/>
			</g>
			<g>
				<g>
					<path class="st3" d="M20.9,40.4l-2.2-14.3c0-0.3-0.3-0.6-0.6-0.6L0.4,24.4l2.5,13.4L20.9,40.4z"/>
				</g>
				<g>
					<g>
						<path class="st13" d="M20.9,40.4c-0.1,0-0.3-0.1-0.3-0.2l-2.1-14.1c0-0.2-0.2-0.3-0.4-0.4L0.7,24.6c-0.1,0-0.2-0.1-0.2-0.3h0
							c0-0.1,0.1-0.2,0.3-0.2l17.4,1.2c0.4,0,0.8,0.4,0.9,0.8l2.1,14.1C21.1,40.3,21,40.4,20.9,40.4L20.9,40.4z"/>
					</g>
				</g>
			</g>
		</g>
	</g>
</g>
</svg>
