<?xml version="1.0" encoding="utf-8"?>
<!-- Generator: Adobe Illustrator 19.0.1, SVG Export Plug-In . SVG Version: 6.00 Build 0)  -->
<svg version="1.1" id="Layer_1" xmlns="http://www.w3.org/2000/svg" xmlns:xlink="http://www.w3.org/1999/xlink" x="0px" y="0px"
	 viewBox="0 0 48 48" style="enable-background:new 0 0 48 48;" xml:space="preserve">
<style type="text/css">
	.st0{fill:#FFD15C;}
	.st1{fill:#415A6B;}
	.st2{fill:#F7B64C;}
	.st3{fill:#CED6E0;}
	.st4{fill:#344A5E;}
	.st5{fill:#F3F3F3;}
	.st6{fill:#F05540;}
	.st7{fill:#F3705A;}
	.st8{fill:#66C6B9;}
	.st9{fill:#55C0EB;}
	.st10{fill:#F5F6FB;}
	.st11{fill:#4ABAA5;}
	.st12{fill:#ADB3BA;}
	.st13{fill:#E8EAE9;}
	.st14{fill:#2E4556;}
	.st15{fill:#8AD7F8;}
	.st16{fill:#FFFFFF;}
	.st17{fill:#E54838;}
	.st18{fill:#3EAF99;}
	.st19{fill:#EFA943;}
	.st20{fill:#4CAEE5;}
	.st21{fill:#293F4F;}
	.st22{fill:#2D4456;}
	.st23{fill:#2E4454;}
	.st24{fill:#2A3F4F;}
	.st25{fill:#2D4151;}
	.st26{fill:#E89E3D;}
	.st27{fill:#2B4151;}
	.st28{fill:#2A4051;}
	.st29{fill:#2C4151;}
	.st30{fill:#EBEAE8;}
	.st31{fill:#3AA590;}
	.st32{fill:#E84534;}
	.st33{fill:none;}
</style>
<g>
	<g>
		<path class="st1" d="M37.7,25.6c0,0,1.1,2.6,0.5,5.3c-0.6,2.7-0.9,6.9-0.9,6.9h-8.4l-2.9-13.6L37.7,25.6z"/>
	</g>
	<g>
		<g>
			<path class="st1" d="M8.1,28.1c0,0-1,2.5,1,5.2v4.8h5.4h5.8c0,0-1-4.1-1.2-5.3c-0.2-1.2-0.3-3.6-0.6-4c-0.3-0.4-0.3-0.4-0.3-0.4
				S10.3,24.8,8.1,28.1z"/>
		</g>
		<path class="st4" d="M16.2,34C15.7,34,17,33,17.4,32.7c0.4-0.4-0.9,0.4-1.2,0.3c-0.3-0.2,0.5-1.2,0.5-1.5c0-0.3-0.5,0.8-0.8,1
			c-0.3,0.2-0.1-0.2,0-0.6c0.1-0.4-0.3,0.4-0.3,0.8c0,0.5-0.2,1.2-0.4,1.9c-0.2,0.7-0.5,3.6-0.5,3.6h2.7
			C17.3,36.8,16.6,33.9,16.2,34z"/>
		<g>
			<path class="st5" d="M18,11.9c0,0,0.5,1.7,0.5,3c-0.1,1.3,0.1,3.4,0.2,4c0.2,0.7,0.3,1.8,0.3,2.6c0,0.9,0.6,6,0.6,6
				s-1.3,0.3-2,0.6c-0.8,0.2-0.8,0.2-0.8,0.2S16.5,12.6,18,11.9z"/>
		</g>
		<g>
			<path class="st4" d="M19,20.7l3.3-1.6c0.1,0,0-0.1,0-0.1l-2.2,0c0,0,0,0,0,0L17.3,20c-0.1,0,0,0.1,0,0.1L19,20.7
				C19,20.7,19,20.7,19,20.7z"/>
		</g>
		<g>
			<g>
				<path class="st0" d="M16.8,5.3c0,0,0.1,2-1.3,3.3c0,0-0.6,1.6-0.3,2.9c0.3,1.3,0.3,1.3,0.3,1.3L12.6,13l-0.8-3.3L12,7
					c0,0-0.2-1.1-0.1-1.7s-0.1-3.9,1.6-4.2s3.1,0.3,3.3,1.3C17,3.3,16.8,5.3,16.8,5.3z"/>
			</g>
			<g>
				
					<ellipse transform="matrix(0.9968 -8.009129e-002 8.009129e-002 0.9968 -0.3525 0.9637)" class="st0" cx="11.8" cy="4.9" rx="0.4" ry="0.9"/>
			</g>
			<g>
				<ellipse transform="matrix(0.9929 0.119 -0.119 0.9929 0.7468 -1.9474)" class="st0" cx="16.7" cy="5.3" rx="0.4" ry="0.9"/>
			</g>
			<g>
				<path class="st1" d="M11.9,5.3h0.3c0,0-0.1-1.5,0.2-1.9S12.6,2.1,13,2c0.4-0.1,2.3,0.7,3.3,0.5c0,0,0.4-0.1,0.4,0.4
					c0,0.6,0,2.3,0,2.3h0.1c0,0,0.3-1.9,0.3-2.8s-0.6-1.8-1.5-2.2c-0.9-0.4-3.5-0.5-3.3,1c0,0-0.5,0.4-0.5,1.7
					C11.8,3.9,11.9,5.3,11.9,5.3z"/>
			</g>
			<path class="st2" d="M13.8,8.7C12.9,8.4,12,7,12,7s0.4,1.4,1.4,2.1c0.5,0.4,1.2,0.7,1.8,1c0.1-0.8,0.4-1.5,0.4-1.5
				S14.6,9.1,13.8,8.7z"/>
		</g>
		<g>
			<path class="st3" d="M11.3,8.7c0,0-2.7,1.3-3.6,2.3c0,0,0.9-0.8,1.7-0.4c0.8,0.4,0.8,4.6,0.2,5.3c-0.6,0.7-2.3,4.7-1.9,8.2
				c0.4,3.5-0.1,5.7-0.1,5.7s1.2-1.7,2.3-2s2.8,0.3,3.5,0.8s2.9,1.6,3.8,1.3c0.9-0.3,1.1-1.3,1.1-1.3s-1-4.8-1-5.8
				c0-1-0.3-2.7,0-3.9c0.2-1.2,1-4.7,0.9-5.6s-0.5-2.2-0.8-2.6S15.7,10,15.7,10s-0.8,1.3-0.8,1.9c0,0-0.4-1.2-1.1-1.8
				C13,9.5,11.3,8.7,11.3,8.7z"/>
		</g>
		<g>
			<path class="st5" d="M12,7.7c0,0,1,1.7,1.8,2.5c0,0-1.3-0.3-1.8,0.4l-0.7-1.8L12,7.7z"/>
		</g>
		<g>
			<path class="st5" d="M15.5,8.7c0,0-0.5,1.3-0.4,2.4c0,0,0.8-0.4,0.9-0.5c0.2-0.1,0.4,0.3,0.4,0.3s-0.1-0.4-0.5-1.1
				C15.5,9.1,15.5,8.7,15.5,8.7z"/>
		</g>
		<path class="st5" d="M17.3,24.9c0-0.8,0-0.7-0.2-2.4c-0.3-1.8-0.7-4.9-0.7-5.6c0-0.7-0.9-5.1-1.3-5.7c-0.1,0.3-0.2,0.6-0.2,0.8
			c0,0,0.5,2,0.6,2.7s0.5,2.5,0.5,3.4c0,0.9,0.8,5,0.8,5.7c0,0.7-0.1,1.7,0,2c0.1,0.3,0.3,3.8,0.3,4.3c0.1,0,0.2,0,0.3-0.1
			c0.2-0.1,0.3-0.1,0.4-0.2c0-0.4,0-1,0-1.8C17.5,26.8,17.3,25.7,17.3,24.9z"/>
		<g>
			<path class="st0" d="M13.8,20.1c0,0,0.4,0.1,0.5,0c0.2-0.1,1.4-0.7,1.6-0.7c0.2,0,1.4-0.1,1.7,0l0.6,0.1c0,0,0,0.4-0.3,0.4l0,0
				c0,0,1.1,0.1,1.2,0.1c0.1,0,0,0.4-0.3,0.5c0,0-0.3,0.6-0.6,0.6c-0.3,0-0.3,0-0.3,0s0.1,0.5-0.5,0.6c0,0-0.2,0.5-0.7,0.6
				c-0.5,0.1-1.4,0.2-1.7,0.1c-0.3-0.1-0.5-0.1-1-0.2s-0.5-0.1-0.5-0.1L13.8,20.1"/>
		</g>
		<g>
			<path class="st5" d="M14,20c-0.1,0.3-0.2,2.7-0.2,2.7s-1.8,0-2.1,0c-0.3,0-2.6-0.1-3.5-0.3c-0.1,0-0.2-0.1-0.4-0.1
				c-0.9-0.2-2.2-0.5-2.7-0.8c-0.5-0.3-0.7-0.3-0.8-0.8c0-0.5,0-2.6,0.3-3.7C4.9,16,5.5,14.6,6,13.4C6.5,12.2,7.7,11,7.7,11l0,0
				l0.6-0.3l0,0c0.3-0.1,0.7-0.2,1.1,0c0.8,0.4,0.8,4.6,0.2,5.3c0,0,0,0,0,0c-0.3,0.4-1.2,2.9-1.3,3.1c0,0,0,0,0.4,0.2
				c0.4,0.2,0.9,0.4,1.3,0.5c0.4,0.1,0.4,0,0.9,0c0.5,0,0.8,0.2,0.8,0.2L14,20z"/>
		</g>
	</g>
	<g>
		<path class="st0" d="M35.4,6.9c0,0-0.1,1.5-0.4,2.1l0.7,2.7l-3.9,2.5l-0.7-2l0.3-1.5l0.1-1.3c0,0-0.8-1-0.8-2.6s0-1.7,0-1.7
			s0.1-2.1,2.2-1.9c2,0.2,2.4,1.3,2.5,1.8S35.4,6.9,35.4,6.9z"/>
	</g>
	<g>
		<path class="st1" d="M30.7,6.8h0.1c0,0,0-0.5,0-1.1s-0.2-1.3,0.2-1.7s2.5-0.5,3.2-0.4c0.7,0.2,0.7,0.6,0.7,1.1s0.2,2,0.2,2
			s0.5-1.4,0.2-2.7s-1.2-1.9-2.4-2c-1.1,0-2.2,0.5-2.5,1.3S30.7,6.8,30.7,6.8z"/>
	</g>
	<g>
		
			<ellipse transform="matrix(0.9973 7.399958e-002 -7.399958e-002 0.9973 0.5826 -2.5942)" class="st0" cx="35.3" cy="6.6" rx="0.4" ry="0.7"/>
	</g>
	<g>
		<path class="st0" d="M30.2,6.6c0,0.4,0.3,0.7,0.5,0.7s0.4-0.3,0.3-0.7c0-0.4-0.3-0.7-0.5-0.7C30.3,5.8,30.2,6.1,30.2,6.6z"/>
	</g>
	<path class="st2" d="M34.9,9c-0.5,0.7-1.7,1.3-2.4,1.1c-0.7-0.2-1-0.7-1-0.7l-0.1,1.3l-0.2,0.9C34.4,10.7,34.9,9,34.9,9z"/>
	<g>
		<path class="st6" d="M31.4,10.6c0,0,0.1,1.6,1.4,1.6s2.4-1.6,2.6-1.9l2,0.6c0,0,2.1,0.7,2.2,2.2c0,0-0.2,4.6-0.7,6.1
			c-0.5,1.5-0.9,3.4-0.7,4.9c0.2,1.5,0.2,3.6,0.2,3.6s-3-1.3-5.2-1c-2.2,0.3-6.3,0.1-6.3,0.1s0.8-11.9,1-12.8
			c0.3-0.9,0.4-2.1,1.1-2.5C29.7,11,31.4,10.6,31.4,10.6z"/>
	</g>
	<g>
		<path class="st0" d="M30.9,23.3c0,0,2,0.1,2.6-1c0.6-1-3.2-1.5-3.2-1.5L30.9,23.3z"/>
	</g>
	<g>
		<path class="st7" d="M29,11.4c0,0-1.2,0.6-1.6,2.3c-0.4,1.1-0.4,2.9-0.6,3.4c-0.2,0.5-0.6,2.5-0.6,2.5l-0.1,3.2c0,0,3,0.8,4.4,0.8
			c1.4-0.1,1.4-0.1,1.4-0.1s-1.1-0.6-1.1-1.7s0-1.1,0-1.1l-2.2-1.3c0,0-0.2-1-0.2-2.3C28.4,15.8,28.5,12.1,29,11.4z"/>
	</g>
	<g>
		<g>
			<polygon class="st7" points="7.5,36.8 5.2,46 43.7,46 42,36.8 			"/>
		</g>
		<g>
			<rect x="5.2" y="46" class="st6" width="38.5" height="2"/>
		</g>
	</g>
	<g>
		<path class="st7" d="M34.7,16.3c0,0-0.1-1.6,0.8-2.8s2.9-1.3,3.7-0.4c0.8,0.9-0.1,3.5-0.9,5.2s-2.5,3.9-3.7,4.2
			c-1.2,0.3-1.9,0.8-3.1,0.2c-1.2-0.5-3.8-2.1-3.8-2.1s0.2-1.7,1.7-1.7c0,0,0.5,0.3,1,0.3c0.5,0.1,2.1,0.2,2.5,0s1.4-1.6,1.6-1.9
			C34.7,17.1,34.7,16.3,34.7,16.3z"/>
	</g>
	<g>
		<path class="st0" d="M32.9,19.2c0,0,0.8-0.4,0.9-0.7c0,0,0.7-0.7,0.5-0.8c0,0,0.3-0.3,0.2-0.5s-0.4,0.1-0.5,0.3
			c-0.1,0.1-0.8,0.9-0.8,1.1C33.1,18.8,33,18.9,32.9,19.2z"/>
	</g>
	<g>
		<g>
			<path class="st1" d="M21.5,27.6l2.5,0l0.2-8.7l-1.9,1.1C21.5,22.4,21.2,24.9,21.5,27.6z"/>
		</g>
		<g>
			<path class="st1" d="M26.3,19.8c0,0,1.4,1.4,1.7,3.3c0.3,1.9-0.2,5.3-0.2,5.3l-2.4-1L26.3,19.8z"/>
		</g>
		<g>
			<path class="st2" d="M26.4,30.1c0.3-1.1,0.4-2,0.3-2.3c-0.3-1-0.3-2.6-0.3-2.6l-3.6-1c0,0,0.1,1.8,0,2.4c-0.1,0.6-1.3,1-1.3,1
				l0.6,2.5H26.4z"/>
		</g>
		<g>
			<g>
				<path class="st8" d="M17.7,34h13.7L31,28.7c-0.1-1-0.8-1.8-1.8-1.9l-2.6-0.3c-0.1,1-2,2.7-2,2.7s-1.9-1.7-2-2.7l-2.6,0.3
					c-1,0.1-1.8,0.9-1.8,1.9L17.7,34z"/>
			</g>
		</g>
		<g>
			<g>
				<path class="st0" d="M27,22.8c0,1.9-1,3.5-2.2,3.5c-1.2,0-2.2-1.6-2.2-3.5c0-5.1,1-3.5,2.2-3.5C26,19.3,27,17.7,27,22.8z"/>
			</g>
			<g>
				
					<ellipse transform="matrix(0.9958 9.186158e-002 -9.186158e-002 0.9958 2.2104 -2.3917)" class="st0" cx="27.1" cy="22.8" rx="0.3" ry="0.8"/>
				
					<ellipse transform="matrix(-0.9958 9.186158e-002 -9.186158e-002 -0.9958 46.83 43.4758)" class="st0" cx="22.4" cy="22.8" rx="0.3" ry="0.8"/>
			</g>
		</g>
		<g>
			<path class="st1" d="M24,19.7c0,0-1.2,0.1-1.6,1.4c-0.4,1.3-0.4,3.3-0.1,4.1c0.3,0.8,0.6,2.3,0.2,2.9S21.3,28.5,21,28
				s-0.7-1-1.1-1.1c0,0,0.5-0.2,0.6,0c0.2,0.2,0.5,0.9,0.7,0.9s0.9,0.1,0.9-0.6s-0.2-1.8-0.4-2.5c-0.2-0.7-0.4-3.2,0.1-4.3
				c0.5-1.1,1.3-2.9,3-2.7s2.5,1.6,2.8,2.5s0.6,3.4,0.6,3.9s-0.2,1.7-0.2,2.2c0,0.5,0.1,1.3,0.4,1.7c0,0-1.1-0.6-1.1-1.4
				c0-0.8,0.2-3.1,0-4C27.3,21.6,26.2,19.4,24,19.7z"/>
		</g>
		<g>
			<path class="st1" d="M24.9,18.6l0-1c0,0-1.2-0.2-2.1,0.6c-0.8,0.8-1.5,2.3-1.6,3.6s-0.2,4.2-0.6,4.7s-1.2,0.2-1.6,0.5
				c0,0,0.3-0.1,0.9,0.2c0.6,0.2,0.9,0.9,1.6,0.9c0.7,0.1,0.8-0.1,0.9-0.7c0.1-0.7-0.1-1.4-0.3-2c-0.2-0.6-0.3-2-0.2-2.9
				C22,21.5,22.4,19.1,24.9,18.6"/>
		</g>
	</g>
	<g>
		<g>
			<path class="st5" d="M30.9,40.6H18.2c-0.2,0-0.4-0.2-0.4-0.4l-0.6-7.4c0-0.3,0.2-0.5,0.4-0.5h13.9c0.3,0,0.5,0.2,0.4,0.5
				l-0.6,7.4C31.3,40.5,31.1,40.6,30.9,40.6z"/>
		</g>
		<g>
			<ellipse class="st3" cx="24.5" cy="36.5" rx="1.2" ry="0.7"/>
		</g>
	</g>
</g>
</svg>
