<?xml version="1.0" encoding="utf-8"?>
<!-- Generator: Adobe Illustrator 18.0.0, SVG Export Plug-In . SVG Version: 6.00 Build 0)  -->
<!DOCTYPE svg PUBLIC "-//W3C//DTD SVG 1.1//EN" "http://www.w3.org/Graphics/SVG/1.1/DTD/svg11.dtd">
<svg version="1.1" id="Layer_1" xmlns="http://www.w3.org/2000/svg" xmlns:xlink="http://www.w3.org/1999/xlink" x="0px" y="0px"
	 viewBox="0 0 48 48" enable-background="new 0 0 48 48" xml:space="preserve">
<g>
	<g>
		<g>
			<g>
				<g>
					<path fill="#FFD15C" d="M27.7,12.7c-0.2,1.3-1.1,2.3-2,2.1c-0.8-0.2-1.3-1.4-1.1-2.8c0.2-1.3,1.1-2.3,2-2.1
						C27.5,10.2,28,11.4,27.7,12.7z"/>
				</g>
				<g>
					<path fill="#FFD15C" d="M10.4,12.7c0.2,1.3,1.1,2.3,2,2.1s1.3-1.4,1.1-2.8c-0.2-1.3-1.1-2.3-2-2.1
						C10.6,10.2,10.1,11.4,10.4,12.7z"/>
				</g>
			</g>
			<g>
				<path fill="#415A6B" d="M26.2,13.8c0.6-2.4,0.9-4.6,0.9-6C26.9,3.4,23.3,0,19,0s-7.9,3.4-8,7.8c0,1.4,0.3,3.7,0.9,6H26.2z"/>
			</g>
			<g>
				<g>
					<path fill="#66C6B9" d="M38.1,36.5l-0.1-4c-0.1-2.6-1.7-5-4.1-6l-7.6-3.2L19,25.5l-7.2-2.2l-7.6,3.2c-2.4,1-4,3.4-4.1,6l-0.1,4
						H38.1z"/>
				</g>
				<polygon fill="#CED6E0" points="23.3,36.5 23.5,24.2 19,25.6 14.6,24.2 14.8,36.5 				"/>
				<polygon fill="#415A6B" points="16.3,36.5 21.8,36.5 20.3,29.8 21.6,28.1 19,25.6 16.5,28.1 17.8,29.8 				"/>
				<path fill="#F7B64C" d="M14.3,17.1v3c0.3,2.5,4.8,5.3,4.8,5.3s4.4-2.8,4.8-5.3l0-3H14.3z"/>
				<polygon fill="#E8EAE9" points="19,25.5 23.8,20.2 25.5,23.1 22.4,29.8 				"/>
				<polygon fill="#4EC0AA" points="25.2,36.5 29.2,30.5 26.4,28.7 30.3,26.2 24.7,21.7 21.2,36.5 				"/>
				<polygon fill="#E8EAE9" points="19,25.5 14.3,20.2 12.6,23.1 15.7,29.8 				"/>
				<polygon fill="#4EC0AA" points="8.9,30.5 12.9,36.5 16.9,36.5 13.4,21.7 7.8,26.2 11.6,28.7 				"/>
			</g>
			<g>
				<path fill="#FFD15C" d="M20.6,4.8c-1.7,1.6-3.7,2.9-6,3.7c-0.8,0.3-1.5,0.3-2.3,0.2c-0.4,1.1-0.6,2.3-0.6,3.5
					c0,5,3.3,9.1,7.3,9.1s7.3-4.1,7.3-9.1c0-1.5-0.3-2.9-0.8-4.2C23,8,21.4,6.6,20.6,4.8z"/>
			</g>
		</g>
		<g>
			<g>
				
					<rect x="37.4" y="34.4" transform="matrix(-0.5311 -0.8473 0.8473 -0.5311 29.3863 89.8416)" fill="#344A5E" width="4.2" height="4.9"/>
			</g>
			<g>
				<g>
					<path fill="#F3705A" d="M37.5,40.7l3.4,5.5c1.1,1.8,3.5,2.3,5.3,1.2l0,0c1.8-1.1,2.3-3.5,1.2-5.3L44,36.7L37.5,40.7z"/>
				</g>
			</g>
			<g>
				<g>
					
						<rect x="40.1" y="36.1" transform="matrix(0.5311 0.8473 -0.8473 0.5311 53.2495 -16.4542)" fill="#F05540" width="2.8" height="7.6"/>
				</g>
			</g>
			<g>
				<g>
					<path fill="#F3705A" d="M44.7,37.9l-6.5,4c-0.7,0.4-1.5,0.2-1.9-0.4c-0.4-0.7-0.2-1.5,0.4-1.9l6.5-4c0.7-0.4,1.5-0.2,1.9,0.4
						S45.4,37.5,44.7,37.9z"/>
				</g>
			</g>
			<circle fill="#F3F3F3" cx="33.5" cy="27.1" r="9.8"/>
			<path fill="#415A6B" d="M31,37.9c-5.9-1.4-9.7-7.3-8.3-13.2C24.1,18.7,30,15,36,16.3s9.7,7.3,8.3,13.2C42.9,35.5,37,39.2,31,37.9
				z M35.4,18.8c-4.6-1.1-9.2,1.8-10.3,6.4c-1.1,4.6,1.8,9.2,6.4,10.3c4.6,1.1,9.2-1.8,10.3-6.4C42.9,24.4,40,19.8,35.4,18.8z"/>
			<g>
				<g>
					<polygon fill="#FFD15C" points="30.5,33 32.3,27.9 29.5,27.9 35.3,21 33.5,26.1 36.3,26.1 					"/>
				</g>
			</g>
		</g>
	</g>
</g>
</svg>
