<?xml version="1.0" encoding="utf-8"?>
<!-- Generator: Adobe Illustrator 19.0.1, SVG Export Plug-In . SVG Version: 6.00 Build 0)  -->
<svg version="1.1" id="Layer_1" xmlns="http://www.w3.org/2000/svg" xmlns:xlink="http://www.w3.org/1999/xlink" x="0px" y="0px"
	 viewBox="0 0 48 48" style="enable-background:new 0 0 48 48;" xml:space="preserve">
<style type="text/css">
	.st0{fill:#FFD15C;}
	.st1{fill:#415A6B;}
	.st2{fill:#F7B64C;}
	.st3{fill:#CED6E0;}
	.st4{fill:#344A5E;}
	.st5{fill:#F3F3F3;}
	.st6{fill:#F05540;}
	.st7{fill:#F3705A;}
	.st8{fill:#66C6B9;}
	.st9{fill:#55C0EB;}
	.st10{fill:#F5F6FB;}
	.st11{fill:#4ABAA5;}
	.st12{fill:#ADB3BA;}
	.st13{fill:#E8EAE9;}
	.st14{fill:#2E4556;}
	.st15{fill:#8AD7F8;}
	.st16{fill:#FFFFFF;}
	.st17{fill:#E54838;}
	.st18{fill:#3EAF99;}
	.st19{fill:#EFA943;}
	.st20{fill:#4CAEE5;}
	.st21{fill:#293F4F;}
	.st22{fill:#2D4456;}
	.st23{fill:#2E4454;}
	.st24{fill:#2A3F4F;}
	.st25{fill:#2D4151;}
	.st26{fill:#E89E3D;}
	.st27{fill:#2B4151;}
	.st28{fill:#2A4051;}
	.st29{fill:#2C4151;}
	.st30{fill:#EBEAE8;}
	.st31{fill:#3AA590;}
	.st32{fill:#E84534;}
	.st33{fill:none;}
</style>
<g>
	<g>
		<g>
			<g>
				<path class="st1" d="M8.5,29.8l31.3,0.5c0.5,0,1-0.4,1-1L39.9,3.6c0-0.5-0.5-0.9-1-0.9L7.7,4.1c-0.5,0-0.9,0.5-0.9,1l0.8,23.8
					C7.6,29.4,8,29.8,8.5,29.8z"/>
			</g>
		</g>
		<g>
			<polygon class="st5" points="38.3,27.8 9.9,27.4 9.3,8.1 37.6,6.8 			"/>
		</g>
	</g>
	<g>
		<g>
			<g>
				<path class="st0" d="M37.4,20.8c0,0-0.3-4,1.3-4.7c1.5-0.8,2.1,0.2,2.3,0.7c0.2,0.5,0.2,2.6,0.2,2.6s0.2,0,1,0.8
					c0.9,0.8,1.4,1.3,2,1.7c0.5,0.5,0.7,0.9,0.7,1.9c0,1-0.5,3.8-0.6,5.7c-0.1,2-0.5,4.1,0,5.9c0.4,1.8,0.4,1.8,0.4,1.8l-7.4,0.8
					l-0.5-1.4c0,0-0.4-2.6-0.5-3.3c-0.2-0.7-1.7-3.9-0.5-6.7C36.9,23.9,37.5,23.3,37.4,20.8z"/>
			</g>
			<g>
				<path class="st16" d="M38.4,16.8c0,0,0.5-0.9,1.4-0.8c0.9,0.1,0.9,0.8,0.9,0.8s0,1.4-0.5,1.5c-0.6,0.2-1.3,0-1.5-0.3
					C38.5,17.8,38.4,17.1,38.4,16.8z"/>
			</g>
			<g>
				<path class="st2" d="M41.1,19.1c0,0,0,0.1,0,0.3c0,0.2,0,0.5,0,0.8c0,0.2,0,0.3,0,0.5c0,0.2,0,0.4-0.1,0.6l0,0.1l0,0.1
					c0,0,0,0.1,0,0.1c0,0,0,0.1,0,0.1c0,0,0,0.1,0,0.2c0,0.2,0,0.4,0.1,0.6c0,0.2,0.1,0.4,0.1,0.6c0.1,0.2,0.1,0.4,0.2,0.6
					c0,0,0,0.1,0,0.2c0,0.1,0,0.1,0,0.2c0,0.1,0,0.2,0,0.3c0,0.2,0,0.4,0,0.5c0,0.3,0,0.6,0,0.8c0,0.2,0,0.3,0,0.3s0-0.1,0-0.3
					c0-0.2,0-0.5-0.1-0.8c0-0.2,0-0.3-0.1-0.5c0-0.1,0-0.2,0-0.3c0-0.1,0-0.2-0.1-0.3c-0.1-0.2-0.1-0.4-0.2-0.6
					c-0.1-0.2-0.1-0.4-0.1-0.6c0-0.2-0.1-0.4-0.1-0.7c0-0.1,0-0.2,0-0.3c0-0.1,0-0.1,0-0.2c0,0,0-0.1,0.1-0.1
					c0.1-0.2,0.1-0.4,0.1-0.5c0-0.2,0.1-0.4,0.1-0.5C41,19.5,41.1,19.1,41.1,19.1z"/>
			</g>
		</g>
		<g>
			<path class="st13" d="M36,37.7c0,0,0.6-2.2,3.8-3c3.2-0.8,4.7,0.6,4.7,0.6l1.7,2.9l-9.3,2.4L36,37.7z"/>
		</g>
		<g>
			<path class="st1" d="M36,39.2c0,0,3.9-2.7,6.5-3c2.7-0.4,2.9,0.2,2.9,0.2l2.6,4.3l-9.7,3.8L36,39.2z"/>
		</g>
	</g>
	<g>
		<g>
			<g>
				<path class="st0" d="M10.6,21.6c0,0,0.2-4-1.3-4.7S7.2,17,7.1,17.6c-0.2,0.5-0.2,2.6-0.2,2.6s-0.2,0-1,0.8s-1.4,1.3-2,1.7
					s-0.7,0.9-0.7,1.9c0,1,0.5,3.7,0.6,5.7c0.1,2,0.5,4.1,0,5.9c-0.4,1.8-0.4,1.8-0.4,1.8l7.4,0.8l0.5-1.4c0,0,0.4-2.6,0.5-3.3
					c0.2-0.7,1.7-3.9,0.5-6.7S10.5,24.1,10.6,21.6z"/>
			</g>
			<g>
				<path class="st16" d="M9.5,17.6c0,0-0.5-0.9-1.4-0.7s-0.9,0.8-0.9,0.8s0,1.4,0.5,1.5c0.6,0.2,1.3,0,1.5-0.3S9.6,17.9,9.5,17.6z"
					/>
			</g>
			<g>
				<path class="st2" d="M6.9,19.9c0,0,0,0.1,0,0.3c0,0.2,0,0.5,0,0.8c0,0.2,0,0.3,0,0.5c0,0.2,0,0.4,0.1,0.6l0,0.1l0,0.1
					c0,0,0,0.1,0,0.1c0,0,0,0.1,0,0.1c0,0,0,0.1,0,0.2c0,0.2,0,0.4-0.1,0.6c0,0.2-0.1,0.4-0.1,0.6c-0.1,0.2-0.1,0.4-0.1,0.6
					c0,0,0,0.1,0,0.2c0,0.1,0,0.1,0,0.2c0,0.1,0,0.2,0,0.3c0,0.2,0,0.4,0,0.5c0,0.3,0,0.6,0,0.8c0,0.2,0,0.3,0,0.3s0-0.1,0-0.3
					c0-0.2,0-0.5,0.1-0.8c0-0.2,0-0.3,0.1-0.5c0-0.1,0-0.2,0-0.3c0-0.1,0-0.2,0.1-0.3C7,24.4,7.1,24.2,7.1,24
					c0.1-0.2,0.1-0.4,0.1-0.6c0-0.2,0.1-0.4,0.1-0.7c0-0.1,0-0.2,0-0.3c0-0.1,0-0.1,0-0.2c0,0,0-0.1-0.1-0.1
					c-0.1-0.2-0.1-0.4-0.1-0.5C7.1,21.3,7,21.1,7,21C6.9,20.3,6.9,19.9,6.9,19.9z"/>
			</g>
		</g>
		<g>
			<path class="st13" d="M12,38.5c0,0-0.6-2.2-3.8-3s-4.7,0.6-4.7,0.6l-1.7,2.9l9.3,2.4L12,38.5z"/>
		</g>
		<g>
			<path class="st1" d="M12,40c0,0-3.9-2.6-6.5-3s-2.9,0.2-2.9,0.2L0,41.5l9.7,3.8L12,40z"/>
		</g>
	</g>
	<g>
		<polygon class="st7" points="13.7,25.6 12.4,25.5 12.3,24 13.7,24 		"/>
		<polygon class="st1" points="17.5,23 17.6,25.6 19,25.6 18.9,23 		"/>
		<polygon class="st9" points="22.8,23.5 22.9,25.7 24.2,25.7 24.2,23.5 		"/>
		<polygon class="st0" points="20,19.8 20.2,25.7 21.6,25.7 21.4,19.8 		"/>
		<polygon class="st8" points="14.8,21.4 15,25.6 16.4,25.6 16.2,21.4 		"/>
		<polygon class="st7" points="26.9,25.8 25.5,25.7 25.2,18.4 26.6,18.4 		"/>
	</g>
	<g>
		<path class="st7" d="M31.1,9.2L31.1,9.2c-2.4,0-4.3,2-4.2,4.5c0.1,2.5,2.1,4.5,4.6,4.5c1.2,0,2.3-0.5,3.1-1.3l-3.2-3.2L31.1,9.2z"
			/>
		<path class="st0" d="M34.3,10.5c-0.8-0.8-1.9-1.3-3.2-1.3l0.2,4.5L34.3,10.5z"/>
		<path class="st1" d="M31.3,13.7l3.2,3.2c0.8-0.8,1.2-1.9,1.2-3.2H31.3z"/>
		<path class="st8" d="M34.3,10.5l-3,3.2h4.4l0,0C35.6,12.4,35.1,11.3,34.3,10.5z"/>
	</g>
</g>
</svg>
