<?xml version="1.0" encoding="utf-8"?>
<!-- Generator: Adobe Illustrator 18.0.0, SVG Export Plug-In . SVG Version: 6.00 Build 0)  -->
<!DOCTYPE svg PUBLIC "-//W3C//DTD SVG 1.1//EN" "http://www.w3.org/Graphics/SVG/1.1/DTD/svg11.dtd">
<svg version="1.1" id="Layer_1" xmlns="http://www.w3.org/2000/svg" xmlns:xlink="http://www.w3.org/1999/xlink" x="0px" y="0px"
	 viewBox="0 0 48 48" enable-background="new 0 0 48 48" xml:space="preserve">
<g>
	<g>
		<ellipse transform="matrix(0.9509 -0.3095 0.3095 0.9509 -9.6613 3.6652)" fill="#FFD15C" cx="6.7" cy="32.3" rx="1" ry="1.4"/>
		<ellipse transform="matrix(0.9509 0.3095 -0.3095 0.9509 10.7732 -3.3437)" fill="#FFD15C" cx="15.9" cy="32.3" rx="1" ry="1.4"/>
		<path fill="#344A5E" d="M22.6,48l-0.1-4.2c-0.1-1.6-1-2.9-2.4-3.6l-4.5-1.9l-4.3,1.4L7,38.3l-4.5,1.9c-1.4,0.6-2.4,2-2.4,3.6L0,48
			H22.6z"/>
		<polygon fill="#CED6E0" points="13.9,38.8 11.3,39.7 8.7,38.8 8.8,46.3 13.8,46.3 		"/>
		<polygon fill="#F3705A" points="9.8,48 12.8,48 13.2,47.1 12,42.4 12.8,41.1 11.3,39.7 9.8,41.1 10.6,42.4 9.4,47.1 		"/>
		<path fill="#F7B64C" d="M8.5,34.7v1.8c0.2,1.5,2.8,3.2,2.8,3.2s2.6-1.7,2.8-3.2l0-1.8H8.5z"/>
		<polygon fill="#E8EAE9" points="11.3,39.7 14.1,36.5 15.1,38.2 13.3,42.1 		"/>
		<polygon fill="#415A6B" points="13.6,48 17.3,42.6 15.7,41.5 18,40 14.7,37.4 12.1,48 		"/>
		<polygon fill="#E8EAE9" points="11.3,39.7 8.5,36.5 7.5,38.2 9.4,42.1 		"/>
		<polygon fill="#415A6B" points="5.3,42.6 9,48 10.5,48 8,37.4 4.7,40 6.9,41.5 		"/>
		<ellipse fill="#415A6B" cx="10.6" cy="29.1" rx="4.8" ry="5.4"/>
		<ellipse fill="#415A6B" cx="13.6" cy="29.1" rx="3.3" ry="4.6"/>
		<path fill="#FFD15C" d="M12.7,27c-1.1,1.5-2.7,2.5-4.9,2.5c-0.5,0-0.9-0.1-1.4-0.1c0,0.3-0.1,0.7-0.1,1c0,3.8,2.2,7,4.9,7
			c2.7,0,4.9-3.1,4.9-7c0-0.4,0-0.8-0.1-1.1C14.7,28.9,13.5,28.1,12.7,27z"/>
		<g>
			<path fill="#344A5E" d="M48,48l-0.1-4.2c-0.1-1.6-1-2.9-2.4-3.6L41,38.3l-4.3,1.3l-4.3-1.3L28,40.2c-1.4,0.6-2.4,2-2.4,3.6
				L25.4,48H48z"/>
			<polygon fill="#CED6E0" points="39.3,38.9 36.7,39.7 34.1,38.9 34.2,46.3 39.2,46.3 			"/>
			<polygon fill="#F3705A" points="35.2,48 38.2,48 38.6,47.2 37.4,42.4 38.2,41.2 36.7,39.7 35.2,41.2 36,42.4 34.8,47.2 			"/>
			<path fill="#F7B64C" d="M33.9,34.7v1.8c0.2,1.5,2.8,3.2,2.8,3.2s2.6-1.7,2.8-3.2l0-1.8H33.9z"/>
			<g>
				<path fill="#415A6B" d="M41.6,29.3c-0.1,2.9-2.3,7.2-4.9,7.2s-4.9-4.3-4.9-7.2c-0.1-3,2.1-5.5,4.9-5.5S41.7,26.3,41.6,29.3z"/>
				<g>
					<path fill="#FFD15C" d="M36.7,28.5c-0.9,0-1.8-0.1-2.6-0.3c-0.8-0.2-1.5,0.5-1.6,1.4c-0.3,3.7,1.2,7.5,4.3,7.5
						c3,0,4.5-3.9,4.3-7.6c-0.1-0.9-0.8-1.6-1.6-1.4C38.5,28.4,37.6,28.5,36.7,28.5z"/>
				</g>
				<g>
					<g>
						<path fill="#FFD15C" d="M41.7,31.8c0.1-0.7-0.1-1.4-0.5-1.5s-0.9,0.5-1.1,1.2s0.1,1.4,0.5,1.5C41.1,33.1,41.6,32.5,41.7,31.8z
							"/>
					</g>
					<g>
						<path fill="#FFD15C" d="M31.7,31.8c-0.1-0.7,0.1-1.4,0.5-1.5c0.4-0.1,0.9,0.5,1.1,1.2c0.1,0.7-0.1,1.4-0.5,1.5
							C32.3,33.1,31.8,32.5,31.7,31.8z"/>
					</g>
				</g>
			</g>
			<g>
				<g>
					<polygon fill="#E8EAE9" points="36.7,39.7 39.5,36.5 40.5,38.2 38.7,42.2 					"/>
					<g>
						<polygon fill="#415A6B" points="39.9,48 43.3,42.6 41,41.5 43.3,40.6 40,37.4 37.7,48 						"/>
					</g>
				</g>
				<g>
					<polygon fill="#E8EAE9" points="36.7,39.7 33.9,36.5 32.9,38.2 34.7,42.2 					"/>
					<g>
						<polygon fill="#415A6B" points="33.5,48 35.6,48 33.4,37.4 30.1,40.6 32.4,41.5 30.1,42.6 						"/>
					</g>
				</g>
			</g>
		</g>
		<g>
			<g>
				<g>
					<polygon fill="#344A5E" points="28.6,35.5 27.2,36.9 24,33.6 20.8,36.9 19.4,35.5 23,31.8 23,26.7 25,26.7 25,31.8 					"/>
				</g>
			</g>
		</g>
		<g>
			<path fill="#F3F3F3" d="M23,0.2c-1.7,0.9-5.3,2.8-8.6,3.8C13.6,4.3,13,5.1,13,6v4.5c0,6.5,4.3,12.2,10.5,14
				c0.4,0.1,0.7,0.1,1.1,0C30.7,22.6,35,17,35,10.5V6c0-0.9-0.6-1.7-1.4-1.9c-3.3-1-6.9-2.9-8.6-3.8C24.4-0.1,23.6-0.1,23,0.2z"/>
			<path fill="#FFFFFF" d="M32.2,12.3c0.1-0.6,0.1-1.2,0.1-1.8v-4c-3.1-1-6.4-2.7-8.4-3.7v9.5H32.2z"/>
			<path fill="#4EC0AA" d="M24,2.7L24,2.7c-1.9,1-5.2,2.7-8.4,3.7v4c0,0.6,0.1,1.2,0.1,1.8H24V2.7z"/>
			<path fill="#FFFFFF" d="M15.8,12.3c0.7,4.4,3.9,8.2,8.2,9.5v-9.5H15.8z"/>
			<path fill="#4EC0AA" d="M24,12.3v9.5l0,0c4.3-1.3,7.5-5.1,8.2-9.5H24z"/>
		</g>
	</g>
</g>
</svg>
