<?xml version="1.0" encoding="utf-8"?>
<!-- Generator: Adobe Illustrator 19.0.1, SVG Export Plug-In . SVG Version: 6.00 Build 0)  -->
<svg version="1.1" id="Layer_1" xmlns="http://www.w3.org/2000/svg" xmlns:xlink="http://www.w3.org/1999/xlink" x="0px" y="0px"
	 viewBox="0 0 48 48" style="enable-background:new 0 0 48 48;" xml:space="preserve">
<style type="text/css">
	.st0{fill:#FFD15C;}
	.st1{fill:#415A6B;}
	.st2{fill:#F7B64C;}
	.st3{fill:#CED6E0;}
	.st4{fill:#344A5E;}
	.st5{fill:#F3F3F3;}
	.st6{fill:#F05540;}
	.st7{fill:#F3705A;}
	.st8{fill:#66C6B9;}
	.st9{fill:#55C0EB;}
	.st10{fill:#F5F6FB;}
	.st11{fill:#4ABAA5;}
	.st12{fill:#ADB3BA;}
	.st13{fill:#E8EAE9;}
	.st14{fill:#2E4556;}
	.st15{fill:#8AD7F8;}
	.st16{fill:#FFFFFF;}
	.st17{fill:#E54838;}
	.st18{fill:#3EAF99;}
	.st19{fill:#EFA943;}
	.st20{fill:#4CAEE5;}
	.st21{fill:#293F4F;}
	.st22{fill:#2D4456;}
	.st23{fill:#2E4454;}
	.st24{fill:#2A3F4F;}
	.st25{fill:#2D4151;}
	.st26{fill:#E89E3D;}
	.st27{fill:#2B4151;}
	.st28{fill:#2A4051;}
	.st29{fill:#2C4151;}
	.st30{fill:#EBEAE8;}
	.st31{fill:#3AA590;}
	.st32{fill:#E84534;}
	.st33{fill:none;}
</style>
<g>
	<g>
		<g>
			<g>
				<g>
					<ellipse class="st12" cx="9.5" cy="45.6" rx="5.1" ry="2.4"/>
				</g>
			</g>
			<g>
				<path class="st3" d="M12.3,45.6c0,0.7-1.2,1.3-2.8,1.3c-1.5,0-2.8-0.6-2.8-1.3c0-0.2,0.1-0.4,0.2-0.5c1.2-1.3,1.9-3,1.9-4.8v-5
					c0-1.8-0.7-3.4-1.9-4.8c-0.1-0.2-0.2-0.3-0.2-0.5c0-0.7,1.2-1.3,2.8-1.3c1.5,0,2.8,0.6,2.8,1.3c0,0.2-0.1,0.4-0.2,0.5
					c-1.2,1.3-1.9,3-1.9,4.8v5c0,1.8,0.7,3.4,1.9,4.8C12.2,45.2,12.3,45.4,12.3,45.6z"/>
			</g>
			<g>
				<g>
					<ellipse class="st13" cx="9.5" cy="27.9" rx="9.5" ry="2.8"/>
				</g>
			</g>
		</g>
		<g>
			<g>
				<g>
					<polygon class="st4" points="16.7,28.9 16.8,28.7 14.5,25.6 6.4,26 8,29.5 					"/>
				</g>
			</g>
			<g>
				<g>
					<path class="st1" d="M8,29.3l8.5-0.4c0,0,0.2,0,0.4-0.2v0.2c0,0.2-0.1,0.3-0.3,0.3c0,0,0,0,0,0c-0.1,0-8.6,0.5-8.6,0.5L8,29.3z
						"/>
				</g>
			</g>
			<g>
				<g>
					<path class="st1" d="M8,29.7c-0.1,0-0.2,0-0.2-0.1L4,21.9c0,0,0,0,0,0l-1-2.4c0-0.1,0-0.2,0.1-0.3c0.1,0,0.2,0,0.3,0.1l1,2.3
						l3.8,7.7C8.2,29.5,8.2,29.7,8,29.7C8,29.7,8,29.7,8,29.7z"/>
				</g>
			</g>
		</g>
	</g>
	<g>
		<g>
			<rect x="20.1" y="37" class="st13" width="3.4" height="3.4"/>
		</g>
		<g>
			<g>
				<path class="st3" d="M24.2,40.1c0.1,0.3,0.1,0.6,0,0.9l-1.6,1.1l-0.1-0.4c0,0-1.9,1.6-4,2c-2.1,0.4-4.2,0.2-3.6-1l8.2-2.6
					L24.2,40.1z"/>
			</g>
		</g>
		<g>
			<g>
				<path class="st8" d="M19.7,38.4c0,0-0.7,1.1-1.3,1.6c-0.5,0.5-1.6,1.2-2.4,1.5c-0.8,0.3-1.6,1.1-1.1,1.7
					c0.5,0.6,2.8,0.6,3.8,0.2c1-0.4,2.8-1.2,3.4-1.8s2-1,2-1.5c0-0.5-0.8-2.1-0.8-2.1s-0.4,1.2-0.9,1.5c-0.5,0.3-1,0.3-1,0.3
					S20.9,38.3,19.7,38.4z"/>
			</g>
		</g>
		<g>
			<g>
				<g>
					<path class="st12" d="M24.9,39.6c-0.3,0-0.5-0.1-0.7-0.3c-0.2-0.3-0.3-0.6-0.2-1c0.8-2.3,2.7-7.8,3.2-9.3v0
						c0.1-0.3,0.4-0.6,0.7-0.6l8.3-1.7c0.5-0.1,0.9,0.2,1.1,0.6l2.8,7c0.1,0.3,0.1,0.5,0,0.8c-0.1,0.2-0.3,0.4-0.6,0.5l-14.3,4
						C25.1,39.6,25,39.6,24.9,39.6z M27.8,29.3c-0.5,1.5-2.4,7-3.2,9.3c0,0.1,0,0.2,0.1,0.3C24.7,39,24.8,39,25,39l14.3-4
						c0.1,0,0.2-0.1,0.2-0.2c0-0.1,0-0.2,0-0.3l-2.8-7c-0.1-0.1-0.2-0.2-0.4-0.2L28,29C27.9,29.1,27.8,29.1,27.8,29.3L27.8,29.3z"/>
				</g>
			</g>
			<g>
				<g>
					<path class="st12" d="M38,41.5c-0.2,0-0.3,0-0.5-0.1l-13.1-7.6c-0.4-0.2-0.6-0.7-0.4-1.1l1.5-4.7c0.1-0.4,0.6-0.7,1-0.7
						l9.3,1.2c0.4,0.1,0.7,0.4,0.8,0.8l2.3,11.1c0.1,0.4-0.1,0.8-0.4,1C38.4,41.4,38.2,41.5,38,41.5z M26.4,27.9
						c-0.1,0-0.3,0.1-0.3,0.2l-1.5,4.7c0,0.1,0,0.3,0.2,0.4l13.1,7.6c0.2,0.1,0.3,0,0.4,0c0,0,0.2-0.1,0.1-0.3l-2.3-11.1
						c0-0.1-0.1-0.2-0.3-0.3L26.4,27.9C26.4,27.9,26.4,27.9,26.4,27.9z"/>
				</g>
			</g>
			<g>
				<g>
					<g>
						<path class="st7" d="M46.7,16.7c0,0,0.7,2.3-1.5,5.4c-2.2,3-3.9,5.9-4.4,7.1c-0.6,1.3-2.1,1.9-3.1,2.1c-1,0.2-6.3,0.6-9.5-0.5
							c-3.2-1.1-6.3-2.3-6.5-4.9s0.5-7.5,2.8-9.7s9.8-4.3,13.4-3.8C41.4,13,46.7,16.7,46.7,16.7z"/>
					</g>
				</g>
				<g>
					<g>
						<path class="st6" d="M45.8,20.5c-0.5,1.4-1,1.7-5.8,5.1c-2.9,2-7.5,3-10.8,3.5c-1.2,0.2-2.5-0.1-3.5-0.8
							c-1.1-0.8-1.8-2.1-2-4.1c-0.5-5,2.3-7.3,5.2-8.8c2.9-1.5,13.6-5,15.3-3.2C45.8,14,46.3,19.2,45.8,20.5z"/>
					</g>
				</g>
				<g>
					<g>
						<path class="st0" d="M27.3,16.5c0,0-0.2,0.6-0.5,1c-0.3,0.3-0.3,0.3-0.3,0.3l-1.7-1c0,0,1-0.7,1.3-1.1
							c0.3-0.4,0.5-0.5,0.5-0.5L27.3,16.5z"/>
					</g>
				</g>
				<g>
					<g>
						<path class="st1" d="M33.8,17.4l3.6,2.8c0,0-0.1,4.8-2,5.7c-1.9,0.9-3.2,1-5.1,1.6c-1.9,0.6-2.4,1.6-3,2.5s-3.1,7.8-3.3,8.4
							c-0.2,0.6-1.3,0.9-2.1,0.8s-2.8-0.9-2.8-0.9s3.3-10.8,3.5-11.6c0.2-0.8,0.1-1.6,1.8-2.5c1.7-0.9,3.1-1.2,3.8-1.6
							c0.8-0.4,2.4-1.2,2.4-1.2L33.8,17.4L33.8,17.4z"/>
					</g>
				</g>
				<g>
					<g>
						<path class="st4" d="M22.4,23c0,0-0.5,1.2-0.1,1.8c0.4,0.5,0.7,0.6,1,0.7c0.4,0.1,0.7,0.3,0.8,0.5s4.6-0.4,4.1-1.2
							C27.7,24,22.4,23,22.4,23z"/>
					</g>
				</g>
				<g>
					<path class="st1" d="M32.6,19.4l-1.5,0c0,0-0.7-0.4-0.9-0.4c-0.2,0-2-0.9-3.1-1.6c-1-0.6-2.1-1.6-2.9-1.8s-2.7-0.1-2.8,1.3
						c-0.1,1.4,0.8,6.6,0.7,7.1c-0.1,0.5,0.2,0.9,0.2,0.9s-0.2-0.5-0.1-0.7s0.6,0.3,1.1,0.3s1.2,0,1.8-0.2c0.7-0.2,2.7,0.3,3.1,0.6
						l-0.5-2l4.2-1.3L32.6,19.4z"/>
				</g>
				<g>
					<g>
						<path class="st4" d="M31.1,20.7c0,0.1,0,0.1,0,0.2l-0.4,0.5c0,0-1.7,0.8-2.4,1.2c-0.1,0.1-0.3,0.1-0.5,0.2
							c-0.1-0.9-0.5-1.7-0.9-2.5c-0.3-0.7-0.7-1.5-1.3-2.1c-0.4-0.4-0.9-0.7-1.4-1c0.6,0.1,1.2,0.5,1.6,1c0.4,0.5,0.7,1,1,1.6
							c0.2,0.4,0.4,0.8,0.8,1.1c0.3,0.2,0.8,0.3,1.2,0.3c0.2,0,0.4,0,0.6-0.1c0.3-0.1,0.4-0.4,0.5-0.7c0-0.3,0-0.6,0-0.9
							c0.1,0.3,0.3,0.5,0.4,0.8c0,0.1,0.1,0.2,0.2,0.3C30.5,20.8,30.9,20.7,31.1,20.7z"/>
					</g>
				</g>
				<g>
					<g>
						<path class="st13" d="M27.4,14.5l-1.1,0.7c0,0,0.8,0.8,1,1.2l1.5-1L27.4,14.5z"/>
					</g>
				</g>
			</g>
		</g>
		<g>
			<g>
				<path class="st1" d="M27.1,14.5c0,0,1.6,1.6,2.1,2.2c0,0,1.3-0.7,2-1.2s2.3-1.5,2.7-1.6s0.9-0.2,0.9-0.2s2.1-4.1,2.8-4.7
					s0.5-0.9,0.5-0.9s-1.3,0.6-1.7,1s-0.6,0.6-0.7,0.8c-0.1,0.2-0.3,0.3-0.4,0.4c-0.1,0.1-0.2,0.3-0.6,0.3c-0.4,0.1-0.8,0.4-1.3,0.6
					c-0.5,0.2-1.4,0.3-1.8,0.6c-0.4,0.3-0.4,0.3-0.8,0.6C30.3,12.7,27.1,14.5,27.1,14.5z"/>
			</g>
		</g>
		<g>
			<g>
				<path class="st4" d="M39.4,8.4l-0.8-0.5c0,0-0.4-0.1-1.3,0.8s-1.7,2.6-2.1,3.5c-0.4,0.9-1.6,4.1-2.5,5.2c-0.8,1.1-1.7,2-1.7,2
					l1.2,0.1c0,0,2.5-5,3.1-6s2.8-4.2,3.4-4.6C39.3,8.5,39.4,8.4,39.4,8.4z"/>
			</g>
		</g>
		<g>
			<g>
				<path class="st0" d="M40.2,1c0,0-1.1,0.2-1.4,0.8C38.6,2.5,38,3.3,38,3.6c0,0.3,0.2,0.7,0.2,0.7s-0.5,0.6-0.5,0.8
					c0,0.2,0.4,0.6,0.4,0.6S38,6.4,38.2,6.5c0,0-0.2,0.1,0,0.5c0,0,0.1,0.3,0,0.8s1.2,0.7,1.3,0.7v2.9L44,8.8l-0.1-1.3l0.3-4.8
					C43.4,0.8,42.2,0,40.2,1z"/>
			</g>
		</g>
		<g>
			<g>
				<path class="st1" d="M38.9,1.8c0,0,0.2-0.4,0.8-0.4s1.2,0.2,1.5,0.2c0.3,0,0.6,0,0.6,0s-0.5,0.8-0.5,1.1c0,0.3,0.5,0.7,0.5,1
					s-0.1,1.1-0.1,1.1L42,4.8c0,0,0.3-0.7,0.8-1s1.1,0.4,1,1.4s0.1,2.3,0.1,2.3s0.5-0.2,0.6-0.7s0.6-1.2,0.7-1.5
					c0.1-0.3,0.9-2,0.5-2.7s-1-0.8-1-0.8S44.6,0.1,41.8,0S38.4,0.5,38.9,1.8z"/>
			</g>
		</g>
		<g>
			<path class="st2" d="M43.1,6.4c-2,2.1-3.5,2.1-3.5,2.1v1.3C42.2,8.2,43.1,6.4,43.1,6.4z"/>
		</g>
		<g>
			<g>
				<path class="st3" d="M39.5,8.9L40,8.9l1.6,2.2l-5.1,9.1c0,0-1.1-0.8-1.8-1c-0.8-0.2-1.6-1.2-1.6-1.2l0.6-2l3.4-5.6l2.1-2
					L39.5,8.9z"/>
			</g>
		</g>
		<g>
			<g>
				<g>
					<path class="st9" d="M39.5,8.9c0,0,0.3,0,0.5,0.1C40.2,9,40.2,9,40.2,9v1c0,0-0.7-0.1-1,0.3c0,0-0.4-0.3-0.8-0.3
						c0,0,0.1-0.7,0.5-1C39.3,8.8,39.5,8.9,39.5,8.9z"/>
				</g>
			</g>
			<g>
				<g>
					<path class="st9" d="M39.1,9.9l0.1,0.5c0,0-0.3,0.9-0.5,1.3s-1.1,2.1-2.1,3.4c-0.9,1.3-2.3,3.8-3.1,4.6s-1.3,1.2-1.3,1.2
						L30,21.2c0,0,0.2-0.8,0.4-1c0.3-0.3,1.5-1.1,2.1-1.9c0.6-0.8,2.2-3.5,2.8-4c0.5-0.5,3.1-3.9,3.3-4.2
						C38.7,9.7,39.1,9.9,39.1,9.9z"/>
				</g>
			</g>
		</g>
		<g>
			<g>
				<path class="st5" d="M43.8,7c0,0-0.2,0.4-0.7,0.6S40,8.9,40,8.9v2.4l4-2.7L43.8,7z"/>
			</g>
		</g>
		<g>
			<g>
				<path class="st5" d="M39.5,8.5v0.3c0,0-0.2-0.1-0.5,0.3s-0.5,0.6-0.8,0.6l1-1.3C39.4,8.5,39.5,8.5,39.5,8.5z"/>
			</g>
		</g>
		<g>
			<g>
				<path class="st1" d="M39.3,8.5l-1.2,0.7l-1,0.4c0,0-0.9,0.9-1.3,1.8c-0.4,0.9-1.1,2-1.4,2.7c-0.3,0.6-1.4,3-1.9,3.7
					c0,0,1.7-2.3,2.4-3.4s1.5-2.4,1.9-3C37.4,10.7,39.1,9.1,39.3,8.5z"/>
			</g>
		</g>
		<g>
			<g>
				<path class="st4" d="M44.2,8.8c0,0,0.3,0.2,1.1,0.5c0.8,0.3,2.2,1,2.4,1.4l-3.8,9.2c0,0-3.6,3.3-4.3,3.9
					c-0.7,0.7-3.7,2.2-4.7,3.2c0,0-1.1-0.8-1.3-1c-0.2-0.3-0.1-0.5,0-0.5c0.1-0.1,1.1-4,1.2-4.7s0.9-3,0.9-3s0.9-2.5,2.5-4.2
					C39.8,11.9,43.6,8.8,44.2,8.8z"/>
			</g>
		</g>
		<g>
			<g>
				<path class="st0" d="M36.5,21.7c0,0-0.4,0.1-0.5,0.1c-0.2,0-0.5-0.3-1.5-0.3c-1,0-1.5,0.1-1.7,0.2s-0.4,0.5-0.4,0.7
					c0,0.2,0.2,0.4,0.3,0.4c0,0,0,0.4,0.5,0.5c0,0-0.1,0.6,0.4,0.6c0,0,0.1,0.5,0.4,0.5c0.4,0,0.5-0.2,0.5-0.2s1.6,0.2,2,0
					c0.4-0.2,0.6-0.5,1.3-0.7c0.7-0.1,0.7-0.1,0.7-0.1L36.5,21.7z"/>
			</g>
		</g>
		<g>
			<g>
				<path class="st1" d="M43.9,7.5c0,0-0.4,0.5-0.9,0.8c-0.5,0.3-2.5,2.1-4.1,3.8c-1.5,1.7-2.2,2.7-2.8,4.1s-0.5,1.7-0.5,1.7l0,0
					c0.6-1.4,1.6-2.6,2.8-3.5c0.2-0.2,0.5-0.3,0.6-0.4c0.4-0.3,3.3-2.6,3.3-2.6l-0.5-0.6c0,0,1-0.2,1.1-0.3c0,0,0.4-0.7,0.8-1
					c0.4-0.3,0.5-0.4,0.5-0.6S44,7.6,43.9,7.5z"/>
			</g>
		</g>
		<g>
			<g>
				<path class="st1" d="M43.2,13.6c0,0,0.3-1.5,1.3-2.5s2.6-1.2,3.2-0.4c0.6,0.7,0,2.8,0,3.2c0,0.4-0.4,0.9-0.4,1.3
					c-0.1,0.4,0.3,0.8,0.3,1.4s-0.3,2.9-1,3.7s-1.1,0.6-1.8,1s-2.9,1.1-3.8,1.7c-1,0.7-3.1,1.2-3.1,1.2s-1.1-1.2-1.5-1.6
					c-0.4-0.4-0.3-1.4-0.3-1.4s1-0.2,1.4-0.4c0.4-0.2,1.8-0.7,2-0.7c0.3,0,2.9-2,2.9-2s0.1-0.4,0.2-0.6c0.2-0.2,0.1-0.5,0.1-0.9
					c0-0.4,0.1-0.6,0.2-0.7s0.1-0.5,0.1-0.9S43.2,13.6,43.2,13.6z"/>
			</g>
		</g>
		<g>
			<path class="st13" d="M28.3,25.7c0,0-3.2,0.2-3.4,0v-1.3c0.1,0,0.1,0,0.2-0.1c0.7-0.2,2.7,0.3,3.1,0.6L28.3,25.7z"/>
		</g>
		<g>
			<g>
				<path class="st3" d="M28.1,28.8l0.1,0.5c0,0,0.4,0,1-0.3s1.7-0.9,1.5-1.9l-1-0.2l-1.3,0.5"/>
			</g>
		</g>
		<g>
			<g>
				<path class="st13" d="M28.8,25.8l1.1,0.4c0,0,0.6,0.6,0.7,0.9l-1.9,0.4c-0.2,0-0.3,0.2-0.3,0.3l-0.3,1.4l-0.4-0.4
					c0,0-1,0.5-1.5,1s-2.3,1-3.2,0.9c-1-0.1-2.5-0.5-2.6-0.8c-0.2-0.3-0.3-0.6-0.1-1c0.3-0.3,2.1-0.8,2.9-1
					C23.9,27.8,28.8,25.8,28.8,25.8z"/>
			</g>
		</g>
		<g>
			<g>
				<path class="st8" d="M20.4,30c-0.5-0.7-0.1-1.2,0.3-1.3c0.4-0.2,2.2-1,2.9-1.5c0.7-0.5,0.8-1.5,1.1-1.8c0.3-0.2,0.5,0.2,1.1,0.1
					c0.6,0,2.5-0.7,2.5-0.7c0.6,0.1,1.7,1.3,1.7,1.3c-0.5-0.3-1.7,0.6-2.1,0.9c-0.4,0.4-1.4,0.9-1.9,1c-0.5,0.1-1.4,0-2.4,0.2
					c-1,0.3-1.9,0.4-2.3,0.5c-0.4,0-0.8,0.1-1,0.4C20.1,29.5,20.4,29.9,20.4,30C20.4,30,20.4,30,20.4,30L20.4,30z"/>
			</g>
		</g>
	</g>
</g>
</svg>
