<?xml version="1.0" encoding="utf-8"?>
<!-- Generator: Adobe Illustrator 18.0.0, SVG Export Plug-In . SVG Version: 6.00 Build 0)  -->
<!DOCTYPE svg PUBLIC "-//W3C//DTD SVG 1.1//EN" "http://www.w3.org/Graphics/SVG/1.1/DTD/svg11.dtd">
<svg version="1.1" id="Layer_1" xmlns="http://www.w3.org/2000/svg" xmlns:xlink="http://www.w3.org/1999/xlink" x="0px" y="0px"
	 viewBox="0 0 48 48" enable-background="new 0 0 48 48" xml:space="preserve">
<g>
	<g>
		<g>
			<path fill="#415A6B" d="M0.6,16.8v15c0,1.4,1.2,2.6,2.6,2.6h33.1c1.4,0,2.6-1.2,2.6-2.6v-15H0.6z"/>
			<path fill="#344A5E" d="M36.8,5.2H2.7C1.2,5.2,0,6.4,0,7.8v9.3c0,7.3,39.5,7.3,39.5,0V7.8C39.5,6.4,38.3,5.2,36.8,5.2z"/>
			<path fill="#E8EAE9" d="M21,19.5h-2.4c-0.4,0-0.6,0.3-0.6,0.6v5c0,0.4,0.3,0.6,0.6,0.6H21c0.4,0,0.6-0.3,0.6-0.6v-5
				C21.6,19.8,21.3,19.5,21,19.5z"/>
			<g>
				<g>
					<path fill="#344A5E" d="M15.6,5.4V3.2c0-0.4,0.3-0.6,0.6-0.6h7c0.4,0,0.6,0.3,0.6,0.6v2.2h2.6V3.2C26.5,1.4,25,0,23.2,0h-7
						C14.5,0,13,1.4,13,3.2v2.2H15.6z"/>
				</g>
			</g>
		</g>
		<g>
			<g>
				<circle fill="#F3F3F3" cx="34.4" cy="34.4" r="12.3"/>
			</g>
			<g>
				<g>
					<path fill="#FFD15C" d="M39.7,35.4h-6.4v-8.7c0-0.6,0.5-1,1-1s1,0.5,1,1v6.6h4.3c0.6,0,1,0.5,1,1S40.3,35.4,39.7,35.4z"/>
				</g>
			</g>
			<g>
				<g>
					<circle fill="#415A6B" cx="34.4" cy="34.4" r="2.4"/>
				</g>
				<g>
					<circle fill="#344A5E" cx="34.4" cy="34.4" r="1.1"/>
				</g>
			</g>
			<g>
				<g>
					<path fill="#F3705A" d="M45.2,33.3c0.3,3.2-0.8,6.4-3.1,8.7c-4.2,4.2-11.1,4.2-15.4,0c-4.2-4.2-4.2-11.1,0-15.4
						c4.2-4.2,11.1-4.2,15.4,0l-1.2,1.2l5.1,0.6l-0.6-5.1L44,24.7c-5.3-5.3-14-5.3-19.3,0s-5.3,14,0,19.3c5.3,5.3,14,5.3,19.3,0
						c2.9-2.9,4.3-6.7,4-10.7H45.2z"/>
				</g>
			</g>
		</g>
	</g>
</g>
</svg>
