<?xml version="1.0" encoding="utf-8"?>
<!-- Generator: Adobe Illustrator 19.0.1, SVG Export Plug-In . SVG Version: 6.00 Build 0)  -->
<svg version="1.1" id="Layer_1" xmlns="http://www.w3.org/2000/svg" xmlns:xlink="http://www.w3.org/1999/xlink" x="0px" y="0px"
	 viewBox="0 0 48 48" style="enable-background:new 0 0 48 48;" xml:space="preserve">
<style type="text/css">
	.st0{fill:#FFD15C;}
	.st1{fill:#415A6B;}
	.st2{fill:#F7B64C;}
	.st3{fill:#CED6E0;}
	.st4{fill:#344A5E;}
	.st5{fill:#F3F3F3;}
	.st6{fill:#F05540;}
	.st7{fill:#F3705A;}
	.st8{fill:#66C6B9;}
	.st9{fill:#55C0EB;}
	.st10{fill:#F5F6FB;}
	.st11{fill:#4ABAA5;}
	.st12{fill:#ADB3BA;}
	.st13{fill:#E8EAE9;}
	.st14{fill:#2E4556;}
	.st15{fill:#8AD7F8;}
	.st16{fill:#FFFFFF;}
	.st17{fill:#E54838;}
	.st18{fill:#3EAF99;}
	.st19{fill:#EFA943;}
	.st20{fill:#4CAEE5;}
	.st21{fill:#293F4F;}
	.st22{fill:#2D4456;}
	.st23{fill:#2E4454;}
	.st24{fill:#2A3F4F;}
	.st25{fill:#2D4151;}
	.st26{fill:#E89E3D;}
	.st27{fill:#2B4151;}
	.st28{fill:#2A4051;}
	.st29{fill:#2C4151;}
	.st30{fill:#EBEAE8;}
	.st31{fill:#3AA590;}
	.st32{fill:#E84534;}
	.st33{fill:none;}
</style>
<g>
	<g>
		<g>
			<path class="st4" d="M1.9,31.3C1.3,35.6,1,39.8,1.2,44.1h17l-7.6-10.2l-2.4-5.2"/>
		</g>
		<g>
			<polygon class="st3" points="14.6,19.8 14.9,19.8 18.2,20.5 12.9,34.9 9.3,34.7 10.6,19.8 			"/>
		</g>
		<g>
			<path class="st4" d="M9.1,15c0,0-1.9,0.6-2.6,0.6s-2.5-0.3-3.2-0.3L5,20l0.3,14.3l0.3,1.5l5.5-0.1V22.8L9.1,15z"/>
		</g>
		<g>
			<path class="st4" d="M18,17.8c0,0,2.2,0.4,2.4,1.4c0.2,1.1-1.3,7.8-2,9.4c-0.7,1.6-3.8,10.9-3.8,10.9l-1.8-0.7l0.3-2.9L17,19.3
				L18,17.8z"/>
		</g>
		<g>
			<path class="st1" d="M16.6,17.6l1.3,1.2l-0.7,0.5l1.1,0.6c0.5,4.9-4.2,11-5.2,15.9c0,0,0.8-4.9,1.5-7.4c0.7-2.5,2.1-9.9,1.8-10.8
				H16.6z"/>
		</g>
		<g>
			<g>
				<path class="st0" d="M21.2,11.8c0,0.4-0.6,0.9-0.6,0.9s0.2,1.6-0.4,2.7c-0.6,1.1-1,1.6-1.2,2.3c-0.2,0.7-0.6,1.2-2.5,0.6
					L16,20.1l-1.1-0.2l-0.3,0h-3.2l0.2-5.8c0,0-0.3-6.4,1.3-7c1.6-0.6,8.2,0.9,8.2,0.9l0,1C21,8.8,21.3,11.4,21.2,11.8z"/>
			</g>
			<g>
				<g>
					<path class="st7" d="M13.6,19.9c0.1,0,0.4,0.9,0.6,2.5c0.4-0.2,0.9-0.2,1.3,0l0.7-2.1l-1.2-0.5l-0.3,0L13.6,19.9z"/>
				</g>
				<g>
					<path class="st7" d="M15.2,21.8l0.2,0.6c0,0,0.6,2,0.4,3.8s-2.9,10.5-2.9,10.5l-2.7-1.5c0,0,2.6-3.8,3.2-6.9s0.7-5.4,0.8-5.8
						c0.1-0.4,0.3-0.6,0.3-0.6H15.2z"/>
				</g>
			</g>
			<g>
				<path class="st1" d="M13.8,12.3l0.6,0.1c0,0,0.4-1.4,0.4-1.9c0.1-0.5,1.3-0.3,1.6-0.8s0-1.4,0.8-1.5S20.7,8,21,8.8
					c0,0,0.4,0.2,0.4-0.8S19.8,5.8,18.6,5c-1.2-0.8-4.3-1.8-5.6-0.3s-1.8,4.7-1.6,6.9s0.2,2.3,0.2,2.3s0.3-2.3,0.8-3.2
					C12.9,9.9,13.8,10.7,13.8,12.3z"/>
			</g>
			<g>
				<path class="st0" d="M13.3,11.3c0.1,0.9-0.2,1.6-0.7,1.6s-1-0.7-1.1-1.6s0.2-1.6,0.7-1.6S13.3,10.4,13.3,11.3z"/>
			</g>
			<path class="st2" d="M13.2,14.2c0,0,0.1,2.9,2.9,5.6l0.4-1.5C16.5,18.3,14.2,17.2,13.2,14.2z"/>
		</g>
		<g>
			<path class="st13" d="M11.6,14.2c0,0,0.2,2.6,3,5.6l-3.7,1.4l-0.6-6.1C10.2,15.1,10.9,14,11.6,14.2z"/>
		</g>
		<g>
			<path class="st13" d="M16.8,18.4l-0.3-0.1c0,0-0.4,1-1.5,1.5c0,0,1.1,0.5,1.1,1L16.8,18.4z"/>
		</g>
		<g>
			<path class="st1" d="M16,21.8c-0.4,2.4-1,5.2-1.4,6.6c-0.7,2.5-1.5,7.4-1.5,7.4c0.9-4.3,4.6-9.5,5.2-14H16z"/>
		</g>
		<g>
			<path class="st1" d="M23.7,33.5c-0.7,1-6.7,2.5-6.7,2.5s-0.1-1-0.6-1.9c-0.4-0.7-1.2-1.5-2.5-1.6c0,0,1.7-0.7,2.4-0.7
				c0.3,0,0.6-0.1,1-0.3c0.5-0.2,1-0.5,1-0.5L18,29.7c0.2-0.5,0.3-0.8,0.4-1c0.7-1.6,2.2-8.3,2-9.4c0,0,0-0.1,0-0.1
				c0.2,0.4,0.5,1,0.6,1.7c0.2,1.1,0.4,1.7,0.5,2.1c0.1,0.4,0.5,2.8,0.8,3.3C22.5,26.7,24.4,32.6,23.7,33.5z"/>
		</g>
		<g>
			<path class="st1" d="M11.3,14.2c0,0-0.3,0.8,0,2.8s0.7,5.9,0.7,8.8s-1,9.9-1,9.9s-0.1-6.1-0.6-9.1s-2-7.5-2-7.5l1.2-0.5l-1.2-1
				c0,0-0.1-2,0.6-2.4C9.8,14.5,11.3,14.2,11.3,14.2z"/>
		</g>
		<polygon class="st7" points="48,43 48,34.1 26.9,32.6 3.5,41.1 3.5,43 		"/>
		<g>
			<path class="st3" d="M13.1,38.5c0,0,1.2,0.6,2.3,0.2c1.1-0.4,1.1-4.8,1-5.2c0,0-2.1,0.3-2.3,0.5C13.9,34.2,13.1,38.5,13.1,38.5z"
				/>
		</g>
		<g>
			<g>
				<path class="st13" d="M27.7,30.5l-0.6,5.8c0,0.2-0.2,0.4-0.4,0.4h-2.8c-0.2,0-0.4-0.2-0.4-0.4l-0.6-5.8H27.7z"/>
			</g>
			<g>
				<path class="st8" d="M27.5,34.6l0.3-2.7c0-0.2-0.1-0.3-0.3-0.3H23c-0.2,0-0.3,0.1-0.3,0.3l0.3,2.7c0,0.1,0.1,0.2,0.3,0.2h4
					C27.4,34.8,27.5,34.7,27.5,34.6z"/>
			</g>
			<g>
				<path class="st8" d="M28,29.8h-5.4c-0.2,0-0.3,0.1-0.3,0.3v0.1c0,0.2,0.1,0.3,0.3,0.3H28c0.2,0,0.3-0.1,0.3-0.3v-0.1
					C28.3,29.9,28.1,29.8,28,29.8z"/>
			</g>
			<g>
				<polygon class="st13" points="23,28.8 27.5,28.8 27.9,29.8 22.6,29.8 				"/>
			</g>
		</g>
		<g>
			<path class="st3" d="M33.6,35.7l-1.2,4l-9.6-2.1c-0.1,0-0.2,0-0.2,0L33.6,35.7z"/>
		</g>
		<g>
			<polygon class="st12" points="33.2,36.9 32.5,39 27.6,37.9 			"/>
		</g>
		<g>
			<polygon class="st33" points="34.6,32.3 32.2,40.2 32.2,40.2 			"/>
			<path class="st12" d="M32.5,39.7l-0.3,0.6l-0.1,0l0,0.1l-9.9-2.5l0,0h0c0.1-0.2,0.3-0.4,0.5-0.3L32.5,39.7z"/>
		</g>
		<rect x="3.5" y="41.1" class="st6" width="44.5" height="3"/>
	</g>
	<g>
		<path class="st13" d="M47.7,26.9l-3.3,10.4l-11.4,3c-0.1,0-0.3,0.1-0.4,0.1s-0.3,0-0.4-0.1l0-0.2l3.7-12.9c0.2-0.8,1-1.3,1.8-1.3
			l9.4-0.1C47.5,25.9,47.9,26.4,47.7,26.9z"/>
	</g>
	<g>
		<g>
			<path class="st0" d="M15.8,33.7l0.6-0.2c0,0,1.2,0.2,1.3,0.1s0.9-0.4,1.2-0.6s2.4-1.4,2.8-1.3c0.4,0.1,1.9,1.1,1.9,1.1
				s1.8,0.3,2.1,0.8c0.3,0.6,0.5,1.2,0.1,1.7c0,0,0.8,0.5,0.5,1.2c-0.3,0.7-1.3,0.2-1.3,0.2s0,1.5-0.6,1.6c-0.6,0.1-0.9-0.1-0.9-0.1
				s0,0.5-0.9,0.7c-0.8,0.2-2,0.1-3.2,0.1s-6.2-1-6.2-1S13.7,34.3,15.8,33.7z"/>
		</g>
		<g>
			<path class="st2" d="M25.8,35.2C25.8,35.2,25.8,35.2,25.8,35.2c-0.8-0.4-2.5-0.6-2.8-0.7c-0.3-0.1-0.6-0.5-0.3-0.3
				c0.3,0.1,1.5,0.3,2.2,0.5C25.7,34.8,25.8,35.2,25.8,35.2z"/>
		</g>
		<path class="st2" d="M24.9,36.7c0,0,0,0.2,0,0.5c-0.1,0-0.1,0-0.2,0c-0.3-0.1-2.1-0.7-2.2-0.8c-0.1-0.2,0.3-0.1,0.6,0
			C23.4,36.4,24.9,36.7,24.9,36.7z"/>
		<g>
			<path class="st2" d="M23.3,38.1c0,0,0,0.1-0.1,0.2c-0.2-0.1-0.6-0.2-0.9-0.3c-0.4-0.1-0.2-0.2,0.1-0.2
				C22.8,37.9,23.3,38.1,23.3,38.1z"/>
		</g>
	</g>
	<g>
		<g>
			<path class="st13" d="M13.2,33.4l1.2-0.1l2,0.2c0,0-1.2,0.6-1.9,1.9c-0.8,1.3-1,3.2-0.3,3.3c0.7,0.1,1.2,0,1.2,0
				s-0.9,0.5-1.4,0.4c-0.5-0.1-2.2-0.2-2.2-0.2l-1.2-2.7L13.2,33.4z"/>
		</g>
		<g>
			<path class="st1" d="M3.2,15.3c0,0,1.6,0.7,2.2,4.2s0.1,4.8,0.2,6.2c0.1,1.4,0.7,3.7,0.6,4.4s0.2,1.6,0.2,1.6s2.8,1.1,3.8,1.2
				c0.9,0.1,4.2,0.4,4.2,0.4s-2.3,1.5-2.6,3.3c-0.4,1.8,0.4,2.6,0.4,2.6s-2.9-0.1-3.6-0.4s-6.5-2.3-6.5-2.3S0.6,35.4,0.6,34
				c0-1.4,0-6.4-0.3-7.3C0.1,25.8,0.2,21,0,20.4C-0.1,19.7-0.1,15.2,3.2,15.3z"/>
		</g>
	</g>
</g>
</svg>
