<?xml version="1.0" encoding="utf-8"?>
<!-- Generator: Adobe Illustrator 18.0.0, SVG Export Plug-In . SVG Version: 6.00 Build 0)  -->
<!DOCTYPE svg PUBLIC "-//W3C//DTD SVG 1.1//EN" "http://www.w3.org/Graphics/SVG/1.1/DTD/svg11.dtd">
<svg version="1.1" id="Layer_1" xmlns="http://www.w3.org/2000/svg" xmlns:xlink="http://www.w3.org/1999/xlink" x="0px" y="0px"
	 viewBox="0 0 48 48" enable-background="new 0 0 48 48" xml:space="preserve">
<g>
	<g>
		<g>
			<g>
				<g>
					<path fill="#415A6B" d="M41.5,29.5v4.6h-2v-3.6H25v3.6h-2v-3.6H8.5v3.6h-2v-4.6c0-0.6,0.4-1,1-1H23v-4.6h2v4.6h15.5
						C41.1,28.5,41.5,29,41.5,29.5z"/>
				</g>
			</g>
		</g>
		<g>
			<g>
				<g>
					<circle fill="#F3705A" cx="7.5" cy="40.5" r="7.5"/>
				</g>
				<g>
					<path fill="#FFFFFF" d="M7.5,46.3c1.6,0,3.1-0.7,4.1-1.7c-0.4-1.9-2.1-3.3-4.1-3.3c-2,0-3.7,1.4-4.1,3.3
						C4.4,45.6,5.9,46.3,7.5,46.3z"/>
					<g>
						<circle fill="#FFFFFF" cx="7.5" cy="38.5" r="1.9"/>
					</g>
				</g>
			</g>
			<g>
				<g>
					<circle fill="#4EC0AA" cx="40.5" cy="40.5" r="7.5"/>
				</g>
				<g>
					<path fill="#FFFFFF" d="M40.5,46.3c1.6,0,3.1-0.7,4.1-1.7c-0.4-1.9-2.1-3.3-4.1-3.3c-2,0-3.7,1.4-4.1,3.3
						C37.5,45.6,38.9,46.3,40.5,46.3z"/>
					<g>
						<circle fill="#FFFFFF" cx="40.5" cy="38.5" r="1.9"/>
					</g>
				</g>
			</g>
			<g>
				<g>
					<circle fill="#FFD15C" cx="24" cy="40.5" r="7.5"/>
				</g>
				<g>
					<path fill="#FFFFFF" d="M24,46.3c1.6,0,3.1-0.7,4.1-1.7c-0.4-1.9-2.1-3.3-4.1-3.3c-2,0-3.7,1.4-4.1,3.3
						C20.9,45.6,22.4,46.3,24,46.3z"/>
					<g>
						<circle fill="#FFFFFF" cx="24" cy="38.5" r="1.9"/>
					</g>
				</g>
			</g>
		</g>
		<g>
			<g>
				<path fill="#8AD7F8" d="M33.6,15.4l3.3-0.7v-3.6l-3.3-0.7c-0.2-0.9-0.6-1.8-1.1-2.5L34.4,5l-2.5-2.5L29,4.4
					c-0.8-0.5-1.6-0.8-2.6-1.1h0L25.8,0h-3.6l-0.7,3.3h0c-0.9,0.2-1.8,0.6-2.6,1.1l-2.8-1.8L13.6,5l1.8,2.8
					c-0.5,0.8-0.8,1.7-1.1,2.6v0l-3.3,0.7v3.6l3.3,0.7c0.2,0.9,0.6,1.8,1.1,2.6l-1.8,2.8l2.5,2.5l2.8-1.8c0.8,0.5,1.6,0.8,2.6,1.1h0
					l0.7,3.3h3.6l0.7-3.3h0c0.9-0.2,1.8-0.6,2.6-1.1l2.8,1.8l2.5-2.5l-1.8-2.8C33,17.1,33.4,16.3,33.6,15.4L33.6,15.4z M24,16.5
					c-2,0-3.6-1.6-3.6-3.6c0-2,1.6-3.6,3.6-3.6c2,0,3.6,1.6,3.6,3.6C27.6,14.9,26,16.5,24,16.5z"/>
			</g>
			<path fill="#55C0EB" d="M24,7c-3.3,0-5.9,2.6-5.9,5.9c0,3.3,2.7,5.9,5.9,5.9c3.3,0,5.9-2.7,5.9-5.9C29.9,9.6,27.3,7,24,7z
				 M24,16.5c-2,0-3.6-1.6-3.6-3.6c0-2,1.6-3.6,3.6-3.6c2,0,3.6,1.6,3.6,3.6C27.6,14.9,26,16.5,24,16.5z"/>
		</g>
	</g>
</g>
</svg>
