<?xml version="1.0" encoding="utf-8"?>
<!-- Generator: Adobe Illustrator 19.0.1, SVG Export Plug-In . SVG Version: 6.00 Build 0)  -->
<svg version="1.1" id="Layer_1" xmlns="http://www.w3.org/2000/svg" xmlns:xlink="http://www.w3.org/1999/xlink" x="0px" y="0px"
	 viewBox="0 0 48 48" style="enable-background:new 0 0 48 48;" xml:space="preserve">
<style type="text/css">
	.st0{fill:#FFD15C;}
	.st1{fill:#415A6B;}
	.st2{fill:#F7B64C;}
	.st3{fill:#CED6E0;}
	.st4{fill:#344A5E;}
	.st5{fill:#F3F3F3;}
	.st6{fill:#F05540;}
	.st7{fill:#F3705A;}
	.st8{fill:#66C6B9;}
	.st9{fill:#55C0EB;}
	.st10{fill:#F5F6FB;}
	.st11{fill:#4ABAA5;}
	.st12{fill:#ADB3BA;}
	.st13{fill:#E8EAE9;}
	.st14{fill:#2E4556;}
	.st15{fill:#8AD7F8;}
	.st16{fill:#FFFFFF;}
	.st17{fill:#E54838;}
	.st18{fill:#3EAF99;}
	.st19{fill:#EFA943;}
	.st20{fill:#4CAEE5;}
	.st21{fill:#293F4F;}
	.st22{fill:#2D4456;}
	.st23{fill:#2E4454;}
	.st24{fill:#2A3F4F;}
	.st25{fill:#2D4151;}
	.st26{fill:#E89E3D;}
	.st27{fill:#2B4151;}
	.st28{fill:#2A4051;}
	.st29{fill:#2C4151;}
	.st30{fill:#EBEAE8;}
	.st31{fill:#3AA590;}
	.st32{fill:#E84534;}
	.st33{fill:none;}
</style>
<g>
	<g>
		<g>
			<path class="st1" d="M15.8,20.1l1.3,11L1.3,32.2L0,21.3c-0.1-0.5,0.3-1,0.8-1l14-1C15.3,19.2,15.7,19.6,15.8,20.1z"/>
		</g>
		<polygon class="st9" points="2.1,31.2 1,21.3 14.8,20.2 16,30.1 		"/>
		<g>
			<g>
				<path class="st13" d="M12.5,27.3c-0.1-0.9,0.5-1.7,1.4-1.8s1.7,0.6,1.8,1.5c0.1,0.9-0.5,1.7-1.4,1.8
					C13.4,28.9,12.6,28.3,12.5,27.3z"/>
				<g>
					<polygon class="st13" points="8.8,29.8 12.2,28.3 15.6,27.1 16,30.1 2.1,31.2 1.8,28.1 6.1,28.9 					"/>
				</g>
				<path class="st13" d="M10.8,28c-0.1-0.7,0.4-1.3,1.1-1.4s1.3,0.5,1.4,1.2c0.1,0.7-0.4,1.3-1.1,1.4C11.5,29.2,10.9,28.7,10.8,28z
					"/>
				<path class="st13" d="M9.9,28.8c-0.1-0.5,0.3-1,0.8-1c0.5,0,1,0.4,1,0.9c0.1,0.5-0.3,1-0.8,1S10,29.3,9.9,28.8z"/>
				<path class="st13" d="M9.2,29.7c-0.1-0.5,0.3-0.9,0.7-0.9c0.5,0,0.9,0.3,0.9,0.8s-0.3,0.9-0.7,0.9C9.7,30.6,9.3,30.2,9.2,29.7z"
					/>
			</g>
			<g>
				<g>
					<path class="st3" d="M13.7,28.8c0,0,0,0-0.1,0c0,0,0,0-0.1,0c0,0,0,0-0.1,0c0,0,0,0-0.1,0c0,0-0.1,0-0.1,0c0,0-0.1,0-0.1,0
						c0,0-0.1,0-0.1-0.1c-0.1,0-0.1-0.1-0.2-0.1c-0.1-0.1-0.1-0.1-0.2-0.2c-0.1-0.1-0.1-0.1-0.1-0.2c0-0.1-0.1-0.2-0.1-0.2
						c0-0.1,0-0.2-0.1-0.2c0-0.1,0-0.2,0-0.2c0,0,0-0.1,0-0.1c0,0,0-0.1,0-0.1c0,0,0-0.1,0-0.1c0,0,0-0.1,0-0.1c0,0,0,0,0-0.1
						c0,0,0,0,0-0.1c0-0.1,0-0.1,0-0.1s0,0,0,0.1c0,0,0,0,0,0.1c0,0,0,0,0,0.1c0,0,0,0.1,0,0.2c0,0,0,0.1,0,0.1c0,0,0,0.1,0,0.1
						c0,0,0,0.1,0,0.1c0,0,0,0.1,0,0.1c0,0.1,0,0.1,0.1,0.2c0,0.1,0.1,0.1,0.1,0.2c0,0.1,0.1,0.1,0.1,0.2c0,0.1,0.1,0.1,0.1,0.2
						c0,0,0.1,0.1,0.1,0.1c0,0,0,0,0.1,0.1c0,0,0,0,0.1,0.1c0,0,0,0,0.1,0.1c0,0,0.1,0.1,0.1,0.1c0,0,0,0,0.1,0
						C13.5,28.7,13.5,28.7,13.7,28.8C13.6,28.8,13.7,28.8,13.7,28.8z"/>
				</g>
				<g>
					<path class="st3" d="M12,29.1C12,29.1,11.9,29.1,12,29.1c-0.1,0-0.1,0-0.1,0c0,0,0,0-0.1,0c0,0-0.1,0-0.1,0c0,0,0,0-0.1,0
						c0,0,0,0-0.1,0c-0.1,0-0.1-0.1-0.2-0.1c-0.1,0-0.1-0.1-0.2-0.1c-0.1,0-0.1-0.1-0.1-0.1c0-0.1-0.1-0.1-0.1-0.2
						c0-0.1-0.1-0.1-0.1-0.2c0-0.1,0-0.1-0.1-0.2c0,0,0-0.1,0-0.1c0,0,0-0.1,0-0.1c0,0,0-0.1,0-0.1c0,0,0,0,0-0.1c0,0,0,0,0,0
						c0-0.1,0-0.1,0-0.1s0,0,0,0.1c0,0,0,0,0,0c0,0,0,0,0,0.1c0,0,0,0.1,0,0.1c0,0,0,0,0,0.1c0,0,0,0,0,0.1c0,0,0,0.1,0.1,0.1
						c0,0,0.1,0.1,0.1,0.1c0,0,0.1,0.1,0.1,0.1c0,0,0.1,0.1,0.1,0.1c0,0,0.1,0.1,0.1,0.1c0,0,0.1,0.1,0.1,0.1c0,0,0,0,0.1,0
						c0,0,0,0,0.1,0c0,0,0.1,0,0.1,0.1c0,0,0,0,0,0C11.9,29.1,11.9,29.1,12,29.1C11.9,29.1,12,29.1,12,29.1z"/>
				</g>
			</g>
		</g>
		<g>
			<g>
				<path class="st13" d="M4.9,27.9C4.8,27,4,26.3,3.1,26.4s-1.5,0.9-1.4,1.8c0.1,0.9,0.9,1.6,1.8,1.5S5,28.8,4.9,27.9z"/>
				<path class="st13" d="M6.7,28.3C6.6,27.6,6,27,5.3,27.1c-0.7,0-1.1,0.7-1.1,1.4c0.1,0.7,0.7,1.2,1.4,1.2
					C6.3,29.6,6.7,29,6.7,28.3z"/>
				<path class="st13" d="M7.7,29c-0.1-0.5-0.5-0.9-1-0.9s-0.9,0.5-0.8,1c0.1,0.5,0.5,0.9,1,0.9S7.8,29.5,7.7,29z"/>
				<path class="st13" d="M8.7,29.8c-0.1-0.5-0.5-0.9-0.9-0.8S6.9,29.4,7,29.9c0.1,0.5,0.5,0.9,0.9,0.8C8.4,30.7,8.7,30.3,8.7,29.8z
					"/>
			</g>
			<g>
				<g>
					<path class="st3" d="M4.1,29.5C4.1,29.5,4.1,29.5,4.1,29.5c0.1-0.1,0.1-0.1,0.1-0.1c0,0,0,0,0,0c0,0,0.1-0.1,0.1-0.1
						c0,0,0,0,0.1-0.1c0,0,0,0,0.1-0.1c0,0,0-0.1,0.1-0.1c0,0,0-0.1,0.1-0.1c0-0.1,0.1-0.1,0.1-0.2c0-0.1,0.1-0.1,0.1-0.2
						c0-0.1,0-0.1,0-0.2c0-0.1,0-0.1,0-0.2c0,0,0-0.1,0-0.1c0,0,0-0.1,0-0.1c0,0,0-0.1,0-0.1c0,0,0-0.1,0-0.1c0-0.1,0-0.1,0-0.2
						c0,0,0,0,0-0.1c0,0,0,0,0-0.1c0-0.1,0-0.1,0-0.1s0,0,0.1,0.1c0,0,0,0,0,0.1c0,0,0,0,0,0.1c0,0,0,0,0,0.1c0,0,0,0.1,0,0.1
						c0,0,0,0.1,0,0.1c0,0,0,0.1,0,0.1C5,28,5,28,5,28.1c0,0.1,0,0.2,0,0.2c0,0.1,0,0.2,0,0.2c0,0.1-0.1,0.2-0.1,0.2
						c0,0.1-0.1,0.1-0.1,0.2c0,0.1-0.1,0.1-0.1,0.2c0,0,0,0-0.1,0.1c0,0-0.1,0-0.1,0.1c0,0,0,0-0.1,0c0,0,0,0-0.1,0c0,0,0,0-0.1,0
						c0,0,0,0-0.1,0C4.1,29.5,4.1,29.5,4.1,29.5z"/>
				</g>
				<g>
					<path class="st3" d="M5.8,29.6C5.8,29.6,5.8,29.6,5.8,29.6c0.1,0,0.1-0.1,0.1-0.1c0,0,0,0,0,0c0,0,0.1,0,0.1-0.1c0,0,0,0,0.1,0
						c0,0,0,0,0.1,0c0,0,0.1-0.1,0.1-0.1c0,0,0.1-0.1,0.1-0.1c0,0,0.1-0.1,0.1-0.1c0-0.1,0-0.1,0.1-0.2c0-0.1,0-0.1,0.1-0.2
						c0-0.1,0-0.1,0-0.2c0,0,0,0,0-0.1c0,0,0,0,0-0.1c0,0,0-0.1,0-0.1c0,0,0,0,0-0.1c0,0,0,0,0,0c0-0.1,0-0.1,0-0.1s0,0,0,0.1
						c0,0,0,0,0,0c0,0,0,0,0,0.1c0,0,0,0.1,0,0.1c0,0,0,0.1,0,0.1c0,0,0,0.1,0,0.1c0,0.1,0,0.1,0,0.2c0,0.1,0,0.1,0,0.2
						c0,0.1,0,0.1-0.1,0.2c0,0.1-0.1,0.1-0.1,0.2c0,0.1-0.1,0.1-0.1,0.1c0,0-0.1,0.1-0.1,0.1c0,0,0,0-0.1,0c0,0,0,0-0.1,0
						c0,0-0.1,0-0.1,0c0,0,0,0-0.1,0C5.9,29.6,5.9,29.6,5.8,29.6C5.8,29.6,5.8,29.6,5.8,29.6z"/>
				</g>
			</g>
		</g>
		<polygon class="st13" points="8.8,21.7 7.2,21.8 8.1,29.8 9.8,29.7 		"/>
		<polygon class="st3" points="8.4,21.8 7.6,21.8 8.6,29.8 9.3,29.7 		"/>
		<g>
			<g>
				<g>
					<path class="st0" d="M5.4,23.4c0,0.1,0,0.1,0,0.2c0,0,0.1,0.1,0.1,0.1c0.2,0.1,0.2,0.4,0.2,0.6c0,0.1-0.1,0.1-0.1,0.2
						c0,0.1-0.1,0.2-0.1,0.3c0,0.1,0,0.2,0.1,0.3c-0.1,0-0.1,0-0.2-0.1s-0.1-0.1-0.1-0.2c0-0.2,0-0.4,0-0.5
						c-0.1,0.1-0.1,0.3-0.1,0.5c0,0.1,0,0.2,0,0.2c0,0.1,0.1,0.1,0.1,0.2c0.1,0.2,0.1,0.4,0,0.6c0,0.1-0.1,0.1-0.1,0.2
						c0,0.1-0.1,0.1-0.1,0.2c-0.1-0.2-0.2-0.4-0.2-0.6c0-0.2,0-0.3,0-0.5c0-0.2-0.1-0.3-0.2-0.4c-0.1-0.1-0.1-0.3-0.1-0.4
						c-0.1,0.2-0.1,0.5,0.1,0.7c-0.1,0-0.3-0.1-0.4-0.2c0-0.1-0.1-0.1-0.1-0.2c0-0.2-0.1-0.4,0-0.6c0-0.1,0.1-0.2,0.2-0.3
						C4.8,23.5,4.9,23.3,5,23c0.1,0.1,0.2,0.2,0.3,0.3"/>
				</g>
				<g>
					<path class="st0" d="M11.7,23c0,0.1,0,0.1,0,0.2c0,0,0.1,0.1,0.1,0.1c0.2,0.1,0.2,0.4,0.2,0.6c0,0.1-0.1,0.1-0.1,0.2
						c0,0.1-0.1,0.2-0.1,0.3c0,0.1,0,0.2,0.1,0.3c-0.1,0-0.1,0-0.2-0.1c0-0.1-0.1-0.1-0.1-0.2c0-0.2,0-0.4,0-0.5
						c-0.1,0.1-0.1,0.3-0.1,0.5c0,0.1,0,0.2,0,0.2c0,0.1,0.1,0.1,0.1,0.2c0.1,0.2,0.1,0.4,0,0.6c0,0.1-0.1,0.1-0.1,0.2
						s-0.1,0.1-0.1,0.2c-0.1-0.2-0.2-0.4-0.2-0.6c0-0.2,0-0.3,0-0.5c0-0.2-0.1-0.3-0.2-0.4c-0.1-0.1-0.1-0.3-0.1-0.4
						c-0.1,0.2-0.1,0.5,0.1,0.7c-0.1,0-0.3-0.1-0.4-0.2c0-0.1-0.1-0.1-0.1-0.2c0-0.2-0.1-0.4,0-0.6c0-0.1,0.1-0.2,0.2-0.3
						c0.2-0.2,0.3-0.4,0.3-0.7c0.1,0.1,0.2,0.2,0.3,0.3"/>
				</g>
				<g>
					<g>
						<g>
							<g>
								<polygon class="st12" points="7.1,19 4.8,21.3 4.9,22.5 7.5,22.3 								"/>
							</g>
							<g>
								<g>
									<path class="st13" d="M4.1,22.3l0.2,1.4l1.5-0.1l-0.2-1.4c-0.1-0.7-0.4-1.4-1-1.9l0,0l0,0C4.2,20.8,4,21.5,4.1,22.3z"/>
								</g>
								<g>
									<polygon class="st7" points="4.2,23.2 4.3,23.7 5.8,23.6 5.8,23.1 									"/>
								</g>
							</g>
						</g>
						<g>
							<g>
								<polygon class="st12" points="8.3,18.9 11.1,20.8 11.2,22 8.7,22.2 								"/>
							</g>
							<g>
								<g>
									<path class="st13" d="M11.9,21.7l0.2,1.4l-1.5,0.1l-0.2-1.4c-0.1-0.7,0.1-1.4,0.5-2l0,0h0C11.5,20.3,11.9,21,11.9,21.7z"/>
								</g>
								<g>
									<polygon class="st7" points="12.1,22.7 12.1,23.1 10.6,23.2 10.5,22.8 									"/>
								</g>
							</g>
						</g>
					</g>
					<g>
						<g>
							<path class="st13" d="M5.7,16.4c0,0.4,0,0.8,0,1.2l0.6,5.1l3.6-0.3l-0.6-5.1c0-0.4-0.1-0.8-0.2-1.2L5.7,16.4z"/>
						</g>
						<g>
							<polygon class="st7" points="10.4,23.1 9.9,22.4 6.3,22.7 6,23.4 							"/>
						</g>
						<g>
							<path class="st1" d="M5.7,15.9c0,0.2,0,0.4-0.1,0.7l3.5-0.3c-0.1-0.2-0.1-0.4-0.2-0.7L5.7,15.9z"/>
						</g>
						<g>
							<path class="st7" d="M9,15.8c-0.4-1.1-1.1-2.2-2-3l0,0c-0.7,0.9-1.2,2-1.3,3.2L9,15.8z"/>
						</g>
						<g>
							<g>
								<path class="st1" d="M8.8,18.3c0.1,0.7-0.4,1.3-1,1.3c-0.6,0-1.2-0.5-1.3-1.1s0.4-1.3,1-1.3C8.1,17.1,8.7,17.6,8.8,18.3z"/>
							</g>
							<g>
								<path class="st9" d="M8.4,18.3c0.1,0.5-0.3,0.9-0.7,0.9c-0.5,0-0.9-0.3-0.9-0.8c-0.1-0.5,0.3-0.9,0.7-0.9
									C8,17.5,8.4,17.8,8.4,18.3z"/>
							</g>
						</g>
					</g>
				</g>
			</g>
		</g>
		<path class="st13" d="M9.4,29.8c0,0.3-0.2,0.5-0.4,0.6s-0.5-0.2-0.6-0.5c0-0.3,0.2-0.5,0.4-0.6C9.2,29.3,9.4,29.5,9.4,29.8z"/>
	</g>
	<g>
		<g>
			<path class="st4" d="M18.3,39.1l-2.7,0.1c0,0-0.5-1.1-0.8-1.4s0-4,0.5-4.4c0.8,0.4,1.4,0.9,1.8,1.8L18.3,39.1z"/>
		</g>
		<g>
			<path class="st0" d="M16.4,34.4l-2.2-1l-7,0.3c0,0,2.1,0.6,3.1,1c0.9,0.4,2.5,0.8,3.4,1.3c0.8,0.5,2.3,1.2,2.7,1.3V34.4z"/>
		</g>
		<g>
			<path class="st5" d="M15.3,37.4c0,0,1.4-2.3-0.3-3.7l3.5,0.7l-0.6,4.1L15.3,37.4z"/>
		</g>
		<g>
			<path class="st1" d="M15.2,33.5c0,0,1.3,0.6,1.1,3.3c-0.2,2.7-0.8,2.5-0.8,2.5s0,0.1,1,0.2c1.1,0.1,1.8,0.2,2.6,0.4
				c0.7,0.2,5.5,0.5,5.5,0.5l1.8-6.2c0,0-2.1,0.5-2.9,0.5s-3.6-0.2-4.7-0.4S15.6,33.5,15.2,33.5z"/>
		</g>
		<g>
			<g>
				<g>
					<path class="st0" d="M39.1,10.4c0,0,0.2,2.8,0.6,3.9c0.4,1.1,0.4,1.1,0.4,1.1l-7.6,5.4l-0.3-5.3c0,0-1.8,0-2.6-2.3
						c-0.8-2.3-1.3-3.2-1.1-4.4c0,0,0-0.4-0.1-0.6c-0.1-0.2-0.3-2.3,0.3-3.8c0,0,0.1-1.5,0.7-2.4s6.7-0.7,8.1,0S39.3,9,39.1,10.4z"
						/>
				</g>
				<g>
					<path class="st1" d="M28.6,4.4c0,0,0.3-1.5,0.9-1.3s1.3,0.2,2-0.1c0.7-0.3,4.3-0.4,4.3,1.1s1,4.1,0.9,4.9l0.4,0
						c0,0,0-1.4,0.4-2s1.5,0.9,1.7,3.4c0,0,0.4-2.7,0.6-3.5s0.7-4.4-1.9-5.9c-2.7-1.5-7-1.3-8.6,0.1C27.9,2.4,28.6,4.4,28.6,4.4z"/>
				</g>
				<g>
					<ellipse class="st0" cx="38.1" cy="8.2" rx="1" ry="1.9"/>
				</g>
				<path class="st2" d="M37.4,11.1c-1.5,2.5-3.2,4.2-5.3,4.4l0.2,3.4C36.8,15.9,37.4,11.1,37.4,11.1z"/>
				<g>
					<polygon class="st3" points="33.3,17.6 36.1,17.8 34.7,23.7 27,32.5 29.8,21 					"/>
				</g>
				<g>
					<path class="st7" d="M32,19.2l0.4,0.3c0,0-0.6,3.8-1,4.9c-0.3,1.1-3.7,5-3.7,5s1.5-7.4,3.4-10.1C31.4,18.9,32,19.2,32,19.2z"/>
				</g>
			</g>
			<g>
				<g>
					<path class="st6" d="M32.3,17.6c0.1-0.1,0.6-0.1,1,0c0.4,0.2,0.5,0,0.5,0l0.7,0.4c0,0-1,1.3-2,1.4c0,0-0.9-0.2-1.3-0.2
						L32.3,17.6z"/>
				</g>
			</g>
			<g>
				<path class="st5" d="M33.3,17.6l2.2,2.8l5.2-4.2l-1-2.4c0-0.1-0.2-0.1-0.2-0.1c-0.4,0.3-1.5,1-2.7,1.5
					C35.3,15.8,33.3,17.6,33.3,17.6z"/>
			</g>
			<g>
				<path class="st1" d="M26.1,36c0,0,1.6-7.7,2.8-11.2s3.4-7.2,3.4-7.2s-1.2,1-2.5,2.7s-2.7,5.6-3.3,7.3C26,29.2,25,34.5,26.1,36z"
					/>
			</g>
			<g>
				<path class="st4" d="M41,16.3l0.3,0.2c0,0,4,2.5,5.4,5.1c1.3,2.6,1.5,4.6,1.2,6s-3.3,9.9-3.6,14.7V48H23.5c0,0,0.2-7.2,1.3-11.1
					s2.8-9.4,5.9-11.8S41,16.3,41,16.3z"/>
			</g>
			<g>
				<path class="st1" d="M40.4,15.2c0,0-4.5,3.6-6.3,5.1s-5.3,5.9-6.3,7.5s-2.8,7.5-3,9c0,0,1.6-5.3,4-8.1s10.8-9.8,10.8-9.8L39,19
					c0.7-0.8,1.4-1.5,2.2-1.9c0.3-0.1,0.3-0.5,0.1-0.7C40.9,15.9,40.5,15.3,40.4,15.2z"/>
			</g>
		</g>
		<g>
			<g>
				<path class="st3" d="M23.2,33.3L8,34.1c-0.1,0-0.2,0-0.3,0l-6.5-1.8l15.9-1.2l6.1,1.8C23.5,32.9,23.5,33.3,23.2,33.3z"/>
			</g>
		</g>
		<g>
			<path class="st13" d="M1.3,32.3l6.5,1.8c0.1,0,0.2,0,0.3,0l15.2-0.9v0.8L8,35c-0.1,0-0.2,0-0.3,0l-6.1-2.1
				C1.4,32.7,1.3,32.5,1.3,32.3L1.3,32.3z"/>
		</g>
		<g>
			<path class="st0" d="M28,31.2l-0.2-0.6c0,0-0.5,0-1-0.3c-0.5-0.3-1.3-1.7-1.6-2.1c-0.3-0.5-1-1.5-1.2-2c-0.2-0.4-0.4-1.1-0.4-1.1
				l0.1-1.1c0,0-1.6-0.5-1,2.4c0,0,0.5,0.9,0.5,1.2c0,0.3-0.1,0.7-0.3,0.7c-0.2,0.1-1.9,0.4-2.3,0.6s-1.4,1.3-0.5,1.7
				c0,0-0.7,1.1,0.2,1.6c0,0-0.2,0.9,0.4,1c0,0-0.5,0.4-0.2,0.9c0.3,0.5,1.1,0,1.3,0.1c0.2,0,2.2,0.2,2.7,0c0.5-0.1,2.1,0.2,2.1,0.2
				L28,31.2z"/>
		</g>
		<g>
			<path class="st1" d="M37.4,29c0,0-0.3-3.5,1.2-6.2s3.3-3.6,5.2-3.2s3.4,4.2,3.8,5.7c0.4,1.5-0.9,6.8-1.3,8.3
				c-0.3,1.5-1.5,5.6-2.8,7.5c-1.3,1.9-2,2.3-3.7,1.7C38.2,42.2,31.8,40,30,39c-1.7-1-4.8-2.7-4.8-2.7s1.2-5.8,2.2-6.3
				c0,0,3.5,2,4.7,2.5c1.2,0.5,1.7,0.5,2.6,1c1,0.5,3,1,3,1s-0.5-0.7-0.3-1.3s0.3-1.3,0.3-1.8C37.7,30.9,37.4,29,37.4,29z"/>
		</g>
		<g>
			<path class="st13" d="M23.7,25.2c-0.7-0.1,0.1-1.1,0.1-1.1L23.7,25.2z"/>
		</g>
	</g>
</g>
</svg>
