<?xml version="1.0" encoding="utf-8"?>
<!-- Generator: Adobe Illustrator 18.0.0, SVG Export Plug-In . SVG Version: 6.00 Build 0)  -->
<!DOCTYPE svg PUBLIC "-//W3C//DTD SVG 1.1//EN" "http://www.w3.org/Graphics/SVG/1.1/DTD/svg11.dtd">
<svg version="1.1" id="Layer_1" xmlns="http://www.w3.org/2000/svg" xmlns:xlink="http://www.w3.org/1999/xlink" x="0px" y="0px"
	 viewBox="0 0 48 48" enable-background="new 0 0 48 48" xml:space="preserve">
<g>
	<g>
		<g>
			<path fill="#FFD15C" d="M24.7,44.2c0-0.2-0.4-1.4-0.5-1.8c-0.1-0.4-0.4-1-0.4-1.7c0-0.7,0-1.4,0-1.4l-2.2-0.7
				c0,0,0.6,2.4,0.8,2.8c0.2,0.4,0.1,0.9,0.1,1.3s0,1,0.1,1.6c0,0,0,0,0,0c0.1,0.1,0.1,0.2,0.1,0.3c0,0,0,0.1,0,0.1c0,0,0,0.1,0,0.1
				c0,0.1,0.1,0.2,0.1,0.3c0.1,0.2,0.1,0.3,0.2,0.5c0.1,0.1,0.1,0.3,0.2,0.4c0,0,0.1,0.1,0.1,0.1c0.6,0.6,1.8,0.5,1.8,0.5
				s0.3-0.3,0.3-0.6C25.5,45.6,24.8,45,24.7,44.2z"/>
		</g>
	</g>
	<g>
		<g>
			<g>
				<path fill="#FFD15C" d="M26.6,44.3c0,0,0.3,1.1,0.4,1.3c0.1,0.2,0.3-0.1,0.3-0.1s-0.6-1.5-0.7-1.6
					C26.4,43.9,26.6,44.3,26.6,44.3z"/>
			</g>
		</g>
		<g>
			<g>
				<path fill="#FFD15C" d="M30.5,31.9c0,0,0.3,1.2,0.3,1.6c0,0.3-0.2,0.8-0.2,1.2c0,0.3-0.4,3.1-0.9,4.2c-0.5,1.1-1.3,2.6-1.5,3.3
					s-0.1,1.1-0.1,1.1s0.2,0.7,0.2,1.1c0,0,0.7,1.3,0.7,1.6c0,0.4-0.1,0.5-0.1,0.5L27.3,46c0,0-0.2-0.1-0.2-0.3c0-0.2-0.1-1-0.6-1.9
					C26,42.9,26,42.9,26,42.9s0.2-0.8,0.6-1c0.4-0.3,0.3-1.4,0.3-1.7c0-0.4,0.3-2.3,0.4-3.1c0.2-0.8,0.6-2,0.6-2s-0.8-2.5-0.8-3.6
					C27,30.3,30.5,31.9,30.5,31.9z"/>
			</g>
		</g>
		<g>
			<g>
				<path fill="#F26F5A" d="M26.5,41.9c0,0-0.3,0.2-0.1,0.7s0.2,1.1,0.2,1.2c0,0.2,0.4,2,0.8,2.2c0.4,0.2,1.4,0.1,1.5-0.2
					c0,0-0.4-1.3-0.5-1.5c0,0,0.8,1.4,0.9,1.8c0.1,0.4,0.1,1.3,0.2,1.6c0.1,0.2-0.2,0.2-0.5,0c-0.3-0.2-1.8-0.7-1.8-1
					c-0.1-0.4-0.2-1.1-0.4-1.6c-0.3-0.6-0.8-1.6-0.8-2.2C25.9,42.3,26.5,41.9,26.5,41.9z"/>
			</g>
		</g>
	</g>
	<g>
		<g>
			<path fill="#F05640" d="M28,8.1c0,0,2.6,0,3,0.4c0.4,0.4,0.6,1,0.5,1.8c-0.1,0.7-0.7,2.9-0.7,2.9s0.2,3.8,0.1,4.6
				c-0.2,0.8-0.3,0.8-0.3,1.7c-0.1,0.9,0,2,0,2s-1.3-0.2-1.3-1.4c0-0.8,0.4-1.6,0.5-2.1c0-0.5,0.5-2.9,0.7-3.7
				c0.2-0.9,0.2-1.7,0.2-1.7l-1.7-3.4L28,8.1z"/>
		</g>
	</g>
	<g>
		<ellipse fill="#425A6B" cx="27.2" cy="5.4" rx="2.5" ry="3.7"/>
	</g>
	<g>
		<g>
			<path fill="#FFD15C" d="M29.3,3.5c0,0-0.1,2.3-1,3.4c0,0-0.6,1.7,1.1,2.7l-1.5,0.6l-2.8-0.3c0,0,1-1.9,0.9-3.5
				c0,0-0.8-1.5-0.9-3.3c-0.1-1.8,1.5-2.6,2.2-2.6C27.9,0.5,29.2,1.9,29.3,3.5z"/>
		</g>
	</g>
	<g>
		<path fill="#F5B54C" d="M28.3,6.9c-1.5,1.1-2.4-0.5-2.4-0.5c0,0.5,0,1.1-0.2,1.5C27.8,8.2,28.3,6.9,28.3,6.9z"/>
	</g>
	<g>
		<g>
			<path fill="#E8EAE8" d="M29,9.2c0,0-1.4,1.4-3.6-0.3l-4.3,12.6c0,0-0.5,2.5-0.5,5.7c0.1,3.2-0.3,6.4-0.3,6.4s4.9-0.9,6.9-1
				s3.5-0.4,3.5-0.4s-0.5-5.7-0.9-7.1c-0.4-1.5-0.2-1.6-0.2-1.6s0.2-0.1-0.1-0.8s0-0.7,0-1.7c0.1-1,0.1-3.5,0.2-4.3
				c0.2-0.8,0.7-2.4,0.7-3.3S29,9.2,29,9.2z"/>
		</g>
	</g>
	<g>
		<g>
			<path fill="#344A5E" d="M26.8,32.5c0,0,0.7-0.5,0.6-0.8c0-0.3-1.4-0.6-3.2-0.9c-1.8-0.4-6-1.4-6.1-1.2c-0.1,0.2,0.2,0.4,0.4,0.6
				c0.2,0.2-0.8,0.2-0.8,0.2L26.8,32.5z"/>
		</g>
	</g>
	<g>
		<g>
			<path fill="#425A6B" d="M27.5,31.7c0,0,0.1,2,0.3,2.8c0.2,0.8,0.3,2.1,0,2.7c-0.3,0.6-1.3,2-1.5,2.4c-0.2,0.3-0.7,0.4-1.5,0.2
				c-0.8-0.2-7.2-2-7.6-2.1c-0.5-0.1-0.7-0.6-0.6-1.4c0-0.7,1.1-6.3,1.1-6.3s2.3,0.3,2.7,0.4c0.4,0.1,5.2,1.2,5.7,1.3
				C26.4,31.8,27.4,32.1,27.5,31.7z"/>
		</g>
	</g>
	<g>
		<g>
			<path fill="#344A5E" d="M21.2,27.7c0.2-0.2,0.4,0.4,0.4,0.4s-0.3,0.8-0.4,1.2"/>
		</g>
	</g>
	<g>
		<g>
			<path fill="#FFD15C" d="M22.8,21.9c0,0,0.1,1.2,0.2,1.7c0,0.5,0.1,1.2,0.1,1.4c0.1,0.2,0.4,1,0.5,1.3c0.1,0.3,0.1,0.3,0.1,0.3
				s0.1,0.4,0.2,0.6c0.1,0.2,0.1,0.3,0,0.4c-0.1,0.1-0.3,0.6-0.3,0.6s-0.4-0.3-0.2-0.7l-0.1-0.5c0,0-0.1,0.4-0.1,0.5
				c0,0,0.1,0.8-0.1,0.9c-0.2,0.1-0.4-0.1-0.4-0.3c0,0-0.2,0.1-0.4-0.2c0,0-0.1,0.2-0.4,0c0,0-0.2,0.1-0.4,0.1
				c-0.2-0.1-0.2-0.2-0.2-0.5c0-0.3,0-0.6,0-0.8s0.1-0.7,0.2-1s0.2-0.6,0.2-0.8c0-0.2-0.3-2.4-0.5-2.7C21,22.1,21,22.1,21,22.1
				L22.8,21.9z"/>
		</g>
	</g>
	<g>
		<g>
			<path fill="#F05640" d="M25.2,8.7l-0.8-0.9c0,0-1.8,0.1-2.3,0.3c0,0,1.7,1.8,1.5,3.6c-0.2,1.8-2.6,10.8-2.6,10.8s4.2-0.5,5-3.8
				c0.9-3.4-0.2-7.9-0.2-7.9L25.2,8.7z"/>
		</g>
	</g>
	<g>
		<g>
			<path fill="#F26F5A" d="M24.5,8.7c0,0,0.7,1.9,0.8,3c0.1,1.1,0.4,4.7,0.6,5.4c0.2,0.7,0,1.6,0,1.6s0.7-1.3,0.7-4.4
				c-0.1-3.1-0.8-6.1-0.8-6.1l-1.2,0.5"/>
		</g>
	</g>
	<g>
		<g>
			<path fill="#F26F5A" d="M28.9,9.2c0,0,1,2.1,1.3,3.4c0.3,1.3,0.5,3.1,0.7,4.1c0.1,1-0.8,4.1-0.6,4.7c0.2,0.6,0.9,0.1,0.7-0.5
				c-0.2-0.5-0.4-1.7-0.3-2.2c0.2-0.5,0.2-0.8,0.3-1.5c0.1-0.7,0.3-2.6,0.1-3.9c-0.2-1.2-0.6-3.1-1-3.7c-0.4-0.7-0.9-0.9-0.9-0.9
				L28.9,9.2z"/>
		</g>
	</g>
	<g>
		<g>
			<path fill="#425A6B" d="M30.8,8.9c0-0.7,0-1.4-0.1-2.1c0-0.4,0-0.8,0-1.2c0-1.1-0.2-2.1-0.6-3.1c-0.4-1-1.1-1.9-2.1-2.3
				C27.6,0,27,0,26.4,0c-0.2,0.1-0.5,0.2-0.7,0.4c-0.4,0.2-0.7,0.7-1,1.1c-0.5,0.8-0.9,1.7-0.9,2.6C23.7,5,23.6,6,23.8,6.9
				c0.1,0.5,0.2,0.9,0.5,1.3c0.2,0.4,0.5,0.8,0.8,1.2c0.3,0.4,0.7,0.7,1,1.1c0.1,0.1,0.2,0.2,0.2,0.3c0.1,0.2,0.1,0.3,0.2,0.5
				c-0.1-0.9-0.2-1.8-0.3-2.7c-0.1-0.5-0.1-1.1-0.4-1.5c-0.2-0.3-0.5-0.5-0.6-0.9c-0.2-0.5,0-1,0.1-1.4c0.2-0.5,0.3-1.1,0.5-1.6
				c0.1-0.3,0.2-0.6,0.3-0.9c0.1-0.3,0.2-0.5,0.3-0.8c0.2-0.3,0.5-0.5,0.9-0.5c0,0,0.1,0,0.1,0c0.5,0,0.9,0.3,1.1,0.7
				c0.2,0.6,0.4,1.2,0.5,1.8c0.2,1,0.4,2,0,2.9c-0.2,0.3-0.4,0.7-0.4,1c0,0.4,0.2,0.8,0.4,1.1c0.2,0.3,0.5,0.6,0.6,1
				c0.1,0.3,0,0.7,0,1c0,0.4,0,0.8,0.2,1.2c0-0.5,0.2-0.9,0.5-1.3c0.2-0.3,0.5-0.5,0.6-0.9C30.8,9.3,30.8,9.1,30.8,8.9z"/>
		</g>
	</g>
	<g>
		<path fill="#425A6B" d="M28.3,7.1c0,0.6-0.1,1.2,0.1,1.8c0.1,0.4,0.4,0.7,0.5,1.1c0.4,0.7,0.5,1.6,0.5,2.4
			c0.2-0.9,0.3-1.8,0.3-2.7c0-0.4,0-0.7-0.1-1.1c-0.1-0.6-0.5-1.1-0.8-1.6"/>
	</g>
	<g>
		<g>
			<path fill="#425A6B" d="M25,8.8c0,0,0,0,0.1,0.1c0,0,0.1,0.1,0.1,0.1c0,0,0.1,0.1,0.1,0.2c0,0,0,0.1,0.1,0.1c0,0,0,0.1,0.1,0.1
				c0,0.1,0.1,0.1,0.1,0.2c0,0.1,0.1,0.2,0.1,0.2c0,0.1,0.1,0.2,0.1,0.3c0.1,0.2,0.1,0.3,0.2,0.5c0,0,0,0.1,0,0.1c0,0,0,0.1,0,0.1
				c0,0.1,0,0.2,0,0.2c0,0.1,0,0.3,0,0.3c0,0.1,0,0.1,0,0.1s0,0,0-0.1c0-0.1,0-0.2-0.1-0.3c0-0.1,0-0.1-0.1-0.2c0,0,0-0.1,0-0.1
				c0,0,0-0.1-0.1-0.1c-0.1-0.2-0.2-0.3-0.3-0.5c0-0.1-0.1-0.2-0.1-0.2c0-0.1-0.1-0.2-0.1-0.2c0-0.1-0.1-0.1-0.1-0.2
				c0,0,0-0.1-0.1-0.1c0,0,0-0.1-0.1-0.1C25,9.2,25,9.2,25,9.1c0,0-0.1-0.1-0.1-0.1c-0.1-0.1-0.1-0.1-0.1-0.1L25,8.8z"/>
		</g>
	</g>
	<g>
		<g>
			<path fill="#425A6B" d="M30.7,8.4C30.7,8.4,30.7,8.4,30.7,8.4c0,0.1,0,0.1,0,0.1c0,0,0,0.1,0,0.1c0,0,0,0.1,0,0.1
				c0,0,0,0.1,0,0.1c0,0,0,0,0,0.1c0,0,0,0,0,0.1c0,0,0,0,0,0.1c0,0,0,0,0,0.1c0,0,0,0.1,0,0.1c0,0,0,0.1,0,0.1c0,0,0,0.1,0,0.2
				c0,0.1,0,0.2-0.1,0.3c0,0.1-0.1,0.2-0.1,0.3c0,0.1-0.1,0.2-0.1,0.3c-0.1,0.1-0.1,0.2-0.2,0.3c-0.1,0.1-0.1,0.2-0.1,0.3
				c0,0.1-0.1,0.2-0.1,0.2c-0.1,0.1-0.1,0.3-0.1,0.4c0,0,0,0.1,0,0.1c0,0,0,0,0,0s0,0,0,0c0,0,0-0.1,0-0.1c0-0.1,0-0.2,0.1-0.4
				c0-0.1,0.1-0.2,0.1-0.2c0-0.1,0.1-0.2,0.1-0.3c0-0.1,0.1-0.2,0.1-0.3c0-0.1,0.1-0.2,0.1-0.3c0-0.1,0.1-0.2,0.1-0.3s0-0.2,0.1-0.3
				c0,0,0-0.1,0-0.1c0,0,0-0.1,0-0.1c0,0,0-0.1,0-0.1c0,0,0,0,0-0.1c0,0,0,0,0-0.1c0,0,0,0,0-0.1c0,0,0,0,0-0.1c0,0,0-0.1,0-0.1
				c0,0,0-0.1,0-0.1c0,0,0-0.1,0-0.1C30.6,8.5,30.6,8.5,30.7,8.4C30.6,8.4,30.6,8.4,30.7,8.4L30.7,8.4z"/>
		</g>
	</g>
	<g>
		<g>
			<path fill="#425A6B" d="M24,4.9c0,0-0.1,1-0.1,2c0,0.1,0,0.2,0,0.4c0,0.1,0,0.2,0,0.4c0,0.1,0,0.2,0.1,0.3c0,0.1,0.1,0.2,0.1,0.3
				c0,0.1,0.1,0.2,0.1,0.2c0,0.1,0.1,0.1,0.1,0.2c0,0.1,0,0.1,0,0.1c0,0,0,0,0,0s0,0,0,0c0,0,0-0.1,0-0.1c0-0.1,0-0.1-0.1-0.2
				c0-0.1-0.1-0.1-0.1-0.2c0,0-0.1-0.1-0.1-0.1c0,0,0,0,0-0.1c0,0,0,0,0-0.1c0-0.1-0.1-0.2-0.1-0.3c0-0.1,0-0.2,0-0.4
				c0-0.1,0-0.2,0-0.4c0-1,0-2,0-2L24,4.9z"/>
		</g>
	</g>
	<g>
		<g>
			<path fill="#F26F5A" d="M23.5,11.7L23.5,11.7c0,0,0,0.1,0,0.1c0,0,0,0,0,0c-0.1,0.8-0.6,5.1-0.6,5.9c0,0.7,0.3,3.3,0.3,4
				c0,0.1,0,0.2,0,0.2c-0.3,0.1-2.7,0.7-2.7,0.7s-0.1-4.5-0.2-4.8c-0.1-0.3,0.1-2.6,0.3-3.6c0.2-1,0.3-2,0.4-3.6
				C21.3,9,22,8.1,22,8.1S23.7,9.9,23.5,11.7z"/>
		</g>
	</g>
	<g>
		<g>
			<path fill="#344A5E" d="M23.8,32.5c-0.1,0.3,0.3,0.8,0.5,0.2c0.3-0.6,0.3-1.2,0.2-1.6c-0.2-0.4-0.7-2.8-1.2-4.1
				c0,0-0.2,0.4-0.1,0.9c0,0,0.7,2.6,0.8,3.1C24,31.6,23.8,32.5,23.8,32.5z"/>
		</g>
	</g>
	<g>
		<g>
			<path fill="#344A5E" d="M21.2,29.3c-0.1,0.4-0.4,0.9-0.5,1.6c-0.1,0.7-0.4,1.2-0.6,1.1c-0.2-0.1-0.4-0.2-0.3-0.7s0.4-0.9,0.5-1.1
				c0.1-0.1,0.7-2.2,0.9-2.4"/>
		</g>
	</g>
	<g>
		<g>
			<path fill="#F26F5A" d="M25,45c0,0,0.4,0.6,0.4,0.7c0,0.1-0.9,0.7-1.5,0.4c-0.6-0.3-1-0.9-1-1.4c-0.1-0.4-0.1-1.1-0.2-1.5
				c-0.1-0.3-0.1-0.7-0.1-0.7s-0.2,0.3-0.2,0.7c0,0.3,0.2,0.9,0.2,1c0,0.1,0.6,1.3,0.5,1.7c0,0.3,0,0.7,0.3,0.8
				c0.2,0.2,2,1.1,2.2,1.1c0.2,0.1,0.5,0.2,0.4-0.1c0-0.2-0.2-0.5-0.2-0.6c0-0.2,0-0.9-0.1-1.2C25.5,45.8,25.3,45.3,25,45z"/>
		</g>
	</g>
	<g>
		<g>
			<path fill="#425A6B" d="M28.7,7c0,0,0,0.1-0.1,0.2c0,0.1-0.1,0.3-0.1,0.5c0,0.2-0.1,0.4-0.1,0.7c0,0.1,0,0.3,0,0.4
				c0,0.1,0,0.3,0.1,0.4c0,0.1,0.1,0.2,0.2,0.4c0.1,0.1,0.1,0.2,0.2,0.3c0.1,0.1,0.1,0.2,0.2,0.3c0.1,0.1,0.1,0.2,0.1,0.3
				c0,0.1,0.1,0.2,0.1,0.3c0,0.1,0,0.2,0,0.2c0,0,0,0.1,0,0.1c0,0,0,0,0,0.1c0,0,0,0,0,0s0,0,0,0c0,0,0,0,0-0.1c0,0,0,0,0-0.1
				c0-0.1,0-0.1,0-0.2c0-0.1,0-0.2-0.1-0.3c0-0.1-0.1-0.2-0.1-0.3c-0.1-0.1-0.1-0.2-0.2-0.3c-0.1-0.2-0.3-0.4-0.4-0.7
				c0-0.1-0.1-0.3-0.1-0.4c0-0.1,0-0.3,0-0.4c0-0.3,0.1-0.5,0.1-0.7c0-0.2,0.1-0.4,0.1-0.5C28.5,7,28.5,7,28.5,7L28.7,7z"/>
		</g>
	</g>
</g>
</svg>
