<?xml version="1.0" encoding="utf-8"?>
<!-- Generator: Adobe Illustrator 19.0.1, SVG Export Plug-In . SVG Version: 6.00 Build 0)  -->
<svg version="1.1" id="Layer_1" xmlns="http://www.w3.org/2000/svg" xmlns:xlink="http://www.w3.org/1999/xlink" x="0px" y="0px"
	 viewBox="0 0 48 48" style="enable-background:new 0 0 48 48;" xml:space="preserve">
<style type="text/css">
	.st0{fill:#FFD15C;}
	.st1{fill:#415A6B;}
	.st2{fill:#F7B64C;}
	.st3{fill:#CED6E0;}
	.st4{fill:#344A5E;}
	.st5{fill:#F3F3F3;}
	.st6{fill:#F05540;}
	.st7{fill:#F3705A;}
	.st8{fill:#66C6B9;}
	.st9{fill:#55C0EB;}
	.st10{fill:#F5F6FB;}
	.st11{fill:#4ABAA5;}
	.st12{fill:#ADB3BA;}
	.st13{fill:#E8EAE9;}
	.st14{fill:#2E4556;}
	.st15{fill:#8AD7F8;}
	.st16{fill:#FFFFFF;}
	.st17{fill:#E54838;}
	.st18{fill:#3EAF99;}
	.st19{fill:#EFA943;}
	.st20{fill:#4CAEE5;}
	.st21{fill:#293F4F;}
	.st22{fill:#2D4456;}
	.st23{fill:#2E4454;}
	.st24{fill:#2A3F4F;}
	.st25{fill:#2D4151;}
	.st26{fill:#E89E3D;}
	.st27{fill:#2B4151;}
	.st28{fill:#2A4051;}
	.st29{fill:#2C4151;}
	.st30{fill:#EBEAE8;}
	.st31{fill:#3AA590;}
	.st32{fill:#E84534;}
	.st33{fill:none;}
</style>
<g>
	<g>
		<g>
			<g>
				<g>
					<path class="st3" d="M13.2,33.3c0.2,0,0.3,0.2,0.3,0.3s0,0.3-0.1,0.5c-0.3,0.4-0.5,0.9-0.7,1.3h21c0.5-0.5,0.9-1.1,0.9-1.9
						c0-0.2,0-0.4-0.1-0.6c0-0.1,0-0.3,0.1-0.4c0.1-0.1,0.2-0.2,0.4-0.2c1.2-0.1,2-1.1,2-2.2c0-1.2-1-2.2-2.2-2.2
						c-0.7,0-1.4,0.4-1.8,1c-0.1,0.1-0.2,0.2-0.4,0.2h0c-0.2,0-0.3-0.1-0.4-0.2c-0.5-0.8-1.5-1.3-2.4-1.3c-0.8,0-1.5,0.3-2,0.8
						c-0.1,0.1-0.2,0.1-0.3,0.1c0,0-0.1,0-0.1,0c-0.4-0.1-0.8-0.2-1.2-0.2c-0.1,0-0.1,0-0.2,0c0,0,0,0,0,0c-0.2,0-0.5-0.2-0.5-0.4
						l-1-9.5h-1l-1,9.6c0,0.2-0.1,0.3-0.3,0.4c-0.1,0-0.1,0-0.2,0c-0.1,0-0.2,0-0.3-0.1c-0.8-0.8-1.9-1.2-3-1.2
						c-0.8,0-1.6,0.2-2.2,0.6c-0.1,0-0.2,0.1-0.3,0.1c-0.1,0-0.2,0-0.3-0.1c-0.5-0.4-1.2-0.6-1.9-0.6c-1.7,0-3.2,1.4-3.2,3.2
						C10.8,31.7,11.8,33,13.2,33.3z"/>
					<path class="st12" d="M13.1,33.8c-0.4,0.5-0.7,1-0.8,1.7h1c0.1-0.4,0.3-0.7,0.5-1c0.2-0.3,0.3-0.6,0.2-0.9
						c-0.1-0.3-0.4-0.6-0.7-0.6c-1.2-0.3-2.1-1.4-2.1-2.6c0-1.5,1.2-2.7,2.7-2.7c0.6,0,1.1,0.2,1.6,0.5c0.2,0.1,0.4,0.2,0.6,0.2
						c0.2,0,0.4,0,0.5-0.1c0.6-0.4,1.3-0.6,2-0.6c1,0,2,0.4,2.7,1.1c0.2,0.2,0.4,0.3,0.7,0.3c0.1,0,0.2,0,0.3-0.1
						c0.4-0.1,0.6-0.4,0.6-0.8l1-9.2h0.2l0.9,9c0.1,0.5,0.5,0.9,1,0.9c0,0,0,0,0.1,0c0,0,0.1,0,0.1,0c0.4,0,0.7,0.1,1,0.2
						c0.1,0,0.2,0,0.3,0c0.2,0,0.5-0.1,0.7-0.3c0.5-0.4,1-0.7,1.7-0.7c0.8,0,1.6,0.4,2,1.1c0.2,0.3,0.5,0.4,0.8,0.4c0,0,0,0,0,0
						c0.3,0,0.6-0.2,0.8-0.4c0.3-0.5,0.9-0.7,1.4-0.7c1,0,1.8,0.8,1.8,1.8c0,0.9-0.7,1.7-1.6,1.7c-0.3,0-0.5,0.2-0.7,0.4
						c-0.2,0.2-0.2,0.5-0.2,0.8c0,0.1,0.1,0.3,0.1,0.5c0,0.9-0.6,1.6-1.4,1.9h1.7c0.4-0.5,0.7-1.2,0.7-1.9c0-0.2,0-0.5-0.1-0.7
						c1.4-0.1,2.5-1.3,2.5-2.7c0-1.5-1.2-2.7-2.7-2.7c-0.9,0-1.7,0.5-2.2,1.2c-0.6-0.9-1.7-1.5-2.9-1.5c-0.9,0-1.7,0.4-2.3,0.9
						c-0.4-0.1-0.9-0.2-1.3-0.2c-0.1,0-0.1,0-0.2,0l-1-9.9H23L22,28c-0.9-0.9-2.1-1.4-3.4-1.4c-0.9,0-1.8,0.3-2.5,0.7
						c-0.6-0.4-1.3-0.7-2.2-0.7c-2,0-3.7,1.6-3.7,3.7C10.3,32,11.5,33.4,13.1,33.8z"/>
				</g>
			</g>
		</g>
		<g>
			<g>
				<path class="st4" d="M7,40.6l4.7,4.7c2.1,0.8,3.7-10.8,3.3-12c-0.2-0.5-0.5-0.7-0.8-0.7S7,40.6,7,40.6z"/>
			</g>
			<g>
				<path class="st4" d="M41.1,40.4l-5,4.4c-2.1,0.6-3-11-2.5-12.1c0.2-0.5,0.6-0.7,0.8-0.7S41.1,40.4,41.1,40.4z"/>
			</g>
			<g>
				<g>
					<path class="st2" d="M32.3,39.3l0.2,1.7c0,0,0.4,1,0,1.6c-0.4,0.6-0.9,0.7-2,0.2c0,0,0.5,1.2,0,1.8c-0.5,0.7-1.5,0.4-1.8,0.2
						c0,0,0.4,0.7-0.2,1.4c-0.6,0.7-1.6,0.3-1.6,0.3s0,0.7-0.3,1c-0.3,0.2-0.9,0.4-2.1-0.3l-1.3,0.2l-2-2.1l-1.5,0.7L19,45.2
						l-2.8-1.6l-1.2-1.1c0,0-0.7-0.6-1.2-0.9s-5.8-1.9-5.8-1.9L13,34c0,0,3.3,1,3.7,1.1c0.4,0.1,1.4-0.4,2.1-0.8
						c0.5-0.2,2.4-1.2,3.2-1.6c0.2-0.1,0.5-0.2,0.7-0.1l3.5,0.2c0.4,0,0.9,0.3,1.1,0.6l1.2,1.9L32.3,39.3z"/>
				</g>
				<g>
					<path class="st0" d="M19.5,37.5c0,0,1.4,1.4,2.9-1.6c0,0,0.8-0.3,1-0.4c0,0,0.3,0,0.9,0.4c0.6,0.3,2.4,1.5,3.3,1.9
						c0.9,0.5,2.4,1.4,3.1,1.7c0.7,0.3,1.8,1.4,1.8,1.4s0.4-0.2,0.6-0.4c0,0,1.5-0.3,3.1-0.3s1.7-0.1,1.7-0.1l-4.6-6.8
						c0,0-2.4,0.5-3,0.7c-0.6,0.2-1,0.4-2,0c-0.8-0.4-2.9-1.1-3.8-1.4c-0.3-0.1-0.5-0.1-0.8,0l-2.5,0.7c-0.5,0.1-0.9,0.5-1,1
						c-0.2,0.7-0.4,1.6-0.4,1.7l-0.3,1.3"/>
				</g>
				<g>
					<path class="st0" d="M15.1,42.5c0,0,0.5-0.2,1,0.3s0.5,0.8,0.7,0.9c0.2,0.1,0.4,0.1,0.6,0.1s0.9-1.3,1.7-1.1
						c0.8,0.2,1.1,0.7,1.1,1.1c0,0.4-0.7,1.5-0.7,1.5s0.5-0.4,0.7-0.7c0.2-0.3,1.4-1.7,2.2-1.2c0.8,0.5,0.5,1.5,0.5,1.5
						s0.8-0.3,1.2,0.3c0.4,0.6,0.3,0.9,0.2,1.3C24.1,46.8,24,47,24,47l0.5,0.2c0,0-0.6,1-1.6,0.8s-1.3-0.9-1.2-1.5
						c0,0-1,1.1-1.7,0.5c-0.8-0.6-0.8-1-0.7-1.4c0,0-0.7,0.6-1.6,0.2c-0.8-0.4-0.9-1.2-0.8-1.7c0,0-0.6,0.5-1.1,0.3
						C15.4,44.2,14.4,43.6,15.1,42.5z"/>
				</g>
				<g>
					<g>
						<path class="st5" d="M32.1,33.5c0,0,2.6,3.6,2,7.6l9.3,0.4l-2.1-9.9L32.1,33.5z"/>
					</g>
					<g>
						<path class="st1" d="M33.6,32.7c0,0,0.4-0.8,0.6-0.4c0.4,0.6,3.3,11.6,1.9,12.5L48,42l-3.1-12.1l-10.7,1.9
							C34.2,31.8,33.5,31.9,33.6,32.7z"/>
					</g>
				</g>
				<g>
					<g>
						<path class="st5" d="M16.1,34.4c0,0-2.8,3.4-2.5,7.5l-9.3-0.2L7,32L16.1,34.4z"/>
					</g>
					<g>
						<path class="st1" d="M15,33.4c0,0-0.3-0.8-0.6-0.4c-0.4,0.6-4.1,11.4-2.7,12.4L0,41.8l3.8-11.9l10.6,2.6
							C14.4,32.5,15.1,32.6,15,33.4z"/>
					</g>
				</g>
			</g>
		</g>
		<g>
			<g>
				<path class="st6" d="M27.1,18.2V7.5C27.1,4.7,26,2,24,0c-2,2-3.1,4.7-3.1,7.5v10.7H27.1z"/>
			</g>
			<g>
				<g>
					<g>
						<path class="st3" d="M28.8,9.6L28.8,9.6c0.9,0.9,1.4,2.1,1.4,3.3v9.6h-2.8V13C27.4,11.7,27.9,10.5,28.8,9.6L28.8,9.6z"/>
					</g>
					<g>
						<polygon class="st1" points="27,23.7 27.4,22.6 30.2,22.6 30.5,23.7 						"/>
					</g>
				</g>
				<g>
					<g>
						<path class="st3" d="M19.2,9.6L19.2,9.6c0.9,0.9,1.4,2.1,1.4,3.3v9.6h-2.8V13C17.8,11.7,18.3,10.5,19.2,9.6L19.2,9.6z"/>
					</g>
					<g>
						<polygon class="st1" points="17.5,23.7 17.8,22.6 20.6,22.6 21,23.7 						"/>
					</g>
				</g>
			</g>
			<g>
				<path class="st13" d="M24,7.4L24,7.4c1,1,1.6,2.4,1.6,3.8v0.2c0.2,6.8,2.7,5.9,4,6.7c1.3,0.8,1,2.8,1,2.8H17.4
					c0,0-0.3-1.9,1-2.8c1.3-0.8,3.8,0,4-6.7v-0.2C22.4,9.8,23,8.4,24,7.4L24,7.4z"/>
			</g>
			<g>
				<path class="st1" d="M25.6,12.6c0-0.4-0.1-0.8-0.1-1.2v-0.2c0-1.4-0.6-2.8-1.6-3.8c-1,1-1.6,2.4-1.6,3.8v0.2
					c0,0.4,0,0.8-0.1,1.2H25.6z"/>
			</g>
		</g>
	</g>
	<circle class="st4" cx="39.6" cy="41.1" r="1.2"/>
	<circle class="st4" cx="8.7" cy="41.1" r="1.2"/>
</g>
</svg>
