<?xml version="1.0" encoding="utf-8"?>
<!-- Generator: Adobe Illustrator 19.0.1, SVG Export Plug-In . SVG Version: 6.00 Build 0)  -->
<svg version="1.1" id="Layer_1" xmlns="http://www.w3.org/2000/svg" xmlns:xlink="http://www.w3.org/1999/xlink" x="0px" y="0px"
	 viewBox="0 0 48 48" style="enable-background:new 0 0 48 48;" xml:space="preserve">
<style type="text/css">
	.st0{fill:#415A6B;}
	.st1{fill:#ADB3BA;}
	.st2{fill:#E8EAE9;}
	.st3{fill:#55C0EB;}
	.st4{fill:#F3705A;}
	.st5{fill:#FFFFFF;}
	.st6{fill:#FFD15C;}
	.st7{fill:#344A5E;}
	.st8{fill:#CED6E0;}
	.st9{fill:#F05540;}
	.st10{fill:#F7B64C;}
	.st11{fill:#F3F3F3;}
	.st12{fill:#66C6B9;}
	.st13{fill:#4ABAA5;}
	.st14{fill:#8AD7F8;}
	.st15{fill:none;}
	.st16{fill:#E53D35;}
</style>
<g>
	<g>
		<g>
			<g>
				<path class="st10" d="M31.3,10.3l0,2.7c0,0-0.6,2.8,0.3,4.6c3.2-0.6,6.7-1.1,5.7-4.6v-2.7H31.3z"/>
			</g>
			<g>
				<polyline class="st13" points="34.3,16.8 40.5,16.8 36.6,29.8 29.9,29.8 29.7,15.9 33.1,16.8 34.3,16.8 				"/>
			</g>
			<g>
				<g>
					<polygon class="st0" points="36.6,30 35.2,19.4 33.4,19.4 31.9,30 					"/>
				</g>
				<g>
					<polygon class="st7" points="35.2,19.4 36,18.5 34.3,16.8 32.5,18.5 33.4,19.4 					"/>
				</g>
			</g>
			<g>
				<g>
					<g>
						<path class="st12" d="M31.3,13c0,0-0.3,0.8,0,1.4c0.3,0.5,3,2.5,3,2.5l-2.6,2.6L30.1,16l0.5-1.9c0.1-0.3,0.2-0.6,0.4-0.8
							C31,13.2,31.1,13.1,31.3,13z"/>
					</g>
					<g>
						<g>
							<path class="st8" d="M32.2,30L29.8,19l-0.2-3.6l-5.8,2.2c-1.5,0.6-2.5,1.9-2.6,3.5L20.7,30H32.2z"/>
						</g>
						<g>
							<path class="st11" d="M31.1,30h1.6c-0.4-2.3-1.4-8.7-1.9-10.4c-0.5-2.1-0.3-5.6-0.3-5.6c-0.3,0.1-0.7,0.9-0.7,0.9
								c-0.5,0.6-0.8,1.2-1.1,1.9c-0.4,0.9-0.9,2.1-0.9,2.1l1.4-0.1l-1.8,1.6L31.1,30z"/>
						</g>
					</g>
				</g>
				<g>
					<g>
						<path class="st12" d="M37.3,13c0,0,0.3,0.8,0,1.4s-3,2.5-3,2.5l2.6,2.6l1.7-3.4L38,14.1c-0.1-0.3-0.2-0.6-0.4-0.8
							C37.5,13.2,37.4,13.1,37.3,13z"/>
					</g>
					<g>
						<g>
							<path class="st8" d="M47.8,30l-0.6-8.8c-0.1-1.6-1.1-2.9-2.6-3.5l-5.8-2.2L38.7,19L36.3,30H47.8z"/>
						</g>
						<g>
							<path class="st11" d="M35.7,30h1.6l3.7-9.6l-1.8-1.6l1.4,0.1c0,0-0.5-1.2-0.9-2.1c-0.3-0.7-0.7-1.3-1.1-1.9
								c0,0-0.4-0.8-0.7-0.9c0,0,0.2,3.5-0.3,5.6C37.2,21.3,36.1,27.6,35.7,30z"/>
						</g>
					</g>
				</g>
			</g>
			<g>
				<path class="st6" d="M38.7,7.7c-0.3-1.1-0.2-2.2-1-3.1c-0.7-0.8-1.7-1.4-2.8-1.4c-1.2,0-2.2,0.1-3.3,0.8c-1.1,0.7-1.2,1.8-1.4,3
					c0,0.2,0,0.3,0,0.5c-0.1,0.5-0.2,1-0.2,1.6c0,3.2,1.9,5.8,4.2,5.8c2.3,0,4.2-2.6,4.2-5.8c0-0.1,0-0.2,0-0.3
					C38.7,8.4,38.8,8.1,38.7,7.7z"/>
				<g>
					<path class="st0" d="M39,7.3c0,0-0.3,0.3-0.4,0.7c0,0,0,0.1,0,0.1h-0.2c0-0.8-0.1-1.8-0.2-2C37.9,6,37.8,5.8,37.9,5
						c0.1-0.8-1-1.5-2-1.3c-1,0.2-2,0.2-3,0c-1-0.2-2.1,0.6-2,1.4c0.1,0.8,0,0.9-0.2,1.1c-0.1,0.2-0.2,1.2-0.2,2h-0.2
						c0,0,0-0.1,0-0.1c-0.2-0.4-0.4-0.7-0.4-0.7S29.6,5,29.8,3.6c0.2-1.4,0.5-1.9,1.2-2.5c0.3-0.3,1-0.6,1.7-0.8
						C34-0.2,36,0,37.1,0.6c0.3,0.1,0.5,0.3,0.7,0.5c0.7,0.6,1.1,1.2,1.2,2.5C39.2,5,39,7.3,39,7.3z"/>
				</g>
				<g>
					
						<ellipse transform="matrix(-0.9906 0.1366 -0.1366 -0.9906 61.3097 13.7902)" class="st6" cx="30.2" cy="9" rx="0.7" ry="1.6"/>
				</g>
				<g>
					<ellipse transform="matrix(0.9906 0.1366 -0.1366 0.9906 1.5926 -5.2147)" class="st6" cx="38.8" cy="9" rx="0.7" ry="1.6"/>
				</g>
			</g>
		</g>
		<g>
			<g>
				<g>
					<path class="st0" d="M7.7,6.4c0,0,0.8,3.2,1.5,4.4l1.1-1.1L7.7,6.4z"/>
				</g>
				<g>
					<path class="st6" d="M8,4.4l0.1,2.3c0,0,0.3,2.8,1.4,4.9v0.8l-2.1,4.2l4.1,2.4l4.9-0.9l-0.9-4.7l-0.4-1.2v-0.3
						c0,0,1.7-2.5,1.4-5.4s-0.3-2.9-0.3-2.9l-4.2-1.8C12.1,1.8,8.6,1.2,8,4.4z"/>
				</g>
				<g>
					<path class="st2" d="M16.4,30l-0.5-15.6h-0.2c-0.6,1.3-1.9,2.2-3.4,2.2c-1.5,0-2.8-0.9-3.4-2.2H8.7L8.3,30H16.4z"/>
				</g>
				<g>
					<path class="st0" d="M9.2,10.9c0,0-0.9-2-0.9-2.9S8.1,6.4,8.6,5.9C9,5.3,8.8,4.8,8.8,4.2c0-0.6,0.9-1.3,1.6-1.3s2.1,0.2,3,1.2
						s1.9,2.8,2.1,3.5s0.8,2.9-0.3,5.2c0,0,0.9-1.3,0.8-3c0,0,0.3,0.9-0.4,3.5c0,0,0.4-0.8,0.7-2.6c0.2-1.6,0-3.3-0.7-4.8
						c-0.1-0.3-0.3-0.6-0.5-0.9c0,0,1.5,1.8,1.5,4.8c0,0,1.5-2.9,1.2-5.3C17.7,3,16.4,1.3,15,0.6s-3.1-0.9-4.6-0.3S7.6,1.8,7.2,2.7
						s-0.3,2.9,0,4.1C7.5,8,8.2,9.9,9.2,10.9z"/>
				</g>
				<g>
					<path class="st10" d="M9.6,11.6v0.8l-0.7,2.5c5-0.3,6.2-3,6.2-3C12.6,14.7,9.6,11.6,9.6,11.6z"/>
				</g>
			</g>
			<g>
				<g>
					<g>
						<path class="st4" d="M24.5,30c-0.3-3.5-0.7-8.6-0.8-10.5c-0.1-3.2-0.8-3.4-0.8-3.4l-2.1,1.5l-1.1,2.8V30H24.5z"/>
					</g>
					<g>
						<path class="st9" d="M20.3,30c0-2,0.1-4.5,0.2-6.7c0.2-4.5,2.4-7.2,2.4-7.2l-6.1-2.1L16.4,14c-0.8,2.2-1.8,11-2.3,16H20.3z"/>
					</g>
					<g>
						<path class="st4" d="M14.4,30c0.7-3.4,1.6-8.1,2.2-9.6c0.9-2.3,0.9-2.3,0.9-2.3l-0.9-1.5l1.7,0.3c0,0-0.5-2.2-1.4-3
							c-0.8-0.8-1.3-1.6-1.7-1.7c0,0,0.1,3-0.8,7.2c-0.6,2.5-0.7,7.3-0.7,10.6H14.4z"/>
					</g>
				</g>
				<g>
					<g>
						<path class="st4" d="M5,30v-9.7l-1.1-2.8L1.7,16c0,0-0.7,0.2-0.8,3.4c-0.1,2-0.5,7.1-0.8,10.5H5z"/>
					</g>
					<g>
						<path class="st9" d="M4.3,30h6.3c-0.5-5-1.5-13.7-2.3-16l-0.5-0.1L1.7,16c0,0,2.2,2.8,2.4,7.2C4.2,25.4,4.3,28,4.3,30z"/>
					</g>
					<g>
						<path class="st4" d="M7.2,18.1c0,0,0,0,0.9,2.3c0.6,1.4,1.5,6.2,2.2,9.6H11c0-3.3-0.1-8-0.7-10.6c-0.9-4.1-0.8-7.2-0.8-7.2
							c-0.5,0.1-0.9,0.9-1.7,1.7c-0.8,0.8-1.4,3-1.4,3l1.7-0.3L7.2,18.1z"/>
					</g>
				</g>
			</g>
		</g>
		<g>
			<g>
				<polygon class="st6" points="28,30.8 31.2,40.7 17,40.7 18.4,31.8 				"/>
			</g>
			<g>
				<path class="st2" d="M28.5,48V32c-0.9,1.8-2.7,3.1-4.8,3.1s-3.9-1.2-4.8-3.1v16H28.5z"/>
			</g>
			<g>
				<path class="st6" d="M28.4,21c0,0-0.1,4-0.8,5.7c0,0-0.3,0.7,0.1,1.7c0.4,1.1,0.8,2.7,2.2,4.3l-10.1,0l-0.5-1.9
					c-0.1,0,0.1-1.2,0.7-2.4c0.1-0.2,0-0.4,0-0.7c0,0-1.3-2.6-1.4-4.3c0-1.6-0.2-2.7-0.2-2.7s-0.9-6.7,4.8-5.4S28.9,16,28.4,21z"/>
			</g>
			<g>
				<g>
					<ellipse transform="matrix(0.9712 0.2383 -0.2383 0.9712 6.1688 -6.1)" class="st6" cx="28.3" cy="22.5" rx="0.8" ry="1.7"/>
				</g>
				<g>
					<path class="st6" d="M17.8,22.7c0.2,0.9,0.7,1.6,1.2,1.4c0.4-0.1,0.6-1,0.4-1.9c-0.2-0.9-0.7-1.6-1.2-1.4
						C17.8,20.9,17.6,21.8,17.8,22.7z"/>
				</g>
			</g>
			<g>
				<path class="st0" d="M19.4,18.6c0,0-0.3-0.8-0.1-1.6s0.5-1,1-0.7c0.5,0.3,3.5,0.6,4.8,0.2s2.5-0.1,2.4,0.8
					c-0.1,1-0.4,1.7-0.1,2.3c0.4,0.5,0.9,3.1,0.8,3.6c0,0,0.2-0.1,0.2-0.5c0-0.3,0-1.4,0.3-2.4c0.3-1,0.7-4-0.4-5.8
					c-1.2-1.8-3.9-2.5-5.9-2.5s-3.5,1.9-4.3,3.2c-0.5,0.8-0.3,1.5-0.3,2.6c0,1,0.1,2.1,0.3,3.1c0.1,0.8,0.2,1.8,0.2,1.8h0.2
					c0,0-0.3-1.7,0.3-2.5s0.6-0.9,0.6-1.7"/>
			</g>
			<g>
				<path class="st10" d="M27.6,26.8C27.6,26.8,27.6,26.8,27.6,26.8c0-0.1-1.4,2.4-2.2,3.1c-0.8,0.6-2.4,0.7-3.1,0.3
					c-1.1-0.5-2.2-2.5-2.2-2.5c0.1,1.1-0.8,1.7-0.8,1.7l0.5,3.2h1.8c1.1,0,2.3-0.3,3.2-1c0.2-0.1,0.3-0.3,0.5-0.4
					C27.2,29.4,27.5,27.3,27.6,26.8z"/>
			</g>
			<g>
				<g>
					<g>
						<path class="st0" d="M40.7,48c0.1-2.1-0.9-7.7-1.4-11.1c-0.6-3.6-2-3.6-2-3.6h-2.4c-2.4,0.6-2.6,8.4-2.4,14.7H40.7z"/>
					</g>
					<g>
						<g>
							<path class="st7" d="M34.8,48c-0.2-2.5-0.3-4.6-0.3-5.7c0.1-4.4,2.7-9,2.7-9c-1.2-1.4-6.8-3-6.8-3C28.5,33.7,27,40.5,25.6,48
								H34.8z"/>
						</g>
						<g>
							<path class="st0" d="M24.7,48h1.3c0.6-2.1,1.2-4.3,1.7-5.6c1.1-3,4.2-8.9,4.2-8.9l-1.8-1.2l1.4,0c0,0-0.3-1.2-1.2-2.4
								c-0.9-1.1-2.6-1.6-2.6-1.6s1,2.7-0.6,6.7C26.1,37.5,25.1,43.2,24.7,48z"/>
						</g>
					</g>
				</g>
				<g>
					<g>
						<path class="st0" d="M15.3,48c0.2-6.3-0.1-14.1-2.4-14.7h-2.4c0,0-1.4,0.1-2,3.6C7.9,40.3,6.9,45.9,7,48H15.3z"/>
					</g>
					<g>
						<g>
							<path class="st7" d="M12.9,48h9.2c-1.5-7.5-3-14.3-4.8-17.7c0,0-5.7,1.6-6.8,3c0,0,2.6,4.6,2.7,9
								C13.2,43.4,13.1,45.5,12.9,48z"/>
						</g>
						<g>
							<path class="st0" d="M20.1,42.4c0.5,1.3,1.1,3.5,1.7,5.6H23c-0.4-4.8-1.5-10.5-2.4-12.9c-1.6-4-0.6-6.7-0.6-6.7
								s-1.7,0.5-2.6,1.6c-0.9,1.1-1.2,2.4-1.2,2.4l1.4,0l-1.8,1.2C15.8,33.5,18.9,39.4,20.1,42.4z"/>
						</g>
					</g>
				</g>
			</g>
		</g>
	</g>
</g>
</svg>
