<?xml version="1.0" encoding="utf-8"?>
<!-- Generator: Adobe Illustrator 18.0.0, SVG Export Plug-In . SVG Version: 6.00 Build 0)  -->
<!DOCTYPE svg PUBLIC "-//W3C//DTD SVG 1.1//EN" "http://www.w3.org/Graphics/SVG/1.1/DTD/svg11.dtd">
<svg version="1.1" id="Layer_1" xmlns="http://www.w3.org/2000/svg" xmlns:xlink="http://www.w3.org/1999/xlink" x="0px" y="0px"
	 viewBox="0 0 48 48" enable-background="new 0 0 48 48" xml:space="preserve">
<g>
	<g>
		<g>
			<g>
				<path fill="#415A6B" d="M39.2,30.5c-3.4,0-8.2-2-12.4-4.7c-6.4-4.2-11.6-10.2-9.3-13.8c0.8-1.2,2.6-2.4,6.9-1.4
					c2.9,0.7,6.2,2.2,9.5,4.3l0,0c6.4,4.2,11.6,10.2,9.3,13.8C42.3,30,40.9,30.5,39.2,30.5z M21.5,13.1c-1,0-1.4,0.2-1.6,0.4
					c-0.7,1.1,2,5.6,8.4,9.8c6.5,4.2,11.7,4.9,12.4,3.8c0.7-1.1-2-5.6-8.4-9.8l0,0c-3-1.9-6-3.3-8.6-3.9
					C22.8,13.2,22,13.1,21.5,13.1z"/>
			</g>
		</g>
		<path fill="#4EC0AA" d="M43.9,34.3l-12.2-26C28.4,1.1,19.9-2,12.8,1.3c-7.1,3.3-10.2,11.8-6.9,19l12.2,26c0.7,1.4,2.4,2.1,3.8,1.4
			l20.7-9.7C44,37.4,44.6,35.7,43.9,34.3z M18,16.2c-2,0-3.6-1.6-3.6-3.6c0-2,1.6-3.6,3.6-3.6c2,0,3.6,1.6,3.6,3.6
			C21.7,14.6,20,16.2,18,16.2z"/>
		<path fill="#E8EAE9" d="M18.1,0.2c-7.9,0-14.3,6.4-14.3,14.3v28.7c0,1.6,1.3,2.9,2.9,2.9h22.8c1.6,0,2.9-1.3,2.9-2.9V14.5
			C32.3,6.6,25.9,0.2,18.1,0.2z M18,16.2c-2,0-3.6-1.6-3.6-3.6c0-2,1.6-3.6,3.6-3.6c2,0,3.6,1.6,3.6,3.6C21.7,14.6,20,16.2,18,16.2z
			"/>
		<g>
			<path fill="#415A6B" d="M39.2,30.5c-3.4,0-8.2-2-12.4-4.7c-6.4-4.2-11.6-10.2-9.3-13.8l2.4,1.6c-0.7,1.1,2,5.6,8.4,9.8
				c6.5,4.2,11.7,4.9,12.4,3.8l2.4,1.6C42.3,30,40.9,30.5,39.2,30.5z"/>
		</g>
	</g>
</g>
</svg>
