<?xml version="1.0" encoding="utf-8"?>
<!-- Generator: Adobe Illustrator 18.0.0, SVG Export Plug-In . SVG Version: 6.00 Build 0)  -->
<!DOCTYPE svg PUBLIC "-//W3C//DTD SVG 1.1//EN" "http://www.w3.org/Graphics/SVG/1.1/DTD/svg11.dtd">
<svg version="1.1" id="Layer_1" xmlns="http://www.w3.org/2000/svg" xmlns:xlink="http://www.w3.org/1999/xlink" x="0px" y="0px"
	 viewBox="0 0 48 48" enable-background="new 0 0 48 48" xml:space="preserve">
<g>
	<g>
		<g>
			<g>
				<g>
					<path fill="#F2F2F2" d="M37.8,32.6c-0.8,0-1.5-0.7-1.5-1.5V5.9c0-3.2,2.6-5.9,5.9-5.9S48,2.6,48,5.9c0,0.8-0.7,1.5-1.5,1.5
						S45,6.7,45,5.9C45,4.3,43.7,3,42.1,3s-2.9,1.3-2.9,2.9v25.2C39.3,31.9,38.6,32.6,37.8,32.6z"/>
				</g>
			</g>
			<g>
				<g>
					<path fill="#F2F2F2" d="M23.3,32.6c-0.8,0-1.5-0.7-1.5-1.5V5.9c0-3.2,2.6-5.9,5.9-5.9s5.9,2.6,5.9,5.9c0,0.8-0.7,1.5-1.5,1.5
						s-1.5-0.7-1.5-1.5c0-1.6-1.3-2.9-2.9-2.9s-2.9,1.3-2.9,2.9v25.2C24.8,31.9,24.1,32.6,23.3,32.6z"/>
				</g>
			</g>
			<g>
				<g>
					<path fill="#F2F2F2" d="M37.8,13.3H23.3c-0.8,0-1.5-0.7-1.5-1.5s0.7-1.5,1.5-1.5h14.5c0.8,0,1.5,0.7,1.5,1.5
						S38.6,13.3,37.8,13.3z"/>
				</g>
			</g>
			<g>
				<g>
					<path fill="#F2F2F2" d="M37.8,22.6H23.3c-0.8,0-1.5-0.7-1.5-1.5s0.7-1.5,1.5-1.5h14.5c0.8,0,1.5,0.7,1.5,1.5
						S38.6,22.6,37.8,22.6z"/>
				</g>
			</g>
		</g>
		<g>
			<path fill="#84DBFF" d="M0,48h48V28c-2.2-2.2-5.8-2.2-8,0l0,0c-2.2,2.2-5.8,2.2-8,0l0,0c-2.2-2.2-5.8-2.2-8,0l0,0
				c-2.2,2.2-5.8,2.2-8,0l0,0c-2.2-2.2-5.8-2.2-8,0l0,0c-2.2,2.2-5.8,2.2-8,0V48z"/>
		</g>
	</g>
	<path fill="#54C0EB" d="M25,35.7c0,0-0.1,0.1-0.2,0.2c-0.1,0.1-0.3,0.3-0.6,0.6c-0.6,0.4-1.6,1-2.9,1.1c-1.3,0.1-2.9-0.2-4.2-1.3
		l-0.5-0.4c-0.1-0.1-0.3-0.3-0.4-0.4c-0.3-0.2-0.6-0.4-0.9-0.6c-0.7-0.3-1.4-0.5-2.2-0.5c-0.8,0-1.5,0.2-2.2,0.5
		c-0.3,0.2-0.7,0.3-1,0.6c-0.2,0.1-0.3,0.2-0.4,0.3l-0.5,0.4c-1.3,1.1-3,1.4-4.3,1.3c-1.3-0.1-2.3-0.7-2.9-1.1
		c-0.3-0.2-0.5-0.4-0.6-0.6C1.1,35.7,1,35.7,1,35.7s0.1,0.1,0.2,0.2c0.1,0.1,0.4,0.3,0.7,0.5c0.3,0.2,0.7,0.4,1.2,0.5
		c0.5,0.1,1,0.2,1.6,0.2c1.2,0,2.6-0.4,3.6-1.4l0.4-0.4c0.2-0.1,0.3-0.3,0.5-0.4c0.3-0.3,0.7-0.5,1.1-0.7c0.8-0.4,1.7-0.6,2.6-0.6
		c0.9,0,1.8,0.2,2.6,0.6c0.4,0.2,0.8,0.4,1.1,0.7c0.2,0.1,0.3,0.3,0.5,0.4l0.4,0.4c1.1,1,2.5,1.4,3.6,1.4c0.6,0,1.1-0.1,1.6-0.2
		c0.5-0.1,0.9-0.3,1.2-0.5c0.3-0.2,0.5-0.3,0.7-0.5C24.9,35.7,25,35.7,25,35.7z"/>
	<path fill="#54C0EB" d="M47.6,33.6c0,0-0.1-0.1-0.2-0.2c-0.1-0.1-0.4-0.3-0.7-0.5c-0.3-0.2-0.7-0.4-1.2-0.5c-0.5-0.1-1-0.2-1.6-0.2
		c-1.2,0-2.6,0.4-3.6,1.4L39.8,34c-0.2,0.1-0.3,0.3-0.5,0.4c-0.4,0.3-0.7,0.5-1.1,0.7c-0.8,0.4-1.7,0.6-2.6,0.6
		c-0.9,0-1.8-0.2-2.6-0.6c-0.4-0.2-0.8-0.4-1.1-0.7c-0.2-0.1-0.3-0.3-0.5-0.4l-0.4-0.4c-1.1-1-2.5-1.4-3.6-1.4
		c-0.6,0-1.1,0.1-1.6,0.2c-0.5,0.1-0.9,0.3-1.2,0.5c-0.3,0.2-0.6,0.3-0.7,0.5c-0.2,0.1-0.2,0.2-0.2,0.2s0.1-0.1,0.2-0.2
		c0.1-0.2,0.3-0.3,0.6-0.6c0.6-0.4,1.6-1,2.9-1.1c1.3-0.1,2.9,0.2,4.3,1.3l0.5,0.4c0.1,0.1,0.3,0.3,0.4,0.3c0.3,0.2,0.6,0.4,1,0.6
		c0.7,0.3,1.4,0.5,2.2,0.5c0.8,0,1.5-0.2,2.2-0.5c0.3-0.2,0.7-0.4,0.9-0.6c0.1-0.1,0.3-0.2,0.4-0.4l0.5-0.4c1.3-1.1,3-1.4,4.2-1.3
		c1.3,0.1,2.3,0.7,2.9,1.1c0.3,0.2,0.5,0.4,0.6,0.6C47.5,33.5,47.6,33.6,47.6,33.6z"/>
	<path fill="#54C0EB" d="M29.9,42.6c0,0-0.1-0.1-0.2-0.2c-0.1-0.1-0.4-0.3-0.7-0.5c-0.3-0.2-0.7-0.4-1.2-0.5c-0.5-0.1-1-0.2-1.6-0.2
		c-1.2,0-2.6,0.4-3.6,1.4L22.1,43c-0.2,0.1-0.3,0.3-0.5,0.4c-0.4,0.3-0.7,0.5-1.1,0.7c-0.8,0.4-1.7,0.6-2.6,0.6
		c-0.9,0-1.8-0.2-2.6-0.6c-0.4-0.2-0.8-0.4-1.1-0.7c-0.2-0.1-0.3-0.3-0.5-0.4l-0.4-0.4c-1.1-1-2.5-1.4-3.6-1.4
		c-0.6,0-1.1,0.1-1.6,0.2c-0.5,0.1-0.9,0.3-1.2,0.5c-0.3,0.2-0.6,0.3-0.7,0.5c-0.2,0.1-0.2,0.2-0.2,0.2s0.1-0.1,0.2-0.2
		c0.1-0.2,0.3-0.3,0.6-0.6c0.6-0.4,1.6-1,2.9-1.1c1.3-0.1,2.9,0.2,4.3,1.3l0.5,0.4c0.1,0.1,0.3,0.3,0.4,0.3c0.3,0.2,0.6,0.4,1,0.6
		c0.7,0.3,1.4,0.5,2.2,0.5c0.8,0,1.5-0.2,2.2-0.5c0.3-0.2,0.7-0.4,0.9-0.6c0.1-0.1,0.3-0.2,0.4-0.4l0.5-0.4c1.3-1.1,3-1.4,4.2-1.3
		c1.3,0.1,2.3,0.7,2.9,1.1c0.3,0.2,0.5,0.4,0.6,0.6C29.8,42.5,29.9,42.6,29.9,42.6z"/>
	<path fill="#54C0EB" d="M45.1,44.2c0,0-0.2-0.2-0.6-0.4c-0.2-0.1-0.5-0.3-0.8-0.4c-0.3-0.1-0.7-0.2-1-0.3C42.2,43,41.8,43,41.4,43
		c-0.4,0-0.9,0.1-1.4,0.2c-0.9,0.2-1.8,0.7-2.6,1.5C37,45,36.5,45.4,36,45.6c-0.5,0.3-1.1,0.5-1.6,0.6c-1.1,0.2-2.2,0-3-0.3
		c-0.4-0.2-0.8-0.4-1.1-0.5c-0.3-0.2-0.5-0.4-0.7-0.6c-0.2-0.2-0.3-0.3-0.4-0.4c-0.1-0.1-0.1-0.2-0.1-0.2s0.2,0.2,0.6,0.4
		c0.2,0.1,0.5,0.3,0.8,0.4c0.3,0.1,0.7,0.2,1,0.3c0.8,0.2,1.7,0.2,2.6,0c0.5-0.1,0.9-0.3,1.4-0.5c0.4-0.2,0.8-0.5,1.2-0.9
		c0.9-0.8,2-1.4,3.1-1.6c0.6-0.1,1.1-0.1,1.6-0.1c0.5,0,1,0.2,1.4,0.3c0.4,0.2,0.8,0.4,1.1,0.5c0.3,0.2,0.5,0.4,0.7,0.6
		c0.2,0.2,0.3,0.3,0.4,0.4C45,44.2,45.1,44.2,45.1,44.2z"/>
</g>
</svg>
