<?xml version="1.0" encoding="utf-8"?>
<!-- Generator: Adobe Illustrator 16.0.0, SVG Export Plug-In . SVG Version: 6.00 Build 0)  -->
<!DOCTYPE svg PUBLIC "-//W3C//DTD SVG 1.1//EN" "http://www.w3.org/Graphics/SVG/1.1/DTD/svg11.dtd">
<svg version="1.1" id="Layer_1" xmlns="http://www.w3.org/2000/svg" xmlns:xlink="http://www.w3.org/1999/xlink" x="0px" y="0px"
	 width="48px" height="48px" viewBox="0 0 48 48" enable-background="new 0 0 48 48" xml:space="preserve">
<g>
	<rect x="17.161" y="26.345" fill="#F8B64C" width="13.652" height="12.316"/>
	<g opacity="0.1">
		<g>
			<defs>
				<rect id="SVGID_57_" x="20.315" y="26.347" width="10.498" height="11.23"/>
			</defs>
			<clipPath id="SVGID_2_">
				<use xlink:href="#SVGID_57_"  overflow="visible"/>
			</clipPath>
			<polygon clip-path="url(#SVGID_2_)" fill="#40596B" points="30.812,26.345 30.81,37.574 20.315,30.047 23.315,26.345 			"/>
		</g>
	</g>
	<path fill="#F8B64C" d="M16.747,17.401c0.152,1.727-0.686,3.212-1.871,3.316c-1.186,0.103-2.27-1.213-2.42-2.941
		c-0.15-1.727,0.688-3.211,1.873-3.315S16.597,15.673,16.747,17.401"/>
	<path fill="#F8B64C" d="M35.519,17.776c-0.15,1.727-1.232,3.044-2.418,2.94s-2.023-1.588-1.873-3.315
		c0.15-1.728,1.234-3.044,2.42-2.941C34.833,14.564,35.671,16.048,35.519,17.776"/>
	<path fill="#FFD15C" d="M33.956,12.881v3.272c-0.01,0.693-0.049,1.386-0.135,2.069c-0.145,1.136-0.385,2.252-0.723,3.33
		c-0.816,2.608-2.193,5.013-4.051,7.044l-0.953,1.039c-0.865,0.953-2.098,1.492-3.387,1.492h-1.443
		c-1.279,0-2.512-0.549-3.377-1.492l-0.943-1.039c-1.32-1.434-2.396-3.07-3.195-4.812c-0.809-1.751-1.348-3.628-1.578-5.563
		c-0.088-0.683-0.135-1.376-0.135-2.069c-0.01-0.077-0.01-0.144-0.01-0.221v-2.993c0-0.943,0.135-1.867,0.385-2.733
		c1.184-4.167,5.023-7.227,9.584-7.227c4.553,0,8.393,3.06,9.576,7.227C33.821,11.053,33.956,11.958,33.956,12.881"/>
	<path fill="#ACB3BA" d="M32.876,29.29c-0.012,0.011-0.021,0.011-0.021,0.011v-0.022C32.864,29.279,32.876,29.29,32.876,29.29"/>
	<path fill="#ACB3BA" d="M32.917,29.279V29.3c0,0-0.01,0-0.02-0.01C32.897,29.29,32.907,29.279,32.917,29.279"/>
	<path fill="#40596B" d="M33.8,18.581c0.322-3.15-0.258-5.236-0.709-6.318c-0.266-0.638-0.334-1.328-0.24-2.013
		c0.414-2.99-1.156-2.586-1.156-2.586c-3.381,1.661-7.703,1.624-7.703,1.624s-4.322,0.037-7.703-1.624c0,0-1.57-0.404-1.158,2.586
		c0.096,0.685,0.027,1.375-0.24,2.013c-0.449,1.082-1.029,3.168-0.707,6.318c0,0-6.594-19.284,9.809-18.565
		C40.394-0.703,33.8,18.581,33.8,18.581"/>
	<path fill="#334A5E" d="M30.188,23.029c0,0-0.561,1.861-3.504,1.608c0,0-2.186-0.101-2.693-1.017
		c-0.508,0.916-2.693,1.017-2.693,1.017c-2.947,0.253-3.504-1.608-3.504-1.608c2.184,0.611,3.605-0.558,3.605-0.558
		c1.193-1.194,2.592,0,2.592,0s1.395-1.194,2.59,0C26.581,22.471,28.005,23.64,30.188,23.029"/>
	<path fill="#4CDBC4" d="M48.042,48.004H-0.042c0.109-0.76,0.26-4,0.439-5.1c0.008-0.043,0.016-0.086,0.021-0.129
		C1.38,37.364,5.907,33.29,11.366,32.65c1.531-0.18,2.83-0.344,3.305-0.436c0.82-0.15,1.65-0.27,2.49-0.34l6.83,6.79l6.82-6.79
		c0.84,0.07,1.67,0.19,2.49,0.34c0.475,0.092,1.779,0.256,3.314,0.435c5.459,0.637,9.988,4.709,10.953,10.12
		c0.008,0.045,0.016,0.09,0.023,0.135C47.772,44.004,47.933,47.244,48.042,48.004"/>
	<path fill="#3DC9AE" d="M33.302,32.214l-9.311,9.27l-9.32-9.27c0.82-0.15,1.65-0.27,2.49-0.34l6.83,6.79l6.82-6.79
		C31.651,31.944,32.481,32.064,33.302,32.214"/>
	<path fill="#F2F2F2" d="M41.042,38.354l-0.682,9.65H7.622l-0.682-9.65c-0.08-0.59,0.391-1.12,0.99-1.12h32.121
		C40.651,37.234,41.122,37.764,41.042,38.354"/>
	<path fill="#CDD6E0" d="M25.298,44.285c-0.707,0-1.281,0.591-1.281,1.313C24.718,45.598,25.292,45.013,25.298,44.285"/>
	<path fill="#CDD6E0" d="M25.491,47.474c0,0.19,0.029,0.37,0.109,0.53h-3.869c-0.121-1.18,0.41-2.21,1.209-2.27
		c0.191-0.02,0.381,0.01,0.551,0.1c0.369,0.18,0.77,0.18,1.131,0c0.18-0.09,0.369-0.12,0.559-0.1c0.371,0.02,0.691,0.28,0.91,0.66
		C25.741,46.624,25.501,47.024,25.491,47.474"/>
</g>
</svg>
