<?xml version="1.0" encoding="utf-8"?>
<!-- Generator: Adobe Illustrator 16.0.0, SVG Export Plug-In . SVG Version: 6.00 Build 0)  -->
<!DOCTYPE svg PUBLIC "-//W3C//DTD SVG 1.1//EN" "http://www.w3.org/Graphics/SVG/1.1/DTD/svg11.dtd">
<svg version="1.1" id="Layer_1" xmlns="http://www.w3.org/2000/svg" xmlns:xlink="http://www.w3.org/1999/xlink" x="0px" y="0px"
	 width="48px" height="48px" viewBox="0 0 48 48" enable-background="new 0 0 48 48" xml:space="preserve">
<g>
	<path fill="#FF7058" d="M47.999,7.901v8.325h-48V7.901c0-1.105,0.896-2,2-2h44C47.104,5.901,47.999,6.796,47.999,7.901"/>
	<path fill="#F6F7F7" d="M47.999,16.227v22.208l-9.562,9.563H1.999c-1.104,0-2-0.896-2-2V16.227H47.999z"/>
	<path fill="#CED4DF" d="M48.001,38.436h-7.563c-1.104,0-2,0.896-2,2v7.563L48.001,38.436z"/>
	<rect x="15.134" y="22.221" fill="#89D6F7" width="7.433" height="7.433"/>
	<rect x="4.835" y="22.221" fill="#89D6F7" width="7.433" height="7.433"/>
	<rect x="25.432" y="22.221" fill="#89D6F7" width="7.433" height="7.433"/>
	<rect x="35.73" y="22.221" fill="#89D6F7" width="7.434" height="7.433"/>
	<rect x="4.835" y="34.571" fill="#FFD15C" width="7.433" height="7.432"/>
	<rect x="15.134" y="34.571" fill="#89D6F7" width="7.433" height="7.432"/>
	<rect x="25.432" y="34.571" fill="#89D6F7" width="7.433" height="7.432"/>
	<rect x="-0.001" y="16.227" fill="#E5E8EC" width="48" height="1.495"/>
	<path fill="#FFFFFF" d="M15.509,10.214c0,1.463-1.185,2.648-2.648,2.648c-1.462,0-2.647-1.186-2.647-2.648
		c0-1.461,1.186-2.647,2.647-2.647C14.324,7.566,15.509,8.753,15.509,10.214"/>
	<path fill="#FFFFFF" d="M37.79,10.214c0,1.463-1.186,2.648-2.648,2.648c-1.462,0-2.648-1.186-2.648-2.648
		c0-1.461,1.187-2.647,2.648-2.647C36.604,7.566,37.79,8.753,37.79,10.214"/>
	<path fill="#334A5E" d="M12.861,11.806L12.861,11.806c-0.986,0-1.786-0.799-1.786-1.785V1.785C11.075,0.8,11.875,0,12.861,0
		c0.985,0,1.786,0.8,1.786,1.785v8.235C14.647,11.007,13.847,11.806,12.861,11.806"/>
	<path fill="#334A5E" d="M35.142,11.806L35.142,11.806c-0.985,0-1.786-0.799-1.786-1.785V1.785C33.355,0.8,34.156,0,35.142,0
		c0.986,0,1.786,0.8,1.786,1.785v8.235C36.928,11.007,36.128,11.806,35.142,11.806"/>
</g>
</svg>
