<?xml version="1.0" encoding="utf-8"?>
<!-- Generator: Adobe Illustrator 18.0.0, SVG Export Plug-In . SVG Version: 6.00 Build 0)  -->
<!DOCTYPE svg PUBLIC "-//W3C//DTD SVG 1.1//EN" "http://www.w3.org/Graphics/SVG/1.1/DTD/svg11.dtd">
<svg version="1.1" id="Layer_1" xmlns="http://www.w3.org/2000/svg" xmlns:xlink="http://www.w3.org/1999/xlink" x="0px" y="0px"
	 viewBox="0 0 48 48" enable-background="new 0 0 48 48" xml:space="preserve">
<g>
	<g>
		<g>
			<g>
				<path fill="#E8EAE9" d="M36.1,16.2H11.9L9.3,23c0,7,33.5,7,33.5,0L36.1,16.2z"/>
				<polygon fill="#435B6C" points="32,23 30,25.1 13.1,25.1 12.4,23 0,23 1.3,27.1 3.3,27.1 7.3,34.6 32.8,34.6 48,23 				"/>
				<g>
					<g>
						<rect x="14.5" y="18.7" fill="#8BD7F8" width="2.2" height="2.2"/>
					</g>
					<g>
						<rect x="18.8" y="18.7" fill="#8BD7F8" width="2.2" height="2.2"/>
					</g>
					<g>
						<rect x="23.1" y="18.7" fill="#8BD7F8" width="2.2" height="2.2"/>
					</g>
					<g>
						<rect x="27.3" y="18.7" fill="#8BD7F8" width="2.2" height="2.2"/>
					</g>
					<g>
						<rect x="31.6" y="18.7" fill="#8BD7F8" width="2.2" height="2.2"/>
					</g>
				</g>
				<rect x="25.3" y="3.9" fill="#435B6C" width="1.4" height="7.2"/>
			</g>
			<path fill="#8BD7F8" d="M39.9,32.8c-1.7-0.7-3-2.4-4.9-2.3c-2.2,0.1-3.3,2.8-5.3,3.7c-1.8,0.8-3.9,0-5.7-1
				c-1.7-1-3.5-2.2-5.5-2.3c-3-0.1-5.5,2.5-8.5,2.5c-1.8,0-3.5-0.9-5.3-1.4C3,31.6,0.9,31.9,0,33.3v10.8h48V31.7
				C45.2,32.1,42.5,33.8,39.9,32.8z"/>
		</g>
		<rect x="20" y="11.1" fill="#CFD7E1" width="12" height="5.2"/>
		<g>
			<rect x="22" y="12.4" fill="#8BD7F8" width="2.8" height="2.4"/>
			<rect x="27.2" y="12.4" fill="#8BD7F8" width="2.8" height="2.4"/>
		</g>
	</g>
</g>
</svg>
