<?xml version="1.0" encoding="utf-8"?>
<!-- Generator: Adobe Illustrator 18.0.0, SVG Export Plug-In . SVG Version: 6.00 Build 0)  -->
<!DOCTYPE svg PUBLIC "-//W3C//DTD SVG 1.1//EN" "http://www.w3.org/Graphics/SVG/1.1/DTD/svg11.dtd">
<svg version="1.1" id="Layer_1" xmlns="http://www.w3.org/2000/svg" xmlns:xlink="http://www.w3.org/1999/xlink" x="0px" y="0px"
	 viewBox="0 0 48 48" enable-background="new 0 0 48 48" xml:space="preserve">
<g>
	<g>
		<g>
			<path fill="#E8EAE9" d="M33.8,30.2c-0.9,0-2.2-0.4-3.8-1.6C28,27.2,26,25,24.2,22.4c-1.8-2.6-3.1-5.3-3.8-7.6
				c-0.9-3.4-0.1-4.8,0.8-5.4c2.6-1.8,7.5,2.4,11,7.4l0,0c1.8,2.6,3.1,5.3,3.8,7.6c0.9,3.4,0.1,4.8-0.8,5.4
				C34.9,30.1,34.4,30.2,33.8,30.2z M22.7,11c-0.2,0-0.3,0-0.4,0.1c-0.4,0.2-0.5,1.3,0,3.2c0.6,2.1,1.8,4.5,3.5,7s3.5,4.4,5.3,5.7
				c1.8,1.3,2.7,1.3,3,1.2c0.4-0.2,0.5-1.3,0-3.2c-0.6-2.1-1.8-4.5-3.5-7l0,0C27.2,13.1,24,11,22.7,11z"/>
		</g>
		<g>
			<g>
				<g>
					<g>
						<path fill="#415A6B" d="M34.7,21.3c-7.4,0-13.3,6-13.3,13.3c0,7.4,6,13.3,13.3,13.3C42,48,48,42,48,34.7
							C48,27.3,42,21.3,34.7,21.3z M34.7,31.2c-1.2,0-2.2-1-2.2-2.2s1-2.2,2.2-2.2s2.2,1,2.2,2.2S35.9,31.2,34.7,31.2z"/>
					</g>
				</g>
				<g>
					<g>
						<path fill="#344A5E" d="M34.7,45.6c-6,0-11-4.9-11-11s4.9-11,11-11s11,4.9,11,11S40.7,45.6,34.7,45.6z M34.7,25
							c-5.4,0-9.7,4.4-9.7,9.7s4.4,9.7,9.7,9.7s9.7-4.4,9.7-9.7S40,25,34.7,25z"/>
					</g>
				</g>
			</g>
		</g>
	</g>
	<path fill="#FFD15C" d="M20.9,0H8C3.6,0,0,3.6,0,8v0c0,4.4,3.6,8,8,8h0.6c1.6,0,2.9,1.3,2.9,2.9V33c-1,0-1.8,0.9-1.8,1.9H7.3v-2.3
		H3.7v3.5h2.2v3.5H3.7v3.5h3.6V41h2.3c0,1,0.8,1.9,1.8,1.9V45c0,1.5,1.1,2.9,2.7,3c1.6,0.1,3-1.2,3-2.8V18.8c0-1.6,1.3-2.9,2.9-2.9
		h1.1c4.4,0,8-3.6,8-8v0C28.9,3.6,25.3,0,20.9,0z M20.9,12c-1.1,0-3.3-0.5-5.1-1.2c-0.9-0.4-1.9-0.4-2.8,0C11.2,11.5,9.1,12,8,12
		C5.7,12,3.9,10.2,3.9,8S5.7,3.9,8,3.9c1.1,0,3.3,0.5,5.1,1.2c0.9,0.4,1.9,0.4,2.8,0c1.8-0.7,4-1.2,5.1-1.2C23.2,3.9,25,5.7,25,8
		S23.2,12,20.9,12z"/>
	<g>
		<path fill="#E8EAE9" d="M33.8,30.2c-0.9,0-2.2-0.4-3.8-1.6C28,27.2,26,25,24.2,22.4c-1.8-2.6-3.1-5.3-3.8-7.6
			c-0.9-3.4-0.1-4.8,0.8-5.4l1.1,1.6c-0.4,0.2-0.5,1.3,0,3.2c0.6,2.1,1.8,4.5,3.5,7s3.5,4.4,5.3,5.7c1.8,1.3,2.7,1.3,3,1.2l1.1,1.6
			C34.9,30.1,34.4,30.2,33.8,30.2z"/>
	</g>
</g>
</svg>
