<?xml version="1.0" encoding="utf-8"?>
<!-- Generator: Adobe Illustrator 18.0.0, SVG Export Plug-In . SVG Version: 6.00 Build 0)  -->
<!DOCTYPE svg PUBLIC "-//W3C//DTD SVG 1.1//EN" "http://www.w3.org/Graphics/SVG/1.1/DTD/svg11.dtd">
<svg version="1.1" id="Layer_1" xmlns="http://www.w3.org/2000/svg" xmlns:xlink="http://www.w3.org/1999/xlink" x="0px" y="0px"
	 viewBox="0 0 48 48" enable-background="new 0 0 48 48" xml:space="preserve">
<g>
	<g>
		<rect x="1.5" y="18.2" fill="#F2F2F2" width="9.7" height="25.2"/>
		<polygon fill="#ACB3BA" points="6.3,11.1 0,17.4 12.7,17.4 		"/>
		<polygon fill="#ACB3BA" points="38.1,1.6 28.7,11.1 47.5,11.1 		"/>
		<polygon fill="#ACB3BA" points="14.3,19.5 11.1,22.5 17.5,22.5 		"/>
		<polygon fill="#ACB3BA" points="20.7,19.5 17.5,22.5 23.9,22.5 		"/>
		<polygon fill="#ACB3BA" points="27.1,19.5 23.9,22.5 30.3,22.5 		"/>
		<rect x="30.3" y="11.8" fill="#F2F2F2" width="15.6" height="31.5"/>
		<rect x="11.2" y="22.5" fill="#CDD6E0" width="19.1" height="20.9"/>
		<rect x="11.2" y="22.5" fill="#ACB3BA" width="19.1" height="0.8"/>
		<rect x="0" y="17.4" fill="#ACB3BA" width="12.7" height="0.8"/>
		<rect x="1.5" y="18.2" fill="#E4EAEF" width="9.7" height="1.3"/>
		<rect x="30.3" y="11.8" fill="#E4EAEF" width="15.6" height="1.3"/>
		<rect x="28.7" y="11.1" fill="#ACB3BA" width="18.8" height="0.8"/>
		<g>
			<rect x="4.2" y="22.9" fill="#54C0EB" width="4.3" height="4.3"/>
			<rect x="4.2" y="29.9" fill="#54C0EB" width="4.3" height="4.3"/>
			<rect x="4.2" y="37" fill="#54C0EB" width="4.3" height="4.3"/>
		</g>
		<rect x="12.8" y="26.6" fill="#F2F2F2" width="3.1" height="3.1"/>
		<rect x="12.8" y="32.4" fill="#F2F2F2" width="3.1" height="3.1"/>
		<rect x="12.8" y="38.2" fill="#F2F2F2" width="3.1" height="3.1"/>
		<rect x="19.1" y="26.6" fill="#F2F2F2" width="3.1" height="3.1"/>
		<rect x="19.1" y="32.4" fill="#F2F2F2" width="3.1" height="3.1"/>
		<rect x="19.1" y="38.2" fill="#F2F2F2" width="3.1" height="3.1"/>
		<rect x="25.5" y="26.6" fill="#F2F2F2" width="3.1" height="3.1"/>
		<rect x="25.5" y="32.4" fill="#F2F2F2" width="3.1" height="3.1"/>
		<rect x="25.5" y="38.2" fill="#F2F2F2" width="3.1" height="3.1"/>
		<g>
			<g>
				<g>
					<rect x="32.8" y="15.1" fill="#54C0EB" width="3.1" height="3.1"/>
					<rect x="32.8" y="20.9" fill="#54C0EB" width="3.1" height="3.1"/>
					<rect x="32.8" y="26.6" fill="#54C0EB" width="3.1" height="3.1"/>
					<rect x="32.8" y="32.4" fill="#54C0EB" width="3.1" height="3.1"/>
				</g>
				<g>
					<rect x="40.3" y="15.1" fill="#54C0EB" width="3.1" height="3.1"/>
					<rect x="40.3" y="20.9" fill="#54C0EB" width="3.1" height="3.1"/>
					<rect x="40.3" y="26.6" fill="#54C0EB" width="3.1" height="3.1"/>
					<rect x="40.3" y="32.4" fill="#54C0EB" width="3.1" height="3.1"/>
				</g>
			</g>
			<rect x="32.8" y="38.2" fill="#54C0EB" width="3.1" height="3.1"/>
			<rect x="40.3" y="38.2" fill="#54C0EB" width="3.1" height="3.1"/>
		</g>
		<rect x="11.2" y="23.2" fill="#C0CFDD" width="19.1" height="1.3"/>
	</g>
	<rect y="43.3" fill="#FF7058" width="48" height="3"/>
</g>
</svg>
