<?xml version="1.0" encoding="utf-8"?>
<!-- Generator: Adobe Illustrator 18.0.0, SVG Export Plug-In . SVG Version: 6.00 Build 0)  -->
<!DOCTYPE svg PUBLIC "-//W3C//DTD SVG 1.1//EN" "http://www.w3.org/Graphics/SVG/1.1/DTD/svg11.dtd">
<svg version="1.1" id="Layer_1" xmlns="http://www.w3.org/2000/svg" xmlns:xlink="http://www.w3.org/1999/xlink" x="0px" y="0px"
	 viewBox="0 0 512 512" enable-background="new 0 0 512 512" xml:space="preserve">
<g>
	<ellipse fill="#40596B" cx="255.2" cy="256" rx="253.2" ry="254"/>
	<path fill="#F2F2F2" d="M255.2,453.5c-108.6,0-196.9-88.6-196.9-197.5S146.6,58.5,255.2,58.5S452.1,147.1,452.1,256
		S363.8,453.5,255.2,453.5z"/>
	<path fill="#E5E8EA" d="M255.2,58.5C146.6,58.5,58.3,147.1,58.3,256c0,3.8,0.1,7.5,0.3,11.3C64.5,163.6,150.4,81,255.2,81
		c104.8,0,190.7,82.6,196.6,186.3c0.2-3.7,0.3-7.5,0.3-11.3C452.1,147.1,363.8,58.5,255.2,58.5z"/>
	<path fill="#FFD15C" d="M180.8,325L180.8,325c5.2,6.2,14.5,7,20.7,1.7l62.3-53c6.2-5.3,6.9-14.6,1.7-20.8l0,0
		c-5.2-6.2-14.5-7-20.7-1.7l-62.3,53C176.4,309.5,175.6,318.8,180.8,325z"/>
	<path fill="#FFD15C" d="M268.5,264.4h-26.6c-0.8,0-1.4-0.6-1.4-1.4V114.5c0-0.8,0.6-1.4,1.4-1.4h26.6c0.8,0,1.4,0.6,1.4,1.4
		l0,148.5C269.9,263.7,269.2,264.4,268.5,264.4z"/>
	<ellipse fill="#FF7058" cx="255.2" cy="253" rx="37.7" ry="37.9"/>
	<ellipse fill="#F2F2F2" cx="255.2" cy="253" rx="18.8" ry="18.9"/>
	<path fill="#4CDBC4" d="M476.2,330.2H335.5c-15.5,0-29,10.6-32.8,25.7L275,468c-5.3,21.4,10.8,42,32.8,42h140.7
		c15.5,0,29-10.6,32.8-25.7l27.8-112C514.3,350.9,498.2,330.2,476.2,330.2z"/>
	<path fill="#CDD6E0" d="M268.5,81.5c-4.4-0.3-8.8-0.5-13.3-0.5c-4.5,0-8.9,0.2-13.3,0.5c1.6-5.9,7-10.2,13.3-10.2
		C261.6,71.3,266.9,75.6,268.5,81.5z"/>
	<path fill="#FFFFFF" d="M350.9,438.2v10h-37.7c0.4-3.8,1.6-7.4,3.7-10.8c2-3.4,6.1-7.9,12.1-13.5c4.9-4.5,7.8-7.6,8.9-9.2
		c1.5-2.2,2.2-4.4,2.2-6.6c0-2.4-0.6-4.3-1.9-5.6s-3.1-1.9-5.3-1.9c-2.2,0-4,0.7-5.4,2c-1.3,1.4-2.1,3.6-2.3,6.8l-10.7-1.1
		c0.6-5.9,2.6-10.2,6-12.8s7.6-3.9,12.6-3.9c5.5,0,9.9,1.5,13.1,4.5s4.7,6.7,4.7,11.2c0,2.5-0.5,5-1.4,7.2c-0.9,2.3-2.3,4.7-4.3,7.2
		c-1.3,1.7-3.7,4.1-7,7.2c-3.4,3.1-5.5,5.2-6.5,6.2c-0.9,1-1.6,2-2.2,3H350.9z"/>
	<path fill="#FFFFFF" d="M379.2,448.3v-11.3h-23v-9.5l24.4-35.8h9v35.7h7v9.5h-7v11.3H379.2z M379.2,427.4v-19.2l-12.9,19.2H379.2z"
		/>
	<path fill="#FFFFFF" d="M398.3,449.2l13.9-58.2h8.1l-14.1,58.2H398.3z"/>
	<path fill="#FFFFFF" d="M426,448.3v-56.3h11.3v22.2h22.2v-22.2h11.3v56.3h-11.3v-24.6h-22.2v24.6H426z"/>
	<g>
		<ellipse fill="#40596B" cx="255.2" cy="426.8" rx="13.8" ry="13.8"/>
		<ellipse fill="#40596B" cx="425.5" cy="256" rx="13.8" ry="13.8"/>
		<ellipse fill="#40596B" cx="84.9" cy="256" rx="13.8" ry="13.8"/>
		<path fill="#40596B" d="M255.2,71.3c-6.4,0-11.8,4.3-13.3,10.2c-0.3,1.2-0.5,2.4-0.5,3.7c0,7.6,6.2,13.8,13.8,13.8
			c7.6,0,13.8-6.2,13.8-13.8c0-1.3-0.2-2.5-0.5-3.7C266.9,75.6,261.6,71.3,255.2,71.3z"/>
	</g>
</g>
</svg>
