<?xml version="1.0" encoding="utf-8"?>
<!-- Generator: Adobe Illustrator 18.0.0, SVG Export Plug-In . SVG Version: 6.00 Build 0)  -->
<!DOCTYPE svg PUBLIC "-//W3C//DTD SVG 1.1//EN" "http://www.w3.org/Graphics/SVG/1.1/DTD/svg11.dtd">
<svg version="1.1" id="Layer_1" xmlns="http://www.w3.org/2000/svg" xmlns:xlink="http://www.w3.org/1999/xlink" x="0px" y="0px"
	 viewBox="0 0 48 48" enable-background="new 0 0 48 48" xml:space="preserve">
<g>
	<g>
		<g>
			<polygon fill="#FFD15D" points="20.1,0 21.2,4.5 26.8,4.5 27.9,0 			"/>
			<g>
				<path fill="#F3F3F3" d="M31.8,17.7c-2.8-2.5-4.2-6.1-4.2-9.8v-2h-7.1v2c0,3.7-1.4,7.4-4.2,9.8c-2.4,2.1-3.9,5.2-3.9,8.7V45
					c0,1.7,1.4,3,3,3h17.3c1.7,0,3-1.4,3-3V26.3C35.7,22.9,34.2,19.8,31.8,17.7z"/>
				<g>
					<rect x="20.4" y="5.8" fill="#E8EAE9" width="7.1" height="1.3"/>
				</g>
				<path fill="#F3F3F3" d="M27.7,3.5h-7.4c-0.7,0-1.3,0.6-1.3,1.3s0.6,1.3,1.3,1.3h7.4c0.7,0,1.3-0.6,1.3-1.3S28.4,3.5,27.7,3.5z"
					/>
			</g>
		</g>
		<g>
			<path fill="#435B6C" d="M30.6,34.8c0.7-0.9-0.2-2.6-0.2-2.6c1.8-2.7,2.3-4.9,0.9-7.7c0,0,0-0.1-0.1-0.1c-1.1-2.4-4.1-4.3-7.2-4.2
				c-3.1-0.1-6,1.8-7.2,4.2c0,0,0,0.1-0.1,0.1c-1.4,2.8-0.9,5,0.9,7.7c0,0-0.9,1.7-0.2,2.6c-1.8,2.9-2.8,4.9-3.3,8.7
				c3,5.2,12.6-2.1,19.4,0C33.1,39.1,32.8,37.2,30.6,34.8z"/>
			<g>
				<path fill="#FFFFFF" d="M28.6,23.3c-2.4-2.2-6.7-2.2-9.1,0c-1.3,1.1-2.2,2.6-2,4.3c0.6,4.1,3.1,5.8,3,5.9c0.1,0,1.9,2.5,2.1,3.8
					c0.1,0.4,0.3,0.7,0.5,0.9c0.5,0.5,1.3,0.5,1.9,0c0.2-0.2,0.4-0.5,0.5-0.9c0.2-1.3,2.1-3.8,2.1-3.8c-0.1-0.1,2.4-1.8,3-5.9
					C30.8,25.9,29.9,24.3,28.6,23.3z"/>
				<path fill="#435B6C" d="M23.8,30.3c0,0-0.2,0-0.7,0.6c-0.1,0.1-0.2,0.3-0.1,0.3c0,0.2,0.2,0.4,0.5,0.4c0.1,0,0.4,0.1,0.6-0.1
					c0.2,0.2,0.5,0.1,0.6,0.1c0.2,0,0.4-0.2,0.4-0.4C25.1,31,24.5,30.2,23.8,30.3z"/>
				<path fill="#435B6C" d="M25.4,32.8c-0.2,0.7-0.5,1.2-0.5,1.2c0.1-0.3-0.1-0.7-0.1-0.7c-0.2,0.2-0.5,0-0.5,0
					c0,0.1-0.2,0.1-0.3,0.1c-0.1,0-0.3,0-0.3-0.1c0,0-0.3,0.2-0.5,0c0,0-0.2,0.4-0.1,0.7c0,0-0.4-0.5-0.5-1.2
					c-0.1-0.7-0.7-0.7-0.7,0c0.1,0.6,0.7,1.3,0.8,1.7c0.1,0.6,0.2,1.5,0.6,2.1c0,0.1,0.1,0.1,0.2-0.2c0.1-0.3,0.1,0.2,0.1,0.2
					c0,0,0,0.3,0.3,0.3c0.3,0,0.3-0.3,0.3-0.3c0,0,0-0.5,0.1-0.2c0.1,0.3,0.2,0.3,0.2,0.2c0.4-0.6,0.4-1.5,0.5-2.1
					c0.1-0.4,0.7-1.1,0.8-1.7C26.2,32.1,25.5,32,25.4,32.8z"/>
				<g>
					<path fill="#435B6C" d="M23.1,28.7c-0.3-0.3-1.7-1.3-2.3-2.8c0,0,0,0,0-0.1c-0.3-0.9-1.4-0.8-1.6,0.1c-0.3,1.1-0.4,2.4,0.3,3
						c0.1,0,1.4,1.3,3.8,0.2C23.2,29.1,23.5,29,23.1,28.7z"/>
					<path fill="#435B6C" d="M28.8,25.9c-0.2-0.9-1.3-1-1.6-0.1c0,0,0,0,0,0c-0.5,1.6-1.9,2.6-2.3,2.8c-0.4,0.2-0.1,0.4-0.1,0.4
						c2.5,1.1,3.8-0.2,3.8-0.2C29.2,28.3,29.1,27,28.8,25.9z"/>
				</g>
			</g>
		</g>
	</g>
</g>
</svg>
