<?xml version="1.0" encoding="utf-8"?>
<!-- Generator: Adobe Illustrator 20.1.0, SVG Export Plug-In . SVG Version: 6.00 Build 0)  -->
<!DOCTYPE svg PUBLIC "-//W3C//DTD SVG 1.1//EN" "http://www.w3.org/Graphics/SVG/1.1/DTD/svg11.dtd">
<svg version="1.1" id="Layer_1" xmlns="http://www.w3.org/2000/svg" xmlns:xlink="http://www.w3.org/1999/xlink" x="0px" y="0px"
	 viewBox="0 0 49 49" style="enable-background:new 0 0 49 49;" xml:space="preserve">
<style type="text/css">
	.st0{fill:#FFD15C;}
	.st1{fill:#FF7058;}
	.st2{fill:#F1543F;}
	.st3{fill:#334A5E;}
	.st4{fill:#40596B;}
	.st5{fill:#F2F2F2;}
</style>
<g>
	<polygon class="st0" points="28.1,36.1 19.5,44.7 8,47 0.5,48.5 2,41 4.3,29.5 12.9,20.9 	"/>
	<polygon class="st1" points="20.9,35.7 11.9,37.1 13.3,28.1 32.4,9 40,16.6 	"/>
	<polygon class="st2" points="43.8,20.4 19.5,44.7 20.9,35.7 40,16.6 	"/>
	<polygon class="st2" points="32.4,9 13.3,28.1 4.3,29.5 28.6,5.2 	"/>
	<polygon class="st3" points="8,47 0.5,48.5 2,41 	"/>
	<path class="st4" d="M47.9,13.5L35.5,1.1c-0.8-0.8-2-0.8-2.8,0l-4.1,4.1l15.2,15.2l4.1-4.1C48.7,15.5,48.7,14.3,47.9,13.5z"/>
	<rect x="35.9" y="1.3" transform="matrix(0.7071 -0.7071 0.7071 0.7071 2.2828 29.6759)" class="st5" width="2.1" height="21.5"/>
</g>
</svg>
