<?xml version="1.0" encoding="utf-8"?>
<!-- Generator: Adobe Illustrator 18.0.0, SVG Export Plug-In . SVG Version: 6.00 Build 0)  -->
<!DOCTYPE svg PUBLIC "-//W3C//DTD SVG 1.1//EN" "http://www.w3.org/Graphics/SVG/1.1/DTD/svg11.dtd">
<svg version="1.1" id="Layer_1" xmlns="http://www.w3.org/2000/svg" xmlns:xlink="http://www.w3.org/1999/xlink" x="0px" y="0px"
	 viewBox="0 0 48 48" enable-background="new 0 0 48 48" xml:space="preserve">
<g>
	<circle fill="#40596B" cx="25.3" cy="43.7" r="2.7"/>
	<circle fill="#40596B" cx="41.6" cy="43.7" r="2.7"/>
	<path fill="#84DBFF" d="M46.8,41.8V29.5c0-4.6-2.4-8.9-6.4-11.4c-4.3-2.6-9.6-2.6-13.9,0c-4,2.4-6.4,6.7-6.4,11.4v12.3H46.8z"/>
	<path fill="#54C0EB" d="M46.8,44.2H20.1c-0.6,0-1.1-0.5-1.1-1.1v0c0-0.6,0.5-1.1,1.1-1.1h26.7c0.6,0,1.1,0.5,1.1,1.1v0
		C47.9,43.6,47.4,44.2,46.8,44.2z"/>
	<path fill="#CDD6E0" d="M20.5,1.6c-8,0-14.4,6.5-14.4,14.4v21.9h3V16.1c0-6.3,5.1-11.4,11.4-11.4C26.8,4.6,32,9.8,32,16.1v2
		c0,0.8,0.7,1.5,1.5,1.5c0.8,0,1.5-0.7,1.5-1.5v-2C35,8.1,28.5,1.6,20.5,1.6z"/>
	<path fill="#40596B" d="M33.8,23.6H33c-1.1,0-2-0.9-2-2v-2c0-1.1,0.9-2,2-2h0.8c1.1,0,2,0.9,2,2v2C35.8,22.7,34.9,23.6,33.8,23.6z"
		/>
	<rect x="4.7" y="37.9" fill="#ACB3BA" width="5.7" height="1.5"/>
	<path fill="#F2F2F2" d="M15.1,45.2H0.1v-2.8c1.2-1.2,1.8-1.8,3-3h9.1c1.2,1.2,1.8,1.8,3,3V45.2z"/>
	<rect x="0.1" y="43.7" fill="#CDD6E0" width="15.1" height="1.5"/>
</g>
</svg>
