<?xml version="1.0" encoding="utf-8"?>
<!-- Generator: Adobe Illustrator 18.0.0, SVG Export Plug-In . SVG Version: 6.00 Build 0)  -->
<!DOCTYPE svg PUBLIC "-//W3C//DTD SVG 1.1//EN" "http://www.w3.org/Graphics/SVG/1.1/DTD/svg11.dtd">
<svg version="1.1" id="Layer_1" xmlns="http://www.w3.org/2000/svg" xmlns:xlink="http://www.w3.org/1999/xlink" x="0px" y="0px"
	 viewBox="0 0 48 48" enable-background="new 0 0 48 48" xml:space="preserve">
<g>
	<g>
		<g>
			<g>
				<path fill="#344A5E" d="M43.6,48l-2.7-13.1c-0.2-1-0.8-1.8-1.6-2.3l0,0C33.9,38.9,35.6,46.5,36,48H43.6z"/>
			</g>
			<g>
				<path fill="#344A5E" d="M12,48c0.4-1.5,2.1-9.1-3.3-15.4l0,0c-0.8,0.5-1.4,1.3-1.6,2.3L4.4,48H12z"/>
				<g>
					<path fill="#415A6B" d="M36.1,48c1.2-7.1,3.2-15.4,3.2-15.4L31,29.1l-7,3l-7-3l-8.3,3.5c0,0,2,8.3,3.2,15.4H36.1z"/>
				</g>
				<g>
					<path fill="#E8EAE9" d="M21.7,48h4.7l2.5-15.2c0,0,0.1-1.4,0.2-2.8l-5,2.2L19,30c0.1,1.4,0.2,2.8,0.2,2.8L21.7,48z"/>
				</g>
				<g>
					<path fill="#F3705A" d="M20.7,48h6.5l-1.7-11.7l1.3-1.3c0,0-1.8-2.8-2.8-2.8c-1,0-2.8,2.8-2.8,2.8l1.3,1.3L20.7,48z"/>
				</g>
				<g>
					<g>
						<path fill="#F3F3F3" d="M19.4,26c0.9,2.6,2.6,4.6,4.6,6.2c-1.5,1.1-2.6,2.2-3.4,3.4l-2.6-7.8C18.6,27,19.2,26,19.4,26z"/>
					</g>
					<g>
						<path fill="#344A5E" d="M20.1,48h1.5l-2.5-15.2c0,0-0.3-4.2-0.3-5.3c0-1.1,0.5-1.5,0.5-1.5c-0.6-0.1-4.1,6.1-4.1,6.1l2.1,0.7
							L15,33.9L20.1,48z"/>
					</g>
				</g>
			</g>
			<g>
				<path fill="#F3F3F3" d="M28.6,26c-0.9,2.6-2.6,4.6-4.6,6.2c1.5,1.1,2.6,2.2,3.4,3.4l2.6-7.8C29.4,27,28.8,26,28.6,26z"/>
			</g>
			<g>
				<g>
					<path fill="#344A5E" d="M29.1,27.5c0,1.1-0.3,5.3-0.3,5.3L26.3,48h1.5L33,33.9l-2.4-1.2l2.1-0.7c0,0-3.5-6.3-4.1-6.1
						C28.6,26,29.1,26.4,29.1,27.5z"/>
				</g>
			</g>
		</g>
		<g>
			<path fill="#F7B64C" d="M19.4,25.2V26c0.9,2.6,2.6,4.6,4.6,6.2c2-1.6,3.7-3.6,4.6-6.2v-0.8H19.4z"/>
		</g>
		<g>
			<g>
				<circle fill="#FFD15C" cx="24" cy="13.3" r="13.3"/>
			</g>
			<g>
				<circle fill="#F7B64C" cx="24" cy="13.3" r="9.8"/>
			</g>
			<g>
				<path fill="#FFD15C" d="M23.3,19.8v-1.1c-1.3-0.2-2.6-0.8-3.7-1.8l1.5-1.8c0.8,0.7,1.6,1.2,2.2,1.4v-2.3
					c-1.1-0.3-1.9-0.7-2.4-1.1c-0.5-0.5-0.8-1.2-0.8-2.1c0-0.9,0.3-1.6,0.9-2.2c0.6-0.6,1.4-0.9,2.3-1V6.9H25v0.8
					c1,0.1,2.1,0.6,3.1,1.3l-1.3,1.9c-0.7-0.5-1.3-0.8-1.8-0.9v2.3c1.1,0.3,2,0.7,2.5,1.2c0.5,0.5,0.8,1.2,0.8,2.1
					c0,0.9-0.3,1.6-0.9,2.2c-0.6,0.6-1.4,0.9-2.4,1.1v1.1H23.3z M23.3,9.8c-0.5,0.2-0.7,0.4-0.7,0.9s0.2,0.7,0.7,1V9.8z M25.8,15.6
					c0-0.2-0.1-0.4-0.2-0.5c-0.1-0.1-0.3-0.3-0.6-0.4v1.9C25.5,16.4,25.8,16,25.8,15.6z"/>
			</g>
		</g>
	</g>
</g>
</svg>
