<?xml version="1.0" encoding="utf-8"?>
<!-- Generator: Adobe Illustrator 18.0.0, SVG Export Plug-In . SVG Version: 6.00 Build 0)  -->
<!DOCTYPE svg PUBLIC "-//W3C//DTD SVG 1.1//EN" "http://www.w3.org/Graphics/SVG/1.1/DTD/svg11.dtd">
<svg version="1.1" id="Layer_1" xmlns="http://www.w3.org/2000/svg" xmlns:xlink="http://www.w3.org/1999/xlink" x="0px" y="0px"
	 viewBox="0 0 48 48" enable-background="new 0 0 48 48" xml:space="preserve">
<g>
	<g>
		<polygon fill="#425A6B" points="43.9,41.4 43.3,40 33.4,39 33.4,41.4 		"/>
	</g>
	<g>
		<g>
			<path fill="#2B4151" d="M1.3,19.6c0,0-0.3,0.4-0.6,2.2c-0.3,1.8,0,3.9,0,4.7c0,0.8-0.8,6.2,1,9.1c1.8,2.9,1.8,2.9,1.8,2.9
				s1.3-11.2,1.3-12C4.8,25.8,1.3,19.6,1.3,19.6z"/>
		</g>
		<g>
			<g>
				<path fill="#FFD15C" d="M13.5,8.2c0,0,1.2,1.5,1.3,2.9c0,0,0,0.3-0.1,0.4c-0.1,0.1-0.1,0.3,0,0.4c0.1,0.1,0.7,1.2,0.7,1.2
					s0.2,0.2,0,0.4c-0.2,0.2-0.6,0.3-0.6,0.3c-0.1,0.1,0.1,0.7-0.2,0.6c0,0,0.1,0.1,0,0.3c-0.1,0.2-0.5,0.7-0.4,1
					c0.1,0.3-0.1,0.7-0.5,0.8c-0.4,0-1.4-0.1-1.4-0.1s-0.4,1.1-0.6,1.4c-0.2,0.3-0.2,0.3-0.2,0.3l-4.1-3l0.3-1.2l1.7-4.6L13.5,8.2z"
					/>
			</g>
			<g>
				<path fill="#425A6B" d="M7.4,15c0,0,1.7-0.1,1.8-0.7c0.1-0.7-0.2-1.8,0.2-2.3c0.3-0.6,0.8-0.7,1.3-0.5c0.4,0.2,1,1.2,1,1.5h0.2
					c0,0,0.3-1.4,0.7-2c0.4-0.5,0.1-0.9,0-1.2c-0.1-0.3,0.5-1.2,1.2-1.3c0.7-0.1,0.1-1.1-0.6-1.4c-0.7-0.3-1.7-0.6-3.3-0.6
					c-1.5,0-2.5,0.7-3.1,1.5C6.1,9,5.5,10.9,5.5,11.2c0,0.3,0.6,1.8,1.4,2.5C7.4,14.3,7.4,15,7.4,15z"/>
			</g>
			<g>
				
					<ellipse transform="matrix(0.9669 -0.2551 0.2551 0.9669 -2.9186 3.0796)" fill="#FFD15C" cx="10.4" cy="12.8" rx="0.7" ry="1.3"/>
			</g>
		</g>
		<g>
			<path fill="#F3F3F3" d="M7.1,15.3c0-0.1,0.1-0.4,0.4-0.4S8.7,15,10,15.7c1.2,0.7,2.7,2.5,2.9,3.2L10.6,18L7.1,15.3z"/>
		</g>
		<g>
			<path fill="#425A6B" d="M1.9,31.6C1.8,33.4,0,40,0,41.4h14.8c0.1-0.8,0.7-7.9,0.6-9.2c0-1.4-0.5-8.6-1-10.5
				c-0.4-1.9-1.2-2.9-2.6-3.7c-1.4-0.8-1.4-0.8-1.4-0.8l-3.3-1.3l-1.3,0.4c0,0-0.2,0.4-0.9,0.6c-0.6,0.2-2.5,1.2-2.8,1.4
				S1.2,19.4,1,20.4c-0.1,1,0,3.9,0.3,4.9S1.9,29.8,1.9,31.6z"/>
		</g>
		<g>
			<g>
				<path fill="#F26F5A" d="M35.4,21.7l-0.5-1.3c0,0-0.2-1,0.2-2.1c0.4-1.1,0.6-2,0.6-2l0.9,1.2l0.9,1.7l-0.2,1.7l-0.5,0.3"/>
			</g>
			<g>
				<path fill="#F26F5A" d="M41.5,13.7c0.1,0.7,0.3,1.4,0.4,2.1c0.2,1.1,0.4,2.2,0.8,3.3c0.2,0.5,0.4,1.1,0.7,1.5
					c0.3,0.5,0.8,0.8,1.3,1c-0.2,0.1-0.5,0-0.7-0.1c-0.2-0.1-0.4-0.2-0.6-0.3c-0.4-0.1-0.8,0-1.1-0.1c-0.3-0.1-0.6-0.4-0.7-0.7
					c-0.2-0.3-0.2-0.6-0.3-1c-0.2-1.3-0.4-2.7-0.5-4"/>
			</g>
			<g>
				<path fill="#FFD15C" d="M36,21.7l1.2-1.2c0,0-0.2-1.2-0.4-1.3c-0.2-0.1-0.6-0.4-1.2-0.3c-0.6,0.1-0.8-0.5-0.6-0.8
					c0.1-0.4,0-0.4,0-0.4s-0.1-0.2,0.2-0.2c0,0-0.2,0-0.3-0.2c0-0.2-0.2-0.5-0.2-0.5s-0.7-0.2-0.5-0.6c0.2-0.4,0.4-0.8,0.4-0.9
					c0.1-0.2,0-0.2,0-0.2s-0.4-0.4-0.2-1.1c0.3-0.7,1.5-1.6,1.5-1.6l2,0.4l1.2,0.9l0.2,4.6l0.6,0.9l0.3,1.6l-1.8,3.2l-1.7,1.3
					l-1.8-0.4L36,21.7z"/>
			</g>
			<g>
				<path fill="#E8EAE8" d="M35.8,23.6c0.3,1.2,1.5,1,2.8,0.4l-3.6,9.8L33.2,32L35.8,23.6z"/>
			</g>
			<g>
				<path fill="#425A6B" d="M47.6,34.8C47.3,35.2,45,37,43,38.6c-1.5,1.2-2.8,2.2-2.8,2.2s-1.2-1.5-1.8-2.6
					c-0.6-1.1-0.7-1.5-0.7-1.5s1.9-0.7,2.4-0.9c0.5-0.2,1.1-0.6,1.5-0.8c0.1-0.1,0.5-0.3,0.9-0.5c0.6-0.3,1.4-0.8,1.5-0.9
					c0.2-0.3,0.7-0.8,0.7-0.8s-0.5-0.3-0.7-1c-0.3-0.6-0.9-2.8-0.9-2.8c-0.1-1.2-0.5-2.6-0.5-3.2c-0.1-1,0.3-3.2,1-3.7
					c0.7-0.5,1.6-0.1,1.6-0.1c0.5,0.5,0.5,2.1,0.2,2.6c0,0,0.3,1.3,0.7,2c0.4,0.6,1.9,6.7,1.9,6.7S48.3,34.2,47.6,34.8z"/>
			</g>
			<g>
				<path fill="#344A5E" d="M41,20.3l0.7-0.1c0,0,2.2,1,2.7,1.2c0.5,0.2,0.8,0.4,0.8,0.4s-0.9-0.4-1.6,0.1c-0.7,0.5-1.1,2.7-1,3.7
					c0.1,1,0.9,3.8,0.5,4.9c-0.4,1.1-1.5,4.5,0.8,10.3c0,0-1.5,0-3.7,0.1c-2.2,0.1-2.3,0.5-3.7,0.1c-1.4-0.3-2.1-0.3-2.3-2
					C34,37.5,34,37.5,34,37.5s0.1-4,1.3-6.6c1.3-2.5,2.2-4.5,2.2-4.5L41,20.3z"/>
			</g>
			<g>
				<path fill="#344A5E" d="M34.5,35.8c0,0,0,0,0,0.1c0,0.6-0.1,3.1-0.5,3.7c-0.4,0.7-0.8,1.2-1.4,0.8c0,0,0.4-2.9,0.7-3.6
					s0.4-1.7,0.4-1.9c0-0.1,0.4-3.2,0.4-3.2l0.5,0.4V35.8z"/>
			</g>
			<g>
				<path fill="#2B4151" d="M25.3,36.5l-0.7,0c0,0-0.4-1.2-0.4-1.2s0.9-0.6,0.9-0.6h0.7C25.9,34.7,25.7,36.3,25.3,36.5z"/>
			</g>
			<g>
				<path fill="#F5B54C" d="M22,35.9c0,0-0.1,0.2-0.2,0.3c-0.1,0.1-0.2,0.4,0.4,0.4c0,0-0.3,0.4,0.5,0.4c0.8,0,0.8,0,0.8,0
					S22.4,35.8,22,35.9z"/>
			</g>
			<g>
				<path fill="#FFD15C" d="M25.2,34.7l0,0.5c0,0,0.1,0.3,0.1,0.4c0,0.1-0.6,0.6-0.6,0.6s0,0.3-0.2,0.4s-0.5,0-0.5,0
					S23.8,37,23.3,37c0,0-0.2,0.2-0.3,0.3c-0.1,0.1-0.4,0.2-0.7,0c0,0-0.1-0.3,0.1-0.4l0.2,0c0,0-0.1-0.2-0.1-0.3
					c0,0-0.6-0.6-0.8-0.9c-0.1-0.3-0.1-0.3-0.1-0.3l0.2-3c0,0,0.8,0.1,1,0.2c0.2,0.1,0.2,0.2,0.2,0.2c0,0,1.2,0.9,1.2,0.9L25.2,34.7
					z"/>
			</g>
			<g>
				<path fill="#F5B54C" d="M25.2,35.1L25.2,35.1c-0.1-0.2-0.3-0.5-0.4-0.6c-0.1-0.1-0.2-0.2-0.2-0.2c0,0-0.1-0.3-0.3-0.5
					c-0.1-0.2-0.4-0.4-0.4-0.4l0,0l0,0c-0.2,0.2-0.4,0.2-0.5,0.1c-0.1-0.1-0.2-0.2-0.2-0.3c0-0.1,0.2-0.3,0.2-0.3c0,0,0,0-0.1,0
					c0,0-0.2,0.2-0.2,0.4c0,0.1,0.1,0.3,0.3,0.3c0.1,0.1,0.3,0.1,0.5-0.1c0.1,0.1,0.3,0.2,0.4,0.4c0.2,0.2,0.2,0.4,0.2,0.4
					c0,0.1,0.1,0.1,0.2,0.3C24.9,34.7,25.1,35.2,25.2,35.1l0,0.1L25.2,35.1C25.2,35.2,25.2,35.2,25.2,35.1
					C25.2,35.2,25.2,35.1,25.2,35.1z"/>
			</g>
			<g>
				<g>
					<path fill="#FFD15C" d="M23.3,32.9c0,0-0.2,0.2-0.2,0.4c0,0.2,0.4,0.6,0.8,0.2c0,0,0.3,0.2,0.4,0.4c0.1,0.2,0.2,0.4,0.2,0.4
						s0.1,0.1,0.2,0.3c0.1,0.1,0.4,0.6,0.4,0.6s0.3-0.1,0.6-0.4c0.3-0.3,0.3-0.3,0.3-0.3l-0.6-1.3L24.7,33c0,0-0.3-0.1-0.4-0.2
						c-0.1-0.1-0.3-0.1-0.3-0.1S23.6,32.6,23.3,32.9z"/>
				</g>
				<g>
					<path fill="#F5B54C" d="M23.9,33.5C23.9,33.5,23.9,33.5,23.9,33.5C23.9,33.4,23.9,33.4,23.9,33.5c0-0.1,0.1-0.1,0.1-0.2
						c0,0,0,0,0-0.1c0,0,0,0,0-0.1c0,0,0,0,0,0c0,0,0,0,0,0s0,0,0,0c0,0,0,0,0,0c0,0,0,0,0,0.1c0,0,0,0.1,0,0.1
						C24,33.3,24,33.4,23.9,33.5C24,33.5,24,33.5,23.9,33.5C24,33.5,24,33.5,23.9,33.5C24,33.5,24,33.5,23.9,33.5L23.9,33.5z"/>
				</g>
				<g>
					<path fill="#FFFFFF" d="M23.2,33.4c0,0,0.3,0,0.4,0.1c0,0,0.2-0.2,0.2-0.3c0,0,0-0.1-0.2-0.2c-0.2,0-0.3,0.1-0.3,0.1
						C23.3,33.1,23.2,33.4,23.2,33.4z"/>
				</g>
			</g>
			<g>
				<g>
					<path fill="#F5B54C" d="M24.7,36.2c0,0,0-0.1,0-0.1c0,0,0-0.1,0-0.1c0-0.1,0-0.1,0-0.2c0,0,0-0.1,0-0.1c0,0,0-0.1,0-0.1
						c0-0.1,0-0.1,0-0.1c0-0.1,0-0.1,0-0.1s0,0.1,0.1,0.1c0,0,0,0.1,0.1,0.1c0,0.1,0,0.1,0.1,0.2c0,0,0,0.1,0,0.1c0,0,0,0.1,0,0.1
						c0,0.1,0,0.1,0,0.2C24.7,36.2,24.7,36.2,24.7,36.2z"/>
				</g>
				<g>
					<path fill="#F5B54C" d="M24,36.6c0,0,0-0.1,0-0.2c0,0,0-0.1,0-0.2c0-0.1,0-0.1,0-0.2c0,0,0-0.1,0-0.1c0,0,0-0.1,0-0.1
						c0,0,0-0.1,0-0.1c0,0,0-0.1,0-0.1c0,0,0-0.1,0-0.1c0,0,0,0,0,0s0,0,0,0c0,0,0,0.1,0,0.1c0,0,0,0,0,0.1c0,0,0,0.1,0,0.1
						c0,0,0,0.1,0,0.1c0,0,0,0.1,0,0.1c0,0.1,0,0.1,0,0.2c0,0.1,0,0.1,0,0.2C24,36.6,24,36.6,24,36.6z"/>
				</g>
				<g>
					<path fill="#F5B54C" d="M23.3,37c0,0,0-0.1,0-0.1c0-0.1,0-0.2,0-0.3c0-0.1,0-0.1,0-0.2c0,0,0-0.1,0-0.1c0-0.1,0-0.1,0-0.1
						s0,0,0.1,0.1c0,0,0,0.1,0.1,0.1c0,0,0,0,0,0.1c0,0,0,0.1,0,0.1c0,0,0,0,0,0c0,0,0,0,0,0c0,0,0,0.1,0,0.1c0,0.1,0,0.1,0,0.1
						C23.4,36.9,23.3,37,23.3,37z"/>
				</g>
			</g>
			<g>
				<path fill="#344A5E" d="M34.9,21.7L34,28.2v3.5c0,0-2.6,2-3,2.3c-0.3,0.3-1.1,0.6-1.4,0.8c-0.3,0.2-2.1,1.3-3.3,1.6
					c-0.8,0.2-1.5,0.2-1.8,0.1c0,0,0,0,0,0c0.6,0,0.8-0.8,0.8-1c0-0.2-0.1-1-0.2-1.6c-0.1-0.6-0.5-0.9-0.5-0.9
					c0.6,0,2.8-0.9,2.8-0.9s1.3-0.5,1.8-0.8c0.5-0.3,1.2-1.2,1.4-1.6c0.2-0.5,0.5-0.9,0.8-1.3c0.3-0.5,0.4-1.2,0.6-1.6
					c0.1-0.4,0.2-0.5,0.4-0.9s0.5-1.5,0.6-2c0.1-0.5,0.6-1.6,1-2C34.6,21.6,34.9,21.7,34.9,21.7z"/>
			</g>
			<g>
				<path fill="#425A6B" d="M34.7,21.6c0,0-0.7,1.9-1.1,3.3c-0.4,1.4-0.2,3.6,0,4.7c0.2,1.1,0.8,5.3,0.9,6.2c0,0,0.8-5.6,0.4-7
					c-0.3-1.4,0.8-4.8,1.2-6c0.4-1.2,1-2.4,1-2.4S36.6,21,36,21.2C35.4,21.4,34.7,21.6,34.7,21.6z"/>
			</g>
			<g>
				<path fill="#425A6B" d="M40.1,19.1c0,0.4-0.1,0.8-0.2,1.1c-0.2,0.5-0.5,1.3-0.8,1.8c-0.6,0.8-1.3,2.1-1.9,3.2
					c-0.6,1.1-1.7,3.3-2.2,5.2c-0.5,1.9-0.2,3.6-0.2,3.6s2.1-5.6,3.2-7.1c1.1-1.5,3.4-4.3,3.4-4.3l-1.2-0.5l1.3-0.3l0.3-1.6
					L40.1,19.1L40.1,19.1z"/>
			</g>
			<g>
				<g>
					<path fill="#67C5B8" d="M29.7,33.5l9.4,7.7c0.1,0.1,0.3,0.1,0.4,0l5.2-6.6c0.1-0.1,0.1-0.3,0-0.4l-9.3-7.7
						c-0.1-0.1-0.3-0.1-0.4,0l-5.3,6.6C29.5,33.2,29.6,33.4,29.7,33.5z"/>
				</g>
				<g>
					<polygon fill="#F3F3F3" points="44.1,34.3 39.1,40.6 30.6,33.7 35.8,27.3 					"/>
				</g>
			</g>
			<g>
				<g>
					<path fill="#FFD15C" d="M38.3,36.8l-0.5-0.2c0,0-1,0.1-1.3,0.1c-0.3,0-0.3,0.1-0.6,0.1c-0.4,0-0.9,0-1.2,0.1L34,37
						c0,0-0.1,0.9,1.1,0.5c0,0,0.8,0,0.9,0c0.1,0,0.3,0.3,0.2,0.4S36,38.3,36,38.3s-0.3,0-0.3,0.1l-0.2-0.2c0,0-0.3,0.2-0.3,0.5
						c0,0.3,0.5,0.4,0.5,0.4s0.2,0.4,0.5,0.4c0,0,0.2,0.5,0.6,0.4c0,0,0.2,0.4,0.7,0.4c0.5,0,0.7-0.3,0.8-0.4c0.1-0.1,0.4-0.7,1-1.1
						c0.6-0.4,0.6-0.4,0.6-0.4L38.3,36.8z"/>
				</g>
				<g>
					<path fill="#425A6B" d="M47.8,32.7h-3.1c0,0,0,0,0,0s-0.5,0.5-0.7,0.8c-0.1,0.2-0.9,0.6-1.5,0.9c-0.4,0.2-0.8,0.4-0.9,0.5
						c-0.4,0.2-1,0.6-1.5,0.8c-0.5,0.2-2.4,0.9-2.4,0.9s0.1,0.5,0.7,1.5c0.6,1.1,1.8,2.6,1.8,2.6s1.3-1,2.8-2.2
						c1.9-1.5,4.2-3.4,4.6-3.7c0.6-0.6,0.3-1.7,0.3-1.7S47.9,32.9,47.8,32.7z"/>
				</g>
				<g>
					<path fill="#FFFFFF" d="M34.6,36.9L34.6,36.9c0,0.2-0.2,0.4-0.4,0.3C34,37.2,34,37,34,37L34.6,36.9z"/>
				</g>
			</g>
			<line fill="#F3F3F3" x1="38" y1="19.8" x2="32.6" y2="26.4"/>
			<g>
				<path fill="#F26F5A" d="M34.3,14.6c0,0,0.7-0.5,2,0c1.3,0.5,1.9,1,1.9,1s-0.8,5.3-0.5,6.8c0.3,1.6,0.8,2,0.7,2.5
					c0,0,0.2-0.5,0-1.3c0,0,0.5,0.3,0.5,1.1c0,0.8-0.3,1.3-0.3,1.3s0.9-0.7,1.1-1.7c0.2-1,0.8-1.7,1.3-2.6c0.5-0.9,0.8-1,0.8-2.1
					c0-1.1-0.2-5.7-0.5-6.9c-0.3-1.2-1.1-2.1-2.4-2.2c-1.3-0.1-2.9,0-3.9,1C34.2,12.5,34.1,14.1,34.3,14.6z"/>
			</g>
			<g>
				<path fill="#F26F5A" d="M41.8,19.3C41.8,19.3,41.8,19.3,41.8,19.3c0,0.1,0,0.1,0,0.1c0,0,0,0.1,0,0.1c0,0,0,0.1,0,0.1
					c0,0,0,0.1,0,0.2c0,0.1,0,0.2,0,0.4c0,0.3,0,0.6-0.2,0.9c0,0.1-0.1,0.2-0.1,0.2c0,0,0,0.1-0.1,0.1l0,0.1l0,0.1
					c-0.1,0.2-0.2,0.3-0.3,0.4c-0.2,0.3-0.4,0.5-0.6,0.8c-0.1,0.1-0.2,0.3-0.2,0.4c-0.1,0.1-0.1,0.3-0.2,0.4c0,0.1-0.1,0.2-0.1,0.3
					c0,0.1,0,0.2,0,0.3c0,0.1,0,0.1,0,0.2c0,0,0,0.1,0,0.1s0,0,0-0.1c0,0,0-0.1,0-0.2c0-0.1,0-0.2,0-0.3c0-0.1,0-0.2,0.1-0.3
					c0-0.1,0.1-0.3,0.2-0.4c0.1-0.1,0.1-0.3,0.2-0.4c0.2-0.3,0.4-0.6,0.6-0.8c0.1-0.1,0.2-0.3,0.3-0.4l0-0.1l0-0.1c0,0,0-0.1,0-0.1
					c0-0.1,0.1-0.1,0.1-0.2c0.1-0.3,0.1-0.6,0.1-0.8c0-0.1,0-0.2,0-0.3c0,0,0-0.1,0-0.1c0,0,0-0.1,0-0.1c0,0,0-0.1,0-0.1
					c0,0,0,0,0-0.1c0,0,0-0.1,0-0.1L41.8,19.3z"/>
			</g>
			<g>
				<path fill="#F26F5A" d="M34.9,20.4c0,0.2-0.1,0.5-0.1,0.7c-0.1,0.4-0.1,0.8-0.1,1.1c0,1,0.2,1.9,0.6,2.8c0.2-1,0.5-2,0.9-2.9
					c-0.2,0.6,0,1.3,0.4,1.7c-0.2-0.4-0.1-0.9,0.1-1.3c0.2-0.4,0.4-0.8,0.6-1.2c0.1-0.3,0-0.8-0.1-1.1L34.9,20.4z"/>
			</g>
		</g>
		<g>
			<path fill="#2B4151" d="M8.9,25.2c-0.1-0.9-0.1-1.8,0-2.6c0.2-1,0.5-2.1,1.4-2.8c1.7-1.4,3.4-0.3,3.8,1.9
				c0.4,2.1,0.3,3.9,0.4,4.5s1,2.5,1.1,2.9c0,0.5,0.4,0.7,0.8,1c0.4,0.4,1.6,1,2.1,1.1c0.5,0.1,3.1,0.7,3.1,0.7s0.9,0.9,0,4.2
				c0,0-1.6-0.2-3.6-0.9c-2-0.7-3.6-0.8-4.2-1c-0.6-0.3-3.2-1.3-3.7-2.4C9.7,31,9.1,26.8,8.9,25.2z"/>
		</g>
		<g>
			<path fill="#2B4151" d="M5.9,16.3c0,0,0.4-0.3,0.6-0.6c0.2-0.3,0.4-0.5,0.7-0.5s1.5,0.1,2.4,0.7c0.9,0.6,2,1.8,2.3,2.2
				c0,0-2.2-0.9-3.3-1.3C7.4,16.4,5.9,16.3,5.9,16.3z"/>
		</g>
	</g>
</g>
</svg>
