<?xml version="1.0" encoding="utf-8"?>
<!-- Generator: Adobe Illustrator 19.0.1, SVG Export Plug-In . SVG Version: 6.00 Build 0)  -->
<svg version="1.1" id="Layer_1" xmlns="http://www.w3.org/2000/svg" xmlns:xlink="http://www.w3.org/1999/xlink" x="0px" y="0px"
	 viewBox="0 0 48 48" style="enable-background:new 0 0 48 48;" xml:space="preserve">
<style type="text/css">
	.st0{fill:#FFD15C;}
	.st1{fill:#415A6B;}
	.st2{fill:#F7B64C;}
	.st3{fill:#CED6E0;}
	.st4{fill:#344A5E;}
	.st5{fill:#F3F3F3;}
	.st6{fill:#F05540;}
	.st7{fill:#F3705A;}
	.st8{fill:#66C6B9;}
	.st9{fill:#55C0EB;}
	.st10{fill:#F5F6FB;}
	.st11{fill:#4ABAA5;}
	.st12{fill:#ADB3BA;}
	.st13{fill:#E8EAE9;}
	.st14{fill:#2E4556;}
	.st15{fill:#8AD7F8;}
	.st16{fill:#FFFFFF;}
	.st17{fill:#E54838;}
	.st18{fill:#3EAF99;}
	.st19{fill:#EFA943;}
	.st20{fill:#4CAEE5;}
	.st21{fill:#293F4F;}
	.st22{fill:#2D4456;}
	.st23{fill:#2E4454;}
	.st24{fill:#2A3F4F;}
	.st25{fill:#2D4151;}
	.st26{fill:#E89E3D;}
	.st27{fill:#2B4151;}
	.st28{fill:#2A4051;}
	.st29{fill:#2C4151;}
	.st30{fill:#EBEAE8;}
	.st31{fill:#3AA590;}
	.st32{fill:#E84534;}
	.st33{fill:none;}
</style>
<g>
	<g>
		<g>
			<path class="st4" d="M10.2,40.7c0,0,1.9,5.3,3,6.1c1.1,0.9,2.8,0.6,4.1,0.1c1.3-0.4,9.6-5,11.2-10.1c1.6-5.1-11.4-8.1-15.3-7.9
				C9.3,29.2,10.2,40.7,10.2,40.7z"/>
		</g>
		<g>
			<path class="st13" d="M24.4,40.7c0,0,4.8-1.8,5.1-8.2c0.3-6.4-10.1-5.3-10.1-5.3S14,38.2,24.4,40.7z"/>
		</g>
		<g>
			<g>
				<path class="st0" d="M18.3,36.2c0,0,7.6,1.5,10.8,0.5c0,0,4.1,0.9,7.7,0.6c3.6-0.3,9.3-4.4,9.3-4.4s2-0.8,1.8-3
					s-2.2-2.7-3.3-2.9s-1.4-0.3-1.4-0.3s0.2-3.8,0-4.7c-0.3-0.9-0.2-2.7,0-3.9c0.2-1.1,1.1-4.1,1.3-8s0.3-7-2.2-7.4
					c-2.5-0.4-3.2,5.6-3.2,7s-0.9,3.2-1.1,5c-0.2,1.9-0.6,2.5-0.9,2.7c-0.3,0.2-0.9,0.1-2-0.6s-3-0.9-4,0.1s-1.3,0.8-1.8,0.6
					s-2.4-0.9-3.3,0.2s-1.1,1.2-2.1,0.9c-0.9-0.2-3.6,0.6-4.5,3.2c-1,2.6,0.5,6.9,0.2,8.8h-3L18.3,36.2z"/>
			</g>
			<g>
				<path class="st0" d="M18.3,36.2c0,0,7.6,1.5,10.8,0.5c0,0,4.1,0.9,7.7,0.6c3.6-0.3,9.3-4.4,9.3-4.4s2-0.8,1.8-3
					s-2.2-2.7-3.3-2.9s-1.4-0.3-1.4-0.3s0.2-3.8,0-4.7c-0.3-0.9-0.2-2.7,0-3.9c0.2-1.1,1.1-4.1,1.3-8s0.3-7-2.2-7.4
					c-2.5-0.4-3.2,5.6-3.2,7s-0.9,3.2-1.1,5c-0.2,1.9-0.6,2.5-0.9,2.7c-0.3,0.2-0.9,0.1-2-0.6s-3-0.9-4,0.1s-1.3,0.8-1.8,0.6
					s-2.4-0.9-3.3,0.2s-1.1,1.2-2.1,0.9c-0.9-0.2-3.6,0.6-4.5,3.2c-1,2.6,0.5,6.9,0.2,8.8h-3L18.3,36.2z"/>
			</g>
			<g>
				<path class="st0" d="M37,33.7c0.1-0.5,0.6-9.7,0.8-11c0.2-1.3-0.5-2.6-0.5-2.6c-0.9-1.2-1.5-2.2-1.9-2.9
					c-0.2-0.1-0.3-0.2-0.5-0.3c-1.1-0.7-3-0.9-4,0.1s-1.3,0.8-1.8,0.6s-2.4-0.9-3.3,0.2s-1.1,1.2-2.1,0.9c-0.9-0.2-3.6,0.6-4.5,3.2
					c0,0.1-0.1,0.3-0.1,0.4c0.1,1.5,0.5,2.9,0.7,3.6c0.3,1.4,1.2,3.8,1.6,4.9c0.4,1.1,2,1.4,2,1.4c2,0.8,2.4-0.6,2.5-1.6
					c0-0.5-0.6-6.2-0.6-6.2s0.2,1.9,0.6,2.8c0.4,0.9,0.5,3.4,0.7,4.1c0.2,0.7,0.3,1.8,2.5,2.1s2.3-2.2,2.3-2.2
					c0.2-1.7-0.5-6.9-0.5-6.9l1.2,0.7c0,0,0,8.9,0,9.3s0.9,1.6,2.6,1.4C36.6,35.5,36.8,34.2,37,33.7z"/>
			</g>
			<g>
				<path class="st16" d="M33.1,34.7c0,0,0-1.4,0.1-1.8c0.1-0.5,0.8-0.8,1.4-0.8c0.5,0,1.5,0.1,1.6,0.8c0.1,0.7,0.4,1.6-0.1,2.1
					C35.4,35.4,33.2,35.4,33.1,34.7z"/>
			</g>
			<g>
				<path class="st2" d="M40.3,30.1c-0.1,0.8,0.2,1.8,0.9,2.2c-0.3-0.2-0.7-0.4-0.9-0.7c-0.3-0.3-0.4-0.7-0.2-1.1
					c-0.3,0.8-0.3,1.8,0.1,2.6s1,1.5,1.9,1.8c-0.8-0.3-1.6-0.9-2.2-1.5c-0.2-0.2-0.4-0.4-0.5-0.7c-0.1-0.3-0.1-0.6-0.1-1
					c0-1,0.2-2,0.6-2.9c0.4-0.9,1.1-1.7,2-2.1C40.7,27.8,40.4,29.3,40.3,30.1z"/>
			</g>
			<g>
				<path class="st2" d="M32.2,25c0,0,0,0.1,0,0.3c0,0.2,0,0.5,0,0.9c0,0.7,0.1,1.8,0.1,3c0,0.6,0,1.3,0,2c0,0.7,0,1.5,0,2.3
					c0,0.2,0,0.4,0,0.6l0,0.2l0,0.1c0,0,0,0,0,0l0,0l0,0l0,0c0,0,0,0,0,0.1c0,0,0,0,0,0c0,0,0,0.1,0.1,0.1c0.1,0.2,0.2,0.3,0.3,0.4
					c0.1,0.1,0.3,0.2,0.5,0.3c0.3,0.2,0.7,0.3,1.1,0.3c0,0,0.1,0,0.1,0l0.1,0l0.1,0l0.2,0l0.2,0l0.1,0c0.1,0,0.2-0.1,0.3-0.1l0.1,0
					l0.1,0l0.1-0.1c0,0,0.1-0.1,0.1-0.1c0,0,0.1-0.1,0.1-0.1c0.1-0.1,0.3-0.3,0.4-0.4c0.1-0.2,0.2-0.3,0.2-0.5
					c0-0.1,0.1-0.2,0.1-0.3l0-0.2l0,0c0,0,0,0,0,0l0,0l0,0l0-0.1c0-0.2,0-0.4,0.1-0.6c0-0.2,0-0.4,0.1-0.6c0-0.4,0.1-0.8,0.1-1.2
					c0.1-1.6,0.2-3,0.3-4.3c0.1-0.6,0.1-1.2,0.2-1.7c0.1-0.5,0.1-1,0.1-1.3c0-0.4,0.1-0.7,0.1-0.8c0-0.2,0-0.3,0-0.3s0,0.1,0,0.3
					c0,0.2,0,0.5-0.1,0.8c0,0.7-0.1,1.8-0.1,3c0,0.6-0.1,1.3-0.1,2c0,0.7-0.1,1.5-0.1,2.3c0,0.4,0,0.8-0.1,1.2c0,0.2,0,0.4,0,0.6
					c0,0.2,0,0.4-0.1,0.6l0,0.1l0,0l0,0c0,0,0,0,0,0l0,0l0,0.1c0,0.1-0.1,0.2-0.1,0.3c-0.1,0.2-0.2,0.4-0.3,0.6
					c-0.2,0.4-0.6,0.7-1,0.9c-0.1,0-0.2,0.1-0.3,0.1l-0.2,0l-0.2,0l-0.2,0l0,0l0,0l0,0l0,0l-0.1,0l-0.2,0c-0.1,0-0.1,0-0.2,0
					c-0.4,0-0.9-0.1-1.3-0.3c-0.4-0.2-0.7-0.5-1-0.9c0,0,0-0.1-0.1-0.2c0-0.1,0-0.2,0-0.2l0,0l0,0l0,0l0,0l0-0.1l0-0.1
					c0-0.2,0-0.4,0-0.6c0-1.6,0-3,0.1-4.3c0-1.3,0-2.3,0.1-3c0-0.4,0-0.7,0-0.9C32.2,25.1,32.2,25,32.2,25z"/>
				<path class="st2" d="M25.9,27.2c0.1,0.2,0.2,0.4,0.2,0.7c0.1,0.2,0.1,0.5,0.2,0.7c0.1,0.5,0.2,0.9,0.2,1.4l0.1,0.7
					c0,0.1,0,0.2,0.1,0.3c0,0.1,0,0.1,0,0.2l0,0.2c0.1,0.2,0.1,0.4,0.2,0.6c0.1,0.2,0.2,0.4,0.4,0.5c0.1,0.1,0.2,0.1,0.3,0.2
					c0,0,0.1,0.1,0.1,0.1c0,0,0.1,0.1,0.1,0.1l0.2,0.1c0.1,0,0.1,0,0.2,0.1l0.2,0.1l0.2,0l0.2,0l0.2,0l0.2,0c0,0,0,0,0,0l0,0l0.1,0
					c0.1,0,0.1,0,0.2,0c0.1,0,0.1,0,0.2,0c0.1,0,0.1,0,0.2,0c0.1,0,0.1,0,0.2,0c0.2,0,0.4-0.1,0.6-0.3c0.2-0.1,0.3-0.3,0.4-0.5
					c0.1-0.2,0.2-0.4,0.2-0.6c0.1-0.2,0.1-0.4,0.1-0.7l0,0l0,0c0-0.1,0-0.3,0-0.4c0-0.1,0-0.3,0-0.4l0-0.4l0-0.4c0-0.3,0-0.6,0-0.9
					c0-0.3,0-0.6,0-0.9c0-0.6-0.1-1.1-0.1-1.7L31,24.3c0.1,0.6,0.2,1.1,0.3,1.7c0,0.3,0.1,0.6,0.1,0.9l0.1,0.9
					c0,0.3,0.1,0.6,0.1,0.9c0,0.3,0,0.6,0.1,0.9l0,0.4l0,0.4c0,0.1,0,0.3,0,0.4c0,0.1,0,0.3,0,0.4l0,0c0,0.3,0,0.5-0.1,0.7
					c-0.1,0.2-0.1,0.5-0.3,0.7c-0.1,0.2-0.3,0.4-0.5,0.6c-0.2,0.2-0.5,0.3-0.7,0.3c-0.1,0-0.1,0-0.2,0c-0.1,0-0.1,0-0.2,0
					c-0.1,0-0.1,0-0.2,0c-0.1,0-0.1,0-0.2,0l-0.1,0l0,0l-0.1,0l-0.2,0l-0.2,0l-0.2,0l-0.2,0l-0.2-0.1c-0.1,0-0.1,0-0.2-0.1l-0.2-0.1
					c-0.1,0-0.1-0.1-0.2-0.1c-0.1,0-0.1-0.1-0.2-0.1c-0.1-0.1-0.2-0.1-0.3-0.2c-0.2-0.2-0.3-0.4-0.4-0.6c-0.1-0.2-0.2-0.5-0.2-0.7
					l0-0.2c0-0.1,0-0.1,0-0.2c0-0.1,0-0.2,0-0.4L26.3,30c0-0.5-0.1-0.9-0.1-1.4c0-0.2-0.1-0.5-0.1-0.7C26,27.7,26,27.5,25.9,27.2z"
					/>
				<path class="st2" d="M19.9,25.9c0.1,0.3,0.2,0.6,0.3,0.9c0.1,0.3,0.2,0.6,0.3,0.9l0.7,1.8l0.3,0.9l0.1,0.2l0,0.1l0,0l0,0l0,0
					c0,0,0,0,0,0l0,0l0,0l0,0.1l0,0.1l0,0l0.1,0.1c0,0.1,0.1,0.1,0.1,0.2c0.1,0.1,0.2,0.2,0.3,0.3c0.1,0,0.1,0.1,0.2,0.1
					c0.1,0,0.1,0.1,0.2,0.1c0.1,0.1,0.3,0.1,0.4,0.2c0.1,0,0.3,0.1,0.4,0.1l0,0l0,0l0.3,0.1c0.1,0,0.2,0,0.3,0.1
					c0.2,0,0.4,0.1,0.6,0c0.2,0,0.4-0.1,0.5-0.2c0.1-0.1,0.3-0.2,0.4-0.4c0.1-0.2,0.2-0.3,0.2-0.5c0-0.2,0.1-0.4,0.1-0.6
					c0-0.1,0-0.2,0-0.3c0-0.1,0-0.2,0-0.3l0-0.6l-0.2-2.5l-0.1-1.2c0-0.4,0-0.8-0.1-1.2c0.1,0.4,0.1,0.8,0.2,1.2l0.2,1.2
					c0.1,0.4,0.1,0.8,0.2,1.2l0.1,1.2l0.1,0.6c0,0.1,0,0.2,0,0.3c0,0.1,0,0.2,0,0.3c0,0.2,0,0.4-0.1,0.7c0,0.2-0.1,0.4-0.2,0.6
					c-0.1,0.2-0.3,0.4-0.5,0.5c-0.2,0.1-0.4,0.2-0.7,0.2c-0.2,0-0.5,0-0.7,0c-0.1,0-0.2,0-0.3-0.1l-0.3-0.1l0,0
					c-0.2,0-0.3-0.1-0.5-0.1c-0.2-0.1-0.3-0.1-0.5-0.2c-0.1,0-0.2-0.1-0.2-0.1c-0.1,0-0.1-0.1-0.2-0.1c-0.1-0.1-0.3-0.2-0.4-0.3
					c-0.1-0.1-0.1-0.1-0.2-0.2l-0.1-0.1l0-0.1l0-0.1l0-0.1l0,0l0,0l0,0l0-0.1l-0.1-0.2l-0.3-0.9c-0.1-0.3-0.2-0.6-0.3-0.9
					c-0.1-0.3-0.2-0.6-0.3-0.9c-0.1-0.3-0.2-0.6-0.3-0.9c0-0.2-0.1-0.3-0.1-0.5C19.9,26.2,19.9,26.1,19.9,25.9z"/>
			</g>
			<g>
				<path class="st16" d="M43.6,27.3c0,0,0.8,2.7,0.2,4.6c0,0,1.1,0,1.3-1.3S44.7,27.8,43.6,27.3z"/>
			</g>
		</g>
		<g>
			<path class="st5" d="M19.2,26.5c0,0,0.7,2.7,0.4,4.2c0,0-0.7,7.6,4.9,10c-4.6,0.7-9.3,0.4-14.2-0.7c0,0,0.9-11.9,4.1-13
				C17.5,25.8,19.2,26.5,19.2,26.5z"/>
		</g>
		<g>
			<g>
				<path class="st1" d="M19.3,21.9c-0.5,1.3-0.4,3-0.2,4.6c-3.9,1.6-6.8,13.9-6.4,17.9c0.4,4,4.4,2.6,4.5,2.6
					c-0.1,0.1-2,1.8-3.7,0.6C12,46.5,5.7,37.1,4.9,34.9c-0.8-2.1-2.1-4.7,2-10.5c3-4.2,10-4.4,13.4-4.2
					C19.9,20.7,19.6,21.2,19.3,21.9z"/>
			</g>
		</g>
	</g>
	<g>
		<path class="st1" d="M4.8,7l-1-3.8h0.8l0.6,2.5l0.5-2.5h0.8L7,5.7l0.6-2.5h0.8L7.4,7H6.6L6.1,4.6L5.6,7H4.8z"/>
		<path class="st1" d="M9.4,7l-1-3.8h0.8l0.6,2.5l0.5-2.5h0.8l0.5,2.5l0.6-2.5H13L12,7h-0.8l-0.5-2.4L10.2,7H9.4z"/>
		<path class="st1" d="M14,7l-1-3.8h0.8l0.6,2.5l0.5-2.5h0.8l0.5,2.5l0.6-2.5h0.8l-1,3.8h-0.8l-0.5-2.4L14.8,7H14z"/>
	</g>
	<path class="st15" d="M45.1,0H2.9C1.3,0,0,1.3,0,2.9v4.5c0,1.6,1.3,2.9,2.9,2.9h42.3c1.6,0,2.9-1.3,2.9-2.9V2.9
		C48,1.3,46.7,0,45.1,0z M1.8,7.3V2.9c0-0.6,0.5-1.1,1.1-1.1h27.6c0.5,0,0.9,0.4,0.9,0.9v4.7c0,0.5-0.4,0.9-0.9,0.9H2.9
		C2.3,8.4,1.8,7.9,1.8,7.3z M46.2,7.3c0,0.6-0.5,1.1-1.1,1.1H39c-0.5,0-0.9-0.4-0.9-0.9V2.7c0-0.5,0.4-0.9,0.9-0.9h6.2
		c0.6,0,1.1,0.5,1.1,1.1V7.3z"/>
</g>
</svg>
