<?xml version="1.0" encoding="utf-8"?>
<!-- Generator: Adobe Illustrator 18.0.0, SVG Export Plug-In . SVG Version: 6.00 Build 0)  -->
<!DOCTYPE svg PUBLIC "-//W3C//DTD SVG 1.1//EN" "http://www.w3.org/Graphics/SVG/1.1/DTD/svg11.dtd">
<svg version="1.1" id="Layer_1" xmlns="http://www.w3.org/2000/svg" xmlns:xlink="http://www.w3.org/1999/xlink" x="0px" y="0px"
	 viewBox="0 0 48 48" enable-background="new 0 0 48 48" xml:space="preserve">
<g>
	<g>
		<g>
			<g>
				<path fill="#FFD15C" d="M29.3,43.5c0,0-0.2,0.4-0.1,0.8c0,0.1,0.3,0.7,0.3,0.7l1.5-0.8c0,0-0.3-0.5-0.3-0.8
					C30.7,43.1,29.3,43.5,29.3,43.5z"/>
			</g>
		</g>
		<g>
			<g>
				<path fill="#67C5B8" d="M30.3,47.3c0,0-0.5-0.3-0.7-0.8c-0.2-0.4,0-0.7-0.2-1.2c-0.2-0.5-0.2-0.6-0.2-0.6s0.4-0.6,0.8-0.7
					c0.5-0.1,0.9,0,0.9,0s0.4,0.6,0.6,0.8c0.2,0.3,0.6,0.6,0.7,0.9C32.4,46,32.8,47.1,30.3,47.3z"/>
			</g>
		</g>
		<g>
			<g>
				<path fill="#F3F3F3" d="M32.3,45.8c0,0,0.1,0.5-0.2,0.8c-0.3,0.3-1.4,0.5-1.6,0.5c-0.2,0-0.6-0.2-0.8-0.4c0,0,0,0,0,0
					c-0.2-0.3,0.1,1,0.9,1c0.8,0,1.5-0.4,1.7-0.6C32.5,46.8,32.6,46.5,32.3,45.8z"/>
			</g>
		</g>
	</g>
	<g>
		<g>
			<path fill="#425A6B" d="M25.6,22.1l1.3,0.7c0,0,0.4,1.8,0.5,2.3c0.1,0.5,0.7,4.9,0.7,5.8c0,0.8,0.1,1,0.1,1.3c0,0,0.2,0.7,0.2,1
				c0,0,0.4,0.5,0.4,0.9c0,0,0.2,0.8,0.5,1.5c0.4,0.7,1.5,5.5,1.5,7.8c0,0-0.9,0.7-1.9,0.5c0,0-0.2-0.7-0.1-0.9
				c0-0.2-0.1-0.2-0.2-0.6c-0.1-0.4-0.1-0.8-0.4-1.4c-0.3-0.7-1.3-2.8-1.5-4.5c0,0-0.1-0.5-0.3-0.6c-0.2-0.1-1.3-2.3-1.7-4.1
				c-0.4-1.8-1.6-3.6-2.3-6c0,0-0.3-0.7-0.4-0.5c0,0-0.1,3.2-0.2,4.1c-0.2,0.9,0.1,2.3,0.1,3c0,0.7-0.3,2.3-0.3,2.3
				s-0.3,0.4-0.3,1.1c0,0.7,0.3,2.6,0.2,4c-0.1,1.3,0.1,3.1,0.2,3.4c0.1,0.3,0.2,0.8,0.2,0.8s-1.3,0.7-1.9,0.3c0,0-0.3-0.7-0.3-1
				s0-0.4-0.2-0.9c-0.1-0.4-0.6-2.3-0.7-2.8c-0.1-0.5-0.5-2.3-0.3-3.5c0.2-1.2,0-1.4,0-1.6c0.1-0.2,0-0.4,0-0.8
				c0-0.4-0.1-2.6-0.4-3.8c-0.3-1.2-1.8-7.4-0.5-8.4L25.6,22.1z"/>
		</g>
	</g>
	<g>
		<g>
			<g>
				<path fill="#CED6E0" d="M16.1,12.2c0,0,1.2-0.5,1.6-0.3c0.5,0.2-0.1,0.6-0.1,0.6S16.1,12.6,16.1,12.2z"/>
			</g>
		</g>
		<g>
			<g>
				<path fill="#48B9A5" d="M28.2,8.9l0.6-0.2c0,0,0.8,0.8,1.2,1.5c0.4,0.7,1.8,2.5,2.2,3c0.4,0.5,0.9,1.5,0.9,2
					c0,0.4-0.5,1.7-0.9,2.5c-0.4,0.8-1.7,2-1.7,2l-1.7,1.6c0,0-0.2-0.8-1.2-1.6l1.2-1c0,0,0.1-0.4,0.4-0.8c0.3-0.4,0.8-1.5,1-1.9
					c0.2-0.4,0.2-0.5,0.2-0.5s-0.1-0.4-0.1-0.5c0,0,0,0-0.4-0.3c-0.4-0.2-1.3-1.2-1.9-1.4C27.5,11.6,27.1,10.1,28.2,8.9z"/>
			</g>
		</g>
		<g>
			<ellipse fill="#F26F5A" cx="23.7" cy="5.4" rx="0.7" ry="1.4"/>
		</g>
		<g>
			<g>
				<path fill="#F26F5A" d="M21.3,5.9c0,1.1-0.4,2-0.9,2c-0.5,0-0.6-0.6-0.9-2c-0.3-1.6,0.4-2,0.9-2C20.9,3.8,21.3,4.7,21.3,5.9z"/>
			</g>
		</g>
		<g>
			<g>
				<path fill="#FFD15C" d="M23.9,4.1c0,0-0.3,2.2-0.3,2.6c0,0.4,0.9,1.6,0.9,1.6s1.1,0.1,1.2,1.6c0.1,1.6-1.4,2.4-1.5,2.5
					c0,0-4.6-0.5-4.6-0.5l-0.2-2.4l0.5-0.8l0.6-0.3l0.1-1.6c0,0-0.4-0.2-0.6-0.7c-0.1-0.6-0.4-1.4-0.4-1.8c0-0.5,0.6-2.9,1.3-3.1
					c0.6-0.3,2.8-0.6,3.1,0.5C24.3,2.6,23.9,4.1,23.9,4.1z"/>
			</g>
		</g>
		<g>
			<g>
				<path fill="#E8EAE8" d="M25.2,7.6c0,0,0.1,0.9,0,1.8c-0.1,0.9-0.7,1.6-2,1.7c-1.2,0.1-3.1,0.5-3.7-1.8l-0.9,2.3l2,2.6l2.9,1.5
					l2.3-3.3l0.5-4.2l-0.3-0.5C26.1,7.6,25.6,7.5,25.2,7.6z"/>
			</g>
		</g>
		<g>
			<g>
				<path fill="#F26F5A" d="M22.4,1.4c0,0-1.2-0.3-1.6,0.4c-0.4,0.6-0.6,0.9-0.9,1.9c-0.2,0.8-0.6,1.3-0.3,2c0.3,0.7,0.9,1.2,0.9,2
					c0.1,0.8,0.6,2.6-0.4,3.8c-0.9,1.1-1.6,1-1.6,1s1.5-0.7,1.8-1.9c0.3-1.2-0.1-1.3-0.1-1.3s0.2,0.6-0.1,1.3c0,0-0.4-0.5-0.5-1.1
					c-0.1-0.6,0.1-1.3,0.1-1.9c0-0.5-0.7-1.4-0.6-2.5s0.5-3.5,2-4.5c1.5-1,3.1-0.2,3.4,0.6c0.3,0.7,1,3.1,1.1,3.9
					c0.1,0.8,0.1,3.2-0.6,3.8c-0.6,0.6-1.3,2.1-1.2,3c0,0-0.8-1-0.6-2.1c0.2-1.1,0-1.8,0-2.4c-0.1-0.5,1-2.2,1-3l0,0
					c-0.2,0-0.3,0.2-0.4,0.3l-0.1,0.1l-0.2-0.1C23.6,4.6,24.2,1.9,22.4,1.4z"/>
			</g>
		</g>
		<g>
			<g>
				
					<ellipse transform="matrix(0.8443 0.5359 -0.5359 0.8443 6.3312 -12.1932)" fill="#FFD15C" cx="24.1" cy="4.8" rx="0.4" ry="0.8"/>
			</g>
		</g>
		<g>
			<g>
				<path fill="#F26F5A" d="M25.2,8.5c0,0,0,0-0.1,0.1c0,0-0.1,0.1-0.1,0.1c0,0.1-0.1,0.1-0.1,0.2c0,0.1-0.1,0.1-0.1,0.2
					c0,0,0,0.1-0.1,0.1c0,0,0,0.1-0.1,0.1c0,0,0,0.1-0.1,0.1c0,0,0,0.1-0.1,0.1c0,0.1,0,0.1-0.1,0.2c0,0.1,0,0.1-0.1,0.2
					c0,0.1,0,0.1,0,0.2c0,0.1,0,0.1,0,0.2c0,0.1,0,0.1,0,0.2c0,0.1,0,0.1,0,0.2c0,0.1,0,0.1,0,0.2c0,0.1,0,0.1,0,0.1
					c0,0.1,0,0.2,0,0.3c0,0.1,0,0.2,0,0.2c0,0.1,0,0.1,0.1,0.2c0,0,0.1,0.1,0.1,0.1c0,0,0,0,0,0s0,0,0,0c0,0,0,0-0.1-0.1
					c0,0-0.1-0.1-0.1-0.2c0-0.1-0.1-0.1-0.1-0.2c0-0.1,0-0.2,0-0.3c0,0,0-0.1,0-0.2c0-0.1,0-0.1,0-0.2c0-0.1,0-0.1,0-0.2
					c0-0.1,0-0.1,0-0.2c0-0.1,0-0.1,0-0.2c0-0.1,0-0.1,0-0.2c0-0.1,0-0.1,0-0.2c0-0.1,0-0.1,0-0.2c0-0.1,0-0.1,0.1-0.2
					c0-0.1,0-0.1,0.1-0.2c0,0,0-0.1,0.1-0.1c0,0,0-0.1,0.1-0.1c0-0.1,0.1-0.2,0.1-0.2c0-0.1,0.1-0.1,0.1-0.2c0-0.1,0.1-0.1,0.1-0.2
					C24.9,8.4,25,8.3,25,8.3L25.2,8.5z"/>
			</g>
		</g>
		<g>
			<g>
				<path fill="#F26F5A" d="M23.6,7.1c0,0,0,0.1,0,0.2c0,0.1,0,0.3,0,0.5c0,0.2,0,0.4,0,0.7c0,0.1,0,0.3,0,0.4c0,0,0,0.1,0,0.1
					c0,0,0,0.1,0,0.1c0,0,0,0.1,0,0.1c0,0,0,0.1,0,0.1c-0.1,0.3-0.1,0.5-0.2,0.8c0,0.1,0,0.2-0.1,0.4c0,0.1,0,0.2,0,0.3
					c0,0.2,0.1,0.4,0.1,0.5c0,0,0,0.1,0,0.1c0,0,0,0,0,0.1c0,0,0,0,0,0s0,0,0,0c0,0,0,0,0,0c0,0,0,0,0-0.1c-0.1-0.1-0.1-0.3-0.1-0.5
					c0-0.1,0-0.2,0-0.3c0-0.1,0-0.2,0-0.4c0-0.2,0.1-0.5,0.1-0.8c0,0,0-0.1,0-0.1c0,0,0-0.1,0-0.1c0,0,0-0.1,0-0.1c0,0,0-0.1,0-0.1
					c0-0.1,0-0.3,0-0.4c0-0.2,0-0.5,0-0.7c0-0.2,0-0.4-0.1-0.5c0-0.1,0-0.2,0-0.2L23.6,7.1z"/>
			</g>
		</g>
		<g>
			<g>
				<path fill="#F26F5A" d="M20.5,10.4C20.5,10.4,20.5,10.4,20.5,10.4C20.5,10.4,20.5,10.4,20.5,10.4c0,0.1-0.1,0.2-0.1,0.2
					c0,0,0,0.1-0.1,0.1c0,0-0.1,0.1-0.1,0.2c0,0.1-0.1,0.1-0.1,0.2c-0.1,0.1-0.2,0.2-0.3,0.3c0,0-0.1,0-0.1,0.1c0,0-0.1,0-0.1,0.1
					c-0.1,0-0.1,0.1-0.2,0.1c-0.1,0-0.1,0-0.2,0c-0.1,0-0.1,0-0.2,0c-0.1,0-0.1,0-0.1,0c0,0,0,0-0.1,0c0,0,0,0-0.1,0
					c0,0-0.1,0-0.1,0c0,0,0,0,0,0s0,0,0,0c0,0,0,0,0.1,0c0,0,0,0,0.1,0c0,0,0,0,0.1,0c0,0,0.1,0,0.1,0c0.1,0,0.1,0,0.2,0
					c0.1,0,0.1,0,0.2-0.1c0.1,0,0.1-0.1,0.2-0.1c0,0,0.1,0,0.1-0.1c0,0,0.1,0,0.1-0.1c0.1-0.1,0.2-0.2,0.3-0.3
					c0-0.1,0.1-0.1,0.1-0.2c0-0.1,0-0.1,0.1-0.2c0,0,0-0.1,0-0.1c0,0,0-0.1,0-0.1c0,0,0-0.1,0-0.1c0,0,0,0,0,0L20.5,10.4z"/>
			</g>
		</g>
		<g>
			<g>
				<path fill="#67C5B8" d="M24.7,7.5c0,0,1,2,0.8,2.9c-0.4,1.9-2.1,4.3-2.1,4.3s-1.2-0.7-1.9-1.3c-0.7-0.6-1.9-2.2-1.9-4.8l-2.4,2
					c0,0,1.1,1.9,1.4,2.8l-0.6,5.1c0,0-0.1,1.3-0.4,2c-0.2,0.7-0.3,1.6-0.3,1.6s4.5,1.4,6,1.4c1.5,0,3.7-0.7,3.7-0.7s0-3,0.1-3.4
					c0.1-0.5,0.4-1.1,0.4-1.6s0.6-3.1,0.6-3.5c0-0.4,0.1-1,0.1-1s-0.2-3,0.6-4.6C28.8,8.7,26.6,7.2,24.7,7.5z"/>
			</g>
		</g>
		<g>
			<g>
				<path fill="#F26F5A" d="M23.7,6.2c-0.2,0.4-0.3,0.8-0.3,1c0.1,0.5,0.2,1.3,0,2.4c-0.2,1.1,0.6,2.1,0.6,2.1
					c-0.1-0.9,0.5-2.5,1.2-3c0.4-0.4,0.6-1.5,0.6-2.5H23.7z"/>
			</g>
		</g>
		<g>
			<g>
				<path fill="#F26F5A" d="M20.5,10.4C20.5,10.4,20.5,10.4,20.5,10.4C20.5,10.4,20.5,10.4,20.5,10.4c0,0.1-0.1,0.2-0.1,0.2
					c0,0,0,0.1-0.1,0.1c0,0-0.1,0.1-0.1,0.2c0,0.1-0.1,0.1-0.1,0.2c-0.1,0.1-0.2,0.2-0.3,0.3c0,0-0.1,0-0.1,0.1c0,0-0.1,0-0.1,0.1
					c-0.1,0-0.1,0.1-0.2,0.1c-0.1,0-0.1,0-0.2,0c-0.1,0-0.1,0-0.2,0c-0.1,0-0.1,0-0.1,0c0,0,0,0-0.1,0c0,0,0,0-0.1,0
					c0,0-0.1,0-0.1,0c0,0,0,0,0,0s0,0,0,0c0,0,0,0,0.1,0c0,0,0,0,0.1,0c0,0,0,0,0.1,0c0,0,0.1,0,0.1,0c0.1,0,0.1,0,0.2,0
					c0.1,0,0.1,0,0.2-0.1c0.1,0,0.1-0.1,0.2-0.1c0,0,0.1,0,0.1-0.1c0,0,0.1,0,0.1-0.1c0.1-0.1,0.2-0.2,0.3-0.3
					c0-0.1,0.1-0.1,0.1-0.2c0-0.1,0-0.1,0.1-0.2c0,0,0-0.1,0-0.1c0,0,0-0.1,0-0.1c0,0,0-0.1,0-0.1c0,0,0,0,0,0L20.5,10.4z"/>
			</g>
		</g>
		<g>
			<g>
				<path fill="#48B9A5" d="M17.9,19c0,0-0.7-0.5-1-1.5c-0.3-1-0.4-1.4-0.3-2c0-0.6,0-1.3,0-1.3l-0.5-2.1c0,0,0.2,0.2,0.9,0.1
					c0.7-0.1,0.8-0.2,0.8-0.2s0.1-0.1-0.1-0.2c-0.2-0.1-0.5-1.2-0.5-1.2l0.5-0.4c0,0,0.4,2.4,1.1,3.3c0.6,0.9,1.3,2.5,1.3,3.1
					C20,18.4,19,19.1,17.9,19z"/>
			</g>
		</g>
		<g>
			<g>
				<g>
					<path fill="#344A5E" d="M16.3,9.5c0.2,0.2,0.4,0.4,0.6,0.6c0.2,0.2,0.3,0.4,0.5,0.5l2.4-2c0.1-0.1,0.2-0.3,0.1-0.4l-0.4-0.7
						c0,0-0.6,0-0.6,0l-2.8,1.9C16.2,9.4,16.2,9.4,16.3,9.5z"/>
				</g>
			</g>
			<g>
				<g>
					<path fill="#425A6B" d="M16.4,9.5c0.2,0.2,0.4,0.4,0.6,0.6l0.8-1.2l1.8-1.5C19,6.8,17.7,6,17.7,6L16,7.6l-0.7,1
						C15.7,8.9,16,9.2,16.4,9.5z"/>
				</g>
			</g>
			<g>
				<g>
					<g>
						<path fill="#344A5E" d="M16.4,7.6c0.1,0.4,0.8,0.6,1.4,0.3c0.6-0.3,1-0.8,0.8-1.3l-0.9-1.6c-0.1-0.4-0.8-0.6-1.4-0.3
							c-0.6,0.3-1,0.8-0.8,1.3L16.4,7.6z"/>
					</g>
				</g>
				<g>
					<g>
						<path fill="#425A6B" d="M16.8,6.3c-0.6,0.3-1.2,0.1-1.4-0.3c-0.1-0.4,0.2-1,0.8-1.3c0.6-0.3,1.2-0.1,1.4,0.3
							C17.8,5.5,17.4,6.1,16.8,6.3z"/>
					</g>
				</g>
				<g>
					<g>
						<path fill="#E8EAE8" d="M16.8,6.2c-0.5,0.2-1,0.1-1.1-0.3c-0.1-0.4,0.2-0.8,0.7-1c0.5-0.2,1-0.1,1.1,0.3
							C17.6,5.5,17.3,6,16.8,6.2z"/>
					</g>
				</g>
				<g>
					<g>
						<path fill="#8AD6F7" d="M16.7,5.9c-0.3,0.1-0.5,0-0.6-0.2c-0.1-0.2,0.1-0.4,0.4-0.6c0.3-0.1,0.5,0,0.6,0.2
							C17.1,5.5,16.9,5.8,16.7,5.9z"/>
					</g>
				</g>
				<g>
					<g>
						<circle fill="#FFFFFF" cx="17" cy="5.3" r="0.2"/>
					</g>
				</g>
			</g>
		</g>
		<g>
			<g>
				<path fill="#FFD15C" d="M17.6,11.9c0,0.1,0,0.2,0,0.3c-0.1,0-0.3,0.1-0.7,0.1c-0.3,0-0.6,0-0.7,0c0-0.2,0-0.3,0-0.5
					c0-0.4-0.9-1.6-1-1.7C15.1,10,15,9.8,15,9.8s-0.2-1.2-0.2-1.3c0-0.1,0-0.2,0-0.2s0.3-0.4,0.4-0.5c0.1-0.1,0.3-0.1,0.3-0.1l0.3,0
					c0.1,0.1,0,0.3,0,0.3s0,0,0.2,0c0.2,0,0.3,0.2,0.3,0.2c0.3,0,0.4,0.3,0.4,0.3c0.2,0.3-0.1,0.5-0.2,0.2l0-0.1
					c-0.1,0-0.2,0.1-0.2,0.1c0.1,0.1,0.1,0.7,0.1,0.7l0.1-0.5c0,0,0-0.1,0.1-0.1c0.1-0.1,0.2-0.2,0.2-0.2c0.1-0.1,0.2,0,0.3,0
					C17,8.7,17,9,16.9,9.1c-0.1,0-0.1-0.1-0.1,0c0,0.1,0.1,0.7,0.1,0.7s0.2,0.4,0.4,0.7c0.1,0.2,0.2,0.3,0.2,0.3
					c0.1,0.2,0.1,0.6,0.1,0.8C17.6,11.7,17.6,11.8,17.6,11.9z"/>
			</g>
		</g>
		<g>
			<g>
				<path fill="#43AF9A" d="M17.9,11.4c0,0,0,0,0,0.1c0,0.1,0,0.2,0.1,0.3c0,0.1,0.1,0.3,0.1,0.4c0.1,0.2,0.1,0.4,0.2,0.6
					c0,0.1,0.1,0.2,0.1,0.3c0.1,0.1,0.1,0.2,0.2,0.3c0.1,0.2,0.3,0.4,0.4,0.7c0.1,0.2,0.3,0.5,0.4,0.7c0.1,0.3,0.3,0.5,0.4,0.8
					c0.1,0.3,0.2,0.6,0.2,0.9c0,0.1,0,0.3,0,0.4c0,0.1,0,0.3,0,0.4c0,0.3-0.1,0.5-0.3,0.8c-0.1,0.1-0.1,0.2-0.2,0.3
					c-0.1,0.1-0.2,0.2-0.3,0.2l0,0l0,0l0,0l0,0c0,0,0,0-0.1,0c0,0-0.1,0.1-0.1,0.1c-0.1,0-0.2,0.1-0.3,0.1C18.6,19,18.4,19,18.3,19
					c-0.1,0-0.2,0-0.3,0c0,0-0.1,0-0.1,0c0,0,0,0,0,0s0,0,0,0c0,0,0,0,0.1,0c0.1,0,0.2,0,0.3,0c0.1,0,0.3-0.1,0.4-0.1
					c0.1,0,0.2-0.1,0.2-0.1c0,0,0.1-0.1,0.1-0.1c0,0,0,0,0.1,0l0,0l0,0l0,0l0,0c0.2-0.1,0.3-0.3,0.4-0.5c0.1-0.2,0.2-0.5,0.2-0.7
					c0-0.1,0-0.3,0-0.4c0-0.1,0-0.3,0-0.4c0-0.3-0.1-0.6-0.2-0.8c-0.1-0.3-0.2-0.5-0.4-0.8c-0.1-0.3-0.3-0.5-0.4-0.7
					c-0.1-0.2-0.3-0.5-0.4-0.7c-0.1-0.2-0.2-0.4-0.3-0.6c-0.1-0.2-0.1-0.4-0.2-0.6C18,12,18,11.9,17.9,11.8c0-0.1-0.1-0.2-0.1-0.3
					C17.9,11.4,17.9,11.4,17.9,11.4z"/>
			</g>
		</g>
		<g>
			<g>
				<path fill="#43AF9A" d="M17.9,12c0,0.6,0.1,1.2,0.2,1.7c0,0,0.3,0.2,0.3,0.4c0.1,0.2,0.4,0.7,0.4,1.1c0,0.4,0.1,0.6,0.1,0.6
					s0.8,0.9,0.2,2.6c0,0,0.8-1.1-0.1-2.7c0,0,0.8,0.7,0.6,2.1c0,0,0.5-1-0.5-2.2c0,0-0.1-0.1-0.1-0.4c0-0.3-0.4-1.2-0.8-1.6
					C18.3,13.6,18,12.6,17.9,12z"/>
			</g>
		</g>
		<g>
			<g>
				<g>
					<path fill="#F5B54C" d="M16.2,8.3c0,0-0.1,0-0.1,0c0,0-0.1,0-0.1,0c-0.1,0-0.2,0-0.3,0.1l0,0c0,0,0,0-0.1,0c0,0,0,0,0,0.1
						c0,0,0,0,0,0.1c0,0,0,0.1,0,0.1c0,0.1,0,0.1,0,0.2c0,0.1,0,0.1,0,0.2c0,0.1,0,0.2,0,0.3c0,0.1,0,0.1,0,0.2c0,0,0,0.1,0,0.1
						c0,0,0,0.1,0,0.1c0,0,0-0.1,0-0.1c0,0,0-0.1,0-0.1l0-0.2l0-0.3l0-0.3c0,0,0-0.1,0-0.1c0,0,0-0.1,0-0.1c0,0,0-0.1,0.1-0.1
						c0,0,0,0,0.1,0l0,0l0,0c0.1,0,0.2,0,0.3,0c0,0,0.1,0,0.1,0C16.2,8.3,16.2,8.3,16.2,8.3z"/>
				</g>
			</g>
			<g>
				<g>
					<path fill="#F5B54C" d="M15.8,8.1c0,0-0.1,0-0.1,0c0,0-0.1,0-0.1,0c-0.1,0-0.2,0.1-0.2,0.1l0,0c0,0,0,0,0,0c0,0,0,0,0,0
						c0,0,0,0,0,0.1c0,0,0,0,0,0.1l0,0.1c0,0.1,0,0.1,0,0.2l0,0.2c0,0.1,0,0.2,0,0.3c0,0.1,0,0.1,0,0.2c0,0.1,0,0.1,0,0.2
						c0-0.1,0-0.1,0-0.2c0-0.1,0-0.1,0-0.2c0-0.1,0-0.2,0-0.3l0-0.2c0-0.1,0-0.1,0-0.2l0-0.1c0,0,0-0.1,0-0.1c0,0,0-0.1,0-0.1
						c0,0,0,0,0,0c0,0,0,0,0,0l0,0l0,0c0.1,0,0.2,0,0.2-0.1c0,0,0.1,0,0.1,0C15.7,8.1,15.7,8.1,15.8,8.1z"/>
				</g>
			</g>
		</g>
		<g>
			<g>
				<path fill="#FFD15C" d="M28.8,21.1c0,0-0.1,0.3-0.4,0.4c-0.3,0.1-0.9,0.1-1,0.2c-0.2,0.1-1.2,0.6-1.2,0.6s-0.4,0.2-0.7,0.2
					c-0.1,0-0.2-0.1-0.2-0.1c0,0,0-0.1,0.1-0.1c0.2-0.1,0.5-0.3,0.6-0.3c0.1-0.1,0.6-0.4,0.6-0.4s0-0.2-0.1-0.2c0,0-0.8,0.2-1,0.3
					c-0.2,0-1,0.2-1.1,0.1c-0.1,0-0.1-0.2,0-0.3c0,0-0.3,0.1-0.4-0.1c0-0.2,0.4-0.3,0.5-0.4c0.1,0,0.9-0.4,1-0.5
					c0.1,0,0.5-0.1,0.5-0.1s0-0.1-0.1-0.2c-0.1,0-0.4-0.1-0.4-0.1s-0.4,0.2-0.5,0.2c0,0-0.5,0.4-0.8,0.2l0.3-0.3c0,0,0-0.2,0.3-0.3
					c0.3-0.1,0.5-0.2,0.5-0.2s0.2-0.1,0.5,0c0.3,0,0.8,0.1,0.8,0.1s0.2,0.1,0.4,0.1c0.2,0,0.6,0.1,0.7,0.1
					C28.1,19.8,28.9,20.8,28.8,21.1z"/>
			</g>
		</g>
		<g>
			<g>
				<path fill="#F5B54C" d="M24.7,21.4C24.7,21.4,24.7,21.4,24.7,21.4C24.7,21.4,24.7,21.4,24.7,21.4c0.1-0.1,0.2-0.1,0.3-0.1
					c0.1,0,0.2-0.1,0.3-0.1c0.1,0,0.1,0,0.2-0.1c0.1,0,0.1-0.1,0.2-0.1c0.1,0,0.1,0,0.2-0.1c0.1,0,0.1,0,0.2-0.1
					c0.1,0,0.2-0.1,0.3-0.1c0.1,0,0.2,0,0.2-0.1c0.1,0,0.1,0,0.1,0s0,0-0.1,0c-0.1,0-0.1,0-0.2,0.1c-0.1,0-0.2,0.1-0.3,0.1
					c-0.1,0-0.2,0.1-0.4,0.1c-0.1,0-0.1,0.1-0.2,0.1c-0.1,0-0.1,0-0.2,0.1c-0.1,0-0.2,0.1-0.3,0.1C24.9,21.4,24.8,21.4,24.7,21.4
					C24.7,21.4,24.7,21.4,24.7,21.4C24.7,21.4,24.7,21.4,24.7,21.4z"/>
			</g>
		</g>
		<g>
			<g>
				<path fill="#48B9A5" d="M29.8,17.2c-0.2,0.3-0.3,0.6-0.4,0.7c-0.3,0.4-0.4,0.8-0.4,0.8l-1.2,1c1,0.7,1.2,1.6,1.2,1.6l1.7-1.6
					c0,0,1.3-1.2,1.7-2c0.1-0.1,0.2-0.3,0.2-0.5H29.8z"/>
			</g>
		</g>
		<g>
			<g>
				<path fill="#FFFFFF" d="M25.8,22.4c0,0-0.2,0.1-0.2,0.1c-0.1,0-0.1-0.1-0.1-0.2c0,0,0.2-0.1,0.2-0.1
					C25.7,22.3,25.7,22.4,25.8,22.4z"/>
			</g>
		</g>
		<g>
			<g>
				<path fill="#FFFFFF" d="M24.9,21.6c0,0-0.2,0.1-0.2,0c0,0,0,0,0-0.1c0,0,0-0.1,0.1-0.1c0.1,0,0.1-0.1,0.2,0
					C24.9,21.5,24.9,21.6,24.9,21.6z"/>
			</g>
		</g>
		<g>
			<g>
				<path fill="#FFFFFF" d="M24.4,21.3L24.4,21.3c0,0.1,0.1,0.1,0.1,0.1c0.1,0,0.2,0,0.2-0.1c-0.1-0.1-0.1-0.1-0.1-0.2l-0.2,0.1
					C24.4,21.2,24.4,21.2,24.4,21.3z"/>
			</g>
		</g>
		<g>
			<g>
				<path fill="#FFFFFF" d="M24.6,20.3l0.3-0.3C25,20.2,24.6,20.3,24.6,20.3z"/>
			</g>
		</g>
		<g>
			<path fill="#F5B54C" d="M20.7,6.7l-0.1,1.3c2-0.5,2.7-2.3,2.7-2.3C22.1,7,20.7,6.7,20.7,6.7z"/>
		</g>
		<g>
			<g>
				<path fill="#F26F5A" d="M20.4,7.3C20.4,7.3,20.4,7.3,20.4,7.3c0,0.1,0.1,0.1,0.1,0.2c0,0,0,0.1,0,0.1c0,0,0,0.1,0.1,0.1
					c0,0.1,0,0.1,0.1,0.2c0,0.1,0,0.1,0.1,0.2c0,0.1,0,0.1,0,0.2c0,0.1,0,0.1,0,0.2c0,0.1,0,0.1,0,0.2c0,0.1,0,0.1,0,0.2
					c0,0.1,0,0.1,0,0.1c0,0,0,0.1,0,0.1c0,0,0,0.1,0,0.1c0,0.1,0,0.1,0,0.1s0,0,0-0.1c0,0,0-0.1,0-0.1c0,0,0-0.1,0-0.1
					c0,0,0-0.1,0-0.1c0-0.1,0-0.1,0-0.2c0-0.1,0-0.1-0.1-0.2c0-0.1,0-0.1-0.1-0.2c0-0.1,0-0.1-0.1-0.2c0-0.1,0-0.1-0.1-0.2
					c0-0.1,0-0.1-0.1-0.1c0,0,0-0.1-0.1-0.1c0,0,0-0.1-0.1-0.1c0,0,0-0.1,0-0.1c0,0,0-0.1,0-0.1L20.4,7.3z"/>
			</g>
		</g>
	</g>
	<g>
		<g>
			<path fill="#F26F5A" d="M20.3,6.8h-0.7c0.1,0.2,0.1,0.4,0.1,0.6c0,0.5-0.2,1.2-0.1,1.9c0.1,0.6,0.5,1.1,0.5,1.1
				c0.3-0.7,0.1-1.3,0.1-1.3s0.3,0.1,0.1,1.3c-0.3,1.2-1.8,1.9-1.8,1.9s0.7,0.2,1.6-1c0.9-1.1,0.4-3,0.4-3.8
				C20.5,7.3,20.4,7.1,20.3,6.8z"/>
		</g>
	</g>
	<g>
		<g>
			<path fill="#F26F5A" d="M19.9,7.3C19.9,7.3,19.9,7.3,19.9,7.3c0,0.1,0,0.1-0.1,0.1c0,0,0,0.1-0.1,0.2c0,0.1,0,0.1-0.1,0.2
				c0,0.1,0,0.2-0.1,0.3c0,0.1,0,0.2-0.1,0.3c0,0.1,0,0.2,0,0.3c0,0.1,0,0.2,0,0.3c0,0.1,0,0.2,0,0.3c0,0.1,0,0.2,0.1,0.3
				c0,0.1,0,0.2,0,0.3c0,0.1,0,0.2,0,0.3c-0.1,0.2-0.1,0.3-0.2,0.4c0,0-0.1,0.1-0.1,0.1c0,0,0,0,0,0s0,0,0,0c0,0,0,0,0.1-0.1
				c0.1-0.1,0.1-0.2,0.2-0.4c0-0.1,0-0.2,0-0.3c0-0.1,0-0.2,0-0.3c0-0.1,0-0.2-0.1-0.3c0-0.1,0-0.2-0.1-0.3c0-0.1,0-0.2,0-0.3
				c0-0.1,0-0.2,0-0.3c0-0.1,0-0.2,0-0.3c0-0.1,0-0.2,0.1-0.3c0-0.1,0-0.2,0.1-0.2c0-0.1,0-0.1,0.1-0.2c0,0,0-0.1,0-0.1c0,0,0,0,0,0
				L19.9,7.3z"/>
		</g>
	</g>
	<g>
		<g>
			<path fill="#F26F5A" d="M25.7,5.7C25.7,5.7,25.7,5.7,25.7,5.7c0,0.1,0,0.1,0,0.1c0,0,0,0,0,0c0,0,0,0,0,0c0,0,0,0.1,0,0.1
				c0,0,0,0.1,0,0.1c0,0.1,0,0.2,0,0.3c0,0.1,0,0.2,0,0.4c0,0.1,0,0.3,0,0.4c0,0.1,0,0.3,0,0.4c0,0.1,0,0.2,0,0.2
				c0,0.1,0,0.2-0.1,0.2c0,0.2-0.1,0.3-0.2,0.4c-0.1,0.1-0.2,0.2-0.3,0.4c-0.1,0.1-0.2,0.2-0.2,0.3c-0.1,0.1-0.1,0.2-0.2,0.3
				c0,0.1-0.1,0.2-0.1,0.3c0,0.1,0,0.2,0,0.2c0,0.1,0,0.1,0,0.2c0,0,0,0.1,0,0.1s0,0,0-0.1c0,0,0-0.1,0-0.2c0-0.1,0-0.1,0-0.2
				c0-0.1,0-0.2,0.1-0.3c0-0.1,0.1-0.2,0.2-0.3C25,9,25.1,8.9,25.2,8.8c0.1-0.1,0.2-0.2,0.2-0.4c0.1-0.1,0.1-0.3,0.2-0.4
				c0-0.1,0-0.1,0-0.2c0-0.1,0-0.1,0-0.2c0-0.1,0-0.3,0-0.4c0-0.1,0-0.3-0.1-0.4c0-0.1,0-0.3-0.1-0.4c0-0.1,0-0.2,0-0.3
				c0,0,0-0.1,0-0.1c0,0,0-0.1,0-0.1c0,0,0,0,0-0.1c0,0,0,0,0,0c0,0,0,0,0-0.1c0,0,0-0.1,0-0.1L25.7,5.7z"/>
		</g>
	</g>
	<g>
		<path fill="#344A5E" d="M22,25.2c0,0-0.2-0.7-0.9-1.2c-0.7-0.5-1-0.5-1-0.5s1.3,0.7,1.6,1.3c0,0-1-0.3-1.4-0.3
			c-0.4-0.1-0.6,0-0.6,0s1.6,0.3,1.9,0.6c0,0,0.2,2.2,0.1,2.8c0,0.2,0,0.5,0.1,0.9C22,27.5,22,25.3,22,25.2L22,25.2z"/>
	</g>
	<g>
		<g>
			<g>
				<path fill="#FFD15C" d="M21.7,43.7c0,0,0.3,0.4,0.3,0.8c0,0.1-0.2,0.7-0.2,0.7l-1.6-0.5c0,0,0-0.5,0-0.7
					C20,43.6,21.7,43.7,21.7,43.7z"/>
			</g>
		</g>
		<g>
			<g>
				<path fill="#67C5B8" d="M21.3,47.6c0,0,0.4-0.4,0.5-0.9c0.1-0.5-0.1-0.7,0-1.2c0.1-0.5,0-0.6,0-0.6s-0.4-0.5-0.9-0.5
					c-0.5,0-0.9,0.2-0.9,0.2s-0.2,0.6-0.4,0.9c-0.2,0.3-0.5,0.7-0.5,1C19.1,46.7,18.9,47.8,21.3,47.6z"/>
			</g>
		</g>
		<g>
			<g>
				<path fill="#F3F3F3" d="M19.1,46.4c0,0-0.1,0.5,0.3,0.8c0.4,0.2,1.5,0.3,1.7,0.3c0.2,0,0.6-0.3,0.7-0.6c0,0,0,0,0-0.1
					c0.1-0.3,0.1,1-0.7,1.1c-0.8,0.2-1.6-0.1-1.8-0.3C19.1,47.5,19,47.2,19.1,46.4z"/>
			</g>
		</g>
	</g>
</g>
</svg>
