<?xml version="1.0" encoding="utf-8"?>
<!-- Generator: Adobe Illustrator 18.0.0, SVG Export Plug-In . SVG Version: 6.00 Build 0)  -->
<!DOCTYPE svg PUBLIC "-//W3C//DTD SVG 1.1//EN" "http://www.w3.org/Graphics/SVG/1.1/DTD/svg11.dtd">
<svg version="1.1" id="Layer_1" xmlns="http://www.w3.org/2000/svg" xmlns:xlink="http://www.w3.org/1999/xlink" x="0px" y="0px"
	 viewBox="0 0 48 48" enable-background="new 0 0 48 48" xml:space="preserve">
<g>
	<g>
		<g>
			<g>
				<g>
					<path fill="#415A6B" d="M30.5,21.1l0.9-4.3l-3.8-1.6c0-1.2-0.3-2.3-0.6-3.4l3-2.8l-2.4-3.7L23.8,7C23,6.2,22,5.5,21,5l0.1-4.1
						L16.8,0l-1.6,3.8c-1.2,0-2.3,0.3-3.4,0.6l-2.8-3L5.4,3.8L7,7.6C6.2,8.4,5.6,9.4,5,10.4l-4.1-0.1L0,14.6l3.8,1.6
						c0,1.2,0.3,2.3,0.6,3.4l-3,2.8L3.8,26l3.8-1.6c0.8,0.8,1.8,1.4,2.8,1.9l-0.1,4.1l5,1.1l0.9-4c1.2,0,2.3-0.3,3.4-0.6l2.8,3
						l3.7-2.4l-1.6-3.8c0.8-0.8,1.4-1.8,1.9-2.8L30.5,21.1z M14.7,20.5c-2.7-0.6-4.4-3.2-3.8-5.9s3.2-4.4,5.9-3.8s4.4,3.2,3.8,5.9
						S17.3,21.1,14.7,20.5z"/>
				</g>
				<g>
					<path fill="#344A5E" d="M17.3,8.2c-4.2-0.9-8.3,1.7-9.1,5.9s1.8,8.3,5.9,9.2c4.2,0.9,8.3-1.8,9.1-5.9
						C24.1,13.1,21.5,9.1,17.3,8.2z M14.7,20.5c-2.7-0.6-4.4-3.2-3.8-5.9c0.6-2.7,3.2-4.4,5.9-3.8c2.7,0.6,4.4,3.2,3.8,5.9
						C20,19.4,17.3,21.1,14.7,20.5z"/>
				</g>
			</g>
			<g>
				<g>
					<path fill="#8AD7F8" d="M45.5,18.2l1.5-2.2l-1.8-1.8c0.2-0.7,0.4-1.4,0.4-2.1l2.4-0.9l-0.5-2.7l-2.5,0
						c-0.3-0.6-0.7-1.2-1.2-1.8l1-2.3l-2.2-1.5l-1.8,1.8c-0.7-0.2-1.4-0.4-2.1-0.4L37.8,2l-2.7,0.5l0,2.5c-0.6,0.3-1.2,0.7-1.8,1.2
						l-2.3-1l-1.5,2.2l1.8,1.8c-0.2,0.7-0.4,1.4-0.4,2.1l-2.4,0.9l0.5,2.7l2.5,0c0.3,0.6,0.7,1.2,1.2,1.8l-1,2.3l2.2,1.5l1.8-1.8
						c0.7,0.2,1.4,0.4,2.1,0.4l0.9,2.4l2.7-0.5l0-2.5c0.6-0.3,1.2-0.7,1.8-1.2L45.5,18.2z M36.8,13.9c-1.2-0.8-1.6-2.5-0.7-3.8
						s2.5-1.6,3.8-0.7c1.2,0.8,1.6,2.5,0.7,3.8S38,14.8,36.8,13.9z"/>
				</g>
				<g>
					<path fill="#55C0EB" d="M40.9,7.8c-2.1-1.4-5-0.9-6.4,1.2c-1.4,2.1-0.9,5,1.2,6.4c2.1,1.4,5,0.9,6.4-1.2
						C43.6,12.2,43,9.3,40.9,7.8z M40.5,13.2c-0.8,1.2-2.5,1.6-3.8,0.7c-1.2-0.8-1.6-2.5-0.7-3.8c0.8-1.2,2.5-1.6,3.8-0.7
						C41.1,10.3,41.4,12,40.5,13.2z"/>
				</g>
			</g>
		</g>
		<g>
			<path fill="#FFD15C" d="M13.6,27.6c0,0,0.2,1.2,2.3,1.3l4.7-4.4l-1.4-0.4c-0.6-0.2-1.3,0-1.7,0.4l-1.7,1.7L13.6,27.6z"/>
			<g>
				<g>
					<path fill="#F7B64C" d="M19.7,24.2l-1.5,1c-0.7,0.5-1.3,1.2-1.6,1.9l-0.7,1.7c-0.1,0-0.1,0-0.3,0l0.6-1.8
						c0.4-0.8,0.9-1.6,1.7-2.1l1.3-0.9L19.7,24.2z"/>
				</g>
			</g>
			<g>
				<path fill="#FFD15C" d="M0,48V36.7L8.1,37c0,0,0.5-1,1-1.2c0,0,0.7-1.3,1.4-1.4c0,0-1.2-0.9-0.3-2.5c0.8-1.6,2.7-1.8,2.7-1.8
					l2.6-0.2l0.3-0.8l0.8-1.8c0.3-0.8,0.9-1.5,1.6-2l4.5-3.1c1.1-0.8,2.5-0.8,3.7-0.2l1.6,0.9l3.4,0.4c0,0,0,1.5-0.6,2.1
					c0,0-0.2,1-0.7,1.5c0,0,1.3-1.1,2.6-0.6c0,0,0.9,0.5,1.1,0.9s1,1.6-0.9,3.4c0,0,2.2-1.1,2.9-0.3s1,1.9,0.5,2.6
					c0,0,1.4,0.2,1.6,1.2s-0.3,1.7-0.3,1.7s9,0.4,10.5,0.1V48l-13.8-1.5c0,0-1.3,0.3-2.8,0.1c0,0-8.8,2.5-14.4,0.7L0,48z"/>
			</g>
			<path fill="#F7B64C" d="M16.9,47.4l-0.2,0c-0.4-0.1-1-0.3-1.8-0.5c-0.8-0.2-1.6-0.4-2.6-0.7c-0.9-0.3-1.9-0.7-2.7-1.4
				c-0.4-0.4-0.8-0.7-1.1-1.1c-0.3-0.4-0.7-0.8-1-1.1c-0.3-0.4-0.6-0.7-0.9-1.1c-0.1-0.2-0.3-0.3-0.4-0.5c-0.1-0.2-0.2-0.4-0.2-0.6
				c0-0.4,0.3-0.8,0.6-0.9c0.3-0.1,0.6,0,0.9,0c0.5,0.1,0.7,0.3,0.7,0.3l-0.1,0.2c0,0-0.2-0.1-0.6-0.2c-0.2,0-0.5-0.1-0.8,0
				c-0.3,0.1-0.5,0.4-0.5,0.7c0,0.4,0.2,0.7,0.5,1c0.3,0.4,0.5,0.7,0.9,1.1c0.3,0.4,0.6,0.8,1,1.1c0.3,0.4,0.7,0.7,1.1,1.1
				c0.8,0.6,1.8,1.1,2.7,1.4c0.9,0.3,1.8,0.5,2.6,0.7C15.8,47,16.5,47.2,16.9,47.4z"/>
			<path fill="#F7B64C" d="M14.9,40.6L14.9,40.6c-0.1,0.1-0.2,0-0.4-0.1c-0.2-0.1-0.5-0.2-0.9-0.3c-0.4-0.1-0.9-0.3-1.3-0.5
				c-0.5-0.2-1-0.3-1.5-0.6c-0.5-0.3-1-0.6-1.3-1C9.1,37.7,9,37.1,9,36.7c0-0.3,0-0.6,0-0.9c0,0,0.1,0,0.1,0c0,0,0.1-0.1,0.2-0.3
				c0,0.2-0.1,0.6-0.1,1.2c0,0.4,0.1,0.9,0.4,1.3c0.3,0.4,0.8,0.7,1.2,1c0.5,0.3,1,0.4,1.5,0.6c0.5,0.2,0.9,0.4,1.3,0.5
				c0.4,0.1,0.7,0.2,0.9,0.4C14.8,40.5,14.9,40.6,14.9,40.6z"/>
			<path fill="#F7B64C" d="M15.9,36.4L15.9,36.4c0,0.1-1.6-0.5-3.1-1c-0.4-0.1-0.8-0.3-1.1-0.4c-0.3-0.2-0.7-0.3-0.9-0.5
				c-0.1,0-0.1-0.1-0.2-0.1c0,0-0.2-0.2-0.4-0.5c0.2,0.1,0.4,0.2,0.7,0.4c0.3,0.2,0.6,0.3,0.9,0.5c0.3,0.2,0.7,0.3,1.1,0.5
				C14.4,35.9,15.9,36.4,15.9,36.4z"/>
			<path fill="#F7B64C" d="M8.4,39.8c0,0,0.2,0.4,0.6,1.1c0.1,0.2,0.2,0.3,0.3,0.5c0.1,0.2,0.2,0.3,0.4,0.5c0.3,0.3,0.8,0.6,1.2,0.8
				c0.9,0.5,1.8,0.8,2.5,1c0.7,0.2,1.2,0.3,1.2,0.3l0,0.1c0,0-0.5-0.1-1.2-0.3c-0.7-0.2-1.7-0.6-2.6-1c-0.4-0.2-0.9-0.5-1.2-0.8
				c-0.2-0.1-0.3-0.3-0.5-0.5c-0.1-0.2-0.2-0.3-0.3-0.5c-0.2-0.3-0.3-0.6-0.5-0.8c-0.1-0.2-0.2-0.3-0.2-0.3L8.4,39.8z"/>
			<path fill="#F7B64C" d="M30.8,25c0,0.1-0.1,0.2-0.2,0.2c0,0,0,0.1,0,0.2l-0.2,0.1l-0.2,0.1c-0.3,0.2-0.6,0.4-0.9,0.6
				c-0.6,0.3-1.4,0.5-2.1,0.6c-0.7,0-1.4-0.1-2.1-0.4c-0.5,0.3-0.8,0.7-1.2,1.2c-0.3,0.5-0.6,1-0.9,1.5v0c-0.1,0.5-0.4,0.9-0.6,1.3
				c-0.3,0.4-0.6,0.8-1,1.1c-0.2,0.1-0.4,0.3-0.6,0.4c-0.2,0.1-0.5,0.2-0.7,0.2c-0.2,0.1-0.5,0.1-0.7,0.1c-0.2,0-0.5,0-0.7,0
				c-1-0.1-1.9-0.3-2.8-0.8c-0.2-0.1-0.4-0.2-0.6-0.4c-0.1-0.1-0.1-0.3-0.1-0.4c0-0.1,0-0.3,0-0.4c0-0.2,0-0.3,0.1-0.5l0.1,0h0
				c0,0.2-0.1,0.3-0.1,0.5c0,0.1,0,0.2,0,0.4c0,0.1,0,0.2,0.1,0.3c0.2,0.2,0.4,0.3,0.6,0.4c0.8,0.4,1.8,0.7,2.7,0.7
				c0.2,0,0.5,0,0.7,0c0.3,0,0.5,0,0.7-0.1c0.2-0.1,0.5-0.1,0.7-0.2c0.2-0.1,0.4-0.2,0.6-0.4c0.4-0.3,0.7-0.6,0.9-1
				c0.3-0.4,0.5-0.8,0.6-1.3v0h0c0.3-0.5,0.6-1,0.9-1.5c0.2-0.2,0.4-0.5,0.6-0.7c0.2-0.2,0.4-0.4,0.7-0.6l0.1,0l0,0
				c0.6,0.3,1.4,0.4,2.1,0.4s1.4-0.2,2-0.5c0.3-0.2,0.6-0.4,0.9-0.6l0.4-0.3L30.8,25z"/>
			<path fill="#F7B64C" d="M23.9,24.7c0,0,0.2,0.5,0.5,0.9c0.2,0.2,0.3,0.4,0.5,0.5c0.2,0.1,0.3,0.1,0.3,0.1l-0.1,0.2
				c0,0-0.1,0-0.3-0.2c-0.2-0.1-0.4-0.3-0.5-0.5C24,25.2,23.9,24.7,23.9,24.7z"/>
			<path fill="#F7B64C" d="M22.4,25.2c0,0,0.1,0.1,0.1,0.2c0,0.1,0.1,0.1,0.1,0.2c0.1,0.1,0.1,0.2,0.2,0.2c0.1,0.1,0.3,0.2,0.4,0.3
				c0.1,0.1,0.2,0.1,0.2,0.1s-0.4-0.1-0.7-0.4c-0.1-0.1-0.1-0.2-0.2-0.2c0-0.1-0.1-0.2-0.1-0.2C22.5,25.3,22.4,25.2,22.4,25.2z"/>
			<path fill="#F7B64C" d="M37.7,35.4c-0.1,0.1-0.1,0.2-0.1,0.2l-0.1,0c-0.4,0.1-0.8,0.2-1.2,0.2c-0.4,0-0.9,0-1.2-0.2
				c-0.4-0.2-0.7-0.4-1-0.7l-1.8,0.7c-0.6,0.2-1.2,0.5-1.9,0.5c-0.3,0-0.7,0-1-0.1c-0.3-0.1-0.6-0.2-0.9-0.3
				c-0.3-0.2-0.5-0.5-0.6-0.8c-0.1-0.3-0.1-0.5-0.1-0.8c-0.3,0.2-0.7,0.4-1.1,0.4c-0.5,0-0.9-0.3-1.3-0.5c-0.4-0.3-0.7-0.7-0.7-1.1
				c-0.1-0.4,0-0.8,0.1-1.3c-0.1,0-0.2,0-0.4-0.1c-0.2,0-0.3-0.1-0.5-0.2c-0.1,0-0.1-0.1-0.2-0.1c-0.1-0.1-0.1-0.1-0.2-0.2
				c-0.1-0.1-0.2-0.3-0.3-0.4c-0.3-0.6-0.3-1.3-0.1-1.9l0.2,0c-0.1,0.6-0.1,1.2,0.1,1.8c0.1,0.1,0.1,0.3,0.2,0.4
				c0,0.1,0.1,0.1,0.2,0.2c0,0,0.1,0.1,0.2,0.1c0.1,0.1,0.3,0.1,0.4,0.2c0.1,0,0.3,0.1,0.4,0.1l0.1,0l0,0.1
				c-0.2,0.4-0.2,0.8-0.2,1.2c0.1,0.4,0.3,0.8,0.7,1.1c0.3,0.3,0.7,0.5,1.2,0.5c0.4,0,0.8-0.2,1.1-0.5l0,0l0.2-0.1l0,0.2
				c0,0.6,0.1,1.3,0.6,1.7c0.3,0.1,0.6,0.2,0.9,0.3C29.7,36,30,36,30.3,36c0.6,0,1.2-0.3,1.8-0.5l1.8-0.7l0,0l0.1,0l0,0.1
				c0.2,0.3,0.6,0.6,0.9,0.7c0.4,0.2,0.7,0.2,1.1,0.2c0.4,0,0.8-0.1,1.2-0.2L37.7,35.4z"/>
			<path fill="#F7B64C" d="M33.6,29.6c-0.2,0.3-0.4,0.6-0.7,0.9c-0.5,0.4-1.1,0.8-1.7,1.2c-0.4,0.3-0.9,0.5-1.3,0.7
				c-0.4,0.2-0.9,0.4-1.2,0.6c-0.3,0.2-0.5,0.5-0.6,0.7c-0.1,0.2-0.2,0.3-0.2,0.3l-0.2-0.1c0,0,0.2-0.6,0.8-1.1
				c0.3-0.2,0.8-0.4,1.2-0.6c0.4-0.2,0.9-0.5,1.3-0.7c0.9-0.5,1.7-1.1,2.3-1.7C33.4,29.7,33.5,29.6,33.6,29.6z"/>
			<path fill="#F7B64C" d="M36.3,32.6c0,0-0.1,0.1-0.1,0.1c-0.4,0-0.9,0.1-1.3,0.2c-0.2,0.1-0.3,0.2-0.5,0.3
				c-0.1,0.1-0.2,0.3-0.3,0.5c-0.1,0.4-0.1,0.8-0.1,1.2l-0.2,0c-0.1-0.4-0.1-0.8,0.1-1.3c0.1-0.2,0.2-0.4,0.3-0.6
				c0.2-0.2,0.3-0.3,0.6-0.4l0,0l0,0C35.4,32.6,35.8,32.6,36.3,32.6z"/>
			<path fill="#F7B64C" d="M8.4,39.8l-0.2,0c0,0-0.2-1.3-0.2-2.8l0.1,0c0,0,0-0.1,0.1-0.2C8.2,38.4,8.4,39.8,8.4,39.8z"/>
			<path fill="#F3F3F3" d="M5.9,40.2c0,0,0.3-0.4,0.7-0.3c0,0,0.7,0.5,0.8,1.1c0,0,0,0.5-0.2,0.8L5.9,40.2z"/>
			<path fill="#E8EAE9" d="M35.1,33.3c0,0,1,0.4,0.8,1.5l0.7,0c0,0,0.4-0.2,0.4-0.7c-0.1-0.6-0.5-1-0.7-0.9
				C35.8,33.1,35.1,33.3,35.1,33.3z"/>
			<path fill="#E8EAE9" d="M29.8,33c1,0.1,1.3,0.7,1.1,1.6l-0.7,0.5c0,0-0.4,0.3-0.5-0.1c-0.1-0.4-0.4-1.2-0.7-1.4
				c0,0-0.1-0.3,0.2-0.4C29.4,33.1,29.8,33,29.8,33z"/>
			<path fill="#E8EAE9" d="M26.2,31.6c0,0-0.5,0.2-0.2,0.6c0.3,0.4,0.6,1.1,0.6,1.5c0,0-0.1,0.4,0.4,0c0.5-0.4,0.5-0.4,0.5-0.4
				s1.2-1.6-0.7-1.9L26.2,31.6z"/>
			<path fill="#E8EAE9" d="M24.8,31c0,0,0.3,0.2,0.7-0.1c0.4-0.2,0.6-0.7,0.6-0.7s0.5-1.9-1.5-1.4L24,29.3c0,0-0.3,0.4,0,0.7
				C24.3,30.3,24.8,31,24.8,31z"/>
			<path fill="#E8EAE9" d="M28.1,22.8l-0.2,0.5c0,0-0.2,0.6,0.6,0.8c0.8,0.2,2,0.3,2,0.3s0.6-1.1,0.9-1.3L28.1,22.8z"/>
			<path fill="#F7B64C" d="M30,26.7c0,0,0.1-0.1,0.1-0.1c-0.5,0.6-1.2,1.4-2,2.1c-0.4,0.4-0.8,0.7-1.2,1.1c-0.4,0.3-0.7,0.6-1,0.9
				c-0.6,0.5-1,0.9-1,0.9l-0.1-0.2c0,0,0.4-0.3,1-0.9c0.3-0.3,0.7-0.6,1.1-0.9c0.4-0.3,0.8-0.7,1.2-1c0.8-0.8,1.6-1.6,2.1-2.2
				C30.1,26.6,30,26.7,30,26.7z"/>
			<path fill="#E8EAE9" d="M13.3,27.1c0,0-0.6,0.7,0.8,0.6c0,0,1.7-0.9,1.7-1.5L13.3,27.1z"/>
		</g>
	</g>
</g>
</svg>
