<?xml version="1.0" encoding="utf-8"?>
<!-- Generator: Adobe Illustrator 18.0.0, SVG Export Plug-In . SVG Version: 6.00 Build 0)  -->
<!DOCTYPE svg PUBLIC "-//W3C//DTD SVG 1.1//EN" "http://www.w3.org/Graphics/SVG/1.1/DTD/svg11.dtd">
<svg version="1.1" id="Layer_1" xmlns="http://www.w3.org/2000/svg" xmlns:xlink="http://www.w3.org/1999/xlink" x="0px" y="0px"
	 viewBox="0 0 48 48" enable-background="new 0 0 48 48" xml:space="preserve">
<g>
	<g>
		<g>
			<g>
				<path fill="#ACB2BA" d="M40.2,13.9c0,0-0.3,0-0.4,0c-0.1,0.1-0.1,0.4-0.1,0.4l0.5,0.3C40.2,14.7,40.6,14,40.2,13.9z"/>
			</g>
		</g>
	</g>
	<g>
		<g>
			<path fill="#425A6B" d="M13.3,17.1c0.4,1.1,0,2.2-0.5,3.2c-0.5,1-1.2,1.9-1.4,3c-0.4,1.6,0.2,3.4,1.4,4.5
				c0.3,0.2,0.6,0.4,0.9,0.5c0.3,0.1,0.7,0,1-0.2c0.3-0.2,0.4-0.6,0.5-0.9c0.2-0.8,0.2-1.7,0.2-2.6c-0.1-2.6-0.7-5.2-1.6-7.7"/>
		</g>
	</g>
	<g>
		<g>
			<g>
				<path fill="#425A6B" d="M6.4,21.5c0.4,1.2,0.9,2.3,1.6,3.4c0.6-1.1,1.1-2.2,1.2-3.5c0.1-1.7-0.8-3.2-1.6-4.6
					c-0.8,1.2-1.1,2.7-1.1,4.1"/>
			</g>
		</g>
	</g>
	<g>
		<g>
			<g>
				
					<ellipse transform="matrix(0.9459 -0.3245 0.3245 0.9459 -5.7973 3.5892)" fill="#FFD15C" cx="7.9" cy="19.2" rx="0.7" ry="1.4"/>
			</g>
		</g>
	</g>
	<g>
		<g>
			<g>
				<path fill="#FFD15C" d="M13.5,16.2c1.1,2,0.6,5.3-0.4,6.2c0,0,0.1,1.5,2,2.4c1.9,0.9-0.7,5.9-1.5,7.6c-0.8,1.7-1.5,2.6-1.5,2.6
					l-1.5-0.2L8.4,23.8L8.8,23c0,0-0.2-1.4-0.4-1.7c-0.1-0.4-1.2-3.3-1.1-5.5C7.3,13.7,12.4,14.3,13.5,16.2z"/>
			</g>
		</g>
	</g>
	<g>
		<g>
			<path fill="#F5B54C" d="M15.1,26.1L14,24.1c-0.8-0.8-0.9-1.6-0.9-1.6s-2.5,1.4-4.6-1c0,0,0.9,2.3,3.8,3.5
				C15.1,26.1,15.1,26.1,15.1,26.1z"/>
		</g>
	</g>
	<g>
		<g>
			<g>
				<path fill="#67C5B8" d="M4.8,23.9l-1.1-0.5c0,0-1.1,0.2-1.7,1.9c-0.7,1.7-1.1,5.3-1.1,6.3c0,0.9,0,1.8,0,2.7
					c0,0.8,0,2.3,0.2,2.7c0.3,0.4,0.9,2.5,2,2.8c1.1,0.3,3.1-0.8,3.3-0.9c0.2-0.1,0.1,0,0.1,0s-1,0.1-1.7-1
					c-0.6-1.1-0.3-1.9,0.3-2.4c0.6-0.5,1.1-0.2,1.1-0.2S4.9,35,4.6,34.9c-0.3,0-0.1-0.6,0.1-1.6s0.4-3.4,0.4-3.4S7.5,24.6,4.8,23.9z
					"/>
			</g>
		</g>
	</g>
	<g>
		<g>
			<g>
				<path fill="#425A6B" d="M16.3,42.2c0,0-0.7,0.3-1.3-0.1c-0.7-0.4,0.1-3.1,1.4-3.3c1.2-0.2,1.2-0.2,1.2-0.2S17.9,41.3,16.3,42.2z
					"/>
			</g>
		</g>
	</g>
	<g>
		<g>
			<g>
				<path fill="#48B9A5" d="M7.2,23.4c0,0-0.8,0.1-1.3,0.2s-2.2-0.1-2.2-0.1s1.4,3.3,1.5,6.5c0,0-2.5,8.7-3.2,10.4
					C1.2,41.9,0,44.4,0,44.4h15.7l-2.6-9l-3.8-5C9.4,30.4,7.8,24.6,7.2,23.4z"/>
			</g>
		</g>
	</g>
	<g>
		<g>
			<g>
				<path fill="#F5B54C" d="M9,37.3c-0.3,0.4-2.5,1.5-2.6,1.5l0,0l-0.1,0c0,0,0,0,0,0c0,0,0,0,0,0c0,0-0.1,0-0.2,0c0,0,0,0,0,0
					c0,0,0,0,0,0c0,0,0,0,0,0c0,0,0,0,0,0c0,0,0,0,0,0c0,0,0,0,0,0c0,0-0.1,0-0.1,0c0,0,0,0,0,0c-0.1,0-0.1,0-0.2-0.1l0,0
					c0,0,0,0,0,0c0,0,0,0,0,0c0,0,0,0,0,0c-0.2-0.1-0.4-0.3-0.5-0.5c0,0,0,0,0,0c0,0,0,0,0,0c0-0.1-0.1-0.1-0.1-0.2
					c-0.6-1.1-0.3-1.9,0.3-2.4c0.5-0.2,1.6,0,1.6,0L9,37.3z"/>
			</g>
		</g>
	</g>
	<g>
		<g>
			<g>
				<path fill="#67C5B8" d="M6.2,35.2c0,0-0.2,0-0.4-0.1C6,35.1,6.1,35.2,6.2,35.2z"/>
			</g>
		</g>
		<g>
			<g>
				<path fill="#67C5B8" d="M6.3,38.8C6.3,38.8,6.3,38.8,6.3,38.8C6.1,38.9,4.1,40,3,39.7c-1.1-0.3-1.7-2.3-2-2.8
					c-0.3-0.4-0.2-1.9-0.2-2.7c0-0.8,0-1.7,0-2.7c0-0.3,0.1-0.9,0.2-1.6h4.2c0,0-0.3,2.4-0.4,3.4c-0.2,1-0.4,1.5-0.1,1.6
					c0.2,0,0.7,0.1,1.1,0.2c-0.2,0-0.4,0.1-0.7,0.3c-0.6,0.5-0.9,1.3-0.3,2.4C5.2,38.7,6,38.8,6.3,38.8z"/>
			</g>
		</g>
		<g>
			<g>
				<path fill="#67C5B8" d="M6.4,38.8C6.4,38.8,6.4,38.8,6.4,38.8C6.5,38.7,6.4,38.8,6.4,38.8z"/>
			</g>
		</g>
	</g>
	<g>
		<g>
			<g>
				<path fill="#67C5B8" d="M11.9,38.6L6.5,27.5l1.7-0.7l-1.6-0.5L7,23.4L8.8,23c0,0,0.2,0.9,0.3,1.2c0,0.4,0.8,4.5,1.1,5.4
					C10.4,30.5,11.9,38.6,11.9,38.6z"/>
			</g>
		</g>
	</g>
	<g>
		<g>
			<g>
				<path fill="#67C5B8" d="M14.4,39.3c1.5-0.1,2.8-0.7,2.8,1.2c0,0-0.2,0.6-0.8,1.3c-0.6,0.7-1.1,0.4-1.5,0.3c0,0,0.5,0.7,1.9,0
					c1.4-0.7,1.8-1.3,1.9-1.6c0.1-0.3,0.1-0.4,0.3-0.8c0.2-0.4,0.2-0.8,0.3-1.4c0-0.6-0.4-2.3-0.3-3.1c0.1-0.8-0.9-2.7-1.5-4.1
					c-0.6-1.4-1.4-2.7-1.4-2.7l-1.2-1.8L14.2,33l-1.6,3L14.4,39.3z"/>
			</g>
		</g>
	</g>
	<g>
		<g>
			<g>
				<path fill="#48B9A5" d="M13.9,25.5c0,0,0.2,2.9-0.1,4.3c-0.3,1.4-1,4.5-1,4.5s2.4-3.7,3-5.7C15.8,28.6,16.8,26.5,13.9,25.5z"/>
			</g>
			<g>
				<path fill="#48B9A5" d="M12.7,34.5l0-0.1c0,0,0.8-3.1,1-4.5c0.2-1.4,0.1-4.3,0.1-4.3l0,0l0,0c1,0.3,1.6,0.8,1.9,1.5
					c0.4,0.9,0,1.7,0,1.7c-0.6,2-3,5.7-3,5.7L12.7,34.5z M13.9,25.6c0,0.3,0.1,3-0.1,4.3c-0.2,1.2-0.9,3.8-1,4.4
					c0.4-0.6,2.4-3.8,2.9-5.6c0,0,0.4-0.8,0-1.7C15.5,26.3,14.9,25.9,13.9,25.6z"/>
			</g>
		</g>
	</g>
	<g>
		<g>
			<g>
				<path fill="#425A6B" d="M7.5,17.8c0,0.6-0.3,1.6-0.5,2.1c-0.3,0.8-0.3,1.6-0.1,2.3c0.1,0.4,0.4,0.9,0.7,1.3
					c0.5,0.5,1.1,0.2,1.1,0.2s-0.3,0.4-1.3-0.1C6.5,23.3,6,22.5,6,22.5S5,21.1,5,19.9c0-1.2,0.6-3.6,0.6-3.6s-0.7,1.8-0.8,3.1
					c0,0-0.2-1.6,0.6-3.5c0,0,0.9-2.8,2.5-3c0,0,1-1.3,3.3-0.6c2.3,0.7,3.4,4.6,3.8,4.9c0.4,0.3,1.2,0.8,1.4,1.8
					c0.3,1,0.8,1.9,1,2.4c0.3,0.5-0.5,2.3,0.2,2.9c0.7,0.6,1.8-0.1,1.8-0.1s-0.7,0.8-1.6,0.5c0,0,1.3,1.7,1.4,2.9
					c0.1,1.2,0,1.6,0.4,2.1c0.4,0.5-3.1,1.4-3.1,1.4s-1.3-0.9-1.5-2.1c-0.2-1.2-0.9-2.2-1.5-2.8s-0.5-2.2-0.2-3
					c0.3-0.7,0.9-2.2,0.9-3.1c-0.2-3.6-2.3-5.1-2.7-5.3C11,15,9.3,14.3,8.7,14.6C8,15,7.5,16.8,7.5,17.8z"/>
			</g>
		</g>
	</g>
	<g>
		<g>
			<g>
				<path fill="#48B9A5" d="M14.8,39.3C14.8,39.3,14.8,39.2,14.8,39.3c0-0.1,0-0.1,0.1-0.1c0-0.1,0.1-0.2,0.2-0.3
					c0.1-0.1,0.2-0.3,0.3-0.4c0.1-0.1,0.1-0.1,0.2-0.2c0,0,0.1-0.1,0.1-0.1c0,0,0.1-0.1,0.1-0.1c0.1-0.1,0.1-0.1,0.2-0.2
					c0.1-0.1,0.1-0.1,0.2-0.2c0.1-0.1,0.3-0.2,0.4-0.3c0.2-0.2,0.4-0.3,0.4-0.3s-0.1,0.2-0.3,0.4c-0.1,0.1-0.2,0.2-0.3,0.4
					c-0.1,0.1-0.1,0.1-0.2,0.2C16,38,16,38,15.9,38.1c0,0-0.1,0.1-0.1,0.1c0,0-0.1,0.1-0.1,0.1c-0.1,0.1-0.1,0.1-0.2,0.2
					c-0.1,0.1-0.1,0.1-0.2,0.2c-0.1,0.1-0.1,0.1-0.2,0.2C15,39,15,39.1,14.9,39.2C14.9,39.2,14.8,39.3,14.8,39.3z"/>
			</g>
		</g>
	</g>
	<g>
		<g>
			<g>
				<path fill="#F3F3F3" d="M17,29.9v0.6l-7,2.2L3,29.7l0.1-0.1l0.6-0.4c0,0,1.7,0.6,3,0.8c1.3,0.1,2.8,0.4,3.1,0.9
					c0,0,1.5-0.6,3.1-0.6C14.5,30.2,17,29.9,17,29.9z"/>
			</g>
		</g>
	</g>
	<g>
		<g>
			<g>
				<polygon fill="#344A5E" points="18.5,37.6 11.6,38.4 11.6,38.7 11.2,38.7 5,36.6 2.9,29.6 9.4,31.6 9.6,31.6 10,31.3 17.3,30.3 
									"/>
			</g>
		</g>
	</g>
	<g>
		<g>
			<g>
				<g>
					<polygon fill="#425A6B" points="11.2,38.7 5,36.6 2.9,29.6 9.4,31.6 					"/>
				</g>
			</g>
		</g>
		<g>
			<g>
				<g>
					<polygon fill="#344A5E" points="9.4,31.6 11.2,38.7 11.6,38.7 11.6,38.4 18.5,37.6 17.3,30.3 10,31.3 9.6,31.6 					"/>
				</g>
			</g>
		</g>
	</g>
	<g>
		<g>
			<g>
				<path fill="#FFD15C" d="M10.9,35.8c-0.1-0.2,0.2-0.5,0.5-0.4c0,0,0.5,0.3,0.7,0.5c0.2,0.2,0.5,0.5,0.6,0.7
					c0.1,0.2,0.5,0.8,0.5,1c0,0,0.4,0.5,0.6,0.5l0.6-0.1c0,0,0.3,0.7,0.3,0.9c0,0.2,0.1,0.3,0.4,0.2c0.3-0.1,0.7-0.4,1.3-0.1
					c0.6,0.2,0.9,1.1,0.8,1.6c-0.1,0.5-0.7,0.9-1.2,1.1c-0.5,0.2-1.5,0-1.5,0s-0.2,0.2-0.7,0.1c-0.5-0.1-1.7-0.6-2-0.7
					c-0.3-0.1-0.8,0-1.2-0.4c-0.4-0.4-2.1-2.8-2.1-2.8s0-0.1,0.1-0.1c0,0-0.8-0.4-0.6-0.9c0.2-0.5,1.3,0.5,1.4,0.6
					c0.2,0.1,1.6,1.2,1.6,1.2s-1.2-1.4-1.4-1.5c-0.1-0.1-1.1-0.9-1-1.2c0.1-0.3,0.4-0.3,0.7,0s1.4,1,1.6,1.2s0.9,1,0.9,1
					s0.2-0.1,0.2-0.3s-0.3-0.9-0.5-1.1C11.5,36.7,10.9,35.8,10.9,35.8z"/>
			</g>
		</g>
	</g>
	<g>
		<g>
			<g>
				<path fill="#F5B54C" d="M8.4,37.8c0,0,0,0,0.1,0.1c0.1,0.1,0.2,0.1,0.3,0.2c0.1,0,0.1,0.1,0.2,0.2c0.1,0.1,0.1,0.1,0.2,0.2
					c0.1,0.1,0.3,0.3,0.4,0.4c0.1,0.1,0.1,0.1,0.2,0.2c0,0,0.1,0.1,0.1,0.1c0,0,0.1,0.1,0.1,0.1c0.1,0.1,0.1,0.1,0.2,0.2
					c0.1,0,0.1,0.1,0.2,0.1c0.1,0.1,0.2,0.2,0.3,0.2c0,0,0,0.1,0.1,0.1c0,0,0,0,0,0c0,0,0,0,0,0c0,0,0,0-0.1-0.1
					c-0.1-0.1-0.2-0.1-0.3-0.2c-0.1,0-0.1-0.1-0.2-0.1c-0.1,0-0.1-0.1-0.2-0.2c0,0-0.1-0.1-0.1-0.1c0,0-0.1-0.1-0.1-0.1
					c-0.1-0.1-0.1-0.1-0.2-0.2c-0.1-0.1-0.1-0.1-0.2-0.2c-0.1-0.1-0.1-0.1-0.2-0.2C9,38.4,9,38.3,8.9,38.3c-0.1-0.1-0.1-0.1-0.2-0.2
					C8.7,38,8.6,37.9,8.4,37.8C8.5,37.8,8.4,37.8,8.4,37.8z"/>
			</g>
		</g>
	</g>
	<g>
		<g>
			<g>
				<g>
					<path fill="#CED6E0" d="M20.6,27.3l1.5,5c0.1,0.2,0,0.4-0.2,0.5l-2.6,1.1c-0.2,0.1-0.4,0-0.5-0.2L16.3,29L20.6,27.3z"/>
				</g>
			</g>
		</g>
		<g>
			<g>
				<g>
					<polygon fill="#F05640" points="21.3,29.8 20.9,28.3 16.8,30 17.6,31.4 					"/>
				</g>
			</g>
		</g>
		<g>
			<g>
				<g>
					<path fill="#F3F3F3" d="M20.5,26.8L16,28.6c-0.1,0.1-0.2,0.2-0.1,0.3l0,0c0.1,0.1,0.2,0.2,0.3,0.1l4.4-1.8
						c0.1-0.1,0.2-0.2,0.1-0.3l0,0C20.7,26.8,20.6,26.7,20.5,26.8z"/>
				</g>
			</g>
		</g>
		<g>
			<g>
				<g>
					<path fill="#F05640" d="M20.1,26.9c-0.4-0.9-1.3-0.6-2.3-0.2c-1,0.4-1.8,0.8-1.5,1.7L20.1,26.9z"/>
				</g>
			</g>
		</g>
	</g>
	<g>
		<g>
			<g>
				<path fill="#344A5E" d="M25.3,18.9c0,0,0.4-0.6,0.7-0.6c0.3,0,1.2,0.6,1.2,0.6l-0.6,1L25.3,18.9z"/>
			</g>
		</g>
	</g>
	<g>
		<g>
			<g>
				<g>
					<path fill="#CED6E0" d="M26.4,17.8c0,0-0.3-0.5,0.4-0.6c0.7-0.1,3.2,0.8,3.2,1.2c0,0,0,0.1-0.1,0.2c-0.1,0.1-0.1,0.1-0.1,0.1
						l-3.1-0.3L26.4,17.8z"/>
				</g>
			</g>
		</g>
		<g>
			<g>
				<g>
					<g>
						<path fill="#FFD15C" d="M32.7,15.7c0,0-0.6,0.6-0.8,1.1c-0.2,0.4-0.9,1-1.5,1.3c-0.6,0.3-1,1.4-1,1.4l-3-0.9c0,0,0,0,0.5-0.5
							c0.5-0.5,0.5-1.1,0.6-1.7c0.1-0.6,0.4-1.6,0.6-2.1c0.2-0.5,0.4-0.7,0.4-0.7c-0.1-0.4,0.6-0.3,0.6-0.3c0-0.3,0.5-0.2,0.5-0.2
							l2,0.1l0.2,2.4L32.7,15.7z"/>
					</g>
				</g>
			</g>
		</g>
		<g>
			<g>
				<g>
					<path fill="#F5B54C" d="M30.2,16.5l0.1-0.4l0,0l0,0l0.2-0.4c0,0,0-0.1,0-0.1c0,0,0-0.1,0-0.1s0-0.1,0-0.1c0,0,0-0.1,0-0.1
						l-0.2-0.8l0,0c0,0,0,0,0,0c0,0,0,0,0,0c0,0,0-0.1-0.1-0.1c0,0,0,0-0.1-0.1c0,0,0,0,0,0c0,0,0,0,0,0l0,0c-0.1,0-0.1-0.1-0.2-0.1
						c-0.1,0-0.1-0.1-0.2-0.1c-0.1-0.1-0.3-0.1-0.4-0.2c-0.1-0.1-0.3-0.1-0.4-0.2l0,0c0.1,0,0.3,0.1,0.4,0.1c0.1,0,0.3,0.1,0.4,0.2
						c0.1,0,0.1,0.1,0.2,0.1C30,14,30,14,30.1,14l0,0c0,0,0,0,0,0c0,0,0,0,0.1,0c0,0,0.1,0,0.1,0.1c0,0,0,0.1,0.1,0.1c0,0,0,0,0,0.1
						c0,0,0,0,0,0l0,0l0.2,0.8c0,0,0,0.1,0,0.1c0,0,0,0.1,0,0.1c0,0,0,0.1,0,0.1c0,0,0,0.1,0,0.1L30.3,16l0,0L30.2,16.5L30.2,16.5z"
						/>
				</g>
			</g>
		</g>
		<g>
			<g>
				<g>
					<path fill="#F5B54C" d="M28.3,14.8c0.1,0,0.1,0,0.2,0.1c0.1,0,0.1,0,0.2,0.1c0,0,0.1,0,0.1,0c0,0,0.1,0,0.1,0c0,0,0.1,0,0.1,0
						l0.1,0l0.1,0l0,0c0.1,0,0.2-0.1,0.2-0.1c0,0,0,0,0.1,0c0,0,0,0,0,0c0,0,0,0,0,0c0,0,0,0,0,0l0,0l0,0l0,0l0-0.1l0,0.1
						c0,0.1,0.1,0.2,0.1,0.3c0,0.1,0,0.1,0.1,0.2c0,0,0,0,0,0c0,0,0,0,0,0c0,0,0,0,0,0c0,0,0,0,0,0l0,0l0,0c0,0.1,0,0.1,0,0.2
						c0,0.1,0,0.1,0,0.2c0,0.1,0,0.1,0,0.2s0,0.1,0,0.2c0,0,0,0.1,0,0.1c0,0,0,0.1,0,0.1c0,0,0,0,0,0.1c0,0,0,0,0,0l0,0
						c0,0,0,0,0.1,0c0,0,0.1,0,0.1,0c0,0,0,0,0.1,0c0,0,0,0,0,0c0,0,0,0,0,0l0.1-0.1l0,0.1c0,0,0,0,0,0c0,0,0,0,0,0c0,0,0,0.1,0,0.1
						c0,0,0,0,0,0c0,0,0,0,0,0c0,0,0,0,0,0c0,0,0,0,0,0l0,0c0,0,0,0,0,0c0,0,0,0,0,0l0,0c0,0,0,0,0,0c0,0,0,0,0,0l0,0c0,0,0,0,0,0
						l0,0l0,0l0.2-0.4l0-0.1l0,0l0,0l0-0.1L31,16l0-0.1l0,0.1c0,0,0,0,0,0c0,0,0,0,0,0c0,0,0,0,0.1,0.1c0,0,0,0,0.1,0.1
						c0,0,0,0,0.1,0c0,0,0,0,0,0c0,0,0,0,0,0l0,0c0,0,0,0,0,0c0,0,0,0,0,0l0,0c0,0,0,0,0,0l0,0l0,0c0,0,0,0,0,0l0,0c0,0,0,0,0,0
						c0,0,0,0,0,0l0,0c0,0,0,0,0,0c0,0,0,0,0,0c0,0-0.1,0-0.1,0c0,0,0,0-0.1-0.1c0,0,0,0-0.1-0.1c0,0,0,0,0,0c0,0,0,0,0,0l0.1,0
						L31,16.2l0,0.1l0,0l0,0l0,0.1l-0.1,0.4l0,0l0,0l-0.1,0c0,0,0,0-0.1,0l-0.1,0c0,0,0,0-0.1,0c0,0,0,0,0,0l0,0c0,0,0,0-0.1,0
						c0,0,0,0,0,0l0,0c0,0,0,0,0,0c0,0,0,0,0,0c0,0,0,0,0,0c0,0,0,0,0,0c0,0,0-0.1,0-0.1c0,0,0,0,0,0c0,0,0,0,0-0.1l0.1,0
						c0,0,0,0,0,0c0,0,0,0,0,0c0,0,0,0-0.1,0c0,0-0.1,0-0.1,0c0,0-0.1,0-0.1,0c0,0-0.1,0-0.1,0l0,0c0,0,0,0,0,0c0,0,0-0.1-0.1-0.1
						c0,0,0-0.1,0-0.1c0,0,0-0.1,0-0.1c0-0.1,0-0.1,0-0.2s0-0.1,0-0.2c0-0.1,0-0.1,0-0.2c0-0.1,0-0.1,0.1-0.2l0,0.1c0,0,0,0,0,0
						c0,0,0,0,0,0c0,0,0,0,0,0c0,0,0,0,0,0c0-0.1,0-0.1-0.1-0.2c0-0.1-0.1-0.2-0.1-0.3l0.1,0c0,0,0,0,0,0l0,0c0,0,0,0,0,0
						c0,0,0,0,0,0c0,0,0,0,0,0c0,0,0,0,0,0c0,0,0,0-0.1,0c-0.1,0-0.2,0.1-0.2,0.1l0,0l0,0c0,0,0,0-0.1,0l-0.1,0c0,0-0.1,0-0.1,0
						c0,0-0.1,0-0.1,0c0,0-0.1,0-0.1,0C28.5,14.9,28.4,14.9,28.3,14.8z"/>
				</g>
			</g>
		</g>
		<g>
			<g>
				<g>
					<path fill="#F5B54C" d="M29.4,14.9c0,0-0.1,0-0.1-0.1c-0.1,0-0.2-0.1-0.3-0.2c0,0-0.1-0.1-0.1-0.1c0,0,0,0-0.1-0.1
						c0,0,0,0,0-0.1c0,0,0,0,0-0.1c0,0,0,0,0,0c0,0,0,0,0,0l0,0c0,0,0,0,0,0c0,0,0,0,0,0c0,0,0,0,0,0c0,0,0,0,0,0.1c0,0,0,0,0.1,0.1
						c0,0,0.1,0.1,0.1,0.1c0.1,0.1,0.2,0.1,0.2,0.2C29.4,14.8,29.4,14.9,29.4,14.9L29.4,14.9z"/>
				</g>
			</g>
		</g>
		<g>
			<g>
				<g>
					<path fill="#F5B54C" d="M31.7,17.5c0,0-0.1-0.1-0.1-0.1c0,0-0.1-0.1-0.1-0.1c0,0,0-0.1-0.1-0.2c0,0,0-0.1,0-0.1l0-0.1
						c0-0.1,0-0.2,0-0.3c0-0.1,0-0.2,0-0.3c0-0.1,0-0.2-0.1-0.3c0,0,0-0.1-0.1-0.1c0,0-0.1,0-0.1-0.1c0,0,0,0,0,0c0,0,0,0,0-0.1
						c0,0,0,0,0-0.1c0,0,0,0,0-0.1c0-0.1,0.1-0.1,0.1-0.2c0,0,0.1-0.1,0.2-0.1c0.1,0,0.1,0,0.2,0l0,0.2c0,0,0,0,0,0c0,0,0,0,0,0
						c0,0-0.1,0-0.1,0c0,0-0.1,0-0.1,0c0,0-0.1,0-0.1,0c0,0,0,0,0,0c0,0,0,0,0,0c0,0,0,0,0,0l0,0c0,0,0,0,0,0c0,0,0,0,0,0
						c0,0,0,0,0-0.1l0-0.1l0,0l0,0c0,0,0-0.1,0-0.1l0-0.1c0-0.1,0-0.1,0-0.2c0-0.1,0-0.1,0-0.2c0,0,0,0,0,0c0,0,0,0,0,0c0,0,0,0,0,0
						c0,0,0,0,0,0l0.1,0c-0.1,0-0.1,0-0.2,0c0,0-0.1,0-0.1,0c-0.1,0-0.2,0-0.3,0c0,0,0,0-0.1,0l-0.1,0l0,0l0,0l0,0l0,0l0,0l0,0
						c0,0,0,0,0,0c0,0,0,0,0,0c-0.1-0.1-0.2-0.2-0.2-0.3c0-0.1,0-0.1,0-0.2c0,0,0-0.1,0-0.1c0,0,0,0,0-0.1c0-0.1,0.1-0.2,0.1-0.3
						c0-0.1,0.1-0.2,0.1-0.3c0-0.1,0.1-0.2,0.1-0.3c0,0.1,0,0.2,0,0.3c0,0.1,0,0.2-0.1,0.3c0,0.1,0,0.2-0.1,0.3c0,0,0,0,0,0.1
						c0,0,0,0,0,0.1c0,0,0,0.1,0,0.1c0,0.1,0.1,0.1,0.2,0.2c0,0,0,0,0,0c0,0,0,0,0,0l0,0l0,0l0,0l0,0c0,0,0,0,0,0l0,0l0,0l0,0l0.1,0
						c0,0,0,0,0.1,0c0.1,0,0.2,0,0.3,0c0,0,0.1,0,0.1,0c0,0,0.1,0,0.1,0l0,0l0,0c0,0,0,0,0,0.1c0,0,0,0,0,0.1c0,0,0,0,0,0.1
						c0,0,0,0,0,0c0,0.1,0,0.1,0,0.2c0,0.1,0,0.1,0,0.2c0,0,0,0.1,0,0.1c0,0,0,0.1,0,0.1l0,0c0,0,0,0,0,0c0,0,0,0,0,0c0,0,0,0,0,0
						c0,0,0,0,0,0l0,0c0,0,0,0,0,0c0,0,0,0,0,0c0,0,0,0,0,0c0,0,0,0,0.1,0c0,0,0,0,0.1,0c0,0,0,0,0.1,0c0,0,0,0,0,0c0,0,0,0,0,0
						l0.7,0.2l-0.7,0c0,0-0.1,0-0.1,0c0,0-0.1,0-0.1,0.1c0,0,0,0.1,0,0.1c0,0,0,0,0,0.1c0,0,0,0,0,0l0,0c0,0,0,0,0,0l0,0l0,0
						c0,0,0,0,0,0l0,0l0,0l0,0l0,0c0,0,0,0,0,0c0,0,0.1,0.1,0.1,0.1c0,0,0,0.1,0,0.1c0,0.1,0.1,0.2,0.1,0.3c0,0.1,0,0.2,0,0.3
						c0,0.1,0,0.2,0,0.3l0,0.1c0,0,0,0,0,0.1c0,0,0,0.1,0,0.1c0,0,0,0.1,0.1,0.1C31.6,17.5,31.7,17.5,31.7,17.5z"/>
				</g>
			</g>
		</g>
		<g>
			<g>
				<g>
					<path fill="#FFD15C" d="M39.5,12.5l0.3,1.4l0.9,1.8l-5.5,3.7l-1.1-2.1c0,0-1.5,0.7-2.5,0.2c-0.2-0.1-0.3-0.3-0.3-0.4
						c0-0.4,0-1-0.3-1.1c-0.3-0.1-0.1-0.4,0.2-0.4c0,0-0.5-0.1-0.5-0.4c0,0,0.1-0.5,0-0.7c0,0-0.4,0.1-0.8,0
						c-0.2-0.1-0.3-0.3-0.3-0.5c0.1-0.5,0.5-1.8,0.6-2.1l0.1-0.2c0,0-0.6-0.2-0.7-0.6C29.7,10.8,30,8.4,30,8.4l5.8-0.2
						C35.7,8.2,39.3,9.2,39.5,12.5z"/>
				</g>
			</g>
		</g>
		<g>
			<g>
				<g>
					<path fill="#E8EAE8" d="M27,17.2c0,0-0.6,0.1-0.6,0.3c0.2,0.7,3.2,1.4,3.5,0.9c0,0,0,0.1,0,0.3c-0.1,0.2-0.7,1.5-0.7,1.5
						l-3.5-0.7c0,0,0.4-1.5,0.6-2C26.3,17.5,26.3,17.2,27,17.2z"/>
				</g>
			</g>
		</g>
	</g>
	<g>
		<g>
			<g>
				<path fill="#425A6B" d="M30,21.6c0,0-0.7,0.2-0.9,0.5c-0.2,0.3-0.3,0.8-0.5,1c-0.2,0.2-0.5,0.5-0.5,0.5s0.4-0.7,0.4-0.9
					c0-0.2,1.2-3.5,1.2-3.5S29,19.9,26.1,19c-0.3-0.1-0.4-0.6,0-0.7c0,0,0,0,0,0c0,0-0.5,0.1-0.8,0.6c-0.2,0.5-0.6,2.6-1,3.6
					c-0.4,1-1.1,5.5-1.1,6c0,0,0,0.1,0,0.1c-0.1,0.9,0.7,1.7,1.6,1.7c0,0,0,0,0.1,0c1.3-0.1,3.9-0.7,4.3-1L30,21.6z"/>
			</g>
		</g>
	</g>
	<g>
		<g>
			<g>
				<path fill="#344A5E" d="M33.9,17.9c0,0-1.5,0.7-1.9,1.1c-0.5,0.4-1.6,1.3-2.1,2.5c-0.4,1.2-1.3,8.5-1.2,10.1
					c0.1,1.7-0.3,8.4-2.2,12.8c0,0,0,0,0,0H45c0,0-1.4-5.2-1.3-7.3c0.1-2,3.1-8.7,3.5-9.8c0.4-1,1.1-6.3,0.4-8
					c-0.7-1.7-2.1-0.9-4.8-3.3l-3.5,1.2l-4.2,1L33.9,17.9z"/>
			</g>
		</g>
	</g>
	<g>
		<g>
			<g>
				<path fill="#344A5E" d="M47.1,27.4c0,0.1-0.1,0.3-0.2,0.5l0,0c-0.8,1.9-3.2,7.4-3.2,9.2c-0.1,2,1.3,7.3,1.3,7.3H26.5
					c0,0,0,0,0,0c1.1-2.6,1.8-5.9,2.1-8.6c0.2-1.9,0.3-3.5,0.2-4.2c0-0.3,0-0.8,0-1.4c0.1-2.7,0.8-7.7,1.2-8.7
					c0.4-1.2,1.6-2.1,2.1-2.5c0.5-0.4,1.9-1.1,1.9-1.1l1,0.4l4.2-1l3.5-1.2c2.5,2.1,3.8,1.7,4.6,2.8c0.1,0.1,0.2,0.3,0.3,0.5
					C48.1,21.2,47.4,26.4,47.1,27.4z"/>
			</g>
		</g>
	</g>
	<g>
		<g>
			<path fill="#F5B54C" d="M34.2,17.3l1.1,2.1l0.7-0.5c2.2-3.1,2.4-5.8,2.4-5.8C37.4,15.8,34.2,17.3,34.2,17.3z"/>
		</g>
	</g>
	<g>
		<g>
			<g>
				<path fill="#CED6E0" d="M35.1,18.3h-0.6l-2.2,3.1c0,0-2.7,4.9-2.6,8.8l3.2-5.2l5.2-5.8L35.1,18.3z"/>
			</g>
		</g>
	</g>
	<g>
		<g>
			<g>
				<path fill="#F05640" d="M31.4,27.3c0.3-0.5,0.7-1,1.1-1.5c0.2-0.2,0.4-0.4,0.6-0.7c0.2-0.2,0.3-0.4,0.5-0.6
					c0.3-0.4,0.6-0.9,0.9-1.3c0.2-1.3,0.2-2.7,0.2-2.7l-0.5-0.7l-0.9,0.5c0,0-1.5,2.2-1.6,2.9c-0.1,0.7-0.4,2.2-0.6,3.1
					c-0.2,0.5-0.3,1.4-0.4,1.9C31,27.9,31.2,27.6,31.4,27.3z"/>
			</g>
		</g>
	</g>
	<g>
		<g>
			<g>
				<path fill="#F26F5A" d="M33.4,20.3c0,0,0.9-0.1,1.4,0.2c0,0,1.1-0.7,1.3-1.5l-1-0.7H35l-0.6,0.1C34.4,18.4,33.5,19.5,33.4,20.3z
					"/>
			</g>
		</g>
	</g>
	<g>
		<g>
			<g>
				<path fill="#E8EAE8" d="M39.8,13.9c0,0,0.4-0.1,0.3,0.2c-0.1,0.3-5.1,4.2-5.1,4.2c0.7,0.4,1.2,1.2,1.8,2.1l4.3-4.5
					c0.1-0.1,0.2-0.3,0.1-0.5L40.5,14c0-0.1-0.1-0.2-0.2-0.2C40.2,13.8,40,13.8,39.8,13.9z"/>
			</g>
		</g>
	</g>
	<g>
		<g>
			<g>
				<path fill="#425A6B" d="M41.4,14.7L41.4,14.7c-1.4,0.9-2.6,2-3.6,3.3c-0.8,1-1.7,2.1-2.1,2.6c-0.7,0.9-2.7,3.8-3.1,4.3
					c-0.4,0.5-2.6,4-2.9,5.2c0,0,1.7-2.6,3.1-4.2c1.4-1.6,3.1-3.5,3.6-3.9c0.4-0.4,3.4-3,4.1-3.3L39.9,18l1.3-0.2
					c0,0,1.1-1.5,1.4-1.6C42.6,16.1,41.6,14.9,41.4,14.7z"/>
			</g>
		</g>
	</g>
	<g>
		<g>
			<g>
				<g>
					<path fill="#425A6B" d="M29,8.3c0.1,0.3,0.4,0.6,0.8,0.7c0,0,1.9,0,2.7-0.3c0.9-0.3,0.4,0.6,0.3,1.1c-0.1,0.6,0.7,0.7,1.5,1.1
						l0.8,1.9l0.8-0.1c0,0-0.1-1.7,1.3-2.3c1.4-0.5,1.5,2.5,2.6,3.5c0,0,0-1.2,0.2-1.6c0.1-0.3,0.6-5.7-1-7.4
						c-1.6-1.8-4.5-1.5-6.1-0.6C31.6,5,30.1,6,29.3,6.8C28.9,7.2,28.8,7.8,29,8.3z"/>
				</g>
			</g>
		</g>
	</g>
	<g>
		<g>
			<g>
				<ellipse transform="matrix(0.9711 0.2386 -0.2386 0.9711 3.8639 -8.493)" fill="#FFD15C" cx="37" cy="11.7" rx="1" ry="1.7"/>
			</g>
		</g>
	</g>
	<g>
		<g>
			<g>
				<path fill="#E8EAE8" d="M35.1,18.3c0,0-1,0.3-1.5,1.5l0.7-2.3C34.3,17.5,34.8,18.1,35.1,18.3z"/>
			</g>
		</g>
	</g>
	<g>
		<g>
			<g>
				<path fill="#425A6B" d="M34.3,17.5c-0.3,0.5-0.8,0.8-1.3,1.1l0.1,0.3l-0.6,0.2c0,0-1.6,2.3-2.1,4.3c-0.8,2.9-0.6,6.7-0.6,6.7
					s0.6-2,0.9-4.4c0.2-1.4,1.3-3.3,2.2-4.5C33.5,20,34,18.8,34.3,17.5L34.3,17.5z"/>
			</g>
		</g>
	</g>
	<g>
		<g>
			<g>
				<path fill="#344A5E" d="M28.2,23.5C28.2,23.5,28.2,23.6,28.2,23.5c0,0.1,0,0.2-0.1,0.3c0,0.2-0.1,0.4-0.2,0.6
					c-0.1,0.2-0.2,0.4-0.3,0.6c0,0.1-0.1,0.1-0.1,0.2c0,0,0,0.1,0,0.1s0,0,0-0.1c0-0.1,0-0.1,0-0.2c0-0.2,0.1-0.4,0.2-0.6
					c0.1-0.2,0.2-0.4,0.3-0.6C28.1,23.7,28.1,23.6,28.2,23.5C28.2,23.6,28.2,23.5,28.2,23.5z"/>
			</g>
		</g>
	</g>
	<g>
		<g>
			<g>
				<path fill="#344A5E" d="M27.8,24.5C27.8,24.5,27.8,24.6,27.8,24.5c0.1,0.1,0.2,0.1,0.2,0.2c0,0,0.1,0.1,0.1,0.1c0,0,0,0,0.1,0.1
					c0,0,0,0.1,0.1,0.1c0,0,0,0.1,0.1,0.1c0,0,0,0.1,0.1,0.1c0,0.1,0.1,0.1,0.1,0.2c0,0,0,0.1,0,0.1c0,0,0,0.1,0,0.1
					c0,0.1,0.1,0.2,0.1,0.2c0,0.1,0,0.2,0.1,0.2c0,0.1,0,0.2,0,0.2c0,0.1,0,0.1,0,0.2c0,0.1,0,0.1,0,0.2c0,0.1,0,0.1,0,0.1
					c0,0.1,0,0.1,0,0.1l0,0c0,0,0,0,0-0.1c0,0,0-0.1,0-0.1c0,0,0-0.1,0-0.1c0,0,0-0.1,0-0.1c0,0,0-0.1,0-0.1c0,0,0-0.1,0-0.1
					c0-0.1,0-0.1,0-0.2c0-0.1,0-0.1,0-0.2c0-0.1,0-0.2-0.1-0.2c0,0,0-0.1,0-0.1c0,0,0-0.1,0-0.1c0-0.1-0.1-0.1-0.1-0.2
					c0,0,0-0.1-0.1-0.1c0,0,0-0.1-0.1-0.1c0,0,0-0.1-0.1-0.1c0,0,0-0.1-0.1-0.1c0,0-0.1-0.1-0.1-0.1C27.9,24.7,27.9,24.7,27.8,24.5
					C27.8,24.6,27.8,24.6,27.8,24.5L27.8,24.5z"/>
			</g>
		</g>
	</g>
	<g>
		<g>
			<g>
				<g>
					<path fill="#FFD15C" d="M26.1,33.1C26.1,33.1,26.1,33.1,26.1,33.1c-0.3,0-1.4,0-1.7,0.1c-0.3,0.2-1.5,0.4-2.1,0.4
						c0,0-0.8,0.1-1.3,0.2c-0.5,0.1-1.5,0.4-1.7,0.4c-0.3,0-1,0.1-1.2-0.2c-0.2-0.3,0-0.5,0.4-0.5c0.4,0,0.7,0,0.9-0.1
						c0.2-0.1,1.3-0.4,1.3-0.4l0-0.1c0,0-0.7,0.1-0.9,0.2c-0.2,0.1-0.8,0.2-1.1,0.3c-0.3,0-1.3,0.3-1.3,0.3l-0.2-0.9
						c0,0,0.8-0.2,1.2-0.3c0.4-0.1,0.5-0.2,0.8-0.3c0.3,0,0.9-0.2,0.9-0.2v-0.1c0,0-1.3,0.1-1.7,0.3c-0.5,0.1-0.9,0.3-0.9,0.3
						L17,31.6l-0.4-1c0,0,0.9-0.5,1.5-0.7c0.7-0.2,1.2-0.3,1.5-0.5c0.3-0.2,1.1-0.4,1.5-0.4c0.4,0,0.4,0,0.4,0s0.2-0.1,0.9-0.2
						c0.6,0,1.6,0.1,2.2,0.3c0.6,0.2,1.6,0.8,2.5,0.9c1,0.2,1,0.2,1,0.2L26.1,33.1"/>
				</g>
			</g>
		</g>
		<g>
			<g>
				<g>
					<path fill="#E8EAE8" d="M25.3,29.4c0,0-0.9,3.2-0.7,4.5c0,0,0.1,0.2,0.4,0.4c0.3,0.2,2.4,0.3,2.4,0.3l0.4-4.4L25.3,29.4z"/>
				</g>
			</g>
		</g>
		<g>
			<g>
				<g>
					<path fill="#F5B54C" d="M17,31.6c0,0,0.2-0.1,0.4-0.3c0.1,0,0.1-0.1,0.2-0.1c0,0,0.1,0,0.1-0.1c0,0,0,0,0.1,0l0,0l0,0l0,0l0,0
						c0,0,0,0,0.1,0c0,0,0,0,0.1,0c0,0,0.1,0,0.1,0c0.1,0,0.2,0,0.3-0.1c0.1,0,0.2,0,0.3,0c0.1,0,0.2,0,0.3,0c0.1,0,0.2,0,0.2,0
						c0.1,0,0.1,0,0.2,0c0.1,0,0.3,0,0.3,0c0.1,0,0.1,0,0.1,0s0,0-0.1,0c-0.1,0-0.2,0-0.3,0.1c0,0-0.1,0-0.1,0c0,0,0,0-0.1,0
						c0,0,0,0-0.1,0c-0.1,0-0.2,0-0.3,0c-0.1,0-0.2,0-0.3,0c-0.1,0-0.2,0-0.3,0c-0.1,0-0.2,0-0.3,0c0,0,0,0-0.1,0c0,0,0,0-0.1,0
						c0,0,0,0-0.1,0c0,0,0,0-0.1,0c-0.1,0-0.2,0.1-0.2,0.1c-0.1,0-0.1,0.1-0.2,0.1C17.2,31.5,17,31.6,17,31.6z"/>
				</g>
			</g>
		</g>
	</g>
	<g>
		<g>
			<g>
				<path fill="#425A6B" d="M47.1,27.3C47.1,27.3,47.1,27.3,47.1,27.3c0,0,0,0.1,0,0.1c0,0.1-0.1,0.3-0.2,0.5l0,0c0,0-3.3,5.2-3.7,6
					c-0.4,0.8-2.8,3.1-2.8,3.1s-0.7,1.1-3.2,0.4c-1.7-0.4-5.8-1.3-8.6-1.8c-1.3-0.2-2.4-0.4-2.7-0.4c0,0-0.9-4,1-5.7
					c0,0,1,0.3,1.9,0.5c0.8,0.2,1.5,0.4,1.7,0.4c0.5,0.1,2.1,0.7,3.2,0.7c1.2,0,3.6,0.1,3.6,0.1s0.1-1.2,0.6-1.8c0,0,0.2-1,0.5-1.5
					c0.3-0.5,0.3-1,0.5-1.4c0.2-0.4,0.7-1.7,0.8-2c0,0,1.5-7.3,6.1-6.3c1.1,0.2,1.9,1.1,2.1,2.1C48.1,21.8,48.1,24,47.1,27.3z"/>
			</g>
		</g>
	</g>
	<g>
		<g>
			<g>
				<g>
					<path fill="#425A6B" d="M14.3,22.3c0,0-0.1,0.1-0.2,0.3c-0.1,0.2-0.2,0.4-0.4,0.8c-0.1,0.2-0.1,0.3-0.2,0.5
						c0,0.1-0.1,0.2-0.1,0.3c0,0.1-0.1,0.2-0.1,0.3c-0.1,0.2-0.1,0.4-0.1,0.7c0,0.2,0,0.5,0,0.7c0,0.1,0,0.2,0.1,0.3l0,0.1l0,0.1
						c0,0.1,0,0.1,0.1,0.2c0.1,0.2,0.2,0.4,0.3,0.6c0.1,0.2,0.2,0.4,0.3,0.6c0.1,0.2,0.2,0.3,0.3,0.5c0.3,0.6,0.6,1,0.6,1
						s-0.2-0.4-0.6-1c-0.1-0.2-0.2-0.3-0.3-0.5c-0.1-0.2-0.2-0.4-0.3-0.6c-0.1-0.2-0.2-0.4-0.3-0.6c0-0.1,0-0.1-0.1-0.2l0-0.1l0-0.1
						c0-0.1-0.1-0.2-0.1-0.4c0-0.2,0-0.5,0-0.7c0-0.2,0.1-0.5,0.1-0.7c0-0.1,0.1-0.2,0.1-0.3c0-0.1,0.1-0.2,0.1-0.3
						c0.1-0.2,0.1-0.4,0.2-0.5c0.1-0.3,0.3-0.6,0.4-0.8c0.1-0.2,0.1-0.3,0.1-0.3L14.3,22.3z"/>
				</g>
			</g>
		</g>
		<g>
			<g>
				<g>
					<path fill="#425A6B" d="M12.2,13C12.2,13,12.2,13,12.2,13c0.1,0.1,0.1,0.1,0.2,0.2c0.1,0.1,0.1,0.1,0.2,0.2
						c0.1,0.1,0.2,0.2,0.2,0.3c0.1,0.1,0.2,0.2,0.3,0.3c0.1,0.1,0.2,0.2,0.3,0.4c0.2,0.3,0.4,0.6,0.6,0.9c0.1,0.1,0.2,0.3,0.3,0.5
						c0.1,0.2,0.2,0.3,0.3,0.5c0.1,0.2,0.1,0.3,0.2,0.4c0.1,0.1,0.1,0.3,0.1,0.4c0,0.1,0,0.1,0.1,0.2c0,0.1,0,0.1,0,0.2
						c0,0.1,0,0.1,0,0.2c0,0,0,0.1,0,0.1c0,0.1,0,0.1,0,0.2c0,0,0,0.1,0,0.1s0,0,0-0.1c0,0,0-0.1,0-0.2c0,0,0-0.1,0-0.1
						c0,0,0-0.1,0-0.1c0-0.1,0-0.1,0-0.2c0-0.1,0-0.1-0.1-0.2c0-0.1-0.1-0.3-0.2-0.4c-0.1-0.1-0.1-0.3-0.2-0.4
						c-0.1-0.1-0.2-0.3-0.3-0.4c-0.1-0.1-0.2-0.3-0.3-0.4c-0.2-0.3-0.4-0.6-0.6-0.8c-0.1-0.1-0.2-0.3-0.3-0.4
						c-0.1-0.1-0.2-0.2-0.3-0.3c-0.1-0.1-0.2-0.2-0.3-0.3c-0.1-0.1-0.1-0.1-0.2-0.2c-0.1-0.1-0.1-0.1-0.1-0.1c0,0,0,0,0,0L12.2,13z"
						/>
				</g>
			</g>
		</g>
		<g>
			<g>
				<g>
					<path fill="#425A6B" d="M13.4,15.1C13.4,15.1,13.4,15.1,13.4,15.1c0.1,0,0.1,0,0.2,0.1c0.1,0,0.3,0.1,0.4,0.2
						c0.1,0,0.2,0.1,0.3,0.2c0.1,0.1,0.2,0.1,0.3,0.2c0,0,0.1,0.1,0.1,0.1c0,0,0.1,0.1,0.1,0.1c0,0,0,0,0.1,0.1c0,0,0,0,0.1,0.1
						c0,0,0.1,0.1,0.1,0.2c0,0.1,0.1,0.1,0.1,0.2c0,0.1,0.1,0.1,0.1,0.2c0,0.1,0.1,0.1,0.1,0.2c0,0.1,0.1,0.1,0.1,0.2
						c0,0.1,0,0.1,0.1,0.2c0,0.1,0,0.1,0.1,0.2c0,0.1,0,0.1,0,0.2c0,0,0,0.1,0,0.1c0,0.1,0,0.2,0.1,0.3c0,0.1,0,0.1,0,0.2
						c0,0.1,0,0.2,0,0.2s0-0.1,0-0.2c0-0.1,0-0.1,0-0.2c0-0.1,0-0.2-0.1-0.2c0,0,0-0.1,0-0.1c0,0,0-0.1-0.1-0.1c0,0,0-0.1-0.1-0.2
						c0-0.1,0-0.1-0.1-0.2c0-0.1-0.1-0.1-0.1-0.2c0-0.1-0.1-0.1-0.1-0.2c0-0.1-0.1-0.1-0.1-0.2c0,0-0.1-0.1-0.1-0.1
						c0,0-0.1-0.1-0.1-0.1c0,0,0,0-0.1-0.1c0,0,0,0-0.1-0.1c0,0-0.1-0.1-0.1-0.1c0,0-0.1-0.1-0.1-0.1c-0.1-0.1-0.2-0.1-0.3-0.2
						c-0.1-0.1-0.2-0.1-0.3-0.1c-0.2-0.1-0.3-0.1-0.4-0.2c-0.1,0-0.1,0-0.1,0c0,0,0,0,0,0L13.4,15.1z"/>
				</g>
			</g>
		</g>
		<g>
			<g>
				<g>
					<path fill="#425A6B" d="M16,18.3c0,0,0.5,1,1,2c0.1,0.1,0.1,0.2,0.2,0.4c0.1,0.1,0.1,0.2,0.2,0.4c0.1,0.1,0.1,0.2,0.1,0.3
						c0,0.1,0.1,0.2,0.1,0.3c0,0.2,0,0.4,0,0.5c0,0.1,0,0.1,0,0.1c0,0,0,0,0,0s0,0,0,0c0,0,0-0.1,0-0.1c0-0.1,0-0.3,0-0.5
						c0-0.1,0-0.2-0.1-0.3c0-0.1-0.1-0.2-0.1-0.3c-0.1-0.1-0.1-0.2-0.2-0.4c-0.1-0.1-0.1-0.2-0.2-0.4c-0.5-1-1.1-1.9-1.1-1.9
						L16,18.3z"/>
				</g>
			</g>
		</g>
		<g>
			<g>
				<g>
					<path fill="#425A6B" d="M17.2,23C17.2,23,17.2,23,17.2,23c0,0.1,0,0.1,0,0.1c0,0.1,0,0.2,0,0.3c0,0.1,0,0.3,0.1,0.4
						c0,0,0,0,0,0.1l0,0l0,0l0,0l0,0c0,0,0,0.1,0.1,0.1c0,0.1,0.1,0.1,0.2,0.2c0.1,0.1,0.1,0.1,0.2,0.2c0,0,0,0,0.1,0c0,0,0,0,0.1,0
						c0,0,0,0,0.1,0c0,0,0,0,0.1,0c0.2,0,0.3,0,0.4,0c0,0,0.1,0,0.1,0c0,0,0.1,0,0.1,0c0.1,0,0.1,0,0.1-0.1c0,0,0,0,0,0c0,0,0,0,0,0
						c0,0,0,0,0,0s0,0,0,0c0,0,0,0,0,0c0,0,0,0,0,0c0,0-0.1,0-0.1,0.1c0,0-0.1,0-0.1,0c0,0-0.1,0-0.1,0c-0.1,0-0.3,0-0.5,0
						c0,0,0,0-0.1,0c0,0,0,0-0.1,0c0,0,0,0-0.1,0c0,0,0,0-0.1,0c-0.1,0-0.2-0.1-0.2-0.2c-0.1-0.1-0.1-0.1-0.2-0.2
						c0,0-0.1-0.1-0.1-0.1l0,0l0,0l0,0l0,0c0,0,0,0,0-0.1c-0.1-0.2-0.1-0.3-0.1-0.5c0-0.1,0-0.3,0-0.3c0,0,0-0.1,0-0.1c0,0,0,0,0,0
						L17.2,23z"/>
				</g>
			</g>
		</g>
		<g>
			<g>
				<g>
					<path fill="#425A6B" d="M13.6,25.4c0,0,0,0.1,0.1,0.2c0.1,0.1,0.2,0.3,0.3,0.5c0.1,0.2,0.2,0.5,0.4,0.8
						c0.1,0.1,0.1,0.3,0.2,0.4c0.1,0.2,0.1,0.3,0.2,0.5c0,0.2,0.1,0.3,0.1,0.5c0,0.2,0.1,0.3,0.1,0.5c0,0.2,0,0.3,0,0.4
						c0,0.1,0,0.3,0,0.4c0,0.1,0,0.1,0,0.2c0,0.1,0,0.1,0,0.2c0,0,0,0.1,0,0.1c0,0,0,0.1,0,0.1c0,0.1,0,0.1,0,0.2c0,0,0,0.1,0,0.1
						s0,0,0-0.1c0,0,0-0.1,0-0.2c0,0,0-0.1,0-0.1c0,0,0-0.1,0-0.1c0,0,0-0.1,0-0.2c0-0.1,0-0.1,0-0.2c0-0.1,0-0.3,0-0.4
						c0-0.1,0-0.3,0-0.4c0-0.1-0.1-0.3-0.1-0.5c0-0.2-0.1-0.3-0.1-0.5c-0.2-0.6-0.5-1.2-0.7-1.6c-0.1-0.2-0.2-0.4-0.3-0.5
						c-0.1-0.1-0.1-0.2-0.1-0.2L13.6,25.4z"/>
				</g>
			</g>
		</g>
		<g>
			<g>
				<g>
					<path fill="#425A6B" d="M5.6,20.4C5.6,20.4,5.6,20.4,5.6,20.4c0,0.1,0,0.1,0,0.2c0,0,0,0,0,0.1c0,0,0,0,0,0.1c0,0,0,0.1,0,0.1
						c0,0.1,0,0.1,0,0.2c0,0.1,0,0.1,0.1,0.2c0,0,0,0.1,0,0.1c0,0,0,0.1,0,0.1c0,0,0,0.1,0,0.1c0,0,0,0.1,0,0.1
						C6,21.7,6,21.8,6,21.9c0,0.1,0.1,0.2,0.1,0.3c0,0,0,0.1,0.1,0.1c0,0,0.1,0.1,0.1,0.1c0,0,0.1,0.1,0.1,0.1c0,0,0.1,0.1,0.1,0.1
						c0.1,0.1,0.1,0.2,0.2,0.3c0,0,0.1,0.1,0.1,0.1c0,0,0.1,0.1,0.1,0.1L7,23.3l0.1,0.1l0.1,0.1l0.1,0.1l0.1,0.1
						c0,0,0.1,0.1,0.1,0.1c0,0,0.1,0.1,0.1,0.1C7.8,24,8,24.1,8.1,24.2c0.2,0.1,0.3,0.3,0.4,0.5c0,0,0,0,0,0.1c0,0,0,0,0,0.1
						c0,0,0,0.1,0.1,0.1c0,0.1,0.1,0.2,0.1,0.2c0.1,0.2,0.1,0.3,0.1,0.5c0,0.1,0,0.3,0,0.4c0,0.1,0,0.2,0,0.2c0,0.1,0,0.1,0,0.1
						s0,0,0-0.1c0-0.1,0-0.1,0-0.2c0-0.1,0-0.2,0-0.3c0-0.1-0.1-0.3-0.1-0.4c0-0.1-0.1-0.2-0.1-0.2c0,0,0-0.1-0.1-0.1c0,0,0,0,0-0.1
						c0,0,0,0,0-0.1c-0.1-0.1-0.3-0.3-0.4-0.4c-0.2-0.1-0.3-0.2-0.5-0.4c0,0-0.1-0.1-0.1-0.1c0,0-0.1-0.1-0.1-0.1
						c0,0-0.1-0.1-0.1-0.1l-0.1-0.1L7,23.6l-0.1-0.1l-0.1-0.1c0,0-0.1-0.1-0.1-0.1c0,0-0.1-0.1-0.1-0.1c-0.1-0.1-0.1-0.2-0.2-0.3
						c0,0-0.1-0.1-0.1-0.1c0,0-0.1-0.1-0.1-0.1c0,0-0.1-0.1-0.1-0.1c0,0-0.1-0.1-0.1-0.1c-0.1-0.1-0.1-0.2-0.2-0.3
						c0-0.1-0.1-0.2-0.1-0.3c0,0,0-0.1-0.1-0.1c0,0,0-0.1-0.1-0.1c0,0,0-0.1-0.1-0.1c0,0,0-0.1,0-0.1c0-0.1-0.1-0.1-0.1-0.2
						c0-0.1,0-0.1-0.1-0.2c0-0.1,0-0.1,0-0.2c0,0,0,0,0-0.1c0,0,0,0,0-0.1c0,0,0-0.1,0-0.1c0-0.1,0-0.1,0-0.1L5.6,20.4z"/>
				</g>
			</g>
		</g>
	</g>
</g>
</svg>
