<?xml version="1.0" encoding="utf-8"?>
<!-- Generator: Adobe Illustrator 18.0.0, SVG Export Plug-In . SVG Version: 6.00 Build 0)  -->
<!DOCTYPE svg PUBLIC "-//W3C//DTD SVG 1.1//EN" "http://www.w3.org/Graphics/SVG/1.1/DTD/svg11.dtd">
<svg version="1.1" id="Layer_1" xmlns="http://www.w3.org/2000/svg" xmlns:xlink="http://www.w3.org/1999/xlink" x="0px" y="0px"
	 viewBox="0 0 48 48" enable-background="new 0 0 48 48" xml:space="preserve">
<g>
	<g>
		<g>
			<path fill="#415A6B" d="M19.1,44.9C20,46.7,21.9,48,24,48s4-1.3,4.9-3.1H19.1z"/>
		</g>
		<g>
			<g>
				<g>
					<circle fill="#8AD7F8" cx="24" cy="16.6" r="16.6"/>
					<g>
						<path fill="#F3F3F3" d="M36,6.1c0,0,0,0.1,0,0.1c0,0,0,0.1,0,0.1c0,0.1,0,0.1,0,0.1c0,0,0,0.1,0.1,0.1
							c-0.1-0.1-0.2-0.1-0.3-0.2c-0.2-0.1-0.2-0.1-0.4,0c-0.1,0.1-0.3,0.2-0.4,0.3c0,0-0.1,0-0.1,0.1C34.8,6.9,34.8,7,34.7,7
							c-0.1,0.1-0.2,0.2-0.2,0.3c0,0.1-0.1,0.1-0.1,0.2c-0.1,0-0.1,0.1-0.2,0.1c-0.2,0-0.3,0.1-0.5,0c-0.1,0-0.1,0-0.2,0
							c-0.1,0-0.2,0.2-0.3,0.2c-0.2,0.1-0.2,0.3-0.3,0.4c-0.1,0.1-0.1,0.2-0.1,0.3c0,0.1-0.1,0.2-0.2,0.2c0,0,0,0-0.1,0.1
							C32.3,9,32.2,9,32.1,9.1c-0.2,0.1-0.4,0.3-0.4,0.6c0,0.1,0,0.1,0.1,0.2c0.1,0,0.2,0.1,0.2,0.2c0,0,0.1,0.1,0.1,0.1
							c0.1,0.1,0.1,0.1,0.2,0.2c0.1,0,0.2,0.1,0.3,0.1c0.1,0,0.1,0.1,0.2,0.1c0,0.1,0.1,0.1,0.1,0.2c0.1,0.1,0.1,0.1,0.2,0.1
							c0.1,0.1,0.2-0.1,0.3-0.1c0,0,0,0,0,0.1c0,0,0,0,0,0c-0.1,0-0.1,0.1-0.2,0.1c0,0,0.1,0.1,0.2,0.1c0.1,0,0.1,0,0.2,0.1
							c0,0-0.1,0-0.1,0c-0.1,0-0.2,0.1-0.1,0.2c0,0,0,0,0,0.1c0,0.1,0,0.2,0.1,0.3c0.1,0.2,0.2,0.3,0.4,0.4c0.1,0,0.2,0,0.3,0.2
							c0,0,0,0,0.1,0c0,0,0,0,0,0.1c0,0.2,0.1,0.2,0.2,0.3c0,0.1,0,0.2,0.1,0.2c0.1,0,0.1,0.1,0,0.2c0.1,0,0.2,0,0.3,0
							c0.1,0,0.1,0,0.2,0c0.1,0,0.1,0.1,0.2,0.1c0.1,0,0.1,0,0.1,0.1c0,0,0,0,0,0c0,0,0.1,0.1,0.2,0.1c0,0,0,0,0-0.1c0,0,0,0,0,0
							c0.2,0,0.2,0,0.2-0.2c0,0,0-0.1,0.1-0.1c0,0,0,0,0,0c0,0,0,0.1,0,0.1c0,0.1-0.1,0.1-0.1,0.2c0,0,0,0,0,0c0,0-0.1,0-0.1,0
							c0,0.1,0.1,0.1,0.1,0.1c0.1,0,0.2,0,0.2,0c0.1,0,0.2,0,0.2,0c0,0,0.1,0,0.1-0.1c0,0,0.1-0.1,0.1-0.1c0,0,0.1-0.1,0.1-0.1
							c0,0,0.1,0.1,0.1,0.1c0.1,0.1,0.1,0.1,0.3,0.1c0.1,0,0.2,0,0.3,0.1c0.1,0.1,0.1,0.2,0.1,0.3c0,0.1,0,0.1,0,0.2
							c0,0.1-0.1,0.2-0.1,0.3c-0.1,0.1-0.1,0.2,0.1,0.3c0.1,0.1,0.3,0.1,0.4,0.1l0.2,0.1c-0.1,0.1-0.2,0.2-0.3,0.4
							c-0.1,0.1-0.1,0.2-0.2,0.3c0,0,0,0.1,0,0.1c0.1,0,0.1,0.1,0.2,0.1c0.2,0,0.3,0,0.4-0.2c0,0,0,0,0,0c0.1,0,0.1-0.1,0.2-0.1
							c0.1,0,0.2,0,0.2,0c0.1,0,0.2,0.1,0.3,0.2c0.1,0.2,0.1,0.4,0,0.6c0,0,0,0.1,0,0.2c0,0.1,0,0.1-0.1,0.2c0,0,0,0,0,0.1
							c0,0,0,0.1,0,0.1c0,0.1-0.1,0.2-0.1,0.2c-0.1,0-0.1,0-0.1,0.1c-0.1-0.1-0.2,0-0.2,0.1c0,0-0.1,0-0.1,0c-0.1,0-0.3,0-0.3-0.1
							c-0.1-0.1-0.2-0.1-0.3-0.2c0,0.1,0,0.1,0,0.2c0,0,0.1,0,0.1,0c0,0-0.1,0-0.1,0c-0.1,0-0.2-0.1-0.3-0.1c-0.1,0-0.1-0.1-0.2-0.1
							c0,0-0.1-0.1-0.1-0.1c-0.1,0-0.2-0.1-0.2-0.3c0-0.1,0-0.2,0-0.2c0-0.1-0.1-0.2-0.1-0.3c-0.1,0-0.1,0-0.2,0.1
							c0,0.1,0,0.1,0,0.2c0,0.2,0,0.3,0,0.5c0,0.1-0.2,0.3-0.2,0.3c-0.1,0-0.2,0.1-0.2,0.1c0,0,0,0-0.1,0c-0.1,0-0.2,0.1-0.4,0.1
							c0,0,0,0.1,0,0.1c0,0-0.1,0-0.1,0c0,0,0,0,0,0c0,0,0.1,0,0.1,0.1c0,0-0.1,0-0.1,0c0,0.1,0,0.2,0,0.4c0,0,0,0,0,0
							c0,0.1-0.1,0.1-0.1,0.2c0-0.1,0-0.1,0-0.2c0-0.1,0-0.1,0-0.2c-0.1,0.1-0.2,0.2-0.2,0.3c0,0,0-0.1,0-0.1
							c-0.1,0.1-0.2,0.1-0.2,0.2c-0.1,0-0.2,0-0.3,0c0,0,0,0,0,0c0,0,0.1,0,0.1,0c0,0,0,0,0,0c-0.1,0-0.3,0-0.4,0c0,0.1,0,0.1,0,0.2
							c-0.1,0.1-0.1,0.2-0.2,0.2c0,0-0.1,0-0.1,0.1c-0.1-0.1-0.2,0-0.3,0c0,0,0,0,0,0c-0.1,0-0.2,0-0.3,0c0,0,0,0,0-0.1
							c0,0,0.1,0,0.1,0c0.1,0,0.1-0.2,0-0.2c-0.2,0.2-0.4,0.1-0.6,0.2c0,0,0,0,0,0.1l0,0l0,0l0,0c0.1,0,0.1,0.1,0.2,0.1
							c0.1,0,0.2,0.2,0.2,0.2c0,0.1,0,0.2-0.1,0.2c0.1,0,0.1,0.1,0.2,0.1c0,0,0,0,0,0c0,0-0.1,0-0.1,0c-0.1,0-0.2,0-0.2,0.1
							c0,0.1,0,0.1,0.1,0.1c0.1,0,0.2,0.1,0.3,0c0.1,0,0.3-0.1,0.4-0.1c-0.1,0.1-0.3,0.2-0.4,0.2c0,0,0,0-0.1,0c0,0-0.1,0-0.1,0
							c-0.1,0-0.1,0.1-0.2,0.1c-0.2,0-0.4-0.1-0.6-0.2c-0.1,0-0.2-0.1-0.3,0c-0.1,0.1-0.2,0.1-0.4,0.1c-0.1,0-0.2,0-0.2,0.2
							c0,0,0,0.1,0,0.1c0,0,0,0.1,0,0.1c0,0,0.1,0,0.1,0.1c0,0,0,0.1,0,0.1c0.1,0,0.1,0,0.2,0c0,0,0,0.1,0,0.1c-0.1,0-0.1,0-0.2,0
							l0,0c0.1,0.1,0.2,0.2,0.3,0.3c0,0.1,0,0.1,0.1,0.1c0,0,0,0,0,0c0,0.1,0.1,0.1,0.1,0.2c0,0-0.1,0.1-0.1,0.1c0,0.1,0,0.1,0,0.2
							c0,0,0,0.1,0,0.1c0,0,0,0,0.1,0c0,0,0,0,0,0c0,0,0.1,0,0.1,0c0,0,0,0.1,0,0.1c0,0.1,0,0.1,0,0.2c0,0.1,0,0.2,0,0.3
							c0,0,0,0,0,0.1c0,0,0.1-0.1,0.1-0.1c0-0.1,0.1-0.1,0.1-0.2c0,0,0.1,0,0.1,0c0.1,0,0.1-0.1,0.2-0.1c0,0.1,0.1,0.2,0.1,0.2
							c0.1,0,0.1,0,0.2,0c0,0-0.1,0-0.1,0.1c0,0.1-0.1,0.2,0.1,0.3c0,0-0.1,0-0.1,0L32.9,22c0,0,0.1,0,0.1,0c0,0,0.1,0.1,0.1,0.1
							c0.1,0,0.1,0.1,0.1,0.1c0,0.1,0,0.1,0,0.2c0,0.1,0.1,0.2,0.2,0.2c0.1,0,0.1,0,0.2,0c0,0,0.1,0.1,0.1,0.1c0,0,0.1,0,0.1,0
							c0.1,0,0.1-0.1,0-0.2c0.2-0.1,0.1-0.3,0.2-0.4c0-0.1,0.1-0.2,0.2-0.2c0.1,0,0.1-0.1,0.1-0.1c-0.1-0.1-0.1-0.2-0.1-0.4
							c0-0.1,0-0.2,0-0.3l-0.1,0c0,0,0,0,0,0c0,0,0.1,0,0.1,0c0.1-0.1,0.2-0.1,0.3-0.2c0,0,0.1,0,0.1-0.1l0,0c0-0.2,0-0.4,0-0.6
							c0,0,0.1,0,0.1-0.1c0,0,0-0.1,0-0.1c0.1,0,0.1,0.1,0.1,0c0,0,0.1,0,0.1,0.1c0,0.1,0,0.2,0.1,0.2c0,0,0,0.1,0,0.1
							c0,0.1,0,0.1,0,0.1c0,0.1-0.1,0.3-0.1,0.4c0.1,0,0.1,0.1,0.2,0.1c0.1,0,0.1,0,0.2,0.1c0,0.1,0.1,0.1,0.2,0.2c0,0,0,0,0.1,0.1
							c0.1,0.2,0.3,0.4,0.5,0.4c0,0.1,0,0.2,0,0.3c0,0.1,0,0.1,0.1,0.2c0,0,0.1,0.1,0.1,0.1c-0.1,0.1-0.1,0.3-0.2,0.4
							c0,0.1-0.1,0.1-0.1,0.2c-0.2,0-0.3,0.2-0.4,0.3c-0.1,0-0.1,0-0.2,0c0,0,0,0.1-0.1,0.2c-0.1,0-0.1,0-0.1,0c0,0.1-0.1,0.1-0.1,0
							c0,0-0.1,0-0.2,0c-0.1,0.1-0.2,0.2-0.2,0.3c0.2,0.1,0.3,0.1,0.3,0.3c-0.1-0.1-0.1-0.1-0.2-0.2c0,0,0-0.1-0.1-0.1
							c-0.1,0-0.3,0.1-0.3,0.2c0,0,0,0,0,0.1c0,0,0,0,0,0.1c0,0,0,0-0.1,0c0,0-0.1,0-0.1,0c0.1-0.2-0.1-0.1-0.2-0.2
							c0,0.1,0,0.1,0,0.2c0-0.1-0.1-0.1-0.1-0.1c-0.1,0.1-0.2,0.1-0.3,0.2c0,0,0,0.1,0,0.1c0,0.1,0,0.2,0,0.3c-0.1,0-0.2,0-0.1,0.1
							c0,0,0,0-0.1,0.1c0.1,0.1,0.2,0.1,0.1,0.2c0,0,0,0,0,0.1c0.1,0,0.2,0.1,0.3,0.1c0-0.1,0.1-0.2,0-0.3c0,0,0-0.1,0.1-0.1
							c0,0,0.1,0,0.1,0c0.1-0.1,0.2-0.2,0.2-0.3c0-0.1,0.1-0.1,0.2-0.1c0,0.1,0,0.1,0.1,0.2c0,0.1,0,0.1-0.1,0.2c0,0,0,0,0,0
							c0,0.1,0,0.2,0,0.3c0,0.1,0.1,0.1,0.1,0c0,0,0-0.1,0.1-0.1c0,0,0.1-0.1,0.1-0.2c0,0.1,0,0.2,0,0.3c0,0,0,0.1,0,0.1
							c0,0,0,0.1,0,0.1c0,0,0.1,0.1,0.1,0.1c0,0.1-0.1,0.1-0.1,0.2c0,0,0,0-0.1,0c0,0.1,0.1,0.2,0.1,0.2c0,0.1,0,0.2,0,0.2
							c0,0,0,0,0,0.1c0,0.1,0,0.1,0,0.2c0,0,0,0,0,0c0,0,0,0,0,0c0,0,0,0.1,0,0.1c0,0,0,0,0,0c0.1-0.1,0.1-0.1,0.2-0.2
							c0.1,0,0.2-0.1,0.1-0.3c0,0,0,0,0.1-0.1c0.1-0.1,0.1-0.1,0-0.2c-0.1-0.1-0.1-0.2-0.2-0.3c0.1-0.1,0.1-0.1,0.2-0.2
							c-0.1,0-0.1,0-0.1,0c0-0.1,0.1-0.2,0.3-0.2c0-0.1,0-0.2,0-0.3c0.2,0.1,0,0.2,0,0.3c0,0,0,0,0.1,0c0,0.1,0.1,0.2,0.3,0.2
							c0-0.1,0-0.1,0-0.2c0,0-0.1,0-0.1,0c0,0,0-0.1,0.1-0.1c0.1,0.1,0.1,0.2,0.1,0.2c0,0,0-0.1,0-0.1c0.1,0,0.3,0.1,0.4,0.1
							c0.1,0,0.1,0,0.2,0.1c0,0.1,0.1,0.1,0.1,0.1c0.1,0,0.1,0.1,0.1,0.2c0,0.2,0,0.2,0.2,0.2c0,0,0.1,0,0.1,0c0.1,0,0.1,0,0.2-0.1
							c-0.1-0.2-0.1-0.2-0.2-0.1c0,0-0.1,0-0.1,0c0,0-0.1,0.1-0.1,0.1c0,0,0,0,0,0c0-0.1,0.1-0.1,0.2-0.1c0.1,0,0.2-0.1,0.1-0.2
							c0-0.1,0-0.1,0-0.2c0,0,0.1,0,0.1-0.1c0,0,0,0.1,0,0.1c-0.1,0-0.1,0.1,0,0.1c0,0,0,0.1,0.1,0.1c0,0,0,0,0,0.1
							c0,0,0.1,0.1,0.1,0.1c0.1,0,0.1,0,0.2,0c1.5-2.3,2.5-4.9,2.7-7.8c0,0-0.1-0.1-0.1-0.1c0-0.1,0-0.2,0-0.3c0,0,0,0,0,0
							c-0.1-0.1-0.1-0.2-0.2-0.3c0-0.1-0.1-0.1,0-0.2c0,0,0-0.1-0.1-0.1c0,0-0.1,0-0.1-0.1c-0.1-0.1-0.1-0.3-0.2-0.4
							c-0.1-0.1-0.1-0.3,0-0.4c0.1-0.1,0-0.1,0-0.2c-0.1-0.1-0.2-0.3-0.3-0.3c0,0,0,0-0.1,0c-0.1-0.1-0.1-0.1-0.2-0.2
							c-0.1-0.1-0.1-0.1-0.2-0.2C39,15.1,39,15,38.8,15c-0.2,0-0.3,0-0.3-0.2c-0.1-0.3-0.4-0.4-0.6-0.5c0,0,0-0.1,0-0.1
							c0-0.1-0.1-0.2-0.1-0.3c0,0,0-0.1-0.1-0.1c-0.1,0-0.1-0.1-0.1-0.2c0-0.1-0.1-0.1-0.1-0.2c0,0-0.1-0.1-0.1-0.1
							c0,0-0.1-0.1-0.1-0.1c0,0-0.1,0-0.1,0c0,0.1,0,0.1-0.2,0.2c0,0-0.1-0.1-0.1-0.1c0-0.1,0-0.2,0-0.3c0-0.1,0.1-0.2,0.1-0.4
							c0.1,0,0.1,0,0.2-0.1c0,0,0,0,0,0c0.1-0.1,0.3-0.2,0.4-0.3c0,0,0,0,0,0c0-0.1,0-0.1,0.1-0.2c0,0-0.1,0-0.1-0.1
							c0-0.1,0-0.1,0.2-0.1c0.1,0,0.1-0.2,0.1-0.3c-0.1-0.2-0.2-0.4-0.2-0.6c0-0.1,0-0.2-0.1-0.4c0-0.1,0-0.2,0-0.2c0,0,0-0.1,0-0.1
							c-0.1-0.2-0.2-0.3-0.3-0.4C37,9.6,36.9,9.5,37,9.3c0.1-0.3,0.2-0.6,0.3-0.8c0-0.1,0.1-0.2,0.1-0.3c0.2-0.2,0.3-0.5,0.3-0.7
							c0,0,0,0,0-0.1c0,0,0,0,0,0c-0.3-0.5-0.7-0.9-1-1.4c-0.1,0-0.3,0-0.4,0C36.2,5.9,36,6,36,6.1z"/>
						<path fill="#F3F3F3" d="M9.7,24.9c0-0.1,0-0.1,0.1-0.1c0.2-0.1,0.3,0,0.5,0c0.1,0,0.1,0.1,0.1,0.2c0.4,0.1,0.5,0.1,0.7-0.1
							c0,0-0.1,0-0.1-0.1c0.1,0,0.1,0,0.1-0.1c0,0.1,0,0.1,0,0.2c0,0.1,0,0.1,0.1,0.2c0,0,0.1-0.1,0.1-0.1c0.1,0,0.2,0,0.2,0.1
							c0.1,0,0.1,0,0.2,0c0.1-0.1,0.1-0.1,0-0.2c-0.1,0.1-0.1,0.1-0.1,0c0.1,0,0.1-0.1,0.2-0.1c0-0.1,0.2-0.2,0.4-0.1
							c-0.1,0.1-0.1,0.2-0.2,0.2c-0.1,0-0.1,0-0.1,0.1c0,0.1-0.1,0.1-0.1,0.2c-0.1,0.1-0.1,0.2-0.3,0.3c0,0,0,0,0,0
							c-0.1,0.1-0.1,0.1-0.2,0.2c0,0.1-0.1,0.1-0.1,0.2c0,0.1,0.1,0.2,0,0.2c0,0,0,0,0,0.1c0,0.1,0.1,0.1,0.1,0.2c0,0,0,0,0,0
							c0,0.1,0,0.1,0,0.1c0.1,0.1,0.2,0.2,0.4,0.2c0,0,0,0,0.1,0c0.1,0,0.1,0,0.1-0.1c0-0.1,0.1-0.1,0.2-0.1c0,0-0.1,0.1-0.1,0.1
							c-0.1,0.1,0,0.2,0.1,0.2c0,0,0.1,0,0.1,0c0,0,0,0,0,0c0,0,0.1,0,0.1,0c0,0.1-0.1,0.1-0.1,0.1c-0.1,0.1,0,0.2,0,0.2
							c0,0,0.1,0,0.1,0.1c0.1,0,0.2,0,0.2-0.1c0.1-0.1,0.1-0.2,0.2-0.3c0-0.1,0-0.1,0-0.2c0,0,0-0.1,0-0.1c0.1,0,0.2,0,0.3-0.1
							c-0.1-0.1-0.2-0.1-0.1-0.2c0,0,0.1,0.1,0.2,0.1c0-0.1,0.1-0.1,0.1-0.2c0,0,0.1,0,0.1-0.1c0,0,0.1,0,0.1,0c0,0.1,0,0.1,0.1,0.1
							c0.1,0,0.2,0,0.2,0c0,0,0.1,0,0.1,0c0,0,0,0-0.1-0.1c0,0,0.1,0,0.1,0c0.1,0,0.2-0.1,0.3-0.1c0.1,0,0.2-0.1,0.2-0.2
							c0-0.1,0.1-0.1,0.2-0.1c0,0,0,0-0.1,0c0-0.1,0.1-0.1,0.1-0.2c0,0,0.1,0,0.1,0.1c0.1-0.1-0.1-0.1-0.1-0.1c0,0,0-0.1,0.1-0.1
							c0,0,0,0,0,0c0,0-0.1-0.1-0.1-0.1c0-0.1,0.1-0.1,0.1-0.1c0.2,0,0.4-0.1,0.6-0.1c0.1,0,0.2-0.2,0.1-0.3c0,0,0-0.1,0-0.1
							c0-0.1,0-0.1-0.1-0.2c-0.1-0.1-0.2-0.1-0.3-0.2c0,0,0-0.1,0-0.1c0-0.1,0-0.3,0-0.4c0-0.1,0-0.1,0-0.2c0,0,0,0,0-0.1
							c0.1,0,0.1,0.1,0.1,0.2c0,0.1,0.1,0.3-0.1,0.4c0,0,0,0.1,0,0.1c0,0,0,0,0.1,0c0.1,0,0.2,0,0.3,0.1c0.1,0.1,0.2,0.1,0.4,0.1
							c0,0,0.1,0,0.1-0.1c0,0,0-0.1-0.1-0.1c0.1-0.1,0.1-0.1,0.2,0c0.1-0.1,0-0.1,0-0.2c-0.1-0.1-0.1-0.1-0.2-0.1c0,0,0-0.1-0.1-0.1
							c0.2,0.1,0.3,0.1,0.4,0.1c0,0.1,0,0.1,0,0.2c0,0.1,0,0.1,0,0.2c0,0.1,0,0.2,0.1,0.3c0,0,0,0,0-0.1c-0.1-0.2,0-0.3,0.1-0.4
							c0,0,0,0,0,0c0.1-0.1,0.1-0.1,0-0.2c0-0.1-0.1-0.1-0.1-0.2c0,0,0-0.1,0-0.1c0.1-0.2,0.1-0.4,0-0.6c-0.1,0-0.1,0-0.2,0
							c-0.1,0-0.1,0-0.2,0c-0.1-0.1-0.2-0.2-0.2-0.3c0-0.1,0.1-0.1,0.1-0.2c0,0-0.1-0.1-0.1-0.1c0.1,0,0.2,0,0.2,0.1
							c0,0.2,0,0.3,0.1,0.4c0,0,0.1,0,0.1,0c0.2-0.1,0.2-0.1,0.1-0.3c0-0.1,0-0.1,0-0.2c0-0.1,0.1-0.1,0.1-0.2c0,0,0-0.1,0-0.1
							c0.1-0.1,0.1-0.1,0.2-0.2c0,0,0.1,0,0.2,0c0.1,0,0.1,0,0.1,0.2c-0.1-0.1-0.1-0.2-0.2-0.1c0,0.1,0,0.2,0,0.2
							c-0.1,0-0.1,0.1-0.1,0.2c-0.1,0.1,0,0.2-0.1,0.4c0,0,0,0,0,0.1c0.2,0.2,0.1,0.4,0.1,0.6c0,0,0,0,0,0c0,0.1,0,0.3,0.1,0.4
							c0.1,0.1,0.1,0.1,0,0.2c-0.1,0.1-0.1,0.2,0,0.4c0,0,0,0.1,0.1,0.1c0.1,0,0.3,0,0.4,0.1c0-0.1,0-0.1,0.1-0.2
							c0-0.2,0.1-0.4,0.2-0.5c0,0,0-0.1,0-0.1c0,0,0-0.1,0-0.1c0,0-0.1,0-0.1,0c0-0.1,0-0.3,0.1-0.4c-0.1,0-0.2-0.1-0.2-0.2
							c0,0-0.1-0.1-0.1-0.1c0-0.1,0.1-0.1,0.1-0.2c0.1,0.1,0.1,0.2,0.2,0.2c0.2,0.1,0.4,0.3,0.7,0.3c0.1,0,0.2,0,0.2-0.1
							c0,0,0-0.1,0-0.1c0-0.1-0.1-0.1,0-0.2c0,0,0.1-0.1,0.1-0.1c0,0,0,0,0.1-0.1c0,0,0,0,0,0.1c0,0.1,0,0.1,0,0.2
							c0.1-0.1,0.1-0.1,0.2-0.2c0,0,0.1-0.1,0.1-0.1c0.1,0,0.2,0,0.3-0.2c0.1,0.1,0.1,0.1,0.1,0.1c0,0,0,0.1,0,0.2c0,0,0,0,0,0
							c0,0,0.1-0.1,0.1-0.1c0.1,0.1,0.1,0,0.1-0.1c0.1,0,0.1,0,0.2-0.1c0.1-0.1,0.2-0.2,0.3-0.3c0.1,0,0.1-0.1,0.1-0.2
							c0-0.1,0.1-0.2,0.1-0.2c0.1,0,0.1,0,0.1,0.1c0.2,0.2,0.2,0.2-0.1,0.3c0,0,0,0,0,0c0,0.2,0.2,0.3,0.5,0.3
							c-0.1-0.1-0.1-0.2-0.1-0.3c0,0,0-0.1,0-0.1c0,0,0-0.1,0-0.1c-0.1-0.1-0.1-0.1,0-0.2c0-0.1,0-0.1,0-0.2c0,0,0,0,0.1,0.1
							c0.1,0.1,0.2,0.1,0.2,0c0-0.1,0.1-0.1,0.2-0.2c0.1-0.1,0.1-0.1,0-0.2c0-0.1-0.1-0.1-0.1-0.2c0,0,0,0,0,0
							c0.2,0.1,0.3,0.1,0.5,0.2c0,0,0-0.1,0-0.1c0,0-0.1-0.1-0.1-0.1c0,0,0,0,0,0c0,0,0-0.1-0.1-0.1c0.1,0,0.2,0,0.3,0
							c0,0,0.1,0.1,0.2,0.1c0,0.1,0,0.1,0.1,0.2c0,0,0,0.1,0,0.1c0,0.1,0,0.1,0,0.2c0.1,0.1,0.2,0.2,0.3,0.3c0,0,0,0,0,0
							c0,0-0.1,0-0.1,0c-0.1-0.1-0.2-0.1-0.3-0.2c-0.1,0-0.3,0-0.4-0.1c-0.1,0-0.2,0-0.3,0c-0.1,0.1-0.2,0.2-0.2,0.3
							c0,0.2,0.1,0.3,0.3,0.4c0,0,0.1,0,0.1,0.1c0.1,0.1,0.2,0.2,0.3,0.2c0,0,0.1,0,0.1,0c0.2,0,0.3,0,0.4,0.1c0,0,0,0,0,0.1
							c0,0,0,0,0,0c0,0-0.1,0-0.1,0c0,0.1,0,0.1,0.1,0.1c0,0,0-0.1,0-0.1l0.2,0c0.1,0.1,0.1,0.1,0.2,0.2c-0.2-0.1-0.2,0-0.3,0.1
							c0.1,0.1,0.2,0.1,0.3,0.2c0-0.1,0-0.1,0.1-0.2c0,0,0,0,0,0c0,0.1,0,0.1,0,0.2c0,0,0.1,0,0.1,0c0-0.1,0.1-0.2,0.1-0.3
							c0,0,0,0,0,0c0,0.1,0,0.1,0,0.2c0.1-0.1,0.1-0.2,0.2-0.3c0,0,0,0,0,0c0,0.1-0.1,0.2-0.1,0.3c0,0,0.1,0,0.1,0.1
							c0,0,0.1-0.1,0.1-0.1c-0.1-0.1,0-0.1,0.1-0.1c0-0.1,0.1-0.1,0.1-0.2c0.1,0,0.1,0,0.2,0.1c0-0.1-0.1-0.1-0.1-0.2
							c0.1,0.1,0.2,0,0.2-0.2c0,0.1,0,0.1,0,0.2c0,0,0.1-0.1,0.1-0.1c0.1,0.1,0.1-0.1,0.1-0.1c0,0,0,0,0.1,0c0,0,0-0.1,0-0.1
							c0.1,0,0.1,0.1,0.2,0.1c0-0.1,0-0.1,0.1-0.2c-0.1,0-0.1,0-0.1,0c-0.1-0.1,0-0.2,0.1-0.2c-0.1,0-0.1,0-0.1,0c0,0,0,0,0,0l0.2,0
							l0-0.2c0,0,0,0.1,0.1,0.1c0-0.1,0-0.1,0-0.1c0,0,0-0.1,0-0.1c0.1,0,0.1-0.1,0.1-0.1c0,0,0-0.1,0-0.1c0.1-0.1,0.1-0.3,0.2-0.4
							c0,0,0-0.1,0.1-0.1c0,0,0,0,0-0.1c0,0,0-0.1,0-0.1c0.1,0,0.1-0.1,0.1-0.2c0.1,0,0.1-0.2,0.2-0.3c0,0-0.1-0.1-0.1-0.1
							c0,0,0.1,0,0.1,0c0.1,0,0.1-0.1,0.2-0.1c0.1,0,0.1-0.1,0.1-0.1c0,0-0.1,0-0.1,0c0.1,0,0.1-0.1,0.2-0.1c0,0,0.1-0.1,0.1-0.1
							c0,0,0,0-0.1,0c0.1,0,0.1-0.1,0.1-0.2c0,0,0,0,0,0c-0.1,0-0.2,0-0.3,0c0,0,0-0.1,0-0.1c0.1,0.1,0.2,0,0.2,0c0,0,0.1-0.1,0-0.1
							c0,0,0-0.1,0-0.2c-0.1,0.1-0.1,0.1-0.2,0.1c0.1-0.1,0.1-0.1,0.1-0.2c0,0,0.1-0.1,0.1-0.1c0,0,0,0,0,0c0,0-0.1,0-0.1,0
							c0-0.1,0-0.1,0.1-0.1c0,0,0-0.1,0-0.1c-0.1-0.1-0.1-0.1-0.2-0.2c0,0-0.1,0-0.1,0c-0.1,0-0.1,0.2-0.3,0.3c0,0,0,0.1,0,0.1
							c0,0,0,0.1,0,0.1c0-0.1-0.1-0.2-0.1-0.3c-0.1-0.2-0.1-0.4-0.2-0.5c-0.1-0.1,0-0.2,0-0.2c0,0,0.1,0,0.2-0.1
							c-0.1-0.1-0.1-0.1-0.2-0.2c0,0.1,0,0.1-0.1,0.2C24.5,18,24.4,18,24.3,18c0,0.1,0,0.1-0.2,0.2c0,0-0.1,0-0.1,0
							c0,0.2-0.1,0.4-0.1,0.5c0,0.1-0.1,0.2-0.1,0.2c-0.1,0-0.1,0-0.1,0.1c0.1,0,0.2,0,0.2,0c0,0,0,0,0,0c-0.1,0-0.1,0-0.2,0
							c-0.1,0-0.1,0.1-0.1,0.1c0,0.1,0.1,0.2,0.2,0.1c0,0.2,0,0.4,0,0.5c0,0,0,0,0,0c-0.1,0.1-0.1,0.3-0.3,0.4
							c-0.1,0-0.1,0.1-0.2,0.2c0,0,0,0.1,0,0.1c0,0.1,0,0.2,0,0.3c0,0.1-0.1,0.1-0.1,0.1c-0.1,0-0.1,0-0.2,0c0,0,0,0,0,0
							c0,0-0.1-0.1-0.1-0.1c0-0.1-0.1-0.1-0.1-0.2c0,0,0.1-0.1,0.1-0.1c0,0,0,0,0,0c0.1-0.1,0.2-0.3,0.2-0.4c0,0,0.1-0.1,0.1-0.1
							c0.1,0,0.1-0.2,0.1-0.2c0-0.1-0.1-0.3-0.1-0.4c0-0.1,0-0.1-0.1-0.2c-0.1,0-0.2,0-0.2-0.1c0,0-0.1,0-0.1,0
							c-0.1,0-0.1,0.1-0.2,0.1c-0.1,0.1-0.3,0.1-0.5,0.2c0,0,0,0,0,0c0.1-0.1,0-0.1-0.1-0.1c0,0-0.1,0-0.1,0
							c0.1-0.1,0.2-0.1,0.3-0.2c0.1,0,0.3,0,0.5-0.1c0.1,0,0.1-0.1,0.1-0.1c0-0.1,0-0.2-0.2-0.1c0-0.1,0-0.2,0-0.3
							c0.1,0,0.2,0.1,0.2,0.2c0,0,0.1,0,0.1-0.1c0.1-0.1,0.1-0.2,0.1-0.4c0-0.1,0-0.1,0-0.2c0.1,0.1,0.2,0,0.2-0.1
							c0,0,0.1-0.1,0.1-0.1c0,0,0,0.1,0.1,0.1c0.2,0,0.5-0.2,0.6-0.3c0,0,0.1,0.1,0.1,0.1c0,0,0,0.1,0,0.1c0.1-0.1,0.2-0.1,0.4-0.2
							c0,0.1,0,0.1,0,0.1c0.1,0,0.1,0,0.1,0c0.1,0.1,0.1,0.2,0.1,0.2c0,0-0.1-0.1-0.1-0.1c0,0-0.1,0-0.1,0c0,0,0,0.1,0,0.1
							c0,0,0.1,0,0.1,0c0,0,0,0.1-0.1,0.1c0,0-0.1,0.1-0.1,0.1c0.1,0,0.1,0,0.1,0.1c0,0.1,0,0.1,0,0.2c0.1-0.1,0.1-0.1,0.2-0.2
							c0.2-0.1,0.2-0.3,0-0.5c0,0,0,0,0-0.1c0-0.1,0-0.2-0.1-0.3c0,0,0,0,0,0c0,0,0-0.1,0.1-0.1c0.1,0.1,0.1,0.1,0.2,0c0,0,0,0,0,0
							c0.1,0,0.2,0,0.2-0.2c0,0,0-0.1,0-0.1c0,0,0,0,0,0l0,0.1c0,0,0,0,0,0c0-0.1,0.1-0.2,0.1-0.3c0.1,0,0.1-0.1,0.2-0.1
							c0,0,0.1,0,0.1-0.1c0-0.1,0.1-0.1,0.1-0.2c0,0,0,0,0.1-0.1c0.1-0.1,0.1-0.1,0.2,0c0,0,0.1,0,0.1,0c0-0.1,0-0.1-0.1-0.2
							c0.1,0,0.1,0,0.2,0c0.1,0,0.2,0,0.3,0c0-0.1-0.1-0.1-0.2-0.1c-0.1,0-0.2,0-0.2-0.2c0,0,0-0.1,0-0.1c-0.1,0-0.1-0.1-0.1-0.2
							c0-0.1,0-0.1,0-0.2c0-0.2,0-0.2,0.2-0.2c0.2,0,0.4,0,0.7,0c0.1,0,0.1-0.1,0.2-0.1c0,0,0,0,0-0.1c0,0,0,0,0-0.1
							c-0.1-0.2,0-0.4,0-0.6c0-0.1,0-0.1-0.1-0.1c0-0.1,0-0.2,0-0.2c0,0,0,0-0.1,0c-0.1,0-0.3,0.1-0.3-0.1c0-0.1-0.1-0.1-0.1,0
							c-0.1,0.1-0.2,0.1-0.2,0.1c-0.2,0-0.2,0.1-0.3,0.2c0,0-0.1,0.1-0.1,0.2c0.1,0,0.1,0.1,0,0.2c-0.1,0.2-0.2,0.3-0.3,0.3
							c-0.1,0-0.1,0.1-0.1,0.2c0,0.1,0,0.1-0.1,0.2c-0.1,0-0.2,0-0.2,0c0,0-0.1,0-0.1,0c-0.1,0.1-0.2,0.1-0.3,0.2c0,0-0.1,0-0.1,0
							c-0.1,0-0.1-0.1-0.2-0.2c0-0.1-0.1-0.1-0.1-0.2c0,0-0.1,0-0.1-0.1c-0.1-0.1-0.2-0.1-0.3-0.2c-0.1,0-0.1-0.1-0.2-0.1
							c0-0.1-0.1-0.1,0-0.2c0.1-0.1,0.2-0.2,0.3-0.1c0,0,0.1,0,0.1,0c0,0,0-0.1-0.1-0.1c-0.1,0-0.2-0.1-0.2-0.1
							c-0.1,0-0.1,0-0.1,0.1c0,0.1,0,0.1,0,0.2c0,0,0,0,0,0c0,0-0.1,0-0.1,0c0,0,0,0.1-0.1,0.1c-0.1,0.1,0,0.1,0,0.1
							c0,0,0,0.1,0,0.1c0,0-0.1,0-0.1,0c0,0-0.1,0-0.1-0.1c0.1,0.2,0.2,0.2,0.4,0.3c0,0,0,0.1,0,0.1c0.2,0,0.2,0,0.3,0.2
							c0,0.1,0.1,0.1,0.2,0.2c0.1,0.1,0.1,0.2,0.1,0.2c0,0-0.1,0.1-0.1,0.1c0-0.1,0-0.1-0.1-0.2c0,0.1,0,0.1-0.1,0.1
							c0-0.1-0.1-0.1-0.1-0.2c0,0-0.1-0.1-0.1-0.1c-0.1,0-0.2,0-0.2-0.1c-0.1-0.1-0.2-0.1-0.2-0.2c0-0.1,0-0.2-0.1-0.3
							c0-0.1-0.1-0.1-0.1-0.2c0-0.1-0.1-0.1-0.1-0.2c0-0.1-0.1-0.3-0.2-0.2c0,0,0,0.1,0,0.1c0,0-0.1,0-0.1,0c0,0,0,0.1,0,0.1
							c-0.1,0-0.1,0-0.1,0c0,0,0,0,0,0.1c0,0,0,0-0.1,0c0.1,0.2,0.1,0.2,0.2,0.2c0,0,0,0.1,0,0.2c0,0,0,0.1,0,0.1
							c-0.1,0-0.1,0-0.2,0c0,0,0,0.1,0,0.1c-0.1,0.1-0.2,0-0.3,0c0-0.1,0-0.2,0-0.3c0,0,0,0,0,0c0,0,0,0-0.1,0.1c0,0,0-0.1,0-0.1
							c0,0,0-0.1,0-0.1c0,0,0,0,0.1,0c0,0,0-0.1,0-0.1c-0.1,0-0.1-0.1-0.1-0.1c0-0.1-0.1-0.2-0.2-0.1c0,0-0.1,0-0.1,0
							c-0.1-0.1-0.2-0.1-0.2,0.1c0,0,0,0,0,0c-0.1,0-0.1,0-0.2-0.1c-0.1-0.1-0.2,0-0.3,0c0,0-0.1,0-0.1,0c0,0-0.1,0-0.1,0
							c0,0,0-0.1,0-0.2c0-0.1,0-0.1,0-0.2c0-0.2,0.1-0.3,0.2-0.5c0-0.1,0.2-0.2,0.3-0.1c0.1,0,0.1,0,0.2,0c0.1,0,0.1-0.1,0.2-0.1
							c0.1,0,0.1,0,0.2,0c0.1,0,0.2,0,0.4,0.1c0.1,0,0.2,0.1,0.4,0.1c0,0,0,0,0,0c0,0,0.1,0.1,0.1,0.1c0.1,0,0.2,0,0.3-0.1
							c0.1-0.1,0.1-0.1,0-0.2c0,0,0-0.1,0-0.1c0,0,0.1,0,0.1,0c0.1,0,0.2,0.1,0.3,0.1c0,0,0.1,0,0.1,0.1c0.1,0.1,0.2,0.2,0.3,0.1
							c0.2,0,0.3,0.1,0.5,0.2c-0.1,0.1-0.1,0.1-0.1,0.1c0,0-0.1,0.1,0,0.2c0.1,0.1,0.1,0.1,0,0.2c0,0,0,0,0,0.1c0,0,0.1,0,0.1-0.1
							c0,0.1,0.1,0.1,0.2,0.1c0.1,0,0.1-0.1,0.2,0c0.1,0,0.2,0,0.2,0c0,0,0.1,0,0.1,0c0.2,0,0.4,0,0.6-0.1c0.2-0.1,0.3-0.3,0.6-0.2
							c0,0,0,0,0,0c0.1,0,0.1,0,0.2,0c0.1,0.1,0.1,0.1,0.1,0c0-0.2,0.1-0.3,0.3-0.4c0.2-0.1,0.2-0.3,0.2-0.4c0-0.1,0-0.2,0.1-0.3
							c0.1-0.1,0.3-0.2,0.4-0.4c0,0,0,0,0,0c0,0,0,0,0-0.1c0.1-0.2,0.2-0.4,0.3-0.6c0-0.1,0.1-0.1,0-0.2c0,0-0.1-0.1,0-0.2
							c0,0,0-0.1,0-0.1c0-0.1,0-0.2,0-0.3c0-0.1,0-0.1,0-0.2c0-0.1,0-0.2,0.1-0.2c-0.1-0.1-0.1-0.2-0.1-0.3c0-0.1-0.1-0.1-0.1-0.2
							c0,0,0,0,0,0c-0.1-0.1-0.2-0.2-0.3-0.3c0,0-0.1-0.1-0.1-0.1c0-0.1-0.1-0.1-0.1-0.2c-0.1-0.1-0.3-0.2-0.4-0.3
							c-0.1-0.1-0.3-0.2-0.5-0.1c-0.1,0.1-0.3,0.1-0.5,0c-0.1,0-0.1,0-0.2,0c-0.2,0.1-0.4,0.2-0.7,0.2c-0.1,0-0.2,0-0.3-0.2
							c0-0.1-0.1-0.1-0.2-0.1c-0.1,0-0.1,0-0.2,0c-0.2,0-0.3-0.1-0.3-0.3c0-0.1,0-0.2,0-0.2c0-0.1,0-0.1,0-0.2c0,0,0-0.1,0-0.1
							c-0.1-0.1-0.2-0.2-0.3-0.4C24,8.2,24,8.1,23.9,8.1c0-0.1-0.1-0.2-0.1-0.3c0-0.1,0-0.1,0-0.2c0,0,0-0.1-0.1-0.1
							c0-0.1-0.1-0.2,0-0.3c0.1-0.1,0.2-0.3,0.2-0.5c0-0.2,0-0.3-0.1-0.5c-0.2-0.3-0.3-0.6-0.4-0.9c0-0.1,0-0.3-0.2-0.4
							c-0.1-0.1-0.2-0.2-0.2-0.3c0-0.1-0.1-0.2-0.1-0.2c0-0.1-0.1-0.2,0-0.2c0-0.1-0.1-0.1-0.1-0.2c-0.1-0.1-0.2-0.1-0.3-0.1
							c-0.1,0-0.2,0.1-0.3,0.1c-0.2,0-0.3,0-0.5,0.1c-0.1,0-0.2,0.1-0.2,0.1c-0.2,0.1-0.3,0.3-0.4,0.5c0,0.1-0.1,0.1-0.1,0.2
							c-0.1,0.1-0.1,0.3-0.1,0.4c0,0.1,0,0.1-0.1,0.2c-0.1,0-0.1,0-0.1,0.1c0,0-0.1,0.1-0.1,0.1c0,0.2,0,0.3,0.1,0.5
							c0.1,0.1,0,0.1,0,0.2c-0.1,0.1-0.1,0.1-0.2,0.2c0,0-0.1,0.1-0.1,0.1c-0.1,0.1-0.3,0.1-0.3,0.3C20,7,19.9,7,20,7.1
							c0,0.1,0.1,0.3,0,0.4c0,0,0,0.1,0,0.1c0.1,0.1,0.2,0.2,0.1,0.4c0,0,0,0.1,0,0.1c0.1,0.1,0.1,0.1,0,0.2c0,0.1-0.1,0.1-0.1,0.2
							c-0.1,0.2-0.3,0.4-0.4,0.6c-0.1,0.1-0.3,0.2-0.4,0.4c-0.2,0.2-0.4,0.4-0.5,0.7c0,0,0,0.1,0,0.1c-0.1,0.1-0.1,0.3-0.1,0.5
							c0,0.1,0,0.1,0.1,0.1c0.1,0,0.1,0,0.2-0.1c0.1,0,0.2-0.1,0.3-0.1c0.1,0,0.2,0,0.3-0.1c0,0,0.1,0,0.1,0c0.1,0,0.1,0.1,0.2,0.1
							c-0.1,0.1-0.1,0.1,0,0.2c0.1,0.1,0.1,0.1,0.2,0.2c0,0,0.1,0.1,0.2,0.1c0.1,0,0.2,0.1,0.2,0.2c0,0.1,0.1,0.2,0.1,0.2
							c0.1,0.1,0.1,0.2,0.2,0.3c0,0.1,0.1,0.2,0.1,0.3c0.1,0.1,0.2,0.1,0.1,0.2c0,0,0,0,0,0c0.1,0.1,0.1,0.2,0.2,0.2
							c0.1,0.2,0.1,0.3,0.3,0.5c0,0,0,0.1,0,0.1c-0.1-0.1-0.1-0.1-0.2-0.2c0,0-0.1-0.1-0.1-0.1c0,0,0,0.1-0.1,0.1
							c0,0-0.1-0.1-0.1-0.1c-0.1-0.1-0.2-0.3-0.3-0.5c0,0,0,0,0,0c-0.1-0.1-0.2-0.2-0.2-0.3c0-0.1,0-0.2-0.2-0.3
							c-0.1,0-0.1-0.1-0.1-0.2c0-0.1-0.1-0.1-0.1-0.2c-0.1-0.1-0.1-0.2-0.1-0.3c0-0.1-0.1-0.3-0.1-0.4c0,0,0-0.1-0.1-0.1
							c-0.1,0-0.2,0-0.2,0.1c0,0-0.1,0-0.1,0c-0.1,0-0.1,0-0.2,0.1c-0.1,0-0.2,0.1-0.3,0.1c-0.1,0-0.2,0.1-0.3,0.1
							c0,0-0.1,0-0.1,0.1c0,0-0.1,0.1-0.1,0.1c-0.1,0.1-0.3,0-0.3,0.2c0,0,0,0,0,0c-0.1,0.1-0.2,0.1-0.2,0.2c0,0,0,0.1,0,0.1
							c0,0,0,0.1-0.1,0.1c-0.1,0.1-0.1,0.2-0.2,0.3c0,0,0,0,0,0.1c0.1,0.1,0.2,0.2,0.3,0.2c0.1,0,0.1,0.1,0.2,0.2c0,0,0,0.1,0,0.1
							c0.1-0.1,0.2-0.2,0.2-0.3c0,0,0-0.1,0.1-0.1c0.1,0,0.2,0,0.3,0c0,0,0.1,0.1,0.1,0.1c0,0,0,0.1,0,0.1c0,0,0,0.1,0,0.1
							c0,0,0,0,0,0c0-0.1,0-0.1,0.1-0.2c0,0.1,0,0.1,0.1,0.2c0,0,0,0.1,0.1,0.1c0.1,0.1,0.1,0.1,0.2,0.2c0.1,0.1,0.1,0.2,0,0.3
							c0,0,0,0,0,0c-0.1,0-0.1,0-0.2-0.1c-0.1-0.1-0.1-0.2-0.2-0.2c0,0,0-0.1-0.1-0.1c-0.1-0.1-0.2-0.1-0.3-0.1c-0.1,0-0.3,0-0.3,0
							c-0.1,0.1-0.1,0.1-0.1,0c0-0.1-0.1-0.1-0.2-0.1c-0.1,0-0.1,0-0.2,0c-0.1,0-0.2,0-0.2,0c-0.2,0-0.4,0-0.6,0.1c0,0,0,0-0.1,0
							c-0.1-0.1-0.2-0.2-0.3-0.3c-0.1-0.1-0.1-0.1-0.2,0l0,0c0,0,0,0,0,0c0.1,0,0.1-0.1,0.2-0.1c-0.1,0-0.1-0.1-0.2-0.1
							c-0.1-0.1-0.3-0.1-0.3,0.1c0,0,0,0.1-0.1,0.1c0-0.1,0-0.1,0-0.2c0-0.1,0-0.1,0-0.2c0-0.2-0.1-0.4-0.2-0.6
							c-0.2-0.3-0.3-0.6-0.5-0.9c0-0.1-0.1-0.1-0.1-0.1c-0.1-0.1-0.1-0.1-0.1,0c0,0-0.1,0.1-0.1,0.1c0,0,0,0,0,0
							c0,0-0.1,0.1-0.1,0.2c0,0.2-0.1,0.3,0,0.5c0,0,0,0.1,0,0.1c0,0,0,0.1-0.1,0.1c-0.1,0.1-0.2,0.1-0.2,0.2
							c-0.2,0.1-0.3,0.3-0.5,0.5c0,0-0.1,0.1-0.1,0.1c0,0.1-0.1,0.1-0.1,0.2c-0.1-0.1-0.2,0-0.3,0c0,0-0.1,0.1-0.1,0.1
							c-0.1,0-0.1-0.1-0.1-0.1c0-0.1-0.1-0.2-0.2-0.2c-0.1-0.1-0.1-0.2-0.2-0.2c0-0.1,0-0.2,0-0.3c-0.1-0.1-0.3,0-0.3,0.2
							c-0.1,0-0.2-0.1-0.2-0.2c0-0.1,0-0.1-0.1-0.2c-0.1-0.2-0.1-0.3-0.1-0.5c0-0.1,0-0.2,0-0.3c0,0-0.1-0.1-0.1-0.1
							c-0.1-0.1-0.2-0.2-0.2-0.4c0-0.2-0.2-0.3-0.4-0.4c0,0-0.1,0-0.1,0c0,0,0,0.1,0,0.1c0,0.1,0.1,0.1,0.1,0.2
							c0,0.2,0.1,0.4,0.3,0.4c0.1,0,0.1,0.1,0.2,0.2c0,0.1,0,0.2,0.2,0.2c0,0.1,0,0.1,0,0.2c0,0.1,0,0.3-0.1,0.4c0,0,0,0,0,0
							c0,0-0.1,0-0.1,0c0,0,0-0.1,0-0.1c-0.1,0-0.2,0-0.2-0.1c-0.1-0.1-0.1-0.2-0.3-0.2c0,0-0.1,0-0.1-0.1c0,0,0-0.1,0-0.1
							c0,0,0,0,0,0c0,0.1-0.1,0.1-0.1,0.2c-0.1,0.1-0.1,0.1-0.2,0.1c-0.1,0-0.3,0.1-0.2,0.3c0,0.1,0,0.3,0.1,0.4
							c0,0,0.1,0.1,0.1,0.1c0.1,0.1,0.2,0.2,0.3,0.3c0,0,0,0.1,0,0.1c0,0.2-0.1,0.3-0.3,0.3c-0.1,0-0.1,0-0.2,0
							c0-0.1-0.1-0.1-0.1-0.2c0,0,0,0,0,0c0,0.1,0,0.1-0.1,0.2c0,0-0.1,0-0.1,0c-0.1,0-0.1,0-0.1,0.1c0,0-0.1,0.1-0.1,0c0,0,0,0,0,0
							c-0.1,0-0.1,0-0.2,0.1c0,0-0.1,0-0.1,0.1c-0.1,0.1-0.1,0.1-0.2,0.2c-0.1,0.1-0.2,0.2-0.2,0.3c0,0,0,0,0,0
							c-0.1,0.1-0.2,0.3-0.3,0.5c0.1,0,0.1,0,0.2,0.1c0,0-0.1,0.1-0.1,0.1c0,0,0,0,0.1,0.1c0,0,0,0,0,0.1c0.1,0.1,0.1,0.1,0.2,0.2
							c0.1,0.1,0.1,0.2,0.2,0.3c0,0.1-0.1,0.1-0.1,0.1c0,0-0.1,0.1-0.1,0.1c0,0.1-0.1,0.1-0.2,0.1c0,0-0.1,0-0.1,0.1c0,0,0,0,0,0
							c0,0,0.1,0,0.1,0c0.1,0.1,0.2,0,0.3-0.1c0,0,0.1,0,0.1,0c0.1,0,0.1,0.1,0.1,0.1c0,0,0.1,0.1,0,0.1c0,0-0.1,0-0.1,0.1
							c0,0-0.1,0-0.1,0.1c-0.1,0.1-0.2,0.2-0.3,0.3c0,0-0.1,0-0.1,0c0,0,0-0.1,0-0.1c0,0,0-0.1,0.1-0.1c-0.1,0,0-0.1,0-0.1
							c-0.1,0-0.1,0.1-0.2,0.1c-0.1,0-0.1,0.1-0.2,0.1c-0.1,0-0.1,0-0.2-0.1c0-0.1,0-0.2,0.1-0.2c0,0,0,0-0.1-0.1
							c-0.1,0.1-0.2,0-0.2-0.1c0,0,0,0,0.1-0.1c-0.2-0.1,0-0.3-0.1-0.4c-0.1,0-0.2,0.1-0.3,0.1c-0.1,0.1-0.1,0.1-0.1,0.3
							c0,0.2,0.1,0.3,0.2,0.4c0.1,0.1,0.1,0.1,0,0.2c-0.1,0.1-0.2,0.1-0.2,0.3c0,0,0,0,0,0.1c-0.1,0.1-0.2,0.2-0.2,0.3
							c0,0-0.1-0.1-0.1-0.1c-0.2,0-0.3,0.1-0.3,0.2c0,0-0.1,0.1-0.1,0.1c0,0.8,0.1,1.5,0.2,2.2c0,0,0,0,0.1,0c0,0,0,0,0,0.1
							c0,0,0,0,0,0C7.9,21.1,8.6,23.1,9.7,24.9C9.7,24.9,9.7,24.9,9.7,24.9z"/>
					</g>
				</g>
			</g>
		</g>
		<g>
			<path fill="#8AD7F8" d="M11.6,27.6c0.1,0.1,0.2,0.2,0.2,0.3c1.9,2,3.3,4.4,4.1,6.9h16.2c0.8-2.6,2.2-5,4.1-7
				c0.1-0.1,0.1-0.1,0.2-0.2H11.6z"/>
		</g>
		<g>
			<path fill="#344A5E" d="M30.2,45.3H17.9c-1.1,0-2-0.9-2-2v-8.5h16.2v8.5C32.1,44.4,31.3,45.3,30.2,45.3z"/>
		</g>
		<g>
			<g>
				<path fill="#415A6B" d="M32.3,37.9H15.7c-0.9,0-1.7-0.8-1.7-1.7v0c0-0.9,0.8-1.7,1.7-1.7h16.6c0.9,0,1.7,0.8,1.7,1.7v0
					C34,37.1,33.2,37.9,32.3,37.9z"/>
			</g>
			<g>
				<path fill="#415A6B" d="M32.3,43.3H15.7c-0.9,0-1.7-0.8-1.7-1.7v0c0-0.9,0.8-1.7,1.7-1.7h16.6c0.9,0,1.7,0.8,1.7,1.7v0
					C34,42.6,33.2,43.3,32.3,43.3z"/>
			</g>
		</g>
	</g>
</g>
</svg>
