<?xml version="1.0" encoding="utf-8"?>
<!-- Generator: Adobe Illustrator 18.0.0, SVG Export Plug-In . SVG Version: 6.00 Build 0)  -->
<!DOCTYPE svg PUBLIC "-//W3C//DTD SVG 1.1//EN" "http://www.w3.org/Graphics/SVG/1.1/DTD/svg11.dtd">
<svg version="1.1" id="Layer_1" xmlns="http://www.w3.org/2000/svg" xmlns:xlink="http://www.w3.org/1999/xlink" x="0px" y="0px"
	 viewBox="0 0 48 48" enable-background="new 0 0 48 48" xml:space="preserve">
<g>
	<g>
		<g>
			<g>
				<g>
					<g>
						<g>
							<g>
								<path fill="#FFD15C" d="M35.2,43.9l1.1-5.1c0,0,6.7-6.3,8.7-7.3c2-0.9,2.5-1.8,2.4-3.3c-0.1-1.5,0.4-8.2,0.5-9.1
									c0,0,0.5-1.2-0.5-3.2c-0.1-0.3-0.2-0.5-0.3-0.7l-1.4-5.8l-0.2-2c0,0-1-1.2-2.2,0.3L43,8.6c0,0-0.1,3.6,0.1,5.2
									c0,0-0.4,3.6-0.2,4.3c0,0-2.2,2.5-2.4,3.7c0,0-2.6,2.7-4,3.2c-1.5,0.4-3,1.8-4.1,3.2c0,0-3.5,3.9-4.2,8.1
									c-0.7,4.2-1.3,7.5-1.3,7.5l0.1,0H35.2z"/>
								<path fill="#F3F3F3" d="M45,17.7c-1.1-0.3-1.6,0.6-1.6,0.6s0,0-0.3,0.5c-0.3,0.5,0,0.8,0,0.8c0.5,0.2,1.1,0.6,1.5,1
									c0.6,0.2,1.3-1.2,1.3-1.2C46.2,18.5,45.8,18,45,17.7z"/>
								<path fill="#F7B64C" d="M39.4,30.7c0,0.1-0.1,0.2-0.1,0.3C39.4,30.9,39.4,30.8,39.4,30.7z"/>
								<g>
									<rect x="26.8" y="36.6" fill="#E8EAE9" width="12.3" height="5"/>
								</g>
								<g>
									<rect x="25.6" y="38.9" fill="#415A6B" width="15.4" height="9.1"/>
								</g>
								<g>
									<path fill="#F7B64C" d="M45.7,17.2C45.7,17.2,45.6,17.2,45.7,17.2C45.6,17.1,45.6,17.1,45.7,17.2c-0.2-0.1-0.4-0.2-0.5-0.2
										c0,0,0,0,0,0l0,0c-0.1,0-0.1,0-0.2,0l0,0c0,0-1-0.2-2.1,0.9l0.1,0.2c0,0,0.2-0.2,0.4-0.4c0.2-0.1,0.3-0.2,0.5-0.3
										c0.5-0.2,1-0.2,1.5,0c0.1,0.1,0.2,0.1,0.3,0.2c0.4,0.4,0.8,1.1,0.3,2.4c-0.4,1-0.8,1.9-1.2,2.9c-0.1,0.3-0.3,0.6-0.4,0.9
										c-0.2,0.3-0.4,0.6-0.7,0.8c-0.5,0.6-1,1.1-1.6,1.6c-0.3,0.3-0.6,0.6-0.9,0.9c-0.2,0.3-0.4,0.6-0.5,0.9
										c-0.2,0.4-0.4,0.8-0.6,1.2c-0.3,0.6-0.7,1.3-1.3,1.7l0,0c0.2-0.1,0.5-0.3,0.7-0.5c0,0.1,0,0.2,0,0.3
										c0.1-0.2,0.1-0.5,0.1-0.7c0.1,0.2,0.1,0.3,0.1,0.5c0.1-0.1,0-0.5,0.2-0.5c0.3-0.9,0.8-1.7,1.3-2.5c0.1,0.3,0.2,0.7,0.4,1
										c0-0.4-0.1-0.9-0.2-1.3c0.2-0.2,0.3-0.2,0.5-0.4c0.3,0.2,0.7,0.3,1.1,0.3c-0.3-0.1-0.6-0.3-0.8-0.4
										c0.1-0.1,0.1-0.2,0.2-0.2c-0.1,0-0.2,0.1-0.3,0.1c0,0,0,0,0.1-0.1l0,0c0,0,0,0,0,0c0.4-0.3,0.8-0.6,1.1-0.9c0,0,0,0,0,0
										c0.4-0.3,0.7-0.7,1.1-1.2c0.1-0.1,0.2-0.3,0.3-0.4c0,0,0-0.1,0.1-0.1c0.4-0.7,0.7-1.4,1-2c0-0.1,0.1-0.1,0.1-0.2
										c0-0.1,0.1-0.2,0.1-0.3c0.1-0.2,0.2-0.4,0.3-0.6c0.1-0.4,0.2-0.6,0.2-0.6c0,0,0.7-2-0.4-2.8C45.8,17.2,45.7,17.2,45.7,17.2
										z"/>
								</g>
							</g>
						</g>
						<g>
							<path fill="#F3F3F3" d="M45.7,9.4l-0.6-0.3c0,0-0.5-1.6,0.4-1.7"/>
						</g>
					</g>
					<g>
						<g>
							<g>
								<path fill="#FFD15C" d="M0.6,28.2C0.5,29.7,1,30.6,3,31.5c2,0.9,8.7,7.3,8.7,7.3l1.1,5.1H21l0.1,0c0,0-0.6-3.3-1.3-7.5
									c-0.7-4.2-4.2-8.1-4.2-8.1c-1.1-1.4-2.6-2.7-4.1-3.2c-1.4-0.5-4-3.2-4-3.2c-0.2-1.2-2.4-3.7-2.4-3.7
									c0.3-0.7-0.2-4.3-0.2-4.3C5.2,12.2,5,8.6,5,8.6L4.6,7.7C3.5,6.3,2.4,7.5,2.4,7.5l-0.2,2l-1.4,5.8c-0.1,0.1-0.2,0.3-0.3,0.7
									c-0.9,2.1-0.5,3.2-0.5,3.2C0.2,20,0.7,26.8,0.6,28.2z"/>
								<path fill="#F3F3F3" d="M3,17.7c1.1-0.3,1.6,0.6,1.6,0.6s0,0,0.3,0.5c0.3,0.5,0,0.8,0,0.8c-0.5,0.2-1.1,0.6-1.5,1
									c-0.6,0.2-1.3-1.2-1.3-1.2C1.8,18.5,2.2,18,3,17.7z"/>
								<path fill="#F7B64C" d="M8.6,30.7c0,0.1,0.1,0.2,0.1,0.3C8.6,30.9,8.6,30.8,8.6,30.7z"/>
								<g>
									<rect x="8.9" y="36.6" fill="#E8EAE9" width="12.3" height="5"/>
								</g>
								<g>
									<rect x="7.1" y="38.9" fill="#415A6B" width="15.4" height="9.1"/>
								</g>
								<g>
									<path fill="#F7B64C" d="M2.3,17.2C2.3,17.2,2.4,17.2,2.3,17.2C2.4,17.1,2.4,17.1,2.3,17.2C2.5,17.1,2.7,17,2.9,17
										c0,0,0,0,0,0l0,0C2.9,17,3,17,3,17l0,0c0,0,1-0.2,2.1,0.9l-0.1,0.2c0,0-0.2-0.2-0.4-0.4c-0.2-0.1-0.3-0.2-0.5-0.3
										c-0.5-0.2-1-0.2-1.5,0c-0.1,0.1-0.2,0.1-0.3,0.2C1.9,18,1.5,18.7,2.1,20c0.4,1,0.8,1.9,1.2,2.9c0.1,0.3,0.3,0.6,0.4,0.9
										c0.2,0.3,0.4,0.6,0.7,0.8c0.5,0.6,1,1.1,1.6,1.6c0.3,0.3,0.6,0.6,0.9,0.9c0.2,0.3,0.4,0.6,0.5,0.9c0.2,0.4,0.4,0.8,0.6,1.2
										c0.3,0.6,0.7,1.3,1.3,1.7l0,0c-0.2-0.1-0.5-0.3-0.7-0.5c0,0.1,0,0.2,0,0.3c-0.1-0.2-0.1-0.5-0.1-0.7
										c-0.1,0.2-0.1,0.3-0.1,0.5c-0.1-0.1,0-0.5-0.2-0.5c-0.3-0.9-0.8-1.7-1.3-2.5c-0.1,0.3-0.2,0.7-0.4,1c0-0.4,0.1-0.9,0.2-1.3
										C6.4,27,6.4,27,6.1,26.8c-0.3,0.2-0.7,0.3-1.1,0.3c0.3-0.1,0.6-0.3,0.8-0.4c-0.1-0.1-0.1-0.2-0.2-0.2
										c0.1,0,0.2,0.1,0.3,0.1c0,0,0,0-0.1-0.1l0,0c0,0,0,0,0,0c-0.4-0.3-0.8-0.6-1.1-0.9c0,0,0,0,0,0c-0.4-0.3-0.7-0.7-1.1-1.2
										c-0.1-0.1-0.2-0.3-0.3-0.4c0,0,0-0.1-0.1-0.1c-0.4-0.7-0.7-1.4-1-2c0-0.1-0.1-0.1-0.1-0.2c0-0.1-0.1-0.2-0.1-0.3
										C2.1,21.1,2,20.9,2,20.7c-0.1-0.4-0.2-0.6-0.2-0.6c0,0-0.7-2,0.4-2.8C2.2,17.2,2.3,17.2,2.3,17.2z"/>
								</g>
							</g>
						</g>
						<g>
							<path fill="#F3F3F3" d="M2.3,9.4l0.6-0.3c0,0,0.5-1.6-0.4-1.7"/>
						</g>
					</g>
				</g>
			</g>
		</g>
		<g>
			<g>
				<circle fill="#F3F3F3" cx="24" cy="14.1" r="14.1"/>
			</g>
			<g>
				<circle fill="#E8EAE9" cx="24" cy="14.1" r="10.4"/>
			</g>
			<g>
				<path fill="#F3F3F3" d="M23.3,21.3V20c-1.5-0.2-2.8-0.9-4.1-2l1.6-2c0.9,0.8,1.7,1.3,2.4,1.5V15c-1.2-0.3-2.1-0.7-2.7-1.3
					c-0.6-0.5-0.8-1.3-0.8-2.3c0-1,0.3-1.8,1-2.4c0.6-0.6,1.5-1,2.5-1.2V7h1.8v0.9c1.2,0.2,2.3,0.6,3.4,1.4l-1.4,2
					c-0.7-0.5-1.4-0.9-2-1v2.5c1.2,0.3,2.2,0.8,2.8,1.3s0.9,1.3,0.9,2.3c0,1-0.3,1.8-1,2.5c-0.7,0.6-1.5,1-2.7,1.2v1.2H23.3z
					 M23.3,10.3c-0.5,0.2-0.7,0.5-0.7,1s0.2,0.8,0.7,1.1V10.3z M26,16.6c0-0.2-0.1-0.4-0.2-0.6s-0.4-0.3-0.7-0.5v2.1
					C25.7,17.4,26,17.1,26,16.6z"/>
			</g>
		</g>
	</g>
</g>
</svg>
