<?xml version="1.0" encoding="utf-8"?>
<!-- Generator: Adobe Illustrator 18.0.0, SVG Export Plug-In . SVG Version: 6.00 Build 0)  -->
<!DOCTYPE svg PUBLIC "-//W3C//DTD SVG 1.1//EN" "http://www.w3.org/Graphics/SVG/1.1/DTD/svg11.dtd">
<svg version="1.1" id="Layer_1" xmlns="http://www.w3.org/2000/svg" xmlns:xlink="http://www.w3.org/1999/xlink" x="0px" y="0px"
	 viewBox="0 0 48 48" enable-background="new 0 0 48 48" xml:space="preserve">
<g>
	<g>
		<g>
			<path fill="#425A6B" d="M34.9,40.2c0,0-0.3,2.5-0.8,5c-0.6,2.5-0.6,2.8-0.6,2.8H19.1l0.5-6l2.2-11.3L26,29L34.9,40.2z"/>
			<path fill="#FFD15C" d="M33.5,48H19.1l0,0l0.5-6l2.2-11.3l4.1-1.8l0,0l8.9,11.2l0,0c0,0-0.3,2.5-0.8,5C33.5,47.6,33.5,48,33.5,48
				L33.5,48L33.5,48z M19.1,48h14.4c0-0.1,0.1-0.6,0.6-2.8c0.5-2.4,0.8-4.9,0.8-5L25.9,29l-4.1,1.7L19.7,42L19.1,48z"/>
		</g>
	</g>
	<g>
		<g>
			<path fill="#F26F5A" d="M23.7,13.9l-0.3-0.6c0,0-0.8,0-1.4,0.3c-0.6,0.3-1.4,2.2-1.4,3.2c-0.1,1,0,1.8-0.1,2.4
				c-0.1,0.6-0.7,2.6-0.7,2.6s-1.4,5.9-1.3,6.7c0.2,0.7,1.2,1.7,1.6,1.7c0.4,0,1-0.4,1.9-0.7c0.9-0.3,0.9-0.3,0.9-0.3l-0.7-11
				L23.7,13.9z"/>
		</g>
	</g>
	<g>
		<g>
			<path fill="#425A6B" d="M20.7,26.9c0,0,1,0.7,0.9,1.4c-0.1,0.7-0.5,1.2-0.9,1.3c-0.4,0.2-0.7,0.3-1.3-0.2c-0.5-0.4-1-1.5-1-1.5
				S19.9,26.5,20.7,26.9z"/>
		</g>
	</g>
	<g>
		<g>
			<path fill="#F05640" d="M21.9,31.7l0,0.1l-0.3,1.9c0,0-0.6,4.5-0.9,5.5s-1,4.2-1.6,2.4c0,0,0.6-3.4,0.8-4.8
				c0.2-1.4,0.8-3.9,1-4.6c0.2-0.6,0.8-2.6,0.9-3.2c0.1-0.6-0.3-4.9-0.5-5.9c-0.2-1-0.2-3.8,0-4.7c0.2-1,0.7-4.7,2-5.1l2.6-0.3
				l-2.2,3.3c0,0-1.9,4.4-1.8,6.5c0.1,2.1,0.3,5.8,0.3,6.3C22.2,29.5,21.9,31.7,21.9,31.7z"/>
		</g>
	</g>
	<g>
		<g>
			<path fill="#F26F5A" d="M33.9,13.4l1.3,0.1c0,0,1,0.3,1.4,2.1c0.4,1.8,0.4,3.1,0.4,3.5c0,0.5-1.2,4.4-1.7,5.5
				C34.8,25.7,34,28,34,28s-0.4,1.4-1.4,1.8c-0.9,0.4-1.5,0-2.3-0.5c-0.8-0.5-7.5-5.1-7.5-5.1s0.7,0,1.4-0.4c0.7-0.4,1.4-2.4,0.4-3
				c0,0,0.5-0.2,1,0c0.6,0.2,1.1,0.7,1.3,1c0.2,0.3,0.9,0.7,1.3,0.9c0.5,0.2,1.2,1.1,1.3,1.3c0,0.1,1,0.6,1,0.6s0.4-0.2,0.4-0.3
				c0-0.1,0.4-2.3,0.5-2.7c0.1-0.4,0.3-2,0.3-2l0.5-2.9C32.5,16.7,30.3,13.5,33.9,13.4z"/>
		</g>
	</g>
	<g>
		<g>
			<path fill="#344A5E" d="M32.4,7.9c-0.4,1.1-0.6,2.2-0.8,3.3c-0.1,0.6-0.1,1.2,0,1.8c0.2,0.6,0.6,1.1,1.2,1.3
				c-0.5,0-1-0.1-1.5-0.3c-0.4-0.2-0.8-0.6-1-1.1c-0.3-0.6-0.2-1.2-0.1-1.8c0.2-0.6,0.5-1.1,0.8-1.7c0.3-0.6,0.7-1.2,1-1.9"/>
		</g>
	</g>
	<g>
		<g>
			<path fill="#344A5E" d="M23.9,7c0,0,1.1,6.8,1.6,7.6c0.5,0.8,0.5,0.8,0.5,0.8l2.6-4.3C28.5,11.2,27.7,6.8,23.9,7z"/>
		</g>
	</g>
	<g>
		<g>
			<path fill="#FFD15C" d="M32,7.9c0,0-0.2,2-1.3,2.9c0,0,0,1.7,0.6,2.5c0.6,0.8,0.6,0.8,0.6,0.8L27,23.2l-4.9-4.1l4.6-7l0.1-0.5
				c0,0-1.9-1.7-1.9-4s0-2.3,0-2.3s2.4-3.9,4.3-4c1.9,0,1.9,0,1.9,0S33,5.4,32,7.9z"/>
		</g>
	</g>
	<g>
		<g>
			<path fill="#E8EAE8" d="M23.7,16.6c0,0-1.9,6.3-1.6,8.4c0,0,0,0.1,0,0.1c0.1,0.4,0.2,0.8,0.2,1.2c0,0.4,0,0.8,0.1,1.2
				c0,0.5,0.1,1,0,1.4c0,0.3,0,0.5-0.1,0.8c0,0.2-0.1,0.4-0.2,0.7c-0.1,0.4-0.2,0.8-0.3,1.2c1.8,1.5,5.7,1,5.7,1l2.2-14.5
				C26.6,19.4,24.4,19.1,23.7,16.6z"/>
		</g>
	</g>
	<g>
		<g>
			<path fill="#F26F5A" d="M27,11.6c0,0,0,0.9-0.4,2c-0.4,1.2-1.5,3-1.7,3.4c-0.2,0.4-1.6,2.9-1.9,4.3c-0.3,1.3-0.2,5.6-0.2,6.5
				c0,0.9-1.1,5.9-1.1,5.9S22,29,22,28c0-1-0.6-6.1-0.4-7.2c0.2-1.1,1.4-5,1.4-5l0.9-0.3l-0.5-0.8c0,0,1.8-1.3,2.3-1.7
				C26.1,12.5,26.9,11.9,27,11.6z"/>
		</g>
	</g>
	<g>
		<g>
			<path fill="#FFD15C" d="M24.9,23.2c0,0-0.5,0.2-0.8,0c-0.3-0.1-0.4,0-0.6,0c-0.1,0-0.5,0.3-0.5,0.3s0,0-0.1,0.2
				c-0.2,0.2-0.4,0.3-0.6,0.2c-0.2-0.1-0.3-0.4-0.3-0.5c0,0-0.3,0.2-0.5,0.2c-0.1-0.1-0.4-0.3-0.4-0.5c0,0-0.2,0.1-0.5,0
				c-0.3-0.1-0.4-0.4-0.4-0.6c0.1-0.2,0.7-0.9,0.7-0.9s-0.1-0.3-0.3-0.4c-0.2-0.1-0.6-0.3-0.7-0.4c-0.1,0-0.8-0.1-0.8-0.1l-0.5-0.7
				c0,0,0.3,0,0.6,0.1c0.3,0,0.7,0,0.8,0c0.1,0,0.4,0,0.6,0c0.1,0.1,0.6,0.2,0.8,0.2c0.2,0,0.7,0,1,0.1c0.2,0.1,2,0.4,2.2,0.5
				c0.2,0,0.5,0.2,0.5,0.2S26.1,22.4,24.9,23.2z"/>
		</g>
	</g>
	<g>
		<g>
			<g>
				<path fill="#F5B54C" d="M15.6,26.6l6.2,0.7c0.2,0,0.4-0.2,0.3-0.4L17.9,18c-0.1-0.2-0.3-0.3-0.4-0.3l-5.9-0.3
					c-0.2,0-0.3,0.2-0.3,0.4l4.1,8.7C15.4,26.5,15.5,26.6,15.6,26.6z"/>
			</g>
		</g>
		<g>
			<g>
				<path fill="#ACB2BA" d="M15.5,26.5l6.6,0.7c0.2,0,0.4-0.2,0.3-0.4L18,17.5c-0.1-0.2-0.3-0.3-0.5-0.3l-6.3-0.4
					c-0.2,0-0.4,0.2-0.3,0.4l4.3,9.2C15.3,26.5,15.4,26.5,15.5,26.5z"/>
			</g>
		</g>
		<g>
			<g>
				<path fill="#E8EAE8" d="M15.6,26.6l6.2,0.7c0.2,0,0.4-0.2,0.3-0.4L17.9,18c-0.1-0.2-0.3-0.3-0.4-0.3l-5.9-0.3
					c-0.2,0-0.3,0.2-0.3,0.4l4.1,8.7C15.4,26.5,15.5,26.6,15.6,26.6z"/>
			</g>
		</g>
	</g>
	<g>
		<g>
			<path fill="#F05640" d="M32,12.1c0,0,2.9,0.9,3.3,1.4c0,0-2.2,0.8-2.7,2.8c-0.5,2.1,0.2,11.9,0.6,13.7c0.4,1.8,3.5,11.6,3.5,11.6
				s-3.9,1.6-6.7,1.8c-2.8,0.2-4.1-0.3-4.7-3.8c-0.6-3.5-0.3-6.4-0.2-7c0.1-0.6,1.1-5.4,1.1-5.4l2.1-7.9l2.8-5.1"/>
		</g>
	</g>
	<g>
		<g>
			<path fill="#F26F5A" d="M31.1,11.5c0,0-0.9,2.1-1.2,3S28,18.2,27.6,19c-0.4,0.8-1.5,3.1-1.6,4.8c-0.2,1.7-0.9,8.9-0.9,8.9
				s1.7-5.8,2-6.8s1.7-5.3,2.4-6.4c0.7-1.1,1.9-3.6,1.9-3.6l-0.6-0.5l1-0.7c0,0,0.8-1.7,0.9-2S32,11.4,31.1,11.5z"/>
		</g>
	</g>
	<g>
		<g>
			<path fill="#344A5E" d="M29,2.7c0,0-1.7-0.1-2.2,0.9c-0.4,1-0.4,1.4-0.9,2.7c-0.5,1.3-1.1,2.4-1.3,3.2c-0.2,0.8,0.4,4.9,1.3,5.9
				c0,0-0.7-0.5-0.8-1.1c0,0-0.5,0.9-1.6,1.1c-1.2,0.2-1.7-0.1-1.7-0.1s2-0.8,1.8-2.8c-0.2-2-0.3-5,0-6.9c0.3-1.9,3-6,5.9-5.5
				s3.9,4.8,3.9,5.9c0,1.1-0.6,5.4-0.2,6.5c0.5,1.1,1.1,1.4,1.1,1.4s-1-0.6-1.5-1.6c0,0,0.4,2,1.6,3.7c0,0-3-1.6-3.6-3.8
				c-0.3-1.3,1.5-4,1.5-4.6s-0.7-1.9-1.4-2.8C30.4,3.9,30,3,29,2.7z"/>
		</g>
	</g>
	<g>
		<g>
			<ellipse transform="matrix(0.9693 0.246 -0.246 0.9693 2.7459 -7.7488)" fill="#FFD15C" cx="32.4" cy="7.1" rx="0.7" ry="1.3"/>
		</g>
	</g>
	<g>
		<g>
			<path fill="#344A5E" d="M26.9,11.5c0.2,0.4,0.2,0.9,0.1,1.4c-0.1,0.5-0.3,0.9-0.3,1.4c-0.1,0.8,0,1.7,0.5,2.4
				c-0.3-0.2-0.5-0.5-0.6-0.8c-0.1-0.3-0.2-0.7-0.2-1c-0.1-0.3-0.2-0.7-0.4-1c0.1,0.6,0.2,1.1,0.4,1.7c-0.4-0.2-0.7-0.5-0.9-0.9
				c-0.5-0.8-0.5-1.8-0.1-2.7"/>
		</g>
	</g>
	<g>
		<g>
			<path fill="#F26F5A" d="M37,19.2c0,0.5-1.2,4.4-1.7,5.5C34.8,25.7,34,28,34,28s-0.4,1.4-1.4,1.8c-0.9,0.4-1.5,0-2.3-0.5
				c-0.8-0.5-7.5-5.1-7.5-5.1s0.7,0,1.4-0.4c0.7-0.4,1.4-2.4,0.4-3c0,0,0.5-0.2,1,0c0.6,0.2,1.1,0.7,1.3,1c0.2,0.3,0.9,0.7,1.3,0.9
				c0.5,0.2,1.2,1.1,1.3,1.3c0,0.1,1,0.6,1,0.6s0.4-0.2,0.4-0.3c0-0.1,0.4-2.3,0.5-2.7c0.1-0.4,0.3-2,0.3-2l0.5-2.9h4.4
				C37.1,17.9,37.1,18.8,37,19.2z"/>
		</g>
	</g>
	<g>
		<g>
			<path fill="#FFD15C" d="M21.5,27.9c0,0-0.2,0.3-0.7,0.5c-0.4,0.1-1.5,0-1.6-0.1c0,0-0.4,0.1-0.6,0.1c-0.2,0.1-0.5-0.1-0.5-0.1
				s-0.6,0-0.8-0.1c-0.2-0.1-0.4-0.6-0.4-0.8c0-0.2-0.3-1.4-0.3-1.4s-0.2-1.2-0.1-1.4c0-0.2,0.1-0.6,0.4-0.6c0,0,0.1,0,0.1,0.1
				c0,0,0.1-0.2,0.4-0.2c0.2,0,0.5,0.3,0.5,0.6c0,0,0.2-0.1,0.3-0.1c0.2,0,0.3,0.2,0.4,0.3c0,0.1,0.2,0.9,0.2,0.9s0.1-0.1,0.2-0.1
				c0.1,0,0.2,0,0.3,0.1c0.1,0.1,0.3,0.7,0.4,0.8c0,0.1,0.1,0.4,0.1,0.4s0.2,0.1,0.4,0.1c0.1,0,0.7,0.1,1,0.1c0,0,0,0,0,0
				C21.2,27.4,21.4,27.6,21.5,27.9z"/>
		</g>
	</g>
	<g>
		<g>
			<path fill="#F5B54C" d="M18.9,27.2c0,0,0-0.1-0.1-0.2c0-0.1-0.1-0.2-0.1-0.2c0,0,0-0.1,0-0.1c0,0,0-0.1,0-0.1c0,0,0-0.1,0-0.1
				c0,0,0-0.1,0-0.1c0-0.1,0-0.2,0-0.3c0-0.1,0-0.1,0-0.2c0,0,0-0.1,0-0.1s0,0,0,0.1c0,0,0,0.1,0,0.2c0,0,0,0.1,0,0.1
				c0,0,0,0.1,0,0.1c0,0,0,0.1,0,0.1c0,0,0,0.1,0,0.1c0,0,0,0.1,0,0.1c0,0,0,0.1,0,0.1c0,0.1,0,0.2,0.1,0.2
				C18.9,27.1,18.9,27.2,18.9,27.2z"/>
		</g>
	</g>
	<g>
		<g>
			<path fill="#F5B54C" d="M17.7,24.5c0,0,0,0.2,0.1,0.4c0,0.1,0,0.1,0,0.2c0,0.1,0,0.2,0,0.2c0,0.1,0,0.2,0,0.3c0,0.1,0,0.2,0,0.3
				c0,0.1,0,0.2,0,0.3c0,0,0,0.1,0,0.1c0,0,0,0.1,0,0.1c0.1,0.2,0.1,0.3,0.2,0.4c0.1,0.1,0.1,0.2,0.1,0.3c0,0,0,0.1,0,0.1
				c0,0,0,0,0,0s0,0,0,0c0,0,0,0,0-0.1c0-0.1-0.1-0.2-0.1-0.3c0-0.1-0.1-0.1-0.1-0.2c0-0.1-0.1-0.1-0.1-0.2c0,0,0-0.1,0-0.1
				c0,0,0-0.1,0-0.1c0-0.1,0-0.2,0-0.3c0-0.1,0-0.2,0-0.3c0-0.1,0-0.2,0-0.3c0-0.1,0-0.2,0-0.2c0-0.1,0-0.1,0-0.2c0-0.1,0-0.2,0-0.3
				C17.7,24.6,17.7,24.5,17.7,24.5z"/>
		</g>
	</g>
	<g>
		<g>
			<path fill="#F5B54C" d="M16.8,24.1c0,0,0,0,0,0.1c0,0.1,0,0.2,0,0.4c0,0,0,0.1,0,0.1c0,0,0,0.1,0,0.1c0,0.1,0,0.2,0.1,0.3
				c0,0.1,0,0.2,0.1,0.3c0,0.1,0,0.2,0.1,0.3c0,0.1,0.1,0.2,0.1,0.3c0,0.1,0.1,0.2,0.1,0.3c0.1,0.2,0.1,0.3,0.1,0.5
				c0,0.1,0,0.1,0.1,0.2c0,0.1,0,0.1,0,0.2c0,0.1,0,0.1,0,0.1s0,0,0,0c0,0,0-0.1,0-0.1c0,0,0-0.1,0-0.1c0-0.1,0-0.1-0.1-0.2
				c0-0.1-0.1-0.3-0.2-0.5c0-0.1-0.1-0.2-0.1-0.3c0-0.1-0.1-0.2-0.1-0.3c0-0.1,0-0.2-0.1-0.3c0-0.1,0-0.2-0.1-0.3c0-0.1,0-0.2,0-0.3
				c0-0.1,0-0.2,0-0.2c0-0.1,0-0.1,0-0.2c0-0.1,0-0.1,0-0.2C16.8,24.2,16.8,24.2,16.8,24.1C16.8,24.1,16.8,24.1,16.8,24.1z"/>
		</g>
	</g>
	<g>
		<g>
			<g>
				<path fill="#F5B54C" d="M21.3,23c0,0,0-0.1,0.1-0.2c0,0,0-0.1,0-0.1c0,0,0-0.1,0.1-0.1c0,0,0,0,0,0c0,0,0,0,0,0
					c0,0,0.1-0.1,0.1-0.1c0,0,0.1-0.1,0.1-0.1c0,0,0.1-0.1,0.1-0.1c0.1-0.1,0.1-0.1,0.2-0.1c0.1-0.1,0.2-0.1,0.2-0.1s0,0.1-0.1,0.2
					c0,0-0.1,0.1-0.1,0.2c0,0-0.1,0.1-0.1,0.1c0,0-0.1,0.1-0.1,0.1c0,0-0.1,0.1-0.1,0.1c0,0,0,0,0,0c0,0,0,0,0,0c0,0,0,0-0.1,0.1
					c0,0,0,0.1-0.1,0.1C21.3,23,21.3,23,21.3,23z"/>
			</g>
		</g>
		<g>
			<g>
				<path fill="#F5B54C" d="M22.1,23.4c0,0,0-0.1,0.1-0.1c0,0,0,0,0-0.1c0,0,0,0,0-0.1c0,0,0-0.1,0.1-0.1c0,0,0,0,0,0l0,0
					c0,0,0,0,0.1-0.1c0,0,0,0,0.1-0.1c0,0,0.1-0.1,0.1-0.1c0.1,0,0.1-0.1,0.1-0.1s0,0-0.1,0.1c0,0-0.1,0.1-0.1,0.1c0,0,0,0-0.1,0.1
					c0,0,0,0-0.1,0.1l0,0c0,0,0,0,0,0c0,0,0,0-0.1,0.1c0,0-0.1,0.1-0.1,0.1C22.2,23.4,22.1,23.4,22.1,23.4z"/>
			</g>
		</g>
	</g>
</g>
</svg>
