<?xml version="1.0" encoding="utf-8"?>
<!-- Generator: Adobe Illustrator 18.0.0, SVG Export Plug-In . SVG Version: 6.00 Build 0)  -->
<!DOCTYPE svg PUBLIC "-//W3C//DTD SVG 1.1//EN" "http://www.w3.org/Graphics/SVG/1.1/DTD/svg11.dtd">
<svg version="1.1" id="Layer_1" xmlns="http://www.w3.org/2000/svg" xmlns:xlink="http://www.w3.org/1999/xlink" x="0px" y="0px"
	 viewBox="0 0 48 48" enable-background="new 0 0 48 48" xml:space="preserve">
<g>
	<g>
		<g>
			<path fill="#425A6B" d="M22.5,11.3c-0.1,1.4-0.3,2.8-0.1,4.2c0.1,1.4,0.6,2.8,1.4,3.9c0.9,1.2,2.3,2,3.8,2.1c0.5-1.6,0.5-3.4,0-5
				c-0.5-1.6-1.5-3-2.9-4"/>
		</g>
	</g>
	<g>
		<g>
			<path fill="#425A6B" d="M32.8,9.8c-0.4,1.8-0.2,3.8,0.5,5.5c0.7,1.7,1.9,3.3,3.4,4.4c-2,0.2-4.1-0.5-5.6-1.9
				c-1.5-1.4-2.3-3.5-2.3-5.5c0-0.6,0.2-1.3,0.7-1.5"/>
		</g>
	</g>
	<g>
		<g>
			<g>
				<path fill="#FFFFFF" d="M15,30.3l-8.8,1.4c-0.2,0-0.4-0.1-0.5-0.3L5,26.7c0-0.2,0.1-0.4,0.3-0.5l8.8-1.4c0.2,0,0.4,0.1,0.5,0.3
					l0.7,4.6C15.4,30.1,15.3,30.3,15,30.3z"/>
			</g>
			<g>
				<g>
					<path fill="#FFFFFF" d="M14.1,26.5l0.3,2.2c-0.5,0.1-0.8,0.5-0.7,1l-6.4,1c-0.1-0.5-0.5-0.8-1-0.7l-0.3-2.2
						c0.5-0.1,0.8-0.5,0.7-1l6.4-1C13.2,26.3,13.6,26.6,14.1,26.5z"/>
				</g>
			</g>
		</g>
		<g>
			<g>
				<ellipse transform="matrix(0.9878 -0.156 0.156 0.9878 -4.2904 1.937)" fill="#FFFFFF" cx="10.2" cy="28.3" rx="1.2" ry="1.5"/>
			</g>
		</g>
		<g>
			<g>
				<circle fill="#FFFFFF" cx="7.4" cy="28.7" r="0.5"/>
			</g>
			<g>
				<circle fill="#FFFFFF" cx="13" cy="27.9" r="0.5"/>
			</g>
		</g>
	</g>
	<g>
		<g>
			<g>
				<path fill="#F05640" d="M5.4,36C5.4,36,5.4,36.1,5.4,36c-0.2,0.2-0.7,0.7-1.1,0.7c-0.3-0.1-0.3-1-0.1-1.8
					c0.1-0.7,0.2-4.3,0.3-5.3c0-0.1,0.1-0.2,0.2-0.2l0.3,0l0.9,3.2"/>
			</g>
		</g>
		<g>
			<g>
				<path fill="#CED6E0" d="M17.1,21.7l-1.8-0.9c0,0-1,0.1-1.5,1.1c-0.5,1-1.1,2.7-1.3,3.5c-0.2,0.8-0.3,3-0.6,4.2
					c-0.4,1.3-1.5,9.6-1.5,10.6s1.9,3.1,2.8,3.2c0.9,0.1,3.1-0.6,3.4-1.3c0.3-0.7,0.4-1.5,0.4-1.5L17.1,21.7z"/>
			</g>
		</g>
		<g>
			<g>
				<path fill="#344A5E" d="M12.8,38.4c0,0,0.1,2.2,0.2,2.6c0.1,0.4,0.8,1.1,1.4,1.3c0.6,0.2,2-1.6,2.1-2c0.1-0.4,0.5-2.1,0.4-2.8
					c0-0.7-2.3-1.7-2.3-1.7S12.9,36.2,12.8,38.4z"/>
			</g>
		</g>
		<g>
			<g>
				<g>
					<polyline fill="#425A6B" points="33.4,8.5 34.3,9.8 34.1,11.4 32.5,9.6 33.4,8.6 					"/>
				</g>
			</g>
			<g>
				<g>
					<path fill="#CED6E0" d="M32.6,19.3l1.6-0.5c0,0,3,1.9,4.1,1.9c1.1,0,2,0.3,2,0.3s-1.4,0.7-1.8,5.2C38,30.8,36.3,45.1,37.7,48
						H16.3c0,0,1-4.7,0.6-7s-1.9-13.6-1.9-13.6s0.1-6.1,0.3-6.6c0,0,7.4-1.8,7.9-1.9l-0.4,1.8c0,0-2,6.7-2.6,9.8
						c-0.6,3-0.1,8.9,0.8,10.4c0.8,1.5,2.1,4,2.1,4l0.4-0.5l6.9-18.7L32.6,19.3z"/>
				</g>
			</g>
			<g>
				<g>
					<path fill="#ACB2BA" d="M32.6,19.3l1.6-0.5c0,0,3,1.9,4.1,1.9c1.1,0,2,0.3,2,0.3s-1.4,0.7-1.8,5.2C38,30.8,36.3,45.1,37.7,48
						H16.3c0,0,1-4.7,0.6-7c-0.2-1.4-0.9-6.1-1.4-9.6c-0.4-3.1-0.5-6.2-0.4-9.2c0-0.7,0.1-1.2,0.1-1.4c0,0,7.4-1.8,7.9-1.9l-0.4,1.8
						c0,0-2,6.7-2.6,9.8c-0.6,3-0.1,8.9,0.8,10.4c0.8,1.5,2.1,4,2.1,4l0.4-0.5l6.9-18.7L32.6,19.3z"/>
				</g>
			</g>
			<g>
				<g>
					<g>
						<path fill="#67C5B8" d="M15.8,31.6L6.1,32c-0.2,0-0.5-0.2-0.5-0.4l-0.2-5c0-0.2,0.2-0.5,0.4-0.5l9.6-0.4
							c0.2,0,0.5,0.2,0.5,0.4l0.2,5C16.2,31.4,16,31.6,15.8,31.6z"/>
					</g>
					<g>
						<g>
							<path fill="#FFFFFF" d="M15.2,27.5l0.1,2.4c-0.5,0-0.9,0.5-0.9,1l-7,0.3c0-0.5-0.5-0.9-1-0.9l-0.1-2.4c0.5,0,0.9-0.5,0.9-1
								l7-0.3C14.3,27.1,14.7,27.5,15.2,27.5z"/>
						</g>
					</g>
				</g>
				<g>
					<g>
						
							<ellipse transform="matrix(0.9991 -4.279535e-002 4.279535e-002 0.9991 -1.2259 0.4896)" fill="#67C5B8" cx="10.8" cy="28.9" rx="1.3" ry="1.6"/>
					</g>
				</g>
				<g>
					<g>
						<circle fill="#67C5B8" cx="7.8" cy="29" r="0.5"/>
					</g>
					<g>
						<circle fill="#67C5B8" cx="13.9" cy="28.7" r="0.5"/>
					</g>
				</g>
			</g>
			<g>
				<g>
					<path fill="#FFD15C" d="M32.8,12.4c0,0-1,2.3-1.4,2.8c0,0,0,0,0,0c0,0.5-0.1,2.1,0,3.1l-4.6,14.5l-5.9-2.7l2.5-9.1l0.7-3.3
						l0.1-0.5c0,0-1.7-2-2-2.8c-0.3-0.9-0.5-3.8-0.6-4.7c-0.1-0.9,0.3-2.2,0.3-2.2s-0.3-2.9,2.8-3.6C27.9,3.1,29,3.1,29,3.1
						s3.1,2.4,3.5,3.4C32.9,7.6,33,11.4,32.8,12.4z"/>
				</g>
			</g>
			<g>
				<g>
					<path fill="#67C5B8" d="M29.2,27.9l-1.1,6.6c-0.3,0.1-0.5,0.4-0.6,0.7l-4.1,8.7l-1.3,0.5c0,0-1.8-4.6-2-5.5
						c-0.3-4.1-0.2-9.3,1.4-12.2C23,28.7,25.6,28.9,29.2,27.9z"/>
				</g>
			</g>
			<g>
				<g>
					<path fill="#425A6B" d="M21.6,9.6c0-0.1,0.1-1.6,0.8-2.2c0.7-0.6,2.3-2.1,3.6-2.5c0.5-0.2,1.1-0.3,1.5-0.4
						c0.7-0.1,1.4,0.1,2,0.5l0,0c1.2,1,2.2,2.3,2.7,3.7c0.1,0.2,0.1,0.3,0.1,0.5c0.2,0.9,0,3.7,0,3.7s0.3-0.1,0.3-0.2
						c0-0.1,0.4-1.9,0.4-1.9s0.4-1.2,1.3-1.2c0,0,0.4-2.2,0.3-3.8C34.5,4.4,33,1,30.5,0.2C28-0.6,25.3,0.9,23.7,2
						c-0.6,0.5-1.2,1.6-1.6,2.6C21.6,6.3,21.4,8,21.6,9.6L21.6,9.6z"/>
				</g>
			</g>
			<g>
				<g>
					
						<ellipse transform="matrix(0.9431 0.3326 -0.3326 0.9431 5.8113 -10.3864)" fill="#FFD15C" cx="33.2" cy="11.8" rx="1.1" ry="2.2"/>
				</g>
			</g>
			<g>
				<path fill="none" stroke="#FFD15C" stroke-miterlimit="10" d="M24.2,17.2"/>
			</g>
			<g>
				<path fill="#F5B54C" d="M24.2,17.2c1.5,2.4,4.6,2.7,6.7,2.6l0.5-1.6c-0.1-0.9,0-2.6,0-3.1c0,0,0,0,0,0c0,0-2.7,2.7-4.3,2.9
					C25.5,18.3,24.2,17.2,24.2,17.2z"/>
			</g>
			<g>
				<g>
					<path fill="#E8EAE8" d="M31.3,16.2c0,0,0,1.5-0.6,2.8c-0.6,1.3-1.4,2.6-2,3.9c-0.6,1.4-4,10.2-4.4,12
						C23.9,36.9,23,45.9,23,45.9s3.5-7.3,4.3-9.1C28.2,35,34.2,25,34.2,25l-2.2-1.6l2.9-0.6c0,0-0.1-3.3-0.7-4
						C32.5,17.7,31.4,15.7,31.3,16.2z"/>
				</g>
			</g>
			<g>
				<g>
					<path fill="#E8EAE8" d="M24.1,17.5c0,0-0.5,1-2.2,2.3c-1.7,1.3-3,2.4-3,2.4l1.3,0.8l-2.6,0.7c0,0-0.6,11.1,0.5,13.7
						c1.1,2.7,3.5,7.3,5.9,9.7c0,0-0.3-2.6-1.3-4.8c-1-2.2-1.9-5.7-1.5-8.3c0.4-2.6,2.4-10.7,2.6-12.6
						C24.2,19.6,24.1,17.5,24.1,17.5z"/>
				</g>
			</g>
			<g>
				<g>
					<path fill="#425A6B" d="M32.4,9.3c0.1,0.6,0.1,2.4,0,3.3h0.3c0.1-0.5,0.2-1.7,0.2-1.7s0.3-1.4,1.5-0.8c0,0,0.1-0.6,0.2-1.2
						h-2.3c0,0,0,0.1,0,0.1C32.3,9,32.3,9.1,32.4,9.3z"/>
				</g>
			</g>
		</g>
		<g>
			<g>
				<path fill="#425A6B" d="M37.4,25.2c0.1,0,1.5-1.5,1.5-1.9c0-0.4-0.4-0.4-0.4-0.4s-3.7-1.1-6.3,1.2
					C32.2,24.1,35.2,25.7,37.4,25.2z"/>
			</g>
		</g>
		<g>
			<g>
				<path fill="#FFD15C" d="M32.9,16.2c0-0.1,0-1.3,0-1.3l0.2-0.3c0,0,0.9,0.1,0.7,1.4c-0.2,1.3-0.2,1.3-0.2,1.3L32.9,16.2z"/>
			</g>
		</g>
		<g>
			<path fill="#F5B54C" d="M33.6,15.4L33.6,15.4C33.6,15.3,33.6,15.3,33.6,15.4c0-0.1,0-0.2,0.1-0.2c0,0,0,0,0,0c0,0,0-0.1,0-0.1
				c0,0,0,0,0,0c0,0,0,0,0,0c0,0,0,0,0,0c0,0-0.1,0-0.1,0.1l0,0l0,0c0,0,0,0,0,0.1C33.5,15.4,33.5,15.4,33.6,15.4c0,0.1,0,0.1,0,0.2
				c0,0,0.1,0.1,0.1,0.1c0,0,0,0,0.1,0c0,0,0-0.1,0-0.1c0,0-0.1-0.1-0.1-0.1C33.7,15.5,33.7,15.4,33.6,15.4z"/>
		</g>
		<g>
			<g>
				<path fill="#FFD15C" d="M37.7,24.3c0,0-0.3-0.9,0.1-1.6s1.8-2.9,2-3.1c0.3-0.2,1.7-1.4,2-1.6c0.3-0.2,1-0.8,1-0.8l0.6-0.4
					l0.7-0.3c0,0,0-0.8-0.9-0.5S42,16.5,42,16.5l-1.2,0.6l-0.7,0.4c0,0,0.8-1.4,0.9-1.7c0.1-0.3,0.6-1.7,0.6-1.8
					c0,0,0.6-0.8,0.7-0.9l0.4-0.6c0,0-0.3-1-1.1-0.1c-0.7,0.9-0.8,1.3-0.8,1.3s-0.9,1.2-1,1.5c0,0,0.2-0.7,0.1-1
					c-0.1-0.2-0.1-2.1-0.1-2.1l0.4-1.7c0,0-0.6-0.6-1,0.2c-0.3,0.8-0.3,1.5-0.3,1.5s-0.3,1.5-0.3,2c0,0-0.7,1.6-0.7,2.1l-0.2,0
					l-0.6-1.5c0,0-0.1-0.4-0.6-0.5c-0.5,0-1.7,0.1-1.7,0.1s-0.4,0-0.6,0.4c-0.2,0.4-0.7,0.7-0.7,0.7s0.5,0.7,1,0.4
					c0.5-0.3,0.6-0.5,0.6-0.5l0.9,0.1c0,0,0.1,0.9,0.3,1.2c0,0-0.2,0.9-0.1,1.1c0,0-0.6,0.1-0.9,0.1c-0.3,0.1-0.7,0.1-0.9-0.1
					c-0.2-0.2-0.5-1.6-0.5-1.6l-0.9-1.1l-0.2,0.7c0,0-0.4,0.1-0.4,0.5c0,0.4,0.1,1.5,0.2,1.9c0.1,0.4,0.3,0.9,0.3,0.9
					s0.5,2.4,0.9,3.1c0.4,0.7,0.4,3.1,0.4,3.1L37.7,24.3z"/>
			</g>
		</g>
		<g>
			<g>
				<path fill="#CED6E0" d="M42.1,32.2c-0.1,0.9,0.3,3.2,0.3,4.4c0,1.2-0.6,4-2.1,5.4c-1.4,1.4-2.4,1.6-3.3,1.5
					c-0.8-0.1-2.4-1-3.2-3c-0.8-2-0.9-2.7-0.9-3.8c0-1.1-0.7-12.7-0.7-12.7s3.9,0.2,5.2-0.3c1.4-0.5,1.6-0.9,0.2-1.1
					c0,0,1.2,0,1.3,0.2c0,0,0-0.1,0.1-0.1l0.1,0.2c0.6-1.6,1.2-1.9,1.2-1.9s1.6,0.3,2,2.2c0.3,2,0,3.5,0,3.5s0.5,2.2,0.3,3.2
					C42.5,31,42.2,31.4,42.1,32.2z"/>
			</g>
		</g>
		<g>
			<g>
				<path fill="#ACB2BA" d="M38.7,21.8c0,0,0.1,0.2,0.4,1.3c0.3,1.2,0.7,4.3,0.9,6.1c0.2,1.8,0.7,3.3,0.3,4c-0.4,0.7,0,0.2,0,0.2
					s1.3,3.4,0.5,5.3c-0.8,1.9-1.5,3.9-0.7,2.4c0.8-1.4,1.2-3.2,1.1-4.2c0-1.1-0.7-3.5-0.7-3.5s1.2,3.2,1,4.9
					c-0.2,1.8-1.3,3.7-1.1,3.4c0.3-0.3,1.2-1.9,1.3-2.6s-0.1-2.3-0.2-2.6c-0.1-0.3-0.9-3.1-0.9-3.1s-0.2-1.8-0.4-3
					c-0.2-1.1-1.2-7.9-1.2-7.9L38.7,21.8z"/>
			</g>
		</g>
		<g>
			<g>
				<path fill="#F26F5A" d="M4.3,36.8l13.2,0.7c0.1,0,0.2-0.1,0.3-0.2c0.4-2.1,0.5-4.3,0.4-6.6c0-0.1-0.1-0.2-0.2-0.2L5,29.4
					C5,29.4,5.4,36.6,4.3,36.8z"/>
			</g>
		</g>
		<g>
			<g>
				<g>
					<path fill="#FFD15C" d="M8.2,36.7c0,0,0.8-0.6,1.2,0.1L9.7,37c0,0,0.5-0.7,0.7-1s1-1.1,1.5-1.1c0.5,0.1,0.6,0.6,0.5,0.9
						c-0.2,0.3-0.8,1.2-0.8,1.3c-0.1,0.2-0.2,0.3-0.2,0.3L12,37c0,0,0.5-0.7,0.7-1c0.2-0.2,0.8-1,1-1.2c0.2-0.2,0.6-0.7,1-0.5
						c0.4,0.2,0.4,0.4,0.4,0.4s0.2-0.3,0.5-0.2c0.2,0.1,0.3,0.6,0.3,0.8c0,0.3-0.2,0.9-0.3,1.2c-0.2,0.3-0.2,0.8-0.2,0.8l1.7,0.1
						c0,0-0.1,0.5-0.4,1c-0.2,0.4-0.4,0.5-0.7,1.2c-0.3,0.6-0.4,1.6-0.7,1.8c-0.3,0.2-1.6-0.2-2.1-0.8C12.7,40,12.8,39,12.8,39
						s-0.6-0.1-0.9-0.4c-0.3-0.3-0.4-0.6-0.7-0.5c-0.3,0.1-0.5,0.6-1,0.5C9.6,38.4,9.4,38,9.4,38S9.3,38.2,9,38
						C8.7,37.9,7.9,37.6,8.2,36.7z"/>
				</g>
			</g>
			<g>
				<g>
					<path fill="#F5B54C" d="M9.7,37c0,0,0,0.1,0,0.2c0,0,0,0.1,0,0.2c0,0.1,0,0.1,0,0.2c0,0,0,0.1,0,0.1c0,0,0,0.1,0,0.1
						c0,0.1,0,0.1-0.1,0.1c0,0,0,0.1-0.1,0.1c0,0,0,0,0,0s0,0,0,0c0,0,0-0.1,0-0.1c0,0,0,0,0-0.1c0,0,0-0.1,0-0.1
						c0-0.1,0-0.1,0.1-0.2c0-0.1,0-0.1,0.1-0.2c0-0.1,0-0.1,0-0.1C9.7,37.1,9.7,37,9.7,37z"/>
				</g>
			</g>
			<g>
				<g>
					<path fill="#F5B54C" d="M13.3,38.2c0,0,0.4-0.5,0.5-0.8c0.1-0.3,0.1-0.3,0.3-0.6c0.2-0.3,0.6-1.1,0.7-1.2
						c0.1-0.1,0.3-0.6,0.3-0.6s0,0.1-0.2,0.3c-0.2,0.2-0.3,0.4-0.5,0.7s-0.3,0.7-0.5,0.9C13.6,37.1,13.3,37.9,13.3,38.2z"/>
				</g>
			</g>
		</g>
	</g>
</g>
</svg>
