<?xml version="1.0" encoding="utf-8"?>
<!-- Generator: Adobe Illustrator 18.0.0, SVG Export Plug-In . SVG Version: 6.00 Build 0)  -->
<!DOCTYPE svg PUBLIC "-//W3C//DTD SVG 1.1//EN" "http://www.w3.org/Graphics/SVG/1.1/DTD/svg11.dtd">
<svg version="1.1" id="Layer_1" xmlns="http://www.w3.org/2000/svg" xmlns:xlink="http://www.w3.org/1999/xlink" x="0px" y="0px"
	 viewBox="0 0 48 48" enable-background="new 0 0 48 48" xml:space="preserve">
<g>
	<g>
		<g>
			<g>
				<path fill="#2B4151" d="M26.4,42.5l0.3,0.1c0,0,0.5,1.1,0.6,1.5c0,0.4,0.1,1,0.7,1.5c0.6,0.5,1.6,0.5,1.8,0.4
					c0.2-0.1,0.3-0.5,0.3-0.5s-0.1-1.2-0.5-1.7c-0.4-0.5-0.9-1.5-1.1-1.8c-0.2-0.3-0.4-0.6-0.4-0.6l-2.1-0.6c0,0-0.2-0.1-0.3,0.1
					c-0.1,0.2-0.1,0.2-0.1,0.2S26.3,42.3,26.4,42.5z"/>
			</g>
		</g>
		<g>
			<g>
				<path fill="#2B4151" d="M22.1,47.8c0,0-0.4-0.3-0.4-0.4c0-0.1,0-0.6,0.2-0.9c0.2-0.3,0.7-0.7,0.8-1c0.1-0.2,0.3-0.8,0.3-0.8
					l1.1-0.4l1,0.2l0.1,0.2c0,0,0.2,0.4,0.2,0.8c-0.1,0.3-0.1,0.4-0.1,0.4l-0.8,0.6c0,0,0,0.3,0,0.4c0,0.1-0.2,0.7-0.3,0.8
					C24,47.7,22.1,47.8,22.1,47.8z"/>
			</g>
		</g>
		<g>
			<g>
				<path fill="#425A6B" d="M27.6,19.9c0,0,0.8,3.1,0.8,4.2c0,1.1,0.5,3.8,0.5,4.6s0.1,3.6,0.2,4.2c0.1,0.7,0.2,0.8,0.1,1.2
					s-0.4,3.5-0.5,3.8c-0.1,0.3-0.3,3.2-0.4,3.2c0,0-0.9,1.1-1.7,0.9c-0.8-0.2-1.1-1.1-1-1.4c0,0,0-1.6,0.1-2.2
					c0.1-0.5-0.2-1.2,0-2.9c0.2-1.6-0.1-2.3-0.3-3.1c-0.2-0.8-0.8-3.7-1.2-4.6c-0.4-0.9-0.5-1.2-0.5-1.2s-0.2,2.1-0.2,2.9
					c0,0.8,0.3,3.1,0.2,3.7c-0.1,0.6,0,1.9,0.1,2.4c0.1,0.5,0.9,5.5,1,6c0.1,0.6,0.2,2.2,0,2.9c0,0-1.6-0.3-2.2,0
					c0,0-0.3-0.7-0.4-1.5c-0.1-0.8-0.8-4-1.1-5.1c-0.3-1.1-0.6-3.5-0.6-4.3c0-0.7-1.4-6.1-1.4-6.1s-0.9-2.3-0.4-3.5
					c0.5-1.2,0.5-1.2,0.5-1.2l6.6-0.6L27.6,19.9z"/>
			</g>
		</g>
		<g>
			<g>
				
					<ellipse transform="matrix(0.9937 0.1117 -0.1117 0.9937 0.5526 -2.5824)" fill="#FFD15C" cx="23.3" cy="3.6" rx="0.4" ry="0.9"/>
			</g>
		</g>
		<g>
			<g>
				
					<ellipse transform="matrix(-0.9608 0.2774 -0.2774 -0.9608 38.8357 2.6053)" fill="#FFD15C" cx="19.2" cy="4" rx="0.4" ry="0.9"/>
			</g>
		</g>
		<g>
			<g>
				<g>
					<path fill="#FFD15C" d="M20,7.6c0,0-0.2-1.5-0.3-1.8C19.6,5.5,19,3.9,19,3.1S18.9,1,20.3,0.7c1.4-0.3,2.6,0,2.8,0.9
						c0.2,0.8,0.1,3.1,0,3.4c0,0.2-0.1,0.6,0,1.1c0,0,0,0.1,0,0.1c0,0,0,0.1,0,0.1c0,0.3,0.1,0.7,0.2,0.8c0.3,0.5-0.5,1.6-0.5,1.6
						l-1.7,0.5C21.1,9.2,19.7,8.5,20,7.6z"/>
				</g>
			</g>
			<g>
				<g>
					<path fill="#E8EAE8" d="M20.8,8.8l0.6-0.4c0.1,0.1,0.3,0,0.4-0.1L24,8.2l0.4,2.1l-1.2,9l-2.8-1.7l-1-8.6
						C19.5,9,20,8.2,20.8,8.8z"/>
				</g>
			</g>
			<g>
				<g>
					<path fill="#F05640" d="M21.7,9.3l0,0.2c0,0,0,0.5-0.1,0.9c-0.1,0.4,0,2.4,0,2.9c0,0.6,0.4,4.8,0.4,4.8l1.8-0.1l-0.7-2
						c0,0-0.3-3-0.4-4c-0.1-1-0.5-2.3-0.7-2.6c-0.2-0.3-0.2-0.3-0.2-0.3L21.7,9.3z"/>
				</g>
			</g>
			<g>
				<g>
					<path fill="#F5B54C" d="M21.4,6.5c-0.5,0.1-1.6-0.7-1.6-0.7C19.9,6.3,20,7.6,20,7.6c0,0.1,0,0.2,0,0.2c0.5-0.1,1.1-0.3,1.5-0.6
						c1-0.6,1.6-1.9,1.6-1.9C22.9,5.8,21.8,6.5,21.4,6.5z"/>
				</g>
			</g>
			<g>
				<g>
					<g>
						<path fill="#F26F5A" d="M22.2,8.9c0,0-0.1-0.2-0.1-0.3c0,0,0.5-0.4,0.5-0.6l0.2,0.3C22.9,8.3,22.7,8.8,22.2,8.9z"/>
					</g>
				</g>
				<g>
					<g>
						<path fill="#F26F5A" d="M21.3,9c0.1,0,0.1-0.3,0.1-0.3s-0.4-0.2-0.7-0.4c-0.2-0.2-0.2,0.4-0.2,0.4S20.9,9,21.3,9z"/>
					</g>
				</g>
			</g>
			<g>
				<g>
					<path fill="#F3F3F3" d="M23.1,6.2c0,0-0.1,1.3-1.2,2.1l1.6,0.9L24,7.4C24,7.4,23.3,6.3,23.1,6.2z"/>
				</g>
			</g>
			<g>
				<g>
					<path fill="#F3F3F3" d="M21.5,8.4c0,0-1.4-0.5-1.5-1.3l-0.3,0.5l-0.1,1l0.8,1.4C20.4,10,21.1,8.6,21.5,8.4z"/>
				</g>
			</g>
		</g>
		<g>
			<g>
				<path fill="#425A6B" d="M17.2,9.9l-0.6-0.2c0,0-0.4,0.1-0.4,0.6c-0.1,0.5-0.2,2.4-0.2,2.9c0,0.6,0.1,2.9,0,3.8
					c-0.2,0.8-0.2,2.9-0.2,2.9s-0.1,5.9,0.1,6.7c0,0,0.8-0.6,2.1-0.2c0,0,0.1-1,0-1.3c-0.1-0.3-0.1-0.4,0-1.2c0.1-0.8,0.5-4,0.5-5
					c0-1-0.1-2,0.3-3.4c0.4-1.4,0.3-1.6,0.3-1.6L17.2,9.9z"/>
			</g>
		</g>
		<g>
			<g>
				<path fill="#344A5E" d="M19.5,8c0,0-0.5,0.3-1.1,0.6c-0.6,0.4-1.7,1-1.7,1s0.8,3.7,1.5,4.7c0.7,1,0.7,5.5,0.5,6.7
					c-0.2,1.3,0,4.1,0,4.1s2.4,0.2,3.1,0c0.7-0.2,1.7-1,1.8-2.4c0.1-1.4-0.6-5.4-0.6-5.4s-1.4-0.8-1.9-1.7c-0.6-0.8-1.6-3.9-1.6-4.8
					C19.5,10,19.5,8,19.5,8z"/>
			</g>
		</g>
		<g>
			<path fill="#2B4151" d="M22.4,18.3L22.4,18.3c0.1,0.5,0.7,4,1.1,5.3c0.1-0.3,0.2-0.5,0.2-0.8c0.1-1.4-0.6-5.4-0.6-5.4
				s-0.1-0.1-0.3-0.2C22.5,17.9,22.4,18.3,22.4,18.3L22.4,18.3z"/>
		</g>
		<g>
			<g>
				<path fill="#425A6B" d="M20,7.1L20,7.1c-0.9,0.9-1.3,2.7-1.3,2.7l0.5,0.2l-0.5,0.2c0,0,0.2,2.3,1,3.8c0.8,1.6,1.9,3,3.3,3.4
					c0,0-1-0.9-1.6-1.7c-0.7-0.8-1.4-3.9-1.5-4.6C19.8,10.6,19.9,7.1,20,7.1z"/>
			</g>
		</g>
		<g>
			<g>
				<path fill="#344A5E" d="M30.3,21.7c0.2,0.2-0.5,0.7-2-0.9c0,0,0.2-0.4,1.1-0.1C30.4,20.9,30.3,21.7,30.3,21.7z"/>
			</g>
		</g>
		<g>
			<g>
				<path fill="#425A6B" d="M26.7,7.8l0.5-0.4c0,0,0.5-0.1,0.8,0.6c0.3,0.7,0.9,0.9,1.1,1.5c0.2,0.6,0.3,1.1,0.7,1.7
					c0.4,0.5,1.5,2.6,1.7,2.7c0.2,0.2,0.8,1.4,0.7,2.2C32,16.9,30.4,22,30.4,22s-1.3-1.1-2.1-1.2c0,0,0.2-0.9,0.4-1.2
					c0.2-0.3,0.4-1.1,0.5-1.4c0.1-0.4,0.6-1.7,0.6-1.7s0.1-0.3-0.3-0.5c-0.4-0.2-0.8-1.2-1.1-1.7c-0.3-0.5-1-1.4-1-1.4
					S25.9,9.4,26.7,7.8z"/>
			</g>
		</g>
		<g>
			<g>
				<path fill="#344A5E" d="M23.9,6.9c0,0,0.5,0,0.8,0.2c0.4,0.2,0.6,0.2,1,0.2c0.4,0,1.5,0.1,1.5,0.1s-0.4,3.8,0.3,5.3
					c0,0,0.2,6.4,0.5,7.2c0.3,0.7-0.4,1.5-0.7,1.9c-0.3,0.3-0.2,0.8-0.2,0.8s-1.1,1.6-1.7,1.9c-0.7,0.2-1.4,0.1-1.7-0.4
					c-0.3-0.6-1.2-5.6-1.2-5.6s1.6-5.1,1.6-6.9C24.2,9.5,23.8,7.2,23.9,6.9z"/>
			</g>
		</g>
		<g>
			<g>
				<path fill="#425A6B" d="M23.2,6.3c0,0,0.3,0.7,0.3,1.2s0,5.5-0.1,6.4c-0.1,0.9-0.9,4.4-0.9,4.4s1.2-2.7,1.6-3.9
					c0.4-1.2,0.7-5,0.7-6l-0.6,0.2l0.5-0.6C24.8,8.1,24.1,6.6,23.2,6.3z"/>
			</g>
		</g>
		<g>
			<g>
				<path fill="#FFD15C" d="M28.7,20.6c0,0-0.2,0.3-0.3,0.4c-0.1,0.1-0.6,0.1-0.8,0.3c-0.1,0.1-0.3,0.3-0.5,0.4
					c-0.1,0.1-0.1,0.3,0,0.5c0.1,0.1,0.2,0.1,0.3,0.1c0.1,0,0.1-0.1,0.2-0.2l0.1-0.1v0.4c0,0,0.5,0.6,0.6,1c0,0.4,0,0.6,0,0.6
					s0.9-1.3,1.1-1.7c0.1-0.5,0.9-1.1,0.9-1.1L28.7,20.6z"/>
			</g>
		</g>
		<g>
			<g>
				<path fill="#425A6B" d="M28.7,19.7c-0.2,0.4-0.4,1.1-0.4,1.1c0.8,0,2.1,1.2,2.1,1.2s0.3-1.1,0.7-2.3H28.7z"/>
			</g>
		</g>
		<g>
			<g>
				<path fill="#F5B54C" d="M27.7,22C27.7,22,27.7,22,27.7,22c0-0.1,0.1-0.1,0.1-0.2c0,0,0.1-0.1,0.1-0.1c0,0,0.1,0,0.1,0s0,0,0,0.1
					c0,0-0.1,0.1-0.1,0.1C27.8,21.9,27.8,21.9,27.7,22C27.8,22,27.7,22,27.7,22z"/>
			</g>
		</g>
		<g>
			<g>
				<path fill="#67C5B8" d="M15.9,30.4l2.4-3.4c0.1-0.1,0.2-0.1,0.3,0l2.2,4.6c0.1,0.1,0.1,0.3,0,0.4l-2.3,3.7
					c-0.1,0.1-0.3,0.1-0.4,0l-2.2-4.9C15.8,30.7,15.8,30.6,15.9,30.4z"/>
			</g>
		</g>
		<g>
			<g>
				<path fill="#FFD15C" d="M17.7,27.9c0,0,0.1,1.3,0.7,1l0-0.4c0,0,0.1-0.3,0-0.6c-0.1-0.2-0.2-1.3-0.5-1.6
					C17.5,26,17.5,26,17.5,26l-1.4,0.4c0,0,0,0.5,0,0.7c0,0.2-0.1,0.8,0.2,1c0,0,0.3,0.3,0.4,0.3l0.5,0.4L17.7,27.9z"/>
			</g>
		</g>
		<g>
			<g>
				<path fill="#425A6B" d="M18,24.8h-2.2c0,0.9,0,1.6,0.1,1.9c0,0,0.8-0.6,2.1-0.2c0,0,0.1-1,0-1.3C18,25,18,24.9,18,24.8z"/>
			</g>
		</g>
		<g>
			<g>
				<path fill="#F26F5A" d="M21.4,8.7c0,0,0,0.2-0.1,0.3c0,0,0.3,0.4,0.5,0.6c0,0,0.3-0.1,0.3,0l0.1-0.7c0,0-0.1-0.2-0.1-0.3
					C22.1,8.6,21.7,8.5,21.4,8.7z"/>
			</g>
		</g>
		<g>
			<g>
				<path fill="#425A6B" d="M25.3,45.5c0,0-0.3,0.4-0.5,0.5c-0.2,0.1-0.4,0.4-0.4,0.5c0,0,0.2-0.1,0.2-0.1l0.1,0.4
					c0,0,0.6-0.3,0.7-0.5C25.4,46,25.3,45.6,25.3,45.5z"/>
			</g>
		</g>
		<g>
			<g>
				<path fill="#425A6B" d="M24.4,46.8c0,0-0.1,0.5-0.4,0.6c-0.3,0.2-0.6,0.2-1.1,0.1c-0.5-0.1-0.9,0.1-1.2-0.2c0,0-0.1,0.3,0.2,0.4
					c0.3,0.1,1.5,0.2,1.8,0.1C23.9,47.9,24.5,47.6,24.4,46.8z"/>
			</g>
		</g>
		<g>
			<g>
				<g>
					<path fill="#425A6B" d="M27.3,44.1c0,0,0.1,0.9,0.6,1.2c0.4,0.3,1.1,0.6,1.6,0.6c0.4,0,0.7-0.3,0.7-0.4c0,0,0.1,0.5-0.3,0.7
						c-0.5,0.1-1.3,0-1.7-0.4C27.6,45.4,27.3,44.9,27.3,44.1z"/>
				</g>
			</g>
			<g>
				<g>
					<path fill="#425A6B" d="M26.6,42.8l0.1-0.1c0,0-1.1-1.1-0.9-1.7c0,0-0.2,0.3-0.1,0.5C25.7,41.7,26.4,42.6,26.6,42.8z"/>
				</g>
			</g>
		</g>
	</g>
	<g>
		<g>
			<path fill="#425A6B" d="M22,0.2c-1.6-0.7-2.7,0.7-2.8,0.9c-0.1,0.2-0.5,1.3-0.3,2.2c0,0,0.2,0,0.3,0.4h0.1
				c-0.1-0.3-0.3-1.5-0.1-1.9c0.2-0.5,0.3-0.6,0.6-0.7c0.3-0.1,1.8,0,2.4-0.2c0.7-0.3,1,1.4,1,2.4l0.1,0c0,0,0-0.5,0.2-0.6
				C23.4,2.8,23.6,0.9,22,0.2z"/>
		</g>
	</g>
</g>
</svg>
