<?xml version="1.0" encoding="utf-8"?>
<!-- Generator: Adobe Illustrator 18.0.0, SVG Export Plug-In . SVG Version: 6.00 Build 0)  -->
<!DOCTYPE svg PUBLIC "-//W3C//DTD SVG 1.1//EN" "http://www.w3.org/Graphics/SVG/1.1/DTD/svg11.dtd">
<svg version="1.1" id="Layer_1" xmlns="http://www.w3.org/2000/svg" xmlns:xlink="http://www.w3.org/1999/xlink" x="0px" y="0px"
	 viewBox="0 0 48 48" enable-background="new 0 0 48 48" xml:space="preserve">
<g>
	<g>
		<g>
			<path fill="#66C6B9" d="M39.1,0.1l-33,9c-1.5,0.4-2.4,2-2,3.5l5.4,19.5c0.4,1.5,2,2.4,3.5,2l33-9c1.5-0.4,2.4-2,2-3.5L42.5,2.1
				C42.1,0.6,40.6-0.3,39.1,0.1z"/>
			<g>
				<path fill="#FFFFFF" d="M11.4,26.1l-2.6-9.4c2.4-0.7,3.9-3.2,3.2-5.6L35,4.9c0.7,2.4,3.2,3.8,5.6,3.2l2.6,9.4
					c-2.4,0.7-3.9,3.2-3.2,5.6L17,29.3C16.4,26.9,13.9,25.5,11.4,26.1z"/>
			</g>
			<g>
				<g>
					<circle fill="#66C6B9" cx="15.2" cy="20.1" r="2.2"/>
				</g>
				<g>
					<circle fill="#66C6B9" cx="36.8" cy="14.2" r="2.2"/>
				</g>
			</g>
			<g>
				<path fill="#66C6B9" d="M27.1,23.7l-0.3-1.1c-1.4,0.2-2.8-0.1-4.2-0.8l1-2.2c1,0.5,1.9,0.7,2.6,0.8L25.6,18
					c-1.2,0-2.1-0.1-2.7-0.5c-0.6-0.3-1.1-0.9-1.3-1.8c-0.2-0.9-0.2-1.7,0.3-2.5c0.4-0.7,1.1-1.3,2-1.7l-0.2-0.8l1.7-0.5l0.2,0.8
					c1.1-0.1,2.2,0,3.5,0.4l-0.8,2.2c-0.8-0.3-1.5-0.4-2.1-0.4l0.6,2.3c1.2,0,2.2,0.1,2.8,0.5c0.7,0.3,1.1,1,1.4,1.9
					c0.2,0.9,0.1,1.7-0.3,2.5c-0.4,0.8-1.1,1.3-2.1,1.7l0.3,1.1L27.1,23.7z M24.4,13.8c-0.4,0.3-0.6,0.6-0.4,1s0.4,0.7,0.9,0.8
					L24.4,13.8z M28.4,18.8c-0.1-0.2-0.2-0.4-0.3-0.5c-0.2-0.1-0.4-0.2-0.7-0.2l0.5,1.9C28.4,19.7,28.5,19.3,28.4,18.8z"/>
			</g>
		</g>
		<g>
			<path fill="#415A6B" d="M38.1,21.5H2.1c-1.2,0-2.1,0.9-2.1,2.1v22.3C0,47.1,0.9,48,2.1,48h36.1c1.2,0,2.1-0.9,2.1-2.1V23.6
				C40.2,22.4,39.3,21.5,38.1,21.5z"/>
			<g>
				<rect x="0" y="26.9" fill="#E8EAE9" width="40.2" height="5.8"/>
			</g>
			<g>
				<g>
					<circle fill="#8AD7F8" cx="27.7" cy="40.1" r="3.4"/>
				</g>
				<g>
					<circle fill="#F3705A" cx="31.1" cy="40.1" r="3.4"/>
				</g>
			</g>
			<g>
				<g>
					<rect x="4.4" y="37.2" fill="#344A5E" width="12.3" height="1.7"/>
				</g>
				<g>
					<rect x="4.4" y="41.3" fill="#344A5E" width="12.3" height="1.7"/>
				</g>
			</g>
		</g>
	</g>
</g>
</svg>
