<?xml version="1.0" encoding="utf-8"?>
<!-- Generator: Adobe Illustrator 18.0.0, SVG Export Plug-In . SVG Version: 6.00 Build 0)  -->
<!DOCTYPE svg PUBLIC "-//W3C//DTD SVG 1.1//EN" "http://www.w3.org/Graphics/SVG/1.1/DTD/svg11.dtd">
<svg version="1.1" id="Layer_1" xmlns="http://www.w3.org/2000/svg" xmlns:xlink="http://www.w3.org/1999/xlink" x="0px" y="0px"
	 viewBox="0 0 48 48" enable-background="new 0 0 48 48" xml:space="preserve">
<g>
	<path fill="#F2F2F2" d="M46,12H2c-1.1,0-2,0.9-2,2v4.6h18.2v18.7h11.6V18.6H48V14C48,12.9,47.1,12,46,12z"/>
	<path fill="#ACB3BA" d="M18.3,18.6H0v16.7c0,1.1,0.9,2,2,2h16.3V18.6z"/>
	<path fill="#ACB3BA" d="M48,18.6H29.7v18.7H46c1.1,0,2-0.9,2-2V18.6z"/>
	<g>
		<circle fill="#334A5E" cx="9.1" cy="28" r="8"/>
		<circle fill="#40596B" cx="9.1" cy="28" r="6.9"/>
		<circle fill="#334A5E" cx="9.1" cy="28" r="2.7"/>
	</g>
	<g>
		<circle fill="#334A5E" cx="38.9" cy="28" r="8"/>
		<circle fill="#40596B" cx="38.9" cy="28" r="6.9"/>
		<circle fill="#334A5E" cx="38.9" cy="28" r="2.7"/>
	</g>
	<rect x="8.3" y="13.4" fill="#54C0EB" width="31.5" height="3.6"/>
	<path fill="#40596B" d="M28.2,31.7h-8.3c-0.6,0-1-0.4-1-1v-5c0-0.6,0.4-1,1-1h8.3c0.6,0,1,0.4,1,1v5C29.2,31.3,28.7,31.7,28.2,31.7
		z"/>
	<g>
		<rect x="18.8" y="33.7" fill="#40596B" width="1.9" height="1.7"/>
		<rect x="21" y="33.7" fill="#40596B" width="1.9" height="1.7"/>
		<rect x="23.1" y="33.7" fill="#40596B" width="1.9" height="1.7"/>
		<rect x="25.2" y="33.7" fill="#40596B" width="1.9" height="1.7"/>
		<rect x="27.3" y="33.7" fill="#40596B" width="1.9" height="1.7"/>
	</g>
	<g>
		<circle fill="#334A5E" cx="5" cy="15.2" r="2.4"/>
		<circle fill="#334A5E" cx="43" cy="15.2" r="2.4"/>
	</g>
	<g>
		<rect x="9.1" y="10.7" fill="#ACB3BA" width="4.6" height="1.3"/>
		<g>
			<rect x="23.7" y="11" fill="#ACB3BA" width="2" height="1"/>
			<rect x="28.1" y="11" fill="#ACB3BA" width="2" height="1"/>
			<rect x="32.5" y="11" fill="#ACB3BA" width="2" height="1"/>
			<rect x="36.9" y="11" fill="#ACB3BA" width="2" height="1"/>
		</g>
	</g>
	<g>
		<rect x="18.8" y="20" fill="#FFD15C" width="4.9" height="3.3"/>
		<rect x="24.2" y="20" fill="#FFD15C" width="4.9" height="3.3"/>
	</g>
	<g>
		<path fill="#40596B" d="M27.5,26.4h-6.9c-0.4,0-0.7,0.3-0.6,0.7l0.3,2.4c0,0.3,0.3,0.6,0.6,0.6h6.4c0.3,0,0.6-0.2,0.6-0.6l0.3-2.4
			C28.1,26.7,27.8,26.4,27.5,26.4z"/>
		<g>
			<circle fill="#ACB3BA" cx="21.9" cy="28.5" r="1.1"/>
			<circle fill="#F2F2F2" cx="21.9" cy="28.5" r="0.5"/>
			<circle fill="#ACB3BA" cx="26.1" cy="28.5" r="1.1"/>
			<circle fill="#F2F2F2" cx="26.1" cy="28.5" r="0.5"/>
		</g>
		<g>
			<path fill="#CDD6E0" d="M28.1,27.1l-0.1,1H20l-0.1-1c0-0.4,0.2-0.7,0.6-0.7h6.9C27.8,26.4,28.1,26.7,28.1,27.1z"/>
			<path fill="#CDD6E0" d="M27.9,28.9l-0.1,0.6c0,0.3-0.3,0.6-0.6,0.6h-6.4c-0.3,0-0.6-0.2-0.6-0.6l-0.1-0.6H27.9z"/>
		</g>
	</g>
	<g>
		<rect x="12.6" y="15.4" fill="#84DBFF" width="0.5" height="1.6"/>
		<rect x="15.8" y="15.8" fill="#84DBFF" width="0.5" height="1.2"/>
		<rect x="19" y="15.4" fill="#84DBFF" width="0.5" height="1.6"/>
		<rect x="22.2" y="15.8" fill="#84DBFF" width="0.5" height="1.2"/>
		<rect x="25.4" y="15.4" fill="#84DBFF" width="0.5" height="1.6"/>
		<rect x="28.5" y="15.8" fill="#84DBFF" width="0.5" height="1.2"/>
		<rect x="31.7" y="15.4" fill="#84DBFF" width="0.5" height="1.6"/>
		<rect x="34.9" y="15.8" fill="#84DBFF" width="0.5" height="1.2"/>
	</g>
	<g>
		<circle fill="#CDD6E0" cx="37.8" cy="15.2" r="1.2"/>
		<circle fill="#F2F2F2" cx="37.3" cy="14.7" r="0.2"/>
	</g>
</g>
</svg>
