<?xml version="1.0" encoding="utf-8"?>
<!-- Generator: Adobe Illustrator 18.0.0, SVG Export Plug-In . SVG Version: 6.00 Build 0)  -->
<!DOCTYPE svg PUBLIC "-//W3C//DTD SVG 1.1//EN" "http://www.w3.org/Graphics/SVG/1.1/DTD/svg11.dtd">
<svg version="1.1" id="Layer_1" xmlns="http://www.w3.org/2000/svg" xmlns:xlink="http://www.w3.org/1999/xlink" x="0px" y="0px"
	 viewBox="0 0 48 48" enable-background="new 0 0 48 48" xml:space="preserve">
<g>
	<g>
		<g>
			<g>
				<g>
					<path fill="#F5B54C" d="M45.3,33.8c-1.1-0.5-2.1-1.2-3.1-1.8c-1.1-0.6-2.1-1.2-3.3-1.7c-1.1-0.5-2.2-0.9-3.3-1.4
						c-0.9-0.4-1.9-0.9-2.8-1.3c-0.6-0.3-1.3-0.5-1.9-0.7c-0.9-0.3-1.8-0.6-2.7-0.8c-0.2,0-0.3,0-0.5,0c0.7,0.4,1.3,0.7,1.6,0.8
						c0.6,0.3,2.2,1.4,2.2,1.4s1.2,1.1,2,1.9c0.8,0.8,3.9,1.9,5.4,2.1c1.5,0.2,1.7,0.8,1.7,0.8c-0.1,1.1,0.7,1.1,0.7,1.1l3.2,0
						c0.8,0.2,1.5,0,1.5,0c0.2,0.1,0.3,0.1,0.4,0C46,34.1,45.6,34,45.3,33.8z"/>
				</g>
			</g>
		</g>
		<g>
			<g>
				<g>
					<path fill="#F5B54C" d="M9.9,19c0,0-0.1,1.9,0,2.7c0.1,0.8-0.1,2-0.1,2s0,0.5,0.1,0.8c0.1,0.3-0.1,2.2-0.3,3
						c-0.1,0.9-0.3,2.6-0.3,3.1c0.1,0.5,0,0.6,0.1,1c0.1,0.3,0.1,0.7,0.1,0.7s0.2,0.4,0.4,0.6c0.3,0.2,0.9,0.5,0.9,0.5
						s-0.3,0.5-1.1,0c0,0-0.6-0.2-1.3,0c-0.7,0.2-1.9,0.1-1.9,0.1s-0.3,0.2-0.5-0.1c0,0-0.3,0.1-0.4,0.1c0,0-0.3,0.4-0.6,0.2v-0.1
						c0,0-0.2-0.1-0.2-0.2l0.6-0.2l0.3,0l0.3-0.2l1.2-0.1L9,19.2L9.9,19z"/>
				</g>
			</g>
		</g>
		<g>
			<g>
				<g>
					<path fill="#FFD15C" d="M3.2,13.9c0,0,0.4,0.8,1.5,0.7c1.1-0.1,2.4-0.1,2.9-0.1c0,0-0.7,0.9-0.8,1.2c-0.1,0.3-0.3,1,0.2,1.6
						c0.6,0.6-0.4,1-0.4,1l-3.2,0.2L3.2,13.9z"/>
				</g>
			</g>
		</g>
		<g>
			<g>
				<g>
					<path fill="#FFD15C" d="M1,19.2L0,18.3c0,0-0.2-1.3,0.4-1.8c0,0,0.2-0.2,0.2-0.3c0-0.1,0-0.8,0-1.1c0-0.2,0.3-0.4,0.5-0.2
						c0,0,0,0,0,0c0,0,0.2,0,0.3-0.3c0,0,0.1-0.2,0.2-0.1c0,0-0.1-0.2,0.1-0.3c0,0,0.4-0.1,0.6-0.6c0.1-0.5,0.7-0.1,0.9,0.2
						c0.2,0.4,1.8,2.9,0.7,5.4L1,19.2z"/>
				</g>
			</g>
		</g>
		<g>
			<g>
				<g>
					<g>
						<path fill="#344A5E" d="M0,18.3c0,0,0.5,0.3,1.2-0.7c0.6-1,1.7-0.1,1.7-0.1s0.4,0.9,1.4,0.5c1-0.5,0.8-0.8,0.8-0.8
							s1.3,0.7,1.6,1.4c0.3,0.8-0.6,1.6-0.9,1.7c-0.4,0.2-0.5,0.2-0.5,0.6l-0.4,0.2c0,0-0.6-0.2-0.9,0c-0.3,0.2-2.2,0.3-3-0.7
							C0,19.3,0,18.9,0,18.3z"/>
					</g>
				</g>
			</g>
			<g>
				<g>
					<g>
						<path fill="#344A5E" d="M5.1,20.8c0,0.3,0.1,0.5,0.3,0.8c0.2,0.2,0.4,0.4,0.6,0.6c0.6,0.6,1.1,1.4,1.2,2.2
							c0.2,0.8,0,1.7-0.4,2.5c-0.2,0.3-0.4,0.6-0.5,0.9c-0.2,0.3-0.3,0.7-0.2,1c-0.4-0.3-0.5-0.8-0.5-1.3c0-0.5-0.1-0.9-0.2-1.4
							c-0.3-0.7-1-1.1-1.2-1.7c-0.2-0.6-0.1-1.2,0.2-1.8c0.2-0.6,0.5-1.1,0.6-1.7"/>
					</g>
				</g>
			</g>
			<g>
				<g>
					<path fill="#F26F5A" d="M4.5,21.1c-0.2,0.1,0,0.7,0.2,0.6c0.3-0.1,0.5-0.2,0.8-0.1c0.2-0.1,0-0.9-0.2-0.8
						C5,20.9,4.7,21.1,4.5,21.1z"/>
				</g>
			</g>
		</g>
		<g>
			<g>
				<g>
					
						<ellipse transform="matrix(0.9934 0.1149 -0.1149 0.9934 2.0283 -0.2707)" fill="#FFD15C" cx="3.4" cy="17.5" rx="0.6" ry="1"/>
				</g>
			</g>
		</g>
		<g>
			<g>
				<g>
					<path fill="#FFD15C" d="M8.2,14.4c0,0,1.4-0.4,1.8-0.6c0.4-0.2,1.4-1,2.6-0.7c0,0,0.5,0,1.1,0.6c0.6,0.6,2,0.7,2.5,0.8
						c0.5,0,1.2,0.6,1.2,0.6s0.9,0.9,2.7,1.1c0,0,1,0.4,2.2,1.1c1.2,0.8,3.3,1.6,3.3,1.6s3.3,1.2,4.8,2.9c1.5,1.7,3.6,3.9,4.3,4.7
						s4.8,3.3,4.8,3.3s1.3,0.9,2.5,1.2c1.3,0.4,2.4,1,3,1.3c0.6,0.3,1.7,1.1,1.7,1.1s0.1,0.1,0.3,0.1s0.5,0.1,0.5,0.1
						s0.2,0.1,0.2,0.3l0,0.1l0.3,0.2c0,0,0,0.4-0.3,0.3l-0.2-0.1c0,0-0.2,0.2-0.5,0c0,0-0.7,0.2-1.5,0l-3.2,0c0,0-0.8,0-0.7-1.1
						c0,0-0.3-0.6-1.8-0.8c-1.5-0.2-4.6-1.3-5.5-2.1c-0.9-0.8-2.2-1.9-2.2-1.9s-1.7-1.1-2.4-1.4c-0.7-0.3-4-1.9-4-1.9
						s-0.8-0.5-2.5-0.5c-1.6,0-3.4-1-4.2-2.6c-0.7-1.6-1.5-1.7-2.1-1.9C16.2,20,14.3,20,13,20c0,0-1.8-0.3-3.1-0.2
						c0,0-0.5,0-0.9-0.2L8.2,14.4z"/>
				</g>
			</g>
		</g>
		<g>
			<g>
				<g>
					<g>
						<path fill="#F26F5A" d="M23.6,22.2c0.2-0.9,0.9-1.7,1.4-2.5c0.2-0.3,0.3-0.7,0.4-1c-0.5-0.2-2.2-0.9-3.2-1.5
							c-0.3-0.2-0.6-0.4-0.8-0.5c-0.2,0.1-0.5,0.3-0.7,0.6c-0.4,0.6-0.4,0.9-1.3,2c-0.6,0.7-0.9,1.4-1.1,1.8c0.2,0.2,0.4,0.6,0.6,1
							c0.7,1.6,2.5,2.6,4.1,2.6C23,24,23.4,23,23.6,22.2z"/>
					</g>
				</g>
			</g>
			<g>
				<g>
					<g>
						<path fill="#425A6B" d="M23.2,25.2"/>
					</g>
				</g>
			</g>
		</g>
		<g>
			<g>
				<g>
					<path fill="#F26F5A" d="M14.3,15.1C14,15.8,13,19,13.3,20c-0.1,0-0.2,0-0.3,0c0,0-1.8-0.3-3.1-0.2c0,0-0.5,0-0.9-0.2l-0.8-5.1
						c0,0,1.4-0.4,1.8-0.6c0.4-0.2,1.4-1,2.6-0.7c0,0,0.5,0,1.1,0.6c0.2,0.2,0.5,0.4,0.8,0.5C14.5,14.4,14.4,14.8,14.3,15.1z"/>
				</g>
			</g>
		</g>
		<g>
			<g>
				<g>
					<path fill="#FFD15C" d="M6.2,17.7v-0.5c0,0-0.4-1.4,0.5-2.1c0.9-0.7,1.3-0.8,2-0.7c0,0,1.6-0.5,2.2,0.4
						c0.6,0.9,0.6,2.8,0.6,2.8s0,1.7-0.9,1.9c-1,0.3-1.1,0.1-1.1,0.1s0.1,2.5-0.1,3c-0.2,0.6-0.1,0.9,0,1.3c0.1,0.4,0,2.1-0.1,2.9
						c-0.2,0.8-0.5,3.5-0.4,4.5c0,1,0.1,1.4,0.1,1.4s0.2,0.6,0.2,1c0,0,0.1,0.3,0.5,0.5c0.4,0.2,0.6,0.3,0.6,0.3l0.5,0.2
						c0,0-0.1,0.4-0.8,0.2c0,0-0.6-0.1-0.8-0.2c0,0-0.8,0.1-1.1,0.1c-0.3,0-1,0.2-1.4,0.1c0,0-1,0.1-1.2,0c0,0-0.6,0.4-0.8,0.1
						l0.1-0.1c0,0-0.7,0.4-1.1,0.1l0.4-0.4l1.4-0.5L6.4,34c0,0,0.9-0.9,0.9-2c0.1-1.1-0.1-1.8-0.2-2.3c-0.1-0.5-0.1-3.1,0-4.1
						c0-0.9-0.1-2.1-0.3-3.1C6.5,21.6,6.2,18.1,6.2,17.7z"/>
				</g>
			</g>
		</g>
	</g>
	<g>
		<g>
			<path fill="#F5B54C" d="M4.3,16.6c0,0,0.2-0.7-0.3-2c-0.2-0.1-0.4-0.1-0.5-0.2C3.8,14.8,4.2,15.6,4.3,16.6z"/>
		</g>
	</g>
</g>
</svg>
