<?xml version="1.0" encoding="utf-8"?>
<!-- Generator: Adobe Illustrator 18.0.0, SVG Export Plug-In . SVG Version: 6.00 Build 0)  -->
<!DOCTYPE svg PUBLIC "-//W3C//DTD SVG 1.1//EN" "http://www.w3.org/Graphics/SVG/1.1/DTD/svg11.dtd">
<svg version="1.1" id="Layer_1" xmlns="http://www.w3.org/2000/svg" xmlns:xlink="http://www.w3.org/1999/xlink" x="0px" y="0px"
	 viewBox="0 0 512 512" enable-background="new 0 0 512 512" xml:space="preserve">
<g>
	<rect x="235" y="402" fill="#41596B" width="42" height="39"/>
	<rect x="80.4" y="454.5" fill="#41596B" width="141.1" height="42"/>
	<rect x="290.5" y="454.5" fill="#41596B" width="141.1" height="42"/>
	<rect x="80.4" y="261.6" fill="#CDD5DF" width="351.2" height="21"/>
	<rect x="80.4" y="121.3" fill="#CDD5DF" width="351.2" height="21"/>
	<path fill="#F2F2F2" d="M450.4,2H61.6C28.7,2,2,28.7,2,61.6v0.2c0,32.9,26.7,59.6,59.6,59.6h388.8c32.9,0,59.6-26.7,59.6-59.6v-0.2
		C510,28.7,483.3,2,450.4,2z"/>
	<path fill="#F2F2F2" d="M450.4,142.3H61.6C28.7,142.3,2,169,2,201.9v0.2c0,32.9,26.7,59.6,59.6,59.6h388.8
		c32.9,0,59.6-26.7,59.6-59.6v-0.2C510,169,483.3,142.3,450.4,142.3z"/>
	<path fill="#F2F2F2" d="M450.3,282.6H61.7c-16.5,0-31.4,6.7-42.2,17.4C8.7,310.9,2,325.8,2,342.3c0,33,26.7,59.7,59.7,59.7h388.7
		c16.5,0,31.4-6.7,42.2-17.4c5.3-5.3,9.6-11.6,12.6-18.6c3.2-7.2,4.9-15.2,4.9-23.6C510,309.3,483.3,282.6,450.3,282.6z"/>
	<rect x="221.5" y="440.9" fill="#F2705B" width="69.1" height="69.1"/>
	<polygon fill="#F05540" points="290.5,468 290.5,510 248.6,510 235,496.5 277,454.5 	"/>
	<rect x="235" y="454.5" fill="#FFD05C" width="42" height="42"/>
	<path fill="#CDD5DF" d="M442.1,315.3h-63.3c-0.2,0-0.3,0.1-0.3,0.3V369c0,0.2,0.1,0.3,0.3,0.3h64.7c15.7,0,28.3-13.4,26.9-29.4
		C469.1,325.7,456.3,315.3,442.1,315.3z"/>
	<path fill="#CDD5DF" d="M442.1,34.7h-63.3c-0.2,0-0.3,0.1-0.3,0.3v53.5c0,0.2,0.1,0.3,0.3,0.3h64.7c15.7,0,28.3-13.4,26.9-29.4
		C469.1,45.1,456.3,34.7,442.1,34.7z"/>
	<path fill="#CDD5DF" d="M443.5,175h-64.7c-0.2,0-0.3,0.1-0.3,0.3v53.5c0,0.2,0.1,0.3,0.3,0.3h64.7c14.9,0,27-12.1,27-27
		C470.5,187.1,458.4,175,443.5,175z"/>
	<circle fill="#89D6F7" cx="68.5" cy="61.7" r="27"/>
	<circle fill="#89D6F7" cx="68.5" cy="202" r="27"/>
	<circle fill="#89D6F7" cx="68.5" cy="342.3" r="27"/>
	<circle fill="#65C5B8" cx="142.4" cy="61.7" r="27"/>
	<circle fill="#65C5B8" cx="142.4" cy="202" r="27"/>
	<circle fill="#65C5B8" cx="142.4" cy="342.3" r="27"/>
	<circle fill="#FFD05C" cx="216.4" cy="61.7" r="27"/>
	<circle fill="#FFD05C" cx="216.4" cy="202" r="27"/>
	<circle fill="#FFD05C" cx="216.4" cy="342.3" r="27"/>
</g>
</svg>
