<?xml version="1.0" encoding="utf-8"?>
<!-- Generator: Adobe Illustrator 16.0.0, SVG Export Plug-In . SVG Version: 6.00 Build 0)  -->
<!DOCTYPE svg PUBLIC "-//W3C//DTD SVG 1.1//EN" "http://www.w3.org/Graphics/SVG/1.1/DTD/svg11.dtd">
<svg version="1.1" id="Layer_1" xmlns="http://www.w3.org/2000/svg" xmlns:xlink="http://www.w3.org/1999/xlink" x="0px" y="0px"
	 width="48px" height="48px" viewBox="0 0 48 48" enable-background="new 0 0 48 48" xml:space="preserve">
<g>
	<polygon fill="#F8B64C" points="17.609,32.397 12.412,22.582 19.824,15.107 29.338,16.065 	"/>
	<path fill="#F8B64C" d="M22.988,36.123l4.233-14.12l5.074-3.405l-0.205,3.098c0,0,1.738,2.41-0.08,5.3l-0.382,1.216
		c0,0,0.466,1.639-0.729,2.725l0.009,1.008c0,0,0.108,0.611-0.216,1.486c-0.597,1.607-2.167,2.645-3.883,2.659L22.988,36.123z"/>
	<path fill="#FFD15C" d="M26.422,29.75c0,0,0.138-4.098,5.309-7.369c0,0,2.727,3.064-2.238,6.453
		C29.492,28.834,27.464,30.649,26.422,29.75"/>
	<path fill="#FFD15C" d="M26.223,30.949c0,0,1.355,0.74,4.931-2.592c0,0,1.42,3.411-5.687,4.857L26.223,30.949z"/>
	<path fill="#FFD15C" d="M25.153,33.867c0,0,3.035,0.6,5.508-2.037c0,0,0.316,4.18-6.19,3.801L25.153,33.867z"/>
	<path fill="#F2F2F2" d="M46.084,18.032l-24.297,6.915c-1.063,0.303-2.169-0.313-2.472-1.376L15.3,9.463
		c-0.302-1.063,0.314-2.168,1.376-2.471l24.299-6.916c1.062-0.302,2.168,0.314,2.471,1.377l4.015,14.108
		C47.762,16.623,47.146,17.73,46.084,18.032"/>
	<path fill="#F2F2F2" d="M30.208,22.551l-9.795,2.787c-0.305,0.086-0.621-0.089-0.707-0.394l-0.381-1.343
		c1.573-1.148,2.979-2.52,4.182-4.06c1.214-1.557,2.813-3.345,4.357-4.28c1.214-0.734,4.872-2.393,5.449,1.596
		C33.313,16.857,34.22,19.188,30.208,22.551"/>
	
		<rect x="20.243" y="20.174" transform="matrix(0.9618 -0.2736 0.2736 0.9618 -4.8989 6.982)" fill="#CDD6E0" width="4.671" height="1.756"/>
	
		<rect x="27.17" y="18.202" transform="matrix(0.9618 -0.2738 0.2738 0.9618 -4.097 8.809)" fill="#ACB3BA" width="4.672" height="1.756"/>
	
		<rect x="34.097" y="16.231" transform="matrix(0.9618 -0.2736 0.2736 0.9618 -3.2913 10.6226)" fill="#CDD6E0" width="4.671" height="1.756"/>
	
		<rect x="41.024" y="14.258" transform="matrix(0.9618 -0.2738 0.2738 0.9618 -2.4874 12.4497)" fill="#ACB3BA" width="4.673" height="1.756"/>
	
		<rect x="18.494" y="13.448" transform="matrix(0.9618 -0.2738 0.2738 0.9618 -2.9671 7.3935)" fill="#FFD15C" width="13.023" height="1.757"/>
	
		<rect x="17.019" y="8.522" transform="matrix(0.9618 -0.2737 0.2737 0.9618 -1.7447 6.2961)" fill="#FF7058" width="9.344" height="1.757"/>
	<path fill="#54C0EB" d="M40.072,6.442c0.403,1.42-0.42,2.899-1.84,3.304c-1.42,0.403-2.898-0.42-3.303-1.84
		s0.419-2.898,1.839-3.303S39.668,5.022,40.072,6.442"/>
	<path fill="#84DBFF" d="M43.071,5.589c0.404,1.42-0.419,2.899-1.839,3.303c-1.42,0.404-2.899-0.42-3.303-1.839
		c-0.404-1.42,0.419-2.898,1.839-3.303S42.667,4.168,43.071,5.589"/>
	<path fill="#FFD15C" d="M30.208,22.551c-0.438,0.344-0.91,0.729-1.458,1.109c0,0-2.651,2.438-3.778,8.496
		c0,0-1.968,9.51-10.539,12.234L3.985,34.957l5.522-15.656c0.462-1.307,1.429-2.375,2.686-2.961l4.471-2.09l2.366,8.314
		l-4.401,2.632c-0.282,0.167-0.362,0.534-0.181,0.805c0.127,0.188,0.347,0.278,0.559,0.246c0.07-0.011,0.142-0.036,0.206-0.073
		l2.571-1.546c0.531-0.319,1.043-0.659,1.541-1.026c1.573-1.148,2.979-2.52,4.182-4.06c1.214-1.557,2.813-3.345,4.357-4.28
		c1.003-0.606,3.096-1.595,4.597,0.123c0.807,0.924,1.061,2.227,0.678,3.391C32.802,19.801,32.007,21.139,30.208,22.551"/>
	<path fill="#FFFFFF" d="M31.751,19.463c0.167-0.133,0.321-0.285,0.453-0.465c0.797-1.079,0.568-2.6-0.511-3.396
		c-1.079-0.796-2.6-0.568-3.396,0.512c-0.132,0.18-0.233,0.371-0.311,0.57L31.751,19.463z"/>
	<path fill="#F9C553" d="M15.807,43.879c-0.441,0.195-0.896,0.371-1.376,0.518L3.985,34.957l0.479-1.355
		c0.195,0.088,0.387,0.22,0.56,0.375l10.323,9.341C15.532,43.482,15.689,43.672,15.807,43.879"/>
	<path fill="#40596B" d="M14.897,43.586L4.574,34.241c-0.434-0.392-1.103-0.358-1.494,0.075l-2.344,2.589
		c-0.393,0.433-0.358,1.103,0.074,1.494l10.323,9.344c0.434,0.392,1.102,0.359,1.493-0.073l2.344-2.59
		C15.363,44.646,15.33,43.979,14.897,43.586"/>
</g>
</svg>
