<?xml version="1.0" encoding="utf-8"?>
<!-- Generator: Adobe Illustrator 18.0.0, SVG Export Plug-In . SVG Version: 6.00 Build 0)  -->
<!DOCTYPE svg PUBLIC "-//W3C//DTD SVG 1.1//EN" "http://www.w3.org/Graphics/SVG/1.1/DTD/svg11.dtd">
<svg version="1.1" id="Layer_1" xmlns="http://www.w3.org/2000/svg" xmlns:xlink="http://www.w3.org/1999/xlink" x="0px" y="0px"
	 viewBox="0 0 512 512" enable-background="new 0 0 512 512" xml:space="preserve">
<g>
	<path fill="#CDD6E0" d="M510,23.2C510,11.5,500.5,2,488.8,2H23.2C11.5,2,2,11.5,2,23.2v156.2h508V23.2z"/>
	<path fill="#F2F2F2" d="M2,179.4v309.4c0,11.7,9.5,21.2,21.2,21.2h465.7c11.7,0,21.2-9.5,21.2-21.2V179.4H2z"/>
	<rect x="44.3" y="33.7" fill="#54C0EB" width="423.3" height="113.9"/>
	<rect x="44.3" y="211.1" fill="#FFD15C" width="67.7" height="36.5"/>
	<rect x="133.2" y="211.1" fill="#FF7058" width="67.7" height="36.5"/>
	<rect x="222.1" y="211.1" fill="#FFD15C" width="67.7" height="36.5"/>
	<rect x="311" y="211.1" fill="#FF7058" width="67.7" height="36.5"/>
	<rect x="399.9" y="211.1" fill="#FFD15C" width="67.7" height="36.5"/>
	<rect x="44.3" y="268.8" fill="#CDD6E0" width="67.7" height="36.5"/>
	<rect x="133.2" y="268.8" fill="#CDD6E0" width="67.7" height="36.5"/>
	<rect x="222.1" y="268.8" fill="#CDD6E0" width="67.7" height="36.5"/>
	<rect x="311" y="268.8" fill="#CDD6E0" width="67.7" height="36.5"/>
	<rect x="399.9" y="268.8" fill="#CDD6E0" width="67.7" height="36.5"/>
	<rect x="44.3" y="326.5" fill="#CDD6E0" width="67.7" height="36.5"/>
	<rect x="133.2" y="326.5" fill="#CDD6E0" width="67.7" height="36.5"/>
	<rect x="222.1" y="326.5" fill="#CDD6E0" width="67.7" height="36.5"/>
	<rect x="44.3" y="384.1" fill="#CDD6E0" width="67.7" height="36.5"/>
	<rect x="133.2" y="384.1" fill="#CDD6E0" width="67.7" height="36.5"/>
	<rect x="222.1" y="384.1" fill="#CDD6E0" width="67.7" height="36.5"/>
	<rect x="44.3" y="441.8" fill="#CDD6E0" width="67.7" height="36.5"/>
	<rect x="133.2" y="441.8" fill="#CDD6E0" width="67.7" height="36.5"/>
	<rect x="222.1" y="441.8" fill="#CDD6E0" width="67.7" height="36.5"/>
	<rect x="311" y="326.5" fill="#CDD6E0" width="67.7" height="151.8"/>
	<rect x="399.9" y="326.5" fill="#ACB3BA" width="67.7" height="151.8"/>
</g>
</svg>
