<?xml version="1.0" encoding="utf-8"?>
<!-- Generator: Adobe Illustrator 18.0.0, SVG Export Plug-In . SVG Version: 6.00 Build 0)  -->
<!DOCTYPE svg PUBLIC "-//W3C//DTD SVG 1.1//EN" "http://www.w3.org/Graphics/SVG/1.1/DTD/svg11.dtd">
<svg version="1.1" id="Layer_1" xmlns="http://www.w3.org/2000/svg" xmlns:xlink="http://www.w3.org/1999/xlink" x="0px" y="0px"
	 viewBox="0 0 48 48" enable-background="new 0 0 48 48" xml:space="preserve">
<g>
	<rect x="15" y="8" fill="#CDD6E0" width="2.6" height="5.8"/>
	<rect x="39.4" y="8" fill="#CDD6E0" width="2.6" height="5.8"/>
	<path fill="#FF7058" d="M45,11.9H12.1c-1.7,0-3,1.3-3,3v20.3c0,1.7,1.3,3,3,3H45c1.7,0,3-1.3,3-3V14.9C48,13.3,46.7,11.9,45,11.9z"
		/>
	<path fill="#F2F2F2" d="M6.9,48h-3V1.5C3.9,0.7,4.6,0,5.4,0l0,0c0.8,0,1.5,0.7,1.5,1.5V48z"/>
	<path fill="#F2F2F2" d="M0,7.9L0,7.9c0-0.8,0.7-1.5,1.5-1.5h45c0.8,0,1.5,0.7,1.5,1.5v0c0,0.8-0.7,1.5-1.5,1.5l-45,0
		C0.7,9.4,0,8.7,0,7.9z"/>
	<path fill="#FFFFFF" d="M16.3,28h1.6v7.1h-1.6v-2.8h-2.8v2.8h-1.6V28h1.6v3h2.8V28z"/>
	<path fill="#FFFFFF" d="M25.6,34.1c-0.7,0.7-1.6,1.1-2.7,1.1c-1,0-1.9-0.4-2.7-1.1c-0.7-0.7-1.1-1.6-1.1-2.6c0-1,0.4-1.9,1.1-2.6
		c0.7-0.7,1.6-1.1,2.7-1.1c1,0,1.9,0.4,2.7,1.1c0.7,0.7,1.1,1.6,1.1,2.6C26.6,32.5,26.3,33.4,25.6,34.1z M25,31.5
		c0-0.6-0.2-1.2-0.6-1.6c-0.4-0.4-0.9-0.7-1.5-0.7c-0.6,0-1.1,0.2-1.5,0.7c-0.4,0.4-0.6,1-0.6,1.6c0,0.6,0.2,1.2,0.6,1.6
		c0.4,0.4,0.9,0.7,1.5,0.7c0.6,0,1.1-0.2,1.5-0.7C24.8,32.7,25,32.1,25,31.5z"/>
	<path fill="#FFFFFF" d="M30.8,29.3v5.7h-1.6v-5.7h-2V28h5.6v1.4H30.8z"/>
	<path fill="#FFFFFF" d="M39.1,28v1.4h-3.5v1.5h3.2v1.4h-3.2v1.5h3.6v1.4H34V28H39.1z"/>
	<path fill="#FFFFFF" d="M40.6,35.1V28h1.6v5.7h3v1.4H40.6z"/>
	<polygon fill="#FFFFFF" points="28.5,14.4 30.2,17.7 33.8,18.3 31.2,20.8 31.8,24.5 28.5,22.8 25.3,24.5 25.9,20.8 23.2,18.3 
		26.9,17.7 	"/>
</g>
</svg>
