<?xml version="1.0" encoding="utf-8"?>
<!-- Generator: Adobe Illustrator 18.0.0, SVG Export Plug-In . SVG Version: 6.00 Build 0)  -->
<!DOCTYPE svg PUBLIC "-//W3C//DTD SVG 1.1//EN" "http://www.w3.org/Graphics/SVG/1.1/DTD/svg11.dtd">
<svg version="1.1" id="Layer_1" xmlns="http://www.w3.org/2000/svg" xmlns:xlink="http://www.w3.org/1999/xlink" x="0px" y="0px"
	 viewBox="0 0 48 48" enable-background="new 0 0 48 48" xml:space="preserve">
<g>
	<g>
		<g>
			<polygon fill="#FFD15C" points="43.4,25.8 43.4,48 4.6,48 4.6,25.8 24,9 			"/>
		</g>
		<polygon fill="#F3F3F3" points="43.4,25.8 24,42.6 4.6,25.8 24,9 		"/>
		<g>
			<g>
				<g>
					<g>
						<path fill="#F3705A" d="M18.2,23.7c0,0,13.6-6.2,13.6-16.5c0-4-3.2-7.2-7.2-7.2c-2.8,0-5.3,1.7-6.4,4.1C17,1.6,14.6,0,11.8,0
							c-4,0-7.2,3.2-7.2,7.2C4.6,17.6,18.2,23.7,18.2,23.7z"/>
					</g>
				</g>
				<g>
					<g>
						<path fill="#F3705A" d="M16.1,26.5c1-0.1,1.1-1.3,2.7-0.6c0.3,0.4,0.7,0.6,1.2,0.6c0.5-0.1,0.9-0.6,0.9-1.2
							c0-0.5-0.2-1-0.5-1.5c-0.2-0.4-0.4-0.9-0.7-1.3c-0.1-0.3-0.3-0.6-0.5-0.8c-0.4-0.3-1.3-0.2-1.9,0c-0.1,1.3-1.1,2.1-1.4,2.8
							C15.7,25.2,15.5,26.6,16.1,26.5z"/>
					</g>
				</g>
				<g>
					<g>
						<path fill="#415A6B" d="M21.2,23.5c-1.1,0-2.2-0.2-2.5-0.2c-0.1,0-0.2-0.1-0.3-0.3c0-0.1,0-0.3,0.1-0.4
							c0.1-0.1,1.8-1.9,3.5-1.9c0,0,0,0,0,0c0.6,0,1.1,0.2,1.5,0.7c0.5,0.6,0.5,1,0.3,1.3C23.5,23.3,22.3,23.5,21.2,23.5z
							 M19.6,22.7c1.4,0.2,3.4,0.1,3.6-0.3c0,0,0-0.1-0.2-0.4c-0.3-0.3-0.6-0.4-1-0.4c0,0,0,0,0,0C21.1,21.5,20.2,22.1,19.6,22.7z"
							/>
					</g>
				</g>
				<g>
					<g>
						<path fill="#415A6B" d="M16.8,23.5c-0.2,0-0.4-0.1-0.4-0.3c0-0.2,0.1-0.4,0.3-0.4l1.2-0.1c-0.2-0.1-0.5-0.3-0.8-0.4
							c-0.2-0.1-0.3-0.3-0.3-0.5c0.1-0.2,0.3-0.3,0.5-0.3c1.3,0.4,1.7,1.2,1.8,1.2c0.1,0.1,0.1,0.2,0,0.4c-0.1,0.1-0.2,0.2-0.3,0.2
							L16.8,23.5C16.8,23.5,16.8,23.5,16.8,23.5z"/>
					</g>
				</g>
				<g>
					<g>
						<path fill="#415A6B" d="M18.8,41.6C18.7,41.6,18.7,41.6,18.8,41.6c-0.3-0.1-0.4-0.3-0.4-0.5c0-0.1,1.6-7.3-0.3-9.9
							C16,28.4,17.9,23.2,18,23c0.1-0.2,0.3-0.3,0.5-0.2c0.2,0.1,0.3,0.3,0.2,0.5c0,0.1-1.9,5.1,0,7.6c2.1,2.9,0.5,10.2,0.5,10.5
							C19.1,41.5,18.9,41.6,18.8,41.6z"/>
					</g>
				</g>
			</g>
			<g>
				
					<ellipse transform="matrix(0.8316 -0.5554 0.5554 0.8316 1.438 15.7043)" fill="#FFFFFF" cx="26.6" cy="5.5" rx="1.4" ry="2.6"/>
			</g>
		</g>
		<g>
			<g>
				<g>
					<g>
						<path fill="#FFD15C" d="M29.4,33.7c0,0,9.6-4.4,9.6-11.7c0-2.8-2.3-5.1-5.1-5.1c-2,0-3.7,1.2-4.6,2.9
							c-0.8-1.7-2.6-2.9-4.6-2.9c-2.8,0-5.1,2.3-5.1,5.1C19.8,29.3,29.4,33.7,29.4,33.7z"/>
					</g>
				</g>
				<g>
					<g>
						<path fill="#FFD15C" d="M27.9,35.7c0.7,0,0.8-0.9,1.9-0.4c0.2,0.3,0.5,0.5,0.8,0.4c0.4,0,0.6-0.4,0.6-0.8
							c0-0.4-0.2-0.7-0.3-1.1c-0.2-0.3-0.3-0.6-0.5-0.9c-0.1-0.2-0.2-0.4-0.4-0.5c-0.3-0.2-0.9-0.1-1.3,0c-0.1,0.9-0.8,1.5-1,2
							C27.6,34.7,27.5,35.7,27.9,35.7z"/>
					</g>
				</g>
				<g>
					<g>
						<path fill="#415A6B" d="M31.6,33.6c-0.9,0-1.8-0.2-1.8-0.2c-0.1,0-0.2-0.1-0.3-0.3c0-0.1,0-0.3,0.1-0.4
							c0.1-0.1,1.3-1.4,2.5-1.4c0,0,0,0,0,0c0.5,0,0.9,0.2,1.2,0.5c0.4,0.5,0.4,0.8,0.3,1C33.2,33.5,32.4,33.6,31.6,33.6z
							 M30.7,32.8c0.9,0.1,1.9,0,2.2-0.2c0,0-0.1-0.1-0.1-0.2c-0.2-0.2-0.4-0.3-0.6-0.3c0,0,0,0,0,0C31.6,32.2,31.1,32.5,30.7,32.8z
							"/>
					</g>
				</g>
				<g>
					<g>
						<path fill="#415A6B" d="M28.4,33.6c-0.2,0-0.4-0.1-0.4-0.3c0-0.2,0.1-0.4,0.3-0.4l0.5-0.1c-0.1,0-0.2-0.1-0.3-0.1
							c-0.2-0.1-0.3-0.3-0.3-0.5c0.1-0.2,0.3-0.3,0.5-0.3c0.9,0.3,1.3,0.9,1.3,0.9c0.1,0.1,0.1,0.2,0,0.4c-0.1,0.1-0.2,0.2-0.3,0.2
							L28.4,33.6C28.4,33.6,28.4,33.6,28.4,33.6z"/>
					</g>
				</g>
				<g>
					<g>
						<path fill="#415A6B" d="M28.4,43.6h0.8c-0.1-1.6,0-3.5,0.7-4.5c1.8-2.8,0-5.9,0-6.1c-0.1-0.2-0.3-0.2-0.5-0.1
							c-0.2,0.1-0.2,0.3-0.1,0.5c0,0,1.6,2.8,0.1,5.3C28.5,39.9,28.4,41.9,28.4,43.6z"/>
					</g>
				</g>
			</g>
			<g>
				
					<ellipse transform="matrix(0.8316 -0.5554 0.5554 0.8316 -5.5449 23.1485)" fill="#FFFFFF" cx="35.4" cy="20.7" rx="1" ry="1.9"/>
			</g>
		</g>
		<g>
			<polygon fill="#8AD7F8" points="43.4,25.8 43.4,48 4.6,48 4.6,25.8 24,42.6 			"/>
		</g>
		<g>
			<path fill="#55C0EB" d="M43.4,48L27.2,36.7c-1.9-1.3-4.4-1.3-6.3,0L4.6,48H43.4z"/>
		</g>
	</g>
</g>
</svg>
