<?xml version="1.0" encoding="utf-8"?>
<!-- Generator: Adobe Illustrator 20.1.0, SVG Export Plug-In . SVG Version: 6.00 Build 0)  -->
<!DOCTYPE svg PUBLIC "-//W3C//DTD SVG 1.1//EN" "http://www.w3.org/Graphics/SVG/1.1/DTD/svg11.dtd">
<svg version="1.1" id="Layer_1" xmlns="http://www.w3.org/2000/svg" xmlns:xlink="http://www.w3.org/1999/xlink" x="0px" y="0px"
	 viewBox="0 0 49 49" enable-background="new 0 0 49 49" xml:space="preserve">
<g>
	<rect x="7.5" y="5.6" fill="#CDD6E0" width="4.5" height="8.6"/>
	<rect x="6.4" y="2.8" fill="#E2E2E2" width="6.7" height="2.8"/>
	<path fill="#F2F2F2" d="M43.9,48.5H5.1c-1.1,0-2-0.9-2-2V21.7h42.7v24.8C45.9,47.6,45,48.5,43.9,48.5z"/>
	<path fill="#FF7058" d="M47.9,18.3l-22-17.2c-0.8-0.8-2-0.8-2.8,0l-22,17.2c-1.3,1.3-0.4,3.4,1.4,3.4h44
		C48.3,21.7,49.2,19.5,47.9,18.3z"/>
	<rect x="20.6" y="9.6" fill="#FFFFFF" width="3.3" height="3.3"/>
	<rect x="25.1" y="9.6" fill="#FFFFFF" width="3.3" height="3.3"/>
	<rect x="20.6" y="13.9" fill="#FFFFFF" width="3.3" height="3.3"/>
	<rect x="25.1" y="13.9" fill="#FFFFFF" width="3.3" height="3.3"/>
	<path fill="#4CDBC4" d="M10.5,48.5c0-0.8-0.5-1.4-1.1-1.8c0-0.1,0-0.1,0-0.2c0-1.1-0.9-2-2-2c-0.6,0-1.1,0.3-1.5,0.7
		c-0.3-0.2-0.7-0.3-1.1-0.3c-1.1,0-2,0.9-2,2c0,0,0,0,0,0c-0.1,0-0.1,0-0.2,0c-1,0-1.8,0.7-2,1.6H10.5z"/>
	<path fill="#4CDBC4" d="M38.5,48.5c0-0.8,0.5-1.4,1.1-1.8c0-0.1,0-0.1,0-0.2c0-1.1,0.9-2,2-2c0.6,0,1.1,0.3,1.5,0.7
		c0.3-0.2,0.7-0.3,1.1-0.3c1.1,0,2,0.9,2,2c0,0,0,0,0,0c0.1,0,0.1,0,0.2,0c1,0,1.8,0.7,2,1.6H38.5z"/>
	<rect x="3.1" y="21.7" fill="#E2E2E2" width="42.7" height="1.5"/>
	<g>
		<path fill="#40596B" d="M31,39v9.5H18V39c0-3.6,2.9-6.5,6.5-6.5l0,0C28.1,32.5,31,35.4,31,39z"/>
	</g>
	<rect x="7.7" y="37.7" fill="#FFFFFF" width="5.1" height="5.1"/>
	<rect x="36.2" y="37.7" fill="#FFFFFF" width="5.1" height="5.1"/>
</g>
</svg>
