<?xml version="1.0" encoding="utf-8"?>
<!-- Generator: Adobe Illustrator 16.0.0, SVG Export Plug-In . SVG Version: 6.00 Build 0)  -->
<!DOCTYPE svg PUBLIC "-//W3C//DTD SVG 1.1//EN" "http://www.w3.org/Graphics/SVG/1.1/DTD/svg11.dtd">
<svg version="1.1" id="Layer_1" xmlns="http://www.w3.org/2000/svg" xmlns:xlink="http://www.w3.org/1999/xlink" x="0px" y="0px"
	 width="48px" height="48px" viewBox="0 0 48 48" enable-background="new 0 0 48 48" xml:space="preserve">
<g>
	<path fill="#F8B64C" d="M16.912,32.227v-0.003l0.002,0.002l0.002-0.001v0.002c3.553,4.706,10.621,4.706,14.176,0.001l0.002-0.004
		v0.003v-5.192H16.908v5.193L16.912,32.227z"/>
	<path fill="#F8B64C" d="M16.986,18.752c0.156,1.795-0.713,3.338-1.945,3.445s-2.357-1.261-2.514-3.056
		c-0.158-1.795,0.713-3.337,1.945-3.444C15.703,15.589,16.83,16.957,16.986,18.752"/>
	<path fill="#F8B64C" d="M35.492,19.142c-0.156,1.795-1.283,3.163-2.514,3.056c-1.232-0.107-2.104-1.65-1.945-3.445
		c0.156-1.795,1.283-3.163,2.514-3.055C34.779,15.804,35.65,17.347,35.492,19.142"/>
	<path fill="#FFD15C" d="M34.359,13.207v3.399c0,0.061,0,0.13-0.01,0.19c0.01,0.05,0,0.09,0,0.14c0,0.061,0,0.13-0.01,0.19
		c-0.01,0.55-0.051,1.09-0.121,1.63c0,0.01,0,0.03-0.01,0.04c-0.029,0.27-0.07,0.53-0.109,0.8c-0.16,0.89-0.359,1.771-0.631,2.62
		c-0.85,2.71-2.279,5.21-4.209,7.32l-0.99,1.08c-0.9,0.989-2.18,1.55-3.52,1.55h-1.5c-1.33,0-2.611-0.57-3.51-1.55l-0.98-1.08
		c-1.371-1.49-2.49-3.19-3.32-5c-0.721-1.551-1.23-3.19-1.51-4.891c-0.051-0.27-0.08-0.54-0.121-0.81c0-0.03-0.01-0.05-0.01-0.08
		c-0.068-0.53-0.109-1.08-0.119-1.62v-0.11c0-0.01-0.01-0.01-0.01-0.02c-0.01-0.07-0.01-0.14-0.01-0.21v-0.19
		c-0.01-0.08-0.01-0.149-0.01-0.229v-3.11c0-0.569,0.049-1.13,0.148-1.68v-0.03c0.061-0.39,0.141-0.76,0.25-1.13
		c0.121-0.43,0.271-0.85,0.451-1.25c1.58-3.68,5.24-6.26,9.51-6.26c4.25,0,7.91,2.569,9.49,6.24c0.18,0.409,0.33,0.829,0.459,1.27
		c0.111,0.37,0.201,0.74,0.26,1.13v0.03C34.309,12.117,34.359,12.657,34.359,13.207"/>
	<g opacity="0.1">
		<g>
			<defs>
				<rect id="SVGID_53_" x="21.389" y="27.147" width="9.705" height="8.29"/>
			</defs>
			<clipPath id="SVGID_2_">
				<use xlink:href="#SVGID_53_"  overflow="visible"/>
			</clipPath>
			<path clip-path="url(#SVGID_2_)" fill="#40596B" d="M29.266,29.535l-0.99,1.08c-0.9,0.99-2.18,1.55-3.521,1.55h-1.5
				c-0.646,0-1.279-0.14-1.865-0.391l4.932,3.665c1.803-0.484,3.48-1.532,4.73-3.165c0.014-0.019,0.025-0.033,0.041-0.051
				l0.002-5.075C30.541,27.982,29.945,28.79,29.266,29.535"/>
		</g>
	</g>
	<path fill="#CDD6E0" d="M48,41.038V48H0v-6.962c0-1.91,1.17-3.63,2.949-4.32l5.1-2.01l3.82-1.5l5.031-1.98l0.02,0.011h0.01
		c1.73,2.439,4.4,3.66,7.07,3.66c2.68,0,5.359-1.221,7.08-3.66h0.01l0.01-0.011l5.039,1.98l3.82,1.5l5.1,2.01
		C46.83,37.418,48,39.128,48,41.038"/>
	<polygon fill="#40596B" points="11.869,33.208 11.869,42.638 8.049,42.638 8.049,34.708 	"/>
	<polygon fill="#40596B" points="39.959,34.708 39.959,42.638 36.141,42.638 36.141,33.208 	"/>
	<rect x="8.045" y="42.636" fill="#40596B" width="31.92" height="5.364"/>
	<path fill="#334A5E" d="M13.639,14.558c-0.002,1.254,0.021,3.118,0.16,4.199c0,0.03,0.012,0.05,0.012,0.08l0.67,0.48v-2.66
		c0,0,0.859,1.184,1.584-2.1H13.639z"/>
	<path fill="#334A5E" d="M31.955,14.558c0.725,3.283,1.584,2.1,1.584,2.1v2.66l0.67-0.521c0.01-0.01,0.01-0.029,0.01-0.04
		c0.137-0.812,0.156-2.833,0.152-4.199H31.955z"/>
	<g opacity="0.1">
		<g>
			<defs>
				<rect id="SVGID_55_" x="13.65" y="11.587" width="20.709" height="5.851"/>
			</defs>
			<clipPath id="SVGID_4_">
				<use xlink:href="#SVGID_55_"  overflow="visible"/>
			</clipPath>
			<path clip-path="url(#SVGID_4_)" fill="#40596B" d="M34.359,13.207v3.399c0,0.061,0,0.13-0.01,0.19
				c-3.43,0.43-6.9,0.64-10.34,0.64s-6.92-0.22-10.35-0.64v-0.19c-0.01-0.08-0.01-0.149-0.01-0.229v-3.11
				c0-0.569,0.049-1.13,0.148-1.68c3.371,0.439,6.811,0.66,10.211,0.66s6.84-0.221,10.209-0.66
				C34.309,12.117,34.359,12.657,34.359,13.207"/>
		</g>
	</g>
	<path fill="#FF7058" d="M35.555,12.693v0.654h-23.09v-0.654c0-3.991,2.098-7.495,5.25-9.465c1.713-1.074,3.744-1.697,5.912-1.697
		h0.766c2.168,0,4.193,0.619,5.906,1.693C33.453,5.194,35.555,8.698,35.555,12.693"/>
	<path fill="#F1543F" d="M30.697,6.441l-0.842,6.906l-0.131,1.105h-11.43l-0.133-1.105l-0.84-6.906
		c-0.133-1.097,0.004-2.199,0.395-3.212c1.713-1.075,3.742-1.699,5.91-1.699h0.766c2.168,0,4.193,0.619,5.906,1.695
		C30.688,4.238,30.83,5.34,30.697,6.441"/>
	<path fill="#FF7058" d="M28.744,13.348h-9.469L18.42,6.31C18.014,2.955,20.631,0,24.01,0s5.996,2.955,5.59,6.31L28.744,13.348z"/>
	<path fill="#F1543F" d="M35.465,15.646c-7.602,1.05-15.311,1.05-22.91,0c-0.914-0.126-1.541-0.949-1.4-1.817
		c0.141-0.87,0.963-1.46,1.836-1.34c7.311,1.01,14.727,1.01,22.039,0c0.873-0.12,1.693,0.471,1.834,1.34
		C37.004,14.697,36.379,15.521,35.465,15.646"/>
	<path fill="#40596B" d="M28.824,25.459c-0.615-1.285-2.264-1.87-2.35-1.899c-1.072-0.334-2.057-0.09-2.467,0.046
		c-0.412-0.135-1.402-0.379-2.484-0.042c-0.068,0.025-1.721,0.61-2.338,1.897c-0.283,0.594-0.305,1.229-0.066,1.893l0.313,0.867
		l0.557-0.736c0.066-0.088,1.648-2.145,3.877-1.476l0.143,0.042l0.143-0.042c2.217-0.672,3.803,1.388,3.869,1.476l0.559,0.737
		l0.313-0.867C29.129,26.69,29.105,26.054,28.824,25.459"/>
	<path fill="#40596B" d="M25.145,28.623c0,0.352-0.51,0.637-1.141,0.637c-0.629,0-1.139-0.285-1.139-0.637
		C22.865,28.271,25.145,28.271,25.145,28.623"/>
</g>
</svg>
