<?xml version="1.0" encoding="utf-8"?>
<!-- Generator: Adobe Illustrator 18.0.0, SVG Export Plug-In . SVG Version: 6.00 Build 0)  -->
<!DOCTYPE svg PUBLIC "-//W3C//DTD SVG 1.1//EN" "http://www.w3.org/Graphics/SVG/1.1/DTD/svg11.dtd">
<svg version="1.1" id="Layer_1" xmlns="http://www.w3.org/2000/svg" xmlns:xlink="http://www.w3.org/1999/xlink" x="0px" y="0px"
	 viewBox="0 0 512 512" enable-background="new 0 0 512 512" xml:space="preserve">
<g>
	<path fill="#FFD15C" d="M475.6,334.9L441,165.9c-2.3-11.5-13.5-18.8-25-16.5l-191.9,39.1c-11.5,2.3-18.9,13.5-16.5,25l34.5,169.1
		c2.3,11.5,13.5,18.8,25,16.5L459,359.9C470.5,357.5,477.9,346.4,475.6,334.9z"/>
	<polygon fill="#FF7058" points="346.5,163.5 357.3,216.3 350.3,226.9 339.7,219.9 332.7,230.5 322.1,223.5 315,234 304.4,227 
		293.7,174.3 	"/>
	<polygon fill="#FFFFFF" points="375.1,333.1 389.4,311.4 411.2,325.7 400.7,327.9 405.8,353.2 390.7,356.2 385.6,330.9 	"/>
	<polygon fill="#FFFFFF" points="418.2,324.3 432.6,302.6 454.3,316.9 443.8,319.1 449,344.4 433.9,347.4 428.7,322.2 	"/>
	<path fill="#40596B" d="M509.6,367.7c-2.1-9.9-11.8-16.3-21.7-14.2l-203.1,42c-4.4-7.7-10.7-14.6-18.6-19.8
		c-7.9-5.2-16.7-8.2-25.6-9.2L173.5,43.3c-1-4.8-3.9-9-8-11.7c-4.1-2.7-9.1-3.6-13.9-2.6L78.1,44.9C68.1,47.1,61.8,56.8,64,66.7
		c2.1,9.9,12,16.2,21.8,14.1l55.5-11.9l63.3,305c-7.7,4.4-14.6,10.6-19.8,18.6c-17.8,27-10.2,63.5,16.9,81.2
		c9.6,6.3,20.3,9.4,30.9,9.6c19.6,0.4,38.9-8.9,50.5-26.4c5.2-7.9,8.2-16.7,9.2-25.5l203.1-42C505.3,387.3,511.7,377.6,509.6,367.7z
		 M252.3,436.7c-3.2,4.9-8.2,8.3-13.9,9.5c-5.8,1.2-11.6,0.1-16.6-3.2c-4.9-3.2-8.3-8.2-9.5-13.9c-1.2-5.7-0.1-11.6,3.2-16.5
		c3.2-4.9,8.2-8.3,13.9-9.5c1.7-0.3,3.3-0.5,5-0.5c4.1,0.1,8.1,1.3,11.6,3.6c4.9,3.2,8.3,8.2,9.5,13.9
		C256.6,426,255.5,431.8,252.3,436.7z"/>
	<path fill="#4CDBC4" d="M82.4,38.7L20.3,51.6C7.9,54.2-0.1,66.3,2.5,78.7C5.1,91.1,17.2,99,29.6,96.5l62.1-12.9L82.4,38.7z"/>
</g>
</svg>
