<?xml version="1.0" encoding="utf-8"?>
<!-- Generator: Adobe Illustrator 16.0.0, SVG Export Plug-In . SVG Version: 6.00 Build 0)  -->
<!DOCTYPE svg PUBLIC "-//W3C//DTD SVG 1.1//EN" "http://www.w3.org/Graphics/SVG/1.1/DTD/svg11.dtd">
<svg version="1.1" id="Layer_1" xmlns="http://www.w3.org/2000/svg" xmlns:xlink="http://www.w3.org/1999/xlink" x="0px" y="0px"
	 width="48px" height="48px" viewBox="0 0 48 48" enable-background="new 0 0 48 48" xml:space="preserve">
<g>
	<path fill="#F2F2F2" d="M0,13.835v28.692c0,2.209,1.791,4,4,4h40c2.209,0,4-1.791,4-4V13.835c0-2.209-1.791-4-4-4H4
		C1.791,9.835,0,11.626,0,13.835"/>
	<rect x="4" y="39.478" fill="#CDD6E0" width="40" height="3.049"/>
	<rect x="26.877" y="32.054" fill="#CDD6E0" width="17.123" height="3.049"/>
	<rect x="26.877" y="24.629" fill="#CDD6E0" width="17.123" height="3.049"/>
	<rect x="4" y="17.313" fill="#54C0EB" width="15.863" height="17.79"/>
	<path fill="#FFFFFF" d="M4,35.103v-3.369c0-1.379,0.811-2.608,1.996-2.988c3.878-1.244,7.993-1.244,11.871,0
		c1.185,0.38,1.995,1.609,1.995,2.988v3.369H4z"/>
	<path fill="#FFFFFF" d="M15.226,22.427c0,1.819-1.476,3.294-3.294,3.294c-1.819,0-3.294-1.475-3.294-3.294s1.475-3.294,3.294-3.294
		C13.75,19.133,15.226,20.608,15.226,22.427"/>
	<path fill="#FFFFFF" d="M28.779,14.39h-9.56c-0.771,0-1.395-0.624-1.395-1.394s0.624-1.394,1.395-1.394h9.56
		c0.771,0,1.395,0.624,1.395,1.394S29.55,14.39,28.779,14.39"/>
	<rect x="19.39" y="1.473" fill="#FF7058" width="9.22" height="11.523"/>
</g>
</svg>
