<?xml version="1.0" encoding="utf-8"?>
<!-- Generator: Adobe Illustrator 18.0.0, SVG Export Plug-In . SVG Version: 6.00 Build 0)  -->
<!DOCTYPE svg PUBLIC "-//W3C//DTD SVG 1.1//EN" "http://www.w3.org/Graphics/SVG/1.1/DTD/svg11.dtd">
<svg version="1.1" id="Layer_1" xmlns="http://www.w3.org/2000/svg" xmlns:xlink="http://www.w3.org/1999/xlink" x="0px" y="0px"
	 viewBox="0 0 48 48" enable-background="new 0 0 48 48" xml:space="preserve">
<g>
	<g>
		<g>
			<g>
				<rect x="19.5" y="12.3" transform="matrix(0.7071 -0.7071 0.7071 0.7071 -9.9411 24)" fill="#CED6E0" width="9" height="23.5"/>
			</g>
			<g>
				<g>
					<path fill="#E8EAE9" d="M17.4,3c4,4,4,10.5,0,14.5c-4,4-10.5,4-14.5,0c-2.7-2.7-3.6-6.5-2.6-10L6,13.1l5.6-1.5L13.1,6L7.5,0.4
						C10.9-0.6,14.8,0.3,17.4,3z"/>
				</g>
				<g>
					<path fill="#E8EAE9" d="M30.6,45c-4-4-4-10.5,0-14.5c4-4,10.5-4,14.5,0c2.7,2.7,3.6,6.5,2.6,10L42,34.9l-5.6,1.5L34.9,42
						l5.6,5.6C37.1,48.6,33.2,47.7,30.6,45z"/>
				</g>
			</g>
		</g>
		<g>
			<g>
				<g>
					<g>
						<g>
							<g>
								<path fill="#F3705A" d="M11.9,46l9.6-9.6l-9.9-9.9L2,36.1c-2.7,2.7-2.7,7.1,0,9.9l0,0C4.8,48.7,9.2,48.7,11.9,46z"/>
							</g>
						</g>
						<g>
							<g>
								
									<rect x="14.9" y="25.2" transform="matrix(0.7071 -0.7071 0.7071 0.7071 -18.0871 20.6257)" fill="#F05540" width="1.9" height="14"/>
							</g>
						</g>
						<g>
							<g>
								<path fill="#F3705A" d="M21.4,36.5l-9.9-9.9c-0.7-0.7-0.7-2,0-2.7s2-0.7,2.7,0l9.9,9.9c0.7,0.7,0.7,2,0,2.7
									C23.3,37.2,22.1,37.2,21.4,36.5z"/>
							</g>
						</g>
					</g>
					<g>
						<g>
							<path fill="#F05540" d="M10,31.9L4,37.9c-0.6,0.6-0.6,1.5,0,2.1h0c0.6,0.6,1.5,0.6,2.1,0l6.1-6.1c0.6-0.6,0.6-1.5,0-2.1l0,0
								C11.6,31.3,10.6,31.3,10,31.9z"/>
						</g>
						<g>
							<path fill="#F05540" d="M14,35.9L8,41.9c-0.6,0.6-0.6,1.5,0,2.1l0,0c0.6,0.6,1.5,0.6,2.1,0l6.1-6.1c0.6-0.6,0.6-1.5,0-2.1
								l0,0C15.5,35.3,14.6,35.3,14,35.9z"/>
						</g>
					</g>
				</g>
			</g>
			<g>
				
					<rect x="14.7" y="15.8" transform="matrix(-0.7071 0.7071 -0.7071 -0.7071 63.9276 9.5481)" fill="#E8EAE9" width="30.7" height="4.5"/>
				<polygon fill="#E8EAE9" points="42.4,8.8 45.2,7.7 48,2.2 45.8,0 40.3,2.8 39.2,5.6 				"/>
				<g>
					<polygon fill="#CED6E0" points="39.2,5.6 42.4,8.8 45.2,7.7 40.3,2.8 					"/>
				</g>
			</g>
		</g>
	</g>
</g>
</svg>
