<?xml version="1.0" encoding="utf-8"?>
<!-- Generator: Adobe Illustrator 18.0.0, SVG Export Plug-In . SVG Version: 6.00 Build 0)  -->
<!DOCTYPE svg PUBLIC "-//W3C//DTD SVG 1.1//EN" "http://www.w3.org/Graphics/SVG/1.1/DTD/svg11.dtd">
<svg version="1.1" id="Layer_1" xmlns="http://www.w3.org/2000/svg" xmlns:xlink="http://www.w3.org/1999/xlink" x="0px" y="0px"
	 viewBox="0 0 48 48" enable-background="new 0 0 48 48" xml:space="preserve">
<g>
	<path fill="#FFD15C" d="M27.1,3.9c0-2.2-1.8-3.9-3.9-3.9H6.3C4.1,0,2.3,1.8,2.3,3.9c0,1.7,1.1,3.1,2.6,3.7v9.9c0,2,1.6,3.7,3.7,3.7
		h12.1c2,0,3.7-1.6,3.7-3.7V7.6C26,7.1,27.1,5.6,27.1,3.9z"/>
	<path fill="#F8B64C" d="M40.6,3.9c0-2.2-1.8-3.9-3.9-3.9H19.8c-2.2,0-3.9,1.8-3.9,3.9c0,1.7,1.1,3.1,2.6,3.7v9.9
		c0,2,1.6,3.7,3.7,3.7h12.1c2,0,3.7-1.6,3.7-3.7V7.6C39.5,7.1,40.6,5.6,40.6,3.9z"/>
	<path fill="#F2F2F2" d="M43.9,46.3H2c-1.1,0-2-0.9-2-2V13.2c0-1.1,0.9-2,2-2h41.9c1.1,0,2,0.9,2,2v31.1
		C45.9,45.4,45,46.3,43.9,46.3z"/>
	<path fill="#FF7058" d="M0,41.5v2.9c0,1.1,0.9,2,2,2h41.9c1.1,0,2-0.9,2-2v-2.9H0z"/>
	<rect x="4.6" y="46.3" fill="#CDD6E0" width="7.5" height="1.7"/>
	<rect x="33.8" y="46.3" fill="#CDD6E0" width="7.5" height="1.7"/>
	<path fill="#40596B" d="M46.8,35.6h-0.9V38h0.9c0.7,0,1.2-0.5,1.2-1.2l0,0C48,36.2,47.5,35.6,46.8,35.6z"/>
	<circle fill="#FFFFFF" cx="10.5" cy="4.9" r="2.2"/>
	<circle fill="#FFFFFF" cx="15.9" cy="9.2" r="1.4"/>
	<circle fill="#FFFFFF" cx="25.4" cy="8.4" r="2.2"/>
	<circle fill="#FFFFFF" cx="27.9" cy="3.9" r="1.4"/>
	<circle fill="#FFFFFF" cx="33.6" cy="8.4" r="1.4"/>
	<circle fill="#ACB3BA" cx="33.8" cy="19.8" r="2.1"/>
	<circle fill="#84DBFF" cx="39.6" cy="19.8" r="2.1"/>
</g>
</svg>
