<?xml version="1.0" encoding="utf-8"?>
<!-- Generator: Adobe Illustrator 18.0.0, SVG Export Plug-In . SVG Version: 6.00 Build 0)  -->
<!DOCTYPE svg PUBLIC "-//W3C//DTD SVG 1.1//EN" "http://www.w3.org/Graphics/SVG/1.1/DTD/svg11.dtd">
<svg version="1.1" id="Layer_1" xmlns="http://www.w3.org/2000/svg" xmlns:xlink="http://www.w3.org/1999/xlink" x="0px" y="0px"
	 viewBox="0 0 48 48" enable-background="new 0 0 48 48" xml:space="preserve">
<g>
	<g>
		<path fill="#415A6B" d="M44,0H4C1.8,0,0,1.8,0,4v40c0,2.2,1.8,4,4,4h40c2.2,0,4-1.8,4-4V4C48,1.8,46.2,0,44,0z"/>
		<rect x="4" y="10.3" fill="#F3F3F3" width="40" height="33.7"/>
		<g>
			<circle fill="#FFFFFF" cx="6.4" cy="5.2" r="2.4"/>
			<circle fill="#FFFFFF" cx="13.9" cy="5.2" r="2.4"/>
			<circle fill="#FFFFFF" cx="21.4" cy="5.2" r="2.4"/>
		</g>
		<g>
			<path fill="#F3705A" d="M24,41.1c-7.7,0-13.9-6.3-13.9-13.9c0-7.7,6.3-13.9,13.9-13.9c7.7,0,13.9,6.3,13.9,13.9
				C37.9,34.8,31.7,41.1,24,41.1z"/>
			<path fill="#FFFFFF" d="M24,37.5c-5.7,0-10.3-4.6-10.3-10.3c0-5.7,4.6-10.3,10.3-10.3s10.3,4.6,10.3,10.3
				C34.3,32.8,29.7,37.5,24,37.5z"/>
			<path fill="#F3705A" d="M24,33.8c-3.7,0-6.7-3-6.7-6.7s3-6.7,6.7-6.7s6.7,3,6.7,6.7S27.7,33.8,24,33.8z"/>
			<circle fill="#FFFFFF" cx="24" cy="27.2" r="3"/>
		</g>
		<g>
			<path fill="#415A6B" d="M38.2,12.9c-0.3-0.3-0.7-0.3-0.9,0L23.4,26.8c-0.3,0.3-0.3,0.7,0,0.9c0.3,0.3,0.7,0.3,0.9,0l13.8-13.8
				C38.5,13.6,38.5,13.2,38.2,12.9z"/>
			<g>
				<polygon fill="#415A6B" points="39.8,16 33.6,17.5 35.2,11.4 36.7,14.4 				"/>
			</g>
		</g>
	</g>
</g>
</svg>
