<?xml version="1.0" encoding="utf-8"?>
<!-- Generator: Adobe Illustrator 18.0.0, SVG Export Plug-In . SVG Version: 6.00 Build 0)  -->
<!DOCTYPE svg PUBLIC "-//W3C//DTD SVG 1.1//EN" "http://www.w3.org/Graphics/SVG/1.1/DTD/svg11.dtd">
<svg version="1.1" id="Layer_1" xmlns="http://www.w3.org/2000/svg" xmlns:xlink="http://www.w3.org/1999/xlink" x="0px" y="0px"
	 viewBox="0 0 48 48" enable-background="new 0 0 48 48" xml:space="preserve">
<g>
	<g>
		<g>
			<path fill="#F3F3F3" d="M45,48H3c-1.7,0-3-1.3-3-3V3c0-1.7,1.3-3,3-3h42c1.7,0,3,1.3,3,3v42C48,46.7,46.7,48,45,48z"/>
			<rect x="4" y="4" fill="#8AD7F8" width="40" height="33.8"/>
			<g>
				<polygon fill="#344A5E" points="44,30.9 44,37.8 34,37.8 25.5,29.4 34,20.9 				"/>
			</g>
			<polygon fill="#415A6B" points="4,26.5 4,37.8 34,37.8 13.3,17.2 			"/>
			<circle fill="#F7B64C" cx="24.8" cy="13.3" r="3.9"/>
		</g>
		<polygon fill="#F3F3F3" points="13.3,17.2 23.3,27.1 17.5,24.8 16.9,27.1 14.7,24 11.6,30.5 11.9,23.8 8.2,26 9.1,22.9 6.5,24 		
			"/>
		<polygon fill="#E8EAE9" points="34,20.9 39.3,26.2 37,25.8 35,27.5 34.4,24.4 32.1,29.4 31.9,26.1 30.2,26.4 27.4,27.5 		"/>
	</g>
</g>
</svg>
