<?xml version="1.0" encoding="utf-8"?>
<!-- Generator: Adobe Illustrator 18.0.0, SVG Export Plug-In . SVG Version: 6.00 Build 0)  -->
<!DOCTYPE svg PUBLIC "-//W3C//DTD SVG 1.1//EN" "http://www.w3.org/Graphics/SVG/1.1/DTD/svg11.dtd">
<svg version="1.1" id="Layer_1" xmlns="http://www.w3.org/2000/svg" xmlns:xlink="http://www.w3.org/1999/xlink" x="0px" y="0px"
	 viewBox="0 0 48 48" enable-background="new 0 0 48 48" xml:space="preserve">
<g>
	<g>
		<g>
			<polygon fill="#8AD7F8" points="8.8,0 11.5,5.5 17.6,6.4 13.2,10.7 14.3,16.8 8.8,13.9 3.4,16.8 4.4,10.7 0,6.4 6.1,5.5 			"/>
		</g>
		<g>
			<polygon fill="#8AD7F8" points="39.2,0 41.9,5.5 48,6.4 43.6,10.7 44.6,16.8 39.2,13.9 33.7,16.8 34.8,10.7 30.4,6.4 36.5,5.5 
							"/>
		</g>
		<g>
			<g>
				<g>
					<path fill="#FFD15C" d="M15.1,45.1l-1.6-0.2h-1.6V33.8l1,0l2.5-1.4c3.1-1.7,5.6-4.3,7.2-7.4c0,0,0,0,0-0.1
						c0.2-0.4,0.4-0.8,0.4-1.3l0.4-1.8c0,0,1.2-0.8,1.9,0.8c0,0,1,2.7-0.4,4.9c-0.2,1-1.6,2.1-1.5,3c0,0,0.9,0.7,1.8,0.4
						c0.9-0.3,3.3,0.2,3.8,1.4c0.5,0.8,0.7,2.1-0.9,2.8c0,0,1.1,0.7,1,1.8C29,38.2,28,38.6,28,38.6s0.9,0.8,0.4,1.9
						s-1.1,1.2-1.1,1.2s0.9,1.3,0.3,2.2h0c-0.5,0.6-1.2,1.1-1.9,1.3C22.9,46,19.1,45.6,15.1,45.1z"/>
				</g>
				<path fill="#F3F3F3" d="M23.4,21.9L23,23.7c0,0.2-0.1,0.4-0.2,0.6c0.9,0.1,1.2-0.7,1.3-1.4C24.2,22.3,23.4,21.9,23.4,21.9z"/>
				<g>
					<g>
						<rect x="9" y="33.3" fill="#E8EAE9" width="4.1" height="12.7"/>
						<rect x="0" y="32.8" fill="#415A6B" width="11.1" height="15.2"/>
					</g>
					<circle fill="#344A5E" cx="7.7" cy="44.8" r="1.5"/>
				</g>
			</g>
		</g>
		<g>
			<polygon fill="#F3705A" points="24,0 27.8,7.7 36.3,9 30.2,15 31.6,23.4 24,19.4 16.4,23.4 17.8,15 11.7,9 20.2,7.7 			"/>
		</g>
	</g>
</g>
</svg>
