<?xml version="1.0" encoding="utf-8"?>
<!-- Generator: Adobe Illustrator 18.0.0, SVG Export Plug-In . SVG Version: 6.00 Build 0)  -->
<!DOCTYPE svg PUBLIC "-//W3C//DTD SVG 1.1//EN" "http://www.w3.org/Graphics/SVG/1.1/DTD/svg11.dtd">
<svg version="1.1" id="Layer_1" xmlns="http://www.w3.org/2000/svg" xmlns:xlink="http://www.w3.org/1999/xlink" x="0px" y="0px"
	 viewBox="0 0 48 48" enable-background="new 0 0 48 48" xml:space="preserve">
<g>
	<g>
		<path fill="#415A6B" d="M44.4,6.7V33H3.6V6.7c0-1.1,0.9-2,2-2h36.8C43.5,4.7,44.4,5.6,44.4,6.7z"/>
		<rect x="6.6" y="7.7" fill="#8AD7F8" width="34.7" height="22.3"/>
		<path fill="#CED6E0" d="M47.9,40.2c0-0.1-0.1-0.3-0.1-0.4L44.4,33H3.6l-3.3,6.7c-0.1,0.1-0.1,0.3-0.1,0.4H47.9z"/>
		<path fill="#E8EAE9" d="M0.3,39.8c-0.8,1.6,0.4,3.6,2.2,3.6h43c1.8,0,3-1.9,2.2-3.6"/>
		<polygon fill="#E8EAE9" points="19.9,37.7 20.9,35.5 27.1,35.5 28.1,37.7 		"/>
		<g>
			<g>
				<path fill="#F3705A" d="M29.9,25.1H18.5c-0.7,0-1.3-0.5-1.3-1.2l-0.5-6.2h15.2l-0.5,6.2C31.2,24.6,30.6,25.1,29.9,25.1z"/>
				<g>
					<path fill="#FFFFFF" d="M19.8,19.2L19.8,19.2c-0.5,0.1-0.8,0.5-0.7,0.9l0.4,2.7c0.1,0.5,0.5,0.8,0.9,0.7h0
						c0.5-0.1,0.8-0.5,0.7-0.9l-0.4-2.7C20.7,19.5,20.3,19.2,19.8,19.2z"/>
				</g>
				<g>
					<path fill="#F3705A" d="M26,16.4l2.9-2.9c0.5-0.5,0.5-1.2,0-1.7l0,0c-0.5-0.5-1.2-0.5-1.7,0l-4.4,4.4l1,0.9L26,16.4z"/>
				</g>
				<path fill="#FFFFFF" d="M24.2,19.2L24.2,19.2c-0.5,0-0.8,0.4-0.8,0.8v2.8c0,0.5,0.4,0.8,0.8,0.8h0c0.5,0,0.8-0.4,0.8-0.8V20
					C25,19.6,24.7,19.2,24.2,19.2z"/>
				<g>
					<path fill="#FFFFFF" d="M28.5,19.2L28.5,19.2c-0.5-0.1-0.9,0.3-0.9,0.7l-0.4,2.7c-0.1,0.5,0.3,0.9,0.7,0.9h0
						c0.5,0.1,0.9-0.3,0.9-0.7l0.4-2.7C29.3,19.7,29,19.3,28.5,19.2z"/>
				</g>
			</g>
			<g>
				<path fill="#FFFFFF" d="M31.7,15.3H16.6c-0.7,0-1.2,0.5-1.2,1.2v0c0,0.7,0.5,1.2,1.2,1.2h15.1c0.7,0,1.2-0.5,1.2-1.2v0
					C32.9,15.9,32.4,15.3,31.7,15.3z"/>
			</g>
			<g>
				<circle fill="#415A6B" cx="24.2" cy="16.5" r="0.6"/>
			</g>
		</g>
		<g>
			<g>
				<path fill="#FFFFFF" d="M39.4,18.4l-2.6-2.6c-0.2-0.2-0.6-0.2-0.9,0c-0.2,0.2-0.2,0.6,0,0.9l2.1,2.1L35.9,21
					c-0.2,0.2-0.2,0.6,0,0.9c0.2,0.2,0.6,0.2,0.9,0l2.6-2.6C39.6,19,39.6,18.6,39.4,18.4z"/>
			</g>
			<g>
				<path fill="#FFFFFF" d="M8.6,19.3l2.6,2.6c0.2,0.2,0.6,0.2,0.9,0c0.2-0.2,0.2-0.6,0-0.9L10,18.8l2.1-2.1c0.2-0.2,0.2-0.6,0-0.9
					c-0.2-0.2-0.6-0.2-0.9,0l-2.6,2.6C8.4,18.6,8.4,19,8.6,19.3z"/>
			</g>
		</g>
	</g>
</g>
</svg>
