<?xml version="1.0" encoding="utf-8"?>
<!-- Generator: Adobe Illustrator 18.0.0, SVG Export Plug-In . SVG Version: 6.00 Build 0)  -->
<!DOCTYPE svg PUBLIC "-//W3C//DTD SVG 1.1//EN" "http://www.w3.org/Graphics/SVG/1.1/DTD/svg11.dtd">
<svg version="1.1" id="Layer_1" xmlns="http://www.w3.org/2000/svg" xmlns:xlink="http://www.w3.org/1999/xlink" x="0px" y="0px"
	 viewBox="0 0 48 48" enable-background="new 0 0 48 48" xml:space="preserve">
<g>
	<g>
		<g>
			<g>
				<polygon fill="#FFD15C" points="8.8,0 11.5,5.5 17.6,6.4 13.2,10.7 14.3,16.8 8.8,13.9 3.4,16.8 4.4,10.7 0,6.4 6.1,5.5 				"/>
			</g>
			<g>
				<polygon fill="#FFD15C" points="39.2,0 41.9,5.5 48,6.4 43.6,10.7 44.6,16.8 39.2,13.9 33.7,16.8 34.8,10.7 30.4,6.4 36.5,5.5 
									"/>
			</g>
			<g>
				<polygon fill="#F7B64C" points="24,0 27.8,7.6 36.2,8.9 30.1,14.8 31.5,23.2 24,19.2 16.5,23.2 17.9,14.8 11.8,8.9 20.2,7.6 
									"/>
			</g>
		</g>
		<rect y="36.7" fill="#415A6B" width="16" height="11.3"/>
		<rect x="16" y="26.8" fill="#F3705A" width="16" height="21.2"/>
		<rect x="32" y="32.2" fill="#66C6B9" width="16" height="15.8"/>
	</g>
</g>
</svg>
