<?xml version="1.0" encoding="utf-8"?>
<!-- Generator: Adobe Illustrator 18.0.0, SVG Export Plug-In . SVG Version: 6.00 Build 0)  -->
<!DOCTYPE svg PUBLIC "-//W3C//DTD SVG 1.1//EN" "http://www.w3.org/Graphics/SVG/1.1/DTD/svg11.dtd">
<svg version="1.1" id="Layer_1" xmlns="http://www.w3.org/2000/svg" xmlns:xlink="http://www.w3.org/1999/xlink" x="0px" y="0px"
	 viewBox="0 0 48 48" enable-background="new 0 0 48 48" xml:space="preserve">
<g>
	<g>
		<g>
			<path fill="#344A5E" d="M23.3,6.3c0,0-0.3,1.4,0.1,2.2C23.8,9.3,24,8.8,24,8.8S24.6,6.5,23.3,6.3z"/>
		</g>
	</g>
	<g>
		<g>
			<g>
				<path fill="#425A6B" d="M21.6,18.9l-0.7-0.6c0,0-0.9,0.3-1.3,1.7c-0.3,1.4-0.7,3-0.9,3.8c-0.1,0.8-7.2,14.2-7.2,14.2
					s-0.8,1.7,0.8,4.1c0.5,0.8,1.5,1,2.3,0.5c1.1-0.7,2.6-1.7,3.1-2c0.7-0.6,0.9-0.7,0.9-0.7l3.7-8L21.6,18.9z"/>
			</g>
		</g>
		<g>
			<g>
				<path fill="#CED6E0" d="M29.7,17c0,0,0.2,0.2,0.9,0c0.6-0.1,0.6-0.1,0.6-0.1h4.4l-6.9,12.5l-1.4,1l-0.6-2.5V17.3
					C26.8,17.3,28.5,16.5,29.7,17z"/>
			</g>
		</g>
		<g>
			<g>
				<path fill="#F05640" d="M30.4,19.4l0.1,0.7c0,0,0.4,1.9,0.5,2.3c0.1,0.4-3.3,7-3.3,7l-0.6-2.3c0,0,0.6-2.7,0.8-3.8
					s0.9-3.1,1.2-3.4C29.4,19.6,30.4,19.4,30.4,19.4z"/>
			</g>
		</g>
		<g>
			<g>
				<ellipse fill="#FFD15C" cx="33.7" cy="9.4" rx="1.1" ry="2.1"/>
			</g>
		</g>
		<g>
			<g>
				<g>
					<path fill="#344A5E" d="M37.6,15.2c0,0,2.4,1.2,3.2,1.4c0.8,0.2,5.1,1.8,5.1,1.8S44.1,19,43,20.9c-1.1,1.9-2.2,5.5-2.2,5.5
						l1.6,11l0.4,10.2H18.7c0,0,1.9-7.3,2.1-8.8c0.2-1.5-0.6-11.6-0.6-11.6s-1.1-5.3,0.7-8.8c0,0,2.5-1.5,3.4-1.6
						c0.9-0.1,3.5-1.2,3.5-1.2l-1.4,3.6l0.8,11.5l8-11.2L37.6,15.2z"/>
				</g>
			</g>
			<g>
				<g>
					<path fill="#FFD15C" d="M35.4,10.3l-0.2,1.7c0,0,0.1,0.7,0.4,1.4c0.3,0.7,0.3,0.7,0.3,0.7l-5.6,4.1l-0.7-1.6
						c0,0-2.5,0.2-2.8-0.5c-0.3-0.8-0.6-1-0.8-1.3c-0.2-0.2-1.3-2.1-1.4-3.2c-0.1-1.1-0.1-1.2-0.1-1.2S24.1,9.9,24,9.7
						c-0.1-0.2-0.5-0.4-0.5-0.7c-0.1-1-0.1-2.3-0.2-3.1c-0.1-0.8,0.6-0.8,0.6-0.8l5.3-0.6L34,6.3C34,6.3,35.3,6.7,35.4,10.3z"/>
				</g>
			</g>
			<g>
				<path fill="#F5B54C" d="M33.7,12.7c-0.8,1.8-4.1,4-4.1,4l0.7,1.6C32.6,16.1,33.7,12.7,33.7,12.7z"/>
			</g>
			<g>
				<g>
					<path fill="#F26F5A" d="M28.4,17.1c0,0,2.7,0.5,3.4,0.5c0.7,0,0.7,0,0.7,0s-1.7,1.9-1.9,2.5c0,0-1.1-0.3-1.4-0.2
						C29.2,19.9,29,17.8,28.4,17.1z"/>
				</g>
			</g>
			<g>
				<g>
					<path fill="#F3F3F3" d="M29.9,17.4c-0.3,0-1.2-0.2-1.5,0.6c-0.2,0.5-0.6,0.9-0.8,1.1c-0.3,0.2-0.5,0.3-0.5,0.3l0.6-2.8
						c0,0,0.1,0,0.1,0c0.8,0.1,1.8,0,1.8,0L29.9,17.4z"/>
				</g>
			</g>
			<g>
				<g>
					<path fill="#425A6B" d="M26.7,31.6c0,0,0-0.1,0.1-0.4C26.8,31.5,26.7,31.6,26.7,31.6z"/>
				</g>
				<g>
					<path fill="#425A6B" d="M27.6,24.7c0.3,2.9-0.4,5.5-0.7,6.5c0-0.3-0.1-0.8-0.4-1.6c-0.7-1.7-3-7.7-3-7.7l1.6-1.5L24,19.4
						c0,0,0,0,0.1,0c0.3-0.2,1.4-1.3,1.8-1.8c0.3-0.4,0.8-1,1-1.3c0.2,0.2,0.5,0.3,0.8,0.3c0,0,0.1,0,0.1,0
						c-0.1,0.4-0.2,1.3-0.3,2.5C27.4,20.7,27.4,22.7,27.6,24.7z"/>
				</g>
			</g>
			<g>
				<g>
					<path fill="#F3F3F3" d="M35.2,12.2c0,0,0.3,0.8,0,1.2c-0.3,0.5-4.8,4.1-4.8,4.1c1.1,0.4,2,1.5,2.5,2.1l3.6-4.8
						c0,0-0.1-0.5-0.4-1C35.9,13.4,35.7,12.5,35.2,12.2z"/>
				</g>
			</g>
			<g>
				<g>
					<path fill="#425A6B" d="M35.7,12.9c0,0,0.7,0.3,0.3,1.1c-0.4,0.8-2.6,3.6-3.9,5.4c-1.3,1.8-3.1,5.9-3.5,6.6
						c-0.3,0.7-2,4.7-2.3,5.9c0,0,5.3-6.2,9.5-9.7l-0.6-1.6c0,0,1.9-0.5,2.2-0.7c0,0,0.4-3,0.6-3.7c0.2-0.7,0.2-0.8-0.2-1.2
						c-0.4-0.4-1-1.3-1.2-1.6C36.6,13.1,36.3,12.8,35.7,12.9z"/>
				</g>
			</g>
		</g>
		<g>
			<g>
				<path fill="#425A6B" d="M23.4,8.5c-0.8-1.2-0.5-2.9-0.5-2.9s0.6-2.5,3-4.1c2.4-1.6,4.6-1,5.6-0.7c1,0.2,2.8,1.4,3.1,2
					C35,3.3,36,5.9,35.8,8.4c-0.2,2.5-0.6,3.7-0.6,3.7s-0.1-1.4-0.5-2.7c-0.2-1.2-1.4-2.5-1.7-0.6l0,1.3l-0.6,0.3c0,0-0.7-3-2-3.6
					c0,0-0.7,0.2-1.4-0.4c-0.6-0.6,0-1.1-1.3-1.2c-1.1-0.1-3.5,0.5-4,0.9C23.2,6.6,23.2,7.7,23.4,8.5z"/>
			</g>
		</g>
		<g>
			<g>
				<path fill="#425A6B" d="M46.8,38.4c-0.7,1-1.5,1.1-2,1.1c-0.2,0-1.1-0.1-2.3-0.2c-1.8-0.2-4.2-0.4-5.1-0.5
					c-1.4-0.1-8.3-1.5-8.3-1.5s1.8-6.5,1.7-7.7c0,0,0.7-0.3,1.9,0.2c1.1,0.5,7.3,1.8,7.3,1.8s0.6-4.8,0.8-5.4c0,0,1.2-3.5,2.2-5.5
					c1.1-1.9,2.9-2.5,2.9-2.5c0.8,0.3,1.9,2.4,1.6,3.5c-0.3,1.1-0.4,2.2-0.1,3.2c0.3,1.1,0.6,1.3,0.6,2c0,0.7-0.1,5.2,0,6.4
					C48.1,34.8,47.5,37.4,46.8,38.4z"/>
			</g>
		</g>
		<g>
			<g>
				<path fill="#67C5B8" d="M0,24.3l2.8,9.5l0.8,0.9l15.7,6.5l10.2-2.3l-16.1-6.8L10.2,28c0,0-0.1-0.1-0.1-0.1L0.4,24
					C0.2,23.9-0.1,24.1,0,24.3z"/>
			</g>
		</g>
		<g>
			<g>
				<path fill="#48B9A5" d="M13.5,31.9l-9.9,2.7l-0.8-0.9L0,24.3c-0.1-0.2,0.1-0.4,0.3-0.3l9.7,3.9c0.1,0,0.2,0.1,0.2,0.2L13.5,31.9
					z"/>
			</g>
		</g>
		<g>
			<g>
				<polygon fill="#E8EAE8" points="13,32 4.2,34.4 3.8,34.2 3.2,33.5 0.5,24.4 10,28.2 				"/>
			</g>
		</g>
		<g>
			<g>
				<path fill="#F3F3F3" d="M10.4,20L4.5,30.8c-0.1,0.2,0,0.5,0.2,0.6L19,38c0.2,0.1,0.4,0,0.6-0.1l6.6-8.9c0.2-0.2,0.1-0.5-0.1-0.7
					L11,19.8C10.8,19.7,10.5,19.8,10.4,20z"/>
			</g>
		</g>
		<g>
			<g>
				<g>
					<path fill="#FFD15C" d="M23.9,30.3c0,0,0.2,0.3,0.7,0.4c0,0,0.9,0.2,1.1,0.2c0,0,0.9,0.2,1,0.2c0,0,0.4,0.7,0.6,0.7
						c0,0,0.7,1.6,2.1,1.9c0.7-1,1.2-2,1.4-3.2c0,0,0.2-0.6-0.1-1.3c-0.3-0.6-0.8-1.9-0.8-1.9s-0.2-0.3-0.7-0.5
						c-0.5-0.2-2.1-1-2.1-1s-0.2-0.1-0.6,0c-0.4,0.1-1.3,0.3-1.6,0.5c-0.2,0.2-0.8,0.6-0.9,0.9c-0.1,0.4,0.3,0.4,0.3,0.4l-0.1,0.3
						l-0.5,0.5c0,0,0.6,0.9,1.4-0.1c0,0,0.9-0.2,1-0.3l1,0.5c0,0-0.1,0.2-0.3,0.2c-0.1,0-1-0.1-1-0.1s-0.3-0.1-0.5,0
						c-0.2,0.1-1.4,0.5-1.4,0.5s-0.3,0.1-0.3,0.2l-0.5,0.1C23.3,29.6,23,30.4,23.9,30.3z"/>
				</g>
			</g>
			<g>
				<g>
					<path fill="#F5B54C" d="M24.5,27.7C24.5,27.7,24.5,27.6,24.5,27.7c0-0.1,0.1-0.1,0.1-0.2c0,0,0.1-0.1,0.2-0.2
						c0,0,0.1-0.1,0.1-0.1c0,0,0.1,0,0.1-0.1c0.1,0,0.2-0.1,0.3-0.1c0.1,0,0.2-0.1,0.4-0.1c0.1,0,0.2-0.1,0.4-0.1
						c0.1,0,0.1,0,0.2-0.1c0,0,0.1,0,0.1,0c0,0,0,0,0.1,0l0,0c0,0,0,0,0,0l0,0c0,0,0,0,0,0l0,0l0,0l0,0c0,0,0,0,0,0l0.1,0
						c0,0,0,0,0.1,0l0,0c0.1,0,0.1,0.1,0.2,0.1c0.1,0.1,0.3,0.1,0.4,0.2c0.2,0.1,0.5,0.2,0.7,0.3c0.4,0.2,0.6,0.3,0.6,0.3
						s-0.3-0.1-0.7-0.2c-0.2-0.1-0.4-0.2-0.7-0.3c-0.1,0-0.2-0.1-0.4-0.2c-0.1,0-0.1-0.1-0.2-0.1l0,0l0,0l0,0c0,0,0,0,0,0l0,0l0,0
						l0,0c0,0,0,0,0,0l0,0c0,0,0,0,0,0l0,0c0,0,0,0,0,0c0,0-0.1,0-0.1,0c-0.1,0-0.1,0-0.2,0.1c-0.1,0-0.3,0.1-0.4,0.1
						c-0.2,0.1-0.5,0.2-0.7,0.2c0,0-0.1,0-0.1,0.1c0,0-0.1,0-0.1,0.1c-0.1,0-0.1,0.1-0.2,0.1C24.6,27.6,24.5,27.7,24.5,27.7z"/>
				</g>
			</g>
			<g>
				<g>
					<path fill="#F5B54C" d="M23.9,30.3c0,0,0,0,0.1-0.1c0.1,0,0.2-0.1,0.4-0.2c0.1,0,0.2-0.1,0.2-0.1c0.1,0,0.2-0.1,0.3-0.1
						c0.1,0,0.2,0,0.3-0.1c0.1,0,0.2,0,0.3-0.1c0.1,0,0.2,0,0.3,0c0.1,0,0.1,0,0.2,0c0.1,0,0.1,0,0.1,0c0.2,0,0.4,0.1,0.5,0.1
						c0.2,0,0.3,0,0.4,0c0.1,0,0.1,0,0.1,0s0,0,0,0c0,0-0.1,0-0.1,0c-0.1,0-0.2,0-0.4,0c-0.2,0-0.3,0-0.5,0c-0.1,0-0.2,0-0.3,0
						c-0.1,0-0.2,0-0.3,0c-0.1,0-0.2,0-0.3,0c-0.1,0-0.2,0-0.3,0.1c-0.1,0-0.2,0-0.3,0.1c-0.1,0-0.2,0-0.2,0.1
						C24.1,30.2,23.9,30.3,23.9,30.3z"/>
				</g>
			</g>
		</g>
		<g>
			<g>
				<path fill="#E8EAE8" d="M30.8,30.5c0,0-1.4,3-2.1,3.4l3,1.1C31.8,35.1,31.7,31.2,30.8,30.5z"/>
			</g>
		</g>
		<g>
			<g>
				<path fill="#425A6B" d="M36.3,38.7v-7.8c-1.5-0.4-3.1-0.8-3.6-1c-1.1-0.5-1.9-0.2-1.9-0.2c0.1,1.2-1.7,7.7-1.7,7.7
					S33.9,38.3,36.3,38.7z"/>
			</g>
		</g>
		<g>
			<g>
				<polygon fill="#67C5B8" points="29.6,38.7 19.3,41.1 3.6,34.6 13.5,31.9 				"/>
			</g>
		</g>
		<g>
			<g>
				<path fill="#FFD15C" d="M10.5,37.4l1.4,0.6c0,0,1.4-0.5,1.7-0.2c0.3,0.3,0.3,0.7,0.1,0.8C13.6,38.8,13,39,13,39s0.6-0.1,0.8-0.1
					s1.7-0.2,1.8-0.2c0,0,1.1-0.3,1.5-0.1c0.4,0.2,0.3,0.6,0.3,0.6s0.4-0.3,0.8-0.1c0.4,0.1,0.2,0.6,0.2,0.6s0.4,0.2,0.4,0.5
					c0,0.3-0.6,0.4-1,0.6c-0.3,0.2-1,0.2-1.3,0.3c-0.3,0.1-1.5,0.4-1.5,0.4s-0.6,0.1-0.8-0.1c-0.2-0.3-0.3-0.1-0.5-0.2
					c-0.3-0.1-0.3-0.2-0.5-0.3c-0.2-0.1-0.8-0.1-1-0.3c-0.3-0.2-0.2-0.6-0.7-0.9c-0.5-0.3-0.6-0.8-0.6-1.1
					C10.7,38.2,10.5,37.8,10.5,37.4z"/>
			</g>
		</g>
		<g>
			<g>
				<path fill="#F5B54C" d="M17.3,39.2c0,0,0,0-0.1,0.1c-0.1,0-0.2,0.1-0.4,0.2c-0.1,0-0.2,0.1-0.2,0.1c-0.1,0-0.2,0.1-0.3,0.1
					c-0.1,0-0.2,0.1-0.3,0.1c-0.1,0-0.2,0.1-0.3,0.1c-0.1,0-0.1,0-0.2,0c-0.1,0-0.1,0-0.2,0c-0.1,0-0.2,0-0.3,0.1
					c-0.1,0-0.2,0-0.3,0c-0.1,0-0.2,0-0.3,0c-0.2,0-0.3,0.1-0.4,0.1c-0.1,0-0.1,0-0.1,0s0.1,0,0.1-0.1c0.1,0,0.2-0.1,0.4-0.1
					c0.1,0,0.2,0,0.3-0.1c0.1,0,0.2,0,0.3-0.1c0.1,0,0.2-0.1,0.3-0.1c0.1,0,0.1,0,0.2,0c0.1,0,0.1,0,0.2,0c0.1,0,0.2,0,0.3-0.1
					c0.1,0,0.2-0.1,0.3-0.1c0.1,0,0.2-0.1,0.3-0.1c0.1,0,0.2-0.1,0.2-0.1c0.2-0.1,0.3-0.1,0.4-0.2C17.3,39.2,17.3,39.2,17.3,39.2z"
					/>
			</g>
		</g>
		<g>
			<g>
				<path fill="#F5B54C" d="M18.3,39.7c0,0,0,0-0.1,0.1c-0.1,0.1-0.2,0.1-0.3,0.2c-0.1,0-0.2,0.1-0.3,0.1c-0.1,0-0.2,0-0.3,0.1
					c-0.1,0-0.2,0.1-0.3,0.1c-0.1,0-0.1,0-0.2,0c0,0-0.1,0-0.1,0l0,0l0,0c-0.1,0-0.2,0.1-0.3,0.1c-0.1,0-0.2,0.1-0.3,0.1
					c-0.2,0.1-0.4,0.1-0.5,0.2c-0.1,0-0.2,0-0.2,0.1c-0.1,0-0.1,0-0.2,0c0,0-0.1,0-0.1,0c0,0,0,0,0,0s0,0,0,0c0,0,0.1,0,0.1,0
					c0,0,0.1,0,0.2-0.1c0.1,0,0.1,0,0.2-0.1c0.2-0.1,0.3-0.1,0.5-0.2c0.1,0,0.2-0.1,0.3-0.1c0.1,0,0.2-0.1,0.3-0.1l0,0l0,0
					c0,0,0.1,0,0.1,0c0.1,0,0.1,0,0.2,0c0.1,0,0.2-0.1,0.3-0.1c0.1,0,0.2-0.1,0.3-0.1c0.1,0,0.2,0,0.2-0.1c0.2-0.1,0.3-0.1,0.4-0.2
					C18.2,39.7,18.3,39.7,18.3,39.7z"/>
			</g>
		</g>
		<g>
			<g>
				<path fill="#F5B54C" d="M11.9,38c0,0-0.3,0.2-0.4-0.2L11.9,38z"/>
			</g>
		</g>
	</g>
</g>
</svg>
