<?xml version="1.0" encoding="utf-8"?>
<!-- Generator: Adobe Illustrator 18.0.0, SVG Export Plug-In . SVG Version: 6.00 Build 0)  -->
<!DOCTYPE svg PUBLIC "-//W3C//DTD SVG 1.1//EN" "http://www.w3.org/Graphics/SVG/1.1/DTD/svg11.dtd">
<svg version="1.1" id="Layer_1" xmlns="http://www.w3.org/2000/svg" xmlns:xlink="http://www.w3.org/1999/xlink" x="0px" y="0px"
	 viewBox="0 0 48 48" enable-background="new 0 0 48 48" xml:space="preserve">
<g>
	<g>
		<g>
			<path fill="#FFD15C" d="M48,8.1c-0.6-0.2-1.1-0.4-1.6-0.5c-0.8-0.3-1.7-0.3-2.4,0c-2.5,0.9-4.8,1.9-6.9,3c-1,0.5-1.3,1.8-0.6,2.7
				c0.3,0.4,0.6,0.6,0.6,0.6l7.7,3.7c0,0,1.7,0.6,3.2,1.1V8.1z"/>
		</g>
		<g>
			<path fill="#F7B64C" d="M48,14.5c0-0.2,0-0.4,0-0.6v-1.5c-1.4,0.2-2.5-0.9-2.5-0.9c0.5-1.5,0.2-3.1,0.2-3.1
				c0.1,1.3-0.6,3.2-0.6,3.2c-1.2,1.2-3.9,0.7-3.9,0.7L41,12.9c0.9,0.2,2.6-0.1,2.6-0.1l2.5,2.8c0.3,0.3,1.2,0.9,1.9,1.3V14.5z"/>
		</g>
		<g>
			<g>
				<g>
					<g>
						<g>
							<g>
								<g>
									<path fill="#344A5E" d="M42.9,14.1l1.2-2.7L42.2,10c0.1-0.5,0.1-1.1,0-1.6l2-1.3l-1.1-2.8l-2.3,0.4
										c-0.3-0.4-0.7-0.8-1.1-1.1l0.5-2.3l-2.7-1.2L36.1,2c-0.5-0.1-1-0.1-1.6,0l-1.3-2l-2.8,1.1l0.4,2.3
										c-0.4,0.3-0.8,0.7-1.1,1.1L27.4,4l-1.2,2.7l1.9,1.4c-0.1,0.5-0.1,1,0,1.6l-2,1.3l1.1,2.8l2.3-0.4c0.3,0.4,0.7,0.8,1.1,1.1
										l-0.5,2.3l2.7,1.2l1.4-1.9c0.5,0.1,1,0.1,1.6,0l1.3,2l2.8-1.1l-0.4-2.3c0.4-0.3,0.8-0.7,1.1-1.1L42.9,14.1z M34.1,11.5
										c-1.3-0.6-1.9-2.2-1.3-3.5c0.6-1.3,2.2-1.9,3.5-1.3c1.3,0.6,1.9,2.2,1.3,3.5C37,11.5,35.5,12.1,34.1,11.5z"/>
								</g>
							</g>
						</g>
					</g>
				</g>
			</g>
			<g>
				<path fill="#415A6B" d="M37.1,4.8c-2.3-1-5,0-6.1,2.3c-1,2.3,0,5,2.3,6.1c2.3,1,5,0,6.1-2.3C40.4,8.6,39.4,5.9,37.1,4.8z
					 M37.6,10.1c-0.6,1.3-2.2,1.9-3.5,1.4c-1.3-0.6-1.9-2.2-1.4-3.5c0.6-1.3,2.2-1.9,3.5-1.4C37.6,7.2,38.2,8.8,37.6,10.1z"/>
			</g>
		</g>
		<g>
			<path fill="#FFD15C" d="M48,28.2V17c-1.8-1-3.2-2.7-3.2-2.7s-1-1.8-3.7-3.6c-2.7-1.8-4-0.5-4-0.5c-1.3,1.1-0.8,2.8-0.8,2.8
				c0.3,1.1,4.2,4.2,4.2,4.2c1.8,1,3.8,4.2,3.8,4.2C43.8,23.6,46.8,26.5,48,28.2z"/>
		</g>
		<g>
			<path fill="#F3F3F3" d="M38.2,13.8c0,0-0.3,0.4-0.8-0.2s-1-1.5-1-1.5s-0.3-1.2,0.9-2c1.2-0.8,2.2,0.1,2.2,0.1l0.8,0.8
				c0,0,0.4,0.5-0.1,0.7C39.8,11.9,38.5,13,38.2,13.8z"/>
		</g>
		<g>
			<g>
				<g>
					<g>
						<g>
							<g>
								<g>
									<path fill="#F3705A" d="M3.5,17.8c0.1,0.8,0.4,1.6,0.7,2.4L1.9,23l2.9,3.6L8.1,25c0.7,0.5,1.4,0.9,2.1,1.2l0.4,3.7l4.6,0.5
										l1.2-3.5c0.8-0.1,1.6-0.4,2.3-0.7l2.9,2.3l3.6-2.9l-1.7-3.3c0.5-0.7,0.9-1.4,1.2-2.2l3.7-0.4l0.5-4.6l-3.5-1.1
										c-0.1-0.8-0.4-1.6-0.7-2.4L27,8.6L24.1,5l-3.3,1.7c-0.7-0.5-1.4-0.9-2.1-1.1l-0.4-3.7l-4.6-0.5l-1.2,3.5
										c-0.8,0.1-1.6,0.4-2.3,0.7L7.2,3.3L3.6,6.2l1.7,3.3c-0.5,0.7-0.9,1.4-1.2,2.2L0.5,12L0,16.6L3.5,17.8z M9.9,15.3
										c0.3-2.5,2.5-4.3,5-4.1c2.5,0.3,4.3,2.5,4.1,5c-0.3,2.5-2.5,4.3-5,4.1S9.7,17.8,9.9,15.3z"/>
								</g>
							</g>
							<g>
								<path fill="#F05540" d="M7,15c-0.4,4.1,2.6,7.8,6.7,8.2c4.1,0.4,7.8-2.6,8.2-6.7c0.4-4.1-2.6-7.8-6.7-8.2
									C11.1,8,7.4,11,7,15z M9.9,15.3c0.3-2.5,2.5-4.3,5-4.1c2.5,0.3,4.3,2.5,4.1,5c-0.3,2.5-2.5,4.3-5,4.1
									C11.5,20.1,9.7,17.8,9.9,15.3z"/>
							</g>
						</g>
					</g>
				</g>
			</g>
		</g>
		<g>
			<g>
				<path fill="#F7B64C" d="M29.9,19.5l-1,1.6c-0.7,1.2,1.5,3.9,5,6.1s6.9,3,7.6,1.9l1-1.6L29.9,19.5z"/>
			</g>
			<g>
				
					<ellipse transform="matrix(0.8459 0.5333 -0.5333 0.8459 18.0882 -15.6514)" fill="#FFD15C" cx="36.1" cy="23.5" rx="7.4" ry="2.4"/>
			</g>
		</g>
		<g>
			<g>
				<g>
					<g>
						<path fill="#F7B64C" d="M28.8,33.2v11.6c0,1.8,4.3,3.2,9.6,3.2s9.6-1.4,9.6-3.2V33.2H28.8z"/>
					</g>
				</g>
				<g>
					<g>
						<ellipse fill="#FFD15C" cx="38.4" cy="33.2" rx="9.6" ry="3"/>
					</g>
				</g>
			</g>
			<path fill="#FFD15C" d="M38.4,44.5c4.4,0,8.1-1.1,9.6-2.6v-1.2c-0.4,1.6-4.1,3.2-9.6,3.2c-5.5,0-9.2-1.6-9.6-3.2v1.2
				C30.3,43.4,34,44.5,38.4,44.5z"/>
			<path fill="#FFD15C" d="M38.4,40.7c4.4,0,8.1-1.1,9.6-2.6v-1.2c-0.4,1.6-4.1,3.2-9.6,3.2c-5.5,0-9.2-1.6-9.6-3.2v1.2
				C30.3,39.6,34,40.7,38.4,40.7z"/>
		</g>
		<g>
			<g>
				<path fill="#FFD15C" d="M17.3,46.4l1.4,1.3c1.1,1,4.3-0.8,7.2-4s4.4-6.6,3.3-7.5l-1.4-1.3L17.3,46.4z"/>
			</g>
			<g>
				
					<ellipse transform="matrix(0.6711 -0.7414 0.7414 0.6711 -22.7268 30.1031)" fill="#F7B64C" cx="22.6" cy="40.7" rx="7.8" ry="2.5"/>
			</g>
		</g>
	</g>
</g>
</svg>
