<?xml version="1.0" encoding="utf-8"?>
<!-- Generator: Adobe Illustrator 18.0.0, SVG Export Plug-In . SVG Version: 6.00 Build 0)  -->
<!DOCTYPE svg PUBLIC "-//W3C//DTD SVG 1.1//EN" "http://www.w3.org/Graphics/SVG/1.1/DTD/svg11.dtd">
<svg version="1.1" id="Layer_1" xmlns="http://www.w3.org/2000/svg" xmlns:xlink="http://www.w3.org/1999/xlink" x="0px" y="0px"
	 viewBox="0 0 48 48" enable-background="new 0 0 48 48" xml:space="preserve">
<g>
	<g>
		<g>
			<g>
				<path fill="#F3F3F3" d="M38.8,48H5.2C2.3,48,0,45.7,0,42.8V0h38.8V48z"/>
				<rect x="4" y="30" fill="#CED6E0" width="30.8" height="2.4"/>
				<rect x="4" y="35.8" fill="#CED6E0" width="21.3" height="2.4"/>
			</g>
		</g>
		<g>
			<path fill="#8AD7F8" d="M10.4,42.8c0,2.9-2.3,5.2-5.2,5.2h37.6c2.9,0,5.2-2.3,5.2-5.2H10.4z"/>
		</g>
		<g>
			<g>
				<g>
					<polygon fill="#F05540" points="23.6,16.8 18.2,16.8 19.7,21.5 21.2,26.3 23,23.6 26.1,24.8 					"/>
				</g>
				<g>
					<polygon fill="#F3705A" points="15.2,16.8 12.8,24.8 15.8,23.6 17.6,26.3 20.6,16.8 					"/>
				</g>
			</g>
			<g>
				<path fill="#FFD15C" d="M27.7,11.4c0,0.8-1.2,1.5-1.5,2.2c-0.3,0.8,0.4,2-0.1,2.7c-0.5,0.7-1.8,0.4-2.5,0.9
					c-0.6,0.5-0.9,1.8-1.6,2.1c-0.7,0.2-1.7-0.7-2.6-0.7c-0.8,0-1.8,1-2.6,0.7c-0.8-0.3-1-1.6-1.6-2.1c-0.7-0.5-2-0.3-2.5-0.9
					c-0.5-0.6,0.2-1.9-0.1-2.7c-0.2-0.7-1.5-1.4-1.5-2.2c0-0.8,1.2-1.5,1.5-2.2c0.3-0.8-0.4-2,0.1-2.7c0.5-0.7,1.8-0.4,2.5-0.9
					c0.6-0.5,0.9-1.8,1.6-2.1c0.7-0.2,1.7,0.7,2.6,0.7c0.8,0,1.8-1,2.6-0.7c0.8,0.3,1,1.6,1.6,2.1c0.7,0.5,2,0.3,2.5,0.9
					c0.5,0.6-0.2,1.9,0.1,2.7C26.4,10,27.7,10.6,27.7,11.4z"/>
			</g>
			<g>
				<circle fill="#F7B64C" cx="19.4" cy="11.4" r="5.2"/>
			</g>
		</g>
	</g>
</g>
</svg>
