<?xml version="1.0" encoding="utf-8"?>
<!-- Generator: Adobe Illustrator 18.0.0, SVG Export Plug-In . SVG Version: 6.00 Build 0)  -->
<!DOCTYPE svg PUBLIC "-//W3C//DTD SVG 1.1//EN" "http://www.w3.org/Graphics/SVG/1.1/DTD/svg11.dtd">
<svg version="1.1" id="Layer_1" xmlns="http://www.w3.org/2000/svg" xmlns:xlink="http://www.w3.org/1999/xlink" x="0px" y="0px"
	 viewBox="0 0 48 48" enable-background="new 0 0 48 48" xml:space="preserve">
<g>
	<g>
		<g>
			<g>
				<g>
					<ellipse fill="#F26F5A" cx="25.7" cy="14.9" rx="6.6" ry="8.6"/>
				</g>
			</g>
		</g>
		<g>
			<g>
				<g>
					<path fill="#FFD15C" d="M18.7,20.2l0.9-1.3c0,0,0.9-0.6,1.1-1.2c0.2-0.6,0.2-3.3,0.2-3.3s-0.8-2.4-0.5-5.6
						c0.3-3.2,2.3-5.1,3.6-5.8c1.4-0.7,5-0.7,5-0.7l2.3,3.2c0,0,0.3,8.4-3,11.3c0,0-0.4,1,0,2c0.4,1.1,0.4,1.1,0.4,1.1l0.2,8.7
						L27.2,33l-7.3-1.1C19.8,31.9,17.8,22.2,18.7,20.2z"/>
				</g>
			</g>
		</g>
		<g>
			<g>
				<g>
					<path fill="#F5B54C" d="M25.9,18.9c-1.3,0.2-4-1.6-4.9-4.5c0,0,0.4,2.8,3,6c1.2,1.5,3.3,2.6,5,3.3L28.8,20c0,0,0,0-0.4-1.1
						c-0.4-1.1,0-2,0-2S27.2,18.7,25.9,18.9z"/>
				</g>
			</g>
		</g>
		<g>
			<g>
				<g>
					<path fill="#67C5B8" d="M18.5,48h11.9l-0.9-21.4c-3.5,4-7.2,4-10.9,0c-0.4-0.5,0.4,1.2,0.8,1.7L18.5,48z"/>
				</g>
			</g>
		</g>
		<g>
			<g>
				<g>
					<path fill="#E8EAE8" d="M28.5,19.1c0,0,0-0.1-0.1-0.1c-0.2,1.2-0.6,3.4-1.5,5.6c-1,2.2-2,7.6-2.5,10.9c-0.1-0.5-0.2-1-0.3-1.4
						c-0.6-1.7-3.3-11-3.6-15.1c0,0.2-0.1,0.3-0.1,0.5c-0.1,0.3-0.1,0.7-0.2,1c0.7,4.7,3,12.6,3.5,13.8c0.6,1.6,0.4,3.9,0.4,3.9
						l0.5,0.1c0-0.1,1.4-10.3,2.8-13.5c0.8-1.8,1.2-3.7,1.5-5C28.7,19.5,28.6,19.3,28.5,19.1z"/>
				</g>
			</g>
		</g>
		<g>
			<g>
				<g>
					<g>
						<g>
							<path fill="#344A5E" d="M25.2,48h11.1C35.7,42,35,31.6,35,31.6c-0.1-3.7,2.4-9.5,2.4-9.5c-1.9-0.3-6.3-1.9-6.3-1.9l-0.2,0.3
								l0,0.3l-0.9,1.6l1,2.6l-3.9,15C27.1,40.1,25.9,43.6,25.2,48z"/>
						</g>
					</g>
				</g>
				<g>
					<g>
						<g>
							<path fill="#425A6B" d="M25.2,48c0-0.3,0.1-0.7,0.2-1.1c0.6-3.7,3.7-9.1,4.7-11.8s2.6-11.3,2.6-11.3l-2.2-1l1.6-0.8
								c0,0-0.5-1.5-1-1.9c-0.5-0.4-2.7-1.3-2.7-1.3c-0.1,4.9-1.8,14.4-2.6,17.6c-0.6,2.2-0.8,8-0.9,11.4H25.2z"/>
						</g>
					</g>
				</g>
				<g>
					<g>
						<g>
							<path fill="#425A6B" d="M38.5,48c0.5-1.1,0.9-2.2,1.2-3c1.1-3.3,0.5-6.3,0.4-12.7c-0.1-10.2-2.7-10.2-2.7-10.2
								s-2.3,5.3-2.4,9.1v0c0,0,0,0,0,0c0,0,0,0.1,0,0.1c0,0,0,0,0,0c0,1.3-0.2,10.2-0.7,13c-0.2,1.2-0.7,2.5-1.3,3.7H38.5z"/>
						</g>
					</g>
				</g>
			</g>
			<g>
				<g>
					<g>
						<g>
							<path fill="#344A5E" d="M13,31.6c0,0-0.7,10.4-1.3,16.4h11.1c-0.7-4.4-1.9-7.9-1.9-7.9l-3.9-15l1-2.6l-0.9-1.6l0-0.3
								l-0.2-0.3c0,0-4.3,1.6-6.3,1.9C10.6,22.1,13.1,27.9,13,31.6z"/>
						</g>
					</g>
				</g>
				<g>
					<g>
						<g>
							<path fill="#425A6B" d="M17.9,35.2c1,2.6,4.1,8,4.7,11.8c0.1,0.4,0.1,0.8,0.2,1.1h0.3c-0.1-3.4-0.4-9.2-0.9-11.4
								c-0.8-3.3-2.5-12.8-2.6-17.6c0,0-2.2,0.9-2.7,1.3c-0.5,0.4-1,1.9-1,1.9l1.6,0.8l-2.2,1C15.3,23.9,17,32.5,17.9,35.2z"/>
						</g>
					</g>
				</g>
				<g>
					<g>
						<g>
							<path fill="#425A6B" d="M9.5,48H15c-0.6-1.2-1.1-2.5-1.3-3.7c-0.5-2.9-0.7-11.7-0.7-13c0,0,0,0,0,0c0-0.1,0-0.1,0-0.1
								c0,0,0,0,0,0v0c-0.1-3.7-2.4-9.1-2.4-9.1s-2.6,0-2.7,10.2C7.8,38.7,7.2,41.7,8.3,45C8.6,45.8,9,46.9,9.5,48z"/>
						</g>
					</g>
				</g>
			</g>
		</g>
		<g>
			<g>
				<g>
					<path fill="#F26F5A" d="M27.8,4.5c1.6,0.6,2.7,2.1,3,3.7c0.4,1.6,0.2,3.3-0.2,5c-0.4,1.6-0.9,3.2-1.3,4.9
						c-0.3,1.6-0.4,3.4,0.2,5c0.4,1.1,1.2,2.2,1.3,3.4c0.4-1.2,0.5-2.5,0.2-3.7c0.6,1.3,0.9,2.8,0.9,4.2c1.1-0.6,1.8-1.8,2-3
						c0.2-1.2,0.1-2.5-0.1-3.7c-0.2-1.2-0.5-2.5-0.4-3.7c0-1.4,0.4-2.7,0.6-4.1c0.4-2.4,0.1-5-0.9-7.3c-1-2.2-2.9-4.1-5.2-5
						c0,0-2-0.6-3.6,0S20.9,2.5,20,4.2c-0.9,1.7-1.3,3.7-1.5,5.7c-0.2,2,0.3,8.1-0.8,10.7s-2.4,3.9-2.4,3.9s1.4-0.1,2.1-1.2
						c0,0-1.9,3.5-1.6,7.2c0,0,0.5-3,2.1-4.5c1.6-1.5,3.6-7,3-11.5L20,13.9c0,0,0.1-6.9,2.7-8.7C25.3,3.3,27.8,4.5,27.8,4.5z"/>
				</g>
			</g>
		</g>
	</g>
	<g>
		<g>
			<g>
				<path fill="#F26F5A" d="M27.2,38.2h-5.6c-0.3,0-0.6,0.3-0.6,0.6v8.6c0,0.3,0.3,0.6,0.6,0.6h5.6c0.3,0,0.6-0.3,0.6-0.6v-8.6
					C27.8,38.4,27.5,38.2,27.2,38.2z M25.5,39.2c0,0-0.1,0.1-0.2,0.1h-2c-0.1,0-0.2-0.1-0.2-0.2c0-0.1,0-0.1,0.1-0.2
					c0,0,0.1-0.1,0.2-0.1h2c0.1,0,0.2,0.1,0.2,0.2C25.6,39.1,25.6,39.1,25.5,39.2z"/>
			</g>
		</g>
		<g>
			<g>
				<rect x="21.6" y="39.9" fill="#E8EAE8" width="5.5" height="7.4"/>
			</g>
		</g>
	</g>
	<g>
		<g>
			<path fill="#E8EAE8" d="M24.4,37.1L24.4,37.1c-0.3,0-0.6,0.3-0.6,0.6v1.2c0,0.1,1.3,0.1,1.3,0l0-1.2C25,37.4,24.7,37.1,24.4,37.1
				z"/>
		</g>
	</g>
</g>
</svg>
