<?xml version="1.0" encoding="utf-8"?>
<!-- Generator: Adobe Illustrator 18.0.0, SVG Export Plug-In . SVG Version: 6.00 Build 0)  -->
<!DOCTYPE svg PUBLIC "-//W3C//DTD SVG 1.1//EN" "http://www.w3.org/Graphics/SVG/1.1/DTD/svg11.dtd">
<svg version="1.1" id="Layer_1" xmlns="http://www.w3.org/2000/svg" xmlns:xlink="http://www.w3.org/1999/xlink" x="0px" y="0px"
	 viewBox="0 0 48 48" enable-background="new 0 0 48 48" xml:space="preserve">
<g>
	<g>
		<g>
			<path fill="#FFD15C" d="M18.6,2.5c-1.3,0-2.2,0.6-2.8,1.3c-0.6-0.6-1.4-1-2.4-1c-4.6,0-4.6,7.2,0,7.2c1.3,0,2.2-0.6,2.8-1.3
				c0.6,0.6,1.4,1,2.4,1C23.2,9.7,23.2,2.5,18.6,2.5z"/>
			<path fill="#8AD7F8" d="M31.5,36.3l-0.5-8.9c-0.1-2.6-2-4.8-4.5-5.5l-4.3-1.1l-6.4,2l-6.4-2L5,21.9c-2.5,0.6-4.4,2.9-4.5,5.5
				L0,36.3H31.5z"/>
			<polygon fill="#E8EAE9" points="13.6,36.3 17.9,36.3 19.6,31.8 19.7,21.6 15.8,22.8 11.8,21.6 12,31.8 			"/>
			<g>
				<g>
					<polygon fill="#F3705A" points="13.1,36.3 18.5,36.3 17.2,26.3 18.2,25.3 15.8,22.9 13.4,25.3 14.4,26.3 					"/>
				</g>
			</g>
			<path fill="#F7B64C" d="M11.5,15.3V18c0.3,2.2,4.2,4.8,4.2,4.8s3.9-2.5,4.2-4.8l0-2.7H11.5z"/>
			<path fill="#FFD15C" d="M21.1,6.5c-2.5,0-5.1-0.7-6.8-1.9c-1.1,2-2.7,3.2-4.6,3.8C9.4,9.2,9.3,10,9.3,10.9c0,4.3,2.9,7.9,6.5,7.9
				c3.6,0,6.5-3.5,6.5-7.9C22.2,9.3,21.8,7.8,21.1,6.5z"/>
			<g>
				<g>
					<g>
						<path fill="#FFD15C" d="M23.2,11.2c-0.3,1.4-1.1,2.4-1.8,2.2c-0.7-0.1-1.1-1.3-0.8-2.7c0.3-1.4,1.1-2.4,1.8-2.2
							S23.5,9.8,23.2,11.2z"/>
					</g>
				</g>
				<g>
					<g>
						<path fill="#FFD15C" d="M8.3,11.2c0.3,1.4,1.1,2.4,1.8,2.2c0.7-0.1,1.1-1.3,0.8-2.7c-0.3-1.4-1.1-2.4-1.8-2.2
							S8.1,9.8,8.3,11.2z"/>
					</g>
				</g>
			</g>
			<g>
				<path fill="#415A6B" d="M12.1,6.4c-0.9-0.4-1.8,0.3-1.8,1.2c0.1,1.7,0.2,3.7,0,4.5c-0.9-1.4-1.4-4.2-1.4-5.6
					c0-3.6,3.2-6.4,7-6.4c3.9,0,7,2.9,7,6.4c0,1.5-0.5,4.2-1.4,5.6c-0.1-0.7-0.1-2.8,0-4.5c0.1-0.9-0.9-1.6-1.8-1.2
					C17.3,7.4,14.7,7.4,12.1,6.4z"/>
			</g>
			<g>
				<polygon fill="#F3F3F3" points="15.8,22.8 20,18 21.5,20.6 18.7,26.6 				"/>
				<g>
					<polygon fill="#55C0EB" points="19.7,36.3 24.9,28.4 22.2,26.3 25.4,23.7 20.7,19.2 17,36.3 					"/>
				</g>
			</g>
			<g>
				<polygon fill="#F3F3F3" points="15.8,22.8 11.5,18 10.1,20.6 12.8,26.6 				"/>
			</g>
			<g>
				<polygon fill="#55C0EB" points="6.6,28.4 11.9,36.3 14.5,36.3 10.9,19.2 6.1,23.7 9.3,26.3 				"/>
			</g>
		</g>
		<g>
			<g>
				<g>
					
						<rect x="36.1" y="32.4" transform="matrix(0.8718 -0.4898 0.4898 0.8718 -12.1104 23.3617)" fill="#344A5E" width="4.9" height="4.9"/>
				</g>
				<g>
					<g>
						<g>
							<path fill="#F3705A" d="M36.8,39.4c1.1,2.9,2.1,5.4,2.6,6.2c1.2,2.2,4,3,6.2,1.8c2.2-1.2,3-4,1.8-6.2c-0.5-0.8-2.1-3.1-4-5.5
								L36.8,39.4z"/>
						</g>
					</g>
				</g>
				<g>
					<g>
						<g>
							<path fill="#F05540" d="M44.7,37.4c-0.4-0.5-0.8-1.1-1.3-1.7l-6.6,3.7c0.3,0.7,0.5,1.4,0.7,2L44.7,37.4z"/>
						</g>
					</g>
				</g>
				<g>
					<g>
						<path fill="#F3705A" d="M43.8,36.3L37.1,40c-0.7,0.4-1.5,0.1-1.9-0.5c-0.4-0.7-0.1-1.5,0.5-1.9l6.6-3.7
							c0.7-0.4,1.5-0.1,1.9,0.5C44.7,35.1,44.4,35.9,43.8,36.3z"/>
					</g>
				</g>
			</g>
			<g>
				<circle fill="#FFFFFF" cx="32.5" cy="24" r="11"/>
				<path fill="#415A6B" d="M38.6,34.8c-6,3.4-13.6,1.2-16.9-4.8s-1.2-13.6,4.8-16.9s13.6-1.2,16.9,4.8
					C46.7,23.9,44.6,31.5,38.6,34.8z M27.8,15.6c-4.6,2.6-6.2,8.4-3.6,13s8.4,6.2,13,3.6c4.6-2.6,6.2-8.4,3.6-13
					S32.4,13.1,27.8,15.6z"/>
			</g>
			<g>
				<g>
					<rect x="25.4" y="25.7" fill="#FFD15C" width="3.4" height="3.7"/>
				</g>
				<g>
					<rect x="30.8" y="21.2" fill="#66C6B9" width="3.4" height="8.2"/>
				</g>
				<g>
					<rect x="36.2" y="18.5" fill="#F3705A" width="3.4" height="10.9"/>
				</g>
			</g>
		</g>
	</g>
</g>
</svg>
