<?xml version="1.0" encoding="utf-8"?>
<!-- Generator: Adobe Illustrator 18.0.0, SVG Export Plug-In . SVG Version: 6.00 Build 0)  -->
<!DOCTYPE svg PUBLIC "-//W3C//DTD SVG 1.1//EN" "http://www.w3.org/Graphics/SVG/1.1/DTD/svg11.dtd">
<svg version="1.1" id="Layer_1" xmlns="http://www.w3.org/2000/svg" xmlns:xlink="http://www.w3.org/1999/xlink" x="0px" y="0px"
	 viewBox="0 0 48 48" enable-background="new 0 0 48 48" xml:space="preserve">
<g>
	<circle fill="#40596B" cx="24" cy="24" r="24"/>
	<path fill="#FF7058" d="M31.1,24c0,0,0,0.1,0,0.1c0,2.4-1.1,4.5-2.9,5.8l8.1,11.5c5.5-3.9,9.1-10.2,9.1-17.5H31.1z"/>
	<path fill="#FF7058" d="M16.6,24.1H2.5c0,7.2,3.6,13.6,9.1,17.5l8.1-11.5C17.8,28.8,16.6,26.6,16.6,24.1z"/>
	<path fill="#FF7058" d="M24,2.7c-4.6,0-8.8,1.4-12.2,3.9l8.1,11.6c1.1-0.8,2.5-1.2,4-1.2c1.6,0,3,0.5,4.2,1.3l8.2-11.7
		C32.8,4.1,28.6,2.7,24,2.7z"/>
	<circle fill="#FFFFFF" cx="24" cy="24" r="4.2"/>
</g>
</svg>
