<?xml version="1.0" encoding="utf-8"?>
<!-- Generator: Adobe Illustrator 18.0.0, SVG Export Plug-In . SVG Version: 6.00 Build 0)  -->
<!DOCTYPE svg PUBLIC "-//W3C//DTD SVG 1.1//EN" "http://www.w3.org/Graphics/SVG/1.1/DTD/svg11.dtd">
<svg version="1.1" id="Layer_1" xmlns="http://www.w3.org/2000/svg" xmlns:xlink="http://www.w3.org/1999/xlink" x="0px" y="0px"
	 viewBox="0 0 48 48" enable-background="new 0 0 48 48" xml:space="preserve">
<g>
	<g>
		<path fill="#F7B64C" d="M40.5,37.5V48h-33V37.5c0-2.2,1.5-4.2,3.7-4.7c2.1-0.5,4.3-0.8,6.4-1.1c1.4-0.2,2.4-1.3,2.4-2.7v-1.8h8V29
			c0,1.4,1,2.6,2.4,2.7c2.1,0.2,4.3,0.6,6.4,1.1C39,33.3,40.5,35.3,40.5,37.5z"/>
		<g>
			<g>
				<circle fill="#344A5E" cx="24" cy="5.3" r="5.3"/>
			</g>
			<g>
				<path fill="#415A6B" d="M30.7,24.5c1.4-3.9,2.2-8,2.2-10.3c0-4.9-4-8.9-8.9-8.9s-8.9,4-8.9,8.9c0,2.2,0.8,6.4,2.2,10.3H30.7z"/>
			</g>
			<path fill="#FFD15C" d="M23.4,14.8c-2.3,0-4.2-0.4-6-1.2c-0.9,1.7-1.4,3.7-1.4,6c0,5.8,3.6,10.6,8,10.6s8-4.7,8-10.6
				c0-2.4-0.6-4.7-1.7-6.5C28.4,14.2,26.1,14.8,23.4,14.8z"/>
			<g>
				<g>
					<g>
						<path fill="#FFD15C" d="M33.7,20.9c-0.3,1.5-1.1,2.6-1.9,2.4c-0.8-0.2-1.3-1.5-1-3c0.2-1.5,1.1-2.7,1.9-2.5
							C33.5,17.9,34,19.3,33.7,20.9z"/>
					</g>
				</g>
				<g>
					<g>
						<path fill="#FFD15C" d="M14.3,20.9c0.3,1.5,1.1,2.6,1.9,2.4c0.8-0.2,1.3-1.5,1-3c-0.2-1.5-1.1-2.7-1.9-2.5
							C14.5,17.9,14,19.3,14.3,20.9z"/>
					</g>
				</g>
			</g>
		</g>
		<g>
			<path fill="#F3705A" d="M23.8,42.6c-5,0-9.5-3.2-11.4-7.8c-0.3-0.7-0.6-1.4-0.9-2c-0.1,0-0.2,0-0.3,0.1c-0.4,0.1-0.7,0.2-1,0.4
				C13,38.5,13.5,44,13.4,48h21.2c-0.1-4,0.4-9.5,3.3-14.8c-0.3-0.2-0.7-0.3-1.1-0.4c-0.1,0-0.2,0-0.3-0.1c-0.3,0.6-0.6,1.2-0.9,2
				c-1.9,4.7-6.5,7.8-11.5,7.9C24,42.6,23.9,42.6,23.8,42.6z"/>
		</g>
	</g>
</g>
</svg>
