<?xml version="1.0" encoding="utf-8"?>
<!-- Generator: Adobe Illustrator 18.0.0, SVG Export Plug-In . SVG Version: 6.00 Build 0)  -->
<!DOCTYPE svg PUBLIC "-//W3C//DTD SVG 1.1//EN" "http://www.w3.org/Graphics/SVG/1.1/DTD/svg11.dtd">
<svg version="1.1" id="Layer_1" xmlns="http://www.w3.org/2000/svg" xmlns:xlink="http://www.w3.org/1999/xlink" x="0px" y="0px"
	 viewBox="0 0 512 512" enable-background="new 0 0 512 512" xml:space="preserve">
<g>
	<path fill="#334A5E" d="M488.8,59.6H23.2C11.5,59.6,2,69.1,2,80.9v276.3h508V80.9C510,69.1,500.5,59.6,488.8,59.6z"/>
	<rect x="440" y="59.6" fill="#2E4354" width="11.3" height="27.9"/>
	<rect x="267.9" y="59.6" fill="#2E4354" width="11.3" height="27.9"/>
	<path fill="#F2F2F2" d="M2,357.2v58.1c0,11.7,9.5,21.2,21.2,21.2h465.6c11.7,0,21.2-9.5,21.2-21.2v-58.1H2z"/>
	<rect x="27.7" y="82.8" fill="#89D6F7" width="456.6" height="251.2"/>
	<rect x="171.9" y="436.5" fill="#CDD5DF" width="168.3" height="49"/>
	<rect x="171.9" y="436.5" fill="#ABB2B9" width="168.3" height="20"/>
	<path fill="#F2F2F2" d="M367.1,485.5H144.9c-13.5,0-24.5,11-24.5,24.5v0h271.2v0C391.6,496.5,380.6,485.5,367.1,485.5z"/>
	<circle fill="#CDD5DF" cx="256" cy="396.9" r="14"/>
	<path fill="#334A5E" d="M427.3,2H292c-7,0-12.8,5.7-12.8,12.8v241.5c0,7,5.7,12.8,12.8,12.8h135.3c7,0,12.8-5.7,12.8-12.8V14.8
		C440,7.7,434.3,2,427.3,2z"/>
	<rect x="292.9" y="27" fill="#89D6F7" width="133.5" height="204.1"/>
	<circle fill="#ABB2B9" cx="359.6" cy="250.1" r="10.8"/>
	<path fill="#ABB2B9" d="M380.4,17.8h-41.5c-0.2,0-0.3-0.1-0.3-0.3v-5.9c0-0.2,0.1-0.3,0.3-0.3h41.5c0.2,0,0.3,0.1,0.3,0.3v5.9
		C380.7,17.6,380.5,17.8,380.4,17.8z"/>
</g>
</svg>
