<?xml version="1.0" encoding="utf-8"?>
<!-- Generator: Adobe Illustrator 19.0.1, SVG Export Plug-In . SVG Version: 6.00 Build 0)  -->
<svg version="1.1" id="Layer_1" xmlns="http://www.w3.org/2000/svg" xmlns:xlink="http://www.w3.org/1999/xlink" x="0px" y="0px"
	 viewBox="0 0 48 48" style="enable-background:new 0 0 48 48;" xml:space="preserve">
<style type="text/css">
	.st0{fill:#415A6B;}
	.st1{fill:#ADB3BA;}
	.st2{fill:#E8EAE9;}
	.st3{fill:#55C0EB;}
	.st4{fill:#F3705A;}
	.st5{fill:#FFFFFF;}
	.st6{fill:#FFD15C;}
	.st7{fill:#344A5E;}
	.st8{fill:#CED6E0;}
	.st9{fill:#F05540;}
	.st10{fill:#F7B64C;}
	.st11{fill:#F3F3F3;}
	.st12{fill:#66C6B9;}
	.st13{fill:#4ABAA5;}
	.st14{fill:#8AD7F8;}
	.st15{fill:none;}
	.st16{fill:#E53D35;}
</style>
<g>
	<g>
		<g>
			<g>
				<path class="st4" d="M8.6,14.5c0,0,0.5,6-0.9,9.1S5.1,27.4,5,27.5c-0.1,0,4.3-1,4.3-1l3.2-4.4l0.1-4.1L8.6,14.5"/>
			</g>
			<g>
				<path class="st10" d="M11,18.2h5.7v4.2c0.6,2.8,1.1,5.6,0,7.3c0,4.2-5.7,4.2-5.7,0c-1.3-2.6-1.6-5.1,0-7.3V18.2z"/>
			</g>
			<g>
				<path class="st11" d="M18,34.1H9.8l0.9-7.3c0.6,1.1,1.8,1.9,3.2,1.9c1.4,0,2.5-0.8,3.2-1.9L18,34.1z"/>
			</g>
			<g>
				<path class="st4" d="M19.1,14.5c0,2.9-2.3,5.3-5.2,5.3c-2.9,0-5.3-2.3-5.3-5.3s2.3-5.3,5.3-5.3C16.8,9.2,19.1,11.6,19.1,14.5z"
					/>
			</g>
			<g>
				<path class="st6" d="M18.1,17.1c0,3.4-1.9,6.2-4.2,6.2c-2.3,0-4.3-2.8-4.3-6.2c0-1,0.2-1.9,0.4-2.7c0.5-1.4,1.7-0.6,3.8-0.6
					c2.1,0,3.3-0.9,3.8,0.6C18,15.2,18.1,16.1,18.1,17.1z"/>
			</g>
			<g>
				<g>
					<g>
						<path class="st12" d="M5.4,34.1H0.9c1.6-6.1,2.2-9.1,3.5-8.8C4.4,25.3,5.6,31.1,5.4,34.1z"/>
					</g>
					<g>
						<path class="st13" d="M5.4,34.1c0.2-3-1-8.8-1-8.8l4.9-1.8l0.6,0.4L12,34.1H5.4z"/>
					</g>
					<g>
						<path class="st12" d="M13,34.1h-2.5c-1.2-2.1-2.3-4.5-3.2-7l1.6-0.9l-1.6-0.9l0.1-0.1c1-1,2.1-1.8,3.3-2.6
							c0.2-0.1,0.3-0.2,0.4-0.3c0,0-0.3,3.7,0.5,6.3C11.9,29.7,12.4,31.9,13,34.1z"/>
					</g>
				</g>
				<g>
					<g>
						<path class="st12" d="M26.8,34.1c-1.6-6.1-2.2-9.1-3.5-8.8c0,0-1.2,5.8-1,8.8H26.8z"/>
					</g>
					<g>
						<path class="st13" d="M22.3,34.1h-6.6l2.1-10.2l0.6-0.4l4.9,1.8C23.3,25.3,22.1,31.1,22.3,34.1z"/>
					</g>
					<g>
						<path class="st12" d="M14.7,34.1h2.5c1.2-2.1,2.3-4.5,3.2-7l-1.6-0.9l1.6-0.9l-0.1-0.1c-1-1-2.1-1.9-3.3-2.6
							c-0.2-0.1-0.3-0.2-0.4-0.3c0,0,0.3,3.7-0.5,6.3C15.9,29.7,15.3,31.9,14.7,34.1z"/>
					</g>
				</g>
			</g>
			<g>
				<path class="st4" d="M23.3,26.5c-1.2-0.1-2.4-1-2.8-2.2c-1.2,2-1.3,4.7-0.3,6.8c-0.9-0.6-1.6-1.5-2.1-2.4c-0.5-1-0.8-2-1.1-3
					c-0.3-1.2-0.7-2.4-0.5-3.6c0.1-0.9,0.5-1.7,0.8-2.5c0.7-2,1-4.1,0.9-6.3l0.4,0c0.6-0.6,0.6,4.1,1.3,6.4
					C20.6,22.2,21.7,24.5,23.3,26.5z"/>
				<path class="st4" d="M10.2,19c0.4,1.2,1,2.5,0.8,3.7c-0.1,0.9-0.7,1.7-1.3,2.3c-0.6,0.7-1.3,1.3-1.8,2c-0.5,0.7-0.9,1.6-0.8,2.5
					c-0.6-1.5-0.6-3.1,0-4.5c0.4-1,1.1-1.9,1.4-2.9c1.1-2.8-0.2-6.2,1.1-8.9l0.7-0.3C9.6,14.9,9.6,17,10.2,19z"/>
			</g>
		</g>
		<g>
			<g>
				<g>
					<path class="st6" d="M32.2,15.5c0.2,0.8-0.1,1.6-0.6,1.7c-0.5,0.1-1-0.5-1.2-1.3c-0.1-0.8,0.1-1.6,0.6-1.7
						C31.6,14.1,32.1,14.7,32.2,15.5z"/>
					<path class="st6" d="M41.1,15.9c-0.2,0.8-0.7,1.4-1.2,1.3c-0.5-0.1-0.7-0.8-0.6-1.7c0.2-0.8,0.7-1.4,1.2-1.3
						C41,14.3,41.3,15,41.1,15.9z"/>
				</g>
			</g>
			<g>
				<path class="st0" d="M40.6,13.4c0,3.5-2.1,6.3-4.8,6.3S31,16.9,31,13.4c0-5.4,2.1-6.3,4.8-6.3S40.6,8,40.6,13.4z"/>
			</g>
			<g>
				<g>
					<g>
						<polygon class="st8" points="38,34.1 41.5,22.7 35.8,22.7 30.6,23 35,34.1 						"/>
					</g>
					<g>
						<g>
							<polygon class="st4" points="37.6,34.1 36.8,25.5 34.9,25.5 34.1,34.1 							"/>
						</g>
						<g>
							<polygon class="st9" points="36.8,25.5 37.7,24.6 35.8,22.7 34,24.6 34.9,25.5 							"/>
						</g>
					</g>
					<g>
						<g>
							<g>
								<path class="st11" d="M32.8,19.7c0,0-0.1,1.2,1.5,2.1c1.5,0.9,1.5,1,1.5,1L34,25.3l-2-2.9C32.1,22.4,32.1,21.3,32.8,19.7z"
									/>
							</g>
						</g>
						<g>
							<g>
								<path class="st11" d="M38.8,19.7c0,0,0.1,1.2-1.5,2.1c-1.5,0.9-1.5,1-1.5,1l1.8,2.5l2-2.9C39.5,22.4,39.6,21.3,38.8,19.7z"
									/>
							</g>
						</g>
					</g>
					<g>
						<g>
							<path class="st0" d="M28.1,30.7c0,0,0.3,2,0.4,3.4h-5.7c0.3-1.5,0.6-3.3,1-4.5c0.7-2.4,0.8-5.8,2.2-6.2
								c1.4-0.4,4.4,3.6,4.4,3.6L28.1,30.7z"/>
						</g>
						<g>
							<path class="st7" d="M28,34.1c0-2,0-3.4,0-3.4c-0.2-2.3-2.2-7.3-2.2-7.3c0.5-0.1,5-1.6,5.3-1.7c-0.3,0.3,1.7,7.9,1.7,7.9
								s1.2,2.2,2.2,4.6H28z"/>
						</g>
						<g>
							<path class="st0" d="M35.5,34.1h-1.2c-0.8-1.5-4-8.2-4.1-9.1l1.2-1l-1.1-0.5l0.9-1.9c0,0,0.8-0.4,1.3-1.3c0,0,0.4,4,0.7,4.9
								c0.3,0.9,1.5,6.2,1.7,7.1C35.1,32.7,35.3,33.4,35.5,34.1z"/>
						</g>
						<g>
							<path class="st0" d="M43.2,34.1c0.1-1.4,0.4-3.4,0.4-3.4L41.4,27c0,0,3-4.1,4.4-3.6c1.4,0.5,1.6,3.8,2.2,6.2
								c0.3,1.2,0.7,3,0.9,4.5H43.2z"/>
						</g>
						<g>
							<path class="st7" d="M43.6,34.1h-7.1c1-2.4,2.2-4.6,2.2-4.6s1.9-7.5,1.7-7.9c0.3,0.1,4.8,1.6,5.3,1.7c0,0-2,5-2.2,7.3
								C43.6,30.7,43.6,32.2,43.6,34.1z"/>
						</g>
						<g>
							<path class="st0" d="M41.4,25c-0.1,0.8-3.2,7.5-4.1,9.1h-1.1c0.2-0.8,0.5-1.5,0.6-1.8c0.2-0.9,1.5-6.2,1.8-7.1
								c0.3-0.9,0.7-4.9,0.7-4.9c0.5,0.9,1.3,1.3,1.3,1.3l0.9,1.9L40.2,24L41.4,25z"/>
						</g>
					</g>
				</g>
			</g>
			<g>
				<g>
					<path class="st10" d="M32.8,17.5v2.2c0,0-0.1,1.2,1.5,2.1c1.5,0.9,1.5,1,1.5,1s0-0.1,1.5-1c1.5-0.9,1.5-2.1,1.5-2.1v-2.2H32.8z
						"/>
				</g>
			</g>
			<g>
				<path class="st6" d="M40.3,15c0,3.2-2,5.8-4.4,5.8c-2.5,0-4.4-2.6-4.4-5.8c0-1.2,0.3-2.3,0.8-3.2c0.7-1.3,1.6-0.1,3.7-0.1
					c2.1,0,3-1.1,3.7,0.1C40,12.7,40.3,13.8,40.3,15z"/>
			</g>
		</g>
	</g>
</g>
</svg>
