<?xml version="1.0" encoding="utf-8"?>
<!-- Generator: Adobe Illustrator 18.0.0, SVG Export Plug-In . SVG Version: 6.00 Build 0)  -->
<!DOCTYPE svg PUBLIC "-//W3C//DTD SVG 1.1//EN" "http://www.w3.org/Graphics/SVG/1.1/DTD/svg11.dtd">
<svg version="1.1" id="Layer_1" xmlns="http://www.w3.org/2000/svg" xmlns:xlink="http://www.w3.org/1999/xlink" x="0px" y="0px"
	 viewBox="0 0 48 48" enable-background="new 0 0 48 48" xml:space="preserve">
<g>
	<g>
		<g>
			<g>
				<g>
					<path fill="#415A6B" d="M8.8,48L8.8,48c-2.9,0-4.7-3.1-3.2-5.6l8.1-14h8.7L12.1,46.1C11.4,47.3,10.2,48,8.8,48z"/>
				</g>
			</g>
			<g>
				<g>
					<path fill="#415A6B" d="M37.8,48L37.8,48c2.9,0,4.7-3.1,3.2-5.6l-8.1-14h-8.7l10.3,17.8C35.2,47.3,36.4,48,37.8,48z"/>
				</g>
			</g>
		</g>
		<g>
			<path fill="#66C6B9" d="M23.3,45.2C10.8,45.2,0.7,35,0.7,22.6S10.8,0,23.3,0s22.6,10.1,22.6,22.6S35.8,45.2,23.3,45.2z"/>
			<path fill="#FFFFFF" d="M23.3,39.1c-9.1,0-16.5-7.4-16.5-16.5S14.2,6.1,23.3,6.1s16.5,7.4,16.5,16.5S32.4,39.1,23.3,39.1z"/>
			<path fill="#66C6B9" d="M23.3,33c-5.7,0-10.4-4.7-10.4-10.4s4.7-10.4,10.4-10.4s10.4,4.7,10.4,10.4S29,33,23.3,33z"/>
			<circle fill="#FFFFFF" cx="23.3" cy="22.6" r="4.3"/>
		</g>
		<g>
			<g>
				<polygon fill="#F3705A" points="25.7,15.6 23.1,22.9 30.4,20.8 				"/>
			</g>
			<path fill="#415A6B" d="M28.8,19l17-15.8c0.4-0.4,0.4-1,0.1-1.5c-0.4-0.4-1-0.4-1.5-0.1l-17,15.8L28.8,19z"/>
			<g>
				<polygon fill="#F3705A" points="39.2,7.9 42.5,9.2 47.3,4.7 43.9,3.5 42.9,0 38.1,4.4 				"/>
			</g>
		</g>
	</g>
</g>
</svg>
