<?xml version="1.0" encoding="utf-8"?>
<!-- Generator: Adobe Illustrator 18.0.0, SVG Export Plug-In . SVG Version: 6.00 Build 0)  -->
<!DOCTYPE svg PUBLIC "-//W3C//DTD SVG 1.1//EN" "http://www.w3.org/Graphics/SVG/1.1/DTD/svg11.dtd">
<svg version="1.1" id="Layer_1" xmlns="http://www.w3.org/2000/svg" xmlns:xlink="http://www.w3.org/1999/xlink" x="0px" y="0px"
	 viewBox="0 0 48 48" enable-background="new 0 0 48 48" xml:space="preserve">
<g>
	<path fill="#CDD6E0" d="M19.4,34.7l-5.9,5.9c-1.7,1.7-4.4,1.7-6.1,0c-1.7-1.7-1.7-4.4,0-6.1l5.9-5.9c1-1,2.2-1.4,3.5-1.2l4.7-4.7
		c-4-2.3-9.1-1.7-12.5,1.7L3,30.2C-1,34.3-1,40.9,3,45C7.1,49,13.7,49,17.8,45l5.9-5.9c3.4-3.4,4-8.5,1.7-12.5l-4.7,4.7
		C20.8,32.5,20.3,33.8,19.4,34.7z"/>
	<path fill="#CDD6E0" d="M30.2,3L24.3,9c-3.4,3.4-4,8.5-1.7,12.5l4.7-4.7c-0.1-1.3,0.3-2.5,1.2-3.5l5.9-5.9c1.7-1.7,4.4-1.7,6.1,0
		c1.7,1.7,1.7,4.4,0,6.1l-5.9,5.9c-1,1-2.2,1.4-3.5,1.2l-4.7,4.7c4,2.3,9.1,1.7,12.5-1.7l5.9-5.9C49,13.7,49,7.1,45,3
		C40.9-1,34.3-1,30.2,3z"/>
	<path fill="#FF7058" d="M31,19.5L19.5,31c-0.7,0.7-1.8,0.7-2.5,0l0,0c-0.7-0.7-0.7-1.8,0-2.5L28.5,17c0.7-0.7,1.8-0.7,2.5,0l0,0
		C31.7,17.7,31.7,18.8,31,19.5z"/>
</g>
</svg>
