<?xml version="1.0" encoding="utf-8"?>
<!-- Generator: Adobe Illustrator 16.0.0, SVG Export Plug-In . SVG Version: 6.00 Build 0)  -->
<!DOCTYPE svg PUBLIC "-//W3C//DTD SVG 1.1//EN" "http://www.w3.org/Graphics/SVG/1.1/DTD/svg11.dtd">
<svg version="1.1" id="Layer_1" xmlns="http://www.w3.org/2000/svg" xmlns:xlink="http://www.w3.org/1999/xlink" x="0px" y="0px"
	 width="48px" height="48px" viewBox="0 0 48 48" enable-background="new 0 0 48 48" xml:space="preserve">
<g>
	<path fill="#F8B64C" d="M14.907,16.362c0.423,1.813,0.2,3.415-0.499,3.578c-0.698,0.163-1.607-1.175-2.03-2.988
		c-0.423-1.813-0.2-3.415,0.498-3.578C13.575,13.211,14.484,14.549,14.907,16.362"/>
	<path fill="#F8B64C" d="M33.082,16.362c-0.423,1.813-0.199,3.415,0.499,3.578s1.606-1.175,2.03-2.988
		c0.423-1.813,0.199-3.415-0.498-3.578C34.414,13.211,33.505,14.549,33.082,16.362"/>
	<path fill="#CDD6E0" d="M46.199,40.021c0,0,0,0.01-0.01,0.01c-1.391,2.56-2.439,5.24-3.21,7.89H26.08
		c0.209-0.43,0.449-0.87,0.709-1.31c0.41-0.74,0.881-1.47,1.391-2.17c0.17-0.23,0.32-0.47,0.47-0.71
		c0.12-0.19,0.229-0.39,0.341-0.59c0.029-0.06,0.049-0.11,0.079-0.16c1.83-3.65,1.86-8.37,1.83-9.51v-0.25
		c0.03,0.021,0.05,0.04,0.08,0.06c0.011,0.01,0.03,0.02,0.04,0.03c0.439,0.32,0.9,0.63,1.38,0.92l0.19,0.12
		c4.5,2.79,10.4,4.71,12.66,5.4c0,0,0.01,0.01,0.02,0c0.2,0.05,0.359,0.1,0.5,0.15c0.02,0.01,0.05,0.02,0.07,0.02
		c0.039,0.01,0.07,0.02,0.1,0.03c0.1,0.03,0.17,0.05,0.21,0.06c0.021,0,0.03,0,0.04,0.01H46.199z"/>
	<path fill="#ACB3BA" d="M23.988,31.601c-0.01,0.011-0.021,0.011-0.021,0.011v-0.022C23.979,31.589,23.988,31.601,23.988,31.601"/>
	<path fill="#F2F2F2" d="M48,45.341v2.58H0v-2.61l1.799-5.29c0,0,0.15-0.04,0.421-0.12c0.18-0.05,0.42-0.13,0.7-0.21
		c2.83-0.83,10.26-3.25,14.01-6.49c0.01-0.01,0.029-0.021,0.04-0.03l0.05-0.06c0.73-0.63,1.32-1.31,1.68-2.01l0.041-0.05
		c0,0,0.01,0.02,0.02,0.05c0.98,1.95,2.93,3.24,5.109,3.39h0.07c0.01,0.01,0.01,0.01,0.02,0H24h0.02h0.01v0.01
		c0.01,0,0.02,0,0.03-0.01h0.06c0.131-0.01,0.28-0.03,0.41-0.05c0.02,0,0.04-0.01,0.07-0.01c1.891-0.27,3.54-1.41,4.46-3.08
		c0.101-0.14,0.16-0.24,0.181-0.28c0-0.01,0.01-0.02,0.01-0.02l0.039,0.05c0.371,0.71,0.951,1.38,1.69,2.03l0.04,0.04
		c0.02,0.02,0.05,0.03,0.07,0.05c0.4,0.35,0.84,0.68,1.31,1.01l0.19,0.12c1.8,1.21,4.02,2.271,6.14,3.13
		c1.72,0.7,3.36,1.27,4.67,1.69c0.19,0.06,0.37,0.12,0.54,0.17c0.311,0.1,0.59,0.19,0.84,0.27c0.17,0.05,0.33,0.1,0.471,0.14h0.02
		c0.189,0.07,0.359,0.11,0.5,0.15c0.02,0.01,0.05,0.02,0.07,0.02c0.039,0.01,0.07,0.02,0.1,0.03c0.1,0.03,0.17,0.05,0.21,0.06
		c0.021,0,0.03,0,0.04,0.01v0.01L48,45.341z"/>
	<path fill="#ACB3BA" d="M24.033,31.589v0.022c0,0-0.011,0-0.021-0.011C24.012,31.601,24.022,31.589,24.033,31.589"/>
	<path fill="#CDD6E0" d="M16.969,33.168l1.769-2.118c0,0,1.843,3.286,5.288,3.446c0,0-2.564,2.965-3.465,5.689
		C20.561,40.186,18.29,36.823,16.969,33.168"/>
	<path fill="#CDD6E0" d="M31.022,33.168l-1.769-2.118c0,0-1.842,3.286-5.288,3.446c0,0,2.565,2.965,3.466,5.689
		C27.432,40.186,29.701,36.823,31.022,33.168"/>
	<path fill="#FF7058" d="M26.979,47.921h-5.97l0.189-1.31l1.041-7.01l-1.141-0.72c0.09-0.19,0.189-0.37,0.279-0.55
		c0.851-1.56,1.931-2.96,2.41-3.54c0.021-0.04,0.051-0.08,0.08-0.11l0.051-0.05l0.08-0.1c0.039,0.05,0.109,0.14,0.209,0.26
		c0.101,0.12,0.221,0.27,0.361,0.45c0.34,0.45,0.789,1.06,1.239,1.76c0.14,0.21,0.28,0.43,0.42,0.66c0.16,0.27,0.31,0.54,0.46,0.83
		c0.07,0.13,0.141,0.26,0.2,0.39l-1.14,0.72l1.039,7.01L26.979,47.921z"/>
	<path fill="#4CDBC4" d="M21.199,46.611c0.26,0.44,0.5,0.88,0.721,1.31H5.02c-0.779-2.65-1.82-5.34-3.221-7.9
		c0,0,0.15-0.04,0.421-0.12c1.89-0.57,9.75-3.05,14.71-6.7c0.01-0.01,0.029-0.021,0.04-0.03c0,0-0.22,7.08,2.84,11.27
		C20.319,45.141,20.789,45.872,21.199,46.611"/>
	<path fill="#4CDBC4" d="M46.199,40.021c0,0,0,0.01-0.01,0.01c-1.391,2.56-2.439,5.24-3.21,7.89H26.08
		c0.209-0.43,0.449-0.87,0.709-1.31c0.41-0.74,0.881-1.47,1.391-2.17c0.17-0.23,0.32-0.47,0.47-0.71
		c0.12-0.19,0.229-0.39,0.341-0.59c0.029-0.06,0.049-0.11,0.079-0.16c1.931-3.8,1.96-8.78,1.95-9.67v-0.14
		c0.02,0.02,0.05,0.03,0.07,0.05c4.6,3.37,11.66,5.74,14.18,6.53c0.2,0.05,0.359,0.1,0.5,0.15c0.02,0.01,0.05,0.02,0.07,0.02
		c0.039,0.01,0.07,0.02,0.1,0.03c0.1,0.03,0.17,0.05,0.21,0.06c0.021,0,0.03,0,0.04,0.01H46.199z"/>
	<path fill="#F8B64C" d="M29.254,31.048c0,0-0.011,0.011-0.011,0.022c-0.122,0.211-1.573,2.627-4.223,3.27
		c-0.322,0.089-0.665,0.133-1.021,0.155c-1.718-0.088-3.025-0.953-3.912-1.795c-0.888-0.832-1.354-1.652-1.354-1.652
		c0.389-0.754,0.533-1.496,0.6-2.051c0.487,0.41,0.963,0.765,1.43,1.064c1.386,0.932,2.572,1.386,3.048,1.475
		c0.089,0.011,0.288,0.011,0.377,0c0.632-0.111,2.505-0.887,4.467-2.539C28.723,29.552,28.866,30.294,29.254,31.048"/>
	<path fill="#2A425A" d="M33.158,17.927l0.896-0.331l0.621-1.547c0.66-1.947,1.045-3.988,1.027-6.045
		c-0.049-5.746-2.876-5.181-2.876-5.181C30.643-0.14,23.76-0.074,23.76-0.074c-10.091-0.238-11.486,7.09-11.474,11.223
		c0.004,1.275,0.274,2.523,0.658,3.739c0.372,1.182,0.991,2.708,0.991,2.708h0.625c0,0-1.19-7.412,1.324-9.001
		c0,0,2.846,4.302,11.648,3.442c0,0-3.376,0.066-4.104-1.191c0,0,5.758,2.184,8.67-2.383C32.1,8.463,33.688,13.294,33.158,17.927"/>
	<path fill="#FFD15C" d="M32.1,8.463c-2.912,4.566-8.67,2.382-8.67,2.382c0.728,1.258,4.104,1.192,4.104,1.192
		c-8.803,0.86-11.648-3.442-11.648-3.442c-2.515,1.589-1.324,9.001-1.324,9.001h-0.625v1.855c1.475,8.64,8.513,11.844,9.877,12.083
		c0.093,0.016,0.283,0.017,0.375,0c1.363-0.239,8.391-3.443,9.867-12.083v-1.855l-0.896,0.331C33.688,13.294,32.1,8.463,32.1,8.463"
		/>
	<g opacity="0.1">
		<g>
			<defs>
				<rect id="SVGID_5_" x="20.752" y="28.998" width="8.502" height="5.34"/>
			</defs>
			<clipPath id="SVGID_2_">
				<use xlink:href="#SVGID_5_"  overflow="visible"/>
			</clipPath>
			<path clip-path="url(#SVGID_2_)" fill="#40596B" d="M29.254,31.048c0,0-0.011,0.011-0.011,0.022
				c-0.122,0.211-1.573,2.627-4.223,3.27l-4.269-4.268l0.012-0.011c1.386,0.932,2.572,1.386,3.048,1.475
				c0.089,0.011,0.288,0.011,0.377,0c0.632-0.111,2.505-0.887,4.467-2.539C28.723,29.552,28.866,30.294,29.254,31.048"/>
		</g>
	</g>
</g>
</svg>
