<?xml version="1.0" encoding="utf-8"?>
<!-- Generator: Adobe Illustrator 18.0.0, SVG Export Plug-In . SVG Version: 6.00 Build 0)  -->
<!DOCTYPE svg PUBLIC "-//W3C//DTD SVG 1.1//EN" "http://www.w3.org/Graphics/SVG/1.1/DTD/svg11.dtd">
<svg version="1.1" id="Layer_1" xmlns="http://www.w3.org/2000/svg" xmlns:xlink="http://www.w3.org/1999/xlink" x="0px" y="0px"
	 viewBox="0 0 512 512" enable-background="new 0 0 512 512" xml:space="preserve">
<g>
	<circle fill="#40596B" cx="256" cy="256" r="254"/>
	<path fill="#F2F2F2" d="M258.3,446.5C152,446.5,65.5,361,65.5,256S152,65.5,258.3,65.5C364.5,65.5,451,151,451,256
		S364.5,446.5,258.3,446.5z"/>
	<path fill="#E0E1E2" d="M258.3,65.5C152,65.5,65.5,151,65.5,256c0,3.6,0.3,7.1,0.5,10.6c2.9-51.5,26.6-97.6,62.9-130.2
		c-1.6-2.1-1.5-5.1,0.4-7.1c2.1-2.1,5.5-2.1,7.7,0l0.1,0.1c31.2-25.2,70.6-40.7,113.5-42.4v-4.8c0-3,2.4-5.4,5.4-5.4
		c3,0,5.4,2.4,5.4,5.4v4.6c43.9,0.7,84.3,15.9,116.3,41.1c1.7-0.4,3.6,0,4.9,1.4c1.1,1.1,1.6,2.7,1.5,4.2
		c38.1,32.8,63.3,80,66.3,133.1c0.2-3.5,0.5-7,0.5-10.6C451,151,364.5,65.5,258.3,65.5z"/>
	<path fill="#40596B" d="M258.3,86.7c-2.6,0-5.1,0.3-7.7,0.4v14.8c0,3,2.4,5.4,5.4,5.4c3,0,5.4-2.4,5.4-5.4v-15
		C260.4,86.8,259.3,86.7,258.3,86.7z"/>
	<path fill="#334A5E" d="M256,76.8c-3,0-5.4,2.4-5.4,5.4V87c2.6-0.1,5.1-0.4,7.7-0.4c1.1,0,2.1,0.1,3.2,0.2v-4.6
		C261.4,79.3,259,76.8,256,76.8z"/>
	<path fill="#40596B" d="M256,404.7c-3,0-5.4,2.4-5.4,5.4v19.6c0,3,2.4,5.4,5.4,5.4c3,0,5.4-2.4,5.4-5.4v-19.6
		C261.4,407.2,259,404.7,256,404.7z"/>
	<path fill="#40596B" d="M101.8,250.6H82.3c-3,0-5.4,2.4-5.4,5.4c0,3,2.4,5.4,5.4,5.4h19.6c3,0,5.4-2.4,5.4-5.4
		C107.3,253,104.8,250.6,101.8,250.6z"/>
	<path fill="#40596B" d="M429.7,250.6h-19.6c-3,0-5.4,2.4-5.4,5.4c0,3,2.4,5.4,5.4,5.4h19.6c3,0,5.4-2.4,5.4-5.4
		C435.2,253,432.7,250.6,429.7,250.6z"/>
	<path fill="#40596B" d="M377.8,127.9c-1,0.2-2,0.6-2.7,1.4l-13.8,13.9c-2.1,2.1-1.6,5.1,0,7.7c0.9,1.4,5.5,3.2,7.7,0l13.8-13.9
		c1-1,1.4-2.2,1.5-3.5C382.1,131.6,380,129.7,377.8,127.9z"/>
	<path fill="#334A5E" d="M382.7,129.3c-1.3-1.3-3.2-1.7-4.9-1.4c2.2,1.8,4.3,3.7,6.4,5.5C384.3,132,383.8,130.5,382.7,129.3z"/>
	<path fill="#40596B" d="M150.8,361.2c-2.1-2.1-5.5-2.1-7.7,0L129.3,375c-2.1,2.1-2.1,5.5,0,7.7c1.1,1.1,4,4.5,7.7,0l13.9-13.9
		C152.9,366.7,152.9,363.3,150.8,361.2z"/>
	<path fill="#40596B" d="M129.3,137l13.9,13.9c1.1,1.1,2.4,1.6,3.8,1.6c1.4,0,2.8-0.5,3.8-1.6c2.1-2.1,2.1-5.5,0-7.7l-13.8-13.8
		c-2.8,2.2-5.5,4.6-8.1,7C129.1,136.6,129.1,136.8,129.3,137z"/>
	<path fill="#334A5E" d="M129.3,129.3c-1.9,1.9-2,4.9-0.4,7.1c2.7-2.4,5.4-4.7,8.1-7l-0.1-0.1C134.9,127.2,131.4,127.2,129.3,129.3z
		"/>
	<path fill="#40596B" d="M382.7,375l-13.8-13.9c-2.1-2.1-5.5-2.1-7.7,0c-2.1,2.1-2.1,5.5,0,7.7l13.8,13.9c3.9,3.5,6.6,1.1,7.7,0
		C384.8,380.6,384.8,377.1,382.7,375z"/>
	<path fill="#FFD15C" d="M232.2,255.6c0,3.3,0.7,6.5,1.9,9.3h-57.4c-5.9,0-10.5-4.7-10.5-10.5s4.7-10.5,10.5-10.5h58.6
		C233.3,247.4,232.2,251.4,232.2,255.6z"/>
	<path fill="#F8B64C" d="M263.3,153.5v79c-2.2-0.7-4.5-1-7-1c-2.4,0-4.8,0.4-7,1v-79c0-3.9,3.1-7,7-7
		C260.2,146.5,263.3,149.7,263.3,153.5z"/>
	<path fill="#FF7058" d="M279.6,249.6c4.3,17.9-11.4,33.7-29.4,29.4c-8.4-2-15.3-8.9-17.4-17.4c-4.3-17.9,11.4-33.7,29.4-29.4
		C270.7,234.2,277.6,241.2,279.6,249.6z"/>
	<circle fill="#FFFFFF" cx="256.3" cy="255.6" r="12.7"/>
</g>
</svg>
