<?xml version="1.0" encoding="utf-8"?>
<!-- Generator: Adobe Illustrator 16.0.0, SVG Export Plug-In . SVG Version: 6.00 Build 0)  -->
<!DOCTYPE svg PUBLIC "-//W3C//DTD SVG 1.1//EN" "http://www.w3.org/Graphics/SVG/1.1/DTD/svg11.dtd">
<svg version="1.1" id="Layer_1" xmlns="http://www.w3.org/2000/svg" xmlns:xlink="http://www.w3.org/1999/xlink" x="0px" y="0px"
	 width="48px" height="48px" viewBox="0 0 48 48" enable-background="new 0 0 48 48" xml:space="preserve">
<g>
	<path fill="#F8B64C" d="M44.113,16.258H3.89V45c0,1.657,1.343,3,3,3h34.224c1.656,0,3-1.343,3-3V16.258z"/>
	<polygon fill="#FFD15C" points="44.113,16.258 3.89,16.258 0,23.806 48,23.806 	"/>
	<rect x="7.889" y="35.864" fill="#FFFFFF" width="13.329" height="8.136"/>
	<rect x="9.58" y="37.029" fill="#40596B" width="1.054" height="5.806"/>
	<rect x="11.804" y="37.029" fill="#40596B" width="1.053" height="4.638"/>
	<rect x="14.026" y="37.029" fill="#40596B" width="1.054" height="5.806"/>
	<rect x="16.25" y="37.029" fill="#40596B" width="1.054" height="4.638"/>
	<rect x="18.474" y="37.029" fill="#40596B" width="1.053" height="5.806"/>
	<polygon fill="#FF7058" points="27.549,0 20.453,0 20.453,6.056 15.658,6.056 24.008,14.405 32.344,6.056 27.549,6.056 	"/>
</g>
</svg>
