<?xml version="1.0" encoding="utf-8"?>
<!-- Generator: Adobe Illustrator 18.0.0, SVG Export Plug-In . SVG Version: 6.00 Build 0)  -->
<!DOCTYPE svg PUBLIC "-//W3C//DTD SVG 1.1//EN" "http://www.w3.org/Graphics/SVG/1.1/DTD/svg11.dtd">
<svg version="1.1" id="Layer_1" xmlns="http://www.w3.org/2000/svg" xmlns:xlink="http://www.w3.org/1999/xlink" x="0px" y="0px"
	 viewBox="0 0 48 48" enable-background="new 0 0 48 48" xml:space="preserve">
<g>
	<path fill="#CDD6E0" d="M3.4,26.4c-0.1,0-0.3-0.1-0.4-0.2c-0.2-0.2-0.2-0.5,0-0.7l4.2-4.1c0.2-0.2,0.5-0.2,0.7,0
		c0.2,0.2,0.2,0.5,0,0.7l-4.2,4.1C3.7,26.3,3.6,26.4,3.4,26.4z"/>
	<path fill="#334A5E" d="M8.7,20.9c-0.2,0-0.4,0.2-0.4,0.4c0,0.5-0.4,0.8-0.8,0.8c-0.5,0-0.8-0.4-0.8-0.8c0-0.5,0.4-0.8,0.8-0.8
		c0.2,0,0.4-0.2,0.4-0.4v-0.9c0-0.2-0.2-0.4-0.4-0.4s-0.4,0.2-0.4,0.4v0.6c-0.7,0.2-1.2,0.8-1.2,1.6c0,0.9,0.7,1.6,1.6,1.6
		s1.6-0.7,1.6-1.6C9.1,21,8.9,20.9,8.7,20.9z"/>
	<path fill="#FF7058" d="M32.7,16l-4.5,7.9L5.9,9.5c-1.3-0.9-1.8-2.6-1-4l0,0c0.8-1.4,2.5-1.9,4-1.2L32.7,16z"/>
	<path fill="#40596B" d="M42.6,44.1H21.4c-3,0-5.4-2.4-5.4-5.4V38c0-3,2.4-5.4,5.4-5.4h21.1c3,0,5.4,2.4,5.4,5.4v0.6
		C48,41.6,45.6,44.1,42.6,44.1z"/>
	<path fill="#334A5E" d="M21.7,39.9c-0.8,0-1.5-0.7-1.5-1.5c0-0.8,0.7-1.5,1.5-1.5h20.5c0.8,0,1.5,0.7,1.5,1.5
		c0,0.8-0.7,1.5-1.5,1.5H21.7z"/>
	<rect x="25.5" y="30" fill="#ACB3BA" width="16.8" height="2.6"/>
	<polygon fill="#FFD15C" points="46.2,30 21.7,30 21.7,20.4 32.2,9.9 46.2,9.9 	"/>
	<polygon fill="#54C0EB" points="25.9,25.8 25.9,22.2 34,14.1 42,14.1 42,25.8 	"/>
	<g>
		<polygon fill="#84DBFF" points="38.6,14.1 28.8,25.8 26.9,25.8 36.6,14.1 		"/>
		<polygon fill="#84DBFF" points="42,14.1 42,15.5 33.4,25.8 30.2,25.8 40,14.1 		"/>
	</g>
	<path fill="#FFD15C" d="M9.2,16H5.9V6.9c0-0.9,0.7-1.6,1.6-1.6h0c0.9,0,1.6,0.7,1.6,1.6V16z"/>
	<circle fill="#FFFFFF" cx="7.5" cy="6.9" r="1.1"/>
	<polygon fill="#40596B" points="9.3,16 5.7,16 5.1,18.3 5.7,19.4 9.3,19.4 9.9,18.3 	"/>
	<path fill="#ACB3BA" d="M11.8,26.4c-0.1,0-0.3-0.1-0.4-0.2l-4.2-4.1c-0.2-0.2-0.2-0.5,0-0.7c0.2-0.2,0.5-0.2,0.7,0l4.2,4.1
		c0.2,0.2,0.2,0.5,0,0.7C12.1,26.3,12,26.4,11.8,26.4z"/>
	<rect y="25.1" fill="#4CDBC4" width="15" height="9.5"/>
</g>
</svg>
