<?xml version="1.0" encoding="utf-8"?>
<!-- Generator: Adobe Illustrator 18.0.0, SVG Export Plug-In . SVG Version: 6.00 Build 0)  -->
<!DOCTYPE svg PUBLIC "-//W3C//DTD SVG 1.1//EN" "http://www.w3.org/Graphics/SVG/1.1/DTD/svg11.dtd">
<svg version="1.1" id="Layer_1" xmlns="http://www.w3.org/2000/svg" xmlns:xlink="http://www.w3.org/1999/xlink" x="0px" y="0px"
	 viewBox="0 0 512 512" enable-background="new 0 0 512 512" xml:space="preserve">
<g>
	<path fill="#FF7058" d="M455.6,146.1L312.7,36.7L276.6,9c-12.1-9.3-29.1-9.3-41.2,0l-36.1,27.7L56.4,146.1L2,187.8l54.4,45.7
		l162.9,136.9l36.7,30.9l36.7-30.9l162.9-136.9l54.4-45.7L455.6,146.1z"/>
	<polygon fill="#FFD15C" points="2,187.8 2,187.8 2,187.8 	"/>
	<path fill="#FFD15C" d="M342.4,328.7L256,401.3l-86.4-72.6L2,187.8v301c0,5.7,2.2,10.9,5.9,14.8c3.9,3.9,9.3,6.3,15.2,6.3h465.6
		c5.9,0,11.4-2.4,15.2-6.5c3.6-3.9,5.9-9,5.9-14.7v-301L342.4,328.7z"/>
	<path fill="#F2F2F2" d="M377.7,36.7H77.5c-11.7,0-21.2,9.5-21.2,21.2v175.6l162.9,136.9h73.5l162.9-136.9V114.6L377.7,36.7z"/>
	<path fill="#CDD6E0" d="M377.7,36.7v56.7c0,11.7,9.5,21.2,21.2,21.2h56.7L377.7,36.7z"/>
	<path fill="#F8B64C" d="M342.4,328.7H169.7L8,503.6c3.9,3.9,9.3,6.3,15.2,6.3h465.6c5.9,0,11.4-2.4,15.2-6.5L342.4,328.7z"/>
	<rect x="275.9" y="178.5" fill="#CDD6E0" width="124.7" height="23.1"/>
	<rect x="111.4" y="238.2" fill="#84DBFF" width="289.2" height="23.1"/>
	<circle fill="#84DBFF" cx="175.5" cy="105.4" r="32.2"/>
	<path fill="#84DBFF" d="M197.9,141.6c-6.5,4-14.1,6.5-22.4,6.5s-15.8-2.4-22.4-6.5c-24.4,9.1-41.7,32.5-41.7,60h128.2
		C239.6,174.1,222.2,150.7,197.9,141.6z"/>
</g>
</svg>
