<?xml version="1.0" encoding="utf-8"?>
<!-- Generator: Adobe Illustrator 18.0.0, SVG Export Plug-In . SVG Version: 6.00 Build 0)  -->
<!DOCTYPE svg PUBLIC "-//W3C//DTD SVG 1.1//EN" "http://www.w3.org/Graphics/SVG/1.1/DTD/svg11.dtd">
<svg version="1.1" id="Layer_1" xmlns="http://www.w3.org/2000/svg" xmlns:xlink="http://www.w3.org/1999/xlink" x="0px" y="0px"
	 viewBox="0 0 512 512" enable-background="new 0 0 512 512" xml:space="preserve">
<g>
	<path fill="#FF7058" d="M488.8,195.6H23.2C11.5,195.6,2,205,2,216.7v45.4c0,11.7,9.5,21.2,21.2,21.2h465.7
		c11.7,0,21.2-9.5,21.2-21.2v-45.4C510,205,500.5,195.6,488.8,195.6z"/>
	<path fill="#CDD6E0" d="M271.7,2h-31.5c-11.7,0-21.2,9.5-21.2,21.2v224.9c0,11.7,9.5,21.2,21.2,21.2h31.5
		c11.7,0,21.2-9.5,21.2-21.2V23.2C292.9,11.5,283.4,2,271.7,2z"/>
	<circle fill="#FFFFFF" cx="256" cy="232.1" r="17.6"/>
	<g>
		<path fill="#FFD15C" d="M33.9,283.2v0.1h1.9C35.2,283.3,34.6,283.3,33.9,283.2z"/>
		<path fill="#FFD15C" d="M75,482.1c3.4,16.3,17.2,27.9,33.1,27.9h295.8c15.9,0,29.7-11.6,33.1-27.9l38.2-184.6H36.9L75,482.1z
			 M376.7,321.5c16.3,0,29.4,13.2,29.4,29.4s-13.2,29.4-29.4,29.4c-16.3,0-29.4-13.2-29.4-29.4S360.4,321.5,376.7,321.5z
			 M316.3,412.8c16.3,0,29.4,13.2,29.4,29.4c0,16.3-13.2,29.4-29.4,29.4c-16.3,0-29.4-13.2-29.4-29.4
			C286.9,426,300.1,412.8,316.3,412.8z M256,321.5c16.3,0,29.4,13.2,29.4,29.4s-13.2,29.4-29.4,29.4c-16.3,0-29.4-13.2-29.4-29.4
			S239.7,321.5,256,321.5z M195.7,412.8c16.3,0,29.4,13.2,29.4,29.4c0,16.3-13.2,29.4-29.4,29.4s-29.4-13.2-29.4-29.4
			C166.2,426,179.4,412.8,195.7,412.8z M135.3,321.5c16.3,0,29.4,13.2,29.4,29.4s-13.2,29.4-29.4,29.4s-29.4-13.2-29.4-29.4
			S119.1,321.5,135.3,321.5z"/>
		<path fill="#FFD15C" d="M476.1,283.3h2v-0.1C477.4,283.3,476.8,283.3,476.1,283.3z"/>
	</g>
	<polygon fill="#F8B64C" points="36.9,297.4 475.2,297.4 478.1,283.3 33.9,283.3 	"/>
</g>
</svg>
