<?xml version="1.0" encoding="utf-8"?>
<!-- Generator: Adobe Illustrator 18.0.0, SVG Export Plug-In . SVG Version: 6.00 Build 0)  -->
<!DOCTYPE svg PUBLIC "-//W3C//DTD SVG 1.1//EN" "http://www.w3.org/Graphics/SVG/1.1/DTD/svg11.dtd">
<svg version="1.1" id="Layer_1" xmlns="http://www.w3.org/2000/svg" xmlns:xlink="http://www.w3.org/1999/xlink" x="0px" y="0px"
	 viewBox="0 0 48 48" enable-background="new 0 0 48 48" xml:space="preserve">
<g>
	<g>
		<g>
			<path fill="#FFD15D" d="M40,0H8C3.6,0,0,3.6,0,8v32c0,4.4,3.6,8,8,8h32c4.4,0,8-3.6,8-8V8C48,3.6,44.4,0,40,0z"/>
			<path fill="#4ABAA5" d="M40,0H8C3.6,0,0,3.6,0,8v2.5c14,0.5,23,7.7,27.7,14.3c5.6-3.1,12.4-5,20.3-5.7V8C48,3.6,44.4,0,40,0z"/>
			<path fill="#FFD15D" d="M25.8,39.1c-2.4,2.8-3.8,5.9-4.6,8.9H40c4.4,0,8-3.6,8-8V29.2C37.9,30.2,30.5,33.5,25.8,39.1z"/>
		</g>
		<path fill="#435B6C" d="M27.7,24.9C23,18.3,14,11.1,0,10.6v10c11.2,0.5,17.1,6.7,19.7,10.4c-0.5,0.6-1.1,1.2-1.6,1.8
			C14,37.7,12,43.1,11,48h10.3c0.8-3,2.2-6.1,4.6-8.9c4.6-5.5,12.1-8.9,22.2-9.9v-10C40,19.9,33.2,21.8,27.7,24.9z"/>
		<g>
			<g>
				<path fill="#FFFFFF" d="M21.8,26.4c-0.6-0.8-1.3-1.5-2-2.2l0.7-0.7c0.7,0.7,1.4,1.5,2.1,2.2L21.8,26.4z M16.9,21.7
					c-0.8-0.6-1.6-1.1-2.5-1.6l0.5-0.9c0.9,0.5,1.7,1.1,2.5,1.7L16.9,21.7z M10.9,18.3c-0.9-0.4-1.8-0.7-2.8-1l0.3-1
					c1,0.3,1.9,0.6,2.9,1L10.9,18.3z M4.3,16.5c-0.9-0.2-1.9-0.3-2.9-0.4l0.1-1c1,0.1,2,0.2,3,0.4L4.3,16.5z"/>
			</g>
			<g>
				<g>
					<path fill="#FFFFFF" d="M19.2,39c-0.5,0.9-1,1.8-1.4,2.7l0.9,0.4c0.4-0.9,0.9-1.8,1.4-2.6L19.2,39z"/>
					<path fill="#FFFFFF" d="M15.6,48h1c0.2-0.7,0.4-1.5,0.6-2.2l-1-0.3C16,46.3,15.8,47.2,15.6,48z"/>
					<path fill="#FFFFFF" d="M23.7,33.4c-0.7,0.7-1.4,1.5-2.1,2.3l0.8,0.6c0.6-0.8,1.3-1.5,2-2.2L23.7,33.4z"/>
					<path fill="#FFFFFF" d="M48,23.7c-0.4,0-0.8,0.1-1.2,0.1l0.1,1c0.4,0,0.7-0.1,1.1-0.1V23.7z"/>
					<path fill="#FFFFFF" d="M29.4,29.1c-0.9,0.5-1.8,1.1-2.6,1.7l0.6,0.8c0.8-0.6,1.6-1.1,2.5-1.6L29.4,29.1z"/>
					<path fill="#FFFFFF" d="M39.8,25l0.2,1c1-0.2,1.9-0.4,2.9-0.6l-0.2-1C41.8,24.5,40.8,24.8,39.8,25z"/>
					<path fill="#FFFFFF" d="M35.9,26.1c-1,0.3-1.9,0.7-2.9,1.1l0.4,0.9c0.9-0.4,1.8-0.8,2.8-1.1L35.9,26.1z"/>
				</g>
			</g>
			<g>
				<path fill="#FFFFFF" d="M24.1,27.8c0.4,0.6,0.9,1.3,1.2,1.9l-0.9,0.5c-0.4-0.6-0.8-1.3-1.2-1.9"/>
			</g>
		</g>
		<g>
			<path fill="#F3705B" d="M28.3,1.6C23.2,1.6,19,5.9,19,11s9.4,16.5,9.4,16.5s9.4-11.3,9.4-16.5S33.5,1.6,28.3,1.6z"/>
			<circle fill="#FFFFFF" cx="28.3" cy="11" r="5.4"/>
		</g>
	</g>
</g>
</svg>
