<?xml version="1.0" encoding="utf-8"?>
<!-- Generator: Adobe Illustrator 18.0.0, SVG Export Plug-In . SVG Version: 6.00 Build 0)  -->
<!DOCTYPE svg PUBLIC "-//W3C//DTD SVG 1.1//EN" "http://www.w3.org/Graphics/SVG/1.1/DTD/svg11.dtd">
<svg version="1.1" id="Layer_1" xmlns="http://www.w3.org/2000/svg" xmlns:xlink="http://www.w3.org/1999/xlink" x="0px" y="0px"
	 viewBox="0 0 48 48" enable-background="new 0 0 48 48" xml:space="preserve">
<g>
	<path fill="#415A6B" d="M3.2,34.8V9.4c0-1.7,1.3-3,3-3h35.6c1.7,0,3,1.3,3,3v25.3c0,1.7-1.3,3-3,3H6.2C4.5,37.8,3.2,36.4,3.2,34.8z
		"/>
	<g>
		<g>
			<rect x="6.8" y="10.1" fill="#FFFFFF" width="34.4" height="22.6"/>
			<g>
				<path fill="#CED6E0" d="M48,35.2c0,3.5-2.8,6.3-6.3,6.3H6.3c-1.8,0-3.3-0.7-4.5-1.8C0.7,38.6,0,37,0,35.2h17.8l1.5,1.7h9.3
					l1.5-1.7H48z"/>
			</g>
			<g>
				<g>
					<rect x="25.9" y="12.2" fill="#8AD7F8" width="12.3" height="1.4"/>
					<rect x="25.9" y="15.8" fill="#8AD7F8" width="12.3" height="1.4"/>
				</g>
				<g>
					<path fill="#FFD15C" d="M31.7,30.5v-1c-1.3-0.1-2.4-0.6-3.4-1.5l1-1.2c0.8,0.7,1.6,1.1,2.4,1.2v-2.7c-1-0.2-1.8-0.6-2.3-1
						s-0.7-1-0.7-1.8s0.3-1.4,0.8-2c0.6-0.5,1.3-0.8,2.2-0.8V19h0.9v0.7c1,0.1,2,0.4,2.9,1L34.6,22c-0.6-0.4-1.3-0.7-2-0.8v2.6l0,0
						c1.1,0.2,1.8,0.6,2.3,1s0.7,1,0.7,1.8s-0.3,1.5-0.9,2c-0.6,0.5-1.3,0.8-2.3,0.8v1h-0.7V30.5z M30.8,21.6
						c-0.2,0.2-0.4,0.5-0.4,0.8s0.1,0.6,0.3,0.7c0.2,0.2,0.5,0.4,1,0.5v-2.4C31.3,21.3,31,21.4,30.8,21.6z M33.7,27.7
						c0.3-0.2,0.4-0.5,0.4-0.8s-0.1-0.6-0.3-0.8s-0.6-0.4-1.1-0.5v2.5C33.1,28,33.4,27.9,33.7,27.7z"/>
				</g>
			</g>
			<g>
				<rect x="11.5" y="21.4" fill="#FFD15C" width="10.3" height="6.9"/>
				<polyline fill="#F3705A" points="9.7,21.4 16.6,14.5 23.5,21.4 				"/>
			</g>
		</g>
	</g>
</g>
</svg>
