<?xml version="1.0" encoding="utf-8"?>
<!-- Generator: Adobe Illustrator 18.0.0, SVG Export Plug-In . SVG Version: 6.00 Build 0)  -->
<!DOCTYPE svg PUBLIC "-//W3C//DTD SVG 1.1//EN" "http://www.w3.org/Graphics/SVG/1.1/DTD/svg11.dtd">
<svg version="1.1" id="Layer_1" xmlns="http://www.w3.org/2000/svg" xmlns:xlink="http://www.w3.org/1999/xlink" x="0px" y="0px"
	 viewBox="0 0 48 48" enable-background="new 0 0 48 48" xml:space="preserve">
<g>
	<path fill="#40596B" d="M3.7,14.8L3.7,14.8C1.9,17.2,1,20.2,1,23.2v2.1V35h46V13c0-2.2-1.8-4-4-4H15.2C10.7,9,6.4,11.1,3.7,14.8z"
		/>
	<path fill="#CDD6E0" d="M48,34.7c0,0.6-0.5,1.2-1.2,1.2H1.2c-0.7,0-1.2-0.5-1.2-1.2c0-0.6,0.4-1.1,1-1.2c0.1,0,0.1,0,0.2,0h45.7
		c0.1,0,0.1,0,0.2,0C47.6,33.6,48,34.1,48,34.7z"/>
	<path fill="#CDD6E0" d="M10.5,32.4c-1.3,0-2.3,1-2.3,2.3c0,0.1,0,0.2,0,0.3c0.1-1.1,1.1-2,2.3-2c1.2,0,2.1,0.9,2.3,2
		c0-0.1,0-0.2,0-0.3C12.8,33.4,11.8,32.4,10.5,32.4z"/>
	<path fill="#CDD6E0" d="M37.5,32.4c-1.3,0-2.3,1-2.3,2.3c0,0.1,0,0.2,0,0.3c0.1-1.1,1.1-2,2.3-2c1.2,0,2.1,0.9,2.3,2
		c0-0.1,0-0.2,0-0.3C39.8,33.4,38.8,32.4,37.5,32.4z"/>
	<path fill="#334A5E" d="M15.8,34.7c0,0.4,0,0.8-0.1,1.2H5.3c-0.1-0.4-0.1-0.8-0.1-1.2c0-0.4,0-0.8,0.1-1.2c0.5-2.4,2.6-4.1,5.2-4.1
		c2.5,0,4.7,1.8,5.2,4.1C15.8,33.9,15.8,34.3,15.8,34.7z"/>
	<path fill="#B9CBDB" d="M15.8,34.7c0,0.4,0,0.8-0.1,1.2H5.3c-0.1-0.4-0.1-0.8-0.1-1.2c0-0.4,0-0.8,0.1-1.2h10.4
		C15.8,33.9,15.8,34.3,15.8,34.7z"/>
	<path fill="#334A5E" d="M42.8,34.7c0,0.4,0,0.8-0.1,1.2H32.3c-0.1-0.4-0.1-0.8-0.1-1.2c0-0.4,0-0.8,0.1-1.2
		c0.5-2.4,2.6-4.1,5.2-4.1c2.5,0,4.7,1.8,5.2,4.1C42.8,33.9,42.8,34.3,42.8,34.7z"/>
	<path fill="#B9CBDB" d="M42.8,34.7c0,0.4,0,0.8-0.1,1.2H32.3c-0.1-0.4-0.1-0.8-0.1-1.2c0-0.4,0-0.8,0.1-1.2h10.4
		C42.8,33.9,42.8,34.3,42.8,34.7z"/>
	<circle fill="#FF7058" cx="10.5" cy="34.7" r="4.3"/>
	<circle fill="#F2F2F2" cx="10.5" cy="34.7" r="2.3"/>
	<circle fill="#FF7058" cx="37.5" cy="34.7" r="4.3"/>
	<circle fill="#F2F2F2" cx="37.5" cy="34.7" r="2.3"/>
	<rect x="25.3" y="12" fill="#54C0EB" width="9.9" height="9.3"/>
	<path fill="#54C0EB" d="M13,21.2h9.9V12h-7.3c-0.9,0-1.7,0.1-2.6,0.3V21.2z"/>
	<path fill="#54C0EB" d="M42,12h-4.3v9.3H44V14C44,12.8,43.1,12,42,12z"/>
	<path fill="#54C0EB" d="M10.5,13.1c-1.6,0.8-3.1,1.9-4.2,3.3c-1.1,1.4-1.8,3.1-2.1,4.8h6.3V13.1z"/>
	<polygon fill="#84DBFF" points="20.3,12 13,20.7 13,21.2 14.5,21.2 22.3,12 	"/>
	<polygon fill="#84DBFF" points="32.7,12 25.3,20.7 25.3,21.2 26.8,21.2 34.7,12 	"/>
	<path fill="#84DBFF" d="M37.7,20.9l6.3-7.4c-0.1-0.5-0.5-1-0.9-1.2l-5.3,6.3V20.9z"/>
	<path fill="#334A5E" d="M7.3,18.7c-0.4,0-0.6,0.3-0.6,0.6v1.9h1.3v-1.9C7.9,19,7.6,18.7,7.3,18.7z"/>
	<path fill="#334A5E" d="M9.1,20.6c-0.2,0.3-0.6,0.3-0.9,0.1l-2.4-2c-0.3-0.2-0.3-0.6-0.1-0.9s0.6-0.3,0.9-0.1l2.4,2
		C9.3,20,9.4,20.4,9.1,20.6z"/>
	<path fill="#FFD15C" d="M1.8,29.9H1v-3.6h0.8c1,0,1.8,0.8,1.8,1.8v0C3.6,29.1,2.8,29.9,1.8,29.9z"/>
	<rect x="45.5" y="26.7" fill="#334A5E" width="1.5" height="2.8"/>
</g>
</svg>
