<?xml version="1.0" encoding="utf-8"?>
<!-- Generator: Adobe Illustrator 18.0.0, SVG Export Plug-In . SVG Version: 6.00 Build 0)  -->
<!DOCTYPE svg PUBLIC "-//W3C//DTD SVG 1.1//EN" "http://www.w3.org/Graphics/SVG/1.1/DTD/svg11.dtd">
<svg version="1.1" id="Layer_1" xmlns="http://www.w3.org/2000/svg" xmlns:xlink="http://www.w3.org/1999/xlink" x="0px" y="0px"
	 viewBox="0 0 48 48" enable-background="new 0 0 48 48" xml:space="preserve">
<g>
	<g>
		<g>
			<g>
				<path fill="#354B5E" d="M34.6,25.3c-2.3,1-4.2,4-4.7,4.7c-0.5,0.7-2.6,1.9-2.6,1.9c-0.1-0.1-0.2-0.2-0.3-0.3
					c-1-0.9-2.5-1.1-3.7-0.4c-0.4,0.2-0.7,0.4-0.8,0.6c-0.5,0.4-1.4,2.9-1.4,2.9c-2,2.1-9.9,2.5-9.9,2.5C3,40.6,0,47,0,47
					c2.8-1,4.4,0.8,4.4,0.8c4.1-1.9,8.4,0.2,8.4,0.2c6.2-7.7,14.9-3,14.9-3c0.1-2.5,3.1-4.4,3.1-4.4c1.9-6.2,9.2-6.5,9.2-6.5
					c0.7-3.5,5.1-7,5.1-7c0.1-2.4,2.9-3.9,2.9-3.9C42.7,21.5,36.8,24.3,34.6,25.3z"/>
				<g>
					<g>
						<path fill="#435B6C" d="M22.7,34.1L22.7,34.1c0,0-1.8-0.8-2.3-3c0,0,0,0,0,0c0.2,0,1.5,0,2.1,0.8C23.2,32.7,22.8,34,22.7,34.1
							z"/>
					</g>
					<path fill="#354B5E" d="M20.5,31.1C20.5,31.1,20.5,31.1,20.5,31.1c0.5,2.1,2.2,3,2.2,3l0,0C22.4,31.5,20.7,31.1,20.5,31.1z"/>
				</g>
				<g>
					<g>
						<path fill="#435B6C" d="M26.3,32.2L26.3,32.2c0,0,0.7-1.8-0.4-3.7c0,0,0,0,0,0c-0.1,0.1-1.1,1-1,2
							C25,31.5,26.2,32.2,26.3,32.2z"/>
					</g>
					<path fill="#354B5E" d="M25.9,28.5C25.9,28.5,25.9,28.5,25.9,28.5c-0.1,0.2-1.1,1.6,0.4,3.7l0,0C26.3,32.2,27,30.4,25.9,28.5z"
						/>
				</g>
				<g>
					<g>
						<g>
							<g>
								<path fill="#FFD15D" d="M24.6,34l0.1,0.1l-0.2,0.1c-0.1,0.1-0.6,0.2-0.8,0l0,0c0-0.1-0.2-0.3-0.1-0.5c0-0.1,0.1-0.1,0.2-0.1
									l0.1,0C23.8,33.6,24.4,33.8,24.6,34z"/>
								<path fill="#FFD15D" d="M26.2,32.8L26.2,32.8c0.1,0.4-0.4,0.8-0.4,0.8l-0.1,0.1l-0.1-0.1c-0.2-0.3,0-0.8,0-0.8l0,0
									c0-0.1,0.1-0.1,0.2-0.1C26,32.5,26.1,32.7,26.2,32.8z"/>
							</g>
						</g>
					</g>
				</g>
			</g>
			<path fill="#354B5E" d="M31.7,40.9c0.1,0,0.1,0.1,0.1,0.2c0.1,0,0.1-0.1,0.1-0.2c0-0.1-0.1-0.1-0.2-0.1c-0.2-0.1-0.4-0.2-0.6-0.3
				c-0.2-0.1-0.5-0.2-0.7-0.2c-0.3,0-0.6,0.1-0.8,0.3l0.3,0.1c0.2,0.2,0.5,0.5,0.7,0.7c0.1,0.1,0.2,0.2,0.3,0.4
				c0.1,0.1,0.1,0.3,0,0.5c0.2-0.1,0.2-0.4,0.1-0.5c0.2,0.1,0.3,0.3,0.2,0.4c0.1-0.1,0.2-0.2,0.2-0.3c0-0.1-0.1-0.2-0.2-0.3
				c0.1-0.1,0.2-0.1,0.2,0c0.1,0,0.1,0.1,0.1,0.2c0.1,0,0.2-0.2,0.1-0.3c0-0.1-0.1-0.2-0.2-0.2c0-0.1,0.1-0.1,0.2-0.1
				c0.1,0,0.1,0.1,0.1,0.1c0-0.2-0.1-0.4-0.3-0.4C31.6,41,31.7,40.9,31.7,40.9z"/>
			<path fill="#354B5E" d="M23.9,45c-0.2-0.1-0.3-0.2-0.3-0.4c-0.1-0.2-0.1-0.3-0.1-0.5c0-0.3,0-0.6,0-1l0.2-0.3
				c-0.3,0-0.6,0.2-0.8,0.4c-0.2,0.2-0.3,0.4-0.3,0.6c-0.1,0.2-0.2,0.4-0.2,0.6c0,0.1,0,0.2,0,0.2c0,0.1,0.1,0.1,0.2,0.1
				c-0.1,0-0.1-0.1,0-0.2c0-0.1,0.1-0.1,0.2-0.1c-0.1,0.2,0,0.4,0.1,0.5c0-0.1,0-0.1,0-0.2c0-0.1,0.1-0.1,0.2-0.1
				c-0.1,0.1-0.1,0.2,0,0.3c0.1,0.1,0.2,0.1,0.3,0.1c-0.1-0.1-0.1-0.2-0.1-0.2c0-0.1,0.1-0.2,0.2-0.2c0,0.1,0,0.2,0.1,0.3
				c0.1,0.1,0.2,0.1,0.3,0.1c-0.2-0.1-0.2-0.3-0.2-0.5C23.5,44.9,23.7,45.1,23.9,45z"/>
		</g>
		<g>
			<g>
				<path fill="#354B5E" d="M37.1,5.1c-2.2-0.5-5.3,0.6-6,0.8c-0.8,0.2-2.9,0-2.9,0c0-0.1,0-0.3,0-0.4c-0.2-1.2-1.2-2.2-2.4-2.3
					c-0.4-0.1-0.7-0.1-0.9,0c-0.6,0-2.6,1.3-2.6,1.3c-2.6,0.4-8.6-3.7-8.6-3.7C5.7-1.3,0,1.7,0,1.7c2.6,0.8,2.8,3.1,2.8,3.1
					c4,0.9,6,4.8,6,4.8c8.8-2.1,12.5,6.1,12.5,6.1c1.5-1.8,4.7-1.5,4.7-1.5c4.8-3.5,10.2,0.4,10.2,0.4c2.4-2.2,7.6-2.3,7.6-2.3
					C45.2,10.5,48,11,48,11C45.1,6.8,39.3,5.6,37.1,5.1z"/>
				<g>
					<path fill="#435B6C" d="M23.7,1.5C23.6,1.5,23.6,1.5,23.7,1.5c-0.8,1.8,0,3.4,0,3.4l0,0c0.1,0,1.1-0.7,1.1-1.7
						C24.7,2.3,23.8,1.6,23.7,1.5z"/>
					<path fill="#354B5E" d="M23.7,1.5C23.6,1.5,23.6,1.5,23.7,1.5c-0.8,1.8,0,3.4,0,3.4l0,0C24.8,2.8,23.8,1.6,23.7,1.5z"/>
				</g>
				<g>
					<g>
						<path fill="#435B6C" d="M27.3,5.5L27.3,5.5c0,0,1.5-0.9,1.7-2.9c0,0,0,0,0,0c-0.1,0-1.3,0.2-1.8,0.9
							C26.7,4.3,27.2,5.5,27.3,5.5z"/>
					</g>
					<path fill="#354B5E" d="M29,2.6c-0.2,0-1.7,0.5-1.7,2.9l0,0C27.3,5.5,28.8,4.6,29,2.6C29,2.6,29,2.6,29,2.6z"/>
				</g>
				<g>
					<g>
						<g>
							<g>
								<path fill="#FFD15D" d="M25,5.9l0,0.2l-0.1,0c-0.1,0-0.5-0.1-0.6-0.4l0-0.1c0-0.1,0-0.3,0.2-0.4c0.1,0,0.1,0,0.2,0l0.1,0
									C24.7,5.2,25,5.7,25,5.9z"/>
								<path fill="#FFD15D" d="M26.8,5.9L26.8,5.9c-0.1,0.4-0.7,0.3-0.7,0.3l-0.1,0l0-0.1c0-0.3,0.4-0.6,0.5-0.6l0,0
									c0.1,0,0.1,0,0.2,0C26.8,5.6,26.8,5.8,26.8,5.9z"/>
							</g>
						</g>
					</g>
				</g>
			</g>
			<path fill="#354B5E" d="M26.5,14.8c-0.1-0.2-0.2-0.3-0.3-0.5c-0.1-0.2-0.2-0.4-0.4-0.5c-0.2-0.2-0.5-0.3-0.8-0.2l0.2,0.2
				c0,0.3,0.1,0.6,0.1,0.9c0,0.2,0,0.3,0,0.5c0,0.2-0.1,0.3-0.2,0.4c0.2,0,0.3-0.1,0.4-0.3c0.1,0.1,0.1,0.3-0.1,0.5
				c0.1,0,0.2,0,0.3-0.1c0.1-0.1,0.1-0.2,0-0.3c0.1,0,0.2,0.1,0.2,0.1c0,0.1,0,0.2,0,0.2c0.1,0,0.2,0,0.2-0.1c0-0.1,0-0.2-0.1-0.3
				c0.1,0,0.1,0,0.2,0c0,0,0.1,0.1,0,0.2c0.1-0.1,0.1-0.3,0-0.5c0.1,0,0.1,0,0.2,0c0,0,0,0.1,0,0.2c0.1,0,0.1,0,0.2-0.1
				C26.5,14.9,26.5,14.8,26.5,14.8z"/>
			<path fill="#354B5E" d="M18.6,11.7c-0.2,0-0.4,0.2-0.6,0.3c-0.2,0.1-0.3,0.2-0.5,0.3c-0.1,0-0.1,0.1-0.1,0.2s0,0.2,0.1,0.1
				c0-0.1,0-0.1,0.1-0.2c0.1,0,0.1,0,0.2,0.1c-0.1,0.1-0.2,0.3-0.2,0.4c0-0.1,0-0.1,0.1-0.1c0.1,0,0.1,0,0.2,0
				c-0.1,0-0.2,0.1-0.2,0.2c0,0.1,0.1,0.2,0.2,0.2c0-0.1,0-0.2,0.1-0.2c0.1,0,0.2-0.1,0.2,0c-0.1,0.1-0.1,0.2-0.1,0.3
				c0,0.1,0.1,0.2,0.2,0.2c-0.1-0.2,0-0.4,0.2-0.4c-0.1,0.2,0,0.4,0.2,0.5c-0.1-0.1-0.1-0.3,0-0.4c0-0.1,0.1-0.3,0.2-0.4
				c0.2-0.2,0.3-0.5,0.5-0.7l0.3-0.1C19.2,11.7,18.9,11.7,18.6,11.7z"/>
		</g>
	</g>
</g>
</svg>
