<?xml version="1.0" encoding="utf-8"?>
<!-- Generator: Adobe Illustrator 18.0.0, SVG Export Plug-In . SVG Version: 6.00 Build 0)  -->
<!DOCTYPE svg PUBLIC "-//W3C//DTD SVG 1.1//EN" "http://www.w3.org/Graphics/SVG/1.1/DTD/svg11.dtd">
<svg version="1.1" id="Layer_1" xmlns="http://www.w3.org/2000/svg" xmlns:xlink="http://www.w3.org/1999/xlink" x="0px" y="0px"
	 viewBox="0 0 48 48" enable-background="new 0 0 48 48" xml:space="preserve">
<g>
	<g>
		<g>
			<g>
				<path fill="#E8EAE9" d="M24,45.5C12.1,45.5,2.5,35.9,2.5,24C2.5,12.1,12.1,2.5,24,2.5S45.5,12.1,45.5,24
					C45.5,35.9,35.9,45.5,24,45.5z M24,5.4C13.7,5.4,5.4,13.7,5.4,24c0,10.3,8.4,18.6,18.6,18.6S42.6,34.3,42.6,24
					C42.6,13.7,34.3,5.4,24,5.4z"/>
			</g>
			<g>
				<path fill="#E8EAE9" d="M24,36.5c-6.9,0-12.5-5.6-12.5-12.5S17.1,11.5,24,11.5S36.5,17.1,36.5,24S30.9,36.5,24,36.5z M24,14.4
					c-5.3,0-9.6,4.3-9.6,9.6c0,5.3,4.3,9.6,9.6,9.6c5.3,0,9.6-4.3,9.6-9.6C33.6,18.7,29.3,14.4,24,14.4z"/>
			</g>
		</g>
		<g>
			<g>
				<path fill="#415A6B" d="M48,24c0,0.8-0.7,1.5-1.5,1.5H28.4c-0.5,1.4-1.6,2.5-2.9,3v18.1c0,0.8-0.7,1.5-1.5,1.5
					c-0.8,0-1.5-0.7-1.5-1.5V28.4c-1.4-0.5-2.5-1.6-3-3H1.5C0.7,25.5,0,24.8,0,24s0.7-1.5,1.5-1.5h18.1c0.5-1.4,1.6-2.5,3-3V1.5
					C22.5,0.7,23.2,0,24,0c0.8,0,1.5,0.7,1.5,1.5v18.1c1.4,0.5,2.5,1.6,2.9,3h18.1C47.3,22.5,48,23.2,48,24z"/>
			</g>
		</g>
	</g>
</g>
</svg>
