<?xml version="1.0" encoding="utf-8"?>
<!-- Generator: Adobe Illustrator 18.0.0, SVG Export Plug-In . SVG Version: 6.00 Build 0)  -->
<!DOCTYPE svg PUBLIC "-//W3C//DTD SVG 1.1//EN" "http://www.w3.org/Graphics/SVG/1.1/DTD/svg11.dtd">
<svg version="1.1" id="Layer_1" xmlns="http://www.w3.org/2000/svg" xmlns:xlink="http://www.w3.org/1999/xlink" x="0px" y="0px"
	 viewBox="0 0 48 48" enable-background="new 0 0 48 48" xml:space="preserve">
<g>
	<g>
		<g>
			<g>
				<g>
					<g>
						<path fill="#8AD7F8" d="M29.4,28l-4.7,6.5c-2.6,3.6-7.6,4.4-11.2,1.8c-3.6-2.6-4.4-7.6-1.7-11.2l4.7-6.5l-8.2-6L3.5,19
							c-5.9,8.1-4.1,19.6,4,25.5s19.6,4.1,25.5-4l4.7-6.5L29.4,28z"/>
					</g>
				</g>
				<g>
					<g>
						
							<rect x="32.1" y="23.2" transform="matrix(-0.5894 0.8079 -0.8079 -0.5894 79.3725 16.1669)" fill="#E8EAE9" width="6.9" height="10.2"/>
						
							<rect x="10.9" y="7.7" transform="matrix(-0.5894 0.8079 -0.8079 -0.5894 33.1702 8.7203)" fill="#E8EAE9" width="6.9" height="10.2"/>
					</g>
				</g>
			</g>
		</g>
		<g>
			<g>
				<polygon fill="#FFD15C" points="22.3,8.7 26.9,4.9 24.4,3.2 32.8,0 28.2,3.8 30.7,5.6 				"/>
			</g>
		</g>
		<g>
			<g>
				<polygon fill="#FFD15C" points="37.5,15.7 42.1,11.9 39.6,10.1 48,7 43.4,10.8 45.9,12.5 				"/>
			</g>
		</g>
		<g>
			<g>
				<polygon fill="#FFD15C" points="20.6,23 26.2,18.3 23.2,16.1 33.6,12.2 27.9,16.9 30.9,19.1 				"/>
			</g>
		</g>
	</g>
</g>
</svg>
