<?xml version="1.0" encoding="utf-8"?>
<!-- Generator: Adobe Illustrator 18.0.0, SVG Export Plug-In . SVG Version: 6.00 Build 0)  -->
<!DOCTYPE svg PUBLIC "-//W3C//DTD SVG 1.1//EN" "http://www.w3.org/Graphics/SVG/1.1/DTD/svg11.dtd">
<svg version="1.1" id="Layer_1" xmlns="http://www.w3.org/2000/svg" xmlns:xlink="http://www.w3.org/1999/xlink" x="0px" y="0px"
	 viewBox="0 0 48 48" enable-background="new 0 0 48 48" xml:space="preserve">
<g>
	<path fill="#FF7058" d="M33.8,41.3c-0.6,1.4-1.4,2.7-2.5,3.7c-1.9,1.8-4.5,2.9-7.3,2.9s-5.4-1.1-7.3-2.9c-1.1-1-1.9-2.3-2.5-3.7
		H33.8z"/>
	<path opacity="0.1" fill="#231F20" d="M33.8,41.3c-0.6,1.4-1.4,2.7-2.5,3.7H16.7c-1.1-1-1.9-2.3-2.5-3.7H33.8z"/>
	<path fill="#FFD15C" d="M40.8,38H7.2V22.5c0-9.3,7.5-16.8,16.8-16.8h0c9.3,0,16.8,7.5,16.8,16.8V38z"/>
	<g>
		<g>
			<rect x="7.2" y="27.7" fill="#F8B64C" width="33.6" height="2"/>
		</g>
		<g>
			<rect x="7.2" y="31.7" fill="#F8B64C" width="33.6" height="2"/>
		</g>
	</g>
	<path fill="#F8B64C" d="M39,36.5H9c-2.8,0-5,2.2-5,5v1c0,0.6,0.4,1,1,1H43c0.6,0,1-0.4,1-1v-1C44,38.7,41.7,36.5,39,36.5z"/>
	<g>
		<g>
			<path fill="#FF7058" d="M22.8,7.5c0,0-8.4,5.3-10.7,3.6c-2.2-1.6-2.2-9.2,0-10.7C14.4-1.3,22.8,4,22.8,4V7.5z"/>
			<path fill="#FF7058" d="M25.2,7.5c0,0,8.4,5.3,10.7,3.6c2.2-1.6,2.2-9.2,0-10.7C33.6-1.3,25.2,4,25.2,4V7.5z"/>
		</g>
		<circle fill="#F1543F" cx="24" cy="5.7" r="4.1"/>
		<circle fill="#FF7058" cx="24" cy="5.7" r="3.2"/>
	</g>
</g>
</svg>
