<?xml version="1.0" encoding="utf-8"?>
<!-- Generator: Adobe Illustrator 20.1.0, SVG Export Plug-In . SVG Version: 6.00 Build 0)  -->
<!DOCTYPE svg PUBLIC "-//W3C//DTD SVG 1.1//EN" "http://www.w3.org/Graphics/SVG/1.1/DTD/svg11.dtd">
<svg version="1.1" id="Layer_1" xmlns="http://www.w3.org/2000/svg" xmlns:xlink="http://www.w3.org/1999/xlink" x="0px" y="0px"
	 viewBox="0 0 49 49" enable-background="new 0 0 49 49" xml:space="preserve">
<g>
	<path fill="#F1543F" d="M46.8,15.5l1.7-2.1l-2.1-1.7c-0.7-0.6-1.5-1-2.3-1.3c0.7-1.2,1.2-2.6,1.2-4.1V3.7h-2.7
		c-1.5,0-2.9,0.4-4.1,1.2c-0.3-0.8-0.7-1.6-1.3-2.3l-1.7-2.1l-2.1,1.7C30.2,4.8,34,15,34,15S44.2,18.8,46.8,15.5z"/>
	<path fill="#F1543F" d="M2.2,33.5l-1.7,2.1l2.1,1.7c0.7,0.6,1.5,1,2.3,1.3c-0.7,1.2-1.2,2.6-1.2,4.1v2.7h2.7c1.5,0,2.9-0.4,4.1-1.2
		c0.3,0.8,0.7,1.6,1.3,2.3l1.7,2.1l2.1-1.7C18.8,44.2,15,34,15,34S4.8,30.2,2.2,33.5z"/>
	<path fill="#FF7058" d="M36.6,12.4c0.2,0.2,0.4,0.5,0.6,0.7c2.6,3.3,2.5,8.5,0,13.6c-0.7,1.4-1.5,2.8-2.5,4.2c-0.8,1-1.7,2-2.6,3
		c-0.3,0.3-0.7,0.7-1,1c-0.8,0.8-1.7,1.4-2.5,2c-1.2,0.8-2.4,1.6-3.6,2.1c-0.8,0.4-1.7,0.7-2.5,1c-1.2,0.4-2.5,0.7-3.6,0.8
		c-0.9,0.1-1.7,0.1-2.5,0c-1.3-0.1-2.6-0.5-3.6-1.1c-0.7-0.4-1.3-0.8-1.9-1.4c-0.2-0.2-0.4-0.5-0.6-0.7c-2.6-3.3-2.5-8.5,0-13.6
		c0.7-1.4,1.5-2.8,2.5-4.2c0.8-1,1.6-2,2.6-3c0.3-0.3,0.7-0.7,1-1c0.8-0.8,1.7-1.4,2.5-2c1.2-0.8,2.4-1.6,3.6-2.1l0,0
		c0.8-0.4,1.7-0.8,2.5-1c1.2-0.4,2.5-0.7,3.6-0.8c0.9-0.1,1.7-0.1,2.5,0c1.3,0.1,2.6,0.5,3.7,1.1C35.4,11.4,36,11.8,36.6,12.4z"/>
	<g>
		<path fill="#FFD15C" d="M12.4,20v19.9c-0.7-0.4-1.3-0.8-1.9-1.4c-0.2-0.2-0.4-0.5-0.6-0.7l0-13.6C10.6,22.7,11.4,21.3,12.4,20z"/>
		<path fill="#FFD15C" d="M18.6,13.9l0,27c-0.9,0.1-1.7,0.1-2.5,0l0-25C16.9,15.2,17.8,14.5,18.6,13.9z"/>
		<path fill="#FFD15C" d="M24.8,10.7v28.4c-0.8,0.4-1.7,0.7-2.5,1l0-28.4l0,0C23.1,11.4,24,11,24.8,10.7z"/>
		<path fill="#FFD15C" d="M31,9.9l0,25c-0.8,0.8-1.7,1.4-2.5,2V10C29.3,9.9,30.2,9.9,31,9.9z"/>
		<path fill="#FFD15C" d="M36.6,12.4c0.2,0.2,0.4,0.5,0.6,0.7l0,13.6c-0.7,1.4-1.5,2.8-2.5,4.2V11C35.4,11.4,36,11.8,36.6,12.4z"/>
	</g>
</g>
</svg>
