<?xml version="1.0" encoding="utf-8"?>
<!-- Generator: Adobe Illustrator 18.0.0, SVG Export Plug-In . SVG Version: 6.00 Build 0)  -->
<!DOCTYPE svg PUBLIC "-//W3C//DTD SVG 1.1//EN" "http://www.w3.org/Graphics/SVG/1.1/DTD/svg11.dtd">
<svg version="1.1" id="Layer_1" xmlns="http://www.w3.org/2000/svg" xmlns:xlink="http://www.w3.org/1999/xlink" x="0px" y="0px"
	 viewBox="0 0 48 48" enable-background="new 0 0 48 48" xml:space="preserve">
<g>
	<g>
		<g>
			<g>
				<g>
					<rect x="17" y="15.4" fill="#FFD15C" width="14" height="26"/>
				</g>
			</g>
			<g>
				<g>
					<path fill="#F3F3F3" d="M31,15.4c-1.1,0.8-3.5,1.8-7,2.8c-4.1,1.2-6.1,2.4-7,3.2v6c0.9-0.9,2.9-2,7-3.2c4.1-1.2,6.1-2.4,7-3.2
						V15.4L31,15.4z"/>
					<path fill="#F3F3F3" d="M24,30.2c-4.1,1.2-6.1,2.4-7,3.2v6c0.9-0.9,2.9-2,7-3.2c4.1-1.2,6.1-2.4,7-3.2v-6
						C30.1,27.8,28.1,29,24,30.2z"/>
				</g>
			</g>
		</g>
		<g>
			<g>
				<path fill="#F3705A" d="M28.5,9c0-2.5-4.5-9-4.5-9s-4.5,6.5-4.5,9s2,4.5,4.5,4.5S28.5,11.5,28.5,9z"/>
			</g>
			<g>
				<path fill="#FFD15C" d="M26,11.5c0-1.1-2-4-2-4s-2,2.9-2,4s0.9,2,2,2S26,12.6,26,11.5z"/>
			</g>
		</g>
		<g>
			<g>
				<g>
					<g>
						<path fill="#4EC0AA" d="M23.1,43.2c0,0-0.4-2.2,0.5-4.7c0.7-2.6,2.9-5.3,4.3-6.1c0.4,1.3,1.5,1.8,2.6,1.5
							c0.7-0.3,2.1-1.4,3.1-2.3c0.2,1.6,1.7,2.5,3.4,2.4c0.8,0,1.6-0.2,2.4-0.5c0,1.2,1.7,2.4,3.2,3.2c-1.8,0-3.5,1.1-3.5,2.3
							c-0.6-0.4-1.3-0.6-1.9-0.5c-1.4,0.1-2.2,1.5-1.7,3.1c-0.7-0.6-2.1-1-2.6-0.8c-0.8,0.3-0.8,1.4-0.2,2.5
							C29.5,44.8,26.3,45,23.1,43.2z"/>
					</g>
					<g>
						<path fill="#344A5E" d="M21.7,44l1.4,0.4c2.9-4.3,7.5-7.3,12.8-8.1C30.4,36.8,25.3,39.5,21.7,44z"/>
					</g>
				</g>
				<g>
					<g>
						<path fill="#66C6B9" d="M23.5,43.5c0,0,0.7-2.1,0.3-4.8c-0.3-2.7-2-5.8-3.2-6.8c-0.6,1.2-1.8,1.5-2.8,1
							c-0.7-0.4-1.8-1.8-2.6-2.8c-0.5,1.6-2.1,2.2-3.8,1.8c-0.8-0.2-1.5-0.5-2.3-0.9C9,32.2,7,33.1,5.4,33.6c1.7,0.3,3.2,1.7,3,2.9
							c0.7-0.2,1.3-0.3,1.9-0.2c1.4,0.3,1.9,1.8,1.2,3.3c0.8-0.4,2.2-0.6,2.7-0.3c0.7,0.4,0.6,1.5-0.2,2.5
							C16.9,44,20,44.7,23.5,43.5z"/>
					</g>
					<g>
						<path fill="#415A6B" d="M24.5,44c-2.8-4.8-7.3-8.1-12.3-9.5c4.9,1.6,8.9,5.2,11,9.8L24.5,44z"/>
					</g>
				</g>
			</g>
			<g>
				<g>
					<g>
						<circle fill="#F05540" cx="27.7" cy="41.3" r="3.6"/>
					</g>
					<g>
						
							<ellipse transform="matrix(0.7071 0.7071 -0.7071 0.7071 36.6953 -9.0038)" fill="#FFFFFF" cx="29.2" cy="39.8" rx="1.1" ry="0.5"/>
					</g>
				</g>
				<g>
					<g>
						<circle fill="#F05540" cx="19.9" cy="40.9" r="3.6"/>
					</g>
					<g>
						
							<ellipse transform="matrix(0.7071 0.7071 -0.7071 0.7071 34.1094 -3.6735)" fill="#FFFFFF" cx="21.5" cy="39.3" rx="1.1" ry="0.5"/>
					</g>
				</g>
				<g>
					<g>
						<circle fill="#F3705A" cx="23.5" cy="44.4" r="3.6"/>
					</g>
					<g>
						
							<ellipse transform="matrix(0.7071 0.7071 -0.7071 0.7071 37.6666 -5.1469)" fill="#FFFFFF" cx="25" cy="42.9" rx="1.1" ry="0.5"/>
					</g>
				</g>
			</g>
		</g>
	</g>
</g>
</svg>
