<?xml version="1.0" encoding="utf-8"?>
<!-- Generator: Adobe Illustrator 18.0.0, SVG Export Plug-In . SVG Version: 6.00 Build 0)  -->
<!DOCTYPE svg PUBLIC "-//W3C//DTD SVG 1.1//EN" "http://www.w3.org/Graphics/SVG/1.1/DTD/svg11.dtd">
<svg version="1.1" id="Layer_1" xmlns="http://www.w3.org/2000/svg" xmlns:xlink="http://www.w3.org/1999/xlink" x="0px" y="0px"
	 viewBox="0 0 48 48" enable-background="new 0 0 48 48" xml:space="preserve">
<g>
	<path fill="#40596B" d="M45.7,8.4c0-1-0.8-1.8-1.8-1.8H4.1c-1,0-1.8,0.8-1.8,1.8v25.3h43.4V8.4z"/>
	<path fill="#ACB3BA" d="M37.1,46.9h-1.6c-1.5,0-2.7-1.2-2.7-2.7v-3.9H15.3v3.9c0,1.5-1.2,2.7-2.7,2.7h-1.6c-0.3,0-0.6,0.3-0.6,0.6
		v0c0,0.3,0.3,0.6,0.6,0.6h26.2c0.3,0,0.6-0.3,0.6-0.6v0C37.7,47.1,37.4,46.9,37.1,46.9z"/>
	<rect x="5" y="9.3" fill="#FFFFFF" width="37.9" height="21.6"/>
	<rect x="5" y="9.3" fill="#84DBFF" width="37.9" height="21.6"/>
	<path fill="#CDD6E0" d="M2.3,33.7v4.7c0,1,0.8,1.8,1.8,1.8h39.7c1,0,1.8-0.8,1.8-1.8v-4.7H2.3z"/>
	<circle fill="#ACB3BA" cx="24" cy="37" r="1.4"/>
	<rect x="15.3" y="40.2" fill="#9CAAB5" width="17.5" height="1.4"/>
	<polygon fill="#55BFE9" points="36.1,28.7 36.1,29.2 36.1,28.7 	"/>
	<polygon fill="#FFD15C" points="35.1,29.2 35.1,29.2 36.1,29.2 	"/>
	<rect x="34.6" y="28.7" fill="#55BFE9" width="0" height="1.2"/>
	<g>
		<g>
			<polygon fill="#54C0EB" points="37.3,9.3 35.6,31 12.4,31 10.7,9.3 			"/>
			<polygon fill="#334A5E" points="37.3,9.3 37.5,6.6 10.5,6.6 10.7,9.3 			"/>
			<rect x="12.4" y="0" fill="#F2F2F2" width="23.2" height="30.9"/>
			<rect x="14.9" y="2.5" fill="#FFD15C" width="18.2" height="6.5"/>
			<g>
				
					<rect x="28.7" y="4.4" transform="matrix(0.7071 0.7071 -0.7071 0.7071 12.8844 -19.5973)" fill="#FF7058" width="2.8" height="2.8"/>
				<rect x="15.9" y="5.2" fill="#FF7058" width="10.2" height="1"/>
			</g>
		</g>
		<g>
			<rect x="14.2" y="21.4" fill="#ACB3BA" width="19.6" height="2.4"/>
			<g>
				<g>
					<polygon fill="#40596B" points="34.6,28.3 34.6,26.7 34.6,26.7 33,26.7 33,28.3 					"/>
					<polygon fill="#FFD05C" points="15.6,26.7 13.4,27.5 15.6,28.3 					"/>
					<rect x="15.6" y="26.7" fill="#FF7058" width="17" height="0.8"/>
					<rect x="15.6" y="27.5" fill="#F1543F" width="17" height="0.8"/>
					<polygon fill="#334A5E" points="14.3,27.8 13.4,27.5 14.3,27.2 					"/>
					<rect x="32.5" y="26.7" fill="#F2F2F2" width="0.5" height="1.6"/>
				</g>
				<rect x="14.2" y="23.8" fill="#CDD6E0" width="19.6" height="1.4"/>
				<g>
					<rect x="14.9" y="21.4" fill="#CDD6E0" width="0.1" height="0.5"/>
					<rect x="16.2" y="21.4" fill="#CDD6E0" width="0.1" height="0.5"/>
					<rect x="17.5" y="21.4" fill="#CDD6E0" width="0.1" height="0.5"/>
					<rect x="18.8" y="21.4" fill="#CDD6E0" width="0.1" height="0.5"/>
					<rect x="20.1" y="21.4" fill="#CDD6E0" width="0.1" height="0.5"/>
					<rect x="21.4" y="21.4" fill="#CDD6E0" width="0.1" height="0.5"/>
					<rect x="22.6" y="21.4" fill="#CDD6E0" width="0.1" height="0.5"/>
					<rect x="23.9" y="21.4" fill="#CDD6E0" width="0.1" height="0.5"/>
					<rect x="25.2" y="21.4" fill="#CDD6E0" width="0.1" height="0.5"/>
					<rect x="26.5" y="21.4" fill="#CDD6E0" width="0.1" height="0.5"/>
					<rect x="27.8" y="21.4" fill="#CDD6E0" width="0.1" height="0.5"/>
					<rect x="29.1" y="21.4" fill="#CDD6E0" width="0.1" height="0.5"/>
					<rect x="30.4" y="21.4" fill="#CDD6E0" width="0.1" height="0.5"/>
					<rect x="31.7" y="21.4" fill="#CDD6E0" width="0.1" height="0.5"/>
					<rect x="32.9" y="21.4" fill="#CDD6E0" width="0.1" height="0.5"/>
				</g>
			</g>
		</g>
	</g>
	<g>
		<rect x="30.1" y="11.6" fill="#FFD15C" width="11.6" height="7"/>
		
			<rect x="34.5" y="13.7" transform="matrix(0.7071 0.7071 -0.7071 0.7071 21.1888 -20.9551)" fill="#FF7058" width="2.8" height="2.8"/>
	</g>
</g>
</svg>
