<?xml version="1.0" encoding="utf-8"?>
<!-- Generator: Adobe Illustrator 19.0.1, SVG Export Plug-In . SVG Version: 6.00 Build 0)  -->
<svg version="1.1" id="Layer_1" xmlns="http://www.w3.org/2000/svg" xmlns:xlink="http://www.w3.org/1999/xlink" x="0px" y="0px"
	 viewBox="0 0 48 48" style="enable-background:new 0 0 48 48;" xml:space="preserve">
<style type="text/css">
	.st0{fill:#415A6B;}
	.st1{fill:#ADB3BA;}
	.st2{fill:#E8EAE9;}
	.st3{fill:#55C0EB;}
	.st4{fill:#F3705A;}
	.st5{fill:#FFFFFF;}
	.st6{fill:#FFD15C;}
	.st7{fill:#344A5E;}
	.st8{fill:#CED6E0;}
	.st9{fill:#F05540;}
	.st10{fill:#F7B64C;}
	.st11{fill:#F3F3F3;}
	.st12{fill:#66C6B9;}
	.st13{fill:#4ABAA5;}
	.st14{fill:#8AD7F8;}
	.st15{fill:none;}
	.st16{fill:#E53D35;}
</style>
<g>
	<g>
		<g>
			<path class="st7" d="M44.4,5.6v27.7H3.6V5.6c0-1.1,0.9-2,2-2h36.9C43.5,3.7,44.4,4.5,44.4,5.6z"/>
			<g>
				<rect x="7.1" y="7.2" class="st2" width="33.8" height="22.7"/>
			</g>
			<g>
				<g>
					<path class="st7" d="M0.8,40.3L0,40.6v2c0,1,0.8,1.7,1.7,1.7h44.5c1,0,1.7-0.8,1.7-1.7v-2l-0.8-0.3H0.8z"/>
				</g>
			</g>
			<g>
				<path class="st0" d="M44.5,33.3H3.5l-3.5,7c-0.2,0.2,0,0.6,0.3,0.6h47.3c0.3,0,0.5-0.3,0.3-0.6L44.5,33.3z"/>
			</g>
			<g>
				<g>
					<path class="st4" d="M18.3,19.1v6.5c0,0.5-0.4,0.9-0.9,0.9h-2.8c-0.5,0-0.9-0.4-0.9-0.9v-6.5c0-0.5,0.4-0.9,0.9-0.9h2.8
						C17.9,18.2,18.3,18.6,18.3,19.1z"/>
				</g>
				<g>
					<path class="st6" d="M26.3,14.3v11.2c0,0.5-0.4,0.9-0.9,0.9h-2.8c-0.5,0-0.9-0.4-0.9-0.9V14.3c0-0.5,0.4-0.9,0.9-0.9h2.8
						C25.9,13.5,26.3,13.9,26.3,14.3z"/>
				</g>
				<g>
					<path class="st13" d="M34.3,9.6v16c0,0.5-0.4,0.9-0.9,0.9h-2.8c-0.5,0-0.9-0.4-0.9-0.9v-16c0-0.5,0.4-0.9,0.9-0.9h2.8
						C33.9,8.7,34.3,9.1,34.3,9.6z"/>
				</g>
			</g>
		</g>
		<g>
			<polygon class="st7" points="19.3,39 21.1,35.3 26.9,35.3 28.7,39 			"/>
		</g>
	</g>
</g>
</svg>
