<?xml version="1.0" encoding="utf-8"?>
<!-- Generator: Adobe Illustrator 16.0.0, SVG Export Plug-In . SVG Version: 6.00 Build 0)  -->
<!DOCTYPE svg PUBLIC "-//W3C//DTD SVG 1.1//EN" "http://www.w3.org/Graphics/SVG/1.1/DTD/svg11.dtd">
<svg version="1.1" id="Layer_1" xmlns="http://www.w3.org/2000/svg" xmlns:xlink="http://www.w3.org/1999/xlink" x="0px" y="0px"
	 width="48px" height="48px" viewBox="0 0 48 48" enable-background="new 0 0 48 48" xml:space="preserve">
<g>
	<path fill="#E2E2E2" d="M35.258,17.982c0,6.218-5.04,11.259-11.257,11.259c-6.218,0-11.258-5.041-11.258-11.259
		c0-6.217,5.04-11.258,11.258-11.258C30.218,6.724,35.258,11.765,35.258,17.982"/>
	<path fill="#F2F2F2" d="M35.255,11.25c0,6.223-22.511,6.223-22.511,0c0-2.02,0.53-3.916,1.469-5.549
		C16.141,2.295,19.802,0,24.005,0c4.886,0,9.037,3.111,10.597,7.467C35.021,8.65,35.255,9.924,35.255,11.25"/>
	<polygon fill="#FFD15C" points="33.734,24.306 33.275,25.835 26.575,48 21.424,48 14.723,25.835 14.264,24.306 	"/>
	<path fill="#FFD15C" d="M34.102,21.6H13.9c-0.748,0-1.355,0.607-1.355,1.354c0,0.748,0.607,1.355,1.355,1.355h20.202
		c0.748,0,1.354-0.607,1.354-1.355C35.455,22.208,34.85,21.6,34.102,21.6"/>
	<path fill="#F8B64C" d="M33.154,26.244l-0.051,0.051l-0.459-0.458l-1.541-1.53h-2.07l-1.54,1.53l-0.459,0.458l-1.989-1.988h-2.081
		l-1.54,1.53l-0.459,0.458l-1.988-1.988h-2.081l-1.54,1.53l-0.459,0.458l-0.051-0.051l0.652,2.162l1.684,1.684l-0.898,0.896
		l0.347,1.152l1.307-1.295l2.273,2.274l-2.273,2.284l-0.459-0.459l0.651,2.152l2.081,2.09l-1.112,1.112l0.348,1.163l1.52-1.52
		l2.285,2.272l-2.285,2.285l-0.856-0.867l0.745,2.488l0.111-0.111L22.964,48h2.081l1.989-1.989l0.112,0.111l0.744-2.479L27.034,44.5
		l-2.275-2.285l2.275-2.273l1.519,1.509l0.348-1.151l-1.111-1.111l2.081-2.092l0.653-2.15l-0.459,0.459l-2.275-2.285l2.275-2.273
		l1.306,1.295l0.346-1.154l-0.896-0.896l1.683-1.684L33.154,26.244z M24.004,24.775l1.063,1.062l1.213,1.214l-2.274,2.284
		l-2.283-2.284l1.224-1.214L24.004,24.775z M26.279,33.119l-2.275,2.285l-2.283-2.285l2.283-2.273L26.279,33.119z M15.651,27.05
		l1.224-1.214l1.062-1.063l2.273,2.275l-2.273,2.284L15.651,27.05z M18.69,30.089l2.274-2.284l2.285,2.284l-2.285,2.275
		L18.69,30.089z M18.69,36.158l2.274-2.285l2.285,2.285l-2.285,2.273L18.69,36.158z M26.279,45.256l-2.275,2.273l-2.283-2.273
		l2.283-2.285L26.279,45.256z M24.004,41.462l-2.283-2.274l2.283-2.285l2.275,2.285L24.004,41.462z M29.318,36.158l-2.284,2.273
		l-2.275-2.273l2.275-2.285L29.318,36.158z M27.034,32.365l-2.275-2.275l2.275-2.285l2.284,2.285L27.034,32.365z M30.063,29.334
		l-2.274-2.284l2.274-2.274l1.062,1.062l1.224,1.214L30.063,29.334z"/>
	<polygon fill="#F7AE46" points="33.734,24.306 33.275,25.835 14.723,25.835 14.264,24.306 	"/>
	<polygon fill="#F4A240" points="20.506,25.835 18.996,25.835 17.936,24.775 16.875,25.835 15.355,25.835 16.895,24.306 
		18.977,24.306 	"/>
	<polygon fill="#F4A240" points="26.575,25.835 25.064,25.835 24.005,24.775 22.943,25.835 21.424,25.835 22.964,24.306 
		25.045,24.306 	"/>
	<polygon fill="#F4A240" points="32.645,25.835 31.124,25.835 30.063,24.775 29.003,25.835 27.493,25.835 29.033,24.306 
		31.104,24.306 	"/>
	<path fill="#FF7058" d="M24,0c-2.737,0.001-5.234,0.987-7.183,2.608v9.06c0,0.992,0.804,1.796,1.795,1.796
		c0.992,0,1.796-0.804,1.796-1.796V8.011c0,0.991,0.805,1.795,1.795,1.795C23.195,9.806,24,9.002,24,8.011V0z"/>
</g>
</svg>
