<?xml version="1.0" encoding="utf-8"?>
<!-- Generator: Adobe Illustrator 20.1.0, SVG Export Plug-In . SVG Version: 6.00 Build 0)  -->
<!DOCTYPE svg PUBLIC "-//W3C//DTD SVG 1.1//EN" "http://www.w3.org/Graphics/SVG/1.1/DTD/svg11.dtd">
<svg version="1.1" id="Layer_1" xmlns="http://www.w3.org/2000/svg" xmlns:xlink="http://www.w3.org/1999/xlink" x="0px" y="0px"
	 viewBox="0 0 49 49" enable-background="new 0 0 49 49" xml:space="preserve">
<g>
	<path fill="#FF7058" d="M41,17.5c-0.4,0-0.9-0.1-1.2-0.4L24.5,5.1L9.2,17.1c-0.9,0.7-2.1,0.5-2.8-0.3c-0.7-0.9-0.5-2.1,0.3-2.8
		l16.5-13c0.7-0.6,1.8-0.6,2.5,0l16.5,13c0.9,0.7,1,1.9,0.3,2.8C42.2,17.3,41.6,17.5,41,17.5z"/>
	<polygon fill="#F2F2F2" points="38.9,16.4 38.9,48.5 10.1,48.5 10.1,16.4 24.5,5.1 	"/>
	<path fill="#CDD6E0" d="M46.5,48.5h-7.6V22.7l9.6,5v18.8C48.5,47.6,47.6,48.5,46.5,48.5z"/>
	<path fill="#CDD6E0" d="M10.1,48.5H2.5c-1.1,0-2-0.9-2-2V27.7l9.6-5V48.5z"/>
	<rect x="20.6" y="15" fill="#ACB3BA" width="3.3" height="3.3"/>
	<rect x="25.1" y="15" fill="#ACB3BA" width="3.3" height="3.3"/>
	<rect x="20.6" y="19.3" fill="#ACB3BA" width="3.3" height="3.3"/>
	<rect x="25.1" y="19.3" fill="#ACB3BA" width="3.3" height="3.3"/>
	<path fill="#E2E2E2" d="M10.1,16.4v1.9c0,0,0,0,0,0L24.5,7l14.3,11.3c0,0,0,0,0.1,0v-1.9L24.5,5.1L10.1,16.4z"/>
	<rect x="2.7" y="36.9" fill="#ACB3BA" width="5.1" height="5.1"/>
	<rect x="41.1" y="36.9" fill="#ACB3BA" width="5.1" height="5.1"/>
	<g>
		<path fill="#FFD15C" d="M31,39v9.5H18V39c0-3.6,2.9-6.5,6.5-6.5l0,0C28.1,32.5,31,35.4,31,39z"/>
	</g>
</g>
</svg>
