<?xml version="1.0" encoding="utf-8"?>
<!-- Generator: Adobe Illustrator 16.0.0, SVG Export Plug-In . SVG Version: 6.00 Build 0)  -->
<!DOCTYPE svg PUBLIC "-//W3C//DTD SVG 1.1//EN" "http://www.w3.org/Graphics/SVG/1.1/DTD/svg11.dtd">
<svg version="1.1" id="Layer_1" xmlns="http://www.w3.org/2000/svg" xmlns:xlink="http://www.w3.org/1999/xlink" x="0px" y="0px"
	 width="48px" height="48px" viewBox="0 0 48 48" enable-background="new 0 0 48 48" xml:space="preserve">
<g>
	<path fill="#FFD15C" d="M39.908,11.148H15.201c-1.656,0-3,1.343-3,3v21.62c0,1.657,1.344,3,3,3h24.707c1.657,0,3-1.343,3-3v-21.62
		C42.908,12.491,41.565,11.148,39.908,11.148"/>
	<polygon fill="#F2F2F2" points="27.554,17.99 23.735,19.776 23.735,11.144 31.372,11.144 31.372,19.776 	"/>
	<path fill="#FF7058" d="M46.588,38.802h-0.596c-0.601-7.582-6.948-13.571-14.682-13.571H8.756V4.423
		c0-0.365-0.199-0.701-0.52-0.876L2.092,0.173C1.41-0.2,0.55,0.048,0.174,0.732c-0.375,0.684-0.125,1.542,0.559,1.917l5.2,2.853
		v35.124c0,0.161,0.046,0.308,0.114,0.443v0.154H6.15c0.184,0.239,0.458,0.403,0.782,0.403h39.655c0.779,0,1.412-0.632,1.412-1.412
		C48,39.436,47.367,38.802,46.588,38.802 M8.756,36.152v-8.421h22.555c5.414,0,10.009,3.539,11.619,8.421H8.756z"/>
	<path fill="#40596B" d="M19.799,42.675c0,2.941-2.384,5.325-5.324,5.325c-2.941,0-5.325-2.384-5.325-5.325
		c0-2.941,2.384-5.325,5.325-5.325C17.415,37.351,19.799,39.734,19.799,42.675"/>
	<path fill="#FFFFFF" d="M16.747,42.675c0,1.255-1.018,2.273-2.273,2.273c-1.255,0-2.271-1.018-2.271-2.273
		c0-1.255,1.017-2.273,2.271-2.273C15.729,40.402,16.747,41.42,16.747,42.675"/>
	<path fill="#40596B" d="M44.371,42.675c0,2.941-2.385,5.325-5.325,5.325c-2.941,0-5.325-2.384-5.325-5.325
		c0-2.941,2.384-5.325,5.325-5.325C41.986,37.351,44.371,39.734,44.371,42.675"/>
	<path fill="#FFFFFF" d="M41.318,42.675c0,1.255-1.017,2.273-2.273,2.273c-1.255,0-2.271-1.018-2.271-2.273
		c0-1.255,1.017-2.273,2.271-2.273C40.302,40.402,41.318,41.42,41.318,42.675"/>
</g>
</svg>
