<?xml version="1.0" encoding="utf-8"?>
<!-- Generator: Adobe Illustrator 18.0.0, SVG Export Plug-In . SVG Version: 6.00 Build 0)  -->
<!DOCTYPE svg PUBLIC "-//W3C//DTD SVG 1.1//EN" "http://www.w3.org/Graphics/SVG/1.1/DTD/svg11.dtd">
<svg version="1.1" id="Layer_1" xmlns="http://www.w3.org/2000/svg" xmlns:xlink="http://www.w3.org/1999/xlink" x="0px" y="0px"
	 viewBox="0 0 512 512" enable-background="new 0 0 512 512" xml:space="preserve">
<g>
	<rect x="2" y="2" fill="#334A5E" width="32.5" height="240"/>
	<rect x="50.3" y="2" fill="#334A5E" width="16.3" height="194.8"/>
	<rect x="83" y="2" fill="#334A5E" width="16.3" height="194.8"/>
	<g>
		<path fill="#334A5E" d="M214.9,2v118.2c-11.5,3.6-22.4,8.7-32.5,15V2H214.9z"/>
		<path fill="#334A5E" d="M132,2v185.7c-1.7,3-3.3,6-4.8,9.1h-11.5V2H132z"/>
		<path fill="#334A5E" d="M164.8,2v146c-5.8,4.9-11.3,10.4-16.3,16.2V2H164.8z"/>
		<path fill="#334A5E" d="M395.2,2v201.2c-7.6-18.1-18.7-34.4-32.6-48V2H395.2z"/>
		<path fill="#334A5E" d="M246.8,2v111.8c-5.5,0.4-10.9,1.2-16.3,2.2V2H246.8z"/>
		<path fill="#334A5E" d="M279.6,2v112.5c-5.3-0.7-10.8-1.2-16.3-1.3V2H279.6z"/>
		<path fill="#334A5E" d="M312.3,2v120.9c-5.3-2-10.7-3.8-16.3-5.2V2H312.3z"/>
		<path fill="#334A5E" d="M345,2v138.4c-5.2-3.7-10.6-7-16.2-10.1V2H345z"/>
	</g>
	<rect x="477.5" y="2" fill="#334A5E" width="32.5" height="240"/>
	<rect x="410.9" y="2" fill="#334A5E" width="16.3" height="194.8"/>
	<rect x="443.6" y="2" fill="#334A5E" width="16.3" height="194.8"/>
	<ellipse fill="#84DBFF" cx="259.8" cy="260.1" rx="146.8" ry="147"/>
	<path fill="#FFFFFF" d="M259.8,157.2c-56.7,0-102.8,46.2-102.8,103c0,56.8,46.1,103,102.8,103c56.7,0,102.8-46.2,102.8-103
		C362.6,203.4,316.5,157.2,259.8,157.2z"/>
	<path fill="#4CDBC4" d="M497.4,440.6L430.9,374c-15.9-15.9-41.6-15.9-57.4,0c-15.9,15.9-15.9,41.6,0,57.5l66.4,66.5
		c15.9,15.9,41.6,15.9,57.4,0C513.2,482.2,513.2,456.4,497.4,440.6z"/>
	<path fill="#3DC9AE" d="M373.5,374L373.5,374c4.3-4.3,9.3-7.4,14.6-9.3l-13.3-13.3c-7,8.9-15.1,16.9-23.9,24l13.3,13.3
		C366.1,383.3,369.2,378.3,373.5,374z"/>
</g>
</svg>
