<?xml version="1.0" encoding="utf-8"?>
<!-- Generator: Adobe Illustrator 18.0.0, SVG Export Plug-In . SVG Version: 6.00 Build 0)  -->
<!DOCTYPE svg PUBLIC "-//W3C//DTD SVG 1.1//EN" "http://www.w3.org/Graphics/SVG/1.1/DTD/svg11.dtd">
<svg version="1.1" id="Layer_1" xmlns="http://www.w3.org/2000/svg" xmlns:xlink="http://www.w3.org/1999/xlink" x="0px" y="0px"
	 viewBox="0 0 48 48" enable-background="new 0 0 48 48" xml:space="preserve">
<g>
	<g>
		<path fill="#F3705B" d="M38.1,5.8c-7.8-7.8-20.4-7.8-28.1,0c-7.8,7.8-7.8,20.3,0,28.1L24,48l14-14C45.8,26.2,45.8,13.6,38.1,5.8z"
			/>
		<g>
			<path fill="#FFFFFF" d="M33.6,29.4c-5.3,5.3-13.8,5.3-19.1,0c-5.3-5.3-5.3-13.8,0-19.1c5.3-5.3,13.8-5.3,19.1,0
				C38.8,15.6,38.8,24.2,33.6,29.4z"/>
		</g>
		<polygon fill="#435B6C" points="13,20.1 22,21.9 23.8,30.9 31.4,12.5 		"/>
	</g>
</g>
</svg>
