<?xml version="1.0" encoding="utf-8"?>
<!-- Generator: Adobe Illustrator 18.0.0, SVG Export Plug-In . SVG Version: 6.00 Build 0)  -->
<!DOCTYPE svg PUBLIC "-//W3C//DTD SVG 1.1//EN" "http://www.w3.org/Graphics/SVG/1.1/DTD/svg11.dtd">
<svg version="1.1" id="Layer_1" xmlns="http://www.w3.org/2000/svg" xmlns:xlink="http://www.w3.org/1999/xlink" x="0px" y="0px"
	 viewBox="0 0 48 48" enable-background="new 0 0 48 48" xml:space="preserve">
<g>
	<path fill="#FFD15C" d="M5,29.8c2,0.3,1.1,2.9,1.1,2.9s0,0.9,0.9,1.2c0,0,0.3,0.2,0.2,0.7c-0.1,0.5,0,1.1,0.3,1.6l0.1,0.1
		c0.4,0.7,0.6,1.5,0.5,2.3C8,39.8,8,41.8,9.5,41.9c2.2,0.1,5.7,0,5.7,0s3.7-0.3,4.9,2.8l1.5,3.3h19l-3.1-9.1c0,0-2.1-4.5,2.5-10.8
		c0,0,7-8.3,3.6-16.4c0,0-3.7-8.3-12.5-10.5c0,0-10.8-3.3-18.9,2.5S5.6,17.4,5.6,17.4s0.1,1.1,0.8,2.1c0.7,0.9,0,3.1,0,3.1l-2.7,5.1
		C3.7,27.6,3,29.5,5,29.8z"/>
	<g>
		<path fill="#40596B" d="M34.7,17l0-1.8l-1.2-0.5c-0.1-0.3-0.2-0.6-0.4-0.9l0.5-1.2l-1.3-1.3l-1.2,0.4c-0.3-0.2-0.6-0.3-0.9-0.4
			l-0.5-1.2l-1.8,0l-0.5,1.2c-0.3,0.1-0.6,0.2-0.9,0.4l-1.2-0.5L24,12.4l0.4,1.2c-0.2,0.3-0.3,0.6-0.4,0.9L22.9,15l0,1.8l1.2,0.5
			c0.1,0.3,0.2,0.6,0.4,0.9l-0.5,1.2l1.3,1.3l1.2-0.4c0.3,0.2,0.6,0.3,0.9,0.4l0.5,1.2l1.8,0l0.5-1.2c0.3-0.1,0.6-0.2,0.9-0.4
			l1.2,0.5l1.3-1.3l-0.4-1.2c0.2-0.3,0.3-0.6,0.4-0.9L34.7,17z M28.8,18.9c-1.6,0-2.9-1.3-2.9-3c0-1.6,1.3-2.9,3-2.9
			c1.6,0,2.9,1.3,2.9,3C31.7,17.6,30.4,18.9,28.8,18.9z"/>
		<path fill="#FFFFFF" d="M34.2,6.4l-0.2,0.1c-0.2-0.2-0.4-0.4-0.7-0.6l0.1-0.3c0-0.1,0-0.3-0.2-0.4l-0.5-0.1c-0.1,0-0.3,0-0.4,0.2
			l-0.1,0.3c-0.3,0-0.6,0-0.9,0.1l-0.1-0.2c-0.1-0.1-0.2-0.2-0.4-0.1l-0.4,0.2c-0.1,0.1-0.2,0.2-0.1,0.4l0.1,0.2
			c-0.2,0.2-0.4,0.4-0.6,0.7l-0.3-0.1c-0.1,0-0.3,0-0.4,0.2L29,7.4c0,0.1,0,0.3,0.2,0.4l0.3,0.1c0,0.3,0,0.6,0.1,0.9l-0.2,0.1
			c-0.1,0.1-0.2,0.2-0.1,0.4l0.2,0.4c0.1,0.1,0.2,0.2,0.4,0.1L30,9.7c0.2,0.2,0.4,0.4,0.7,0.6l-0.1,0.3c0,0.1,0,0.3,0.2,0.4l0.5,0.1
			c0.1,0,0.3,0,0.4-0.2l0.1-0.3c0.3,0,0.6,0,0.9-0.1l0.1,0.2c0.1,0.1,0.2,0.2,0.4,0.1l0.4-0.2c0.1-0.1,0.2-0.2,0.1-0.4l-0.1-0.2
			c0.2-0.2,0.4-0.4,0.6-0.7l0.3,0.1c0.1,0,0.3,0,0.4-0.2l0.1-0.5c0-0.1,0-0.3-0.2-0.4l-0.3-0.1c0-0.3,0-0.6-0.1-0.9l0.2-0.1
			c0.1-0.1,0.2-0.2,0.1-0.4l-0.2-0.4C34.5,6.3,34.3,6.3,34.2,6.4z M32.6,9.4c-0.7,0.4-1.6,0.1-2-0.6c-0.4-0.7-0.1-1.6,0.6-2
			c0.7-0.4,1.6-0.1,2,0.6S33.3,9,32.6,9.4z"/>
		<path fill="#FF7058" d="M38.8,10.8l-0.2,0.1c-0.2-0.2-0.4-0.4-0.7-0.6l0.1-0.3c0-0.1,0-0.3-0.2-0.4l-0.5-0.1c-0.1,0-0.3,0-0.4,0.2
			L36.8,10c-0.3,0-0.6,0-0.9,0.1l-0.1-0.2c-0.1-0.1-0.2-0.2-0.4-0.1L34.9,10c-0.1,0.1-0.2,0.2-0.1,0.4l0.1,0.2
			c-0.2,0.2-0.4,0.4-0.6,0.7l-0.3-0.1c-0.1,0-0.3,0-0.4,0.2l-0.1,0.5c0,0.1,0,0.3,0.2,0.4l0.3,0.1c0,0.3,0,0.6,0.1,0.9l-0.2,0.1
			c-0.1,0.1-0.2,0.2-0.1,0.4l0.2,0.4c0.1,0.1,0.2,0.2,0.4,0.1l0.2-0.1c0.2,0.2,0.4,0.4,0.7,0.6L35.2,15c0,0.1,0,0.3,0.2,0.4l0.5,0.1
			c0.1,0,0.3,0,0.4-0.2l0.1-0.3c0.3,0,0.6,0,0.9-0.1l0.1,0.2c0.1,0.1,0.2,0.2,0.4,0.1l0.4-0.2c0.1-0.1,0.2-0.2,0.1-0.4l-0.1-0.2
			c0.2-0.2,0.4-0.4,0.6-0.7l0.3,0.1c0.1,0,0.3,0,0.4-0.2l0.1-0.5c0-0.1,0-0.3-0.2-0.4l-0.3-0.1c0-0.3,0-0.6-0.1-0.9l0.2-0.1
			c0.1-0.1,0.2-0.2,0.1-0.4l-0.2-0.4C39.1,10.8,38.9,10.7,38.8,10.8z M37.2,13.8c-0.7,0.4-1.6,0.1-2-0.6c-0.4-0.7-0.1-1.6,0.6-2
			c0.7-0.4,1.6-0.1,2,0.6C38.2,12.6,38,13.5,37.2,13.8z"/>
	</g>
</g>
</svg>
