<?xml version="1.0" encoding="utf-8"?>
<!-- Generator: Adobe Illustrator 18.0.0, SVG Export Plug-In . SVG Version: 6.00 Build 0)  -->
<!DOCTYPE svg PUBLIC "-//W3C//DTD SVG 1.1//EN" "http://www.w3.org/Graphics/SVG/1.1/DTD/svg11.dtd">
<svg version="1.1" id="Layer_1" xmlns="http://www.w3.org/2000/svg" xmlns:xlink="http://www.w3.org/1999/xlink" x="0px" y="0px"
	 viewBox="0 0 512 512" enable-background="new 0 0 512 512" xml:space="preserve">
<g>
	<path fill="#40596B" d="M488.8,2.5H23.2C11.5,2.5,2,11.9,2,23.6v296.1c0,11.7,9.5,21.2,21.2,21.2h465.7c11.7,0,21.2-9.5,21.2-21.2
		V23.6C510,11.9,500.5,2.5,488.8,2.5z"/>
	<path fill="#F2F2F2" d="M488.8,171.1H23.2c-11.7,0-21.2,9.5-21.2,21.2v296.1c0,11.7,9.5,21.2,21.2,21.2h465.7
		c11.7,0,21.2-9.5,21.2-21.2V192.2C510,180.5,500.5,171.1,488.8,171.1z"/>
	<rect x="2" y="59.8" fill="#65C5B8" width="508" height="59.2"/>
	<g>
		<path fill="#CDD5DF" d="M185.4,277.1H38.3c-0.7,0-1.2-0.5-1.2-1.2v-23.5c0-0.7,0.5-1.2,1.2-1.2h147.1c0.7,0,1.2,0.5,1.2,1.2v23.5
			C186.6,276.5,186,277.1,185.4,277.1z"/>
		<path fill="#CDD5DF" d="M242.9,369.1H38.3c-0.7,0-1.2-0.5-1.2-1.2v-23.5c0-0.7,0.5-1.2,1.2-1.2h204.6c0.7,0,1.2,0.5,1.2,1.2v23.5
			C244.1,368.6,243.5,369.1,242.9,369.1z"/>
		<path fill="#89D6F7" d="M127.1,460.9H38c-0.7,0-1.2-0.5-1.2-1.2v-23.5c0-0.7,0.5-1.2,1.2-1.2h89.1c0.7,0,1.2,0.5,1.2,1.2v23.5
			C128.3,460.3,127.8,460.9,127.1,460.9z"/>
		<path fill="#55BFE9" d="M242.6,460.9h-89.1c-0.7,0-1.2-0.5-1.2-1.2v-23.5c0-0.7,0.5-1.2,1.2-1.2h89.1c0.7,0,1.2,0.5,1.2,1.2v23.5
			C243.9,460.3,243.3,460.9,242.6,460.9z"/>
		<path fill="#89D6F7" d="M358.2,460.9h-89.1c-0.7,0-1.2-0.5-1.2-1.2v-23.5c0-0.7,0.5-1.2,1.2-1.2h89.1c0.7,0,1.2,0.5,1.2,1.2v23.5
			C359.4,460.3,358.9,460.9,358.2,460.9z"/>
		<path fill="#55BFE9" d="M473.7,460.9h-89.1c-0.7,0-1.2-0.5-1.2-1.2v-23.5c0-0.7,0.5-1.2,1.2-1.2h89.1c0.7,0,1.2,0.5,1.2,1.2v23.5
			C475,460.3,474.4,460.9,473.7,460.9z"/>
		<circle fill="#F2705B" cx="361.1" cy="264.1" r="44.4"/>
		<circle fill="#FFD05C" cx="430.8" cy="264.1" r="44.4"/>
	</g>
</g>
</svg>
