<?xml version="1.0" encoding="utf-8"?>
<!-- Generator: Adobe Illustrator 18.0.0, SVG Export Plug-In . SVG Version: 6.00 Build 0)  -->
<!DOCTYPE svg PUBLIC "-//W3C//DTD SVG 1.1//EN" "http://www.w3.org/Graphics/SVG/1.1/DTD/svg11.dtd">
<svg version="1.1" id="Layer_1" xmlns="http://www.w3.org/2000/svg" xmlns:xlink="http://www.w3.org/1999/xlink" x="0px" y="0px"
	 viewBox="0 0 48 48" enable-background="new 0 0 48 48" xml:space="preserve">
<g>
	<g>
		<path fill="#CDD6E0" d="M26.6,2.6c0-1.6-1.5-2.9-3.2-2.5c-0.9,0.2-1.6,0.9-1.8,1.8c-0.2,0.7-0.1,1.3,0.2,1.8
			c0.5,1.1,0.9,2.2,0.9,3.4v0.5h2.7V7.1c0-1.2,0.3-2.3,0.9-3.3C26.4,3.4,26.6,3,26.6,2.6z"/>
		<path fill="#CDD6E0" d="M21.4,45.4c0,1.6,1.5,2.9,3.2,2.5c0.9-0.2,1.6-0.9,1.8-1.8c0.2-0.7,0.1-1.3-0.2-1.8
			c-0.5-1.1-0.9-2.2-0.9-3.4v-0.5h-2.7v0.5c0,1.2-0.3,2.3-0.9,3.3C21.6,44.6,21.4,45,21.4,45.4z"/>
		<path fill="#CDD6E0" d="M41,10.7c1.2-1.2,1-3.1-0.5-4c-0.8-0.5-1.8-0.4-2.5,0c-0.6,0.3-1,0.9-1.2,1.4c-0.4,1.1-0.9,2.2-1.7,3.1
			l-0.4,0.4l1.9,1.9l0.4-0.4c0.8-0.8,1.8-1.4,2.9-1.7C40.3,11.2,40.6,11,41,10.7z"/>
		<path fill="#CDD6E0" d="M7,37.3c-1.2,1.2-1,3.1,0.5,4c0.8,0.5,1.8,0.4,2.5,0c0.6-0.3,1-0.9,1.2-1.4c0.4-1.1,0.9-2.2,1.7-3.1
			l0.4-0.4l-1.9-1.9L11.1,35c-0.8,0.8-1.8,1.4-2.9,1.7C7.7,36.8,7.4,37,7,37.3z"/>
		<path fill="#CDD6E0" d="M45.4,26.6c1.6,0,2.9-1.5,2.5-3.2c-0.2-0.9-0.9-1.6-1.8-1.8c-0.7-0.2-1.3-0.1-1.8,0.2
			c-1.1,0.5-2.2,0.9-3.4,0.9h-0.5v2.7h0.5c1.2,0,2.3,0.3,3.3,0.9C44.6,26.4,45,26.6,45.4,26.6z"/>
		<path fill="#CDD6E0" d="M2.6,21.4c-1.6,0-2.9,1.5-2.5,3.2c0.2,0.9,0.9,1.6,1.8,1.8c0.7,0.2,1.3,0.1,1.8-0.2
			c1.1-0.5,2.2-0.9,3.4-0.9h0.5v-2.7H7.1c-1.2,0-2.3-0.3-3.3-0.9C3.4,21.6,3,21.4,2.6,21.4z"/>
		<path fill="#CDD6E0" d="M37.3,41c1.2,1.2,3.1,1,4-0.5c0.5-0.8,0.4-1.8,0-2.5c-0.3-0.6-0.9-1-1.4-1.2c-1.1-0.4-2.2-0.9-3.1-1.7
			l-0.4-0.4l-1.9,1.9l0.4,0.4c0.8,0.8,1.4,1.8,1.7,2.9C36.8,40.3,37,40.6,37.3,41z"/>
		<path fill="#CDD6E0" d="M10.7,7c-1.2-1.2-3.1-1-4,0.5c-0.5,0.8-0.4,1.8,0,2.5c0.3,0.6,0.9,1,1.4,1.2c1.1,0.4,2.2,0.9,3.1,1.7
			l0.4,0.4l1.9-1.9L13,11.1c-0.8-0.8-1.4-1.8-1.7-2.9C11.2,7.7,11,7.4,10.7,7z"/>
	</g>
	<polygon fill="#CDD6E0" points="40.3,22.7 27.3,22.7 36.5,13.4 34.6,11.5 25.3,20.7 25.3,7.7 22.7,7.7 22.7,20.7 13.4,11.5 
		11.5,13.4 20.7,22.7 7.7,22.7 7.7,25.3 20.7,25.3 11.5,34.6 13.4,36.5 22.7,27.3 22.7,40.3 25.3,40.3 25.3,27.3 34.6,36.5 
		36.5,34.6 27.3,25.3 40.3,25.3 	"/>
	<path fill="#40596B" d="M24,9.8C16.2,9.8,9.8,16.2,9.8,24c0,7.8,6.3,14.2,14.2,14.2S38.2,31.8,38.2,24C38.2,16.2,31.8,9.8,24,9.8z
		 M24,33.9c-5.5,0-9.9-4.4-9.9-9.9c0-5.5,4.4-9.9,9.9-9.9s9.9,4.4,9.9,9.9C33.9,29.5,29.5,33.9,24,33.9z"/>
	<g>
		<path fill="#ACB3BA" d="M25.4,8.3h-2.8c-0.4,0-0.7-0.3-0.7-0.7v0c0-0.4,0.3-0.7,0.7-0.7h2.8c0.4,0,0.7,0.3,0.7,0.7v0
			C26.1,8,25.8,8.3,25.4,8.3z"/>
		<path fill="#ACB3BA" d="M22.6,39.7h2.8c0.4,0,0.7,0.3,0.7,0.7v0c0,0.4-0.3,0.7-0.7,0.7h-2.8c-0.4,0-0.7-0.3-0.7-0.7v0
			C21.9,40,22.2,39.7,22.6,39.7z"/>
		<path fill="#ACB3BA" d="M36.1,13.9l-2-2c-0.3-0.3-0.3-0.7,0-1v0c0.3-0.3,0.7-0.3,1,0l2,2c0.3,0.3,0.3,0.7,0,1v0
			C36.8,14.2,36.3,14.2,36.1,13.9z"/>
		<path fill="#ACB3BA" d="M11.9,34.1l2,2c0.3,0.3,0.3,0.7,0,1h0c-0.3,0.3-0.7,0.3-1,0l-2-2c-0.3-0.3-0.3-0.7,0-1l0,0
			C11.2,33.8,11.7,33.8,11.9,34.1z"/>
		<path fill="#ACB3BA" d="M39.7,25.4v-2.8c0-0.4,0.3-0.7,0.7-0.7l0,0c0.4,0,0.7,0.3,0.7,0.7v2.8c0,0.4-0.3,0.7-0.7,0.7l0,0
			C40,26.1,39.7,25.8,39.7,25.4z"/>
		<path fill="#ACB3BA" d="M8.3,22.6v2.8c0,0.4-0.3,0.7-0.7,0.7h0c-0.4,0-0.7-0.3-0.7-0.7v-2.8c0-0.4,0.3-0.7,0.7-0.7h0
			C8,21.9,8.3,22.2,8.3,22.6z"/>
		<path fill="#ACB3BA" d="M34.1,36.1l2-2c0.3-0.3,0.7-0.3,1,0l0,0c0.3,0.3,0.3,0.7,0,1l-2,2c-0.3,0.3-0.7,0.3-1,0l0,0
			C33.8,36.8,33.8,36.3,34.1,36.1z"/>
		<path fill="#ACB3BA" d="M13.9,11.9l-2,2c-0.3,0.3-0.7,0.3-1,0l0,0c-0.3-0.3-0.3-0.7,0-1l2-2c0.3-0.3,0.7-0.3,1,0l0,0
			C14.2,11.2,14.2,11.7,13.9,11.9z"/>
	</g>
	<g>
		<path fill="#BDCCDB" d="M33.8,25c0-0.3,0.1-0.7,0.1-1c0-0.5,0-0.9-0.1-1.3h-0.5C33.5,23.4,33.7,24.2,33.8,25z"/>
		<path fill="#BDCCDB" d="M14.7,22.7h-0.5c-0.1,0.4-0.1,0.9-0.1,1.3c0,0.3,0,0.7,0.1,1C14.3,24.2,14.5,23.4,14.7,22.7z"/>
		<path fill="#BDCCDB" d="M30.9,19l0.9-0.9c-0.5-0.7-1.2-1.4-1.9-1.9l-1.2,1.2C29.5,17.8,30.3,18.3,30.9,19z"/>
		<path fill="#BDCCDB" d="M25.3,14.2c-0.4-0.1-0.9-0.1-1.3-0.1c-0.5,0-0.9,0-1.3,0.1v2c0.4-0.1,0.9-0.1,1.3-0.1c0.5,0,0.9,0,1.3,0.1
			V14.2z"/>
		<path fill="#BDCCDB" d="M17.1,19c0.6-0.6,1.4-1.2,2.2-1.6L18,16.1c-0.7,0.5-1.4,1.2-1.9,1.9L17.1,19z"/>
	</g>
	<circle fill="#40596B" cx="24" cy="24" r="6.1"/>
	<path fill="#334A5E" d="M24,19.6c3.1,0,5.6,2.3,6,5.3c0-0.3,0.1-0.5,0.1-0.8c0-3.4-2.7-6.1-6.1-6.1s-6.1,2.7-6.1,6.1
		c0,0.3,0,0.6,0.1,0.8C18.4,21.9,20.9,19.6,24,19.6z"/>
</g>
</svg>
