<?xml version="1.0" encoding="utf-8"?>
<!-- Generator: Adobe Illustrator 18.0.0, SVG Export Plug-In . SVG Version: 6.00 Build 0)  -->
<!DOCTYPE svg PUBLIC "-//W3C//DTD SVG 1.1//EN" "http://www.w3.org/Graphics/SVG/1.1/DTD/svg11.dtd">
<svg version="1.1" id="Layer_1" xmlns="http://www.w3.org/2000/svg" xmlns:xlink="http://www.w3.org/1999/xlink" x="0px" y="0px"
	 viewBox="0 0 48 48" enable-background="new 0 0 48 48" xml:space="preserve">
<g>
	<g>
		<path fill="#415A6B" d="M48,27.2v-6.6L42.1,18c-0.3-1-0.7-1.9-1.2-2.8l2.3-5.9l-4.7-4.7l-6,2.3c-0.9-0.5-1.8-0.8-2.8-1.2L27.2,0
			h-6.6L18,5.9c-1,0.3-1.9,0.7-2.8,1.2L9.3,4.7L4.6,9.4l2.3,6c-0.5,0.9-0.8,1.8-1.2,2.8L0,20.8v6.6L5.9,30c0.3,1,0.7,1.9,1.2,2.8
			l-2.3,5.9l4.7,4.7l6-2.3c0.9,0.5,1.8,0.8,2.8,1.2l2.5,5.8h6.6l2.6-5.9c1-0.3,1.9-0.7,2.8-1.2l5.9,2.3l4.7-4.7l-2.3-6
			c0.5-0.9,0.8-1.8,1.2-2.8L48,27.2z M24,37.3c-7.3,0-13.3-5.9-13.3-13.3c0-7.3,5.9-13.3,13.3-13.3S37.3,16.7,37.3,24
			C37.3,31.3,31.3,37.3,24,37.3z"/>
		<g>
			<g>
				<path fill="#4EC0AA" d="M17.1,25.6c0.6,5.1,6,11,11.6,6.9c-0.6-6.9-2-7.2-4.5-9.9c-2-2-4.9-5.9-4-9.2
					C18.8,16.4,16.1,20.7,17.1,25.6z"/>
			</g>
			<g>
				<path fill="#415A6B" d="M30.3,32.4c-6.5-2.7-11.1-8.3-10.8-14.7c-0.2,6,3,13.2,10.3,15.8L30.3,32.4z"/>
				<g>
					<g>
						<path fill="#415A6B" d="M23.9,29.5c-0.4-2.4-0.4-4.2-0.7-5.7c0.5,1.5,0.8,3.2,1.3,5.5C24.3,29.4,24.1,29.5,23.9,29.5z"/>
					</g>
					<g>
						<path fill="#415A6B" d="M22.5,26.9c-2-0.8-3.4-2.5-4.1-4.3c0.6,2,2,3.9,3.9,4.9C22.4,27.3,22.4,27.1,22.5,26.9z"/>
					</g>
					<g>
						<path fill="#415A6B" d="M20.4,23.7c0.1,0.3,0.2,0.6,0.3,0.8c-0.1-1.7-0.3-3.2-0.2-4.8C20.5,21,20.5,22.2,20.4,23.7z"/>
					</g>
				</g>
			</g>
		</g>
	</g>
</g>
</svg>
