<?xml version="1.0" encoding="utf-8"?>
<!-- Generator: Adobe Illustrator 18.0.0, SVG Export Plug-In . SVG Version: 6.00 Build 0)  -->
<!DOCTYPE svg PUBLIC "-//W3C//DTD SVG 1.1//EN" "http://www.w3.org/Graphics/SVG/1.1/DTD/svg11.dtd">
<svg version="1.1" id="Layer_1" xmlns="http://www.w3.org/2000/svg" xmlns:xlink="http://www.w3.org/1999/xlink" x="0px" y="0px"
	 viewBox="0 0 48 48" enable-background="new 0 0 48 48" xml:space="preserve">
<g>
	<g>
		<g>
			<g>
				<g>
					<polygon fill="#344A5E" points="14.4,48 14.1,34.5 12.9,34.5 13.2,48 					"/>
				</g>
			</g>
		</g>
		<g>
			<g>
				<g>
					<g>
						<polygon fill="#344A5E" points="4.1,48 5.7,33 4.5,32.9 2.9,48 						"/>
					</g>
				</g>
			</g>
			<g>
				<g>
					<g>
						<polygon fill="#344A5E" points="25.6,48 24.7,32.3 23.5,32.4 24.4,48 						"/>
					</g>
				</g>
			</g>
		</g>
	</g>
	<g>
		<g>
			<g>
				<g>
					<polygon fill="#E8EAE8" points="2.9,5.2 2.9,38.5 26.1,37.2 24.7,6 					"/>
				</g>
			</g>
		</g>
		<g>
			<g>
				<g>
					<path fill="#67C5B8" d="M24.7,7.3C24.7,7.3,24.6,7.3,24.7,7.3L2.8,6.5c-0.7,0-1.3-0.6-1.2-1.3c0-0.7,0.6-1.3,1.3-1.2l21.8,0.8
						c0.7,0,1.3,0.6,1.2,1.3C25.9,6.8,25.4,7.3,24.7,7.3z"/>
				</g>
			</g>
			<g>
				<g>
					<path fill="#67C5B8" d="M2.8,39.8c-0.7,0-1.2-0.5-1.3-1.2c0-0.7,0.5-1.3,1.2-1.4L26,35.9c0.7,0,1.3,0.5,1.3,1.2
						c0,0.7-0.5,1.3-1.2,1.3L2.8,39.8C2.9,39.8,2.9,39.8,2.8,39.8z"/>
				</g>
			</g>
		</g>
	</g>
	<g>
		<g>
			<g>
				<path fill="#425A6B" d="M22.3,27.8c0,0-0.7,0.5-1.1-0.1c-0.4-0.6-1.1-3.1-0.4-3.3c0,0,1.5,0.8,1.8,1.3
					C22.9,26.1,22.3,27.8,22.3,27.8z"/>
			</g>
		</g>
	</g>
	<g>
		<g>
			<g>
				<path fill="#CED6E0" d="M21.6,27.2c0,0-1,0.4-0.8-2.6l1.8,0.7L21.6,27.2z"/>
			</g>
		</g>
	</g>
	<g>
		<g>
			<g>
				<path fill="#FFD15C" d="M22.3,26.7c0,0-1.2-0.1-1.4,0c-0.2,0.1-0.5,0.5-0.9,0.7c-0.4,0.2-1.4,0.4-1.7,0.4c-0.3,0-1.1,0-0.9-0.5
					c0,0-0.4,0.3-0.7,0.1c-0.3-0.2,0-0.5,0-0.5s-0.7,0-0.6-0.5l0.2-0.2l0-0.1c0,0-0.5,0.5-0.7,0.4c-0.3-0.1-0.6-0.3-0.1-0.7
					c0.5-0.4,1.4-0.9,1.4-0.9l0.7-0.1c0,0,0.2-0.2,0.7-0.3c0.4,0,2.3,0.2,2.3,0.2l1.8-0.3V26.7z"/>
			</g>
		</g>
	</g>
	<g>
		<g>
			<g>
				<g>
					<g>
						<path fill="#F26F5A" d="M17.4,25.5l-3.8-2.3l-0.2,0.3l3.6,2.2C17.1,25.6,17.2,25.6,17.4,25.5z"/>
					</g>
				</g>
			</g>
			<g>
				<g>
					<g>
						<path fill="#F05640" d="M16.8,25.7c0.1,0,0.1,0,0.2-0.1l-3.6-2.2l-0.2,0.3l3.4,2.1C16.7,25.8,16.8,25.7,16.8,25.7z"/>
					</g>
				</g>
			</g>
			<g>
				<g>
					<g>
						<path fill="#F26F5A" d="M16.7,25.8l-3.4-2.1L13.1,24l3.4,2C16.5,25.9,16.6,25.9,16.7,25.8z"/>
					</g>
				</g>
			</g>
		</g>
		<g>
			<g>
				<g>
					<g>
						<path fill="#FFD15C" d="M13.5,23.2L13.1,24l-0.3-0.5l-0.1-0.2c0,0,0-0.1,0.1-0.1l0.2,0L13.5,23.2z"/>
					</g>
				</g>
			</g>
		</g>
		<g>
			<g>
				<g>
					<g>
						<path fill="#F5B54C" d="M12.8,23.3C12.8,23.3,12.8,23.3,12.8,23.3l0.4,0.5l0.2-0.3L12.8,23.3z"/>
					</g>
				</g>
			</g>
		</g>
		<g>
			<g>
				<g>
					<path fill="#425A6B" d="M12.9,23.4c0,0-0.1,0.1-0.1,0.1l-0.1-0.2c0,0,0-0.1,0.1-0.1l0.2,0C12.9,23.3,12.9,23.3,12.9,23.4z"/>
				</g>
			</g>
		</g>
	</g>
	<g>
		<g>
			<g>
				<path fill="#E8EAE8" d="M20.8,24.6c0,0,1.3,1.9,0.8,2.6c0,0,1.5,0.1,2.9-0.4c1.3-0.5,1.3-0.5,1.3-0.5l-3.7-1.9L20.8,24.6z"/>
			</g>
		</g>
	</g>
	<g>
		<g>
			<g>
				<path fill="#FFD15C" d="M31.9,6.4c0,0,0.5,2.2,1.3,2.9l0,0.3c0,0-0.3,0.5-0.1,0.9c0.1,0.4,0.9,0.9,0.9,0.9l0.9,0.3l2.3-1.6
					l0.4-1.3l-0.2-0.3c0,0-0.2-0.5-0.2-0.8c0-0.3,0.2-0.8,0.1-1.8C37.1,5,37,4.8,37,4.8s-0.8-2.9-1.3-3.1c-0.5-0.2-2.3,0-2.3,0
					s-2.3,1-2.2,1.8S32,5.7,31.9,6.4z"/>
			</g>
		</g>
	</g>
	<g>
		<g>
			<path fill="#F5B54C" d="M37.1,7.9c0,0,0-0.1,0-0.1c-0.1,0.4-0.5,2.2-1.9,2.4c-1.4,0.2-2-0.8-2-0.8l0,0.3c0,0-0.3,0.5-0.1,0.9
				c0.1,0.4,0.9,0.9,0.9,0.9l0.9,0.3l0.9-0.6l0,0C37.1,9.7,37.2,8.3,37.1,7.9z"/>
		</g>
	</g>
	<g>
		<g>
			<g>
				<g>
					<path fill="#425A6B" d="M30.1,42c0.4,1.2,0.6,4,0.6,6h8.9c0.3-2.8,0.8-6.9,1-7.7c0.3-1.1,0.6-4.1,0.6-4.1V29
						c0,0-0.5-0.1-3.4,0.2c-2.8,0.2-8.6-0.4-8.6-0.4s-0.7,5.5-0.7,6.8C28.7,36.9,29.5,39.9,30.1,42z"/>
				</g>
			</g>
		</g>
		<g>
			<g>
				<path fill="#344A5E" d="M33.3,38.3c0,0,0.3,1.1,0.6,1.4c0,0,0.2,1.3,0.2,2c0,0.4-0.1,1.3-0.1,2c0,0.4-0.1,0.8-0.1,1.2l0,3.2H34
					c0-1.6,0-3.3,0-3.8c0.1-1.1,0.2-2.3,0.1-2.8c0-0.5-0.2-1.5-0.2-1.8c0,0-0.4-0.7-0.4-1.2c0,0-0.9-0.9-1.2-1.9
					C32.4,36.4,32.6,37.6,33.3,38.3z"/>
			</g>
		</g>
	</g>
	<g>
		<g>
			<g>
				<path fill="#CED6E0" d="M28.9,28.6c0,0,0.8,0.8,2.2,0.8c1.4,0,3.6-0.1,4.2,0.1c0.6,0.2,0.7,0.2,0.7,0.2L38.2,12l-3.5-0.6l-0.5,0
					L31.1,12c0,0-0.5,7-0.7,8.8C30.2,22.7,28.9,28.6,28.9,28.6z"/>
			</g>
		</g>
	</g>
	<g>
		<g>
			<g>
				<path fill="#8AD6F7" d="M30,12.9l-0.6-0.3c0,0-0.5,0.5-0.6,1.2c-0.1,0.8-0.3,3.7-0.3,4.4c-0.1,0.7-0.4,2.4-0.4,2.7
					c0,0.3-0.3,0.7-0.2,0.9c0,0.1-0.3,0.1-0.4,0.3c-0.1,0.2-1.5,1-2.2,1.2c-0.7,0.2-0.7,0.3-1.4,0.5c-0.7,0.2-2.9,0.5-2.9,0.5
					s1.4,1.5,1.2,2.6c-0.2,1.1-0.5,1-0.9,0.7c0,0,0,0.5,0.7,0.4c0,0,2.3-0.8,2.8-0.9c0.5-0.1,4.1-1.1,4.6-1.6
					C29.8,25,30,15.2,30,15.2V12.9z"/>
			</g>
		</g>
	</g>
	<g>
		<g>
			<g>
				<path fill="#56BFEB" d="M28.1,36.1l1,0.6c0,0-0.2-2.6,0.1-3.5c0.3-0.9,0.5-2.7,0.5-2.7l0.7-8.4l0.9-9.1l1.1-1.4l0.5-1.1
					c0,0-0.9,0.7-1.3,1c-0.4,0.3-2.1,1.3-2.1,1.3s-0.6,1-0.3,3.4c0.3,2.3,0.2,9.5-0.2,10.2C28.5,26.9,27.9,35.9,28.1,36.1z"/>
			</g>
		</g>
	</g>
	<g>
		<g>
			<g>
				<g>
					<path fill="#F05640" d="M34,12.5l0.3,0.5c0,0,0.3,0.9,0.2,1.6c-0.1,0.7-0.7,4.6-0.8,5.3s-0.7,4.3-0.8,5.4
						c-0.1,1.1-0.2,4.8-0.2,4.8l-1.3,1.3l-0.9-1.5c0,0,0.7-6.4,0.8-7.2c0.1-0.8,0.8-5.3,1.1-6.3c0.3-1,1.2-3.4,1.2-3.4L34,12.5z"/>
				</g>
			</g>
		</g>
		<g>
			<g>
				<g>
					<path fill="#F26F5A" d="M33.6,11.5c0,0,1.4-0.3,1.8,0.3c0,0-0.9,0.7-1.1,1.2c0,0-0.6-0.2-0.7,0C33.6,13,33.7,11.9,33.6,11.5z"
						/>
				</g>
			</g>
		</g>
	</g>
	<g>
		<g>
			<g>
				<path fill="#F3F3F3" d="M33.2,9.7c0,0-0.3,1.2,1,1.7c0,0-1.3,0.5-1.8,1.3l0.5-2.4C32.8,10.4,32.9,10,33.2,9.7z"/>
			</g>
		</g>
	</g>
	<g>
		<g>
			<g>
				<path fill="#8AD6F7" d="M43.5,11.8c0,0,0.7,0.3,1,2.3c0.3,2,0.6,3.1,0.7,3.7c0.1,0.5,0.6,2.5,0.6,2.7c0,0.3,0.5,2.6,0.5,2.6
					s0.3,0.9-0.1,1.9c-0.4,1-2.7,3.1-3.1,3.4c-0.4,0.3-2,1.6-2,1.6s0.6-1.4,0.5-2.3c-0.1-0.8-1.6-2.1-2.7-0.9c0,0,0.8-1.1,1.4-1.6
					c0.7-0.5,1.4-1,1.6-1.2c0.1-0.2,0.1-0.3,0.1-0.3c0,0-0.3-0.9-0.3-1.5c0-0.6-0.3-1-0.4-1.5c-0.2-0.6-0.5-1.4-0.5-1.4
					s-1.4-1.6-1.2-3.8C40,13.2,42,11.4,43.5,11.8z"/>
			</g>
		</g>
	</g>
	<g>
		<g>
			<g>
				<path fill="#56BFEB" d="M43.5,11.8c0,0-3.9-0.4-2.5,7.5l1.1,1.6c0,0,0.6,14.2,1,15.5c0,0-2.8,1.2-4.2,1.4
					c-1.5,0.2-2.1,0.1-3-1.4c-0.8-1.4-2.7-10.5-2.4-14.2s3.5-8.5,3.5-8.5l1.6-3.6C38.6,10.2,42.5,11.2,43.5,11.8z"/>
			</g>
		</g>
	</g>
	<g>
		<g>
			<path fill="#E8EAE8" d="M41.1,30c0,0-3.2,0.1-2-3.4c0,0,1.5-1.3,2.4-0.8c0.9,0.5,1.2,2.2,1.2,2.2L41.1,30z"/>
		</g>
	</g>
	<g>
		<g>
			<g>
				<path fill="#F3F3F3" d="M37.4,8.6c0,0,0.1,0.7-0.4,1c-0.4,0.4-2.3,1.8-2.3,1.8l2,1.4l1.5-3C38.2,9.9,38.2,9.1,37.4,8.6z"/>
			</g>
		</g>
	</g>
	<g>
		<g>
			<g>
				<path fill="#8AD6F7" d="M37.8,8.9c0,0,0,0.3-0.1,0.7c-0.2,0.4-1.7,3.7-2.5,5.9s-1.7,5.3-1.6,6.7c0,0,0.2-1.6,2.1-4.3l3.8-5.9
					l-0.8-0.3l0.8-0.6C39.4,11.2,39.3,9.9,37.8,8.9z"/>
			</g>
		</g>
	</g>
	<g>
		<g>
			<g>
				<path fill="#8AD6F7" d="M46.2,25c-0.4,1-2.7,3.1-3.1,3.4c-0.3,0.3-1.9,1.5-2,1.6c0,0,0.6-1.4,0.5-2.3c-0.1-0.8-1.6-2.1-2.7-0.9
					c0,0,0.8-1.1,1.4-1.6c0.7-0.5,1.4-1,1.6-1.2c0.1-0.2,0.1-0.3,0.1-0.3c0,0-0.3-0.9-0.3-1.5c0-0.6-0.3-1-0.4-1.5
					c-0.2-0.6-0.5-1.4-0.5-1.4h4.6c0.1,0.6,0.3,1.1,0.3,1.2c0,0.3,0.5,2.6,0.5,2.6S46.6,24,46.2,25z"/>
			</g>
		</g>
	</g>
	<g>
		<g>
			<g>
				<path fill="#8AD6F7" d="M32.8,10.4c0,0-0.5,0.7-0.9,1l0.2,0.2l-1.3,0.4l0,0c-0.6,3.2-1,6.4-1,9.7c0,1.5,0,2.9,0,3.4
					c0,1.3-0.3,5.4-0.3,5.4s1-7.1,1.1-9.1c0.2-2,0.7-6.2,1.3-7.7S33,11.4,32.8,10.4z"/>
			</g>
		</g>
	</g>
	<g>
		<g>
			<path fill="#56BFEB" d="M29.5,12.9"/>
		</g>
	</g>
	<g>
		<g>
			<path fill="#344A5E" d="M35.7,0.6c0,0-2.2-1.4-4,0C30,2,31.5,5.3,31.5,5.3s0.2,0.4,0.3,0.7h0.2c-0.1-0.4-0.2-1.4-0.3-1.9
				c-0.2-0.7,0.1-1.3,0.5-1.2c0.4,0.1,2.9,0,3.5-0.9c0,0,0.7,0.9,0.9,1.6c0.1,0.6,0.3,2.1,0.3,2.1l0.2,0c0,0,0-0.7,0.4-0.8
				C37.4,4.9,37.8,0.9,35.7,0.6z"/>
		</g>
	</g>
	<g>
		<g>
			<path fill="#FFD15C" d="M32,6.2c0.2,0.6,0.2,1.1,0,1.1c-0.2,0-0.6-0.4-0.8-1c-0.2-0.6-0.2-1.1,0-1.1C31.4,5.2,31.8,5.6,32,6.2z"
				/>
		</g>
	</g>
	<g>
		<g>
			<path fill="#FFD15C" d="M37.8,5.8c-0.1,0.6-0.3,1.1-0.5,1S36.9,6.2,37,5.6c0.1-0.6,0.3-1.1,0.5-1C37.7,4.7,37.8,5.2,37.8,5.8z"/>
		</g>
	</g>
	<g>
		<g>
			<path fill="#F5B54C" d="M18.8,26.6c-0.1-0.1-0.1-0.1-0.2-0.2c-0.1-0.1-0.1-0.3-0.2-0.4c-0.1-0.1-0.2-0.2-0.3-0.3
				c-0.1-0.2,0-0.2-0.2-0.3c0,0,0,0,0,0c0,0-0.1,0-0.2,0c-0.4,0-0.8,0.2-1.2,0.4c-0.1,0.1-0.3,0.2-0.4,0.3l0,0.1l0,0
				c0.4-0.4,0.9-0.7,1.4-0.7c0.1,0,0.2,0,0.2,0c0.1,0.1,0.2,0.3,0.1,0.4c0.1,0,0.2,0.1,0.3,0.1c0.1,0.1,0.2,0.2,0.1,0.3
				c0,0.1-0.1,0.2-0.2,0.2c-0.1,0.1-0.2,0.1-0.3,0.1c-0.2,0.1-0.5,0.3-0.6,0.5c0.3-0.2,0.5-0.3,0.8-0.5c0.1-0.1,0.2-0.1,0.3-0.1
				c0.1,0,0.3,0,0.3,0.2c0,0,0,0.1,0,0.1c-0.1,0.1-0.2,0.2-0.4,0.3c-0.1,0.1-0.2,0.2-0.2,0.3c0-0.1,0.1-0.1,0.2-0.2
				c0.2-0.1,0.3,0.1,0.3,0.1c0-0.1-0.1-0.3-0.1-0.3s0.1-0.1,0.2-0.1c0,0,0,0,0,0c0.1-0.1,0.1-0.3,0.1-0.4
				C18.8,26.7,18.8,26.7,18.8,26.6z"/>
		</g>
	</g>
	<g>
		<g>
			<g>
				<path fill="#FFFFFF" d="M16.8,24.9l0.7-0.1C17.5,24.8,17.6,25.2,16.8,24.9z"/>
			</g>
		</g>
	</g>
	<g>
		<g>
			<g>
				<path fill="#F5B54C" d="M18.1,25.9c0,0-0.1,0.1-0.1,0.1l0,0c-0.1,0-0.1,0.1-0.2,0.1l-0.2,0.1l-0.3,0.2L17,26.7l-0.1,0.1
					c0,0-0.1,0-0.1,0.1c0,0-0.1,0-0.1,0.1c0,0-0.1,0-0.1,0.1c0,0,0-0.1,0.1-0.1c0,0,0-0.1,0.1-0.1c0,0,0.1-0.1,0.2-0.1
					c0.1-0.1,0.2-0.2,0.3-0.3c0.1-0.1,0.2-0.2,0.3-0.2c0.1,0,0.1-0.1,0.2-0.1c0.1,0,0.1-0.1,0.2-0.1l0,0C18,25.9,18,25.9,18.1,25.9z
					"/>
			</g>
		</g>
	</g>
	<g>
		<g>
			<g>
				<path fill="#FFD15C" d="M41.2,28.7L41,29.7c0,0.2-0.2,0.4-0.4,0.4l-0.7,0.1l-0.1,0.1c-0.1,0.1-0.2,0.2-0.3,0.2
					c-0.3,0-1,0.1-1.6-0.1c0,0-0.1-0.1,0-0.3c0,0-0.7-0.2-0.8-0.5c0,0-0.5-0.7,0-1C37.4,28.5,38,29,38,29s0.5-1.7,0.9-2.2
					c0.3-0.4,0.6-0.7,1.2-0.8c0.3-0.1,0.6,0,0.9,0.1c0.1,0,0.2,0.1,0.2,0.1c0.3,0.1,0.6,0.2,0.6,0.2s0.2,0.3,0.2,0.4
					c0,0,0.7,0.3,0.8,0.6c0,0,0,0.7-0.7,0.6c0,0-0.4-0.2-0.5-0.4C41.5,27.8,41.3,28.2,41.2,28.7z"/>
			</g>
		</g>
	</g>
	<g>
		<g>
			<g>
				<path fill="#F5B54C" d="M38,30.1C38,30.1,38,30.1,38,30.1c0-0.1,0.1-0.1,0.1-0.2c0.1,0,0.1-0.1,0.2-0.1c0,0,0,0,0.1,0
					c0,0,0,0,0.1,0c0,0,0,0,0.1,0l0.1,0c0,0,0.1,0,0.1,0c0,0,0.1,0,0.1,0c0,0,0.1,0,0.1,0c0,0,0.1,0,0.1-0.1c0,0,0,0,0.1-0.1
					c0,0,0,0,0-0.1c0,0,0-0.1,0-0.1s0,0,0,0.1c0,0,0,0,0,0.1c0,0,0,0,0,0c0,0,0,0,0,0c0,0-0.1,0.1-0.1,0.1c0,0-0.1,0-0.1,0.1
					c0,0-0.1,0-0.1,0c0,0-0.1,0-0.1,0l-0.1,0c0,0,0,0-0.1,0c0,0-0.1,0-0.1,0c-0.1,0-0.1,0.1-0.2,0.1C38.1,30,38,30,38,30.1
					C38,30.1,38,30.1,38,30.1z"/>
			</g>
		</g>
	</g>
	<g>
		<g>
			<g>
				<path fill="#F5B54C" d="M39.9,30.3c-0.1,0-0.1,0-0.2,0.1c-0.1,0-0.1,0-0.2,0.1l0,0l0,0c0,0-0.1-0.1-0.1-0.1c0,0,0-0.1,0-0.1
					c0,0,0-0.1,0-0.1c0,0,0-0.1,0-0.1c0,0,0-0.1,0-0.1c0,0,0-0.1,0-0.1c0,0,0,0,0.1-0.1c0,0,0,0,0.1,0c0,0,0,0,0.1,0l0.1-0.1
					c0.1,0,0.2-0.1,0.3-0.1l0,0c0,0,0-0.1,0-0.1c0,0,0-0.1,0-0.1c0,0,0,0.1,0,0.1c0,0,0,0.1,0,0.1l0,0l0,0c-0.1,0.1-0.2,0.1-0.3,0.1
					l-0.1,0.1c0,0,0,0-0.1,0c0,0,0,0-0.1,0c0,0,0,0,0,0.1c0,0,0,0,0,0.1c0,0,0,0,0,0.1c0,0,0,0,0,0.1c0,0,0,0,0,0.1c0,0,0,0,0,0.1
					c0,0,0,0.1,0.1,0.1l0,0c0.1,0,0.2,0,0.2,0C39.7,30.3,39.8,30.3,39.9,30.3z"/>
			</g>
		</g>
	</g>
	<g>
		<g>
			<g>
				<path fill="#F5B54C" d="M38,29C38,29,38,29.1,38,29c0.1,0,0.1,0.1,0.1,0.1c0,0,0,0,0.1,0c0,0,0.1,0,0.1,0c0,0,0.1,0,0.1,0
					c0,0,0.1,0,0.1,0c0.1,0,0.1,0,0.2,0c0.1,0,0.1,0,0.2,0c0,0,0.1,0,0.1,0.1c0,0,0,0,0,0s-0.1,0-0.2,0c0,0-0.1,0-0.2,0
					c0,0-0.1,0-0.1,0c0,0-0.1,0-0.1,0c-0.1,0-0.1,0-0.2,0c-0.1,0-0.1,0-0.2-0.1C38.1,29.1,38.1,29.1,38,29C38,29.1,38,29,38,29z"/>
			</g>
		</g>
	</g>
	<g>
		<g>
			<path fill="#F5B54C" d="M41.2,27.8C41,27.9,40.8,28,40.5,28c0.3,0,0.7-0.1,1-0.2c0.1-0.1,0.1-0.2,0.2-0.3
				c-0.1-0.1-0.2-0.2-0.3-0.2c-0.2-0.1-0.3-0.1-0.5-0.1c0.1,0.1,0.2,0.2,0.3,0.3c0,0,0.1,0.1,0.1,0.1C41.3,27.7,41.3,27.8,41.2,27.8
				z"/>
		</g>
	</g>
</g>
</svg>
