<?xml version="1.0" encoding="utf-8"?>
<!-- Generator: Adobe Illustrator 18.0.0, SVG Export Plug-In . SVG Version: 6.00 Build 0)  -->
<!DOCTYPE svg PUBLIC "-//W3C//DTD SVG 1.1//EN" "http://www.w3.org/Graphics/SVG/1.1/DTD/svg11.dtd">
<svg version="1.1" id="Layer_1" xmlns="http://www.w3.org/2000/svg" xmlns:xlink="http://www.w3.org/1999/xlink" x="0px" y="0px"
	 viewBox="0 0 48 48" enable-background="new 0 0 48 48" xml:space="preserve">
<g>
	<g>
		<g>
			<path fill="#415A6B" d="M28.6,0H3.1C1.4,0,0,1.4,0,3.1v41.7C0,46.6,1.4,48,3.1,48h25.4c1.7,0,3.1-1.4,3.1-3.1V3.1
				C31.7,1.4,30.3,0,28.6,0z"/>
			<g>
				<rect x="0" y="5.5" fill="#FFD15C" width="31.7" height="33.7"/>
			</g>
			<circle fill="#344A5E" cx="15.8" cy="43.6" r="2.3"/>
		</g>
		<g>
			<path fill="#F3705A" d="M45.9,11.2c-4.3-0.8-8.1-2.4-9.8-3.1c-0.7-0.3-1.4-0.3-2.1,0c-1.7,0.8-5.5,2.3-9.8,3.1
				c-1.2,0.2-2.1,1.3-2.1,2.5v6.5c0,7.6,5,14.3,12.2,16.5c0.5,0.1,1,0.1,1.4,0C43,34.5,48,27.9,48,20.2v-6.5
				C48,12.5,47.1,11.5,45.9,11.2z"/>
			<path fill="#66C6B9" d="M44.6,22.4c0.1-0.7,0.2-1.4,0.2-2.1v-6C40.6,13.4,37,12,35,11.1l0,0v11.2H44.6z"/>
			<path fill="#FFFFFF" d="M35,11.1c-2,0.9-5.6,2.3-9.8,3.1v6c0,0.7,0.1,1.4,0.2,2.1H35V11.1z"/>
			<path fill="#FFFFFF" d="M44.6,22.4H35v11.3C40.2,32,43.9,27.6,44.6,22.4z"/>
			<path fill="#66C6B9" d="M25.4,22.4c0.8,5.2,4.4,9.6,9.6,11.3c0,0,0,0,0,0V22.4H25.4z"/>
		</g>
	</g>
</g>
</svg>
