<?xml version="1.0" encoding="utf-8"?>
<!-- Generator: Adobe Illustrator 18.0.0, SVG Export Plug-In . SVG Version: 6.00 Build 0)  -->
<!DOCTYPE svg PUBLIC "-//W3C//DTD SVG 1.1//EN" "http://www.w3.org/Graphics/SVG/1.1/DTD/svg11.dtd">
<svg version="1.1" id="Layer_1" xmlns="http://www.w3.org/2000/svg" xmlns:xlink="http://www.w3.org/1999/xlink" x="0px" y="0px"
	 viewBox="0 0 48 48" enable-background="new 0 0 48 48" xml:space="preserve">
<g>
	<g>
		<g>
			<g>
				<path fill="#415A6B" d="M38.2,48H9.8c-1.7,0-3-1.3-3-3V3c0-1.7,1.3-3,3-3h28.4c1.7,0,3,1.3,3,3v42C41.2,46.7,39.9,48,38.2,48z"
					/>
				<g>
					<rect x="10.8" y="6.1" fill="#F3F3F3" width="26.4" height="32.6"/>
				</g>
				<g>
					<g>
						<polygon fill="#415A6B" points="32,13.1 26.7,20.8 22.5,17.8 20.2,17.8 15,23.3 16,24.2 21.3,18.5 26.4,22.1 27.3,22.1 
							33,13.9 						"/>
					</g>
				</g>
			</g>
			<g>
				<path fill="#344A5E" d="M27.1,3.8h-6.3c-0.4,0-0.7-0.3-0.7-0.7v0c0-0.4,0.3-0.7,0.7-0.7h6.3c0.4,0,0.7,0.3,0.7,0.7v0
					C27.9,3.4,27.5,3.8,27.1,3.8z"/>
			</g>
			<g>
				<circle fill="#344A5E" cx="23.2" cy="43.6" r="2.8"/>
			</g>
		</g>
		<rect x="13.9" y="29.4" fill="#ADB3BA" width="3.2" height="6"/>
		<rect x="19.6" y="23.4" fill="#FFD15C" width="3.2" height="12"/>
		<rect x="25.2" y="27.3" fill="#F3705A" width="3.2" height="8.1"/>
		<rect x="30.9" y="19.2" fill="#8AD7F8" width="3.2" height="16.2"/>
		<g>
			<circle fill="#F3705A" cx="15.5" cy="23.7" r="1.7"/>
		</g>
		<g>
			<circle fill="#66C6B9" cx="21.2" cy="17.6" r="1.7"/>
		</g>
		<g>
			<circle fill="#F7B64C" cx="26.8" cy="21.6" r="1.7"/>
		</g>
		<g>
			<circle fill="#F3705A" cx="32.5" cy="13.5" r="1.7"/>
		</g>
	</g>
</g>
</svg>
