<?xml version="1.0" encoding="utf-8"?>
<!-- Generator: Adobe Illustrator 18.0.0, SVG Export Plug-In . SVG Version: 6.00 Build 0)  -->
<!DOCTYPE svg PUBLIC "-//W3C//DTD SVG 1.1//EN" "http://www.w3.org/Graphics/SVG/1.1/DTD/svg11.dtd">
<svg version="1.1" id="Layer_1" xmlns="http://www.w3.org/2000/svg" xmlns:xlink="http://www.w3.org/1999/xlink" x="0px" y="0px"
	 viewBox="0 0 48 48" enable-background="new 0 0 48 48" xml:space="preserve">
<g>
	<g>
		<g>
			<g>
				<g>
					<path fill="#CED6E0" d="M32.7,25c-0.8,0-1.4-0.6-1.5-1.4c-0.1-0.8,0.6-1.5,1.4-1.6c5.5-0.3,9.8-4.9,9.8-10.4V4.7h-7
						c-0.8,0-1.5-0.7-1.5-1.5s0.7-1.5,1.5-1.5h8.5c0.8,0,1.5,0.7,1.5,1.5v8.4C45.4,18.7,39.9,24.6,32.7,25C32.8,25,32.8,25,32.7,25z
						"/>
				</g>
			</g>
			<g>
				<g>
					<path fill="#CED6E0" d="M15.3,25C15.2,25,15.2,25,15.3,25C8.1,24.6,2.6,18.7,2.6,11.7V3.2c0-0.8,0.7-1.5,1.5-1.5h8.5
						c0.8,0,1.5,0.7,1.5,1.5s-0.7,1.5-1.5,1.5h-7v6.9c0,5.5,4.3,10,9.8,10.4c0.8,0,1.5,0.8,1.4,1.6C16.7,24.4,16.1,25,15.3,25z"/>
				</g>
			</g>
		</g>
		<g>
			<g>
				<path fill="#CED6E0" d="M30.1,37.1H17.9l0,0c1.9-2,3-4.6,3-7.4v-0.9H27v0.9C27,32.5,28.1,35.1,30.1,37.1L30.1,37.1z"/>
			</g>
		</g>
		<g>
			<path fill="#415A6B" d="M31.6,40.2H16.4c-1.7,0-3,1.3-3,3V48h21.2v-4.8C34.6,41.5,33.3,40.2,31.6,40.2z"/>
		</g>
		<g>
			<g>
				<g>
					<path fill="#E8EAE9" d="M10.9,0v17.7c0,7.2,5.8,13.1,13.1,13.1h0c7.2,0,13.1-5.8,13.1-13.1V0H10.9z"/>
				</g>
			</g>
			<g>
				<g>
					<polygon fill="#CED6E0" points="24,4.5 26.3,9.3 31.6,10 27.8,13.7 28.7,18.9 24,16.5 19.3,18.9 20.2,13.7 16.4,10 21.7,9.3 
											"/>
				</g>
			</g>
		</g>
		<g>
			<path fill="#E8EAE9" d="M30.1,37.1H17.9c-0.8,0-1.5,0.7-1.5,1.5l0,0c0,0.8,0.7,1.5,1.5,1.5h12.1c0.8,0,1.5-0.7,1.5-1.5l0,0
				C31.6,37.8,30.9,37.1,30.1,37.1z"/>
		</g>
	</g>
</g>
</svg>
