<?xml version="1.0" encoding="utf-8"?>
<!-- Generator: Adobe Illustrator 18.0.0, SVG Export Plug-In . SVG Version: 6.00 Build 0)  -->
<!DOCTYPE svg PUBLIC "-//W3C//DTD SVG 1.1//EN" "http://www.w3.org/Graphics/SVG/1.1/DTD/svg11.dtd">
<svg version="1.1" id="Layer_1" xmlns="http://www.w3.org/2000/svg" xmlns:xlink="http://www.w3.org/1999/xlink" x="0px" y="0px"
	 viewBox="0 0 48 48" enable-background="new 0 0 48 48" xml:space="preserve">
<g>
	<g>
		<g>
			<g>
				<g>
					<circle fill="#FFD15C" cx="24" cy="24" r="13.2"/>
				</g>
			</g>
			<g>
				<g>
					<circle fill="#F7B64C" cx="24" cy="24" r="9.6"/>
				</g>
			</g>
			<g>
				<g>
					<path fill="#FFD15C" d="M23.3,30.6v-1.2c-1.3-0.2-2.6-0.8-3.7-1.8l1.5-1.8c0.8,0.7,1.6,1.2,2.2,1.4v-2.4
						c-1.1-0.3-1.9-0.7-2.5-1.2c-0.5-0.5-0.8-1.2-0.8-2.1c0-0.9,0.3-1.7,0.9-2.2c0.6-0.6,1.4-0.9,2.3-1.1v-0.8H25v0.8
						c1.1,0.1,2.1,0.6,3.2,1.3l-1.3,1.9c-0.7-0.5-1.3-0.8-1.9-1v2.3c1.2,0.3,2,0.7,2.5,1.2c0.5,0.5,0.8,1.2,0.8,2.1
						c0,0.9-0.3,1.7-0.9,2.3C26.9,29,26,29.3,25,29.4v1.1H23.3z M23.3,20.4c-0.5,0.2-0.7,0.5-0.7,0.9c0,0.4,0.2,0.8,0.7,1V20.4z
						 M25.8,26.2c0-0.2-0.1-0.4-0.2-0.6c-0.1-0.1-0.3-0.3-0.6-0.4v2C25.6,27.1,25.8,26.7,25.8,26.2z"/>
				</g>
			</g>
		</g>
		<path fill="#415A6B" d="M47,23h-2.5C44,12.5,35.5,4,25,3.5V1c0-0.6-0.4-1-1-1s-1,0.4-1,1v2.5C12.5,4,4,12.5,3.5,23H1
			c-0.6,0-1,0.4-1,1c0,0.6,0.4,1,1,1h2.5C4,35.5,12.5,44,23,44.5V47c0,0.6,0.4,1,1,1s1-0.4,1-1v-2.5c10.5-0.5,19-9,19.5-19.5H47
			c0.6,0,1-0.4,1-1C48,23.4,47.6,23,47,23z M40.6,25h1.9C42,34.4,34.4,42,25,42.5v-1.9c0-0.6-0.4-1-1-1s-1,0.4-1,1v1.9
			C13.6,42,6,34.4,5.5,25h1.9c0.6,0,1-0.4,1-1c0-0.6-0.4-1-1-1H5.5C6,13.6,13.6,6,23,5.5v1.9c0,0.6,0.4,1,1,1s1-0.4,1-1V5.5
			C34.4,6,42,13.6,42.5,23h-1.9c-0.6,0-1,0.4-1,1C39.6,24.6,40,25,40.6,25z"/>
	</g>
</g>
</svg>
