<?xml version="1.0" encoding="utf-8"?>
<!-- Generator: Adobe Illustrator 18.0.0, SVG Export Plug-In . SVG Version: 6.00 Build 0)  -->
<!DOCTYPE svg PUBLIC "-//W3C//DTD SVG 1.1//EN" "http://www.w3.org/Graphics/SVG/1.1/DTD/svg11.dtd">
<svg version="1.1" id="Layer_1" xmlns="http://www.w3.org/2000/svg" xmlns:xlink="http://www.w3.org/1999/xlink" x="0px" y="0px"
	 viewBox="0 0 48 48" enable-background="new 0 0 48 48" xml:space="preserve">
<g>
	<path fill="#40596B" d="M31.2,44.9H16.1l0,0c0-4.2,3.4-7.6,7.6-7.6l0,0C27.9,37.4,31.2,40.8,31.2,44.9L31.2,44.9z"/>
	<path fill="#334A5E" d="M31.8,44.9H15.5c-1.4,0-2.5,1.1-2.5,2.5h21.3C34.3,46.1,33.2,44.9,31.8,44.9z"/>
	<path fill="#334A5E" d="M17,41.4c2.1,0.8,4.4,1.3,6.7,1.3c2.4,0,4.6-0.5,6.7-1.3c-1.3-2.4-3.8-4-6.7-4C20.8,37.4,18.2,39,17,41.4z"
		/>
	<path fill="#FF7058" d="M40.6,4.9L36,0.8c-0.4-0.4-1-0.3-1.4,0.1l-1.5,1.7L39.2,8l1.5-1.7C41,5.9,41,5.3,40.6,4.9z"/>
	<path fill="#FF7058" d="M21.2,16.1l-2.2,2.5c-0.4,0.4-0.3,1,0.1,1.4l4.6,4.1c0.4,0.4,1,0.3,1.4-0.1l2.2-2.5L21.2,16.1z"/>
	<path fill="#F2F2F2" d="M23.7,41.2c-5.2,0-10.2-2.5-13.4-6.7l3.2-2.4c2.4,3.3,6.1,5.1,10.2,5.1c7,0,12.7-5.7,12.7-12.7
		c0-4.2-2.1-8.1-5.6-10.5l2.2-3.3c4.6,3.1,7.3,8.3,7.3,13.8C40.3,33.7,32.8,41.2,23.7,41.2z"/>
	<path fill="#40596B" d="M39.4,6.8l-5-4.5c-0.8-0.7-2.1-0.7-2.8,0.2L21,14.4c-0.7,0.8-0.7,2.1,0.2,2.8l5,4.5
		c0.8,0.7,2.1,0.7,2.8-0.2L39.6,9.6C40.3,8.8,40.2,7.5,39.4,6.8z"/>
	<circle fill="#F2F2F2" cx="34" cy="14" r="3.2"/>
	<circle fill="#40596B" cx="34" cy="14" r="1.7"/>
	<path fill="#E4EAEF" d="M13.5,32.1l-3.2,2.4c0.5,0.6,1,1.2,1.5,1.8h7C16.8,35.4,14.9,34,13.5,32.1z"/>
	<path fill="#40596B" d="M19.8,30.7H9.1c-1.1,0-2,0.9-2,2c0,1.1,0.9,2,2,2h10.7c1.1,0,2-0.9,2-2C21.8,31.6,20.9,30.7,19.8,30.7z"/>
</g>
</svg>
