<?xml version="1.0" encoding="utf-8"?>
<!-- Generator: Adobe Illustrator 19.0.1, SVG Export Plug-In . SVG Version: 6.00 Build 0)  -->
<svg version="1.1" id="Layer_1" xmlns="http://www.w3.org/2000/svg" xmlns:xlink="http://www.w3.org/1999/xlink" x="0px" y="0px"
	 viewBox="0 0 48 48" style="enable-background:new 0 0 48 48;" xml:space="preserve">
<style type="text/css">
	.st0{fill:#415A6B;}
	.st1{fill:#ADB3BA;}
	.st2{fill:#E8EAE9;}
	.st3{fill:#55C0EB;}
	.st4{fill:#F3705A;}
	.st5{fill:#FFFFFF;}
	.st6{fill:#FFD15C;}
	.st7{fill:#344A5E;}
	.st8{fill:#CED6E0;}
	.st9{fill:#F05540;}
	.st10{fill:#F7B64C;}
	.st11{fill:#F3F3F3;}
	.st12{fill:#66C6B9;}
	.st13{fill:#4ABAA5;}
	.st14{fill:#8AD7F8;}
	.st15{fill:none;}
	.st16{fill:#E53D35;}
</style>
<g>
	<g>
		<polygon class="st8" points="16.2,38.4 17.1,34.6 31.1,34.7 32.6,38.4 		"/>
		<g>
			<polygon class="st11" points="17.1,34.6 17.8,31.9 30,32 31.1,34.7 			"/>
		</g>
		<polygon class="st8" points="30,32 42.2,32 45.2,34.9 31.1,34.7 		"/>
		<g>
			<polygon class="st11" points="32.6,38.4 48,38.4 45.2,34.9 31.1,34.7 			"/>
		</g>
		<polygon class="st8" points="30,32 29,29.8 18.2,29.7 17.8,31.9 		"/>
		<polygon class="st11" points="29,29.8 39.8,29.8 42.2,32 30,32 		"/>
		<polygon class="st8" points="39.8,29.8 38.1,28.1 28.3,28.1 29,29.8 		"/>
		<g>
			<polygon class="st11" points="28.3,28.1 18.7,28 18.2,29.7 29,29.8 			"/>
		</g>
		<g>
			<polygon class="st8" points="18.7,28 19,26.5 27.7,26.6 28.3,28.1 			"/>
		</g>
		<polygon class="st11" points="0,38.4 3.3,34.5 17.1,34.6 16.2,38.4 		"/>
		<g>
			<polygon class="st8" points="3.3,34.5 5.7,31.8 17.8,31.9 17.1,34.6 			"/>
		</g>
		<polygon class="st11" points="17.8,31.9 18.2,29.7 7.5,29.7 5.7,31.8 		"/>
		<g>
			<polygon class="st8" points="18.7,28 9,27.9 7.5,29.7 18.2,29.7 			"/>
		</g>
		<g>
			<polygon class="st11" points="9,27.9 10.3,26.5 19,26.5 18.7,28 			"/>
		</g>
		<polygon class="st11" points="27.7,26.6 36.5,26.6 38.1,28.1 28.3,28.1 		"/>
	</g>
	<g>
		<g>
			<g>
				<g>
					<path class="st12" d="M24.4,16.7c0,0-2.3-0.2-2.7-0.4c-0.4-0.2-0.2-0.6-0.2-0.6s-0.7-0.9-0.2-1.8c0.5-0.9,3.2-1.8,3.5-2
						c0.4-0.2,0.7-0.6,0.8-1s0.6-1,0.8-0.4c0,0,0.4-0.3,0.4,0.3c0,0.3,0.2,1,0.3,1.2c0.1,0.2,2.6,2.4,2.6,6.2c0,0-0.3,4.2-1.4,6.3
						h-6.1c0,0-1.8-0.9-1.2-3c0.1-0.5,0.4-1,0.8-1.3C23,19.3,23.8,18,24.4,16.7z"/>
				</g>
				<g>
					<path class="st13" d="M30.9,32.6c0-1-2.5-1.7-5.5-1.7s-5.5,0.8-5.5,1.7c0,1.4,2.5,1.7,5.5,1.7S30.9,34,30.9,32.6z"/>
				</g>
				<g>
					<path class="st12" d="M30.9,30.9c0,1.4-2.5,1.7-5.5,1.7c-3.1,0-5.5-0.4-5.5-1.7c0-0.2,0.1-0.4,0.2-0.5c1.4-1.4,2.3-3.3,2.3-5.3
						v-0.5h6.1v0.5c0,2,0.9,3.9,2.2,5.3C30.9,30.6,30.9,30.7,30.9,30.9z"/>
				</g>
				<g>
					<path class="st13" d="M28.8,24.5h-7c-0.4,0-0.7,0.3-0.7,0.7v0.5c0,0.4,0.3,0.7,0.7,0.7h7c0.4,0,0.7-0.3,0.7-0.7v-0.5
						C29.5,24.8,29.2,24.5,28.8,24.5z"/>
				</g>
			</g>
		</g>
		<g>
			<g>
				<g>
					<path class="st0" d="M32,33.4l-0.5,0.3c0,0,0,0.1,0,0.2c0,0.1,0.8,0.2,1.2,0.2s0.8-0.3,0.9-0.5c0.1-0.2,0.6-0.4,0.6-0.4v0.2
						c0,0,0.3,0,0.6-0.1c0.2-0.1,0.3-0.3,0.3-0.5l0-0.3L32,33.4z"/>
				</g>
				<g>
					<path class="st7" d="M33.1,31.9c0,0,0,0.3-0.3,0.6c-0.3,0.4-0.8,0.6-1.1,0.8c-0.3,0.2-0.3,0.5-0.3,0.5s0.5,0.3,1.3,0.2
						c0.7-0.1,0.8-0.6,1.4-0.9c0.6-0.3,0.8-0.4,0.9-0.5s-0.2-0.7-0.2-0.8S33.1,31.9,33.1,31.9z"/>
				</g>
			</g>
			<g>
				<path class="st0" d="M40.9,33.2c0,0-0.1,0.5,0.1,0.8c0.2,0.3,1,0.3,1.3,0.2s0.5-0.3,0.3-0.9c-0.2-0.6-0.6-0.4-0.6-0.4L40.9,33.2
					z"/>
			</g>
			<g>
				<path class="st7" d="M40.9,31.9c0,0,0.2,0.4,0.1,0.8s-0.3,0.9,0.1,1.1s1.2,0.3,1.3,0.1c0.2-0.2,0.1-0.7,0-1
					c-0.1-0.3-0.3-1.1-0.4-1.2c-0.1-0.1-0.1-0.1-0.1-0.1L40.9,31.9z"/>
			</g>
			<g>
				<g>
					<path class="st7" d="M32.5,18.6c0,0-0.1,2.9-0.2,3.6s0,0.6,0.5,0.6s0.5-0.1,0.5-0.1C33.1,21.1,33.2,19.3,32.5,18.6z"/>
				</g>
				<g>
					<path class="st0" d="M33.1,20.4c0,0-0.6,1.6-0.8,2.6s-0.4,2-0.5,2.4s-0.1,0.8,0,1.5s1.2,5.1,1.2,5.1s0.5,0.1,0.9,0.1
						c0.5,0,0.8-0.3,0.8-0.3s-0.2-1.3-0.5-1.9c-0.2-0.6-0.1-1.2-0.2-1.7c-0.1-0.5-0.3-0.7-0.2-1.1c0.1-0.4-0.1-1.2-0.1-1.2l1.3-2.4
						c0,0,1.3,1.4,1.6,1.9c0.3,0.6,0.7,1,1,1.5c0.4,0.5,1.1,1.8,1.2,2.1c0.1,0.3,0.7,1.5,1,2c0.3,0.5,0.6,1.2,0.6,1.2
						s0.4,0.2,0.8,0.1c0.4-0.1,0.5-0.3,0.5-0.3s-0.2-1.3-0.7-2.2c-0.5-0.9-0.9-2.4-1.1-2.7c-0.2-0.3-0.2-0.6-0.4-0.8
						c-0.2-0.2-0.3-0.4-0.4-0.5c-0.1-0.1,0.1-0.1-0.1-0.5c-0.2-0.4-0.7-2.1-0.7-2.8s0-1.2-0.5-1.9s-0.5-0.6-0.5-0.6L33.1,20.4z"/>
				</g>
				<g>
					<g>
						<path class="st7" d="M33.1,12.5l0.3,0.1c0,0,0.8-0.2,1.4,0.2c0.7,0.5,1.1,1.9,1.3,2.7c0.2,0.8,0.6,1.8,1,2.5
							c0.4,0.8,1.5,2.9,1.5,2.9s-1.8,1.6-3.2,1.9s-1.7-0.8-1.9-1.2c-0.2-0.4-1-2.9-1-2.9s-0.8-1.7-0.6-3.2
							C32.1,14.2,33.1,12.5,33.1,12.5z"/>
					</g>
					<g>
						<path class="st6" d="M29.1,14.8c0,0-0.2-0.3-0.3-0.4c-0.1-0.1-0.3-0.7-0.3-0.7s0-0.3-0.1-0.5c-0.1-0.1-0.4-0.4-0.4-0.4
							s-0.2,0,0,0.3l0.1,0.1c0,0-0.5-0.3-0.6-0.4c-0.2,0-0.1,0.1-0.1,0.1s-0.1-0.1-0.2-0.1c-0.1,0.1,0.1,0.2,0.2,0.3
							c0.1,0.1,0.3,0.3,0.4,0.4s0.1,0.2,0.1,0.2s-0.1-0.1-0.2-0.2c-0.1-0.1-0.3-0.2-0.3-0.3c-0.1-0.1-0.1-0.2-0.2-0.2
							c-0.1,0,0,0.2,0.1,0.3c0.1,0.1,0.3,0.3,0.4,0.4c0.1,0.1,0.2,0.3,0.3,0.5c0.1,0.3,0.5,0.6,0.6,0.7c0.1,0.1,0.2,0.3,0.2,0.3
							S29,14.9,29.1,14.8z"/>
					</g>
					<g>
						<path class="st7" d="M31.7,13.9c0,0-0.2,0.1-0.4,1.1s0.5,2.9,1.1,3.6c0.5,0.7,0.5,0.7,0.5,0.7s-1.2-3.4-1.2-4.3
							C31.7,14,31.7,13.9,31.7,13.9z"/>
					</g>
					<g>
						<path class="st4" d="M31.7,13.9c0,0-0.1,0.2-0.1,0.4c0,0.2-0.2,1.6,0,2.2c0.2,0.6,0.2,0.6,0.2,0.6s0-2.5,0.1-2.8
							c0.1-0.3,0.1-0.3,0.1-0.3L31.7,13.9z"/>
					</g>
					<g>
						<path class="st6" d="M33.3,12.6L32.9,12l-1.4-1.5l-1.1-0.1l-0.3,0.6c0,0-0.2,0.6-0.2,0.7c0,0.2,0.1,0.2,0.1,0.3
							c0,0.1-0.3,0.4-0.2,0.6c0.1,0.2,0.2,0.2,0.2,0.2s0.1,0.2,0.1,0.3c0,0.1,0,0.1,0.1,0.1c0,0-0.1,0.1,0.1,0.2
							c0.2,0.1,0,0.3,0.2,0.4s0.8-0.2,0.9-0.2c0.1,0,0.6,0.5,0.8,0.8C32.5,13.7,32.8,13.1,33.3,12.6z"/>
					</g>
					<g>
						<path class="st2" d="M32.1,14.2l-0.3-0.3c0,0,0.7-1.2,1.2-1.6V13L32.1,14.2z"/>
					</g>
					<g>
						<path class="st2" d="M28.7,15.9c0,0-0.2-0.1-0.3-0.2c-0.1-0.1,0.3-0.9,0.6-0.9l0.2,0.1L28.7,15.9z"/>
					</g>
					<g>
						<path class="st0" d="M30.1,10.9C30.1,10.9,30.1,10.9,30.1,10.9c0.1,0,0.3-0.2,0.5-0.2c0.2,0,0.1,0.5,0.1,0.6
							c0.1,0.1,0.4,0.1,0.4,0.3c0,0.2,0,0.4,0,0.4h0.2c0,0,0-0.4,0.2-0.5s0.4-0.1,0.5,0.2c0.1,0.3,0.8,0.7,1,0.7s0.2-0.5,0.2-1
							c0-0.5-0.1-1.4-1.2-1.6c-0.9-0.2-1.7,0.2-2.1,0.7C29.7,10.5,29.8,10.9,30.1,10.9z"/>
					</g>
					<g>
						<path class="st0" d="M33.1,12.1c0,0-0.3,0.3-0.5,0.9s-0.9,2-1,2.5c-0.1,0.6,0.8,2.6,1.1,3.2c0,0-0.6-1.8-0.5-2.8
							c0.1-0.9,1-3.2,1.4-3.4L33.1,12.1z"/>
					</g>
					<g>
						<path class="st0" d="M32.6,14.3c0,0,0.1-1.1,1.1-1.2s1.3,0.3,1.4,0.7c0.1,0.5,0,1.2-0.2,1.6c-0.3,0.4-1.8,1.5-2.3,1.7
							c-0.5,0.3-0.8,0.3-1.4,0.2c-0.6-0.2-1.5-0.6-2.5-0.8c0,0-0.1-0.9,0.2-1.3c0.3-0.4,0.4-0.3,0.4-0.3s1.1,0.4,1.4,0.4
							c0.3,0.1,0.5,0,0.6,0c0.2,0,0.3,0,0.3,0S32.6,14.6,32.6,14.3z"/>
					</g>
				</g>
			</g>
		</g>
	</g>
</g>
</svg>
