<?xml version="1.0" encoding="utf-8"?>
<!-- Generator: Adobe Illustrator 18.0.0, SVG Export Plug-In . SVG Version: 6.00 Build 0)  -->
<!DOCTYPE svg PUBLIC "-//W3C//DTD SVG 1.1//EN" "http://www.w3.org/Graphics/SVG/1.1/DTD/svg11.dtd">
<svg version="1.1" id="Layer_1" xmlns="http://www.w3.org/2000/svg" xmlns:xlink="http://www.w3.org/1999/xlink" x="0px" y="0px"
	 viewBox="0 0 48 48" enable-background="new 0 0 48 48" xml:space="preserve">
<g>
	<g>
		<g>
			<path fill="#415A6B" d="M13.1,34.7c-4.8,1.5-9.5,3-12.5,4.7C0.2,39.6,0,40,0,40.5h0c0,0.6,0.4,1.1,1,1.2
				c3.6,0.9,16.8,3.9,23.6,3.1c8-1,9-10.7,9-10.7s1.6-9.3,7.5-11.5c1.2-0.4,2.5,0.2,2.9,1.4c0.2,0.8,0.4,1.9,0.3,3.5
				c0,0.3,0,0.7,0,1c-0.1,6.6,0.2,15.8,0.2,15.8h1.6c0,0-0.8-17.8,1.8-26.9c0.1-0.3,0.1-0.7,0.1-1c0-2-0.6-9.1-6.7-13.3l-1.8,2.7
				c0,0-8.8,14-10.8,20.3S26.9,37.9,13.1,34.7z"/>
		</g>
		<g>
			<path fill="#344A5E" d="M47.8,17.3c-2.5,9.1-1.8,26.9-1.8,26.9h-1.6c0,0-0.3-9-0.2-15.7c0-0.4,0-0.8,0-1.1c0.1-1.6,0-2.7-0.3-3.5
				c-0.4-1.2-1.7-1.9-2.9-1.4c-0.4,0.1-0.7,0.3-1,0.5c1.4-0.8,5.8-3.6,7.8-6.8c0,0,0,0,0,0C48,16.6,47.9,17,47.8,17.3z"/>
		</g>
		<g>
			<path fill="#FFD15C" d="M13.4,35.3c0,0-1-0.9,0.6-0.9s6.3,0.4,6.3,0.4s4.7,0.8,6.4-4.7s8.5-20.5,13-24.6c0,0-6.6,11.4-8.7,18
				s-2.9,8.7-2.9,8.7s-2,6.1-6.4,6C18,38,15.7,37.1,13.4,35.3z"/>
		</g>
	</g>
</g>
</svg>
