<?xml version="1.0" encoding="utf-8"?>
<!-- Generator: Adobe Illustrator 18.0.0, SVG Export Plug-In . SVG Version: 6.00 Build 0)  -->
<!DOCTYPE svg PUBLIC "-//W3C//DTD SVG 1.1//EN" "http://www.w3.org/Graphics/SVG/1.1/DTD/svg11.dtd">
<svg version="1.1" id="Layer_1" xmlns="http://www.w3.org/2000/svg" xmlns:xlink="http://www.w3.org/1999/xlink" x="0px" y="0px"
	 viewBox="0 0 48 48" enable-background="new 0 0 48 48" xml:space="preserve">
<g>
	<circle fill="#54C0EB" cx="24" cy="24" r="24"/>
	<path fill="#F2F2F2" d="M24,42c-9.9,0-18-8.1-18-18S14.1,6,24,6s18,8.1,18,18S33.9,42,24,42z"/>
	<path fill="#FF7058" d="M24,36c-6.6,0-12-5.4-12-12s5.4-12,12-12s12,5.4,12,12S30.6,36,24,36z"/>
	<path fill="#CDD6E0" d="M24,30c-3.3,0-6-2.7-6-6s2.7-6,6-6s6,2.7,6,6S27.3,30,24,30z"/>
	<path fill="#FFD15C" d="M24,30c-3.3,0-6-2.7-6-6s2.7-6,6-6s6,2.7,6,6S27.3,30,24,30z"/>
	<path opacity="0.2" fill="#334A5E" d="M47.8,27c-0.4,3-1.3,5.8-2.7,8.4l-1.3-0.5l-1.7-3.6l-18-6.5c-0.8-0.3-1.2-1.2-0.9-2
		c0.3-0.8,1.2-1.2,2-0.9l18,6.5l3.6-1.7L47.8,27z"/>
	<g>
		<path fill="#40596B" d="M40.4,9.7L25.7,24.4c-0.6,0.6-1.6,0.6-2.2,0l0,0c-0.6-0.6-0.6-1.6,0-2.2L38.3,7.6c0.6-0.6,1.6-0.6,2.2,0
			l0,0C41,8.2,41,9.1,40.4,9.7z"/>
		<polygon fill="#FF7058" points="41.8,6.2 37.1,10.9 37.1,4.7 41.8,0 		"/>
		<polygon fill="#F1543F" points="43.3,10.9 48,6.2 41.8,6.2 37.1,10.9 		"/>
	</g>
</g>
</svg>
