<?xml version="1.0" encoding="utf-8"?>
<!-- Generator: Adobe Illustrator 18.0.0, SVG Export Plug-In . SVG Version: 6.00 Build 0)  -->
<!DOCTYPE svg PUBLIC "-//W3C//DTD SVG 1.1//EN" "http://www.w3.org/Graphics/SVG/1.1/DTD/svg11.dtd">
<svg version="1.1" id="Layer_1" xmlns="http://www.w3.org/2000/svg" xmlns:xlink="http://www.w3.org/1999/xlink" x="0px" y="0px"
	 viewBox="0 0 48 48" enable-background="new 0 0 48 48" xml:space="preserve">
<g>
	<g>
		<g>
			<g>
				<g>
					<g>
						<g>
							<path fill="#F26F5A" d="M23.9,47.2c0,0-0.2-0.3-0.2-0.5c0.1-0.2,0.5-0.8,0.6-1.1c0-0.3-0.1-0.3-0.1-0.3l0.1-0.6h1.5
								c0,0,0.6,0.5,0.7,0.7c0.1,0.2,0.3,0.9,0.2,1.2C26,47.2,25,47.3,23.9,47.2z"/>
						</g>
					</g>
				</g>
				<g>
					<g>
						<g>
							<path fill="#CED6E0" d="M23.7,46.7c0,0-0.1,0.2,0.4,0.2c0.4,0,2.1,0.1,2.6-0.3c0,0,0.2,0.6-0.5,0.8c-0.7,0.2-1.7,0.2-2,0.1
								C24,47.5,23.5,47.4,23.7,46.7z"/>
						</g>
					</g>
				</g>
			</g>
			<g>
				<g>
					<g>
						<path fill="#F26F5A" d="M22.8,35l-0.3,0.6c0,0-0.6,2.5,0.9,3.1c1.5,0.6,1.3-2.8,1.3-2.8S24.2,34.4,22.8,35z"/>
					</g>
				</g>
			</g>
			<g>
				<g>
					<g>
						<path fill="#344A5E" d="M29.3,19.7c0,0,0.5,3.3,0.3,4.3c-0.1,0.9-0.9,4.2-1.1,5.1C28.3,30,28,33.1,28,33.1l-0.4,8.2
							c0,0-0.1,3-0.8,3.7h-0.2l-0.1,0.3c0,0-1-0.5-1.3-0.6c-0.3,0-0.9,0-1,0.5c0,0-0.9-0.9-0.7-2.3c0.2-1.3,0.6-4.5,0.6-4.5l0.4-6.7
							c0,0,0.2-6.7,0.5-7.4c0,0-0.3-0.1-0.4,0.4c-0.1,0.5-0.5,4.4-0.5,4.9c0,0.5,0,1.6,0.1,1.6c0.1,0,0.1,0.2,0,0.4
							c0,0.2,0,0.1,0,0.1l0,0.1l-2.7,1.9c-0.5-0.8-0.8-1.8-1-2.9c-0.6-3.8-0.9-7.4-0.4-10.3L29.3,19.7z"/>
					</g>
				</g>
			</g>
			<g>
				<g>
					<g>
						<path fill="#344A5E" d="M21,31.9l0.5,1.9c0,0,1,1.7,1,1.8c0,0,1.5,0.8,1.9-0.1c0.5-0.9,0.1-3.2,0.1-3.2L24,31.7L21,31.9z"/>
					</g>
				</g>
			</g>
		</g>
	</g>
	<g>
		<g>
			<g>
				<path fill="#425A6B" d="M27.4,4c1,1.4,1.3,3.3,2.5,5.2c-0.5-0.2-1.2-0.2-1.6-0.4c-0.3-0.2-0.7-0.3-0.9-0.6
					c-0.2-0.2-0.3-0.5-0.4-0.8c-0.3-1.1-0.4-2.3-0.1-3.4"/>
			</g>
		</g>
	</g>
	<g>
		<g>
			<g>
				<path fill="#425A6B" d="M25.2,3.1C25,4,25.3,5,25.9,5.8c0.3,0.4,0.7,0.7,1.1,1.1c0.2,0.2,0.6,1,0.7,1.3c0.1,0.3-0.3,0.3-0.6,0.4
					c-0.2,0.1-0.4,0-0.6-0.1c-0.2-0.1-0.3-0.3-0.5-0.4c-0.7-0.8-1.3-1.8-1.6-2.9c-0.1-0.4-0.2-0.9-0.1-1.3c0.2-0.5,0.6-0.7,1-1"/>
			</g>
		</g>
	</g>
	<g>
		<g>
			<g>
				<g>
					<path fill="#F5B54C" d="M24.6,5v1.4c0,0.4-0.3,0.7-0.7,0.8c0,0,0,0,0,0c-0.6,0.1-1.7,0.4-1.7,0.4s-0.8-0.1-1.4,0.7
						c-0.5,0.7-1.4,2.3-1.8,3.3c-0.4,1-1.5,3.7-1.5,3.7s-0.2,1,0.7,1.4c0.9,0.4,1.3,0.5,1.3,0.5s1.3,0.2,2,0.1
						c0.6-0.1,1.3,0.1,1.3,0.1s0.3,0.1,0.7,0.4c0.4,0.3,1,0.5,1,0.5l0.6,0.2c0.2,0.2,0.4-0.1,0.3-0.3l-0.1-0.1l0.1,0.1
						c0.2,0.1,0.4-0.3,0.3-0.4l-0.1-0.1l0.1,0.1c0.4,0.2,0.7-0.2,0.3-0.4L26,17.5l0.1,0.1c0.2,0.1,0.4-0.2,0.2-0.3L26.1,17
						c0,0,0.4,0.2,0.6-0.1l-0.5-0.4c0,0,0-0.2-0.2-0.2c-0.1,0-0.4-0.2-0.6-0.3c-0.1,0-0.2-0.1-0.3-0.1c-0.3,0-1,0-1.2,0.1
						c-0.2,0.1-0.5,0.1-0.5,0.1s-2.8-0.3-3.6-1.1c0,0,0.5-1,1-1.5c0.5-0.5,1-2.1,1-2.1l0.1,1.3l6.8,1.1l-0.3,2.3c0,0,0,1.4,0.4,2.2
						c0,0,0.3,0.6,0.1,0.9c-0.1,0.2-0.1,0.1-0.1,0.1c-0.1-0.1-0.3,0.2-0.2,0.3c-0.2,0-0.3,0.4-0.1,0.4c-0.1,0-0.2,0.4-0.1,0.5
						c-0.1,0,0,0.4,0.1,0.3l1.1,0.1c0.2,0.1,0.3-0.2,0.1-0.3c0.2,0.1,0.3-0.3,0.2-0.3c0.2,0.1,0.3-0.3,0.1-0.3
						c0.2,0,0.2-0.3,0.1-0.4c0,0,0-0.7,0.1-1.1c0.1-0.3,0.3-1.7,0-2.7c-0.3-0.9,0.2-3.4,0.2-3.4s0.4-2.4-0.2-3.6
						C29.7,8.4,29,8,28.5,7.9c-0.5-0.1-0.8-0.5-0.8-1v-2L24.6,5z"/>
				</g>
			</g>
		</g>
		<g>
			<g>
				<g>
					<g>
						<g>
							
								<ellipse transform="matrix(0.9599 0.2804 -0.2804 0.9599 2.4071 -7.7241)" fill="#FFD15C" cx="28.2" cy="4.6" rx="0.3" ry="0.8"/>
						</g>
					</g>
				</g>
				<g>
					<g>
						<g>
							
								<ellipse transform="matrix(-0.9599 0.2804 -0.2804 -0.9599 48.536 2.16)" fill="#FFD15C" cx="24.1" cy="4.6" rx="0.3" ry="0.8"/>
						</g>
					</g>
				</g>
			</g>
			<g>
				<g>
					<g>
						<g>
							<path fill="#FFD15C" d="M28.4,3.6L28,5.1c0,0-0.3,0.6-0.8,1c-0.5,0.4-1,0.3-1,0.3s-0.6,0-1-0.3c-0.5-0.4-0.8-1-0.8-1L24,3.6
								c0,0,0.1-2.5,2.2-2.2C28.2,1.1,28.4,3.6,28.4,3.6z"/>
						</g>
					</g>
				</g>
			</g>
			<g>
				<g>
					<g>
						<path fill="#425A6B" d="M28.2,4.2c0,0,0.2-1.4-0.6-1.5c-0.8-0.1-1.3-0.3-1.3-0.3c-0.2,0-0.4,0-0.5,0h0
							c-0.2-0.3-0.5-0.7-0.5-0.7l0.3,0.7c-0.7,0.2-1,0.6-1,0.6l-0.2-0.2v0.3l-0.3,1.3l-0.1-0.8c-0.3-1.7,0.5-2.6,0.8-2.8
							c0.2-0.1,1.2-0.6,2.1-0.4c0.9,0.3,1.3,0.7,1.7,1.6C29,3,28.2,4.2,28.2,4.2z"/>
					</g>
				</g>
			</g>
		</g>
	</g>
	<g>
		<g>
			<g>
				<path fill="#E8EAE8" d="M28.2,16.1c0,0,0.1,0.2-0.1,0.3c-0.2,0.1,0,0.7,0,0.7s0.1,0,0,0.3c0,0.2-0.1,0.3,0,0.4
					c0.1,0.1,0.2,0,0.2,0.2c0,0.2,0,0.5,0,0.5s0.8,1.8,0.8,2.3c0,0-0.3,1-2.5,1.4c-2.2,0.3-2.9,0.2-2.9,0.2s-3.1-0.2-3.9-1
					c0,0-0.1-0.2,0.1-0.3c0,0,0-0.4,0.3-0.8c0,0,0.6-1.5,0.8-2c0.2-0.4,0.6-1.6,0.5-2.5c-0.1-0.8-0.3-2.5-0.3-3.1
					c0.2-0.5,0.4-1,0.5-1.2c0,0,0,0,0,0s0.9-1.3,1.1-2.7c0.2-1,0.2-1.3,0.2-1.5c0.2-0.2,0.8-0.3,0.8-0.2c0,0.2-0.3,1.4-0.3,1.6
					c0,0.2-0.2,2,0.2,2.6c0.4,0.6,1.1,1,1.7,1.1c0,0,1.9,0.3,2.5-0.7c0.6-1.1,0.7-3.8,0.7-3.8C29,8,29.1,8,29.2,8.2
					c0,0-0.3,4.7-0.1,5.1c0.1,0.4,0.3,1.2,0,1.9C28.8,15.9,28.2,16.1,28.2,16.1z"/>
			</g>
		</g>
	</g>
	<g>
		<g>
			<g>
				<g>
					<path fill="#F5B54C" d="M25.7,16.3c-0.1,0-0.4-0.2-0.6-0.3c-0.1,0-0.2-0.1-0.3-0.1c-0.3,0-1,0-1.2,0.1
						c-0.2,0.1-0.5,0.1-0.5,0.1s-1.3-0.1-2.4-0.5v1.7c0.2,0,0.3,0,0.5,0c0.6-0.1,1.3,0.1,1.3,0.1s0.3,0.1,0.7,0.4
						c0.4,0.3,1,0.5,1,0.5l0.6,0.2c0.2,0.2,0.4-0.1,0.3-0.3l-0.1-0.1l0.1,0.1c0.2,0.1,0.4-0.3,0.3-0.4c0.4,0.2,0.7-0.2,0.3-0.4
						c0.2,0.1,0.4-0.2,0.2-0.3L25.8,17c0,0,0.4,0.2,0.6-0.1l-0.5-0.4C25.9,16.5,25.9,16.3,25.7,16.3z"/>
				</g>
			</g>
		</g>
	</g>
	<g>
		<g>
			<g>
				<g>
					<path fill="#F5B54C" d="M30.1,19.9c0,0,0-0.5,0-0.8H29c0,0.2,0,0.3,0,0.4c-0.1,0.2-0.1,0.1-0.1,0.1c-0.1-0.1-0.3,0.2-0.2,0.3
						c-0.2,0-0.3,0.4-0.1,0.4c-0.1,0-0.2,0.4-0.1,0.5c-0.1,0,0,0.4,0.1,0.3l1.1,0.1c0.2,0.1,0.3-0.2,0.1-0.3
						c0.2,0.1,0.3-0.3,0.2-0.3c0.2,0.1,0.3-0.3,0.1-0.3C30.2,20.2,30.3,19.9,30.1,19.9z"/>
				</g>
			</g>
		</g>
	</g>
</g>
</svg>
