<?xml version="1.0" encoding="utf-8"?>
<!-- Generator: Adobe Illustrator 20.1.0, SVG Export Plug-In . SVG Version: 6.00 Build 0)  -->
<!DOCTYPE svg PUBLIC "-//W3C//DTD SVG 1.1//EN" "http://www.w3.org/Graphics/SVG/1.1/DTD/svg11.dtd">
<svg version="1.1" id="Layer_1" xmlns="http://www.w3.org/2000/svg" xmlns:xlink="http://www.w3.org/1999/xlink" x="0px" y="0px"
	 viewBox="0 0 49 49" enable-background="new 0 0 49 49" xml:space="preserve">
<g>
	<path fill="#54C0EB" d="M45.7,0.5c-5.4,0-15.3,15.3-15.3,15.3l2.8,2.8c0,0,15.3-9.9,15.3-15.3C48.5,2.3,46.7,0.5,45.7,0.5z"/>
	<circle fill="#F8B64C" cx="14.9" cy="16.1" r="4.5"/>
	<circle fill="#F8B64C" cx="29.9" cy="16.1" r="4.5"/>
	<circle fill="#FFD15C" cx="10.6" cy="22.4" r="7"/>
	<circle fill="#FFD15C" cx="22.4" cy="19.1" r="7"/>
	<circle fill="#FFD15C" cx="34.2" cy="22.4" r="7"/>
	<path fill="#CDD6E0" d="M16.3,41.1v5.4c0,1.1,0.9,2,2,2h8.2c1.1,0,2-0.9,2-2v-5.4H16.3z"/>
	<path fill="#E2E2E2" d="M2.3,25.7c0,11.1,9,20.1,20.1,20.1c11.1,0,20.1-9,20.1-20.1H2.3z"/>
	<path fill="#ACB3BA" d="M42.8,22.4H2c-0.8,0-1.5,0.7-1.5,1.5v0.3c0,0.8,0.7,1.5,1.5,1.5h40.7c0.8,0,1.5-0.7,1.5-1.5V24
		C44.3,23.1,43.6,22.4,42.8,22.4z"/>
</g>
</svg>
