<?xml version="1.0" encoding="utf-8"?>
<!-- Generator: Adobe Illustrator 18.0.0, SVG Export Plug-In . SVG Version: 6.00 Build 0)  -->
<!DOCTYPE svg PUBLIC "-//W3C//DTD SVG 1.1//EN" "http://www.w3.org/Graphics/SVG/1.1/DTD/svg11.dtd">
<svg version="1.1" id="Layer_1" xmlns="http://www.w3.org/2000/svg" xmlns:xlink="http://www.w3.org/1999/xlink" x="0px" y="0px"
	 viewBox="0 0 48 48" enable-background="new 0 0 48 48" xml:space="preserve">
<g>
	<g>
		<g>
			<g>
				<path fill="#F2F2F2" d="M39.5,48c-0.3-1.5-2.8-2.6-5.8-2.6s-5.5,1.1-5.8,2.6H39.5z"/>
			</g>
			<g>
				<polygon fill="#F2F2F2" points="35.4,46.3 31.9,46.3 33.1,34.8 34.2,34.8 				"/>
			</g>
			<g>
				<path fill="#F2F2F2" d="M26.3,23.8v8.4c0,4,3.3,7.3,7.3,7.3h0c4,0,7.3-3.3,7.3-7.3v-8.4H26.3z"/>
			</g>
		</g>
		<g>
			<path fill="#FF7058" d="M28.2,28.5v3.7c0,3,2.4,5.4,5.4,5.4c3,0,5.4-2.4,5.4-5.4v-3.7H28.2z"/>
		</g>
	</g>
	<path fill="#4CDBC4" d="M17.3,5.4h-5.8c-0.1,5.2-1.5,10.2-3.8,14.9c-0.5,1-0.7,2.1-0.7,3.2V46c0,1.1,0.9,2,2,2h10.8
		c1.1,0,2-0.9,2-2V23.5c0-1.1-0.3-2.2-0.7-3.2C18.8,15.6,17.4,10.5,17.3,5.4z"/>
	<g>
		<path fill="#40596B" d="M17.6,8.3V1.2c0-0.6-0.5-1.2-1.2-1.2h-4.1c-0.6,0-1.2,0.5-1.2,1.2v7.2H17.6z"/>
	</g>
	<g>
		<path fill="#334A5E" d="M10.8,2.3v2.8c0,0.2,0.2,0.4,0.4,0.4h6.4c0.2,0,0.4-0.2,0.4-0.4V2.3c0-0.2-0.2-0.4-0.4-0.4h-6.4
			C11,1.9,10.8,2.1,10.8,2.3z"/>
	</g>
	<g>
		<path fill="#F2F2F2" d="M21.8,38C16.9,39.3,12,39.3,7,38V27.4c4.9-1.3,9.8-1.3,14.8,0V38z"/>
	</g>
</g>
</svg>
