<?xml version="1.0" encoding="utf-8"?>
<!-- Generator: Adobe Illustrator 18.0.0, SVG Export Plug-In . SVG Version: 6.00 Build 0)  -->
<!DOCTYPE svg PUBLIC "-//W3C//DTD SVG 1.1//EN" "http://www.w3.org/Graphics/SVG/1.1/DTD/svg11.dtd">
<svg version="1.1" id="Layer_1" xmlns="http://www.w3.org/2000/svg" xmlns:xlink="http://www.w3.org/1999/xlink" x="0px" y="0px"
	 viewBox="0 0 48 48" enable-background="new 0 0 48 48" xml:space="preserve">
<g>
	<g>
		<g>
			<g>
				<ellipse fill="#66C6B9" cx="24" cy="18.7" rx="24" ry="8.7"/>
			</g>
		</g>
		<g>
			<path fill="#46B29D" d="M48,18.7v6.9c0,4.8-10.8,8.7-24,8.7c-13.3,0-24-3.9-24-8.7v-6.9c0,4.8,10.7,8.7,24,8.7
				C37.2,27.4,48,23.5,48,18.7z"/>
		</g>
		<g>
			<path fill="#E8EAE9" d="M48,25.5v6.9c0,4.8-10.8,8.7-24,8.7c-13.3,0-24-3.9-24-8.7v-6.9c0,4.8,10.7,8.7,24,8.7
				C37.2,34.2,48,30.3,48,25.5z"/>
		</g>
		<g>
			<path fill="#46B29D" d="M48,32.4v6.9c0,4.8-10.8,8.7-24,8.7c-13.3,0-24-3.9-24-8.7v-6.9c0,4.8,10.7,8.7,24,8.7
				C37.2,41.1,48,37.2,48,32.4z"/>
		</g>
		<g>
			<g>
				<g>
					<path fill="#46B29D" d="M38.9,16.7c-1.1-0.4-2.8-0.4-4.3-0.1c-0.2,0-0.5,0.1-0.8,0.1c-0.3,0-0.6,0-0.9-0.1
						c-1.4-0.3-3.1-0.3-4.3,0.1c-1.4,0.5-2.6,1-2.6,1.8c0,1.5,3.7,3,7.8,3c4.1,0,7.3-1.4,7.3-2.9C41.1,17.8,40.3,17.1,38.9,16.7z"/>
				</g>
			</g>
			<g>
				<g>
					<g>
						<path fill="#415A6B" d="M33.4,9.2C33.4,9.2,33.4,9.2,33.4,9.2C33.1,9.2,33,9,33,8.8c0-0.1,0.4-6.4,7.2-8.8
							c0.2-0.1,0.5,0,0.5,0.2c0.1,0.2,0,0.4-0.2,0.5c-6.2,2.2-6.6,8.1-6.7,8.1C33.8,9.1,33.6,9.2,33.4,9.2z"/>
					</g>
				</g>
				<g>
					<g>
						<path fill="#F3705A" d="M38.6,8.2c-1.1-1-2.8-1-4.3-0.4C34,7.9,33.8,8,33.5,8c-0.3,0-0.6-0.1-0.9-0.2
							c-1.4-0.7-3.1-0.7-4.3,0.3C26.9,9.3,26,11.1,26,13c0,3.7,3.3,6.7,7.4,6.7c4.1,0,7.4-3,7.4-6.7C40.8,11.1,39.9,9.4,38.6,8.2z"
							/>
					</g>
				</g>
				<g>
					<g>
						<path fill="#F05540" d="M38.2,18.1c-1.3,1-3,1.6-4.8,1.6c-4.1,0-7.4-3-7.4-6.7c0-1.5,0.5-2.9,1.4-4c-0.2,0.6-0.3,1.3-0.3,2
							c0,4.2,3.7,7.5,8.2,7.5C36.4,18.5,37.3,18.4,38.2,18.1z"/>
					</g>
				</g>
				<g>
					<g>
						<path fill="#FFFFFF" d="M39,11.2c0.4,1,0.3,2-0.3,2.2c-0.6,0.2-1.5-0.4-1.9-1.4c-0.4-1-0.3-2,0.3-2.2
							C37.7,9.6,38.5,10.2,39,11.2z"/>
					</g>
				</g>
			</g>
		</g>
		<g>
			<g>
				<g>
					<path fill="#46B29D" d="M17.4,18.7c-0.9-0.3-2.3-0.3-3.4-0.1c-0.2,0-0.4,0-0.7,0c-0.3,0-0.5,0-0.7-0.1
						c-1.1-0.2-2.5-0.2-3.4,0.1C8.1,19,7.1,19.4,7.1,20c0,1.1,3,2.2,6.2,2.2c3.3,0,5.8-1,5.8-2.1C19.2,19.5,18.5,19.1,17.4,18.7z"/>
				</g>
			</g>
			<g>
				<g>
					<g>
						<path fill="#415A6B" d="M13,12.4C13,12.4,13,12.4,13,12.4c-0.2,0-0.3-0.2-0.3-0.3c0-0.1,0.4-5.2,5.8-7c0.2-0.1,0.4,0,0.4,0.2
							c0.1,0.2,0,0.3-0.2,0.4c-5,1.7-5.3,6.5-5.3,6.5C13.3,12.3,13.2,12.4,13,12.4z"/>
					</g>
				</g>
				<g>
					<g>
						<path fill="#F3705A" d="M17.1,11.6c-0.9-0.8-2.3-0.8-3.4-0.3c-0.2,0.1-0.4,0.1-0.7,0.1c-0.3,0-0.5-0.1-0.7-0.1
							c-1.1-0.5-2.5-0.5-3.4,0.3c-1.1,1-1.8,2.4-1.8,3.9c0,3,2.6,5.4,5.9,5.4c3.3,0,5.9-2.4,5.9-5.4C18.9,13.9,18.2,12.6,17.1,11.6z
							"/>
					</g>
				</g>
				<g>
					<g>
						<path fill="#F05540" d="M16.8,19.5c-1,0.8-2.4,1.3-3.9,1.3c-3.3,0-5.9-2.4-5.9-5.4c0-1.2,0.4-2.3,1.2-3.2
							c-0.2,0.5-0.3,1-0.3,1.6c0,3.3,2.9,6,6.6,6C15.4,19.9,16.1,19.8,16.8,19.5z"/>
					</g>
				</g>
				<g>
					<g>
						<path fill="#FFFFFF" d="M17.5,14.1c0.3,0.8,0.2,1.6-0.3,1.8c-0.5,0.2-1.2-0.3-1.5-1.1c-0.3-0.8-0.2-1.6,0.3-1.8
							C16.4,12.8,17.1,13.3,17.5,14.1z"/>
					</g>
				</g>
			</g>
		</g>
	</g>
</g>
</svg>
