<?xml version="1.0" encoding="utf-8"?>
<!-- Generator: Adobe Illustrator 16.0.0, SVG Export Plug-In . SVG Version: 6.00 Build 0)  -->
<!DOCTYPE svg PUBLIC "-//W3C//DTD SVG 1.1//EN" "http://www.w3.org/Graphics/SVG/1.1/DTD/svg11.dtd">
<svg version="1.1" id="Layer_1" xmlns="http://www.w3.org/2000/svg" xmlns:xlink="http://www.w3.org/1999/xlink" x="0px" y="0px"
	 width="48px" height="48px" viewBox="0 0 48 48" enable-background="new 0 0 48 48" xml:space="preserve">
<g>
	<path fill="#FF7058" d="M48,24c0,13.254-10.745,24-24,24S0,37.254,0,24C0,10.745,10.745,0,24,0S48,10.745,48,24"/>
	<path fill="#FFFFFF" d="M24,44C12.972,44,4,35.028,4,24S12.972,4,24,4s20,8.972,20,20S35.028,44,24,44"/>
	<path fill="#4CDBC4" d="M28.013,19.987L28.013,19.987c-0.254-0.254-0.665-0.254-0.919,0l-12.06,12.058
		c-0.252,0.254-0.252,0.666,0.002,0.92c0.254,0.253,0.664,0.253,0.918,0l12.059-12.06C28.267,20.651,28.267,20.241,28.013,19.987"/>
	<path fill="#40596B" d="M25.771,8.042c0,0.979-0.793,1.771-1.771,1.771c-0.977,0-1.771-0.793-1.771-1.771
		c0-0.978,0.794-1.771,1.771-1.771C24.978,6.271,25.771,7.063,25.771,8.042"/>
	<path fill="#40596B" d="M25.771,39.958c0,0.979-0.793,1.771-1.771,1.771c-0.977,0-1.771-0.793-1.771-1.771
		c0-0.978,0.794-1.771,1.771-1.771C24.978,38.187,25.771,38.98,25.771,39.958"/>
	<path fill="#40596B" d="M39.958,25.77c-0.979,0-1.771-0.793-1.771-1.771s0.793-1.771,1.771-1.771s1.771,0.793,1.771,1.771
		S40.937,25.77,39.958,25.77"/>
	<path fill="#40596B" d="M8.042,25.77c-0.979,0-1.771-0.793-1.771-1.771s0.793-1.771,1.771-1.771c0.978,0,1.771,0.793,1.771,1.771
		S9.02,25.77,8.042,25.77"/>
	<path fill="#FFD15C" d="M30.153,28.74l-4.861-4.86c-0.188-0.188-0.293-0.442-0.293-0.707v-9.727c0-0.552-0.447-1-1-1
		c-0.551,0-1,0.448-1,1V24c0,0.265,0.105,0.519,0.293,0.707l5.447,5.446c0.391,0.392,1.023,0.392,1.414,0
		C30.544,29.764,30.544,29.131,30.153,28.74"/>
	<path fill="#4CDBC4" d="M26.907,24c0,1.606-1.301,2.908-2.907,2.908S21.092,25.606,21.092,24s1.302-2.907,2.908-2.907
		S26.907,22.393,26.907,24"/>
	<path fill="#3DC9AE" d="M25.388,24c0,0.767-0.621,1.388-1.389,1.388c-0.766,0-1.387-0.621-1.387-1.388
		c0-0.766,0.621-1.388,1.387-1.388C24.767,22.612,25.388,23.234,25.388,24"/>
</g>
</svg>
