<?xml version="1.0" encoding="utf-8"?>
<!-- Generator: Adobe Illustrator 18.0.0, SVG Export Plug-In . SVG Version: 6.00 Build 0)  -->
<!DOCTYPE svg PUBLIC "-//W3C//DTD SVG 1.1//EN" "http://www.w3.org/Graphics/SVG/1.1/DTD/svg11.dtd">
<svg version="1.1" id="Layer_1" xmlns="http://www.w3.org/2000/svg" xmlns:xlink="http://www.w3.org/1999/xlink" x="0px" y="0px"
	 viewBox="0 0 48 48" enable-background="new 0 0 48 48" xml:space="preserve">
<g>
	<g>
		<path fill="#E8EAE9" d="M24,0c-1.5,0-2.7,1.2-2.7,2.7v40.8h5.4V2.7C26.7,1.2,25.5,0,24,0z"/>
		<path fill="#435B6C" d="M24,41.3c-6,0-11.4,2.6-15.2,6.7h30.4C35.4,43.9,30,41.3,24,41.3z"/>
		<polygon fill="#FFD15D" points="41.2,5.5 19.4,6.8 19.4,17 41.2,18.3 48,11.9 		"/>
		<polygon fill="#8BD7F8" points="6.8,22.3 0,28.7 0,28.7 6.8,35.1 28.6,33.8 28.6,23.6 		"/>
		<circle fill="#435B6C" cx="24" cy="11.9" r="1"/>
		<circle fill="#435B6C" cx="24" cy="28.7" r="1"/>
	</g>
</g>
</svg>
