<?xml version="1.0" encoding="utf-8"?>
<!-- Generator: Adobe Illustrator 18.0.0, SVG Export Plug-In . SVG Version: 6.00 Build 0)  -->
<!DOCTYPE svg PUBLIC "-//W3C//DTD SVG 1.1//EN" "http://www.w3.org/Graphics/SVG/1.1/DTD/svg11.dtd">
<svg version="1.1" id="Layer_1" xmlns="http://www.w3.org/2000/svg" xmlns:xlink="http://www.w3.org/1999/xlink" x="0px" y="0px"
	 viewBox="0 0 48 48" enable-background="new 0 0 48 48" xml:space="preserve">
<g>
	<g>
		<g>
			<g>
				<g>
					<g>
						<path fill="#F3F3F3" d="M44.9,11.2v30.9c0,1.5-1.3,2.8-2.8,2.8H2.8c-1.6,0-2.8-1.3-2.8-2.8V11.2H44.9z"/>
						<g>
							<rect x="3.7" y="14.9" fill="#CED6E0" width="37.4" height="2.6"/>
						</g>
						<g>
							<rect x="3.7" y="21.1" fill="#CED6E0" width="37.4" height="2.6"/>
						</g>
						<g>
							<rect x="3.7" y="27.3" fill="#CED6E0" width="37.4" height="2.6"/>
						</g>
						<g>
							<rect x="3.7" y="33.5" fill="#CED6E0" width="11.9" height="2.6"/>
						</g>
					</g>
				</g>
				<g>
					<g>
						<path fill="#55C0EB" d="M44.9,11.2V2.8c0-1.6-1.3-2.8-2.8-2.8H2.8C1.3,0,0,1.3,0,2.8v8.4H44.9z"/>
					</g>
				</g>
				<g>
					<circle fill="#415A6B" cx="5.9" cy="5.6" r="2"/>
					<circle fill="#F3705A" cx="12.3" cy="5.6" r="2"/>
					<circle fill="#FFD15C" cx="18.7" cy="5.6" r="2"/>
				</g>
			</g>
		</g>
		<g>
			<g>
				<g>
					
						<rect x="32.4" y="32.4" transform="matrix(0.7071 -0.7071 0.7071 0.7071 -14.404 34.7742)" fill="#344A5E" width="4.8" height="4.8"/>
				</g>
			</g>
			<g>
				<g>
					<path fill="#415A6B" d="M34.6,34.6c-4.7,4.7-12.3,4.7-16.9,0C13,30,13,22.4,17.7,17.7c4.7-4.7,12.3-4.7,16.9,0
						C39.3,22.4,39.3,30,34.6,34.6z M20,20c-3.4,3.4-3.4,8.9,0,12.3c3.4,3.4,8.9,3.4,12.3,0c3.4-3.4,3.4-8.9,0-12.3
						C28.9,16.6,23.4,16.6,20,20z"/>
				</g>
			</g>
			<g>
				<g>
					<g>
						<g>
							<path fill="#F3705A" d="M40.7,34.7l-6,6l6,6c1.7,1.7,4.4,1.7,6,0l0,0c1.7-1.7,1.7-4.4,0-6L40.7,34.7z"/>
						</g>
					</g>
				</g>
				<g>
					<g>
						<g>
							
								<rect x="37.5" y="33.9" transform="matrix(0.7071 0.7071 -0.7071 0.7071 38.1934 -15.8202)" fill="#F05540" width="1.4" height="8.5"/>
						</g>
					</g>
				</g>
				<g>
					<g>
						<g>
							<path fill="#F3705A" d="M41,35l-6,6c-0.5,0.5-1.4,0.5-1.9,0c-0.5-0.5-0.5-1.4,0-1.9l6-6c0.5-0.5,1.4-0.5,1.9,0
								C41.5,33.6,41.5,34.5,41,35z"/>
						</g>
					</g>
				</g>
			</g>
		</g>
	</g>
</g>
</svg>
