<?xml version="1.0" encoding="utf-8"?>
<!-- Generator: Adobe Illustrator 18.0.0, SVG Export Plug-In . SVG Version: 6.00 Build 0)  -->
<!DOCTYPE svg PUBLIC "-//W3C//DTD SVG 1.1//EN" "http://www.w3.org/Graphics/SVG/1.1/DTD/svg11.dtd">
<svg version="1.1" id="Layer_1" xmlns="http://www.w3.org/2000/svg" xmlns:xlink="http://www.w3.org/1999/xlink" x="0px" y="0px"
	 viewBox="0 0 512 512" enable-background="new 0 0 512 512" xml:space="preserve">
<g>
	<path fill="#4CDBC4" d="M70,2c-11.7,0-21.2,9.5-21.2,21.2v465.7c0,11.7,9.5,21.2,21.2,21.2h110V2H70z"/>
	<path fill="#F2F2F2" d="M488.8,2H180v508h308.8c11.7,0,21.2-9.5,21.2-21.2V23.2C510,11.5,500.5,2,488.8,2z"/>
	<g>
		<circle fill="#FFFFFF" cx="94.1" cy="119.3" r="29.4"/>
		<circle fill="#FFFFFF" cx="94.1" cy="256" r="29.4"/>
		<circle fill="#FFFFFF" cx="94.1" cy="392.7" r="29.4"/>
	</g>
	<g>
		<path fill="#40596B" d="M22.2,139.6h65.5c11.2,0,20.2-9.1,20.2-20.2s-9.1-20.2-20.2-20.2H22.2C11.1,99.1,2,108.2,2,119.3
			S11.1,139.6,22.2,139.6z"/>
		<path fill="#40596B" d="M87.7,235.8H22.2C11.1,235.8,2,244.8,2,256c0,11.2,9.1,20.2,20.2,20.2h65.5c11.2,0,20.2-9.1,20.2-20.2
			C108,244.8,98.9,235.8,87.7,235.8z"/>
		<path fill="#40596B" d="M87.7,372.4H22.2c-11.2,0-20.2,9.1-20.2,20.2c0,11.2,9.1,20.2,20.2,20.2h65.5c11.2,0,20.2-9.1,20.2-20.2
			C108,381.5,98.9,372.4,87.7,372.4z"/>
	</g>
	<circle fill="#ACB3BA" cx="345" cy="188" r="58.6"/>
	<path fill="#ACB3BA" d="M385.8,254c-11.9,7.4-25.8,11.8-40.7,11.8s-28.9-4.5-40.7-11.8c-44.3,16.5-76,59.2-76,109.3h233.4
		C461.7,313.2,430.1,270.5,385.8,254z"/>
</g>
</svg>
