<?xml version="1.0" encoding="utf-8"?>
<!-- Generator: Adobe Illustrator 18.0.0, SVG Export Plug-In . SVG Version: 6.00 Build 0)  -->
<!DOCTYPE svg PUBLIC "-//W3C//DTD SVG 1.1//EN" "http://www.w3.org/Graphics/SVG/1.1/DTD/svg11.dtd">
<svg version="1.1" id="Layer_1" xmlns="http://www.w3.org/2000/svg" xmlns:xlink="http://www.w3.org/1999/xlink" x="0px" y="0px"
	 viewBox="0 0 48 48" enable-background="new 0 0 48 48" xml:space="preserve">
<g>
	<path fill="#40596B" d="M36.9,33.7V14.2c0-7-5.8-12.8-12.9-12.8c-7.1,0-12.9,5.7-12.9,12.8v19.6H36.9z"/>
	<g>
		<path fill="#CDD6E0" d="M37.9,16.5h-2.1v-2.6c0-6.5-5.3-11.8-11.9-11.8S12.1,7.3,12.1,13.8v2.6h-2.1v-2.6C10.1,6.2,16.3,0,24,0
			c7.7,0,13.9,6.2,13.9,13.8V16.5z"/>
	</g>
	<polygon fill="#F8B64C" points="24,48 24,22.9 28.6,26.6 30.4,29.1 	"/>
	<path fill="#FF7058" d="M46.2,40.3c-0.5-5-4.8-6.7-4.8-6.7c-6.7-3-10.9-4.5-10.9-4.5L24,48h23.6L46.2,40.3z"/>
	<path fill="#F2F2F2" d="M30.4,29.1l5.4,7.2l-4.4-0.6L24,48C26.1,34,30.4,29.1,30.4,29.1z"/>
	<polygon fill="#F8B64C" points="24,48 24,22.9 19.4,26.6 17.6,29.1 	"/>
	<path fill="#FF7058" d="M17.6,29.1c0,0-4.2,1.5-10.9,4.5c0,0-4.3,1.7-4.8,6.7L0.4,48H24L17.6,29.1z"/>
	<path fill="#F2F2F2" d="M17.6,29.1l-5.4,7.2l4.4-0.6L24,48C21.9,34,17.6,29.1,17.6,29.1z"/>
	<path fill="#FFD15C" d="M24,3.4L24,3.4c-6,0-10.9,4.8-10.9,10.8v5.5c0,5.9,4.9,10.8,10.9,10.8h0c6,0,10.9-4.8,10.9-10.8v-5.5
		C34.9,8.2,30,3.4,24,3.4z"/>
	<g>
		<path fill="#CDD6E0" d="M33,26.6h-7.2v-2H33c1.6,0,2.8-1.3,2.8-2.8v-5.5h2.1v5.5C37.9,24.4,35.7,26.6,33,26.6z"/>
	</g>
	<path fill="#40596B" d="M26.7,27.5h-2.9c-0.8,0-1.5-0.7-1.5-1.5v-1c0-0.8,0.7-1.5,1.5-1.5h2.9c0.8,0,1.5,0.7,1.5,1.5v1
		C28.2,26.9,27.5,27.5,26.7,27.5z"/>
	<path fill="#40596B" d="M13.1,13c9.7,0.8,15-0.4,20.7-5.1c-1.4,1.2-1.3-2.9-3-3.5c-2.5,0.1-2.5-0.7-4.7-1.5c-2.5,0-4,0.9-6.6,0.4
		C17.3,4.7,17,5.2,15.1,7C13.8,8.3,13.1,13,13.1,13z"/>
	<path fill="#FF7058" d="M13.1,20.7h-0.8c-2.1,0-3.8-1.7-3.8-3.8v-0.2c0-2.1,1.7-3.8,3.8-3.8h0.8V20.7z"/>
	<path fill="#FF7058" d="M34.9,13h0.8c2.1,0,3.8,1.7,3.8,3.8v0.2c0,2.1-1.7,3.8-3.8,3.8h-0.8V13z"/>
	<polygon fill="#F1543F" points="24,48 32.3,37.4 35.8,36.4 31.4,35.8 	"/>
	<polygon fill="#F1543F" points="24,48 15.7,37.4 12.2,36.4 16.6,35.8 	"/>
</g>
</svg>
