<?xml version="1.0" encoding="utf-8"?>
<!-- Generator: Adobe Illustrator 18.0.0, SVG Export Plug-In . SVG Version: 6.00 Build 0)  -->
<!DOCTYPE svg PUBLIC "-//W3C//DTD SVG 1.1//EN" "http://www.w3.org/Graphics/SVG/1.1/DTD/svg11.dtd">
<svg version="1.1" id="Layer_1" xmlns="http://www.w3.org/2000/svg" xmlns:xlink="http://www.w3.org/1999/xlink" x="0px" y="0px"
	 viewBox="0 0 48 48" enable-background="new 0 0 48 48" xml:space="preserve">
<g>
	<polygon fill="#CDD6E0" points="48,10.8 42.5,17.9 24,17.9 24,3.8 42.5,3.8 	"/>
	<polygon fill="#40596B" points="24,17.9 24,32 5.5,32 0,25 5.5,17.9 	"/>
	<path fill="#FF7058" d="M32.7,43.2h-17c-2.6,0-4.8,2.1-4.8,4.8v0h26.6v0C37.4,45.4,35.3,43.2,32.7,43.2z"/>
	<rect x="24.7" y="3.8" fill="#BDCCDB" width="4" height="14.1"/>
	<rect x="19.6" y="17.9" fill="#334A5E" width="3.6" height="14.1"/>
	<path fill="#FFD15C" d="M27.2,43.2h-6.1V3.1c0-1.7,1.4-3.1,3.1-3.1h0c1.7,0,3.1,1.4,3.1,3.1V43.2z"/>
	<circle fill="#F8B64C" cx="24.1" cy="10.8" r="1.9"/>
	<circle fill="#F8B64C" cx="24.1" cy="25" r="1.9"/>
	<path fill="#F7AC41" d="M24.1,9.5c1,0,1.7,0.7,1.9,1.6c0-0.1,0-0.2,0-0.3c0-1.1-0.9-1.9-1.9-1.9s-1.9,0.9-1.9,1.9
		c0,0.1,0,0.2,0,0.3C22.4,10.2,23.2,9.5,24.1,9.5z"/>
	<path fill="#F7AC41" d="M24.1,23.6c1,0,1.7,0.7,1.9,1.6c0-0.1,0-0.2,0-0.3c0-1.1-0.9-1.9-1.9-1.9s-1.9,0.9-1.9,1.9
		c0,0.1,0,0.2,0,0.3C22.4,24.3,23.2,23.6,24.1,23.6z"/>
</g>
</svg>
