<?xml version="1.0" encoding="utf-8"?>
<!-- Generator: Adobe Illustrator 18.0.0, SVG Export Plug-In . SVG Version: 6.00 Build 0)  -->
<!DOCTYPE svg PUBLIC "-//W3C//DTD SVG 1.1//EN" "http://www.w3.org/Graphics/SVG/1.1/DTD/svg11.dtd">
<svg version="1.1" id="Layer_1" xmlns="http://www.w3.org/2000/svg" xmlns:xlink="http://www.w3.org/1999/xlink" x="0px" y="0px"
	 viewBox="0 0 48 48" enable-background="new 0 0 48 48" xml:space="preserve">
<g>
	<g>
		<g>
			<rect y="41.4" fill="#E8EAE9" width="48" height="6.6"/>
			<path fill="#F3F3F3" d="M39.8,36.4H8.2c-2.7,0-4.9,2.2-4.9,4.9h41.5C44.7,38.7,42.5,36.4,39.8,36.4z"/>
		</g>
		<g>
			<path fill="#E8EAE9" d="M35.1,6.8C33,2.8,28.8,0,24,0c-4.9,0-9,2.8-11.1,6.8h0c-2.9,0-5.3,2.4-5.3,5.3v24.3h32.7V12.1
				C40.3,9.2,38,6.8,35.1,6.8z"/>
			<g>
				<path fill="#435B6C" d="M19,22.6c1.2-0.4,1.8-1.4,1.8-2.9c0-1.1-0.3-1.9-0.9-2.4c-0.6-0.5-1.7-0.7-3.2-0.7h-3.6V26h2.1v-3h1.5
					l2.1,3h2.6L19,22.6z M18.2,20.8c-0.3,0.2-0.8,0.4-1.5,0.4h-1.5v-2.8h1.6c0.7,0,1.2,0.1,1.4,0.3c0.3,0.2,0.4,0.5,0.4,1.1
					C18.6,20.2,18.5,20.5,18.2,20.8z"/>
				<rect x="22.9" y="16.5" fill="#435B6C" width="2.1" height="9.5"/>
				<path fill="#435B6C" d="M33.9,17.3c-0.7-0.6-1.7-0.8-3.2-0.8h-3.3V26h2.1v-2.6h1.3c1.4,0,2.4-0.3,3.1-0.8c0.7-0.5,1-1.4,1-2.6
					C34.9,18.8,34.6,17.9,33.9,17.3z M32.4,21.1c-0.3,0.3-0.7,0.4-1.4,0.4h-1.4v-3.2h1.2c0.7,0,1.2,0.1,1.5,0.3
					c0.3,0.2,0.5,0.6,0.5,1.2C32.7,20.4,32.6,20.8,32.4,21.1z"/>
			</g>
		</g>
	</g>
</g>
</svg>
