<?xml version="1.0" encoding="utf-8"?>
<!-- Generator: Adobe Illustrator 18.0.0, SVG Export Plug-In . SVG Version: 6.00 Build 0)  -->
<!DOCTYPE svg PUBLIC "-//W3C//DTD SVG 1.1//EN" "http://www.w3.org/Graphics/SVG/1.1/DTD/svg11.dtd">
<svg version="1.1" id="Layer_1" xmlns="http://www.w3.org/2000/svg" xmlns:xlink="http://www.w3.org/1999/xlink" x="0px" y="0px"
	 viewBox="0 0 48 48" enable-background="new 0 0 48 48" xml:space="preserve">
<g>
	<g>
		<g>
			<g>
				<g>
					<g>
						<ellipse fill="#344A5E" cx="21.3" cy="7.1" rx="3.8" ry="6.4"/>
					</g>
				</g>
				<g>
					<g>
						<ellipse fill="#344A5E" cx="24.3" cy="7.5" rx="6" ry="7.5"/>
					</g>
				</g>
			</g>
			<g>
				<g>
					<g>
						<path fill="#344A5E" d="M36.4,25.9l-0.7-4.6c-0.3-1.7-1.5-3-3.1-3.4c-1.9-0.5-3.7-0.7-6-0.9L24,20.5L21.5,17
							c-1.8,0.1-4.1,0.6-5.9,1c-1.7,0.4-3,1.7-3.2,3.4l-0.7,4.5H36.4z"/>
					</g>
				</g>
				<g>
					<g>
						<polygon fill="#FFFFFF" points="26.3,25.9 26.5,19.7 21.4,19.7 21.6,25.9 						"/>
					</g>
				</g>
				<g>
					<g>
						<g>
							<path fill="#F3705A" d="M24.8,22.2l0.8-0.8c0,0-1.1-1.7-1.7-1.7c-0.6,0-1.7,1.7-1.7,1.7l0.8,0.8H24.8z"/>
						</g>
					</g>
					<g>
						<g>
							<polygon fill="#F3705A" points="25.4,25.9 24.8,22.2 23.1,22.2 22.5,25.9 							"/>
						</g>
					</g>
				</g>
				<g>
					<g>
						<g>
							<path fill="#F3F3F3" d="M26.9,15.7c-0.9,1.9-1.8,2.9-2.9,4c1,0.4,1.8,1.4,2.3,2.3l1.7-4.4L26.9,15.7z"/>
						</g>
					</g>
					<g>
						<g>
							<path fill="#F3F3F3" d="M21.1,15.7c0.9,1.9,1.8,2.9,2.9,4c-1,0.4-1.8,1.4-2.3,2.3L20,17.6L21.1,15.7z"/>
						</g>
					</g>
				</g>
				<g>
					<g>
						<g>
							<polygon fill="#415A6B" points="27.7,25.9 29.9,23.2 27.8,21.3 31.1,20.5 27.4,16.6 25.1,25.9 							"/>
						</g>
					</g>
					<g>
						<g>
							<polygon fill="#415A6B" points="18.1,23.2 20.3,25.9 22.9,25.9 20.6,16.6 16.9,20.5 20.2,21.3 							"/>
						</g>
					</g>
				</g>
				<g>
					<g>
						<g>
							<path fill="#F7B64C" d="M27,14.5l0,1.2c-0.9,1.9-1.8,2.9-2.9,4c-1.1-1.1-2-2.1-2.9-4l0-1.2c0.8-2,2-3.3,2.9-4.4
								C25,11.2,26.1,12.5,27,14.5z"/>
						</g>
					</g>
				</g>
				<g>
					<g>
						<path fill="#FFD15C" d="M28.8,6c-0.4,0.1-0.7,0.1-1.2,0.1c-2.5,0-4.1-1.3-4.8-3.1C22.3,4.7,21,6,19,6.4
							c-0.3,0.8-0.4,1.6-0.5,2.6c-0.1,4.1,2.3,7.5,5.4,7.5c3.1,0,5.6-3.5,5.4-7.5C29.4,7.9,29.2,6.9,28.8,6z"/>
					</g>
				</g>
			</g>
			<g>
				<g>
					<g>
						
							<ellipse transform="matrix(0.9947 0.1029 -0.1029 0.9947 1.2321 -2.98)" fill="#FFD15C" cx="29.5" cy="10.5" rx="1.2" ry="2"/>
					</g>
				</g>
				<g>
					<g>
						
							<ellipse transform="matrix(-0.9947 0.1029 -0.1029 -0.9947 37.986 18.9427)" fill="#FFD15C" cx="18.5" cy="10.5" rx="1.2" ry="2"/>
					</g>
				</g>
			</g>
		</g>
		<g>
			<g>
				<g>
					<g>
						<g>
							<g>
								<ellipse fill="#344A5E" cx="8" cy="32.5" rx="3.1" ry="5.3"/>
							</g>
						</g>
						<g>
							<g>
								<ellipse fill="#344A5E" cx="10.4" cy="32.8" rx="5" ry="6.2"/>
							</g>
						</g>
					</g>
					<g>
						<g>
							<g>
								<path fill="#344A5E" d="M0,48h20.4v-3.3c0-1.6-1.1-3-2.6-3.3c-5-1.1-10.1-1.1-15.1,0C1.1,41.8,0,43.1,0,44.7V48z"/>
							</g>
						</g>
						<g>
							<g>
								<polygon fill="#FFFFFF" points="12.1,48 12.3,42.9 8,42.9 8.2,48 								"/>
							</g>
						</g>
						<g>
							<g>
								<g>
									<path fill="#F3705A" d="M10.9,44.9l0.7-0.7c0,0-0.9-1.4-1.4-1.4c-0.5,0-1.4,1.4-1.4,1.4l0.7,0.7H10.9z"/>
								</g>
							</g>
							<g>
								<g>
									<polygon fill="#F3705A" points="11.3,48 10.9,44.9 9.4,44.9 9,48 									"/>
								</g>
							</g>
						</g>
						<g>
							<g>
								<g>
									<polygon fill="#F3F3F3" points="12.6,39.6 10.2,43 12.1,44.8 13.5,41.2 									"/>
								</g>
							</g>
							<g>
								<g>
									<polygon fill="#F3F3F3" points="7.8,39.6 10.2,43 8.3,44.8 6.9,41.2 									"/>
								</g>
							</g>
						</g>
						<g>
							<g>
								<g>
									<path fill="#F7B64C" d="M12.6,38.6l0,1L10.2,43l-2.4-3.3l0-1c0.7-1.7,1.6-2.8,2.4-3.7C11,35.9,12,36.9,12.6,38.6z"/>
								</g>
							</g>
						</g>
					</g>
					<g>
						<g>
							<g>
								
									<ellipse transform="matrix(0.9947 0.1029 -0.1029 0.9947 3.7097 -1.3286)" fill="#FFD15C" cx="14.7" cy="35.3" rx="1" ry="1.6"/>
							</g>
						</g>
						<g>
							<g>
								
									<ellipse transform="matrix(-0.9947 0.1029 -0.1029 -0.9947 14.9197 69.7807)" fill="#FFD15C" cx="5.7" cy="35.3" rx="1" ry="1.6"/>
							</g>
						</g>
					</g>
				</g>
				<g>
					<g>
						<path fill="#FFD15C" d="M9.8,31.5c-1.3,0-2.4-0.3-3.2-0.9c-0.6,1-1,2.3-1,3.7c0,3.3,2,6,4.5,6c2.5,0,4.5-2.7,4.5-6
							c0-1.6-0.5-3-1.2-4C12.6,31,11.4,31.5,9.8,31.5z"/>
					</g>
				</g>
			</g>
			<g>
				<g>
					<polygon fill="#415A6B" points="13,40.3 16.1,42.2 14,43.3 15.4,44.3 13.2,48 11.1,48 					"/>
				</g>
			</g>
			<g>
				<g>
					<polygon fill="#415A6B" points="7.4,40.3 4.3,42.2 6.4,43.3 5,44.3 7.2,48 9.3,48 					"/>
				</g>
			</g>
		</g>
		<g>
			<g>
				<g>
					<g>
						<g>
							<g>
								<ellipse fill="#344A5E" cx="35.6" cy="32.5" rx="3.1" ry="5.3"/>
							</g>
						</g>
						<g>
							<g>
								<ellipse fill="#344A5E" cx="38.1" cy="32.8" rx="5" ry="6.2"/>
							</g>
						</g>
					</g>
					<g>
						<g>
							<g>
								<path fill="#344A5E" d="M27.6,48H48v-3.3c0-1.6-1.1-3-2.6-3.3c-5-1.1-10.1-1.1-15.1,0c-1.5,0.3-2.6,1.7-2.6,3.3V48z"/>
							</g>
						</g>
						<g>
							<g>
								<polygon fill="#FFFFFF" points="39.7,48 39.9,42.9 35.7,42.9 35.8,48 								"/>
							</g>
						</g>
						<g>
							<g>
								<g>
									<path fill="#F3705A" d="M38.5,44.9l0.7-0.7c0,0-0.9-1.4-1.4-1.4c-0.5,0-1.4,1.4-1.4,1.4l0.7,0.7H38.5z"/>
								</g>
							</g>
							<g>
								<g>
									<polygon fill="#F3705A" points="38.9,48 38.5,44.9 37,44.9 36.6,48 									"/>
								</g>
							</g>
						</g>
						<g>
							<g>
								<g>
									<polygon fill="#F3F3F3" points="40.2,39.6 37.8,43 39.7,44.8 41.1,41.2 									"/>
								</g>
							</g>
							<g>
								<g>
									<polygon fill="#F3F3F3" points="35.4,39.6 37.8,43 36,44.8 34.5,41.2 									"/>
								</g>
							</g>
						</g>
						<g>
							<g>
								<g>
									<path fill="#F7B64C" d="M40.2,38.6l0,1L37.8,43l-2.4-3.3l0-1c0.7-1.7,1.6-2.8,2.4-3.7C38.6,35.9,39.6,36.9,40.2,38.6z"/>
								</g>
							</g>
						</g>
					</g>
					<g>
						<g>
							<g>
								
									<ellipse transform="matrix(0.9947 0.1029 -0.1029 0.9947 3.8565 -4.1719)" fill="#FFD15C" cx="42.3" cy="35.3" rx="1" ry="1.6"/>
							</g>
						</g>
						<g>
							<g>
								
									<ellipse transform="matrix(-0.9947 0.1029 -0.1029 -0.9947 70.0114 66.9374)" fill="#FFD15C" cx="33.3" cy="35.3" rx="1" ry="1.6"/>
							</g>
						</g>
					</g>
				</g>
				<g>
					<g>
						<path fill="#FFD15C" d="M37.5,31.5c-1.3,0-2.4-0.3-3.2-0.9c-0.6,1-1,2.3-1,3.7c0,3.3,2,6,4.5,6c2.5,0,4.5-2.7,4.5-6
							c0-1.6-0.5-3-1.2-4C40.2,31,39,31.5,37.5,31.5z"/>
					</g>
				</g>
			</g>
			<g>
				<g>
					<polygon fill="#415A6B" points="40.6,40.3 43.7,42.2 41.6,43.3 43,44.3 40.8,48 38.7,48 					"/>
				</g>
			</g>
			<g>
				<g>
					<polygon fill="#415A6B" points="35,40.3 31.9,42.2 34,43.3 32.6,44.3 34.8,48 36.9,48 					"/>
				</g>
			</g>
		</g>
		<g>
			<g>
				<polygon fill="#344A5E" points="29,38.5 27.6,39.9 23.9,36.2 20.3,39.9 18.8,38.5 22.9,34.4 22.9,28.5 24.9,28.5 24.9,34.4 				
					"/>
			</g>
		</g>
	</g>
</g>
</svg>
