<?xml version="1.0" encoding="utf-8"?>
<!-- Generator: Adobe Illustrator 18.0.0, SVG Export Plug-In . SVG Version: 6.00 Build 0)  -->
<!DOCTYPE svg PUBLIC "-//W3C//DTD SVG 1.1//EN" "http://www.w3.org/Graphics/SVG/1.1/DTD/svg11.dtd">
<svg version="1.1" id="Layer_1" xmlns="http://www.w3.org/2000/svg" xmlns:xlink="http://www.w3.org/1999/xlink" x="0px" y="0px"
	 viewBox="0 0 48 48" enable-background="new 0 0 48 48" xml:space="preserve">
<g>
	<g>
		<path fill="#F3705A" d="M0,13.8V44c0,1.7,1.3,3,3,3h42c1.7,0,3-1.3,3-3V13.8c0-1.7-1.3-3-3-3H3C1.3,10.8,0,12.1,0,13.8z"/>
		<rect x="4" y="18.8" fill="#FFFFFF" width="40" height="24.2"/>
		<g>
			<g>
				<g>
					<circle fill="#ADB3BA" cx="15.4" cy="26.6" r="3.8"/>
				</g>
				<g>
					<path fill="#ADB3BA" d="M22.9,39H8c0-4.1,3.3-7.5,7.4-7.5C19.6,31.5,22.9,34.9,22.9,39z"/>
				</g>
			</g>
			<g>
				<rect x="26.9" y="22.8" fill="#E8EAE9" width="13.1" height="3.3"/>
				<rect x="26.9" y="29.2" fill="#E8EAE9" width="13.1" height="3.3"/>
				<g>
					<rect x="26.9" y="35.7" fill="#E8EAE9" width="13.1" height="3.3"/>
				</g>
			</g>
		</g>
		<g>
			<path fill="#415A6B" d="M29.1,7.5V6.1C29.1,3.3,26.8,1,24,1c-2.8,0-5.1,2.3-5.1,5.1v1.4c-3.1,1.3-5.5,3.9-6.7,7.2h23.6
				C34.6,11.4,32.2,8.9,29.1,7.5z M24,7.8c-0.9,0-1.6-0.7-1.6-1.6s0.7-1.6,1.6-1.6c0.9,0,1.6,0.7,1.6,1.6S24.9,7.8,24,7.8z"/>
		</g>
	</g>
</g>
</svg>
