<?xml version="1.0" encoding="utf-8"?>
<!-- Generator: Adobe Illustrator 18.0.0, SVG Export Plug-In . SVG Version: 6.00 Build 0)  -->
<!DOCTYPE svg PUBLIC "-//W3C//DTD SVG 1.1//EN" "http://www.w3.org/Graphics/SVG/1.1/DTD/svg11.dtd">
<svg version="1.1" id="Layer_1" xmlns="http://www.w3.org/2000/svg" xmlns:xlink="http://www.w3.org/1999/xlink" x="0px" y="0px"
	 viewBox="0 0 48 48" enable-background="new 0 0 48 48" xml:space="preserve">
<g>
	<g>
		<path fill="#E8EAE9" d="M34.1,0h-31C1.4,0,0,1.4,0,3.1v31c0,1.7,1.4,3.1,3.1,3.1h31c1.7,0,3.1-1.4,3.1-3.1v-31
			C37.2,1.4,35.9,0,34.1,0z"/>
		<path fill="#CED6E0" d="M30.9,18.6c0-4.2-2.1-7.9-5.3-10.1H11.7c-3.2,2.2-5.3,5.9-5.3,10.1c0,4.2,2.1,7.9,5.3,10.1h13.9
			C28.8,26.5,30.9,22.8,30.9,18.6z"/>
		<g>
			<g>
				
					<rect x="10.5" y="14.6" transform="matrix(0.9901 0.1403 -0.1403 0.9901 2.326 -1.7517)" fill="#415A6B" width="6.1" height="2"/>
			</g>
			<g>
				
					<rect x="20.6" y="14.6" transform="matrix(-0.9901 0.1403 -0.1403 -0.9901 49.271 27.7611)" fill="#415A6B" width="6.1" height="2"/>
			</g>
		</g>
		<g>
			<path fill="#415A6B" d="M18.6,21.1c-2,0-3.6,0.9-3.6,2v2h7.1v-2C22.2,22,20.6,21.1,18.6,21.1z"/>
		</g>
	</g>
	<g>
		<g>
			<path fill="#415A6B" d="M41.5,30.2H44l0-7.7c0-0.7-0.6-1.3-1.3-1.3c-0.7,0-1.3,0.6-1.3,1.3"/>
		</g>
		<g>
			<g>
				<g>
					<path fill="#415A6B" d="M34,21.3c-0.7,0-1.3,0.6-1.3,1.3v7.7h2.5l0-7.7C35.2,21.8,34.7,21.3,34,21.3z"/>
				</g>
				<g>
					<path fill="#FFD15C" d="M42.8,21.3c-0.7,0-1.3,0.6-1.3,1.3v2.4H44v-2.4C44,21.8,43.5,21.3,42.8,21.3z"/>
					<path fill="#FFD15C" d="M34,21.3c-0.7,0-1.3,0.6-1.3,1.3v2.4h2.5v-2.4C35.2,21.8,34.7,21.3,34,21.3z"/>
				</g>
			</g>
			<path fill="#8AD7F8" d="M30.4,33.4l1.7,9.9c0.2,1,1.1,1.8,2.1,1.8h8.4c1.1,0,2-0.8,2.1-1.8l1.7-9.9H30.4z"/>
			<polygon fill="#55C0EB" points="46.1,35 46.4,33.4 30.4,33.4 30.7,35 			"/>
			<rect x="35" y="45.2" fill="#55C0EB" width="6.7" height="2.8"/>
			<path fill="#8AD7F8" d="M46.3,30.2l-15.7,0c-1,0-1.7,0.8-1.7,1.7s0.8,1.7,1.7,1.7h15.7c1,0,1.7-0.8,1.7-1.7
				C48,31,47.2,30.2,46.3,30.2z"/>
		</g>
	</g>
</g>
</svg>
