<?xml version="1.0" encoding="utf-8"?>
<!-- Generator: Adobe Illustrator 18.0.0, SVG Export Plug-In . SVG Version: 6.00 Build 0)  -->
<!DOCTYPE svg PUBLIC "-//W3C//DTD SVG 1.1//EN" "http://www.w3.org/Graphics/SVG/1.1/DTD/svg11.dtd">
<svg version="1.1" id="Layer_1" xmlns="http://www.w3.org/2000/svg" xmlns:xlink="http://www.w3.org/1999/xlink" x="0px" y="0px"
	 viewBox="0 0 48 48" enable-background="new 0 0 48 48" xml:space="preserve">
<g>
	<g>
		<path fill="#FFD15C" d="M19.1,0.1C9.8,1.2,2.6,8.2,1.3,17.5C1,19.7,1.1,21.9,1.5,24h7.2c-0.4-0.5-0.6-1.2-0.6-1.9
			c0-1.9,1.6-3.5,3.5-3.5c0,0,0,0,0,0c0,0,0,0,0,0c1.4,0,2.6,0.8,3.2,2.1c0.2,0.4,0.3,0.9,0.3,1.4c0,0.7-0.2,1.3-0.6,1.9H24v-9.5v0
			c0.5,0.4,1.2,0.6,1.9,0.6c0.5,0,1-0.1,1.4-0.3c1.2-0.5,2-1.8,2.1-3.2c0-1.9-1.6-3.5-3.5-3.5c-0.7,0-1.3,0.2-1.9,0.6V0.2
			C22.4,0,20.8-0.1,19.1,0.1z"/>
		<path fill="#F3705A" d="M25.9,8.1c1.9,0,3.5,1.6,3.5,3.5c0,0,0,0,0,0c0,0,0,0,0,0c0,1.4-0.8,2.6-2.1,3.2c-0.4,0.2-0.9,0.3-1.4,0.3
			c-0.7,0-1.3-0.2-1.9-0.6V24h9.5h0c-0.4,0.5-0.6,1.2-0.6,1.9c0,0.5,0.1,1,0.3,1.4c0.5,1.2,1.8,2,3.2,2.1c1.9,0,3.5-1.6,3.5-3.5
			c0-0.7-0.2-1.3-0.6-1.9h4.3l-2-3.8c0-10.3-7.7-18.8-17.6-20v8.5C24.5,8.3,25.2,8.1,25.9,8.1z"/>
		<path fill="#E8EAE9" d="M39.9,25.9c0,1.9-1.6,3.5-3.5,3.5c0,0,0,0,0,0c0,0,0,0,0,0c-1.4,0-2.6-0.8-3.2-2.1
			c-0.2-0.4-0.3-0.9-0.3-1.4c0-0.7,0.2-1.3,0.6-1.9H24v9.5v0c-0.5-0.4-1.2-0.6-1.9-0.6c-0.5,0-1,0.1-1.4,0.3c-1.2,0.5-2,1.8-2.1,3.2
			c0,1.9,1.6,3.5,3.5,3.5c0.7,0,1.3-0.2,1.9-0.6V48h12.1v-7.6h2.8c1.5,0,2.7-1.2,2.7-2.7v-6.2h4c0.9,0,1.5-1,1.1-1.8L43.6,24h-4.3
			C39.7,24.5,39.9,25.2,39.9,25.9z"/>
		<path fill="#66C6B9" d="M22.1,39.9c-1.9,0-3.5-1.6-3.5-3.5c0,0,0,0,0,0c0,0,0,0,0,0c0-1.4,0.8-2.6,2.1-3.2
			c0.4-0.2,0.9-0.3,1.4-0.3c0.7,0,1.3,0.2,1.9,0.6V24h-9.5h0c0.4-0.5,0.6-1.2,0.6-1.9c0-0.5-0.1-1-0.3-1.4c-0.5-1.2-1.8-2-3.2-2.1
			c-1.9,0-3.5,1.6-3.5,3.5c0,0.7,0.2,1.3,0.6,1.9H1.5c0.8,4.4,3.1,8.3,6.3,11.2c3.7,3.4,6.2,7.9,6.9,12.8H24v-8.7
			C23.5,39.7,22.8,39.9,22.1,39.9z"/>
	</g>
</g>
</svg>
