<?xml version="1.0" encoding="utf-8"?>
<!-- Generator: Adobe Illustrator 18.0.0, SVG Export Plug-In . SVG Version: 6.00 Build 0)  -->
<!DOCTYPE svg PUBLIC "-//W3C//DTD SVG 1.1//EN" "http://www.w3.org/Graphics/SVG/1.1/DTD/svg11.dtd">
<svg version="1.1" id="Layer_1" xmlns="http://www.w3.org/2000/svg" xmlns:xlink="http://www.w3.org/1999/xlink" x="0px" y="0px"
	 viewBox="0 0 48 48" enable-background="new 0 0 48 48" xml:space="preserve">
<g>
	<g>
		<g>
			<g>
				<g>
					<g>
						<path fill="#E8EAE9" d="M22.2,40H11.4v0c1.7-2.9,2.6-6.1,2.6-9.5v-7.6h5.6v7.6C19.6,33.8,20.5,37.1,22.2,40L22.2,40z"/>
					</g>
				</g>
			</g>
			<g>
				<g>
					<g>
						<g>
							<path fill="#FFD15C" d="M15.6,26.9c0,0-0.6,0.4-0.3,0.9s1.4,0.9,1.4,0.9l0.9,0.5c0,0,0.9,0,1.1-0.1c0,0,0.4,0.8,0.9,0.9
								c0,0-0.1,0.4,0,0.6L18,30l-0.4,6.9l1.9,1.6l2.6,0.6l1.9-3.2l-0.7-6l-3-3.3c-0.4-0.5-1-0.6-1.6-0.4l-1.5,0.6L15.6,26.9z"/>
						</g>
					</g>
					<g>
						<path fill="#F3F3F3" d="M15.6,26.9c0,0,0.3,0.4,0.5,0.5c0.2,0.1,0.4,0.3,0.8,0.2c0.4-0.1,0.5-0.1,0.5-0.1s0.3-0.2,0.1-0.5
							l-0.3-0.1L15.6,26.9z"/>
					</g>
				</g>
				<g>
					<g>
						<g>
							<path fill="#FFD15C" d="M23.7,35.5l-1.6,3.6l-1.6-0.4l-1-0.2l-1.9-1.6L18,30l1.6,0.6c-0.1-0.2,0-0.6,0-0.6
								c-0.5-0.1-0.9-0.9-0.9-0.9c-0.1,0.1-0.4,0.1-0.6,0.1c-0.2,0-0.5,0-0.5,0l-0.9-0.5c0,0-1.1-0.3-1.4-0.9
								c-0.3-0.6,0.3-0.9,0.3-0.9l0.1,0l1.6-0.1l1.5-0.6c0.6-0.2,1.2-0.1,1.6,0.4l2.5,2.8c0.3,0.3,0.4,0.7,0.5,1.1L23.7,35.5z"/>
						</g>
					</g>
					<g>
						<path fill="#FFFFFF" d="M15.6,26.9c0,0,0.3,0.4,0.5,0.5c0.2,0.1,0.4,0.3,0.8,0.2c0.4-0.1,0.5-0.1,0.5-0.1s0.3-0.2,0.1-0.5
							l-0.3-0.1L15.6,26.9z"/>
					</g>
				</g>
				<g>
					<path fill="#F7B64C" d="M20.2,30.9c0,0,0.7,0.2,1.4,0.5c0.2,0.1,0.3,0.2,0.5,0.2c0.2,0.1,0.3,0.2,0.4,0.3
						c0.1,0,0.1,0.1,0.1,0.1c0,0,0.1,0.1,0.1,0.1c0.1,0.1,0.1,0.1,0.1,0.1l0,0c0,0,0,0-0.1-0.1c0,0-0.1-0.1-0.1-0.1
						c0,0-0.1-0.1-0.1-0.1c-0.1-0.1-0.2-0.2-0.4-0.2c-0.2-0.1-0.3-0.2-0.5-0.2c-0.3-0.1-0.7-0.2-1-0.3c-0.3-0.1-0.4-0.1-0.4-0.1
						L20.2,30.9z"/>
				</g>
				<g>
					<path fill="#F7B64C" d="M19.7,29.9c0,0,0.1,0,0.2,0c0.2,0,0.4,0,0.6,0c0.1,0,0.1,0,0.1-0.1c0,0,0.1,0,0.1-0.1
						c0,0,0.1-0.1,0.1-0.1c0,0,0.1-0.1,0.1-0.1c0,0,0.1,0,0.1-0.1c0,0,0,0,0.1-0.1c0,0,0-0.1,0-0.1l0,0c0,0,0,0,0,0.1
						c0,0,0,0-0.1,0.1c0,0,0,0.1-0.1,0.1c0,0-0.1,0.1-0.1,0.1c0,0-0.1,0.1-0.1,0.1c0,0-0.1,0.1-0.1,0.1c0,0-0.1,0-0.2,0.1
						C20.3,30,20.1,30,19.9,30c-0.1,0-0.2,0-0.2,0c0,0-0.1,0-0.1,0L19.7,29.9z"/>
				</g>
				<g>
					<path fill="#F7B64C" d="M18.8,29C18.8,29,18.8,29,18.8,29c0.1,0,0.1-0.1,0.2-0.1c0.1-0.1,0.3-0.2,0.4-0.3
						c0.1-0.1,0.2-0.3,0.3-0.4c0-0.1,0.1-0.1,0.1-0.2c0,0,0-0.1,0-0.1s0,0,0,0.1c0,0,0,0.1-0.1,0.2c-0.1,0.1-0.1,0.3-0.3,0.4
						c-0.1,0.1-0.3,0.3-0.4,0.4c-0.1,0-0.1,0.1-0.2,0.1c0,0-0.1,0-0.1,0L18.8,29z"/>
				</g>
				<g>
					<path fill="#F7B64C" d="M22.3,35.7c-0.4,0.1-1.8,0.6-2.1,0.8c0,0.1,0.2,0.1,0.3,0.1c0.5-0.1,1-0.1,1.5-0.2
						c-0.3,0.1-0.4,0.4-0.6,0.7c-0.3,0.6-0.6,1.1-0.9,1.7l-1-0.2l-1.9-1.6L18,30l1.6,0.6c-0.1-0.2,0-0.6,0-0.6
						c-0.5-0.1-0.9-0.9-0.9-0.9c-0.1,0.1-0.4,0.1-0.6,0.1c0.1-0.1,0.2-0.1,0.3-0.2c0.2-0.2,0.5-0.2,0.8-0.3c0.2-0.1,0.3-0.1,0.5-0.2
						c-0.1,0-0.1,0.1-0.2,0.2l0,0c-0.1,0.2-0.3,0.4-0.2,0.7c0,0.1,0.1,0.3,0.3,0.3c0.2,0.2,0.8,0.2,1.1,0.1c-0.1,0-0.3,0.1-0.4,0.2
						c-0.4,0.2-0.2,0.4-0.1,0.5c0.1,0,0.1,0.1,0.2,0c0.1,0,0.1-0.1,0.1-0.1c0.1-0.1,0.2-0.2,0.3-0.3c0,0,0,0,0,0.1
						c-0.1,0.2-0.5,0.5-0.5,0.5c0,0,0,0,0,0c0.2,0,0.4-0.1,0.5-0.2c0.4-0.2,0.7-0.4,1.1-0.5c-0.4,0.2-0.8,0.5-1.2,0.7
						c-0.1,0.1-0.3,0.2-0.4,0.3c-0.1,0.1-0.3,0.3-0.4,0.4c-0.2,0.2-0.5,0.4-0.6,0.6c0,0.1,0,0.2,0,0.3c0,0.1,0,0.3,0,0.4
						c0,0.1,0,0.3-0.1,0.4c-0.1,0.7,0,1.4,0.3,2c0.5-0.4,0.9-0.8,1.4-1.1c0,0,0,0,0,0c-0.3,0.2-1.3,1.1-1.3,1.3c0,0,0,0,0,0
						c0,0,0,0.1,0.1,0.1c0.1,0.2,0.3,0.5,0.4,0.7C20.3,36.2,22.3,35.7,22.3,35.7C22.3,35.7,22.3,35.7,22.3,35.7z"/>
				</g>
			</g>
			<g>
				<g>
					
						<rect x="21.6" y="35.3" transform="matrix(0.874 0.4859 -0.4859 0.874 22.5431 -6.3981)" fill="#F3F3F3" width="4" height="10"/>
				</g>
				<g>
					<polygon fill="#55C0EB" points="48,47.3 48,48 26.4,48 21.6,45.4 27,35.7 27,35.6 27.1,35.6 					"/>
				</g>
			</g>
			<g>
				<path fill="#E8EAE9" d="M22.2,40c-1.7-2.9-2.6-6.1-2.6-9.5l-3.2-0.8L14,36.5l0.2,2.2l0.3,1.2H22.2z"/>
			</g>
			<g>
				<g>
					<path fill="#FFD15C" d="M13.3,26.9l1-0.1c0.4,0,0.8,0.1,1.2,0.4c1.1,1,2.3,1.9,2.9,2.6c0.3,0.4,0.4,0.9,0.2,1.3
						c-0.1,0.3-0.4,0.5-0.8,0.6c0,0,0.9,0.5,0.7,1.4c-0.3,0.9-0.7,0.8-0.7,0.8s0.8,0.4,0.4,1.4c-0.4,1-1.3,0.5-1.3,0.5
						s0,0.7-1.1,0.9c-1.1,0.2-1.7,0.3-2,0.1c0,0-0.3,0.5-1,0.4c0,0-0.3,0.7-0.4,1.1c0,0-2.4-1.1-1.4-3.2c0,0-1.2-2.4,0.3-3.4
						c0,0-0.7-2.4,1.1-2.7C12.4,28.7,11.9,27.7,13.3,26.9z"/>
				</g>
				<g>
					<g>
						<path fill="#F7B64C" d="M17.8,31.6C17.8,31.6,17.8,31.6,17.8,31.6C17.8,31.6,17.8,31.6,17.8,31.6c-0.2-0.1-0.3-0.1-0.4-0.2
							c-0.1-0.1-0.2-0.2-0.3-0.3c-0.1-0.1-0.2-0.2-0.3-0.3c-0.1,0-0.1-0.1-0.2-0.2l-0.1-0.1c0,0,0,0-0.1-0.1
							c-0.1-0.1-0.2-0.2-0.3-0.3c-0.1-0.1-0.2-0.2-0.4-0.2c-0.1-0.1-0.3-0.1-0.4-0.2c-0.3-0.1-0.5-0.3-0.8-0.4
							c-0.2-0.1-0.5-0.3-0.7-0.4c-0.5-0.2-1-0.4-1.5-0.4c0,0,0,0,0,0c0.2,0,0.5,0,0.7,0.1c0.3,0.1,0.6,0.2,0.8,0.3
							c0.3,0.1,0.5,0.3,0.8,0.4c0.2,0.1,0.5,0.3,0.8,0.4c0.1,0.1,0.3,0.1,0.4,0.2c0.1,0.1,0.3,0.1,0.4,0.2c0.1,0.1,0.2,0.2,0.3,0.3
							c0,0,0.1,0,0.1,0.1l0.1,0.1c0,0.1,0.1,0.1,0.1,0.2c0.2,0.2,0.4,0.4,0.6,0.6C17.5,31.5,17.7,31.5,17.8,31.6
							C17.8,31.6,17.8,31.6,17.8,31.6z"/>
					</g>
					<g>
						<path fill="#F7B64C" d="M17.8,33.8c-0.1,0-0.2,0-0.3-0.1c-0.1,0-0.3-0.1-0.5-0.2c-0.1-0.1-0.3-0.2-0.5-0.4
							c-0.2-0.1-0.4-0.2-0.6-0.3c-0.1-0.1-0.2-0.1-0.3-0.2l-0.1,0c0,0,0,0,0,0l0,0c-0.1,0-0.1,0-0.2-0.1c-0.2-0.1-0.5-0.2-0.7-0.3
							c-0.5-0.2-0.9-0.4-1.3-0.5c-0.2-0.1-0.4-0.2-0.6-0.2c-0.2-0.1-0.4-0.1-0.6-0.2c-0.4-0.1-0.7,0-0.9,0c0,0,0,0,0,0c0,0,0,0,0,0
							c0,0,0,0,0,0c0.2-0.1,0.5-0.1,0.9-0.1c0.2,0,0.4,0.1,0.6,0.2c0.2,0.1,0.4,0.1,0.6,0.2c0.4,0.2,0.9,0.3,1.4,0.5
							c0.2,0.1,0.5,0.2,0.7,0.3c0.1,0,0.1,0,0.2,0.1l0,0c0,0,0,0,0,0l0.1,0c0.1,0.1,0.2,0.1,0.3,0.2c0.2,0.1,0.4,0.2,0.6,0.4
							c0.2,0.1,0.3,0.3,0.5,0.4c0.1,0.1,0.3,0.2,0.4,0.2C17.6,33.8,17.7,33.8,17.8,33.8c-0.1-0.1-0.1-0.1-0.1-0.1
							S17.7,33.8,17.8,33.8z"/>
					</g>
				</g>
				<g>
					<path fill="#FFFFFF" d="M16.8,30.6l0.6,0.5c0,0,0.3,0.1,0.6-0.1c0.2-0.1,0.3-0.3,0.3-0.4c0.1-0.2,0.1-0.3,0-0.5
						c0-0.1-0.1-0.2-0.2-0.2c-0.1-0.1-0.3-0.2-0.4-0.3c-0.2-0.1-0.3-0.2-0.5-0.1c-0.1,0-0.2,0.1-0.3,0.2
						C16.7,30.1,16.7,30.5,16.8,30.6z"/>
				</g>
				<g>
					<path fill="#FFFFFF" d="M17.1,33.8c0,0-0.3-0.1-0.4,0.1c-0.1,0.2-0.3,0.7,0.2,1.1l0.4,0.2c0,0,0.5-0.3,0.6-0.6
						s-0.1-0.5-0.1-0.5L17.1,33.8z"/>
				</g>
				<g>
					<path fill="#FFFFFF" d="M17.6,31.8l0.7,0.4c0,0,0.3,0.2,0.2,0.5c-0.1,0.3-0.5,0.8-0.6,0.8s-0.6-0.4-0.6-0.4s-0.4-0.7-0.1-1.1
						C17.1,32,17.2,31.7,17.6,31.8z"/>
				</g>
				<g>
					<path fill="#FFFFFF" d="M15.7,35c0,0-0.2,0.3,0.1,0.6c0.3,0.2,0.5,0.3,0.5,0.3s0.2,0.1,0.3-0.1c0.2-0.2,0.2-0.2,0.2-0.2
						L15.7,35z"/>
				</g>
				<g>
					<path fill="#F7B64C" d="M17.2,35.7c-0.2,0-0.3-0.1-0.3-0.1c0,0,0,0,0,0v0c-0.1-0.1-0.3-0.2-0.4-0.2c-0.2-0.1-0.3-0.2-0.5-0.2
						c-0.3-0.2-0.7-0.3-1-0.4l-1-0.4l-0.2,0c-0.1,0-0.1,0-0.2,0c-0.1,0-0.2,0-0.4,0l-0.2,0c-0.1,0-0.1,0-0.2,0c-0.1,0-0.2,0-0.4,0
						c-0.2,0-0.5,0.1-0.8,0.2c-0.2,0-0.4,0.2-0.7,0.2c0,0,0,0,0,0c0.2-0.1,0.5-0.3,0.7-0.3c0.2-0.1,0.5-0.1,0.7-0.2
						c0.1,0,0.3,0,0.4-0.1c0.1,0,0.3,0,0.4,0c0.1,0,0.1,0,0.2,0c0.1,0,0.1,0,0.2,0c0.1,0,0.1,0,0.2,0l0.2,0h0l0,0
						c0.3,0.1,0.7,0.3,1,0.4c0.3,0.1,0.7,0.3,1,0.5c0.2,0.1,0.3,0.2,0.5,0.2c0.2,0.1,0.3,0.2,0.5,0.3C17,35.6,17.1,35.7,17.2,35.7z"
						/>
				</g>
				<g>
					<path fill="#F7B64C" d="M17.9,29.3c-0.1,0-0.2,0-0.3-0.1c-0.4-0.2-0.7-0.4-1.1-0.5c-0.3-0.2-0.7-0.3-1-0.6
						c-0.2-0.3-0.3-0.6-0.2-1c0,0,0.1,0,0.1,0.1c-0.1,0.3,0.1,0.7,0.3,0.9c0.4,0.3,0.7,0.4,1.1,0.7c0.2,0.1,0.5,0.2,0.7,0.4
						C17.6,29.2,17.7,29.2,17.9,29.3C17.8,29.3,17.8,29.3,17.9,29.3z"/>
				</g>
			</g>
			<g>
				<path fill="#415A6B" d="M23.7,48v-6.8c0-0.7-0.5-1.2-1.2-1.2H11c-0.7,0-1.2,0.5-1.2,1.2V48H23.7z"/>
			</g>
		</g>
		<g>
			<g>
				<g>
					<path fill="#E8EAE9" d="M32.2,0.6C32,0.2,31.7,0,31.3,0c-0.3,0-0.6,0.2-0.8,0.4h0c-0.6,0-1.1,0.4-1.2,1c0,0-0.1,0-0.1,0
						c-0.7,0-1.3,0.6-1.3,1.3c0,0.7,0.6,1.3,1.3,1.3c0.3,0,0.6-0.1,0.8-0.3c1.2,1,1,3.7,1,3.7l-0.3,0.2C30,6.4,29,6.3,28.4,6.4
						c-0.1-0.1-0.2-0.1-0.4-0.1c-0.3,0-0.6,0.3-0.6,0.6c0,0.3,0.3,0.6,0.6,0.6c0.3,0,0.6-0.2,0.6-0.5c0.2,0,1.5,0.2,1.4,2.7
						c-0.1,2.8-1.4,4.4-1.4,4.4c-0.3,0.4-0.6,0.5-1,0.5c-0.1-0.1-0.3-0.2-0.5-0.2c-0.1,0-0.1,0-0.2,0c0,0,0,0,0,0v0
						c-0.2,0.1-0.4,0.3-0.4,0.6c0,0.3,0.3,0.6,0.6,0.6c0.2,0,0.4-0.1,0.5-0.3c0.2,0,0.4-0.1,0.6-0.2c0.6-0.3,0.4,0.2,0.4,0.2
						c-1,1.6-0.8,2.8-0.7,3.3c0,0,0,0.1,0,0.1c0,0.3,0.2,0.5,0.5,0.5c0.3,0,0.5-0.2,0.5-0.5c0-0.3-0.2-0.5-0.5-0.5c0,0,0,0,0,0
						c-0.2-0.8,1.7-4.7,1.7-4.7C35.4,7,32.9,1.8,32.2,0.6z"/>
				</g>
				<path fill="#E8EAE9" d="M6.4,14.4L6.4,14.4C6.4,14.4,6.4,14.4,6.4,14.4c-0.1,0-0.2,0-0.2,0c-0.2,0-0.4,0.1-0.5,0.2
					c-0.3,0-0.7-0.1-1-0.5c0,0-1.3-1.6-1.4-4.4C3.2,7.2,4.6,7,4.8,7c0.1,0.3,0.3,0.5,0.6,0.5C5.7,7.5,6,7.2,6,6.9
					c0-0.3-0.3-0.6-0.6-0.6c-0.1,0-0.3,0-0.4,0.1c-0.7-0.1-1.6,0-2.2,1.2L2.5,7.4c0,0-0.2-2.7,1-3.7C3.7,3.9,4,4,4.3,4
					C5,4,5.6,3.4,5.6,2.7C5.6,2,5,1.4,4.3,1.4c0,0-0.1,0-0.1,0c-0.1-0.6-0.6-1-1.2-1h0C2.7,0.2,2.4,0,2.1,0C1.7,0,1.4,0.2,1.2,0.6
					C0.5,1.8-2,7,3.2,13.5c0,0,1.9,3.9,1.7,4.7c0,0,0,0,0,0c-0.3,0-0.5,0.2-0.5,0.5c0,0.3,0.2,0.5,0.5,0.5c0.3,0,0.5-0.2,0.5-0.5
					c0,0,0-0.1,0-0.1c0.1-0.5,0.3-1.7-0.7-3.3c0,0-0.2-0.5,0.4-0.2c0.2,0.1,0.4,0.2,0.6,0.2c0.1,0.2,0.3,0.3,0.5,0.3
					c0.3,0,0.6-0.3,0.6-0.6C6.8,14.7,6.7,14.5,6.4,14.4z"/>
			</g>
			<g>
				<path fill="#F3F3F3" d="M5.8,1.5v7.7c0,7.3,4.3,14,11,17c6.7-3,11-9.6,11-17V1.5H5.8z"/>
			</g>
		</g>
	</g>
</g>
</svg>
