<?xml version="1.0" encoding="utf-8"?>
<!-- Generator: Adobe Illustrator 18.0.0, SVG Export Plug-In . SVG Version: 6.00 Build 0)  -->
<!DOCTYPE svg PUBLIC "-//W3C//DTD SVG 1.1//EN" "http://www.w3.org/Graphics/SVG/1.1/DTD/svg11.dtd">
<svg version="1.1" id="Layer_1" xmlns="http://www.w3.org/2000/svg" xmlns:xlink="http://www.w3.org/1999/xlink" x="0px" y="0px"
	 viewBox="0 0 48 48" enable-background="new 0 0 48 48" xml:space="preserve">
<g>
	<g>
		<path fill="#415A6B" d="M46.5,45.1H2.9V1.5C2.9,0.7,2.3,0,1.5,0C0.7,0,0,0.7,0,1.5v45.1C0,47.3,0.7,48,1.5,48h45.1
			c0.8,0,1.5-0.7,1.5-1.5S47.3,45.1,46.5,45.1z"/>
		<g>
			<g>
				<rect x="7.3" y="30" fill="#66C6B9" width="5.9" height="11.4"/>
			</g>
			<g>
				<rect x="16.5" y="36.4" fill="#F3705A" width="5.9" height="5.1"/>
			</g>
			<g>
				<rect x="25.7" y="23.1" fill="#FFD15C" width="5.9" height="18.4"/>
			</g>
			<g>
				<rect x="34.9" y="16.8" fill="#8AD7F8" width="5.9" height="24.7"/>
			</g>
		</g>
		<g>
			
				<rect x="31.8" y="24.4" transform="matrix(0.7071 -0.7071 0.7071 0.7071 -9.107 32.4492)" fill="#344A5E" width="5.5" height="5.5"/>
		</g>
		<g>
			<circle fill="#F3F3F3" cx="24.3" cy="16.9" r="11.8"/>
			<path fill="#415A6B" d="M33.9,26.5c-5.3,5.3-13.9,5.3-19.2,0s-5.3-13.9,0-19.2s13.9-5.3,19.2,0S39.2,21.2,33.9,26.5z M17.2,9.8
				c-3.9,3.9-3.9,10.3,0,14.3s10.3,3.9,14.3,0s3.9-10.3,0-14.3S21.1,5.9,17.2,9.8z"/>
		</g>
		<g>
			<path fill="#F3705A" d="M33.6,33.2l6.2,6.2c1.9,1.9,4.9,1.9,6.8,0c1.9-1.9,1.9-4.9,0-6.8l-6.2-6.2L33.6,33.2z"/>
		</g>
		<g>
			
				<rect x="36.6" y="25.9" transform="matrix(0.7071 0.7071 -0.7071 0.7071 32.7804 -17.7903)" fill="#F05540" width="2.5" height="9.6"/>
		</g>
		<g>
			<path fill="#F3705A" d="M41,27l-6.8,6.8c-0.7,0.7-1.8,0.7-2.5,0c-0.7-0.7-0.7-1.8,0-2.5l6.8-6.8c0.7-0.7,1.8-0.7,2.5,0
				C41.6,25.2,41.6,26.3,41,27z"/>
		</g>
		<g>
			<g>
				<path fill="#F3705A" d="M28.9,13.4c0-1.2-0.4-2.2-1.2-2.9c-0.8-0.7-1.9-1.1-3.1-1.1s-2.4,0.4-3.2,1.2c-0.9,0.8-1.4,1.9-1.5,3.2
					h3.3c0.1-0.5,0.2-0.9,0.4-1.2c0.2-0.3,0.5-0.5,0.9-0.5c0.4,0,0.6,0.1,0.9,0.4s0.3,0.6,0.3,1s-0.1,0.7-0.3,1L23.9,16
					c-0.5,0.5-0.8,0.9-0.9,1.1c-0.1,0.3-0.2,0.7-0.2,1.3v1.5h3.1c0,0,0,0,0-1.2c0-0.8,0.4-1.2,0.4-1.2l0.9-0.9
					C29.2,14.7,28.9,13.4,28.9,13.4z"/>
			</g>
			<circle fill="#F3705A" cx="24.4" cy="22.6" r="1.8"/>
		</g>
	</g>
</g>
</svg>
