<?xml version="1.0" encoding="utf-8"?>
<!-- Generator: Adobe Illustrator 18.0.0, SVG Export Plug-In . SVG Version: 6.00 Build 0)  -->
<!DOCTYPE svg PUBLIC "-//W3C//DTD SVG 1.1//EN" "http://www.w3.org/Graphics/SVG/1.1/DTD/svg11.dtd">
<svg version="1.1" id="Layer_1" xmlns="http://www.w3.org/2000/svg" xmlns:xlink="http://www.w3.org/1999/xlink" x="0px" y="0px"
	 viewBox="0 0 48 48" enable-background="new 0 0 48 48" xml:space="preserve">
<g>
	<g>
		<path fill="#F3705A" d="M38.1,33.9L24,48L9.9,33.9c-7.8-7.8-7.8-20.4,0-28.1c7.8-7.8,20.4-7.8,28.1,0
			C45.8,13.6,45.8,26.2,38.1,33.9z"/>
		<path fill="#FFFFFF" d="M33.2,29.1c-5.1,5.1-13.3,5.1-18.4,0c-5.1-5.1-5.1-13.3,0-18.4c5.1-5.1,13.3-5.1,18.4,0
			C38.3,15.8,38.3,24,33.2,29.1z"/>
		<g>
			<g>
				<path fill="#F7B64C" d="M32.3,13.3H15.7c-0.6,0-1.2,0.5-1.2,1.2v10.8c0,0.6,0.5,1.2,1.2,1.2h16.7c0.6,0,1.2-0.5,1.2-1.2V14.5
					C33.5,13.8,33,13.3,32.3,13.3z"/>
			</g>
			<path fill="#FFD15C" d="M24,16.9l-9.2,9.2c0.2,0.2,0.5,0.3,0.8,0.3h16.7c0.3,0,0.6-0.1,0.8-0.3L24,16.9z"/>
			<path fill="#E8EAE9" d="M24,22.8l9.2-9.2c-0.2-0.2-0.5-0.3-0.8-0.3H15.7c-0.3,0-0.6,0.1-0.8,0.3L24,22.8z"/>
		</g>
	</g>
</g>
</svg>
