<?xml version="1.0" encoding="utf-8"?>
<!-- Generator: Adobe Illustrator 18.0.0, SVG Export Plug-In . SVG Version: 6.00 Build 0)  -->
<!DOCTYPE svg PUBLIC "-//W3C//DTD SVG 1.1//EN" "http://www.w3.org/Graphics/SVG/1.1/DTD/svg11.dtd">
<svg version="1.1" id="Layer_1" xmlns="http://www.w3.org/2000/svg" xmlns:xlink="http://www.w3.org/1999/xlink" x="0px" y="0px"
	 viewBox="0 0 48 48" enable-background="new 0 0 48 48" xml:space="preserve">
<g>
	<g>
		<g>
			<g>
				<g>
					<g>
						<g>
							<path fill="#F3705A" d="M26.5,5.5C26.5,4.1,24,0,24,0s-2.5,4.1-2.5,5.5S22.6,8,24,8C25.4,8,26.5,6.9,26.5,5.5z"/>
						</g>
						<g>
							<path fill="#FFD15C" d="M25.2,6.8C25.2,6.1,24,4,24,4s-1.2,2.1-1.2,2.8S23.3,8,24,8C24.7,8,25.2,7.5,25.2,6.8z"/>
						</g>
					</g>
					<path fill="#66C6B9" d="M26.1,9h-4.3c-0.6,0-1,0.5-1,1v14h6.3V10C27.2,9.4,26.7,9,26.1,9z"/>
				</g>
				<g>
					<g>
						<path fill="#4EC0AA" d="M39.5,15h-4.3c-0.6,0-1,0.5-1,1v12.2h6.3V16C40.5,15.4,40.1,15,39.5,15z"/>
						<g>
							<g>
								<path fill="#F3705A" d="M39.9,11.5c0-1.4-2.5-5.5-2.5-5.5s-2.5,4.1-2.5,5.5S36,14,37.4,14C38.8,14,39.9,12.9,39.9,11.5z"/>
							</g>
							<g>
								<path fill="#FFD15C" d="M38.6,12.8c0-0.7-1.2-2.8-1.2-2.8s-1.2,2.1-1.2,2.8s0.6,1.2,1.2,1.2C38.1,14,38.6,13.5,38.6,12.8z"
									/>
							</g>
						</g>
					</g>
					<g>
						<g>
							<g>
								<path fill="#F3705A" d="M13.1,11.5c0-1.4-2.5-5.5-2.5-5.5s-2.5,4.1-2.5,5.5S9.2,14,10.6,14S13.1,12.9,13.1,11.5z"/>
							</g>
							<g>
								<path fill="#FFD15C" d="M11.9,12.8c0-0.7-1.2-2.8-1.2-2.8s-1.2,2.1-1.2,2.8S9.9,14,10.6,14C11.3,14,11.9,13.5,11.9,12.8z"/>
							</g>
						</g>
						<g>
							<g>
								<path fill="#4EC0AA" d="M12.8,15H8.5c-0.6,0-1,0.5-1,1v12.2h6.3V16C13.8,15.4,13.3,15,12.8,15z"/>
							</g>
						</g>
					</g>
				</g>
			</g>
		</g>
		<g>
			<g>
				<g>
					<path fill="#FFD15C" d="M47.4,48H0.6V26.1c0-1.7,1.3-3,3-3h40.8c1.7,0,3,1.3,3,3V48z"/>
				</g>
				<rect x="0.6" y="32.7" fill="#F7B64C" width="46.8" height="5.5"/>
				<g>
					<path fill="#F3F3F3" d="M47.9,32.1c-0.2,0.8-0.7,1.5-1.5,1.8c-1.2,0.4-2.5-0.4-3.3-1.3c-0.8-0.9-1.5-2.1-2.7-2.7
						c-1.2-0.6-2.6-0.5-3.9-0.3c-1.2,0.2-2.6,0.3-3.5,1.3c-0.6,0.7-1,1.8-1.9,2c-0.6,0.1-1.3-0.3-1.7-0.8c-0.4-0.5-0.8-1.1-1.2-1.5
						c-1.1-1-2.8-1.1-4.4-1c-1.9,0.1-4.1,0.3-5.1,1.8c-0.5,0.7-0.7,1.6-1.2,2.3c-0.8,1.1-2.5,1.5-3.7,0.8c-1.3-0.7-1.9-2.2-3.2-2.9
						c-1.1-0.5-2.2,1.2-3.3,0.8c-0.7-0.3-0.5-1.5-1.2-1.8c-0.7-0.3-1.6,0-2,0.6c-0.6,0.7-0.5,1.9-1.2,2.5c-0.9,0.8-2.1,0.4-2.4-0.7
						C-0.1,31.9,0,26.3,0,26.3c0-2.1,1.7-3.7,3.7-3.7h40.5c2,0,3.7,1.7,3.7,3.7C48,26.3,48.1,31.3,47.9,32.1z"/>
				</g>
			</g>
			<rect x="0.6" y="42" fill="#F7B64C" width="46.8" height="1.8"/>
		</g>
	</g>
</g>
</svg>
