<?xml version="1.0" encoding="utf-8"?>
<!-- Generator: Adobe Illustrator 18.0.0, SVG Export Plug-In . SVG Version: 6.00 Build 0)  -->
<!DOCTYPE svg PUBLIC "-//W3C//DTD SVG 1.1//EN" "http://www.w3.org/Graphics/SVG/1.1/DTD/svg11.dtd">
<svg version="1.1" id="Layer_1" xmlns="http://www.w3.org/2000/svg" xmlns:xlink="http://www.w3.org/1999/xlink" x="0px" y="0px"
	 viewBox="0 0 48 48" enable-background="new 0 0 48 48" xml:space="preserve">
<g>
	<g>
		<path fill="#F7B64C" d="M26.7,27.9h-5.3c0,2.8-1.3,5.4-3.6,7.1h12.4C28,33.3,26.7,30.7,26.7,27.9z"/>
		<path fill="#FFD15C" d="M30.2,38.1H17.8c-0.9,0-1.6-0.7-1.6-1.6s0.7-1.6,1.6-1.6h12.4c0.9,0,1.6,0.7,1.6,1.6S31.1,38.1,30.2,38.1z
			"/>
		<path fill="#415A6B" d="M32.8,38.1H15.2c-1.8,0-3.2,1.4-3.2,3.2V48h23.9v-6.7C35.9,39.5,34.5,38.1,32.8,38.1z"/>
		<path fill="#F7B64C" d="M37.3,26.2h-1.2c-1.7,0-3.3-1.1-3.8-2.7c-0.7-1.9,0.2-4.1,2.1-5c6.4-3.1,9.5-7,11.1-14
			c0.2-0.7-0.2-1.5-0.9-1.8c-0.4-0.2-0.9-0.2-1.3-0.1c-0.4,0.2-0.8,0.5-1,0.9c-1,2.1-3.1,3.5-5.4,3.5h-3.2c-0.7,0-1.3-0.6-1.3-1.3
			s0.6-1.3,1.3-1.3h3.2c1.3,0,2.6-0.8,3.1-2c0.5-1,1.3-1.8,2.4-2.2c1.1-0.4,2.2-0.3,3.3,0.2c1.8,0.8,2.7,2.8,2.3,4.6
			c-1.7,7.7-5.3,12.3-12.4,15.7c-0.7,0.3-1.1,1.2-0.8,1.9c0.2,0.6,0.8,1,1.4,1h1.2c0.7,0,1.3,0.6,1.3,1.3S38,26.2,37.3,26.2z"/>
		<path fill="#F7B64C" d="M11.9,26.2h-1.2c-0.7,0-1.3-0.6-1.3-1.3s0.6-1.3,1.3-1.3h1.2c0.7,0,1.2-0.4,1.4-1c0.3-0.7-0.1-1.5-0.8-1.9
			c-7.1-3.4-10.7-8-12.4-15.7c-0.4-1.9,0.5-3.8,2.3-4.6c1-0.5,2.2-0.6,3.3-0.2C6.7,0.6,7.5,1.4,8,2.5c0.6,1.2,1.8,2,3.1,2h3.2
			c0.7,0,1.3,0.6,1.3,1.3S15,7,14.3,7h-3.2C8.8,7,6.7,5.6,5.7,3.5c-0.2-0.4-0.5-0.7-1-0.9C4.3,2.4,3.9,2.5,3.5,2.7
			C2.8,3,2.4,3.8,2.5,4.5c1.6,7,4.7,10.9,11.1,14c1.9,0.9,2.8,3,2.1,5C15.1,25.1,13.6,26.2,11.9,26.2z"/>
		<path fill="#FFD15C" d="M37,0c0.6,15.3-7.3,28.8-13,28.8c-5.7,0-13.6-13.5-13-28.8H37z"/>
	</g>
</g>
</svg>
