<?xml version="1.0" encoding="utf-8"?>
<!-- Generator: Adobe Illustrator 18.0.0, SVG Export Plug-In . SVG Version: 6.00 Build 0)  -->
<!DOCTYPE svg PUBLIC "-//W3C//DTD SVG 1.1//EN" "http://www.w3.org/Graphics/SVG/1.1/DTD/svg11.dtd">
<svg version="1.1" id="Layer_1" xmlns="http://www.w3.org/2000/svg" xmlns:xlink="http://www.w3.org/1999/xlink" x="0px" y="0px"
	 viewBox="0 0 48 48" enable-background="new 0 0 48 48" xml:space="preserve">
<g>
	<path fill="#40596B" d="M42,5H6C4.9,5,4,5.9,4,7v39c0,1.1,0.9,2,2,2h36c1.1,0,2-0.9,2-2V7C44,5.9,43.1,5,42,5z"/>
	<rect x="7.3" y="8.2" fill="#FFFFFF" width="33.4" height="36.5"/>
	<path fill="#FF7058" d="M33.6,9.7H14.4c0.6-2.9,3.1-5.1,6.2-5.1V3.4C20.6,1.5,22.1,0,24,0c1.9,0,3.4,1.5,3.4,3.4v1.2
		C30.4,4.6,33,6.8,33.6,9.7z"/>
	<circle fill="#FFFFFF" cx="24" cy="2.9" r="1"/>
	<g>
		<g>
			<g>
				<rect x="16.8" y="15.3" fill="#F2F2F2" width="21.8" height="1.3"/>
			</g>
			<circle fill="#ACB3BA" cx="12.2" cy="16" r="2.7"/>
			<path fill="#FFFFFF" d="M11.5,14.4h1.2v3h-0.6V15h-0.6V14.4z"/>
		</g>
		<g>
			<g>
				<rect x="16.8" y="25.8" fill="#F2F2F2" width="21.8" height="1.3"/>
			</g>
			<circle fill="#FFD15C" cx="12.2" cy="26.5" r="2.7"/>
			<path fill="#FFFFFF" d="M12.4,26.2c0.1-0.1,0.1-0.2,0.1-0.3s0-0.2-0.1-0.3c-0.1-0.1-0.2-0.1-0.3-0.1c-0.2,0-0.4,0.1-0.5,0.4
				l-0.5-0.3c0.1-0.2,0.3-0.4,0.5-0.5c0.2-0.1,0.4-0.2,0.6-0.2c0.3,0,0.5,0.1,0.7,0.2c0.2,0.2,0.3,0.4,0.3,0.7c0,0.2,0,0.3-0.1,0.4
				c-0.1,0.1-0.2,0.3-0.4,0.5l-0.5,0.6h1.2V28h-2.1v-0.5l0.9-0.9C12.2,26.4,12.3,26.3,12.4,26.2z"/>
		</g>
		<g>
			<g>
				<rect x="16.8" y="36.4" fill="#F2F2F2" width="21.8" height="1.3"/>
			</g>
			<circle fill="#4CDBC4" cx="12.2" cy="37" r="2.7"/>
			<path fill="#FFFFFF" d="M11.2,36v-0.6h1.8v0.5l-0.6,0.7c0.2,0,0.4,0.1,0.6,0.3c0.1,0.2,0.2,0.4,0.2,0.6c0,0.3-0.1,0.6-0.3,0.7
				c-0.2,0.2-0.5,0.3-0.8,0.3s-0.7-0.1-1-0.4l0.3-0.5c0.3,0.2,0.5,0.3,0.8,0.3c0.1,0,0.2,0,0.3-0.1c0.1-0.1,0.1-0.2,0.1-0.3
				c0-0.1-0.1-0.2-0.2-0.3c-0.1-0.1-0.2-0.1-0.4-0.1c-0.1,0-0.2,0-0.4,0.1v-0.5l0.6-0.7H11.2z"/>
		</g>
	</g>
</g>
</svg>
