<?xml version="1.0" encoding="utf-8"?>
<!-- Generator: Adobe Illustrator 20.1.0, SVG Export Plug-In . SVG Version: 6.00 Build 0)  -->
<!DOCTYPE svg PUBLIC "-//W3C//DTD SVG 1.1//EN" "http://www.w3.org/Graphics/SVG/1.1/DTD/svg11.dtd">
<svg version="1.1" id="Layer_1" xmlns="http://www.w3.org/2000/svg" xmlns:xlink="http://www.w3.org/1999/xlink" x="0px" y="0px"
	 viewBox="0 0 49 49" enable-background="new 0 0 49 49" xml:space="preserve">
<g>
	<polygon fill="#CDD6E0" points="40.4,25.9 34.4,31.9 34.4,48.5 46.5,48.5 46.5,31.9 	"/>
	<polygon fill="#CDD6E0" points="8.6,25.9 2.5,31.9 2.5,48.5 14.6,48.5 14.6,31.9 	"/>
	<g>
		<path fill="#40596B" d="M15.6,32.4c-0.3,0-0.5-0.1-0.7-0.3l-6.3-6.2l-6.3,6.2c-0.4,0.4-1.1,0.4-1.5,0c-0.4-0.4-0.4-1.1,0-1.5l7-7
			c0.4-0.4,1.1-0.4,1.5,0l7,7c0.4,0.4,0.4,1.1,0,1.5C16.1,32.3,15.9,32.4,15.6,32.4z"/>
	</g>
	<g>
		<path fill="#40596B" d="M47.4,32.4c-0.3,0-0.5-0.1-0.7-0.3l-6.3-6.2l-6.3,6.2c-0.4,0.4-1.1,0.4-1.5,0c-0.4-0.4-0.4-1.1,0-1.5l7-7
			c0.4-0.4,1.1-0.4,1.5,0l7,7c0.4,0.4,0.4,1.1,0,1.5C48,32.3,47.7,32.4,47.4,32.4z"/>
	</g>
	<rect x="12" y="21.8" fill="#E2E2E2" width="25" height="26.7"/>
	<path fill="#ACB3BA" d="M10.9,20.6L10.9,20.6c0-0.6,0.5-1.1,1.1-1.1H37c0.6,0,1.1,0.5,1.1,1.1l0,0c0,0.6-0.5,1.1-1.1,1.1H12
		C11.4,21.8,10.9,21.3,10.9,20.6z"/>
	<rect x="18.6" y="35.5" fill="#40596B" width="11.9" height="13"/>
	<polygon fill="#E2E2E2" points="34.5,14.6 34.5,19.5 14.5,19.5 14.5,14.6 24.5,4.7 	"/>
	<path fill="#40596B" d="M36.1,15.5c-0.4,0-0.9-0.2-1.2-0.5L24.5,4.7L14.1,15c-0.7,0.7-1.8,0.7-2.5,0c-0.7-0.7-0.7-1.8,0-2.5L23.3,1
		C24,0.3,25,0.3,25.7,1l11.6,11.5c0.7,0.7,0.7,1.8,0,2.5C37,15.3,36.5,15.5,36.1,15.5z"/>
	<path fill="#CDD6E0" d="M34.5,14.6v2.2c-0.3-0.2-0.6-0.4-0.8-0.6l-9.2-9.1l-9.2,9.1c-0.2,0.2-0.5,0.4-0.8,0.6v-2.2l10-9.9
		L34.5,14.6z"/>
	<g>
		<rect x="28.4" y="26.1" fill="#ACB3BA" width="5.1" height="5.1"/>
		<rect x="15.5" y="26.1" fill="#ACB3BA" width="5.1" height="5.1"/>
	</g>
	<rect x="39.2" y="37.6" fill="#ACB3BA" width="5.1" height="5.1"/>
	<g>
		<path fill="#4CDBC4" d="M25,14.8v3.1c1.6-0.2,2.9-1.5,3.1-3.1H25z"/>
		<path fill="#4CDBC4" d="M24,13.7v-3.1c-1.6,0.2-2.9,1.5-3.1,3.1H24z"/>
		<path fill="#4CDBC4" d="M25,13.7h3.1c-0.2-1.6-1.5-2.9-3.1-3.1V13.7z"/>
		<path fill="#4CDBC4" d="M24,14.8h-3.1c0.2,1.6,1.5,2.9,3.1,3.1V14.8z"/>
	</g>
	<path fill="#CDD6E0" d="M37,21.8v1.5c-0.1,0-0.2,0-0.2,0H12.2c-0.1,0-0.2,0-0.2,0v-1.5H37z"/>
	<rect x="4.7" y="37.6" fill="#ACB3BA" width="5.1" height="5.1"/>
</g>
</svg>
