<?xml version="1.0" encoding="utf-8"?>
<!-- Generator: Adobe Illustrator 16.0.0, SVG Export Plug-In . SVG Version: 6.00 Build 0)  -->
<!DOCTYPE svg PUBLIC "-//W3C//DTD SVG 1.1//EN" "http://www.w3.org/Graphics/SVG/1.1/DTD/svg11.dtd">
<svg version="1.1" id="Layer_1" xmlns="http://www.w3.org/2000/svg" xmlns:xlink="http://www.w3.org/1999/xlink" x="0px" y="0px"
	 width="48px" height="48px" viewBox="0 0 48 48" enable-background="new 0 0 48 48" xml:space="preserve">
<g>
	<path fill="#F8B64C" d="M16.991,15.837c0.156,1.795-0.715,3.338-1.945,3.445c-1.232,0.108-2.358-1.26-2.516-3.055
		c-0.156-1.795,0.715-3.337,1.946-3.445S16.833,14.042,16.991,15.837"/>
	<path fill="#F8B64C" d="M35.497,16.228c-0.157,1.795-1.283,3.163-2.514,3.055c-1.232-0.108-2.104-1.65-1.946-3.445
		c0.157-1.795,1.282-3.163,2.515-3.055C34.782,12.89,35.653,14.433,35.497,16.228"/>
	<path fill="#40596B" d="M48,38.123v9.881H0v-9.881c0-1.909,1.17-3.629,2.95-4.319l5.1-2.01l3.82-1.5l3.199-1.261l1.83-0.719
		l0.021,0.01h0.01c0.03,0.039,0.06,0.08,0.091,0.119h0.01v0.01c0.189,0.261,0.39,0.5,0.59,0.73c1.71,1.87,4.039,2.801,6.38,2.801
		c2.351,0,4.71-0.94,6.409-2.82c0.201-0.23,0.4-0.461,0.58-0.721c0,0,0.011,0,0.011-0.01c0.03-0.029,0.05-0.07,0.08-0.109h0.01
		l0.011-0.01l1.85,0.729l3.189,1.25l3.82,1.5l5.1,2.01C46.83,34.504,48,36.214,48,38.123"/>
	<path fill="#334A5E" d="M38.794,40.395c0,0-1.289,3.359-4.609,7.609h-7.859c0.149-0.38,0.31-0.77,0.469-1.15
		c0.351-0.84,0.73-1.67,1.141-2.43c0,0,2.26-4.62,3.04-9.92c0.14-0.891,0.229-1.801,0.26-2.721c0.05-1.119,0-2.26-0.18-3.35
		c-0.09-0.58-0.22-1.15-0.39-1.699c0,0,7.72,9.439,8.129,11.229c0,0-3.719,1.37-5.17,0.76
		C33.624,38.724,34.765,40.474,38.794,40.395"/>
	<path fill="#334A5E" d="M21.805,48.004h-7.86c-3.31-4.25-4.6-7.609-4.6-7.609c4.02,0.079,5.16-1.671,5.16-1.671
		c-1.44,0.61-5.16-0.76-5.16-0.76c0.4-1.79,8.12-11.229,8.12-11.229c-0.171,0.56-0.3,1.129-0.39,1.709
		c-0.181,1.09-0.23,2.221-0.181,3.34c0.03,0.92,0.12,1.83,0.261,2.721c0.779,5.3,3.039,9.92,3.039,9.92
		c0.42,0.779,0.811,1.62,1.16,2.48C21.515,47.273,21.655,47.634,21.805,48.004"/>
	<path fill="#CDD6E0" d="M31.18,31.783c-0.03,0.92-0.12,1.83-0.26,2.721c-0.78,5.3-3.04,9.92-3.04,9.92
		c-0.41,0.76-0.79,1.59-1.141,2.43c-0.039,0.11-0.09,0.211-0.129,0.32c-0.121,0.279-0.23,0.561-0.34,0.83H21.75
		c-0.12-0.301-0.229-0.59-0.36-0.881c-0.029-0.069-0.06-0.149-0.09-0.219c-0.35-0.86-0.74-1.701-1.16-2.48c0,0-2.26-4.62-3.039-9.92
		c-0.141-0.891-0.23-1.801-0.261-2.721c-0.05-1.119,0-2.25,0.181-3.34h0.01v0.01c0.189,0.261,0.39,0.5,0.59,0.73
		c1.71,1.87,4.039,2.801,6.38,2.801c2.351,0,4.71-0.94,6.409-2.82c0.201-0.23,0.4-0.461,0.58-0.721c0,0,0.011,0,0.011-0.01
		C31.18,29.523,31.229,30.664,31.18,31.783"/>
	<path fill="#54C0EB" d="M25.44,39.113l1.17,8.061c-0.121,0.279-0.23,0.561-0.34,0.83H21.75c-0.12-0.301-0.229-0.59-0.36-0.881
		l1.15-8.01l-0.689-0.56c-0.08-0.55-0.061-1.09-0.101-1.569c-0.03-0.381-0.11-0.721-0.33-0.99c-0.34-0.43-0.61-0.7-0.61-0.7
		l0.95-0.271l1.03-0.359l1.199-0.42l1.24,0.43l1.01,0.35l0.951,0.271c0,0-0.271,0.271-0.61,0.7c-0.21,0.27-0.3,0.6-0.33,0.959
		c-0.06,0.49-0.03,1.041-0.12,1.601L25.44,39.113z"/>
	<path fill="#F8B64C" d="M16.916,29.313v-0.002l0.003,0.002l0.001-0.002v0.002c1.776,2.354,4.433,4.932,7.087,4.932
		c2.655,0,5.311-2.577,7.088-4.93l0.004-0.004v0.002v-5.193H16.912v5.195L16.916,29.313z"/>
	<path fill="#FFD15C" d="M34.364,10.292v3.4c0,0.06,0,0.13-0.011,0.19c0.011,0.05,0,0.09,0,0.14c0,0.06,0,0.13-0.01,0.19
		c-0.011,0.55-0.05,1.09-0.12,1.63c0,0.01,0,0.03-0.01,0.04c-0.03,0.27-0.07,0.53-0.11,0.8c-0.159,0.89-0.36,1.77-0.63,2.62
		c-0.85,2.71-2.279,5.21-4.21,7.32l-0.99,1.08c-0.899,0.99-2.18,1.549-3.521,1.549h-1.5c-1.329,0-2.609-0.569-3.51-1.549
		l-0.979-1.08c-1.37-1.49-2.49-3.19-3.319-5c-0.721-1.55-1.23-3.19-1.511-4.891c-0.05-0.27-0.08-0.54-0.12-0.81
		c0-0.03-0.01-0.05-0.01-0.08c-0.07-0.53-0.109-1.08-0.12-1.62v-0.11c0-0.01-0.01-0.01-0.01-0.02c-0.011-0.07-0.011-0.14-0.011-0.21
		v-0.19c-0.01-0.08-0.01-0.15-0.01-0.23v-3.11c0-0.57,0.051-1.13,0.15-1.68v-0.03c0.061-0.39,0.141-0.76,0.25-1.13
		c0.12-0.43,0.27-0.85,0.449-1.25c1.58-3.68,5.24-6.26,9.511-6.26c4.25,0,7.91,2.57,9.489,6.24c0.181,0.41,0.33,0.83,0.461,1.27
		c0.109,0.37,0.199,0.74,0.26,1.13v0.03C34.313,9.203,34.364,9.743,34.364,10.292"/>
	<g opacity="0.1">
		<g>
			<defs>
				<rect id="SVGID_69_" x="21.394" y="24.234" width="9.705" height="8.939"/>
			</defs>
			<clipPath id="SVGID_2_">
				<use xlink:href="#SVGID_69_"  overflow="visible"/>
			</clipPath>
			<path clip-path="url(#SVGID_2_)" fill="#40596B" d="M29.269,26.621l-0.99,1.08c-0.899,0.99-2.18,1.55-3.52,1.55h-1.5
				c-0.646,0-1.279-0.14-1.865-0.391l5.756,4.313c1.526-1.02,2.655-2.181,3.905-3.813c0.015-0.019,0.026-0.033,0.04-0.052
				l0.004-5.074C30.545,25.068,29.95,25.876,29.269,26.621"/>
		</g>
	</g>
	<path fill="#54C0EB" d="M27.19,35.294c0,0-0.271,0.271-0.61,0.7c-0.21,0.27-0.3,0.6-0.33,0.959c-0.91-0.609-1.72-1.159-2.229-1.5
		c-0.511,0.341-1.351,0.9-2.271,1.531c-0.03-0.381-0.11-0.721-0.33-0.99c-0.34-0.43-0.61-0.7-0.61-0.7l0.95-0.271l1.03-0.359
		l1.199-0.42l1.24,0.43l1.01,0.35L27.19,35.294z"/>
	<path fill="#F2F2F2" d="M24.007,34.244c-2.652,0-5.304-2.572-7.08-4.924c-0.5,4.172,1.01,9.02,1.01,9.02s5.721-3.863,6.095-4.096
		h-0.002C24.022,34.244,24.015,34.244,24.007,34.244"/>
	<path fill="#F2F2F2" d="M31.099,29.182v0.131v-0.004l-0.004,0.006c-1.776,2.352-4.433,4.931-7.088,4.93
		c0.375,0.232,6.096,4.096,6.096,4.096S31.65,33.385,31.099,29.182"/>
	<path fill="#40596B" d="M34.364,13.09c0,0-2.072,0.263-2.365-2.586c0,0,0.897-3.257-1.51-4.06c0,0-4.012,5.613-10.648,5.613
		c-1.791,0-4.896-1.816-6.182,1.58c0,0-0.549-0.537-0.511-1.66c0,0-0.883-3.634-0.636-4.343c0.855-2.451,2.248-5.687,9.314-7.419
		c0,0,10.894-1.782,12.027,4.822c0,0,2.02,0.089,1.314,4.502C35.169,9.539,35.726,11.745,34.364,13.09"/>
</g>
</svg>
