<?xml version="1.0" encoding="utf-8"?>
<!-- Generator: Adobe Illustrator 18.0.0, SVG Export Plug-In . SVG Version: 6.00 Build 0)  -->
<!DOCTYPE svg PUBLIC "-//W3C//DTD SVG 1.1//EN" "http://www.w3.org/Graphics/SVG/1.1/DTD/svg11.dtd">
<svg version="1.1" id="Layer_1" xmlns="http://www.w3.org/2000/svg" xmlns:xlink="http://www.w3.org/1999/xlink" x="0px" y="0px"
	 viewBox="0 0 48 48" enable-background="new 0 0 48 48" xml:space="preserve">
<g>
	<g>
		<g>
			<path fill="#435B6C" d="M45,3.2l-8.5,8.5v21.5c0,1.3-1,2.3-2.3,2.3h-7.2v2.3h7.2c2.5,0,4.6-2,4.6-4.6V12.6l7.8-7.8L45,3.2z"/>
			<path fill="#F3705B" d="M43.2,9.3l-2-2c-0.3-0.3-0.8-0.3-1.1,0l-4,4c-0.1,0.1-0.2,0.3-0.2,0.5V18c0,0.8,0.6,1.4,1.4,1.4H42
				c0.8,0,1.4-0.6,1.4-1.4V9.8C43.4,9.6,43.3,9.5,43.2,9.3z M42.3,16.7c0,0.1-0.1,0.3-0.3,0.3h-1.7c-0.1,0-0.3-0.1-0.3-0.3V13
				c0-0.2,0.2-0.3,0.4-0.2l1.7,1.1c0.1,0,0.1,0.1,0.1,0.2V16.7z"/>
		</g>
		<g>
			<g>
				<polygon fill="#CFD7E1" points="4.5,19.6 6,44.7 29,44.7 30.5,19.6 				"/>
				<g>
					<path fill="#E8EAE9" d="M31.4,0H3.5c-1.1,0-2,0.9-1.9,2l0.8,19.2c0,1,0.9,1.9,1.9,1.9h26.3c1,0,1.9-0.8,1.9-1.9L33.4,2
						C33.4,0.9,32.5,0,31.4,0z"/>
					<polygon fill="#435B6C" points="5.6,7.3 6,18.3 28.9,18.3 29.4,7.3 					"/>
				</g>
			</g>
			<path fill="#E8EAE9" d="M29.9,44.3H5.1c-2,0-3.7,1.7-3.7,3.7h32.2C33.6,46,31.9,44.3,29.9,44.3z"/>
		</g>
	</g>
</g>
</svg>
