<?xml version="1.0" encoding="utf-8"?>
<!-- Generator: Adobe Illustrator 18.0.0, SVG Export Plug-In . SVG Version: 6.00 Build 0)  -->
<!DOCTYPE svg PUBLIC "-//W3C//DTD SVG 1.1//EN" "http://www.w3.org/Graphics/SVG/1.1/DTD/svg11.dtd">
<svg version="1.1" id="Layer_1" xmlns="http://www.w3.org/2000/svg" xmlns:xlink="http://www.w3.org/1999/xlink" x="0px" y="0px"
	 viewBox="0 0 512 512" enable-background="new 0 0 512 512" xml:space="preserve">
<g>
	<path fill="#40596B" d="M461.3,201.8c-4.9-18.7-12.3-36.3-21.8-52.6l20.3-48.6l-48.3-48.3l-48.6,20.3
		c-16.3-9.5-33.9-16.9-52.6-21.8L290.2,2h-68.4l-20,48.7c-18.7,4.9-36.3,12.3-52.6,21.8l-48.6-20.3l-48.3,48.3l20.3,48.6
		c-9.5,16.3-16.9,33.9-21.8,52.6L2,221.8v68.4l48.7,20c4.9,18.7,12.3,36.3,21.8,52.6l-20.3,48.6l48.3,48.3l48.6-20.3
		c16.3,9.5,33.9,16.9,52.6,21.8l20,48.7h68.4l20-48.7c18.7-4.9,36.3-12.3,52.6-21.8l48.6,20.3l48.3-48.3l-20.3-48.6
		c9.5-16.3,16.9-33.9,21.8-52.6l48.7-20v-68.4L461.3,201.8z"/>
	<circle fill="#FFFFFF" cx="256" cy="256" r="169.8"/>
	<g>
		<path fill="#84DBFF" d="M335.6,136.7c-22.8-15.2-50.1-24.1-79.6-24.1c-33.3,0-64,11.4-88.4,30.5c0,0,0,0,0,0
			c-33.5,26.3-55,67.1-55,113c0,70.3,50.5,128.7,117.3,141.1h0c8.5,1.5,17.2,2.3,26.1,2.3c25,0,48.5-6.4,68.9-17.6
			c44.4-24.4,74.5-71.6,74.5-125.8C399.4,206.2,374.1,162.4,335.6,136.7z"/>
		<path fill="#54C0EB" d="M331.2,366.4c-2.3,2.1-5.4,3.7-6.5,6.6c-0.6,1.6-0.1,5.7,0.2,8.8C304.5,393,281,399.4,256,399.4
			c-8.9,0-17.6-0.8-26.1-2.3h0c-1.4-1.9-2.8-3.9-4.2-5.8c-2.4-3.3-4.9-7.3-3.8-11.2c3.7,0,8.1-0.4,9.9-3.6c1.8-3.2-0.4-7.4-3.4-9.4
			c-3.1-2-6.9-2.4-10.4-3.4c-3.5-1-7.2-2.8-8.6-6.2c-0.8-1.8-0.8-3.8-1.7-5.5c-1.2-2.2-3.6-3.4-5.8-4.4c-8.1-3.8-16.1-7.5-24.2-11.3
			c-7.4-3.4-15.8-8.1-16.9-16.2c-0.5-4,0.2-9.3-3.6-10.8c-1.3-0.5-2.7-0.3-3.9-0.8c-1.7-0.7-2.6-2.6-3.4-4.3
			c-5.9-13.6-11.9-28.6-7.9-42.8c1.9-6.6,5.8-12.5,8.4-18.9c5.1-12.4,5.3-26.2,5.4-39.6c0-1.9,0-3.8-0.8-5.5
			c-1.8-3.8-6.6-4.8-10.5-6.2c-3.9-1.4-8.2-5.1-6.8-9l1.3,0.9c-0.7,3.2,3.6,6,6.2,4.2c-0.2-4.1,3.8-7,7.3-9.1
			c7.4-4.4,15.8-9,24.1-6.6c-3.2,6,1.9,13,6.8,17.6c4.7,4.3,9.8,8.3,15,12c1.1-2.1-0.9-5-3.2-4.9c-0.3-3.1-1.4-6.1-3.2-8.6
			c2.1-1.6,5.1-0.6,7.2,0.9c5.2,3.5,8.7,9.4,9.4,15.6c0.9-3,2.4-6.5,5.5-6.8c0.4,2.3,0.8,4.6,1.2,6.9c2.2-0.2,4.5-0.4,6.5,0.5
			c2,0.9,3.6,3.2,2.8,5.3c-7.9,0.2-12.1,9.3-14.3,17c-0.3,1.2-0.7,2.4-0.4,3.6c0.4,2.3,2.6,3.8,4.5,5.3c4.3,3.2,7.7,7.6,9.8,12.5
			c6.1-6.4,0.4-17.3,3.5-25.6c2.6-0.4,5,0.8,7.3,2c3.5,1.8,7,3.7,10.4,5.5c7.4,3.9,15.8,9.4,15.9,17.7c-6.3,1.1-12,4.7-15.7,9.8
			c2.2-3.3,8.3-2.2,9.2,1.7c1-1.7,3.3-2.4,5-1.5c1.7,0.9,2.6,3.2,1.8,4.9c-1.5,3.2-6.6,3.4-8,6.6c-0.9-1.2-1.8-2.3-2.6-3.5
			c-6.3,5.5-10.9,12.8-13.2,20.9c-0.8,2.8-1.4,5.8-3.1,8.1c-1.8,2.4-4.5,3.8-6.6,6c-4.3,4.5-4.7,11.2-4.5,17.6
			c-0.7-3.5-3.7-6.5-7.2-7.8c-4.2-1.7-8.8-1.6-13.2-1.9c-4.9-0.4-9.9-1.2-14.6,0.2c-4.7,1.4-9,5.8-8.1,10.7c2.7,0,5.4-1,7.5-2.6
			c-2.8,2.6-3.5,7.2-1.5,10.5c2.2,3.6,7.2,5,10.9,3c1.1-0.5,2-1.3,3.2-1.6c2.7-0.6,5.3,2,5.8,4.8c0.4,2.8-0.6,5.5-1.7,8.1
			c7.7-1.4,16,5,16.5,12.8c0.1,1.4,0,3,0.7,4.2c1.7,2.9,6.1,1.9,9.3,0.8c9.7-3.6,20-5.6,30.3-5.9c2.9-0.1,5.8,0,8.6,0.1
			c10.8,0.6,21.5,2.6,31.8,5.9c7.3,2.4,15.6,5.4,22.3,1.6c2.7-1.5,5.4-4,8.3-2.9C334.9,360.1,333.5,364.2,331.2,366.4z"/>
		<path fill="#54C0EB" d="M275.8,215.5c-0.5,1.5-2.8,0.2-3.5-1.3c-3-6.3-3.2-13.9-0.8-20.4c0.8-2,1.8-4.1,1.2-6.2
			c-0.6-1.9-2.3-3.1-4-4.2c-5-3.2-9.9-6.5-14.9-9.7c-2.6-1.7-5.3-3.4-8.3-4.2c-3-0.8-6.5-0.5-8.8,1.6c-1.1,1-2,2.3-3.4,2.6
			c-1.1,0.2-2.2-0.2-3.2-0.6c-3.4-1.2-7.1-1.4-10.7-0.7c-1.7,1.8,4.2,4.1,2.6,6c-0.2,0.3-0.6,0.5-0.9,0.6c-2.4,1.3-3.3,4.6-2.1,7
			c1.3,2.4,4.6,3.4,6.9,2.1c0.8-1.6,1.5-3.3,2.3-4.9c0.7,3.5,3.8,6,7,7.7s6.7,2.8,9.5,5c5.8,4.8,6.9,13.5,12.3,18.8
			c4.7,4.7,12.5,5.9,18.4,2.8L275.8,215.5z"/>
		<path fill="#54C0EB" d="M286.8,186.1c-2.1-0.3-4.2-0.4-6.3-0.1c-0.4,0-0.8,0.1-1.1,0.4c-0.5,0.5-0.2,1.4-0.4,2.1
			c-0.2,0.7-0.8,1.2-1.3,1.7c-1.4,1.6-1.3,4.1-0.3,6c0.9,1.9,2.5,3.3,4.1,4.7c0.8,0.7,1.9,1.4,2.7,0.8c0.4-0.3,0.5-0.7,0.7-1.2
			c1.4-4.2,2.6-8.5,3.6-12.8L286.8,186.1z"/>
		<path fill="#54C0EB" d="M341.4,188.6c2.2,0.9,3.2,4.6,1.1,6.2c-2.3,3.7-7.2,5.5-11.3,4.1c-2.9-1-5.1-3.3-7-5.7
			c-2.7-3.4-5-7.1-6.8-11c-2-4.3-3.4-8.9-5.8-12.9c-2.4-4-6.2-7.7-10.8-8.5c-2.7,1.7-0.4,6,2.3,7.6c2.8,1.6,6.5,2.9,6.8,6.1
			c0.3,2.7-2.4,4.9-5.1,5.3c-2.7,0.3-5.3-0.8-7.8-1.9c-5.2-2.3-10.5-4.6-14.8-8.3c-4.3-3.7-7.5-9.1-7.2-14.7c2.8,0,5.6,0,8.5,0
			c2-2.6-1.6-6-4.8-6.5c-3.2-0.6-7.1-0.5-8.7-3.3c-0.6-1.2-0.7-2.6-1.1-3.8c-1.1-3.4-4.5-5.7-8.1-6.4c-3.6-0.7-7.2-0.2-10.8,0.2
			c-9,1.1-18,1.7-27.1,1.8c-3.2,0-7.5-1.1-7.4-4.3c-5.1,3.2-12.1,2-17.2,5.2c-1.1,0.7-2.1,1.7-3.4,2c-2.6,0.8-5.3-0.9-7.9-1.1
			c-4.5-0.4-8.3,2.8-12.5,4.4c-2.1,0.8-4.9,0.8-7-0.1c24.3-19.1,55-30.5,88.4-30.5c29.4,0,56.8,8.9,79.6,24.1
			c5.1,10.9,6.7,23.7,6.1,35.8c-0.1,2.4-0.3,5,1,7c0.8,1.2,2,2,2.6,3.2C346.5,185.3,344,188.6,341.4,188.6z"/>
	</g>
</g>
</svg>
