<?xml version="1.0" encoding="utf-8"?>
<!-- Generator: Adobe Illustrator 18.0.0, SVG Export Plug-In . SVG Version: 6.00 Build 0)  -->
<!DOCTYPE svg PUBLIC "-//W3C//DTD SVG 1.1//EN" "http://www.w3.org/Graphics/SVG/1.1/DTD/svg11.dtd">
<svg version="1.1" id="Layer_1" xmlns="http://www.w3.org/2000/svg" xmlns:xlink="http://www.w3.org/1999/xlink" x="0px" y="0px"
	 viewBox="0 0 48 48" enable-background="new 0 0 48 48" xml:space="preserve">
<g>
	<rect x="32.6" y="4.3" fill="#334A5E" width="7.6" height="0.9"/>
	<path fill="#40596B" d="M40.6,0h-8.4c-0.6,0-1,0.4-1,1v2.3c0,0.6,0.4,1,1,1h8.4c0.6,0,1-0.4,1-1V1C41.6,0.4,41.1,0,40.6,0z"/>
	<path fill="#40596B" d="M41.1,6.2c0-0.6-0.4-1-1-1h-7.4c-0.5,0-1,0.4-1,1C31.5,6.1,31.2,6.1,31,6c-2.5-3.8-6.7-6-11.2-6
		C12.4,0,6.4,6,6.4,13.4V46c0,1.1,0.9,2,2,2h30.7c1.1,0,2-0.9,2-2V18.1h0V6.2z M11.4,16v-2.6c0-4.6,3.8-8.4,8.4-8.4
		c2.8,0,5.5,1.4,7,3.8l0.3,0.5L11.4,16z"/>
	<g>
		<path fill="#FF7058" d="M31,31.9c0,4-3.3,7.3-7.3,7.3s-7.3-3.3-7.3-7.3s7.3-12.6,7.3-12.6S31,27.9,31,31.9z"/>
		<g>
			<path fill="#F2F2F2" d="M24.2,37.8c-3.3,0-5.9-2.6-5.9-5.9c0-0.3,0.2-0.6,0.6-0.6c0.3,0,0.6,0.2,0.6,0.6c0,2.6,2.2,4.8,4.8,4.8
				c0.3,0,0.6,0.2,0.6,0.6S24.5,37.8,24.2,37.8z"/>
		</g>
	</g>
	<path fill="#CDD6E0" d="M37.3,37.3L37.3,37.3c-0.5,0-0.9-0.4-0.9-0.9V19.7c0-0.5,0.4-0.9,0.9-0.9h0c0.5,0,0.9,0.4,0.9,0.9v16.6
		C38.2,36.8,37.8,37.3,37.3,37.3z"/>
</g>
</svg>
