<?xml version="1.0" encoding="utf-8"?>
<!-- Generator: Adobe Illustrator 18.0.0, SVG Export Plug-In . SVG Version: 6.00 Build 0)  -->
<!DOCTYPE svg PUBLIC "-//W3C//DTD SVG 1.1//EN" "http://www.w3.org/Graphics/SVG/1.1/DTD/svg11.dtd">
<svg version="1.1" id="Layer_1" xmlns="http://www.w3.org/2000/svg" xmlns:xlink="http://www.w3.org/1999/xlink" x="0px" y="0px"
	 viewBox="0 0 48 48" enable-background="new 0 0 48 48" xml:space="preserve">
<g>
	<path fill="#FF7058" d="M28.2,15.4c0.2,6.4-3.7,11.1-9.8,12.3l-2.4-7l0,0l-2.6,0h0l-1.7-4.9l-1.2-3.3L8,5.7c0,0,2.7,0,3-1
		c0.1-0.4-0.3-1.4,0-1.7c2.4-2.5,10-0.8,13.6,3.6C26.7,8.9,28.1,12,28.2,15.4z"/>
	<path fill="#40596B" d="M5.1,19.7c0.1,0.3,0.1,0.6,0.2,0.9c-1.7-1.3-2.9-3.2-3.2-5.4C1.5,11,4,7,8,5.7v0l2.4,6.7
		C6.9,13,4.6,16.3,5.1,19.7z"/>
	<path fill="#40596B" d="M28.2,15.4c0.2,6.4-3.7,11.1-9.8,12.3l-2.4-7c1.9-0.1,3.6-1.1,5-2.6c0.5-0.5,0.9-1.1,1.3-1.7
		c0.1-0.2,0.2-0.3,0.3-0.5c0.2-0.3,0.4-0.6,0.5-1c0.2-0.5,0.5-1,0.6-1.5c0.7-1.8,1-3.7,1-5.4c0-0.5-0.1-0.9-0.2-1.4
		C26.7,8.9,28.1,12,28.2,15.4z"/>
	<path fill="#F2F2F2" d="M24.7,8.1c0,1.7-0.3,3.6-1,5.4c-0.2,0.5-0.4,1-0.6,1.5c-0.2,0.3-0.3,0.6-0.5,1c-0.1,0.1-0.2,0.3-0.3,0.5
		c-0.4,0.6-0.8,1.2-1.3,1.7c-1.4,1.5-3.1,2.5-5,2.6h0v0l-2.6,0l-1.8-4.9l-1.2-3.3L8,5.7c0,0,2.7,0,3-1c0.1-0.4-0.3-1.4,0-1.7
		c2.4-2.5,10-0.8,13.6,3.6C24.6,7.1,24.7,7.6,24.7,8.1z"/>
	<path opacity="5.000000e-002" fill="#231F20" d="M24.5,6.7C21,2.2,13.3,0.5,11,3c-0.1,0.1-0.1,0.3-0.1,0.6C14,2.4,20.1,4.2,23.2,8
		c0.1,0.5,0.1,0.9,0.2,1.4c0,1.7-0.3,3.6-1,5.4c-0.2,0.5-0.4,1-0.6,1.5c-0.2,0.3-0.3,0.6-0.5,1c-0.1,0.1-0.2,0.3-0.3,0.5
		c-0.3,0.5-0.6,0.9-1,1.3c0.4-0.3,0.7-0.6,1.1-1c0.5-0.5,0.9-1.1,1.3-1.7c0.1-0.2,0.2-0.3,0.3-0.5c0.2-0.3,0.4-0.6,0.5-1
		c0.2-0.5,0.5-1,0.6-1.5c0.7-1.8,1-3.7,1-5.4C24.7,7.6,24.6,7.1,24.5,6.7z"/>
	<path fill="#40596B" d="M6.3,18.8c-0.2-0.1-0.4-0.1-0.6-0.2c0.8,1.2,2,2.1,3.4,2.5c1.5,0.4,2.9,0.2,4.2-0.5l-1.7-4.8
		C10.9,18.1,8.6,19.4,6.3,18.8z"/>
	<g>
		<circle fill="#84DBFF" cx="15.7" cy="7.6" r="2.6"/>
		<circle fill="#40596B" cx="15.7" cy="7.6" r="1.6"/>
		<circle fill="#FFFFFF" cx="14.8" cy="6.6" r="0.6"/>
	</g>
	<path fill="#FF7058" d="M45.9,47.9c0-4.3-1.1-13.1-7.7-21c0.5-7.5-1.5-13-4.2-17c-3.5-5.3-9.3-9-15.6-9.7c4.5,3.2,6,6.4,6,6.4
		c2.2,2.3,3.6,5.3,3.7,8.7c0.2,6.4-3.7,11.1-9.8,12.3c0,0-5.7,9.6-3.3,20.2H45.9z"/>
	<path fill="#54C0EB" d="M18.5,0.2c-0.7-0.1-1.4-0.1-2.1-0.1c-3.8,0-5.8,1-6.9,2.5C8.2,4.5,8,5.7,8,5.7v0c0,0,2.7,0,3-1
		c0.1-0.4-0.3-1.4,0-1.7c2.4-2.5,10-0.8,13.6,3.6C24.5,6.7,23,3.4,18.5,0.2z"/>
	<path fill="#FFD15C" d="M25.8,47.9h19.6c-1.1-4.4-3.1-10.4-6.3-14.3c-4.4-5.2-13.1-2.9-14,3.9c-0.3,2.4-0.2,5.6,0.6,9.7
		C25.8,47.2,25.8,47.5,25.8,47.9z"/>
	<path opacity="5.000000e-002" fill="#231F20" d="M25.8,47.9h1.7c-0.6-3.4-0.6-6.2-0.3-8.3c0.8-6.1,8-8.6,12.6-5.1
		c-0.2-0.3-0.4-0.6-0.7-0.9c-4.4-5.2-13.1-2.9-14,3.9c-0.3,2.4-0.2,5.6,0.6,9.7C25.8,47.2,25.8,47.5,25.8,47.9z"/>
</g>
</svg>
