<?xml version="1.0" encoding="utf-8"?>
<!-- Generator: Adobe Illustrator 18.0.0, SVG Export Plug-In . SVG Version: 6.00 Build 0)  -->
<!DOCTYPE svg PUBLIC "-//W3C//DTD SVG 1.1//EN" "http://www.w3.org/Graphics/SVG/1.1/DTD/svg11.dtd">
<svg version="1.1" id="Layer_1" xmlns="http://www.w3.org/2000/svg" xmlns:xlink="http://www.w3.org/1999/xlink" x="0px" y="0px"
	 viewBox="0 0 48 48" enable-background="new 0 0 48 48" xml:space="preserve">
<g>
	<g>
		<g>
			<path fill="#415A6B" d="M46.5,5.5h-4.8v3H45v8.7l-24.2,4.8c-0.7,0.1-1.2,0.8-1.2,1.5v5h3v-3.8l24.2-4.8c0.7-0.1,1.2-0.8,1.2-1.5
				V7C48,6.2,47.3,5.5,46.5,5.5z"/>
		</g>
	</g>
	<g>
		<g>
			<path fill="#66C6B9" d="M16.3,29.6v13.6c0,2.6,2.1,4.8,4.8,4.8h0c2.6,0,4.8-2.1,4.8-4.8V29.6H16.3z"/>
		</g>
		<g>
			<rect x="16.3" y="29.2" fill="#4EC0AA" width="9.6" height="2.9"/>
		</g>
		<g>
			<path fill="#66C6B9" d="M25.9,30.1h-9.6c-0.8,0-1.5-0.7-1.5-1.5s0.7-1.5,1.5-1.5h9.6c0.8,0,1.5,0.7,1.5,1.5S26.7,30.1,25.9,30.1z
				"/>
		</g>
	</g>
	<g>
		<g>
			<path fill="#E8EAE9" d="M40.8,14H2.4C1.1,14,0,12.9,0,11.6V2.4C0,1.1,1.1,0,2.4,0h38.4c1.3,0,2.4,1.1,2.4,2.4v9.2
				C43.1,12.9,42.1,14,40.8,14z"/>
		</g>
	</g>
</g>
</svg>
