<?xml version="1.0" encoding="utf-8"?>
<!-- Generator: Adobe Illustrator 18.0.0, SVG Export Plug-In . SVG Version: 6.00 Build 0)  -->
<!DOCTYPE svg PUBLIC "-//W3C//DTD SVG 1.1//EN" "http://www.w3.org/Graphics/SVG/1.1/DTD/svg11.dtd">
<svg version="1.1" id="Layer_1" xmlns="http://www.w3.org/2000/svg" xmlns:xlink="http://www.w3.org/1999/xlink" x="0px" y="0px"
	 viewBox="0 0 48 48" enable-background="new 0 0 48 48" xml:space="preserve">
<g>
	<g>
		<path fill="#F3F3F3" d="M32.6,0h-25c-1.7,0-3,1.3-3,3v42c0,1.7,1.3,3,3,3h32.8c1.7,0,3-1.3,3-3V10.8L32.6,0z"/>
		<g>
			<polygon fill="#CED6E0" points="32.6,0 32.6,10.8 43.4,10.8 			"/>
		</g>
		<g>
			<path fill="#415A6B" d="M38.4,43L35,41v1H10.6V8.5h1L9.6,5l-2,3.5h1V43c0,0.6,0.4,1,1,1H35v1L38.4,43z"/>
			<g>
				<g>
					<rect x="13.7" y="22.1" fill="#FFD15C" width="4.8" height="16.5"/>
				</g>
			</g>
			<g>
				<g>
					<rect x="22.2" y="14.4" fill="#F3705A" width="4.8" height="24.1"/>
				</g>
			</g>
			<g>
				<g>
					<rect x="30.7" y="29.3" fill="#8AD7F8" width="4.8" height="9.3"/>
				</g>
			</g>
		</g>
	</g>
</g>
</svg>
