<?xml version="1.0" encoding="utf-8"?>
<!-- Generator: Adobe Illustrator 18.0.0, SVG Export Plug-In . SVG Version: 6.00 Build 0)  -->
<!DOCTYPE svg PUBLIC "-//W3C//DTD SVG 1.1//EN" "http://www.w3.org/Graphics/SVG/1.1/DTD/svg11.dtd">
<svg version="1.1" id="Layer_1" xmlns="http://www.w3.org/2000/svg" xmlns:xlink="http://www.w3.org/1999/xlink" x="0px" y="0px"
	 viewBox="0 0 48 48" enable-background="new 0 0 48 48" xml:space="preserve">
<g>
	<g>
		<g>
			<g>
				<g>
					<path fill="#F6B64C" d="M29.1,22.7l0.8,5c0.2,1.5,0.9,2.8,1.9,3.9l0.5,0.5L21,43.6c0,0-3.3-2.4-3.6-2.6
						c-3.9-2.2-3.5-10.8-1.1-9.6C16.3,31.4,24.6,22.1,29.1,22.7z"/>
				</g>
				<path fill="#354B5E" d="M36.3,33.5l-0.2-0.1l-1.4-0.8l-3-1.8c-1.2,4.7-8.8,9.1-11.5,8.9c-1.5-0.1-5.6-1.9-6.5-3.1
					c-1,0.7-2.4,1.6-4.6,2.5c-5.1,2.1-4.7,8.6-4.7,9h34.4v-7.3L36.3,33.5z"/>
				<path fill="#F3F3F3" d="M16.9,34.3c0,0-0.7,3.3-1.2,4c-0.5,0.6-1.9,3.8-1.9,3.8s-2,3-1.5,4.7c0,0,3.9-3.1,5-6.5
					c0.5-1.4,1.8-0.9,1.8-0.9S16.9,37.4,16.9,34.3z"/>
				<path fill="#F15741" d="M35.3,27.1l-0.6-8.6c0,0-0.1-5.5-1.8-7.4c0,0-0.8-1.8-1.2-2.2L11.3,20.8l-2.7,1.8c0,0,2.6,4.4,1.6,7
					c-1,2.6-2.8,4.9-2.8,4.9c1,0.6,2.1,1.1,3.1,1.3c1.8,0.5,3,2.3,2.8,4.2c-0.1,0.8-2,8-2,8h2.4c0,0,0.9-8.1,3.3-12.2l-0.8-4.4
					c0,0,8.3-9.3,12.8-8.7l0.9,5.8c0.1,0.9,0.6,1.8,1.2,2.5c0.3,0.3,0.7,0.6,1,1.1c1.9,2.9,4.2,3.3,4.2,3.3L35.3,27.1z"/>
				<g>
					<g>
						<g>
							<path fill="#FFD15D" d="M29.4,11.8l-0.6-4L19.4,7l-8.9,3.1l0,0.1c0.8,3.5,1.3,7.1,1.5,10.7c0.1,2.2,0.4,4.6,0.7,5.4
								c0.8,1.6,3.7,7.3,4.2,9c0.2,0.6,0.6,1.1,1.2,1.4c1.6,1,3.6,1,5.2,0.1c2-1.1,4.5-3.4,5.5-8.1c0-0.1,0-0.2,0.1-0.3
								C30,23,30.2,17.4,29.4,11.8z"/>
							<path fill="#FFD15D" d="M12.8,20.1c-0.1-0.4-0.4-0.8-0.6-1.2c-0.3-0.4-0.4-0.6-0.7-1.3c-0.1-0.1-0.1-0.2-0.2-0.4
								c-0.3-0.6-0.7-0.9-1.1-0.8c-0.2,0-0.3,0.2-0.4,0.3c-0.1,0.2-0.1,0.3-0.1,0.5c-0.1,0.9,0.2,1.9,0.3,2.8c0.1,1,0.2,2,0.6,2.9
								c0.2,0.3,0.4,0.6,0.7,0.7c0.3,0.1,0.7,0.1,0.8-0.2c0.1-0.2,0.1-0.4,0.1-0.6c0.1-0.5,0.4-0.9,0.6-1.3
								C12.9,21.1,12.9,20.6,12.8,20.1z"/>
							<path fill="#F6B64C" d="M10.7,18.2c0.3,0.3,0.4,0.7,0.3,1.1c-0.1,0.3-0.2,0.6-0.3,0.9c0,0.1-0.1,0.3-0.1,0.4
								c0,0.2,0.1,0.3,0.2,0.4c0.1,0,0.1,0,0.2,0c0.1-0.1,0.2-0.2,0.2-0.4c0-0.3,0.1-0.5,0.1-0.8c0-0.3,0.1-0.5,0-0.8
								c-0.3-1.2-1-1.7-1.5-1.8c-0.1,0.7,0.1,1.6,0.3,2.5c0-0.6,0.1-1.2,0.2-1.8C10.5,18.1,10.6,18.1,10.7,18.2z"/>
							<path fill="#435B6C" d="M18,27.6c-0.4,0.8-0.3,1.8,0.1,2.7c0.3,0.7,0.8,1.3,1.4,1.7c0.6,0.4,1.4,0.6,2.2,0.5
								c0.7-0.1,1.4-0.6,1.8-1.3c0.2-0.4,0.3-0.9,0.4-1.4c0.2-0.4,0.4-0.9,0.3-1.3c-0.1-0.3-0.4-0.6-0.7-0.7
								c-0.8-0.4-1.8-0.3-2.7-0.3c-0.7,0-1.5,0-2.2-0.2c-0.1,0-0.3,0-0.4,0c-0.1,0-0.3,0.1-0.3,0.2"/>
							<path fill="#F15741" d="M23.8,28.1c0.1,0.3-0.3,1-0.3,1.1c-0.1,0.3-0.3,0.6-0.6,0.8c-0.3,0.2-0.6,0.4-1,0.3
								c-0.3,0-0.7-0.2-0.8-0.5c-0.2,0.3-0.5,0.6-0.9,0.6c-0.4,0-0.8-0.2-1-0.5c-0.2-0.3-0.2-0.7-0.1-1.1l-0.1-0.1
								c0.1-0.2,0.3-0.4,0.5-0.5c0.2-0.1,0.5-0.1,0.7-0.1c0.6,0,1.2,0,1.7,0l0.4-0.5L23.8,28.1z"/>
							<g>
								<path fill="#FFFFFF" d="M18.3,30c0-0.2,0.2-0.3,0.3-0.1c0.1,0.1,0.2,0.3,0.2,0.4c0.1,0.3,0.1,0.5,0.3,0.8
									c0.2,0.4,0.7,0.6,1.2,0.8c0.4,0.1,0.9,0.2,1.3,0.2c0.4-0.1,0.9-0.3,1.1-0.6c-0.1,0.3-0.3,0.5-0.6,0.6
									c-0.3,0.1-0.6,0.3-0.9,0.3c-0.7,0-1.5-0.3-2.1-0.7C18.7,31.2,18.3,30.6,18.3,30z"/>
							</g>
							<g>
								<path fill="#FFFFFF" d="M21.7,32.1c0.5-0.1,0.9-0.5,1-0.9c0-0.2,0-0.3,0.1-0.5c0-0.1,0.1-0.1,0.2,0c0,0,0,0.1,0,0.1
									c0,0.3-0.1,0.6-0.2,0.8c-0.2,0.2-0.4,0.4-0.7,0.4c-0.3,0.1-0.5,0.1-0.8,0.1"/>
							</g>
							<g>
								<g>
									<path fill="#F6B64C" d="M21.9,20c0,0.3-0.2,0.5-0.4,0.7c0.1,0,0.2-0.1,0.3-0.2c0,0.3,0.3,0.6,0.6,0.8
										c0.3,0.2,0.6,0.4,0.7,0.7c-0.1-0.2-0.2-0.5-0.3-0.7c0.5,0.2,1,0.5,1.4,0.8c-0.2-0.2-0.3-0.5-0.5-0.7
										c0.7,0.3,1.5,0.5,2.2,0.4c0.8-0.1,1.5-0.4,2-1c0.2,0.1,0.4,0.1,0.6,0.2c-0.3-0.3-0.7-0.5-1.1-0.6c0.3-0.1,0.7,0,1,0.1
										c-0.2-0.1-0.5-0.3-0.7-0.4c0.3-0.2,0.5-0.5,0.5-0.9c-0.1,0.3-0.5,0.6-0.8,0.6c0.5-0.2,0.8-0.7,0.7-1.2
										c0,0.1-0.1,0.2-0.1,0.3c0-0.5-0.3-1.1-0.8-1.4c-0.4-0.3-1-0.5-1.6-0.4c-0.6,0.1-1.1,0.4-1.6,0.7c-0.5,0.3-1.1,0.6-1.6,0.9
										c-0.5,0.4-0.9,0.9-1.1,1.5c0.1-0.1,0.2-0.2,0.3-0.3C21.9,19.9,21.9,19.9,21.9,20"/>
								</g>
								<g>
									<path fill="#F3705B" d="M23.2,19.6c0.3-0.3,0.6-0.4,0.9-0.4c-0.5-0.1-1,0-1.5,0.4c-0.1,0.1-0.2,0.2-0.3,0.4
										c0,0.1,0,0.2,0.1,0.3c0.1,0.1,0.2,0.1,0.3,0.1c0.3,0.1,0.6,0.1,0.9,0.1c0.3,0.1,0.6,0.2,0.8,0.2c0.3,0.1,0.6,0.2,0.8,0.2
										c0.3,0,0.6-0.1,0.8-0.3c-0.3,0.2-0.7,0.2-1.1,0.1c0.6-0.1,1.2-0.3,1.6-0.7c-0.2,0.1-0.3,0.2-0.5,0.2
										c0.2-0.1,0.4-0.2,0.4-0.5c0-0.2-0.1-0.3-0.2-0.4c-0.1-0.1-0.3-0.1-0.4-0.1c-0.4-0.1-0.9-0.1-1.3-0.1
										C24.1,19.2,23.6,19.4,23.2,19.6"/>
								</g>
								<g>
									<path fill="#FFFFFF" d="M23,20.1c0.2-0.1,0.5,0,0.7,0c0.2,0.1,0.5,0.2,0.7,0.3c0.7,0.2,1.4-0.1,1.8-0.6
										c-0.2-0.2-0.4-0.4-0.6-0.5c-0.2-0.1-0.5-0.2-0.8-0.2c-0.6,0-1.3,0.2-1.8,0.5c-0.1,0.1-0.2,0.1-0.2,0.2
										C22.8,19.9,22.9,20,23,20.1"/>
								</g>
								<g>
									<path fill="#435B6C" d="M25.4,19.7C25.4,19.7,25.4,19.7,25.4,19.7c0-0.3-0.2-0.6-0.5-0.6c0,0,0,0,0,0c-0.1,0-0.3,0-0.4,0
										c-0.2,0-0.4,0.2-0.4,0.5c0,0,0,0,0,0c0,0.4,0.4,0.7,0.8,0.7C25.1,20.2,25.3,20,25.4,19.7z"/>
									<g>
										<circle fill="#354B5E" cx="24.7" cy="19.6" r="0.2"/>
									</g>
									<g>
										<circle fill="#FFFFFF" cx="24.7" cy="19.4" r="0.1"/>
									</g>
									<g>
										<circle fill="#FFFFFF" cx="24.6" cy="19.8" r="0.1"/>
									</g>
								</g>
							</g>
							<path fill="#F6B64C" d="M18.9,19.7c0.1,0.2,0.3,0.4,0.5,0.6c-0.1,0-0.2,0-0.3-0.1c0,0.3-0.2,0.6-0.4,0.9
								c-0.2,0.2-0.5,0.5-0.6,0.8c0.1-0.2,0.1-0.5,0.2-0.7c-0.5,0.3-0.9,0.6-1.2,1.1c0.1-0.3,0.2-0.5,0.4-0.8
								c-0.6,0.4-1.4,0.8-2.1,0.8c-0.8,0.1-1.6-0.1-2.2-0.6c-0.2,0.1-0.4,0.2-0.6,0.3c0.3-0.3,0.6-0.6,0.9-0.8c-0.3,0-0.7,0.1-1,0.3
								c0.2-0.2,0.4-0.4,0.6-0.5c-0.3-0.1-0.6-0.4-0.7-0.8c0.2,0.3,0.6,0.5,0.9,0.4c-0.5-0.1-0.9-0.6-0.9-1.1
								c0.1,0.1,0.1,0.2,0.2,0.2c-0.1-0.5,0.1-1.1,0.5-1.5c0.4-0.4,0.9-0.7,1.5-0.7c0.6,0,1.1,0.2,1.7,0.4c0.6,0.2,1.2,0.4,1.7,0.6
								c0.6,0.3,1.1,0.7,1.3,1.2c-0.1-0.1-0.2-0.1-0.3-0.2C18.9,19.6,18.9,19.6,18.9,19.7"/>
							<path fill="#F3705B" d="M17.6,19.5c-0.3-0.2-0.7-0.2-0.9-0.3c0.4-0.2,1-0.2,1.5,0.1c0.1,0.1,0.3,0.2,0.3,0.3
								c0,0.1,0,0.2-0.1,0.3c-0.1,0.1-0.2,0.1-0.3,0.2c-0.3,0.1-0.6,0.2-0.8,0.3c-0.3,0.1-0.5,0.3-0.8,0.4s-0.5,0.3-0.8,0.3
								c-0.3,0.1-0.6,0-0.8-0.1c0.3,0.1,0.7,0.1,1.1-0.1c-0.6,0-1.2-0.1-1.7-0.4c0.2,0.1,0.4,0.1,0.6,0.1c-0.2,0-0.4-0.2-0.5-0.4
								c0-0.1,0-0.3,0.2-0.4c0.1-0.1,0.2-0.2,0.4-0.2c0.4-0.2,0.9-0.3,1.3-0.3C16.7,19.3,17.2,19.4,17.6,19.5"/>
							<path fill="#FFFFFF" d="M17.9,19.9c-0.2,0-0.5,0.1-0.7,0.2c-0.2,0.1-0.4,0.3-0.6,0.4c-0.6,0.3-1.4,0.2-1.9-0.3
								c0.1-0.2,0.3-0.4,0.5-0.6c0.2-0.2,0.5-0.3,0.8-0.3c0.6-0.1,1.3-0.1,1.9,0.1c0.1,0,0.2,0.1,0.2,0.2
								C18.1,19.8,18,19.9,17.9,19.9"/>
							<path fill="#435B6C" d="M16,19.8C16,19.8,16,19.8,16,19.8c0-0.3,0.2-0.6,0.5-0.6c0,0,0,0,0,0c0.1,0,0.3,0,0.4,0
								c0.2,0,0.4,0.2,0.4,0.5c0,0,0,0,0,0c0,0.4-0.4,0.7-0.8,0.7C16.3,20.4,16,20.1,16,19.8z"/>
							<g>
								<path fill="#F3705B" d="M18.4,20c-0.1,0.1-0.2,0.1-0.3,0.2c-0.3,0.1-0.6,0.2-0.8,0.3c-0.3,0.1-0.5,0.3-0.8,0.4
									c-0.3,0.1-0.5,0.3-0.8,0.3c-0.3,0.1-0.6,0-0.8-0.1c0.3,0.1,0.7,0.1,1.1-0.1c-0.6,0-1.2-0.1-1.7-0.4c0.2,0.1,0.4,0.1,0.6,0.1
									c-0.2,0-0.4-0.2-0.5-0.4c0-0.1,0-0.3,0.2-0.4c0.1-0.1,0.3-0.2,0.4-0.2c0.2-0.1,0.3-0.1,0.5-0.2c-0.1,0-0.2,0.1-0.3,0.2
									c-0.2,0.2-0.4,0.4-0.5,0.6c0.5,0.5,1.3,0.6,1.9,0.3c0.2-0.1,0.4-0.3,0.6-0.4c0.2-0.1,0.5-0.2,0.7-0.2l0,0
									c0.1,0,0.2-0.2,0.1-0.3c0-0.1-0.1-0.1-0.2-0.2c-0.4-0.1-1.2-0.2-1.6-0.2c0,0,1-0.3,2,0.1c0.1,0.1,0.3,0.2,0.3,0.3
									C18.5,19.8,18.5,19.9,18.4,20z"/>
							</g>
							<circle fill="#354B5E" cx="16.7" cy="19.8" r="0.2"/>
							<g>
								<circle fill="#FFFFFF" cx="16.8" cy="19.6" r="0.1"/>
							</g>
							<circle fill="#FFFFFF" cx="16.7" cy="20" r="0.1"/>
							<path fill="#F3705B" d="M17.9,28.5c0,0,0.5,3.1,2.4,3.6c1.9,0.5,2.6-0.7,2.6-0.7s0.8-1.8,1.1-2c0.2-0.2,0.3-0.7,0.3-0.7
								s0,2.4-0.8,3.5c-0.9,1.2-1.8,1.4-2.7,1.3c-0.9-0.1-2-0.7-2.8-2.3c-0.8-1.6-0.4-3.3-0.4-3.3L17.9,28.5z"/>
							<path fill="#F6B64C" d="M22.4,22.7C22.4,22.7,22.4,22.7,22.4,22.7c0.1,0.1,0.2,0.2,0.2,0.2c0,0,0.1,0.1,0.1,0.1
								c0,0,0.1,0.1,0.1,0.2c0.1,0.1,0.1,0.1,0.2,0.2c0.1,0.1,0.1,0.1,0.2,0.2c0.1,0.1,0.1,0.1,0.2,0.2c0.1,0.1,0.1,0.2,0.2,0.3
								c0,0,0.1,0.1,0.1,0.1c0,0,0.1,0.1,0.1,0.1c0.1,0.1,0.1,0.2,0.2,0.3c0.1,0.2,0.2,0.4,0.3,0.6c0.1,0.2,0.2,0.4,0.3,0.7
								c0.1,0.2,0.2,0.5,0.2,0.7c0.1,0.2,0.1,0.5,0.2,0.7c0,0.1,0,0.2,0.1,0.3c0,0.1,0,0.1,0,0.2c0,0.1,0,0.1,0,0.2
								c0,0.1,0,0.2,0,0.3c0,0.1,0,0.2,0,0.3c0,0.1,0,0.2,0,0.3c0,0.1,0,0.2,0,0.2c0,0.1,0,0.1,0,0.2c0,0.1,0,0.1,0,0.2
								c0,0.2,0,0.3,0,0.3s0-0.1,0-0.3c0-0.1,0-0.1,0-0.2c0-0.1,0-0.1,0-0.2c0-0.1,0-0.2,0-0.2c0-0.1,0-0.2,0-0.3
								c0-0.1,0-0.2-0.1-0.3c0-0.1,0-0.2-0.1-0.3c0-0.1,0-0.1,0-0.2c0-0.1,0-0.1,0-0.2c0-0.1-0.1-0.2-0.1-0.3
								c-0.1-0.2-0.1-0.4-0.2-0.7c-0.1-0.2-0.2-0.5-0.2-0.7c-0.1-0.2-0.2-0.4-0.3-0.7c-0.1-0.2-0.2-0.4-0.3-0.6
								c-0.1-0.1-0.1-0.2-0.2-0.3c0,0-0.1-0.1-0.1-0.1c0,0-0.1-0.1-0.1-0.1c-0.1-0.1-0.1-0.2-0.2-0.3c-0.1-0.1-0.1-0.2-0.2-0.2
								c0-0.1-0.1-0.2-0.1-0.2c0-0.1-0.1-0.1-0.1-0.2c0-0.1-0.1-0.1-0.1-0.2c0-0.1-0.1-0.1-0.1-0.1C22.5,22.9,22.5,22.8,22.4,22.7
								C22.4,22.7,22.4,22.7,22.4,22.7z"/>
							<path fill="#F6B64C" d="M17.3,23.5C17.3,23.5,17.3,23.5,17.3,23.5c-0.1,0.1-0.1,0.2-0.2,0.3c0,0-0.1,0.1-0.1,0.2
								c0,0.1-0.1,0.1-0.1,0.2c0,0.1-0.1,0.1-0.1,0.2c0,0.1-0.1,0.2-0.1,0.3c0,0.1-0.1,0.2-0.1,0.3c0,0.1-0.1,0.2-0.1,0.3
								c0,0.1,0,0.1,0,0.2c0,0.1,0,0.1,0,0.2c0,0.1-0.1,0.2-0.1,0.3c0,0.2-0.1,0.5-0.1,0.7c0,0.2,0,0.5-0.1,0.7c0,0.2,0,0.5,0,0.7
								c0,0.2,0,0.5,0.1,0.7c0,0.1,0,0.2,0,0.3c0,0.1,0,0.1,0,0.2c0,0.1,0,0.1,0,0.2c0,0.1,0,0.2,0.1,0.3c0,0.1,0,0.2,0.1,0.3
								c0,0.1,0,0.2,0.1,0.3c0,0.1,0.1,0.2,0.1,0.2c0,0.1,0,0.1,0.1,0.2c0,0.1,0,0.1,0.1,0.2C17,31,17,31.2,17,31.2s0-0.1-0.1-0.3
								c0-0.1,0-0.1,0-0.2c0-0.1,0-0.1,0-0.2c0-0.1,0-0.2,0-0.2c0-0.1,0-0.2,0-0.3c0-0.1,0-0.2,0-0.3c0-0.1,0-0.2,0-0.3
								c0-0.1,0-0.1,0-0.2c0-0.1,0-0.1,0-0.2c0-0.1,0-0.2,0-0.3c0-0.2,0-0.5,0-0.7c0-0.2,0-0.5,0-0.7c0-0.2,0-0.5,0-0.7
								c0-0.2,0.1-0.5,0.1-0.7c0-0.1,0-0.2,0.1-0.3c0-0.1,0-0.1,0-0.2c0-0.1,0-0.1,0-0.2c0-0.1,0-0.2,0.1-0.3c0-0.1,0-0.2,0.1-0.3
								c0-0.1,0-0.2,0.1-0.3c0-0.1,0-0.2,0.1-0.2c0-0.1,0-0.1,0.1-0.2c0-0.1,0-0.1,0.1-0.2C17.2,23.7,17.2,23.6,17.3,23.5
								C17.3,23.5,17.3,23.5,17.3,23.5z"/>
							<path fill="#FFFFFF" d="M18.2,27.7c0.2,0.5,0.3,1,0.5,1.4c0,0.1,0.1,0.2,0.1,0.2c0.1,0.1,0.2,0.1,0.3,0
								c0.1,0,0.1-0.1,0.1-0.2c0.1-0.2,0.1-0.4,0.2-0.6c0,0.1,0.2,0.1,0.2,0c0.1,0.2,0.3,0.3,0.5,0.3c0.2,0,0.4,0,0.6-0.2
								c0.3,0.2,0.8,0.1,1-0.2c0,0.1,0.2,0.1,0.3,0c0.1,0.3,0.2,0.5,0.3,0.8c0.1,0.1,0.2,0.3,0.4,0.3c0.1,0,0.2-0.1,0.2-0.2
								c0.3-0.4,0.5-0.9,0.5-1.5c0-0.1,0-0.1,0-0.2C19.3,27.7,17.9,27,18.2,27.7z"/>
							<g>
								<path fill="#F3705B" d="M18.7,27.4c-0.2,0,0.1,0.5,0.2,0.4c0.1,0,0-0.2,0.1-0.3c0.1-0.1,0.2,0,0.3,0
									c0.1,0.1,0.2,0.1,0.3,0.2c0.1,0.1,0,0.2,0.1,0.2c0-0.1,0-0.2,0-0.3c0.2,0,0.8-0.1,0.9,0.2c0,0.1,0,0.1,0.1,0
									c0.1,0,0,0,0-0.1c0.1-0.4,0.6-0.1,1-0.1c0,0,0,0.1,0,0.1c0,0,0.1,0,0.1,0s0.1-0.1,0.1-0.1c0.1-0.1,0.3-0.1,0.5,0
									c0.2,0.1,0.4,0.1,0.7,0.2c0-0.1-0.2-0.2-0.3-0.2c-0.8-0.2-1.7-0.1-2.6-0.2C19.6,27.6,19.1,27.4,18.7,27.4z"/>
							</g>
							<path fill="#F3705B" d="M24,29.1c0.1-0.2,0-0.4-0.1-0.5c-0.1-0.2-0.3-0.2-0.5-0.3c-0.7-0.3-1.4-0.5-2.1-0.5
								c-0.6,0-1.3,0.1-1.9-0.1c-0.3-0.1-0.5-0.2-0.8-0.1c-0.2,0.1-0.3,0.2-0.4,0.4c-0.1,0.2-0.1,0.4-0.1,0.6c0,0.4,0.1,0.8,0.2,1.1
								c-0.3-0.1-0.5-0.4-0.6-0.7c-0.1-0.3-0.1-0.7,0-1c0-0.2,0.1-0.4,0.2-0.6c0.1-0.1,0.3-0.2,0.5-0.2c0.4,0,0.8,0.1,1.2,0.2
								c0.6,0.2,1.1,0.2,1.7,0.2c0.4,0,0.8-0.1,1.2-0.1c0.4,0,0.8,0,1.2,0.2c0.4,0.2,0.7,0.5,0.8,0.9c0.1,0.4-0.1,0.9-0.4,1
								C24,29.4,24,29.2,24,29.1"/>
							<path fill="#F6B64C" d="M18.7,24c-0.1-0.3-0.1-0.5-0.2-0.8c0-0.1-0.1-0.2-0.2-0.3c-0.1,0-0.2,0-0.3,0.1
								c-0.1,0.1-0.1,0.2-0.1,0.3c0,0.2,0,0.4,0,0.6c0,0.2,0.1,0.4,0.3,0.5c0.2,0.2,0.5,0.2,0.7,0.2c0.5,0.2,0.9,0.7,1.4,0.7
								c0.3,0,0.6-0.1,0.8-0.3c0.2-0.2,0.4-0.4,0.7-0.6c0.3-0.2,0.7-0.3,1.1-0.3c0,0.4-0.2,0.7-0.5,0.9c-0.3,0.2-0.6,0.4-0.9,0.6
								c-0.5,0.3-1,0.5-1.5,0.4c-0.6-0.1-1-0.6-1.4-0.9c-0.3-0.2-0.5-0.3-0.7-0.6c-0.2-0.2-0.2-0.5-0.2-0.8c0-0.4,0.1-0.7,0.3-1
								c0.1-0.1,0.1-0.2,0.2-0.3c0.1-0.1,0.2-0.1,0.3,0c0.1,0.1,0.1,0.1,0.1,0.2C18.6,23.2,18.6,23.6,18.7,24"/>
							<path fill="#FFD15D" d="M20.6,25.7c0.4-0.6,1-1,1.7-1.2c0.1,0,0.1,0,0.2,0c0.1,0.1,0,0.1-0.1,0.2c-0.4,0.4-0.9,0.8-1.4,1
								c-0.1,0-0.2,0.1-0.2,0.1C20.7,25.8,20.6,25.7,20.6,25.7"/>
							<path fill="#FFD15D" d="M19.6,25.7c-0.4-0.6-1-1-1.7-1.2c-0.1,0-0.1,0-0.2,0c-0.1,0.1,0,0.1,0.1,0.2c0.4,0.4,0.9,0.8,1.4,1
								c0.1,0,0.2,0.1,0.2,0.1C19.5,25.8,19.6,25.7,19.6,25.7"/>
							<path fill="#F6B64C" d="M21.6,18.9c0,0,0,0,0-0.1c0,0,0-0.1,0-0.1c0,0,0-0.1,0.1-0.2c0-0.1,0.1-0.3,0.2-0.4
								c0-0.1,0.1-0.2,0.2-0.2c0.1-0.1,0.1-0.2,0.2-0.3c0.3-0.4,0.6-0.7,1-1.2c0.2-0.2,0.4-0.4,0.5-0.7c0-0.1,0.1-0.1,0.1-0.2
								c0-0.1,0.1-0.1,0.1-0.2c0.1-0.1,0.1-0.2,0.2-0.4c0-0.1,0.1-0.1,0.1-0.2l0.1-0.2c0-0.1,0.1-0.1,0.1-0.2c0-0.1,0.1-0.1,0.1-0.2
								c0-0.1,0.1-0.3,0.1-0.4c0-0.1,0-0.1,0.1-0.2c0-0.1,0-0.1,0.1-0.2c0.1-0.3,0.1-0.5,0.2-0.8c0-0.1,0-0.2,0.1-0.4
								c0-0.1,0-0.2,0-0.3c0-0.2,0-0.4,0.1-0.6c0-0.2,0-0.3,0-0.5c0-0.3,0-0.4,0-0.4s0,0,0,0.1c0,0.1,0,0.2,0,0.3c0,0.1,0,0.3,0,0.5
								c0,0.2,0,0.4,0,0.6c0,0.1,0,0.2,0,0.4c0,0.1,0,0.2,0,0.4c0,0.1,0,0.3,0,0.4c0,0.1,0,0.3-0.1,0.4c0,0.1,0,0.1,0,0.2
								c0,0.1,0,0.1-0.1,0.2c0,0.1,0,0.1-0.1,0.2c0,0.1,0,0.1-0.1,0.2c0,0.1,0,0.1-0.1,0.2c0,0.1-0.1,0.1-0.1,0.2
								c0,0.1-0.1,0.1-0.1,0.2c0,0.1-0.1,0.1-0.1,0.2c-0.1,0.1-0.1,0.3-0.2,0.4c0,0.1-0.1,0.1-0.1,0.2c0,0.1-0.1,0.1-0.1,0.2
								c-0.2,0.2-0.4,0.5-0.6,0.7c-0.2,0.2-0.4,0.4-0.6,0.6c-0.2,0.2-0.4,0.3-0.5,0.5c-0.1,0.1-0.1,0.2-0.2,0.2
								c-0.1,0.1-0.1,0.1-0.2,0.2c-0.1,0.1-0.2,0.3-0.3,0.4c0,0.1-0.1,0.1-0.1,0.1C21.7,18.8,21.7,18.8,21.6,18.9
								C21.7,18.9,21.6,18.9,21.6,18.9z"/>
							<path fill="#F6B64C" d="M19.1,18.7C19.1,18.7,19.1,18.7,19.1,18.7c-0.1-0.1-0.1-0.2-0.1-0.2c0,0-0.1-0.1-0.1-0.1
								c-0.1-0.1-0.2-0.2-0.3-0.3c-0.1-0.1-0.1-0.1-0.2-0.2c-0.1-0.1-0.2-0.1-0.3-0.2c-0.4-0.3-0.8-0.5-1.3-0.8
								c-0.2-0.1-0.5-0.3-0.7-0.5c-0.1,0-0.1-0.1-0.2-0.1c-0.1,0-0.1-0.1-0.2-0.1c-0.1-0.1-0.2-0.2-0.3-0.3c-0.1,0-0.1-0.1-0.1-0.2
								l-0.1-0.2c0-0.1-0.1-0.1-0.1-0.2c0-0.1-0.1-0.1-0.1-0.2c-0.1-0.1-0.2-0.2-0.2-0.3c0-0.1-0.1-0.1-0.1-0.2
								c0-0.1-0.1-0.1-0.1-0.2c-0.1-0.2-0.3-0.5-0.4-0.7c-0.1-0.1-0.1-0.2-0.2-0.3c0-0.1-0.1-0.2-0.1-0.3c-0.1-0.2-0.2-0.4-0.2-0.6
								c-0.1-0.2-0.1-0.3-0.2-0.4c-0.1-0.2-0.1-0.4-0.1-0.4s0,0,0,0.1c0,0.1,0,0.2,0.1,0.3c0,0.1,0.1,0.3,0.1,0.5
								c0,0.2,0.1,0.4,0.2,0.6c0,0.1,0.1,0.2,0.1,0.3c0,0.1,0.1,0.2,0.1,0.4c0.1,0.1,0.1,0.2,0.2,0.4c0.1,0.1,0.1,0.2,0.2,0.4
								c0,0.1,0.1,0.1,0.1,0.2c0,0.1,0.1,0.1,0.1,0.2c0,0.1,0.1,0.1,0.1,0.2c0,0.1,0.1,0.1,0.1,0.2c0,0.1,0.1,0.1,0.1,0.2
								c0,0.1,0.1,0.1,0.1,0.2c0,0.1,0.1,0.1,0.2,0.2c0.1,0.1,0.1,0.1,0.2,0.2c0.1,0.1,0.2,0.2,0.3,0.3c0.1,0,0.1,0.1,0.2,0.1
								c0.1,0,0.1,0.1,0.2,0.1c0.2,0.2,0.5,0.3,0.7,0.5c0.2,0.1,0.5,0.3,0.7,0.4c0.2,0.1,0.4,0.2,0.6,0.3c0.1,0.1,0.2,0.1,0.3,0.2
								c0.1,0.1,0.2,0.1,0.2,0.2c0.1,0.1,0.3,0.2,0.4,0.3c0,0,0.1,0.1,0.1,0.1C18.9,18.6,19,18.6,19.1,18.7
								C19,18.7,19.1,18.7,19.1,18.7z"/>
							<path fill="#FFD15D" d="M31.6,16.7c0-0.2-0.1-0.4-0.2-0.5c-0.1-0.1-0.3-0.3-0.4-0.3c-0.4,0-0.8,0.3-1,1
								c0,0.1-0.1,0.3-0.1,0.4c-0.2,0.7-0.3,1-0.6,1.4c-0.2,0.4-0.4,0.8-0.5,1.3c-0.1,0.5,0,0.9,0.2,1.3c0.2,0.4,0.6,0.8,0.7,1.2
								c0.1,0.2,0.1,0.4,0.2,0.6c0.2,0.3,0.6,0.3,0.9,0.1c0.3-0.2,0.5-0.5,0.6-0.8c0.4-0.9,0.2-1.9,0.2-2.9
								C31.6,18.6,31.7,17.6,31.6,16.7z"/>
							<path fill="#F6B64C" d="M30.6,17.9c-0.2,0.3-0.3,0.8-0.1,1.1c0.1,0.3,0.3,0.6,0.4,0.9c0,0.1,0.1,0.2,0.1,0.4
								c0,0.2,0,0.3-0.2,0.4c-0.1,0-0.1,0.1-0.2,0c-0.2,0-0.2-0.2-0.2-0.3c-0.1-0.3-0.1-0.5-0.2-0.8c-0.1-0.3-0.1-0.5-0.1-0.8
								c0.1-1.2,0.8-1.9,1.2-2c0.2,0.7,0.1,1.5,0,2.5c-0.1-0.6-0.2-1.2-0.4-1.8C30.8,17.7,30.7,17.7,30.6,17.9z"/>
						</g>
					</g>
					<path fill="#435B6C" d="M31.9,5.2c0,0-0.5-2.6-2.7-3.8c0,0,2.2,1.9,2.4,3.8c0,0-1.3-3.3-3.4-4C26,0.5,24.2,1,24.2,1L24.1,1
						c0,0-1.9-1.7-4.8-0.6c0,0,2.1-0.4,3.4,0c0,0-5.1-0.6-6.6,2c0,0-2.9-0.6-4.5,1.4C10.8,4.3,10.1,5,9.7,6c-1.5,3.6,0,7.2,0,7.2
						l1,3.7c0,0,0.5,1.4,0.6,2.4c0.1,1,0.6,2.7,0.6,2.7l0.3,0.1c0,0-0.7-3.9,0-4.6c0.7-0.7,0.3-4.1,0.3-4.1s-0.6-3.9,2.3-2.9
						c3.8,0.9,7.3,0.8,10-1.1c1.6-1.9,2.9,2,2.9,2s0.9,2.1-0.3,4.5c0,0,2,0.6,2.2,2.8c0.2,2.2-0.4,3.5-0.4,3.5l0.6-0.2
						c0,0,0.2-3.9,1.3-5.4C32.1,15.1,33.8,9.2,31.9,5.2z M11.8,3.7C12.4,3.2,14,2.2,16,2.6C16,2.6,13.7,2.5,11.8,3.7z"/>
				</g>
				<g>
					<path fill="#435B6C" d="M4.3,48L4.3,48C4.4,48,4.4,48,4.3,48L4.3,48z"/>
				</g>
				<path fill="#F3F3F3" d="M30.8,30.4L30.8,30.4c0.2,0.4,0.4,0.8,0.2,1.3c-0.3,0.6-0.7,1.4-1.1,1.8c-2,2.4-6.5,5.5-8.4,5.9
					c0,0,1.1,0.2,1.5,1.3c0.5,1.1,2.6,5.2,2.6,5.2s1.6-0.6,3.9-3.8c2.3-3.1,5.8-8.6,5.8-8.6S33.2,29.9,30.8,30.4z"/>
				<path fill="#435B6C" d="M40,34c-0.7-0.6-1.4-1.1-2-1.8c-0.8-0.8-1.5-1.6-1.9-2.7c-0.4-1.2-0.3-2.5-0.3-3.7
					c0-2.6-0.5-5.7-0.7-8.3c-0.2-3.1-0.9-6.1-3.4-8.7c1.7,3,3.3,6.4,2.7,9.9c-0.2,1.1-0.6,2.2-0.7,3.4c-0.2,2.1,0.6,4.1,1,6.1
					c0.6,2.7-0.7,5.6-1.3,8.3c-0.9,3.8-4.4,7.5-4.7,11.4h15v-6.2C43.7,38.8,42.3,35.9,40,34z"/>
			</g>
		</g>
	</g>
	<path fill="#F6B64C" d="M22.6,24.8c0.2-0.4,0.2-0.8,0.2-1.2c0-0.2,0-0.5-0.2-0.7c-0.2-0.2-0.5-0.2-0.7-0.1s-0.3,0.4-0.3,0.6
		c0-0.2,0.1-0.4,0.3-0.4c0.2,0,0.4,0,0.5,0.2c0.1,0.1,0.2,0.3,0.2,0.5c0,0.2,0,0.4-0.1,0.6"/>
</g>
</svg>
