<?xml version="1.0" encoding="utf-8"?>
<!-- Generator: Adobe Illustrator 20.1.0, SVG Export Plug-In . SVG Version: 6.00 Build 0)  -->
<!DOCTYPE svg PUBLIC "-//W3C//DTD SVG 1.1//EN" "http://www.w3.org/Graphics/SVG/1.1/DTD/svg11.dtd">
<svg version="1.1" id="Layer_1" xmlns="http://www.w3.org/2000/svg" xmlns:xlink="http://www.w3.org/1999/xlink" x="0px" y="0px"
	 viewBox="0 0 49 49" enable-background="new 0 0 49 49" xml:space="preserve">
<g>
	<path fill="#F2F2F2" d="M14.9,0.5L4.7,10.8v35.7c0,1.1,0.9,2,2,2h35.7c1.1,0,2-0.9,2-2v-44c0-1.1-0.9-2-2-2H14.9z"/>
	<path fill="#CDD6E0" d="M14.9,8.8V0.5L4.7,10.8h8.3C14.1,10.8,14.9,9.9,14.9,8.8z"/>
	<rect x="24.1" y="7.6" fill="#84DBFF" width="15.3" height="18.2"/>
	<rect x="9.4" y="15.5" fill="#CDD6E0" width="11.8" height="2.5"/>
	<rect x="9.4" y="23.3" fill="#CDD6E0" width="11.8" height="2.5"/>
	<rect x="9.4" y="31" fill="#CDD6E0" width="30.3" height="2.5"/>
	<rect x="9.4" y="38.8" fill="#CDD6E0" width="30.3" height="2.5"/>
</g>
</svg>
