<?xml version="1.0" encoding="utf-8"?>
<!-- Generator: Adobe Illustrator 18.0.0, SVG Export Plug-In . SVG Version: 6.00 Build 0)  -->
<!DOCTYPE svg PUBLIC "-//W3C//DTD SVG 1.1//EN" "http://www.w3.org/Graphics/SVG/1.1/DTD/svg11.dtd">
<svg version="1.1" id="Layer_1" xmlns="http://www.w3.org/2000/svg" xmlns:xlink="http://www.w3.org/1999/xlink" x="0px" y="0px"
	 viewBox="0 0 48 48" enable-background="new 0 0 48 48" xml:space="preserve">
<g>
	<g>
		<g>
			<g>
				<g>
					<g>
						<path fill="#8AD7F8" d="M24,48C10.7,48,0,37.3,0,24C0,10.7,10.7,0,24,0c13.3,0,24,10.7,24,24C48,37.3,37.3,48,24,48z"/>
					</g>
					<path fill="#F3F3F3" d="M24,0c-2.5,0-5,0.4-7.3,1.1c0.1,0.1,0.2,0.3,0.1,0.4c-0.3,0.5,0,0.8,0,1.3c0,0.2,0.2,0.2,0.4,0
						c0.1-0.2,0.2-0.3,0.3-0.5c0.2,0,0.4-0.1,0.5-0.1c0.1,0,0.2,0.2,0.3,0.2c-0.1,0.1-0.1,0.2-0.2,0.3c-0.1,0.4,0,0.9,0.3,1
						C18.8,3.7,19,3.9,19.4,4c0.2,0.1,0.4,0.1,0.6,0.1c-0.1,0.1-0.1,0.2-0.2,0.2c-0.4,0.8-1.2,1.2-1.9,0.8c-0.5-0.3-1.1-0.6-1.5-1.1
						c-0.1-0.1-0.4-0.1-0.5-0.2c-0.2,0-0.2,0.1-0.3,0.3c0,0.1-0.4,0.1-0.4,0.1c-0.1-0.4-0.6-0.3-0.7-0.8c0-0.1-0.1-0.2-0.2-0.3
						c-0.3-0.1-0.5-0.3-0.6-0.6c0.3-0.1,0.4-0.3,0.4-0.5C10.9,3.6,8,5.8,5.7,8.5C5.7,8.7,5.8,8.9,5.9,9C6,9.2,6.2,9.4,6.5,9.3
						c0.3-0.1,0.6,0,0.8,0.1c0.2,0.1,0.4,0.1,0.6,0.1c0.3-0.1,0.5-0.1,0.8-0.1c0.3,0,0.6,0.3,0.6,0.5c-0.1,0.2,0,0.3,0.2,0.3
						c0.2,0,0.5,0.3,0.5,0.5c-0.1,0.3-0.2,0.6-0.4,0.8c-0.3,0.3-0.4,0.7-0.3,1c0.1,0.4,0.1,0.8,0,1.3c-0.1,0.4-0.2,0.7-0.3,1.1
						c0,0.1-0.2,0.2-0.3,0.4c-0.3,0.3-0.6,0.6-0.8,1c-0.1,0.1-0.1,0.3-0.1,0.5c0,0.5,0,1.1-0.2,1.7c-0.2,0.5-0.2,1-0.2,1.4
						c0.1,0.3,0.1,0.6-0.1,0.9C7,21,7.1,21.2,7.5,21.2c0.2,0,0.4,0,0.5,0c0.3,0.1,0.6,0.2,1,0.1c0.7-0.2,1.3-0.6,1.9-1.1
						c0.1-0.1,0.2-0.2,0.2-0.3c0.1-0.4,0.3-0.5,0.6-0.4c0.2,0,0.4-0.1,0.5-0.4c0.1-0.2,0.1-0.4,0.1-0.7c0-0.1,0.1-0.2,0.1-0.2
						c0.3-0.1,0.6-0.5,1-0.5c0.4,0,0.8,0,1.1-0.5c0.2-0.4,0.3-0.8,0.4-1.2c0.2-0.6,0.2-1.2,0.8-1.6c0.2-0.1,0.3-0.3,0.5-0.4
						c0.2-0.1,0.4-0.2,0.7-0.2c-0.1-0.1-0.1-0.2-0.2-0.3c0.6,0.1,1.2,0,1.8-0.4c0.5-0.3,1-0.6,1.4-1c0.1-0.1,0.2-0.3,0.4-0.5
						c-0.5-0.1-0.9-0.2-1.4-0.3c-0.4,0-0.6-0.3-0.3-0.7c0.1,0,0.2,0.1,0.3,0.1c0.6,0,1.2,0,1.9,0c0.1,0,0.2,0,0.2,0
						c0.3-0.2,0.5-0.1,0.8-0.1c0.2,0,0.5,0,0.7-0.3c0.1,0.2,0.3,0.2,0.4,0c0.1-0.1,0.2-0.1,0.3-0.2c0.1-0.1,0.3-0.1,0.3-0.2
						c0-0.2,0-0.4-0.1-0.5C23,9.4,23,9.2,23.1,9c0-0.1,0-0.1,0.1-0.3c-0.2,0.1-0.3,0.1-0.4,0.2c-0.4,0.2-0.8,0.2-0.9,0
						c-0.1-0.2-0.2-0.5-0.2-0.7c0.1-0.3-0.1-0.5-0.1-0.8c0-0.1,0-0.2,0-0.3c0.1-0.2,0-0.3-0.1-0.4c-0.1-0.1-0.2-0.3-0.3-0.4
						c0,0,0.1-0.1,0.1-0.1c0.1,0,0.2,0.1,0.3,0.1c0.3,0,0.3,0.2,0.3,0.3c0,0.1,0,0.2,0,0.3c0.3-0.1,0.4,0.2,0.4,0.4
						c0,0.3,0,0.6,0.2,0.8c0.2,0.2,0.3,0.4,0.7,0.4c0.1,0,0.2,0.1,0.2,0.2C23.3,9,23.5,9,23.7,9.1c0.1,0.1,0.2,0.1,0.4,0.2
						c0.5,0.2,0.9,0.4,1.3,0.6c0.2,0.3,0.3,0.5,0.5,0.7c0,0-0.1,0-0.2,0.1c0,0,0,0,0,0.1c0.2,0.1,0.4,0.2,0.5,0.3
						c-0.2,0-0.3,0.1-0.5,0.1c0,0,0,0.1-0.1,0.1c0.1,0.1,0.2,0.3,0.4,0.4c0.1,0,0.2-0.1,0.4-0.2c0,0.1,0,0.1,0,0.2
						C26,12,25.9,12.5,25.8,13c-0.1,0.6-0.1,1.2-0.2,1.8c0,0.2,0,0.3,0,0.5c0.1,0,0.3-0.1,0.4-0.1c0,0,0,0,0,0c0.4-0.3,0.9-0.5,1-1
						c0.1-0.2,0.1-0.2,0.3-0.3c0.6-0.1,1.2-0.3,1.8-0.4c0.2,0,0.4-0.1,0.6-0.2c0,0,0,0-0.1,0c0.2-0.2,0.4-0.3,0.5-0.4
						c0.2,0.1,0.3,0.1,0.4,0.1c-0.1,0.2-0.2,0.4-0.3,0.6c0,0,0.1,0,0.1,0c0.1-0.1,0.2-0.2,0.2-0.3c0.1,0.3,0.1,0.6,0.1,0.9
						c0,0,0,0.1,0.1,0.1c0,0.2,0.2,0.4,0.1,0.5c-0.2,0.4,0.1,0.5,0.3,0.6c0.2,0.2,0.2,0.3,0.1,0.6c-0.1,0.2-0.1,0.3-0.2,0.5
						c0,0.3-0.1,0.5-0.4,0.7c-0.2,0.2-0.5,0.5-0.2,0.8c0.1,0.1,0.1,0.3,0,0.4c-0.2,0.6-0.1,1.1,0.3,1.6c0.2-0.4,0.2-1.2,0-1.5
						c-0.2-0.4,0.1-0.7,0-1.1c0,0,0.1-0.1,0.2-0.1c0.2-0.2,0.5-0.2,0.4-0.5c0,0,0.1-0.1,0.2-0.1c0.1,0,0.1,0.1,0.2,0.2
						c-0.1,0.1-0.2,0.1-0.2,0.2c0.2,0.4,0.3,0.8,0.5,1.2c0,0,0.1,0,0.1,0c0,0,0-0.1,0.1-0.1c0-0.1,0.1-0.2,0.1-0.3
						c0,0.1,0.1,0.2,0.1,0.3c0.1,0.2,0.1,0.5,0.5,0.4c0.3,0,0.5-0.2,0.6-0.4c0.2-0.4,0-0.8-0.1-1.2c-0.1-0.4-0.1-0.5,0.3-0.7
						c0.1,0,0.2-0.1,0.4,0c0.1,0.1,0.3,0,0.3,0c0.1,0.3,0.4,0.3,0.6,0.4c0.2,0.2,0.4,0.1,0.6,0c0.1,0.1,0.2,0.2,0.3,0.2
						c0.4,0,0.9,0.1,1.3,0.1c0.3,0,0.6-0.2,0.9-0.3c0.4-0.2,0.5-0.5,0.2-0.9c0,0,0-0.1,0-0.1c0.1,0,0.2,0.1,0.4,0.1
						c0-0.3-0.1-0.6-0.1-0.9c0.2,0,0.3,0,0.5,0c0.2,0,0.3,0.1,0.4,0.1c0,0,0-0.1,0.1-0.1c-0.1-0.1-0.3-0.4-0.4-0.4
						c-0.6-0.1-1-0.5-0.9-1c0.2,0,0.3,0,0.5,0C39,14,39.6,13.8,40,14c-0.1,0.1-0.2,0.2-0.4,0.3c0.4,0,0.7,0.1,0.9,0.5
						c0.1,0.1,0,0.3,0,0.4c0,0.2,0.3,0.3-0.1,0.5c-0.2,0.1-0.2,0.5,0,0.6c0.2,0.1,0.4,0.2,0.5,0.1c0.1,0,0.2-0.3,0.2-0.4
						c0-0.2,0-0.5-0.1-0.7c0.1,0,0.2,0.1,0.3,0.1c0.1,0,0.3,0,0.4,0c0.3-0.2,0.5-0.1,0.8,0.1c0.2,0.1,0.4,0.3,0.6,0.3
						c0.6,0,1.2-0.1,1.8-0.1c0,0,0.1,0,0.1,0c0-0.4,0.4-0.4,0.6-0.5c0.1-0.1,0.2-0.2,0.2-0.3c0-0.1-0.2-0.4-0.3-0.4
						c-0.4-0.1-0.5-0.4-0.6-0.7c0.1,0,0.3,0.1,0.4,0.1C41.7,5.5,33.5,0,24,0z"/>
					<path fill="#F3F3F3" d="M47.1,28.7c0.1-0.3,0.2-0.6,0.3-0.9c0,0-0.1,0-0.1-0.1c-0.1,0.1-0.2,0.2-0.2,0.3
						c-0.1,0.3-0.2,0.7-0.3,1c-0.1,0.3-0.1,0.6-0.1,1c0,0.1,0,0.3,0,0.4c0,0-0.1,0-0.1,0c0-0.1,0-0.2,0-0.3c-0.3-0.1-0.4,0-0.4,0.3
						c0,0.3,0,0.6-0.2,0.7c-0.2,0.1-0.3,0.2-0.5,0.3c-0.4,0.4-0.8,0.7-1.2,1.1c-0.5-0.1-0.6,0-0.7,0.4c-0.1,0-0.3,0-0.4-0.1
						c0,0,0,0.1,0,0.1c-0.1,0-0.3,0.1-0.4,0.1c-0.2,0-0.4,0.1-0.5,0.1c-0.4-0.1-0.8-0.1-1.2,0c-0.1,0-0.3,0-0.4-0.1c0,0,0-0.1,0-0.1
						c-0.2,0-0.4,0-0.6,0.1c-0.2,0.1-0.3,0.3-0.5,0.1c-0.2-0.1-0.5-0.2-0.6-0.4c-0.3-0.5-0.7-0.8-1.2-1c-0.1,0-0.3,0-0.5,0
						c-0.3,0-0.7-0.1-1-0.2c-0.1,0-0.2,0-0.2,0.1c-0.3,0.4-0.6,0.3-0.9,0.2c-0.5-0.1-1-0.3-1.6-0.2c-0.1,0-0.2,0.1-0.3,0.1
						c0.1,0.1,0.2,0.1,0.3,0.2c0.5,0.1,0.9,0.1,1.4,0.2c0,0,0,0.1,0,0.1c-0.2,0-0.4,0.1-0.7,0.1c-0.2,0-0.4-0.1-0.6-0.1
						c-0.4,0-0.7,0-1.1,0.1c-0.2,0-0.3,0-0.5,0c-0.3,0-0.6,0.1-0.9-0.1c-0.1-0.1-0.3-0.2-0.5-0.2c-0.2,0-0.4,0.1-0.6,0.2
						c-0.3,0.1-0.6,0.3-0.9,0.4c-0.3,0.2-0.5,0.3-0.7,0.5c-0.1,0.2-0.2,0.3-0.4,0.3c-0.6,0.1-1.1,0.3-1.6,0.7c0,0-0.1,0-0.2,0
						c-0.3,0-0.6-0.1-0.8,0c-0.3,0-0.6,0.2-1,0.2c-0.2,0-0.3,0.1-0.3,0.3c0,0.1-0.1,0.3-0.2,0.4c-0.3,0-0.6,0.1-0.8-0.1
						c-0.4-0.3-0.6-0.7-0.5-1.3c0-0.3-0.1-0.6-0.4-0.8c-0.1,0-0.2,0-0.3,0c0-0.1-0.1-0.3-0.1-0.4c-0.1-0.1-0.2-0.2-0.4-0.3
						c-0.4-0.1-0.7-0.1-1.1-0.2C20,32.2,19.6,32,19.1,32c-0.3,0-0.7,0.1-1,0.2c-0.3,0.1-0.7,0.3-1,0.1c-0.4-0.4-0.8-0.8-1.1-1.2
						c-0.4-0.4-0.7-1-1.2-1.4c-0.2-0.2-0.4-0.6-0.5-0.9c-0.1-0.2-0.2-0.4-0.3-0.5c-0.1-0.1-0.1-0.1-0.2-0.2
						c-0.1-0.3-0.4-0.3-0.6-0.1c-0.2-0.4-0.3-0.8-0.5-1.2c-0.1,0-0.1,0.1-0.2,0.1l-0.3-0.2c0.2-0.3,0.1-0.6-0.2-0.6
						c-0.3,0-0.4-0.1-0.5-0.2c-0.1-0.1-0.3-0.2-0.5-0.2c-0.2,0-0.3,0.2-0.1,0.5c-0.1,0.1-0.3,0.1-0.4,0.2c0.1-0.2,0.1-0.3,0.2-0.4
						c-0.8,0.2-1.1,0.5-1,0.9c0.3-0.1,0.6-0.2,0.9-0.2c0,0.1-0.1,0.2-0.1,0.3c0.3,0,0.4,0.1,0.4,0.3c0,0.3,0,0.7,0,1
						c0.2-0.1,0.4-0.1,0.6-0.2c0,0.4,0.1,0.8,0.1,1.2c0.1,0,0.1,0,0.1,0c0.1,0.1,0.3,0.1,0.4,0.2c-0.1,0.1-0.2,0.1-0.2,0.2
						c0,0.1,0,0.3,0,0.4c0,0,0.2,0.1,0.3,0.1c-0.2,0.3-0.4,0.7-0.6,1c-0.1,0.2-0.1,0.4,0.2,0.5c0.1,0,0.1,0,0.2,0c0,0.1,0,0.2,0,0.3
						c0.2,0,0.3-0.1,0.4-0.1c0.1,0,0.3-0.1,0.4-0.1c0.1,0,0.1,0,0.2,0c0,0-0.1,0.1-0.1,0.1c-0.1,0.1-0.2,0.1-0.3,0.2
						c-0.2-0.2-0.5-0.1-0.9,0.3c-0.2,0.2,0,0.4,0.1,0.6c0.1,0.3,0.1,0.7,0.2,1c0,0,0,0,0,0.1c-0.2,0.3-0.1,0.8,0.1,1
						c0.3,0.2,0.3,0.4,0.2,0.7c-0.1,0.2-0.2,0.4-0.2,0.6c-0.1,0.3-0.4,0.5-0.2,1c0.2,0.6,0.5,1.2,1,1.6c0.1,0.1,0.2,0.2,0.2,0.2
						c0.1,0.4,0.1,0.7,0.1,1.1c0,0.3,0.4,0.8,0.7,0.8c0.1,0,0.2,0,0.2-0.1c0.2-0.3,0.4-0.2,0.7-0.3c0.2-0.1,0.4-0.2,0.6-0.3
						c0.1-0.1,0.2-0.3,0.3-0.4c0.1-0.1,0.1-0.3,0.2-0.4c0-0.1,0.1-0.1,0.2-0.1c0,0,0,0,0,0c0,0.1,0,0.2,0,0.3
						c0.2-0.1,0.4-0.2,0.5-0.2c0.2,0,0.2-0.1,0.2-0.3c-0.1-0.4,0.2-0.6,0.4-0.8c0-0.1,0.3,0,0.4,0c0,0.2,0.1,0.4,0,0.6
						c0,0.3,0.3,0.3,0.4,0.4c0.4,0.3,1,0.3,1.4-0.2c0.2-0.3,0.5-0.5,1-0.4c0.2,0,0.3-0.1,0.5-0.2c0.1-0.1,0.2-0.1,0.4-0.2
						c0,0.1,0,0.1,0,0.1c0.2,0,0.4,0,0.6-0.1c0-0.3,0-0.5,0.4-0.6c0.1,0,0.2-0.1,0.2-0.2c0,0,0.1-0.1,0.2-0.1c0.2,0,0.3-0.2,0.4-0.3
						c0.3-0.3-0.1-0.3-0.1-0.4c0-0.1,0-0.1-0.1-0.3c0.2,0.1,0.3,0.2,0.5,0.3c0.1,0,0.2,0.1,0.2,0c0.2-0.1,0.3-0.8,0.2-1
						c-0.1-0.3,0-0.4,0.2-0.5c0.1,0,0.2-0.1,0.3-0.2c0.1-0.1,0.1-0.3,0.3-0.5c0.2-0.2,0.7-0.2,1,0c0.2,0.2,0.3,0.3,0.5,0.5
						c0.1,0,0.2,0.1,0.2,0.1c0.2-0.1,0.4-0.2,0.5-0.4c0.2-0.1,0.3-0.3,0.4-0.4c0.2,0.2,0.4,0.3,0.5,0.5c0.3,0.3,0.3,0.4,0.7,0.1
						c0-0.1-0.1-0.2-0.1-0.3c0-0.2-0.1-0.4,0-0.6c0.1-0.2,0.3-0.4,0.4-0.5c0.4-0.2,0.9-0.2,1.3,0.1c0.2,0.1,0.3,0.2,0.4,0.3
						c0.3,0.3,0.7,0.4,0.7,0.9c0,0.3,0,0.6-0.1,0.8c-0.1,0.2-0.2,0.4-0.3,0.5c-0.1,0.1-0.3,0.1-0.4,0.2c-0.1,0.2-0.2,0.4-0.4,0.6
						c-0.4,0.3-0.8,0.6-1.2,0.9c0.4,0.3,0.5,0.8,0.3,1.4c-0.1,0.2,0,0.4,0.1,0.6c0.1,0.2,0.3,0.3,0.3,0.5c0,0.3,0,0.6,0,0.8
						c0,0.2-0.1,0.3-0.2,0.4c0,0.1-0.1,0.1-0.1,0.2c0,0.1,0.1,0.3,0.2,0.4c0.1,0.3-0.2,1.2-0.5,1.4c0,0,0,0,0,0
						c0-0.1-0.1-0.2-0.2-0.3c-0.2,0.6-0.4,1-0.6,1.6c0.2,0,0.2,0,0.3,0c0-0.6,0.5-0.9,0.9-0.6c0,0.1-0.1,0.2-0.1,0.3
						c0.6,0,0.6-0.6,0.9-1c-0.1,0.3-0.1,0.6-0.2,0.7c-0.3,0.4-0.6,0.7-0.9,1.1c-0.1,0.1-0.1,0.2-0.2,0.4c-0.1,0.2-0.2,0.4-0.3,0.7
						c0,0.1-0.1,0.2,0,0.2c0.1,0.1,0.2,0.2,0.3,0.2c0.2,0,0.5-0.1,0.7-0.2c0.3-0.1,0.5-0.3,0.8-0.4c0.1,0.1,0.1,0.2,0.2,0.2
						c0,0,0.1,0,0.1,0c0.3-0.1,0.6-0.2,1-0.3c0,0,0-0.1,0-0.1c0-0.1,0-0.2,0-0.3c0.2-0.2,0.4-0.4,0.6-0.6c0.4,0.4,0.4,0.4,0.8,0.1
						c0,0,0.1,0,0.2,0c0.2-0.1,0.4-0.3,0.6-0.4c0.2-0.2,0.4-0.4,0.6-0.6c0.5-0.2,1-0.4,1.5-0.6c0,0,0,0.1,0.1,0.1
						c0,0.2-0.1,0.4-0.1,0.6c0.3-0.2,0.6-0.4,0.9-0.5c0-0.1,0-0.1,0-0.2c0-0.2,0.2-0.3,0.4-0.3c0.1,0,0.2,0,0.3,0.1
						c0,0,0.1-0.1,0.1-0.1c0-0.1,0-0.2,0-0.2c0.2-0.1,0.4-0.1,0.6-0.2l0,0c0.3-0.2,0.6-0.4,0.8-0.6c0,0,0,0,0,0c-0.1,0-0.2,0-0.3,0
						c-0.1,0.1-0.2,0.2-0.3,0.3c0,0-0.1,0-0.1,0c0-0.2,0.1-0.4,0-0.6c0-0.1-0.1-0.2,0-0.3c0.1,0,0.2,0.1,0.3,0.2
						c0.1,0.3,0.3,0.2,0.4,0c0.1-0.1,0.1-0.2,0.1-0.3c0,0,0,0-0.1,0c-0.1,0.1-0.2,0.2-0.3,0.2c0,0,0-0.1-0.1-0.1
						c0.3-0.4,0.6-0.8,0.9-1.1c0.3-0.3,0.7-0.6,1.1-0.9c-0.1,0.3-0.2,0.6-0.5,0.6c-0.1,0-0.2,0.2-0.3,0.3c0,0.1,0,0.2,0.1,0.4
						c0.3-0.2,0.6-0.3,0.8-0.3c0.2-0.2,0.4-0.4,0.5-0.5c0,0,0,0,0-0.1c0,0,0.1,0,0.1,0c0.6-0.6,1.2-1.3,1.7-2
						c-0.1,0-0.1-0.1-0.2-0.1c-0.1,0.1-0.2,0.2-0.2,0.3c0-0.1-0.1-0.1-0.1-0.2c-0.1,0-0.2,0-0.3,0c0.1-0.2,0.2-0.3,0.4-0.4
						c0.3-0.2,0.6-0.3,0.7-0.6c0.3-0.5,0.5-0.8,1-1c0,0,0,0,0.1,0c0.1-0.1,0.1-0.2,0.2-0.3c0.1-0.3,0.3-0.6,0.5-0.8
						c1.1-2.1,2-4.4,2.5-6.9C47.4,28.9,47.3,28.9,47.1,28.7z"/>
				</g>
			</g>
		</g>
		<g>
			<g>
				<g>
					<g>
						<g>
							<path fill="#344A5E" d="M41.3,40.2l3.5,1.1c1,0.3,1.8,1.2,2.1,2.2L48,48h-8.9L41.3,40.2z"/>
						</g>
						<g>
							<path fill="#4EC0AA" d="M34.4,40.2l-3.5,1.1c-1,0.3-1.8,1.2-2.1,2.2L27.7,48h8.9L34.4,40.2z"/>
						</g>
					</g>
					
						<ellipse transform="matrix(-0.9813 -0.1927 0.1927 -0.9813 75.7606 76.7943)" fill="#FFD15C" cx="41.6" cy="34.7" rx="0.9" ry="1.4"/>
					
						<ellipse transform="matrix(0.9813 -0.1927 0.1927 0.9813 -6.0505 7.2134)" fill="#FFD15C" cx="34.1" cy="34.7" rx="0.9" ry="1.4"/>
					<rect x="35.3" y="42.5" fill="#CED6E0" width="5" height="4.4"/>
					<polygon fill="#F3705A" points="38.8,43.8 39.8,42.8 37.8,40.9 35.8,42.8 36.9,43.8 					"/>
					<polygon fill="#F3705A" points="39.8,48 38.8,43.8 36.9,43.8 35.9,48 					"/>
					<path fill="#F7B64C" d="M35.2,37.6v1.2c0.6,0.9,1.5,1.6,2.7,2.1c1-0.4,2-1.1,2.7-2.1v-1.2H35.2z"/>
					<polygon fill="#F3F3F3" points="40.5,38.8 37.8,40.9 39.9,43.8 41.3,40.4 					"/>
					<polygon fill="#415A6B" points="41.5,48 43.2,44.6 41.5,43.4 43.7,42.9 40.9,39.6 38.9,48 					"/>
					<polygon fill="#F3F3F3" points="35.2,38.8 37.8,40.9 35.7,43.8 34.4,40.4 					"/>
					<polygon fill="#415A6B" points="32.4,44.6 34.2,48 36.8,48 34.8,39.6 32,42.9 34.2,43.4 					"/>
					<ellipse fill="#415A6B" cx="38.4" cy="32.1" rx="3.9" ry="4.9"/>
					<ellipse fill="#415A6B" cx="36" cy="32.2" rx="2.6" ry="4.2"/>
					<path fill="#FFD15C" d="M36.7,30.5c1.1,1.4,2.8,2.3,5.1,2.4c0,0.1,0,0.1,0,0.2c0.2,3.5-1.6,6.5-4,6.5c-2.4,0-4.2-3-4-6.5
						c0-0.7,0.2-1.4,0.4-2.1C35.1,31,36,30.8,36.7,30.5z"/>
				</g>
				<g>
					<g>
						<g>
							<path fill="#344A5E" d="M13.6,40.2l3.5,1.1c1,0.3,1.8,1.2,2.1,2.2l1.1,4.5h-8.9L13.6,40.2z"/>
						</g>
						<g>
							<path fill="#344A5E" d="M6.7,40.2l-3.5,1.1c-1,0.3-1.8,1.2-2.1,2.2L0,48h8.9L6.7,40.2z"/>
						</g>
					</g>
					
						<ellipse transform="matrix(-0.9813 -0.1927 0.1927 -0.9813 20.9304 71.4618)" fill="#FFD15C" cx="13.9" cy="34.7" rx="0.9" ry="1.4"/>
					
						<ellipse transform="matrix(0.9813 -0.1927 0.1927 0.9813 -6.5692 1.8809)" fill="#FFD15C" cx="6.4" cy="34.7" rx="0.9" ry="1.4"/>
					<rect x="7.7" y="42.5" fill="#CED6E0" width="5" height="4.4"/>
					<polygon fill="#F3705A" points="11.1,43.8 12.2,42.8 10.2,40.9 8.2,42.8 9.2,43.8 					"/>
					<polygon fill="#F3705A" points="12.1,48 11.1,43.8 9.2,43.8 8.2,48 					"/>
					<path fill="#F7B64C" d="M7.5,37.6v1.2c0.6,0.9,1.5,1.6,2.7,2.1c1-0.4,2-1.1,2.7-2.1v-1.2H7.5z"/>
					<polygon fill="#F3F3F3" points="12.8,38.8 10.2,40.9 12.3,43.8 13.6,40.4 					"/>
					<g>
						<polygon fill="#415A6B" points="13.8,48 15.6,44.6 13.8,43.4 16,42.9 13.2,39.6 11.2,48 						"/>
					</g>
					<polygon fill="#F3F3F3" points="7.5,38.8 10.2,40.9 8.1,43.8 6.7,40.4 					"/>
					<polygon fill="#415A6B" points="4.8,44.6 6.5,48 9.1,48 7.1,39.6 4.3,42.9 6.5,43.4 					"/>
					<ellipse fill="#415A6B" cx="10.8" cy="32.1" rx="3.9" ry="4.9"/>
					<ellipse fill="#415A6B" cx="8.3" cy="32.2" rx="2.6" ry="4.2"/>
					<path fill="#FFD15C" d="M9,30.5c1.1,1.4,2.8,2.3,5.1,2.4c0,0.1,0,0.1,0,0.2c0.2,3.5-1.6,6.5-4,6.5c-2.4,0-4.2-3-4-6.5
						c0-0.7,0.2-1.4,0.4-2.1C7.5,31,8.3,30.8,9,30.5z"/>
				</g>
			</g>
			<g>
				<rect x="20.7" y="40.8" fill="#CED6E0" width="6.6" height="5.9"/>
				<path fill="#F3705A" d="M25.3,42.6l1.3,5.4h-5.1l1.3-5.4l-1.4-1.3c0,0,1.7-2.6,2.7-2.6c0.9,0,2.7,2.6,2.7,2.6L25.3,42.6z"/>
				<path fill="#F7B64C" d="M20.4,34.2v1.6c0.9,1.2,2,2.2,3.6,2.8c1.4-0.6,2.6-1.5,3.6-2.8v-1.6H20.4z"/>
				<path fill="#FFD15C" d="M30.2,29.9c-0.2,1.1-0.9,2-1.5,1.9s-0.9-1.1-0.7-2.3s0.9-2,1.5-1.9C30.2,27.7,30.4,28.7,30.2,29.9z"/>
				<path fill="#FFD15C" d="M17.8,29.9c0.2,1.1,0.9,2,1.5,1.9s0.9-1.1,0.7-2.3s-0.9-2-1.5-1.9C17.8,27.7,17.6,28.7,17.8,29.9z"/>
				<path fill="#415A6B" d="M28.6,31.7c0.8-2,1.2-4.1,1.2-5.5c0-3.3-2.6-5.9-5.9-5.9s-5.9,2.6-5.9,5.9c0,1.3,0.5,3.5,1.2,5.5H28.6z"
					/>
				<path fill="#344A5E" d="M37.6,48l-0.4-3.3c-0.2-1.9-1.5-3.6-3.2-4.4l-5.2-2.6L25.8,48H37.6z"/>
				<path fill="#344A5E" d="M22.2,48l-2.9-10.3l-5.2,2.6c-1.8,0.8-3,2.5-3.2,4.4L10.4,48H22.2z"/>
				<path fill="#FFD15C" d="M25.9,24.7c-1.6,1.3-3.7,2.2-6.3,2.2c-0.2,0-0.5,0-0.7,0c-0.1,0.7-0.3,1.4-0.3,2.1
					c0,4.1,2.4,7.4,5.4,7.4s5.4-3.3,5.4-7.4c0-1-0.2-1.9-0.4-2.7C27.8,25.9,26.8,25.4,25.9,24.7z"/>
				<g>
					<g>
						<path fill="#F3F3F3" d="M27.6,35.9c-1,1.3-2.2,2.2-3.6,2.8c2,1.7,2.7,3,2.8,3.9l1.8-4.5L27.6,35.9z"/>
						<g>
							<polygon fill="#415A6B" points="29,48 32.4,43.1 29.8,41.6 32.7,40.8 28.2,37.2 25.8,48 							"/>
						</g>
					</g>
					<g>
						<path fill="#F3F3F3" d="M20.4,35.9c1,1.3,2.2,2.2,3.6,2.8c-2,1.7-2.7,3-2.8,3.9l-1.8-4.5L20.4,35.9z"/>
						<g>
							<polygon fill="#415A6B" points="19,48 15.6,43.1 18.2,41.6 15.3,40.8 19.8,37.2 22.2,48 							"/>
						</g>
					</g>
				</g>
			</g>
		</g>
	</g>
</g>
</svg>
