<?xml version="1.0" encoding="utf-8"?>
<!-- Generator: Adobe Illustrator 18.0.0, SVG Export Plug-In . SVG Version: 6.00 Build 0)  -->
<!DOCTYPE svg PUBLIC "-//W3C//DTD SVG 1.1//EN" "http://www.w3.org/Graphics/SVG/1.1/DTD/svg11.dtd">
<svg version="1.1" id="Layer_1" xmlns="http://www.w3.org/2000/svg" xmlns:xlink="http://www.w3.org/1999/xlink" x="0px" y="0px"
	 viewBox="0 0 48 48" enable-background="new 0 0 48 48" xml:space="preserve">
<g>
	<g>
		<g>
			<path fill="#E8EAE9" d="M0,28.9c13.1,19.4,34.4,19.4,47.5,0C34.4,9.5,13.1,9.5,0,28.9z"/>
		</g>
		<path fill="#55C0EB" d="M23.7,40.1c-6.2,0-11.2-5-11.2-11.2s5-11.2,11.2-11.2S35,22.7,35,28.9S29.9,40.1,23.7,40.1z"/>
		<g>
			<path fill="#FFFFFF" d="M23.7,36.1c-4,0-7.2-3.3-7.2-7.2c0-4,3.3-7.2,7.2-7.2c4,0,7.2,3.3,7.2,7.2C31,32.9,27.7,36.1,23.7,36.1z"
				/>
			<circle fill="#55C0EB" cx="23.7" cy="28.9" r="3.2"/>
		</g>
		<g>
			<g>
				<g>
					<path fill="#415A6B" d="M23.1,29.5L23.1,29.5c-0.5-0.5-0.5-1.3,0-1.7l20-20c0.5-0.5,1.3-0.5,1.7,0v0c0.5,0.5,0.5,1.3,0,1.7
						l-20,20C24.3,30,23.5,30,23.1,29.5z"/>
				</g>
			</g>
			<g>
				<polygon fill="#F3705A" points="42.4,10.3 41.6,4.6 35.3,11 36,16.6 41.6,17.3 48,11 				"/>
			</g>
		</g>
	</g>
</g>
</svg>
