<?xml version="1.0" encoding="utf-8"?>
<!-- Generator: Adobe Illustrator 18.0.0, SVG Export Plug-In . SVG Version: 6.00 Build 0)  -->
<!DOCTYPE svg PUBLIC "-//W3C//DTD SVG 1.1//EN" "http://www.w3.org/Graphics/SVG/1.1/DTD/svg11.dtd">
<svg version="1.1" id="Layer_1" xmlns="http://www.w3.org/2000/svg" xmlns:xlink="http://www.w3.org/1999/xlink" x="0px" y="0px"
	 viewBox="0 0 48 48" enable-background="new 0 0 48 48" xml:space="preserve">
<g>
	<g>
		<g>
			<g>
				<g>
					<path fill="#415A6B" d="M16.2,5.7V3.3c0-0.4,0.3-0.8,0.8-0.8h7.8c0.4,0,0.8,0.3,0.8,0.8v2.5H28V3.3C28,1.5,26.5,0,24.7,0h-7.8
						c-1.8,0-3.3,1.5-3.3,3.3v2.5H16.2z"/>
				</g>
			</g>
			<g>
				<g>
					<path fill="#415A6B" d="M39.6,5.1H2c-1.1,0-2,0.9-2,2v26.3c0,1.1,0.9,2,2,2h37.6c1.1,0,2-0.9,2-2V7.1C41.6,6,40.7,5.1,39.6,5.1
						z"/>
				</g>
			</g>
		</g>
		<g>
			<g>
				<circle fill="#FFFFFF" cx="33.1" cy="33.1" r="13.3"/>
				<path fill="#E8EAE9" d="M33.1,48c-8.2,0-14.9-6.7-14.9-14.9s6.7-14.9,14.9-14.9S48,24.9,48,33.1S41.3,48,33.1,48z M33.1,21.3
					c-6.5,0-11.7,5.3-11.7,11.7s5.3,11.7,11.7,11.7s11.7-5.3,11.7-11.7S39.6,21.3,33.1,21.3z"/>
			</g>
		</g>
		<g>
			<g>
				<g>
					<polygon fill="#415A6B" points="36,27.6 27.4,31.7 27.4,34.4 36,38.6 36,36.5 29.1,33.1 36,29.7 					"/>
				</g>
			</g>
			<g>
				<g>
					<circle fill="#FFD15C" cx="26.9" cy="33.1" r="2.6"/>
				</g>
			</g>
			<g>
				<g>
					<circle fill="#4EC0AA" cx="37.1" cy="38.1" r="2.6"/>
				</g>
			</g>
			<g>
				<g>
					<circle fill="#F3705A" cx="37.1" cy="28.1" r="2.6"/>
				</g>
			</g>
		</g>
	</g>
</g>
</svg>
