<?xml version="1.0" encoding="utf-8"?>
<!-- Generator: Adobe Illustrator 18.0.0, SVG Export Plug-In . SVG Version: 6.00 Build 0)  -->
<!DOCTYPE svg PUBLIC "-//W3C//DTD SVG 1.1//EN" "http://www.w3.org/Graphics/SVG/1.1/DTD/svg11.dtd">
<svg version="1.1" id="Layer_1" xmlns="http://www.w3.org/2000/svg" xmlns:xlink="http://www.w3.org/1999/xlink" x="0px" y="0px"
	 viewBox="0 0 48 48" enable-background="new 0 0 48 48" xml:space="preserve">
<g>
	<g>
		<path fill="#F3F3F3" d="M39,48H4c-2.2,0-4-1.8-4-4V4c0-2.2,1.8-4,4-4H39c2.2,0,4,1.8,4,4v40C43,46.2,41.2,48,39,48z"/>
		<polygon fill="#FFFFFF" points="4,44 4,4 39,4 39,44 		"/>
		<g>
			<polygon fill="#CED6E0" points="22.3,5.3 5.4,5.3 5.4,7.8 22.3,7.8 			"/>
			<polygon fill="#CED6E0" points="22.3,12 5.4,12 5.4,14.4 22.3,14.4 			"/>
			<polygon fill="#CED6E0" points="22.3,18.7 5.4,18.7 5.4,21.1 22.3,21.1 			"/>
			<polygon fill="#CED6E0" points="37.6,27.8 37.6,25.4 5.4,25.3 5.4,27.8 			"/>
			<polygon fill="#CED6E0" points="37.6,34.5 37.6,32.1 5.4,32 5.4,34.5 			"/>
			<polygon fill="#CED6E0" points="37.6,41.2 37.6,38.7 5.4,38.7 5.4,41.2 			"/>
		</g>
		<path fill="#66C6B9" d="M8.4,43.8c0,2.3-1.9,4.2-4.2,4.2h39.6c2.3,0,4.2-1.9,4.2-4.2H8.4z"/>
		<g>
			<path fill="#F3705A" d="M30.4,10.6c0,0.8-0.3,1.4-0.8,1.9c-0.5,0.5-1.2,0.8-2,0.8s-1.5-0.3-2-0.8c-0.5-0.5-0.8-1.2-0.8-1.9
				s0.3-1.4,0.8-1.9c0.5-0.5,1.2-0.8,2-0.8s1.5,0.3,2,0.8C30.1,9.2,30.4,9.9,30.4,10.6z M37.7,7.6L28.1,21h-3.3l9.6-13.4H37.7z
				 M27,11.3c0.1,0.2,0.3,0.3,0.6,0.3c0.2,0,0.4-0.1,0.6-0.3c0.1-0.2,0.2-0.4,0.2-0.7c0-0.3-0.1-0.5-0.2-0.7
				c-0.2-0.2-0.3-0.3-0.6-0.3S27.1,9.8,27,9.9c-0.2,0.2-0.2,0.4-0.2,0.7C26.8,10.9,26.8,11.1,27,11.3z M37.9,18.5
				c0,0.7-0.3,1.4-0.8,1.9c-0.5,0.5-1.2,0.8-2,0.8s-1.5-0.3-2-0.8s-0.8-1.1-0.8-1.9c0-0.7,0.3-1.4,0.8-1.9s1.2-0.8,2-0.8
				s1.5,0.3,2,0.8S37.9,17.7,37.9,18.5z M34.5,19.1c0.1,0.2,0.3,0.3,0.6,0.3c0.2,0,0.4-0.1,0.6-0.3c0.2-0.2,0.2-0.4,0.2-0.7
				s-0.1-0.5-0.2-0.7c-0.1-0.2-0.3-0.3-0.6-0.3s-0.4,0.1-0.6,0.3c-0.2,0.2-0.2,0.4-0.2,0.7S34.4,19,34.5,19.1z"/>
		</g>
	</g>
</g>
</svg>
