<?xml version="1.0" encoding="utf-8"?>
<!-- Generator: Adobe Illustrator 18.0.0, SVG Export Plug-In . SVG Version: 6.00 Build 0)  -->
<!DOCTYPE svg PUBLIC "-//W3C//DTD SVG 1.1//EN" "http://www.w3.org/Graphics/SVG/1.1/DTD/svg11.dtd">
<svg version="1.1" id="Layer_1" xmlns="http://www.w3.org/2000/svg" xmlns:xlink="http://www.w3.org/1999/xlink" x="0px" y="0px"
	 viewBox="0 0 48 48" enable-background="new 0 0 48 48" xml:space="preserve">
<g>
	<g>
		<path fill="#F2F2F2" d="M46.1,22.8l-1.7,3c-1.2,2.1-3.8,2.8-5.8,1.6c-1.1-0.6-1.8-1.6-2.1-2.7c-0.3-1-0.1-2.1,0.4-3.1l1.7-3
			c0.8-1.5,1-3.1,0.6-4.7c-0.4-1.6-1.3-3-2.8-4c-0.1-0.1-0.2-0.1-0.3-0.2C33,8,29,9.1,27.3,12.2L8.5,45.5c-1.2,2.1-3.8,2.8-5.8,1.6
			c-2-1.1-2.7-3.6-1.7-5.6C1,41.4,1,41.3,1,41.3L19.8,8c1.6-2.9,4.1-5,6.9-6.3c2.4-1.1,5.1-1.6,7.8-1.3c2,0.2,4,0.8,5.9,1.9
			c2.6,1.5,4.6,3.6,5.9,6.1c0.7,1.3,1.2,2.8,1.5,4.2c0.6,3.1,0.2,6.3-1.2,9.3C46.4,22.2,46.2,22.5,46.1,22.8z"/>
	</g>
	<g>
		<path fill="#54C0EB" d="M39.4,14.7c0.1,1.3-0.1,2.7-0.8,3.9l-1,1.7c4,0.1,6.7,1.8,8.1,3.1l0.3-0.6c0.2-0.3,0.3-0.6,0.5-0.9
			c0.7-1.5,1.2-3,1.3-4.6C44.5,14,40.9,14.4,39.4,14.7z"/>
		<path fill="#54C0EB" d="M44.5,5.7c-1.1-1.4-2.5-2.5-4.1-3.4c-0.5-0.3-1.1-0.6-1.6-0.8C37.5,2,35.1,3.7,33.8,9
			c0.8,0.1,1.6,0.4,2.3,0.8c0.1,0.1,0.2,0.1,0.3,0.2c0.9,0.5,1.5,1.3,2,2.1C39.2,10,40.8,6.8,44.5,5.7z"/>
		<path fill="#54C0EB" d="M27.2,1.5c-0.2,0.1-0.3,0.1-0.5,0.2c-1.8,0.8-3.4,2-4.8,3.4c-0.2,3.3,2.9,6.4,4.9,8l0.5-0.9
			c0.9-1.6,2.3-2.6,3.9-3.1C27.6,6.6,27.2,3.1,27.2,1.5z"/>
		<path fill="#54C0EB" d="M5.7,33l-2.8,5c1.7,4.3,4.7,5.8,6.3,6.3l3-5.3C8.5,38.1,6.2,34.1,5.7,33z"/>
		<path fill="#54C0EB" d="M11.5,22.7l-2.8,5c1.7,4.3,4.7,5.8,6.3,6.3l3-5.3C14.3,27.8,12.1,23.8,11.5,22.7z"/>
		<path fill="#54C0EB" d="M17.5,12.1l-2.8,5c1.7,4.3,4.7,5.8,6.3,6.3l3-5.3C20.3,17.3,18,13.2,17.5,12.1z"/>
	</g>
	<g>
		<path fill="#FF7058" d="M30.4,16.2c0.1,0,0.2,0,0.4,0.1c0.7,0.1,3.4,0.5,2.6,1.9c0,0-0.1,0.1-0.2,0.3c-1.7,2.2-2.7,4.8-3.1,7.6
			c-0.1,0.9-0.2,1.8-0.2,2.4l-4.1-2.3l-7.1-4.8l3.1-5.5C21.8,15.8,26.1,15.5,30.4,16.2z"/>
		<path fill="#FF7058" d="M18.6,21.2c0,0-0.6,6.1-1.5,9.2c0,0-1.3,5.1-0.7,5.6l3.7-3.4l5.7,3.4c0,0-3.4-6.2-2-9.3l-1.1-3.2
			L18.6,21.2z"/>
		<path fill="#F1543F" d="M24.3,27.7c-0.3-0.2-0.6-0.3-0.8-0.5c-2.1-1.5-5.2-5.5-5.3-5.7l-0.4-0.7l0.7,0c0.1,0,2,0.1,5.2,1.8
			c0.8,0.4,1.5,0.9,2.3,1.5c0.1,0.1,2.8,1.9,3.8,3.7c0.2,0.3,0.1,0.7,0,1c-0.2,0.3-0.5,0.5-0.9,0.4C27.9,29.2,25.8,28.6,24.3,27.7
			L24.3,27.7z"/>
		<path fill="#FF7058" d="M14.4,7.2c-0.1-0.1-0.2-0.2-0.2-0.3c-0.4-0.5-2.2-2.6-3-1.3c0,0,0,0.1-0.1,0.3c-1,2.6-2.7,4.8-4.9,6.5
			c-0.7,0.6-1.5,1.1-1.9,1.4l4.1,2.3l7.8,3.6l3.1-5.5C19.3,14.4,17.3,10.5,14.4,7.2z"/>
		<path fill="#FF7058" d="M16.3,19.9c0,0-4.9,3.7-7.1,6c0,0-3.7,3.7-4.4,3.5l1-4.9L0,21.5c0,0,7.1-0.3,9-3.1l3.3-0.7L16.3,19.9z"/>
		<path fill="#F1543F" d="M7.8,18.4c0.3,0.2,0.6,0.3,0.9,0.4c2.4,1,7.4,1.5,7.6,1.6l0.8-0.1l-0.4-0.6c0-0.1-1.1-1.7-4.3-3.5
			c-0.8-0.4-1.6-0.8-2.5-1.2c-0.1,0-3-1.4-5.1-1.3c-0.4,0-0.7,0.2-0.8,0.5c-0.2,0.3-0.1,0.7,0.1,1C4.7,16.1,6.2,17.5,7.8,18.4
			L7.8,18.4z"/>
		<path fill="#40596B" d="M19.3,22.9c-1.6-0.9-3.3-1.8-4.9-2.8c0.4-2.7,1.9-5.4,4-7.1c1.6,0.9,3.3,1.8,4.9,2.8
			C22.9,18.5,21.4,21.2,19.3,22.9z"/>
	</g>
</g>
</svg>
