<?xml version="1.0" encoding="utf-8"?>
<!-- Generator: Adobe Illustrator 19.0.1, SVG Export Plug-In . SVG Version: 6.00 Build 0)  -->
<svg version="1.1" id="Layer_1" xmlns="http://www.w3.org/2000/svg" xmlns:xlink="http://www.w3.org/1999/xlink" x="0px" y="0px"
	 viewBox="0 0 48 48" style="enable-background:new 0 0 48 48;" xml:space="preserve">
<style type="text/css">
	.st0{fill:#FFD15C;}
	.st1{fill:#55C0EB;}
	.st2{fill:#415A6B;}
	.st3{fill:#F7B64C;}
	.st4{fill:#344A5E;}
	.st5{fill:#E8EAE9;}
	.st6{fill:#CED6E0;}
</style>
<g>
	<g>
		<g>
			<g>
				<polygon class="st0" points="27.3,14.9 29.8,22.7 18.5,22.7 19.6,15.6 				"/>
			</g>
			<g>
				<path class="st1" d="M27.7,28.6V15.8c-0.7,1.5-2.2,2.5-3.8,2.5c-1.7,0-3.1-1-3.8-2.5v12.8C20.1,28.6,27.7,28.6,27.7,28.6z"/>
			</g>
			<g>
				<path class="st0" d="M27.6,7c0,0-0.1,3.2-0.6,4.6c0,0-0.2,0.6,0,1.4c0.3,0.9,0.6,2.1,1.8,3.4h-8.1l-0.4-1.5
					c-0.1,0,0.1-1,0.5-1.9c0.1-0.2,0-0.3,0-0.5c0,0-1.1-2.1-1.1-3.4s-0.2-2.2-0.2-2.2s-0.7-5.3,3.8-4.3S28,3.1,27.6,7z"/>
			</g>
			<g>
				<g>
					
						<ellipse transform="matrix(0.2383 -0.9712 0.9712 0.2383 13.0499 33.0546)" class="st0" cx="27.6" cy="8.2" rx="1.4" ry="0.6"/>
				</g>
				<g>
					<path class="st0" d="M19.2,8.4c0.2,0.7,0.6,1.3,0.9,1.2s0.5-0.8,0.3-1.5s-0.6-1.3-0.9-1.2C19.1,7,19,7.7,19.2,8.4z"/>
				</g>
			</g>
			<g>
				<path class="st2" d="M20.4,5.1c0,0-0.3-0.6-0.1-1.3s0.4-0.8,0.8-0.5c0.4,0.2,2.8,0.5,3.8,0.2s2-0.1,1.9,0.7S26.5,5.6,26.7,6
					s0.7,2.5,0.6,2.9c0,0,0.1-0.1,0.2-0.4s0-1.1,0.2-1.9s0.6-3.2-0.4-4.6c-0.9-1.5-3.1-2-4.7-2c-1.5,0-2.8,1.5-3.4,2.6
					C18.8,3.3,19,3.8,19,4.7c0,0.8,0.1,1.6,0.2,2.5c0.1,0.6,0.2,1.5,0.2,1.5h0.1c0,0-0.2-1.4,0.2-2C20.4,5.9,20.5,5.8,20.4,5.1"/>
			</g>
			<g>
				<path class="st3" d="M27,11.7L27,11.7c0-0.1-1.1,1.9-1.8,2.5c-0.6,0.5-1.9,0.6-2.5,0.2c-0.9-0.4-1.7-2-1.7-2
					c0.1,0.9-0.6,1.4-0.6,1.4l0.4,2.6h1.4c0.9,0,1.8-0.3,2.5-0.8c0.1-0.1,0.3-0.2,0.4-0.3C26.7,13.7,26.9,12,27,11.7z"/>
			</g>
			<g>
				<g>
					<g>
						<path class="st2" d="M37.4,28.6c0.1-1.7-0.7-6.1-1.1-8.8c-0.5-2.8-1.6-2.9-1.6-2.9h-1.9c-1.9,0.5-2.1,6.7-1.9,11.7
							C30.9,28.6,37.4,28.6,37.4,28.6z"/>
					</g>
					<g>
						<g>
							<path class="st4" d="M32.7,28.6c-0.1-2-0.2-3.7-0.2-4.6c0.1-3.5,2.2-7.2,2.2-7.2c-0.9-1.1-5.5-2.4-5.5-2.4
								c-1.5,2.7-2.7,8.2-3.8,14.1h7.3V28.6z"/>
						</g>
						<g>
							<path class="st2" d="M24.7,28.6h1c0.5-1.7,1-3.5,1.4-4.5c0.9-2.4,3.4-7.1,3.4-7.1L29,16.1h1.1c0,0-0.2-1-1-1.9
								c-0.7-0.9-2.1-1.3-2.1-1.3s0.8,2.2-0.5,5.3C25.8,20.2,25,24.8,24.7,28.6z"/>
						</g>
					</g>
				</g>
				<g>
					<g>
						<path class="st2" d="M17.1,28.6c0.2-5,0-11.3-1.9-11.7h-1.9c0,0-1.1,0.1-1.6,2.9c-0.4,2.7-1.2,7.1-1.1,8.8
							C10.6,28.6,17.1,28.6,17.1,28.6z"/>
					</g>
					<g>
						<g>
							<path class="st4" d="M15.3,28.6h7.3c-1.2-6-2.4-11.4-3.8-14.1c0,0-4.5,1.3-5.5,2.4c0,0,2.1,3.6,2.2,7.2
								C15.5,24.9,15.4,26.6,15.3,28.6z"/>
						</g>
						<g>
							<path class="st2" d="M21,24.1c0.4,1,0.9,2.8,1.4,4.5h1c-0.3-3.8-1.2-8.4-1.9-10.3C20.3,15.1,21,13,21,13s-1.4,0.4-2.1,1.3
								c-0.7,0.9-1,1.9-1,1.9H19L17.6,17C17.6,17,20.1,21.7,21,24.1z"/>
						</g>
					</g>
				</g>
			</g>
		</g>
		<g>
			<g>
				<path class="st5" d="M6,29.1L6,29.1c0,1.1,0.9,2,2,2h32c1.1,0,2-0.9,2-2l0,0c0-1.1-0.9-2-2-2H8C6.9,27.1,6,28,6,29.1z"/>
			</g>
			<g>
				<rect x="9.4" y="31.1" class="st6" width="29.3" height="16.9"/>
			</g>
			<g>
				<path class="st5" d="M33.5,48v-4.6c-2.7,0-5-2.2-5-5h-9c0,2.7-2.2,5-4.9,5V48H33.5z"/>
			</g>
		</g>
	</g>
</g>
</svg>
