<?xml version="1.0" encoding="utf-8"?>
<!-- Generator: Adobe Illustrator 18.0.0, SVG Export Plug-In . SVG Version: 6.00 Build 0)  -->
<!DOCTYPE svg PUBLIC "-//W3C//DTD SVG 1.1//EN" "http://www.w3.org/Graphics/SVG/1.1/DTD/svg11.dtd">
<svg version="1.1" id="Layer_1" xmlns="http://www.w3.org/2000/svg" xmlns:xlink="http://www.w3.org/1999/xlink" x="0px" y="0px"
	 viewBox="0 0 48 48" enable-background="new 0 0 48 48" xml:space="preserve">
<g>
	<g>
		<g>
			<path fill="#E8EAE9" d="M32.7,48H15.3c-1.8,0-3.3-1.3-3.5-3.1L7.4,9.3h33.1l-4.4,35.6C35.9,46.7,34.4,48,32.7,48z"/>
		</g>
		<g>
			<g>
				<path fill="#415A6B" d="M40.6,9.6H7.4c-1.1,0-2-0.9-2-2s0.9-2,2-2h33.1c1.1,0,2,0.9,2,2S41.7,9.6,40.6,9.6z"/>
			</g>
		</g>
		<g>
			<path fill="#344A5E" d="M36.9,0H11.1c-1,0-1.8,0.6-2.2,1.5l-1.5,4h33.1l-1.5-4C38.7,0.6,37.8,0,36.9,0z"/>
		</g>
		<polygon fill="#F05540" points="37.2,36.4 39.1,21 8.9,21 10.8,36.4 		"/>
		<g>
			<circle fill="#F3705A" cx="24" cy="28.7" r="8.9"/>
		</g>
		<g>
			<path fill="#FFFFFF" d="M23.4,28.7c0-2.7,2.5-4.2,4-5c-1.9-0.9-4.6-0.3-6.7,1.8c-2.3,2.3-2.9,5.6-1.3,7.4
				C20.7,32.3,23.4,31,23.4,28.7z"/>
			<path fill="#FFFFFF" d="M24.6,28.7c0,2.7-2.5,4.2-4,5c1.9,0.9,4.6,0.3,6.7-1.8c2.3-2.3,2.9-5.6,1.3-7.4
				C27.3,25,24.6,26.4,24.6,28.7z"/>
		</g>
	</g>
</g>
</svg>
