<?xml version="1.0" encoding="utf-8"?>
<!-- Generator: Adobe Illustrator 18.0.0, SVG Export Plug-In . SVG Version: 6.00 Build 0)  -->
<!DOCTYPE svg PUBLIC "-//W3C//DTD SVG 1.1//EN" "http://www.w3.org/Graphics/SVG/1.1/DTD/svg11.dtd">
<svg version="1.1" id="Layer_1" xmlns="http://www.w3.org/2000/svg" xmlns:xlink="http://www.w3.org/1999/xlink" x="0px" y="0px"
	 viewBox="0 0 512 512" enable-background="new 0 0 512 512" xml:space="preserve">
<g>
	<path fill="#F2705B" d="M488.8,2H23.2C11.5,2,2,11.5,2,23.2v101.2h508V23.2C510,11.5,500.5,2,488.8,2z"/>
	<path fill="#F2F2F2" d="M2,124.4v364.5c0,11.7,9.5,21.2,21.2,21.2h465.7c11.7,0,21.2-9.5,21.2-21.2V124.4H2z"/>
	<rect x="37" y="159.3" fill="#89D6F7" width="189.2" height="147.5"/>
	<rect x="37" y="425.9" fill="#65C5B8" width="154.2" height="49.1"/>
	<rect x="37" y="341.8" fill="#65C5B8" width="154.2" height="49.1"/>
	<rect x="285.9" y="159.3" fill="#89D6F7" width="189.2" height="147.5"/>
	<rect x="226.1" y="341.8" fill="#89D6F7" width="248.9" height="133.2"/>
	<circle fill="#FFD05C" cx="58" cy="63.2" r="21.1"/>
	<path fill="#FFFFFF" d="M457.5,45.7H320.7c-9.7,0-17.5,7.8-17.5,17.5c0,9.7,7.8,17.5,17.5,17.5h136.9c9.7,0,17.5-7.8,17.5-17.5
		C475,53.5,467.2,45.7,457.5,45.7z"/>
	<circle fill="#F2F2F2" cx="135.1" cy="63.2" r="21.1"/>
	<circle fill="#65C5B8" cx="212.2" cy="63.2" r="21.1"/>
</g>
</svg>
