<?xml version="1.0" encoding="utf-8"?>
<!-- Generator: Adobe Illustrator 20.1.0, SVG Export Plug-In . SVG Version: 6.00 Build 0)  -->
<!DOCTYPE svg PUBLIC "-//W3C//DTD SVG 1.1//EN" "http://www.w3.org/Graphics/SVG/1.1/DTD/svg11.dtd">
<svg version="1.1" id="Layer_1" xmlns="http://www.w3.org/2000/svg" xmlns:xlink="http://www.w3.org/1999/xlink" x="0px" y="0px"
	 viewBox="0 0 49 49" enable-background="new 0 0 49 49" xml:space="preserve">
<g>
	<path fill="#FFD15C" d="M2.7,44.8v1.7c0,1.1,0.9,2,2,2h30c1.1,0,2-0.9,2-2v-1.7H2.7z"/>
	<path fill="#FF7058" d="M47.4,31.2c-0.2,0.3-0.5,0.6-0.8,0.9l-1.1,1.1l-1.4,1.4L39,39.8v3c0,1.1-0.9,2-2,2H2.5c-1.1,0-2-0.9-2-2
		V19.7c0-5.3,2.2-10.1,5.6-13.6c1.8-1.8,4-3.3,6.4-4.2h0c0.3-0.1,0.7-0.3,1-0.4c0.3-0.1,0.6-0.2,0.9-0.3c0.6-0.2,1.3-0.3,1.9-0.4
		c0.2,0,0.5-0.1,0.7-0.1c0.5-0.1,1.1-0.1,1.6-0.2c0.3,0,0.7,0,1,0C30.3,0.5,39,9.1,39,19.7V23c2.6-1.9,6.3-1.5,8.4,1.2
		C48.9,26.3,48.8,29.1,47.4,31.2z"/>
	<path fill="#F1543F" d="M16.6,3.7c3.4,3.4-2,4.9-0.7,0.2c-1.3,4.7-5.2,0.7-0.5-0.5c-2.7,0.7-3.3-0.7-2.8-1.5h0
		c0.2-0.3,0.6-0.4,1-0.4c0.5,0.1,1.2,0.4,1.9,1.1c-0.5-0.5-0.9-1-1-1.4c0.6-0.2,1.3-0.3,1.9-0.4c0.1,0.4,0,1-0.2,1.7
		c0.2-0.9,0.6-1.4,0.9-1.8c0.5-0.1,1.1-0.1,1.6-0.2c0.6,0.6,0.4,1.9-2,2.5C21.4,1.8,20,7.2,16.6,3.7z"/>
	<path fill="#F2F2F2" d="M30.5,17.7c3.4,3.4,4.9-2,0.2-0.7c4.7-1.3,0.7-5.2-0.5-0.5c1.3-4.7-4.2-3.2-0.7,0.2c-3.4-3.4-4.9,2-0.2,0.7
		c-4.7,1.3-0.7,5.2,0.5,0.5C28.5,22.6,33.9,21.1,30.5,17.7z"/>
	<path fill="#FFFFFF" d="M47.4,31.2c-0.2,0.3-0.5,0.6-0.8,0.9l-0.6,0.6c-0.5-0.1-1-0.5-1.6-1.1c0.6,0.6,0.9,1.1,1.1,1.6l-1.4,1.4
		c-0.5-0.3-0.8-1.2-0.4-2.8c-1.3,4.7-5.2,0.7-0.5-0.5c-4.7,1.3-3.2-4.2,0.2-0.7c-3.4-3.4,2-4.9,0.7-0.2c1.3-4.7,5.2-0.7,0.5,0.5
		C46.1,30.5,47,30.8,47.4,31.2z"/>
	<path fill="#F1543F" d="M12.6,21.7c3.4,3.4,4.9-2,0.2-0.7c4.7-1.3,0.7-5.2-0.5-0.5c1.3-4.7-4.2-3.2-0.7,0.2c-3.4-3.4-4.9,2-0.2,0.7
		c-4.7,1.3-0.7,5.2,0.5,0.5C10.6,26.5,16,25.1,12.6,21.7z"/>
	<path fill="#F1543F" d="M26.5,35.6c3.4,3.4,4.9-2,0.2-0.7c4.7-1.3,0.7-5.2-0.5-0.5c1.3-4.7-4.2-3.2-0.7,0.2c-3.4-3.4-4.9,2-0.2,0.7
		c-4.7,1.3-0.7,5.2,0.5,0.5C24.5,40.5,30,39.1,26.5,35.6z"/>
	<path fill="#F2F2F2" d="M10.7,37.5c3.4,3.4,4.9-2,0.2-0.7c4.7-1.3,0.7-5.2-0.5-0.5c1.3-4.7-4.2-3.2-0.7,0.2c-3.4-3.4-4.9,2-0.2,0.7
		c-4.7,1.3-0.7,5.2,0.5,0.5C8.7,42.4,14.1,41,10.7,37.5z"/>
</g>
</svg>
