<?xml version="1.0" encoding="utf-8"?>
<!-- Generator: Adobe Illustrator 16.0.0, SVG Export Plug-In . SVG Version: 6.00 Build 0)  -->
<!DOCTYPE svg PUBLIC "-//W3C//DTD SVG 1.1//EN" "http://www.w3.org/Graphics/SVG/1.1/DTD/svg11.dtd">
<svg version="1.1" id="Layer_1" xmlns="http://www.w3.org/2000/svg" xmlns:xlink="http://www.w3.org/1999/xlink" x="0px" y="0px"
	 width="48px" height="48px" viewBox="0 0 48 48" enable-background="new 0 0 48 48" xml:space="preserve">
<g>
	<path fill="#F2F2F2" d="M47.591,42.904c-0.01-0.039-0.01-0.09-0.021-0.129c-0.739-4.141-3.569-7.5-7.31-9.121
		c-1.141-0.51-2.37-0.85-3.65-1c-0.4-0.05-0.93-0.119-1.51-0.199c-1.215-0.174-2.639-0.385-3.551-0.496l-4.157,6.531l-3.392-2.396
		l-3.393,2.396l-4.158-6.535c-0.91,0.117-2.353,0.334-3.58,0.5c-0.58,0.08-1.109,0.149-1.51,0.199
		c-5.449,0.641-9.98,4.711-10.939,10.121c-0.01,0.049-0.021,0.09-0.021,0.129c-0.18,1.101-0.33,4.34-0.44,5.101h48.08
		C47.931,47.244,47.771,44.005,47.591,42.904"/>
	<path fill="#F8B64C" d="M30.811,26.345v5.53l-6.81,4.219c0,0-6.84-4.219-6.83-4.209l-0.01-0.01v-5.53H30.811z"/>
	<g opacity="0.1">
		<g>
			<defs>
				<rect id="SVGID_71_" x="20.311" y="26.345" width="10.5" height="8.22"/>
			</defs>
			<clipPath id="SVGID_2_">
				<use xlink:href="#SVGID_71_"  overflow="visible"/>
			</clipPath>
			<polygon clip-path="url(#SVGID_2_)" fill="#40596B" points="26.48,34.564 20.311,30.055 23.311,26.345 30.811,26.345 
				30.811,31.875 			"/>
		</g>
	</g>
	<path fill="#F8B64C" d="M16.747,17.404c0.15,1.727-0.688,3.213-1.872,3.316s-2.269-1.213-2.42-2.941
		c-0.151-1.727,0.687-3.211,1.873-3.315C15.513,14.36,16.597,15.677,16.747,17.404"/>
	<path fill="#F8B64C" d="M35.519,17.78c-0.15,1.727-1.234,3.044-2.419,2.941c-1.187-0.104-2.024-1.589-1.873-3.316
		c0.151-1.728,1.235-3.044,2.42-2.941C34.831,14.568,35.669,16.053,35.519,17.78"/>
	<path fill="#FFD15C" d="M33.955,12.885v3.272c-0.01,0.693-0.048,1.386-0.135,2.069c-0.144,1.136-0.386,2.252-0.722,3.331
		c-0.817,2.607-2.194,5.012-4.051,7.043l-0.953,1.039c-0.867,0.953-2.098,1.492-3.388,1.492h-1.442c-1.28,0-2.512-0.549-3.379-1.492
		L18.943,28.6c-1.319-1.434-2.397-3.07-3.195-4.812c-0.81-1.751-1.348-3.628-1.577-5.562c-0.088-0.683-0.136-1.376-0.136-2.069
		c-0.01-0.077-0.01-0.144-0.01-0.221v-2.993c0-0.943,0.135-1.867,0.385-2.733c1.185-4.167,5.022-7.227,9.585-7.227
		c4.553,0,8.391,3.06,9.575,7.227C33.82,11.057,33.955,11.961,33.955,12.885"/>
	<path fill="#ACB3BA" d="M32.874,29.293c-0.011,0.012-0.021,0.012-0.021,0.012v-0.022C32.863,29.282,32.874,29.293,32.874,29.293"/>
	<path fill="#ACB3BA" d="M32.917,29.283v0.021c0,0-0.011,0-0.021-0.011C32.896,29.293,32.906,29.283,32.917,29.283"/>
	<path fill="#40596B" d="M39.4,48.005H8.62c1.58-5.61-0.529-13.96-0.859-14.351c1.14-0.51,2.369-0.85,3.65-1
		c0.389-0.049,0.909-0.109,1.469-0.189L23.991,46.24l11.109-13.785c0.58,0.08,1.109,0.15,1.51,0.199c1.28,0.15,2.51,0.49,3.65,1
		C39.931,34.045,37.82,42.395,39.4,48.005"/>
	<polygon fill="#CDD6E0" points="23.999,36.092 30.812,31.875 31.56,31.956 27.394,38.49 	"/>
	<polygon fill="#CDD6E0" points="24.003,36.092 17.16,31.875 16.44,31.956 20.608,38.49 	"/>
	<path fill="#40596B" d="M28.081,35.225l-4.08,1.791l-4.08-1.791c-0.287-0.127-0.629,0.051-0.629,0.325v3.935
		c0,0.275,0.342,0.453,0.629,0.326l4.08-1.791l4.08,1.791c0.287,0.127,0.629-0.051,0.629-0.326V35.55
		C28.71,35.275,28.368,35.098,28.081,35.225"/>
	<path fill="#40596B" d="M13.612,14.722l0.413,0.617c0,0,0.668-3.996,1.103-4.776c0,0,0.801-2.809,5.375-1.124
		c0,0,9.471,2.408,10.434-0.963c0,0,0.861-0.78,1.919,0.396c0,0,1.101,0.274,1.101,6.468l0.608-0.458
		c2.966-8.608-1.942-9.936-1.942-9.936c-0.176-1.68-1.785-2.886-3.545-3.713c-3.236-1.521-6.912-1.628-10.266-0.386
		c-3.498,1.296-5.094,3.411-5.809,5.246c-0.582,1.494-0.599,3.145-0.211,4.701C13.044,11.799,13.356,13.258,13.612,14.722"/>
</g>
</svg>
