<?xml version="1.0" encoding="utf-8"?>
<!-- Generator: Adobe Illustrator 16.0.0, SVG Export Plug-In . SVG Version: 6.00 Build 0)  -->
<!DOCTYPE svg PUBLIC "-//W3C//DTD SVG 1.1//EN" "http://www.w3.org/Graphics/SVG/1.1/DTD/svg11.dtd">
<svg version="1.1" id="Layer_1" xmlns="http://www.w3.org/2000/svg" xmlns:xlink="http://www.w3.org/1999/xlink" x="0px" y="0px"
	 width="48px" height="48px" viewBox="0 0 48 48" enable-background="new 0 0 48 48" xml:space="preserve">
<g>
	<path fill="#FFD15C" d="M18.563,6.326c0,3.475-2.815,6.289-6.29,6.289s-6.29-2.814-6.29-6.289s2.815-6.291,6.29-6.291
		S18.563,2.852,18.563,6.326"/>
	<path fill="#F8B64C" d="M17.614,6.326c0,2.949-2.392,5.34-5.341,5.34s-5.342-2.391-5.342-5.34c0-2.951,2.393-5.342,5.342-5.342
		S17.614,3.375,17.614,6.326"/>
	<path fill="#FFD15C" d="M7.783,6.023h3.366c0.146,0,0.218-0.176,0.115-0.277L8.883,3.363c-0.07-0.07-0.189-0.066-0.252,0.01
		C8.074,4.063,7.709,4.906,7.612,5.836C7.603,5.934,7.685,6.023,7.783,6.023"/>
	<path fill="#FFD15C" d="M12.854,5.316l2.383-2.381c0.07-0.07,0.066-0.189-0.012-0.252c-0.688-0.559-1.531-0.922-2.461-1.018
		c-0.099-0.012-0.188,0.07-0.188,0.17v3.367C12.576,5.348,12.751,5.42,12.854,5.316"/>
	<path fill="#FFD15C" d="M11.783,1.664c-0.93,0.098-1.774,0.463-2.463,1.02c-0.076,0.063-0.08,0.182-0.01,0.252l2.383,2.381
		c0.103,0.104,0.277,0.031,0.277-0.115V1.836C11.971,1.736,11.882,1.654,11.783,1.664"/>
	<path fill="#FFD15C" d="M11.149,6.629H7.782c-0.098,0-0.18,0.088-0.17,0.186C7.709,7.746,8.073,8.59,8.631,9.279
		c0.063,0.074,0.183,0.08,0.252,0.01l2.382-2.383C11.367,6.803,11.295,6.629,11.149,6.629"/>
	<path fill="#FFD15C" d="M13.396,6.023h3.367c0.099,0,0.18-0.09,0.17-0.188c-0.097-0.93-0.461-1.775-1.019-2.463
		c-0.062-0.076-0.183-0.08-0.251-0.01l-2.382,2.383C13.18,5.848,13.252,6.023,13.396,6.023"/>
	<path fill="#FFD15C" d="M16.764,6.629h-3.367c-0.145,0-0.217,0.174-0.114,0.277l2.382,2.383c0.07,0.07,0.189,0.064,0.251-0.01
		c0.558-0.689,0.922-1.533,1.019-2.465C16.943,6.717,16.861,6.629,16.764,6.629"/>
	<path fill="#FFD15C" d="M11.693,7.334L9.311,9.717c-0.07,0.07-0.066,0.189,0.01,0.25c0.688,0.559,1.533,0.922,2.463,1.02
		c0.099,0.01,0.188-0.07,0.188-0.17V7.449C11.971,7.305,11.796,7.23,11.693,7.334"/>
	<path fill="#FFD15C" d="M12.854,7.334c-0.103-0.104-0.277-0.029-0.277,0.115v3.367c0,0.1,0.089,0.18,0.188,0.17
		c0.93-0.098,1.773-0.461,2.461-1.02c0.078-0.061,0.082-0.18,0.012-0.25L12.854,7.334z"/>
	<rect x="23.023" y="33.996" fill="#CDD6E0" width="2.695" height="12.621"/>
	<path fill="#CDD6E0" d="M18.061,46.617L18.061,46.617c0-0.744,0.604-1.346,1.348-1.346h9.926c0.744,0,1.348,0.602,1.348,1.346
		s-0.604,1.348-1.348,1.348h-9.926C18.664,47.965,18.061,47.361,18.061,46.617"/>
	<path fill="#F2F2F2" d="M37.269,23.783c-0.799-5.785-1.053-11.629-0.778-17.457H12.253c0.274,5.828,0.021,11.672-0.779,17.457
		l-0.358,2.6c-1.105,8.045,5.147,15.209,13.256,15.209s14.361-7.164,13.257-15.209L37.269,23.783z"/>
	<path fill="#FFD15C" d="M35.783,23.988c-0.373-2.695-0.627-5.42-0.769-8.158H13.727c-0.141,2.74-0.395,5.465-0.768,8.158
		l-0.358,2.6c-0.467,3.404,0.56,6.84,2.817,9.432c2.259,2.588,5.521,4.072,8.953,4.072c3.433,0,6.695-1.484,8.953-4.072
		c2.258-2.592,3.285-6.027,2.817-9.43L35.783,23.988z"/>
	<path fill="#FF7058" d="M41.994,1.252c-0.117-0.539-0.647-0.883-1.188-0.766l-9.399,2.801c-0.32,0.068-0.585,0.291-0.711,0.594
		l-4.977,11.951h2.166L32.34,5.133l8.889-2.691C41.768,2.324,42.11,1.793,41.994,1.252"/>
	<path fill="#FFFFFF" d="M23.384,31.939l-2.043-2.043c-0.541-0.541-1.417-0.541-1.958,0l-2.043,2.043
		c-0.54,0.541-0.54,1.416,0,1.957l2.043,2.043c0.541,0.541,1.417,0.541,1.958,0l2.043-2.043
		C23.925,33.355,23.925,32.48,23.384,31.939"/>
	<path fill="#FFFFFF" d="M31.791,28.088l-2.043-2.043c-0.541-0.541-1.417-0.541-1.958,0l-2.043,2.043
		c-0.54,0.541-0.54,1.418,0,1.959l2.043,2.043c0.541,0.539,1.417,0.539,1.958,0l2.043-2.043
		C32.332,29.506,32.332,28.629,31.791,28.088"/>
</g>
</svg>
