<?xml version="1.0" encoding="utf-8"?>
<!-- Generator: Adobe Illustrator 18.0.0, SVG Export Plug-In . SVG Version: 6.00 Build 0)  -->
<!DOCTYPE svg PUBLIC "-//W3C//DTD SVG 1.1//EN" "http://www.w3.org/Graphics/SVG/1.1/DTD/svg11.dtd">
<svg version="1.1" id="Layer_1" xmlns="http://www.w3.org/2000/svg" xmlns:xlink="http://www.w3.org/1999/xlink" x="0px" y="0px"
	 viewBox="0 0 48 48" enable-background="new 0 0 48 48" xml:space="preserve">
<g>
	<path fill="#CDD6E0" d="M31.5,7.5h-7.5l-0.3,1.2h-3.9l-0.3-1.2H0v11.9L14.9,24c0,9.1,7.4,16.5,16.5,16.5C40.6,40.5,48,33.1,48,24
		C48,14.9,40.6,7.5,31.5,7.5z"/>
	<circle fill="#F2F2F2" cx="31.5" cy="24" r="10.3"/>
	<circle fill="#FF7058" cx="31.5" cy="24" r="7.1"/>
	<path opacity="0.1" fill="#231F20" d="M25.2,24.9c0-3.9,3.2-7.1,7.1-7.1c1.7,0,3.3,0.6,4.6,1.7c-1.3-1.5-3.2-2.5-5.4-2.5
		c-3.9,0-7.1,3.2-7.1,7.1c0,2.2,1,4.1,2.5,5.4C25.9,28.2,25.2,26.6,25.2,24.9z"/>
</g>
</svg>
