<?xml version="1.0" encoding="utf-8"?>
<!-- Generator: Adobe Illustrator 18.0.0, SVG Export Plug-In . SVG Version: 6.00 Build 0)  -->
<!DOCTYPE svg PUBLIC "-//W3C//DTD SVG 1.1//EN" "http://www.w3.org/Graphics/SVG/1.1/DTD/svg11.dtd">
<svg version="1.1" id="Layer_1" xmlns="http://www.w3.org/2000/svg" xmlns:xlink="http://www.w3.org/1999/xlink" x="0px" y="0px"
	 viewBox="0 0 48 48" enable-background="new 0 0 48 48" xml:space="preserve">
<g>
	<g>
		<path fill="#F3F3F3" d="M32.2,0H7.7c-1.7,0-3,1.3-3,3v42c0,1.7,1.3,3,3,3l32.5,0c1.7,0,3-1.3,3-3v-34L32.2,0z"/>
		<polygon fill="#ADB3BA" points="32.2,0 43.3,11.1 32.2,11.1 		"/>
		<polygon fill="#415A6B" points="29.8,19.6 27.8,19.6 21.4,29.2 18.2,15 16.7,15.3 20.4,31.4 21.7,31.4 28.7,21.1 33.1,33.8 
			34.5,33.3 		"/>
		<circle fill="#F3705A" cx="17.5" cy="15.2" r="2.5"/>
		<circle fill="#FFD15C" cx="21" cy="30.9" r="2.5"/>
		<circle fill="#8AD7F8" cx="28.7" cy="19.4" r="2.5"/>
		<circle fill="#F3705A" cx="33.8" cy="33.5" r="2.5"/>
		<g>
			<path fill="#415A6B" d="M37.5,41.5h-1v-1.1c0-0.3-0.3-0.6-0.6-0.6c-0.3,0-0.6,0.3-0.6,0.6v1.1h-3.8v-1.1c0-0.3-0.3-0.6-0.6-0.6h0
				c-0.3,0-0.6,0.3-0.6,0.6v1.1h-3.8v-1.1c0-0.3-0.3-0.6-0.6-0.6h0c-0.3,0-0.6,0.3-0.6,0.6v1.1h-3.8v-1.1c0-0.3-0.3-0.6-0.6-0.6
				c-0.3,0-0.6,0.3-0.6,0.6v1.1h-3.8v-1.1c0-0.3-0.3-0.6-0.6-0.6s-0.6,0.3-0.6,0.6v1.1h-4v-4h1.1c0.3,0,0.6-0.3,0.6-0.6
				c0-0.3-0.3-0.6-0.6-0.6h-1.1v-3.8h1.1c0.3,0,0.6-0.3,0.6-0.6v0c0-0.3-0.3-0.6-0.6-0.6h-1.1v-3.8h1.1c0.3,0,0.6-0.3,0.6-0.6v0
				c0-0.3-0.3-0.6-0.6-0.6h-1.1v-3.8h1.1c0.3,0,0.6-0.3,0.6-0.6s-0.3-0.6-0.6-0.6h-1.1v-3.8h1.1c0.3,0,0.6-0.3,0.6-0.6v0
				c0-0.3-0.3-0.6-0.6-0.6h-1.1v-3.8h1.1c0.3,0,0.6-0.3,0.6-0.6v0c0-0.3-0.3-0.6-0.6-0.6h-1.1V7.7h1.1c0.3,0,0.6-0.3,0.6-0.6
				S13,6.5,12.7,6.5h-1.1v-1c0-0.5-0.3-0.9-0.8-1c-0.6-0.1-1.2,0.4-1.2,1v36.9c0,0.6,0.4,1,1,1h27c0.6,0,1-0.4,1-1v0
				C38.5,41.9,38,41.5,37.5,41.5z"/>
		</g>
	</g>
</g>
</svg>
