<?xml version="1.0" encoding="utf-8"?>
<!-- Generator: Adobe Illustrator 18.0.0, SVG Export Plug-In . SVG Version: 6.00 Build 0)  -->
<!DOCTYPE svg PUBLIC "-//W3C//DTD SVG 1.1//EN" "http://www.w3.org/Graphics/SVG/1.1/DTD/svg11.dtd">
<svg version="1.1" id="Layer_1" xmlns="http://www.w3.org/2000/svg" xmlns:xlink="http://www.w3.org/1999/xlink" x="0px" y="0px"
	 viewBox="0 0 48 48" enable-background="new 0 0 48 48" xml:space="preserve">
<g>
	<g>
		<path fill="#54C0EB" d="M31,21.1l-3.7-3.7l-3.4,1.3c-0.8-0.5-1.7-0.8-2.6-1.1l-1.4-3.3l-5.2,0l-1.5,3.3c-0.9,0.3-1.8,0.6-2.6,1.1
			l-3.4-1.3l-3.7,3.7l1.3,3.4c-0.5,0.8-0.8,1.7-1.1,2.6l-3.3,1.4l0,5.2l3.3,1.5c0.3,0.9,0.6,1.8,1.1,2.6l-1.3,3.4l3.7,3.7l3.4-1.3
			c0.8,0.5,1.7,0.8,2.6,1.1l1.4,3.3l5.2,0l1.5-3.3c0.9-0.3,1.8-0.6,2.6-1.1L27,45l3.7-3.7l-1.3-3.4c0.5-0.8,0.8-1.7,1.1-2.6l3.3-1.4
			l0-5.2l-3.3-1.5c-0.3-0.9-0.6-1.8-1.1-2.6L31,21.1z M22.1,36.2c-2.8,2.8-7.3,2.7-10-0.1c-2.8-2.8-2.7-7.3,0.1-10
			c2.8-2.8,7.3-2.7,10,0.1C24.9,28.9,24.9,33.4,22.1,36.2z"/>
		<path fill="#F2F2F2" d="M9.3,23.2c-4.4,4.3-4.4,11.4-0.1,15.7c4.3,4.4,11.4,4.4,15.7,0.1c4.4-4.3,4.4-11.4,0.1-15.7
			C20.7,18.9,13.7,18.9,9.3,23.2z M22.1,36.2c-2.8,2.8-7.3,2.7-10-0.1c-2.8-2.8-2.7-7.3,0.1-10c2.8-2.8,7.3-2.7,10,0.1
			C24.9,28.9,24.9,33.4,22.1,36.2z"/>
	</g>
	<path fill="#FFD15C" d="M32.4,3.5l-0.7,0.4c-0.6-0.7-1.3-1.3-2-1.7l0.2-0.7c0.1-0.4-0.1-0.9-0.5-1L28,0c-0.4-0.1-0.9,0.1-1,0.5
		l-0.2,0.7c-0.9-0.1-1.8,0-2.7,0.2l-0.4-0.7c-0.2-0.4-0.7-0.5-1.1-0.3l-1.2,0.6c-0.4,0.2-0.5,0.7-0.3,1.1l0.4,0.7
		c-0.7,0.6-1.3,1.3-1.7,2L19,4.8c-0.4-0.1-0.9,0.1-1,0.5l-0.4,1.3c-0.1,0.4,0.1,0.9,0.5,1l0.7,0.2c-0.1,0.9,0,1.8,0.2,2.7l-0.7,0.4
		c-0.4,0.2-0.5,0.7-0.3,1.1l0.6,1.2c0.2,0.4,0.7,0.5,1.1,0.3l0.7-0.4c0.6,0.7,1.3,1.3,2,1.7l-0.2,0.7c-0.1,0.4,0.1,0.9,0.5,1
		l1.3,0.4c0.4,0.1,0.9-0.1,1-0.5l0.2-0.7c0.9,0.1,1.8,0,2.7-0.2l0.4,0.7c0.2,0.4,0.7,0.5,1.1,0.3l1.2-0.6c0.4-0.2,0.5-0.7,0.3-1.1
		l-0.4-0.7c0.7-0.6,1.3-1.3,1.7-2l0.7,0.2c0.4,0.1,0.9-0.1,1-0.5l0.4-1.3c0.1-0.4-0.1-0.9-0.5-1l-0.7-0.2c0.1-0.9,0-1.8-0.2-2.7
		l0.7-0.4c0.4-0.2,0.5-0.7,0.3-1.1l-0.6-1.2C33.3,3.5,32.8,3.3,32.4,3.5z M28,12.2c-2,1.1-4.5,0.3-5.6-1.7c-1.1-2-0.3-4.5,1.7-5.6
		c2-1.1,4.5-0.3,5.6,1.7C30.8,8.6,30.1,11.2,28,12.2z"/>
	<path fill="#FF7058" d="M45.6,16.3l-0.7,0.4c-0.6-0.7-1.3-1.3-2-1.7l0.2-0.7c0.1-0.4-0.1-0.9-0.5-1l-1.3-0.4
		c-0.4-0.1-0.9,0.1-1,0.5L40,14c-0.9-0.1-1.8,0-2.7,0.2L37,13.6c-0.2-0.4-0.7-0.5-1.1-0.3l-1.2,0.6c-0.4,0.2-0.5,0.7-0.3,1.1
		l0.4,0.7c-0.7,0.6-1.3,1.3-1.7,2l-0.7-0.2c-0.4-0.1-0.9,0.1-1,0.5l-0.4,1.3c-0.1,0.4,0.1,0.9,0.5,1l0.7,0.2c-0.1,0.9,0,1.8,0.2,2.7
		l-0.7,0.4c-0.4,0.2-0.5,0.7-0.3,1.1l0.6,1.2c0.2,0.4,0.7,0.5,1.1,0.3l0.7-0.4c0.6,0.7,1.3,1.3,2,1.7l-0.2,0.7
		c-0.1,0.4,0.1,0.9,0.5,1l1.3,0.4c0.4,0.1,0.9-0.1,1-0.5l0.2-0.7c0.9,0.1,1.8,0,2.7-0.2l0.4,0.7c0.2,0.4,0.7,0.5,1.1,0.3l1.2-0.6
		c0.4-0.2,0.5-0.7,0.3-1.1l-0.4-0.7c0.7-0.6,1.3-1.3,1.7-2l0.7,0.2c0.4,0.1,0.9-0.1,1-0.5l0.4-1.3c0.1-0.4-0.1-0.9-0.5-1L46.5,22
		c0.1-0.9,0-1.8-0.2-2.7l0.7-0.4c0.4-0.2,0.5-0.7,0.3-1.1l-0.6-1.2C46.4,16.2,46,16.1,45.6,16.3z M41.2,24.9c-2,1.1-4.5,0.3-5.6-1.7
		c-1.1-2-0.3-4.5,1.7-5.6c2-1.1,4.5-0.3,5.6,1.7S43.2,23.9,41.2,24.9z"/>
</g>
</svg>
