<?xml version="1.0" encoding="utf-8"?>
<!-- Generator: Adobe Illustrator 16.0.0, SVG Export Plug-In . SVG Version: 6.00 Build 0)  -->
<!DOCTYPE svg PUBLIC "-//W3C//DTD SVG 1.1//EN" "http://www.w3.org/Graphics/SVG/1.1/DTD/svg11.dtd">
<svg version="1.1" id="Layer_1" xmlns="http://www.w3.org/2000/svg" xmlns:xlink="http://www.w3.org/1999/xlink" x="0px" y="0px"
	 width="48px" height="48px" viewBox="0 0 48 48" enable-background="new 0 0 48 48" xml:space="preserve">
<g>
	<path fill="#84DBFF" d="M20.909,0C12.081,0,4.925,7.156,4.925,15.984v27.433C4.925,45.948,6.978,48,9.509,48h22.802
		c2.53,0,4.583-2.053,4.583-4.584V15.984C36.894,7.156,29.737,0,20.909,0"/>
	<rect x="27.632" y="29.211" fill="#40596B" width="0.977" height="13.281"/>
	<rect x="30.786" y="29.211" fill="#40596B" width="2.016" height="13.281"/>
	<rect x="23.835" y="29.211" fill="#40596B" width="1.222" height="13.281"/>
	<rect x="16.792" y="29.211" fill="#40596B" width="0.611" height="13.281"/>
	<rect x="20.04" y="29.211" fill="#40596B" width="1.465" height="13.281"/>
	<rect x="12.874" y="29.211" fill="#40596B" width="1.1" height="13.281"/>
	<rect x="9.018" y="29.211" fill="#40596B" width="1.465" height="13.281"/>
	<path fill="#FFFFFF" d="M23.972,12.024c0,1.69-1.371,3.063-3.063,3.063s-3.063-1.372-3.063-3.063c0-1.691,1.371-3.063,3.063-3.063
		S23.972,10.333,23.972,12.024"/>
	<path fill="#F2F2F2" d="M36.878,15.63c0.004,0.119,0.018,0.235,0.018,0.354v3.369c2.436,4.354,4.844,13.774,3.525,18.86
		c-0.749,2.899-2.398,3.026-2.932,3.068c-1.547,0-6.312-4.479-10.41-11.703c-4.28-7.547-5.576-14.158-3.381-17.253
		c0.045-0.064,0.131-0.122,0.258-0.163c0.004-0.048,0.014-0.095,0.014-0.144c0-0.787-0.309-1.498-0.801-2.041
		c-0.635,0.223-1.047,0.609-1.34,1.021c-3.975,5.604,0.953,15.65,3.256,19.71c2.969,5.231,8.767,12.86,12.509,12.858
		c1.726-0.135,4.087-1.076,5.047-4.78C44.388,32.039,40.546,18.76,36.878,15.63"/>
</g>
</svg>
