<?xml version="1.0" encoding="utf-8"?>
<!-- Generator: Adobe Illustrator 18.0.0, SVG Export Plug-In . SVG Version: 6.00 Build 0)  -->
<!DOCTYPE svg PUBLIC "-//W3C//DTD SVG 1.1//EN" "http://www.w3.org/Graphics/SVG/1.1/DTD/svg11.dtd">
<svg version="1.1" id="Layer_1" xmlns="http://www.w3.org/2000/svg" xmlns:xlink="http://www.w3.org/1999/xlink" x="0px" y="0px"
	 viewBox="0 0 48 48" enable-background="new 0 0 48 48" xml:space="preserve">
<g>
	<g>
		<rect x="7" y="1.2" fill="#F05540" width="4.8" height="10.4"/>
		<rect x="25.7" y="20.1" fill="#E8EAE9" width="22.3" height="28"/>
		<rect x="2.9" y="16.5" fill="#F3F3F3" width="22.7" height="31.6"/>
		<rect x="9.8" y="35.8" fill="#344A5E" width="9" height="12.2"/>
		<polygon fill="#F3705A" points="28.6,16.5 0,16.5 3,8.5 25.7,8.5 		"/>
		<rect x="5.3" y="-0.1" fill="#F3705A" width="8.3" height="4.6"/>
		<g>
			<rect x="29.2" y="24.9" fill="#415A6B" width="15.4" height="18.4"/>
			<rect x="37.5" y="26.1" fill="#8AD7F8" width="5.8" height="7.3"/>
			<rect x="30.4" y="26.1" fill="#8AD7F8" width="5.8" height="7.3"/>
			<rect x="30.4" y="34.7" fill="#8AD7F8" width="5.8" height="7.3"/>
			<rect x="37.5" y="34.7" fill="#8AD7F8" width="5.8" height="7.3"/>
		</g>
		<g>
			<rect x="6.6" y="21.1" fill="#415A6B" width="15.4" height="9.8"/>
			<rect x="14.9" y="22.4" fill="#8AD7F8" width="5.8" height="7.3"/>
			<rect x="7.9" y="22.4" fill="#8AD7F8" width="5.8" height="7.3"/>
		</g>
	</g>
</g>
</svg>
