<?xml version="1.0" encoding="utf-8"?>
<!-- Generator: Adobe Illustrator 18.0.0, SVG Export Plug-In . SVG Version: 6.00 Build 0)  -->
<!DOCTYPE svg PUBLIC "-//W3C//DTD SVG 1.1//EN" "http://www.w3.org/Graphics/SVG/1.1/DTD/svg11.dtd">
<svg version="1.1" id="Layer_1" xmlns="http://www.w3.org/2000/svg" xmlns:xlink="http://www.w3.org/1999/xlink" x="0px" y="0px"
	 viewBox="0 0 48 48" enable-background="new 0 0 48 48" xml:space="preserve">
<g>
	<g>
		<g>
			<path fill="#F3F3F3" d="M48,10.8V45c0,1.7-1.3,3-3,3H3c-1.7,0-3-1.3-3-3V10.8H48z"/>
		</g>
		<g>
			<path fill="#F3705A" d="M48,10.8V3c0-1.7-1.3-3-3-3H3C1.3,0,0,1.3,0,3v7.8H48z"/>
		</g>
		<g>
			<g>
				<path fill="#FFFFFF" d="M9.2,3.6c0.5,0.4,0.7,1.1,0.7,1.9c0,0.8-0.2,1.4-0.7,1.9C8.7,7.8,8,8,7,8H5.3V3h1.8C8,3,8.7,3.2,9.2,3.6
					z M8.3,6.6C8.6,6.4,8.7,6,8.7,5.5c0-0.5-0.1-0.9-0.4-1.2C8,4.1,7.6,4,7,4H6.4V7h0.7C7.7,7,8,6.9,8.3,6.6z"/>
				<path fill="#FFFFFF" d="M14.1,7.5c-0.4,0.4-1,0.6-1.6,0.6c-0.6,0-1.1-0.2-1.5-0.5c-0.4-0.4-0.6-0.9-0.6-1.5s0.2-1.1,0.6-1.5
					c0.4-0.4,0.9-0.5,1.4-0.5c0.5,0,1,0.2,1.4,0.5c0.4,0.3,0.6,0.8,0.6,1.3v0.6h-2.8c0,0.2,0.1,0.4,0.3,0.5c0.2,0.1,0.4,0.2,0.6,0.2
					c0.4,0,0.7-0.1,0.9-0.4L14.1,7.5z M13.1,5.2C13,5,12.8,5,12.6,5C12.3,5,12.1,5,12,5.2c-0.2,0.1-0.3,0.3-0.3,0.5h1.7
					C13.3,5.5,13.3,5.3,13.1,5.2z"/>
				<path fill="#FFFFFF" d="M17.1,7.1c0.4,0,0.7-0.2,1-0.5l0.6,0.7c-0.5,0.5-1,0.8-1.6,0.8c-0.6,0-1.1-0.2-1.5-0.6
					C15.2,7.2,15,6.7,15,6.1s0.2-1.1,0.6-1.5c0.4-0.4,0.9-0.6,1.5-0.6c0.3,0,0.6,0.1,0.9,0.2c0.3,0.1,0.5,0.3,0.8,0.5l-0.6,0.7
					c-0.1-0.2-0.3-0.3-0.5-0.3C17.5,5.1,17.3,5,17.1,5c-0.3,0-0.5,0.1-0.7,0.3c-0.2,0.2-0.3,0.4-0.3,0.8c0,0.3,0.1,0.6,0.3,0.8
					C16.6,7,16.9,7.1,17.1,7.1z"/>
				<path fill="#FFFFFF" d="M22.9,7.5c-0.4,0.4-1,0.6-1.6,0.6c-0.6,0-1.1-0.2-1.5-0.5c-0.4-0.4-0.6-0.9-0.6-1.5s0.2-1.1,0.6-1.5
					c0.4-0.4,0.9-0.5,1.4-0.5c0.5,0,1,0.2,1.4,0.5c0.4,0.3,0.6,0.8,0.6,1.3v0.6h-2.8c0,0.2,0.1,0.4,0.3,0.5c0.2,0.1,0.4,0.2,0.6,0.2
					c0.4,0,0.7-0.1,0.9-0.4L22.9,7.5z M21.8,5.2C21.7,5,21.5,5,21.3,5c-0.2,0-0.4,0.1-0.6,0.2c-0.2,0.1-0.3,0.3-0.3,0.5h1.7
					C22.1,5.5,22,5.3,21.8,5.2z"/>
				<path fill="#FFFFFF" d="M27.6,5.9V8h-1.1V5.9c0-0.3,0-0.5-0.1-0.7C26.2,5.1,26.1,5,25.9,5c-0.2,0-0.4,0.1-0.6,0.2
					c-0.2,0.2-0.2,0.4-0.2,0.7V8H24V4.1h1.1v0.4c0.3-0.3,0.6-0.5,1-0.5c0.2,0,0.5,0.1,0.7,0.2c0.2,0.1,0.4,0.3,0.5,0.5
					c0.1-0.2,0.4-0.4,0.6-0.6c0.3-0.1,0.5-0.2,0.8-0.2c0.5,0,0.8,0.1,1.1,0.4c0.3,0.3,0.4,0.7,0.4,1.2V8H29V5.9
					C29,5.3,28.8,5,28.4,5c-0.2,0-0.4,0.1-0.6,0.2C27.6,5.4,27.6,5.6,27.6,5.9z"/>
				<path fill="#FFFFFF" d="M33.4,4.1c0.5,0,0.9,0.2,1.2,0.6s0.5,0.8,0.5,1.4S35,7.1,34.6,7.5c-0.4,0.4-0.8,0.6-1.2,0.6
					c-0.5,0-0.8-0.2-1.2-0.6V8h-1.1V2.6h1.1v1.9C32.5,4.2,32.9,4.1,33.4,4.1z M32.2,6.1c0,0.3,0.1,0.6,0.3,0.8
					c0.2,0.2,0.4,0.3,0.6,0.3s0.5-0.1,0.7-0.3C34,6.7,34,6.4,34,6.1c0-0.3-0.1-0.6-0.3-0.8C33.6,5.1,33.4,5,33.1,5
					c-0.3,0-0.5,0.1-0.7,0.3C32.3,5.5,32.2,5.8,32.2,6.1z"/>
				<path fill="#FFFFFF" d="M39.3,7.5c-0.4,0.4-1,0.6-1.6,0.6c-0.6,0-1.1-0.2-1.5-0.5c-0.4-0.4-0.6-0.9-0.6-1.5s0.2-1.1,0.6-1.5
					c0.4-0.4,0.9-0.5,1.4-0.5c0.5,0,1,0.2,1.4,0.5c0.4,0.3,0.6,0.8,0.6,1.3v0.6h-2.8c0,0.2,0.1,0.4,0.3,0.5c0.2,0.1,0.4,0.2,0.6,0.2
					c0.4,0,0.7-0.1,0.9-0.4L39.3,7.5z M38.3,5.2C38.2,5,38,5,37.8,5c-0.2,0-0.4,0.1-0.6,0.2c-0.2,0.1-0.3,0.3-0.3,0.5h1.7
					C38.5,5.5,38.5,5.3,38.3,5.2z"/>
				<path fill="#FFFFFF" d="M42.5,5.1c-0.3,0-0.6,0.1-0.7,0.3c-0.2,0.2-0.2,0.5-0.2,0.9V8h-1.1V4.1h1.1v0.5c0.1-0.2,0.3-0.3,0.5-0.4
					c0.2-0.1,0.4-0.2,0.6-0.2l0,1H42.5z"/>
			</g>
		</g>
		<g>
			<path fill="#4ABAA5" d="M10.8,19.8h7.9v19.5h-4.2V23.5h-3.7V19.8z"/>
			<path fill="#4ABAA5" d="M31,23c-1.2,0-2.1,0.4-2.8,1.2c-0.7,0.8-1.1,1.9-1.2,3.3c1.2-0.8,2.5-1.2,3.8-1.2c1.8,0,3.3,0.6,4.6,1.8
				c1.2,1.2,1.8,2.8,1.8,4.7c0,2-0.7,3.6-2,4.7c-1.3,1.2-3,1.8-4.9,1.8c-1.4,0-2.6-0.3-3.6-0.8c-1-0.5-1.8-1.3-2.4-2.2
				c-1.1-1.8-1.7-4.1-1.7-6.9c0-1.8,0.2-3.3,0.7-4.7c0.4-1.3,1-2.4,1.8-3.2c1.5-1.6,3.3-2.3,5.5-2.3c0.9,0,1.8,0.1,2.6,0.4
				c0.8,0.3,1.5,0.5,1.9,0.8c0.4,0.3,0.9,0.6,1.5,1.1l-2.1,3.1c-0.1-0.1-0.3-0.3-0.5-0.4s-0.6-0.4-1.3-0.7C32.2,23.2,31.6,23,31,23z
				 M30.4,30.1c-0.9,0-1.6,0.3-2.2,0.8c-0.6,0.5-0.9,1.2-0.9,2c0,0.8,0.3,1.5,0.8,2.1c0.6,0.6,1.3,0.9,2.1,0.9
				c0.8,0,1.5-0.3,2.1-0.8c0.6-0.5,0.8-1.2,0.8-2c0-0.8-0.3-1.5-0.8-2.1C32,30.3,31.3,30.1,30.4,30.1z"/>
		</g>
		<g>
			<g>
				<path fill="#415A6B" d="M5.3,13.6v0.8H3.4v0.9h1.8V16H3.4v1.6H2.6v-4H5.3z"/>
				<path fill="#415A6B" d="M9.3,14.9c0,0.6-0.3,1.1-0.8,1.2l1,1.4H8.4l-0.9-1.3H6.9v1.3H6v-4h1.5c0.6,0,1.1,0.1,1.3,0.3
					C9.2,14.1,9.3,14.4,9.3,14.9z M8.2,15.4c0.1-0.1,0.2-0.3,0.2-0.5c0-0.2-0.1-0.4-0.2-0.4c-0.1-0.1-0.3-0.1-0.6-0.1H6.9v1.2h0.7
					C7.9,15.5,8.1,15.5,8.2,15.4z"/>
				<path fill="#415A6B" d="M10.2,13.6h0.9v4h-0.9V13.6z"/>
			</g>
		</g>
	</g>
</g>
</svg>
