<?xml version="1.0" encoding="utf-8"?>
<!-- Generator: Adobe Illustrator 18.0.0, SVG Export Plug-In . SVG Version: 6.00 Build 0)  -->
<!DOCTYPE svg PUBLIC "-//W3C//DTD SVG 1.1//EN" "http://www.w3.org/Graphics/SVG/1.1/DTD/svg11.dtd">
<svg version="1.1" id="Layer_1" xmlns="http://www.w3.org/2000/svg" xmlns:xlink="http://www.w3.org/1999/xlink" x="0px" y="0px"
	 viewBox="0 0 48 48" enable-background="new 0 0 48 48" xml:space="preserve">
<g>
	<g>
		<path fill="#415A6B" d="M42.4,6.2H5.6c-1.7,0-3,1.3-3,3v27.1h42.9V9.2C45.4,7.5,44.1,6.2,42.4,6.2z"/>
		<rect x="5.6" y="9.2" fill="#8AD7F8" width="36.9" height="24.1"/>
		<path fill="#E8EAE9" d="M0,36.3c0,3.1,2.5,5.5,5.5,5.5h36.9c3.1,0,5.5-2.5,5.5-5.5H0z"/>
		<polygon fill="#CED6E0" points="29,38.6 19,38.6 18.1,36.3 29.9,36.3 		"/>
		<g>
			<g>
				<g>
					<path fill="#F3705A" d="M17.8,22.7v-2.5c0-0.8-0.4-1.5-1.1-1.8c-2.3-1-4.9-1-7.2,0c-0.7,0.3-1.1,1-1.1,1.8v2.5H17.8z"/>
				</g>
				<g>
					<circle fill="#F3705A" cx="13.1" cy="14.4" r="2.3"/>
				</g>
			</g>
		</g>
		<g>
			<g>
				<rect x="8.4" y="25.1" fill="#FFFFFF" width="6.2" height="5.6"/>
			</g>
			<g>
				<rect x="16.7" y="25.1" fill="#FFFFFF" width="6.2" height="5.6"/>
			</g>
			<g>
				<rect x="25.1" y="25.1" fill="#FFFFFF" width="6.2" height="5.6"/>
			</g>
			<g>
				<rect x="33.5" y="25.1" fill="#FFFFFF" width="6.2" height="5.6"/>
			</g>
		</g>
		<g>
			<g>
				<rect x="21.6" y="17.1" fill="#FFFFFF" width="18.1" height="1.5"/>
			</g>
			<g>
				<rect x="21.6" y="21.1" fill="#FFFFFF" width="11.5" height="1.5"/>
			</g>
		</g>
	</g>
</g>
</svg>
