<?xml version="1.0" encoding="utf-8"?>
<!-- Generator: Adobe Illustrator 18.0.0, SVG Export Plug-In . SVG Version: 6.00 Build 0)  -->
<!DOCTYPE svg PUBLIC "-//W3C//DTD SVG 1.1//EN" "http://www.w3.org/Graphics/SVG/1.1/DTD/svg11.dtd">
<svg version="1.1" id="Layer_1" xmlns="http://www.w3.org/2000/svg" xmlns:xlink="http://www.w3.org/1999/xlink" x="0px" y="0px"
	 viewBox="0 0 48 48" enable-background="new 0 0 48 48" xml:space="preserve">
<g>
	<g>
		<g>
			<path fill="#55C0EB" d="M42,8.2C34.8,6.5,28.5,2.8,25.6,1c-1-0.6-2.3-0.6-3.3,0C19.5,2.8,13.2,6.5,6,8.2
				c-1.4,0.3-2.4,1.5-2.4,2.9l0,14.2c0,10.5,14.2,19.2,18.9,21.8c0.9,0.5,2,0.5,2.9,0c4.6-2.6,18.9-11.3,18.9-21.8V11.1
				C44.3,9.7,43.3,8.5,42,8.2z"/>
			<path fill="#FFFFFF" d="M24,42.2C16.7,38,8.7,31.3,8.7,25.3V12.6c6.4-1.7,12-4.7,15.3-6.8c3.4,2.1,9,5.1,15.3,6.8v12.7
				C39.3,31.3,31.3,38,24,42.2z"/>
		</g>
		<g>
			<path fill="#F3705A" d="M34.3,15.5c-0.8-0.8-2-0.8-2.8,0L20.6,26.3l-4.1-4.1c-0.8-0.8-2-0.8-2.8,0s-0.8,2,0,2.8l5.5,5.5
				c0.8,0.8,2,0.8,2.8,0l12.2-12.2C35.1,17.6,35.1,16.3,34.3,15.5z"/>
		</g>
	</g>
</g>
</svg>
