<?xml version="1.0" encoding="utf-8"?>
<!-- Generator: Adobe Illustrator 18.0.0, SVG Export Plug-In . SVG Version: 6.00 Build 0)  -->
<!DOCTYPE svg PUBLIC "-//W3C//DTD SVG 1.1//EN" "http://www.w3.org/Graphics/SVG/1.1/DTD/svg11.dtd">
<svg version="1.1" id="Layer_1" xmlns="http://www.w3.org/2000/svg" xmlns:xlink="http://www.w3.org/1999/xlink" x="0px" y="0px"
	 viewBox="0 0 48 48" enable-background="new 0 0 48 48" xml:space="preserve">
<g>
	<g>
		<g>
			<g>
				<polygon fill="#F05540" points="33,29.5 21.7,29.5 29,49 32.6,43.6 38.9,45.4 				"/>
			</g>
			<g>
				<polygon fill="#F3705A" points="15,29.5 9.1,45.4 15.4,43.6 19,49 26.3,29.5 				"/>
			</g>
		</g>
		<g>
			<path fill="#FFD15C" d="M42.2,16.7c0,1.3-1.7,2.5-2,3.7c-0.3,1.3,0.7,3,0.2,4.2c-0.6,1.2-2.6,1.5-3.4,2.5c-0.8,1-0.6,3-1.7,3.9
				c-1,0.8-2.9,0.2-4.1,0.8c-1.2,0.6-1.9,2.5-3.2,2.7c-1.2,0.3-2.7-1.1-4-1.1c-1.3,0-2.8,1.4-4.1,1.1c-1.3-0.3-2-2.2-3.2-2.7
				c-1.2-0.6-3.1,0-4.1-0.8c-1-0.8-0.8-2.8-1.7-3.9c-0.8-1-2.8-1.3-3.4-2.5c-0.6-1.2,0.5-2.9,0.2-4.2c-0.3-1.2-2-2.4-2-3.7
				c0-1.3,1.7-2.5,2-3.7c0.3-1.3-0.7-3-0.2-4.2c0.6-1.2,2.6-1.5,3.4-2.5c0.8-1,0.6-3,1.7-3.9c1-0.8,2.9-0.2,4.1-0.8
				C17.9,1.2,18.7-0.7,20-1c1.2-0.3,2.7,1.1,4,1.1c1.3,0,2.8-1.4,4.1-1.1c1.3,0.3,2,2.2,3.2,2.7c1.2,0.6,3.1,0,4.1,0.8
				c1,0.8,0.8,2.8,1.7,3.9c0.8,1,2.8,1.3,3.4,2.5c0.6,1.2-0.5,2.9-0.2,4.2C40.5,14.3,42.2,15.4,42.2,16.7z"/>
		</g>
		<g>
			<circle fill="#F3F3F3" cx="24" cy="16.7" r="12.3"/>
		</g>
		<g>
			<g>
				<rect x="18.4" y="15.8" fill="#344A5E" width="11.2" height="5.7"/>
			</g>
			<g>
				<polygon fill="#415A6B" points="24,10.9 14.6,14.5 24,18.2 33.4,14.5 				"/>
			</g>
			<g>
				<rect x="31.5" y="14.5" fill="#415A6B" width="0.6" height="6.1"/>
				<path fill="#415A6B" d="M32.1,20.7c-0.2,0-0.4,0-0.6,0c0,0.3-0.4,1.4-0.6,1.6c0.5,0.4,1.3,0.4,1.9,0C32.5,22,32.1,21,32.1,20.7z
					"/>
			</g>
		</g>
	</g>
</g>
</svg>
