<?xml version="1.0" encoding="utf-8"?>
<!-- Generator: Adobe Illustrator 18.0.0, SVG Export Plug-In . SVG Version: 6.00 Build 0)  -->
<!DOCTYPE svg PUBLIC "-//W3C//DTD SVG 1.1//EN" "http://www.w3.org/Graphics/SVG/1.1/DTD/svg11.dtd">
<svg version="1.1" id="Layer_1" xmlns="http://www.w3.org/2000/svg" xmlns:xlink="http://www.w3.org/1999/xlink" x="0px" y="0px"
	 viewBox="0 0 48 48" enable-background="new 0 0 48 48" xml:space="preserve">
<g>
	<g>
		<g>
			<g>
				<g>
					<g>
						<polygon fill="#F05540" points="19.1,39.6 20.5,38.4 17.8,35.7 15.1,38.4 16.4,39.6 						"/>
					</g>
					<g>
						<polygon fill="#F3705A" points="20.1,48 19.1,39.6 16.4,39.6 15.4,48 						"/>
					</g>
				</g>
				<g>
					<g>
						<path fill="#344A5E" d="M35.5,48l-0.7-5.6c-0.3-2.5-2.1-4.7-4.5-5.4l-5-1.5L20.6,48H35.5z"/>
						<g>
							<g>
								<path fill="#F3F3F3" d="M17.8,35.8c0,0,4.1-3.4,4-4.8l1.8,3.9l-2,5.2L17.8,35.8z"/>
							</g>
							<g>
								<polygon fill="#415A6B" points="22.4,48 27.6,39.5 25.3,37.9 27.3,37.5 22.6,32.9 19.4,48 								"/>
							</g>
						</g>
					</g>
					<g>
						<path fill="#344A5E" d="M14.9,48l-4.7-12.5l-5,1.5c-2.5,0.7-4.2,2.8-4.5,5.4L0,48H14.9z"/>
						<g>
							<g>
								<path fill="#F3F3F3" d="M17.8,35.8c0,0-4.1-3.4-4-4.8L12,35l2,5.2L17.8,35.8z"/>
							</g>
							<g>
								<polygon fill="#415A6B" points="13.1,48 16.2,48 12.9,32.9 8.2,37.5 10.2,37.9 7.9,39.5 								"/>
							</g>
						</g>
					</g>
				</g>
			</g>
			<g>
				<path fill="#F7B64C" d="M21.7,26.5h-7.9l0,4.6c-0.2,1.3,4,4.8,4,4.8s4.1-3.4,4-4.8L21.7,26.5z"/>
			</g>
			<g>
				<g>
					<g>
						<path fill="#FFD15C" d="M25.9,23.9c-0.3,1.5-1.2,2.5-2.1,2.4c-0.9-0.2-1.3-1.5-1-3c0.3-1.5,1.2-2.5,2.1-2.4
							C25.7,21.1,26.2,22.4,25.9,23.9z"/>
					</g>
					<g>
						<path fill="#FFD15C" d="M9.6,23.9c0.3,1.5,1.2,2.5,2.1,2.4c0.9-0.2,1.3-1.5,1-3c-0.3-1.5-1.2-2.5-2.1-2.4
							C9.7,21.1,9.3,22.4,9.6,23.9z"/>
					</g>
				</g>
				<g>
					<ellipse fill="#FFD15C" cx="17.7" cy="22.8" rx="6.6" ry="10.1"/>
				</g>
				<g>
					<path fill="#415A6B" d="M11.2,24.9l0.5-6.7c0,0,2,0.1,3.9-2.6c0,0-0.3,2.5-3,3.1c0,0,2,0,3.9-2.3c1.7,1.9,4.1,2.8,7.2,2.8
						c0,0,1.1,3.3,0.4,6.1l0,0c1.7-5.3,3.6-12.5-4.1-13.6c0,0-5.9-3.7-9.2,0.7c-0.7,1-1.1,2.1-1.2,3.3C9.7,17.3,9.3,20.1,11.2,24.9
						L11.2,24.9z"/>
				</g>
			</g>
		</g>
		<g>
			<path fill="#8AD7F8" d="M48,10.6c0,5.8-4.7,10.5-10.5,10.6l-6.3,3.9v-5.9c-2.7-1.9-4.5-5.1-4.5-8.6C26.8,4.7,31.5,0,37.4,0
				C43.3,0,48,4.7,48,10.6z"/>
		</g>
		<g>
			<path fill="#FFFFFF" d="M38.8,13.3H36v-1.4c0-0.5,0.1-0.9,0.2-1.1c0.1-0.2,0.4-0.6,0.8-1l1.2-1.3c0.2-0.2,0.3-0.5,0.3-0.9
				c0-0.3-0.1-0.6-0.3-0.9c-0.2-0.2-0.5-0.3-0.8-0.3s-0.6,0.1-0.8,0.4c-0.2,0.3-0.3,0.6-0.4,1.1h-2.9c0.1-1.2,0.6-2.2,1.3-2.9
				c0.8-0.7,1.7-1,2.9-1c1.1,0,2.1,0.3,2.8,0.9c0.7,0.6,1.1,1.5,1.1,2.6c0,0.5-0.1,0.9-0.2,1.1C41.1,8.8,41,9,41,9.1
				c0,0.1-0.2,0.3-0.3,0.5c-0.2,0.2-0.3,0.3-0.4,0.4c-0.3,0.3-0.6,0.6-0.8,0.8c-0.3,0.3-0.4,0.5-0.5,0.6c-0.1,0.2-0.1,0.4-0.1,0.7
				V13.3z M36.3,16.8c-0.3-0.3-0.5-0.7-0.5-1.1c0-0.5,0.2-0.8,0.5-1.1c0.3-0.3,0.7-0.5,1.1-0.5c0.5,0,0.8,0.2,1.1,0.5
				c0.3,0.3,0.5,0.7,0.5,1.1c0,0.5-0.2,0.8-0.5,1.1c-0.3,0.3-0.7,0.5-1.1,0.5C37,17.2,36.6,17.1,36.3,16.8z"/>
		</g>
	</g>
</g>
</svg>
