<?xml version="1.0" encoding="utf-8"?>
<!-- Generator: Adobe Illustrator 18.0.0, SVG Export Plug-In . SVG Version: 6.00 Build 0)  -->
<!DOCTYPE svg PUBLIC "-//W3C//DTD SVG 1.1//EN" "http://www.w3.org/Graphics/SVG/1.1/DTD/svg11.dtd">
<svg version="1.1" id="Layer_1" xmlns="http://www.w3.org/2000/svg" xmlns:xlink="http://www.w3.org/1999/xlink" x="0px" y="0px"
	 viewBox="0 0 48 48" enable-background="new 0 0 48 48" xml:space="preserve">
<g>
	<g>
		<g>
			<path fill="#F3705A" d="M42.8,44.8l-1.8,1.7c-4.2,4.2-16.5-1.3-27.5-12.2C2.7,23.4-2.8,11.1,1.4,6.9l1.7-1.7l13.7,13.7L12.7,23
				c-1.3,1.3,0.4,5.1,3.8,8.5c3.4,3.4,7.2,5.1,8.5,3.8l4.2-4.2L42.8,44.8z"/>
			<path fill="#E8EAE9" d="M29.8,30.5l-1,1l13.7,13.7l1-1c1.3-1.3,1.3-3.4,0-4.7l-9-9C33.2,29.2,31.1,29.2,29.8,30.5z"/>
			<path fill="#E8EAE9" d="M3.8,4.5l-1,1l13.7,13.7l1-1c1.3-1.3,1.3-3.4,0-4.7l-9-9C7.2,3.2,5.1,3.2,3.8,4.5z"/>
		</g>
		<g>
			<g>
				<g>
					<path fill="#FFD15C" d="M28.6,12.4v10.3c0,1.1,0.9,2,2,2h8.1l6,3.5v-3.5h1.2c1.1,0,2-0.9,2-2V12.4c0-1.1-0.9-2-2-2H30.7
						C29.5,10.4,28.6,11.3,28.6,12.4z"/>
				</g>
				<g>
					<path fill="#FFD15C" d="M48,12.4v10.3c0,1.1-0.9,2-2,2h-1.2v3.5l-6-3.5h-8.1c-1.1,0-2-0.9-2-2V12.4c0-1.1,0.9-2,2-2H46
						C47.1,10.4,48,11.3,48,12.4z"/>
				</g>
				<path fill="#F7B64C" d="M39.2,10.4v2c0,1.7-1.4,3.1-3.1,3.1h-7.5v-3c0-1.1,0.9-2,2-2H39.2z"/>
				<g>
					<circle fill="#FFFFFF" cx="33.1" cy="17.6" r="1.7"/>
				</g>
				<g>
					<g>
						<g>
							<circle fill="#FFFFFF" cx="43.5" cy="17.6" r="1.7"/>
						</g>
						<g>
							<circle fill="#FFFFFF" cx="38.3" cy="17.6" r="1.7"/>
						</g>
					</g>
				</g>
			</g>
			<g>
				<g>
					<path fill="#8AD7F8" d="M38.2,2v10.3c0,1.1-0.9,2-2,2H28l-6,3.5v-3.5h-1.2c-1.1,0-2-0.9-2-2V2c0-1.1,0.9-2,2-2h15.3
						C37.3,0,38.2,0.9,38.2,2z"/>
				</g>
				<g>
					<g>
						<g>
							<circle fill="#FFFFFF" cx="23.3" cy="7.2" r="1.7"/>
						</g>
						<g>
							<circle fill="#FFFFFF" cx="28.5" cy="7.2" r="1.7"/>
						</g>
					</g>
					<g>
						<circle fill="#FFFFFF" cx="33.7" cy="7.2" r="1.7"/>
					</g>
				</g>
			</g>
		</g>
	</g>
</g>
</svg>
