<?xml version="1.0" encoding="utf-8"?>
<!-- Generator: Adobe Illustrator 18.0.0, SVG Export Plug-In . SVG Version: 6.00 Build 0)  -->
<!DOCTYPE svg PUBLIC "-//W3C//DTD SVG 1.1//EN" "http://www.w3.org/Graphics/SVG/1.1/DTD/svg11.dtd">
<svg version="1.1" id="Layer_1" xmlns="http://www.w3.org/2000/svg" xmlns:xlink="http://www.w3.org/1999/xlink" x="0px" y="0px"
	 viewBox="0 0 48 48" enable-background="new 0 0 48 48" xml:space="preserve">
<g>
	<g>
		<g>
			<g>
				<g>
					<path fill="#F26F5A" d="M12.3,47.9l-0.7-0.8c0,0,0.7-0.7,1.4-1c0.7-0.3,2.1-1.5,2.1-1.5l2.6,1.4c0,0,0,0.8-0.4,0.8
						C16.7,46.8,12.3,47.9,12.3,47.9"/>
				</g>
			</g>
		</g>
		<g>
			<g>
				<g>
					<path fill="#CED6E0" d="M11.5,47.1c0,0,0.3,0.4,2,0.2c0.5-0.1,1-0.2,1.5-0.4c0.3-0.1,0.6-0.2,0.8-0.2c0.4,0,1.7-0.2,1.7-0.7
						c0,0,0.3,0.9-0.5,0.9c-0.9,0-1.7,0.2-2.1,0.5c-0.4,0.2-1.6,0.7-2.9,0.5C12.1,47.9,11.4,47.9,11.5,47.1z"/>
				</g>
			</g>
		</g>
	</g>
	<g>
		<g>
			<g>
				<g>
					<path fill="#F26F5A" d="M39.8,44.5c0,0,1.7,1.3,2.2,1.8c0.5,0.5,0.3,0.5,0.3,0.5l-0.6,0.7c0,0-2-0.4-2.3-0.7
						c-0.3-0.3-0.9-0.6-1-0.6c0,0-0.5-0.2-0.5-0.2S38.4,44,39.8,44.5z"/>
				</g>
			</g>
		</g>
		<g>
			<g>
				<g>
					<path fill="#CED6E0" d="M38,45.7c0,0,0,0.2,0.6,0.4c0.3,0.1,0.5,0.2,0.6,0.3c0.4,0.4,0.9,0.6,1.4,0.7c0.1,0,0.2,0,0.2,0
						c1.2,0,1.5-0.3,1.5-0.3s0.1,0.6-0.4,0.8c-0.5,0.2-1.7,0.1-2.1-0.1c-0.4-0.2-0.5-0.4-0.5-0.5c0-0.1-0.4-0.6-0.8-0.6
						C38.1,46.4,37.7,46.2,38,45.7z"/>
				</g>
			</g>
		</g>
	</g>
	<g>
		<g>
			<g>
				<g>
					<path fill="#425A6B" d="M31,20.2l1.2,0.1c0,0,2.7,2.7,3.2,6.9c0.5,4.2,0.9,5.8,1.4,6.6c0.4,0.8-0.1,1,0.3,1.5s0.8,0.8,0.8,1.2
						c0,0.4,0.6,3.5,1.4,5c0.8,1.4,1,3.5,1,3.5s-0.6-0.2-1.2,0.2c-0.5,0.4-0.9,0.9-1.1,0.9c-0.2,0-0.8-0.1-1-0.4
						c-0.1-0.3-0.8-2.2-1.2-2.8c-0.4-0.6-2-5.9-2.3-6.6c-0.3-0.7-0.7-2.2-0.7-2.2s-1.8-5.6-2.2-6.3c-0.4-0.7-0.8-0.8-1.2-0.5
						c-0.4,0.4-2.8,3.7-3.4,5.1c-0.7,1.4-3.2,6-3.2,6s-3.2,5.3-4.4,6.5c0,0-0.8,1.6-1.5,1.6c0,0-1.2-0.7-1.8-1.1
						c-0.7-0.4-0.6-1.1,0.1-1.5c0.7-0.4,2.8-4.6,3.2-5.6c0.4-1.1,1.5-2.8,2.2-3c0,0,1.5-3.2,2-5.2c0.5-2,1.9-4.9,1.9-4.9l6.6-5.3"/>
				</g>
			</g>
		</g>
		<g>
			<g>
				<g>
					<g>
						<path fill="#344A5E" d="M15.6,20.2c-0.1,0.9,0.3,1.7,0.6,2.5c0.3,0.8,0.5,1.8,0.1,2.5c-0.2,0.4-0.6,0.8-0.7,1.2
							c-0.1,0.3-0.1,0.6,0,0.9c0,0.3,0,0.6-0.1,0.9c-0.1,0.3-0.4,0.6-0.7,0.6c0.3-0.7,0.2-1.5-0.2-2.1c0.2,0.6,0,1.3-0.5,1.7
							c0.1-0.5-0.1-1-0.3-1.5c-0.2-0.5-0.5-0.9-0.4-1.4c0-0.3,0.1-0.7,0.2-1c0-1-1.1-1.9-1-2.9c0.1-0.6,0.6-1.1,1.2-1.4
							C14.3,20,15,20,15.6,20"/>
					</g>
				</g>
			</g>
		</g>
		<g>
			<g>
				<g>
					<path fill="#F5B54C" d="M6.1,2.3c0,0,0.3-0.2,0.4,0L5.7,0.9C5.6,0.6,5.9,0.4,6,0.7L5.8,0.3C5.7,0.1,6-0.1,6.1,0.1l0.2,0.2
						C6.2,0.1,6.4-0.1,6.5,0.1l0.3,0.5c-0.2-0.2,0-0.4,0.2-0.2c0,0,1,0.8,1.2,1.1c0.2,0.3,1,0.7,1.3,1.7c0,0,1.8,2,2.3,2.4
						s2.6,2.4,2.6,2.4s0.2,0.2,0.3,0.5c0.1,0.3,1.8,3,1.8,3s1,1.8,1.2,2.2c0.2,0.5,0.7,0.9,1.6,1.1c1,0.2,1.9,0.4,1.9,0.4l0.2,6.9
						l-1,1.5H20c0,0-0.6,0.7-0.8,0.9c0,0-0.1,1.4,0,1.8c0.1,0.4,0.1,2.4,0,2.8c-0.1,0.4,0,1.8,0,1.8s0,1.8-0.4,3.1
						c-0.4,1.3-0.9,3.4-0.9,3.4s-0.1,0.6,0.1,1.1c0.3,0.5,0.3,0.9,0.1,1.3c0,0,0.1,1.1-0.3,1.4c0,0-0.2,0.1-0.2,0
						c0,0-0.2,1.3-0.7,1.3c0,0-0.2,0-0.2-0.2c0-0.1,0.5-1.4,0.3-2.2c0,0,0.1-1.6-0.1-2C16.9,38,17,34.7,17,34.7s-0.3-2.5,0.1-3.5
						c0.4-1-0.1-3.7-0.1-3.7s-0.7-1.6-0.5-3.4c0.1-1.8,0-2.9,0-2.9L15.7,21l-1.3-3.4l2.5-0.1c0,0-1.4-1.3-1.8-2.8
						c-0.4-1.5-0.3-1.6-0.3-1.6s-0.2-0.7-1.1-2.3c0,0-0.4-1-0.9-1.2c-0.5-0.2-1.4-1.5-2-2.5C10.2,6,8.5,3.9,8.5,3.9L7.8,3.8
						C7.5,3.7,7.2,3.6,7,3.4L6.4,2.9L6.1,2.3z"/>
				</g>
			</g>
		</g>
		<g>
			<g>
				<g>
					<path fill="#FFD15C" d="M13.4,17.1c0,0,2.8,1.5,2.9,2.7c0.1,1.2-0.1,1.8-0.7,2c-0.6,0.2-2,0.4-4.5-0.9
						C11.1,20.9,11.6,16.5,13.4,17.1z"/>
				</g>
			</g>
		</g>
		<g>
			<g>
				<g>
					<path fill="#344A5E" d="M15.6,17.8c0,0-1.7-0.5-2.3,0c-0.6,0.5-0.7,1.1-0.7,1.1s-0.6,0.6-0.6,0.9c0,0-0.3,0.2-0.7,0
						c0,0,0.5,0.2,0.8,0.2c0,0-0.2,0.5-0.8,0.6c0,0,0,0.7,0.8,1c0,0-0.7,0.3-1.4-0.3c-0.7-0.7-0.6-2.5-0.6-2.5s0-0.2,0.1-0.5
						c0.5-1.3,1.9-1.9,3.2-1.5C14,16.9,14.9,17.2,15.6,17.8z"/>
				</g>
			</g>
		</g>
		<g>
			<g>
				<g>
					
						<ellipse transform="matrix(0.7467 -0.6651 0.6651 0.7467 -7.9169 14.0817)" fill="#FFD15C" cx="14.5" cy="17.4" rx="0.4" ry="0.8"/>
				</g>
			</g>
		</g>
		<g>
			<g>
				<g>
					<path fill="#E8EAE8" d="M15.8,17.8c0,0,0.4-0.5,0.4-0.9c0,0,1.9,0.4,2.7-0.1c0.8-0.4,1.8-1.4,2-1.8c0,0,3-0.1,5.2,1.1
						c2.2,1.2,2.9,2,4.4,2.8c1.6,0.7,1.8,1.3,1.8,1.3S31.7,22,29,23.7c-2.7,1.7-4.2,1.7-4.6,1.6c0,0-0.5-0.8-0.4-1.3
						c0.1-0.5-0.2-1-0.2-1s-0.7,1.5-2,1.3c-1.3-0.2-1.5-0.5-1.5-0.5s-0.6,0.3-1.1,0.1c0,0-1.9-1.5-2.1-1.7c-0.2-0.1-0.7-0.8-0.7-1
						c0-0.2,0-0.2,0-0.2l0.1-0.2c0,0,0.6,0.7,0.9,0.8c0.3,0.1,2.2,1.6,2.4,1.9c0,0,0.4,0.3,0.6-0.5c0.3-0.8,0.3-2,0.2-2.7
						c-0.2-0.7-0.7-1.9-1.9-2.3C18.7,17.9,16,17.7,15.8,17.8z"/>
				</g>
			</g>
		</g>
		<g>
			<g>
				<g>
					<path fill="#344A5E" d="M15.6,17.8c0,0-1.7-0.5-2.3,0c-0.6,0.5-0.7,1.1-0.7,1.1s-0.6,0.6-0.6,0.9c0,0-0.3,0.2-0.7,0
						c0,0,0.5,0.2,0.8,0.2c0,0-0.2,0.5-0.8,0.6c0,0,0,0.7,0.8,1c0,0-0.7,0.3-1.4-0.3c-0.7-0.7-0.6-2.5-0.6-2.5s0-0.2,0.1-0.5
						c0.5-1.3,1.9-1.9,3.2-1.5C14,16.9,14.9,17.2,15.6,17.8z"/>
				</g>
			</g>
		</g>
	</g>
</g>
</svg>
