<?xml version="1.0" encoding="utf-8"?>
<!-- Generator: Adobe Illustrator 18.0.0, SVG Export Plug-In . SVG Version: 6.00 Build 0)  -->
<!DOCTYPE svg PUBLIC "-//W3C//DTD SVG 1.1//EN" "http://www.w3.org/Graphics/SVG/1.1/DTD/svg11.dtd">
<svg version="1.1" id="Layer_1" xmlns="http://www.w3.org/2000/svg" xmlns:xlink="http://www.w3.org/1999/xlink" x="0px" y="0px"
	 viewBox="0 0 48 48" enable-background="new 0 0 48 48" xml:space="preserve">
<g>
	<g>
		<g>
			<g>
				<path fill="#344A5E" d="M30.5,7.8l-1.1,5.9L24,14l-5.4-0.3l-1.1-5.9c0,0,0.3-0.4,2,1.4c1.3,1.2,3.8,1.4,4.5,1.5
					c0.7,0,3.2-0.2,4.5-1.5C30.1,7.4,30.5,7.8,30.5,7.8z"/>
			</g>
		</g>
		<g>
			<g>
				<g>
					<path fill="#E8EAE9" d="M23,1.4c0-0.5,0.4-0.9,0.9-0.9c0.5,0,0.9,0.4,0.9,0.9c0,0.3-0.1,0.5-0.4,0.7c-0.5,0.3-0.8,0.8-0.8,1.3
						v1.4h0.6V3.5c0-0.4,0.3-0.7,0.5-0.8c0.4-0.3,0.6-0.7,0.6-1.2c0-0.8-0.6-1.4-1.4-1.4c-0.8,0-1.4,0.6-1.4,1.4
						c0,0.2,0.1,0.3,0.3,0.3C22.9,1.7,23,1.6,23,1.4z"/>
				</g>
			</g>
			<g>
				<g>
					<path fill="#FFD15C" d="M33.2,9.9l-5.1-2.6c-0.8-0.4-1.3-1.1-1.7-2c-0.6-1.5-2.4-2.2-4.1-1.4c-0.5,0.3-1,0.8-1.2,1.3
						c-0.3,0.9-1,1.6-1.8,2l-5,2.6c-0.7,0.4-1.3,1-1.5,1.8l0,0c-0.1,0.3,0.2,0.5,0.5,0.4l8.2-4.5c1.4-0.8,3.2-0.8,4.6,0l8.2,4.5
						c0.3,0.1,0.6-0.1,0.5-0.4v0C34.5,10.9,33.9,10.3,33.2,9.9z"/>
				</g>
			</g>
		</g>
		<g>
			<g>
				<path fill="#4EC0AA" d="M7,45.1c0-4.1,1.2-9.9,2.8-13.8c1.5-3.6,2.9-7.5,4-11.3h0c3.3-4.3,1.3-9.6,1-10.2
					C14.5,9.2,15,9.1,15,9.1s1.9-1,2.3-1.2C17.8,7.7,17.9,8,17.9,8l0,0.1c0.6,2.9,3.2,5,6.1,5.1c2.9-0.1,5.5-2.2,6.1-5.1l0-0.1
					c0,0,0.1-0.4,0.6-0.1C31.1,8.1,33,9.1,33,9.1s0.5,0.1,0.2,0.7c-0.3,0.6-2.3,6,1,10.2h0c1,3.8,2.4,7.6,4,11.3
					C39.8,35.2,41,41,41,45.1C29.4,49,18,48.9,7,45.1z"/>
			</g>
		</g>
	</g>
</g>
</svg>
