<?xml version="1.0" encoding="utf-8"?>
<!-- Generator: Adobe Illustrator 19.0.1, SVG Export Plug-In . SVG Version: 6.00 Build 0)  -->
<svg version="1.1" id="Layer_1" xmlns="http://www.w3.org/2000/svg" xmlns:xlink="http://www.w3.org/1999/xlink" x="0px" y="0px"
	 viewBox="0 0 48 48" style="enable-background:new 0 0 48 48;" xml:space="preserve">
<style type="text/css">
	.st0{fill:#415A6B;}
	.st1{fill:#ADB3BA;}
	.st2{fill:#E8EAE9;}
	.st3{fill:#55C0EB;}
	.st4{fill:#F3705A;}
	.st5{fill:#FFFFFF;}
	.st6{fill:#FFD15C;}
	.st7{fill:#344A5E;}
	.st8{fill:#CED6E0;}
	.st9{fill:#F05540;}
	.st10{fill:#F7B64C;}
	.st11{fill:#F3F3F3;}
	.st12{fill:#66C6B9;}
	.st13{fill:#4ABAA5;}
	.st14{fill:#8AD7F8;}
	.st15{fill:none;}
	.st16{fill:#E53D35;}
</style>
<g>
	<g>
		<g>
			<g>
				<path class="st14" d="M24.5,4.3l3.8,3.8c6.9,1.9,12,8.2,12,15.8c0,1.9-0.3,3.8-1,5.5l4.8-1.3l1.6,5.9C47.2,31,48,27.5,48,23.9
					c0-11.7-8.4-21.5-19.5-23.6L24.5,4.3z"/>
			</g>
			<path class="st12" d="M6.8,33.3l1.4-5.2c-0.3-1.3-0.5-2.7-0.5-4.1c0-8,5.8-14.7,13.4-16.1l-3.5-3.5l4.3-4.3
				C9.6,1.1,0,11.4,0,23.9c0,2.8,0.5,5.4,1.3,7.9L6.8,33.3z"/>
			<path class="st4" d="M40.7,34.2l-5.2,1.4c-3,2.9-7,4.7-11.5,4.7c-5,0-9.4-2.2-12.5-5.8l-1.3,4.8l-5.9-1.6
				C8.7,43.9,15.9,47.9,24,47.9c7.3,0,13.8-3.2,18.2-8.3L40.7,34.2z"/>
		</g>
		<g>
			<g>
				<path class="st4" d="M28.7,22.2c-0.2-0.8-0.1-2.5-0.4-3.3c-0.4-1-0.7-1.7-1.3-2.6l-1.2,0.4v7.7c0.3,0.4,0.6,0.8,1,1.2
					c1.6,1.4,4,2,6.2,2.6C31.1,26.4,29.2,24.6,28.7,22.2z"/>
			</g>
			<g>
				<g>
					<g>
						<path class="st7" d="M34.5,33.3c-0.2-1.6-0.4-3.1-0.5-3.9c-0.2-2.3-1.4-2.4-1.4-2.4c-0.4-0.4-4.2-1.6-4.2-1.6
							s-0.4,2.8-0.8,5.1c-0.1,0.6-0.4,1.6-0.8,2.8H34.5z"/>
						<path class="st7" d="M21.2,33.3c-0.4-1.2-0.7-2.2-0.8-2.8c-0.3-2.3-0.8-5.1-0.8-5.1s-3.9,1.1-4.2,1.6c0,0-1.2,0.1-1.4,2.4
							c-0.1,0.8-0.3,2.3-0.5,3.9H21.2z"/>
					</g>
				</g>
				<g>
					<g>
						<g>
							<path class="st6" d="M21.4,28.1l2,3.1l3.3-4.3v-4.6c0.6-1.8,0.9-4.9,0.9-4.9l0.2-1.9c0,0-0.4-2.7-1.9-3.2
								c-1.5-0.5-4.6,0.1-5,1.1c-0.4,1-0.6,4.1-0.6,4.1s0.4,3.3,1.2,4.9V28.1z"/>
						</g>
						<g>
							<path class="st6" d="M21.3,23.8l-2,4.2l2,5.3h5.2l1.5-4.8l-1.3-4.7v-1.5c0.6-1.8,0.9-4.9,0.9-4.9l0.2-1.9
								c0,0-0.4-2.7-1.9-3.2c-1.5-0.5-4.6,0.1-5,1.1c-0.4,1-0.6,4.1-0.6,4.1s0.4,3.3,1.2,4.9L21.3,23.8L21.3,23.8z"/>
						</g>
						<path class="st10" d="M22.2,26.6c3.6-1.8,4.4-4.3,4.4-4.3v0c0,0-1.2,2-2.7,1.9c-1.5-0.1-2.6-1.9-2.6-1.9l0,0v1.5h0l-1.9,3.8
							C20.3,27.3,22,26.7,22.2,26.6z"/>
						<g>
							<path class="st2" d="M27.9,33.3v-8h-0.5c-0.1,1.8-1.6,3.3-3.5,3.3c-1.9,0-3.4-1.4-3.5-3.3h-0.4v8H27.9z"/>
						</g>
						<g>
							<path class="st6" d="M28.3,18.3c-0.1,0.8-0.5,1.4-0.9,1.4c-0.4,0-0.6-0.6-0.5-1.4c0.1-0.8,0.5-1.4,0.9-1.4
								C28.2,16.9,28.4,17.6,28.3,18.3z"/>
						</g>
						<g>
							<path class="st6" d="M19.6,18.3c0.1,0.8,0.5,1.4,0.9,1.4c0.4,0,0.6-0.6,0.5-1.4c-0.1-0.8-0.5-1.4-0.9-1.4
								C19.7,16.9,19.5,17.6,19.6,18.3z"/>
						</g>
						<g>
							<path class="st4" d="M20.2,17.5c0,0,0.2-1.5,0.5-2.4c0.3-0.9,0.7-1.4,1.8-1.8s2.1-0.4,3,0s1.7,1.8,1.9,2.5
								c0.2,0.7,0.2,1.6,0.2,1.6s0.1,0.1,0.2-0.4c0,0,0.7-3.5-0.7-5c-1.4-1.5-5.1-1.8-6.2,0C19.7,13.7,19.6,15.6,20.2,17.5z"/>
						</g>
						<g>
							<g>
								<g>
									<path class="st0" d="M27.1,28.5c-0.1,0.9-0.6,2.7-1.2,4.7h2.3c1.1-2.1,2.3-4.5,2.3-4.5l-1.3-0.9l0.7-0.3l-0.1-0.1
										c-0.6-1-1.4-2-2.3-2.7c-0.3-0.3-0.8-0.6-0.9-0.8C26.6,23.8,27.3,26.1,27.1,28.5z"/>
								</g>
							</g>
							<g>
								<g>
									<path class="st0" d="M19.8,33.3h2.3c-0.6-2-1.1-3.9-1.2-4.7c-0.3-2.4,0.4-4.8,0.4-4.8c-0.1,0.2-0.6,0.6-0.9,0.8
										c-0.9,0.8-1.7,1.7-2.3,2.7L18,27.5l0.7,0.3l-1.3,0.9C17.5,28.8,18.7,31.2,19.8,33.3z"/>
								</g>
							</g>
						</g>
					</g>
				</g>
			</g>
		</g>
	</g>
</g>
</svg>
