<?xml version="1.0" encoding="utf-8"?>
<!-- Generator: Adobe Illustrator 18.0.0, SVG Export Plug-In . SVG Version: 6.00 Build 0)  -->
<!DOCTYPE svg PUBLIC "-//W3C//DTD SVG 1.1//EN" "http://www.w3.org/Graphics/SVG/1.1/DTD/svg11.dtd">
<svg version="1.1" id="Layer_1" xmlns="http://www.w3.org/2000/svg" xmlns:xlink="http://www.w3.org/1999/xlink" x="0px" y="0px"
	 viewBox="0 0 48 48" enable-background="new 0 0 48 48" xml:space="preserve">
<g>
	<rect x="8" y="19.9" fill="#ACB3BA" width="32" height="24.3"/>
	<rect x="0" y="44.2" fill="#F2F2F2" width="48" height="3.8"/>
	<path fill="#F2F2F2" d="M48,12.7L24.9,0.2c-0.6-0.3-1.3-0.3-1.9,0L0,12.7v7.2h48V12.7z"/>
	<polygon fill="#CDD6E0" points="2,17.9 2,13.9 24,1.9 46,13.9 46,17.9 	"/>
	<rect x="5.3" y="23.5" fill="#CDD6E0" width="5.1" height="17.1"/>
	<rect x="4" y="19.9" fill="#E2E2E2" width="7.6" height="3.6"/>
	<rect x="4" y="40.6" fill="#E2E2E2" width="7.6" height="3.6"/>
	<rect x="21.5" y="23.5" fill="#CDD6E0" width="5.1" height="17.1"/>
	<rect x="20.2" y="19.9" fill="#E2E2E2" width="7.6" height="3.6"/>
	<rect x="20.2" y="40.6" fill="#E2E2E2" width="7.6" height="3.6"/>
	<rect x="37.5" y="23.5" fill="#CDD6E0" width="5.1" height="17.1"/>
	<rect x="36.2" y="19.9" fill="#E2E2E2" width="7.6" height="3.6"/>
	<rect x="36.2" y="40.6" fill="#E2E2E2" width="7.6" height="3.6"/>
	<rect x="20.2" y="19.9" fill="#CDD6E0" width="7.6" height="1.5"/>
	<rect x="4" y="19.9" fill="#CDD6E0" width="7.6" height="1.5"/>
	<rect x="36.2" y="19.9" fill="#CDD6E0" width="7.6" height="1.5"/>
</g>
<g>
	<rect x="8" y="19.9" fill="#ACB3BA" width="31.9" height="24.3"/>
	<rect x="0.1" y="44.2" fill="#F2F2F2" width="47.9" height="3.8"/>
	<path fill="#F2F2F2" d="M47.9,12.8l-23-12.5c-0.6-0.3-1.3-0.3-1.9,0l-23,12.5v7.1h47.9V12.8z"/>
	<polygon fill="#CDD6E0" points="2.1,17.9 2.1,14 24,2 45.9,14 45.9,17.9 	"/>
	<rect x="5.3" y="23.5" fill="#CDD6E0" width="5" height="17.1"/>
	<rect x="4.1" y="19.9" fill="#E2E2E2" width="7.6" height="3.6"/>
	<rect x="4.1" y="40.6" fill="#E2E2E2" width="7.6" height="3.6"/>
	<rect x="21.5" y="23.5" fill="#CDD6E0" width="5" height="17.1"/>
	<rect x="20.2" y="19.9" fill="#E2E2E2" width="7.6" height="3.6"/>
	<rect x="20.2" y="40.6" fill="#E2E2E2" width="7.6" height="3.6"/>
	<rect x="37.4" y="23.5" fill="#CDD6E0" width="5" height="17.1"/>
	<rect x="36.2" y="19.9" fill="#E2E2E2" width="7.6" height="3.6"/>
	<rect x="36.2" y="40.6" fill="#E2E2E2" width="7.6" height="3.6"/>
	<rect x="20.2" y="19.9" fill="#CDD6E0" width="7.6" height="1.5"/>
	<rect x="4.1" y="19.9" fill="#CDD6E0" width="7.6" height="1.5"/>
	<rect x="36.2" y="19.9" fill="#CDD6E0" width="7.6" height="1.5"/>
</g>
</svg>
