<?xml version="1.0" encoding="utf-8"?>
<!-- Generator: Adobe Illustrator 18.0.0, SVG Export Plug-In . SVG Version: 6.00 Build 0)  -->
<!DOCTYPE svg PUBLIC "-//W3C//DTD SVG 1.1//EN" "http://www.w3.org/Graphics/SVG/1.1/DTD/svg11.dtd">
<svg version="1.1" id="Layer_1" xmlns="http://www.w3.org/2000/svg" xmlns:xlink="http://www.w3.org/1999/xlink" x="0px" y="0px"
	 viewBox="0 0 48 48" enable-background="new 0 0 48 48" xml:space="preserve">
<g>
	<g>
		<g>
			<g>
				<g>
					<rect x="23" y="37.7" fill="#CED6E0" width="2" height="3.9"/>
				</g>
			</g>
		</g>
		<g>
			<g>
				<g>
					<path fill="#F3F3F3" d="M2.5,5v30.4c0,1.7,1.3,3,3,3h37c1.7,0,3-1.3,3-3V5H2.5z"/>
				</g>
			</g>
		</g>
		<g>
			<g>
				<path fill="#F3705A" d="M45.5,5h-43C1.1,5,0,3.8,0,2.5v0C0,1.1,1.1,0,2.5,0h43C46.9,0,48,1.1,48,2.5v0C48,3.8,46.9,5,45.5,5z"/>
			</g>
		</g>
		<g>
			<g>
				<path fill="#CED6E0" d="M24,48c-2,0-3.7-1.7-3.7-3.7s1.7-3.7,3.7-3.7s3.7,1.7,3.7,3.7S26,48,24,48z M24,42.6
					c-0.9,0-1.7,0.8-1.7,1.7S23.1,46,24,46c0.9,0,1.7-0.8,1.7-1.7S24.9,42.6,24,42.6z"/>
			</g>
		</g>
		<g>
			<g>
				<g>
					<g>
						<g>
							<g>
								<rect x="25.8" y="22.5" fill="#F3705A" width="4.8" height="9.9"/>
							</g>
						</g>
						<g>
							<g>
								<rect x="17.5" y="17.3" fill="#415A6B" width="4.8" height="15"/>
							</g>
						</g>
						<g>
							<g>
								<rect x="9.1" y="25.7" fill="#66C6B9" width="4.8" height="6.6"/>
							</g>
						</g>
						<g>
							<g>
								<rect x="34.1" y="10.5" fill="#8AD7F8" width="4.8" height="21.8"/>
							</g>
						</g>
					</g>
				</g>
			</g>
		</g>
	</g>
</g>
</svg>
