<?xml version="1.0" encoding="utf-8"?>
<!-- Generator: Adobe Illustrator 18.0.0, SVG Export Plug-In . SVG Version: 6.00 Build 0)  -->
<!DOCTYPE svg PUBLIC "-//W3C//DTD SVG 1.1//EN" "http://www.w3.org/Graphics/SVG/1.1/DTD/svg11.dtd">
<svg version="1.1" id="Layer_1" xmlns="http://www.w3.org/2000/svg" xmlns:xlink="http://www.w3.org/1999/xlink" x="0px" y="0px"
	 viewBox="0 0 48 48" enable-background="new 0 0 48 48" xml:space="preserve">
<g>
	<g>
		<path fill="#F3F3F3" d="M48,13v32c0,1.7-1.3,3-3,3H3c-1.7,0-3-1.3-3-3V13H48z"/>
		<path fill="#F3705A" d="M48,13V3c0-1.7-1.3-3-3-3H3C1.3,0,0,1.3,0,3v10H48z"/>
		<g>
			<g>
				<g>
					<g>
						<circle fill="#415A6B" cx="9.1" cy="6.5" r="2.4"/>
					</g>
				</g>
			</g>
			<g>
				<g>
					<g>
						<circle fill="#415A6B" cx="38.9" cy="6.5" r="2.4"/>
					</g>
				</g>
			</g>
		</g>
		<g>
			<path fill="#FFFFFF" d="M21,4.1V5h-2.2v1h2.1V7h-2.1v1.9h-1.1V4.1H21z"/>
			<path fill="#FFFFFF" d="M25.4,4.1v1H23v1h2.2v0.9H23v1h2.5v1h-3.6V4.1H25.4z"/>
			<path fill="#FFFFFF" d="M28.6,8.9h-2.1V4.1h1.9c0.3,0,0.6,0,0.8,0.1c0.2,0.1,0.4,0.2,0.5,0.3C29.9,4.8,30,5,30,5.3
				c0,0.4-0.1,0.7-0.4,0.8c-0.1,0.1-0.1,0.1-0.2,0.1c0,0-0.1,0-0.2,0.1c0.3,0.1,0.5,0.2,0.7,0.4c0.2,0.2,0.3,0.5,0.3,0.8
				c0,0.3-0.1,0.6-0.3,0.9C29.7,8.7,29.2,8.9,28.6,8.9z M27.5,6H28c0.3,0,0.5,0,0.7-0.1c0.1-0.1,0.2-0.2,0.2-0.4
				c0-0.2-0.1-0.4-0.2-0.4C28.6,5,28.4,5,28,5h-0.5V6z M27.5,8h0.7c0.3,0,0.5,0,0.7-0.1c0.2-0.1,0.2-0.2,0.2-0.4
				c0-0.2-0.1-0.4-0.2-0.4c-0.2-0.1-0.4-0.1-0.8-0.1h-0.6V8z"/>
		</g>
		<g>
			<path fill="#66C6B9" d="M12.7,21.8h7v17.3h-3.7v-14h-3.3V21.8z"/>
			<path fill="#66C6B9" d="M29.7,31.7v-3h3.7v3h2V35h-2v4.1h-3.7V35h-6.9v-2.9l6.2-10.2h4.2l-5.9,9.8H29.7z"/>
		</g>
	</g>
</g>
</svg>
