<?xml version="1.0" encoding="utf-8"?>
<!-- Generator: Adobe Illustrator 18.0.0, SVG Export Plug-In . SVG Version: 6.00 Build 0)  -->
<!DOCTYPE svg PUBLIC "-//W3C//DTD SVG 1.1//EN" "http://www.w3.org/Graphics/SVG/1.1/DTD/svg11.dtd">
<svg version="1.1" id="Layer_1" xmlns="http://www.w3.org/2000/svg" xmlns:xlink="http://www.w3.org/1999/xlink" x="0px" y="0px"
	 viewBox="0 0 48 48" enable-background="new 0 0 48 48" xml:space="preserve">
<g>
	<path fill="#40596B" d="M45,0H3C1.3,0,0,1.3,0,3v39.3c0,1.7,1.3,3,3,3h42c1.7,0,3-1.3,3-3V3C48,1.3,46.7,0,45,0z"/>
	<rect x="3" y="3" fill="#FFFFFF" width="42" height="39.3"/>
	<rect x="1" y="21.2" fill="#40596B" width="46" height="3"/>
	<path fill="#FF7058" d="M8,32.9v9.4H3v-9.4c0-0.9,0.7-1.7,1.6-1.8v-4.8h1.8v4.8C7.3,31.2,8,32,8,32.9z"/>
	<ellipse fill="#FFFFFF" cx="5.5" cy="37" rx="1.6" ry="1.9"/>
	<path fill="#F1543F" d="M14.7,32.9v9.4h-5v-9.4c0-0.9,0.7-1.7,1.6-1.8v-4.8h1.8v4.8C14,31.2,14.7,32,14.7,32.9z"/>
	<ellipse fill="#FFFFFF" cx="12.2" cy="37" rx="1.6" ry="1.9"/>
	<path fill="#FFD15C" d="M21,32.9v9.4h-5v-9.4c0-0.9,0.7-1.7,1.6-1.8v-4.8h1.8v4.8C20.3,31.2,21,32,21,32.9z"/>
	<ellipse fill="#FFFFFF" cx="18.5" cy="37" rx="1.6" ry="1.9"/>
	<path fill="#40596B" d="M28,32.9v9.4h-5v-9.4c0-0.9,0.7-1.7,1.6-1.8v-4.8h1.8v4.8C27.3,31.2,28,32,28,32.9z"/>
	<ellipse fill="#FFFFFF" cx="25.5" cy="37" rx="1.6" ry="1.9"/>
	<path fill="#FF7058" d="M31.5,11.8v9.4h5v-9.4c0-0.9-0.7-1.7-1.6-1.8V5.1h-1.8v4.8C32.2,10.1,31.5,10.8,31.5,11.8z"/>
	<ellipse fill="#FFFFFF" cx="34" cy="15.8" rx="1.6" ry="1.9"/>
	<path fill="#F1543F" d="M23.5,11.8v9.4h-5v-9.4c0-0.9,0.7-1.7,1.6-1.8V5.1h1.8v4.8C22.8,10.1,23.5,10.8,23.5,11.8z"/>
	<ellipse fill="#FFFFFF" cx="21" cy="15.8" rx="1.6" ry="1.9"/>
	<path fill="#FFD15C" d="M29.8,11.8v9.4h-5v-9.4c0-0.9,0.7-1.7,1.6-1.8V5.1h1.8v4.8C29.1,10.1,29.8,10.8,29.8,11.8z"/>
	<ellipse fill="#FFFFFF" cx="27.3" cy="15.8" rx="1.6" ry="1.9"/>
	<path fill="#40596B" d="M11.5,11.8v9.4h5v-9.4c0-0.9-0.7-1.7-1.6-1.8V5.1h-1.8v4.8C12.2,10.1,11.5,10.8,11.5,11.8z"/>
	<ellipse fill="#FFFFFF" cx="14" cy="15.8" rx="1.6" ry="1.9"/>
	<polygon fill="#40596B" points="7.3,48 3.9,48 3.9,44.9 9.1,44.9 	"/>
	<polygon fill="#40596B" points="40.7,48 44.1,48 44.1,44.9 38.9,44.9 	"/>
</g>
</svg>
