<?xml version="1.0" encoding="utf-8"?>
<!-- Generator: Adobe Illustrator 16.0.0, SVG Export Plug-In . SVG Version: 6.00 Build 0)  -->
<!DOCTYPE svg PUBLIC "-//W3C//DTD SVG 1.1//EN" "http://www.w3.org/Graphics/SVG/1.1/DTD/svg11.dtd">
<svg version="1.1" id="Layer_1" xmlns="http://www.w3.org/2000/svg" xmlns:xlink="http://www.w3.org/1999/xlink" x="0px" y="0px"
	 width="48px" height="48px" viewBox="0 0 48 48" enable-background="new 0 0 48 48" xml:space="preserve">
<g>
	<path fill="#FF7058" d="M46.285,48H1.715l0.95-6.34c0.761-4.46,3.71-8.07,7.64-9.81c1.641-0.74,3.461-1.15,5.36-1.15h16.671
		c1.93,0,3.77,0.421,5.43,1.181c3.89,1.75,6.81,5.35,7.57,9.779L46.285,48z"/>
	<path fill="#F8B64C" d="M37.766,31.883v0.351l-0.65,1.399c-0.971,2.111-3.02,4.69-6.01,6.4c-1.15,0.67-2.45,1.211-3.881,1.54
		l-0.779,0.19h-0.131c-0.709,0.119-1.43,0.189-2.149,0.199h-0.28c-7.24-0.149-11.539-5.31-12.939-8.33l-0.641-1.399v-0.38
		c0.83-0.37,1.701-0.66,2.61-0.859c0.49-0.101,0.99-0.181,1.5-0.221c0.41-0.051,0.83-0.07,1.25-0.07h16.67
		c0.421,0,0.841,0.02,1.25,0.061c0.511,0.05,1.011,0.119,1.5,0.24C36.016,31.194,36.915,31.495,37.766,31.883"/>
	<path fill="#F8B64C" d="M30.764,27.743v2.955c0,0-1.491,3.221-5.122,4.063h-0.021c-0.486,0.119-1.024,0.195-1.593,0.205
		c-4.797-0.098-6.724-4.268-6.724-4.268v-2.921c0.861,0.671,1.836,1.214,2.89,1.55c0.153,0.053,0.306,0.096,0.457,0.139
		c0.802,0.238,1.634,0.357,2.505,0.357h1.745C27.092,29.823,29.11,29.018,30.764,27.743"/>
	<g opacity="0.1">
		<g>
			<defs>
				<rect id="SVGID_75_" x="20.656" y="27.745" width="17.109" height="12.32"/>
			</defs>
			<clipPath id="SVGID_2_">
				<use xlink:href="#SVGID_75_"  overflow="visible"/>
			</clipPath>
			<path clip-path="url(#SVGID_2_)" fill="#40596B" d="M37.766,31.883v0.351l-0.65,1.399c-0.971,2.111-3.02,4.69-6.01,6.4
				c-0.061,0.01-0.12,0.02-0.18,0.03l-9.07-9.36l-1.2-1.24c0.8,0.24,1.63,0.36,2.5,0.36h1.75c2.19,0,4.21-0.81,5.86-2.079
				L37.766,31.883z"/>
		</g>
	</g>
	<rect x="23.537" y="30.155" fill="#FFD15C" width="0.003" height="0.004"/>
	<path fill="#F2F2F2" d="M35.086,31.004c-1.07,3.18-3.201,5.779-5.91,7.25c-1.561,0.85-3.32,1.33-5.17,1.33
		c-5.08,0-9.42-3.58-11.091-8.59c0.49-0.101,0.99-0.181,1.5-0.221c1.54,4.279,5.261,7.311,9.591,7.311
		c1.439,0,2.819-0.34,4.069-0.961c2.489-1.209,4.479-3.5,5.511-6.359C34.096,30.814,34.596,30.883,35.086,31.004"/>
	<path fill="#40596B" d="M33.078,23.049c0,0,4.928,5.428,3.697,8.81c-1.229,3.382-1.393,7.546-0.347,8.468
		c0,0-0.198,1.127-1.94-0.717c0,0-5.229-5.301-4.102-11.449C30.387,28.161,31.943,26.947,33.078,23.049"/>
	<rect x="24.029" y="18.292" fill="#FFD15C" width="0.003" height="0.004"/>
	<path fill="#F8B64C" d="M15.496,17.71c0.396,1.701,0.187,3.205-0.469,3.357c-0.654,0.152-1.508-1.102-1.904-2.803
		c-0.397-1.702-0.188-3.205,0.468-3.358C14.246,14.753,15.099,16.009,15.496,17.71"/>
	<path fill="#F8B64C" d="M32.551,17.71c-0.397,1.701-0.188,3.205,0.467,3.357c0.656,0.152,1.394-1.133,1.906-2.803
		c0.305-0.997,0.165-3.034-0.469-3.358C33.855,14.6,32.947,16.009,32.551,17.71"/>
	<g opacity="0.1">
		<g>
			<defs>
				<rect id="SVGID_77_" x="28.076" y="30.764" width="7.01" height="7.49"/>
			</defs>
			<clipPath id="SVGID_4_">
				<use xlink:href="#SVGID_77_"  overflow="visible"/>
			</clipPath>
			<path clip-path="url(#SVGID_4_)" fill="#40596B" d="M35.086,31.004c-1.07,3.18-3.201,5.779-5.91,7.25l-1.101-1.131
				c2.489-1.209,4.479-3.5,5.511-6.359C34.096,30.814,34.596,30.883,35.086,31.004"/>
		</g>
	</g>
	<g opacity="0.1">
		<g>
			<defs>
				<rect id="SVGID_79_" x="20.656" y="27.745" width="17.109" height="12.32"/>
			</defs>
			<clipPath id="SVGID_6_">
				<use xlink:href="#SVGID_79_"  overflow="visible"/>
			</clipPath>
			<path clip-path="url(#SVGID_6_)" fill="#40596B" d="M37.766,31.883v0.351l-0.65,1.399c-0.971,2.111-3.02,4.69-6.01,6.4
				c-0.061,0.01-0.12,0.02-0.18,0.03l-9.07-9.36l-1.2-1.24c0.8,0.24,1.63,0.36,2.5,0.36h1.75c2.19,0,4.21-0.81,5.86-2.079
				L37.766,31.883z"/>
		</g>
	</g>
	<path fill="#FFD15C" d="M33.414,22.655c-2.755,8.742-9.357,9.406-9.357,9.406s-6.602-0.664-9.356-9.406c0,0-1.474-4.56-0.237-8.36
		c0,0,0.756-6.484,9.594-6.484c8.839,0,9.596,6.484,9.596,6.484C34.889,18.095,33.414,22.655,33.414,22.655"/>
	<path fill="#334A5E" d="M34.146,19.288c0.377-2.567,0.978-4.277,0.912-6.013c-0.141-3.718-1.492-7.305-3.867-9.893
		C25.26-3.082,18.664,1.707,18.664,1.707c-9.579,6.932-4.691,17.233-4.691,17.233s0.131-1.467,1.078-3.185
		c0,0,1.24-0.057,2.698-1.068c0.759-0.527,1.401-1.154,1.599-1.844c0,0,0.896,0.889-1.263,2.193c0,0,2.054,0.533,5.104-3.318
		c0,0-0.104,1.836-1.842,2.784c0,0,3.553,0.555,5.842-4.306c0,0,3.422,7.802,6.211,6.617C33.4,16.813,34.031,20.067,34.146,19.288"
		/>
</g>
</svg>
