<?xml version="1.0" encoding="utf-8"?>
<!-- Generator: Adobe Illustrator 20.1.0, SVG Export Plug-In . SVG Version: 6.00 Build 0)  -->
<!DOCTYPE svg PUBLIC "-//W3C//DTD SVG 1.1//EN" "http://www.w3.org/Graphics/SVG/1.1/DTD/svg11.dtd">
<svg version="1.1" id="Layer_1" xmlns="http://www.w3.org/2000/svg" xmlns:xlink="http://www.w3.org/1999/xlink" x="0px" y="0px"
	 viewBox="0 0 49 49" enable-background="new 0 0 49 49" xml:space="preserve">
<g>
	<path fill="#CDD6E0" d="M46.5,19.6h-44c-1.4,0-2.4-1.4-1.9-2.7l3.7-9.5C4.6,6.6,5.3,6,6.2,6h36.7c0.8,0,1.6,0.5,1.9,1.3l3.7,9.5
		C48.9,18.2,47.9,19.6,46.5,19.6z"/>
	<path fill="#F2F2F2" d="M45.3,19.6v26.9c0,1.1-0.9,2-2,2H5.7c-1.1,0-2-0.9-2-2V19.6H45.3z"/>
	<rect x="10.5" y="4.1" fill="#F2F2F2" width="5.9" height="8.7"/>
	<rect x="9.5" y="0.5" fill="#E2E2E2" width="7.8" height="3.6"/>
	<rect x="3.7" y="19.6" fill="#E2E2E2" width="41.6" height="1.5"/>
	<rect x="12.2" y="27.1" fill="#FFFFFF" width="24.5" height="15.4"/>
	<rect x="25.3" y="28.6" fill="#84DBFF" width="10" height="5.5"/>
	<rect x="13.7" y="28.6" fill="#84DBFF" width="10" height="5.5"/>
	<rect x="13.7" y="35.5" fill="#84DBFF" width="10" height="5.5"/>
	<rect x="25.3" y="35.5" fill="#84DBFF" width="10" height="5.5"/>
</g>
</svg>
