<?xml version="1.0" encoding="utf-8"?>
<!-- Generator: Adobe Illustrator 16.0.0, SVG Export Plug-In . SVG Version: 6.00 Build 0)  -->
<!DOCTYPE svg PUBLIC "-//W3C//DTD SVG 1.1//EN" "http://www.w3.org/Graphics/SVG/1.1/DTD/svg11.dtd">
<svg version="1.1" id="Layer_1" xmlns="http://www.w3.org/2000/svg" xmlns:xlink="http://www.w3.org/1999/xlink" x="0px" y="0px"
	 width="48px" height="48px" viewBox="0 0 48 48" enable-background="new 0 0 48 48" xml:space="preserve">
<g>
	<path fill="#E7E9E8" d="M32.444,38.23c1.064-1.383,2.449-2.576,3.976-3.629L9.94,0c-1.461,4.855-0.916,10.092,1.512,14.543
		l8.541,15.664c3.932,0.49,7.546,2.41,10.154,5.395L32.444,38.23z"/>
	<path fill="#CDD5DF" d="M23.508,17.73l-6.025,7.875l2.51,4.602c1.762,0.22,3.452,0.74,5.023,1.502
		c0.996-0.342,2.027-0.596,3.088-0.727l0.398-0.051l2.125-3.898L23.508,17.73z"/>
	<path fill="#F3705A" d="M31.961,28.775l4.458,5.826c-1.526,1.053-2.911,2.246-3.976,3.629l-2.297-2.629
		c-0.98-1.121-2.106-2.084-3.336-2.885L31.961,28.775z"/>
	<path fill="#F3705A" d="M30.814,33.745c-3.085,3.659-2.621,9.119,1.047,12.213c3.659,3.085,9.119,2.621,12.204-1.036
		c3.085-3.66,2.621-9.121-1.037-12.205C39.359,29.622,33.899,30.086,30.814,33.745 M40.5,41.914
		c-1.42,1.684-3.949,1.898-5.633,0.479c-1.693-1.428-1.908-3.957-0.488-5.641c1.42-1.685,3.947-1.9,5.642-0.471
		C41.706,37.701,41.92,40.23,40.5,41.914"/>
	<path fill="#E7E9E8" d="M15.556,38.23c-1.063-1.383-2.448-2.576-3.976-3.629L38.061,0c1.461,4.855,0.915,10.092-1.512,14.543
		l-8.541,15.664c-3.932,0.49-7.546,2.41-10.154,5.395L15.556,38.23z"/>
	<path fill="#F3705A" d="M16.04,28.775l-4.459,5.826c1.527,1.053,2.912,2.246,3.976,3.629l2.298-2.629
		c0.98-1.121,2.106-2.084,3.336-2.885L16.04,28.775z"/>
	<path fill="#F3705A" d="M4.973,32.717C1.315,35.801,0.85,41.262,3.936,44.92c3.086,3.66,8.545,4.123,12.203,1.039
		c3.67-3.095,4.133-8.556,1.047-12.213C14.102,30.086,8.641,29.623,4.973,32.717 M7.979,36.281c1.694-1.429,4.224-1.214,5.644,0.471
		c1.42,1.684,1.205,4.213-0.489,5.642c-1.684,1.42-4.213,1.204-5.633-0.479S6.295,37.701,7.979,36.281"/>
	<path fill="#CDD5DF" d="M25.598,26.285c0.166,0.852-0.389,1.675-1.24,1.841c-0.852,0.165-1.674-0.39-1.84-1.239
		c-0.166-0.852,0.389-1.676,1.24-1.842C24.608,24.879,25.432,25.434,25.598,26.285"/>
</g>
</svg>
