<?xml version="1.0" encoding="utf-8"?>
<!-- Generator: Adobe Illustrator 18.0.0, SVG Export Plug-In . SVG Version: 6.00 Build 0)  -->
<!DOCTYPE svg PUBLIC "-//W3C//DTD SVG 1.1//EN" "http://www.w3.org/Graphics/SVG/1.1/DTD/svg11.dtd">
<svg version="1.1" id="Layer_1" xmlns="http://www.w3.org/2000/svg" xmlns:xlink="http://www.w3.org/1999/xlink" x="0px" y="0px"
	 viewBox="0 0 48 48" enable-background="new 0 0 48 48" xml:space="preserve">
<g>
	<circle fill="#FFD15C" cx="24" cy="24" r="24"/>
	<circle fill="#F8B64C" cx="24" cy="24" r="18.2"/>
	<path fill="#FFD15C" d="M22.8,34.4c-3.2-0.3-5.5-1.5-7.1-3.1l2.4-3.3c1.1,1.2,2.8,2.2,4.8,2.6v-4.7c-3.1-0.8-6.5-1.9-6.5-6
		c0-3,2.4-5.6,6.5-6.1v-2.8h2.8v2.9c2.4,0.3,4.5,1.2,6.2,2.7l-2.4,3.2c-1.1-1-2.4-1.6-3.8-2v4.2c3.1,0.8,6.6,2,6.6,6.1
		c0,3.3-2.2,5.9-6.6,6.4v2.7h-2.8V34.4z M22.8,21.2v-3.6c-1.3,0.2-2.1,0.9-2.1,1.9C20.8,20.3,21.6,20.8,22.8,21.2z M25.7,26.5v4
		c1.5-0.3,2.3-1.2,2.3-2.1C27.9,27.4,27,26.9,25.7,26.5z"/>
	<g>
		<g>
			<rect x="23.5" y="1.2" fill="#F8B64C" width="1" height="3.4"/>
			<rect x="23.5" y="43.4" fill="#F8B64C" width="1" height="3.4"/>
		</g>
		<g>
			
				<rect x="15.1" y="3.7" transform="matrix(-0.342 -0.9397 0.9397 -0.342 18.5924 21.4092)" fill="#F8B64C" width="3.4" height="1"/>
			
				<rect x="29.5" y="43.3" transform="matrix(-0.342 -0.9397 0.9397 -0.342 0.7193 88.113)" fill="#F8B64C" width="3.4" height="1"/>
		</g>
		<g>
			
				<rect x="8.8" y="7.4" transform="matrix(-0.6428 -0.766 0.766 -0.6428 11.1543 20.9115)" fill="#F8B64C" width="3.4" height="1"/>
			
				<rect x="35.9" y="39.6" transform="matrix(-0.6428 -0.766 0.766 -0.6428 30.93 94.7125)" fill="#F8B64C" width="3.4" height="1"/>
		</g>
		<g>
			<rect x="4.1" y="13" transform="matrix(-0.866 -0.5 0.5 -0.866 3.9947 27.9947)" fill="#F8B64C" width="3.4" height="1"/>
			<rect x="40.6" y="34" transform="matrix(-0.866 -0.5 0.5 -0.866 61.5751 85.5743)" fill="#F8B64C" width="3.4" height="1"/>
		</g>
		<g>
			
				<rect x="1.6" y="19.8" transform="matrix(-0.9848 -0.1737 0.1737 -0.9848 2.9072 40.9349)" fill="#F8B64C" width="3.4" height="1"/>
			
				<rect x="43.1" y="27.2" transform="matrix(-0.9848 -0.1737 0.1737 -0.9848 84.0273 62.6717)" fill="#F8B64C" width="3.4" height="1"/>
		</g>
		<g>
			
				<rect x="1.6" y="27.2" transform="matrix(-0.9848 0.1737 -0.1737 -0.9848 11.2431 54.3358)" fill="#F8B64C" width="3.4" height="1"/>
			
				<rect x="43.1" y="19.8" transform="matrix(-0.9848 0.1737 -0.1737 -0.9848 92.3632 32.5989)" fill="#F8B64C" width="3.4" height="1"/>
		</g>
		<g>
			<rect x="4.1" y="34" transform="matrix(-0.866 0.5 -0.5 -0.866 27.9942 61.5749)" fill="#F8B64C" width="3.4" height="1"/>
			<rect x="40.6" y="13" transform="matrix(-0.866 0.5 -0.5 -0.866 85.5746 3.9953)" fill="#F8B64C" width="3.4" height="1"/>
		</g>
		<g>
			
				<rect x="8.8" y="39.6" transform="matrix(-0.6428 0.766 -0.766 -0.6428 47.9242 57.9428)" fill="#F8B64C" width="3.4" height="1"/>
			
				<rect x="35.9" y="7.4" transform="matrix(-0.6428 0.766 -0.766 -0.6428 67.6992 -15.8586)" fill="#F8B64C" width="3.4" height="1"/>
		</g>
		<g>
			
				<rect x="15.1" y="43.3" transform="matrix(-0.342 0.9397 -0.9397 -0.342 63.6977 43.0079)" fill="#F8B64C" width="3.4" height="1"/>
			
				<rect x="29.5" y="3.7" transform="matrix(-0.342 0.9397 -0.9397 -0.342 45.8245 -23.6959)" fill="#F8B64C" width="3.4" height="1"/>
		</g>
	</g>
	<path opacity="0.1" fill="#231F20" d="M7.8,26C7.8,16,16,7.8,26,7.8c4.5,0,8.6,1.6,11.8,4.4C34.5,8.3,29.5,5.8,24,5.8
		C14,5.8,5.8,14,5.8,24c0,5.5,2.5,10.5,6.4,13.8C9.5,34.6,7.8,30.5,7.8,26z"/>
</g>
</svg>
