<?xml version="1.0" encoding="utf-8"?>
<!-- Generator: Adobe Illustrator 16.0.0, SVG Export Plug-In . SVG Version: 6.00 Build 0)  -->
<!DOCTYPE svg PUBLIC "-//W3C//DTD SVG 1.1//EN" "http://www.w3.org/Graphics/SVG/1.1/DTD/svg11.dtd">
<svg version="1.1" id="Layer_1" xmlns="http://www.w3.org/2000/svg" xmlns:xlink="http://www.w3.org/1999/xlink" x="0px" y="0px"
	 width="48px" height="48px" viewBox="0 0 48 48" enable-background="new 0 0 48 48" xml:space="preserve">
<g>
	<path fill="#FF7058" d="M12.51,19.683v-1.584c-0.281-4.811-0.363-8.451-0.363-8.451c1.385-13.59,15.563-9.651,16.826-7.003
		c1.396-0.375,6.39-1.274,6.881,7.003c0,0-0.094,3.641-0.375,8.451v1.58c0,4.402,2.017,8.563,5.473,11.292
		c-11.479,5.222-22.778,5.127-33.908,0C10.496,28.241,12.51,24.083,12.51,19.683"/>
	<rect x="18.643" y="21.702" fill="#F8B64C" width="10.715" height="15.334"/>
	<path fill="#E8EAEA" d="M30.848,39.331c-1.406-1.463-3.564-2.3-6.738-2.295c0,0-3.839,0.682-5.54,2.089V48h12.278V39.331z"/>
	<path fill="#F2F2F2" d="M23.977,37.036c0,0,4.403,2.129,4.153,3.527l2.685-8.532l-1.348-3.13
		C29.467,28.901,29.6,32.402,23.977,37.036"/>
	<path fill="#334A5E" d="M26.791,48.001H48l-0.655-5.785c-0.239-2.112-1.578-3.94-3.519-4.806L32.42,32.326
		c0,0-2.164-2.991-2.953-3.425c0,0,0.656,2.417,0,4.654C29.158,34.606,27.968,41.245,26.791,48.001"/>
	<path fill="#40596B" d="M26.885,48.001H31.3l3.378-7.24l-2.973-1.825l1.98-1.095l-1.422-5.728
		c-0.507-0.687-2.134-2.847-2.798-3.212c0,0,0.462,2.161,0,4.654C29.316,34.369,28.109,41.13,26.885,48.001"/>
	<path fill="#F2F2F2" d="M24.022,37.036c0,0-4.403,2.129-4.153,3.527l-2.684-8.532l1.347-3.13
		C18.532,28.901,18.399,32.402,24.022,37.036"/>
	<path fill="#334A5E" d="M21.209,48.001c-1.178-6.756-2.368-13.395-2.676-14.445c-0.656-2.237,0-4.654,0-4.654
		c-0.791,0.434-2.955,3.425-2.955,3.425L4.174,37.41c-1.941,0.865-3.28,2.693-3.52,4.806L0,48.001H21.209z"/>
	<path fill="#40596B" d="M16.699,48.001h4.441c-1.217-6.875-2.426-13.638-2.607-14.445c-0.6-2.656,0-4.654,0-4.654
		c-0.664,0.365-2.291,2.525-2.798,3.212l-1.422,5.728l1.981,1.095l-2.973,1.825L16.699,48.001z"/>
	<path fill="#FFD15C" d="M14.879,5.711c-0.857,2.43-1.348,5.234-1.348,8.224c0,9.246,4.688,16.748,10.465,16.748
		s10.465-7.502,10.465-16.748c0-0.514-0.014-1.025-0.048-1.528c0.194-0.149,0.349-0.429,0.397-0.849
		c0.211-1.793,0.156-3.906-0.244-5.847H14.879z"/>
	<path fill="#40596B" d="M31.77,25.324h-6.691v-1.25h6.691c2.361,0,4.281-1.921,4.281-4.282v-2.513h1.25v2.513
		C37.301,22.843,34.819,25.324,31.77,25.324"/>
	<path fill="#FF7058" d="M14.069,18.103c0.502-2.311,0.544-4.336,1.178-6.786c0,0,12.414,2.774,17.556-2.248
		c0,0,1.604,5.116,1.238,9.034h1.436c0.283-4.812,0.373-8.455,0.373-8.455c-0.488-8.276-5.48-7.379-6.879-7.001
		c-1.264-2.651-15.44-6.59-16.826,7.001c0,0,0.084,3.644,0.365,8.455H14.069z"/>
	<path fill="#54C0EB" d="M12.034,16.611v-1.99c0-6.726,5.472-12.197,12.197-12.197c6.725,0,12.196,5.472,12.196,12.197v1.99h1.809
		v-1.99c0-7.722-6.283-14.005-14.005-14.005S10.227,6.899,10.227,14.621v1.99H12.034z"/>
	<path fill="#54C0EB" d="M37.717,13.595c-0.926-0.418-2.033-0.685-3.232-0.744v6.933c1.199-0.06,2.307-0.325,3.232-0.743
		c0.314-0.143,0.52-0.453,0.52-0.8v-3.847C38.236,14.048,38.031,13.736,37.717,13.595"/>
	<path fill="#E8EAEA" d="M35.217,19.457v-6.28c0-0.527-0.428-0.953-0.955-0.953c-0.526,0-0.953,0.426-0.953,0.953v6.28
		c0,0.526,0.427,0.954,0.953,0.954C34.789,20.411,35.217,19.983,35.217,19.457"/>
	<path fill="#54C0EB" d="M10.746,19.04c0.926,0.417,2.032,0.684,3.232,0.742v-6.932c-1.2,0.06-2.307,0.326-3.232,0.744
		c-0.315,0.143-0.52,0.453-0.52,0.799v3.848C10.227,18.587,10.431,18.897,10.746,19.04"/>
	<path fill="#E8EAEA" d="M13.246,13.177v6.279c0,0.527,0.427,0.955,0.954,0.955c0.526,0,0.954-0.428,0.954-0.955v-6.279
		c0-0.526-0.428-0.953-0.954-0.953C13.673,12.224,13.246,12.65,13.246,13.177"/>
	<path fill="#40596B" d="M27.066,24.698c0,0.781-0.891,1.412-1.989,1.412s-1.99-0.631-1.99-1.412c0-0.779,0.892-1.411,1.99-1.411
		S27.066,23.919,27.066,24.698"/>
</g>
</svg>
