<?xml version="1.0" encoding="utf-8"?>
<!-- Generator: Adobe Illustrator 18.0.0, SVG Export Plug-In . SVG Version: 6.00 Build 0)  -->
<!DOCTYPE svg PUBLIC "-//W3C//DTD SVG 1.1//EN" "http://www.w3.org/Graphics/SVG/1.1/DTD/svg11.dtd">
<svg version="1.1" id="Layer_1" xmlns="http://www.w3.org/2000/svg" xmlns:xlink="http://www.w3.org/1999/xlink" x="0px" y="0px"
	 viewBox="0 0 512 512" enable-background="new 0 0 512 512" xml:space="preserve">
<g>
	<path fill="#F2F2F2" d="M315.8,2H23.2C11.5,2,2,11.5,2,23.2v465.7c0,11.7,9.5,21.2,21.2,21.2h382.6c11.7,0,21.2-9.5,21.2-21.2
		V113.1L315.8,2z"/>
	<path fill="#CDD6E0" d="M333.1,113.1c-9.5,0-17.3-7.7-17.3-17.3V2l111.1,111.1H333.1z"/>
	<rect x="244.5" y="149.6" fill="#CDD6E0" width="132.8" height="23.1"/>
	<rect x="54.9" y="242.8" fill="#CDD6E0" width="290.5" height="23.1"/>
	<rect x="54.9" y="336" fill="#CDD6E0" width="201.1" height="23.1"/>
	<rect x="54.9" y="429.3" fill="#84DBFF" width="95.2" height="23.1"/>
	<path fill="#54C0EB" d="M394.1,250.8L243.4,401.5c-8.3,8.3-8.3,21.7,0,30c8.3,8.3,21.7,8.3,30,0l150.7-150.7L394.1,250.8z"/>
	<g>
		<path fill="#84DBFF" d="M424.1,280.8L273.4,431.5c-8.3,8.3-8.3,21.7,0,30c8.3,8.3,21.7,8.3,30,0l150.7-150.7L424.1,280.8z"/>
		<path fill="#84DBFF" d="M364.1,220.8L213.4,371.6c-8.3,8.3-8.3,21.7,0,30c8.3,8.3,21.7,8.3,30,0l150.7-150.7L364.1,220.8z"/>
	</g>
	<path fill="#FFD15C" d="M208.3,379.7L208.3,379.7c-2.4,7.5-0.8,15.9,5.1,21.9c8.3,8.3,21.7,8.2,29.9,0c-8.2,8.2-8.2,21.7,0.1,30
		c8.2,8.2,21.7,8.2,29.9,0c-8.2,8.2-8.2,21.7,0,29.9c5.9,5.9,14.4,7.5,21.8,5l0.1,0.1l-72.9,21.1l-48.3,14l13.6-48.6L208.3,379.7z"
		/>
	<polygon fill="#334A5E" points="187.6,453 222.3,487.7 174,501.7 	"/>
	
		<rect x="358" y="235.7" transform="matrix(-0.7071 -0.7071 0.7071 -0.7071 540.5383 730.536)" fill="#FFD15C" width="127.2" height="35.3"/>
	<path fill="#40596B" d="M503.8,231.1l-60-60c-8.3-8.3-21.7-8.3-29.9,0l-24.8,24.8l89.9,89.9l24.8-24.8
		C512.1,252.7,512.1,239.3,503.8,231.1z"/>
	<path fill="#FFD05C" d="M211.5,92.7l-73.8,37.6l58.6,58.6C222.1,163,228.1,125.3,211.5,92.7z"/>
	<path fill="#89D6F7" d="M150.7,48.4l-13,81.8l73.8-37.6C199,68.2,177.8,52.7,150.7,48.4z"/>
	<path fill="#F2705B" d="M137.7,130.3l13-81.8c-27.1-4.3-52.1,3.8-71.5,23.2c-32.3,32.4-32.3,84.8,0,117.2s84.8,32.4,117.1,0
		L137.7,130.3z"/>
</g>
</svg>
