<?xml version="1.0" encoding="utf-8"?>
<!-- Generator: Adobe Illustrator 18.0.0, SVG Export Plug-In . SVG Version: 6.00 Build 0)  -->
<!DOCTYPE svg PUBLIC "-//W3C//DTD SVG 1.1//EN" "http://www.w3.org/Graphics/SVG/1.1/DTD/svg11.dtd">
<svg version="1.1" id="Layer_1" xmlns="http://www.w3.org/2000/svg" xmlns:xlink="http://www.w3.org/1999/xlink" x="0px" y="0px"
	 viewBox="0 0 48 48" enable-background="new 0 0 48 48" xml:space="preserve">
<g>
	<g>
		<g>
			<g>
				<g>
					
						<rect x="40.3" y="42.4" transform="matrix(0.7071 0.7071 -0.7071 0.7071 44.0939 -18.2642)" fill="#E8EAE9" width="7.6" height="3.4"/>
				</g>
			</g>
			<g>
				<g>
					<g>
						<g>
							<path fill="#E8EAE9" d="M27.1,31.9l-6.7-6.7c-0.6-0.6-1.7-0.6-2.3,0c-0.6,0.6-0.6,1.7,0,2.3l6.7,6.7L27.1,31.9z"/>
						</g>
						<g>
							<path fill="#E8EAE9" d="M34.2,24.8l-6.7-6.7c-0.6-0.6-1.7-0.6-2.3,0c-0.6,0.6-0.6,1.7,0,2.3l6.7,6.7L34.2,24.8z"/>
						</g>
					</g>
					<g>
						<g>
							<path fill="#415A6B" d="M22.3,27.2l-2-2c-0.6-0.6-1.7-0.6-2.3,0c-0.6,0.6-0.6,1.7,0,2.3l2,2L22.3,27.2z"/>
						</g>
						<g>
							<path fill="#415A6B" d="M29.5,20l-2-2c-0.6-0.6-1.7-0.6-2.3,0c-0.6,0.6-0.6,1.7,0,2.3l2,2L29.5,20z"/>
						</g>
					</g>
				</g>
				<g>
					<g>
						<polygon fill="#66C6B9" points="26,39.3 32,45.3 38.8,45.3 45.3,38.8 45.3,32 39.3,26 						"/>
					</g>
					<g>
						
							<rect x="32.3" y="24.2" transform="matrix(-0.7071 -0.7071 0.7071 -0.7071 33.562 81.0275)" fill="#55C0EB" width="2.6" height="18.7"/>
					</g>
				</g>
			</g>
		</g>
		<path fill="#66C6B9" d="M35.3,22.1L22.1,35.3c-1.2,1.2-1.2,3.1,0,4.2c1.2,1.2,3.1,1.2,4.2,0l13.2-13.2c1.2-1.2,1.2-3.1,0-4.2l0,0
			C38.4,20.9,36.5,20.9,35.3,22.1z"/>
		<g>
			<g>
				
					<rect x="0.1" y="2.2" transform="matrix(-0.7071 -0.7071 0.7071 -0.7071 3.9064 9.4307)" fill="#E8EAE9" width="7.6" height="3.4"/>
			</g>
		</g>
		<g>
			<polygon fill="#FFD15C" points="22,8.7 16,2.7 9.2,2.7 2.7,9.2 2.7,16 8.7,22 			"/>
		</g>
		<g>
			
				<rect x="13.1" y="5.1" transform="matrix(0.7071 0.7071 -0.7071 0.7071 14.4374 -5.9803)" fill="#F7B64C" width="2.6" height="18.7"/>
		</g>
		<path fill="#FFD15C" d="M21.7,8.5L8.5,21.7c-1.2,1.2-1.2,3.1,0,4.2c1.2,1.2,3.1,1.2,4.2,0l13.2-13.2c1.2-1.2,1.2-3.1,0-4.2l0,0
			C24.8,7.3,22.9,7.3,21.7,8.5z"/>
	</g>
</g>
</svg>
