<?xml version="1.0" encoding="utf-8"?>
<!-- Generator: Adobe Illustrator 18.0.0, SVG Export Plug-In . SVG Version: 6.00 Build 0)  -->
<!DOCTYPE svg PUBLIC "-//W3C//DTD SVG 1.1//EN" "http://www.w3.org/Graphics/SVG/1.1/DTD/svg11.dtd">
<svg version="1.1" id="Layer_1" xmlns="http://www.w3.org/2000/svg" xmlns:xlink="http://www.w3.org/1999/xlink" x="0px" y="0px"
	 viewBox="0 0 48 48" enable-background="new 0 0 48 48" xml:space="preserve">
<g>
	
		<rect x="17.6" y="12.8" transform="matrix(0.7071 0.7071 -0.7071 0.7071 24.6349 -8.2203)" fill="#334A5E" width="9.3" height="25.6"/>
	<path fill="#40596B" d="M47.4,7.5l-5.5,5.5l-7-7l5.5-5.5c-3.6-1.1-7.7-0.3-10.6,2.6c-4.1,4.1-4.1,10.8,0,15c4.1,4.1,10.8,4.1,15,0
		C47.6,15.2,48.5,11.1,47.4,7.5z"/>
	<path fill="#40596B" d="M16,31.9c-3.6-3.6-9.5-3.6-13.1,0s-3.6,9.5,0,13.1c3.6,3.6,9.5,3.6,13.1,0C19.6,41.4,19.6,35.5,16,31.9z
		 M10.7,43.2l-4.7-1.3l-1.3-4.7l3.4-3.4l4.7,1.3l1.3,4.7L10.7,43.2z"/>
	<polygon fill="#CDD6E0" points="4.6,2.7 2.6,4.7 5.5,9.1 7.3,10.4 26.7,29.8 29.7,26.7 10.3,7.4 9,5.6 	"/>
	<path fill="#FFD15C" d="M46.3,46.4L46.3,46.4c-2.1,2.1-5.5,2.1-7.5,0L25.6,33.3l7.5-7.5l13.2,13.2C48.4,41,48.4,44.3,46.3,46.4z"/>
	<path fill="#FF7058" d="M35.1,26.3l-8.9,8.9c-0.7,0.7-1.9,0.7-2.6,0l0,0c-0.7-0.7-0.7-1.9,0-2.6l8.9-8.9c0.7-0.7,1.9-0.7,2.6,0v0
		C35.8,24.4,35.8,25.6,35.1,26.3z"/>
	
		<rect x="32.6" y="35.6" transform="matrix(-0.7071 -0.7071 0.7071 -0.7071 41.4073 90.1036)" fill="#F8B64C" width="13.5" height="1.7"/>
	
		<rect x="29.7" y="38.6" transform="matrix(-0.7071 -0.7071 0.7071 -0.7071 34.2347 93.0745)" fill="#F8B64C" width="13.5" height="1.7"/>
</g>
</svg>
