<?xml version="1.0" encoding="utf-8"?>
<!-- Generator: Adobe Illustrator 18.0.0, SVG Export Plug-In . SVG Version: 6.00 Build 0)  -->
<!DOCTYPE svg PUBLIC "-//W3C//DTD SVG 1.1//EN" "http://www.w3.org/Graphics/SVG/1.1/DTD/svg11.dtd">
<svg version="1.1" id="Layer_1" xmlns="http://www.w3.org/2000/svg" xmlns:xlink="http://www.w3.org/1999/xlink" x="0px" y="0px"
	 viewBox="0 0 48 48" enable-background="new 0 0 48 48" xml:space="preserve">
<g>
	<path fill="#FFD15C" d="M42.2,17.5h-0.6V2.9H21.8l-4,14.6H5.4c-1.5,0-3,0.9-3.6,2.3c-2.9,5.9-2.3,13.1,1.8,18.6h42.6V21.5
		C46.2,19.3,44.4,17.5,42.2,17.5z"/>
	<g>
		<path fill="#FF7058" d="M11.1,27.5h8.2c0.7,0,1.2-0.6,1.2-1.2v0c0-0.7-0.6-1.2-1.2-1.2h-8.2c-0.7,0-1.2,0.6-1.2,1.2v0
			C9.8,26.9,10.4,27.5,11.1,27.5z"/>
		<path fill="#FF7058" d="M11.1,23.2h8.2c0.7,0,1.2-0.6,1.2-1.2v0c0-0.7-0.6-1.2-1.2-1.2h-8.2c-0.7,0-1.2,0.6-1.2,1.2v0
			C9.8,22.6,10.4,23.2,11.1,23.2z"/>
	</g>
	<path fill="#CDD6E0" d="M8.1,35.3c2.1,0,3.8,1.6,4,3.6c0-0.2,0-0.3,0-0.5c0-2.3-1.8-4.1-4.1-4.1c-2.3,0-4.1,1.8-4.1,4.1
		c0,0.2,0,0.3,0,0.5C4.3,36.9,6,35.3,8.1,35.3z"/>
	<polygon fill="#54C0EB" points="20.3,17.5 23.4,6.1 39.1,6.1 39.1,17.5 	"/>
	<rect x="9.1" y="16.1" fill="#334A5E" width="3.4" height="1.4"/>
	<rect x="9.8" y="10" fill="#40596B" width="1.8" height="6.1"/>
	<path fill="#CDD6E0" d="M37.2,31.9c2.5,0,4.5,1.9,4.8,4.4c0-0.2,0-0.3,0-0.5c0-2.6-2.2-4.8-4.8-4.8s-4.8,2.2-4.8,4.8
		c0,0.2,0,0.3,0,0.5C32.7,33.8,34.7,31.9,37.2,31.9z"/>
	<g>
		<polygon fill="#84DBFF" points="30.2,6.1 20.6,17.5 20.3,17.5 21.1,14.7 28.3,6.1 		"/>
		<polygon fill="#84DBFF" points="34.5,6.1 25,17.5 21.9,17.5 31.5,6.1 		"/>
	</g>
	<path fill="#FCC751" d="M21.1,5.3c0.1,0,0.2,0,0.4,0h20.1c0,0,0,0,0.1,0V2.9H21.8L21.1,5.3z"/>
	<path fill="#FF7058" d="M41.5,4.4H21.4c-0.8,0-1.5-0.7-1.5-1.5v0c0-0.8,0.7-1.5,1.5-1.5l20.1,0c0.8,0,1.5,0.7,1.5,1.5v0
		C43,3.7,42.3,4.4,41.5,4.4z"/>
	<path fill="#FF7058" d="M0.2,25h2.7c1.4,0,2.5-1.1,2.5-2.5S4.3,20,2.9,20H1.7C0.9,21.6,0.5,23.3,0.2,25z"/>
	<path fill="#FCC751" d="M46.2,27.4v11.1h-21c-0.2-0.8-0.3-1.8-0.3-2.7c0-6.8,5.5-12.3,12.3-12.3C40.7,23.5,43.9,25,46.2,27.4z"/>
	<path fill="#FCC751" d="M17.7,38.4H3.5c-1.3-1.8-2.3-3.9-2.9-6c1.8-2.1,4.4-3.5,7.4-3.5C13.4,28.9,17.7,33.2,17.7,38.4z"/>
	<circle fill="#40596B" cx="37.2" cy="35.8" r="10.8"/>
	<path fill="#F2F2F2" d="M37.2,40.6c-2.6,0-4.8-2.2-4.8-4.8s2.2-4.8,4.8-4.8s4.8,2.2,4.8,4.8S39.8,40.6,37.2,40.6z"/>
	<circle fill="#40596B" cx="8.1" cy="38.5" r="8.1"/>
	<path fill="#F2F2F2" d="M8.1,42.6c-2.3,0-4.1-1.8-4.1-4.1c0-2.3,1.8-4.1,4.1-4.1c2.3,0,4.1,1.8,4.1,4.1
		C12.2,40.7,10.3,42.6,8.1,42.6z"/>
</g>
</svg>
