<?xml version="1.0" encoding="utf-8"?>
<!-- Generator: Adobe Illustrator 18.0.0, SVG Export Plug-In . SVG Version: 6.00 Build 0)  -->
<!DOCTYPE svg PUBLIC "-//W3C//DTD SVG 1.1//EN" "http://www.w3.org/Graphics/SVG/1.1/DTD/svg11.dtd">
<svg version="1.1" id="Layer_1" xmlns="http://www.w3.org/2000/svg" xmlns:xlink="http://www.w3.org/1999/xlink" x="0px" y="0px"
	 viewBox="0 0 48 48" enable-background="new 0 0 48 48" xml:space="preserve">
<g>
	<g>
		<g>
			<polygon fill="#CED6E0" points="38.6,41.1 37.7,25.8 36,25.8 35.1,41.1 			"/>
			<g>
				<polygon fill="#E8EAE9" points="37.8,24.3 36,24.3 35.1,21.7 37.3,12.7 37.8,12.7 				"/>
			</g>
			<g>
				<polygon fill="#E8EAE9" points="35,25.8 35.9,27.3 34.1,29.4 25.2,32 25,31.6 				"/>
			</g>
			<g>
				<polygon fill="#E8EAE9" points="37.7,27.4 38.6,25.9 41.3,26.4 48,32.8 47.8,33.2 				"/>
			</g>
			<path fill="#4EC0AA" d="M35.3,24.3"/>
			<circle fill="#ADB3BA" cx="36.8" cy="25.8" r="2"/>
			<circle fill="#E8EAE9" cx="36.8" cy="25.8" r="0.9"/>
		</g>
		<path fill="#4EC0AA" d="M26.2,38.3c-5.1,0-9.8,0.8-13.8,2.3V48H48v-2.8C43.5,41.1,35.4,38.3,26.2,38.3z"/>
		<g>
			<polygon fill="#CED6E0" points="20.6,44.4 19.2,19.9 16.6,19.9 15.2,44.4 			"/>
			<g>
				<polygon fill="#F3F3F3" points="19.3,17.5 16.7,17.5 15.3,13.6 18.6,0 19.3,0 				"/>
			</g>
			<g>
				<polygon fill="#F3F3F3" points="15.2,19.8 16.5,22.1 13.8,25.3 0.4,29.2 0,28.6 				"/>
			</g>
			<g>
				<polygon fill="#F3F3F3" points="19.2,22.3 20.6,20 24.6,20.8 34.8,30.4 34.4,31 				"/>
			</g>
			<path fill="#4EC0AA" d="M15.6,17.5"/>
			<circle fill="#ADB3BA" cx="17.9" cy="19.9" r="3"/>
			<circle fill="#E8EAE9" cx="17.9" cy="19.9" r="1.3"/>
		</g>
		<path fill="#66C6B9" d="M0,48l0-9.4c12.3,0.9,22.3,4.6,26.5,9.4H0z"/>
	</g>
</g>
</svg>
