<?xml version="1.0" encoding="utf-8"?>
<!-- Generator: Adobe Illustrator 18.0.0, SVG Export Plug-In . SVG Version: 6.00 Build 0)  -->
<!DOCTYPE svg PUBLIC "-//W3C//DTD SVG 1.1//EN" "http://www.w3.org/Graphics/SVG/1.1/DTD/svg11.dtd">
<svg version="1.1" id="Layer_1" xmlns="http://www.w3.org/2000/svg" xmlns:xlink="http://www.w3.org/1999/xlink" x="0px" y="0px"
	 viewBox="0 0 48 48" enable-background="new 0 0 48 48" xml:space="preserve">
<g>
	<g>
		<path fill="#415A6B" d="M42.2,30.6H25v-2.3c0-0.6-0.4-1-1-1s-1,0.4-1,1v2.3H5.8c-0.6,0-1,0.4-1,1v6.1h2v-5.1H23v5.1h2v-5.1h16.2
			v5.1h2v-6.1C43.2,31,42.8,30.6,42.2,30.6z"/>
		<g>
			<g>
				<path fill="#F3705A" d="M16.6,3.1C20.7-1,27.3-1,31.4,3.1c4.1,4.1,4.1,10.7,0,14.8L24,25.2l-7.4-7.4
					C12.5,13.8,12.5,7.1,16.6,3.1z"/>
			</g>
			<g>
				<g>
					<path fill="#FFFFFF" d="M19.5,6c2.5-2.5,6.5-2.5,9,0c2.5,2.5,2.5,6.5,0,9c-2.5,2.5-6.5,2.5-9,0C17,12.5,17,8.4,19.5,6z"/>
				</g>
			</g>
		</g>
		<g>
			<g>
				<path fill="#66C6B9" d="M9.5,36.5H2c-1.1,0-2,0.9-2,2V46c0,1.1,0.9,2,2,2h7.5c1.1,0,2-0.9,2-2v-7.5
					C11.5,37.4,10.6,36.5,9.5,36.5z"/>
			</g>
		</g>
		<g>
			<g>
				<path fill="#FFD15C" d="M27.8,36.5h-7.5c-1.1,0-2,0.9-2,2V46c0,1.1,0.9,2,2,2h7.5c1.1,0,2-0.9,2-2v-7.5
					C29.8,37.4,28.9,36.5,27.8,36.5z"/>
			</g>
		</g>
		<g>
			<g>
				<path fill="#F3705A" d="M46,36.5h-7.5c-1.1,0-2,0.9-2,2V46c0,1.1,0.9,2,2,2H46c1.1,0,2-0.9,2-2v-7.5C48,37.4,47.1,36.5,46,36.5z
					"/>
			</g>
		</g>
	</g>
</g>
</svg>
