<?xml version="1.0" encoding="utf-8"?>
<!-- Generator: Adobe Illustrator 18.0.0, SVG Export Plug-In . SVG Version: 6.00 Build 0)  -->
<!DOCTYPE svg PUBLIC "-//W3C//DTD SVG 1.1//EN" "http://www.w3.org/Graphics/SVG/1.1/DTD/svg11.dtd">
<svg version="1.1" id="Layer_1" xmlns="http://www.w3.org/2000/svg" xmlns:xlink="http://www.w3.org/1999/xlink" x="0px" y="0px"
	 viewBox="0 0 48 48" enable-background="new 0 0 48 48" xml:space="preserve">
<g>
	<g>
		<g>
			<g>
				<path fill="#FFD15C" d="M15.3,2.4c-1.6,0-1.6,2.4,0,2.4C16.9,4.8,16.9,2.4,15.3,2.4z"/>
				<g>
					<path fill="#344A5E" d="M23.8,21.7l-0.7-3.1c-0.4-1.8-1.7-3.3-3.5-4L16,13.3l-4.1,1.3l-4.1-1.3l-3.6,1.3
						c-1.8,0.6-3.1,2.1-3.5,4L0,21.7H23.8z"/>
					<polygon fill="#CED6E0" points="14.4,13.8 11.9,14.6 9.4,13.8 9.5,21 14.3,21 					"/>
					<polygon fill="#F3705A" points="10.1,21.7 13.7,21.7 12.6,17.3 13.3,16 11.9,14.6 10.5,16 11.2,17.3 					"/>
					<path fill="#E8EAE9" d="M11.9,14.6c0,0,2.5-1.6,2.7-3l0.9,1.6L13.8,17L11.9,14.6z"/>
					<polygon fill="#415A6B" points="14.4,21.7 17.6,16.2 16.1,15.4 17.6,14.8 15.1,12.4 12.9,21.7 					"/>
					<path fill="#E8EAE9" d="M11.9,14.6c0,0-2.5-1.6-2.7-3l-0.9,1.6L10,17L11.9,14.6z"/>
					<polygon fill="#415A6B" points="6.2,16.2 9.4,21.7 10.9,21.7 8.7,12.4 6.2,14.8 7.7,15.4 					"/>
					<path fill="#F7B64C" d="M9.2,9.8v1.7c0.2,1.4,2.7,3,2.7,3s2.5-1.6,2.7-3l0-1.7H9.2z"/>
					<g>
						<path fill="#FFD15C" d="M14.5,2.5c-0.1,0-0.2,0-0.4,0.1c-0.2-0.1-0.4-0.2-0.7-0.2c-0.5,0-0.8,0.3-1,0.6
							c-0.2-0.4-0.5-0.7-1.1-0.7c-0.6,0-1,0.4-1.1,0.8c-0.2-0.3-0.5-0.4-0.9-0.4c-0.7,0-1.1,0.5-1.2,1.1c-0.5,0.7-0.2,1.9,1,1.9
							c0.7,0,1.1-0.5,1.2-1.1c0.1-0.1,0.1-0.2,0.2-0.4c0.2,0.3,0.5,0.4,0.9,0.4c0.5,0,0.8-0.3,1-0.6c0.2,0.4,0.5,0.7,1.1,0.7
							c0.1,0,0.2,0,0.4-0.1c0.2,0.1,0.4,0.2,0.7,0.2C16.1,4.9,16.1,2.5,14.5,2.5z"/>
						<path fill="#FFD15C" d="M15.3,4.2c-1.6,0-3.2-0.4-4.4-1.2c-0.7,1.3-1.7,2-3,2.4C7.8,5.9,7.8,6.4,7.8,7c0,2.8,1.9,5,4.1,5
							c2.3,0,4.1-2.2,4.1-5C16,5.9,15.8,5,15.3,4.2z"/>
						<g>
							<path fill="#415A6B" d="M16.5,4.1c0,0.9-0.3,2-0.9,2.9c-0.2-0.8-0.2-2.2,0.1-2.7c0.4-0.7-0.3-1.4-1.1-1.1
								c-2.1,1.1-5.2,0-5.2,0C8.6,2.9,7.9,3.6,8.3,4.3C8.6,4.8,8.6,6.2,8.4,7C7.9,6.1,7.5,5,7.5,4.1C7.5,1.8,9.5,0,12,0
								C14.5,0,16.5,1.8,16.5,4.1z"/>
						</g>
						<g>
							<g>
								<g>
									<path fill="#FFD15C" d="M16.6,7.2c-0.2,0.9-0.7,1.5-1.2,1.4S14.8,7.7,15,6.8s0.7-1.5,1.2-1.4C16.6,5.5,16.8,6.3,16.6,7.2z"
										/>
								</g>
							</g>
							<g>
								<g>
									<path fill="#FFD15C" d="M7.1,7.2C7.3,8,7.9,8.7,8.3,8.6S9,7.7,8.8,6.8C8.6,6,8.1,5.3,7.6,5.4S7,6.3,7.1,7.2z"/>
								</g>
							</g>
						</g>
					</g>
				</g>
			</g>
			<g>
				<g>
					<g>
						
							<ellipse transform="matrix(0.9509 -0.3095 0.3095 0.9509 -0.9467 10.5328)" fill="#FFD15C" cx="32.7" cy="8.3" rx="1" ry="1.4"/>
					</g>
					<g>
						
							<ellipse transform="matrix(0.9509 0.3095 -0.3095 0.9509 4.5959 -12.4695)" fill="#FFD15C" cx="41.6" cy="8.3" rx="1" ry="1.4"/>
					</g>
				</g>
				<g>
					<g>
						<path fill="#344A5E" d="M48,21.7l-0.1-2.3c0-1.5-1-2.8-2.3-3.4l-4.3-1.8l-4.1,1.3L33,14.1l-4.3,1.8c-1.4,0.6-2.3,1.9-2.3,3.4
							l-0.1,2.3H48z"/>
					</g>
					<polygon fill="#CED6E0" points="39.6,21.7 39.7,14.6 37.2,15.4 34.6,14.6 34.7,21.7 					"/>
					<polygon fill="#F3705A" points="35.5,21.7 38.8,21.7 37.9,18 38.6,16.8 37.2,15.4 35.7,16.8 36.4,18 					"/>
					<path fill="#F7B64C" d="M34.4,10.6v1.7c0.2,1.4,2.7,3,2.7,3s2.5-1.6,2.7-3l0-1.7H34.4z"/>
					<polygon fill="#E8EAE9" points="37.2,15.3 39.9,12.3 40.8,13.9 39,17.7 					"/>
					<polygon fill="#415A6B" points="40.6,21.7 42.9,18.2 41.4,17.1 43.6,15.7 40.4,13.1 38.4,21.7 					"/>
					<polygon fill="#E8EAE9" points="37.1,15.3 34.4,12.3 33.5,13.9 35.3,17.7 					"/>
					<polygon fill="#415A6B" points="31.4,18.2 33.7,21.7 35.9,21.7 33.9,13.1 30.7,15.7 32.9,17.1 					"/>
				</g>
				<g>
					<g>
						<ellipse fill="#415A6B" cx="36.5" cy="5.2" rx="4.7" ry="5.2"/>
					</g>
					<g>
						<ellipse fill="#415A6B" cx="39.4" cy="5.2" rx="3.1" ry="4.4"/>
					</g>
				</g>
				<g>
					<path fill="#FFD15C" d="M38.4,3.2c-1,1.3-2.5,2.3-4.5,2.3c-0.4,0-0.9-0.1-1.2-0.1c0,0.3-0.1,0.6-0.1,1
						c-0.1,3.7,1.9,6.9,4.5,6.9c2.6,0,4.6-3.1,4.5-6.9c0-0.4,0-0.7-0.1-1.1C40.2,4.9,39.2,4.2,38.4,3.2z"/>
				</g>
			</g>
		</g>
		<g>
			<g>
				
					<rect x="32.3" y="33.2" transform="matrix(0.7071 -0.7071 0.7071 0.7071 -15.0011 34.9374)" fill="#415A6B" width="4.7" height="4.7"/>
				<circle fill="#FFFFFF" cx="24.1" cy="25" r="12.5"/>
				<path fill="#8AD7F8" d="M34,34.9c-5.5,5.5-14.3,5.5-19.8,0s-5.5-14.3,0-19.8s14.3-5.5,19.8,0S39.4,29.4,34,34.9z M16.3,17.2
					c-4.3,4.3-4.3,11.3,0,15.6c4.3,4.3,11.3,4.3,15.6,0c4.3-4.3,4.3-11.3,0-15.6S20.6,12.9,16.3,17.2z"/>
				<path fill="#F3705A" d="M33.3,40.2l7.3,7.3c0.7,0.7,1.8,0.7,2.4,0l3.5-3.5c0.7-0.7,0.7-1.8,0-2.4l-7.3-7.3L33.3,40.2z"/>
				
					<rect x="35.9" y="33.9" transform="matrix(0.7071 0.7071 -0.7071 0.7071 37.87 -15.1566)" fill="#F05540" width="2.7" height="8.4"/>
				<g>
					<g>
						<path fill="#F3705A" d="M40.3,35.3l-5.9,5.9c-0.6,0.6-1.5,0.6-2.1,0s-0.6-1.5,0-2.1l5.9-5.9c0.6-0.6,1.5-0.6,2.1,0
							S40.9,34.7,40.3,35.3z"/>
					</g>
				</g>
			</g>
			<g>
				<path fill="#FFD15C" d="M23.4,31.9v-1.2c-1.4-0.2-2.7-0.9-3.9-1.9l1.6-1.9c0.9,0.8,1.7,1.2,2.4,1.5v-2.5c-1.2-0.3-2-0.7-2.6-1.2
					c-0.5-0.5-0.8-1.2-0.8-2.2c0-1,0.3-1.7,0.9-2.4c0.6-0.6,1.4-1,2.5-1.1v-0.8h1.8V19c1.1,0.2,2.2,0.6,3.3,1.4l-1.4,2
					c-0.7-0.5-1.4-0.8-2-1v2.4c1.2,0.3,2.1,0.7,2.7,1.3c0.6,0.5,0.9,1.3,0.9,2.2c0,1-0.3,1.7-1,2.4c-0.6,0.6-1.5,1-2.6,1.1v1.2H23.4
					z M23.4,21.3c-0.5,0.2-0.7,0.5-0.7,0.9s0.2,0.8,0.7,1V21.3z M26,27.3c0-0.2-0.1-0.4-0.2-0.6c-0.1-0.2-0.3-0.3-0.7-0.4v2.1
					C25.7,28.2,26,27.8,26,27.3z"/>
			</g>
		</g>
	</g>
</g>
</svg>
