<?xml version="1.0" encoding="utf-8"?>
<!-- Generator: Adobe Illustrator 18.0.0, SVG Export Plug-In . SVG Version: 6.00 Build 0)  -->
<!DOCTYPE svg PUBLIC "-//W3C//DTD SVG 1.1//EN" "http://www.w3.org/Graphics/SVG/1.1/DTD/svg11.dtd">
<svg version="1.1" id="Layer_1" xmlns="http://www.w3.org/2000/svg" xmlns:xlink="http://www.w3.org/1999/xlink" x="0px" y="0px"
	 viewBox="0 0 48 48" enable-background="new 0 0 48 48" xml:space="preserve">
<g>
	<g>
		<g>
			<path fill="#F2F2F2" d="M2.7,7.1l38.1,38.1l5.8-5.8c0.8-0.8,0.8-2,0-2.8L11.4,1.3c-0.8-0.8-2-0.8-2.8,0L2.7,7.1z"/>
			<path fill="#E4EAEF" d="M1.3,11.4l35.3,35.3c0.8,0.8,2,0.8,2.8,0l1.4-1.4L2.7,7.1L1.3,8.6C0.5,9.4,0.5,10.6,1.3,11.4z"/>
		</g>
		<g>
			<path fill="#CDD6E0" d="M13.5,3.4L10,6.9c-0.2,0.2-0.2,0.6,0,0.9c0.2,0.2,0.6,0.2,0.9,0l3.5-3.5L13.5,3.4z"/>
			<path fill="#CDD6E0" d="M17.3,7.2L15,9.4c-0.2,0.2-0.2,0.6,0,0.9c0.2,0.2,0.6,0.2,0.9,0L18.1,8L17.3,7.2z"/>
			<path fill="#CDD6E0" d="M21.1,11l-3.5,3.5c-0.2,0.2-0.2,0.6,0,0.9c0.2,0.2,0.6,0.2,0.9,0l3.5-3.5L21.1,11z"/>
			<path fill="#CDD6E0" d="M24.8,14.7L22.6,17c-0.2,0.2-0.2,0.6,0,0.9c0.2,0.2,0.6,0.2,0.9,0l2.2-2.2L24.8,14.7z"/>
			<path fill="#CDD6E0" d="M28.6,18.5l-3.5,3.5c-0.2,0.2-0.2,0.6,0,0.9c0.2,0.2,0.6,0.2,0.9,0l3.5-3.5L28.6,18.5z"/>
			<path fill="#CDD6E0" d="M32.4,22.3l-2.2,2.2c-0.2,0.2-0.2,0.6,0,0.9c0.2,0.2,0.6,0.2,0.9,0l2.2-2.2L32.4,22.3z"/>
			<path fill="#CDD6E0" d="M36.2,26.1l-3.5,3.5c-0.2,0.2-0.2,0.6,0,0.9c0.2,0.2,0.6,0.2,0.9,0l3.5-3.5L36.2,26.1z"/>
			<path fill="#CDD6E0" d="M40,29.9l-2.2,2.2c-0.2,0.2-0.2,0.6,0,0.9c0.2,0.2,0.6,0.2,0.9,0l2.2-2.2L40,29.9z"/>
			<path fill="#CDD6E0" d="M43.7,33.6l-3.5,3.5c-0.2,0.2-0.2,0.6,0,0.9c0.2,0.2,0.6,0.2,0.9,0l3.5-3.5L43.7,33.6z"/>
		</g>
	</g>
	<g>
		<polygon fill="#F2705B" points="11.8,46.4 11.7,46.5 11.6,46.5 0.1,48 1.6,36.4 1.6,36.3 1.6,36.2 28.9,8.8 30,7.7 30.7,7.1 
			40.9,17.3 40.2,17.9 39.2,19 		"/>
		<polygon fill="#89D6F7" points="29.2,8.5 28.9,8.8 1.6,36.2 1.6,36.3 1.6,36.4 4.9,39.7 32.6,12 		"/>
		<polygon fill="#89D6F7" points="36,15.4 8.3,43.1 11.6,46.5 11.7,46.5 11.8,46.4 39.5,18.8 		"/>
		
			<rect x="0.8" y="25.1" transform="matrix(0.7071 -0.7071 0.7071 0.7071 -13.4895 22.5386)" fill="#55BFE9" width="39.3" height="4.8"/>
		<path fill="#F2705B" d="M42.5,15.7L32.3,5.5l4.9-4.9c0.8-0.8,2.2-0.8,3,0l7.2,7.2c0.8,0.8,0.8,2.2,0,3L42.5,15.7z"/>
		<polygon fill="#F2F2F2" points="39.2,19 28.9,8.8 32.3,5.5 42.5,15.7 		"/>
		<path fill="#FFD05C" d="M11.7,46.4L0.1,48l1.5-11.7c0.9-0.2,1.9,0.1,2.6,0.8c0.7,0.7,1,1.7,0.7,2.6c0.9-0.2,1.9,0,2.6,0.7
			c0.7,0.7,1,1.7,0.7,2.6c0.9-0.2,1.9,0,2.6,0.7C11.6,44.6,11.9,45.5,11.7,46.4z"/>
		<path fill="#41596B" d="M4.4,47.4L0.1,48l0.6-4.4c0.8,0.3,1.6,0.8,2.3,1.5C3.6,45.8,4.1,46.6,4.4,47.4z"/>
	</g>
</g>
</svg>
