<?xml version="1.0" encoding="utf-8"?>
<!-- Generator: Adobe Illustrator 18.0.0, SVG Export Plug-In . SVG Version: 6.00 Build 0)  -->
<!DOCTYPE svg PUBLIC "-//W3C//DTD SVG 1.1//EN" "http://www.w3.org/Graphics/SVG/1.1/DTD/svg11.dtd">
<svg version="1.1" id="Layer_1" xmlns="http://www.w3.org/2000/svg" xmlns:xlink="http://www.w3.org/1999/xlink" x="0px" y="0px"
	 viewBox="0 0 48 48" enable-background="new 0 0 48 48" xml:space="preserve">
<g>
	<g>
		<g>
			<path fill="#415A6B" d="M7.3,18.8c0,0,9.8-1,16.7,8.7l-2.5,1.6C21.5,29.1,18.2,20.5,7.3,18.8z"/>
		</g>
		<g>
			<path fill="#415A6B" d="M40.7,21.2c0,0-13.3,1.9-16.3,14.5l-3-0.3C26.8,20.9,40.7,21.2,40.7,21.2z"/>
		</g>
		<g>
			<g>
				<g>
					<g>
						<path fill="#4EC0AA" d="M35.6,23.7c-1-0.6-2.3-0.4-2.9,0.5l5.1,3.2C37.8,27.5,36.6,24.4,35.6,23.7z"/>
						<path fill="#66C6B9" d="M37.8,27.5l-5.1-3.2c-0.6,0.9-0.4,2.1,0.6,2.7C34.2,27.6,37.8,27.5,37.8,27.5z"/>
					</g>
					<g>
						<path fill="#4EC0AA" d="M34.1,18.3c-0.8,1.4-0.4,3.2,1,4l4.4-7.3C39.5,15,34.9,16.9,34.1,18.3z"/>
						<path fill="#66C6B9" d="M39.5,15l-4.4,7.3c1.4,0.8,3.2,0.4,4-1C40,19.9,39.5,15,39.5,15z"/>
					</g>
				</g>
			</g>
			<g>
				<g>
					<g>
						<path fill="#4EC0AA" d="M11.4,20.4c0.7-0.6,1.8-0.5,2.3,0.1l-3.7,3C10,23.5,10.7,21,11.4,20.4z"/>
						<path fill="#66C6B9" d="M10,23.5l3.7-3c0.6,0.6,0.5,1.6-0.2,2.2C12.8,23.3,10,23.5,10,23.5z"/>
					</g>
					<g>
						<path fill="#4EC0AA" d="M12,15.9c0.8,1,0.6,2.5-0.4,3.3l-4.2-5.3C7.4,13.9,11.2,14.9,12,15.9z"/>
						<path fill="#66C6B9" d="M7.4,13.9l4.2,5.3c-1,0.8-2.5,0.6-3.3-0.4C7.6,17.8,7.4,13.9,7.4,13.9z"/>
					</g>
				</g>
			</g>
			<g>
				<path fill="#F3705A" d="M11,34.7l3,11.7c0.2,0.9,1.1,1.6,2.1,1.6h13.5c1,0,1.8-0.7,2.1-1.6l3-11.7H11z"/>
				<g>
					<polygon fill="#F05540" points="34.2,36.4 34.6,34.7 11,34.7 11.4,36.4 					"/>
				</g>
				<path fill="#F3705A" d="M35,30.1H10.6c-0.6,0-1.1,0.5-1.1,1.1v2.5c0,0.6,0.5,1.1,1.1,1.1H35c0.6,0,1.1-0.5,1.1-1.1v-2.5
					C36,30.5,35.6,30.1,35,30.1z"/>
			</g>
			<g>
				<g>
					<rect x="21.3" y="19.7" fill="#415A6B" width="3" height="10.4"/>
				</g>
			</g>
			<g>
				<g>
					<circle fill="#FFD15C" cx="22.8" cy="10.6" r="10.6"/>
				</g>
				<g>
					<circle fill="#F7B64C" cx="22.8" cy="10.6" r="7.5"/>
				</g>
				<g>
					<path fill="#FFD15C" d="M22.3,15.7v-0.9c-1-0.2-2-0.6-2.9-1.4l1.1-1.4c0.6,0.6,1.2,0.9,1.7,1.1v-1.8c-0.9-0.2-1.5-0.5-1.9-0.9
						C20,10,19.8,9.4,19.8,8.7C19.8,8,20,7.5,20.5,7c0.5-0.5,1.1-0.7,1.8-0.8V5.6h1.3v0.6c0.8,0.1,1.6,0.5,2.4,1l-1,1.4
						c-0.5-0.4-1-0.6-1.4-0.7v1.8c0.9,0.2,1.5,0.5,2,0.9c0.4,0.4,0.6,0.9,0.6,1.6s-0.2,1.3-0.7,1.7c-0.5,0.5-1.1,0.7-1.9,0.8v0.9
						H22.3z M22.3,7.9c-0.4,0.1-0.5,0.3-0.5,0.7c0,0.3,0.2,0.6,0.5,0.7V7.9z M24.2,12.4c0-0.2,0-0.3-0.1-0.4
						c-0.1-0.1-0.3-0.2-0.5-0.3v1.5C24,13,24.2,12.7,24.2,12.4z"/>
				</g>
			</g>
		</g>
	</g>
</g>
</svg>
