<?xml version="1.0" encoding="utf-8"?>
<!-- Generator: Adobe Illustrator 19.0.1, SVG Export Plug-In . SVG Version: 6.00 Build 0)  -->
<svg version="1.1" id="Layer_1" xmlns="http://www.w3.org/2000/svg" xmlns:xlink="http://www.w3.org/1999/xlink" x="0px" y="0px"
	 viewBox="0 0 48 48" style="enable-background:new 0 0 48 48;" xml:space="preserve">
<style type="text/css">
	.st0{fill:#415A6B;}
	.st1{fill:#ADB3BA;}
	.st2{fill:#E8EAE9;}
	.st3{fill:#55C0EB;}
	.st4{fill:#F3705A;}
	.st5{fill:#FFFFFF;}
	.st6{fill:#FFD15C;}
	.st7{fill:#344A5E;}
	.st8{fill:#CED6E0;}
	.st9{fill:#F05540;}
	.st10{fill:#F7B64C;}
	.st11{fill:#F3F3F3;}
	.st12{fill:#66C6B9;}
	.st13{fill:#4ABAA5;}
	.st14{fill:#8AD7F8;}
	.st15{fill:none;}
	.st16{fill:#E53D35;}
</style>
<g>
	<g>
		<g>
			<g>
				<g>
					<path class="st0" d="M23.2,18.7c0,6.5-2.9,11-6.5,11s-6.5-4.5-6.5-11c0-4.6,2.9-5.9,6.5-5.9S23.2,14.1,23.2,18.7z"/>
				</g>
				<g>
					<g>
						<path class="st10" d="M12.4,25.6l-0.1,3.7c0,0-0.8,3.8,0.4,6.3c4.4-0.9,9.1-1.5,7.7-6.3v-3.7H12.4z"/>
					</g>
					<g>
						<polygon class="st8" points="20.9,48 24.9,34.5 14.9,34.5 10.2,33.2 10.4,48 						"/>
					</g>
					<g>
						<g>
							<polygon class="st4" points="19,48 17.6,38.1 15.2,38.1 13.8,48 							"/>
						</g>
						<g>
							<polygon class="st9" points="17.6,38.1 18.8,36.9 16.4,34.5 14,36.9 15.2,38.1 							"/>
						</g>
					</g>
					<g>
						<g>
							<g>
								<path class="st11" d="M12.3,29.3c0,0-0.3,1.1,0,1.8c0.3,0.7,4.1,3.3,4.1,3.3L12.9,38l-2.3-4.6l0.7-2.6
									c0.1-0.4,0.3-0.8,0.5-1.1C12,29.6,12.2,29.4,12.3,29.3z"/>
							</g>
							<g>
								<g>
									<path class="st7" d="M12.6,48l-2.3-10.5l0.1-5l-6.9,3.2c-1.7,0.8-2.9,2.4-3,4.3L0,48H12.6z"/>
								</g>
								<g>
									<polygon class="st0" points="10.5,48 13.7,48 11.4,30.7 7.7,37.4 9.6,37.3 7.2,39.4 									"/>
								</g>
							</g>
						</g>
						<g>
							<g>
								<path class="st11" d="M20.5,29.3c0,0,0.3,1.1,0,1.8c-0.3,0.7-4.1,3.3-4.1,3.3l3.5,3.5l2.3-4.6l-0.7-2.6
									c-0.1-0.4-0.3-0.8-0.5-1.1C20.8,29.6,20.6,29.4,20.5,29.3z"/>
							</g>
							<g>
								<g>
									<path class="st7" d="M32.8,48l-0.6-8c-0.1-1.9-1.3-3.5-3-4.3l-6.9-3.2l0.1,5L20.2,48H32.8z"/>
								</g>
								<g>
									<polygon class="st0" points="19.1,48 22.3,48 25.6,39.4 23.2,37.3 25.1,37.4 21.4,30.7 									"/>
								</g>
							</g>
						</g>
					</g>
					<g>
						<g>
							
								<ellipse transform="matrix(-0.9906 0.1366 -0.1366 -0.9906 24.8687 46.154)" class="st6" cx="10.9" cy="23.9" rx="1" ry="2.2"/>
						</g>
						<g>
							
								<ellipse transform="matrix(0.9906 0.1366 -0.1366 0.9906 3.4797 -2.8565)" class="st6" cx="22.6" cy="23.9" rx="1" ry="2.2"/>
						</g>
					</g>
				</g>
			</g>
			<g>
				<path class="st6" d="M17.5,16c-1,2.5-3.2,4.4-6.7,4.5c-0.2,0.8-0.3,1.7-0.3,2.6c0,4.9,2.6,8.8,5.8,8.8s5.8-4,5.8-8.8
					c0-1.7-0.3-3.2-0.8-4.5C19.7,18.2,18.4,17.2,17.5,16z"/>
			</g>
		</g>
		<g>
			<g>
				<path class="st14" d="M48,11c0,6.1-5.3,11-11.8,11c-0.8,0-1.6-0.1-2.3-0.2l-5.8,4.5V19c-2.3-2-3.7-4.8-3.7-8
					c0-6.1,5.3-11,11.8-11S48,4.9,48,11z"/>
			</g>
			<g>
				<path class="st5" d="M37.3,14.2H35c0-0.3,0-0.5,0-0.6c0-0.7,0.1-1.3,0.4-1.8s0.7-1,1.4-1.6s1.2-1,1.3-1.2c0.2-0.3,0.3-0.6,0.3-1
					c0-0.5-0.2-0.9-0.6-1.2c-0.4-0.3-0.9-0.5-1.6-0.5c-0.6,0-1.2,0.2-1.6,0.5c-0.4,0.4-0.7,0.9-0.9,1.6l-2.3-0.3
					c0.1-1.1,0.5-1.9,1.3-2.7c0.8-0.7,1.9-1.1,3.3-1.1c1.4,0,2.6,0.4,3.4,1.1s1.3,1.6,1.3,2.6c0,0.5-0.2,1.1-0.5,1.6s-1,1.2-2,2
					c-0.5,0.4-0.8,0.8-1,1C37.3,13,37.3,13.5,37.3,14.2z M35,16.3L35,16.3c0-0.7,0.6-1.2,1.2-1.2h0c0.7,0,1.2,0.6,1.2,1.2v0
					c0,0.7-0.6,1.2-1.2,1.2h0C35.6,17.5,35,17,35,16.3z"/>
			</g>
		</g>
	</g>
</g>
</svg>
