<?xml version="1.0" encoding="utf-8"?>
<!-- Generator: Adobe Illustrator 18.0.0, SVG Export Plug-In . SVG Version: 6.00 Build 0)  -->
<!DOCTYPE svg PUBLIC "-//W3C//DTD SVG 1.1//EN" "http://www.w3.org/Graphics/SVG/1.1/DTD/svg11.dtd">
<svg version="1.1" id="Layer_1" xmlns="http://www.w3.org/2000/svg" xmlns:xlink="http://www.w3.org/1999/xlink" x="0px" y="0px"
	 viewBox="0 0 48 48" enable-background="new 0 0 48 48" xml:space="preserve">
<g>
	<path fill="#FFD15C" d="M41.4,5.9H6.6c-1.1,0-2,0.9-2,2V46c0,1.1,0.9,2,2,2h34.8c1.1,0,2-0.9,2-2V7.9C43.4,6.8,42.5,5.9,41.4,5.9z"
		/>
	<path fill="#F2F2F2" d="M39.4,10.9c0-0.6-0.4-1-1-1H9.6c-0.6,0-1,0.4-1,1V43c0,0.6,0.4,1,1,1h24.5l5.3-5.3V10.9z"/>
	<path fill="#CDD6E0" d="M39.4,38.7h-4.6c-0.4,0-0.6,0.3-0.6,0.6V44L39.4,38.7z"/>
	<path fill="#40596B" d="M32.1,3.8h-3.5C28.2,1.7,26.3,0,24,0c-2.3,0-4.2,1.7-4.6,3.8h-3.5c-1,0-1.9,0.8-1.9,1.9v4c0,1.1,0.9,2,2,2
		h16c1.1,0,2-0.9,2-2v-4C34,4.7,33.2,3.8,32.1,3.8z M24,5.9c-1.1,0-2-0.9-2-2c0-1.1,0.9-2,2-2c1.1,0,2,0.9,2,2C26,5,25.1,5.9,24,5.9
		z"/>
	<g>
		<rect x="10.9" y="29" fill="#CDD5DF" width="26.2" height="2"/>
		<rect x="10.9" y="33.8" fill="#CDD5DF" width="26.2" height="2"/>
		<rect x="10.9" y="38.5" fill="#CDD5DF" width="18.8" height="2"/>
	</g>
	<circle fill="#FF7058" cx="24" cy="20.5" r="5.7"/>
	<polygon fill="#FFFFFF" points="28,19.6 25,19.6 25,16.5 23,16.5 23,19.6 20,19.6 20,21.5 23,21.5 23,24.5 25,24.5 25,21.5 
		28,21.5 	"/>
</g>
</svg>
