<?xml version="1.0" encoding="utf-8"?>
<!-- Generator: Adobe Illustrator 18.0.0, SVG Export Plug-In . SVG Version: 6.00 Build 0)  -->
<!DOCTYPE svg PUBLIC "-//W3C//DTD SVG 1.1//EN" "http://www.w3.org/Graphics/SVG/1.1/DTD/svg11.dtd">
<svg version="1.1" id="Layer_1" xmlns="http://www.w3.org/2000/svg" xmlns:xlink="http://www.w3.org/1999/xlink" x="0px" y="0px"
	 viewBox="0 0 48 48" enable-background="new 0 0 48 48" xml:space="preserve">
<g>
	<g>
		<g>
			<g>
				<g>
					<g>
						
							<rect x="23.6" y="6.6" transform="matrix(0.7071 0.7071 -0.7071 0.7071 23.6143 -10.8792)" fill="#E8EAE9" width="2.6" height="32.9"/>
					</g>
				</g>
				<g>
					<g>
						<path fill="#F3705A" d="M48,0c0,0-13.6,1.7-16.8,4.9c-1.8,1.8-1.8,4.6,0,6.3c1.2,1.2,3,1.6,4.6,1c-0.5,1.6-0.2,3.4,1,4.6
							c1.7,1.7,4.6,1.7,6.3,0C46.3,13.6,48,0,48,0z"/>
					</g>
				</g>
			</g>
			<g>
				<g>
					<polygon fill="#F3705A" points="16.6,39.4 8.8,47.2 7,41 0.8,39.2 8.6,31.4 14.9,33.1 					"/>
				</g>
			</g>
		</g>
		<g>
			<g>
				<g>
					<path fill="#415A6B" d="M36.8,46.1c-1.4-1.4-2-3.3-1.8-5.2c0.3-3.1,1.4-12.6-7-21c-8.4-8.4-17.8-7.3-21-7
						c-1.9,0.2-3.8-0.5-5.2-1.8c-2.5-2.5-2.5-6.6,0-9.1c1.7-1.7,4.2-2.4,6.6-1.9c1.2,0.2,1.9,1.4,1.7,2.5C9.9,3.9,8.8,4.6,7.6,4.4
						c-1-0.2-2,0.1-2.7,0.8c-0.8,0.8-0.8,2.2,0,3C5.4,8.6,6,8.8,6.6,8.7c9.7-1,17.9,1.7,24.4,8.2c6.5,6.5,9.3,14.7,8.2,24.4
						c-0.1,0.6,0.2,1.2,0.6,1.7c0.8,0.8,2.2,0.8,3,0c0.7-0.7,1-1.7,0.8-2.7c-0.2-1.2,0.5-2.3,1.7-2.5c1.2-0.2,2.3,0.5,2.5,1.7
						c0.5,2.4-0.2,4.9-1.9,6.6C43.4,48.6,39.3,48.6,36.8,46.1z"/>
				</g>
			</g>
			<g>
				<path fill="#FFD15C" d="M22.6,17.1c3.3,2,6.2,4.9,8.3,8.3l5.7-3C34.1,18,30,14,25.6,11.4L22.6,17.1z"/>
			</g>
		</g>
	</g>
</g>
</svg>
