<?xml version="1.0" encoding="utf-8"?>
<!-- Generator: Adobe Illustrator 18.0.0, SVG Export Plug-In . SVG Version: 6.00 Build 0)  -->
<!DOCTYPE svg PUBLIC "-//W3C//DTD SVG 1.1//EN" "http://www.w3.org/Graphics/SVG/1.1/DTD/svg11.dtd">
<svg version="1.1" id="Layer_1" xmlns="http://www.w3.org/2000/svg" xmlns:xlink="http://www.w3.org/1999/xlink" x="0px" y="0px"
	 viewBox="0 0 48 48" enable-background="new 0 0 48 48" xml:space="preserve">
<g>
	<g>
		<path fill="#E8EAE9" d="M33.8,13.3V9.8C33.8,4.4,29.4,0,24,0s-9.8,4.4-9.8,9.8v3.5H33.8z"/>
		<g>
			<g>
				<path fill="#FFFFFF" d="M29.8,7.5C28.9,5.6,27,4.3,24.9,4c-0.4,0-0.7-0.4-0.7-0.8v0c0-0.5,0.4-0.9,0.9-0.8c2.6,0.3,5,2,6.1,4.3
					c0.2,0.4,0,1-0.5,1.1l0,0C30.4,8,30,7.9,29.8,7.5z"/>
			</g>
		</g>
		<path fill="#F3705A" d="M35.6,15.5H12.4c-6.5,2.8-10.8,7.6-10.8,7.6h44.7C46.4,23.1,42.1,18.3,35.6,15.5z"/>
		<g>
			<path fill="#415A6B" d="M31.7,33.5c8.6-2.2,14.7-7.8,14.7-7.8H1.6c0,0,6.1,5.6,14.7,7.8H31.7z"/>
		</g>
		<g>
			<polygon fill="#8AD7F8" points="39.4,48 8.6,48 16.3,33.5 31.7,33.5 			"/>
		</g>
		<path fill="#344A5E" d="M43.6,27.7c1.7-1.1,2.7-2,2.7-2H1.6c0,0,1,0.8,2.7,2H43.6z"/>
		<path fill="#F05540" d="M46.4,26H1.6C0.7,26,0,25.3,0,24.4s0.7-1.6,1.6-1.6h44.7c0.9,0,1.6,0.7,1.6,1.6S47.3,26,46.4,26z"/>
		<rect x="12.4" y="12.2" fill="#415A6B" width="23.2" height="3.3"/>
		<g>
			<polygon fill="#55C0EB" points="27.7,33.5 27.3,33.5 33.2,48 35.3,48 			"/>
			<polygon fill="#55C0EB" points="20.3,33.5 12.7,48 14.8,48 20.7,33.5 			"/>
			<polygon fill="#55C0EB" points="23.7,33.5 23.1,48 24.9,48 24.3,33.5 			"/>
		</g>
	</g>
</g>
</svg>
