<?xml version="1.0" encoding="utf-8"?>
<!-- Generator: Adobe Illustrator 20.1.0, SVG Export Plug-In . SVG Version: 6.00 Build 0)  -->
<!DOCTYPE svg PUBLIC "-//W3C//DTD SVG 1.1//EN" "http://www.w3.org/Graphics/SVG/1.1/DTD/svg11.dtd">
<svg version="1.1" id="Layer_1" xmlns="http://www.w3.org/2000/svg" xmlns:xlink="http://www.w3.org/1999/xlink" x="0px" y="0px"
	 viewBox="0 0 49 49" enable-background="new 0 0 49 49" xml:space="preserve">
<g>
	<rect x="0.5" y="44.4" fill="#E2E2E2" width="48" height="4.1"/>
	<rect x="5.3" y="16" fill="#F2F2F2" width="38.4" height="32.5"/>
	<path fill="#40596B" d="M43.5,0.5H5.5C4.6,0.5,3.9,1,3.6,1.8L0.7,13.3C0.1,14.6,1.1,16,2.5,16h43.9c1.4,0,2.4-1.4,1.9-2.7L45.4,1.8
		C45.1,1,44.4,0.5,43.5,0.5z"/>
	<rect x="5.3" y="16" fill="#E2E2E2" width="38.4" height="1.5"/>
	<rect x="9.1" y="20.1" fill="#CDD6E0" width="13.2" height="5.1"/>
	<g>
		<rect x="26.1" y="33.4" fill="#54C0EB" width="13.9" height="9.3"/>
		<rect x="25.1" y="42.8" fill="#CDD6E0" width="15.8" height="1.1"/>
	</g>
	<path fill="#CDD6E0" d="M9,48.5V31.3c0-0.6,0.5-1.1,1.1-1.1h11c0.6,0,1.1,0.5,1.1,1.1v17.2H9z"/>
</g>
</svg>
