<?xml version="1.0" encoding="utf-8"?>
<!-- Generator: Adobe Illustrator 18.0.0, SVG Export Plug-In . SVG Version: 6.00 Build 0)  -->
<!DOCTYPE svg PUBLIC "-//W3C//DTD SVG 1.1//EN" "http://www.w3.org/Graphics/SVG/1.1/DTD/svg11.dtd">
<svg version="1.1" id="Layer_1" xmlns="http://www.w3.org/2000/svg" xmlns:xlink="http://www.w3.org/1999/xlink" x="0px" y="0px"
	 viewBox="0 0 48 48" enable-background="new 0 0 48 48" xml:space="preserve">
<g>
	<path fill="#E8EAE9" d="M48,15.7V4c0-2.2-1.8-4-4-4s-4,1.8-4,4v11.7H48z"/>
	<path fill="#F3F3F3" d="M40,4c0-2.2,1.8-4,4-4H4C1.8,0,0,1.8,0,4v44h40V4z"/>
	<g>
		<rect x="5" y="5.3" fill="#F05540" width="12.5" height="2.2"/>
		<rect x="5" y="12.3" fill="#8AD7F8" width="30" height="2.2"/>
		<rect x="5" y="19.4" fill="#E8EAE9" width="30" height="2.2"/>
		<rect x="5" y="26.4" fill="#E8EAE9" width="14.2" height="2.2"/>
		<rect x="5" y="33.5" fill="#E8EAE9" width="14.2" height="2.2"/>
		<rect x="5" y="40.6" fill="#E8EAE9" width="14.2" height="2.2"/>
	</g>
	<g>
		<g>
			<polygon fill="#F05540" points="32,44 29.1,41.5 26.1,44 26.1,33.1 32,33.1 			"/>
		</g>
		<g>
			<path fill="#FFD15C" d="M36,30.4c0,0.7-1.1,1.2-1.3,1.8c-0.2,0.6,0.4,1.7,0,2.2c-0.4,0.5-1.6,0.3-2.1,0.6
				c-0.5,0.4-0.6,1.6-1.3,1.8c-0.6,0.2-1.4-0.7-2.1-0.7c-0.7,0-1.5,0.9-2.1,0.7c-0.6-0.2-0.7-1.4-1.3-1.8c-0.5-0.4-1.7-0.1-2.1-0.6
				c-0.4-0.5,0.2-1.6,0-2.2c-0.2-0.6-1.3-1.1-1.3-1.8c0-0.7,1.1-1.2,1.3-1.8c0.2-0.6-0.4-1.7,0-2.2c0.4-0.5,1.6-0.3,2.1-0.6
				c0.5-0.4,0.6-1.6,1.3-1.8c0.6-0.2,1.4,0.7,2.1,0.7c0.7,0,1.5-0.9,2.1-0.7c0.6,0.2,0.7,1.4,1.3,1.8c0.5,0.4,1.7,0.1,2.1,0.6
				c0.4,0.5-0.2,1.6,0,2.2C34.9,29.3,36,29.8,36,30.4z"/>
			<circle fill="#F7B64C" cx="29.3" cy="30.4" r="3.7"/>
		</g>
	</g>
</g>
</svg>
