<?xml version="1.0" encoding="utf-8"?>
<!-- Generator: Adobe Illustrator 18.0.0, SVG Export Plug-In . SVG Version: 6.00 Build 0)  -->
<!DOCTYPE svg PUBLIC "-//W3C//DTD SVG 1.1//EN" "http://www.w3.org/Graphics/SVG/1.1/DTD/svg11.dtd">
<svg version="1.1" id="Layer_1" xmlns="http://www.w3.org/2000/svg" xmlns:xlink="http://www.w3.org/1999/xlink" x="0px" y="0px"
	 viewBox="0 0 512 512" enable-background="new 0 0 512 512" xml:space="preserve">
<g>
	<polygon fill="#FFD15C" points="464.7,210.7 430.4,245.4 448.9,290.6 403.9,309.5 403.6,358.3 354.8,358.6 335.9,403.6 
		290.7,385.1 256,419.4 221.3,385.1 176.1,403.6 157.2,358.6 108.4,358.3 108.1,309.5 63.1,290.6 81.6,245.4 47.3,210.7 81.6,176 
		63.1,130.8 108.1,111.9 108.4,63.1 157.2,62.9 176.1,17.8 221.3,36.3 256,2 290.7,36.3 335.9,17.8 354.8,62.9 403.6,63.1 
		403.9,111.9 448.9,130.8 430.4,176 	"/>
	<polygon fill="#FF7058" points="221.3,385.1 176.1,403.6 157.2,358.6 139.2,358.5 87.6,465.9 150.9,451.9 179.6,510 233.7,397.4 	
		"/>
	<polygon fill="#FF7058" points="354.8,358.6 335.9,403.6 290.7,385.1 278.3,397.4 332.4,510 361.1,451.9 424.4,465.9 372.8,358.5 	
		"/>
	<circle fill="#F8B64C" cx="256" cy="213.2" r="156"/>
	<path fill="#FFFFFF" d="M165.5,170.3c0-14.5,3.2-25.3,9.6-32.3c6.4-7,15-10.5,26-10.5c11.3,0,20.1,3.5,26.5,10.5
		c6.4,7,9.6,17.8,9.6,32.4c0,14.5-3.2,25.3-9.6,32.3c-6.4,7-15,10.5-26,10.5c-11.3,0-20.1-3.5-26.5-10.5
		C168.7,195.7,165.5,184.9,165.5,170.3z M189.7,170c0,10.6,1.2,17.6,3.7,21.2c1.8,2.7,4.4,4,7.6,4c3.3,0,5.9-1.3,7.7-4
		c2.4-3.6,3.5-10.7,3.5-21.2s-1.2-17.6-3.5-21.1c-1.8-2.7-4.4-4.1-7.7-4.1c-3.2,0-5.8,1.3-7.6,4C190.9,152.4,189.7,159.5,189.7,170z
		 M224.7,298.6h-23l86.4-171.2h22.4L224.7,298.6z M274.9,256c0-14.5,3.2-25.3,9.6-32.3c6.4-7,15.1-10.5,26.2-10.5
		c11.1,0,19.9,3.5,26.3,10.5s9.6,17.8,9.6,32.3c0,14.6-3.2,25.4-9.6,32.4c-6.4,7-15,10.5-26,10.5c-11.3,0-20.1-3.5-26.5-10.5
		C278.1,281.5,274.9,270.6,274.9,256z M299.2,255.9c0,10.6,1.2,17.6,3.7,21.1c1.8,2.7,4.4,4.1,7.6,4.1c3.3,0,5.9-1.3,7.6-4
		c2.4-3.6,3.7-10.7,3.7-21.2s-1.2-17.6-3.5-21.2c-1.8-2.7-4.4-4-7.7-4s-5.9,1.3-7.6,4C300.4,238.3,299.2,245.4,299.2,255.9z"/>
</g>
</svg>
