<?xml version="1.0" encoding="utf-8"?>
<!-- Generator: Adobe Illustrator 18.0.0, SVG Export Plug-In . SVG Version: 6.00 Build 0)  -->
<!DOCTYPE svg PUBLIC "-//W3C//DTD SVG 1.1//EN" "http://www.w3.org/Graphics/SVG/1.1/DTD/svg11.dtd">
<svg version="1.1" id="Layer_1" xmlns="http://www.w3.org/2000/svg" xmlns:xlink="http://www.w3.org/1999/xlink" x="0px" y="0px"
	 viewBox="0 0 48 48" enable-background="new 0 0 48 48" xml:space="preserve">
<g>
	<path fill="#FF7058" d="M43.5,33.5H4.4c-1.1,0-2-0.9-2-2V2c0-1.1,0.9-2,2-2h39.1c1.1,0,2,0.9,2,2v29.5
		C45.5,32.6,44.6,33.5,43.5,33.5z"/>
	<g>
		<g>
			<path fill="#ACB3BA" d="M3.9,25.8H1c-0.6,0-1-0.4-1-1v-5.5c0-0.6,0.4-1,1-1h2.9c0.6,0,1,0.4,1,1v5.5C4.9,25.4,4.4,25.8,3.9,25.8z
				"/>
			<path fill="#CDD6E0" d="M3.2,18.3H1.7v-1c0-1.2,1-2.2,2.2-2.2h3.6v1.5H3.9c-0.4,0-0.7,0.3-0.7,0.7V18.3z"/>
		</g>
		<g>
			<path fill="#ACB3BA" d="M44.1,25.8H47c0.6,0,1-0.4,1-1v-5.5c0-0.6-0.4-1-1-1h-2.9c-0.6,0-1,0.4-1,1v5.5
				C43.1,25.4,43.6,25.8,44.1,25.8z"/>
			<path fill="#CDD6E0" d="M44.8,18.3h1.5v-1c0-1.2-1-2.2-2.2-2.2h-3.6v1.5h3.6c0.4,0,0.7,0.3,0.7,0.7V18.3z"/>
		</g>
	</g>
	<path fill="#40596B" d="M44.3,43.2H3.7c-1.1,0-2.1-0.9-2.1-2.1v0c0-1.1,0.9-2.1,2.1-2.1h40.6c1.1,0,2.1,0.9,2.1,2.1v0
		C46.3,42.3,45.4,43.2,44.3,43.2z"/>
	<path fill="#F2F2F2" d="M44.2,39.1H3.8V28.7c0-1.1,0.9-2,2-2h36.5c1.1,0,2,0.9,2,2V39.1z"/>
	<path fill="#F2F2F2" d="M42.2,26.7H5.7V15.2c0-2.8,1.9-5.2,4.7-5.9c8.9-2.1,18.3-2.1,27.2,0c2.7,0.6,4.7,3.1,4.7,5.9L42.2,26.7z"/>
	<path fill="#54C0EB" d="M7.7,24.7v-9.6c0-1.9,1.3-3.5,3.1-3.9c4.3-1,8.7-1.5,13.1-1.5c4.4,0,8.8,0.5,13.1,1.5
		c1.8,0.4,3.1,2,3.1,3.9l0,9.6H7.7z"/>
	<g>
		<path fill="#ACB3BA" d="M39.9,48h-2.8c-1.1,0-2-0.9-2-2v-2.8h6.8V46C41.9,47.1,41,48,39.9,48z"/>
		<path fill="#ACB3BA" d="M10.9,48H8.1c-1.1,0-2-0.9-2-2v-2.8h6.8V46C12.9,47.1,12,48,10.9,48z"/>
	</g>
	<circle fill="#FFD15C" cx="10.9" cy="32.9" r="3.6"/>
	<circle fill="#FFD15C" cx="37.1" cy="32.9" r="3.6"/>
	<rect x="16.1" y="29" fill="#CDD6E0" width="15.8" height="7.8"/>
	<rect x="6.1" y="43.2" fill="#90A3AF" width="6.8" height="1.5"/>
	<rect x="35.1" y="43.2" fill="#90A3AF" width="6.8" height="1.5"/>
	<g>
		<path fill="#84DBFF" d="M23.2,9.8l-12.1,15H9.2l12-14.9C21.9,9.8,22.5,9.8,23.2,9.8z"/>
		<path fill="#84DBFF" d="M27.4,9.9l-12,14.9h-3l12.1-15C25.4,9.8,26.4,9.8,27.4,9.9z"/>
	</g>
	<path fill="#F8B64C" d="M10.9,30.3c1.8,0,3.4,1.4,3.6,3.1c0-0.2,0.1-0.3,0.1-0.5c0-2-1.6-3.6-3.6-3.6c-2,0-3.6,1.6-3.6,3.6
		c0,0.2,0,0.3,0.1,0.5C7.6,31.7,9.1,30.3,10.9,30.3z"/>
	<path fill="#F8B64C" d="M37.1,30.3c1.8,0,3.4,1.4,3.6,3.1c0-0.2,0.1-0.3,0.1-0.5c0-2-1.6-3.6-3.6-3.6s-3.6,1.6-3.6,3.6
		c0,0.2,0,0.3,0.1,0.5C33.7,31.7,35.2,30.3,37.1,30.3z"/>
</g>
</svg>
