<?xml version="1.0" encoding="utf-8"?>
<!-- Generator: Adobe Illustrator 18.0.0, SVG Export Plug-In . SVG Version: 6.00 Build 0)  -->
<!DOCTYPE svg PUBLIC "-//W3C//DTD SVG 1.1//EN" "http://www.w3.org/Graphics/SVG/1.1/DTD/svg11.dtd">
<svg version="1.1" id="Layer_1" xmlns="http://www.w3.org/2000/svg" xmlns:xlink="http://www.w3.org/1999/xlink" x="0px" y="0px"
	 viewBox="0 0 48 48" enable-background="new 0 0 48 48" xml:space="preserve">
<g>
	<path fill="#FF7058" d="M42.9,26.3c-0.8,0-1.5-0.7-1.5-1.5v-6.4c0-1.9-1.6-3.5-3.5-3.5h-3.7c-0.8,0-1.5-0.7-1.5-1.5
		s0.7-1.5,1.5-1.5h3.7c3.6,0,6.5,2.9,6.5,6.5v6.4C44.4,25.6,43.7,26.3,42.9,26.3z"/>
	<path fill="#CDD6E0" d="M38.9,46.4H5.3l3.2-8.1c0.3-0.8,1-1.3,1.9-1.3h23.4c0.8,0,1.6,0.5,1.9,1.3L38.9,46.4z"/>
	<rect x="5.3" y="46.4" fill="#ACB3BA" width="33.6" height="1.6"/>
	<path fill="#F2F2F2" d="M32,37H12.3c-1.9,0-3.6-1.4-3.9-3.2C7.1,26.9,7,19.9,8,13.1l-4-4C3.3,8.4,3.8,7.3,4.6,7.3h29.8
		c0.5,0,0.9,0.3,1,0.8c1.9,8.4,2.1,17.2,0.5,25.6C35.5,35.7,33.9,37,32,37z"/>
	<path fill="#84DBFF" d="M12.3,34.5c-0.7,0-1.3-0.5-1.5-1.2c-0.9-4.9-1.2-10-0.9-15h24.4c0.3,5,0,10.1-0.9,15
		c-0.1,0.7-0.8,1.2-1.5,1.2H12.3z"/>
	<path fill="#FFD15C" d="M25.7,1.2L25.7,1.2c-2-1.5-5.2-1.5-7.2,0v0c-2.2,1.7-3.3,3.9-3.4,6.2H29C29,5.1,27.9,2.9,25.7,1.2z"/>
	<path fill="#F8B64C" d="M24,1.2L24,1.2c-1.1-1.5-2.8-1.5-3.9,0v0c-1.2,1.7-1.8,3.9-1.8,6.2h7.5C25.8,5.1,25.2,2.9,24,1.2z"/>
	<path fill="#CDD6E0" d="M31.7,5.9H12.5c-0.8,0-1.5,0.7-1.5,1.5l0,0h22.1l0,0C33.2,6.5,32.5,5.9,31.7,5.9z"/>
	<g>
		<rect x="29.6" y="11.5" fill="#FFFFFF" width="1.7" height="0.4"/>
		<rect x="29.6" y="15.7" fill="#FFFFFF" width="1.7" height="0.4"/>
		<rect x="29.6" y="19.9" fill="#FFFFFF" width="1.7" height="0.4"/>
		<rect x="29.6" y="24.1" fill="#FFFFFF" width="1.7" height="0.4"/>
		<rect x="29.6" y="28.3" fill="#FFFFFF" width="1.7" height="0.4"/>
		<rect x="29.6" y="32.5" fill="#FFFFFF" width="1.7" height="0.4"/>
	</g>
	<circle fill="#ACB3BA" cx="16" cy="41.7" r="2.2"/>
	<circle fill="#ACB3BA" cx="28.1" cy="41.7" r="2.2"/>
</g>
</svg>
