<?xml version="1.0" encoding="utf-8"?>
<!-- Generator: Adobe Illustrator 18.0.0, SVG Export Plug-In . SVG Version: 6.00 Build 0)  -->
<!DOCTYPE svg PUBLIC "-//W3C//DTD SVG 1.1//EN" "http://www.w3.org/Graphics/SVG/1.1/DTD/svg11.dtd">
<svg version="1.1" id="Layer_1" xmlns="http://www.w3.org/2000/svg" xmlns:xlink="http://www.w3.org/1999/xlink" x="0px" y="0px"
	 viewBox="0 0 48 48" enable-background="new 0 0 48 48" xml:space="preserve">
<g>
	<g>
		<g>
			<g>
				<g>
					<path fill="#F3705A" d="M48,33.2c0,2.6-1.1,5.1-3,7V48l-8.7-3.8c-0.6,0.1-1.2,0.1-1.9,0.1c-7.5,0-13.5-5-13.5-11.1
						s6-11.1,13.5-11.1C41.9,22.1,48,27.1,48,33.2z"/>
				</g>
				<g>
					<path fill="#F05540" d="M36.6,22.3c-2.8,5.3-8.6,9.2-15.6,10c0.6-5.7,6.4-10.1,13.5-10.1C35.2,22.1,35.9,22.2,36.6,22.3z"/>
				</g>
				<g>
					<circle fill="#FFFFFF" cx="26.9" cy="33.2" r="2.1"/>
					<circle fill="#FFFFFF" cx="34.5" cy="33.2" r="2.1"/>
					<circle fill="#FFFFFF" cx="42" cy="33.2" r="2.1"/>
				</g>
			</g>
		</g>
		<g>
			<path fill="#8AD7F8" d="M36.3,15.2c0,8.4-8.1,15.2-18.2,15.2c-0.5,0-1.1,0-1.6-0.1L5.3,36.6V26C2,23.2,0,19.4,0,15.2
				C0,6.8,8.1,0,18.2,0S36.3,6.8,36.3,15.2z"/>
		</g>
		<g>
			<g>
				<rect x="19" y="9.2" fill="#FFFFFF" width="10.2" height="2.4"/>
				<rect x="19" y="14.2" fill="#FFFFFF" width="10.2" height="2.4"/>
				<rect x="19" y="19.1" fill="#FFFFFF" width="10.2" height="2.4"/>
			</g>
			<g>
				<g>
					<circle fill="#FFFFFF" cx="11.4" cy="11.7" r="2.7"/>
				</g>
				<g>
					<path fill="#FFFFFF" d="M17.2,21.5c0-3.2-2.6-5.7-5.8-5.7c-3.2,0-5.7,2.5-5.8,5.7H17.2z"/>
				</g>
			</g>
		</g>
	</g>
</g>
</svg>
