<?xml version="1.0" encoding="utf-8"?>
<!-- Generator: Adobe Illustrator 18.0.0, SVG Export Plug-In . SVG Version: 6.00 Build 0)  -->
<!DOCTYPE svg PUBLIC "-//W3C//DTD SVG 1.1//EN" "http://www.w3.org/Graphics/SVG/1.1/DTD/svg11.dtd">
<svg version="1.1" id="Layer_1" xmlns="http://www.w3.org/2000/svg" xmlns:xlink="http://www.w3.org/1999/xlink" x="0px" y="0px"
	 viewBox="0 0 48 48" enable-background="new 0 0 48 48" xml:space="preserve">
<g>
	<g>
		<g>
			<g>
				<g>
					<path fill="#415A6B" d="M33.9,47.6L33.9,47.6c-0.7,0.6-1.8,0.6-2.5-0.1l-6.1-6.9v4.7c0,1-0.8,1.8-1.8,1.8h0
						c-1,0-1.8-0.8-1.8-1.8v-4.7l-6.1,6.9c-0.6,0.7-1.8,0.8-2.5,0.2l0,0c-0.7-0.6-0.8-1.8-0.2-2.5l8.7-9.8v-6.1c0-1,0.8-1.8,1.8-1.8
						h0c1,0,1.8,0.8,1.8,1.8v6.1l8.7,9.8C34.7,45.8,34.6,46.9,33.9,47.6z"/>
				</g>
			</g>
		</g>
		<g>
			<path fill="#F3F3F3" d="M45,0H3C1.3,0,0,1.3,0,3v27.3c0,1.7,1.3,3,3,3h42c1.7,0,3-1.3,3-3V3C48,1.3,46.7,0,45,0z"/>
		</g>
		<g>
			<g>
				<path fill="#F3705A" d="M24.4,29.6c-7.2,0-13.1-5.9-13.1-13.1S17.2,3.5,24.4,3.5s13.1,5.9,13.1,13.1S31.6,29.6,24.4,29.6z"/>
				<path fill="#FFFFFF" d="M24.4,26c-5.2,0-9.4-4.2-9.4-9.4s4.2-9.4,9.4-9.4s9.4,4.2,9.4,9.4S29.6,26,24.4,26z"/>
				<path fill="#F3705A" d="M24.4,22.4c-3.2,0-5.8-2.6-5.8-5.8s2.6-5.8,5.8-5.8s5.8,2.6,5.8,5.8S27.6,22.4,24.4,22.4z"/>
				<circle fill="#FFFFFF" cx="24.4" cy="16.6" r="2.2"/>
			</g>
			<g>
				<g>
					<path fill="#344A5E" d="M39.6,1.3L39.6,1.3c-0.3-0.3-0.8-0.3-1.2,0L23.8,16c-0.3,0.3-0.3,0.8,0,1.2l0,0c0.3,0.3,0.8,0.3,1.2,0
						L39.6,2.5C40,2.2,40,1.6,39.6,1.3z"/>
				</g>
				<g>
					<polygon fill="#66C6B9" points="38,2.9 41,3.8 37.2,7.6 34.2,6.7 33.3,3.8 37.1,0 					"/>
				</g>
			</g>
		</g>
	</g>
</g>
</svg>
