<?xml version="1.0" encoding="utf-8"?>
<!-- Generator: Adobe Illustrator 19.0.1, SVG Export Plug-In . SVG Version: 6.00 Build 0)  -->
<svg version="1.1" id="Layer_1" xmlns="http://www.w3.org/2000/svg" xmlns:xlink="http://www.w3.org/1999/xlink" x="0px" y="0px"
	 viewBox="0 0 48 48" style="enable-background:new 0 0 48 48;" xml:space="preserve">
<style type="text/css">
	.st0{fill:#415A6B;}
	.st1{fill:#ADB3BA;}
	.st2{fill:#E8EAE9;}
	.st3{fill:#55C0EB;}
	.st4{fill:#F3705A;}
	.st5{fill:#FFFFFF;}
	.st6{fill:#FFD15C;}
	.st7{fill:#344A5E;}
	.st8{fill:#CED6E0;}
	.st9{fill:#F05540;}
	.st10{fill:#F7B64C;}
	.st11{fill:#F3F3F3;}
	.st12{fill:#66C6B9;}
	.st13{fill:#4ABAA5;}
	.st14{fill:#8AD7F8;}
	.st15{fill:none;}
	.st16{fill:#E53D35;}
</style>
<g>
	<g>
		<g>
			<g>
				<g>
					<rect x="18.1" y="40.4" class="st0" width="10.7" height="2.5"/>
				</g>
				<g>
					<path class="st0" d="M6.2,25.4h7.5v-2.5H4.9c-0.7,0-1.3,0.6-1.3,1.3V30H2.2l2.7,3.3L7.6,30H6.2V25.4z"/>
					<path class="st0" d="M43.9,12.2V6.4c0-0.7-0.6-1.3-1.3-1.3h-10v2.5h8.8v4.6h-1.5l2.7,3.3l2.7-3.3H43.9z"/>
				</g>
			</g>
		</g>
		<g>
			<path class="st14" d="M19.5,37.2V46c0,1.1-0.9,2-2,2H2c-1.1,0-2-0.9-2-2v-8.8c0-1.1,0.9-2,2-2h15.5
				C18.6,35.2,19.5,36.1,19.5,37.2z"/>
		</g>
		<g>
			<path class="st12" d="M0,10.8V2c0-1.1,0.9-2,2-2h31.5c1.1,0,2,0.9,2,2v8.8c0,1.1-0.9,2-2,2H2C0.9,12.8,0,11.9,0,10.8z"/>
		</g>
		<g>
			<path class="st6" d="M48,19.6v8.8c0,1.1-0.9,2-2,2H12.7c-1.1,0-2-0.9-2-2v-8.8c0-1.1,0.9-2,2-2H46C47.1,17.6,48,18.5,48,19.6z"/>
		</g>
		<g>
			<path class="st4" d="M48,37.2V46c0,1.1-0.9,2-2,2H29.6c-1.1,0-2-0.9-2-2v-8.8c0-1.1,0.9-2,2-2H46C47.1,35.2,48,36.1,48,37.2z"/>
		</g>
		<g>
			<g>
				<rect x="2.7" y="2.5" class="st5" width="30.1" height="1.5"/>
			</g>
			<g>
				<rect x="2.7" y="5.7" class="st5" width="30.1" height="1.5"/>
			</g>
			<g>
				<rect x="2.7" y="8.8" class="st5" width="16.8" height="1.5"/>
			</g>
		</g>
		<g>
			<g>
				<rect x="13.4" y="20.1" class="st5" width="31.9" height="1.5"/>
			</g>
			<g>
				<rect x="13.4" y="23.3" class="st5" width="31.9" height="1.5"/>
			</g>
			<g>
				<rect x="13.4" y="26.4" class="st5" width="17.8" height="1.5"/>
			</g>
		</g>
		<g>
			<g>
				<rect x="30" y="37.7" class="st5" width="15.5" height="1.5"/>
			</g>
			<g>
				<rect x="30" y="40.9" class="st5" width="15.5" height="1.5"/>
			</g>
			<g>
				<rect x="30" y="44" class="st5" width="8.7" height="1.5"/>
			</g>
		</g>
		<g>
			<g>
				<rect x="2" y="37.7" class="st5" width="15.5" height="1.5"/>
			</g>
			<g>
				<rect x="2" y="40.9" class="st5" width="15.5" height="1.5"/>
			</g>
			<g>
				<rect x="2" y="44" class="st5" width="8.7" height="1.5"/>
			</g>
		</g>
	</g>
</g>
</svg>
