<?xml version="1.0" encoding="utf-8"?>
<!-- Generator: Adobe Illustrator 18.0.0, SVG Export Plug-In . SVG Version: 6.00 Build 0)  -->
<!DOCTYPE svg PUBLIC "-//W3C//DTD SVG 1.1//EN" "http://www.w3.org/Graphics/SVG/1.1/DTD/svg11.dtd">
<svg version="1.1" id="Layer_1" xmlns="http://www.w3.org/2000/svg" xmlns:xlink="http://www.w3.org/1999/xlink" x="0px" y="0px"
	 viewBox="0 0 48 48" enable-background="new 0 0 48 48" xml:space="preserve">
<g>
	<path fill="#40596B" d="M46.9,9.8c-0.9-0.9-2.1-1.2-3.3-1c0.2-1.2-0.1-2.4-1-3.3c-0.9-0.9-2.1-1.2-3.3-1c0.2-1.2-0.1-2.4-1-3.3
		c-1.5-1.5-3.8-1.5-5.3,0c-3.1,3.1-0.1,13.1-0.1,13.1l0.9,0.9c0,0,10.1,3,13.1-0.1C48.4,13.6,48.4,11.2,46.9,9.8z"/>
	<path fill="#40596B" d="M1.1,38.2c0.9,0.9,2.1,1.2,3.3,1c-0.2,1.2,0.1,2.4,1,3.3c0.9,0.9,2.1,1.2,3.3,1c-0.2,1.2,0.1,2.4,1,3.3
		c1.5,1.5,3.8,1.5,5.3,0c3.1-3.1,0.1-13.1,0.1-13.1l-0.9-0.9c0,0-10.1-3-13.1,0.1C-0.4,34.4-0.4,36.8,1.1,38.2z"/>
	<path opacity="0.1" fill="#231F20" d="M6.2,31.6c3.8,0,8,1.3,8,1.3l0.9,0.9c0,0,1.3,4.2,1.3,8c-2.5-0.6-4.8-1.8-6.7-3.6
		C8,36.4,6.8,34.1,6.2,31.6z"/>
	<path opacity="0.1" fill="#231F20" d="M38.2,9.8c1.8,1.8,3,4.1,3.6,6.7c-3.8,0-8-1.3-8-1.3l-0.9-0.9c0,0-1.3-4.2-1.3-8
		C34.1,6.8,36.4,8,38.2,9.8z"/>
	<ellipse transform="matrix(0.7071 0.7071 -0.7071 0.7071 23.9999 -9.9411)" fill="#F2F2F2" cx="24" cy="24" rx="14.5" ry="18.4"/>
	<g>
		<path fill="#CDD6E0" d="M14.3,13.2l0,26.1c-1.1-0.5-2.2-1.2-3.1-2.1l0-20.4c0.7-1.1,1.6-2.1,2.6-3.1
			C13.9,13.6,14.1,13.4,14.3,13.2z"/>
		<path fill="#CDD6E0" d="M21.8,8.5l0,32c-1.1,0.1-2.1,0.1-3.1,0V9.9C19.7,9.4,20.7,8.9,21.8,8.5z"/>
		<path fill="#CDD6E0" d="M29.3,7.5l0,30.6c-1,0.6-2,1-3.1,1.4v-32C27.3,7.4,28.3,7.4,29.3,7.5z"/>
		<path fill="#CDD6E0" d="M36.8,10.8v20.5c-0.8,1.1-1.6,2.1-2.6,3c-0.2,0.2-0.3,0.3-0.5,0.5V8.7C34.9,9.2,35.9,9.9,36.8,10.8z"/>
	</g>
	<path fill="#F2F2F2" d="M30.2,30.2c-5.4,5.4-12.3,5.9-15.3,2.8s-2.6-9.9,2.8-15.3s12.3-5.9,15.3-2.8S35.7,24.8,30.2,30.2z"/>
	<path fill="#54C0EB" d="M28.5,28.5c-4.2,4.2-9.7,5-11.8,2.8s-1.4-7.6,2.8-11.8s9.7-5,11.8-2.8S32.7,24.3,28.5,28.5z"/>
</g>
</svg>
