<?xml version="1.0" encoding="utf-8"?>
<!-- Generator: Adobe Illustrator 18.0.0, SVG Export Plug-In . SVG Version: 6.00 Build 0)  -->
<!DOCTYPE svg PUBLIC "-//W3C//DTD SVG 1.1//EN" "http://www.w3.org/Graphics/SVG/1.1/DTD/svg11.dtd">
<svg version="1.1" id="Layer_1" xmlns="http://www.w3.org/2000/svg" xmlns:xlink="http://www.w3.org/1999/xlink" x="0px" y="0px"
	 viewBox="0 0 48 48" enable-background="new 0 0 48 48" xml:space="preserve">
<g>
	<g>
		<path fill="#415A6B" d="M40.7,0H7.3c-1.7,0-3,1.3-3,3v42c0,1.7,1.3,3,3,3h33.3c1.7,0,3-1.3,3-3V3C43.7,1.3,42.3,0,40.7,0z"/>
		<rect x="8.3" y="5.4" fill="#FFFFFF" width="31.3" height="33.7"/>
		<circle fill="#344A5E" cx="24" cy="43.6" r="2.2"/>
		<g>
			<g>
				<g>
					<rect x="12.3" y="28.3" fill="#F3705A" width="2.9" height="6.8"/>
				</g>
				<g>
					<rect x="17.4" y="23.5" fill="#FFD15C" width="2.9" height="11.6"/>
				</g>
				<g>
					<rect x="22.5" y="30.6" fill="#66C6B9" width="2.9" height="4.5"/>
				</g>
				<g>
					<rect x="27.7" y="23.2" fill="#415A6B" width="2.9" height="11.9"/>
				</g>
				<g>
					<rect x="32.8" y="18.2" fill="#CED6E0" width="2.9" height="16.9"/>
				</g>
			</g>
			<path fill="#F3705A" d="M31.2,12.8l1.1,1.1L24,22.1l-4.4-4.4c-0.4-0.4-1-0.4-1.4,0l-6.6,6.6l1.4,1.4l5.8-5.8l4.4,4.4
				c0.4,0.4,1,0.4,1.4,0l8.9-8.9l1.1,1.1l1.3-4.8L31.2,12.8z"/>
		</g>
	</g>
</g>
</svg>
