<?xml version="1.0" encoding="utf-8"?>
<!-- Generator: Adobe Illustrator 18.0.0, SVG Export Plug-In . SVG Version: 6.00 Build 0)  -->
<!DOCTYPE svg PUBLIC "-//W3C//DTD SVG 1.1//EN" "http://www.w3.org/Graphics/SVG/1.1/DTD/svg11.dtd">
<svg version="1.1" id="Layer_1" xmlns="http://www.w3.org/2000/svg" xmlns:xlink="http://www.w3.org/1999/xlink" x="0px" y="0px"
	 viewBox="0 0 48 48" enable-background="new 0 0 48 48" xml:space="preserve">
<g>
	<rect x="4.9" y="23.9" fill="#FFD15C" width="11.6" height="2.5"/>
	<g>
		<g>
			<path fill="#E8EAEA" d="M3.8,28.5c-0.7,0-1.3-0.7-1.2-1.4l0,0c1.2-8.4-2.4-16.6-2.4-16.7l0,0c-0.3-0.6,0-1.3,0.6-1.6l0,0
				c0.6-0.3,1.3,0,1.6,0.6l0,0c0.2,0.3,3.5,8,2.8,16.6l11.5,0c0.7,0,1.2,0.6,1.2,1.2v0c0,0.7-0.6,1.2-1.2,1.2L3.8,28.5z"/>
		</g>
	</g>
	<g>
		<g>
			<g>
				<path fill="#E8EAEA" d="M3.4,39.3L3.4,39.3c-0.7-0.2-1-0.9-0.8-1.5l3.3-10.8c0.2-0.7,0.9-1,1.5-0.8l0,0c0.7,0.2,1,0.9,0.8,1.5
					L4.9,38.4C4.7,39.1,4.1,39.5,3.4,39.3z"/>
			</g>
		</g>
		<g>
			<g>
				<path fill="#E8EAEA" d="M15.5,38.4l-3.3-10.8C12,27,12.4,26.3,13,26.1l0,0c0.7-0.2,1.3,0.2,1.5,0.8l3.3,10.8
					c0.2,0.7-0.2,1.3-0.8,1.5l0,0C16.4,39.5,15.7,39.1,15.5,38.4z"/>
			</g>
		</g>
	</g>
	<g>
		<g>
			<rect x="4.4" y="32.2" fill="#E8EAEA" width="11.7" height="2.1"/>
		</g>
	</g>
	<rect x="22.9" y="19.5" fill="#40596B" width="3" height="19.8"/>
	<rect x="40.9" y="19.5" fill="#40596B" width="3" height="19.8"/>
	<path fill="#E8EAEA" d="M46.4,17.8H20.4c-0.9,0-1.6,0.7-1.6,1.6c0,0.9,0.7,1.6,1.6,1.6h25.9c0.9,0,1.6-0.7,1.6-1.6
		C48,18.6,47.3,17.8,46.4,17.8z"/>
	<polygon fill="#4CDBC4" points="30.8,27.3 24.2,17.8 44.3,17.8 	"/>
	<polygon fill="#F2F2F2" points="41.7,17.8 40,17.8 31.4,23.9 27.1,17.8 25.9,17.8 31.2,25.3 	"/>
</g>
</svg>
