<?xml version="1.0" encoding="utf-8"?>
<!-- Generator: Adobe Illustrator 16.0.0, SVG Export Plug-In . SVG Version: 6.00 Build 0)  -->
<!DOCTYPE svg PUBLIC "-//W3C//DTD SVG 1.1//EN" "http://www.w3.org/Graphics/SVG/1.1/DTD/svg11.dtd">
<svg version="1.1" id="Layer_1" xmlns="http://www.w3.org/2000/svg" xmlns:xlink="http://www.w3.org/1999/xlink" x="0px" y="0px"
	 width="48px" height="48px" viewBox="0 0 48 48" enable-background="new 0 0 48 48" xml:space="preserve">
<g>
	<path fill="#FFD15C" d="M10.381,17.106c0.385,1.892-0.838,3.736-2.729,4.121c-1.891,0.383-3.736-0.838-4.119-2.729
		c-0.385-1.893,0.836-3.736,2.727-4.12C8.152,13.994,9.996,15.215,10.381,17.106"/>
	<path fill="#FFD15C" d="M35.938,11.366c0.75,3.694-1.637,7.297-5.33,8.047c-3.693,0.752-7.297-1.635-8.049-5.328
		c-0.75-3.694,1.637-7.297,5.33-8.047C31.582,5.286,35.186,7.672,35.938,11.366"/>
	<path fill="#FFD15C" d="M17.984,13.031c0.656,3.233-1.432,6.388-4.664,7.044c-3.234,0.657-6.389-1.432-7.045-4.665
		s1.432-6.388,4.666-7.044C14.174,7.709,17.328,9.797,17.984,13.031"/>
	<path fill="#FFD15C" d="M26.246,7.275c0.811,3.989-1.766,7.881-5.756,8.69c-3.988,0.812-7.881-1.766-8.691-5.754
		c-0.811-3.99,1.766-7.881,5.756-8.693C21.545,0.709,25.436,3.286,26.246,7.275"/>
	<polygon fill="#54BFEB" points="39.572,12.958 1.748,20.643 14.861,36.141 39.289,31.178 	"/>
	<path fill="#89D6F7" d="M39.92,14.669L2.096,22.356c-0.945,0.191-1.869-0.42-2.061-1.364c-0.191-0.945,0.42-1.868,1.365-2.06
		l37.824-7.687c0.945-0.192,1.867,0.419,2.061,1.364C41.477,13.555,40.867,14.477,39.92,14.669"/>
	<path fill="#40596B" d="M21.953,37.725c0.816,4.02-1.779,7.938-5.799,8.756c-4.02,0.816-7.938-1.779-8.756-5.799
		c-0.816-4.019,1.779-7.938,5.799-8.754C17.217,31.109,21.135,33.706,21.953,37.725"/>
	<path fill="#334A5E" d="M18.164,38.494c0.391,1.928-0.854,3.807-2.779,4.197c-1.926,0.393-3.807-0.853-4.197-2.779
		c-0.391-1.926,0.854-3.805,2.779-4.197C15.893,35.324,17.773,36.568,18.164,38.494"/>
	<path fill="#CDD5DF" d="M47.732,4.564c-0.5-0.767-1.527-0.985-2.295-0.485L39.846,7.72c-0.453,0.294-0.734,0.791-0.752,1.331
		l-0.699,20.271l-15.717,3.193c-0.188,0.038-0.369,0.107-0.531,0.208l-8.256,5.017c-0.707,0.428-1.066,1.309-0.758,2.074
		c0.396,0.975,1.543,1.329,2.404,0.807l8.082-4.912l16.719-3.397c0.752-0.153,1.299-0.801,1.326-1.567l0.715-20.716l4.867-3.168
		C48.014,6.36,48.232,5.333,47.732,4.564"/>
	<path fill="#CDD5DF" d="M38.195,31.56l-0.732,4.987l-7.66-4.92c-0.773-0.493-1.797-0.271-2.293,0.498
		c-0.496,0.771-0.271,1.797,0.498,2.293l9.824,6.309c0.367,0.236,0.809,0.314,1.227,0.23c0.123-0.024,0.242-0.063,0.357-0.115
		c0.512-0.233,0.871-0.711,0.955-1.268l1.281-8.717L38.195,31.56z"/>
</g>
</svg>
