<?xml version="1.0" encoding="utf-8"?>
<!-- Generator: Adobe Illustrator 16.0.0, SVG Export Plug-In . SVG Version: 6.00 Build 0)  -->
<!DOCTYPE svg PUBLIC "-//W3C//DTD SVG 1.1//EN" "http://www.w3.org/Graphics/SVG/1.1/DTD/svg11.dtd">
<svg version="1.1" id="Layer_1" xmlns="http://www.w3.org/2000/svg" xmlns:xlink="http://www.w3.org/1999/xlink" x="0px" y="0px"
	 width="48px" height="48px" viewBox="0 0 48 48" enable-background="new 0 0 48 48" xml:space="preserve">
<g>
	<path fill="#40596B" d="M36.4,18.289c0,10.079-5.555,18.25-12.404,18.25c-6.852,0-12.404-8.172-12.404-18.25
		c0-10.079,5.553-18.25,12.404-18.25C30.846,0.039,36.4,8.209,36.4,18.289"/>
	<path fill="#F2F2F2" d="M46.455,47.99H1.545l1.109-6.51c0.66-3.82,2.91-7.011,6-8.951c0.9-0.569,1.871-1.029,2.891-1.359
		c1.299-0.43,2.689-0.66,4.119-0.66h16.66c1.43,0,2.82,0.23,4.121,0.66c1.02,0.33,1.99,0.79,2.889,1.359
		c3.09,1.94,5.34,5.131,6,8.951L46.455,47.99z"/>
	<rect x="23.531" y="34.732" fill="#FFD15C" width="0.004" height="0.005"/>
	<path fill="#40596B" d="M33.557,17.778c0,0,1.488-5.371-7.58-9.334c0,0-4.402,6.692-10.039,7.133c0,0,0.969-0.529,1.234-0.969
		c0,0-1.324,1.028-3.613-1.262c0,0-0.059,1.357-0.076,3.066c-0.02,1.948,0.291,3.891,0.924,5.732l0.916,2.678
		c0,0-4.711-3.646-3.656-12.821c0.359-3.137,1.658-6.142,3.889-8.377c2.285-2.289,5.898-4.336,11.213-3.369
		c0,0,8.543,1.497,8.365,12.944C35.133,13.199,35.176,16.077,33.557,17.778"/>
	<path fill="#F8B64C" d="M15.146,18.129c0.389,1.672,0.184,3.15-0.461,3.3s-1.482-1.084-1.873-2.756
		c-0.391-1.672-0.184-3.149,0.461-3.3C13.916,15.224,14.756,16.458,15.146,18.129"/>
	<path fill="#F8B64C" d="M31.908,18.129c-0.391,1.672-0.186,3.15,0.459,3.3s1.369-1.114,1.873-2.756
		c0.301-0.979,0.162-2.982-0.459-3.3C33.191,15.073,32.297,16.458,31.908,18.129"/>
	<path fill="#4CDBC4" d="M39.334,38.71v-6.181c-0.898-0.569-1.869-1.029-2.889-1.359v7.98c-8.26,1.162-16.641,1.162-24.9,0v-7.98
		c-1.02,0.33-1.99,0.79-2.891,1.359v6.181c-0.42,2.39-0.83,6.58-1.25,9.28h33.18C40.164,45.29,39.754,41.1,39.334,38.71"/>
	<path fill="#CDD6E0" d="M27.037,24.822c-1.393,0-2.639,0.625-3.477,1.608c-0.84-0.983-2.084-1.608-3.479-1.608
		c-2.523,0-4.57,6.521-4.57,9.047c0,2.524,2.047,4.571,4.57,4.571c1.395,0,2.639-0.626,3.479-1.608
		c0.838,0.982,2.084,1.608,3.477,1.608c2.525,0,4.572-2.047,4.572-4.571C31.609,31.344,29.563,24.822,27.037,24.822"/>
	<path fill="#F8B64C" d="M30.15,27.643v0.338c0,2.83-1.701,5.484-4.389,6.377c-0.207,0.068-0.422,0.129-0.645,0.182h-0.02
		c-0.479,0.117-1.008,0.191-1.564,0.201c-0.236-0.004-0.467-0.02-0.688-0.043c-3.424-0.367-5.922-3.44-5.922-6.885v-0.138
		c0.846,0.658,1.803,1.194,2.84,1.522c0.15,0.054,0.299,0.096,0.449,0.139c0.787,0.232,1.604,0.35,2.463,0.35h1.713
		C26.543,29.686,28.525,28.895,30.15,27.643"/>
	<g opacity="0.1">
		<g>
			<defs>
				<rect id="SVGID_89_" x="20.213" y="27.642" width="9.939" height="6.899"/>
			</defs>
			<clipPath id="SVGID_2_">
				<use xlink:href="#SVGID_89_"  overflow="visible"/>
			</clipPath>
			<path clip-path="url(#SVGID_2_)" fill="#40596B" d="M30.15,27.643v0.334c0,2.836-1.709,5.498-4.402,6.385
				c-0.207,0.068-0.42,0.129-0.643,0.18c-0.002-0.001-0.006-0.001-0.008-0.002l-4.885-5.203c0.787,0.232,1.604,0.35,2.463,0.35
				h1.713C26.543,29.686,28.525,28.895,30.15,27.643"/>
		</g>
	</g>
	<path fill="#FFD15C" d="M25.977,8.444c0,0-4.402,6.692-10.039,7.132c0,0,0.969-0.528,1.234-0.968c0,0-1.322,1.025-3.607-1.256
		c-0.004,0.026-0.006,0.053-0.01,0.078c-0.012,0.312-0.059,1.514-0.072,2.982c-0.01,0.854,0.059,1.704,0.176,2.548
		c0.055,0.345,0.109,0.69,0.18,1.035c0,0,0,0.001,0.002,0.002c0.082,0.405,0.184,0.808,0.289,1.209
		c0.088,0.313,0.17,0.629,0.277,0.938L15,23.885c1.807,4.613,4.947,8.35,8.525,8.35c5.391,0,9.785-8.457,10.113-15.64
		C33.535,14.79,32.426,11.261,25.977,8.444"/>
</g>
</svg>
