<?xml version="1.0" encoding="utf-8"?>
<!-- Generator: Adobe Illustrator 18.0.0, SVG Export Plug-In . SVG Version: 6.00 Build 0)  -->
<!DOCTYPE svg PUBLIC "-//W3C//DTD SVG 1.1//EN" "http://www.w3.org/Graphics/SVG/1.1/DTD/svg11.dtd">
<svg version="1.1" id="Layer_1" xmlns="http://www.w3.org/2000/svg" xmlns:xlink="http://www.w3.org/1999/xlink" x="0px" y="0px"
	 viewBox="0 0 48 48" enable-background="new 0 0 48 48" xml:space="preserve">
<g>
	<rect y="45.1" fill="#ACB3BA" width="48" height="2.9"/>
	<path fill="#F2F2F2" d="M33.4,48H2V2c0-1.1,0.9-2,2-2h27.4c1.1,0,2,0.9,2,2V48z"/>
	<rect x="11" y="34.3" fill="#40596B" width="13.4" height="13.7"/>
	<rect x="4.5" y="2.5" fill="#54C0EB" width="6.5" height="6.5"/>
	<rect x="24.4" y="2.5" fill="#54C0EB" width="6.5" height="6.5"/>
	<rect x="14.4" y="2.5" fill="#54C0EB" width="6.5" height="6.5"/>
	<rect x="4.5" y="12.4" fill="#54C0EB" width="6.5" height="6.5"/>
	<rect x="24.4" y="12.4" fill="#54C0EB" width="6.5" height="6.5"/>
	<rect x="14.4" y="12.4" fill="#54C0EB" width="6.5" height="6.5"/>
	<rect x="4.5" y="22.4" fill="#54C0EB" width="6.5" height="6.5"/>
	<rect x="24.4" y="22.4" fill="#54C0EB" width="6.5" height="6.5"/>
	<rect x="14.4" y="22.4" fill="#54C0EB" width="6.5" height="6.5"/>
	<g>
		<rect x="33.4" y="14.8" fill="#CDD6E0" width="12.6" height="33.2"/>
		<rect x="36.4" y="18.2" fill="#54C0EB" width="6.5" height="6.5"/>
		<rect x="33.4" y="14.8" opacity="0.15" fill="#231F20" width="1.1" height="33.2"/>
		<rect x="36.4" y="28.1" fill="#54C0EB" width="6.5" height="6.5"/>
		<rect x="36.4" y="38.1" fill="#54C0EB" width="6.5" height="6.5"/>
	</g>
</g>
</svg>
