<?xml version="1.0" encoding="utf-8"?>
<!-- Generator: Adobe Illustrator 18.0.0, SVG Export Plug-In . SVG Version: 6.00 Build 0)  -->
<!DOCTYPE svg PUBLIC "-//W3C//DTD SVG 1.1//EN" "http://www.w3.org/Graphics/SVG/1.1/DTD/svg11.dtd">
<svg version="1.1" id="Layer_1" xmlns="http://www.w3.org/2000/svg" xmlns:xlink="http://www.w3.org/1999/xlink" x="0px" y="0px"
	 viewBox="0 0 512 512" enable-background="new 0 0 512 512" xml:space="preserve">
<g>
	<rect x="2" y="2" fill="#4CDBC4" width="508" height="39.4"/>
	<rect x="24.6" y="41.4" fill="#F2F2F2" width="447.8" height="289.1"/>
	<rect x="2" y="330.5" fill="#4CDBC4" width="508" height="39.4"/>
	<polygon fill="#ACB3BA" points="373,510 279.8,415.6 279.8,415.6 279.8,369.9 232.2,369.9 232.2,415.6 232.2,415.6 139,510 
		192.3,510 232.2,469.6 232.2,510 279.8,510 279.8,469.6 319.7,510 	"/>
	<rect x="24.6" y="41.4" fill="#E2E2E2" width="447.8" height="14.1"/>
	<rect x="232.2" y="369.9" fill="#9AA0A5" width="47.6" height="14.1"/>
	<rect x="114" y="207.2" fill="#84DBFF" width="59.9" height="94.4"/>
	<rect x="218.6" y="150.7" fill="#FF7058" width="59.9" height="150.8"/>
	<rect x="323.1" y="94.3" fill="#FFD15C" width="59.9" height="207.3"/>
</g>
</svg>
