<?xml version="1.0" encoding="utf-8"?>
<!-- Generator: Adobe Illustrator 18.0.0, SVG Export Plug-In . SVG Version: 6.00 Build 0)  -->
<!DOCTYPE svg PUBLIC "-//W3C//DTD SVG 1.1//EN" "http://www.w3.org/Graphics/SVG/1.1/DTD/svg11.dtd">
<svg version="1.1" id="Layer_1" xmlns="http://www.w3.org/2000/svg" xmlns:xlink="http://www.w3.org/1999/xlink" x="0px" y="0px"
	 viewBox="0 0 512 512" enable-background="new 0 0 512 512" xml:space="preserve">
<g>
	<path fill="#40596B" d="M488.8,2H23.2C11.5,2,2,11.5,2,23.2v465.7c0,11.7,9.5,21.2,21.2,21.2h465.7c11.7,0,21.2-9.5,21.2-21.2V23.2
		C510,11.5,500.5,2,488.8,2z"/>
	<rect x="2" y="130.3" fill="#FF7058" width="508" height="251.5"/>
	<circle opacity="0.5" fill="#334A5E" cx="256" cy="266.6" r="166.4"/>
	<rect x="405.6" y="45.7" fill="#FFD15C" width="40.9" height="40.9"/>
	<circle fill="#CDD6E0" cx="256" cy="256" r="166.4"/>
	<path fill="#FFFFFF" d="M256,131.9c-68.4,0-124.1,55.7-124.1,124.1c0,68.4,55.7,124.1,124.1,124.1S380.1,324.4,380.1,256
		C380.1,187.6,324.4,131.9,256,131.9z"/>
	<path fill="#84DBFF" d="M256,174.3c-45.1,0-81.7,36.7-81.7,81.7s36.7,81.7,81.7,81.7s81.7-36.7,81.7-81.7S301.1,174.3,256,174.3z"
		/>
	<path fill="#FFFFFF" d="M203.4,232.5c-16,0-29.1-13-29.1-29.1s13.1-29.1,29.1-29.1s29.1,13.1,29.1,29.1S219.4,232.5,203.4,232.5z"
		/>
</g>
</svg>
