<?xml version="1.0" encoding="utf-8"?>
<!-- Generator: Adobe Illustrator 16.0.0, SVG Export Plug-In . SVG Version: 6.00 Build 0)  -->
<!DOCTYPE svg PUBLIC "-//W3C//DTD SVG 1.1//EN" "http://www.w3.org/Graphics/SVG/1.1/DTD/svg11.dtd">
<svg version="1.1" id="Layer_1" xmlns="http://www.w3.org/2000/svg" xmlns:xlink="http://www.w3.org/1999/xlink" x="0px" y="0px"
	 width="48px" height="48px" viewBox="0 0 48 48" enable-background="new 0 0 48 48" xml:space="preserve">
<g>
	<path fill="#40596B" d="M47.933,39.826l-4.206-23.258c-0.356-1.969-2.07-3.4-4.07-3.4h-4.265V8.05c0-2.618-2.13-4.748-4.748-4.748
		H17.356c-2.618,0-4.748,2.13-4.748,4.748v5.118H8.344c-2,0-3.714,1.432-4.07,3.4L0.067,39.826
		c-0.459,2.537,1.491,4.872,4.069,4.872h39.727C46.441,44.698,48.392,42.363,47.933,39.826 M32.392,13.168H15.608V8.05
		c0-0.965,0.784-1.748,1.748-1.748h13.287c0.964,0,1.748,0.783,1.748,1.748V13.168z"/>
	<path fill="#FFFFFF" d="M12.676,23.01h2.674v4.92l4.526-4.92h3.311l-4.769,5.298c0.412,0.571,1.172,1.638,2.281,3.196
		c1.109,1.562,1.938,2.725,2.487,3.49h-3.121l-3.515-4.731L15.35,31.6v3.395h-2.674V23.01z"/>
	<path fill="#FFFFFF" d="M32.633,28.89h2.692v4.253c-1.188,1.326-2.835,1.988-4.938,1.988c-1.761,0-3.237-0.581-4.432-1.748
		c-1.195-1.166-1.793-2.637-1.793-4.415s0.609-3.261,1.827-4.45c1.217-1.188,2.686-1.783,4.407-1.783
		c1.72,0,3.214,0.567,4.482,1.698l-1.389,2.005c-0.537-0.468-1.031-0.791-1.483-0.968c-0.45-0.177-0.939-0.265-1.466-0.265
		c-1.018,0-1.874,0.344-2.572,1.037c-0.696,0.691-1.046,1.603-1.046,2.734c0,1.131,0.334,2.037,1.003,2.719
		c0.67,0.678,1.467,1.02,2.393,1.02s1.698-0.178,2.314-0.532V28.89z"/>
</g>
</svg>
