<?xml version="1.0" encoding="utf-8"?>
<!-- Generator: Adobe Illustrator 18.0.0, SVG Export Plug-In . SVG Version: 6.00 Build 0)  -->
<!DOCTYPE svg PUBLIC "-//W3C//DTD SVG 1.1//EN" "http://www.w3.org/Graphics/SVG/1.1/DTD/svg11.dtd">
<svg version="1.1" id="Layer_1" xmlns="http://www.w3.org/2000/svg" xmlns:xlink="http://www.w3.org/1999/xlink" x="0px" y="0px"
	 viewBox="0 0 48 48" enable-background="new 0 0 48 48" xml:space="preserve">
<g>
	<g>
		<g>
			<path fill="#F3F3F3" d="M11.4,0l23.2,0c1.7,0,3,1.3,3,3v42c0,1.7-1.3,3-3,3H3c-1.7,0-3-1.3-3-3l0-33.6L11.4,0z"/>
			<g>
				<polygon fill="#CED6E0" points="11.4,0 11.4,11.4 0,11.4 				"/>
			</g>
		</g>
		<g>
			<rect x="4.9" y="39.6" fill="#CED6E0" width="27.8" height="3.6"/>
			<rect x="4.9" y="30.9" fill="#CED6E0" width="27.8" height="3.6"/>
			<rect x="4.9" y="22.2" fill="#CED6E0" width="27.8" height="3.6"/>
			<rect x="4.9" y="13.5" fill="#CED6E0" width="27.8" height="3.6"/>
			<rect x="20.8" y="4.8" fill="#CED6E0" width="11.8" height="3.6"/>
		</g>
		<g>
			<g>
				<polygon fill="#F05540" points="36,33.5 41.5,48 43.7,43.9 48,45.5 43.4,33.5 				"/>
				<polygon fill="#F3705A" points="33.6,33.5 29,45.5 33.4,43.9 35.5,48 41,33.5 				"/>
			</g>
			<circle fill="#FFD15C" cx="38.5" cy="28.5" r="9.2"/>
			<circle fill="#F7B64C" cx="38.5" cy="28.5" r="6"/>
		</g>
	</g>
</g>
</svg>
