<?xml version="1.0" encoding="utf-8"?>
<!-- Generator: Adobe Illustrator 18.0.0, SVG Export Plug-In . SVG Version: 6.00 Build 0)  -->
<!DOCTYPE svg PUBLIC "-//W3C//DTD SVG 1.1//EN" "http://www.w3.org/Graphics/SVG/1.1/DTD/svg11.dtd">
<svg version="1.1" id="Layer_1" xmlns="http://www.w3.org/2000/svg" xmlns:xlink="http://www.w3.org/1999/xlink" x="0px" y="0px"
	 viewBox="0 0 48 48" enable-background="new 0 0 48 48" xml:space="preserve">
<g>
	<path fill="#F8B64C" d="M43.6,47.9c0.6-3.3-5.3-10.7-5.3-10.7c-0.9-1.1-3.6-6.9-3.6-6.9H13.3c0,0-2.7,5.8-3.6,6.9
		c0,0-5.9,7.4-5.3,10.7H43.6z"/>
	<path fill="#FF7058" d="M30.1,20.1l-6-5.3l-6,5.3c-6.5,5.7-6.5,14.9,0,20.6l6,5.3l6-5.3C36.5,35,36.5,25.8,30.1,20.1z"/>
	<path fill="#F8B64C" d="M44.7,8.1c-2.5-2.7-4.8-5.8-8.2-6.5c-0.5-0.1-1.7,0.1-2.1,0.4c-0.5,0.3-1.8,1.7-1.8,1.7l3,6.9
		c0,0,0.9-0.5,1.2-0.4c2.6,1.5,1.2,6.2,1.1,9.5C37.8,29.3,41,29,41,29s-1.6-2.9,3-6.2s3.8-5.5,3.7-7.1C47.4,11.9,45.7,9.3,44.7,8.1z
		"/>
	<path fill="#F8B64C" d="M3.3,8.1c2.5-2.7,4.8-5.8,8.2-6.5c0.5-0.1,1.7,0.1,2.1,0.4c0.5,0.3,1.8,1.7,1.8,1.7l-3,6.9
		c0,0-0.9-0.5-1.2-0.4c-2.6,1.5-1.2,6.2-1.1,9.5C10.2,29.3,7,29,7,29s1.6-2.9-3-6.2s-3.8-5.5-3.7-7.1C0.6,11.9,2.3,9.3,3.3,8.1z"/>
	<path fill="#FFD15C" d="M36.4,9.7c-0.7-3.4-2.6-5.7-4.7-7.2c-4.5-3.2-10.8-3.2-15.3,0c-2.1,1.5-4,3.8-4.7,7.2
		c-0.8,4.2-1.5,6.7,0,17.1c0,0,0.3,2,1.5,4.3c1.7,3.5,5,5.9,8.7,6.9c0.9,0.2,1.7,0.1,2.2,0.1c0.6,0,1.4,0.1,2.2-0.1
		c3.7-1,7-3.5,8.7-6.9c1.2-2.3,1.5-4.3,1.5-4.3C37.9,16.3,37.2,13.8,36.4,9.7z"/>
	<path fill="#F2F2F2" d="M32.7,29.6c-2.4-4.6-5-19.6-4.1-21.4C28.9,7.6,29,7,28.9,6.3C28.8,5,27.8,4,26.7,3.7
		c-1.1-0.2-2.1,0.2-2.7,1c-0.6-0.8-1.6-1.2-2.7-1C20.2,4,19.2,5,19.1,6.3c-0.1,0.7,0,1.4,0.3,1.9c0.9,1.8-1.7,16.8-4.1,21.4
		c-0.5,1-0.8,2.3-0.6,3.6c0.3,2.3,2,4.3,4.2,4.8c2,0.4,3.9-0.4,5.1-1.9c1.2,1.5,3,2.3,5.1,1.9c2.2-0.5,3.9-2.4,4.2-4.8
		C33.4,31.8,33.2,30.6,32.7,29.6z"/>
	<path fill="#40596B" d="M26.3,25.1h-4.5c-1.8,0-2.9,2-1.9,3.5l2.3,3.3c0.9,1.3,2.8,1.3,3.7,0l2.3-3.3
		C29.1,27.1,28.1,25.1,26.3,25.1z"/>
	<g>
		<g>
			<circle fill="#FF7058" cx="32.6" cy="14.2" r="2.6"/>
			<circle fill="#40596B" cx="32.6" cy="14.2" r="1.6"/>
			<circle fill="#FFFFFF" cx="31.5" cy="13.3" r="0.7"/>
		</g>
		<g>
			<circle fill="#FF7058" cx="15.4" cy="14.2" r="2.6"/>
			<circle fill="#40596B" cx="15.4" cy="14.2" r="1.6"/>
			<circle fill="#FFFFFF" cx="16.5" cy="13.3" r="0.7"/>
		</g>
	</g>
	<path fill="#F8B64C" d="M33.5,9.1c-1.2-1.6-3.7-0.7-3.7,1.3c0.8,1,1.6,0.7,1.6,0.7c1.3-2,3.8,1.3,3.8,1.3
		C34.6,10.8,34,9.8,33.5,9.1z"/>
	<path fill="#F8B64C" d="M14.5,9.1c-0.5,0.7-1.1,1.7-1.7,3.2c0,0,2.5-3.3,3.8-1.3c0,0,0.8,0.4,1.6-0.7C18.2,8.4,15.7,7.6,14.5,9.1z"
		/>
</g>
</svg>
