<?xml version="1.0" encoding="utf-8"?>
<!-- Generator: Adobe Illustrator 18.0.0, SVG Export Plug-In . SVG Version: 6.00 Build 0)  -->
<!DOCTYPE svg PUBLIC "-//W3C//DTD SVG 1.1//EN" "http://www.w3.org/Graphics/SVG/1.1/DTD/svg11.dtd">
<svg version="1.1" id="Layer_1" xmlns="http://www.w3.org/2000/svg" xmlns:xlink="http://www.w3.org/1999/xlink" x="0px" y="0px"
	 viewBox="0 0 48 48" enable-background="new 0 0 48 48" xml:space="preserve">
<g>
	<g>
		<path fill="#F1543F" d="M6.4,35.5c-2.9,0-5.3-2.4-5.3-5.3c0-2.9,2.4-5.3,5.3-5.3c2.9,0,5.3,2.4,5.3,5.3
			C11.7,33.1,9.3,35.5,6.4,35.5z M6.4,27.4c-1.5,0-2.8,1.3-2.8,2.8c0,1.5,1.3,2.8,2.8,2.8c1.5,0,2.8-1.3,2.8-2.8
			C9.2,28.6,8,27.4,6.4,27.4z"/>
	</g>
	<path fill="#CDD6E0" d="M46,15.6H7.8C3.5,15.6,0,12.1,0,7.8v0C0,3.5,3.5,0,7.8,0H46c1.1,0,2,0.9,2,2v11.6
		C48,14.7,47.1,15.6,46,15.6z"/>
	<path fill="#CDD6E0" d="M44.5,46.4H3.5C1.5,46.4,0,44.9,0,43l0,0c0-1.9,1.5-3.5,3.5-3.5h41.1c1.9,0,3.5,1.5,3.5,3.5l0,0
		C48,44.9,46.5,46.4,44.5,46.4z"/>
	<g>
		<rect x="4" y="46.4" fill="#ACB3BA" width="5.1" height="1.6"/>
		<rect x="38.9" y="46.4" fill="#ACB3BA" width="5.1" height="1.6"/>
	</g>
	<path fill="#F2F2F2" d="M44.6,39.5H26c0.8-7.5,0.8-14.9,0.1-22.4c0-0.5-0.1-1-0.1-1.5h18.6c0,0.5-0.1,1-0.2,1.5
		C43.8,24.6,43.8,32,44.6,39.5z"/>
	<rect x="11" y="15.6" fill="#ACB3BA" width="6.9" height="2.3"/>
	<rect x="13.6" y="17.9" fill="#ACB3BA" width="1.7" height="3.6"/>
	<polygon fill="#FF7058" points="20.5,39.5 8.4,39.5 6.4,37.5 6.4,23.7 22.5,23.7 22.5,37.5 	"/>
	<path fill="#E4EAEF" d="M44.6,15.6c0,0.5-0.1,1-0.2,1.5H26.1c0-0.5-0.1-1-0.1-1.5H44.6z"/>
	<circle fill="#40596B" cx="35.3" cy="7.8" r="4.2"/>
	<g>
		<circle fill="#CDD6E0" cx="35.3" cy="35.9" r="1.3"/>
		<circle fill="#CDD6E0" cx="30.9" cy="35.9" r="1.3"/>
		<circle fill="#CDD6E0" cx="39.7" cy="35.9" r="1.3"/>
	</g>
</g>
</svg>
