<?xml version="1.0" encoding="utf-8"?>
<!-- Generator: Adobe Illustrator 18.0.0, SVG Export Plug-In . SVG Version: 6.00 Build 0)  -->
<!DOCTYPE svg PUBLIC "-//W3C//DTD SVG 1.1//EN" "http://www.w3.org/Graphics/SVG/1.1/DTD/svg11.dtd">
<svg version="1.1" id="Layer_1" xmlns="http://www.w3.org/2000/svg" xmlns:xlink="http://www.w3.org/1999/xlink" x="0px" y="0px"
	 viewBox="0 0 48 48" enable-background="new 0 0 48 48" xml:space="preserve">
<g>
	<g>
		<rect x="5" y="0" fill="#F3F3F3" width="0" height="10.2"/>
		<path fill="#F3F3F3" d="M41,0H15.2L5,10.2V46c0,1.1,0.9,2,2,2h34c1.1,0,2-0.9,2-2V2C43,0.9,42.1,0,41,0z"/>
		<polygon fill="#55C0EB" points="15.2,0 5,10.2 15.2,10.2 		"/>
		<g>
			<path fill="#415A6B" d="M37.4,40.9H11.6V14.7c0-0.6-0.4-1-1-1c-0.6,0-1,0.4-1,1v27.2c0,0.6,0.4,1,1,1h26.9c0.6,0,1-0.4,1-1
				C38.4,41.3,38,40.9,37.4,40.9z"/>
			<g>
				<g>
					<g>
						<rect x="14.3" y="33.8" fill="#FFD15C" width="3.9" height="4.3"/>
					</g>
				</g>
				<g>
					<g>
						<rect x="21.1" y="24.3" fill="#F3705A" width="3.9" height="13.8"/>
					</g>
				</g>
				<g>
					<g>
						<rect x="27.8" y="28.6" fill="#415A6B" width="3.9" height="9.5"/>
					</g>
				</g>
				<g>
					<g>
						<rect x="34.6" y="18.2" fill="#4ABAA5" width="3.9" height="20"/>
					</g>
				</g>
			</g>
		</g>
	</g>
</g>
</svg>
