<?xml version="1.0" encoding="utf-8"?>
<!-- Generator: Adobe Illustrator 18.0.0, SVG Export Plug-In . SVG Version: 6.00 Build 0)  -->
<!DOCTYPE svg PUBLIC "-//W3C//DTD SVG 1.1//EN" "http://www.w3.org/Graphics/SVG/1.1/DTD/svg11.dtd">
<svg version="1.1" id="Layer_1" xmlns="http://www.w3.org/2000/svg" xmlns:xlink="http://www.w3.org/1999/xlink" x="0px" y="0px"
	 viewBox="0 0 48 48" enable-background="new 0 0 48 48" xml:space="preserve">
<g>
	<g>
		<g>
			<g>
				<g>
					<path fill="#E8EAE9" d="M46.9,20.5c0,5.7-2.4,10.9-6.1,14.6c-3.5,3.4-6.2,8.1-6.5,12.9H12v-4.1H7.7c-1,0-1.8-0.8-1.8-1.8v-8.5
						H2.3c-0.9,0-1.5-0.9-1.2-1.8L6,20.5C6,14.8,8.3,9.7,12,6c3.7-3.7,8.8-6,14.5-6c5.7,0,10.8,2.3,14.5,6
						C44.6,9.7,46.9,14.8,46.9,20.5z"/>
				</g>
			</g>
		</g>
	</g>
	<g>
		<circle fill="#F3705A" cx="26.5" cy="20.9" r="12.4"/>
	</g>
	<g>
		<g>
			<path fill="#FFFFFF" d="M23.3,25.9l-3.7-3.7c-0.5-0.5-0.5-1.2,0-1.7h0c0.5-0.5,1.2-0.5,1.7,0l2.9,2.9l7.5-7.5
				c0.5-0.5,1.2-0.5,1.7,0l0,0c0.5,0.5,0.5,1.2,0,1.7L25,25.9C24.5,26.3,23.8,26.3,23.3,25.9z"/>
		</g>
	</g>
</g>
</svg>
