<?xml version="1.0" encoding="utf-8"?>
<!-- Generator: Adobe Illustrator 18.0.0, SVG Export Plug-In . SVG Version: 6.00 Build 0)  -->
<!DOCTYPE svg PUBLIC "-//W3C//DTD SVG 1.1//EN" "http://www.w3.org/Graphics/SVG/1.1/DTD/svg11.dtd">
<svg version="1.1" id="Layer_1" xmlns="http://www.w3.org/2000/svg" xmlns:xlink="http://www.w3.org/1999/xlink" x="0px" y="0px"
	 viewBox="0 0 48 48" enable-background="new 0 0 48 48" xml:space="preserve">
<g>
	<g>
		<g>
			<g>
				<g>
					<path fill="#F3F3F3" d="M10.8,0l24.2,0c1.7,0,3,1.3,3,3v42c0,1.7-1.3,3-3,3H2.6c-1.7,0-3-1.3-3-3l0-33.8L10.8,0z"/>
					<line fill="#F3F3F3" x1="10.8" y1="0" x2="10.8" y2="11.2"/>
					<polyline fill="#CED6E0" points="10.8,11.2 -0.4,11.2 10.8,0 					"/>
				</g>
				<g>
					<g>
						<rect x="4.5" y="20.6" fill="#E8EAE9" width="14.9" height="2.3"/>
					</g>
					<g>
						<rect x="4.5" y="14" fill="#E8EAE9" width="28.8" height="2.3"/>
					</g>
					<g>
						<rect x="20.6" y="7.4" fill="#E8EAE9" width="12.6" height="2.3"/>
					</g>
				</g>
			</g>
			<g>
				<path fill="#415A6B" d="M46.3,22.2l-18.1,0c-0.7,0-1.3,0.6-1.3,1.4l0,22.1c0,0.8,0.6,1.4,1.3,1.4l18.1,0c0.7,0,1.3-0.6,1.3-1.4
					l0-22.1C47.6,22.9,47,22.2,46.3,22.2z"/>
				<rect x="29.1" y="24.6" fill="#8AD7F8" width="16.4" height="5.3"/>
				<rect x="35" y="39.3" fill="#F3F3F3" width="4.5" height="5.5"/>
				<rect x="29.1" y="39.3" fill="#F3F3F3" width="4.5" height="5.5"/>
				<rect x="35" y="32.3" fill="#F3F3F3" width="4.5" height="5.5"/>
				<rect x="29.1" y="32.3" fill="#F3F3F3" width="4.5" height="5.5"/>
				<rect x="41" y="32.3" fill="#F3705A" width="4.5" height="12.4"/>
			</g>
			<g>
				<rect x="15.9" y="36.6" fill="#FFD15C" width="3.5" height="6.5"/>
			</g>
			<g>
				<rect x="21.6" y="32.1" fill="#F3705A" width="3.5" height="11"/>
			</g>
		</g>
		<g>
			<g>
				<g>
					<path fill="#FFD15C" d="M21.7,22.9l2.9-6.5c2.4-1.8,6.6,3.9,4.2,5.7L21.7,22.9z"/>
				</g>
				<g>
					<path fill="#66C6B9" d="M25.5,18.1L40.9,6.8l-1.2-1.6L24.6,16.3C25.1,16.8,25.6,17.3,25.5,18.1z"/>
					<path fill="#4EC0AA" d="M40.9,6.8L25.5,18.1c1.3,0.3,1.9,1.1,1.8,2.5L42.7,9.3L40.9,6.8z"/>
					<path fill="#66C6B9" d="M42.7,9.3L27.3,20.6c0.9,0.2,1.2,0.8,1.4,1.4l15.2-11.1L42.7,9.3z"/>
				</g>
				<path fill="#415A6B" d="M23.6,22.7l-2,0.2l0.8-1.8C23.1,21.4,23.6,22,23.6,22.7z"/>
			</g>
			<g>
				<path fill="#F3705A" d="M43.9,10.9l4-2.9c0.6-0.4,0.7-1.2,0.3-1.7l-2.7-3.7C45,2,44.3,1.9,43.7,2.3l-4,2.9L43.9,10.9z"/>
			</g>
			<g>
				<polygon fill="#CED6E0" points="40.9,4.4 39.8,5.2 43.9,10.9 45.1,10.1 				"/>
			</g>
		</g>
		<g>
			<rect x="4.5" y="38.9" fill="#415A6B" width="3.5" height="4.2"/>
		</g>
		<g>
			<rect x="10.2" y="34.1" fill="#8AD7F8" width="3.5" height="9"/>
		</g>
	</g>
</g>
</svg>
