<?xml version="1.0" encoding="utf-8"?>
<!-- Generator: Adobe Illustrator 18.0.0, SVG Export Plug-In . SVG Version: 6.00 Build 0)  -->
<!DOCTYPE svg PUBLIC "-//W3C//DTD SVG 1.1//EN" "http://www.w3.org/Graphics/SVG/1.1/DTD/svg11.dtd">
<svg version="1.1" id="Layer_1" xmlns="http://www.w3.org/2000/svg" xmlns:xlink="http://www.w3.org/1999/xlink" x="0px" y="0px"
	 viewBox="0 0 48 48" enable-background="new 0 0 48 48" xml:space="preserve">
<g>
	<g>
		<path fill="#F3F3F3" d="M45,0H3C1.3,0,0,1.3,0,3v42c0,1.7,1.3,3,3,3h42c1.7,0,3-1.3,3-3V3C48,1.3,46.7,0,45,0z"/>
		<path fill="#F3705A" d="M48,3v8H0V3c0-1.7,1.3-3,3-3h42C46.7,0,48,1.3,48,3z"/>
		<g>
			<circle fill="#FFFFFF" cx="12.4" cy="5.5" r="2.2"/>
		</g>
		<g>
			<circle fill="#FFFFFF" cx="5.8" cy="5.5" r="2.2"/>
		</g>
		<g>
			<g>
				<path fill="#FFFFFF" d="M42.2,3.3c1.2,0,2.2,1,2.2,2.2s-1,2.2-2.2,2.2H19c-1.2,0-2.2-1-2.2-2.2s1-2.2,2.2-2.2H42.2z"/>
			</g>
		</g>
		<g>
			<polygon fill="#FFD15C" points="38.9,25.5 40.2,28.1 43.2,28.6 41.1,30.7 41.6,33.6 38.9,32.2 36.3,33.6 36.8,30.7 34.7,28.6 
				37.6,28.1 			"/>
			<polygon fill="#FFD15C" points="29,25.5 30.3,28.1 33.2,28.6 31.1,30.7 31.6,33.6 29,32.2 26.3,33.6 26.8,30.7 24.7,28.6 
				27.7,28.1 			"/>
			<polygon fill="#FFD15C" points="19,25.5 20.3,28.1 23.3,28.6 21.2,30.7 21.7,33.6 19,32.2 16.4,33.6 16.9,30.7 14.8,28.6 
				17.7,28.1 			"/>
			<polygon fill="#FFD15C" points="9.1,25.5 10.4,28.1 13.3,28.6 11.2,30.7 11.7,33.6 9.1,32.2 6.4,33.6 6.9,30.7 4.8,28.6 
				7.8,28.1 			"/>
		</g>
	</g>
</g>
</svg>
