<?xml version="1.0" encoding="utf-8"?>
<!-- Generator: Adobe Illustrator 18.0.0, SVG Export Plug-In . SVG Version: 6.00 Build 0)  -->
<!DOCTYPE svg PUBLIC "-//W3C//DTD SVG 1.1//EN" "http://www.w3.org/Graphics/SVG/1.1/DTD/svg11.dtd">
<svg version="1.1" id="Layer_1" xmlns="http://www.w3.org/2000/svg" xmlns:xlink="http://www.w3.org/1999/xlink" x="0px" y="0px"
	 viewBox="0 0 48 48" enable-background="new 0 0 48 48" xml:space="preserve">
<g>
	<g>
		<g>
			<g>
				<g>
					<path fill="#F3705A" d="M33.6,14.4c-2.1,0-3.9-1.7-3.9-3.9l0-6.3c0-0.7,1.2-0.7,1.2,0l0,6.3c0,1.5,1.2,2.7,2.7,2.7
						c1.5,0,2.7-1.2,2.7-2.7V2.8c0-0.9-0.7-1.6-1.6-1.6s-1.6,0.7-1.6,1.6h-1.2c0-1.5,1.2-2.8,2.8-2.8s2.8,1.2,2.8,2.8v7.8
						C37.4,12.7,35.7,14.4,33.6,14.4z"/>
				</g>
			</g>
			<g>
				<g>
					<path fill="none" stroke="#415A6B" stroke-width="1.25" stroke-miterlimit="10" d="M34.8,4.1"/>
				</g>
			</g>
		</g>
		<g>
			<g>
				<g>
					<g>
						<path fill="#E8EAE9" d="M41.6,8.4L14.7,2.8c-1.4-0.3-2.7,0.6-3,2L4.5,39.3c-0.3,1.4,0.6,2.7,2,3l26.8,5.6c1.4,0.3,2.7-0.6,3-2
							l7.3-34.6C43.8,10,42.9,8.7,41.6,8.4z"/>
					</g>
				</g>
			</g>
			<g>
				<g>
					<g>
						<path fill="#F3F3F3" d="M37.7,5.1H10.3c-1.4,0-2.5,1.1-2.5,2.5V43c0,1.4,1.1,2.5,2.5,2.5h27.4c1.4,0,2.5-1.1,2.5-2.5V7.7
							C40.2,6.3,39.1,5.1,37.7,5.1z"/>
					</g>
				</g>
			</g>
			<g>
				<g>
					<g>
						<g>
							<g>
								<rect x="11.1" y="25.4" fill="#CED6E0" width="25.7" height="1.6"/>
							</g>
						</g>
					</g>
					<g>
						<g>
							<g>
								<rect x="26.4" y="31.8" fill="#CED6E0" width="10.5" height="1.6"/>
							</g>
						</g>
					</g>
					<g>
						<g>
							<g>
								<rect x="26.4" y="36.2" fill="#CED6E0" width="10.5" height="1.6"/>
							</g>
						</g>
					</g>
					<g>
						<g>
							<g>
								<rect x="26.4" y="40.6" fill="#CED6E0" width="10.5" height="1.6"/>
							</g>
						</g>
					</g>
				</g>
				<g>
					<g>
						<g>
							<path fill="#415A6B" d="M31.2,22.7V20c0-1.1-0.7-2.1-1.7-2.4c-3.5-1.1-7.3-1.1-10.9,0c-1,0.3-1.7,1.3-1.7,2.4v2.8H31.2z"/>
						</g>
					</g>
					<g>
						<g>
							<g>
								<circle fill="#415A6B" cx="24" cy="11.9" r="3.3"/>
							</g>
						</g>
					</g>
				</g>
				<g>
					<g>
						<g>
							<g>
								<path fill="#F3705A" d="M18.3,29.5v6h6C24.3,32.2,21.6,29.5,18.3,29.5z"/>
							</g>
						</g>
					</g>
					<g>
						<g>
							<path fill="#4EC0AA" d="M17.1,30.2c-3.3,0-6,2.7-6,6c0,3.3,2.7,6,6,6c1.7,0,3.2-0.7,4.3-1.8l-4.3-4.3V30.2z"/>
						</g>
					</g>
					<g>
						<g>
							<path fill="#FFD15C" d="M24.3,35.5h-6l4.3,4.3C23.7,38.7,24.3,37.2,24.3,35.5z"/>
						</g>
					</g>
				</g>
			</g>
		</g>
		<g>
			<g>
				<path fill="#F3705A" d="M33.6,11.7c-0.9,0-1.7-0.8-1.7-1.7V2.8h1.2V10c0,0.3,0.2,0.5,0.5,0.5c0.3,0,0.5-0.2,0.5-0.5l0-5.8
					c0-0.7,1.2-0.7,1.2,0l0,5.8C35.2,11,34.5,11.7,33.6,11.7z"/>
			</g>
		</g>
	</g>
</g>
</svg>
