<?xml version="1.0" encoding="utf-8"?>
<!-- Generator: Adobe Illustrator 18.0.0, SVG Export Plug-In . SVG Version: 6.00 Build 0)  -->
<!DOCTYPE svg PUBLIC "-//W3C//DTD SVG 1.1//EN" "http://www.w3.org/Graphics/SVG/1.1/DTD/svg11.dtd">
<svg version="1.1" id="Layer_1" xmlns="http://www.w3.org/2000/svg" xmlns:xlink="http://www.w3.org/1999/xlink" x="0px" y="0px"
	 viewBox="0 0 48 48" enable-background="new 0 0 48 48" xml:space="preserve">
<g>
	<g>
		<g>
			<g>
				<path fill="#F3F3F3" d="M0,45c0,1.7,1.3,3,3,3h32.2c1.7,0,3-1.3,3-3V3c0-1.7-1.3-3-3-3H3C1.3,0,0,1.3,0,3V45z"/>
			</g>
		</g>
		<path fill="#CED6E0" d="M33.1,41.8H6.2V5.7c0-0.6-0.5-1.1-1.1-1.1S4,5.1,4,5.7v37.2C4,43.5,4.5,44,5.1,44h28
			c0.6,0,1.1-0.5,1.1-1.1v0C34.2,42.3,33.7,41.8,33.1,41.8z"/>
		<g>
			<g>
				<g>
					<rect x="8.4" y="32.7" fill="#F3705A" width="3" height="7.3"/>
				</g>
				<rect x="13.5" y="29.2" fill="#8AD7F8" width="3" height="10.8"/>
				<rect x="18.7" y="32.7" fill="#8AD7F8" width="3" height="7.3"/>
				<g>
					<rect x="23.8" y="29.6" fill="#CED6E0" width="3" height="10.4"/>
				</g>
				<rect x="28.9" y="24" fill="#66C6B9" width="3" height="16"/>
				<circle fill="#FFFFFF" cx="28.8" cy="24.4" r="10.7"/>
			</g>
			<g>
				<g>
					<path fill="#E8EAE9" d="M19.8,28.5l-4.1-4.1h-1.5l-4.7,4.7l0.9,0.9l4.6-4.6l3.8,3.8C19.2,29,19.5,28.8,19.8,28.5z"/>
				</g>
			</g>
			<g>
				<circle fill="#415A6B" cx="9.9" cy="29.6" r="1.9"/>
			</g>
			<g>
				<circle fill="#66C6B9" cx="20.2" cy="29.6" r="1.9"/>
			</g>
			<g>
				<circle fill="#F3705A" cx="15" cy="24.7" r="1.9"/>
			</g>
			<g>
				<circle fill="#F3705A" cx="30.4" cy="19.7" r="1.9"/>
			</g>
		</g>
		<g>
			<g>
				<path fill="#CED6E0" d="M27.1,33.7v-4.1h-3.7v3.6C24.6,33.5,25.9,33.7,27.1,33.7z"/>
			</g>
			<g>
				<path fill="#66C6B9" d="M28.5,24.3v10.4c0.2-0.1,0.4-0.1,0.5-0.2c1.2-0.5,2.3-0.6,3.3-0.4v-9.8H28.5z"/>
			</g>
			<g>
				<g>
					<path fill="#E8EAE9" d="M21.4,30l8.5-8.5c-0.6-0.4-1-0.9-1.3-1.4l-8.2,8.2C20.9,28.7,21.2,29.3,21.4,30z"/>
				</g>
			</g>
			<g>
				<path fill="#66C6B9" d="M20.3,31.7c0.1,0.1,0.2,0.1,0.2,0.2c1.1-0.2,2-1.1,2-2.3c0-1.3-1.1-2.4-2.4-2.4c-1,0-1.8,0.6-2.2,1.4
					C18.6,29.8,19.4,30.9,20.3,31.7z"/>
			</g>
			<g>
				<circle fill="#FFD15C" cx="30.4" cy="19.7" r="2.5"/>
			</g>
		</g>
		
			<rect x="36.5" y="31.1" transform="matrix(-0.7071 -0.7071 0.7071 -0.7071 41.2659 84.4889)" fill="#344A5E" width="3.2" height="5.2"/>
		<path fill="#F3705A" d="M37.8,38.4l4.1,4.1c1.4,1.4,3.7,1.4,5.1,0c1.4-1.4,1.4-3.7,0-5.1l-4.1-4.1L37.8,38.4z"/>
		
			<rect x="40.1" y="32.8" transform="matrix(-0.7071 -0.7071 0.7071 -0.7071 43.9713 91.0218)" fill="#F05540" width="1.5" height="7.2"/>
		<path fill="#F3705A" d="M42.9,33.4l-5.1,5.1c-0.5,0.5-1.3,0.5-1.9,0c-0.5-0.5-0.5-1.3,0-1.9l5.1-5.1c0.5-0.5,1.3-0.5,1.9,0
			C43.4,32.1,43.4,32.9,42.9,33.4z"/>
		<g>
			<path fill="#415A6B" d="M37.5,33.1c-4.8,4.8-12.6,4.8-17.4,0s-4.8-12.6,0-17.4s12.6-4.8,17.4,0S42.3,28.3,37.5,33.1z M22.4,18
				c-3.5,3.5-3.5,9.3,0,12.8s9.3,3.5,12.8,0s3.5-9.3,0-12.8S25.9,14.4,22.4,18z"/>
		</g>
	</g>
</g>
</svg>
