<?xml version="1.0" encoding="utf-8"?>
<!-- Generator: Adobe Illustrator 20.1.0, SVG Export Plug-In . SVG Version: 6.00 Build 0)  -->
<!DOCTYPE svg PUBLIC "-//W3C//DTD SVG 1.1//EN" "http://www.w3.org/Graphics/SVG/1.1/DTD/svg11.dtd">
<svg version="1.1" id="Layer_1" xmlns="http://www.w3.org/2000/svg" xmlns:xlink="http://www.w3.org/1999/xlink" x="0px" y="0px"
	 viewBox="0 0 49 49" enable-background="new 0 0 49 49" xml:space="preserve">
<g>
	<path fill="#CDD6E0" d="M33.3,48.5H15.7c-1.8,0-2.7-2.2-1.4-3.4l1.7-1.7l8.5-8.5l10.2,10.2C36,46.3,35.1,48.5,33.3,48.5z"/>
	<path fill="#ACB3BA" d="M33,43.4c-2.6,1.2-5.5,1.9-8.5,1.9c-3,0-5.9-0.7-8.5-1.9l8.5-8.5L33,43.4z"/>
	<path fill="#E2E2E2" d="M7,17.6c-0.9,2.2-1.4,4.6-1.4,7.2c0,10.5,8.5,18.9,18.9,18.9s18.9-8.5,18.9-18.9c0-2.6-0.5-5-1.4-7.2H7z"/>
	<path fill="#FF7058" d="M24.3,0.5c-5.8,0-10.5,4.7-10.5,10.5h21C34.8,5.2,30.1,0.5,24.3,0.5z"/>
	<path fill="#FFD15C" d="M17.6,7.1c-5.8,0-10.5,4.7-10.5,10.5h21C28,11.8,23.3,7.1,17.6,7.1z"/>
	<path fill="#F8B64C" d="M31.4,7.1C25.7,7.1,21,11.8,21,17.6h21C41.9,11.8,37.2,7.1,31.4,7.1z"/>
</g>
</svg>
