<?xml version="1.0" encoding="utf-8"?>
<!-- Generator: Adobe Illustrator 18.0.0, SVG Export Plug-In . SVG Version: 6.00 Build 0)  -->
<!DOCTYPE svg PUBLIC "-//W3C//DTD SVG 1.1//EN" "http://www.w3.org/Graphics/SVG/1.1/DTD/svg11.dtd">
<svg version="1.1" id="Layer_1" xmlns="http://www.w3.org/2000/svg" xmlns:xlink="http://www.w3.org/1999/xlink" x="0px" y="0px"
	 viewBox="0 0 48 48" enable-background="new 0 0 48 48" xml:space="preserve">
<g>
	<g>
		<path fill="#415A6B" d="M31.5,6L31.5,6C31,8,27.9,9.6,24,9.6c-3.9,0-7-1.6-7.5-3.7v0c0,3.7,3,6.6,6.6,6.6h1.8
			C28.6,12.6,31.5,9.6,31.5,6z"/>
		<g>
			<path fill="#F3705A" d="M48,29.7l-5.4,3.7L36,19.1v23H12v-23L5.4,33.4L0,29.7l6.5-16C8.2,9.5,12,6.6,16.5,6l0,0
				c0.5,3.7,3.7,6.6,7.5,6.6c3.9,0,7-2.9,7.5-6.6l0,0c4.5,0.6,8.3,3.5,10,7.7L48,29.7z"/>
			<g>
				<polygon fill="#415A6B" points="0,29.7 5.4,33.4 6.2,31.7 0.7,27.9 				"/>
				<rect x="12" y="40.2" fill="#415A6B" width="24.1" height="1.9"/>
				<polygon fill="#415A6B" points="48,29.7 47.3,27.9 41.8,31.7 42.6,33.4 				"/>
			</g>
		</g>
		<g>
			<rect x="26.2" y="19.1" fill="#F05540" width="6.3" height="6.1"/>
		</g>
		<g>
			<rect x="26.2" y="19.1" fill="#415A6B" width="6.3" height="1.3"/>
		</g>
	</g>
</g>
</svg>
