<?xml version="1.0" encoding="utf-8"?>
<!-- Generator: Adobe Illustrator 19.0.1, SVG Export Plug-In . SVG Version: 6.00 Build 0)  -->
<svg version="1.1" id="Layer_1" xmlns="http://www.w3.org/2000/svg" xmlns:xlink="http://www.w3.org/1999/xlink" x="0px" y="0px"
	 viewBox="0 0 48 48" style="enable-background:new 0 0 48 48;" xml:space="preserve">
<style type="text/css">
	.st0{fill:#415A6B;}
	.st1{fill:#ADB3BA;}
	.st2{fill:#E8EAE9;}
	.st3{fill:#55C0EB;}
	.st4{fill:#F3705A;}
	.st5{fill:#FFFFFF;}
	.st6{fill:#FFD15C;}
	.st7{fill:#344A5E;}
	.st8{fill:#CED6E0;}
	.st9{fill:#F05540;}
	.st10{fill:#F7B64C;}
	.st11{fill:#F3F3F3;}
	.st12{fill:#66C6B9;}
	.st13{fill:#4ABAA5;}
	.st14{fill:#8AD7F8;}
	.st15{fill:none;}
	.st16{fill:#E53D35;}
</style>
<g>
	<g>
		<g>
			<path class="st2" d="M38.4,2.1v26.2c0,1.2-0.9,2.1-2.1,2.1H2.1c-1.2,0-2.1-0.9-2.1-2.1V2.1C0,0.9,0.9,0,2.1,0h34.2
				C37.5,0,38.4,0.9,38.4,2.1z"/>
		</g>
		<g>
			<g>
				<rect x="4" y="4.1" class="st8" width="30.4" height="2.8"/>
			</g>
			<g>
				<rect x="4" y="10.6" class="st8" width="16.4" height="2.8"/>
			</g>
		</g>
		<g>
			<g>
				<path class="st10" d="M37.6,42.5c0.1,0.6,0.2,0.9,0.4,1.5c0,0.1,0.1,0.3,0.1,0.6h2.7c-0.2-1.5-0.3-2.7-0.3-2.7l-0.1-7.2
					c0,0-4.4-0.1-4.6,1.8c0,0,1,3.8,1.3,4.4S37.5,41.9,37.6,42.5z"/>
			</g>
			<g>
				<g>
					<path class="st6" d="M42.8,44.6c0-0.5,0-0.9-0.1-1c-0.2-0.8-0.3-1.7,0-2.6c0.3-0.8,1-4.1,1-4.1l-0.6-1.4l-4.2,0.4
						c0,0,0,3.7-0.1,5.7c-0.1,1.3,0.3,2.3,0.5,3H42.8z"/>
				</g>
			</g>
			<g>
				<path class="st7" d="M44.7,28.6L44.4,28h-9.3c-0.3,1.2-0.2,3.6,0,4.7c0.2,1.2,0.6,4.1,0.6,4.1s2.9-0.2,4.8-0.2
					c1.9,0,3.2,0.3,3.2,0.3s0.3-1.7,0.8-3.9C44.9,30.8,44.7,28.6,44.7,28.6z"/>
			</g>
			<g>
				<path class="st7" d="M24.1,17.7c0,0,0-1.3,1.3-2.5l0.4,1C25.9,16.2,25.3,17.5,24.1,17.7z"/>
			</g>
			<g>
				<path class="st6" d="M21.2,14.1c0,0-0.1,0-0.2,0.1c-0.1,0.1-0.3,0.1-0.3-0.1c0-0.2,0-0.3,0.2-0.4c0.2-0.1,0.3-0.1,0.3-0.1
					s0.1,0-0.1-0.1c-0.2,0-0.3-0.1-0.3,0c0,0,0.1,0.3,0,0.3c-0.1,0.1-0.3,0.1-0.3-0.1c0-0.2-0.1-0.5,0-0.6c0.1-0.1,0.1-0.2,0.2-0.2
					s0.4,0,0.5,0c0.2,0,0.2,0,0.2,0s0-0.1-0.2-0.2s-0.4,0-0.5,0s-0.3,0-0.4,0.1c-0.1,0.1-0.1,0.2-0.3,0.2c-0.2,0-0.3-0.2-0.2-0.3
					c0-0.1,0.2-0.2,0.4-0.3c0.3-0.2,1.2,0,1.2,0s-0.4-0.2-0.5-0.3C20.5,12.1,20.1,12,20,12c-0.2,0-0.2-0.2-0.1-0.3
					c0.2-0.1,0.8-0.1,1.1,0c0.3,0.1,0.5,0.1,0.8,0.3c0.3,0.1,0.6,0.4,0.8,0.5c0.2,0.1,0.3,0.4,0.4,0.6c0.1,0.2,0.4,0.8,0.6,0.9
					s2.1,1.4,2.1,1.4L25,17.2c0,0-1.6-1.4-1.8-1.6c-0.2-0.2-0.7-0.5-1-0.7S21.4,14.4,21.2,14.1z"/>
			</g>
			<g>
				<path class="st7" d="M47.5,15.2c0,0,0.3,1,0.3,2s-0.2,2.7,0,3.3c0.2,0.6,0.1,2.6,0.2,3.3c0,0.7,0,1.7-0.4,2.1
					c-0.3,0.4-6.4,2.3-6.4,2.3s-0.5-2.5-1-2.9c0,0,1.2-0.2,1.6-0.3c0.4-0.1,1.3-0.3,1.7-0.4c0.4-0.1,1.3-0.4,1.6-0.4
					c0,0-0.4-1.4-0.4-2.1c0-0.7-0.1-2.5,0-3.3c0.1-0.8,0.2-3.5,0.6-4C45.6,14.1,47.2,14.3,47.5,15.2z"/>
			</g>
			<g>
				<path class="st7" d="M36.1,17.8c0,0-0.3,0.5-0.9,0.7c-0.6,0.2-5.6,1.4-5.6,1.4s-0.3,0.2-0.9-0.1c-0.6-0.3-4.6-2.1-4.6-2.1
					s1.2-1.5,1.3-2.5c0,0,4.1,2.2,4.7,2s2.2-1,2.6-1.1s3.8-2.4,3.8-2.4l1.1,0.2L36.1,17.8z"/>
			</g>
			<g>
				<path class="st6" d="M39.1,6.8c0,0-0.2,0.7-0.1,1.5s0.1,1.9,1.3,3.2v0.7c0,0.8-0.4,1.6-1.1,2c0,0,0,0,0,0
					c-1.1,0.6-1.1,0.6-1.1,0.6l4.3,1.5l1.1-3.5c0,0-0.5-0.6-0.4-1.9s0.2-3.2,0.2-3.2s-0.7-2.5-1.8-2.7S39.7,5.6,39.1,6.8z"/>
			</g>
			<g>
				<path class="st12" d="M41.8,14.9C40.2,15.4,39,15,39.2,14l-1.9,3.3L36.5,25l2,0.2"/>
			</g>
			<g>
				<path class="st10" d="M41.6,11.5c-0.8,0.5-1.3-0.1-1.3-0.1v0.7c0,0.8-0.4,1.6-1.1,2c0,0,0,0,0,0c-0.1,0.1-0.2,0.1-0.2,0.1
					c0.6-0.1,1.4-0.4,2-1.1c1.7-1.6,2-3.2,2-3.2S42.4,11,41.6,11.5z"/>
			</g>
			<g>
				<path class="st0" d="M40.3,12.1c0,0,0.1,0.7-0.3,1.3c-0.5,0.6-0.6,0.8-1.4,2.4c-0.8,1.6-0.9,3.2-0.9,4.3s-0.9,8.6-1.1,9.1
					c-0.2,0.5-0.7,0-1.4-0.6c-0.8-0.6-1.4-1.1-1.1-2c0.3-0.9,1.8-3.9,1.8-4.7c0-0.8-0.3-3.6-0.3-3.6s1.3-3.6,0.9-4.8
					c0,0,0.8-0.8,2.1-0.6C38.6,13,39.9,12.9,40.3,12.1z"/>
			</g>
			<path class="st7" d="M37.6,21c-0.5,2.4-1.2,6-1.3,6.2c0,0.1-0.3,1.2,0.3,1.9C36.8,28.3,37.5,23.2,37.6,21z"/>
			<g>
				<path class="st0" d="M47.5,15.2c-0.4-0.8-1.3-0.7-1.3-0.7c-1.6,0.7-0.9,3.2-0.9,3.9s-0.8,2.8-1.8,4.6c-1,1.8,0.4,1.9,0.8,3.1
					s0.4,2.5,0.4,2.5s-0.3-0.3-1.2-0.4c-0.9-0.1-3.3,0.7-5.4,1c-2.1,0.4-1.5-2.1-1.5-2.1s1.2-6.3,1.7-7.9c0.5-1.5,1.6-4.1,2.9-5
					c1.2-0.9,2-2.3,2-2.3c0.7,0.8,2.5,1.5,3.4,2C47.5,14.6,47.5,15.2,47.5,15.2z"/>
			</g>
			<g>
				<path class="st6" d="M42.1,26.7c0,0-0.9,0.1-1.1,0.2s-0.4,0-0.7,0.2c-0.2,0.3-1.1,0.9-1.4,1.1c-0.3,0.1-0.7,0.7-0.7,0.7
					c-0.2,0.3-0.6,0-0.4-0.2l0.5-0.6l-0.6,0.5c-0.3,0.3-0.7-0.1-0.4-0.4l0.5-0.5L37.3,28c-0.2,0.2-0.5-0.2-0.4-0.4l0.5-0.5l-0.5,0.5
					c-0.2,0.2-0.5-0.2-0.3-0.4c0,0,0.4-0.6,0.8-0.9c0.4-0.3,1.4-0.8,2-0.9s2-0.4,2-0.4L42.1,26.7"/>
			</g>
			<g>
				<path class="st4" d="M39,8.3c0,0-0.2-1,0.4-1.8s1.6-1.1,1.6-1.1s0.6,0.2,1,1.3s0.8,2.8,0.9,3s0.1,2.6-0.2,3.9
					c-0.3,1.3-0.8,3.4-0.6,4.8c0.2,1.4,1.2,4.4,1.2,4.4s0.1-0.9,1-2.2c0.9-1.3,0.4-3.9,0.6-5c0.2-1.1,0.6-4,0.4-6.3s-1.2-4.3-2.7-5
					c-1.5-0.7-3.3,0.9-3.7,1.6S38.8,7.7,39,8.3z"/>
			</g>
			<g>
				<path class="st7" d="M48,22.1h-3.2c0.1,0.7,0.4,1.9,0.4,1.9c-0.3,0-1.2,0.3-1.6,0.4c-0.4,0.1-1.4,0.3-1.7,0.4
					c-0.4,0.1-1.6,0.3-1.6,0.3c0.6,0.5,1,2.9,1,2.9s6-1.9,6.4-2.3s0.4-1.4,0.4-2.1C48,23.4,48,22.8,48,22.1z"/>
			</g>
		</g>
		<g>
			<g>
				<path class="st7" d="M42.8,48c0.1-1.4,0.2-2.7,0.2-3c-0.1-0.9-0.2-2.7-0.9-3.8c-0.6-1.1-1.5-1.1-1.5-1.1l-1.1,2.2L39,48H42.8z"
					/>
				<path class="st7" d="M26.9,48l-0.5-5.7l-1.1-2.2c0,0-0.9,0-1.5,1.1c-0.6,1.1-0.8,3-0.9,3.8c0,0.3,0,1.6,0.2,3H26.9z"/>
				<path class="st0" d="M23.9,48H42c0.1-0.6,0.2-1,0.2-1c0.5-2.4-1.3-6.9-1.7-6.9l-3.5-1.5L33,38.1l-4.2,0.5l-3.5,1.5
					c-0.4,0-2.2,4.6-1.7,6.9C23.7,47,23.8,47.4,23.9,48z"/>
				<g>
					<path class="st9" d="M30.6,45.8c0.5,0.7,1.1,2,1.1,2c-0.2-0.9,0-1.5,0-1.5c0.4,1.1,0.9,1,1.7,1.7H35c0.1-1.5,0.8-3.6,0.8-3.6
						c-0.3,1.1,0,3.6,0,3.6s0-1,0.2-2.3c0.2-1.3,0.9-2.1,0.9-2.1c-0.5,1.2-0.5,2.4-0.5,2.4c0.5-2,1.5-2,1.9-3.9
						c0.4-1.9-0.2-6.4-0.2-7.6c0-1.3-0.8-4.7-2.2-6.3c-1.5-1.6-3.5-1.4-3.5-1.4c-3.5,0-4.4,4.9-4.4,6.2c0,1.3,0.1,4.5,0,6
						c-0.2,1.5,0.5,3.4,0.9,4.5C29,44.6,30,45.2,30.6,45.8z"/>
				</g>
			</g>
			<g>
				<g>
					<path class="st6" d="M8.1,36.3c0,0,0,1.1-0.1,1.8s-0.1,0.7-0.1,0.7l6.6-0.7c0,0-0.3-0.9-0.4-1.9c0-1,0-1,0-1L8.1,36.3z"/>
				</g>
				<g>
					<g>
						
							<ellipse transform="matrix(0.9943 0.1067 -0.1067 0.9943 3.6257 -1.2191)" class="st6" cx="13.2" cy="33.3" rx="0.7" ry="1.6"/>
					</g>
					<g>
						
							<ellipse transform="matrix(-0.9943 0.1067 -0.1067 -0.9943 18.1109 65.5748)" class="st6" cx="7.3" cy="33.3" rx="0.7" ry="1.6"/>
					</g>
				</g>
				<g>
					<g>
						<g>
							<path class="st3" d="M22.5,48c0-2.3-0.4-5.3-1.5-6.1c0,0-4.9-1-5.7-2c-0.2-0.2-0.3-0.5-0.5-0.8h-7c-0.2,0.3-0.3,0.6-0.5,0.8
								c-0.8,1.1-5.7,2-5.7,2C0.4,42.7,0,45.7,0,48H22.5z"/>
						</g>
					</g>
				</g>
				<g>
					<g>
						<path class="st14" d="M14.5,38.1c0,0,0.2,0.7,0.4,1.1c0.3,0.4,0.3,0.7,0.3,0.7s-0.2-0.3-0.9-0.4c-0.7-0.1-3.1,0-3.1,0
							s-2.5-0.1-3.1,0c-0.7,0.1-0.9,0.4-0.9,0.4s0.1-0.3,0.3-0.7C7.8,38.9,8,38.1,8,38.1C8,37.2,14.5,37.2,14.5,38.1z"/>
					</g>
				</g>
				<g>
					<path class="st0" d="M15.1,32.7c-0.5,0.9-1,3.7-1,3.7c-0.3,0.9-5.7,0.9-6,0c0,0-0.5-2.9-1-3.7c-0.5-0.7-0.8-5.9,4-5.9
						C15.9,26.8,15.5,31.9,15.1,32.7z"/>
				</g>
			</g>
		</g>
	</g>
</g>
</svg>
