<?xml version="1.0" encoding="utf-8"?>
<!-- Generator: Adobe Illustrator 18.0.0, SVG Export Plug-In . SVG Version: 6.00 Build 0)  -->
<!DOCTYPE svg PUBLIC "-//W3C//DTD SVG 1.1//EN" "http://www.w3.org/Graphics/SVG/1.1/DTD/svg11.dtd">
<svg version="1.1" id="Layer_1" xmlns="http://www.w3.org/2000/svg" xmlns:xlink="http://www.w3.org/1999/xlink" x="0px" y="0px"
	 viewBox="0 0 48 48" enable-background="new 0 0 48 48" xml:space="preserve">
<g>
	<g>
		<g>
			<path fill="#F5B54C" d="M29.9,33.5c0,0,3.5,0.7,7.7-2.1c0,0,1.8-1,2.3-1.1c0,0-0.8,2.8,0.1,5.2c0.9,2.5,0.3,5.1,0.3,5.1
				s-0.6,0.9,0.1,1.5c0,0,1.5,0.2,2.2-0.1c0.7-0.4,2.5,0.1,2.5,0.1s1,0.4,1.5,0c0,0,1.3,0.5,1.3-0.2c0,0-0.2-0.2-0.5-0.2
				c-0.3-0.1-0.6-0.3-0.8-0.3c0,0-2.5-1-2.7-1.2c-0.3-0.2-0.7-0.4-0.8-1.6c-0.2-1.2,0-2.9,0.3-5.4c0.4-2.5,0.5-3.7,0.5-3.7
				s0.2-1.7-0.5-2.9c-0.7-1.2-2.6-1.2-2.6-1.2s-5.6,0.6-6.7,1.4L29.9,33.5z"/>
		</g>
	</g>
	<g>
		<g>
			<path fill="#344A5E" d="M34.1,26.9l-4.2,6.6c0,0,1.7,0.3,4.2-0.4c0.3-0.7,0.6-1.6,0.5-2.4c-0.2-1.3,0.2-3.1,0.4-4.1
				C34.6,26.6,34.3,26.7,34.1,26.9z"/>
		</g>
	</g>
	<g>
		<g>
			<path fill="#FFD15C" d="M23.9,32.6l5.7,3.1l-0.2,0.3c0,0-2.4,4.8-7.5,6.7c0,0-0.7,0.4-0.9,0.6c-0.1,0.2-1.1,0.4-2.1,0.1
				c0,0-5.4-0.2-7.1-0.4c-1.7-0.3-4.4-0.3-4.4-0.3s-2.3,0-2.9-0.1c-0.5-0.1-0.9-0.1-0.9-0.1s-1.6-0.7-2-0.6C1.2,42,0.4,42.6,0,41.9
				c0,0-0.1-0.2,0.2-0.3c0,0-0.1-0.3,0.3-0.4c0,0,0.1-0.6,1.2-0.7c1.1-0.1,1.8-0.3,2.2-0.7c0.4-0.4,1.1-1.1,1.6-1
				c0.5,0.1,0.7,0.6,0.7,0.7c0,0.1,0.1,0.6,0.8,0.6c0.7,0,2.6-0.3,3.8-0.7c1.2-0.4,3.3-0.5,4.2-0.2c0.9,0.3,2.3,0.3,2.3,0.3
				s1.2,0.2,2.3-1.2c1.1-1.3,4-4.8,4.4-5C23.9,33.4,23.8,33,23.9,32.6z"/>
		</g>
	</g>
	<g>
		<g>
			<path fill="#FFD15C" d="M35.5,20.3L35,24.3c0,0-0.7,4.1-1.3,5.6c-0.5,0.5-1.5,0.6-2.6,0.2c-1.4-0.6-2.8-1.8-3.1-2.4
				c-0.1-0.2-0.1-0.5,0-0.8c0.1-0.1,0.9-1.1,0.8-1.9c-0.1-0.9-0.4-1.4-0.6-2.3c-0.2-0.9-0.3-1.8-0.8-2.5c-0.5-0.7-0.6-4-0.6-4
				s0.2-1.5,1-2c0,0,0.7-1.3,0.9-3.6c0,0,0.8-3.3,2.3-3c1.5,0.3,1.5,4.6,1.5,4.6s-1.3,1.3-1.1,2.8c0,0,1.9,1.4,2.7,2
				C34.7,17.6,35.8,18.5,35.5,20.3z"/>
		</g>
	</g>
	<g>
		<g>
			<path fill="#FFD15C" d="M32.3,12.2c0,0-1.3,1.3-1.1,2.8c0,0,0.1,0,0.2,0.1c-0.7-0.5-2.4-1.4-4-0.6c0.1-0.1,0.2-0.2,0.3-0.2
				c0,0,0.7-1.3,0.9-3.6c0,0,0.8-3.3,2.3-3C32.4,7.9,32.3,12.2,32.3,12.2z"/>
		</g>
	</g>
	<g>
		<g>
			<path fill="#FFD15C" d="M32.7,5.5l1.8,1.3c0,0,0.6,1.4,0.4,2.1c0,0-0.2,0.4-0.2,0.7c0.1,0.3,0.4,1,0.5,1.3
				c0.1,0.3-0.6,0.3-0.6,0.3s-0.2,0.1-0.1,0.4c0.1,0.2,0,0.3-0.1,0.3c0,0,0.2,0.1,0.1,0.2c0,0-0.6,0.4-0.5,0.8
				c0.1,0.4-0.4,0.7-0.9,0.5c-0.4-0.2-2.2-0.8-2.5-3.9C30.5,6.2,32.7,5.5,32.7,5.5z"/>
		</g>
	</g>
	<g>
		<g>
			<g>
				<path fill="#425A6B" d="M28.2,6.8c-0.1-0.2-0.4-0.2-0.6-0.1c-0.2,0.1-0.3,0.3-0.3,0.6c-0.3,0.9-0.1,1.9,0.1,2.9
					c0.2,1,0.5,1.9,0.4,2.9c-0.2,1.6-1.4,3-1.4,4.6c-1.1-1.3-1.6-3.2-1.1-4.8c-0.2,0.7-0.5,1.4-1,2.1c0.3-0.7-0.1-1.7,0.2-2.4
					c0.2-0.3,0.4-0.5,0.5-0.8c0.2-0.5-0.1-0.9-0.3-1.4c-0.3-0.9-0.2-2,0.2-2.8c0.5-0.9,1.3-1.5,2.2-1.7c0.2-0.1,0.9,0,1.3,0.4"/>
			</g>
		</g>
	</g>
	<g>
		<g>
			<g>
				<path fill="#425A6B" d="M28.3,5.9c0.2,0.3,1.8-2,4.1-1.1c2,0.7,2.2,2,2.2,2s-0.7-0.2-0.8,0.2c-0.1,0.3-0.3,1.3-1.4,1.5
					c0,0-0.1,0.5-0.2,1.1l-0.4,0c0,0,0-1.4-1.2-1.3c-1.2,0.1-0.6,1.8-1.3,2.6c-0.6,0.7-0.9,0.7-0.9,0.7s0.1-0.5-0.3-1.2
					c-0.4-0.7-0.7-1.9-0.3-2.8C28.4,6.6,28,6.6,28,6.6"/>
			</g>
		</g>
	</g>
	<g>
		<g>
			<g>
				<path fill="#F26F5A" d="M28.1,6.8c-0.2,0-0.3,0-0.4-0.1c0.2-0.3,0.3-0.6,0.4-0.8c0.2-0.1,0.4-0.1,0.5,0
					C28.4,6.1,28.2,6.4,28.1,6.8z"/>
			</g>
		</g>
	</g>
	<g>
		<g>
			<ellipse transform="matrix(0.919 -0.3943 0.3943 0.919 -1.0782 12.9043)" fill="#FFD15C" cx="30.9" cy="9.1" rx="0.7" ry="1.2"/>
		</g>
	</g>
	<g>
		<g>
			<path fill="#425A6B" d="M33.9,17c-0.8-0.6-2.7-2-2.7-2s-2-2.1-3.9-0.4c-0.5,0.6-0.6,1.7-0.6,1.7s0,0.2,0,0.5c0.2-1.1,1-3.6,4-1.8
				c0,0,2.3,1.2,2.5,2.5c0,0-2.1,4.7-5.9,2.9c0.4,0.7,0.5,1.5,0.7,2.2c0.7,0.4,2.7,0.8,7.3-1.3l0.1-1C35.8,18.5,34.7,17.6,33.9,17z"
				/>
		</g>
	</g>
	<g>
		<g>
			<path fill="#FFD15C" d="M41.7,26.4C41.5,27,41,27.3,41,27.3s-1,0.1-1.3-0.2c0,0-0.6,0-0.8-0.4c0,0-1.2-0.6-2.6-1.8
				c-1.4-1.3-3-2.5-3.8-3.2c-0.5-0.4-1.1-1-1.5-1.4c-0.9,0.6-2.1,0.8-3.6,0.1c0,0-0.8-1.4-0.6-3.6c0.2-1.1,1-3.6,4-1.8
				c0,0,2.3,1.2,2.5,2.5c0,0,0.9,1.8,1.7,2.5c0.8,0.8,1.6,1.7,1.6,1.7s0.5,0.5,0.9,0.8c0.4,0.2,1.8,1.6,2.1,2c0,0,0.3-0.2,0.4,0.1
				c0-0.1,0.5-0.1,0.5,0.1c0.1-0.2,0.6,0.1,0.5,0.2c0.1-0.1,0.5,0.1,0.4,0.3C41.4,25,41.9,25.8,41.7,26.4z"/>
		</g>
	</g>
	<g>
		<g>
			<path fill="#425A6B" d="M31.1,30.1c-1.4-0.6-2.8-1.8-3.1-2.4c-0.1-0.2-0.1-0.5,0-0.8c0,0,0,0,0,0c-0.3,0.2-1.9,2.1-1.9,2.1
				c-1.7,1-2.1,2.5-2.2,3.4l5.7,3.1l2.4-3.2c0,0,0.9-0.9,1.6-2.1c0.1-0.1,0.1-0.2,0.2-0.4C33.2,30.5,32.2,30.6,31.1,30.1z"/>
		</g>
	</g>
	<g>
		<g>
			<path fill="#F5B54C" d="M32,12.5c-0.1,0.1-0.2,0.3-0.3,0.4c-0.7-1.2-1.1-2.3-1.1-2.4C31,11.4,31.8,12.3,32,12.5z"/>
		</g>
	</g>
</g>
</svg>
