<?xml version="1.0" encoding="utf-8"?>
<!-- Generator: Adobe Illustrator 18.0.0, SVG Export Plug-In . SVG Version: 6.00 Build 0)  -->
<!DOCTYPE svg PUBLIC "-//W3C//DTD SVG 1.1//EN" "http://www.w3.org/Graphics/SVG/1.1/DTD/svg11.dtd">
<svg version="1.1" id="Layer_1" xmlns="http://www.w3.org/2000/svg" xmlns:xlink="http://www.w3.org/1999/xlink" x="0px" y="0px"
	 viewBox="0 0 48 48" enable-background="new 0 0 48 48" xml:space="preserve">
<g>
	<path fill="#54C0EB" d="M24,22.1c2.5-2.1,5.8-3.4,9.3-3.4c1.5,0,3,0.2,4.4,0.7c0.5-1.5,0.8-3.1,0.8-4.7C38.5,6.6,32,0,23.9,0
		S9.2,6.6,9.2,14.7c0,1.7,0.3,3.3,0.8,4.8c1.5-0.5,3-0.8,4.6-0.8C18.2,18.7,21.5,20,24,22.1z"/>
	<path fill="#CDD6E0" d="M18.7,33.3c0-1.6,0.3-3.2,0.8-4.7c-4.4-1.4-7.9-4.8-9.5-9.2C4.2,21.4,0,26.9,0,33.3C0,41.4,6.6,48,14.7,48
		c3.6,0,6.8-1.3,9.3-3.4C20.8,41.9,18.7,37.9,18.7,33.3z"/>
	<path fill="#FFFFFF" d="M19.5,28.6c0.9-2.6,2.5-4.9,4.5-6.6c-2.5-2.1-5.8-3.4-9.3-3.4c-1.6,0-3.2,0.3-4.6,0.8
		C11.5,23.8,15.1,27.3,19.5,28.6z"/>
	<path fill="#F2F2F2" d="M37.7,19.4c-1.5,4.3-4.9,7.7-9.2,9.2c0.5,1.5,0.8,3.1,0.8,4.8c0,4.5-2.1,8.6-5.3,11.3
		c2.5,2.1,5.8,3.4,9.3,3.4C41.4,48,48,41.4,48,33.3C48,26.8,43.7,21.2,37.7,19.4z"/>
	<path fill="#FFFFFF" d="M24,22.1c2,1.7,3.6,3.9,4.5,6.5c4.3-1.4,7.8-4.9,9.2-9.2c-1.4-0.4-2.9-0.7-4.4-0.7
		C29.8,18.7,26.5,20,24,22.1z"/>
	<path fill="#FFFFFF" d="M29.3,33.3c0-1.7-0.3-3.3-0.8-4.8c-1.5,0.5-3,0.8-4.6,0.8c-1.5,0-3-0.2-4.4-0.7c-0.5,1.5-0.8,3.1-0.8,4.7
		c0,4.5,2.1,8.6,5.3,11.3C27.2,41.9,29.3,37.9,29.3,33.3z"/>
	<path fill="#FF7058" d="M24,22.1c-2.1,1.7-3.6,4-4.5,6.6c1.4,0.4,2.9,0.7,4.4,0.7c1.6,0,3.2-0.3,4.6-0.8C27.6,26,26,23.8,24,22.1z"
		/>
</g>
</svg>
