<?xml version="1.0" encoding="utf-8"?>
<!-- Generator: Adobe Illustrator 18.0.0, SVG Export Plug-In . SVG Version: 6.00 Build 0)  -->
<!DOCTYPE svg PUBLIC "-//W3C//DTD SVG 1.1//EN" "http://www.w3.org/Graphics/SVG/1.1/DTD/svg11.dtd">
<svg version="1.1" id="Layer_1" xmlns="http://www.w3.org/2000/svg" xmlns:xlink="http://www.w3.org/1999/xlink" x="0px" y="0px"
	 viewBox="0 0 48 48" enable-background="new 0 0 48 48" xml:space="preserve">
<g>
	<g>
		<path fill="#F3F3F3" d="M33.8,16.4H14.2V6.9c0-1.2,1-2.2,2.2-2.2h15.2c1.2,0,2.2,1,2.2,2.2V16.4z"/>
		<rect x="20.1" y="0" fill="#F3F3F3" width="7.9" height="4.7"/>
		<path fill="#E8EAE9" d="M43.2,28.9H4.8v-1.4C4.8,16.9,13.4,8.3,24,8.3l0,0c10.6,0,19.2,8.6,19.2,19.2V28.9z"/>
		<path fill="#F3F3F3" d="M43.2,26.8H4.8c-1.1,0-2,0.9-2,2l0,0c0,1.1,0.9,2,2,2h38.5c1.1,0,2-0.9,2-2l0,0
			C45.3,27.7,44.3,26.8,43.2,26.8z"/>
	</g>
	<g>
		<g>
			<g>
				<path fill="#84DBFF" d="M12.8,37.5c0,1.3-1.1,2.4-2.4,2.4S8,38.9,8,37.5c0-1.3,2.4-4.3,2.4-4.3S12.8,36.2,12.8,37.5z"/>
				<path fill="#84DBFF" d="M21.9,37.5c0,1.3-1.1,2.4-2.4,2.4c-1.3,0-2.4-1.1-2.4-2.4c0-1.3,2.4-4.3,2.4-4.3S21.9,36.2,21.9,37.5z"
					/>
				<path fill="#84DBFF" d="M31,37.5c0,1.3-1.1,2.4-2.4,2.4s-2.4-1.1-2.4-2.4c0-1.3,2.4-4.3,2.4-4.3S31,36.2,31,37.5z"/>
			</g>
			<path fill="#84DBFF" d="M40,37.5c0,1.3-1.1,2.4-2.4,2.4c-1.3,0-2.4-1.1-2.4-2.4c0-1.3,2.4-4.3,2.4-4.3S40,36.2,40,37.5z"/>
		</g>
		<g>
			<g>
				<path fill="#84DBFF" d="M17.4,45.6c0,1.3-1.1,2.4-2.4,2.4c-1.3,0-2.4-1.1-2.4-2.4c0-1.3,2.4-4.3,2.4-4.3S17.4,44.2,17.4,45.6z"
					/>
				<path fill="#84DBFF" d="M26.4,45.6c0,1.3-1.1,2.4-2.4,2.4c-1.3,0-2.4-1.1-2.4-2.4c0-1.3,2.4-4.3,2.4-4.3S26.4,44.2,26.4,45.6z"
					/>
				<path fill="#84DBFF" d="M35.5,45.6c0,1.3-1.1,2.4-2.4,2.4c-1.3,0-2.4-1.1-2.4-2.4c0-1.3,2.4-4.3,2.4-4.3S35.5,44.2,35.5,45.6z"
					/>
			</g>
		</g>
	</g>
</g>
</svg>
