<?xml version="1.0" encoding="utf-8"?>
<!-- Generator: Adobe Illustrator 18.0.0, SVG Export Plug-In . SVG Version: 6.00 Build 0)  -->
<!DOCTYPE svg PUBLIC "-//W3C//DTD SVG 1.1//EN" "http://www.w3.org/Graphics/SVG/1.1/DTD/svg11.dtd">
<svg version="1.1" id="Layer_1" xmlns="http://www.w3.org/2000/svg" xmlns:xlink="http://www.w3.org/1999/xlink" x="0px" y="0px"
	 viewBox="0 0 48 48" enable-background="new 0 0 48 48" xml:space="preserve">
<g>
	<g>
		<g>
			<g>
				<path fill="#FFFFFF" d="M46,21.3C46,36.7,26.4,46,26.4,46S6.8,36.7,6.8,21.3c0-5.7,4.6-10.3,10.3-10.3c4.1,0,7.6,2.3,9.3,5.8
					c1.7-3.4,5.2-5.8,9.3-5.8C41.3,11,46,15.6,46,21.3z"/>
				<path fill="#FFD15C" d="M26.4,48c-0.3,0-0.6-0.1-0.9-0.2c-0.8-0.4-20.7-10-20.7-26.5C4.8,14.5,10.3,9,17.1,9
					c3.6,0,7,1.5,9.3,4.2C28.7,10.5,32,9,35.6,9C42.5,9,48,14.5,48,21.3c0,16.5-19.9,26.1-20.7,26.5C27,47.9,26.7,48,26.4,48z
					 M17.1,13.1c-4.6,0-8.3,3.7-8.3,8.3c0,12.2,13.9,20.4,17.5,22.4c3.6-2,17.5-10.2,17.5-22.4c0-4.6-3.7-8.3-8.3-8.3
					c-3.2,0-6,1.8-7.4,4.6c-0.3,0.7-1.1,1.1-1.8,1.1l0,0c-0.8,0-1.5-0.4-1.8-1.1C23.1,14.8,20.3,13.1,17.1,13.1z"/>
			</g>
			<g>
				<path fill="#415A6B" d="M20.7,21.1v1.2h-2.8v1.3h2.6v1.2h-2.6v2.3h-1.3v-5.9H20.7z"/>
				<path fill="#415A6B" d="M26.1,24.8c0,0.7-0.2,1.2-0.7,1.7c-0.5,0.5-1,0.7-1.7,0.7c-0.7,0-1.3-0.2-1.7-0.7
					c-0.5-0.5-0.7-1-0.7-1.7c0-0.7,0.2-1.2,0.7-1.7c0.5-0.5,1-0.7,1.7-0.7c0.7,0,1.3,0.2,1.7,0.7C25.9,23.6,26.1,24.1,26.1,24.8z
					 M22.6,24.8c0,0.4,0.1,0.7,0.3,0.9s0.5,0.4,0.8,0.4c0.3,0,0.6-0.1,0.8-0.4c0.2-0.2,0.3-0.5,0.3-0.9c0-0.4-0.1-0.7-0.3-0.9
					c-0.2-0.2-0.5-0.4-0.8-0.4c-0.3,0-0.6,0.1-0.8,0.4C22.7,24.1,22.6,24.4,22.6,24.8z"/>
				<path fill="#415A6B" d="M29.5,23.6c-0.4,0-0.7,0.1-0.8,0.4c-0.2,0.3-0.3,0.6-0.3,1.1v2h-1.3v-4.6h1.3v0.6
					c0.2-0.2,0.4-0.3,0.6-0.5c0.2-0.1,0.5-0.2,0.8-0.2l0,1.2H29.5z"/>
				<path fill="#415A6B" d="M23,34.8h-1.3v-2.3l-2.1-3.6H21l1.3,2.2l1.3-2.2H25L23,32.4V34.8z"/>
				<path fill="#415A6B" d="M29.6,32.5c0,0.7-0.2,1.2-0.7,1.7c-0.5,0.5-1,0.7-1.7,0.7c-0.7,0-1.3-0.2-1.7-0.7
					c-0.5-0.5-0.7-1-0.7-1.7c0-0.7,0.2-1.2,0.7-1.7c0.5-0.5,1-0.7,1.7-0.7c0.7,0,1.3,0.2,1.7,0.7C29.4,31.2,29.6,31.8,29.6,32.5z
					 M26.1,32.5c0,0.4,0.1,0.7,0.3,0.9c0.2,0.2,0.5,0.4,0.8,0.4c0.3,0,0.6-0.1,0.8-0.4c0.2-0.2,0.3-0.5,0.3-0.9
					c0-0.4-0.1-0.7-0.3-0.9c-0.2-0.2-0.5-0.4-0.8-0.4c-0.3,0-0.6,0.1-0.8,0.4C26.2,31.8,26.1,32.1,26.1,32.5z"/>
				<path fill="#415A6B" d="M33.5,32.6v-2.5h1.3v4.6h-1.3v-0.6c-0.3,0.4-0.7,0.7-1.2,0.7c-0.5,0-0.9-0.2-1.3-0.5
					c-0.3-0.3-0.5-0.8-0.5-1.4v-2.8h1.3v2.5c0,0.7,0.3,1.1,0.8,1.1c0.3,0,0.5-0.1,0.7-0.3C33.4,33.3,33.5,33,33.5,32.6z"/>
			</g>
		</g>
		<g>
			<path fill="#F05540" d="M23.2,13c0,0.3,0.1,0.5,0.1,0.8c0.4,2.3,1,3.8-0.2,5.3c-3.4-0.2-4.1-4.1-7.6-4c-0.7,0-1.6,0.7-2.2,0.9
				c-1.8,0.8-3.4,1.3-4.5,3.2c-1.2,2.2-0.1,5.4-1,7.6c-2.9-1.4-4.1-7.3-4.5-11.5L2,18.1l-2-1.4C0.5,21.8,2.2,29,6.8,28.2
				c0,0.1,3.1-0.7,4-2c2.2-3.2-0.6-7,2.3-9.6c1.2,0.3,1.8,1.4,2.9,2.3c2,1.7,3.1,2.1,5.8,1.4c1.1-0.3,2.2-0.8,3.3-1.3
				c0.9-0.4,1.6-1,2-2c0.5-1.2,0.1-2.5-0.3-3.8L23.2,13z"/>
			<g>
				<path fill="#F3705A" d="M23.2,13c0,0.3,0.1,0.5,0.1,0.8c0.4,2.3,1,3.8-0.2,5.3c-3.4-0.2-4.1-4.1-7.6-4c-0.7,0-1.6,0.7-2.2,0.9
					c-1.8,0.8-3.4,1.3-4.5,3.2c-1.2,2.2-0.1,5.4-1,7.6c0,0,1.1,0.4,2.5-0.1c0.2-0.2,0.4-0.4,0.6-0.6c2.2-3.2-0.6-7,2.3-9.6
					c1.2,0.3,1.8,1.4,2.9,2.3c2,1.7,3.1,2.1,5.8,1.4c1.1-0.3,2.2-0.8,3.3-1.3c0.9-0.4,1.6-1,2-2c0.5-1.2,0.1-2.5-0.3-3.8L23.2,13z"
					/>
			</g>
			<g>
				<path fill="#F3705A" d="M23.2,13c0,0.3,0.1,0.5,0.1,0.8c0.4,2.3,1,3.8-0.2,5.3c-3.4-0.2-4.1-4.1-7.6-4c-0.1,0-0.2,0-0.3,0.1
					c-0.1,0-0.2,0-0.2,0.1l0,0c-0.8,0.3-1.3,0.8-1.8,1.3c1.2,0.3,1.8,1.4,2.9,2.3c2,1.7,3.1,2.1,5.8,1.4c1.1-0.3,2.2-0.8,3.3-1.3
					c0.9-0.4,1.6-1,2-2c0.5-1.2,0.1-2.5-0.3-3.8L23.2,13z"/>
			</g>
			<g>
				<path fill="#F05540" d="M23.1,19.1c0,0-0.8,0.7-2,1.3c0,0,0,0,0,0c-2.2,0.5-3.2,0-5.1-1.6c-1.1-0.9-1.7-2-2.9-2.3
					c0.4-0.4,1-1,1.8-1.3l0,0c0.1,0,0.1-0.1,0.2-0.1c0.1,0,0.2,0,0.3-0.1C18.9,15,19.6,18.9,23.1,19.1z"/>
			</g>
		</g>
		<g>
			<path fill="#F05540" d="M40.8,16.5c0-0.1-2-2.3-3.5-2.4c-3.7-0.4-5.6,3.7-9.1,2.5c-0.3-1.1,0.4-2.1,0.7-3.5
				c0.1-0.3,0.1-0.5,0.1-0.7l-3.6,0.7c0,0.7,0.1,1.4,0.5,2.1c0.3,0.5,1.3,1,1.8,1.4c1.5,1.2,2.7,2.2,4.7,2.2c2.4,0,4.6-2.4,6.8-2.7
				c0.1,3-4.4,6.8-7.7,9.1l2.9-0.3l-0.3,2.3C38.3,24.7,43.6,20,40.8,16.5z"/>
			<g>
				<path fill="#F3705A" d="M38,14.4c-0.3-0.1-0.5-0.2-0.7-0.2c-3.7-0.4-5.6,3.7-9.1,2.5c-0.3-1.1,0.4-2.1,0.7-3.5
					c0.1-0.3,0.1-0.5,0.1-0.7l-3.6,0.7c0,0.7,0.1,1.4,0.5,2.1c0.3,0.5,1.3,1,1.8,1.4c1.5,1.2,2.7,2.2,4.7,2.2c2.4,0,4.6-2.4,6.8-2.7
					C39.2,16.4,39.1,15.3,38,14.4z"/>
			</g>
			<g>
				<path fill="#F3705A" d="M25.3,13.2c0,0.7,0.1,1.4,0.5,2.1c0.1,0.1,0.1,0.2,0.2,0.3c0.1,0.1,0.1,0.1,0.2,0.2l0,0
					c0.6,0.5,1.3,0.7,1.9,0.9c-0.3-1.1,0.4-2.1,0.7-3.5c0.1-0.3,0.1-0.5,0.1-0.7L25.3,13.2z"/>
			</g>
			<g>
				<path fill="#F05540" d="M25.3,13.2c0,0.7,0.1,1.4,0.5,2.1c0.1,0.1,0.1,0.2,0.2,0.3c0.1,0.1,0.1,0.1,0.2,0.2l0,0
					c0.6,0.5,1.3,0.7,1.9,0.9c-0.3-1.1,0.4-2.1,0.7-3.5c0.1-0.3,0.1-0.5,0.1-0.7L25.3,13.2z"/>
			</g>
		</g>
		<g>
			<rect x="24.3" y="0" fill="#F05540" width="4.2" height="13.2"/>
		</g>
		<g>
			<g>
				<g>
					<path fill="#F3705A" d="M25.2,12.5c0,0,6.3-4.7,8.9-4.7c2.6,0,1.2,2.1,1.2,4.7c0,2.6,1.4,4.7-1.2,4.7
						C31.6,17.2,25.2,12.5,25.2,12.5z"/>
				</g>
				<g>
					<path fill="#F05540" d="M34.1,17.2c1.1,0,1.5-0.4,1.5-1c0.1-1-0.5-2-1.5-2.4c-2.4-1-5.6-1.3-9-1.3l0,0
						C25.2,12.5,31.6,17.2,34.1,17.2z"/>
				</g>
			</g>
			<g>
				<g>
					<path fill="#F3705A" d="M27.5,12.5c0,0-6.3-4.7-8.9-4.7c-2.6,0-1.2,2.1-1.2,4.7c0,2.6-1.4,4.7,1.2,4.7
						C21.2,17.2,27.5,12.5,27.5,12.5z"/>
				</g>
				<g>
					<path fill="#F05540" d="M18.6,17.2c-1.1,0-1.5-0.4-1.5-1c-0.1-1,0.5-2,1.5-2.4c2.4-1,5.6-1.3,9-1.3l0,0
						C27.5,12.5,21.2,17.2,18.6,17.2z"/>
				</g>
			</g>
			<g>
				<path fill="#E8EAE9" d="M28,14.4c-1,0.6-2.2,0.6-3.2,0c0-1.3,0-2.5,0-3.8c1-0.6,2.2-0.6,3.2,0C28,11.9,28,13.1,28,14.4z"/>
			</g>
		</g>
	</g>
</g>
</svg>
