<?xml version="1.0" encoding="utf-8"?>
<!-- Generator: Adobe Illustrator 18.0.0, SVG Export Plug-In . SVG Version: 6.00 Build 0)  -->
<!DOCTYPE svg PUBLIC "-//W3C//DTD SVG 1.1//EN" "http://www.w3.org/Graphics/SVG/1.1/DTD/svg11.dtd">
<svg version="1.1" id="Layer_1" xmlns="http://www.w3.org/2000/svg" xmlns:xlink="http://www.w3.org/1999/xlink" x="0px" y="0px"
	 viewBox="0 0 48 48" enable-background="new 0 0 48 48" xml:space="preserve">
<g>
	<path fill="#40596B" d="M38.6,48H9.4c-1.1,0-2-0.9-2-2V2c0-1.1,0.9-2,2-2h29.3c1.1,0,2,0.9,2,2v44C40.6,47.1,39.7,48,38.6,48z"/>
	<rect x="11.4" y="5.2" fill="#F2F2F2" width="25.3" height="34.1"/>
	<path fill="#334A5E" d="M28.8,3.4h-9.7c-0.4,0-0.8-0.3-0.8-0.8l0,0c0-0.4,0.3-0.8,0.8-0.8h9.7c0.4,0,0.8,0.3,0.8,0.8l0,0
		C29.6,3,29.3,3.4,28.8,3.4z"/>
	<circle fill="#334A5E" cx="24" cy="43.6" r="2.6"/>
	<circle fill="#FFD15C" cx="24" cy="22.3" r="7.7"/>
	<circle fill="#F8B64C" cx="24" cy="22.3" r="6.3"/>
	<g>
		<path fill="#FFD15C" d="M23.6,25v-2.4c-0.8-0.2-1.3-0.5-1.7-1c-0.4-0.4-0.5-1-0.5-1.6c0-0.6,0.2-1.2,0.6-1.6
			c0.4-0.4,0.9-0.7,1.6-0.7v-0.6h0.8v0.6c0.6,0.1,1.1,0.3,1.5,0.6c0.4,0.3,0.6,0.8,0.7,1.4l-1.5,0.2c-0.1-0.5-0.3-0.8-0.7-0.9v2.3
			c0.9,0.3,1.6,0.6,1.9,1c0.3,0.4,0.5,0.9,0.5,1.5c0,0.7-0.2,1.3-0.6,1.8c-0.4,0.5-1,0.8-1.8,0.9v1.1h-0.8v-1.1
			c-0.7-0.1-1.2-0.3-1.6-0.7c-0.4-0.4-0.7-1-0.8-1.8l1.5-0.2c0.1,0.3,0.2,0.6,0.3,0.8C23.2,24.7,23.4,24.9,23.6,25z M23.6,18.9
			c-0.2,0.1-0.4,0.2-0.5,0.4c-0.1,0.2-0.2,0.4-0.2,0.6c0,0.2,0.1,0.4,0.2,0.6c0.1,0.2,0.3,0.3,0.6,0.4V18.9z M24.4,25.1
			c0.3-0.1,0.5-0.2,0.7-0.4c0.2-0.2,0.3-0.5,0.3-0.8c0-0.3-0.1-0.5-0.2-0.7c-0.2-0.2-0.4-0.3-0.7-0.4V25.1z"/>
	</g>
</g>
</svg>
