<?xml version="1.0" encoding="utf-8"?>
<!-- Generator: Adobe Illustrator 20.1.0, SVG Export Plug-In . SVG Version: 6.00 Build 0)  -->
<!DOCTYPE svg PUBLIC "-//W3C//DTD SVG 1.1//EN" "http://www.w3.org/Graphics/SVG/1.1/DTD/svg11.dtd">
<svg version="1.1" id="Layer_1" xmlns="http://www.w3.org/2000/svg" xmlns:xlink="http://www.w3.org/1999/xlink" x="0px" y="0px"
	 viewBox="0 0 49 49" enable-background="new 0 0 49 49" xml:space="preserve">
<g>
	<path fill="#F2F2F2" d="M34.4,20.9H0.5v25.9c0,1,0.8,1.7,1.7,1.7h32.2V20.9z"/>
	<path fill="#E2E2E2" d="M48.5,8.3H34.4v40.2h12.1c1.1,0,2-0.9,2-2V8.3z"/>
	<polygon fill="#CDD6E0" points="48.5,8.3 34.4,8.3 37.1,0.5 45.8,0.5 	"/>
	<polygon fill="#CDD6E0" points="11.8,20.9 0.5,20.9 11.8,12 	"/>
	<polygon fill="#CDD6E0" points="23.1,20.9 11.8,20.9 23.1,12 	"/>
	<polygon fill="#CDD6E0" points="34.4,20.9 23.1,20.9 34.4,12 	"/>
	<rect x="3.6" y="25.2" fill="#54C0EB" width="5.1" height="5.1"/>
	<rect x="14.9" y="25.2" fill="#54C0EB" width="5.1" height="5.1"/>
	<rect x="26.2" y="25.2" fill="#54C0EB" width="5.1" height="5.1"/>
	<g>
		<rect x="11" y="35.5" fill="#CDD6E0" width="13" height="13"/>
	</g>
</g>
</svg>
