<?xml version="1.0" encoding="utf-8"?>
<!-- Generator: Adobe Illustrator 18.0.0, SVG Export Plug-In . SVG Version: 6.00 Build 0)  -->
<!DOCTYPE svg PUBLIC "-//W3C//DTD SVG 1.1//EN" "http://www.w3.org/Graphics/SVG/1.1/DTD/svg11.dtd">
<svg version="1.1" id="Layer_1" xmlns="http://www.w3.org/2000/svg" xmlns:xlink="http://www.w3.org/1999/xlink" x="0px" y="0px"
	 viewBox="0 0 48 48" enable-background="new 0 0 48 48" xml:space="preserve">
<g>
	<g>
		<path fill="#344A5E" d="M12.7,11.4L3.8,1.3C3.3,0.7,2.5,0.7,2,1.2C1.5,1.6,1.5,2.4,1.9,2.9l7.4,8.4H12.7z"/>
		<g>
			<g>
				<path fill="#E8EAE9" d="M2.1,13.9C-1,10.5-0.6,5.2,2.8,2.1s8.8-2.7,11.8,0.8L2.1,13.9z"/>
			</g>
		</g>
		<path fill="#344A5E" d="M38.7,11.4l7.4-8.4c0.5-0.5,0.4-1.3-0.1-1.8c-0.5-0.5-1.3-0.4-1.8,0.1l-8.9,10.1H38.7z"/>
		<g>
			<g>
				<path fill="#E8EAE9" d="M45.9,13.9c3.1-3.5,2.7-8.8-0.8-11.8s-8.8-2.7-11.8,0.8L45.9,13.9z"/>
			</g>
		</g>
		<polygon fill="#415A6B" points="12.7,42.9 9.2,48 15.6,48 19.7,42.9 		"/>
		<g>
			<polygon fill="#415A6B" points="29,42.9 33,48 39.4,48 35.9,42.9 			"/>
		</g>
		<g>
			<circle fill="#F3705A" cx="24" cy="25.6" r="21.2"/>
			<circle fill="#FFFFFF" cx="24" cy="25.6" r="16.5"/>
			<g>
				<path fill="#FFD15C" d="M25.3,24.3v-8.1c0-0.7-0.6-1.3-1.3-1.3s-1.3,0.6-1.3,1.3v9.4L25.3,24.3z"/>
			</g>
			<g>
				<g>
					<g>
						<circle fill="#E8EAE9" cx="24" cy="12" r="0.8"/>
					</g>
					<g>
						<circle fill="#E8EAE9" cx="24" cy="39.1" r="0.8"/>
					</g>
				</g>
				<g>
					<g>
						<circle fill="#E8EAE9" cx="37.6" cy="25.6" r="0.8"/>
					</g>
					<g>
						<circle fill="#E8EAE9" cx="10.4" cy="25.6" r="0.8"/>
					</g>
				</g>
			</g>
			<path fill="#8AD7F8" d="M22.7,25.6c0,0.7,0.6,1.3,1.3,1.3h6.3c0.7,0,1.3-0.6,1.3-1.3c0-0.7-0.6-1.3-1.3-1.3h-5L22.7,25.6z"/>
			<circle fill="#415A6B" cx="24" cy="25.6" r="2.7"/>
			<circle fill="#344A5E" cx="24" cy="25.6" r="1.3"/>
		</g>
	</g>
</g>
</svg>
