<?xml version="1.0" encoding="utf-8"?>
<!-- Generator: Adobe Illustrator 18.0.0, SVG Export Plug-In . SVG Version: 6.00 Build 0)  -->
<!DOCTYPE svg PUBLIC "-//W3C//DTD SVG 1.1//EN" "http://www.w3.org/Graphics/SVG/1.1/DTD/svg11.dtd">
<svg version="1.1" id="Layer_1" xmlns="http://www.w3.org/2000/svg" xmlns:xlink="http://www.w3.org/1999/xlink" x="0px" y="0px"
	 viewBox="0 0 48 48" enable-background="new 0 0 48 48" xml:space="preserve">
<g>
	<g>
		<path fill="#ACB3BA" d="M24,35.3C24,35.3,24,35.3,24,35.3L24,35.3C24,35.3,24,35.3,24,35.3z"/>
		<path fill="#ACB3BA" d="M24,35.3L24,35.3C24,35.3,24,35.3,24,35.3C24,35.3,24,35.3,24,35.3z"/>
		<path fill="#F8B64C" d="M17,31.5C17.1,31.6,17.1,31.6,17,31.5L17,31.5z"/>
		<path fill="#F8B64C" d="M26.8,34.6"/>
		<path fill="#F8B64C" d="M31.1,31.5C31,31.6,31,31.6,31.1,31.5L31.1,31.5z"/>
		
			<ellipse transform="matrix(0.9962 -8.715574e-002 8.715574e-002 0.9962 -1.519 1.3512)" fill="#F8B64C" cx="14.7" cy="18.1" rx="2.3" ry="3.3"/>
		
			<ellipse transform="matrix(0.9962 8.715574e-002 -8.715574e-002 0.9962 1.7017 -2.8342)" fill="#F8B64C" cx="33.3" cy="18.1" rx="2.3" ry="3.3"/>
		<path fill="#FFD15C" d="M14.6,8.8c-0.6,1.4-1,2.9-1,4.4v3.1c0,0.8,0,1.6,0.1,2.4v0c0.5,4.1,2.2,7.9,5,10.9l1,1.1
			c0.9,1,2.2,1.6,3.5,1.6h1.5c1.3,0,2.6-0.6,3.5-1.6l1-1.1c2.8-3,4.5-6.8,5-10.9c0.1-0.8,0.1-1.6,0.1-2.4v-3.1c0-1.6-0.4-3.1-1-4.4
			H14.6z"/>
		<path fill="#CDD6E0" d="M31,31.5"/>
		<path fill="#F8B64C" d="M29.3,29.6l-1,1.1c-0.9,1-2.2,1.6-3.5,1.6h-1.5c-1.4,0-2.6-0.6-3.5-1.6l-1-1.1c-0.6-0.7-1.2-1.4-1.8-2.2
			v4.1l7,9.5l7.1-9.5v-4.1C30.5,28.2,29.9,28.9,29.3,29.6z"/>
		<path fill="#40596B" d="M17.6,10.1L15,11.3c0.1,1.9-1.3,2-1.3,2c-0.5,2.2-0.1,4.2,0,5.4l1.4,0.5c-0.2-1.3-0.1-3,0.6-3.9
			C15.7,15.3,15.2,11.1,17.6,10.1z"/>
		<path fill="#40596B" d="M34.1,10.1h-3.6c0.6,0.3,1.3,1,1,2.4c0,0,0.1,3.2,1.5,3.9l-0.1,2.9l1.4-0.4c0.3-1.1,0.1-7.9,0.1-7.9
			C34.3,10.6,34.2,10.3,34.1,10.1z"/>
		<path fill="#40596B" d="M20.4,10.1c1.3,0.2,3.7,0.5,7.3,0H20.4z"/>
		<path fill="#FF7058" d="M0.2,48h47.6v-3.6c0-3.1-1.8-6-4.7-7.3l-12.1-5.6h0l0,0c0,0.1-0.1,0.1-0.1,0.1c-1.7,2.3-4.3,3.5-7,3.5
			c-2.6,0-5.2-1.2-7-3.5c0,0,0,0-0.1-0.1h0l0,0h0L4.9,37.1c-2.9,1.3-4.7,4.2-4.7,7.3V48z"/>
	</g>
	<g>
		<path fill="#FFD15C" d="M24,2c-6.1,0-11,4.9-11,11h22C35,6.9,30.1,2,24,2z"/>
		<path fill="#F8B64C" d="M21.3,12.1l-2-7.5C18.9,3.1,21,0,24,0l0,0c3,0,5.1,3.1,4.7,4.5l-2,7.5H21.3z"/>
		<path fill="#FF7058" d="M35.1,14.3H12.9c-0.6,0-1-0.5-1-1v-0.9c0-0.6,0.5-1,1-1h22.1c0.6,0,1,0.5,1,1v0.9
			C36.1,13.9,35.6,14.3,35.1,14.3z"/>
	</g>
</g>
</svg>
