<?xml version="1.0" encoding="utf-8"?>
<!-- Generator: Adobe Illustrator 18.0.0, SVG Export Plug-In . SVG Version: 6.00 Build 0)  -->
<!DOCTYPE svg PUBLIC "-//W3C//DTD SVG 1.1//EN" "http://www.w3.org/Graphics/SVG/1.1/DTD/svg11.dtd">
<svg version="1.1" id="Layer_1" xmlns="http://www.w3.org/2000/svg" xmlns:xlink="http://www.w3.org/1999/xlink" x="0px" y="0px"
	 viewBox="0 0 48 48" enable-background="new 0 0 48 48" xml:space="preserve">
<g>
	<path fill="#F2F2F2" d="M45.6,36.1H2.4c-1.3,0-2.4,1.1-2.4,2.4c0,1.3,1.1,2.4,2.4,2.4h43.2c1.3,0,2.4-1.1,2.4-2.4
		C48,37.2,46.9,36.1,45.6,36.1z"/>
	<polygon fill="#CDD6E0" points="39.6,43.2 8.4,43.2 4.3,40.9 43.7,40.9 	"/>
	<path fill="#40596B" d="M43.4,4.8H4.6c-1.1,0-2,0.9-2,2v29.3h42.8V6.8C45.4,5.7,44.5,4.8,43.4,4.8z"/>
	<rect x="6.6" y="8.8" fill="#FFFFFF" width="34.8" height="23.3"/>
	<g>
		<circle fill="#CDD6E0" cx="21.5" cy="38.5" r="0.8"/>
		<circle fill="#CDD6E0" cx="24" cy="38.5" r="0.8"/>
		<circle fill="#CDD6E0" cx="26.5" cy="38.5" r="0.8"/>
	</g>
	<polygon opacity="0.1" fill="#231F20" points="43.7,40.9 41.7,42 6.3,42 4.3,40.9 	"/>
	<g>
		<rect x="13" y="29.6" fill="#FF7058" width="22" height="1.2"/>
		<g>
			<rect x="30.8" y="16.4" fill="#FFD15C" width="2.6" height="12.6"/>
			<rect x="26.7" y="21" fill="#40596B" width="2.6" height="8"/>
			<rect x="22.7" y="23.6" fill="#ACB3BA" width="2.6" height="5.4"/>
			<rect x="18.7" y="19.7" fill="#CDD6E0" width="2.6" height="9.3"/>
			<rect x="14.7" y="25.7" fill="#F2F2F2" width="2.6" height="3.3"/>
		</g>
		<g>
			<g>
				<polygon fill="#F2F2F2" points="16.9,19.5 16,18.6 22,12.6 25.9,16.5 31.1,11.3 32,12.2 25.9,18.3 22,14.4 				"/>
			</g>
			<g>
				<circle fill="#84DBFF" cx="16.4" cy="19" r="1.7"/>
				<circle fill="#84DBFF" cx="22" cy="13.5" r="1.7"/>
				<circle fill="#84DBFF" cx="25.9" cy="17.4" r="1.7"/>
				<circle fill="#84DBFF" cx="31.6" cy="11.8" r="1.7"/>
			</g>
		</g>
	</g>
</g>
</svg>
