<?xml version="1.0" encoding="utf-8"?>
<!-- Generator: Adobe Illustrator 18.0.0, SVG Export Plug-In . SVG Version: 6.00 Build 0)  -->
<!DOCTYPE svg PUBLIC "-//W3C//DTD SVG 1.1//EN" "http://www.w3.org/Graphics/SVG/1.1/DTD/svg11.dtd">
<svg version="1.1" id="Layer_1" xmlns="http://www.w3.org/2000/svg" xmlns:xlink="http://www.w3.org/1999/xlink" x="0px" y="0px"
	 viewBox="0 0 48 48" enable-background="new 0 0 48 48" xml:space="preserve">
<g>
	<g>
		<path fill="#ACB3BA" d="M5.6,19c-0.2,0-0.5-0.1-0.6-0.3c-0.2-0.3-0.1-0.8,0.2-1l18.4-12c0.3-0.2,0.8-0.1,1,0.2
			c0.2,0.3,0.1,0.8-0.2,1L6,18.9C5.9,19,5.7,19,5.6,19z"/>
	</g>
	<g>
		<path fill="#40596B" d="M24,8.4c-1.3,0-2.4-1.1-2.4-2.4c0-0.3,0.3-0.6,0.6-0.6s0.6,0.3,0.6,0.6c0,0.7,0.5,1.2,1.2,1.2
			s1.2-0.5,1.2-1.2S24.7,4.7,24,4.7c-0.3,0-0.6-0.3-0.6-0.6V2.5c0-0.3,0.3-0.6,0.6-0.6s0.6,0.3,0.6,0.6v1c1,0.3,1.8,1.2,1.8,2.4
			C26.4,7.3,25.3,8.4,24,8.4z"/>
	</g>
	<polygon fill="#FF7058" points="26.5,3.3 21.5,3.3 18.5,1.3 18.5,0 29.5,0 29.5,1.3 	"/>
	<g>
		<path fill="#ACB3BA" d="M42.4,19c-0.1,0-0.3,0-0.4-0.1l-18.4-12c-0.3-0.2-0.4-0.7-0.2-1c0.2-0.3,0.7-0.4,1-0.2l18.4,12
			c0.3,0.2,0.4,0.7,0.2,1C42.9,18.9,42.6,19,42.4,19z"/>
	</g>
	<rect x="0" y="16.2" fill="#F8B64C" width="5.6" height="31.8"/>
	<rect x="42.4" y="16.2" fill="#F8B64C" width="5.6" height="31.8"/>
	<rect x="5.6" y="18.3" fill="#FFD15C" width="36.8" height="29.7"/>
	<g>
		<g>
			<path fill="#F8B64C" d="M24,43.4L24,43.4c-0.8,0-1.5-0.7-1.5-1.5V24.4c0-0.8,0.7-1.5,1.5-1.5h0c0.8,0,1.5,0.7,1.5,1.5v17.5
				C25.5,42.7,24.8,43.4,24,43.4z"/>
			<path fill="#F8B64C" d="M31,43.4L31,43.4c-0.8,0-1.5-0.7-1.5-1.5V24.4c0-0.8,0.7-1.5,1.5-1.5h0c0.8,0,1.5,0.7,1.5,1.5v17.5
				C32.5,42.7,31.8,43.4,31,43.4z"/>
			<path fill="#F8B64C" d="M38,43.4L38,43.4c-0.8,0-1.5-0.7-1.5-1.5V24.4c0-0.8,0.7-1.5,1.5-1.5h0c0.8,0,1.5,0.7,1.5,1.5v17.5
				C39.5,42.7,38.8,43.4,38,43.4z"/>
		</g>
		<g>
			<path fill="#F8B64C" d="M10,43.4L10,43.4c-0.8,0-1.5-0.7-1.5-1.5V24.4c0-0.8,0.7-1.5,1.5-1.5h0c0.8,0,1.5,0.7,1.5,1.5v17.5
				C11.5,42.7,10.9,43.4,10,43.4z"/>
			<path fill="#F8B64C" d="M17,43.4L17,43.4c-0.8,0-1.5-0.7-1.5-1.5V24.4c0-0.8,0.7-1.5,1.5-1.5h0c0.8,0,1.5,0.7,1.5,1.5v17.5
				C18.5,42.7,17.9,43.4,17,43.4z"/>
		</g>
	</g>
</g>
</svg>
