<?xml version="1.0" encoding="utf-8"?>
<!-- Generator: Adobe Illustrator 20.1.0, SVG Export Plug-In . SVG Version: 6.00 Build 0)  -->
<!DOCTYPE svg PUBLIC "-//W3C//DTD SVG 1.1//EN" "http://www.w3.org/Graphics/SVG/1.1/DTD/svg11.dtd">
<svg version="1.1" id="Layer_1" xmlns="http://www.w3.org/2000/svg" xmlns:xlink="http://www.w3.org/1999/xlink" x="0px" y="0px"
	 viewBox="0 0 49 49" enable-background="new 0 0 49 49" xml:space="preserve">
<g>
	<path fill="#F2F2F2" d="M46.5,0.5h-44c-1.1,0-2,0.9-2,2v44c0,1.1,0.9,2,2,2h44c1.1,0,2-0.9,2-2v-44C48.5,1.4,47.6,0.5,46.5,0.5z"/>
	<rect x="4" y="4" fill="#84DBFF" width="41" height="33.1"/>
	<path fill="#334A5E" d="M25.5,37.1H4v-8.4C5.7,28.2,7.6,28,9.5,28c2.4,0,4.8,0.4,6.8,1.2c0.6,0.2,1.1,0.4,1.6,0.7
		C21.4,31.5,24.1,34,25.5,37.1z"/>
	<path fill="#40596B" d="M45,26.5v10.6H12.7c0.9-2.8,2.8-5.3,5.3-7.3c4.1-3.3,9.9-5.3,16.5-5.3C38.2,24.5,41.9,25.2,45,26.5z"/>
	<circle fill="#FFFFFF" cx="12.2" cy="12.2" r="4.1"/>
	<path fill="#FFFFFF" d="M42,10.2c0.1-0.3,0.1-0.6,0.1-0.9c0-1.6-1.3-3-3-3c-1.1,0-2.1,0.6-2.6,1.5c-0.3-0.2-0.7-0.2-1.1-0.2
		c-1.4,0-2.5,1-2.7,2.3c-0.8,0.2-1.4,0.9-1.4,1.7c0,1,0.8,1.8,1.8,1.8H41c1,0,1.8-0.8,1.8-1.8C42.8,11,42.5,10.5,42,10.2z"/>
</g>
</svg>
