<?xml version="1.0" encoding="utf-8"?>
<!-- Generator: Adobe Illustrator 18.0.0, SVG Export Plug-In . SVG Version: 6.00 Build 0)  -->
<!DOCTYPE svg PUBLIC "-//W3C//DTD SVG 1.1//EN" "http://www.w3.org/Graphics/SVG/1.1/DTD/svg11.dtd">
<svg version="1.1" id="Layer_1" xmlns="http://www.w3.org/2000/svg" xmlns:xlink="http://www.w3.org/1999/xlink" x="0px" y="0px"
	 viewBox="0 0 512 512" enable-background="new 0 0 512 512" xml:space="preserve">
<g>
	<path fill="#F2F2F2" d="M510,115.5v261.8L377.2,510H23.2C11.5,510,2,500.5,2,488.8V115.5H510z"/>
	<path fill="#F2705B" d="M488.8,2h-453C17.2,2,2,17.2,2,35.9v79.6h508V23.2C510,11.5,500.5,2,488.8,2z"/>
	<polygon fill="#CDD5DF" points="118,190.8 118,268.1 510,268.1 510,274.1 118,274.1 118,351.4 510,351.4 510,357.4 118,357.4 
		118,434.7 421,434.7 415.1,440.7 118,440.7 118,510 112.1,510 112.1,440.7 2,440.7 2,434.7 112.1,434.7 112.1,357.4 2,357.4 
		2,351.4 112.1,351.4 112.1,274.1 2,274.1 2,268.1 112.1,268.1 112.1,190.8 2,190.8 2,184.8 112.1,184.8 112.1,115.5 118,115.5 
		118,184.8 510,184.8 510,190.8 	"/>
	<path fill="#ABB2B9" d="M510,377.3H398.4c-11.7,0-21.2,9.5-21.2,21.2V510L510,377.3z"/>
</g>
</svg>
