<?xml version="1.0" encoding="utf-8"?>
<!-- Generator: Adobe Illustrator 18.0.0, SVG Export Plug-In . SVG Version: 6.00 Build 0)  -->
<!DOCTYPE svg PUBLIC "-//W3C//DTD SVG 1.1//EN" "http://www.w3.org/Graphics/SVG/1.1/DTD/svg11.dtd">
<svg version="1.1" id="Layer_1" xmlns="http://www.w3.org/2000/svg" xmlns:xlink="http://www.w3.org/1999/xlink" x="0px" y="0px"
	 viewBox="0 0 48 48" enable-background="new 0 0 48 48" xml:space="preserve">
<g>
	<g>
		<path fill="#F2F2F2" d="M21.5,22.7v-4.3H8.1v4.3c0,7.4,2.1,12.5,6,18.7v5.3h-1.8c-0.4,0-0.7,0.3-0.7,0.7S12,48,12.4,48h4.9
			c0.4,0,0.7-0.3,0.7-0.7s-0.3-0.7-0.7-0.7h-1.8v-5.3C19.4,35.2,21.5,30.2,21.5,22.7z"/>
		<path fill="#84DBFF" d="M9.8,21.8v0.9c0,5.6,1.3,9.8,3.6,14.1h2.9c2.3-4.3,3.6-8.4,3.6-14.1v-0.9H9.8z"/>
	</g>
	<path fill="#40596B" d="M37.4,18.6c-0.6-1.3-1.1-2.6-1.5-4c-0.4-1.5-0.7-3.5-0.7-5.3h-5.5c0,1.8-0.3,3.8-0.7,5.3
		c-0.3,1.4-0.9,2.7-1.5,4C25.3,23.5,25,28,25,28v16.9c0,1.5,1.2,3.1,2.8,3.1h9.3c1.5,0,2.8-1.6,2.8-3.1V28
		C39.9,28,39.7,23.5,37.4,18.6z"/>
	<path fill="#FFD15C" d="M34.2,0h-3.5c-0.6,0-1,0.4-1,1v8.4h5.5V1C35.2,0.4,34.8,0,34.2,0z"/>
	<path fill="#F8B64C" d="M35.2,1.3h-5.5c-0.2,0-0.4,0.2-0.4,0.4V3c0,0.2,0.2,0.4,0.4,0.4h5.5c0.2,0,0.4-0.2,0.4-0.4V1.7
		C35.6,1.5,35.4,1.3,35.2,1.3z"/>
	<path fill="#F2F2F2" d="M39.9,42.8c-4.8,1.6-10,1.6-14.9,0c0-4.1,0-8.2,0-12.4c4.8-1.6,10-1.6,14.9,0
		C39.9,34.5,39.9,38.6,39.9,42.8z"/>
	<circle fill="#FFD15C" cx="32.5" cy="36.6" r="4.7"/>
</g>
</svg>
