<?xml version="1.0" encoding="utf-8"?>
<!-- Generator: Adobe Illustrator 18.0.0, SVG Export Plug-In . SVG Version: 6.00 Build 0)  -->
<!DOCTYPE svg PUBLIC "-//W3C//DTD SVG 1.1//EN" "http://www.w3.org/Graphics/SVG/1.1/DTD/svg11.dtd">
<svg version="1.1" id="Layer_1" xmlns="http://www.w3.org/2000/svg" xmlns:xlink="http://www.w3.org/1999/xlink" x="0px" y="0px"
	 viewBox="0 0 48 48" enable-background="new 0 0 48 48" xml:space="preserve">
<g>
	<path fill="#F2F2F2" d="M6.1,35.2l-4.7,4.7c-1.9,1.9-1.9,4.9,0,6.7l0,0c1.9,1.9,4.9,1.9,6.7,0l4.7-4.7c2-2,4.8-3.2,7.6-3.2l0,0
		c2.9,0,5.6-1.2,7.6-3.2l16.7-16.7c4.3-4.3,4.3-11.3,0-15.6v0c-4.3-4.3-11.3-4.3-15.6,0L12.5,20c-2,2-3.2,4.8-3.2,7.6l0,0
		C9.2,30.4,8.1,33.2,6.1,35.2z"/>
	<path fill="#ACB3BA" d="M31,1.8L46.2,17c2.8-4.3,2.3-10-1.5-13.7l0,0C41-0.5,35.3-1,31,1.8z"/>
	<path fill="#FF7058" d="M2,39.3l-0.6,0.6c-1.9,1.9-1.9,4.9,0,6.7c1.9,1.9,4.9,1.9,6.7,0L8.7,46L2,39.3z"/>
	<path fill="#54C0EB" d="M34.8,11.8l1.5,1.5c1.5,1.5,1.5,3.8,0,5.3L26.1,28.7c-1.5,1.5-3.8,1.5-5.3,0l-1.5-1.5
		c-1.5-1.5-1.5-3.8,0-5.3l10.2-10.2C30.9,10.3,33.3,10.3,34.8,11.8z"/>
	<g>
		<path fill="#FFFFFF" d="M20.6,20.7l3.4,8.6c-0.6,0.1-1.2,0-1.8-0.1L19.4,22c0.2-0.3,0.4-0.6,0.7-0.8L20.6,20.7z"/>
	</g>
	<g>
		<path fill="#FFFFFF" d="M22.7,18.6l3.8,9.7c-0.5,0.4-1,0.7-1.5,0.9c0,0-0.1,0-0.1,0L21.3,20L22.7,18.6z"/>
	</g>
</g>
</svg>
