<?xml version="1.0" encoding="utf-8"?>
<!-- Generator: Adobe Illustrator 19.0.1, SVG Export Plug-In . SVG Version: 6.00 Build 0)  -->
<svg version="1.1" id="Layer_1" xmlns="http://www.w3.org/2000/svg" xmlns:xlink="http://www.w3.org/1999/xlink" x="0px" y="0px"
	 viewBox="0 0 48 48" style="enable-background:new 0 0 48 48;" xml:space="preserve">
<style type="text/css">
	.st0{fill:#415A6B;}
	.st1{fill:#ADB3BA;}
	.st2{fill:#E8EAE9;}
	.st3{fill:#55C0EB;}
	.st4{fill:#F3705A;}
	.st5{fill:#FFFFFF;}
	.st6{fill:#FFD15C;}
	.st7{fill:#344A5E;}
	.st8{fill:#CED6E0;}
	.st9{fill:#F05540;}
	.st10{fill:#F7B64C;}
	.st11{fill:#F3F3F3;}
	.st12{fill:#66C6B9;}
	.st13{fill:#4ABAA5;}
	.st14{fill:#8AD7F8;}
	.st15{fill:none;}
	.st16{fill:#E53D35;}
</style>
<g>
	<g>
		<g>
			<g>
				<polygon class="st1" points="27.6,48 28.8,47.1 28.8,32.7 15.8,32.7 14.5,48 				"/>
			</g>
			<g>
				<polygon class="st0" points="23.9,48 22.3,37.1 19.1,37.1 17.5,48 				"/>
			</g>
			<g>
				<path class="st13" d="M18.2,48c-2.1-8.3-4.8-17.2-4.8-17.2l-2.2-0.2l-8.1,3c0,0-1.5,0.1-1.9,3.3C0.9,39.6,0.3,45.5,0,48H18.2z"
					/>
				<path class="st13" d="M41.3,48c-0.3-2.5-0.9-8.4-1.1-11.1c-0.3-3.2-1.9-3.3-1.9-3.3l-8.1-3L28,30.8c0,0-2.8,8.9-4.8,17.2H41.3z"
					/>
			</g>
			<g>
				<g>
					<polygon class="st7" points="22.3,37.1 23.7,35.7 20.7,32.7 17.6,35.7 19.1,37.1 					"/>
				</g>
			</g>
			<g>
				<g>
					<g>
						<g>
							<path class="st11" d="M26,26.8c0,0,0,1.5-0.9,2.3c-0.9,0.8-4.4,3.6-4.4,3.6l3.2,5.6l4.1-8.5C28,29.7,27.2,27.3,26,26.8z"/>
						</g>
						<g>
							<path class="st12" d="M23.7,38.8c-0.4,2-1.4,5.3-2,9.2h3.1c0.2-0.6,0.4-1.1,0.6-1.5C26.6,43.4,31,35,31,35l-2.3-1.7l2.2,0
								c0,0-0.1-2.6-1.4-3.5c-1.3-0.9-1.6-1.2-2.1-2c-0.5-0.7-1-0.8-1-0.8s0.8,1.7,0.6,3C26.6,31.2,24.5,35,23.7,38.8z"/>
						</g>
					</g>
				</g>
				<g>
					<g>
						<g>
							<path class="st11" d="M15.3,26.8c0,0,0,1.5,0.9,2.3c0.9,0.8,4.4,3.6,4.4,3.6l-3.2,5.6l-4.1-8.5
								C13.3,29.7,14.1,27.3,15.3,26.8z"/>
						</g>
						<g>
							<path class="st12" d="M16,46.5c0.2,0.4,0.4,0.9,0.6,1.5h3.1c-0.7-3.9-1.6-7.2-2-9.2c-0.8-3.8-2.9-7.6-3.2-8.9
								c-0.2-1.3,0.6-3,0.6-3s-0.6,0.1-1,0.8c-0.5,0.8-0.9,1.1-2.1,2c-1.3,0.9-1.4,3.5-1.4,3.5l2.2,0L10.4,35
								C10.4,35,14.7,43.4,16,46.5z"/>
						</g>
					</g>
				</g>
			</g>
			<g>
				<g>
					<path class="st10" d="M15.3,23.6l0,3.1c0,0,0,1.5,0.9,2.3c0.9,0.8,4.4,3.6,4.4,3.6s3.5-2.8,4.4-3.6c0.9-0.8,0.9-2.3,0.9-2.3
						l0-3.1H15.3z"/>
				</g>
			</g>
			<g>
				<g>
					<path class="st6" d="M27.6,20.6c0,0-1.3,9.2-6.9,9.2s-6.4-7.4-6.4-8.1c0-0.7-0.9-5.7,0.6-9.2s7.5-4,10.1-2.7s3.1,1.6,3.2,3.4
						S28.1,19.4,27.6,20.6z"/>
				</g>
				<g>
					<g>
						<g>
							<path class="st6" d="M29.6,19.9c-0.2,1.4-0.9,2.6-1.6,2.6c-0.7,0-1.2-1.2-1-2.6c0.2-1.4,0.9-2.6,1.6-2.6
								C29.3,17.3,29.7,18.4,29.6,19.9z"/>
						</g>
					</g>
					<g>
						<g>
							<path class="st6" d="M11.9,19.9c0.2,1.4,0.9,2.6,1.6,2.6c0.7,0,1.2-1.2,1-2.6c-0.2-1.4-0.9-2.6-1.6-2.6
								C12.2,17.3,11.8,18.4,11.9,19.9z"/>
						</g>
					</g>
				</g>
				<g>
					<g>
						<path class="st0" d="M28.8,18.3c-0.9,1.5-1.1,2.3-1.1,2.3s0.4-3.8-0.6-5.3c-0.5-0.8-0.4-1.5-0.3-2.2c0-0.9-0.8-1.5-1.6-1.4
							c-2.6,0.5-5.2,0.5-7.7,0c-0.9-0.2-1.7,0.5-1.6,1.4c0,0.7-0.4,1.5-0.9,2.2c-0.8,1.2-0.7,4-0.7,4.9c-0.1-0.5-0.5-1-0.9-1.4
							c-0.9-1-1.3-2.3-1.1-3.6c0,0,0,0,0,0c0.2-1.4,0.9-4.8,2.3-6C15.7,7.9,19,5.3,23,6.4c4,1.2,6.3,6.1,6.6,7.6
							C29.9,15.5,29.6,16.8,28.8,18.3z"/>
					</g>
				</g>
			</g>
		</g>
		<g>
			<g>
				<path class="st4" d="M48,8.4c0,4.6-4.1,8.4-9.3,8.4c-0.6,0-1.3-0.1-1.9-0.2l-5.1,3.2v-5.8c-1.4-1.5-2.3-3.4-2.3-5.5
					c0-4.6,4.1-8.4,9.3-8.4C43.9,0,48,3.7,48,8.4z"/>
			</g>
			<g>
				<path class="st5" d="M37.8,3.9L37.8,3.9c0-0.5,0.4-1,1-1h0c0.5,0,1,0.4,1,1v0c0,0.5-0.4,1-1,1h0C38.2,4.9,37.8,4.4,37.8,3.9z
					 M37.8,13.8V5.9h1.9v7.8H37.8z"/>
			</g>
		</g>
	</g>
</g>
</svg>
