<?xml version="1.0" encoding="utf-8"?>
<!-- Generator: Adobe Illustrator 18.0.0, SVG Export Plug-In . SVG Version: 6.00 Build 0)  -->
<!DOCTYPE svg PUBLIC "-//W3C//DTD SVG 1.1//EN" "http://www.w3.org/Graphics/SVG/1.1/DTD/svg11.dtd">
<svg version="1.1" id="Layer_1" xmlns="http://www.w3.org/2000/svg" xmlns:xlink="http://www.w3.org/1999/xlink" x="0px" y="0px"
	 viewBox="0 0 48 48" enable-background="new 0 0 48 48" xml:space="preserve">
<g>
	<g>
		<g>
			<path fill="#F3F3F3" d="M2.5,0l25.2,0l11.1,11.1v34.4c0,1.4-1.1,2.5-2.5,2.5H2.5C1.1,48,0,46.9,0,45.5l0-43C0,1.1,1.1,0,2.5,0z"
				/>
			<g>
				<g>
					<rect x="4" y="27.1" fill="#CED6E0" width="30.7" height="2.2"/>
				</g>
				<g>
					<rect x="4" y="34.1" fill="#CED6E0" width="30.7" height="2.2"/>
				</g>
				<g>
					<rect x="4" y="41.1" fill="#CED6E0" width="30.7" height="2.2"/>
				</g>
			</g>
			<polygon fill="#CED6E0" points="27.7,0 38.7,11.1 27.7,11.1 			"/>
			<g>
				<path fill="#FFD15C" d="M14.7,3v9.5H5.1C5.1,7.3,9.4,3,14.7,3z"/>
				<path fill="#F3705A" d="M15.8,4.1c5.3,0,9.5,4.3,9.5,9.5s-4.3,9.5-9.5,9.5c-2.6,0-5-1.1-6.8-2.8l6.8-6.8V4.1z"/>
				<path fill="#55C0EB" d="M13.5,13.7l-6.8,6.8C5.1,18.7,4,16.3,4,13.7H13.5z"/>
			</g>
		</g>
	</g>
	<g>
		<g>
			<path fill="#415A6B" d="M46.9,27.4c0.7,0.3,1.1,1,1.1,1.8v7.1c0,5.7-4.1,10.5-9.6,11.6c-0.2,0-0.5,0-0.7,0
				c-5.6-1-9.6-5.9-9.6-11.6v-7.1c0-0.8,0.4-1.5,1.1-1.8C34.8,25,41.2,25,46.9,27.4z"/>
		</g>
		<path fill="#8AD7F8" d="M30.6,36.8c0-0.1,0-0.3,0-0.4v-6.7c2.4-1,4.9-1.5,7.4-1.5v8.6H30.6z"/>
		<g>
			<path fill="#FFFFFF" d="M38,28.2C38,28.2,38,28.2,38,28.2c2.5,0,5.1,0.5,7.4,1.5v6.7c0,0.1,0,0.3,0,0.4H38V28.2z"/>
			<path fill="#FFFFFF" d="M38,36.8v8.6c0,0,0,0,0,0c-4.2-0.8-7.2-4.3-7.4-8.6H38z"/>
		</g>
		<path fill="#8AD7F8" d="M45.4,36.8c-0.2,4.3-3.2,7.8-7.4,8.6v-8.6H45.4z"/>
	</g>
</g>
</svg>
