<?xml version="1.0" encoding="utf-8"?>
<!-- Generator: Adobe Illustrator 18.0.0, SVG Export Plug-In . SVG Version: 6.00 Build 0)  -->
<!DOCTYPE svg PUBLIC "-//W3C//DTD SVG 1.1//EN" "http://www.w3.org/Graphics/SVG/1.1/DTD/svg11.dtd">
<svg version="1.1" id="Layer_1" xmlns="http://www.w3.org/2000/svg" xmlns:xlink="http://www.w3.org/1999/xlink" x="0px" y="0px"
	 viewBox="0 0 48 48" enable-background="new 0 0 48 48" xml:space="preserve">
<g>
	<circle fill="#54C0EB" cx="5.8" cy="19.8" r="5.1"/>
	<path fill="#84DBFF" d="M5.8,19.8v6.5h36.3l0,0c0-3.6-2.9-6.5-6.5-6.5H5.8z"/>
	<rect x="3.9" y="26.3" fill="#E8EAEA" width="42" height="5.8"/>
	<path fill="#F2F2F2" d="M2.9,7.2L2.9,7.2C1.3,7.2,0,8.5,0,10.1v30.6h5.8V10.1C5.8,8.5,4.5,7.2,2.9,7.2z"/>
	<path fill="#F2F2F2" d="M42.2,23.8v17H48v-17c0-1.6-1.3-2.9-2.9-2.9l0,0C43.5,20.9,42.2,22.2,42.2,23.8z"/>
</g>
</svg>
