<?xml version="1.0" encoding="utf-8"?>
<!-- Generator: Adobe Illustrator 18.0.0, SVG Export Plug-In . SVG Version: 6.00 Build 0)  -->
<!DOCTYPE svg PUBLIC "-//W3C//DTD SVG 1.1//EN" "http://www.w3.org/Graphics/SVG/1.1/DTD/svg11.dtd">
<svg version="1.1" id="Layer_1" xmlns="http://www.w3.org/2000/svg" xmlns:xlink="http://www.w3.org/1999/xlink" x="0px" y="0px"
	 viewBox="0 0 48 48" enable-background="new 0 0 48 48" xml:space="preserve">
<g>
	<g>
		<path fill="#FF7058" d="M29.4,6.2C22-1.3,10.7-2.1,4.3,4.3S-1.3,22,6.1,29.4c5.7,5.7,13.6,7.5,19.9,5.2c1.7-0.6,3.6,0,4.7,1.4
			l7.3,9.6c2,2.7,6,3.2,8.4,0.8c2.4-2.4,2.1-6.3-0.6-8.3l-9.8-7.4c-1.4-1.1-2.1-3-1.4-4.7C36.9,19.8,35.1,11.9,29.4,6.2z"/>
		<path fill="#F8B64C" d="M26,34.6c1.7-0.6,3.6,0,4.7,1.4l0.9,1.2l5.6-5.6l-1.2-0.9c-1.4-1.1-2.1-3-1.4-4.7L26,34.6z"/>
		<path fill="#FFD15C" d="M30.7,36.1l7.3,9.6c2,2.7,6,3.2,8.4,0.8c2.4-2.4,2.1-6.3-0.6-8.3l-9.8-7.4L30.7,36.1z"/>
	</g>
	<circle fill="#F2F2F2" cx="16.5" cy="24.2" r="6"/>
	<ellipse fill="#FFFFFF" cx="16.5" cy="20.1" rx="1.3" ry="0.9"/>
	<path opacity="0.1" fill="#231F20" d="M16.5,30.2c-3.2,0-5.7-2.4-6-5.5c0,0.2,0,0.3,0,0.5c0,3.3,2.7,6,6,6s6-2.7,6-6
		c0-0.2,0-0.3,0-0.5C22.3,27.8,19.7,30.2,16.5,30.2z"/>
</g>
</svg>
