<?xml version="1.0" encoding="utf-8"?>
<!-- Generator: Adobe Illustrator 18.0.0, SVG Export Plug-In . SVG Version: 6.00 Build 0)  -->
<!DOCTYPE svg PUBLIC "-//W3C//DTD SVG 1.1//EN" "http://www.w3.org/Graphics/SVG/1.1/DTD/svg11.dtd">
<svg version="1.1" id="Layer_1" xmlns="http://www.w3.org/2000/svg" xmlns:xlink="http://www.w3.org/1999/xlink" x="0px" y="0px"
	 viewBox="0 0 48 48" enable-background="new 0 0 48 48" xml:space="preserve">
<g>
	<g>
		<path fill="#415A6B" d="M41.8,6.3H6.2c-1.9,0-3.4,1.5-3.4,3.4V37h42.3V9.7C45.2,7.8,43.6,6.3,41.8,6.3z"/>
		<rect x="6.2" y="9.7" fill="#FFD15C" width="35.5" height="23.9"/>
		<path fill="#CED6E0" d="M0,37L0,37c0,2.6,2.1,4.7,4.7,4.7h38.6c2.6,0,4.7-2.1,4.7-4.7v0H0z"/>
		<circle fill="#55C0EB" cx="24" cy="21.6" r="8.9"/>
		<path fill="#FFFFFF" d="M24,31c-5.2,0-9.4-4.2-9.4-9.4s4.2-9.4,9.4-9.4s9.4,4.2,9.4,9.4S29.2,31,24,31z M24,13.1
			c-4.7,0-8.5,3.8-8.5,8.5s3.8,8.5,8.5,8.5s8.5-3.8,8.5-8.5S28.7,13.1,24,13.1z"/>
		<path fill="#FFFFFF" d="M22.4,30.5h3.2c2-1.2,3.3-4.7,3.3-8.9c0-4.2-1.4-7.7-3.4-8.9h-3.1c-2,1.2-3.4,4.7-3.4,8.9
			C19,25.8,20.4,29.3,22.4,30.5z M24,13.1c2.2,0,4.1,3.9,4.1,8.5c0,4.6-1.9,8.5-4.1,8.5s-4.1-3.9-4.1-8.5C19.9,17,21.8,13.1,24,13.1
			z"/>
		<rect x="15.1" y="21.2" fill="#FFFFFF" width="17.9" height="0.8"/>
		<rect x="16.3" y="16.8" fill="#FFFFFF" width="15.4" height="0.8"/>
		<rect x="16.3" y="25.7" fill="#FFFFFF" width="15.4" height="0.8"/>
		<rect x="23.6" y="12.7" fill="#FFFFFF" width="0.8" height="17.9"/>
		<g>
			<polygon fill="#ADB3BA" points="28.8,39.2 19.2,39.2 17.7,37 30.3,37 			"/>
		</g>
	</g>
</g>
</svg>
