<?xml version="1.0" encoding="utf-8"?>
<!-- Generator: Adobe Illustrator 18.0.0, SVG Export Plug-In . SVG Version: 6.00 Build 0)  -->
<!DOCTYPE svg PUBLIC "-//W3C//DTD SVG 1.1//EN" "http://www.w3.org/Graphics/SVG/1.1/DTD/svg11.dtd">
<svg version="1.1" id="Layer_1" xmlns="http://www.w3.org/2000/svg" xmlns:xlink="http://www.w3.org/1999/xlink" x="0px" y="0px"
	 viewBox="0 0 48 48" enable-background="new 0 0 48 48" xml:space="preserve">
<g>
	<g>
		<g>
			<g>
				<g>
					<g>
						<g>
							<path fill="#F3705A" d="M31,31.8c0,0,17-12.5,17-22.1C48,4.3,44,0,39.1,0c-3.5,0-6.6,2.2-8,5.4C29.6,2.2,26.5,0,23,0
								c-4.9,0-8.9,4.3-8.9,9.7C14.1,19.4,31,31.8,31,31.8z"/>
						</g>
					</g>
				</g>
				<g>
					<g>
						<path fill="#F3705A" d="M34.5,34.1c-2.1,1.3-4.9,1.3-7,0c0.9-1.2,2.6-4.1,2.7-4.8c0.5,0,1.1,0,1.6,0
							C32,29.9,33.7,32.8,34.5,34.1z"/>
					</g>
				</g>
			</g>
			<g>
				<g>
					<path fill="#FFFFFF" d="M43.5,5.4c1.1,1.6,1.4,3.3,0.6,3.9c-0.7,0.6-2.2-0.2-3.3-1.8c-1.1-1.6-1.4-3.3-0.6-3.9
						C40.9,3,42.4,3.8,43.5,5.4z"/>
				</g>
			</g>
		</g>
		<g>
			<g>
				<g>
					<g>
						<path fill="#8AD7F8" d="M20.6,13c0,5.3-4.6,14.7-10.3,14.7C4.6,27.8,0,18.4,0,13s4.6-9.6,10.3-9.6C16,3.4,20.6,7.7,20.6,13z"
							/>
					</g>
					<g>
						<g>
							<path fill="#FFFFFF" d="M16.2,7.6c-0.3-0.3-0.7-0.6-1-0.8c-0.3-0.2-0.7-0.4-1-0.6c-0.3-0.1-0.6-0.3-0.9-0.4
								c-0.3-0.1-0.5-0.1-0.7-0.2c-0.3-0.1-0.5-0.1-0.6-0.1v3.3c0,0,0,0,0.1,0c0.1,0,0.3,0,0.5,0c0.2,0,0.4,0,0.7,0.1
								c0.2,0.1,0.5,0.1,0.8,0.2c0.2,0.1,0.5,0.2,0.8,0.3c0.1,0.1,0.3,0.2,0.4,0.3L16.2,7.6C16.2,7.6,16.2,7.6,16.2,7.6z"/>
						</g>
						<g>
							<path fill="#FFFFFF" d="M18.3,14.2c0,0.6-0.1,1.1-0.2,1.4c-0.1,0.3-0.1,0.5-0.1,0.5s0-0.8-0.3-1.9c-0.2-1.1-0.7-2.6-1.6-3.7
								c-0.1-0.1-0.1-0.1-0.2-0.2l1.1-1.8c0.2,0.4,0.5,0.7,0.6,1.1c0.3,0.8,0.5,1.6,0.6,2.4C18.4,12.9,18.4,13.6,18.3,14.2z"/>
						</g>
					</g>
				</g>
				<g>
					<g>
						<path fill="#8AD7F8" d="M13.4,30.5c-1.9,1-4.4,1-6.3,0c0.8-1,2.3-3.3,2.4-3.8c0.5,0,1,0,1.5,0C11.1,27.2,12.6,29.5,13.4,30.5z
							"/>
					</g>
				</g>
			</g>
			<g>
				<g>
					<g>
						<path fill="#415A6B" d="M10.3,28.5c-0.5,0-1-0.1-1.5-0.2c-0.2,0-0.3-0.2-0.3-0.4c0-0.2,0.2-0.3,0.5-0.3c0.9,0.2,1.7,0.2,2.7,0
							c0.2,0,0.4,0.1,0.4,0.3c0,0.2-0.1,0.4-0.3,0.4C11.3,28.5,10.8,28.5,10.3,28.5z"/>
					</g>
				</g>
				<g>
					<g>
						<path fill="#415A6B" d="M9.5,28.5c0,0-0.1,0-0.1,0c-0.2-0.1-0.3-0.3-0.2-0.5c0,0,0.2-0.5-0.1-1c-0.3-0.5-0.8-0.9-1.7-1.2
							c-0.2-0.1-0.3-0.3-0.2-0.5c0.1-0.2,0.3-0.3,0.5-0.2c1.1,0.3,1.8,0.9,2.2,1.6c0.4,0.8,0.1,1.5,0.1,1.5
							C9.8,28.4,9.7,28.5,9.5,28.5z"/>
					</g>
				</g>
				<g>
					<g>
						<path fill="#415A6B" d="M10.1,28.4c-0.1,0-0.2,0-0.2-0.1c-0.1-0.1-0.2-0.2-0.1-0.3c0.1-0.5,0.3-2.1,0.8-2.6
							c0.5-0.6,1.2-0.8,1.9-0.5c0.3,0.1,0.6,0.4,0.7,0.8c0.1,0.4,0.1,0.8-0.1,1.2c0,0,0,0,0,0c-0.5,0.8-2.4,1.4-2.7,1.5
							C10.2,28.4,10.1,28.4,10.1,28.4z M11.8,25.5c-0.3,0-0.6,0.2-0.7,0.4c-0.2,0.2-0.3,0.9-0.5,1.6c0.7-0.3,1.6-0.7,1.7-1
							c0.1-0.2,0.1-0.4,0.1-0.6c-0.1-0.2-0.2-0.3-0.3-0.4C12,25.5,11.9,25.5,11.8,25.5z"/>
					</g>
				</g>
				<g>
					<g>
						<path fill="#415A6B" d="M24,44.8c-8.3-0.7-12.8-6.1-13.8-16.6H9.5C10.4,39,15.3,44.9,24,45.6c0,0,0,0,0,0
							c0.2,0,0.4-0.1,0.4-0.3C24.4,45,24.2,44.8,24,44.8z"/>
					</g>
				</g>
			</g>
		</g>
		<g>
			<path fill="#415A6B" d="M31.1,31.3c-0.6,0-1.2-0.1-1.8-0.2c-0.2,0-0.3-0.2-0.3-0.4c0-0.2,0.3-0.3,0.5-0.3c0.9,0.2,2.1,0.2,3,0
				c0.2,0,0.4,0.1,0.4,0.3c0,0.2-0.1,0.4-0.3,0.4C32.2,31.2,31.7,31.3,31.1,31.3z"/>
		</g>
		<g>
			<path fill="#415A6B" d="M30.4,31.1c0,0-0.1,0-0.1,0c-0.2-0.1-0.3-0.3-0.2-0.5c0,0,0.2-0.5-0.1-1c-0.3-0.5-0.8-0.9-1.7-1.2
				C28.1,28.4,28,28.2,28,28c0.1-0.2,0.3-0.3,0.5-0.2c1.1,0.3,1.8,0.9,2.2,1.6c0.4,0.8,0.1,1.5,0.1,1.5C30.7,31,30.6,31.1,30.4,31.1
				z"/>
		</g>
		<g>
			<path fill="#415A6B" d="M31,31.1c-0.1,0-0.2,0-0.2-0.1c-0.1-0.1-0.1-0.2-0.1-0.3c0.1-0.5,0.3-2.1,0.8-2.6
				c0.5-0.6,1.2-0.8,1.9-0.5c0.3,0.1,0.6,0.4,0.7,0.8c0.1,0.4,0.1,0.8-0.1,1.2l0,0c-0.5,0.8-2.4,1.4-2.7,1.5
				C31.1,31.1,31,31.1,31,31.1z M32.7,28.1c-0.3,0-0.6,0.2-0.7,0.4c-0.2,0.2-0.3,0.9-0.5,1.6c0.7-0.3,1.6-0.7,1.7-1h0
				c0.1-0.2,0.1-0.4,0.1-0.6c-0.1-0.2-0.2-0.3-0.3-0.4C32.9,28.2,32.8,28.1,32.7,28.1z"/>
		</g>
		<g>
			<g>
				<path fill="#415A6B" d="M18.9,44.3c0,0-0.1,0-0.1,0c-0.1,0-0.2-0.1-0.2-0.3c-0.1-0.4-0.6-2.6-0.3-3.4c0.3-0.9,1.1-1.4,1.9-1.4
					c0.4,0,0.9,0.2,1.1,0.6c0.3,0.4,0.4,0.9,0.4,1.4l0,0c-0.2,1.1-2.3,2.8-2.5,3C19.1,44.2,19,44.3,18.9,44.3z M20.1,39.9
					c-0.7,0-1,0.6-1.1,0.9c-0.1,0.3,0,1.4,0.2,2.4c0.8-0.7,1.7-1.6,1.8-2.2l0,0c0.1-0.3,0-0.6-0.2-0.8C20.5,40.1,20.3,40,20.1,39.9
					C20.1,39.9,20.1,39.9,20.1,39.9z"/>
			</g>
		</g>
		<g>
			<g>
				<path fill="#415A6B" d="M16.4,48c-0.3,0-0.6-0.1-0.9-0.3c-0.4-0.2-0.6-0.6-0.7-1.1c-0.1-0.5,0-1,0.3-1.4h0
					c0.7-0.9,3.3-1.4,3.6-1.5c0.1,0,0.3,0,0.3,0.1c0.1,0.1,0.1,0.2,0.1,0.4c-0.1,0.4-0.7,2.6-1.3,3.1C17.4,47.8,16.9,48,16.4,48z
					 M18.2,44.7c-1,0.2-2.2,0.7-2.6,1.1l0,0c-0.2,0.2-0.2,0.5-0.2,0.8c0,0.2,0.2,0.4,0.4,0.6c0.6,0.4,1.2,0,1.5-0.2
					C17.6,46.6,18,45.6,18.2,44.7z"/>
			</g>
		</g>
		<g>
			<path fill="#415A6B" d="M30.4,30.8c-0.1,4-1.4,7.2-3.7,9.3c-2.8,2.5-7,3.7-12.6,3.4c-0.2,0-0.4,0.2-0.4,0.4
				c0,0.2,0.2,0.4,0.4,0.4c0.5,0,1.1,0,1.6,0c5,0,8.9-1.2,11.5-3.7c2.5-2.3,3.8-5.6,4-9.9H30.4z"/>
		</g>
	</g>
</g>
</svg>
