<?xml version="1.0" encoding="utf-8"?>
<!-- Generator: Adobe Illustrator 18.0.0, SVG Export Plug-In . SVG Version: 6.00 Build 0)  -->
<!DOCTYPE svg PUBLIC "-//W3C//DTD SVG 1.1//EN" "http://www.w3.org/Graphics/SVG/1.1/DTD/svg11.dtd">
<svg version="1.1" id="Layer_1" xmlns="http://www.w3.org/2000/svg" xmlns:xlink="http://www.w3.org/1999/xlink" x="0px" y="0px"
	 viewBox="0 0 48 48" enable-background="new 0 0 48 48" xml:space="preserve">
<g>
	<g>
		<g>
			<path fill="#CED6E0" d="M20.5,27.1L3.6,35.9V41c0,0,0,0,0,0l19.6-10.1L20.5,27.1z"/>
		</g>
	</g>
	<g>
		<g>
			<rect x="44.7" y="6.3" fill="#344A5E" width="3.3" height="8.5"/>
			<rect x="38.7" y="3.5" fill="#415A6B" width="6.5" height="14.2"/>
		</g>
		<path fill="#E8EAE9" d="M10.6,0C4.7,0,0,4.7,0,10.6c0,5.8,4.7,10.6,10.6,10.6H38L45.8,0H10.6z"/>
	</g>
	<g>
		<path fill="#415A6B" d="M17.5,25.8c0,2.9,2.4,5.3,5.4,5.3c2.9,0,5.3-2.4,5.4-5.3H17.5z"/>
		<g>
			<path fill="#CED6E0" d="M31.2,21.1H14.8v2.4c0,1.3,1.1,2.4,2.4,2.4h11.5c1.3,0,2.4-1.1,2.4-2.4V21.1z"/>
		</g>
	</g>
	<g>
		<path fill="#415A6B" d="M0,29.4L0,29.4L0,48l0,0c2.8-1.4,4.6-4.3,4.6-7.4v-3.7C4.6,33.7,2.8,30.9,0,29.4z"/>
	</g>
</g>
</svg>
