<?xml version="1.0" encoding="utf-8"?>
<!-- Generator: Adobe Illustrator 18.0.0, SVG Export Plug-In . SVG Version: 6.00 Build 0)  -->
<!DOCTYPE svg PUBLIC "-//W3C//DTD SVG 1.1//EN" "http://www.w3.org/Graphics/SVG/1.1/DTD/svg11.dtd">
<svg version="1.1" id="Layer_1" xmlns="http://www.w3.org/2000/svg" xmlns:xlink="http://www.w3.org/1999/xlink" x="0px" y="0px"
	 viewBox="0 0 48 48" enable-background="new 0 0 48 48" xml:space="preserve">
<g>
	<g>
		<g>
			<path fill="#415A6B" d="M43.3,32.5V7.6c0-1-0.8-1.8-1.8-1.8h-35c-1,0-1.8,0.8-1.8,1.8v24.9H43.3z"/>
			<path fill="#CED6E0" d="M0.3,39.5l4.4-7h38.6l4.4,7c0.8,1.2-0.1,2.8-1.5,2.8H1.8C0.4,42.2-0.5,40.7,0.3,39.5z"/>
			<polygon fill="#ADB3BA" points="18.7,39.1 20.9,35.5 27.1,35.5 29.3,39.1 			"/>
			<rect x="7.4" y="8.5" fill="#FFFFFF" width="33.2" height="21.3"/>
			<rect x="7.4" y="15.8" fill="#FFFFFF" width="33.2" height="13.9"/>
			<g>
				<rect x="7.4" y="8.5" fill="#FFD15C" width="33.2" height="7.4"/>
				<rect x="12.8" y="11.2" fill="#FFFFFF" width="22.4" height="2"/>
				<rect x="31.6" y="11.2" fill="#F3705A" width="3.7" height="2"/>
			</g>
			<g>
				<g>
					<circle fill="#55C0EB" cx="32.8" cy="22.8" r="5.2"/>
				</g>
				<g>
					<path fill="#E8EAE9" d="M37.9,21.5c-0.1,0.1-0.2,0.1-0.3,0c0,0-0.1,0-0.1,0c-0.2-0.1-0.5-0.1-0.7-0.2c0,0,0,0,0,0
						c0,0,0.1,0,0.1,0c0,0-0.1-0.1-0.1-0.1c0,0,0.1,0,0.1,0c0.2,0.1,0.4,0.1,0.5,0.1c0.1,0,0.2,0,0.2,0.1c0,0,0.1,0.1,0.1,0
						c0,0,0.1,0,0.1,0l0,0c-0.1-0.4-0.3-0.7-0.4-1.1c0,0,0,0,0,0c0,0,0,0,0,0c-0.8-1.5-2.4-2.6-4.2-2.7c0,0,0.1,0.1,0.1,0.1
						c0.1,0,0.2,0,0.2,0.1c-0.1,0-0.1,0-0.2-0.1c0,0.1,0.1,0.1,0.1,0.2c0,0.1,0,0.1,0,0.2c0.1,0,0.1,0,0.2,0.1c-0.1,0-0.2,0-0.3,0.1
						c0,0,0.1,0.1,0.1,0.1c0,0,0.1,0,0.2,0c0,0,0,0.1,0,0.1c0,0-0.1,0-0.1,0c-0.1,0-0.1,0-0.2,0c-0.1,0-0.1,0-0.1-0.1c0,0,0,0,0,0
						c-0.1,0-0.1,0.1-0.2,0c0,0,0,0,0.1-0.1c0.1-0.1,0.2-0.1,0.2-0.2c0,0,0.1-0.1,0.1-0.1c0-0.1,0-0.2-0.1-0.2c0-0.1-0.1-0.1-0.1,0
						c0,0-0.1,0-0.1,0c-0.2,0-0.3,0-0.4,0.1c-0.1,0.1-0.3,0.1-0.3,0.3c0,0,0,0,0,0c0,0,0,0,0,0c0,0,0-0.1,0-0.1
						c-0.1,0-0.2,0.1-0.3,0.1c0,0,0,0.1-0.1,0.1c-0.1,0.1-0.2,0.2-0.1,0.4c0,0,0,0.1,0,0.1c-0.1,0.1-0.1,0.1,0,0.2
						c0,0.1,0,0.1,0,0.2c0,0.1,0,0.2,0,0.2c0,0,0,0.1,0,0.1c0,0,0,0.1,0,0.1c0,0,0,0.1,0.1,0c-0.1-0.1,0-0.1,0-0.2c0,0,0.1,0,0.1,0
						c0,0.1,0,0.1,0.1,0.2c0,0.1,0.1,0.2,0.1,0.2c0.1,0.1,0.1,0.1,0.1,0.2c0,0,0,0,0,0c0,0,0,0,0,0.1c0,0.2,0,0.4,0.2,0.6
						c0,0.1,0.1,0.1,0.1,0.1c0,0,0,0,0.1,0c0,0,0.1,0,0.1,0c0.1,0,0.1,0,0.2,0c0.1,0,0.1,0,0.1-0.1c0,0,0-0.1,0-0.1c0,0,0-0.1,0-0.1
						c0,0,0,0,0,0c0.1,0,0.2,0.1,0.3,0.1c0,0,0,0,0,0.1c-0.1,0-0.1,0-0.2,0c0,0.2,0,0.2,0.2,0.3c0,0,0,0,0,0
						c0.1,0.1,0.1,0.1,0.1,0.2c0,0-0.1,0-0.1-0.1c0,0.1,0.1,0.1,0.1,0.2c0,0.1,0.1,0.1,0.1,0.2c0,0.1,0,0.1,0,0.2c0,0.1,0,0.2,0,0.2
						c0,0,0,0,0,0.1c0,0,0.1,0,0.1,0.1c0,0.1-0.1,0.1-0.1,0.2c0.1,0,0.2,0,0.2,0c0.1,0,0.2,0,0.2,0c0,0,0.1,0.1,0.1,0.1
						c0,0,0,0.1-0.1,0.1c-0.1,0.1-0.2,0.2-0.2,0.3c-0.1,0.1-0.1,0.1,0,0.2c0.1,0,0.1,0.1,0.1,0.1c0,0.1,0.1,0.1,0.2,0.2
						c0.1,0,0.1,0,0.2,0c0,0,0.1,0,0.1-0.1c0,0,0,0,0.1,0c0-0.1,0-0.1,0.1-0.2c0.1-0.1,0-0.2,0-0.3c-0.1-0.1-0.1-0.1-0.1-0.2
						c0-0.1,0-0.1,0-0.2c0,0,0,0-0.1,0c-0.1,0-0.1-0.1,0-0.1c0,0,0,0,0,0c0.1,0,0.1-0.1,0.1-0.2c0-0.1,0-0.1,0-0.2c0,0,0.1,0,0.1,0
						c0.2,0,0.3,0,0.5-0.1c0,0,0,0,0,0c0.1,0,0.1,0,0.2,0.1c0,0,0,0,0,0c-0.1,0-0.1,0.1-0.1,0.2c0.1,0,0.1-0.1,0.2-0.1
						c0,0,0,0,0-0.1c0-0.1,0-0.2,0-0.2c0,0-0.1,0-0.1,0c0.1,0,0.1,0,0.1-0.1c0-0.1-0.1-0.1-0.1,0c-0.1,0-0.1,0-0.2,0.1
						c-0.1,0-0.2,0.1-0.3,0.1c-0.1,0-0.1,0-0.1-0.1c0,0,0,0,0,0c0.2,0,0.3,0,0.4-0.1c0,0,0,0,0.1,0c0.1,0,0.1,0,0.2,0
						c0.1,0,0.1,0,0.2,0.1c0.1,0,0.1,0,0.2,0c0-0.1,0-0.1-0.1-0.1c0,0-0.1,0-0.1-0.1c0.1,0,0.1,0,0.2-0.1c-0.1-0.1-0.1-0.1,0-0.2
						c0,0,0,0,0,0.1c0,0.1,0.1,0.1,0.1,0.1c0,0,0,0,0.1,0c0,0.1,0.1,0.1,0.2,0.1c0-0.1,0.1-0.2,0.1-0.3c0,0,0-0.1,0.1-0.1
						c0.1,0,0.1-0.1,0.1-0.1c0,0,0-0.1,0.1-0.1c0,0,0.1,0,0.1,0.1c0,0,0,0,0,0c0,0.1,0.1,0.2,0.2,0.2c0,0,0,0,0,0.1
						c0,0.1,0,0.2-0.1,0.2c-0.1,0-0.1,0-0.1,0.1c0,0,0,0,0,0.1c-0.1,0.1-0.2,0.2-0.4,0.3c0,0,0,0-0.1,0c0,0-0.1,0.1,0,0.1
						c0,0,0,0.1,0,0.1c0,0.1,0,0.1,0,0.1c-0.1,0-0.1,0.1-0.2,0.1c-0.1,0-0.1,0.1-0.2,0.1c0,0.1-0.1,0.1-0.2,0c0,0-0.1,0-0.1,0
						c-0.1,0-0.1,0-0.1-0.1c-0.1,0-0.1,0-0.2,0.1c-0.1,0.1-0.2,0.3-0.2,0.4c0,0.1-0.1,0.1-0.1,0.2c0,0.1,0,0.2-0.1,0.2
						c0,0.1-0.1,0.2-0.2,0.2c0,0.1,0.1,0.2,0.1,0.3c0,0.1,0.1,0.3,0.1,0.4c0,0,0,0.1,0,0.1c0,0.2,0,0.3,0.1,0.5c0,0,0,0.1,0.1,0.1
						c0,0.1,0.1,0.1,0.1,0.1c0.1,0,0.2,0.1,0.2,0.1c0.1,0.1,0.2,0.2,0.3,0.3c0.1,0.1,0.1,0.1,0.1,0c0.1,0,0.2,0,0.3,0
						c0.1,0,0.2,0,0.3,0c0.1,0,0.1,0,0.2,0c0.2-0.1,0.2-0.1,0.3-0.3c0-0.1,0.1-0.1,0.1-0.2c0.1-0.1,0.1-0.2,0.1-0.3
						c0-0.1,0-0.1,0.1-0.2c0.1-0.1,0.1-0.1,0.2-0.1c0.1,0,0.1,0,0.1-0.1c0-0.1,0.1-0.1,0.1-0.1c0,0,0.1,0,0.1,0
						c0.1,0.1,0.1,0.1,0.2,0.2c0.1,0.1,0.1,0.1,0.2,0.1c0,0,0,0,0,0h0c0.2-0.5,0.3-1,0.3-1.6C38.1,22.4,38,21.9,37.9,21.5z"/>
					<path fill="#E8EAE9" d="M32.2,28C32.2,28,32.2,28,32.2,28c-0.1-0.1-0.2-0.1-0.3-0.1c-0.1,0-0.2-0.1-0.2-0.2c0-0.1,0-0.2,0-0.4
						c0-0.1,0-0.1,0-0.2c-0.1,0-0.1,0-0.2-0.1c0-0.1-0.1-0.1-0.1-0.2c0-0.1,0-0.1,0-0.2c0,0,0-0.1,0-0.1c0,0,0-0.1,0-0.1
						c0,0-0.1,0-0.1,0c-0.1-0.1-0.1-0.4,0-0.5c0,0.1,0,0.1,0.1,0.1c0,0,0,0,0-0.1c0-0.2,0-0.3,0.1-0.5c0,0,0,0,0-0.1
						c-0.1,0-0.1,0-0.2,0c0,0.1,0,0.1,0,0.2c-0.1,0-0.1,0.1-0.2,0.1c0,0-0.1-0.1,0-0.1c0,0-0.1-0.1-0.1-0.1
						c-0.1,0.1-0.1,0.1-0.2,0.2c0,0,0-0.1,0-0.1c0-0.1,0.1-0.2,0.2-0.2c0,0,0.1,0,0.1-0.1c-0.1,0-0.1,0-0.2,0c0,0,0,0,0,0
						c0.1-0.1,0.1-0.1,0.1-0.3c0,0,0-0.1,0-0.1c0,0,0,0,0,0c0.1,0.1,0.1,0.2,0.3,0.3c0.1-0.1,0.1-0.1,0.2-0.2c0,0,0,0.1,0,0.1
						c0.1,0,0.2,0,0.1-0.2c0,0,0,0,0,0c0.1,0,0.1-0.1,0-0.1c0-0.1-0.1-0.1-0.2-0.1c-0.1,0-0.1,0.1-0.2,0.1c-0.1,0-0.1,0-0.1-0.1
						c0-0.1,0-0.1-0.1-0.1c0,0-0.1,0-0.1-0.1c0,0,0,0-0.1,0c-0.1,0-0.2,0-0.2,0.1c0-0.1-0.1-0.1-0.1,0c0,0,0,0-0.1,0
						c-0.1,0.1-0.2,0-0.3,0c0,0-0.1,0-0.1-0.1c0,0,0,0,0,0c-0.1,0-0.3-0.1-0.4-0.1c0,0-0.1,0-0.1,0c0.1,0.1,0.1,0.3,0.1,0.4
						c-0.1,0-0.2,0.1-0.3,0c-0.1-0.1-0.1-0.1-0.2,0c0,0-0.1,0-0.2,0c0,0-0.1,0-0.1,0c0,0-0.1,0-0.1,0.1c0,0,0,0,0,0.1c0,0,0,0-0.1,0
						c-0.1,0.1-0.1,0.1,0,0.2c0,0,0.1,0,0.1,0.1c0,0,0.1,0.1,0.1,0.1c0,0,0.1,0,0.1,0.1c0,0.1,0,0.1,0.1,0.1c0,0,0.1,0,0.1,0
						c0.1,0,0.2,0,0.3,0.2c0,0.1,0,0.1,0,0.2c0,0,0,0.1,0.1,0.1c0.1,0,0.1,0.1,0.2,0.1c0,0,0.1,0,0.1,0.1c0,0,0,0.1,0,0.1
						c0,0,0,0,0,0c-0.1,0-0.1,0-0.2,0c0,0,0-0.1,0-0.1c-0.1,0-0.1,0-0.1-0.1c-0.1,0-0.1,0-0.2,0c0,0-0.1,0-0.1,0c-0.1,0-0.2,0-0.4,0
						c0,0,0,0,0,0C29.8,27.2,30.9,27.8,32.2,28z"/>
					<path fill="#E8EAE9" d="M28.2,24.4c0.1,0,0.1,0,0.2,0.1c0,0,0.1,0,0.1,0c0,0,0,0,0.1-0.1c0,0,0.1-0.1,0.1-0.1
						c0,0.1,0,0.1,0,0.2c0,0-0.1,0-0.1,0c0,0-0.1,0-0.1,0c-0.1,0-0.1,0.1,0,0.2c0,0,0.1,0,0.1,0.1c0,0,0,0,0,0c0,0-0.1,0.1-0.1,0.1
						c-0.1,0.1-0.1,0.1,0,0.2c0,0,0.1,0.1,0.1,0.1c0,0,0,0,0.1,0.1c0,0,0-0.1,0-0.1c0,0,0-0.1,0-0.1c0-0.1,0-0.1,0.1-0.1
						c0.1,0,0.1,0,0.2,0c0.1,0,0.1,0,0.2,0c0.1,0,0.1,0,0.2-0.1c0,0,0,0,0.1,0c0.1,0,0.1-0.1,0.2-0.2c-0.1,0-0.2,0-0.3,0
						c0.1,0,0.1,0,0.2-0.1c0.1,0,0.1,0,0.2-0.1c-0.1,0-0.1,0-0.1,0c0,0,0-0.1,0-0.1c-0.1,0-0.1,0-0.2,0c-0.2,0-0.3,0-0.4-0.1
						c0,0,0,0,0,0c0,0,0.1,0,0.1,0c0.1,0,0.1-0.1,0.2,0c0.1,0,0.1,0,0.2,0c0,0,0-0.1-0.1-0.1C29.1,24,29,23.9,29,23.8
						c0,0,0-0.1-0.1,0c0,0,0,0-0.1,0c-0.2,0-0.3,0.1-0.5,0.1c0,0-0.1,0-0.1,0c-0.1,0-0.1-0.1-0.1-0.1c0,0,0,0,0-0.1
						c-0.1,0-0.1,0-0.1,0.1c0,0,0,0.1-0.1,0.1c0,0,0,0,0-0.1c0,0,0,0,0-0.1c-0.1,0-0.1,0-0.2,0.1c0,0-0.1,0.1-0.1,0.1
						c0,0.2,0.1,0.3,0.1,0.5C28,24.4,28.1,24.4,28.2,24.4z"/>
					<path fill="#E8EAE9" d="M27.8,22.1C27.8,22.2,27.8,22.2,27.8,22.1c0.1,0.1,0.1,0.2,0.1,0.3c0,0.1,0.1,0.2,0.2,0.3
						c0,0,0.1,0,0.1,0c0.1,0,0.2,0,0.4,0c0,0,0,0,0.1,0c0,0,0,0.1,0,0.1c0,0.1,0,0.1,0.1,0.1c0,0,0.1,0,0.1,0c0.1,0,0.2,0,0.2,0
						c0.1,0,0.1,0,0.2,0.1c0,0,0,0,0-0.1c0-0.1,0.1-0.1,0.2-0.1c0,0,0.1,0,0.1,0c0-0.1-0.1-0.1-0.1-0.2c-0.1-0.1-0.2-0.2-0.2-0.4
						c0-0.1,0-0.1-0.1-0.1c-0.1,0-0.1-0.1-0.1-0.2c0-0.1,0-0.1,0-0.2c0-0.1,0-0.1,0-0.1c0,0,0-0.1,0-0.1c0-0.1,0-0.2,0-0.2
						c0-0.1-0.1-0.1-0.1-0.2c0,0,0,0,0,0c0,0,0,0,0,0c0.1,0,0.1,0,0.1-0.1c0-0.2,0-0.3,0-0.5c0-0.1,0-0.1,0-0.2
						c-0.1,0-0.2,0.1-0.2,0.2c0,0,0,0.1-0.1,0c0,0,0,0,0-0.1c0,0,0-0.1,0-0.1c-0.1,0-0.1,0-0.1-0.1c0.1-0.1,0.2,0.1,0.3,0
						c0,0,0-0.1,0-0.1c0-0.1,0-0.1-0.1-0.1c-0.1,0-0.3,0-0.4,0c0,0,0,0,0,0c-0.4,0.6-0.7,1.3-0.8,2.1C27.7,22.1,27.8,22.1,27.8,22.1
						z"/>
				</g>
			</g>
		</g>
		<rect x="8.7" y="17.3" fill="#E8EAE9" width="7.7" height="11.1"/>
	</g>
</g>
</svg>
