<?xml version="1.0" encoding="utf-8"?>
<!-- Generator: Adobe Illustrator 18.0.0, SVG Export Plug-In . SVG Version: 6.00 Build 0)  -->
<!DOCTYPE svg PUBLIC "-//W3C//DTD SVG 1.1//EN" "http://www.w3.org/Graphics/SVG/1.1/DTD/svg11.dtd">
<svg version="1.1" id="Layer_1" xmlns="http://www.w3.org/2000/svg" xmlns:xlink="http://www.w3.org/1999/xlink" x="0px" y="0px"
	 viewBox="0 0 48 48" enable-background="new 0 0 48 48" xml:space="preserve">
<g>
	<path fill="#F2F2F2" d="M25,0H2C0.9,0,0,0.9,0,2v44c0,1.1,0.9,2,2,2h32.1c1.1,0,2-0.9,2-2V11L25,0z"/>
	<path fill="#CDD6E0" d="M25,9c0,1.1,0.9,2,2,2h9L25,0V9z"/>
	<g>
		<rect x="4.2" y="26.1" fill="#CDD6E0" width="27.7" height="2.5"/>
		<rect x="4.2" y="33.7" fill="#CDD6E0" width="27.7" height="2.5"/>
		<rect x="4.2" y="41.3" fill="#FF7058" width="13.4" height="2.5"/>
		<rect x="4.2" y="18.5" fill="#FFD15C" width="27.7" height="2.5"/>
	</g>
	<rect x="4.2" y="4.2" fill="#54C0EB" width="10.2" height="10.2"/>
	<g>
		<g>
			<path fill="#ACB3BA" d="M29.3,25.1L29.3,25.1l5.1-5.2c1.6-1.6,4.1-1.6,5.7,0l-1.4,1.5c-0.8-0.8-2-0.8-2.8,0L32.2,25
				C31.4,25.8,30.1,25.8,29.3,25.1z"/>
		</g>
		<path fill="#ACB3BA" d="M38.8,22.3l-0.2-0.2c-0.3-0.3-0.3-0.7,0-0.9l1.4-1.4c0.3-0.3,0.7-0.3,0.9,0L41,20c0.3,0.3,0.3,0.7,0,0.9
			l-1.4,1.4C39.4,22.6,39,22.6,38.8,22.3z"/>
		<path fill="#FFD15C" d="M46.9,19.3L46.9,19.3c-1.5-1.5-3.9-1.5-5.3,0L24.8,36.4l-2.1,5.5l-1.2,3.2l3.2-1.2l5.5-2.1l16.8-17.1
			C48.4,23.1,48.4,20.8,46.9,19.3z"/>
		
			<rect x="33.7" y="23.6" transform="matrix(0.703 -0.7112 0.7112 0.703 -7.8686 35.8078)" fill="#FF7058" width="10.4" height="7.5"/>
		
			<rect x="26.9" y="33.5" transform="matrix(0.703 -0.7112 0.7112 0.703 -17.8217 31.8558)" fill="#FF7058" width="4.7" height="7.5"/>
		<polygon fill="#40596B" points="24.7,43.8 21.5,45.1 22.7,41.9 		"/>
	</g>
</g>
</svg>
