<?xml version="1.0" encoding="utf-8"?>
<!-- Generator: Adobe Illustrator 18.0.0, SVG Export Plug-In . SVG Version: 6.00 Build 0)  -->
<!DOCTYPE svg PUBLIC "-//W3C//DTD SVG 1.1//EN" "http://www.w3.org/Graphics/SVG/1.1/DTD/svg11.dtd">
<svg version="1.1" id="Layer_1" xmlns="http://www.w3.org/2000/svg" xmlns:xlink="http://www.w3.org/1999/xlink" x="0px" y="0px"
	 viewBox="0 0 48 48" enable-background="new 0 0 48 48" xml:space="preserve">
<g>
	<g>
		<path fill="#F8B64C" d="M20.4,28.1c0.9,1.2,2.2,1.8,3.6,1.8c1.4,0,2.8-0.7,3.6-1.8c0.1-0.1,0.1-0.2,0.2-0.3l-0.9-0.3h0l0,0
			c0,0,0,0,0,0c-0.7,0.9-1.7,1.4-2.8,1.4c-1,0-2.1-0.5-2.8-1.4c0,0,0,0,0,0h0l0,0h0l-1,0.3C20.3,27.9,20.3,28.1,20.4,28.1z"/>
		<polygon fill="#ACB3BA" points="24,29 24,29 24,29 		"/>
		<polygon fill="#ACB3BA" points="24,29 24,29 24,29 		"/>
		<path fill="#F8B64C" d="M21.2,27.5C21.2,27.5,21.2,27.5,21.2,27.5L21.2,27.5z"/>
		<path fill="#F8B64C" d="M25.1,28.7"/>
		<path fill="#F8B64C" d="M26.8,27.5C26.8,27.5,26.8,27.5,26.8,27.5L26.8,27.5z"/>
		
			<ellipse transform="matrix(0.9962 -8.715574e-002 8.715574e-002 0.9962 -1.8517 1.8518)" fill="#F8B64C" cx="20.3" cy="22.1" rx="0.9" ry="1.3"/>
		
			<ellipse transform="matrix(0.9962 8.715574e-002 -8.715574e-002 0.9962 2.0344 -2.3324)" fill="#F8B64C" cx="27.7" cy="22.1" rx="0.9" ry="1.3"/>
		<path fill="#FFD15C" d="M20.2,18.4c-0.3,0.5-0.4,1.1-0.4,1.8v1.3c0,0.3,0,0.6,0.1,1v0c0.2,1.6,0.9,3.1,2,4.4l0.4,0.4
			c0.4,0.4,0.9,0.6,1.4,0.6h0.6c0.5,0,1.1-0.2,1.4-0.6l0.4-0.4c1.1-1.2,1.8-2.7,2-4.4c0-0.3,0.1-0.6,0.1-1v-1.3
			c0-0.6-0.1-1.2-0.4-1.8H20.2z"/>
		<path fill="#CDD6E0" d="M26.8,27.5"/>
		<path fill="#F8B64C" d="M26.1,26.8l-0.4,0.4c-0.4,0.4-0.9,0.6-1.4,0.6h-0.6c-0.5,0-1.1-0.2-1.4-0.6l-0.4-0.4
			c-0.3-0.3-0.5-0.6-0.7-0.9v1.6l2.8,3.8l2.8-3.8v-1.6C26.6,26.2,26.4,26.5,26.1,26.8z"/>
		<path fill="#40596B" d="M19.9,22.4l0.5,0.2c-0.1-0.5,0-1.2,0.2-1.6c0,0-0.3-2.4,1.5-2.2c0,0,1.4,0.5,4,0c0,0,1.1-0.1,0.9,1.1
			c0,0,0,1.3,0.6,1.6l0,1.1l0.6-0.1c0.1-0.4,0-3.2,0-3.2c-0.4-2-2.8-3.1-2.8-3.1C25.6,15.9,26,16,26,16c-3.1-1.9-5.1-0.1-5.1-0.1
			c-2.2,2-1,4.3-1,4.3C19.7,21.1,19.8,21.9,19.9,22.4z"/>
		<path fill="#FF7058" d="M14.5,35.2h19.1v-2.6c0-1.3-0.7-2.4-1.9-2.9l-4.8-2.2h0l0,0c0,0,0,0,0,0c-0.7,0.9-1.7,1.4-2.8,1.4
			c-1,0-2.1-0.5-2.8-1.4c0,0,0,0,0,0h0l0,0h0l-4.8,2.2c-1.1,0.5-1.9,1.7-1.9,2.9V35.2z"/>
	</g>
	<path fill="#40596B" d="M48,28.3v-8.6l-4.5-1.9c-0.3-1.1-0.8-2.2-1.3-3.2l1.8-4.6L37.9,4l-4.5,1.8c-1-0.5-2.1-1-3.2-1.3L28.3,0
		l-8.6,0l-1.9,4.5c-1.1,0.4-2.2,0.8-3.2,1.3L10.1,4L4,10.1l1.9,4.6c-0.5,1-1,2.1-1.3,3.2L0,19.7v8.6l4.5,1.9
		c0.4,1.1,0.8,2.2,1.3,3.2L4,37.9l6.1,6.1l4.6-1.8c1,0.5,2.1,1,3.2,1.3l1.9,4.5h8.6l1.9-4.5c1.1-0.4,2.2-0.8,3.2-1.3l4.5,1.8
		l6.1-6.1l-1.8-4.5c0.5-1,1-2.1,1.3-3.2L48,28.3z M24,34.7c-5.9,0-10.7-4.8-10.7-10.7c0-5.9,4.8-10.7,10.7-10.7
		c5.9,0,10.7,4.8,10.7,10.7C34.7,29.9,29.9,34.7,24,34.7z"/>
	<path fill="none" d="M31.6,31.6c4.2-4.2,4.2-11,0-15.1L16.4,31.6C20.6,35.7,27.4,35.8,31.6,31.6z"/>
	<path fill="none" d="M16.4,16.4c-4.2,4.2-4.2,11,0,15.1l0,0l15.1-15.1l0,0C27.4,12.2,20.6,12.3,16.4,16.4z"/>
	<path fill="#F8B64C" d="M16.4,31.6c-4.2-4.2-4.2-11,0-15.1c4.2-4.2,11-4.2,15.1,0l0,0l3.2-3.2l0,0c-5.9-5.9-15.6-5.9-21.5,0
		c-5.9,5.9-5.9,15.6,0,21.5l0,0L16.4,31.6L16.4,31.6z"/>
	<path fill="#FFD15C" d="M34.8,34.8c5.9-5.9,5.9-15.6,0-21.5l-3.2,3.2c4.2,4.2,4.2,11,0,15.1c-4.2,4.2-11,4.2-15.1,0l-3.2,3.2
		C19.2,40.7,28.8,40.7,34.8,34.8z"/>
</g>
</svg>
