<?xml version="1.0" encoding="utf-8"?>
<!-- Generator: Adobe Illustrator 18.0.0, SVG Export Plug-In . SVG Version: 6.00 Build 0)  -->
<!DOCTYPE svg PUBLIC "-//W3C//DTD SVG 1.1//EN" "http://www.w3.org/Graphics/SVG/1.1/DTD/svg11.dtd">
<svg version="1.1" id="Layer_1" xmlns="http://www.w3.org/2000/svg" xmlns:xlink="http://www.w3.org/1999/xlink" x="0px" y="0px"
	 viewBox="0 0 512 512" enable-background="new 0 0 512 512" xml:space="preserve">
<g>
	
		<rect x="326" y="324.9" transform="matrix(0.7093 -0.7049 0.7049 0.7093 -144.8385 347.9796)" fill="#334A5E" width="46.9" height="49.4"/>
	<path fill="#4CDBC4" d="M494.2,422l-62.7-63.1c-20.1-20.2-52.8-20.3-73-0.2c-20.2,20.1-20.3,52.8-0.2,73l62.7,63.1
		c20.1,20.2,52.8,20.3,73,0.2C514.2,474.9,514.3,442.2,494.2,422z"/>
	<path fill="#3DC9AE" d="M494,495L494,495c-20.2,20.1-52.9,20-73-0.2l73.2-72.8C514.3,442.2,514.2,474.9,494,495z"/>
	<path fill="#40596B" d="M343.5,60.7c-77.5-78-204-78.4-281.9-0.9c-78,77.5-78.4,204-0.9,281.9c77.5,78,204,78.4,281.9,0.9
		C420.6,265.2,420.9,138.7,343.5,60.7z"/>
	<path fill="#FFFFFF" d="M312.8,91.2c-60.7-61-159.7-61.4-220.7-0.7s-61.4,159.7-0.7,220.7c60.7,61,159.7,61.3,220.7,0.7
		C373.1,251.3,373.4,152.3,312.8,91.2z"/>
	<rect x="98" y="227.4" fill="#FF7058" width="35.7" height="58.8"/>
	<rect x="155.5" y="190.4" fill="#4CDBC4" width="35.7" height="95.8"/>
	<rect x="212.9" y="153.3" fill="#FFD15C" width="35.7" height="132.9"/>
	<rect x="270.3" y="116.3" fill="#ACB3BA" width="35.7" height="169.9"/>
</g>
</svg>
