<?xml version="1.0" encoding="utf-8"?>
<!-- Generator: Adobe Illustrator 18.0.0, SVG Export Plug-In . SVG Version: 6.00 Build 0)  -->
<!DOCTYPE svg PUBLIC "-//W3C//DTD SVG 1.1//EN" "http://www.w3.org/Graphics/SVG/1.1/DTD/svg11.dtd">
<svg version="1.1" id="Layer_1" xmlns="http://www.w3.org/2000/svg" xmlns:xlink="http://www.w3.org/1999/xlink" x="0px" y="0px"
	 viewBox="0 0 48 48" enable-background="new 0 0 48 48" xml:space="preserve">
<g>
	<g>
		<path fill="#F3F3F3" d="M40.7,0H7.3C5.6,0,4.2,1.4,4.2,3.1v41.9c0,1.7,1.4,3.1,3.1,3.1h33.4c1.7,0,3.1-1.4,3.1-3.1V3.1
			C43.8,1.4,42.4,0,40.7,0z"/>
		<g>
			<rect x="17.7" y="4.5" fill="#CED6E0" width="21.2" height="1.7"/>
			<g>
				<rect x="17.7" y="8.5" fill="#CED6E0" width="14.6" height="1.7"/>
			</g>
			<rect x="9.1" y="4.5" fill="#55C0EB" width="5.7" height="5.7"/>
			<rect x="17.7" y="15.6" fill="#CED6E0" width="21.2" height="1.7"/>
			<g>
				<rect x="17.7" y="19.6" fill="#CED6E0" width="14.6" height="1.7"/>
			</g>
			<rect x="9.1" y="15.6" fill="#F3705A" width="5.7" height="5.7"/>
			<rect x="17.7" y="26.7" fill="#CED6E0" width="21.2" height="1.7"/>
			<g>
				<rect x="17.7" y="30.7" fill="#CED6E0" width="14.6" height="1.7"/>
			</g>
			<rect x="9.1" y="26.7" fill="#FFD15C" width="5.7" height="5.7"/>
			<rect x="17.7" y="37.8" fill="#CED6E0" width="21.2" height="1.7"/>
			<g>
				<rect x="17.7" y="41.8" fill="#CED6E0" width="14.6" height="1.7"/>
			</g>
			<rect x="9.1" y="37.8" fill="#415A6B" width="5.7" height="5.7"/>
		</g>
	</g>
</g>
</svg>
