<?xml version="1.0" encoding="utf-8"?>
<!-- Generator: Adobe Illustrator 18.0.0, SVG Export Plug-In . SVG Version: 6.00 Build 0)  -->
<!DOCTYPE svg PUBLIC "-//W3C//DTD SVG 1.1//EN" "http://www.w3.org/Graphics/SVG/1.1/DTD/svg11.dtd">
<svg version="1.1" id="Layer_1" xmlns="http://www.w3.org/2000/svg" xmlns:xlink="http://www.w3.org/1999/xlink" x="0px" y="0px"
	 viewBox="0 0 48 48" enable-background="new 0 0 48 48" xml:space="preserve">
<g>
	<g>
		<g>
			<path fill="#415A6B" d="M31.2,27.5L31,34.7c0,0.8,0.6,1.4,1.4,1.4c0.8,0,1.4-0.6,1.4-1.4l0.1-7.1L31.2,27.5z"/>
			<g>
				<path fill="#415A6B" d="M30,37.5l-3.8-5.8l1-4.5L22.2,27l0,0c-0.4,1.5-0.1,3.2,0.8,4.5l4.8,7.4c1.4,2.1,3.8,3.2,6.3,2.8l5-0.8
					l0.1-2.7l-5.5,0.9C32.2,39.3,30.8,38.7,30,37.5z"/>
			</g>
			<g>
				
					<rect x="39.8" y="39.8" transform="matrix(-0.2065 -0.9784 0.9784 -0.2065 9.8478 95.157)" fill="#415A6B" width="7.4" height="7.6"/>
			</g>
			<g>
				<g>
					<path fill="#E8EAE9" d="M22.2,4.4c-0.4-0.4-0.9-0.7-1.5-0.8L6.7,0L5.2,6.1l13.2,3.4l5.2,5.1l4.5-4.4L22.2,4.4z"/>
				</g>
				<path fill="#F3705A" d="M36,31l2.3,10.9c0.1,0.5,0.6,0.8,1.1,0.7l7.5-1.5c0.5-0.1,0.8-0.6,0.7-1.1l-1.7-7.9
					c1.3-0.6,2-2.1,1.3-3.5l-5.5-11.3c-1.4-2.8-4.8-4-7.6-2.6l0,0l-6.2-6.1c-0.4-0.4-1.1-0.4-1.5,0l-4.6,4.6l-0.2,1.8
					c-0.6,4.8-0.4,9.7,0.6,14.5v0L36,31z"/>
			</g>
		</g>
		<g>
			<g>
				<path fill="#FFD15C" d="M11,26.2c0,3.1-2.5,5.6-5.5,5.6S0,29.3,0,26.2s5.5-11,5.5-11S11,23.1,11,26.2z"/>
				<g>
					<g>
						<path fill="#FFFFFF" d="M5.5,30.1c-2.1,0-3.8-1.7-3.8-3.9c0-0.4,0.3-0.7,0.7-0.7s0.7,0.3,0.7,0.7c0,1.4,1.1,2.5,2.4,2.5
							c0.4,0,0.7,0.3,0.7,0.7S5.9,30.1,5.5,30.1z"/>
					</g>
				</g>
			</g>
			<g>
				<path fill="#FFD15C" d="M9.1,44.3c0,2.1-1.6,3.7-3.6,3.7s-3.6-1.7-3.6-3.7c0-2.1,3.6-7.2,3.6-7.2S9.1,42.2,9.1,44.3z"/>
				<g>
					<g>
						<path fill="#FFFFFF" d="M5.5,46.8c-1.4,0-2.5-1.1-2.5-2.6c0-0.3,0.2-0.5,0.5-0.5s0.5,0.2,0.5,0.5c0,0.9,0.7,1.6,1.6,1.6
							c0.2,0,0.5,0.2,0.5,0.5C5.9,46.6,5.7,46.8,5.5,46.8z"/>
					</g>
				</g>
			</g>
		</g>
	</g>
</g>
</svg>
