<?xml version="1.0" encoding="utf-8"?>
<!-- Generator: Adobe Illustrator 18.0.0, SVG Export Plug-In . SVG Version: 6.00 Build 0)  -->
<!DOCTYPE svg PUBLIC "-//W3C//DTD SVG 1.1//EN" "http://www.w3.org/Graphics/SVG/1.1/DTD/svg11.dtd">
<svg version="1.1" id="Layer_1" xmlns="http://www.w3.org/2000/svg" xmlns:xlink="http://www.w3.org/1999/xlink" x="0px" y="0px"
	 viewBox="0 0 48 48" enable-background="new 0 0 48 48" xml:space="preserve">
<g>
	<g>
		<path fill="#F2F2F2" d="M43.2,13.6l-0.7-1.2H26.8v34l3.6-1.8c0.8-0.4,2.9-1.4,5.3-2.8c3.5-2,7.6-4.6,9.1-6.8
			C50.7,26.3,43.5,14.1,43.2,13.6z M40.6,32.3c-0.6,0.9-2.6,2.3-4.9,3.8c-1.2,0.8-2.6,1.5-3.9,2.2V17.4h7.7
			C40.9,20.3,43.9,27.5,40.6,32.3z"/>
	</g>
	<path opacity="0.1" fill="#231F20" d="M31.8,17.4v20.9c1.3-0.7,2.6-1.5,3.9-2.2v5.8c-2.4,1.3-4.5,2.4-5.3,2.8l-3.6,1.8v-34h8.9v5
		H31.8z"/>
	<path fill="#F2F2F2" d="M32.2,48H3.6c-1.1,0-2-0.9-2-2V7h32.6v39C34.2,47.1,33.3,48,32.2,48z"/>
	<path fill="#FFD15C" d="M13.2,40.1H5.9c-1.1,0-2-0.9-2-2V7h9.4V40.1z"/>
	<rect x="13.2" y="7" fill="#F8B64C" width="9.4" height="33.1"/>
	<path fill="#F4A83B" d="M29.9,40.1h-7.4V7h9.4v31.1C31.9,39.2,31,40.1,29.9,40.1z"/>
	<path fill="#F2F2F2" d="M31.5,3.7c-1.1,0-2.1,0.4-2.9,1c-0.2-0.2-0.4-0.3-0.7-0.4c-0.4-1.9-2.1-3.4-4.1-3.4c-1.6,0-3,0.9-3.7,2.3
		c-0.4-1.8-2.1-3.2-4-3.2c-1.8,0-3.4,1.2-3.9,2.8c-0.7-0.7-1.7-1.1-2.7-1.1c-2.1,0-3.7,1.6-4,3.5c-0.3-0.1-0.7-0.2-1-0.2
		c-2,0-3.6,1.6-3.6,3.6s1.6,3.6,3.6,3.6c1,0,1.8-0.4,2.5-1c0.3,0.4,0.6,0.7,1,0.9v5.7c0,0.7,0.6,1.2,1.2,1.2c0.7,0,1.2-0.6,1.2-1.2
		v-5.1c0.8-0.1,1.5-0.4,2-0.8c0.7,0.5,1.5,0.9,2.5,0.9c0.3,0,0.6,0,0.8-0.1c0.2,0.1,0.4,0.2,0.6,0.3v7.9c0,0.9,0.8,1.7,1.7,1.7h0
		c0.9,0,1.7-0.8,1.7-1.7v-7.9c0.8-0.3,1.4-0.8,1.9-1.5c0.9,1.3,2.4,2.1,4,2.1c1.1,0,2.1-0.4,2.9-1c0.8,0.6,1.8,1,2.9,1
		c2.7,0,4.9-2.2,4.9-4.9C36.4,5.9,34.2,3.7,31.5,3.7z"/>
	<path fill="#F2F2F2" d="M20.5,2.7c-0.1,0.1-0.3,0.2-0.4,0.3c0,0.1,0.1,0.1,0.1,0.2C20.2,3,20.3,2.8,20.5,2.7z"/>
	<path opacity="5.000000e-002" fill="#231F20" d="M31.5,13.5c-1.1,0-2.1-0.4-2.9-1c-0.8,0.6-1.8,1-2.9,1c-1.7,0-3.1-0.8-4-2.1
		c-0.5,0.6-1.2,1.2-1.9,1.5v0.4c0.3-0.3,0.7-0.6,0.9-0.9c0.9,1.3,2.4,2.1,4,2.1c1.1,0,2.1-0.4,2.9-1c0.8,0.6,1.8,1,2.9,1
		c1.6,0,3-0.8,3.9-2C33.6,13.2,32.6,13.5,31.5,13.5z"/>
	<path opacity="5.000000e-002" fill="#231F20" d="M18.1,22.5L18.1,22.5c-0.9,0-1.7-0.8-1.7-1.7v-7.9c-0.2-0.1-0.4-0.2-0.6-0.3
		c-0.3,0.1-0.6,0.1-0.8,0.1c-0.9,0-1.8-0.3-2.5-0.9c-0.6,0.4-1.3,0.7-2,0.8v0.8c0.4-0.1,0.7-0.3,1-0.6c0.7,0.5,1.5,0.9,2.5,0.9
		c0.3,0,0.6,0,0.8-0.1c0.2,0.1,0.4,0.2,0.6,0.3v7.9c0,0.9,0.8,1.7,1.7,1.7h0c0.7,0,1.3-0.5,1.6-1.1C18.5,22.4,18.3,22.5,18.1,22.5z"
		/>
	<path opacity="5.000000e-002" fill="#231F20" d="M7.9,17.7v-5.7c-0.4-0.2-0.7-0.5-1-0.9c-0.6,0.6-1.5,1-2.5,1
		c-1.2,0-2.2-0.6-2.8-1.4v1.9c0.5,0.3,1.1,0.5,1.8,0.5c1,0,1.8-0.4,2.5-1c0.3,0.4,0.6,0.7,1,0.9v5.7c0,0.7,0.6,1.2,1.2,1.2
		c0.6,0,1.1-0.5,1.2-1c-0.1,0-0.1,0-0.2,0C8.5,19,7.9,18.4,7.9,17.7z"/>
	<g opacity="1.000000e-002">
		<path fill="#231F20" d="M6.2,3.5C6.8,3,7.6,2.7,8.5,2.7c1.1,0,2,0.4,2.7,1.1c0.2-0.5,0.4-0.9,0.7-1.2c-0.7-0.5-1.5-0.8-2.4-0.8
			C8.1,1.7,6.9,2.4,6.2,3.5z"/>
		<path fill="#231F20" d="M16.1,0c-1.4,0-2.6,0.7-3.4,1.8C13.4,1.3,14.2,1,15.1,1c2,0,3.6,1.4,4,3.2c0.2-0.5,0.6-0.9,0.9-1.2
			C19.6,1.3,18,0,16.1,0z"/>
		<path fill="#231F20" d="M31.5,3.7c-1.1,0-2.1,0.4-2.9,1c-0.2-0.2-0.4-0.3-0.7-0.4c-0.4-1.9-2.1-3.4-4.1-3.4
			c-1.4,0-2.6,0.7-3.4,1.8c0.7-0.5,1.5-0.8,2.4-0.8c2,0,3.7,1.5,4.1,3.4c0.2,0.1,0.4,0.2,0.7,0.4c0.8-0.6,1.8-1,2.9-1
			c2.7,0,4.9,2.2,4.9,4.9c0,1.1-0.4,2.1-1,2.9c1.2-0.9,2-2.3,2-3.9C36.4,5.9,34.2,3.7,31.5,3.7z"/>
	</g>
</g>
</svg>
