<?xml version="1.0" encoding="utf-8"?>
<!-- Generator: Adobe Illustrator 18.0.0, SVG Export Plug-In . SVG Version: 6.00 Build 0)  -->
<!DOCTYPE svg PUBLIC "-//W3C//DTD SVG 1.1//EN" "http://www.w3.org/Graphics/SVG/1.1/DTD/svg11.dtd">
<svg version="1.1" id="Layer_1" xmlns="http://www.w3.org/2000/svg" xmlns:xlink="http://www.w3.org/1999/xlink" x="0px" y="0px"
	 viewBox="0 0 48 48" enable-background="new 0 0 48 48" xml:space="preserve">
<g>
	<g>
		<g>
			<g>
				<g>
					<rect x="3.1" y="0.4" fill="#F2F2F2" width="41.7" height="1"/>
				</g>
			</g>
			<g>
				<g>
					<rect x="3.8" y="5.4" fill="#F2F2F2" width="40.3" height="1"/>
				</g>
			</g>
			<g>
				<g>
					<rect x="4.5" y="10" fill="#F2F2F2" width="39" height="1"/>
				</g>
			</g>
			<g>
				<g>
					<rect x="5.1" y="14.4" fill="#F2F2F2" width="37.8" height="1"/>
				</g>
			</g>
			<g>
				<g>
					<rect x="5.7" y="18.6" fill="#F2F2F2" width="36.7" height="1"/>
				</g>
			</g>
			<g>
				<g>
					<rect x="6.2" y="22.6" fill="#F2F2F2" width="35.6" height="1"/>
				</g>
			</g>
		</g>
		<g>
			<g>
				
					<rect x="37.1" y="0.9" transform="matrix(0.9956 9.379469e-002 -9.379469e-002 0.9956 1.4182 -3.4715)" fill="#F2F2F2" width="1" height="25"/>
			</g>
		</g>
		<g>
			<g>
				
					<rect x="31.7" y="0.9" transform="matrix(0.9984 5.666030e-002 -5.666030e-002 0.9984 0.8082 -1.8018)" fill="#F2F2F2" width="1" height="24.9"/>
			</g>
		</g>
		<g>
			<g>
				
					<rect x="26.2" y="0.9" transform="matrix(0.9999 1.562309e-002 -1.562309e-002 0.9999 0.2119 -0.4158)" fill="#F2F2F2" width="1" height="24.8"/>
			</g>
		</g>
		<g>
			<g>
				
					<rect x="8.8" y="12.9" transform="matrix(2.293393e-002 0.9997 -0.9997 2.293393e-002 34.1192 -8.208)" fill="#F2F2F2" width="24.8" height="1"/>
			</g>
		</g>
		<g>
			<g>
				
					<rect x="3.3" y="12.9" transform="matrix(6.187997e-002 0.9981 -0.9981 6.187997e-002 28.1423 -3.2382)" fill="#F2F2F2" width="24.9" height="1"/>
			</g>
		</g>
		<g>
			<g>
				
					<rect x="-2.2" y="12.9" transform="matrix(0.1009 0.9949 -0.9949 0.1009 22.565 1.7328)" fill="#F2F2F2" width="25" height="1"/>
			</g>
		</g>
		<g>
			<g>
				<polygon fill="#F2F2F2" points="6.1,25.8 2.6,1 3.1,0.9 3.1,0.4 3.6,0.4 7.1,25.7 				"/>
			</g>
		</g>
		<g>
			<g>
				<path fill="#F2F2F2" d="M41.9,26.3H6.2L2.5,0.4h42.8L41.9,26.3z M7,25.3H41l3.2-23.8H3.7L7,25.3z"/>
			</g>
		</g>
	</g>
	<g>
		<g>
			<g>
				<g>
					<polygon fill="#F2F2F2" points="3.5,4.1 1.5,3 1.5,5.4 1.7,5.5 5.5,25.2 2,28 2,29.4 2.6,30.2 7.7,26.1 					"/>
				</g>
			</g>
		</g>
		<g>
			<g>
				<g>
					<polygon fill="#F2F2F2" points="45.9,5.5 47,4.9 47,2.4 44.1,4.1 39.9,26.1 45.3,30.4 46.2,28.5 42.1,25.2 					"/>
				</g>
			</g>
		</g>
	</g>
	<g>
		<g>
			<g>
				<path fill="#4CDBC4" d="M48,34.6h-3V3H3v31.6H0V1.5C0,0.7,0.7,0,1.5,0h45C47.3,0,48,0.7,48,1.5V34.6z"/>
			</g>
		</g>
	</g>
	<g>
		<g>
			<g>
				<ellipse fill="#F2F2F2" cx="24" cy="34.9" rx="13.3" ry="13.1"/>
			</g>
			<g>
				<path fill="#CDD6E0" d="M33.5,32.6c0,0-0.3,0.1-0.8,0.3c-0.5,0.2-1.2,0.4-1.9,0.6c-0.7,0.2-1.4,0.4-1.9,0.5
					c-0.5,0.1-0.9,0.2-0.9,0.2s0.3-0.1,0.8-0.3c0.5-0.2,1.2-0.4,1.9-0.6c0.7-0.2,1.4-0.4,1.9-0.5C33.2,32.7,33.5,32.6,33.5,32.6z"/>
				<path fill="#CDD6E0" d="M24,30.4c0,0,0-0.3,0-0.9c0-0.5,0.1-1.2,0.1-1.9c0.1-0.7,0.2-1.3,0.3-1.9c0.1-0.5,0.2-0.8,0.2-0.8
					s0,0.3,0,0.9c0,0.5-0.1,1.2-0.1,1.9c-0.1,0.7-0.2,1.3-0.3,1.9C24,30.1,24,30.4,24,30.4z"/>
				<path fill="#CDD6E0" d="M19.2,33.6c0,0-0.3-0.1-0.9-0.4c-0.5-0.2-1.2-0.6-1.8-0.9c-0.7-0.4-1.3-0.7-1.8-1
					C14.3,31,14,30.7,14,30.7s0.3,0.1,0.9,0.4c0.5,0.2,1.2,0.6,1.8,0.9c0.7,0.4,1.3,0.7,1.8,1C18.9,33.4,19.2,33.6,19.2,33.6z"/>
				<path fill="#CDD6E0" d="M16.9,42.6c0,0,0.2-0.3,0.5-0.6c0.3-0.4,0.7-0.9,1.2-1.3c0.5-0.5,0.9-0.9,1.3-1.2
					c0.4-0.3,0.6-0.5,0.6-0.5s-0.2,0.3-0.5,0.6c-0.3,0.4-0.7,0.9-1.2,1.3c-0.5,0.5-0.9,0.9-1.3,1.2C17.2,42.4,16.9,42.6,16.9,42.6z"
					/>
				<path fill="#CDD6E0" d="M28.9,43.6c0,0-0.2-0.2-0.5-0.6c-0.3-0.4-0.7-0.9-1-1.4c-0.3-0.5-0.7-1.1-0.9-1.5
					c-0.2-0.4-0.4-0.7-0.4-0.7s0.2,0.2,0.5,0.6c0.3,0.4,0.7,0.9,1,1.4c0.3,0.5,0.7,1.1,0.9,1.5C28.7,43.3,28.9,43.6,28.9,43.6z"/>
				<g>
					<g>
						<path fill="#CDD6E0" d="M14.7,26.7c0,0,0-0.1,0.1-0.3c0.1-0.2,0.2-0.4,0.4-0.6c0.2-0.2,0.4-0.5,0.7-0.8c0.3-0.3,0.6-0.5,1-0.7
							c0.4-0.2,0.7-0.4,1.1-0.5c0.4-0.1,0.7-0.2,1-0.3c0.3-0.1,0.6-0.1,0.7-0.1c0.2,0,0.3,0,0.3,0s-0.1,0-0.3,0.1
							c-0.2,0-0.4,0.1-0.7,0.2c-0.1,0-0.3,0.1-0.5,0.2c-0.2,0.1-0.3,0.1-0.5,0.2c-0.3,0.2-0.7,0.3-1.1,0.6c-0.2,0.1-0.3,0.2-0.5,0.3
							c-0.2,0.1-0.3,0.2-0.5,0.3c-0.3,0.2-0.6,0.5-0.8,0.7c-0.2,0.2-0.4,0.4-0.5,0.5C14.8,26.6,14.7,26.7,14.7,26.7z"/>
					</g>
					<g>
						<path fill="#CDD6E0" d="M28.7,23.8c0,0,0.4,0.1,0.9,0.4c0.3,0.2,0.6,0.3,0.9,0.5c0.3,0.2,0.7,0.5,1,0.7
							c0.3,0.3,0.6,0.5,0.9,0.8c0.3,0.3,0.5,0.6,0.7,0.8c0.1,0.1,0.2,0.2,0.2,0.4c0.1,0.1,0.1,0.2,0.2,0.3c0.1,0.2,0.1,0.3,0.1,0.3
							s-0.1-0.1-0.2-0.2c-0.1-0.1-0.1-0.2-0.2-0.2c-0.1-0.1-0.2-0.2-0.3-0.3c-0.2-0.2-0.5-0.5-0.7-0.7c-0.3-0.3-0.6-0.5-0.9-0.8
							c-0.3-0.3-0.6-0.5-1-0.7c-0.3-0.2-0.6-0.4-0.9-0.6C29.1,24.1,28.7,23.8,28.7,23.8z"/>
					</g>
					<g>
						<path fill="#CDD6E0" d="M35.7,36.3c0,0,0,0.4-0.1,1.1c-0.1,0.6-0.3,1.5-0.6,2.3c-0.2,0.4-0.4,0.8-0.6,1.2
							c-0.1,0.2-0.2,0.3-0.3,0.5c-0.1,0.2-0.2,0.3-0.3,0.4c-0.1,0.1-0.2,0.2-0.3,0.3c-0.1,0.1-0.2,0.2-0.3,0.2
							c-0.1,0.1-0.2,0.2-0.2,0.2s0.1-0.1,0.2-0.2c0.1-0.1,0.1-0.2,0.2-0.3c0.1-0.1,0.2-0.2,0.3-0.4c0.1-0.1,0.2-0.3,0.3-0.4
							c0.1-0.2,0.2-0.3,0.3-0.5c0.1-0.2,0.2-0.4,0.3-0.5c0.1-0.2,0.2-0.4,0.2-0.6c0.2-0.4,0.3-0.8,0.4-1.2c0.1-0.4,0.2-0.7,0.3-1.1
							c0.1-0.3,0.1-0.6,0.2-0.8C35.7,36.4,35.7,36.3,35.7,36.3z"/>
					</g>
					<g>
						<path fill="#CDD6E0" d="M19.4,46.3c0,0,0.1,0,0.3,0.1c0.2,0,0.4,0.1,0.7,0.2c0.3,0.1,0.7,0.1,1,0.2c0.4,0.1,0.8,0.1,1.2,0.1
							c0.4,0,0.8,0,1.2,0c0.4,0,0.7,0,1.1,0c0.3,0,0.6,0,0.8-0.1c0.2,0,0.3,0,0.3,0s-0.4,0.1-1,0.3c-0.3,0-0.7,0.1-1.1,0.1
							c-0.4,0-0.8,0-1.2,0c-0.4,0-0.8-0.1-1.2-0.2c-0.4-0.1-0.7-0.2-1-0.3c-0.3-0.1-0.5-0.2-0.7-0.3C19.5,46.4,19.4,46.3,19.4,46.3z
							"/>
					</g>
					<g>
						<path fill="#CDD6E0" d="M13,40.9c0,0-0.2-0.4-0.5-1c-0.1-0.3-0.3-0.6-0.4-1c-0.1-0.4-0.3-0.8-0.4-1.2
							c-0.1-0.4-0.2-0.8-0.2-1.3c-0.1-0.4-0.1-0.8-0.1-1.1c0-0.3,0-0.6,0-0.8c0-0.2,0-0.3,0-0.3s0,0.1,0,0.3c0,0.2,0,0.5,0.1,0.8
							c0.1,0.6,0.2,1.5,0.4,2.3c0.1,0.4,0.2,0.8,0.3,1.2c0.1,0.4,0.2,0.7,0.3,1C12.9,40.5,13,40.9,13,40.9z"/>
						<path fill="none" d="M13,40.9"/>
						<path fill="none" d="M13.6,42.1"/>
					</g>
				</g>
			</g>
		</g>
		<g>
			<polygon fill="#40596B" points="18.8,33.4 20.2,39.2 26.3,39.6 28.5,34.1 24,30.2 			"/>
			<path fill="#40596B" d="M19.9,23.3c0,0,3,0.6,4.6,1.8c0,0,3.6-1.4,4.7-1c0,0-0.5-0.9-1.4-1.9c-1.2-0.4-2.5-0.6-3.8-0.6
				c-1.1,0-2.1,0.1-3.1,0.4C20.5,22.4,20.2,22.9,19.9,23.3z"/>
			<path fill="#40596B" d="M14.6,31.1c0,0-0.2-3.8,0.5-4.8c0,0-0.7,0.2-1.6,0.5c-1.6,2-2.6,4.4-2.8,7.1c0.2,0.4,0.4,0.7,0.7,1
				C11.5,34.9,13,32.2,14.6,31.1z"/>
			<path fill="#40596B" d="M17.2,42.3c0,0-3.7-1-4.4-2c0,0-0.1,0.6,0,1.5c1.4,2.2,3.4,3.9,5.8,5c0.5-0.1,0.9-0.2,1.3-0.4
				C19.9,46.5,17.8,44.2,17.2,42.3z"/>
			<path fill="#40596B" d="M33.5,42.1c0,0-2.8,1.3-4.7,1.3c0,0-2.1,3.2-3.2,3.5c0,0,0.8,0.3,2,0.7c2.2-0.6,4.2-1.7,5.7-3.2
				C33.5,43.6,33.6,42.8,33.5,42.1z"/>
			<path fill="#40596B" d="M33.2,32.7c0,0,2.4,3,2.4,4.2c0,0,0.9-1,1.6-2.4c-0.1-2-0.6-3.9-1.4-5.5c-0.7-0.6-1.5-1-2.4-1.2
				C33.5,27.8,33.9,30.8,33.2,32.7z"/>
		</g>
	</g>
</g>
</svg>
