<?xml version="1.0" encoding="utf-8"?>
<!-- Generator: Adobe Illustrator 18.0.0, SVG Export Plug-In . SVG Version: 6.00 Build 0)  -->
<!DOCTYPE svg PUBLIC "-//W3C//DTD SVG 1.1//EN" "http://www.w3.org/Graphics/SVG/1.1/DTD/svg11.dtd">
<svg version="1.1" id="Layer_1" xmlns="http://www.w3.org/2000/svg" xmlns:xlink="http://www.w3.org/1999/xlink" x="0px" y="0px"
	 viewBox="0 0 48 48" enable-background="new 0 0 48 48" xml:space="preserve">
<g>
	<g>
		<g>
			<g>
				<g>
					<path fill="#E8EAE9" d="M27.4,48c8.3,0,15.3-6.6,15.4-14.9c0-10.7-11.7-19.9-18.8-19.9S5.2,22.4,5.2,33.1
						C5.3,41.3,12.3,48,20.6,48H27.4z"/>
				</g>
			</g>
			<g>
				<g>
					<path fill="#CED6E0" d="M42.8,33.1C42.7,41.3,35.7,48,27.4,48h-4.9c8.3,0,15.3-7.3,15.4-16.4c0-6.8-3.9-13-8.6-17.1
						C35.8,17.4,42.8,24.8,42.8,33.1z"/>
				</g>
			</g>
		</g>
		<g>
			<g>
				<g>
					<g>
						<path fill="#E8EAE9" d="M27.8,12.2h-2.6v0h-2.6v0h-2.6c-0.8-2-9.6-5.8-8.2-9.5c0.7-1.9,6.3-2.6,8-1.5c1.3-1.6,6.8-1.6,8,0
							c1.7-1.1,7.3-0.4,8,1.5C37.4,6.4,28.6,10.2,27.8,12.2z"/>
					</g>
				</g>
			</g>
		</g>
		<g>
			<path fill="#415A6B" d="M29.4,10.7c-1.9,0-3.9,0-5.9,0c-1.6,0-3.2,0-4.8,0c-0.5,0-0.9,0.4-0.9,0.9c0,0.5,0.4,0.9,0.9,0.9
				c0,0,0,0,0,0c0.2,0,0.4,0,0.5,0c-0.2,0.1-0.4,0.4-0.5,0.7c-0.1,0.5,0.3,1,0.8,1.1c1.5,0.2,3,0.4,4.5,0.4c1.5,0,3-0.1,4.5-0.4
				c0.5-0.1,0.9-0.6,0.8-1.1c0-0.3-0.2-0.5-0.5-0.7c0.2,0,0.4,0,0.5,0c0.5,0,0.9-0.4,0.9-0.9C30.3,11.1,29.9,10.7,29.4,10.7z"/>
		</g>
		<g>
			<path fill="#415A6B" d="M27.7,13.6h-1.9c0,1.3,0,4.7,0,4.9c0,0.5,0.4,0.9,0.9,0.9c0.5,0,0.9-0.4,0.9-0.9
				C27.7,18.2,27.7,15,27.7,13.6z"/>
		</g>
		<g>
			<path fill="#415A6B" d="M25.3,11.7h-1.9c0,1.5,0,4,0,4.1c0,0.5,0.4,0.9,0.9,0.9c0.5,0,0.9-0.4,0.9-0.9
				C25.3,15.6,25.3,13.3,25.3,11.7z"/>
		</g>
		<g>
			<g>
				<path fill="#F7B64C" d="M23,42.5v-1.7c-2-0.3-3.8-1.2-5.5-2.7l2.2-2.7c1.2,1.1,2.3,1.8,3.3,2.1v-3.5c-1.7-0.4-2.9-1-3.6-1.7
					c-0.8-0.7-1.2-1.7-1.2-3.1c0-1.3,0.4-2.5,1.3-3.3c0.9-0.9,2-1.4,3.5-1.6v-1.2h2.5v1.2c1.6,0.2,3.1,0.9,4.7,2L28.3,29
					c-1-0.7-1.9-1.2-2.8-1.4V31c1.7,0.4,3,1,3.8,1.8c0.8,0.7,1.2,1.8,1.2,3.1s-0.5,2.5-1.4,3.4s-2.1,1.4-3.6,1.6v1.7H23z M23,27.5
					c-0.7,0.2-1,0.7-1,1.3s0.3,1.1,1,1.4V27.5z M26.7,36.1c0-0.3-0.1-0.6-0.3-0.8c-0.2-0.2-0.5-0.4-0.9-0.6v2.9
					C26.3,37.3,26.7,36.8,26.7,36.1z"/>
			</g>
		</g>
	</g>
</g>
</svg>
