<?xml version="1.0" encoding="utf-8"?>
<!-- Generator: Adobe Illustrator 19.0.1, SVG Export Plug-In . SVG Version: 6.00 Build 0)  -->
<svg version="1.1" id="Layer_1" xmlns="http://www.w3.org/2000/svg" xmlns:xlink="http://www.w3.org/1999/xlink" x="0px" y="0px"
	 viewBox="0 0 48 48" style="enable-background:new 0 0 48 48;" xml:space="preserve">
<style type="text/css">
	.st0{fill:#415A6B;}
	.st1{fill:#ADB3BA;}
	.st2{fill:#E8EAE9;}
	.st3{fill:#55C0EB;}
	.st4{fill:#F3705A;}
	.st5{fill:#FFFFFF;}
	.st6{fill:#FFD15C;}
	.st7{fill:#344A5E;}
	.st8{fill:#CED6E0;}
	.st9{fill:#F05540;}
	.st10{fill:#F7B64C;}
	.st11{fill:#F3F3F3;}
	.st12{fill:#66C6B9;}
	.st13{fill:#4ABAA5;}
	.st14{fill:#8AD7F8;}
	.st15{fill:none;}
	.st16{fill:#E53D35;}
</style>
<g>
	<g>
		<g>
			<g>
				<g>
					<path class="st8" d="M24,48c-2,0-3.6-1.6-3.6-3.6s1.6-3.6,3.6-3.6c2,0,3.6,1.6,3.6,3.6S26,48,24,48z M24,42.7
						c-0.9,0-1.6,0.7-1.6,1.6S23.1,46,24,46c0.9,0,1.6-0.7,1.6-1.6S24.9,42.7,24,42.7z"/>
				</g>
			</g>
			<g>
				<g>
					<rect x="23" y="30.5" class="st8" width="2" height="11.2"/>
				</g>
			</g>
		</g>
		<g>
			<path class="st4" d="M45.1,5.8H2.9C1.3,5.8,0,4.5,0,2.9v0C0,1.3,1.3,0,2.9,0h42.2C46.7,0,48,1.3,48,2.9v0
				C48,4.5,46.7,5.8,45.1,5.8z"/>
		</g>
		<g>
			<g>
				<g>
					<g>
						<path class="st2" d="M45.1,5.8V32c0,1.7-1.4,3-3,3H5.9c-1.7,0-3-1.3-3-3V5.8H45.1z"/>
					</g>
				</g>
			</g>
		</g>
		<g>
			<g>
				<g>
					<polygon class="st1" points="11.7,27 10.4,25.7 19.7,16.3 28.3,22.1 36.2,13.8 37.6,15.1 28.5,24.6 19.9,18.7 					"/>
				</g>
			</g>
			<g>
				<g>
					<g>
						<circle class="st0" cx="11.1" cy="26.4" r="3"/>
					</g>
					<g>
						<circle class="st7" cx="11.1" cy="26.4" r="1.5"/>
					</g>
				</g>
				<g>
					<g>
						<circle class="st12" cx="19.8" cy="17.5" r="3"/>
					</g>
					<g>
						<circle class="st13" cx="19.8" cy="17.5" r="1.5"/>
					</g>
				</g>
				<g>
					<g>
						<circle class="st4" cx="28.4" cy="23.3" r="3"/>
					</g>
					<g>
						<circle class="st9" cx="28.4" cy="23.3" r="1.5"/>
					</g>
				</g>
				<g>
					<g>
						<circle class="st6" cx="36.9" cy="14.5" r="3"/>
					</g>
					<g>
						<circle class="st10" cx="36.9" cy="14.5" r="1.5"/>
					</g>
				</g>
			</g>
		</g>
	</g>
</g>
</svg>
