<?xml version="1.0" encoding="utf-8"?>
<!-- Generator: Adobe Illustrator 18.0.0, SVG Export Plug-In . SVG Version: 6.00 Build 0)  -->
<!DOCTYPE svg PUBLIC "-//W3C//DTD SVG 1.1//EN" "http://www.w3.org/Graphics/SVG/1.1/DTD/svg11.dtd">
<svg version="1.1" id="Layer_1" xmlns="http://www.w3.org/2000/svg" xmlns:xlink="http://www.w3.org/1999/xlink" x="0px" y="0px"
	 viewBox="0 0 512 512" enable-background="new 0 0 512 512" xml:space="preserve">
<g>
	<path fill="#F2F2F2" d="M488.8,2H23.2C11.5,2,2,11.5,2,23.2v465.7c0,11.7,9.5,21.2,21.2,21.2h465.7c11.7,0,21.2-9.5,21.2-21.2V23.2
		C510,11.5,500.5,2,488.8,2z"/>
	<rect x="47.2" y="47.2" fill="#89D6F7" width="417.7" height="302.9"/>
	<path fill="#FFFFFF" d="M256.3,95.2c-57.1,0-103.4,46.3-103.4,103.4c0,4.7,0.3,9.3,0.9,13.8c5.1,38.1,31,69.7,65.9,82.8
		c11.3,4.3,23.7,6.7,36.6,6.7c57.1,0,103.4-46.3,103.4-103.4C359.7,141.5,313.4,95.2,256.3,95.2z"/>
	<path fill="#F2705B" d="M309.3,193.2l-71.6-46.9c-4.3-2.8-10.1,0.3-10.1,5.5v93.7c0,5.2,5.8,8.3,10.1,5.5l71.6-46.9
		C313.2,201.5,313.2,195.7,309.3,193.2z"/>
	<rect x="75.3" y="420" fill="#CDD5DF" width="361.5" height="22.1"/>
	<rect x="153.8" y="403" fill="#334A5E" width="31.7" height="56.2"/>
</g>
</svg>
