<?xml version="1.0" encoding="utf-8"?>
<!-- Generator: Adobe Illustrator 18.0.0, SVG Export Plug-In . SVG Version: 6.00 Build 0)  -->
<!DOCTYPE svg PUBLIC "-//W3C//DTD SVG 1.1//EN" "http://www.w3.org/Graphics/SVG/1.1/DTD/svg11.dtd">
<svg version="1.1" id="Layer_1" xmlns="http://www.w3.org/2000/svg" xmlns:xlink="http://www.w3.org/1999/xlink" x="0px" y="0px"
	 viewBox="0 0 48 48" enable-background="new 0 0 48 48" xml:space="preserve">
<g>
	<path fill="#4CDBC4" d="M25.1,5.6C18.4-1,8.6-2.1,3.2,3.2C-2.1,8.6-1,18.4,5.6,25.1c3.7,3.7,8.2,5.6,12.5,5.8
		c3.5,0.1,7.1,0.8,10.2,2.5c1.2,0.7,2.4,1.5,3.5,2.4c0.4,0.4,1.1,0.4,1.5,0l2.4-2.4c0.4-0.4,0.4-1.1,0-1.5c-0.9-1-1.7-2.2-2.4-3.5
		c-1.7-3.1-2.4-6.7-2.5-10.2C30.7,13.9,28.7,9.3,25.1,5.6z M33.5,32.5l-1,1c-2.5-2-5.5-3.2-7.8-4c1-0.5,1.9-1.2,2.8-2
		c0.8-0.8,1.5-1.8,2-2.8C30.2,27,31.5,30,33.5,32.5z M26,26c-4.5,4.5-12.9,3.4-18.8-2.4S0.3,9.3,4.8,4.8c4.5-4.5,12.9-3.4,18.8,2.4
		S30.5,21.4,26,26z"/>
	<path fill="#FF7058" d="M38.2,34.7l-3.5,3.5c-0.4,0.4-1,0.4-1.4,0L32,36.9c-0.4-0.4-0.4-1,0-1.4l3.5-3.5c0.4-0.4,1-0.4,1.4,0
		l1.3,1.3C38.6,33.7,38.6,34.3,38.2,34.7z"/>
	<path fill="#FF7058" d="M47.9,44.4l-3.5,3.5c-0.4,0.4-1,0.4-1.4,0l-1.3-1.3c-0.4-0.4-0.4-1,0-1.4l3.5-3.5c0.4-0.4,1-0.4,1.4,0
		l1.3,1.3C48.3,43.4,48.3,44,47.9,44.4z"/>
	
		<rect x="37.6" y="35" transform="matrix(0.7071 -0.7071 0.7071 0.7071 -16.5485 39.9516)" fill="#40596B" width="4.7" height="10"/>
	
		<rect x="38.7" y="40.7" transform="matrix(0.7071 -0.7071 0.7071 0.7071 -17.011 41.0682)" fill="#FFD15C" width="4.7" height="0.7"/>
	
		<rect x="39.8" y="41.8" transform="matrix(0.7071 -0.7071 0.7071 0.7071 -17.4408 42.1059)" fill="#FFD15C" width="4.7" height="0.7"/>
	<path fill="#CDD6E0" d="M28.1,14.6c-0.2-0.8-0.5-1.5-0.9-2.3v2.6H22V9.7h3.7c-0.2-0.3-0.4-0.6-0.7-0.9h-3v-3
		c-0.3-0.2-0.6-0.5-0.9-0.7v3.7h-5.2V3.5h2.6c-0.7-0.4-1.5-0.7-2.3-0.9h-0.4V2.5c-0.3-0.1-0.6-0.2-0.9-0.2v0.3H9.7V2.2
		C9.4,2.3,9.1,2.3,8.8,2.4v0.2H8.2C7.6,2.9,6.9,3.2,6.4,3.5h2.4v5.2H3.5V6.4C3.2,6.9,2.9,7.6,2.6,8.2v0.6H2.4
		C2.3,9.1,2.3,9.4,2.2,9.7h0.4v5.2H2.3c0.1,0.3,0.2,0.6,0.2,0.9h0.1v0.4c0.2,0.8,0.5,1.5,0.9,2.3v-2.6h5.2v5.2H5.1
		c0.2,0.3,0.4,0.6,0.7,0.9h3v3c0.3,0.2,0.6,0.5,0.9,0.7V22h5.2v5.2h-2.6c0.7,0.4,1.5,0.7,2.3,0.9h0.4v0.1c0.3,0.1,0.6,0.2,0.9,0.2
		v-0.3h5.2v0.4c0.3-0.1,0.6-0.1,0.9-0.2v-0.2h0.6c0.6-0.2,1.3-0.5,1.8-0.9H22V22h5.2v2.4c0.4-0.6,0.7-1.2,0.9-1.8V22h0.2
		c0.1-0.3,0.1-0.6,0.2-0.9h-0.4v-5.2h0.3c-0.1-0.3-0.2-0.6-0.2-0.9h-0.1V14.6z M21.1,9.7v5.2h-5.2V9.7H21.1z M9.7,3.5h5.2v5.2H9.7
		V3.5z M14.9,9.7v5.2H9.7V9.7H14.9z M3.5,14.9V9.7h5.2v5.2H3.5z M9.7,21.1v-5.2h5.2v5.2H9.7z M21.1,27.2h-5.2V22h5.2V27.2z
		 M15.8,21.1v-5.2h5.2v5.2H15.8z M27.2,21.1H22v-5.2h5.2V21.1z"/>
</g>
</svg>
