<?xml version="1.0" encoding="utf-8"?>
<!-- Generator: Adobe Illustrator 20.1.0, SVG Export Plug-In . SVG Version: 6.00 Build 0)  -->
<!DOCTYPE svg PUBLIC "-//W3C//DTD SVG 1.1//EN" "http://www.w3.org/Graphics/SVG/1.1/DTD/svg11.dtd">
<svg version="1.1" id="Layer_1" xmlns="http://www.w3.org/2000/svg" xmlns:xlink="http://www.w3.org/1999/xlink" x="0px" y="0px"
	 viewBox="0 0 49 49" enable-background="new 0 0 49 49" xml:space="preserve">
<g>
	<path fill="#40596B" d="M3.2,27.1c-0.7,0-1.4-0.3-1.9-0.8c-1-1-1-2.7,0-3.7L22.6,1.3c1-1,2.7-1,3.7,0l21.3,21.3c1,1,1,2.7,0,3.7
		c-1,1-2.7,1-3.7,0L24.5,6.9L5.1,26.3C4.5,26.8,3.9,27.1,3.2,27.1z"/>
	<polygon fill="#334A5E" points="17.6,6.3 17.6,2.2 11.3,2.2 11.3,12.6 	"/>
	<rect x="0.5" y="45.5" fill="#E2E2E2" width="47.9" height="3"/>
	<polygon fill="#F2F2F2" points="42.9,25.3 42.9,45.5 6.1,45.5 6.1,25.3 24.5,6.9 	"/>
	<path fill="#E2E2E2" d="M42.9,25.3v2.1c0,0,0,0-0.1-0.1L24.5,9L6.1,27.4c0,0-0.1,0.1-0.1,0.1v-2.1L24.5,6.9L42.9,25.3z"/>
	<rect x="9.4" y="35.5" fill="#54C0EB" width="5.1" height="5.1"/>
	<rect x="34.5" y="35.5" fill="#54C0EB" width="5.1" height="5.1"/>
	<path fill="#ACB3BA" d="M17.8,45.5V33.8c0-3.7,3-6.7,6.7-6.7l0,0c3.7,0,6.7,3,6.7,6.7v11.7H17.8z"/>
	<rect x="21.9" y="18.3" fill="#54C0EB" width="5.1" height="5.1"/>
</g>
</svg>
