<?xml version="1.0" encoding="utf-8"?>
<!-- Generator: Adobe Illustrator 16.0.0, SVG Export Plug-In . SVG Version: 6.00 Build 0)  -->
<!DOCTYPE svg PUBLIC "-//W3C//DTD SVG 1.1//EN" "http://www.w3.org/Graphics/SVG/1.1/DTD/svg11.dtd">
<svg version="1.1" id="Layer_1" xmlns="http://www.w3.org/2000/svg" xmlns:xlink="http://www.w3.org/1999/xlink" x="0px" y="0px"
	 width="48px" height="48px" viewBox="0 0 48 48" enable-background="new 0 0 48 48" xml:space="preserve">
<g>
	<polygon fill="#CDD6E0" points="24,33.097 24,33.097 23.988,33.092 23.996,33.097 20.457,40.266 23.279,48.148 24.717,48.148 
		27.539,40.266 	"/>
	<path fill="#F8B64C" d="M16.906,30.096v-0.002l0.004,0.002v-0.002v0.002c3.555,4.707,10.621,4.707,14.176,0.002l0.004-0.004v0.002
		v-5.192H16.902v5.194L16.906,30.096z"/>
	<path fill="#F8B64C" d="M16.982,16.621c0.156,1.795-0.715,3.338-1.945,3.445c-1.232,0.108-2.359-1.26-2.516-3.055
		s0.715-3.337,1.945-3.445C15.699,13.458,16.824,14.826,16.982,16.621"/>
	<path fill="#F8B64C" d="M35.488,17.012c-0.158,1.795-1.283,3.163-2.514,3.055c-1.232-0.107-2.104-1.649-1.947-3.444
		c0.158-1.796,1.283-3.163,2.516-3.056C34.773,13.674,35.645,15.217,35.488,17.012"/>
	<path fill="#FFD15C" d="M13.648,12.774c0,0,0.08,3.318,0.15,3.838c0,0-0.01,0.011,0,0.021c0.029,0.27,0.07,0.53,0.109,0.8
		c0.279,1.73,0.801,3.399,1.529,4.979c0.83,1.811,1.951,3.51,3.32,5l0.98,1.08c0.9,0.98,2.18,1.551,3.51,1.551h1.5
		c1.34,0,2.621-0.561,3.52-1.551l0.99-1.08c1.93-2.109,3.361-4.609,4.211-7.319c0.27-0.86,0.48-1.75,0.629-2.65
		c0.051-0.26,0.09-0.529,0.121-0.79v-0.02c0.07-0.54,0.141-3.858,0.141-3.858H13.648z"/>
	<g opacity="0.1">
		<g>
			<defs>
				<rect id="SVGID_83_" x="21.385" y="25.018" width="9.705" height="8.29"/>
			</defs>
			<clipPath id="SVGID_2_">
				<use xlink:href="#SVGID_83_"  overflow="visible"/>
			</clipPath>
			<path clip-path="url(#SVGID_2_)" fill="#40596B" d="M29.26,27.404l-0.99,1.08c-0.9,0.99-2.18,1.551-3.52,1.551h-1.5
				c-0.646,0-1.281-0.141-1.867-0.392l4.934,3.664c1.803-0.483,3.479-1.53,4.729-3.164c0.016-0.019,0.027-0.032,0.041-0.051
				l0.002-5.075C30.535,25.852,29.941,26.66,29.26,27.404"/>
		</g>
	</g>
	<polygon fill="#F2F2F2" points="31.469,29.293 27.549,40.287 24,33.097 31.08,29.106 31.09,29.106 31.1,29.097 	"/>
	<polygon fill="#FF7058" points="20.459,48.148 22.479,41.529 21.6,40.238 20.949,39.279 24,33.1 27.049,39.279 26.398,40.229 
		25.52,41.529 27.549,48.148 	"/>
	<polygon fill="#F1543F" points="27.049,39.279 26.4,40.229 24,35.359 21.6,40.238 20.949,39.279 24,33.099 	"/>
	<polygon fill="#334A5E" points="31.469,29.293 32.307,29.711 35.285,36.109 33.004,37.369 36.623,41.617 28.754,48.147 
		24.717,48.147 	"/>
	<polygon fill="#F2F2F2" points="16.527,29.293 20.447,40.287 23.996,33.097 16.916,29.106 16.906,29.106 16.896,29.097 	"/>
	<polygon fill="#334A5E" points="16.527,29.293 15.688,29.711 12.711,36.109 14.992,37.369 11.373,41.617 19.242,48.147 
		23.279,48.147 	"/>
	<path fill="#40596B" d="M14.992,37.369l-2.281-1.26l2.977-6.398L2.949,35.586C1.17,36.277,0,38.996,0,40.906v7.242h19.242
		l-7.869-6.531L14.992,37.369z"/>
	<path fill="#40596B" d="M45.059,35.586l-12.752-5.875l2.979,6.398l-2.283,1.26l3.621,4.248l-7.869,6.53H48v-7.241
		C48,38.996,46.83,36.287,45.059,35.586"/>
	
		<rect x="3.353" y="32.47" transform="matrix(0.9073 -0.4205 0.4205 0.9073 -13.5473 6.3995)" fill="#334A5E" width="8.774" height="2.91"/>
	
		<rect x="4.641" y="33.717" transform="matrix(0.907 -0.4211 0.4211 0.907 -14.3421 5.3964)" fill="#FFD15C" width="0.814" height="2.911"/>
	
		<rect x="6.142" y="33.022" transform="matrix(0.907 -0.4212 0.4212 0.907 -13.9116 5.9658)" fill="#FFD15C" width="0.816" height="2.91"/>
	
		<rect x="7.643" y="32.325" transform="matrix(0.9066 -0.4221 0.4221 0.9066 -13.5065 6.5546)" fill="#FFD15C" width="0.814" height="2.912"/>
	
		<rect x="35.881" y="32.47" transform="matrix(-0.9073 -0.4204 0.4204 -0.9073 62.5439 81.635)" fill="#334A5E" width="8.776" height="2.91"/>
	
		<rect x="42.555" y="33.717" transform="matrix(-0.907 -0.4211 0.4211 -0.907 67.1173 85.1658)" fill="#FFD15C" width="0.814" height="2.911"/>
	
		<rect x="41.053" y="33.021" transform="matrix(-0.9066 -0.4221 0.4221 -0.9066 64.493 83.2315)" fill="#FFD15C" width="0.814" height="2.911"/>
	
		<rect x="39.55" y="32.325" transform="matrix(-0.907 -0.4212 0.4212 -0.907 61.9711 81.2487)" fill="#FFD15C" width="0.816" height="2.911"/>
	<path fill="#FFD15C" d="M43.07,45.176h-2.246c-0.115-0.429-0.32-0.717-0.555-0.717c-0.236,0-0.439,0.288-0.555,0.717h-2.248v0.535
		H38.1v0.525h0.582v0.537h1.035c0.115,0.423,0.318,0.705,0.553,0.705c0.232,0,0.436-0.282,0.551-0.705h1.035v-0.537h0.582v-0.525
		h0.633V45.176z"/>
	<path fill="#334A5E" d="M34.359,11.723v2.76c0,0.11,0,0.22-0.012,0.33c0,0.06,0,0.13-0.01,0.189
		c-0.01,0.551-0.049,1.091-0.119,1.63c-0.17-1.05-0.43-1.829-0.65-2.38c-0.289-0.68-0.359-1.399-0.26-2.12
		c0.439-3.14-1.221-2.71-1.221-2.71c-3.539,1.74-8.08,1.7-8.08,1.7s-4.539,0.04-8.09-1.7c0,0-1.66-0.43-1.219,2.71
		c0.1,0.721,0.029,1.44-0.262,2.12c-0.219,0.551-0.469,1.33-0.639,2.36c-0.07-0.52-0.111-1.07-0.121-1.6v-0.11
		c0-0.01-0.01-0.01-0.01-0.021c-0.01-0.13-0.01-0.27-0.01-0.399c-0.01-0.08-0.01-0.15-0.01-0.23v-2.47
		c0.061-0.37,0.131-0.74,0.24-1.1c1.25-4.391,5.311-7.62,10.119-7.62c4.801,0,8.861,3.229,10.111,7.62
		C34.219,11.022,34.299,11.372,34.359,11.723"/>
	<path fill="#F2F2F2" d="M36.59,9.384c0,5.266-24.85,5.266-24.85,0c0-5.265,5.563-9.532,12.426-9.532
		C31.027-0.148,36.59,4.119,36.59,9.384"/>
	<path fill="#334A5E" d="M35.029,11.252v0.84c0,0.311-0.111,0.65-0.301,0.961c-0.32,0.52-0.869,0.979-1.49,1.18
		c-1.471,0.43-2.971,0.74-4.49,0.95c-3.039,0.37-6.129,0.37-9.16,0c-1.52-0.21-3.02-0.521-4.49-0.95
		c-0.619-0.2-1.17-0.66-1.488-1.18c-0.191-0.311-0.301-0.65-0.301-0.961v-0.84c0-0.83,0.789-1.819,1.789-2.14
		c5.881-1.69,12.25-1.69,18.141,0C34.238,9.433,35.029,10.422,35.029,11.252"/>
	<path fill="#334A5E" d="M27.98,8.793c0,1.788-1.709,3.237-3.814,3.237c-2.107,0-3.814-1.449-3.814-3.237s1.707-3.238,3.814-3.238
		C26.271,5.555,27.98,7.005,27.98,8.793"/>
	<path fill="#40596B" d="M34.729,13.053c-0.32,0.52-0.869,0.979-1.49,1.18c-1.471,0.43-2.971,0.74-4.49,0.95
		c-3.039,0.37-6.129,0.37-9.16,0c-1.52-0.21-3.02-0.521-4.49-0.95c-0.619-0.2-1.17-0.66-1.488-1.18
		c1.799-1.141,5.85-1.931,10.559-1.931C28.889,11.122,32.949,11.912,34.729,13.053"/>
	<path fill="#40596B" d="M28.988,25.053c-0.008,0.13-0.135,0.218-0.258,0.171c-0.557-0.22-1.959-1.001-3.217-1.534
		c-0.465-0.197-0.904-0.455-1.295-0.775c-0.111-0.088-0.191-0.156-0.203-0.166l0,0c-0.004,0-0.012-0.002-0.012-0.008
		c0,0.006-0.014,0.01-0.014,0.008c-0.016,0.015-0.096,0.082-0.201,0.166c-0.393,0.32-0.83,0.578-1.297,0.775
		c-1.256,0.533-2.658,1.314-3.217,1.534c-0.121,0.047-0.248-0.041-0.256-0.171c-0.053-1.047,1.156-2.307,1.156-2.307
		c2.02-2.502,3.828-1.147,3.828-1.147s1.809-1.354,3.828,1.147C27.832,22.746,29.041,24.006,28.988,25.053"/>
	<path fill="#FFD15C" d="M26.967,7.999h-2.246c-0.115-0.429-0.32-0.717-0.555-0.717c-0.236,0-0.439,0.288-0.555,0.717h-2.248v0.535
		h0.633v0.526h0.582v0.536h1.035c0.115,0.423,0.32,0.706,0.553,0.706s0.436-0.283,0.551-0.706h1.035V9.061h0.582V8.534h0.633V7.999z
		"/>
</g>
</svg>
