<?xml version="1.0" encoding="utf-8"?>
<!-- Generator: Adobe Illustrator 18.0.0, SVG Export Plug-In . SVG Version: 6.00 Build 0)  -->
<!DOCTYPE svg PUBLIC "-//W3C//DTD SVG 1.1//EN" "http://www.w3.org/Graphics/SVG/1.1/DTD/svg11.dtd">
<svg version="1.1" id="Layer_1" xmlns="http://www.w3.org/2000/svg" xmlns:xlink="http://www.w3.org/1999/xlink" x="0px" y="0px"
	 viewBox="0 0 48 48" enable-background="new 0 0 48 48" xml:space="preserve">
<g>
	<g>
		<path fill="#FF7058" d="M41.1,32.4c0,0-3.8,3-4.3,3c-0.5-0.1-11.3-3-11.3-3L24,32.6l-1.5-0.1c0,0-10.8,2.9-11.3,3
			c-0.5,0.1-4.3-3-4.3-3s6.1-6.2,5.2-18.7C11.8,10,12.8,7.1,14.3,5c4.7-6.7,14.8-6.7,19.5,0c1.5,2.1,2.5,5,2.2,8.7
			C34.9,26.3,41.1,32.4,41.1,32.4z"/>
	</g>
	<g>
		<path fill="#40596B" d="M48,48H0l3.6-12.1c0.7-2.2,2.5-3.9,4.8-4.3l7.1-1.3c2,0,2.9-1.3,3.1-3.3l5.3,2.3l5.3-2.3
			c0.3,1.7,1.1,3,3.1,3.3l7.1,1.3c2.3,0.4,4.2,2.1,4.8,4.3L48,48z"/>
	</g>
	<g>
		<g>
			<g>
				<path fill="#FFFEFC" d="M29.4,26.8l3.8,3.6c0,0-0.5,5.1-6.2,7.4l-3-3.9L29.4,26.8z"/>
			</g>
		</g>
		<g>
			<g>
				<path fill="#FFFEFC" d="M18.6,26.8l-3.8,3.6c0,0,0.5,5.1,6.2,7.4l3-3.9L18.6,26.8z"/>
			</g>
		</g>
	</g>
	<g>
		<path fill="#F8B64C" d="M27.3,32.3c-1.1,1.2-3.3,1.8-3.3,1.8s-2.2-0.6-3.3-1.8c-1.8-1.9-2.7-4.4-2.7-7v-8.7h12v8.7
			C30,27.8,29.1,30.4,27.3,32.3z"/>
	</g>
	<path fill="#FFD15C" d="M22.6,8.4c0,0-2.6,4.7-8.2,6.6c0.7,7.2,4.6,12.7,9.3,12.7c5.2,0,9.4-6.5,9.4-14.7
		C28.7,14.4,22.6,8.4,22.6,8.4z"/>
	<g>
		<path fill="#FFFFFF" d="M35.2,10.4C32.6,7,28.6,4.9,24,4.9c-4.6,0-8.6,2.2-11.2,5.5c1.7-4.5,6.1-7.7,11.2-7.7
			C29.1,2.7,33.5,5.9,35.2,10.4z"/>
	</g>
	<g>
		<path fill="#FFFFFF" d="M37.8,34.1l0.8-2.7l-1.8-0.3l-1.9,5.4c-0.8,2.2-2.8,3.8-5.1,4.1h0c-3.8,0.4-7.7,0.4-11.5,0l0,0
			c-2.4-0.3-4.3-1.9-5.1-4.1l-1.9-5.4l-1.8,0.3l0.8,2.7c1.3,4,1.9,9.1,2,13.9h23.6C35.9,43.7,36.5,38.1,37.8,34.1z"/>
	</g>
</g>
</svg>
