<?xml version="1.0" encoding="utf-8"?>
<!-- Generator: Adobe Illustrator 18.0.0, SVG Export Plug-In . SVG Version: 6.00 Build 0)  -->
<!DOCTYPE svg PUBLIC "-//W3C//DTD SVG 1.1//EN" "http://www.w3.org/Graphics/SVG/1.1/DTD/svg11.dtd">
<svg version="1.1" id="Layer_1" xmlns="http://www.w3.org/2000/svg" xmlns:xlink="http://www.w3.org/1999/xlink" x="0px" y="0px"
	 viewBox="0 0 48 48" enable-background="new 0 0 48 48" xml:space="preserve">
<g>
	<g>
		<g>
			<g>
				<g>
					<g>
						<g>
							<path fill="#F3705A" d="M24,39.7c0,0-22.4-12.7-22.4-27.8C1.6,5.3,6.9,0,13.5,0C18.1,0,22,2.6,24,6.4C26,2.6,29.9,0,34.5,0
								C41,0,46.4,5.3,46.4,11.9C46.4,26.9,24,39.7,24,39.7z"/>
						</g>
					</g>
				</g>
			</g>
		</g>
		<g>
			<path fill="#415A6B" d="M46.1,16.2c-2.6,9.9-13.3,18.1-18.6,21.7c-1.6,1.1-2.4,2.9-2.2,4.8c0,0.1,0,0.1,0,0.2
				c0.1,0.8,0.6,3.3,0.6,3.3c0,0,0,0,0,0c0.3,0.6-0.3,1.5-1.1,1.7c-0.5,0.2-0.9,0.2-1.3,0c-0.9-0.3-1.4-1.1-1.1-1.8
				c0,0,0.1-0.6,0.3-1.3c0.1-0.7,0.3-1.6,0.4-2c0,0,0,0,0,0c0.2-1.9-0.6-3.8-2.2-4.9c-4.9-3.3-14.9-10.8-18.2-20
				c-0.4-1.2,0.8-2.4,2-1.8c11.7,5.5,20.9-9.5,40.2-2.5C45.7,13.9,46.3,15.1,46.1,16.2z"/>
		</g>
	</g>
</g>
</svg>
