<?xml version="1.0" encoding="utf-8"?>
<!-- Generator: Adobe Illustrator 16.0.0, SVG Export Plug-In . SVG Version: 6.00 Build 0)  -->
<!DOCTYPE svg PUBLIC "-//W3C//DTD SVG 1.1//EN" "http://www.w3.org/Graphics/SVG/1.1/DTD/svg11.dtd">
<svg version="1.1" id="Layer_1" xmlns="http://www.w3.org/2000/svg" xmlns:xlink="http://www.w3.org/1999/xlink" x="0px" y="0px"
	 width="48px" height="48px" viewBox="0 0 48 48" enable-background="new 0 0 48 48" xml:space="preserve">
<g>
	<path fill="#40596B" d="M23.999,48c-2.271,0-4.432-0.907-6.078-2.557c-1.648-1.646-2.557-3.808-2.557-6.08
		c0-3.326,1.857-6.299,4.848-7.76c0.709-0.347,1.184-1.219,1.184-2.17v-4.881c0-1.438,1.166-2.604,2.605-2.604
		c1.438,0,2.602,1.166,2.602,2.604v4.881c0,2.939-1.609,5.629-4.104,6.848c-1.189,0.58-1.928,1.763-1.928,3.084
		c0,0.867,0.375,1.742,1.031,2.396c0.654,0.655,1.529,1.031,2.398,1.031c1.891-0.001,3.428-1.539,3.428-3.428
		c0-1.439,1.166-2.604,2.604-2.604s2.604,1.165,2.604,2.604c0,4.759-3.873,8.634-8.633,8.635H23.999z"/>
	<path fill="#F7B64C" d="M24.917,26.998l16.77-6.223c1.033-0.383,1.719-1.369,1.719-2.471V2.635C43.405,1.18,42.226,0,40.769,0
		H7.231C5.774,0,4.595,1.18,4.595,2.635v15.67c0,1.102,0.686,2.088,1.719,2.471l16.77,6.223
		C23.675,27.217,24.325,27.217,24.917,26.998"/>
	<path fill="#FFD15C" d="M13.169,0L4.595,16.824v1.479c0,1.103,0.686,2.089,1.719,2.472l4.072,1.51L21.214,0H13.169z"/>
	<path fill="#FFD15C" d="M29.259,0L17.364,24.875l5.719,2.122c0.451,0.167,0.934,0.206,1.402,0.118L37.304,0H29.259z"/>
	<path fill="#FFD15C" d="M41.687,20.775c1.033-0.383,1.719-1.369,1.719-2.471V4.711l-9.441,18.93L41.687,20.775z"/>
	<path fill="#334A5E" d="M27.015,28.965h-6.029c-1.824,0-3.303-1.479-3.303-3.305v-0.682h12.635v0.682
		C30.317,27.485,28.839,28.965,27.015,28.965"/>
</g>
</svg>
