<?xml version="1.0" encoding="utf-8"?>
<!-- Generator: Adobe Illustrator 18.0.0, SVG Export Plug-In . SVG Version: 6.00 Build 0)  -->
<!DOCTYPE svg PUBLIC "-//W3C//DTD SVG 1.1//EN" "http://www.w3.org/Graphics/SVG/1.1/DTD/svg11.dtd">
<svg version="1.1" id="Layer_1" xmlns="http://www.w3.org/2000/svg" xmlns:xlink="http://www.w3.org/1999/xlink" x="0px" y="0px"
	 viewBox="0 0 48 48" enable-background="new 0 0 48 48" xml:space="preserve">
<g>
	<path fill="#FFFFFF" d="M24,47.6l6.5-18.9C28.9,30.9,26.5,32,24,32c-2.4,0-4.9-1.1-6.5-3.3l0,0L24,47.6z"/>
	<path fill="#F8B64C" d="M17.5,28.7C17.6,28.8,17.6,28.8,17.5,28.7L17.5,28.7z"/>
	<path fill="#F8B64C" d="M26.6,31.6"/>
	<path fill="#F8B64C" d="M30.5,28.7C30.4,28.8,30.4,28.8,30.5,28.7L30.5,28.7z"/>
	<g>
		
			<ellipse transform="matrix(0.9962 -8.716666e-002 8.716666e-002 0.9962 -1.3641 1.405)" fill="#F8B64C" cx="15.4" cy="16.3" rx="2.1" ry="3"/>
		
			<ellipse transform="matrix(0.9962 8.716666e-002 -8.716666e-002 0.9962 1.5469 -2.7805)" fill="#F8B64C" cx="32.6" cy="16.3" rx="2.1" ry="3"/>
	</g>
	<path fill="#FFD15C" d="M24,2.2c-5.3,0-9.7,4.3-9.7,9.7v2.9c0,0.7,0,1.5,0.1,2.2v0c0.5,3.8,2.1,7.3,4.6,10.1l0.9,1
		c0.8,0.9,2,1.4,3.3,1.4h1.4c1.2,0,2.4-0.5,3.3-1.4l0.9-1c2.6-2.8,4.2-6.3,4.6-10.1c0.1-0.7,0.1-1.5,0.1-2.2v-2.9
		C33.7,6.5,29.3,2.2,24,2.2L24,2.2z"/>
	<path fill="#CDD6E0" d="M30.5,28.7"/>
	<polygon fill="#FF7058" points="26.1,41.6 26.6,48 21.4,48 21.9,41.6 21.9,41.6 22.3,37 20.7,34.1 24,32.1 27.3,34.1 25.7,37 
		26.1,41.6 	"/>
	<polygon fill="#54C0EB" points="31.2,35.4 33.6,36.5 27.8,48 23.9,48 24,47.7 26.1,41.6 30.5,28.7 33.1,29.7 34.2,34 	"/>
	<polygon fill="#54C0EB" points="24.1,48 20.2,48 14.4,36.5 16.8,35.4 13.8,34 14.9,29.7 17.2,28.8 17.5,28.7 21.9,41.6 24,47.7 	
		"/>
	<path fill="#84DBFF" d="M47.8,41.2V48h-20l5.8-11.6l-2.4-1l3-1.4l-1.1-4.4l8.8,3.2C45.4,34.1,47.8,37.5,47.8,41.2z"/>
	<path fill="#84DBFF" d="M14.4,36.5L20.2,48h-20v-6.8c0-3.8,2.4-7.2,5.9-8.4l8.8-3.2L13.8,34l3,1.4L14.4,36.5z"/>
	<path fill="#40596B" d="M13.6,14.6l0.9,2.7c0,0-0.4-8.3,2.7-8.4c0,0,4.6,1.9,6.8,2.4c0,0,4.7,0.6,7.2-2.3c0,0,1.9,1,1.3,3.3
		c0,0,1,3.9,1,5l0.9-2.5c0.4-1.3,2.1-7.2-2.7-8.7c0,0-0.4-5.4-8-6.1c0,0-5.7-0.3-10.3,6.1l1.1-0.4C14.5,5.7,12.3,7,13.6,14.6z"/>
	<polygon fill="#F1543F" points="20.7,34.1 21.5,35.5 24,33.4 26.5,35.5 27.3,34.1 24,32.1 	"/>
	<polygon fill="#F2F2F2" points="30.5,28.7 28.2,35.6 24,32.1 19.8,35.6 17.5,28.7 24,31.6 	"/>
	<path fill="#F8B64C" d="M28.9,27L28,28c-0.8,0.9-2,1.4-3.3,1.4h-1.4c-1.3,0-2.4-0.5-3.3-1.4l-0.9-1c-0.6-0.7-1.1-1.3-1.6-2.1v3.8
		l6.5,2.8l6.5-2.8v-3.8C30,25.7,29.5,26.4,28.9,27z"/>
	<path opacity="0.1" fill="#40596B" d="M28.9,27L28,28c-0.8,0.9-2,1.4-3.3,1.4h-1.4c-1.2,0-2.3-0.5-3.1-1.3l0,0l3.8,3.4l6.5-2.8
		v-3.8C30,25.7,29.5,26.4,28.9,27z"/>
	<path fill="#40596B" d="M33.8,14.8l-2,5.2c-0.8,1.4-3.5,3.5-4.5,2.2l0,0c-0.4-0.6-1-0.9-1.7-0.9h-3.2c-0.6,0-1.2,0.3-1.7,0.9
		c-1,1.3-3.7-0.8-4.5-2.2l-2.1-5.2C13.7,29.2,24,29.7,24,29.7S34.3,29.2,33.8,14.8z M21.4,25c0-1,0.8-1.9,1.9-1.9h1.6
		c1,0,1.9,0.8,1.9,1.9H21.4z"/>
	<path fill="#40596B" d="M27.9,13.3c-1.3,0-2.5,0.9-2.9,2c-0.6-0.3-1.3-0.3-1.9,0c-0.4-1.2-1.6-2-2.9-2c-1.7,0-3.1,1.4-3.1,3.1
		c0,1.7,1.4,3.1,3.1,3.1c1.7,0,3.1-1.4,3.1-3.1c0,0,0,0,0,0c0.5-0.3,1.1-0.3,1.5,0c0,0,0,0,0,0c0,1.7,1.4,3.1,3.1,3.1
		c1.7,0,3.1-1.4,3.1-3.1C31,14.7,29.6,13.3,27.9,13.3z M20.1,18.5c-1.2,0-2.1-1-2.1-2.1c0-1.2,1-2.1,2.1-2.1c1.2,0,2.1,1,2.1,2.1
		C22.3,17.6,21.3,18.5,20.1,18.5z M27.9,18.5c-1.2,0-2.1-1-2.1-2.1c0-1.2,1-2.1,2.1-2.1c1.2,0,2.1,1,2.1,2.1
		C30,17.6,29.1,18.5,27.9,18.5z"/>
</g>
</svg>
