<?xml version="1.0" encoding="utf-8"?>
<!-- Generator: Adobe Illustrator 18.0.0, SVG Export Plug-In . SVG Version: 6.00 Build 0)  -->
<!DOCTYPE svg PUBLIC "-//W3C//DTD SVG 1.1//EN" "http://www.w3.org/Graphics/SVG/1.1/DTD/svg11.dtd">
<svg version="1.1" id="Layer_1" xmlns="http://www.w3.org/2000/svg" xmlns:xlink="http://www.w3.org/1999/xlink" x="0px" y="0px"
	 viewBox="0 0 48 48" enable-background="new 0 0 48 48" xml:space="preserve">
<g>
	<g>
		<path fill="#66C6B9" d="M26.4,45.5c-5.1,1.6-9.5-1.5-9.7-6.9C21.8,37,26.2,40.1,26.4,45.5z"/>
		<path fill="#66C6B9" d="M42.6,33.7c-0.4,8-6.9,12.6-14.5,10.3C28.5,36,35,31.4,42.6,33.7z"/>
	</g>
	<g>
		<path fill="#415A6B" d="M24.1,48h3.2c3.2-8.7,3-18.3-0.6-26.9l-1.6-4l-2.8,1.1l1.6,4C27.3,30.5,27.4,39.8,24.1,48z"/>
	</g>
	<path fill="#F3705A" d="M21,23.4c-6.8,16.5-19.7,3.6-3.2-3.2C1.2,27,1.2,8.8,17.7,15.6C1.2,8.8,14.1-4.1,21,12.4
		c-6.8-16.5,11.4-16.5,4.6,0c6.8-16.5,19.7-3.6,3.2,3.2c16.5-6.8,16.5,11.4,0,4.6c16.5,6.8,3.6,19.7-3.2,3.2
		C32.4,39.9,14.1,39.9,21,23.4z"/>
	<circle fill="#FFD15C" cx="23.2" cy="17.9" r="5.7"/>
	<g>
		<circle fill="#FFFFFF" cx="23.2" cy="17.9" r="3.2"/>
	</g>
</g>
</svg>
