<?xml version="1.0" encoding="utf-8"?>
<!-- Generator: Adobe Illustrator 18.0.0, SVG Export Plug-In . SVG Version: 6.00 Build 0)  -->
<!DOCTYPE svg PUBLIC "-//W3C//DTD SVG 1.1//EN" "http://www.w3.org/Graphics/SVG/1.1/DTD/svg11.dtd">
<svg version="1.1" id="Layer_1" xmlns="http://www.w3.org/2000/svg" xmlns:xlink="http://www.w3.org/1999/xlink" x="0px" y="0px"
	 viewBox="0 0 48 48" enable-background="new 0 0 48 48" xml:space="preserve">
<g>
	<polygon fill="#FFD15C" points="30,9.4 27.2,9.4 24.4,9.4 17.6,38.5 27.2,48 36.8,38.5 	"/>
	<g>
		<polygon fill="#FF7058" points="31.2,14.2 20.9,24.5 22.2,18.8 30.3,10.7 		"/>
		<polygon fill="#FF7058" points="32.8,21.1 18.3,35.5 19.6,29.9 31.9,17.6 		"/>
		<polygon fill="#FF7058" points="34.4,27.9 20.7,41.6 18.6,39.4 33.5,24.4 		"/>
		<polygon fill="#FF7058" points="35.9,34.8 25,45.8 22.8,43.6 35.1,31.3 		"/>
	</g>
	<polygon opacity="0.1" fill="#231F20" points="23.7,12.6 27.2,14.6 30.8,12.6 30,9.4 27.2,9.4 24.4,9.4 	"/>
	<polygon fill="#FFD15C" points="20.1,4.1 27.2,0 34.3,4.1 34.3,9.4 27.2,13.5 20.1,9.4 	"/>
	<polygon fill="#FFD15C" points="34.3,4.1 34.3,9.3 32.6,10.3 27.2,13.5 27,13.3 24.3,11.8 21.8,10.3 20.1,9.3 20.1,4.1 23.9,1.9 
		27.2,0 28.5,0.7 31,2.2 33.7,3.7 	"/>
	<g>
		<polygon fill="#FF7058" points="28.5,0.7 21.8,10.3 20.1,9.3 20.1,7.4 23.9,1.9 27.2,0 		"/>
		<polygon fill="#FF7058" points="33.7,3.7 27,13.3 24.3,11.8 31,2.2 		"/>
		<polygon fill="#FF7058" points="34.3,7.9 34.3,9.3 32.6,10.3 		"/>
	</g>
	<polygon fill="#F8B64C" points="19.9,24.3 21.1,19 11.6,25.5 11.2,30.9 16.5,31.6 18.7,29.5 	"/>
</g>
</svg>
