<?xml version="1.0" encoding="utf-8"?>
<!-- Generator: Adobe Illustrator 18.0.0, SVG Export Plug-In . SVG Version: 6.00 Build 0)  -->
<!DOCTYPE svg PUBLIC "-//W3C//DTD SVG 1.1//EN" "http://www.w3.org/Graphics/SVG/1.1/DTD/svg11.dtd">
<svg version="1.1" id="Layer_1" xmlns="http://www.w3.org/2000/svg" xmlns:xlink="http://www.w3.org/1999/xlink" x="0px" y="0px"
	 viewBox="0 0 512 512" enable-background="new 0 0 512 512" xml:space="preserve">
<g>
	<path fill="#40596B" d="M441.9,249.6C441.9,401.8,358.7,510,256,510S70.1,401.8,70.1,249.6C70.1,145,153.3,60.2,256,60.2
		S441.9,145,441.9,249.6z"/>
	<path fill="#FFD15C" d="M323.3,222.5c6.9,8.6,12,32.6,12,32.6s-30.9-22.4-82.6-32.6c-37.4-7.4-82.6-65.1-82.6-65.1
		C160.9,262.6,90,283.3,71.8,287C84.3,419.2,161.9,510,256,510c98.4,0,178.9-99.3,185.4-241.5C408.2,238.3,323.3,222.5,323.3,222.5z
		"/>
	<g>
		<path fill="#334A5E" d="M72.6,218.4H35.9C17.2,218.4,2,233.8,2,252.9v51.2c0,19.1,15.2,34.5,33.9,34.5h44.5
			c-6.7-27.4-10.3-57.2-10.3-89C70.1,238.9,70.9,228.5,72.6,218.4z"/>
		<path fill="#334A5E" d="M476.1,218.4h-36.7c1.6,10.1,2.5,20.5,2.5,31.2c0,31.8-3.6,61.6-10.3,89h44.5c18.7,0,33.9-15.4,33.9-34.5
			v-51.2C510,233.8,494.9,218.4,476.1,218.4z"/>
	</g>
	<path fill="#F2F2F2" d="M476.1,338.6h-16.9v47.6h-158v34.5h191.8v-86.7C488.1,336.9,482.3,338.6,476.1,338.6z"/>
	<path fill="#40596B" d="M306.2,433h-74c-1.5,0-2.7-1.2-2.7-2.7v-53.6c0-1.5,1.2-2.7,2.7-2.7h74c1.5,0,2.7,1.2,2.7,2.7v53.6
		C308.9,431.8,307.7,433,306.2,433z"/>
	<path fill="#F2F2F2" d="M269.6,2H237C117.1,2,19.6,101.1,19,223c5-2.9,10.7-4.6,16.9-4.6H53c3-100.8,84.4-181.9,184.1-181.9h32.5
		c99.7,0,181.1,81.1,184.1,181.9h22.5c4,0,7.8,0.7,11.4,2C485.6,99.7,388.6,2,269.6,2z"/>
</g>
</svg>
