<?xml version="1.0" encoding="utf-8"?>
<!-- Generator: Adobe Illustrator 18.0.0, SVG Export Plug-In . SVG Version: 6.00 Build 0)  -->
<!DOCTYPE svg PUBLIC "-//W3C//DTD SVG 1.1//EN" "http://www.w3.org/Graphics/SVG/1.1/DTD/svg11.dtd">
<svg version="1.1" id="Layer_1" xmlns="http://www.w3.org/2000/svg" xmlns:xlink="http://www.w3.org/1999/xlink" x="0px" y="0px"
	 viewBox="0 0 48 48" enable-background="new 0 0 48 48" xml:space="preserve">
<g>
	<path fill="#FF7058" d="M36.6,26.6V0H11.4v26.6h-8v15.6C3.4,45.4,6,48,9.2,48h29.7c3.2,0,5.8-2.6,5.8-5.8V26.6H36.6z"/>
	<g>
		<path fill="#FFD15C" d="M44.6,17.6v26.7c0,1.9-1.8,3.3-3.6,2.8l-11.2-2.8c-2.6-0.6-4.4-3-4.4-5.6V15.1c0-1.2,0.4-2.5,1.1-3.5
			L35.3,0l1.8,0c1.7,0,3.1,1.5,2.9,3.2c-1,6.2,2.4,10.7,3.9,12.4C44.3,16.2,44.6,16.9,44.6,17.6z"/>
		<path fill="#FFD15C" d="M22.6,15.1v23.6c0,2.7-1.8,5-4.4,5.6L7,47.1c-1.8,0.5-3.6-0.9-3.6-2.8V17.6c0-0.7,0.3-1.4,0.7-1.9
			C5.7,13.9,9,9.4,8.1,3.2C7.8,1.5,9.2,0,10.9,0h1.8l8.7,11.6C22.2,12.6,22.6,13.8,22.6,15.1z"/>
	</g>
	<rect x="3.4" y="21.4" fill="#F8B64C" width="19.1" height="13.4"/>
	<rect x="25.5" y="21.4" fill="#F8B64C" width="19.1" height="13.4"/>
	<rect x="3.4" y="19.5" fill="#F2F2F2" width="19.1" height="3.9"/>
	<rect x="3.4" y="32.8" fill="#F2F2F2" width="19.1" height="3.9"/>
	<rect x="25.5" y="19.5" fill="#F2F2F2" width="19.1" height="3.9"/>
	<rect x="25.5" y="32.8" fill="#F2F2F2" width="19.1" height="3.9"/>
</g>
</svg>
