<?xml version="1.0" encoding="utf-8"?>
<!-- Generator: Adobe Illustrator 18.0.0, SVG Export Plug-In . SVG Version: 6.00 Build 0)  -->
<!DOCTYPE svg PUBLIC "-//W3C//DTD SVG 1.1//EN" "http://www.w3.org/Graphics/SVG/1.1/DTD/svg11.dtd">
<svg version="1.1" id="Layer_1" xmlns="http://www.w3.org/2000/svg" xmlns:xlink="http://www.w3.org/1999/xlink" x="0px" y="0px"
	 viewBox="0 0 48 48" enable-background="new 0 0 48 48" xml:space="preserve">
<g>
	<path fill="#FF7058" d="M2.9,30.3c0,1.2-1,2.3-2.1,2.6C0.3,33,0,33.4,0,33.9v4.4c0,0.6,0.4,1,1,1l46,0c0.6,0,1-0.4,1-1v-7
		c0-0.6-0.4-1-1-1H2.9z"/>
	<circle fill="#40596B" cx="5.5" cy="39.3" r="4.5"/>
	<circle fill="#40596B" cx="15.6" cy="39.3" r="4.5"/>
	<circle fill="#40596B" cx="32.4" cy="39.3" r="4.5"/>
	<circle fill="#40596B" cx="42.5" cy="39.3" r="4.5"/>
	<circle fill="#F2F2F2" cx="42.5" cy="39.3" r="2.2"/>
	<path fill="#CDD6E0" d="M42.5,37.6c1.1,0,2,0.8,2.1,1.9c0-0.1,0-0.2,0-0.2c0-1.2-1-2.2-2.2-2.2c-1.2,0-2.2,1-2.2,2.2
		c0,0.1,0,0.2,0,0.2C40.5,38.5,41.4,37.6,42.5,37.6z"/>
	<path fill="#FFD15C" d="M24.7,30.3H2.9v-3.6c0-5,4-9,9-9h12.7V30.3z"/>
	<rect x="24.7" y="10.3" fill="#F2F2F2" width="21.3" height="19.9"/>
	<path fill="#FF7058" d="M46,6.3H24.6c-1.1,0-2,0.9-2,2v0c0,1.1,0.9,2,2,2H46c1.1,0,2-0.9,2-2v0C48,7.2,47.1,6.3,46,6.3z"/>
	<rect x="14.3" y="16" fill="#334A5E" width="6.3" height="1.6"/>
	<rect x="16.1" y="11.1" fill="#40596B" width="2.6" height="4.9"/>
	<circle fill="#F2F2F2" cx="32.4" cy="39.3" r="2.2"/>
	<circle fill="#F2F2F2" cx="15.6" cy="39.3" r="2.2"/>
	<circle fill="#F2F2F2" cx="5.5" cy="39.3" r="2.2"/>
	<path fill="#CDD6E0" d="M32.4,37.6c1.1,0,2,0.8,2.1,1.9c0-0.1,0-0.2,0-0.2c0-1.2-1-2.2-2.2-2.2c-1.2,0-2.2,1-2.2,2.2
		c0,0.1,0,0.2,0,0.2C30.4,38.5,31.3,37.6,32.4,37.6z"/>
	<path fill="#CDD6E0" d="M15.6,37.6c1.1,0,2,0.8,2.1,1.9c0-0.1,0-0.2,0-0.2c0-1.2-1-2.2-2.2-2.2c-1.2,0-2.2,1-2.2,2.2
		c0,0.1,0,0.2,0,0.2C13.5,38.5,14.4,37.6,15.6,37.6z"/>
	<path fill="#CDD6E0" d="M5.5,37.6c1.1,0,2,0.8,2.1,1.9c0-0.1,0-0.2,0-0.2c0-1.2-1-2.2-2.2-2.2c-1.2,0-2.2,1-2.2,2.2
		c0,0.1,0,0.2,0,0.2C3.5,38.5,4.4,37.6,5.5,37.6z"/>
	<path fill="#E4EAEF" d="M46,10.3v1c0,0,0,0,0,0H24.7c0,0,0,0,0,0v-1H46z"/>
	<rect x="27" y="13.1" fill="#54C0EB" width="16.7" height="11.9"/>
	<g>
		<polygon fill="#84DBFF" points="33.3,13.1 27,20.7 27,18.4 31.4,13.1 		"/>
		<polygon fill="#84DBFF" points="37.6,13.1 27.7,25 27,25 27,22.2 34.6,13.1 		"/>
	</g>
	<g>
		<path fill="#F8B64C" d="M9.3,27.8h8.2c0.7,0,1.2-0.6,1.2-1.2v0c0-0.7-0.6-1.2-1.2-1.2H9.3c-0.7,0-1.2,0.6-1.2,1.2v0
			C8.1,27.2,8.6,27.8,9.3,27.8z"/>
		<path fill="#F8B64C" d="M9.3,23.5h8.2c0.7,0,1.2-0.6,1.2-1.2v0c0-0.7-0.6-1.2-1.2-1.2H9.3c-0.7,0-1.2,0.6-1.2,1.2v0
			C8.1,22.9,8.6,23.5,9.3,23.5z"/>
	</g>
	<path fill="#F2F2F2" d="M10.7,4.5c0.7,0,1.2,0.5,1.4,1.1c0.2-0.1,0.5-0.2,0.8-0.2c0,0,0.1,0,0.1,0c0.2-0.7,0.9-1.1,1.6-1.1
		c0.9,0,1.7,0.7,1.7,1.6c0.2-0.1,0.5-0.2,0.8-0.2c1.2,0,2.2,1,2.2,2.2c0,1.2-1,2.2-2.2,2.2c-1.2,0-2.2-1-2.2-2.2c0-0.1,0-0.2,0-0.3
		c-0.1,0-0.2,0-0.3,0c-0.2,0-0.3,0-0.5-0.1c-0.3,0.4-0.7,0.7-1.2,0.7c-0.7,0-1.2-0.5-1.4-1.1c-0.2,0.1-0.5,0.2-0.8,0.2
		c-0.8,0-1.4-0.6-1.4-1.4C9.3,5.1,9.9,4.5,10.7,4.5z"/>
</g>
</svg>
