<?xml version="1.0" encoding="utf-8"?>
<!-- Generator: Adobe Illustrator 20.1.0, SVG Export Plug-In . SVG Version: 6.00 Build 0)  -->
<!DOCTYPE svg PUBLIC "-//W3C//DTD SVG 1.1//EN" "http://www.w3.org/Graphics/SVG/1.1/DTD/svg11.dtd">
<svg version="1.1" id="Layer_1" xmlns="http://www.w3.org/2000/svg" xmlns:xlink="http://www.w3.org/1999/xlink" x="0px" y="0px"
	 viewBox="0 0 49 49" enable-background="new 0 0 49 49" xml:space="preserve">
<g>
	<path fill="#84DBFF" d="M37.7,24.5c0,2.8-0.9,5.4-2.4,7.5c-0.5,0.7-1.1,1.4-1.7,2c-2.2,2.1-5.2,3.5-8.4,3.6h0c-0.2,0-0.5,0-0.7,0
		s-0.5,0-0.7,0c-3.3-0.2-6.2-1.5-8.5-3.6c-0.6-0.6-1.2-1.3-1.7-2c-1.5-2.1-2.4-4.7-2.4-7.5c0-7.3,5.9-13.2,13.2-13.2
		C31.8,11.3,37.7,17.2,37.7,24.5z"/>
	<g>
		<ellipse transform="matrix(0.9806 -0.1961 0.1961 0.9806 -3.5404 4.2566)" fill="#F8B64C" cx="19.7" cy="20" rx="0.6" ry="1.5"/>
		<ellipse transform="matrix(0.1961 -0.9806 0.9806 0.1961 3.9234 44.7912)" fill="#F8B64C" cx="29.3" cy="20" rx="1.5" ry="0.6"/>
		<path fill="#CDD6E0" d="M35.4,31.1c-0.5,0.7-1.1,1.4-1.7,2c-2.2,2.1-5.2,3.5-8.4,3.6h-1.4c-3.3-0.2-6.2-1.5-8.5-3.6
			c-0.6-0.6-1.2-1.3-1.7-2c0.2-0.6,0.5-1.1,0.8-1.5c0,0,0.1,0,0.2-0.1h0c0,0,0,0,0,0c0.2-0.1,0.6-0.2,1.2-0.5c1.2-0.5,2.9-1.2,4.3-2
			c0.2-0.1,0.5-0.3,0.7-0.4c0.2-0.1,0.4-0.3,0.6-0.4v0l0.2-0.9c0,0,0.8,1.5,2.4,1.8c0.1,0,0.3,0,0.4,0h0.2c0.2,0,0.4,0,0.6,0
			c0,0,0,0,0,0c0.1,0,0.2,0,0.3-0.1c0.1,0,0.2-0.1,0.3-0.1c0.2-0.1,0.3-0.1,0.4-0.2c0.1,0,0.2-0.1,0.3-0.2c0.2-0.1,0.3-0.2,0.4-0.3
			c0.2-0.2,0.3-0.3,0.4-0.4c0.2-0.3,0.3-0.5,0.3-0.5l0.2,0.9c1.9,1.4,5.8,2.9,6.7,3.3c0.1,0,0.2,0.1,0.2,0.1
			C34.9,30,35.2,30.6,35.4,31.1z"/>
		<path fill="#ACB3BA" d="M21.6,29l0.8,1.4l1.1-1.7l-0.3-0.3l-0.9,1.3l-1-1.9C21.4,28.1,21.5,28.5,21.6,29z"/>
		<path fill="#F8B64C" d="M27.5,25.4c0,0-0.8,1.5-2.4,1.8c-0.2,0-0.4,0-0.6,0c-0.2,0-0.4,0-0.6,0c-1.7-0.2-2.4-1.8-2.4-1.8
			s0-0.3,0-0.6c0-0.2,0-0.3,0-0.5c1.4,1.7,3,2,3,2s1.6-0.3,3-2c0,0.1,0,0.3,0,0.5C27.5,25.1,27.5,25.4,27.5,25.4z"/>
		<path fill="#F7AF48" d="M27.5,24.8c-1.4,1.5-2.8,1.8-2.9,1.8l0,0l0,0c-0.1,0-1.5-0.3-2.9-1.8c0-0.2,0-0.3,0-0.5c1.4,1.7,3,2,3,2
			s1.6-0.3,3-2C27.5,24.4,27.4,24.6,27.5,24.8z"/>
		<path fill="#FFD15C" d="M29.5,18.7c0,0.3-0.1,0.5-0.1,0.5c-0.9,6.5-4.9,7.1-4.9,7.1s-4.1-0.7-4.9-7.1c0,0,0-0.2-0.1-0.5v0
			c-0.2-1.6-0.4-6.6,5-6.5C29.9,12.1,29.7,17,29.5,18.7z"/>
		<path fill="#40596B" d="M34.6,29.7l-0.9,3.5c-2.2,2.1-5.2,3.5-8.4,3.6h-0.7v-1.7c0.1-0.2,0.2-0.4,0.3-0.7c0.2-0.5,0.5-1,0.7-1.4
			c0-0.1,0.1-0.1,0.1-0.2c0.6-1.1,1-2,1-2c0.3-0.7,0.6-1.3,0.7-1.9c0.1-0.2,0.1-0.5,0.2-0.7c0.3-1.4,0.1-2.1,0.1-2.1h0
			c1.9,1.4,5.8,2.9,6.7,3.3L34.6,29.7z"/>
		<path fill="#ACB3BA" d="M27.4,29l-0.8,1.4l-1.1-1.7l0.3-0.3l0.9,1.3l1-1.9C27.6,28.1,27.5,28.5,27.4,29z"/>
		<path fill="#FFFFFF" d="M25,29.2l0.6,3.7c-0.4,0.7-0.8,1.6-1.1,2.3c-0.3-0.7-0.8-1.5-1.1-2.3l0.6-3.7l-0.8-0.9l0.7-1.2
			c0,0,0,0,0,0c0.2,0,0.4,0,0.6,0c0.2,0,0.4,0,0.6,0c0,0,0,0,0,0l0.7,1.2L25,29.2z"/>
		<path fill="#334A5E" d="M25.2,36.8L25.2,36.8l-0.7,0c-0.2,0-0.5,0-0.7,0c-3.3-0.2-6.2-1.5-8.5-3.6l-0.9-3.5l0.2-0.1h0l0,0
			c0.2-0.1,0.6-0.2,1.2-0.4c1.2-0.5,2.9-1.2,4.3-2c0.2-0.1,0.5-0.3,0.7-0.4c0.2-0.1,0.4-0.3,0.6-0.4h0c0,0-0.2,0.7,0.1,2.1
			c0,0.2,0.1,0.4,0.2,0.7c0.2,0.5,0.4,1.2,0.7,1.9c0,0,0.5,0.9,1,2c0,0.1,0.1,0.1,0.1,0.2c0.2,0.5,0.5,1,0.7,1.4
			c0.1,0.2,0.2,0.5,0.3,0.7C24.9,36,25.2,36.6,25.2,36.8z"/>
		<path fill="#334A5E" d="M29.5,18.7l-0.2,0.2c0,0-0.2-2.6-1.4-4.4c0,0-0.7,1.1-3.4,1.1c-2.6,0-3.4-1.1-3.4-1.1
			c-1.2,1.8-1.4,4.4-1.4,4.4l-0.2-0.2v0c-0.2-1.6-0.4-6.6,5-6.5C29.9,12.1,29.7,17,29.5,18.7z"/>
	</g>
	<path fill="#CDD6E0" d="M44.6,19c-0.5-1.7-1.1-3.3-2-4.7l1.7-3.8l-5.7-5.7l-3.8,1.7c-1.5-0.8-3.1-1.5-4.7-2l-1.5-3.9h-8L19,4.4
		c-1.7,0.5-3.3,1.1-4.7,2l-3.8-1.7l-5.7,5.7l1.7,3.8c-0.8,1.5-1.5,3.1-2,4.7l-3.9,1.5v8L4.4,30c0.5,1.7,1.1,3.3,2,4.7l-1.7,3.8
		l5.7,5.7l3.8-1.7c1.5,0.8,3.1,1.5,4.7,2l1.5,3.9h8l1.5-3.9c1.7-0.5,3.3-1.1,4.7-2l3.8,1.7l5.7-5.7l-1.7-3.8c0.8-1.5,1.5-3.1,2-4.7
		l3.9-1.5v-8L44.6,19z M36.3,36.3c-6.5,6.5-17.1,6.5-23.7,0c-6.5-6.5-6.5-17.1,0-23.7c6.5-6.5,17.1-6.5,23.7,0
		C42.9,19.2,42.9,29.8,36.3,36.3z"/>
</g>
</svg>
