<?xml version="1.0" encoding="utf-8"?>
<!-- Generator: Adobe Illustrator 18.0.0, SVG Export Plug-In . SVG Version: 6.00 Build 0)  -->
<!DOCTYPE svg PUBLIC "-//W3C//DTD SVG 1.1//EN" "http://www.w3.org/Graphics/SVG/1.1/DTD/svg11.dtd">
<svg version="1.1" id="Layer_1" xmlns="http://www.w3.org/2000/svg" xmlns:xlink="http://www.w3.org/1999/xlink" x="0px" y="0px"
	 viewBox="0 0 48 48" enable-background="new 0 0 48 48" xml:space="preserve">
<g>
	<g>
		<g>
			<g>
				<g>
					<g>
						<g>
							<g>
								<g>
									<g>
										<polygon fill="#415A6B" points="48,42.5 48,47.2 0,47.2 0,42.5 21.7,42.5 21.7,29.1 26.3,29.1 26.3,42.5 										"/>
									</g>
								</g>
								<g>
									<polygon fill="#E8EAE9" points="30.1,41.7 30.1,48 17.9,48 17.9,41.7 20.8,41.7 20.8,38 27.2,38 27.2,41.7 									"/>
								</g>
							</g>
						</g>
					</g>
				</g>
			</g>
		</g>
		<path fill="#F3F3F3" d="M24.8,33.2c-0.5,0.2-1.2,0.2-1.7,0c-3-1.3-13.1-6-13.1-12.6l0-15.4c0-0.8,0.4-1.6,1.2-2
			c8.5-4.3,17-4.3,25.6,0c0.7,0.4,1.2,1.1,1.2,2l0,15.4C38,27.2,27.9,31.9,24.8,33.2z"/>
		<path fill="#FFFFFF" d="M24,4C24,4,24,4,24,4c-3.3,0-6.6,0.8-10,2.3v10.4h10V4z"/>
		<path fill="#F3705A" d="M34,16.7V6.3C30.6,4.8,27.3,4,24,4v12.7H34z"/>
		<path fill="#F3705A" d="M14,16.7v3.9c0,2.4,4.1,6,10,8.6V16.7H14z"/>
		<path fill="#FFFFFF" d="M24,16.7v12.5c0,0,0,0,0,0c5.8-2.6,10-6.2,10-8.6v-3.9H24z"/>
	</g>
</g>
</svg>
