<?xml version="1.0" encoding="utf-8"?>
<!-- Generator: Adobe Illustrator 18.0.0, SVG Export Plug-In . SVG Version: 6.00 Build 0)  -->
<!DOCTYPE svg PUBLIC "-//W3C//DTD SVG 1.1//EN" "http://www.w3.org/Graphics/SVG/1.1/DTD/svg11.dtd">
<svg version="1.1" id="Layer_1" xmlns="http://www.w3.org/2000/svg" xmlns:xlink="http://www.w3.org/1999/xlink" x="0px" y="0px"
	 viewBox="0 0 48 48" enable-background="new 0 0 48 48" xml:space="preserve">
<g>
	<path fill="#FFD15C" d="M13.3,19.4L13.3,19.4c-1.2,1-3.1,0.9-4.1-0.4L0.7,8.8c-1-1.2-0.9-3.1,0.4-4.1v0c1.2-1,3.1-0.9,4.1,0.4
		l8.5,10.2C14.7,16.5,14.6,18.3,13.3,19.4z"/>
	<g>
		<g>
			<polygon fill="#ACB3BA" points="39.5,38.6 37.5,38.6 37.5,35.3 6.5,22.4 7.4,20.6 39.5,34.1 			"/>
		</g>
		<g>
			<polygon fill="#ACB3BA" points="8.5,38.6 10.5,38.6 10.5,35.3 41.5,22.4 40.6,20.6 8.5,34.1 			"/>
		</g>
	</g>
	<g>
		<path fill="#ACB3BA" d="M33.3,18.1H16.2v-6.8c0-1.7,1.3-3,3-3h11.1c1.7,0,3,1.3,3,3V18.1z M18.2,17.1h13.1v-5.8c0-0.6-0.4-1-1-1
			H19.2c-0.6,0-1,0.4-1,1V17.1z"/>
	</g>
	<path fill="#CDD6E0" d="M46,12.9H2c-1.1,0-2,0.9-2,2v5.8c0,1.1,0.9,2,2,2h44c1.1,0,2-0.9,2-2v-5.8C48,13.8,47.1,12.9,46,12.9z"/>
	<path fill="#F2F2F2" d="M48,19.4v-4.5c0-1.1-0.9-2-2-2H2c-1.1,0-2,0.9-2,2v4.5H48z"/>
	<path fill="#FF7058" d="M27.9,11.2h-6.3c-0.6,0-1-0.4-1-1V8.5c0-0.6,0.4-1,1-1h6.3c0.6,0,1,0.4,1,1v1.7
		C28.9,10.7,28.5,11.2,27.9,11.2z"/>
	<g>
		<circle fill="#40596B" cx="9.5" cy="40.8" r="3.2"/>
		<circle fill="#FFFFFF" cx="9.5" cy="40.8" r="1.3"/>
	</g>
	<g>
		<circle fill="#40596B" cx="38.5" cy="40.8" r="3.2"/>
		<circle fill="#FFFFFF" cx="38.5" cy="40.8" r="1.3"/>
	</g>
</g>
</svg>
