<?xml version="1.0" encoding="utf-8"?>
<!-- Generator: Adobe Illustrator 18.0.0, SVG Export Plug-In . SVG Version: 6.00 Build 0)  -->
<!DOCTYPE svg PUBLIC "-//W3C//DTD SVG 1.1//EN" "http://www.w3.org/Graphics/SVG/1.1/DTD/svg11.dtd">
<svg version="1.1" id="Layer_1" xmlns="http://www.w3.org/2000/svg" xmlns:xlink="http://www.w3.org/1999/xlink" x="0px" y="0px"
	 viewBox="0 0 48 48" enable-background="new 0 0 48 48" xml:space="preserve">
<g>
	<g>
		<path fill="#FFD15C" d="M36.5,30.8l-1.4,8.1c-16-4.9-25.7-14.5-30.3-28C5.8,7.7,6.3,3.8,6.4,0H24c0.2,1.8,0.5,3.5,0.7,5
			c0.9,5.6,2.8,11.1,5.6,16C33.3,26,36.5,30.8,36.5,30.8z"/>
	</g>
	<path fill="#F3705A" d="M0.4,23.8c0,0-2.4-3.7,4.4-13.3l15.3,17.3c0,0,9.3,8.8,16.3,3c0,0,11.9-0.3,11.5,5.9l-0.7,4.7
		c-0.1,0.8-0.6,1.5-1.3,1.8c-2.3,1.1-8.1,3.6-15.3,4.7c-2.8,0.4-5.5-0.7-7.2-3c-1.5-2-3.3-4.7-4.4-7c-2.2-4.6-8.5-8.5-8.5-8.5L11,47
		l-1,0.8l-3.3-0.1C6.8,47.6,2.6,28.1,0.4,23.8z"/>
	<g>
		<path fill="#415A6B" d="M48,36.6c0,0.1,0,0.1,0,0.2l-0.7,4.7c-0.1,0.8-0.6,1.5-1.3,1.8c-2.3,1.1-8.1,3.6-15.3,4.7
			c-2.8,0.4-5.5-0.7-7.2-3c-1.5-2-3.3-4.7-4.4-7c-2.2-4.6-8.5-8.5-8.5-8.5L11,47l-1,0.8l-3.3-0.1c0,0-4.2-19.5-6.3-23.9
			c0,0-0.2-0.3-0.3-0.9c1.7,1,5.2,2.9,10.3,5.3c6,3.7,9.8,9.2,9.8,9.2s3.1,5.7,11.5,3.8C39,39.4,43.2,38.6,48,36.6z"/>
	</g>
	<g>
		<path fill="#344A5E" d="M11,47l-1,0.8L7.9,30.6c-0.1-0.5,0-1.1,0.4-1.5c0.4-0.5,1.1-0.8,2.3,0.4L11,47z"/>
	</g>
</g>
</svg>
