<?xml version="1.0" encoding="utf-8"?>
<!-- Generator: Adobe Illustrator 18.0.0, SVG Export Plug-In . SVG Version: 6.00 Build 0)  -->
<!DOCTYPE svg PUBLIC "-//W3C//DTD SVG 1.1//EN" "http://www.w3.org/Graphics/SVG/1.1/DTD/svg11.dtd">
<svg version="1.1" id="Layer_1" xmlns="http://www.w3.org/2000/svg" xmlns:xlink="http://www.w3.org/1999/xlink" x="0px" y="0px"
	 viewBox="0 0 48 48" enable-background="new 0 0 48 48" xml:space="preserve">
<g>
	<g>
		<g>
			<g>
				<path fill="#4EC0AA" d="M40.2,29.5c-2.9,2.5-14.4,6.6-14.3,6.6c-0.6,0.1-5.2-13.2-3.2-17.5c2.2,0.6,4.2,0.1,5.2-1.5
					c0.6-1.1,0.8-3.8,0.6-5.5c2.8,0.9,5.9,0.1,8-2.4c0.9-1.1,1.6-2.4,2-3.8c2.1,1,6.3-0.4,9.6-2c-1.9,2.9-2.7,6.8-1.1,8.7
					c-1.5,0.5-2.7,1.2-3.7,2.3c-2.1,2.3-1.7,5.4,0.4,7.8c-1.8,0.1-4.4,1-5.1,2C37.7,25.6,38.4,27.7,40.2,29.5z"/>
			</g>
			<g>
				<path fill="#344A5E" d="M23.8,39.8c2.1-8.3,6.9-17.5,14.6-26.4C31.2,22.6,27.1,32.3,26,40.8C25.2,40.4,24.5,40.1,23.8,39.8z"/>
			</g>
		</g>
		<g>
			<g>
				<path fill="#66C6B9" d="M10.8,29.9c3.2,2.2,15,4.9,15,4.9c0.6,0.1,3.6-13.8,1.2-17.8c-2.1,0.8-4.2,0.6-5.3-0.8
					c-0.8-1-1.3-3.7-1.2-5.4c-2.7,1.2-5.9,0.8-8.2-1.4c-1.1-1-1.8-2.2-2.4-3.5C7.8,7.1,3.5,6.2,0,5c2.2,2.7,3.5,6.5,2.1,8.5
					c1.5,0.3,2.9,0.9,3.9,1.8c2.3,2,2.3,5.2,0.5,7.8c1.8-0.2,4.5,0.5,5.3,1.4C12.8,25.8,12.4,27.9,10.8,29.9z"/>
			</g>
			<g>
				<path fill="#415A6B" d="M28.3,38.2c-3-8-8.9-16.6-17.6-24.5c8.2,8.3,13.4,17.4,15.5,25.7C26.9,39,27.6,38.6,28.3,38.2z"/>
			</g>
		</g>
		<g>
			<g>
				<circle fill="#F3705A" cx="27.8" cy="27.3" r="6.7"/>
			</g>
			<g>
				<path fill="#F05540" d="M33.2,31.3c-0.2,0.3-0.4,0.5-0.7,0.8c-2.2,2.2-5.5,2.6-8.1,1.1c0.1-0.2,0.3-0.3,0.4-0.5
					c1.4-1.4,3.2-2.1,5.1-2.1C31.1,30.6,32.2,30.8,33.2,31.3z"/>
			</g>
			<g>
				<path fill="#F05540" d="M23.7,27.9c-0.7-0.7-1.6-1.3-2.6-1.7c-0.3,2,0.3,4.2,1.9,5.8c0.8,0.8,1.8,1.3,2.8,1.7c0-0.2,0-0.4,0-0.6
					C25.9,31.1,25.1,29.3,23.7,27.9z"/>
			</g>
			<g>
				<ellipse transform="matrix(0.7071 -0.7071 0.7071 0.7071 -9.9598 24.6842)" fill="#FFFFFF" cx="24.8" cy="24.4" rx="2" ry="1"/>
			</g>
		</g>
		<g>
			<g>
				<circle fill="#F3705A" cx="30" cy="37.8" r="6.7"/>
			</g>
			<g>
				
					<ellipse transform="matrix(0.7071 -0.7071 0.7071 0.7071 -16.7526 29.3528)" fill="#FFFFFF" cx="27.1" cy="34.9" rx="2" ry="1"/>
			</g>
		</g>
		<g>
			<g>
				<path fill="#F05540" d="M25.9,33.1c0,1.9-0.8,3.8-2.1,5.1c-0.1,0.1-0.3,0.2-0.4,0.4c-0.2-2,0.4-4,1.9-5.5
					c0.2-0.2,0.4-0.4,0.6-0.5C25.9,32.7,25.9,32.9,25.9,33.1z"/>
				<circle fill="#F3705A" cx="18.6" cy="33.1" r="6.7"/>
			</g>
			<g>
				
					<ellipse transform="matrix(0.7071 -0.7071 0.7071 0.7071 -16.7357 19.8966)" fill="#FFFFFF" cx="15.6" cy="30.2" rx="2" ry="1"/>
			</g>
		</g>
	</g>
</g>
</svg>
