<?xml version="1.0" encoding="utf-8"?>
<!-- Generator: Adobe Illustrator 20.1.0, SVG Export Plug-In . SVG Version: 6.00 Build 0)  -->
<!DOCTYPE svg PUBLIC "-//W3C//DTD SVG 1.1//EN" "http://www.w3.org/Graphics/SVG/1.1/DTD/svg11.dtd">
<svg version="1.1" id="Layer_1" xmlns="http://www.w3.org/2000/svg" xmlns:xlink="http://www.w3.org/1999/xlink" x="0px" y="0px"
	 viewBox="0 0 49 49" enable-background="new 0 0 49 49" xml:space="preserve">
<g>
	<rect x="42" y="12.5" fill="#40596B" width="2.5" height="14.7"/>
	<rect x="4" y="12.5" fill="#40596B" width="2.5" height="14.7"/>
	<path fill="#F2F2F2" d="M2,28.4v16.2c0,1.1,0.9,2,2,2H45c1.1,0,2-0.9,2-2V28.4H2z"/>
	<rect x="5" y="46.6" fill="#40596B" width="4.9" height="1.9"/>
	<rect x="39" y="46.6" fill="#40596B" width="4.9" height="1.9"/>
	<path fill="#FFD15C" d="M46.9,25.9H2.1c-0.9,0-1.6,0.7-1.6,1.6c0,0.9,0.7,1.6,1.6,1.6h44.7c0.9,0,1.6-0.7,1.6-1.6
		C48.5,26.7,47.8,25.9,46.9,25.9z"/>
	<path fill="#FFD15C" d="M26.4,33.2h-3.9c-2.5,0-4.5,2-4.5,4.5h12.8C30.9,35.2,28.9,33.2,26.4,33.2z"/>
	<path fill="#FFD15C" d="M18.1,40v0.9c0,0.9,0.8,1.7,1.7,1.7h9.4c0.9,0,1.7-0.8,1.7-1.7V40H18.1z"/>
	<path fill="#FF7058" d="M30.9,37.6H18.1c-0.7,0-1.2,0.5-1.2,1.2c0,0.7,0.5,1.2,1.2,1.2h12.7c0.7,0,1.2-0.5,1.2-1.2
		C32.1,38.2,31.5,37.6,30.9,37.6z"/>
	<path fill="#F1543F" d="M0.6,8.4v2.9c0,2.6,2.1,4.8,4.8,4.8l0,0c2.6,0,4.8-2.1,4.8-4.8V8.4H0.6z"/>
	<path fill="#E2E2E2" d="M10.2,8.4v2.9c0,2.6,2.1,4.8,4.8,4.8s4.8-2.1,4.8-4.8V8.4H10.2z"/>
	<path fill="#F1543F" d="M19.7,8.4v2.9c0,2.6,2.1,4.8,4.8,4.8c2.6,0,4.8-2.1,4.8-4.8V8.4H19.7z"/>
	<path fill="#E2E2E2" d="M29.3,8.4v2.9c0,2.6,2.1,4.8,4.8,4.8h0c2.6,0,4.8-2.1,4.8-4.8V8.4H29.3z"/>
	<path fill="#F1543F" d="M38.8,8.4v2.9c0,2.6,2.1,4.8,4.8,4.8c2.6,0,4.8-2.1,4.8-4.8V8.4H38.8z"/>
	<polygon fill="#FF7058" points="10.2,8.4 0.6,8.4 6.1,0.5 13.4,0.5 	"/>
	<polygon fill="#F2F2F2" points="19.7,8.4 10.2,8.4 13.4,0.5 20.8,0.5 	"/>
	<polygon fill="#FF7058" points="29.3,8.4 19.7,8.4 20.8,0.5 28.2,0.5 	"/>
	<polygon fill="#F2F2F2" points="38.8,8.4 29.3,8.4 28.2,0.5 35.6,0.5 	"/>
	<polygon fill="#FF7058" points="48.4,8.4 38.8,8.4 35.6,0.5 42.9,0.5 	"/>
</g>
</svg>
