<?xml version="1.0" encoding="utf-8"?>
<!-- Generator: Adobe Illustrator 19.0.1, SVG Export Plug-In . SVG Version: 6.00 Build 0)  -->
<svg version="1.1" id="Layer_1" xmlns="http://www.w3.org/2000/svg" xmlns:xlink="http://www.w3.org/1999/xlink" x="0px" y="0px"
	 viewBox="0 0 48 48" style="enable-background:new 0 0 48 48;" xml:space="preserve">
<style type="text/css">
	.st0{fill:#415A6B;}
	.st1{fill:#ADB3BA;}
	.st2{fill:#E8EAE9;}
	.st3{fill:#55C0EB;}
	.st4{fill:#F3705A;}
	.st5{fill:#FFFFFF;}
	.st6{fill:#FFD15C;}
	.st7{fill:#344A5E;}
	.st8{fill:#CED6E0;}
	.st9{fill:#F05540;}
	.st10{fill:#F7B64C;}
	.st11{fill:#F3F3F3;}
	.st12{fill:#66C6B9;}
	.st13{fill:#4ABAA5;}
	.st14{fill:#8AD7F8;}
	.st15{fill:none;}
	.st16{fill:#E53D35;}
</style>
<g>
	<g>
		<g>
			<g>
				<g>
					<g>
						<rect x="27.6" y="27.9" class="st2" width="1.5" height="7.4"/>
					</g>
				</g>
				<g>
					<g>
						<path class="st2" d="M28.4,39.5c-1.4,0-2.5-1.1-2.5-2.5c0-1.4,1.1-2.5,2.5-2.5s2.5,1.1,2.5,2.5C30.9,38.4,29.8,39.5,28.4,39.5
							z M28.4,36c-0.6,0-1,0.5-1,1c0,0.6,0.5,1,1,1s1-0.5,1-1C29.4,36.4,29,36,28.4,36z"/>
					</g>
				</g>
			</g>
			<g>
				<g>
					<path class="st2" d="M45.7,3.7v23.7c0,1.6-1.3,3-3,3H14.1c-1.6,0-3-1.3-3-3V3.7H45.7z"/>
					<g>
						<g>
							<rect x="15.1" y="21.7" class="st1" width="17.8" height="3.1"/>
						</g>
						<g>
							<rect x="15.1" y="14.9" class="st1" width="26.6" height="3.1"/>
						</g>
						<g>
							<rect x="15.1" y="8.1" class="st1" width="26.6" height="3.1"/>
						</g>
					</g>
				</g>
				<g>
					<path class="st4" d="M45.7,0L11.1,0C9.8,0,8.8,1,8.8,2.3v0c0,1.3,1,2.3,2.3,2.3h34.5c1.3,0,2.3-1,2.3-2.3v0C48,1,47,0,45.7,0z"
						/>
				</g>
			</g>
		</g>
		<g>
			<g>
				<circle class="st6" cx="17.4" cy="20.9" r="1.9"/>
			</g>
			<g>
				<circle class="st6" cx="11.8" cy="21.2" r="2.2"/>
			</g>
			<g>
				<g>
					<g>
						<path class="st6" d="M9.5,25.4c0.2,1,0.6,1.7,1.1,1.6s0.6-0.9,0.5-1.8c-0.2-1-0.6-1.7-1.1-1.6S9.4,24.5,9.5,25.4z"/>
					</g>
					<g>
						<path class="st10" d="M11.6,31.3c0,0-0.1,1.4,1.7,2.4c1.7,1,1.8,1.1,1.8,1.1s0-0.1,1.8-1.1c1.7-1,1.7-2.4,1.7-2.4l0-5.1
							c0,0,0.1-1.4-1.7-2.4c-1.7-1-1.8-1.1-1.8-1.1s0,0.1-1.8,1.1c-1.7,1-1.7,2.4-1.7,2.4L11.6,31.3z"/>
					</g>
					<g>
						<g>
							<path class="st14" d="M6.6,48c-0.1-1.6-0.4-3.9-0.4-3.9l2.5-4.3c0,0-3.4-4.7-5-4.2c-1.6,0.5-1.8,4.4-2.5,7.2
								C0.7,44.2,0.3,46.3,0,48H6.6z"/>
						</g>
						<g>
							<path class="st14" d="M23.6,48h6.6c-0.3-1.7-0.7-3.8-1.1-5.2c-0.8-2.8-0.9-6.6-2.5-7.2c-1.6-0.5-5,4.2-5,4.2l2.5,4.3
								C24,44.1,23.7,46.4,23.6,48z"/>
						</g>
						<g>
							<g>
								<path class="st3" d="M24.1,48h-18c0.1-2.3,0-3.9,0-3.9c-0.2-2.7-2.5-8.4-2.5-8.4c0.6-0.2,6.1-2,6.1-2s0.9-0.5,1.5-1.5
									c0,0,0.2,1.5,0.3,2.9l3.4-0.2h3.5c0.2-1.4,0.3-2.7,0.3-2.7c0.6,1,1.5,1.5,1.5,1.5s5.6,1.8,6.2,2c0,0-2.3,5.8-2.5,8.4
									C24,44.1,24,45.7,24.1,48z"/>
							</g>
						</g>
						<g>
							<g>
								<polygon class="st9" points="16.2,38 17.2,37 15.1,34.9 13,37 14,38 								"/>
							</g>
						</g>
						<g>
							<polygon class="st4" points="17.9,48 16.2,38 14,38 12.3,48 							"/>
						</g>
					</g>
				</g>
				<g>
					<g>
						<g>
							<path class="st14" d="M11.6,31.3c0,0-0.1,1.4,1.7,2.4c1.7,1,1.8,1.1,1.8,1.1L13,37.8l-2.4-4.7L11.6,31.3z"/>
						</g>
					</g>
					<g>
						<g>
							<path class="st14" d="M18.5,31.3c0,0,0.1,1.4-1.7,2.4c-1.7,1-1.8,1.1-1.8,1.1l2.1,2.9l2.5-4.6L18.5,31.3z"/>
						</g>
					</g>
				</g>
			</g>
			<g>
				<path class="st6" d="M19.6,25.2c0,4-2.1,7.2-4.7,7.2c-2.6,0-4.7-3.2-4.7-7.2c0-4,2.1-7.2,4.7-7.2C17.6,18,19.6,21.2,19.6,25.2z"
					/>
			</g>
			<g>
				<path class="st7" d="M18.9,17.8c-1.3-1.8-5.2-1.4-6.2-1.2c-4.2,0.9-3.2,6.2-2.7,7.2c0.4,0.9,0.6,1.9,0.6,1.9h0.2
					c0,0-0.2-3.4-0.3-3.8c-0.1-0.4-0.2-2,1.6-1.7c1.8,0.4,5.1-0.5,5.9-0.4c0.8,0.1,0.7,2.7,0.7,2.7l0,2.9l0.7,0l-0.1-0.8
					c0,0,0.1,0.2,0.4-0.4C20.1,21.5,19.9,19.2,18.9,17.8z"/>
			</g>
			<g>
				<ellipse transform="matrix(0.9946 0.1041 -0.1041 0.9946 2.6867 -1.9249)" class="st6" cx="19.8" cy="24.8" rx="0.8" ry="1.7"/>
			</g>
		</g>
	</g>
</g>
</svg>
