<?xml version="1.0" encoding="utf-8"?>
<!-- Generator: Adobe Illustrator 18.0.0, SVG Export Plug-In . SVG Version: 6.00 Build 0)  -->
<!DOCTYPE svg PUBLIC "-//W3C//DTD SVG 1.1//EN" "http://www.w3.org/Graphics/SVG/1.1/DTD/svg11.dtd">
<svg version="1.1" id="Layer_1" xmlns="http://www.w3.org/2000/svg" xmlns:xlink="http://www.w3.org/1999/xlink" x="0px" y="0px"
	 viewBox="0 0 48 48" enable-background="new 0 0 48 48" xml:space="preserve">
<g>
	<g>
		<g>
			<path fill="#40596B" d="M46.6,9.6c-3.3-5-13.6-3.4-13.9-3.4l-0.2,0c-2.6,0.3-4.7,1.8-6,4.1c-1.2,2.3-1.2,5.1,0,7.4
				c3.3,6.1,7.9,7.6,8,7.6c1.6,0.7,3.1,0.9,4.4,0.9c5.1,0,7.4-4.3,7.4-4.3C49.9,15.2,46.7,9.9,46.6,9.6z"/>
			<path fill="#40596B" d="M15.6,6.3l-0.2,0C15,6.2,4.7,4.6,1.4,9.7C1.3,9.9-1.8,15.2,1.7,22c0,0.1,2.3,4.4,7.4,4.4
				c1.3,0,2.7-0.3,4.3-0.9c0.2-0.1,4.8-1.6,8.1-7.7c1.2-2.3,1.3-5.1,0-7.4C20.3,8.1,18.2,6.6,15.6,6.3z"/>
		</g>
		<path fill="#40596B" d="M28,13.9c-0.4,0-0.7-0.1-1-0.4c-1.6-1.6-4.3-1.6-5.9,0c-0.6,0.6-1.5,0.6-2,0c-0.6-0.6-0.6-1.5,0-2
			c2.8-2.8,7.2-2.8,10,0c0.6,0.6,0.6,1.5,0,2C28.7,13.8,28.3,13.9,28,13.9z"/>
		<path fill="#54C0EB" d="M38.9,24c-1.1,0-2.2-0.3-3.4-0.8l-0.1,0c-0.1,0-3.9-1.3-6.7-6.5c-0.9-1.6-0.9-3.5,0-5.1
			c0.8-1.6,2.3-2.6,4.1-2.8l0.2,0c0.1,0,1.8-0.3,3.8-0.3c4,0,6.8,0.9,7.9,2.6c0.1,0.1,2.5,4.4-0.4,9.9C44.1,21,42.5,24,38.9,24z"/>
		<path fill="#54C0EB" d="M9.1,24c-3.6,0-5.2-2.9-5.3-3.1c-2.9-5.5-0.5-9.8-0.4-10c1-1.6,3.8-2.5,7.8-2.5c2.1,0,3.7,0.3,3.8,0.3
			l0.3,0c1.8,0.2,3.3,1.2,4.1,2.8c0.8,1.6,0.8,3.5,0,5.1c-2.8,5.3-6.7,6.5-6.7,6.5l-0.1,0C11.4,23.7,10.2,24,9.1,24
			C9.1,24,9.1,24,9.1,24z"/>
		<path fill="#84DBFF" d="M42.1,9.2l-11,11c-0.4-0.4-0.8-0.9-1.2-1.5l10-10C40.8,8.8,41.5,9,42.1,9.2z"/>
		<path fill="#84DBFF" d="M45.2,12.5L34.7,22.9h0c-0.5-0.3-1.4-0.8-2.4-1.6L43.6,10c0.4,0.3,0.7,0.6,0.9,1
			C44.6,11,44.9,11.6,45.2,12.5z"/>
		<path fill="#84DBFF" d="M16.7,9L4.2,21.5c-0.2-0.3-0.4-0.6-0.4-0.6c-0.2-0.4-0.4-0.8-0.5-1.2L14.4,8.6c0.4,0,0.6,0.1,0.6,0.1
			l0.3,0C15.8,8.7,16.3,8.9,16.7,9z"/>
		<path fill="#84DBFF" d="M19.8,12.4L8.2,23.9c-1.2-0.2-2.1-0.7-2.8-1.2L18.2,9.9c0.5,0.4,0.9,1,1.3,1.6
			C19.6,11.8,19.7,12.1,19.8,12.4z"/>
	</g>
	<path fill="#40596B" d="M41.6,41.8c0,0-5.3,0.7-8.2-0.8l-0.1,0.8c0,0-0.6,0.2-1.8-1c0,0-0.5-0.1-0.5,0.2c0,0-0.8,0.1-1.6-0.7
		c0,0-1-0.3-1.7,0.2c0,0-2.2-0.1-3.5-2.8c-1.3,2.7-3.5,2.8-3.5,2.8c-0.7-0.5-1.7-0.2-1.7-0.2c-0.8,0.9-1.6,0.7-1.6,0.7
		c-0.1-0.3-0.5-0.2-0.5-0.2c-1.2,1.2-1.9,1-1.9,1L14.6,41c-2.9,1.5-8.2,0.8-8.2,0.8c-7.6-0.9-6.3-6-6.3-6c0.2-2.4,2.7-2.2,2.7-2.2
		c1.8,0.3,0.6,1,0.6,1c-1.4,0-1.2,0.4-1.2,0.4c-0.3,1.4,0.4,2,0.4,2s2.3,3.4,10.2-3.4c7.9-6.8,11.2,0.9,11.2,0.9s3.3-7.8,11.2-0.9
		c7.9,6.8,10.2,3.4,10.2,3.4s0.7-0.7,0.4-2c0,0,0.1-0.3-1.2-0.4c0,0-1.2-0.7,0.6-1c0,0,2.5-0.2,2.7,2.2C47.9,35.8,49.2,41,41.6,41.8
		z"/>
</g>
</svg>
