<?xml version="1.0" encoding="utf-8"?>
<!-- Generator: Adobe Illustrator 18.0.0, SVG Export Plug-In . SVG Version: 6.00 Build 0)  -->
<!DOCTYPE svg PUBLIC "-//W3C//DTD SVG 1.1//EN" "http://www.w3.org/Graphics/SVG/1.1/DTD/svg11.dtd">
<svg version="1.1" id="Layer_1" xmlns="http://www.w3.org/2000/svg" xmlns:xlink="http://www.w3.org/1999/xlink" x="0px" y="0px"
	 viewBox="0 0 48 48" enable-background="new 0 0 48 48" xml:space="preserve">
<g>
	<g>
		<g>
			<g>
				<g>
					<path fill="#FFD15C" d="M25.2,25.1l0.5,0.7c0,0-0.1,2,0,2.6l-3.4,1.3L20.7,26L25.2,25.1z"/>
				</g>
			</g>
		</g>
		<g>
			<g>
				<g>
					<path fill="#F26F5A" d="M22.1,29.3c0,0,0.7-0.2,0.9-0.4c0.2-0.2,2.1-1.1,2.6-0.9c0,0,0.2,1.6,0.6,1.9c0,0,0.5,1.4,1,2.5
						c0.5,1.1,0.9,2.2,1.1,3.4c0.1,0.7,0.2,1.3,0.3,1.6c0.3,0.8,0.7,3.9,0.7,3.9l-1.5,1.4c0,0-1,0-1-1c-0.1-1,0-0.8-0.3-1.7
						c-0.3-0.9-1-2.5-1-2.5S24,36,23.6,33.1C23.6,33.1,22.4,30,22.1,29.3z"/>
				</g>
			</g>
		</g>
		<g>
			<g>
				<g>
					<g>
						<path fill="#2F4251" d="M28.9,44.4c0,0,0.5,0.8,0.6,0.9c0.2,0.1,0.2,0,0.2,0V45l0.1,0l0.1,0.2c0.1,0,0.2,0,0.2-0.1v-0.3
							l0.2,0.2c0.2,0,0.4-0.1,0.6-0.2v-0.2c0.1-0.1,0.1-0.2,0.2-0.1l0.1,0.1c0.1,0.1,0.2,0.1,0.3-0.1L31.5,44l-0.3-0.5L28.9,44.4z"
							/>
					</g>
				</g>
			</g>
			<g>
				<g>
					<g>
						<path fill="#FFD15C" d="M10.9,13.8c0,0,0.3,2.3-0.4,4c-0.7,1.7-0.8,3.6-0.8,3.6s0,0.6,0.3,0.9c0.3,0.2,0.4,0.9,0.4,0.9
							s0,0.7,0.2,1.1c0.2,0.4,0.3,0.8,0.2,0.9c-0.1,0.1-0.4,0.2-0.6-0.1c-0.2-0.3-0.3-0.7-0.3-0.7l-0.1-0.2c0,0-0.3,0.1-0.3,0.4
							C9.6,25,9.6,25,9.6,25s0.1,0.3,0.1,0.5c0,0,0.3,0.2,0.3,0.4c0,0,0.5,0.2,0.4,0.5c0,0-0.1,0.1-0.3,0c0,0-0.2,0-0.3-0.1
							C9.7,26.1,9,25.6,9,25.6S8.6,25,8.6,24.9l-0.3-0.5c0,0,0.1-1.8,0.2-2c0,0,0.1-0.4,0-0.6c-0.1-0.1-0.2-0.7-0.1-0.8
							c0,0,0-1.4-0.1-3.1c-0.1-1.7,0.5-4.4,0.8-5.2L10.9,13.8z"/>
					</g>
				</g>
			</g>
			<g>
				<g>
					<g>
						<path fill="#FFD15C" d="M31.2,8.7l0.3-0.2c0,0,1.9,0.7,2.5,1.3c0.6,0.6,2.1,1.4,2.1,1.4s0.3,0,0.5,0.3
							c0.1,0.2,0.4,0.1,0.4,0.1s0.7-0.1,1.1,0.1c0.3,0.1,0.9,0.3,1,0.4c0,0,0.2,0.2,0.2,0.2l0.4,0.7c0,0,0.1,0.2,0.2,0.3
							c0,0-0.1,0.4-0.4,0.2c0,0-0.2,0.2-0.5-0.1c-0.2-0.2-0.2-0.3-0.2-0.3s-0.4-0.3-0.5-0.4c0,0-0.1,0-0.1,0.1c0,0,0.3,0.3,0.3,0.4
							c0,0.1-0.2,0.3-0.5,0.2c-0.3-0.2-0.4-0.2-0.4-0.2s-0.5,0.2-0.7,0.2c0,0-0.2,0.3-0.4,0.4c0,0,0,0.5-0.3,0.4l-0.2-0.2
							c0,0-0.2-0.2-0.3-0.2c-0.1,0-0.5-0.4-0.4-0.5c0.1-0.2,0.1-0.3,0.1-0.3s-0.5-0.3-0.9-0.3c-0.4,0-3.2-0.3-3.7-1.2
							C30.3,10.4,31.2,8.7,31.2,8.7z"/>
					</g>
				</g>
			</g>
			<g>
				<g>
					<g>
						<g>
							<path fill="#48B9A5" d="M18.6,23.7v1.4l-0.4,0.4l-0.4,0.2l-0.7,0.1l-0.8,0.3c0,0-0.2,0.9,0.4,1.4c0.5,0.5,1.4-0.5,1.4-0.5
								s0.4-0.5,0.4-0.8c0-0.3,0.5-1,0.5-1s0.6-0.5,0.7-1.1C19.7,23.7,18.6,23.7,18.6,23.7z"/>
						</g>
					</g>
				</g>
				<g>
					<g>
						<g>
							<path fill="#FFD15C" d="M16,25.3c-0.1,0.5-0.3,0.9-0.6,1.2l-0.9,0.7l-1.6,0.3l-0.6-0.5c-0.1-0.2-0.1-0.4-0.2-0.6
								c0-0.2,0-0.4-0.1-0.5c-0.1-0.4-0.2-1.2-0.1-2c0.2-1.2,1.1-1.1,1.1-1.1L16,25.3z"/>
						</g>
					</g>
				</g>
				<g>
					<g>
						<g>
							<polygon fill="#F5B54C" points="19.3,6 19.6,6.2 20,10.2 18.4,11.9 14.8,8.3 15,5.9 							"/>
						</g>
					</g>
				</g>
				<g>
					<g>
						<g>
							<path fill="#F26F5A" d="M31.4,9.9c-0.1,0.3-0.2,0.5-0.2,0.7c-0.1,0.5-0.3,0.9-0.6,1.3c-0.3,0.3-0.7,0.6-1.2,0.5
								c-1.1-0.2-1.2-0.3-1.6-0.3c-0.4,0-0.8-0.1-0.8-0.1s-0.2-0.1-0.6-0.1c-0.4,0-1.3,0-1.3,0s-0.3,0-0.4,0.4
								c-0.1,0.4-0.5,0.9-0.9,1c-0.4,0.1,0.2,1.9,0.2,1.9s-0.2,1-0.3,1.3c0,0,0.3,0.3,0.1,1.2c0,0,0,0.3,0.2,0.5
								c0.2,0.2,0.6,1.9,0.6,1.9s-2.5,2.5-6,2.3c-3.5-0.3-3.5-0.3-3.5-0.3s-2.6,0.2-2.7-1.8c0,0-0.1-0.7,0.1-1
								c0.2-0.3,0.1-0.8,0.1-0.8s-0.1-0.4,0.1-0.5c0.2-0.1-0.1-0.3-0.1-0.3s-0.1-0.9,0.3-1.5c0,0-0.3-1.7,0-2.6c0,0-0.3-0.2-0.3-0.3
								c0,0-0.9,1.2-1,1.8c0,0-0.7,0.1-1.1,0.1c-0.4-0.1-1.1-0.2-1.2-0.6c-0.1-0.3-0.4-0.3-1-1.1c0,0-0.3-0.2-0.1-0.8
								c0.3-0.5,1.4-3,1.4-3s1.1-1.9,1.1-2.2c0-0.3,0.4-0.6,0.6-0.7c0.2-0.1,0.4-0.4,0.4-0.4s0.3-0.3,0.7-0.3c0.3,0,0.7-0.3,0.7-0.3
								s0.6-0.4,1.1-0.5c0.1,0,0.1,0,0.2,0c0.8,2.3,2.2,3.8,3.7,5.2c0,0,0.6-0.7,1.3-2.1c0.6-1.3,0.2-2.8-0.2-3.9l0.1,0l0.1,0.5
								c0,0,2.4-0.2,3.4,0.5c0,0,1.2,0,1.7,0.4c0,0,2.1,0.6,2.8,1.2c0.7,0.6,1.4,0.5,1.4,0.5s0.4,0.3,1.4,0.5
								c0.9,0.1,1.6,0.7,1.6,0.7S31.7,9.3,31.4,9.9z"/>
						</g>
					</g>
				</g>
				<g>
					<g>
						<g>
							<path fill="#F3F3F3" d="M19.8,4.9c-0.3,0-0.5,0-0.5,0l-0.1-0.5l-0.1,0c0.4,1,0.9,2.6,0.2,3.9c-0.7,1.4-1.3,2.1-1.3,2.1
								c-1.5-1.4-2.9-2.9-3.7-5.2c-0.1,0-0.1,0-0.2,0c-0.1,0-0.2,0-0.3,0.1c0.8,2.3,2.1,3.9,3.8,5.4c0.1,0.1,0.2,0.1,0.3,0.1
								c0.1,0,0.3-0.1,0.4-0.2c0,0,0.7-0.8,1.4-2.2C20.4,7.4,20.1,6,19.8,4.9z"/>
						</g>
					</g>
				</g>
				<g>
					<g>
						<g>
							<g>
								<g>
									<g>
										<path fill="#FFD15C" d="M19.5,5.1c0,0,0.3,1.7-0.3,2.4c-0.5,0.7-0.6,1-0.6,1s-0.5,0.9-1.2,0.8c-0.7-0.1-1.1-0.6-1.1-0.6
											S16.3,8.6,16,8.4c-0.3-0.1-1.2-0.9-1.4-1.6c0,0-0.2-0.5-0.2-0.8c0-0.2-0.2-0.8-0.3-0.9C14,5.1,14,4.4,14,4.4l4.9-0.3
											L19.5,5.1z"/>
									</g>
								</g>
							</g>
						</g>
						<g>
							<g>
								<g>
									<path fill="#425B6B" d="M14.1,5.2c0,0-0.2-0.6,0.4-0.5c0.6,0.1,1.3,0.7,1.7,0.2c0.4-0.5,1.4-0.2,1.4-0.2s0.5,0.1,0.7-0.1
										c0.2-0.2,0.5,0.1,0.5,0.1l0.4,0.7l0.2-0.1c0,0-0.3-0.4-0.2-0.7c0.1-0.4,0.2-0.8,0.2-0.8s-0.1-1-0.2-1.4s-0.4-1.9-1.9-2.3
										c-1.5-0.4-2.5,0.4-3.1,0.8c-0.5,0.4-1.1,1.5-1,2.4C13.5,4.1,13.9,5.1,14.1,5.2z"/>
								</g>
							</g>
						</g>
					</g>
					<g>
						<g>
							<g>
								<path fill="#FFD15C" d="M19.4,5.3c-0.1-0.2-0.2-0.5-0.1-0.8c0.1-0.3,0.1-0.8,0.3-0.9c0.2-0.1,0.4-0.1,0.4,0.1
									c0.1,0.2,0,0.4,0,0.4s-0.1,0.6,0,0.8c0.1,0.2-0.1,0.5-0.2,0.6C19.6,5.5,19.6,5.5,19.4,5.3C19.4,5.3,19.4,5.3,19.4,5.3z"/>
							</g>
						</g>
					</g>
				</g>
				<g>
					<g>
						<g>
							<path fill="#FFD15C" d="M19.1,24.5c-0.1-0.6-0.5-0.7-0.5-0.7l-0.2,0l-1.2,1.4L15.8,25c0,0,0.1,1-0.4,1.4
								c-0.4,0.3-0.8,0.5-1.2,0.7c-0.2,0.1-0.4,0.1-0.6,0.2c-0.5,0.1-0.7,0-0.7,0s-0.6-0.2-0.8-0.9c0,0,0,0.3,0,0.4
								c0.1,0.2,0.2,0.3,0.3,0.4c0.2,0.2,0.6,0.3,0.9,0.2c0.3,0,0.6-0.1,0.9-0.2c0.2-0.1,0.4-0.1,0.6-0.2c0.2-0.1,0.4-0.3,0.5-0.4
								l1.1-0.4c0,0,0.9-0.1,0.9-0.2c0,0,0,0.1,0.3,0.1c0.3,0,0.8-0.3,0.8-0.3S19.1,25.1,19.1,24.5z"/>
						</g>
					</g>
				</g>
				<g>
					<g>
						<g>
							<path fill="#425A6B" d="M24,19.8l0.7,0.1c0,0,0.1,0.1,0.2,0.9c0.1,0.8,0.3,1.3,0.3,1.3s0.3,0.7,0.3,1.2s0,0.7,0.1,1
								c0.1,0.3,0.1,1.4,0.1,1.4c-1.9,1-4.1,1-5,0.2l-1.1-1.8c-0.1-0.3-0.6-0.3-1.1-0.4c0,0-0.6,0.6-1,1.2c-0.3,0.6-1,0.8-1.6,0.8
								c-1-0.1-2-0.3-3-0.8c-0.1-0.1-0.3-0.1-0.4-0.2l0,0c-0.5-0.4-0.7-1-0.6-1.6l0.6-3.1L24,19.8z"/>
						</g>
					</g>
				</g>
			</g>
			<g>
				<g>
					<g>
						<path fill="#48B9A5" d="M27.1,42.4c0,0,0.9-0.1,0.9-0.3c0,0-0.5-0.4,0.1-0.6c0.6-0.2,1.3-0.2,1.3-0.2s0.3,0.1,0.7,0.8
							c0.3,0.6,0.8,0.8,1.2,1c0.2,0.1,0.7,0.5,0.2,0.9c0,0-0.6-0.1-1.2,0.3c-0.6,0.4-0.8,0.8-1.2,0.5c-0.4-0.3-0.6-0.7-0.6-0.7
							L27.1,42.4z"/>
					</g>
				</g>
			</g>
		</g>
	</g>
	<g>
		<g>
			<g>
				<g>
					
						<ellipse transform="matrix(1 -3.558061e-003 3.558061e-003 1 -0.1565 9.067494e-002)" fill="#E8EAE8" cx="25.4" cy="44" rx="3.9" ry="4"/>
				</g>
			</g>
		</g>
		<g>
			<g>
				<g>
					<g>
						<polygon fill="#2F4251" points="25.9,45.5 25.5,44 26.8,43 27.9,44 27.4,45.5 						"/>
					</g>
				</g>
			</g>
			<g>
				<g>
					<g>
						<polygon fill="#2F4251" points="22.8,46.7 24,47.6 25.2,47.4 24.8,46.5 23.2,46 						"/>
					</g>
				</g>
			</g>
			<g>
				<g>
					<g>
						<polygon fill="#2F4251" points="22.9,44.4 23.9,43.4 23.6,42 22.5,42.1 22,43.5 						"/>
					</g>
				</g>
			</g>
			<g>
				<g>
					<g>
						<polygon fill="#2F4251" points="25.1,41 26.5,41.5 27.5,41 26.5,40.2 25.1,40.2 						"/>
					</g>
				</g>
			</g>
			<g>
				<g>
					<g>
						<path fill="#2F4251" d="M28.9,42.1l-0.2,0.1l0.1,1.3l0.4,0.9l0.1,0c0-0.1,0-0.2,0-0.4C29.4,43.3,29.2,42.7,28.9,42.1z"/>
					</g>
				</g>
			</g>
			<g>
				<g>
					<g>
						<path fill="#2F4251" d="M28.6,46.4l0.1-0.3l-0.9,0.4l-1,1l0.1,0.1l0.1,0C27.6,47.4,28.2,47,28.6,46.4z"/>
					</g>
				</g>
			</g>
		</g>
	</g>
</g>
</svg>
