<?xml version="1.0" encoding="utf-8"?>
<!-- Generator: Adobe Illustrator 18.0.0, SVG Export Plug-In . SVG Version: 6.00 Build 0)  -->
<!DOCTYPE svg PUBLIC "-//W3C//DTD SVG 1.1//EN" "http://www.w3.org/Graphics/SVG/1.1/DTD/svg11.dtd">
<svg version="1.1" id="Layer_1" xmlns="http://www.w3.org/2000/svg" xmlns:xlink="http://www.w3.org/1999/xlink" x="0px" y="0px"
	 viewBox="0 0 48 48" enable-background="new 0 0 48 48" xml:space="preserve">
<g>
	
		<rect x="7.5" y="10.9" transform="matrix(0.7071 -0.7071 0.7071 0.7071 -6.1149 9.9253)" fill="#334A5E" width="2.9" height="2.9"/>
	
		<rect x="37.6" y="10.9" transform="matrix(-0.7071 -0.7071 0.7071 -0.7071 57.9793 48.7038)" fill="#334A5E" width="2.9" height="2.9"/>
	<g>
		<path fill="#40596B" d="M27.7,5.8h-7.4c-1.6,0-2.9-1.3-2.9-2.9S18.7,0,20.3,0h7.4c1.6,0,2.9,1.3,2.9,2.9S29.3,5.8,27.7,5.8z
			 M20.3,1.5c-0.8,0-1.4,0.6-1.4,1.4s0.6,1.4,1.4,1.4h7.4c0.8,0,1.4-0.6,1.4-1.4s-0.6-1.4-1.4-1.4H20.3z"/>
	</g>
	<path fill="#334A5E" d="M25.5,8.1h-2.9v-4c0-0.6,0.4-1,1-1h0.9c0.6,0,1,0.4,1,1V8.1z"/>
	<path fill="#40596B" d="M9.5,10.9l-2.1,2.1c-0.4,0.4-1,0.4-1.4,0l-0.6-0.6c-0.4-0.4-0.4-1,0-1.4l2.1-2.1c0.4-0.4,1-0.4,1.4,0
		l0.6,0.6C9.9,9.8,9.9,10.5,9.5,10.9z"/>
	<path fill="#40596B" d="M38.5,10.9l2.1,2.1c0.4,0.4,1,0.4,1.4,0l0.6-0.6c0.4-0.4,0.4-1,0-1.4l-2.1-2.1c-0.4-0.4-1-0.4-1.4,0
		l-0.6,0.6C38.1,9.8,38.1,10.5,38.5,10.9z"/>
	<circle fill="#40596B" cx="24" cy="27.4" r="20.6"/>
	<path fill="#F2F2F2" d="M24,43.2c-8.7,0-15.8-7.1-15.8-15.8c0-8.7,7.1-15.8,15.8-15.8c8.7,0,15.8,7.1,15.8,15.8
		C39.8,36.1,32.7,43.2,24,43.2z"/>
	<g>
		<g>
			<rect x="23.4" y="12.6" fill="#4CDBC4" width="1.1" height="2.5"/>
			<rect x="23.4" y="39.7" fill="#4CDBC4" width="1.1" height="2.6"/>
		</g>
		<g>
			
				<rect x="32.3" y="17.3" transform="matrix(0.7071 -0.7071 0.7071 0.7071 -2.7806 28.9694)" fill="#4CDBC4" width="2.6" height="1.1"/>
			
				<rect x="13.1" y="36.4" transform="matrix(0.7071 -0.7071 0.7071 0.7071 -21.9375 21.0346)" fill="#4CDBC4" width="2.6" height="1.1"/>
		</g>
		<g>
			<rect x="36.3" y="26.9" fill="#4CDBC4" width="2.6" height="1.1"/>
			<rect x="9.2" y="26.9" fill="#4CDBC4" width="2.6" height="1.1"/>
		</g>
		<g>
			
				<rect x="32.3" y="36.4" transform="matrix(0.7071 0.7071 -0.7071 0.7071 35.9964 -12.9068)" fill="#4CDBC4" width="2.6" height="1.1"/>
			<polygon fill="#4CDBC4" points="15.7,18.4 14.9,19.1 13.4,17.7 13.1,17.3 13.9,16.5 14.3,16.9 			"/>
		</g>
	</g>
	<path fill="#334A5E" d="M31.1,20.2c-1.1,1.9-2.4,3.6-3.9,5.1l-0.9,0.9l-1.1,1.1c0-0.6-0.6-1.1-1.2-1.1c0,0-0.1,0-0.1,0l1.2-1.2
		l0.9-0.9C27.5,22.6,29.3,21.3,31.1,20.2z"/>
	<path fill="#FF7058" d="M26.3,26.3c-0.3-0.5-0.7-0.9-1.2-1.2c-0.3-0.1-0.7-0.2-1-0.2c-1.4,0-2.6,1.1-2.6,2.6c0,1.4,1.2,2.6,2.6,2.6
		c1.4,0,2.6-1.2,2.6-2.6C26.6,27,26.5,26.6,26.3,26.3z M24,28.6c-0.7,0-1.2-0.5-1.2-1.2c0-0.6,0.5-1.1,1.1-1.2c0,0,0.1,0,0.1,0
		c0.6,0,1.2,0.5,1.2,1.1c0,0,0,0,0,0.1C25.2,28.1,24.7,28.6,24,28.6z"/>
	<path fill="#E4EAEF" d="M24,13.6c8.4,0,15.3,6.6,15.8,14.8c0-0.3,0.1-0.7,0.1-1c0-8.7-7.1-15.8-15.8-15.8
		c-8.7,0-15.8,7.1-15.8,15.8c0,0.3,0,0.7,0.1,1C8.7,20.2,15.6,13.6,24,13.6z"/>
	<path fill="#3DC9AE" d="M13.9,16.5l0.4,0.4c-0.3,0.2-0.6,0.5-0.8,0.7l-0.3-0.3L13.9,16.5z"/>
	<path fill="#3DC9AE" d="M23.4,12.6h1.1v1c-0.2,0-0.4,0-0.6,0s-0.4,0-0.6,0V12.6z"/>
	<path fill="#3DC9AE" d="M34.9,17.3l-0.3,0.3c-0.3-0.3-0.6-0.5-0.9-0.7l0.4-0.4L34.9,17.3z"/>
</g>
</svg>
