<?xml version="1.0" encoding="utf-8"?>
<!-- Generator: Adobe Illustrator 18.0.0, SVG Export Plug-In . SVG Version: 6.00 Build 0)  -->
<!DOCTYPE svg PUBLIC "-//W3C//DTD SVG 1.1//EN" "http://www.w3.org/Graphics/SVG/1.1/DTD/svg11.dtd">
<svg version="1.1" id="Layer_1" xmlns="http://www.w3.org/2000/svg" xmlns:xlink="http://www.w3.org/1999/xlink" x="0px" y="0px"
	 viewBox="0 0 48 48" enable-background="new 0 0 48 48" xml:space="preserve">
<g>
	<path fill="#FFD15C" d="M21.8,2.8l-12.2,10c-1.5,1.4-1.4,2.7-1.4,2.7l-0.1,9.7c0.3,4-0.8,6.8-2.1,8.6l8.6,7.9
		c2.4-2.4,4.9-5.7,4.9-5.7c5.5-7.2,3.3-11.9,3.3-11.9c-0.8-1.6-0.5-5.4-0.5-5.4c0.1-1,1.3-5.5,1.7-7.2c0.2-0.6,0.3-1.3,0.3-2
		c0-2.3-1-3-2.1-3.1c-0.3,0-0.6,0-0.8,0C21.9,4.5,22.1,3.1,21.8,2.8z"/>
	<path fill="#40596B" d="M17,43.1l-4.1,4.4c-0.5,0.5-1.3,0.6-1.9,0.1L0.4,37.9c-0.5-0.5-0.6-1.3-0.1-1.9l4.1-4.4
		C4.9,31,5.8,31,6.3,31.5l10.6,9.8C17.5,41.8,17.5,42.6,17,43.1z"/>
	<path fill="#F8B64C" d="M19.8,5.7c0,0-2.1,3.5-3.8,9.3c0,0-1.4,5.7-2,6.8C13.9,21.8,19.7,16.9,19.8,5.7z"/>
	<path fill="#CDD6E0" d="M46.2,0H18.7c-1,0-1.8,0.8-1.8,1.8v16.8c0,1,0.8,1.8,1.8,1.8h27.5c1,0,1.8-0.8,1.8-1.8V1.8
		C48,0.8,47.2,0,46.2,0z"/>
	<rect x="20.7" y="11.7" fill="#334A5E" width="11.7" height="2.2"/>
	<rect x="16.8" y="3.6" fill="#40596B" width="31.2" height="4.1"/>
	<path fill="#FFD15C" d="M13.5,24.1c0,0,1.5-2,1.8-2.9c0,0,2-5.3,2.3-6.9c0,0,0.5-3.9,1.8-6.4c0.6-1,1.7-1.7,2.9-1.5
		c1,0.1,2.1,0.8,2.1,3.1c0,0.7-0.1,1.3-0.3,2c-0.5,1.7-1.7,6.2-1.7,7.2c0,0-0.3,3.8,0.5,5.4c0,0,2.2,4.7-3.3,11.9L13.5,24.1z"/>
	<path fill="#F2F2F2" d="M22.4,11.7c0.5-0.2,0.9-0.6,1-1.1c0.1-0.4,0.1-0.8,0.1-1c0-2.1-1-2.2-1.3-2.3c-0.7-0.1-1.3,0.2-1.8,0.7
		c-0.1,0.1-0.2,0.3-0.3,0.4c-0.2,0.4-0.4,0.8-0.6,1.3c-0.1,0.3-0.1,0.6,0,0.9C20.2,11.8,21.2,12.1,22.4,11.7z"/>
	<circle fill="#FF7058" cx="38.1" cy="13.9" r="3.1"/>
	<circle fill="#FFD15C" cx="42.5" cy="13.9" r="3.1"/>
</g>
</svg>
