<?xml version="1.0" encoding="utf-8"?>
<!-- Generator: Adobe Illustrator 16.0.0, SVG Export Plug-In . SVG Version: 6.00 Build 0)  -->
<!DOCTYPE svg PUBLIC "-//W3C//DTD SVG 1.1//EN" "http://www.w3.org/Graphics/SVG/1.1/DTD/svg11.dtd">
<svg version="1.1" id="Layer_1" xmlns="http://www.w3.org/2000/svg" xmlns:xlink="http://www.w3.org/1999/xlink" x="0px" y="0px"
	 width="48px" height="48px" viewBox="0 0 48 48" enable-background="new 0 0 48 48" xml:space="preserve">
<g>
	<rect x="22.081" y="6.092" fill="#334A5E" width="3.837" height="38.018"/>
	<path fill="#CDD6E0" d="M11.487,48L11.487,48c0-2.149,1.742-3.89,3.891-3.89h17.244c2.147,0,3.89,1.74,3.89,3.89H11.487z"/>
	<polygon fill="#84DBFF" points="43,20.186 25.918,20.186 25.918,9.917 43,9.917 48,15.051 	"/>
	<polygon fill="#FFD15C" points="38,33.86 25.918,33.86 25.918,23.592 38,23.592 43,28.726 	"/>
	<polygon fill="#FF7058" points="5,18.98 22.081,18.98 22.081,29.249 5,29.249 0,24.115 	"/>
	<path fill="#40596B" d="M27.502,3.502c0,1.935-1.567,3.502-3.502,3.502s-3.503-1.567-3.503-3.502C20.497,1.568,22.065,0,24,0
		S27.502,1.568,27.502,3.502"/>
</g>
</svg>
