<?xml version="1.0" encoding="utf-8"?>
<!-- Generator: Adobe Illustrator 18.0.0, SVG Export Plug-In . SVG Version: 6.00 Build 0)  -->
<!DOCTYPE svg PUBLIC "-//W3C//DTD SVG 1.1//EN" "http://www.w3.org/Graphics/SVG/1.1/DTD/svg11.dtd">
<svg version="1.1" id="Layer_1" xmlns="http://www.w3.org/2000/svg" xmlns:xlink="http://www.w3.org/1999/xlink" x="0px" y="0px"
	 viewBox="0 0 48 48" enable-background="new 0 0 48 48" xml:space="preserve">
<g>
	<g>
		<g>
			<path fill="#415A6B" d="M26.4,18.4L8.9,16.1c-1.4-0.2-2.6,0.8-2.6,2.2v16C5.2,34.3,4,34.5,3,35.1c-2.6,1.4-3.7,4.3-2.5,6.5
				c1.2,2.2,4.2,2.8,6.8,1.4c2-1.1,3.1-3,2.9-4.9h0V26.2l14.2,1.7v10.8c-1.1-0.1-2.3,0.1-3.4,0.7c-2.6,1.4-3.7,4.3-2.5,6.5
				c1.2,2.2,4.2,2.8,6.8,1.4c2-1.1,3.1-3,2.9-4.9h0V20.6C28.3,19.5,27.5,18.5,26.4,18.4z"/>
		</g>
		<g>
			<g>
				<path fill="#F3705A" d="M46.6,8.2l-6.8,6.8l-6.8-6.8c-1.9-1.9-1.9-4.9,0-6.8c1.9-1.9,4.9-1.9,6.8,0c1.9-1.9,4.9-1.9,6.8,0
					C48.5,3.3,48.5,6.3,46.6,8.2z"/>
			</g>
			<g>
				
					<ellipse transform="matrix(0.8309 -0.5565 0.5565 0.8309 5.8174 25.6811)" fill="#FFFFFF" cx="45.2" cy="3.3" rx="0.9" ry="1.7"/>
			</g>
		</g>
		<g>
			<g>
				<path fill="#F3705A" d="M34.9,16l-3.3,3.3L28.2,16c-0.9-0.9-0.9-2.4,0-3.3c0.9-0.9,2.4-0.9,3.3,0c0.9-0.9,2.4-0.9,3.3,0
					C35.8,13.5,35.8,15,34.9,16z"/>
			</g>
			<g>
				
					<ellipse transform="matrix(0.8309 -0.5565 0.5565 0.8309 -1.7538 21.2981)" fill="#FFFFFF" cx="34.2" cy="13.5" rx="0.4" ry="0.9"/>
			</g>
		</g>
	</g>
</g>
</svg>
