<?xml version="1.0" encoding="utf-8"?>
<!-- Generator: Adobe Illustrator 16.0.0, SVG Export Plug-In . SVG Version: 6.00 Build 0)  -->
<!DOCTYPE svg PUBLIC "-//W3C//DTD SVG 1.1//EN" "http://www.w3.org/Graphics/SVG/1.1/DTD/svg11.dtd">
<svg version="1.1" id="Layer_1" xmlns="http://www.w3.org/2000/svg" xmlns:xlink="http://www.w3.org/1999/xlink" x="0px" y="0px"
	 width="48px" height="48px" viewBox="0 0 48 48" enable-background="new 0 0 48 48" xml:space="preserve">
<g>
	<path fill="#40596B" d="M35.816,35.715c-7.836,3.207-15.673,3.207-23.509,0c-1.607-7.819-2.078-15.638-1.413-23.457
		C11.486,5.3,17.297,0.08,24.279,0.133c0.079,0,0.157,0.001,0.234,0.003c6.58,0.103,12.095,5.195,12.683,11.749
		C37.908,19.828,37.448,27.771,35.816,35.715"/>
	<path fill="#F2F2F2" d="M48,41.605v6.21H0v-6.21c0.93-1.78,2.881-4.53,6.461-5.55l0.01,0.01c0.199,0.05,2.629,0.8,5.719,1.61
		c2.101,0.54,4.521,1.11,6.74,1.49h0.01c1.951,0.34,3.761,0.53,5.061,0.45c1.311,0.08,3.11-0.11,5.07-0.45h0.01
		c2.221-0.39,4.641-0.96,6.75-1.49c3.21-0.84,5.71-1.62,5.71-1.62h0.011C45.12,37.085,47.08,39.835,48,41.605"/>
	<path fill="#F8B64C" d="M30.334,27.864l-0.244-1.017H17.91l-0.244,1.017l-0.012,0.023c0.003-0.004,0.016-0.024,0.016-0.024
		c-0.576,2.59,0.141,6.897,1.27,11.299c1.956,0.338,3.759,0.537,5.063,0.452c1.305,0.085,3.11-0.114,5.068-0.453
		c1.127-4.393,1.958-8.184,1.389-10.775L30.334,27.864z"/>
	<path fill="#ACB3BA" d="M23.994,28.395c-0.011,0.011-0.023,0.011-0.023,0.011v-0.022C23.983,28.384,23.994,28.395,23.994,28.395"/>
	<path fill="#ACB3BA" d="M24.04,28.384v0.023c0,0-0.011,0-0.022-0.012C24.018,28.395,24.029,28.384,24.04,28.384"/>
	<g opacity="0.1">
		<g>
			<defs>
				<rect id="SVGID_17_" x="20.987" y="27.171" width="9.538" height="9.6"/>
			</defs>
			<clipPath id="SVGID_2_">
				<use xlink:href="#SVGID_17_"  overflow="visible"/>
			</clipPath>
			<path clip-path="url(#SVGID_2_)" fill="#40596B" d="M20.988,29.589l8.631,7.18c0,0,1.6-6.432,0.549-9.595l-8.524,1.944
				L20.988,29.589z"/>
		</g>
	</g>
	<path fill="#F8B64C" d="M15.5,16.325c0.396,1.701,0.188,3.204-0.468,3.357c-0.655,0.153-1.509-1.102-1.905-2.803
		c-0.396-1.702-0.188-3.205,0.469-3.358C14.25,13.369,15.104,14.625,15.5,16.325"/>
	<path fill="#F8B64C" d="M32.555,16.325c-0.397,1.701-0.188,3.204,0.468,3.357c0.655,0.153,1.394-1.133,1.905-2.803
		c0.306-0.997,0.166-3.034-0.469-3.358C33.86,13.215,32.951,14.625,32.555,16.325"/>
	<path fill="#FFD15C" d="M33.419,21.271c-2.755,8.742-9.356,9.406-9.356,9.406s-6.603-0.664-9.357-9.406c0,0-1.475-4.56-0.238-8.36
		c0,0,0.757-6.484,9.596-6.484c8.838,0,9.594,6.484,9.594,6.484C34.893,16.711,33.419,21.271,33.419,21.271"/>
	<path fill="#40596B" d="M33.865,13.667c0,0-4.474,5.94-10.162,0.252c-4.625-4.625-9.465-0.163-9.465-0.163l-0.295-0.752
		c0-5.538,4.489-10.028,10.028-10.028S34,7.466,34,13.004L33.865,13.667z"/>
	<path fill="#FF7058" d="M32,41.205l1.711,4.4c0,0-1.49,0.79-3.381,2.21h-3.88c5.31-15.728,3.96-19.56,3.89-19.93
		c0,0,1.891,2.84,3.561,5.91c0.689,1.25,1.359,2.58,1.93,3.88c0.551,1.24,0.99,2.46,1.24,3.53H32z"/>
	<path fill="#F1543F" d="M41.551,36.055H41.54c-1.34-0.44-3.25-1.7-5.11-3.1c-2.959-2.229-5.799-4.82-6.08-5.07h-0.01
		c0,0,1.891,2.84,3.561,5.91c0.689,1.25,1.359,2.58,1.93,3.88c0.551,1.24,0.99,2.46,1.24,3.53H32l1.71,4.4c0,0-1.489,0.79-3.38,2.21
		h9.98C38.51,42.766,41.551,36.055,41.551,36.055"/>
	<path fill="#FF7058" d="M16.01,41.205l-1.709,4.4c0,0,1.489,0.79,3.379,2.21h3.881c-5.311-15.728-3.961-19.56-3.891-19.93
		c0,0-1.89,2.84-3.56,5.91c-0.69,1.25-1.36,2.58-1.931,3.88c-0.549,1.24-0.989,2.46-1.239,3.53H16.01z"/>
	<path fill="#F1543F" d="M6.461,36.055h0.01c1.34-0.44,3.25-1.7,5.109-3.1c2.96-2.229,5.801-4.82,6.08-5.07h0.01
		c0,0-1.89,2.84-3.56,5.91c-0.69,1.25-1.36,2.58-1.931,3.88c-0.549,1.24-0.99,2.46-1.24,3.53h5.07l-1.709,4.4
		c0,0,1.489,0.79,3.379,2.21H7.7C9.5,42.766,6.461,36.055,6.461,36.055"/>
</g>
</svg>
