<?xml version="1.0" encoding="utf-8"?>
<!-- Generator: Adobe Illustrator 18.0.0, SVG Export Plug-In . SVG Version: 6.00 Build 0)  -->
<!DOCTYPE svg PUBLIC "-//W3C//DTD SVG 1.1//EN" "http://www.w3.org/Graphics/SVG/1.1/DTD/svg11.dtd">
<svg version="1.1" id="Layer_1" xmlns="http://www.w3.org/2000/svg" xmlns:xlink="http://www.w3.org/1999/xlink" x="0px" y="0px"
	 viewBox="0 0 48 48" enable-background="new 0 0 48 48" xml:space="preserve">
<g>
	<g>
		<path fill="#FFD15C" d="M28.4,16.6c0,0,4.3-2.1,0.4-7.1c0,0-0.9-1.3-0.2-3.2c0,0-2.4,0.9-1.2,4.8c0,0-2.4-0.8-1-5.1
			c0,0,1.1-3.3-2.5-6c0,0,2.1,4.1-2.8,8.3c0,0,0.4-2.4-2-3.5c0,0,0.4,3.1-1,5.6c0,0-2.6,4.3,2.7,7C20.9,17.4,25.6,18.2,28.4,16.6z"
			/>
		<path fill="#F8B64C" d="M21.7,17.1c0,0-2.2-1.1-0.2-3.7c0,0,0.5-0.7,0.1-1.7c0,0,1.2,0.4,0.6,2.5c0,0,1.2-0.4,0.5-2.7
			c0,0-0.6-1.7,1.3-3.1c0,0-1.1,2.1,1.4,4.3c0,0-0.2-1.2,1-1.8c0,0-0.2,1.6,0.5,2.9c0,0,1.4,2.2-1.4,3.6
			C25.6,17.5,23.2,17.9,21.7,17.1z"/>
	</g>
	<path fill="#CDD6E0" d="M39.8,48H8.2C7.5,37.3,10,26.6,15.9,15.8h16.2C38,26.6,40.5,37.3,39.8,48z"/>
	<rect x="5.5" y="44.5" fill="#40596B" width="36.9" height="3.5"/>
	<path fill="#BFCEDD" d="M32.1,15.8H15.9c-0.4,0.7-0.8,1.5-1.2,2.2c0.2,0.1,0.5,0.1,0.7,0.1h17.1c0.2,0,0.5,0,0.7-0.1
		C32.9,17.3,32.5,16.6,32.1,15.8z"/>
	<path fill="#ACB3BA" d="M32.6,16.7H15.4c-0.6,0-1.1-0.5-1.1-1.1v0c0-0.6,0.5-1.1,1.1-1.1h17.1c0.6,0,1.1,0.5,1.1,1.1v0
		C33.6,16.2,33.1,16.7,32.6,16.7z"/>
</g>
</svg>
