<?xml version="1.0" encoding="utf-8"?>
<!-- Generator: Adobe Illustrator 18.0.0, SVG Export Plug-In . SVG Version: 6.00 Build 0)  -->
<!DOCTYPE svg PUBLIC "-//W3C//DTD SVG 1.1//EN" "http://www.w3.org/Graphics/SVG/1.1/DTD/svg11.dtd">
<svg version="1.1" id="Layer_1" xmlns="http://www.w3.org/2000/svg" xmlns:xlink="http://www.w3.org/1999/xlink" x="0px" y="0px"
	 viewBox="0 0 48 48" enable-background="new 0 0 48 48" xml:space="preserve">
<g>
	<g>
		<path fill="#435B6C" d="M26,41.2v-7.1h-2v7.1c-1.4,0.4-2.5,1.7-2.5,3.3c0,1.9,1.6,3.5,3.5,3.5s3.5-1.6,3.5-3.5
			C28.5,43,27.4,41.7,26,41.2z M25,46c-0.8,0-1.5-0.7-1.5-1.5c0-0.8,0.7-1.5,1.5-1.5c0.8,0,1.5,0.7,1.5,1.5C26.5,45.3,25.8,46,25,46
			z"/>
		<path fill="#FFD15D" d="M45.5,0h-43C1.1,0,0,1.1,0,2.5S1.1,5,2.5,5h43C46.9,5,48,3.9,48,2.5S46.9,0,45.5,0z"/>
		<path fill="#FFD15D" d="M45.5,30.2h-43c-1.4,0-2.5,1.1-2.5,2.5c0,1.4,1.1,2.5,2.5,2.5h43c1.4,0,2.5-1.1,2.5-2.5
			C48,31.3,46.9,30.2,45.5,30.2z"/>
		<rect x="2.5" y="5" fill="#E8EAE9" width="43" height="25.1"/>
		<g>
			<g>
				<path fill="#57C0EC" d="M22.4,9.6C22.4,9.5,22.4,9.5,22.4,9.6c-0.4,0-0.8,0-1.1,0c0,0,0-0.1,0.1-0.1c0,0,0,0,0,0
					c-0.1,0-0.3,0-0.4,0.1c0,0,0,0,0-0.1c0.1,0,0.2,0,0.3-0.1c0,0,0-0.1,0-0.1c-0.5,0-1-0.1-1.4-0.1c-0.5,0-0.9,0.1-1.4,0.1v0.1
					c0.1,0,0.2,0,0.2,0.1c0,0,0,0,0,0c-0.2,0-0.4-0.1-0.7-0.1C18,9.4,18,9.5,18,9.5c-0.1,0-0.2,0-0.4,0c0,0-0.1,0-0.1,0
					c-0.2,0-0.5,0-0.7,0.1c0,0,0,0-0.1,0c0,0-0.1,0.1-0.1,0.1c-0.2,0-0.4,0.1-0.5,0.1c0,0,0,0,0,0.1c0.1,0,0.2,0,0.2,0
					c0,0,0,0,0,0.1C16,9.9,15.7,10,15.4,10c0,0,0,0,0,0.1c0.2,0,0.3,0.1,0.5,0.1v0c-0.1,0-0.2,0-0.3,0v0.1c0.2,0,0.4,0.1,0.7,0.1
					c0.4,0,0.9,0,1.1,0.5c0,0.1,0,0.1-0.1,0.3c0.1,0,0.2-0.1,0.2-0.1c0.1,0.1,0.2,0.1,0.3,0.2c-0.2,0.1-0.4-0.2-0.5,0.2
					c0.1,0,0.2,0,0.3,0c0,0,0,0,0-0.1c0,0-0.1,0-0.1-0.1c0,0,0,0,0.1,0c0.1,0,0.2,0.1,0.2,0.1c0,0.1-0.1,0.1-0.1,0.1
					c-0.1,0-0.1,0.1-0.2,0.2c0,0.1,0.1,0.2,0.1,0.3c0,0,0.1,0.1,0.1,0.1c0.1,0.1,0.2,0.3,0.3,0.4c0.1,0.1,0.2,0.1,0.3,0.2
					c0.1,0,0.2,0.1,0.2,0.1c0.1,0,0.2,0.1,0.2,0c0.1-0.2,0.1-0.4,0.3-0.5c0,0,0,0,0-0.1c0-0.2,0.1-0.2,0.2-0.2c0.2,0,0.4,0,0.5-0.2
					c0.2-0.2,0.4-0.2,0.6-0.2c0.2,0,0.5-0.1,0.7-0.2c0,0,0,0,0-0.1c-0.1,0-0.2,0-0.4-0.1c0.1,0,0.1-0.2,0.2-0.1
					c0.1,0.1,0.2,0.1,0.3,0.2c-0.1-0.3-0.3-0.2-0.4-0.4c0.1,0,0.2,0,0.3,0c0,0,0-0.1-0.1-0.1c0.1,0,0.2,0,0.3,0c0,0,0,0,0-0.1
					c0.1,0,0.1,0,0.2-0.1c-0.1,0-0.1-0.1-0.2-0.1c0.1,0,0.1,0,0.2,0c0,0,0,0,0-0.1c-0.1,0-0.2-0.1-0.3-0.1c0,0,0,0,0,0h0.4
					c0,0,0,0,0-0.1c-0.1,0-0.1,0-0.3,0c0.1,0,0.1,0,0.1-0.1h-0.3c0.1-0.1,0.2-0.2,0.3-0.3c0,0-0.1,0-0.1-0.1c0.1,0,0.3,0,0.4-0.1
					C22,9.7,22.2,9.6,22.4,9.6z"/>
				<path fill="#57C0EC" d="M19.3,21.5c0-0.2-0.1-0.1-0.2-0.1c0,0-0.1-0.1-0.1-0.1c0,0-0.1-0.1-0.1-0.1c-0.2-0.1-0.3-0.1-0.5-0.1
					c0,0-0.1,0-0.1,0c-0.1-0.2-0.3-0.2-0.4-0.2c-0.1,0-0.2-0.1-0.2-0.2c0-0.2-0.1-0.2-0.1-0.4c-0.1-0.3-0.3-0.5-0.6-0.5
					c-0.1,0-0.2,0-0.2-0.1c-0.1-0.1-0.2-0.2-0.2-0.3c0,0-0.1-0.1-0.1-0.1C16.3,19.1,16,19,16,19c-0.1,0-0.3,0.1-0.4,0
					c-0.1-0.2-0.3-0.1-0.4,0c0,0,0,0,0,0c0,0,0-0.1,0-0.1c0,0,0.1,0,0.1,0c0,0,0,0,0-0.1c-0.1,0.1-0.3,0.1-0.4,0.2c0,0,0,0,0,0.1
					c-0.1,0.1-0.1,0.2-0.2,0.3c-0.1-0.2-0.3-0.3-0.4-0.1c0,0-0.1,0-0.2,0c-0.2-0.2-0.2-0.4-0.1-0.7c0-0.1,0-0.2-0.1-0.3
					c-0.1,0-0.1,0-0.2,0c-0.1,0-0.2,0-0.3,0c0.1-0.3,0.1-0.6,0.2-0.9c-0.1,0-0.2,0-0.3,0.1c0,0-0.1,0.1-0.1,0.1c0,0.1,0,0.3-0.2,0.3
					c-0.1,0-0.2,0.1-0.3,0c-0.2,0-0.4-0.4-0.4-0.7c0-0.2,0-0.4,0-0.7c0,0,0-0.1,0-0.1c0-0.1,0.4-0.3,0.5-0.3c0.1,0,0.3,0.3,0.4-0.1
					c0,0,0,0,0,0c0.1,0,0.3,0,0.4,0.1c0,0,0.1,0,0.1,0c0.1,0,0.2,0.1,0.2,0.2c0,0.2,0.1,0.4,0.2,0.5c0-0.1,0-0.2,0-0.3
					c0-0.1-0.1-0.3-0.1-0.4c-0.1-0.2,0-0.3,0.1-0.4c0.1-0.1,0.3-0.2,0.4-0.3c0.1-0.1,0.1-0.2,0.1-0.3c0-0.1,0-0.2,0-0.3c0,0,0,0,0,0
					c0,0.1,0,0.1,0.1,0.2c0.1-0.4,0.3-0.6,0.5-0.6c0-0.1,0-0.3,0.1-0.3c0.2-0.1,0.4-0.2,0.6-0.3c0,0,0,0,0,0.1c0,0-0.1,0.1-0.1,0.1
					c0,0,0,0.1,0,0.1c0,0,0.1,0,0.1,0c0.2-0.1,0.4-0.2,0.6-0.3c0,0,0-0.1-0.1-0.2c-0.1,0.1-0.1,0.3-0.2,0.2c-0.1,0-0.2,0-0.2-0.3
					c0,0,0,0-0.1-0.1c0,0,0.1-0.1,0.2-0.1c0,0,0,0,0-0.1c-0.3-0.1-0.5,0.1-0.7,0.3c0.2-0.3,0.4-0.5,0.7-0.4c0.2,0,0.3,0,0.5,0
					c0.1,0,0.2-0.1,0.3-0.1c0,0,0,0,0,0c0.1-0.1,0.1-0.2,0.1-0.3c-0.2-0.1-0.3-0.2-0.5-0.3c-0.1,0-0.2-0.1-0.2-0.3
					c0,0,0-0.1-0.1-0.1c-0.1-0.1-0.2-0.3-0.3-0.4c0,0.1-0.1,0.2-0.1,0.2c-0.1,0.1-0.2,0.2-0.2,0.1c-0.1,0-0.2-0.1-0.2-0.3
					c0-0.1-0.1-0.1-0.1-0.1c0,0-0.1,0-0.1-0.1c-0.2-0.2-0.5-0.1-0.7-0.1c0,0,0,0,0,0c0,0.1,0,0.2,0.1,0.4c0,0-0.1,0.1-0.1,0.1
					c0.1,0.1,0.2,0.3,0.2,0.4c-0.1,0.1-0.2,0.2-0.3,0.4c0,0,0,0.1,0.1,0.2c0,0.1,0,0.2,0,0.2c0,0-0.1,0.1-0.2,0
					c-0.1-0.1-0.2-0.3-0.2-0.5c-0.2-0.1-0.4-0.1-0.6-0.2c-0.2-0.1-0.3-0.2-0.5-0.1c-0.1-0.1-0.1-0.2-0.2-0.2
					c-0.1-0.1-0.2-0.2-0.1-0.3c0.1-0.2,0.2-0.3,0.4-0.3c0,0,0-0.1,0-0.1c0.1,0,0.1,0,0.2-0.1c0.1-0.1,0.2-0.1,0.2-0.2
					c0,0,0.1-0.1,0.1-0.1c0,0,0-0.1,0-0.1c0.2,0.1,0.4,0.1,0.6-0.1c0-0.1-0.1-0.1-0.1-0.1c0,0,0.1-0.1,0.1-0.1c0,0-0.1-0.1-0.1-0.1
					c0,0-0.1,0-0.2-0.1h-0.2c0,0.1,0,0.1-0.1,0.2c0,0-0.1,0.1-0.1,0.1c0,0.2,0,0.2-0.1,0.1c0,0,0-0.1-0.1-0.2
					c-0.1-0.1-0.2-0.1-0.2,0c-0.1-0.1-0.2-0.1-0.2-0.2c0,0,0,0,0-0.1c-0.1-0.1-0.2-0.2-0.3-0.3c0,0,0.1-0.1,0.1-0.1
					c0.1,0,0.2-0.1,0.3-0.1c0,0,0-0.1,0-0.1c-0.2,0-0.3,0-0.5,0c-0.1,0-0.2,0.1-0.1,0.2c0.1,0.1,0,0.2,0,0.2c0,0,0,0.1,0,0.1
					c0,0,0,0.1,0.1,0.1c0.1,0.1,0.2,0.1,0.2,0.1c0,0,0,0,0,0.1c-0.1,0-0.1,0.1-0.2,0.1c0,0,0,0.1,0,0.1c0,0,0,0,0,0
					c-0.1-0.1-0.1-0.1-0.2-0.2c0,0,0.1,0,0.1-0.1c-0.1-0.1-0.2-0.2-0.3-0.1c0,0-0.1,0-0.1,0.1c0.1,0,0.1,0,0.2,0.1
					c-0.2,0.2-0.8,0.2-0.9-0.1c0.1,0,0.3,0,0.5,0c0-0.1-0.1-0.1-0.1-0.2h0.2c-0.2-0.1-0.4-0.1-0.5-0.5c0,0,0-0.1,0.1-0.1
					c0,0,0,0,0-0.1c-0.1,0-0.3,0.1-0.4,0.1C11,9.6,11,9.6,11,9.7c-0.2-0.2-0.5-0.1-0.7-0.1C9.9,9.3,9.5,9.3,9.1,9.3c0,0,0,0,0,0.1
					C9.1,9.4,9,9.5,9,9.6c0.3,0.3,0.5,0.1,0.8-0.1c0,0,0,0.1,0,0.1c0,0-0.1,0-0.2,0.1c0.1,0,0.2,0,0.3,0.1c0,0-0.1,0-0.1,0.1
					c0,0,0,0,0,0.1h0.6c0,0,0,0,0,0.1H9.9c0,0,0,0,0,0.1c0.2,0.1,0.4,0.2,0.5,0.2c0.1,0,0.3,0,0.5-0.1c0.1,0,0.2,0,0.2-0.1
					c0,0,0,0,0,0c-0.1,0-0.2,0.1-0.2,0.1c0,0,0,0,0,0c0.1,0,0.1,0,0.2,0c0,0.1-0.1,0.2-0.1,0.2c-0.1-0.1-0.2-0.2-0.4-0.2
					c-0.2,0-0.3,0-0.5,0c0,0,0,0,0,0c0,0,0,0,0,0c0,0,0.1,0,0.1,0c-0.1,0-0.1-0.1-0.1-0.1c-0.3,0-0.5-0.1-0.8-0.1c0,0-0.1,0-0.1,0
					c-0.1,0-0.1,0-0.2,0c0,0.1-0.1,0.1-0.2-0.1c0,0-0.1-0.1-0.1,0C8.5,10,8.3,10.1,8.1,10c-0.1,0-0.2,0-0.3,0c-0.1,0.1-0.3,0-0.4,0
					C7.2,10,7,10,6.8,10c-0.3,0-0.6,0-0.8-0.1c-0.3-0.1-0.6-0.1-0.9,0c-0.1,0-0.3,0.1-0.4,0.2c-0.1,0-0.2,0.1-0.2,0.1
					c0,0-0.1,0-0.1,0c0,0,0,0,0,0c0.2,0.1,0.4,0.2,0.5,0.3c0,0,0,0,0,0.1c-0.2,0-0.5-0.1-0.7,0.1c0.2,0.3,0.5,0.2,0.7,0.1
					c0,0.1,0,0.1,0,0.2c-0.2,0.1-0.5,0-0.6,0.3c0,0.1,0.1,0.1,0.1,0.2c0.1,0,0.1,0.1,0.2,0.1c0.1-0.1,0.2,0,0.2,0.2h0.5
					c0,0.2-0.1,0.3-0.3,0.3c-0.1,0.1-0.2,0.1-0.3,0.2c0.4,0,0.7-0.3,1.1-0.5c-0.1,0-0.1,0-0.1,0c0.2-0.1,0.3-0.4,0.4-0.3
					c-0.1,0.1-0.1,0.2-0.2,0.3c0,0,0,0,0,0c0.1,0,0.3,0,0.3-0.1c0.1-0.2,0.2-0.1,0.3,0c0.1,0,0.2,0,0.3,0.1c0.3,0,0.6,0.2,0.9,0.5
					c0,0,0,0,0,0c0-0.1,0-0.1,0-0.1C8,11.9,8,11.8,8,11.8c0,0,0,0,0,0C8,11.9,8,12,8,12C8,12,8,12.1,8.1,12.1c0,0,0.1,0.1,0.1,0.1
					c0.1-0.1,0.2,0,0.2,0.1c0,0,0,0.1,0.1,0.1c0.1,0.1,0.2,0.2,0.3,0.3c0,0.1-0.1,0.1-0.1,0.1c0.2,0.1,0.3,0.2,0.5,0.3
					c0,0,0,0.1,0,0.1c0.1,0.2,0,0.5,0,0.7c0,0.2,0,0.4,0,0.5c0.1,0.2,0.2,0.4,0.3,0.6c0.1,0.1,0.2,0.2,0.3,0.3
					c0.1,0,0.2,0.2,0.2,0.3c0.1,0.2,0.2,0.3,0.3,0.5c0,0.1,0,0.1,0,0.2c0,0.1,0.1,0.1,0.1,0.1c0,0,0.1,0.1,0.1,0.1
					c0,0.3,0.2,0.3,0.3,0.4c0-0.1,0-0.1,0-0.2c0-0.1-0.1-0.2-0.1-0.3c-0.1-0.2-0.2-0.4-0.3-0.6c0-0.1-0.1-0.2-0.1-0.3
					c0,0,0,0,0.1-0.1c0.1,0.1,0.1,0.1,0.2,0.2c0.2,0.2,0.3,0.5,0.4,0.7c0.1,0.1,0.2,0.2,0.3,0.4c0.1,0.1,0.1,0.2,0.1,0.3
					c0,0.1,0,0.2,0.1,0.2c0.3,0.2,0.6,0.4,0.9,0.5c0,0,0.1,0,0.1,0c0.1-0.1,0.2,0,0.3,0.1c0.1,0.1,0.2,0.2,0.3,0.2
					c0.1,0.1,0.3,0.1,0.4,0.3c0,0.1,0,0.1,0.1,0.2c0,0,0,0.1,0,0.1c0.2,0.1,0.3,0.2,0.5,0.4c0,0,0.1,0,0.1,0c0-0.1,0.1-0.1,0.1-0.2
					c0,0.1,0.1,0.1,0.1,0.2c0,0,0,0,0,0.1c0.2,0.4,0.1,0.8-0.2,1c-0.2,0.1-0.2,0.5,0,0.6C14,21.1,14,21.3,14,21.5
					c0,0.1,0.1,0.1,0.2,0.2c0.1,0.2,0.2,0.4,0.3,0.7c0,0.1,0.1,0.3,0.1,0.4c0.1,0.1,0.2,0.2,0.3,0.3c0.2,0.1,0.3,0.2,0.3,0.5
					c0,0.2,0,0.3,0,0.5c0,0.3-0.1,0.6-0.1,0.9c0,0.2,0,0.3,0,0.5c0,0.1,0,0.1,0,0.2c-0.1,0.3-0.3,0.5-0.2,0.9c0,0,0,0,0,0.1
					c0,0.2-0.1,0.3-0.1,0.5c0,0,0,0,0,0c0-0.1,0.1-0.2,0.1-0.3c0,0,0,0,0.1,0c0,0.2-0.1,0.4-0.1,0.6c0-0.1,0-0.2,0-0.2
					c-0.1,0.1-0.1,0.3-0.2,0.4c0,0,0.1,0,0.1,0c-0.1,0.2-0.1,0.4-0.1,0.7c0,0,0.1,0,0.1,0c0,0.4,0.5,0.8,1,0.5
					c-0.1-0.1-0.3-0.2-0.4-0.4c0,0,0.1,0,0.1,0c0-0.1,0-0.2,0-0.3c0.1-0.1,0.2-0.2,0.3-0.4c0,0,0-0.1,0-0.1
					c-0.1-0.1-0.1-0.1-0.3-0.2c0.3-0.2,0.5-0.4,0.3-0.8c0.3,0.1,0.3,0.1,0.4-0.3c0.1,0,0.3,0,0.4-0.1c0.1,0,0.1-0.1,0.2-0.2
					c0,0,0-0.1,0-0.2c0-0.1-0.1-0.2-0.1-0.3c0.1,0,0.1,0,0.2,0.1c0.1,0.1,0.3,0.1,0.4-0.1c0.1-0.3,0.3-0.5,0.5-0.8
					c0-0.1,0.1-0.2,0.1-0.3c0-0.1,0-0.2,0-0.2c0.2-0.1,0.3-0.3,0.5-0.4c0.2-0.1,0.3-0.1,0.4-0.3c0.1-0.3,0.2-0.6,0.2-0.9
					c0-0.1,0-0.2,0-0.3c0.1-0.2,0.3-0.4,0.4-0.6C19.3,21.8,19.3,21.7,19.3,21.5z"/>
				<path fill="#57C0EC" d="M35,23c-0.1-0.1-0.2-0.3-0.3-0.4c-0.1-0.2-0.1-0.3-0.3-0.4c-0.1-0.1-0.1-0.1-0.1-0.3
					c0-0.2-0.1-0.4-0.1-0.5c-0.1-0.1-0.1-0.2-0.2-0.3c0-0.1-0.1-0.2-0.1-0.3c0,0.1-0.1,0.2-0.1,0.3c0,0.2,0,0.4-0.1,0.6
					c0,0-0.1,0.1-0.1,0.1c-0.2-0.1-0.3-0.3-0.5-0.4c0.1-0.1,0.1-0.3,0.2-0.4c-0.2,0-0.3-0.1-0.4-0.1c0,0-0.1,0.1-0.1,0.1
					c-0.2,0-0.3,0.2-0.3,0.4c-0.1,0-0.1-0.1-0.2-0.1c0,0-0.1-0.1-0.1,0c-0.1,0.1-0.2,0.2-0.2,0.3c0,0.1-0.1,0.1-0.1,0.2
					c0,0,0-0.1-0.1-0.2c0,0.2-0.1,0.3-0.1,0.3c-0.1,0.3-0.4,0.2-0.5,0.3c-0.1,0.1-0.2,0.2-0.4,0.2c0,0,0,0.1,0,0.2
					c0,0.2,0,0.4,0,0.6c0,0.2,0.1,0.4,0.2,0.6c0.1,0.2,0.1,0.3,0,0.5c0.2,0.2,0.3,0.2,0.5,0.1c0.1,0,0.1-0.1,0.2-0.1
					c0.2,0,0.3,0,0.5-0.2c0.1-0.1,0.3-0.1,0.4-0.1c0.3-0.1,0.7-0.1,0.9,0.4c0.1-0.1,0.2-0.2,0.3-0.3c0,0.2-0.1,0.3-0.1,0.4
					c0,0,0,0,0,0c0,0,0.1-0.1,0.1-0.2c0,0.1,0,0.2,0.1,0.2c0,0,0,0.1,0.1,0.2c0,0,0,0.1,0.1,0.1c0.1,0.1,0.4,0.1,0.5,0
					c0.2,0.3,0.3-0.1,0.4,0c0,0,0.1,0,0.1-0.1c0,0,0-0.1,0-0.1c0.1-0.2,0.1-0.4,0.2-0.5c0.1-0.2,0.2-0.4,0.2-0.7
					C35.2,23.4,35.2,23.2,35,23z"/>
				<path fill="#57C0EC" d="M43.9,10.1c-0.3-0.1-0.7-0.1-1.1-0.2c0,0.1,0,0.1,0.1,0.2c-0.1,0-0.2-0.1-0.3-0.1c0,0,0,0,0,0
					c0,0,0.1,0,0.1,0c0,0-0.1,0-0.1,0c-0.1,0-0.2,0-0.4,0.1c-0.1,0-0.3,0-0.4,0c-0.1,0-0.2,0-0.2-0.1c0-0.2-0.1-0.2-0.2-0.2
					c-0.2,0-0.3,0-0.5,0c-0.1,0-0.2,0-0.2-0.1c-0.2,0-0.4-0.1-0.5-0.1c-0.1,0-0.2,0-0.2,0c-0.2,0-0.4,0-0.6,0c0,0.1,0,0.1,0,0.2
					c-0.2,0-0.3-0.1-0.4,0c-0.2,0.1-0.4-0.1-0.5,0.1c0,0-0.1,0-0.1,0c-0.1,0-0.2-0.1-0.2-0.2c0,0,0.1-0.1,0.1-0.1
					c0,0-0.1-0.1-0.1-0.1c-0.1,0-0.3-0.1-0.4-0.1c0,0-0.1,0-0.1,0c0,0-0.1,0.1-0.1,0.1c-0.2,0-0.4-0.1-0.6-0.1c-0.2,0-0.4,0-0.5,0
					c-0.1,0-0.2-0.1-0.3,0c-0.1,0-0.3,0.1-0.4,0.2c0,0,0,0,0-0.1c0.3-0.2,0.6-0.2,0.8-0.4c0,0,0-0.1,0-0.1c-0.2,0-0.4,0-0.6-0.1
					c-0.1,0-0.2,0-0.3-0.1c-0.2-0.1-0.3-0.1-0.5,0C34.7,9,34.5,9,34.4,9.1c-0.3,0.1-0.7,0.1-1,0.1c-0.1,0-0.1,0.1,0,0.2h-0.7
					c0,0.3,0.2,0.1,0.2,0.3c-0.2-0.1-0.4-0.1-0.6-0.2c0,0.1,0,0.1,0.1,0.1c-0.1,0-0.1,0-0.2,0c0,0,0,0,0,0c0.1,0,0.1,0.1,0.2,0.1
					c0,0,0,0,0,0c-0.1,0-0.2,0-0.3,0V9.6c-0.1,0.1-0.2,0.1-0.2,0.2c0,0.1,0.1,0.1,0.1,0.1c0,0,0,0,0,0c0,0.1,0,0.2,0,0.2
					c0.1,0,0.1,0,0.2,0c0,0,0,0,0,0c-0.1,0-0.1,0-0.2,0.1c0,0.2-0.2,0.4-0.5,0.3c0.2,0,0.3-0.1,0.4-0.3c0,0,0,0,0,0
					c0-0.2,0-0.3-0.1-0.5c0,0,0-0.1,0.1-0.1c-0.2-0.1-0.2-0.1-0.6,0.2c0,0.1,0,0.2,0,0.2c0.1,0,0.1,0.1,0.2,0.1c0,0,0,0,0,0.1
					c-0.3-0.1-0.6-0.3-1-0.2c0,0.1,0,0.1,0.1,0.1c-0.1,0-0.1,0.1-0.1,0.1c-0.1,0-0.1-0.1-0.1-0.1c-0.2,0.1-0.5,0-0.7,0.1
					c-0.2,0-0.3,0.1-0.4,0.2c-0.1,0.1-0.2,0.1-0.4,0c0.1,0,0.1-0.1,0.2-0.1c0,0,0,0,0,0c-0.1,0-0.2,0-0.3-0.1c0,0.1,0,0.2,0,0.3
					c0,0,0,0.1-0.1,0.1c-0.1,0-0.3,0-0.5,0.1c0,0.1,0.1,0.1,0.1,0.2c-0.2,0-0.3-0.1-0.4-0.1c0,0,0,0,0,0.1c0,0,0.1,0.1,0.2,0.1
					c-0.1,0.1-0.4,0-0.4-0.1c0-0.2-0.1-0.2-0.2-0.2c0,0-0.1,0-0.1-0.1c0.3,0,0.7,0.3,1,0c-0.4-0.3-0.9-0.3-1.3-0.4
					c0,0,0.1,0,0.1-0.1c0,0,0,0,0-0.1c-0.2,0-0.4,0-0.6,0c0,0,0,0,0-0.1c0,0-0.1,0-0.1,0c-0.2,0.1-0.4,0.2-0.6,0.1
					c-0.1,0-0.2,0.1-0.2,0.1c0,0.2-0.1,0.1-0.1,0.1c0,0-0.1,0-0.1,0c0,0,0,0,0,0c0,0,0.1,0,0.1,0c-0.1,0.2-0.3,0.3-0.4,0.5
					c0,0-0.1,0.1-0.1,0.1c-0.2,0.1-0.4,0.2-0.6,0.3c-0.1,0.1-0.2,0.2-0.1,0.3c0,0.1,0,0.2,0.1,0.3c0.2,0.2,0.4-0.1,0.6-0.1
					c0,0.1,0.1,0.2,0.1,0.2c0,0.1,0.1,0.2,0.1,0.3c0.1,0.2,0.2-0.1,0.3-0.1c0,0,0,0,0.1,0c0,0,0.1-0.1,0.1-0.1
					c0-0.2,0.1-0.3,0.2-0.4c0,0,0,0,0-0.1c0,0,0-0.1-0.1-0.1c-0.2-0.1-0.2-0.2,0-0.4c0.1-0.1,0.1-0.1,0.2-0.1c0,0,0.1-0.1,0.1-0.1
					c0.1-0.2,0.3-0.3,0.5-0.1c-0.1,0.1-0.2,0.1-0.3,0.2c-0.1,0.1-0.3,0.1-0.2,0.4c0,0,0,0.1,0,0.1c0.1,0.1,0.2,0.1,0.4,0.1
					c0.2-0.1,0.4-0.1,0.6,0c-0.3,0-0.5,0.1-0.8,0.1c0,0.1,0,0.1,0,0.1c0.1,0,0.1,0.1,0.1,0.2c0,0-0.1,0-0.1,0c-0.1,0-0.1,0-0.2,0
					c0,0-0.1,0.1-0.1,0.2c0,0,0,0.1,0,0.2c-0.1,0-0.2,0.1-0.3,0.1c-0.1-0.1-0.2,0-0.3,0c-0.1,0-0.2,0-0.3,0c-0.1,0-0.1,0-0.2,0
					c-0.1,0-0.2,0-0.3-0.1c0-0.2,0.1-0.3,0.1-0.4c0,0,0,0,0,0c-0.1,0.1-0.2,0.1-0.2,0.2c0,0.1,0,0.2,0.1,0.4c0,0-0.1,0-0.1,0
					c-0.2,0-0.3,0.1-0.5,0.3c0,0.1-0.1,0.1-0.2,0.1c0,0-0.1,0-0.1,0.1c-0.1,0.2-0.2,0.3-0.4,0.2c0,0.2,0,0.2-0.1,0.2
					c-0.1,0-0.1,0-0.2,0c0,0.1,0,0.1,0.1,0.1c0.1,0.1,0.2,0.1,0.3,0.2c0,0.1,0,0.2,0,0.4c0,0-0.1,0.1-0.2,0.1c-0.1,0-0.2,0-0.3,0
					c-0.1,0-0.2,0-0.3,0c0,0.3,0,0.5,0,0.7c0,0,0,0,0,0c0,0.1,0,0.2,0.1,0.3c0.1,0,0.2,0,0.2,0c0.1,0.2,0.2,0.1,0.3,0
					c0,0,0.1,0,0.1,0c0.1,0,0.1,0,0.2-0.1c0.1-0.1,0.2-0.1,0.2-0.4c0-0.1,0.1-0.2,0.2-0.3c0.1-0.1,0.2-0.1,0.2-0.2
					c0-0.2,0.1-0.2,0.2-0.2c0.2,0.1,0.3,0,0.4-0.1c0.1-0.1,0.2,0,0.2,0.1c0.1,0.1,0.2,0.3,0.4,0.3c0.2,0.1,0.3,0.3,0.3,0.5
					c0.1-0.1,0.1-0.1,0.1-0.2c0-0.1,0-0.1,0-0.2c0.1,0,0.1,0,0.2,0c0,0,0,0,0-0.1c-0.2-0.1-0.4-0.2-0.6-0.5c0,0,0,0,0,0
					c0-0.1-0.1-0.1-0.1-0.2c0,0,0.1-0.1,0.1-0.1c0,0.1,0,0.1,0.1,0.1c0.1-0.1,0.1,0.1,0.2,0.1c0,0,0.1,0.1,0.1,0.1
					c0.1,0.1,0.2,0.1,0.3,0.2c0,0,0.1,0.1,0.1,0.1c0,0.1,0.1,0.2,0.1,0.3c0,0.1,0.1,0.1,0.1,0.2c0,0.2,0.1,0.2,0.2,0.2
					c0.1-0.1,0.1-0.2,0.1-0.2c-0.1-0.1-0.1-0.2-0.2-0.3c0.1,0,0.1,0,0.2,0c0.1,0,0.2-0.1,0.3,0c0.1,0,0.1,0.2,0.1,0.3
					c0,0.2,0.3,0.4,0.4,0.4c0.1-0.1,0.2-0.1,0.3,0c0,0,0.1,0,0.1,0c0.1,0,0.2-0.1,0.3-0.1c-0.1,0.3-0.1,0.5-0.2,0.7
					c0,0.2-0.2,0.2-0.3,0.2c-0.1,0-0.2,0-0.2,0c0,0-0.1,0-0.1,0c-0.2-0.1-0.5-0.2-0.7-0.3c-0.2-0.1-0.3,0-0.3,0.2
					c0,0.1-0.1,0.2-0.2,0.1c-0.1,0-0.2-0.1-0.3-0.1c0,0-0.1-0.1-0.1-0.1c-0.1-0.1-0.2-0.1-0.3-0.2c-0.1-0.1-0.2-0.1-0.4-0.1
					c0,0,0,0,0-0.1c0.2-0.1,0.1-0.3,0.1-0.5c-0.1,0-0.3,0-0.4,0c-0.2,0-0.3,0-0.5,0c-0.1,0-0.2,0-0.4,0.1c-0.2,0.2-0.5,0.2-0.7,0.1
					c-0.1,0.1-0.2,0.2-0.3,0.4c-0.1,0.1-0.2,0.2-0.2,0.3c0,0.3-0.1,0.4-0.3,0.5c0,0-0.1,0.1-0.1,0.1c-0.1,0.3-0.3,0.5-0.4,0.8
					c0,0,0,0.1,0,0.2c0.1,0.3,0.1,0.6,0,0.9c0,0.1,0,0.2,0,0.3c0,0,0,0.1,0.1,0.1c0.2,0.2,0.3,0.3,0.4,0.6c0,0.1,0.1,0.1,0.1,0.1
					c0.1,0.1,0.2,0.2,0.3,0.3c0.1,0.1,0.2,0.2,0.4,0.1c0,0,0.1,0,0.1,0c0.2,0,0.5,0.1,0.7-0.1c0.1-0.1,0.2-0.1,0.3-0.1
					c0.1,0,0.2,0,0.2,0.2c0,0.1,0.1,0.1,0.2,0.1c0,0,0.1,0,0.1,0c0.1,0,0.2,0.1,0.2,0.3c0,0.2,0,0.3-0.1,0.4c-0.1,0.2,0,0.3,0.1,0.4
					c0.3,0.3,0.3,0.8,0.4,1.3c0,0.1,0,0.1,0,0.2c-0.1,0.2-0.1,0.4-0.2,0.6c0,0.1,0,0.3,0.1,0.4c0.1,0.3,0.2,0.5,0.2,0.8
					c0,0.2,0.1,0.4,0.1,0.6c0.1,0.2,0.2,0.4,0.3,0.6c0,0,0,0.1,0,0.2c0,0.2,0.1,0.4,0.3,0.3c0.1,0,0.3-0.1,0.4-0.1
					c0.2,0,0.4-0.1,0.6-0.3c0.1-0.2,0.2-0.3,0.3-0.5c0.1-0.1,0.1-0.2,0.1-0.3c0-0.2,0-0.2,0.1-0.2c0.2-0.1,0.2-0.2,0.2-0.5
					c0-0.1,0-0.1-0.1-0.2c0,0,0-0.1,0-0.1c0.1-0.1,0.3-0.3,0.4-0.4c0.1-0.1,0.2-0.2,0.2-0.4c0-0.3,0-0.5-0.1-0.8
					c-0.1-0.3-0.1-0.7,0.1-1c0.1-0.1,0.2-0.3,0.3-0.4c0.1-0.2,0.3-0.3,0.4-0.4c0.3-0.3,0.4-0.7,0.6-1.1c0-0.1,0-0.2,0-0.3
					c-0.3,0.1-0.5,0.2-0.7,0.2c-0.1,0-0.1-0.1-0.2-0.2c0.1-0.1,0-0.1,0-0.2c-0.1-0.1-0.2-0.2-0.3-0.3c0-0.1-0.1-0.1-0.1-0.2
					c0-0.1-0.1-0.2-0.1-0.3c0,0-0.1-0.1-0.1-0.1c0-0.4-0.2-0.6-0.3-0.9c-0.1-0.2-0.2-0.4-0.2-0.6c0,0,0,0,0,0c0,0.1,0.1,0.2,0.2,0.2
					c0-0.1,0-0.1,0.1-0.1c0,0.1,0.1,0.1,0.1,0.2c0.1,0.3,0.4,0.5,0.4,1c0,0,0,0.1,0,0.1c0.1,0.2,0.2,0.3,0.3,0.5c0,0.1,0,0.1,0,0.2
					c0,0.1,0,0.3,0.1,0.4c0,0,0.1,0.1,0.1,0.1c0.2-0.1,0.4-0.2,0.5-0.3c0.2-0.1,0.3-0.2,0.5-0.4c0.1-0.1,0.2-0.1,0.3-0.1
					c0.2-0.2,0.3-0.5,0.5-0.7C30.1,17.1,30,17,30,17c-0.2,0-0.3-0.1-0.2-0.4c-0.1,0.1-0.1,0.1-0.2,0.2c-0.1,0.2-0.2,0.1-0.3,0.1
					c-0.1,0,0-0.2-0.1-0.2c0,0,0,0,0-0.1c0,0.1-0.1,0.1-0.1,0.1c-0.1-0.1-0.1-0.2-0.2-0.3c-0.1-0.1-0.1-0.2-0.2-0.3
					c0.2-0.2,0.2-0.2,0.3,0c0.2,0.3,0.4,0.5,0.7,0.3c0,0.3,0.2,0.3,0.4,0.3c0.2,0,0.4,0,0.6,0c0.1,0,0.2,0,0.2,0.1
					c0.1,0.1,0.2,0.3,0.4,0.3c-0.1,0-0.1,0.1-0.2,0.1c0.1,0.1,0.2,0.2,0.2,0.2c0.1,0,0.1-0.1,0.2-0.2c0,0.1,0,0.3,0,0.4
					c0.1,0.3,0.2,0.7,0.2,1c0,0.2,0.1,0.4,0.2,0.5c0,0.1,0.1,0.1,0.2,0.1c0.1-0.2,0.2-0.3,0.2-0.5c0-0.2,0-0.3,0-0.5
					c0,0,0-0.1,0-0.1c0.2-0.2,0.5-0.4,0.7-0.7c0,0,0.1-0.1,0.1-0.1c0-0.2,0.1-0.1,0.2-0.2c0.1,0,0.2-0.1,0.4-0.1
					c0,0.1,0.1,0.2,0.1,0.3c0.2,0.2,0.3,0.4,0.2,0.7c0.1,0.1,0.1,0.1,0.3-0.2c0,0.3,0.2,0.6,0.1,1c0,0.2,0,0.3,0.1,0.5
					c0.1,0.1,0.1,0.2,0.1,0.3c0.1,0.3,0.2,0.5,0.4,0.6c0-0.2-0.1-0.4-0.1-0.5c0,0,0-0.1,0-0.1c-0.1-0.2-0.3-0.3-0.4-0.5
					c0-0.1-0.1-0.2,0-0.3c0-0.1,0-0.2,0.1-0.3c0,0,0-0.1,0.1-0.1c0.1,0.1,0.2,0.3,0.3,0.4c0.1,0.1,0.2,0.1,0.2,0.3
					c0.2-0.1,0.3-0.2,0.4-0.4c0,0,0.1-0.1,0.1-0.2c0-0.2,0-0.5-0.2-0.6c-0.1-0.1-0.1-0.2-0.2-0.3c0,0,0-0.1,0-0.2
					c0.1-0.2,0.3-0.3,0.4-0.3c0,0.1,0,0.1,0,0.2c0.1-0.1,0.1-0.1,0.1-0.2c0.2-0.1,0.4-0.1,0.5-0.2c0,0,0.1,0,0.1-0.1
					c0.3-0.2,0.4-0.5,0.5-0.8c0.1-0.1,0.1-0.2,0-0.3c0-0.1,0.1-0.2,0-0.3c-0.1-0.2-0.2-0.3-0.3-0.5c0.1-0.1,0.2-0.2,0.4-0.3h-0.4
					c0,0-0.1-0.1-0.1-0.1c0,0,0-0.1,0-0.1c0,0,0,0,0.1-0.1c0,0,0.1-0.1,0.1-0.1c0.1,0,0.2-0.3,0.3-0.1c0,0.1,0,0.1-0.1,0.2
					c0.2-0.1,0.3-0.2,0.4,0c0,0.1,0,0.1,0,0.2c0.4,0,0.1,0.4,0.2,0.6c0.1-0.1,0.3-0.1,0.3-0.2c0.1-0.2-0.1-0.4-0.2-0.6
					c0,0,0-0.1,0-0.1c0.1-0.1,0.2-0.1,0.2-0.3c0-0.1,0.2-0.2,0.3-0.2c0.1,0.1,0.2,0,0.3-0.1c0.2-0.3,0.6-0.5,0.6-1.1
					c0,0,0-0.1,0-0.1c0-0.1,0-0.2,0-0.3c-0.1-0.1-0.1-0.2-0.3-0.1c-0.1,0-0.1,0-0.2,0c-0.1,0-0.1-0.1-0.2-0.1
					c0.1-0.1,0.3-0.2,0.4-0.3c0.2-0.2,0.4-0.4,0.7-0.4c0.1,0,0.1,0,0.2,0c0.2,0,0.3,0,0.5,0c0,0,0.1,0.1,0.1,0.1c0.1,0,0.2,0,0.3,0
					c0,0,0,0,0,0c0,0,0-0.1,0.1-0.1c0.2-0.2,0.4-0.3,0.6-0.2c0,0,0,0.1,0,0.1c0,0,0.1,0,0.1,0c0,0,0.1,0,0.1-0.1
					c0.1-0.1,0.2-0.2,0.3-0.2c0,0,0,0.1,0,0.1c-0.1,0.1-0.2,0.2-0.3,0.3c-0.2,0.1-0.3,0.2-0.5,0.3c-0.1,0.1-0.2,0.3-0.2,0.4
					c0,0.2,0.1,0.4,0.1,0.6c0.1-0.1,0.1-0.1,0.2-0.2c0.1-0.2,0.2-0.4,0.4-0.4c0-0.2,0-0.2,0.1-0.2c0-0.1,0-0.2,0-0.2
					c0,0-0.1,0-0.1,0c0.1-0.3,0.3-0.4,0.5-0.4c0.2,0,0.3-0.1,0.5,0c0,0,0,0,0,0c0.3-0.2,0.6-0.4,0.9-0.3c0,0,0,0,0.1-0.1
					c-0.1-0.1-0.2-0.2-0.2-0.3c0.1,0,0.2,0,0.3,0V10.1z"/>
			</g>
		</g>
		<g>
			<path fill="#F3705B" d="M32.1,17.6c-1.3,0-2.3,1-2.3,2.3s2.3,4.1,2.3,4.1s2.3-2.8,2.3-4.1S33.4,17.6,32.1,17.6z"/>
			<g>
				<circle fill="#FFFFFF" cx="32.1" cy="19.9" r="1.3"/>
			</g>
		</g>
		<g>
			<path fill="#F3705B" d="M36.3,6.1c-1.3,0-2.3,1-2.3,2.3s2.3,4.1,2.3,4.1s2.3-2.8,2.3-4.1S37.6,6.1,36.3,6.1z"/>
			<g>
				<circle fill="#FFFFFF" cx="36.3" cy="8.4" r="1.3"/>
			</g>
		</g>
		<g>
			<path fill="#F3705B" d="M12.5,9.1c-1.3,0-2.3,1-2.3,2.3c0,1.3,2.3,4.1,2.3,4.1s2.3-2.8,2.3-4.1C14.9,10.1,13.8,9.1,12.5,9.1z"/>
			<g>
				<circle fill="#FFFFFF" cx="12.5" cy="11.4" r="1.3"/>
			</g>
		</g>
		<g>
			<path fill="#F3705B" d="M18.2,16.7c-1.3,0-2.3,1-2.3,2.3c0,1.3,2.3,4.1,2.3,4.1s2.3-2.8,2.3-4.1C20.6,17.8,19.5,16.7,18.2,16.7z"
				/>
			<g>
				<circle fill="#FFFFFF" cx="18.2" cy="19" r="1.3"/>
			</g>
		</g>
	</g>
</g>
</svg>
