<?xml version="1.0" encoding="utf-8"?>
<!-- Generator: Adobe Illustrator 18.0.0, SVG Export Plug-In . SVG Version: 6.00 Build 0)  -->
<!DOCTYPE svg PUBLIC "-//W3C//DTD SVG 1.1//EN" "http://www.w3.org/Graphics/SVG/1.1/DTD/svg11.dtd">
<svg version="1.1" id="Layer_1" xmlns="http://www.w3.org/2000/svg" xmlns:xlink="http://www.w3.org/1999/xlink" x="0px" y="0px"
	 viewBox="0 0 48 48" enable-background="new 0 0 48 48" xml:space="preserve">
<g>
	<g>
		<rect x="5.6" y="17" fill="#F3F3F3" width="33.4" height="23.1"/>
		<rect x="5.6" y="17" fill="#E8EAE9" width="33.4" height="2.7"/>
		<rect x="17.3" y="27" fill="#415A6B" width="9.9" height="13.1"/>
		<polygon fill="#66C6B9" points="44.6,17 22.3,0 0,17 		"/>
	</g>
	<g>
		<path fill="#FFD15C" d="M46.1,31.9c-1.3-0.1-2.3,0.9-2.3,2.1v-1.2c0-1.1-0.8-2.1-1.9-2.2c-1.3-0.1-2.3,0.9-2.3,2.1v-1.2
			c0-1.1-0.8-2.1-1.9-2.2c-1.3-0.1-2.3,0.9-2.3,2.1v-9.2c0-1.1-0.8-2.1-1.9-2.2C32.1,19.8,31,20.8,31,22l0,11.6l-2.1-3.1
			c-0.7-1-2-1.5-3.1-0.9c-1.2,0.6-1.6,2.2-0.9,3.4l6.2,9.5c0.9,1.7,1.4,3.6,1.5,5.6h13.6c0-1.4,0.4-2.8,1-4c0.5-1,0.7-2,0.7-3.1
			v-6.8C48,33,47.2,32,46.1,31.9z"/>
	</g>
</g>
</svg>
