<?xml version="1.0" encoding="utf-8"?>
<!-- Generator: Adobe Illustrator 18.0.0, SVG Export Plug-In . SVG Version: 6.00 Build 0)  -->
<!DOCTYPE svg PUBLIC "-//W3C//DTD SVG 1.1//EN" "http://www.w3.org/Graphics/SVG/1.1/DTD/svg11.dtd">
<svg version="1.1" id="Layer_1" xmlns="http://www.w3.org/2000/svg" xmlns:xlink="http://www.w3.org/1999/xlink" x="0px" y="0px"
	 viewBox="0 0 48 48" enable-background="new 0 0 48 48" xml:space="preserve">
<g>
	<g>
		<path fill="#40596B" d="M18.9,27.3c0-0.1,0-0.1,0-0.2c0,0,0-0.1,0-0.1c0,0,0-0.1,0-0.1c0,0,0-0.1,0-0.1L13,16.4L11.6,1.3
			c-0.1-0.6-0.6-1-1.1-0.9c-0.6,0.1-1,0.5-0.9,1.1L11,16.8c0,0.1,0.1,0.3,0.1,0.4l4.1,7.5l-6.8-4L7,8.7C7,8.2,6.4,7.8,5.9,7.8
			C5.3,7.9,4.9,8.4,5,9l1.5,12.4c0,0.3,0.2,0.6,0.5,0.8l7.2,4.2H7.6c-0.3,0-0.5,0.1-0.7,0.3l-6.5,6.6c-0.4,0.4-0.4,1,0,1.4
			c0.4,0.4,1,0.4,1.4,0L8,28.4h6.9l-6.5,4.8c-0.1,0.1-0.3,0.2-0.3,0.4L3.2,44.2c-0.2,0.5,0,1.1,0.5,1.3c0.1,0.1,0.3,0.1,0.4,0.1
			c0.4,0,0.8-0.2,0.9-0.6l4.7-10.4l8.8-6.5c0,0,0,0,0.1-0.1c0,0,0,0,0,0c0,0,0,0,0.1-0.1c0,0,0.1-0.1,0.1-0.1c0,0,0-0.1,0.1-0.1
			c0-0.1,0-0.1,0.1-0.2c0,0,0-0.1,0-0.1C18.9,27.4,18.9,27.4,18.9,27.3z"/>
		<path fill="#40596B" d="M47.7,33.3l-6.5-6.6c-0.2-0.2-0.5-0.3-0.7-0.3h-6.6l7.2-4.2c0.3-0.2,0.5-0.4,0.5-0.8L43,9
			c0.1-0.6-0.3-1.1-0.9-1.1C41.6,7.8,41,8.2,41,8.7l-1.4,11.9l-6.8,4l4.1-7.5c0.1-0.1,0.1-0.3,0.1-0.4l1.5-15.3
			c0.1-0.6-0.4-1.1-0.9-1.1c-0.6-0.1-1.1,0.4-1.1,0.9L35,16.4l-5.8,10.5c0,0,0,0.1,0,0.1c0,0,0,0.1,0,0.1c0,0,0,0.1,0,0.1
			c0,0.1,0,0.1,0,0.2c0,0.1,0,0.1,0,0.2c0,0,0,0.1,0,0.1c0,0.1,0,0.1,0.1,0.2c0,0,0,0.1,0.1,0.1c0,0,0.1,0.1,0.1,0.1
			c0,0,0,0,0.1,0.1c0,0,0,0,0,0c0,0,0,0,0.1,0.1l8.8,6.5L43,45.1c0.2,0.4,0.5,0.6,0.9,0.6c0.1,0,0.3,0,0.4-0.1
			c0.5-0.2,0.7-0.8,0.5-1.3L40,33.6c-0.1-0.2-0.2-0.3-0.3-0.4l-6.5-4.8H40l6.2,6.3c0.4,0.4,1,0.4,1.4,0
			C48.1,34.3,48.1,33.7,47.7,33.3z"/>
	</g>
	<g>
		<path fill="#40596B" d="M24,18.5c-3.1,0-6-1.8-8.1-4.9c-0.3-0.5-0.2-1.2,0.3-1.5c0.5-0.3,1.2-0.2,1.5,0.3c1.7,2.6,4,4,6.3,4
			s4.6-1.4,6.3-4c0.3-0.5,1-0.6,1.5-0.3c0.5,0.3,0.6,1,0.3,1.5C30,16.7,27.1,18.5,24,18.5z"/>
	</g>
	<path fill="#FF7058" d="M31.5,28.5c-1.4-2,0-4.3,0-6.7c0,0,0,0,0,0c0-6.2-4.4-9.4-7.5-9.4s-7.5,3.2-7.5,9.4c0,0,0,0,0,0
		c0,2.4,1.4,4.7,0,6.7c-1.4,2-2.3,4.6-2.3,7.5c0,6.5,4.4,11.7,9.8,11.7s9.8-5.2,9.8-11.7C33.8,33.1,32.9,30.5,31.5,28.5z"/>
	<path fill="#F1543F" d="M24,43.3c-4.8,0-8.8-4.1-9.6-9.5c-0.1,0.7-0.2,1.4-0.2,2.2c0,6.5,4.4,11.7,9.8,11.7s9.8-5.2,9.8-11.7
		c0-0.7-0.1-1.5-0.2-2.2C32.8,39.2,28.8,43.3,24,43.3z"/>
	<g>
		<circle fill="#F2F2F2" cx="21.2" cy="16.4" r="1.3"/>
		<circle fill="#F2F2F2" cx="26.8" cy="16.4" r="1.3"/>
	</g>
</g>
</svg>
