<?xml version="1.0" encoding="utf-8"?>
<!-- Generator: Adobe Illustrator 18.0.0, SVG Export Plug-In . SVG Version: 6.00 Build 0)  -->
<!DOCTYPE svg PUBLIC "-//W3C//DTD SVG 1.1//EN" "http://www.w3.org/Graphics/SVG/1.1/DTD/svg11.dtd">
<svg version="1.1" id="Layer_1" xmlns="http://www.w3.org/2000/svg" xmlns:xlink="http://www.w3.org/1999/xlink" x="0px" y="0px"
	 viewBox="0 0 48 48" enable-background="new 0 0 48 48" xml:space="preserve">
<g>
	<g>
		<circle fill="#F2F2F2" cx="24" cy="24" r="24"/>
		<polygon fill="#F2F2F2" points="24,24 24,24 24,24 		"/>
		<polygon fill="#F2F2F2" points="24,24 24,24 24,24 		"/>
		<polygon fill="#F2F2F2" points="24,24 24,24 24,24 		"/>
		<polygon fill="#F2F2F2" points="24,24 24,24 24,24 		"/>
		<polygon fill="#F2F2F2" points="24,24 24,24 24,24 		"/>
		<polygon fill="#F2F2F2" points="24,24 24,24 24,24 		"/>
		<path fill="#F8B64C" d="M45.1,24h-8.2c0-2.4-0.6-4.5-1.7-6.5c-1.1-2-2.8-3.6-4.7-4.7l4.1-7.1c3.2,1.9,5.9,4.5,7.7,7.7
			C44,16.6,45.1,20.2,45.1,24z"/>
		<path fill="#FF7058" d="M45.1,24c0,3.8-1,7.4-2.8,10.5c-1.8,3.2-4.5,5.9-7.7,7.7l-4.1-7.1c2-1.1,3.6-2.8,4.7-4.7
			c1.1-1.9,1.7-4.1,1.7-6.5H45.1z"/>
		<path fill="#54C0EB" d="M17.5,12.8c-2,1.1-3.6,2.8-4.7,4.7c-1.1,1.9-1.7,4.1-1.7,6.5H2.9c0-3.8,1-7.4,2.8-10.5
			c1.8-3.2,4.5-5.9,7.7-7.7L17.5,12.8z"/>
		<path fill="#84DBFF" d="M17.5,35.2l-4.1,7.1c-3.2-1.8-5.9-4.5-7.7-7.7C4,31.4,2.9,27.8,2.9,24h8.2c0,2.4,0.6,4.6,1.7,6.5
			C14,32.4,15.6,34,17.5,35.2z"/>
		<path fill="#FFD15C" d="M34.5,5.8l-4.1,7.1c-1.9-1.1-4.1-1.7-6.5-1.7c-2.4,0-4.5,0.6-6.5,1.7l-4.1-7.1C16.6,4,20.2,2.9,24,2.9
			C27.8,2.9,31.4,4,34.5,5.8z"/>
		<circle fill="#F2F2F2" cx="24" cy="24" r="12.9"/>
		<polygon fill="none" points="24,24 24,24 24,24 		"/>
		<polygon fill="none" points="24,24 24,24 24,24 		"/>
		<polygon fill="none" points="24,24 24,24 24,24 		"/>
		<polygon fill="none" points="24,24 24,24 24,24 		"/>
		<polygon fill="none" points="24,24 24,24 24,24 		"/>
		<polygon fill="none" points="24,24 24,24 24,24 		"/>
		<g>
			<path fill="#40596B" d="M25.6,21.6c1.2,0.9,1.5,2.6,0.7,3.8c-0.9,1.2-2.6,1.5-3.8,0.7c-1.2-0.9-8.2-9-8.2-9S24.3,20.7,25.6,21.6z
				"/>
			<circle fill="#FF7058" cx="24" cy="23.8" r="1.6"/>
		</g>
	</g>
	<path opacity="0.15" fill="#40596B" d="M24,4.9c11.3,0,20.5,8.9,21,20.1c0-0.3,0.1-0.7,0.1-1c0-11.6-9.4-21.1-21.1-21.1
		S2.9,12.4,2.9,24c0,0.3,0,0.7,0.1,1C3.5,13.8,12.7,4.9,24,4.9z"/>
</g>
</svg>
