<?xml version="1.0" encoding="utf-8"?>
<!-- Generator: Adobe Illustrator 18.0.0, SVG Export Plug-In . SVG Version: 6.00 Build 0)  -->
<!DOCTYPE svg PUBLIC "-//W3C//DTD SVG 1.1//EN" "http://www.w3.org/Graphics/SVG/1.1/DTD/svg11.dtd">
<svg version="1.1" id="Layer_1" xmlns="http://www.w3.org/2000/svg" xmlns:xlink="http://www.w3.org/1999/xlink" x="0px" y="0px"
	 viewBox="0 0 48 48" enable-background="new 0 0 48 48" xml:space="preserve">
<g>
	<g>
		<g>
			<g>
				<g>
					<path fill="#F3705A" d="M40.7,25.5c0-5.9-5.4-14.8-12.1-14.8s-12.1,9-12.1,14.8S22,36.1,28.6,36.1S40.7,31.4,40.7,25.5z"/>
				</g>
				<g>
					<path fill="#F05540" d="M40.7,25.5c0,5.9-5.4,10.6-12.1,10.6c-3.5,0-6.6-1.3-8.9-3.4c1.9,1,4.1,1.6,6.4,1.6
						c6.7,0,12.1-4.8,12.1-10.6c0-3.8-2.3-8.8-5.6-11.9C37.4,14.3,40.7,20.9,40.7,25.5z"/>
				</g>
				<g>
					<path fill="#F3705A" d="M30.6,12.3c0.3-2.6,5.9-7.9,5.9-7.9c-2.7-3-3.7,1.1-4.7,0.3c-2-1.7-4.3-1.5-6.4,0.2
						c-1,0.8-2.1-3.2-4.7-0.5c0,0,5.7,5.2,5.9,7.9C28,12.3,29.3,12.3,30.6,12.3z"/>
				</g>
			</g>
			<g>
				<g>
					<g>
						<path fill="#FFD15C" d="M28.6,10.9c-1.3,0-2.5-0.2-3.7-0.5c-0.3-0.1-0.5-0.4-0.4-0.7c0.1-0.3,0.4-0.5,0.7-0.4
							c2.3,0.6,4.6,0.6,6.9,0c0.3-0.1,0.6,0.1,0.7,0.4c0.1,0.3-0.1,0.6-0.4,0.7C31.1,10.7,29.9,10.9,28.6,10.9z"/>
					</g>
				</g>
				<g>
					<g>
						<path fill="#FFD15C" d="M28.6,12c-1.1,0-2.2-0.1-3.3-0.4c-0.3-0.1-0.5-0.4-0.4-0.7c0.1-0.3,0.4-0.5,0.7-0.4c2,0.5,4,0.5,6,0
							c0.3-0.1,0.6,0.1,0.7,0.4c0.1,0.3-0.1,0.6-0.4,0.7C30.8,11.8,29.7,12,28.6,12z"/>
					</g>
				</g>
			</g>
			<g>
				<g>
					<g>
						<path fill="#FFD15C" d="M27.9,18.8c1,0.5,2.2,0.5,3.2,0c-0.4-0.5-0.8-1.1-1-1.6c0.1-0.1,0.2-0.3,0.2-0.5
							c0-0.3-0.2-0.6-0.5-0.7v-5h-0.7v5c-0.3,0.1-0.5,0.4-0.5,0.7c0,0.2,0.1,0.4,0.2,0.5C28.7,17.8,28.3,18.3,27.9,18.8z"/>
					</g>
				</g>
				<g>
					<g>
						<path fill="#FFD15C" d="M25.3,25.2c1,0.5,2.2,0.5,3.2,0c-0.4-0.5-0.8-1.1-1-1.6c0.1-0.1,0.2-0.3,0.2-0.5
							c0-0.3-0.2-0.6-0.5-0.7V10.9h-0.7v11.4c-0.3,0.1-0.5,0.4-0.5,0.7c0,0.2,0.1,0.4,0.2,0.5C26,24.2,25.7,24.7,25.3,25.2z"/>
					</g>
				</g>
			</g>
		</g>
		<g>
			<g>
				<g>
					<g>
						<polygon fill="#E8EAE9" points="38.6,43 36.3,39.7 34,39.7 36.2,43 						"/>
					</g>
					<g>
						<polygon fill="#E8EAE9" points="16.4,43 18.6,39.7 16.3,39.7 14,43 						"/>
					</g>
				</g>
				<g>
					<g>
						<g>
							<path fill="#E8EAE9" d="M47,44.7H4.7C2.1,44.7,0,42.6,0,40s2.1-4.7,4.7-4.7c0.5,0,1,0.4,1,1c0,0.5-0.4,1-1,1
								C3.2,37.3,2,38.5,2,40c0,1.5,1.2,2.7,2.7,2.7H47c0.5,0,1,0.4,1,1C48,44.3,47.6,44.7,47,44.7z"/>
						</g>
					</g>
				</g>
			</g>
			<g>
				<g>
					<g>
						<g>
							<path fill="#55C0EB" d="M4.1,15.5L4.1,15.5l0.2,0.4c2.8,4.7,3.8,10.2,2.9,15.6c-0.2,1.1-0.2,2.2-0.2,3
								c0.4,3.3,3.2,5.8,6.5,5.8l26,0c2.9,0,5.8-2.3,6.5-5.1c0.3-1.4,0.5-2.8,0.1-4.1c-0.3-1-0.6-2-0.4-3c0.1-0.6,0.4-1.2,1.2-1.6
								h-3.3c-3.3,0-6,2.7-6,6v0H21.8C21.8,32.5,20.8,14.9,4.1,15.5z"/>
						</g>
					</g>
				</g>
			</g>
			<g>
				<g>
					<path fill="#F3F3F3" d="M37.7,33.5H21.8c-0.5,0-0.9-0.4-1-0.9c0-0.7-1.2-16.1-15.9-16.1c-0.3,0-0.6,0-0.8,0c0,0,0,0,0,0
						c-0.5,0-1-0.4-1-0.9c0-0.5,0.4-1,0.9-1c15.1-0.6,18.1,13.2,18.6,17h14.1c0.5-3.4,3.4-6,6.9-6H47c0.5,0,1,0.4,1,1s-0.4,1-1,1
						h-3.3c-2.8,0-5,2.2-5,5C38.7,33,38.3,33.5,37.7,33.5z"/>
				</g>
			</g>
		</g>
	</g>
</g>
</svg>
