<?xml version="1.0" encoding="utf-8"?>
<!-- Generator: Adobe Illustrator 18.0.0, SVG Export Plug-In . SVG Version: 6.00 Build 0)  -->
<!DOCTYPE svg PUBLIC "-//W3C//DTD SVG 1.1//EN" "http://www.w3.org/Graphics/SVG/1.1/DTD/svg11.dtd">
<svg version="1.1" id="Layer_1" xmlns="http://www.w3.org/2000/svg" xmlns:xlink="http://www.w3.org/1999/xlink" x="0px" y="0px"
	 viewBox="0 0 48 48" enable-background="new 0 0 48 48" xml:space="preserve">
<g>
	<g>
		<g>
			<g>
				<g>
					<path fill="#F3F3F3" d="M11.6,48L0,36.4V3c0-1.7,1.3-3,3-3h31.4c1.7,0,3,1.3,3,3v42c0,1.7-1.3,3-3,3H11.6z"/>
				</g>
			</g>
			<g>
				<g>
					<polygon fill="#8AD7F8" points="11.6,48 0,36.4 11.6,36.4 					"/>
				</g>
			</g>
		</g>
		<g>
			<g>
				<g>
					<path fill="#415A6B" d="M8.8,17.9C8.8,17.9,8.7,17.9,8.8,17.9c-0.3,0-0.5-0.3-0.5-0.6c0.7-5.2,5.2-9.1,10.4-9.1
						c5.2,0,9.7,3.9,10.4,9.1c0,0.3-0.2,0.5-0.4,0.6c-0.3,0-0.5-0.2-0.6-0.4c-0.6-4.7-4.7-8.2-9.4-8.2c-4.7,0-8.8,3.5-9.4,8.2
						C9.2,17.7,9,17.9,8.8,17.9z"/>
				</g>
				<g>
					<g>
						<rect x="7.2" y="8.2" fill="#344A5E" width="23.1" height="1"/>
					</g>
				</g>
				<g>
					<path fill="#415A6B" d="M17.3,29.1C17.3,29.1,17.3,29.1,17.3,29.1c-4.7-0.6-8.4-4.3-9-9c0-0.3,0.2-0.5,0.4-0.6
						c0.3,0,0.5,0.2,0.6,0.4c0.6,4.2,3.9,7.5,8.1,8.1c0.3,0,0.5,0.3,0.4,0.6C17.8,29,17.6,29.1,17.3,29.1z"/>
				</g>
				<g>
					<path fill="#415A6B" d="M20.1,29.1c-0.2,0-0.5-0.2-0.5-0.4c0-0.3,0.2-0.5,0.4-0.6c4.2-0.6,7.5-3.9,8.1-8.1
						c0-0.3,0.3-0.5,0.6-0.4c0.3,0,0.5,0.3,0.4,0.6C28.5,24.8,24.8,28.5,20.1,29.1C20.1,29.1,20.1,29.1,20.1,29.1z"/>
				</g>
			</g>
			<g>
				<g>
					<g>
						<g>
							<rect x="17.3" y="7.3" fill="#415A6B" width="2.7" height="2.7"/>
						</g>
					</g>
					<g>
						<g>
							<g>
								<rect x="5.8" y="7.3" fill="#415A6B" width="2.7" height="2.7"/>
							</g>
						</g>
						<g>
							<g>
								<rect x="28.9" y="7.3" fill="#415A6B" width="2.7" height="2.7"/>
							</g>
						</g>
					</g>
				</g>
			</g>
			<g>
				<g>
					<g>
						<g>
							<g>
								<g>
									<path fill="#415A6B" d="M9.3,18.1l0,1.2l-1.2,0l0-1.2L9.3,18.1 M10.1,17.4l-2.7,0l0,2.7l2.7,0L10.1,17.4L10.1,17.4z"/>
								</g>
							</g>
						</g>
					</g>
				</g>
				<g>
					<g>
						<g>
							<g>
								<g>
									<path fill="#415A6B" d="M29.3,18.1l0,1.2l-1.2,0l0-1.2L29.3,18.1 M30.1,17.4l-2.7,0l0,2.7l2.7,0L30.1,17.4L30.1,17.4z"/>
								</g>
							</g>
						</g>
					</g>
				</g>
				<g>
					<g>
						<g>
							<g>
								<g>
									<path fill="#415A6B" d="M19.3,28.1l0,1.2l-1.2,0l0-1.2L19.3,28.1 M20.1,27.4l-2.7,0l0,2.7l2.7,0L20.1,27.4L20.1,27.4z"/>
								</g>
							</g>
						</g>
					</g>
				</g>
			</g>
		</g>
		<g>
			<g>
				<path fill="#FFD15C" d="M30.4,8.6l-3.7,20.2l3.9,4.1l13.8-4.4l0.8-5.6L30.4,8.6z M36.3,26.9c-0.9,0.3-1.8-0.2-2.1-1.1
					c-0.3-0.9,0.2-1.8,1.1-2.1s1.8,0.2,2.1,1.1C37.6,25.7,37.1,26.7,36.3,26.9z"/>
			</g>
			<g>
				<path fill="#F05540" d="M47.4,29.6c-0.4-1.1-1.5-1.7-2.7-1.4L30.2,33c-1.1,0.4-1.7,1.5-1.4,2.7c0.4,1.1,1.5,1.7,2.7,1.4L46,32.3
					C47.1,31.9,47.7,30.7,47.4,29.6z"/>
			</g>
			<g>
				<g>
					
						<rect x="32.1" y="34.5" transform="matrix(0.9519 -0.3063 0.3063 0.9519 -9.634 13.9849)" fill="#F3705A" width="15.3" height="6.4"/>
				</g>
			</g>
		</g>
	</g>
</g>
</svg>
