<?xml version="1.0" encoding="utf-8"?>
<!-- Generator: Adobe Illustrator 18.0.0, SVG Export Plug-In . SVG Version: 6.00 Build 0)  -->
<!DOCTYPE svg PUBLIC "-//W3C//DTD SVG 1.1//EN" "http://www.w3.org/Graphics/SVG/1.1/DTD/svg11.dtd">
<svg version="1.1" id="Layer_1" xmlns="http://www.w3.org/2000/svg" xmlns:xlink="http://www.w3.org/1999/xlink" x="0px" y="0px"
	 viewBox="0 0 48 48" enable-background="new 0 0 48 48" xml:space="preserve">
<g>
	<g>
		<g>
			<g>
				<g>
					<g>
						<path fill="#F5B54C" d="M5.2,4.9c0,0,1.3-0.9,2.3-0.6c0,0,0.4-0.2,0.7,0c0,0,0.1-0.2,0.3-0.1c0,0,0.6-0.4,1.2,0.1
							c0,0,0.1,0.3,0.1,0.5L9.3,4.9c0,0-0.3,0.2-0.4,0.3C8.7,5.3,8.4,5.9,8.4,5.9S8.1,6.3,7.9,6.6c-0.3,0.2-2.1,3-2,3.6
							c0.1,0.6,2.3,4.1,2.3,4.1l-2.9,2.1c0,0-1.9-4-2.2-4.6c-0.3-0.5-0.7-0.9-1.4-1.1C1,10.5,0.3,9.5,1,8.8s2-1.7,2-1.7
							C4.3,6.2,4.3,5.4,5.2,4.9z"/>
					</g>
				</g>
			</g>
			<g>
				<g>
					<g>
						<path fill="#CED6E0" d="M13.5,27c0.4,1.2,1.5,4.2,2.6,6.5h9.4c-2.3-3.2-5.4-7.3-5.4-7.3s-3.4-4.1-4.6-4.5
							c-1.2-0.4-2.4-2-3-2.8c-0.5-0.7-3.4-4-4.2-4.9c-0.1-0.1-0.3-0.1-0.4,0c-0.7,0.9-1.6,1.5-2.8,1.8c-0.2,0-0.3,0.3-0.2,0.4
							l1.6,2.9c1.8,3.8,5.2,5.5,5.2,5.5S13,25.5,13.5,27z"/>
					</g>
				</g>
			</g>
		</g>
		<g>
			<g>
				<g>
					<path fill="#F5B54C" d="M38.5,21.9c0,0,0.5,0.3,0.5,0.4c0,0.2-1.6,2-1.6,2l2.7,0.9l3,1.4c-0.2-1.1,0.1-2.6,0.9-4.5l0.6-3.4
						C44.6,18.8,38.9,20.5,38.5,21.9z"/>
				</g>
			</g>
		</g>
		<g>
			<g>
				<g>
					<path fill="#F5B54C" d="M18.2,11.6c0,0-0.1,0.5,0.4,0.8c0,0,0.2,0.1,0.3,0c0,0-0.1,0.2,0.1,0.3l-0.8-0.5c0,0-0.8-0.7-1.1-1
						c-0.3-0.3-1.3-1.1-1.3-1.1c-0.2-0.3-0.7,0.1-0.5,0.4c-0.4-0.5-1,0-0.5,0.5c-0.4-0.4-1,0.3-0.6,0.7l5.9,5.3l8.8,5.4l7.5,3.3
						l2.7-2.2c0,0-1.2-0.2-2.2-0.4c-1-0.2-2.5-0.6-2.9-0.8c-0.4-0.3-2.5-1.2-2.5-1.2s-1.1-0.3-2.3-1.7c-1.2-1.4-5.5-2.9-5.5-2.9
						s-2.3-1.2-3.2-2.3c0,0-0.1-0.9-0.2-1.3c0,0,0-0.1,0-0.1c-0.2-0.3-0.4-0.7-0.6-1c-0.1-0.2-0.3-0.3-0.6-0.2c-0.1,0-0.1,0-0.2,0.1
						L18.2,11.6z"/>
				</g>
			</g>
		</g>
		<g>
			<g>
				<g>
					<g>
						<path fill="#FFD15C" d="M39.5,21.9c-0.4,0.2-0.9,0.2-1.3,0.2c-0.4,0-0.7-0.2-0.9-0.4c-0.4-0.6-0.3-0.7-0.2-1s0.1-0.6-0.1-0.8
							c0,0,0-0.3,0.3-0.3c0,0-0.2-0.1-0.2-0.4c0,0,0.3-0.4,0.3-0.6c0,0-0.3-0.4-0.4-0.5c-0.1-0.1-0.1-0.3,0.2-0.5
							c0.3-0.1,1.4-0.9,1.5-1.1c0.1-0.2,0.1-0.5,0.1-0.5s0.4-1.6,1.2-2c0.8-0.5,1.6-0.8,2.4-0.6s1.5,0.8,1.5,0.8l0.3,4.2
							C44.1,18.2,42.6,20.7,39.5,21.9z"/>
					</g>
				</g>
			</g>
			<g>
				<g>
					<g>
						
							<ellipse transform="matrix(0.5786 0.8156 -0.8156 0.5786 34.0826 -26.8816)" fill="#FFD15C" cx="43.1" cy="19.5" rx="0.7" ry="1.4"/>
					</g>
				</g>
			</g>
		</g>
		<g>
			<g>
				<g>
					<path fill="#425A6B" d="M38.5,24.7c0,0,3.2,1,3.4,3.5c0.2,2.6-2.2,4.7-2.2,4.7l-3.5-3.1L31,26.7c0,0-0.1,0.9-0.7,1.6
						c-0.6,0.8-2.1,2.7-3.3,3.3c-1.2,0.6-1.2,0.9-1.2,0.9s-1,0.4-0.5,1.1c0.5,0.8,1.8,1.7,1.9,2.4c0.1,0.7,2.1,5.8,2.6,6.5
						c0.6,0.7,0.8-0.1,0.8-0.1s4.6-6,5.8-6.5c1.2-0.5,4-2.1,4.7-2.9c0,0,0.5-0.8,0.9-1.3c0.4-0.5,1.4-1.5,1.4-3.3c0-1.8,0-2.3,0-2.3
						S42.6,24.6,38.5,24.7z"/>
				</g>
			</g>
		</g>
		<g>
			<g>
				<g>
					<path fill="#FFD15C" d="M16.3,11.9l0.6-0.1l0.2-0.1c0.3-0.1,0.6-0.1,0.8,0.1l0.6,0.5c0.1,0.1,0.2,0.2,0.2,0.4l0.1,0.6
						c0.1,0.4,0.3,0.9,0.7,1.2c0.3,0.3,0.6,0.5,0.9,0.7c0.5,0.4,2.9,1.9,4.8,2.9c1.9,0.9,3,1.5,4,2.5c1,1.1,5.6,3,5.6,3
						s1.7,0.5,2.4,0.5c0.7,0,3.1,0.6,4.3,2.4c1.2,1.7,0,4.6,0,4.6s-0.8,2.5-2.3,2.1s-2.8-3.1-2.8-3.6c0,0-5.8-3.1-7.7-4.5
						c0,0-1.2-1-2.2-1.4c-0.9-0.4-2.6-2-2.6-2l-4.4-3.8l-1.1-1c0,0-0.3-0.4-0.9-0.6c-0.6-0.2-2.3-1-3-1.7c-0.7-0.7-1.7-1.4-1.7-1.4
						c-0.3-0.2,0.1-0.7,0.4-0.4c0,0,0.7,0.4,0.8,0.5c0,0,0.8,0.5,0.8,0.5s0-0.3-0.3-0.5s-1-0.8-1-0.8l-0.8-0.9
						c-0.3-0.4,0.3-0.8,0.6-0.4l-0.6-0.6c-0.3-0.4,0.3-0.8,0.6-0.3c-0.2-0.4,0.3-0.6,0.7-0.3l2,1.5l0.9,0.5
						C16.6,12.3,16.3,12.2,16.3,11.9z"/>
				</g>
			</g>
		</g>
		<g>
			<g>
				<g>
					<path fill="#F5B54C" d="M16.3,11.9C16.3,11.9,16.3,11.9,16.3,11.9C16.3,12,16.3,12,16.3,11.9c0,0.1,0.1,0.1,0.1,0.1
						c0,0,0,0,0,0c0,0,0,0,0,0c0,0,0,0.1,0.1,0.1c0,0,0.1,0.1,0.1,0.1c0,0,0,0,0.1,0c0,0,0,0,0.1,0c0,0,0,0,0.1,0l0.1,0
						c0,0,0.1,0,0.1,0.1c0,0,0.1,0,0.1,0c0,0,0.1,0,0.1,0c0,0,0.1,0,0.1,0c0,0,0.1,0,0.1,0c0,0,0.1,0,0.1,0c0,0,0.1,0,0.1,0
						s0,0-0.1,0c0,0,0,0-0.1,0c0,0-0.1,0-0.1,0c0,0-0.1,0-0.1,0c0,0-0.1,0-0.1,0c0,0-0.1,0-0.1,0c0,0-0.1,0-0.1-0.1l-0.1,0
						c0,0,0,0-0.1,0c0,0,0,0-0.1,0c0,0,0,0-0.1,0c0,0-0.1-0.1-0.1-0.1c0,0-0.1-0.1-0.1-0.1c0,0,0,0,0,0c0,0,0,0,0,0
						C16.3,12.1,16.3,12.1,16.3,11.9C16.2,12,16.2,12,16.3,11.9C16.2,12,16.2,12,16.3,11.9L16.3,11.9z"/>
				</g>
			</g>
		</g>
		<g>
			<g>
				<g>
					<g>
						<path fill="#FFD15C" d="M4.4,4.6c0,0,1.3-0.9,2.3-0.6c0,0,0.4-0.2,0.7,0c0,0,0.1-0.2,0.3-0.1c0,0,0.6-0.4,1.2,0.1
							c0,0,0.2,0.3,0.1,0.5L8.5,4.7c0,0-0.3,0.2-0.4,0.3C7.9,5.1,7.6,5.6,7.6,5.6S7.4,6.1,7.1,6.4c-0.3,0.2-2,3-1.9,3.6
							c0.1,0.6,2.4,4.1,2.4,4.1l-2.9,2.2c0,0-2-4.1-2.3-4.6c-0.3-0.6-0.8-0.9-1.4-1.1c-0.6-0.2-1.4-1.3-0.7-2s2-1.7,2-1.7
							C3.6,6,3.5,5.1,4.4,4.6z"/>
					</g>
				</g>
			</g>
			<g>
				<g>
					<g>
						<path fill="#E8EAE8" d="M7.3,13.8c0.1-0.1,0.3-0.1,0.4,0c0.8,0.9,3.8,4.2,4.3,4.9c0.6,0.8,1.8,2.4,3,2.8s4.7,4.5,4.7,4.5
							s6.9,9,7.9,10.8c1,1.8,2.4,5.9,2.4,5.9s-0.8,1.5-4.4,1.4c-3.6-0.2-5-0.2-5.5-1.3s-2.2-5.6-3.5-7.9c-1.3-2.3-3-6.5-3.4-8
							c-0.5-1.5-1.9-2.2-1.9-2.2s-3.3-1.8-5.3-5.6l-1.6-3c-0.1-0.2,0-0.4,0.2-0.4C5.7,15.4,6.6,14.8,7.3,13.8z"/>
					</g>
				</g>
			</g>
		</g>
	</g>
	<g>
		<g>
			<g>
				<path fill="#425A6B" d="M39.8,14c0,0,1.5-0.7,2.8,0c1.3,0.7-1,1.5-1,1.5s-0.4,0.5,0.3,1.2c0.7,0.7,0,1.9,0,1.9l0.4,0.2
					c0,0,1.1-0.6,1.9,0c0.8,0.6-0.7,2.4-0.8,2.7c-0.1,0.3,0.4,1.3,0.9,1.5c0.5,0.2,3-0.7,3.5-2.5c0.4-1.8,0.5-4.4-0.7-6
					c-1.2-1.6-3.2-2.1-4.9-2.1C40.5,12.5,39.6,13.3,39.8,14z"/>
			</g>
		</g>
	</g>
	<g>
		<g>
			<g>
				<path fill="#425A6B" d="M46.5,21.8c-0.2,0.8,0.2,1.6,0.5,2.3c0.4,0.7,0.9,1.4,0.9,2.2c0.1,0.9-0.3,1.8-0.9,2.5
					c-0.6,0.7-1.3,1.3-1.9,2c-0.6,0.7-1.2,1.5-1.3,2.4c-0.5-0.5-0.7-1.3-0.6-2c0.1-0.7,0.3-1.4,0.6-2.1c0.3-0.7,0.6-1.3,0.7-2
					c0.2-0.9,0-1.8,0.3-2.7c0.2-0.7,0.6-1.3,1.2-1.8"/>
			</g>
		</g>
	</g>
	<g>
		<g>
			<g>
				<path fill="#F05640" d="M45.4,23.2c0.5-0.2,0.9-0.2,1.2-0.1c0.2-0.4,0.3-0.7,0.1-1c-0.5,0.3-0.9,0.6-1.4,0.8
					C45.2,23,45.3,23.1,45.4,23.2z"/>
			</g>
		</g>
	</g>
</g>
</svg>
