<?xml version="1.0" encoding="utf-8"?>
<!-- Generator: Adobe Illustrator 18.0.0, SVG Export Plug-In . SVG Version: 6.00 Build 0)  -->
<!DOCTYPE svg PUBLIC "-//W3C//DTD SVG 1.1//EN" "http://www.w3.org/Graphics/SVG/1.1/DTD/svg11.dtd">
<svg version="1.1" id="Layer_1" xmlns="http://www.w3.org/2000/svg" xmlns:xlink="http://www.w3.org/1999/xlink" x="0px" y="0px"
	 viewBox="0 0 48 48" enable-background="new 0 0 48 48" xml:space="preserve">
<g>
	<path fill="#CDD6E0" d="M48,15.9v29.9c0,0.6-0.3,1.1-0.7,1.5c-0.4,0.3-0.8,0.5-1.3,0.5H2c-0.5,0-1-0.2-1.3-0.5
		C0.3,46.9,0,46.4,0,45.8V15.9H48z"/>
	<path fill="#40596B" d="M48,15.9L25.1,0.5c-0.7-0.5-1.6-0.5-2.2,0L0,15.9h0l24,18.7L48,15.9L48,15.9z"/>
	<path fill="#F2F2F2" d="M24,34.6l17.3-13.5V9.2l-8-8H8.7c-1.1,0-2,0.9-2,2v17.8L24,34.6z"/>
	<path fill="#CDD5DF" d="M35.3,9.2h6l-8-8v6C33.3,8.3,34.2,9.2,35.3,9.2z"/>
	<path fill="#ACB3BA" d="M2,47.8h44c0.5,0,1-0.2,1.3-0.5L27.6,31.8h-7.2L0.7,47.3L2,47.8z"/>
	<g>
		<path fill="#FF7058" d="M29.4,23c-1.5,0.7-3.1,1-4.7,1c-1.4,0-2.6-0.2-3.7-0.5c-1.1-0.4-2-0.9-2.8-1.6s-1.4-1.5-1.8-2.5
			c-0.4-1-0.6-2.1-0.6-3.3c0-0.6,0.1-1.3,0.2-1.9s0.3-1.2,0.5-1.8c0.2-0.6,0.5-1.1,0.8-1.6c0.3-0.5,0.7-1,1.1-1.4
			C20,7.7,22,6.8,24.6,6.8c0.7,0,1.4,0.1,2,0.2c0.6,0.1,1.3,0.4,1.8,0.6C29,8,29.5,8.3,30,8.8c0.5,0.4,0.9,0.9,1.2,1.4
			c0.3,0.5,0.6,1.1,0.8,1.7c0.2,0.6,0.3,1.3,0.3,2c0,1-0.1,1.9-0.4,2.7c-0.3,0.8-0.7,1.5-1.2,2.1c-0.5,0.6-1.1,1-1.8,1.3
			c-0.7,0.3-1.4,0.5-2.2,0.5c-0.4,0-0.8-0.1-1.1-0.3c-0.3-0.2-0.5-0.4-0.7-0.7c-0.7,0.6-1.5,1-2.4,1c-0.5,0-1-0.1-1.4-0.3
			c-0.4-0.2-0.8-0.4-1.1-0.8c-0.3-0.3-0.5-0.7-0.7-1.2c-0.2-0.5-0.3-1-0.3-1.6c0-1.6,0.5-3,1.5-4.2c0.5-0.6,1-1.1,1.5-1.4
			c0.5-0.3,1.1-0.4,1.7-0.4c1,0,1.8,0.2,2.4,0.7l0.1-0.4h2.3l-1.3,6c-0.1,0.3-0.1,0.5-0.2,0.7c0,0.2-0.1,0.4-0.1,0.5
			c0,0.2,0.1,0.3,0.2,0.3c0.3,0,0.6-0.1,1-0.3c0.4-0.2,0.7-0.5,1-0.9c0.3-0.4,0.5-0.9,0.7-1.4c0.2-0.6,0.3-1.2,0.3-1.9
			c0-0.7-0.1-1.4-0.4-2c-0.3-0.6-0.7-1.1-1.2-1.6c-0.5-0.5-1.1-0.8-1.8-1.1c-0.7-0.3-1.4-0.4-2.3-0.4c-1,0-1.8,0.2-2.6,0.5
			c-0.8,0.3-1.5,0.8-2.1,1.5c-0.3,0.3-0.6,0.7-0.8,1.1c-0.2,0.4-0.5,0.8-0.6,1.3c-0.2,0.5-0.3,0.9-0.4,1.4c-0.1,0.5-0.1,1-0.1,1.5
			c0,0.9,0.2,1.8,0.5,2.5c0.3,0.7,0.8,1.4,1.4,1.9c0.6,0.5,1.3,0.9,2.2,1.2c0.9,0.3,1.8,0.4,2.9,0.4c1.3,0,2.5-0.3,3.7-0.8L29.4,23z
			 M25.7,13.4c-0.4-0.5-1-0.8-1.8-0.8c-0.3,0-0.6,0.1-0.9,0.4c-0.3,0.2-0.6,0.5-0.8,0.9c-0.2,0.4-0.4,0.8-0.5,1.3
			c-0.1,0.5-0.2,0.9-0.2,1.4c0,1.2,0.5,1.9,1.4,1.9c0.2,0,0.5-0.1,0.7-0.2c0.2-0.1,0.5-0.3,0.7-0.5c0.2-0.2,0.4-0.5,0.6-0.8
			c0.2-0.3,0.3-0.6,0.4-1L25.7,13.4z"/>
	</g>
</g>
</svg>
