<?xml version="1.0" encoding="utf-8"?>
<!-- Generator: Adobe Illustrator 16.0.0, SVG Export Plug-In . SVG Version: 6.00 Build 0)  -->
<!DOCTYPE svg PUBLIC "-//W3C//DTD SVG 1.1//EN" "http://www.w3.org/Graphics/SVG/1.1/DTD/svg11.dtd">
<svg version="1.1" id="Layer_1" xmlns="http://www.w3.org/2000/svg" xmlns:xlink="http://www.w3.org/1999/xlink" x="0px" y="0px"
	 width="48px" height="48px" viewBox="0 0 48 48" enable-background="new 0 0 48 48" xml:space="preserve">
<g>
	<path fill="#ACB3BA" d="M43.388,37.637L43.388,37.637c-1.142,0-2.053-0.952-2.002-2.093l0.485-10.99h3.032l0.486,10.99
		C45.439,36.685,44.528,37.637,43.388,37.637"/>
	<path fill="#CDD6E0" d="M48,17.41c0-2.547-2.065-8.009-4.612-8.009c-2.548,0-4.613,5.462-4.613,8.009
		c0,2.015,1.295,3.724,3.097,4.353v2.838h3.032v-2.838C46.705,21.134,48,19.425,48,17.41"/>
	<path fill="#ACB3BA" d="M4.339,37.874L4.339,37.874c-1.141,0-2.052-0.952-2.001-2.092l0.485-10.991h3.032l0.485,10.991
		C6.392,36.922,5.48,37.874,4.339,37.874"/>
	<path fill="#CDD6E0" d="M7.729,9.165c-0.525,0-0.95,0.424-0.95,0.949v5.155c0,0.376-0.304,0.681-0.681,0.681
		c-0.376,0-0.68-0.305-0.68-0.681v-5.155c0-0.525-0.425-0.949-0.95-0.949h-0.26c-0.524,0-0.949,0.424-0.949,0.949v5.155
		c0,0.376-0.305,0.681-0.681,0.681c-0.375,0-0.68-0.305-0.68-0.681v-5.155c0-0.525-0.426-0.949-0.95-0.949S0,9.589,0,10.114v6.637
		c0,1.619,1.312,2.932,2.931,2.932H2.823v5.154h3.032v-5.154H5.748c1.618,0,2.931-1.313,2.931-2.932v-6.637
		C8.679,9.589,8.254,9.165,7.729,9.165"/>
	<path fill="#ACB3BA" d="M38.314,24.021c0,8.182-6.634,14.814-14.815,14.814S8.685,32.202,8.685,24.021
		c0-8.183,6.633-14.815,14.814-14.815S38.314,15.838,38.314,24.021"/>
	<path fill="#CDD6E0" d="M33.637,24.021c0,5.598-4.539,10.137-10.138,10.137s-10.138-4.539-10.138-10.137
		c0-5.6,4.539-10.138,10.138-10.138S33.637,18.421,33.637,24.021"/>
	<path fill="#BFCDDB" d="M14.362,25.02c0-5.599,4.539-10.137,10.137-10.137c2.545,0,4.865,0.944,6.645,2.493
		c-1.858-2.137-4.591-3.493-7.645-3.493c-5.598,0-10.137,4.538-10.137,10.137c0,3.054,1.356,5.786,3.492,7.644
		C15.306,29.884,14.362,27.565,14.362,25.02"/>
</g>
</svg>
