<?xml version="1.0" encoding="utf-8"?>
<!-- Generator: Adobe Illustrator 18.0.0, SVG Export Plug-In . SVG Version: 6.00 Build 0)  -->
<!DOCTYPE svg PUBLIC "-//W3C//DTD SVG 1.1//EN" "http://www.w3.org/Graphics/SVG/1.1/DTD/svg11.dtd">
<svg version="1.1" id="Layer_1" xmlns="http://www.w3.org/2000/svg" xmlns:xlink="http://www.w3.org/1999/xlink" x="0px" y="0px"
	 viewBox="0 0 48 48" enable-background="new 0 0 48 48" xml:space="preserve">
<g>
	<g>
		<g>
			<g>
				<path fill="#415A6B" d="M0.3,15.8C0.3,15.9,0.3,15.9,0.3,15.8C0.3,15.9,0.3,15.9,0.3,15.8L0.3,15.8z"/>
			</g>
		</g>
		<g>
			<g>
				<g>
					<path fill="#F3F3F3" d="M34.8,3.1v20.6c0,1.7-1.4,3.1-3.1,3.1H18L4.9,34.3L6,26.8H3.1c-1.7,0-3.1-1.4-3.1-3.1V3.1
						C0,1.4,1.4,0,3.1,0h28.5C33.4,0,34.8,1.4,34.8,3.1z"/>
				</g>
			</g>
			<g>
				<g>
					<g>
						<path fill="#F3705A" d="M8.1,16.7c1.7-1.7,3.8-2.6,3.8-4.7c0-1.1-0.9-2-2-2c-0.8,0-1.5,0.5-1.8,1.1c-0.3-0.7-1-1.1-1.8-1.1
							c-1.1,0-2,0.9-2,2C4.2,14.2,6.5,15.1,8.1,16.7z"/>
					</g>
					<g>
						<path fill="#F3705A" d="M17.4,16.7c1.7-1.7,3.8-2.6,3.8-4.7c0-1.1-0.9-2-2-2c-0.8,0-1.5,0.5-1.8,1.1c-0.3-0.7-1-1.1-1.8-1.1
							c-1.1,0-2,0.9-2,2C13.6,14.2,15.8,15.1,17.4,16.7z"/>
					</g>
				</g>
				<g>
					<path fill="#F3705A" d="M26.7,16.7c1.7-1.7,3.8-2.6,3.8-4.7c0-1.1-0.9-2-2-2c-0.8,0-1.5,0.5-1.8,1.1c-0.3-0.7-1-1.1-1.8-1.1
						c-1.1,0-2,0.9-2,2C22.9,14.2,25.2,15.1,26.7,16.7z"/>
				</g>
			</g>
		</g>
		<g>
			<g>
				<g>
					<path fill="#F3705A" d="M18.3,21.3v17.6c0,1.5,1.2,2.7,2.7,2.7h11.6L43.8,48l-1-6.4h2.5c1.5,0,2.7-1.2,2.7-2.7V21.3
						c0-1.5-1.2-2.7-2.7-2.7H20.9C19.5,18.7,18.3,19.9,18.3,21.3z"/>
				</g>
			</g>
		</g>
		<g>
			<path fill="#FFFFFF" d="M33.1,36.3c3.1-3.1,7-4.8,7-8.5c0-2.1-1.7-3.7-3.7-3.7c-1.5,0-2.7,0.9-3.3,2.1c-0.6-1.2-1.9-2.1-3.3-2.1
				c-2,0-3.7,1.7-3.7,3.7C26.1,31.5,30.3,33.2,33.1,36.3z"/>
		</g>
	</g>
</g>
</svg>
