<?xml version="1.0" encoding="utf-8"?>
<!-- Generator: Adobe Illustrator 18.0.0, SVG Export Plug-In . SVG Version: 6.00 Build 0)  -->
<!DOCTYPE svg PUBLIC "-//W3C//DTD SVG 1.1//EN" "http://www.w3.org/Graphics/SVG/1.1/DTD/svg11.dtd">
<svg version="1.1" id="Layer_1" xmlns="http://www.w3.org/2000/svg" xmlns:xlink="http://www.w3.org/1999/xlink" x="0px" y="0px"
	 viewBox="0 0 512 512" enable-background="new 0 0 512 512" xml:space="preserve">
<g>
	<g>
		<path fill="#40596B" d="M424.9,135.1c-2.5-3.5-6.7-5.9-11.4-5.9H23.6c-11.7,0-21.2,9.5-21.2,21.2v233.8h425.2V143.3
			C427.6,140.2,426.6,137.4,424.9,135.1z"/>
		<path fill="#F2F2F2" d="M2.5,384.2v30.3c0,11.7,9.5,21.2,21.2,21.2h382.8c11.7,0,21.2-9.5,21.2-21.2v-30.3H2.5z"/>
		<circle fill="#CDD6E0" cx="215" cy="409.9" r="10.1"/>
		<polygon fill="#CDD6E0" points="306.7,483.1 123.4,483.1 141,448.9 147.8,435.7 282.3,435.7 289.1,448.9 		"/>
		<path fill="#F2F2F2" d="M334.1,483.1H96c-11.7,0-21.2,9.5-21.2,21.2v5.7h280.4v-5.7C355.3,492.6,345.8,483.1,334.1,483.1z"/>
		<rect x="30.7" y="155.9" fill="#F2F2F2" width="368.7" height="207.9"/>
		<polygon fill="#ACB3BA" points="289.1,448.9 141,448.9 147.8,435.7 282.3,435.7 		"/>
	</g>
	<g>
		<path fill="#84DBFF" d="M488.4,2h-312c-11.7,0-21.2,9.5-21.2,21.2v193c0,11.7,9.5,21.2,21.2,21.2h307.3c0.9,0,1.8,0,2.6-0.1
			c13.1-1.3,23.3-12.3,23.3-25.8V23.2C509.5,11.5,500.1,2,488.4,2z"/>
		<g>
			<rect x="155.2" y="46.6" fill="#334A5E" width="354.4" height="41.5"/>
			<g>
				<rect x="196.6" y="129.2" fill="#FFFFFF" width="74.5" height="12.5"/>
				<rect x="196.6" y="180.2" fill="#40596B" width="47.9" height="12.5"/>
				<rect x="271.1" y="180.2" fill="#FF7058" width="47.9" height="12.5"/>
				<rect x="345.7" y="180.2" fill="#40596B" width="47.9" height="12.5"/>
				<rect x="420.2" y="180.2" fill="#FF7058" width="47.9" height="12.5"/>
			</g>
		</g>
	</g>
</g>
</svg>
