<?xml version="1.0" encoding="utf-8"?>
<!-- Generator: Adobe Illustrator 18.0.0, SVG Export Plug-In . SVG Version: 6.00 Build 0)  -->
<!DOCTYPE svg PUBLIC "-//W3C//DTD SVG 1.1//EN" "http://www.w3.org/Graphics/SVG/1.1/DTD/svg11.dtd">
<svg version="1.1" id="Layer_1" xmlns="http://www.w3.org/2000/svg" xmlns:xlink="http://www.w3.org/1999/xlink" x="0px" y="0px"
	 viewBox="0 0 48 48" enable-background="new 0 0 48 48" xml:space="preserve">
<g>
	<g>
		<path fill="#415A6B" d="M-0.1,39.1L-0.1,39.1c0,1.1,0.9,2,2,2h21.4c1.1,0,2-0.9,2-2v0c0-1.1-0.9-2-2-2H2C0.9,37-0.1,38-0.1,39.1z"
			/>
	</g>
	<path fill="#344A5E" d="M23.4,41.1C23.4,41.1,23.4,41.1,23.4,41.1L2,41.1c0,0,0,0,0,0c-1.2,1.1-2,2.7-2,4.5V48h25.5v-2.4
		C25.4,43.8,24.6,42.2,23.4,41.1z"/>
	<g>
		<g>
			<g>
				<path fill="#FFD15C" d="M46.7,46.7L46.7,46.7c-1.9,1.9-4.9,1.8-6.7-0.2L19.6,23.8c-1.1-1.2-1-3.1,0.1-4.2l0,0
					c1.1-1.1,3-1.2,4.2-0.1L46.5,40C48.5,41.7,48.6,44.8,46.7,46.7z"/>
			</g>
		</g>
	</g>
	<g>
		<g>
			<path fill="#F7B64C" d="M24.1,24.1c0.8-0.8,1.5-1.5,2.2-2.4l-2.4-2.2c-1.2-1.1-3.1-1-4.2,0.1c-1.1,1.1-1.2,3-0.1,4.2l2.2,2.4
				C22.6,25.5,23.4,24.8,24.1,24.1z"/>
		</g>
	</g>
	<g>
		<g>
			<path fill="#FFD15C" d="M2.7,17.9c4-6.2,9-11.3,15.3-15.3l11.3,11.3c-4,6.2-9,11.3-15.3,15.3L2.7,17.9z"/>
		</g>
	</g>
	<g>
		<g>
			<path fill="#F7B64C" d="M5,14.6c-0.8,1.1-1.6,2.2-2.3,3.3L14,29.2c1.1-0.7,2.2-1.5,3.3-2.3L5,14.6z"/>
		</g>
	</g>
	<g>
		<g>
			<path fill="#F7B64C" d="M27,17.2c0.8-1.1,1.6-2.2,2.3-3.3L17.9,2.6c-1.1,0.7-2.2,1.5-3.3,2.3L27,17.2z"/>
		</g>
	</g>
	<g>
		<g>
			<path fill="#FFD15C" d="M13.2,31.2L0.7,18.7c-0.8-0.8-0.8-2.1,0-2.9s2.1-0.8,2.9,0L16,28.4c0.8,0.8,0.8,2.1,0,2.9
				C15.2,32,14,32,13.2,31.2z"/>
		</g>
	</g>
	<g>
		<g>
			<path fill="#FFD15C" d="M28.4,16L15.9,3.4c-0.8-0.8-0.8-2.1,0-2.9s2.1-0.8,2.9,0l12.5,12.5c0.8,0.8,0.8,2.1,0,2.9
				S29.2,16.8,28.4,16z"/>
		</g>
	</g>
</g>
</svg>
