<?xml version="1.0" encoding="utf-8"?>
<!-- Generator: Adobe Illustrator 16.0.0, SVG Export Plug-In . SVG Version: 6.00 Build 0)  -->
<!DOCTYPE svg PUBLIC "-//W3C//DTD SVG 1.1//EN" "http://www.w3.org/Graphics/SVG/1.1/DTD/svg11.dtd">
<svg version="1.1" id="Layer_1" xmlns="http://www.w3.org/2000/svg" xmlns:xlink="http://www.w3.org/1999/xlink" x="0px" y="0px"
	 width="48px" height="48px" viewBox="0 0 48 48" enable-background="new 0 0 48 48" xml:space="preserve">
<g>
	<path fill="#FF7058" d="M27.319,37.937c5.239-5.348,14.469-10.755,15.51-19.57C44.404,5.02,35.596,0,24,0S3.596,5.02,5.171,18.366
		c1.04,8.815,10.27,14.223,15.509,19.57H27.319z"/>
	<path fill="#F2F2F2" d="M26.294,37.937c3.622-5.348,10.001-10.755,10.72-19.57C38.102,5.02,32.015,0,24,0
		C15.984,0,9.896,5.02,10.986,18.366c0.719,8.815,7.098,14.223,10.719,19.57H26.294z"/>
	<path fill="#FF7058" d="M25.078,37.937c1.7-5.348,4.692-10.755,5.03-19.57C30.619,5.02,27.762,0,24,0s-6.62,5.02-6.108,18.366
		c0.338,8.815,3.329,14.223,5.029,19.57H25.078z"/>
	<path fill="#40596B" d="M17.335,34.851c1.202,1.045,2.347,2.066,3.346,3.086h6.638c0.999-1.02,2.144-2.041,3.346-3.086H17.335z"/>
	<path fill="#FFD15C" d="M27.024,39.276h-6.049c-0.694,0-1.256,0.562-1.256,1.254v6.215c0,0.693,0.562,1.255,1.256,1.255h6.049
		c0.693,0,1.255-0.562,1.255-1.255V40.53C28.279,39.838,27.718,39.276,27.024,39.276"/>
	<rect x="23.119" y="39.276" fill="#F8B64C" width="1.762" height="1.439"/>
</g>
</svg>
