<?xml version="1.0" encoding="utf-8"?>
<!-- Generator: Adobe Illustrator 18.0.0, SVG Export Plug-In . SVG Version: 6.00 Build 0)  -->
<!DOCTYPE svg PUBLIC "-//W3C//DTD SVG 1.1//EN" "http://www.w3.org/Graphics/SVG/1.1/DTD/svg11.dtd">
<svg version="1.1" id="Layer_1" xmlns="http://www.w3.org/2000/svg" xmlns:xlink="http://www.w3.org/1999/xlink" x="0px" y="0px"
	 viewBox="0 0 48 48" enable-background="new 0 0 48 48" xml:space="preserve">
<g>
	<path fill="#F2F2F2" d="M25,0H2C0.9,0,0,0.9,0,2v44c0,1.1,0.9,2,2,2h32.1c1.1,0,2-0.9,2-2V11L25,0z"/>
	<path fill="#CDD6E0" d="M25,9c0,1.1,0.9,2,2,2h9L25,0V9z"/>
	<g>
		<rect x="4.2" y="22.8" fill="#CDD6E0" width="27.7" height="2.5"/>
		<rect x="4.2" y="30.3" fill="#CDD6E0" width="27.7" height="2.5"/>
		<rect x="4.2" y="37.9" fill="#CDD6E0" width="13.4" height="2.5"/>
		<rect x="4.2" y="15.2" fill="#CDD6E0" width="27.7" height="2.5"/>
		<rect x="4.2" y="7.6" fill="#FFD15C" width="15.9" height="2.5"/>
	</g>
	
		<rect x="34.1" y="34.8" transform="matrix(0.7071 -0.7071 0.7071 0.7071 -15.0918 36.4376)" fill="#40596B" width="4.6" height="3.2"/>
	<circle fill="#40596B" cx="27" cy="27" r="13.6"/>
	<circle fill="#84DBFF" cx="27" cy="27" r="10.4"/>
	<path fill="#FFD15C" d="M46.4,40.5l-6.6-5.1l-4.3,4.3l5.1,6.6c0,0,0.1,0.1,0.1,0.1L46.4,40.5C46.4,40.6,46.4,40.6,46.4,40.5z"/>
	<path fill="#FF7058" d="M46.5,40.6l-5.9,5.9c1.6,1.9,4.4,2.1,6.2,0.3C48.5,45,48.4,42.2,46.5,40.6z"/>
</g>
</svg>
