<?xml version="1.0" encoding="utf-8"?>
<!-- Generator: Adobe Illustrator 18.0.0, SVG Export Plug-In . SVG Version: 6.00 Build 0)  -->
<!DOCTYPE svg PUBLIC "-//W3C//DTD SVG 1.1//EN" "http://www.w3.org/Graphics/SVG/1.1/DTD/svg11.dtd">
<svg version="1.1" id="Layer_1" xmlns="http://www.w3.org/2000/svg" xmlns:xlink="http://www.w3.org/1999/xlink" x="0px" y="0px"
	 viewBox="0 0 48 48" enable-background="new 0 0 48 48" xml:space="preserve">
<g>
	<path fill="#F2F2F2" d="M46,48H2c-1.1,0-2-0.9-2-2V2c0-1.1,0.9-2,2-2h44c1.1,0,2,0.9,2,2v44C48,47.1,47.1,48,46,48z"/>
	<path fill="#FF7058" d="M16.1,15V5.5c0-1.1-0.9-2-2-2H4.9c-1.1,0-2,0.9-2,2V15c0,0.8,0.5,1.6,1.3,1.9v14.4c-0.7,0.3-1.3,1-1.3,1.9
		v9.5c0,1.1,0.9,2,2,2h9.1c1.1,0,2-0.9,2-2V33c0-0.8-0.5-1.6-1.3-1.9V16.8C15.5,16.5,16.1,15.8,16.1,15z"/>
	<g>
		<g>
			<rect x="20.2" y="17.2" fill="#CDD6E0" width="6.8" height="7"/>
			<rect x="29" y="17.2" fill="#CDD6E0" width="6.8" height="7"/>
			<rect x="37.8" y="17.2" fill="#CDD6E0" width="6.8" height="7"/>
			<rect x="20.2" y="26.2" fill="#CDD6E0" width="6.8" height="7"/>
			<rect x="29" y="26.2" fill="#CDD6E0" width="6.8" height="7"/>
			<rect x="37.8" y="26.2" fill="#CDD6E0" width="6.8" height="7"/>
			<rect x="20.2" y="35.2" fill="#CDD6E0" width="6.8" height="7"/>
			<rect x="29" y="35.2" fill="#CDD6E0" width="6.8" height="7"/>
			<rect x="37.8" y="35.2" fill="#CDD6E0" width="6.8" height="7"/>
		</g>
		<g>
			<rect x="20.2" y="5.7" fill="#54C0EB" width="24.4" height="9"/>
			<g>
				<polygon fill="#FFFFFF" points="25.8,14.7 34.6,5.7 32.5,5.7 23.7,14.7 				"/>
				<polygon fill="#FFFFFF" points="32.4,14.7 41.2,5.7 36.6,5.7 27.8,14.7 				"/>
			</g>
		</g>
	</g>
</g>
</svg>
