<?xml version="1.0" encoding="utf-8"?>
<!-- Generator: Adobe Illustrator 18.0.0, SVG Export Plug-In . SVG Version: 6.00 Build 0)  -->
<!DOCTYPE svg PUBLIC "-//W3C//DTD SVG 1.1//EN" "http://www.w3.org/Graphics/SVG/1.1/DTD/svg11.dtd">
<svg version="1.1" id="Layer_1" xmlns="http://www.w3.org/2000/svg" xmlns:xlink="http://www.w3.org/1999/xlink" x="0px" y="0px"
	 viewBox="0 0 48 48" enable-background="new 0 0 48 48" xml:space="preserve">
<g>
	<g>
		<g>
			<g>
				<polygon fill="#CED6E0" points="40.8,22.3 29.8,22.3 26.2,43.4 44.4,43.4 				"/>
			</g>
			<g>
				<polygon fill="#F05540" points="29.4,24.6 29,26.7 41.6,26.7 41.2,24.6 				"/>
			</g>
			<g>
				<g>
					<path fill="#FFFFFF" d="M35.3,37.1c-2.2,0-4-1.8-4-4c0-2.2,1.8-4,4-4c2.2,0,4,1.8,4,4C39.3,35.3,37.5,37.1,35.3,37.1z"/>
				</g>
				<g>
					<g>
						<g>
							<g>
								<path fill="#415A6B" d="M36,34.3l0.8,1.4c0.9-0.5,1.5-1.5,1.5-2.6l-1.6,0C36.6,33.6,36.4,34.1,36,34.3z"/>
							</g>
							<g>
								<g>
									<path fill="#415A6B" d="M36,32l0.8-1.4c-0.9-0.5-2.1-0.5-3,0l0.8,1.4C35,31.7,35.6,31.7,36,32z"/>
								</g>
								<g>
									<path fill="#415A6B" d="M34,33.1l-1.6,0c0,1.1,0.6,2.1,1.5,2.6l0.8-1.4C34.2,34.1,33.9,33.6,34,33.1z"/>
								</g>
								<g>
									<circle fill="#415A6B" cx="35.3" cy="33.1" r="0.8"/>
								</g>
							</g>
						</g>
					</g>
				</g>
			</g>
		</g>
		<g>
			<path fill="#4EC0AA" d="M48,48v-9.8c-1.7-0.1-3.5-0.2-5.2-0.2C31.5,38,21.4,43.5,15,48H48z"/>
		</g>
		<g>
			<g>
				<polygon fill="#F3F3F3" points="22.3,14 5.8,14 0.4,45.4 27.6,45.4 				"/>
			</g>
			<g>
				<polygon fill="#F3705A" points="5.2,17.4 4.7,20.6 23.4,20.6 22.8,17.4 				"/>
			</g>
			<g>
				<g>
					<path fill="#CED6E0" d="M14,36c-3.2,0-5.9-2.6-5.9-5.9s2.6-5.9,5.9-5.9c3.2,0,5.9,2.6,5.9,5.9S17.3,36,14,36z"/>
				</g>
				<g>
					<g>
						<g>
							<g>
								<path fill="#415A6B" d="M15,31.8l1.2,2.1c1.4-0.8,2.2-2.3,2.2-3.9l-2.4,0C16,30.8,15.6,31.5,15,31.8z"/>
							</g>
							<g>
								<g>
									<path fill="#415A6B" d="M15,28.4l1.2-2.1c-1.4-0.8-3.1-0.8-4.5,0l1.2,2.1C13.6,28,14.4,28,15,28.4z"/>
								</g>
								<g>
									<path fill="#415A6B" d="M12,30.1l-2.4,0c0,1.6,0.8,3.1,2.2,3.9l1.2-2.1C12.4,31.5,12,30.8,12,30.1z"/>
								</g>
								<g>
									<circle fill="#415A6B" cx="14" cy="30.1" r="1.3"/>
								</g>
							</g>
						</g>
					</g>
				</g>
			</g>
		</g>
		<g>
			<g>
				<path fill="#66C6B9" d="M35.8,48c-7-5.1-20-9-35.8-10.4V48H35.8z"/>
			</g>
		</g>
		<g>
			<path fill="#CED6E0" d="M28.2,9.4C26.7,10,25,9.6,23.9,8.5c0,1.3-0.9,2.3-2.2,2.4c-1.2,0.1-2.2-0.8-2.4-2
				c-0.3,0.4-0.8,0.7-1.4,0.7c-0.4,0-0.7-0.1-1-0.3c0,1.2-0.8,2.2-2,2.4c-1.3,0.2-2.6-0.7-2.8-2c-0.2-1.2,0.5-2.4,1.7-2.7
				C13.3,6.6,13,5.9,13,5.2c0-1.3,1.1-2.4,2.5-2.4c0.8,0,1.4,0.4,1.9,0.9C17.6,2,19,0.8,20.8,0.8c0.6,0,1.2,0.2,1.7,0.4
				c0.2-0.8,0.9-1.3,1.8-1.2c0.9,0.1,1.5,0.9,1.4,1.8c2-0.6,4.1,0.5,4.9,2.5C31.3,6.3,30.3,8.6,28.2,9.4z"/>
		</g>
		<g>
			<path fill="#CED6E0" d="M46.1,18c-1.1,0.4-2.2,0.1-3-0.6c0,0.9-0.7,1.7-1.6,1.7c-0.8,0-1.6-0.6-1.7-1.4c-0.2,0.3-0.6,0.5-1,0.5
				c-0.3,0-0.5-0.1-0.7-0.2c0,0.8-0.6,1.6-1.4,1.7c-0.9,0.2-1.8-0.5-2-1.4c-0.2-0.9,0.4-1.7,1.2-1.9c-0.3-0.3-0.5-0.8-0.5-1.3
				c0-1,0.8-1.7,1.8-1.7c0.5,0,1,0.3,1.3,0.6c0.2-1.2,1.2-2.1,2.4-2.1c0.4,0,0.9,0.1,1.2,0.3c0.1-0.6,0.7-0.9,1.3-0.8
				c0.6,0.1,1.1,0.6,1,1.2c1.4-0.4,2.9,0.3,3.4,1.7C48.4,15.7,47.6,17.4,46.1,18z"/>
		</g>
	</g>
</g>
</svg>
