<?xml version="1.0" encoding="utf-8"?>
<!-- Generator: Adobe Illustrator 18.0.0, SVG Export Plug-In . SVG Version: 6.00 Build 0)  -->
<!DOCTYPE svg PUBLIC "-//W3C//DTD SVG 1.1//EN" "http://www.w3.org/Graphics/SVG/1.1/DTD/svg11.dtd">
<svg version="1.1" id="Layer_1" xmlns="http://www.w3.org/2000/svg" xmlns:xlink="http://www.w3.org/1999/xlink" x="0px" y="0px"
	 viewBox="0 0 48 48" enable-background="new 0 0 48 48" xml:space="preserve">
<g>
	<g>
		<path fill="#FF7058" d="M42.7,45.7l-7-2.5c-5.3-1.9-8.8-6.9-8.8-12.5V15.9c0-2.8,2.7-4.7,5.3-3.8l0,0C41.7,15.6,48,24.5,48,34.6
			v7.3C48,44.7,45.3,46.6,42.7,45.7z"/>
		<path fill="#FF7058" d="M5.3,45.7l7-2.5c5.3-1.9,8.8-6.9,8.8-12.5V15.9c0-2.8-2.7-4.7-5.3-3.8l0,0C6.3,15.6,0,24.5,0,34.6v7.3
			C0,44.7,2.7,46.6,5.3,45.7z"/>
	</g>
	<path fill="#40596B" d="M38.3,25.7c-0.5-0.5-1.2-0.5-1.7,0l-2.2,2.2l-2.6-2.6l1.4-1.4c0.5-0.5,0.5-1.2,0-1.7l0,0
		c-0.5-0.5-1.2-0.5-1.7,0l-1.4,1.4L25.6,19V3.6c0-0.9-0.7-1.6-1.6-1.6c-0.9,0-1.6,0.7-1.6,1.6V19l-4.3,4.3l-1.5-1.5
		c-0.5-0.5-1.2-0.5-1.7,0c-0.5,0.5-0.5,1.2,0,1.7l1.5,1.5l-2.6,2.6l-2.2-2.2c-0.5-0.5-1.2-0.5-1.7,0l0,0c-0.5,0.5-0.5,1.2,0,1.7
		l2.2,2.2l-0.3,0.3c-0.6,0.6-0.6,1.6,0,2.2l0,0c0.6,0.6,1.6,0.6,2.2,0l2.7-2.7l1,1c0.5,0.5,1.2,0.5,1.7,0c0.5-0.5,0.5-1.2,0-1.7
		l-1-1l5.5-5.5l5.9,5.9l-1,1c-0.5,0.5-0.5,1.2,0,1.7c0.5,0.5,1.2,0.5,1.7,0l1-1l2.3,2.3c0.6,0.6,1.6,0.6,2.2,0l0,0
		c0.6-0.6,0.6-1.5,0.1-2.1l2.2-2.2C38.8,26.9,38.8,26.2,38.3,25.7z"/>
</g>
</svg>
