<?xml version="1.0" encoding="utf-8"?>
<!-- Generator: Adobe Illustrator 18.0.0, SVG Export Plug-In . SVG Version: 6.00 Build 0)  -->
<!DOCTYPE svg PUBLIC "-//W3C//DTD SVG 1.1//EN" "http://www.w3.org/Graphics/SVG/1.1/DTD/svg11.dtd">
<svg version="1.1" id="Layer_1" xmlns="http://www.w3.org/2000/svg" xmlns:xlink="http://www.w3.org/1999/xlink" x="0px" y="0px"
	 viewBox="0 0 48 48" enable-background="new 0 0 48 48" xml:space="preserve">
<g>
	<g>
		<g>
			<rect x="32.1" y="6.3" fill="#415A6B" width="2.8" height="26.9"/>
		</g>
		<g>
			<g>
				<path fill="#F3705A" d="M25.9,30.8v15c0,1.2,1,2.1,2.1,2.1h11c1.2,0,2.1-1,2.1-2.1v-15H25.9z"/>
			</g>
			<g>
				<rect x="25.9" y="30.8" fill="#E8EAE9" width="15.3" height="2.4"/>
			</g>
		</g>
		<g>
			<g>
				<path fill="#F3705A" d="M20.1,48H8.8c-1.1,0-2-0.9-2-2V15.9h15.3V46C22.1,47.1,21.2,48,20.1,48z"/>
			</g>
			<g>
				<rect x="6.8" y="15.9" fill="#E8EAE9" width="15.3" height="2.4"/>
			</g>
			<rect x="9.3" y="11" fill="#344A5E" width="10.3" height="5"/>
		</g>
		<g>
			<path fill="#FFD15C" d="M32.1,6.3H35l3-4.6c-2.5-2.3-6.3-2.3-8.8,0L32.1,6.3z"/>
		</g>
		<g>
			<path fill="#F7B64C" d="M37.9,1.7l-1.3,1.9c-1.9-1.4-4.4-1.4-6.3,0l-1.3-1.9C31.7-0.6,35.4-0.6,37.9,1.7z"/>
		</g>
	</g>
</g>
</svg>
