<?xml version="1.0" encoding="utf-8"?>
<!-- Generator: Adobe Illustrator 18.0.0, SVG Export Plug-In . SVG Version: 6.00 Build 0)  -->
<!DOCTYPE svg PUBLIC "-//W3C//DTD SVG 1.1//EN" "http://www.w3.org/Graphics/SVG/1.1/DTD/svg11.dtd">
<svg version="1.1" id="Layer_1" xmlns="http://www.w3.org/2000/svg" xmlns:xlink="http://www.w3.org/1999/xlink" x="0px" y="0px"
	 viewBox="0 0 48 48" enable-background="new 0 0 48 48" xml:space="preserve">
<g>
	<path fill="#334A5E" d="M48,4v34.1c0,1.1-0.9,2-2,2H2c-1.1,0-2-0.9-2-2V4c0-1.1,0.9-2,2-2h44C47.1,2,48,2.9,48,4z"/>
	<rect x="10.6" y="6" fill="#ACB3BA" width="33.3" height="30.1"/>
	<path fill="#ACB3BA" d="M6.4,10.6H4.3c-0.4,0-0.7-0.3-0.7-0.7v0c0-0.4,0.3-0.7,0.7-0.7h2.1c0.4,0,0.7,0.3,0.7,0.7v0
		C7.1,10.2,6.8,10.6,6.4,10.6z"/>
	<path fill="#ACB3BA" d="M6.4,15.7H4.3c-0.4,0-0.7-0.3-0.7-0.7v0c0-0.4,0.3-0.7,0.7-0.7h2.1c0.4,0,0.7,0.3,0.7,0.7v0
		C7.1,15.3,6.8,15.7,6.4,15.7z"/>
	<path fill="#ACB3BA" d="M6.4,26.9H4.3c-0.4,0-0.7-0.3-0.7-0.7v0c0-0.4,0.3-0.7,0.7-0.7h2.1c0.4,0,0.7,0.3,0.7,0.7v0
		C7.1,26.6,6.8,26.9,6.4,26.9z"/>
	<path fill="#ACB3BA" d="M6.4,33H4.3c-0.4,0-0.7-0.3-0.7-0.7l0,0c0-0.4,0.3-0.7,0.7-0.7h2.1c0.4,0,0.7,0.3,0.7,0.7l0,0
		C7.1,32.7,6.8,33,6.4,33z"/>
	<circle fill="#ACB3BA" cx="5.3" cy="20.6" r="2.4"/>
	<circle fill="#ACB3BA" cx="5.3" cy="20.6" r="1.4"/>
	<polygon fill="#FFFFFF" points="11.1,8.4 10.6,8.4 10.6,6 13,6 13,6.5 11.1,6.5 	"/>
	<polygon fill="#FFFFFF" points="43.5,8.4 44,8.4 44,6 41.6,6 41.6,6.5 43.5,6.5 	"/>
	<polygon fill="#FFFFFF" points="43.5,33.8 44,33.8 44,36.2 41.6,36.2 41.6,35.7 43.5,35.7 	"/>
	<polygon fill="#FFFFFF" points="11.1,33.8 10.6,33.8 10.6,36.2 13,36.2 13,35.7 11.1,35.7 	"/>
	<path fill="#334A5E" d="M35.7,45.2v-1.5h1.4c0.4,0,0.7,0.3,0.7,0.7v0.2c0,0.4-0.3,0.7-0.7,0.7H35.7z"/>
	<path fill="#40596B" d="M36.1,45.2v-1.5c0-0.5-0.4-0.8-0.8-0.8H12.5l-2.3,0.5c-0.1,0-0.1,0.1-0.1,0.1v2c0,0.1,0,0.1,0.1,0.1
		l2.3,0.5h22.8C35.7,46,36.1,45.6,36.1,45.2z"/>
	<path fill="#334A5E" d="M9,44.5v-0.1c0-0.2,0.1-0.3,0.3-0.3h0.8v0.7H9.3C9.1,44.8,9,44.6,9,44.5z"/>
	<rect x="15.9" y="43.9" fill="#334A5E" width="3" height="0.9"/>
	<rect x="19.9" y="43.9" fill="#334A5E" width="3" height="0.9"/>
</g>
</svg>
