<?xml version="1.0" encoding="utf-8"?>
<!-- Generator: Adobe Illustrator 18.0.0, SVG Export Plug-In . SVG Version: 6.00 Build 0)  -->
<!DOCTYPE svg PUBLIC "-//W3C//DTD SVG 1.1//EN" "http://www.w3.org/Graphics/SVG/1.1/DTD/svg11.dtd">
<svg version="1.1" id="Layer_1" xmlns="http://www.w3.org/2000/svg" xmlns:xlink="http://www.w3.org/1999/xlink" x="0px" y="0px"
	 viewBox="0 0 512 512" enable-background="new 0 0 512 512" xml:space="preserve">
<g>
	<polygon fill="#CDD5DF" points="497.1,389.8 387.2,499.6 12.4,124.7 122.2,14.9 	"/>
	<polygon fill="#ABB2B9" points="421.2,465.6 387.2,499.6 269.1,381.5 147.4,259.7 12.4,124.7 46.4,90.8 181.4,225.8 303.2,347.5 	
		"/>
	
		<rect x="128.2" y="49.5" transform="matrix(-0.7071 -0.7071 0.7071 -0.7071 179.7121 248.4143)" fill="#F2F2F2" width="26.3" height="75"/>
	
		<rect x="192.9" y="109.5" transform="matrix(-0.7071 -0.7071 0.7071 -0.7071 255.6799 377.4373)" fill="#F2F2F2" width="26.3" height="52.5"/>
	
		<rect x="355.1" y="276.4" transform="matrix(-0.7071 -0.7071 0.7071 -0.7071 406.679 796.3611)" fill="#F2F2F2" width="26.3" height="75"/>
	
		<rect x="419.8" y="336.5" transform="matrix(-0.7071 -0.7071 0.7071 -0.7071 482.6463 925.383)" fill="#F2F2F2" width="26.3" height="52.5"/>
	<polygon opacity="0.5" fill="#4FBFA8" points="379.8,272.4 303.9,348.3 269.9,382.3 260.7,373.1 370.5,263.2 	"/>
	<path fill="#F2705B" d="M503.8,100.1l-92-91.9c-8.2-8.2-21.6-8.2-29.9,0l-55.2,55.2l121.8,121.8l55.2-55.2
		C512.1,121.8,512.1,108.4,503.8,100.1z"/>
	<polygon fill="#D8AB53" points="73.6,390.9 73.1,391.3 73.1,391.2 73.5,390.9 	"/>
	<path fill="#FFD05C" d="M147.4,450.6c-7.3-7.3-16.7-11.4-26.3-12.1c1-6.3,0.5-12.9-1.4-19.1c-1.9-6.2-5.3-12-10.2-16.9
		c-9.8-9.8-23.3-13.7-36-11.7c-0.7-9.6-4.8-18.9-12.1-26.3c-6.7-6.7-15.1-10.7-23.8-11.8l0,0l-22.2,98.3L2,510l58.8-13.3l98.4-22.3
		C158,465.8,154.1,457.3,147.4,450.6z"/>
	<polygon fill="#334A5E" points="60.8,496.7 2,510 15.3,451.1 	"/>
	<polygon fill="#F6F7F7" points="448.6,185.2 405.2,228.6 368.1,191.5 320.5,143.9 320.4,143.8 283.4,106.8 326.8,63.4 363.9,100.4 
		363.9,100.5 411.5,148 411.5,148.1 	"/>
	<path fill="#89D6F7" d="M320.5,143.9L320.5,143.9l-37.1-37.1L37.6,352.6l0,0.1c8.7,1.2,17.1,5.1,23.8,11.8
		c7.3,7.3,11.4,16.7,12.1,26.3c0,0,0,0,0.1,0L320.5,143.9L320.5,143.9z"/>
	<g>
		<rect x="411.5" y="148.1" fill="#55BFE9" width="0" height="0"/>
		<polygon fill="#55BFE9" points="363.9,100.5 369.1,105.7 363.9,100.4 363.9,100.4 		"/>
		<path fill="#55BFE9" d="M368.1,191.5L368.1,191.5l-47.6-47.6l0,0l-247,247c0,0,0,0,0,0c12.7-2,26.2,1.8,36,11.6
			c9.8,9.8,13.6,23.2,11.6,35.9L368.1,191.5z"/>
	</g>
	<path fill="#89D6F7" d="M405.2,228.6l-37.1-37.1l-247,247l0,0.1c9.6,0.7,18.9,4.8,26.3,12.1c6.7,6.7,10.7,15.1,11.8,23.8l0.1,0
		l289.2-289.2l0,0L405.2,228.6z"/>
</g>
</svg>
