<?xml version="1.0" encoding="utf-8"?>
<!-- Generator: Adobe Illustrator 18.0.0, SVG Export Plug-In . SVG Version: 6.00 Build 0)  -->
<!DOCTYPE svg PUBLIC "-//W3C//DTD SVG 1.1//EN" "http://www.w3.org/Graphics/SVG/1.1/DTD/svg11.dtd">
<svg version="1.1" id="Layer_1" xmlns="http://www.w3.org/2000/svg" xmlns:xlink="http://www.w3.org/1999/xlink" x="0px" y="0px"
	 viewBox="0 0 48 48" enable-background="new 0 0 48 48" xml:space="preserve">
<g>
	<rect x="29.4" y="4.1" transform="matrix(0.9552 -0.296 0.296 0.9552 -1.4232 9.9473)" fill="#F2F2F2" width="5.5" height="11.2"/>
	<path fill="#E4EAEF" d="M34.3,7.3l-1.2-3.8l-5.2,1.6l1.5,4.9l3-1.3C33.2,8.4,33.8,7.9,34.3,7.3z"/>
	<path fill="#40596B" d="M38.9,13.5L29,16.5c-0.4,0.1-0.6,0.5-0.5,0.9l1.4,4.5c0.1,0.4,0.5,0.6,0.9,0.5L42.1,19
		c0.5-0.2,0.7-0.8,0.3-1.2l-2.8-4.1C39.4,13.5,39.1,13.4,38.9,13.5z"/>
	<path fill="#FFD15C" d="M1,14.3L1,14.3c-1.1-3,0.7-6.3,3.8-7.2l24.6-7c2-0.6,4.2,0.6,4.9,2.6l0,0c0.7,2-0.3,4.2-2.2,5.1L8.4,17.5
		C5.4,18.8,2,17.3,1,14.3z"/>
	<circle fill="#FF7058" cx="30.5" cy="3.9" r="1.9"/>
	<path fill="#F1543F" d="M30.5,2.5c1,0,1.8,0.7,1.9,1.7c0-0.1,0-0.2,0-0.3c0-1.1-0.9-1.9-1.9-1.9c-1.1,0-1.9,0.9-1.9,1.9
		c0,0.1,0,0.2,0,0.3C28.7,3.3,29.5,2.5,30.5,2.5z"/>
	<path fill="#FCC854" d="M12.6,9.2c-1-1.6-2.4-2.7-4.2-3.2L4.7,7.1C1.6,8-0.1,11.3,1,14.3c1.1,3,4.5,4.5,7.4,3.2l7.4-3.1L12.6,9.2z"
		/>
	<path fill="#F8B64C" d="M27.2,35.3l-10.5,6.4L1.2,16.2c-1.8-2.9-0.8-6.7,2.1-8.4l0,0C6.1,6,9.9,6.9,11.7,9.8L27.2,35.3z"/>
	<rect y="43.2" fill="#ACB3BA" width="48" height="4.8"/>
	<circle fill="#FF7058" cx="5.8" cy="12.2" r="2.6"/>
	<path fill="#F1543F" d="M3.5,13.3c-0.3-1.4,0.6-2.8,2-3.1c1-0.2,2,0.2,2.6,0.9C7.6,10,6.4,9.3,5.2,9.6c-1.4,0.3-2.3,1.7-2,3.1
		c0.1,0.4,0.3,0.8,0.5,1.1C3.6,13.6,3.6,13.5,3.5,13.3z"/>
	<path fill="#F4A13D" d="M16.7,41.7l10.5-6.4L20.9,25c-0.8-0.1-1.5-0.2-2.3-0.2c-3.8,0-7.3,1.3-10,3.5L16.7,41.7z"/>
	<path fill="#40596B" d="M33.5,43.2H3.7v-2.3c0-8.2,6.7-14.9,14.9-14.9h0c8.2,0,14.9,6.7,14.9,14.9V43.2z"/>
	<g>
		<rect x="9.3" y="32.9" fill="#F2F2F2" width="7.5" height="4.4"/>
		<rect x="20.4" y="32.9" fill="#F2F2F2" width="7.5" height="4.4"/>
	</g>
</g>
</svg>
