<?xml version="1.0" encoding="utf-8"?>
<!-- Generator: Adobe Illustrator 18.0.0, SVG Export Plug-In . SVG Version: 6.00 Build 0)  -->
<!DOCTYPE svg PUBLIC "-//W3C//DTD SVG 1.1//EN" "http://www.w3.org/Graphics/SVG/1.1/DTD/svg11.dtd">
<svg version="1.1" id="Layer_1" xmlns="http://www.w3.org/2000/svg" xmlns:xlink="http://www.w3.org/1999/xlink" x="0px" y="0px"
	 viewBox="0 0 48 48" enable-background="new 0 0 48 48" xml:space="preserve">
<g>
	<ellipse fill="#FF7058" cx="23.9" cy="16.1" rx="8.1" ry="6.3"/>
	<path fill="#F1543F" d="M34.1,9.8c-3.6-0.6-7.3,1.7-10.1,5.8c-2.8-4-6.5-6.3-10.1-5.8c-6.3,1-9.9,10.3-8.1,20.8
		c1.8,10.5,8.3,18.3,14.6,17.3c0.1,0,0.3,0,0.4-0.1c2.1-0.5,4.3-0.5,6.5,0c0.1,0,0.3,0.1,0.4,0.1c6.3,1,12.8-6.8,14.6-17.3
		C44,20.1,40.3,10.8,34.1,9.8z"/>
	<path fill="#FFD15C" d="M34.3,1.9c-0.2-0.9-0.9-1.7-1.8-1.9c-0.9-0.2-1.7,0.1-2.2,0.7c-0.7,0.7-1.7,1.3-2.6,1.7l-1,0.4
		c-2.5,1-4.1,3.5-4.1,6.1v2.7c-2,0.6-3.5,2.2-3.5,4.1c0,2.4,10.1,2.4,10.1,0c0-2-1.6-3.6-3.7-4.1V9c0-1.5,0.9-2.9,2.3-3.4L28,5.4
		c1.3-0.5,2.6-0.7,4-0.7c0,0,0,0,0,0C33.5,4.8,34.6,3.5,34.3,1.9z"/>
	<path fill="#FF7058" d="M33,15.8c-1.6-2-9.1,0-9.1,0s-7.5-2-9.1,0c-3.9,4.9-3.9,23,0,27.9c0.6,0.8,2.2,1,3.9,0.9
		c1.7-0.1,3.5-0.9,5.2-0.9c1.7,0,3.5,0.8,5.2,0.9c1.7,0.1,3.2-0.1,3.9-0.9C36.8,38.8,36.8,20.8,33,15.8z"/>
</g>
</svg>
