<?xml version="1.0" encoding="utf-8"?>
<!-- Generator: Adobe Illustrator 18.0.0, SVG Export Plug-In . SVG Version: 6.00 Build 0)  -->
<!DOCTYPE svg PUBLIC "-//W3C//DTD SVG 1.1//EN" "http://www.w3.org/Graphics/SVG/1.1/DTD/svg11.dtd">
<svg version="1.1" id="Layer_1" xmlns="http://www.w3.org/2000/svg" xmlns:xlink="http://www.w3.org/1999/xlink" x="0px" y="0px"
	 viewBox="0 0 48 48" enable-background="new 0 0 48 48" xml:space="preserve">
<g>
	<g>
		<g>
			<g>
				<g>
					<g>
						<path fill="#F3F3F3" d="M31.4,29.1v17c0,1,0.8,1.8,1.8,1.8h11.4c1,0,1.8-0.8,1.8-1.8v-17H31.4z"/>
					</g>
				</g>
				<g>
					<g>
						<path fill="#F3F3F3" d="M31.3,29.3h15.1c0.9,0,1.6-0.7,1.6-1.6v0c0-0.9-0.7-1.6-1.6-1.6H31.3c-0.9,0-1.6,0.7-1.6,1.6v0
							C29.8,28.7,30.5,29.3,31.3,29.3z"/>
					</g>
				</g>
				<g>
					<g>
						<g>
							<g>
								<rect x="33.2" y="37.1" fill="#FFD15C" width="11.4" height="9"/>
							</g>
						</g>
					</g>
				</g>
				<g>
					<g>
						<g>
							<rect x="41.3" y="32.3" fill="#415A6B" width="2.2" height="0.8"/>
						</g>
					</g>
					<g>
						<g>
							<rect x="41.3" y="35.1" fill="#415A6B" width="2.2" height="0.8"/>
						</g>
					</g>
					<g>
						<g>
							<rect x="41.3" y="37.8" fill="#415A6B" width="2.2" height="0.8"/>
						</g>
					</g>
					<g>
						<g>
							<rect x="41.3" y="40.6" fill="#415A6B" width="2.2" height="0.8"/>
						</g>
					</g>
					<g>
						<g>
							<rect x="41.3" y="43.4" fill="#415A6B" width="2.2" height="0.8"/>
						</g>
					</g>
				</g>
			</g>
			<g>
				<g>
					<circle fill="#F3F3F3" cx="14.5" cy="33.5" r="14.5"/>
				</g>
				<g>
					<rect x="9.7" y="3.3" fill="#F3F3F3" width="9.6" height="16.9"/>
					
						<rect x="23.2" y="18.7" transform="matrix(0.707 -0.7072 0.7072 0.707 -7.7215 25.0124)" fill="#F3F3F3" width="6.2" height="6.3"/>
				</g>
				<g>
					<path fill="#8AD7F8" d="M2.4,33.5c0,6.7,5.4,12.1,12.1,12.1c6.7,0,12.1-5.4,12.1-12.1H2.4z"/>
				</g>
				<g>
					<g>
						<g>
							<g>
								<path fill="#F3F3F3" d="M19.3,3.6H9.7c-1,0-1.8-0.8-1.8-1.8S8.7,0,9.7,0h9.6c1,0,1.8,0.8,1.8,1.8S20.3,3.6,19.3,3.6z"/>
							</g>
						</g>
					</g>
				</g>
				<g>
					<g>
						<g>
							<g>
								<path fill="#CED6E0" d="M39.4,32.6h-1V17.9c0-1.3-0.7-2.4-1.9-2.9c-1.2-0.5-2.5-0.2-3.4,0.7L22.5,26.3l-0.7-0.7L32.4,15
									c1.2-1.2,2.9-1.5,4.5-0.9c1.6,0.6,2.5,2.1,2.5,3.8V32.6z"/>
							</g>
						</g>
					</g>
					<g>
						<g>
							<g>
								<g>
									
										<rect x="26" y="18.7" transform="matrix(-0.707 0.7072 -0.7072 -0.707 61.5239 15.8547)" fill="#415A6B" width="2.9" height="3.9"/>
								</g>
							</g>
						</g>
						<g>
							<g>
								<g>
									<path fill="#415A6B" d="M30.3,22.4l-4.5-4.5c-0.5-0.5-0.5-1.2,0-1.7c0.5-0.5,1.2-0.5,1.7,0l4.5,4.5c0.5,0.5,0.5,1.2,0,1.7
										C31.5,22.8,30.7,22.8,30.3,22.4z"/>
								</g>
							</g>
						</g>
					</g>
				</g>
			</g>
		</g>
		<circle fill="#8AD7F8" cx="11.6" cy="27.5" r="1.9"/>
		<circle fill="#55C0EB" cx="15.4" cy="40.4" r="1.9"/>
		<circle fill="#55C0EB" cx="9.7" cy="36.7" r="0.9"/>
		<circle fill="#8AD7F8" cx="16.3" cy="23.5" r="0.9"/>
		<circle fill="#8AD7F8" cx="20.9" cy="30.8" r="1.5"/>
		<g>
			<circle fill="#F7B64C" cx="36.1" cy="40.1" r="0.9"/>
		</g>
		<g>
			<circle fill="#F7B64C" cx="40.1" cy="42.6" r="0.6"/>
		</g>
		<g>
			<circle fill="#F7B64C" cx="36.9" cy="44.9" r="0.5"/>
		</g>
	</g>
</g>
</svg>
