<?xml version="1.0" encoding="utf-8"?>
<!-- Generator: Adobe Illustrator 16.0.0, SVG Export Plug-In . SVG Version: 6.00 Build 0)  -->
<!DOCTYPE svg PUBLIC "-//W3C//DTD SVG 1.1//EN" "http://www.w3.org/Graphics/SVG/1.1/DTD/svg11.dtd">
<svg version="1.1" id="Layer_1" xmlns="http://www.w3.org/2000/svg" xmlns:xlink="http://www.w3.org/1999/xlink" x="0px" y="0px"
	 width="48px" height="48px" viewBox="0 0 48 48" enable-background="new 0 0 48 48" xml:space="preserve">
<g>
	<path fill="#334A5E" d="M48,38.12V48H0v-9.88c0-1.91,1.17-3.63,2.95-4.32l12.06-3.88l1.9-0.61H31.1l1.891,0.61l12.07,3.88
		C46.83,34.5,48,36.209,48,38.12"/>
	<path fill="#F8B64C" d="M31.094,29.309l0.001-0.002v-5.188H16.908v5.194C20.684,33.561,27.322,33.559,31.094,29.309"/>
	<path fill="#FFD15C" d="M34.36,10.292v3.399c0,0.06-0.091,3.315-0.89,5.61c-0.936,2.682-2.28,5.21-4.211,7.32l-0.99,1.08
		c-0.899,0.989-2.18,1.549-3.52,1.549h-1.5c-1.33,0-2.609-0.569-3.51-1.549l-0.98-1.08c-1.369-1.49-2.49-3.19-3.319-5
		c-0.72-1.551-1.79-4.584-1.79-8.16v-3.11c0-1.987,0.67-3.69,0.85-4.09C16.08,2.581,19.74,0,24.01,0c4.25,0,7.91,2.57,9.49,6.24
		C33.68,6.651,34.36,8.208,34.36,10.292"/>
	<path fill="#F8B64C" d="M16.88,13.836c0.157,1.795-0.714,3.338-1.945,3.445s-2.358-1.261-2.515-3.056
		c-0.157-1.795,0.714-3.337,1.945-3.444C15.597,10.672,16.723,12.042,16.88,13.836"/>
	<path fill="#F8B64C" d="M35.59,14.226c-0.156,1.796-1.283,3.163-2.514,3.056c-1.232-0.108-2.104-1.65-1.945-3.445
		c0.156-1.795,1.282-3.163,2.515-3.055C34.877,10.888,35.747,12.431,35.59,14.226"/>
	<path fill="#FFD15C" d="M34.36,10.292v3.399c0,0.06-0.091,3.315-0.89,5.61c-0.936,2.682-2.28,5.21-4.211,7.32l-0.99,1.08
		c-0.899,0.989-2.18,1.549-3.52,1.549h-1.5c-1.33,0-2.609-0.569-3.51-1.549l-0.98-1.08c-1.369-1.49-2.49-3.19-3.319-5
		c-0.72-1.551-1.79-4.584-1.79-8.16v-3.11c0-1.987,0.67-3.69,0.85-4.09C16.08,2.581,19.74,0,24.01,0c4.25,0,7.91,2.57,9.49,6.24
		C33.68,6.651,34.36,8.208,34.36,10.292"/>
	<g opacity="0.1">
		<g>
			<defs>
				<rect id="SVGID_91_" x="23.17" y="24.483" width="7.925" height="7.571"/>
			</defs>
			<clipPath id="SVGID_2_">
				<use xlink:href="#SVGID_91_"  overflow="visible"/>
			</clipPath>
			<path clip-path="url(#SVGID_2_)" fill="#40596B" d="M29.26,26.627l-0.99,1.08c-0.899,0.99-2.18,1.551-3.52,1.551h-1.5
				c-0.027,0-0.054-0.008-0.08-0.01l3.727,2.806c1.562-0.498,3.02-1.411,4.197-2.738v-0.001l0.002-4.832
				c-0.072,0.039-0.162,0.082-0.244,0.123C30.363,25.309,29.842,25.991,29.26,26.627"/>
		</g>
	</g>
	<path fill="#F2F2F2" d="M24.01,0c-4.27,0-7.93,2.58-9.51,6.261c-0.18,0.399-0.85,2.103-0.85,4.09v2.651
		c0.201-0.107,0.417-0.209,0.666-0.295c0,0,0.568-9.049,4.297-6.943c3.727,2.105,5.378,1.792,5.378,1.792s1.679,0.313,5.405-1.792
		c3.729-2.105,4.27,6.943,4.27,6.943c0.26,0.09,0.485,0.197,0.694,0.31v-2.726c0-2.084-0.681-3.641-0.86-4.051
		C31.92,2.571,28.26,0,24.01,0"/>
	<path fill="#2B4354" d="M34.46,30.389c-0.12,0.19-0.25,0.381-0.399,0.551c-2.211,2.51-5.301,4.08-8.61,4.439
		c-0.479,0.051-0.96,0.08-1.45,0.08s-0.97-0.029-1.449-0.08C19.24,35.02,16.16,33.44,13.92,30.93c-0.15-0.181-0.27-0.36-0.38-0.541
		l1.47-0.47l1.9-0.61c1.54,1.73,3.55,2.761,5.641,3.08c0.959,0.141,1.939,0.141,2.899,0c2.09-0.319,4.101-1.35,5.64-3.08h0.01
		l1.891,0.61L34.46,30.389z"/>
	<path fill="#F2F2F2" d="M25.45,32.389v2.99c-0.479,0.051-0.96,0.08-1.45,0.08s-0.97-0.029-1.449-0.08v-2.99
		C23.51,32.53,24.49,32.53,25.45,32.389"/>
	<path fill="#CDD6E0" d="M38.785,31.782l-0.961-0.309c-2.557,5.004-7.783,8.45-13.818,8.45c-6.037,0-11.266-3.446-13.82-8.452
		l-0.961,0.311c2.623,5.263,8.007,8.933,14.271,9.123v1.673h-2.201v1h2.201v3.459h1v-3.459h2.201v-1h-2.201v-1.673
		C30.768,40.721,36.159,37.05,38.785,31.782"/>
</g>
</svg>
