<?xml version="1.0" encoding="utf-8"?>
<!-- Generator: Adobe Illustrator 18.0.0, SVG Export Plug-In . SVG Version: 6.00 Build 0)  -->
<!DOCTYPE svg PUBLIC "-//W3C//DTD SVG 1.1//EN" "http://www.w3.org/Graphics/SVG/1.1/DTD/svg11.dtd">
<svg version="1.1" id="Layer_1" xmlns="http://www.w3.org/2000/svg" xmlns:xlink="http://www.w3.org/1999/xlink" x="0px" y="0px"
	 viewBox="0 0 48 48" enable-background="new 0 0 48 48" xml:space="preserve">
<g>
	<g>
		<path fill="#415A6B" d="M29.3,48H4c-2.2,0-4-1.8-4-4V4c0-2.2,1.8-4,4-4h25.3c2.2,0,4,1.8,4,4v40C33.3,46.2,31.5,48,29.3,48z"/>
		<rect x="4" y="4" fill="#FFFFFF" width="25.3" height="34.7"/>
		<path fill="#8AD7F8" d="M45,5.2H20.7c-1.7,0-3,1.3-3,3v17.1c0,1.7,1.3,3,3,3h1.8v6l11.1-6H45c1.7,0,3-1.3,3-3V8.2
			C48,6.5,46.7,5.2,45,5.2z"/>
		<g>
			<path fill="#344A5E" d="M19,41.7h-4.6c-0.9,0-1.7,0.7-1.7,1.7v0c0,0.9,0.7,1.7,1.7,1.7H19c0.9,0,1.7-0.7,1.7-1.7v0
				C20.6,42.4,19.9,41.7,19,41.7z"/>
		</g>
	</g>
	<g>
		<g>
			<g>
				<rect x="27" y="16.9" fill="#FFFFFF" width="11.8" height="8.2"/>
			</g>
			<polygon fill="#F3705A" points="41.4,16.9 24.4,16.9 32.9,8.4 			"/>
		</g>
		<rect x="31.1" y="20.7" fill="#415A6B" width="3.5" height="4.4"/>
	</g>
</g>
</svg>
