<?xml version="1.0" encoding="utf-8"?>
<!-- Generator: Adobe Illustrator 18.0.0, SVG Export Plug-In . SVG Version: 6.00 Build 0)  -->
<!DOCTYPE svg PUBLIC "-//W3C//DTD SVG 1.1//EN" "http://www.w3.org/Graphics/SVG/1.1/DTD/svg11.dtd">
<svg version="1.1" id="Layer_1" xmlns="http://www.w3.org/2000/svg" xmlns:xlink="http://www.w3.org/1999/xlink" x="0px" y="0px"
	 viewBox="0 0 48 48" enable-background="new 0 0 48 48" xml:space="preserve">
<g>
	<path fill="#40596B" d="M41.4,37.2H6.6c-2.9,0-5.5-2.1-5.9-5c-0.8-5.4-0.8-10.9,0-16.3c0.5-2.9,3-5,5.9-5h34.9c2.9,0,5.5,2.1,5.9,5
		c0.8,5.4,0.8,10.9,0,16.3C46.9,35,44.4,37.2,41.4,37.2z"/>
	<g>
		<path fill="#CDD6E0" d="M7.9,22.8H6.8v-1.1c0-0.7-0.6-1.2-1.2-1.2h0c-0.7,0-1.2,0.6-1.2,1.2v1.1H3.2c-0.7,0-1.2,0.6-1.2,1.2l0,0
			c0,0.7,0.6,1.2,1.2,1.2h1.1v1.1c0,0.7,0.6,1.2,1.2,1.2h0c0.7,0,1.2-0.6,1.2-1.2v-1.1h1.1c0.7,0,1.2-0.6,1.2-1.2l0,0
			C9.2,23.3,8.6,22.8,7.9,22.8z"/>
		<g>
			<path fill="#CDD6E0" d="M42.4,27.6L42.4,27.6c0.7,0,1.3-0.5,1.3-1.2l0,0c0-0.7-0.5-1.2-1.2-1.2h-0.1c-0.7,0-1.2,0.5-1.2,1.2l0,0
				C41.2,27.1,41.8,27.6,42.4,27.6z"/>
			<path fill="#CDD6E0" d="M42.5,20.4L42.5,20.4c-0.7,0-1.3,0.5-1.3,1.2l0,0c0,0.7,0.5,1.2,1.2,1.2h0.1c0.7,0,1.2-0.5,1.2-1.2l0,0
				C43.7,20.9,43.2,20.4,42.5,20.4z"/>
			<path fill="#CDD6E0" d="M38.8,24L38.8,24c0,0.7,0.5,1.3,1.2,1.3l0,0c0.7,0,1.2-0.5,1.2-1.2V24c0-0.7-0.5-1.2-1.2-1.2l0,0
				C39.4,22.8,38.8,23.3,38.8,24z"/>
			<path fill="#CDD6E0" d="M44.9,22.8L44.9,22.8c-0.7,0-1.2,0.5-1.2,1.2V24c0,0.7,0.5,1.2,1.2,1.2l0,0c0.7,0,1.2-0.5,1.2-1.2V24
				C46.1,23.3,45.5,22.8,44.9,22.8z"/>
		</g>
	</g>
	<path fill="#84DBFF" d="M11.2,33.1c0-6.1,0-12.1,0-18.2h25.6c0,6.1,0,12.1,0,18.2l0,0C36.8,33.1,11.2,33.1,11.2,33.1L11.2,33.1z"/>
	<g>
		<polygon fill="#FFFFFF" points="16.9,14.9 11.2,20.6 11.2,18.9 15.2,14.9 		"/>
		<polygon fill="#FFFFFF" points="23.3,14.9 11.2,27 11.2,23.3 19.6,14.9 		"/>
	</g>
</g>
</svg>
