<?xml version="1.0" encoding="utf-8"?>
<!-- Generator: Adobe Illustrator 18.0.0, SVG Export Plug-In . SVG Version: 6.00 Build 0)  -->
<!DOCTYPE svg PUBLIC "-//W3C//DTD SVG 1.1//EN" "http://www.w3.org/Graphics/SVG/1.1/DTD/svg11.dtd">
<svg version="1.1" id="Layer_1" xmlns="http://www.w3.org/2000/svg" xmlns:xlink="http://www.w3.org/1999/xlink" x="0px" y="0px"
	 viewBox="0 0 48 48" enable-background="new 0 0 48 48" xml:space="preserve">
<g>
	<path fill="#F2F2F2" d="M35.1,0H6C4.9,0,4,0.9,4,2v44c0,1.1,0.9,2,2,2h36c1.1,0,2-0.9,2-2V8.9L35.1,0z"/>
	<path fill="#CDD6E0" d="M35.1,7.3c0,0.9,0.7,1.6,1.6,1.6H44L35.1,0V7.3z"/>
	<rect x="22.8" y="11.4" fill="#FFD15C" width="17.5" height="2.3"/>
	<rect x="8" y="19" fill="#CDD6E0" width="32.3" height="2.3"/>
	<rect x="8" y="26.7" fill="#CDD6E0" width="32.2" height="2.3"/>
	<rect x="8" y="34.3" fill="#4CDBC4" width="13.6" height="2.3"/>
	<rect x="8" y="4" fill="#FF7058" width="10.7" height="11.1"/>
	<polygon fill="#FFFFFF" points="17.3,8.5 14.3,8.5 14.3,5.5 12.3,5.5 12.3,8.5 9.3,8.5 9.3,10.5 12.3,10.5 12.3,13.5 14.3,13.5 
		14.3,10.5 17.3,10.5 	"/>
	<g>
		<g>
			<polygon fill="#FF7058" points="39.8,44.7 37.8,44.7 36.8,46.4 33.4,40.6 36.4,38.9 			"/>
			<polygon fill="#FF7058" points="27.8,44.7 29.8,44.7 30.8,46.4 34.1,40.6 31.2,38.9 			"/>
		</g>
		<path fill="#FFD15C" d="M40.2,37c0,0.7-0.8,1.2-1,1.8c-0.2,0.6,0.1,1.5-0.2,2c-0.4,0.5-1.3,0.5-1.9,0.8c-0.5,0.4-0.8,1.3-1.4,1.5
			c-0.6,0.2-1.3-0.4-2-0.4c-0.7,0-1.4,0.6-2,0.4c-0.6-0.2-0.9-1.1-1.4-1.5c-0.5-0.4-1.5-0.3-1.9-0.8c-0.4-0.5,0-1.4-0.2-2
			c-0.2-0.6-1-1.1-1-1.8c0-0.7,0.8-1.2,1-1.8c0.2-0.6-0.1-1.5,0.2-2c0.4-0.5,1.3-0.5,1.9-0.8c0.5-0.4,0.8-1.3,1.4-1.5
			c0.6-0.2,1.3,0.4,2,0.4c0.7,0,1.4-0.6,2-0.4c0.6,0.2,0.9,1.1,1.4,1.5c0.5,0.4,1.5,0.3,1.9,0.8c0.4,0.5,0,1.4,0.2,2
			C39.4,35.9,40.2,36.4,40.2,37z"/>
		<circle fill="#F8B64C" cx="33.8" cy="37" r="4.2"/>
	</g>
</g>
</svg>
