<?xml version="1.0" encoding="utf-8"?>
<!-- Generator: Adobe Illustrator 18.0.0, SVG Export Plug-In . SVG Version: 6.00 Build 0)  -->
<!DOCTYPE svg PUBLIC "-//W3C//DTD SVG 1.1//EN" "http://www.w3.org/Graphics/SVG/1.1/DTD/svg11.dtd">
<svg version="1.1" id="Layer_1" xmlns="http://www.w3.org/2000/svg" xmlns:xlink="http://www.w3.org/1999/xlink" x="0px" y="0px"
	 viewBox="0 0 48 48" enable-background="new 0 0 48 48" xml:space="preserve">
<g>
	<g>
		<g>
			<g>
				<g>
					<g>
						<path fill="#FFD15C" d="M18.6,26.3l-0.6-0.4c0,0-0.1,0,0-0.2c0-0.2,0.1-0.9,0.1-0.9s0-0.2,0.2-0.4c0.2-0.2,0.6-0.8,0.6-0.8
							s0.5-0.5,0.5-0.8c0.1-0.3,0.8-2.2,0.8-2.2l0.3,3L18.6,26.3z"/>
					</g>
				</g>
			</g>
			<g>
				<g>
					<g>
						<g>
							<g>
								<g>
									<path fill="#344A5E" d="M20.8,33.2c-0.2,0.5,0.1,1,0.4,1.4l0,0c0,0,0.4,0.1,0.3,0.4c0.1,0.1,0.2,0.2,0.2,0.2l-2.6,2
										c0,0-0.8-0.8-1.4-1.8c-0.5-1-0.6-2.6-0.6-2.6l0.1-1.6c0.5-3.6,2-7.1,2-7.1l0.7-0.8l4.8,0.9L22.6,30
										C22.6,30,21.2,32.3,20.8,33.2z"/>
								</g>
							</g>
						</g>
					</g>
				</g>
				<g>
					<g>
						<g>
							<path fill="#425A6B" d="M21.6,24.4c0,0,0.4,5.5,0.6,6.8c0.2,1.3,0.2,2.1,0.6,2.7c0,0-0.2,0.3,0.1,0.5c0,0,0.3,0.3,0.1,0.6
								c-0.2,0.3,0.2,0.5,0.2,0.5s1.2,5.2,1.1,6.1l2.7-0.5c0,0,0.3-4.7-0.3-5c0,0-0.2-0.9-0.4-1c0,0,0.1-0.2,0-0.4
								c0,0-0.1-0.2,0-0.3c0.1-0.1-0.1-0.4-0.1-0.4s0.2-2.1,0.4-2.9c0.2-0.8,0.1-1.9,0.1-1.9s0.3-1.6,0.8-2.2s1.4-2.7,0-4.4
								C27.5,22.6,21.7,22.9,21.6,24.4z"/>
						</g>
					</g>
				</g>
				<g>
					<g>
						<g>
							<g>
								<path fill="#344A5E" d="M19.4,47.3l-0.1,0.2l0,0c0,0.1,0.1,0.1,0.2,0.1c0.2,0,0.7,0,0.9,0c0.3-0.1,0.9-0.2,1.4-0.4
									c0.5-0.2,1.4-0.6,1.7-0.9c0.4-0.3,1-0.8,1-0.8l0.1,0.2c0,0.1,0.1,0.1,0.2,0l1.1-0.8c0,0,0.1-0.1,0-0.1l-0.3-0.5L19.4,47.3z"
									/>
							</g>
						</g>
					</g>
					<g>
						<g>
							<g>
								<path fill="#48B9A5" d="M17.6,35.3c0,0,0,0.2,0.9-0.1c0.9-0.3,1.8-0.7,1.8-0.7s0.6-0.2,0.7,0.1c0.2,0.3,0.3,0.6,0.3,0.6
									s0.3-0.5-0.2-0.6c0,0,0.3-0.1,0.4,0.2c0.1,0.3,1,1.6,1.2,2.5c0.3,0.9,0.9,3,0.9,3s0.3,0.6,0.2,1.1c0,0,0.5,1.5,0.7,1.8
									c0.2,0.2,0.8,0.8,0.8,0.8s0.5,0.5,0.2,0.8c-0.2,0.2-0.5,0.4-0.7,0.5c-0.2,0.1-0.4,0.3-0.6,0.4c-0.3,0.3-0.9,0.7-1.5,1
									l-0.5,0.3c-0.2,0.1-0.5,0.2-0.7,0.3c-0.4,0.1-1.1,0.3-1.5,0.3c-0.6,0-0.7,0-0.7,0s-0.2-0.5,0.3-0.8c0.5-0.3,0.9-0.8,1.1-1
									c0.2-0.3,0.8-1.2,0.8-1.2s-0.3-0.2,0-0.9c0,0-0.4-1.2-0.4-1.3c0,0-0.2-0.3-0.1-0.6c0,0-0.3-0.2-0.4-1
									C20.1,39.1,19,37.3,17.6,35.3z"/>
							</g>
						</g>
					</g>
				</g>
				<g>
					<g>
						<g>
							<path fill="#425A6B" d="M20.5,47.2l-0.2,0.1l0,0c0,0.1,0,0.2,0.1,0.2c0.2,0.1,0.6,0.3,0.8,0.3c0.3,0,0.9,0.2,1.4,0.1
								c0.5,0,1.5-0.1,2-0.2c0.5-0.2,1.2-0.3,1.2-0.3v0.2c0,0.1,0.1,0.1,0.1,0.1l1.3-0.4c0,0,0.1-0.1,0.1-0.1l-0.1-0.6L20.5,47.2z"
								/>
						</g>
					</g>
				</g>
				<g>
					<g>
						<g>
							<path fill="#67C5B8" d="M23.2,35.4c0,0-0.1,0.2,0.8,0.2c0.9,0.1,1.9,0,1.9,0s0.6,0,0.6,0.4c0,0.4,0.1,0.6,0.1,0.6
								s0.5-0.3,0.1-0.6c0,0,0.3,0,0.3,0.3c0,0.3,0.3,1.9,0.2,2.8c-0.1,0.9-0.3,3.1-0.3,3.1s0,0.7-0.2,1.1c0,0-0.1,1.6,0,1.9
								c0.1,0.3,0.4,1,0.4,1s0.3,0.6-0.1,0.8c-0.3,0.1-0.6,0.2-0.9,0.2c-0.2,0-0.4,0.1-0.7,0.2c-0.4,0.1-1.1,0.3-1.7,0.4l-0.6,0.1
								c-0.3,0-0.5,0-0.8,0c-0.4,0-1.1-0.1-1.5-0.2c-0.6-0.2-0.6-0.2-0.6-0.2s0-0.5,0.6-0.7c0.6-0.1,1.2-0.4,1.4-0.5
								c0.2-0.2,1.2-0.8,1.2-0.8s-0.2-0.3,0.4-0.8c0,0,0.1-1.2,0.2-1.4c0,0-0.1-0.3,0.1-0.6c0,0-0.2-0.3,0-1
								C24.1,39.9,23.8,37.8,23.2,35.4z"/>
						</g>
					</g>
				</g>
				<g>
					<g>
						<g>
							<g>
								<path fill="#F05640" d="M24.2,5c0.1,0.9,0.2,1.8,0.3,2.7c0.1,0.5,0.1,1,0,1.4c-0.2,0.7-0.7,1.3-1.2,1.8
									c-0.3,0.3-0.6,0.6-1,1c-0.1,0.1-0.2,0.2-0.4,0.2c0.3-0.2,0.4-0.5,0.4-0.8c-0.2,0.4-0.5,0.8-0.8,1.1
									c-0.1-0.2-0.1-0.4-0.1-0.6c0.1-0.2,0.1-0.4,0.2-0.6c0.3-0.6,0.4-1.2,0.4-1.8c0.1-1.2,0.4-2.3,0.7-3.5c0.1-0.4,0.2-0.7,0.5-1
									c0.2-0.3,0.6-0.5,1-0.5"/>
							</g>
						</g>
					</g>
					<g>
						<g>
							<g>
								<g>
									<g>
										<path fill="#344A5E" d="M20.8,2.4c0,0,0.3,1.5,1.6,2.7c1.3,1.2,1.3,1.4,1.3,1.4l3.4,0.9c0,0,2.6-1.1,3.2-0.6
											c0,0,0.9-1.5,0.4-2.5c0,0-0.3-0.3-1.3-0.5c-1-0.2-1-0.2-1-0.2l-1.5-0.8l-1.8-1l-1.3-0.2c0,0-0.6-0.1-1.1,0.2l-0.9,0.2
											L20.8,2.4z"/>
									</g>
								</g>
							</g>
						</g>
						<g>
							<g>
								<g>
									<path fill="#344A5E" d="M23.9,1.7c0,0,0.5-1,0.9-1.3c0.4-0.3,1.4-0.7,2.4-0.1c1.1,0.6,1.4,1.3,1.4,2.1s-0.2,1.1-0.2,1.1
										S25,1.6,23.9,1.7z"/>
								</g>
							</g>
						</g>
					</g>
					<g>
						<g>
							<g>
								<path fill="#F5B54C" d="M27.2,5.7c0,0-0.1,2,1.3,3.4l-4.7,3.2l-1.7-0.1L23,10c0,0,0.1-0.7,1.2-0.7l-0.2-2.2L27.2,5.7z"/>
							</g>
						</g>
					</g>
					<g>
						<g>
							<g>
								<path fill="#E8EAE8" d="M23.2,8.8c0,0-0.9,2.3,0.3,2.5c0,0,1.6-0.8,2.3-1.4C26.6,9.3,28,8.8,28,8.8s0.2,0,0.2-0.2
									c0,0,1.1,1,1.5,1.7c0.4,0.7,0.7,1.9,0.6,2.3L30,15.3c0,0-0.2,1.6-0.3,1.8c-0.1,0.2,0,0.3,0,0.3s0.1,0.1,0,0.2
									c-0.1,0.2-0.2,0.1-0.1,0.2c0.1,0.2,0.3,0.2,0.2,0.3c-0.2,0.2-0.3,0.7-0.3,1.2c0,0.4-0.5,1.6-0.5,1.6l-0.6,1.6l0.2,2.7
									c0,0-1.2,0.2-2.3-1.1c0,0-2.8,1.9-6.1,1.2c0,0-0.1-0.2-0.5-0.8c-0.4-0.6-0.3-1.1-0.3-1.1s0.4-0.3,0.4-0.9
									c0.1-0.6,0.8-5.3,0.8-5.3s0.4-1.7,0.4-2.2c0-0.5-0.3-1.7,0.6-2.9c0,0,0.7-1.2,0.8-3.1C22.3,9.3,23,8.6,23.2,8.8z"/>
							</g>
						</g>
					</g>
					<g>
						<g>
							<g>
								<path fill="#FFD15C" d="M25.8,2.3c-0.2,0-0.5-0.3-0.6-0.2c-0.6,0.1-1.6,0.8-1.9,2c0,0-0.3,1.2,0,1.9
									c0.2,0.3,0.2,0.6,0.2,0.7c0,0.2,0.1,0.4,0.2,0.6c0.1,0.1,0.3,0.3,0.5,0.3c0.5,0.1,2.1,0.1,3-2c0.1-0.2,0.1-0.4,0.1-0.5
									l-0.1-1.6c0-0.5-0.4-0.9-0.8-1L25.8,2.3z"/>
							</g>
						</g>
					</g>
					<g>
						<g>
							<g>
								<g>
									<g>
										<path fill="#F26F5A" d="M28.1,3.5l-1.7-1c-0.1,0.6,0.2,1.3,0.4,1.9c0.3,0.7,0.5,1.4,0.3,2.1c-0.1,0.6-0.6,1.2-1.1,1.6
											c-0.5,0.4-1,0.8-1.4,1.4c-0.4,0.5-0.5,1.3-0.2,1.9c-0.1-0.4-0.1-0.9,0.1-1.3c0-0.1,0.1-0.1,0.1-0.2c0,0.1-0.1,0.1-0.1,0.2
											c-0.1,0.1-0.1,0.3,0,0.5c0,0.2,0.1,0.5,0.2,0.7c0,0.2-0.1,0.5-0.3,0.6c0.4-0.2,0.9-0.4,1.3-0.5c0.5-0.2,1.1-0.4,1.4-0.9
											c0.2-0.3,0.3-0.6,0.4-1c0.2-0.6,0.4-1.2,0.6-1.8c0.1,0.4,0,0.8-0.3,1c0.3-0.1,0.5-0.4,0.5-0.7c0-0.3-0.1-0.6-0.1-0.9
											c0-0.4,0.2-0.8,0.3-1.3c0.2-0.7,0-1.5-0.3-2.2C28.2,3.6,28.1,3.6,28.1,3.5z"/>
									</g>
								</g>
							</g>
							<g>
								<g>
									<path fill="#F26F5A" d="M24.5,1.8c-0.6-0.2-1.3,0.1-1.6,0.7c0,0,0,0,0,0c-0.3,0.6-0.4,1.3-0.3,2c0.1,0.5,0.2,1,0.1,1.4
										c-0.1,0.9-0.9,1.6-1,2.5c-0.1,0.5,0.2,1.1,0.3,1.6c0.1,0.5,0,1.2-0.4,1.5c0.1,0,0.3-0.1,0.3-0.2c0.1-0.1,0.1-0.2,0.1-0.4
										c0.2-0.5,0.5-1,1-1.3c0,0.5-0.3,0.9-0.8,1c0.4,0.1,0.9-0.1,1.1-0.5c0.2-0.4,0.3-0.8,0.3-1.2c0,0,0-0.1,0-0.1
										C23.5,8.9,23.4,9,23.4,9c0.1-0.1,0.2-0.2,0.3-0.3c0-0.3,0.1-0.5,0.1-0.8c0.1,0.3,0,0.6-0.1,0.9c0,0,0,0,0.1,0
										c0.2-0.2,0.3-0.6,0.3-0.9c-0.1-0.4-0.3-0.8-0.4-1.3c-0.3-0.9-0.2-1.9,0.2-2.8c0.4-0.8,1-1.4,1.8-1.7
										C25.2,2,24.8,1.9,24.5,1.8z"/>
								</g>
							</g>
						</g>
						<g>
							<g>
								<g>
									<g>
										<path fill="#F26F5A" d="M22.7,4.6C22.7,4.6,22.7,4.6,22.7,4.6c0,0.1,0.1,0.1,0.1,0.2c0,0.1,0,0.1,0.1,0.2
											c0,0.1,0,0.2,0,0.3c0,0.2,0,0.5-0.1,0.7c0,0.1-0.1,0.2-0.2,0.4c-0.1,0.1-0.1,0.2-0.2,0.3c-0.1,0.1-0.2,0.2-0.2,0.3
											C22,7.2,22,7.3,21.9,7.4c-0.1,0.2-0.2,0.5-0.2,0.7c0,0.1,0,0.2,0,0.3c0,0,0,0.1,0,0.1c0,0,0,0.1,0,0.1c0,0.1,0,0.1,0,0.1
											c0,0,0,0,0,0s0,0,0,0c0,0,0-0.1,0-0.1c0,0,0-0.1,0-0.1c0,0,0-0.1,0-0.1c0-0.1,0-0.2,0-0.3c0-0.2,0.1-0.4,0.2-0.7
											C21.9,7.3,22,7.1,22.1,7c0.1-0.1,0.2-0.2,0.2-0.3c0.1-0.1,0.2-0.2,0.2-0.3c0.1-0.1,0.1-0.2,0.2-0.4
											c0.1-0.2,0.1-0.5,0.1-0.7c0-0.1,0-0.2,0-0.3c0-0.1,0-0.2,0-0.2C22.7,4.7,22.7,4.7,22.7,4.6C22.7,4.6,22.7,4.6,22.7,4.6z"
											/>
									</g>
								</g>
							</g>
							<g>
								<g>
									<g>
										<path fill="#F26F5A" d="M23.8,3.5C23.8,3.5,23.8,3.5,23.8,3.5c-0.1,0.1-0.1,0.1-0.1,0.2c0,0,0,0.1-0.1,0.1
											c0,0,0,0.1-0.1,0.1c0,0.1-0.1,0.2-0.1,0.4c0,0.1-0.1,0.3-0.1,0.4c0,0.2,0,0.3,0,0.5c0,0.2,0.1,0.4,0.1,0.5
											c0.1,0.2,0.1,0.3,0.2,0.5c0.2,0.3,0.3,0.7,0.4,1c0.1,0.2,0.1,0.3,0.1,0.5c0,0.2,0,0.3,0,0.5c0,0.1-0.1,0.3-0.2,0.3
											c-0.1,0.1-0.2,0.1-0.3,0.2c-0.1,0-0.1,0-0.2,0c0,0,0,0-0.1,0c0,0,0,0,0,0s0,0,0,0s0,0,0.1,0c0,0,0.1,0,0.2,0
											c0.1,0,0.2-0.1,0.2-0.2c0.1-0.1,0.1-0.2,0.2-0.3c0-0.1,0-0.3,0-0.4c0-0.2,0-0.3-0.1-0.5c-0.1-0.3-0.3-0.7-0.4-1
											c-0.1-0.2-0.2-0.3-0.2-0.5c-0.1-0.2-0.1-0.4-0.1-0.5c0-0.4,0-0.7,0.1-1c0-0.1,0.1-0.3,0.1-0.4c0-0.1,0-0.1,0.1-0.1
											c0,0,0-0.1,0.1-0.1C23.7,3.6,23.7,3.6,23.8,3.5C23.8,3.5,23.8,3.5,23.8,3.5z"/>
									</g>
								</g>
							</g>
							<g>
								<g>
									<g>
										<path fill="#F26F5A" d="M27.9,8.4C27.9,8.4,27.9,8.4,27.9,8.4c0,0.1-0.1,0.1-0.1,0.2c0,0.1-0.1,0.1-0.1,0.2
											c0,0,0,0.1,0,0.1c0,0.1,0,0.1,0,0.2c0,0.1-0.1,0.2-0.1,0.4c0,0.1-0.1,0.3-0.1,0.4c0,0.1-0.1,0.3-0.1,0.4
											c0,0,0,0.1-0.1,0.1c0,0,0,0.1-0.1,0.1c0,0,0,0.1-0.1,0.1c0,0,0,0,0,0l0,0c-0.1,0.1-0.2,0.2-0.4,0.3
											c-0.1,0.1-0.3,0.2-0.4,0.2c-0.3,0.1-0.5,0.2-0.7,0.3c-0.1,0-0.2,0.1-0.3,0.2c-0.1,0.1,0,0.2,0,0.2c0,0,0.1,0,0.1,0
											c0,0,0,0,0.1,0c0,0,0-0.1,0,0c0,0,0,0,0,0.1c0,0,0,0-0.1,0c0,0-0.1,0-0.1,0c-0.1,0-0.1-0.1,0-0.2c0.1-0.1,0.2-0.1,0.3-0.2
											c0.2-0.1,0.5-0.2,0.7-0.3c0.1-0.1,0.3-0.1,0.4-0.2c0.1-0.1,0.2-0.2,0.3-0.3l0,0c0,0,0,0,0,0c0,0,0-0.1,0.1-0.1
											c0,0,0-0.1,0.1-0.1c0,0,0-0.1,0-0.1c0.1-0.1,0.1-0.3,0.1-0.4c0-0.1,0.1-0.3,0.1-0.4c0-0.1,0-0.3,0.1-0.4
											c0-0.1,0-0.1,0-0.2c0-0.1,0-0.1,0-0.1c0-0.1,0.1-0.2,0.1-0.2c0-0.1,0.1-0.1,0.1-0.1C27.8,8.3,27.8,8.3,27.9,8.4L27.9,8.4z
											"/>
									</g>
								</g>
							</g>
							<g>
								<g>
									<g>
										<path fill="#F26F5A" d="M28.5,5.9C28.5,5.9,28.5,6,28.5,5.9C28.4,6,28.4,6,28.5,5.9c-0.1,0.1-0.1,0.1-0.1,0.2
											c0,0.1,0,0.1-0.1,0.2c0,0.1,0,0.2,0,0.3c0,0.1,0,0.2,0,0.4c0,0.1,0.1,0.3,0.1,0.4c0,0.1,0.1,0.3,0.1,0.4
											c0,0.1,0,0.3,0,0.5c0,0.2,0,0.3-0.1,0.4c-0.1,0.1-0.2,0.2-0.3,0.3c-0.1,0.1-0.2,0.2-0.3,0.3c-0.1,0.1-0.2,0.2-0.3,0.2
											c-0.1,0.1-0.1,0.2-0.2,0.2c0,0.1-0.1,0.2-0.1,0.2c0,0,0,0.1,0,0.1c0,0,0,0,0,0.1c0,0,0,0.1,0,0.1s0,0,0-0.1c0,0,0,0,0-0.1
											c0,0,0-0.1,0-0.1c0-0.1,0-0.1,0.1-0.2c0-0.1,0.1-0.2,0.2-0.3c0.1-0.1,0.2-0.2,0.3-0.3C28,9.2,28.1,9.1,28.2,9
											c0.1-0.1,0.2-0.2,0.2-0.3c0.1-0.1,0.1-0.3,0.1-0.4c0-0.1,0-0.3-0.1-0.4c0-0.1-0.1-0.3-0.1-0.4c0-0.1-0.1-0.3-0.1-0.4
											c0-0.1-0.1-0.2-0.1-0.4c0-0.1,0-0.2,0-0.3c0-0.1,0-0.2,0.1-0.2c0,0,0-0.1,0-0.1c0,0,0,0,0-0.1C28.4,5.9,28.4,5.9,28.5,5.9
											L28.5,5.9z"/>
									</g>
								</g>
							</g>
						</g>
					</g>
					<g>
						<g>
							<g>
								<path fill="#425A6B" d="M22.7,1.9c-0.4,0.2-0.9,0.7-1.1,0.9c-0.3,0.3-0.5,0.1-0.7,0c-0.2-0.1-0.6-0.9-0.6-0.9
									C21.6,2,22.3,1.9,22.7,1.9z"/>
							</g>
						</g>
						<g>
							<g>
								<g>
									<path fill="#425A6B" d="M28.3,3.3c0.1,0,0.2,0.1,0.3,0.2c0.2,0.1,0.8,0.3,0.8,0.3c1.2,0.3,1.4,0.6,1.4,0.6
										c0,0-0.3-0.3-0.8-0.3c-0.5,0-1.4-0.2-1.4-0.2c-1-0.2-2.3-1-2.9-1.4c-0.6-0.4-1.2-0.6-1.4-0.7c-0.2-0.1-0.5-0.1-0.7-0.1
										c0.2,0,0.5,0,0.6,0c0.4,0,0.7,0,1.1,0.1c0.6,0.1,1.2,0.4,1.6,0.7C27.3,2.8,27.8,3.1,28.3,3.3z"/>
								</g>
							</g>
						</g>
					</g>
					<g>
						<g>
							<g>
								<path fill="#F26F5A" d="M24.2,8.7c-0.1-0.2-0.3-0.4-0.4-0.6c-0.1-0.2-0.2-0.4-0.2-0.7L23,7c0.3,0.3,0.3,0.7,0.3,1
									c0,0.4,0,0.9-0.1,1.3c-0.1,0.4-0.2,0.9-0.4,1.2c-0.1,0.2-0.3,0.4-0.5,0.6c-0.1,0.1-0.1,0.2-0.1,0.3c0.1-0.1,0.2-0.2,0.3-0.2
									c0,0,0.1,0,0.1,0c0.1-0.1,0.2-0.2,0.3-0.4c0.1-0.2,0.2-0.5,0.3-0.8s0.3-0.5,0.6-0.5c-0.3,0.2-0.5,0.6-0.3,0.9
									c-0.1-0.2,0.1-0.5,0.3-0.7c0.2-0.2,0.4-0.3,0.5-0.6C24.4,9.1,24.3,8.9,24.2,8.7z"/>
							</g>
						</g>
					</g>
				</g>
				<g>
					<g>
						<g>
							<g>
								<path fill="#FFD15C" d="M26.8,20.4c0,0,1.4,0.2,2.1,0.6l-0.6,1.7c0,0-0.8,1.8-1.1,2.8c-0.1,0.5-0.2,1-0.2,1.3
									c0,0.4-0.1,0.8-0.3,1.1l-0.1,0.2c0,0-0.2,0.5-0.4,0.5c0,0-0.1-0.1-0.2-0.1c0,0-0.1,0.1-0.1,0.1c-0.1,0.2-0.3,0.2-0.5,0.1
									c0,0,0,0,0,0l-0.5,0c0,0-0.2,0-0.3-0.1c-0.1-0.1-0.3-0.3-0.3-0.3s0-0.2,0.2-0.2c0,0-0.2-0.2,0.1-0.7c0,0,0.2-0.4,0.3-0.8
									c0-0.3,0.2-0.8,0.9-1.6C26.5,24.5,26.8,20.4,26.8,20.4z"/>
							</g>
						</g>
					</g>
					<g>
						<g>
							<g>
								<path fill="#F5B54C" d="M25.4,27.5C25.4,27.5,25.4,27.6,25.4,27.5c-0.1,0.1-0.2,0.1-0.2,0.2c0,0.1,0.1,0.4,0,0.5
									c0-0.1,0-0.1,0-0.1c0,0-0.1,0-0.1,0c-0.1,0.1-0.1,0.2-0.2,0.3c-0.1,0.1-0.1,0.1-0.2,0c0,0-0.1,0-0.1-0.1c0,0,0,0,0.1,0
									c0.1,0,0.1,0,0.2,0c0,0,0.1-0.1,0.1-0.1c0.2-0.3,0.4-0.7,0.4-1.1c0,0.1,0.1,0.1,0.1,0.2C25.5,27.4,25.5,27.5,25.4,27.5z"/>
							</g>
						</g>
					</g>
					<g>
						<g>
							<g>
								<path fill="#FFFFFF" d="M24.6,28.7c-0.1-0.1-0.2-0.2-0.2-0.2S24.8,28.5,24.6,28.7z"/>
							</g>
						</g>
					</g>
					<g>
						<g>
							<g>
								<path fill="#FFFFFF" d="M24.5,28c0,0,0.3-0.1,0.3,0.1c0,0.2-0.1,0.2-0.1,0.2c0,0-0.2,0-0.2-0.1C24.6,28.3,24.6,28.1,24.5,28
									z"/>
							</g>
						</g>
					</g>
				</g>
				<g>
					<g>
						<g>
							<path fill="#CED6E0" d="M26.8,20.4c0,0,0-0.1,0-0.2c0-0.1,0-0.2,0-0.3c0-0.1,0-0.2,0-0.4c0-0.5,0.1-1.3,0.1-2
								c0-0.2,0-0.4,0-0.5c0-0.2,0-0.4,0-0.5c0-0.1,0-0.2,0-0.2c0-0.1,0-0.2,0-0.2c0-0.2,0-0.3,0-0.4c0-0.1,0-0.3,0.1-0.4
								c0-0.1,0-0.2,0.1-0.3c0-0.2,0.1-0.2,0.1-0.2l0,0c0,0,0,0.4,0,0.9c0,0.1,0,0.3,0,0.4c0,0.1,0,0.2,0,0.2c0,0.1,0,0.2,0,0.2
								c0,0.2,0,0.3,0,0.5c0,0.2,0,0.4,0,0.5c0,0.4,0,0.7-0.1,1.1c0,0.3-0.1,0.6-0.1,0.9c0,0.1,0,0.3,0,0.4c0,0.1,0,0.2,0,0.3
								C26.8,20.3,26.8,20.4,26.8,20.4L26.8,20.4z"/>
						</g>
					</g>
				</g>
			</g>
			<g>
				<g>
					<g>
						<path fill="#F5B54C" d="M18.7,24.1c0,0.1,0,0.3-0.1,0.4c0,0.1,0,0.3-0.1,0.4c0,0.1,0,0.1,0,0.2c0,0,0,0.1,0,0.1
							c0,0,0,0.1,0,0.1l0,0.4l0,0l0,0c0,0,0,0-0.1,0c0,0,0,0-0.1,0c0,0-0.1,0-0.1,0c0,0,0.1,0,0.1-0.1c0,0,0,0,0.1,0c0,0,0,0,0.1,0
							l0,0c0-0.1,0-0.3-0.1-0.4c0,0,0-0.1,0-0.1c0,0,0,0,0-0.1c0,0,0,0,0,0c0-0.1,0-0.1,0-0.2c0-0.1,0.1-0.3,0.1-0.4
							c0-0.1,0-0.1,0-0.2C18.6,24.3,18.6,24.2,18.7,24.1z"/>
					</g>
				</g>
			</g>
		</g>
		<g>
			<g>
				<g>
					<path fill="#F26F5A" d="M26.7,3.6C26.7,3.6,26.7,3.6,26.7,3.6c0,0.1,0,0.2,0,0.2c0,0.2,0.1,0.4,0.1,0.6c0,0.1,0.1,0.3,0.1,0.4
						c0,0.2,0.1,0.3,0.1,0.5c0,0.2,0.1,0.3,0.1,0.5c0,0.2,0,0.4,0,0.6c0,0.2-0.1,0.4-0.2,0.5c-0.1,0.2-0.2,0.3-0.3,0.4
						c-0.1,0.1-0.2,0.2-0.3,0.4C26.1,7.9,26,8,25.9,8.1c-0.1,0.1-0.1,0.2-0.2,0.3c0,0.1-0.1,0.2-0.1,0.3c0,0.1,0,0.1,0,0.2
						c0,0,0,0.1,0,0.1s0,0,0-0.1c0,0,0-0.1,0-0.2c0-0.1,0-0.2,0.1-0.3c0-0.1,0.1-0.2,0.2-0.3C26,8,26.1,7.9,26.2,7.7
						c0.1-0.1,0.2-0.2,0.3-0.4c0.1-0.1,0.2-0.3,0.3-0.4C27,6.8,27,6.6,27.1,6.5c0-0.2,0-0.4,0-0.5c0-0.2,0-0.4-0.1-0.5
						c-0.1-0.3-0.2-0.6-0.3-0.9c-0.1-0.3-0.1-0.5-0.1-0.7C26.6,3.8,26.6,3.7,26.7,3.6c-0.1,0-0.1,0-0.1,0L26.7,3.6z"/>
				</g>
			</g>
		</g>
	</g>
</g>
</svg>
