<?xml version="1.0" encoding="utf-8"?>
<!-- Generator: Adobe Illustrator 18.0.0, SVG Export Plug-In . SVG Version: 6.00 Build 0)  -->
<!DOCTYPE svg PUBLIC "-//W3C//DTD SVG 1.1//EN" "http://www.w3.org/Graphics/SVG/1.1/DTD/svg11.dtd">
<svg version="1.1" id="Layer_1" xmlns="http://www.w3.org/2000/svg" xmlns:xlink="http://www.w3.org/1999/xlink" x="0px" y="0px"
	 viewBox="0 0 48 48" enable-background="new 0 0 48 48" xml:space="preserve">
<g>
	<rect x="14" y="37.2" fill="#F8B64C" width="20" height="3.8"/>
	<path fill="#FFD05C" d="M39.2,46.1c0,0.7-0.4,1.3-1,1.7c-0.9,0.5-2.1,0.2-2.6-0.8l-6.3-11.5l-0.2-0.4L28.5,34l-2.1-3.8h4.3l2.1,3.8
		l0.6,1.1l0.2,0.4l5.3,9.7C39.1,45.5,39.2,45.8,39.2,46.1z"/>
	<path fill="#FFD05C" d="M21.5,30.2L19.5,34l-0.6,1.1l-0.2,0.4L12.4,47c-0.5,0.9-1.7,1.3-2.6,0.8c-0.6-0.3-1-1-1-1.7
		c0-0.3,0.1-0.6,0.2-0.9l5.3-9.7l0.2-0.4l0.6-1.1l2.1-3.8H21.5z"/>
	<rect x="2.9" y="3.8" fill="#F2F2F2" width="42.2" height="26.4"/>
	<path fill="#FF7058" d="M46.1,0H1.9C0.8,0,0,0.8,0,1.9l0,0c0,1,0.8,1.9,1.9,1.9h44.2c1,0,1.9-0.8,1.9-1.9l0,0C48,0.8,47.1,0,46.1,0
		z"/>
	<path fill="#FF7058" d="M48,32.1c0,1-0.8,1.9-1.9,1.9H1.9c-0.5,0-1-0.2-1.3-0.6C0.2,33.1,0,32.6,0,32.1c0-1,0.8-1.9,1.9-1.9h44.2
		c0.5,0,1,0.2,1.3,0.6C47.8,31.1,48,31.6,48,32.1z"/>
	<rect x="2.9" y="3.8" fill="#E4EAEF" width="42.2" height="1.5"/>
	<g>
		<rect x="38.8" y="9.3" fill="#4CDBC4" width="2.3" height="17"/>
		<rect x="35.3" y="11.9" fill="#84DBFF" width="2.3" height="14.4"/>
		<rect x="31.9" y="14.6" fill="#FFD05C" width="2.3" height="11.6"/>
		<rect x="28.4" y="8.7" fill="#F2705B" width="2.3" height="17.6"/>
		<rect x="25" y="17.6" fill="#84DBFF" width="2.3" height="8.7"/>
	</g>
	<g>
		<path fill="#84DBFF" d="M13.2,7.5v7.3h7.3C20.5,10.8,17.3,7.5,13.2,7.5z"/>
		<path fill="#ACB3BA" d="M13.2,14.8l5.2,5.2c1.3-1.3,2.1-3.1,2.1-5.2H13.2z"/>
		<path fill="#FF7058" d="M13.2,7.5c-4,0-7.3,3.3-7.3,7.3c0,2,0.8,3.8,2.1,5.2l5.2-5.2V7.5z"/>
		<path fill="#40596B" d="M13.2,14.8L8.1,20c1.3,1.3,3.1,2.1,5.2,2.1c2,0,3.8-0.8,5.2-2.1L13.2,14.8z"/>
	</g>
</g>
</svg>
