<?xml version="1.0" encoding="utf-8"?>
<!-- Generator: Adobe Illustrator 18.0.0, SVG Export Plug-In . SVG Version: 6.00 Build 0)  -->
<!DOCTYPE svg PUBLIC "-//W3C//DTD SVG 1.1//EN" "http://www.w3.org/Graphics/SVG/1.1/DTD/svg11.dtd">
<svg version="1.1" id="Layer_1" xmlns="http://www.w3.org/2000/svg" xmlns:xlink="http://www.w3.org/1999/xlink" x="0px" y="0px"
	 viewBox="0 0 48 48" enable-background="new 0 0 48 48" xml:space="preserve">
<g>
	<path fill="#F2F2F2" d="M42.1,23.7c0.2-0.8,0.3-1.7,0.3-2.6c0-7.1-5.8-12.9-12.9-12.9c-3.4,0-6.6,1.4-8.9,3.6
		c-1.2-0.5-2.6-0.8-4-0.8c-5.6,0-10.1,4.5-10.1,10.1c0,0.1,0,0.3,0,0.4C2.8,22.7,0,26.2,0,30.4c0,5.1,4.2,9.3,9.3,9.3H24h1.8h14.1
		c4.5,0,8.2-3.7,8.2-8.2C48,27.8,45.5,24.7,42.1,23.7z"/>
	<g>
		<path fill="#84DBFF" d="M16.7,28.5c1,0,1.8,0.6,2.2,1.4l1.7-0.8c-0.7-1.2-1.9-2.3-3.9-2.3c-2.8,0-5,2-5,4.9c0,2.9,2.2,4.9,5,4.9
			c2.1,0,3.3-1.1,3.9-2.3l-1.7-0.8c-0.4,0.8-1.2,1.4-2.2,1.4c-1.7,0-3-1.3-3-3.1C13.7,29.8,14.9,28.5,16.7,28.5z"/>
		<path fill="#84DBFF" d="M26.3,26.7c-2.9,0-4.9,2-4.9,4.9c0,2.8,2.1,4.9,4.9,4.9c2.8,0,4.9-2,4.9-4.9
			C31.2,28.7,29.1,26.7,26.3,26.7z M26.3,34.7c-1.8,0-2.9-1.3-2.9-3.1c0-1.8,1.1-3.1,2.9-3.1c1.7,0,2.9,1.3,2.9,3.1
			C29.1,33.3,28,34.7,26.3,34.7z"/>
		<path fill="#84DBFF" d="M34.2,35.3c1.4-1,2.1-1.8,2.1-2.7c0-1-0.9-1.7-2-1.7c-0.7,0-1.5,0.3-2,0.9l0.6,0.7
			c0.4-0.4,0.8-0.6,1.4-0.6c0.4,0,0.8,0.2,0.8,0.7c0,0.6-0.6,1.2-2.8,2.8v0.9h3.9v-1H34.2z"/>
	</g>
	<path fill="#E4EAEF" d="M15.7,13c1.4,0,2.8,0.3,4,0.8c2.3-2.2,5.4-3.6,8.9-3.6c7.1,0,12.9,5.8,12.9,12.9c0,0.9-0.1,1.7-0.3,2.6
		c3.4,1,5.9,4.1,5.9,7.8c0,0.9-0.2,1.8-0.4,2.6c0.9-1.3,1.4-2.9,1.4-4.6c0-3.7-2.5-6.8-5.9-7.8c0.2-0.8,0.3-1.7,0.3-2.6
		c0-7.1-5.8-12.9-12.9-12.9c-3.4,0-6.6,1.4-8.9,3.6c-1.2-0.5-2.6-0.8-4-0.8c-4.4,0-8.1,2.8-9.5,6.6C9,14.8,12.1,13,15.7,13z"/>
</g>
</svg>
