<?xml version="1.0" encoding="utf-8"?>
<!-- Generator: Adobe Illustrator 18.0.0, SVG Export Plug-In . SVG Version: 6.00 Build 0)  -->
<!DOCTYPE svg PUBLIC "-//W3C//DTD SVG 1.1//EN" "http://www.w3.org/Graphics/SVG/1.1/DTD/svg11.dtd">
<svg version="1.1" id="Layer_1" xmlns="http://www.w3.org/2000/svg" xmlns:xlink="http://www.w3.org/1999/xlink" x="0px" y="0px"
	 viewBox="0 0 48 48" enable-background="new 0 0 48 48" xml:space="preserve">
<g>
	<g>
		<g>
			<g>
				<path fill="#F3705A" d="M15.1,8.1c0,0,4.6-2.1,4.6-5.6c0-1.4-1.1-2.5-2.4-2.5c-1,0-1.8,0.6-2.2,1.4C14.7,0.6,13.8,0,12.9,0
					c-1.4,0-2.4,1.1-2.4,2.5C10.4,6,15.1,8.1,15.1,8.1z"/>
			</g>
		</g>
		<g>
			<g>
				<path fill="#F3705A" d="M37.8,16.4c0,0,2.9-1.3,2.9-3.5c0-0.9-0.7-1.5-1.5-1.5c-0.6,0-1.1,0.4-1.4,0.9c-0.2-0.5-0.8-0.9-1.4-0.9
					c-0.8,0-1.5,0.7-1.5,1.5C34.9,15.1,37.8,16.4,37.8,16.4z"/>
			</g>
		</g>
		<g>
			<g>
				<path fill="#F3705A" d="M13.1,14.5c0,0,1.6-2.7,0.4-4.5c-0.5-0.7-1.4-0.9-2.1-0.4c-0.5,0.3-0.7,0.9-0.6,1.5
					c-0.5-0.3-1.1-0.3-1.6,0.1c-0.7,0.5-0.9,1.4-0.4,2.1C9.9,15.1,13.1,14.5,13.1,14.5z"/>
			</g>
		</g>
		<g>
			<g>
				<path fill="#F3705A" d="M22,9.9c0,0,1.9-0.9,1.9-2.3c0-0.6-0.5-1-1-1c-0.4,0-0.7,0.2-0.9,0.6c-0.2-0.3-0.5-0.6-0.9-0.6
					c-0.6,0-1,0.5-1,1C20.1,9,22,9.9,22,9.9z"/>
			</g>
		</g>
		<g>
			<g>
				<path fill="#F3705A" d="M31.1,16.4c0,0,1.9-0.9,1.9-2.3c0-0.6-0.5-1-1-1c-0.4,0-0.7,0.2-0.9,0.6c-0.2-0.3-0.5-0.6-0.9-0.6
					c-0.6,0-1,0.5-1,1C29.2,15.5,31.1,16.4,31.1,16.4z"/>
			</g>
		</g>
		<g>
			<g>
				<path fill="#F3705A" d="M27.6,9.5c0,0,4.1,0,5.3-2.6c0.5-1,0-2.2-1-2.6c-0.7-0.3-1.5-0.2-2.1,0.3c0-0.7-0.4-1.4-1.1-1.8
					c-1-0.5-2.2,0-2.6,1C24.9,6.4,27.6,9.5,27.6,9.5z"/>
			</g>
		</g>
		<g>
			<g>
				<path fill="#F3705A" d="M23,19.8c0,0,2.8-3.5,1.3-6.2c-0.5-1.1-1.8-1.5-2.9-0.9c-0.7,0.4-1.2,1.2-1.1,2
					c-0.6-0.5-1.5-0.6-2.3-0.2c-1,0.5-1.5,1.8-0.9,2.9C18.5,20,23,19.8,23,19.8z"/>
			</g>
		</g>
		<g>
			<g>
				<g>
					<rect x="6.8" y="17.4" fill="#FFD15C" width="34.3" height="30.6"/>
				</g>
				<g>
					<polygon fill="#F7B64C" points="37.5,43.4 34.8,45.8 32.1,43.4 29.4,45.8 26.7,43.4 24,45.8 21.3,43.4 18.6,45.8 15.9,43.4 
						13.2,45.8 10.5,43.4 7.8,45.8 6.8,44.9 6.8,45.5 7.8,46.5 10.5,44 13.2,46.5 15.9,44 18.6,46.5 21.3,44 24,46.5 26.7,44 
						29.4,46.5 32.1,44 34.8,46.5 37.5,44 40.2,46.5 41.2,45.5 41.2,44.9 40.2,45.8 					"/>
					<polygon fill="#F7B64C" points="37.5,39.8 34.8,42.3 32.1,39.8 29.4,42.3 26.7,39.8 24,42.3 21.3,39.8 18.6,42.3 15.9,39.8 
						13.2,42.3 10.5,39.8 7.8,42.3 6.8,41.4 6.8,42 7.8,42.9 10.5,40.5 13.2,42.9 15.9,40.5 18.6,42.9 21.3,40.5 24,42.9 26.7,40.5 
						29.4,42.9 32.1,40.5 34.8,42.9 37.5,40.5 40.2,42.9 41.2,42 41.2,41.4 40.2,42.3 					"/>
					<polygon fill="#F7B64C" points="37.5,36.3 34.8,38.8 32.1,36.3 29.4,38.8 26.7,36.3 24,38.8 21.3,36.3 18.6,38.8 15.9,36.3 
						13.2,38.8 10.5,36.3 7.8,38.8 6.8,37.8 6.8,38.5 7.8,39.4 10.5,36.9 13.2,39.4 15.9,36.9 18.6,39.4 21.3,36.9 24,39.4 
						26.7,36.9 29.4,39.4 32.1,36.9 34.8,39.4 37.5,36.9 40.2,39.4 41.2,38.5 41.2,37.8 40.2,38.8 					"/>
					<polygon fill="#F7B64C" points="37.5,32.7 34.8,35.2 32.1,32.7 29.4,35.2 26.7,32.7 24,35.2 21.3,32.7 18.6,35.2 15.9,32.7 
						13.2,35.2 10.5,32.7 7.8,35.2 6.8,34.3 6.8,34.9 7.8,35.8 10.5,33.4 13.2,35.8 15.9,33.4 18.6,35.8 21.3,33.4 24,35.8 
						26.7,33.4 29.4,35.8 32.1,33.4 34.8,35.8 37.5,33.4 40.2,35.8 41.2,34.9 41.2,34.3 40.2,35.2 					"/>
					<polygon fill="#F7B64C" points="37.5,29.2 34.8,31.7 32.1,29.2 29.4,31.7 26.7,29.2 24,31.7 21.3,29.2 18.6,31.7 15.9,29.2 
						13.2,31.7 10.5,29.2 7.8,31.7 6.8,30.7 6.8,31.4 7.8,32.3 10.5,29.8 13.2,32.3 15.9,29.8 18.6,32.3 21.3,29.8 24,32.3 
						26.7,29.8 29.4,32.3 32.1,29.8 34.8,32.3 37.5,29.8 40.2,32.3 41.2,31.4 41.2,30.7 40.2,31.7 					"/>
					<polygon fill="#F7B64C" points="37.5,25.7 34.8,28.1 32.1,25.7 29.4,28.1 26.7,25.7 24,28.1 21.3,25.7 18.6,28.1 15.9,25.7 
						13.2,28.1 10.5,25.7 7.8,28.1 6.8,27.2 6.8,27.8 7.8,28.7 10.5,26.3 13.2,28.7 15.9,26.3 18.6,28.7 21.3,26.3 24,28.7 
						26.7,26.3 29.4,28.7 32.1,26.3 34.8,28.7 37.5,26.3 40.2,28.7 41.2,27.8 41.2,27.2 40.2,28.1 					"/>
					<polygon fill="#F7B64C" points="37.5,22.1 34.8,24.6 32.1,22.1 29.4,24.6 26.7,22.1 24,24.6 21.3,22.1 18.6,24.6 15.9,22.1 
						13.2,24.6 10.5,22.1 7.8,24.6 6.8,23.7 6.8,24.3 7.8,25.2 10.5,22.7 13.2,25.2 15.9,22.7 18.6,25.2 21.3,22.7 24,25.2 
						26.7,22.7 29.4,25.2 32.1,22.7 34.8,25.2 37.5,22.7 40.2,25.2 41.2,24.3 41.2,23.7 40.2,24.6 					"/>
					<polygon fill="#F7B64C" points="37.5,18.6 34.8,21 32.1,18.6 29.4,21 26.7,18.6 24,21 21.3,18.6 18.6,21 15.9,18.6 13.2,21 
						10.5,18.6 7.8,21 6.8,20.1 6.8,20.7 7.8,21.7 10.5,19.2 13.2,21.7 15.9,19.2 18.6,21.7 21.3,19.2 24,21.7 26.7,19.2 29.4,21.7 
						32.1,19.2 34.8,21.7 37.5,19.2 40.2,21.7 41.2,20.7 41.2,20.1 40.2,21 					"/>
				</g>
			</g>
			<g>
				<circle fill="#415A6B" cx="16.9" cy="23.1" r="1.6"/>
			</g>
			<g>
				<circle fill="#415A6B" cx="31.1" cy="23.1" r="1.6"/>
			</g>
			<g>
				<g>
					<path fill="#F3705A" d="M24,39.1c-4.3,0-7.7-7-7.7-16c0-0.3,0.3-0.6,0.6-0.6c0.3,0,0.6,0.3,0.6,0.6c0,8,3,14.8,6.5,14.8
						c3.5,0,6.5-6.8,6.5-14.8c0-0.3,0.3-0.6,0.6-0.6c0.3,0,0.6,0.3,0.6,0.6C31.7,32.1,28.3,39.1,24,39.1z"/>
				</g>
			</g>
		</g>
	</g>
</g>
</svg>
