<?xml version="1.0" encoding="utf-8"?>
<!-- Generator: Adobe Illustrator 18.0.0, SVG Export Plug-In . SVG Version: 6.00 Build 0)  -->
<!DOCTYPE svg PUBLIC "-//W3C//DTD SVG 1.1//EN" "http://www.w3.org/Graphics/SVG/1.1/DTD/svg11.dtd">
<svg version="1.1" id="Layer_1" xmlns="http://www.w3.org/2000/svg" xmlns:xlink="http://www.w3.org/1999/xlink" x="0px" y="0px"
	 viewBox="0 0 512 512" enable-background="new 0 0 512 512" xml:space="preserve">
<g>
	<path fill="#40596B" d="M491.4,451.9H20.6c-10.3,0-18.6,8.3-18.6,18.6c0,10.3,8.3,18.6,18.6,18.6h470.7c10.3,0,18.6-8.3,18.6-18.6
		C510,460.3,501.7,451.9,491.4,451.9z"/>
	<path fill="#40596B" d="M475,489.2l-24.2,10.7l-18.9,8.4c-2.7,1.2-5.6,1.8-8.6,1.8H88.6c-2.9,0-5.9-0.6-8.6-1.8l-18.9-8.4L37,489.2
		H475z"/>
	<path fill="#CDD6E0" d="M464.4,150.7H47.6c-11.7,0-21.2,9.5-21.2,21.2v280.1h459.1V171.9C485.6,160.2,476.1,150.7,464.4,150.7z"/>
	<rect x="67.2" y="188.4" fill="#FFFFFF" width="377.5" height="225.9"/>
	<polygon fill="#334A5E" points="475,489.2 450.8,499.8 61.2,499.8 37,489.2 	"/>
	<circle fill="#FFFFFF" cx="451.3" cy="470.6" r="6"/>
	<circle fill="#FFFFFF" cx="433.8" cy="470.6" r="6"/>
	<path fill="#40596B" d="M390,178.8c0.5-4.6,0.7-9.2,0.7-13.9c0-5-0.3-9.9-0.8-14.7l26.6-18.6l-11.4-34.8l-32.5,0.7
		c-4.8-8.3-10.5-16-16.8-23l10.7-30.8l-29.6-21.5l-25.9,19.7c-8.6-3.9-17.7-6.9-27.2-8.9l-9.4-31h-36.6l-9.4,31
		c-9.8,2-19.1,5.2-28,9.3l-26-19.5l-29.5,21.7l10.9,30.7c-6.3,7.1-12,14.8-16.7,23.1l-32.5-0.5l-11.2,34.8L122,151
		c-0.5,4.6-0.7,9.2-0.7,13.9c0,5,0.3,9.9,0.8,14.7l-26.6,18.6l11.4,34.8l32.5-0.8c4.8,8.3,10.5,16,16.8,23L145.6,286l29.6,21.5
		l25.9-19.7c8.6,3.9,17.7,6.9,27.2,8.9l9.4,31h36.6l9.4-31c9.8-2,19.1-5.2,28-9.3l26,19.5l29.5-21.7l-10.9-30.7
		c6.3-7.1,12-14.8,16.7-23.1l32.5,0.5l11.2-34.8L390,178.8z M256,232.3c-37.3,0-67.5-30.2-67.5-67.5c0-37.3,30.2-67.5,67.5-67.5
		c37.3,0,67.5,30.2,67.5,67.5C323.5,202.1,293.3,232.3,256,232.3z"/>
</g>
</svg>
