<?xml version="1.0" encoding="utf-8"?>
<!-- Generator: Adobe Illustrator 18.0.0, SVG Export Plug-In . SVG Version: 6.00 Build 0)  -->
<!DOCTYPE svg PUBLIC "-//W3C//DTD SVG 1.1//EN" "http://www.w3.org/Graphics/SVG/1.1/DTD/svg11.dtd">
<svg version="1.1" id="Layer_1" xmlns="http://www.w3.org/2000/svg" xmlns:xlink="http://www.w3.org/1999/xlink" x="0px" y="0px"
	 viewBox="0 0 48 48" enable-background="new 0 0 48 48" xml:space="preserve">
<g>
	<g>
		<g>
			<g>
				<path fill="#F3705A" d="M43.9,4.1l1.1,12.5l-12.5-1.1l3-3c-6.4-6.4-16.7-6.4-23.1,0c-4.2,4.2-5.7,10.2-4.3,15.6l-8-0.7
					C-0.8,20.2,1.5,12.6,7,7c9.4-9.4,24.6-9.4,34,0L43.9,4.1z"/>
			</g>
		</g>
		<g>
			<g>
				<path fill="#FFD15C" d="M47.8,20.6c1,7.2-1.2,14.8-6.8,20.4c-9.4,9.4-24.6,9.4-34,0l-2.9,2.9L2.9,31.5l12.5,1.1l-3,3
					c6.4,6.4,16.7,6.4,23.1,0c4.2-4.2,5.7-10.2,4.3-15.6L47.8,20.6z"/>
			</g>
		</g>
	</g>
</g>
</svg>
