<?xml version="1.0" encoding="utf-8"?>
<!-- Generator: Adobe Illustrator 18.0.0, SVG Export Plug-In . SVG Version: 6.00 Build 0)  -->
<!DOCTYPE svg PUBLIC "-//W3C//DTD SVG 1.1//EN" "http://www.w3.org/Graphics/SVG/1.1/DTD/svg11.dtd">
<svg version="1.1" id="Layer_1" xmlns="http://www.w3.org/2000/svg" xmlns:xlink="http://www.w3.org/1999/xlink" x="0px" y="0px"
	 viewBox="0 0 512 512" enable-background="new 0 0 512 512" xml:space="preserve">
<g>
	<path fill="#4CDBC4" d="M304.8,461.7v-411C304.8,23.8,282.9,2,256,2c-27,0-48.8,21.8-48.8,48.8v411h-67.8V510h233.3v-48.3H304.8z"
		/>
	<rect x="207.2" y="387.1" fill="#3DC9AE" width="97.6" height="14.1"/>
	<path fill="#F2F2F2" d="M488.8,64.7H23.2C11.5,64.7,2,74.2,2,85.9V366c0,11.7,9.5,21.2,21.2,21.2h465.7c11.7,0,21.2-9.5,21.2-21.2
		V85.9C510,74.2,500.5,64.7,488.8,64.7z"/>
	<path fill="#84DBFF" d="M464.8,98.6H47.2c-6.2,0-11.3,5.1-11.3,11.3V342c0,6.2,5.1,11.3,11.3,11.3h417.7c6.2,0,11.3-5.1,11.3-11.3
		V109.9C476.1,103.7,471.1,98.6,464.8,98.6z"/>
	<g>
		<path fill="#FFFFFF" d="M132,221c-4.4-2.3-11.3-4.6-20.6-6.8c-9.3-2.2-15.1-4.3-17.5-6.3c-1.9-1.6-2.8-3.5-2.8-5.7
			c0-2.4,1-4.4,3-5.9c3.1-2.3,7.5-3.4,13-3.4c5.4,0,9.4,1.1,12.1,3.2c2.7,2.1,4.4,5.6,5.2,10.5l19-0.8c-0.3-8.7-3.4-15.6-9.4-20.8
			c-6-5.2-14.9-7.8-26.7-7.8c-7.3,0-13.4,1.1-18.6,3.3c-5.1,2.2-9.1,5.4-11.8,9.6s-4.1,8.7-4.1,13.5c0,7.5,2.9,13.8,8.7,19
			c4.1,3.7,11.3,6.8,21.5,9.3c7.9,2,13,3.3,15.3,4.1c3.3,1.2,5.5,2.5,6.9,4.1c1.3,1.6,2,3.5,2,5.7c0,3.5-1.6,6.5-4.7,9.1
			c-3.1,2.6-7.7,3.9-13.9,3.9c-5.8,0-10.4-1.5-13.8-4.4s-5.7-7.5-6.8-13.7l-18.5,1.8c1.2,10.6,5.1,18.6,11.5,24.1
			c6.4,5.5,15.6,8.3,27.5,8.3c8.2,0,15-1.1,20.5-3.4c5.5-2.3,9.7-5.8,12.7-10.5c3-4.7,4.5-9.8,4.5-15.2c0-6-1.3-11-3.8-15
			C139.9,226.5,136.4,223.3,132,221z"/>
		<path fill="#FFFFFF" d="M200.3,178.7l-36.7,94.3h20.2l7.8-21.4h37.7l8.2,21.4h20.7l-37.8-94.3H200.3z M197.4,235.7l12.7-35l13,35
			H197.4z"/>
		<polygon fill="#FFFFFF" points="298.9,179.5 279.8,179.5 279.8,273.1 346.2,273.1 346.2,257.2 298.9,257.2 		"/>
		<polygon fill="#FFFFFF" points="389.9,257.2 389.9,231.5 437.2,231.5 437.2,215.6 389.9,215.6 389.9,194.7 440.8,194.7 
			440.8,178.7 370.8,178.7 370.8,273.1 442.6,273.1 442.6,257.2 		"/>
	</g>
</g>
</svg>
