<?xml version="1.0" encoding="utf-8"?>
<!-- Generator: Adobe Illustrator 20.1.0, SVG Export Plug-In . SVG Version: 6.00 Build 0)  -->
<!DOCTYPE svg PUBLIC "-//W3C//DTD SVG 1.1//EN" "http://www.w3.org/Graphics/SVG/1.1/DTD/svg11.dtd">
<svg version="1.1" id="Layer_1" xmlns="http://www.w3.org/2000/svg" xmlns:xlink="http://www.w3.org/1999/xlink" x="0px" y="0px"
	 viewBox="0 0 49 49" enable-background="new 0 0 49 49" xml:space="preserve">
<g>
	<path fill="#CDD6E0" d="M20.7,0.5H2.5c-1.1,0-2,0.9-2,2v18.2c0,0.5,0.2,1.1,0.6,1.4l25.8,25.8c0.8,0.8,2.1,0.8,2.9,0l18.2-18.2
		c0.8-0.8,0.8-2.1,0-2.9L22.1,1.1C21.7,0.7,21.2,0.5,20.7,0.5z M6.9,6.9C6.2,7.7,5,7.7,4.3,6.9C3.5,6.2,3.5,5,4.3,4.3
		c0.7-0.7,1.9-0.7,2.7,0S7.7,6.2,6.9,6.9z"/>
	
		<rect x="14.1" y="9.2" transform="matrix(0.7071 -0.7071 0.7071 0.7071 -10.3071 24.8835)" fill="#F2F2F2" width="21.6" height="31.3"/>
	<g>
		<path fill="#FF7058" d="M15.2,17.3l1.3,1.1c-0.3,0.5-0.5,0.9-0.4,1.3c0,0.4,0.2,0.8,0.6,1.2c0.4,0.4,0.8,0.6,1.1,0.6
			c0.4,0,0.7-0.1,0.9-0.3c0.1-0.1,0.2-0.3,0.2-0.5c0-0.2,0-0.4-0.2-0.7c-0.1-0.2-0.3-0.6-0.7-1.2c-0.5-0.8-0.8-1.5-0.8-2
			c0-0.7,0.2-1.3,0.7-1.8c0.3-0.3,0.7-0.5,1.1-0.6c0.4-0.1,0.9,0,1.4,0.1c0.5,0.2,0.9,0.5,1.4,1c0.8,0.8,1.2,1.5,1.2,2.2
			c0.1,0.7-0.2,1.4-0.7,1.9L21,18.5c0.3-0.4,0.4-0.7,0.3-1c0-0.3-0.2-0.6-0.6-1c-0.4-0.4-0.7-0.6-1.1-0.6c-0.2,0-0.4,0-0.6,0.2
			C19,16.3,19,16.4,19,16.7c0,0.3,0.3,0.8,0.7,1.5c0.5,0.7,0.8,1.3,0.9,1.8c0.1,0.4,0.2,0.9,0.1,1.3c-0.1,0.4-0.3,0.8-0.7,1.2
			c-0.3,0.3-0.8,0.6-1.3,0.7c-0.5,0.1-1,0.1-1.5-0.1c-0.5-0.2-1-0.6-1.5-1.1c-0.8-0.8-1.2-1.5-1.2-2.3
			C14.3,18.8,14.6,18.1,15.2,17.3z"/>
		<path fill="#FF7058" d="M19.2,25.3l6.1-6.1l4.5,4.5l-1,1l-3.3-3.3l-1.3,1.3l3,3l-1,1l-3-3l-1.7,1.7l3.4,3.4l-1,1L19.2,25.3z"/>
		<path fill="#FF7058" d="M27.6,27.7c0.6-0.6,1.2-1,1.8-1.3c0.4-0.2,0.9-0.3,1.4-0.3c0.5,0,0.9,0.1,1.3,0.2c0.5,0.2,1.1,0.6,1.5,1.1
			c0.9,0.9,1.3,1.9,1.3,3c0,1.1-0.5,2.1-1.5,3.1c-1,1-2,1.5-3.1,1.5c-1.1,0-2.1-0.4-3-1.3c-0.9-0.9-1.3-1.9-1.3-3
			C26.1,29.7,26.6,28.6,27.6,27.7z M28.9,28.9c-0.7,0.7-1,1.4-1.1,2c0,0.7,0.2,1.3,0.7,1.7c0.5,0.5,1.1,0.7,1.7,0.7
			c0.7,0,1.3-0.4,2.1-1.1c0.7-0.7,1.1-1.4,1.1-2c0-0.6-0.2-1.2-0.7-1.7s-1.1-0.7-1.7-0.7C30.3,27.8,29.6,28.2,28.9,28.9z"/>
	</g>
</g>
</svg>
