<?xml version="1.0" encoding="utf-8"?>
<!-- Generator: Adobe Illustrator 18.0.0, SVG Export Plug-In . SVG Version: 6.00 Build 0)  -->
<!DOCTYPE svg PUBLIC "-//W3C//DTD SVG 1.1//EN" "http://www.w3.org/Graphics/SVG/1.1/DTD/svg11.dtd">
<svg version="1.1" id="Layer_1" xmlns="http://www.w3.org/2000/svg" xmlns:xlink="http://www.w3.org/1999/xlink" x="0px" y="0px"
	 viewBox="0 0 48 48" enable-background="new 0 0 48 48" xml:space="preserve">
<g>
	<g>
		<g>
			<g>
				<g>
					<path fill="#F3F3F3" d="M48,48l-1.1-4.8c-0.4-1.6-1.6-2.9-3.1-3.4l-4.6-1.4h-9.3l-4.6,1.4c-1.6,0.5-2.8,1.8-3.1,3.4L21,48H48z"
						/>
				</g>
				<g>
					<g>
						<path fill="#F7B64C" d="M37.4,35.3l0,1.3c-0.8,2-1.8,3.1-2.8,4.2c-1.1-1.2-2-2.2-2.8-4.2l0-1.3c0.8-2.2,1.9-3.5,2.9-4.7
							C35.5,31.8,36.6,33.2,37.4,35.3z"/>
					</g>
				</g>
				<g>
					<polygon fill="#F3F3F3" points="32.9,48 36.1,48 36.8,46.7 37,40.1 32,40.1 32.1,46.7 					"/>
				</g>
				<g>
					<g>
						<path fill="#F3705A" d="M35.3,42.6l0.8-0.8c0,0-1.1-1.6-1.6-1.6c-0.6,0-1.6,1.6-1.6,1.6l0.8,0.8H35.3z"/>
					</g>
					<g>
						<polygon fill="#F3705A" points="36,48 36.1,47.8 35.3,42.6 33.6,42.6 32.9,47.8 33,48 						"/>
					</g>
				</g>
				<g>
					<g>
						<polygon fill="#E8EAE9" points="37.4,36.2 34.5,40.2 36.8,42.4 38.5,38 						"/>
					</g>
					<g>
						<polygon fill="#E8EAE9" points="31.7,36.2 34.5,40.2 32.3,42.4 30.6,38 						"/>
					</g>
				</g>
				<g>
					
						<ellipse transform="matrix(0.9947 0.1029 -0.1029 0.9947 3.3415 -3.9521)" fill="#FFD15C" cx="40" cy="30.4" rx="1.2" ry="1.9"/>
				</g>
				<g>
					
						<ellipse transform="matrix(-0.9947 0.1029 -0.1029 -0.9947 61.2198 57.6389)" fill="#FFD15C" cx="29.1" cy="30.4" rx="1.2" ry="1.9"/>
				</g>
				<g>
					<g>
						<path fill="#FFD15C" d="M39.8,28.2c0.1,0.5,0.2,1.1,0.2,1.7c0,3.9-2.4,7.1-5.4,7.1c-3,0-5.4-3.2-5.4-7.1
							c0-0.8,0.1-1.7,0.3-2.4c-0.6-2.2,0.5-2.7,1.4-2.8c1-1.2,2.2-1.9,3.7-1.9c1.4,0,2.7,0.7,3.7,1.9C39.6,25,40.8,25.9,39.8,28.2z"
							/>
					</g>
				</g>
				<path fill="#344A5E" d="M39.6,28.9c0,0,0.3-3.1-0.9-3.7c-1.3-0.6-2.2,0-3,0.5c-0.5,0.3-0.7,0.6-1.1,0.6c-0.4,0-0.6-0.2-1.1-0.6
					c-0.8-0.5-1.7-1.1-3-0.5c-1.3,0.6-0.9,3.7-0.9,3.7v2.3c-0.5-0.9-0.8-2-0.9-3.2c-0.1-5.1,2.6-6.7,5.9-6.7c3.3,0,6,1.6,5.9,6.7
					c0,1.2-0.3,2.3-0.9,3.2V28.9z"/>
			</g>
			<g>
				<g>
					<g>
						<path fill="#344A5E" d="M27.4,48l-1-4.7c-0.4-1.6-1.6-3-3.2-3.5l-4.7-1.5H8.9l-4.7,1.5c-1.6,0.5-2.8,1.8-3.2,3.5L0,48H27.4z"
							/>
					</g>
					<g>
						<g>
							<path fill="#F7B64C" d="M16.6,35.2l0,1.3c-0.9,2.1-1.8,3.1-2.9,4.3c-1.1-1.2-2-2.3-2.9-4.3l0-1.3c0.8-2.2,2-3.6,2.9-4.8
								C14.7,31.6,15.8,33,16.6,35.2z"/>
						</g>
					</g>
					<g>
						<polygon fill="#FFFFFF" points="12,48 15.3,48 16.2,47.1 17.2,40.1 10.1,40.1 11.2,47.1 						"/>
					</g>
					<g>
						<g>
							<path fill="#55C0EB" d="M14.7,42.9l0.9-0.9c0,0-1.2-1.9-1.9-1.9c-0.7,0-1.9,1.9-1.9,1.9l0.9,0.9H14.7z"/>
						</g>
						<g>
							<polygon fill="#55C0EB" points="15.3,48 15.3,47.9 14.7,42.9 12.7,42.9 12,47.9 12,48 							"/>
						</g>
					</g>
					<g>
						<g>
							<polygon fill="#F3F3F3" points="16.6,36.1 13.7,40.2 16,42.4 17.7,38 							"/>
						</g>
						<g>
							<polygon fill="#F3F3F3" points="10.8,36.1 13.7,40.2 11.5,42.4 9.7,38 							"/>
						</g>
					</g>
					<g>
						
							<ellipse transform="matrix(0.9947 0.1029 -0.1029 0.9947 3.2133 -1.8172)" fill="#FFD15C" cx="19.2" cy="30.2" rx="1.2" ry="2"/>
					</g>
					<g>
						
							<ellipse transform="matrix(-0.9947 0.1029 -0.1029 -0.9947 19.4664 59.4641)" fill="#FFD15C" cx="8.2" cy="30.2" rx="1.2" ry="2"/>
					</g>
					<g>
						<path fill="#344A5E" d="M19.7,27.8c0,1.2-0.3,2.3-0.9,3.2l-10.3,0c-0.5-0.9-0.8-2.1-0.9-3.2c-0.1-5.2,2.6-6.8,6-6.8
							C17.1,21.1,19.8,22.7,19.7,27.8z"/>
					</g>
				</g>
				<g>
					<path fill="#FFD15C" d="M15.1,24.7c-1.5,1.7-3.7,2.8-6.7,2.8c0,0,0,0,0,0c-0.2,0.7-0.3,1.5-0.3,2.3c0,4,2.5,7.2,5.5,7.2
						c3,0,5.5-3.2,5.5-7.2c0-0.8-0.1-1.5-0.3-2.2C17.3,27,16.1,26,15.1,24.7z"/>
				</g>
				<g>
					<g>
						<polygon fill="#415A6B" points="18,48 20,44.1 18.7,42.4 21,40.9 17.2,37.2 15.2,48 						"/>
					</g>
					<g>
						<polygon fill="#415A6B" points="7.3,44.1 9.3,48 12.1,48 10.2,37.2 6.4,40.9 8.7,42.4 						"/>
					</g>
				</g>
			</g>
		</g>
		<g>
			<g>
				<g>
					<path fill="#8AD7F8" d="M23,6.6v8.8c0,1,0.8,1.9,1.9,1.9h8.6l4.1,2.8v-2.8h0.5c1,0,1.9-0.8,1.9-1.9V6.6c0-1-0.8-1.9-1.9-1.9
						H24.9C23.8,4.8,23,5.6,23,6.6z"/>
				</g>
				<g>
					<g>
						<g>
							<circle fill="#FFFFFF" cx="36.1" cy="11" r="1.5"/>
						</g>
						<g>
							<circle fill="#FFFFFF" cx="31.5" cy="11" r="1.5"/>
						</g>
					</g>
					<g>
						<circle fill="#FFFFFF" cx="26.9" cy="11" r="1.5"/>
					</g>
				</g>
			</g>
			<g>
				<g>
					<path fill="#F3705A" d="M25,1.9v8.8c0,1-0.8,1.9-1.9,1.9h-8.6l-4.1,2.8v-2.8H9.9c-1,0-1.9-0.8-1.9-1.9V1.9C8,0.8,8.9,0,9.9,0
						h13.2C24.2,0,25,0.8,25,1.9z"/>
				</g>
				<g>
					<g>
						<g>
							<circle fill="#FFFFFF" cx="11.9" cy="6.3" r="1.5"/>
						</g>
						<g>
							<circle fill="#FFFFFF" cx="16.5" cy="6.3" r="1.5"/>
						</g>
					</g>
					<g>
						<circle fill="#FFFFFF" cx="21.1" cy="6.3" r="1.5"/>
					</g>
				</g>
			</g>
		</g>
	</g>
</g>
</svg>
