<?xml version="1.0" encoding="utf-8"?>
<!-- Generator: Adobe Illustrator 18.0.0, SVG Export Plug-In . SVG Version: 6.00 Build 0)  -->
<!DOCTYPE svg PUBLIC "-//W3C//DTD SVG 1.1//EN" "http://www.w3.org/Graphics/SVG/1.1/DTD/svg11.dtd">
<svg version="1.1" id="Layer_1" xmlns="http://www.w3.org/2000/svg" xmlns:xlink="http://www.w3.org/1999/xlink" x="0px" y="0px"
	 viewBox="0 0 48 48" enable-background="new 0 0 48 48" xml:space="preserve">
<g>
	<g>
		<path fill="#F3F3F3" d="M43.6,2v44c0,1.1-0.9,2-2,2H12.5V0h29.1C42.7,0,43.6,0.9,43.6,2z"/>
	</g>
	<path fill="#66C6B9" d="M12.5,0H8.5c-2.2,0-4,1.8-4,4v40c0,2.2,1.8,4,4,4h4.1V0z"/>
	<path fill="#FFD15C" d="M48,10.1V4.7c0-0.4-0.3-0.7-0.7-0.7h-3.7v6.7h3.7C47.7,10.8,48,10.5,48,10.1z"/>
	<path fill="#F3705A" d="M48,19.9v-5.4c0-0.4-0.3-0.7-0.7-0.7h-3.7v6.7h3.7C47.7,20.5,48,20.3,48,19.9z"/>
	<path fill="#FFD15C" d="M48,29.7v-5.4c0-0.4-0.3-0.7-0.7-0.7h-3.7v6.7h3.7C47.7,30.3,48,30,48,29.7z"/>
	<path fill="#F3705A" d="M48,39.4V34c0-0.4-0.3-0.7-0.7-0.7h-3.7v6.7h3.7C47.7,40.1,48,39.8,48,39.4z"/>
	<g>
		<path fill="#E8EAE9" d="M7.2,6.7H2.2C1,6.7,0,7.7,0,8.9s1,2.2,2.2,2.2h4.9c1.2,0,2.2-1,2.2-2.2S8.4,6.7,7.2,6.7z"/>
		<path fill="#E8EAE9" d="M7.2,36.9H2.2c-1.2,0-2.2,1-2.2,2.2s1,2.2,2.2,2.2h4.9c1.2,0,2.2-1,2.2-2.2S8.4,36.9,7.2,36.9z"/>
	</g>
	<g>
		<path fill="#415A6B" d="M33.9,27.7c0.4,0,0.8-0.3,1.1-1c0.3-0.7,0.5-1.6,0.5-2.6c0-2.3-0.7-4.1-2-5.6c-1.3-1.5-3-2.2-5.2-2.2
			s-4,0.8-5.5,2.3s-2.2,3.4-2.2,5.6s0.7,4,2.1,5.4c1.4,1.4,3.1,2.2,5.2,2.2c1.6,0,3.1-0.6,4.3-1.8l1,1.7c-0.6,0.6-1.5,1-2.5,1.4
			c-1,0.3-1.9,0.5-2.8,0.5c-2.7,0-4.9-0.9-6.7-2.7c-1.8-1.8-2.7-4-2.7-6.7s1-5,2.9-6.9c1.9-1.9,4.2-2.9,6.9-2.9s4.9,0.9,6.7,2.7
			c1.8,1.8,2.7,4.1,2.7,6.8c0,1.8-0.4,3.2-1.1,4.3c-0.7,1.1-1.7,1.6-2.9,1.6c-0.6,0-1.2-0.2-1.7-0.6c-0.5-0.4-0.9-0.8-1-1.4
			c-0.9,1.1-2,1.7-3.4,1.7c-1.4,0-2.5-0.5-3.5-1.5c-1-1-1.5-2.3-1.5-3.9c0-1.6,0.5-2.9,1.4-4c0.9-1.1,2.1-1.6,3.6-1.6
			c0.5,0,1,0.1,1.4,0.3c0.4,0.2,0.8,0.4,1,0.6l0.3,0.3v-1h3v7.7C33.2,27.3,33.4,27.7,33.9,27.7z M30.2,24.1c0-0.8-0.2-1.5-0.6-2
			c-0.4-0.5-1-0.8-1.7-0.8c-0.7,0-1.2,0.3-1.7,0.8c-0.4,0.5-0.6,1.2-0.6,2c0,0.8,0.2,1.5,0.6,2c0.4,0.6,1,0.9,1.7,0.9
			c0.7,0,1.3-0.3,1.7-0.8C30,25.6,30.2,24.9,30.2,24.1z"/>
	</g>
</g>
</svg>
