<?xml version="1.0" encoding="utf-8"?>
<!-- Generator: Adobe Illustrator 18.0.0, SVG Export Plug-In . SVG Version: 6.00 Build 0)  -->
<!DOCTYPE svg PUBLIC "-//W3C//DTD SVG 1.1//EN" "http://www.w3.org/Graphics/SVG/1.1/DTD/svg11.dtd">
<svg version="1.1" id="Layer_1" xmlns="http://www.w3.org/2000/svg" xmlns:xlink="http://www.w3.org/1999/xlink" x="0px" y="0px"
	 viewBox="0 0 48 48" enable-background="new 0 0 48 48" xml:space="preserve">
<g>
	<g>
		<path fill="#4EC0AA" d="M47.9,48v-6.7c-3.7-0.6-7.8-1-12.3-1c-13.8,0-25.1,3.4-26.3,7.7H47.9z"/>
		<g>
			<rect x="17.9" y="33.9" fill="#E8EAE9" width="3" height="11.7"/>
			<g>
				<path fill="#F3F3F3" d="M37.1,34.4H1.7c-1.3,0-2-1.2-1.5-2.7L6,13.3c0.2-0.7,1.1-1.2,1.9-1.2h22.9c0.8,0,1.7,0.5,1.9,1.2
					l5.9,18.4C39.1,33.2,38.4,34.4,37.1,34.4z"/>
				<g>
					<polygon fill="#8AD7F8" points="19.9,13.9 20,17.6 25.2,17.6 24.7,13.9 					"/>
					<polygon fill="#8AD7F8" points="12.9,23.3 18.7,23.3 18.8,18.7 13.5,18.7 					"/>
					<polygon fill="#8AD7F8" points="26.3,17.6 31.5,17.6 30.6,13.9 25.8,13.9 					"/>
					<polygon fill="#8AD7F8" points="25.3,18.7 20,18.7 20.1,23.3 25.9,23.3 					"/>
					<polygon fill="#8AD7F8" points="11.4,24.6 5.4,24.6 3.9,30.5 10.5,30.5 					"/>
					<polygon fill="#8AD7F8" points="13.6,17.6 18.8,17.6 18.8,13.9 14.1,13.9 					"/>
					<polygon fill="#8AD7F8" points="33.4,24.6 27.4,24.6 28.3,30.5 34.9,30.5 					"/>
					<polygon fill="#8AD7F8" points="26.5,18.7 27.2,23.3 33,23.3 31.8,18.7 					"/>
					<polygon fill="#8AD7F8" points="26,24.6 20.1,24.6 20.1,30.5 26.8,30.5 					"/>
					<polygon fill="#8AD7F8" points="7.2,17.6 12.4,17.6 13,13.9 8.2,13.9 					"/>
					<polygon fill="#8AD7F8" points="11.6,23.3 12.3,18.7 7,18.7 5.8,23.3 					"/>
					<polygon fill="#8AD7F8" points="18.7,24.6 12.7,24.6 12,30.5 18.6,30.5 					"/>
				</g>
			</g>
		</g>
		<g>
			<path fill="#66C6B9" d="M27.3,48c-1.9-3.3-10.1-6.8-19-6.8c-3,0-5.8,0.3-8.3,0.9V48H27.3z"/>
		</g>
		<g>
			<g>
				<polygon fill="#FFD15C" points="48,8.6 45.8,10.2 47.1,12.5 44.5,12.9 44.7,15.6 42.1,14.8 41.1,17.3 39.1,15.5 37.2,17.3 
					36.2,14.8 33.6,15.6 33.8,12.9 31.2,12.5 32.5,10.2 30.3,8.6 32.5,7.1 31.2,4.8 33.8,4.4 33.6,1.7 36.2,2.5 37.2,0 39.1,1.8 
					41.1,0 42.1,2.5 44.7,1.7 44.5,4.4 47.1,4.8 45.8,7.1 				"/>
			</g>
			<g>
				<circle fill="#F7B64C" cx="39.1" cy="8.6" r="4.7"/>
			</g>
		</g>
	</g>
</g>
</svg>
