<?xml version="1.0" encoding="utf-8"?>
<!-- Generator: Adobe Illustrator 18.0.0, SVG Export Plug-In . SVG Version: 6.00 Build 0)  -->
<!DOCTYPE svg PUBLIC "-//W3C//DTD SVG 1.1//EN" "http://www.w3.org/Graphics/SVG/1.1/DTD/svg11.dtd">
<svg version="1.1" id="Layer_1" xmlns="http://www.w3.org/2000/svg" xmlns:xlink="http://www.w3.org/1999/xlink" x="0px" y="0px"
	 viewBox="0 0 48 48" enable-background="new 0 0 48 48" xml:space="preserve">
<g>
	<path fill="#CDD6E0" d="M43.5,37h-2.7l-0.7-3.5L38,34l0.6,3H28l0.6-3l-2.1-0.4L25.8,37h-2.7c-0.6,0-1.1,0.5-1.1,1.1
		c0,0.6,0.5,1.1,1.1,1.1h20.3c0.6,0,1.1-0.5,1.1-1.1C44.6,37.5,44.1,37,43.5,37z"/>
	<path fill="#CDD6E0" d="M43.5,37h-2.7l-0.2-1l-0.5-2.4L38,34l0.4,2.2l0.2,0.8H28l0.1-0.8l0.5-2.3l-2.1-0.4L26,36.1L25.8,37h-2.7
		c-0.6,0-1.1,0.5-1.1,1.1c0,0.6,0.5,1.1,1.1,1.1h20.3c0.6,0,1.1-0.5,1.1-1.1C44.6,37.5,44.1,37,43.5,37z"/>
	<path fill="#C3D0DB" d="M40.1,33.6L38,34l0.4,2.2c0.9-0.1,1.7-0.1,2.2-0.2L40.1,33.6z M26,36.1c0.7,0.1,1.4,0.1,2.1,0.2l0.5-2.3
		l-2.1-0.4L26,36.1z"/>
	<path fill="#FFD15C" d="M47.9,25.7c-0.1-3.3-1.9-5.8-3.9-7.7c-2.9-2.6-6.6-3.9-10.5-4.1L9.4,14c-1-1.8-3.1-2.8-5.4-2.4
		c-1.9,0.4-3.5,1.9-3.9,3.8c-0.7,3.3,1.8,6.1,4.9,6.1c1.2,0,2.3-0.4,3.2-1.1c0,0,4.5,1,5.7,1.6c2.7,1.2,4.3,5.4,4.3,5.4
		c1.3,4.9,3.4,5.9,3.4,5.9c3.7,2.7,19.3,1.2,19.3,1.2C48.7,33.4,47.9,25.7,47.9,25.7z M5.1,18.8c-1.3,0-2.3-1-2.3-2.3
		c0-1.3,1-2.3,2.3-2.3c1.3,0,2.3,1,2.3,2.3C7.4,17.8,6.3,18.8,5.1,18.8z"/>
	<path fill="#54C0EB" d="M45.9,27.6c0.1-0.8,0.1-1.5,0.1-1.7l0-0.1c-0.2-6.2-9.6-9.9-11.7-9.9v11.7H45.9z"/>
	<path fill="#ACB3BA" d="M31.1,14h-6.4l0,0c0-0.8,0.6-1.5,1.5-1.5h3.5C30.4,12.6,31.1,13.2,31.1,14L31.1,14z"/>
	<rect x="27.2" y="11" fill="#CDD6E0" width="1.4" height="1.6"/>
	<path fill="#ACB3BA" d="M40.9,8.8h-26c-0.6,0-1.1,0.5-1.1,1.1c0,0.6,0.5,1.1,1.1,1.1h26c0.6,0,1.1-0.5,1.1-1.1
		C41.9,9.3,41.5,8.8,40.9,8.8z"/>
	<circle fill="#FF7058" cx="27.9" cy="22.4" r="4.5"/>
	<polygon fill="#FFFFFF" points="30.9,21.4 28.8,21.4 28.8,19.4 26.9,19.4 26.9,21.4 24.9,21.4 24.9,23.4 26.9,23.4 26.9,25.4 
		28.8,25.4 28.8,23.4 30.9,23.4 	"/>
	<g>
		<path fill="#FFFFFF" d="M38.6,17.3l-4.4,4.4v-2.2l2.8-2.8C37.5,16.8,38,17,38.6,17.3z"/>
		<path fill="#FFFFFF" d="M42,19.4l-7.8,7.8v-3.3l5.8-5.8C40.7,18.4,41.4,18.9,42,19.4z"/>
	</g>
</g>
</svg>
