<?xml version="1.0" encoding="utf-8"?>
<!-- Generator: Adobe Illustrator 18.0.0, SVG Export Plug-In . SVG Version: 6.00 Build 0)  -->
<!DOCTYPE svg PUBLIC "-//W3C//DTD SVG 1.1//EN" "http://www.w3.org/Graphics/SVG/1.1/DTD/svg11.dtd">
<svg version="1.1" id="Layer_1" xmlns="http://www.w3.org/2000/svg" xmlns:xlink="http://www.w3.org/1999/xlink" x="0px" y="0px"
	 viewBox="0 0 48 48" enable-background="new 0 0 48 48" xml:space="preserve">
<g>
	<g>
		<path fill="#40596B" d="M22.1,35.1l-1.2,9.6c-0.1,0.9-0.5,1.8-1.2,2.4c-0.5,0.5-1.1,0.8-1.9,0.8H9.3c-0.8,0-1.4-0.4-1.9-0.8
			c-0.7-0.6-1.1-1.5-1.2-2.4L5,35.1c-1.8-9.4,2-14.5,2-14.5c5.4-9.3,3.9-17.5,3.9-17.5h5.3c0,0-1.5,8.3,3.9,17.5
			C20.1,20.6,23.9,25.6,22.1,35.1z"/>
		<path fill="#FFD15C" d="M18.3,17c-3.2-7.7-2-13.9-2-13.9h-5.3c0,0,1.1,6.2-2,13.9C11.8,18.3,15.3,18.3,18.3,17z"/>
		<path opacity="0.1" fill="#231F20" d="M16,6.1c0-1.9,0.2-3,0.2-3h-5.3c0,0,0.2,1.1,0.2,3H16z"/>
		<path fill="#FF7058" d="M18.2,34.6c-0.7-2.7-2.5-4.6-4.6-4.6c-2.1,0-3.9,1.9-4.6,4.6H5c0,0.2,0,0.3,0.1,0.5l0.6,4.6H9
			c0.7,2.7,2.5,4.6,4.6,4.6c2.1,0,3.9-1.9,4.6-4.6h3.3l0.6-4.6c0-0.2,0-0.3,0.1-0.5H18.2z"/>
		<g>
			<path fill="#334A5E" d="M9.2,16.1C9.1,16.4,9,16.7,8.8,17c3,1.4,6.4,1.4,9.4,0c-0.1-0.3-0.2-0.6-0.3-0.9
				C15.1,17.3,12,17.3,9.2,16.1z"/>
		</g>
		<path fill="#FF7058" d="M16.2,0h-5.2c-0.4,0-0.7,0.3-0.7,0.7v3.2c0,0.4,0.3,0.7,0.7,0.7h5.2c0.4,0,0.7-0.3,0.7-0.7V0.7
			C16.8,0.3,16.5,0,16.2,0z"/>
	</g>
	<path fill="#40596B" d="M34.9,37.5c5.6-0.5,9.6-5.9,8.3-11.5l-1.1-4.7H25.8l-1.1,4.7c-1.3,5.6,2.7,11,8.3,11.5l0,9.1l-5.2,0.9V48
		h12.3v-0.5l-5.2-0.9L34.9,37.5z"/>
	<path fill="#F2F2F2" d="M41.8,26.7c0-0.2,0-0.3-0.1-0.5l-0.8-3.5H27l-0.8,3.5c0,0.2,0,0.3-0.1,0.5H41.8z"/>
	<g>
		<path fill="#334A5E" d="M32.3,30.7c-0.2-0.2-0.5-0.2-0.7,0l-1.7,1.7c-0.2,0.2-0.2,0.5,0,0.7l1.7,1.7c0.2,0.2,0.5,0.2,0.7,0
			l1.7-1.7c0.2-0.2,0.2-0.5,0-0.7L32.3,30.7z"/>
		<path fill="#334A5E" d="M38.1,30.3l-1.7-1.7c-0.2-0.2-0.5-0.2-0.7,0l-1.7,1.7c-0.2,0.2-0.2,0.5,0,0.7l1.7,1.7
			c0.2,0.2,0.5,0.2,0.7,0l1.7-1.7C38.2,30.7,38.2,30.4,38.1,30.3z"/>
	</g>
</g>
</svg>
