<?xml version="1.0" encoding="utf-8"?>
<!-- Generator: Adobe Illustrator 19.0.1, SVG Export Plug-In . SVG Version: 6.00 Build 0)  -->
<svg version="1.1" id="Layer_1" xmlns="http://www.w3.org/2000/svg" xmlns:xlink="http://www.w3.org/1999/xlink" x="0px" y="0px"
	 viewBox="0 0 48 48" style="enable-background:new 0 0 48 48;" xml:space="preserve">
<style type="text/css">
	.st0{fill:#415A6B;}
	.st1{fill:#ADB3BA;}
	.st2{fill:#E8EAE9;}
	.st3{fill:#55C0EB;}
	.st4{fill:#F3705A;}
	.st5{fill:#FFFFFF;}
	.st6{fill:#FFD15C;}
	.st7{fill:#344A5E;}
	.st8{fill:#CED6E0;}
	.st9{fill:#F05540;}
	.st10{fill:#F7B64C;}
	.st11{fill:#F3F3F3;}
	.st12{fill:#66C6B9;}
	.st13{fill:#4ABAA5;}
	.st14{fill:#8AD7F8;}
	.st15{fill:none;}
	.st16{fill:#E53D35;}
</style>
<g>
	<g>
		<g>
			<polygon class="st8" points="28.8,39.3 19.2,39.3 15.2,44.9 32.8,44.9 			"/>
		</g>
		<path class="st0" d="M48,3v30H0V3c0-1.7,1.3-3,3-3h42C46.7,0,48,1.3,48,3z"/>
		<g>
			<rect x="4" y="4" class="st11" width="40" height="25"/>
		</g>
		<path class="st2" d="M33.9,44.3H14.1c-1.8,0-3.3,1.5-3.3,3.3V48h26.5v-0.4C37.2,45.7,35.8,44.3,33.9,44.3z"/>
		<g>
			<path class="st2" d="M48,33v4.2c0,1.7-1.3,3-3,3H3c-1.7,0-3-1.3-3-3V33H48z"/>
		</g>
		<g>
			<circle class="st0" cx="23.8" cy="36.5" r="1.4"/>
		</g>
		<g>
			<g>
				<path class="st4" d="M15.2,19.5H13c0-0.3,0-0.5,0-0.6c0-0.7,0.1-1.3,0.3-1.7c0.2-0.4,0.7-0.9,1.4-1.5c0.7-0.6,1.1-0.9,1.2-1.1
					c0.2-0.3,0.3-0.6,0.3-0.9c0-0.5-0.2-0.8-0.5-1.2c-0.4-0.3-0.9-0.5-1.5-0.5c-0.6,0-1.1,0.2-1.5,0.5c-0.4,0.3-0.7,0.9-0.8,1.6
					l-2.2-0.3c0.1-1,0.5-1.8,1.3-2.5c0.8-0.7,1.8-1,3.1-1c1.3,0,2.4,0.4,3.2,1.1s1.2,1.5,1.2,2.5c0,0.5-0.1,1-0.4,1.5
					c-0.3,0.5-0.9,1.1-1.9,1.9c-0.5,0.4-0.8,0.7-0.9,1C15.2,18.4,15.1,18.9,15.2,19.5z M13,22.7v-2.3h2.3v2.3H13z"/>
			</g>
			<g>
				<g>
					<polygon class="st0" points="25.3,21.6 25.3,18.7 20.2,18.7 20.2,14.2 25.3,14.2 25.3,11.4 30.4,16.5 					"/>
				</g>
			</g>
			<g>
				<g>
					<path class="st12" d="M36.2,19.6L35.5,13v-3h2.7v3l-0.6,6.6H36.2z M35.6,23v-2.5h2.5V23H35.6z"/>
				</g>
			</g>
		</g>
	</g>
</g>
</svg>
