<?xml version="1.0" encoding="utf-8"?>
<!-- Generator: Adobe Illustrator 18.0.0, SVG Export Plug-In . SVG Version: 6.00 Build 0)  -->
<!DOCTYPE svg PUBLIC "-//W3C//DTD SVG 1.1//EN" "http://www.w3.org/Graphics/SVG/1.1/DTD/svg11.dtd">
<svg version="1.1" id="Layer_1" xmlns="http://www.w3.org/2000/svg" xmlns:xlink="http://www.w3.org/1999/xlink" x="0px" y="0px"
	 viewBox="0 0 48 48" enable-background="new 0 0 48 48" xml:space="preserve">
<g>
	<g>
		<g>
			<path fill="#55C0EB" d="M14.7,22.3c-2.4,6.4-3.1,15.2-2,23.2c0.2,1.4,1.4,2.5,2.9,2.5h16.8c1.4,0,2.7-1.1,2.9-2.5
				c1.1-7.9,0.3-16.8-2-23.2c-0.2-0.5-0.6-0.7-1.1-0.7H15.8C15.4,21.6,14.9,21.9,14.7,22.3z"/>
		</g>
		<rect x="18.2" y="16.1" fill="#415A6B" width="11.7" height="5.5"/>
		<g>
			<ellipse fill="#FFFFFF" cx="24" cy="34.5" rx="7.1" ry="4.7"/>
		</g>
		<path fill="#415A6B" d="M16.7,3.2v18.4h14.6V3.2c0-1.8-1.4-3.2-3.2-3.2h-8.2C18.1,0,16.7,1.4,16.7,3.2z"/>
		<path fill="#415A6B" d="M16.7,3.2v18.4h14.6V3.2c0-1.8-1.4-3.2-3.2-3.2h-8.2C18.1,0,16.7,1.4,16.7,3.2z"/>
	</g>
</g>
</svg>
