<?xml version="1.0" encoding="utf-8"?>
<!-- Generator: Adobe Illustrator 18.0.0, SVG Export Plug-In . SVG Version: 6.00 Build 0)  -->
<!DOCTYPE svg PUBLIC "-//W3C//DTD SVG 1.1//EN" "http://www.w3.org/Graphics/SVG/1.1/DTD/svg11.dtd">
<svg version="1.1" id="Layer_1" xmlns="http://www.w3.org/2000/svg" xmlns:xlink="http://www.w3.org/1999/xlink" x="0px" y="0px"
	 viewBox="0 0 512 512" enable-background="new 0 0 512 512" xml:space="preserve">
<g>
	<path fill="#F2705B" d="M405.2,69.9h-382C11.5,69.9,2,79.4,2,91.1v397.7c0,11.7,9.5,21.2,21.2,21.2h382c11.7,0,21.2-9.5,21.2-21.2
		V91.1C426.4,79.4,416.9,69.9,405.2,69.9z"/>
	<path fill="#F2F2F2" d="M392.5,106.7v355.1c0,7.9-6.4,14.3-14.2,14.3H122.4l-86.6-86.6V106.7c0-7.9,6.4-14.3,14.3-14.3h328.2
		C386.1,92.4,392.5,98.8,392.5,106.7z"/>
	<path fill="#41596B" d="M310,38h-59.9c0-19.8-16.1-35.9-35.9-35.9c-19.8,0-35.9,16.1-35.9,35.9h-59.9c-8.8,0-16,7.2-16,16v69.9H326
		V54C326,45.1,318.8,38,310,38z M214.2,57.2c-10.6,0-19.2-8.6-19.2-19.2s8.6-19.2,19.2-19.2c10.6,0,19.2,8.6,19.2,19.2
		S224.8,57.2,214.2,57.2z"/>
	<path opacity="0.5" fill="#334A5E" d="M310,38h-59.9c0-19.8-16.1-35.9-35.9-35.9c-19.8,0-35.9,16.1-35.9,35.9h-59.9
		c-8.8,0-16,7.2-16,16v11.3c0-8.8,7.2-16,16-16h59.9c0-19.8,16.1-35.9,35.9-35.9c19.8,0,35.9,16.1,35.9,35.9H310c8.8,0,16,7.2,16,16
		V54C326,45.1,318.8,38,310,38z"/>
	<path fill="#65C5B8" d="M111.8,389.5H35.9l86.6,86.6v-75.9C122.4,394.2,117.7,389.5,111.8,389.5z"/>
	<rect x="66.3" y="155.2" fill="#FFD05C" width="128.7" height="20.4"/>
	<rect x="66.3" y="219.4" fill="#89D6F7" width="300" height="20.4"/>
	<rect x="66.3" y="283.5" fill="#89D6F7" width="259.7" height="20.4"/>
	<rect x="66.3" y="347.7" fill="#89D6F7" width="257.4" height="20.4"/>
	<path fill="#ABB2B9" d="M502.4,162.7l-38.9-38.9c-10.1-10.1-26.4-10.1-36.4-0.1L211.4,339.5l-10,57.5l-5.8,33.5l33.5-5.8l57.6-9.9
		l215.7-215.7C512.5,189.1,512.5,172.8,502.4,162.7z"/>
	
		<rect x="372.5" y="154.3" transform="matrix(0.7071 -0.7071 0.7071 0.7071 -24.1939 356.8251)" fill="#CDD5DF" width="92.3" height="106.6"/>
	
		<rect x="241.4" y="302.2" transform="matrix(0.7071 -0.7071 0.7071 0.7071 -172.0283 295.5958)" fill="#CDD5DF" width="58.8" height="106.6"/>
	<path fill="#FFFFFF" d="M431.7,155.4l-12,12l12.5,12.5l-70.8,70.8c-3.6,0-7.2,1.4-9.9,4.1c-5.5,5.5-5.5,14.4,0,19.9
		c5.5,5.5,14.4,5.5,19.9,0c2.7-2.7,4.1-6.3,4.1-9.9l70.8-70.8l12.5,12.5l12-12L431.7,155.4z"/>
	<polygon fill="#334A5E" points="229.2,424.7 195.7,430.5 201.5,397 	"/>
</g>
</svg>
