<?xml version="1.0" encoding="utf-8"?>
<!-- Generator: Adobe Illustrator 16.0.0, SVG Export Plug-In . SVG Version: 6.00 Build 0)  -->
<!DOCTYPE svg PUBLIC "-//W3C//DTD SVG 1.1//EN" "http://www.w3.org/Graphics/SVG/1.1/DTD/svg11.dtd">
<svg version="1.1" id="Layer_1" xmlns="http://www.w3.org/2000/svg" xmlns:xlink="http://www.w3.org/1999/xlink" x="0px" y="0px"
	 width="48px" height="48px" viewBox="0 0 48 48" enable-background="new 0 0 48 48" xml:space="preserve">
<g>
	<polygon fill="#40596B" points="13.234,15.843 22.021,7.056 20.254,5.289 9.699,15.843 	"/>
	<polygon fill="#40596B" points="38.301,15.843 27.746,5.289 25.979,7.056 34.767,15.843 	"/>
	<path fill="#FF7058" d="M28.594,4.593c0,2.537-2.057,4.595-4.594,4.595s-4.594-2.058-4.594-4.595C19.406,2.057,21.463,0,24,0
		S28.594,2.057,28.594,4.593"/>
	<path fill="#FFFFFF" d="M25.587,4.593c0,0.877-0.71,1.588-1.587,1.588c-0.876,0-1.587-0.711-1.587-1.588
		c0-0.875,0.711-1.586,1.587-1.586C24.877,3.007,25.587,3.718,25.587,4.593"/>
	<path fill="#F2F2F2" d="M46,48H2c-1.105,0-2-0.895-2-2V17.6c0-1.104,0.895-2,2-2h44c1.105,0,2,0.896,2,2V46
		C48,47.105,47.105,48,46,48"/>
	<rect x="4.001" y="19.6" fill="#84DBFF" width="40" height="24.399"/>
	<path fill="#40596B" d="M11.817,34.402h-1.151c-0.268,0-0.484,0.217-0.484,0.485v2.294H7.891v-2.294
		c0-0.269-0.217-0.485-0.485-0.485H6.25c-0.27,0-0.486,0.217-0.486,0.485v6.94c0,0.268,0.217,0.484,0.486,0.484h1.155
		c0.269,0,0.485-0.217,0.485-0.484V39.15h2.291v2.678c0,0.268,0.217,0.484,0.484,0.484h1.151c0.269,0,0.485-0.217,0.485-0.484v-6.94
		C12.303,34.619,12.086,34.402,11.817,34.402"/>
	<path fill="#40596B" d="M20.055,35.429c-0.336-0.359-0.744-0.643-1.215-0.844c-0.93-0.392-2.148-0.392-3.073,0.002
		c-0.469,0.199-0.877,0.482-1.213,0.84c-0.338,0.359-0.601,0.795-0.786,1.297c-0.18,0.492-0.271,1.042-0.271,1.634
		c0,0.595,0.09,1.146,0.266,1.636c0.18,0.5,0.439,0.936,0.773,1.299c0.336,0.364,0.746,0.648,1.215,0.844
		c0.466,0.197,0.988,0.295,1.552,0.295c0.565,0,1.088-0.1,1.556-0.297c0.473-0.2,0.883-0.486,1.217-0.852
		c0.334-0.363,0.593-0.8,0.771-1.298c0.175-0.491,0.265-1.038,0.265-1.627c0-0.59-0.093-1.14-0.273-1.634
		C20.652,36.223,20.389,35.789,20.055,35.429 M18.955,38.358c0,0.343-0.043,0.655-0.131,0.927c-0.082,0.26-0.199,0.483-0.348,0.663
		c-0.143,0.175-0.308,0.304-0.507,0.396c-0.397,0.186-0.935,0.191-1.344,0c-0.196-0.092-0.361-0.221-0.505-0.396
		c-0.148-0.181-0.267-0.405-0.352-0.665c-0.087-0.271-0.131-0.582-0.131-0.925c0-0.34,0.043-0.649,0.13-0.922
		c0.084-0.261,0.2-0.483,0.349-0.661c0.146-0.176,0.313-0.307,0.516-0.4c0.199-0.094,0.429-0.142,0.68-0.142
		c0.248,0,0.475,0.048,0.67,0.142c0.198,0.096,0.361,0.227,0.502,0.4c0.146,0.186,0.262,0.408,0.344,0.667
		C18.912,37.712,18.955,38.02,18.955,38.358"/>
	<path fill="#40596B" d="M27.771,34.402H22.25c-0.269,0-0.486,0.217-0.486,0.485v1.009c0,0.27,0.218,0.486,0.486,0.486h1.693v5.445
		c0,0.268,0.218,0.484,0.486,0.484h1.152c0.268,0,0.484-0.217,0.484-0.484v-5.445h1.705c0.268,0,0.484-0.217,0.484-0.486v-1.009
		C28.256,34.619,28.039,34.402,27.771,34.402"/>
	<path fill="#40596B" d="M34.935,40.344h-3.609v-1.091h3.195c0.269,0,0.485-0.217,0.485-0.486v-1.009
		c0-0.269-0.217-0.485-0.485-0.485h-3.195v-0.902h3.445c0.269,0,0.485-0.217,0.485-0.484v-0.998c0-0.27-0.217-0.486-0.485-0.486
		h-5.087c-0.268,0-0.485,0.217-0.485,0.486v6.939c0,0.268,0.218,0.484,0.485,0.484h5.251c0.269,0,0.485-0.217,0.485-0.484V40.83
		C35.42,40.561,35.203,40.344,34.935,40.344"/>
	<path fill="#40596B" d="M41.54,40.333h-2.774v-5.445c0-0.269-0.218-0.485-0.486-0.485h-1.156c-0.27,0-0.486,0.217-0.486,0.485
		v6.938c0,0.269,0.217,0.486,0.486,0.486h4.417c0.269,0,0.485-0.218,0.485-0.486v-1.008C42.025,40.55,41.809,40.333,41.54,40.333"/>
	<polygon fill="#FFFFFF" points="13.945,22.383 15.346,25.222 18.48,25.679 16.212,27.888 16.748,31.009 13.945,29.536 
		11.143,31.009 11.678,27.888 9.41,25.679 12.544,25.222 	"/>
	<polygon fill="#FFFFFF" points="24,22.383 25.401,25.222 28.535,25.679 26.268,27.888 26.803,31.009 24,29.536 21.197,31.009 
		21.733,27.888 19.465,25.679 22.6,25.222 	"/>
	<polygon fill="#FFFFFF" points="34.057,22.383 35.457,25.222 38.591,25.679 36.322,27.888 36.859,31.009 34.057,29.536 
		31.253,31.009 31.789,27.888 29.521,25.679 32.654,25.222 	"/>
</g>
</svg>
