<?xml version="1.0" encoding="utf-8"?>
<!-- Generator: Adobe Illustrator 18.0.0, SVG Export Plug-In . SVG Version: 6.00 Build 0)  -->
<!DOCTYPE svg PUBLIC "-//W3C//DTD SVG 1.1//EN" "http://www.w3.org/Graphics/SVG/1.1/DTD/svg11.dtd">
<svg version="1.1" id="Layer_1" xmlns="http://www.w3.org/2000/svg" xmlns:xlink="http://www.w3.org/1999/xlink" x="0px" y="0px"
	 viewBox="0 0 48 48" enable-background="new 0 0 48 48" xml:space="preserve">
<g>
	<path fill="#F2F2F2" d="M28.5,37.5h-9c-1.1,0-2-0.9-2-2v-2.3h13v2.3C30.5,36.6,29.6,37.5,28.5,37.5z"/>
	<rect x="20.4" y="37.5" fill="#F2F2F2" width="7.2" height="10.5"/>
	<circle fill="#40596B" cx="24" cy="17.7" r="17.7"/>
	<path fill="#FFD15C" d="M24,31c-7.3,0-13.3-6-13.3-13.3c0-7.3,6-13.3,13.3-13.3s13.3,6,13.3,13.3C37.3,25.1,31.3,31,24,31z"/>
	<path fill="#F8B64C" d="M24,5.4c7.2,0,13,5.7,13.3,12.8c0-0.2,0-0.3,0-0.5c0-7.3-6-13.3-13.3-13.3s-13.3,6-13.3,13.3
		c0,0.2,0,0.3,0,0.5C11,11.1,16.8,5.4,24,5.4z"/>
	<path fill="#F2F2F2" d="M24,27.3c-5.3,0-9.6-4.3-9.6-9.6c0-5.3,4.3-9.6,9.6-9.6s9.6,4.3,9.6,9.6C33.6,23,29.3,27.3,24,27.3z"/>
	<rect x="20.4" y="37.5" fill="#E4EAEF" width="7.2" height="1.5"/>
	<g>
		<path fill="#FF7058" d="M24,5.4c-0.1,0-0.3,0.1-0.3,0.3v1.4c0,0.1,0.1,0.3,0.3,0.3s0.3-0.1,0.3-0.3V5.7C24.3,5.5,24.1,5.4,24,5.4z
			"/>
		<path fill="#FF7058" d="M19.3,6.4c-0.1,0.1-0.2,0.2-0.1,0.3L19.7,8c0,0.1,0.1,0.2,0.2,0.2c0,0,0.1,0,0.1,0
			c0.1-0.1,0.2-0.2,0.1-0.3l-0.5-1.3C19.6,6.4,19.4,6.3,19.3,6.4z"/>
		<path fill="#FF7058" d="M15.7,9c-0.1-0.1-0.3-0.1-0.4,0s-0.1,0.3,0,0.4l1,1c0,0,0.1,0.1,0.2,0.1s0.1,0,0.2-0.1
			c0.1-0.1,0.1-0.3,0-0.4L15.7,9z"/>
		<path fill="#FF7058" d="M31.7,25c-0.1-0.1-0.3-0.1-0.4,0s-0.1,0.3,0,0.4l1,1c0,0,0.1,0.1,0.2,0.1s0.1,0,0.2-0.1
			c0.1-0.1,0.1-0.3,0-0.4L31.7,25z"/>
		<path fill="#FF7058" d="M14.3,13.4L13,12.9c-0.1-0.1-0.3,0-0.3,0.1c-0.1,0.1,0,0.3,0.1,0.3l1.3,0.5c0,0,0.1,0,0.1,0
			c0.1,0,0.2-0.1,0.2-0.2C14.5,13.6,14.4,13.5,14.3,13.4z"/>
		<path fill="#FF7058" d="M33.9,21.5c-0.1-0.1-0.3,0-0.3,0.1s0,0.3,0.1,0.3l1.3,0.5c0,0,0.1,0,0.1,0c0.1,0,0.2-0.1,0.2-0.2
			c0.1-0.1,0-0.3-0.1-0.3L33.9,21.5z"/>
		<path fill="#FF7058" d="M13.6,17.7c0-0.1-0.1-0.3-0.3-0.3H12c-0.1,0-0.3,0.1-0.3,0.3S11.8,18,12,18h1.4
			C13.5,18,13.6,17.9,13.6,17.7z"/>
		<path fill="#FF7058" d="M36,17.5h-1.4c-0.1,0-0.3,0.1-0.3,0.3s0.1,0.3,0.3,0.3H36c0.1,0,0.3-0.1,0.3-0.3S36.2,17.5,36,17.5z"/>
		<path fill="#FF7058" d="M14.1,21.5l-1.3,0.5c-0.1,0.1-0.2,0.2-0.1,0.3c0,0.1,0.1,0.2,0.2,0.2c0,0,0.1,0,0.1,0l1.3-0.5
			c0.1-0.1,0.2-0.2,0.1-0.3C14.4,21.6,14.2,21.5,14.1,21.5z"/>
		<path fill="#FF7058" d="M33.8,13.9C33.8,13.9,33.9,13.9,33.8,13.9l1.4-0.6c0.1-0.1,0.2-0.2,0.1-0.3c-0.1-0.1-0.2-0.2-0.3-0.1
			l-1.3,0.5c-0.1,0.1-0.2,0.2-0.1,0.3C33.6,13.8,33.7,13.9,33.8,13.9z"/>
		<path fill="#FF7058" d="M16.3,25l-1,1c-0.1,0.1-0.1,0.3,0,0.4c0,0,0.1,0.1,0.2,0.1s0.1,0,0.2-0.1l1-1c0.1-0.1,0.1-0.3,0-0.4
			S16.4,24.9,16.3,25z"/>
		<path fill="#FF7058" d="M32.3,9l-1,1c-0.1,0.1-0.1,0.3,0,0.4c0,0,0.1,0.1,0.2,0.1s0.1,0,0.2-0.1l1-1c0.1-0.1,0.1-0.3,0-0.4
			S32.4,8.9,32.3,9z"/>
		<path fill="#FF7058" d="M28.7,6.4c-0.1-0.1-0.3,0-0.3,0.1l-0.5,1.3c-0.1,0.1,0,0.3,0.1,0.3c0,0,0.1,0,0.1,0c0.1,0,0.2-0.1,0.2-0.2
			l0.5-1.3C28.9,6.6,28.8,6.4,28.7,6.4z"/>
	</g>
	<polygon fill="#40596B" points="26.5,19.2 25.7,19.9 18.1,11.8 	"/>
	<circle fill="#FF7058" cx="24" cy="17.5" r="1.4"/>
	<circle fill="#FFFFFF" cx="24" cy="17.5" r="0.4"/>
</g>
</svg>
