<?xml version="1.0" encoding="utf-8"?>
<!-- Generator: Adobe Illustrator 18.0.0, SVG Export Plug-In . SVG Version: 6.00 Build 0)  -->
<!DOCTYPE svg PUBLIC "-//W3C//DTD SVG 1.1//EN" "http://www.w3.org/Graphics/SVG/1.1/DTD/svg11.dtd">
<svg version="1.1" id="Layer_1" xmlns="http://www.w3.org/2000/svg" xmlns:xlink="http://www.w3.org/1999/xlink" x="0px" y="0px"
	 viewBox="0 0 48 48" enable-background="new 0 0 48 48" xml:space="preserve">
<g>
	<path fill="#84DBFF" d="M43.8,7v20.6c-10.2-6.5-18.5,4.6-28.4,1.6c-1.1-0.3-2.2-0.8-3.4-1.6V7c1.1,0.7,2.3,1.2,3.4,1.6
		C25.3,11.6,33.6,0.5,43.8,7z"/>
	<path fill="#54C0EB" d="M15.4,8.6v20.6c-1.1-0.3-2.2-0.8-3.4-1.6V7C13.2,7.8,14.3,8.3,15.4,8.6z"/>
	<path fill="#F2F2F2" d="M19.9,48H4.2v-0.6c0-1.7,1.4-3.1,3.1-3.1h9.4c1.7,0,3.1,1.4,3.1,3.1V48z"/>
	<path fill="#F2F2F2" d="M13.9,5.9v38.3h-3.7V5.9c0-1,0.8-1.9,1.9-1.9C13.1,4.1,13.9,4.9,13.9,5.9z"/>
	<path fill="#CDD6E0" d="M13.9,5.9v1.9c-0.6,0.3-1.2,0.4-1.9,0.4c-0.7,0-1.3-0.1-1.9-0.4V5.9c0-1,0.8-1.9,1.9-1.9
		C13.1,4.1,13.9,4.9,13.9,5.9z"/>
	<circle fill="#40596B" cx="12" cy="3.5" r="3.5"/>
</g>
</svg>
