<?xml version="1.0" encoding="utf-8"?>
<!-- Generator: Adobe Illustrator 18.0.0, SVG Export Plug-In . SVG Version: 6.00 Build 0)  -->
<!DOCTYPE svg PUBLIC "-//W3C//DTD SVG 1.1//EN" "http://www.w3.org/Graphics/SVG/1.1/DTD/svg11.dtd">
<svg version="1.1" id="Layer_1" xmlns="http://www.w3.org/2000/svg" xmlns:xlink="http://www.w3.org/1999/xlink" x="0px" y="0px"
	 viewBox="0 0 512 512" enable-background="new 0 0 512 512" xml:space="preserve">
<g>
	<path fill="#4CDBC4" d="M188.6,347.1V510h-77.4l-55-148.6l-4.6-14.3l-0.5-1.5c3.2,1,6.5,1.5,10,1.5H188.6z"/>
	<polygon fill="#3DC9AE" points="188.6,347.1 188.6,361.4 56.2,361.4 51.6,347.1 	"/>
	<path fill="#40596B" d="M61.1,79.3c-18.7,0-33.9,15.4-33.9,34.3v199.2c0,18.9,15.1,34.3,33.9,34.3h155.8V79.3H61.1z"/>
	<path fill="#F2F2F2" d="M483.1,2.8L216.9,79.3v267.8l264.7,96.7c13.8,5,28.3-5.3,28.3-20.2V23.5C510,9.2,496.6-1.1,483.1,2.8z"/>
	<path fill="#CDD6E0" d="M483.1,2.8l-34,9.8v419.3l32.6,11.9c13.8,5,28.3-5.3,28.3-20.2V23.5C510,9.2,496.6-1.1,483.1,2.8z"/>
	<path fill="#F2F2F2" d="M13.3,117.8c-6.2,0-11.3,5.1-11.3,11.4v167.9c0,6.3,5.1,11.4,11.3,11.4h13.9V117.8H13.3z"/>
	<path fill="#334A5E" d="M94.4,213.2c0,5.7-4.6,10.3-10.2,10.3h-57v-20.7h57C89.8,202.8,94.4,207.5,94.4,213.2z"/>
	<g>
		<path fill="#334A5E" d="M94.4,167.9c0,5.7-4.6,10.3-10.2,10.3h-57v-20.6h57C89.8,157.6,94.4,162.3,94.4,167.9z"/>
		<path fill="#334A5E" d="M94.4,258.4c0,5.7-4.6,10.3-10.2,10.3h-57v-20.6h57C89.8,248.1,94.4,252.7,94.4,258.4z"/>
	</g>
</g>
</svg>
