<?xml version="1.0" encoding="utf-8"?>
<!-- Generator: Adobe Illustrator 16.0.0, SVG Export Plug-In . SVG Version: 6.00 Build 0)  -->
<!DOCTYPE svg PUBLIC "-//W3C//DTD SVG 1.1//EN" "http://www.w3.org/Graphics/SVG/1.1/DTD/svg11.dtd">
<svg version="1.1" id="Layer_1" xmlns="http://www.w3.org/2000/svg" xmlns:xlink="http://www.w3.org/1999/xlink" x="0px" y="0px"
	 width="48px" height="48px" viewBox="0 0 48 48" enable-background="new 0 0 48 48" xml:space="preserve">
<g>
	<path fill="#FFD15C" d="M44.85-0.053h-32.03c-1.77,0-3.203,1.434-3.203,3.203v32.031c0,1.77,1.434,3.203,3.203,3.203h32.03
		c1.769,0,3.203-1.434,3.203-3.203V3.15C48.053,1.381,46.618-0.053,44.85-0.053"/>
	<polygon fill="#F8B64C" points="24.083,-0.053 24.083,9.847 25.624,7.933 27.23,9.927 28.835,7.933 30.441,9.927 32.046,7.933 
		33.585,9.843 33.585,-0.053 	"/>
	<path fill="#FFFFFF" d="M30.34,24.85h7.614v7.615H30.34V24.85z M37.427,25.377h-6.561v6.561h6.561V25.377z"/>
	<path fill="#FFFFFF" d="M27.944,25.885c-0.002-0.002-0.002-0.004-0.004-0.006h-1.592l0.063,0.588l0.013,0.115l-0.063,0.051
		l-0.781,0.627l0.281,0.761l-0.442-0.752l-0.024-0.041l0.041-0.048l0.6-0.715l-0.184-0.586h-2.787
		c0.099,1.525,0.957,2.756,2.062,2.985v1.812h-0.856v0.758h2.469v-0.758h-0.854v-1.812C26.987,28.633,27.845,27.407,27.944,25.885"
		/>
	<path fill="#FFFFFF" d="M12.294,23.619c0.025,0.231,0.025,0.465-0.006,0.696h6.107v8.683h-7.055
		c0.117,0.217,0.197,0.453,0.249,0.697h7.503V23.619H12.294z"/>
	<path fill="#FFFFFF" d="M28.194,32.998h-7.03v-8.682h6.433c0.016-0.238,0.055-0.474,0.129-0.697h-7.26v10.076h7.727
		C28.165,33.464,28.166,33.23,28.194,32.998"/>
	<polygon fill="#FFFFFF" points="14.721,31.766 13.391,31.766 13.391,27.779 11.823,27.779 14.055,25.547 16.286,27.779 
		14.721,27.779 	"/>
	<path fill="#FFFFFF" d="M36.521,28.638c-0.024-1.292-1.077-2.333-2.375-2.333s-2.351,1.041-2.375,2.333H36.521z"/>
	<path fill="#FFFFFF" d="M33.761,31.009c-0.307,0-0.557-0.25-0.557-0.557v-0.097h0.357v0.097c0,0.108,0.09,0.198,0.199,0.198
		c0.108,0,0.197-0.09,0.197-0.198v-2.769h0.358v2.769C34.316,30.759,34.066,31.009,33.761,31.009"/>
	
		<rect x="9.025" y="34.971" transform="matrix(0.7071 0.7071 -0.7071 0.7071 29.3422 3.0485)" fill="#E8EAEA" width="3.933" height="3.944"/>
	<path fill="#40596B" d="M11.62,36.316c-4.364-4.365-4.364-11.466,0-15.83c4.363-4.363,11.464-4.363,15.828,0.002
		c4.363,4.362,4.363,11.463,0,15.828C23.085,40.679,15.983,40.679,11.62,36.316 M25.317,22.619
		c-3.189-3.189-8.377-3.189-11.566-0.002c-3.188,3.189-3.188,8.377,0.001,11.566c3.188,3.188,8.377,3.188,11.565,0
		C28.505,30.996,28.505,25.807,25.317,22.619"/>
	<path fill="#FF7058" d="M11.614,39.389l-3.002-3.002c-0.396-0.397-1.04-0.397-1.436,0l-6.385,6.384
		c-1.127,1.126-1.127,2.952,0,4.077l0.36,0.361c1.126,1.125,2.952,1.125,4.078,0l6.384-6.385
		C12.011,40.428,12.011,39.785,11.614,39.389"/>
	<path fill="#F1543F" d="M11.351,41.094l-4.443-4.445c-0.318-0.318-0.318-0.836,0-1.153c0.318-0.319,0.836-0.319,1.154,0
		l4.443,4.444c0.319,0.317,0.319,0.834,0,1.154C12.187,41.412,11.671,41.412,11.351,41.094"/>
</g>
</svg>
