<?xml version="1.0" encoding="utf-8"?>
<!-- Generator: Adobe Illustrator 18.0.0, SVG Export Plug-In . SVG Version: 6.00 Build 0)  -->
<!DOCTYPE svg PUBLIC "-//W3C//DTD SVG 1.1//EN" "http://www.w3.org/Graphics/SVG/1.1/DTD/svg11.dtd">
<svg version="1.1" id="Layer_1" xmlns="http://www.w3.org/2000/svg" xmlns:xlink="http://www.w3.org/1999/xlink" x="0px" y="0px"
	 viewBox="0 0 48 48" enable-background="new 0 0 48 48" xml:space="preserve">
<g>
	<path fill="#FF7058" d="M36,1.6C26.9-2.2,16.2,0.8,9.2,9.9l9.2,3.5c0.1-4.5,8.1-8.7,17.2-9.3C37,4,37.3,2.1,36,1.6z"/>
	<path opacity="0.1" fill="#231F20" d="M36,1.6C26.9-2.2,16.2,0.8,9.2,9.9l9.2,3.5c0.1-4.5,8.1-8.7,17.2-9.3C37,4,37.3,2.1,36,1.6z"
		/>
	<g>
		<path fill="#FF7058" d="M12.8,18.7c-0.7-0.9-1.4-1.7-2.1-2.5c-0.6-0.6-1.3-1.2-2.1-1.5c-0.9-0.3-1.8-0.3-2.7-0.2
			c-0.5,0.4-0.9,0.7-1.4,1.1C4,16,3.4,16.5,3.2,17.1C3,17.5,2.9,18,2.9,18.5c0,2.2,1.5,4.3,3.4,5.5c1.9,1.2,4.2,1.5,6.4,1.7
			c0.3,0,0.7,0,1-0.1c0.5-0.2,0.8-0.8,0.9-1.4C15,22.2,14,20.3,12.8,18.7z"/>
		<path fill="#FF7058" d="M5.9,14.5C5.9,14.5,5.9,14.5,5.9,14.5c0.1-0.1,0.2-0.2,0.3-0.3L5.9,14.5z"/>
	</g>
	<path fill="#FF7058" d="M12.6,48H48V37.9c-2.2-2.8-4.1-5.8-5.8-9c-5.4-10.6-9.4-15.8-13.2-19c-2.9-2.4-6.3-4.1-10-4.7
		C5.8,2.8,3.9,14.8,3.9,14.8S14.4,21,15.8,28.4c0,0,2.5,4.6-1.8,14.1C13.2,44.3,12.8,46.1,12.6,48z"/>
	<path fill="#40596B" d="M4.5,17.7c0,0,13.5,3.6,12.6,11c0,0-7.3,2.6-12.9-1.2S4.5,17.7,4.5,17.7z"/>
	<path fill="#FFFFFF" d="M16.4,30.7c0,0-0.5-5.1-4.3-7.8c-4.4-3.1-5.2-5.5-5.2-5.5s-0.8-6.3,6.3-5.4c3.7,0.5,5.5,3.3,6.1,5.6
		c0.5,1.7,0.4,3.6,0,5.3C18.8,25,17.4,29.3,16.4,30.7z"/>
	<g>
		<ellipse fill="#54C0EB" cx="13.3" cy="15.9" rx="2.3" ry="2.3"/>
		<circle fill="#F2F2F2" cx="12" cy="15.9" r="0.7"/>
	</g>
	<path fill="#FFD15C" d="M8.5,31.6c0,0-6.3-1.4-8.4-9c0,0-1-7.4,3.8-7.8c0,0,4.5,0.9,3.9,6.5C7.7,21.4,6.5,29,8.5,31.6z"/>
	<ellipse fill="#40596B" cx="4.8" cy="18.8" rx="0.4" ry="1.2"/>
	<g>
		<path opacity="0.1" fill="#231F20" d="M48,37.9c-2.2-2.8-4.1-5.8-5.8-9c-5.4-10.6-9.4-15.8-13.2-19c-2.9-2.4-6.3-4.1-10-4.7
			c-11-1.9-14.2,6-15,8.7c2.1-2.7,5.9-5.2,12.6-4c3.7,0.6,7.1,2.3,10,4.7c3.8,3.2,7.8,8.4,13.2,19c2.2,4.2,4.9,8.2,8.1,11.7
			c0,0,0,0,0,0.1V37.9z"/>
	</g>
	<path opacity="0.1" fill="#231F20" d="M19.3,17.6c-0.6-2.3-2.4-5.1-6.1-5.6c-4.1-0.6-5.6,1.3-6.1,3c0.9-0.6,2.3-1,4.4-0.7
		c3.7,0.5,5.5,3.3,6.1,5.6c0.5,1.7,0.4,3.6,0,5.3c-0.3,1.1-0.8,2.9-1.4,4.5c0.1,0.6,0.2,1,0.2,1c1-1.5,2.3-5.8,2.8-7.8
		C19.7,21.2,19.7,19.4,19.3,17.6z"/>
</g>
</svg>
