<?xml version="1.0" encoding="utf-8"?>
<!-- Generator: Adobe Illustrator 18.0.0, SVG Export Plug-In . SVG Version: 6.00 Build 0)  -->
<!DOCTYPE svg PUBLIC "-//W3C//DTD SVG 1.1//EN" "http://www.w3.org/Graphics/SVG/1.1/DTD/svg11.dtd">
<svg version="1.1" id="Layer_1" xmlns="http://www.w3.org/2000/svg" xmlns:xlink="http://www.w3.org/1999/xlink" x="0px" y="0px"
	 viewBox="0 0 512 512" enable-background="new 0 0 512 512" xml:space="preserve">
<g>
	<path fill="#FFD15C" d="M37,210.4v278.5c0,11.7,9.4,21.2,21.2,21.2h395.7c11.7,0,21.2-9.4,21.2-21.2V210.4H37z"/>
	<path fill="#FF7058" d="M488.8,94.7H23.2C11.5,94.7,2,104.1,2,115.8v73.3c0,11.7,9.5,21.2,21.2,21.2h465.6
		c11.7,0,21.2-9.5,21.2-21.2v-73.3C510,104.1,500.5,94.7,488.8,94.7z"/>
	<rect x="37" y="210.4" fill="#F8B64C" width="438" height="15.2"/>
	<g>
		<path fill="#CDD6E0" d="M314.2,2C282.1,2,256,28.1,256,60.3C256,28.1,229.9,2,197.7,2h-34.4v34.4c0,18.5,8.7,35,22.1,45.7
			c9.9,7.8,22.5,12.6,36.2,12.6h68.7c13.7,0,26.2-4.8,36.1-12.6c13.5-10.7,22.2-27.2,22.2-45.7V2H314.2z M230.3,82.1
			c-19.4,0-35.1-15.8-35.1-35.1V33.9h13.1c19.4,0,35.1,15.8,35.1,35.1v13.1H230.3z M268.5,82.1V69c0-19.4,15.8-35.1,35.1-35.1h13.2
			V47c0,19.4-15.9,35.1-35.2,35.1H268.5z"/>
	</g>
	<rect x="215.6" y="94.7" fill="#F2F2F2" width="80.8" height="415.3"/>
	<rect x="215.6" y="210.4" fill="#CDD6E0" width="80.8" height="15.2"/>
</g>
</svg>
