<?xml version="1.0" encoding="utf-8"?>
<!-- Generator: Adobe Illustrator 18.0.0, SVG Export Plug-In . SVG Version: 6.00 Build 0)  -->
<!DOCTYPE svg PUBLIC "-//W3C//DTD SVG 1.1//EN" "http://www.w3.org/Graphics/SVG/1.1/DTD/svg11.dtd">
<svg version="1.1" id="Layer_1" xmlns="http://www.w3.org/2000/svg" xmlns:xlink="http://www.w3.org/1999/xlink" x="0px" y="0px"
	 viewBox="0 0 48 48" enable-background="new 0 0 48 48" xml:space="preserve">
<g>
	<path fill="#40596B" d="M41.6,28.7H6.4c-1.1,0-2-0.9-2-2V2c0-1.1,0.9-2,2-2h35.3c1.1,0,2,0.9,2,2v24.7
		C43.6,27.8,42.7,28.7,41.6,28.7z"/>
	<g>
		<path fill="#ACB3BA" d="M3.9,27.1H1c-0.6,0-1-0.4-1-1v-5.5c0-0.6,0.4-1,1-1h2.9c0.6,0,1,0.4,1,1v5.5C4.9,26.7,4.4,27.1,3.9,27.1z"
			/>
		<path fill="#CDD6E0" d="M3.2,19.6H1.7v-1c0-1.2,1-2.2,2.2-2.2h3.6v1.5H3.9c-0.4,0-0.7,0.3-0.7,0.7V19.6z"/>
	</g>
	<g>
		<path fill="#ACB3BA" d="M44.1,27.1H47c0.6,0,1-0.4,1-1v-5.5c0-0.6-0.4-1-1-1h-2.9c-0.6,0-1,0.4-1,1v5.5
			C43.1,26.7,43.6,27.1,44.1,27.1z"/>
		<path fill="#CDD6E0" d="M44.8,19.6h1.5v-1c0-1.2-1-2.2-2.2-2.2h-3.6v1.5h3.6c0.4,0,0.7,0.3,0.7,0.7V19.6z"/>
	</g>
	<g>
		<path fill="#40596B" d="M13.7,48h-3.1c-1.1,0-2-0.9-2-2v-2.3h7.1V46C15.7,47.1,14.8,48,13.7,48z"/>
		<path fill="#40596B" d="M37.4,48h-3.1c-1.1,0-2-0.9-2-2v-2.3h7.1V46C39.4,47.1,38.6,48,37.4,48z"/>
		<path fill="#40596B" d="M13.7,48h-3.1c-1.1,0-2-0.9-2-2v-2.3h7.1V46C15.7,47.1,14.8,48,13.7,48z"/>
		<path fill="#40596B" d="M37.4,48h-3.1c-1.1,0-2-0.9-2-2v-2.3h7.1V46C39.4,47.1,38.6,48,37.4,48z"/>
		<rect x="8.6" y="43.7" fill="#334A5E" width="7.1" height="1.5"/>
		<rect x="32.4" y="43.7" fill="#334A5E" width="7.1" height="1.5"/>
	</g>
	<rect x="5.3" y="27.2" fill="#FFD15C" width="37.3" height="16.5"/>
	<path fill="#FFD15C" d="M42.7,27.2H5.3l2.7-13.6c0.3-1.4,1.5-2.4,2.9-2.4h26.8c1,0,1.8,0.7,2,1.6L42.7,27.2z"/>
	<path fill="#54C0EB" d="M7.8,25.2L10,14c0.1-0.5,0.5-0.8,1-0.8h26c0.5,0,0.9,0.3,1,0.8l2.2,11.2H7.8z"/>
	<path fill="#FF7058" d="M33.7,30.1l-0.2,0.7c-0.1,0.4-0.5,0.7-1,0.7h-17c-0.4,0-0.8-0.3-1-0.7l-0.2-0.7c-0.3-0.8-1-1.4-1.9-1.4H5.3
		v15h37.3v-15h-7.1C34.7,28.7,34,29.2,33.7,30.1z"/>
	<path fill="#F2F2F2" d="M42.7,37.5h-7.1c-0.9,0-1.6,0.6-1.9,1.4l-0.2,0.7c-0.1,0.4-0.5,0.7-1,0.7h-17c-0.4,0-0.8-0.3-1-0.7
		l-0.2-0.7c-0.3-0.8-1-1.4-1.9-1.4H5.3c-0.6,0-1,0.4-1,1v4.2c0,0.6,0.4,1,1,1h37.3c0.6,0,1-0.4,1-1v-4.2
		C43.7,37.9,43.2,37.5,42.7,37.5z"/>
	<g>
		<g>
			<circle fill="#FFFFFF" cx="9.8" cy="33.1" r="2.8"/>
			<path fill="#F2F2F2" d="M9.8,31c1.4,0,2.6,1.1,2.8,2.5c0-0.1,0-0.2,0-0.4c0-1.6-1.3-2.8-2.8-2.8c-1.6,0-2.8,1.3-2.8,2.8
				c0,0.1,0,0.3,0,0.4C7.2,32,8.4,31,9.8,31z"/>
		</g>
		<g>
			<circle fill="#FFFFFF" cx="38.2" cy="33.1" r="2.8"/>
			<path fill="#F2F2F2" d="M38.2,31c1.4,0,2.6,1.1,2.8,2.5c0-0.1,0-0.2,0-0.4c0-1.6-1.3-2.8-2.8-2.8c-1.6,0-2.8,1.3-2.8,2.8
				c0,0.1,0,0.3,0,0.4C35.6,32,36.7,31,38.2,31z"/>
		</g>
	</g>
	<g>
		<g>
			<circle fill="#FFD15C" cx="7.8" cy="40.6" r="1"/>
			<circle fill="#FFD15C" cx="11.8" cy="40.6" r="1"/>
		</g>
		<g>
			<circle fill="#FFD15C" cx="36.2" cy="40.6" r="1"/>
			<circle fill="#FFD15C" cx="40.2" cy="40.6" r="1"/>
		</g>
	</g>
	<g>
		<polygon fill="#84DBFF" points="20.4,13.2 10.5,25.2 8.6,25.2 18.5,13.2 		"/>
		<polygon fill="#84DBFF" points="24.7,13.2 14.8,25.2 11.7,25.2 21.6,13.2 		"/>
	</g>
	<path fill="#FFD15C" d="M19.8,37.1h8.4c0.7,0,1.2-0.6,1.2-1.2l0,0c0-0.7-0.6-1.2-1.2-1.2h-8.4c-0.7,0-1.2,0.6-1.2,1.2l0,0
		C18.5,36.5,19.1,37.1,19.8,37.1z"/>
</g>
</svg>
