<?xml version="1.0" encoding="utf-8"?>
<!-- Generator: Adobe Illustrator 18.0.0, SVG Export Plug-In . SVG Version: 6.00 Build 0)  -->
<!DOCTYPE svg PUBLIC "-//W3C//DTD SVG 1.1//EN" "http://www.w3.org/Graphics/SVG/1.1/DTD/svg11.dtd">
<svg version="1.1" id="Layer_1" xmlns="http://www.w3.org/2000/svg" xmlns:xlink="http://www.w3.org/1999/xlink" x="0px" y="0px"
	 viewBox="0 0 48 48" enable-background="new 0 0 48 48" xml:space="preserve">
<g>
	<g>
		<g>
			<g>
				<g>
					<path fill="#67C6B9" d="M36.8,34.2C36.8,41.8,30.6,48,23,48S9.1,41.8,9.1,34.2c0-1.1-3.9-10.4-3.9-14.8
						C5.2,9.6,13.2,1.7,23,1.7s17.7,7.9,17.7,17.7C40.7,23.8,36.8,33,36.8,34.2z"/>
				</g>
			</g>
			<path fill="#435B6C" d="M43.5,16.3c0,0-3.8-6.7-6.3-9.5c-2.5-2.9-5.7-5.3-9.4-6.3c-2.6-0.7-5.3-0.6-7.9,0
				C13.8,1.9,8.5,5.9,5.8,11.5c-0.5,1-0.9,2-1,2.8c-0.8,3,0.3,6.1,0.5,9.2c0-3.9,1.5-7.7,3.7-9.7c1.3-1.1,3-1.7,4.3-2.8
				c1.3-1.1,2.4-2.8,1.9-4.5c1.3-0.5,2.6,1,2.5,2.4c-0.1,1.4-1.1,2.5-2,3.6c-0.9,1.1-1.8,2.3-1.6,3.7c3.5-6.2,7.1-5.6,7.8-9.3
				c0.8,2.2,2.9,3.7,5.1,4.5c2.2,0.8,4.6,1,6.9,1.3c2.3,0.3,4.2,1.3,5.8,3.4c-0.6-1.8-1.6-3.5-2.9-4.9C39,12.3,43.5,16.3,43.5,16.3z
				"/>
			<g>
				<g>
					<circle fill="#F3F3F3" cx="16.8" cy="24.3" r="5.7"/>
					<circle fill="#354B5E" cx="15.5" cy="24.3" r="2.9"/>
					<g>
						<g>
							<circle fill="#FFFFFF" cx="13.7" cy="22.1" r="0.9"/>
						</g>
					</g>
				</g>
				<g>
					<circle fill="#F3F3F3" cx="29.6" cy="24.8" r="4.3"/>
					<g>
						<circle fill="#354B5E" cx="29.7" cy="25.9" r="1.8"/>
						<g>
							<g>
								<circle fill="#FFFFFF" cx="29.8" cy="24.1" r="0.5"/>
							</g>
						</g>
					</g>
				</g>
			</g>
		</g>
		<g>
			<path fill="#354B5E" d="M30,39.3c-0.2-0.3-0.5-0.3-0.8-0.1c-2.4,1.6-5.4,2-8.1,1c-2.7-1-4.7-3.3-5.4-6.1
				c-0.1-0.3-0.4-0.5-0.7-0.4c-0.3,0.1-0.5,0.4-0.4,0.7c0.8,3.2,3.1,5.7,6.1,6.9c1.1,0.4,2.3,0.6,3.5,0.6c2,0,4-0.6,5.6-1.8
				C30.1,39.9,30.2,39.5,30,39.3z"/>
			<g>
				<g>
					<path fill="#354B5E" d="M18.3,36.4c-0.2-0.3-0.6-0.3-0.8-0.1l-2.1,1.6c-0.3,0.2-0.3,0.6-0.1,0.8c0.1,0.2,0.3,0.2,0.5,0.2
						c0.1,0,0.2,0,0.3-0.1l2.1-1.6C18.4,37,18.5,36.7,18.3,36.4z"/>
					<path fill="#354B5E" d="M20.3,38.3c-0.3-0.2-0.6-0.1-0.8,0.2l-1.4,2.3c-0.2,0.3-0.1,0.6,0.2,0.8c0.1,0.1,0.2,0.1,0.3,0.1
						c0.2,0,0.4-0.1,0.5-0.3l1.4-2.3C20.7,38.8,20.6,38.4,20.3,38.3z"/>
				</g>
				<path fill="#354B5E" d="M22.9,39.3c-0.3-0.1-0.6,0.2-0.7,0.5l-0.5,2.6C21.7,42.7,22,43,22.3,43c0,0,0.1,0,0.1,0
					c0.3,0,0.5-0.2,0.6-0.5l0.5-2.6C23.5,39.6,23.2,39.3,22.9,39.3z"/>
				<path fill="#354B5E" d="M27,42.3l-0.5-2.6c-0.1-0.3-0.4-0.5-0.7-0.5c-0.3,0.1-0.5,0.4-0.5,0.7l0.5,2.6c0.1,0.3,0.3,0.5,0.6,0.5
					c0,0,0.1,0,0.1,0C26.8,42.9,27,42.6,27,42.3z"/>
			</g>
		</g>
		<g>
			<g>
				<path fill="#435B6C" d="M13.5,7.2c0.4,1.7-0.5,3.4-1.7,4.7c-1.1,1.3-2.5,2.4-3.4,3.8S7,19.2,8,20.6c-0.5-0.9-0.3-2.1,0.3-3.1
					s1.5-1.6,2.4-2.1c0.9-0.5,1.9-1,2.8-1.6c1.4-1,2.5-2.4,3-4c0.4-1,0.5-2.2,0-3.1c-0.6-1.2-2.3-1.6-3.5-0.9"/>
			</g>
		</g>
	</g>
</g>
</svg>
