<?xml version="1.0" encoding="utf-8"?>
<!-- Generator: Adobe Illustrator 18.0.0, SVG Export Plug-In . SVG Version: 6.00 Build 0)  -->
<!DOCTYPE svg PUBLIC "-//W3C//DTD SVG 1.1//EN" "http://www.w3.org/Graphics/SVG/1.1/DTD/svg11.dtd">
<svg version="1.1" id="Layer_1" xmlns="http://www.w3.org/2000/svg" xmlns:xlink="http://www.w3.org/1999/xlink" x="0px" y="0px"
	 viewBox="0 0 48 48" enable-background="new 0 0 48 48" xml:space="preserve">
<g>
	<g>
		<g>
			<g>
				<path fill="#344A5E" d="M28.1,38.4h-2.3c-0.4,0-0.7,0.3-0.7,0.7v2.5h3.6v-2.5C28.8,38.7,28.5,38.4,28.1,38.4z"/>
			</g>
			<g>
				<g>
					<polygon fill="#FFD15C" points="17.3,45.3 3.4,25.6 17.5,11.5 21,15 9.9,26.1 21.4,42.5 					"/>
				</g>
			</g>
			<g>
				<path fill="#415A6B" d="M39.2,48c-2.3-4.6-9.1-7.9-17.2-7.9C14,40.1,7.2,43.4,4.9,48H39.2z"/>
			</g>
			<g>
				<circle fill="#415A6B" cx="6.6" cy="25.9" r="5.1"/>
			</g>
			<g>
				<circle fill="#344A5E" cx="6.6" cy="25.9" r="2.6"/>
			</g>
		</g>
		<g>
			<g>
				<g>
					<path fill="#FFD15C" d="M32.1,25.9c2.2,2,5.6,1.9,7.8-0.2c2.1-2.1,2.2-5.5,0.2-7.8L32.1,25.9z"/>
				</g>
			</g>
			<g>
				<path fill="#F05540" d="M26.5,1.2c-1.6-1.6-4.1-1.6-5.7,0l-5.5,5.5c-1.6,1.6-1.6,4.1,0,5.7l9.1,9.1l11.2-11.2L26.5,1.2z"/>
			</g>
			<g>
				<g>
					<g>
						<path fill="#F3705A" d="M44.1,11.2l-2.5-2.5c-5.2-5.2-13.6-5.2-18.8,0c-5.2,5.2-5.2,13.6,0,18.8l2.5,2.5L44.1,11.2z"/>
					</g>
				</g>
			</g>
			<g>
				<g>
					<g>
						<path fill="#E8EAE9" d="M45.8,12.9L27,31.6c-0.9,0.9-2.4,0.9-3.4,0c-0.9-0.9-0.9-2.4,0-3.4L42.4,9.5c0.9-0.9,2.4-0.9,3.4,0
							C46.7,10.5,46.7,12,45.8,12.9z"/>
					</g>
				</g>
			</g>
		</g>
	</g>
</g>
</svg>
