<?xml version="1.0" encoding="utf-8"?>
<!-- Generator: Adobe Illustrator 18.0.0, SVG Export Plug-In . SVG Version: 6.00 Build 0)  -->
<!DOCTYPE svg PUBLIC "-//W3C//DTD SVG 1.1//EN" "http://www.w3.org/Graphics/SVG/1.1/DTD/svg11.dtd">
<svg version="1.1" id="Layer_1" xmlns="http://www.w3.org/2000/svg" xmlns:xlink="http://www.w3.org/1999/xlink" x="0px" y="0px"
	 viewBox="0 0 48 48" enable-background="new 0 0 48 48" xml:space="preserve">
<g>
	<g>
		<g>
			<path fill="#E8EAE9" d="M14.6,20.1c-1.8,1.8-3.6,3.6-4.6,6.1c-0.2,0.6-0.4,1.3-0.4,1.9c0,0.7,0.3,1.4,0.8,1.6
				c0.1,0.1,0.2,0.1,0.3,0.2c0.1,0.1,0,0.3,0,0.4c-0.3,1.1-0.5,2.2-0.2,3.3c0.3,1.1,1.2,2,2.1,1.8c-0.2,1.8,0.1,3.6,0.8,5.2
				c0.2,0.3,0.3,0.7,0.6,1c0.2,0.2,0.5,0.4,0.8,0.5c1,0.5,2.1,0.6,3.2,0.3c0.8,1.6,1.6,3.2,2.8,4.2c1,0.9,2.3,1.3,3.5,1.2L24,48
				c1.2,0.1,2.5-0.4,3.5-1.2c1.2-1.1,2-2.7,2.8-4.2c1.1,0.3,2.2,0.1,3.2-0.4c0.3-0.1,0.5-0.3,0.8-0.5c0.2-0.3,0.4-0.6,0.6-1
				c0.7-1.6,1-3.4,0.8-5.2c0.9,0.2,1.8-0.7,2.1-1.8c0.3-1.1,0.1-2.3-0.3-3.3c0-0.1-0.1-0.3,0-0.4c0.1-0.1,0.2-0.2,0.3-0.2
				c0.5-0.3,0.8-1,0.8-1.7c0-0.7-0.2-1.3-0.4-1.9c-1-2.5-2.9-4.3-4.7-6L14.6,20.1z"/>
		</g>
		<g>
			<g>
				<path fill="#F3705A" d="M35,17.3c0,0-2.4-5.3-5.2-9.7c-2-3.2,3.5-4.6,1.9-5.3C23.4-1.1,17.1,8.8,15.9,11
					c-1.9,3.4-3.2,6.4-3.2,6.4H35z"/>
			</g>
			<g>
				<g>
					<ellipse fill="#344A5E" cx="24" cy="34.7" rx="4.8" ry="2.6"/>
				</g>
				<g>
					<path fill="#F3705A" d="M26.8,36.8C26,37.2,25,37.3,24,37.3s-2-0.2-2.8-0.5c0.3-1,1.4-1.8,2.8-1.8S26.5,35.8,26.8,36.8z"/>
				</g>
			</g>
			<g>
				<path fill="#FFD15C" d="M31,31.8c-2.5,2.5-11.5,2.5-14,0s0-14,0-14h14C31,17.8,33.5,29.3,31,31.8z"/>
			</g>
			<g>
				<g>
					<g>
						<path fill="#F3F3F3" d="M24.5,30.6c0.2,0.1,0.5,0,0.7-0.1s0.4-0.3,0.6-0.5c0.5-0.5,1-1,1.7-1.2c0.3-0.1,0.5,0,0.8,0
							c0.9,0,1.8,0,2.7-0.2c0.9-0.2,1.7-0.6,2.4-1.2c-0.1,2.3-1.3,4.5-3.2,5.7c-0.4,0.2-0.9,0.4-1.3,0.6c-1.4,0.5-2.9,0.9-4.3,0.4
							c-0.2-0.1-0.5-0.2-0.6-0.4c-0.1-0.2-0.1-0.4-0.1-0.6c0-0.8,0.3-1.7,0.8-2.3"/>
					</g>
					<g>
						<path fill="#F3F3F3" d="M23.5,30.6c-0.2,0.1-0.5,0-0.7-0.1c-0.2-0.1-0.4-0.3-0.6-0.5c-0.5-0.5-1-1-1.7-1.2
							c-0.3-0.1-0.5,0-0.8,0c-0.9,0-1.8,0-2.7-0.2s-1.7-0.6-2.4-1.2c0.1,2.3,1.3,4.5,3.2,5.7c0.4,0.2,0.9,0.4,1.3,0.6
							c1.4,0.5,2.9,0.9,4.3,0.4c0.2-0.1,0.5-0.2,0.6-0.4c0.1-0.2,0.1-0.4,0.1-0.6c0-0.8-0.3-1.7-0.8-2.3"/>
					</g>
				</g>
			</g>
			<g>
				<path fill="#F3F3F3" d="M11.6,19.2L11.6,19.2c0.2,1.1,1.3,1.8,2.5,1.6c6.5-1.1,13.2-1.1,19.8,0c1.1,0.2,2.2-0.5,2.5-1.6v0
					c0.2-1.1-0.6-2.2-1.8-2.5c-7-1.2-14.2-1.2-21.2,0C12.2,17,11.4,18.1,11.6,19.2z"/>
			</g>
			<g>
				<circle fill="#F3F3F3" cx="31.8" cy="2.3" r="2.3"/>
			</g>
			<g>
				<ellipse fill="#F3705A" cx="23.9" cy="29.7" rx="2.2" ry="1.9"/>
			</g>
		</g>
	</g>
	<g>
		<g>
			<g>
				<circle fill="#344A5E" cx="20.3" cy="24.6" r="1.6"/>
				<circle fill="#FFFFFF" cx="20.9" cy="24.4" r="0.5"/>
				<circle fill="#FFFFFF" cx="19.5" cy="24.9" r="0.2"/>
			</g>
		</g>
		<g>
			<g>
				<circle fill="#344A5E" cx="27.7" cy="24.6" r="1.6"/>
				<circle fill="#FFFFFF" cx="27.1" cy="24.4" r="0.5"/>
				<circle fill="#FFFFFF" cx="28.5" cy="24.9" r="0.2"/>
			</g>
		</g>
	</g>
</g>
</svg>
