<?xml version="1.0" encoding="utf-8"?>
<!-- Generator: Adobe Illustrator 18.0.0, SVG Export Plug-In . SVG Version: 6.00 Build 0)  -->
<!DOCTYPE svg PUBLIC "-//W3C//DTD SVG 1.1//EN" "http://www.w3.org/Graphics/SVG/1.1/DTD/svg11.dtd">
<svg version="1.1" id="Layer_1" xmlns="http://www.w3.org/2000/svg" xmlns:xlink="http://www.w3.org/1999/xlink" x="0px" y="0px"
	 viewBox="0 0 512 512" enable-background="new 0 0 512 512" xml:space="preserve">
<g>
	<path fill="#FFD05C" d="M243.4,2.4C155.6,8.5,84.6,79.9,79.1,167.8c-3.4,54.9,18.1,104.8,54.4,139.5c22.6,21.6,36.2,51.1,36.2,82.4
		l172.5,0c0-31.1,13.2-60.5,35.7-81.9c34-32.3,55.2-77.9,55.2-128.5C433.2,77.2,347-4.7,243.4,2.4z"/>
	<path fill="#4FBFA8" d="M213.6,479.8c6.1,17.6,22.8,30.2,42.4,30.2c19.6,0,36.3-12.6,42.4-30.2H213.6z"/>
	<path fill="#CDD5DF" d="M169.8,389.7v75.6c0,8.3,6.7,15,15,15h142.4c8.3,0,15-6.7,15-15v-75.6H169.8z"/>
	<path fill="#ABB2B9" d="M345.2,466.3H166.8c-3.4,0-6.1-2.7-6.1-6.1l0,0c0-3.4,2.7-6.1,6.1-6.1h178.5c3.4,0,6.1,2.7,6.1,6.1l0,0
		C351.4,463.5,348.6,466.3,345.2,466.3z"/>
	<path fill="#ABB2B9" d="M345.2,441.1H166.8c-3.4,0-6.1-2.7-6.1-6.1l0,0c0-3.4,2.7-6.1,6.1-6.1h178.5c3.4,0,6.1,2.7,6.1,6.1l0,0
		C351.4,438.4,348.6,441.1,345.2,441.1z"/>
	<path fill="#ABB2B9" d="M345.2,416H166.8c-3.4,0-6.1-2.7-6.1-6.1l0,0c0-3.4,2.7-6.1,6.1-6.1h178.5c3.4,0,6.1,2.7,6.1,6.1l0,0
		C351.4,413.2,348.6,416,345.2,416z"/>
	<path fill="#F6B44B" d="M243.4,25c99.7-6.9,183.3,68.8,189.4,165.5c0.2-3.7,0.4-7.5,0.4-11.3c0-102-86.2-183.9-189.8-176.8
		C155.6,8.5,84.6,79.9,79.1,167.8c-0.5,7.6-0.4,15,0,22.4C84.8,102.4,155.7,31.1,243.4,25z"/>
</g>
</svg>
