<?xml version="1.0" encoding="utf-8"?>
<!-- Generator: Adobe Illustrator 19.0.1, SVG Export Plug-In . SVG Version: 6.00 Build 0)  -->
<svg version="1.1" id="Layer_1" xmlns="http://www.w3.org/2000/svg" xmlns:xlink="http://www.w3.org/1999/xlink" x="0px" y="0px"
	 viewBox="0 0 48 48" style="enable-background:new 0 0 48 48;" xml:space="preserve">
<style type="text/css">
	.st0{fill:#415A6B;}
	.st1{fill:#ADB3BA;}
	.st2{fill:#E8EAE9;}
	.st3{fill:#55C0EB;}
	.st4{fill:#F3705A;}
	.st5{fill:#FFFFFF;}
	.st6{fill:#FFD15C;}
	.st7{fill:#344A5E;}
	.st8{fill:#CED6E0;}
	.st9{fill:#F05540;}
	.st10{fill:#F7B64C;}
	.st11{fill:#F3F3F3;}
	.st12{fill:#66C6B9;}
	.st13{fill:#4ABAA5;}
	.st14{fill:#8AD7F8;}
	.st15{fill:none;}
	.st16{fill:#E53D35;}
</style>
<g>
	<g>
		<g>
			<g>
				<path class="st12" d="M40.8,24.1c-5.2,6.2-13,10.2-22,10.3c-2-18.7,11-34.2,29-34.4C48.8,9.3,46,17.9,40.8,24.1z"/>
			</g>
			<g>
				<path class="st13" d="M13.5,48h-3.2c0-0.1,0.1-0.2,0.1-0.4c1-2.7,2.3-5.8,4.2-9c0.9-1.5,2-3.2,3.1-4.6c1.2-1.5,2.4-2.9,3.6-4.3
					c9.6-11.5,20.1-22,20.1-22s-9.9,11.2-18.7,23.2c-1.1,1.5-2.2,3-3.3,4.5c-1.1,1.5-1.9,3-2.7,4.5C15.3,42.7,14.3,45.5,13.5,48z"/>
			</g>
			<g>
				<g>
					<path class="st13" d="M33.2,8.4c0,0-0.1,0.7-0.2,1.7c-0.1,1-0.4,2.4-0.6,3.7c-0.3,1.3-0.5,2.7-0.8,3.7c-0.2,1-0.4,1.7-0.4,1.7
						s0.1-0.7,0.2-1.7c0.1-1,0.4-2.4,0.6-3.7c0.3-1.3,0.5-2.7,0.8-3.7C33,9.1,33.2,8.4,33.2,8.4z"/>
				</g>
				<g>
					<path class="st13" d="M27.2,24c0,0,0.6-0.3,1.6-0.7c1-0.4,2.3-0.8,3.6-1.2c1.3-0.4,2.7-0.8,3.7-1c1-0.2,1.7-0.4,1.7-0.4
						s-0.6,0.3-1.6,0.7c-1,0.4-2.3,0.8-3.6,1.2c-1.3,0.4-2.7,0.8-3.7,1C27.9,23.8,27.2,24,27.2,24z"/>
				</g>
				<g>
					<path class="st13" d="M36.7,13c0,0,0.4-0.1,1.1-0.2c0.7-0.1,1.6-0.2,2.5-0.3c0.9,0,1.8-0.1,2.5-0.1c0.7,0,1.1,0.1,1.1,0.1
						s-0.4,0.1-1.1,0.2c-0.7,0.1-1.6,0.2-2.5,0.3c-0.9,0-1.8,0.1-2.5,0.1C37.1,13,36.7,13,36.7,13z"/>
				</g>
				<g>
					<path class="st13" d="M25.4,26.1c0,0-0.1-0.5-0.2-1.3c-0.1-0.8-0.2-1.9-0.3-2.9c0-1.1-0.1-2.1-0.1-3c0-0.8,0.1-1.3,0.1-1.3
						s0.1,0.5,0.2,1.3c0.1,0.8,0.2,1.9,0.3,2.9c0,1.1,0.1,2.1,0.1,3C25.4,25.6,25.4,26.1,25.4,26.1z"/>
				</g>
			</g>
		</g>
		<g>
			<g>
				<path class="st12" d="M1.7,26.7c2.1,4.9,6.3,8.9,11.9,10.8C18.2,26.2,12.9,14,1.7,10.2C-0.6,15.9-0.5,21.8,1.7,26.7z"/>
			</g>
			<g>
				<path class="st13" d="M4.2,16.3c0,0,3.2,6.1,6.1,12.5c0.7,1.6,1.4,3.2,2.1,4.7c0.7,1.5,1.2,2.9,1.8,4.1c1.1,2.5,1.5,4.2,1.5,4.2
					l-1.9,0.4c0,0-0.1-1.7-0.8-4.2c-0.2-0.6-0.4-1.3-0.7-2c-0.3-0.7-0.5-1.4-0.8-2.2c-0.6-1.5-1.2-3.1-1.9-4.8
					C7.2,22.6,4.2,16.3,4.2,16.3z"/>
			</g>
			<g>
				<g>
					<path class="st13" d="M9.3,18.4c0,0,0,0.5,0,1.1c0,0.7-0.1,1.6-0.1,2.5c-0.1,0.9-0.2,1.8-0.3,2.4c-0.1,0.7-0.2,1.1-0.2,1.1
						s0-0.5,0-1.1c0-0.7,0.1-1.6,0.1-2.5c0.1-0.9,0.2-1.8,0.3-2.4C9.2,18.9,9.3,18.4,9.3,18.4z"/>
				</g>
				<g>
					<path class="st13" d="M10.2,29.3c0,0-0.4-0.2-1-0.5c-0.6-0.3-1.4-0.8-2.1-1.4c-0.8-0.5-1.5-1.1-2-1.5c-0.5-0.4-0.9-0.8-0.9-0.8
						s0.4,0.2,1,0.5C5.8,26,6.5,26.5,7.3,27c0.8,0.5,1.5,1.1,2,1.5C9.9,29,10.2,29.3,10.2,29.3z"/>
				</g>
				<g>
					<path class="st13" d="M6.3,20.6c0,0-0.3,0-0.7-0.1c-0.4-0.1-1-0.3-1.6-0.5c-0.6-0.2-1.1-0.5-1.5-0.7c-0.4-0.2-0.7-0.4-0.7-0.4
						s0.3,0,0.7,0.1c0.4,0.1,1,0.3,1.6,0.5c0.6,0.2,1.1,0.5,1.5,0.7C6,20.4,6.3,20.6,6.3,20.6z"/>
				</g>
				<g>
					<path class="st13" d="M10.9,31c0,0,0.1-0.4,0.2-0.9c0.1-0.5,0.3-1.2,0.5-1.8c0.2-0.7,0.5-1.3,0.7-1.8c0.2-0.5,0.4-0.8,0.4-0.8
						s-0.1,0.4-0.2,0.9c-0.1,0.5-0.3,1.2-0.5,1.8c-0.2,0.7-0.5,1.3-0.7,1.8C11.1,30.7,10.9,31,10.9,31z"/>
				</g>
			</g>
		</g>
	</g>
	<g>
		<g>
			<path class="st9" d="M35.1,33.5c1.4-0.3,2.8,0.6,3,2c0.3,1.4-0.6,2.8-2,3c-1.4,0.3-2.8-0.6-3-2C32.8,35.1,33.7,33.8,35.1,33.5z"
				/>
			<path class="st9" d="M27.6,40.3c0.3,0.6,0.7,1.1,1.1,1.6l-1.1,3.2l2.8,1.8l2.5-2.2c0.6,0.2,1.2,0.3,1.9,0.4l1.5,3l3.3-0.7
				l0.2-3.4c0.6-0.3,1.1-0.7,1.6-1.1l3.2,1.1l1.8-2.8l-2.2-2.5c0.2-0.6,0.3-1.2,0.4-1.9l3-1.5L47,32l-3.4-0.2
				c-0.3-0.6-0.7-1.1-1.1-1.6l1.1-3.2l-2.8-1.8l-2.5,2.2c-0.6-0.2-1.2-0.3-1.9-0.4l-1.5-3l-3.3,0.7l-0.2,3.4
				c-0.6,0.3-1.1,0.7-1.6,1.1l-3.2-1.1l-1.8,2.8l2.2,2.5c-0.2,0.6-0.3,1.2-0.4,1.9l-3,1.5l0.7,3.3L27.6,40.3z M30.2,37.1
				c-0.6-3,1.3-5.9,4.3-6.5c3-0.6,5.9,1.3,6.5,4.3c0.6,3-1.3,5.9-4.3,6.5C33.7,42,30.8,40.1,30.2,37.1z"/>
		</g>
		<g>
			<path class="st6" d="M14.2,36.8c0.3,0.3,0.6,0.5,1,0.7l0.1,2.1l2,0.4l0.9-1.9c0.4,0,0.8-0.1,1.2-0.2l1.6,1.4l1.7-1.2l-0.7-2
				c0.3-0.3,0.5-0.6,0.7-1l2.1-0.1l0.4-2l-1.9-0.9c0-0.4-0.1-0.8-0.2-1.2l1.4-1.6l-1.2-1.7l-2,0.7c-0.3-0.3-0.6-0.5-1-0.7l-0.1-2.1
				l-2-0.4l-0.9,1.9c-0.4,0-0.8,0.1-1.2,0.2l-1.6-1.4l-1.7,1.2l0.7,2c-0.3,0.3-0.5,0.6-0.7,1L10.7,30l-0.4,2l1.9,0.9
				c0,0.4,0.1,0.8,0.2,1.2L11,35.7l1.2,1.7L14.2,36.8z M15.6,33.9c-0.8-1.2-0.5-2.8,0.7-3.6s2.8-0.5,3.6,0.7
				c0.8,1.2,0.5,2.8-0.7,3.6C18,35.4,16.4,35.1,15.6,33.9z"/>
		</g>
	</g>
</g>
</svg>
