<?xml version="1.0" encoding="utf-8"?>
<!-- Generator: Adobe Illustrator 18.0.0, SVG Export Plug-In . SVG Version: 6.00 Build 0)  -->
<!DOCTYPE svg PUBLIC "-//W3C//DTD SVG 1.1//EN" "http://www.w3.org/Graphics/SVG/1.1/DTD/svg11.dtd">
<svg version="1.1" id="Layer_1" xmlns="http://www.w3.org/2000/svg" xmlns:xlink="http://www.w3.org/1999/xlink" x="0px" y="0px"
	 viewBox="0 0 48 48" enable-background="new 0 0 48 48" xml:space="preserve">
<g>
	<g>
		<path fill="#FFD15C" d="M47.7,7.2c-8.6,2.3-17.9,0.2-24.7-5.6c-3.7,4.6-5.5,17.5-1.7,26.3c3,7.2,10.7,9,16.6,3.8
			C45.1,25.4,49.1,13,47.7,7.2z"/>
		<g>
			<path fill="#FFFFFF" d="M25.8,11.4c-0.3-0.2-0.5-0.5-0.8-0.8c-0.2-0.3-0.4-0.6-0.6-0.9c-0.2-0.3-0.3-0.6-0.4-0.9
				c-0.1-0.3-0.2-0.5-0.2-0.8c-0.1-0.2-0.1-0.4-0.1-0.6c0-0.3,0-0.5,0-0.5S23.7,7,24,7.3c0.2,0.2,0.5,0.5,0.8,0.8
				c0.7,0.6,1.5,1.2,2.4,1.7c0.9,0.4,1.8,0.7,2.6,0.9c0.4,0.1,0.7,0.1,1,0.1c0.3,0,0.5,0,0.5,0s-0.1,0.1-0.2,0.4
				c-0.1,0.2-0.5,0.5-0.9,0.7c-0.2,0.1-0.4,0.2-0.7,0.3c-0.3,0.1-0.6,0.1-0.9,0.1c-0.3,0-0.6,0-1-0.1c-0.3-0.1-0.7-0.2-1-0.4
				C26.4,11.8,26,11.6,25.8,11.4z"/>
			<path fill="#FFFFFF" d="M36.1,28.1c-0.1,0.2-0.2,0.4-0.2,0.6c-0.1,0.1-0.1,0.2-0.1,0.2s0-0.3-0.1-0.7c0-0.2-0.1-0.5-0.2-0.7
				c-0.1-0.3-0.3-0.6-0.4-0.9c-0.2-0.3-0.4-0.6-0.7-0.9c-0.3-0.3-0.6-0.5-0.9-0.8c-0.3-0.3-0.7-0.4-1.1-0.6
				c-0.4-0.2-0.7-0.3-1.3-0.4c-0.3-0.1-0.9-0.1-1.3-0.2c-0.4,0-0.9,0-1.3,0.1c-0.4,0.1-0.8,0.2-1.2,0.3c-0.4,0.1-0.7,0.3-1,0.5
				c-0.3,0.2-0.5,0.4-0.7,0.6c-0.2,0.2-0.4,0.4-0.5,0.6c-0.3,0.4-0.4,0.6-0.4,0.6c0,0,0-0.1,0-0.2c0-0.1,0-0.4,0-0.6
				c0.1-0.5,0.2-1.3,0.7-2c0.2-0.3,0.6-0.7,1-1c0.4-0.3,0.9-0.6,1.4-0.7c0.6-0.2,1.2-0.3,1.8-0.3c0.7,0,1.3,0.1,2.1,0.2
				c0.5,0.1,1.3,0.4,1.8,0.7c0.6,0.3,1.1,0.7,1.5,1.1c0.8,0.8,1.3,1.8,1.4,2.6C36.4,26.8,36.3,27.6,36.1,28.1z"/>
			<path fill="#FFFFFF" d="M44.7,12.2c-0.1,0.3-0.5,0.7-0.9,1.1c-0.2,0.2-0.5,0.4-0.7,0.6c-0.3,0.2-0.6,0.4-0.9,0.5
				c-0.3,0.1-0.7,0.3-1,0.4C40.7,14.9,40.4,15,40,15c-0.4,0-0.7,0-1-0.1c-0.3-0.1-0.6-0.2-0.9-0.3c-0.3-0.2-0.5-0.3-0.7-0.5
				c-0.2-0.2-0.4-0.4-0.5-0.6c-0.1-0.2-0.2-0.4-0.3-0.6c-0.1-0.2-0.1-0.3-0.1-0.5c-0.1-0.3-0.1-0.4-0.1-0.4c0,0,0.2,0.1,0.4,0.2
				c0.3,0.1,0.6,0.2,1,0.3c0.8,0.2,1.8,0.4,2.7,0.3c1,0,2-0.2,2.9-0.5c0.4-0.1,0.8-0.2,1.1-0.4c0.3-0.1,0.5-0.2,0.5-0.2
				C45,11.8,44.9,11.9,44.7,12.2z"/>
		</g>
	</g>
	<path fill="#FF7058" d="M24.2,12.8C17.9,19.1,8.9,22,0.1,20.5C-0.7,26.4,4.3,38.4,12,44c6.3,4.7,13.8,2.3,16.2-5.2
		C31.1,29.8,28.3,17.1,24.2,12.8z"/>
	<g>
		<path fill="#FFFFFF" d="M5.6,27.3c-0.4,0.1-0.7,0.1-1,0.1c-0.3,0-0.4,0.1-0.4,0.1s0-0.2,0-0.4c0-0.2,0.1-0.6,0.4-0.9
			c0.1-0.2,0.3-0.3,0.5-0.5c0.2-0.2,0.4-0.3,0.7-0.4c0.3-0.1,0.6-0.2,0.9-0.3c0.3-0.1,0.7-0.1,1-0.2c0.4,0,0.7,0,1.1,0
			c0.4,0,0.7,0.1,1.1,0.2c0.3,0.1,0.7,0.2,1,0.3c0.3,0.1,0.6,0.3,0.8,0.4c0.2,0.1,0.4,0.3,0.6,0.4c0.2,0.1,0.3,0.3,0.4,0.4
			c0.2,0.2,0.3,0.4,0.3,0.4s-0.2,0-0.5,0c-0.3,0-0.7,0-1.1,0c-0.9,0-1.9,0-2.9,0C7.3,27.1,6.4,27.2,5.6,27.3z"/>
		<path fill="#FFFFFF" d="M23.6,34c0,0.5-0.1,1.1-0.2,1.6c-0.1,0.6-0.4,1.2-0.7,1.7c-0.3,0.6-0.8,1.1-1.3,1.5
			c-0.6,0.4-1.1,0.7-1.8,1c-0.5,0.1-1.3,0.3-2,0.2c-0.7,0-1.3-0.2-2-0.5c-1.2-0.5-2.2-1.4-2.7-2.2c-0.6-0.8-0.8-1.5-0.9-2
			c-0.1-0.2,0-0.4-0.1-0.6c0-0.1,0-0.2,0-0.2c0,0,0.2,0.3,0.5,0.7c0.2,0.2,0.4,0.4,0.6,0.7c0.2,0.2,0.5,0.5,0.9,0.7
			c0.3,0.2,0.7,0.5,1.1,0.7c0.4,0.2,0.8,0.3,1.3,0.5c0.4,0.1,0.9,0.1,1.4,0.1c0.5,0,0.8-0.1,1.4-0.2c0.3-0.1,0.8-0.3,1.2-0.6
			c0.4-0.3,0.7-0.5,1-0.9c0.3-0.4,0.6-0.7,0.8-1.1c0.2-0.4,0.4-0.8,0.5-1.2c0.1-0.4,0.2-0.8,0.3-1.1c0-0.3,0.1-0.6,0.1-0.9
			c0-0.5,0-0.8,0-0.8s0,0.1,0.1,0.2c0.1,0.1,0.2,0.2,0.3,0.5C23.4,32.2,23.6,33,23.6,34z"/>
		<path fill="#FFFFFF" d="M24.6,21.1c-0.2,0.1-0.6,0.3-0.9,0.5c-0.7,0.4-1.6,0.8-2.4,1.4c-0.8,0.5-1.6,1.1-2.4,1.6
			c-0.3,0.3-0.7,0.5-0.9,0.7c-0.2,0.2-0.4,0.3-0.4,0.3c0,0,0-0.2,0-0.5c0-0.3,0.1-0.7,0.3-1.2c0.1-0.3,0.2-0.5,0.4-0.8
			c0.2-0.3,0.4-0.5,0.6-0.8c0.2-0.3,0.5-0.5,0.8-0.8c0.3-0.3,0.6-0.4,0.9-0.7c0.3-0.2,0.6-0.4,0.9-0.5c0.3-0.1,0.6-0.2,0.9-0.3
			c0.3,0,0.6-0.1,0.8-0.1c0.2,0,0.5,0,0.7,0.1c0.2,0,0.4,0.1,0.5,0.2c0.1,0.1,0.3,0.2,0.3,0.3c0.2,0.2,0.2,0.3,0.2,0.3
			C25,20.9,24.8,20.9,24.6,21.1z"/>
	</g>
</g>
</svg>
