<?xml version="1.0" encoding="utf-8"?>
<!-- Generator: Adobe Illustrator 16.0.0, SVG Export Plug-In . SVG Version: 6.00 Build 0)  -->
<!DOCTYPE svg PUBLIC "-//W3C//DTD SVG 1.1//EN" "http://www.w3.org/Graphics/SVG/1.1/DTD/svg11.dtd">
<svg version="1.1" id="Layer_1" xmlns="http://www.w3.org/2000/svg" xmlns:xlink="http://www.w3.org/1999/xlink" x="0px" y="0px"
	 width="48px" height="48px" viewBox="0 0 48 48" enable-background="new 0 0 48 48" xml:space="preserve">
<g>
	<path fill="#F1543F" d="M40.008,13.811c0,6.777-7.17,12.271-16.013,12.271S7.983,20.588,7.983,13.811s7.169-1.223,16.012-1.223
		S40.008,7.033,40.008,13.811"/>
	<rect x="16.898" y="23.645" fill="#F8B64C" width="14.186" height="11.668"/>
	<path fill="#40596B" d="M34.546,47.988c-0.865-2.582-1.729-14.795-2.595-15.875c-4.652,3.727-11.268,3.727-15.918,0
		c-0.865,1.08-1.73,13.293-2.596,15.875H34.546z"/>
	<g opacity="0.1">
		<g>
			<defs>
				<rect id="SVGID_97_" x="20.178" y="23.645" width="10.906" height="9.279"/>
			</defs>
			<clipPath id="SVGID_2_">
				<use xlink:href="#SVGID_97_"  overflow="visible"/>
			</clipPath>
			<polygon clip-path="url(#SVGID_2_)" fill="#40596B" points="31.084,23.645 31.082,27.516 27.521,32.924 20.178,27.49 
				23.295,23.645 			"/>
		</g>
	</g>
	<path fill="#F8B64C" d="M16.47,14.351c0.157,1.795-0.714,3.338-1.944,3.444c-1.232,0.108-2.359-1.26-2.516-3.055
		c-0.157-1.795,0.714-3.337,1.945-3.445C15.187,11.188,16.313,12.555,16.47,14.351"/>
	<path fill="#F8B64C" d="M35.977,14.74c-0.158,1.795-1.283,3.164-2.515,3.055c-1.231-0.107-2.103-1.649-1.946-3.444
		c0.157-1.795,1.283-3.163,2.516-3.056C35.262,11.402,36.133,12.945,35.977,14.74"/>
	<path fill="#FFD15C" d="M13.641,10.876v1.942c0,0.08,0,0.15,0.01,0.23c0,0.721,0.05,1.439,0.14,2.15c0.24,2.01,0.8,3.96,1.64,5.779
		c0.83,1.811,1.951,3.51,3.32,5l0.98,1.08c0.9,0.98,2.18,1.551,3.51,1.551h1.5c1.34,0,2.62-0.561,3.52-1.551l0.99-1.08
		c1.93-2.109,3.36-4.609,4.21-7.319c0.351-1.12,0.601-2.28,0.75-3.46c0.091-0.711,0.13-1.43,0.14-2.15v-2.173H13.641z"/>
	<path fill="#F1543F" d="M23.996,12.88c3.9,0,7.473-1.3,10.25-2.055l-0.139-0.929c-0.742-5.012-5.044-8.725-10.111-8.725
		c-5.066,0-9.369,3.713-10.111,8.725l-0.137,0.929C16.524,11.58,20.097,12.88,23.996,12.88"/>
	<polygon fill="#F2F2F2" points="24,43.014 23.99,43.023 23.99,43.004 	"/>
	<path fill="#FC6454" d="M28.815,12.791h-9.638L18.034,7.33c-0.794-3.785,2.095-7.342,5.962-7.342c3.868,0,6.756,3.557,5.963,7.342
		L28.815,12.791z"/>
	<path fill="#FF7058" d="M9.375,10.687c0.018,0.028,0.354-0.327,1.234-0.464c0.848-0.118,2.078-0.033,3.471,0.249
		c2.789,0.544,6.35,1.603,9.914,1.596c1.831,0.009,3.531-0.267,5.248-0.592c1.707-0.368,3.3-0.711,4.664-1.005
		c1.393-0.284,2.623-0.366,3.472-0.249c0.86,0.132,1.229,0.495,1.235,0.464c0,0-0.461-0.182-1.248-0.114
		c-0.795,0.042-1.879,0.429-3.184,0.896c-1.306,0.479-2.842,1.076-4.572,1.551c-1.688,0.486-3.703,0.828-5.615,0.85
		c-3.971-0.021-7.602-1.453-10.188-2.402c-1.306-0.469-2.39-0.854-3.184-0.895c-0.385-0.011-0.698-0.035-0.917,0.039
		C9.49,10.66,9.375,10.687,9.375,10.687"/>
	<path fill="#FF7058" d="M24.338,47.988c0,0,6.224-11.181,6.744-20.922c0,0,7.575,2.755,7.277,14.596h-5.572l0.667,3.157
		l-6.53,3.169H24.338z"/>
	<path fill="#FF7058" d="M23.639,47.988c0,0-6.225-11.181-6.746-20.922c0,0-7.574,2.755-7.276,14.596h5.572l-0.667,3.157
		l6.529,3.169H23.639z"/>
	<path fill="#F1543F" d="M43.061,33.209L38.26,31.01l-4.254-1.953c2.096,2.004,4.525,5.799,4.354,12.605h-5.572l0.667,3.158
		l-6.53,3.168h-2.586h-0.699h-2.588l-6.529-3.168l0.666-3.158H9.616c-0.171-6.784,2.241-10.577,4.334-12.587L9.73,31.01
		l-4.791,2.199C3.16,33.909,2,35.619,2,37.529v10.482h44V37.529C46,35.619,44.83,33.909,43.061,33.209"/>
	<path fill="#F8B64C" d="M26.063,6.39c0,1.735-0.925,3.144-2.067,3.144c-1.141,0-2.066-1.408-2.066-3.144
		c0-1.736,0.926-3.144,2.066-3.144C25.139,3.246,26.063,4.653,26.063,6.39"/>
</g>
</svg>
