<?xml version="1.0" encoding="utf-8"?>
<!-- Generator: Adobe Illustrator 18.0.0, SVG Export Plug-In . SVG Version: 6.00 Build 0)  -->
<!DOCTYPE svg PUBLIC "-//W3C//DTD SVG 1.1//EN" "http://www.w3.org/Graphics/SVG/1.1/DTD/svg11.dtd">
<svg version="1.1" id="Layer_1" xmlns="http://www.w3.org/2000/svg" xmlns:xlink="http://www.w3.org/1999/xlink" x="0px" y="0px"
	 viewBox="0 0 48 48" enable-background="new 0 0 48 48" xml:space="preserve">
<g>
	<path fill="#40596B" d="M35.5,48H7.2c-1.1,0-2-0.9-2-2V2c0-1.1,0.9-2,2-2h28.3c1.1,0,2,0.9,2,2v44C37.5,47.1,36.6,48,35.5,48z"/>
	<rect x="9.2" y="5.2" fill="#FFFFFF" width="24.3" height="34.1"/>
	<path fill="#ACB3BA" d="M26.2,3.4h-9.7c-0.4,0-0.8-0.3-0.8-0.8l0,0c0-0.4,0.3-0.8,0.8-0.8h9.7c0.4,0,0.8,0.3,0.8,0.8l0,0
		C27,3,26.6,3.4,26.2,3.4z"/>
	<circle fill="#ACB3BA" cx="21.4" cy="43.6" r="2.6"/>
	<g>
		<path fill="#4CDBC4" d="M40.8,11H9.2v22.6h31.6c1.1,0,2-0.9,2-2V13C42.8,11.9,41.9,11,40.8,11z"/>
		<path fill="#F2F2F2" d="M35.7,14H9.2v16.5h26.5c0-2.2,1.8-4,4.1-4V18C37.5,18,35.7,16.2,35.7,14z"/>
		<g>
			<circle fill="#4CDBC4" cx="30.4" cy="22.3" r="1.3"/>
		</g>
		<path fill="#4CDBC4" d="M26.2,22.2c0-3.8-2.8-6.8-6-6.8h-0.7c-3.2,0-6,3-6,6.8c0,0,0,0.1,0,0.1c0,0,0,0.1,0,0.1
			c0,3.8,2.8,6.8,6,6.8h0.7c3.2,0,6-3,6-6.8C26.2,22.3,26.2,22.3,26.2,22.2C26.2,22.2,26.2,22.2,26.2,22.2z"/>
		<g>
			<path fill="#F2F2F2" d="M22.4,22.3c-0.4-0.5-1.1-0.8-2.1-1.1v-2.5c0.4,0.2,0.7,0.5,0.8,1l1.6-0.2c-0.1-0.6-0.4-1.2-0.8-1.6
				c-0.4-0.4-1-0.6-1.6-0.7v-0.6h-0.9v0.6c-0.8,0.1-1.3,0.4-1.8,0.8c-0.5,0.5-0.7,1.1-0.7,1.8c0,0.7,0.2,1.3,0.6,1.8
				c0.4,0.5,1,0.9,1.9,1.1v2.7c-0.2-0.1-0.4-0.3-0.6-0.5c-0.2-0.2-0.3-0.5-0.4-0.9l-1.7,0.2c0.1,0.8,0.4,1.5,0.9,2
				c0.5,0.5,1.1,0.7,1.8,0.8v0.8h0.9V27c0.8-0.1,1.5-0.4,2-1c0.5-0.5,0.7-1.2,0.7-2C23,23.3,22.8,22.8,22.4,22.3z M19.4,20.9
				c-0.3-0.1-0.5-0.3-0.6-0.5c-0.1-0.2-0.2-0.4-0.2-0.6c0-0.3,0.1-0.5,0.2-0.7c0.2-0.2,0.4-0.4,0.6-0.4V20.9z M21.1,25.1
				c-0.2,0.2-0.5,0.4-0.8,0.5V23c0.4,0.1,0.7,0.3,0.8,0.5c0.2,0.2,0.3,0.5,0.3,0.7C21.4,24.6,21.3,24.9,21.1,25.1z"/>
		</g>
	</g>
</g>
</svg>
