<?xml version="1.0" encoding="utf-8"?>
<!-- Generator: Adobe Illustrator 18.0.0, SVG Export Plug-In . SVG Version: 6.00 Build 0)  -->
<!DOCTYPE svg PUBLIC "-//W3C//DTD SVG 1.1//EN" "http://www.w3.org/Graphics/SVG/1.1/DTD/svg11.dtd">
<svg version="1.1" id="Layer_1" xmlns="http://www.w3.org/2000/svg" xmlns:xlink="http://www.w3.org/1999/xlink" x="0px" y="0px"
	 viewBox="0 0 48 48" enable-background="new 0 0 48 48" xml:space="preserve">
<g>
	<g>
		<g>
			<g>
				<path fill="#F3F3F3" d="M30.5,39.4c0.3-4.2,2.2-8.1,5.2-11.1c3.1-3.1,5-7.5,4.8-12.3C40.3,7.5,33.4,0.4,24.9,0
					C15.3-0.5,7.4,7.1,7.4,16.6c0,4.7,2,8.9,5.1,12c3,2.9,4.7,6.8,5,10.9H30.5z"/>
			</g>
		</g>
		<g>
			<g>
				<path fill="#FFD15C" d="M25.8,34.1c-0.6,0-1-0.4-1-1c0-5.5,1.5-10.8,4.3-15.5c-1.1,0-2.1-0.2-3.1-0.7c-1.3-0.6-2.8-0.6-4,0
					c-1,0.5-2,0.7-3.1,0.7c2.8,4.7,4.3,10,4.3,15.5c0,0.6-0.4,1-1,1s-1-0.4-1-1c0-6-1.9-11.7-5.4-16.5c-0.3-0.4-0.3-0.9,0-1.2
					c0.3-0.4,0.8-0.5,1.2-0.3c1.3,0.6,2.8,0.6,4,0c1.8-0.9,4-0.9,5.8,0c1.3,0.6,2.8,0.6,4,0c0.4-0.2,0.9-0.1,1.2,0.3
					c0.3,0.4,0.3,0.9,0,1.2c-3.5,4.8-5.4,10.5-5.4,16.5C26.8,33.6,26.3,34.1,25.8,34.1z"/>
			</g>
		</g>
		<g>
			<g>
				<g>
					<path fill="#415A6B" d="M18.4,44.1c0.9,2.3,3.1,3.9,5.6,3.9s4.8-1.6,5.6-3.9H18.4z"/>
				</g>
			</g>
			<g>
				<g>
					<g>
						<path fill="#344A5E" d="M29.9,45H18.1c-1.5,0-2.7-1.2-2.7-2.7v-8.7h17.2v8.7C32.6,43.8,31.4,45,29.9,45z"/>
					</g>
				</g>
				<g>
					<g>
						<g>
							<path fill="#415A6B" d="M32.6,36.4H15.4c-1.1,0-1.9-0.9-1.9-1.9c0-1.1,0.9-1.9,1.9-1.9h17.2c1.1,0,1.9,0.9,1.9,1.9
								C34.5,35.6,33.6,36.4,32.6,36.4z"/>
						</g>
					</g>
					<g>
						<g>
							<path fill="#415A6B" d="M32.6,42.5H15.4c-1.1,0-1.9-0.9-1.9-1.9c0-1.1,0.9-1.9,1.9-1.9h17.2c1.1,0,1.9,0.9,1.9,1.9
								C34.5,41.7,33.6,42.5,32.6,42.5z"/>
						</g>
					</g>
				</g>
			</g>
		</g>
	</g>
</g>
</svg>
