<?xml version="1.0" encoding="utf-8"?>
<!-- Generator: Adobe Illustrator 16.0.0, SVG Export Plug-In . SVG Version: 6.00 Build 0)  -->
<!DOCTYPE svg PUBLIC "-//W3C//DTD SVG 1.1//EN" "http://www.w3.org/Graphics/SVG/1.1/DTD/svg11.dtd">
<svg version="1.1" id="Layer_1" xmlns="http://www.w3.org/2000/svg" xmlns:xlink="http://www.w3.org/1999/xlink" x="0px" y="0px"
	 width="48px" height="48px" viewBox="0 0 48 48" enable-background="new 0 0 48 48" xml:space="preserve">
<g>
	<path fill="#FF7058" d="M38.052,33.941L23.994,48L9.935,33.941c-7.748-7.766-7.748-20.351,0-28.117
		c7.767-7.765,20.369-7.765,28.117,0C45.818,13.59,45.818,26.175,38.052,33.941"/>
	<path fill="#FFFFFF" d="M38.442,19.882c0,7.979-6.473,14.429-14.428,14.429c-7.979,0-14.451-6.45-14.451-14.429
		c0-7.977,6.473-14.428,14.451-14.428C31.97,5.455,38.419,11.906,38.442,19.882"/>
	<path fill="#FF7058" d="M25.349,15.391h-4.697c-1.446,0-2.621-1.176-2.621-2.621c0-1.444,1.175-2.62,2.621-2.62
		c1.199,0,2.831,2.227,3.988,4.098L25.349,15.391z M20.595,11.643c-0.563,0.007-1.064,0.509-1.064,1.127s0.502,1.121,1.121,1.121
		h1.956C21.767,12.699,20.931,11.746,20.595,11.643"/>
	<path fill="#FF7058" d="M27.354,15.391h-4.699l0.71-1.146c1.157-1.869,2.791-4.096,3.989-4.096c1.445,0,2.621,1.176,2.621,2.62
		C29.976,14.215,28.8,15.391,27.354,15.391 M25.397,13.891h1.957c0.619,0,1.121-0.503,1.121-1.121s-0.502-1.12-1.121-1.12
		C27.063,11.746,26.235,12.699,25.397,13.891"/>
	<path fill="#E8EAEA" d="M15.022,17.757v10.449c0,0.78,0.641,1.41,1.411,1.41h15.132c0.781,0,1.411-0.63,1.411-1.41V17.757H15.022z"
		/>
	<path fill="#CDD6E0" d="M32.544,14.641H15.462c-0.879,0-1.592,0.713-1.592,1.593v2.844h20.267v-2.844
		C34.137,15.354,33.423,14.641,32.544,14.641"/>
	<rect x="23.003" y="14.394" fill="#FF7058" width="2" height="15.223"/>
</g>
</svg>
