<?xml version="1.0" encoding="utf-8"?>
<!-- Generator: Adobe Illustrator 18.0.0, SVG Export Plug-In . SVG Version: 6.00 Build 0)  -->
<!DOCTYPE svg PUBLIC "-//W3C//DTD SVG 1.1//EN" "http://www.w3.org/Graphics/SVG/1.1/DTD/svg11.dtd">
<svg version="1.1" id="Layer_1" xmlns="http://www.w3.org/2000/svg" xmlns:xlink="http://www.w3.org/1999/xlink" x="0px" y="0px"
	 viewBox="0 0 48 48" enable-background="new 0 0 48 48" xml:space="preserve">
<g>
	<polygon fill="#F3F3F3" points="27.8,41.6 13.8,46.7 0,40.7 10.5,26.6 18,28.1 24.9,26.9 34,28.4 48,48 	"/>
	<polygon fill="#66C6B9" points="8.8,31.3 3.5,39.3 14.5,43.6 15.9,37.2 	"/>
	<polygon fill="#FFD15C" points="15.7,34.5 16.7,34 17.8,28.9 11.3,27.5 9.7,30 	"/>
	<polygon fill="#CED6E0" points="23,32 16.9,35.5 23.6,40.6 27.4,39.3 26.3,33.8 	"/>
	<polygon fill="#4EC0AA" points="24.2,31.3 26,32.2 25.6,30.4 	"/>
	<polygon fill="#CED6E0" points="23.5,30.3 19.9,28.5 17.8,28.9 16.7,34 	"/>
	<polygon fill="#4EC0AA" points="15.9,37.2 14.5,43.6 20.9,41.5 	"/>
	<polygon fill="#4EC0AA" points="24.6,29.7 25.4,29.3 25,27.5 21.5,28.2 	"/>
	<polygon fill="#66C6B9" points="25.6,30.4 26,32.2 39,38.8 32.8,28.9 29.3,28.3 	"/>
	<polygon fill="#66C6B9" points="27.7,28 25,27.5 25.4,29.3 	"/>
	<polygon fill="#FFD15C" points="26.3,33.8 27.4,39.3 41.9,43.6 40.8,41.7 	"/>
	<path fill="#F3705A" d="M37.6,13.6c0,7.5-13.6,22-13.6,22s-13.6-14.4-13.6-22S16.5,0,24,0S37.6,6.1,37.6,13.6z"/>
	<circle fill="#FFFFFF" cx="24" cy="13.6" r="7.7"/>
</g>
</svg>
