<?xml version="1.0" encoding="utf-8"?>
<!-- Generator: Adobe Illustrator 18.0.0, SVG Export Plug-In . SVG Version: 6.00 Build 0)  -->
<!DOCTYPE svg PUBLIC "-//W3C//DTD SVG 1.1//EN" "http://www.w3.org/Graphics/SVG/1.1/DTD/svg11.dtd">
<svg version="1.1" id="Layer_1" xmlns="http://www.w3.org/2000/svg" xmlns:xlink="http://www.w3.org/1999/xlink" x="0px" y="0px"
	 viewBox="0 0 48 48" enable-background="new 0 0 48 48" xml:space="preserve">
<g>
	<path fill="#40596B" d="M13.9,37.4v2.8c0,1.1-0.9,2-2,2H7.5c-1.1,0-2-0.9-2-2v-2.8H13.9z"/>
	<path fill="#40596B" d="M42.5,37.4v2.8c0,1.1-0.9,2-2,2h-4.4c-1.1,0-2-0.9-2-2v-2.8H42.5z"/>
	<path fill="#334A5E" d="M5.5,37.4h8.4v2.1H6.8c-0.5,0-0.9,0-1.3-0.2V37.4z"/>
	<path fill="#334A5E" d="M42.5,37.4v1.9c-0.4,0.1-0.8,0.1-1.2,0.1h-7.2v-2.1H42.5z"/>
	<g>
		<path fill="#CDD6E0" d="M45.8,20.7h-6V15h5.8c1.1,0,2,0.8,2.2,1.8L48,18C48.2,19.4,47.2,20.7,45.8,20.7z"/>
		<path fill="#CDD6E0" d="M2.2,20.7h6V15H2.5c-1.1,0-2,0.8-2.2,1.8L0,18C-0.2,19.4,0.8,20.7,2.2,20.7z"/>
	</g>
	<path fill="#F2F2F2" d="M45.5,35.3c-0.5,1.9-2.3,3.1-4.3,3.1H6.8c-1.9,0-3.7-1.2-4.2-3.1c-1.2-3.7-1.2-9.3,0-13
		c0.3-0.9,0.9-1.6,1.6-2.2L9.3,8.5c0.7-1.6,2.3-2.7,4.1-2.7h21.3c1.8,0,3.4,1,4.1,2.7l5.1,11.7c0.8,0.6,1.4,1.4,1.7,2.4
		C46.6,26.2,46.6,31.6,45.5,35.3z"/>
	<g>
		<path fill="#FFD15C" d="M15.4,32.4l-1.9-3.2c-0.3-0.4-0.7-0.7-1.2-0.7H6.2c-0.8,0-1.4,0.6-1.4,1.4v3.2c0,0.8,0.6,1.4,1.4,1.4h8
			C15.3,34.6,16,33.3,15.4,32.4z"/>
	</g>
	<path fill="#FFD15C" d="M32.6,32.4l1.9-3.2c0.3-0.4,0.7-0.7,1.2-0.7h6.1c0.8,0,1.4,0.6,1.4,1.4v3.2c0,0.8-0.6,1.4-1.4,1.4h-8
		C32.7,34.6,32,33.3,32.6,32.4z"/>
	<rect x="17.6" y="29.3" fill="#FF7058" width="12.8" height="3.8"/>
	<path fill="#54C0EB" d="M7,19.3l4.3-9.9c0.4-0.8,1.2-1.3,2-1.3h21.3c0.9,0,1.7,0.5,2,1.3l4.3,9.9H7z"/>
	<g>
		<polygon fill="#84DBFF" points="22.4,8 13.2,19.3 11.3,19.3 20.5,8 		"/>
		<polygon fill="#84DBFF" points="26.7,8 17.5,19.3 14.5,19.3 23.7,8 		"/>
	</g>
</g>
</svg>
