<?xml version="1.0" encoding="utf-8"?>
<!-- Generator: Adobe Illustrator 18.0.0, SVG Export Plug-In . SVG Version: 6.00 Build 0)  -->
<!DOCTYPE svg PUBLIC "-//W3C//DTD SVG 1.1//EN" "http://www.w3.org/Graphics/SVG/1.1/DTD/svg11.dtd">
<svg version="1.1" id="Layer_1" xmlns="http://www.w3.org/2000/svg" xmlns:xlink="http://www.w3.org/1999/xlink" x="0px" y="0px"
	 viewBox="0 0 48 48" enable-background="new 0 0 48 48" xml:space="preserve">
<g>
	<path fill="#F2F2F2" d="M46.3,42.5H9.2V27.1c0-10.2,8.3-18.6,18.6-18.6h0c10.2,0,18.6,8.3,18.6,18.6V42.5z"/>
	<path fill="#ACB3BA" d="M46.3,42.5h-37c-1,0-1.7,0.8-1.7,1.7l0,0c0,1,0.8,1.7,1.7,1.7h37c1,0,1.7-0.8,1.7-1.7l0,0
		C48,43.3,47.2,42.5,46.3,42.5z"/>
	<g>
		<rect x="13.2" y="46" fill="#CDD6E0" width="6.2" height="2"/>
		<rect x="36.1" y="46" fill="#CDD6E0" width="6.2" height="2"/>
	</g>
	<path fill="#ACB3BA" d="M4.2,33.1H2c-1.1,0-2-0.9-2-2V18.3c0-1.1,0.9-2,2-2h2.2c1.1,0,2,0.9,2,2v12.8C6.2,32.2,5.3,33.1,4.2,33.1z"
		/>
	<path fill="#CDD6E0" d="M32.6,5.6v3.6c-1.6-0.4-3.2-0.7-4.9-0.7c-1.7,0-3.3,0.2-4.9,0.7V5.6H32.6z"/>
	<path fill="#FF7058" d="M35.9,5.6H19.6c-3.1,0-5.6-2.5-5.6-5.6l0,0h27.4l0,0C41.4,3.1,38.9,5.6,35.9,5.6z"/>
	<path fill="#CDD6E0" d="M9.2,27.1c0-2.9,0.7-5.7,1.9-8.1H6.2v11.5h3V27.1z"/>
	<circle fill="#F8B64C" cx="37.4" cy="20.8" r="3.7"/>
	<circle fill="#FFD15C" cx="37.4" cy="20.8" r="2.3"/>
</g>
</svg>
