<?xml version="1.0" encoding="utf-8"?>
<!-- Generator: Adobe Illustrator 18.0.0, SVG Export Plug-In . SVG Version: 6.00 Build 0)  -->
<!DOCTYPE svg PUBLIC "-//W3C//DTD SVG 1.1//EN" "http://www.w3.org/Graphics/SVG/1.1/DTD/svg11.dtd">
<svg version="1.1" id="Layer_1" xmlns="http://www.w3.org/2000/svg" xmlns:xlink="http://www.w3.org/1999/xlink" x="0px" y="0px"
	 viewBox="0 0 48 48" enable-background="new 0 0 48 48" xml:space="preserve">
<g>
	<g>
		<g>
			<g>
				<g>
					<g>
						<path fill="#F3705A" d="M31.1,29.2c0.1,1,0.1,2.1-0.1,3.1l3.8,3.1l-2,4.5L28,39.2c-0.7,0.8-1.4,1.5-2.3,2.2l0.6,4.9L21.7,48
							l-2.9-3.9c-1.1,0.1-2.1,0.1-3.1-0.1l-3.1,3.8l-4.5-2L8.8,41c-0.8-0.7-1.5-1.4-2.2-2.2l-4.9,0.6L0,34.7l4-2.9
							c-0.1-1.1-0.1-2.1,0.1-3.1l-3.8-3.1l2-4.5L7,21.8c0.6-0.8,1.4-1.5,2.2-2.2l-0.6-4.9l4.6-1.8l2.9,4c1.1-0.1,2.1-0.1,3.1,0.1
							l3.1-3.8l4.5,2L26.2,20c0.8,0.7,1.5,1.4,2.2,2.2l4.9-0.6l1.8,4.6L31.1,29.2z"/>
					</g>
				</g>
				<g>
					<g>
						<circle fill="#FFFFFF" cx="17.5" cy="30.5" r="10.5"/>
					</g>
				</g>
				<g>
					<g>
						<path fill="#66C6B9" d="M21.4,31.4h-3.9c-0.5,0-0.9-0.4-0.9-0.9c0-0.5,0.4-0.9,0.9-0.9h3.9c0.5,0,0.9,0.4,0.9,0.9
							C22.3,31,21.9,31.4,21.4,31.4z"/>
					</g>
				</g>
				<g>
					<g>
						<path fill="#FFD15C" d="M17.5,31.4c-0.5,0-0.9-0.4-0.9-0.9v-6c0-0.5,0.4-0.9,0.9-0.9c0.5,0,0.9,0.4,0.9,0.9v6
							C18.4,31,18,31.4,17.5,31.4z"/>
					</g>
				</g>
				<g>
					<g>
						<circle fill="#344A5E" cx="17.5" cy="30.5" r="1.8"/>
					</g>
				</g>
				<g>
					<g>
						<circle fill="#CED6E0" cx="17.5" cy="21.7" r="0.6"/>
					</g>
				</g>
				<g>
					<g>
						<circle fill="#CED6E0" cx="11.3" cy="24.3" r="0.6"/>
					</g>
				</g>
				<g>
					<g>
						<circle fill="#CED6E0" cx="8.7" cy="30.5" r="0.6"/>
					</g>
				</g>
				<g>
					<g>
						<circle fill="#CED6E0" cx="11.3" cy="36.7" r="0.6"/>
					</g>
				</g>
				<g>
					<g>
						<circle fill="#CED6E0" cx="17.5" cy="39.3" r="0.6"/>
					</g>
				</g>
				<g>
					<g>
						<circle fill="#CED6E0" cx="23.7" cy="36.7" r="0.6"/>
					</g>
				</g>
				<g>
					<g>
						<circle fill="#CED6E0" cx="26.3" cy="30.5" r="0.6"/>
					</g>
				</g>
				<g>
					<g>
						<circle fill="#CED6E0" cx="23.7" cy="24.3" r="0.6"/>
					</g>
				</g>
			</g>
			<g>
				<path fill="#415A6B" d="M48,12.7V9.6l-3.6-0.9c-0.1-0.4-0.3-0.9-0.5-1.3l1.9-3.1l-2.2-2.2l-3.1,1.9c-0.4-0.2-0.8-0.4-1.3-0.5
					L38.4,0h-3.1l-0.9,3.6c-0.4,0.1-0.9,0.3-1.3,0.5L30,2.2l-2.2,2.2l1.9,3.1c-0.2,0.4-0.4,0.8-0.5,1.3l-3.6,0.8v3.1l3.6,0.9
					c0.1,0.4,0.3,0.9,0.5,1.3L27.8,18l2.2,2.2l3.1-1.9c0.4,0.2,0.8,0.4,1.3,0.5l0.8,3.6h3.1l0.9-3.6c0.4-0.1,0.9-0.3,1.3-0.5
					l3.1,1.9l2.2-2.2l-1.9-3.1c0.2-0.4,0.4-0.8,0.5-1.3L48,12.7z M36.8,14c-1.6,0-2.8-1.3-2.8-2.8c0-1.6,1.3-2.8,2.8-2.8
					c1.6,0,2.8,1.3,2.8,2.8C39.7,12.7,38.4,14,36.8,14z"/>
			</g>
		</g>
		<path fill="#344A5E" d="M36.8,6c-2.9,0-5.2,2.3-5.2,5.2c0,2.9,2.3,5.2,5.2,5.2c2.9,0,5.2-2.3,5.2-5.2C42,8.3,39.7,6,36.8,6z
			 M36.8,14c-1.6,0-2.8-1.3-2.8-2.8c0-1.6,1.3-2.8,2.8-2.8c1.6,0,2.8,1.3,2.8,2.8C39.7,12.7,38.4,14,36.8,14z"/>
	</g>
</g>
</svg>
