<?xml version="1.0" encoding="utf-8"?>
<!-- Generator: Adobe Illustrator 18.0.0, SVG Export Plug-In . SVG Version: 6.00 Build 0)  -->
<!DOCTYPE svg PUBLIC "-//W3C//DTD SVG 1.1//EN" "http://www.w3.org/Graphics/SVG/1.1/DTD/svg11.dtd">
<svg version="1.1" id="Layer_1" xmlns="http://www.w3.org/2000/svg" xmlns:xlink="http://www.w3.org/1999/xlink" x="0px" y="0px"
	 viewBox="0 0 48 48" enable-background="new 0 0 48 48" xml:space="preserve">
<g>
	<g>
		<path fill="#F3F3F3" d="M34.3,0L10.6,0L0,10.6V45c0,1.7,1.3,3,3,3h31.3c1.7,0,3-1.3,3-3V3C37.3,1.3,35.9,0,34.3,0z"/>
		<g>
			<rect x="4.9" y="33.4" fill="#CED6E0" width="27.5" height="2.2"/>
			<rect x="4.9" y="26.4" fill="#CED6E0" width="27.5" height="2.2"/>
			<rect x="4.9" y="19.4" fill="#CED6E0" width="27.5" height="2.2"/>
			<rect x="4.9" y="12.4" fill="#CED6E0" width="27.5" height="2.2"/>
			<g>
				<rect x="14.6" y="5.4" fill="#CED6E0" width="17.7" height="2.2"/>
			</g>
		</g>
		<polygon fill="#66C6B9" points="10.6,0 0,10.6 10.6,10.6 		"/>
		<g>
			<g>
				<path fill="#FFD15C" d="M48,5.6l0-0.6L34.9,7.9c0,0-2.5,2.4-2.4,2.5c0.1,0.1,8.1,4.1,8.1,4.1l7.4-0.5V5.6z"/>
			</g>
			<g>
				<path fill="#F7B64C" d="M48,12.9V9.6c-2.6,0.8-7.4,2.3-10.1,3.3H48z"/>
			</g>
			<g>
				<g>
					<path fill="#FFD15C" d="M48,0L34.5,1.7c-1.6,0.2-3,1.3-3.7,2.8c-1,2.4-2.5,6-3.2,7.4c-1.1,2.2-0.5,5.1-0.5,5.1s-0.1,2,0,5
						c0.1,2,1.5,2.8,2.4,3.1c0.5,0.2,1.1,0.3,1.7,0.1c0.8-0.2,1.8-0.8,2.8-2.8c1.3-2.8,0.2-7.5,0.2-7.5c2.2-0.5,4.6-4.9,4.6-4.9
						c5.1,1.4,7.1-1.9,7.1-1.9C46.4,9,47.2,9.5,48,9.8V0z"/>
				</g>
				<g>
					<path fill="#F7B64C" d="M44.5,7.3c-2.2,2.2-5.9,2.1-8-0.2c-0.7-0.8-1.2-1.4-1.2-1.4s1,1.6,1.3,2.6c0.8,2.6-1.1,5.5-4.5,4.9
						c-0.8-0.3-2.6-1-2.6-1s1.9,1,2.7,1.8c0.8,0.9,0.9,2.2,0.9,3.3c0,1,0.1,2.1,0.1,3.1c0,0.6,0,1.1-0.2,1.7
						c-0.5,1.8-1.9,2.7-4.1,2.7c0.2,0.1,0.4,0.2,0.6,0.3c0.5,0.2,1.1,0.3,1.7,0.1c0.8-0.2,1.8-0.8,2.8-2.8c1.3-2.8,0.2-7.5,0.2-7.5
						c2.2-0.5,4.6-4.9,4.6-4.9c5.1,1.4,7.1-1.9,7.1-1.9C46.4,9,47.2,9.5,48,9.8V8c-0.1,0-0.1,0-0.2,0c-0.3,0-0.5,0-0.8-0.1
						c-0.6-0.2-1-0.6-1.4-1c-0.4-0.4-0.6-0.8-0.8-1.3C45.1,6.1,44.9,6.8,44.5,7.3C44.5,7.2,44.5,7.3,44.5,7.3z"/>
				</g>
			</g>
			<g>
				<g>
					<g>
						<path fill="#415A6B" d="M33.1,28.2c-2.1,1.3-2,2.6-1.9,3.2l6.3,1.8c0.5-0.4,1.2-1.6,0.1-3.7c-1.1-2.1,1.8-5.5,3.4-7.2
							c1.3-1.3,2.3-3,2.8-4.8c0,0,0,0,0-0.1c1.6-6.2-7.8-8.8-9.7-2.7c0,0,0,0,0,0.1c-0.5,1.8-0.5,3.7-0.1,5.5
							C34.4,22.6,35.1,27,33.1,28.2z"/>
					</g>
					<g>
						<path fill="#344A5E" d="M42.4,12.6c0,0-0.1,0-0.1,0c0,0.1-0.1,0.2-0.2,0.2c-0.2,0-0.4-0.1-0.4-0.3c-0.1,0-0.1,0-0.2,0
							c-0.8,0.8-1.8,1.4-2.8,2.1c-1,0.7-1.9,1.6-2.4,2.8c-0.3,0.8-0.3,1.7-0.6,2.5c-0.1,0.4-0.3,0.8-0.7,0.8c-0.4,0-0.7-0.4-0.8-0.7
							c-0.1-0.3-0.2-0.6-0.3-0.9c-0.2-0.6-0.4-1.2-0.4-1.8c0.4-4.6,5.3-4.8,7.6-5.4C41.7,12,42,12.3,42.4,12.6z"/>
					</g>
					<path fill="#344A5E" d="M33.7,17.6c0,0-0.8,4.9,5,7.4c0.7-1.1,1.6-2,2.3-2.7c0.4-0.4,0.7-0.8,1.1-1.3L33.7,17.6z"/>
					<g>
						<path fill="#344A5E" d="M43.8,38.8L43.8,38.8c0.5-1.9-0.6-4-2.5-4.5l-13.9-3.9c-1.9-0.5-4,0.6-4.5,2.5v0L43.8,38.8z"/>
					</g>
				</g>
				<g>
					
						<rect x="32.2" y="27" transform="matrix(-0.2702 0.9628 -0.9628 -0.2702 77.3766 14.726)" fill="#F3705A" width="1.7" height="19.5"/>
				</g>
			</g>
			<g>
				<path fill="#FFD15C" d="M48,10.5c-3.3,1-9.7,3.1-11.4,3.7c-2.6,1.1-2.6,4.1-2.3,5.6c0.4,1.6,1.9,3.7,6.8,3.3
					c0,0,3.7,0.1,6.9-0.2V10.5z"/>
			</g>
			<g>
				<path fill="#FFFFFF" d="M38.6,14.9c-1.6,0.1-2.9,1.3-3.1,2.9c-0.1,0.5-0.1,1,0,1.7c0,0,0,0.1,0,0.1c0.3,1.7,2.6,3.1,4.3,2.6
					l2.3-0.6c0.6-0.2,1.2-0.6,1.3-1.3c0.5-1.7,0.4-3.2-0.6-4.7c-0.4-0.6-1-0.9-1.6-0.8C40.5,14.8,39.4,14.9,38.6,14.9z"/>
			</g>
		</g>
		<g>
			<g>
				<g>
					<path fill="#F3705A" d="M13.9,42.9l-0.2-0.5h-0.9l-0.2,0.5h-0.5l0.9-2.1h0.5l0.9,2.1H13.9z M13.3,41.4L13,42h0.5L13.3,41.4z"/>
					<path fill="#F3705A" d="M16.1,40.9c0.1,0.1,0.2,0.3,0.2,0.6c0,0.3-0.1,0.5-0.2,0.6c-0.2,0.1-0.4,0.2-0.7,0.2h-0.3v0.6h-0.5
						v-2.1h0.8C15.7,40.7,16,40.8,16.1,40.9z M15.8,41.8c0.1-0.1,0.1-0.2,0.1-0.3c0-0.1,0-0.2-0.1-0.3c-0.1-0.1-0.2-0.1-0.3-0.1
						h-0.3v0.7h0.3C15.6,41.9,15.7,41.8,15.8,41.8z"/>
					<path fill="#F3705A" d="M18.2,40.9c0.1,0.1,0.2,0.3,0.2,0.6c0,0.3-0.1,0.5-0.2,0.6c-0.2,0.1-0.4,0.2-0.7,0.2h-0.3v0.6h-0.5
						v-2.1h0.8C17.8,40.7,18.1,40.8,18.2,40.9z M17.9,41.8c0.1-0.1,0.1-0.2,0.1-0.3c0-0.1,0-0.2-0.1-0.3c-0.1-0.1-0.2-0.1-0.3-0.1
						h-0.3v0.7h0.3C17.7,41.9,17.8,41.8,17.9,41.8z"/>
					<path fill="#F3705A" d="M20.5,41.4c0,0.3-0.1,0.6-0.4,0.7l0.5,0.8h-0.6l-0.5-0.7h-0.3v0.7h-0.5v-2.1h0.8c0.3,0,0.6,0.1,0.7,0.2
						C20.5,41,20.5,41.2,20.5,41.4z M20,41.7c0.1-0.1,0.1-0.1,0.1-0.3c0-0.1,0-0.2-0.1-0.2c-0.1,0-0.2-0.1-0.3-0.1h-0.4v0.6h0.3
						C19.8,41.8,19.9,41.8,20,41.7z"/>
					<path fill="#F3705A" d="M22.8,42.6c-0.2,0.2-0.5,0.3-0.8,0.3c-0.3,0-0.6-0.1-0.8-0.3c-0.2-0.2-0.3-0.5-0.3-0.8
						c0-0.3,0.1-0.6,0.3-0.8c0.2-0.2,0.5-0.3,0.8-0.3c0.3,0,0.6,0.1,0.8,0.3c0.2,0.2,0.3,0.5,0.3,0.8C23.1,42.1,23,42.4,22.8,42.6z
						 M22.6,41.8c0-0.2-0.1-0.4-0.2-0.5c-0.1-0.1-0.3-0.2-0.5-0.2c-0.2,0-0.3,0.1-0.5,0.2c-0.1,0.1-0.2,0.3-0.2,0.5
						c0,0.2,0.1,0.4,0.2,0.5s0.3,0.2,0.5,0.2c0.2,0,0.3-0.1,0.5-0.2C22.6,42.1,22.6,42,22.6,41.8z"/>
					<path fill="#F3705A" d="M24.3,42.1l0.5-1.4h0.5l-0.9,2.1h-0.4l-0.9-2.1h0.5L24.3,42.1z"/>
					<path fill="#F3705A" d="M27.1,40.7v0.4h-1.1v0.4h1V42h-1v0.4h1.1v0.4h-1.6v-2.1H27.1z"/>
					<path fill="#F3705A" d="M29.2,41c0.2,0.2,0.3,0.4,0.3,0.8c0,0.3-0.1,0.6-0.3,0.8c-0.2,0.2-0.5,0.3-0.9,0.3h-0.7v-2.1h0.8
						C28.7,40.7,29,40.8,29.2,41z M28.9,42.3c0.1-0.1,0.2-0.3,0.2-0.5c0-0.2-0.1-0.4-0.2-0.5c-0.1-0.1-0.3-0.2-0.5-0.2h-0.3v1.3h0.3
						C28.6,42.5,28.8,42.4,28.9,42.3z"/>
				</g>
			</g>
			<g>
				<g>
					<path fill="#F3705A" d="M29.9,43.9H11.8c-0.4,0-0.7-0.3-0.7-0.7v-2.8c0-0.4,0.3-0.7,0.7-0.7h18.1c0.4,0,0.7,0.3,0.7,0.7v2.8
						C30.5,43.6,30.2,43.9,29.9,43.9z M11.8,40c-0.2,0-0.4,0.2-0.4,0.4v2.8c0,0.2,0.2,0.4,0.4,0.4h18.1c0.2,0,0.4-0.2,0.4-0.4v-2.8
						c0-0.2-0.2-0.4-0.4-0.4H11.8z"/>
				</g>
			</g>
		</g>
	</g>
</g>
</svg>
