<?xml version="1.0" encoding="utf-8"?>
<!-- Generator: Adobe Illustrator 18.0.0, SVG Export Plug-In . SVG Version: 6.00 Build 0)  -->
<!DOCTYPE svg PUBLIC "-//W3C//DTD SVG 1.1//EN" "http://www.w3.org/Graphics/SVG/1.1/DTD/svg11.dtd">
<svg version="1.1" id="Layer_1" xmlns="http://www.w3.org/2000/svg" xmlns:xlink="http://www.w3.org/1999/xlink" x="0px" y="0px"
	 viewBox="0 0 48 48" enable-background="new 0 0 48 48" xml:space="preserve">
<g>
	<g>
		<g>
			<g>
				<g>
					<g>
						<g>
							<path fill="#FFD15C" d="M23.2,33.4l0.4-0.6c0,0,0.1-2.1-0.1-3.2l-3.4,0.7c0,0,0.4,1.9,0.4,2.2c0,0.4,0.1,0.8,0.1,0.8
								S23,34,23.2,33.4z"/>
						</g>
					</g>
				</g>
				<g>
					<g>
						<g>
							<path fill="#E8EAE8" d="M20.5,32.6c0,0,2,1.2,3.1,0.3c0,0-0.2,1.1-0.6,1.7c0,0-1,5.1-0.8,5.6c0.2,0.4,0.2,0.4,0.2,0.4
								L22.3,42l-1.8,0.2c0,0,0.2-1.7,0-2.1c-0.2-0.4-1.2-3.4-0.8-5.1C20.2,33.5,20.5,32.6,20.5,32.6z"/>
						</g>
					</g>
				</g>
				<g>
					<g>
						<g>
							<path fill="#344A5E" d="M20.5,40.5c0,0,0.2,0.7,1,0.7s0.7-0.7,0.7-0.7s0.2,1.7,0.2,2c0,0.2,0.2,1.8,0.5,2.3
								c0.3,0.4,0.5,1.7,0.1,2c-0.5,0.3-1.6,0.4-2.5-0.6l-0.1-2L20,44l0.1-1.7C20.1,42.3,19.7,40.6,20.5,40.5z"/>
						</g>
					</g>
				</g>
				<g>
					<g>
						<g>
							<g>
								<path fill="#FFD15C" d="M24.1,28.7c0,0-0.2,2.1-0.3,2.6c0,0.5,0.3,2,0.3,2l2.7-0.3c0,0,0.5-3.1,0.8-4L24.1,28.7z"/>
							</g>
						</g>
					</g>
					<g>
						<g>
							<g>
								<path fill="#E8EAE8" d="M24,32.4c0,0,1.9,0.6,3-0.2c0,0,0.4,3.2-0.6,6.2c-1.1,3-1.4,3.6-1.4,3.6l-0.3,1l-1.5-0.3
									c0,0,0.4-2.2,0.6-4.6C24.1,35.7,24,33.2,24,32.4z"/>
							</g>
						</g>
					</g>
					<g>
						<g>
							<g>
								<path fill="#344A5E" d="M28.1,2.5l0.6,0.3c0,0,0.4,0.3,0.6,0.7c0.3,0.3,0.9,0.6,1.4,0.7c0,0-1.1,0.4-1.5,1.1
									c-0.4,0.6-4.4,1.3-4.4,1.3l-3.6-0.8c0,0-1.2-0.5-0.9-1.1c0,0,0.3-0.3,1.4-0.4c1-0.1,1.8-0.6,1.8-0.6s3-1.4,3.7-1.3
									C27.9,2.4,28.1,2.5,28.1,2.5z"/>
							</g>
						</g>
					</g>
					<g>
						<g>
							<g>
								<path fill="#48B9A5" d="M19.5,30.1c0.2,0.5,0.7,0.7,1.1,0.5c0.7-0.3,2.3-0.8,3.5-0.4C25.8,30.8,26,30,26,30s0.8-0.9,1.8-0.2
									c0.9,0.7,0.9-0.6,0.9-0.6c0.2-2.5-0.1-5-1.1-7.4h-7.2C20,21.9,18.8,28.1,19.5,30.1z"/>
							</g>
						</g>
					</g>
					<g>
						<g>
							<g>
								<path fill="#F5B54C" d="M23.6,4.3l-1.1,2.9v2c1.1,1.7,2.5,1.3,4,0l-1.3-3.7L23.6,4.3z"/>
							</g>
						</g>
					</g>
					<g>
						<g>
							<g>
								<path fill="#E8EAE8" d="M24,24.2c-2.9-0.2-2.8-1.5-3.9-1.1l0-15.4H22c0.4,0.9,1.1,1.5,2,1.5c0.9,0,1.6-0.6,2-1.5h1.8
									l0.1,16.2C26.1,22.9,25.5,24.3,24,24.2"/>
							</g>
						</g>
					</g>
					<g>
						<g>
							<g>
								<g>
									<g>
										<g>
											<path fill="#FFD15C" d="M30.4,23.3L30.4,23.3c-0.1,0.4-0.1,0.9,0,1.3l0.1,0.4c0,0.1,0,0.2,0,0.3l-0.3,0.9
												c0,0.1-0.1,0.2-0.1,0.2L29.4,27C29.2,27.1,29,27,29,26.8c0-0.1,0-0.1,0.1-0.2l0.3-0.3L29.1,26C29.1,26,29,25.9,29,25.8
												l0-0.9c0,0,0.2-0.8,0.2-2L30.4,23.3z"/>
										</g>
									</g>
								</g>
								<g>
									<g>
										<g>
											<path fill="#344A5E" d="M30.5,23.8c0.2-0.6-1.3-0.3-1.3-0.3c-1.4-3.3-0.4-15.2-0.4-15.2c0,0,0,0,0,0
												c0.4,0.1,0.6,0.4,0.7,0.5c0,0,0,0,0,0c0.7,1.4,0.1,5.3,0,5.9c0,0.4,0.3,2.1,0.3,2.1s0.7,6.2,0.8,6.5
												C30.8,23.6,30.5,23.8,30.5,23.8z"/>
										</g>
									</g>
								</g>
							</g>
							<g>
								<g>
									<g>
										<path fill="#425A6B" d="M29.2,23.4c0,0-0.1,3.6-0.3,4.9s-0.5,1.1-0.5,1.1s0-4.1-0.2-4.8c-0.1-0.4-1-2-1.7-3.3
											c-0.7-1.1-1-2.4-1-3.7c0-2.2,0.1-4.8,0.4-6c0.4-1.6,0.7-4.3,0.7-4.3C29,7,29.7,9.1,29.7,9.1c-0.8,1.8-1,5.4-1.1,6.8
											C28.6,17.3,29.2,23.4,29.2,23.4z"/>
									</g>
								</g>
							</g>
						</g>
						<g>
							<g>
								<g>
									<g>
										<g>
											<path fill="#FFD15C" d="M19.3,23.3c-0.2-0.2-0.6-0.8-0.9-1.5l-0.8,0.8c0.3,0.3,0.5,0.7,0.6,1.1l0.1,0.4
												c0,0.1,0.1,0.2,0.2,0.3L19,25c0.1,0.1,0.1,0.1,0.2,0.1l0.1,0V23.3z"/>
										</g>
									</g>
								</g>
								<g>
									<g>
										<g>
											<path fill="#344A5E" d="M17.4,23.1c-0.2-0.6,1.3-0.3,1.3-0.3c1.4-3.3,0.4-14.5,0.4-14.5c0,0,0,0,0,0
												c-0.4,0.1-0.6,0.4-0.7,0.5c0,0,0,0,0,0c-0.7,1.4-0.2,5.3-0.1,5.9c0,0.4-0.3,2.1-0.3,2.1s-0.6,5.5-0.7,5.8
												C17.2,22.9,17.4,23.1,17.4,23.1z"/>
										</g>
									</g>
								</g>
							</g>
							<g>
								<g>
									<g>
										<path fill="#425A6B" d="M18.8,23.4c0,0,0.1,3.6,0.3,4.9s0.5,1.1,0.5,1.1s0-4.1,0.2-4.8c0.1-0.4,1-2,1.7-3.3
											c0.7-1.1,1-2.4,1-3.7c0-2.2-0.1-4.8-0.4-6c-0.4-1.6-0.7-4.3-0.7-4.3C19,7,18.3,9.1,18.3,9.1c0.8,1.8,1,5.4,1.1,6.8
											C19.4,17.3,18.8,23.4,18.8,23.4z"/>
									</g>
								</g>
							</g>
						</g>
					</g>
					<g>
						<g>
							<g>
								<g>
									<g>
										<g>
											<path fill="#F26F5A" d="M26.5,2C27,2.1,28,2.5,28.3,3C28.7,3.5,28.9,4,29,4.6c0.6,2.3,0.5,4.9-0.4,7.1
												c-0.1,0.3,0,0.6,0.2,0.8c0.2,0.2,0.4,0.5,0.4,0.8c-0.2-0.2-0.4-0.4-0.7-0.6c0.2,0.3,0.3,0.6,0.4,0.9
												c-0.5,0-0.9-0.1-1.4-0.4c0.2,0.6,0.1,1.3-0.3,1.8c0.2-0.6,0.1-1,0-1.1c-0.2,0.6-0.5,0.6-0.7,0.9c0.2-0.4,0.3-0.8,0.1-1.2
												c-0.2-0.3-0.5-0.4-0.7-0.7c-0.2-0.2-0.2-0.6-0.2-0.9c0-0.3,0.1-0.6,0.2-0.9c0.3-1.2,0.2-2.5-0.4-3.6L26.5,2z"/>
										</g>
									</g>
								</g>
							</g>
							<g>
								<g>
									<g>
										<g>
											<path fill="#F05640" d="M27.9,8.4C27.9,8.4,27.9,8.4,27.9,8.4c-0.1,0.1-0.1,0.2-0.1,0.2c0,0,0,0.1-0.1,0.1
												c0,0,0,0.1-0.1,0.2c0,0.1,0,0.1-0.1,0.2c0,0.1,0,0.1-0.1,0.2c0,0.1-0.1,0.3-0.1,0.5c0,0.1,0,0.2,0,0.3c0,0.1,0,0.2,0,0.3
												c0,0.2,0,0.4,0,0.6c0,0.2,0.1,0.4,0.1,0.6c0.1,0.2,0.1,0.4,0.2,0.5c0.1,0.2,0.2,0.3,0.4,0.4c0,0,0.1,0.1,0.1,0.1
												c0,0,0.1,0,0.1,0.1c0.1,0,0.2,0.1,0.2,0.1c0.2,0,0.3,0,0.4-0.1c0,0,0,0,0,0c0,0,0,0,0,0c0,0,0.1,0,0.1-0.1
												c0,0,0.1-0.1,0.1-0.1c0.1-0.1,0.1-0.2,0.1-0.3c0-0.1,0-0.1,0-0.2c0,0,0-0.1,0-0.1l0,0c0,0,0,0,0,0.1c0,0,0,0.1,0.1,0.2
												c0,0.1,0,0.2-0.1,0.3c0,0.1-0.1,0.1-0.1,0.2c0,0-0.1,0.1-0.1,0.1c0,0,0,0,0,0c0,0,0,0-0.1,0c-0.1,0.1-0.3,0.1-0.5,0.1
												c-0.1,0-0.2,0-0.3-0.1c0,0-0.1,0-0.1-0.1c0,0-0.1-0.1-0.1-0.1c-0.2-0.1-0.3-0.3-0.4-0.5c-0.1-0.2-0.2-0.4-0.2-0.5
												c-0.1-0.2-0.1-0.4-0.1-0.6c0-0.2,0-0.4,0-0.6c0-0.1,0-0.2,0-0.3c0-0.1,0-0.2,0-0.3c0-0.2,0.1-0.3,0.1-0.5
												c0-0.1,0-0.1,0.1-0.2c0-0.1,0-0.1,0.1-0.2c0-0.1,0-0.1,0.1-0.2c0,0,0-0.1,0.1-0.1C27.8,8.6,27.9,8.5,27.9,8.4
												C27.9,8.4,27.9,8.4,27.9,8.4L27.9,8.4z"/>
										</g>
									</g>
								</g>
								<g>
									<g>
										<g>
											<path fill="#F05640" d="M26.4,8.6C26.4,8.6,26.4,8.6,26.4,8.6c0,0.1,0.1,0.2,0.1,0.3c0,0.1,0,0.2,0,0.3
												c0,0.1,0,0.3,0,0.4c0,0.2-0.1,0.3-0.1,0.5c0,0.2-0.1,0.4-0.1,0.5c0,0.2-0.1,0.4-0.1,0.6c0,0.2,0,0.4,0.1,0.6
												c0.1,0.2,0.2,0.4,0.3,0.6c0.1,0.2,0.2,0.4,0.3,0.6c0.1,0.2,0.1,0.4,0.1,0.6c0,0.2,0,0.4-0.1,0.5
												c-0.1,0.2-0.2,0.3-0.3,0.4c-0.1,0.1-0.2,0.1-0.3,0.1c-0.1,0-0.2,0-0.2,0c0,0-0.1,0-0.1,0l0,0c0,0,0,0,0.1,0
												c0,0,0.1,0,0.2,0c0.1,0,0.2-0.1,0.3-0.2c0,0,0.1-0.1,0.1-0.1c0,0,0-0.1,0.1-0.1c0,0,0-0.1,0-0.1c0.1-0.1,0.1-0.3,0.1-0.5
												c0-0.2-0.1-0.4-0.1-0.5c-0.1-0.2-0.2-0.4-0.3-0.5c-0.1-0.2-0.2-0.4-0.2-0.6C26,11.7,26,11.5,26,11.3
												c0-0.2,0.1-0.4,0.1-0.6c0.1-0.2,0.1-0.4,0.2-0.5c0.1-0.2,0.1-0.3,0.1-0.5c0-0.2,0-0.3,0-0.4c0-0.1,0-0.2,0-0.3
												C26.4,8.8,26.4,8.7,26.4,8.6C26.4,8.6,26.4,8.6,26.4,8.6L26.4,8.6z"/>
										</g>
									</g>
								</g>
							</g>
							<g>
								<g>
									<path fill="#425A6B" d="M27.9,2.5"/>
								</g>
							</g>
						</g>
						<g>
							<g>
								<g>
									<g>
										<path fill="#FFD15C" d="M23.7,3.6c0,0-0.3,2.1,0.3,2.8c0.6,0.7,1.1,1.1,1.2,1.2c0.1,0.1,0.6,0.4,1-0.3
											c0,0,1.3-0.8,1.3-2.2c0,0,0.1-0.2,0-0.3c0,0,0.2-0.1,0.2-0.3c0,0,0.6-1.7-1.1-2.1C24.9,1.9,23.7,3.6,23.7,3.6z"/>
									</g>
								</g>
							</g>
							<g>
								<g>
									<g>
										<path fill="#F26F5A" d="M27.1,2.3h-0.7c0.6,0.5,1.7,1.1,1.4,2.8c-0.3,1.7,0.6,1.6,0.6,1.6L28.6,4
											C28.6,4,28.1,2.8,27.1,2.3z"/>
									</g>
								</g>
							</g>
							<g>
								<g>
									<g>
										<path fill="#F05640" d="M27.6,4.9C27.6,4.9,27.6,4.9,27.6,4.9c0.1,0.1,0.1,0.2,0.2,0.3c0.1,0.1,0.1,0.2,0.2,0.4
											C28,5.6,28.1,5.8,28.1,6c0.1,0.4,0.1,0.8-0.1,1.3c-0.1,0.4-0.4,0.9-0.6,1.3c0,0.1,0,0.1-0.1,0.2l-0.1,0.2
											c0,0.1-0.1,0.2-0.1,0.4c0,0.2-0.1,0.5-0.1,0.7c0,0.2,0,0.4,0,0.7c0,0.1,0,0.1,0,0.2c0,0,0,0.1,0,0.1c0,0.1,0,0.2,0.1,0.3
											c0,0.1,0.1,0.2,0.1,0.2c0,0.1,0.1,0.2,0.1,0.2c0.1,0.1,0.1,0.3,0.2,0.3c0,0.1,0.1,0.2,0.1,0.2c0,0,0,0.1,0,0.1l0,0
											c0,0,0,0-0.1-0.1c0,0-0.1-0.1-0.1-0.2c-0.1-0.1-0.1-0.2-0.2-0.3c0-0.1-0.1-0.1-0.1-0.2c0-0.1-0.1-0.2-0.1-0.3
											c0-0.1-0.1-0.2-0.1-0.3c0,0,0-0.1,0-0.1c0-0.1,0-0.1,0-0.2c0-0.2-0.1-0.4-0.1-0.7c0-0.2,0-0.5,0.1-0.7
											c0-0.1,0.1-0.2,0.1-0.4l0.1-0.2c0-0.1,0-0.1,0.1-0.2c0.2-0.5,0.4-0.9,0.6-1.3C28,7,28.1,6.8,28.1,6.6c0-0.2,0-0.4,0-0.6
											C28,5.8,28,5.6,28,5.5c-0.1-0.1-0.1-0.3-0.2-0.4C27.7,5.1,27.7,5,27.6,4.9C27.6,4.9,27.6,4.9,27.6,4.9L27.6,4.9z"/>
									</g>
								</g>
							</g>
							<g>
								<g>
									<g>
										<path fill="#F26F5A" d="M26.6,2.3C26.6,2.3,26.6,2.3,26.6,2.3c0.1,0.1,0.1,0.1,0.2,0.2c0.1,0.1,0.3,0.3,0.4,0.5
											c0.1,0.2,0.2,0.4,0.3,0.6c0.1,0.2,0.1,0.3,0.1,0.3s0-0.1-0.1-0.3c-0.1-0.2-0.2-0.4-0.3-0.5c-0.1-0.2-0.3-0.3-0.4-0.5
											c-0.1-0.1-0.1-0.1-0.2-0.1C26.6,2.4,26.6,2.3,26.6,2.3L26.6,2.3z"/>
									</g>
								</g>
							</g>
							<g>
								<g>
									<g>
										<g>
											<g>
												<path fill="#F26F5A" d="M24.1,5.2C23.4,6.1,23,7.2,23,8.3c-0.4-0.5-0.3-2.3-0.4-3.8c0.7-0.4,1.4-0.7,2.1-1.1
													c0,0,0,0,0,0c0,0,1.6-1.3,2.2-1C26.9,2.4,25.3,4.3,24.1,5.2z"/>
											</g>
										</g>
									</g>
									<g>
										<g>
											<g>
												<path fill="#F26F5A" d="M22.4,8.3c0,0,0,0.1,0,0.2c0,0,0,0.1,0,0.2c0,0.1,0,0.1,0,0.2c0,0.2,0,0.4,0,0.6
													c0,0.2-0.1,0.4-0.2,0.6c-0.1,0.1-0.1,0.2-0.2,0.3c-0.1,0.1-0.1,0.2-0.2,0.2c-0.1,0.1-0.1,0.2-0.1,0.3c0,0.1,0,0.2,0,0.3
													c0,0.2,0.1,0.3,0.1,0.4c0,0.1,0.1,0.1,0.1,0.1s0,0-0.1-0.1c0-0.1-0.1-0.2-0.1-0.4c0-0.1,0-0.2,0-0.3
													c0-0.1,0.1-0.2,0.1-0.3c0.1-0.1,0.1-0.2,0.2-0.2c0.1-0.1,0.1-0.2,0.2-0.3c0.1-0.2,0.2-0.4,0.2-0.6c0-0.2,0-0.4,0-0.6
													c0-0.1,0-0.2,0-0.2c0-0.1,0-0.1,0-0.2c0-0.1,0-0.2,0-0.2L22.4,8.3z"/>
											</g>
										</g>
									</g>
								</g>
								<g>
									<g>
										<g>
											<path fill="#F26F5A" d="M25.2,3.8c0,0-0.2,0.3-0.5,0.8c-0.1,0.2-0.3,0.5-0.5,0.8c-0.2,0.3-0.4,0.6-0.6,0.9
												c-0.1,0.2-0.2,0.3-0.2,0.5c-0.1,0.2-0.1,0.3-0.2,0.5c0,0.2-0.1,0.3-0.1,0.5c0,0.2,0,0.3,0,0.4c0,0.1,0,0.3,0.1,0.4
												c0.1,0.1,0.1,0.2,0.2,0.2c0.1,0,0.1,0.1,0.2,0.1c0,0,0.1,0,0.1,0s0,0-0.1,0c0,0-0.1,0-0.2-0.1c-0.1,0-0.2-0.1-0.2-0.2
												c-0.1-0.1-0.1-0.2-0.1-0.4c0-0.1,0-0.3,0-0.5c0-0.2,0-0.3,0.1-0.5c0-0.2,0.1-0.3,0.2-0.5c0.1-0.2,0.1-0.3,0.2-0.5
												c0.2-0.3,0.4-0.6,0.5-0.9c0.2-0.3,0.3-0.6,0.5-0.8C24.8,4,25,3.7,25,3.7L25.2,3.8z"/>
										</g>
									</g>
								</g>
								<g>
									<g>
										<g>
											<path fill="#F26F5A" d="M22.8,7.4c0,0,0,0.1,0,0.2c0,0.1,0,0.3,0,0.5c0,0.2,0.1,0.5,0.1,0.8c0.1,0.3,0.2,0.6,0.3,0.9
												c0.1,0.3,0.2,0.6,0.3,0.9c0.1,0.3,0.1,0.6,0,0.8c-0.1,0.2-0.2,0.4-0.3,0.5c0,0-0.1,0.1-0.1,0.1c0,0,0,0,0,0s0,0,0,0
												c0,0,0.1-0.1,0.1-0.1c0.1-0.1,0.2-0.3,0.2-0.5c0.1-0.2,0.1-0.5,0-0.8c-0.1-0.3-0.2-0.6-0.3-0.9c-0.1-0.3-0.3-0.6-0.3-0.9
												c-0.1-0.3-0.1-0.6-0.2-0.8c0-0.2,0-0.4,0-0.6c0-0.1,0-0.2,0-0.2L22.8,7.4z"/>
										</g>
									</g>
								</g>
								<g>
									<g>
										<g>
											<path fill="#F26F5A" d="M22.7,7.3c0,0.6,0.2,1.2,0.4,1.7c0.2,0.6,0.3,1.2,0,1.7c-0.1,0.2-0.3,0.4-0.4,0.6
												c-0.1,0.2-0.2,0.4-0.2,0.6c-0.2-0.5-0.1-1,0.2-1.4c-0.1,0.2-0.3,0.3-0.4,0.4c-0.3,0.4-0.2,1,0.1,1.4
												c-0.5-0.2-0.8-0.9-0.7-1.4c0.1-0.2,0.2-0.4,0.3-0.6c0.3-0.5,0.3-1.1,0.2-1.6c-0.1-0.6-0.3-1.1-0.7-1.5"/>
										</g>
									</g>
								</g>
								<g>
									<g>
										<g>
											<path fill="#F26F5A" d="M23.9,3.9c-0.8,0.1-1.5,0.5-2,1.1c-0.5,0.6-0.7,1.4-0.6,2.2c0,0.4,0.2,0.8,0.2,1.2
												c0,0.4-0.1,0.9-0.4,1.1c0.7-0.1,1.3-0.8,1.2-1.6c0,0.4-0.2,0.9-0.5,1.2c-0.2,0.2-0.5,0.3-0.6,0.5c-0.2,0.3-0.4,0.6-0.4,1
												c0,0.4,0.1,0.8,0.3,1.1c-0.2-0.4,0-0.9,0.3-1.2c0.3-0.3,0.6-0.6,0.8-1c0.3-0.6,0.2-1.3,0.4-2c0-0.2,0.1-0.4,0.2-0.6
												c0.4-1,0.8-1.9,1.3-2.7"/>
										</g>
									</g>
								</g>
							</g>
						</g>
						<g>
							<g>
								<g>
									<path fill="#344A5E" d="M22.9,3.5v-1c0-0.8,0.4-1.6,1.1-2.1c0,0,0.1,0,0.1-0.1c0.6-0.4,1.3-0.5,2-0.3
										c0.8,0.2,1.9,0.8,2.1,2.4l-2.5,0L22.9,3.5z"/>
								</g>
							</g>
						</g>
						<g>
							<g>
								<g>
									<path fill="#425A6B" d="M20.3,4.6c0,0,0.4-0.3,0.8-0.1c0.4,0.2,2.1,0.8,2.9,0.1c0.7-0.7,1.9-2.2,3.1-2.2c0.1,0,0.1,0,0.2,0
										c0.3,0,1,0.2,1.4,0.4c0,0-0.5-0.3-0.6-0.4c0,0-0.8-0.8-2.5-0.2c0,0-1.6,0.6-2.4,0.9c-0.4,0.1-0.7,0.3-1.1,0.5
										C21.5,3.9,20.5,4.4,20.3,4.6z"/>
								</g>
							</g>
						</g>
					</g>
					<g>
						<g>
							<g>
								<path fill="#425A6B" d="M22.4,14.8c0,0,0,5,0.1,6.4c0,1.1-0.3,2.3-1.2,3c-0.1,0-0.1,0.1-0.1,0.2c-0.2,0.7-0.5,0.8-0.9,0.5
									c-0.4-0.3-0.6,1.7-0.6,1.7L19.3,23L22.4,14.8z"/>
							</g>
						</g>
					</g>
				</g>
			</g>
			<g>
				<g>
					<g>
						<path fill="#425A6B" d="M23.5,41.6c0,0-0.3,0.1,0.2,0.2c0.6,0.1,1.3,0,1.4-0.1c0,0,0,1.2-0.1,1.4c0,0,0.4,0.9,0.1,1.4
							c-0.3,0.5-0.4,0.8-0.4,1.2c0,0.4,0.1,1.2,0,1.4c0,0.2-0.3,0.9-1.1,0.9c-0.8-0.1-1.5-0.1-1.6-0.4c-0.2-0.4-0.1-1.2,0.1-1.5
							c0.2-0.3,0.4-1.2,0.4-1.7c0-0.4,0.2-1.4,0.2-1.4S22.9,41.6,23.5,41.6z"/>
					</g>
				</g>
			</g>
		</g>
	</g>
</g>
</svg>
