<?xml version="1.0" encoding="utf-8"?>
<!-- Generator: Adobe Illustrator 18.0.0, SVG Export Plug-In . SVG Version: 6.00 Build 0)  -->
<!DOCTYPE svg PUBLIC "-//W3C//DTD SVG 1.1//EN" "http://www.w3.org/Graphics/SVG/1.1/DTD/svg11.dtd">
<svg version="1.1" id="Layer_1" xmlns="http://www.w3.org/2000/svg" xmlns:xlink="http://www.w3.org/1999/xlink" x="0px" y="0px"
	 viewBox="0 0 48 48" enable-background="new 0 0 48 48" xml:space="preserve">
<g>
	<g>
		<g>
			<path fill="#F2F2F2" d="M24,7c-1.9,0-3.5-1.6-3.5-3.5S22.1,0,24,0s3.5,1.6,3.5,3.5S25.9,7,24,7z M24,1c-1.4,0-2.5,1.1-2.5,2.5
				S22.6,6,24,6c1.4,0,2.5-1.1,2.5-2.5S25.4,1,24,1z"/>
		</g>
	</g>
	<path fill="#334A5E" d="M24,4.3c-0.7,0-1.3,0.6-1.3,1.3V8h2.6V5.7C25.3,4.9,24.7,4.3,24,4.3z"/>
	<circle fill="#84DBFF" cx="24" cy="27.3" r="20.7"/>
	<path fill="#FFFFFF" d="M24,10.1c-9.5,0-17.2,7.7-17.2,17.2S14.5,44.5,24,44.5s17.2-7.7,17.2-17.2S33.5,10.1,24,10.1z"/>
	<g>
		<g>
			<g>
				<g>
					<rect x="23.7" y="12.1" fill="#CDD6E0" width="0.7" height="3"/>
				</g>
			</g>
			<g>
				<g>
					<rect x="23.7" y="39.5" fill="#CDD6E0" width="0.7" height="3"/>
				</g>
			</g>
		</g>
		<g>
			<g>
				<g>
					
						<rect x="21.1" y="12.3" transform="matrix(0.9848 -0.1736 0.1736 0.9848 -1.9399 3.9284)" fill="#CDD6E0" width="0.7" height="1.5"/>
				</g>
			</g>
			<g>
				<g>
					
						<rect x="26.2" y="40.9" transform="matrix(0.9848 -0.1736 0.1736 0.9848 -6.8253 5.2374)" fill="#CDD6E0" width="0.7" height="1.5"/>
				</g>
			</g>
		</g>
		<g>
			<g>
				<g>
					
						<rect x="18.7" y="13" transform="matrix(0.9397 -0.342 0.342 0.9397 -3.5394 7.3379)" fill="#CDD6E0" width="0.7" height="1.5"/>
				</g>
			</g>
			<g>
				<g>
					
						<rect x="28.6" y="40.2" transform="matrix(0.9397 -0.342 0.342 0.9397 -12.2663 12.3764)" fill="#CDD6E0" width="0.7" height="1.5"/>
				</g>
			</g>
		</g>
		<g>
			<g>
				<g>
					
						<rect x="14.3" y="15.5" transform="matrix(0.766 -0.6428 0.6428 0.766 -6.9957 13.2285)" fill="#CDD6E0" width="0.7" height="1.5"/>
				</g>
			</g>
			<g>
				<g>
					
						<rect x="33" y="37.7" transform="matrix(0.766 -0.6428 0.6428 0.766 -16.9197 30.4172)" fill="#CDD6E0" width="0.7" height="1.5"/>
				</g>
			</g>
		</g>
		<g>
			<g>
				<g>
					
						<rect x="12.6" y="17.3" transform="matrix(0.6428 -0.766 0.766 0.6428 -9.1954 16.3059)" fill="#CDD6E0" width="0.7" height="1.5"/>
				</g>
			</g>
			<g>
				<g>
					
						<rect x="34.8" y="35.9" transform="matrix(0.6428 -0.766 0.766 0.6428 -15.5429 39.9953)" fill="#CDD6E0" width="0.7" height="1.5"/>
				</g>
			</g>
		</g>
		<g>
			<g>
				<g>
					
						<rect x="10" y="21.6" transform="matrix(0.342 -0.9397 0.9397 0.342 -14.2054 24.465)" fill="#CDD6E0" width="0.7" height="1.5"/>
				</g>
			</g>
			<g>
				<g>
					
						<rect x="37.3" y="31.6" transform="matrix(0.342 -0.9397 0.9397 0.342 -5.5905 56.6162)" fill="#CDD6E0" width="0.7" height="1.5"/>
				</g>
			</g>
		</g>
		<g>
			<g>
				<g>
					
						<rect x="9.4" y="24.1" transform="matrix(0.1736 -0.9848 0.9848 0.1736 -16.4158 30.0742)" fill="#CDD6E0" width="0.7" height="1.5"/>
				</g>
			</g>
			<g>
				<g>
					
						<rect x="38" y="29.1" transform="matrix(0.1736 -0.9848 0.9848 0.1736 2.235 62.3784)" fill="#CDD6E0" width="0.7" height="1.5"/>
				</g>
			</g>
		</g>
		<g>
			<g>
				<g>
					
						<rect x="9.4" y="29.1" transform="matrix(-0.1736 -0.9848 0.9848 -0.1736 -18.0047 44.6071)" fill="#CDD6E0" width="0.7" height="1.5"/>
				</g>
			</g>
			<g>
				<g>
					
						<rect x="38" y="24.1" transform="matrix(-0.1736 -0.9848 0.9848 -0.1736 20.494 66.8344)" fill="#CDD6E0" width="0.7" height="1.5"/>
				</g>
			</g>
		</g>
		<g>
			<g>
				<g>
					
						<rect x="10" y="31.6" transform="matrix(-0.342 -0.9397 0.9397 -0.342 -16.4394 53.0893)" fill="#CDD6E0" width="0.7" height="1.5"/>
				</g>
			</g>
			<g>
				<g>
					
						<rect x="37.3" y="21.6" transform="matrix(-0.342 -0.9397 0.9397 -0.342 29.4772 65.3926)" fill="#CDD6E0" width="0.7" height="1.5"/>
				</g>
			</g>
		</g>
		<g>
			<g>
				<g>
					
						<rect x="12.6" y="35.9" transform="matrix(-0.6428 -0.766 0.766 -0.6428 -6.9165 70.102)" fill="#CDD6E0" width="0.7" height="1.5"/>
				</g>
			</g>
			<g>
				<g>
					
						<rect x="34.8" y="17.3" transform="matrix(-0.6428 -0.766 0.766 -0.6428 43.8855 56.4897)" fill="#CDD6E0" width="0.7" height="1.5"/>
				</g>
			</g>
		</g>
		<g>
			<g>
				<g>
					
						<rect x="14.3" y="37.7" transform="matrix(-0.766 -0.6428 0.6428 -0.766 1.1995 77.3402)" fill="#CDD6E0" width="0.7" height="1.5"/>
				</g>
			</g>
			<g>
				<g>
					
						<rect x="33" y="15.5" transform="matrix(-0.766 -0.6428 0.6428 -0.766 48.4251 50.0745)" fill="#CDD6E0" width="0.7" height="1.5"/>
				</g>
			</g>
		</g>
		<g>
			<g>
				<g>
					
						<rect x="18.7" y="40.2" transform="matrix(-0.9397 -0.342 0.342 -0.9397 22.9149 85.9827)" fill="#CDD6E0" width="0.7" height="1.5"/>
				</g>
			</g>
			<g>
				<g>
					
						<rect x="28.6" y="13" transform="matrix(-0.9397 -0.342 0.342 -0.9397 51.4896 36.4897)" fill="#CDD6E0" width="0.7" height="1.5"/>
				</g>
			</g>
		</g>
		<g>
			<g>
				<g>
					
						<rect x="21.1" y="40.9" transform="matrix(-0.9848 -0.1736 0.1736 -0.9848 35.4068 86.3489)" fill="#CDD6E0" width="0.7" height="1.5"/>
				</g>
			</g>
			<g>
				<g>
					
						<rect x="26.2" y="12.3" transform="matrix(-0.9848 -0.1736 0.1736 -0.9848 50.3692 30.5084)" fill="#CDD6E0" width="0.7" height="1.5"/>
				</g>
			</g>
		</g>
		<g>
			<g>
				<g>
					<rect x="16.8" y="13.9" transform="matrix(0.866 -0.5 0.5 0.866 -5.4292 10.6357)" fill="#CDD6E0" width="0.7" height="3"/>
				</g>
			</g>
			<g>
				<g>
					<rect x="30.5" y="37.7" transform="matrix(0.866 -0.5 0.5 0.866 -15.4764 20.6829)" fill="#CDD6E0" width="0.7" height="3"/>
				</g>
			</g>
		</g>
		<g>
			<g>
				<g>
					<rect x="11.8" y="19" transform="matrix(0.5 -0.866 0.866 0.5 -11.6789 20.7165)" fill="#CDD6E0" width="0.7" height="3"/>
				</g>
			</g>
			<g>
				<g>
					<rect x="35.5" y="32.7" transform="matrix(0.5 -0.866 0.866 0.5 -11.6789 48.166)" fill="#CDD6E0" width="0.7" height="3"/>
				</g>
			</g>
		</g>
		<g>
			<g>
				<g>
					<rect x="8.7" y="27" fill="#CDD6E0" width="3" height="0.7"/>
				</g>
			</g>
			<g>
				<g>
					<rect x="36.2" y="27" fill="#CDD6E0" width="3" height="0.7"/>
				</g>
			</g>
		</g>
		<g>
			<g>
				<g>
					<rect x="11.8" y="32.7" transform="matrix(-0.5 -0.866 0.866 -0.5 -11.4851 61.7819)" fill="#CDD6E0" width="0.7" height="3"/>
				</g>
			</g>
			<g>
				<g>
					<rect x="35.5" y="19" transform="matrix(-0.5 -0.866 0.866 -0.5 36.0588 61.7819)" fill="#CDD6E0" width="0.7" height="3"/>
				</g>
			</g>
		</g>
		<g>
			<g>
				<g>
					<rect x="16.8" y="37.7" transform="matrix(-0.866 -0.5 0.5 -0.866 12.3205 81.7748)" fill="#CDD6E0" width="0.7" height="3"/>
				</g>
			</g>
			<g>
				<g>
					<rect x="30.5" y="13.9" transform="matrix(-0.866 -0.5 0.5 -0.866 49.8172 44.278)" fill="#CDD6E0" width="0.7" height="3"/>
				</g>
			</g>
		</g>
	</g>
	<g>
		<g>
			<polygon fill="#FF7058" points="24,16.3 22.2,25.7 25.8,25.7 			"/>
		</g>
	</g>
	<circle fill="#334A5E" cx="24" cy="27.3" r="3.6"/>
	<g>
		<circle fill="#FFFFFF" cx="24" cy="27.3" r="1.8"/>
	</g>
</g>
</svg>
