<?xml version="1.0" encoding="utf-8"?>
<!-- Generator: Adobe Illustrator 18.0.0, SVG Export Plug-In . SVG Version: 6.00 Build 0)  -->
<!DOCTYPE svg PUBLIC "-//W3C//DTD SVG 1.1//EN" "http://www.w3.org/Graphics/SVG/1.1/DTD/svg11.dtd">
<svg version="1.1" id="Layer_1" xmlns="http://www.w3.org/2000/svg" xmlns:xlink="http://www.w3.org/1999/xlink" x="0px" y="0px"
	 viewBox="0 0 48 48" enable-background="new 0 0 48 48" xml:space="preserve">
<g>
	<path fill="#334A5E" d="M38,26.8c-9.2,2.4-18.8,2.4-28,0c0-4.8,0-9.6,0-14.3c9.2-2.4,18.8-2.4,28,0C38,17.2,38,22,38,26.8z"/>
	<g>
		<path fill="#40596B" d="M12.1,10.4c4.7,1.3,7.1,6.5,5,10.9l-5.3,13.1c-1.3,2.7-4.3,4-7.2,3.2c-2.9-0.8-4.8-3.5-4.6-6.4l2.1-14
			C2.6,12.4,7.4,9.1,12.1,10.4z"/>
		<circle fill="#40596B" cx="17.6" cy="26.1" r="5.6"/>
		<circle fill="#4CDBC4" cx="17.6" cy="26.1" r="3.9"/>
		<circle fill="#334A5E" cx="10" cy="18" r="5.7"/>
		<g>
			<polygon fill="#4CDBC4" points="10,17.2 11,16.2 11,14 9,14 9,16.2 			"/>
			<polygon fill="#4CDBC4" points="9.2,18 8.2,17 6,17 6,18.9 8.2,18.9 			"/>
			<polygon fill="#4CDBC4" points="10,18.7 9,19.7 9,21.9 11,21.9 11,19.7 			"/>
			<polygon fill="#4CDBC4" points="11.7,17 10.7,18 11.7,18.9 13.9,18.9 13.9,17 			"/>
		</g>
		<path opacity="0.1" fill="#231F20" d="M14.4,26.8c0-2.2,1.8-3.9,3.9-3.9c0.9,0,1.7,0.3,2.4,0.8c-0.7-0.9-1.8-1.5-3.1-1.5
			c-2.2,0-3.9,1.8-3.9,3.9c0,1.3,0.6,2.4,1.5,3.1C14.7,28.6,14.4,27.7,14.4,26.8z"/>
		<path opacity="0.1" fill="#231F20" d="M5.3,19.1c0-3.2,2.6-5.8,5.8-5.8c1.3,0,2.6,0.5,3.5,1.2c-1.1-1.4-2.7-2.3-4.6-2.3
			c-3.2,0-5.8,2.6-5.8,5.8c0,1.9,0.9,3.5,2.3,4.6C5.8,21.6,5.3,20.4,5.3,19.1z"/>
	</g>
	<g>
		<path fill="#40596B" d="M35.9,10.4c-4.7,1.3-7.1,6.5-5,10.9l5.3,13.1c1.3,2.7,4.3,4,7.2,3.2c2.9-0.8,4.8-3.5,4.6-6.4l-2.1-14
			C45.4,12.4,40.6,9.1,35.9,10.4z"/>
		<circle fill="#40596B" cx="30.4" cy="26.1" r="5.6"/>
		<circle fill="#4CDBC4" cx="30.4" cy="26.1" r="3.9"/>
		<circle fill="#334A5E" cx="38" cy="18" r="5.7"/>
		<g>
			<circle fill="#F8B64C" cx="38" cy="14.9" r="1.2"/>
			<circle fill="#FFD15C" cx="38" cy="21" r="1.2"/>
			<circle fill="#FF7058" cx="41.1" cy="18" r="1.2"/>
			<circle fill="#FF7058" cx="34.9" cy="18" r="1.2"/>
		</g>
		<path opacity="0.1" fill="#231F20" d="M27.1,26.8c0-2.2,1.8-3.9,3.9-3.9c0.9,0,1.7,0.3,2.4,0.8c-0.7-0.9-1.8-1.5-3.1-1.5
			c-2.2,0-3.9,1.8-3.9,3.9c0,1.3,0.6,2.4,1.5,3.1C27.5,28.6,27.1,27.7,27.1,26.8z"/>
		<path opacity="0.1" fill="#231F20" d="M33.3,19.1c0-3.2,2.6-5.8,5.8-5.8c1.3,0,2.6,0.5,3.5,1.2c-1.1-1.4-2.7-2.3-4.6-2.3
			c-3.2,0-5.8,2.6-5.8,5.8c0,1.9,0.9,3.5,2.3,4.6C33.8,21.6,33.3,20.4,33.3,19.1z"/>
	</g>
	<g>
		<path fill="#CDD6E0" d="M22,14.7h-1.7c-0.3,0-0.6,0.3-0.6,0.6S20,16,20.3,16H22c0.3,0,0.6-0.3,0.6-0.6S22.3,14.7,22,14.7z"/>
		<path fill="#CDD6E0" d="M27.7,14.7H26c-0.3,0-0.6,0.3-0.6,0.6S25.7,16,26,16h1.7c0.3,0,0.6-0.3,0.6-0.6S28,14.7,27.7,14.7z"/>
	</g>
</g>
</svg>
