<?xml version="1.0" encoding="utf-8"?>
<!-- Generator: Adobe Illustrator 18.0.0, SVG Export Plug-In . SVG Version: 6.00 Build 0)  -->
<!DOCTYPE svg PUBLIC "-//W3C//DTD SVG 1.1//EN" "http://www.w3.org/Graphics/SVG/1.1/DTD/svg11.dtd">
<svg version="1.1" id="Layer_1" xmlns="http://www.w3.org/2000/svg" xmlns:xlink="http://www.w3.org/1999/xlink" x="0px" y="0px"
	 viewBox="0 0 48 48" enable-background="new 0 0 48 48" xml:space="preserve">
<g>
	<g>
		<g>
			<g>
				<path fill="#F3705A" d="M10.7,45.3h26.6v-21l4,6.3l6.7-4.9L39.3,9C29.7,5.1,19.5,5.1,8.7,9L0,25.7l6.7,4.9l4-6.3V45.3z"/>
			</g>
			<g>
				<g>
					<polygon fill="#CED6E0" points="18.7,5.8 24,11.7 29.1,5.8 					"/>
				</g>
				<g>
					<polygon fill="#344A5E" points="32.1,6.1 30,2.7 18,2.7 15.9,6.1 					"/>
				</g>
				<g>
					<polyline fill="#415A6B" points="30,2.7 24,11.7 28.6,16.9 32.1,6.1 					"/>
				</g>
				<g>
					<polyline fill="#415A6B" points="18,2.7 24,11.7 19.4,16.9 15.9,6.1 					"/>
				</g>
			</g>
		</g>
	</g>
	<g>
		<g>
			<circle fill="#415A6B" cx="23.9" cy="15.8" r="0.9"/>
		</g>
		<g>
			<circle fill="#415A6B" cx="23.9" cy="20.6" r="0.9"/>
		</g>
		<g>
			<circle fill="#415A6B" cx="23.9" cy="25.4" r="0.9"/>
		</g>
	</g>
</g>
</svg>
