<?xml version="1.0" encoding="utf-8"?>
<!-- Generator: Adobe Illustrator 20.1.0, SVG Export Plug-In . SVG Version: 6.00 Build 0)  -->
<!DOCTYPE svg PUBLIC "-//W3C//DTD SVG 1.1//EN" "http://www.w3.org/Graphics/SVG/1.1/DTD/svg11.dtd">
<svg version="1.1" id="Layer_1" xmlns="http://www.w3.org/2000/svg" xmlns:xlink="http://www.w3.org/1999/xlink" x="0px" y="0px"
	 viewBox="0 0 49 49" enable-background="new 0 0 49 49" xml:space="preserve">
<g>
	<path fill="#FFD15C" d="M29.4,11h-9.8c-1.1,0-2,0.9-2,2v5.2h13.8V13C31.4,11.9,30.5,11,29.4,11z"/>
	<path fill="#FF7058" d="M34.4,16.8L34.4,16.8c-1.3-1.3-3-2-4.8-2H19.5c-1.8,0-3.5,0.7-4.8,2l-0.1,0.1c-1.3,1.3-2,3-2,4.8v24.9
		c0,1.1,0.9,2,2,2h19.7c1.1,0,2-0.9,2-2V21.6C36.3,19.8,35.6,18.1,34.4,16.8z"/>
	<polygon fill="#40596B" points="24.2,0.5 22.3,11 26.7,11 24.8,0.5 	"/>
	<path fill="#FFFFFF" d="M31.5,39.6H17.5c0,0-2.5-11.6,0-14.1c2.5-2.5,11.6-2.5,14.1,0C34,28,31.5,39.6,31.5,39.6z"/>
	<ellipse fill="#4CDBC4" cx="24.5" cy="32.9" rx="4" ry="3.4"/>
	<path fill="#4CDBC4" d="M26.8,27.8l-0.2,0c-0.4,0-0.8,0.2-1.2,0.5c-0.1-0.4-0.3-0.8-0.6-1.1L24.6,27l-0.2,0.2
		c-0.3,0.3-0.5,0.7-0.6,1.1c-0.3-0.3-0.7-0.4-1.2-0.5l-0.2,0l0,0.2c-0.1,1.2,0.8,2.3,2,2.4l0.2,0h0l0.2,0c1.2-0.1,2.1-1.2,2-2.4
		L26.8,27.8z"/>
</g>
</svg>
