<?xml version="1.0" encoding="utf-8"?>
<!-- Generator: Adobe Illustrator 16.0.0, SVG Export Plug-In . SVG Version: 6.00 Build 0)  -->
<!DOCTYPE svg PUBLIC "-//W3C//DTD SVG 1.1//EN" "http://www.w3.org/Graphics/SVG/1.1/DTD/svg11.dtd">
<svg version="1.1" id="Layer_1" xmlns="http://www.w3.org/2000/svg" xmlns:xlink="http://www.w3.org/1999/xlink" x="0px" y="0px"
	 width="48px" height="48px" viewBox="0 0 48 48" enable-background="new 0 0 48 48" xml:space="preserve">
<g>
	<path fill="#E7E9E8" d="M16.23,44.05L16.23,44.05c0,0.928,0.752,1.68,1.681,1.68h25.157c0.929,0,1.681-0.752,1.681-1.68
		s-0.752-1.68-1.681-1.68H17.911C16.982,42.37,16.23,43.122,16.23,44.05"/>
	<rect x="27.285" y="19.948" fill="#E7E9E8" width="6.41" height="23.903"/>
	<rect x="25.805" y="20.528" fill="#334A5E" width="9.368" height="3.852"/>
	<path fill="#40596B" d="M21.683,17.513v0.033c0,2.369,3.943,4.289,8.807,4.289s8.807-1.92,8.807-4.289v-0.033H21.683z"/>
	<path fill="#CDD5DF" d="M34.439,44.05c0,2.182-1.768,3.95-3.949,3.95s-3.951-1.769-3.951-3.95c0-2.181,1.77-3.949,3.951-3.949
		S34.439,41.869,34.439,44.05"/>
	<path fill="#FFD15C" d="M39.296,7.334L39.296,7.334c0-4.05-3.285-7.334-7.334-7.334H21.169C11.274,0,3.251,8.022,3.251,17.919
		s8.022,17.919,17.918,17.919h15.189v-7.334H21.169c-5.846,0-10.584-4.739-10.584-10.585S15.324,7.334,21.169,7.334H39.296z"/>
	<path fill="#F6B44B" d="M23.953,28.422v7.499c0,0.746,0.605,1.352,1.352,1.352h10.371c0.746,0,1.351-0.605,1.351-1.352v-7.499
		c0-0.746-0.604-1.351-1.351-1.351H25.304C24.558,27.071,23.953,27.676,23.953,28.422"/>
	<rect x="21.17" y="7.335" fill="#40596B" width="18.126" height="3.67"/>
</g>
</svg>
