<?xml version="1.0" encoding="utf-8"?>
<!-- Generator: Adobe Illustrator 18.0.0, SVG Export Plug-In . SVG Version: 6.00 Build 0)  -->
<!DOCTYPE svg PUBLIC "-//W3C//DTD SVG 1.1//EN" "http://www.w3.org/Graphics/SVG/1.1/DTD/svg11.dtd">
<svg version="1.1" id="Layer_1" xmlns="http://www.w3.org/2000/svg" xmlns:xlink="http://www.w3.org/1999/xlink" x="0px" y="0px"
	 viewBox="0 0 48 48" enable-background="new 0 0 48 48" xml:space="preserve">
<g>
	<g>
		<path fill="#CDD6E0" d="M35.7,12.2H12.3L13.9,6c0.6-2.2,2.6-3.8,4.9-3.8h10.5c2.3,0,4.3,1.6,4.9,3.8L35.7,12.2z M16.2,9.2h15.7
			l-0.6-2.4c-0.2-0.9-1-1.5-2-1.5H18.7c-0.9,0-1.7,0.6-2,1.5L16.2,9.2z"/>
	</g>
	<path fill="#F8B64C" d="M43.3,45.8H4.7c-1.1,0-2-0.9-2-2V19.4h42.7v24.3C45.3,44.9,44.4,45.8,43.3,45.8z"/>
	<path fill="#FFD15C" d="M46,8.7H2c-1.1,0-2,0.9-2,2v8.8h48v-8.8C48,9.6,47.1,8.7,46,8.7z"/>
	<g>
		<g>
			<rect x="9.1" y="19.4" fill="#FF7058" width="5.5" height="4.8"/>
			<path fill="#40596B" d="M11.9,27.6L11.9,27.6c-1.8,0-3.3-1.5-3.3-3.3V22h6.7v2.3C15.2,26.1,13.7,27.6,11.9,27.6z"/>
			<circle fill="#CDD6E0" cx="11.9" cy="24.5" r="1.4"/>
		</g>
		<g>
			<rect x="33.4" y="19.4" fill="#FF7058" width="5.5" height="4.8"/>
			<path fill="#40596B" d="M36.1,27.6L36.1,27.6c-1.8,0-3.3-1.5-3.3-3.3V22h6.7v2.3C39.5,26.1,38,27.6,36.1,27.6z"/>
			<circle fill="#CDD6E0" cx="36.1" cy="24.5" r="1.4"/>
		</g>
	</g>
	<rect x="2.7" y="19.4" fill="#F2A940" width="6.5" height="1.5"/>
	<rect x="38.9" y="19.4" fill="#F2A940" width="6.5" height="1.5"/>
	<rect x="33.4" y="19.4" fill="#F9604B" width="5.5" height="1.5"/>
	<rect x="9.1" y="19.4" fill="#F9604B" width="5.5" height="1.5"/>
	<rect x="14.6" y="19.4" fill="#F2A940" width="18.8" height="1.5"/>
</g>
</svg>
