<?xml version="1.0" encoding="utf-8"?>
<!-- Generator: Adobe Illustrator 18.0.0, SVG Export Plug-In . SVG Version: 6.00 Build 0)  -->
<!DOCTYPE svg PUBLIC "-//W3C//DTD SVG 1.1//EN" "http://www.w3.org/Graphics/SVG/1.1/DTD/svg11.dtd">
<svg version="1.1" id="Layer_1" xmlns="http://www.w3.org/2000/svg" xmlns:xlink="http://www.w3.org/1999/xlink" x="0px" y="0px"
	 viewBox="0 0 48 48" enable-background="new 0 0 48 48" xml:space="preserve">
<g>
	<g>
		<g>
			<path fill="#415A6B" d="M29.4,22.4c0,0,0,0.2,0,0.5c0,0.3,0.1,0.8,0.3,1.4c0.3,1.2,0.9,3,1.2,5.3c0.1,1.1,0.2,2.4,0,3.7
				c-0.2,1.3-0.7,2.7-1.5,3.9c-0.8,1.2-1.9,2.3-3.1,3.1c-1.3,0.9-2.8,1.3-4.3,1.6c-3,0.5-6.1-0.1-8.7-1.1c-2.6-1-4.8-2.4-6.6-3.7
				c-1.8-1.3-3.2-2.5-4.2-3.4c-1-0.8-1.5-1.3-1.5-1.3l0.2-0.2c0,0,0.6,0.5,1.6,1.3c1,0.8,2.4,2,4.2,3.2c1.8,1.2,4,2.6,6.6,3.5
				c2.6,0.9,5.5,1.3,8.3,0.8c1.4-0.2,2.8-0.8,3.9-1.5c1.1-0.8,2.1-1.8,2.8-2.9c0.7-1.1,1.1-2.3,1.2-3.5c0.1-1.2,0.1-2.3-0.1-3.4
				c-0.3-2.1-1-3.8-1.3-5.1c-0.2-0.6-0.3-1.1-0.4-1.5c-0.1-0.4-0.1-0.5-0.1-0.6L29.4,22.4z"/>
		</g>
		<g>
			<path fill="#415A6B" d="M30.6,20.5c0,0,0,0.2-0.1,0.6c-0.1,0.4-0.2,1-0.3,1.8c-0.1,0.8-0.2,1.7-0.3,2.8c-0.1,1.1-0.1,2.3,0,3.6
				c0.1,1.3,0.3,2.7,0.7,4.1c0.5,1.4,1.2,2.8,2.4,3.9c0.6,0.5,1.3,1,2,1.3c0.4,0.2,0.7,0.3,1.1,0.4c0.4,0.1,0.8,0.1,1.2,0
				c0.8-0.1,1.7-0.4,2.4-0.8c0.8-0.4,1.4-1,2-1.6c0.6-0.7,1.1-1.4,1.4-2.2c0.2-0.4,0.3-0.8,0.3-1.3c0-0.4,0-0.9-0.2-1.3
				c-0.1-0.2-0.2-0.4-0.3-0.5c-0.1-0.2-0.3-0.3-0.5-0.4c-0.4-0.2-0.8-0.3-1.2-0.3c-0.4,0-0.8,0.1-1.2,0.2c-0.4,0.2-0.7,0.4-1,0.7
				c-0.6,0.6-0.9,1.4-1.1,2.1c-0.1,0.4-0.1,0.8-0.2,1.2c0,0.4,0,0.8,0,1.2c0.1,1.5,0.7,2.9,1.3,4c0.7,1.2,1.4,2.1,2.2,2.9
				c0.8,0.8,1.5,1.4,2.1,1.9c0.6,0.5,1.1,0.9,1.4,1.1c0.3,0.2,0.5,0.4,0.5,0.4l-0.4,0.5c0,0-0.2-0.1-0.5-0.4
				c-0.3-0.3-0.8-0.7-1.4-1.2c-0.6-0.5-1.3-1.2-2-2c-0.7-0.8-1.5-1.8-2.2-3c-0.6-1.2-1.1-2.6-1.3-4.2c0-0.4,0-0.8,0-1.2
				c0-0.4,0.1-0.8,0.2-1.2c0.2-0.8,0.6-1.6,1.1-2.2c0.3-0.3,0.6-0.6,1-0.8c0.4-0.2,0.8-0.3,1.3-0.3c0.4,0,0.9,0.1,1.3,0.4
				c0.2,0.1,0.4,0.3,0.5,0.4c0.1,0.2,0.3,0.4,0.4,0.6c0.2,0.4,0.2,0.9,0.2,1.3c0,0.5-0.1,0.9-0.3,1.3c-0.3,0.9-0.8,1.7-1.3,2.4
				c-1.2,1.4-2.8,2.5-4.6,2.8c-0.5,0.1-0.9,0.1-1.4,0c-0.5,0-0.9-0.2-1.4-0.3c-0.8-0.3-1.6-0.8-2.3-1.4c-1.4-1.1-2.3-2.7-2.8-4.2
				c-0.6-1.5-0.9-3-1-4.4c-0.2-1.4-0.2-2.6-0.2-3.8c0-1.1,0-2.1,0.1-2.9c0-0.8,0.1-1.4,0.1-1.8c0-0.4,0-0.6,0-0.6L30.6,20.5z"/>
		</g>
		<g>
			<g>
				<path fill="#66C6B9" d="M20.3,20L20.3,20c0.2,2.1,0.9,4.2,2.2,5.9c0.3,0.4,0.5,0.7,0.6,0.8l-0.5,0c0,0,0.5,1.1,0.5,2.1
					c0,0-0.3-0.5-0.5-0.7c0,0,0,1.1-0.7,2.1c0,0-0.3-1.3-1.2-1.9c0,0-0.2,1.3-0.7,1.8c0,0-0.1-0.6-0.3-0.8c0,0-0.2,1.2-1.4,2
					c0,0-0.1-0.8-0.4-1.1c0,0-0.2,0.6-0.7,0.8c0,0-0.1-0.7-0.2-0.7c0,0-0.8,0.8-1.4,1.2c0,0-0.1-0.7-0.1-1c0,0-0.9,0.7-1.4,0.7
					c0,0,0.2-0.3,0.2-0.7c0,0-0.8,0.5-1.8,0.6c0,0-0.3-1.6,0.6-2.9c0,0-0.3,0-0.7,0.2c0,0,1.2-2,1.9-2.4c0,0-0.3-1-1.1-0.3
					c-0.8,0.7-1.4,2.5-2,2.7l0.1-0.8c0,0-0.8,0.8-2,1.1l0.2-0.7c0,0-0.9,0.4-1.9-0.4c0,0,0.4-1.9,0.6-2c0,0-0.9,0.3-1.5,0.3l0.2-0.6
					c0,0-1.3,0.2-2.3-0.1c0,0,0.3-1.1,0.6-1.4l-1.3,0L4,23.1c0,0-1.3,0.1-1.9-0.4L2.6,22l-1.5-0.7l0.6-0.6c0,0-1.3-0.8-1.7-1.7
					c0,0,1.4-0.9,2.2-0.8l-0.3-0.5l1.9-0.1l-0.4-0.5c0,0,1.9,0.1,2.4-0.1L3.8,16L5,15.1c0,0-1.4-0.6-1.6-0.9l0.5-0.4
					c0,0-0.7-0.3-1-0.6l0.5,0c0,0-1-1.1-1.2-1.3c0,0,0.9-0.6,1.3-0.6c0,0-0.6-0.5-0.7-0.8c0,0,0.4,0.1,0.6,0c0,0-0.7-0.4-0.9-1.2
					c0,0,1-0.4,1.2-0.3c0,0-0.5-0.8-0.5-1.3c0,0,0.5,0,0.7-0.2c0,0-0.1-0.9-0.3-1.1c0,0,0.2,0.1,0.5-0.1c0,0-0.7-0.9-0.5-1.9
					c0,0,0.9-0.3,2.2,0.1L5.6,4.1c0,0,0.8,0.2,1.1,0.4c0,0,0.4-0.6,0.1-0.8c0,0,1.3,0.3,1.8,0.9c0,0,0.3-0.7,0.2-0.9
					c0,0,1.4,0.3,1.7,1c0,0,0-0.8,0.2-1.1C11,3.3,11,3.2,11,3.2s1.4,0.5,1.8,1.6l0.1-0.6c0,0,0.6,0.9,0.9,1.1c0,0,0.2-1.6,0.6-1.9
					c0,0,1.6,0.7,1.8,1.5l0.4-0.4l0.5,1.2l0.6-0.4c0,0,0.4,1.1,0.4,1.5c0,0,0.5-1.7,0.2-2.4l0.6,0.5c0,0,0.4-2,0.7-2.2
					c0,0,0.3,0.3,0.3,0.5c0,0,0.8-1.7,2-1.9c0,0,0.7,1.2,0.5,2.2L23.1,3c0,0,0.6,1.4,0.4,2.3c0,0,0.1-0.4,0.6-0.5c0,0,0.6,1,0.2,2
					c0,0,0.5-0.1,0.6,0c0,0,0,0.7-0.2,1.1c0,0,0.5-0.3,1-0.2c0,0,0.3,1.3,0.1,1.7l0.2,0l0.1,1.5L27,10c0,0,0.4,1.1,0.3,1.7l0.4-0.2
					c0,0-0.2,1.1-0.3,1.4c0,0,0.4,0,0.6,0.1c0,0,0,0.8-0.4,1.4c0,0,0.4,0.9,1.4,0.6c0.9-0.4,1.3,0.2,1.3,0.2s0.2,1.1-0.5,1.8l1,0.3
					l-0.8,1.5c0,0,0.7,0.5,1,0.5c0,0-0.7,1-1.2,1.1c0,0,0.3,0.3,0.5,0.4c0,0-0.9,0.5-1,0.6c0,0,0.5,1,0.9,1c0.4,0,0.8,0.3,0.8,0.3
					s-1.4,0.6-2.3,0c0,0,0.1,0.7,0.3,0.8c0,0-1,0-1.5-0.5c0,0,0.4,0.5,0.4,0.9c0,0.4,0.2,0.7,0.2,0.7s-1.2,0.3-1.7-0.5l0.2,0.7
					l-1.1-1.2l0,0.6c0,0-0.9-1.3-1-1.7c-0.2-0.5-0.9-1.4-1.8-1.5C21.7,20.7,20.9,20.6,20.3,20z"/>
			</g>
			<g>
				<g>
					<path fill="#4ABAA5" d="M19.8,19.8l0.9,0.4v0l0,0l0,0c0,0,0,0,0,0c0,0,0,0,0,0c0,0,0,0.1-0.1,0.1c0,0.1-0.1,0.2-0.2,0.4
						C20.2,21,20,21.5,19.6,22c-0.3,0.5-0.7,1.1-1.2,1.7c-0.5,0.6-1,1.2-1.5,1.8c-2,2.5-4.1,4.9-4.1,4.9s1.9-2.6,3.7-5.2
						c0.5-0.7,0.9-1.3,1.4-1.9c0.4-0.6,0.8-1.2,1.1-1.7c0.3-0.5,0.5-1,0.6-1.3c0.1-0.2,0.1-0.3,0.2-0.4
						C19.7,19.9,19.7,19.8,19.8,19.8C19.8,19.8,19.8,19.8,19.8,19.8C19.8,19.8,19.8,19.8,19.8,19.8L19.8,19.8L19.8,19.8L19.8,19.8
						l0.9,0.4L19.8,19.8z"/>
				</g>
				<g>
					<path fill="#4ABAA5" d="M20.2,20.5c0,0-1.2,0-2.9,0.1c-0.9,0-1.9,0-3,0c-1.1,0-2.3-0.1-3.5-0.1c-0.6,0-1.2-0.1-1.8-0.1
						c-0.6,0-1.1-0.1-1.7-0.1C6.8,20.1,6.3,20,5.8,20c-0.5-0.1-1-0.1-1.4-0.2c-0.4-0.1-0.8-0.2-1.2-0.2c-0.4-0.1-0.7-0.1-0.9-0.2
						c-0.5-0.1-0.8-0.2-0.8-0.2s0.3,0.1,0.8,0.2c0.3,0,0.6,0.1,0.9,0.2c0.4,0,0.8,0.1,1.2,0.2c0.4,0,0.9,0.1,1.4,0.1
						c0.5,0,1,0.1,1.6,0.1c0.5,0,1.1,0,1.7,0.1c0.6,0,1.2,0,1.7,0c1.2,0,2.3,0,3.4-0.1c1.1,0,2.1-0.1,3-0.1c1.8-0.1,2.9-0.2,2.9-0.2
						L20.2,20.5z"/>
				</g>
				<g>
					<path fill="#4ABAA5" d="M4.3,5c0,0,0.2,0.3,0.6,0.7C5,5.8,5.1,5.9,5.2,6c0.1,0.1,0.3,0.3,0.4,0.4c0.3,0.3,0.6,0.6,1,1
						c0.4,0.3,0.8,0.7,1.2,1.1c0.4,0.4,0.9,0.8,1.4,1.2c1,0.8,2,1.7,3.1,2.6c2.1,1.7,4.3,3.4,5.9,4.8c0.4,0.3,0.8,0.7,1.1,1
						c0.2,0.2,0.3,0.3,0.4,0.4c0.1,0.1,0.2,0.3,0.3,0.4c0.2,0.2,0.4,0.5,0.5,0.6c0.1,0.2,0.2,0.2,0.2,0.2l-0.9,0.5
						c0,0,0-0.1-0.1-0.2c-0.1-0.1-0.2-0.3-0.4-0.5c-0.1-0.1-0.2-0.2-0.3-0.4c-0.1-0.1-0.3-0.3-0.4-0.4c-0.3-0.3-0.6-0.6-1-1
						c-1.5-1.4-3.6-3.2-5.6-5c-1-0.9-2.1-1.8-3-2.7C8.6,9.6,8.2,9.1,7.7,8.7C7.3,8.3,6.9,7.9,6.6,7.5c-0.4-0.4-0.7-0.7-1-1
						C5.5,6.4,5.3,6.2,5.2,6.1C5.1,5.9,5,5.8,4.9,5.7C4.5,5.2,4.3,5,4.3,5z"/>
				</g>
				<g>
					<path fill="#4ABAA5" d="M19.9,19.8c0,0,0-0.1,0.1-0.2c0-0.1,0.1-0.3,0.2-0.5c0.1-0.5,0.3-1.1,0.5-1.9c0.1-0.4,0.2-0.8,0.2-1.3
						c0.1-0.5,0.1-1,0.2-1.5c0-0.3,0-0.5,0.1-0.8c0-0.3,0-0.5,0-0.8c0-0.5,0-1.1,0-1.6c0-0.6,0-1.1,0-1.7c0-0.5,0-1.1,0.1-1.6
						c0.1-1,0.2-2,0.2-2.8c0.2-1.6,0.4-2.7,0.4-2.7s-0.1,1.1-0.2,2.8c0,0.8-0.1,1.8-0.1,2.8c0,0.5,0,1,0,1.6c0,0.5,0,1.1,0.1,1.6
						c0,0.6,0.1,1.1,0.1,1.6c0,0.3,0,0.6,0,0.8c0,0.3,0,0.5,0,0.8c0,0.5-0.1,1-0.1,1.5c0,0.5-0.1,0.9-0.2,1.3
						c-0.1,0.8-0.3,1.5-0.4,2c-0.1,0.2-0.1,0.4-0.1,0.6c0,0.1-0.1,0.2-0.1,0.2L19.9,19.8z"/>
				</g>
				<g>
					<g>
						<path fill="#4ABAA5" d="M20.3,19.3c0,0,0,0,0.1,0c0.1,0,0.2,0,0.3,0c0.3,0,0.6-0.1,1.1-0.1c0.4-0.1,1-0.2,1.5-0.4
							c0.5-0.2,1.1-0.4,1.7-0.6c0.6-0.2,1.1-0.5,1.6-0.8c0.5-0.3,1-0.5,1.4-0.8c0.4-0.2,0.7-0.4,1-0.6c0.2-0.1,0.3-0.3,0.3-0.3
							s-0.1,0.1-0.3,0.3c-0.2,0.2-0.5,0.4-0.9,0.7c-0.4,0.3-0.8,0.6-1.3,0.9c-0.5,0.3-1,0.7-1.6,1c-0.6,0.3-1.1,0.6-1.7,0.8
							c-0.6,0.2-1.1,0.4-1.5,0.5c-0.5,0.1-0.9,0.2-1.1,0.3c-0.3,0.1-0.4,0.1-0.4,0.1L20.3,19.3z"/>
					</g>
				</g>
			</g>
		</g>
		<g>
			<g>
				<g>
					<path fill="#4ABAA5" d="M33.4,18.4C33.4,18.4,33.4,18.4,33.4,18.4c-0.1,1.5-0.7,3-1.6,4.2c-0.2,0.3-0.4,0.5-0.4,0.6l0.4,0
						c0,0-0.4,0.8-0.3,1.5c0,0,0.2-0.4,0.4-0.5c0,0,0,0.8,0.5,1.5c0,0,0.2-0.9,0.9-1.4c0,0,0.2,0.9,0.5,1.3c0,0,0.1-0.4,0.2-0.6
						c0,0,0.1,0.9,1,1.4c0,0,0.1-0.6,0.3-0.8c0,0,0.2,0.4,0.5,0.6c0,0,0.1-0.5,0.2-0.5c0,0,0.6,0.6,1,0.8c0,0,0.1-0.5,0.1-0.7
						c0,0,0.7,0.5,1,0.5c0,0-0.1-0.2-0.1-0.5c0,0,0.6,0.3,1.3,0.4c0,0,0.2-1.1-0.4-2.1c0,0,0.2,0,0.5,0.1c0,0-0.9-1.5-1.3-1.7
						c0,0,0.2-0.7,0.8-0.2c0.6,0.5,1,1.8,1.5,1.9L40,23.9c0,0,0.6,0.6,1.4,0.8l-0.1-0.5c0,0,0.6,0.3,1.4-0.3c0,0-0.3-1.4-0.5-1.5
						c0,0,0.7,0.2,1.1,0.2l-0.1-0.5c0,0,0.9,0.2,1.7-0.1c0,0-0.2-0.8-0.5-1l0.9,0l-0.2-0.4c0,0,0.9,0.1,1.4-0.3l-0.4-0.6l1.1-0.5
						L46.8,19c0,0,0.9-0.6,1.2-1.3c0,0-1-0.6-1.6-0.6l0.2-0.3l-1.3-0.1l0.3-0.3c0,0-1.4,0-1.7-0.1l1.5-0.8l-0.9-0.7
						c0,0,1-0.4,1.1-0.6L45.2,14c0,0,0.5-0.3,0.7-0.4l-0.3,0c0,0,0.7-0.8,0.8-0.9c0,0-0.7-0.4-0.9-0.4c0,0,0.4-0.3,0.5-0.6
						c0,0-0.3,0.1-0.4,0c0,0,0.5-0.3,0.6-0.8c0,0-0.7-0.3-0.9-0.2c0,0,0.4-0.6,0.4-1c0,0-0.3,0-0.5-0.1c0,0,0-0.6,0.2-0.8
						c0,0-0.1,0.1-0.4-0.1c0,0,0.5-0.6,0.4-1.3c0,0-0.6-0.2-1.5,0L44,7c0,0-0.6,0.1-0.8,0.3c0,0-0.3-0.4-0.1-0.5
						c0,0-0.9,0.2-1.3,0.7c0,0-0.2-0.5-0.2-0.7c0,0-1,0.2-1.2,0.7c0,0,0-0.6-0.2-0.8s-0.1-0.3-0.1-0.3s-1,0.4-1.3,1.2l-0.1-0.4
						c0,0-0.4,0.6-0.7,0.8c0,0-0.2-1.2-0.4-1.3c0,0-1.1,0.5-1.3,1l-0.3-0.3l-0.4,0.8l-0.4-0.3c0,0-0.3,0.8-0.3,1.1
						c0,0-0.4-1.2-0.2-1.8l-0.4,0.4c0,0-0.3-1.5-0.5-1.6c0,0-0.2,0.2-0.2,0.4c0,0-0.6-1.2-1.5-1.4c0,0-0.5,0.8-0.4,1.6l-0.4-0.3
						c0,0-0.4,1-0.3,1.6c0,0,0-0.3-0.5-0.4c0,0-0.4,0.7-0.2,1.4c0,0-0.3,0-0.4,0c0,0,0,0.5,0.2,0.8c0,0-0.4-0.2-0.7-0.1
						c0,0-0.2,0.9,0,1.2l-0.2,0l0,1.1l-0.7-0.6c0,0-0.3,0.8-0.2,1.2l-0.3-0.1c0,0,0.1,0.8,0.2,1c0,0-0.3,0-0.4,0c0,0,0,0.6,0.3,1
						c0,0-0.3,0.7-1,0.4c-0.7-0.3-0.9,0.1-0.9,0.1s-0.2,0.8,0.3,1.3l-0.7,0.2l0.6,1.1c0,0-0.5,0.4-0.7,0.4c0,0,0.5,0.7,0.8,0.8
						c0,0-0.2,0.2-0.3,0.3c0,0,0.6,0.4,0.7,0.4c0,0-0.4,0.7-0.7,0.7c-0.3,0-0.6,0.2-0.6,0.2s1,0.5,1.6,0c0,0-0.1,0.5-0.2,0.6
						c0,0,0.7,0,1.1-0.4c0,0-0.3,0.4-0.3,0.7c0,0.3-0.1,0.5-0.1,0.5s0.9,0.2,1.2-0.3l-0.1,0.5l0.8-0.8l0,0.4c0,0,0.6-0.9,0.7-1.2
						c0.1-0.3,0.6-1,1.3-1.1C32.4,19,33,18.9,33.4,18.4z"/>
				</g>
				<g>
					<g>
						<path fill="#66C6B9" d="M33.8,18.3l-0.6,0.3h0l0,0l0,0c0,0,0,0,0,0c0,0,0,0,0,0c0,0,0,0,0,0.1c0,0.1,0.1,0.2,0.1,0.3
							c0.1,0.2,0.3,0.5,0.5,0.9c0.2,0.4,0.5,0.8,0.9,1.2c0.3,0.4,0.7,0.9,1.1,1.3c1.5,1.8,2.9,3.5,2.9,3.5s-1.3-1.9-2.7-3.8
							c-0.3-0.5-0.7-0.9-1-1.4c-0.3-0.4-0.6-0.9-0.8-1.2c-0.2-0.4-0.4-0.7-0.5-0.9C33.9,18.6,33.9,18.5,33.8,18.3
							C33.8,18.4,33.8,18.4,33.8,18.3C33.8,18.3,33.8,18.3,33.8,18.3C33.8,18.3,33.8,18.3,33.8,18.3L33.8,18.3L33.8,18.3L33.8,18.3
							l-0.6,0.3L33.8,18.3z"/>
					</g>
					<g>
						<path fill="#66C6B9" d="M33.4,18.8c0,0,0.9,0,2.1,0c0.6,0,1.4,0,2.2,0c0.8,0,1.6,0,2.5-0.1c0.4,0,0.8-0.1,1.3-0.1
							c0.4,0,0.8-0.1,1.2-0.1c0.4,0,0.8-0.1,1.1-0.1c0.4-0.1,0.7-0.1,1-0.1c0.3,0,0.6-0.1,0.9-0.2c0.3,0,0.5-0.1,0.7-0.1
							c0.4-0.1,0.6-0.1,0.6-0.1s-0.2,0-0.6,0.1c-0.2,0-0.4,0.1-0.7,0.1c-0.3,0-0.5,0.1-0.9,0.1c-0.3,0-0.7,0.1-1,0.1
							c-0.4,0-0.7,0-1.1,0.1c-0.4,0-0.8,0-1.2,0c-0.4,0-0.8,0-1.3,0c-0.8,0-1.7,0-2.5,0c-0.8,0-1.5-0.1-2.2-0.1
							c-1.3-0.1-2.1-0.2-2.1-0.2L33.4,18.8z"/>
					</g>
					<g>
						<path fill="#66C6B9" d="M44.9,7.7c0,0-0.2,0.2-0.5,0.5c-0.1,0.1-0.2,0.2-0.2,0.3c-0.1,0.1-0.2,0.2-0.3,0.3
							c-0.2,0.2-0.5,0.5-0.7,0.7c-0.3,0.3-0.6,0.5-0.9,0.8c-0.3,0.3-0.7,0.6-1,0.9c-0.7,0.6-1.5,1.2-2.2,1.8
							c-1.5,1.2-3.1,2.5-4.2,3.4c-0.3,0.3-0.5,0.5-0.8,0.7c-0.1,0.1-0.2,0.2-0.3,0.3c-0.1,0.1-0.2,0.2-0.3,0.3
							c-0.2,0.2-0.3,0.3-0.3,0.4c-0.1,0.1-0.1,0.2-0.1,0.2l0.6,0.3c0,0,0,0,0.1-0.1c0.1-0.1,0.1-0.2,0.3-0.4
							c0.1-0.1,0.1-0.2,0.2-0.3c0.1-0.1,0.2-0.2,0.3-0.3c0.2-0.2,0.4-0.4,0.7-0.7c1.1-1,2.6-2.3,4.1-3.6c0.7-0.7,1.5-1.3,2.2-1.9
							c0.3-0.3,0.7-0.6,1-0.9c0.3-0.3,0.6-0.6,0.9-0.8C43.5,9.3,43.8,9,44,8.8c0.1-0.1,0.2-0.2,0.3-0.3c0.1-0.1,0.2-0.2,0.2-0.3
							C44.8,7.9,44.9,7.7,44.9,7.7z"/>
					</g>
					<g>
						<path fill="#66C6B9" d="M33.7,18.3c0,0,0,0,0-0.1c0-0.1-0.1-0.2-0.1-0.4c-0.1-0.3-0.2-0.8-0.3-1.4c-0.1-0.3-0.1-0.6-0.2-0.9
							c-0.1-0.3-0.1-0.7-0.1-1c0-0.2,0-0.4,0-0.6c0-0.2,0-0.4,0-0.6c0-0.4,0-0.8,0-1.2c0-0.4,0-0.8,0-1.2c0-0.4,0-0.8-0.1-1.2
							c0-0.7-0.1-1.4-0.2-2c-0.1-1.2-0.3-2-0.3-2s0.1,0.8,0.2,2c0,0.6,0.1,1.3,0.1,2c0,0.4,0,0.8,0,1.1c0,0.4,0,0.8-0.1,1.2
							c0,0.4-0.1,0.8-0.1,1.2c0,0.2,0,0.4,0,0.6c0,0.2,0,0.4,0,0.6c0,0.4,0,0.7,0.1,1.1c0,0.3,0.1,0.7,0.1,1
							c0.1,0.6,0.2,1.1,0.3,1.4c0,0.2,0.1,0.3,0.1,0.4c0,0.1,0,0.1,0,0.1L33.7,18.3z"/>
					</g>
					<g>
						<g>
							<path fill="#66C6B9" d="M33.4,18C33.4,18,33.4,18,33.4,18c-0.1,0-0.2,0-0.3,0c-0.2,0-0.5,0-0.8-0.1c-0.3-0.1-0.7-0.1-1.1-0.3
								c-0.4-0.1-0.8-0.3-1.2-0.4c-0.4-0.2-0.8-0.4-1.2-0.6c-0.4-0.2-0.7-0.4-1-0.6c-0.3-0.2-0.5-0.3-0.7-0.4
								C27,15.5,27,15.4,27,15.4s0.1,0.1,0.2,0.2c0.2,0.1,0.4,0.3,0.6,0.5c0.3,0.2,0.6,0.4,0.9,0.7c0.3,0.2,0.7,0.5,1.1,0.7
								c0.4,0.2,0.8,0.4,1.2,0.6c0.4,0.2,0.8,0.3,1.1,0.4c0.3,0.1,0.6,0.2,0.8,0.2c0.2,0,0.3,0.1,0.3,0.1L33.4,18z"/>
						</g>
					</g>
				</g>
			</g>
		</g>
		<g>
			<g>
				<g>
					<circle fill="#F05540" cx="30.3" cy="21.8" r="4.8"/>
				</g>
				<g>
					
						<ellipse transform="matrix(0.948 -0.3183 0.3183 0.948 -4.9282 11.5017)" fill="#FFFFFF" cx="32.7" cy="20.8" rx="0.6" ry="1.1"/>
				</g>
			</g>
			<g>
				<g>
					<circle fill="#F3705A" cx="34.5" cy="28" r="4.8"/>
				</g>
				<g>
					
						<ellipse transform="matrix(0.948 -0.3183 0.3183 0.948 -6.6875 13.1451)" fill="#FFFFFF" cx="36.9" cy="27" rx="0.6" ry="1.1"/>
				</g>
			</g>
			<g>
				<g>
					<circle fill="#F3705A" cx="24.5" cy="19.1" r="4.8"/>
				</g>
				<g>
					
						<ellipse transform="matrix(0.948 -0.3183 0.3183 0.948 -4.3759 9.4989)" fill="#FFFFFF" cx="26.9" cy="18.1" rx="0.6" ry="1.1"/>
				</g>
			</g>
			<g>
				<g>
					<circle fill="#F05540" cx="31.6" cy="34.1" r="4.8"/>
				</g>
				<g>
					<ellipse transform="matrix(0.948 -0.3183 0.3183 0.948 -8.783 12.5399)" fill="#FFFFFF" cx="34" cy="33.1" rx="0.6" ry="1.1"/>
				</g>
			</g>
			<g>
				<g>
					<circle fill="#F05540" cx="20.4" cy="22.8" r="4.8"/>
				</g>
				<g>
					
						<ellipse transform="matrix(0.948 -0.3183 0.3183 0.948 -5.7449 8.4002)" fill="#FFFFFF" cx="22.8" cy="21.8" rx="0.6" ry="1.1"/>
				</g>
			</g>
			<g>
				<g>
					<circle fill="#F3705A" cx="27.3" cy="27.5" r="4.8"/>
				</g>
				<g>
					
						<ellipse transform="matrix(0.9479 -0.3184 0.3184 0.9479 -6.9047 10.841)" fill="#FFFFFF" cx="29.7" cy="26.5" rx="0.6" ry="1.1"/>
				</g>
			</g>
			<g>
				<g>
					<circle fill="#F05540" cx="21.8" cy="32.1" r="4.8"/>
				</g>
				<g>
					<ellipse transform="matrix(0.948 -0.3183 0.3183 0.948 -8.6525 9.34)" fill="#FFFFFF" cx="24.2" cy="31.1" rx="0.6" ry="1.1"/>
				</g>
			</g>
		</g>
	</g>
</g>
</svg>
