<?xml version="1.0" encoding="utf-8"?>
<!-- Generator: Adobe Illustrator 18.0.0, SVG Export Plug-In . SVG Version: 6.00 Build 0)  -->
<!DOCTYPE svg PUBLIC "-//W3C//DTD SVG 1.1//EN" "http://www.w3.org/Graphics/SVG/1.1/DTD/svg11.dtd">
<svg version="1.1" id="Layer_1" xmlns="http://www.w3.org/2000/svg" xmlns:xlink="http://www.w3.org/1999/xlink" x="0px" y="0px"
	 viewBox="0 0 48 48" enable-background="new 0 0 48 48" xml:space="preserve">
<g>
	<path fill="#FF7058" d="M46.7,26.6C43.8,2.3,24,0.1,24,0.1S4.2,2.3,1.3,26.6l3,2c0,0-2.8,9.3,4.5,19.3L24,42.8l15.2,5.1
		c7.2-10,4.5-19.3,4.5-19.3L46.7,26.6z"/>
	<ellipse transform="matrix(0.707 0.7072 -0.7072 0.707 18.1786 -25.3965)" fill="#FFD15C" cx="39.7" cy="9.2" rx="6.4" ry="9.8"/>
	<path fill="#40596B" d="M43,12.5c-0.4,0.4-0.8,0.8-1.3,1.1c-0.6-1.9-1.5-3.7-2.6-5.3c1.7-2,3.5-2.6,3.5-2.6c-0.7-0.6-3-0.3-3-0.3
		C41,4,43.5,3.5,43.5,3.5l-1.7-0.6c0.7-0.1,1.3-0.2,1.9-0.1c0.7,0.1,1.3,0.3,1.7,0.8C47,5,46.4,9.1,43,12.5z"/>
	<ellipse transform="matrix(-0.707 0.7072 -0.7072 -0.707 20.6354 9.9336)" fill="#FFD15C" cx="8.3" cy="9.2" rx="6.4" ry="9.8"/>
	<path fill="#40596B" d="M8.9,8.3c-1.1,1.6-2,3.4-2.6,5.3c-0.4-0.3-0.9-0.7-1.3-1.1C1.6,9.1,1,5,2.5,3.5c0.4-0.4,1-0.7,1.7-0.8
		c0.6-0.1,1.2,0,1.9,0.1L4.5,3.5c0,0,2.5,0.5,3.9,1.9c0,0-2.3-0.3-3,0.3C5.4,5.7,7.2,6.3,8.9,8.3z"/>
	<path fill="#FFD15C" d="M41.6,24.2l-0.8-7C39.7,8.7,32.5,2.3,24,2.3h0c-8.5,0-15.7,6.4-16.7,14.9l-0.8,7
		c-1.2,10.5,7,19.8,17.6,19.8h0C34.6,43.9,42.8,34.7,41.6,24.2z"/>
	<g>
		<g>
			<circle fill="#FF7058" cx="32.7" cy="17.3" r="3.4"/>
			<circle fill="#40596B" cx="32.7" cy="17.3" r="2.3"/>
			<circle fill="#FFFFFF" cx="34.4" cy="18.4" r="0.7"/>
		</g>
		<g>
			<circle fill="#FF7058" cx="15.3" cy="17.3" r="3.4"/>
			<circle fill="#40596B" cx="15.3" cy="17.3" r="2.3"/>
			<circle fill="#FFFFFF" cx="17" cy="18.4" r="0.7"/>
		</g>
	</g>
	<path opacity="0.1" fill="#231F20" d="M32.7,13.8c-1.9,0-3.4,1.5-3.4,3.4c0,1.3,0.7,2.4,1.8,3C31,19.5,31,18.8,31.2,18
		c0.4-1.1,1.3-2,2.4-2.3c0.6-0.2,1.2-0.4,1.8-0.6C34.7,14.3,33.8,13.8,32.7,13.8z"/>
	<path opacity="0.1" fill="#231F20" d="M15.3,13.8c-1.1,0-2,0.5-2.6,1.3c0.6,0.2,1.1,0.4,1.8,0.6c1.1,0.4,2,1.2,2.4,2.3
		c0.3,0.7,0.3,1.5,0.1,2.2c1.1-0.6,1.8-1.7,1.8-3C18.7,15.4,17.1,13.8,15.3,13.8z"/>
	<path fill="#FF7058" d="M30.9,33.8l-0.2,0c-0.9,0.1-1.8-0.3-2.4-1C26.8,31,24,30.7,24,30.7s-1.9,0.2-3.4,1.3
		c-1.3,1-2.8,1.7-4.5,1.7c-0.1,0-0.1,0-0.2,0v1.1c0,3.9,3.2,7.1,7.1,7.1h1h1c3.9,0,7.1-3.2,7.1-7.1v0C32.1,34.2,31.5,33.7,30.9,33.8
		z"/>
	<path fill="#40596B" d="M30.9,31.1l-0.2,0c-0.9,0.1-1.8-0.3-2.4-1c-1.5-1.8-4.3-2.1-4.3-2.1s-1.9,0.2-3.4,1.3
		c-1.3,1-2.8,1.7-4.5,1.7c-0.1,0-0.1,0-0.2,0v1.1c0,3.9,3.2,7.1,7.1,7.1h1h1c3.9,0,7.1-3.2,7.1-7.1v0C32.1,31.5,31.5,31,30.9,31.1z"
		/>
	<g>
		<path fill="#FFFFFF" d="M29.2,32.9c-2.5-0.3-1.5,2.5-1.5,2.5s1,2.6,0.5,4.5c-0.2,0.7-0.4,1.4-0.4,1.8c0,0.2,0.3,0.3,0.4,0.1
			c1.8-3.2,1.9-6.2,1.9-6.2C30.6,32.9,29.2,32.9,29.2,32.9z"/>
		<path fill="#FFFFFF" d="M18.8,32.9c2.5-0.3,1.5,2.5,1.5,2.5s-1,2.6-0.5,4.5c0.2,0.7,0.4,1.4,0.4,1.8c0,0.2-0.3,0.3-0.4,0.1
			c-1.8-3.2-1.9-6.2-1.9-6.2C17.4,32.9,18.8,32.9,18.8,32.9z"/>
	</g>
	<path fill="#F8B64C" d="M33.3,14.7c2.4-0.8,4.4-1.8,5.8-3.1C36.3,6,30.6,2.3,24,2.3h0c-6.6,0-12.3,3.8-15.1,9.3
		c1.4,1.2,3.4,2.3,5.8,3.1c3.1,1,4.3,4.8,2.5,7.5c-2.5,3.6-4.6,7.3-4.6,8.9c0,3.7,3,6.7,6.7,6.7c0.9,0,1.8-0.2,2.6-0.5
		c1.4-0.6,2.9-0.6,4.2,0c0.8,0.3,1.7,0.5,2.6,0.5c3.7,0,6.7-3,6.7-6.7c0-1.6-2.2-5.3-4.6-8.9C28.9,19.4,30.1,15.6,33.3,14.7z"/>
	<path fill="#40596B" d="M27.7,26.5h-7.5c-1.2,0-1.8,1.3-1.1,2.2l3.7,4.5c0.5,0.7,1.6,0.7,2.1,0l3.7-4.5
		C29.5,27.9,28.9,26.5,27.7,26.5z"/>
	<g>
		<path fill="#40596B" d="M25.7,6c0,0,0.6-0.1,1.5-0.1c0.9,0,2,0.2,3.1,0.6c1.1,0.4,2.1,1,2.8,1.6c0.7,0.6,0.9,1.1,0.9,1.1
			s-0.1-0.1-0.4-0.2c-0.2-0.1-0.5-0.3-0.9-0.5c-0.7-0.4-1.8-0.8-2.8-1.2c-1-0.4-2.1-0.7-2.9-1C26.2,6.2,25.7,6,25.7,6z"/>
		<path fill="#40596B" d="M22.3,6c0,0-0.6-0.1-1.5-0.1c-0.9,0-2,0.2-3.1,0.6c-1.1,0.4-2.1,1-2.8,1.6c-0.7,0.6-0.9,1.1-0.9,1.1
			s0.1-0.1,0.4-0.2c0.2-0.1,0.5-0.3,0.9-0.5c0.7-0.4,1.8-0.8,2.8-1.2c1-0.4,2.1-0.7,2.9-1C21.8,6.2,22.3,6,22.3,6z"/>
	</g>
	<g>
		<path fill="#40596B" d="M31.2,14.8c0,0,0.1-0.4,0.4-0.9c0.2-0.2,0.4-0.5,0.8-0.8c0.3-0.2,0.8-0.4,1.2-0.5c0.5,0,1,0,1.4,0.3
			c0.4,0.2,0.6,0.5,0.8,0.8c0.2,0.2,0.2,0.5,0.3,0.7c0,0.2,0.1,0.3,0.1,0.3c0,0-0.4-0.2-0.8-0.4c-0.5-0.3-1-0.4-1.5-0.3
			c-0.5,0.1-1.2,0.3-1.7,0.5C31.6,14.6,31.2,14.8,31.2,14.8z"/>
		<path fill="#40596B" d="M16.8,14.8c0,0-0.1-0.4-0.4-0.9c-0.2-0.2-0.4-0.5-0.8-0.8c-0.3-0.2-0.8-0.4-1.2-0.5c-0.5,0-1,0-1.4,0.3
			c-0.4,0.2-0.6,0.5-0.8,0.8c-0.2,0.2-0.2,0.5-0.3,0.7c0,0.2-0.1,0.3-0.1,0.3c0,0,0.4-0.2,0.8-0.4c0.5-0.3,1-0.4,1.5-0.3
			c0.5,0.1,1.2,0.3,1.7,0.5C16.4,14.6,16.8,14.8,16.8,14.8z"/>
	</g>
	<g>
		<g>
			<path fill="#40596B" d="M42.1,28.7c-0.2-0.1-0.4-0.3-0.6-0.4c-0.3-0.1-0.6-0.3-0.9-0.4c-0.3-0.2-0.7-0.3-1.1-0.4
				c-0.4-0.1-0.8-0.2-1.3-0.3c-0.4-0.1-0.9-0.1-1.4-0.1c-0.5,0-1,0-1.4,0.1c-1.9,0.2-3.8,0.9-5.1,1.5c-0.8,0.4-1.4,0.7-1.8,1
				c-0.2,0.1-0.2,0.4-0.1,0.6l0,0c0.1,0.2,0.4,0.2,0.5,0.1c0.3-0.2,0.9-0.6,1.7-1c1.2-0.7,3-1.4,4.8-1.7c0.5,0,0.9-0.2,1.4-0.1
				c0.5,0,0.9,0,1.4,0c0.4,0,0.9,0.1,1.3,0.2c0.4,0.1,0.8,0.2,1.1,0.3c0.3,0.1,0.6,0.3,0.9,0.4C41.7,28.5,41.9,28.6,42.1,28.7
				c0.3,0.2,0.5,0.4,0.5,0.4S42.5,28.9,42.1,28.7z"/>
			<path fill="#40596B" d="M38.3,33.7c-0.1-0.2-0.3-0.4-0.5-0.6c-0.2-0.2-0.4-0.4-0.7-0.6c-0.3-0.2-0.6-0.4-0.9-0.5
				c-0.6-0.3-1.4-0.5-2.1-0.7c-2.3-0.5-4.7-0.3-5.6-0.3c-0.2,0-0.4,0.2-0.3,0.4l0,0c0,0.2,0.2,0.4,0.4,0.3c0.3,0,0.8-0.1,1.4-0.2
				c1.1-0.1,2.6-0.2,4,0c0.7,0.1,1.4,0.3,2.1,0.5c0.3,0.1,0.6,0.3,0.9,0.4c0.3,0.1,0.5,0.4,0.7,0.5C38,33.4,38.1,33.6,38.3,33.7
				c0.1,0.2,0.2,0.4,0.2,0.5c0.1,0.3,0.2,0.5,0.2,0.5s-0.1-0.2-0.2-0.5C38.5,34.1,38.5,33.9,38.3,33.7z"/>
			<path fill="#40596B" d="M34.1,37c-0.2-0.4-0.4-0.8-0.7-1.1c-0.3-0.4-0.7-0.8-1.1-1.1c-1.2-1-2.6-1.7-3.3-2
				c-0.2-0.1-0.4,0-0.5,0.2v0c-0.1,0.2,0,0.4,0.2,0.5c0.2,0.1,0.5,0.2,0.8,0.3c0.7,0.3,1.6,0.7,2.5,1.3c0.4,0.3,0.8,0.6,1.2,0.9
				c0.3,0.3,0.6,0.7,0.8,1c0.2,0.3,0.3,0.6,0.3,0.9c0.1,0.2,0.1,0.3,0.1,0.3s0-0.1,0-0.4C34.3,37.7,34.2,37.4,34.1,37z"/>
		</g>
		<g>
			<path fill="#40596B" d="M5.9,28.7c0.2-0.1,0.4-0.3,0.6-0.4c0.3-0.1,0.6-0.3,0.9-0.4c0.3-0.2,0.7-0.3,1.1-0.4
				c0.4-0.1,0.8-0.2,1.3-0.3c0.4-0.1,0.9-0.1,1.4-0.1c0.5,0,1,0,1.4,0.1c1.9,0.2,3.8,0.9,5.1,1.5c0.8,0.4,1.4,0.7,1.8,1
				c0.2,0.1,0.2,0.4,0.1,0.6l0,0c-0.1,0.2-0.4,0.2-0.5,0.1c-0.3-0.2-0.9-0.6-1.7-1c-1.2-0.7-3-1.4-4.8-1.7c-0.5,0-0.9-0.2-1.4-0.1
				c-0.5,0-0.9,0-1.4,0c-0.4,0-0.9,0.1-1.3,0.2c-0.4,0.1-0.8,0.2-1.1,0.3c-0.3,0.1-0.6,0.3-0.9,0.4C6.3,28.5,6.1,28.6,5.9,28.7
				C5.5,28.9,5.3,29,5.3,29S5.5,28.9,5.9,28.7z"/>
			<path fill="#40596B" d="M9.7,33.7c0.1-0.2,0.3-0.4,0.5-0.6c0.2-0.2,0.4-0.4,0.7-0.6c0.3-0.2,0.6-0.4,0.9-0.5
				c0.6-0.3,1.4-0.5,2.1-0.7c2.3-0.5,4.7-0.3,5.6-0.3c0.2,0,0.4,0.2,0.3,0.4l0,0c0,0.2-0.2,0.4-0.4,0.3c-0.3,0-0.8-0.1-1.4-0.2
				c-1.1-0.1-2.6-0.2-4,0c-0.7,0.1-1.4,0.3-2.1,0.5c-0.3,0.1-0.6,0.3-0.9,0.4c-0.3,0.1-0.5,0.4-0.7,0.5C10,33.4,9.9,33.6,9.7,33.7
				c-0.1,0.2-0.2,0.4-0.2,0.5c-0.1,0.3-0.2,0.5-0.2,0.5s0.1-0.2,0.2-0.5C9.5,34.1,9.5,33.9,9.7,33.7z"/>
			<path fill="#40596B" d="M13.9,37c0.2-0.4,0.4-0.8,0.7-1.1c0.3-0.4,0.7-0.8,1.1-1.1c1.2-1,2.6-1.7,3.3-2c0.2-0.1,0.4,0,0.5,0.2v0
				c0.1,0.2,0,0.4-0.2,0.5c-0.2,0.1-0.5,0.2-0.8,0.3c-0.7,0.3-1.6,0.7-2.5,1.3c-0.4,0.3-0.8,0.6-1.2,0.9c-0.3,0.3-0.6,0.7-0.8,1
				c-0.2,0.3-0.3,0.6-0.3,0.9c-0.1,0.2-0.1,0.3-0.1,0.3s0-0.1,0-0.4C13.7,37.7,13.8,37.4,13.9,37z"/>
		</g>
	</g>
</g>
</svg>
