<?xml version="1.0" encoding="utf-8"?>
<!-- Generator: Adobe Illustrator 18.0.0, SVG Export Plug-In . SVG Version: 6.00 Build 0)  -->
<!DOCTYPE svg PUBLIC "-//W3C//DTD SVG 1.1//EN" "http://www.w3.org/Graphics/SVG/1.1/DTD/svg11.dtd">
<svg version="1.1" id="Layer_1" xmlns="http://www.w3.org/2000/svg" xmlns:xlink="http://www.w3.org/1999/xlink" x="0px" y="0px"
	 viewBox="0 0 48 48" enable-background="new 0 0 48 48" xml:space="preserve">
<g>
	<g>
		<g>
			<g>
				<path fill="#E8EAE9" d="M24,12.1c-3.3,0-6.1-2.7-6.1-6.1S20.7,0,24,0c3.3,0,6.1,2.7,6.1,6.1S27.3,12.1,24,12.1z M24,2.1
					c-2.2,0-4,1.8-4,4c0,2.2,1.8,4,4,4c2.2,0,4-1.8,4-4C28,3.9,26.2,2.1,24,2.1z"/>
			</g>
		</g>
		<g>
			<g>
				<path fill="#55C0EB" d="M26.6,14.5V9.6C26.6,8.2,25.4,7,24,7c-1.4,0-2.6,1.2-2.6,2.6v4.8H26.6z"/>
			</g>
		</g>
		<g>
			<g>
				<g>
					<circle fill="#8AD7F8" cx="24" cy="30.3" r="17.7"/>
				</g>
			</g>
			<g>
				<g>
					<circle fill="#FFFFFF" cx="24" cy="30.3" r="13.8"/>
				</g>
			</g>
			<g>
				<g>
					<g>
						<path fill="#F3705A" d="M23.2,31.2c-0.5-0.5-0.5-1.2,0-1.7l5.9-5.9c0.5-0.5,1.2-0.5,1.7,0c0.5,0.5,0.5,1.2,0,1.7l-5.9,5.9
							C24.4,31.6,23.6,31.6,23.2,31.2z"/>
					</g>
				</g>
			</g>
			<g>
				<g>
					<circle fill="#415A6B" cx="24" cy="30.3" r="2.7"/>
				</g>
			</g>
			<g>
				<g>
					<circle fill="#CED6E0" cx="24" cy="18.6" r="0.8"/>
				</g>
			</g>
			<g>
				<g>
					<circle fill="#CED6E0" cx="15.7" cy="22" r="0.8"/>
				</g>
			</g>
			<g>
				<g>
					<circle fill="#CED6E0" cx="12.2" cy="30.3" r="0.8"/>
				</g>
			</g>
			<g>
				<g>
					<circle fill="#CED6E0" cx="15.7" cy="38.7" r="0.8"/>
				</g>
			</g>
			<g>
				<g>
					<circle fill="#CED6E0" cx="24" cy="42.1" r="0.8"/>
				</g>
			</g>
			<g>
				<g>
					<circle fill="#CED6E0" cx="32.3" cy="38.7" r="0.8"/>
				</g>
			</g>
			<g>
				<g>
					<circle fill="#CED6E0" cx="35.8" cy="30.3" r="0.8"/>
				</g>
			</g>
			<g>
				<g>
					<circle fill="#CED6E0" cx="32.3" cy="22" r="0.8"/>
				</g>
			</g>
		</g>
	</g>
</g>
</svg>
