<?xml version="1.0" encoding="utf-8"?>
<!-- Generator: Adobe Illustrator 18.0.0, SVG Export Plug-In . SVG Version: 6.00 Build 0)  -->
<!DOCTYPE svg PUBLIC "-//W3C//DTD SVG 1.1//EN" "http://www.w3.org/Graphics/SVG/1.1/DTD/svg11.dtd">
<svg version="1.1" id="Layer_1" xmlns="http://www.w3.org/2000/svg" xmlns:xlink="http://www.w3.org/1999/xlink" x="0px" y="0px"
	 viewBox="0 0 48 48" enable-background="new 0 0 48 48" xml:space="preserve">
<g>
	<circle fill="#FFD15C" cx="24" cy="24" r="24"/>
	<circle fill="#FFD15C" cx="24" cy="24" r="19.6"/>
	<g>
		<ellipse fill="#FF7058" cx="36.2" cy="31.7" rx="3.2" ry="2.9"/>
		<path fill="#F1543F" d="M36.6,29.6L36.6,29.6c-0.2,0.2-0.6,0.2-0.8,0v0c-0.2-0.2-0.4-0.2-0.6-0.1c-0.9,0.4-1.6,1.2-1.6,2.2
			s0.6,1.8,1.6,2.2c0.2,0.1,0.5,0,0.6-0.1l0,0c0.2-0.2,0.6-0.2,0.8,0l0,0c0.2,0.2,0.4,0.2,0.6,0.1c0.9-0.4,1.6-1.2,1.6-2.2
			s-0.6-1.8-1.6-2.2C37,29.4,36.8,29.5,36.6,29.6z"/>
		<g>
			<path fill="#FF7058" d="M35.3,31.7c0,0.3,0.1,0.5,0.3,0.7c0.1,0.1,0.1,0.2,0.1,0.3l0,0c0,0.7-0.9,0.9-1.3,0.4
				c-0.3-0.4-0.6-0.9-0.6-1.4c0-0.6,0.2-1.1,0.6-1.4c0.4-0.5,1.3-0.2,1.3,0.4l0,0c0,0.1-0.1,0.2-0.1,0.3
				C35.4,31.2,35.3,31.4,35.3,31.7z"/>
			<g>
				<path fill="#FFD15C" d="M34.9,31.8L34.9,31.8v-0.2c-0.1-0.1-0.4-0.1-0.5,0l-0.1,0.1l0.1,0.1C34.5,31.9,34.8,31.9,34.9,31.8z"/>
				<path fill="#FFD15C" d="M35.2,31l0.1,0l0-0.1c-0.1-0.2-0.3-0.3-0.5-0.2l-0.1,0l0,0.1C34.8,31,35,31.1,35.2,31z"/>
				<path fill="#FFD15C" d="M34.8,32.8l-0.1,0l0-0.1c0.1-0.2,0.3-0.3,0.5-0.2l0.1,0l0,0.1C35.3,32.8,35,32.9,34.8,32.8z"/>
				<path fill="#FF7058" d="M37.3,31.7c0-0.2-0.1-0.5-0.3-0.6c-0.1-0.1-0.1-0.2-0.1-0.3v0c0-0.6,0.8-0.8,1.2-0.4
					c0.3,0.4,0.5,0.8,0.5,1.3s-0.2,0.9-0.5,1.3c-0.4,0.5-1.2,0.2-1.2-0.4l0,0c0-0.1,0-0.2,0.1-0.3C37.2,32.2,37.3,32,37.3,31.7z"/>
				<path fill="#FFD15C" d="M37.8,31.6L37.8,31.6v0.2c0.1,0.1,0.4,0.1,0.5,0l0.1-0.1l-0.1-0.1C38.2,31.5,37.9,31.5,37.8,31.6z"/>
				<path fill="#FFD15C" d="M37.5,32.4l-0.1,0l0,0.1c0.1,0.2,0.3,0.3,0.5,0.2l0.1,0l0-0.1C37.9,32.4,37.7,32.3,37.5,32.4z"/>
				<path fill="#FFD15C" d="M37.9,30.6l0.1,0l0,0.1c-0.1,0.2-0.3,0.3-0.5,0.2l-0.1,0l0-0.1C37.5,30.6,37.7,30.5,37.9,30.6z"/>
			</g>
		</g>
	</g>
	<g>
		
			<ellipse transform="matrix(0.8525 0.5227 -0.5227 0.8525 24.4492 -8.7907)" fill="#FF7058" cx="27.8" cy="38.9" rx="3.2" ry="2.9"/>
		<path fill="#F1543F" d="M29.2,37.3L29.2,37.3c-0.3,0.1-0.6-0.1-0.7-0.4v0c-0.1-0.2-0.2-0.4-0.5-0.4c-1-0.2-2,0.2-2.5,1.1
			c-0.5,0.8-0.4,1.9,0.2,2.7c0.1,0.2,0.4,0.3,0.6,0.2h0c0.3-0.1,0.6,0.1,0.7,0.4h0c0.1,0.2,0.2,0.4,0.5,0.4c1,0.2,2-0.2,2.5-1.1
			c0.5-0.8,0.4-1.9-0.2-2.7C29.7,37.4,29.5,37.3,29.2,37.3z"/>
		<g>
			<path fill="#FF7058" d="M27,38.5c-0.1,0.2-0.2,0.5-0.1,0.7c0,0.1,0,0.2,0,0.3l0,0c-0.3,0.6-1.2,0.3-1.4-0.3
				c-0.1-0.5,0-1.1,0.3-1.5c0.3-0.5,0.7-0.8,1.2-0.9c0.6-0.2,1.2,0.5,0.9,1.1l0,0c-0.1,0.1-0.2,0.2-0.3,0.2
				C27.4,38.1,27.2,38.2,27,38.5z"/>
			<g>
				<path fill="#FFD15C" d="M26.6,38.3l0.1,0l0-0.1c-0.1-0.2-0.3-0.3-0.5-0.3l-0.1,0l0,0.1C26.2,38.2,26.4,38.4,26.6,38.3z"/>
				<path fill="#FFD15C" d="M27.3,37.8l0.1,0l0-0.1c0-0.2-0.1-0.4-0.3-0.4l-0.1,0l0,0.1C27,37.6,27.1,37.8,27.3,37.8z"/>
				<path fill="#FFD15C" d="M26,39.2L26,39.2l0-0.2c0.2-0.1,0.4-0.1,0.5,0.1l0.1,0.1l-0.1,0.1C26.4,39.3,26.2,39.3,26,39.2z"/>
				<path fill="#FF7058" d="M28.7,39.5c0.1-0.2,0.1-0.4,0.1-0.7c0-0.1,0-0.2,0-0.3l0,0c0.3-0.5,1.1-0.3,1.2,0.3
					c0.1,0.5,0,0.9-0.3,1.4c-0.3,0.4-0.7,0.7-1.1,0.8c-0.6,0.2-1.1-0.5-0.8-1l0,0c0.1-0.1,0.1-0.2,0.3-0.2
					C28.4,39.8,28.6,39.7,28.7,39.5z"/>
				<path fill="#FFD15C" d="M29.2,39.7l-0.1,0l0,0.1c0.1,0.2,0.3,0.3,0.5,0.3l0.1,0l0-0.1C29.6,39.8,29.4,39.6,29.2,39.7z"/>
				<path fill="#FFD15C" d="M28.5,40.2l-0.1,0l0,0.1c0,0.2,0.1,0.4,0.3,0.4l0.1,0l0-0.1C28.8,40.4,28.7,40.2,28.5,40.2z"/>
				<path fill="#FFD15C" d="M29.8,38.8L29.8,38.8l0,0.2c-0.2,0.1-0.4,0.1-0.5-0.1l-0.1-0.1l0.1-0.1C29.4,38.7,29.7,38.7,29.8,38.8z"
					/>
			</g>
		</g>
	</g>
	<g>
		<ellipse fill="#FF7058" cx="27.4" cy="31.3" rx="3.2" ry="2.9"/>
		<path fill="#F1543F" d="M27.8,29.1L27.8,29.1c-0.2,0.2-0.6,0.2-0.8,0l0,0c-0.2-0.2-0.4-0.2-0.6-0.1c-0.9,0.4-1.6,1.2-1.6,2.2
			c0,1,0.6,1.8,1.6,2.2c0.2,0.1,0.5,0,0.6-0.1l0,0c0.2-0.2,0.6-0.2,0.8,0h0c0.2,0.2,0.4,0.2,0.6,0.1c0.9-0.4,1.6-1.2,1.6-2.2
			c0-1-0.6-1.8-1.6-2.2C28.2,28.9,28,29,27.8,29.1z"/>
		<g>
			<path fill="#FF7058" d="M26.5,31.3c0,0.3,0.1,0.5,0.3,0.7c0.1,0.1,0.1,0.2,0.1,0.3l0,0c0,0.7-0.9,0.9-1.3,0.4
				c-0.3-0.4-0.6-0.9-0.6-1.4s0.2-1.1,0.6-1.4c0.4-0.5,1.3-0.2,1.3,0.4l0,0c0,0.1-0.1,0.2-0.1,0.3C26.6,30.7,26.5,31,26.5,31.3z"/>
			<g>
				<path fill="#FFD15C" d="M26.1,31.3L26.1,31.3v-0.2c-0.1-0.1-0.4-0.1-0.5,0l-0.1,0.1l0.1,0.1C25.7,31.5,26,31.5,26.1,31.3z"/>
				<path fill="#FFD15C" d="M26.4,30.6l0.1,0l0-0.1c-0.1-0.2-0.3-0.3-0.5-0.2l-0.1,0l0,0.1C26,30.5,26.2,30.6,26.4,30.6z"/>
				<path fill="#FFD15C" d="M26,32.4l-0.1,0l0-0.1c0.1-0.2,0.3-0.3,0.5-0.2l0.1,0l0,0.1C26.4,32.3,26.2,32.4,26,32.4z"/>
				<path fill="#FF7058" d="M28.5,31.3c0-0.2-0.1-0.5-0.3-0.6c-0.1-0.1-0.1-0.2-0.1-0.3l0,0c0-0.6,0.8-0.8,1.2-0.4
					c0.3,0.4,0.5,0.8,0.5,1.3s-0.2,0.9-0.5,1.3c-0.4,0.5-1.2,0.2-1.2-0.4l0,0c0-0.1,0-0.2,0.1-0.3C28.4,31.7,28.5,31.5,28.5,31.3z"
					/>
				<path fill="#FFD15C" d="M29,31.2L29,31.2v0.2c0.1,0.1,0.4,0.1,0.5,0l0.1-0.1l-0.1-0.1C29.4,31,29.1,31,29,31.2z"/>
				<path fill="#FFD15C" d="M28.7,31.9l-0.1,0l0,0.1c0.1,0.2,0.3,0.3,0.5,0.2l0.1,0l0-0.1C29.1,32,28.9,31.9,28.7,31.9z"/>
				<path fill="#FFD15C" d="M29.1,30.1l0.1,0l0,0.1c-0.1,0.2-0.3,0.3-0.5,0.2l-0.1,0l0-0.1C28.6,30.2,28.9,30.1,29.1,30.1z"/>
			</g>
		</g>
	</g>
	<g>
		
			<ellipse transform="matrix(0.6016 -0.7988 0.7988 0.6016 -18.7574 19.4801)" fill="#FF7058" cx="10.1" cy="28.5" rx="3.2" ry="2.9"/>
		<path fill="#F1543F" d="M8.7,27L8.7,27c0,0.3-0.2,0.6-0.5,0.6l0,0c-0.2,0-0.4,0.2-0.5,0.4c-0.3,1,0,2,0.8,2.6s1.9,0.6,2.7,0.1
			c0.2-0.1,0.3-0.3,0.3-0.6h0c0-0.3,0.2-0.6,0.5-0.6h0c0.2,0,0.4-0.2,0.5-0.4c0.3-1,0-2-0.8-2.6S9.8,25.9,9,26.4
			C8.8,26.5,8.7,26.7,8.7,27z"/>
		<g>
			<path fill="#FF7058" d="M9.6,29.3c0.2,0.2,0.5,0.2,0.7,0.2c0.1,0,0.2,0,0.3,0.1l0,0c0.5,0.4,0.2,1.3-0.4,1.3
				c-0.5,0-1.1-0.1-1.5-0.4S8,29.6,7.9,29.1c-0.1-0.7,0.6-1.2,1.2-0.8l0,0c0.1,0.1,0.2,0.2,0.2,0.3C9.3,28.9,9.4,29.1,9.6,29.3z"/>
			<g>
				<path fill="#FFD15C" d="M9.4,29.6l0-0.1l-0.1,0C9.1,29.6,9,29.8,9,30l0,0.1l0.1,0C9.3,30,9.4,29.8,9.4,29.6z"/>
				<path fill="#FFD15C" d="M9,28.9l0-0.1l-0.1,0c-0.2-0.1-0.4,0.1-0.5,0.3l0,0.1l0.1,0C8.7,29.2,9,29.1,9,28.9z"/>
				<path fill="#FFD15C" d="M10.2,30.3l-0.1,0.1L10,30.3c-0.1-0.2-0.1-0.4,0.1-0.5l0.1-0.1l0.1,0.1C10.4,30,10.4,30.2,10.2,30.3z"/>
				<path fill="#FF7058" d="M10.8,27.7c-0.2-0.1-0.4-0.2-0.7-0.1c-0.1,0-0.2,0-0.3-0.1l0,0c-0.5-0.4-0.2-1.1,0.4-1.2
					c0.5,0,0.9,0.1,1.3,0.4c0.4,0.3,0.6,0.7,0.7,1.2c0.1,0.6-0.6,1.1-1,0.7l0,0c-0.1-0.1-0.1-0.2-0.2-0.3
					C11.1,28.1,11,27.8,10.8,27.7z"/>
				<path fill="#FFD15C" d="M11,27.2l0,0.1l0.1,0c0.2,0,0.3-0.2,0.3-0.4l0-0.1l-0.1,0C11.2,26.8,11,27,11,27.2z"/>
				<path fill="#FFD15C" d="M11.4,27.9l0,0.1l0.1,0c0.2,0.1,0.4-0.1,0.5-0.3l0-0.1l-0.1,0C11.7,27.6,11.5,27.8,11.4,27.9z"/>
				<path fill="#FFD15C" d="M10.3,26.6l0.1-0.1l0.1,0.1c0.1,0.2,0.1,0.4-0.1,0.5l-0.1,0.1l-0.1-0.1C10,26.9,10.1,26.7,10.3,26.6z"/>
			</g>
		</g>
	</g>
	<g>
		<ellipse transform="matrix(0.7869 0.6171 -0.6171 0.7869 21.5465 -4.4094)" fill="#FF7058" cx="17.2" cy="29" rx="3.2" ry="2.9"/>
		<path fill="#F1543F" d="M18.8,27.6L18.8,27.6c-0.3,0-0.6-0.2-0.6-0.5v0c0-0.2-0.2-0.4-0.4-0.5c-1-0.3-2,0-2.6,0.8
			c-0.6,0.8-0.6,1.9-0.1,2.7c0.1,0.2,0.3,0.3,0.6,0.3h0c0.3,0,0.6,0.2,0.6,0.5v0c0,0.2,0.2,0.4,0.4,0.5c1,0.3,2,0,2.6-0.8
			c0.6-0.8,0.6-1.9,0.1-2.7C19.2,27.7,19,27.6,18.8,27.6z"/>
		<g>
			<path fill="#FF7058" d="M16.4,28.4c-0.2,0.2-0.2,0.5-0.2,0.7c0,0.1,0,0.2-0.1,0.3l0,0c-0.4,0.5-1.3,0.2-1.3-0.5
				c0-0.5,0.1-1.1,0.5-1.5s0.8-0.7,1.3-0.8c0.7-0.1,1.2,0.7,0.8,1.2l0,0c-0.1,0.1-0.2,0.2-0.3,0.2C16.9,28.1,16.6,28.2,16.4,28.4z"
				/>
			<g>
				<path fill="#FFD15C" d="M16.1,28.2l0.1,0l0-0.1c0-0.2-0.2-0.3-0.4-0.3l-0.1,0l0,0.1C15.7,28.1,15.9,28.3,16.1,28.2z"/>
				<path fill="#FFD15C" d="M16.8,27.9l0.1,0l0-0.1c0.1-0.2,0-0.4-0.2-0.5l-0.1,0l0,0.1C16.5,27.6,16.6,27.8,16.8,27.9z"/>
				<path fill="#FFD15C" d="M15.4,29l-0.1-0.1l0.1-0.1c0.2-0.1,0.4,0,0.5,0.1l0.1,0.1l-0.1,0.1C15.7,29.2,15.5,29.2,15.4,29z"/>
				<path fill="#FF7058" d="M18,29.6c0.1-0.2,0.2-0.4,0.2-0.7c0-0.1,0-0.2,0.1-0.3l0,0c0.4-0.5,1.1-0.2,1.2,0.4
					c0,0.5-0.1,0.9-0.4,1.3c-0.3,0.4-0.7,0.6-1.2,0.7c-0.6,0.1-1-0.6-0.7-1l0,0c0.1-0.1,0.2-0.1,0.3-0.1
					C17.6,29.9,17.8,29.8,18,29.6z"/>
				<path fill="#FFD15C" d="M18.5,29.9l-0.1,0l0,0.1c0,0.2,0.2,0.3,0.4,0.3l0.1,0l0-0.1C18.8,30,18.7,29.9,18.5,29.9z"/>
				<path fill="#FFD15C" d="M17.7,30.3l-0.1,0l0,0.1c-0.1,0.2,0,0.4,0.2,0.5l0.1,0l0-0.1C18,30.6,17.9,30.4,17.7,30.3z"/>
				<path fill="#FFD15C" d="M19.1,29.1l0.1,0.1l-0.1,0.1c-0.2,0.1-0.4,0-0.5-0.1l-0.1-0.1l0.1-0.1C18.8,28.9,19,29,19.1,29.1z"/>
			</g>
		</g>
	</g>
	<g>
		<ellipse fill="#FF7058" cx="31.4" cy="21.6" rx="3.2" ry="2.9"/>
		<path fill="#F1543F" d="M31.8,19.5L31.8,19.5c-0.2,0.2-0.6,0.2-0.8,0l0,0c-0.2-0.2-0.4-0.2-0.6-0.1c-0.9,0.4-1.6,1.2-1.6,2.2
			c0,1,0.6,1.8,1.6,2.2c0.2,0.1,0.5,0,0.6-0.1h0c0.2-0.2,0.6-0.2,0.8,0l0,0c0.2,0.2,0.4,0.2,0.6,0.1c0.9-0.4,1.6-1.2,1.6-2.2
			c0-1-0.6-1.8-1.6-2.2C32.2,19.3,31.9,19.4,31.8,19.5z"/>
		<g>
			<path fill="#FF7058" d="M30.5,21.6c0,0.3,0.1,0.5,0.3,0.7c0.1,0.1,0.1,0.2,0.1,0.3l0,0c0,0.7-0.9,0.9-1.3,0.4
				c-0.3-0.4-0.6-0.9-0.6-1.4s0.2-1.1,0.6-1.4c0.4-0.5,1.3-0.2,1.3,0.4l0,0c0,0.1-0.1,0.2-0.1,0.3C30.6,21.1,30.5,21.4,30.5,21.6z"
				/>
			<g>
				<path fill="#FFD15C" d="M30.1,21.7L30.1,21.7v-0.2c-0.1-0.1-0.4-0.1-0.5,0l-0.1,0.1l0.1,0.1C29.7,21.8,29.9,21.8,30.1,21.7z"/>
				<path fill="#FFD15C" d="M30.4,21l0.1,0l0-0.1c-0.1-0.2-0.3-0.3-0.5-0.2l-0.1,0l0,0.1C30,20.9,30.2,21,30.4,21z"/>
				<path fill="#FFD15C" d="M30,22.7l-0.1,0l0-0.1c0.1-0.2,0.3-0.3,0.5-0.2l0.1,0l0,0.1C30.4,22.7,30.2,22.8,30,22.7z"/>
				<path fill="#FF7058" d="M32.4,21.6c0-0.2-0.1-0.5-0.3-0.6c-0.1-0.1-0.1-0.2-0.1-0.3l0,0c0-0.6,0.8-0.8,1.2-0.4
					c0.3,0.4,0.5,0.8,0.5,1.3s-0.2,0.9-0.5,1.3c-0.4,0.5-1.2,0.2-1.2-0.4l0,0c0-0.1,0-0.2,0.1-0.3C32.3,22.1,32.4,21.9,32.4,21.6z"
					/>
				<path fill="#FFD15C" d="M33,21.5L33,21.5v0.2c0.1,0.1,0.4,0.1,0.5,0l0.1-0.1l-0.1-0.1C33.3,21.4,33.1,21.4,33,21.5z"/>
				<path fill="#FFD15C" d="M32.6,22.3l-0.1,0l0,0.1c0.1,0.2,0.3,0.3,0.5,0.2l0.1,0l0-0.1C33,22.3,32.8,22.2,32.6,22.3z"/>
				<path fill="#FFD15C" d="M33,20.5l0.1,0l0,0.1c-0.1,0.2-0.3,0.3-0.5,0.2l-0.1,0l0-0.1C32.6,20.5,32.8,20.4,33,20.5z"/>
			</g>
		</g>
	</g>
	<g>
		
			<ellipse transform="matrix(0.9635 -0.2677 0.2677 0.9635 -4.7294 5.6432)" fill="#FF7058" cx="18.3" cy="20.2" rx="3.2" ry="2.9"/>
		<path fill="#F1543F" d="M18.2,18L18.2,18c-0.2,0.3-0.5,0.4-0.8,0.2h0c-0.2-0.1-0.4-0.1-0.6,0.1c-0.8,0.6-1.2,1.6-0.9,2.6
			c0.3,1,1.1,1.6,2.1,1.7c0.2,0,0.5-0.1,0.6-0.3v0c0.2-0.3,0.5-0.4,0.8-0.2l0,0c0.2,0.1,0.4,0.1,0.6-0.1c0.8-0.6,1.2-1.6,0.9-2.6
			c-0.3-1-1.1-1.6-2.1-1.7C18.5,17.7,18.3,17.8,18.2,18z"/>
		<g>
			<path fill="#FF7058" d="M17.5,20.4c0.1,0.3,0.3,0.5,0.5,0.6c0.1,0.1,0.2,0.2,0.2,0.3l0,0c0.2,0.6-0.6,1.1-1.2,0.8
				c-0.4-0.3-0.8-0.7-0.9-1.2c-0.1-0.5-0.1-1.1,0.2-1.5c0.3-0.6,1.2-0.6,1.4,0.1l0,0c0,0.1,0,0.2-0.1,0.3
				C17.4,19.9,17.4,20.1,17.5,20.4z"/>
			<g>
				<path fill="#FFD15C" d="M17.1,20.6l0.1-0.1L17,20.4c-0.2-0.1-0.4,0-0.5,0.1l-0.1,0.1l0.1,0.1C16.8,20.8,17,20.8,17.1,20.6z"/>
				<path fill="#FFD15C" d="M17.2,19.8l0.1-0.1l-0.1-0.1c-0.1-0.2-0.3-0.2-0.5-0.1l-0.1,0.1l0.1,0.1C16.8,19.9,17,19.9,17.2,19.8z"
					/>
				<path fill="#FFD15C" d="M17.3,21.6l-0.1,0l0-0.1c0-0.2,0.2-0.3,0.4-0.3l0.1,0l0,0.1C17.7,21.5,17.5,21.6,17.3,21.6z"/>
				<path fill="#FF7058" d="M19.3,19.9c-0.1-0.2-0.2-0.4-0.4-0.5c-0.1,0-0.2-0.1-0.2-0.2l0,0c-0.2-0.6,0.5-1,1-0.7
					c0.4,0.3,0.7,0.6,0.8,1.1c0.1,0.5,0.1,1-0.1,1.4c-0.3,0.5-1.1,0.5-1.2-0.1l0,0c0-0.1,0-0.2,0-0.3C19.4,20.4,19.4,20.1,19.3,19.9
					z"/>
				<path fill="#FFD15C" d="M19.8,19.7l-0.1,0.1l0.1,0.1c0.2,0.1,0.4,0,0.5-0.1l0.1-0.1l-0.1-0.1C20.2,19.4,19.9,19.5,19.8,19.7z"/>
				<path fill="#FFD15C" d="M19.7,20.5l-0.1,0.1l0.1,0.1c0.1,0.2,0.3,0.2,0.5,0.1l0.1-0.1l-0.1-0.1C20.1,20.4,19.9,20.4,19.7,20.5z"
					/>
				<path fill="#FFD15C" d="M19.6,18.6l0.1,0l0,0.1c0,0.2-0.2,0.3-0.4,0.3l-0.1,0l0-0.1C19.2,18.8,19.4,18.6,19.6,18.6z"/>
			</g>
		</g>
	</g>
	<g>
		<ellipse fill="#FF7058" cx="25.8" cy="9.2" rx="3.2" ry="2.9"/>
		<path fill="#F1543F" d="M26.2,7.1L26.2,7.1c-0.2,0.2-0.6,0.2-0.8,0l0,0C25.3,6.9,25,6.9,24.8,7c-0.9,0.4-1.6,1.2-1.6,2.2
			s0.6,1.8,1.6,2.2c0.2,0.1,0.5,0,0.6-0.1l0,0c0.2-0.2,0.6-0.2,0.8,0v0c0.2,0.2,0.4,0.2,0.6,0.1c0.9-0.4,1.6-1.2,1.6-2.2
			S27.8,7.3,26.9,7C26.6,6.9,26.4,6.9,26.2,7.1z"/>
		<g>
			<path fill="#FF7058" d="M24.9,9.2c0,0.3,0.1,0.5,0.3,0.7c0.1,0.1,0.1,0.2,0.1,0.3l0,0c0,0.7-0.9,0.9-1.3,0.4
				c-0.3-0.4-0.6-0.9-0.6-1.4c0-0.6,0.2-1.1,0.6-1.4c0.4-0.5,1.3-0.2,1.3,0.4l0,0c0,0.1-0.1,0.2-0.1,0.3C25,8.7,24.9,8.9,24.9,9.2z"
				/>
			<g>
				<path fill="#FFD15C" d="M24.5,9.3L24.5,9.3V9.1C24.4,9,24.1,9,24,9.1l-0.1,0.1L24,9.3C24.1,9.4,24.4,9.4,24.5,9.3z"/>
				<path fill="#FFD15C" d="M24.8,8.5l0.1,0l0-0.1c-0.1-0.2-0.3-0.3-0.5-0.2l-0.1,0l0,0.1C24.4,8.5,24.7,8.6,24.8,8.5z"/>
				<path fill="#FFD15C" d="M24.4,10.3l-0.1,0l0-0.1c0.1-0.2,0.3-0.3,0.5-0.2l0.1,0l0,0.1C24.9,10.3,24.6,10.4,24.4,10.3z"/>
				<path fill="#FF7058" d="M26.9,9.2c0-0.2-0.1-0.5-0.3-0.6c-0.1-0.1-0.1-0.2-0.1-0.3l0,0c0-0.6,0.8-0.8,1.2-0.4
					c0.3,0.4,0.5,0.8,0.5,1.3s-0.2,0.9-0.5,1.3c-0.4,0.5-1.2,0.2-1.2-0.4l0,0c0-0.1,0-0.2,0.1-0.3C26.8,9.6,26.9,9.4,26.9,9.2z"/>
				<path fill="#FFD15C" d="M27.4,9.1L27.4,9.1v0.2c0.1,0.1,0.4,0.1,0.5,0L28,9.2l-0.1-0.1C27.8,9,27.6,9,27.4,9.1z"/>
				<path fill="#FFD15C" d="M27.1,9.9l-0.1,0l0,0.1c0.1,0.2,0.3,0.3,0.5,0.2l0.1,0l0-0.1C27.5,9.9,27.3,9.8,27.1,9.9z"/>
				<path fill="#FFD15C" d="M27.5,8.1l0.1,0l0,0.1c-0.1,0.2-0.3,0.3-0.5,0.2l-0.1,0l0-0.1C27.1,8.1,27.3,8,27.5,8.1z"/>
			</g>
		</g>
	</g>
	<g>
		<ellipse fill="#FF7058" cx="37.3" cy="16.2" rx="3.2" ry="2.9"/>
		<path fill="#F1543F" d="M37.7,14.1L37.7,14.1c-0.2,0.2-0.6,0.2-0.8,0v0c-0.2-0.2-0.4-0.2-0.6-0.1c-0.9,0.4-1.6,1.2-1.6,2.2
			s0.6,1.8,1.6,2.2c0.2,0.1,0.5,0,0.6-0.1l0,0c0.2-0.2,0.6-0.2,0.8,0l0,0c0.2,0.2,0.4,0.2,0.6,0.1c0.9-0.4,1.6-1.2,1.6-2.2
			s-0.6-1.8-1.6-2.2C38.1,13.9,37.9,14,37.7,14.1z"/>
		<g>
			<path fill="#FF7058" d="M36.4,16.2c0,0.3,0.1,0.5,0.3,0.7c0.1,0.1,0.1,0.2,0.1,0.3v0c0,0.7-0.9,0.9-1.3,0.4
				c-0.3-0.4-0.6-0.9-0.6-1.4s0.2-1.1,0.6-1.4c0.4-0.5,1.3-0.2,1.3,0.4l0,0c0,0.1-0.1,0.2-0.1,0.3C36.5,15.7,36.4,15.9,36.4,16.2z"
				/>
			<g>
				<path fill="#FFD15C" d="M36,16.3L36,16.3v-0.2c-0.1-0.1-0.4-0.1-0.5,0l-0.1,0.1l0.1,0.1C35.6,16.4,35.9,16.4,36,16.3z"/>
				<path fill="#FFD15C" d="M36.3,15.5l0.1,0l0-0.1c-0.1-0.2-0.3-0.3-0.5-0.2l-0.1,0l0,0.1C35.9,15.5,36.1,15.6,36.3,15.5z"/>
				<path fill="#FFD15C" d="M35.9,17.3l-0.1,0l0-0.1c0.1-0.2,0.3-0.3,0.5-0.2l0.1,0l0,0.1C36.3,17.3,36.1,17.4,35.9,17.3z"/>
				<path fill="#FF7058" d="M38.4,16.2c0-0.2-0.1-0.5-0.3-0.6C38,15.5,38,15.4,38,15.3l0,0c0-0.6,0.8-0.8,1.2-0.4
					c0.3,0.4,0.5,0.8,0.5,1.3c0,0.5-0.2,0.9-0.5,1.3C38.8,18,38,17.7,38,17.1l0,0c0-0.1,0-0.2,0.1-0.3
					C38.3,16.7,38.4,16.5,38.4,16.2z"/>
				<path fill="#FFD15C" d="M38.9,16.1L38.9,16.1v0.2c0.1,0.1,0.4,0.1,0.5,0l0.1-0.1l-0.1-0.1C39.3,16,39,16,38.9,16.1z"/>
				<path fill="#FFD15C" d="M38.6,16.9l-0.1,0l0,0.1c0.1,0.2,0.3,0.3,0.5,0.2l0.1,0l0-0.1C39,16.9,38.8,16.8,38.6,16.9z"/>
				<path fill="#FFD15C" d="M39,15.1l0.1,0l0,0.1c-0.1,0.2-0.3,0.3-0.5,0.2l-0.1,0l0-0.1C38.6,15.1,38.8,15,39,15.1z"/>
			</g>
		</g>
	</g>
	<g>
		<ellipse fill="#FF7058" cx="13.5" cy="15.4" rx="3.2" ry="2.9"/>
		<path fill="#F1543F" d="M13.9,13.3L13.9,13.3c-0.2,0.2-0.6,0.2-0.8,0l0,0c-0.2-0.2-0.4-0.2-0.6-0.1c-0.9,0.4-1.6,1.2-1.6,2.2
			s0.6,1.8,1.6,2.2c0.2,0.1,0.5,0,0.6-0.1h0c0.2-0.2,0.6-0.2,0.8,0h0c0.2,0.2,0.4,0.2,0.6,0.1c0.9-0.4,1.6-1.2,1.6-2.2
			s-0.6-1.8-1.6-2.2C14.3,13.1,14.1,13.1,13.9,13.3z"/>
		<g>
			<path fill="#FF7058" d="M12.6,15.4c0,0.3,0.1,0.5,0.3,0.7c0.1,0.1,0.1,0.2,0.1,0.3v0c0,0.7-0.9,0.9-1.3,0.4
				c-0.3-0.4-0.6-0.9-0.6-1.4c0-0.6,0.2-1.1,0.6-1.4c0.4-0.5,1.3-0.2,1.3,0.4l0,0c0,0.1-0.1,0.2-0.1,0.3
				C12.7,14.8,12.6,15.1,12.6,15.4z"/>
			<g>
				<path fill="#FFD15C" d="M12.2,15.4L12.2,15.4v-0.2c-0.1-0.1-0.4-0.1-0.5,0l-0.1,0.1l0.1,0.1C11.8,15.6,12,15.6,12.2,15.4z"/>
				<path fill="#FFD15C" d="M12.5,14.7l0.1,0l0-0.1c-0.1-0.2-0.3-0.3-0.5-0.2l-0.1,0l0,0.1C12.1,14.7,12.3,14.8,12.5,14.7z"/>
				<path fill="#FFD15C" d="M12.1,16.5l-0.1,0l0-0.1c0.1-0.2,0.3-0.3,0.5-0.2l0.1,0l0,0.1C12.5,16.4,12.3,16.5,12.1,16.5z"/>
				<path fill="#FF7058" d="M14.6,15.4c0-0.2-0.1-0.5-0.3-0.6c-0.1-0.1-0.1-0.2-0.1-0.3l0,0c0-0.6,0.8-0.8,1.2-0.4
					c0.3,0.4,0.5,0.8,0.5,1.3s-0.2,0.9-0.5,1.3c-0.4,0.5-1.2,0.2-1.2-0.4l0,0c0-0.1,0-0.2,0.1-0.3C14.4,15.8,14.6,15.6,14.6,15.4z"
					/>
				<path fill="#FFD15C" d="M15.1,15.3L15.1,15.3v0.2c0.1,0.1,0.4,0.1,0.5,0l0.1-0.1l-0.1-0.1C15.5,15.1,15.2,15.1,15.1,15.3z"/>
				<path fill="#FFD15C" d="M14.8,16l-0.1,0l0,0.1c0.1,0.2,0.3,0.3,0.5,0.2l0.1,0l0-0.1C15.2,16.1,14.9,16,14.8,16z"/>
				<path fill="#FFD15C" d="M15.2,14.2l0.1,0l0,0.1c-0.1,0.2-0.3,0.3-0.5,0.2l-0.1,0l0-0.1C14.7,14.3,15,14.2,15.2,14.2z"/>
			</g>
		</g>
	</g>
	<g>
		<path fill="#40596B" d="M32,37.7c-0.1-0.7,0.6-1.4,1.4-1.5c0.8-0.1,1.8,0.3,1.8,1c0.1,0.7-0.9,1.4-1.7,1.5
			C32.8,38.7,32.1,38.4,32,37.7z"/>
		<circle fill="#334A5E" cx="34.4" cy="37.2" r="0.3"/>
	</g>
	<g>
		<path fill="#40596B" d="M31,26c0.7-0.2,1.5,0.3,1.7,1.1c0.2,0.8,0,1.8-0.7,2c-0.7,0.2-1.5-0.7-1.7-1.4C30.2,26.9,30.4,26.1,31,26z
			"/>
		<circle fill="#334A5E" cx="31.9" cy="28.2" r="0.3"/>
	</g>
	<g>
		<path fill="#40596B" d="M22,38.3c0.7-0.2,1.5,0.3,1.7,1.1c0.2,0.8,0,1.8-0.7,2s-1.5-0.7-1.7-1.4C21.1,39.3,21.3,38.5,22,38.3z"/>
		<circle fill="#334A5E" cx="22.8" cy="40.6" r="0.3"/>
	</g>
	<g>
		<path fill="#40596B" d="M22.1,33.4c-0.5,0.5-1.5,0.5-2,0c-0.5-0.5-0.9-1.6-0.5-2s1.6-0.2,2.2,0.3C22.4,32.2,22.6,33,22.1,33.4z"/>
		<circle fill="#334A5E" cx="20.2" cy="32" r="0.3"/>
	</g>
	<g>
		<path fill="#40596B" d="M23.9,15c-0.4-0.6-0.2-1.5,0.4-2s1.7-0.6,2.1-0.1c0.4,0.6,0,1.7-0.7,2.1C25,15.4,24.3,15.5,23.9,15z"/>
		<circle fill="#334A5E" cx="25.6" cy="13.3" r="0.3"/>
	</g>
	<g>
		<path fill="#40596B" d="M28,20.4c-0.5,0.5-1.5,0.5-2,0c-0.5-0.5-0.9-1.6-0.5-2s1.6-0.2,2.2,0.3C28.2,19.2,28.4,19.9,28,20.4z"/>
		<circle fill="#334A5E" cx="26.1" cy="18.9" r="0.3"/>
	</g>
	<g>
		<path fill="#40596B" d="M41.4,20.2c0.1,0.7-0.6,1.4-1.3,1.5c-0.8,0.1-1.8-0.3-1.9-1c-0.1-0.7,0.9-1.4,1.7-1.5S41.4,19.5,41.4,20.2
			z"/>
		<circle fill="#334A5E" cx="39.1" cy="20.7" r="0.3"/>
	</g>
	<g>
		<g>
			<path fill="#FFFFFF" d="M21.9,8.7c-0.7-1.7-2.6-2.4-4.3-1.7C16,7.7,15.2,9.7,16,11.4c0.2,0.4,0.2,0.2,0.5,0.5
				c0.2,0.2,0.6,0.3,0.9,0.2l0,0c0.5-0.2,1.1,0.1,1.2,0.7l0.2,0.9c0.1,0.6,0.7,0.9,1.2,0.7l1.2-0.5c0.5-0.2,0.7-0.9,0.4-1.3
				l-0.5-0.7c-0.3-0.5-0.1-1.1,0.4-1.3v0c0.3-0.1,0.5-0.4,0.5-0.8C22,9.1,22.1,9.1,21.9,8.7z"/>
		</g>
		<g opacity="0.1">
			<path fill="#231F20" d="M21,13.3l-1.2,0.5c-0.4,0.2-0.8,0-1.1-0.3l0,0c0.1,0.6,0.7,0.9,1.2,0.7l1.2-0.5c0.5-0.2,0.7-0.9,0.4-1.3
				l0,0C21.6,12.8,21.4,13.2,21,13.3z"/>
			<path fill="#231F20" d="M18.5,12.3L18.5,12.3c-0.1-0.6-0.7-0.9-1.2-0.7l0,0c-0.3,0.1-0.7,0.1-0.9-0.2c-0.2-0.2-0.3-0.2-0.4-0.4
				c0,0.1,0,0.2,0.1,0.2c0.2,0.4,0.2,0.2,0.5,0.5c0.2,0.2,0.6,0.3,0.9,0.2l0,0C17.8,11.8,18.3,12,18.5,12.3z"/>
			<path fill="#231F20" d="M21.8,9.2c0,0.3-0.2,0.6-0.5,0.8c-0.5,0.2-0.7,0.9-0.4,1.3l0,0c-0.1-0.4,0.1-0.8,0.5-1
				c0.3-0.1,0.5-0.4,0.5-0.8c0-0.4,0.1-0.4-0.1-0.8c0,0,0-0.1-0.1-0.1C21.9,8.8,21.8,8.9,21.8,9.2z"/>
		</g>
	</g>
	<g>
		<g>
			<path fill="#FFFFFF" d="M34,15c1.2-1.4,1-3.4-0.4-4.6c-1.4-1.1-3.5-0.9-4.6,0.5c-0.2,0.3-0.1,0.3-0.2,0.7c-0.1,0.3,0,0.7,0.3,0.9
				l0,0c0.4,0.4,0.4,1,0,1.4l-0.7,0.5c-0.4,0.3-0.5,1,0,1.4l1,0.8c0.4,0.4,1.1,0.2,1.3-0.3l0.4-0.8c0.3-0.5,0.9-0.6,1.3-0.3v0
				c0.3,0.2,0.6,0.3,0.9,0.1C33.7,15.2,33.7,15.3,34,15z"/>
		</g>
		<g opacity="0.1">
			<path fill="#231F20" d="M29.5,16.3l-1-0.8c-0.3-0.3-0.4-0.7-0.2-1.1l0,0c-0.4,0.3-0.5,1,0,1.4l1,0.8c0.4,0.4,1.1,0.2,1.3-0.3l0,0
				C30.3,16.6,29.9,16.6,29.5,16.3z"/>
			<path fill="#231F20" d="M29.2,13.6L29.2,13.6c0.5-0.3,0.5-1,0-1.4l0,0C29,12,28.9,11.6,29,11.3c0.1-0.3,0-0.4,0.2-0.6
				c-0.1,0.1-0.1,0.1-0.2,0.2c-0.2,0.3-0.1,0.3-0.2,0.7c-0.1,0.3,0,0.7,0.3,0.9l0,0C29.4,12.8,29.4,13.2,29.2,13.6z"/>
			<path fill="#231F20" d="M33.6,15.1c-0.3,0.2-0.7,0.1-0.9-0.1c-0.4-0.4-1.1-0.2-1.3,0.3l0,0c0.3-0.2,0.8-0.3,1.1,0
				c0.3,0.2,0.6,0.3,0.9,0.1c0.4-0.2,0.4-0.1,0.7-0.4c0,0,0.1-0.1,0.1-0.1C33.9,15,33.9,15,33.6,15.1z"/>
		</g>
	</g>
	<g>
		<g>
			<path fill="#FFFFFF" d="M35.6,27c0.9,1.5,3,2,4.5,1c1.5-1,2-3.1,0.9-4.6c-0.2-0.3-0.3-0.2-0.6-0.4c-0.3-0.2-0.6-0.2-0.9,0l0,0
				c-0.5,0.3-1.1,0.1-1.3-0.5L38,21.8c-0.2-0.5-0.8-0.8-1.3-0.5L35.6,22c-0.5,0.3-0.6,1-0.2,1.4L36,24c0.4,0.4,0.3,1.1-0.2,1.4v0
				c-0.3,0.2-0.5,0.5-0.4,0.8C35.5,26.6,35.4,26.6,35.6,27z"/>
		</g>
		<g opacity="0.1">
			<path fill="#231F20" d="M35.8,22.3l1.1-0.7c0.4-0.2,0.8-0.1,1.1,0.2l0,0c-0.2-0.5-0.8-0.8-1.3-0.5L35.6,22
				c-0.5,0.3-0.6,1-0.2,1.4l0,0C35.3,23,35.4,22.5,35.8,22.3z"/>
			<path fill="#231F20" d="M38.5,22.9L38.5,22.9c0.2,0.5,0.8,0.8,1.3,0.5l0,0c0.3-0.2,0.7-0.2,0.9,0c0.3,0.2,0.3,0.1,0.5,0.3
				c0-0.1-0.1-0.2-0.1-0.2c-0.2-0.3-0.3-0.2-0.6-0.4c-0.3-0.2-0.6-0.2-0.9,0l0,0C39.2,23.3,38.7,23.2,38.5,22.9z"/>
			<path fill="#231F20" d="M35.6,26.5c0-0.3,0.1-0.7,0.4-0.8c0.5-0.3,0.6-1,0.2-1.4l0,0c0.1,0.4,0,0.8-0.4,1
				c-0.3,0.2-0.5,0.5-0.4,0.8c0.1,0.4,0,0.4,0.2,0.8c0,0,0.1,0.1,0.1,0.1C35.6,26.9,35.7,26.8,35.6,26.5z"/>
		</g>
	</g>
	<g>
		<g>
			<path fill="#FFFFFF" d="M16.6,39.7c1.8,0.1,3.4-1.2,3.5-3c0.1-1.8-1.4-3.4-3.1-3.4c-0.4,0-0.3,0.1-0.7,0.2
				c-0.3,0.1-0.5,0.4-0.6,0.8l0,0c0,0.6-0.6,0.9-1.1,0.8l-0.8-0.3c-0.5-0.2-1.1,0.2-1.1,0.8l-0.1,1.3c0,0.6,0.5,1,1,0.9l0.9-0.1
				c0.6-0.1,1,0.4,1,0.9l0,0c0,0.3,0.1,0.7,0.4,0.8C16.2,39.6,16.1,39.7,16.6,39.7z"/>
		</g>
		<g opacity="0.1">
			<path fill="#231F20" d="M12.9,36.8l0.1-1.3c0-0.4,0.4-0.8,0.8-0.8l0,0c-0.5-0.2-1.1,0.2-1.1,0.8l-0.1,1.3c0,0.6,0.5,1,1,0.9l0,0
				C13.1,37.6,12.8,37.3,12.9,36.8z"/>
			<path fill="#231F20" d="M14.9,35L14.9,35c0.6,0.2,1.1-0.2,1.1-0.8l0,0c0-0.3,0.2-0.6,0.6-0.8c0.3-0.1,0.3-0.2,0.5-0.2
				c-0.1,0-0.2,0-0.3,0c-0.4,0-0.3,0.1-0.7,0.2c-0.3,0.1-0.5,0.4-0.6,0.8l0,0C15.6,34.6,15.3,34.9,14.9,35z"/>
			<path fill="#231F20" d="M16.2,39.4c-0.3-0.2-0.5-0.5-0.4-0.8c0-0.6-0.5-1-1-0.9l0,0c0.4,0.1,0.7,0.5,0.6,0.9
				c0,0.3,0.1,0.7,0.4,0.8c0.4,0.2,0.3,0.3,0.8,0.3c0.1,0,0.1,0,0.2,0C16.5,39.6,16.5,39.5,16.2,39.4z"/>
		</g>
	</g>
	<g>
		<g>
			<path fill="#FFFFFF" d="M26.2,26.7c1.3-1.2,1.4-3.3,0.1-4.6c-1.2-1.3-3.4-1.3-4.7,0c-0.3,0.3-0.1,0.3-0.3,0.6
				c-0.1,0.3-0.1,0.7,0.2,0.9l0,0c0.4,0.4,0.3,1.1-0.2,1.4l-0.8,0.4c-0.5,0.3-0.6,0.9-0.2,1.4l0.9,1c0.4,0.4,1.1,0.4,1.4-0.1
				l0.5-0.7c0.3-0.5,1-0.5,1.4-0.1h0c0.2,0.2,0.6,0.4,0.9,0.2C25.9,26.9,25.9,27,26.2,26.7z"/>
		</g>
		<g opacity="0.1">
			<path fill="#231F20" d="M21.6,27.5l-0.9-1c-0.3-0.3-0.3-0.8-0.1-1.1l0,0c-0.5,0.3-0.6,0.9-0.2,1.4l0.9,1c0.4,0.4,1.1,0.4,1.4-0.1
				l0,0C22.4,27.8,21.9,27.8,21.6,27.5z"/>
			<path fill="#231F20" d="M21.7,24.7L21.7,24.7c0.5-0.3,0.6-1,0.2-1.4l0,0c-0.2-0.2-0.3-0.6-0.2-0.9c0.1-0.3,0.1-0.4,0.2-0.5
				c-0.1,0.1-0.1,0.1-0.2,0.2c-0.3,0.3-0.2,0.3-0.3,0.6c-0.1,0.3-0.1,0.7,0.2,0.9l0,0C21.9,23.9,21.9,24.4,21.7,24.7z"/>
			<path fill="#231F20" d="M25.8,26.8c-0.3,0.1-0.7,0-0.9-0.2c-0.4-0.4-1.1-0.4-1.4,0.1l0,0c0.3-0.2,0.8-0.2,1.1,0.1
				c0.2,0.2,0.6,0.4,0.9,0.2c0.4-0.1,0.4,0,0.8-0.4c0,0,0.1-0.1,0.1-0.1C26.2,26.7,26.1,26.7,25.8,26.8z"/>
		</g>
	</g>
	<g>
		<g>
			<path fill="#FFFFFF" d="M12.2,18.9c-1.6-0.8-3.6-0.1-4.3,1.6c-0.8,1.6,0,3.6,1.7,4.3c0.4,0.2,0.3,0,0.7,0.1
				c0.3,0,0.6-0.2,0.8-0.5l0,0c0.2-0.5,0.9-0.7,1.3-0.3l0.7,0.5c0.4,0.4,1.1,0.2,1.3-0.3l0.6-1.2c0.2-0.5,0-1.1-0.6-1.2l-0.9-0.2
				c-0.5-0.1-0.8-0.7-0.6-1.2l0,0c0.1-0.3,0.1-0.7-0.1-0.9C12.5,19.2,12.6,19.1,12.2,18.9z"/>
		</g>
		<g opacity="0.1">
			<path fill="#231F20" d="M14.6,22.9L14,24.1c-0.2,0.4-0.6,0.6-1,0.5l0,0c0.4,0.4,1.1,0.2,1.3-0.3l0.6-1.2c0.2-0.5,0-1.1-0.6-1.2
				l0,0C14.6,22.1,14.8,22.5,14.6,22.9z"/>
			<path fill="#231F20" d="M12,23.9L12,23.9c-0.5-0.4-1.1-0.2-1.3,0.3l0,0c-0.1,0.3-0.5,0.5-0.8,0.5c-0.3,0-0.4,0.1-0.6,0
				c0.1,0,0.1,0.1,0.2,0.1c0.4,0.2,0.3,0,0.7,0.1c0.3,0,0.6-0.2,0.8-0.5l0,0C11.2,23.9,11.6,23.8,12,23.9z"/>
			<path fill="#231F20" d="M12.4,19.3c0.2,0.3,0.3,0.6,0.1,0.9c-0.2,0.5,0,1.1,0.6,1.2l0,0c-0.3-0.2-0.5-0.7-0.3-1.1
				c0.1-0.3,0.1-0.7-0.1-0.9c-0.3-0.3-0.2-0.4-0.6-0.6c0,0-0.1,0-0.1-0.1C12.2,19,12.2,19.1,12.4,19.3z"/>
		</g>
	</g>
	<path opacity="0.1" fill="#231F20" d="M24.5,4.7c-5.7,0-10.8,2.6-14.2,6.6c3.3-2.8,7.6-4.6,12.2-4.6c10.4,0,18.8,8.4,18.8,18.8
		c0,4.7-1.7,8.9-4.6,12.2c4-3.4,6.6-8.5,6.6-14.2C43.3,13.1,34.9,4.7,24.5,4.7z"/>
	<g>
		<path fill="#FF7058" d="M24,44.8C12.5,44.8,3.2,35.5,3.2,24S12.5,3.2,24,3.2c11.5,0,20.8,9.3,20.8,20.8S35.5,44.8,24,44.8z
			 M24,5.2C13.6,5.2,5.2,13.6,5.2,24S13.6,42.8,24,42.8c10.4,0,18.8-8.4,18.8-18.8S34.4,5.2,24,5.2z"/>
	</g>
</g>
</svg>
