<?xml version="1.0" encoding="utf-8"?>
<!-- Generator: Adobe Illustrator 18.0.0, SVG Export Plug-In . SVG Version: 6.00 Build 0)  -->
<!DOCTYPE svg PUBLIC "-//W3C//DTD SVG 1.1//EN" "http://www.w3.org/Graphics/SVG/1.1/DTD/svg11.dtd">
<svg version="1.1" id="Layer_1" xmlns="http://www.w3.org/2000/svg" xmlns:xlink="http://www.w3.org/1999/xlink" x="0px" y="0px"
	 viewBox="0 0 48 48" enable-background="new 0 0 48 48" xml:space="preserve">
<g>
	<g>
		<g>
			<path fill="#415A6B" d="M30.7,15.3c-0.4,3.1-3.2,5.5-6.7,5.5c-3.5,0-6.3-2.4-6.7-5.5V2.8c0.4,3.1,3.3,5.5,6.7,5.5
				c3.5,0,6.3-2.4,6.7-5.5V15.3z"/>
		</g>
		<g>
			<path fill="#55C0EB" d="M48,19.3l-7.8,4.8l-1.8-3.4L33.6,18L9.5,20.2h0c0,0.2,0,0.3,0,0.5l-1.8,3.4L0,19.3L7.8,5.6c0,0,0,0,0,0
				L24,16L40.2,5.6c0,0,0,0,0,0L48,19.3z"/>
		</g>
		<g>
			<path fill="#8AD7F8" d="M39.7,45.2H8.3C11.5,18.3,7.8,5.6,7.8,5.6l9.5-2.9c0.4,5.1,3.3,7.7,6.7,7.7c3.5,0,6.3-2.6,6.7-7.7
				l9.5,2.9C40.2,5.6,36.5,18.3,39.7,45.2z"/>
		</g>
	</g>
</g>
</svg>
