<?xml version="1.0" encoding="utf-8"?>
<!-- Generator: Adobe Illustrator 18.0.0, SVG Export Plug-In . SVG Version: 6.00 Build 0)  -->
<!DOCTYPE svg PUBLIC "-//W3C//DTD SVG 1.1//EN" "http://www.w3.org/Graphics/SVG/1.1/DTD/svg11.dtd">
<svg version="1.1" id="Layer_1" xmlns="http://www.w3.org/2000/svg" xmlns:xlink="http://www.w3.org/1999/xlink" x="0px" y="0px"
	 viewBox="0 0 48 48" enable-background="new 0 0 48 48" xml:space="preserve">
<g>
	<g>
		<g>
			<g>
				<path fill="#FFD15C" d="M5.6,39.7c0,0-0.8,0.5-0.8,1.1c0,0.5,0,0.8-0.2,0.9c-0.2,0-0.6,0.1-0.8,0c-0.2-0.1-0.6,0.1-0.7,0.2
					c0,0.1-0.4,0.8-1.1,0.8c0,0-0.1-0.1-0.2,0c-0.1,0.1-1.2,0.3-1.4,0.1c-0.2-0.2-0.3-0.6,0.1-0.8l0,0c0.2,0,0.5-0.1,0.6-0.3
					c0.3-0.3,0.8-0.8,1.1-1.3c0.5-0.7,1.9-1.6,2.6-1.8L5.6,39.7z"/>
			</g>
		</g>
	</g>
	<g>
		<g>
			<g>
				<path fill="#FFD15C" d="M34.3,38.4l0.1,1.7c0,0,0.4,0.4,0.8,0.6c0.3,0.1,1.4,1.1,1.4,1.1s0.3,0.3,0.5,0.4
					c0.2,0.1,0.4,0.4,0.4,0.4l0.4,0.3c0,0-0.2,0.8-1,0.3c0,0-0.3-0.2-0.5-0.2c-0.2,0-0.7,0-1.2-0.4c0,0-0.5-0.1-1.1,0
					c-0.6,0.1-2,0.1-2.3-0.5s0.1-1.5,0.1-1.5s0.4-1,0.4-1.6C32.5,38.3,34.3,38.4,34.3,38.4z"/>
			</g>
		</g>
	</g>
	<g>
		<g>
			<g>
				<path fill="#F26F5A" d="M26.7,24.5c0,0,0.3,1.2,0.4,1.3c0.2,0.1,4.6,1.2,6.4,1.9c1.7,0.7,3,1.7,3,1.7s0.6,0.5,0.4,1.3
					c-0.3,0.8-0.8,1.8-0.8,1.8s-0.1,1.8-0.9,3.1c-0.8,1.4-0.9,4-0.9,4s-1.7,0.2-2.1-0.3c0,0,0.4-2,0.2-3c-0.2-1,0-3.3,1.1-4.5
					c0,0-1.4-0.8-2.2-0.5c-1.4,0.4-4.6-0.9-6.2-1.5c0,0-2.3-0.6-3.8,0.2c-1.5,0.8-4.1,2.3-4.5,2.8c-0.5,0.5-2.8,2.3-3.3,2.4
					c-0.5,0.1-1.4,0.8-1.7,1.2c-0.3,0.4-2.1,1.7-3,1.9c-0.9,0.3-3.1,1.9-3.1,1.9s-1.3-0.9-1.3-1.5c0,0,2.7-2.1,2.9-2.5
					c0.3-0.5,2.2-2,3.3-2.2c1-0.2,2.5-2.3,3-3c0.1-0.2,0.2-0.3,0.4-0.5c0.8-0.9,3.2-3.7,4.4-4.7c0,0-0.1-1.3,0.5-1.6
					C19.5,23.7,26.7,24.5,26.7,24.5z"/>
			</g>
		</g>
	</g>
	<g>
		<g>
			<g>
				<path fill="#F5B54C" d="M28,12.8c-0.8-0.2-2.1-0.3-2.5-0.6c-0.5-0.2-0.4-2.1-0.4-2.1l0-0.5h-2.8c0,0,0,1.1,0,1.4
					c0,0.3,0.1,0.8-0.4,1.2c-0.5,0.4-1.5,0.6-1.5,0.6c-0.7,0-1.3,0.2-1.7,0.4v1.1h0.9v2.7l0.7,1.2l5.9,0.8l1.8-2.4
					c0.1-0.3,0.2-0.3,0.3-0.4v-3.5C28.3,12.8,28.2,12.8,28,12.8z"/>
			</g>
		</g>
	</g>
	<g>
		<g>
			<g>
				<path fill="#F5B54C" d="M25.9,18.1l2.3-1.6c0,0,0.6-0.8,1.8-1c1.1-0.3,2.7-0.7,3.2-1c0.5-0.3,3.3-1,4.4-1.1
					c1-0.1,4.1-0.8,5.1-1.5c0,0,0.5-0.2,0.6-0.1c0.1,0,0.1,0.7,1.5,0.6l0.5,0.1l0.4,0.3c0,0,0.3-0.3,0-0.6c0,0-0.1-0.1-0.2-0.1
					c-0.1,0-0.6-0.1-0.6-0.1s-0.2-0.1,0.2-0.3c0.5-0.1,0.9-0.3,0.9-0.3s0.5,0,0.7-0.1c0,0,0.5,0,0.7-0.2c0,0,0.8,0,0.7-0.5l-0.7,0
					c0,0-2.4,0.2-2.8,0.1c-0.4-0.1-1.6-0.2-2.4,0c-0.8,0.2-3,0.6-3.7,0.6c-0.7,0-2.1,0.2-2.6,0.4c-0.5,0.2-1.3,0.3-1.4,0.3
					c-0.1,0-1.6,0.3-2.2,0.5c-0.6,0.2-1.9,0.1-1.9,0.1s-2.2,0.1-2.9,0.1"/>
			</g>
		</g>
	</g>
	<g>
		<g>
			<g>
				<path fill="#F5B54C" d="M22.1,18.3l-2.3-1.6c0,0-0.6-0.8-1.8-1c-1.1-0.3-2.7-0.7-3.2-1c-0.5-0.3-3.3-1-4.4-1.1
					c-1-0.1-4.1-0.8-5.1-1.5c0,0-0.5-0.2-0.6-0.1c-0.1,0-0.1,0.7-1.5,0.6l-0.5,0.1L2.4,13c0,0-0.3-0.3,0-0.6c0,0,0.1-0.1,0.2-0.1
					c0.1,0,0.6-0.1,0.6-0.1s0.2-0.1-0.2-0.3c-0.5-0.1-0.9-0.3-0.9-0.3s-0.5,0-0.7-0.1c0,0-0.5,0-0.7-0.2c0,0-0.8,0-0.7-0.5l0.7,0
					c0,0,2.4,0.2,2.8,0.1c0.4-0.1,1.6-0.2,2.4,0c0.8,0.2,3,0.6,3.7,0.6c0.7,0,2.1,0.2,2.6,0.4c0.5,0.2,1.3,0.3,1.4,0.3
					c0.1,0,1.6,0.3,2.2,0.5c0.6,0.2,1.9,0.1,1.9,0.1s2.2,0.1,2.9,0.1"/>
			</g>
		</g>
	</g>
	<g>
		<g>
			<g>
				<g>
					<g>
						<path fill="#FFD15C" d="M25.5,9c0,1-0.8,2.5-1.9,2.5c-1,0-1.9-1.4-1.9-2.5c0-0.2-0.1-0.5-0.2-0.9c0,0.1-0.2,0.1-0.2,0
							c0-0.2-0.1-0.5,0-0.7c0,0,0-0.1,0-0.1c-0.2-1,0-1.9,2.2-1.9C26,5.4,25.5,7.9,25.5,9z"/>
					</g>
				</g>
			</g>
		</g>
		<g>
			<g>
				<g>
					<g>
						<path fill="#425A6B" d="M25,5c-0.6-0.3-1.1-0.4-1.6-0.3c-1.1,0.2-2,1-2.3,2.1c-0.1,0.6-0.1,1.3,0.5,2.1c0,0-0.2-0.8-0.1-1.2
							c0.1-0.4,0.2-0.6,0.2-0.6s0,0.2,0.1,0.5c0,0-0.1-0.7,0.1-0.8c0,0,0,0.7,0.2,1c0-0.6,0.1-1.1,0.3-1.5c0,0,1.3,0.4,1.7,0.9
							c0.4,0.6,1,0.9,1,0.9s0.3,0.2,0.4,0.5c0,0,0.4-0.4,0.6-0.4C26.2,8.1,26.5,6,25,5z"/>
					</g>
				</g>
			</g>
			<g>
				<g>
					
						<ellipse transform="matrix(0.3179 0.9481 -0.9481 0.3179 22.9416 -14.4816)" fill="#FFD15C" cx="21.5" cy="8.7" rx="0.8" ry="0.4"/>
				</g>
			</g>
			<g>
				<g>
					<g>
						<path fill="#425A6B" d="M22.2,6c0,0,0.1,0,0.3,0.1c0.1,0,0.2,0.1,0.3,0.2c0.1,0.1,0.2,0.1,0.4,0.2c0.1,0,0.1,0.1,0.2,0.1
							c0.1,0,0.1,0.1,0.2,0.1c0,0,0.1,0.1,0.1,0.1c0,0,0.1,0.1,0.1,0.1c0,0,0.1,0.1,0.1,0.1c0,0,0,0.1,0.1,0.1c0,0,0.1,0.1,0.1,0.1
							s0,0-0.1-0.1c0,0,0-0.1-0.1-0.1c0,0-0.1-0.1-0.1-0.1c0,0-0.1-0.1-0.1-0.1c0,0-0.1-0.1-0.1-0.1c-0.1,0-0.1-0.1-0.2-0.1
							c-0.1,0-0.1-0.1-0.2-0.1c-0.1-0.1-0.2-0.1-0.4-0.2c-0.1-0.1-0.2-0.1-0.3-0.1C22.3,6.1,22.2,6.1,22.2,6L22.2,6z"/>
					</g>
				</g>
			</g>
			<g>
				<g>
					<g>
						<g>
							<path fill="#425A6B" d="M24.5,6.9C24.5,6.9,24.5,6.9,24.5,6.9c0,0.1,0,0.1,0,0.1c0,0.1,0,0.2,0.1,0.3
								c0.1,0.1,0.1,0.2,0.3,0.4C25,7.7,25.1,7.8,25.2,8c0.1,0.1,0.1,0.1,0.2,0.2c0,0,0,0.1,0.1,0.1c0,0,0,0,0,0.1c0,0,0,0,0,0.1
								c0,0.2,0,0.3,0,0.5c0,0.1,0,0.1,0,0.2c0,0.1,0,0.1-0.1,0.1c0,0,0,0.1,0,0.1c0,0,0,0,0,0s0,0,0,0c0,0,0,0,0-0.1
								c0,0,0-0.1,0-0.1c0-0.1,0-0.1,0-0.2c0-0.1,0-0.3,0-0.4c0,0,0,0,0-0.1c0,0,0,0,0-0.1c0,0,0-0.1-0.1-0.1c0-0.1-0.1-0.1-0.2-0.2
								c-0.1-0.1-0.3-0.2-0.4-0.4c-0.1-0.1-0.2-0.2-0.3-0.4c-0.1-0.1-0.1-0.2-0.1-0.3c0,0,0-0.1,0-0.1c0,0,0,0,0,0L24.5,6.9z"/>
						</g>
					</g>
				</g>
				<g>
					<g>
						<g>
							<path fill="#425A6B" d="M21.7,6.6C21.7,6.6,21.7,6.6,21.7,6.6C21.6,6.6,21.6,6.6,21.7,6.6C21.6,6.6,21.6,6.6,21.7,6.6
								c-0.1,0.1-0.1,0.2-0.1,0.3c0,0.1,0,0.2,0,0.4c0,0.1,0,0.1,0,0.2c0,0.1,0,0.1,0,0.2c0,0,0,0.1,0,0.1c0,0,0,0.1,0,0.1
								c0,0.1,0,0.1,0.1,0.2c0.1,0.1,0.1,0.2,0.2,0.3c0,0.1,0.1,0.2,0.1,0.3c0,0,0,0.1,0,0.1c0,0,0,0,0,0s0,0,0,0c0,0,0,0,0-0.1
								c0-0.1,0-0.1-0.1-0.2c0-0.1-0.1-0.2-0.2-0.3c0-0.1-0.1-0.1-0.1-0.2c0,0,0-0.1,0-0.1c0,0,0-0.1,0-0.1c0-0.1,0-0.1,0-0.2
								c0-0.1,0-0.1,0-0.2c0-0.1,0-0.3,0-0.4c0-0.1,0-0.2,0-0.3c0,0,0,0,0,0c0,0,0,0,0,0c0,0,0,0,0,0L21.7,6.6z"/>
						</g>
					</g>
				</g>
			</g>
		</g>
		<g>
			<g>
				<g>
					
						<ellipse transform="matrix(0.9481 0.3178 -0.3178 0.9481 4.1067 -7.7668)" fill="#FFD15C" cx="25.9" cy="8.7" rx="0.4" ry="0.8"/>
				</g>
			</g>
		</g>
		<g>
			<g>
				<g>
					<g>
						<path fill="#425A6B" d="M24.5,6.9C24.5,6.9,24.5,6.9,24.5,6.9c0,0.1,0,0.1,0,0.1c0,0.1,0,0.2,0.1,0.3c0.1,0.1,0.1,0.2,0.3,0.4
							C25,7.7,25.1,7.8,25.2,8c0.1,0.1,0.1,0.1,0.2,0.2c0,0,0,0.1,0.1,0.1c0,0,0,0,0,0.1c0,0,0,0,0,0.1c0,0.2,0,0.3,0,0.5
							c0,0.1,0,0.1,0,0.2c0,0.1,0,0.1-0.1,0.1c0,0,0,0.1,0,0.1c0,0,0,0,0,0s0,0,0,0c0,0,0,0,0-0.1c0,0,0-0.1,0-0.1
							c0-0.1,0-0.1,0-0.2c0-0.1,0-0.3,0-0.4c0,0,0,0,0-0.1c0,0,0,0,0-0.1c0,0,0-0.1-0.1-0.1c0-0.1-0.1-0.1-0.2-0.2
							c-0.1-0.1-0.3-0.2-0.4-0.4c-0.1-0.1-0.2-0.2-0.3-0.4c-0.1-0.1-0.1-0.2-0.1-0.3c0,0,0-0.1,0-0.1c0,0,0,0,0,0L24.5,6.9z"/>
					</g>
				</g>
			</g>
			<g>
				<g>
					<g>
						<path fill="#425A6B" d="M21.7,6.6C21.7,6.6,21.7,6.6,21.7,6.6C21.6,6.6,21.6,6.6,21.7,6.6C21.6,6.6,21.6,6.6,21.7,6.6
							c-0.1,0.1-0.1,0.2-0.1,0.3c0,0.1,0,0.2,0,0.4c0,0.1,0,0.1,0,0.2c0,0.1,0,0.1,0,0.2c0,0,0,0.1,0,0.1c0,0,0,0.1,0,0.1
							c0,0.1,0,0.1,0.1,0.2c0.1,0.1,0.1,0.2,0.2,0.3c0,0.1,0.1,0.2,0.1,0.3c0,0,0,0.1,0,0.1c0,0,0,0,0,0s0,0,0,0c0,0,0,0,0-0.1
							c0-0.1,0-0.1-0.1-0.2c0-0.1-0.1-0.2-0.2-0.3c0-0.1-0.1-0.1-0.1-0.2c0,0,0-0.1,0-0.1c0,0,0-0.1,0-0.1c0-0.1,0-0.1,0-0.2
							c0-0.1,0-0.1,0-0.2c0-0.1,0-0.3,0-0.4c0-0.1,0-0.2,0-0.3c0,0,0,0,0,0c0,0,0,0,0,0c0,0,0,0,0,0L21.7,6.6z"/>
					</g>
				</g>
			</g>
		</g>
	</g>
	<g>
		<g>
			<g>
				<path fill="#E8EAE8" d="M19.3,16.2c0,0,1-0.9,1.1-1.7c0.1-0.8-0.1-1.7-0.1-1.7c0-0.1,0.8-0.2,0.8-0.1c0,0-0.4,2.1,0.4,2.9
					c0.8,0.7,1.8,0.6,1.8,0.6s2,0.2,2.4-1.4c0.4-1.6,0.6-2.3,0.7-2.3c0-0.1,0.7,0.1,0.7,0.1c0,0-0.8,1.2-0.5,2.2
					c0.3,1,1.1,1.7,1.6,1.7l-0.4,0.8l-0.7,2.5c0,0,0,0.6-0.1,0.9c0,0-0.2,0.2,0,0.4c0.2,0.2-0.1,0.6-0.1,0.6s0.1,2.8,0.3,3.3
					c0,0-1.7,1.1-3.6,0.7c-2-0.4-4.6-1.7-4.6-1.7s0-0.3,0.1-0.4c0,0,0.1-0.8,0.5-1.2C19.8,20.2,19.9,18,19.3,16.2z"/>
			</g>
		</g>
	</g>
</g>
</svg>
