<?xml version="1.0" encoding="utf-8"?>
<!-- Generator: Adobe Illustrator 18.0.0, SVG Export Plug-In . SVG Version: 6.00 Build 0)  -->
<!DOCTYPE svg PUBLIC "-//W3C//DTD SVG 1.1//EN" "http://www.w3.org/Graphics/SVG/1.1/DTD/svg11.dtd">
<svg version="1.1" id="Layer_1" xmlns="http://www.w3.org/2000/svg" xmlns:xlink="http://www.w3.org/1999/xlink" x="0px" y="0px"
	 viewBox="0 0 48 48" enable-background="new 0 0 48 48" xml:space="preserve">
<g>
	<g>
		<g>
			<path fill="#FFD15C" d="M45.5,24c1.5-0.8,2.4-2.4,2.1-4.2c-0.3-1.7-1.7-3-3.4-3.2c1.2-1.2,1.5-3.1,0.6-4.6
				c-0.9-1.5-2.7-2.2-4.3-1.8c0.7-1.5,0.3-3.4-1.1-4.6c-1.4-1.1-3.3-1.2-4.7-0.2c0.1-1.7-0.9-3.3-2.5-3.9c-1.7-0.6-3.5,0-4.5,1.4
				C27.3,1.2,25.8,0,24,0s-3.3,1.2-3.7,2.8c-1-1.4-2.8-2-4.5-1.4s-2.7,2.2-2.5,3.9c-1.4-0.9-3.3-0.9-4.7,0.2c-1.4,1.1-1.7,3-1.1,4.6
				C5.9,9.8,4.1,10.5,3.2,12c-0.9,1.5-0.6,3.4,0.6,4.6c-1.7,0.2-3.1,1.4-3.4,3.2S1,23.2,2.5,24c-1.5,0.8-2.4,2.4-2.1,4.2
				c0.3,1.7,1.7,3,3.4,3.2c-1.2,1.2-1.5,3.1-0.6,4.6s2.7,2.2,4.3,1.8c-0.7,1.5-0.3,3.4,1.1,4.6c1.4,1.1,3.3,1.2,4.7,0.2
				c-0.1,1.7,0.9,3.3,2.5,3.9c1.7,0.6,3.5,0,4.5-1.4c0.5,1.6,2,2.8,3.7,2.8s3.3-1.2,3.7-2.8c1,1.4,2.8,2,4.5,1.4
				c1.7-0.6,2.7-2.2,2.5-3.9c1.4,0.9,3.3,0.9,4.7-0.2c1.4-1.1,1.7-3,1.1-4.6c1.6,0.4,3.4-0.3,4.3-1.8s0.6-3.4-0.6-4.6
				c1.7-0.2,3.1-1.4,3.4-3.2C47.9,26.4,47,24.8,45.5,24z"/>
		</g>
		<g>
			<g>
				<g>
					<circle fill="#F7B64C" cx="24" cy="9.8" r="2.4"/>
					<g>
						<circle fill="#FFD15C" cx="24" cy="9.8" r="1"/>
					</g>
				</g>
				<g>
					<circle fill="#F7B64C" cx="24" cy="38.2" r="2.4"/>
					<g>
						<circle fill="#FFD15C" cx="24" cy="38.2" r="1"/>
					</g>
				</g>
			</g>
			<g>
				<g>
					<circle fill="#F7B64C" cx="34.1" cy="13.9" r="2.4"/>
					<g>
						<circle fill="#FFD15C" cx="34.1" cy="13.9" r="1"/>
					</g>
				</g>
				<g>
					<circle fill="#F7B64C" cx="13.9" cy="34.1" r="2.4"/>
					<g>
						<circle fill="#FFD15C" cx="13.9" cy="34.1" r="1"/>
					</g>
				</g>
			</g>
			<g>
				<g>
					<circle fill="#F7B64C" cx="38.2" cy="24" r="2.4"/>
					<g>
						<circle fill="#FFD15C" cx="38.2" cy="24" r="1"/>
					</g>
				</g>
				<g>
					<circle fill="#F7B64C" cx="9.8" cy="24" r="2.4"/>
					<g>
						<circle fill="#FFD15C" cx="9.8" cy="24" r="1"/>
					</g>
				</g>
			</g>
			<g>
				<g>
					<circle fill="#F7B64C" cx="34.1" cy="34.1" r="2.4"/>
					<g>
						<circle fill="#FFD15C" cx="34.1" cy="34.1" r="1"/>
					</g>
				</g>
				<g>
					<circle fill="#F7B64C" cx="13.9" cy="13.9" r="2.4"/>
					<g>
						<circle fill="#FFD15C" cx="13.9" cy="13.9" r="1"/>
					</g>
				</g>
			</g>
		</g>
		<g>
			<circle fill="#F7B64C" cx="24" cy="9.8" r="2.4"/>
			<g>
				<circle fill="#FFD15C" cx="24" cy="9.8" r="1"/>
			</g>
		</g>
		<g>
			<circle fill="#F7B64C" cx="24" cy="38.2" r="2.4"/>
			<g>
				<circle fill="#FFD15C" cx="24" cy="38.2" r="1"/>
			</g>
		</g>
		<g>
			<circle fill="#F7B64C" cx="34.1" cy="13.9" r="2.4"/>
			<g>
				<circle fill="#FFD15C" cx="34.1" cy="13.9" r="1"/>
			</g>
		</g>
		<g>
			<circle fill="#F7B64C" cx="13.9" cy="34.1" r="2.4"/>
			<g>
				<circle fill="#FFD15C" cx="13.9" cy="34.1" r="1"/>
			</g>
		</g>
		<g>
			<circle fill="#F7B64C" cx="38.2" cy="24" r="2.4"/>
			<g>
				<circle fill="#FFD15C" cx="38.2" cy="24" r="1"/>
			</g>
		</g>
		<g>
			<g>
				<circle fill="#F7B64C" cx="24" cy="24" r="2.4"/>
				<g>
					<circle fill="#FFD15C" cx="24" cy="24" r="1"/>
				</g>
			</g>
			<g>
				<circle fill="#F7B64C" cx="24" cy="24" r="2.4"/>
				<g>
					<circle fill="#FFD15C" cx="24" cy="24" r="1"/>
				</g>
			</g>
		</g>
		<g>
			<circle fill="#F7B64C" cx="9.8" cy="24" r="2.4"/>
			<g>
				<circle fill="#FFD15C" cx="9.8" cy="24" r="1"/>
			</g>
		</g>
		<g>
			<circle fill="#F7B64C" cx="34.1" cy="34.1" r="2.4"/>
			<g>
				<circle fill="#FFD15C" cx="34.1" cy="34.1" r="1"/>
			</g>
		</g>
		<g>
			<circle fill="#F7B64C" cx="13.9" cy="13.9" r="2.4"/>
			<g>
				<circle fill="#FFD15C" cx="13.9" cy="13.9" r="1"/>
			</g>
		</g>
	</g>
</g>
</svg>
