<?xml version="1.0" encoding="utf-8"?>
<!-- Generator: Adobe Illustrator 18.0.0, SVG Export Plug-In . SVG Version: 6.00 Build 0)  -->
<!DOCTYPE svg PUBLIC "-//W3C//DTD SVG 1.1//EN" "http://www.w3.org/Graphics/SVG/1.1/DTD/svg11.dtd">
<svg version="1.1" id="Layer_1" xmlns="http://www.w3.org/2000/svg" xmlns:xlink="http://www.w3.org/1999/xlink" x="0px" y="0px"
	 viewBox="0 0 48 48" enable-background="new 0 0 48 48" xml:space="preserve">
<g>
	<circle fill="#FF7058" cx="24" cy="24" r="24"/>
	<polygon fill="#F8B64C" points="24,24 24,24 24,24 	"/>
	<rect x="24" y="24" fill="#F8B64C" width="0" height="0"/>
	<rect x="24" y="24" fill="#F8B64C" width="0" height="0"/>
	<polygon fill="#F8B64C" points="24,24 24,24 24,24 	"/>
	<polygon fill="#F8B64C" points="24,24 24,24 24,24 	"/>
	<rect x="24" y="24" fill="#F8B64C" width="0" height="0"/>
	<polygon fill="#F8B64C" points="24,24 24,24 24,24 	"/>
	<rect x="24" y="24" fill="#F8B64C" width="0" height="0"/>
	<polygon fill="#F8B64C" points="24,24 24,24 24,24 	"/>
	<polygon fill="#F8B64C" points="24,24 24,24 24,24 	"/>
	<rect x="24" y="24" fill="#F8B64C" width="0" height="0"/>
	<polygon fill="#F8B64C" points="24,24 24,24 24,24 	"/>
	<polygon fill="#F8B64C" points="24,24 24,24 24,24 	"/>
	<polygon fill="#F8B64C" points="24,24 24,24 24,24 	"/>
	<polygon fill="#F8B64C" points="24,24 24,24 24,24 	"/>
	<path fill="#F2F2F2" d="M24,24L9.8,38.2c1.9,1.9,4.1,3.3,6.5,4.4L24,24L24,24z"/>
	<path fill="#F2F2F2" d="M3.9,24c0,2.7,0.5,5.3,1.5,7.7L24,24H3.9z"/>
	<path fill="#FFFFFF" d="M24,24L24,24v20.1c2.7,0,5.3-0.5,7.7-1.5L24,24L24,24z"/>
	<path fill="#F2F2F2" d="M24,24L24,24L24,24h20.1c0-2.7-0.5-5.3-1.5-7.7L24,24L24,24z"/>
	<path fill="#FFFFFF" d="M24,24L9.8,9.8c-1.9,1.9-3.3,4.1-4.4,6.5L24,24L24,24z"/>
	<path fill="#FFFFFF" d="M24,24L24,24l14.2,14.2c1.9-1.9,3.3-4.1,4.4-6.5L24,24z"/>
	<polygon fill="#F8B64C" points="24,24 24,24 24,24 	"/>
	<path fill="#F2F2F2" d="M24,24L38.2,9.8c-1.9-1.9-4.1-3.3-6.5-4.4L24,24L24,24z"/>
	<path fill="#FFFFFF" d="M24,3.9c-2.7,0-5.3,0.5-7.7,1.5L24,24V3.9z"/>
	<g>
		<path fill="#40596B" d="M42.6,31.7c1-2.4,1.5-5,1.5-7.7H24L42.6,31.7z"/>
		<path fill="#40596B" d="M42.6,16.3c-1-2.5-2.5-4.7-4.4-6.5L24,24L42.6,16.3z"/>
		<path fill="#40596B" d="M24,24L5.4,31.7c1,2.5,2.5,4.7,4.4,6.5L24,24L24,24z"/>
		<path fill="#40596B" d="M24,24l7.7,18.6c2.5-1,4.7-2.5,6.5-4.4L24,24L24,24z"/>
		<path fill="#40596B" d="M16.3,42.6c2.4,1,5,1.5,7.7,1.5V24L16.3,42.6z"/>
		<path fill="#40596B" d="M24,24L5.4,16.3c-1,2.4-1.5,5-1.5,7.7H24L24,24z"/>
		<path fill="#40596B" d="M24,24L16.3,5.4c-2.5,1-4.7,2.5-6.5,4.4L24,24L24,24z"/>
		<path fill="#40596B" d="M24,24L24,24l7.7-18.6c-2.4-1-5-1.5-7.7-1.5V24L24,24z"/>
	</g>
	<circle fill="#FF7058" cx="24" cy="24" r="5.4"/>
	<path fill="#40596B" d="M15.2,32.8l-1.6,1.6c1.4,1.4,3,2.4,4.8,3.2l0.9-2.1C17.8,34.8,16.4,33.9,15.2,32.8z"/>
	<path fill="#40596B" d="M11.6,24H9.3c0,2,0.4,3.9,1.1,5.6l2.1-0.9C12,27.3,11.6,25.7,11.6,24z"/>
	<path fill="#40596B" d="M24,36.4L24,36.4l0,2.3h0c2,0,3.9-0.4,5.6-1.1l-0.9-2.1C27.3,36,25.7,36.4,24,36.4z"/>
	<path fill="#40596B" d="M37.6,18.4l-2.1,0.9c0.6,1.5,0.9,3.1,0.9,4.7v0h2.3v0C38.7,22,38.3,20.1,37.6,18.4z"/>
	<path fill="#40596B" d="M15.2,15.2l-1.6-1.6c-1.4,1.4-2.4,3-3.2,4.8l2.1,0.9C13.2,17.8,14.1,16.4,15.2,15.2z"/>
	<path fill="#40596B" d="M32.8,32.8l1.6,1.6c1.4-1.4,2.4-3,3.2-4.8l-2.1-0.9C34.8,30.2,33.9,31.6,32.8,32.8z"/>
	<path fill="#40596B" d="M32.8,15.2l1.6-1.6c-1.4-1.4-3-2.4-4.8-3.2l-0.9,2.1C30.2,13.2,31.6,14.1,32.8,15.2z"/>
	<path fill="#40596B" d="M24,11.6V9.3c-2,0-3.9,0.4-5.6,1.1l0.9,2.1C20.7,12,22.3,11.6,24,11.6z"/>
	<g>
		<path fill="#FF7058" d="M35.4,28.7l2.1,0.9c0.7-1.7,1.1-3.6,1.1-5.6h-2.3C36.4,25.7,36,27.3,35.4,28.7z"/>
		<path fill="#FF7058" d="M35.4,19.3l2.1-0.9c-0.7-1.8-1.8-3.4-3.2-4.8l-1.6,1.6C33.9,16.4,34.8,17.8,35.4,19.3z"/>
		<path fill="#FF7058" d="M12.6,28.7l-2.1,0.9c0.7,1.8,1.8,3.4,3.2,4.8l1.6-1.6C14.1,31.6,13.2,30.2,12.6,28.7z"/>
		<path fill="#FF7058" d="M28.7,35.4l0.9,2.1c1.8-0.7,3.4-1.8,4.8-3.2l-1.6-1.6C31.6,33.9,30.2,34.8,28.7,35.4z"/>
		<path fill="#FF7058" d="M19.3,35.4l-0.9,2.1c1.7,0.7,3.6,1.1,5.6,1.1v-2.3C22.3,36.4,20.7,36,19.3,35.4z"/>
		<path fill="#FF7058" d="M11.6,24c0-1.7,0.3-3.3,0.9-4.7l-2.1-0.9C9.7,20.1,9.3,22,9.3,24v0L11.6,24L11.6,24z"/>
		<path fill="#FF7058" d="M19.3,12.6l-0.9-2.1c-1.8,0.7-3.4,1.8-4.8,3.2l1.6,1.6C16.4,14.1,17.8,13.2,19.3,12.6z"/>
		<path fill="#FF7058" d="M24,11.6c1.7,0,3.3,0.3,4.7,0.9l0.9-2.1C27.9,9.7,26,9.3,24,9.3h0L24,11.6L24,11.6z"/>
	</g>
</g>
</svg>
