<?xml version="1.0" encoding="utf-8"?>
<!-- Generator: Adobe Illustrator 16.0.0, SVG Export Plug-In . SVG Version: 6.00 Build 0)  -->
<!DOCTYPE svg PUBLIC "-//W3C//DTD SVG 1.1//EN" "http://www.w3.org/Graphics/SVG/1.1/DTD/svg11.dtd">
<svg version="1.1" id="Layer_1" xmlns="http://www.w3.org/2000/svg" xmlns:xlink="http://www.w3.org/1999/xlink" x="0px" y="0px"
	 width="48px" height="48px" viewBox="0 0 48 48" enable-background="new 0 0 48 48" xml:space="preserve">
<g>
	<path fill="#84DBFF" d="M24,45.448l7.82-14.918c-3.914-0.014-11.723-0.004-15.637,0.008L24,45.448z"/>
	<path fill="#40596B" d="M34.982,28.083c-4.551,3.145-17.572,3.145-22.123,0c-4.285-2.959-2.59-9.741-2.238-14.613
		c0.498-6.926,6.246-12.484,13.189-12.516c0.072-0.002,0.146-0.002,0.221,0c6.943,0.031,12.691,5.59,13.189,12.516
		C37.572,18.341,39.268,25.124,34.982,28.083"/>
	<path fill="#F8B64C" d="M15.359,17.841c0.396,1.701,0.188,3.205-0.469,3.356c-0.654,0.153-1.508-1.102-1.904-2.803
		s-0.188-3.205,0.469-3.357C14.109,14.884,14.963,16.14,15.359,17.841"/>
	<rect x="23.894" y="34.735" fill="#FFD15C" width="0.002" height="0.004"/>
	<path fill="#F8B64C" d="M32.414,17.841c-0.398,1.701-0.188,3.205,0.467,3.356c0.656,0.153,1.393-1.133,1.906-2.803
		c0.305-0.996,0.166-3.033-0.469-3.357C33.719,14.731,32.811,16.14,32.414,17.841"/>
	<path fill="#FFD15C" d="M33.277,22.787c-2.754,8.741-9.357,9.405-9.357,9.405s-6.602-0.664-9.355-9.405c0,0-1.475-4.56-0.238-8.36
		c0,0,0.756-6.484,9.594-6.484c8.84,0,9.596,6.484,9.596,6.484C34.752,18.227,33.277,22.787,33.277,22.787"/>
	<path fill="#F8B64C" d="M30.631,30.51l-0.002-2.539c-3.014,3.848-6.709,4.222-6.709,4.222s-3.727-0.377-6.75-4.274v2.619
		c-3.246-0.014-3.453,0.027-3.453,0.027c1.16,2.41,4.543,6.326,10.273,6.445h0.08c0.65-0.02,1.299-0.09,1.939-0.209h0.051
		l0.449-0.101c5.061-1.18,7.334-5.245,7.773-6.136C34.252,30.555,32.682,30.51,30.631,30.51"/>
	<g opacity="0.1">
		<g>
			<defs>
				<rect id="SVGID_109_" x="20.219" y="27.972" width="14.064" height="8.829"/>
			</defs>
			<clipPath id="SVGID_2_">
				<use xlink:href="#SVGID_109_"  overflow="visible"/>
			</clipPath>
			<path clip-path="url(#SVGID_2_)" fill="#40596B" d="M34.283,30.565c-0.031-0.01-1.602-0.054-3.652-0.054v-2.539
				c-3.016,3.847-6.711,4.22-6.711,4.22s-1.15-0.117-2.689-0.888c-0.301-0.092-0.631-0.239-0.996-0.474
				c-0.006,0-0.012-0.002-0.016-0.004l5.826,5.975h0.016l0.449-0.1C31.57,35.522,33.844,31.456,34.283,30.565"/>
		</g>
	</g>
	<path fill="#54C0EB" d="M45.705,41.59c-0.83-4.869-4.244-8.748-8.689-10.359c-2.377-0.862-3.428-0.689-5.189-0.715L24,45.448
		l-7.828-14.932c-1.762,0.025-2.811-0.147-5.188,0.715c-4.445,1.611-7.859,5.49-8.689,10.359L1.365,48h22.525h0.219h22.525
		L45.705,41.59z"/>
	<path fill="#40596B" d="M12.289,11.95c0,0,1.199,0.326,1.744,3.16c0,0,0.873-1.961,1.309-4.904c0,0,0.654-4.359,0.98-4.032
		c0,0,2.07,4.687,13.732,7.629c0,0,9.506,1.192,0.578,14.168c2.99,0,5.416-2.425,5.416-5.415V11.676C36.049,4.665,30.363,0,23.352,0
		S10.654,4.665,10.654,11.676v1.799L12.289,11.95z"/>
</g>
</svg>
