<?xml version="1.0" encoding="utf-8"?>
<!-- Generator: Adobe Illustrator 18.0.0, SVG Export Plug-In . SVG Version: 6.00 Build 0)  -->
<!DOCTYPE svg PUBLIC "-//W3C//DTD SVG 1.1//EN" "http://www.w3.org/Graphics/SVG/1.1/DTD/svg11.dtd">
<svg version="1.1" id="Layer_1" xmlns="http://www.w3.org/2000/svg" xmlns:xlink="http://www.w3.org/1999/xlink" x="0px" y="0px"
	 viewBox="0 0 48 48" enable-background="new 0 0 48 48" xml:space="preserve">
<g>
	<g>
		<circle fill="#FFD15C" cx="24" cy="24" r="12.7"/>
		<circle fill="#F8B64C" cx="24" cy="24" r="10.4"/>
		<g>
			<path fill="#FFD15C" d="M23.3,28.5v-4c-1.2-0.4-2.2-0.9-2.7-1.6c-0.6-0.7-0.9-1.6-0.9-2.6c0-1,0.3-1.9,1-2.6
				c0.7-0.7,1.5-1.1,2.6-1.2v-0.9h1.4v0.9c1,0.1,1.8,0.5,2.4,1c0.6,0.6,1,1.3,1.1,2.3l-2.4,0.3c-0.1-0.7-0.5-1.3-1.1-1.5v3.7
				c1.5,0.4,2.6,0.9,3.1,1.6c0.6,0.7,0.8,1.5,0.8,2.5c0,1.1-0.3,2.1-1,2.9s-1.7,1.3-2.9,1.4v1.8h-1.4v-1.7c-1.1-0.1-2-0.5-2.7-1.2
				c-0.7-0.7-1.1-1.7-1.3-2.9l2.5-0.3c0.1,0.5,0.3,0.9,0.6,1.3C22.7,28.1,23,28.3,23.3,28.5z M23.3,18.5c-0.4,0.1-0.7,0.3-0.9,0.6
				c-0.2,0.3-0.3,0.6-0.3,1c0,0.3,0.1,0.6,0.3,0.9c0.2,0.3,0.5,0.5,0.9,0.7V18.5z M24.7,28.6c0.5-0.1,0.9-0.3,1.2-0.7
				c0.3-0.4,0.4-0.8,0.4-1.2c0-0.4-0.1-0.8-0.4-1.1c-0.3-0.3-0.7-0.5-1.2-0.7V28.6z"/>
		</g>
	</g>
	<g>
		<path fill="#84DBFF" d="M43.7,24H48C48,10.8,37.3,0,24,0v4.3C34.9,4.3,43.7,13.1,43.7,24z"/>
		<path fill="#F2F2F2" d="M43.7,24c0,5.4-2.2,10.4-5.8,13.9l3,3c4.3-4.3,7-10.3,7-17H43.7z"/>
		<path fill="#FF7058" d="M4.3,24C4.3,13.1,13.1,4.3,24,4.3V0C10.7,0,0,10.8,0,24c0,6.6,2.7,12.6,7,17l3-3C6.5,34.4,4.3,29.4,4.3,24
			z"/>
		<path fill="#4CDBC4" d="M24,43.7c-5.4,0-10.4-2.2-13.9-5.8l-3,3c4.3,4.3,10.3,7,17,7s12.6-2.7,17-7l-3-3
			C34.4,41.5,29.4,43.7,24,43.7z"/>
		<path fill="#54C0EB" d="M24,4.3v4.5c8.4,0,15.2,6.8,15.2,15.2h4.5C43.7,13.1,34.9,4.3,24,4.3z"/>
		<path fill="#CDD6E0" d="M34.7,34.7L34.7,34.7l3.2,3.2c3.6-3.6,5.8-8.5,5.8-13.9h-4.5C39.2,28.2,37.5,32,34.7,34.7z"/>
		<path fill="#F1543F" d="M13.3,34.7C10.5,32,8.8,28.2,8.8,24c0-8.4,6.8-15.2,15.2-15.2V4.3C13.1,4.3,4.3,13.1,4.3,24
			c0,5.4,2.2,10.4,5.8,13.9L13.3,34.7L13.3,34.7z"/>
		<path fill="#3DC9AE" d="M24,39.2c-4.2,0-8-1.7-10.7-4.4l-3.2,3.2c3.6,3.6,8.5,5.8,13.9,5.8c5.4,0,10.4-2.2,13.9-5.8l-3.2-3.2
			C32,37.5,28.2,39.2,24,39.2z"/>
	</g>
</g>
</svg>
