<?xml version="1.0" encoding="utf-8"?>
<!-- Generator: Adobe Illustrator 20.1.0, SVG Export Plug-In . SVG Version: 6.00 Build 0)  -->
<!DOCTYPE svg PUBLIC "-//W3C//DTD SVG 1.1//EN" "http://www.w3.org/Graphics/SVG/1.1/DTD/svg11.dtd">
<svg version="1.1" id="Layer_1" xmlns="http://www.w3.org/2000/svg" xmlns:xlink="http://www.w3.org/1999/xlink" x="0px" y="0px"
	 viewBox="0 0 49 49" enable-background="new 0 0 49 49" xml:space="preserve">
<g>
	<path fill="#F2F2F2" d="M22.9,15.1c0.9-0.9,2.3-0.9,3.2,0l10,10V14.4L24.5,2.9L12.9,14.4v10.7L22.9,15.1z"/>
	<path fill="#40596B" d="M38,15.9c-0.3,0-0.5-0.1-0.7-0.3L24.5,2.9L11.7,15.6c-0.2,0.2-0.4,0.3-0.7,0.3c-0.3,0-0.5-0.1-0.7-0.3
		c-0.2-0.2-0.3-0.4-0.3-0.7c0-0.3,0.1-0.5,0.3-0.7L23.8,0.8c0.2-0.2,0.4-0.3,0.7-0.3c0.3,0,0.5,0.1,0.7,0.3l13.5,13.4
		c0.2,0.2,0.3,0.4,0.3,0.7c0,0.3-0.1,0.5-0.3,0.7C38.5,15.8,38.3,15.9,38,15.9z"/>
	<path fill="#F2F2F2" d="M40.9,36.2v10.6c0,0.9-0.8,1.7-1.7,1.7H9.9c-0.9,0-1.7-0.8-1.7-1.7V36.2l16.4-16.4L40.9,36.2z"/>
	<path fill="#E2E2E2" d="M40.9,36.2v1.6c-0.3-0.2-0.5-0.3-0.7-0.6L24.5,21.6L8.9,37.3c-0.2,0.2-0.5,0.4-0.7,0.5v-1.6l16.4-16.4
		L40.9,36.2z"/>
	<path fill="#40596B" d="M6.4,37c-0.6,0-1.2-0.2-1.6-0.7c-0.9-0.9-0.9-2.3,0-3.2l18.1-18.1c0.9-0.9,2.3-0.9,3.2,0l18.1,18.1
		c0.9,0.9,0.9,2.3,0,3.2c-0.9,0.9-2.3,0.9-3.2,0L24.5,19.8L8,36.4C7.5,36.8,6.9,37,6.4,37z"/>
	<polygon fill="#E2E2E2" points="36.1,14.4 36.1,15.9 24.5,4.4 12.9,15.9 12.9,14.4 24.5,2.9 	"/>
	<rect x="33.5" y="39.8" fill="#ACB3BA" width="5.1" height="5.1"/>
	<rect x="10" y="39.8" fill="#ACB3BA" width="5.1" height="5.1"/>
	<rect x="22.9" y="7.8" fill="#ACB3BA" width="3.2" height="3.1"/>
	<path fill="#40596B" d="M31.6,40.5v8H17.4v-8c0-3.9,3.2-7.1,7.1-7.1c2,0,3.7,0.8,5,2.1C30.8,36.8,31.6,38.5,31.6,40.5z"/>
</g>
</svg>
