<?xml version="1.0" encoding="utf-8"?>
<!-- Generator: Adobe Illustrator 18.0.0, SVG Export Plug-In . SVG Version: 6.00 Build 0)  -->
<!DOCTYPE svg PUBLIC "-//W3C//DTD SVG 1.1//EN" "http://www.w3.org/Graphics/SVG/1.1/DTD/svg11.dtd">
<svg version="1.1" id="Layer_1" xmlns="http://www.w3.org/2000/svg" xmlns:xlink="http://www.w3.org/1999/xlink" x="0px" y="0px"
	 viewBox="0 0 512 512" enable-background="new 0 0 512 512" xml:space="preserve">
<g>
	<path fill="#3DC9AE" d="M470.9,2H62C28.9,2,2,28.9,2,62v0c0,33.2,26.9,60,60,60h416.1V9.3C478.1,5.2,474.9,2,470.9,2z"/>
	<path fill="#4CDBC4" d="M478.1,23.2H62c-21.4,0-38.9,17.4-38.9,38.9s17.4,38.9,38.9,38.9h416.1V23.2z"/>
	<path fill="#40596B" d="M2,62"/>
	<path fill="#40596B" d="M77.9,122.1H62c-33.2,0-60-26.9-60-60v388c0,33.1,26.9,60,60,60h377.4c33.1,0,60-26.9,60-60V142.1
		c0-11.1-9-20-20-20H77.9L77.9,122.1z"/>
	<path fill="#3DC9AE" d="M371.5,366.2H510V265.8H371.5c-27.7,0-50.2,22.5-50.2,50.2l0,0C321.3,343.8,343.8,366.2,371.5,366.2z"/>
	<circle fill="#F2F2F2" cx="375.2" cy="316" r="29.6"/>
</g>
</svg>
