<?xml version="1.0" encoding="utf-8"?>
<!-- Generator: Adobe Illustrator 18.0.0, SVG Export Plug-In . SVG Version: 6.00 Build 0)  -->
<!DOCTYPE svg PUBLIC "-//W3C//DTD SVG 1.1//EN" "http://www.w3.org/Graphics/SVG/1.1/DTD/svg11.dtd">
<svg version="1.1" id="Layer_1" xmlns="http://www.w3.org/2000/svg" xmlns:xlink="http://www.w3.org/1999/xlink" x="0px" y="0px"
	 viewBox="0 0 48 48" enable-background="new 0 0 48 48" xml:space="preserve">
<g>
	<path fill="#F2F2F2" d="M5.9,29.8l-1.1-1.1c-1.3-1.3-1.3-3.3,0-4.6L25.5,3.5l5.7,5.7L10.5,29.8C9.3,31.1,7.2,31.1,5.9,29.8z"/>
	
		<rect x="16.2" y="14.1" transform="matrix(0.7071 -0.7071 0.7071 0.7071 -7.9173 17.0506)" fill="#E4EAEF" width="0.9" height="7.9"/>
	
		<rect x="11.7" y="18.5" transform="matrix(0.7071 -0.7071 0.7071 0.7071 -12.3363 15.2201)" fill="#E4EAEF" width="0.9" height="7.9"/>
	<path fill="#FF7058" d="M15.4,7.9L13,10.3c-1,1-1,2.5,0,3.5l14.4,14.4c1.4-1.4,3.8-1.4,5.2,0l3.3-3.3l-17-17
		C18,6.9,16.4,6.9,15.4,7.9z"/>
	<path fill="#40596B" d="M3,40.9l18.5-18.5l5.9,5.9L8.9,46.8c-1.6,1.6-4.3,1.6-5.9,0l0,0C1.4,45.1,1.4,42.5,3,40.9z"/>
	<path fill="#40596B" d="M12.4,15.6l6.7,6.7c0.4,0.4,0.4,1,0,1.4l-1.8,1.8c-0.4,0.4-1,0.4-1.4,0l-6.7-6.7c-0.4-0.4-0.4-1,0-1.4
		l1.8-1.8C11.4,15.2,12,15.2,12.4,15.6z"/>
	<path fill="#40596B" d="M11.3,23.4l-1.9,1.9c-0.4,0.4-0.2,0.9,0.1,1.6c1.1,2.2,1.3,4.6,0.5,6.9L10,33.9l3-3l3-3L11.3,23.4z"/>
	<path fill="#F2F2F2" d="M44.5,16c-0.3-0.9-0.6-2.5-0.8-5.2c-0.5-5.3-4-8-4-8C36-0.9,30-0.9,26.3,2.8l-0.7,0.7l13.6,13.6L43,21
		l3.2-3.2L44.5,16z"/>
	<g>
		
			<rect x="16.8" y="22" transform="matrix(0.7071 0.7071 -0.7071 0.7071 21.7702 -5.2599)" fill="#334A5E" width="0.9" height="3.3"/>
		
			<rect x="14.7" y="19.9" transform="matrix(0.7071 0.7071 -0.7071 0.7071 19.7109 -4.4069)" fill="#334A5E" width="0.9" height="3.3"/>
		
			<rect x="12.7" y="17.9" transform="matrix(0.7071 0.7071 -0.7071 0.7071 17.6516 -3.5539)" fill="#334A5E" width="0.9" height="3.3"/>
		
			<rect x="10.6" y="15.8" transform="matrix(0.7071 0.7071 -0.7071 0.7071 15.5924 -2.7009)" fill="#334A5E" width="0.9" height="3.3"/>
	</g>
	<circle fill="#FFFFFF" cx="5.9" cy="43.8" r="1.8"/>
	
		<rect x="23.7" y="21.4" transform="matrix(0.7071 -0.7071 0.7071 0.7071 -11.039 24.587)" fill="#334A5E" width="0.9" height="8.4"/>
</g>
</svg>
