<?xml version="1.0" encoding="utf-8"?>
<!-- Generator: Adobe Illustrator 16.0.0, SVG Export Plug-In . SVG Version: 6.00 Build 0)  -->
<!DOCTYPE svg PUBLIC "-//W3C//DTD SVG 1.1//EN" "http://www.w3.org/Graphics/SVG/1.1/DTD/svg11.dtd">
<svg version="1.1" id="Layer_1" xmlns="http://www.w3.org/2000/svg" xmlns:xlink="http://www.w3.org/1999/xlink" x="0px" y="0px"
	 width="48px" height="48px" viewBox="0 0 48 48" enable-background="new 0 0 48 48" xml:space="preserve">
<g>
	<path fill="#F2F2F2" d="M24,9.508c-2.621,0-4.754-2.131-4.754-4.754C19.246,2.133,21.379,0,24,0s4.754,2.133,4.754,4.754
		C28.754,7.377,26.621,9.508,24,9.508 M24,2.354c-1.324,0-2.4,1.076-2.4,2.4s1.076,2.401,2.4,2.401s2.401-1.077,2.401-2.401
		S25.324,2.354,24,2.354"/>
	<path fill="#4CDBC4" d="M44.03,27.971C44.03,39.033,35.063,48,24.001,48C12.938,48,3.97,39.033,3.97,27.971
		S12.938,7.939,24.001,7.939C35.063,7.939,44.03,16.908,44.03,27.971"/>
	<path fill="#FFFFFF" d="M24,43.827c-8.744,0-15.856-7.114-15.856-15.856c0-8.744,7.112-15.858,15.856-15.858
		s15.857,7.114,15.857,15.858C39.857,36.713,32.744,43.827,24,43.827"/>
	<polygon fill="#FF7058" points="26.228,30.197 17.072,34.898 21.772,25.742 30.929,21.041 	"/>
	<polygon fill="#CDD6E0" points="17.072,34.898 26.229,30.197 21.773,25.742 	"/>
	<polygon fill="#CDD6E0" points="35.706,28.923 35.706,27.076 38.3,28 	"/>
	<polygon fill="#CDD6E0" points="24.953,16.264 23.106,16.264 24.03,13.67 	"/>
	<polygon fill="#CDD6E0" points="12.294,27.018 12.294,28.863 9.701,27.939 	"/>
	<polygon fill="#CDD6E0" points="23.047,39.676 24.895,39.676 23.972,42.27 	"/>
	<path fill="#40596B" d="M26.228,30.197c-1.229,1.23-3.225,1.23-4.455,0c-1.229-1.23-1.229-3.225,0-4.455
		c1.23-1.23,3.226-1.23,4.455,0C27.458,26.973,27.458,28.967,26.228,30.197"/>
	<path fill="#FFFFFF" d="M25.033,29.003c-0.57,0.569-1.495,0.569-2.066,0c-0.569-0.569-0.569-1.495,0-2.065
		c0.571-0.57,1.496-0.57,2.066,0S25.604,28.434,25.033,29.003"/>
</g>
</svg>
