<?xml version="1.0" encoding="utf-8"?>
<!-- Generator: Adobe Illustrator 18.0.0, SVG Export Plug-In . SVG Version: 6.00 Build 0)  -->
<!DOCTYPE svg PUBLIC "-//W3C//DTD SVG 1.1//EN" "http://www.w3.org/Graphics/SVG/1.1/DTD/svg11.dtd">
<svg version="1.1" id="Layer_1" xmlns="http://www.w3.org/2000/svg" xmlns:xlink="http://www.w3.org/1999/xlink" x="0px" y="0px"
	 viewBox="0 0 512 512" enable-background="new 0 0 512 512" xml:space="preserve">
<g>
	<path fill="#40596B" d="M497.8,139.4l-44.1-44.1C440.4,82,419,82,405.8,95.2L352,149c-13.2,13.2-13.2,34.7,0,47.9l31.8,31.8l0,0
		c-43.1,60-95.8,112.7-155.8,155.8l0,0l-31.8-31.8c-13.2-13.2-34.7-13.2-47.9,0l-53.8,53.8c-13.2,13.2-13.2,34.7,0,47.9l44.1,44.1
		c43.4,43.4,157.2-46,225.1-114c6.7-6.7,13.4-13.4,20.1-20.1C452.1,296.2,541.2,182.8,497.8,139.4z"/>
	<path fill="#FF7058" d="M248.8,213c33.4-21.9,54.6-54.9,54.6-91.9C303.4,55.3,236.1,2,153.1,2S2.8,55.3,2.8,121.2
		s67.3,119.2,150.3,119.2c15.9,0,31.2-2,45.6-5.6c18.9,22.9,58.6,38.3,98.3,27.1C296,261.8,247.5,249.7,248.8,213z"/>
	<circle fill="#FFFFFF" cx="84.7" cy="121.2" r="27.3"/>
	<circle fill="#FFFFFF" cx="153.1" cy="121.2" r="27.3"/>
	<circle fill="#FFFFFF" cx="221.4" cy="121.2" r="27.3"/>
</g>
</svg>
