<?xml version="1.0" encoding="utf-8"?>
<!-- Generator: Adobe Illustrator 18.0.0, SVG Export Plug-In . SVG Version: 6.00 Build 0)  -->
<!DOCTYPE svg PUBLIC "-//W3C//DTD SVG 1.1//EN" "http://www.w3.org/Graphics/SVG/1.1/DTD/svg11.dtd">
<svg version="1.1" id="Layer_1" xmlns="http://www.w3.org/2000/svg" xmlns:xlink="http://www.w3.org/1999/xlink" x="0px" y="0px"
	 viewBox="0 0 48 48" enable-background="new 0 0 48 48" xml:space="preserve">
<g>
	<g>
		<g>
			<path fill="#E8EAE9" d="M45,48H3c-1.7,0-3-1.3-3-3V3c0-1.7,1.3-3,3-3h42c1.7,0,3,1.3,3,3v42C48,46.7,46.7,48,45,48z"/>
			<rect x="4" y="10.5" fill="#FFFFFF" width="40" height="33.5"/>
			<g>
				<circle fill="#F3705A" cx="6.1" cy="5.2" r="2.1"/>
				<circle fill="#4ABAA5" cx="12.5" cy="5.2" r="2.1"/>
				<circle fill="#FFD15C" cx="19" cy="5.2" r="2.1"/>
			</g>
		</g>
		<g>
			<g>
				<path fill="#55C0EB" d="M34.5,18l-0.9-2l-1.8,0.4c-0.2-0.2-0.4-0.4-0.6-0.6l0.4-1.9l-2.1-0.8l-1,1.6c-0.3,0-0.6,0-0.9,0l-1-1.6
					l-2,0.9l0.4,1.8c-0.2,0.2-0.4,0.4-0.6,0.6l-1.8-0.4l-0.8,2.1l1.6,1c0,0.3,0,0.6,0,0.9l-1.6,1l0.9,2l1.8-0.4
					c0.2,0.2,0.4,0.4,0.6,0.6l-0.4,1.8l2.1,0.8l1-1.6c0.3,0,0.6,0,0.9,0l1,1.6l2-0.9l-0.4-1.8c0.2-0.2,0.4-0.4,0.6-0.6l1.8,0.4
					l0.8-2.1l-1.6-1c0-0.3,0-0.6,0-0.9L34.5,18z M29.3,22.4c-1.6,0.7-3.4,0-4.1-1.6c-0.7-1.6,0-3.4,1.6-4.1c1.6-0.7,3.4,0,4.1,1.6
					C31.6,19.9,30.9,21.7,29.3,22.4z M28.7,20.9c-0.7,0.3-1.6,0-1.9-0.8c-0.3-0.7,0-1.6,0.8-1.9c0.7-0.3,1.6,0,1.9,0.8
					C29.8,19.7,29.4,20.6,28.7,20.9z"/>
			</g>
			<g>
				<path fill="#415A6B" d="M24.1,25.4l-1.8-1.8L19.7,25c-0.4-0.2-0.9-0.4-1.4-0.6l-0.8-2.8h-2.6l-0.8,2.8c-0.5,0.1-0.9,0.3-1.4,0.6
					l-2.6-1.4l-1.8,1.8L9.7,28c-0.2,0.4-0.4,0.9-0.6,1.4l-2.8,0.8v2.6l2.8,0.8c0.1,0.5,0.3,0.9,0.6,1.4l-1.4,2.6l1.8,1.8l2.6-1.4
					c0.4,0.2,0.9,0.4,1.4,0.6l0.8,2.8l2.6,0l0.8-2.8c0.5-0.1,0.9-0.3,1.4-0.6l2.6,1.4l1.8-1.8L22.7,35c0.2-0.4,0.4-0.9,0.6-1.4
					l2.8-0.8v-2.6l-2.8-0.8c-0.1-0.5-0.3-0.9-0.6-1.4L24.1,25.4z M18.4,33.7c-1.2,1.2-3.2,1.2-4.4,0c-1.2-1.2-1.2-3.2,0-4.4
					c1.2-1.2,3.2-1.2,4.4,0C19.6,30.5,19.6,32.4,18.4,33.7z"/>
			</g>
			<g>
				<path fill="#FFD15C" d="M39.5,28.1l-1.6-1.3l-2,1.3c-0.4-0.2-0.8-0.3-1.1-0.3l-0.9-2.2l-2.1,0.2l-0.4,2.3
					c-0.4,0.2-0.7,0.3-1.1,0.6l-2.2-0.9l-1.3,1.6l1.3,1.9c-0.2,0.4-0.3,0.8-0.3,1.2l-2.2,0.9l0.2,2.1l2.3,0.4
					c0.2,0.4,0.3,0.7,0.6,1.1l-0.9,2.2l1.6,1.3l1.9-1.3c0.4,0.2,0.8,0.3,1.2,0.3l0.9,2.2l2.1-0.2l0.4-2.3c0.4-0.2,0.7-0.3,1.1-0.6
					l2.2,0.9l1.3-1.6l-1.3-1.9c0.2-0.4,0.3-0.8,0.3-1.2l2.2-0.9l-0.2-2.1l-2.3-0.4c-0.2-0.4-0.3-0.7-0.6-1.1L39.5,28.1z M35.6,35.2
					c-0.9,1.1-2.4,1.2-3.5,0.4c-1.1-0.9-1.2-2.4-0.4-3.5c0.9-1.1,2.4-1.2,3.5-0.4C36.3,32.6,36.4,34.1,35.6,35.2z"/>
			</g>
		</g>
	</g>
</g>
</svg>
