<?xml version="1.0" encoding="utf-8"?>
<!-- Generator: Adobe Illustrator 18.0.0, SVG Export Plug-In . SVG Version: 6.00 Build 0)  -->
<!DOCTYPE svg PUBLIC "-//W3C//DTD SVG 1.1//EN" "http://www.w3.org/Graphics/SVG/1.1/DTD/svg11.dtd">
<svg version="1.1" id="Layer_1" xmlns="http://www.w3.org/2000/svg" xmlns:xlink="http://www.w3.org/1999/xlink" x="0px" y="0px"
	 viewBox="0 0 48 48" enable-background="new 0 0 48 48" xml:space="preserve">
<g>
	<path fill="#F2F2F2" d="M19.6,9.2L19.6,9.2c0,1.1-0.9,1.9-1.9,1.9H2C0.9,11.1,0,12,0,13.1v25.8c0,1.1,0.9,1.9,1.9,1.9H46
		c1.1,0,1.9-0.9,1.9-1.9V9.2c0-1.1-0.9-1.9-1.9-1.9H21.5C20.4,7.2,19.6,8.1,19.6,9.2z"/>
	<rect x="0" y="16.3" fill="#40596B" width="48" height="21"/>
	<g>
		<path fill="#ACB3BA" d="M16.4,9.2H11c-0.4,0-0.7,0.3-0.7,0.7v1.3H17V9.8C17,9.5,16.7,9.2,16.4,9.2z"/>
		<path fill="#ACB3BA" d="M7.6,9.2H2.9c-0.4,0-0.7,0.3-0.7,0.7v1.3h6.1V9.8C8.3,9.5,8,9.2,7.6,9.2z"/>
	</g>
	<path opacity="0.1" fill="#231F20" d="M30.2,39.6c-6.5,0-11.8-5.3-11.8-11.8S23.7,16,30.2,16S42,21.3,42,27.8S36.7,39.6,30.2,39.6z
		"/>
	<g>
		<path fill="#FFFFFF" d="M30.2,38.6c-6.5,0-11.8-5.3-11.8-11.8s5.3-11.8,11.8-11.8S42,20.2,42,26.8S36.7,38.6,30.2,38.6z"/>
		<path fill="#F2F2F2" d="M30.2,36.4c-5.3,0-9.6-4.3-9.6-9.6s4.3-9.6,9.6-9.6s9.6,4.3,9.6,9.6S35.5,36.4,30.2,36.4z"/>
		<path fill="#40596B" d="M30.2,35.3c-4.7,0-8.5-3.8-8.5-8.5s3.8-8.5,8.5-8.5s8.5,3.8,8.5,8.5S34.9,35.3,30.2,35.3z"/>
		<circle fill="#54C0EB" cx="30.2" cy="26.8" r="5.2"/>
		<path fill="#84DBFF" d="M32.2,24.8c0,1.1-3.9,1.1-3.9,0c0-1.1,0.9-2,2-2S32.2,23.7,32.2,24.8z"/>
	</g>
	<rect x="36.3" y="8.8" fill="#FF7058" width="9.6" height="4.8"/>
</g>
</svg>
