<?xml version="1.0" encoding="utf-8"?>
<!-- Generator: Adobe Illustrator 18.0.0, SVG Export Plug-In . SVG Version: 6.00 Build 0)  -->
<!DOCTYPE svg PUBLIC "-//W3C//DTD SVG 1.1//EN" "http://www.w3.org/Graphics/SVG/1.1/DTD/svg11.dtd">
<svg version="1.1" id="Layer_1" xmlns="http://www.w3.org/2000/svg" xmlns:xlink="http://www.w3.org/1999/xlink" x="0px" y="0px"
	 viewBox="0 0 512 512" enable-background="new 0 0 512 512" xml:space="preserve">
<g>
	<rect x="243.1" y="350" fill="#41596B" width="25.7" height="65"/>
	<rect x="303.5" y="449.6" fill="#41596B" width="157.1" height="25.7"/>
	<rect x="201.1" y="449.6" opacity="0.2" fill="#27489A" width="7.4" height="25.7"/>
	<rect x="51.4" y="449.6" fill="#41596B" width="157.1" height="25.7"/>
	<rect x="208.5" y="415" fill="#F2705B" width="95" height="95"/>
	<path fill="#89D6F7" d="M457.3,169.8c2.1-9.6,3.3-19.6,3.3-29.9C460.6,63.7,398.9,2,322.7,2c-49.3,0-92.5,25.9-116.9,64.7
		c-13.8-7.8-29.7-12.3-46.7-12.3c-52.7,0-95.3,42.7-95.3,95.3c0,5.3,0.5,10.4,1.4,15.5C28.4,178.4,2,213.5,2,254.9
		C2,307.4,44.6,350,97.2,350h317.7c52.6,0,95.2-42.6,95.2-95.2C510,217.6,488.5,185.4,457.3,169.8z"/>
	<path fill="#55BFE9" d="M19.6,272.5c0-41.3,26.4-76.4,63.2-89.6c-0.8-5.1-1.4-10.2-1.4-15.5c0-52.7,42.7-95.3,95.3-95.3
		c17,0,32.9,4.5,46.7,12.3c24.4-38.9,67.6-64.7,116.9-64.7c33.6,0,64.3,12,88.3,32C403.3,21.3,365.3,2,322.7,2
		c-49.3,0-92.5,25.9-116.9,64.7c-13.8-7.8-29.7-12.3-46.7-12.3c-52.7,0-95.3,42.7-95.3,95.3c0,5.3,0.5,10.4,1.4,15.5
		C28.4,178.4,2,213.5,2,254.9c0,30.8,14.7,58.1,37.3,75.5C27,314.3,19.6,294.3,19.6,272.5z"/>
	<rect x="229.2" y="435.7" fill="#FFD05C" width="53.6" height="53.6"/>
	<rect x="243.1" y="350" fill="#334A5E" width="25.7" height="17.5"/>
</g>
</svg>
