<?xml version="1.0" encoding="utf-8"?>
<!-- Generator: Adobe Illustrator 18.0.0, SVG Export Plug-In . SVG Version: 6.00 Build 0)  -->
<!DOCTYPE svg PUBLIC "-//W3C//DTD SVG 1.1//EN" "http://www.w3.org/Graphics/SVG/1.1/DTD/svg11.dtd">
<svg version="1.1" id="Layer_1" xmlns="http://www.w3.org/2000/svg" xmlns:xlink="http://www.w3.org/1999/xlink" x="0px" y="0px"
	 viewBox="0 0 48 48" enable-background="new 0 0 48 48" xml:space="preserve">
<g>
	<path fill="#40596B" d="M45,7.8c0-1-0.8-1.8-1.8-1.8H4.7C3.7,6,3,6.8,3,7.8v26.3H45V7.8z"/>
	<path fill="#CDD6E0" d="M36.7,46.9h-1.6c-1.5,0-2.6-1.2-2.6-2.6v-3.8h-17v3.8c0,1.5-1.2,2.6-2.6,2.6h-1.6c-0.3,0-0.6,0.2-0.6,0.6v0
		c0,0.3,0.2,0.6,0.6,0.6h25.4c0.3,0,0.6-0.2,0.6-0.6v0C37.3,47.1,37,46.9,36.7,46.9z"/>
	<rect x="5.6" y="8.7" fill="#FFFFFF" width="36.8" height="22.8"/>
	<rect x="5.6" y="8.7" fill="#FFFFFF" width="36.8" height="22.8"/>
	<path fill="#F2F2F2" d="M3,34.1v4.6c0,1,0.8,1.8,1.8,1.8h38.6c1,0,1.8-0.8,1.8-1.8v-4.6H3z"/>
	<circle fill="#CDD6E0" cx="24" cy="37.3" r="1.4"/>
	<rect x="15.5" y="40.4" fill="#C3D0DB" width="17" height="1.3"/>
	<polygon fill="#55BFE9" points="35.7,29.3 35.7,29.8 35.7,29.3 	"/>
	<polygon fill="#FFD15C" points="34.8,29.8 34.8,29.8 35.7,29.8 	"/>
	<rect x="34.3" y="29.2" fill="#55BFE9" width="0" height="1.1"/>
	<rect x="30.6" y="0" fill="#ACB3BA" width="3.9" height="31.5"/>
	<g>
		<polygon fill="#54C0EB" points="40.7,31.5 38.1,31.5 38.1,31.5 38.1,29 40.7,29 		"/>
		<polygon fill="#FFD05C" points="38.1,3.4 39.4,0 40.7,3.4 		"/>
		<rect x="38.1" y="3.4" fill="#FF7058" width="1.3" height="24.8"/>
		<rect x="39.4" y="3.4" fill="#F1543F" width="1.3" height="24.8"/>
		<polygon fill="#334A5E" points="39.9,1.4 39.4,0 38.9,1.4 		"/>
		<rect x="38.1" y="28.2" fill="#F2F2F2" width="2.6" height="0.8"/>
	</g>
	<rect x="34.5" y="0" fill="#CDD6E0" width="2.3" height="31.5"/>
	<g>
		<rect x="30.6" y="1.1" fill="#CDD6E0" width="0.9" height="0.2"/>
		<rect x="30.6" y="3.2" fill="#CDD6E0" width="0.9" height="0.2"/>
		<rect x="30.6" y="5.3" fill="#CDD6E0" width="0.9" height="0.2"/>
		<rect x="30.6" y="7.3" fill="#CDD6E0" width="0.9" height="0.2"/>
		<rect x="30.6" y="9.4" fill="#CDD6E0" width="0.9" height="0.2"/>
		<rect x="30.6" y="11.5" fill="#CDD6E0" width="0.9" height="0.2"/>
		<rect x="30.6" y="13.5" fill="#CDD6E0" width="0.9" height="0.2"/>
		<rect x="30.6" y="15.6" fill="#CDD6E0" width="0.9" height="0.2"/>
		<rect x="30.6" y="17.7" fill="#CDD6E0" width="0.9" height="0.2"/>
		<rect x="30.6" y="19.8" fill="#CDD6E0" width="0.9" height="0.2"/>
		<rect x="30.6" y="21.8" fill="#CDD6E0" width="0.9" height="0.2"/>
		<rect x="30.6" y="23.9" fill="#CDD6E0" width="0.9" height="0.2"/>
		<rect x="30.6" y="26" fill="#CDD6E0" width="0.9" height="0.2"/>
		<rect x="30.6" y="28" fill="#CDD6E0" width="0.9" height="0.2"/>
		<rect x="30.6" y="30.1" fill="#CDD6E0" width="0.9" height="0.2"/>
	</g>
	<g>
		<rect x="7.3" y="3.8" fill="#F2F2F2" width="22.1" height="27.6"/>
		<rect x="7.3" y="0" fill="#CDD6E0" width="22.1" height="3.8"/>
		<rect x="9.4" y="5.9" fill="#FFD15C" width="17.9" height="10.5"/>
		<rect x="9.4" y="18.6" fill="#F8B64C" width="8.7" height="10.8"/>
		<rect x="20.2" y="18.6" fill="#FF7058" width="7.1" height="10.8"/>
	</g>
</g>
</svg>
