<?xml version="1.0" encoding="utf-8"?>
<!-- Generator: Adobe Illustrator 18.0.0, SVG Export Plug-In . SVG Version: 6.00 Build 0)  -->
<!DOCTYPE svg PUBLIC "-//W3C//DTD SVG 1.1//EN" "http://www.w3.org/Graphics/SVG/1.1/DTD/svg11.dtd">
<svg version="1.1" id="Layer_1" xmlns="http://www.w3.org/2000/svg" xmlns:xlink="http://www.w3.org/1999/xlink" x="0px" y="0px"
	 viewBox="0 0 48 48" enable-background="new 0 0 48 48" xml:space="preserve">
<g>
	<path fill="#ACB3BA" d="M24,7.7c0,0-3.8,0.4-4.8-1.6c0,0,0,0,0,0c-1-2-3.6-2.5-5.3-1c-3,2.7-9.2,7.8-13.8,6.5c0,0,1.3,3.1,5.4,2.5
		c0,0,2,2,5.4,0.7c0,0,1.9,1.4,4.8,0.1c0,0,2,1.6,4.3,0.2c0,0,2.4,1.8,4,0V7.7z"/>
	<path fill="#ACB3BA" d="M24,7.7c0,0,3.8,0.4,4.8-1.6c0,0,0,0,0,0c1-2,3.6-2.5,5.3-1c3,2.7,9.2,7.8,13.8,6.5c0,0-1.3,3.1-5.4,2.5
		c0,0-2,2-5.4,0.7c0,0-1.9,1.4-4.8,0.1c0,0-2,1.6-4.3,0.2c0,0-2.4,1.8-4,0V7.7z"/>
	<path fill="#F2F2F2" d="M24,48L24,48c0,0-0.7-0.7-0.7-0.7V4.8h1.4v42.5L24,48z"/>
	<path fill="#FFD15C" d="M26,19.8c0,0-1.3-2.1,1.7-3.1c0,0,3-1.4,6,2.2c0,0,2.3,2.8,0.9,5.1c0,0-0.4,1.4-7,4
		c-0.3,0.1-0.5,0.2-0.8,0.3c-1.4,0.4-6.7,2.4-3.3,6.3L21.8,36c0,0-4.3-3.5,0-7.4c0,0,2.1-2,5.7-3.2s4.8-2.2,4.8-2.2s2-1.1-1.2-1.4
		C31.1,21.8,27.3,22.1,26,19.8z"/>
	<path fill="#FFD15C" d="M26.2,36.6c0,0,3,2.8,1.7,4.8c0,0-0.5,0.8-2.4,1.7c-1.7,0.8-3.2,1.9-4.4,3.4c-0.4,0.4-0.7,0.9-1,1.4
		c0,0-0.5,0.4-0.3-0.9c0,0-0.2-3.4,2.8-4.6c0,0,5.3-1.8,2.3-4.1v-0.6L26.2,36.6z"/>
	<path fill="#FF7058" d="M20.9,28.3c0.1-0.1,0.2-0.2,0.3-0.3c0,0,0.7-0.7,2-1.5c-0.8-0.4-1.6-0.8-2.6-1.1c-3.6-1.2-4.8-2.2-4.8-2.2
		s-2-1.1,1.2-1.4c0,0,3.8,0.3,5.1-2c0,0,1.3-2.1-1.7-3.1c0,0-3-1.4-6,2.2c0,0-2.3,2.8-0.9,5.1c0,0,0.4,1.4,7,4
		C20.6,28.2,20.8,28.2,20.9,28.3z"/>
	<g>
		<path fill="#FF7058" d="M26.2,36c-1,0.9-3.1,2.3-3.1,2.3c-1.6,1.2-0.9,2.2,0.1,3c-0.3,0.2-0.7,0.3-1,0.4c-0.4,0.2-0.8,0.4-1.1,0.6
			c-0.8-0.5-1.1-0.9-1.1-0.9c-1.3-2.1,1.7-4.8,1.7-4.8c1.1-0.9,2.8-1.9,2.8-1.9c1.7-2,1.2-3.5,0.1-4.5c0.7-0.4,1.5-0.8,2.2-1
			C30.1,32.9,26.2,36,26.2,36z"/>
		<path fill="#FF7058" d="M26.8,43.3c-0.3,0.2-0.6,0.3-0.9,0.5c-0.4,0.2-0.8,0.4-1.1,0.6c0.8,0.6,1.5,1.3,2.2,2
			c0.4,0.4,0.7,0.9,1,1.4c0,0,0.5,0.4,0.3-0.9C28.2,47,28.3,44.8,26.8,43.3z"/>
	</g>
	<circle fill="#334A5E" cx="24" cy="3.3" r="3.3"/>
</g>
</svg>
