<?xml version="1.0" encoding="utf-8"?>
<!-- Generator: Adobe Illustrator 20.1.0, SVG Export Plug-In . SVG Version: 6.00 Build 0)  -->
<!DOCTYPE svg PUBLIC "-//W3C//DTD SVG 1.1//EN" "http://www.w3.org/Graphics/SVG/1.1/DTD/svg11.dtd">
<svg version="1.1" id="Layer_1" xmlns="http://www.w3.org/2000/svg" xmlns:xlink="http://www.w3.org/1999/xlink" x="0px" y="0px"
	 viewBox="0 0 49 49" enable-background="new 0 0 49 49" xml:space="preserve">
<g>
	<path fill="#F2F2F2" d="M41.2,0.5H7.8c-1.1,0-2,0.9-2,2v44c0,1.1,0.9,2,2,2h33.4c1.1,0,2-0.9,2-2v-44C43.2,1.4,42.3,0.5,41.2,0.5z"
		/>
	<path fill="#84DBFF" d="M7.8,0.5c-1.1,0-2,0.9-2,2v44c0,1.1,0.9,2,2,2h3.2v-48H7.8z"/>
	<path fill="#FFFFFF" d="M36.1,27.8c0-1.7-1.4-3.1-3.1-3.1h-0.3c-0.3-2.8-2.7-4.9-5.5-4.9s-5.2,2.1-5.5,4.9h-0.3
		c-1.7,0-3.1,1.4-3.1,3.1c0,1.5,1.1,2.8,2.5,3.1v4.6h13v-4.6C35,30.6,36.1,29.3,36.1,27.8z"/>
	<path fill="#FF7058" d="M16.3,12.5V6.9H18l1,3.8l1-3.8h1.7v5.5h-1V8.1l-1.1,4.4h-1.1l-1.1-4.4v4.4H16.3z"/>
	<path fill="#FF7058" d="M22.7,12.5V6.9h4.1v0.9h-3v1.2h2.8V10h-2.8v1.5H27v0.9H22.7z"/>
	<path fill="#FF7058" d="M27.9,12.5V6.9H29l2.3,3.7V6.9h1v5.5h-1.1l-2.2-3.6v3.6H27.9z"/>
	<path fill="#FF7058" d="M33.5,6.9h1.1v3c0,0.5,0,0.8,0,0.9c0,0.2,0.2,0.8,1.1,0.8c0.8,0,1-0.5,1-0.7c0-0.2,0-0.5,0-0.9V6.9h1.1v2.9
		c0,0.7,0,1.1-0.1,1.4c-0.1,0.3-0.5,1.3-2.1,1.3c-1.7,0-2.1-1.1-2.2-1.3c-0.1-0.3-0.1-0.8-0.1-1.4V6.9z"/>
</g>
</svg>
