<?xml version="1.0" encoding="utf-8"?>
<!-- Generator: Adobe Illustrator 18.0.0, SVG Export Plug-In . SVG Version: 6.00 Build 0)  -->
<!DOCTYPE svg PUBLIC "-//W3C//DTD SVG 1.1//EN" "http://www.w3.org/Graphics/SVG/1.1/DTD/svg11.dtd">
<svg version="1.1" id="Layer_1" xmlns="http://www.w3.org/2000/svg" xmlns:xlink="http://www.w3.org/1999/xlink" x="0px" y="0px"
	 viewBox="0 0 48 48" enable-background="new 0 0 48 48" xml:space="preserve">
<g>
	<g>
		<g>
			<g>
				<g>
					<path fill="#E8EAE9" d="M34.4,46.8l7.8-37.6c0.2-1.1-0.5-2.2-1.6-2.4L10.3,0.4C9.2,0.2,8.1,0.9,7.9,2L0,39.7
						c-0.2,1.1,0.5,2.2,1.6,2.4L32,48.4C33.1,48.6,34.1,47.9,34.4,46.8z"/>
				</g>
				<g>
					<path fill="#F3F3F3" d="M29.4,45.6l9.2-9V5.2c0-1.1-0.9-2-2-2h-31c-1.1,0-2,0.9-2,2v38.4c0,1.1,0.9,2,2,2H29.4z"/>
					<rect x="8" y="14" fill="#8AD7F8" width="26.2" height="2.1"/>
					<rect x="8" y="20.4" fill="#CED6E0" width="26.2" height="2.1"/>
					<rect x="8" y="26.8" fill="#CED6E0" width="26.2" height="2.1"/>
					<rect x="8" y="33.3" fill="#CED6E0" width="12.4" height="2.1"/>
					<polygon fill="#CED6E0" points="29.4,45.6 38.6,36.6 29.4,36.6 					"/>
					<g>
						<path fill="#F3705A" d="M9.7,10.2c0.4,0,0.6-0.1,0.9-0.4l0.5,0.5c-0.4,0.4-0.8,0.6-1.3,0.6c-0.5,0-0.9-0.2-1.2-0.5
							c-0.3-0.3-0.5-0.7-0.5-1.2c0-0.5,0.2-0.9,0.5-1.2c0.3-0.3,0.7-0.5,1.2-0.5c0.5,0,1,0.2,1.3,0.6l-0.4,0.5
							c-0.2-0.3-0.5-0.4-0.8-0.4c-0.3,0-0.5,0.1-0.7,0.3C8.9,8.7,8.8,8.9,8.8,9.2c0,0.3,0.1,0.5,0.3,0.7C9.3,10.1,9.5,10.2,9.7,10.2
							z"/>
						<path fill="#F3705A" d="M14.2,10.4c-0.3,0.3-0.7,0.5-1.2,0.5c-0.5,0-0.9-0.2-1.2-0.5c-0.3-0.3-0.5-0.7-0.5-1.2
							c0-0.5,0.2-0.9,0.5-1.2c0.3-0.3,0.7-0.5,1.2-0.5c0.5,0,0.9,0.2,1.2,0.5c0.3,0.3,0.5,0.7,0.5,1.2C14.7,9.7,14.6,10.1,14.2,10.4
							z M14,9.2c0-0.3-0.1-0.5-0.3-0.7c-0.2-0.2-0.4-0.3-0.7-0.3c-0.3,0-0.5,0.1-0.7,0.3c-0.2,0.2-0.3,0.4-0.3,0.7s0.1,0.5,0.3,0.7
							c0.2,0.2,0.4,0.3,0.7,0.3c0.3,0,0.5-0.1,0.7-0.3C13.9,9.8,14,9.5,14,9.2z"/>
						<path fill="#F3705A" d="M17.6,7.7h0.7v3.2h-0.7l-1.5-2v2h-0.7V7.7H16l1.6,2.1V7.7z"/>
						<path fill="#F3705A" d="M20.4,8.3v2.6h-0.7V8.3h-0.9V7.7h2.5v0.6H20.4z"/>
						<path fill="#F3705A" d="M24.4,8.7c0,0.5-0.2,0.8-0.6,1l0.8,1.1h-0.9l-0.7-1h-0.5v1h-0.7V7.7H23c0.5,0,0.9,0.1,1.1,0.3
							C24.3,8.1,24.4,8.3,24.4,8.7z M23.6,9.1c0.1-0.1,0.1-0.2,0.1-0.4c0-0.2,0-0.3-0.1-0.4c-0.1-0.1-0.2-0.1-0.5-0.1h-0.5v0.9h0.5
							C23.3,9.2,23.5,9.2,23.6,9.1z"/>
						<path fill="#F3705A" d="M27.4,10.9l-0.3-0.7h-1.3l-0.3,0.7h-0.8l1.4-3.2h0.7l1.4,3.2H27.4z M26.5,8.6l-0.4,0.9h0.8L26.5,8.6z"
							/>
						<path fill="#F3705A" d="M30,10.2c0.4,0,0.6-0.1,0.9-0.4l0.5,0.5c-0.4,0.4-0.8,0.6-1.3,0.6s-0.9-0.2-1.2-0.5
							c-0.3-0.3-0.5-0.7-0.5-1.2c0-0.5,0.2-0.9,0.5-1.2s0.7-0.5,1.2-0.5c0.5,0,1,0.2,1.3,0.6l-0.4,0.5c-0.2-0.3-0.5-0.4-0.8-0.4
							c-0.3,0-0.5,0.1-0.7,0.3c-0.2,0.2-0.3,0.4-0.3,0.7c0,0.3,0.1,0.5,0.3,0.7C29.5,10.1,29.8,10.2,30,10.2z"/>
						<path fill="#F3705A" d="M33.3,8.3v2.6h-0.7V8.3h-0.9V7.7h2.5v0.6H33.3z"/>
					</g>
				</g>
			</g>
			<g>
				<g>
					<path fill="#344A5E" d="M7.8,42.6c-0.1,0-0.2-0.1-0.2-0.2c0-0.1,0-0.3,0.1-0.3c0.7-0.3,1.2-0.9,1.4-1.4l-0.8-0.6
						c-0.2-0.2-0.4-0.3-0.6-0.6C7.4,39,7.5,38.2,8,37.9c0.5-0.4,1.3-0.3,1.7,0.2c0.4,0.4,0.5,1,0.2,1.9c-0.1,0.2-0.1,0.4-0.2,0.6
						c0.2,0.1,0.5,0.2,0.6,0.2c0.1-0.1,0.3-0.2,0.4-0.4c0.2-0.2,0.4-0.5,0.7-0.5c0.1,0,0.2,0,0.2,0.1c0.1,0.1,0.1,0.2,0.1,0.2
						c0,0.1,0,0.1,0,0.2c0.1,0.1,0.1,0.1,0.2,0.2c0.2,0,0.4,0,0.6-0.2c0.1-0.1,0.2-0.1,0.2,0c0.1,0,0.1,0.1,0.2,0.2
						c0.1,0.2,0.4,0.4,0.7,0.3c0.3,0,0.7-0.3,0.9-0.5c0.1-0.1,0.2-0.1,0.3,0c0.3,0.3,0.7,0.5,1.2,0.5c0.1,0,0.3,0.1,0.3,0.2
						s-0.1,0.3-0.2,0.3c-0.5,0-1-0.1-1.4-0.5c-0.3,0.2-0.6,0.4-1,0.4c-0.4,0.1-0.8-0.1-1.1-0.4c-0.3,0.1-0.5,0.2-0.8,0.1
						c-0.2,0-0.4-0.2-0.6-0.4c0,0,0-0.1,0-0.1c-0.1,0.1-0.1,0.1-0.2,0.2c-0.2,0.2-0.3,0.4-0.6,0.5c-0.4,0.1-0.7,0-1-0.2
						C9.1,41.8,8.5,42.4,7.8,42.6C7.8,42.6,7.8,42.6,7.8,42.6z M8.8,38.1c-0.2,0-0.3,0-0.4,0.1c-0.3,0.2-0.4,0.7-0.2,1
						c0.1,0.2,0.3,0.3,0.5,0.4l0.7,0.5c0.1-0.2,0.1-0.3,0.1-0.4c0.2-0.7,0.1-1.1-0.1-1.4C9.2,38.2,9,38.1,8.8,38.1z"/>
				</g>
			</g>
		</g>
		<g>
			<g>
				<g>
					<path fill="#F3705A" d="M25.2,35c1.6-0.9,3.2-1.9,4.7-3l17.2-13.8c1-0.8,1.2-2.4,0.4-3.4s-2.4-1.2-3.4-0.4L26.9,28.2
						c-1.4,1.2-2.7,2.6-4,4L25.2,35z"/>
				</g>
			</g>
			<g>
				<path fill="#E8EAE9" d="M23.1,32c-1.6,1.7-3,3.6-4.2,5.6c-0.1,0.1,0,0.3,0.2,0.2c2.2-0.8,4.3-1.7,6.4-2.9L23.1,32z"/>
			</g>
			<g>
				<path fill="#344A5E" d="M23.1,32c-1.6,1.7-3,3.6-4.2,5.6c-0.1,0.1,0,0.3,0.2,0.2c2.2-0.8,4.3-1.7,6.4-2.9L23.1,32z"/>
			</g>
			<g>
				<polygon fill="#344A5E" points="29.5,26.1 28.6,26.8 31.7,30.6 32.5,29.9 				"/>
			</g>
			<g>
				<g>
					<g>
						<polygon fill="#344A5E" points="44.3,20.7 41.1,16.6 42.6,15.3 45.9,19.4 						"/>
					</g>
				</g>
			</g>
			<g>
				<g>
					<path fill="#344A5E" d="M38.7,27.2L38.7,27.2c-0.2-0.3-0.2-0.7,0.1-0.9l6.4-5.1L44,19.7l1-0.8l1.5,1.9c0.2,0.3,0.2,0.7-0.1,0.9
						l-6.9,5.5C39.3,27.5,38.9,27.5,38.7,27.2z"/>
				</g>
			</g>
		</g>
	</g>
</g>
</svg>
