<?xml version="1.0" encoding="utf-8"?>
<!-- Generator: Adobe Illustrator 18.0.0, SVG Export Plug-In . SVG Version: 6.00 Build 0)  -->
<!DOCTYPE svg PUBLIC "-//W3C//DTD SVG 1.1//EN" "http://www.w3.org/Graphics/SVG/1.1/DTD/svg11.dtd">
<svg version="1.1" id="Layer_1" xmlns="http://www.w3.org/2000/svg" xmlns:xlink="http://www.w3.org/1999/xlink" x="0px" y="0px"
	 viewBox="0 0 48 48" enable-background="new 0 0 48 48" xml:space="preserve">
<g>
	<g>
		<g>
			<path fill="#415A6B" d="M13.7,25c-1.8,6.5-2.3,13-1.4,19.5c0.3,2,1.9,3.4,3.9,3.4h15.7c2,0,3.7-1.5,3.9-3.4
				c0.8-6.5,0.4-13-1.4-19.5H13.7z"/>
		</g>
		<g>
			<circle fill="#415A6B" cx="15.7" cy="21.3" r="3"/>
		</g>
		<g>
			<g>
				<path fill="#CED6E0" d="M14.9,20.3c-0.5,0.5-0.5,1.4,0,2l2.8,2.8h0.2v-7.5h-0.2L14.9,20.3z"/>
			</g>
		</g>
		<g>
			<rect x="17.6" y="17.5" fill="#E8EAE9" width="14" height="7.5"/>
		</g>
		<g>
			<circle fill="#415A6B" cx="15.7" cy="21.3" r="0.5"/>
		</g>
		<g>
			<g>
				<path fill="#F3705A" d="M28,16c-1.9-2.7-4.9-2.7-6.8,0c-5.6-5.7,3.4-16,3.4-16S33.6,10.4,28,16z"/>
			</g>
			<path fill="#FFD15C" d="M26.7,14.7c-1.3-1-3-1-4.3,0c-0.9-4,2-7.6,2.2-7.3C24.7,7.2,27.7,10.7,26.7,14.7z"/>
		</g>
	</g>
</g>
</svg>
