<?xml version="1.0" encoding="utf-8"?>
<!-- Generator: Adobe Illustrator 18.0.0, SVG Export Plug-In . SVG Version: 6.00 Build 0)  -->
<!DOCTYPE svg PUBLIC "-//W3C//DTD SVG 1.1//EN" "http://www.w3.org/Graphics/SVG/1.1/DTD/svg11.dtd">
<svg version="1.1" id="Layer_1" xmlns="http://www.w3.org/2000/svg" xmlns:xlink="http://www.w3.org/1999/xlink" x="0px" y="0px"
	 viewBox="0 0 48 48" enable-background="new 0 0 48 48" xml:space="preserve">
<g>
	<g>
		<path fill="#F2F2F2" d="M35.2,35.3L42,48.1h5.3l-8.9-16.6C37.5,32.9,36.4,34.2,35.2,35.3z"/>
		<path fill="#F2F2F2" d="M26.1,40.2c-1.6,0.4-3.3,0.6-4.9,0.6l3.9,7.2h5.3L26.1,40.2z"/>
		<path fill="#CDD6E0" d="M26.1,40.2l4.2,7.9H42l-6.8-12.8C32.6,37.7,29.5,39.4,26.1,40.2z"/>
	</g>
	<path fill="#F2F2F2" d="M40.8,26.3c-0.6,1.9-1.4,3.6-2.4,5.1c-0.9,1.4-2,2.7-3.2,3.9c-2.5,2.4-5.7,4.1-9,4.9
		c-1.6,0.4-3.3,0.6-5,0.6c-2,0-4-0.3-5.9-0.9c-9-2.7-14.7-11-14.5-19.9c5.9,3.2,11.8,6.4,17.7,9.6c4.8-4.3,7.9-10.1,8.9-16.5
		C21.5,9.9,15.5,6.7,9.6,3.5c5-3.4,11.3-4.6,17.5-2.7C37.9,4.1,44,15.5,40.8,26.3z"/>
	<polygon fill="#40596B" points="22.6,11.2 13.7,6.3 5,11.7 5.2,21.8 14.2,26.7 22.9,21.4 	"/>
	<circle fill="#334A5E" cx="13.9" cy="16.5" r="5.1"/>
	
		<rect x="13.4" y="8.4" transform="matrix(0.7071 0.7071 -0.7071 0.7071 15.7703 -5.0203)" fill="#40596B" width="1.1" height="16.3"/>
	<path opacity="8.000000e-002" fill="#231F20" d="M26.5,41.7c3.6-0.9,7-2.7,9.7-5.3c1.1-1.1,2.1-2.2,3-3.5l-0.8-1.5
		c-0.9,1.4-2,2.7-3.2,3.9c-2.5,2.4-5.7,4.1-9,4.9c-1.6,0.4-3.3,0.6-4.9,0.6l0.8,1.5C23.5,42.3,25,42.1,26.5,41.7z"/>
</g>
</svg>
