<?xml version="1.0" encoding="utf-8"?>
<!-- Generator: Adobe Illustrator 18.0.0, SVG Export Plug-In . SVG Version: 6.00 Build 0)  -->
<!DOCTYPE svg PUBLIC "-//W3C//DTD SVG 1.1//EN" "http://www.w3.org/Graphics/SVG/1.1/DTD/svg11.dtd">
<svg version="1.1" id="Layer_1" xmlns="http://www.w3.org/2000/svg" xmlns:xlink="http://www.w3.org/1999/xlink" x="0px" y="0px"
	 viewBox="0 0 48 48" enable-background="new 0 0 48 48" xml:space="preserve">
<g>
	<path fill="#F2F2F2" d="M30.4,16.9V4.1H17.6v12.8c-6.6,2.6-11.2,8.9-11.2,16.4c0,6.2,3.2,11.6,8.1,14.8h19
		c4.8-3.1,8.1-8.6,8.1-14.8C41.6,25.8,36.9,19.4,30.4,16.9z"/>
	<path fill="#CDD6E0" d="M30.5,0h-13c-1.1,0-2,0.9-2,2l0,0c0,1.1,0.9,2,2,2h13c1.1,0,2-0.9,2-2l0,0C32.6,0.9,31.7,0,30.5,0z"/>
	<path fill="#54C0EB" d="M10.1,27.5c-0.7,1.8-1.1,3.7-1.1,5.7c0,4.9,2.4,9.4,6.3,12.3h17.5c4-2.8,6.3-7.4,6.3-12.3
		c0-2-0.4-4-1.1-5.7c0,0-4.4,4.8-14,0C14,22.5,10.1,27.5,10.1,27.5z"/>
	<path fill="#84DBFF" d="M37.9,27.5c0.7,1.8,1.1,3.7,1.1,5.7c0,4.9-2.4,9.4-6.3,12.3H15.2c-4-2.8-6.3-7.4-6.3-12.3
		c0-2,0.4-4,1.1-5.7c0,0,4.4,4.8,14,0C34,22.5,37.9,27.5,37.9,27.5z"/>
	<g>
		<circle fill="#84DBFF" cx="22" cy="20.6" r="2.7"/>
		<circle fill="#FFFFFF" cx="21" cy="19.6" r="0.6"/>
	</g>
	<g>
		<circle fill="#84DBFF" cx="26.1" cy="16" r="1.7"/>
		<circle fill="#FFFFFF" cx="25.5" cy="15.3" r="0.4"/>
	</g>
</g>
</svg>
