<?xml version="1.0" encoding="utf-8"?>
<!-- Generator: Adobe Illustrator 18.0.0, SVG Export Plug-In . SVG Version: 6.00 Build 0)  -->
<!DOCTYPE svg PUBLIC "-//W3C//DTD SVG 1.1//EN" "http://www.w3.org/Graphics/SVG/1.1/DTD/svg11.dtd">
<svg version="1.1" id="Layer_1" xmlns="http://www.w3.org/2000/svg" xmlns:xlink="http://www.w3.org/1999/xlink" x="0px" y="0px"
	 viewBox="0 0 48 48" enable-background="new 0 0 48 48" xml:space="preserve">
<g>
	<path fill="#F2F2F2" d="M38.5,15.1L4.1,23.6L17,2L38.5,15.1z M7,21.4l27.9-6.9L17.5,4L7,21.4z"/>
	<path fill="#FF7058" d="M47.9,35L43,15.1c-0.4-1.6-2.1-2.6-3.7-2.2l-37,9.2c-1.6,0.4-2.6,2-2.2,3.6L5,45.7c0.4,1.6,2.1,2.6,3.7,2.2
		l37-9.2C47.3,38.3,48.3,36.7,47.9,35z"/>
	<path fill="#FFFFFF" d="M15.8,35.5c-0.6,1-1.5,1.6-2.6,1.9c-1.2,0.3-2.2,0.1-3.2-0.4c-1-0.6-1.6-1.5-1.9-2.6
		c-0.3-1.2-0.1-2.2,0.5-3.2c0.6-1,1.5-1.6,2.6-1.9c1.2-0.3,2.2-0.1,3.2,0.4c1,0.6,1.6,1.5,1.9,2.6C16.6,33.5,16.4,34.6,15.8,35.5z
		 M14.5,32.8c-0.2-0.7-0.5-1.3-1.1-1.6c-0.6-0.4-1.2-0.5-1.8-0.3C10.9,31,10.4,31.4,10,32c-0.3,0.6-0.4,1.3-0.2,2
		c0.2,0.7,0.5,1.2,1.1,1.6c0.6,0.4,1.2,0.5,1.8,0.3c0.7-0.2,1.1-0.5,1.5-1.2C14.6,34.1,14.7,33.5,14.5,32.8z"/>
	<path fill="#FFFFFF" d="M22.4,27.4c0.7,0.3,1.1,1,1.4,2c0.2,1,0.1,1.8-0.3,2.4c-0.5,0.6-1.3,1-2.4,1.3l-1,0.3l0.5,2.2L18.7,36
		l-1.9-7.9l2.8-0.7C20.8,27.1,21.7,27.1,22.4,27.4z M21.9,30.9c0.2-0.3,0.2-0.7,0.1-1.1c-0.1-0.5-0.3-0.7-0.6-0.9
		c-0.3-0.1-0.8-0.1-1.3,0l-1,0.2l0.7,2.7l1.2-0.3C21.3,31.4,21.7,31.1,21.9,30.9z"/>
	<path fill="#FFFFFF" d="M30.1,24.8l0.4,1.6l-3.9,1l0.4,1.6l3.5-0.9l0.4,1.5l-3.5,0.9l0.4,1.6l4-1l0.4,1.6l-5.8,1.4l-1.9-7.9
		L30.1,24.8z"/>
	<path fill="#FFFFFF" d="M37.3,23l1.8-0.4l1.9,7.9l-1.8,0.4l-5-4l1.2,5l-1.8,0.4l-1.9-7.9l1.6-0.4l5.1,4.1L37.3,23z"/>
	<path fill="#334A5E" d="M21.2,2.9C21.7,5,20.4,7,18.4,7.5c-2,0.5-4.1-0.7-4.6-2.8c-0.5-2.1,0.7-4.1,2.8-4.6
		C18.6-0.4,20.7,0.9,21.2,2.9z"/>
	<circle fill="#40596B" cx="17.5" cy="3.8" r="1.8"/>
</g>
</svg>
