<?xml version="1.0" encoding="utf-8"?>
<!-- Generator: Adobe Illustrator 18.0.0, SVG Export Plug-In . SVG Version: 6.00 Build 0)  -->
<!DOCTYPE svg PUBLIC "-//W3C//DTD SVG 1.1//EN" "http://www.w3.org/Graphics/SVG/1.1/DTD/svg11.dtd">
<svg version="1.1" id="Layer_1" xmlns="http://www.w3.org/2000/svg" xmlns:xlink="http://www.w3.org/1999/xlink" x="0px" y="0px"
	 viewBox="0 0 48 48" enable-background="new 0 0 48 48" xml:space="preserve">
<g>
	<g>
		<g>
			<path fill="#E8EAE9" d="M42.7,23.7C42.7,34.3,24,48,24,48S5.3,34.5,5.3,23.7c0-5.9,4.4-10.6,9.8-10.6c1.4,0,2.7,0.3,3.9,0.9V4.9
				h9.8V14c1.2-0.6,2.5-0.9,3.9-0.9C38.2,13.1,42.7,17.8,42.7,23.7z"/>
			<g>
				<path fill="#55C0EB" d="M24,24.2c-4,2.3-7.8,4.8-15.8,0.5C16.2,19.9,20.1,22,24,24.2z"/>
			</g>
			<g>
				<path fill="#8AD7F8" d="M8.2,24.7C9.1,31.5,18.7,40.4,24,44.5c5.3-4.2,14.9-13.1,15.8-19.8C23.7,15,24,33.3,8.2,24.7z"/>
			</g>
			<g>
				<g>
					<g>
						<rect x="19.1" y="8.2" fill="#CED6E0" width="9.8" height="2.2"/>
					</g>
				</g>
			</g>
			<g>
				<g>
					<g>
						<path fill="#E8EAE9" d="M31,6.4L31,6.4c0-1.2-1-2.1-2.1-2.1h-9.8c-1.2,0-2.1,1-2.1,2.1l0,0c0,1.2,1,2.1,2.1,2.1h9.8
							C30.1,8.6,31,7.6,31,6.4z"/>
					</g>
				</g>
			</g>
		</g>
		<g>
			<polygon fill="#415A6B" points="18.4,0 29.6,0 28,4.3 20,4.3 			"/>
		</g>
	</g>
</g>
</svg>
