<?xml version="1.0" encoding="utf-8"?>
<!-- Generator: Adobe Illustrator 18.0.0, SVG Export Plug-In . SVG Version: 6.00 Build 0)  -->
<!DOCTYPE svg PUBLIC "-//W3C//DTD SVG 1.1//EN" "http://www.w3.org/Graphics/SVG/1.1/DTD/svg11.dtd">
<svg version="1.1" id="Layer_1" xmlns="http://www.w3.org/2000/svg" xmlns:xlink="http://www.w3.org/1999/xlink" x="0px" y="0px"
	 viewBox="0 0 48 48" enable-background="new 0 0 48 48" xml:space="preserve">
<g>
	<g>
		<path fill="#66C6B9" d="M3.5,47.9c-1.2-1.3-2.7-2.4-3.4-3.3c-0.1-0.1-0.1-0.3,0-0.5l4.4-4.5l3.8,3.8L4,47.9
			C3.8,48,3.6,48,3.5,47.9z"/>
		<g>
			<g>
				<g>
					<g>
						<path fill="#FFD15C" d="M10.8,24.9l-1.4,1.4l0.5,0.5l3.7-2.5c0.2,0.3,0.4,0.5,0.6,0.8c-0.2,0.3-0.4,0.7-0.4,1.2l-2.1,2.1
							l4.8,4.8l4.9,1.3l-1.8,1.8l2.2,2.2l1.2-1.2c1.9-0.1,2-1.9,2-1.9c1.9-0.7,1.8-2.2,1.8-2.2c1.6-0.6,1.9-2.1,1.9-2.1
							c2-0.2,1.8-2.2,1.8-2.2c1.7-0.5,1.8-2.2,1.8-2.2c1.8-0.5,1.8-2.2,1.8-2.2c2.1-0.8,2-2.4,2-2.4c0.9-0.2,1.9-2.1,1.9-2.1
							c1.7-0.5,1.6-1.9,1.6-1.9c1.3-0.4,2.1-2.3,2.1-2.3c1.3-0.6,1.7-2.5,1.7-2.5c1.1-0.5,1.6-2.5,1.6-2.5c1.5-0.7,1.4-2.1,1.4-2.1
							C48.3,7.7,47.6,6,47.6,6s1.1-2.4-0.7-2.9c0,0-0.1-0.7-0.5-0.8c0.1-1-0.7-0.7-0.7-0.7C45.7,1.3,45,1.1,45,1.1
							c-0.4-1.8-2.8-0.7-2.8-0.7s-1.6-0.8-2.8,1.4c0,0-1.4-0.1-2.1,1.4c0,0-1.9,0.5-2.5,1.6c0,0-1.9,0.4-2.5,1.7
							c0,0-1.8,0.7-2.3,2.1c0,0-1.4-0.1-1.9,1.6c0,0-1.9,1-2.1,1.9c0,0-1.6-0.1-2.4,1.9c0,0-1.7,0-2.2,1.7c0,0-1.7,0-2.2,1.7
							c0,0-1.9-0.2-2.2,1.8c0,0-1.5,0.2-2.1,1.9c0,0-1.4-0.2-2.2,1.8C12.7,22.8,10.9,23,10.8,24.9z"/>
					</g>
				</g>
			</g>
			<g>
				<g>
					<path fill="#F7B64C" d="M19.3,30.2c-0.9-0.2-1.5-1.5-1.6-1.6l0.2-0.1c0,0,0.6,1.3,1.4,1.5L19.3,30.2z"/>
				</g>
			</g>
			<g>
				<g>
					<g>
						<path fill="#F7B64C" d="M40.2,2.8c0-0.6-0.9-0.9-0.9-0.9l0.1-0.2c0,0,1,0.4,1,1L40.2,2.8z"/>
					</g>
					<g>
						<path fill="#F7B64C" d="M37.7,5c0.3-0.4-0.3-1.4-0.6-1.7l0.1-0.1c0,0.1,1,1.3,0.6,1.9L37.7,5z"/>
					</g>
					<g>
						<g>
							<path fill="#F7B64C" d="M35.6,6.4c0.2-0.3-0.4-1.1-0.9-1.6c0,0,0,0,0,0l0.1-0.1C35,4.9,36.1,6,35.8,6.5L35.6,6.4z"/>
						</g>
					</g>
					<g>
						<path fill="#F7B64C" d="M20.4,19.5c-0.5-0.5-1.2-1.9-1.3-2l0.2-0.1c0,0,0.8,1.6,1.3,2l-0.1,0.1C20.4,19.6,20.4,19.5,20.4,19.5
							z"/>
					</g>
					<g>
						<g>
							<path fill="#F7B64C" d="M18.3,21.5c-1-1.1-1.4-2.2-1.4-2.3l0.2-0.1c0,0,0.3,1.1,1.4,2.2L18.3,21.5z"/>
						</g>
					</g>
					<g>
						<g>
							<path fill="#F7B64C" d="M16.4,23.3c-1.2-1.3-1.6-2.1-1.6-2.2L15,21c0,0,0.4,0.8,1.6,2.1L16.4,23.3z"/>
						</g>
					</g>
					<g>
						<g>
							<path fill="#F7B64C" d="M14.1,25.2c-1.1-1.3-1.4-2.3-1.4-2.3l0.2-0.1c0,0,0.4,1,1.4,2.3L14.1,25.2z"/>
						</g>
					</g>
					<g>
						<path fill="#F7B64C" d="M43.2,3.8c-0.3-0.8-1.3-1.4-1.3-1.4L42,2.2c0,0,1,0.6,1.4,1.4L43.2,3.8z"/>
					</g>
					<g>
						<g>
							<path fill="#F7B64C" d="M39.4,4.1l0.1-0.2c0.1,0,1.5,0.6,1.7,1.4L41,5.3C40.8,4.6,39.4,4.1,39.4,4.1z"/>
						</g>
					</g>
					<g>
						<g>
							<path fill="#F7B64C" d="M38.1,7.6c-0.6-0.6-0.8-1.7-0.8-1.8l0.2,0c0,0,0.3,1.5,1.1,2l-0.1,0.2C38.3,7.8,38.2,7.7,38.1,7.6z"
								/>
						</g>
					</g>
					<g>
						<g>
							<g>
								<g>
									<path fill="#F7B64C" d="M17.9,27.1c-0.4,0.5-0.6,1.1-0.5,1.8l-2.7,2.7l0.1,0.1l2.8-2.8l0,0l0,0c-0.1-0.7,0-1.3,0.4-1.7
										c0.8-0.9,2.3-1,2.3-1l0.1,0l0-0.1c0-1.9,2.7-2.7,2.7-2.7l0.1,0l0-0.1c-0.1-1.8,2.7-2.7,2.7-2.7l0.1,0l0-0.1
										c-0.1-1.6,2.5-2.8,2.6-2.8l0.1,0l0-0.1c0.1-1.5,2.7-2.7,2.7-2.7l0.1,0l0-0.1c0.3-1.6,2.6-2.8,2.6-2.8l0,0l0,0
										c0.3-1.6,3.6-2.9,3.6-2.9l0.1,0l0-0.1C38,7.8,39.9,7,39.9,7l0,0l0,0c0.6-1.7,2.3-2,2.3-2l0,0l0,0c0.5-0.8,3.1-2.6,3.2-2.7
										c0.2-0.2,0.3-0.4,0.3-0.6C45.8,1.2,45.1,1,45,1l-0.1,0.2c0.2,0,0.7,0.2,0.7,0.4c0,0.1-0.1,0.2-0.2,0.4
										c-0.1,0.1-2.6,1.8-3.2,2.7c-0.3,0.1-1.8,0.5-2.4,2.1c-0.3,0.1-2,0.9-2.2,2.2c-0.4,0.2-3.3,1.3-3.7,3
										c-0.3,0.2-2.4,1.3-2.7,2.9c-0.4,0.2-2.6,1.3-2.8,2.8c-0.4,0.2-2.7,1.3-2.6,2.9c-0.5,0.2-2.8,1-2.8,2.8
										c-0.5,0.1-2.7,0.9-2.8,2.8C19.9,26.1,18.6,26.3,17.9,27.1z"/>
								</g>
							</g>
							<g>
								<g>
									<path fill="#F7B64C" d="M13.6,26.3l-2.1,2.1l0.1,0.1l2.2-2.1l0,0c0.2-2,2.1-2.1,2.2-2.1l0.1,0l0-0.1
										c0.5-1.6,1.9-1.6,1.9-1.6l0.1,0l0-0.1c0.2-1.8,1.9-1.9,1.9-1.9l0.1,0l0-0.1c0.7-1.9,2-1.8,2-1.8l0.1,0l0-0.1
										c0.5-1.8,2.1-1.7,2.2-1.7l0.1,0l0-0.1c0.6-1.8,1.9-1.6,1.9-1.6l0.1,0l0-0.1c0.3-1.7,1.9-1.8,1.9-1.8l0.1,0l0-0.1
										c0.2-0.9,0.5-1.5,1-1.8c0.6-0.4,1.2-0.3,1.2-0.3l0.1,0l0-0.1c0.4-1.5,2.1-2,2.1-2l0,0l0,0c0.6-1.6,1.6-1.3,1.7-1.3l0.1,0
										l0-0.1c0.9-2,2.4-1.9,2.5-1.9l0.1,0l0-0.1c1-1.9,2-1.7,2-1.7l0.1,0l0-0.1c0.9-1.9,2.3-1.6,2.4-1.6l0.1,0l0-0.1
										c0.1-0.5,0.4-0.8,0.8-1c0.9-0.5,2.1-0.1,2.1-0.1l0.2,0.1l0-0.2c-0.1-0.5-0.4-0.8-0.7-0.9c-0.9-0.4-2.2,0.1-2.2,0.2l0.1,0.2
										c0,0,1.2-0.5,2.1-0.2c0.3,0.1,0.5,0.4,0.6,0.7c-0.4-0.1-1.4-0.3-2.1,0.2c-0.4,0.2-0.7,0.6-0.8,1.1c-0.4,0-1.7,0-2.5,1.7
										c-0.3,0-1.2,0.1-2.1,1.8c-0.3,0-1.7,0.2-2.6,2c-0.3,0-1.2,0-1.8,1.4c-0.3,0.1-1.7,0.6-2.2,2.1c-0.2,0-0.7,0-1.3,0.3
										c-0.5,0.4-0.9,1-1.1,1.9c-0.3,0-1.7,0.3-2,1.8c-0.3,0-1.5,0.1-2,1.7c-0.4,0-1.8,0.1-2.3,1.8c-0.3,0-1.5,0.1-2.1,1.9
										c-0.3,0-1.7,0.3-2,2c-0.3,0-1.5,0.2-2,1.7C15.5,24.2,13.8,24.5,13.6,26.3z"/>
								</g>
							</g>
							<g>
								<g>
									<path fill="#F7B64C" d="M10.7,24.8l-1.4,1.4l0.1,0.1l1.5-1.5l0,0c0.1-1.8,1.8-1.9,1.8-1.9l0.1,0l0-0.1
										c0.7-1.8,2-1.7,2.1-1.7l0.1,0l0-0.1c0.6-1.5,2-1.8,2-1.8l0.1,0l0-0.1c0.1-0.6,0.3-1,0.7-1.3c0.6-0.5,1.4-0.4,1.4-0.4l0.1,0
										l0-0.1c0.5-1.7,2-1.7,2.1-1.7l0.1,0l0-0.1c0.5-1.7,2-1.7,2.1-1.7l0.1,0l0-0.1c0.8-2,2.2-1.9,2.3-1.9l0.1,0l0-0.1
										c0.2-0.8,2-1.9,2.1-1.9l0,0l0,0C28.7,8.6,30,8.7,30,8.7l0.1,0l0-0.1c0.4-1.3,2.2-2,2.2-2l0,0l0,0c0.6-1.2,2.4-1.6,2.4-1.6
										l0,0l0,0c0.5-1,2.4-1.5,2.4-1.6l0,0l0,0c0.7-1.4,2-1.3,2-1.3l0.1,0l0-0.1c0.4-0.7,0.8-1.2,1.4-1.4c0.7-0.3,1.3,0,1.3,0
										c0,0,0.4,0.3,0.5,0.8l0.2,0c-0.1-0.6-0.6-0.9-0.6-0.9c0,0-0.7-0.3-1.4,0c-0.6,0.2-1.1,0.7-1.4,1.4c-0.3,0-1.5,0.1-2.1,1.4
										c-0.3,0.1-1.9,0.6-2.5,1.6c-0.3,0.1-1.9,0.5-2.5,1.7c-0.3,0.1-1.8,0.8-2.3,2c-0.3,0-1.5,0.1-1.9,1.6
										c-0.3,0.2-1.8,1.1-2.1,1.9c-0.3,0-1.7,0.1-2.4,1.9c-0.3,0-1.7,0.2-2.2,1.7c-0.3,0-1.7,0.2-2.2,1.7c-0.2,0-0.9,0-1.5,0.4
										c-0.4,0.3-0.6,0.8-0.7,1.3c-0.3,0.1-1.5,0.4-2.1,1.8c-0.3,0-1.5,0.1-2.2,1.8C12.3,22.8,10.9,23.1,10.7,24.8z"/>
								</g>
							</g>
						</g>
						<g>
							<g>
								<path fill="#F7B64C" d="M33,7.7c-0.3-0.3-0.5-0.7-0.7-1.2l0.2-0.1c0.3,0.8,0.7,1.3,1.2,1.5l-0.1,0.2C33.3,8,33.1,7.9,33,7.7
									z"/>
							</g>
						</g>
						<g>
							<g>
								<path fill="#F7B64C" d="M31.1,10c-0.4-0.4-0.8-0.9-1.1-1.4l0.2-0.1c0.4,0.6,0.8,1.1,1.3,1.6l-0.1,0.1
									C31.2,10.2,31.2,10.1,31.1,10z"/>
							</g>
						</g>
						<g>
							<g>
								<path fill="#F7B64C" d="M28.9,12.2c-0.5-0.5-0.7-1.2-0.9-2.1l0.2,0c0.1,0.8,0.4,1.5,0.8,2L28.9,12.2z"/>
							</g>
						</g>
						<g>
							<g>
								<path fill="#F7B64C" d="M26.8,14.3c-0.7-0.9-0.8-2.2-0.8-2.3l0.2,0c0,0,0.2,1.3,0.8,2.2L26.8,14.3z"/>
							</g>
						</g>
						<g>
							<g>
								<path fill="#F7B64C" d="M24.6,16.4c-0.6-0.8-1-2.3-1.1-2.4l0.2-0.1c0,0,0.5,1.6,1,2.3L24.6,16.4z"/>
							</g>
						</g>
						<g>
							<g>
								<path fill="#F7B64C" d="M22.4,17.5c-0.6-0.6-1.1-1.6-1.1-1.7l0.2-0.1c0,0,0.6,1.4,1.3,1.8l-0.1,0.2
									C22.6,17.6,22.5,17.5,22.4,17.5z"/>
							</g>
						</g>
						<g>
							<g>
								<path fill="#F7B64C" d="M35.5,9.7c-0.7-0.7-0.8-1.9-0.8-1.9l0.2,0c0,0,0.1,1.5,1.2,2.1L36,10C35.8,9.9,35.6,9.8,35.5,9.7z"
									/>
							</g>
						</g>
						<g>
							<g>
								<path fill="#F7B64C" d="M34.2,11.5c-1.2-1.2-1.3-2.3-1.3-2.3l0.2,0c0,0,0.1,1.1,1.2,2.2L34.2,11.5z"/>
							</g>
						</g>
						<g>
							<g>
								<path fill="#F7B64C" d="M31.7,13.2c-0.7-0.7-1-1.9-1-2l0.2-0.1c0,0,0.4,1.7,1.2,2.2l-0.1,0.2C32,13.4,31.9,13.4,31.7,13.2z"
									/>
							</g>
						</g>
						<g>
							<g>
								<path fill="#F7B64C" d="M29.3,15c-0.7-0.6-0.9-1.6-0.9-1.6l0.2-0.1c0,0,0.5,1.7,1.7,2.1l-0.1,0.2
									C29.9,15.5,29.6,15.3,29.3,15z"/>
							</g>
						</g>
						<g>
							<g>
								<path fill="#F7B64C" d="M25.5,19c-0.8-0.8-1.2-2-1.2-2l0.2-0.1c0,0,0.6,1.9,1.9,2.5l-0.1,0.2C26,19.4,25.7,19.2,25.5,19z"/>
							</g>
						</g>
						<g>
							<g>
								<path fill="#F7B64C" d="M23.2,21c-1.2-1.2-1.2-2.2-1.2-2.3l0.2,0c0,0,0,1.4,1.9,2.8L24,21.7C23.7,21.4,23.5,21.2,23.2,21z"
									/>
							</g>
						</g>
					</g>
					<g>
						<g>
							<path fill="#F7B64C" d="M21.1,22.6c-0.9-0.9-1.2-2-1.2-2.1l0.2-0.1c0,0,0.8,2.8,3.1,2.8l0.1,0l0,0.1c0.2,0.8,0.7,1.3,1.4,1.5
								L24.6,25c-0.8-0.2-1.3-0.7-1.5-1.5C22.2,23.5,21.6,23.1,21.1,22.6z"/>
						</g>
					</g>
					<g>
						<g>
							<path fill="#F7B64C" d="M19.3,24.6c-0.8-0.8-1.4-1.9-1.5-2l0.2-0.1c0,0,1.4,2.5,2.5,2.6l0,0.2C20.1,25.2,19.7,24.9,19.3,24.6
								z"/>
						</g>
					</g>
					<g>
						<g>
							<path fill="#F7B64C" d="M16.8,26.5c-0.9-0.9-0.9-2.3-0.9-2.3l0.2,0c0,0,0,2.2,2.1,2.8L18,27.2C17.5,27.1,17.1,26.8,16.8,26.5
								z"/>
						</g>
					</g>
				</g>
				<g>
					<g>
						<path fill="#F7B64C" d="M46,8.8c0,0-0.3-0.9-0.9-0.9l0-0.2c0.7,0,1,1,1,1L46,8.8z"/>
					</g>
					<g>
						<path fill="#F7B64C" d="M43,10.4l-0.1-0.2c0.6-0.4,1.8,0.6,1.9,0.6L44.7,11C44.3,10.7,43.4,10.1,43,10.4z"/>
					</g>
					<g>
						<g>
							<path fill="#F7B64C" d="M41.5,12.6l-0.1-0.2c0.6-0.3,1.6,0.8,1.7,0.9L43,13.5C42.6,13,41.8,12.4,41.5,12.6z"/>
						</g>
					</g>
					<g>
						<path fill="#F7B64C" d="M28.4,27.8c-0.1-0.1-0.1-0.1-0.1-0.2l0.2-0.1c0.3,0.5,1.9,1.4,1.9,1.4l-0.1,0.2
							C30.2,29.1,28.9,28.3,28.4,27.8z"/>
					</g>
					<g>
						<g>
							<path fill="#F7B64C" d="M26.3,29.8C26.3,29.8,26.3,29.8,26.3,29.8l0.1-0.1c0,0,0,0,0,0c1,1,2.1,1.4,2.1,1.4l-0.1,0.2
								C28.5,31.3,27.4,30.9,26.3,29.8z"/>
						</g>
					</g>
					<g>
						<g>
							<path fill="#F7B64C" d="M24.6,31.7l0.1-0.1c1.3,1.2,2,1.6,2.1,1.6l-0.1,0.2C26.6,33.4,25.8,32.9,24.6,31.7z"/>
						</g>
					</g>
					<g>
						<g>
							<path fill="#F7B64C" d="M22.6,34.1l0.1-0.1C24,35,25,35.4,25,35.4l-0.1,0.2C24.8,35.6,23.9,35.2,22.6,34.1z"/>
						</g>
					</g>
					<g>
						<path fill="#F7B64C" d="M45.6,6.2c0,0-0.5-1-1.3-1.4l0.1-0.2c0.8,0.4,1.3,1.4,1.3,1.4L45.6,6.2z"/>
					</g>
					<g>
						<g>
							<path fill="#F7B64C" d="M43.9,8.7c0,0-0.5-1.4-1.2-1.6l0.1-0.2c0.8,0.2,1.3,1.7,1.3,1.8L43.9,8.7z"/>
						</g>
					</g>
					<g>
						<g>
							<path fill="#F7B64C" d="M40.5,10.1c-0.1-0.1-0.2-0.3-0.3-0.4l0.2-0.1c0.5,0.9,1.9,1.2,1.9,1.2l0,0.2
								C42.1,10.9,41.1,10.7,40.5,10.1z"/>
						</g>
					</g>
					<g>
						<g>
							<g>
								<g>
									<path fill="#F7B64C" d="M43.2,5.7L43.2,5.7L43.2,5.7c-0.1,0.1-0.4,1.8-2.1,2.3l0,0l0,0c0,0-0.8,2-2.1,2.2l-0.1,0l0,0.1
										c0,0-1.3,3.3-2.9,3.6l0,0l0,0c0,0-1.3,2.4-2.8,2.6l-0.1,0l0,0.1c0,0-1.2,2.6-2.7,2.7l-0.1,0l0,0.1c0,0-1.3,2.7-2.8,2.6
										l-0.1,0l0,0.1c0,0-0.9,2.8-2.7,2.7l-0.1,0l0,0.1c0,0-0.8,2.8-2.7,2.7l-0.1,0l0,0.1c0,0-0.1,1.5-1,2.3
										c-0.4,0.4-1,0.5-1.7,0.4l0,0l-2.8,2.8l0.1,0.1l2.7-2.7c0.7,0.1,1.3,0,1.8-0.4c0.9-0.7,1-2,1.1-2.4c1.8,0,2.6-2.3,2.8-2.8
										c1.7,0.1,2.6-2.3,2.8-2.8c1.6,0.1,2.7-2.2,2.9-2.6c1.5-0.1,2.6-2.4,2.8-2.8c1.5-0.3,2.7-2.3,2.9-2.7c1.6-0.4,2.8-3.2,3-3.7
										c1.3-0.3,2.1-1.9,2.2-2.2c1.6-0.5,2-2.1,2.1-2.4C44.2,5.3,46,2.8,46,2.7c0.2-0.2,0.3-0.3,0.4-0.2c0.2,0.1,0.4,0.6,0.4,0.7
										l0.2,0c0-0.1-0.1-0.8-0.5-0.9c-0.2,0-0.4,0.1-0.6,0.3C45.9,2.6,44,5.2,43.2,5.7z"/>
								</g>
							</g>
							<g>
								<g>
									<path fill="#F7B64C" d="M46.7,5.4c-0.2,0.4-0.6,0.6-1,0.7l-0.1,0l0,0.1c0,0,0.3,1.6-1.6,2.4l-0.1,0l0,0.1c0,0,0.1,1-1.7,2
										l-0.1,0l0,0.1c0,0.1,0,1.6-1.9,2.5l-0.1,0l0,0.1c0,0,0.2,1.1-1.3,1.7l0,0l0,0c0,0-0.5,1.7-2,2.1l-0.1,0l0,0.1
										c0,0,0.1,0.6-0.3,1.2c-0.3,0.5-1,0.8-1.8,1l-0.1,0l0,0.1c0,0.1-0.1,1.7-1.8,1.9l-0.1,0l0,0.1c0,0,0.1,1.4-1.6,1.9l-0.1,0
										l0,0.1c0,0.1,0.1,1.7-1.7,2.2l-0.1,0l0,0.1c0,0,0.2,1.4-1.8,2l-0.1,0l0,0.1c0,0.1-0.2,1.7-1.9,1.9l-0.1,0l0,0.1
										c0,0,0,1.5-1.6,1.9l-0.1,0l0,0.1c0,0.1-0.1,2-2.1,2.1l0,0l-2,2l0.1,0.1l1.9-1.9c1.9-0.2,2.2-1.9,2.2-2.3
										c1.5-0.5,1.7-1.7,1.7-2c1.6-0.3,1.9-1.7,2-2c1.7-0.6,1.9-1.8,1.9-2.1c1.7-0.5,1.8-1.9,1.8-2.3c1.6-0.5,1.7-1.7,1.7-2
										c1.5-0.3,1.8-1.7,1.9-2c0.9-0.2,1.5-0.5,1.9-1.1c0.4-0.5,0.4-1.1,0.3-1.3c1.4-0.4,2-1.9,2.1-2.1c1.4-0.5,1.5-1.5,1.4-1.8
										c1.8-0.9,2-2.3,2-2.6C44,10,44.1,9,44.1,8.7c1.7-0.8,1.7-2.1,1.7-2.5c0.5-0.1,0.8-0.4,1-0.8c0.5-0.8,0.3-1.8,0.2-2.2
										c0.3,0.1,0.5,0.3,0.6,0.6C48.1,4.7,47.5,6,47.5,6L47.7,6c0-0.1,0.6-1.3,0.2-2.3c-0.2-0.4-0.5-0.6-0.9-0.7l-0.2,0l0,0.2
										C46.8,3.2,47.2,4.5,46.7,5.4z"/>
								</g>
							</g>
							<g>
								<g>
									<path fill="#F7B64C" d="M47.5,6.1c0,0,0.2,0.4,0.1,0.9c-0.1,0.7-0.6,1.3-1.5,1.7l-0.1,0l0,0.1c0,0.1,0.1,1.4-1.3,2l0,0l0,0
										c0,0-0.5,1.9-1.6,2.4l0,0l0,0c0,0-0.4,1.9-1.6,2.4l0,0l0,0c0,0-0.8,1.8-2,2.2l-0.1,0l0,0.1c0,0.1,0.1,1.4-1.5,1.8l0,0l0,0
										c0,0-1,1.8-1.9,2.1l-0.1,0l0,0.1c0,0,0.1,1.5-1.9,2.3l-0.1,0l0,0.1c0,0,0,1.6-1.7,2.1l-0.1,0l0,0.1c0,0,0,1.6-1.7,2.1
										l-0.1,0l0,0.1c0,0,0.1,0.8-0.4,1.4c-0.3,0.4-0.7,0.6-1.3,0.6l-0.1,0l0,0.1c0,0-0.3,1.5-1.8,2l-0.1,0l0,0.1
										c0,0,0.1,1.4-1.7,2.1l-0.1,0l0,0.1c0,0.1-0.2,1.7-1.9,1.8l0,0l-1.2,1.2l0.1,0.1l1.2-1.1c1.7-0.1,2-1.6,2.1-1.9
										c1.7-0.7,1.8-1.9,1.8-2.2c1.4-0.5,1.8-1.8,1.9-2.1c0.6-0.1,1-0.3,1.3-0.7c0.5-0.6,0.5-1.3,0.5-1.5c1.5-0.5,1.7-1.9,1.7-2.2
										c1.5-0.5,1.7-1.9,1.8-2.2c1.8-0.7,1.9-2.1,2-2.4c0.8-0.3,1.7-1.8,1.9-2.1c1.5-0.4,1.6-1.6,1.6-1.9c1.2-0.5,1.9-2,2.1-2.3
										c1.2-0.6,1.6-2.2,1.7-2.5c1-0.5,1.5-2.2,1.6-2.5c1.3-0.7,1.4-1.9,1.4-2.2c0.7-0.4,1.2-0.9,1.4-1.4c0.3-0.8,0-1.4,0-1.5
										c0,0-0.3-0.5-0.9-0.6l-0.1,0.2C47.2,5.6,47.5,6.1,47.5,6.1z"/>
								</g>
							</g>
						</g>
						<g>
							<g>
								<path fill="#F7B64C" d="M40.3,15.3c-0.2-0.2-0.4-0.4-0.4-0.7l0.2-0.1c0.2,0.5,0.7,0.9,1.5,1.3L41.3,16
									C40.9,15.8,40.5,15.5,40.3,15.3z"/>
							</g>
						</g>
						<g>
							<g>
								<path fill="#F7B64C" d="M38.1,17.3c-0.2-0.2-0.3-0.3-0.5-0.5l0.1-0.1c0.4,0.5,1,1,1.6,1.4l-0.1,0.2
									C38.8,18,38.5,17.7,38.1,17.3z"/>
							</g>
						</g>
						<g>
							<g>
								<path fill="#F7B64C" d="M35.7,19.3l0.1-0.1c0.5,0.5,1.1,0.7,1.9,0.9l0,0.2C36.8,20,36.2,19.7,35.7,19.3z"/>
							</g>
						</g>
						<g>
							<g>
								<path fill="#F7B64C" d="M33.6,21.4l0.1-0.1c0.8,0.7,2.1,0.9,2.1,0.9l0,0.2C35.7,22.3,34.4,22.1,33.6,21.4z"/>
							</g>
						</g>
						<g>
							<g>
								<path fill="#F7B64C" d="M31.5,23.5l0.1-0.1c0.7,0.6,2.2,1.1,2.2,1.1l-0.1,0.2C33.7,24.7,32.3,24.2,31.5,23.5z"/>
							</g>
						</g>
						<g>
							<g>
								<path fill="#F7B64C" d="M30.5,25.8c-0.1-0.1-0.2-0.2-0.3-0.3l0.2-0.1c0.5,0.7,1.8,1.3,1.8,1.3L32,26.9
									C32,26.9,31.1,26.4,30.5,25.8z"/>
							</g>
						</g>
						<g>
							<g>
								<path fill="#F7B64C" d="M38.4,12.7c-0.2-0.2-0.3-0.3-0.4-0.5l0.2-0.1c0.6,1.1,2.1,1.3,2.1,1.3l0,0.2
									C40.2,13.5,39.1,13.4,38.4,12.7z"/>
							</g>
						</g>
						<g>
							<g>
								<path fill="#F7B64C" d="M36.6,14c0,0-0.1-0.1-0.1-0.1l0.1-0.1c1.1,1.2,2.2,1.3,2.2,1.3l0,0.2C38.7,15.2,37.7,15.1,36.6,14z"
									/>
							</g>
						</g>
						<g>
							<g>
								<path fill="#F7B64C" d="M34.8,16.4c-0.1-0.1-0.2-0.3-0.3-0.4l0.2-0.1c0.5,0.9,2.1,1.3,2.1,1.3l-0.1,0.2
									C36.6,17.4,35.5,17.1,34.8,16.4z"/>
							</g>
						</g>
						<g>
							<g>
								<path fill="#F7B64C" d="M33,18.8c-0.3-0.3-0.5-0.6-0.6-1l0.2-0.1c0.4,1.3,2,1.8,2,1.8l-0.1,0.2C34.4,19.7,33.6,19.5,33,18.8
									z"/>
							</g>
						</g>
						<g>
							<g>
								<path fill="#F7B64C" d="M29,18.9c-0.3-0.3-0.5-0.7-0.6-1.1c-1.3-0.5-2.1-2.4-2.1-2.5l0.2-0.1c0,0,0.8,2,2,2.4l0,0l0,0.1
									c0.1,0.8,0.7,1.4,1.7,1.7l0,0l0,0c0.4,1.3,2.3,2.1,2.3,2.1l-0.1,0.2c-0.1,0-1.9-0.8-2.4-2.2C29.7,19.4,29.3,19.2,29,18.9z"
									/>
							</g>
						</g>
						<g>
							<g>
								<path fill="#F7B64C" d="M29.1,22.7c-0.3-0.3-0.5-0.6-0.6-0.9l0.2-0.1c0.5,1.3,2.4,1.9,2.4,1.9l-0.1,0.2
									C30.9,23.8,29.8,23.4,29.1,22.7z"/>
							</g>
						</g>
						<g>
							<g>
								<path fill="#F7B64C" d="M27.1,25c-0.3-0.3-0.5-0.6-0.8-1l0.2-0.1c1.3,2,2.7,2,2.7,2l0,0.2C29.1,26.1,28.2,26.1,27.1,25z"/>
							</g>
						</g>
					</g>
					<g>
						<g>
							<path fill="#F7B64C" d="M25.4,27.1c-0.5-0.5-0.9-1.2-0.9-2.2l0.2,0c-0.1,2.3,2.7,3.1,2.7,3.2l-0.1,0.2
								C27.3,28.2,26.2,27.9,25.4,27.1z"/>
						</g>
					</g>
					<g>
						<g>
							<path fill="#F7B64C" d="M23.5,28.9c-0.4-0.4-0.8-0.9-0.8-1.3l0.2,0c0.1,1.1,2.5,2.6,2.5,2.6l-0.1,0.2
								C25.2,30.2,24.2,29.6,23.5,28.9z"/>
						</g>
					</g>
					<g>
						<g>
							<path fill="#F7B64C" d="M21.5,31.4c-0.3-0.3-0.6-0.8-0.8-1.4l0.2-0.1c0.5,2.1,2.7,2.1,2.7,2.1l0,0.2
								C23.6,32.3,22.4,32.3,21.5,31.4z"/>
						</g>
					</g>
				</g>
				<g>
					<path fill="#F7B64C" d="M43.2,5.9c-0.3-0.9-0.9-1-0.9-1l0-0.2c0,0,0.7,0,1.1,1.1L43.2,5.9z"/>
				</g>
				<g>
					<path fill="#F7B64C" d="M40.2,7.6c-0.4-0.4-0.4-0.7-0.4-0.7l0.2,0l-0.1,0l0.1,0c0,0,0,0.4,1.2,1.2l-0.1,0.2
						C40.7,8,40.4,7.8,40.2,7.6z"/>
				</g>
				<g>
					<g>
						<path fill="#F7B64C" d="M37.7,9.8c-0.2-0.2-0.2-0.3-0.2-0.5c0-0.1,0.1-0.2,0.1-0.3l0.1,0.1l-0.1-0.1l0.1,0.1c0,0-0.1,0,0,0.1
							c0,0.1,0.1,0.5,1.3,1l-0.1,0.2C38.4,10.2,38,10,37.7,9.8z"/>
					</g>
				</g>
				<g>
					<g>
						<path fill="#F7B64C" d="M34.4,13.3c-0.6-0.6-0.5-1.2-0.5-1.2l0.2,0L34,12l0.1,0c0,0-0.2,1.1,1.9,1.9l-0.1,0.2
							C35.2,13.9,34.7,13.5,34.4,13.3z"/>
					</g>
				</g>
				<g>
					<path fill="#F7B64C" d="M46.4,2.4c0-0.3,0-0.5-0.1-0.6c-0.2-0.1-0.4-0.1-0.4-0.1l0-0.2c0,0,0.4-0.1,0.6,0.1
						c0.2,0.1,0.2,0.4,0.2,0.7L46.4,2.4z"/>
				</g>
				<g>
					<g>
						<path fill="#F7B64C" d="M44.1,3.8c-0.3-0.3-0.2-0.5-0.2-0.6l0.2,0l-0.1,0l0.1,0c0,0-0.1,0.4,0.8,0.8l-0.1,0.2
							C44.4,4.1,44.2,4,44.1,3.8z"/>
					</g>
				</g>
				<g>
					<path fill="#F7B64C" d="M31.9,16.2c-0.3-0.3-0.5-0.7-0.7-1.3l0.2-0.1c0.2,0.9,0.8,1.5,1.7,1.8L33,16.8
						C32.6,16.7,32.2,16.5,31.9,16.2z"/>
				</g>
				<g>
					<g>
						<path fill="#F7B64C" d="M26.6,21.9c-0.4-0.4-0.8-1.1-0.8-1.2l0.2-0.1c0.2,0.4,0.9,1.5,1.4,1.5l0,0.2
							C27.1,22.2,26.9,22.1,26.6,21.9z"/>
					</g>
				</g>
				<g>
					<g>
						<path fill="#F7B64C" d="M20.8,27.2c-0.3-0.3-0.5-0.6-0.6-1l0.2-0.1c0.2,0.7,0.7,1.2,1.4,1.4l-0.1,0.2
							C21.4,27.6,21.1,27.5,20.8,27.2z"/>
					</g>
				</g>
			</g>
		</g>
		<g>
			<g>
				<g>
					<path fill="#4ABAA5" d="M17.4,43.5c-3.7,3.5-9.3,3.7-13,0.2c-3.5-3.6-3.3-9.3,0.1-13c5.7-6.2,13.8-15.1,19-17.7
						c-0.5,6.8-3.4,13.1-7.6,19.1c6-4.2,12.2-7.1,19-7.7C32.3,29.6,23.5,37.7,17.4,43.5z"/>
				</g>
				<g>
					<g>
						<path fill="#4ABAA5" d="M35.6,26c0,0-1.8,2.1-3.6,2.7c0,0,6.1,2.8,6.4-1.9L35.7,25"/>
					</g>
					<g>
						<g>
							<path fill="#66C6B9" d="M31.1,29.8c0,0-4,3.3-8.2,5.3c-4.1,2-13.2,6.7-15.3,6.2c-0.2-0.1-0.4-0.1-0.6-0.2l-1.1,1.1l1,0.2
								c0,0,8.6,1.3,13.8-1.1c5.2-2.4,17.2-8.8,21.9-5.9C42.5,35.4,40.2,28.7,31.1,29.8z"/>
						</g>
					</g>
				</g>
			</g>
			<g>
				<g>
					<g>
						<path fill="#4ABAA5" d="M21.8,12.3c0,0-2.1,1.8-2.6,3.6c0,0-2.8-6.1,1.9-6.4l1.8,2.7"/>
					</g>
					<g>
						<g>
							<path fill="#66C6B9" d="M37.5,28.8c0.8-0.8,0.7-1.4,0.5-1.7c-0.1-0.2-0.3-0.3-0.5-0.4c-7-3.1-15.1,2-19.1,5.1
								c-2.8,2.2-8.6,6.3-8.6,6.3s4.1-5.7,6-8.2c3-3.8,8.6-12.3,5.3-19.6c-0.1-0.2-0.2-0.4-0.4-0.5c-0.3-0.2-0.9-0.2-1.7,0.5
								c0,0,2.7-3.1,6.1,1.7c0,0-1.4,2.1-1.6,4.3c-0.3,3.8-4.2,11.1-7.3,15.3c4.1-3.1,11.4-7.1,15.2-7.4c2.2-0.2,4.4-1.6,4.4-1.6
								C40.7,26.2,37.5,28.8,37.5,28.8z"/>
						</g>
					</g>
				</g>
			</g>
			<g>
				<path fill="#66C6B9" d="M8.2,45.8C7,45.5,6,45,5,44.2c-0.5-1.9-0.9-5.8,0.5-12.4c0.2-1.5,0.6-3.1,1.1-4.4
					c2.3-5.2,8.6-17.3,5.7-22c0,0,7.1,2,6.1,11.2c0,0-3.6,4.3-5.5,8.5c-1.1,2.3-3,6-4.3,9.3c-1.4,3.2-1.7,6.8-0.8,10.1
					C7.9,45,8,45.4,8.2,45.8z"/>
			</g>
		</g>
		<g>
			<path fill="#4ABAA5" d="M1.5,42c-0.2-0.3-0.8,0.4-0.8,0.7c-0.1,0.3,0,0.7,0.2,1c0.3,0.3,0.7,0.5,0.9,0.7c0.4,0.4,0.4,1,0.9,1.3
				c0.3,0.3,0.8,0.3,1.1,0.6c0.3,0.3,0.4,0.8,0.7,1c0.3,0.2,0.8,0.1,1.1-0.2c0.3-0.3,0.3-0.7,0.2-1.1c-0.1-0.4-0.4-0.7-0.7-0.9
				c-0.3-0.3-0.6-0.4-1-0.7C3,43.9,2.4,43,1.5,42z"/>
		</g>
	</g>
</g>
</svg>
