<?xml version="1.0" encoding="utf-8"?>
<!-- Generator: Adobe Illustrator 18.0.0, SVG Export Plug-In . SVG Version: 6.00 Build 0)  -->
<!DOCTYPE svg PUBLIC "-//W3C//DTD SVG 1.1//EN" "http://www.w3.org/Graphics/SVG/1.1/DTD/svg11.dtd">
<svg version="1.1" id="Layer_1" xmlns="http://www.w3.org/2000/svg" xmlns:xlink="http://www.w3.org/1999/xlink" x="0px" y="0px"
	 viewBox="0 0 48 48" enable-background="new 0 0 48 48" xml:space="preserve">
<g>
	<rect x="6.5" y="3.8" fill="#4EC0AA" width="6.3" height="11.9"/>
	<rect x="4.9" y="1.4" fill="#66C6B9" width="9.5" height="4.1"/>
	<polygon fill="#F3F3F3" points="24,2.8 42.6,19.8 42.6,48 5.4,48 5.4,19.8 	"/>
	
		<rect x="29" y="33.9" transform="matrix(0.7071 0.7071 -0.7071 0.7071 34.4459 -10.8443)" fill="#ADB3BA" width="2.7" height="4.5"/>
	<polygon fill="#E8EAE9" points="42.6,19.8 42.6,27.1 24,10.1 5.4,27.1 5.4,19.8 24,2.8 	"/>
	<path fill="#66C6B9" d="M42.9,23.9L24,6.6L5.1,23.9C4,25,2.1,25,0.9,23.9l0,0c-1.2-1.1-1.2-2.8,0-3.9l21-19.2
		c1.2-1.1,3.1-1.1,4.3,0l21,19.2c1.2,1.1,1.2,2.8,0,3.9l0,0C45.9,25,44,25,42.9,23.9z"/>
	<g>
		<path fill="#F3705A" d="M29.9,39.8c1,2.1,2.6,4.5,4.9,6.8c1.6,1.7,4.3,1.7,5.9,0l0,0c1.6-1.6,1.6-4.3,0-5.9
			c-2.3-2.2-4.7-3.9-6.8-4.9L29.9,39.8z"/>
	</g>
	<path fill="#415A6B" d="M22.3,39.4C16,39.4,11,34.4,11,28.1S16,16.8,22.3,16.8c6.2,0,11.3,5.1,11.3,11.3
		C33.6,34.4,28.5,39.4,22.3,39.4z M22.3,20.4c-4.3,0-7.7,3.5-7.7,7.7s3.5,7.7,7.7,7.7c4.3,0,7.7-3.5,7.7-7.7
		C30,23.9,26.5,20.4,22.3,20.4z"/>
	<path fill="#F3705A" d="M35.2,36.5L30.6,41c-0.5,0.5-1.2,0.5-1.6,0c-0.5-0.5-0.5-1.2,0-1.6l4.6-4.6c0.5-0.5,1.2-0.5,1.6,0
		C35.6,35.3,35.6,36,35.2,36.5z"/>
	<path fill="#F05540" d="M35.2,36.4C35.2,36.4,35.2,36.5,35.2,36.4L30.6,41c0,0,0,0,0,0c0.2,0.4,0.4,0.8,0.7,1.2l5.1-5.1
		C36,36.9,35.6,36.6,35.2,36.4z"/>
</g>
</svg>
