<?xml version="1.0" encoding="utf-8"?>
<!-- Generator: Adobe Illustrator 16.0.0, SVG Export Plug-In . SVG Version: 6.00 Build 0)  -->
<!DOCTYPE svg PUBLIC "-//W3C//DTD SVG 1.1//EN" "http://www.w3.org/Graphics/SVG/1.1/DTD/svg11.dtd">
<svg version="1.1" id="Layer_1" xmlns="http://www.w3.org/2000/svg" xmlns:xlink="http://www.w3.org/1999/xlink" x="0px" y="0px"
	 width="48px" height="48px" viewBox="0 0 48 48" enable-background="new 0 0 48 48" xml:space="preserve">
<g>
	<path fill="#F2F2F2" d="M40.827,0H3C1.344,0,0,1.343,0,3v37.827c0,1.657,1.344,3,3,3h37.827c1.657,0,3-1.343,3-3V3
		C43.827,1.343,42.484,0,40.827,0"/>
	<rect x="16.496" y="0" fill="#FFD15C" width="10.834" height="8.303"/>
	<rect x="4.012" y="31.987" fill="#CDD6E0" width="13.714" height="7.817"/>
	<path fill="#40596B" d="M45.404,34.304h-17.39v-9.445c0-4.795,3.899-8.696,8.694-8.696c4.794,0,8.695,3.901,8.695,8.696V34.304z
		 M31.015,31.304h11.39v-6.445c0-3.142-2.555-5.696-5.695-5.696c-3.14,0-5.694,2.555-5.694,5.696V31.304z"/>
	<path fill="#FF7058" d="M45.905,29.689c-5.985-1.881-12.406-1.881-18.392,0c-1.249,0.393-2.096,1.56-2.096,2.869V43.72
		c0,1.309,0.847,2.477,2.096,2.868c5.985,1.882,12.406,1.882,18.392,0C47.154,46.197,48,45.029,48,43.72V32.558
		C48,31.249,47.154,30.082,45.905,29.689"/>
	<path fill="#40596B" d="M37.881,38.689l0.591,2.291h-3.524l0.591-2.291c-0.438-0.352-0.724-0.889-0.724-1.493
		c0-1.048,0.85-1.897,1.898-1.897c1.042,0,1.893,0.85,1.893,1.897C38.605,37.8,38.319,38.337,37.881,38.689"/>
</g>
</svg>
