<?xml version="1.0" encoding="utf-8"?>
<!-- Generator: Adobe Illustrator 18.0.0, SVG Export Plug-In . SVG Version: 6.00 Build 0)  -->
<!DOCTYPE svg PUBLIC "-//W3C//DTD SVG 1.1//EN" "http://www.w3.org/Graphics/SVG/1.1/DTD/svg11.dtd">
<svg version="1.1" id="Layer_1" xmlns="http://www.w3.org/2000/svg" xmlns:xlink="http://www.w3.org/1999/xlink" x="0px" y="0px"
	 viewBox="0 0 48 48" enable-background="new 0 0 48 48" xml:space="preserve">
<g>
	<path fill="#ACB3BA" d="M43.7,47.9c2.5-4.9,4.2-9.6,4.2-13.1c0-13.2-10.7-23.9-23.9-23.9S0.1,21.6,0.1,34.8c0,3.5,1.7,8.2,4.2,13.1
		H43.7z"/>
	<path fill="#CDD6E0" d="M37.6,47.9c2.7-4.2,4.7-8.2,4.7-10.9c0-11.3-8.2-20.4-18.3-20.4S5.7,25.7,5.7,37c0,2.7,2,6.8,4.7,10.9H37.6
		z"/>
	<path fill="#40596B" d="M37.1,19.9c1.6-0.5,3.3-0.7,5-0.7C42.1,9.2,34,1.1,24,1.1C14,1.1,5.9,9.2,5.9,19.2c1.8,0,3.4,0.3,5,0.7
		H37.1z"/>
	<path fill="#FFD15C" d="M30.9,6.2c-2.7,0-5.2,1.2-6.9,3c-1.7-1.9-4.1-3-6.9-3c-5.2,0-9.3,4.2-9.3,9.3s4.2,9.3,9.3,9.3
		c2.7,0,5.2-1.2,6.9-3c1.7,1.9,4.1,3,6.9,3c5.2,0,9.3-4.2,9.3-9.3S36,6.2,30.9,6.2z"/>
	<path fill="#FF7058" d="M23.7,19.2c0,0-1.8,3-4.2,3.3c0,0,2,4.6,4.2,6.4c2.2-1.9,4.2-6.4,4.2-6.4C25.5,22.2,23.7,19.2,23.7,19.2z"
		/>
	<path fill="#FFD15C" d="M43,0.1c0,0-1.6,3.5-8.8,5c-1,0.2-2,0.3-3,0.4c-1.5,0.1-4.7,0.6-7.1,3.1c-2.4-2.5-5.6-3-7.1-3.1
		c-1-0.1-2-0.2-3-0.4C6.6,3.6,5,0.1,5,0.1c-1.1,6.6,3.8,9,7.2,9.9c1.3,0.3,2.6,0.5,4,0.5c2.4,0,4.9,3.6,4.7,5.3c0,0,0.8-1.7,3-3.2
		c2.3,1.5,3,3.2,3,3.2c-0.2-1.6,2.3-5.2,4.7-5.3c1.3,0,2.7-0.2,4-0.5C39.1,9.1,44.1,6.6,43,0.1z"/>
	<circle fill="#FF7058" cx="17.4" cy="15.6" r="5.8"/>
	<circle fill="#40596B" cx="17.4" cy="15.6" r="3.9"/>
	<circle fill="#F2F2F2" cx="14.8" cy="13" r="1.3"/>
	<circle fill="#FF7058" cx="30.6" cy="15.6" r="5.8"/>
	<circle fill="#40596B" cx="30.6" cy="15.6" r="3.9"/>
	<circle fill="#F2F2F2" cx="27.9" cy="13" r="1.3"/>
	<g>
		<circle fill="#F2F2F2" cx="13.8" cy="44.4" r="2.2"/>
		<circle fill="#F2F2F2" cx="20.6" cy="44.4" r="2.2"/>
		<circle fill="#F2F2F2" cx="27.4" cy="44.4" r="2.2"/>
		<circle fill="#F2F2F2" cx="34.2" cy="44.4" r="2.2"/>
		<circle fill="#F2F2F2" cx="17.2" cy="38" r="2.2"/>
		<circle fill="#F2F2F2" cx="24" cy="38" r="2.2"/>
		<circle fill="#F2F2F2" cx="30.8" cy="38" r="2.2"/>
		<circle fill="#F2F2F2" cx="20.6" cy="31.6" r="2.2"/>
		<circle fill="#F2F2F2" cx="27.4" cy="31.6" r="2.2"/>
	</g>
	<path opacity="0.1" fill="#231F20" d="M30.6,9.8c-3.2,0-5.8,2.6-5.8,5.8c0,1.2,0.4,2.4,1,3.3H26l0.4-0.9c2.6-5.7,6-6.1,7-6.1
		c0.1,0,0.2,0,0.2,0l1.7,0.3C34.2,10.7,32.5,9.8,30.6,9.8z"/>
	<path opacity="0.1" fill="#231F20" d="M17.4,9.8c3.2,0,5.8,2.6,5.8,5.8c0,1.2-0.4,2.4-1,3.3H22L21.6,18c-2.6-5.7-6-6.1-7-6.1
		c-0.1,0-0.2,0-0.2,0l-1.7,0.3C13.8,10.7,15.5,9.8,17.4,9.8z"/>
</g>
</svg>
