<?xml version="1.0" encoding="utf-8"?>
<!-- Generator: Adobe Illustrator 18.0.0, SVG Export Plug-In . SVG Version: 6.00 Build 0)  -->
<!DOCTYPE svg PUBLIC "-//W3C//DTD SVG 1.1//EN" "http://www.w3.org/Graphics/SVG/1.1/DTD/svg11.dtd">
<svg version="1.1" id="Layer_1" xmlns="http://www.w3.org/2000/svg" xmlns:xlink="http://www.w3.org/1999/xlink" x="0px" y="0px"
	 viewBox="0 0 48 48" enable-background="new 0 0 48 48" xml:space="preserve">
<g>
	<path fill="#40596B" d="M38.6,48H9.4c-1.1,0-2-0.9-2-2V2c0-1.1,0.9-2,2-2h29.2c1.1,0,2,0.9,2,2V46C40.6,47.1,39.7,48,38.6,48z"/>
	<rect x="11.4" y="6" fill="#F2F2F2" width="25.2" height="33.5"/>
	<path fill="#334A5E" d="M28.8,3L28.8,3c0-0.4-0.3-0.7-0.7-0.7h-8.2c-0.4,0-0.7,0.3-0.7,0.7l0,0c0,0.4,0.3,0.7,0.7,0.7h8.2
		C28.5,3.7,28.8,3.4,28.8,3z"/>
	<circle fill="#334A5E" cx="24" cy="43.7" r="2.7"/>
	<g>
		<rect x="30.8" y="14.4" fill="#4CDBC4" width="2.6" height="16.6"/>
		<rect x="26.7" y="19.1" fill="#84DBFF" width="2.6" height="12"/>
		<rect x="22.7" y="21.6" fill="#FFD05C" width="2.6" height="9.4"/>
		<rect x="18.7" y="17.7" fill="#F2705B" width="2.6" height="13.3"/>
		<rect x="14.7" y="23.7" fill="#84DBFF" width="2.6" height="7.3"/>
	</g>
</g>
</svg>
