<?xml version="1.0" encoding="utf-8"?>
<!-- Generator: Adobe Illustrator 18.0.0, SVG Export Plug-In . SVG Version: 6.00 Build 0)  -->
<!DOCTYPE svg PUBLIC "-//W3C//DTD SVG 1.1//EN" "http://www.w3.org/Graphics/SVG/1.1/DTD/svg11.dtd">
<svg version="1.1" id="Layer_1" xmlns="http://www.w3.org/2000/svg" xmlns:xlink="http://www.w3.org/1999/xlink" x="0px" y="0px"
	 viewBox="0 0 48 48" enable-background="new 0 0 48 48" xml:space="preserve">
<g>
	<g>
		<g>
			<polygon fill="#344A5E" points="34.1,43.2 13.9,43.2 15,39.5 33,39.5 			"/>
		</g>
		<g>
			<g>
				<polygon fill="#415A6B" points="12,35.7 6.5,48 13.8,48 17.6,35.7 				"/>
			</g>
			<g>
				<polygon fill="#415A6B" points="30.4,35.7 34.2,48 41.5,48 36,35.7 				"/>
			</g>
		</g>
		<path fill="#F3F3F3" d="M43.6,0H4.4C2.8,0,1.6,1.3,1.6,2.8v31.3h44.8V2.8C46.4,1.3,45.2,0,43.6,0z"/>
		<path fill="#FFD15C" d="M45.5,31.4h-43c-1.4,0-2.5,1.1-2.5,2.5c0,1.4,1.1,2.5,2.5,2.5h43c1.4,0,2.5-1.1,2.5-2.5
			C48,32.5,46.9,31.4,45.5,31.4z"/>
		<rect x="6.9" y="15.8" fill="#66C6B9" width="4.2" height="12"/>
		<rect x="14.4" y="11.6" fill="#FFD15C" width="4.2" height="16.2"/>
		<rect x="21.9" y="18.6" fill="#F3705A" width="4.2" height="9.3"/>
		<rect x="29.4" y="15.3" fill="#55C0EB" width="4.2" height="12.6"/>
		<g>
			<rect x="36.9" y="7" fill="#415A6B" width="4.2" height="20.9"/>
		</g>
	</g>
</g>
</svg>
