<?xml version="1.0" encoding="utf-8"?>
<!-- Generator: Adobe Illustrator 18.0.0, SVG Export Plug-In . SVG Version: 6.00 Build 0)  -->
<!DOCTYPE svg PUBLIC "-//W3C//DTD SVG 1.1//EN" "http://www.w3.org/Graphics/SVG/1.1/DTD/svg11.dtd">
<svg version="1.1" id="Layer_1" xmlns="http://www.w3.org/2000/svg" xmlns:xlink="http://www.w3.org/1999/xlink" x="0px" y="0px"
	 viewBox="0 0 48 48" enable-background="new 0 0 48 48" xml:space="preserve">
<g>
	<g>
		<g>
			<path fill="#F3F3F3" d="M5.6,3l0,33.8L16.8,48l22.6,0c1.7,0,3-1.3,3-3V3c0-1.7-1.3-3-3-3H8.6C6.9,0,5.6,1.3,5.6,3z"/>
		</g>
		<polygon fill="#CED6E0" points="5.6,36.8 16.8,48 16.8,36.8 		"/>
		<g>
			<g>
				<path fill="#66C6B9" d="M33.1,22.3l-0.9,3.2l-3.1-0.7l2.2,3.6H26v-1.9l-4,4.2l4,4.2v-1.9h5.5c0.6,0,1.2-0.3,1.5-0.8l2.5-4.1
					c0.3-0.6,0.3-1.3,0-1.8L33.1,22.3z"/>
				<path fill="#66C6B9" d="M19.1,30.8l2.3-2.4h-4.6l3.1-5.1l1.6,0.9l-1.6-5.5L14.2,20l1.6,0.9l-3.3,5.4c-0.3,0.6-0.3,1.3,0,1.8
					l2.5,4.1c0.3,0.5,0.9,0.8,1.5,0.8h4.8L19.1,30.8z"/>
				<path fill="#66C6B9" d="M30.7,18.4L28,13.9c-0.3-0.5-0.9-0.8-1.5-0.8h-4.9c-0.6,0-1.2,0.3-1.5,0.8l-1.8,2.9l3.1-0.7l0.9,3.2
					l1.8-2.9l2.6,4.3L25,21.7l5.7,1.3l1.6-5.5L30.7,18.4z"/>
			</g>
		</g>
	</g>
</g>
</svg>
