<?xml version="1.0" encoding="utf-8"?>
<!-- Generator: Adobe Illustrator 18.0.0, SVG Export Plug-In . SVG Version: 6.00 Build 0)  -->
<!DOCTYPE svg PUBLIC "-//W3C//DTD SVG 1.1//EN" "http://www.w3.org/Graphics/SVG/1.1/DTD/svg11.dtd">
<svg version="1.1" id="Layer_1" xmlns="http://www.w3.org/2000/svg" xmlns:xlink="http://www.w3.org/1999/xlink" x="0px" y="0px"
	 viewBox="0 0 48 48" enable-background="new 0 0 48 48" xml:space="preserve">
<g>
	<g>
		<g>
			<g>
				<path fill="#FFD15C" d="M38.6,42.6c0,0-0.5,2.1-0.8,2.3c-0.2,0.2-0.2,1.7,0.7,1.8c0.9,0.1,1.9-0.1,1.9-0.1s1.5,0.1,1.8,0.4
					c0.2,0.3,0.8,0.5,1.2,0.4c0,0,1.2,0.9,1.7,0.3l-0.5-0.7c0,0-1.5-1-1.7-1.4c-0.2-0.4-1.9-1.6-1.9-1.6l0.1-1.6L38.6,42.6z"/>
			</g>
		</g>
	</g>
	<g>
		<g>
			<g>
				<path fill="#FFD15C" d="M7.4,43.2c0,0-0.6,0.4-0.8,0.8c-0.1,0.2-0.2,0.6-0.2,0.9c0,0.4-0.3,0.7-0.7,0.8c-0.2,0-0.3,0.1-0.5,0.1
					c-0.5,0-0.7-0.1-0.7-0.1s-0.4,0.1-0.6,0.6c-0.3,0.5-1,0.6-1.1,0.6c0,0-0.5,0.3-0.8,0.2c-0.3-0.1-0.4-0.4-0.4-0.6l0.5-0.2
					c0,0,0.3-0.4,0.6-0.5c0.2-0.1,1.6-1.5,2.1-2.8c0.3-0.6,1.7-1.3,1.7-1.3L7.4,43.2z"/>
			</g>
		</g>
	</g>
	<g>
		<g>
			<g>
				<path fill="#FFD15C" d="M24.4,23.9l0.2-1.8c0,0,0.1-0.5,0.4-0.7c0.3-0.2,1.6,0.1,1.6,0.1l4.7,2.6l2.6,1.2l-5.9-0.1L24.4,23.9z"
					/>
			</g>
		</g>
	</g>
	<g>
		<g>
			<g>
				<path fill="#425A6B" d="M24.5,22.1c0,0,0.6,2.2,6.7,3.1c0,0,2.6,0.5,2.7-0.5c0,0,3.7,2.4,6.2,3.3c2.5,0.9,4.1,2,4.1,2
					s2.5,1.2,1.8,3.3c-0.7,2.1-1.1,2.4-1.1,2.4s-1.2,3-2.1,3.9c-0.9,0.9-1.7,4.3-1.7,4.3s-2.2-0.1-2.7-1c0,0,1.1-3.3,1.1-4.6
					c0-1.3,1-3.9,2.1-4.3c0,0-2-0.7-3.1-0.7c-1,0-6.5-1.8-8.1-3c0,0-1.8-0.3-3.7,0.6c-1.9,0.9-5,3-5.8,3.9c-0.8,0.8-3.2,3-4.6,3.2
					c0,0-3.1,3.3-5.3,3.9c-2.1,0.6-3.4,2.1-3.4,2.1s-1.8-0.9-1.8-2.1c0,0,3.7-2.7,3.9-3.3c0.3-0.7,2.3-2.1,3.5-2.5
					c1.2-0.4,3.1-2.5,3.4-3.2c0.3-0.7,2.9-4.4,5.5-6.3c0.9-0.7,1.5-1.8,1.5-3c0,0,0,0,0,0c0-0.3,0.1-0.6,0.2-0.8
					C24,22.3,24.3,22.1,24.5,22.1z"/>
			</g>
		</g>
	</g>
	<g>
		<g>
			<g>
				<g>
					<path fill="#F5B54C" d="M46.3,32c0,0-0.4,0.3-0.6-0.5c0,0,0,0,0,0c0,0,0,0,0,0c0-0.1-0.2-0.5-0.4-0.6c-0.3-0.1-0.8-0.1-0.8-0.1
						s-0.3,0.3,0,0.8c0.3,0.5,0.3,1.2,0,1.2h-0.2l-0.3-0.8c0,0-0.1-0.3-0.3-0.4c-0.2-0.1-1.2-0.9-1.4-1.3c0,0-0.7-0.7-0.7-1.5
						c-0.1-0.8-0.2-2.1-0.8-3.6c-0.6-1.5-1.7-5.1-1.7-5.1l-0.7-3.9L36,17l-8.4-2.1c0,0-0.5-2.5-0.2-3.9c0.4-1.4,2.4-1.4,2.4-1.4
						S32.8,9.5,33,9c0.2-0.4,0.4-1.6,0.3-2.3c0,0,0-0.1,0-0.1c0.4-0.2,3.1-1.8,4.3-1.2c0,0-1,2.3-0.6,3.2c0.5,0.9,1.8,1.4,1.8,1.4
						s2.2,1.1,2.3,2.8c0.1,1.8,0,3.7,0,4.3c0,0.7,0.3,2.8,0.3,2.8s0.3,1.1,0.4,1.5c0.2,0.4,1.1,4.1,1,6.5c0,0-0.1,1,0.5,1
						c0.5,0,1-0.1,1.2,0.2c0,0,0.4,0.2,0.4,0.6l1.1,1.1C46.2,30.9,46.4,31.6,46.3,32z"/>
				</g>
			</g>
		</g>
		<g>
			<g>
				<g>
					<g>
						<path fill="#FFD15C" d="M33.3,2c0,0,0,0.1,0,0.2c0.1,0.1,0.1,0.2-0.1,0.4c-0.2,0.1-1,0.8-1.2,1c-0.1,0-0.2,0.1-0.2,0.2
							c0,0.1,0,0.1,0,0.2C32,4.1,32.1,4.1,32,4.2c-0.1,0.1-0.2,0.3-0.3,0.3c-0.1,0-0.1,0.2,0,0.3c0,0-0.2,0-0.2,0.2
							c0,0,0.1,0.6-0.1,0.8c-0.3,0.3-0.3,0.9,0.2,1.1c0,0,1.1,0.3,1.6,0.3c0.4,0,3,0.1,4.4-2.3l-3.2-4.2C34.4,0.7,33.4,0.8,33.3,2z"
							/>
					</g>
				</g>
			</g>
			<g>
				<g>
					<g>
						<g>
							<g>
								<g>
									<path fill="#425A6B" d="M39.8,5.4c-0.3,1-1.1,2-1.8,2.3c-0.1,0.1-0.3,0.1-0.4,0.1c-0.1,0-0.2,0-0.3-0.1
										c-0.2-0.1-0.3-0.3-0.4-0.5c-0.1-0.1-0.1-0.3,0-0.4c0.2-0.5,0.5-1.8-0.1-2.1c-0.6-0.3-0.6-1.1-0.6-1.1
										c-0.3-0.2-0.6-1.1-0.6-1.1C35.3,3.1,35,4.2,35,4.2C34.7,3.9,34.4,3,34.4,3s-0.1-0.8,0-1.4c0,0-0.2,0.8-0.2,1.2
										c0,0-0.4-0.5-0.4-1.2c0,0-0.3,0.3-0.3,0.5l0-0.5l-0.1,0.7c-0.1-0.2-0.1-0.5-0.1-0.5c0-0.4,0.2-0.8,0.4-1
										C34,0.4,34.4,0.1,34.9,0c1.9-0.3,3.8,1.1,4.4,1.9C40,2.8,40.1,4.2,39.8,5.4z"/>
								</g>
							</g>
						</g>
					</g>
					<g>
						<g>
							<g>
								<path fill="#425A6B" d="M35.8,2.5C35.8,2.5,35.7,2.5,35.8,2.5c0,0-0.1,0.1-0.1,0.1c-0.1,0.1-0.1,0.2-0.2,0.3
									c0,0.1-0.1,0.1-0.1,0.2c0,0.1-0.1,0.2-0.1,0.2c-0.1,0.2-0.1,0.4-0.2,0.6C35,4,35,4.1,35,4.2c0,0.1,0,0.2,0,0.3
									c0,0.1,0,0.2,0.1,0.2c0,0.1,0.1,0.1,0.2,0.1c0.1,0,0.1,0,0.2,0c0.1,0,0.1-0.1,0.1-0.1c0,0,0-0.1,0-0.1c0,0,0,0,0,0
									c0,0,0,0,0,0s0,0,0,0c0,0,0,0,0,0c0,0,0,0.1,0,0.1c0,0,0,0.1-0.1,0.1c-0.1,0-0.1,0.1-0.2,0c-0.1,0-0.2-0.1-0.2-0.1
									c-0.1-0.1-0.1-0.2-0.1-0.3c0-0.1,0-0.2,0-0.3c0-0.1,0-0.2,0.1-0.3c0-0.2,0.1-0.4,0.2-0.6c0-0.1,0.1-0.2,0.1-0.3
									c0-0.1,0.1-0.2,0.1-0.2c0.1-0.1,0.1-0.2,0.2-0.3c0,0,0-0.1,0.1-0.1c0,0,0,0,0,0L35.8,2.5z"/>
							</g>
						</g>
					</g>
					<g>
						<g>
							<g>
								<path fill="#425A6B" d="M34.6,0.4c0,0,0,0.1,0,0.2c0,0.1-0.1,0.2-0.1,0.4c0,0.1,0,0.2,0,0.3c0,0.1,0,0.2,0,0.3
									c0,0.2,0,0.4-0.1,0.7c0,0.1,0,0.2,0,0.3c0,0.1,0,0.2,0,0.3c0,0.1,0,0.2,0,0.3c0,0.1,0,0.2,0,0.3c0,0.2,0,0.3,0.1,0.4
									c0,0.1,0,0.2,0,0.2s0-0.1,0-0.2c0-0.1,0-0.2-0.1-0.4c0-0.1,0-0.2,0-0.3c0-0.1,0-0.2,0-0.3c0-0.1,0-0.2,0-0.3
									c0-0.1,0-0.2,0-0.3c0-0.2,0-0.5,0-0.7c0-0.1,0-0.2,0-0.3c0-0.1,0-0.2,0-0.3c0-0.2,0.1-0.3,0.1-0.4c0-0.1,0-0.2,0-0.2
									L34.6,0.4z"/>
							</g>
						</g>
					</g>
				</g>
				<g>
					<g>
						<g>
							<path fill="#425A6B" d="M35.7,2.6C35.7,2.6,35.7,2.6,35.7,2.6c0,0.1,0,0.1,0,0.1c0,0.1,0,0.2,0.1,0.3c0,0.1,0.1,0.3,0.2,0.5
								C36,3.7,36,3.9,36.1,4c0.1,0.2,0.1,0.4,0.2,0.5c0.1,0.1,0.1,0.1,0.2,0.2c0.1,0,0.1,0.1,0.2,0.1c0.1,0,0.3,0.1,0.3,0.1
								c0.1,0,0.1,0,0.1,0s0,0-0.1,0c-0.1,0-0.2,0-0.3-0.1c-0.1,0-0.1,0-0.2-0.1c-0.1,0-0.1-0.1-0.2-0.2c-0.1-0.1-0.2-0.3-0.3-0.5
								c-0.1-0.2-0.1-0.4-0.2-0.5c-0.1-0.2-0.1-0.3-0.2-0.5c0-0.1-0.1-0.3-0.1-0.3C35.6,2.7,35.6,2.6,35.7,2.6
								C35.6,2.6,35.6,2.6,35.7,2.6L35.7,2.6z"/>
						</g>
					</g>
				</g>
				<g>
					<g>
						<g>
							<path fill="#425A6B" d="M37.4,5.8c0,0-0.1,0.2-0.1,0.4C37.1,6.4,37,6.7,36.9,7c0,0.1-0.1,0.1-0.1,0.2c0,0.1-0.1,0.1-0.1,0.2
								c-0.1,0.1-0.2,0.2-0.2,0.3c0,0.1-0.1,0.2-0.1,0.3c0,0,0,0.1,0,0.1c0,0,0,0,0,0s0,0,0,0c0,0,0,0,0-0.1c0-0.1,0-0.2,0-0.3
								c0-0.1,0.1-0.2,0.2-0.4c0-0.1,0.1-0.1,0.1-0.2c0-0.1,0.1-0.1,0.1-0.2c0.1-0.3,0.2-0.6,0.3-0.8c0.1-0.2,0.1-0.4,0.1-0.4
								L37.4,5.8z"/>
						</g>
					</g>
				</g>
				<g>
					<g>
						<g>
							<path fill="#425A6B" d="M39.7,5.2c0,0,0,0.1,0,0.2c0,0.1,0,0.1,0,0.2c0,0,0,0.1,0,0.1c0,0,0,0.1,0,0.1c0,0.1-0.1,0.2-0.1,0.3
								c0,0,0,0.1-0.1,0.1c0,0.1,0,0.1-0.1,0.2c0,0.1-0.1,0.2-0.2,0.3c0,0.1-0.1,0.1-0.1,0.1c0,0-0.1,0.1-0.1,0.1
								c-0.1,0.1-0.2,0.2-0.2,0.3c0,0-0.1,0.1-0.1,0.1c0,0-0.1,0.1-0.1,0.1c-0.1,0.1-0.2,0.1-0.2,0.2c-0.1,0.1-0.1,0.1-0.2,0.2
								C38.1,7.9,38,8,38,8.1c0,0.1,0,0.1,0,0.2c0,0,0,0.1,0.1,0.1c0,0,0,0,0,0s0,0,0,0c0,0,0-0.1-0.1-0.1c0-0.1,0-0.3,0-0.4
								c0-0.1,0.1-0.2,0.2-0.2c0.1-0.1,0.2-0.1,0.2-0.2c0,0,0.1-0.1,0.1-0.1c0,0,0.1-0.1,0.1-0.1C38.8,7.1,38.9,7,39,6.9
								c0,0,0.1-0.1,0.1-0.1c0,0,0.1-0.1,0.1-0.1c0.1-0.1,0.1-0.2,0.2-0.3c0-0.1,0-0.1,0.1-0.1c0,0,0-0.1,0.1-0.1
								c0-0.1,0.1-0.2,0.1-0.3c0,0,0-0.1,0-0.1c0,0,0-0.1,0-0.1c0-0.1,0-0.1,0-0.2c0-0.1,0-0.2,0-0.2L39.7,5.2z"/>
						</g>
					</g>
				</g>
			</g>
		</g>
	</g>
	<g>
		<g>
			<g>
				<path fill="#F5B54C" d="M37.3,26.4c0,0-0.2-0.8-0.6-1.1c-0.4-0.2-0.8-0.9-1-1.4c-0.2-0.6-1.5-1.1-1.6-1.1
					c-0.4,0.1-0.6,1.2-0.1,1.8c0.5,0.6,0.5,1,0.2,1.8c-0.3,0.8,0,2.7,0,2.7c0,0.4,0.5,0.4,0.5,0c0,0,0,0,0.1,0.4
					c0.1,0.4,0.3,0.4,0.3,0.4c0.2,0,0.3-0.1,0.3-0.1s0,0.3,0.3,0.3c0.3,0,0.3-0.5,0.3-0.5s0,0,0,0v0c0,0.3,0.5,0.3,0.5,0
					c0.2-0.6,0.4-2,0.4-2c0.1,0.4,0.4,0.3,0.4,0.3l0.1-0.7c0.1-0.1,0.2-0.3,0.2-0.3C37.4,26.9,37.3,26.4,37.3,26.4z"/>
			</g>
		</g>
	</g>
	<g>
		<g>
			<g>
				<path fill="#E8EAE8" d="M35,21.9c0,0,0.3,0.8-0.6,0.8c0,0,0.2,2.9-0.9,2.9c-1,0-1.8-0.3-3.4-0.9c-1.5-0.6-4.8-2-5.1-3.3
					c0,0,0.1-0.4,0.3-0.4c0,0,0.2-0.6,0.7-0.6c0,0,0-0.7,0.5-1.3c0.5-0.6,0.7-2.4,0.7-2.4s-0.4-1.3,0.8-2.1c0,0,0.1-0.8,0.1-1.3
					c0-0.1,0-0.3,0.1-0.4c0.2-0.3,0.5-0.8,0.8-1c0.5-0.2,1.5-2.2,1.5-2.2c0.4-0.2,0.7-0.2,1.1-0.1c0,0-1.3,1.7-1.4,2
					c-0.1,0.2-0.6,1.6,0.5,2.1c1.1,0.5,2.6,0.6,3.6,0c0.9-0.6,1.6-1.9,1.6-1.9s1.1-2.2,2-2.1c0,0,0,0,0.1,0c0.3,0,0.4,0.1,0.5,0.3
					c-0.3,0.1-0.9,0.4-1.1,0.8c-0.3,0.6-1,2.1-0.8,2.8c0.2,0.8,1,1.9,1.6,2.1l0.5,1C38.5,16.5,35,21.2,35,21.9z"/>
			</g>
		</g>
	</g>
	<g>
		<g>
			<g>
				<path fill="#425A6B" d="M38,8c-0.1,0.3-0.1,0.7,0.1,1c0.1,0.3,0.4,0.7,0.7,0.8c-0.5-0.1-0.9-0.2-1.4-0.2c-0.2,0-0.3,0-0.5-0.1
					c-0.1-0.1-0.2-0.3-0.1-0.4c0-0.2,0.1-0.3,0.2-0.4c0.1-0.2,0.2-0.4,0.4-0.5C37.4,7.9,37.7,7.9,38,8L38,8z"/>
			</g>
		</g>
	</g>
	<g>
		<g>
			<g>
				<path fill="#F26F5A" d="M38,8.1c-0.2-0.1-0.5-0.1-0.7,0c-0.1-0.1-0.1-0.3,0-0.4c0.2-0.1,0.5-0.1,0.7,0C38.1,7.8,38.1,8,38,8.1z"
					/>
			</g>
		</g>
	</g>
</g>
</svg>
