<?xml version="1.0" encoding="utf-8"?>
<!-- Generator: Adobe Illustrator 18.0.0, SVG Export Plug-In . SVG Version: 6.00 Build 0)  -->
<!DOCTYPE svg PUBLIC "-//W3C//DTD SVG 1.1//EN" "http://www.w3.org/Graphics/SVG/1.1/DTD/svg11.dtd">
<svg version="1.1" id="Layer_1" xmlns="http://www.w3.org/2000/svg" xmlns:xlink="http://www.w3.org/1999/xlink" x="0px" y="0px"
	 viewBox="0 0 48 48" enable-background="new 0 0 48 48" xml:space="preserve">
<g>
	<g>
		<rect x="2.9" y="15.4" fill="#F3F3F3" width="42.3" height="32.6"/>
		<path fill="#F05540" d="M6,22.3L6,22.3c-3.3,0-6-2.7-6-6v-3.8h12v3.8C12,19.6,9.3,22.3,6,22.3z"/>
		<path fill="#CED6E0" d="M18,22.3L18,22.3c-3.3,0-6-2.7-6-6v-3.8h12v3.8C24,19.6,21.3,22.3,18,22.3z"/>
		<path fill="#F05540" d="M30,22.3L30,22.3c-3.3,0-6-2.7-6-6v-3.8h12v3.8C36,19.6,33.3,22.3,30,22.3z"/>
		<path fill="#CED6E0" d="M42,22.3L42,22.3c-3.3,0-6-2.7-6-6v-3.8h12v3.8C48,19.6,45.3,22.3,42,22.3z"/>
		<polygon fill="#F3705A" points="12,12.5 0,12.5 7.1,0 15.6,0 		"/>
		<polygon fill="#E8EAE9" points="24,12.5 12,12.5 15.6,0 24,0 		"/>
		<polygon fill="#F3705A" points="36,12.5 24,12.5 24,0 32.4,0 		"/>
		<polygon fill="#E8EAE9" points="48,12.5 36,12.5 32.4,0 40.9,0 		"/>
		<rect x="13" y="27.6" fill="#415A6B" width="22" height="20.4"/>
		<rect x="15" y="29.6" fill="#8AD7F8" width="8.4" height="18.4"/>
		<rect x="24.6" y="29.6" fill="#8AD7F8" width="8.4" height="18.4"/>
		<path fill="#55C0EB" d="M21.1,32.2L21.1,32.2c-0.2-0.2-0.5-0.2-0.7,0l-3.7,3.7c-0.2,0.2-0.2,0.5,0,0.7l0,0c0.2,0.2,0.5,0.2,0.7,0
			l3.7-3.7C21.3,32.8,21.3,32.4,21.1,32.2z"/>
		<path fill="#55C0EB" d="M21.7,34.5L21.7,34.5c-0.2-0.2-0.5-0.2-0.7,0l-2,2c-0.2,0.2-0.2,0.5,0,0.7l0,0c0.2,0.2,0.5,0.2,0.7,0l2-2
			C21.9,35,21.9,34.7,21.7,34.5z"/>
		<path fill="#55C0EB" d="M26.9,32.2L26.9,32.2c0.2-0.2,0.5-0.2,0.7,0l3.7,3.7c0.2,0.2,0.2,0.5,0,0.7l0,0c-0.2,0.2-0.5,0.2-0.7,0
			l-3.7-3.7C26.7,32.8,26.7,32.4,26.9,32.2z"/>
		<path fill="#55C0EB" d="M26.3,34.5L26.3,34.5c0.2-0.2,0.5-0.2,0.7,0l2,2c0.2,0.2,0.2,0.5,0,0.7l0,0c-0.2,0.2-0.5,0.2-0.7,0l-2-2
			C26.1,35,26.1,34.7,26.3,34.5z"/>
		<g>
			<rect x="25.7" y="37.7" fill="#415A6B" width="0.9" height="2.1"/>
			<rect x="21.5" y="37.7" fill="#415A6B" width="0.9" height="2.1"/>
		</g>
	</g>
</g>
</svg>
