<?xml version="1.0" encoding="utf-8"?>
<!-- Generator: Adobe Illustrator 18.0.0, SVG Export Plug-In . SVG Version: 6.00 Build 0)  -->
<!DOCTYPE svg PUBLIC "-//W3C//DTD SVG 1.1//EN" "http://www.w3.org/Graphics/SVG/1.1/DTD/svg11.dtd">
<svg version="1.1" id="Layer_1" xmlns="http://www.w3.org/2000/svg" xmlns:xlink="http://www.w3.org/1999/xlink" x="0px" y="0px"
	 viewBox="0 0 48 48" enable-background="new 0 0 48 48" xml:space="preserve">
<g>
	<g>
		<g>
			<g>
				<path fill="#40596B" d="M44.2,19.4V25c-1.4,0.5-2.7,0.9-4.1,1.2c-7.4,1.9-12.6,8.5-12.6,16.3v0.1h-6.9v-0.1
					c0-7.8-5.3-14.4-12.6-16.3c-1.4-0.4-2.8-0.8-4.1-1.2v-5.7C16.9,15,31,15,44.2,19.4z"/>
			</g>
		</g>
	</g>
	<g>
		<path fill="#F2F2F2" d="M24,48C11,48,0.5,37.2,0.5,24S11,0,24,0s23.5,10.8,23.5,24S37,48,24,48z M24,6.7C14.6,6.7,7,14.4,7,24
			s7.6,17.3,17,17.3S41,33.6,41,24S33.4,6.7,24,6.7z"/>
	</g>
	<ellipse fill="#334A5E" cx="24" cy="24" rx="6.2" ry="6.3"/>
	<ellipse fill="#40596B" cx="24" cy="24" rx="3.2" ry="3.2"/>
	<g>
		<path fill="#FFD15C" d="M11.2,34.6c-4.9-6.2-4.9-15.1,0-21.3c0.2-0.2,0.1-0.6-0.1-0.7c-1.9-1.1-3.9-2.2-5.8-3.2
			C5,9.3,4.7,9.4,4.6,9.6c-6.1,8.6-6.1,20.3,0,28.8c0.2,0.2,0.4,0.3,0.7,0.2c1.9-1.1,3.9-2.2,5.8-3.2C11.3,35.2,11.4,34.9,11.2,34.6
			z"/>
		<path fill="#FFD15C" d="M43.4,9.6c-0.2-0.2-0.4-0.3-0.7-0.2c-1.9,1.1-3.9,2.2-5.8,3.2c-0.2,0.1-0.3,0.5-0.1,0.7
			c4.9,6.2,4.9,15.1,0,21.3c-0.2,0.2-0.1,0.6,0.1,0.7c1.9,1.1,3.9,2.2,5.8,3.2c0.2,0.1,0.5,0.1,0.7-0.2
			C49.5,29.9,49.5,18.2,43.4,9.6z"/>
	</g>
</g>
</svg>
