<?xml version="1.0" encoding="utf-8"?>
<!-- Generator: Adobe Illustrator 20.1.0, SVG Export Plug-In . SVG Version: 6.00 Build 0)  -->
<!DOCTYPE svg PUBLIC "-//W3C//DTD SVG 1.1//EN" "http://www.w3.org/Graphics/SVG/1.1/DTD/svg11.dtd">
<svg version="1.1" id="Layer_1" xmlns="http://www.w3.org/2000/svg" xmlns:xlink="http://www.w3.org/1999/xlink" x="0px" y="0px"
	 viewBox="0 0 49 49" enable-background="new 0 0 49 49" xml:space="preserve">
<g>
	<g>
		<path fill="#FFD15C" d="M1.9,19.1c0,0.3,0,0.5,0.1,0.8l9.3,28.4h1.9l9.3-28.4c0.1-0.3,0.1-0.6,0.1-0.8H1.9z"/>
		<g>
			<g>
				<polygon fill="#F8B64C" points="14.3,45.1 14.3,45.1 15.3,41.9 15.3,41.8 15.3,41.9 12.3,44.9 12.1,45.1 				"/>
				<polygon fill="#F8B64C" points="19.4,29.6 18.3,32.8 16.4,34.8 13.4,37.8 12.3,38.9 9.2,41.9 9.2,41.9 9.2,41.8 8.7,40.3 
					11.1,37.8 12.3,36.7 15.3,33.7 16.4,32.6 				"/>
				<path fill="#F8B64C" d="M22.5,19.9l-0.2,0.7l-4.8,4.8l-1.1,1.1l-3,3l-1.1,1.1l-3,3l-1.1,1.1l-1,1l-0.5-1.7l1.5-1.5l3-3l1.1-1.1
					l3-3l6.4-6.4h1C22.6,19.3,22.6,19.6,22.5,19.9z"/>
				<polygon fill="#F8B64C" points="15.6,19.1 13.4,21.4 12.3,22.5 9.2,25.5 8.2,26.5 5.2,29.6 5.1,29.6 5.1,29.5 4.6,27.9 
					7.1,25.5 8.2,24.4 11.1,21.3 12.2,20.2 13.4,19.1 				"/>
			</g>
			<g>
				<polygon fill="#F8B64C" points="10.2,45 10.3,45.1 12.5,45.1 9.2,41.8 9.2,41.9 				"/>
				<polygon fill="#F8B64C" points="15.8,40.2 15.3,41.8 15.3,41.9 12.3,38.9 11.1,37.8 8.2,34.8 7.1,33.7 6.2,32.8 5.2,29.6 
					8.2,32.6 9.2,33.7 				"/>
				<path fill="#F8B64C" d="M17.9,34.1l-0.5,1.7l-6.2-6.2l-3-3l-1.1-1.1l-4.8-4.8L2,19.9c-0.1-0.3-0.1-0.6-0.1-0.8h1l5.3,5.3
					l1.1,1.1l3,3l1.1,1.1l3,3l1.1,1.1L17.9,34.1z"/>
				<polygon fill="#F8B64C" points="19.9,27.9 19.4,29.5 16.4,26.5 15.3,25.5 12.3,22.5 8.9,19.1 11.1,19.1 				"/>
			</g>
		</g>
		<path fill="#FF7058" d="M24,12.5c0,1.3-0.2,2.5-0.6,3.7c-0.6,1.8-1.6,3.4-3,4.7c-0.7-0.1-1.2-0.4-1.7-0.9
			c-0.5,0.6-1.3,0.9-2.2,0.9c-0.8,0-1.6-0.3-2.2-0.9c-0.5,0.6-1.3,0.9-2.2,0.9c-0.9,0-1.6-0.3-2.2-0.9C9.5,20.6,8.8,21,7.9,21
			c-0.9,0-1.6-0.3-2.2-0.9c-0.5,0.5-1,0.8-1.7,0.9c-1.3-1.3-2.4-2.9-3-4.7c-0.4-1.2-0.6-2.4-0.6-3.7c0-3,1.1-5.7,2.9-7.7
			c1.9-2.2,4.7-3.7,7.7-4c0.4,0,0.7,0,1.1,0C18.7,0.7,24,6,24,12.5z"/>
		<path fill="#FF7058" d="M23.5,19c0,1.6-1.3,2.9-2.9,2.9c-0.2,0-0.3,0-0.5,0c-0.6-0.1-1.2-0.4-1.6-0.8C18,21.6,17.2,22,16.4,22
			c-0.8,0-1.6-0.3-2.1-0.9c-0.5,0.5-1.3,0.9-2.1,0.9c-0.8,0-1.6-0.3-2.1-0.9C9.6,21.6,8.9,22,8.1,22c-0.8,0-1.6-0.3-2.1-0.9
			c-0.4,0.4-1,0.7-1.6,0.8c-0.1,0-0.3,0-0.5,0C2.3,22,1,20.7,1,19c0-0.6,0.2-1.2,0.5-1.7c0.5-0.8,1.4-1.3,2.4-1.3
			c0.8,0,1.6,0.3,2.1,0.9c0.5-0.5,1.3-0.9,2.1-0.9c0.8,0,1.6,0.3,2.1,0.9c0.5-0.5,1.3-0.9,2.1-0.9c0.8,0,1.6,0.3,2.1,0.9
			c0.5-0.5,1.3-0.9,2.1-0.9c0.8,0,1.6,0.3,2.1,0.9c0.5-0.5,1.3-0.9,2.1-0.9c1,0,1.9,0.5,2.4,1.3C23.4,17.8,23.5,18.4,23.5,19z"/>
		<path fill="#F1543F" d="M11.1,0.8v8.7c0,0.7-0.6,1.3-1.3,1.3c-0.7,0-1.3-0.6-1.3-1.3V8.1c0,0.7-0.6,1.3-1.3,1.3S6,8.8,6,8.1v2.8
			c0,0.7-0.6,1.3-1.3,1.3c-0.7,0-1.3-0.6-1.3-1.3V4.8C5.3,2.6,8,1.1,11.1,0.8z"/>
	</g>
	<g>
		<path fill="#FFD15C" d="M26.4,19.1c0,0.3,0,0.5,0.1,0.8l9.3,28.4h1.9L47,19.9c0.1-0.3,0.1-0.6,0.1-0.8H26.4z"/>
		<g>
			<g>
				<polygon fill="#F8B64C" points="38.7,45.1 38.8,45.1 39.8,41.9 39.8,41.8 39.8,41.9 36.8,44.9 36.6,45.1 				"/>
				<polygon fill="#F8B64C" points="43.8,29.6 42.8,32.8 40.8,34.8 37.9,37.8 36.8,38.9 33.7,41.9 33.7,41.9 33.7,41.8 33.1,40.3 
					35.6,37.8 36.8,36.7 39.8,33.7 40.8,32.6 				"/>
				<path fill="#F8B64C" d="M47,19.9l-0.2,0.7l-4.8,4.8l-1.1,1.1l-3,3l-1.1,1.1l-3,3l-1.1,1.1l-1,1l-0.5-1.7l1.5-1.5l3-3l1.1-1.1
					l3-3l6.4-6.4h1C47.1,19.3,47.1,19.6,47,19.9z"/>
				<polygon fill="#F8B64C" points="40.1,19.1 37.9,21.4 36.8,22.5 33.7,25.5 32.6,26.5 29.6,29.6 29.6,29.6 29.6,29.5 29.1,27.9 
					31.5,25.5 32.6,24.4 35.6,21.3 36.7,20.2 37.9,19.1 				"/>
			</g>
			<g>
				<polygon fill="#F8B64C" points="34.7,45 34.7,45.1 36.9,45.1 33.7,41.8 33.7,41.9 				"/>
				<polygon fill="#F8B64C" points="40.3,40.2 39.8,41.8 39.8,41.9 36.8,38.9 35.6,37.8 32.6,34.8 31.5,33.7 30.7,32.8 29.6,29.6 
					32.6,32.6 33.7,33.7 				"/>
				<path fill="#F8B64C" d="M42.4,34.1l-0.5,1.7l-6.2-6.2l-3-3l-1.1-1.1l-4.8-4.8l-0.2-0.7c-0.1-0.3-0.1-0.6-0.1-0.8h1l5.3,5.3
					l1.1,1.1l3,3l1.1,1.1l3,3l1.1,1.1L42.4,34.1z"/>
				<polygon fill="#F8B64C" points="44.4,27.9 43.8,29.5 40.8,26.5 39.8,25.5 36.8,22.5 33.4,19.1 35.6,19.1 				"/>
			</g>
		</g>
		<path fill="#84DBFF" d="M48.5,12.5c0,1.3-0.2,2.5-0.6,3.7c-0.6,1.8-1.6,3.4-3,4.7c-0.7-0.1-1.2-0.4-1.7-0.9
			c-0.5,0.6-1.3,0.9-2.2,0.9c-0.8,0-1.6-0.3-2.2-0.9c-0.5,0.6-1.3,0.9-2.2,0.9c-0.9,0-1.6-0.3-2.2-0.9C34,20.6,33.3,21,32.4,21
			c-0.9,0-1.6-0.3-2.2-0.9c-0.5,0.5-1,0.8-1.7,0.9c-1.3-1.3-2.4-2.9-3-4.7C25.2,15,25,13.8,25,12.5c0-3,1.1-5.7,2.9-7.7
			c1.9-2.2,4.7-3.7,7.7-4c0.4,0,0.7,0,1.1,0C43.2,0.7,48.5,6,48.5,12.5z"/>
		<path fill="#84DBFF" d="M48,19c0,1.6-1.3,2.9-2.9,2.9c-0.2,0-0.3,0-0.5,0c-0.6-0.1-1.2-0.4-1.6-0.8c-0.5,0.5-1.3,0.9-2.1,0.9
			c-0.8,0-1.6-0.3-2.1-0.9c-0.5,0.5-1.3,0.9-2.1,0.9c-0.8,0-1.6-0.3-2.1-0.9c-0.5,0.5-1.3,0.9-2.1,0.9c-0.8,0-1.6-0.3-2.1-0.9
			c-0.4,0.4-1,0.7-1.6,0.8c-0.1,0-0.3,0-0.5,0c-1.6,0-2.9-1.3-2.9-2.9c0-0.6,0.2-1.2,0.5-1.7c0.5-0.8,1.4-1.3,2.4-1.3
			c0.8,0,1.6,0.3,2.1,0.9c0.5-0.5,1.3-0.9,2.1-0.9c0.8,0,1.6,0.3,2.1,0.9c0.5-0.5,1.3-0.9,2.1-0.9c0.8,0,1.6,0.3,2.1,0.9
			c0.5-0.5,1.3-0.9,2.1-0.9c0.8,0,1.6,0.3,2.1,0.9c0.5-0.5,1.3-0.9,2.1-0.9c1,0,1.9,0.5,2.4,1.3C47.8,17.8,48,18.4,48,19z"/>
		<path fill="#54C0EB" d="M35.6,0.8v8.7c0,0.7-0.6,1.3-1.3,1.3c-0.7,0-1.3-0.6-1.3-1.3V8.1c0,0.7-0.6,1.3-1.3,1.3
			c-0.7,0-1.3-0.6-1.3-1.3v2.8c0,0.7-0.6,1.3-1.3,1.3c-0.7,0-1.3-0.6-1.3-1.3V4.8C29.8,2.6,32.5,1.1,35.6,0.8z"/>
	</g>
</g>
</svg>
