<?xml version="1.0" encoding="utf-8"?>
<!-- Generator: Adobe Illustrator 18.0.0, SVG Export Plug-In . SVG Version: 6.00 Build 0)  -->
<!DOCTYPE svg PUBLIC "-//W3C//DTD SVG 1.1//EN" "http://www.w3.org/Graphics/SVG/1.1/DTD/svg11.dtd">
<svg version="1.1" id="Layer_1" xmlns="http://www.w3.org/2000/svg" xmlns:xlink="http://www.w3.org/1999/xlink" x="0px" y="0px"
	 viewBox="0 0 48 48" enable-background="new 0 0 48 48" xml:space="preserve">
<g>
	<path fill="#F2F2F2" d="M43.9,23.9c5.4-5.4,5.4-14.2,0-19.6l-0.1-0.1c-5.4-5.4-14.2-5.4-19.6,0l-10,10l19.8,19.8L43.9,23.9z"/>
	<g>
		<path fill="#FFFFFF" d="M25.9,8c-0.6-0.6-0.6-1.5,0-2.1c4.4-4.4,11.7-4.4,16.1,0L42.2,6c0.6,0.6,0.6,1.5,0,2.1
			c-0.6,0.6-1.5,0.6-2.1,0L39.9,8C36.6,4.7,31.3,4.7,28,8C27.4,8.6,26.5,8.6,25.9,8z"/>
	</g>
	<path fill="#84DBFF" d="M14.1,14.1l-10,10c-5.4,5.4-5.4,14.2,0,19.6l0.1,0.1c5.4,5.4,14.2,5.4,19.6,0l10-10L14.1,14.1z"/>
</g>
</svg>
