<?xml version="1.0" encoding="utf-8"?>
<!-- Generator: Adobe Illustrator 18.0.0, SVG Export Plug-In . SVG Version: 6.00 Build 0)  -->
<!DOCTYPE svg PUBLIC "-//W3C//DTD SVG 1.1//EN" "http://www.w3.org/Graphics/SVG/1.1/DTD/svg11.dtd">
<svg version="1.1" id="Layer_1" xmlns="http://www.w3.org/2000/svg" xmlns:xlink="http://www.w3.org/1999/xlink" x="0px" y="0px"
	 viewBox="0 0 48 48" enable-background="new 0 0 48 48" xml:space="preserve">
<g>
	<circle fill="#40596B" cx="10.9" cy="10.9" r="11"/>
	<path fill="#FFD15C" d="M21.8,9.9l-12,12l29.6,25c2.1,1.8,5.2,1.6,7.1-0.3l0,0c1.9-1.9,2.1-5,0.3-7.1L21.8,9.9z"/>
	<path fill="#F8B64C" d="M40.2,47.4c2,1.2,4.6,0.9,6.3-0.8c1.7-1.7,2-4.3,0.8-6.3L40.2,47.4z"/>
	<polygon fill="#F8B64C" points="11.8,23.4 23.4,11.8 21.8,9.9 9.9,21.8 	"/>
	<path fill="#334A5E" d="M19.4,4.1L4.1,19.4c-0.4,0.4-1.1,0.4-1.6,0l-0.1-0.1c-0.4-0.4-0.4-1.1,0-1.6L17.7,2.5
		c0.4-0.4,1.1-0.4,1.6,0l0.1,0.1C19.8,3,19.8,3.7,19.4,4.1z"/>
	<path fill="#ACB3BA" d="M22.5,22.5c-0.6,0.6-0.6,1.7,0,2.3l3.7,3.7c0.6,0.6,1.7,0.6,2.3,0c0.6-0.6,0.6-1.7,0-2.3l-3.7-3.7
		C24.2,21.9,23.1,21.9,22.5,22.5z"/>
	<circle fill="#F2F2F2" cx="25.5" cy="25.5" r="2.1"/>
	<path opacity="0.1" fill="#231F20" d="M27,27c-0.5,0.5-1.1,0.7-1.7,0.6l0.2,0.2c0,0,0.1,0.1,0.1,0.1c0.6,0.1,1.2-0.1,1.7-0.6
		s0.7-1.1,0.6-1.7c0,0-0.1-0.1-0.1-0.1l-0.2-0.2C27.7,25.9,27.5,26.5,27,27z"/>
</g>
</svg>
