<?xml version="1.0" encoding="utf-8"?>
<!-- Generator: Adobe Illustrator 18.0.0, SVG Export Plug-In . SVG Version: 6.00 Build 0)  -->
<!DOCTYPE svg PUBLIC "-//W3C//DTD SVG 1.1//EN" "http://www.w3.org/Graphics/SVG/1.1/DTD/svg11.dtd">
<svg version="1.1" id="Layer_1" xmlns="http://www.w3.org/2000/svg" xmlns:xlink="http://www.w3.org/1999/xlink" x="0px" y="0px"
	 viewBox="0 0 512 512" enable-background="new 0 0 512 512" xml:space="preserve">
<g>
	<path fill="#F2F2F2" d="M476.8,510H35.2c-1.1,0-2-0.9-2-2V154.5h445.7V508C478.8,509.1,477.9,510,476.8,510z"/>
	<path fill="#40596B" d="M478.8,154.5H33.2V4c0-1.1,0.9-2,2-2h441.7c1.1,0,2,0.9,2,2V154.5z"/>
	<rect x="64.9" y="33.7" fill="#84DBFF" width="382.2" height="89"/>
	<rect x="64.9" y="186.2" fill="#FF7058" width="79.7" height="57.1"/>
	<rect x="165.7" y="186.2" fill="#FFD15C" width="79.7" height="57.1"/>
	<rect x="266.6" y="186.2" fill="#CDD6E0" width="79.7" height="57.1"/>
	<rect x="367.4" y="186.2" fill="#CDD6E0" width="79.7" height="57.1"/>
	<rect x="64.9" y="264.5" fill="#CDD6E0" width="79.7" height="57.1"/>
	<rect x="165.7" y="264.5" fill="#CDD6E0" width="79.7" height="57.1"/>
	<rect x="266.6" y="264.5" fill="#CDD6E0" width="79.7" height="57.1"/>
	<rect x="367.4" y="264.5" fill="#CDD6E0" width="79.7" height="57.1"/>
	<rect x="64.9" y="342.8" fill="#CDD6E0" width="79.7" height="57.1"/>
	<rect x="165.7" y="342.8" fill="#CDD6E0" width="79.7" height="57.1"/>
	<rect x="266.6" y="342.8" fill="#CDD6E0" width="79.7" height="57.1"/>
	<rect x="64.9" y="421.1" fill="#CDD6E0" width="79.7" height="57.1"/>
	<rect x="165.7" y="421.1" fill="#CDD6E0" width="79.7" height="57.1"/>
	<rect x="266.6" y="421.1" fill="#CDD6E0" width="79.7" height="57.1"/>
	<rect x="367.4" y="342.8" fill="#40596B" width="79.7" height="135.4"/>
</g>
</svg>
