<?xml version="1.0" encoding="utf-8"?>
<!-- Generator: Adobe Illustrator 16.0.0, SVG Export Plug-In . SVG Version: 6.00 Build 0)  -->
<!DOCTYPE svg PUBLIC "-//W3C//DTD SVG 1.1//EN" "http://www.w3.org/Graphics/SVG/1.1/DTD/svg11.dtd">
<svg version="1.1" id="Layer_1" xmlns="http://www.w3.org/2000/svg" xmlns:xlink="http://www.w3.org/1999/xlink" x="0px" y="0px"
	 width="48px" height="48px" viewBox="0 0 48 48" enable-background="new 0 0 48 48" xml:space="preserve">
<g>
	<path fill="#40596B" d="M35.37,39.735H13.204c0,0-8.619-2.933-3.551-12.349c0,0,1.619-2.826,2.225-8.35
		c0.291-2.658,0.125-5.255,1.691-7.422c1.336-1.848,3.318-3.738,6.201-4.854c2.891-1.119,6.143-1.119,9.031,0
		c2.883,1.115,4.865,3.006,6.201,4.854c1.566,2.167,1.4,4.764,1.693,7.42c0.604,5.523,2.229,8.352,2.229,8.352
		C43.989,36.803,35.37,39.735,35.37,39.735"/>
	<path fill="#FF7058" d="M45.69,47.533H2.31l0.592-2.621c0.75-4.459,3.699-8.069,7.629-9.81c1.641-0.739,3.461-1.149,5.371-1.149
		h16.66c1.93,0,3.77,0.42,5.43,1.18c3.9,1.75,6.811,5.35,7.57,9.779L45.69,47.533z"/>
	<rect x="23.768" y="33.406" fill="#FFD15C" width="0.002" height="0.004"/>
	<rect x="24.26" y="21.544" fill="#FFD15C" width="0.002" height="0.004"/>
	<path fill="#F8B64C" d="M15.726,20.961c0.398,1.701,0.188,3.205-0.467,3.357c-0.656,0.152-1.508-1.104-1.906-2.804
		c-0.396-1.702-0.188-3.205,0.469-3.358C14.476,18.004,15.329,19.26,15.726,20.961"/>
	<path fill="#F8B64C" d="M32.78,20.961c-0.396,1.701-0.188,3.205,0.469,3.357c0.654,0.152,1.393-1.134,1.904-2.804
		c0.307-0.997,0.166-3.034-0.469-3.358C34.087,17.851,33.177,19.26,32.78,20.961"/>
	<path fill="#FFD15C" d="M33.646,25.906c-2.756,8.742-9.357,9.406-9.357,9.406s-6.602-0.664-9.357-9.406c0,0-1.475-4.561-0.236-8.36
		c0,0,0.756-6.483,9.594-6.483s9.596,6.483,9.596,6.483C35.118,21.346,33.646,25.906,33.646,25.906"/>
	<path fill="#F8B64C" d="M24.288,35.313c0,0-3.73-0.377-6.754-4.277v2.914l6.463,4.258l6.996-4.258v-2.854
		C27.979,34.938,24.288,35.313,24.288,35.313"/>
	<path fill="#40596B" d="M28.86,12.379c0,0-4.994,5.83-16.297,9.168l1.01-7.406c1.412-4.412,5.4-7.497,10.025-7.756
		c7.152-0.4,13.898,6.533,12.307,13.518l-0.371,1.336C35.534,21.238,28.45,18.117,28.86,12.379"/>
	<path fill="#ACB3BA" d="M34.161,12.004c-6.381-2.297-13.365-2.297-19.746,0c-0.773-2.146-1.545-4.291-2.318-6.438
		c3.633-2.39,7.801-4.177,12.324-5.177c4.428,1.031,8.502,2.816,12.057,5.177C35.706,7.713,34.933,9.858,34.161,12.004"/>
	<path fill="#CDD6E0" d="M13.731,34.133v10.238H11.62v-9.699C12.3,34.433,13.011,34.252,13.731,34.133"/>
	<path fill="#CDD6E0" d="M36.38,34.522v9.849h-2.109V34.072C34.991,34.162,35.7,34.313,36.38,34.522"/>
	<rect x="11.62" y="44.371" fill="#CDD6E0" width="24.762" height="3.24"/>
	<g opacity="0.1">
		<g>
			<defs>
				<rect id="SVGID_101_" x="21.099" y="31.095" width="9.895" height="6.677"/>
			</defs>
			<clipPath id="SVGID_2_">
				<use xlink:href="#SVGID_101_"  overflow="visible"/>
			</clipPath>
			<path clip-path="url(#SVGID_2_)" fill="#40596B" d="M24.288,35.313c0,0-1.406-0.146-3.189-1.156l3.615,3.615l6.279-3.822v-2.854
				C27.979,34.938,24.288,35.313,24.288,35.313"/>
		</g>
	</g>
	<path fill="#CDD6E0" d="M27.386,35.965l-3.387,1.801l-3.387-1.801c-0.525-0.278-1.16,0.103-1.16,0.697v3.09
		c0,0.594,0.635,0.976,1.16,0.696l3.387-1.8l3.387,1.8c0.527,0.279,1.16-0.103,1.16-0.696v-3.09
		C28.546,36.067,27.913,35.687,27.386,35.965"/>
</g>
</svg>
