<?xml version="1.0" encoding="utf-8"?>
<!-- Generator: Adobe Illustrator 18.0.0, SVG Export Plug-In . SVG Version: 6.00 Build 0)  -->
<!DOCTYPE svg PUBLIC "-//W3C//DTD SVG 1.1//EN" "http://www.w3.org/Graphics/SVG/1.1/DTD/svg11.dtd">
<svg version="1.1" id="Layer_1" xmlns="http://www.w3.org/2000/svg" xmlns:xlink="http://www.w3.org/1999/xlink" x="0px" y="0px"
	 viewBox="0 0 48 48" enable-background="new 0 0 48 48" xml:space="preserve">
<g>
	<g>
		<path fill="#65C5B8" d="M40.4,1.9v14.7c0,1-0.8,1.9-1.9,1.9H8.1c-1,0-1.9-0.9-1.9-1.9V1.9c0-1,0.8-1.9,1.9-1.9h30.4
			C39.5,0,40.4,0.9,40.4,1.9z"/>
		<path fill="#F6F7F7" d="M8.7,14V4.9c1.1,0,2-0.9,2-2h24.9c0,1.1,0.9,2,2,2V14c-1.1,0-2,0.9-2,2H10.7C10.7,14.9,9.8,14,8.7,14z"/>
		<circle fill="#12934F" cx="15.3" cy="9.5" r="1.1"/>
		<circle fill="#4FBFA8" cx="15.3" cy="9.5" r="1.1"/>
		<circle fill="#4FBFA8" cx="30.9" cy="9.5" r="1.1"/>
		<path fill="#65C5B8" d="M27.2,9.5c0,2.9-1.8,5.2-4.1,5.2c-0.3,0-0.6,0-0.9-0.1C20.4,14.1,19,12,19,9.5c0-0.1,0-0.2,0-0.3
			c0.1-2.7,1.9-4.9,4.1-4.9C25.4,4.2,27.2,6.6,27.2,9.5z"/>
		<path fill="#FFFFFF" d="M22.8,11.5V9.7c-0.6-0.2-1-0.4-1.3-0.7c-0.3-0.3-0.4-0.7-0.4-1.2c0-0.5,0.2-0.9,0.5-1.2S22.3,6,22.8,6V5.6
			h0.6V6c0.5,0.1,0.8,0.2,1.1,0.5c0.3,0.3,0.5,0.6,0.5,1.1L24,7.7c-0.1-0.3-0.2-0.6-0.5-0.7v1.7c0.7,0.2,1.2,0.4,1.4,0.7
			c0.3,0.3,0.4,0.7,0.4,1.2c0,0.5-0.2,1-0.5,1.3c-0.3,0.4-0.8,0.6-1.3,0.7v0.8h-0.6v-0.8c-0.5-0.1-0.9-0.3-1.2-0.6
			c-0.3-0.3-0.5-0.8-0.6-1.3l1.1-0.1c0,0.2,0.1,0.4,0.3,0.6C22.5,11.3,22.6,11.5,22.8,11.5z M22.8,6.9c-0.2,0.1-0.3,0.2-0.4,0.3
			c-0.1,0.1-0.2,0.3-0.2,0.5c0,0.2,0,0.3,0.1,0.4c0.1,0.1,0.2,0.2,0.4,0.3V6.9z M23.4,11.6c0.2,0,0.4-0.1,0.5-0.3
			c0.1-0.2,0.2-0.4,0.2-0.6c0-0.2-0.1-0.4-0.2-0.5c-0.1-0.1-0.3-0.3-0.6-0.3V11.6z"/>
	</g>
	<path fill="#40596B" d="M44.6,48H2c-1.1,0-2-0.9-2-2V11.5c0-1.1,0.9-2,2-2h42.6c1.1,0,2,0.9,2,2V46C46.6,47.1,45.7,48,44.6,48z"/>
	<path fill="#FF7058" d="M48,37.3h-8.4c-4.3,0-7.8-3.5-7.8-7.8l0,0c0-4.3,3.5-7.8,7.8-7.8H48V37.3z"/>
	<circle fill="#F2F2F2" cx="39.6" cy="29.5" r="3.7"/>
	<path fill="#CDD6E0" d="M42.3,28.5c0,2-1.7,3.7-3.7,3.7c-0.8,0-1.5-0.2-2.1-0.6c0.7,1,1.8,1.6,3.1,1.6c2,0,3.7-1.7,3.7-3.7
		c0-1.3-0.6-2.4-1.6-3.1C42,27,42.3,27.8,42.3,28.5z"/>
</g>
</svg>
