<?xml version="1.0" encoding="utf-8"?>
<!-- Generator: Adobe Illustrator 18.0.0, SVG Export Plug-In . SVG Version: 6.00 Build 0)  -->
<!DOCTYPE svg PUBLIC "-//W3C//DTD SVG 1.1//EN" "http://www.w3.org/Graphics/SVG/1.1/DTD/svg11.dtd">
<svg version="1.1" id="Layer_1" xmlns="http://www.w3.org/2000/svg" xmlns:xlink="http://www.w3.org/1999/xlink" x="0px" y="0px"
	 viewBox="0 0 48 48" enable-background="new 0 0 48 48" xml:space="preserve">
<g>
	<g>
		<g>
			<g>
				<path fill="#E8EAE9" d="M12.6,46.2c-0.9-2.4-1.4-7.2,3.1-15.7c2.1-4,3.4-8.3,3.9-12.8c0.2-1.4,0.3-3,0.3-4.6h10
					c0,0-0.1,9.1,3.9,15.5c4.1,7.5,3,14.1,2.1,17.3c-0.4,1.2-1.5,2.1-2.8,2.1H15.2C14,48,13,47.3,12.6,46.2z"/>
			</g>
			<g>
				<g>
					<path fill="#55C0EB" d="M32.3,29.7v6.2H18v-6.2C23.5,31.3,27.5,24.5,32.3,29.7z"/>
				</g>
			</g>
			<g>
				<path fill="#8AD7F8" d="M18,29.7c-0.2,0.5-0.5,1-0.8,1.6c-4.3,8.1-3.7,12.4-3,14.2c0.2,0.4,0.6,0.7,1,0.7h17.9
					c0.5,0,0.9-0.3,1-0.8c0.9-3,1.7-8.9-1.9-15.7C26.2,34.2,22.9,22.4,18,29.7z"/>
			</g>
			<g>
				<g>
					<path fill="#415A6B" d="M25.4,13h-1.1c0,0.3,0,0.6,0,0.9c0.1,9.4,0.1,21.1-5.7,30.6l0.9,0.6c5.9-9.8,5.9-22.2,5.8-31.2
						C25.4,13.6,25.4,13.3,25.4,13z"/>
				</g>
			</g>
			<g>
				<g>
					<path fill="#415A6B" d="M14.2,13.6c0,0,1.7-3.7,1.5-7.4c0-0.3,0-0.6,0.2-0.9c0.3-0.5,1-1.1,2.7-0.7l5.5,1.3l-0.7,1.9h-5.9
						C17.5,7.8,17,11.4,14.2,13.6z"/>
				</g>
			</g>
			<g>
				<g>
					<g>
						<path fill="#F3705A" d="M31.9,5.1l-2.7,1.7c-1,0.7-1.6,1.8-1.6,3h-5.8c0-0.8-0.2-1.6-0.6-2.2c-0.4-0.7-1-1.2-1.7-1.6l0,0
							c-1.7-0.8-3.4-1.5-5.2-2c0,0-0.1,0-0.1,0l0,0V0h14.2c0.6,0,1.1,0.2,1.5,0.6l2.2,2.2C32.8,3.5,32.7,4.6,31.9,5.1z"/>
					</g>
				</g>
				<g>
					<g>
						<g>
							<polygon fill="#415A6B" points="14.2,4 11.3,3.3 11.3,0.6 14.2,0 							"/>
						</g>
					</g>
				</g>
			</g>
			<g>
				<g>
					<rect x="21.2" y="9.8" fill="#F05540" width="7.4" height="3.3"/>
				</g>
			</g>
		</g>
	</g>
	<g opacity="0.3">
		<path fill="#8AD7F8" d="M22.5,27.5l-4.7,18.8h4.3l4.3-16.4C25,29,23.7,27.9,22.5,27.5z"/>
	</g>
</g>
</svg>
