<?xml version="1.0" encoding="utf-8"?>
<!-- Generator: Adobe Illustrator 18.0.0, SVG Export Plug-In . SVG Version: 6.00 Build 0)  -->
<!DOCTYPE svg PUBLIC "-//W3C//DTD SVG 1.1//EN" "http://www.w3.org/Graphics/SVG/1.1/DTD/svg11.dtd">
<svg version="1.1" id="Layer_1" xmlns="http://www.w3.org/2000/svg" xmlns:xlink="http://www.w3.org/1999/xlink" x="0px" y="0px"
	 viewBox="0 0 48 48" enable-background="new 0 0 48 48" xml:space="preserve">
<g>
	<g>
		<rect x="0" fill="#F3F3F3" width="38" height="48"/>
	</g>
	<g>
		<rect x="5.5" y="5.2" fill="#CED6E0" width="27" height="2"/>
		<rect x="5.5" y="12.1" fill="#CED6E0" width="27" height="2"/>
		<rect x="5.5" y="19.1" fill="#CED6E0" width="27" height="2"/>
		<rect x="5.5" y="26" fill="#CED6E0" width="27" height="2"/>
		<rect x="5.5" y="32.9" fill="#CED6E0" width="11.2" height="2"/>
	</g>
	<g>
		<g>
			<path fill="#415A6B" d="M11.8,41.3c-0.9,0-2.4-0.6-3.2-1.4c-0.4-0.4-0.8-0.6-1-0.6c-0.3,0.1-0.5,0.8-0.6,1.2
				C7,40.9,6.8,41,6.5,41c-0.2,0-0.4-0.2-0.4-0.5c0-0.2,0.2-1.6,1.1-1.9c0.6-0.2,1.2,0.1,1.9,0.8c0.5,0.5,1.4,0.9,2,1
				c-0.3-0.3-0.4-0.5-0.4-0.8c0-0.2,0.2-0.5,0.8-0.7c0.9-0.3,2.7-0.3,3.3,0.4c0.7,0.7,1.1,0.8,1.3,0.8c0.1,0,0.2,0,0.4-0.3
				c0.1-0.2,0.4-0.2,0.6-0.1c0.2,0.1,0.2,0.4,0.1,0.6c-0.3,0.5-0.7,0.6-1,0.6c-0.6,0.1-1.2-0.3-2-1.1c-0.2-0.2-0.8-0.3-1.6-0.3
				c-0.5,0-0.9,0.1-1,0.2c0,0,0.1,0.1,0.2,0.2c0.4,0.3,0.7,0.6,0.7,1c0,0.1-0.1,0.3-0.4,0.5C12,41.3,11.9,41.3,11.8,41.3z"/>
		</g>
	</g>
	<g>
		<g>
			<rect x="5.1" y="42.2" fill="#415A6B" width="13.3" height="0.8"/>
		</g>
	</g>
	<g>
		<g>
			<polygon fill="#F05540" points="38.6,25.6 47.4,45.2 43.4,44.8 41.1,48 32.3,28.5 			"/>
		</g>
	</g>
	<g>
		<g>
			<polygon fill="#F3705A" points="37.2,25.6 28.4,45.2 32.4,44.8 34.7,48 43.5,28.5 			"/>
		</g>
	</g>
	<g>
		<g>
			<path fill="#F7B64C" d="M48,27.4c0,1-1.6,1.8-1.9,2.7c-0.3,0.9,0.6,2.5,0,3.3c-0.6,0.8-2.3,0.4-3.1,1c-0.8,0.6-1,2.3-1.9,2.7
				c-0.9,0.3-2.1-1-3.1-1c-1,0-2.2,1.3-3.1,1c-0.9-0.3-1.1-2.1-1.9-2.7c-0.8-0.6-2.5-0.2-3.1-1c-0.6-0.8,0.3-2.3,0-3.3
				c-0.3-0.9-1.9-1.7-1.9-2.7c0-1,1.6-1.8,1.9-2.7c0.3-0.9-0.6-2.5,0-3.3c0.6-0.8,2.3-0.4,3.1-1c0.8-0.6,1-2.3,1.9-2.7
				c0.9-0.3,2.1,1,3.1,1c1,0,2.2-1.3,3.1-1c0.9,0.3,1.1,2.1,1.9,2.7c0.8,0.6,2.5,0.2,3.1,1c0.6,0.8-0.3,2.3,0,3.3
				C46.4,25.7,48,26.4,48,27.4z"/>
		</g>
		<circle fill="#FFD15C" cx="37.9" cy="27.4" r="5.5"/>
	</g>
</g>
</svg>
