<?xml version="1.0" encoding="utf-8"?>
<!-- Generator: Adobe Illustrator 18.0.0, SVG Export Plug-In . SVG Version: 6.00 Build 0)  -->
<!DOCTYPE svg PUBLIC "-//W3C//DTD SVG 1.1//EN" "http://www.w3.org/Graphics/SVG/1.1/DTD/svg11.dtd">
<svg version="1.1" id="Layer_1" xmlns="http://www.w3.org/2000/svg" xmlns:xlink="http://www.w3.org/1999/xlink" x="0px" y="0px"
	 viewBox="0 0 48 48" enable-background="new 0 0 48 48" xml:space="preserve">
<g>
	<g>
		<path fill="#4ABAA5" d="M20.8,48C9.3,48,0,38.7,0,27.2S9.3,6.4,20.8,6.4s20.8,9.3,20.8,20.8S32.3,48,20.8,48z"/>
		<path fill="#FFFFFF" d="M20.8,42.5c-8.4,0-15.3-6.8-15.3-15.3s6.8-15.3,15.3-15.3s15.3,6.8,15.3,15.3S29.2,42.5,20.8,42.5z"/>
		<path fill="#4ABAA5" d="M20.8,36.9c-5.4,0-9.7-4.4-9.7-9.7s4.4-9.7,9.7-9.7s9.7,4.4,9.7,9.7S26.1,36.9,20.8,36.9z"/>
		<circle fill="#FFFFFF" cx="20.8" cy="27.2" r="4.2"/>
		<g>
			<path fill="#FFD15C" d="M43.2,2.4l-23,23c-0.7,0.7-0.7,1.8,0,2.5c0.7,0.7,1.8,0.7,2.5,0l23-23c0.7-0.7,0.7-1.8,0-2.5
				C45,1.7,43.9,1.7,43.2,2.4z"/>
			<g>
				<polygon fill="#F3705A" points="42,6 48,6.8 41.2,13.5 35.3,12.7 34.5,6.8 41.2,0 				"/>
			</g>
		</g>
	</g>
</g>
</svg>
