<?xml version="1.0" encoding="utf-8"?>
<!-- Generator: Adobe Illustrator 18.0.0, SVG Export Plug-In . SVG Version: 6.00 Build 0)  -->
<!DOCTYPE svg PUBLIC "-//W3C//DTD SVG 1.1//EN" "http://www.w3.org/Graphics/SVG/1.1/DTD/svg11.dtd">
<svg version="1.1" id="Layer_1" xmlns="http://www.w3.org/2000/svg" xmlns:xlink="http://www.w3.org/1999/xlink" x="0px" y="0px"
	 viewBox="0 0 48 48" enable-background="new 0 0 48 48" xml:space="preserve">
<g>
	<g>
		<g>
			<g>
				<path fill="#415A6B" d="M46.9,16.3l1-2.5l-2.3-2.1c0.1-0.6,0.1-1.2,0-1.8L48,7.8l-1-2.5l-3.1,0.2c-0.4-0.5-0.8-0.9-1.2-1.3
					l0.2-3.2l-2.5-1l-2.1,2.3c-0.6-0.1-1.2-0.1-1.8,0L34.4,0l-2.5,1L32,4.2c-0.5,0.4-0.9,0.8-1.3,1.2l-3.2-0.2l-1,2.5l2.3,2.1
					c-0.1,0.6-0.1,1.2,0,1.8l-2.4,2.1l1,2.5l3.1-0.2c0.4,0.5,0.8,0.9,1.3,1.3l-0.2,3.1l2.5,1l2.1-2.3c0.6,0.1,1.2,0.1,1.8,0l2.1,2.4
					l2.5-1l-0.2-3.1c0.5-0.4,0.9-0.8,1.3-1.3L46.9,16.3z M36,13.8c-1.7-0.7-2.5-2.7-1.8-4.3c0.7-1.7,2.7-2.5,4.3-1.8
					c1.7,0.7,2.5,2.7,1.8,4.3C39.6,13.7,37.7,14.5,36,13.8z"/>
			</g>
			<path fill="#8AD7F8" d="M31.4,29.8l3.4-2.9c-0.1-0.6-0.3-1.2-0.5-1.8l-4.4-0.8l-0.8-1.4l1.5-4.2c-0.4-0.5-0.9-0.9-1.3-1.3
				l-4.2,1.5l-1.4-0.8l-0.8-4.4c-0.6-0.2-1.2-0.4-1.8-0.5l-2.9,3.4h-1.6l-2.9-3.4c-0.6,0.1-1.2,0.3-1.8,0.5l-0.8,4.4l-1.4,0.8
				l-4.2-1.5c-0.4,0.4-0.9,0.9-1.3,1.3l1.5,4.2l-0.8,1.4l-4.4,0.8c-0.2,0.6-0.4,1.2-0.5,1.8l3.4,2.9v1.6L0,34.3
				c0.1,0.6,0.3,1.2,0.5,1.8l4.4,0.8l0.8,1.4l-1.5,4.2c0.4,0.5,0.9,0.9,1.3,1.3l4.2-1.5l1.4,0.8l0.8,4.4c0.6,0.2,1.2,0.4,1.8,0.5
				l2.9-3.4h1.6l2.9,3.4c0.6-0.1,1.2-0.3,1.8-0.5l0.8-4.4l1.4-0.8l4.2,1.5c0.5-0.4,0.9-0.8,1.3-1.3l-1.5-4.2l0.8-1.4l4.4-0.8
				c0.2-0.6,0.4-1.2,0.5-1.8l-3.4-2.9V29.8z M17.4,41.3c-5.9,0-10.7-4.8-10.7-10.7c0-5.9,4.8-10.7,10.7-10.7
				c5.9,0,10.7,4.8,10.7,10.7C28.1,36.5,23.3,41.3,17.4,41.3z"/>
			<g>
				<path fill="#F3F3F3" d="M17.4,41.3c-5.9,0-10.7-4.8-10.7-10.7c0-5.9,4.8-10.7,10.7-10.7c5.9,0,10.7,4.8,10.7,10.7
					C28.1,36.5,23.3,41.3,17.4,41.3z"/>
			</g>
			<g>
				<g>
					<path fill="#F3705A" d="M18,29.5v-4.9c0-0.4-0.3-0.6-0.6-0.6c-0.4,0-0.6,0.3-0.6,0.6v4.9H18z"/>
				</g>
			</g>
			<g>
				<g>
					<path fill="#F3705A" d="M21.4,30h-4.2v1.3h4.2c0.4,0,0.6-0.3,0.6-0.6C22,30.2,21.7,30,21.4,30z"/>
				</g>
			</g>
			<g>
				<g>
					<path fill="#415A6B" d="M17.4,32.2c-0.9,0-1.6-0.7-1.6-1.6c0-0.9,0.7-1.6,1.6-1.6c0.9,0,1.6,0.7,1.6,1.6
						C19,31.5,18.3,32.2,17.4,32.2z"/>
				</g>
				<g>
					<circle fill="#344A5E" cx="17.4" cy="30.6" r="0.7"/>
				</g>
			</g>
			<g>
				<g>
					<circle fill="#CED6E0" cx="17.4" cy="22.1" r="0.6"/>
				</g>
				<g>
					<circle fill="#CED6E0" cx="17.4" cy="39.1" r="0.6"/>
				</g>
			</g>
			<g>
				<g>
					<circle fill="#CED6E0" cx="25.9" cy="30.6" r="0.6"/>
				</g>
				<g>
					<circle fill="#CED6E0" cx="8.9" cy="30.6" r="0.6"/>
				</g>
			</g>
		</g>
		<g>
			<path fill="#344A5E" d="M39.2,6.1c-2.6-1.1-5.6,0.1-6.6,2.7c-1.1,2.6,0.1,5.6,2.7,6.6c2.6,1.1,5.6-0.1,6.7-2.7
				C43,10.1,41.8,7.1,39.2,6.1z M40.3,12c-0.7,1.7-2.7,2.5-4.4,1.8c-1.7-0.7-2.5-2.7-1.8-4.3c0.7-1.7,2.7-2.5,4.3-1.8
				C40.2,8.4,41,10.3,40.3,12z"/>
		</g>
	</g>
</g>
</svg>
