<?xml version="1.0" encoding="utf-8"?>
<!-- Generator: Adobe Illustrator 19.0.1, SVG Export Plug-In . SVG Version: 6.00 Build 0)  -->
<svg version="1.1" id="Layer_1" xmlns="http://www.w3.org/2000/svg" xmlns:xlink="http://www.w3.org/1999/xlink" x="0px" y="0px"
	 viewBox="0 0 48 48" style="enable-background:new 0 0 48 48;" xml:space="preserve">
<style type="text/css">
	.st0{fill:#415A6B;}
	.st1{fill:#ADB3BA;}
	.st2{fill:#E8EAE9;}
	.st3{fill:#55C0EB;}
	.st4{fill:#F3705A;}
	.st5{fill:#FFFFFF;}
	.st6{fill:#FFD15C;}
	.st7{fill:#344A5E;}
	.st8{fill:#CED6E0;}
	.st9{fill:#F05540;}
	.st10{fill:#F7B64C;}
	.st11{fill:#F3F3F3;}
	.st12{fill:#66C6B9;}
	.st13{fill:#4ABAA5;}
	.st14{fill:#8AD7F8;}
	.st15{fill:none;}
	.st16{fill:#E53D35;}
</style>
<g>
	<g>
		<g>
			<path class="st4" d="M8.9,11.5c0,2.6,0.1,5.2,0.1,7.8c0,0.9,0,1.9,0.6,2.6c0.6,0.8,1.6,1,2.5,1.2c1,0.2,2.1,0.3,3.1,0.3
				c0.4,0,0.9,0,1.3-0.2c0.6-0.3,1-0.8,1.2-1.5c0.2-0.6,0.2-1.3,0.3-1.9c0-0.9,0.1-1.8,0-2.7s-0.4-1.8-1-2.4
				c-0.6-0.7-1.5-1.2-2.4-1.5c-0.9-0.3-1.9-0.4-2.8-0.5"/>
			<g>
				<path class="st6" d="M8.3,22l1.2-1.9c0,0,0.6-0.5,0.7-1.1s0-1.2,0-1.2s-0.8-2.4-0.6-5.9l2.5-3.9l3.4-0.6l2.9,4.7
					c0,0,0.1,4.4-2.1,6.8c0,0-0.5,1.5-0.4,1.8l1.1,1.6l0.6,3.6l-3.1,1.5C14.6,27.5,9.5,25.2,8.3,22z"/>
			</g>
			<path class="st10" d="M8.9,21.8l0.5-1.4l0.2-0.3c0,0,0.6-0.5,0.7-1.1c0.1-0.6,0-1.2,0-1.2c3.5,4.7,6.1,1.1,6.1,1.1
				C13.2,23.9,8.9,21.8,8.9,21.8z"/>
			<g>
				<path class="st2" d="M11.5,33.8l-3-11.9l1.5-0.2c1.1,2.7,5.9,4.8,6.5,3.8c0.7-1,0.5-3.1,0.5-3.1c1,0.7,1.7,6.7,2.1,11.4H11.5z"
					/>
			</g>
			<g>
				<path class="st13" d="M0,33.8c0.1-2.5,0.9-8.1,1.1-9.2c0.2-1.2,1.2-1.4,1.2-1.4s2.6-1.2,4.5-1.8c0.6-0.2,2.3-1,2.7-1.1
					c0,0,1.5,4,2.8,6.5c1.1,2.1,1.9,4.8,2.5,7.2H0z"/>
				<path class="st13" d="M18.6,33.8c0.5-4.3-1.6-11.2-2.7-13c0,0,1.3,0.9,1.9,1.3c0.6,0.4,4.2,2.1,4.2,2.1c1.7,0.8,1.2,4.7,1.3,6
					c0,0.4,0.1,1.9,0.1,3.6H18.6z"/>
			</g>
			<g>
				<path class="st4" d="M13.7,9c0,0-0.7,0-2.2,1.4s-2,2.4-2.1,3.1c-0.1,0.7,0.7,5.8,0.7,5.8c-0.7,2.5-1.4,4.7-4.5,6.9
					c0,0,1.8-6.1,2.3-8.2s-0.6-3.9,0.5-7.5s3.5-5,6.1-4.8s4,2.6,4.3,4.1c0.3,1.5,0.1,6.7-0.2,7.9c-0.3,1.2-1.2,6.7-1.2,6.7l0.2-7.8
					c0,0,0.6-1.6,0.2-2.7s-0.1-3.1-0.9-3.9C16.2,9.2,14.9,8.7,13.7,9z"/>
			</g>
			<path class="st4" d="M18.9,16.7c0,0-0.5,4.8,0.2,7.6c0.7,2.8,1.2,3.4,1.2,3.4s-2.8-1.1-3.3-4.1c-0.5-3,0-4,0-4"/>
			<g>
				<path class="st4" d="M15.8,25c0.4,0.9,1.1,1.7,1.5,2.6c0.5,0.9,0.7,2,0.4,2.9c0.9-0.7,1.1-1.9,0.9-3c-0.2-1.1-0.6-2.1-0.9-3.1
					c-0.3-1.5-0.3-3.1-0.2-4.6l-1.2-0.9C15,20.6,14.9,23,15.8,25z"/>
			</g>
			<path class="st4" d="M10.2,17.9c0.3,1.2,0.1,3.2-0.3,4.3c-0.3,0.9-0.9,1.8-1.2,2.7c-0.3,1-0.3,2,0.1,3c-0.6-0.2-0.9-0.8-1-1.4
				c-0.1-0.6,0.1-1.2,0.4-1.8c0.2-0.6,0.6-1.1,0.8-1.7c0.6-1.5,0.6-3.2-0.1-4.6"/>
		</g>
		<g>
			<g>
				<path class="st8" d="M44,18.5c0,0-0.1,0.1-0.1,0.1s0.1,1.2,0.1,1.2c0,0.1,0.8,0.6,0.8,0.6s0.8-1.2,0.4-1.5
					C44.7,18.6,44,18.5,44,18.5z"/>
			</g>
			<g>
				<path class="st4" d="M45.4,22.4l1.5-0.4l1.1,0.9v10.9H35.6C35.6,33.8,43.4,23,45.4,22.4z"/>
			</g>
			<g>
				<path class="st6" d="M44.3,16.3l-0.4,1.9c0,0,0.2,1.6,1,2.3l-6.4,4.8c0,0-0.4-2.9-0.6-3.4c0,0-1.1,0.1-1.6-1.1
					c-0.4-1.2-0.8-1.9-1-2.5s-0.6-2-0.6-3s-0.3-1.2-0.2-1.5c0-0.3,0-0.9,0-0.9s0.1-2.1,0.3-2.5c0,0,1.5-1.1,3.6-1.2
					c2.1-0.1,4.6,0.1,4.6,0.1L44.3,16.3z"/>
			</g>
			<g>
				<path class="st6" d="M44.8,20.4l-7.9,6.3c0,0,1-4.6,0.9-4.9c0,0-1.1,0.1-1.6-1.1c-0.4-1.2-0.8-1.9-1-2.5c-0.2-0.5-0.6-2-0.6-3
					c0-1-0.3-1.2-0.2-1.5c0-0.3,0-0.9,0-0.9s0.1-2.1,0.3-2.5c0,0,1.5-1.1,3.6-1.2c2.1-0.1,4.6,0.1,4.6,0.1l1.4,7l-0.4,1.9
					C43.8,18.2,44.1,19.8,44.8,20.4z"/>
			</g>
			<g>
				<path class="st0" d="M34.4,12.9c0,0,0.2-1.9,0.3-2.2c0.2-0.3,0.8-0.5,1.3-0.3c0.5,0.2,2.8,0,3.4-0.2s2.2-0.3,2.3,0.6
					c0.1,0.9,0,1.2,0.3,1.7c0.4,0.6,0.8,1.7,0.8,2.1l0.5,0.1c0,0,0.2-0.6,0.4-0.8c0.2-0.2,0.6,0,0.6,0.3c0,0.3-0.7,3.2-0.6,3.9
					c0,0,0.2-0.9,0.3-1.2s0.6-4.1,0.7-5S44.7,9,43.7,7.8c-1-1.2-2.4-1.8-3.9-2c-1.5-0.2-3.4,1.1-4,1.7s-1.6,1.3-1.3,3
					C34.5,10.6,34.2,12.2,34.4,12.9z"/>
			</g>
			<g>
				<path class="st0" d="M34.4,12.9c0,0,0.2-1.9,0.3-2.2c0.2-0.3,0.8-0.5,1.3-0.3c0.5,0.2,2.8,0,3.4-0.2s2.2-0.3,2.3,0.6
					c0.1,0.9,0,1.2,0.3,1.7c0.4,0.6,0.8,1.7,0.8,2.1l0.5,0.1c0,0,0.2-0.6,0.4-0.8c0.2-0.2,0.6,0,0.6,0.3c0,0.3-0.7,3.2-0.6,3.9
					c0,0,0.2-0.9,0.3-1.2s0.6-4.1,0.7-5S44.7,9,43.7,7.8c-1-1.2-2.4-1.8-3.9-2c-1.5-0.2-3.4,1.1-4,1.7s-1.6,1.3-1.3,3
					C34.5,10.6,34.2,12.2,34.4,12.9z"/>
			</g>
			<g>
				<ellipse transform="matrix(0.9485 0.3167 -0.3167 0.9485 7.1414 -13.165)" class="st6" cx="44.1" cy="15.4" rx="1" ry="1.9"/>
			</g>
			<g>
				<path class="st10" d="M43.2,18c-0.2,0.5-1,4.5-5.8,6.7c-0.1-0.9,0.5-2.6,0.4-2.9c0,0,1.4,0.1,2.8-0.9C42,20,43,18.6,43.2,18z"/>
			</g>
			<g>
				<polyline class="st8" points="38.1,23.2 37.5,26 39.4,23.3 41.3,24.6 41.8,27.6 34.6,33.8 33.5,33.8 36.7,24.8 38.1,23.2 				
					"/>
			</g>
			<g>
				<path class="st2" d="M37.8,21.8c0,0,0.2,0.6,0.2,1c0.1,0.4,0.1,0.4,0.1,0.4c-0.3,0.9-0.7,1.5-1.3,2l0,0c0-0.4,0.1-0.7,0.3-1
					c0.1-0.1,0.1-0.2,0.1-0.3l-0.5-0.7L37.8,21.8"/>
			</g>
			<g>
				<path class="st2" d="M45.7,20.8l-4.5,5.7l-1.8-3.2c0,0,4.4-3,4.8-3.3c0.3-0.2,0.8-0.7,0.8-1c-0.1-0.2-1-0.4-1-0.4l0-0.2
					c1.3,0.2,1.4,0.7,1.4,0.7L45.7,20.8z"/>
			</g>
			<g>
				<g>
					<path class="st4" d="M37.8,22.1l-0.1-0.2c0,0-0.7,0-1.5,0.6c-0.8,0.6-2.4,3.7-2.7,4.6c-0.2,0.9-1.8,6.7-1.8,6.7h1.8
						c0,0,3.1-8.1,3.3-8.6c0.2-0.5,0.6-1.7,0.6-1.7L37.8,22.1z"/>
				</g>
				<g>
					<path class="st9" d="M45.4,19.7c0,0,0.1,0.5-0.4,1c-0.5,0.5-1.6,1.5-2.1,2.1s-2.7,3.4-3.9,4.7s-4.4,6.4-4.4,6.4h2.2l7.6-7.5
						L44,24.7l1.9-0.4c0,0,0.8-1.3,1-2.1c0.1-0.2,0-0.4-0.1-0.6c-0.2-0.3-0.5-0.7-0.6-0.9C46,20.3,45.8,19.8,45.4,19.7"/>
				</g>
			</g>
		</g>
		<g>
			<g>
				<path class="st7" d="M12.6,42.3l0-0.2l1-4.5l-1-3.8c0,0-1.1,0.6-1.3,1.7c-0.2,1.1-0.3,1.7-0.7,2.5c-0.4,0.9-0.7,1.4-0.7,1.8
					c0,0.4-0.4,1.7-0.9,2.5H12.6z"/>
			</g>
			<g>
				<path class="st7" d="M12.6,42.3l0-0.2l1-4.5l-1-3.8c0,0-1.1,0.6-1.3,1.7c-0.2,1.1-0.3,1.7-0.7,2.5c-0.4,0.9-0.7,1.4-0.7,1.8
					c0,0.4-0.4,1.7-0.9,2.5H12.6z"/>
			</g>
			<g>
				<path class="st0" d="M12.5,42.3h6.5c0.1-2.5,0.2-4.7,0.3-5.4c0.3-1.9,1-5.5,1-5.5s-1,0.2-2.1,0.7c-1.2,0.5-1.3,0.7-2.4,0.8
					c-1.1,0.1-3.1,0.9-3.1,0.9s-1.4,1.4,0,8.3L12.5,42.3z"/>
			</g>
			<g>
				<path class="st0" d="M28.5,42.3H38c0.3-1.3,0.6-2.7,0.7-3.2c0.2-0.8,0.7-4.9-0.4-5.7c-1-0.8-3.4-1.3-5-0.8
					c-1.6,0.5-4.1,4.5-3.8,6.7c0,0-0.8,1.6-1,2.5C28.6,42,28.5,42.1,28.5,42.3z"/>
			</g>
			<g>
				<path class="st7" d="M36.1,42.3l-6.5-3.1c0.1-0.8,1.4-3.9,4-5.5c2.6-1.6,4.8-0.4,4.8-0.4s0-0.3-1-0.8c-1-0.5-4.5-1.1-5.2-1.5
					c-0.6-0.4-2-0.7-2-0.7c-1.8,1.4-10.5,11.2-10.5,11.2s-0.1,0.1-0.4,0.8H36.1z"/>
			</g>
			<g>
				<ellipse class="st0" cx="27.7" cy="28" rx="0.3" ry="0.8"/>
			</g>
			<g>
				<g>
					<path class="st6" d="M18.7,20.3L18.6,22c0,0,0,3.7,0.2,4.6c0.2,0.9,0.9,1.7,1.5,2.1c0,0,0.4,1.2,0.3,2.3c-0.1,1.1-1.7,3-1.7,3
						l2.9,1.3l6.5-6.2l-0.7-0.7c0,0,0-1.9,0.1-2c0,0,0.3-1.8,0.2-3.3c-0.1-1.5-0.2-3-0.2-3l-0.9-3.5c0,0-7-0.8-7.6,0.2
						C18.7,17.8,18.5,19.2,18.7,20.3z"/>
				</g>
				<g>
					<path class="st0" d="M26.7,14.3c-1.8-1.8-5.4-1.1-6.7,0.5c-1.3,1.6-1.9,2.1-1.8,4c0.2,1.7,0.4,2.9,0.4,3.3h0.1
						c0.1-0.3,0.3-1.3,0.2-2.2c-0.1-1.1-0.2-1.2,0.3-1.8c0.5-0.6,1.2-0.8,1.9-0.6c0.6,0.2,2.6,0.5,3.9,0.2c1.3-0.4,2.1,0.9,1.9,1.5
						c-0.2,0.5-0.3,0.9-0.1,1c0.2,0.1,1,1.4,0.9,3.1h0.2c0,0-0.3-1.1,0.4-1.8c0,0,0.2-1.3,0.2-2.6C28.6,17.4,28.5,16.1,26.7,14.3z"
						/>
				</g>
				<g>
					<path class="st10" d="M27.7,26.8c0,0-0.4,1.3-3.2,2.6c-2.8,1.2-4.2-0.6-4.2-0.6s0.4,1.2,0.3,2.3c-0.1,0.8-1,2.1-1.4,2.7l0,0
						c0,0,0,0,4.1-2.5C27.5,28.8,27.7,26.8,27.7,26.8z"/>
				</g>
				<g>
					<path class="st8" d="M19.2,34.3l-0.4,5.8l5.1-3.8l-0.3-3.8l-1.1,0c0,0-0.6,0.7-0.8,1.3c-0.1,0.5-0.1,0.7-0.1,0.7l-0.1-0.6
						l-0.8-1.4L19.2,34.3z"/>
				</g>
			</g>
			<g>
				<path class="st7" d="M17.1,42.3h2.4c0.4-2.1,0.7-4.1,0.9-5.1c0.3-2.4,0-4.9-0.2-5.9c0,0-0.7,1-1.3,1.5c-0.6,0.5-1.9,1.9-1.9,1.9
					l0.8,1l-2.2,1.3C15.6,37.1,16.4,39.6,17.1,42.3z"/>
			</g>
			<g>
				<path class="st6" d="M29.4,23c-0.1,1-0.7,1.7-1.2,1.7c-0.5-0.1-0.8-0.9-0.6-1.9s0.7-1.7,1.2-1.7C29.2,21.2,29.5,22,29.4,23z"/>
			</g>
			<g>
				<path class="st6" d="M17.9,23c0.1,1,0.7,1.7,1.2,1.7c0.5-0.1,0.8-0.9,0.6-1.9c-0.1-1-0.7-1.7-1.2-1.7C18.1,21.2,17.8,22,17.9,23
					z"/>
			</g>
			<g>
				<path class="st11" d="M27.7,27.3c0,0,0.3,0.3,0.1,0.7c-0.2,0.4-0.5,1-1.5,1.7s-3.8,2.7-3.8,2.7l0.6,4l6-6.8l-0.9-2
					c0,0-0.2-0.4-0.5-0.5L27.7,27.3z"/>
			</g>
			<g>
				<path class="st0" d="M20.2,42.3c0.2-0.3,0.4-0.5,0.6-0.7c1.8-2.1,5.2-4.6,5.7-5L26.2,35l2.4-0.7c0,0,1.3-2.7,1.5-3.3
					c0.2-0.6,0.3-0.7,0-1.3c-0.3-0.6-0.8-1.2-0.9-1.6c-0.1-0.5-1-0.5-1-0.5s0.6,0.8,0.1,1.6c-0.5,0.8-4.9,4-7.1,7.6
					c-0.9,1.5-1.8,3.6-2.6,5.6H20.2z"/>
			</g>
			<g>
				<path class="st11" d="M20.5,29.7c0,0,0.6,3.2,1,4.1l-0.8-0.5l-0.2,1.5c0,0-0.5-1.3-0.4-2.4C20.2,31.3,20.3,30,20.5,29.7z"/>
			</g>
			<g>
				<path class="st7" d="M12.6,42.3l0-0.2H9.1c0,0.1-0.1,0.2-0.1,0.2H12.6z"/>
			</g>
			<g>
				<path class="st0" d="M38,42.3c0.3-1.2,0.5-2.5,0.7-3.1h-9.1c0,0-0.8,1.6-1,2.5c-0.1,0.2-0.1,0.4-0.2,0.6H38z"/>
			</g>
		</g>
	</g>
</g>
</svg>
