<?xml version="1.0" encoding="utf-8"?>
<!-- Generator: Adobe Illustrator 18.0.0, SVG Export Plug-In . SVG Version: 6.00 Build 0)  -->
<!DOCTYPE svg PUBLIC "-//W3C//DTD SVG 1.1//EN" "http://www.w3.org/Graphics/SVG/1.1/DTD/svg11.dtd">
<svg version="1.1" id="Layer_1" xmlns="http://www.w3.org/2000/svg" xmlns:xlink="http://www.w3.org/1999/xlink" x="0px" y="0px"
	 viewBox="0 0 48 48" enable-background="new 0 0 48 48" xml:space="preserve">
<g>
	<g>
		<path fill="#F3F3F3" d="M40.3,31.7C40.3,40.7,33,48,24,48c-9,0-16.3-7.3-16.3-16.3c0-6.2,3.4-11.6,8.5-14.3V4.1h15.5v13.3
			C36.8,20.2,40.3,25.5,40.3,31.7z"/>
	</g>
	<g>
		<rect x="16.2" y="4.1" fill="#E8EAE9" width="15.5" height="2.5"/>
	</g>
	<g>
		<g>
			<path fill="#F3F3F3" d="M31.8,4.8H16.2c-1.3,0-2.4-1.1-2.4-2.4S14.9,0,16.2,0h15.5c1.3,0,2.4,1.1,2.4,2.4S33.1,4.8,31.8,4.8z"/>
		</g>
	</g>
	<g>
		<path fill="#F3705A" d="M13.1,26.3c-0.8,1.6-1.2,3.4-1.2,5.3c0,6.7,5.4,12.2,12.2,12.2s12.2-5.4,12.2-12.2c0-1.9-0.4-3.7-1.2-5.3
			H13.1z"/>
	</g>
	<g>
		<circle fill="#F3705A" cx="22" cy="20.5" r="2.2"/>
	</g>
	<g>
		<circle fill="#F3705A" cx="27.3" cy="10.9" r="1.7"/>
	</g>
	<circle fill="#FFFFFF" cx="28.9" cy="37.4" r="2.2"/>
	<circle fill="#FFFFFF" cx="18.2" cy="35.7" r="1"/>
</g>
</svg>
