<?xml version="1.0" encoding="utf-8"?>
<!-- Generator: Adobe Illustrator 18.0.0, SVG Export Plug-In . SVG Version: 6.00 Build 0)  -->
<!DOCTYPE svg PUBLIC "-//W3C//DTD SVG 1.1//EN" "http://www.w3.org/Graphics/SVG/1.1/DTD/svg11.dtd">
<svg version="1.1" id="Layer_1" xmlns="http://www.w3.org/2000/svg" xmlns:xlink="http://www.w3.org/1999/xlink" x="0px" y="0px"
	 viewBox="0 0 48 48" enable-background="new 0 0 48 48" xml:space="preserve">
<g>
	<g>
		<path fill="#FF7058" d="M18.6,8.6c0,0-1,0.2-1.7,1.4c1.5,3.9,0.4,9.6-3.6,11.9c-4.3,2.4-10.3-0.1-12.5-3.8l0,0
			c0,0,6.9,11.2,10.9,13.3l10.5-6c0,0,2.8-9.5-0.2-15C22.1,10.4,21.1,7.8,18.6,8.6z"/>
		<path fill="#F1543F" d="M16.5,9.1c2.1,3.8,1.2,10.4-3.1,12.8S2.9,21.7,0.8,18s0.5-7.3,4.8-9.8S14.3,5.3,16.5,9.1z"/>
		<path opacity="0.1" fill="#231F20" d="M17.6,9.4c0-0.1-0.1-0.1-0.1-0.2c-0.2,0.2-0.4,0.5-0.6,0.8c1.5,3.9,0.4,9.6-3.6,11.9
			c-1.8,1-3.9,1.2-5.9,0.7c2.3,0.8,4.9,0.8,7.1-0.4C18.8,19.8,19.8,13.2,17.6,9.4z"/>
		<path fill="#ACB3BA" d="M24.6,31.5l-8.8,5c-0.5,0.3-1.1,0.1-1.4-0.4l-2.6-4.6l10.5-6l2.6,4.6C25.2,30.6,25,31.2,24.6,31.5z"/>
		<path fill="#40596B" d="M21.1,31.6l-7,4l-1.5-2.7l7-4c0.8-0.4,1.7-0.2,2.1,0.6l0,0C22.1,30.2,21.9,31.2,21.1,31.6z"/>
	</g>
	<g>
		<path fill="#FF7058" d="M47.5,21.5c0-0.1,0.1-0.1,0.1-0.2c1.6-4-1.4-7.2-6.1-9.1s-9-1.7-10.7,2.3c-0.1,0.3-0.2,0.6-0.3,1
			c0,0,0,0,0,0c-0.1-0.1-0.2-0.3-0.3-0.4c0,0,0,0,0,0C30,15,29.9,15,29.8,14.9l0,0l0,0c-0.6-0.5-1.2-0.5-1.2-0.5
			c-2.6-0.4-3.2,2.3-3.2,2.3c-2.3,5.9,1.7,14.9,1.7,14.9l11.2,4.5C42.1,33.4,47.5,21.5,47.5,21.5L47.5,21.5
			C47.5,21.5,47.5,21.5,47.5,21.5z"/>
		<path fill="#ACB3BA" d="M25.1,36.7c-0.2,0.4,0,0.9,0.5,1.1l9.7,3.9c0.4,0.2,0.9,0,1.1-0.5l0.3-0.7l1.2-2.9l0.6-1.5l-11.2-4.5
			L25.1,36.7z"/>
	</g>
</g>
</svg>
