<?xml version="1.0" encoding="utf-8"?>
<!-- Generator: Adobe Illustrator 18.0.0, SVG Export Plug-In . SVG Version: 6.00 Build 0)  -->
<!DOCTYPE svg PUBLIC "-//W3C//DTD SVG 1.1//EN" "http://www.w3.org/Graphics/SVG/1.1/DTD/svg11.dtd">
<svg version="1.1" id="Layer_1" xmlns="http://www.w3.org/2000/svg" xmlns:xlink="http://www.w3.org/1999/xlink" x="0px" y="0px"
	 viewBox="0 0 48 48" enable-background="new 0 0 48 48" xml:space="preserve">
<g>
	<g>
		<g>
			<g>
				<path fill="#415A6B" d="M8.6,39.4L7,43.9c-0.6,1.6,0.3,3.4,1.9,4c0.3,0.1,0.7,0.2,1,0.2c1,0,2-0.5,2.6-1.4
					c1.6-2.5,4.1-4.7,7.3-6.4l-2.1-0.7H8.6z"/>
			</g>
			<g>
				<path fill="#415A6B" d="M41,43.9l-1.6-4.4h-9.1l-2.1,0.7c3.2,1.7,5.6,3.8,7.3,6.4c0.6,0.9,1.6,1.4,2.6,1.4c0.3,0,0.7-0.1,1-0.2
					C40.7,47.2,41.6,45.5,41,43.9z"/>
			</g>
		</g>
		<g>
			<g>
				<g>
					<g>
						<path fill="#344A5E" d="M13.7,12.5L12,14.2L2.3,3.2C1.8,2.7,1.9,1.9,2.4,1.5C2.9,1.1,3.6,1.1,4,1.6L13.7,12.5z"/>
					</g>
				</g>
				<g>
					<path fill="#4ABAA5" d="M15.5,3L2.2,14.7C-1,11-0.7,5.4,3,2.2C6.7-1,12.3-0.7,15.5,3z"/>
				</g>
			</g>
			<g>
				<g>
					<g>
						<path fill="#344A5E" d="M34.3,12.5l1.7,1.7l9.7-11.1c0.4-0.5,0.4-1.2-0.1-1.7c-0.5-0.4-1.2-0.4-1.7,0.1L34.3,12.5z"/>
					</g>
				</g>
				<g>
					<path fill="#4ABAA5" d="M32.5,3l13.3,11.7C49,11,48.7,5.4,45,2.2C41.3-1,35.7-0.7,32.5,3z"/>
				</g>
			</g>
		</g>
		<g>
			<ellipse fill="#66C6B9" cx="24" cy="25.6" rx="21.5" ry="21.5"/>
			<ellipse fill="#FFFFFF" cx="24" cy="25.6" rx="17.1" ry="17.1"/>
			<g>
				<path fill="#F3705A" d="M24,35.2c4.6-4.6,10.6-7.3,10.6-12.9c0-3.1-2.5-5.6-5.6-5.6c-2.2,0-4.1,1.3-5,3.2
					c-0.9-1.9-2.8-3.2-5-3.2c-3.1,0-5.6,2.5-5.6,5.6C13.4,28,19.7,30.6,24,35.2z"/>
			</g>
			<g>
				<g>
					<g>
						<path fill="#FFD15C" d="M24,26.6c-0.6,0-1-0.5-1-1V14c0-0.6,0.5-1,1-1c0.6,0,1,0.5,1,1v11.5C25,26.1,24.6,26.6,24,26.6z"/>
					</g>
				</g>
				<g>
					<g>
						<path fill="#FFD15C" d="M31.3,31.4l-6.1-6.1c0,0.7-0.7,1.5-1.6,1.3l6.3,6.2c0.4,0.4,1.1,0.4,1.5,0
							C31.7,32.5,31.7,31.9,31.3,31.4z"/>
					</g>
				</g>
			</g>
			<g>
				<g>
					<circle fill="#415A6B" cx="24" cy="25.6" r="3.5"/>
				</g>
				<g>
					<circle fill="#344A5E" cx="24" cy="25.6" r="1.7"/>
				</g>
			</g>
			<g>
				<circle fill="#E8EAE9" cx="24" cy="10.9" r="1"/>
			</g>
			<g>
				<circle fill="#E8EAE9" cx="13.5" cy="15.1" r="1"/>
			</g>
			<g>
				<circle fill="#E8EAE9" cx="9.1" cy="25.5" r="1"/>
			</g>
			<g>
				<circle fill="#E8EAE9" cx="13.4" cy="36" r="1"/>
			</g>
			<g>
				<circle fill="#E8EAE9" cx="23.8" cy="40.4" r="1"/>
			</g>
			<g>
				<circle fill="#E8EAE9" cx="34.3" cy="36.1" r="1"/>
			</g>
			<g>
				<circle fill="#E8EAE9" cx="38.7" cy="25.7" r="1"/>
			</g>
			<g>
				<circle fill="#E8EAE9" cx="34.4" cy="15.3" r="1"/>
			</g>
		</g>
	</g>
</g>
</svg>
