<?xml version="1.0" encoding="utf-8"?>
<!-- Generator: Adobe Illustrator 16.0.0, SVG Export Plug-In . SVG Version: 6.00 Build 0)  -->
<!DOCTYPE svg PUBLIC "-//W3C//DTD SVG 1.1//EN" "http://www.w3.org/Graphics/SVG/1.1/DTD/svg11.dtd">
<svg version="1.1" id="Layer_1" xmlns="http://www.w3.org/2000/svg" xmlns:xlink="http://www.w3.org/1999/xlink" x="0px" y="0px"
	 width="48px" height="48px" viewBox="0 0 48 48" enable-background="new 0 0 48 48" xml:space="preserve">
<g>
	<path fill="#F2F2F2" d="M16.852,36.535L16.209,36l-5.238,2.049c-4.281,1.681-7.281,5.5-7.961,9.941h20.992v-8.953
		C21.404,39.037,18.865,38.146,16.852,36.535"/>
	<path fill="#CDD6E0" d="M42.93,42.759c-1.42-2.08-3.449-3.74-5.9-4.711l-5.221-2.05l-0.004-0.002l-0.654,0.538
		c-2.016,1.611-4.555,2.502-7.15,2.502v8.952h20.99C44.699,46.089,43.98,44.308,42.93,42.759"/>
	<path fill="#CDD6E0" d="M23.193,42.74c0,0.465-0.377,0.842-0.84,0.842c-0.465,0-0.842-0.377-0.842-0.842
		c0-0.463,0.377-0.84,0.842-0.84C22.816,41.9,23.193,42.277,23.193,42.74"/>
	<path fill="#CDD6E0" d="M23.193,45.853c0,0.465-0.377,0.842-0.84,0.842c-0.465,0-0.842-0.377-0.842-0.842
		c0-0.463,0.377-0.84,0.842-0.84C22.816,45.013,23.193,45.39,23.193,45.853"/>
	<path fill="#4CDBC4" d="M31.809,35.994l-0.658,0.541c-2.016,1.611-4.555,2.502-7.15,2.502c-2.594,0-5.133-0.891-7.148-2.502
		l-0.65-0.543l1.551-0.609v0.029c1.826,1.471,4.037,2.211,6.248,2.211s4.422-0.74,6.25-2.211v-0.029L31.809,35.994z"/>
	<path fill="#F8B64C" d="M17.74,35.386l0.012-0.004v0.028c1.826,1.472,4.037,2.211,6.25,2.211c2.211,0,4.422-0.739,6.248-2.211
		v-0.028l0.002,0.002c-0.064-0.488-0.111-0.974-0.123-1.463v-0.018c-0.053-1.564,0.182-3.129,0.662-4.693
		c-0.74,1.338-1.563,2.51-2.252,3.198c0,0-1.889,2.7-4.539,2.271c-2.65,0.43-4.539-2.271-4.539-2.271
		c-0.695-0.698-1.527-1.892-2.273-3.25C17.834,31.232,18.016,33.31,17.74,35.386"/>
	<path fill="#F8B64C" d="M17.486,22.996c0.137,1.555-0.617,2.891-1.686,2.984c-1.064,0.092-2.039-1.092-2.176-2.646
		c-0.135-1.554,0.619-2.89,1.686-2.983C16.375,20.257,17.352,21.443,17.486,22.996"/>
	<path fill="#F8B64C" d="M34.377,23.333c-0.137,1.555-1.111,2.74-2.178,2.646c-1.066-0.093-1.82-1.429-1.684-2.983
		c0.135-1.553,1.109-2.737,2.176-2.645C33.758,20.445,34.512,21.781,34.377,23.333"/>
	<path fill="#FFD15C" d="M15.061,18.174c-0.018,0.976,0.109,2.063,0.109,4.896c0,2.859,2.57,7.609,4.289,9.34
		c0,0,1.891,2.699,4.541,2.27c2.648,0.43,4.539-2.27,4.539-2.27c1.73-1.73,4.301-6.48,4.301-9.34c0-2.832,0.127-3.92,0.107-4.896
		H15.061z"/>
	<path fill="#40596B" d="M24,10.55c-4.1,0-7.781,2.699-8.621,6.5c-0.461,2.115-0.313,2.426-0.24,4.992
		c1.125-2.895,3.801-1.338,5.348-1.338c5.756,0,9.234-4.866,9.234-4.866c2.088,0.696,1.311,3.521,1.311,3.521
		c0.201,1.969,1.381,2.223,1.852,2.245c0.074-2.168,0.178-2.565-0.264-4.554C31.779,13.25,28.1,10.55,24,10.55"/>
	<g opacity="0.1">
		<g>
			<defs>
				<rect id="SVGID_103_" x="20.75" y="29.207" width="10.043" height="8.275"/>
			</defs>
			<clipPath id="SVGID_2_">
				<use xlink:href="#SVGID_103_"  overflow="visible"/>
			</clipPath>
			<path clip-path="url(#SVGID_2_)" fill="#40596B" d="M30.25,35.411v-0.028l0.012,0.006c-0.068-0.488-0.121-0.977-0.133-1.467
				v-0.018c-0.053-1.566,0.182-3.133,0.664-4.697c-0.74,1.34-1.563,2.512-2.254,3.202c0,0-1.889,2.7-4.539,2.271
				c-1.283,0.209-2.387-0.318-3.186-0.916l-0.064,0.078l4.91,3.641C27.299,37.204,28.883,36.513,30.25,35.411"/>
		</g>
	</g>
	<path fill="#334A5E" d="M29.27,28.267c0,0-0.477,1.58-2.979,1.365c0,0-1.855-0.086-2.287-0.863
		c-0.432,0.777-2.287,0.863-2.287,0.863c-2.504,0.215-2.979-1.365-2.979-1.365c1.855,0.519,3.064-0.475,3.064-0.475
		c1.014-1.014,2.201,0,2.201,0s1.186-1.014,2.199,0C26.203,27.792,27.414,28.786,29.27,28.267"/>
	<path fill="#CDD6E0" d="M14.711,16.781c0.141,1.13,0.281,2.268,0.318,2.572c5.959-0.76,11.988-0.76,17.949,0
		c0.037-0.305,0.178-1.442,0.318-2.572H14.711z"/>
	<path fill="#F2F2F2" d="M33.504,6.264h-2.137c-0.582-3.546-3.652-6.254-7.363-6.254s-6.781,2.708-7.363,6.254h-2.137
		c-2.627,0-4.758,2.13-4.758,4.759c0,2.627,2.131,4.758,4.758,4.758h19c2.627,0,4.758-2.131,4.758-4.758
		C38.262,8.394,36.131,6.264,33.504,6.264"/>
	<path fill="#BDCCDB" d="M31.504,15.781h-15h-1.918c0.039,0.32,0.082,0.654,0.125,1h18.586c0.043-0.346,0.086-0.68,0.125-1H31.504z"
		/>
</g>
</svg>
