<?xml version="1.0" encoding="utf-8"?>
<!-- Generator: Adobe Illustrator 20.1.0, SVG Export Plug-In . SVG Version: 6.00 Build 0)  -->
<!DOCTYPE svg PUBLIC "-//W3C//DTD SVG 1.1//EN" "http://www.w3.org/Graphics/SVG/1.1/DTD/svg11.dtd">
<svg version="1.1" id="Layer_1" xmlns="http://www.w3.org/2000/svg" xmlns:xlink="http://www.w3.org/1999/xlink" x="0px" y="0px"
	 viewBox="0 0 49 49" enable-background="new 0 0 49 49" xml:space="preserve">
<g>
	<path fill="#FFD15C" d="M47.5,20.8L25.8,1C25,0.3,24,0.3,23.2,1L1.5,20.8c-1.8,1.4-0.9,4.5,1.3,4.5h43.4
		C48.4,25.3,49.3,22.2,47.5,20.8z"/>
	<path fill="#FF7058" d="M45.7,25.3v21.2c0,1.1-0.9,2-2,2H5.5c-1.1,0-2-0.9-2-2V25.3H45.7z"/>
	<path fill="#40596B" d="M23.3,48.5H11.4c-0.5-3.4-0.7-6.8-0.6-10.1c0.2-3.4,3-6,6.4-6.1h0.1c3.4,0,6.3,2.7,6.4,6.1
		C24,41.7,23.8,45.1,23.3,48.5z"/>
	<rect x="3.5" y="25.3" fill="#F1543F" width="42.2" height="1.5"/>
	<rect x="27.4" y="35.5" fill="#FFFFFF" width="13.9" height="9.3"/>
	<rect x="26.4" y="44.9" fill="#F1543F" width="15.8" height="1.1"/>
	<g>
		<path fill="#FFFFFF" d="M25,15.4v3.1c1.6-0.2,2.9-1.5,3.1-3.1H25z"/>
		<path fill="#FFFFFF" d="M24,14.3v-3.1c-1.6,0.2-2.9,1.5-3.1,3.1C20.9,14.3,24,14.3,24,14.3z"/>
		<path fill="#FFFFFF" d="M25,14.3h3.1c-0.2-1.6-1.5-2.9-3.1-3.1V14.3z"/>
		<path fill="#FFFFFF" d="M24,15.4h-3.1c0.2,1.6,1.5,2.9,3.1,3.1V15.4z"/>
	</g>
</g>
</svg>
