<?xml version="1.0" encoding="utf-8"?>
<!-- Generator: Adobe Illustrator 18.0.0, SVG Export Plug-In . SVG Version: 6.00 Build 0)  -->
<!DOCTYPE svg PUBLIC "-//W3C//DTD SVG 1.1//EN" "http://www.w3.org/Graphics/SVG/1.1/DTD/svg11.dtd">
<svg version="1.1" id="Layer_1" xmlns="http://www.w3.org/2000/svg" xmlns:xlink="http://www.w3.org/1999/xlink" x="0px" y="0px"
	 viewBox="0 0 48 48" enable-background="new 0 0 48 48" xml:space="preserve">
<g>
	<path fill="#FF7058" d="M35.8,22.5l-2.6-2.6c-5.1-5.2-13.4-5.2-18.5,0l-2.6,2.6c-5.1,5.2-5.1,13.7,0,18.9l2.6,2.6
		c5.1,5.2,13.4,5.2,18.5,0l2.6-2.6C40.9,36.2,40.9,27.8,35.8,22.5z"/>
	<g>
		<path fill="#FF7058" d="M21.8,13.8c-0.1-1-1-1.7-2.1-1.8c0,0,0,0,0,0c-1,0-1.8-0.8-1.8-1.8V2.1c0-1-0.7-1.9-1.7-2.1
			c-1.2-0.2-2.3,0.8-2.3,2v3.6c0,1.8-2.4,2.4-3.2,0.8c-0.6-1.3-1-2.7-1-4.3C9.7,1,9,0.1,8,0C6.8-0.1,5.8,0.8,5.8,2
			C5.8,9.7,12.1,16,19.8,16C21,16,21.9,15,21.8,13.8z"/>
		<path fill="#FF7058" d="M26.2,13.8c0.1-1,1-1.7,2.1-1.8c0,0,0,0,0,0c1,0,1.8-0.8,1.8-1.8V2.1c0-1,0.7-1.9,1.7-2.1
			c1.2-0.2,2.3,0.8,2.3,2v3.6c0,1.8,2.4,2.4,3.2,0.8c0.6-1.3,1-2.7,1-4.3c0-1,0.8-1.9,1.8-2c1.2-0.1,2.2,0.8,2.2,2
			c0,7.7-6.3,14.1-14.1,14.1C27,16,26.1,15,26.2,13.8z"/>
	</g>
	<path fill="#40596B" d="M19.8,16c-3.7,0-7.1-1.4-9.6-3.8C7.5,9.7,5.8,6,5.8,2c0-1.2,1-2.1,2.2-2c1,0.1,1.7,1,1.8,2
		c0,1.5,0.4,3,1,4.3c0.8,1.6,3.2,1,3.2-0.8V2c0-1.2,1.1-2.2,2.3-2c1,0.2,1.7,1.1,1.7,2.1v8.1c0,1,0.8,1.8,1.8,1.8h0
		c1,0,1.9,0.7,2.1,1.8C21.9,15,21,16,19.8,16z"/>
	<path fill="#40596B" d="M42.2,2c0,4-1.7,7.7-4.5,10.3c-2.5,2.3-5.9,3.8-9.6,3.8c-1.2,0-2.1-1-2-2.2c0.1-1,1-1.7,2.1-1.8h0
		c1,0,1.8-0.8,1.8-1.8V2.1c0-1,0.7-1.9,1.7-2.1c1.2-0.2,2.3,0.8,2.3,2v3.6c0,1.8,2.4,2.4,3.2,0.8c0.6-1.3,1-2.7,1-4.3
		c0-1,0.7-1.9,1.8-2C41.2-0.1,42.2,0.8,42.2,2z"/>
	<path fill="#F2F2F2" d="M4.8,13l-2.7,0.5l0.5,2.7c1.1,5.3,6.3,8.8,11.6,7.7l2.7-0.5l-0.5-2.7C15.3,15.4,10.1,11.9,4.8,13z"/>
	<path fill="#ACB3BA" d="M13.9,21.9c-4.2,0.9-8.4-1.9-9.2-6.1l-0.1-0.7L5.2,15c4.2-0.9,8.4,1.9,9.2,6.1l0.1,0.7L13.9,21.9z"/>
	<path fill="#F2F2F2" d="M43.2,13l2.7,0.5l-0.5,2.7c-1.1,5.3-6.3,8.8-11.6,7.7L31,23.4l0.5-2.7C32.7,15.4,37.9,11.9,43.2,13z"/>
	<path fill="#ACB3BA" d="M34.1,21.9c4.2,0.9,8.4-1.9,9.2-6.1l0.1-0.7L42.8,15c-4.2-0.9-8.4,1.9-9.2,6.1l-0.1,0.7L34.1,21.9z"/>
	<path fill="#ACB3BA" d="M14.5,21.8l-0.7,0.1c-1.6,0.3-3.2,0.1-4.6-0.5c-2.3-1-4.1-3-4.6-5.6l-0.1-0.7L5.2,15
		c1.3-0.3,2.5-0.2,3.7,0.1c2.7,0.8,4.9,3,5.5,6L14.5,21.8z"/>
	<path fill="#ACB3BA" d="M43.5,15.2l-0.1,0.7c-0.5,2.6-2.3,4.7-4.6,5.6c-1.4,0.6-3,0.8-4.6,0.5l-0.7-0.1l0.1-0.7
		c0.6-3,2.8-5.2,5.5-6c1.2-0.3,2.4-0.4,3.7-0.1L43.5,15.2z"/>
	<path opacity="0.1" fill="#231F20" d="M21.8,13.8c0.1,1.2-0.8,2.2-2,2.2c-3.7,0-7.1-1.4-9.6-3.8c1.7-2,4.4-3.5,7.7-4.3v2.3
		c0,1,0.8,1.8,1.8,1.8h0C20.8,12.1,21.7,12.8,21.8,13.8z"/>
	<path opacity="0.1" fill="#231F20" d="M37.8,12.3c-2.5,2.3-5.9,3.8-9.6,3.8c-1.2,0-2.1-1-2-2.2c0.1-1,1-1.7,2.1-1.8h0
		c1,0,1.8-0.8,1.8-1.8V8C33.4,8.8,36.1,10.3,37.8,12.3z"/>
	<path fill="#F2F2F2" d="M36.9,13.7c-4.7-6.5-21.1-6.5-25.8,0c-1,1.4-0.9,3.2-0.4,6.4c1.1,6.9,2.1,11.3,6.4,16.8
		c2.2,2.9,4.8,5.4,6.9,5.4s4.7-2.5,6.9-5.4c4.3-5.5,5.3-9.9,6.4-16.8C37.8,16.9,37.9,15.1,36.9,13.7z"/>
	<path fill="#FF7058" d="M27.8,33.6c0-1.1-0.9-1.9-1.9-1.9h-3.7c-1.1,0-1.9,0.9-1.9,1.9c0,1,0.8,1.8,1.8,1.9c0.1,1,1,1.9,2,1.9
		c1.1,0,1.9-0.8,2-1.9C27,35.4,27.8,34.6,27.8,33.6z"/>
	<g>
		<g>
			<circle fill="#40596B" cx="16.4" cy="19.2" r="2.6"/>
			<circle fill="#54C0EB" cx="16.4" cy="19.2" r="1.3"/>
			<circle fill="#FFFFFF" cx="15.7" cy="18.4" r="0.5"/>
		</g>
		<g>
			<circle fill="#40596B" cx="31.6" cy="19.2" r="2.6"/>
			<circle fill="#54C0EB" cx="31.6" cy="19.2" r="1.3"/>
			<circle fill="#FFFFFF" cx="30.8" cy="18.4" r="0.5"/>
		</g>
	</g>
</g>
</svg>
