<?xml version="1.0" encoding="utf-8"?>
<!-- Generator: Adobe Illustrator 18.0.0, SVG Export Plug-In . SVG Version: 6.00 Build 0)  -->
<!DOCTYPE svg PUBLIC "-//W3C//DTD SVG 1.1//EN" "http://www.w3.org/Graphics/SVG/1.1/DTD/svg11.dtd">
<svg version="1.1" id="Layer_1" xmlns="http://www.w3.org/2000/svg" xmlns:xlink="http://www.w3.org/1999/xlink" x="0px" y="0px"
	 viewBox="0 0 48 48" enable-background="new 0 0 48 48" xml:space="preserve">
<g>
	<g>
		<g>
			<path fill="#E8EAE9" d="M22,0c-1.8,0-3.2,1.4-3.2,3.2v37.9h6.4V3.3C25.2,1.5,23.8,0,22,0z"/>
			<path fill="#435B6C" d="M33.4,44H10.6c-2.2,0-3.9,1.8-3.9,3.9h30.6C37.3,45.8,35.5,44,33.4,44z"/>
			<path fill="#354B5E" d="M27.2,40.3H16.8c-1,0-1.9,0.8-1.9,1.9s0.8,1.9,1.9,1.9h10.4c1,0,1.9-0.8,1.9-1.9S28.3,40.3,27.2,40.3z"/>
		</g>
		<path fill="#8BD7F8" d="M47.1,16.4l-8.5-8.5c-0.6-0.6-1.5-1-2.4-0.9L2.8,9.7C1.2,9.8,0,11.2,0,12.8v11.5c0,1.6,1.2,2.9,2.8,3.1
			l33.4,2.7c0.9,0.1,1.8-0.3,2.4-0.9l8.5-8.5C48.3,19.5,48.3,17.6,47.1,16.4z"/>
	</g>
</g>
</svg>
