<?xml version="1.0" encoding="utf-8"?>
<!-- Generator: Adobe Illustrator 18.0.0, SVG Export Plug-In . SVG Version: 6.00 Build 0)  -->
<!DOCTYPE svg PUBLIC "-//W3C//DTD SVG 1.1//EN" "http://www.w3.org/Graphics/SVG/1.1/DTD/svg11.dtd">
<svg version="1.1" id="Layer_1" xmlns="http://www.w3.org/2000/svg" xmlns:xlink="http://www.w3.org/1999/xlink" x="0px" y="0px"
	 viewBox="0 0 512 512" enable-background="new 0 0 512 512" xml:space="preserve">
<g>
	<g>
		<rect x="144.7" y="120.6" fill="#F1543F" width="35.7" height="76.6"/>
		<rect x="331.5" y="120.6" fill="#F1543F" width="35.7" height="76.6"/>
	</g>
	<path fill="#F1543F" d="M449.1,388H62.9c-18.7,0-33.8,15.2-33.8,33.9c0,18.7,15.2,33.8,33.8,33.8h386.2c18.7,0,33.8-15.2,33.8-33.8
		C482.9,403.1,467.8,388,449.1,388z"/>
	<path fill="#FF7058" d="M62.9,388h386.2c12.6,0,23.4,6.9,29.2,17.1c-14-57.9-45.4-158.2-110.8-216.7c-73.6-14.4-149.4-14.4-223,0
		C79.1,246.8,47.7,347.2,33.7,405.1C39.5,394.9,50.4,388,62.9,388z"/>
	<g>
		<path fill="#CE4532" d="M502.3,185.4c-5.6,9.5-16,15.2-27,15.2h-53.7c-14.5,0-27.6-9.8-30.5-24c-0.2-1.2-0.2-2.5-0.4-3.8h-0.3
			c-0.6,6.2-0.6,12.7,0.7,19c2.9,14.2,16,24,30.5,24h53.7c11,0,21.4-5.7,27-15.2c4.9-8.3,7.5-17.9,7.6-27.7
			C507.5,177.3,504.6,181.5,502.3,185.4z"/>
		<path fill="#FF7058" d="M502.4,200.3c-5.6,9.7-16.1,15.5-27.3,15.5l-53.6,0c-14.5,0-27.7-9.8-30.6-24c-4.5-22.1,6.4-48.1,6.4-48.1
			c-24-19.2-80.4-26.7-114.2-29.6c-18-1.5-35.9-1.5-54,0c-33.9,2.9-90.5,10.4-114.4,29.6c0,0,10.9,26.2,6.3,48.3
			c-2.9,14.1-16,23.8-30.4,23.8l-53.8,0c-11.4,0-22-6-27.5-16c-5.6-10.2-8.4-22-7-34c0.4-2.6,2.8-83.8,173.3-105.5
			c0,0,36.5-4.9,70.1-3.9c6.8,0.2,13.7,0.2,20.5,0c33.6-1,69.9,3.9,69.9,3.9c170.6,21.7,172.9,102.9,173.3,105.5
			C511.1,178,508.4,190,502.4,200.3z"/>
		<path fill="#F1543F" d="M9.7,185.4c5.6,9.5,16,15.2,27,15.2h53.7c14.5,0,27.6-9.8,30.5-24c0.2-1.2,0.2-2.5,0.4-3.8h0.3
			c0.6,6.2,0.6,12.7-0.7,19c-2.9,14.2-16,24-30.5,24H36.7c-11,0-21.4-5.7-27-15.2c-4.9-8.3-7.5-17.9-7.6-27.7
			C4.5,177.3,7.4,181.5,9.7,185.4z"/>
		<path fill="#F1543F" d="M502.4,185.4c-5.6,9.5-16,15.2-27,15.2h-53.7c-14.5,0-27.6-9.8-30.5-24c-0.2-1.2-0.2-2.5-0.4-3.8h-0.3
			c-0.6,6.2-0.6,12.7,0.7,19c2.9,14.2,16,24,30.5,24h53.7c11,0,21.4-5.7,27-15.2c4.9-8.3,7.5-17.9,7.6-27.7
			C507.6,177.3,504.7,181.5,502.4,185.4z"/>
	</g>
	<ellipse fill="#F2F2F2" cx="256" cy="287" rx="87.4" ry="73.4"/>
</g>
</svg>
