<?xml version="1.0" encoding="utf-8"?>
<!-- Generator: Adobe Illustrator 18.0.0, SVG Export Plug-In . SVG Version: 6.00 Build 0)  -->
<!DOCTYPE svg PUBLIC "-//W3C//DTD SVG 1.1//EN" "http://www.w3.org/Graphics/SVG/1.1/DTD/svg11.dtd">
<svg version="1.1" id="Layer_1" xmlns="http://www.w3.org/2000/svg" xmlns:xlink="http://www.w3.org/1999/xlink" x="0px" y="0px"
	 viewBox="0 0 48 48" enable-background="new 0 0 48 48" xml:space="preserve">
<g>
	<g>
		<g>
			<path fill="#F3F3F3" d="M35.6,0H2.5C1.1,0,0,1.1,0,2.5v43.1C0,46.9,1.1,48,2.5,48h33.1c1.4,0,2.5-1.1,2.5-2.5V2.5
				C38.1,1.1,37,0,35.6,0z"/>
			<g>
				<g>
					<g>
						<g>
							<rect x="17" y="12" fill="#CED6E0" width="8.7" height="2.1"/>
						</g>
						<rect x="17" y="7.2" fill="#CED6E0" width="15.1" height="2.1"/>
					</g>
					<g>
						<rect x="5.9" y="6.2" fill="#F3705A" width="8.7" height="9"/>
					</g>
				</g>
				<g>
					<g>
						<g>
							<rect x="17" y="25.3" fill="#CED6E0" width="8.7" height="2.1"/>
						</g>
						<rect x="17" y="20.5" fill="#CED6E0" width="15.1" height="2.1"/>
					</g>
					<g>
						<rect x="5.9" y="19.5" fill="#FFD15C" width="8.7" height="9"/>
					</g>
				</g>
				<g>
					<g>
						<g>
							<rect x="17" y="38.7" fill="#CED6E0" width="8.7" height="2.1"/>
						</g>
						<rect x="17" y="33.8" fill="#CED6E0" width="15.1" height="2.1"/>
					</g>
					<g>
						<rect x="5.9" y="32.8" fill="#66C6B9" width="8.7" height="9"/>
					</g>
				</g>
			</g>
		</g>
		<g>
			<g>
				<g>
					<g>
						<g>
							
								<rect x="31.7" y="31.7" transform="matrix(0.7071 -0.7071 0.7071 0.7071 -14.4319 34.8428)" fill="#344A5E" width="6.4" height="6.4"/>
						</g>
					</g>
				</g>
				<g>
					<g>
						<path fill="#415A6B" d="M34.5,34.5c-5.1,5.1-13.4,5.1-18.5,0c-5.1-5.1-5.1-13.4,0-18.5s13.4-5.1,18.5,0
							C39.6,21.1,39.6,29.4,34.5,34.5z M18.8,18.8c-3.6,3.6-3.6,9.4,0,13c3.6,3.6,9.4,3.6,13,0c3.6-3.6,3.6-9.4,0-13
							C28.1,15.2,22.3,15.2,18.8,18.8z"/>
					</g>
				</g>
			</g>
			<g>
				<path fill="#F3705A" d="M46.6,39.9l-5.4-5.4l-6.7,6.7l5.4,5.4c1.9,1.9,4.9,1.9,6.7,0C48.5,44.7,48.5,41.7,46.6,39.9z"/>
				<g>
					<g>
						<g>
							
								<rect x="37.7" y="33.6" transform="matrix(-0.7071 -0.7071 0.7071 -0.7071 38.3464 92.5768)" fill="#F05540" width="1.3" height="9.5"/>
						</g>
					</g>
				</g>
				<path fill="#F3705A" d="M41.4,32.8c-0.5-0.5-1.3-0.5-1.8,0l-6.7,6.7c-0.5,0.5-0.5,1.3,0,1.8c0.5,0.5,1.3,0.5,1.8,0l6.7-6.7
					C41.9,34.1,41.9,33.3,41.4,32.8z"/>
			</g>
		</g>
	</g>
</g>
</svg>
