<?xml version="1.0" encoding="utf-8"?>
<!-- Generator: Adobe Illustrator 18.0.0, SVG Export Plug-In . SVG Version: 6.00 Build 0)  -->
<!DOCTYPE svg PUBLIC "-//W3C//DTD SVG 1.1//EN" "http://www.w3.org/Graphics/SVG/1.1/DTD/svg11.dtd">
<svg version="1.1" id="Layer_1" xmlns="http://www.w3.org/2000/svg" xmlns:xlink="http://www.w3.org/1999/xlink" x="0px" y="0px"
	 viewBox="0 0 48 48" enable-background="new 0 0 48 48" xml:space="preserve">
<g>
	<g>
		<g>
			<g>
				<path fill="#F3705A" d="M0.1,25.3l3.5-9.1c0.2-0.6,0.7-0.9,1.3-0.9h9.8c0.7,0,1.4,0.6,1.4,1.4v17.9H1.4C0.6,34.6,0,34,0,33.2
					v-7.5C0,25.6,0,25.4,0.1,25.3z"/>
			</g>
			<polygon fill="#415A6B" points="10.9,17.4 5.4,17.4 2.3,25.1 10.9,25.1 			"/>
		</g>
		<path fill="#66C6B9" d="M16.1,10.8v23.8h29.7c1.2,0,2.2-1,2.2-2.2V10.8c0-1.2-1-2.2-2.2-2.2H18.3C17.1,8.5,16.1,9.5,16.1,10.8z"/>
		<circle fill="#415A6B" cx="8" cy="34.6" r="4.9"/>
		<circle fill="#E8EAE9" cx="8" cy="34.6" r="2.3"/>
		<circle fill="#415A6B" cx="36.1" cy="34.6" r="4.9"/>
		<circle fill="#E8EAE9" cx="36.1" cy="34.6" r="2.3"/>
		<path fill="#FFFFFF" d="M37.4,20.6l-0.5,1.9L35,22l1.3,2.1h-3.1V23l-2.4,2.5l2.4,2.4v-1.1h3.2c0.4,0,0.7-0.2,0.9-0.5l1.5-2.4
			c0.2-0.3,0.2-0.7,0-1.1L37.4,20.6z"/>
		<path fill="#FFFFFF" d="M29.2,25.6l1.3-1.4h-2.7l1.8-3l0.9,0.5l-0.9-3.3l-3.3,0.8l1,0.6l-1.9,3.2c-0.2,0.3-0.2,0.7,0,1.1l1.5,2.4
			c0.2,0.3,0.5,0.5,0.9,0.5h2.8L29.2,25.6z"/>
		<path fill="#FFFFFF" d="M36,18.3l-1.6-2.6c-0.2-0.3-0.5-0.5-0.9-0.5h-2.9c-0.4,0-0.7,0.2-0.9,0.5l-1,1.7l1.8-0.4l0.5,1.9l1-1.7
			l1.5,2.5l-1,0.6L36,21l0.9-3.3L36,18.3z"/>
	</g>
</g>
</svg>
