<?xml version="1.0" encoding="utf-8"?>
<!-- Generator: Adobe Illustrator 18.0.0, SVG Export Plug-In . SVG Version: 6.00 Build 0)  -->
<!DOCTYPE svg PUBLIC "-//W3C//DTD SVG 1.1//EN" "http://www.w3.org/Graphics/SVG/1.1/DTD/svg11.dtd">
<svg version="1.1" id="Layer_1" xmlns="http://www.w3.org/2000/svg" xmlns:xlink="http://www.w3.org/1999/xlink" x="0px" y="0px"
	 viewBox="0 0 48 48" enable-background="new 0 0 48 48" xml:space="preserve">
<g>
	<g>
		<path fill="#E8EAE9" d="M40.8,0H8.3c-1.7,0-3,1.3-3,3v42c0,1.7,1.3,3,3,3h32.6c1.7,0,3-1.3,3-3V3C43.8,1.3,42.5,0,40.8,0z"/>
		<path fill="#415A6B" d="M8.4,12H2.2C1,12,0,11,0,9.8v0c0-1.2,1-2.2,2.2-2.2h6.1c1.2,0,2.2,1,2.2,2.2v0C10.6,11,9.6,12,8.4,12z"/>
		<path fill="#415A6B" d="M8.4,40.4H2.2c-1.2,0-2.2-1-2.2-2.2v0C0,37,1,36,2.2,36h6.1c1.2,0,2.2,1,2.2,2.2v0
			C10.6,39.4,9.6,40.4,8.4,40.4z"/>
		<path fill="#F3705A" d="M47,10.4h-3.2V4.3H47c0.5,0,1,0.4,1,1v4.2C48,10,47.6,10.4,47,10.4z"/>
		<path fill="#8AD7F8" d="M47,19.1h-3.2v-6.2H47c0.5,0,1,0.4,1,1v4.2C48,18.7,47.6,19.1,47,19.1z"/>
		<path fill="#F3705A" d="M47,27.8h-3.2v-6.2H47c0.5,0,1,0.4,1,1v4.2C48,27.4,47.6,27.8,47,27.8z"/>
		<path fill="#8AD7F8" d="M47,36.5h-3.2v-6.2H47c0.5,0,1,0.4,1,1v4.2C48,36,47.6,36.5,47,36.5z"/>
		<g>
			<circle fill="#FFFFFF" cx="24.6" cy="24" r="10.8"/>
			<g>
				<path fill="#F3705A" d="M32.8,29c0-1-0.7-1.9-1.6-2.2c-4.3-1.3-8.9-1.3-13.2,0c-1,0.3-1.6,1.2-1.6,2.2v2c2,2.3,4.9,3.8,8.2,3.8
					s6.2-1.5,8.2-3.8V29z"/>
				<g>
					<circle fill="#F3705A" cx="24.6" cy="19.7" r="4.3"/>
				</g>
			</g>
		</g>
	</g>
</g>
</svg>
