<?xml version="1.0" encoding="utf-8"?>
<!-- Generator: Adobe Illustrator 16.0.0, SVG Export Plug-In . SVG Version: 6.00 Build 0)  -->
<!DOCTYPE svg PUBLIC "-//W3C//DTD SVG 1.1//EN" "http://www.w3.org/Graphics/SVG/1.1/DTD/svg11.dtd">
<svg version="1.1" id="Layer_1" xmlns="http://www.w3.org/2000/svg" xmlns:xlink="http://www.w3.org/1999/xlink" x="0px" y="0px"
	 width="48px" height="48px" viewBox="0 0 48 48" enable-background="new 0 0 48 48" xml:space="preserve">
<g>
	<path fill="#F2F2F2" d="M45.703,47.999H2.298c-1.551,0-2.423-0.839-1.963-1.839l5.754-12.509c0.254-0.554,1.352-0.991,2.455-0.991
		h30.912c1.105,0,2.201,0.438,2.456,0.991l5.754,12.509C48.125,47.16,47.254,47.999,45.703,47.999"/>
	<path fill="#E4EAEF" d="M41.912,33.65c-0.255-0.554-1.351-0.99-2.456-0.99H25.161C24.399,36.995,24,40.22,24,40.22
		s10.166-2.263,18.446-5.408L41.912,33.65z"/>
	<path fill="#84DBFF" d="M39.161,40.746c-2.584,0-4.396,1.266-4.021,2.918l0.985,4.335h2.106l-1.157-4.335
		c-0.273-1.023,0.828-1.827,2.445-1.827h6.156l-0.502-1.091H39.161z"/>
	<path fill="#84DBFF" d="M31.765,38.25c-0.291,0.08-0.57,0.16-0.851,0.24c-0.46,0.101-0.96,0.15-1.489,0.15h-1.82
		c-1.391,0-2.52,0.58-2.68,1.37c-0.021,0.069-0.021,0.14-0.021,0.21L25.054,48h-2.109l0.09-4.38h-7.26
		c-2.74,0-4.609-1.35-4.189-2.909l0.56-2.07H3.794l0.44-0.95h8.17l1.351-5.03h1.5l-1.851,8.051c-0.22,0.939,0.931,1.729,2.569,1.729
		h7.08l0.051-2.22c0.01-0.65,0.439-1.25,1.13-1.69c0.81-0.52,1.989-0.84,3.29-0.84h1.79c1.47,0,2.55-0.65,2.409-1.42l-0.67-3.61h1.5
		l0.811,3.61C33.544,37.08,32.904,37.82,31.765,38.25"/>
	<path fill="#54C0EB" d="M31.765,38.25c-0.291,0.08-0.57,0.16-0.851,0.24c-0.46,0.101-0.96,0.15-1.489,0.15h-1.82
		c-1.391,0-2.52,0.58-2.68,1.37c-0.59,0.14-0.92,0.21-0.92,0.21s0.08-0.62,0.229-1.69c0.81-0.52,1.989-0.84,3.29-0.84h1.79
		c1.47,0,2.55-0.65,2.409-1.42l-0.67-3.61h1.5l0.811,3.61C33.544,37.08,32.904,37.82,31.765,38.25"/>
	<path fill="#FF7058" d="M37.543,13.542c0,7.479-13.542,26.678-13.542,26.678S10.458,21.021,10.458,13.542
		C10.458,6.063,16.521,0,24.001,0C31.479,0,37.543,6.063,37.543,13.542"/>
	<path fill="#FFD15C" d="M32.687,13.542c0,4.797-3.89,8.686-8.687,8.686s-8.687-3.889-8.687-8.686S19.203,4.855,24,4.855
		S32.687,8.745,32.687,13.542"/>
	<path fill="#FFFFFF" d="M30.416,13.542c0,3.543-2.872,6.416-6.416,6.416c-3.543,0-6.416-2.873-6.416-6.416S20.457,7.126,24,7.126
		C27.544,7.126,30.416,9.999,30.416,13.542"/>
</g>
</svg>
