<?xml version="1.0" encoding="utf-8"?>
<!-- Generator: Adobe Illustrator 18.0.0, SVG Export Plug-In . SVG Version: 6.00 Build 0)  -->
<!DOCTYPE svg PUBLIC "-//W3C//DTD SVG 1.1//EN" "http://www.w3.org/Graphics/SVG/1.1/DTD/svg11.dtd">
<svg version="1.1" id="Layer_1" xmlns="http://www.w3.org/2000/svg" xmlns:xlink="http://www.w3.org/1999/xlink" x="0px" y="0px"
	 viewBox="0 0 48 48" enable-background="new 0 0 48 48" xml:space="preserve">
<g>
	<g>
		<path fill="#FFD15C" d="M26.6,17l3.8-4.7l2.2-7h3.3l-2.3,8.3l-4.7,6c0,0-0.7,0.7-2,0.7l-0.7-2.8L26.6,17z"/>
		<path fill="#FFD15C" d="M21.4,17l-3.8-4.7l-2.2-7h-3.3l2.3,8.3l4.7,6c0,0,0.7,0.7,2,0.7l0.7-2.8L21.4,17z"/>
	</g>
	<g>
		<path fill="#FFD15C" d="M32.3,47.8L32.3,47.8c-1.1,0.4-2.3-0.1-2.8-1.2l-4.8-12.7c-0.4-1.1,0.1-2.3,1.2-2.7l0,0
			c1.1-0.4,2.3,0.1,2.7,1.2l4.8,12.7C33.9,46.2,33.4,47.4,32.3,47.8z"/>
		<path fill="#FFD15C" d="M15.8,47.8L15.8,47.8c1.1,0.4,2.3-0.1,2.8-1.2l4.8-12.7c0.4-1.1-0.1-2.3-1.2-2.7l0,0
			c-1.1-0.4-2.3,0.1-2.7,1.2l-4.8,12.7C14.1,46.2,14.7,47.4,15.8,47.8z"/>
	</g>
	<g>
		<path fill="#84DBFF" d="M26.8,39.5h4.5l-2.7-7.1c-0.4-1.1-1.6-1.6-2.7-1.2c-1.1,0.4-1.6,1.6-1.2,2.7L26.8,39.5z"/>
		<path fill="#84DBFF" d="M21.2,39.5l2.1-5.6c0.4-1.1-0.1-2.3-1.2-2.7c-1.1-0.4-2.3,0.1-2.7,1.2l-2.7,7.1H21.2z"/>
	</g>
	<path fill="#FF7058" d="M26.8,16.5h-5.5c0,1.8-0.8,3.5-2.3,3.5v13.8h10.1V20C27.6,20,26.8,18.2,26.8,16.5z"/>
	<path fill="#ACB3BA" d="M42.1,5.6H5.9c-0.5,0-0.8-0.4-0.8-0.8v0c0-0.5,0.4-0.8,0.8-0.8h36.2c0.5,0,0.8,0.4,0.8,0.8v0
		C42.9,5.2,42.5,5.6,42.1,5.6z"/>
	<g>
		<path fill="#40596B" d="M10.6,9.5L10.6,9.5c-0.8,0-1.4-0.6-1.4-1.3V1.3C9.3,0.6,9.8,0,10.6,0l0,0c0.7,0,1.3,0.6,1.3,1.3v6.9
			C11.9,8.9,11.3,9.5,10.6,9.5z"/>
		<path fill="#334A5E" d="M7.9,9.5L7.9,9.5c-0.8,0-1.4-0.6-1.4-1.3V1.3C6.6,0.6,7.2,0,7.9,0l0,0c0.7,0,1.3,0.6,1.3,1.3v6.9
			C9.3,8.9,8.7,9.5,7.9,9.5z"/>
		<path fill="#40596B" d="M37.4,0L37.4,0c0.8,0,1.4,0.6,1.4,1.3v6.9c0,0.7-0.6,1.3-1.3,1.3h0c-0.7,0-1.3-0.6-1.3-1.3V1.3
			C36.1,0.6,36.7,0,37.4,0z"/>
		<path fill="#334A5E" d="M40.1,0L40.1,0c0.8,0,1.4,0.6,1.4,1.3v6.9c0,0.7-0.6,1.3-1.3,1.3h0c-0.7,0-1.3-0.6-1.3-1.3V1.3
			C38.7,0.6,39.3,0,40.1,0z"/>
	</g>
	<path fill="#F8B64C" d="M26.2,16.7c-0.8,0.7-3.7,0.7-4.5,0c-0.4-0.4,0-2.1,0-2.1h4.5C26.2,14.7,26.6,16.3,26.2,16.7z"/>
	<path fill="#40596B" d="M28.8,10.4c0,2.8-2.1,5-4.8,5s-4.8-2.3-4.8-5c0,0,0-4.2,4.8-4.2S28.8,10.4,28.8,10.4z"/>
	<path fill="#FFD15C" d="M28.3,10.1c0-1.4-1.4-2.4-2.8-2.1C25,8.1,24.5,8.2,24,8.2s-1-0.1-1.4-0.2c-1.4-0.4-2.8,0.6-2.8,2.1
		c0,0,0,1.9,0,1.9c0,2.4,1.9,4.4,4.2,4.4s4.2-2,4.2-4.4C28.3,12,28.3,10.1,28.3,10.1z"/>
	<path fill="#FFD15C" d="M28.6,11c-0.3-0.1-0.5,0-0.6,0.3l-0.5,1.4c-0.1,0.3,0,0.5,0.3,0.6c0.3,0.1,0.5,0,0.6-0.3l0.5-1.4
		C29,11.4,28.9,11.1,28.6,11z"/>
	<path fill="#FFD15C" d="M19.4,11c0.3-0.1,0.5,0,0.6,0.3l0.5,1.4c0.1,0.3,0,0.5-0.3,0.6c-0.3,0.1-0.5,0-0.6-0.3l-0.5-1.4
		C19,11.4,19.2,11.1,19.4,11z"/>
	<g>
		<g>
			<circle fill="#F2F2F2" cx="22.3" cy="11" r="0.7"/>
			<circle fill="#40596B" cx="22.3" cy="11" r="0.4"/>
			<circle fill="#FFFFFF" cx="22" cy="10.8" r="0.2"/>
		</g>
		<g>
			<circle fill="#F2F2F2" cx="25.8" cy="11" r="0.7"/>
			<circle fill="#40596B" cx="25.8" cy="11" r="0.4"/>
			<circle fill="#FFFFFF" cx="25.5" cy="10.8" r="0.2"/>
		</g>
	</g>
	<path fill="#FFFFFF" d="M22.6,13.5c0,0.6,0.5,1,1,1h0.8c0.6,0,1-0.5,1-1H22.6z"/>
</g>
</svg>
