<?xml version="1.0" encoding="utf-8"?>
<!-- Generator: Adobe Illustrator 20.1.0, SVG Export Plug-In . SVG Version: 6.00 Build 0)  -->
<!DOCTYPE svg PUBLIC "-//W3C//DTD SVG 1.1//EN" "http://www.w3.org/Graphics/SVG/1.1/DTD/svg11.dtd">
<svg version="1.1" id="Layer_1" xmlns="http://www.w3.org/2000/svg" xmlns:xlink="http://www.w3.org/1999/xlink" x="0px" y="0px"
	 viewBox="0 0 49 49" enable-background="new 0 0 49 49" xml:space="preserve">
<g>
	<path fill="#FF7058" d="M42.3,22.7v23.2c0,1.4-1.2,2.6-2.6,2.6H9.2c-1.4,0-2.6-1.2-2.6-2.6V22.7L24.5,4.9L42.3,22.7z"/>
	<polyline fill="#F1543F" points="24.5,9.1 6.6,27 6.6,22.7 24.5,4.9 42.3,22.7 42.3,27 	"/>
	<polygon fill="#FFFFFF" points="29.2,16.2 25.3,16.2 25.3,13 23.7,13 23.7,16.2 19.8,16.2 19.8,17.9 23.7,17.9 23.7,24.5 
		25.3,24.5 25.3,17.9 29.2,17.9 	"/>
	<path fill="#FFD15C" d="M45.7,27.1c-0.7,0-1.4-0.3-1.9-0.8L24.5,7L5.2,26.3c-1.1,1.1-2.8,1.1-3.8,0c-1.1-1.1-1.1-2.8,0-3.8
		L22.6,1.3c1-1,2.8-1,3.8,0l21.2,21.2c1.1,1.1,1.1,2.8,0,3.8C47.1,26.8,46.4,27.1,45.7,27.1z"/>
	<g>
		<path fill="#40596B" d="M31,38.9v9.5H18v-9.5c0-3.6,2.9-6.5,6.5-6.5l0,0C28.1,32.4,31,35.3,31,38.9z"/>
	</g>
</g>
</svg>
