<?xml version="1.0" encoding="utf-8"?>
<!-- Generator: Adobe Illustrator 16.0.0, SVG Export Plug-In . SVG Version: 6.00 Build 0)  -->
<!DOCTYPE svg PUBLIC "-//W3C//DTD SVG 1.1//EN" "http://www.w3.org/Graphics/SVG/1.1/DTD/svg11.dtd">
<svg version="1.1" id="Layer_1" xmlns="http://www.w3.org/2000/svg" xmlns:xlink="http://www.w3.org/1999/xlink" x="0px" y="0px"
	 width="48px" height="48px" viewBox="0 0 48 48" enable-background="new 0 0 48 48" xml:space="preserve">
<g>
	<path fill="#FFD15C" d="M28.61,11.816h-3.949c-2.642,0-5.062-0.925-6.815-2.604c-0.853-0.817-1.866-2.083-1.866-3.486
		c0-0.84,0.379-1.563,1.066-2.038c1.217-0.839,3.31-0.816,5.604,0.055c3.302,1.255,5.96,4.896,5.96,7.073V11.816z M19.372,5.073
		c-0.548,0-0.957,0.102-1.189,0.262c-0.148,0.101-0.203,0.208-0.203,0.391c0,0.409,0.328,1.159,1.249,2.041
		c1.38,1.322,3.31,2.049,5.433,2.049h1.666c-0.644-1.397-2.324-3.42-4.388-4.204C20.924,5.226,20.043,5.073,19.372,5.073"/>
	<path fill="#FFD15C" d="M30.25,11.816h-3.949v-1c0-2.178,2.658-5.818,5.96-7.073c2.294-0.871,4.39-0.893,5.604-0.055
		c0.688,0.475,1.066,1.198,1.066,2.038c0,1.402-1.014,2.669-1.865,3.485C35.313,10.891,32.891,11.816,30.25,11.816 M28.584,9.816
		h1.666c2.124,0,4.053-0.728,5.434-2.05c0.92-0.882,1.248-1.632,1.248-2.04c0-0.183-0.055-0.29-0.201-0.391
		c-0.52-0.357-1.918-0.423-3.759,0.277C30.909,6.396,29.229,8.419,28.584,9.816"/>
	<path fill="#F2F2F2" d="M46.588,43.693H7.381c-1.039,0-1.882-0.843-1.882-1.882V4.432L0.991,2.761
		c-0.658-0.244-1.102-0.92-0.967-1.609c0.174-0.88,1.078-1.363,1.881-1.063l5.113,1.895c0.785,0.29,1.305,1.038,1.305,1.875V40.87
		h38.266c0.78,0,1.412,0.632,1.412,1.411C48,43.061,47.369,43.693,46.588,43.693"/>
	<path fill="#FF7058" d="M41.185,13.051H13.727c-1.657,0-3,1.343-3,3v21.818c0,1.657,1.343,3,3,3h27.458c1.657,0,3-1.343,3-3V16.051
		C44.185,14.394,42.842,13.051,41.185,13.051"/>
	<path fill="#F1543F" d="M45.368,20.414v-6.197c0-1.657-1.344-3-3-3H12.543c-1.656,0-3,1.343-3,3v6.197H45.368z"/>
	<path fill="#40596B" d="M17.375,43.885c0,2.272-1.843,4.115-4.115,4.115s-4.114-1.843-4.114-4.115s1.842-4.115,4.114-4.115
		S17.375,41.613,17.375,43.885"/>
	<path fill="#E8EAEA" d="M15.01,43.885c0,0.966-0.784,1.75-1.75,1.75c-0.967,0-1.75-0.784-1.75-1.75s0.783-1.75,1.75-1.75
		C14.226,42.135,15.01,42.919,15.01,43.885"/>
	<path fill="#40596B" d="M45.566,43.885c0,2.272-1.842,4.115-4.115,4.115c-2.271,0-4.114-1.843-4.114-4.115s1.843-4.115,4.114-4.115
		C43.724,39.77,45.566,41.613,45.566,43.885"/>
	<path fill="#E8EAEA" d="M43.202,43.885c0,0.966-0.783,1.75-1.75,1.75s-1.75-0.784-1.75-1.75s0.783-1.75,1.75-1.75
		S43.202,42.919,43.202,43.885"/>
	<rect x="25.354" y="11.216" fill="#FFD15C" width="4.205" height="29.653"/>
</g>
</svg>
