<?xml version="1.0" encoding="utf-8"?>
<!-- Generator: Adobe Illustrator 18.0.0, SVG Export Plug-In . SVG Version: 6.00 Build 0)  -->
<!DOCTYPE svg PUBLIC "-//W3C//DTD SVG 1.1//EN" "http://www.w3.org/Graphics/SVG/1.1/DTD/svg11.dtd">
<svg version="1.1" id="Layer_1" xmlns="http://www.w3.org/2000/svg" xmlns:xlink="http://www.w3.org/1999/xlink" x="0px" y="0px"
	 viewBox="0 0 48 48" enable-background="new 0 0 48 48" xml:space="preserve">
<g>
	<path fill="#40596B" d="M42.1,4.9H5.9c-1.1,0-2,0.9-2,2V46c0,1.1,0.9,2,2,2h36.1c1.1,0,2-0.9,2-2V6.9C44.1,5.8,43.2,4.9,42.1,4.9z"
		/>
	<polygon fill="#F2F2F2" points="40.1,8.9 7.9,8.9 7.9,44 33.5,44 40.1,37.5 	"/>
	<polygon fill="#CDD6E0" points="33.5,44 40.1,37.5 33.5,37.5 	"/>
	<rect x="11.2" y="14.2" fill="#CDD6E0" width="25.6" height="2.5"/>
	<rect x="11.2" y="22.3" fill="#CDD6E0" width="25.6" height="2.5"/>
	<rect x="11.2" y="30.4" fill="#CDD6E0" width="25.6" height="2.5"/>
	<rect x="11.2" y="38.5" fill="#FFD15C" width="13.7" height="2.5"/>
	<path fill="#FF7058" d="M31.2,3h-3.6c-0.3-1.7-1.8-3-3.6-3c-1.8,0-3.3,1.3-3.6,3h-3.6c-1.1,0-2,0.9-2,2v5.5h18.4V5
		C33.2,3.9,32.3,3,31.2,3z"/>
	<circle fill="#FFFFFF" cx="24" cy="3.7" r="2"/>
</g>
</svg>
