<?xml version="1.0" encoding="utf-8"?>
<!-- Generator: Adobe Illustrator 18.0.0, SVG Export Plug-In . SVG Version: 6.00 Build 0)  -->
<!DOCTYPE svg PUBLIC "-//W3C//DTD SVG 1.1//EN" "http://www.w3.org/Graphics/SVG/1.1/DTD/svg11.dtd">
<svg version="1.1" id="Layer_1" xmlns="http://www.w3.org/2000/svg" xmlns:xlink="http://www.w3.org/1999/xlink" x="0px" y="0px"
	 viewBox="0 0 48 48" enable-background="new 0 0 48 48" xml:space="preserve">
<g>
	<polygon fill="#E8EAE9" points="24,29.8 24,48 17.6,28 	"/>
	<rect x="19.2" y="22" fill="#F7B64C" width="9.6" height="9"/>
	<g>
		<path fill="#415A6B" d="M24,0L24,0c-5.1,0-9.2,4.1-9.2,9.2V14c0,4.9,4,8.8,8.8,8.8h0.7c4.9,0,8.8-4,8.8-8.8V9.2
			C33.2,4.1,29.1,0,24,0z"/>
		<path fill="#FFD15C" d="M26.6,7.1c-2.1,4.6-8.6,5.7-10.6,5.9v4.9c0,4.4,3.6,8,8,8s8-3.6,8-8v-5.8C27.9,11.1,26.6,7.1,26.6,7.1z"/>
	</g>
	<polygon fill="#F3F3F3" points="19.2,25.2 24,29.8 20.8,34.9 17.6,28 	"/>
	<path fill="#344A5E" d="M17.6,28l-8,3.4c-1.8,0.8-3.1,2.4-3.5,4.3L3.6,48H24L17.6,28z"/>
	<polygon fill="#415A6B" points="17.6,28 24,48 15.2,38.3 16.9,36 14,35.8 15.2,29 	"/>
	<polygon fill="#E8EAE9" points="24,29.8 24,48 30.4,28 	"/>
	<polygon fill="#F3F3F3" points="28.8,25.2 24,29.8 27.2,34.9 30.4,28 	"/>
	<path fill="#344A5E" d="M30.4,28l8,3.4c1.8,0.8,3.1,2.4,3.5,4.3L44.4,48H24L30.4,28z"/>
	<polygon fill="#415A6B" points="30.4,28 24,48 32.8,38.3 31.1,36 34,35.8 32.8,29 	"/>
	<polygon fill="#F3705A" points="26.6,33.8 24,29.8 21.4,33.8 22.7,34.9 21.4,39.9 24,48 26.6,39.9 25.3,34.9 	"/>
</g>
</svg>
