<?xml version="1.0" encoding="utf-8"?>
<!-- Generator: Adobe Illustrator 18.0.0, SVG Export Plug-In . SVG Version: 6.00 Build 0)  -->
<!DOCTYPE svg PUBLIC "-//W3C//DTD SVG 1.1//EN" "http://www.w3.org/Graphics/SVG/1.1/DTD/svg11.dtd">
<svg version="1.1" id="Layer_1" xmlns="http://www.w3.org/2000/svg" xmlns:xlink="http://www.w3.org/1999/xlink" x="0px" y="0px"
	 viewBox="0 0 48 48" enable-background="new 0 0 48 48" xml:space="preserve">
<g>
	<path fill="#84DBFF" d="M1.6,26.1c0,0,3.1-2.2,6.8-11.1c0,0,3.6-7.3,14.7-8.6c6.3-0.7,12.6,1.8,16.1,7.1c1.2,1.7,2,3.7,2.1,5.8
		c0,0,2,10.2-3.8,15.2c0,0-6.4,7.1-19.4,4.2c0,0-5.2-1.7-8.1-4.1c-1.2-0.9-2.3-1.8-3.7-2.5c-1.1-0.6-2.6-1.3-4.7-2.2
		c0,0-0.2-1.2,1.3-1.2c0,0-2.9,0.2-2.9-1.6C0,27.2,0.9,26.6,1.6,26.1z"/>
	<path fill="#FF7058" d="M38.3,2.2c0.6,0.1,0.5,1-0.1,1c-3,0-5.8,0.6-5.7,3c0,0.6,0.1,1.2,0.2,1.7c-2.9-1.4-6.3-2-9.7-1.6
		c-3,0.3-5.4,1.1-7.4,2.1C19,5.8,27.1,0.6,38.3,2.2z"/>
	<path fill="#FF7058" d="M27.6,46.1c-6.6-1.8-12.1-6.8-14.5-9.4c2.5,1.3,4.9,2.1,4.9,2.1c2.6,0.6,4.9,0.8,7,0.7
		c0,2.6,1.6,4.4,3.2,5.6C28.7,45.4,28.3,46.3,27.6,46.1z"/>
	<path fill="#FF7058" d="M46.3,34.2l-6.2-3.3c2.3-4.9,1.2-11.1,1.1-11.6l5.3-3c0.8-0.5,1.8,0.4,1.4,1.2c-1.5,3.4-3.1,9.3-0.3,15.3
		C48.1,33.7,47.1,34.6,46.3,34.2z"/>
	<path fill="#54C0EB" d="M19,29.3c0-6.7-4.7-12.3-10.9-13.8c-3.6,8.4-6.5,10.6-6.5,10.6C0.9,26.6,0,27.2,0,27.2
		c0,1.8,2.9,1.6,2.9,1.6c-1.6,0-1.3,1.2-1.3,1.2c2,0.9,3.5,1.6,4.7,2.2c1.3,0.7,2.5,1.6,3.7,2.5c1.8,1.4,4.4,2.6,6.2,3.4
		C17.9,35.6,19,32.6,19,29.3z"/>
	<circle fill="#F2F2F2" cx="10.8" cy="21.9" r="2.3"/>
	<circle fill="#54C0EB" cx="10.8" cy="21.9" r="1.5"/>
	<circle fill="#FFFFFF" cx="9.8" cy="20.9" r="0.5"/>
	<g>
		<path fill="#F2F2F2" d="M24.4,14c0,1-0.4,1.9-1.1,2.7c-0.5,0.5-0.7,1.1-0.7,1.7c0,0.7,0.3,1.3,0.7,1.7c1.5,1.5,1.5,3.9,0,5.4
			c-0.5,0.5-0.7,1.1-0.7,1.7c0,0.7,0.3,1.3,0.7,1.7c1.5,1.5,1.5,3.9,0,5.4c-0.3,0.3-0.7,0.3-1,0c-0.3-0.3-0.3-0.7,0-1
			c1-1,1-2.5,0-3.5c-0.7-0.7-1.1-1.7-1.1-2.7c0-1,0.4-2,1.1-2.7c1-1,1-2.5,0-3.5c-0.7-0.7-1.1-1.7-1.1-2.7c0-1,0.4-2,1.1-2.7
			c1-1,1-2.5,0-3.5c-0.3-0.3-0.3-0.7,0-1s0.7-0.3,1,0C24,12,24.4,13,24.4,14z"/>
		<path fill="#F2F2F2" d="M26.2,33.4c1-1,1-2.5,0-3.5c-0.7-0.7-1.1-1.7-1.1-2.7c0-1,0.4-2,1.1-2.7c1-1,1-2.5,0-3.5
			c-0.7-0.7-1.1-1.7-1.1-2.7c0-1,0.4-2,1.1-2.7c0.5-0.5,0.7-1.1,0.7-1.7c0-0.7-0.3-1.3-0.7-1.7c-0.3-0.3-0.3-0.7,0-1
			c0.3-0.3,0.7-0.3,1,0c0.7,0.7,1.1,1.7,1.1,2.7c0,1-0.4,2-1.1,2.7c-1,1-1,2.5,0,3.5c1.5,1.5,1.5,3.9,0,5.4c-1,1-1,2.5,0,3.5
			c1.5,1.5,1.5,3.9,0,5.4c-0.3,0.3-0.7,0.3-1,0C25.9,34.1,25.9,33.7,26.2,33.4z"/>
	</g>
</g>
</svg>
