<?xml version="1.0" encoding="utf-8"?>
<!-- Generator: Adobe Illustrator 18.0.0, SVG Export Plug-In . SVG Version: 6.00 Build 0)  -->
<!DOCTYPE svg PUBLIC "-//W3C//DTD SVG 1.1//EN" "http://www.w3.org/Graphics/SVG/1.1/DTD/svg11.dtd">
<svg version="1.1" id="Layer_1" xmlns="http://www.w3.org/2000/svg" xmlns:xlink="http://www.w3.org/1999/xlink" x="0px" y="0px"
	 viewBox="0 0 48 48" enable-background="new 0 0 48 48" xml:space="preserve">
<g>
	<path fill="#F2F2F2" d="M20.8,14.4v21.4h-4.1c0.1-0.4,0.2-0.9,0.2-1.3c0-0.5-0.1-0.9-0.2-1.3c-0.6-2.7-3-4.7-5.9-4.7
		s-5.3,2-5.9,4.7c-0.1,0.4-0.2,0.9-0.2,1.3c0,0.5,0.1,0.9,0.2,1.3H0.8v-6.1c0-1,0.5-1.9,1.3-2.4l3.5-2.4c0.8-0.5,1.3-1.4,1.3-2.4
		c0-0.1,0-0.1,0-0.2c0.1-4.4,3.7-7.9,8.1-7.9H20.8z"/>
	<path fill="#54C0EB" d="M18.8,23.3v-6.9H15c-3.3,0-6.1,2.7-6.1,5.9l0,0.2c0,0.3,0,0.5-0.1,0.8H18.8z"/>
	<path fill="#FFD15C" d="M47.2,10.8v25h-3.4c0.1-0.4,0.2-0.9,0.2-1.3c0-0.5-0.1-0.9-0.2-1.3c-0.6-2.7-3-4.7-5.9-4.7
		c-2.9,0-5.3,2-5.9,4.7c-0.1,0.4-0.2,0.9-0.2,1.3c0,0.5,0.1,0.9,0.2,1.3H20.8v-25c0-1.2,1-2.2,2.2-2.2h22
		C46.2,8.6,47.2,9.6,47.2,10.8z"/>
	<rect x="24.8" y="12.6" fill="#40596B" width="18.4" height="9.1"/>
	<path fill="#FF7058" d="M4.9,33.1c-0.1,0.4-0.2,0.9-0.2,1.3c0,0.5,0.1,0.9,0.2,1.3H1.3c-0.7,0-1.3-0.6-1.3-1.3l0,0
		c0-0.7,0.6-1.3,1.3-1.3H4.9z"/>
	<path fill="#FF7058" d="M31.8,34.5c0,0.5,0.1,0.9,0.2,1.3H16.7c0.1-0.4,0.2-0.9,0.2-1.3c0-0.5-0.1-0.9-0.2-1.3H32
		C31.9,33.5,31.8,34,31.8,34.5z"/>
	<path fill="#FF7058" d="M48,34.5L48,34.5c0,0.7-0.6,1.3-1.3,1.3h-2.9c0.1-0.4,0.2-0.9,0.2-1.3c0-0.5-0.1-0.9-0.2-1.3h2.9
		C47.4,33.1,48,33.7,48,34.5z"/>
	<circle fill="#40596B" cx="10.8" cy="34.5" r="5"/>
	<circle fill="#40596B" cx="37.9" cy="34.5" r="5"/>
	<circle fill="#FFFFFF" cx="37.9" cy="34.5" r="2"/>
	<circle fill="#FFFFFF" cx="10.8" cy="34.5" r="2"/>
	<path fill="#FF7058" d="M19,14.4h-3.3v-1c0-0.9,0.7-1.6,1.6-1.6h0c0.9,0,1.6,0.7,1.6,1.6V14.4z"/>
</g>
</svg>
