<?xml version="1.0" encoding="utf-8"?>
<!-- Generator: Adobe Illustrator 20.1.0, SVG Export Plug-In . SVG Version: 6.00 Build 0)  -->
<!DOCTYPE svg PUBLIC "-//W3C//DTD SVG 1.1//EN" "http://www.w3.org/Graphics/SVG/1.1/DTD/svg11.dtd">
<svg version="1.1" id="Layer_1" xmlns="http://www.w3.org/2000/svg" xmlns:xlink="http://www.w3.org/1999/xlink" x="0px" y="0px"
	 viewBox="0 0 49 49" enable-background="new 0 0 49 49" xml:space="preserve">
<g>
	<path fill="#40596B" d="M48.5,2.1c0-0.9-0.7-1.6-1.6-1.6H2.5c-1.1,0-2,0.9-2,2v30.8h48V2.1z"/>
	<path fill="#CDD6E0" d="M0.5,33.3v3.8c0,1.1,0.9,2,2,2h44c1.1,0,2-0.9,2-2v-3.8H0.5z"/>
	<circle fill="#F2F2F2" cx="44.2" cy="36.2" r="1.1"/>
	<circle fill="#F2F2F2" cx="39.8" cy="36.2" r="1.1"/>
	<polygon fill="#ACB3BA" points="34.5,45 14.5,45 16.7,40.6 17.3,39.1 31.7,39.1 32.3,40.6 	"/>
	<path fill="#CDD6E0" d="M36.2,45H12.8c-1,0-1.8,0.8-1.8,1.8c0,1,0.8,1.8,1.8,1.8h23.4c1,0,1.8-0.8,1.8-1.8C38,45.8,37.2,45,36.2,45
		z"/>
	<polygon fill="#9EACB7" points="32.3,40.6 16.7,40.6 17.3,39.1 31.7,39.1 	"/>
	<rect x="3.7" y="3.4" fill="#FFFFFF" width="41.6" height="26.9"/>
	<rect x="24.7" y="7.4" fill="#CDD6E0" width="15.4" height="2.5"/>
	<rect x="24.7" y="11.6" fill="#CDD6E0" width="15.4" height="2.5"/>
	<rect x="9" y="19.8" fill="#CDD6E0" width="15.4" height="2.5"/>
	<rect x="9" y="23.9" fill="#CDD6E0" width="15.4" height="2.5"/>
	<rect x="8.8" y="6.4" fill="#FFD15C" width="13.7" height="8.7"/>
	<rect x="26.5" y="18.8" fill="#FF7058" width="13.7" height="8.7"/>
</g>
</svg>
