<?xml version="1.0" encoding="utf-8"?>
<!-- Generator: Adobe Illustrator 18.0.0, SVG Export Plug-In . SVG Version: 6.00 Build 0)  -->
<!DOCTYPE svg PUBLIC "-//W3C//DTD SVG 1.1//EN" "http://www.w3.org/Graphics/SVG/1.1/DTD/svg11.dtd">
<svg version="1.1" id="Layer_1" xmlns="http://www.w3.org/2000/svg" xmlns:xlink="http://www.w3.org/1999/xlink" x="0px" y="0px"
	 viewBox="0 0 48 48" enable-background="new 0 0 48 48" xml:space="preserve">
<g>
	<g>
		<g>
			<g>
				<g>
					<rect x="21.9" y="35.7" fill="#E8EAE9" width="4.2" height="4.7"/>
				</g>
				<g>
					<rect y="41.4" fill="#E8EAE9" width="48" height="4.2"/>
				</g>
				<g>
					<circle fill="#415A6B" cx="24" cy="43.6" r="4.4"/>
				</g>
			</g>
			<polygon fill="#FFD15C" points="38.1,35.9 38.1,20 24,5.9 9.9,20 9.9,35.9 			"/>
			<g>
				<path fill="#F3705A" d="M38.7,21.2L24,6.4L9.3,21.2c-1,1-2.7,1-3.8,0l0,0c-1-1-1-2.7,0-3.8L22.1,0.8c1-1,2.7-1,3.8,0l16.6,16.6
					c1,1,1,2.7,0,3.8l0,0C41.4,22.2,39.7,22.2,38.7,21.2z"/>
			</g>
			<g>
				<rect x="16.4" y="18.7" fill="#415A6B" width="15.3" height="13.1"/>
			</g>
		</g>
		<rect x="18" y="20.3" fill="#8AD7F8" width="5.3" height="9.9"/>
		<rect x="24.8" y="20.3" fill="#8AD7F8" width="5.2" height="9.9"/>
	</g>
</g>
</svg>
