<?xml version="1.0" encoding="utf-8"?>
<!-- Generator: Adobe Illustrator 18.0.0, SVG Export Plug-In . SVG Version: 6.00 Build 0)  -->
<!DOCTYPE svg PUBLIC "-//W3C//DTD SVG 1.1//EN" "http://www.w3.org/Graphics/SVG/1.1/DTD/svg11.dtd">
<svg version="1.1" id="Layer_1" xmlns="http://www.w3.org/2000/svg" xmlns:xlink="http://www.w3.org/1999/xlink" x="0px" y="0px"
	 viewBox="0 0 48 48" enable-background="new 0 0 48 48" xml:space="preserve">
<g>
	<g>
		<path fill="#8AD7F8" d="M39.7,27.1v8.4c0,0-14.4,0.9-14.4,12.5h-2.7c0-11.6-14.4-12.5-14.4-12.5v-8.4
			C18.9,30.4,29.4,30.5,39.7,27.1z"/>
		<g>
			<g>
				<path fill="#55C0EB" d="M8.3,27.1L8.3,27.1v2.4c5.4,1.6,10.7,2.4,15.9,2.4c5.2,0,10.4-0.8,15.5-2.4v-2.4
					C29.4,30.5,18.9,30.4,8.3,27.1z"/>
			</g>
		</g>
	</g>
	<g>
		<g>
			<path fill="#8AD7F8" d="M38.7,11.7L38.7,11.7l0-11.7h-1.8c-0.2,5.5-3.2,10.6-8.1,13.1c-0.3,0.2-0.7,0.4-1,0.5
				c-2.4,1.4-5.2,1.4-7.6,0c-0.3-0.2-0.7-0.4-1-0.5c-4.9-2.6-7.9-7.6-8.1-13.1H9.3v11.6l0,0c-1,1.6-1.6,3.5-1.3,5.6
				c0.5,4,3.9,7.2,7.9,7.4c3.7,0.2,6.8-2,8.1-5.1c1.3,3.1,4.5,5.3,8.1,5.1c4-0.2,7.4-3.4,7.9-7.4C40.3,15.2,39.7,13.2,38.7,11.7z"/>
		</g>
		<g>
			<path fill="#55C0EB" d="M23.6,20.2c0.1-0.2,0.3-0.5,0.4-0.7C23.9,19.8,23.8,20,23.6,20.2z"/>
			<path fill="#55C0EB" d="M23.6,20.2c-1.4,2.6-4.1,4.4-7.3,4.4c-4.6,0-8.4-3.8-8.4-8.4c0-0.2,0-0.5,0-0.7c0.4,4.3,4,7.7,8.4,7.7
				C19.5,23.3,22.2,22.7,23.6,20.2z"/>
			<path fill="#55C0EB" d="M24,19.5c0.1,0.2,0.2,0.5,0.4,0.7C24.2,20,24.1,19.8,24,19.5z"/>
			<path fill="#55C0EB" d="M40.1,16.3c0,4.6-3.8,8.4-8.4,8.4c-3.2,0-5.9-1.8-7.3-4.4c1.4,2.4,4.1,3.1,7.3,3.1c4.4,0,8-3.4,8.4-7.7
				C40.1,15.8,40.1,16.1,40.1,16.3z"/>
		</g>
	</g>
</g>
</svg>
