<?xml version="1.0" encoding="utf-8"?>
<!-- Generator: Adobe Illustrator 18.0.0, SVG Export Plug-In . SVG Version: 6.00 Build 0)  -->
<!DOCTYPE svg PUBLIC "-//W3C//DTD SVG 1.1//EN" "http://www.w3.org/Graphics/SVG/1.1/DTD/svg11.dtd">
<svg version="1.1" id="Layer_1" xmlns="http://www.w3.org/2000/svg" xmlns:xlink="http://www.w3.org/1999/xlink" x="0px" y="0px"
	 viewBox="0 0 48 48" enable-background="new 0 0 48 48" xml:space="preserve">
<g>
	<rect x="0" y="0" fill="#ACB3BA" width="8.9" height="8.9"/>
	<rect x="39.1" y="0" fill="#ACB3BA" width="8.9" height="8.9"/>
	<rect x="0" y="39.1" fill="#ACB3BA" width="8.9" height="8.9"/>
	<rect x="39.1" y="39.1" fill="#ACB3BA" width="8.9" height="8.9"/>
	<circle fill="#FFD15C" cx="24" cy="24" r="16.4"/>
	<g>
		<rect x="8.9" y="3.9" fill="#CDD6E0" width="2" height="1"/>
		<rect x="14.6" y="3.9" fill="#CDD6E0" width="3.8" height="1"/>
		<rect x="22.1" y="3.9" fill="#CDD6E0" width="3.8" height="1"/>
		<rect x="29.6" y="3.9" fill="#CDD6E0" width="3.8" height="1"/>
		<rect x="37.1" y="3.9" fill="#CDD6E0" width="2" height="1"/>
		<rect x="8.9" y="43.1" fill="#CDD6E0" width="2" height="1"/>
		<rect x="14.6" y="43.1" fill="#CDD6E0" width="3.8" height="1"/>
		<rect x="22.1" y="43.1" fill="#CDD6E0" width="3.8" height="1"/>
		<rect x="29.6" y="43.1" fill="#CDD6E0" width="3.8" height="1"/>
		<rect x="37.1" y="43.1" fill="#CDD6E0" width="2" height="1"/>
		<rect x="43.1" y="8.9" fill="#CDD6E0" width="1" height="2"/>
		<rect x="43.1" y="22.1" fill="#CDD6E0" width="1" height="3.8"/>
		<rect x="43.1" y="14.6" fill="#CDD6E0" width="1" height="3.8"/>
		<rect x="43.1" y="29.6" fill="#CDD6E0" width="1" height="3.8"/>
		<rect x="43.1" y="37.1" fill="#CDD6E0" width="1" height="2"/>
		<rect x="3.9" y="8.9" fill="#CDD6E0" width="1" height="2"/>
		<rect x="3.9" y="29.6" fill="#CDD6E0" width="1" height="3.8"/>
		<rect x="3.9" y="14.6" fill="#CDD6E0" width="1" height="3.8"/>
		<rect x="3.9" y="22.1" fill="#CDD6E0" width="1" height="3.8"/>
		<rect x="3.9" y="37.1" fill="#CDD6E0" width="1" height="2"/>
	</g>
	<rect x="2.4" y="2.4" fill="#F2F2F2" width="4" height="4"/>
	<rect x="41.6" y="2.4" fill="#F2F2F2" width="4" height="4"/>
	<rect x="2.4" y="41.6" fill="#F2F2F2" width="4" height="4"/>
	<rect x="41.6" y="41.6" fill="#F2F2F2" width="4" height="4"/>
	<path fill="#F2F2F2" d="M34.2,23.6L24.9,10v12.1c0.6,0.3,1.1,1,1.1,1.7c0,1.1-0.9,2-2,2c-1.1,0-2-0.9-2-2c0-0.8,0.5-1.4,1.1-1.7V10
		l-9.3,13.7l3.9,10h12.5L34.2,23.6z"/>
	<path fill="#40596B" d="M24.9,22.1V9.7c0-0.5-0.4-0.9-0.9-0.9h0c-0.5,0-0.9,0.4-0.9,0.9v12.4c-0.8,0.4-1.3,1.3-1,2.2
		c0.2,0.7,0.8,1.3,1.5,1.5c1.3,0.3,2.4-0.7,2.4-1.9C26,23.1,25.5,22.4,24.9,22.1z"/>
	<rect x="17.8" y="33.7" fill="#84DBFF" width="12.5" height="2"/>
	<path fill="#40596B" d="M31.7,35.7v2.8c-2.3,1.2-4.9,1.9-7.7,1.9c-2.8,0-5.4-0.7-7.7-1.9v-2.8H31.7z"/>
</g>
</svg>
