<?xml version="1.0" encoding="utf-8"?>
<!-- Generator: Adobe Illustrator 20.1.0, SVG Export Plug-In . SVG Version: 6.00 Build 0)  -->
<!DOCTYPE svg PUBLIC "-//W3C//DTD SVG 1.1//EN" "http://www.w3.org/Graphics/SVG/1.1/DTD/svg11.dtd">
<svg version="1.1" id="Layer_1" xmlns="http://www.w3.org/2000/svg" xmlns:xlink="http://www.w3.org/1999/xlink" x="0px" y="0px"
	 viewBox="0 0 49 49" enable-background="new 0 0 49 49" xml:space="preserve">
<g>
	<path fill="#FFD15C" d="M17,9.2v3.4h15V9.2c0-0.9,0.3-1.7,0.9-2.4c0.4-0.5,0.7-1.1,0.7-1.7c0-2.5-4.1-4.6-9.1-4.6s-9.1,2.1-9.1,4.6
		c0,0.6,0.2,1.2,0.7,1.7C16.6,7.5,17,8.3,17,9.2z"/>
	<path fill="#40596B" d="M46.5,39.7h-44c-1.1,0-2,0.9-2,2v2.9c0,1.1,0.9,2,2,2h44c1.1,0,2-0.9,2-2v-2.9
		C48.5,40.6,47.6,39.7,46.5,39.7z"/>
	<rect x="5.2" y="46.6" fill="#ACB3BA" width="4.7" height="1.9"/>
	<rect x="39.2" y="46.6" fill="#ACB3BA" width="4.7" height="1.9"/>
	<path fill="#F2F2F2" d="M43.4,12.6H5.6c-1.1,0-2,0.9-2,2v25.1h41.9V14.6C45.4,13.5,44.5,12.6,43.4,12.6z"/>
	<rect x="3.6" y="17" fill="#84DBFF" width="41.9" height="6.8"/>
	<rect x="5.2" y="46.6" fill="#9AA7AF" width="4.7" height="1"/>
	<rect x="39.2" y="46.6" fill="#9AA7AF" width="4.7" height="1"/>
	<circle fill="#FFFFFF" cx="34.2" cy="20.4" r="1.8"/>
	<circle fill="#FF7058" cx="40.1" cy="20.4" r="1.8"/>
	<path fill="#40596B" d="M47.4,25h-2v2.1h2c0.6,0,1.1-0.5,1.1-1.1S48,25,47.4,25z"/>
</g>
</svg>
