<?xml version="1.0" encoding="utf-8"?>
<!-- Generator: Adobe Illustrator 18.0.0, SVG Export Plug-In . SVG Version: 6.00 Build 0)  -->
<!DOCTYPE svg PUBLIC "-//W3C//DTD SVG 1.1//EN" "http://www.w3.org/Graphics/SVG/1.1/DTD/svg11.dtd">
<svg version="1.1" id="Layer_1" xmlns="http://www.w3.org/2000/svg" xmlns:xlink="http://www.w3.org/1999/xlink" x="0px" y="0px"
	 viewBox="0 0 48 48" enable-background="new 0 0 48 48" xml:space="preserve">
<g>
	<g>
		<path fill="#ACB3BA" d="M21.5,47.9h-0.2c-4.9,0-8.9-4-8.9-8.9v-9.2h3V39c0,3.2,2.6,5.9,5.9,5.9h0.2c3.2,0,5.9-2.6,5.9-5.9v-2.2
			c0-4.9,4-8.9,8.9-8.9s8.9,4,8.9,8.9v3.4h-3v-3.4c0-3.2-2.6-5.9-5.9-5.9s-5.9,2.6-5.9,5.9V39C30.4,43.9,26.4,47.9,21.5,47.9z"/>
	</g>
	<path fill="#CDD6E0" d="M22.2,1v3H25v8.4c0,6.1-4.9,11-11,11c-6.1,0-11-4.9-11-11V4h2.8V1H0v16.5c0,7.7,6.3,14,14,14
		c7.7,0,14-6.3,14-14V1H22.2z M14,28.4c-4.3,0-8-2.5-9.8-6c2.5,2.5,6,4,9.8,4c3.8,0,7.3-1.5,9.8-4C22,26,18.3,28.4,14,28.4z"/>
	<g>
		<path fill="#ACB3BA" d="M6.5,4.8H5.6V0.1h0.9c1.3,0,2.3,1,2.3,2.3l0,0C8.8,3.8,7.8,4.8,6.5,4.8z"/>
		<path fill="#ACB3BA" d="M22.4,4.8h-0.9c-1.3,0-2.3-1-2.3-2.3l0,0c0-1.3,1-2.3,2.3-2.3h0.9V4.8z"/>
	</g>
	<circle fill="#40596B" cx="43.6" cy="43" r="4.4"/>
	<circle fill="#CDD6E0" cx="43.6" cy="43" r="2.7"/>
</g>
</svg>
