<?xml version="1.0" encoding="utf-8"?>
<!-- Generator: Adobe Illustrator 18.0.0, SVG Export Plug-In . SVG Version: 6.00 Build 0)  -->
<!DOCTYPE svg PUBLIC "-//W3C//DTD SVG 1.1//EN" "http://www.w3.org/Graphics/SVG/1.1/DTD/svg11.dtd">
<svg version="1.1" id="Layer_1" xmlns="http://www.w3.org/2000/svg" xmlns:xlink="http://www.w3.org/1999/xlink" x="0px" y="0px"
	 viewBox="0 0 48 48" enable-background="new 0 0 48 48" xml:space="preserve">
<g>
	<path fill="#4CDBC4" d="M24.4,0.9c-2.3-2.4-6.6,0.2-5.3,3.3c0,0,0,0,0,0c0,0.1,0.1,0.1,0.2,0.1C20.8,3.5,21.6,4,21.6,4
		c2.5,0.6,1.9,5.7,1.9,5.7l3.5,2.2v-2C26.6,5.1,26,2.5,24.4,0.9z"/>
	<path fill="#FFD15C" d="M47.7,24.6c-1.9-14.1-13.5-14.3-13.5-14.3c-3.6-2-7.7-0.1-7.7-0.1C25.6,9.5,24,9.7,24,9.7s-1.6-0.2-2.5,0.4
		c0,0-4.1-1.9-7.7,0.1c0,0-11.7,0.3-13.5,14.3c0,0-3.3,20.6,13.8,21.7c0,0,2.9,1.7,7.4,1.3c0,0,1.1,0.5,2.5,0.5s2.5-0.5,2.5-0.5
		c4.6,0.4,7.4-1.3,7.4-1.3C51,45.2,47.7,24.6,47.7,24.6z"/>
	<path fill="#40596B" d="M28.7,21c0,0,2.8,0.2,4.7-3.5c0,0,2.9-5.7,5.7-0.3c0,0,2.3,3.4,0.4,8.7c-0.3,1-0.9,1.8-1.8,2.4
		c-0.9,0.6-2.3,0.9-4.1,0c-1.2-0.6-2.2-1.5-3-2.6C29.8,24.5,28.9,22.9,28.7,21z"/>
	<path fill="#40596B" d="M19.3,21c0,0-2.8,0.2-4.7-3.5c0,0-2.9-5.7-5.7-0.3c0,0-2.3,3.4-0.4,8.7c0.3,1,0.9,1.8,1.8,2.4
		c0.9,0.6,2.3,0.9,4.1,0c1.2-0.6,2.2-1.5,3-2.6C18.2,24.5,19.1,22.9,19.3,21z"/>
	<path fill="#40596B" d="M28.1,26.2c0.2,0.9-0.3,1.7-0.8,2.2c-0.5,0.5-1.4,0.2-1.5-0.6c-0.1-0.8,0.2-1.5,0.1-2.2
		c-0.1-0.8-0.7-1-0.8-0.9C25.4,24.5,27.6,24,28.1,26.2z"/>
	<path fill="#40596B" d="M19.9,26.2c-0.2,0.9,0.3,1.7,0.8,2.2c0.5,0.5,1.4,0.2,1.5-0.6c0.1-0.8-0.2-1.5-0.1-2.2
		c0.1-0.8,0.7-1,0.8-0.9C22.6,24.5,20.4,24,19.9,26.2z"/>
	<path fill="#40596B" d="M35.5,35.4l-1.1,2.9c-0.1,0.4-0.4,0.7-0.7,0.7H30c-0.3,0-0.6-0.3-0.7-0.7l-0.7-1.5c-1.5,0.2-3,0.3-4.6,0.3
		c-1.6,0-3.1-0.1-4.6-0.3l-0.7,1.5C18.6,38.7,18.3,39,18,39h-3.6c-0.3,0-0.6-0.3-0.7-0.7l-1.1-2.9c-3.7-1.1-7.1-2.8-9.9-4.8
		c3.2,7.3,10,12.7,18.2,13.8l0.7-1.5c0.1-0.3,0.4-0.6,0.8-0.6h3.5c0.4,0,0.7,0.2,0.8,0.6l0.7,1.5c8.2-1.1,15-6.5,18.2-13.8
		C42.6,32.6,39.2,34.3,35.5,35.4z"/>
	<path opacity="0.1" fill="#231F20" d="M33.5,19.5c0,0,2.9-5.7,5.7-0.3c0,0,0.9,1.3,1.1,3.5c0.3-3.4-1.1-5.5-1.1-5.5
		c-2.8-5.4-5.7,0.3-5.7,0.3c-1.9,3.7-4.7,3.5-4.7,3.5c0.1,0.7,0.2,1.4,0.4,2C30,22.8,32,22.2,33.5,19.5z"/>
	<path opacity="0.1" fill="#231F20" d="M8.9,19.1c2.8-5.4,5.7,0.3,5.7,0.3c1.5,2.8,3.4,3.4,4.3,3.5c0.2-0.6,0.4-1.3,0.4-2
		c0,0-2.8,0.2-4.7-3.5c0,0-2.9-5.7-5.7-0.3c0,0-1.4,2.1-1.1,5.5C8,20.4,8.9,19.1,8.9,19.1z"/>
	<path opacity="0.1" fill="#231F20" d="M12.5,36.4l1.1,2.9c0.1,0.4,0.4,0.7,0.7,0.7H18c0.3,0,0.6-0.3,0.7-0.7l0.7-1.5
		c1.5,0.2,3,0.3,4.6,0.3s3.1-0.1,4.6-0.3l0.7,1.5c0.1,0.4,0.4,0.7,0.7,0.7h3.6c0.3,0,0.6-0.3,0.7-0.7l1.1-2.9c3.4-1,6.5-2.5,9.2-4.4
		c0.2-0.5,0.5-1,0.7-1.5c-2.8,2.1-6.2,3.7-9.9,4.8l-1.1,2.9c-0.1,0.4-0.4,0.7-0.7,0.7H30c-0.3,0-0.6-0.3-0.7-0.7l-0.7-1.5
		c-1.5,0.2-3,0.3-4.6,0.3s-3.1-0.1-4.6-0.3l-0.7,1.5C18.6,38.7,18.3,39,18,39h-3.6c-0.3,0-0.6-0.3-0.7-0.7l-1.1-2.9
		c-3.7-1.1-7.1-2.8-9.9-4.8c0.2,0.5,0.4,1,0.7,1.5C6,33.8,9.1,35.3,12.5,36.4z"/>
</g>
</svg>
