<?xml version="1.0" encoding="utf-8"?>
<!-- Generator: Adobe Illustrator 18.0.0, SVG Export Plug-In . SVG Version: 6.00 Build 0)  -->
<!DOCTYPE svg PUBLIC "-//W3C//DTD SVG 1.1//EN" "http://www.w3.org/Graphics/SVG/1.1/DTD/svg11.dtd">
<svg version="1.1" id="Layer_1" xmlns="http://www.w3.org/2000/svg" xmlns:xlink="http://www.w3.org/1999/xlink" x="0px" y="0px"
	 viewBox="0 0 48 48" enable-background="new 0 0 48 48" xml:space="preserve">
<g>
	<g>
		<path fill="#ACB3BA" d="M37.3,18.2c-0.6,0-1-0.4-1-1v-4.6c0-0.3,0.2-0.6,0.4-0.8l7.9-5.5C45.1,6,45.7,6.1,46,6.6
			c0.3,0.5,0.2,1.1-0.3,1.4l-7.5,5.2v4.1C38.3,17.8,37.8,18.2,37.3,18.2z"/>
	</g>
	<polygon fill="#F2F2F2" points="44.3,46.4 30.2,46.4 27.9,19.3 46.7,19.3 	"/>
	<path opacity="0.1" fill="#231F20" d="M28.1,22.6c0.1,0,0.1,0,0.2,0h17.9c0.1,0,0.1,0,0.2,0l0.3-3.2H27.9L28.1,22.6z"/>
	<g>
		<path fill="#FFD15C" d="M24.7,46.4H4.4c-1.1,0-2-0.9-2-2v-3.8h24.3v3.8C26.7,45.6,25.8,46.4,24.7,46.4z"/>
		<path fill="#F8B64C" d="M17.6,25.1h-6.2c-5,0-9,4-9,9v0h24.3v0C26.7,29.1,22.6,25.1,17.6,25.1z"/>
		<path fill="#FF7058" d="M26.7,40.6H2.4c-1.3,0-2.4-1.1-2.4-2.4l0,0c0-1.3,1.1-2.4,2.4-2.4h24.2c1.3,0,2.4,1.1,2.4,2.4v0
			C29.1,39.5,28,40.6,26.7,40.6z"/>
		<path fill="#40596B" d="M26.7,35.8H2.4c-0.4,0-0.8-0.4-0.8-0.8l0,0c0-0.4,0.4-0.8,0.8-0.8h24.2c0.4,0,0.8,0.4,0.8,0.8l0,0
			C27.5,35.4,27.1,35.8,26.7,35.8z"/>
		<path opacity="0.1" fill="#231F20" d="M2.4,41.8C2.4,41.8,2.4,41.8,2.4,41.8l24.2,0c0,0,0,0,0,0v-1.2H2.4V41.8z"/>
		<polygon fill="#FFD15C" points="3.6,35.8 9.8,40.5 16,35.8 		"/>
		<g>
			<path fill="#F2F2F2" d="M5.6,30.7c0,0-0.1,0-0.1-0.1c-0.1-0.1-0.1-0.2,0-0.3l0.5-0.5c0.1-0.1,0.2-0.1,0.3,0
				c0.1,0.1,0.1,0.2,0,0.3l-0.5,0.5C5.7,30.7,5.6,30.7,5.6,30.7z"/>
			<path fill="#F2F2F2" d="M8,33.1c0,0-0.1,0-0.1-0.1c-0.1-0.1-0.1-0.2,0-0.3l0.5-0.5c0.1-0.1,0.2-0.1,0.3,0c0.1,0.1,0.1,0.2,0,0.3
				l-0.5,0.5C8.1,33.1,8,33.1,8,33.1z"/>
			<path fill="#F2F2F2" d="M10.6,30.7c0,0-0.1,0-0.1-0.1c-0.1-0.1-0.1-0.2,0-0.3l0.5-0.5c0.1-0.1,0.2-0.1,0.3,0
				c0.1,0.1,0.1,0.2,0,0.3l-0.5,0.5C10.7,30.7,10.6,30.7,10.6,30.7z"/>
			<path fill="#F2F2F2" d="M13,33.1c0,0-0.1,0-0.1-0.1c-0.1-0.1-0.1-0.2,0-0.3l0.5-0.5c0.1-0.1,0.2-0.1,0.3,0c0.1,0.1,0.1,0.2,0,0.3
				l-0.5,0.5C13.1,33.1,13.1,33.1,13,33.1z"/>
			<path fill="#F2F2F2" d="M15.6,30.7c0,0-0.1,0-0.1-0.1c-0.1-0.1-0.1-0.2,0-0.3l0.5-0.5c0.1-0.1,0.2-0.1,0.3,0
				c0.1,0.1,0.1,0.2,0,0.3l-0.5,0.5C15.7,30.7,15.7,30.7,15.6,30.7z"/>
			<path fill="#F2F2F2" d="M18,33.1c0,0-0.1,0-0.1-0.1c-0.1-0.1-0.1-0.2,0-0.3l0.5-0.5c0.1-0.1,0.2-0.1,0.3,0c0.1,0.1,0.1,0.2,0,0.3
				l-0.5,0.5C18.1,33.1,18.1,33.1,18,33.1z"/>
			<path fill="#F2F2F2" d="M20.6,30.7c0,0-0.1,0-0.1-0.1c-0.1-0.1-0.1-0.2,0-0.3l0.5-0.5c0.1-0.1,0.2-0.1,0.3,0
				c0.1,0.1,0.1,0.2,0,0.3l-0.5,0.5C20.7,30.7,20.7,30.7,20.6,30.7z"/>
			<path fill="#F2F2F2" d="M23.1,33.1c0,0-0.1,0-0.1-0.1c-0.1-0.1-0.1-0.2,0-0.3l0.5-0.5c0.1-0.1,0.2-0.1,0.3,0
				c0.1,0.1,0.1,0.2,0,0.3l-0.5,0.5C23.1,33.1,23.1,33.1,23.1,33.1z"/>
			<path fill="#F2F2F2" d="M8,28.5c0,0-0.1,0-0.1-0.1c-0.1-0.1-0.1-0.2,0-0.3l0.5-0.5c0.1-0.1,0.2-0.1,0.3,0c0.1,0.1,0.1,0.2,0,0.3
				l-0.5,0.5C8.1,28.5,8,28.5,8,28.5z"/>
			<path fill="#F2F2F2" d="M13,28.5c0,0-0.1,0-0.1-0.1c-0.1-0.1-0.1-0.2,0-0.3l0.5-0.5c0.1-0.1,0.2-0.1,0.3,0c0.1,0.1,0.1,0.2,0,0.3
				l-0.5,0.5C13.1,28.5,13.1,28.5,13,28.5z"/>
			<path fill="#F2F2F2" d="M18,28.5c0,0-0.1,0-0.1-0.1c-0.1-0.1-0.1-0.2,0-0.3l0.5-0.5c0.1-0.1,0.2-0.1,0.3,0c0.1,0.1,0.1,0.2,0,0.3
				l-0.5,0.5C18.1,28.5,18.1,28.5,18,28.5z"/>
			<path fill="#F2F2F2" d="M23.1,28.5c0,0-0.1,0-0.1-0.1c-0.1-0.1-0.1-0.2,0-0.3l0.5-0.5c0.1-0.1,0.2-0.1,0.3,0
				c0.1,0.1,0.1,0.2,0,0.3l-0.5,0.5C23.1,28.5,23.1,28.5,23.1,28.5z"/>
		</g>
	</g>
	<path fill="#ACB3BA" d="M46.3,21.2H28.3c-1,0-1.7-0.8-1.7-1.7v0c0-1,0.8-1.7,1.7-1.7h17.9c1,0,1.7,0.8,1.7,1.7v0
		C48,20.4,47.2,21.2,46.3,21.2z"/>
	<path fill="#CDD6E0" d="M42,16.2h-9.4c-0.7,0-1.2,0.6-1.2,1.4h11.9C43.2,16.9,42.7,16.2,42,16.2z"/>
	<polygon fill="#FF7058" points="24.4,14.4 19.8,9.7 24.4,5 20.9,1.6 16.3,6.2 11.6,1.6 8.1,5 12.8,9.7 8.1,14.4 11.6,17.8 
		16.3,13.2 20.9,17.8 	"/>
</g>
</svg>
