<?xml version="1.0" encoding="utf-8"?>
<!-- Generator: Adobe Illustrator 18.0.0, SVG Export Plug-In . SVG Version: 6.00 Build 0)  -->
<!DOCTYPE svg PUBLIC "-//W3C//DTD SVG 1.1//EN" "http://www.w3.org/Graphics/SVG/1.1/DTD/svg11.dtd">
<svg version="1.1" id="Layer_1" xmlns="http://www.w3.org/2000/svg" xmlns:xlink="http://www.w3.org/1999/xlink" x="0px" y="0px"
	 viewBox="0 0 48 48" enable-background="new 0 0 48 48" xml:space="preserve">
<g>
	<g>
		<g>
			<path fill="#F7B64C" d="M41.7,35.3l-10.2-2.6L24,43.1c3,2.5,10.3,4.2,13.4,4.8"/>
		</g>
		<g>
			<path fill="#FFD15C" d="M43.5,43.8c-0.8,2.8-3.6,4.7-6,4.1c-2.5-0.5-3.7-3.2-2.9-6.1c1.5-4.9,4.3-7.2,6.8-6.7
				C43.8,35.7,44.9,38.8,43.5,43.8z"/>
		</g>
		<g>
			<path fill="#F7B64C" d="M6.3,35.3l10.2-2.6L24,43.1c-3,2.5-10.3,4.2-13.4,4.8"/>
		</g>
		<g>
			<path fill="#FFD15C" d="M4.5,43.8c0.8,2.8,3.6,4.7,6,4.1s3.7-3.2,2.9-6.1c-1.5-4.9-4.3-7.2-6.8-6.7C4.2,35.7,3.1,38.8,4.5,43.8z"
				/>
		</g>
		<path fill="#F7B64C" d="M34,23.9c0,3.1-4.5,11.2-10,11.2c-5.5,0-10-8.1-10-11.2s4.5-5.7,10-5.7C29.5,18.2,34,20.7,34,23.9z"/>
		<path fill="#F3705A" d="M22.4,43.4c1,0.6,2.2,0.6,3.2,0C28.9,41.5,36,36.7,36,29.6c0-3.5-2.8-6.4-6.3-6.4c-2.5,0-4.6,1.5-5.7,3.6
			c-1-2.1-3.2-3.6-5.7-3.6c-3.5,0-6.3,2.9-6.3,6.4C12,36.7,19.1,41.5,22.4,43.4z"/>
		<path fill="#F7B64C" d="M27.3,19.4c0,0,7.7-0.7,11.2,4.1c2.6,3.3,5,8.2,1.6,9.7c-1,0.5-2.2,0.6-3.3,0.3c-1.1-0.3-2.2-1-1.8-2.6
			C36.7,25.3,30.9,22.4,27.3,19.4z"/>
		<path fill="#F7B64C" d="M20.7,19.4c0,0-7.7-0.7-11.2,4.1c-2.6,3.3-5,8.2-1.6,9.7c1,0.5,2.2,0.6,3.3,0.3c1.1-0.3,2.2-1,1.8-2.6
			C11.3,25.3,17.1,22.4,20.7,19.4z"/>
		<path fill="#F7B64C" d="M19.4,2.5c0.7,2,0.2,5.4-1.8,6.1c-2,0.7-4.6-1.4-5.4-3.4c-0.7-2,0.3-4.2,2.2-4.9
			C16.4-0.5,18.6,0.5,19.4,2.5z"/>
		<path fill="#F7B64C" d="M28.6,2.5c-0.7,2-0.2,5.4,1.8,6.1c2,0.7,4.6-1.4,5.4-3.4S35.6,1,33.6,0.2C31.6-0.5,29.4,0.5,28.6,2.5z"/>
		<path fill="#FFD15C" d="M34.5,11.3c-0.1,5.6-4.8,11.1-10.5,11.1c-5.6,0-10.3-5.6-10.5-11.1C13.4,5.6,18.1,0.8,24,0.8
			C29.9,0.8,34.6,5.6,34.5,11.3z"/>
		<g>
			<g>
				<path fill="#FFFFFF" d="M29.4,14.4c0,3-2.4,4.3-5.4,4.3c-3,0-5.4-1.3-5.4-4.3c0-3,2.4-5.4,5.4-5.4C27,9,29.4,11.4,29.4,14.4z"/>
			</g>
		</g>
		<g>
			<g>
				<path fill="#415A6B" d="M24,17.4c-1.3,0-3-0.6-3.7-1.8c-0.1-0.1,0-0.3,0.1-0.4c0.1-0.1,0.3,0,0.4,0.1c0.6,1,2.1,1.5,3.2,1.5
					c1.1,0,2.6-0.5,3.2-1.5c0.1-0.1,0.3-0.2,0.4-0.1c0.1,0.1,0.2,0.3,0.1,0.4C27,16.8,25.3,17.4,24,17.4z"/>
			</g>
		</g>
		<g>
			<g>
				<ellipse fill="#415A6B" cx="24" cy="11.7" rx="2.6" ry="1.8"/>
			</g>
		</g>
		<g>
			<g>
				<rect x="23.7" y="13.2" fill="#415A6B" width="0.6" height="3.7"/>
			</g>
		</g>
		<g>
			<g>
				<g>
					<g>
						<circle fill="#344A5E" cx="28.7" cy="8.6" r="1.2"/>
					</g>
					<g>
						<circle fill="#FFFFFF" cx="29.2" cy="8.2" r="0.3"/>
					</g>
				</g>
			</g>
		</g>
		<g>
			<g>
				<g>
					<g>
						<circle fill="#344A5E" cx="19.3" cy="8.6" r="1.2"/>
					</g>
					<g>
						<circle fill="#FFFFFF" cx="18.8" cy="8.2" r="0.3"/>
					</g>
				</g>
			</g>
		</g>
		<g>
			<path fill="#FFFFFF" d="M16.1,35.2v-4.3h1v3.4h1.8v0.9H16.1z"/>
			<path fill="#FFFFFF" d="M23.1,34.7c-0.4,0.4-1,0.6-1.6,0.6c-0.6,0-1.2-0.2-1.6-0.6c-0.4-0.4-0.7-1-0.7-1.6c0-0.6,0.2-1.2,0.7-1.6
				c0.4-0.4,1-0.6,1.6-0.6c0.6,0,1.2,0.2,1.6,0.6c0.4,0.4,0.7,1,0.7,1.6C23.8,33.7,23.5,34.2,23.1,34.7z M22.8,33.1
				c0-0.4-0.1-0.7-0.4-1c-0.2-0.3-0.5-0.4-0.9-0.4c-0.4,0-0.7,0.1-0.9,0.4c-0.2,0.3-0.4,0.6-0.4,1c0,0.4,0.1,0.7,0.4,1
				c0.2,0.3,0.5,0.4,0.9,0.4c0.4,0,0.7-0.1,0.9-0.4S22.8,33.5,22.8,33.1z"/>
			<path fill="#FFFFFF" d="M26.1,33.7l1.1-2.7h1l-1.7,4.3h-0.8l-1.7-4.3h1L26.1,33.7z"/>
			<path fill="#FFFFFF" d="M31.8,30.9v0.9h-2.1v0.9h1.9v0.8h-1.9v0.9h2.2v0.8h-3.2v-4.3H31.8z"/>
		</g>
	</g>
</g>
</svg>
