<?xml version="1.0" encoding="utf-8"?>
<!-- Generator: Adobe Illustrator 18.0.0, SVG Export Plug-In . SVG Version: 6.00 Build 0)  -->
<!DOCTYPE svg PUBLIC "-//W3C//DTD SVG 1.1//EN" "http://www.w3.org/Graphics/SVG/1.1/DTD/svg11.dtd">
<svg version="1.1" id="Layer_1" xmlns="http://www.w3.org/2000/svg" xmlns:xlink="http://www.w3.org/1999/xlink" x="0px" y="0px"
	 viewBox="0 0 48 48" enable-background="new 0 0 48 48" xml:space="preserve">
<g>
	<g>
		<g>
			<g>
				<rect x="19" y="24.1" fill="#E8EAE9" width="10" height="11.4"/>
			</g>
		</g>
		<g>
			<g>
				<rect x="18" y="18.4" fill="#415A6B" width="11.9" height="5.7"/>
			</g>
		</g>
		<rect x="16" y="35.5" fill="#415A6B" width="16" height="3"/>
		<g>
			<g>
				<path fill="#FFD15C" d="M29,11.7C29,8.9,24,0,24,0s-5,8.9-5,11.7s2.2,5.1,5,5.1S29,14.5,29,11.7z"/>
			</g>
		</g>
		<g>
			<g>
				<path fill="#F7B64C" d="M27.1,13.6c0-1.8-3.1-7.3-3.1-7.3s-3.1,5.6-3.1,7.3s1.4,3.2,3.1,3.2S27.1,15.4,27.1,13.6z"/>
			</g>
		</g>
		<path fill="#344A5E" d="M7.6,43.9V48h32.8v-4.1c0-2.9-2.4-5.3-5.3-5.3H12.9C10,38.5,7.6,40.9,7.6,43.9z"/>
		<g>
			<rect x="29" y="28.9" fill="#CED6E0" width="2.2" height="1.9"/>
			<g>
				<path fill="#F3705A" d="M32.3,33.1L32.3,33.1c-0.6,0-1.1-0.5-1.1-1.1v-4.4c0-0.6,0.5-1.1,1.1-1.1h0c0.6,0,1.1,0.5,1.1,1.1V32
					C33.4,32.6,32.9,33.1,32.3,33.1z"/>
			</g>
		</g>
	</g>
</g>
</svg>
