<?xml version="1.0" encoding="utf-8"?>
<!-- Generator: Adobe Illustrator 18.0.0, SVG Export Plug-In . SVG Version: 6.00 Build 0)  -->
<!DOCTYPE svg PUBLIC "-//W3C//DTD SVG 1.1//EN" "http://www.w3.org/Graphics/SVG/1.1/DTD/svg11.dtd">
<svg version="1.1" id="Layer_1" xmlns="http://www.w3.org/2000/svg" xmlns:xlink="http://www.w3.org/1999/xlink" x="0px" y="0px"
	 viewBox="0 0 48 48" enable-background="new 0 0 48 48" xml:space="preserve">
<g>
	<rect x="12" y="3" fill="#F05540" width="4.8" height="4.9"/>
	<polygon fill="#F3705A" points="3.6,7 0,16.5 48,16.5 44.4,7 	"/>
	<rect x="4" y="16.5" fill="#E8EAE9" width="40.1" height="31.5"/>
	<g>
		<path fill="#344A5E" d="M31,30.2h-0.2v-2.9c0-3.7-3-6.8-6.8-6.8c-3.7,0-6.8,3-6.8,6.8v2.9H17c-1.1,0-2,0.9-2,2V42c0,1.1,0.9,2,2,2
			h14c1.1,0,2-0.9,2-2v-9.8C33,31.1,32.1,30.2,31,30.2z M28.8,30.2h-9.7v-2.9c0-2.7,2.2-4.8,4.8-4.8c2.7,0,4.8,2.2,4.8,4.8V30.2z"/>
		<path fill="#FFFFFF" d="M24.9,37.3l0.8,2.6h-3.4l0.8-2.6c-0.5-0.3-0.8-0.8-0.8-1.4c0-0.9,0.8-1.7,1.7-1.7c0.9,0,1.7,0.8,1.7,1.7
			C25.7,36.5,25.4,37,24.9,37.3z"/>
	</g>
	<g>
		<rect x="10.4" y="0" fill="#F3705A" width="7.9" height="4"/>
	</g>
</g>
</svg>
