<?xml version="1.0" encoding="utf-8"?>
<!-- Generator: Adobe Illustrator 18.0.0, SVG Export Plug-In . SVG Version: 6.00 Build 0)  -->
<!DOCTYPE svg PUBLIC "-//W3C//DTD SVG 1.1//EN" "http://www.w3.org/Graphics/SVG/1.1/DTD/svg11.dtd">
<svg version="1.1" id="Layer_1" xmlns="http://www.w3.org/2000/svg" xmlns:xlink="http://www.w3.org/1999/xlink" x="0px" y="0px"
	 viewBox="0 0 48 48" enable-background="new 0 0 48 48" xml:space="preserve">
<g>
	<g>
		<g>
			<path fill="#F7B64C" d="M15.4,31.3c-5.8,0-11.1,0.9-15.4,2.5V48h41.2c0.5-1,0.8-2.1,0.8-3.3C42,37.3,30.1,31.3,15.4,31.3z"/>
		</g>
		<g>
			<g>
				<g>
					<g>
						<path fill="#4ABAA5" d="M47.1,27.4c0.1,0.2,0.1,0.4,0.1,0.6c0,0.9-0.5,1.8-1.3,2.1c0,0,0,0.1,0,0.1c0,1.1-0.9,2-2,2
							c-0.6,0-1.2-0.3-1.5-0.8c-0.2,0.1-0.5,0.2-0.8,0.2c-0.2,0-0.4,0-0.5-0.1c-0.4,0.7-1.2,1.2-2.1,1.2c-1.2,0-2.3-0.9-2.5-2
							c-0.4,0.3-0.9,0.5-1.5,0.5c-0.8,0-1.4-0.4-1.9-0.9c-0.1,0-0.1,0-0.2,0c-1.1,0-2-0.7-2.3-1.7c-0.5-0.1-0.9-0.6-0.9-1.1
							c0-0.1,0-0.3,0.1-0.4c0,0-0.1-0.1-0.1-0.1c-0.1,0-0.1,0-0.2,0c-0.8,0-1.4-0.7-1.4-1.5c0-0.8,0.6-1.4,1.3-1.5
							c0.2-0.4,0.5-0.8,0.9-1.1c0.1-0.8,0.6-1.5,1.3-1.8c0.3-0.6,0.8-0.9,1.5-0.9c0.2,0,0.4,0,0.6,0.1c0.2-0.4,0.6-0.6,1.1-0.6
							c0,0,0.1,0,0.1,0c0.3-0.8,1-1.3,1.9-1.3c0.7,0,1.2,0.3,1.6,0.8c0,0,0,0,0.1,0c0.9,0,1.6,0.5,1.9,1.3c0.2-0.2,0.5-0.3,0.9-0.3
							c0.3,0,0.5,0.1,0.7,0.2c0.2-0.1,0.5-0.2,0.8-0.2c0.7,0,1.4,0.5,1.6,1.2c0,0,0.1,0,0.1,0c0.9,0,1.6,0.7,1.6,1.6
							c0,0.2-0.1,0.5-0.1,0.7c0.2,0.1,0.3,0.3,0.4,0.5c0,0,0.1,0,0.1,0c0.9,0,1.6,0.7,1.6,1.6C48,26.6,47.6,27.1,47.1,27.4z"/>
					</g>
					<g>
						<g>
							<path fill="#344A5E" d="M42.4,26.3c-1.6,1.5-2.8,3.7-3.6,6.5l-1.1-0.4C39.1,29.7,40.6,27.5,42.4,26.3z"/>
						</g>
						<g>
							<g>
								<path fill="#344A5E" d="M33.3,25.8c2.2,2.2,4.4,4.9,5.3,9.4l-1.4,0.2C37.1,32,35.6,28.8,33.3,25.8z"/>
							</g>
						</g>
					</g>
				</g>
				<g>
					<g>
						<path fill="#415A6B" d="M37.8,20.9L37.8,20.9C37.8,20.9,37.8,20.8,37.8,20.9L37.8,20.9C37.8,20.9,37.8,20.8,37.8,20.9z"/>
					</g>
					<g>
						<g>
							<path fill="#344A5E" d="M41.4,44.2h-6.2c1.8-2.2,3-18.4,3.1-20.5C38.4,25.8,39.4,41.7,41.4,44.2z"/>
						</g>
						<path fill="#415A6B" d="M37.8,20.9L37.8,20.9C37.8,20.8,37.8,20.9,37.8,20.9L37.8,20.9C37.8,20.8,37.8,20.9,37.8,20.9z"/>
					</g>
				</g>
			</g>
			<g>
				<g>
					<g>
						<path fill="#66C6B9" d="M31.2,14.4c0.1,0.3,0.1,0.6,0.1,1c0,1.5-0.9,2.8-2.1,3.5c0,0.1,0,0.1,0,0.2c0,1.8-1.4,3.2-3.2,3.2
							c-1,0-1.9-0.5-2.5-1.3c-0.4,0.2-0.8,0.3-1.3,0.3c-0.3,0-0.6,0-0.8-0.1c-0.7,1.2-2,1.9-3.5,1.9c-2,0-3.6-1.4-4.1-3.3
							c-0.7,0.6-1.5,0.9-2.5,0.9c-1.2,0-2.3-0.6-3-1.5c-0.1,0-0.2,0-0.3,0c-1.7,0-3.2-1.2-3.6-2.7C3.6,16.2,3,15.5,3,14.6
							c0-0.2,0-0.4,0.1-0.6c-0.1-0.1-0.1-0.1-0.2-0.2c-0.1,0-0.2,0-0.4,0c-1.3,0-2.3-1.1-2.3-2.4c0-1.2,0.9-2.3,2.2-2.4
							c0.3-0.7,0.8-1.3,1.5-1.7C4.1,6.1,4.9,5,6,4.4c0.4-0.9,1.4-1.5,2.4-1.5c0.4,0,0.7,0.1,1,0.2c0.4-0.6,1-1,1.8-1
							c0.1,0,0.1,0,0.2,0c0.5-1.3,1.7-2.2,3-2.2c1.1,0,2,0.5,2.6,1.3c0,0,0.1,0,0.1,0c1.4,0,2.6,0.8,3.1,2c0.4-0.3,0.9-0.5,1.4-0.5
							c0.4,0,0.8,0.1,1.1,0.3c0.4-0.2,0.8-0.3,1.2-0.3c1.2,0,2.2,0.8,2.6,2c0,0,0.1,0,0.1,0c1.4,0,2.6,1.2,2.6,2.7
							c0,0.4-0.1,0.8-0.2,1.1c0.3,0.2,0.6,0.5,0.7,0.8c0,0,0.1,0,0.2,0c1.4,0,2.6,1.2,2.6,2.6C32.7,13.1,32.1,13.9,31.2,14.4z"/>
					</g>
					<g>
						<g>
							<path fill="#415A6B" d="M23.7,12.7c-2.6,2.4-4.5,6-5.8,10.6L16,22.6C18.2,18.2,20.6,14.6,23.7,12.7z"/>
						</g>
						<g>
							<g>
								<path fill="#415A6B" d="M8,12.3c3.8,3.3,7.6,7.3,9.8,14.4l-2.2,0.5C14.8,21.8,12.1,16.8,8,12.3z"/>
							</g>
						</g>
					</g>
				</g>
				<g>
					<g>
						<path fill="#415A6B" d="M16.5,8.1L16.5,8.1C16.5,8.2,16.5,8.1,16.5,8.1L16.5,8.1C16.5,8.1,16.5,8.1,16.5,8.1z"/>
					</g>
					<g>
						<g>
							<path fill="#415A6B" d="M21.9,42.8h-10c2.9-3.7,4.8-30.9,5-34.5C17.1,12,18.7,38.7,21.9,42.8z"/>
						</g>
						<path fill="#415A6B" d="M16.5,8.1L16.5,8.1C16.5,8.1,16.5,8.2,16.5,8.1L16.5,8.1C16.5,8,16.5,8.1,16.5,8.1z"/>
					</g>
				</g>
			</g>
		</g>
		<g>
			<g>
				<path fill="#FFD15C" d="M47.9,39.6c-2.9-0.5-6-0.8-9.3-0.8c-14,0-30.2,2.4-32.2,9.2h41.5V39.6z"/>
			</g>
		</g>
	</g>
</g>
</svg>
