<?xml version="1.0" encoding="utf-8"?>
<!-- Generator: Adobe Illustrator 18.0.0, SVG Export Plug-In . SVG Version: 6.00 Build 0)  -->
<!DOCTYPE svg PUBLIC "-//W3C//DTD SVG 1.1//EN" "http://www.w3.org/Graphics/SVG/1.1/DTD/svg11.dtd">
<svg version="1.1" id="Layer_1" xmlns="http://www.w3.org/2000/svg" xmlns:xlink="http://www.w3.org/1999/xlink" x="0px" y="0px"
	 viewBox="0 0 48 48" enable-background="new 0 0 48 48" xml:space="preserve">
<g>
	<g>
		<g>
			<g>
				<g>
					<rect x="22.7" y="6.1" fill="#F6B64C" width="2.7" height="35.9"/>
				</g>
			</g>
			<g>
				<ellipse fill="#F6B64C" cx="24" cy="3.7" rx="2.6" ry="3.7"/>
				<ellipse fill="#F6B64C" cx="24" cy="44.3" rx="2.6" ry="3.7"/>
			</g>
			<g>
				<path fill="#FFD15D" d="M26.2,5.7h-4.5c-0.6,0-1.1,0.5-1.1,1.1c0,0.6,0.5,1.1,1.1,1.1h4.5c0.6,0,1.1-0.5,1.1-1.1
					C27.3,6.2,26.8,5.7,26.2,5.7z"/>
				<path fill="#FFD15D" d="M26.2,40.1h-4.5c-0.6,0-1.1,0.5-1.1,1.1c0,0.6,0.5,1.1,1.1,1.1h4.5c0.6,0,1.1-0.5,1.1-1.1
					C27.3,40.6,26.8,40.1,26.2,40.1z"/>
			</g>
		</g>
		<g>
			<rect x="6.1" y="22.7" fill="#F6B64C" width="35.9" height="2.7"/>
			<g>
				<ellipse fill="#F6B64C" cx="44.3" cy="24" rx="3.7" ry="2.6"/>
				<ellipse fill="#F6B64C" cx="3.7" cy="24" rx="3.7" ry="2.6"/>
			</g>
			<g>
				<path fill="#FFD15D" d="M41.2,20.7c-0.6,0-1.1,0.5-1.1,1.1v4.5c0,0.6,0.5,1.1,1.1,1.1c0.6,0,1.1-0.5,1.1-1.1v-4.5
					C42.3,21.2,41.8,20.7,41.2,20.7z"/>
				<path fill="#FFD15D" d="M6.8,20.7c-0.6,0-1.1,0.5-1.1,1.1v4.5c0,0.6,0.5,1.1,1.1,1.1c0.6,0,1.1-0.5,1.1-1.1v-4.5
					C7.9,21.2,7.4,20.7,6.8,20.7z"/>
			</g>
		</g>
		<g>
			<g>
				<g>
					
						<rect x="22.7" y="6.1" transform="matrix(-0.7071 0.7071 -0.7071 -0.7071 57.941 23.9999)" fill="#F6B64C" width="2.7" height="35.9"/>
				</g>
			</g>
			<g>
				
					<ellipse transform="matrix(0.7071 -0.7071 0.7071 0.7071 -15.8787 38.3337)" fill="#F6B64C" cx="38.3" cy="38.3" rx="2.6" ry="3.7"/>
				
					<ellipse transform="matrix(0.7071 -0.7071 0.7071 0.7071 -4.0036 9.6652)" fill="#F6B64C" cx="9.7" cy="9.7" rx="2.6" ry="3.7"/>
			</g>
			<g>
				<path fill="#FFD15D" d="M38.5,33.8c-0.4-0.4-1.1-0.4-1.6,0L33.8,37c-0.4,0.4-0.4,1.1,0,1.6c0.4,0.4,1.1,0.4,1.6,0l3.2-3.2
					C39,34.9,39,34.2,38.5,33.8z"/>
				<path fill="#FFD15D" d="M14.2,9.5c-0.4-0.4-1.1-0.4-1.6,0l-3.2,3.2c-0.4,0.4-0.4,1.1,0,1.6c0.4,0.4,1.1,0.4,1.6,0l3.2-3.2
					C14.6,10.6,14.6,9.9,14.2,9.5z"/>
			</g>
		</g>
		<g>
			
				<rect x="6.1" y="22.7" transform="matrix(0.7071 -0.7071 0.7071 0.7071 -9.9412 23.9998)" fill="#F6B64C" width="35.9" height="2.7"/>
			<g>
				
					<ellipse transform="matrix(0.7071 -0.7071 0.7071 0.7071 -24.2755 18.062)" fill="#F6B64C" cx="9.7" cy="38.3" rx="3.7" ry="2.6"/>
				
					<ellipse transform="matrix(0.7071 -0.7071 0.7071 0.7071 4.3936 29.9377)" fill="#F6B64C" cx="38.3" cy="9.7" rx="3.7" ry="2.6"/>
			</g>
			<g>
				<path fill="#FFD15D" d="M14.2,37L11,33.8c-0.4-0.4-1.1-0.4-1.6,0c-0.4,0.4-0.4,1.1,0,1.6l3.2,3.2c0.4,0.4,1.1,0.4,1.6,0
					C14.6,38.1,14.6,37.4,14.2,37z"/>
				<path fill="#FFD15D" d="M38.5,12.6l-3.2-3.2c-0.4-0.4-1.1-0.4-1.6,0c-0.4,0.4-0.4,1.1,0,1.6l3.2,3.2c0.4,0.4,1.1,0.4,1.6,0
					C39,13.8,39,13.1,38.5,12.6z"/>
			</g>
		</g>
		<circle fill="#F6B64C" cx="24" cy="24" r="5.1"/>
		<path fill="#FFD15D" d="M24,10.8c-7.3,0-13.2,5.9-13.2,13.2S16.7,37.2,24,37.2S37.2,31.3,37.2,24S31.3,10.8,24,10.8z M24,34.2
			c-5.6,0-10.2-4.6-10.2-10.2c0-5.6,4.6-10.2,10.2-10.2S34.2,18.4,34.2,24C34.2,29.6,29.6,34.2,24,34.2z"/>
	</g>
</g>
</svg>
