<?xml version="1.0" encoding="utf-8"?>
<!-- Generator: Adobe Illustrator 18.0.0, SVG Export Plug-In . SVG Version: 6.00 Build 0)  -->
<!DOCTYPE svg PUBLIC "-//W3C//DTD SVG 1.1//EN" "http://www.w3.org/Graphics/SVG/1.1/DTD/svg11.dtd">
<svg version="1.1" id="Layer_1" xmlns="http://www.w3.org/2000/svg" xmlns:xlink="http://www.w3.org/1999/xlink" x="0px" y="0px"
	 viewBox="0 0 48 48" enable-background="new 0 0 48 48" xml:space="preserve">
<g>
	<path fill="#84DBFF" d="M36.8,6.7H4.6c-1.1,0-2,0.9-2,2V46c0,1.1,0.9,2,2,2h32.1c1.1,0,2-0.9,2-2V8.7C38.8,7.6,37.9,6.7,36.8,6.7z"
		/>
	<polygon fill="#F2F2F2" points="35.8,9.7 5.6,9.7 5.6,45 29.3,45 35.8,38.5 	"/>
	<g>
		<rect x="8" y="23.4" fill="#CDD6E0" width="25.4" height="2.5"/>
		<rect x="8" y="31" fill="#CDD6E0" width="25.4" height="2.5"/>
		<rect x="8" y="38.5" fill="#CDD6E0" width="12.3" height="2.5"/>
		<rect x="8" y="15.8" fill="#CDD6E0" width="25.4" height="2.5"/>
	</g>
	<polygon fill="#BCCDDD" points="35.8,38.5 29.3,45 35.8,45 	"/>
	<polygon fill="#CDD6E0" points="29.3,45 35.8,38.5 29.3,38.5 	"/>
	<path fill="#40596B" d="M27.1,3.6h-2.8c0-2-1.6-3.6-3.6-3.6s-3.6,1.6-3.6,3.6h-2.8c-1.1,0-2,0.9-2,2v4.2c0,1.1,0.9,2,2,2h12.9
		c1.1,0,2-0.9,2-2V5.6C29.1,4.5,28.3,3.6,27.1,3.6z M20.7,5c-0.8,0-1.4-0.6-1.4-1.4s0.6-1.4,1.4-1.4c0.8,0,1.4,0.6,1.4,1.4
		S21.5,5,20.7,5z"/>
	<g>
		<path fill="#FF7058" d="M45,16l-1.1-1.1c-0.5-0.5-1.4-0.5-1.9,0l-1.6,1.6l3,3l1.6-1.6C45.5,17.4,45.5,16.5,45,16z"/>
		<polygon fill="#334A5E" points="21.6,39.6 19.7,40.2 20.3,38.2 		"/>
		<path fill="#FFD15C" d="M24,38.8l-2.8,0.9l-1.6,0.5l0.5-1.6l0.9-2.8l0,0c0.3-0.1,0.6,0,0.8,0.2c0.2,0.2,0.3,0.5,0.2,0.8
			c0.3-0.1,0.6,0,0.8,0.2c0.2,0.2,0.3,0.5,0.2,0.8c0.3-0.1,0.6,0,0.8,0.2C24.1,38.2,24.1,38.5,24,38.8z"/>
		<g>
			<path fill="#40596B" d="M42.5,20.4l-3-3L21.1,35.8c0.3-0.1,0.6,0,0.8,0.2c0.2,0.2,0.3,0.5,0.2,0.8c0.3-0.1,0.6,0,0.8,0.2
				c0.2,0.2,0.3,0.5,0.2,0.8c0.3-0.1,0.6,0,0.8,0.2c0.2,0.2,0.3,0.5,0.2,0.8L42.5,20.4z"/>
			<polygon fill="#40596B" points="24,38.8 24,38.8 24,38.8 			"/>
		</g>
		<polygon fill="#40596B" points="21.3,39.7 19.7,40.2 20.2,38.6 		"/>
		
			<rect x="38.2" y="17.3" transform="matrix(0.7071 0.7071 -0.7071 0.7071 25.6466 -22.7494)" fill="#FFD15C" width="4.2" height="4.6"/>
	</g>
</g>
</svg>
