<?xml version="1.0" encoding="utf-8"?>
<!-- Generator: Adobe Illustrator 18.0.0, SVG Export Plug-In . SVG Version: 6.00 Build 0)  -->
<!DOCTYPE svg PUBLIC "-//W3C//DTD SVG 1.1//EN" "http://www.w3.org/Graphics/SVG/1.1/DTD/svg11.dtd">
<svg version="1.1" id="Layer_1" xmlns="http://www.w3.org/2000/svg" xmlns:xlink="http://www.w3.org/1999/xlink" x="0px" y="0px"
	 viewBox="0 0 48 48" enable-background="new 0 0 48 48" xml:space="preserve">
<g>
	<path fill="#FFD15C" d="M47.2,29.1h-0.1c-0.2-5.3-4.6-9.5-9.9-9.5h-2.3l-9.5-7.8c-1-0.8-2.3-1.3-3.6-1.3H10.8
		c-2.2,0-4.1,1.2-5.1,3.1l-3,6c-1.5,0-2.7,1.2-2.7,2.7v6c0,2.2,1.8,4,4,4h40.6v0h2.5c0.5,0,0.8-0.4,0.8-0.8V30
		C48,29.5,47.6,29.1,47.2,29.1z"/>
	<path fill="#F2F2F2" d="M37.8,30.7c1.2,0,2.1,0.9,2.3,2c0-0.1,0-0.2,0-0.3c0-1.3-1-2.3-2.3-2.3c-1.3,0-2.3,1-2.3,2.3
		c0,0.1,0,0.2,0,0.3C35.7,31.6,36.6,30.7,37.8,30.7z"/>
	<g>
		<g>
			<path fill="#F8B64C" d="M44.6,32.4c0-0.4,0-0.9-0.1-1.3c-0.6-2.7-3-4.7-5.9-4.7s-5.3,2-5.9,4.7c-0.1,0.4-0.1,0.8-0.1,1.3H44.6z"
				/>
			<circle fill="#40596B" cx="38.6" cy="32.4" r="5.1"/>
			<circle fill="#FFFFFF" cx="38.6" cy="32.4" r="2.1"/>
			<path fill="#F2F2F2" d="M38.6,30.8c1.1,0,2,0.8,2.1,1.9c0-0.1,0-0.2,0-0.3c0-1.2-1-2.1-2.1-2.1c-1.2,0-2.1,1-2.1,2.1
				c0,0.1,0,0.2,0,0.3C36.6,31.6,37.5,30.8,38.6,30.8z"/>
		</g>
		<g>
			<path fill="#F8B64C" d="M16,32.4c0-0.4,0-0.9-0.1-1.3c-0.6-2.7-3-4.7-5.9-4.7s-5.3,2-5.9,4.7C4.1,31.5,4,31.9,4,32.4H16z"/>
			<circle fill="#40596B" cx="10" cy="32.4" r="5.1"/>
			<circle fill="#FFFFFF" cx="10" cy="32.4" r="2.1"/>
			<path fill="#F2F2F2" d="M10,30.8c1.1,0,2,0.8,2.1,1.9c0-0.1,0-0.2,0-0.3c0-1.2-1-2.1-2.1-2.1c-1.2,0-2.1,1-2.1,2.1
				c0,0.1,0,0.2,0,0.3C8,31.6,8.9,30.8,10,30.8z"/>
		</g>
	</g>
	<path fill="#54C0EB" d="M22.7,19.6h9.8L24.4,13c-0.5-0.4-1.1-0.7-1.7-0.8V19.6z"/>
	<path fill="#54C0EB" d="M11,12h-0.1c-1.6,0-3,0.9-3.8,2.3l-2.7,5.3H11V12z"/>
	<rect x="12.2" y="12" fill="#54C0EB" width="9.3" height="7.6"/>
	<polygon fill="#84DBFF" points="25.5,19.6 28.3,16.2 27.2,15.3 23.6,19.6 	"/>
	<polygon fill="#84DBFF" points="13.3,19.6 15.3,19.6 21.5,12.2 21.5,12 19.7,12 	"/>
	<path fill="#FF7058" d="M45.1,26.9h1.6c-0.4-1.4-1-2.6-1.9-3.6c-0.9,0.1-1.5,0.9-1.5,1.8C43.3,26,44.1,26.9,45.1,26.9z"/>
	<rect x="0" y="23.7" fill="#FF7058" width="1.2" height="2.7"/>
</g>
</svg>
