<?xml version="1.0" encoding="utf-8"?>
<!-- Generator: Adobe Illustrator 20.1.0, SVG Export Plug-In . SVG Version: 6.00 Build 0)  -->
<!DOCTYPE svg PUBLIC "-//W3C//DTD SVG 1.1//EN" "http://www.w3.org/Graphics/SVG/1.1/DTD/svg11.dtd">
<svg version="1.1" id="Layer_1" xmlns="http://www.w3.org/2000/svg" xmlns:xlink="http://www.w3.org/1999/xlink" x="0px" y="0px"
	 viewBox="0 0 49 49" enable-background="new 0 0 49 49" xml:space="preserve">
<g>
	<path fill="#FFD15C" d="M32.5,16.5c1,1,1.8,2.2,2.4,3.4c2.2,4.6,1.5,10.4-2.4,14.2L21.8,44.9c-4.9,4.9-12.8,4.9-17.6,0
		c-4.9-4.9-4.9-12.8,0-17.6l7.6-7.6c-0.9,3-0.8,6.2,0.3,9.1L8.9,32c-2.2,2.2-2.2,5.9,0,8.2c2.3,2.3,5.9,2.3,8.2,0l10.7-10.7
		c1.1-1.1,1.7-2.6,1.7-4.1c0-1.5-0.6-3-1.7-4.1c-1.1-1.1-2.6-1.7-4.1-1.7l5.4-5.4C30.3,14.7,31.4,15.5,32.5,16.5z"/>
	<path fill="#FF7058" d="M16.5,32.5c-1-1-1.8-2.2-2.4-3.4c-2.2-4.6-1.5-10.4,2.4-14.2L27.2,4.1c4.9-4.9,12.8-4.9,17.6,0
		c4.9,4.9,4.9,12.8,0,17.6l-7.6,7.6c0.9-3,0.8-6.2-0.3-9.1l3.2-3.2c2.2-2.2,2.2-5.9,0-8.2c-2.3-2.3-5.9-2.3-8.2,0L21.3,19.6
		c-1.1,1.1-1.7,2.6-1.7,4.1c0,1.5,0.6,3,1.7,4.1c1.1,1.1,2.6,1.7,4.1,1.7l-5.4,5.4C18.7,34.3,17.6,33.5,16.5,32.5z"/>
</g>
</svg>
