<?xml version="1.0" encoding="utf-8"?>
<!-- Generator: Adobe Illustrator 18.0.0, SVG Export Plug-In . SVG Version: 6.00 Build 0)  -->
<!DOCTYPE svg PUBLIC "-//W3C//DTD SVG 1.1//EN" "http://www.w3.org/Graphics/SVG/1.1/DTD/svg11.dtd">
<svg version="1.1" id="Layer_1" xmlns="http://www.w3.org/2000/svg" xmlns:xlink="http://www.w3.org/1999/xlink" x="0px" y="0px"
	 viewBox="0 0 48 48" enable-background="new 0 0 48 48" xml:space="preserve">
<g>
	<path fill="#40596B" d="M46,48H2c-1.1,0-2-0.9-2-2V2c0-1.1,0.9-2,2-2h40c2.3,2.3,3.7,3.7,6,6v40C48,47.1,47.1,48,46,48z"/>
	<path fill="#F2F2F2" d="M36.8,13.8H11.2c-1.1,0-2-0.9-2-2V0h29.6v11.8C38.8,12.9,37.9,13.8,36.8,13.8z"/>
	<path fill="#F2F2F2" d="M37.8,46.7H10.2c-1.1,0-2-0.9-2-2v-16c0-1.1,0.9-2,2-2h27.6c1.1,0,2,0.9,2,2v16
		C39.8,45.8,38.9,46.7,37.8,46.7z"/>
	<g>
		<g>
			<rect x="12" y="29.8" fill="#4CDBC4" width="23.9" height="2.2"/>
			<rect x="12" y="33.7" fill="#4CDBC4" width="23.9" height="2.2"/>
			<rect x="12" y="37.6" fill="#4CDBC4" width="23.9" height="2.2"/>
		</g>
		<rect x="12" y="41.5" fill="#4CDBC4" width="23.9" height="2.2"/>
	</g>
	<path fill="#40596B" d="M33.6,10.3L33.6,10.3c-0.7,0-1.3-0.6-1.3-1.3V4.8c0-0.7,0.6-1.3,1.3-1.3l0,0c0.7,0,1.3,0.6,1.3,1.3V9
		C34.9,9.7,34.3,10.3,33.6,10.3z"/>
</g>
</svg>
