<?xml version="1.0" encoding="utf-8"?>
<!-- Generator: Adobe Illustrator 19.0.1, SVG Export Plug-In . SVG Version: 6.00 Build 0)  -->
<svg version="1.1" id="Layer_1" xmlns="http://www.w3.org/2000/svg" xmlns:xlink="http://www.w3.org/1999/xlink" x="0px" y="0px"
	 viewBox="0 0 48 48" style="enable-background:new 0 0 48 48;" xml:space="preserve">
<style type="text/css">
	.st0{fill:#415A6B;}
	.st1{fill:#ADB3BA;}
	.st2{fill:#E8EAE9;}
	.st3{fill:#55C0EB;}
	.st4{fill:#F3705A;}
	.st5{fill:#FFFFFF;}
	.st6{fill:#FFD15C;}
	.st7{fill:#344A5E;}
	.st8{fill:#CED6E0;}
	.st9{fill:#F05540;}
	.st10{fill:#F7B64C;}
	.st11{fill:#F3F3F3;}
	.st12{fill:#66C6B9;}
	.st13{fill:#4ABAA5;}
	.st14{fill:#8AD7F8;}
	.st15{fill:none;}
	.st16{fill:#E53D35;}
</style>
<g>
	<g>
		<g>
			<g>
				<g>
					<g>
						<g>
							<path class="st7" d="M14.6,37c0,0,0.7,0.3,1.3,0.3s1.7-1,1.7-1s1.6,1.2,1.9,1.3c0.3,0.1,1.8,0.2,2.1,0.1s0.4,0.1,0.4,0.3
								c0,0.1-0.7,0.5-1.1,0.6s-1.7,0.3-2.3,0.3c-0.6,0-1.4-0.2-1.8-0.1s-1.9,0.1-1.9,0.1S14.4,38.2,14.6,37z"/>
						</g>
						<g>
							<path class="st0" d="M22,37.9c0,0-0.6,0.5-1.3,0.6c-0.7,0.2-1.7,0.4-2.5,0.2s-3.5-0.2-3.5-0.2l0,0.5c0,0.1,0.1,0.2,0.2,0.2h2
								c0,0,0.1,0,0.1-0.1l0-0.4c0,0,0.5,0,1.4,0.1c0.8,0.1,2.6-0.2,3-0.4C22.3,38,22,37.9,22,37.9z"/>
						</g>
					</g>
					<g>
						<path class="st0" d="M9.6,20c0.1,0,3.2,1.9,4.2,2.6s3.6,1.9,3.6,1.9s1.1,0.5,1.2,1.1c0.1,0.5,0.9,11.2,0.9,11.2
							s-2,0.5-2.8,0.6c-0.8,0.2-2.3,0-2.3,0s0.5-4.8,0.2-7c-0.3-2.1-0.3-2.9-0.3-2.9s-3.5-0.8-4.7-0.9s-1.2-0.1-1.2-0.1
							S9.1,20.1,9.6,20z"/>
					</g>
					<g>
						<g>
							<path class="st7" d="M9.7,47.7l0.2-0.3c0,0,0-0.2-0.2-0.2c-0.3-0.1-1.1-0.2-1.5-0.4c-0.4-0.2-2-1.6-2-1.6l-3-0.2
								c0,0-0.6,0.6-0.5,1.6l0.2,0.3l1.7,0.5c0,0,1.6,0.6,3,0.6S9.7,47.7,9.7,47.7z"/>
						</g>
						<g>
							<path class="st0" d="M2.7,47.4c0.4,0.1,1.1,0.3,1.6,0.3v-0.3c0,0,1.2,0.4,1.8,0.5c0.6,0.1,2.5,0.2,3.3,0
								c0.7-0.2,0.4-0.5,0.4-0.5s-0.2,0.4-0.5,0.4c-0.3,0-2.1,0.2-3.2,0c-1-0.2-1.5-0.5-2-0.7s-1.6-0.4-1.6-0.4l-0.1,0.5
								C2.5,47.2,2.6,47.4,2.7,47.4z"/>
						</g>
					</g>
					<g>
						<path class="st0" d="M9.6,26.6c0,0-1.8,9.8-2,11.2c-0.2,1.4-0.8,8-0.8,8s-0.9,0-2.2,0c-1.3,0-1.6-0.8-1.6-0.8s0.5-1.8,0.5-2.4
							c0-0.6-0.1-5.8,0.2-7.6s0.1-7.7,0.7-9.1s5.1-0.5,5.1-0.5L9.6,26.6z"/>
					</g>
					<g>
						<g>
							<g>
								<path class="st4" d="M4,29.5l0.1-1.3c0-0.1,0.1-0.3,0.3-0.3c0,0,0,0,0,0l2.3,0.1c0.1,0,0.1,0,0.2,0.1c0,0.1,0.1,0.1,0.1,0.2
									l-0.1,1.2h0.5l0.1-1.1c0-0.2-0.1-0.4-0.2-0.6c-0.1-0.2-0.3-0.3-0.6-0.3l-2.3-0.1c-0.5,0-0.8,0.3-0.8,0.8l-0.1,1.3H4z"/>
							</g>
						</g>
						<g>
							<path class="st4" d="M10.2,37.4l-9.6-0.5c-0.3,0-0.5-0.3-0.5-0.5v-7.3c0-0.3,0.2-0.5,0.5-0.5l9.6,0.5c0.3,0,0.5,0.3,0.5,0.5
								v7.3C10.7,37.2,10.4,37.4,10.2,37.4z"/>
						</g>
					</g>
					<g>
						<g>
							<path class="st6" d="M6.2,1.1l1,0.3c0,0,0.5,1.1,0.5,1.3s0,0.3,0.1,0.4S8.5,4,8.5,4s0.1,0.2-0.1,0.3C8.2,4.4,8.1,4.5,8.1,4.5
								s0.1,0.3,0.2,0.3c0.1,0,0,0.2-0.1,0.2c0,0,0.2,0,0.2,0.3c0,0-0.3,0.3-0.2,0.5c0,0.2,0,0.7-0.6,0.8c-0.6,0-0.8,0-0.8,0
								S6.3,8.4,6,8.9C5.7,9.4,5.7,9.4,5.7,9.4L3.5,6.8l0-0.7C3.5,6.1,4,1.2,6.2,1.1z"/>
						</g>
						<g>
							<path class="st0" d="M3.5,6.1c0,0,0.9-0.1,1.1-1.3s0.8-1,0.9-0.7c0,0.2,0.1,0.5,0.1,0.5l0.3-0.1c0,0-0.1-0.6,0.1-0.9
								c0.2-0.3,0.2-1,0-1.3S6.6,1.6,7,1.5s0.7-0.9,0.4-1.1S5.9,0,4.9,0S2.6,0.5,2.1,1.1S1.4,3.2,2,4.3S3.5,6.1,3.5,6.1z"/>
						</g>
						<g>
							
								<ellipse transform="matrix(0.9828 -0.1845 0.1845 0.9828 -0.7471 1.0328)" class="st6" cx="5.2" cy="4.5" rx="0.5" ry="0.9"/>
						</g>
					</g>
					<g>
						<path class="st7" d="M3.6,7.3L3.2,7.4c0,0-1.7,1.2-2.1,3.3s3.2,16,3.2,16s4.1,0.4,5-0.3s0.7-1.8,0.7-2.9
							C10,22.3,9.7,18,9.7,18S9,14.4,8.5,13.6C8,12.8,5.1,8.2,5.1,8.2L3.6,7.3z"/>
					</g>
					<g>
						<path class="st6" d="M3.9,25.9c0,0,0.2,1.2,0.3,1.5s0.2,0.8,0.4,0.8c0.2,0,0.3-0.1,0.3-0.1s0.1,0.2,0.3,0.2s0.2-0.1,0.2-0.1
							s0.1,0.2,0.3,0.2c0.2,0,0.2-0.2,0.2-0.2s0.1,0.3,0.3,0.3c0.3,0,0.3-0.2,0.3-0.3c0-0.1-0.1-0.7-0.1-0.8c0,0,0.2,0.4,0.5,0.2
							L6.8,27c0,0-0.1-0.3-0.3-0.4c-0.2-0.2-0.8-1.1-0.8-1.1L3.9,25.9z"/>
					</g>
					<g>
						<path class="st5" d="M6,25.5l0.2,0.4c-0.9,0.4-1.7,0.8-2.5,1.1l-0.2-1.2L6,25.5z"/>
					</g>
					<g>
						<path class="st0" d="M2.2,9.2c0.6-0.9,1.4-0.7,2.2-0.1c0.1,0.1,0.2,0.2,0.2,0.2c0.3,0.4,1.1,1.7,0.8,3.4
							c-0.3,2.1-0.5,6.4-0.2,7.6c0.2,0.8,0.8,2.9,1.2,4.2c0.2,0.6-0.2,1.2-0.8,1.3c-0.7,0.2-1.7,0.4-2.3,0.6c0,0,0,0,0,0
							c-0.7,0.3-1.4-0.2-1.4-1c0-1.9-0.2-6.1-0.5-7.8C1,15.6,1.4,10.5,2.2,9.2z"/>
					</g>
					<g>
						<path class="st0" d="M3.5,6.6c0,0,0.8,0.2,1.3,0.8s2.2,2.7,2.9,3.9c0.4,0.7,1.2,3,1.4,3.5S9.7,18,9.7,18s-0.8-2.1-1.1-3.1
							s-1.6-3.6-2-4S4.2,8,3.2,7.4L3.5,6.6z"/>
					</g>
					<g>
						<path class="st5" d="M7,27.5c0,0-0.5-0.3-0.2-0.5L7,27.5z"/>
					</g>
				</g>
			</g>
		</g>
		<g>
			<polygon class="st2" points="48,29.6 48,35.7 24.6,48 12.9,48 12.9,41.9 24.6,41.9 24.6,35.7 36.3,35.7 36.3,29.6 			"/>
		</g>
	</g>
</g>
</svg>
