<?xml version="1.0" encoding="utf-8"?>
<!-- Generator: Adobe Illustrator 18.0.0, SVG Export Plug-In . SVG Version: 6.00 Build 0)  -->
<!DOCTYPE svg PUBLIC "-//W3C//DTD SVG 1.1//EN" "http://www.w3.org/Graphics/SVG/1.1/DTD/svg11.dtd">
<svg version="1.1" id="Layer_1" xmlns="http://www.w3.org/2000/svg" xmlns:xlink="http://www.w3.org/1999/xlink" x="0px" y="0px"
	 viewBox="0 0 48 48" enable-background="new 0 0 48 48" xml:space="preserve">
<g>
	<g>
		<path fill="#F3F3F3" d="M0,12.2V45c0,1.7,1.3,3,3,3h33.4L48,36.4V12.2H0z"/>
		<g>
			<path fill="#ADB3BA" d="M48,36.4l-8.6,0c-1.7,0-3,1.3-3,3l0,8.6L48,36.4z"/>
		</g>
		<path fill="#66C6B9" d="M48,12.2V3c0-1.7-1.3-3-3-3H3C1.3,0,0,1.3,0,3v9.2H48z"/>
		<g>
			<circle fill="#FFFFFF" cx="10.5" cy="6.1" r="2.5"/>
		</g>
		<g>
			<circle fill="#FFFFFF" cx="37.5" cy="6.1" r="2.5"/>
		</g>
		<g>
			<path fill="#344A5E" d="M23.4,41.2v-1.9C21,39,18.8,38,16.9,36.3l1.9-2.3c1.5,1.3,3,2.1,4.6,2.3v-5.2c-2-0.5-3.5-1.1-4.4-1.9
				c-0.9-0.8-1.4-1.9-1.4-3.5s0.5-2.8,1.6-3.8c1.1-1,2.5-1.5,4.2-1.6v-1.3h1.7v1.4c2,0.1,3.8,0.8,5.5,2l-1.7,2.5
				c-1.2-0.8-2.4-1.4-3.8-1.5v5h0.1c2,0.5,3.5,1.1,4.5,1.9c1,0.8,1.4,2,1.4,3.6c0,1.6-0.6,2.8-1.7,3.8c-1.1,1-2.6,1.5-4.4,1.6v1.9
				H23.4z M21.5,24c-0.5,0.4-0.7,0.9-0.7,1.5s0.2,1.1,0.5,1.4c0.4,0.3,1,0.7,2,1v-4.6C22.6,23.3,22,23.6,21.5,24z M27.1,35.7
				c0.5-0.4,0.7-0.9,0.7-1.5c0-0.6-0.2-1.1-0.6-1.5c-0.4-0.4-1.1-0.7-2.2-1v4.8C26,36.3,26.6,36.1,27.1,35.7z"/>
		</g>
	</g>
</g>
</svg>
