<?xml version="1.0" encoding="utf-8"?>
<!-- Generator: Adobe Illustrator 18.0.0, SVG Export Plug-In . SVG Version: 6.00 Build 0)  -->
<!DOCTYPE svg PUBLIC "-//W3C//DTD SVG 1.1//EN" "http://www.w3.org/Graphics/SVG/1.1/DTD/svg11.dtd">
<svg version="1.1" id="Layer_1" xmlns="http://www.w3.org/2000/svg" xmlns:xlink="http://www.w3.org/1999/xlink" x="0px" y="0px"
	 viewBox="0 0 48 48" enable-background="new 0 0 48 48" xml:space="preserve">
<g>
	<path fill="#4CDBC4" d="M11,40.4h8.2c0.5,0,0.9,0.3,1,0.8l1.5,6.7h20.6l-2.3-14.9l2.8-13.9v-2.4c0-4.6-1.9-8.8-4.9-11.9
		c-3.1-3.1-7.3-5-12-4.9C16.4,0.1,9.1,8,9.1,17.2v1.9l-3.7,9c-0.3,0.7,0.2,1.5,1,1.5h2.5c0.6,0,1.1,0.5,1.1,1.1v8.6
		C9.9,39.9,10.4,40.4,11,40.4z"/>
	<g>
		<circle fill="#FFFFFF" cx="26.8" cy="13.5" r="9.1"/>
		<g>
			<circle fill="#FFD15C" cx="26.8" cy="13.5" r="7.7"/>
			<circle fill="#F8B64C" cx="26.8" cy="13.5" r="6.3"/>
			<g>
				<path fill="#FFD15C" d="M26.4,16.2v-2.4c-0.8-0.2-1.3-0.5-1.7-1c-0.4-0.4-0.5-1-0.5-1.6c0-0.6,0.2-1.2,0.6-1.6
					c0.4-0.4,0.9-0.7,1.6-0.7V8.3h0.8v0.6c0.6,0.1,1.1,0.3,1.5,0.6s0.6,0.8,0.7,1.4l-1.5,0.2c-0.1-0.5-0.3-0.8-0.7-0.9v2.3
					c0.9,0.2,1.6,0.6,1.9,1c0.3,0.4,0.5,0.9,0.5,1.5c0,0.7-0.2,1.3-0.6,1.8c-0.4,0.5-1,0.8-1.8,0.9v1.1h-0.8v-1
					c-0.7-0.1-1.2-0.3-1.6-0.7c-0.4-0.4-0.7-1-0.8-1.8l1.5-0.2c0.1,0.3,0.2,0.6,0.3,0.8C26,16,26.2,16.1,26.4,16.2z M26.4,10.2
					c-0.2,0.1-0.4,0.2-0.5,0.4c-0.1,0.2-0.2,0.4-0.2,0.6c0,0.2,0.1,0.4,0.2,0.6c0.1,0.2,0.3,0.3,0.6,0.4V10.2z M27.3,16.3
					c0.3-0.1,0.5-0.2,0.7-0.4c0.2-0.2,0.3-0.5,0.3-0.8c0-0.3-0.1-0.5-0.2-0.7c-0.2-0.2-0.4-0.3-0.7-0.4V16.3z"/>
			</g>
		</g>
	</g>
</g>
</svg>
