<?xml version="1.0" encoding="utf-8"?>
<!-- Generator: Adobe Illustrator 18.0.0, SVG Export Plug-In . SVG Version: 6.00 Build 0)  -->
<!DOCTYPE svg PUBLIC "-//W3C//DTD SVG 1.1//EN" "http://www.w3.org/Graphics/SVG/1.1/DTD/svg11.dtd">
<svg version="1.1" id="Layer_1" xmlns="http://www.w3.org/2000/svg" xmlns:xlink="http://www.w3.org/1999/xlink" x="0px" y="0px"
	 viewBox="0 0 48 48" enable-background="new 0 0 48 48" xml:space="preserve">
<g>
	<polygon fill="#3DC9AE" points="27.6,15.4 25.2,3.8 4.8,8.1 6.3,15.4 	"/>
	<polygon fill="#4CDBC4" points="40.2,15.4 43.2,8.1 24.1,0 17.6,15.4 	"/>
	<ellipse transform="matrix(0.3903 -0.9207 0.9207 0.3903 -2.2987 37.0056)" fill="#4CDBC4" cx="26.8" cy="20.2" rx="4" ry="5.8"/>
	<path fill="#FF7058" d="M44.2,13.7H3c-1.7,0-3,1.3-3,3V45c0,1.7,1.3,3,3,3h41.2c1.7,0,3-1.3,3-3V16.7C47.2,15,45.8,13.7,44.2,13.7z
		"/>
	<path fill="#E8EAEA" d="M41.3,26.2c-2.6,0-4.7,2.1-4.7,4.7c0,2.6,2.1,4.7,4.7,4.7H48v-9.3H41.3z"/>
	<circle fill="#40596B" cx="41.2" cy="30.9" r="1.9"/>
</g>
</svg>
