<?xml version="1.0" encoding="utf-8"?>
<!-- Generator: Adobe Illustrator 16.0.0, SVG Export Plug-In . SVG Version: 6.00 Build 0)  -->
<!DOCTYPE svg PUBLIC "-//W3C//DTD SVG 1.1//EN" "http://www.w3.org/Graphics/SVG/1.1/DTD/svg11.dtd">
<svg version="1.1" id="Layer_1" xmlns="http://www.w3.org/2000/svg" xmlns:xlink="http://www.w3.org/1999/xlink" x="0px" y="0px"
	 width="48px" height="48px" viewBox="0 0 48 48" enable-background="new 0 0 48 48" xml:space="preserve">
<g>
	<path fill="#4CDBC4" d="M42.087,34.049L31.15,31.195l-14.186,0.004l-11.051,2.85C2.391,35.176,0,38.45,0,42.149V48h48v-5.851
		C48,38.45,45.609,35.176,42.087,34.049"/>
	<path fill="#F8B64C" d="M31.089,31.195L31.089,31.195l0.001-5.189H16.904v5.193C20.679,35.447,27.316,35.445,31.089,31.195"/>
	<path fill="#FFD15C" d="M34.355,12.178v3.4c0,0.061-0.09,3.314-0.891,5.609c-0.935,2.683-2.279,5.211-4.209,7.32l-0.99,1.08
		c-0.9,0.99-2.18,1.551-3.521,1.551h-1.5c-1.33,0-2.61-0.57-3.51-1.551l-0.979-1.08c-1.371-1.49-2.49-3.189-3.32-5
		c-0.721-1.55-1.791-4.584-1.791-8.16v-3.109c0-1.987,0.671-3.689,0.851-4.09c1.58-3.68,5.24-6.26,9.511-6.26
		c4.25,0,7.909,2.569,9.489,6.239C33.676,8.538,34.355,10.094,34.355,12.178"/>
	<path fill="#F8B64C" d="M16.875,15.723c0.156,1.795-0.715,3.338-1.945,3.445c-1.232,0.107-2.357-1.26-2.515-3.055
		s0.714-3.338,1.946-3.445C15.592,12.561,16.718,13.928,16.875,15.723"/>
	<path fill="#F8B64C" d="M35.586,16.113c-0.158,1.795-1.283,3.163-2.515,3.055c-1.231-0.107-2.103-1.65-1.946-3.445
		c0.157-1.795,1.283-3.162,2.516-3.055C34.871,12.775,35.742,14.318,35.586,16.113"/>
	<path fill="#FFD15C" d="M34.355,12.178v3.4c0,0.061-0.09,3.314-0.891,5.609c-0.935,2.683-2.279,5.211-4.209,7.32l-0.99,1.08
		c-0.9,0.99-2.18,1.551-3.521,1.551h-1.5c-1.33,0-2.61-0.57-3.51-1.551l-0.979-1.08c-1.371-1.49-2.49-3.189-3.32-5
		c-0.721-1.55-1.791-4.584-1.791-8.16v-3.109c0-1.987,0.671-3.689,0.851-4.09c1.58-3.68,5.24-6.26,9.511-6.26
		c4.25,0,7.909,2.569,9.489,6.239C33.676,8.538,34.355,10.094,34.355,12.178"/>
	<g opacity="0.1">
		<g>
			<defs>
				<rect id="SVGID_115_" x="23.164" y="26.369" width="7.926" height="7.572"/>
			</defs>
			<clipPath id="SVGID_2_">
				<use xlink:href="#SVGID_115_"  overflow="visible"/>
			</clipPath>
			<path clip-path="url(#SVGID_2_)" fill="#40596B" d="M29.256,28.516l-0.99,1.08c-0.9,0.989-2.18,1.549-3.521,1.549h-1.5
				c-0.026,0-0.054-0.008-0.081-0.008l3.727,2.805c1.563-0.498,3.021-1.412,4.199-2.738v-0.001V26.37
				c-0.072,0.039-0.162,0.082-0.242,0.123C30.358,27.195,29.838,27.878,29.256,28.516"/>
		</g>
	</g>
	<polygon fill="#40596B" points="11.873,39.029 11.873,32.513 8.686,33.334 8.686,39.029 	"/>
	<polygon fill="#40596B" points="39.314,39.029 39.314,33.326 36.127,32.494 36.127,39.029 	"/>
	<rect x="8.686" y="39.029" fill="#40596B" width="30.629" height="8.971"/>
	<rect x="9.666" y="40.629" fill="#4CDBC4" width="1.228" height="2.886"/>
	<rect x="37.107" y="40.629" fill="#4CDBC4" width="1.227" height="2.886"/>
	<path fill="#40596B" d="M24.205,0.009C24.136,0,24.07,0,24,0c-5.723,0-10.355,5.164-10.355,12.529c0,0.176,0.006,0.342,0.01,0.512
		c0.133-0.125,0.275-0.252,0.424-0.379l-0.027-0.008c0,0,5.637-3.119,10.129-2.707c4.492-0.412,10.032,2.971,10.167,3.098
		c0.004-0.17,0.009-0.34,0.009-0.516C34.355,5.252,29.826,0.145,24.205,0.009"/>
	<path fill="#F2F2F2" d="M27.127,4.373c0,0.842-1.4,1.523-3.127,1.523s-3.127-0.682-3.127-1.523c0-0.84,1.4-1.522,3.127-1.522
		S27.127,3.533,27.127,4.373"/>
	<g opacity="0.1">
		<g>
			<defs>
				<rect id="SVGID_117_" x="13.654" y="10.74" width="20.701" height="11.433"/>
			</defs>
			<clipPath id="SVGID_4_">
				<use xlink:href="#SVGID_117_"  overflow="visible"/>
			</clipPath>
			<path clip-path="url(#SVGID_4_)" fill="#40596B" d="M34.346,13.03l-1.982,0.539c-0.914,0.249-1.918,0.054-2.607-0.597
				C27.156,10.521,24,10.746,24,10.746s-0.014-0.002-0.032-0.002c-0.31-0.014-7.909,0.408-10.313,2.297l19.423,9.131
				c0.129-0.328,0.272-0.65,0.388-0.983c0.801-2.295,0.891-5.55,0.891-5.61L34.346,13.03z"/>
		</g>
	</g>
	<path fill="#F2F2F2" d="M24,8.486c-5.818,0.104-10.347,4.543-10.347,4.543l2.031,0.554c0.903,0.246,1.882,0.026,2.563-0.616
		c2.6-2.445,5.752-2.221,5.752-2.221s3.151-0.225,5.75,2.221c0.683,0.643,1.662,0.862,2.564,0.616l2.032-0.554
		C34.347,13.029,30.072,8.461,24,8.486"/>
</g>
</svg>
