<?xml version="1.0" encoding="utf-8"?>
<!-- Generator: Adobe Illustrator 18.0.0, SVG Export Plug-In . SVG Version: 6.00 Build 0)  -->
<!DOCTYPE svg PUBLIC "-//W3C//DTD SVG 1.1//EN" "http://www.w3.org/Graphics/SVG/1.1/DTD/svg11.dtd">
<svg version="1.1" id="Layer_1" xmlns="http://www.w3.org/2000/svg" xmlns:xlink="http://www.w3.org/1999/xlink" x="0px" y="0px"
	 viewBox="0 0 48 48" enable-background="new 0 0 48 48" xml:space="preserve">
<g>
	<path fill="#FF7058" d="M45.1,13.9c0.6,0.2,1.2-0.3,1.1-0.9c-1.5-9.2-12-11.5-15.1-12c-0.5-0.1-0.9,0-0.9-0.5v0
		c0-0.8-0.9-0.7-1.6-0.3c0,0-3.9,1.1-4.7,1.1c-0.7,0-4.7-1.1-4.7-1.1c-0.7-0.4-1.6-0.4-1.6,0.3v0c0,0.5-0.4,0.4-0.9,0.5
		C13.8,1.5,3.4,3.8,1.8,13c-0.1,0.6,0.5,1.1,1.1,0.9l0.5-0.2c0.7-0.2,1.3,0.5,1,1.1c-1.6,3.2-4.4,10.6-0.6,15.3
		c0.2,0.3,0.7,0.4,1,0.2l1-0.5c0.5-0.3,1.2,0.1,1.2,0.7c0,2.3,0.7,7.2,4.8,10.6c0.4,0.4,1.1,0.2,1.3-0.4l0,0
		c0.2-0.6,1.1-0.7,1.4-0.2c1.4,2,4.5,5.6,9,7.4c0.2,0.1,0.5,0.1,0.7,0c4.5-1.8,7.6-5.5,9-7.4c0.4-0.5,1.2-0.4,1.4,0.2v0
		c0.2,0.5,0.9,0.7,1.3,0.4c4.1-3.3,4.7-8.2,4.8-10.6c0-0.6,0.7-1,1.2-0.7l1,0.5c0.3,0.2,0.8,0.1,1-0.2c3.8-4.8,1-12.1-0.6-15.3
		c-0.3-0.6,0.3-1.3,1-1.1L45.1,13.9z"/>
	<g>
		<g>
			
				<ellipse transform="matrix(0.7071 -0.7071 0.7071 0.7071 -2.1298 9.5162)" fill="#F8B64C" cx="10.4" cy="7.3" rx="4.7" ry="7.5"/>
			
				<ellipse transform="matrix(0.7071 -0.7071 0.7071 0.7071 -2.1298 9.5162)" fill="#FFD15C" cx="10.4" cy="7.3" rx="3.3" ry="5.3"/>
		</g>
		<g>
			
				<ellipse transform="matrix(-0.7071 -0.7071 0.7071 -0.7071 58.9669 39.0829)" fill="#F8B64C" cx="37.6" cy="7.3" rx="4.7" ry="7.5"/>
			
				<ellipse transform="matrix(-0.7071 -0.7071 0.7071 -0.7071 58.9669 39.0829)" fill="#FFD15C" cx="37.6" cy="7.3" rx="3.3" ry="5.3"/>
		</g>
	</g>
	<path fill="#F8B64C" d="M37.4,20.9c0.5-1.4,0.7-2.9,0.7-4.5c0-7.8-6.3-14.2-14.2-14.2S9.8,8.6,9.8,16.4c0,1.6,0.3,3.1,0.7,4.5
		c0.1,0.2,3.7,12.1,3.8,12.3c1.2,4.3,5,7.4,9.7,7.4s8.5-3.1,9.7-7.4C33.7,33,37.4,21.1,37.4,20.9z"/>
	<path fill="#FFD15C" d="M28.3,23c0.2-4.2-1.2-8.5-4.3-11.7c-3,3.2-4.4,7.5-4.3,11.7c-4,1.4-6.8,4.7-6.8,8.6c0,5.1,5,9.3,11.1,9.3
		c6.1,0,11.1-4.2,11.1-9.3C35.1,27.7,32.3,24.4,28.3,23z"/>
	<path fill="#F2F2F2" d="M30.8,37.2c-3,0.3-4.6,2.8-6.8,2.9c-2.2,0-3.7-2.5-6.8-2.9c-1.2-0.2-1.8-1.5-0.7-4.1c1-2.4,3.5-6.2,7.5-6
		c4-0.2,6.6,3.6,7.5,6C32.6,35.8,32,37,30.8,37.2z"/>
	<path fill="#40596B" d="M27.7,35.1c-0.2-0.1-0.3-0.2-0.5-0.3c-0.2-0.1-0.4-0.2-0.7-0.3c-0.2-0.1-0.5-0.2-0.8-0.2
		c-0.3-0.1-0.6-0.1-0.9-0.2c-0.1,0-0.2,0-0.4,0v0c0-1.8,0.8-3.5,2.2-4.6l2.1-1.7c-2.8-2.2-6.8-2.2-9.7,0l2.1,1.7
		c1.4,1.1,2.2,2.8,2.2,4.6c-0.1,0-0.2,0-0.4,0c-0.3,0-0.6,0.1-0.9,0.2c-0.3,0.1-0.5,0.1-0.8,0.2c-0.2,0.1-0.5,0.2-0.7,0.3
		c-0.2,0.1-0.4,0.2-0.5,0.3c-0.2,0.1-0.3,0.2-0.4,0.3c-0.2,0.2-0.3,0.3-0.3,0.3s0.2,0,0.4-0.1c0.1,0,0.3-0.1,0.4-0.1
		c0.2,0,0.4-0.1,0.6-0.1c0.4-0.1,0.9-0.1,1.4-0.2c0.5,0,1.1-0.1,1.6-0.1c0.3,0,0.5,0,0.8,0c0.3,0,0.5,0,0.8,0c0.5,0.1,1,0.1,1.4,0.2
		c0.2,0,0.4,0.1,0.6,0.1c0.2,0,0.3,0.1,0.4,0.1c0.3,0.1,0.4,0.1,0.4,0.1s-0.1-0.1-0.3-0.3C28,35.3,27.9,35.2,27.7,35.1z"/>
	<g>
		<g>
			<path fill="#40596B" d="M34.4,13.4l1.5-0.4l-1.7,3.7c-0.2,0.4-0.5,0.7-0.9,0.9l-2.8,1.5c-1.6,0.8-1.8,2.4-1.8,2.4
				C28.2,17.8,30.8,14.3,34.4,13.4z"/>
			<path fill="#FF7058" d="M29.1,18.2c0.4,0.5,1,0.8,1.6,0.8l2.1-1.1c0.2-0.3,0.3-0.7,0.3-1.2c0-1-0.6-1.7-1.4-2.1
				C30.5,15.6,29.6,16.8,29.1,18.2z"/>
			<path fill="#FFFFFF" d="M30.4,15.9c-0.4,0.4-0.7,0.9-0.9,1.4c0.1,0.1,0.3,0.2,0.5,0.2c0.5,0,0.8-0.4,0.8-0.8
				C30.8,16.3,30.7,16.1,30.4,15.9z"/>
		</g>
		<g>
			<path fill="#40596B" d="M13.6,13.4L12.1,13l1.7,3.7c0.2,0.4,0.5,0.7,0.9,0.9l2.8,1.5c1.6,0.8,1.8,2.4,1.8,2.4
				C19.8,17.8,17.2,14.3,13.6,13.4z"/>
			<path fill="#FF7058" d="M18.9,18.2c-0.4,0.5-1,0.8-1.6,0.8l-2.1-1.1c-0.2-0.3-0.3-0.7-0.3-1.2c0-1,0.6-1.7,1.4-2.1
				C17.5,15.6,18.4,16.8,18.9,18.2z"/>
			<path fill="#FFFFFF" d="M17.6,15.9c0.4,0.4,0.7,0.9,0.9,1.4c-0.1,0.1-0.3,0.2-0.5,0.2c-0.5,0-0.8-0.4-0.8-0.8
				C17.2,16.3,17.3,16.1,17.6,15.9z"/>
		</g>
	</g>
	<g>
		<g>
			<path fill="#FFFFFF" d="M38.2,30.2c0.1,0,0.1,0,0.2,0c0-0.1,0-0.1,0-0.2c-2.2-1.3-4.9-1.7-7.4-1c-2.5,0.7-4.5,2.3-5.7,4.6
				c0,0.1,0,0.1,0.1,0.2c0,0,0,0,0.1,0c0,0,0.1,0,0.1-0.1c1.2-2.2,3.1-3.8,5.5-4.5C33.5,28.6,36.1,28.9,38.2,30.2z"/>
			<path fill="#FFFFFF" d="M39.1,32.6C39.1,32.7,39.2,32.7,39.1,32.6c0.1,0,0.2,0,0.2,0c0.1,0,0.1-0.1,0-0.2
				c-1.5-1.6-3.6-2.5-5.8-2.5c-2.2,0-4.3,0.9-5.8,2.5c0,0.1,0,0.1,0,0.2c0,0,0.1,0,0.2,0c1.4-1.5,3.5-2.4,5.6-2.4
				C35.6,30.3,37.7,31.1,39.1,32.6z"/>
			<path fill="#FFFFFF" d="M39.4,34.9c-0.9-1.6-2.3-2.8-4.1-3.3c-1.8-0.5-3.7-0.2-5.3,0.7c-0.1,0-0.1,0.1,0,0.2c0,0.1,0.1,0.1,0.2,0
				c1.5-0.9,3.4-1.2,5.1-0.7c1.7,0.5,3.1,1.6,3.9,3.2c0,0,0.1,0.1,0.1,0.1c0,0,0,0,0.1,0C39.4,35,39.4,34.9,39.4,34.9z"/>
		</g>
		<g>
			<path fill="#FFFFFF" d="M9.8,30.2c-0.1,0-0.1,0-0.2,0c0-0.1,0-0.1,0-0.2c2.2-1.3,4.9-1.7,7.4-1c2.5,0.7,4.5,2.3,5.7,4.6
				c0,0.1,0,0.1-0.1,0.2c0,0,0,0-0.1,0c0,0-0.1,0-0.1-0.1c-1.2-2.2-3.1-3.8-5.5-4.5C14.5,28.6,11.9,28.9,9.8,30.2z"/>
			<path fill="#FFFFFF" d="M8.9,32.6C8.9,32.7,8.8,32.7,8.9,32.6c-0.1,0-0.2,0-0.2,0c-0.1,0-0.1-0.1,0-0.2c1.5-1.6,3.6-2.5,5.8-2.5
				c2.2,0,4.3,0.9,5.8,2.5c0,0.1,0,0.1,0,0.2c0,0-0.1,0-0.2,0c-1.4-1.5-3.5-2.4-5.6-2.4C12.4,30.3,10.3,31.1,8.9,32.6z"/>
			<path fill="#FFFFFF" d="M8.6,34.9c0.9-1.6,2.3-2.8,4.1-3.3c1.8-0.5,3.7-0.2,5.3,0.7c0.1,0,0.1,0.1,0,0.2c0,0.1-0.1,0.1-0.2,0
				c-1.5-0.9-3.4-1.2-5.1-0.7c-1.7,0.5-3.1,1.6-3.9,3.2c0,0-0.1,0.1-0.1,0.1c0,0,0,0-0.1,0C8.6,35,8.6,34.9,8.6,34.9z"/>
		</g>
	</g>
</g>
</svg>
