<?xml version="1.0" encoding="utf-8"?>
<!-- Generator: Adobe Illustrator 18.0.0, SVG Export Plug-In . SVG Version: 6.00 Build 0)  -->
<!DOCTYPE svg PUBLIC "-//W3C//DTD SVG 1.1//EN" "http://www.w3.org/Graphics/SVG/1.1/DTD/svg11.dtd">
<svg version="1.1" id="Layer_1" xmlns="http://www.w3.org/2000/svg" xmlns:xlink="http://www.w3.org/1999/xlink" x="0px" y="0px"
	 viewBox="0 0 48 48" enable-background="new 0 0 48 48" xml:space="preserve">
<g>
	<g>
		<polygon fill="#F3F3F3" points="5.1,26 5.1,48 42.9,48 42.9,26 24,7.1 		"/>
		<rect x="6.5" y="5.7" fill="#F05540" width="5.4" height="11.1"/>
		<path fill="#F7B64C" d="M11,35.9c0-7.2,5.8-13,13-13s13,5.8,13,13"/>
		<path fill="#F7B64C" d="M37,35.9H11c0-7.2,5.8-13,13-13C31.2,22.9,37,28.7,37,35.9z"/>
		<path fill="#FFD15C" d="M24,22.9c-1.7,0-3.4,0.3-4.9,1v4.2c0,2.7,2.2,4.9,4.9,4.9c2.7,0,4.9-2.2,4.9-4.9v-4.2
			C27.4,23.2,25.7,22.9,24,22.9z"/>
		<path fill="#FFD15C" d="M37.1,35.6H10.9c-0.9,0-1.6,0.7-1.6,1.6c0,0.9,0.7,1.6,1.6,1.6h26.3c0.9,0,1.6-0.7,1.6-1.6
			C38.8,36.3,38,35.6,37.1,35.6z"/>
		<circle fill="#415A6B" cx="24" cy="28.1" r="3.3"/>
		<circle fill="#8AD7F8" cx="24" cy="28.1" r="2.3"/>
		<ellipse transform="matrix(0.7071 -0.7071 0.7071 0.7071 -12.423 24.1946)" fill="#FFFFFF" cx="23" cy="27.1" rx="0.6" ry="0.3"/>
		<path fill="#F3705A" d="M47.1,21.9L26.1,0.9c-1.1-1.1-3-1.1-4.1,0L0.9,21.9c-1.1,1.1-1.1,3,0,4.1s3,1.1,4.1,0l19-19l19,19
			c1.1,1.1,3,1.1,4.1,0v0C48.3,24.9,48.3,23.1,47.1,21.9z"/>
		<rect x="5" y="2.8" fill="#F3705A" width="8.5" height="4.6"/>
	</g>
</g>
</svg>
