<?xml version="1.0" encoding="utf-8"?>
<!-- Generator: Adobe Illustrator 18.0.0, SVG Export Plug-In . SVG Version: 6.00 Build 0)  -->
<!DOCTYPE svg PUBLIC "-//W3C//DTD SVG 1.1//EN" "http://www.w3.org/Graphics/SVG/1.1/DTD/svg11.dtd">
<svg version="1.1" id="Layer_1" xmlns="http://www.w3.org/2000/svg" xmlns:xlink="http://www.w3.org/1999/xlink" x="0px" y="0px"
	 viewBox="0 0 48 48" enable-background="new 0 0 48 48" xml:space="preserve">
<g>
	<g>
		<rect x="21.2" y="31.5" fill="#F8B64C" width="5.5" height="16.5"/>
		<polygon fill="#FFD15C" points="41.8,48 35.6,48 28.3,33.6 33.2,31.1 		"/>
		<polygon fill="#FFD15C" points="19.7,33.6 12.4,48 6.2,48 14.8,31.1 		"/>
		<circle fill="#F2F2F2" cx="24" cy="21.6" r="21.6"/>
		<circle fill="#40596B" cx="24" cy="21.6" r="17.1"/>
		<circle fill="#54C0EB" cx="24" cy="21.6" r="12.6"/>
		<circle fill="#FF7058" cx="24" cy="21.6" r="8"/>
		<circle fill="#FFD15C" cx="24" cy="21.6" r="3.5"/>
	</g>
	<g>
		<path fill="#334A5E" d="M37.7,9.1L24.2,19.4c-0.2,0.2-0.4,0.4-0.5,0.7h0c-0.3,1,0.4,2,1.5,1.9c0.3,0,0.6-0.1,0.8-0.3l13.4-10.3
			L37.7,9.1z"/>
		<g>
			<polygon fill="#FF7058" points="42.9,11.2 37.7,15.2 33.6,14.2 33.7,10 38.9,6 38.8,10.2 			"/>
		</g>
	</g>
</g>
</svg>
