<?xml version="1.0" encoding="utf-8"?>
<!-- Generator: Adobe Illustrator 16.0.0, SVG Export Plug-In . SVG Version: 6.00 Build 0)  -->
<!DOCTYPE svg PUBLIC "-//W3C//DTD SVG 1.1//EN" "http://www.w3.org/Graphics/SVG/1.1/DTD/svg11.dtd">
<svg version="1.1" id="Layer_1" xmlns="http://www.w3.org/2000/svg" xmlns:xlink="http://www.w3.org/1999/xlink" x="0px" y="0px"
	 width="48px" height="48px" viewBox="0 0 48 48" enable-background="new 0 0 48 48" xml:space="preserve">
<g>
	<polygon fill="#F2F2F2" points="38.497,27.541 9.503,27.541 0,48 48,48 	"/>
	<polygon fill="#84DBFF" points="32.272,28.865 10.776,28.865 4.327,44.736 43.674,44.736 40.026,35.76 26.808,32.805 	"/>
	<polygon fill="#FFD15C" points="9.491,44.736 26.124,44.736 19.943,38.082 	"/>
	<polygon fill="#CDD6E0" points="10.688,29.082 4.327,44.736 8.618,44.736 26.84,33.232 	"/>
	<polygon fill="#FFD15C" points="31.341,28.865 27.741,32.996 39.911,35.479 37.224,28.865 	"/>
	<polygon fill="#FFFFFF" points="10.776,28.865 10.264,30.129 40.463,36.836 39.608,34.732 11.872,28.865 	"/>
	<polygon fill="#FFFFFF" points="11.398,44.736 33.489,28.865 30.493,28.865 6.941,44.736 	"/>
	<polygon fill="#FFFFFF" points="20.341,36.836 18.472,38.406 24.335,44.736 28.31,44.736 	"/>
	<path fill="#FF7058" d="M35.862,11.861C35.862,23.5,24,32.172,24,32.172S12.138,23.5,12.138,11.861C12.138,5.311,17.449,0,24,0
		C30.552,0,35.862,5.311,35.862,11.861"/>
	<path fill="#FFFFFF" d="M29.649,11.834c0,3.137-2.541,5.678-5.678,5.678c-3.136,0-5.678-2.541-5.678-5.678s2.542-5.678,5.678-5.678
		C27.108,6.156,29.649,8.697,29.649,11.834"/>
</g>
</svg>
