<?xml version="1.0" encoding="utf-8"?>
<!-- Generator: Adobe Illustrator 18.0.0, SVG Export Plug-In . SVG Version: 6.00 Build 0)  -->
<!DOCTYPE svg PUBLIC "-//W3C//DTD SVG 1.1//EN" "http://www.w3.org/Graphics/SVG/1.1/DTD/svg11.dtd">
<svg version="1.1" id="Layer_1" xmlns="http://www.w3.org/2000/svg" xmlns:xlink="http://www.w3.org/1999/xlink" x="0px" y="0px"
	 viewBox="0 0 48 48" enable-background="new 0 0 48 48" xml:space="preserve">
<g>
	<path fill="#40596B" d="M3.4,17.3H2.1c-1.2,0-2.1,0.9-2.1,2.1c0,1.2,0.9,2.1,2.1,2.1h3.4v-2.1C5.4,18.2,4.5,17.3,3.4,17.3z"/>
	<path fill="#40596B" d="M44.6,17.3h1.3c1.2,0,2.1,0.9,2.1,2.1c0,1.2-0.9,2.1-2.1,2.1h-3.4v-2.1C42.6,18.2,43.5,17.3,44.6,17.3z"/>
	<path fill="#40596B" d="M10,43.9H4.9c-1.1,0-2-0.9-2-2v-7.7H12v7.7C12,43,11.1,43.9,10,43.9z"/>
	<path fill="#40596B" d="M43.2,43.9h-5.1c-1.1,0-2-0.9-2-2v-7.7h9.1v7.7C45.2,43,44.3,43.9,43.2,43.9z"/>
	<path fill="#FFD15C" d="M41.4,40.1H6.7c-2.1,0-3.9-1.5-4.2-3.6L0.9,26.4c-0.4-2.6,1.6-4.9,4.2-4.9H43c2.6,0,4.6,2.3,4.2,4.9
		l-1.6,10.1C45.3,38.6,43.5,40.1,41.4,40.1z"/>
	<path fill="#FFD15C" d="M43.2,21.5H4.9l4.2-10.8c1-2.5,3.3-4.1,6-4.1h18c2.6,0,5,1.6,6,4.1L43.2,21.5z"/>
	<path fill="#54C0EB" d="M7.2,21.5l3.7-9.5c0.6-2,2.4-3.3,4.1-3.3h18c1.7,0,3.5,1.3,4.2,3.3l3.7,9.5H7.2z"/>
	<circle fill="#FFFFFF" cx="38" cy="30.8" r="4"/>
	<circle fill="#FFFFFF" cx="10.1" cy="30.8" r="4"/>
	<circle fill="#FFFFFF" cx="38" cy="30.8" r="4"/>
	<circle fill="#FFFFFF" cx="38" cy="30.8" r="2.3"/>
	<circle fill="#FFFFFF" cx="10.1" cy="30.8" r="4"/>
	<path fill="#F2F2F2" d="M38,27.4c2.1,0,3.8,1.6,4,3.7c0-0.1,0-0.2,0-0.3c0-2.2-1.8-4-4-4c-2.2,0-4,1.8-4,4c0,0.1,0,0.2,0,0.3
		C34.2,29,35.9,27.4,38,27.4z"/>
	<path fill="#F2F2F2" d="M10.1,27.4c2.1,0,3.8,1.6,4,3.7c0-0.1,0-0.2,0-0.3c0-2.2-1.8-4-4-4c-2.2,0-4,1.8-4,4c0,0.1,0,0.2,0,0.3
		C6.3,29,8,27.4,10.1,27.4z"/>
	<rect x="2.9" y="39.7" fill="#334A5E" width="9.1" height="1.5"/>
	<rect x="36.1" y="39.7" fill="#334A5E" width="9.1" height="1.5"/>
	<path fill="#FF7058" d="M45.3,40.1H2.9c-0.8,0-1.4-0.6-1.4-1.4v-0.9c0-0.8,0.6-1.4,1.4-1.4h42.4c0.8,0,1.4,0.6,1.4,1.4v0.9
		C46.7,39.5,46.1,40.1,45.3,40.1z"/>
	<polygon fill="#FF7058" points="27.5,6.6 20.6,6.6 21.8,4.1 26.4,4.1 	"/>
	<polygon fill="#84DBFF" points="27.9,8.7 17.8,21.4 15.9,21.4 26,8.7 	"/>
	<polygon fill="#84DBFF" points="32.2,8.7 22.1,21.4 19.1,21.4 29.2,8.7 	"/>
	<path fill="#F8B64C" d="M31.3,34.8H16.8c0,0-1.1-5,0-6.1c2.6-2.6,11.9-2.6,14.5,0C32.4,29.8,31.3,34.8,31.3,34.8z"/>
</g>
</svg>
