<?xml version="1.0" encoding="utf-8"?>
<!-- Generator: Adobe Illustrator 18.0.0, SVG Export Plug-In . SVG Version: 6.00 Build 0)  -->
<!DOCTYPE svg PUBLIC "-//W3C//DTD SVG 1.1//EN" "http://www.w3.org/Graphics/SVG/1.1/DTD/svg11.dtd">
<svg version="1.1" id="Layer_1" xmlns="http://www.w3.org/2000/svg" xmlns:xlink="http://www.w3.org/1999/xlink" x="0px" y="0px"
	 viewBox="0 0 48 48" enable-background="new 0 0 48 48" xml:space="preserve">
<g>
	<g>
		<g>
			<g>
				<g>
					<path fill="#344A5E" d="M43.2,32.6v4.3h-2v-3.3H25v3.3h-2v-3.3H6.8v3.3h-2v-4.3c0-0.6,0.5-1,1-1H23v-4.3h2v4.3h17.2
						C42.8,31.6,43.2,32,43.2,32.6z"/>
				</g>
			</g>
		</g>
		<g>
			<g>
				<g>
					
						<ellipse transform="matrix(0.9947 0.1029 -0.1029 0.9947 1.3769 -3.0485)" fill="#FFD15C" cx="30.2" cy="11.8" rx="1.3" ry="2.2"/>
				</g>
			</g>
			<g>
				<g>
					
						<ellipse transform="matrix(-0.9947 0.1029 -0.1029 -0.9947 36.7772 21.744)" fill="#FFD15C" cx="17.8" cy="11.8" rx="1.3" ry="2.2"/>
				</g>
			</g>
			<g>
				<g>
					<path fill="#344A5E" d="M30.6,10.6H17.5C15.9,3.4,19,0,24,0C29.1,0,32.2,3.4,30.6,10.6z"/>
				</g>
			</g>
			<g>
				<g>
					<path fill="#344A5E" d="M38.1,29.2v-1.8c0-2.7-1.8-5.1-4.4-5.8l-4.4-1.3H18.7l-4.4,1.3c-2.6,0.8-4.4,3.1-4.4,5.8v1.8H38.1z"/>
				</g>
			</g>
			<g>
				<g>
					<g>
						<path fill="#F7B64C" d="M27.3,16.8l0,1.5c-1,2.3-2,3.5-3.3,4.9c-1.2-1.3-2.3-2.6-3.3-4.9l0-1.5c0.9-2.5,2.2-4.1,3.3-5.4
							C25.1,12.7,26.4,14.3,27.3,16.8z"/>
					</g>
				</g>
			</g>
			<g>
				<g>
					<polygon fill="#FFFFFF" points="26.7,29.2 26.8,22.3 21.1,22.3 21.3,29.2 					"/>
				</g>
			</g>
			<g>
				<g>
					<g>
						<path fill="#F3705A" d="M25,25.1l0.9-0.9c0,0-1.2-1.9-1.9-1.9s-1.9,1.9-1.9,1.9l0.9,0.9H25z"/>
					</g>
				</g>
				<g>
					<g>
						<polygon fill="#F3705A" points="25.6,29.2 25,25.1 23,25.1 22.4,29.2 						"/>
					</g>
				</g>
			</g>
			<g>
				<g>
					<g>
						<polygon fill="#F3F3F3" points="27.3,17.8 24,22.3 26.6,24.9 28.5,19.9 						"/>
					</g>
				</g>
				<g>
					<g>
						<polygon fill="#F3F3F3" points="20.7,17.8 24,22.3 21.5,24.9 19.5,19.9 						"/>
					</g>
				</g>
			</g>
			<g>
				<g>
					<g>
						<polygon fill="#415A6B" points="28.2,29.2 30.6,26.2 28.4,24 32.1,23.1 27.8,18.7 25.3,29.2 						"/>
					</g>
				</g>
				<g>
					<g>
						<polygon fill="#415A6B" points="17.4,26.2 19.9,29.2 22.8,29.2 20.2,18.7 16,23.1 19.7,24 						"/>
					</g>
				</g>
			</g>
			<g>
				<path fill="#FFD15C" d="M27.3,3.8c-1.7,1.9-4.2,3.2-7.5,3.2c-0.4,0-0.8,0-1.2-0.1c-0.4,1.1-0.7,2.4-0.7,3.7
					c0,4.5,2.8,8.1,6.2,8.1s6.2-3.6,6.2-8.1C30.2,7.7,29,5.2,27.3,3.8z"/>
			</g>
		</g>
		<g>
			<g>
				<path fill="#8AD7F8" d="M10,36H2c-1.1,0-2,0.9-2,2v8c0,1.1,0.9,2,2,2h8c1.1,0,2-0.9,2-2v-8C12,36.9,11.1,36,10,36z"/>
			</g>
			<g>
				<g>
					<rect x="2" y="38" fill="#55C0EB" width="8" height="8"/>
				</g>
			</g>
		</g>
		<g>
			<g>
				<path fill="#FFD15C" d="M28,36h-8c-1.1,0-2,0.9-2,2v8c0,1.1,0.9,2,2,2h8c1.1,0,2-0.9,2-2v-8C30,36.9,29.1,36,28,36z"/>
			</g>
			<g>
				<g>
					<rect x="20" y="38" fill="#F7B64C" width="8" height="8"/>
				</g>
			</g>
		</g>
		<g>
			<g>
				<path fill="#F3705A" d="M46,36h-8c-1.1,0-2,0.9-2,2v8c0,1.1,0.9,2,2,2h8c1.1,0,2-0.9,2-2v-8C48,36.9,47.1,36,46,36z"/>
			</g>
			<g>
				<g>
					<rect x="38" y="38" fill="#F05540" width="8" height="8"/>
				</g>
			</g>
		</g>
	</g>
</g>
</svg>
