<?xml version="1.0" encoding="utf-8"?>
<!-- Generator: Adobe Illustrator 18.0.0, SVG Export Plug-In . SVG Version: 6.00 Build 0)  -->
<!DOCTYPE svg PUBLIC "-//W3C//DTD SVG 1.1//EN" "http://www.w3.org/Graphics/SVG/1.1/DTD/svg11.dtd">
<svg version="1.1" id="Layer_1" xmlns="http://www.w3.org/2000/svg" xmlns:xlink="http://www.w3.org/1999/xlink" x="0px" y="0px"
	 viewBox="0 0 48 48" enable-background="new 0 0 48 48" xml:space="preserve">
<g>
	<path fill="#CDD6E0" d="M44,0H4C2.9,0,2,0.9,2,2v44c0,1.1,0.9,2,2,2h40c1.1,0,2-0.9,2-2V2C46,0.9,45.1,0,44,0z"/>
	<g>
		<g>
			<path fill="#F2F2F2" d="M39.9,9.1c1.7,0,3-1.4,3-3c0-1.7-1.4-3-3-3H35v6.1H39.9z"/>
			<path fill="#54C0EB" d="M35,3h-4.9c-1.7,0-3,1.4-3,3c0,1.7,1.4,3,3,3H35V3z"/>
		</g>
		<g>
			<path fill="#F2F2F2" d="M39.9,21.1c1.7,0,3-1.4,3-3s-1.4-3-3-3H35v6.1H39.9z"/>
			<path fill="#54C0EB" d="M35,15h-4.9c-1.7,0-3,1.4-3,3s1.4,3,3,3H35V15z"/>
		</g>
		<g>
			<path fill="#F2F2F2" d="M39.9,33c1.7,0,3-1.4,3-3c0-1.7-1.4-3-3-3H35V33H39.9z"/>
			<path fill="#54C0EB" d="M35,26.9h-4.9c-1.7,0-3,1.4-3,3c0,1.7,1.4,3,3,3H35V26.9z"/>
		</g>
		<g>
			<path fill="#F2F2F2" d="M39.9,45c1.7,0,3-1.4,3-3s-1.4-3-3-3H35V45H39.9z"/>
			<path fill="#54C0EB" d="M35,38.9h-4.9c-1.7,0-3,1.4-3,3s1.4,3,3,3H35V38.9z"/>
		</g>
	</g>
	<g>
		<g>
			<path fill="#F2F2F2" d="M8.1,9.1c-1.7,0-3-1.4-3-3c0-1.7,1.4-3,3-3H13v6.1H8.1z"/>
			<path fill="#54C0EB" d="M13,3h4.9c1.7,0,3,1.4,3,3c0,1.7-1.4,3-3,3H13V3z"/>
		</g>
		<g>
			<path fill="#F2F2F2" d="M8.1,21.1c-1.7,0-3-1.4-3-3s1.4-3,3-3H13v6.1H8.1z"/>
			<path fill="#54C0EB" d="M13,15h4.9c1.7,0,3,1.4,3,3s-1.4,3-3,3H13V15z"/>
		</g>
		<g>
			<path fill="#F2F2F2" d="M8.1,33c-1.7,0-3-1.4-3-3c0-1.7,1.4-3,3-3H13V33H8.1z"/>
			<path fill="#54C0EB" d="M13,26.9h4.9c1.7,0,3,1.4,3,3c0,1.7-1.4,3-3,3H13V26.9z"/>
		</g>
		<g>
			<path fill="#F2F2F2" d="M8.1,45c-1.7,0-3-1.4-3-3s1.4-3,3-3H13V45H8.1z"/>
			<path fill="#54C0EB" d="M13,38.9h4.9c1.7,0,3,1.4,3,3s-1.4,3-3,3H13V38.9z"/>
		</g>
	</g>
</g>
</svg>
