<?xml version="1.0" encoding="utf-8"?>
<!-- Generator: Adobe Illustrator 18.0.0, SVG Export Plug-In . SVG Version: 6.00 Build 0)  -->
<!DOCTYPE svg PUBLIC "-//W3C//DTD SVG 1.1//EN" "http://www.w3.org/Graphics/SVG/1.1/DTD/svg11.dtd">
<svg version="1.1" id="Layer_1" xmlns="http://www.w3.org/2000/svg" xmlns:xlink="http://www.w3.org/1999/xlink" x="0px" y="0px"
	 viewBox="0 0 48 48" enable-background="new 0 0 48 48" xml:space="preserve">
<g>
	<path fill="#F2F2F2" d="M40.3,36.5V2c0-1.1-0.9-2-2-2H2.1c-1.1,0-2,0.9-2,2v44c0,1.1,0.9,2,2,2h42v-5.5L40.3,36.5z"/>
	<polygon fill="#FF7058" points="4.3,14.4 4.3,4 36.5,4 36.5,14.4 	"/>
	<polygon fill="#84DBFF" points="4.3,28.7 4.3,16.9 15.7,16.9 15.7,28.7 	"/>
	<path fill="#CDD6E0" d="M44.1,48L44.1,48c-2.1,0-3.8-1.7-3.8-3.8V8.7h7.6v35.5C47.9,46.3,46.2,48,44.1,48z"/>
	<rect x="4.3" y="36.3" fill="#CDD6E0" width="32.2" height="2.3"/>
	<rect x="4.3" y="30.9" fill="#CDD6E0" width="32.2" height="2.3"/>
	<rect x="18.2" y="20" fill="#CDD6E0" width="18.4" height="2.3"/>
	<rect x="18.2" y="25.5" fill="#CDD6E0" width="18.4" height="2.3"/>
	<rect x="4.3" y="41.8" fill="#CDD6E0" width="32.2" height="2.3"/>
	<g>
		<circle fill="#FFFFFF" cx="10" cy="20.9" r="2.2"/>
		<path fill="#FFFFFF" d="M11.9,22.9c-0.5,0.5-1.2,0.8-1.9,0.8c-0.7,0-1.4-0.3-1.9-0.8c-1.5,0.7-2.6,2.3-2.6,4.1h9
			C14.5,25.1,13.4,23.6,11.9,22.9z"/>
	</g>
</g>
</svg>
