<?xml version="1.0" encoding="utf-8"?>
<!-- Generator: Adobe Illustrator 18.0.0, SVG Export Plug-In . SVG Version: 6.00 Build 0)  -->
<!DOCTYPE svg PUBLIC "-//W3C//DTD SVG 1.1//EN" "http://www.w3.org/Graphics/SVG/1.1/DTD/svg11.dtd">
<svg version="1.1" id="Layer_1" xmlns="http://www.w3.org/2000/svg" xmlns:xlink="http://www.w3.org/1999/xlink" x="0px" y="0px"
	 viewBox="0 0 48 48" enable-background="new 0 0 48 48" xml:space="preserve">
<g>
	<path fill="#40596B" d="M15.7,8.4l7.5,12.1l0.6,1l5.6,9c0,0,7.6,9.9,7.9,14.4c0.4,4.5,3.6,2.8,3.6,2.8s3.3-1.6,6.2-4.8
		c1.7-1.9-1.2-5.7-3.9-8.4c-2.7-2.7-5.1-5.7-7.1-8.9c0,0-0.1-0.1-0.1-0.1c-1.7-2.6-3.1-5.3-4.4-8.1c-0.3-0.8-0.7-1.6-1.2-2.5
		c-0.1-0.3-0.3-0.6-0.5-0.9C27.5,8.8,24.2,3,24.2,3L15.7,8.4z"/>
	<path fill="#334A5E" d="M15.7,8.4l7.5,12.1l0.6,1l3.7-4.8l3-1.9c-0.1-0.3-0.3-0.6-0.5-0.9C27.5,8.8,24.2,3,24.2,3L15.7,8.4z"/>
	<path fill="#CDD6E0" d="M14.7,30.9l11.8-15.3C24,11.8,21.6,8,19.1,4.2L0.4,8.5C1.3,17.8,6.6,26.1,14.7,30.9z"/>
	<path fill="#ACB3BA" d="M19.1,4.2L25.6,0c3.7,2.9,6.2,6.9,7.3,11.4l-6.5,4.2L19.1,4.2z"/>
	<path fill="#CDD6E0" d="M0.4,8.5l18.8-4.4l7.3,11.4L14.7,30.9C6.6,26.1,1.3,17.8,0.4,8.5z"/>
	<path fill="#F2F2F2" d="M0.4,8.5l1.3-0.3c1.1,8.9,6.2,16.9,13.9,21.6l-0.8,1.1C6.6,26.1,1.3,17.8,0.4,8.5z"/>
</g>
</svg>
