<?xml version="1.0" encoding="utf-8"?>
<!-- Generator: Adobe Illustrator 16.0.0, SVG Export Plug-In . SVG Version: 6.00 Build 0)  -->
<!DOCTYPE svg PUBLIC "-//W3C//DTD SVG 1.1//EN" "http://www.w3.org/Graphics/SVG/1.1/DTD/svg11.dtd">
<svg version="1.1" id="Layer_1" xmlns="http://www.w3.org/2000/svg" xmlns:xlink="http://www.w3.org/1999/xlink" x="0px" y="0px"
	 width="48px" height="48px" viewBox="0 0 48 48" enable-background="new 0 0 48 48" xml:space="preserve">
<g>
	<path fill="#F8B64C" d="M16.907,31.629v-0.004l0.003,0.002h0.001v0.002c3.553,4.705,10.621,4.705,14.176,0l0.002-0.004v0.004
		v-5.193H16.903v5.193H16.907z"/>
	<path fill="#F8B64C" d="M16.981,18.153c0.158,1.795-0.713,3.338-1.944,3.444c-1.232,0.109-2.358-1.26-2.515-3.055
		c-0.158-1.795,0.713-3.336,1.945-3.445C15.698,14.99,16.825,16.358,16.981,18.153"/>
	<path fill="#F8B64C" d="M35.488,18.543c-0.157,1.795-1.283,3.164-2.516,3.056c-1.23-0.106-2.103-1.649-1.945-3.445
		c0.156-1.795,1.283-3.163,2.516-3.055C34.773,15.205,35.646,16.748,35.488,18.543"/>
	<path fill="#FFD15C" d="M34.359,12.609v3.4c0,0.109,0,0.22-0.01,0.33c0,0.06,0,0.13-0.011,0.189c-0.011,0.551-0.05,1.09-0.12,1.631
		c-0.15,1.18-0.4,2.34-0.75,3.459c-0.85,2.711-2.279,5.211-4.21,7.319l-0.989,1.08c-0.899,0.99-2.181,1.551-3.521,1.551h-1.5
		c-1.33,0-2.61-0.569-3.511-1.551l-0.979-1.08c-1.37-1.489-2.489-3.188-3.319-5c-0.841-1.82-1.4-3.77-1.641-5.779
		c-0.07-0.531-0.109-1.08-0.12-1.621V16.43c0-0.01-0.01-0.01-0.01-0.02c-0.011-0.131-0.011-0.271-0.011-0.4
		c-0.01-0.08-0.01-0.15-0.01-0.23v-3.11c0-0.58,0.051-1.15,0.15-1.711c0.061-0.39,0.141-0.76,0.25-1.129
		c1.23-4.33,5.221-7.511,9.96-7.511c4.729,0,8.721,3.181,9.95,7.511c0.108,0.369,0.199,0.739,0.26,1.129
		C34.311,11.5,34.359,12.049,34.359,12.609"/>
	<g opacity="0.1">
		<g>
			<g>
				<defs>
					<rect id="SVGID_1_" x="21.384" y="26.55" width="9.705" height="8.291"/>
				</defs>
				<clipPath id="SVGID_2_">
					<use xlink:href="#SVGID_1_"  overflow="visible"/>
				</clipPath>
				<path clip-path="url(#SVGID_2_)" fill="#40596B" d="M29.262,28.938l-0.99,1.08c-0.9,0.989-2.181,1.549-3.521,1.549h-1.5
					c-0.647,0-1.28-0.14-1.866-0.391l4.933,3.664c1.804-0.482,3.479-1.531,4.729-3.164c0.015-0.018,0.026-0.033,0.04-0.051
					l0.003-5.075C30.536,27.384,29.939,28.191,29.262,28.938"/>
			</g>
		</g>
	</g>
	<path fill="#40596B" d="M48,40.439v7.219H0v-7.219c0-1.91,1.17-3.631,2.95-4.32l9.13-3.59l0.989-0.391l7.9,8.68l2.48-5.049v-0.012
		l0.55-1.13l0.56,1.13l2.48,5.061l7.891-8.68l0.969,0.381l0.021,0.01l9.141,3.59C46.83,36.818,48,38.529,48,40.439"/>
	<polygon fill="#CDD6E0" points="34.93,32.139 27.55,41.818 24,34.629 24.909,34.119 31.079,30.639 31.09,30.639 31.1,30.629 	"/>
	<polygon fill="#CDD6E0" points="13.069,32.139 20.46,41.818 24,34.629 23.09,34.119 16.92,30.639 16.899,30.629 	"/>
	<polygon fill="#334A5E" points="20.46,47.659 22.479,43.059 21.61,41.779 20.97,40.818 23.45,35.76 24,34.629 24.561,35.76 
		24.561,35.77 27.04,40.818 26.391,41.77 25.521,43.059 27.55,47.659 	"/>
	<polygon fill="#2A4356" points="27.04,40.818 26.391,41.77 24.01,36.898 21.61,41.779 20.97,40.818 23.45,35.759 24,34.629 
		24.561,35.759 24.561,35.77 	"/>
	<path fill="#F2F2F2" d="M38.801,46.41c0,0-0.563,0.078-0.594,0.254c0-0.176-0.596-0.254-0.596-0.254
		c-2.393-0.127-1.813-2.393-1.813-2.393c0.659-0.867,0-1.861,0-1.861l0.947-1.014c0.755,0.771,1.462,0,1.462,0s0.723,0.771,1.461,0
		l0.945,1.014c0,0-0.656,0.994,0,1.861C40.613,44.018,41.193,46.283,38.801,46.41"/>
	<polygon fill="#40596B" points="38.206,42.191 38.593,43.38 39.843,43.38 38.831,44.115 39.218,45.303 38.206,44.568 
		37.195,45.303 37.581,44.115 36.57,43.38 37.82,43.38 	"/>
	<g opacity="0.1">
		<g>
			<g>
				<defs>
					<rect id="SVGID_3_" x="13.649" y="15.244" width="20.71" height="2.386"/>
				</defs>
				<clipPath id="SVGID_4_">
					<use xlink:href="#SVGID_3_"  overflow="visible"/>
				</clipPath>
				<path clip-path="url(#SVGID_4_)" fill="#40596B" d="M13.649,15.244v0.535c0,0.08,0,0.15,0.01,0.23c0,0.13,0,0.27,0.011,0.4
					c0,0.01,0.01,0.01,0.01,0.02v0.109c1.729,0.721,3.83,1.091,5.24,1.091h10.17c1.41,0,3.521-0.37,5.25-1.101
					c0.01-0.06,0.01-0.129,0.01-0.189c0.012-0.109,0.012-0.221,0.012-0.33v-0.766L13.649,15.244L13.649,15.244z"/>
			</g>
		</g>
	</g>
	<path fill="#334A5E" d="M35.938,11.963c0.496,1.211,0.018,2.608-1.129,3.239c-1.613,0.89-4.061,1.429-5.721,1.429H18.923
		c-1.661,0-4.107-0.539-5.721-1.429c-1.146-0.631-1.627-2.028-1.127-3.239H35.938z"/>
	<path fill="#40596B" d="M36.021,12.199c-7.961,1.26-16.07,1.26-24.031,0c0.07-0.43,0.141-0.859,0.211-1.289
		c0.039-0.25,0.08-0.5,0.119-0.75c0.07-0.471,0.15-0.941,0.221-1.41c7.6,1.199,15.34,1.199,22.939,0
		c0.069,0.469,0.149,0.939,0.221,1.41c0.039,0.25,0.08,0.5,0.119,0.75C35.891,11.34,35.95,11.77,36.021,12.199"/>
	<path fill="#334A5E" d="M36.092,3.475L24.516,0.406c-0.334-0.088-0.688-0.088-1.023,0.002l-11.57,3.067
		c-1.396,0.369-1.952,2.051-1.052,3.18l1.656,2.076l0.014,0.023c0-0.002,0-0.003,0-0.004c7.599,1.199,15.336,1.199,22.937,0
		l0.012-0.02l1.654-2.076C38.044,5.525,37.486,3.844,36.092,3.475"/>
	<path fill="#CDD6E0" d="M35.818,10.91c-7.83,1.149-15.778,1.149-23.618,0c0.039-0.25,0.08-0.5,0.119-0.75
		c7.76,1.129,15.631,1.129,23.381,0C35.738,10.41,35.779,10.66,35.818,10.91"/>
	<path fill="#CDD6E0" d="M24.602,7.74c0,0-0.563,0.078-0.595,0.254c0-0.176-0.594-0.254-0.594-0.254
		c-2.394-0.127-1.815-2.393-1.815-2.393c0.659-0.867,0-1.861,0-1.861l0.948-1.013c0.754,0.771,1.461,0,1.461,0s0.722,0.771,1.461,0
		l0.947,1.013c0,0-0.658,0.994,0,1.861C26.415,5.348,26.993,7.613,24.602,7.74"/>
	<polygon fill="#334A5E" points="24.007,3.521 24.393,4.71 25.643,4.71 24.632,5.445 25.018,6.633 24.007,5.898 22.995,6.633 
		23.382,5.445 22.37,4.71 23.62,4.71 	"/>
</g>
</svg>
