<?xml version="1.0" encoding="utf-8"?>
<!-- Generator: Adobe Illustrator 18.0.0, SVG Export Plug-In . SVG Version: 6.00 Build 0)  -->
<!DOCTYPE svg PUBLIC "-//W3C//DTD SVG 1.1//EN" "http://www.w3.org/Graphics/SVG/1.1/DTD/svg11.dtd">
<svg version="1.1" id="Layer_1" xmlns="http://www.w3.org/2000/svg" xmlns:xlink="http://www.w3.org/1999/xlink" x="0px" y="0px"
	 viewBox="0 0 48 48" enable-background="new 0 0 48 48" xml:space="preserve">
<g>
	<g>
		<g>
			<g>
				<g>
					<rect x="23" y="23" fill="#415A6B" width="1.8" height="25"/>
				</g>
			</g>
			<g>
				<g>
					<g>
						<g>
							<g>
								<path fill="#4ABAA5" d="M25.6,19.7h-1l-0.2,0.2c2.8,2.7,4.8,2.3,4.8,2.3C27.8,22,26.3,20.5,25.6,19.7z"/>
							</g>
							<g>
								<path fill="#4ABAA5" d="M25.2,19.7h-1.4l-0.1,0.1c2.5,4.5,5.6,4.7,5.6,4.7C27.3,23.5,25.8,20.8,25.2,19.7z"/>
							</g>
						</g>
					</g>
					<g>
						<g>
							<g>
								<path fill="#4ABAA5" d="M22.2,19.7c-0.7,0.8-2.2,2.3-3.5,2.5c0,0,2,0.4,4.8-2.3l-0.2-0.2H22.2z"/>
							</g>
							<g>
								<path fill="#4ABAA5" d="M22.6,19.7c-0.6,1.1-2.2,3.8-4,4.7c0,0,3.1-0.2,5.6-4.7L24,19.7H22.6z"/>
							</g>
						</g>
					</g>
				</g>
				<g>
					<path fill="#66C6B9" d="M22.2,19.7c-0.1,0.4-0.2,0.8-0.2,1.2c0,2.2,0.8,3,1.9,3c1,0,1.9-0.8,1.9-3c0-0.4-0.1-0.8-0.2-1.2H22.2z
						"/>
				</g>
				<g>
					<g>
						<g>
							<path fill="#F05540" d="M23.9,15.1C19,10.9,19,4.2,23.9,0C28.7,4.2,28.7,10.9,23.9,15.1z"/>
						</g>
					</g>
					<g>
						<path fill="#F3705A" d="M31,17.1c-0.4,0.6-0.8,1.1-1.4,1.4c-3.6,3-9,2.7-12-0.4c-0.3-0.3-0.6-0.7-0.9-1.1
							c-0.9-1.4-1.3-3.4-0.8-5.3c1.3-5.3,0.8-6.8,0.3-10.1c1.9,0,7.7,6,7.7,10.1c0-4.5,5.8-10.1,7.7-10.1c-0.5,3.3-1,4.8,0.3,10.1
							C32.3,13.6,31.9,15.6,31,17.1z"/>
					</g>
				</g>
			</g>
		</g>
		<g>
			<g>
				<g>
					<path fill="#4ABAA5" d="M19,33.6c0.5-0.9,1.1-1.3,1.6-1c0.5,0.3,0.6,1.2,0.1,2.1c-0.7,1.2-2,1.4-2,1.4
						C18.7,36.1,18.4,34.8,19,33.6z"/>
				</g>
				<g>
					<g>
						<path fill="#4ABAA5" d="M19.1,28.4c-0.4,1.1-0.2,2,0.4,2.3c0.6,0.3,1.3-0.1,1.8-1.2c0.6-1.4-0.3-3-0.3-3
							C21,26.5,19.6,27,19.1,28.4z"/>
					</g>
					<g>
						<path fill="#4ABAA5" d="M20.9,30.3c-0.9-0.3-1.4,0-1.5,0.4c-0.1,0.4,0.4,0.9,1.2,1.2c1.1,0.4,1.9-0.2,1.9-0.2
							C22.6,31.7,22.1,30.7,20.9,30.3z"/>
					</g>
				</g>
			</g>
			<g>
				<g>
					<path fill="#4ABAA5" d="M12.5,28.2c2.3,1.5,4.3,2,5.3,1c1-0.9,0.4-3.5-2.7-5.5c-4.2-2.5-7.6-0.4-7.5-0.4
						C7.7,23.4,9.5,26.3,12.5,28.2z"/>
				</g>
				<g>
					<path fill="#415A6B" d="M11.2,24.6c6.3,2.9,11,9.2,12.2,16c0.2,0,0.7-0.3,1-0.3C22.8,33.2,17.5,27.2,11.2,24.6z"/>
				</g>
			</g>
		</g>
		<g>
			<g>
				<g>
					<g>
						<path fill="#4ABAA5" d="M28.9,32.5c0.4,1.1,0.2,2-0.4,2.3c-0.6,0.3-1.3-0.1-1.8-1.2c-0.6-1.4,0.3-3,0.3-3
							C27,30.6,28.4,31,28.9,32.5z"/>
					</g>
					<g>
						<path fill="#4ABAA5" d="M27.1,34.4c0.9-0.3,1.4,0,1.5,0.4c0.1,0.4-0.4,0.9-1.2,1.2c-1.1,0.4-1.9-0.2-1.9-0.2
							C25.4,35.8,25.9,34.7,27.1,34.4z"/>
					</g>
				</g>
			</g>
			<g>
				<g>
					<path fill="#4ABAA5" d="M35.5,32.3c-2.3,1.5-4.3,2-5.3,1c-1-0.9-0.4-3.5,2.7-5.5c4.2-2.5,7.6-0.4,7.5-0.4
						C40.3,27.4,38.5,30.4,35.5,32.3z"/>
				</g>
				<g>
					<path fill="#415A6B" d="M36.8,28.6c-6.3,2.9-11,9.2-12.2,16c-0.2,0-0.7-0.3-1-0.3C25.2,37.3,30.5,31.3,36.8,28.6z"/>
				</g>
			</g>
		</g>
	</g>
</g>
</svg>
