<?xml version="1.0" encoding="utf-8"?>
<!-- Generator: Adobe Illustrator 18.0.0, SVG Export Plug-In . SVG Version: 6.00 Build 0)  -->
<!DOCTYPE svg PUBLIC "-//W3C//DTD SVG 1.1//EN" "http://www.w3.org/Graphics/SVG/1.1/DTD/svg11.dtd">
<svg version="1.1" id="Layer_1" xmlns="http://www.w3.org/2000/svg" xmlns:xlink="http://www.w3.org/1999/xlink" x="0px" y="0px"
	 viewBox="0 0 48 48" enable-background="new 0 0 48 48" xml:space="preserve">
<g>
	<g>
		<g>
			<path fill="#415A6B" d="M38.8,43.9l-1.8-3.5h-6.3l3.2,6.1c0.7,1.4,2.4,1.9,3.8,1.2h0C39,47,39.5,45.3,38.8,43.9z"/>
			<path fill="#415A6B" d="M11.1,40.4l-1.8,3.5C8.5,45.3,9,47,10.4,47.7h0c1.4,0.7,3.1,0.2,3.8-1.2l3.2-6.1H11.1z"/>
		</g>
		<g>
			<g>
				<g>
					<circle fill="#FFFFFF" cx="24" cy="25.3" r="19.3"/>
					<path fill="#F3705A" d="M24,46.7c-11.8,0-21.4-9.6-21.4-21.4S12.2,3.9,24,3.9c11.8,0,21.4,9.6,21.4,21.4S35.8,46.7,24,46.7z
						 M24,8.1c-9.5,0-17.2,7.7-17.2,17.2S14.5,42.5,24,42.5c9.5,0,17.2-7.7,17.2-17.2S33.5,8.1,24,8.1z"/>
				</g>
			</g>
		</g>
		<g>
			<path fill="#415A6B" d="M2.6,15.2c-3.5-3.5-3.5-9.1,0-12.6c3.5-3.5,9.1-3.5,12.6,0"/>
		</g>
		<g>
			<path fill="#415A6B" d="M32.8,2.6c3.5-3.5,9.1-3.5,12.6,0c3.5,3.5,3.5,9.1,0,12.6"/>
		</g>
		<g>
			<path fill="#FFD15C" d="M22.8,37.1V35c-2.4-0.4-4.7-1.5-6.7-3.3l2.7-3.2c1.5,1.3,2.8,2.1,4,2.5v-4.3c-2-0.5-3.5-1.2-4.4-2.1
				c-0.9-0.9-1.4-2.1-1.4-3.7c0-1.6,0.5-3,1.6-4c1.1-1.1,2.5-1.7,4.2-1.9v-1.4h3V15c1.9,0.3,3.8,1.1,5.7,2.4l-2.3,3.4
				c-1.2-0.9-2.3-1.4-3.4-1.7v4.1c2.1,0.5,3.6,1.2,4.6,2.1c1,0.9,1.5,2.2,1.5,3.8c0,1.6-0.5,3-1.6,4.1c-1.1,1.1-2.6,1.7-4.4,1.9v2
				H22.8z M22.8,18.9c-0.8,0.3-1.2,0.8-1.2,1.6c0,0.8,0.4,1.3,1.2,1.7V18.9z M27.3,29.3c0-0.4-0.1-0.7-0.3-1
				c-0.2-0.3-0.6-0.5-1.1-0.7v3.5C26.8,30.8,27.3,30.2,27.3,29.3z"/>
		</g>
	</g>
</g>
</svg>
