<?xml version="1.0" encoding="utf-8"?>
<!-- Generator: Adobe Illustrator 18.0.0, SVG Export Plug-In . SVG Version: 6.00 Build 0)  -->
<!DOCTYPE svg PUBLIC "-//W3C//DTD SVG 1.1//EN" "http://www.w3.org/Graphics/SVG/1.1/DTD/svg11.dtd">
<svg version="1.1" id="Layer_1" xmlns="http://www.w3.org/2000/svg" xmlns:xlink="http://www.w3.org/1999/xlink" x="0px" y="0px"
	 viewBox="0 0 48 48" enable-background="new 0 0 48 48" xml:space="preserve">
<g>
	<g>
		<g>
			<g>
				<path fill="#F3F3F3" d="M8.6,30.2c-4.7,0-8.6-3.8-8.6-8.6c0-4.5,3.4-8.1,7.8-8.5C7,7,11.2,1.2,17.3,0.2
					C23.4-0.9,29.2,3,30.6,8.9c1.7-1.1,3.9-1.4,5.8-0.5c2,0.9,3.2,2.7,3.5,4.7c4.5,0.3,8.1,4,8.1,8.5c0,4.7-3.8,8.6-8.6,8.6H8.6z"/>
			</g>
		</g>
		<g>
			<g>
				
					<rect x="32.8" y="32.8" transform="matrix(0.7071 -0.7071 0.7071 0.7071 -14.579 35.1969)" fill="#344A5E" width="4.8" height="4.8"/>
			</g>
			<g>
				<g>
					<path fill="#F3705A" d="M47.5,41.3l-6.2-6.2c-0.7-0.7-1.9-0.7-2.6,0l-3.5,3.5c-0.7,0.7-0.7,1.9,0,2.6l6.2,6.2
						c0.7,0.7,1.9,0.7,2.6,0l3.5-3.5C48.2,43.2,48.2,42.1,47.5,41.3z"/>
				</g>
			</g>
			<g>
				<g>
					
						<rect x="38.2" y="34.9" transform="matrix(-0.7071 -0.7071 0.7071 -0.7071 39.214 94.6711)" fill="#FFD15C" width="2.1" height="8.7"/>
				</g>
			</g>
			<g>
				<g>
					<path fill="#415A6B" d="M34.9,34.9c-4.7,4.7-12.4,4.7-17.2,0c-4.7-4.7-4.7-12.4,0-17.2s12.4-4.7,17.2,0
						C39.6,22.5,39.6,30.2,34.9,34.9z M20.6,20.6c-3.2,3.2-3.2,8.3,0,11.5c3.2,3.2,8.3,3.2,11.5,0s3.2-8.3,0-11.5
						C28.9,17.4,23.7,17.4,20.6,20.6z"/>
				</g>
			</g>
		</g>
	</g>
</g>
</svg>
