<?xml version="1.0" encoding="utf-8"?>
<!-- Generator: Adobe Illustrator 18.0.0, SVG Export Plug-In . SVG Version: 6.00 Build 0)  -->
<!DOCTYPE svg PUBLIC "-//W3C//DTD SVG 1.1//EN" "http://www.w3.org/Graphics/SVG/1.1/DTD/svg11.dtd">
<svg version="1.1" id="Layer_1" xmlns="http://www.w3.org/2000/svg" xmlns:xlink="http://www.w3.org/1999/xlink" x="0px" y="0px"
	 viewBox="0 0 48 48" enable-background="new 0 0 48 48" xml:space="preserve">
<g>
	<polygon fill="#F2F2F2" points="13.8,35.5 18.1,42.1 29.9,42.1 34.2,35.5 	"/>
	<polygon fill="#CDD6E0" points="34.2,35.5 13.8,35.5 10.2,3.5 37.8,3.5 	"/>
	<rect x="10.2" y="0" fill="#ACB3BA" width="27.5" height="3.5"/>
	<path fill="#40596B" d="M18.1,42.1V46c0,1.1,0.9,2,2,2h7.9c1.1,0,2-0.9,2-2v-3.9H18.1z"/>
	<rect x="18.1" y="42.1" fill="#334A5E" width="11.9" height="1.7"/>
	<path fill="#FF7058" d="M32.4,16h-2.8c-0.9-2.2-3.1-3.7-5.6-3.7c-2.5,0-4.6,1.5-5.6,3.7h-2.8v4.9h2.8c0.9,2.2,3.1,3.7,5.6,3.7
		s4.6-1.5,5.6-3.7h2.8V16z"/>
</g>
</svg>
