<?xml version="1.0" encoding="utf-8"?>
<!-- Generator: Adobe Illustrator 20.1.0, SVG Export Plug-In . SVG Version: 6.00 Build 0)  -->
<!DOCTYPE svg PUBLIC "-//W3C//DTD SVG 1.1//EN" "http://www.w3.org/Graphics/SVG/1.1/DTD/svg11.dtd">
<svg version="1.1" id="Layer_1" xmlns="http://www.w3.org/2000/svg" xmlns:xlink="http://www.w3.org/1999/xlink" x="0px" y="0px"
	 viewBox="0 0 49 49" enable-background="new 0 0 49 49" xml:space="preserve">
<g>
	<path fill="#F2F2F2" d="M1,0.5c-3,14.8,8.3,28.8,23.5,28.8h0c15.2,0,26.5-14,23.5-28.8H1z"/>
	<polygon fill="#F2F2F2" points="34.1,48.5 14.9,48.5 14.9,47 22.3,44 26.7,44 34.1,47 	"/>
	<path fill="#E2E2E2" d="M26.7,29.2c-0.7,0.1-1.5,0.1-2.2,0.1l0,0c-0.8,0-1.5,0-2.2-0.1V44h4.5V29.2z"/>
	<path fill="#84DBFF" d="M2.6,10.2c0.8,3.4,2.3,6.5,4.5,9.3c4.3,5.2,10.6,8.3,17.4,8.3s13.1-3,17.4-8.3c2.2-2.8,3.8-5.9,4.5-9.3H2.6
		z"/>
	<g>
		<path fill="#FFFFFF" d="M21.2,16.5l-2.1-2.1c-0.3-0.3-0.7-0.3-0.9,0L16,16.5c-0.3,0.3-0.3,0.7,0,0.9l2.1,2.1
			c0.3,0.3,0.7,0.3,0.9,0l2.1-2.1C21.4,17.1,21.4,16.7,21.2,16.5z"/>
		<path fill="#FFFFFF" d="M24.9,19.4l-3,0.2c-0.4,0-0.6,0.3-0.6,0.7l0.2,3c0,0.4,0.3,0.6,0.7,0.6l3-0.2c0.4,0,0.6-0.3,0.6-0.7
			l-0.2-3C25.6,19.6,25.3,19.3,24.9,19.4z"/>
	</g>
</g>
</svg>
