<?xml version="1.0" encoding="utf-8"?>
<!-- Generator: Adobe Illustrator 18.0.0, SVG Export Plug-In . SVG Version: 6.00 Build 0)  -->
<!DOCTYPE svg PUBLIC "-//W3C//DTD SVG 1.1//EN" "http://www.w3.org/Graphics/SVG/1.1/DTD/svg11.dtd">
<svg version="1.1" id="Layer_1" xmlns="http://www.w3.org/2000/svg" xmlns:xlink="http://www.w3.org/1999/xlink" x="0px" y="0px"
	 viewBox="0 0 48 48" enable-background="new 0 0 48 48" xml:space="preserve">
<g>
	<path fill="#40596B" d="M34.6,48H5.8c-1.1,0-2-0.9-2-2V2c0-1.1,0.9-2,2-2h28.9c1.1,0,2,0.9,2,2v44C36.6,47.1,35.7,48,34.6,48z"/>
	<rect x="7.8" y="4" fill="#54C0EB" width="24.9" height="34"/>
	<circle fill="#334A5E" cx="20.2" cy="43" r="2.5"/>
	<path fill="#334A5E" d="M23,2.5h-5.6c-0.3,0-0.5-0.2-0.5-0.5v0c0-0.3,0.2-0.5,0.5-0.5H23c0.3,0,0.5,0.2,0.5,0.5v0
		C23.5,2.3,23.3,2.5,23,2.5z"/>
	<g>
		<circle fill="#FF7058" cx="20.2" cy="26.7" r="9.2"/>
		<path fill="#FF7058" d="M29.4,26.7c0,2.5-1,4.7-2.6,6.4c-1.7,1.7-4,2.8-6.6,2.8c-2.6,0-4.9-1.1-6.6-2.8C12,31.4,11,29.2,11,26.7
			c0-5.1,4.1-9.2,9.2-9.2C25.2,17.5,29.4,21.6,29.4,26.7z"/>
		<circle fill="#FFD15C" cx="20.2" cy="24.7" r="4"/>
		<path fill="#FFD15C" d="M26.8,33c-1.7,1.7-4,2.8-6.6,2.8c-2.6,0-4.9-1.1-6.6-2.8c0.7-1.7,2.1-3.1,3.9-3.8c0.8,0.5,1.7,0.8,2.7,0.8
			c1,0,1.9-0.3,2.7-0.8C24.6,29.9,26.1,31.3,26.8,33z"/>
	</g>
	<g>
		<path fill="#F2F2F2" d="M42,5.5H28.6c-1.2,0-2.2,1-2.2,2.2v7.4c0,1.2,1,2.2,2.2,2.2h0.3v2.7l3.3-2.7H42c1.2,0,2.2-1,2.2-2.2V7.7
			C44.2,6.5,43.3,5.5,42,5.5z"/>
		<g>
			<circle fill="#ACB3BA" cx="30.8" cy="11.4" r="1.1"/>
			<circle fill="#ACB3BA" cx="35.3" cy="11.4" r="1.1"/>
			<circle fill="#ACB3BA" cx="39.8" cy="11.4" r="1.1"/>
		</g>
	</g>
</g>
</svg>
