<?xml version="1.0" encoding="utf-8"?>
<!-- Generator: Adobe Illustrator 18.0.0, SVG Export Plug-In . SVG Version: 6.00 Build 0)  -->
<!DOCTYPE svg PUBLIC "-//W3C//DTD SVG 1.1//EN" "http://www.w3.org/Graphics/SVG/1.1/DTD/svg11.dtd">
<svg version="1.1" id="Layer_1" xmlns="http://www.w3.org/2000/svg" xmlns:xlink="http://www.w3.org/1999/xlink" x="0px" y="0px"
	 viewBox="0 0 512 512" enable-background="new 0 0 512 512" xml:space="preserve">
<g>
	<path fill="#CDD5DF" d="M397.4,2H66.1c-11.7,0-21.2,9.5-21.2,21.2v417.2c0,11.7,9.5,21.2,21.2,21.2H333l85.5-85.5V23.2
		C418.6,11.5,409.1,2,397.4,2z"/>
	<path fill="#F2F2F2" d="M445.9,50.4H114.6c-11.7,0-21.2,9.5-21.2,21.2v417.2c0,11.7,9.5,21.2,21.2,21.2h237.3l115.1-115.1V71.6
		C467.1,59.9,457.6,50.4,445.9,50.4z"/>
	<path fill="#65C5B8" d="M373.1,394.9c-11.7,0-21.2,9.5-21.2,21.2V510l115.1-115.1H373.1z"/>
	<rect x="159" y="102.9" fill="#FFD05C" width="145.6" height="26.4"/>
	<rect x="159" y="183.3" fill="#CED4DF" width="242.5" height="26.4"/>
	<rect x="159" y="263.7" fill="#CDD5DF" width="242.5" height="26.4"/>
	<rect x="159" y="344.1" fill="#ABB2B9" width="242.5" height="26.4"/>
</g>
</svg>
