<?xml version="1.0" encoding="utf-8"?>
<!-- Generator: Adobe Illustrator 18.0.0, SVG Export Plug-In . SVG Version: 6.00 Build 0)  -->
<!DOCTYPE svg PUBLIC "-//W3C//DTD SVG 1.1//EN" "http://www.w3.org/Graphics/SVG/1.1/DTD/svg11.dtd">
<svg version="1.1" id="Layer_1" xmlns="http://www.w3.org/2000/svg" xmlns:xlink="http://www.w3.org/1999/xlink" x="0px" y="0px"
	 viewBox="0 0 48 48" enable-background="new 0 0 48 48" xml:space="preserve">
<g>
	<path fill="#40596B" d="M33.8,48H5.6c-1.1,0-2-0.9-2-2V2c0-1.1,0.9-2,2-2h28.2c1.1,0,2,0.9,2,2v44C35.8,47.1,34.9,48,33.8,48z"/>
	<rect x="7.6" y="5.8" fill="#84DBFF" width="24.2" height="34.2"/>
	<path fill="#334A5E" d="M23.1,3.5h-6.8c-0.3,0-0.6-0.3-0.6-0.6l0,0c0-0.3,0.3-0.6,0.6-0.6h6.8c0.3,0,0.6,0.3,0.6,0.6l0,0
		C23.7,3.2,23.4,3.5,23.1,3.5z"/>
	<circle fill="#334A5E" cx="19.7" cy="44" r="2.6"/>
	<path fill="#F2F2F2" d="M34.4,8.5c-5.5,0-10,4.5-10,10c0,2.5,0.9,4.8,2.5,6.5l-1.7,4.5l4-2.5c1.5,0.9,3.3,1.5,5.2,1.5
		c5.5,0,10-4.5,10-10C44.4,12.9,39.9,8.5,34.4,8.5z"/>
	<g>
		<circle fill="#FFD15C" cx="34.4" cy="18.4" r="7.3"/>
		<circle fill="#F8B64C" cx="34.4" cy="18.4" r="6"/>
		<g>
			<path fill="#FFD15C" d="M34,21v-2.3c-0.7-0.2-1.2-0.5-1.6-0.9c-0.3-0.4-0.5-0.9-0.5-1.5c0-0.6,0.2-1.1,0.6-1.5
				c0.4-0.4,0.9-0.6,1.5-0.7v-0.5h0.8v0.5c0.6,0.1,1,0.3,1.4,0.6c0.3,0.3,0.6,0.8,0.7,1.3l-1.4,0.2c-0.1-0.4-0.3-0.7-0.7-0.9v2.1
				c0.9,0.2,1.5,0.5,1.8,0.9c0.3,0.4,0.5,0.9,0.5,1.5c0,0.7-0.2,1.2-0.6,1.7c-0.4,0.5-1,0.7-1.7,0.8v1H34v-1
				c-0.6-0.1-1.1-0.3-1.5-0.7c-0.4-0.4-0.6-1-0.8-1.7l1.4-0.2c0.1,0.3,0.2,0.5,0.3,0.8C33.6,20.8,33.8,20.9,34,21z M34,15.3
				c-0.2,0.1-0.4,0.2-0.5,0.4c-0.1,0.2-0.2,0.4-0.2,0.6c0,0.2,0.1,0.4,0.2,0.5c0.1,0.2,0.3,0.3,0.5,0.4V15.3z M34.8,21.1
				c0.3-0.1,0.5-0.2,0.7-0.4s0.3-0.4,0.3-0.7c0-0.2-0.1-0.5-0.2-0.6c-0.1-0.2-0.4-0.3-0.7-0.4V21.1z"/>
		</g>
	</g>
</g>
</svg>
