<?xml version="1.0" encoding="utf-8"?>
<!-- Generator: Adobe Illustrator 18.0.0, SVG Export Plug-In . SVG Version: 6.00 Build 0)  -->
<!DOCTYPE svg PUBLIC "-//W3C//DTD SVG 1.1//EN" "http://www.w3.org/Graphics/SVG/1.1/DTD/svg11.dtd">
<svg version="1.1" id="Layer_1" xmlns="http://www.w3.org/2000/svg" xmlns:xlink="http://www.w3.org/1999/xlink" x="0px" y="0px"
	 viewBox="0 0 48 48" enable-background="new 0 0 48 48" xml:space="preserve">
<g>
	<path fill="#F8B64C" d="M18.6,23.4v10.7c0,17.8,10.7,17.8,10.7,0l0-10.7H18.6z"/>
	<path fill="#FFD15C" d="M24,3.9c-5.2,0-9.4,5-9.4,12.9c0,4.4,3.6,8.3,6.3,10.6c1.7,1.5,4.3,1.5,6,0c2.7-2.3,6.3-6.2,6.3-10.6
		C33.4,8.9,29.2,3.9,24,3.9z"/>
	<path fill="#40596B" d="M33.3,17.7c0-0.3,0.1-0.6,0.1-0.9c0-3.1-0.7-5.8-1.8-7.9c-0.2,0-0.4,0-0.6,0c-2.9,0-5.3-0.8-7.2-2.2
		c-1.4,3.6-4.4,6.5-8.9,7.2c-0.1,0.9-0.2,1.8-0.2,2.8c0,0.3,0,0.7,0.1,1l-0.1-0.1c-4.7-6.8-0.4-16.3,7.9-17.5C24.4,0,25.7,0,25.7,0
		C40.8,1,34,16.2,33.3,17.7z"/>
	<g>
		<g>
			<g>
				<path fill="#F2F2F2" d="M48,48l-2.5-10.2c-0.6-2.3-2.5-4.3-5-5.1l-3.7-1.2c-2.5-0.8-5.6-2.4-7.3-4c0.1,3-5.4,6-5.4,6
					s-5.5-2.9-5.4-5.9c-1.7,1.6-4.8,3-7.3,3.8l-3.7,1.2c-2.6,0.9-4.4,2.8-5,5.1L0,48H48z"/>
			</g>
		</g>
	</g>
	<g>
		<path fill="#CDD6E0" d="M29.4,27.4c-0.7,2.5-2.8,4.4-5.4,6l3.9,3.6c2.1-2.6,3.2-5,3.8-7.9L29.4,27.4z"/>
		<path fill="#CDD6E0" d="M18.6,27.4l-2.1,1.8c0.7,2.8,1.6,5.3,3.7,7.9l3.9-3.6C21.3,31.8,19.3,29.9,18.6,27.4z"/>
	</g>
	<path fill="#FF7058" d="M28.4,32.5c-0.9-0.8-4.4,1.9-4.4,1.9s-3.5-2.8-4.4-1.9c-0.9,0.8-0.9,4.3,0,5.1c0.9,0.8,4.4-1.9,4.4-1.9
		s3.5,2.8,4.4,1.9C29.3,36.8,29.3,33.2,28.4,32.5z"/>
	<path fill="#F1543F" d="M24.7,33.5h-1.3c-0.1,0-0.2,0.1-0.2,0.2v2.6c0,0.1,0.1,0.2,0.2,0.2h1.3c0.1,0,0.2-0.1,0.2-0.2v-2.6
		C24.9,33.6,24.8,33.5,24.7,33.5z"/>
	<circle fill="#CDD6E0" cx="24" cy="39.9" r="1.3"/>
	<circle fill="#CDD6E0" cx="24" cy="45.4" r="1.3"/>
</g>
</svg>
