<?xml version="1.0" encoding="utf-8"?>
<!-- Generator: Adobe Illustrator 18.0.0, SVG Export Plug-In . SVG Version: 6.00 Build 0)  -->
<!DOCTYPE svg PUBLIC "-//W3C//DTD SVG 1.1//EN" "http://www.w3.org/Graphics/SVG/1.1/DTD/svg11.dtd">
<svg version="1.1" id="Layer_1" xmlns="http://www.w3.org/2000/svg" xmlns:xlink="http://www.w3.org/1999/xlink" x="0px" y="0px"
	 viewBox="0 0 512 512" enable-background="new 0 0 512 512" xml:space="preserve">
<g>
	<path fill="#FF7058" d="M256,510L256,510c-107.1,0-193.9-86.8-193.9-193.9v-75.2c0-11.7,9.5-21.2,21.2-21.2h345.4
		c11.7,0,21.2,9.5,21.2,21.2v75.2C449.9,423.2,363.1,510,256,510z"/>
	<path fill="#CDD6E0" d="M150,219.8v-58.8c0-58.5,47.6-106,106-106c58.5,0,106,47.6,106,106v58.8h52.9v-58.8
		C414.9,73.3,343.6,2,256,2C168.4,2,97.1,73.3,97.1,160.9v58.8H150z"/>
	<path fill="#F1543F" d="M294.5,414.5l-12-82.9c6.1-6.5,9.9-15.2,9.9-24.8c0-20.1-16.3-36.4-36.4-36.4c-20.1,0-36.4,16.3-36.4,36.4
		c0,9.6,3.8,18.3,9.9,24.8l-12,82.9H294.5z"/>
</g>
</svg>
