<?xml version="1.0" encoding="utf-8"?>
<!-- Generator: Adobe Illustrator 18.0.0, SVG Export Plug-In . SVG Version: 6.00 Build 0)  -->
<!DOCTYPE svg PUBLIC "-//W3C//DTD SVG 1.1//EN" "http://www.w3.org/Graphics/SVG/1.1/DTD/svg11.dtd">
<svg version="1.1" id="Layer_1" xmlns="http://www.w3.org/2000/svg" xmlns:xlink="http://www.w3.org/1999/xlink" x="0px" y="0px"
	 viewBox="0 0 48 48" enable-background="new 0 0 48 48" xml:space="preserve">
<g>
	<path fill="#F8B64C" d="M38.7,10.2l-4.2,4.1c0.9,0.7,1.1,0.8,1.9,1.7l4.1-4.1L38.7,10.2z"/>
	<path fill="#FFD15C" d="M41.9,7.1l1.6,1.6c0.9,0.9,0.9,2.3,0,3.1l0,0c-0.9,0.9-2.3,0.9-3.1,0l-1.6-1.6c-0.9-0.9-0.9-2.3,0-3.1v0
		C39.6,6.3,41,6.3,41.9,7.1z"/>
	<circle fill="#40596B" cx="24" cy="27.5" r="20.6"/>
	<path fill="#40596B" d="M24,45.6c-10,0-18.1-8.1-18.1-18.1S14,9.5,24,9.5s18.1,8.1,18.1,18.1S34,45.6,24,45.6z"/>
	<path fill="#F2F2F2" d="M24,43.1c-8.6,0-15.6-7-15.6-15.6S15.4,12,24,12s15.6,7,15.6,15.6S32.6,43.1,24,43.1z"/>
	<path fill="#84DBFF" d="M24,12l0,15.6h15.6C39.6,19,32.6,12,24,12z"/>
	<path fill="#F8B64C" d="M24,7c1.1,0,2.3,0.1,3.4,0.3V2.8h-6.7v4.4C21.7,7.1,22.9,7,24,7z"/>
	<path fill="#FFD15C" d="M29.5,5.1H18.5c-0.6,0-1-0.4-1-1V0.9c0-0.6,0.4-1,1-1h10.9c0.6,0,1,0.4,1,1v3.2C30.5,4.6,30,5.1,29.5,5.1z"
		/>
	<path opacity="0.1" fill="#231F20" d="M24,14c8.4,0,15.2,6.5,15.7,14.8c0-0.3,0.1-0.7,0.1-1C39.8,19.1,32.7,12,24,12
		c-8.7,0-15.8,7.1-15.8,15.8c0,0.3,0,0.7,0.1,1C8.8,20.5,15.6,14,24,14z"/>
	<g>
		<circle fill="#40596B" cx="24" cy="13.9" r="1"/>
		<circle fill="#40596B" cx="24" cy="41.2" r="1"/>
	</g>
	<g>
		<circle fill="#40596B" cx="37.6" cy="27.5" r="1"/>
		<circle fill="#40596B" cx="10.4" cy="27.5" r="1"/>
	</g>
	<g>
		<path fill="#FF7058" d="M30.2,19.5c0.4,0.3,0.5,1,0.2,1.4l-5,6.5c-0.3,0.4-1,0.5-1.4,0.2c-0.4-0.3-0.5-1-0.2-1.4l5-6.5
			C29.2,19.3,29.8,19.2,30.2,19.5z"/>
		<path opacity="0.1" fill="#231F20" d="M25.3,24.2l-1.5,1.9c-0.3,0.4-0.3,1,0.2,1.4c0.4,0.3,1,0.3,1.4-0.2l1.5-1.9
			C26.5,24.9,25.9,24.5,25.3,24.2z"/>
		<circle fill="#FF7058" cx="24" cy="27.5" r="2.6"/>
		<g>
			<circle fill="#FFFFFF" cx="24" cy="27.5" r="1.1"/>
		</g>
	</g>
</g>
</svg>
