<?xml version="1.0" encoding="utf-8"?>
<!-- Generator: Adobe Illustrator 18.0.0, SVG Export Plug-In . SVG Version: 6.00 Build 0)  -->
<!DOCTYPE svg PUBLIC "-//W3C//DTD SVG 1.1//EN" "http://www.w3.org/Graphics/SVG/1.1/DTD/svg11.dtd">
<svg version="1.1" id="Layer_1" xmlns="http://www.w3.org/2000/svg" xmlns:xlink="http://www.w3.org/1999/xlink" x="0px" y="0px"
	 viewBox="0 0 48 48" enable-background="new 0 0 48 48" xml:space="preserve">
<g>
	<rect x="28.1" y="33.8" fill="#FFD15C" width="19.9" height="8.3"/>
	<path fill="#334A5E" d="M36.3,29.7h0.3c0.4,0,0.7-0.3,0.7-0.7v-3.1c0-0.4-0.3-0.7-0.7-0.7h-0.3c0-1-0.8-1.8-1.8-1.8h-0.6v8.1h0.6
		C35.5,31.5,36.3,30.7,36.3,29.7z"/>
	<path fill="#40596B" d="M39,37.8c0-2.4-1.9-4.3-4.3-4.4V23.2c0-9.6-7.8-17.4-17.4-17.4S0,13.6,0,23.2v14c0,2.7,2.2,4.9,4.9,4.9
		h29.7h0.1v0C37.1,42.1,39,40.1,39,37.8z"/>
	<circle fill="#FF7058" cx="17.4" cy="23.8" r="13.6"/>
	<circle fill="#F2F2F2" cx="17.4" cy="23.8" r="4.8"/>
	<circle fill="#FF7058" cx="34.7" cy="37.8" r="2"/>
	<rect x="40.5" y="38.8" fill="#F8B64C" width="1" height="3.3"/>
	<rect x="43.1" y="39.7" fill="#F8B64C" width="1" height="2.5"/>
	<rect x="45.7" y="38.8" fill="#F8B64C" width="1" height="3.3"/>
	<path fill="#F95D48" d="M5.3,25.3c0-7.5,6.1-13.6,13.6-13.6c3.4,0,6.4,1.2,8.8,3.3c-2.5-2.9-6.2-4.8-10.3-4.8
		c-7.5,0-13.6,6.1-13.6,13.6c0,4.1,1.8,7.8,4.8,10.3C6.5,31.7,5.3,28.6,5.3,25.3z"/>
</g>
</svg>
