<?xml version="1.0" encoding="utf-8"?>
<!-- Generator: Adobe Illustrator 16.0.0, SVG Export Plug-In . SVG Version: 6.00 Build 0)  -->
<!DOCTYPE svg PUBLIC "-//W3C//DTD SVG 1.1//EN" "http://www.w3.org/Graphics/SVG/1.1/DTD/svg11.dtd">
<svg version="1.1" id="Layer_1" xmlns="http://www.w3.org/2000/svg" xmlns:xlink="http://www.w3.org/1999/xlink" x="0px" y="0px"
	 width="48px" height="48px" viewBox="0 0 48 48" enable-background="new 0 0 48 48" xml:space="preserve">
<g>
	
		<rect x="6.714" y="29.562" transform="matrix(0.7072 0.707 -0.707 0.7072 29.9292 4.3811)" fill="#CDD5DF" width="5.923" height="17.524"/>
	
		<rect x="9.985" y="31.149" transform="matrix(0.7073 -0.7069 0.7069 0.7073 -21.4346 19.2284)" fill="#ABB2B9" width="5.034" height="8.697"/>
	<polygon fill="#E7E9E8" points="5.574,46.614 1.386,42.427 0,45.136 2.864,47.999 	"/>
	
		<rect x="25.035" y="14.616" transform="matrix(0.7072 0.7071 -0.7071 0.7072 21.5924 -15.7463)" fill="#40596B" width="9.541" height="7.155"/>
	
		<rect x="12.236" y="26.519" transform="matrix(0.7071 -0.7071 0.7071 0.7071 -19.4441 20.0638)" fill="#40596B" width="4.522" height="13.968"/>
	<path fill="#65C5B8" d="M20.173,37.159l-9.334-9.334c-1.153-1.152-1.23-3-0.176-4.246l7.606-9.15
		c1.187-1.402,3.317-1.491,4.617-0.191l10.876,10.877c1.299,1.297,1.21,3.43-0.192,4.615l-9.149,7.607
		C23.175,38.392,21.327,38.313,20.173,37.159"/>
	<path fill="#40596B" d="M30.065,17.933C25.921,13.79,26.38,7.316,31.153,2.542l2.59,2.59c-3.326,3.328-3.772,7.526-1.088,10.211
		c2.686,2.687,6.885,2.24,10.213-1.086l2.59,2.588C40.684,21.62,34.21,22.077,30.065,17.933"/>
	<path fill="#65C5B8" d="M44.427,17.718L30.282,3.573c-0.817-0.816-0.817-2.143,0-2.96c0.818-0.817,2.143-0.817,2.961,0
		l14.144,14.144c0.817,0.817,0.817,2.143,0,2.961C46.569,18.535,45.243,18.534,44.427,17.718"/>
</g>
</svg>
