<?xml version="1.0" encoding="utf-8"?>
<!-- Generator: Adobe Illustrator 16.0.0, SVG Export Plug-In . SVG Version: 6.00 Build 0)  -->
<!DOCTYPE svg PUBLIC "-//W3C//DTD SVG 1.1//EN" "http://www.w3.org/Graphics/SVG/1.1/DTD/svg11.dtd">
<svg version="1.1" id="Layer_1" xmlns="http://www.w3.org/2000/svg" xmlns:xlink="http://www.w3.org/1999/xlink" x="0px" y="0px"
	 width="48px" height="48px" viewBox="0 0 48 48" enable-background="new 0 0 48 48" xml:space="preserve">
<g>
	<rect x="2.05" y="15.072" fill="#F2F2F2" width="43.899" height="32.918"/>
	<rect x="10.05" y="23.072" fill="#54C0EB" width="27.899" height="16.918"/>
	<polygon fill="#F1543F" points="9.609,15.072 0.015,15.072 2.009,0 10.806,0 	"/>
	<polygon fill="#CDD6E0" points="19.2,15.184 9.6,15.184 10.799,0.092 19.6,0.092 	"/>
	<polygon fill="#F1543F" points="28.797,15.072 19.203,15.072 19.602,0 28.398,0 	"/>
	<polygon fill="#CDD6E0" points="38.4,15.184 28.8,15.184 28.4,0.092 37.202,0.092 	"/>
	<polygon fill="#F1543F" points="47.985,15.072 38.392,15.072 37.194,0 45.99,0 	"/>
	<path fill="#FF7058" d="M4.801,22.092L4.801,22.092C2.148,22.092,0,19.941,0,17.291V15.08h9.6v2.211
		C9.6,19.941,7.451,22.092,4.801,22.092"/>
	<path fill="#ACB3BA" d="M14.4,22.092L14.4,22.092c-2.651,0-4.801-2.15-4.801-4.801V15.08H19.2v2.211
		C19.2,19.941,17.051,22.092,14.4,22.092"/>
	<path fill="#FF7058" d="M24,22.092L24,22.092c-2.65,0-4.8-2.15-4.8-4.801V15.08h9.6v2.211C28.8,19.941,26.65,22.092,24,22.092"/>
	<path fill="#ACB3BA" d="M33.6,22.092L33.6,22.092c-2.65,0-4.8-2.15-4.8-4.801V15.08H38.4v2.211
		C38.4,19.941,36.251,22.092,33.6,22.092"/>
	<path fill="#FF7058" d="M43.2,22.092L43.2,22.092c-2.651,0-4.8-2.15-4.8-4.801V15.08H48v2.211C48,19.941,45.852,22.092,43.2,22.092
		"/>
	<rect x="0.008" y="43.5" fill="#CDD6E0" width="47.984" height="4.5"/>
	<polygon fill="#FFFFFF" points="17.299,23.07 10.049,30.32 10.049,28.58 15.559,23.07 	"/>
	<polygon fill="#FFFFFF" points="23.609,23.07 10.049,36.631 10.049,34.021 21.009,23.07 	"/>
</g>
</svg>
