<?xml version="1.0" encoding="utf-8"?>
<!-- Generator: Adobe Illustrator 18.0.0, SVG Export Plug-In . SVG Version: 6.00 Build 0)  -->
<!DOCTYPE svg PUBLIC "-//W3C//DTD SVG 1.1//EN" "http://www.w3.org/Graphics/SVG/1.1/DTD/svg11.dtd">
<svg version="1.1" id="Layer_1" xmlns="http://www.w3.org/2000/svg" xmlns:xlink="http://www.w3.org/1999/xlink" x="0px" y="0px"
	 viewBox="0 0 48 48" enable-background="new 0 0 48 48" xml:space="preserve">
<g>
	<g>
		<path fill="#F3F3F3" d="M38.4,0H18.9C12.1,0,6.6,5.5,6.6,12.2V45c0,1.7,1.3,3,3,3h19.5c6.8,0,12.2-5.5,12.2-12.2V3
			C41.4,1.3,40,0,38.4,0z"/>
		<g>
			<path fill="#55C0EB" d="M37.4,26.2V4H18.9c-4.5,0-8.2,3.7-8.2,8.2v14H37.4z"/>
			<g>
				<g>
					<g>
						<circle fill="#FFFFFF" cx="24" cy="20.8" r="1.6"/>
					</g>
				</g>
				<g>
					<g>
						<path fill="#FFFFFF" d="M33.2,13c-0.4,0.4-1,0.4-1.4,0c-4.3-4.3-11.3-4.3-15.7,0c-0.4,0.4-1,0.4-1.4,0c-0.4-0.4-0.4-1,0-1.4
							c5.1-5.1,13.3-5.1,18.4,0C33.6,12,33.6,12.6,33.2,13z"/>
					</g>
					<g>
						<path fill="#FFFFFF" d="M30.5,15.7c-0.4,0.4-1,0.4-1.4,0c-2.8-2.8-7.3-2.8-10.1,0c-0.4,0.4-1,0.4-1.4,0c-0.4-0.4-0.4-1,0-1.4
							c3.6-3.6,9.3-3.6,12.9,0C30.8,14.7,30.8,15.4,30.5,15.7z"/>
					</g>
					<g>
						<path fill="#FFFFFF" d="M27.7,18.5c-0.4,0.4-1,0.4-1.4,0c-1.3-1.3-3.3-1.3-4.6,0c-0.4,0.4-1,0.4-1.4,0c-0.4-0.4-0.4-1,0-1.4
							c2-2,5.3-2,7.4,0C28.1,17.5,28.1,18.1,27.7,18.5z"/>
					</g>
				</g>
			</g>
		</g>
		<g>
			<g>
				<circle fill="#FFD15C" cx="13.8" cy="37.1" r="2.2"/>
				<circle fill="#FFD15C" cx="21.2" cy="37.1" r="2.2"/>
			</g>
			<circle fill="#F3705A" cx="17.5" cy="33.4" r="2.2"/>
			<circle fill="#F3705A" cx="17.5" cy="40.8" r="2.2"/>
		</g>
		<g>
			<g>
				<circle fill="#415A6B" cx="31.7" cy="37.1" r="4.6"/>
			</g>
			<g>
				<circle fill="#F3705A" cx="31.7" cy="37.1" r="3.1"/>
			</g>
		</g>
	</g>
</g>
</svg>
