<?xml version="1.0" encoding="utf-8"?>
<!-- Generator: Adobe Illustrator 18.0.0, SVG Export Plug-In . SVG Version: 6.00 Build 0)  -->
<!DOCTYPE svg PUBLIC "-//W3C//DTD SVG 1.1//EN" "http://www.w3.org/Graphics/SVG/1.1/DTD/svg11.dtd">
<svg version="1.1" id="Layer_1" xmlns="http://www.w3.org/2000/svg" xmlns:xlink="http://www.w3.org/1999/xlink" x="0px" y="0px"
	 viewBox="0 0 512 512" enable-background="new 0 0 512 512" xml:space="preserve">
<g>
	<polygon fill="#40596B" points="256,230.5 256,94.4 53.7,157.4 53.7,230.5 	"/>
	<polygon fill="#334A5E" points="458.3,230.5 458.3,157.4 256,94.4 256,230.5 	"/>
	<polygon fill="#FFD15C" points="307.5,312.8 256,220.5 256,509.9 458.3,446.9 458.3,265.7 	"/>
	<polygon fill="#F8B64C" points="53.7,157.4 53.7,446.9 256,509.9 256,220.5 	"/>
	<polygon fill="#CDD6E0" points="2.1,249.7 204.4,312.8 256,220.5 53.7,157.4 	"/>
	<polygon fill="#CDD6E0" points="256,220.5 458.3,157.4 509.9,249.7 307.6,312.8 	"/>
	<polygon fill="#CDD6E0" points="509.9,249.7 458.3,265.7 458.3,157.4 	"/>
	<polygon fill="#CDD6E0" points="509.9,249.7 458.3,265.7 458.3,157.4 	"/>
	<g>
		<polygon fill="#CDD6E0" points="509.9,65.1 307.6,2.1 256,94.4 458.3,157.4 		"/>
		<polygon fill="#CDD6E0" points="256,94.4 53.7,157.4 2.1,65.1 204.4,2.1 		"/>
	</g>
</g>
</svg>
