<?xml version="1.0" encoding="utf-8"?>
<!-- Generator: Adobe Illustrator 18.0.0, SVG Export Plug-In . SVG Version: 6.00 Build 0)  -->
<!DOCTYPE svg PUBLIC "-//W3C//DTD SVG 1.1//EN" "http://www.w3.org/Graphics/SVG/1.1/DTD/svg11.dtd">
<svg version="1.1" id="Layer_1" xmlns="http://www.w3.org/2000/svg" xmlns:xlink="http://www.w3.org/1999/xlink" x="0px" y="0px"
	 viewBox="0 0 48 48" enable-background="new 0 0 48 48" xml:space="preserve">
<g>
	<path fill="#CDD6E0" d="M35,18.4L24.2,8.5l-10.8,9.9c-7,6.4-11,16.7-4,23.1l8.6,4.2c3.5,3.2,9.1,3.2,12.5,0l8.6-4.2
		C45.9,35.1,41.9,24.7,35,18.4z"/>
	<g>
		<g>
			<path fill="#40596B" d="M10.6,3.2L3.6,0L3.2,7.7c-0.4,7.1,5.5,13,12.6,12.6l0,0C19.5,14.1,17,6.2,10.6,3.2z"/>
			<path fill="#334A5E" d="M11.7,7.1L6.4,4.6L6,10.5c-0.3,5.5,4.2,10,9.8,9.7l0,0C18.6,15.5,16.8,9.4,11.7,7.1z"/>
		</g>
		<g>
			<path fill="#40596B" d="M37.4,3.2l7-3.2l0.4,7.7c0.4,7.1-5.5,13-12.6,12.6l0,0C28.5,14.1,31,6.2,37.4,3.2z"/>
			<path fill="#334A5E" d="M36.3,7.1l5.4-2.5l0.3,5.9c0.3,5.5-4.2,10-9.8,9.7l0,0C29.4,15.5,31.2,9.4,36.3,7.1z"/>
		</g>
	</g>
	<path fill="#40596B" d="M41.5,15.7C35,1.5,13.4,1.5,6.9,15.7c-1.1,2.3-1.5,4.9-1.6,7.5c0,1.8-0.1,6.6-0.1,6.8
		c-0.5,3.1,3.1,5,5.6,3.1c0,0,0.1-0.1,0.1-0.1c1.7-1.3,4.1,4.4,5.1,6.3c1.5,3,4.6,5,8.2,5c3.6,0,6.7-2.1,8.2-5
		c1-1.9,3.4-7.5,5.1-6.3c0,0,0.1,0.1,0.1,0.1c2.5,2,6.1,0,5.6-3.1c0-0.2-0.1-4.9-0.1-6.8C43,20.7,42.5,18.1,41.5,15.7z"/>
	<path fill="#F2F2F2" d="M43.1,30c0-0.2-0.1-4.9-0.1-6.8c0-0.2-0.1-0.6-0.1-0.9c-1-3-2.8-5.3-5.3-6.4c-2.7-1.1-5.6-0.4-8.1,1.4
		c-3.1,2.3-7.5,2.3-10.7,0c-2.5-1.9-5.5-2.5-8.1-1.4c-2.5,1-4.3,3.4-5.3,6.4c0,0.2-0.1,0.6-0.1,0.9c0,1.8-0.1,6.6-0.1,6.8
		c-0.5,3.1,3.1,5,5.6,3.1c0,0,0.1-0.1,0.1-0.1c1.7-1.3,4.1,4.4,5.1,6.3c1.5,3,4.6,5,8.2,5c3.6,0,6.7-2.1,8.2-5
		c1-1.9,3.4-7.5,5.1-6.3c0,0,0.1,0.1,0.1,0.1C40,35,43.6,33.1,43.1,30z"/>
	<g>
		<g>
			<path fill="#40596B" d="M35.1,23.2c0,1.9-1.6,3.5-3.5,3.5c-1.2,0-2.3-0.6-2.9-1.5c-0.4-0.6,4.3-5.3,4.9-4.9
				C34.5,21,35.1,22,35.1,23.2z"/>
			<circle fill="#FF7058" cx="32.2" cy="23.8" r="1.8"/>
			<circle fill="#FFFFFF" cx="33.4" cy="22.8" r="0.7"/>
			<path fill="#40596B" d="M28.9,26.9c0,0-0.1-0.2-0.2-0.5c-0.1-0.1-0.1-0.3-0.2-0.5c0-0.2-0.1-0.5-0.1-0.8c0-0.3,0-0.6,0.1-0.9
				c0-0.3,0.2-0.6,0.3-1c0.1-0.3,0.3-0.7,0.5-1c0.2-0.3,0.5-0.6,0.7-0.9c0.3-0.3,0.6-0.5,0.9-0.7c0.3-0.2,0.6-0.4,1-0.5
				c0.3-0.1,0.7-0.2,1-0.3c0.3-0.1,0.6-0.1,0.9-0.1c0.3,0,0.5,0,0.7,0.1c0.2,0,0.4,0.1,0.6,0.2c0.3,0.1,0.5,0.2,0.5,0.2
				s-0.2,0.1-0.4,0.3c-0.3,0.1-0.6,0.4-1,0.6c-0.8,0.5-1.6,1.2-2.4,1.9c-0.8,0.8-1.4,1.6-1.9,2.4c-0.2,0.4-0.5,0.7-0.6,1
				C29,26.7,28.9,26.9,28.9,26.9z"/>
			<path opacity="0.1" fill="#231F20" d="M34,21.1c-0.8,0.5-1.6,1.2-2.4,1.9c-0.8,0.8-1.4,1.6-1.9,2.4c-0.1,0.2-0.2,0.4-0.3,0.5
				c0.3,0.2,0.6,0.4,0.9,0.5c0-0.1,0.1-0.1,0.1-0.2l0.2-0.3c0.4-0.6,1-1.4,1.8-2.2c0.8-0.8,1.6-1.4,2.2-1.8l0.1-0.1
				c0.1,0,0.1-0.1,0.2-0.1c-0.1-0.3-0.3-0.6-0.5-0.9C34.2,21,34.1,21.1,34,21.1z"/>
		</g>
		<g>
			<path fill="#40596B" d="M13.2,23.2c0,1.9,1.6,3.5,3.5,3.5c1.2,0,2.3-0.6,2.9-1.5c0.4-0.6-4.3-5.3-4.9-4.9
				C13.8,21,13.2,22,13.2,23.2z"/>
			<circle fill="#FF7058" cx="16.1" cy="23.8" r="1.8"/>
			<circle fill="#FFFFFF" cx="14.9" cy="22.8" r="0.7"/>
			<path fill="#40596B" d="M19.4,26.9c0,0,0.1-0.2,0.2-0.5c0.1-0.1,0.1-0.3,0.2-0.5c0-0.2,0.1-0.5,0.1-0.8c0-0.3,0-0.6-0.1-0.9
				c0-0.3-0.2-0.6-0.3-1c-0.1-0.3-0.3-0.7-0.5-1c-0.2-0.3-0.5-0.6-0.7-0.9c-0.3-0.3-0.6-0.5-0.9-0.7c-0.3-0.2-0.6-0.4-1-0.5
				c-0.3-0.1-0.7-0.2-1-0.3c-0.3-0.1-0.6-0.1-0.9-0.1c-0.3,0-0.5,0-0.7,0.1c-0.2,0-0.4,0.1-0.6,0.2c-0.3,0.1-0.5,0.2-0.5,0.2
				s0.2,0.1,0.4,0.3c0.3,0.1,0.6,0.4,1,0.6c0.8,0.5,1.6,1.2,2.4,1.9c0.8,0.8,1.4,1.6,1.9,2.4c0.2,0.4,0.5,0.7,0.6,1
				C19.3,26.7,19.4,26.9,19.4,26.9z"/>
			<path opacity="0.1" fill="#231F20" d="M14.3,21.1c0.8,0.5,1.6,1.2,2.4,1.9c0.8,0.8,1.4,1.6,1.9,2.4c0.1,0.2,0.2,0.4,0.3,0.5
				c-0.3,0.2-0.6,0.4-0.9,0.5c0-0.1-0.1-0.1-0.1-0.2L17.7,26c-0.4-0.6-1-1.4-1.8-2.2c-0.8-0.8-1.6-1.4-2.2-1.8l-0.1-0.1
				c-0.1,0-0.1-0.1-0.2-0.1c0.1-0.3,0.3-0.6,0.5-0.9C14.1,21,14.2,21.1,14.3,21.1z"/>
		</g>
	</g>
	<path fill="#ACB3BA" d="M28.5,41.8c-2.9-1.2-3.5-3-4.1-5.1c-0.1-0.3-0.3-0.3-0.4,0c-0.6,2-1.2,3.8-4.1,5.1c-0.3,0.1-0.3,1.1,0,1.1
		h8.5C28.8,42.9,28.8,41.9,28.5,41.8z"/>
	<ellipse fill="#FFFFFF" cx="24.2" cy="37.4" rx="7.1" ry="4.3"/>
	<path fill="#40596B" d="M28.7,34.9c-0.1-1.1-1.1-1.9-2.2-1.9h-4.3c-1.5,0-2.5,0.8-2.6,1.9c0,0.7,0.2,1.3,0.7,1.7
		c0.4,0.3,0.8,0.7,1,1.2c0.5,0.9,1.4,1.5,2.4,1.5h0.7c1.1,0,2-0.6,2.4-1.5c0.2-0.5,0.6-0.8,1-1.2C28.4,36.2,28.7,35.6,28.7,34.9z"/>
</g>
</svg>
