<?xml version="1.0" encoding="utf-8"?>
<!-- Generator: Adobe Illustrator 18.0.0, SVG Export Plug-In . SVG Version: 6.00 Build 0)  -->
<!DOCTYPE svg PUBLIC "-//W3C//DTD SVG 1.1//EN" "http://www.w3.org/Graphics/SVG/1.1/DTD/svg11.dtd">
<svg version="1.1" id="Layer_1" xmlns="http://www.w3.org/2000/svg" xmlns:xlink="http://www.w3.org/1999/xlink" x="0px" y="0px"
	 viewBox="0 0 48 48" enable-background="new 0 0 48 48" xml:space="preserve">
<g>
	<g>
		<path fill="#F2F2F2" d="M12.7,14.4c-2.9-0.3-5.9-0.4-8.8,0c0-2.5,0-4.9,0-7.4c2.9-0.4,5.9-0.3,8.8,0C12.7,9.5,12.7,12,12.7,14.4z"
			/>
		<path fill="#40596B" d="M21.6,15.8c-2.9-0.5-5.9-1.1-8.8-1.4c0-2.5,0-4.9,0-7.4c2.9,0.3,5.9,0.9,8.8,1.4
			C21.6,10.9,21.6,13.3,21.6,15.8z"/>
		<path fill="#F2F2F2" d="M30.4,17c-2.9-0.2-5.9-0.7-8.8-1.2c0-2.5,0-4.9,0-7.4c2.9,0.5,5.9,1,8.8,1.2C30.4,12.1,30.4,14.5,30.4,17z
			"/>
		<path fill="#40596B" d="M39.2,16.5c-2.9,0.6-5.9,0.7-8.8,0.5c0-2.5,0-4.9,0-7.4c2.9,0.2,5.9,0.1,8.8-0.5
			C39.2,11.6,39.2,14,39.2,16.5z"/>
		<path fill="#F2F2F2" d="M48,12.8c-2.9,1.9-5.9,3.1-8.8,3.7c0-2.5,0-4.9,0-7.4c2.9-0.6,5.9-1.8,8.8-3.7C48,7.9,48,10.3,48,12.8z"/>
		<path fill="#F2F2F2" d="M12.7,29.2c-2.9-0.3-5.9-0.4-8.8,0c0-2.5,0-4.9,0-7.4c2.9-0.4,5.9-0.3,8.8,0
			C12.7,24.3,12.7,26.7,12.7,29.2z"/>
		<path fill="#40596B" d="M21.6,30.6c-2.9-0.5-5.9-1.1-8.8-1.4c0-2.5,0-4.9,0-7.4c2.9,0.3,5.9,0.9,8.8,1.4
			C21.6,25.7,21.6,28.1,21.6,30.6z"/>
		<path fill="#F2F2F2" d="M30.4,31.8c-2.9-0.2-5.9-0.7-8.8-1.2c0-2.5,0-4.9,0-7.4c2.9,0.5,5.9,1,8.8,1.2
			C30.4,26.9,30.4,29.3,30.4,31.8z"/>
		<path fill="#40596B" d="M39.2,31.3c-2.9,0.6-5.9,0.7-8.8,0.5c0-2.5,0-4.9,0-7.4c2.9,0.2,5.9,0.1,8.8-0.5
			C39.2,26.4,39.2,28.8,39.2,31.3z"/>
		<path fill="#F2F2F2" d="M48,27.6c-2.9,1.9-5.9,3.1-8.8,3.7c0-2.5,0-4.9,0-7.4c2.9-0.6,5.9-1.8,8.8-3.7C48,22.7,48,25.1,48,27.6z"
			/>
		<path fill="#40596B" d="M12.7,21.8c-2.9-0.3-5.9-0.4-8.8,0c0-2.5,0-4.9,0-7.4c2.9-0.4,5.9-0.3,8.8,0
			C12.7,16.9,12.7,19.3,12.7,21.8z"/>
		<path fill="#F2F2F2" d="M21.6,23.2c-2.9-0.5-5.9-1.1-8.8-1.4c0-2.5,0-4.9,0-7.4c2.9,0.3,5.9,0.9,8.8,1.4
			C21.6,18.3,21.6,20.7,21.6,23.2z"/>
		<path fill="#40596B" d="M30.4,24.4c-2.9-0.2-5.9-0.7-8.8-1.2c0-2.5,0-4.9,0-7.4c2.9,0.5,5.9,1,8.8,1.2
			C30.4,19.5,30.4,21.9,30.4,24.4z"/>
		<path fill="#F2F2F2" d="M39.2,23.9c-2.9,0.6-5.9,0.7-8.8,0.5c0-2.5,0-4.9,0-7.4c2.9,0.2,5.9,0.1,8.8-0.5
			C39.2,19,39.2,21.4,39.2,23.9z"/>
		<path fill="#40596B" d="M48,20.2c-2.9,1.9-5.9,3.1-8.8,3.7c0-2.5,0-4.9,0-7.4c2.9-0.6,5.9-1.8,8.8-3.7C48,15.3,48,17.7,48,20.2z"
			/>
		<path fill="#40596B" d="M12.7,36.6c-2.9-0.3-5.9-0.4-8.8,0c0-2.5,0-4.9,0-7.4c2.9-0.4,5.9-0.3,8.8,0
			C12.7,31.7,12.7,34.1,12.7,36.6z"/>
		<path fill="#F2F2F2" d="M21.6,38c-2.9-0.5-5.9-1.1-8.8-1.4c0-2.5,0-4.9,0-7.4c2.9,0.3,5.9,0.9,8.8,1.4C21.6,33,21.6,35.5,21.6,38z
			"/>
		<path fill="#40596B" d="M30.4,39.2c-2.9-0.2-5.9-0.7-8.8-1.2c0-2.5,0-4.9,0-7.4c2.9,0.5,5.9,1,8.8,1.2
			C30.4,34.2,30.4,36.7,30.4,39.2z"/>
		<path fill="#F2F2F2" d="M39.2,38.7c-2.9,0.6-5.9,0.7-8.8,0.5c0-2.5,0-4.9,0-7.4c2.9,0.2,5.9,0.1,8.8-0.5
			C39.2,33.8,39.2,36.2,39.2,38.7z"/>
		<path fill="#40596B" d="M48,35c-2.9,1.9-5.9,3.1-8.8,3.7c0-2.5,0-4.9,0-7.4c2.9-0.6,5.9-1.8,8.8-3.7C48,30.1,48,32.5,48,35z"/>
	</g>
	<g>
		<rect x="1" y="3.6" fill="#84DBFF" width="3.4" height="44.4"/>
		<circle fill="#54C0EB" cx="2.7" cy="2.7" r="2.7"/>
	</g>
</g>
</svg>
