<?xml version="1.0" encoding="utf-8"?>
<!-- Generator: Adobe Illustrator 19.0.1, SVG Export Plug-In . SVG Version: 6.00 Build 0)  -->
<svg version="1.1" id="Layer_1" xmlns="http://www.w3.org/2000/svg" xmlns:xlink="http://www.w3.org/1999/xlink" x="0px" y="0px"
	 viewBox="0 0 48 48" style="enable-background:new 0 0 48 48;" xml:space="preserve">
<style type="text/css">
	.st0{fill:#415A6B;}
	.st1{fill:#ADB3BA;}
	.st2{fill:#E8EAE9;}
	.st3{fill:#55C0EB;}
	.st4{fill:#F3705A;}
	.st5{fill:#FFFFFF;}
	.st6{fill:#FFD15C;}
	.st7{fill:#344A5E;}
	.st8{fill:#CED6E0;}
	.st9{fill:#F05540;}
	.st10{fill:#F7B64C;}
	.st11{fill:#F3F3F3;}
	.st12{fill:#66C6B9;}
	.st13{fill:#4ABAA5;}
	.st14{fill:#8AD7F8;}
	.st15{fill:none;}
	.st16{fill:#E53D35;}
</style>
<g>
	<g>
		<g>
			<g>
				<rect x="18.1" y="37.6" class="st8" width="11.9" height="10.4"/>
			</g>
			<g>
				<g>
					<path class="st7" d="M37.2,48v-8.1c0-1.5-1-2.7-2.4-3.1l-4.2-1.2L25.9,48H37.2z"/>
					<path class="st7" d="M22.1,48l-4.7-12.4l-4.2,1.2c-1.4,0.4-2.4,1.7-2.4,3.1V48H22.1z"/>
				</g>
			</g>
			<g>
				<g>
					<g>
						<polygon class="st4" points="25.2,40.9 26.2,39.8 24,37.6 21.8,39.8 22.8,40.9 						"/>
					</g>
					<g>
						<polygon class="st9" points="26.2,48 25.2,40.9 22.8,40.9 21.8,48 						"/>
					</g>
				</g>
				<g>
					<g>
						<g>
							<g>
								<path class="st11" d="M27.9,33.3c0,0,0,1.1-0.7,1.7S24,37.6,24,37.6l2.4,4.1l3-6.2C29.3,35.5,28.8,33.7,27.9,33.3z"/>
							</g>
							<g>
								<path class="st0" d="M26.2,42.1c-0.3,1.3-0.9,3.4-1.3,5.9h2.4c0-0.1,0.1-0.2,0.1-0.3c1-2.2,4.2-8.4,4.2-8.4L29.9,38l1.6,0
									c0,0-0.1-1.9-1-2.6c-0.9-0.6-1.2-0.9-1.6-1.4c-0.3-0.5-0.8-0.6-0.8-0.6s0.6,1.3,0.4,2.2C28.3,36.5,26.8,39.3,26.2,42.1z"/>
							</g>
						</g>
					</g>
					<g>
						<g>
							<g>
								<path class="st11" d="M20.1,33.3c0,0,0,1.1,0.7,1.7s3.2,2.6,3.2,2.6l-2.4,4.1l-3-6.2C18.7,35.5,19.2,33.7,20.1,33.3z"/>
							</g>
							<g>
								<path class="st0" d="M20.6,47.7c0,0.1,0.1,0.2,0.1,0.3h2.4c-0.5-2.5-1-4.6-1.3-5.9c-0.6-2.8-2.2-5.6-2.3-6.5
									c-0.2-0.9,0.4-2.2,0.4-2.2s-0.4,0.1-0.8,0.6c-0.4,0.6-0.6,0.8-1.6,1.4c-0.9,0.6-1,2.6-1,2.6l1.6,0l-1.7,1.3
									C16.5,39.3,19.7,45.5,20.6,47.7z"/>
							</g>
						</g>
					</g>
				</g>
				<g>
					<g>
						<path class="st10" d="M20.1,31l0,2.3c0,0,0,1.1,0.7,1.7c0.7,0.6,3.2,2.6,3.2,2.6s2.5-2,3.2-2.6c0.7-0.6,0.7-1.7,0.7-1.7l0-2.3
							H20.1z"/>
					</g>
				</g>
				<g>
					<g>
						<path class="st6" d="M29.1,28.8c0,0-0.9,6.7-5.1,6.7s-4.7-5.4-4.7-5.9s-0.7-4.2,0.5-6.7c1.1-2.5,5.5-2.9,7.4-1.9
							s2.3,1.2,2.4,2.5C29.6,24.7,29.4,27.9,29.1,28.8z"/>
					</g>
					<g>
						<g>
							<g>
								<path class="st6" d="M30.5,28.2c-0.1,1-0.7,1.9-1.2,1.9s-0.9-0.8-0.7-1.9c0.1-1,0.7-1.9,1.2-1.9S30.6,27.2,30.5,28.2z"/>
							</g>
						</g>
						<g>
							<g>
								<path class="st6" d="M17.6,28.2c0.1,1,0.7,1.9,1.2,1.9s0.9-0.8,0.7-1.9c-0.1-1-0.7-1.9-1.2-1.9
									C17.8,26.4,17.5,27.2,17.6,28.2z"/>
							</g>
						</g>
					</g>
					<g>
						<g>
							<path class="st0" d="M30.3,24.4c0,1.5-0.5,3-1.1,4.3l0,0.1c0,0-0.7-5-0.7-5.5c0-0.6-0.6-1.1-1.2-1c-1.9,0.4-3.8,0.4-5.6,0
								c-0.6-0.1-1.2,0.4-1.2,1c0,0.5-1.2,4.5-1.2,5.3c-0.5-1.3-0.9-2.7-1.1-4c-0.1-0.7-0.1-1.4,0-2c0.6-4,4.8-4.7,7.6-4.1
								c3.6,0.8,4.3,4,4.5,5.1C30.3,23.8,30.3,24.1,30.3,24.4z"/>
						</g>
					</g>
				</g>
			</g>
		</g>
		<g>
			<g>
				<circle class="st0" cx="9.3" cy="9.3" r="9.3"/>
			</g>
			<g>
				<circle class="st5" cx="9.3" cy="9.3" r="6.5"/>
			</g>
			<g>
				<circle class="st4" cx="9.3" cy="7" r="2.7"/>
				<path class="st4" d="M9.3,15.9c2,0,3.9-0.9,5.1-2.4c-1.1-1.6-2.9-2.7-5.1-2.7s-4,1.1-5.1,2.7C5.5,14.9,7.3,15.9,9.3,15.9z"/>
			</g>
		</g>
		<g>
			<g>
				<circle class="st12" cx="38.7" cy="9.3" r="9.3"/>
			</g>
			<g>
				<circle class="st5" cx="38.7" cy="9.3" r="6.5"/>
			</g>
			<g>
				<circle class="st0" cx="38.7" cy="7" r="2.7"/>
				<path class="st0" d="M38.7,15.9c2,0,3.9-0.9,5.1-2.4c-1.1-1.6-2.9-2.7-5.1-2.7s-4,1.1-5.1,2.7C34.8,14.9,36.6,15.9,38.7,15.9z"
					/>
			</g>
		</g>
		<g>
			<g>
				<polygon class="st4" points="41,26.3 38.9,25.6 36.4,33.3 33.3,32.4 35.8,24.6 33.7,24 38.7,20.8 				"/>
			</g>
			<g>
				<polygon class="st4" points="7.1,26.3 9.1,25.6 11.6,33.3 14.7,32.4 12.2,24.6 14.3,24 9.3,20.8 				"/>
			</g>
		</g>
	</g>
</g>
</svg>
