<?xml version="1.0" encoding="utf-8"?>
<!-- Generator: Adobe Illustrator 18.0.0, SVG Export Plug-In . SVG Version: 6.00 Build 0)  -->
<!DOCTYPE svg PUBLIC "-//W3C//DTD SVG 1.1//EN" "http://www.w3.org/Graphics/SVG/1.1/DTD/svg11.dtd">
<svg version="1.1" id="Layer_1" xmlns="http://www.w3.org/2000/svg" xmlns:xlink="http://www.w3.org/1999/xlink" x="0px" y="0px"
	 viewBox="0 0 48 48" enable-background="new 0 0 48 48" xml:space="preserve">
<g>
	<g>
		<g>
			<path fill="#415A6B" d="M26.3,0L26.3,0c-2.2,0-3.9,1.8-3.9,3.9V48h7.9V3.9C30.2,1.8,28.4,0,26.3,0z"/>
		</g>
		<g>
			<g>
				<polygon fill="#F3F3F3" points="15.1,15.9 26.1,8.6 35.1,18.3 38.1,18.7 26.4,6 12,15.5 				"/>
			</g>
		</g>
		<g>
			<path fill="#FFD15C" d="M40,38.4L5.5,34.3c-1.1-0.1-1.9-1.1-1.7-2.2l2-16.8c0.1-1.1,1.1-1.9,2.2-1.7l34.6,4.1
				c1.1,0.1,1.9,1.1,1.7,2.2l-2,16.8C42.1,37.8,41.1,38.6,40,38.4z"/>
		</g>
		<g>
			<path fill="#F3F3F3" d="M41.7,48c-2.2-3.5-8.3-6.1-15.4-6.1S13.1,44.5,10.9,48H41.7z"/>
		</g>
		<g>
			<circle fill="#F3705A" cx="26.3" cy="7.1" r="2.4"/>
		</g>
		<g>
			<g>
				<path fill="#F3705A" d="M9.9,29.7c0.4,0,0.7-0.1,1-0.3l0.4,0.6c-0.5,0.4-1,0.6-1.5,0.5c-0.5-0.1-1-0.3-1.3-0.7
					c-0.3-0.4-0.4-0.8-0.4-1.4c0.1-0.5,0.3-0.9,0.7-1.3c0.4-0.3,0.9-0.4,1.4-0.4c0.6,0.1,1,0.3,1.4,0.8l-0.6,0.5
					c-0.2-0.3-0.5-0.5-0.9-0.6c-0.3,0-0.6,0-0.8,0.2c-0.2,0.2-0.4,0.4-0.4,0.7c0,0.3,0,0.6,0.2,0.8C9.4,29.5,9.6,29.6,9.9,29.7z"/>
				<path fill="#F3705A" d="M14.6,27.3l0.8,0.1L14.9,31l-0.8-0.1l0.2-1.4l-1.4-0.2l-0.2,1.4l-0.8-0.1l0.4-3.5l0.8,0.1L13,28.6
					l1.4,0.2L14.6,27.3z"/>
				<path fill="#F3705A" d="M18.9,29c-0.1,0.6-0.3,0.9-0.8,1l0.7,1.4l-1-0.1l-0.6-1.2L16.7,30l-0.1,1.1l-0.8-0.1l0.4-3.5l1.3,0.2
					c0.6,0.1,0.9,0.2,1.1,0.4C18.9,28.3,19,28.6,18.9,29z M17.9,29.4c0.1-0.1,0.2-0.2,0.2-0.4c0-0.2,0-0.3-0.1-0.4
					c-0.1-0.1-0.3-0.1-0.5-0.2l-0.6-0.1l-0.1,1l0.6,0.1C17.6,29.4,17.8,29.4,17.9,29.4z"/>
				<path fill="#F3705A" d="M19.9,28l0.8,0.1l-0.4,3.5l-0.8-0.1L19.9,28z"/>
				<path fill="#F3705A" d="M22.3,29c-0.1,0.1-0.1,0.1-0.1,0.2c0,0.1,0,0.2,0.1,0.3c0.1,0.1,0.3,0.2,0.6,0.3
					c0.3,0.1,0.6,0.3,0.7,0.5c0.2,0.2,0.2,0.4,0.2,0.8c0,0.3-0.2,0.6-0.4,0.7c-0.3,0.2-0.6,0.2-1,0.2c-0.6-0.1-1-0.3-1.4-0.8
					l0.5-0.5c0.3,0.4,0.7,0.6,1,0.6c0.1,0,0.3,0,0.4-0.1c0.1-0.1,0.1-0.1,0.2-0.2c0-0.1,0-0.2-0.1-0.3c-0.1-0.1-0.2-0.2-0.5-0.3
					c-0.4-0.1-0.7-0.3-0.9-0.5c-0.2-0.2-0.2-0.4-0.2-0.8c0-0.3,0.2-0.6,0.5-0.7c0.3-0.2,0.6-0.2,0.9-0.2c0.2,0,0.5,0.1,0.7,0.2
					c0.2,0.1,0.4,0.2,0.6,0.4l-0.5,0.5c-0.3-0.3-0.6-0.4-0.9-0.5C22.5,28.9,22.4,28.9,22.3,29z"/>
				<path fill="#F3705A" d="M26.2,29.4l-0.3,2.9L25,32.2l0.3-2.9l-1-0.1l0.1-0.7l2.8,0.3l-0.1,0.7L26.2,29.4z"/>
				<path fill="#F3705A" d="M30.9,30.6l-1.2,1.8l-0.5-0.1l-0.7-2.1l-0.3,2.2l-0.8-0.1l0.4-3.5l1.1,0.1l0.7,2.1l1.2-1.8l1.1,0.1
					l-0.4,3.5l-0.8-0.1L30.9,30.6z"/>
				<path fill="#F3705A" d="M34.8,33.3l-0.2-0.8l-1.5-0.2l-0.4,0.7L31.8,33l2-3.4l0.8,0.1l1.1,3.7L34.8,33.3z M34,30.7l-0.6,1
					l0.9,0.1L34,30.7z"/>
				<path fill="#F3705A" d="M37.2,30.8C37.1,30.8,37,30.9,37,31c0,0.1,0,0.2,0.1,0.3c0.1,0.1,0.3,0.2,0.6,0.3
					c0.3,0.1,0.6,0.3,0.7,0.5c0.2,0.2,0.2,0.4,0.2,0.8c0,0.3-0.2,0.6-0.4,0.7c-0.3,0.2-0.6,0.2-1,0.2c-0.6-0.1-1-0.3-1.4-0.8
					l0.5-0.5c0.3,0.4,0.7,0.6,1,0.6c0.1,0,0.3,0,0.4-0.1c0.1-0.1,0.1-0.1,0.2-0.2c0-0.1,0-0.2-0.1-0.3c-0.1-0.1-0.2-0.2-0.5-0.3
					c-0.4-0.1-0.7-0.3-0.9-0.5c-0.2-0.2-0.2-0.4-0.2-0.8c0-0.3,0.2-0.6,0.5-0.7c0.3-0.2,0.6-0.2,0.9-0.2c0.2,0,0.5,0.1,0.7,0.2
					c0.2,0.1,0.4,0.2,0.6,0.4l-0.5,0.5c-0.3-0.3-0.6-0.4-0.9-0.5C37.4,30.7,37.3,30.7,37.2,30.8z"/>
			</g>
			<g>
				<path fill="#F3705A" d="M14.5,21l-2,3.1L11.7,24l-1.2-3.4l-0.4,3.7l-1.3-0.2l0.7-6l1.8,0.2l1.1,3.5l1.9-3.1l1.8,0.2l-0.7,6
					l-1.3-0.2L14.5,21z"/>
				<path fill="#F3705A" d="M21.9,19.7l-0.1,1.2l-3-0.4l-0.1,1.2l2.7,0.3l-0.1,1.1l-2.7-0.3l-0.1,1.2l3.1,0.4l-0.1,1.2l-4.4-0.5
					l0.7-6L21.9,19.7z"/>
				<path fill="#F3705A" d="M27.7,22.4c-0.1,1-0.6,1.5-1.4,1.7l1.3,2.3L26,26.2l-1.1-2.1L24,24l-0.2,1.9l-1.3-0.2l0.7-6l2.3,0.3
					c0.9,0.1,1.6,0.3,1.9,0.7C27.7,21.1,27.8,21.7,27.7,22.4z M26,22.9c0.2-0.1,0.3-0.4,0.3-0.7c0-0.3,0-0.6-0.2-0.7
					c-0.2-0.1-0.4-0.2-0.9-0.3l-1-0.1l-0.2,1.8l1,0.1C25.5,23,25.9,23,26,22.9z"/>
				<path fill="#F3705A" d="M33.9,23.1c-0.1,1-0.6,1.5-1.4,1.7l1.3,2.3l-1.6-0.2l-1.1-2.1l-0.9-0.1l-0.2,1.9l-1.3-0.2l0.7-6l2.3,0.3
					c0.9,0.1,1.6,0.3,1.9,0.7C33.9,21.9,34,22.4,33.9,23.1z M32.2,23.6c0.2-0.1,0.3-0.4,0.3-0.7c0-0.3,0-0.6-0.2-0.7
					c-0.2-0.1-0.4-0.2-0.9-0.3l-1-0.1l-0.2,1.8l1,0.1C31.7,23.8,32.1,23.8,32.2,23.6z"/>
				<path fill="#F3705A" d="M37.2,27.5l-1.3-0.2l0.3-2.4l-1.6-3.9l1.4,0.2l1,2.4l1.6-2.1l1.4,0.2l-2.5,3.4L37.2,27.5z"/>
			</g>
		</g>
	</g>
</g>
</svg>
