<?xml version="1.0" encoding="utf-8"?>
<!-- Generator: Adobe Illustrator 16.0.0, SVG Export Plug-In . SVG Version: 6.00 Build 0)  -->
<!DOCTYPE svg PUBLIC "-//W3C//DTD SVG 1.1//EN" "http://www.w3.org/Graphics/SVG/1.1/DTD/svg11.dtd">
<svg version="1.1" id="Layer_1" xmlns="http://www.w3.org/2000/svg" xmlns:xlink="http://www.w3.org/1999/xlink" x="0px" y="0px"
	 width="48px" height="48px" viewBox="0 0 48 48" enable-background="new 0 0 48 48" xml:space="preserve">
<g>
	<path fill="#40596B" d="M37.683,34.502H2c-1.104,0-2-0.895-2-2V10.666c0-1.104,0.896-2,2-2h35.683c1.104,0,2,0.896,2,2v21.836
		C39.683,33.607,38.787,34.502,37.683,34.502"/>
	<rect y="15.303" fill="#334A5E" width="39.682" height="5.045"/>
	<path fill="#54C0EB" d="M46,39.334H10.317c-1.104,0-2-0.896-2-2V15.496c0-1.104,0.896-2,2-2H46c1.104,0,2,0.896,2,2v21.838
		C48,38.438,47.104,39.334,46,39.334"/>
	<path fill="#F2F2F2" d="M19.841,20.76c0,2.354-1.908,4.262-4.262,4.262s-4.262-1.908-4.262-4.262c0-2.355,1.908-4.264,4.262-4.264
		S19.841,18.404,19.841,20.76"/>
	<rect x="11.317" y="26.74" fill="#F2F2F2" width="6.543" height="2.473"/>
	<rect x="20.364" y="26.74" fill="#F2F2F2" width="6.541" height="2.473"/>
	<rect x="29.411" y="26.74" fill="#F2F2F2" width="6.541" height="2.473"/>
	<rect x="38.458" y="26.74" fill="#F2F2F2" width="6.542" height="2.473"/>
	<rect x="11.317" y="32.525" fill="#CDD6E0" width="18.094" height="2.473"/>
	<rect x="35.555" y="31.189" fill="#FF7058" width="9.445" height="5.145"/>
</g>
</svg>
