<?xml version="1.0" encoding="utf-8"?>
<!-- Generator: Adobe Illustrator 18.0.0, SVG Export Plug-In . SVG Version: 6.00 Build 0)  -->
<!DOCTYPE svg PUBLIC "-//W3C//DTD SVG 1.1//EN" "http://www.w3.org/Graphics/SVG/1.1/DTD/svg11.dtd">
<svg version="1.1" id="Layer_1" xmlns="http://www.w3.org/2000/svg" xmlns:xlink="http://www.w3.org/1999/xlink" x="0px" y="0px"
	 viewBox="0 0 48 48" enable-background="new 0 0 48 48" xml:space="preserve">
<g>
	<g>
		<path fill="#F3F3F3" d="M28.2,23.6V6.1c0-3.3-2.7-6.1-6.1-6.1c-3.3,0-6.1,2.7-6.1,6.1v17.6c-4.1,2.2-6.9,6.5-6.9,11.4
			C9.2,42.2,15,48,22.2,48c7.1,0,12.9-5.8,12.9-12.9C35.1,30.1,32.3,25.8,28.2,23.6z"/>
		<path fill="#F3705A" d="M30.7,35.1c0,4.7-3.9,8.6-8.6,8.6c-4.7,0-8.6-3.9-8.6-8.6c0-3.9,2.7-7.3,6.3-8.3v-9.2h4.7v9.2
			C28.1,27.8,30.7,31.1,30.7,35.1z"/>
		
			<ellipse transform="matrix(0.7071 0.7071 -0.7071 0.7071 29.8266 -8.9151)" fill="#FFFFFF" cx="25.7" cy="31.5" rx="2.9" ry="1.4"/>
		<g>
			<path fill="#F3F3F3" d="M37.8,6h-5.4c-0.5,0-1-0.4-1-1v0c0-0.5,0.4-1,1-1h5.4c0.5,0,1,0.4,1,1v0C38.8,5.6,38.3,6,37.8,6z"/>
			<path fill="#F3F3F3" d="M37.8,11.2h-5.4c-0.5,0-1-0.4-1-1v0c0-0.5,0.4-1,1-1l5.4,0c0.5,0,1,0.4,1,1v0
				C38.8,10.8,38.3,11.2,37.8,11.2z"/>
			<path fill="#F3F3F3" d="M37.8,16.4h-5.4c-0.5,0-1-0.4-1-1v0c0-0.5,0.4-1,1-1h5.4c0.5,0,1,0.4,1,1v0
				C38.8,15.9,38.3,16.4,37.8,16.4z"/>
			<path fill="#F3F3F3" d="M37.8,21.5h-5.4c-0.5,0-1-0.4-1-1v0c0-0.5,0.4-1,1-1h5.4c0.5,0,1,0.4,1,1v0
				C38.8,21.1,38.3,21.5,37.8,21.5z"/>
		</g>
	</g>
</g>
</svg>
