<?xml version="1.0" encoding="utf-8"?>
<!-- Generator: Adobe Illustrator 18.0.0, SVG Export Plug-In . SVG Version: 6.00 Build 0)  -->
<!DOCTYPE svg PUBLIC "-//W3C//DTD SVG 1.1//EN" "http://www.w3.org/Graphics/SVG/1.1/DTD/svg11.dtd">
<svg version="1.1" id="Layer_1" xmlns="http://www.w3.org/2000/svg" xmlns:xlink="http://www.w3.org/1999/xlink" x="0px" y="0px"
	 viewBox="0 0 48 48" enable-background="new 0 0 48 48" xml:space="preserve">
<g>
	<path fill="#FFD15C" d="M26.3,24.1l-3.9-3.9L36.2,3.5c1.9-2.4,5.4-2.7,7.4-0.6l0,0c2.1,2.1,1.8,5.6-0.6,7.4L26.3,24.1z"/>
	<path fill="#4CDBC4" d="M1.3,21c0,12.5,10.2,22.7,22.7,22.7S46.7,33.5,46.7,21H1.3z"/>
	<path fill="#4CDBC4" d="M33.4,41.6c-2.9,1.3-6,2-9.4,2c-3.4,0-6.5-0.7-9.4-2l-1,1c-1.4,1.4-0.4,3.9,1.6,3.9h17.7c2,0,3-2.4,1.6-3.9
		L33.4,41.6z"/>
	<path opacity="0.1" fill="#231F20" d="M33.4,41.6c-2.9,1.3-6,2-9.4,2c-3.4,0-6.5-0.7-9.4-2l-1,1c0,0-0.1,0.1-0.1,0.1
		c3.2,1.5,6.7,2.4,10.5,2.4c3.8,0,7.3-0.9,10.5-2.4c0,0,0-0.1-0.1-0.1L33.4,41.6z"/>
	<path fill="#40596B" d="M45.7,18.6H2.3C1,18.6,0,19.7,0,21c0,1.3,1,2.3,2.3,2.3h43.3c1.3,0,2.3-1,2.3-2.3
		C48,19.7,47,18.6,45.7,18.6z"/>
	<path opacity="0.1" fill="#231F20" d="M45.7,23.3H2.3c-0.3,0-0.6-0.1-0.9-0.2c0.1,0.6,0.1,1.1,0.2,1.7h44.7
		c0.1-0.6,0.2-1.1,0.2-1.7C46.3,23.2,46,23.3,45.7,23.3z"/>
	<path fill="#FFFFFF" d="M31.5,30.7c-2.1,0-4,0.8-5.3,2.2c0-1.9-0.7-3.9-2.2-5.3h0c-1.5,1.5-2.2,3.4-2.2,5.3
		c-1.4-1.4-3.3-2.2-5.3-2.2l0,0c0,4.2,3.4,7.5,7.5,7.5h0v0l0,0v0h0C28.2,38.2,31.5,34.9,31.5,30.7L31.5,30.7z"/>
</g>
</svg>
