<?xml version="1.0" encoding="utf-8"?>
<!-- Generator: Adobe Illustrator 18.0.0, SVG Export Plug-In . SVG Version: 6.00 Build 0)  -->
<!DOCTYPE svg PUBLIC "-//W3C//DTD SVG 1.1//EN" "http://www.w3.org/Graphics/SVG/1.1/DTD/svg11.dtd">
<svg version="1.1" id="Layer_1" xmlns="http://www.w3.org/2000/svg" xmlns:xlink="http://www.w3.org/1999/xlink" x="0px" y="0px"
	 viewBox="0 0 48 48" enable-background="new 0 0 48 48" xml:space="preserve">
<g>
	<g>
		<g>
			<g>
				<polygon fill="#415A6B" points="25.9,37.9 4.1,41.4 4.1,45.1 25.9,41.7 				"/>
			</g>
			<g>
				<g>
					<g>
						<g>
							<g>
								<g>
									<g>
										<path fill="#F3705A" d="M20.6,38.9c0,0-1.1,0.7-1.6,0.5c0,0-0.8,0.5-0.7-0.1c0,0,0.2-0.1,0.1-0.3l1.3-0.2L20.6,38.9z"/>
									</g>
									<g>
										<path fill="#FFD15C" d="M18.3,39.3c0,0,0.2-0.1,0.1-0.3c0,0-0.5-0.1-0.7,0.4C17.7,39.4,18.1,39.2,18.3,39.3z"/>
									</g>
								</g>
								<g>
									<g>
										<path fill="#FFD15C" d="M23,40.9c0,0,0.2-0.3,0.4-0.3c0,0,0.4,0.5-0.1,1C23.3,41.5,23.3,41,23,40.9z"/>
									</g>
								</g>
								<g>
									<g>
										<path fill="#FFD15C" d="M22,40.5c0,0,0.2-0.3,0.4-0.3c0,0,0.4,0.5-0.1,1C22.3,41.2,22.3,40.6,22,40.5z"/>
									</g>
								</g>
								<g>
									<path fill="#F3705A" d="M20.3,38.9c0,0,0.2,0.2,0.5,0.2c0,0,0.2,0.5,0.6,0.6c0,0,0.6,1.2,0.8,0.9c0-0.2,0.2-0.4,0.3-0.4
										c0,0-0.6-1-0.9-1.3c0,0,0.9,1,1.1,1.4c0,0,0,0.5,0.4,0.6c0,0,0.2-0.3,0.5-0.2c0,0-1.3-2.3-3.1-2.8l-1.1-0.4
										c0,0,0,0.9,0,0.9c0.1,0,0.5,0.3,0.2,0.4L19.4,39L20.3,38.9z"/>
								</g>
							</g>
							<g>
								<g>
									<g>
										<path fill="#FFD15C" d="M18.9,41.5c0,0,0.2-0.3,0.4-0.3c0,0,0.4,0.5-0.2,1C19.1,42.2,19.2,41.7,18.9,41.5z"/>
									</g>
								</g>
								<g>
									<g>
										<path fill="#FFD15C" d="M17.8,41.1c0,0,0.2-0.3,0.4-0.3c0,0,0.4,0.5-0.2,1C18.1,41.8,18.2,41.3,17.8,41.1z"/>
									</g>
								</g>
								<g>
									<path fill="#F3705A" d="M16.2,39.5c0,0,0.4,0.1,0.4,0.2c0,0,0.2,0.5,0.6,0.6c0,0,0.5,1.2,0.8,0.9c0-0.2,0.2-0.4,0.3-0.3
										c-0.1-0.3-0.3-0.7-0.6-1c0,0,0.2,0.2,0.4,0.5c0.2,0.3,0.3,0.6,0.5,0.9c0,0.1,0.1,0.3,0.4,0.3c0,0,0.2-0.3,0.5-0.2
										c0,0-1.2-2.4-3-2.9l-1-0.5c0,0,0,0.9,0,0.9c0.1,0,0.5,0.4,0.2,0.4l-0.3,0.2L16.2,39.5z"/>
								</g>
							</g>
							<g>
								<g>
									<path fill="#CED6E0" d="M17.4,39c-0.1-0.2,0-0.2,0-0.3c0,0-0.4-0.6-1.4,0.8c0.2,0,0.6,0.3,0.6,0.4
										C16.9,39.4,17.1,39.2,17.4,39z"/>
								</g>
								<path fill="#CED6E0" d="M16.6,39.9"/>
							</g>
							<g>
								<path fill="#344A5E" d="M25.5,19.2c-0.1,0.4-0.5,0.6-0.6,0.6c-1.3,0.3-1.6-1.2-1.4-1.3C23.5,18.5,25.4,19,25.5,19.2z"/>
							</g>
						</g>
					</g>
				</g>
				<g>
					<path fill="#415A6B" d="M23.4,18.5c0,0,0.3-0.1,0.8-0.2c0.8-0.2,1.6-0.1,2.3,0.3c0,0,0,0,0,0s-0.3-2.8-3.6-2.5
						C22,17,22.3,17.7,23.4,18.5z"/>
				</g>
				<g>
					<path fill="#E8EAE9" d="M16.7,26C15.3,24.7,9,38.8,7.8,42.6c-0.6,1.1-4.6,9.7,2.7,2l5.5-5.1c0,0,0.4-0.3,1-0.7
						c0.8-0.5,1.7-0.5,2.6-0.2l0,0c0,0,0.3-0.5,0.8-0.7c-0.7-0.8-2.7-0.9,4.8-12.5l-2.5-4.9l0.7-2c0,0-1.2-1.4-0.4-2.3
						c0,0-2-2.4-4.9,0.1C16.8,17.3,16,19,16,20.7c0,1.3-0.1,0.4,0.2,2.3L16.7,26z"/>
				</g>
				<g>
					<path fill="#CED6E0" d="M16.8,36.9C16.3,38,16,39.5,16,39.5c0.8-0.5,2.9-1.5,3.6-0.9c0,0,0.3-0.5,0.8-0.7
						c-0.8-0.4,4.1-5.8,4.8-10.6C25.2,27.3,21.4,26.2,16.8,36.9z"/>
				</g>
				<g>
					<path fill="#66C6B9" d="M24.9,19.7c0,0.5,0.4,5.7,0.4,5.7c0,0.4,0.1,0.8,0,1.2c-0.1,1.4-0.5,2.7-1.2,3.8
						c-0.7,1.2-1.6,2.7-2.1,2.5c-1.2-0.6-0.5-4.1-0.3-4.8c-0.3,0.5-1.5,0.6-1.9,0.1c-0.4-0.5-0.4-1.1-0.4-1.7
						c-0.1,0.2-0.2,0.9-0.4,1c-1,0.5-1.5-2-1-3.1l-1.7-0.5L16.2,23c-0.3-1.9-0.2-1-0.2-2.2c0.1-1.7,0.8-3.4,2.1-4.5
						c3-2.5,5-0.2,5-0.2c-0.7,0.9,0.4,2.4,0.4,2.4S23.4,19.8,24.9,19.7z"/>
				</g>
				<g>
					<g>
						<path fill="#66C6B9" d="M9.6,36.3c0,0-3.5,5-1.3,3.4c2.2-1.6,8.8-9.3,9.8-11.4c0.6-1.3,0.6-2.9,0-4.3c2.1,4.4-2.6-1.9-3.8-0.4
							c0,0-0.1,0.1-0.1,0.1c-0.9,1.1-1.7,2.4-2.2,3.8c-1.1,2.5-3.4,8.1-2.1,6C9.9,33.5,8.6,37.3,9.6,36.3z"/>
					</g>
					<path fill="#4ABAA5" d="M18.2,24c-0.7-1.5-2.8-1.7-3.8-0.4c0,0-0.1,0.1-0.1,0.1c-0.9,1.1-1.7,2.4-2.2,3.8
						c-1.1,2.5-3.4,8.1-2.1,6c0,0,0,0,0,0.1c0.1-0.1,0.1-0.2,0.2-0.3c0,0.3-0.3,0.7,0,0.9c0.3,0.2,0.6-0.3,0.8-0.7
						c0,0.1,0,0.2,0.1,0.3c0.1,0.1,0.3,0,0.4-0.1c0.1-0.1,0.2-0.3,0.3-0.4c0.1-0.1,0.1-0.3,0.2-0.4c-0.1,0.1,0,0.3,0.1,0.3
						c0.1,0.1,0.3,0,0.4-0.1c0.1-0.1,0.2-0.3,0.2-0.4c0-0.1,0.1-0.2,0.1-0.3c0,0.1,0,0.2,0.1,0.2c0.1,0.1,0.3,0,0.4-0.1
						c0.4-0.3,0.7-0.7,0.9-1.1c-0.1,0.2-0.1,0.3-0.1,0.5c0,0.2,0.1,0.3,0.3,0.4c0.2,0,0.4-0.2,0.5-0.4c0.2-0.3,0.4-0.6,0.5-0.9
						c0,0.2-0.2,0.5-0.1,0.6c0.2,0.2,0.5-0.3,0.7-0.4c0,0,0,0,0,0c1-1.3,1.8-2.4,2.1-3C18.8,27,18.8,25.3,18.2,24z"/>
				</g>
				<g>
					
						<ellipse transform="matrix(0.8617 -0.5074 0.5074 0.8617 -6.3843 13.3356)" fill="#E8EAE9" cx="21.3" cy="18.4" rx="1" ry="0.8"/>
				</g>
				<g>
					
						<ellipse transform="matrix(0.8617 -0.5074 0.5074 0.8617 -6.4434 13.278)" fill="#CED6E0" cx="21.1" cy="18.5" rx="0.6" ry="0.5"/>
				</g>
				<g>
					<g>
						<circle fill="#344A5E" cx="21" cy="18.5" r="0.4"/>
					</g>
					<g>
						<circle fill="#FFFFFF" cx="20.9" cy="18.3" r="0.1"/>
					</g>
				</g>
			</g>
			<g>
				<polygon fill="#415A6B" points="4.1,41.4 4.1,45.1 16,43.2 16,39.5 				"/>
			</g>
		</g>
		<g>
			<g>
				<g>
					<path fill="#F3705A" d="M35,8.5c0,0,4.7-2.2,4.7-5.8c0-1.4-1.1-2.5-2.5-2.5c-1,0-1.8,0.6-2.2,1.4c-0.4-0.8-1.3-1.4-2.2-1.4
						c-1.4,0-2.5,1.1-2.5,2.5C30.2,6.3,35,8.5,35,8.5z"/>
				</g>
			</g>
			<g>
				<g>
					<path fill="#F3705A" d="M43.1,7.1c0,0,1.3-1.8,0.6-3.1c-0.3-0.5-0.9-0.7-1.4-0.4c-0.4,0.2-0.6,0.6-0.6,1
						c-0.3-0.2-0.8-0.3-1.1-0.1c-0.5,0.3-0.7,0.9-0.4,1.4C40.9,7.3,43.1,7.1,43.1,7.1z"/>
				</g>
			</g>
			<g>
				<g>
					<path fill="#F3705A" d="M31.5,18.5c0,0,1.3-1.8,0.6-3.1c-0.3-0.5-0.9-0.7-1.4-0.4c-0.4,0.2-0.6,0.6-0.6,1
						c-0.3-0.2-0.8-0.3-1.1-0.1c-0.5,0.3-0.7,0.9-0.4,1.4C29.3,18.7,31.5,18.5,31.5,18.5z"/>
				</g>
			</g>
			<g>
				<g>
					<path fill="#F3705A" d="M36.9,15.9c0,0,3.7,0.1,4.9-2.2c0.4-0.9,0.1-2-0.8-2.4c-0.6-0.3-1.4-0.2-1.9,0.2c0-0.7-0.4-1.3-1-1.6
						c-0.9-0.4-2-0.1-2.4,0.8C34.5,13,36.9,15.9,36.9,15.9z"/>
				</g>
			</g>
		</g>
	</g>
</g>
</svg>
