<?xml version="1.0" encoding="utf-8"?>
<!-- Generator: Adobe Illustrator 16.0.0, SVG Export Plug-In . SVG Version: 6.00 Build 0)  -->
<!DOCTYPE svg PUBLIC "-//W3C//DTD SVG 1.1//EN" "http://www.w3.org/Graphics/SVG/1.1/DTD/svg11.dtd">
<svg version="1.1" id="Layer_1" xmlns="http://www.w3.org/2000/svg" xmlns:xlink="http://www.w3.org/1999/xlink" x="0px" y="0px"
	 width="48px" height="48px" viewBox="0 0 48 48" enable-background="new 0 0 48 48" xml:space="preserve">
<g>
	<path fill="#F2F2F2" d="M46.455,47.975H1.545l1.11-6.51c0.659-3.82,2.909-7.01,6-8.95c0.899-0.569,1.87-1.03,2.89-1.36
		c1.301-0.43,2.69-0.66,4.12-0.66h16.66c1.431,0,2.819,0.23,4.12,0.66c1.02,0.33,1.99,0.791,2.89,1.36c3.091,1.94,5.341,5.13,6,8.95
		L46.455,47.975z"/>
	<rect x="23.533" y="34.718" fill="#FFD15C" width="0.003" height="0.004"/>
	<path fill="#F8B64C" d="M37.42,31.546l-0.49,1c-1.479,3.04-5.879,8.181-12.979,8.181h-0.12c-8.68-0.181-12.43-7.32-12.83-8.141
		c-0.189-0.391-0.32-0.71-0.42-1.05c0.32-0.13,0.641-0.271,0.96-0.38c1.3-0.43,2.69-0.66,4.12-0.66h1.279
		c-0.01-0.42-0.02-2.84-0.02-2.84c0.01,0.01,0.01,0.01,0.02,0.02c1.781,2.7,4.07,4.54,6.591,4.54s4.83-1.851,6.601-4.569l0.02-0.021
		v2.87h2.17c1.43,0,2.83,0.23,4.119,0.66C36.78,31.266,37.1,31.406,37.42,31.546"/>
	<path fill="#40596B" d="M36.184,28.125c1.451-2.844,2.305-6.219,2.305-9.852c0-10.078-6.488-18.25-14.492-18.25
		S9.504,8.195,9.504,18.273c0,3.633,0.854,7.008,2.306,9.852H36.184z"/>
	<path fill="#F8B64C" d="M15.146,18.114c0.39,1.673,0.184,3.149-0.461,3.3c-0.644,0.15-1.481-1.084-1.873-2.756
		c-0.389-1.672-0.184-3.148,0.461-3.3C13.917,15.209,14.756,16.442,15.146,18.114"/>
	<path fill="#F8B64C" d="M31.908,18.114c-0.391,1.673-0.184,3.149,0.459,3.3c0.645,0.15,1.369-1.113,1.873-2.756
		c0.301-0.979,0.162-2.982-0.459-3.3C33.191,15.059,32.298,16.442,31.908,18.114"/>
	<path fill="#FFD15C" d="M25.977,8.43c0,0-9.248-2.426-12.412,4.908c-0.668,6.164,1.437,10.531,1.437,10.531
		c1.806,4.613,4.946,8.351,8.526,8.351c5.39,0,9.785-8.457,10.111-15.64C33.535,14.774,32.426,11.246,25.977,8.43"/>
	<g opacity="0.1">
		<g>
			<defs>
				<rect id="SVGID_121_" x="22.985" y="27.628" width="14.435" height="11.644"/>
			</defs>
			<clipPath id="SVGID_2_">
				<use xlink:href="#SVGID_121_"  overflow="visible"/>
			</clipPath>
			<path clip-path="url(#SVGID_2_)" fill="#40596B" d="M36.44,31.156c-1.29-0.43-2.69-0.66-4.12-0.66h-2.17v-2.868
				c-0.012,0.009-0.023,0.015-0.033,0.024c-1.771,2.705-4.068,4.566-6.59,4.566c-0.182,0-0.362-0.016-0.542-0.035l6.86,7.088
				c0.207-0.047,0.447-0.121,0.711-0.215c3.279-1.768,5.427-4.565,6.373-6.511l0.49-1C37.1,31.406,36.78,31.266,36.44,31.156"/>
		</g>
	</g>
	<path fill="#40596B" d="M15.704,15.346c0,0,1.894,0,4.28-2.551c0,0-0.165,0.658-1.317,1.976c0,0,2.964-0.576,4.198-1.976
		c0,0,0.082,0.576-1.646,2.14c0,0,5.762,0.329,8.89-3.456c0,0-0.823,2.469,3.21,3.867h1.564c0-5.908-4.791-10.699-10.701-10.699
		h-0.246c-5.91,0-10.7,4.791-10.7,10.699H15.704z"/>
	<path fill="#FF7058" d="M40.84,47.977h-9.47c3.62-7.011,4.729-14.631,4.99-16.84c0.03,0,0.05,0.01,0.079,0.02
		c1.021,0.33,1.99,0.789,2.891,1.359c0.1,0.061,0.2,0.131,0.301,0.2C38.02,41.766,40.84,47.977,40.84,47.977"/>
	<path fill="#FF7058" d="M7.16,47.977c0,0,2.82-6.221,1.21-15.271c0.091-0.069,0.181-0.13,0.28-0.19
		c0.9-0.57,1.869-1.029,2.89-1.359c0.03-0.01,0.07-0.02,0.101-0.03c0.25,2.2,1.369,9.83,4.99,16.851H7.16z"/>
</g>
</svg>
