<?xml version="1.0" encoding="utf-8"?>
<!-- Generator: Adobe Illustrator 18.0.0, SVG Export Plug-In . SVG Version: 6.00 Build 0)  -->
<!DOCTYPE svg PUBLIC "-//W3C//DTD SVG 1.1//EN" "http://www.w3.org/Graphics/SVG/1.1/DTD/svg11.dtd">
<svg version="1.1" id="Layer_1" xmlns="http://www.w3.org/2000/svg" xmlns:xlink="http://www.w3.org/1999/xlink" x="0px" y="0px"
	 viewBox="0 0 48 48" enable-background="new 0 0 48 48" xml:space="preserve">
<g>
	<g>
		<g>
			<polygon fill="#FFD15C" points="36,25.7 27.2,34.5 27.2,48 44.8,48 44.8,34.5 			"/>
		</g>
	</g>
	<g>
		<g>
			<path fill="#415A6B" d="M45.2,36.4L36,27.2l-9.2,9.2c-0.6,0.6-1.7,0.6-2.3,0l0,0c-0.6-0.6-0.6-1.7,0-2.3l10.4-10.4
				c0.6-0.6,1.7-0.6,2.3,0l10.4,10.4c0.6,0.6,0.6,1.7,0,2.3l0,0C46.9,37.1,45.8,37.1,45.2,36.4z"/>
		</g>
	</g>
	<g>
		<g>
			<path fill="#E8EAE9" d="M16.9,3.4L16.9,3.4C12.1,8.3,9.4,11,4.6,15.8V48h24.7V15.8C24.4,11,21.7,8.3,16.9,3.4z"/>
		</g>
	</g>
	<g>
		<g>
			<path fill="#F3705A" d="M29.9,18.5l-13-13l-13,13c-0.9,0.9-2.4,0.9-3.3,0l0,0c-0.9-0.9-0.9-2.4,0-3.3L15.3,0.7
				c0.9-0.9,2.4-0.9,3.3,0l14.6,14.6c0.9,0.9,0.9,2.4,0,3.3v0C32.2,19.4,30.8,19.4,29.9,18.5z"/>
		</g>
	</g>
	<g>
		<path fill="#415A6B" d="M16.9,33.4L16.9,33.4c-3,0-5.4,2.4-5.4,5.4V48h10.8v-9.2C22.3,35.8,19.9,33.4,16.9,33.4z"/>
	</g>
	<g>
		<path fill="#344A5E" d="M13.5,48v-9.2c0-1.9,1.5-3.4,3.4-3.4c1.9,0,3.4,1.5,3.4,3.4V48H13.5z"/>
	</g>
	<g>
		<path fill="#344A5E" d="M36,39.3L36,39.3c-1.9,0-3.4,1.5-3.4,3.4V48h6.9v-5.3C39.4,40.8,37.9,39.3,36,39.3z"/>
	</g>
	<g>
		<circle fill="#8AD7F8" cx="16.9" cy="21.2" r="5.4"/>
		<path fill="#415A6B" d="M16.9,27.6c-3.5,0-6.4-2.9-6.4-6.4s2.9-6.4,6.4-6.4c3.5,0,6.4,2.9,6.4,6.4S20.4,27.6,16.9,27.6z
			 M16.9,16.8c-2.4,0-4.4,2-4.4,4.4s2,4.4,4.4,4.4c2.4,0,4.4-2,4.4-4.4S19.3,16.8,16.9,16.8z"/>
	</g>
</g>
</svg>
