<?xml version="1.0" encoding="utf-8"?>
<!-- Generator: Adobe Illustrator 18.0.0, SVG Export Plug-In . SVG Version: 6.00 Build 0)  -->
<!DOCTYPE svg PUBLIC "-//W3C//DTD SVG 1.1//EN" "http://www.w3.org/Graphics/SVG/1.1/DTD/svg11.dtd">
<svg version="1.1" id="Layer_1" xmlns="http://www.w3.org/2000/svg" xmlns:xlink="http://www.w3.org/1999/xlink" x="0px" y="0px"
	 viewBox="0 0 48 48" enable-background="new 0 0 48 48" xml:space="preserve">
<g>
	<g>
		<g>
			<g>
				<path fill="#66C6B9" d="M29.2,36.8v-4.7l-3.8-0.8c-0.2-0.5-0.4-1-0.6-1.5l2.2-3.3l-3.3-3.3l-3.3,2.2c-0.5-0.3-1-0.5-1.5-0.6
					L18.1,21h-4.7l-0.8,3.8c-0.5,0.2-1,0.4-1.5,0.6l-3.3-2.2l-3.3,3.3l2.2,3.3c-0.3,0.5-0.5,1-0.6,1.5l-3.8,0.8v4.7l3.8,0.8
					c0.2,0.5,0.4,1,0.6,1.5l-2.2,3.3l3.3,3.3l3.3-2.2c0.5,0.3,1,0.5,1.5,0.6l0.8,3.8h4.7l0.8-3.8c0.5-0.2,1-0.4,1.5-0.6l3.3,2.2
					l3.3-3.3l-2.2-3.3c0.3-0.5,0.5-1,0.6-1.5L29.2,36.8z M15.8,39c-2.5,0-4.5-2-4.5-4.5c0-2.5,2-4.5,4.5-4.5c2.5,0,4.5,2,4.5,4.5
					C20.3,37,18.2,39,15.8,39z"/>
			</g>
			<path fill="#4EC0AA" d="M15.8,27.9c-3.7,0-6.6,3-6.6,6.6s3,6.6,6.6,6.6c3.7,0,6.6-3,6.6-6.6S19.4,27.9,15.8,27.9z M15.8,39
				c-2.5,0-4.5-2-4.5-4.5c0-2.5,2-4.5,4.5-4.5c2.5,0,4.5,2,4.5,4.5C20.3,37,18.2,39,15.8,39z"/>
		</g>
		<g>
			<g>
				<g>
					<path fill="#F3705A" d="M45.6,23.2l0.1-2.1L43.3,20c-0.1-0.4-0.2-0.8-0.4-1.2l1.3-2.4l-1.4-1.6l-2.5,0.9
						c-0.4-0.2-0.7-0.4-1.1-0.6l-0.8-2.6l-2.1-0.1l-1.1,2.4c-0.4,0.1-0.8,0.2-1.2,0.4l-2.4-1.3L30,15.4L31,18
						c-0.2,0.4-0.4,0.7-0.6,1.1l-2.6,0.8l-0.1,2.1l2.4,1.1c0.1,0.4,0.2,0.8,0.4,1.2l-1.3,2.4l1.4,1.6l2.5-0.9
						c0.4,0.2,0.7,0.4,1.1,0.6l0.8,2.6l2.1,0.1l1.1-2.4c0.4-0.1,0.8-0.2,1.2-0.4l2.4,1.3l1.6-1.4l-0.9-2.5c0.2-0.4,0.4-0.7,0.6-1.1
						L45.6,23.2z M36.4,25.7c-2.3-0.2-4-2.2-3.9-4.5c0.2-2.3,2.2-4,4.5-3.9c2.3,0.2,4,2.2,3.9,4.5C40.7,24.1,38.7,25.9,36.4,25.7z
						 M36.5,23.6c-1.1-0.1-2-1.1-1.9-2.2c0.1-1.1,1.1-2,2.2-1.9c1.1,0.1,2,1.1,1.9,2.2C38.7,22.8,37.7,23.7,36.5,23.6z"/>
				</g>
			</g>
			<g>
				<g>
					<path fill="#FFD15C" d="M31.3,11.5L31.2,9l-3-1c-0.2-0.5-0.4-0.9-0.6-1.4l1.2-3L26.9,2L24,3.4c-0.4-0.2-0.9-0.4-1.4-0.5L21.3,0
						l-2.5,0.1l-1,3c-0.5,0.2-0.9,0.4-1.4,0.6l-3-1.2l-1.7,1.8l1.4,2.9c-0.2,0.4-0.4,0.9-0.5,1.4L9.8,10l0.1,2.5l3,1
						c0.2,0.5,0.4,0.9,0.6,1.4l-1.2,3l1.8,1.7l2.9-1.4c0.4,0.2,0.9,0.4,1.4,0.5l1.3,2.9l2.5-0.1l1-3c0.5-0.2,0.9-0.4,1.4-0.6l3,1.2
						l1.7-1.8l-1.4-2.9c0.2-0.4,0.4-0.9,0.5-1.4L31.3,11.5z M20.8,15.7c-2.8,0.1-5.1-2-5.2-4.8c-0.1-2.8,2-5.1,4.8-5.2
						c2.7-0.1,5.1,2,5.2,4.8C25.7,13.3,23.5,15.6,20.8,15.7z M20.7,13.2c-1.4,0.1-2.5-1-2.6-2.4c-0.1-1.4,1-2.5,2.4-2.6
						c1.4-0.1,2.5,1,2.6,2.4C23.1,12,22,13.2,20.7,13.2z"/>
				</g>
			</g>
		</g>
	</g>
</g>
</svg>
