<?xml version="1.0" encoding="utf-8"?>
<!-- Generator: Adobe Illustrator 18.0.0, SVG Export Plug-In . SVG Version: 6.00 Build 0)  -->
<!DOCTYPE svg PUBLIC "-//W3C//DTD SVG 1.1//EN" "http://www.w3.org/Graphics/SVG/1.1/DTD/svg11.dtd">
<svg version="1.1" id="Layer_1" xmlns="http://www.w3.org/2000/svg" xmlns:xlink="http://www.w3.org/1999/xlink" x="0px" y="0px"
	 viewBox="0 0 48 48" enable-background="new 0 0 48 48" xml:space="preserve">
<g>
	<path fill="#F2F2F2" d="M46,0H2C0.9,0,0,0.9,0,2v44c0,1.1,0.9,2,2,2h44c1.1,0,2-0.9,2-2V2C48,0.9,47.1,0,46,0z"/>
	<rect x="4" y="4" fill="#54C0EB" width="40" height="14.2"/>
	<rect x="37" y="30.4" fill="#CDD6E0" width="7" height="5.5"/>
	<rect x="37" y="22.2" fill="#CDD6E0" width="7" height="5.5"/>
	<rect x="37" y="38.5" fill="#CDD6E0" width="7" height="5.5"/>
	<rect x="26" y="30.4" fill="#CDD6E0" width="7" height="5.5"/>
	<rect x="26" y="22.2" fill="#CDD6E0" width="7" height="5.5"/>
	<rect x="26" y="38.5" fill="#CDD6E0" width="7" height="5.5"/>
	<g>
		<rect x="15" y="30.4" fill="#CDD6E0" width="7" height="5.5"/>
		<g>
			<rect x="15" y="22.2" fill="#CDD6E0" width="7" height="5.5"/>
			<rect x="15" y="38.5" fill="#CDD6E0" width="7" height="5.5"/>
		</g>
	</g>
	<g>
		<rect x="4" y="30.4" fill="#CDD6E0" width="7" height="5.5"/>
		<g>
			<rect x="4" y="22.2" fill="#CDD6E0" width="7" height="5.5"/>
			<rect x="4" y="38.5" fill="#CDD6E0" width="7" height="5.5"/>
		</g>
	</g>
	<g>
		<polygon fill="#84DBFF" points="9.2,18.2 23.4,4 20.4,4 6.2,18.2 		"/>
		<polygon fill="#84DBFF" points="17.6,18.2 31.8,4 25.5,4 11.3,18.2 		"/>
	</g>
</g>
</svg>
