<?xml version="1.0" encoding="utf-8"?>
<!-- Generator: Adobe Illustrator 18.0.0, SVG Export Plug-In . SVG Version: 6.00 Build 0)  -->
<!DOCTYPE svg PUBLIC "-//W3C//DTD SVG 1.1//EN" "http://www.w3.org/Graphics/SVG/1.1/DTD/svg11.dtd">
<svg version="1.1" id="Layer_1" xmlns="http://www.w3.org/2000/svg" xmlns:xlink="http://www.w3.org/1999/xlink" x="0px" y="0px"
	 viewBox="0 0 48 48" enable-background="new 0 0 48 48" xml:space="preserve">
<g>
	<g>
		<g>
			<g>
				<path fill="#435B6C" d="M45.1,0H2.9C1.3,0,0,1.3,0,2.9v26.4h48V2.9C48,1.3,46.7,0,45.1,0z"/>
				<path fill="#E8EAE9" d="M0,29.4v5.9c0,1.6,1.3,2.9,2.9,2.9h42.1c1.6,0,2.9-1.3,2.9-2.9v-5.9H0z"/>
				<g>
					<g>
						<rect x="3.9" y="3.9" fill="#57C0EC" width="40.2" height="25.4"/>
					</g>
				</g>
			</g>
		</g>
		<g>
			<g>
				<g>
					<g>
						<g>
							<path fill="#FFFFFF" d="M41.5,18.1l-5.4-4.2v2.3h-2.7c-2.5,0-4.6,2.1-4.6,4.6v5.2h3.9v-5.2c0-0.4,0.3-0.7,0.7-0.7h2.7v2.3
								L41.5,18.1z"/>
							<path fill="#FFFFFF" d="M14.6,16.1h-2.7v-2.3l-5.4,4.2l5.4,4.2v-2.3h2.7c0.4,0,0.7,0.3,0.7,0.7v5.2h3.9v-5.2
								C19.2,18.2,17.1,16.1,14.6,16.1z"/>
							<polygon fill="#FFFFFF" points="24,7.3 19.8,12.7 22,12.7 22,25.9 26,25.9 26,12.7 28.2,12.7 							"/>
						</g>
					</g>
				</g>
			</g>
		</g>
		<circle fill="#435B6C" cx="24" cy="33.8" r="1.9"/>
		<polygon fill="#CFD7E1" points="29.8,38.2 18.2,38.2 14,42.8 34,42.8 		"/>
		<path fill="#E8EAE9" d="M33.7,42.8H14.3c-2.9,0-5.2,2.3-5.2,5.2h29.7C38.9,45.1,36.5,42.8,33.7,42.8z"/>
	</g>
</g>
</svg>
