<?xml version="1.0" encoding="utf-8"?>
<!-- Generator: Adobe Illustrator 18.0.0, SVG Export Plug-In . SVG Version: 6.00 Build 0)  -->
<!DOCTYPE svg PUBLIC "-//W3C//DTD SVG 1.1//EN" "http://www.w3.org/Graphics/SVG/1.1/DTD/svg11.dtd">
<svg version="1.1" id="Layer_1" xmlns="http://www.w3.org/2000/svg" xmlns:xlink="http://www.w3.org/1999/xlink" x="0px" y="0px"
	 viewBox="0 0 48 48" enable-background="new 0 0 48 48" xml:space="preserve">
<g>
	<g>
		<path fill="#CDD6E0" d="M10.9,3.1L4.1,0L3.7,7.5C3.3,14.4,9.1,20.1,16,19.7l0,0C19.6,13.8,17.2,6,10.9,3.1z"/>
		<path fill="#ACB3BA" d="M12.1,6.9L6.8,4.5l-0.3,5.8c-0.3,5.4,4.1,9.8,9.5,9.5l0,0C18.8,15.1,16.9,9.1,12.1,6.9z"/>
		<path fill="#CDD6E0" d="M37.1,3.1L43.9,0l0.4,7.5c0.4,6.9-5.4,12.7-12.3,12.3l0,0C28.4,13.8,30.8,6,37.1,3.1z"/>
		<path fill="#ACB3BA" d="M35.9,6.9l5.2-2.4l0.3,5.8c0.3,5.4-4.1,9.8-9.5,9.5l0,0C29.2,15.1,31.1,9.1,35.9,6.9z"/>
		<path fill="#334A5E" d="M38.6,43c-5.2,5.4-24,5.4-29.2,0c-3.6-3.8,0-21.4,0-21.4h29.2C38.6,21.6,42.2,39.2,38.6,43z"/>
		<path fill="#40596B" d="M24,6C14.7,6,7.1,12.3,7.1,21.6C7.1,31,14.7,48,24,48c9.3,0,16.9-17,16.9-26.4C40.9,12.3,33.3,6,24,6z"/>
		<g>
			<g>
				
					<ellipse transform="matrix(0.8586 -0.5127 0.5127 0.8586 -7.0916 19.2194)" fill="#CDD6E0" cx="31.3" cy="22.5" rx="3.5" ry="2.2"/>
				<circle fill="#FF7058" cx="31.3" cy="22.5" r="1.7"/>
				<circle fill="#FFFFFF" cx="32.5" cy="21.3" r="0.5"/>
			</g>
			<g>
				
					<ellipse transform="matrix(-0.8586 -0.5127 0.5127 -0.8586 19.5411 50.3168)" fill="#CDD6E0" cx="16.7" cy="22.5" rx="3.5" ry="2.2"/>
				<circle fill="#FF7058" cx="16.7" cy="22.5" r="1.7"/>
				<circle fill="#FFFFFF" cx="15.5" cy="21.3" r="0.5"/>
			</g>
		</g>
		<path opacity="0.1" fill="#231F20" d="M19.8,24.2c-0.2-0.6-0.5-1.2-0.9-1.7c-0.8-0.9-2-1.4-3.3-1.4c-0.2,0-0.5,0-0.7,0
			c-0.5,0.1-0.9,0.1-1.3,0.1c0-0.2,0.1-0.4,0.2-0.6c0.6-1,2.5-1.1,4.1-0.1C19.5,21.5,20.3,23.1,19.8,24.2z"/>
		<path opacity="0.1" fill="#231F20" d="M34.5,21.2c-0.4,0-0.9,0-1.3-0.1c-0.2,0-0.5-0.1-0.7-0.1c-1.3,0-2.5,0.5-3.3,1.4
			c-0.5,0.5-0.8,1.1-0.9,1.7c-0.5-1,0.3-2.6,1.9-3.6c1.7-1,3.5-1,4.1,0.1C34.4,20.8,34.5,21,34.5,21.2z"/>
		<path fill="#F2F2F2" d="M27.5,25.6c0,0.1,0,0.2,0,0.3l0.2,2.2c0.4,3.5,2.3,8.7,4.6,11.2c0.6,0.7,1.1,1.6,1.3,2.6
			c0.1,0.7,0.1,1.4-0.1,2.2c-0.4,1.9-1.9,3.3-3.7,3.8c-1.2,0.3-2.3,0.2-3.2-0.2c0,0,0,0,0,0c-1.6-0.7-3.4-0.7-5.1,0c0,0,0,0,0,0
			c-1,0.4-2.1,0.5-3.3,0.2c-1.8-0.5-3.3-1.9-3.7-3.8c-0.2-0.8-0.2-1.5-0.1-2.2c0.2-1,0.7-2,1.4-2.7c2.6-2.7,4-6.4,4.4-10.2l0.3-3.1
			c0-0.1,0-0.2,0-0.3c0.2-3.2-2.6-5.5-5.8-5.1c-0.6,0.1-1.2,0.1-1.9,0.1c-2.1,0-4-0.5-5.6-1.4C8.4,11.3,15.5,6,24,6
			c8.5,0,15.5,5.2,16.7,13.2c-1.5,0.9-3.5,1.4-5.6,1.4c-0.6,0-1.3,0-1.9-0.1C30.1,20,27.2,22.4,27.5,25.6z"/>
		<path fill="#40596B" d="M29.1,39.2c0-1.2-2.3-2.1-5.1-2.1s-5.1,1-5.1,2.1c0,0.6,0.6,1.1,1.5,1.5c-0.1,0.9-0.1,2,0.2,2.4
			c1.2,1.2,5.6,1.2,6.8,0c0.4-0.4,0.3-1.4,0.2-2.4C28.5,40.3,29.1,39.8,29.1,39.2z"/>
	</g>
	<g>
		<path fill="#ACB3BA" d="M32.8,11c-3.5-0.4-4.3,2.5-4.3,2.5c-0.2-0.8-1-1.2-1-1.2c-1.9,4.3-0.9,6-0.9,6c-0.2-1.7,1.7-3.7,1.7-3.7
			c0.3-0.1,0.9,2,0.9,2C29.2,13.3,32.8,11,32.8,11z"/>
		<path fill="#ACB3BA" d="M34.6,15.5c-0.1,0-0.3-0.1-0.6,0c-0.1,0-0.3,0-0.4,0.1c-0.1,0-0.3,0.1-0.4,0.1c-0.3,0.1-0.6,0.2-0.9,0.4
			c-0.6,0.4-1,0.9-1.2,1.3c-0.3,0.4-0.3,0.7-0.3,0.7s0.3-0.2,0.6-0.5c0.4-0.3,0.8-0.6,1.3-0.9c0.1-0.1,0.2-0.2,0.4-0.2
			c0.1-0.1,0.2-0.1,0.4-0.2c0.2-0.1,0.5-0.3,0.7-0.3c0.1,0,0.2-0.1,0.3-0.1c0.1,0,0.2-0.1,0.2-0.1c0.1-0.1,0.2-0.1,0.2-0.1
			S34.7,15.5,34.6,15.5z"/>
		<path fill="#ACB3BA" d="M19.5,13.5c0,0-0.7-2.9-4.3-2.5c0,0,3.5,2.3,3.6,5.6c0,0,0.6-2.1,0.9-2c0,0,1.9,1.9,1.7,3.7
			c0,0,1-1.7-0.9-6C20.5,12.3,19.7,12.7,19.5,13.5z"/>
		<path fill="#ACB3BA" d="M15.7,16.1c-0.3-0.2-0.6-0.3-0.9-0.4c-0.1-0.1-0.3-0.1-0.4-0.1c-0.1,0-0.3-0.1-0.4-0.1c-0.2,0-0.4,0-0.6,0
			c-0.1,0-0.2,0-0.2,0s0.1,0,0.2,0.1c0.1,0,0.1,0.1,0.2,0.1c0.1,0,0.2,0.1,0.3,0.1c0.2,0.1,0.4,0.2,0.7,0.3c0.1,0.1,0.2,0.1,0.4,0.2
			c0.1,0.1,0.2,0.2,0.4,0.2c0.5,0.3,0.9,0.7,1.3,0.9c0.4,0.3,0.6,0.5,0.6,0.5s-0.1-0.3-0.3-0.7C16.7,16.9,16.3,16.4,15.7,16.1z"/>
	</g>
</g>
</svg>
