<?xml version="1.0" encoding="utf-8"?>
<!-- Generator: Adobe Illustrator 18.0.0, SVG Export Plug-In . SVG Version: 6.00 Build 0)  -->
<!DOCTYPE svg PUBLIC "-//W3C//DTD SVG 1.1//EN" "http://www.w3.org/Graphics/SVG/1.1/DTD/svg11.dtd">
<svg version="1.1" id="Layer_1" xmlns="http://www.w3.org/2000/svg" xmlns:xlink="http://www.w3.org/1999/xlink" x="0px" y="0px"
	 viewBox="0 0 48 48" enable-background="new 0 0 48 48" xml:space="preserve">
<g>
	<g>
		<g>
			<g>
				<path fill="#354B5E" d="M40.4,39.3c-10.9,0-21.8,0-32.7,0C8.1,28.1,8.5,16.9,8.9,5.7c8.6-7.6,21.6-7.6,30.2,0
					C39.5,16.9,39.9,28.1,40.4,39.3z"/>
			</g>
			<rect x="1.1" y="39.3" fill="#435B6C" width="45.8" height="7.7"/>
		</g>
		<g>
			<path fill="#CFD7E1" d="M21.5,11.3c0,1.2-0.5,1.9-1.4,2.2l1.8,2.6h-2l-1.6-2.3h-1.1v2.3h-1.6V8.9h2.7c1.1,0,1.9,0.2,2.4,0.6
				C21.3,9.9,21.5,10.5,21.5,11.3z M19.6,12.2c0.2-0.2,0.3-0.5,0.3-0.9c0-0.4-0.1-0.7-0.3-0.8c-0.2-0.1-0.6-0.2-1.1-0.2h-1.2v2.1
				h1.2C19,12.5,19.4,12.4,19.6,12.2z"/>
			<path fill="#CFD7E1" d="M23.2,8.9h1.6v7.2h-1.6V8.9z"/>
			<path fill="#CFD7E1" d="M31.6,9.6c0.5,0.4,0.8,1.1,0.8,2c0,0.9-0.3,1.5-0.8,2c-0.5,0.4-1.3,0.6-2.4,0.6h-1v2h-1.6V8.9h2.6
				C30.2,8.9,31.1,9.2,31.6,9.6z M30.4,12.4c0.2-0.2,0.3-0.5,0.3-1c0-0.4-0.1-0.7-0.4-0.9c-0.3-0.2-0.6-0.3-1.2-0.3h-0.9v2.4h1.1
				C29.8,12.8,30.2,12.7,30.4,12.4z"/>
		</g>
		<g>
			<g>
				<g>
					<g>
						<path fill="#FFFFFF" d="M26.1,21.3c0,0,0.1-1.1,0.5-1.7c0.3-0.4,0.6-0.5,0.6-0.5s0.4,0.3,0.5,0.6c0,0.3,0,1.1-0.1,1.7
							L26.1,21.3z"/>
					</g>
					<g>
						<path fill="#FFFFFF" d="M19.6,21c0,0-0.3-1.1-0.2-1.7c0.1-0.4,0.3-0.6,0.3-0.6s0.5,0.2,0.7,0.5c0.2,0.3,0.3,1,0.5,1.5L19.6,21
							z"/>
					</g>
					<g>
						<path fill="#FFFFFF" d="M16.2,22.1c0,0-0.5-0.7-0.4-1.3c0-0.4,0.2-0.6,0.2-0.6s0.5,0,0.7,0.2s0.5,0.7,0.8,1L16.2,22.1z"/>
					</g>
					<g>
						<path fill="#FFFFFF" d="M14.6,27.1c0,0-0.5-0.7-0.4-1.3c0-0.4,0.2-0.6,0.2-0.6s0.5,0,0.7,0.2c0.2,0.2,0.5,0.7,0.8,1L14.6,27.1
							z"/>
					</g>
				</g>
			</g>
			<path fill="#FFD15D" d="M35.2,31.7c-1.3-1.3-3.3,0.6-3.3,0.6s-0.5,0.2-1.5,0.7c-1,0.6-2.3-0.3-3-0.9c-0.2-0.2-0.4-0.7-0.5-1.2
				c-0.3-1.2-0.3-2.4,0-3.6c0.3-1.5,0.7-3.9,0.7-3.9s0.3-1.7,0.3-1.8c0-0.1,0-1-0.9-1.1c-0.9-0.1-1.1,1.8-1.1,1.8s-0.2,1.5-0.5,2.2
				c-0.3,0.8-0.3,1.4-0.3,1.4l-0.7,1.9c0,0-0.4,0.6-0.8,0.7c-0.5,0.1-0.6-0.4-0.7-0.6c-0.1-0.2-0.7-2.6-0.8-2.8
				c-0.1-0.2-0.4-2.4-0.5-2.7c-0.1-0.2-0.5-1.8-0.5-1.8s-0.1-0.5-0.9-0.6c-0.8-0.1-0.8,0.6-0.8,0.6l0.3,1.8c0,0,0.1,0.9,0.2,2.3
				c0.1,1.4,0.4,2.4,0.4,2.4s-1-1.6-1.2-2.3c-0.2-0.7-0.8-2-0.8-2s-0.4-0.5-0.7-1.1C17.3,21,17,21,16.5,21.1
				c-0.5,0.1-0.7,0.6-0.5,1.1c0.2,0.5,1,2.1,1,2.1s0.4,0.9,0.6,2.2c0.2,1.3,1.4,3.2,1.4,3.2l-1.2-1c0,0-0.7-1.1-0.9-1.2
				c-0.2-0.1-0.9-1.1-0.9-1.1s-0.7-0.9-1.2-0.2c-0.6,0.7,0.6,2.1,0.6,2.1s0.6,0.7,0.8,1.2c0.3,0.5,0.9,1.7,0.9,1.7s0.6,0.7,1,1.4
				c0.4,0.7,0.8,2,0.8,2c0,0.7,0.9,3.9,0.9,3.9c-0.2,0.3,0.5,3.5,0.5,3.5l-0.5,6h8c-0.2-1.8-0.6-4.4-0.7-5c0-0.1,0-0.3,0-0.4
				c-0.1-1.8,0.7-3.4,2-4.6c0.6-0.5,1.1-1,1.1-1s0.8-0.6,1.5-1.4c0.7-0.8,2.2-1.5,2.2-1.5c0.5-0.8,1.6-1.3,1.6-1.3
				C35.5,32.3,35.2,31.7,35.2,31.7z"/>
		</g>
		<path fill="#F3705B" d="M44.5,44.9c-0.3-0.6-1.1-1.1-2.1-1.2c-0.5-0.1-1,0-1.4,0.1c-0.5-0.5-1.3-0.8-2.2-0.9
			c-0.9-0.1-1.8,0.1-2.5,0.4c-0.5-0.6-1.5-1-2.6-1c-1.3,0-2.4,0.6-2.8,1.3c-0.3-0.2-0.8-0.4-1.2-0.4c-0.6,0-1.1,0.2-1.4,0.5
			c-0.5-0.4-1.2-0.7-2.1-0.7c-0.8,0-1.5,0.2-1.9,0.6c-1.5-1.1-4.4-2-7.7-2.2c-1.6-0.1-3,0-4.3,0.1c-1.5-0.2-2.8-0.4-3.7-0.4
			C4.2,41.2,0.5,45,0,48h48C47.9,46.6,46.5,45.3,44.5,44.9z"/>
		<g>
			<path fill="#FFFFFF" d="M35.9,31.9c0,0-1.3,1.6-2.4,2.1l0,0c-0.1-0.3,0.1-0.7,0.3-0.9C34.4,32.5,35.4,31.7,35.9,31.9z"/>
		</g>
	</g>
</g>
</svg>
