<?xml version="1.0" encoding="utf-8"?>
<!-- Generator: Adobe Illustrator 18.0.0, SVG Export Plug-In . SVG Version: 6.00 Build 0)  -->
<!DOCTYPE svg PUBLIC "-//W3C//DTD SVG 1.1//EN" "http://www.w3.org/Graphics/SVG/1.1/DTD/svg11.dtd">
<svg version="1.1" id="Layer_1" xmlns="http://www.w3.org/2000/svg" xmlns:xlink="http://www.w3.org/1999/xlink" x="0px" y="0px"
	 viewBox="0 0 48 48" enable-background="new 0 0 48 48" xml:space="preserve">
<g>
	<g>
		<g>
			<path fill="#66C6B9" d="M28,39.3c20,4.2,15.2-20.6,18-27.6C37.6,19,19,20.5,28,39.3z"/>
			<g>
				<g>
					<path fill="#66C6B9" d="M22.4,43.8C8.7,51.1,6.9,32,3.4,27.5C11.1,31.1,24.9,28.2,22.4,43.8z"/>
				</g>
				<g>
					<path fill="#415A6B" d="M24.9,48h2.5c0-1.9-0.2-3.8-0.4-5.7c1.9-2.6,3.7-5.7,5.5-8.9c3.1-1,5.8-2.4,7.8-4.3
						c-1.9,1.4-4.4,2.4-7.1,3.1c1.2-2.2,2.4-4.4,3.6-6.5c2.1-1.2,3.8-2.8,5.5-4.4c-1.5,1.3-3,2.5-4.9,3.4c1.1-1.9,2.2-3.8,3.2-5.5
						c-1.8,2.7-3.8,5.7-6,8.7c-0.2-2.7,0-5,0.5-6.9c-0.9,2.3-1.4,5-1.3,8.1c-2.5,3.6-5,7.1-7.2,10.4c-1-6.4-3-12.1-4.9-16.7
						l-2.9-0.1c2.6,5.7,5.2,13.4,5.9,22.1c-2.6-2.1-5.8-4.6-8.8-7.1c-0.6-2.3-1.6-4.1-2.7-5.6c0.8,1.3,1.4,3,1.9,4.9
						c-2.2-1.8-4.3-3.5-6.2-5.1c1.1,1,2.3,2.1,3.5,3.3c-1.5-0.3-2.9-0.8-4.3-1.4c1.6,0.9,3.1,1.6,4.9,2c1.3,1.3,2.7,2.6,4,3.9
						c-2.2,0.1-4.2-0.1-5.9-0.7c1.9,1,4.2,1.4,6.6,1.5c2.4,2.3,4.8,4.5,7,6.1C24.9,47.1,24.9,47.5,24.9,48z"/>
				</g>
			</g>
		</g>
		<g>
			<g>
				<path fill="#F3705A" d="M27.1,8.6c-1.1,0-3,0.5-4.9,1.1c1.5-1.3,2.9-2.7,3.4-3.7c1.6-2.7-2.1-1-4.6-2.4
					c-2.5-1.4-2.8-5.5-4.4-2.8c-0.6,1-1.1,2.8-1.5,4.8c-0.4-2-0.9-3.8-1.5-4.8c-1.6-2.7-1.9,1.4-4.4,2.8C6.9,5.1,3.2,3.4,4.8,6.1
					c0.6,1,1.9,2.3,3.4,3.7C6.3,9.1,4.5,8.6,3.3,8.6c-3.1,0,0.2,2.3,0.2,5.2S0.2,19,3.3,19c1.1,0,3-0.5,4.9-1.1
					c-1.5,1.3-2.9,2.7-3.4,3.7c-1.6,2.7,2.1,1,4.6,2.4c2.5,1.4,2.8,5.5,4.4,2.8c0.6-1,1.1-2.8,1.5-4.8c0.4,2,0.9,3.8,1.5,4.8
					c1.6,2.7,1.9-1.4,4.4-2.8c2.5-1.4,6.2,0.3,4.6-2.4c-0.6-1-1.9-2.3-3.4-3.7c1.9,0.7,3.8,1.1,4.9,1.1c3.1,0-0.2-2.3-0.2-5.2
					S30.2,8.6,27.1,8.6z"/>
			</g>
			<g>
				<g>
					<circle fill="#F05540" cx="15.2" cy="13.8" r="5.9"/>
				</g>
			</g>
			<g>
				<g>
					<circle fill="#F3705A" cx="15.2" cy="13.8" r="2.2"/>
				</g>
			</g>
		</g>
	</g>
</g>
</svg>
