<?xml version="1.0" encoding="utf-8"?>
<!-- Generator: Adobe Illustrator 19.0.1, SVG Export Plug-In . SVG Version: 6.00 Build 0)  -->
<svg version="1.1" id="Layer_1" xmlns="http://www.w3.org/2000/svg" xmlns:xlink="http://www.w3.org/1999/xlink" x="0px" y="0px"
	 viewBox="0 0 48 48" style="enable-background:new 0 0 48 48;" xml:space="preserve">
<style type="text/css">
	.st0{fill:#415A6B;}
	.st1{fill:#ADB3BA;}
	.st2{fill:#E8EAE9;}
	.st3{fill:#55C0EB;}
	.st4{fill:#F3705A;}
	.st5{fill:#FFFFFF;}
	.st6{fill:#FFD15C;}
	.st7{fill:#344A5E;}
	.st8{fill:#CED6E0;}
	.st9{fill:#F05540;}
	.st10{fill:#F7B64C;}
	.st11{fill:#F3F3F3;}
	.st12{fill:#66C6B9;}
	.st13{fill:#4ABAA5;}
	.st14{fill:#8AD7F8;}
	.st15{fill:none;}
	.st16{fill:#E53D35;}
</style>
<g>
	<g>
		<g>
			<g>
				<path class="st4" d="M17.1,43.3h-0.5l-2.4-12.7h-8l2.4,13.9c0,0.6,0.5,1.1,1.1,1.1h7.4C18.5,45.6,18.5,43.3,17.1,43.3z"/>
				<g>
					<path class="st9" d="M5,32.1L5,32.1c0,0.7,0.6,1.3,1.3,1.3h8.2c0.7,0,1.3-0.6,1.3-1.3v0c0-0.7-0.6-1.3-1.3-1.3H6.4
						C5.6,30.9,5,31.4,5,32.1z"/>
				</g>
			</g>
			<g>
				<g>
					<path class="st4" d="M42.2,16c-0.3,0-0.6,0-0.9,0.1v11.6c0.3,0,0.6,0.1,0.9,0.1c3.2,0,5.9-2.6,5.9-5.9
						C48.1,18.6,45.4,16,42.2,16z"/>
				</g>
				<g>
					<path class="st12" d="M-0.1,14.9v13.9c0,1.1,0.9,2,2,2h13.9v-18H2C0.9,12.9-0.1,13.8-0.1,14.9z"/>
				</g>
				<g>
					<polygon class="st2" points="15.9,30.9 39.1,41.8 39.1,2 15.9,12.9 					"/>
				</g>
				<g>
					<g>
						<path class="st12" d="M40.2,43.8c-1.1,0-2-0.9-2-2V2c0-1.1,0.9-2,2-2c1.1,0,2,0.9,2,2v39.8C42.2,42.9,41.3,43.8,40.2,43.8z"/>
					</g>
				</g>
				<g>
					<path class="st13" d="M11.9,18.2H3.5c-0.5,0-0.9-0.4-0.9-0.9v-1c0-0.5,0.4-0.9,0.9-0.9h8.4c0.5,0,0.9,0.4,0.9,0.9v1
						C12.8,17.7,12.4,18.2,11.9,18.2z"/>
					<path class="st13" d="M11.9,23.3H3.5c-0.5,0-0.9-0.4-0.9-0.9v-1c0-0.5,0.4-0.9,0.9-0.9h8.4c0.5,0,0.9,0.4,0.9,0.9v1
						C12.8,22.9,12.4,23.3,11.9,23.3z"/>
					<path class="st13" d="M11.9,28.5H3.5c-0.5,0-0.9-0.4-0.9-0.9v-1c0-0.5,0.4-0.9,0.9-0.9h8.4c0.5,0,0.9,0.4,0.9,0.9v1
						C12.8,28,12.4,28.5,11.9,28.5z"/>
				</g>
			</g>
			<g>
				<g>
					<path class="st4" d="M42.2,16c-0.3,0-0.6,0-0.9,0.1v11.6c0.3,0,0.6,0.1,0.9,0.1c3.2,0,5.9-2.6,5.9-5.9
						C48.1,18.6,45.4,16,42.2,16z"/>
				</g>
				<g>
					<path class="st12" d="M-0.1,14.9v13.9c0,1.1,0.9,2,2,2h13.9v-18H2C0.9,12.9-0.1,13.8-0.1,14.9z"/>
				</g>
				<g>
					<polygon class="st2" points="15.9,30.9 39.1,41.8 39.1,2 15.9,12.9 					"/>
				</g>
				<g>
					<g>
						<path class="st12" d="M40.2,43.8c-1.1,0-2-0.9-2-2V2c0-1.1,0.9-2,2-2c1.1,0,2,0.9,2,2v39.8C42.2,42.9,41.3,43.8,40.2,43.8z"/>
					</g>
				</g>
				<g>
					<path class="st13" d="M11.9,18.2H3.5c-0.5,0-0.9-0.4-0.9-0.9v-1c0-0.5,0.4-0.9,0.9-0.9h8.4c0.5,0,0.9,0.4,0.9,0.9v1
						C12.8,17.7,12.4,18.2,11.9,18.2z"/>
					<path class="st13" d="M11.9,23.3H3.5c-0.5,0-0.9-0.4-0.9-0.9v-1c0-0.5,0.4-0.9,0.9-0.9h8.4c0.5,0,0.9,0.4,0.9,0.9v1
						C12.8,22.9,12.4,23.3,11.9,23.3z"/>
					<path class="st13" d="M11.9,28.5H3.5c-0.5,0-0.9-0.4-0.9-0.9v-1c0-0.5,0.4-0.9,0.9-0.9h8.4c0.5,0,0.9,0.4,0.9,0.9v1
						C12.8,28,12.4,28.5,11.9,28.5z"/>
				</g>
			</g>
		</g>
		<g>
			<path class="st7" d="M18,18.1c-5.3,5.3-5.3,13.9,0,19.2c5.3,5.3,13.9,5.3,19.2,0c5.3-5.3,5.3-13.9,0-19.2
				C31.9,12.8,23.3,12.8,18,18.1z M34.4,34.5c-3.7,3.7-9.8,3.7-13.5,0s-3.7-9.8,0-13.5s9.8-3.7,13.5,0
				C38.1,24.7,38.1,30.7,34.4,34.5z"/>
			<g>
				<path class="st7" d="M40.2,36.5l-3.8,3.8c-0.4,0.4-1,0.4-1.3,0L35,40.2c-0.4-0.4-0.4-1,0-1.3l3.8-3.8c0.4-0.4,1-0.4,1.3,0
					l0.1,0.1C40.6,35.5,40.6,36.1,40.2,36.5z"/>
			</g>
			<path class="st6" d="M45.9,40.1l-5.7-3.5l-3.7,3.7L40,46c1.4,2.4,4.7,2.7,6.7,0.8v0C48.6,44.8,48.3,41.5,45.9,40.1z"/>
		</g>
	</g>
</g>
</svg>
