<?xml version="1.0" encoding="utf-8"?>
<!-- Generator: Adobe Illustrator 18.0.0, SVG Export Plug-In . SVG Version: 6.00 Build 0)  -->
<!DOCTYPE svg PUBLIC "-//W3C//DTD SVG 1.1//EN" "http://www.w3.org/Graphics/SVG/1.1/DTD/svg11.dtd">
<svg version="1.1" id="Layer_1" xmlns="http://www.w3.org/2000/svg" xmlns:xlink="http://www.w3.org/1999/xlink" x="0px" y="0px"
	 viewBox="0 0 512 512" enable-background="new 0 0 512 512" xml:space="preserve">
<g>
	<path fill="#334A5E" d="M422.9,2H89.1C77.4,2,68,11.5,68,23.2v465.7c0,11.7,9.5,21.2,21.2,21.2h333.7c11.7,0,21.2-9.5,21.2-21.2
		V23.2C444,11.5,434.6,2,422.9,2z"/>
	<rect x="113.1" y="64.6" fill="#FFFFFF" width="285.8" height="337.6"/>
	<rect x="150.7" y="243.7" fill="#F2705B" width="55.6" height="122.1"/>
	<rect x="228.2" y="212.2" fill="#89D6F7" width="55.6" height="153.7"/>
	<rect x="305.7" y="172.5" fill="#FFD05C" width="55.6" height="193.4"/>
	<g>
		<path fill="#ABB2B9" d="M322.8,22.4h-87.5c-6,0-10.9,4.9-10.9,10.9c0,6,4.9,10.9,10.9,10.9h87.5c6,0,10.9-4.9,10.9-10.9
			C333.8,27.3,328.9,22.4,322.8,22.4z"/>
		<path fill="#ABB2B9" d="M200.4,22.4h-11.2c-6,0-10.9,4.9-10.9,10.9s4.9,10.9,10.9,10.9h11.2c6,0,10.9-4.9,10.9-10.9
			S206.4,22.4,200.4,22.4z"/>
	</g>
	<circle fill="#ABB2B9" cx="256" cy="456.1" r="32.7"/>
</g>
</svg>
