<?xml version="1.0" encoding="utf-8"?>
<!-- Generator: Adobe Illustrator 18.0.0, SVG Export Plug-In . SVG Version: 6.00 Build 0)  -->
<!DOCTYPE svg PUBLIC "-//W3C//DTD SVG 1.1//EN" "http://www.w3.org/Graphics/SVG/1.1/DTD/svg11.dtd">
<svg version="1.1" id="Layer_1" xmlns="http://www.w3.org/2000/svg" xmlns:xlink="http://www.w3.org/1999/xlink" x="0px" y="0px"
	 viewBox="0 0 48 48" enable-background="new 0 0 48 48" xml:space="preserve">
<g>
	<path fill="#FF7058" d="M48,15.4c0,14.1-16,15-24,30.2c-8-15.1-24-16-24-30.2c0-7.2,5.8-13,13-13c4.6,0,8.6,2.4,11,6
		c2.3-3.6,6.4-6,11-6C42.2,2.4,48,8.2,48,15.4z"/>
	<g>
		<path fill="#F2F2F2" d="M4,16.4c-0.6,0-1-0.4-1-1c0-5.5,4.5-10,10-10c0.6,0,1,0.4,1,1s-0.4,1-1,1c-4.4,0-8,3.6-8,8
			C5,16,4.6,16.4,4,16.4z"/>
	</g>
</g>
</svg>
