<?xml version="1.0" encoding="utf-8"?>
<!-- Generator: Adobe Illustrator 18.0.0, SVG Export Plug-In . SVG Version: 6.00 Build 0)  -->
<!DOCTYPE svg PUBLIC "-//W3C//DTD SVG 1.1//EN" "http://www.w3.org/Graphics/SVG/1.1/DTD/svg11.dtd">
<svg version="1.1" id="Layer_1" xmlns="http://www.w3.org/2000/svg" xmlns:xlink="http://www.w3.org/1999/xlink" x="0px" y="0px"
	 viewBox="0 0 48 48" enable-background="new 0 0 48 48" xml:space="preserve">
<g>
	<path fill="#FF7058" d="M34.8,2.4C30.3,2.4,26.4,4.6,24,8c-2.4-3.4-6.3-5.6-10.8-5.6C5.9,2.4,0,8.3,0,15.6
		c0,10.2,14.3,12.6,24,30.1c9.7-17.5,24-19.9,24-30.1C48,8.3,42.1,2.4,34.8,2.4z"/>
	<g>
		<path fill="#F2F2F2" d="M5,16.6c-0.6,0-1-0.4-1-1c0-5.1,4.1-9.2,9.2-9.2c0.6,0,1,0.4,1,1s-0.4,1-1,1c-4,0-7.2,3.2-7.2,7.2
			C6,16.1,5.6,16.6,5,16.6z"/>
	</g>
	<circle fill="#84DBFF" cx="36.9" cy="34.5" r="11.1"/>
	<path opacity="0.1" fill="#231F20" d="M25.8,34.5c0-6.1,5-11.1,11.1-11.1c2.2,0,4.2,0.6,5.9,1.7c0.4-0.4,0.8-0.7,1.1-1.1
		c-2-1.3-4.4-2.1-7-2.1c-6.9,0-12.6,5.7-12.6,12.6c0,2.6,0.8,5.1,2.2,7.1c0.3-0.5,0.6-0.9,0.9-1.3C26.4,38.6,25.8,36.6,25.8,34.5z"
		/>
	<g>
		<polygon fill="#FFFFFF" points="34.1,40.8 29,35.8 31.1,33.8 34.1,36.8 42.7,28.2 44.7,30.2 		"/>
	</g>
</g>
</svg>
