<?xml version="1.0" encoding="utf-8"?>
<!-- Generator: Adobe Illustrator 16.0.0, SVG Export Plug-In . SVG Version: 6.00 Build 0)  -->
<!DOCTYPE svg PUBLIC "-//W3C//DTD SVG 1.1//EN" "http://www.w3.org/Graphics/SVG/1.1/DTD/svg11.dtd">
<svg version="1.1" id="Layer_1" xmlns="http://www.w3.org/2000/svg" xmlns:xlink="http://www.w3.org/1999/xlink" x="0px" y="0px"
	 width="48px" height="48px" viewBox="0 0 48 48" enable-background="new 0 0 48 48" xml:space="preserve">
<g>
	<path fill="#CDD5DF" d="M42.678,23.997c-0.09,0-0.18-0.016-0.27-0.051l-18.677-7.161c-0.387-0.147-0.579-0.582-0.431-0.969
		c0.148-0.388,0.583-0.581,0.968-0.431l18.679,7.16c0.385,0.148,0.58,0.582,0.43,0.969C43.264,23.813,42.979,23.997,42.678,23.997"
		/>
	<path fill="#E7E9E8" d="M24.002,19.674c-1.051,0-2.07-0.341-2.912-0.993c-1.172-0.908-1.844-2.279-1.844-3.761
		c0-0.827,0.67-1.5,1.5-1.5c0.827,0,1.5,0.673,1.5,1.5c0,0.548,0.247,1.054,0.68,1.39c0.256,0.196,0.8,0.498,1.566,0.301
		c0.57-0.147,1.051-0.629,1.198-1.198c0.198-0.767-0.104-1.31-0.302-1.565c-0.336-0.434-0.842-0.683-1.389-0.683
		c-0.828,0-1.5-0.672-1.5-1.5V6.175c0-0.828,0.672-1.5,1.5-1.5c0.83,0,1.5,0.672,1.5,1.5v4.229c0.885,0.293,1.67,0.844,2.262,1.607
		c0.908,1.172,1.213,2.686,0.834,4.15c-0.418,1.617-1.734,2.936-3.354,3.354C24.83,19.621,24.414,19.674,24.002,19.674"/>
	<path fill="#CDD5DF" d="M25.5,10.288V6.175c0-0.828-0.67-1.5-1.5-1.5c-0.828,0-1.5,0.672-1.5,1.5v4.113H25.5z"/>
	<path fill="#CDD5DF" d="M5.322,23.997c-0.301,0-0.586-0.184-0.699-0.482c-0.149-0.387,0.045-0.82,0.431-0.969l18.679-7.16
		c0.385-0.15,0.819,0.043,0.969,0.431c0.147,0.387-0.045,0.821-0.433,0.969L5.592,23.946C5.502,23.981,5.412,23.997,5.322,23.997"/>
	<path fill="#F26F5A" d="M44,22.11H4c-2.209,0-4,1.791-4,4v17.891c0,2.209,1.791,4,4,4h40c2.209,0,4-1.791,4-4V26.11
		C48,23.901,46.209,22.11,44,22.11"/>
	<rect x="5.322" y="26.622" fill="#F05540" width="5.336" height="16.867"/>
	<rect x="15.996" y="26.622" fill="#F05540" width="5.336" height="16.867"/>
	<rect x="26.668" y="26.622" fill="#F05540" width="5.337" height="16.867"/>
	<rect x="37.678" y="26.622" fill="#F05540" width="5" height="16.867"/>
	<rect x="5.326" y="26.626" fill="#E74636" width="5.33" height="2.578"/>
	<rect x="15.996" y="26.626" fill="#E74636" width="5.34" height="2.578"/>
	<rect x="26.666" y="26.626" fill="#E74636" width="5.341" height="2.578"/>
	<rect x="37.677" y="26.626" fill="#E74636" width="5" height="2.578"/>
	<path fill="#ADB3BA" d="M13.672,0v6.286c0,1.469,1.191,2.66,2.66,2.66h15.336c1.469,0,2.66-1.191,2.66-2.66V0H13.672z"/>
</g>
</svg>
