<?xml version="1.0" encoding="utf-8"?>
<!-- Generator: Adobe Illustrator 16.0.0, SVG Export Plug-In . SVG Version: 6.00 Build 0)  -->
<!DOCTYPE svg PUBLIC "-//W3C//DTD SVG 1.1//EN" "http://www.w3.org/Graphics/SVG/1.1/DTD/svg11.dtd">
<svg version="1.1" id="Layer_1" xmlns="http://www.w3.org/2000/svg" xmlns:xlink="http://www.w3.org/1999/xlink" x="0px" y="0px"
	 width="48px" height="48px" viewBox="0 0 48 48" enable-background="new 0 0 48 48" xml:space="preserve">
<g>
	<rect x="15.409" y="16.295" fill="#40596B" width="17.184" height="1.889"/>
	<path fill="#40596B" d="M26.651,24.559c-1.462-1.463-3.841-1.463-5.302,0l-1.334-1.334c2.196-2.197,5.772-2.197,7.97,0
		L26.651,24.559z"/>
	<path fill="#40596B" d="M47.458,31.855L47.458,31.855c-0.785,0.785-2.078,0.707-2.764-0.168L39.477,25.4l1.526-1.527l6.289,5.219
		C48.165,29.775,48.243,31.07,47.458,31.855"/>
	<path fill="#F2F2F2" d="M36.251,32.961c-6.054,0-10.929-5.891-10.929-10.768c0-4.547,3.983-7.156,10.929-7.156
		c6.025,0,10.926,4.021,10.926,8.963S42.276,32.961,36.251,32.961"/>
	<path fill="#40596B" d="M0.542,31.855L0.542,31.855c0.785,0.785,2.079,0.707,2.764-0.168L8.524,25.4l-1.527-1.527L0.71,29.092
		C-0.165,29.775-0.243,31.07,0.542,31.855"/>
	<path fill="#F2F2F2" d="M11.751,32.961c6.053,0,10.928-5.891,10.928-10.768c0-4.547-3.983-7.156-10.928-7.156
		c-6.027,0-10.928,4.021-10.928,8.963S5.724,32.961,11.751,32.961"/>
	<path fill="#84DBFF" d="M45.361,24c0,4.01-4.079,7.26-9.11,7.26c-5.033,0-9.111-4.953-9.111-8.963s4.078-5.557,9.111-5.557
		C41.282,16.74,45.361,19.99,45.361,24"/>
	<path fill="#54C0EB" d="M39.123,17.113l-10.607,9.496c-0.226-0.357-0.432-0.729-0.606-1.1l9.713-8.674
		C38.136,16.887,38.64,16.979,39.123,17.113"/>
	<path fill="#54C0EB" d="M43.481,19.59L31.877,29.961c-0.699-0.432-1.347-0.955-1.922-1.541l11.553-10.33
		C42.258,18.49,42.926,19.004,43.481,19.59"/>
	<path fill="#84DBFF" d="M2.64,24c0,4.01,4.079,7.26,9.111,7.26c5.031,0,9.111-4.953,9.111-8.963s-4.08-5.557-9.111-5.557
		C6.719,16.74,2.64,19.99,2.64,24"/>
	<path fill="#54C0EB" d="M8.878,17.113l10.607,9.496c0.227-0.357,0.432-0.729,0.606-1.1l-9.713-8.674
		C9.865,16.887,9.36,16.979,8.878,17.113"/>
	<path fill="#54C0EB" d="M4.521,19.59l11.604,10.371c0.699-0.432,1.348-0.955,1.922-1.541L6.493,18.09
		C5.743,18.49,5.075,19.004,4.521,19.59"/>
</g>
</svg>
