<?xml version="1.0" encoding="utf-8"?>
<!-- Generator: Adobe Illustrator 18.0.0, SVG Export Plug-In . SVG Version: 6.00 Build 0)  -->
<!DOCTYPE svg PUBLIC "-//W3C//DTD SVG 1.1//EN" "http://www.w3.org/Graphics/SVG/1.1/DTD/svg11.dtd">
<svg version="1.1" id="Layer_1" xmlns="http://www.w3.org/2000/svg" xmlns:xlink="http://www.w3.org/1999/xlink" x="0px" y="0px"
	 viewBox="0 0 48 48" enable-background="new 0 0 48 48" xml:space="preserve">
<g>
	<g>
		<g>
			<path fill="#E8EAE9" d="M31.6,0H3.4C1.5,0,0,1.5,0,3.4v41.1C0,46.5,1.5,48,3.4,48h28.2c1.9,0,3.4-1.5,3.4-3.4V3.4
				C35.1,1.5,33.5,0,31.6,0z"/>
			<rect x="3.9" y="3.9" fill="#415A6B" width="27.3" height="35.1"/>
			<circle fill="#ADB3BA" cx="17.9" cy="43.5" r="2.6"/>
		</g>
		<g>
			<polygon fill="#FFD15C" points="48,11.1 37.6,2.6 37.6,7.4 18.4,7.4 18.4,14.8 37.6,14.8 37.6,19.6 			"/>
		</g>
		<g>
			<polygon fill="#F3705A" points="18.4,28.1 28.8,36.6 28.8,31.8 48,31.8 48,24.4 28.8,24.4 28.8,19.6 			"/>
		</g>
	</g>
</g>
</svg>
