<?xml version="1.0" encoding="utf-8"?>
<!-- Generator: Adobe Illustrator 18.0.0, SVG Export Plug-In . SVG Version: 6.00 Build 0)  -->
<!DOCTYPE svg PUBLIC "-//W3C//DTD SVG 1.1//EN" "http://www.w3.org/Graphics/SVG/1.1/DTD/svg11.dtd">
<svg version="1.1" id="Layer_1" xmlns="http://www.w3.org/2000/svg" xmlns:xlink="http://www.w3.org/1999/xlink" x="0px" y="0px"
	 viewBox="0 0 512 512" enable-background="new 0 0 512 512" xml:space="preserve">
<g>
	<g>
		<path fill="#54C0EB" d="M89.5,453.3c-6.1,22.8,7.4,46.3,30,52.4l10.3,2.8c22.6,6.1,45.9-7.4,51.9-30.3l23.5-88.3L112.9,365
			L89.5,453.3z"/>
		<path fill="#54C0EB" d="M433.3,453.3L409.8,365l-92.2,24.9l23.5,88.3c6.1,22.8,29.3,36.4,51.9,30.3l10.3-2.8
			C425.9,499.6,439.3,476.1,433.3,453.3z"/>
	</g>
	<path fill="#84DBFF" d="M508.6,245c-2.6,9.9-9.6,17-19,21.1C477.5,171.8,380,98.3,261.4,98.3c-47,0-90.7,11.6-127.1,31.4
		c-17.5-19.3-42.6-31.4-70.6-31.4c-6.4,0-12.7,0.7-18.8,1.9c27,7.2,39.6,37.9,33.7,72.3c-16.3,17.5-28.9,37.4-36.9,58.9h-17
		c-12.5,0-22.6,10.2-22.6,22.8v63.4c0,12.6,10.1,22.8,22.6,22.8h17c28.6,77,116.1,133.1,219.7,133.1c117.9,0,215-72.6,228-166.1
		c12.6-12.4,20.5-29.8,20.5-49C509.9,253.8,509.5,249.3,508.6,245z"/>
	<ellipse fill="#FFFFFF" cx="96.6" cy="238.1" rx="17.3" ry="17.5"/>
	<g>
		<path fill="#40596B" d="M345.5,172.5c-1.5,0-3-0.3-4.5-0.8c-25.2-9.3-52.4-14.1-80.9-14.1c-28.5,0-55.7,4.7-80.9,14.1
			c-6.7,2.5-14.2-1-16.6-7.8c-2.5-6.8,1-14.3,7.7-16.8c28.1-10.4,58.3-15.7,89.8-15.7s61.7,5.3,89.8,15.7c6.7,2.5,10.2,10,7.7,16.8
			C355.7,169.2,350.7,172.5,345.5,172.5z"/>
	</g>
	<g>
		<path fill="#FFD15C" d="M260.1,2.1c-47.4,0-85.9,38.8-85.9,86.6c0,19.4,6.3,37.3,17,51.7c6.4,8.5,14.2,15.8,23.1,21.5
			c14.8-2.9,30.1-4.3,45.8-4.3c15.7,0,31,1.4,45.8,4.3c9-5.6,16.8-12.9,23.1-21.5c10.7-14.5,17-32.3,17-51.7
			C346,40.8,307.5,2.1,260.1,2.1z"/>
		<ellipse fill="#F8B64C" cx="260.1" cy="88.7" rx="65.3" ry="65.9"/>
		<g>
			<path fill="#FFD15C" d="M285.8,89.3c-3.7-4.4-10.7-8-20.9-10.8V53.4c4.1,1.8,6.7,5.2,7.6,10.3l16.2-2.2
				c-1.1-6.4-3.7-11.6-7.7-15.4c-4-3.9-9.4-6.2-16.1-7v-6.4h-9.3v6.4c-7.3,0.7-13.2,3.5-17.6,8.3c-4.4,4.8-6.6,10.7-6.6,17.8
				c0,6.9,2,12.9,5.9,17.7c3.9,4.9,10,8.5,18.3,10.9v27c-2.3-1.1-4.4-3-6.3-5.4c-1.9-2.5-3.2-5.5-3.8-8.9l-16.6,1.8
				c1.3,8.5,4.2,15,8.8,19.6c1.6,1.6,3.3,3,5.2,4.1c3.6,2.2,7.9,3.6,12.8,4.2v8.4h9.3v-8.8c4.6-0.7,8.6-1.9,12.1-3.9
				c2.8-1.5,5.2-3.5,7.3-5.9c4.7-5.3,7-11.8,7-19.6C291.3,99.5,289.5,93.8,285.8,89.3z M264.9,96.6c3.8,1.1,6.5,2.7,8.2,4.8
				c1.7,2.1,2.5,4.6,2.5,7.4c0,3.2-1,6-3,8.4c-2,2.4-4.6,3.9-7.8,4.4V96.6z M249.4,70.7c-1.4-2-2-4.1-2-6.4c0-2.5,0.7-4.7,2.3-6.8
				c1.5-2.1,3.4-3.5,6-4.4v22.3C252.9,74.3,250.8,72.7,249.4,70.7z"/>
		</g>
	</g>
</g>
</svg>
