<?xml version="1.0" encoding="utf-8"?>
<!-- Generator: Adobe Illustrator 16.0.0, SVG Export Plug-In . SVG Version: 6.00 Build 0)  -->
<!DOCTYPE svg PUBLIC "-//W3C//DTD SVG 1.1//EN" "http://www.w3.org/Graphics/SVG/1.1/DTD/svg11.dtd">
<svg version="1.1" id="Layer_1" xmlns="http://www.w3.org/2000/svg" xmlns:xlink="http://www.w3.org/1999/xlink" x="0px" y="0px"
	 width="48px" height="48px" viewBox="0 0 48 48" enable-background="new 0 0 48 48" xml:space="preserve">
<g>
	<path fill="#FF7058" d="M44.808,19.633c-0.566-1.842-2.267-3.098-4.192-3.098H29.353v18.18H48v-4.702L44.808,19.633z"/>
	<path fill="#84DBFF" d="M45.234,29.413l-2.785-9.054c-0.249-0.811-0.986-1.355-1.834-1.355h-8.796v10.409H45.234z"/>
	<path fill="#54C0EB" d="M45.234,29.413l-2.785-9.054c-0.249-0.811-0.986-1.355-1.834-1.355h-8.796L45.234,29.413z"/>
	<path fill="#FF7058" d="M15.789,9.826h-5.427c-2.366,0-4.22-1.39-4.22-3.164c0-1.773,1.854-3.164,4.22-3.164
		c2.33,0,5.427,3.854,5.427,5.615V9.826z M10.362,4.924c-1.515,0-2.795,0.797-2.795,1.738c0,0.943,1.28,1.739,2.795,1.739h3.777
		C13.494,7.092,11.607,4.924,10.362,4.924"/>
	<path fill="#FF7058" d="M19.791,9.826h-5.427V9.113c0-1.762,3.097-5.615,5.427-5.615c2.367,0,4.221,1.391,4.221,3.164
		C24.012,8.437,22.158,9.826,19.791,9.826 M16.014,8.401h3.777c1.516,0,2.795-0.796,2.795-1.739c0-0.941-1.279-1.738-2.795-1.738
		C18.547,4.924,16.659,7.092,16.014,8.401"/>
	<rect x="0.799" y="13.23" fill="#F2F2F2" width="28.555" height="22.988"/>
	<path fill="#E8EAEA" d="M28.199,9.494H1.953C0.875,9.494,0,10.369,0,11.448v3.308h30.154v-3.308
		C30.154,10.369,29.279,9.494,28.199,9.494"/>
	<rect x="13.33" y="9.114" fill="#FF7058" width="3.493" height="27.302"/>
	<path fill="#40596B" d="M0.631,34.332v3.299c0,1.104,0.895,2,2,2h43.365c1.104,0,2-0.896,2-2v-3.299H0.631z"/>
	<path fill="#334A5E" d="M11.883,32.643c-3.859,0-6.988,3.129-6.988,6.988h13.977C18.871,35.771,15.742,32.643,11.883,32.643"/>
	<path fill="#334A5E" d="M38.38,32.643c-3.858,0-6.987,3.129-6.987,6.988h13.976C45.368,35.771,42.239,32.643,38.38,32.643"/>
	<path fill="#40596B" d="M16.754,39.631c0,2.689-2.181,4.871-4.871,4.871c-2.691,0-4.871-2.182-4.871-4.871s2.18-4.872,4.871-4.872
		C14.573,34.759,16.754,36.941,16.754,39.631"/>
	<path fill="#E8EAEA" d="M14.249,39.631c0,1.307-1.06,2.365-2.366,2.365s-2.366-1.059-2.366-2.365s1.06-2.366,2.366-2.366
		S14.249,38.324,14.249,39.631"/>
	<path fill="#40596B" d="M43.252,39.631c0,2.689-2.182,4.871-4.873,4.871c-2.689,0-4.87-2.182-4.87-4.871s2.181-4.872,4.87-4.872
		C41.07,34.759,43.252,36.941,43.252,39.631"/>
	<path fill="#E8EAEA" d="M40.746,39.631c0,1.307-1.059,2.365-2.365,2.365c-1.308,0-2.367-1.059-2.367-2.365s1.06-2.366,2.367-2.366
		C39.688,37.265,40.746,38.324,40.746,39.631"/>
</g>
</svg>
