<?xml version="1.0" encoding="utf-8"?>
<!-- Generator: Adobe Illustrator 18.0.0, SVG Export Plug-In . SVG Version: 6.00 Build 0)  -->
<!DOCTYPE svg PUBLIC "-//W3C//DTD SVG 1.1//EN" "http://www.w3.org/Graphics/SVG/1.1/DTD/svg11.dtd">
<svg version="1.1" id="Layer_1" xmlns="http://www.w3.org/2000/svg" xmlns:xlink="http://www.w3.org/1999/xlink" x="0px" y="0px"
	 viewBox="0 0 512 512" enable-background="new 0 0 512 512" xml:space="preserve">
<g>
	<path fill="#84DBFF" d="M503.8,288.1L223.9,8.2c-4-4-9.4-6.2-15-6.2H23.2C11.5,2,2,11.5,2,23.2v185.6c0,5.6,2.2,11,6.2,15
		l279.9,279.9c8.3,8.3,21.8,8.3,30.1,0l185.6-185.6C512.1,309.8,512.1,296.4,503.8,288.1z M96.1,96.1c-11.7,11.7-30.6,11.7-42.3,0
		c-11.7-11.7-11.7-30.6,0-42.3c11.7-11.7,30.6-11.7,42.3,0C107.8,65.5,107.8,84.5,96.1,96.1z"/>
	
		<rect x="159.9" y="101" transform="matrix(0.7071 -0.7071 0.7071 0.7071 -108.3698 261.6279)" fill="#F2F2F2" width="203.5" height="321.3"/>
	<g>
		
			<rect x="250.1" y="133.2" transform="matrix(0.7071 -0.7071 0.7071 0.7071 -108.37 261.6274)" fill="#84DBFF" width="23.1" height="256.9"/>
		<g>
			
				<rect x="209.8" y="173.4" transform="matrix(0.7071 -0.7071 0.7071 0.7071 -148.5912 244.9673)" fill="#84DBFF" width="23.1" height="256.9"/>
			
				<rect x="290.3" y="93" transform="matrix(0.7071 -0.7071 0.7071 0.7071 -68.1489 278.2876)" fill="#FFD15C" width="23.1" height="256.9"/>
		</g>
	</g>
</g>
</svg>
