<?xml version="1.0" encoding="utf-8"?>
<!-- Generator: Adobe Illustrator 18.0.0, SVG Export Plug-In . SVG Version: 6.00 Build 0)  -->
<!DOCTYPE svg PUBLIC "-//W3C//DTD SVG 1.1//EN" "http://www.w3.org/Graphics/SVG/1.1/DTD/svg11.dtd">
<svg version="1.1" id="Layer_1" xmlns="http://www.w3.org/2000/svg" xmlns:xlink="http://www.w3.org/1999/xlink" x="0px" y="0px"
	 viewBox="0 0 48 48" enable-background="new 0 0 48 48" xml:space="preserve">
<g>
	<g>
		<g>
			<g>
				<path fill="#415A6B" d="M25.9,16.8l2.4-1.1l-0.5-3l-2.7-0.2c-0.2-0.4-0.5-0.8-0.7-1.1l0.9-2.5l-2.5-1.7l-2,1.7
					c-0.4-0.1-0.9-0.2-1.3-0.3l-1.1-2.4l-3,0.5l-0.2,2.7c-0.4,0.2-0.8,0.5-1.1,0.7l-2.5-0.9l-1.8,2.5l1.8,2
					c-0.1,0.4-0.3,0.9-0.3,1.3L8.8,16l0.5,3l2.7,0.2c0.2,0.4,0.5,0.8,0.7,1.1l-1,2.5l2.5,1.7l2-1.7c0.4,0.1,0.9,0.2,1.3,0.3l1.1,2.4
					l3-0.5l0.2-2.7c0.4-0.2,0.8-0.5,1.1-0.7l2.5,0.9l1.7-2.5l-1.7-2C25.7,17.7,25.9,17.3,25.9,16.8z M19.2,19.1
					c-1.8,0.3-3.5-0.9-3.8-2.7c-0.3-1.8,0.9-3.5,2.7-3.8c1.8-0.3,3.5,0.9,3.8,2.7C22.2,17.1,21,18.8,19.2,19.1z"/>
			</g>
			<g>
				<path fill="#F3705A" d="M38.9,9.9l0.5-2.2l-1.8-0.9c0-0.3-0.1-0.7-0.2-1l1.4-1.5l-1.2-1.9l-1.9,0.6c-0.3-0.2-0.5-0.4-0.8-0.6
					l-0.1-2L32.7,0l-0.9,1.8c-0.3,0-0.7,0.1-1,0.2l-1.5-1.4l-1.9,1.2L28,3.7c-0.2,0.3-0.4,0.5-0.6,0.8l-2,0.1l-0.5,2.2l1.8,0.9
					c0,0.3,0.1,0.7,0.2,1l-1.4,1.5l1.2,1.9l1.9-0.6c0.3,0.2,0.5,0.4,0.8,0.6l0.1,2l2.2,0.5l0.9-1.8c0.3,0,0.7-0.1,1-0.2l1.5,1.4
					l1.9-1.2l-0.6-1.9c0.2-0.3,0.4-0.5,0.6-0.8L38.9,9.9z M31.7,9.6c-1.3-0.3-2.2-1.6-1.9-2.9c0.3-1.3,1.6-2.2,2.9-1.9
					c1.3,0.3,2.2,1.6,1.9,2.9C34.3,9.1,33,9.9,31.7,9.6z"/>
			</g>
		</g>
		<g>
			<g>
				<rect x="4.3" y="26.1" fill="#F7B64C" width="39.4" height="21.9"/>
			</g>
			<g>
				<polygon fill="#FFD15C" points="48,26.1 43.7,15.6 4.3,15.6 0,26.1 				"/>
			</g>
		</g>
	</g>
</g>
</svg>
