<?xml version="1.0" encoding="utf-8"?>
<!-- Generator: Adobe Illustrator 18.0.0, SVG Export Plug-In . SVG Version: 6.00 Build 0)  -->
<!DOCTYPE svg PUBLIC "-//W3C//DTD SVG 1.1//EN" "http://www.w3.org/Graphics/SVG/1.1/DTD/svg11.dtd">
<svg version="1.1" id="Layer_1" xmlns="http://www.w3.org/2000/svg" xmlns:xlink="http://www.w3.org/1999/xlink" x="0px" y="0px"
	 viewBox="0 0 48 48" enable-background="new 0 0 48 48" xml:space="preserve">
<g>
	<g>
		<g>
			<path fill="#FFD15C" d="M41.4,0H12.2l0,37.7l32.2,0l0-34.7C44.4,1.3,43,0,41.4,0z"/>
		</g>
		<g>
			<polygon fill="#F05540" points="31,14.7 27.1,11.6 23.1,14.7 23.1,0 31,0 			"/>
		</g>
		<g>
			<g>
				<path fill="#F3F3F3" d="M5.7,43L5.7,43c0-1.8,1.4-3.2,3.2-3.2l35.5,0l0,6.4l-35.5,0C7.1,46.2,5.7,44.7,5.7,43z"/>
			</g>
		</g>
		<g>
			<g>
				<path fill="#344A5E" d="M5.7,42.8L5.7,42.8c0-1.8,1.4-3.1,3.2-3.1h3.3l0-39.8H8.8C5.9,0,3.6,2.3,3.6,5.2l0,37.7"/>
			</g>
		</g>
		<g>
			<path fill="#415A6B" d="M8.8,40c-1.6,0-2.9,1.3-2.9,2.9c0,1.6,1.3,2.9,2.9,2.9l35.6,0l0,2.3L8.8,48c-2.8,0-5.2-2.3-5.2-5.2
				c0-2.8,2.3-5.2,5.2-5.2l35.6,0l0,2.3L8.8,40z"/>
		</g>
	</g>
</g>
</svg>
