<?xml version="1.0" encoding="utf-8"?>
<!-- Generator: Adobe Illustrator 19.0.1, SVG Export Plug-In . SVG Version: 6.00 Build 0)  -->
<svg version="1.1" id="Layer_1" xmlns="http://www.w3.org/2000/svg" xmlns:xlink="http://www.w3.org/1999/xlink" x="0px" y="0px"
	 viewBox="0 0 48 48" style="enable-background:new 0 0 48 48;" xml:space="preserve">
<style type="text/css">
	.st0{fill:#415A6B;}
	.st1{fill:#ADB3BA;}
	.st2{fill:#E8EAE9;}
	.st3{fill:#55C0EB;}
	.st4{fill:#F3705A;}
	.st5{fill:#FFFFFF;}
	.st6{fill:#FFD15C;}
	.st7{fill:#344A5E;}
	.st8{fill:#CED6E0;}
	.st9{fill:#F05540;}
	.st10{fill:#F7B64C;}
	.st11{fill:#F3F3F3;}
	.st12{fill:#66C6B9;}
	.st13{fill:#4ABAA5;}
	.st14{fill:#8AD7F8;}
	.st15{fill:none;}
	.st16{fill:#E53D35;}
</style>
<g>
	<g>
		<path class="st1" d="M43.4,2.9v38.4c0,1.6-1.3,2.9-2.9,2.9H11.3c-1.6,0-2.9-1.3-2.9-2.9V2.9C8.4,1.3,9.7,0,11.3,0h29.3
			C42.1,0,43.4,1.3,43.4,2.9z"/>
		<g>
			<path class="st2" d="M39.6,6.7v38.4c0,1.6-1.3,2.9-2.9,2.9H7.4c-1.6,0-2.9-1.3-2.9-2.9V6.7c0-1.6,1.3-2.9,2.9-2.9h29.3
				C38.3,3.8,39.6,5.1,39.6,6.7z"/>
			<g>
				<rect x="23" y="8.8" class="st1" width="12.2" height="2.8"/>
				<rect x="23" y="16.7" class="st1" width="12.2" height="2.8"/>
			</g>
			<rect x="9" y="24.5" class="st1" width="26.2" height="2.8"/>
			<rect x="9" y="32.3" class="st1" width="26.2" height="2.8"/>
			<g>
				<rect x="9" y="40.1" class="st1" width="13.1" height="2.8"/>
			</g>
			<g>
				<path class="st12" d="M27.6,44c-0.3,0-0.5-0.1-0.7-0.3l-2.5-2.5c-0.4-0.4-0.4-1,0-1.4s1-0.4,1.4,0l1.8,1.8l4.5-4.5
					c0.4-0.4,1-0.4,1.4,0s0.4,1,0,1.4l-5.2,5.2C28.1,43.9,27.9,44,27.6,44z"/>
			</g>
			<rect x="9" y="8.8" class="st4" width="10.7" height="10.7"/>
		</g>
	</g>
</g>
</svg>
