<?xml version="1.0" encoding="utf-8"?>
<!-- Generator: Adobe Illustrator 18.0.0, SVG Export Plug-In . SVG Version: 6.00 Build 0)  -->
<!DOCTYPE svg PUBLIC "-//W3C//DTD SVG 1.1//EN" "http://www.w3.org/Graphics/SVG/1.1/DTD/svg11.dtd">
<svg version="1.1" id="Layer_1" xmlns="http://www.w3.org/2000/svg" xmlns:xlink="http://www.w3.org/1999/xlink" x="0px" y="0px"
	 viewBox="0 0 48 48" enable-background="new 0 0 48 48" xml:space="preserve">
<g>
	<path fill="#F8B64C" d="M16.3,27.6c1.8,2.5,4.6,3.9,7.7,3.9c3.1,0,5.9-1.4,7.7-3.9c0.1-0.2,0.2-0.4,0.3-0.7l-2-0.7h0l0,0
		c0,0-0.1,0.1-0.1,0.1c-1.5,2-3.7,3-5.9,3c-2.2,0-4.4-1-5.9-3c0,0,0,0,0-0.1h0l0,0h0l-2,0.7C16.1,27.2,16.2,27.4,16.3,27.6z"/>
	<path fill="#ACB3BA" d="M24,29.5C24,29.5,24,29.5,24,29.5L24,29.5C24,29.5,24,29.5,24,29.5z"/>
	<path fill="#ACB3BA" d="M24,29.5L24,29.5C24,29.5,24,29.5,24,29.5C24,29.5,24,29.5,24,29.5z"/>
	<path fill="#F8B64C" d="M18,26.2C18.1,26.3,18.1,26.3,18,26.2L18,26.2z"/>
	<path fill="#F8B64C" d="M26.4,28.9"/>
	<path fill="#F8B64C" d="M30,26.2C29.9,26.3,29.9,26.3,30,26.2L30,26.2z"/>
	
		<ellipse transform="matrix(0.9962 -8.715077e-002 8.715077e-002 0.9962 -1.232 1.461)" fill="#F8B64C" cx="16.1" cy="14.8" rx="1.9" ry="2.8"/>
	
		<ellipse transform="matrix(0.9962 8.715304e-002 -8.715304e-002 0.9962 1.4147 -2.7239)" fill="#F8B64C" cx="31.9" cy="14.8" rx="1.9" ry="2.8"/>
	<path fill="#FFD15C" d="M16,6.9c-0.5,1.1-0.9,2.4-0.9,3.8v2.7c0,0.7,0,1.4,0.1,2v0c0.4,3.4,1.9,6.7,4.2,9.2l0.8,0.9
		c0.8,0.8,1.9,1.3,3,1.3h1.3c1.1,0,2.2-0.5,3-1.3l0.8-0.9c2.3-2.6,3.8-5.8,4.2-9.2c0.1-0.7,0.1-1.4,0.1-2v-2.7
		c0-1.4-0.3-2.6-0.9-3.8H16z"/>
	<path fill="#CDD6E0" d="M30,26.2"/>
	<path fill="#F8B64C" d="M28.5,24.6l-0.8,0.9c-0.8,0.8-1.9,1.3-3,1.3h-1.3c-1.1,0-2.2-0.5-3-1.3l-0.8-0.9c-0.5-0.6-1-1.2-1.5-1.9
		v3.5l6,8.1l6-8.1v-3.5C29.5,23.4,29,24,28.5,24.6z"/>
	<path fill="#40596B" d="M15.3,15.4l1.2,0.4c-0.2-1.1-0.1-2.5,0.5-3.3c0,0-0.6-5,3.1-4.7c0,0,3,1,8.5,0c0,0,2.3-0.1,1.9,2.3
		c0,0,0,2.7,1.2,3.3l-0.1,2.4l1.2-0.3c0.3-0.9,0-6.7,0-6.7c-0.8-4.2-5.9-6.5-5.9-6.5c0.5-0.7,1.4-0.4,1.4-0.4
		c-6.5-4.1-10.9-0.3-10.9-0.3c-4.6,4.2-2.2,9.2-2.2,9.2C14.8,12.6,15.1,14.4,15.3,15.4z"/>
	<path fill="#FF7058" d="M40.4,30L30,26.2h0l0,0c0,0-0.1,0.1-0.1,0.1c-1.5,2-3.7,3-5.9,3c-2.2,0-4.4-1-5.9-3c0,0,0,0,0-0.1h0l0,0h0
		L7.6,30c-3.3,1.2-5.4,4.3-5.4,7.7V48h43.7V37.7C45.9,34.2,43.7,31.1,40.4,30z"/>
	<polygon fill="#CDD6E0" points="33.2,27.4 18.3,44.1 18.3,48 34.4,48 38.8,29.4 	"/>
	<path fill="#FFD15C" d="M13,38.5h1.3h3.5c0.2,0,0.3-0.1,0.3-0.3v-0.1c0-0.2-0.1-0.3-0.3-0.3h-0.6c-0.8,0-2.1-0.9-1.5-1.5h3
		c0.9,0,1.9,0.3,2.6,0.9l0.8,0.6c1.6,1.8,2.2,1.5,2.2,1.5v7H24c-1.1,0.5-3.4,1-4.3,1.2c-0.2,0-0.5,0.1-0.7,0.1h-0.6h-3.2h-0.7
		c-0.4,0-0.8-0.3-0.9-0.7c-0.1-0.6,0.3-1.1,0.9-1.1h0.8c0.2,0,0.3-0.1,0.3-0.3l0,0c0-0.2-0.1-0.3-0.3-0.3h-1.6
		c-0.5,0-0.9-0.3-0.9-0.8c-0.1-0.5,0.4-1,0.9-1H14c0.2,0,0.3-0.1,0.3-0.3l0,0c0-0.2-0.1-0.3-0.3-0.3h-1.1c-0.5,0-0.9-0.3-0.9-0.8
		c-0.1-0.5,0.4-1,0.9-1H14c0.2,0,0.3-0.1,0.3-0.3l0,0c0-0.2-0.1-0.3-0.3-0.3h-1.1c-0.5,0-0.9-0.4-0.9-1C12.1,38.8,12.5,38.5,13,38.5
		z"/>
	<rect x="24.4" y="39.2" fill="#FFD15C" width="5" height="7.2"/>
	<polygon fill="#F2F2F2" points="38.8,29.4 34.4,48 22.7,48 33.2,27.4 	"/>
</g>
</svg>
