<?xml version="1.0" encoding="utf-8"?>
<!-- Generator: Adobe Illustrator 18.0.0, SVG Export Plug-In . SVG Version: 6.00 Build 0)  -->
<!DOCTYPE svg PUBLIC "-//W3C//DTD SVG 1.1//EN" "http://www.w3.org/Graphics/SVG/1.1/DTD/svg11.dtd">
<svg version="1.1" id="Layer_1" xmlns="http://www.w3.org/2000/svg" xmlns:xlink="http://www.w3.org/1999/xlink" x="0px" y="0px"
	 viewBox="0 0 48 48" enable-background="new 0 0 48 48" xml:space="preserve">
<g>
	<path fill="#F2F2F2" d="M45.8,14h-7.7l-1.3,4.5h6.7v10.6l-10.9,3.7L31.1,38l15.4-5.1c0.9-0.3,1.5-1.2,1.5-2.1V16.3
		C48,15,47,14,45.8,14z"/>
	<g opacity="0.1">
		<polygon fill="#231F20" points="36.8,18.5 41.5,18.5 42.8,14 38.1,14 		"/>
		<polygon fill="#231F20" points="37.8,31.1 32.6,32.8 31.1,38 36.2,36.3 		"/>
	</g>
	<path fill="#F2F2F2" d="M40.5,11.6H1c-0.7,0-1.2,0.7-1,1.3l8.2,27.9v5.1c0,1.2,0.9,2.1,2.1,2.1h20.9c1.2,0,2.1-0.9,2.1-2.1v-5.1
		l8.2-27.9C41.7,12.2,41.2,11.6,40.5,11.6z"/>
	<path fill="#CDD6E0" d="M8.2,40.8v5.1c0,1.2,0.9,2.1,2.1,2.1h20.9c1.2,0,2.1-0.9,2.1-2.1v-5.1H8.2z"/>
	<polygon fill="#FF7058" points="14.5,24 14.5,11.6 12.2,11.6 12.2,24 8.4,24 8.4,31.8 18.3,31.8 18.3,24 	"/>
	<g>
		<g>
			<path fill="#CDD6E0" d="M14.2,9.4c-0.2,0-0.3-0.1-0.5-0.2c-0.3-0.3-0.3-0.7,0-1c0.6-0.6,0.6-1.5,0-2.1c-1.1-1.1-1.1-2.9,0-4
				c0.3-0.3,0.7-0.3,1,0s0.3,0.7,0,1c-0.6,0.6-0.6,1.5,0,2.1c1.1,1.1,1.1,2.9,0,4C14.5,9.4,14.3,9.4,14.2,9.4z"/>
		</g>
		<g>
			<path fill="#CDD6E0" d="M20.8,7.5c-0.2,0-0.3-0.1-0.5-0.2c-0.3-0.3-0.3-0.7,0-1c0.6-0.6,0.6-1.5,0-2.1c-1.1-1.1-1.1-2.9,0-4
				c0.3-0.3,0.7-0.3,1,0s0.3,0.7,0,1c-0.6,0.6-0.6,1.5,0,2.1c1.1,1.1,1.1,2.9,0,4C21.1,7.4,21,7.5,20.8,7.5z"/>
		</g>
		<g>
			<path fill="#CDD6E0" d="M27.4,9.4c-0.2,0-0.3-0.1-0.5-0.2c-0.3-0.3-0.3-0.7,0-1c0.6-0.6,0.6-1.5,0-2.1c-1.1-1.1-1.1-2.9,0-4
				c0.3-0.3,0.7-0.3,1,0s0.3,0.7,0,1c-0.6,0.6-0.6,1.5,0,2.1c1.1,1.1,1.1,2.9,0,4C27.8,9.4,27.6,9.4,27.4,9.4z"/>
		</g>
	</g>
</g>
</svg>
