<?xml version="1.0" encoding="utf-8"?>
<!-- Generator: Adobe Illustrator 18.0.0, SVG Export Plug-In . SVG Version: 6.00 Build 0)  -->
<!DOCTYPE svg PUBLIC "-//W3C//DTD SVG 1.1//EN" "http://www.w3.org/Graphics/SVG/1.1/DTD/svg11.dtd">
<svg version="1.1" id="Layer_1" xmlns="http://www.w3.org/2000/svg" xmlns:xlink="http://www.w3.org/1999/xlink" x="0px" y="0px"
	 viewBox="0 0 512 512" enable-background="new 0 0 512 512" xml:space="preserve">
<g>
	<polygon fill="#65C5B8" points="147,96 147,57.6 85.5,57.6 85.5,145.5 	"/>
	<rect x="14.8" y="459.9" fill="#ABB2B9" width="70.7" height="38.2"/>
	<rect x="426.5" y="459.9" fill="#ABB2B9" width="70.7" height="38.2"/>
	<rect x="85.5" y="257.4" fill="#F2F2F2" width="341" height="240.7"/>
	<rect x="85.5" y="57.6" fill="#4FBFA8" width="61.5" height="15"/>
	<path fill="#F2705B" d="M502.5,206.6L268.6,18.3c-7.4-5.9-17.9-5.9-25.2,0L9.5,206.6c-14.8,11.9-6.4,35.7,12.6,35.7h467.7
		C508.8,242.4,517.2,218.5,502.5,206.6z"/>
	<rect x="192.9" y="320.4" fill="#FFD05C" width="126.2" height="177.7"/>
	<circle fill="#F7B34C" cx="303.5" cy="409.3" r="8.4"/>
	<path fill="#FFFFFF" d="M292.8,141.5c0,11.6-5.4,21.9-13.8,28.7c-6.3,5.1-14.3,8.1-22.9,8.1c-20.3,0-36.8-16.5-36.8-36.8
		c0-8.7,3-16.7,8.1-23c6.8-8.4,17.1-13.8,28.7-13.8C276.3,104.7,292.8,121.2,292.8,141.5z"/>
	<rect x="74.4" y="30" fill="#65C5B8" width="83.6" height="27.6"/>
	<rect x="85.5" y="242.4" fill="#CDD5DF" width="341" height="15.1"/>
</g>
</svg>
