<?xml version="1.0" encoding="utf-8"?>
<!-- Generator: Adobe Illustrator 18.0.0, SVG Export Plug-In . SVG Version: 6.00 Build 0)  -->
<!DOCTYPE svg PUBLIC "-//W3C//DTD SVG 1.1//EN" "http://www.w3.org/Graphics/SVG/1.1/DTD/svg11.dtd">
<svg version="1.1" id="Layer_1" xmlns="http://www.w3.org/2000/svg" xmlns:xlink="http://www.w3.org/1999/xlink" x="0px" y="0px"
	 viewBox="0 0 48 48" enable-background="new 0 0 48 48" xml:space="preserve">
<g>
	<g>
		<g>
			<path fill="#F3705A" d="M45.2,24.3l-3.4,2c-1.9-1.8-3.5-3.8-5.2-5.7c-1.2-1.4-1-3.7-2.7-2.9c-0.8,0.4,1.5,3.4,3.1,10.2
				c0.2,1,0.5,2.1,0.7,3.3L2.6,30.4c0,0,1.7-20,17.6-24.8C25.4,4,31,5,35.1,8.5C38.3,11.1,41.9,15.8,45.2,24.3z"/>
		</g>
		<g>
			<path fill="#F05540" d="M37.1,27.8c-1.1-1.3-2.2-3.1-2.8-4c-1-1.4-1.4-2.4-2.7-3.6c-2-2-6-2.7-8.8-2.3c-1,0.2-1.9,0.5-2.9,0.7
				c-1,0.2-2,0.2-2.9-0.3c3.3-1.4,6.9-1.8,10.5-1.4c-1.2-0.9-2-2.3-2.8-3.5c-0.8-1.3-1.9-2.5-3.3-3l0,0c2.2-0.1,4.5,1.3,5.3,3.4
				c0.4,0.9,0.5,1.9,1.1,2.6c0.6,0.7,1.6,1,2.6,0.9c0.9-0.1,1.7-0.5,2.5-1c0-0.1,0-0.3,0-0.4c-0.1-0.5-0.5-0.8-0.9-1.2
				c-0.4-0.3-0.7-0.7-0.9-1.1c-0.2-0.5,0-1.1,0-1.6c0-1-1.7-1.5-1.6-2.5c0.1-0.5,1.1,0.1,1.5,0.4c0.4,0.3,0.8,0.7,1.1,1.1
				c0.7,1,1.4,2.1,2,3.2c0.5,0.9,1,1.9,1.1,2.9c0.1,0.8,0.6,1.8,1.3,3.4c-1.2-1.4-1.7-3.2-2.7-2.9C33.1,17.9,35.5,21,37.1,27.8z"/>
		</g>
		<path fill="#F3F3F3" d="M37.6,30.4H2.2c-1.2,0-2.2,1-2.2,2.2v8.3c0,1.2,1,2.2,2.2,2.2h35.3c1.2,0,2.2-1,2.2-2.2v-8.3
			C39.8,31.4,38.8,30.4,37.6,30.4z"/>
		<circle fill="#F3F3F3" cx="43.5" cy="25.2" r="4.5"/>
	</g>
</g>
</svg>
