<?xml version="1.0" encoding="utf-8"?>
<!-- Generator: Adobe Illustrator 18.0.0, SVG Export Plug-In . SVG Version: 6.00 Build 0)  -->
<!DOCTYPE svg PUBLIC "-//W3C//DTD SVG 1.1//EN" "http://www.w3.org/Graphics/SVG/1.1/DTD/svg11.dtd">
<svg version="1.1" id="Layer_1" xmlns="http://www.w3.org/2000/svg" xmlns:xlink="http://www.w3.org/1999/xlink" x="0px" y="0px"
	 viewBox="0 0 48 48" enable-background="new 0 0 48 48" xml:space="preserve">
<g>
	<g>
		<polygon fill="#CED6E0" points="41.7,31.5 6.3,31.5 0,38.9 48,38.9 		"/>
		<polygon fill="#ADB3BA" points="18.5,36.9 21.3,33.5 26.7,33.5 29.5,36.9 		"/>
		<g>
			<g>
				<path fill="#415A6B" d="M8.3,5.8h31.4c1.1,0,2,0.9,2,2v23.7H6.3V7.8C6.3,6.7,7.2,5.8,8.3,5.8z"/>
				<rect x="8.8" y="8.3" fill="#8AD7F8" width="30.4" height="20.7"/>
			</g>
		</g>
		<g>
			<path fill="#ADB3BA" d="M48,38.9H0v0c0,1.8,1.5,3.3,3.3,3.3h41.4C46.5,42.2,48,40.7,48,38.9L48,38.9z"/>
		</g>
		<g>
			<path fill="#FFFFFF" d="M32.2,24.6c-5.4,1.2-10.9,1.2-16.3,0c-1.6-3.9-1.6-7.9,0-11.8c5.4-1.2,10.9-1.2,16.3,0
				C33.8,16.7,33.8,20.6,32.2,24.6z"/>
		</g>
		<g>
			<path fill="#F3705A" d="M21.3,15.9v5.5c0,0.6,0.7,0.9,1.2,0.6l3.6-2.7c0.4-0.3,0.4-0.9,0-1.1l-3.6-2.7C22,15,21.3,15.3,21.3,15.9
				z"/>
		</g>
	</g>
</g>
</svg>
