<?xml version="1.0" encoding="utf-8"?>
<!-- Generator: Adobe Illustrator 18.0.0, SVG Export Plug-In . SVG Version: 6.00 Build 0)  -->
<!DOCTYPE svg PUBLIC "-//W3C//DTD SVG 1.1//EN" "http://www.w3.org/Graphics/SVG/1.1/DTD/svg11.dtd">
<svg version="1.1" id="Layer_1" xmlns="http://www.w3.org/2000/svg" xmlns:xlink="http://www.w3.org/1999/xlink" x="0px" y="0px"
	 viewBox="0 0 48 48" enable-background="new 0 0 48 48" xml:space="preserve">
<g>
	<g>
		<g>
			<g>
				<g>
					<g>
						<path fill="#344A5E" d="M24.4,44.8l-2.5-11.3c0-0.2,0.1-0.4,0.3-0.4l0,0c0.2,0,0.4,0.1,0.4,0.3l2.5,11.3
							c0,0.2-0.1,0.4-0.3,0.4l0,0C24.6,45.1,24.5,44.9,24.4,44.8z"/>
					</g>
				</g>
			</g>
			<g>
				<g>
					<g>
						<path fill="#344A5E" d="M28.8,46.4l-5.1-13.1c-0.1-0.2,0-0.4,0.2-0.4l0,0c0.2-0.1,0.4,0,0.4,0.2l5.1,13.1
							c0.1,0.2,0,0.4-0.2,0.4l0,0C29.1,46.7,28.9,46.6,28.8,46.4z"/>
					</g>
				</g>
			</g>
			<g>
				<g>
					<g>
						<path fill="#344A5E" d="M14.4,48L14.4,48c-0.2,0-0.3-0.2-0.2-0.4L18,32.8c0-0.2,0.2-0.3,0.4-0.2l0,0c0.2,0,0.3,0.2,0.2,0.4
							l-3.8,14.8C14.8,47.9,14.6,48,14.4,48z"/>
					</g>
				</g>
			</g>
			<g>
				<g>
					<g>
						<path fill="#344A5E" d="M11.5,43.4L11.5,43.4c-0.2-0.1-0.3-0.3-0.2-0.4l4.3-10.6c0.1-0.2,0.3-0.3,0.4-0.2l0,0
							c0.2,0.1,0.3,0.3,0.2,0.4l-4.3,10.6C11.8,43.3,11.6,43.4,11.5,43.4z"/>
					</g>
				</g>
			</g>
		</g>
		<g>
			<g>
				<path fill="#FFD15C" d="M26.7,40.5c0,0-0.2,1.5-0.3,2.4c-0.1,0.8-0.1,0.8-0.1,0.8L24.4,44l-0.9-2.7c0,0,0.2-2.4,1-2.5
					c0.9-0.1,0.9-0.1,0.9-0.1L26.7,40.5z"/>
			</g>
		</g>
		<g>
			<g>
				<path fill="#F26F5A" d="M12.3,22.7c0,0-0.7,3.9-0.7,4.9c0.1,1.1,0.3,2.1,0.7,2.5c0.3,0.4,1.2,0.9,1.8,1.5
					c0.6,0.6,4.9,1.8,6.7,1.9c1.9,0.1,7.3-0.8,7.3-0.8l0.5-2.6c0,0-7.2,1.4-9.7,0.9C16.4,30.5,12.3,22.7,12.3,22.7z"/>
			</g>
		</g>
		<g>
			<g>
				<path fill="#E8EAE8" d="M23.9,38.8l0-0.2c0,0-0.9-0.1-1.3,0.4c-0.4,0.5-0.2,1.1,0,1.6c0.2,0.5,0.8,1.8,0.8,2.4
					c0,0.5,0,2.3,0.3,3c0.3,0.7,0.8,1.4,1.4,1.6c0.6,0.2,1.4,0,1.4-0.9c0-0.9-0.3-0.9-0.3-0.9l-1.8-2.2c0,0-0.2-0.1-0.6-1.8
					C23.4,40.1,23.8,38.8,23.9,38.8z"/>
			</g>
		</g>
		<g>
			<g>
				<path fill="#67C5B8" d="M24.2,39.1c0,0-0.4,1.2-0.4,1.9c0,0.7,0.1,2.2,1.3,2.7c0,0,1.2-0.4,1.3-0.8c0,0,0,1.4,0.1,1.9
					c0.1,0.5,0.2,2,0,2.3c-0.2,0.3-0.9,0.7-1.6,0.2c-0.6-0.4-1.2-1.6-1.2-2.4c0-0.8-0.1-2.2-0.3-2.7c-0.2-0.4-0.9-1.7-0.6-2.6
					c0.2-0.9,1-1,1.2-0.9c0.3,0,0.5,0.2,0.5,0.2S24.2,38.9,24.2,39.1z"/>
			</g>
		</g>
		<g>
			<g>
				<path fill="#E8EAE8" d="M33,28.7c0,0,1.5,0.4,1.8,1.3c0.3,0.8-0.2,1.7-1.2,1.7c-1-0.1-1.1-0.2-1.1-0.2L33,28.7z"/>
			</g>
		</g>
		<g>
			<g>
				<path fill="#67C5B8" d="M32.7,28.7c0,0,1.6,0.6,1.8,1.5c0.2,1-0.7,1.7-2.5,1.3C30,31.1,30,31.1,30,31.1L32.7,28.7z"/>
			</g>
		</g>
		<g>
			<g>
				<path fill="#425A6B" d="M16.1,24.2l-2.8,3.5l0.5,2.2l1.4,1.1c0,0,1.3,0.5,2.1,0.1c0,0,1.7,0.8,3.5,0.5c1.8-0.3,2.3-0.3,3-0.3
					c0.7,0,2.7-0.3,2.7-0.3l1.3-0.4c0,0-1.4,2.2-1.4,3.7c0,1.5-2.2,4.9-2.2,4.9s0.8,2.2,2.8,1.7c0,0,1.1-2.4,2.1-3.7
					c1-1.3,4.5-6.8,4.7-7.2c0.2-0.4,0.8-2.3-0.6-3.7c-1.5-1.4-4.2-2.2-4.2-2.2l-5.5-0.2L16.1,24.2z"/>
			</g>
		</g>
		<g>
			<path fill="#344A5E" d="M30,29.2c-0.5,0.1-0.6,0.1-0.8,0.1c0,0,0.6-0.3,0.6-0.5c0.1-0.2,0-0.3-0.2,0c-0.3,0.3-0.5,0.6-0.5,0.6
				s0.2-0.4,0.2-0.6c0-0.2-0.2,0.3-0.3,0.5C29,29.4,29,29.3,29,29.3s-0.1-1-0.2-0.6c-0.1,0.4-0.1,0.5-0.1,0.6c0,0.1-0.2,0.2-0.4-0.2
				c-0.2-0.3-0.1,0.1,0,0.2c0.2,0.1,0.2,0.1,0.2,0.1s-0.3,0.4-0.5,0.4c-0.2,0-1.2-0.4-1.8-1c-0.5-0.6-1.1-1.1-2-1.5
				c-1-0.4-1.9-0.6-2.1-0.8c-0.2-0.1-0.6-0.9-0.6-1.6c0-0.8-0.6-0.5-0.6-0.5l-1.6,0.7c0,0,0.5,0.5,0.4,0.8c0,0,1.7,0.2,2.1,0.7
				c0.5,0.5,1.4,1.1,2.3,1.3c0.8,0.3,1.1,0.4,1.1,0.4s1.2,0.9,1.3,1.7c0,0.5,0,0.8,0,1l0,0l1.3-0.4c0,0-0.1,0.1-0.1,0.2
				c0.2-0.3,0.3-0.6,0.4-0.8c0.1-0.2,0.6-0.7,1.1-0.7S30.5,29.1,30,29.2z"/>
		</g>
		<g>
			<g>
				<path fill="#48B9A5" d="M24.8,11.2l0.7,0.1c0,0,0.2,0.9,0.2,1.4s-0.2,2.5-0.1,2.8c0.1,0.4,0.1,0.3,0,0.6
					c-0.1,0.3-0.2,0.6-0.2,1.1c0,0.4-0.1,1.4,0,1.5c0.1,0.1,0.2,0.2,0.2,0.4s0.3,0.3,0.4,0.6c0.1,0.3,0.5,1.6,0.5,1.6
					s-0.7,0.2-1.1,0.5C25,22.2,25,22.2,25,22.2l-0.2-2.7L24.6,14L24.8,11.2z"/>
			</g>
		</g>
		<g>
			<g>
				<path fill="#425A6B" d="M20,0.4c-1,1.7-1.2,3.8-0.8,5.6c-0.5-0.2-0.9-0.6-1.1-1.1c-0.2-0.5-0.2-1-0.2-1.6
					c0.1-0.7,0.3-1.3,0.6-1.9c0.3-0.6,0.8-1,1.4-1.3"/>
			</g>
		</g>
		<g>
			<g>
				<path fill="#425A6B" d="M20.2,0.8c-0.1-0.2-0.4-0.2-0.6-0.1c-0.2,0.1-0.3,0.3-0.4,0.4c-0.3,0.4-0.5,0.9-0.7,1.4
					c-0.2,0.5-0.3,1-0.2,1.6c0.1,0.5,0.3,0.9,0.5,1.4c0.4,1.2,0.1,2.5-0.7,3.4c-0.5,0.5-1.3,0.6-1.9,0.8c-0.7,0.2-1.3,0.6-1.8,1.1
					c0.1-0.3,0.3-0.6,0.5-0.9c0.2-0.2,0.5-0.5,0.7-0.7c0.5-0.6,0.8-1.4,1-2.2s0.1-1.6,0.2-2.5c0-0.3,0.1-0.5,0.2-0.7
					c0.4-0.7,0.7-1.4,1.1-2.1c0.2-0.4,0.4-0.7,0.7-1c0.3-0.3,0.7-0.6,1.2-0.7c0.2,0,0.4-0.1,0.6,0c0.2,0.1,0.4,0.3,0.4,0.5"/>
			</g>
		</g>
		<g>
			<g>
				<path fill="#FFD15C" d="M18.9,4.5c0,0-0.2,1.1-0.3,1.5c-0.1,0.4-0.3,0.8-0.5,1c-0.2,0.2-0.8,1-0.8,1L17,11.1l1.1,2l5-0.2
					l-1.7-3.8c0,0,0.5,0.2,0.7-0.2c0.2-0.3,0.3-0.8,0.6-1C23.1,7.7,24,7.2,24,6.7c0-0.5,0.1-0.6,0.1-0.6s0.3-0.3,0.5-0.6
					c0.1-0.3,0.5-1,0.4-1.8c0-0.7,0-0.7,0-0.7s-1.8-1-2.8-1C21.1,2,19.6,2.3,18.9,4.5z"/>
			</g>
		</g>
		<g>
			<g>
				<path fill="#F26F5A" d="M17.6,11.7c2.2,0.9,3.8,0.7,4.8-1.1c0,0,1.9,3.3,1.9,4.6c0,1.3,1.2,8.8,1.2,8.8s-3.6,1.1-4.8,1.2
					c-1.2,0.1-3.5-0.7-4.6-0.4c-1.1,0.2-1.1,0.2-1.1,0.2l3-6.3L17.6,11.7z"/>
			</g>
		</g>
		<g>
			<g>
				<path fill="#48B9A5" d="M19.1,19.3c0.1,0.1,0.5,2.7,0.5,2.7s-0.2,0.8-0.8,1.1c-0.6,0.3-3.2,2.2-3.9,2.8
					c-0.7,0.6-1.3,2.1-1.2,2.8c0.1,0.6,1.5,2.4,1.5,2.4s-1.7-0.7-2-1.6c-0.2-0.8-0.3-2.3-0.6-3.9c-0.3-1.6-0.9-5.5-0.6-6.7
					c0.3-1.3,1.4-9.5,1.4-9.5C14,9,15.4,8.7,15.4,8.7L19.1,19.3z"/>
			</g>
		</g>
		<g>
			<g>
				<path fill="#425A6B" d="M18.9,4.6c0,0,0.2-1.1,0.7-1.2c0.5-0.1,0.3,1,0.3,1l0.3,0c0,0,0.2-1,0.8-1.4c0.6-0.3,1.3-0.4,1.6-0.3
					c0.4,0.1,2-0.3,2.3,0.9c0,0,0.5-1.5-0.8-2.6C23,0,21.7,0,21.1,0c-0.6,0.1-2,1.1-2.3,2S18.8,4.3,18.9,4.6z"/>
			</g>
		</g>
		<g>
			<g>
				<ellipse fill="#FFD15C" cx="19.3" cy="4.1" rx="0.5" ry="1"/>
			</g>
		</g>
		<g>
			<path fill="#F5B54C" d="M21.4,9.1c-0.7-0.4-2.1-2.1-2.3-2.8c0,0,0.1,2.6,3.1,4.6L21.4,9.1z"/>
		</g>
		<g>
			<g>
				<g>
					<path fill="#67C5B8" d="M19.1,20.9c-0.3-0.1-2-1.1-2.4-1.3c-0.4-0.2-1.1-0.8-1.3-1.1c-0.1-0.2-0.2-0.9-0.2-1.2
						c0-0.3,0-2.4,0-2.4l-0.4-3.8c0-0.1,0-0.1-0.1-0.2c0,0,0-0.1,0-0.1c0,0,0,0,0,0c-0.1-0.2-0.2-0.4-0.3-0.5
						c-0.1-0.1-0.1-0.2-0.2-0.2c0,0,0,0,0,0c0,0-0.1-0.1-0.1-0.1C14,10,13.9,9.9,13.9,9.8c0,0,0,0,0,0c-0.1-0.1-0.1,0,0,0
						c0,0,0,0,0,0c0,0-0.1-0.1-0.1-0.1c-0.1-0.1-0.2-0.1-0.3-0.1c0,0,0,0,0,0c0,0-0.1,0-0.1,0c-0.1,0-0.1,0-0.2,0
						C13.1,9.6,13,9.6,13,9.7c-0.3,0.5-0.6,1.1-0.7,1.6s-0.5,3.1-0.6,3.6c-0.1,0.5,1,5.3,1.1,5.6c0.1,0.3,0.7,0.6,1.3,0.9
						c0.6,0.3,2.9,1.4,3.5,1.5c0.6,0.1,3.9,0.7,4.2,0.7c0,0,0.2-1.7,0.5-1.8C22.3,21.8,19.4,21.1,19.1,20.9z"/>
				</g>
			</g>
			<g>
				<g>
					<path fill="#67C5B8" d="M18.2,6.9c0,0-0.6,0.9-0.6,1.4c0,0.5,1.1,4.8,1.4,5.8c0.3,1,0.6,7.9,0.6,7.9L14,13.3l1.4-4.6L17,8.1
						C17,8.1,17.7,6.9,18.2,6.9z"/>
				</g>
			</g>
			<g>
				<g>
					<path fill="#67C5B8" d="M21.4,9.1c0,0,1.9,5.6,2.2,6.4c0.3,0.9,1.1,7.9,1.1,7.9l1-0.3c0,0-0.7-2.9-0.6-3.9c0.1-1,0.9-7,0.5-8
						c0,0-0.1-0.4-0.5-0.6C24.7,10.6,22.1,9,22.1,9S21.9,9.3,21.4,9.1z"/>
				</g>
			</g>
		</g>
		<g>
			<g>
				<g>
					<path fill="#F26F5A" d="M19.5,0.7c0,0.1,0.1,0.2,0.3,0.1c0.2-0.2,0.5-0.5,0.8-0.6C20.4,0,20.2,0,20,0
						C19.9,0.3,19.7,0.5,19.5,0.7z"/>
				</g>
			</g>
		</g>
		<g>
			<g>
				<polygon fill="#CED6E0" points="20.2,23.5 20.1,23.4 27.3,22.9 28.8,24.5 25.1,24.9 				"/>
			</g>
		</g>
		<g>
			<g>
				<path fill="#425A6B" d="M25,24.8l0.2,0l9.1-0.7l0,0c0,0.2-0.1,0.3-0.3,0.3l-8.8,0.7L25,24.8z"/>
			</g>
		</g>
		<g>
			<g>
				<polygon fill="#F3F3F3" points="25.2,24.8 25.2,25.1 20.1,23.5 20.1,23.4 				"/>
			</g>
		</g>
		<g>
			<g>
				<path fill="#FFD15C" d="M21.9,23.2c0,0,0.6,0.2,1-0.1c0.3-0.2,1-0.6,1-0.6s0.4,0,0.4,0c0,0,0.4,0.1,0.5,0.1c0,0,0.7,0.4,1,0
					c0,0,0.5,0.2,0.6,0.2c0.2,0,0.2-0.3,0.2-0.3l-0.8-0.7c0,0-0.2-0.3-0.6-0.4c-0.5-0.1-1-0.2-1-0.2s-0.3-0.1-0.7,0
					c-0.3,0.1-0.9,0.5-1.2,0.6c-0.3,0-0.3,0-0.3,0L21.9,23.2z"/>
			</g>
		</g>
		<g>
			<g>
				<path fill="#67C5B8" d="M19.1,20.9c-0.1,0-0.2-0.1-0.3-0.1v2.4c1.2,0.2,2.9,0.5,3.1,0.5c0,0,0.2-1.7,0.5-1.8
					C22.3,21.8,19.4,21.1,19.1,20.9z"/>
			</g>
		</g>
		<g>
			<g>
				<path fill="#F5B54C" d="M25.7,22.7C25.7,22.7,25.7,22.7,25.7,22.7c-0.1-0.1-0.1-0.2-0.2-0.2c0,0-0.1-0.1-0.1-0.1
					c0,0-0.1-0.1-0.1-0.1c-0.1-0.1-0.2-0.1-0.3-0.1c-0.1,0-0.1-0.1-0.2-0.1c-0.1,0-0.1,0-0.2-0.1c-0.1,0-0.1,0-0.2,0
					c0,0-0.1,0-0.1,0c-0.1,0-0.2,0-0.2,0c-0.1,0-0.1,0-0.1,0s0,0,0.1,0c0,0,0.1,0,0.1,0c0,0,0.1,0,0.1,0c0.1,0,0.2,0,0.3,0.1
					c0.1,0,0.1,0,0.2,0.1c0.1,0,0.1,0,0.2,0.1c0.1,0,0.1,0,0.2,0.1c0.1,0,0.1,0,0.2,0.1c0.1,0,0.1,0.1,0.1,0.1c0,0,0.1,0.1,0.1,0.1
					C25.6,22.5,25.7,22.6,25.7,22.7C25.7,22.7,25.7,22.7,25.7,22.7z"/>
			</g>
		</g>
		<g>
			<path fill="#344A5E" d="M20.3,25.7"/>
		</g>
		<g>
			<g>
				<path fill="#344A5E" d="M20.3,25.9C20.3,25.9,20.3,25.9,20.3,25.9c-0.1,0-0.2,0-0.2,0c-0.1,0-0.1,0-0.2,0c-0.1,0-0.2,0-0.3,0
					c0,0-0.1,0-0.1,0c0,0-0.1,0-0.1,0c0,0-0.1,0-0.1,0c0,0-0.1,0-0.1,0c0,0-0.1,0-0.1,0c0,0,0,0-0.1,0c0,0,0,0,0,0c0,0,0,0,0,0
					s0,0,0,0c0,0,0,0,0,0c0,0,0,0,0.1,0c0,0,0,0,0.1-0.1c0.1,0,0.1-0.1,0.2-0.1c0,0,0.1,0,0.1,0c0,0,0.1,0,0.1,0c0,0,0.1,0,0.1,0
					c0,0,0.1,0,0.1,0c0.1,0,0.2,0,0.2,0C20.2,25.9,20.2,25.9,20.3,25.9C20.3,25.9,20.3,25.9,20.3,25.9z"/>
			</g>
		</g>
	</g>
	<g>
		<g>
			<path fill="#ACB2BA" d="M25.3,25.1l8.7-0.7c0.2,0,0.3-0.1,0.3-0.3l2.4-7c0-0.1-0.1-0.3-0.2-0.3L27.8,17c-0.2,0-0.3,0.1-0.4,0.3
				l-2.3,7.6C25.1,25,25.2,25.1,25.3,25.1z"/>
		</g>
	</g>
</g>
</svg>
