<?xml version="1.0" encoding="utf-8"?>
<!-- Generator: Adobe Illustrator 18.0.0, SVG Export Plug-In . SVG Version: 6.00 Build 0)  -->
<!DOCTYPE svg PUBLIC "-//W3C//DTD SVG 1.1//EN" "http://www.w3.org/Graphics/SVG/1.1/DTD/svg11.dtd">
<svg version="1.1" id="Layer_1" xmlns="http://www.w3.org/2000/svg" xmlns:xlink="http://www.w3.org/1999/xlink" x="0px" y="0px"
	 viewBox="0 0 48 48" enable-background="new 0 0 48 48" xml:space="preserve">
<g>
	<rect x="5.6" y="4.3" fill="#F2F2F2" width="36.8" height="39.9"/>
	<polygon fill="#CDD6E0" points="40.6,44.3 7.4,44.3 9.4,46.1 38.6,46.1 	"/>
	<path fill="#FFD15C" d="M4.7,3.5v9.7c0,0.5,0.4,1,1,1h0.8c1.3,0,2.4,1.1,2.4,2.4v5.8c0,1.1,0.9,2,2,2h0c1.1,0,2-0.9,2-2l0-2.1
		c0-1.1,0.8-2,1.8-2.1c1.2-0.1,2.2,0.8,2.2,2l0,2.9c0,1.1,0.8,2,1.8,2.1c1.2,0.1,2.2-0.8,2.2-2l0-6.1c0-1.1,0.8-2,1.8-2.1
		c1.2-0.1,2.2,0.8,2.2,2v7.6c0,1.1,0.9,2,2,2h0c1.1,0,2-0.9,2-2V17c0-1.5,1.2-2.8,2.8-2.8h10.2c0.5,0,1-0.4,1-1V3.5H4.7z"/>
	<g>
		<path fill="#40596B" d="M46,7.9h-2.7v2l2.7,0c0,12.1-9.9,22-22,22S2,22,2,9.9h1.9v-2H2c-1.1,0-2,0.9-2,2c0,13.2,10.8,24,24,24
			s24-10.8,24-24C48,8.8,47.1,7.9,46,7.9z"/>
	</g>
	<path fill="#FF7058" d="M24,30.9c-2.7,0-5.2-0.5-7.5-1.4c-0.5-0.2-1-0.1-1.3,0.3L14,30.9c-0.6,0.6-0.4,1.7,0.4,2
		c3,1.2,6.2,1.9,9.6,1.9c3.4,0,6.7-0.7,9.6-1.9c0.8-0.3,1-1.4,0.4-2l-1.1-1.1c-0.4-0.4-0.9-0.5-1.3-0.3C29.2,30.4,26.7,30.9,24,30.9
		z"/>
	<g>
		<rect x="3.8" y="7.4" fill="#334A5E" width="0.9" height="2.9"/>
		<rect x="43.3" y="7.4" fill="#334A5E" width="0.9" height="2.9"/>
	</g>
	<path fill="#FCC854" d="M4.7,6.1c0,0,0.1,0,0.1,0h38.4c0,0,0.1,0,0.1,0V3.5H4.7V6.1z"/>
	<path fill="#F8B64C" d="M43.2,1.9H4.8c-0.9,0-1.6,0.7-1.6,1.6v0c0,0.9,0.7,1.6,1.6,1.6h38.4c0.9,0,1.6-0.7,1.6-1.6v0
		C44.8,2.6,44.1,1.9,43.2,1.9z"/>
</g>
</svg>
