<?xml version="1.0" encoding="utf-8"?>
<!-- Generator: Adobe Illustrator 18.0.0, SVG Export Plug-In . SVG Version: 6.00 Build 0)  -->
<!DOCTYPE svg PUBLIC "-//W3C//DTD SVG 1.1//EN" "http://www.w3.org/Graphics/SVG/1.1/DTD/svg11.dtd">
<svg version="1.1" id="Layer_1" xmlns="http://www.w3.org/2000/svg" xmlns:xlink="http://www.w3.org/1999/xlink" x="0px" y="0px"
	 viewBox="0 0 48 48" enable-background="new 0 0 48 48" xml:space="preserve">
<g>
	<polygon fill="#F1543F" points="30.2,14.6 17.6,14.6 11.3,0 23.9,0 	"/>
	<g>
		<path fill="#F8B64C" d="M30.6,21.3H17.4c-1.7,0-3.1-1.4-3.1-3.1V15c0-1.7,1.4-3.1,3.1-3.1h13.3c1.7,0,3.1,1.4,3.1,3.1v3.2
			C33.7,19.9,32.3,21.3,30.6,21.3z M17.4,14.6c-0.2,0-0.4,0.2-0.4,0.4v3.2c0,0.2,0.2,0.4,0.4,0.4h13.3c0.2,0,0.4-0.2,0.4-0.4V15
			c0-0.2-0.2-0.4-0.4-0.4H17.4z"/>
	</g>
	<circle fill="#FFD15C" cx="24" cy="32.3" r="15.7"/>
	<g>
		<path fill="#F8B64C" d="M24,45.5c-7.3,0-13.2-5.9-13.2-13.2C10.8,25,16.7,19,24,19S37.2,25,37.2,32.3C37.2,39.6,31.3,45.5,24,45.5
			z M24,20.8c-6.3,0-11.5,5.2-11.5,11.5c0,6.3,5.2,11.5,11.5,11.5s11.5-5.2,11.5-11.5C35.5,25.9,30.3,20.8,24,20.8z"/>
	</g>
	<polygon fill="#FF7058" points="17.8,14.6 30.4,14.6 36.7,0 24.1,0 	"/>
	<path fill="#FFFFFF" d="M31.6,30.5c0.6-0.4,0.3-1.3-0.4-1.3h-4.5c-0.3,0-0.6-0.2-0.7-0.5l-1.4-4.3c-0.2-0.6-1.1-0.6-1.3,0l-1.4,4.3
		c-0.1,0.3-0.4,0.5-0.7,0.5h-4.5c-0.7,0-1,0.9-0.4,1.3l3.6,2.6c0.2,0.2,0.4,0.5,0.3,0.8l-1.4,4.3c-0.2,0.6,0.5,1.2,1.1,0.8l3.6-2.6
		c0.2-0.2,0.6-0.2,0.8,0L28,39c0.6,0.4,1.3-0.1,1.1-0.8l-1.4-4.3c-0.1-0.3,0-0.6,0.3-0.8L31.6,30.5z"/>
</g>
</svg>
