<?xml version="1.0" encoding="utf-8"?>
<!-- Generator: Adobe Illustrator 18.0.0, SVG Export Plug-In . SVG Version: 6.00 Build 0)  -->
<!DOCTYPE svg PUBLIC "-//W3C//DTD SVG 1.1//EN" "http://www.w3.org/Graphics/SVG/1.1/DTD/svg11.dtd">
<svg version="1.1" id="Layer_1" xmlns="http://www.w3.org/2000/svg" xmlns:xlink="http://www.w3.org/1999/xlink" x="0px" y="0px"
	 viewBox="0 0 48 48" enable-background="new 0 0 48 48" xml:space="preserve">
<g>
	<g>
		<path fill="#F8B64C" d="M14.1,44.9c0,1.7-3,3.1-6.7,3.1c-3.7,0-6.7-1.4-6.7-3.1v-2.1h13.3V44.9z"/>
		<g>
			<ellipse fill="#FFD15C" cx="7.4" cy="42.9" rx="6.7" ry="3.1"/>
			<ellipse fill="#F8B64C" cx="7.4" cy="42.9" rx="5.4" ry="2.5"/>
			<g>
				<path fill="#FFD15C" d="M7.1,44v-1c-0.7-0.1-1.1-0.2-1.4-0.4c-0.3-0.2-0.5-0.4-0.5-0.6c0-0.3,0.2-0.5,0.5-0.6
					c0.3-0.2,0.8-0.3,1.4-0.3v-0.2h0.7v0.2c0.5,0,0.9,0.1,1.3,0.2c0.3,0.1,0.5,0.3,0.6,0.6l-1.3,0.1c-0.1-0.2-0.3-0.3-0.6-0.4v0.9
					c0.8,0.1,1.3,0.2,1.6,0.4c0.3,0.2,0.4,0.4,0.4,0.6c0,0.3-0.2,0.5-0.5,0.7c-0.4,0.2-0.9,0.3-1.5,0.3v0.4H7.1v-0.4
					c-0.6,0-1-0.1-1.4-0.3c-0.4-0.2-0.6-0.4-0.7-0.7l1.3-0.1c0.1,0.1,0.2,0.2,0.3,0.3C6.7,43.9,6.9,43.9,7.1,44z M7.1,41.6
					c-0.2,0-0.4,0.1-0.5,0.2c-0.1,0.1-0.2,0.2-0.2,0.2c0,0.1,0.1,0.2,0.2,0.2c0.1,0.1,0.3,0.1,0.5,0.2V41.6z M7.8,44
					c0.2,0,0.5-0.1,0.6-0.2c0.2-0.1,0.2-0.2,0.2-0.3c0-0.1-0.1-0.2-0.2-0.3c-0.1-0.1-0.3-0.1-0.6-0.2V44z"/>
			</g>
		</g>
	</g>
	<g>
		<path fill="#F8B64C" d="M14.1,42.4c0,1.7-3,3.1-6.7,3.1c-3.7,0-6.7-1.4-6.7-3.1v-2.1h13.3V42.4z"/>
		<g>
			<ellipse fill="#FFD15C" cx="7.4" cy="40.3" rx="6.7" ry="3.1"/>
			<ellipse fill="#F8B64C" cx="7.4" cy="40.3" rx="5.4" ry="2.5"/>
			<g>
				<path fill="#FFD15C" d="M7.1,41.4v-1c-0.7-0.1-1.1-0.2-1.4-0.4c-0.3-0.2-0.5-0.4-0.5-0.6c0-0.3,0.2-0.5,0.5-0.6
					c0.3-0.2,0.8-0.3,1.4-0.3v-0.2h0.7v0.2c0.5,0,0.9,0.1,1.3,0.2c0.3,0.1,0.5,0.3,0.6,0.6l-1.3,0.1c-0.1-0.2-0.3-0.3-0.6-0.4v0.9
					c0.8,0.1,1.3,0.2,1.6,0.4c0.3,0.2,0.4,0.4,0.4,0.6c0,0.3-0.2,0.5-0.5,0.7c-0.4,0.2-0.9,0.3-1.5,0.3v0.4H7.1V42
					c-0.6,0-1-0.1-1.4-0.3C5.3,41.5,5.1,41.3,5,41l1.3-0.1c0.1,0.1,0.2,0.2,0.3,0.3S6.9,41.4,7.1,41.4z M7.1,39
					c-0.2,0-0.4,0.1-0.5,0.2c-0.1,0.1-0.2,0.2-0.2,0.2c0,0.1,0.1,0.2,0.2,0.2c0.1,0.1,0.3,0.1,0.5,0.2V39z M7.8,41.4
					c0.2,0,0.5-0.1,0.6-0.2c0.2-0.1,0.2-0.2,0.2-0.3c0-0.1-0.1-0.2-0.2-0.3c-0.1-0.1-0.3-0.1-0.6-0.2V41.4z"/>
			</g>
		</g>
	</g>
	<g>
		<path fill="#F8B64C" d="M14.1,39.8c0,1.7-3,3.1-6.7,3.1c-3.7,0-6.7-1.4-6.7-3.1v-2.1h13.3V39.8z"/>
		<g>
			<ellipse fill="#FFD15C" cx="7.4" cy="37.8" rx="6.7" ry="3.1"/>
			<ellipse fill="#F8B64C" cx="7.4" cy="37.8" rx="5.4" ry="2.5"/>
			<g>
				<path fill="#FFD15C" d="M7.1,38.8v-1c-0.7-0.1-1.1-0.2-1.4-0.4c-0.3-0.2-0.5-0.4-0.5-0.6c0-0.3,0.2-0.5,0.5-0.6
					C6,36,6.5,36,7.1,35.9v-0.2h0.7v0.2C8.3,36,8.7,36,9,36.2c0.3,0.1,0.5,0.3,0.6,0.6l-1.3,0.1c-0.1-0.2-0.3-0.3-0.6-0.4v0.9
					c0.8,0.1,1.3,0.2,1.6,0.4c0.3,0.2,0.4,0.4,0.4,0.6c0,0.3-0.2,0.5-0.5,0.7c-0.4,0.2-0.9,0.3-1.5,0.3v0.4H7.1v-0.4
					c-0.6,0-1-0.1-1.4-0.3c-0.4-0.2-0.6-0.4-0.7-0.7l1.3-0.1c0.1,0.1,0.2,0.2,0.3,0.3C6.7,38.7,6.9,38.8,7.1,38.8z M7.1,36.4
					c-0.2,0-0.4,0.1-0.5,0.2c-0.1,0.1-0.2,0.2-0.2,0.2c0,0.1,0.1,0.2,0.2,0.2c0.1,0.1,0.3,0.1,0.5,0.2V36.4z M7.8,38.9
					c0.2,0,0.5-0.1,0.6-0.2c0.2-0.1,0.2-0.2,0.2-0.3c0-0.1-0.1-0.2-0.2-0.3C8.3,38.1,8.1,38,7.8,38V38.9z"/>
			</g>
		</g>
	</g>
	<g>
		<path fill="#F8B64C" d="M42.7,44.9c0,1.7-3,3.1-6.7,3.1c-3.7,0-6.7-1.4-6.7-3.1v-2.1h13.3V44.9z"/>
		<g>
			<ellipse fill="#FFD15C" cx="36" cy="42.9" rx="6.7" ry="3.1"/>
			<ellipse fill="#F8B64C" cx="36" cy="42.9" rx="5.4" ry="2.5"/>
			<g>
				<path fill="#FFD15C" d="M35.7,44v-1c-0.7-0.1-1.1-0.2-1.4-0.4c-0.3-0.2-0.5-0.4-0.5-0.6c0-0.3,0.2-0.5,0.5-0.6
					c0.3-0.2,0.8-0.3,1.4-0.3v-0.2h0.7v0.2c0.5,0,0.9,0.1,1.3,0.2c0.3,0.1,0.5,0.3,0.6,0.6L37,41.9c-0.1-0.2-0.3-0.3-0.6-0.4v0.9
					c0.8,0.1,1.3,0.2,1.6,0.4c0.3,0.2,0.4,0.4,0.4,0.6c0,0.3-0.2,0.5-0.5,0.7c-0.4,0.2-0.9,0.3-1.5,0.3v0.4h-0.7v-0.4
					c-0.6,0-1-0.1-1.4-0.3c-0.4-0.2-0.6-0.4-0.7-0.7l1.3-0.1c0.1,0.1,0.2,0.2,0.3,0.3C35.3,43.9,35.5,43.9,35.7,44z M35.7,41.6
					c-0.2,0-0.4,0.1-0.5,0.2C35.1,41.8,35,41.9,35,42c0,0.1,0.1,0.2,0.2,0.2c0.1,0.1,0.3,0.1,0.5,0.2V41.6z M36.4,44
					c0.2,0,0.5-0.1,0.6-0.2c0.2-0.1,0.2-0.2,0.2-0.3c0-0.1-0.1-0.2-0.2-0.3c-0.1-0.1-0.3-0.1-0.6-0.2V44z"/>
			</g>
		</g>
	</g>
	<g>
		<path fill="#F8B64C" d="M42.7,42.4c0,1.7-3,3.1-6.7,3.1c-3.7,0-6.7-1.4-6.7-3.1v-2.1h13.3V42.4z"/>
		<g>
			<ellipse fill="#FFD15C" cx="36" cy="40.3" rx="6.7" ry="3.1"/>
			<ellipse fill="#F8B64C" cx="36" cy="40.3" rx="5.4" ry="2.5"/>
			<g>
				<path fill="#FFD15C" d="M35.7,41.4v-1c-0.7-0.1-1.1-0.2-1.4-0.4c-0.3-0.2-0.5-0.4-0.5-0.6c0-0.3,0.2-0.5,0.5-0.6
					c0.3-0.2,0.8-0.3,1.4-0.3v-0.2h0.7v0.2c0.5,0,0.9,0.1,1.3,0.2c0.3,0.1,0.5,0.3,0.6,0.6L37,39.4c-0.1-0.2-0.3-0.3-0.6-0.4v0.9
					c0.8,0.1,1.3,0.2,1.6,0.4c0.3,0.2,0.4,0.4,0.4,0.6c0,0.3-0.2,0.5-0.5,0.7c-0.4,0.2-0.9,0.3-1.5,0.3v0.4h-0.7V42
					c-0.6,0-1-0.1-1.4-0.3c-0.4-0.2-0.6-0.4-0.7-0.7l1.3-0.1c0.1,0.1,0.2,0.2,0.3,0.3C35.3,41.3,35.5,41.4,35.7,41.4z M35.7,39
					c-0.2,0-0.4,0.1-0.5,0.2c-0.1,0.1-0.2,0.2-0.2,0.2c0,0.1,0.1,0.2,0.2,0.2c0.1,0.1,0.3,0.1,0.5,0.2V39z M36.4,41.4
					c0.2,0,0.5-0.1,0.6-0.2c0.2-0.1,0.2-0.2,0.2-0.3c0-0.1-0.1-0.2-0.2-0.3c-0.1-0.1-0.3-0.1-0.6-0.2V41.4z"/>
			</g>
		</g>
	</g>
	<g>
		<path fill="#F8B64C" d="M42.7,39.8c0,1.7-3,3.1-6.7,3.1c-3.7,0-6.7-1.4-6.7-3.1v-2.1h13.3V39.8z"/>
		<g>
			<ellipse fill="#FFD15C" cx="36" cy="37.8" rx="6.7" ry="3.1"/>
			<ellipse fill="#F8B64C" cx="36" cy="37.8" rx="5.4" ry="2.5"/>
			<g>
				<path fill="#FFD15C" d="M35.7,38.8v-1c-0.7-0.1-1.1-0.2-1.4-0.4c-0.3-0.2-0.5-0.4-0.5-0.6c0-0.3,0.2-0.5,0.5-0.6
					c0.3-0.2,0.8-0.3,1.4-0.3v-0.2h0.7v0.2c0.5,0,0.9,0.1,1.3,0.2c0.3,0.1,0.5,0.3,0.6,0.6L37,36.8c-0.1-0.2-0.3-0.3-0.6-0.4v0.9
					c0.8,0.1,1.3,0.2,1.6,0.4c0.3,0.2,0.4,0.4,0.4,0.6c0,0.3-0.2,0.5-0.5,0.7c-0.4,0.2-0.9,0.3-1.5,0.3v0.4h-0.7v-0.4
					c-0.6,0-1-0.1-1.4-0.3c-0.4-0.2-0.6-0.4-0.7-0.7l1.3-0.1c0.1,0.1,0.2,0.2,0.3,0.3C35.3,38.7,35.5,38.8,35.7,38.8z M35.7,36.4
					c-0.2,0-0.4,0.1-0.5,0.2c-0.1,0.1-0.2,0.2-0.2,0.2c0,0.1,0.1,0.2,0.2,0.2c0.1,0.1,0.3,0.1,0.5,0.2V36.4z M36.4,38.9
					c0.2,0,0.5-0.1,0.6-0.2c0.2-0.1,0.2-0.2,0.2-0.3c0-0.1-0.1-0.2-0.2-0.3c-0.1-0.1-0.3-0.1-0.6-0.2V38.9z"/>
			</g>
		</g>
	</g>
	<g>
		<path fill="#F8B64C" d="M42.7,37.2c0,1.7-3,3.1-6.7,3.1c-3.7,0-6.7-1.4-6.7-3.1v-2.1h13.3V37.2z"/>
		<g>
			<ellipse fill="#FFD15C" cx="36" cy="35.2" rx="6.7" ry="3.1"/>
			<ellipse fill="#F8B64C" cx="36" cy="35.2" rx="5.4" ry="2.5"/>
			<g>
				<path fill="#FFD15C" d="M35.7,36.3v-1c-0.7-0.1-1.1-0.2-1.4-0.4c-0.3-0.2-0.5-0.4-0.5-0.6c0-0.3,0.2-0.5,0.5-0.6
					c0.3-0.2,0.8-0.3,1.4-0.3v-0.2h0.7v0.2c0.5,0,0.9,0.1,1.3,0.2c0.3,0.1,0.5,0.3,0.6,0.6L37,34.2c-0.1-0.2-0.3-0.3-0.6-0.4v0.9
					c0.8,0.1,1.3,0.2,1.6,0.4c0.3,0.2,0.4,0.4,0.4,0.6c0,0.3-0.2,0.5-0.5,0.7c-0.4,0.2-0.9,0.3-1.5,0.3v0.4h-0.7v-0.4
					c-0.6,0-1-0.1-1.4-0.3c-0.4-0.2-0.6-0.4-0.7-0.7l1.3-0.1c0.1,0.1,0.2,0.2,0.3,0.3C35.3,36.2,35.5,36.2,35.7,36.3z M35.7,33.9
					c-0.2,0-0.4,0.1-0.5,0.2c-0.1,0.1-0.2,0.2-0.2,0.2c0,0.1,0.1,0.2,0.2,0.2c0.1,0.1,0.3,0.1,0.5,0.2V33.9z M36.4,36.3
					c0.2,0,0.5-0.1,0.6-0.2c0.2-0.1,0.2-0.2,0.2-0.3c0-0.1-0.1-0.2-0.2-0.3c-0.1-0.1-0.3-0.1-0.6-0.2V36.3z"/>
			</g>
		</g>
	</g>
	<g>
		<path fill="#F8B64C" d="M42.7,34.7c0,1.7-3,3.1-6.7,3.1c-3.7,0-6.7-1.4-6.7-3.1v-2.1h13.3V34.7z"/>
		<g>
			<ellipse fill="#FFD15C" cx="36" cy="32.6" rx="6.7" ry="3.1"/>
			<ellipse fill="#F8B64C" cx="36" cy="32.6" rx="5.4" ry="2.5"/>
			<g>
				<path fill="#FFD15C" d="M35.7,33.7v-1c-0.7-0.1-1.1-0.2-1.4-0.4c-0.3-0.2-0.5-0.4-0.5-0.6c0-0.3,0.2-0.5,0.5-0.6
					c0.3-0.2,0.8-0.3,1.4-0.3v-0.2h0.7v0.2c0.5,0,0.9,0.1,1.3,0.2c0.3,0.1,0.5,0.3,0.6,0.6L37,31.7c-0.1-0.2-0.3-0.3-0.6-0.4v0.9
					c0.8,0.1,1.3,0.2,1.6,0.4c0.3,0.2,0.4,0.4,0.4,0.6c0,0.3-0.2,0.5-0.5,0.7c-0.4,0.2-0.9,0.3-1.5,0.3v0.4h-0.7v-0.4
					c-0.6,0-1-0.1-1.4-0.3c-0.4-0.2-0.6-0.4-0.7-0.7l1.3-0.1c0.1,0.1,0.2,0.2,0.3,0.3C35.3,33.6,35.5,33.7,35.7,33.7z M35.7,31.3
					c-0.2,0-0.4,0.1-0.5,0.2c-0.1,0.1-0.2,0.2-0.2,0.2c0,0.1,0.1,0.2,0.2,0.2c0.1,0.1,0.3,0.1,0.5,0.2V31.3z M36.4,33.7
					c0.2,0,0.5-0.1,0.6-0.2c0.2-0.1,0.2-0.2,0.2-0.3c0-0.1-0.1-0.2-0.2-0.3c-0.1-0.1-0.3-0.1-0.6-0.2V33.7z"/>
			</g>
		</g>
	</g>
	<g>
		<path fill="#40596B" d="M20.2,48c-2.8,0-5.1-2.3-5.1-5.1v-3.3c0-0.7,0.6-1.3,1.3-1.3c0.7,0,1.3,0.6,1.3,1.3v3.3
			c0,1.4,1.1,2.5,2.5,2.5c1.4,0,2.5-1.1,2.5-2.5V1.6c0-0.7,0.6-1.3,1.3-1.3c0.7,0,1.3,0.6,1.3,1.3v41.4C25.3,45.7,23,48,20.2,48z"/>
	</g>
	<path fill="#54C0EB" d="M6.1,20.8c2.3,0,4.3,0.8,5.5,1.9C13,11.5,18,3.2,24,3.2c-11.8,0-21.6,8.6-24,20C1,21.8,3.4,20.8,6.1,20.8z"
		/>
	<path fill="#84DBFF" d="M36.3,22.7c1.2-1.1,3.2-1.9,5.5-1.9c2.8,0,5.1,1,6.1,2.5c-2.4-11.4-12.2-20-24-20C30,3.2,35,11.5,36.3,22.7
		z"/>
	<path fill="#84DBFF" d="M24,3.2c-6,0-11,8.3-12.3,19.4c0.1,0.1,0.3,0.2,0.4,0.4c1.1-1.4,3.3-2.3,6-2.3c2.6,0,4.8,0.9,6,2.3L24,3.2
		C24,3.2,24,3.2,24,3.2z"/>
	<path fill="#54C0EB" d="M24,3.2C24,3.2,24,3.2,24,3.2L24,3.2l0,19.8c1.1-1.4,3.3-2.3,6-2.3c2.6,0,4.8,0.9,6,2.3
		c0.1-0.1,0.3-0.3,0.4-0.4C35,11.5,30,3.2,24,3.2z"/>
</g>
</svg>
