<?xml version="1.0" encoding="utf-8"?>
<!-- Generator: Adobe Illustrator 18.0.0, SVG Export Plug-In . SVG Version: 6.00 Build 0)  -->
<!DOCTYPE svg PUBLIC "-//W3C//DTD SVG 1.1//EN" "http://www.w3.org/Graphics/SVG/1.1/DTD/svg11.dtd">
<svg version="1.1" id="Layer_1" xmlns="http://www.w3.org/2000/svg" xmlns:xlink="http://www.w3.org/1999/xlink" x="0px" y="0px"
	 viewBox="0 0 48 48" enable-background="new 0 0 48 48" xml:space="preserve">
<g>
	<g>
		<path fill="#F2F2F2" d="M3.1,35.1h4.1l-1.4-8c-1-5.4,0.5-10.9,4-15.1c3.5-4.2,8.7-6.6,14.2-6.6h0c5.5,0,10.7,2.4,14.2,6.6
			c3.5,4.2,5,9.7,4,15.1l-1.4,7.9h4.1l1.3-7.2c1.2-6.6-0.6-13.3-4.9-18.4C37,4.3,30.7,1.4,24,1.4h0c-6.7,0-13,2.9-17.3,8.1
			c-4.3,5.1-6.1,11.9-4.9,18.4L3.1,35.1z"/>
	</g>
	<g>
		<path fill="#40596B" d="M40.8,21C39.3,12.8,32.3,6.9,24,6.9c0,0,0,0,0,0C15.7,6.9,8.7,12.8,7.2,21l-6.9-1.2
			C2.3,8.2,12.3-0.1,24-0.1c0,0,0,0,0,0c11.7,0,21.7,8.4,23.7,19.9L40.8,21z"/>
	</g>
	<path fill="#CDD6E0" d="M9.7,38.1l-3.8,0.6c-1.7,0.3-3.3-1.1-3.3-2.8l0,0c0-1.7,1.6-3.1,3.3-2.8l3.8,0.6V38.1z"/>
	<path fill="#CDD6E0" d="M38.6,33.6l3.8-0.6c1.7-0.3,3.3,1.1,3.3,2.8l0,0c0,1.7-1.6,3.1-3.3,2.8l-3.8-0.6V33.6z"/>
	<path fill="#F1543F" d="M31.2,47.5L31.2,47.5c-0.5-0.1-0.8-0.5-0.8-1l2.7-21.2c0.1-0.5,0.5-0.8,1-0.7l0,0c0.5,0.1,0.8,0.5,0.7,1
		l-2.7,21.2C32.1,47.2,31.7,47.5,31.2,47.5z"/>
	<path fill="#F2F2F2" d="M32.3,46.6L32.3,46.6l2.6-20.9l0.1,0c3.5,0.5,6,3.7,5.6,7.2l-1,8.1C39,44.5,35.8,47,32.3,46.6z"/>
	<path fill="#F1543F" d="M17.1,47.5L17.1,47.5c0.5-0.1,0.8-0.5,0.8-1l-2.7-21.2c-0.1-0.5-0.5-0.8-1-0.7l0,0c-0.5,0.1-0.8,0.5-0.7,1
		l2.7,21.2C16.2,47.2,16.6,47.5,17.1,47.5z"/>
	<path fill="#F2F2F2" d="M16,46.6L16,46.6l-2.6-20.9l-0.1,0c-3.5,0.5-6,3.7-5.6,7.2l1,8.1C9.3,44.5,12.5,47,16,46.6z"/>
	<g>
		<circle fill="#ACB3BA" cx="42.7" cy="35.8" r="1.4"/>
		<circle fill="#ACB3BA" cx="5.6" cy="35.8" r="1.4"/>
	</g>
	<path fill="#FF7058" d="M31.7,23.1L31.7,23.1c-1.4-0.2-2.6,0.8-2.8,2.1l-2.6,20.1c-0.2,1.3,0.8,2.6,2.1,2.7l0,0
		c1.3,0.2,2.6-0.8,2.7-2.1l2.6-20.1C34,24.5,33.1,23.3,31.7,23.1z"/>
	<path fill="#FF7058" d="M21.8,45.4l-2.6-20.2c-0.2-1.3-1.4-2.3-2.7-2.1l0,0c-1.3,0.2-2.3,1.4-2.1,2.7L16.9,46
		c0.2,1.3,1.4,2.3,2.7,2.1l0,0C21,47.9,21.9,46.7,21.8,45.4z"/>
</g>
</svg>
