<?xml version="1.0" encoding="utf-8"?>
<!-- Generator: Adobe Illustrator 18.0.0, SVG Export Plug-In . SVG Version: 6.00 Build 0)  -->
<!DOCTYPE svg PUBLIC "-//W3C//DTD SVG 1.1//EN" "http://www.w3.org/Graphics/SVG/1.1/DTD/svg11.dtd">
<svg version="1.1" id="Layer_1" xmlns="http://www.w3.org/2000/svg" xmlns:xlink="http://www.w3.org/1999/xlink" x="0px" y="0px"
	 viewBox="0 0 48 48" enable-background="new 0 0 48 48" xml:space="preserve">
<g>
	<g>
		<g>
			<g>
				<g>
					<g>
						<path fill="#66C6B9" d="M17,19.8c1.9,4.8,0.7,8.3-2.8,11.1c-3.1,2.7-8.6,2.8-12-5.8c-4.7-10,6.6-24.5,7.9-24.9
							C9.5,1.6,14,16.2,17,19.8z"/>
					</g>
					<g>
						<path fill="#415A6B" d="M20.1,35.2c-0.7,0.8-1.5,1.6-2.2,2.4c-6.5-6.4-9.8-14.6-10-22.9l0,0C9.2,22.8,13.5,30.1,20.1,35.2z"/>
					</g>
				</g>
			</g>
			<g>
				<g>
					<g>
						<g>
							<path fill="#66C6B9" d="M17,19.8c1.9,4.8,0.7,8.3-2.8,11.1c-3.1,2.7-8.6,2.8-12-5.8c-4.7-10,6.6-24.5,7.9-24.9
								C9.5,1.6,14,16.2,17,19.8z"/>
						</g>
						<g>
							<path fill="#415A6B" d="M20.1,35.2c-0.7,0.8-1.5,1.6-2.2,2.4c-6.5-6.4-9.8-14.6-10-22.9l0,0C9.2,22.8,13.5,30.1,20.1,35.2z"
								/>
						</g>
					</g>
					<g>
						<g>
							<path fill="#66C6B9" d="M34.4,13.2c-3.3,2.7-6.3,2.7-9.4,0.7c-2.9-1.7-4.5-5.9,1.4-10.9C33-3.2,47.4,1.8,48,2.8
								C46.8,2.7,36.4,9.9,34.4,13.2z"/>
						</g>
					</g>
				</g>
			</g>
		</g>
		<g>
			<path fill="#415A6B" d="M21.1,40.9C20.5,10.3,36.2,5.2,36.2,5.2c-15.7,4.2-19,24.4-19.6,35.8H21.1z"/>
		</g>
		<g>
			<path fill="#FFD15C" d="M45.2,48C45.2,48,45.2,47.9,45.2,48c0-2.7-2-4.8-4.6-4.8c-0.4,0-0.8,0-1.1,0.1c-0.6-5.4-5.1-9.5-10.6-9.5
				c-4.4,0-8.1,2.6-9.8,6.4c-1.2-1.2-2.8-1.9-4.5-1.9c-3.6,0-6.5,2.9-6.5,6.4c0,0.1,0,0.3,0,0.4c-0.7-0.2-1.4-0.4-2.2-0.4
				c-2.5,0-4.6,1.3-5.9,3.2H45.2z"/>
		</g>
	</g>
</g>
</svg>
