<?xml version="1.0" encoding="utf-8"?>
<!-- Generator: Adobe Illustrator 16.0.0, SVG Export Plug-In . SVG Version: 6.00 Build 0)  -->
<!DOCTYPE svg PUBLIC "-//W3C//DTD SVG 1.1//EN" "http://www.w3.org/Graphics/SVG/1.1/DTD/svg11.dtd">
<svg version="1.1" id="Layer_1" xmlns="http://www.w3.org/2000/svg" xmlns:xlink="http://www.w3.org/1999/xlink" x="0px" y="0px"
	 width="48px" height="48px" viewBox="0 0 48 48" enable-background="new 0 0 48 48" xml:space="preserve">
<g>
	<path fill="#40596B" d="M26.357,21.763l-2.48,6.218l-3.028-0.598l2.431-8.172l2.784,1.681
		C26.357,21.074,26.479,21.438,26.357,21.763"/>
	<path fill="#FF7058" d="M30.689,23.158v-0.969c0-0.473,0.377-0.861,0.85-0.874l3.879-0.112c0,0-1.052-3.082,0.403-4.875
		c0.216-0.266,0.563-0.394,0.899-0.328c0.499,0.096,0.824,0.578,0.727,1.078l-1.034,5.231L30.689,23.158z"/>
	<path fill="#CDD6E0" d="M38.89,8.952c-0.064-0.498-0.489-0.871-0.992-0.871h-8.464c-2.06,0-3.876,1.354-4.463,3.329l-4.507,15.141
		h1.268l4.404-14.795c0.431-1.449,1.788-2.459,3.3-2.459h8.273l1.729,13.26h1.226L38.89,8.952z"/>
	<path fill="#40596B" d="M28.647,17.915c-0.191-0.19-0.499-0.19-0.69,0l-3.001,3.001c0.342,0.115,0.604,0.325,0.786,0.594
		l2.905-2.904C28.838,18.414,28.838,18.106,28.647,17.915"/>
	<line fill="#40596B" x1="27.277" y1="17.235" x2="29.326" y2="19.285"/>
	<path fill="#40596B" d="M29.671,18.939l-2.049-2.049c-0.19-0.191-0.499-0.191-0.688,0c-0.191,0.189-0.191,0.498,0,0.689
		l2.048,2.049c0.096,0.096,0.22,0.144,0.345,0.144s0.25-0.048,0.345-0.144C29.862,19.438,29.862,19.131,29.671,18.939"/>
	<rect x="15.782" y="8.791" fill="#40596B" width="2.321" height="21.713"/>
	<polygon fill="#40596B" points="12.41,8.791 12.41,31.999 0,34.563 0,35.459 14.205,35.459 14.205,8.791 	"/>
	<path fill="#FFD15C" d="M48,36.289c0-2.223,0-9.633,0-12.043c0-1.426-1.147-2.571-2.574-2.594
		c-4.462-0.074-6.848,0.389-12.56,1.098c-1.112,0.14-1.95,1.08-1.95,2.201l-2.93,1.285h-8.777c-1.892,0-3.426,1.534-3.426,3.428
		v6.625H48z"/>
	<polygon fill="#F8B64C" points="41.112,28.029 30.913,32.255 26.689,32.255 22.625,36.289 48,36.289 48,28.029 	"/>
	<path fill="#F8B64C" d="M43.019,21.666c-3.926,0.086-8.372,0.498-13.099,1.087c-1.105,0.138-1.934,1.083-1.934,2.196v1.287
		c2.478,0,4.932-0.479,7.229-1.408L43.019,21.666z"/>
	<path fill="#40596B" d="M25.003,35.35c0,2.523-2.046,4.57-4.57,4.57c-2.523,0-4.569-2.047-4.569-4.57s2.046-4.57,4.569-4.57
		C22.957,30.779,25.003,32.826,25.003,35.35"/>
	<path fill="#CDD6E0" d="M22.662,35.35c0,1.23-0.998,2.229-2.229,2.229c-1.229,0-2.228-0.998-2.228-2.229s0.998-2.229,2.228-2.229
		C21.664,33.121,22.662,34.119,22.662,35.35"/>
	<path fill="#40596B" d="M45.067,35.35c0,2.523-2.046,4.57-4.57,4.57s-4.57-2.047-4.57-4.57s2.046-4.57,4.57-4.57
		S45.067,32.826,45.067,35.35"/>
	<path fill="#CDD6E0" d="M42.726,35.35c0,1.23-0.998,2.229-2.229,2.229s-2.229-0.998-2.229-2.229s0.998-2.229,2.229-2.229
		S42.726,34.119,42.726,35.35"/>
</g>
</svg>
