<?xml version="1.0" encoding="utf-8"?>
<!-- Generator: Adobe Illustrator 18.0.0, SVG Export Plug-In . SVG Version: 6.00 Build 0)  -->
<!DOCTYPE svg PUBLIC "-//W3C//DTD SVG 1.1//EN" "http://www.w3.org/Graphics/SVG/1.1/DTD/svg11.dtd">
<svg version="1.1" id="Layer_1" xmlns="http://www.w3.org/2000/svg" xmlns:xlink="http://www.w3.org/1999/xlink" x="0px" y="0px"
	 viewBox="0 0 512 512" enable-background="new 0 0 512 512" xml:space="preserve">
<g>
	<path fill="#40596B" d="M488.8,2H23.2C11.5,2,2,11.5,2,23.2v359.9c0,11.7,9.5,21.2,21.2,21.2h465.7c11.7,0,21.2-9.5,21.2-21.2V23.2
		C510,11.5,500.5,2,488.8,2z"/>
	<rect x="35.9" y="35.9" fill="#FFFFFF" width="440.3" height="300.7"/>
	<rect x="171.5" y="404.3" fill="#ACB3BA" width="168.9" height="50.1"/>
	<path fill="#CDD6E0" d="M395.3,454.4H116.7c-11.7,0-21.2,9.5-21.2,21.2V510h320.9v-34.4C416.5,463.9,407,454.4,395.3,454.4z"/>
	<circle fill="#CDD6E0" cx="256" cy="370.4" r="15"/>
	<rect x="171.5" y="404.3" fill="#9BA2A5" width="168.9" height="14.1"/>
	<g>
		<polygon fill="#FF7058" points="125.6,256 110.6,241 214,137.7 289.3,212.9 386.1,116.1 401,131 289.3,242.8 214,167.6 		"/>
	</g>
	<circle fill="#FFD15C" cx="118.1" cy="248.5" r="28"/>
	<circle fill="#FFD15C" cx="214.1" cy="152.6" r="28"/>
	<circle fill="#FFD15C" cx="289.6" cy="228.1" r="28"/>
	<circle fill="#FFD15C" cx="393.9" cy="123.9" r="28"/>
</g>
</svg>
