<?xml version="1.0" encoding="utf-8"?>
<!-- Generator: Adobe Illustrator 18.0.0, SVG Export Plug-In . SVG Version: 6.00 Build 0)  -->
<!DOCTYPE svg PUBLIC "-//W3C//DTD SVG 1.1//EN" "http://www.w3.org/Graphics/SVG/1.1/DTD/svg11.dtd">
<svg version="1.1" id="Layer_1" xmlns="http://www.w3.org/2000/svg" xmlns:xlink="http://www.w3.org/1999/xlink" x="0px" y="0px"
	 viewBox="0 0 48 48" enable-background="new 0 0 48 48" xml:space="preserve">
<g>
	<g>
		<path fill="#40596B" d="M44.8,0.1c0,0-9.1-3.1-18.2,15l7.6,5.5L44.8,0.1z"/>
		<path fill="#ACB3BA" d="M44.8,0.1L44.8,0.1L44.8,0.1c-9.2,2.5-14.5,11.5-11.9,20.1l0,0C42.1,17.7,47.4,8.7,44.8,0.1z"/>
		<path fill="#ACB3BA" d="M44.6,9.5c0,0-2.9,6.4-2.5,9.1c0,0-5.6,0.5-6.4,4.6C35.7,23.3,34,13,44.6,9.5z"/>
	</g>
	<g>
		<path fill="#40596B" d="M3.2,0.1c0,0,9.1-3.1,18.2,15l-7.6,5.5L3.2,0.1z"/>
		<path fill="#ACB3BA" d="M3.2,0.1L3.2,0.1L3.2,0.1c9.2,2.5,14.5,11.5,11.9,20.1l0,0C5.9,17.7,0.6,8.7,3.2,0.1z"/>
		<path fill="#ACB3BA" d="M3.4,9.5c0,0,2.9,6.4,2.5,9.1c0,0,5.6,0.5,6.4,4.6C12.3,23.3,14,13,3.4,9.5z"/>
	</g>
	<path fill="#F2F2F2" d="M39.3,30.7c0-1.5-0.1-2.9-0.3-4.4c-1.3-6.6-4.4-10.4-7.4-12.5c-4.7-3.2-11-3-15.6,0.4
		c-2.9,2.2-5.8,6-7,12.6c-0.2,1.2-0.3,2.5-0.2,3.7c0,0.4,0,0.9-0.1,1.4c-0.3,3,1.3,5.8,4,7.3c1.5,0.8,3,2.1,4.2,4
		c1.4,2.2,3.4,4.1,6.1,4.7c0.3,0.1,0.7,0.1,1,0.2c0.4,0,0.7-0.1,1-0.2c2.7-0.6,4.7-2.5,6.1-4.7c1.2-2,2.7-3.2,4.2-4
		c2.7-1.4,4.2-4.3,3.9-7.3C39.3,31.4,39.3,31,39.3,30.7z"/>
	<path fill="#CDD6E0" d="M37.3,31.2c0.9-5.5-0.7-11.1-0.9-11.8c-1.3-2.4-2.9-4.1-4.6-5.3c-4.6-3.4-10.8-3.5-15.5-0.2
		c-1.7,1.2-3.5,3-4.9,5.5c-0.2,0.7-1.7,6.3-0.9,11.8c0,0,5.2-4.7,5,1.2s1.4,4,1.4,4H24h0h6.9c0,0,1.7,1.9,1.4-4
		C32.1,26.4,37.3,31.2,37.3,31.2z"/>
	<path fill="#334A5E" d="M28.3,19c-0.7-0.2-1.4,0-2,0.5c-0.6,0.5-0.9,1.2-0.9,2c0.1,2.2-0.3,4.4-1.3,6.3c0,0-0.1,0-0.1,0
		c0,0-0.1,0-0.1,0c-0.9-1.9-1.4-4.1-1.3-6.3c0-0.8-0.3-1.5-0.9-2c-0.6-0.5-1.3-0.6-2-0.5C15,20.1,13,25.2,13,27.1
		c0,0.2,0.1,0.4,0.4,0.5c0.2,0.1,0.4,0,0.6-0.2l0.1-0.2c0.4-0.5,1-0.7,1.7-0.7c0.7,0.1,1.2,0.4,1.5,1c1.2,2.3,1.2,5.2,0.9,6.5
		c0,0.2,0.1,0.5,0.2,0.6c0.1,0,0.2,0.1,0.3,0.1c0.1,0,0.3,0,0.4-0.1c1.9-1.7,3.5-3.5,5-5.6c1.5,2,3.1,3.9,5,5.6
		c0.1,0.1,0.2,0.1,0.4,0.1c0.1,0,0.2,0,0.3-0.1c0.2-0.1,0.3-0.3,0.2-0.6c-0.3-1.4-0.3-4.3,0.9-6.5c0.3-0.6,0.8-0.9,1.5-1
		c0.7-0.1,1.3,0.2,1.7,0.6l0.1,0.2c0.1,0.2,0.4,0.2,0.6,0.2c0.2-0.1,0.3-0.3,0.3-0.5C35,25.2,33,20.1,28.3,19z"/>
	<ellipse fill="#F2F2F2" cx="28.4" cy="23.1" rx="1.4" ry="1.3"/>
	<ellipse fill="#F2F2F2" cx="19.6" cy="23.1" rx="1.4" ry="1.3"/>
	<path fill="#334A5E" d="M29.1,32.5c-0.1,0-0.2,0-0.3,0c-0.5,0.1-0.9-0.2-1.1-0.7c-0.3-0.9-0.7-1.6-1.1-2.3c-0.6-1-1.6-1.5-2.7-1.5
		h0c-1.1,0-2.1,0.6-2.7,1.5c-0.4,0.7-0.8,1.4-1.1,2.3c-0.2,0.5-0.6,0.8-1.1,0.7c-0.1,0-0.2,0-0.3,0c-1.8,0-3.2,1.7-3.2,3.7
		c0,1.1,0.4,2.2,1.1,2.9c0.2,0.2,0.3,0.4,0.3,0.6c0.4,2.8,2.4,5,4.9,5c0.7,0,1.4-0.2,2-0.5c0.6,0.3,1.3,0.5,2,0.5
		c2.5,0,4.6-2.2,4.9-5c0-0.2,0.1-0.5,0.3-0.6c0.7-0.7,1.1-1.7,1.1-2.9C32.4,34.2,30.9,32.5,29.1,32.5z"/>
	<path fill="#40596B" d="M29.1,31.9c-0.1,0-0.2,0-0.3,0c-0.5,0.1-0.9-0.2-1.1-0.7c-0.3-0.8-0.7-1.6-1.1-2.2
		c-0.6-0.9-1.6-1.5-2.7-1.5h0c-1.1,0-2.1,0.6-2.7,1.5c-0.4,0.6-0.8,1.4-1.1,2.2c-0.2,0.5-0.6,0.7-1.1,0.7c-0.1,0-0.2,0-0.3,0
		c-1.8,0-3.2,1.6-3.2,3.6c0,1.1,0.4,2.1,1.1,2.8c0.2,0.2,0.3,0.4,0.3,0.6c0.4,2.7,2.4,4.8,4.9,4.8c0.7,0,1.4-0.2,2-0.5
		c0.6,0.3,1.3,0.5,2,0.5c2.5,0,4.6-2.1,4.9-4.8c0-0.2,0.1-0.4,0.3-0.6c0.7-0.7,1.1-1.7,1.1-2.8C32.4,33.5,30.9,31.9,29.1,31.9z"/>
	<path fill="#334A5E" d="M28.2,38.1c0,0.4-0.1,0.9-0.4,1.3c-0.2-0.6-0.8-1-1.4-1c-0.8,0-1.5,0.7-1.5,1.5c0,0.6,0.4,1.2,0.9,1.4
		c-0.6,0.3-1.2,0.4-1.9,0.4c-0.7,0-1.3-0.2-1.9-0.4c0.5-0.2,0.9-0.7,0.9-1.4c0-0.8-0.7-1.5-1.5-1.5c-0.7,0-1.2,0.4-1.4,1
		c-0.2-0.4-0.4-0.9-0.4-1.3c0-1.7,1.9-2.4,4.2-2.4C26.3,35.7,28.2,36.4,28.2,38.1z"/>
	<path fill="#CDD6E0" d="M36,32.1c0,0,0.2,2.5-1.3,4.5C34.7,36.6,37.7,35.3,36,32.1z"/>
	<path fill="#CDD6E0" d="M12,32.1c0,0-0.2,2.5,1.3,4.5C13.3,36.6,10.3,35.3,12,32.1z"/>
	<circle fill="#FFFFFF" cx="28.1" cy="22.7" r="0.3"/>
	<circle fill="#FFFFFF" cx="19.2" cy="22.7" r="0.3"/>
</g>
</svg>
