<?xml version="1.0" encoding="utf-8"?>
<!-- Generator: Adobe Illustrator 18.0.0, SVG Export Plug-In . SVG Version: 6.00 Build 0)  -->
<!DOCTYPE svg PUBLIC "-//W3C//DTD SVG 1.1//EN" "http://www.w3.org/Graphics/SVG/1.1/DTD/svg11.dtd">
<svg version="1.1" id="Layer_1" xmlns="http://www.w3.org/2000/svg" xmlns:xlink="http://www.w3.org/1999/xlink" x="0px" y="0px"
	 viewBox="0 0 48 48" enable-background="new 0 0 48 48" xml:space="preserve">
<g>
	<g>
		<path fill="#415A6B" d="M16.6,20v-8c0-4.1,3.3-7.4,7.4-7.4s7.4,3.3,7.4,7.4v8H36v-8c0-6.6-5.4-12-12-12c-6.6,0-12,5.4-12,12v8
			H16.6z"/>
		<g>
			<path fill="#FFD15C" d="M37.5,19.6H10.5c-1.7,0-3,1.3-3,3V45c0,1.7,1.3,3,3,3h26.9c1.7,0,3-1.3,3-3V22.6
				C40.5,20.9,39.1,19.6,37.5,19.6z"/>
		</g>
		<g>
			<path fill="#415A6B" d="M25.8,34.9l1.2,3.4h-6.2l1.2-3.4c-0.8-0.6-1.2-1.5-1.2-2.5c0-1.7,1.4-3.1,3.1-3.1c1.7,0,3.1,1.4,3.1,3.1
				C27.1,33.4,26.6,34.3,25.8,34.9z"/>
		</g>
	</g>
</g>
</svg>
