<?xml version="1.0" encoding="utf-8"?>
<!-- Generator: Adobe Illustrator 20.1.0, SVG Export Plug-In . SVG Version: 6.00 Build 0)  -->
<!DOCTYPE svg PUBLIC "-//W3C//DTD SVG 1.1//EN" "http://www.w3.org/Graphics/SVG/1.1/DTD/svg11.dtd">
<svg version="1.1" id="Layer_1" xmlns="http://www.w3.org/2000/svg" xmlns:xlink="http://www.w3.org/1999/xlink" x="0px" y="0px"
	 viewBox="0 0 49 49" enable-background="new 0 0 49 49" xml:space="preserve">
<g>
	<path fill="#40596B" d="M38.6,0.5H10.4c-1.1,0-2,0.9-2,2v44c0,1.1,0.9,2,2,2h28.2c1.1,0,2-0.9,2-2v-44C40.6,1.4,39.7,0.5,38.6,0.5z
		"/>
	
		<rect x="8" y="8.6" transform="matrix(-1.836970e-16 1 -1 -1.836970e-16 46.6982 -2.3026)" fill="#84DBFF" width="33.1" height="27.2"/>
	<g>
		<path fill="#CDD6E0" d="M28.4,2.7h-7.7c-0.3,0-0.6,0.3-0.6,0.6c0,0.3,0.3,0.6,0.6,0.6h7.7c0.3,0,0.6-0.3,0.6-0.6
			C28.9,3,28.7,2.7,28.4,2.7z"/>
		<path fill="#CDD6E0" d="M18.5,2.7h-1.7c-0.3,0-0.6,0.3-0.6,0.6c0,0.3,0.3,0.6,0.6,0.6h1.7c0.3,0,0.6-0.3,0.6-0.6
			C19.1,3,18.8,2.7,18.5,2.7z"/>
	</g>
	<circle fill="#CDD6E0" cx="24.5" cy="43.6" r="2.6"/>
	<circle fill="#FFFFFF" cx="24.5" cy="22.2" r="9.7"/>
	<polygon fill="#FF7058" points="21.3,16.2 21.3,28.2 30.1,22.2 	"/>
</g>
</svg>
