<?xml version="1.0" encoding="utf-8"?>
<!-- Generator: Adobe Illustrator 18.0.0, SVG Export Plug-In . SVG Version: 6.00 Build 0)  -->
<!DOCTYPE svg PUBLIC "-//W3C//DTD SVG 1.1//EN" "http://www.w3.org/Graphics/SVG/1.1/DTD/svg11.dtd">
<svg version="1.1" id="Layer_1" xmlns="http://www.w3.org/2000/svg" xmlns:xlink="http://www.w3.org/1999/xlink" x="0px" y="0px"
	 viewBox="0 0 48 48" enable-background="new 0 0 48 48" xml:space="preserve">
<g>
	<path fill="#FF7058" d="M30.7,3.6H16.4V2c0-1.1,0.9-2,2-2h10.4c1.1,0,2,0.9,2,2V3.6z"/>
	<path fill="#FFD15C" d="M48,17v14.2c0,2.2-1.8,4-4,4h-4.2v-4H44V17h-4.2v-4H44C46.2,13,48,14.8,48,17z"/>
	<path fill="#FF7058" d="M34,2.3H13.1C9.8,2.3,7.2,5,7.2,8.2l0,0h32.7l0,0C39.9,5,37.2,2.3,34,2.3z"/>
	<path fill="#FFD15C" d="M1,8.2c-0.9,0-1.3,1.1-0.7,1.7l6.9,6.9V46c0,1.1,0.9,2,2,2h28.7c1.1,0,2-0.9,2-2V8.2H1z"/>
	<path fill="#FF7058" d="M7.2,43.3V46c0,1.1,0.9,2,2,2h28.7c1.1,0,2-0.9,2-2v-2.7H7.2z"/>
	<path fill="#E4EAEF" d="M30.1,41.8L30.1,41.8c-1.1,0-2-0.9-2-2V23c0-1.1,0.9-2,2-2l0,0c1.1,0,2,0.9,2,2v16.9
		C32.1,41,31.2,41.8,30.1,41.8z"/>
	<path fill="#FF7058" d="M30.1,40.3c-0.3,0-0.5-0.2-0.5-0.5V29.8c0-0.3,0.2-0.5,0.5-0.5s0.5,0.2,0.5,0.5v10.1
		C30.6,40.1,30.4,40.3,30.1,40.3z"/>
	<g>
		<rect x="33.4" y="22.4" fill="#40596B" width="1.7" height="0.3"/>
		<rect x="33.4" y="24.2" fill="#40596B" width="1.2" height="0.3"/>
		<rect x="33.4" y="26" fill="#40596B" width="1.7" height="0.3"/>
		<rect x="33.4" y="27.7" fill="#40596B" width="1.2" height="0.3"/>
		<rect x="33.4" y="29.5" fill="#40596B" width="1.7" height="0.3"/>
		<rect x="33.4" y="31.3" fill="#40596B" width="1.2" height="0.3"/>
		<rect x="33.4" y="33" fill="#40596B" width="1.7" height="0.3"/>
		<rect x="33.4" y="34.8" fill="#40596B" width="1.2" height="0.3"/>
		<rect x="33.4" y="36.6" fill="#40596B" width="1.7" height="0.3"/>
		<rect x="33.4" y="38.4" fill="#40596B" width="1.2" height="0.3"/>
		<rect x="33.4" y="40.1" fill="#40596B" width="1.7" height="0.3"/>
	</g>
	<rect x="39.9" y="13" fill="#F8B64C" width="1.5" height="4"/>
	<rect x="39.9" y="31.2" fill="#F8B64C" width="1.5" height="4"/>
</g>
</svg>
