<?xml version="1.0" encoding="utf-8"?>
<!-- Generator: Adobe Illustrator 18.0.0, SVG Export Plug-In . SVG Version: 6.00 Build 0)  -->
<!DOCTYPE svg PUBLIC "-//W3C//DTD SVG 1.1//EN" "http://www.w3.org/Graphics/SVG/1.1/DTD/svg11.dtd">
<svg version="1.1" id="Layer_1" xmlns="http://www.w3.org/2000/svg" xmlns:xlink="http://www.w3.org/1999/xlink" x="0px" y="0px"
	 viewBox="0 0 48 48" enable-background="new 0 0 48 48" xml:space="preserve">
<g>
	<g>
		<g>
			<g>
				<g>
					<g>
						
							<ellipse transform="matrix(0.9947 0.1029 -0.1029 0.9947 1.2203 -2.9762)" fill="#FFD15C" cx="29.5" cy="10.3" rx="1.2" ry="1.9"/>
					</g>
				</g>
				<g>
					<g>
						
							<ellipse transform="matrix(-0.9947 0.1029 -0.1029 -0.9947 38.1716 18.7096)" fill="#FFD15C" cx="18.6" cy="10.3" rx="1.2" ry="1.9"/>
					</g>
				</g>
				<g>
					<g>
						<path fill="#344A5E" d="M29.7,9.2H18.3C16.5,3.2,19.3,0,24,0C28.8,0,31.6,3.2,29.7,9.2z"/>
					</g>
				</g>
				<g>
					<g>
						<path fill="#66C6B9" d="M37.7,27.4L36.9,23c-0.3-1.8-1.6-3.2-3.4-3.7l-5.7-1.5h-7.6l-5.7,1.5c-1.7,0.5-3.1,1.9-3.4,3.7
							l-0.8,4.4H37.7z"/>
					</g>
				</g>
				<g>
					<g>
						<g>
							<polygon fill="#F3705A" points="25,22.6 25.9,21.5 24,19.3 22.1,21.5 23,22.6 							"/>
						</g>
					</g>
					<g>
						<g>
							<polygon fill="#F3705A" points="26,27.4 25,22.6 23,22.6 22.1,27.4 							"/>
						</g>
					</g>
				</g>
				<g>
					<g>
						<g>
							<path fill="#F7B64C" d="M26.9,14.7l0,1.3c-0.9,2-1.8,2.2-2.9,3.3c-1.1-1.2-2-1.3-2.8-3.3l0-1.3c0.8-2.2,1.9-3.6,2.9-4.7
								C25,11.1,26.1,12.5,26.9,14.7z"/>
						</g>
					</g>
				</g>
				<g>
					<g>
						<g>
							<polygon fill="#F3F3F3" points="26.9,16 24,19.3 26.1,22.1 27.8,17.7 							"/>
						</g>
					</g>
					<g>
						<g>
							<polygon fill="#F3F3F3" points="21.2,16 24,19.3 22,22.1 20.2,17.7 							"/>
						</g>
					</g>
				</g>
			</g>
			<g>
				<g>
					<path fill="#FFD15C" d="M29.4,5.6c-0.8,0.5-1.8,0.8-2.7,0.9c-1.3,0.1-2.6-0.6-3.8-1.6c-0.2,0.2-0.4,0.3-0.5,0.5
						c-0.9,0.8-1.1,1-2.5,1.4C19.5,6.9,19.1,7,18.6,7c0.1,5.5,2.5,9.9,5.4,9.9c3,0,5.4-4.6,5.4-10.3C29.5,6.3,29.4,5.9,29.4,5.6z"/>
				</g>
			</g>
		</g>
		<g>
			<g>
				<g>
					<circle fill="#F3705A" cx="8.7" cy="39.3" r="8.7"/>
				</g>
			</g>
			<g>
				<g>
					<path fill="#FFFFFF" d="M14.2,43.7c-1-2-3.1-3.4-5.5-3.4c-2.4,0-4.5,1.4-5.5,3.4c1.3,1.6,3.2,2.6,5.5,2.6
						C10.9,46.3,12.9,45.2,14.2,43.7z"/>
				</g>
				<g>
					<g>
						<circle fill="#FFFFFF" cx="8.7" cy="36.8" r="2.3"/>
					</g>
				</g>
			</g>
		</g>
		<g>
			<g>
				<g>
					<circle fill="#FFD15C" cx="39.3" cy="39.3" r="8.7"/>
				</g>
			</g>
			<g>
				<g>
					<path fill="#FFFFFF" d="M44.7,43.7c-1-2-3.1-3.4-5.5-3.4c-2.4,0-4.5,1.4-5.5,3.4c1.3,1.6,3.2,2.6,5.5,2.6
						C41.5,46.3,43.4,45.2,44.7,43.7z"/>
				</g>
				<g>
					<g>
						<circle fill="#FFFFFF" cx="39.3" cy="36.8" r="2.3"/>
					</g>
				</g>
			</g>
		</g>
		<g>
			<g>
				<g>
					<polygon fill="#415A6B" points="29.1,39.5 27.7,41 24,37.3 20.4,41 19,39.5 23,35.5 23,29.8 25,29.8 25,35.5 					"/>
				</g>
			</g>
		</g>
	</g>
</g>
</svg>
