<?xml version="1.0" encoding="utf-8"?>
<!-- Generator: Adobe Illustrator 18.0.0, SVG Export Plug-In . SVG Version: 6.00 Build 0)  -->
<!DOCTYPE svg PUBLIC "-//W3C//DTD SVG 1.1//EN" "http://www.w3.org/Graphics/SVG/1.1/DTD/svg11.dtd">
<svg version="1.1" id="Layer_1" xmlns="http://www.w3.org/2000/svg" xmlns:xlink="http://www.w3.org/1999/xlink" x="0px" y="0px"
	 viewBox="0 0 48 48" enable-background="new 0 0 48 48" xml:space="preserve">
<g>
	<g>
		<g>
			<path fill="#66C6B9" d="M48,12c0,6.6-5.8,12-13,12c-0.3,0-0.7,0-1,0l-7.6,3.5V21c-2.7-2.2-4.4-5.4-4.4-9c0-6.6,5.8-12,13-12
				S48,5.4,48,12z"/>
		</g>
		<g>
			<g>
				<path fill="#F3705A" d="M27.7,31.4c-1.3,1.6-2.5,3.3-2.5,3.3c-1.7,1.7-5.8,0.5-9.2-2.8c-3.3-3.4-4.5-7.4-2.8-9.2
					c0,0,1.7-1.1,3.3-2.5L2.6,6.4C2.6,6.5,2.5,6.6,2.4,6.6c-5.5,5.5-1.3,18.7,9.4,29.6c10.9,10.7,24,14.9,29.6,9.4
					c0.1-0.1,0.1-0.1,0.2-0.2L27.7,31.4z"/>
			</g>
			<g>
				<g>
					<path fill="#E8EAE9" d="M6.5,3.4c-1.2,0-3.3,2.4-4.1,3.3c0,0,0,0,0,0l13.9,13.9c1.5-1.2,3-2.7,3-3.8C19.3,12,11.3,3.4,6.5,3.4z
						"/>
				</g>
			</g>
			<g>
				<g>
					<path fill="#E8EAE9" d="M44.6,41.5c0,1.2-2.4,3.3-3.3,4.1c0,0,0,0,0,0L27.5,31.7c1.2-1.5,2.7-3,3.8-3
						C36,28.7,44.6,36.7,44.6,41.5z"/>
				</g>
			</g>
		</g>
		<path fill="#FFFFFF" d="M39,12.1c-0.7-0.6-1.7-1-3-1.3V7.3c0.9,0.2,1.7,0.5,2.5,1l1.2-1.7c-1.2-0.8-2.4-1.2-3.7-1.4v-1h-1.6v1
			c-1.1,0.1-2,0.5-2.8,1.1c-0.8,0.7-1.1,1.6-1.1,2.7c0,1.1,0.3,1.9,1,2.4c0.6,0.5,1.6,0.9,2.9,1.3v3.6c-1-0.2-2.1-0.7-3-1.6L30,16.4
			c1.3,1.1,2.8,1.8,4.4,2v1.4H36v-1.4c1.2-0.1,2.1-0.5,2.9-1.1c0.8-0.7,1.2-1.6,1.2-2.7C40,13.5,39.7,12.7,39,12.1z M34.4,10.3
			c-0.6-0.2-1-0.4-1.2-0.6c-0.3-0.2-0.4-0.6-0.4-1c0-0.4,0.2-0.8,0.5-1.1c0.3-0.2,0.7-0.4,1.1-0.5V10.3z M37.2,15.9
			c-0.3,0.3-0.7,0.4-1.2,0.5v-3.3c0.6,0.2,1.1,0.4,1.3,0.7c0.3,0.3,0.4,0.6,0.4,1C37.7,15.2,37.5,15.6,37.2,15.9z"/>
	</g>
</g>
</svg>
