<?xml version="1.0" encoding="utf-8"?>
<!-- Generator: Adobe Illustrator 20.1.0, SVG Export Plug-In . SVG Version: 6.00 Build 0)  -->
<!DOCTYPE svg PUBLIC "-//W3C//DTD SVG 1.1//EN" "http://www.w3.org/Graphics/SVG/1.1/DTD/svg11.dtd">
<svg version="1.1" id="Layer_1" xmlns="http://www.w3.org/2000/svg" xmlns:xlink="http://www.w3.org/1999/xlink" x="0px" y="0px"
	 viewBox="0 0 49 49" enable-background="new 0 0 49 49" xml:space="preserve">
<g>
	<path fill="#FFD15C" d="M47.6,33.9V23.2c0-0.5-0.2-1-0.6-1.4l-5.5-5.5c-0.4-0.4-0.8-0.6-1.4-0.6h-6.2v18.2H47.6z"/>
	<polygon fill="#FFFFFF" points="45.2,25.2 45.2,23.4 39.9,18.1 36.3,18.1 36.3,25.2 	"/>
	<path fill="#F2F2F2" d="M31.9,7.6H3.4c-1.1,0-2,0.9-2,2v24.3h32.5V9.6C33.9,8.5,33,7.6,31.9,7.6z"/>
	<circle fill="#FFFFFF" cx="41.2" cy="36.1" r="1.5"/>
	<circle fill="#FFFFFF" cx="9.8" cy="36.1" r="1.5"/>
	<rect x="5.4" y="15.5" fill="#ACB3BA" width="24.6" height="12.7"/>
	<rect x="4.3" y="28.2" fill="#40596B" width="26.7" height="1"/>
	<path fill="#F1543F" d="M2.8,14.5v1.8c0,1.6,1.3,3,3,3s3-1.3,3-3v-1.8H2.8z"/>
	<path fill="#CDD6E0" d="M8.8,14.5v1.8c0,1.6,1.3,3,3,3s3-1.3,3-3v-1.8H8.8z"/>
	<path fill="#F1543F" d="M14.7,14.5v1.8c0,1.6,1.3,3,3,3c1.6,0,3-1.3,3-3v-1.8H14.7z"/>
	<path fill="#CDD6E0" d="M20.6,14.5v1.8c0,1.6,1.3,3,3,3c1.6,0,3-1.3,3-3v-1.8H20.6z"/>
	<path fill="#F1543F" d="M26.6,14.5v1.8c0,1.6,1.3,3,3,3c1.6,0,3-1.3,3-3v-1.8H26.6z"/>
	<polygon fill="#FF7058" points="8.8,14.5 2.8,14.5 6.2,11.1 10.8,11.1 	"/>
	<polygon fill="#E2E2E2" points="14.7,14.5 8.8,14.5 10.8,11.1 15.4,11.1 	"/>
	<polygon fill="#FF7058" points="20.6,14.5 14.7,14.5 15.4,11.1 20,11.1 	"/>
	<polygon fill="#E2E2E2" points="26.6,14.5 20.6,14.5 20,11.1 24.6,11.1 	"/>
	<polygon fill="#FF7058" points="32.5,14.5 26.6,14.5 24.6,11.1 29.1,11.1 	"/>
	<path fill="#84DBFF" d="M47.9,33.9H1.1c-0.3,0-0.6,0.2-0.6,0.6v2.6c0,0.3,0.2,0.6,0.6,0.6h46.9c0.3,0,0.6-0.2,0.6-0.6v-2.6
		C48.5,34.2,48.3,33.9,47.9,33.9z"/>
	<circle fill="#40596B" cx="40.8" cy="36.1" r="5.3"/>
	<circle fill="#E2E2E2" cx="40.8" cy="36.1" r="2.8"/>
	<circle fill="#40596B" cx="10" cy="36.1" r="5.3"/>
	<circle fill="#E2E2E2" cx="10" cy="36.1" r="2.8"/>
</g>
</svg>
