<?xml version="1.0" encoding="utf-8"?>
<!-- Generator: Adobe Illustrator 18.0.0, SVG Export Plug-In . SVG Version: 6.00 Build 0)  -->
<!DOCTYPE svg PUBLIC "-//W3C//DTD SVG 1.1//EN" "http://www.w3.org/Graphics/SVG/1.1/DTD/svg11.dtd">
<svg version="1.1" id="Layer_1" xmlns="http://www.w3.org/2000/svg" xmlns:xlink="http://www.w3.org/1999/xlink" x="0px" y="0px"
	 viewBox="0 0 48 48" enable-background="new 0 0 48 48" xml:space="preserve">
<g>
	<path fill="#FFD15C" d="M11.4,19.3l11.5,28c0.1,0.4,0.5,0.7,1,0.7c0.5,0,0.9-0.3,1-0.7l11.5-28H11.4z"/>
	<polygon opacity="0.1" fill="#231F20" points="34.3,24.9 35.4,22.2 12.6,22.2 13.7,24.9 	"/>
	<path fill="#F2F2F2" d="M36,11.2C35.6,4.9,30.4,0,24,0S12.4,4.9,12,11.2c-1.2,0.4-2,1.5-2,2.7c0,1.6,1.3,2.9,2.9,2.9h22.3
		c1.6,0,2.9-1.3,2.9-2.9C38,12.6,37.2,11.6,36,11.2z"/>
	<path opacity="0.1" fill="#231F20" d="M36,11.2C35.6,4.9,30.4,0,24,0c-3.6,0-6.8,1.6-9,4.1C17.1,2.2,19.9,1,23,1
		c6.4,0,11.6,4.9,12,11.2c1.2,0.4,2,1.5,2,2.7c0,0.5-0.2,1-0.4,1.5c0.8-0.5,1.4-1.4,1.4-2.5C38,12.6,37.2,11.6,36,11.2z"/>
	<path fill="#FF7058" d="M33.8,23.1H14.2c-2.2,0-4-1.8-4-4v-3.6h27.6v3.6C37.8,21.3,36,23.1,33.8,23.1z"/>
	<path fill="#F2F2F2" d="M18.2,25.7L18.2,25.7c-1.1,0-1.9-0.9-1.9-1.9v-9c0-1.1,0.9-1.9,1.9-1.9h0c1.1,0,1.9,0.9,1.9,1.9v9
		C20.1,24.9,19.2,25.7,18.2,25.7z"/>
	<path fill="#F2F2F2" d="M22,21.5L22,21.5c-1.1,0-1.9-0.9-1.9-1.9v-9c0-1.1,0.9-1.9,1.9-1.9h0c1.1,0,1.9,0.9,1.9,1.9v9
		C23.9,20.7,23,21.5,22,21.5z"/>
</g>
</svg>
