<?xml version="1.0" encoding="utf-8"?>
<!-- Generator: Adobe Illustrator 18.0.0, SVG Export Plug-In . SVG Version: 6.00 Build 0)  -->
<!DOCTYPE svg PUBLIC "-//W3C//DTD SVG 1.1//EN" "http://www.w3.org/Graphics/SVG/1.1/DTD/svg11.dtd">
<svg version="1.1" id="Layer_1" xmlns="http://www.w3.org/2000/svg" xmlns:xlink="http://www.w3.org/1999/xlink" x="0px" y="0px"
	 viewBox="0 0 48 48" enable-background="new 0 0 48 48" xml:space="preserve">
<g>
	<polygon fill="#FFD15C" points="31.7,2.2 16.4,2.2 10,4.9 10,17.6 10,45.8 38,45.8 38,17.6 38,4.9 	"/>
	<rect x="10" y="41.1" fill="#F2F2F2" width="28.1" height="1.5"/>
	<rect x="10" y="42.5" fill="#FF7058" width="28.1" height="3.2"/>
	<path fill="#F2F2F2" d="M31.7,2.2l-15.3,0l-0.9,0.4c0,2.4,0.4,3.9,1.1,4.8C17.9,9.1,20.6,10,24,10c3.4,0,6.1-1,7.4-2.6
		c0.8-0.9,1.1-2.4,1.1-4.8L31.7,2.2z"/>
	<path fill="#F8B64C" d="M17.3,6.8C18.4,8.3,21,9.1,24,9.1s5.6-0.9,6.7-2.3c0.7-0.8,0.9-2.3,0.9-4.6l-15.3,0
		C16.3,4.6,16.6,6,17.3,6.8z"/>
	<path fill="#FFD15C" d="M10,4.9L10,4.9c-4,1.6-7.2,4.8-8.5,9c-0.6,1.8-1.1,4.1-1.5,6.8L8.4,22c0,0,0.7-3.1,1.5-4.5V4.9z"/>
	<path fill="#FF7058" d="M8.9,20.1c-0.1,0-0.1,0-0.2,0l-8.4-1.4c0,0,0,0,0,0c-0.1,0.6-0.2,1.3-0.3,2L8.4,22
		C8.4,22,8.6,21.2,8.9,20.1z"/>
	<path fill="#FFD15C" d="M38,4.9L38,4.9c4,1.6,7.2,4.8,8.5,9c0.6,1.8,1.1,4.1,1.5,6.8L39.6,22c0,0-0.7-3.1-1.5-4.5V4.9z"/>
	<path fill="#FF7058" d="M39.1,20.1c0.3,1,0.5,1.9,0.5,1.9l8.4-1.4c-0.1-0.7-0.2-1.3-0.3-2c0,0,0,0,0,0l-8.4,1.4
		C39.2,20.1,39.1,20.1,39.1,20.1z"/>
	<polygon fill="#40596B" points="29.6,13.5 29.6,16.5 32.3,18.5 34.9,16.5 34.9,13.5 	"/>
</g>
</svg>
