<?xml version="1.0" encoding="utf-8"?>
<!-- Generator: Adobe Illustrator 16.0.0, SVG Export Plug-In . SVG Version: 6.00 Build 0)  -->
<!DOCTYPE svg PUBLIC "-//W3C//DTD SVG 1.1//EN" "http://www.w3.org/Graphics/SVG/1.1/DTD/svg11.dtd">
<svg version="1.1" id="Layer_1" xmlns="http://www.w3.org/2000/svg" xmlns:xlink="http://www.w3.org/1999/xlink" x="0px" y="0px"
	 width="48px" height="48px" viewBox="0 0 48 48" enable-background="new 0 0 48 48" xml:space="preserve">
<g>
	<path fill="#ACB3BA" d="M20.719,45.213c-2.394,0-4.341-1.947-4.341-4.34v-2.871c0-0.586,0.475-1.061,1.061-1.061
		s1.061,0.475,1.061,1.061v2.871c0,1.225,0.996,2.219,2.22,2.219c1.225,0,2.221-0.994,2.221-2.219V18.252
		c0-0.586,0.475-1.061,1.061-1.061s1.06,0.475,1.06,1.061v22.621C25.06,43.266,23.113,45.213,20.719,45.213"/>
	<path fill="#40596B" d="M22.939,36.695v4.178c0,1.223-0.996,2.219-2.22,2.219c-1.225,0-2.221-0.996-2.221-2.219v-2.871
		c0-0.586-0.475-1.061-1.061-1.061s-1.062,0.475-1.062,1.061v2.871c0,2.393,1.948,4.34,4.343,4.34c2.394,0,4.341-1.947,4.341-4.34
		v-4.178H22.939z"/>
	<path fill="#ACB3BA" d="M25.061,7.264V3.846c0-0.584-0.476-1.061-1.062-1.061c-0.585,0-1.06,0.477-1.06,1.061v3.418H25.061z"/>
	<path fill="#54C0EB" d="M24,4.529c0,0,8.293,15.602,8.65,23.301c0.872-5.875,11.519-8.84,15.35-1.977
		C45.551,5.84,24,4.529,24,4.529"/>
	<path fill="#54C0EB" d="M24,4.529c0,0-8.293,15.602-8.651,23.301C14.477,21.955,3.831,18.99,0,25.854C2.448,5.84,24,4.529,24,4.529
		"/>
	<path fill="#84DBFF" d="M24,4.529c-6.07,5.773-8.95,15.602-8.592,23.301c4.745-7.234,12.438-7.234,17.184,0
		C32.95,20.131,30.069,10.303,24,4.529"/>
</g>
</svg>
