<?xml version="1.0" encoding="utf-8"?>
<!-- Generator: Adobe Illustrator 18.0.0, SVG Export Plug-In . SVG Version: 6.00 Build 0)  -->
<!DOCTYPE svg PUBLIC "-//W3C//DTD SVG 1.1//EN" "http://www.w3.org/Graphics/SVG/1.1/DTD/svg11.dtd">
<svg version="1.1" id="Layer_1" xmlns="http://www.w3.org/2000/svg" xmlns:xlink="http://www.w3.org/1999/xlink" x="0px" y="0px"
	 viewBox="0 0 48 48" enable-background="new 0 0 48 48" xml:space="preserve">
<g>
	
		<rect x="8.8" y="18.5" transform="matrix(-0.7071 0.7071 -0.7071 -0.7071 55.8668 23.1408)" fill="#F2F2F2" width="28.6" height="9.3"/>
	
		<rect x="8.8" y="20.2" transform="matrix(-0.7071 0.7071 -0.7071 -0.7071 55.8668 23.1408)" fill="#CDD6E0" width="28.6" height="5.9"/>
	<path fill="#40596B" d="M10.1,29.6l19.6-19.6l-9.5-9.5c-0.8-0.8-2-0.8-2.8,0L0.6,17.3c-0.8,0.8-0.8,2,0,2.8L10.1,29.6z"/>
	<path fill="#334A5E" d="M2.4,21.9L21.9,2.4l-1.8-1.8c-0.8-0.8-2-0.8-2.8,0L0.6,17.3c-0.8,0.8-0.8,2,0,2.8L2.4,21.9z"/>
	<path fill="#FFD15C" d="M16.3,36.5l1.2,1.2c0.5,0.5,1.3,0.5,1.8,0l4.7-4.7c1.1-1.1,3.3-1.4,4.1-0.1c4.9,6.9,6.7,8.5,13.9,13
		c1.6,0.9,4.7,2.7,5.7,1.7c1-1-0.8-4.1-1.7-5.7c-4.6-7.1-6.1-9-13-13.9c-1.2-0.9-0.9-3.1,0.1-4.1l4.7-4.7c0.5-0.5,0.5-1.3,0-1.8
		l-1.2-1.2L16.3,36.5z M39.8,41.8c-1.3-1.3-1.9-2.9-1.4-3.4c0.6-0.6,2.1,0.1,3.4,1.4c1.3,1.3,1.9,2.9,1.4,3.4
		C42.6,43.8,41.1,43.1,39.8,41.8z"/>
	<path fill="#334A5E" d="M18.6,2.5L24,8c0.6,0.6,0.7,1.4,0.2,2.1c-0.6,0.7-1.6,0.7-2.2,0.1l-1.8-1.8c-0.6-0.6-1.5-0.6-2.1,0l0,0
		c-0.6,0.6-0.6,1.5,0,2.1l0.3,0.3c0.6,0.6,0.7,1.4,0.2,2.1c-0.6,0.7-1.6,0.7-2.2,0.1l-4-4L18.6,2.5z"/>
</g>
</svg>
