<?xml version="1.0" encoding="utf-8"?>
<!-- Generator: Adobe Illustrator 18.0.0, SVG Export Plug-In . SVG Version: 6.00 Build 0)  -->
<!DOCTYPE svg PUBLIC "-//W3C//DTD SVG 1.1//EN" "http://www.w3.org/Graphics/SVG/1.1/DTD/svg11.dtd">
<svg version="1.1" id="Layer_1" xmlns="http://www.w3.org/2000/svg" xmlns:xlink="http://www.w3.org/1999/xlink" x="0px" y="0px"
	 viewBox="0 0 48 48" enable-background="new 0 0 48 48" xml:space="preserve">
<g>
	<path fill="#FF7058" d="M37,19.6L28.4,11c0,0,5.1-10.6,8.3-11c4.2-0.6,11.8,7,11.3,11.3C47.5,14.6,37,19.6,37,19.6z"/>
	<path fill="#40596B" d="M30.9,10.6c2.2-4.3,5-8.3,6.2-8.6c0,0,0.1,0,0.2,0c1.6,0,4.3,1.8,6.3,4.1c1.9,2.1,2.6,4,2.4,4.9
		c-0.3,1.1-4.2,3.9-8.6,6.1L30.9,10.6z"/>
	<path fill="#FF7058" d="M11,19.6l8.6-8.6c0,0-5.1-10.6-8.3-11C7.1-0.5-0.5,7.1,0,11.3C0.5,14.6,11,19.6,11,19.6z"/>
	<path fill="#40596B" d="M17.1,10.6c-2.2-4.3-5-8.3-6.2-8.6c0,0-0.1,0-0.2,0C9.3,2,6.5,3.8,4.5,6.2c-1.9,2.1-2.6,4-2.4,4.9
		c0.3,1.1,4.2,3.9,8.6,6.1L17.1,10.6z"/>
	<path fill="#FF7058" d="M45,23c0,11.6-9.4,25-21,25S3,34.6,3,23S12.4,6,24,6S45,11.4,45,23z"/>
	<path fill="#FFD15C" d="M32.1,34.9c-1.2-2.3-1.8-4.8-2-7.3C29.9,26,29.6,24.7,29,24c-1.8-1.9-8.2-1.9-9.9,0c-0.6,0.7-1,2-1.1,3.5
		c-0.2,2.6-0.9,5.1-2,7.3c-0.9,1.8-0.8,4.1,0.6,5.7c1.2,1.4,2.8,3,4.9,4.5c1.6,1.2,3.7,1.2,5.3,0c2.1-1.6,3.7-3.1,4.9-4.5
		C32.9,39,33,36.7,32.1,34.9z"/>
	<g>
		<circle fill="#FFD15C" cx="14.6" cy="18.7" r="3.4"/>
		<circle fill="#40596B" cx="14.6" cy="18.7" r="2.1"/>
		<circle fill="#FFFFFF" cx="13.5" cy="17.4" r="0.9"/>
	</g>
	<g>
		<circle fill="#FFD15C" cx="33.4" cy="18.7" r="3.4"/>
		<circle fill="#40596B" cx="33.4" cy="18.7" r="2.1"/>
		<circle fill="#FFFFFF" cx="32.3" cy="17.4" r="0.9"/>
	</g>
	<g>
		<path fill="#F1543F" d="M27.1,32.3h-6.2c-1.5,0-2.7,1.2-2.7,2.7v4.7c0,1.5,1.2,2.7,2.7,2.7h6.2c1.5,0,2.7-1.2,2.7-2.7V35
			C29.9,33.5,28.6,32.3,27.1,32.3z"/>
		<path fill="#FF7058" d="M24,36.6c-2.6,0-4.9,1.7-5.7,4.1c0.4,1,1.4,1.8,2.5,1.8h6.4c1.2,0,2.1-0.7,2.5-1.8
			C28.9,38.3,26.6,36.6,24,36.6z"/>
		<g>
			<g>
				<g>
					<path fill="#F2F2F2" d="M28.7,32.8V35c0,0.4-0.1,0.9-0.3,1.2c-0.2,0.3-0.6,0.3-0.7,0c-0.2-0.4-0.3-0.8-0.3-1.2v-2.7
						C27.8,32.3,28.3,32.5,28.7,32.8z"/>
					<path fill="#F2F2F2" d="M26.6,32.3v1.1c0,0.3-0.1,0.6-0.2,0.9c-0.1,0.2-0.4,0.2-0.5,0c-0.2-0.3-0.2-0.6-0.2-0.9v-1.1H26.6z"/>
					<path fill="#F2F2F2" d="M25.1,32.3v0.7c0,0.2-0.1,0.5-0.2,0.7c-0.1,0.2-0.3,0.2-0.4,0c-0.1-0.2-0.2-0.5-0.2-0.7v-0.7H25.1z"/>
				</g>
				<g>
					<path fill="#F2F2F2" d="M20.6,32.3V35c0,0.4-0.1,0.9-0.3,1.2c-0.2,0.3-0.6,0.3-0.7,0c-0.2-0.4-0.3-0.8-0.3-1.2v-2.2
						C19.6,32.5,20.1,32.3,20.6,32.3z"/>
					<path fill="#F2F2F2" d="M22.3,32.3v1.1c0,0.3-0.1,0.6-0.2,0.9c-0.1,0.2-0.4,0.2-0.5,0c-0.2-0.3-0.2-0.6-0.2-0.9v-1.1H22.3z"/>
					<path fill="#F2F2F2" d="M23.6,32.3v0.7c0,0.2-0.1,0.5-0.2,0.7c-0.1,0.2-0.3,0.2-0.4,0c-0.1-0.2-0.2-0.5-0.2-0.7v-0.7H23.6z"/>
				</g>
			</g>
			<path fill="#F2F2F2" d="M22,41.4v1.1h-1.2v-1.1c0-0.4,0.1-0.7,0.3-1c0.1-0.2,0.5-0.2,0.6,0C21.9,40.6,22,41,22,41.4z"/>
			<path fill="#F2F2F2" d="M27.1,41.4v1.1h-1.2v-1.1c0-0.4,0.1-0.7,0.3-1c0.1-0.2,0.5-0.2,0.6,0C27,40.6,27.1,41,27.1,41.4z"/>
		</g>
	</g>
	<g>
		<path fill="#40596B" d="M26.7,24.9h-5.3c-1.2,0-1.8,1.1-1.1,2l2.7,4.2c0.6,0.7,1.7,0.7,2.3,0l2.7-4.2
			C28.5,26.1,27.8,24.9,26.7,24.9z"/>
		<g>
			<circle fill="#334A5E" cx="25.7" cy="27.1" r="1.1"/>
			<circle fill="#334A5E" cx="22.3" cy="27.1" r="1.1"/>
		</g>
	</g>
</g>
</svg>
