<?xml version="1.0" encoding="utf-8"?>
<!-- Generator: Adobe Illustrator 16.0.0, SVG Export Plug-In . SVG Version: 6.00 Build 0)  -->
<!DOCTYPE svg PUBLIC "-//W3C//DTD SVG 1.1//EN" "http://www.w3.org/Graphics/SVG/1.1/DTD/svg11.dtd">
<svg version="1.1" id="Layer_1" xmlns="http://www.w3.org/2000/svg" xmlns:xlink="http://www.w3.org/1999/xlink" x="0px" y="0px"
	 width="48px" height="48px" viewBox="0 0 48 48" enable-background="new 0 0 48 48" xml:space="preserve">
<g>
	<rect x="18.226" y="35.9" fill="#E8EAEA" width="11.55" height="10.098"/>
	<path fill="#40596B" d="M45,0H3C1.341,0,0,1.34,0,3v29.44h48V3C48,1.34,46.66,0,45,0"/>
	<rect x="3" y="3" fill="#84DBFF" width="42" height="26.44"/>
	<path fill="#F2F2F2" d="M0,32.44v3.92c0,1.66,1.341,3,3,3h42c1.66,0,3-1.34,3-3v-3.92H0z"/>
	<path fill="#FFD15C" d="M35.248,35.9c0,0.706,0.572,1.279,1.278,1.279s1.279-0.573,1.279-1.279s-0.573-1.279-1.279-1.279
		S35.248,35.194,35.248,35.9"/>
	<path fill="#FF7058" d="M39.425,35.9c0,0.706,0.573,1.279,1.279,1.279s1.278-0.573,1.278-1.279s-0.572-1.279-1.278-1.279
		S39.425,35.194,39.425,35.9"/>
	<path fill="#F2F2F2" d="M37.311,48c-1.174-3.146-4.178-5.232-7.535-5.232h-11.55c-3.358,0-6.362,2.086-7.535,5.232H37.311z"/>
	<path fill="#FFFFFF" d="M35.82,15.08c0,5.24-5.29,9.49-11.82,9.49c-1.63,0-3.18-0.26-4.59-0.74H19.4l-5.561,3.02l1.641-5.189
		c-2.05-1.71-3.3-4.029-3.3-6.58c0-5.24,5.29-9.49,11.819-9.49C30.53,5.59,35.82,9.84,35.82,15.08"/>
	<path fill="#FF7058" d="M21.037,14.255c0.212-0.3,0.317-0.59,0.317-0.87c0-0.279-0.091-0.514-0.276-0.701
		c-0.184-0.188-0.42-0.283-0.707-0.283c-0.527,0-1.027,0.377-1.5,1.129l-1.5-0.889c0.393-0.607,0.821-1.067,1.289-1.379
		c0.47-0.313,1.064-0.469,1.788-0.469c0.726,0,1.36,0.23,1.908,0.691c0.548,0.459,0.823,1.084,0.823,1.877
		c0,0.432-0.111,0.846-0.331,1.242c-0.219,0.396-0.625,0.901-1.217,1.518l-1.514,1.572h3.313v1.68h-5.916v-1.391l2.459-2.521
		C20.472,14.957,20.824,14.555,21.037,14.255"/>
	<polygon fill="#FF7058" points="27.883,15.749 27.883,14.285 29.684,14.285 29.684,15.749 30.63,15.749 30.63,17.369 
		29.684,17.369 29.684,19.373 27.883,19.373 27.883,17.369 24.511,17.369 24.511,15.941 27.498,10.985 29.538,10.985 26.695,15.749 
			"/>
</g>
</svg>
