<?xml version="1.0" encoding="utf-8"?>
<!-- Generator: Adobe Illustrator 18.0.0, SVG Export Plug-In . SVG Version: 6.00 Build 0)  -->
<!DOCTYPE svg PUBLIC "-//W3C//DTD SVG 1.1//EN" "http://www.w3.org/Graphics/SVG/1.1/DTD/svg11.dtd">
<svg version="1.1" id="Layer_1" xmlns="http://www.w3.org/2000/svg" xmlns:xlink="http://www.w3.org/1999/xlink" x="0px" y="0px"
	 viewBox="0 0 48 48" enable-background="new 0 0 48 48" xml:space="preserve">
<g>
	<path fill="#ACB3BA" d="M43.2,43.3h-3.4c-1.1,0-2-0.9-2-2v-2.7h7.4v2.7C45.2,42.4,44.3,43.3,43.2,43.3z"/>
	<path fill="#94A6B2" d="M37.7,40.9h6.1c0.5,0,0.9-0.1,1.3-0.3v-2.1h-7.4V40.9z"/>
	<path fill="#ACB3BA" d="M4.7,43.3h3.4c1.1,0,2-0.9,2-2v-2.7H2.7v2.7C2.7,42.4,3.6,43.3,4.7,43.3z"/>
	<path fill="#94A6B2" d="M10.1,40.9H4c-0.5,0-0.9-0.1-1.3-0.3v-2.1h7.4V40.9z"/>
	<path fill="#FF7058" d="M6.5,20.8h-4c-1.4,0-2.5-1.1-2.5-2.5v0c0-1.4,1.1-2.5,2.5-2.5h4V20.8z"/>
	<path fill="#FF7058" d="M41.5,20.8h4c1.4,0,2.5-1.1,2.5-2.5v0c0-1.4-1.1-2.5-2.5-2.5h-4V20.8z"/>
	<path fill="#40596B" d="M37.1,6.1c-8.6-1.9-17.6-1.9-26.3,0c-2.2,0.5-4,2.6-4.5,5c-1.1,5.3-2.2,10.3-3.3,15c13.9,0,27.9,0,41.8,0
		c-1.1-4.7-2.2-9.7-3.3-15C41.1,8.8,39.2,6.6,37.1,6.1z"/>
	<path fill="#54C0EB" d="M41.2,19.3c-0.5-2.4-1.1-5-1.7-7.8c-0.3-1.6-1.6-3.1-2.9-3.4c-4.2-0.9-8.4-1.4-12.7-1.4c-0.7,0-1.3,0-2,0
		c-1,0-2,0.1-3.1,0.2c-1,0.1-2,0.2-3,0.3c-0.7,0.1-1.4,0.2-2.1,0.3C13,7.8,12.1,8,11.3,8.2C10,8.5,8.7,9.9,8.4,11.5
		c-0.2,1.2-0.5,2.4-0.7,3.5c-0.2,1-0.4,2-0.6,2.9c-0.1,0.5-0.2,0.9-0.3,1.4H41.2z"/>
	<path fill="#FFFFFF" d="M15.9,7.4L7,18c0.2-0.9,0.4-1.9,0.6-2.9l6.2-7.4C14.5,7.6,15.2,7.5,15.9,7.4z"/>
	<path fill="#FFFFFF" d="M11.5,19.3L22,6.8c-1,0-2,0.1-3.1,0.2L8.6,19.3H11.5z"/>
	<path fill="#CDD6E0" d="M44.8,39.4H3c-1.4,0-2.5-1.3-2.3-2.7l0-9.6c0.6-3.4,3.5-5.8,6.9-5.8h32.6c3.4,0,6.3,2.4,6.9,5.8l0,9.6
		C47.4,38.1,46.3,39.4,44.8,39.4z"/>
	<path fill="#40596B" d="M44.8,39.4H3c-1.4,0-2.5-1.3-2.3-2.7l0-9.6c0.2-1.3,0.8-2.5,1.7-3.4c1.3-1.5,3.2-2.4,5.2-2.4h32.6
		c2.1,0,4,0.9,5.2,2.4c0.8,0.9,1.4,2.1,1.6,3.4l0,9.6C47.4,38.1,46.3,39.4,44.8,39.4z"/>
	<circle fill="#FFD15C" cx="9.2" cy="31.7" r="4.2"/>
	<circle fill="#FFD15C" cx="38.7" cy="31.7" r="4.2"/>
	<path fill="#F8B64C" d="M38.7,28.4c2.2,0,3.9,1.6,4.1,3.7c0-0.2,0-0.3,0-0.5c0-2.3-1.9-4.2-4.2-4.2c-2.3,0-4.2,1.9-4.2,4.2
		c0,0.2,0,0.3,0,0.5C34.8,30.1,36.5,28.4,38.7,28.4z"/>
	<path fill="#F8B64C" d="M9.2,28.4c2.2,0,3.9,1.6,4.1,3.7c0-0.2,0-0.3,0-0.5c0-2.3-1.9-4.2-4.2-4.2c-2.3,0-4.2,1.9-4.2,4.2
		c0,0.2,0,0.3,0,0.5C5.3,30.1,7,28.4,9.2,28.4z"/>
	<path fill="#FF7058" d="M28.4,34.5c-3-0.3-6-0.3-9,0c-1.6,0.2-3-1.1-3-2.6l0-0.1c0-1.4,1-2.7,2.5-2.8c3.3-0.3,6.7-0.3,10,0
		c1.4,0.1,2.5,1.4,2.5,2.8c0,0,0,0,0,0.1C31.4,33.5,30,34.7,28.4,34.5z"/>
</g>
</svg>
