<?xml version="1.0" encoding="utf-8"?>
<!-- Generator: Adobe Illustrator 18.0.0, SVG Export Plug-In . SVG Version: 6.00 Build 0)  -->
<!DOCTYPE svg PUBLIC "-//W3C//DTD SVG 1.1//EN" "http://www.w3.org/Graphics/SVG/1.1/DTD/svg11.dtd">
<svg version="1.1" id="Layer_1" xmlns="http://www.w3.org/2000/svg" xmlns:xlink="http://www.w3.org/1999/xlink" x="0px" y="0px"
	 viewBox="0 0 48 48" enable-background="new 0 0 48 48" xml:space="preserve">
<g>
	<g>
		<path fill="#354B5E" d="M47.2,42.9c-2.4-0.1-3.6-0.9-3.7-3c-0.1-2-0.3-8.6-3.2-12.4c-3-3.9-1.4-5.3-2.9-16.3
			c-0.7-5.5-4.1-8.4-7.2-9.8c-3.9-1.8-8.3-1.8-12.1,0c-3.1,1.5-6.4,4.3-7.2,9.8c-1.5,11,0.1,12.4-2.9,16.3c-3,3.9-2.2,7.1-2.3,9.2
			c-0.1,2-2.2,6.2-4.6,6.2c-2.4,0.1,0.2,5.2,4,3.5c3.8-1.7,2.2-3,6.6-1.6c4.4,1.4,0.4,5,5.7,2.3c2-1,4.3-2.9,6.9-3.2
			c2.6,0.2-0.6,2.9,6.5,3.3c2.2,0.1,2.1-1.2,6.5-2.5c4.4-1.3,1.7,0.4,5.4,2.1C46.3,48.5,49.6,43,47.2,42.9z"/>
		<g>
			<g>
				<path fill="#FFFFFF" d="M35.3,19.8c-2,5.7-3.7,12.9-11.2,12.6c-7.5,0.3-9.2-6.9-11.2-12.6c-1.1-3.3-1.1-5.4-0.8-6.6
					c0.2-1.1,0.5-2.2,0.6-3.2c0.6-3.8,3.1-6,5.6-7.3c3.6-1.8,7.9-1.8,11.5,0c2.5,1.3,5,3.5,5.6,7.3c0.2,1.1,0.4,2.2,0.6,3.2
					C36.3,14.4,36.4,16.5,35.3,19.8z"/>
			</g>
			<g>
				<g>
					<g>
						<path fill="#354B5E" d="M26.6,11.6c0,0,0.1-0.4,0.4-0.9c0.1-0.2,0.3-0.5,0.5-0.8c0.2-0.3,0.5-0.6,0.7-0.8
							c0.1-0.1,0.3-0.3,0.4-0.4c0.1-0.1,0.3-0.2,0.4-0.3c0.1-0.1,0.3-0.2,0.4-0.3c0.1-0.1,0.3-0.1,0.4-0.2c0.1-0.1,0.3-0.1,0.4-0.1
							c0.1,0,0.2,0,0.3-0.1c0.2,0,0.3,0,0.3,0s-0.1,0.1-0.2,0.2c-0.1,0-0.1,0.1-0.2,0.2c-0.1,0.1-0.2,0.1-0.3,0.2
							c-0.1,0.1-0.2,0.2-0.3,0.3c-0.1,0.1-0.2,0.2-0.4,0.3c-0.1,0.1-0.2,0.2-0.4,0.3c-0.1,0.1-0.3,0.2-0.4,0.4
							c-0.1,0.1-0.3,0.3-0.4,0.4c-0.1,0.1-0.2,0.2-0.4,0.4c-0.2,0.2-0.5,0.5-0.6,0.7C26.9,11.4,26.6,11.6,26.6,11.6z"/>
					</g>
					<g>
						<path fill="#354B5E" d="M21.6,11.6c0,0-0.3-0.3-0.6-0.7c-0.2-0.2-0.4-0.4-0.6-0.7c-0.1-0.1-0.2-0.2-0.4-0.4
							c-0.1-0.1-0.2-0.2-0.4-0.4c-0.1-0.1-0.3-0.2-0.4-0.4c-0.1-0.1-0.2-0.2-0.4-0.3c-0.1-0.1-0.2-0.2-0.4-0.3
							c-0.1-0.1-0.2-0.2-0.3-0.3C18,8.2,17.9,8.1,17.8,8c-0.1-0.1-0.2-0.1-0.2-0.2c-0.1-0.1-0.2-0.2-0.2-0.2s0.1,0,0.3,0
							c0.1,0,0.2,0,0.3,0.1c0.1,0,0.2,0.1,0.4,0.1c0.1,0,0.3,0.1,0.4,0.2c0.1,0.1,0.3,0.2,0.4,0.3c0.2,0.1,0.3,0.2,0.4,0.3
							C19.7,8.8,19.9,9,20,9.1c0.3,0.3,0.5,0.6,0.7,0.8c0.2,0.3,0.4,0.6,0.5,0.8C21.5,11.3,21.6,11.6,21.6,11.6z"/>
					</g>
				</g>
				<path fill="#354B5E" d="M25.5,20.6c-0.6-1.4-1.2-0.9-1.4-0.7c-0.2-0.2-0.8-0.7-1.4,0.7c-0.4,1.2-0.3,2.6-0.3,2.6s0.3,0.9,0.7,0
					c0.4-0.8,0.5-1.2,0.9-1.4c0.4,0.2,0.6,0.6,0.9,1.4c0.4,0.9,0.7,0,0.7,0S25.8,21.8,25.5,20.6z"/>
				<path fill="#354B5E" d="M28.1,25.5c-0.1-0.2-0.2-0.3-0.4-0.2c-0.2,0-0.3,0.1-0.5,0.1c-0.1,0-0.2,0.2-0.2,0.4
					c0-0.2-0.2-0.3-0.3-0.3c-0.2,0-0.3,0.1-0.5,0.1c-0.1,0-0.2,0.2-0.2,0.4c0-0.2-0.2-0.3-0.3-0.3c-0.2,0-0.3,0-0.5,0.1
					c-0.1,0-0.2,0.2-0.2,0.3c0-0.2-0.1-0.3-0.3-0.3c-0.2,0-0.3,0-0.5,0c-0.1,0-0.3,0.1-0.3,0.3c0-0.2-0.1-0.3-0.3-0.3
					c-0.2,0-0.3,0-0.5,0c-0.1,0-0.3,0.1-0.3,0.3c0-0.2-0.1-0.3-0.2-0.3c-0.2,0-0.3,0-0.5-0.1c-0.1,0-0.3,0.1-0.3,0.3
					c0-0.2-0.1-0.3-0.2-0.4c-0.2,0-0.3-0.1-0.5-0.1c-0.1,0-0.3,0.1-0.3,0.3c0-0.2,0-0.3-0.2-0.4c-0.2,0-0.3-0.1-0.5-0.1
					c-0.1,0-0.3,0.1-0.4,0.2c-0.3,0.8-0.5,1.5-0.8,2.3c-0.1,0.2,0,0.4,0.2,0.4c0.2,0.1,0.4,0.1,0.6,0.2c0.2,0,0.3-0.1,0.4-0.2
					c0,0.2,0.1,0.4,0.2,0.4c0.2,0,0.4,0.1,0.6,0.1c0.2,0,0.3-0.1,0.4-0.3c0,0.2,0.1,0.3,0.3,0.4c0.2,0,0.4,0.1,0.6,0.1
					c0.2,0,0.3-0.1,0.3-0.3c0,0.2,0.1,0.3,0.3,0.3c0.2,0,0.4,0,0.6,0c0.2,0,0.3-0.1,0.3-0.3c0,0.2,0.1,0.3,0.3,0.3
					c0.2,0,0.4,0,0.6,0c0.2,0,0.3-0.2,0.3-0.3c0,0.2,0.2,0.3,0.3,0.3c0.2,0,0.4,0,0.6-0.1c0.2,0,0.3-0.2,0.3-0.4
					c0,0.2,0.2,0.3,0.4,0.3c0.2,0,0.4-0.1,0.6-0.1c0.2,0,0.3-0.2,0.2-0.4c0,0.2,0.2,0.3,0.4,0.2c0.2-0.1,0.4-0.1,0.6-0.2
					c0.2-0.1,0.3-0.2,0.2-0.4C28.6,27,28.4,26.2,28.1,25.5z"/>
				<g>
					<path fill="#354B5E" d="M32.4,16.2c0-1.3-1-2.4-2.3-2.4c-1.3,0-4.4,2-4.4,3.4c0,1.3,3.1,1.7,4.4,1.7
						C31.4,18.9,32.4,17.6,32.4,16.2z"/>
					<path fill="#354B5E" d="M18.1,13.8c-1.3,0-2.3,1.1-2.3,2.4c0,1.3,1,2.7,2.3,2.7c1.3,0,4.4-0.4,4.4-1.7
						C22.4,15.9,19.4,13.8,18.1,13.8z"/>
					<path fill="#354B5E" d="M29.6,21.1c0,0,0.5,1.6,0.3,2.6c-0.2,1-0.1,1.4,0.3,1.7c0.5,0.3,1.1-0.3,1.3-1.4c0.1-1,0-2.6-0.9-3.4
						C29.6,19.8,29.6,20.9,29.6,21.1z"/>
					<path fill="#354B5E" d="M17.7,20.6c-0.9,0.7-1.1,2.3-0.9,3.4c0.1,1,0.8,1.7,1.3,1.4c0.4-0.2,0.5-0.7,0.3-1.7
						c-0.2-1,0.3-2.6,0.3-2.6C18.6,20.9,18.6,19.8,17.7,20.6z"/>
				</g>
			</g>
		</g>
	</g>
</g>
</svg>
