<?xml version="1.0" encoding="utf-8"?>
<!-- Generator: Adobe Illustrator 20.1.0, SVG Export Plug-In . SVG Version: 6.00 Build 0)  -->
<!DOCTYPE svg PUBLIC "-//W3C//DTD SVG 1.1//EN" "http://www.w3.org/Graphics/SVG/1.1/DTD/svg11.dtd">
<svg version="1.1" id="Layer_1" xmlns="http://www.w3.org/2000/svg" xmlns:xlink="http://www.w3.org/1999/xlink" x="0px" y="0px"
	 viewBox="0 0 49 49" enable-background="new 0 0 49 49" xml:space="preserve">
<g>
	<rect x="22.2" y="3.3" fill="#CDD6E0" width="4.1" height="6.7"/>
	
		<rect x="6.1" y="9.7" transform="matrix(0.7071 -0.7071 0.7071 0.7071 -6.5477 10.3219)" fill="#CDD6E0" width="6.2" height="6.7"/>
	<path fill="#CDD6E0" d="M30.9,0.5H17.6c-1.1,0-2,0.9-2,2c0,1.1,0.9,2,2,2h13.3c1.1,0,2-0.9,2-2C32.9,1.4,32,0.5,30.9,0.5z"/>
	<circle fill="#334A5E" cx="24.2" cy="27.6" r="20.9"/>
	<rect x="22.2" y="4.6" fill="#ACB3BA" width="4.1" height="1.1"/>
	<circle fill="#FFFFFF" cx="24.2" cy="27.6" r="15.5"/>
	<circle fill="#FF7058" cx="24.2" cy="27.6" r="9"/>
	<circle fill="#FFFFFF" cx="24.2" cy="27.6" r="2.5"/>
	<path fill="#F2F2F2" d="M24.2,12.1c-8.5,0-15.5,6.9-15.5,15.5c0,0.2,0,0.5,0,0.7v0.1c0,0,0,0,0,0.1c0.4-8.2,7.2-14.7,15.5-14.7
		c8.3,0,15,6.5,15.5,14.7v-0.1c0-0.2,0-0.5,0-0.7C39.7,19,32.8,12.1,24.2,12.1z"/>
	<path fill="#4CDBC4" d="M38.7,12.5L25.5,27.6c-0.3,0.3-0.8,0.3-1.2,0c-0.4-0.3-0.5-0.9-0.2-1.2l13.3-15.1L38.7,12.5z"/>
	<polygon fill="#FFD15C" points="41.8,7.5 41.4,3.7 36.3,9.5 36.8,13.3 40.6,13.2 45.7,7.4 	"/>
</g>
</svg>
