<?xml version="1.0" encoding="utf-8"?>
<!-- Generator: Adobe Illustrator 18.0.0, SVG Export Plug-In . SVG Version: 6.00 Build 0)  -->
<!DOCTYPE svg PUBLIC "-//W3C//DTD SVG 1.1//EN" "http://www.w3.org/Graphics/SVG/1.1/DTD/svg11.dtd">
<svg version="1.1" id="Layer_1" xmlns="http://www.w3.org/2000/svg" xmlns:xlink="http://www.w3.org/1999/xlink" x="0px" y="0px"
	 viewBox="0 0 48 48" enable-background="new 0 0 48 48" xml:space="preserve">
<g>
	<g>
		<g>
			<g>
				<g>
					<g>
						<path fill="#66C6B9" d="M19.7,28.1c3.6-8.5-0.9-17.2-9.9-19.4C6.2,17.3,10.6,26,19.7,28.1z"/>
						<g>
							<g>
								<g>
									<polygon fill="#415A6B" points="17.7,23.8 17.9,17.7 17.1,23.5 									"/>
								</g>
								<g>
									<polygon fill="#415A6B" points="16.4,21.1 11.1,18.2 16.2,21.6 									"/>
								</g>
								<g>
									<polygon fill="#415A6B" points="14.5,18.1 14.9,18.8 15.1,13.7 									"/>
								</g>
							</g>
						</g>
					</g>
					<g>
						<path fill="#415A6B" d="M20.8,42.1h3.4c0-12.9-11.6-27-11.6-27S22.1,29.4,20.8,42.1z"/>
					</g>
				</g>
			</g>
			<g>
				<g>
					<path fill="#66C6B9" d="M30.1,21.6C46.1,26.7,43.7,5.5,46.6,0C39.1,5.3,24.3,5.4,30.1,21.6z"/>
					<g>
						<g>
							<g>
								<path fill="#415A6B" d="M33.4,16l-0.1,1c3-0.7,5.8-1.8,7.9-3.5C39.1,14.9,36.4,15.6,33.4,16z"/>
							</g>
							<g>
								<path fill="#415A6B" d="M35.1,13.4l0.8,0.1c0.1-2.6,0.5-4.8,1.2-6.7C36.1,8.6,35.4,10.8,35.1,13.4z"/>
							</g>
							<g>
								<path fill="#415A6B" d="M37.1,11.8c2.7-1,4.5-2.1,5.8-3.1c-1.2,0.6-3.2,1.9-5.3,2.3L37.1,11.8z"/>
							</g>
						</g>
					</g>
				</g>
				<g>
					<path fill="#415A6B" d="M26,42.1c1.6-13.8,6.9-26.2,16-35.6c-10.6,8.6-17.9,21.2-19.7,35.6H26z"/>
				</g>
			</g>
		</g>
		<g>
			<g>
				<path fill="#FFD15C" d="M48,48c-6.7-3.9-15-6.3-24-6.3c-9,0-17.3,2.4-24,6.3H48z"/>
			</g>
		</g>
	</g>
</g>
</svg>
