<?xml version="1.0" encoding="utf-8"?>
<!-- Generator: Adobe Illustrator 19.0.1, SVG Export Plug-In . SVG Version: 6.00 Build 0)  -->
<svg version="1.1" id="Layer_1" xmlns="http://www.w3.org/2000/svg" xmlns:xlink="http://www.w3.org/1999/xlink" x="0px" y="0px"
	 viewBox="0 0 48 48" style="enable-background:new 0 0 48 48;" xml:space="preserve">
<style type="text/css">
	.st0{fill:#415A6B;}
	.st1{fill:#ADB3BA;}
	.st2{fill:#E8EAE9;}
	.st3{fill:#55C0EB;}
	.st4{fill:#F3705A;}
	.st5{fill:#FFFFFF;}
	.st6{fill:#FFD15C;}
	.st7{fill:#344A5E;}
	.st8{fill:#CED6E0;}
	.st9{fill:#F05540;}
	.st10{fill:#F7B64C;}
	.st11{fill:#F3F3F3;}
	.st12{fill:#66C6B9;}
	.st13{fill:#4ABAA5;}
	.st14{fill:#8AD7F8;}
	.st15{fill:none;}
	.st16{fill:#E53D35;}
</style>
<g>
	<g>
		<g>
			<g>
				<path class="st12" d="M23.7,12.6c0.2,0.6,0.4,1.2,0.7,1.7l-1.3,2.5l2,2l2.4-1.3c0.5,0.3,1.1,0.5,1.7,0.7l0.8,2.7h2.8l0.8-2.7
					c0.6-0.2,1.2-0.4,1.7-0.7l2.5,1.3l2-2l-1.3-2.4c0.3-0.5,0.5-1.1,0.7-1.7l2.7-0.8V9L39,8.2c-0.2-0.6-0.4-1.2-0.7-1.7L39.7,4l-2-2
					l-2.4,1.3c-0.5-0.3-1.1-0.5-1.7-0.7L32.7,0l-2.8,0l-0.8,2.7c-0.6,0.2-1.2,0.4-1.7,0.7L25,2.1l-2,2l1.3,2.4
					c-0.3,0.5-0.5,1.1-0.7,1.7L21,9v2.8L23.7,12.6z M26.6,10.4c0-2.6,2.1-4.7,4.7-4.7c2.6,0,4.7,2.1,4.7,4.7c0,2.6-2.1,4.7-4.7,4.7
					C28.8,15.1,26.6,13,26.6,10.4z"/>
				<circle class="st12" cx="31.4" cy="10.4" r="2.3"/>
			</g>
			<g>
				<path class="st4" d="M3.1,28.7l-3.1,2.5l1.5,3.6l3.9-0.5c0.6,0.7,1.2,1.3,1.9,1.9l-0.4,4l3.7,1.5l2.4-3.1c0.9,0.1,1.8,0.1,2.6,0
					l2.5,3.1l3.6-1.5l-0.5-3.9c0.7-0.6,1.3-1.2,1.9-1.9l4,0.4l1.5-3.7l-3.1-2.4c0.1-0.9,0.1-1.8,0-2.6l3.1-2.5l-1.5-3.6l-3.9,0.5
					c-0.6-0.7-1.2-1.3-1.9-1.9l0.4-4l-3.7-1.5L15.7,16c-0.9-0.1-1.8-0.1-2.6,0L10.5,13l-3.6,1.5l0.5,3.9C6.6,19,6,19.6,5.4,20.3
					l-4-0.4L0,23.6l3.1,2.4C3,26.9,3,27.8,3.1,28.7z M8.2,29.9c-1.4-3.4,0.2-7.3,3.6-8.7c3.4-1.4,7.3,0.2,8.7,3.6
					c1.4,3.4-0.2,7.3-3.6,8.7C13.6,34.9,9.7,33.3,8.2,29.9z"/>
				<circle class="st4" cx="14.4" cy="27.3" r="3.3"/>
			</g>
		</g>
		<g>
			<g>
				<path class="st0" d="M18.2,18.2c-5.3,5.3-5.3,14,0,19.4c5.3,5.3,14,5.3,19.4,0c5.3-5.3,5.3-14,0-19.4
					C32.2,12.9,23.6,12.9,18.2,18.2z M34.7,34.7c-3.8,3.8-9.9,3.8-13.6,0c-3.8-3.8-3.8-9.9,0-13.6s9.9-3.8,13.6,0S38.5,31,34.7,34.7
					z"/>
			</g>
			<g>
				<path class="st7" d="M40.5,35.4c0.4,0.4,0.4,1.1,0,1.5l-3.7,3.7c-0.4,0.4-1.1,0.4-1.5,0c-0.4-0.4-0.4-1.1,0-1.5l3.7-3.7
					C39.5,35,40.1,35,40.5,35.4z"/>
			</g>
			<g>
				<path class="st6" d="M46.9,46.9L46.9,46.9c-1.6,1.6-4.2,1.4-5.5-0.4l-4.6-6l3.7-3.7l6,4.6C48.3,42.8,48.5,45.4,46.9,46.9z"/>
			</g>
		</g>
	</g>
</g>
</svg>
