<?xml version="1.0" encoding="utf-8"?>
<!-- Generator: Adobe Illustrator 18.0.0, SVG Export Plug-In . SVG Version: 6.00 Build 0)  -->
<!DOCTYPE svg PUBLIC "-//W3C//DTD SVG 1.1//EN" "http://www.w3.org/Graphics/SVG/1.1/DTD/svg11.dtd">
<svg version="1.1" id="Layer_1" xmlns="http://www.w3.org/2000/svg" xmlns:xlink="http://www.w3.org/1999/xlink" x="0px" y="0px"
	 viewBox="0 0 48 48" enable-background="new 0 0 48 48" xml:space="preserve">
<g>
	<g>
		<g>
			<g>
				<polygon fill="#F2F2F2" points="14.8,40.8 3.8,10.4 5.7,9.7 16.2,40.3 17.3,45.3 17.3,45.3 17.3,45.3 17.3,45.3 				"/>
			</g>
		</g>
		<path fill="#FF7058" d="M3.6,1.5C3.4,0.7,2.7,0,1.9,0C1.4,0,1,0.1,0.6,0.4C0,1-0.2,2,0.2,2.7c1.4,2.8,2.4,5.8,3.1,8.9l3.5-1.3
			C5.4,7.5,4.3,4.6,3.6,1.5z"/>
		<g>
			<g>
				
					<rect x="4.5" y="8.8" transform="matrix(-0.3352 -0.9422 0.9422 -0.3352 -3.5643 19.3406)" fill="#F1543F" width="1" height="4.2"/>
			</g>
		</g>
		<g>
			<g>
				<g>
					<path fill="#F2F2F2" d="M17.1,40.5l-2.7,1c-0.4,0.1-0.8-0.1-0.9-0.4l0,0c-0.1-0.4,0.1-0.8,0.4-0.9l2.7-1
						c0.4-0.1,0.8,0.1,0.9,0.4l0,0C17.6,39.9,17.4,40.3,17.1,40.5z"/>
				</g>
			</g>
		</g>
	</g>
	<g>
		<g>
			<g>
				<polygon fill="#F2F2F2" points="20.4,42.9 20.2,10.5 22.2,10.5 21.9,42.9 21.2,48 21.2,48 21.2,48 21.2,48 				"/>
			</g>
		</g>
		<path fill="#FF7058" d="M23.1,11.5c-0.4-3.1-0.4-6.3-0.1-9.4c0.1-0.8-0.3-1.7-1.1-2c-0.4-0.2-0.9-0.2-1.3,0
			c-0.8,0.3-1.2,1.2-1.1,2c0.4,3.1,0.3,6.3-0.1,9.4H23.1z"/>
		<g>
			<g>
				<rect x="19.1" y="11" fill="#F1543F" width="4.2" height="1"/>
			</g>
		</g>
		<g>
			<g>
				<g>
					<path fill="#F2F2F2" d="M22.6,43.3l-2.9,0c-0.4,0-0.7-0.3-0.7-0.7l0,0c0-0.4,0.3-0.7,0.7-0.7l2.9,0c0.4,0,0.7,0.3,0.7,0.7l0,0
						C23.3,43,23,43.3,22.6,43.3z"/>
				</g>
			</g>
		</g>
	</g>
	<path fill="#40596B" d="M48,5.6c0.1-1.8-0.6-3.6-2-4.8c-1.4-1.1-2.8-1.1-4.2,0c-1.4,1.1-2.1,3-2,4.8c0.7,12.2,0.7,24.5,0,36.7
		c-0.1,1.8,0.6,3.6,2,4.8c1.4,1.1,2.8,1.1,4.2,0c1.4-1.1,2.1-3,2-4.8C47.2,30.1,47.2,17.9,48,5.6z"/>
	<path fill="#40596B" d="M36.6,5.6c0.1-2-0.7-4.1-2.6-5.2c-0.9-0.5-2.1-0.6-3.1,0c-1.8,1.1-2.7,3.1-2.6,5.2
		c0.7,12.2,0.7,24.5,0,36.7c-0.1,1.8,0.6,3.6,2,4.8c1.4,1.1,2.8,1.1,4.2,0c1.4-1.1,2.1-3,2-4.8C35.9,30.1,35.9,17.9,36.6,5.6z"/>
	<g>
		<rect x="42.3" y="19.1" fill="#334A5E" width="3.7" height="1.7"/>
		<rect x="42.3" y="27.2" fill="#334A5E" width="3.7" height="1.7"/>
	</g>
	<g>
		<rect x="30.6" y="19.1" fill="#334A5E" width="3.7" height="1.7"/>
		<rect x="30.6" y="27.2" fill="#334A5E" width="3.7" height="1.7"/>
	</g>
</g>
</svg>
