<?xml version="1.0" encoding="utf-8"?>
<!-- Generator: Adobe Illustrator 20.1.0, SVG Export Plug-In . SVG Version: 6.00 Build 0)  -->
<!DOCTYPE svg PUBLIC "-//W3C//DTD SVG 1.1//EN" "http://www.w3.org/Graphics/SVG/1.1/DTD/svg11.dtd">
<svg version="1.1" id="Layer_1" xmlns="http://www.w3.org/2000/svg" xmlns:xlink="http://www.w3.org/1999/xlink" x="0px" y="0px"
	 viewBox="0 0 49 49" enable-background="new 0 0 49 49" xml:space="preserve">
<g>
	<path fill="#F2F2F2" d="M36.3,10.2H12.7c-0.1,0.3-0.2,0.7-0.3,1c-2,5.1-6.2,16.2-2.6,34c0,0,0.4,3.3,3.6,3.3h22.1
		c3.2,0,3.6-3.3,3.6-3.3c3.6-17.8-0.6-28.9-2.6-34C36.5,10.9,36.4,10.5,36.3,10.2z"/>
	<path fill="#40596B" d="M13.4,45.3c-0.2,0-0.4,0-0.5-0.6l0-0.2c-1.2-5.9-1.6-11.4-1.2-16.6C12.2,21.3,17.8,16,24.5,16
		c6.7,0,12.3,5.2,12.8,11.9c0.4,5.2-0.1,10.8-1.2,16.6l0,0.2c-0.1,0.6-0.3,0.6-0.5,0.6H13.4z"/>
	<path fill="#FF7058" d="M36.3,2.8c0,0-0.3-2-3.2-2.1l-1.8-0.1c-4.5-0.2-9.1-0.2-13.6,0l-1.8,0.1c-2.9,0.1-3.2,2.1-3.2,2.1
		c-0.4,0.5-0.8,3.2-0.9,4.8c-0.1,0.6,0.4,1.1,1,1.1h12.4h11.1c0.6,0,1.1-0.5,1-1.1C37.1,6,36.7,3.3,36.3,2.8z"/>
	<rect x="14" y="8.7" fill="#E2E2E2" width="20.9" height="1.5"/>
	<path fill="#F2F2F2" d="M17,34.8l0.7,0.2c-0.1,0.4-0.4,1.2-1.5,1.2c-1.4,0-1.6-1.3-1.6-1.8c0-0.6,0.2-1.9,1.7-1.9
		c1.2,0,1.4,0.8,1.4,1.1l-0.7,0.2c0-0.2-0.1-0.6-0.8-0.6c-0.8,0-0.9,0.8-0.9,1.2c0,0.5,0.2,1.3,0.9,1.3C16.7,35.6,16.9,35.1,17,34.8
		z"/>
	<path fill="#F2F2F2" d="M18.1,34.4c0-1.3,0.8-1.9,1.7-1.9c1,0,1.8,0.6,1.8,1.9c0,1.2-0.8,1.9-1.7,1.9
		C18.9,36.2,18.1,35.6,18.1,34.4z M18.9,34.4c0,1,0.5,1.2,1,1.2c0.5,0,1-0.3,1-1.3c0-0.9-0.6-1.2-1-1.2
		C19.5,33.1,18.9,33.5,18.9,34.4z"/>
	<path fill="#F2F2F2" d="M22.2,36.2v-3.6h2.5v0.6h-1.7V34h1.5v0.6h-1.5v1.5H22.2z"/>
	<path fill="#F2F2F2" d="M25.3,36.2v-3.6h2.5v0.6H26V34h1.5v0.6H26v1.5H25.3z"/>
	<path fill="#F2F2F2" d="M28.4,36.2v-3.6h2.7v0.6h-1.9V34h1.8v0.6h-1.8v1h2v0.6H28.4z"/>
	<path fill="#F2F2F2" d="M31.7,36.2v-3.6h2.7v0.6h-1.9V34h1.8v0.6h-1.8v1h2v0.6H31.7z"/>
	<path fill="#FFFFFF" d="M28.3,28c-0.3-1.8-1.9-3.2-3.8-3.2c-1.2,0-2.3-0.5-3.2-1.3c-0.5-0.5-0.8-1.1-1.1-1.7
		c-0.5,1.5,0.1,3.6,1.7,5.2c2,2,4.8,2.5,6.2,1.1C28.2,28.1,28.2,28,28.3,28z"/>
	<path fill="#FFFFFF" d="M20.9,20.9c0,0-0.1,0.1-0.1,0.1c0.1,0.8,0.5,1.5,1.1,2c0.7,0.7,1.7,1.1,2.7,1.1c2,0,3.6,1.3,4.2,3
		c0.5-1.5-0.1-3.6-1.7-5.2C25,20,22.2,19.5,20.9,20.9z"/>
</g>
</svg>
