<?xml version="1.0" encoding="utf-8"?>
<!-- Generator: Adobe Illustrator 18.0.0, SVG Export Plug-In . SVG Version: 6.00 Build 0)  -->
<!DOCTYPE svg PUBLIC "-//W3C//DTD SVG 1.1//EN" "http://www.w3.org/Graphics/SVG/1.1/DTD/svg11.dtd">
<svg version="1.1" id="Layer_1" xmlns="http://www.w3.org/2000/svg" xmlns:xlink="http://www.w3.org/1999/xlink" x="0px" y="0px"
	 viewBox="0 0 48 48" enable-background="new 0 0 48 48" xml:space="preserve">
<g>
	<path fill="#40596B" d="M45,8c0-1.1-0.9-2-2-2H5C3.9,6,3,6.9,3,8v26.2h42V8z"/>
	<path fill="#ACB3BA" d="M38.5,46.7h-1.8c-1.7,0-3-1.3-3-3v-2.4H14.3v2.4c0,1.7-1.3,3-3,3H9.5c-0.3,0-0.6,0.3-0.6,0.6v0
		c0,0.3,0.3,0.6,0.6,0.6h29c0.3,0,0.6-0.3,0.6-0.6v0C39.1,47,38.8,46.7,38.5,46.7z"/>
	<rect x="6" y="9" fill="#FFFFFF" width="36" height="22.1"/>
	<rect x="6" y="9" fill="#84DBFF" width="36" height="22.1"/>
	<path fill="#CDD6E0" d="M3,34.2v5.2c0,1.1,0.9,2,2,2h38c1.1,0,2-0.9,2-2v-5.2H3z"/>
	<circle fill="#ACB3BA" cx="24" cy="37.8" r="1.6"/>
	<rect x="14.3" y="41.4" fill="#9EAAB5" width="19.3" height="1.5"/>
	<path fill="#F2F2F2" d="M31.7,0H13.2c-1.1,0-2,0.9-2,2v29.1h25.6v-26L31.7,0z"/>
	<path fill="#CDD6E0" d="M31.7,3.9c0,0.7,0.5,1.2,1.2,1.2h3.9L31.7,0V3.9z"/>
	<rect x="15.2" y="4" fill="#FFD15C" width="5.4" height="5.4"/>
	<rect x="15.2" y="12.4" fill="#CDD6E0" width="5.4" height="5.4"/>
	<rect x="15.2" y="20.8" fill="#FF7058" width="5.4" height="5.4"/>
	<rect x="22.1" y="6.1" fill="#4CDBC4" width="10.5" height="1.1"/>
	<rect x="22.1" y="14.5" fill="#4CDBC4" width="10.5" height="1.1"/>
	<rect x="22.1" y="22.9" fill="#4CDBC4" width="10.5" height="1.1"/>
	<g>
		<polygon fill="#FFFFFF" points="17,8.7 15.5,7.1 16.2,6.4 17,7.3 19.6,4.7 20.3,5.4 		"/>
	</g>
	<g>
		<polygon fill="#FFFFFF" points="17,17.1 15.5,15.5 16.2,14.8 17,15.6 19.6,13.1 20.3,13.8 		"/>
	</g>
	<g>
		<polygon fill="#FFFFFF" points="17,25.4 15.5,23.9 16.2,23.2 17,24 19.6,21.5 20.3,22.2 		"/>
	</g>
</g>
</svg>
