<?xml version="1.0" encoding="utf-8"?>
<!-- Generator: Adobe Illustrator 18.0.0, SVG Export Plug-In . SVG Version: 6.00 Build 0)  -->
<!DOCTYPE svg PUBLIC "-//W3C//DTD SVG 1.1//EN" "http://www.w3.org/Graphics/SVG/1.1/DTD/svg11.dtd">
<svg version="1.1" id="Layer_1" xmlns="http://www.w3.org/2000/svg" xmlns:xlink="http://www.w3.org/1999/xlink" x="0px" y="0px"
	 viewBox="0 0 48 48" enable-background="new 0 0 48 48" xml:space="preserve">
<g>
	<path fill="#F8B64C" d="M31.1,31.5c0,1.9,0.4,3.8,1.2,5.7c-5.5,1.2-11,1.2-16.5,0c1.6-4.1,1.6-8.3,0-12.4c5.5-1.2,11-1.2,16.5,0
		c-0.1,0.3-0.2,0.5-0.3,0.8h0C31.3,27.6,31,29.5,31.1,31.5L31.1,31.5z"/>
	<path fill="#F2F2F2" d="M31.1,31.5L31.1,31.5L24,37.2l-7.1-5.7v0l-7.7,3C3.7,36.7,0,42,0,48v0h24h24l0,0c0-6-3.7-11.3-9.2-13.5
		L31.1,31.5z"/>
	<polygon fill="#40596B" points="27.2,40.4 24,37.2 20.8,40.4 22.3,41.9 21.7,48 26.3,48 25.7,41.9 	"/>
	<path opacity="0.1" fill="#40596B" d="M32,25.6c-0.6,1.9-1,3.9-0.9,5.8v0l-5,4.1l-5.8-4.3l3.1-3.9L32,25.6z"/>
	
		<ellipse transform="matrix(0.9962 -8.716200e-002 8.716200e-002 0.9962 -1.5392 1.3114)" fill="#F8B64C" cx="14.2" cy="18.3" rx="2.2" ry="3.3"/>
	
		<ellipse transform="matrix(0.9962 8.716168e-002 -8.716168e-002 0.9962 1.7219 -2.8724)" fill="#F8B64C" cx="33.8" cy="18.3" rx="2.2" ry="3.3"/>
	<path fill="#FFD15C" d="M34.4,13.4v3.4c0,0.7,0,1.4-0.1,2.1c-0.2,1.2-0.4,2.3-0.8,3.5c-0.8,2.7-2.3,5.2-4.2,7.3l-1,1.1
		c-0.9,1-2.2,1.5-3.5,1.5h-1.5c-1.3,0-2.6-0.6-3.5-1.5l-1-1.1c-1.4-1.5-2.5-3.2-3.3-5c-0.8-1.8-1.4-3.8-1.6-5.8
		c-0.1-0.7-0.1-1.4-0.1-2.1c0-0.1,0-0.1,0-0.2v-3.1c0-1,0.1-1.9,0.4-2.8c1.2-4.3,5.2-7.5,10-7.5c4.7,0,8.7,3.2,9.9,7.5
		C34.2,11.5,34.4,12.4,34.4,13.4z"/>
	<polygon fill="#CDD6E0" points="24,37.2 31.1,31.5 31.5,31.6 28.3,41.5 	"/>
	<polygon fill="#CDD6E0" points="24,37.2 16.9,31.5 16.5,31.6 19.7,41.5 	"/>
	<path fill="#ACB3BA" d="M33.2,30.4C33.2,30.5,33.2,30.5,33.2,30.4L33.2,30.4C33.2,30.4,33.2,30.4,33.2,30.4z"/>
	<path fill="#ACB3BA" d="M33.3,30.4L33.3,30.4C33.3,30.5,33.3,30.5,33.3,30.4C33.3,30.4,33.3,30.4,33.3,30.4z"/>
	<path fill="#40596B" d="M34.2,19.3c0.3-3.3-0.3-5.4-0.7-6.6c-0.3-0.7-0.3-1.4-0.2-2.1C33.6,7.5,32,8,32,8c-3.5,1.7-8,1.7-8,1.7
		s-4.5,0-8-1.7c0,0-1.6-0.4-1.2,2.7c0.1,0.7,0,1.4-0.2,2.1c-0.5,1.1-1.1,3.3-0.7,6.6c0,0-6.9-20,10.2-19.3
		C41-0.7,34.2,19.3,34.2,19.3z"/>
	<g>
		<circle fill="#CDD6E0" cx="35.7" cy="40.5" r="2.3"/>
		<circle fill="#F2F2F2" cx="35.7" cy="40.5" r="1.4"/>
		<g>
			<path fill="#D7D8DB" d="M36.6,38.5l-1.2-0.2c0,0,0.6-3.1-0.9-5c-0.7-0.9-1.9-1.4-3.5-1.4v-1.2c1.9,0,3.4,0.6,4.4,1.8
				C37.3,34.8,36.7,38.3,36.6,38.5z"/>
		</g>
	</g>
	<g>
		<path fill="#D7D8DB" d="M16.9,30.5c-1.5,0.2-2.6,0.8-3.5,1.8c-1.9,2.3-1.2,5.8-1.1,5.9l1.2-0.2c0,0-0.6-3.1,0.9-4.9
			c0.6-0.7,1.4-1.2,2.5-1.3C17,31.7,17,30.5,16.9,30.5z"/>
		<g>
			<g>
				<path fill="#D7D8DB" d="M10.1,46.8l-0.2-0.3c-0.8-1.2-1.2-2.5-1.4-3.8c-0.3-2.8,1.6-5.4,4.4-5.7c2.9-0.4,5.4,1.6,5.8,4.4
					c0.2,1.3,0,2.7-0.4,4.1l-0.1,0.4l-1.6,0.2l-0.2-1.2l0.8-0.1c0.3-1.1,0.4-2.2,0.2-3.2c-0.3-2.1-2.2-3.7-4.4-3.4
					c-2.2,0.3-3.7,2.3-3.5,4.4c0.1,1,0.5,2,1,3l0.8-0.1l0.2,1.2L10.1,46.8z"/>
			</g>
			<path fill="#ACB3BA" d="M13.2,45.8c0.1,0.7-0.4,1.4-1.1,1.5c-0.7,0.1-1-2.5-0.3-2.6C12.5,44.6,13.1,45.1,13.2,45.8z"/>
			<path fill="#ACB3BA" d="M14.9,45.6c0.1,0.7,0.7,1.2,1.5,1.1c0.7-0.1,0.4-2.7-0.3-2.6C15.4,44.2,14.8,44.8,14.9,45.6z"/>
		</g>
	</g>
	<path fill="#FF7058" d="M31.1,15.1h-4.6c-1,0-1.8,0.8-1.8,1.8V17C24.5,17,24.2,17,24,17c-0.2,0-0.5,0-0.7,0.1v0
		c0-1-0.8-1.9-1.9-1.9H17c-1,0-1.9,0.8-1.9,1.9v1c0,1,0.8,1.9,1.9,1.9h4.5c1,0,1.9-0.8,1.9-1.9v0.2c0.4-0.1,0.9-0.1,1.3,0V18
		c0,1,0.8,1.8,1.8,1.8h4.6c1,0,1.8-0.8,1.8-1.8v-1.1C32.9,15.9,32.1,15.1,31.1,15.1z M22.3,18c0,0.5-0.4,0.9-0.9,0.9H17
		c-0.5,0-0.9-0.4-0.9-0.9v-1c0-0.5,0.4-0.9,0.9-0.9h4.5c0.5,0,0.9,0.4,0.9,0.9V18z M31.9,18c0,0.5-0.4,0.8-0.8,0.8h-4.6
		c-0.5,0-0.8-0.4-0.8-0.8v-1.1c0-0.5,0.4-0.8,0.8-0.8h4.6c0.5,0,0.8,0.4,0.8,0.8V18z"/>
</g>
</svg>
