<?xml version="1.0" encoding="utf-8"?>
<!-- Generator: Adobe Illustrator 18.0.0, SVG Export Plug-In . SVG Version: 6.00 Build 0)  -->
<!DOCTYPE svg PUBLIC "-//W3C//DTD SVG 1.1//EN" "http://www.w3.org/Graphics/SVG/1.1/DTD/svg11.dtd">
<svg version="1.1" id="Layer_1" xmlns="http://www.w3.org/2000/svg" xmlns:xlink="http://www.w3.org/1999/xlink" x="0px" y="0px"
	 viewBox="0 0 48 48" enable-background="new 0 0 48 48" xml:space="preserve">
<g>
	<path fill="#FCC74F" d="M38.7,11.5H3.2v5.4v3.7l0,6.7c0,1,0.6,1.8,1.6,2C5.9,29.5,7,28.5,7,27.4v-5.7c0-0.6,0.5-1.1,1.1-1.1h0
		c0.6,0,1.1,0.5,1.1,1.1l0,3.3c0,1,0.6,1.8,1.6,2c1.2,0.2,2.2-0.7,2.2-1.9v-3.4c0-0.6,0.5-1.1,1.1-1.1h0c0.6,0,1.1,0.5,1.1,1.1v1.6
		c0,0.6,0.5,1.1,1.1,1.1h0c0.6,0,1.1-0.5,1.1-1.1v-1.2c0-0.8,0.7-1.5,1.5-1.5h0.8c0.8,0,1.5,0.7,1.5,1.5v0c0,1.1,0.9,1.9,1.9,1.9h0
		c1.1,0,1.9-0.9,1.9-1.9v-1.5h13.7V11.5z"/>
	<path fill="#40596B" d="M42,5.1h-1.9v4H42c1.1,0,2,0.9,2,2v10.8c0,1.1-0.9,2-2,2H31.4c-3.3,0-6,2.7-6,6v2.4h4v-2.4c0-1.1,0.9-2,2-2
		H42c3.3,0,6-2.7,6-6V11.1C48,7.7,45.3,5.1,42,5.1z"/>
	<path fill="#F1543F" d="M29.9,33.1h-5.1c-0.3,0-0.6-0.3-0.6-0.6l0,0c0-0.3,0.3-0.6,0.6-0.6h5.1c0.3,0,0.6,0.3,0.6,0.6l0,0
		C30.5,32.8,30.3,33.1,29.9,33.1z"/>
	<path fill="#FF7058" d="M27.4,48L27.4,48c-2.5,0-4.4-2.2-4-4.7L25,33.1h4.7l1.7,10.2C31.8,45.8,29.8,48,27.4,48z"/>
	<rect x="3.2" y="13" fill="#F8B64C" width="35.6" height="2"/>
	<path fill="#FFD15C" d="M38.6,14.1H3.3c-1.1,0-2-0.9-2-2V2c0-1.1,0.9-2,2-2h35.4c1.1,0,2,0.9,2,2v10.1
		C40.6,13.2,39.7,14.1,38.6,14.1z"/>
	<rect x="0" y="5.3" fill="#F8B64C" width="1.3" height="3.4"/>
</g>
</svg>
