<?xml version="1.0" encoding="utf-8"?>
<!-- Generator: Adobe Illustrator 18.0.0, SVG Export Plug-In . SVG Version: 6.00 Build 0)  -->
<!DOCTYPE svg PUBLIC "-//W3C//DTD SVG 1.1//EN" "http://www.w3.org/Graphics/SVG/1.1/DTD/svg11.dtd">
<svg version="1.1" id="Layer_1" xmlns="http://www.w3.org/2000/svg" xmlns:xlink="http://www.w3.org/1999/xlink" x="0px" y="0px"
	 viewBox="0 0 48 48" enable-background="new 0 0 48 48" xml:space="preserve">
<g>
	<g>
		<g>
			<g>
				<g>
					<path fill="#F3F3F3" d="M46,27.4H2c-1.1,0-2,0.9-2,2v10.9c0,1.1,0.9,2,2,2h44c1.1,0,2-0.9,2-2V29.4C48,28.3,47.1,27.4,46,27.4z
						"/>
					<g>
						<path fill="#F3705A" d="M5.7,32.8L5.7,32.8c-1.1,0-2.1,0.9-2.1,2c0,1.1,0.9,2,2,2h0c1.1,0,2-0.9,2-2
							C7.8,33.7,6.8,32.8,5.7,32.8z"/>
						<path fill="#FFD15C" d="M12.2,32.8L12.2,32.8c-1.1,0-2.1,0.9-2.1,2c0,1.1,0.9,2,2,2h0c1.1,0,2-0.9,2-2
							C14.3,33.7,13.3,32.8,12.2,32.8z"/>
						<g>
							<path fill="#8AD7F8" d="M42.3,32.8L42.3,32.8c1.1,0,2.1,0.9,2.1,2c0,1.1-0.9,2-2,2h0H18.7h0c-1.1,0-2-0.9-2-2
								c0-1.1,0.9-2,2-2h0H42.3z"/>
						</g>
					</g>
				</g>
				<g>
					<rect x="4.6" y="25.1" fill="#E8EAE9" width="7.6" height="2.4"/>
				</g>
				<g>
					<path fill="#415A6B" d="M8.4,3.4L8.4,3.4c-0.6,0-1,0.4-1.1,1L6.1,25.1h4.6L9.5,4.4C9.4,3.9,9,3.4,8.4,3.4z"/>
				</g>
			</g>
			<g>
				<rect x="4.8" y="42.3" fill="#415A6B" width="4.9" height="2.3"/>
				<rect x="39.1" y="42.3" fill="#415A6B" width="4.9" height="2.3"/>
			</g>
		</g>
	</g>
</g>
</svg>
