<?xml version="1.0" encoding="utf-8"?>
<!-- Generator: Adobe Illustrator 18.0.0, SVG Export Plug-In . SVG Version: 6.00 Build 0)  -->
<!DOCTYPE svg PUBLIC "-//W3C//DTD SVG 1.1//EN" "http://www.w3.org/Graphics/SVG/1.1/DTD/svg11.dtd">
<svg version="1.1" id="Layer_1" xmlns="http://www.w3.org/2000/svg" xmlns:xlink="http://www.w3.org/1999/xlink" x="0px" y="0px"
	 viewBox="0 0 48 48" enable-background="new 0 0 48 48" xml:space="preserve">
<g>
	<g>
		<path fill="#F8B64C" d="M23.4,34.8c0,3-5.2,5.4-11.7,5.4S0,37.8,0,34.8v-3.6h23.4V34.8z"/>
		<g>
			<ellipse fill="#FFD15C" cx="11.7" cy="31.2" rx="11.7" ry="5.4"/>
			<ellipse fill="#F8B64C" cx="11.7" cy="31.2" rx="9.6" ry="4.4"/>
			<g>
				<path fill="#FFD15C" d="M11.1,33.1v-1.7c-1.1-0.2-2-0.4-2.5-0.7c-0.5-0.3-0.8-0.7-0.8-1.1c0-0.4,0.3-0.8,0.9-1.1
					c0.6-0.3,1.4-0.5,2.4-0.5v-0.4h1.3V28c0.9,0.1,1.7,0.2,2.2,0.4c0.5,0.2,0.9,0.6,1.1,1l-2.2,0.1c-0.1-0.3-0.5-0.5-1.1-0.6v1.6
					c1.4,0.2,2.4,0.4,2.9,0.7c0.5,0.3,0.8,0.6,0.8,1.1c0,0.5-0.3,0.9-1,1.2c-0.6,0.3-1.5,0.5-2.7,0.6v0.8h-1.3v-0.7
					c-1-0.1-1.8-0.2-2.5-0.5c-0.6-0.3-1-0.7-1.2-1.2l2.3-0.1c0.1,0.2,0.3,0.4,0.5,0.6C10.5,32.9,10.8,33.1,11.1,33.1z M11.1,28.9
					c-0.3,0.1-0.6,0.1-0.8,0.3c-0.2,0.1-0.3,0.3-0.3,0.4c0,0.1,0.1,0.3,0.3,0.4c0.2,0.1,0.5,0.2,0.8,0.3V28.9z M12.4,33.2
					c0.4,0,0.8-0.1,1.1-0.3c0.3-0.1,0.4-0.3,0.4-0.5c0-0.2-0.1-0.3-0.3-0.5c-0.2-0.1-0.6-0.2-1.1-0.3V33.2z"/>
			</g>
		</g>
	</g>
	<g>
		<path fill="#F8B64C" d="M23.4,30.3c0,3-5.2,5.4-11.7,5.4S0,33.3,0,30.3v-3.6h23.4V30.3z"/>
		<g>
			<ellipse fill="#FFD15C" cx="11.7" cy="26.7" rx="11.7" ry="5.4"/>
			<ellipse fill="#F8B64C" cx="11.7" cy="26.7" rx="9.6" ry="4.4"/>
			<g>
				<path fill="#FFD15C" d="M11.1,28.6v-1.7c-1.1-0.2-2-0.4-2.5-0.7c-0.5-0.3-0.8-0.7-0.8-1.1c0-0.4,0.3-0.8,0.9-1.1
					c0.6-0.3,1.4-0.5,2.4-0.5v-0.4h1.3v0.4c0.9,0.1,1.7,0.2,2.2,0.4c0.5,0.2,0.9,0.6,1.1,1L13.4,25c-0.1-0.3-0.5-0.5-1.1-0.6V26
					c1.4,0.2,2.4,0.4,2.9,0.7c0.5,0.3,0.8,0.6,0.8,1.1c0,0.5-0.3,0.9-1,1.2c-0.6,0.3-1.5,0.5-2.7,0.6v0.8h-1.3v-0.7
					c-1-0.1-1.8-0.2-2.5-0.5c-0.6-0.3-1-0.7-1.2-1.2l2.3-0.1c0.1,0.2,0.3,0.4,0.5,0.6C10.5,28.4,10.8,28.5,11.1,28.6z M11.1,24.4
					c-0.3,0.1-0.6,0.1-0.8,0.3c-0.2,0.1-0.3,0.3-0.3,0.4c0,0.1,0.1,0.3,0.3,0.4c0.2,0.1,0.5,0.2,0.8,0.3V24.4z M12.4,28.7
					c0.4,0,0.8-0.1,1.1-0.3c0.3-0.1,0.4-0.3,0.4-0.5c0-0.2-0.1-0.3-0.3-0.5c-0.2-0.1-0.6-0.2-1.1-0.3V28.7z"/>
			</g>
		</g>
	</g>
	<g>
		<path fill="#F8B64C" d="M23.4,25.8c0,3-5.2,5.4-11.7,5.4S0,28.8,0,25.8v-3.6h23.4V25.8z"/>
		<g>
			<ellipse fill="#FFD15C" cx="11.7" cy="22.2" rx="11.7" ry="5.4"/>
			<ellipse fill="#F8B64C" cx="11.7" cy="22.2" rx="9.6" ry="4.4"/>
			<g>
				<path fill="#FFD15C" d="M11.1,24.1v-1.7c-1.1-0.2-2-0.4-2.5-0.7C8,21.4,7.8,21,7.8,20.6c0-0.4,0.3-0.8,0.9-1.1
					c0.6-0.3,1.4-0.5,2.4-0.5v-0.4h1.3V19c0.9,0.1,1.7,0.2,2.2,0.4c0.5,0.2,0.9,0.6,1.1,1l-2.2,0.1c-0.1-0.3-0.5-0.5-1.1-0.6v1.6
					c1.4,0.2,2.4,0.4,2.9,0.7c0.5,0.3,0.8,0.6,0.8,1.1c0,0.5-0.3,0.9-1,1.2c-0.6,0.3-1.5,0.5-2.7,0.6v0.8h-1.3v-0.7
					c-1-0.1-1.8-0.2-2.5-0.5c-0.6-0.3-1-0.7-1.2-1.2l2.3-0.1c0.1,0.2,0.3,0.4,0.5,0.6C10.5,23.9,10.8,24,11.1,24.1z M11.1,19.9
					c-0.3,0.1-0.6,0.1-0.8,0.3c-0.2,0.1-0.3,0.3-0.3,0.4c0,0.1,0.1,0.3,0.3,0.4c0.2,0.1,0.5,0.2,0.8,0.3V19.9z M12.4,24.2
					c0.4,0,0.8-0.1,1.1-0.3c0.3-0.1,0.4-0.3,0.4-0.5c0-0.2-0.1-0.3-0.3-0.5c-0.2-0.1-0.6-0.2-1.1-0.3V24.2z"/>
			</g>
		</g>
	</g>
	<g>
		<path fill="#F8B64C" d="M23.4,21.3c0,3-5.2,5.4-11.7,5.4S0,24.3,0,21.3v-3.6h23.4V21.3z"/>
		<g>
			<ellipse fill="#FFD15C" cx="11.7" cy="17.7" rx="11.7" ry="5.4"/>
			<ellipse fill="#F8B64C" cx="11.7" cy="17.7" rx="9.6" ry="4.4"/>
			<g>
				<path fill="#FFD15C" d="M11.1,19.6v-1.7c-1.1-0.2-2-0.4-2.5-0.7c-0.5-0.3-0.8-0.7-0.8-1.1c0-0.4,0.3-0.8,0.9-1.1
					c0.6-0.3,1.4-0.5,2.4-0.5v-0.4h1.3v0.4c0.9,0.1,1.7,0.2,2.2,0.4c0.5,0.2,0.9,0.6,1.1,1L13.4,16c-0.1-0.3-0.5-0.5-1.1-0.6v1.6
					c1.4,0.2,2.4,0.4,2.9,0.7c0.5,0.3,0.8,0.6,0.8,1.1c0,0.5-0.3,0.9-1,1.2c-0.6,0.3-1.5,0.5-2.7,0.6v0.8h-1.3v-0.7
					c-1-0.1-1.8-0.2-2.5-0.5c-0.6-0.3-1-0.7-1.2-1.2l2.3-0.1c0.1,0.2,0.3,0.4,0.5,0.6C10.5,19.4,10.8,19.5,11.1,19.6z M11.1,15.3
					c-0.3,0.1-0.6,0.1-0.8,0.3c-0.2,0.1-0.3,0.3-0.3,0.4c0,0.1,0.1,0.3,0.3,0.4c0.2,0.1,0.5,0.2,0.8,0.3V15.3z M12.4,19.6
					c0.4,0,0.8-0.1,1.1-0.3c0.3-0.1,0.4-0.3,0.4-0.5c0-0.2-0.1-0.3-0.3-0.5c-0.2-0.1-0.6-0.2-1.1-0.3V19.6z"/>
			</g>
		</g>
	</g>
	<g>
		<path fill="#F8B64C" d="M23.4,16.8c0,3-5.2,5.4-11.7,5.4S0,19.8,0,16.8v-3.6h23.4V16.8z"/>
		<g>
			<ellipse fill="#FFD15C" cx="11.7" cy="13.2" rx="11.7" ry="5.4"/>
			<ellipse fill="#F8B64C" cx="11.7" cy="13.2" rx="9.6" ry="4.4"/>
			<g>
				<path fill="#FFD15C" d="M11.1,15.1v-1.7c-1.1-0.2-2-0.4-2.5-0.7C8,12.4,7.8,12,7.8,11.6c0-0.4,0.3-0.8,0.9-1.1
					c0.6-0.3,1.4-0.5,2.4-0.5V9.6h1.3V10c0.9,0.1,1.7,0.2,2.2,0.4c0.5,0.2,0.9,0.6,1.1,1l-2.2,0.1c-0.1-0.3-0.5-0.5-1.1-0.6v1.6
					c1.4,0.2,2.4,0.4,2.9,0.7c0.5,0.3,0.8,0.6,0.8,1.1c0,0.5-0.3,0.9-1,1.2c-0.6,0.3-1.5,0.5-2.7,0.6v0.8h-1.3V16
					c-1-0.1-1.8-0.2-2.5-0.5c-0.6-0.3-1-0.7-1.2-1.2l2.3-0.1c0.1,0.2,0.3,0.4,0.5,0.6C10.5,14.9,10.8,15,11.1,15.1z M11.1,10.8
					c-0.3,0.1-0.6,0.1-0.8,0.3c-0.2,0.1-0.3,0.3-0.3,0.4c0,0.1,0.1,0.3,0.3,0.4c0.2,0.1,0.5,0.2,0.8,0.3V10.8z M12.4,15.1
					c0.4,0,0.8-0.1,1.1-0.3c0.3-0.1,0.4-0.3,0.4-0.5c0-0.2-0.1-0.3-0.3-0.5c-0.2-0.1-0.6-0.2-1.1-0.3V15.1z"/>
			</g>
		</g>
	</g>
	<g>
		<path fill="#F8B64C" d="M48,34.8c0,3-5.2,5.4-11.7,5.4s-11.7-2.4-11.7-5.4v-3.6H48V34.8z"/>
		<g>
			<ellipse fill="#FFD15C" cx="36.3" cy="31.2" rx="11.7" ry="5.4"/>
			<ellipse fill="#F8B64C" cx="36.3" cy="31.2" rx="9.6" ry="4.4"/>
			<g>
				<path fill="#FFD15C" d="M35.7,33.1v-1.7c-1.1-0.2-2-0.4-2.5-0.7c-0.5-0.3-0.8-0.7-0.8-1.1c0-0.4,0.3-0.8,0.9-1.1
					c0.6-0.3,1.4-0.5,2.4-0.5v-0.4H37V28c0.9,0.1,1.7,0.2,2.2,0.4c0.5,0.2,0.9,0.6,1.1,1L38,29.5c-0.1-0.3-0.5-0.5-1.1-0.6v1.6
					c1.4,0.2,2.4,0.4,2.9,0.7c0.5,0.3,0.8,0.6,0.8,1.1c0,0.5-0.3,0.9-1,1.2C39,33.8,38.1,34,37,34.1v0.8h-1.3v-0.7
					c-1-0.1-1.8-0.2-2.5-0.5c-0.6-0.3-1-0.7-1.2-1.2l2.3-0.1c0.1,0.2,0.3,0.4,0.5,0.6C35.1,32.9,35.4,33.1,35.7,33.1z M35.7,28.9
					c-0.3,0.1-0.6,0.1-0.8,0.3c-0.2,0.1-0.3,0.3-0.3,0.4c0,0.1,0.1,0.3,0.3,0.4c0.2,0.1,0.5,0.2,0.8,0.3V28.9z M37,33.2
					c0.4,0,0.8-0.1,1.1-0.3c0.3-0.1,0.4-0.3,0.4-0.5c0-0.2-0.1-0.3-0.3-0.5c-0.2-0.1-0.6-0.2-1.1-0.3V33.2z"/>
			</g>
		</g>
	</g>
	<g>
		<path fill="#F8B64C" d="M48,30.3c0,3-5.2,5.4-11.7,5.4s-11.7-2.4-11.7-5.4v-3.6H48V30.3z"/>
		<g>
			<ellipse fill="#FFD15C" cx="36.3" cy="26.7" rx="11.7" ry="5.4"/>
			<ellipse fill="#F8B64C" cx="36.3" cy="26.7" rx="9.6" ry="4.4"/>
			<g>
				<path fill="#FFD15C" d="M35.7,28.6v-1.7c-1.1-0.2-2-0.4-2.5-0.7c-0.5-0.3-0.8-0.7-0.8-1.1c0-0.4,0.3-0.8,0.9-1.1
					c0.6-0.3,1.4-0.5,2.4-0.5v-0.4H37v0.4c0.9,0.1,1.7,0.2,2.2,0.4c0.5,0.2,0.9,0.6,1.1,1L38,25c-0.1-0.3-0.5-0.5-1.1-0.6V26
					c1.4,0.2,2.4,0.4,2.9,0.7c0.5,0.3,0.8,0.6,0.8,1.1c0,0.5-0.3,0.9-1,1.2c-0.6,0.3-1.5,0.5-2.7,0.6v0.8h-1.3v-0.7
					c-1-0.1-1.8-0.2-2.5-0.5c-0.6-0.3-1-0.7-1.2-1.2l2.3-0.1c0.1,0.2,0.3,0.4,0.5,0.6C35.1,28.4,35.4,28.5,35.7,28.6z M35.7,24.4
					c-0.3,0.1-0.6,0.1-0.8,0.3c-0.2,0.1-0.3,0.3-0.3,0.4c0,0.1,0.1,0.3,0.3,0.4c0.2,0.1,0.5,0.2,0.8,0.3V24.4z M37,28.7
					c0.4,0,0.8-0.1,1.1-0.3c0.3-0.1,0.4-0.3,0.4-0.5c0-0.2-0.1-0.3-0.3-0.5c-0.2-0.1-0.6-0.2-1.1-0.3V28.7z"/>
			</g>
		</g>
	</g>
	<g>
		<path fill="#F8B64C" d="M48,25.8c0,3-5.2,5.4-11.7,5.4s-11.7-2.4-11.7-5.4v-3.6H48V25.8z"/>
		<g>
			<ellipse fill="#FFD15C" cx="36.3" cy="22.2" rx="11.7" ry="5.4"/>
			<ellipse fill="#F8B64C" cx="36.3" cy="22.2" rx="9.6" ry="4.4"/>
			<g>
				<path fill="#FFD15C" d="M35.7,24.1v-1.7c-1.1-0.2-2-0.4-2.5-0.7c-0.5-0.3-0.8-0.7-0.8-1.1c0-0.4,0.3-0.8,0.9-1.1
					c0.6-0.3,1.4-0.5,2.4-0.5v-0.4H37V19c0.9,0.1,1.7,0.2,2.2,0.4c0.5,0.2,0.9,0.6,1.1,1L38,20.5c-0.1-0.3-0.5-0.5-1.1-0.6v1.6
					c1.4,0.2,2.4,0.4,2.9,0.7c0.5,0.3,0.8,0.6,0.8,1.1c0,0.5-0.3,0.9-1,1.2C39,24.8,38.1,25,37,25.1v0.8h-1.3v-0.7
					c-1-0.1-1.8-0.2-2.5-0.5c-0.6-0.3-1-0.7-1.2-1.2l2.3-0.1c0.1,0.2,0.3,0.4,0.5,0.6C35.1,23.9,35.4,24,35.7,24.1z M35.7,19.9
					c-0.3,0.1-0.6,0.1-0.8,0.3c-0.2,0.1-0.3,0.3-0.3,0.4c0,0.1,0.1,0.3,0.3,0.4c0.2,0.1,0.5,0.2,0.8,0.3V19.9z M37,24.2
					c0.4,0,0.8-0.1,1.1-0.3c0.3-0.1,0.4-0.3,0.4-0.5c0-0.2-0.1-0.3-0.3-0.5c-0.2-0.1-0.6-0.2-1.1-0.3V24.2z"/>
			</g>
		</g>
	</g>
	<g>
		<path fill="#F8B64C" d="M48,21.3c0,3-5.2,5.4-11.7,5.4s-11.7-2.4-11.7-5.4v-3.6H48V21.3z"/>
		<g>
			<ellipse fill="#FFD15C" cx="36.3" cy="17.7" rx="11.7" ry="5.4"/>
			<ellipse fill="#F8B64C" cx="36.3" cy="17.7" rx="9.6" ry="4.4"/>
			<g>
				<path fill="#FFD15C" d="M35.7,19.6v-1.7c-1.1-0.2-2-0.4-2.5-0.7c-0.5-0.3-0.8-0.7-0.8-1.1c0-0.4,0.3-0.8,0.9-1.1
					c0.6-0.3,1.4-0.5,2.4-0.5v-0.4H37v0.4c0.9,0.1,1.7,0.2,2.2,0.4c0.5,0.2,0.9,0.6,1.1,1L38,16c-0.1-0.3-0.5-0.5-1.1-0.6v1.6
					c1.4,0.2,2.4,0.4,2.9,0.7c0.5,0.3,0.8,0.6,0.8,1.1c0,0.5-0.3,0.9-1,1.2c-0.6,0.3-1.5,0.5-2.7,0.6v0.8h-1.3v-0.7
					c-1-0.1-1.8-0.2-2.5-0.5c-0.6-0.3-1-0.7-1.2-1.2l2.3-0.1c0.1,0.2,0.3,0.4,0.5,0.6C35.1,19.4,35.4,19.5,35.7,19.6z M35.7,15.3
					c-0.3,0.1-0.6,0.1-0.8,0.3c-0.2,0.1-0.3,0.3-0.3,0.4c0,0.1,0.1,0.3,0.3,0.4c0.2,0.1,0.5,0.2,0.8,0.3V15.3z M37,19.6
					c0.4,0,0.8-0.1,1.1-0.3c0.3-0.1,0.4-0.3,0.4-0.5c0-0.2-0.1-0.3-0.3-0.5c-0.2-0.1-0.6-0.2-1.1-0.3V19.6z"/>
			</g>
		</g>
	</g>
</g>
</svg>
