<?xml version="1.0" encoding="utf-8"?>
<!-- Generator: Adobe Illustrator 16.0.0, SVG Export Plug-In . SVG Version: 6.00 Build 0)  -->
<!DOCTYPE svg PUBLIC "-//W3C//DTD SVG 1.1//EN" "http://www.w3.org/Graphics/SVG/1.1/DTD/svg11.dtd">
<svg version="1.1" id="Layer_1" xmlns="http://www.w3.org/2000/svg" xmlns:xlink="http://www.w3.org/1999/xlink" x="0px" y="0px"
	 width="48px" height="48px" viewBox="0 0 48 48" enable-background="new 0 0 48 48" xml:space="preserve">
<g>
	<path fill="#40596B" d="M35.854,16.441c0-4.724-2.465-8.834-6.102-10.97c-0.141-3.036-2.639-5.458-5.709-5.458
		c-3.072,0-5.57,2.422-5.709,5.458c-3.639,2.136-6.104,6.246-6.104,10.97c0,0.846,0.082,1.67,0.232,2.469
		c0.131,3.063,1.277,5.305,1.277,5.305s0.053-0.469,0.273-1.173c2.084,3.558,5.791,5.935,10.029,5.935
		c4.254,0,7.973-2.396,10.051-5.979c0.203,0.867,0.512,2.043,0.59,1.551c0.387-2.43,0.996-4.059,0.947-5.702
		C35.774,18.068,35.854,17.265,35.854,16.441"/>
	<path fill="#F8B64C" d="M33.554,30.771c-1.4,3.9-5.15,6.74-9.531,6.74h-0.02h-0.02c-4.381,0-8.131-2.84-9.529-6.74
		c0.398-0.04,2.84-0.061,2.84-0.061v-2.56c2.199,2.851,4.779,3.819,6.02,4.14c0.459,0.11,0.73,0.141,0.73,0.141
		s3.699-0.37,6.709-4.23v2.51C30.753,30.711,33.153,30.731,33.554,30.771"/>
	<rect x="23.985" y="34.938" fill="#FFD15C" width="0.004" height="0.004"/>
	<path fill="#F2F2F2" d="M32.325,30.712c0.373,0,0.744,0.017,1.113,0.048C33.069,30.73,32.698,30.712,32.325,30.712"/>
	<path fill="#F2F2F2" d="M33.458,30.764c0.361,0.031,0.719,0.077,1.072,0.137C34.177,30.841,33.819,30.794,33.458,30.764"/>
	<path fill="#F2F2F2" d="M14.454,30.771c-0.01,0-0.01,0,0,0.01c-0.068,0-0.129,0-0.199,0.01
		C14.325,30.781,14.386,30.781,14.454,30.771"/>
	<g opacity="0.1">
		<g>
			<defs>
				<rect id="SVGID_123_" x="23.313" y="28.201" width="10.24" height="8.623"/>
			</defs>
			<clipPath id="SVGID_2_">
				<use xlink:href="#SVGID_123_"  overflow="visible"/>
			</clipPath>
			<path clip-path="url(#SVGID_2_)" fill="#40596B" d="M33.554,30.771c-0.4-0.04-2.801-0.061-2.801-0.061v-2.51
				c-3.01,3.86-6.709,4.23-6.709,4.23s-0.271-0.03-0.73-0.141l4.338,4.533C30.39,35.758,32.562,33.533,33.554,30.771"/>
		</g>
	</g>
	<path fill="#4CDBC4" d="M46.267,47.986l-0.922-6.305c-0.66-3.82-2.91-7.01-6-8.949c-0.9-0.57-1.869-1.011-2.891-1.361
		c-1.02-0.35-2.059-0.52-2.91-0.6c-0.699,1.95-1.99,3.631-3.639,4.83c-1.66,1.2-3.691,1.9-5.871,1.91h-0.02h-0.01h-0.01h-0.01
		h-0.021c-2.189-0.01-4.209-0.71-5.869-1.91c-1.66-1.199-2.939-2.88-3.641-4.83c-0.85,0.08-1.889,0.25-2.91,0.6
		c-1.01,0.351-1.99,0.791-2.889,1.361c-3.09,1.939-5.34,5.129-6,8.949l-0.922,6.305H46.267z"/>
	<path fill="#FF7058" d="M35.044,30.995l-5.199,16.989H18.155l-5.201-16.989c0.182-0.04,0.352-0.069,0.521-0.101
		c0.35-0.049,0.68-0.09,0.979-0.119c0.701,1.949,1.98,3.63,3.641,4.83c1.66,1.199,3.68,1.899,5.869,1.91h0.021h0.01h0.01h0.01h0.02
		c2.18-0.011,4.211-0.711,5.871-1.91c1.65-1.2,2.939-2.881,3.639-4.83c0.301,0.029,0.631,0.07,0.98,0.119
		C34.694,30.926,34.864,30.955,35.044,30.995"/>
	<polygon fill="#F2F2F2" points="32.825,47.986 35.677,45.882 33.7,43.248 38.253,39.176 35.042,30.994 29.843,47.986 	"/>
	<polygon fill="#F2F2F2" points="12.325,45.882 15.177,47.986 18.159,47.986 12.96,30.994 9.749,39.176 14.302,43.248 	"/>
	<path fill="#FFD15C" d="M27.464,15.83c-2.375,4.662-6.064,4.13-6.064,4.13c1.803-0.909,1.912-2.671,1.912-2.671
		c-3.168,3.693-5.299,3.182-5.299,3.182c2.24-1.25,1.311-2.102,1.311-2.102c-0.205,0.661-0.873,1.262-1.66,1.768
		c-1.514,0.969-2.803,1.023-2.803,1.023c-0.176,0.296-0.316,0.578-0.441,0.852c0.145,0.629,0.268,1.014,0.268,1.014
		c2.754,8.742,9.357,9.406,9.357,9.406s6.602-0.664,9.355-9.406c0,0,0.094-0.291,0.215-0.787
		C30.778,22.792,27.464,15.83,27.464,15.83"/>
	<path fill="#FF7058" d="M34.524,30.895c-0.01,0.051-0.02,0.101-0.039,0.15c-0.76,2.131-2.141,3.961-3.99,5.311
		c-1.891,1.359-4.121,2.09-6.451,2.1c-2.42-0.01-4.648-0.74-6.539-2.1c-1.84-1.34-3.221-3.17-3.99-5.311
		c-0.02-0.05-0.029-0.1-0.039-0.15c0.35-0.049,0.68-0.09,0.979-0.119c0.701,1.949,1.98,3.63,3.641,4.83
		c1.66,1.199,3.68,1.9,5.869,1.91h0.021h0.01h0.01h0.01h0.02c2.18-0.01,4.211-0.711,5.871-1.91c1.65-1.2,2.939-2.881,3.639-4.83
		C33.845,30.805,34.175,30.846,34.524,30.895"/>
	<rect x="36.755" y="44.432" fill="#3DC9AE" width="7.188" height="1.874"/>
</g>
</svg>
