<?xml version="1.0" encoding="utf-8"?>
<!-- Generator: Adobe Illustrator 18.0.0, SVG Export Plug-In . SVG Version: 6.00 Build 0)  -->
<!DOCTYPE svg PUBLIC "-//W3C//DTD SVG 1.1//EN" "http://www.w3.org/Graphics/SVG/1.1/DTD/svg11.dtd">
<svg version="1.1" id="Layer_1" xmlns="http://www.w3.org/2000/svg" xmlns:xlink="http://www.w3.org/1999/xlink" x="0px" y="0px"
	 viewBox="0 0 48 48" enable-background="new 0 0 48 48" xml:space="preserve">
<g>
	<path fill="#FF7058" d="M35.8,13.8V0h-5.9v5.6c0,3.2-2.6,5.9-5.9,5.9s-5.9-2.6-5.9-5.9V0h-5.9v13.8c0,2.8-2.3,5.1-5.1,5.1V48h33.9
		V18.9C38.1,18.9,35.8,16.6,35.8,13.8z"/>
	<path fill="#F2F2F2" d="M35.8,13.8V0h-1.5v13.8c0,3.6,3,6.6,6.6,6.6h0v-1.5C38.1,18.9,35.8,16.6,35.8,13.8z"/>
	<path fill="#F2F2F2" d="M13.7,13.8V0h-1.5v13.8c0,2.8-2.3,5.1-5.1,5.1v1.5C10.7,20.4,13.7,17.4,13.7,13.8z"/>
	<path fill="#F2F2F2" d="M24,13c4.1,0,7.4-3.3,7.4-7.4V0h-1.5v5.6c0,3.2-2.6,5.9-5.9,5.9s-5.9-2.6-5.9-5.9V0h-1.5v5.6
		C16.6,9.7,19.9,13,24,13z"/>
	<rect x="7.1" y="44.2" fill="#F2F2F2" width="33.9" height="1.6"/>
	<rect x="7.1" y="40" fill="#F2F2F2" width="33.9" height="1.6"/>
</g>
</svg>
