<?xml version="1.0" encoding="utf-8"?>
<!-- Generator: Adobe Illustrator 18.0.0, SVG Export Plug-In . SVG Version: 6.00 Build 0)  -->
<!DOCTYPE svg PUBLIC "-//W3C//DTD SVG 1.1//EN" "http://www.w3.org/Graphics/SVG/1.1/DTD/svg11.dtd">
<svg version="1.1" id="Layer_1" xmlns="http://www.w3.org/2000/svg" xmlns:xlink="http://www.w3.org/1999/xlink" x="0px" y="0px"
	 viewBox="0 0 512 512" enable-background="new 0 0 512 512" xml:space="preserve">
<g>
	<path fill="#40596B" d="M488.4,2H23.6C11.7,2,2,11.7,2,23.6v441.9c0,12,9.7,21.6,21.6,21.6h464.7c12,0,21.6-9.7,21.6-21.6V23.6
		C510,11.7,500.3,2,488.4,2z"/>
	<rect x="58.4" y="58.4" fill="#334A5E" width="395.1" height="372.3"/>
	<rect x="35.9" y="487.2" fill="#334A5E" width="70" height="22.8"/>
	<rect x="406.1" y="487.2" fill="#334A5E" width="70" height="22.8"/>
	<rect x="430.3" y="110.2" fill="#F2F2F2" width="46.5" height="70"/>
	<rect x="430.3" y="308.9" fill="#F2F2F2" width="46.5" height="70"/>
	<path fill="#CDD6E0" d="M178.4,144.3c-55.3,0-100.3,45-100.3,100.3s45,100.3,100.3,100.3s100.3-45,100.3-100.3
		S233.7,144.3,178.4,144.3z M178.4,166.8c17.4,0,33.4,5.8,46.3,15.5L200,207c-6.4-3.7-13.7-5.8-21.6-5.8c-7.9,0-15.2,2.1-21.6,5.8
		l-24.7-24.7C145,172.6,161,166.8,178.4,166.8z M199.2,244.6c0,11.5-9.3,20.8-20.8,20.8c-11.5,0-20.8-9.3-20.8-20.8
		c0-11.5,9.3-20.8,20.8-20.8C189.8,223.8,199.2,233.1,199.2,244.6z M100.6,244.6c0-17.4,5.8-33.4,15.5-46.3l24.7,24.7
		c-3.7,6.4-5.8,13.7-5.8,21.6c0,7.9,2.1,15.2,5.8,21.6l-24.7,24.7C106.4,277.9,100.6,261.9,100.6,244.6z M178.4,322.3
		c-17.4,0-33.4-5.8-46.3-15.5l24.7-24.7c6.4,3.7,13.7,5.8,21.6,5.8c7.9,0,15.2-2.1,21.6-5.8l24.7,24.7
		C211.7,316.5,195.7,322.3,178.4,322.3z M240.7,290.9l-24.7-24.7c3.7-6.4,5.8-13.7,5.8-21.6c0-7.9-2.1-15.2-5.8-21.6l24.7-24.7
		c9.7,13,15.5,29,15.5,46.3C256.1,261.9,250.3,277.9,240.7,290.9z"/>
</g>
</svg>
