<?xml version="1.0" encoding="utf-8"?>
<!-- Generator: Adobe Illustrator 16.0.0, SVG Export Plug-In . SVG Version: 6.00 Build 0)  -->
<!DOCTYPE svg PUBLIC "-//W3C//DTD SVG 1.1//EN" "http://www.w3.org/Graphics/SVG/1.1/DTD/svg11.dtd">
<svg version="1.1" id="Layer_1" xmlns="http://www.w3.org/2000/svg" xmlns:xlink="http://www.w3.org/1999/xlink" x="0px" y="0px"
	 width="48px" height="48px" viewBox="0 0 48 48" enable-background="new 0 0 48 48" xml:space="preserve">
<g>
	<path fill="#F2F2F2" d="M41.865,0H6.135c-1.656,0-3,1.344-3,3v42c0,1.656,1.344,3,3,3h35.73c1.658,0,3-1.344,3-3V3
		C44.865,1.344,43.523,0,41.865,0"/>
	<rect x="7.135" y="4" fill="#84DBFF" width="33.732" height="9.324"/>
	<rect x="19.711" y="37.775" fill="#40596B" width="8.578" height="6.225"/>
	<rect x="32.289" y="17.324" fill="#40596B" width="8.576" height="6.225"/>
	<rect x="32.293" y="27.551" fill="#FF7058" width="8.57" height="16.451"/>
	<rect x="19.711" y="17.324" fill="#40596B" width="8.578" height="6.225"/>
	<rect x="7.135" y="37.775" fill="#40596B" width="8.576" height="6.225"/>
	<rect x="19.711" y="27.549" fill="#40596B" width="8.578" height="6.227"/>
	<rect x="7.135" y="27.549" fill="#40596B" width="8.576" height="6.225"/>
	<rect x="7.135" y="17.324" fill="#FFD15C" width="8.576" height="6.225"/>
	<polygon fill="#54C0EB" points="18.477,4 9.152,13.324 11.275,13.324 20.598,4 	"/>
	<polygon fill="#54C0EB" points="23.418,4 14.094,13.324 17.629,13.324 26.953,4 	"/>
	<polygon fill="#F2F2F2" points="38.969,35.031 38.969,36.531 37.328,36.531 37.328,38.162 35.828,38.162 35.828,36.531 
		34.189,36.531 34.189,35.031 35.828,35.031 35.828,33.391 37.328,33.391 37.328,35.031 	"/>
</g>
</svg>
