<?xml version="1.0" encoding="utf-8"?>
<!-- Generator: Adobe Illustrator 20.1.0, SVG Export Plug-In . SVG Version: 6.00 Build 0)  -->
<!DOCTYPE svg PUBLIC "-//W3C//DTD SVG 1.1//EN" "http://www.w3.org/Graphics/SVG/1.1/DTD/svg11.dtd">
<svg version="1.1" id="Layer_1" xmlns="http://www.w3.org/2000/svg" xmlns:xlink="http://www.w3.org/1999/xlink" x="0px" y="0px"
	 viewBox="0 0 49 49" enable-background="new 0 0 49 49" xml:space="preserve">
<g>
	<path fill="#40596B" d="M46.5,4.8h-44c-1.1,0-2,0.9-2,2v28.6c0,1.1,0.9,2,2,2h44c1.1,0,2-0.9,2-2V6.8C48.5,5.7,47.6,4.8,46.5,4.8z"
		/>
	<rect x="3.5" y="8.2" fill="#F2F2F2" width="42" height="26.6"/>
	<polygon fill="#CDD6E0" points="35.8,42.8 35.8,44.1 13.2,44.1 13.2,42.8 15.3,42.8 15.3,37.4 33.6,37.4 33.6,42.8 	"/>
	<rect x="15.3" y="37.4" fill="#ACB3BA" width="18.3" height="1.5"/>
	<g>
		<polygon fill="#FF7058" points="11.1,27.2 10.4,26.5 17.2,19.8 21.5,24.1 28.4,17.2 32,20.8 37.9,15 38.5,15.7 32,22.2 28.4,18.6 
			21.5,25.5 17.2,21.2 		"/>
	</g>
	<circle fill="#F1543F" cx="10.8" cy="26.8" r="1.4"/>
	<circle fill="#F1543F" cx="17.2" cy="20.4" r="1.4"/>
	<circle fill="#F1543F" cx="21.6" cy="24.8" r="1.4"/>
	<circle fill="#F1543F" cx="28.4" cy="17.9" r="1.4"/>
	<circle fill="#F1543F" cx="32" cy="21.5" r="1.4"/>
	<circle fill="#F1543F" cx="38.1" cy="15.3" r="1.4"/>
	<path fill="#334A5E" d="M46.3,25.4H35.8c-0.6,0-1,0.4-1,1v16.8c0,0.6,0.4,1,1,1h10.5c0.6,0,1-0.4,1-1V26.4
		C47.3,25.8,46.9,25.4,46.3,25.4z"/>
	
		<rect x="34.7" y="29.3" transform="matrix(-1.836970e-16 1 -1 -1.836970e-16 75.1295 -6.9985)" fill="#84DBFF" width="12.8" height="9.5"/>
	<path fill="#ACB3BA" d="M42.6,26.3h-3.1c-0.1,0-0.2,0.1-0.2,0.2c0,0.1,0.1,0.2,0.2,0.2h3.1c0.1,0,0.2-0.1,0.2-0.2
		C42.8,26.4,42.7,26.3,42.6,26.3z"/>
	<circle fill="#ACB3BA" cx="41" cy="42.3" r="0.9"/>
	<path fill="#40596B" d="M43.6,36.6l-1-1c0.4-0.4,0.6-0.9,0.6-1.5c0-0.1,0-0.2,0-0.3l1.4-0.2C44.8,34.7,44.5,35.8,43.6,36.6z"/>
	<path fill="#F2F2F2" d="M44.6,33.5l-1.4,0.2c-0.1-0.7-0.5-1.3-1.2-1.6l0.7-1.3C43.8,31.4,44.5,32.3,44.6,33.5z"/>
	<path fill="#84DBFF" d="M42.7,30.8l-0.7,1.3c-0.3-0.2-0.6-0.2-1-0.2c-0.4,0-0.7,0.1-1,0.2l-0.7-1.3C40.5,30.3,41.6,30.3,42.7,30.8z
		"/>
	<path fill="#FF7058" d="M43.6,36.6c-1.4,1.4-3.7,1.4-5.1,0c-1.4-1.4-1.4-3.7,0-5.1c0.3-0.3,0.6-0.5,0.9-0.7l0.7,1.3
		c-0.7,0.4-1.2,1.1-1.2,1.9c0,1.2,1,2.2,2.2,2.2c0.6,0,1.1-0.2,1.5-0.6L43.6,36.6z"/>
</g>
</svg>
