<?xml version="1.0" encoding="utf-8"?>
<!-- Generator: Adobe Illustrator 18.0.0, SVG Export Plug-In . SVG Version: 6.00 Build 0)  -->
<!DOCTYPE svg PUBLIC "-//W3C//DTD SVG 1.1//EN" "http://www.w3.org/Graphics/SVG/1.1/DTD/svg11.dtd">
<svg version="1.1" id="Layer_1" xmlns="http://www.w3.org/2000/svg" xmlns:xlink="http://www.w3.org/1999/xlink" x="0px" y="0px"
	 viewBox="0 0 48 48" enable-background="new 0 0 48 48" xml:space="preserve">
<g>
	<rect x="32" y="43.6" fill="#40596B" width="6.6" height="4.4"/>
	<path fill="#ACB3BA" d="M39,43.6h-7.5c-0.6,0-1-0.5-1-1v-1h9.6v1C40.1,43.2,39.6,43.6,39,43.6z"/>
	<path fill="#40596B" d="M48,4v33.6c-1.6,1.6-2.4,2.4-4,4H25.6c-0.6,0-1-0.4-1-1V1c0-0.6,0.4-1,1-1H44C45.6,1.6,46.4,2.4,48,4z"/>
	<path fill="#334A5E" d="M24.6,5.7v30.2h-6.4c-1.1,0-2-0.9-2-2V7.7c0-1.1,0.9-2,2-2H24.6z"/>
	<path fill="#CDD6E0" d="M16.2,31.1H2.4c-1.3,0-2.4-1.1-2.4-2.4l0,0c0-1.3,1.1-2.4,2.4-2.4h13.8V31.1z"/>
	<path fill="#CDD6E0" d="M16.2,15.4H2.4C1.1,15.4,0,14.3,0,13l0,0c0-1.3,1.1-2.4,2.4-2.4h13.8V15.4z"/>
	<rect x="13.6" y="26.4" fill="#ACB3BA" width="2.5" height="4.7"/>
	<rect x="13.6" y="10.7" fill="#ACB3BA" width="2.5" height="4.7"/>
</g>
</svg>
