<?xml version="1.0" encoding="utf-8"?>
<!-- Generator: Adobe Illustrator 18.0.0, SVG Export Plug-In . SVG Version: 6.00 Build 0)  -->
<!DOCTYPE svg PUBLIC "-//W3C//DTD SVG 1.1//EN" "http://www.w3.org/Graphics/SVG/1.1/DTD/svg11.dtd">
<svg version="1.1" id="Layer_1" xmlns="http://www.w3.org/2000/svg" xmlns:xlink="http://www.w3.org/1999/xlink" x="0px" y="0px"
	 viewBox="0 0 48 48" enable-background="new 0 0 48 48" xml:space="preserve">
<g>
	<path fill="#E8EAE9" d="M3,48h42c1.7,0,3-1.3,3-3V3c0-1.7-1.3-3-3-3H3C1.3,0,0,1.3,0,3v42C0,46.7,1.3,48,3,48z"/>
	<rect x="4" y="10.5" fill="#FFFFFF" width="40" height="33.5"/>
	<g>
		<g>
			<path fill="#F3705A" d="M34.9,28.4c0,6.7-5.4,12.1-12.1,12.1c-6.7,0-12.1-5.4-12.1-12.1c0-6.7,5.4-12.1,12.1-12.1v12.1H34.9z"/>
		</g>
		<g>
			<path fill="#55C0EB" d="M25.2,14v12.1h12.1C37.2,19.4,31.8,14,25.2,14z"/>
		</g>
	</g>
	<g>
		<g>
			<circle fill="#F3705A" cx="41.9" cy="5.2" r="2.1"/>
		</g>
		<g>
			<circle fill="#FFD15C" cx="35.4" cy="5.2" r="2.1"/>
		</g>
		<g>
			<circle fill="#415A6B" cx="29" cy="5.2" r="2.1"/>
		</g>
	</g>
</g>
</svg>
