<?xml version="1.0" encoding="utf-8"?>
<!-- Generator: Adobe Illustrator 18.0.0, SVG Export Plug-In . SVG Version: 6.00 Build 0)  -->
<!DOCTYPE svg PUBLIC "-//W3C//DTD SVG 1.1//EN" "http://www.w3.org/Graphics/SVG/1.1/DTD/svg11.dtd">
<svg version="1.1" id="Layer_1" xmlns="http://www.w3.org/2000/svg" xmlns:xlink="http://www.w3.org/1999/xlink" x="0px" y="0px"
	 viewBox="0 0 48 48" enable-background="new 0 0 48 48" xml:space="preserve">
<g>
	<g>
		<path fill="#E8EAE9" d="M42.5,6.2H5.5c-1.7,0-3,1.3-3,3V36c0,1.7,1.3,3,3,3h36.9c1.7,0,3-1.3,3-3V9.2C45.5,7.6,44.1,6.2,42.5,6.2z
			"/>
		<rect x="6" y="9.7" fill="#8AD7F8" width="35.9" height="24"/>
		<path fill="#415A6B" d="M0,36.8c0,2.7,2.2,4.9,4.9,4.9h38.1c2.7,0,4.9-2.2,4.9-4.9H0z"/>
		<circle fill="#66C6B9" cx="41.7" cy="39.3" r="1.1"/>
		<g>
			<ellipse fill="#415A6B" cx="21.5" cy="21.7" rx="4.3" ry="9.3"/>
			<ellipse fill="#415A6B" cx="25.3" cy="20.6" rx="5.8" ry="9.2"/>
			<path fill="#F3705A" d="M34.1,33.8v-2.2c0-1.5-1.1-2.8-2.6-3.1c-1.5-0.3-3.1-0.6-3.5-0.7c-0.1,2.1-4,3.8-4,3.8s-3.9-1.7-4-3.8
				c-0.4,0.1-2,0.4-3.5,0.7c-1.5,0.3-2.6,1.6-2.6,3.1v2.2H34.1z"/>
			<path fill="#F7B64C" d="M26.2,26.3v-1.5h-4.4v1.5c0,0.7-0.5,1.3-1.2,1.3c-0.2,0-0.4,0.1-0.6,0.1c0.2,2.1,4,3.8,4,3.8
				s3.9-1.7,4-3.8c-0.2,0-0.4-0.1-0.6-0.1C26.7,27.6,26.2,27,26.2,26.3z"/>
		</g>
		<circle fill="#FFD15C" cx="37.9" cy="39.3" r="1.1"/>
		<path fill="#FFD15C" d="M23.9,14.7c-1.2,1.7-2.9,3.2-4.9,4.1c0.1,4.3,2.4,7.8,5.1,7.8c2.8,0,5.2-3.6,5.2-8.1c0-0.4,0-0.8-0.1-1.1
			C27.1,16.9,25.3,16,23.9,14.7z"/>
	</g>
</g>
</svg>
