<?xml version="1.0" encoding="utf-8"?>
<!-- Generator: Adobe Illustrator 18.0.0, SVG Export Plug-In . SVG Version: 6.00 Build 0)  -->
<!DOCTYPE svg PUBLIC "-//W3C//DTD SVG 1.1//EN" "http://www.w3.org/Graphics/SVG/1.1/DTD/svg11.dtd">
<svg version="1.1" id="Layer_1" xmlns="http://www.w3.org/2000/svg" xmlns:xlink="http://www.w3.org/1999/xlink" x="0px" y="0px"
	 viewBox="0 0 48 48" enable-background="new 0 0 48 48" xml:space="preserve">
<g>
	<g>
		<polygon fill="#F05540" points="17.8,43.5 12.9,43.5 12.9,48 16.2,48 		"/>
		<g>
			<g>
				<path fill="#415A6B" d="M6.3,13.1l0.3,1.1l34.3-8.6l-0.3-1.1C39.9,1.7,37,0,34.2,0.7L10.1,6.7C7.3,7.4,5.6,10.3,6.3,13.1z"/>
			</g>
			<path fill="#415A6B" d="M18.6,4.6c-0.5-2,0.7-4,2.7-4.5s4,0.7,4.5,2.7L18.6,4.6z"/>
		</g>
		<g>
			<path fill="#F3705A" d="M37.4,42.3l4.2-25H6.4l4.2,25c0.2,1,1,1.7,2,1.7h22.8C36.4,43.9,37.2,43.2,37.4,42.3z"/>
		</g>
		<polygon fill="#F05540" points="41.3,19.4 41.6,17.3 6.4,17.3 6.7,19.4 		"/>
		<path fill="#F3705A" d="M4.1,15.2L4.1,15.2c0,1.2,0.9,2.1,2.1,2.1h35.7c1.2,0,2.1-0.9,2.1-2.1v0c0-1.2-0.9-2.1-2.1-2.1H6.2
			C5,13.1,4.1,14,4.1,15.2z"/>
		<circle fill="#415A6B" cx="37.1" cy="42.6" r="5.4"/>
		<circle fill="#E8EAE9" cx="37.1" cy="42.6" r="2.4"/>
		<g>
			<g>
				<path fill="#FFFFFF" d="M30.1,29.5l-0.6,2.2l-2.1-0.5l1.4,2.4h-3.5v-1.2l-2.7,2.9l2.7,2.8v-1.2H29c0.4,0,0.8-0.2,1-0.6l1.7-2.7
					c0.2-0.4,0.2-0.8,0-1.2L30.1,29.5z"/>
				<path fill="#FFFFFF" d="M20.7,35.2l1.5-1.6h-3.1l2.1-3.4l1.1,0.6L21.2,27l-3.8,0.9l1.1,0.6l-2.2,3.6c-0.2,0.4-0.2,0.9,0,1.2
					l1.7,2.7c0.2,0.4,0.6,0.6,1,0.6h3.2L20.7,35.2z"/>
				<path fill="#FFFFFF" d="M28.5,26.8l-1.8-3c-0.2-0.4-0.6-0.6-1-0.6h-3.3c-0.4,0-0.8,0.2-1,0.6l-1.2,2l2.1-0.5l0.6,2.2l1.2-1.9
					l1.7,2.9l-1.1,0.6l3.8,0.9l1.1-3.7L28.5,26.8z"/>
			</g>
		</g>
	</g>
</g>
</svg>
