<?xml version="1.0" encoding="utf-8"?>
<!-- Generator: Adobe Illustrator 18.0.0, SVG Export Plug-In . SVG Version: 6.00 Build 0)  -->
<!DOCTYPE svg PUBLIC "-//W3C//DTD SVG 1.1//EN" "http://www.w3.org/Graphics/SVG/1.1/DTD/svg11.dtd">
<svg version="1.1" id="Layer_1" xmlns="http://www.w3.org/2000/svg" xmlns:xlink="http://www.w3.org/1999/xlink" x="0px" y="0px"
	 viewBox="0 0 48 48" enable-background="new 0 0 48 48" xml:space="preserve">
<g>
	<path fill="#CDD6E0" d="M47.4,26L25,3.6C24.6,3.2,24.1,3,23.6,3L8,3C5.5,3,3.5,5,3.5,7.4l0,15.6c0,0.5,0.2,1,0.6,1.4l22.5,22.5
		c0.8,0.8,1.3,1.5,2.1,0.7l18.7-18.7C48.2,28.1,48.2,26.8,47.4,26z M10.2,12.4c-1.6,0-2.8-1.3-2.8-2.8c0-1.6,1.3-2.8,2.8-2.8
		C11.7,6.8,13,8,13,9.6C13,11.2,11.7,12.4,10.2,12.4z"/>
	<g>
		<circle fill="#FF7058" cx="26" cy="25.4" r="9.8"/>
		<polygon fill="#FFFFFF" points="32.3,29.3 28.5,25.4 32.3,21.6 29.8,19.1 26,22.9 22.1,19.1 19.6,21.6 23.5,25.4 19.6,29.3 
			22.1,31.8 26,27.9 29.8,31.8 		"/>
	</g>
	<path fill="#40596B" d="M10.2,6.8L3.3,0.6C2.5-0.2,1.2-0.1,0.5,0.7c-0.7,0.8-0.7,2.1,0.1,2.8l6.9,6.2c0.8,0.7,2.1,0.7,2.8-0.1
		C11.1,8.8,11,7.5,10.2,6.8z"/>
</g>
</svg>
