<?xml version="1.0" encoding="utf-8"?>
<!-- Generator: Adobe Illustrator 18.0.0, SVG Export Plug-In . SVG Version: 6.00 Build 0)  -->
<!DOCTYPE svg PUBLIC "-//W3C//DTD SVG 1.1//EN" "http://www.w3.org/Graphics/SVG/1.1/DTD/svg11.dtd">
<svg version="1.1" id="Layer_1" xmlns="http://www.w3.org/2000/svg" xmlns:xlink="http://www.w3.org/1999/xlink" x="0px" y="0px"
	 viewBox="0 0 48 48" enable-background="new 0 0 48 48" xml:space="preserve">
<g>
	<g>
		<g>
			<path fill="#E8EAE9" d="M48,47.9v-7.3c-4.9-1.1-11.1-1.8-17.7-1.8c-16.4,0-29.7,4-29.7,8.9c0,0,0,0.1,0,0.1H48z"/>
		</g>
		<rect x="21.4" y="13.6" fill="#E8EAE9" width="1.9" height="6.7"/>
		<rect x="38" y="13.6" fill="#E8EAE9" width="1.9" height="6.7"/>
		<g>
			<path fill="#F3F3F3" d="M46.6,12.1H7.7V15h38.9c0.8,0,1.4-0.6,1.4-1.4C48,12.8,47.4,12.1,46.6,12.1z"/>
		</g>
		<g>
			<path fill="#F3F3F3" d="M13.6,14.2c-0.1,0.8,1.2,1.1,1,2.2c0,0.2-0.1,0.4,0,0.6c0,0.2,0.2,0.4,0.4,0.4c0.3,0,0.5-0.3,0.5-0.6
				c0-0.3,0-0.6,0.1-0.8c0.2-0.5,0.8-0.6,1.3-0.6c1.3,0.1,2.5,1,3.7,0.6c0.6-0.2,1-0.6,1.6-0.8c0.8-0.3,1.7-0.3,2.5-0.1
				s1.7,0.5,2.5,0.5c1.3,0.1,1.2-1,2-0.7c1.1,0.4,0.7,2.4,0.5,3.6c-0.1,0.4-0.2,0.7-0.1,1.1c0.1,0.4,0.4,0.7,0.8,0.6
				c0-1,0.1-2.1,0.1-3.1c0-0.4,0.1-0.9,0.3-1.3c0.3-0.3,0.8-0.4,1.3-0.5c2.9-0.4,5.9-0.2,8.7,0.5c1,0.2,2,0.5,2.9,0
				c0.4-0.2,0.7-0.6,1.1-0.6c0.5,0,0.9,0.4,1.1,0.8c0.2,0.5,0.1,1,0.1,1.4c-0.1,1.3,0,2.7,0.2,4c0,0.3,0.2,0.7,0.5,0.7
				c0.2,0,0.4-0.2,0.5-0.4c0-0.2,0-0.5-0.1-0.7c-0.3-1-0.5-2-0.5-3.1c-0.1-0.9,0-1.9,0.6-2.7c0.2-0.2,0.4-0.5,0.6-0.7
				c0.2-0.3,0.3-0.6,0.2-0.9c-0.2-0.5-0.8-0.6-1.3-0.6c-7.2-0.2-14.4-0.3-21.5-0.2c-1.8,0-3.6,0-5.4,0S16,13.3,14.4,14"/>
		</g>
		<g>
			<rect x="6.9" y="12.7" fill="#344A5E" width="3.1" height="28.1"/>
		</g>
		<g>
			<path fill="#F3705A" d="M44.7,18.8v16.3c0,0.9-0.8,1.7-1.7,1.7h-4.3c-2.2,1.8-5.1,2.8-8.1,2.8s-5.9-1-8.1-2.8h-4.3
				c-0.9,0-1.7-0.8-1.7-1.7V18.8c0-0.9,0.8-1.7,1.7-1.7H43C43.9,17.1,44.7,17.8,44.7,18.8z"/>
		</g>
		<g>
			<path fill="#4EC0AA" d="M44.7,18.8v16.3c0,0.9-0.8,1.7-1.7,1.7h-4.3c-2.2,1.8-5.1,2.8-8.1,2.8c-3.1,0-5.9-1.1-8.1-2.8h-4.3
				c-0.9,0-1.7-0.8-1.7-1.7V18.8c0-0.9,0.8-1.7,1.7-1.7H43C43.9,17.1,44.7,17.8,44.7,18.8z"/>
		</g>
		<g>
			<path fill="#FFFFFF" d="M24.7,26.7l-1.1,2.2h-0.5L22,26.7v2.5h-0.9v-4h1.2l1,2.2l1-2.2h1.2v4h-0.9V26.7z"/>
			<path fill="#FFFFFF" d="M29.4,25.2V26h-2v0.8h1.8v0.8h-1.8v0.8h2v0.8h-2.9v-4H29.4z"/>
			<path fill="#FFFFFF" d="M33.4,26.6c0,0.6-0.2,1-0.7,1.2l1,1.4h-1.1l-0.9-1.3h-0.6v1.3h-0.9v-4h1.5c0.6,0,1,0.1,1.3,0.3
				C33.3,25.8,33.4,26.1,33.4,26.6z M32.4,27c0.1-0.1,0.2-0.3,0.2-0.5c0-0.2-0.1-0.4-0.2-0.4C32.2,26,32,26,31.8,26h-0.7v1.2h0.6
				C32,27.2,32.3,27.1,32.4,27z"/>
			<path fill="#FFFFFF" d="M37.5,26.6c0,0.6-0.2,1-0.7,1.2l1,1.4h-1.1l-0.9-1.3h-0.6v1.3h-0.9v-4h1.5c0.6,0,1,0.1,1.3,0.3
				C37.4,25.8,37.5,26.1,37.5,26.6z M36.5,27c0.1-0.1,0.2-0.3,0.2-0.5c0-0.2-0.1-0.4-0.2-0.4C36.3,26,36.1,26,35.9,26h-0.7v1.2h0.6
				C36.1,27.2,36.3,27.1,36.5,27z"/>
			<path fill="#FFFFFF" d="M40,29.2h-0.9v-1.6l-1.4-2.4h1l0.9,1.5l0.9-1.5h1L40,27.6V29.2z"/>
			<path fill="#FFFFFF" d="M21.1,33c0.3,0,0.5-0.1,0.7-0.3l0.4,0.4c-0.3,0.3-0.6,0.5-1,0.5c-0.4,0-0.7-0.1-1-0.4
				c-0.3-0.2-0.4-0.6-0.4-0.9c0-0.4,0.1-0.7,0.4-0.9c0.3-0.2,0.6-0.4,0.9-0.4c0.4,0,0.8,0.2,1,0.5l-0.3,0.4
				c-0.2-0.2-0.4-0.3-0.7-0.3c-0.2,0-0.4,0.1-0.5,0.2c-0.1,0.1-0.2,0.3-0.2,0.6c0,0.2,0.1,0.4,0.2,0.6S20.9,33,21.1,33z"/>
			<path fill="#FFFFFF" d="M24.1,31h0.6v2.5h-0.6v-1h-1v1h-0.6V31h0.6v1.1h1V31z"/>
			<path fill="#FFFFFF" d="M27.3,31.8c0,0.4-0.2,0.7-0.5,0.8l0.6,0.9h-0.7l-0.6-0.8h-0.4v0.8h-0.6V31h1c0.4,0,0.7,0.1,0.8,0.2
				C27.3,31.3,27.3,31.5,27.3,31.8z M26.7,32.1c0.1-0.1,0.1-0.2,0.1-0.3c0-0.1,0-0.2-0.1-0.3c-0.1-0.1-0.2-0.1-0.4-0.1h-0.4v0.7h0.4
				C26.5,32.2,26.6,32.2,26.7,32.1z"/>
			<path fill="#FFFFFF" d="M27.9,31h0.6v2.5h-0.6V31z"/>
			<path fill="#FFFFFF" d="M29.7,31.5c-0.1,0-0.1,0.1-0.1,0.2c0,0.1,0,0.1,0.1,0.2s0.2,0.1,0.5,0.2c0.2,0.1,0.4,0.1,0.6,0.3
				c0.1,0.1,0.2,0.3,0.2,0.5c0,0.2-0.1,0.4-0.3,0.5c-0.2,0.1-0.4,0.2-0.7,0.2c-0.4,0-0.8-0.1-1.1-0.4l0.3-0.4
				c0.3,0.2,0.5,0.4,0.7,0.4c0.1,0,0.2,0,0.2-0.1c0.1,0,0.1-0.1,0.1-0.2c0-0.1,0-0.1-0.1-0.2c-0.1,0-0.2-0.1-0.4-0.1
				c-0.3-0.1-0.5-0.2-0.6-0.3c-0.1-0.1-0.2-0.3-0.2-0.5c0-0.2,0.1-0.4,0.3-0.6c0.2-0.1,0.4-0.2,0.6-0.2c0.2,0,0.3,0,0.5,0.1
				c0.2,0.1,0.3,0.1,0.4,0.2l-0.3,0.4c-0.2-0.2-0.4-0.2-0.7-0.2C29.8,31.4,29.7,31.5,29.7,31.5z"/>
			<path fill="#FFFFFF" d="M32.4,31.5v2h-0.6v-2h-0.7V31h2v0.5H32.4z"/>
			<path fill="#FFFFFF" d="M35.8,31.9l-0.7,1.4h-0.3l-0.7-1.4v1.6h-0.6V31h0.8l0.6,1.4l0.6-1.4h0.8v2.5h-0.6V31.9z"/>
			<path fill="#FFFFFF" d="M38.8,33.5L38.5,33h-1.1l-0.2,0.5h-0.6l1.1-2.5h0.5l1.1,2.5H38.8z M38,31.8l-0.3,0.7h0.6L38,31.8z"/>
			<path fill="#FFFFFF" d="M40.2,31.5c-0.1,0-0.1,0.1-0.1,0.2c0,0.1,0,0.1,0.1,0.2s0.2,0.1,0.5,0.2c0.2,0.1,0.4,0.1,0.6,0.3
				c0.1,0.1,0.2,0.3,0.2,0.5c0,0.2-0.1,0.4-0.3,0.5c-0.2,0.1-0.4,0.2-0.7,0.2c-0.4,0-0.8-0.1-1.1-0.4l0.3-0.4
				c0.3,0.2,0.5,0.4,0.7,0.4c0.1,0,0.2,0,0.2-0.1c0.1,0,0.1-0.1,0.1-0.2c0-0.1,0-0.1-0.1-0.2c-0.1,0-0.2-0.1-0.4-0.1
				c-0.3-0.1-0.5-0.2-0.6-0.3c-0.1-0.1-0.2-0.3-0.2-0.5c0-0.2,0.1-0.4,0.3-0.6c0.2-0.1,0.4-0.2,0.6-0.2c0.2,0,0.3,0,0.5,0.1
				c0.2,0.1,0.3,0.1,0.4,0.2l-0.3,0.4c-0.2-0.2-0.4-0.2-0.7-0.2C40.3,31.4,40.3,31.5,40.2,31.5z"/>
		</g>
		<g>
			<g>
				<path fill="#F3F3F3" d="M41.9,47.9c-6.8-3.4-16.4-9-29.6-9c-4.3,0-8.4,0.4-11.9,1.2v7.8L41.9,47.9z"/>
			</g>
		</g>
		<g>
			<path fill="#F3F3F3" d="M44.7,18.7c0,0,1.5,11.7,0,11.7c-1.8,0,0.2-8.7-1.1-9.4c-0.9-0.3-0.1,1.8-0.5,2.6
				c-0.1,0.4-0.7-0.1-0.8-0.5c-0.1-0.4,0-0.8,0.1-1.1c0.1-1.5-1.4-2.9-2.8-2.7c-0.5,0.1-1,0.3-1.5,0.4c-0.5,0.1-0.3-0.8-0.8-0.6
				c-0.9,0.2-0.4,2-0.4,2.9c0,0.1,0,0.2-0.1,0.3c-0.1,0.1-0.3,0.1-0.4,0c-0.1-0.1-0.1-0.3-0.1-0.4c-0.1-1.1,0-2.9-1-3.2
				c-1.5-0.5-2.1,1.8-3.7,1.9c-1.6,0.1-3.2-0.2-4.7-0.7c-0.7-0.2-1.4-0.4-2.1-0.4c-0.7,0-1.5,0.3-1.9,0.9c-0.3,0.5-0.3,1.1-0.5,1.6
				c-0.2,0.5-0.6,1.1-1.1,1.1c-0.5,0-0.9-0.5-1.4-0.7c-0.9-0.4-2,0.3-2.4,1.2c-0.4,0.9,0.3,2.9-0.3,3c-0.2,0-0.4-0.1-0.5-0.3
				c-0.6-1.8,0-7.4,0-7.4c0-0.9,0.8-1.7,1.7-1.7H43C44,17,44.7,17.8,44.7,18.7z"/>
		</g>
		<g>
			<g>
				<g>
					<g>
						<g>
							<path fill="#415A6B" d="M11.1,1H5.9C5.8,3.5,4.5,5.8,2.3,7.3L0.6,8.5h15.7l-1.7-1.2C12.5,5.8,11.2,3.5,11.1,1z"/>
							<path fill="#415A6B" d="M16.3,8.8H0.6c-0.2,0-0.3-0.1-0.4-0.3c-0.1-0.2,0-0.3,0.1-0.4L2,7c2.1-1.4,3.3-3.6,3.4-6
								c0-0.2,0.2-0.4,0.4-0.4h5.2c0.2,0,0.4,0.2,0.4,0.4c0.1,2.4,1.3,4.6,3.4,6l1.7,1.2c0.1,0.1,0.2,0.3,0.1,0.4
								C16.7,8.7,16.5,8.8,16.3,8.8z M1.8,8.1h13.3l-0.7-0.5c-2.2-1.5-3.5-3.8-3.7-6.2H6.3C6,3.8,4.7,6.1,2.6,7.6L1.8,8.1z"/>
						</g>
					</g>
					<g>
						<polygon fill="#FFD15C" points="5.4,20.6 11.5,20.6 16.3,8.5 0.6,8.5 						"/>
					</g>
					<g>
						<g>
							<path fill="#415A6B" d="M11.5,21H5.4c-0.2,0-0.3-0.1-0.4-0.3L0.2,8.6c0-0.1,0-0.2,0.1-0.3c0.1-0.1,0.2-0.2,0.3-0.2h15.7
								c0.1,0,0.3,0.1,0.3,0.2c0.1,0.1,0.1,0.2,0.1,0.3l-4.8,12.1C11.8,20.9,11.7,21,11.5,21z M5.7,20.2h5.5l4.5-11.4H1.2L5.7,20.2z
								"/>
						</g>
						<g>
							<path fill="#415A6B" d="M9.7,21H7.2c-0.2,0-0.4-0.1-0.4-0.3l-2-12.1c0-0.1,0-0.2,0.1-0.3C5,8.1,5.1,8.1,5.2,8.1h6.5
								c0.1,0,0.2,0,0.3,0.1c0.1,0.1,0.1,0.2,0.1,0.3l-2,12.1C10.1,20.8,9.9,21,9.7,21z M7.6,20.2h1.8l1.9-11.4H5.7L7.6,20.2z"/>
						</g>
					</g>
				</g>
				<g>
					<g>
						<polygon fill="#415A6B" points="10.9,14.5 6,14.4 2.4,13.4 2.7,12.6 6.2,13.7 10.7,13.7 14.5,12.6 14.7,13.4 						"/>
					</g>
				</g>
			</g>
			<g>
				<path fill="#F3F3F3" d="M7.2,1.3C7.1,1.6,6.7,1.6,6.5,1.7C6.2,1.9,6.1,2.3,6,2.7c0,0.4,0,0.7-0.2,1C5.8,3.9,5.7,4.1,5.5,4.1
					c-0.2,0-0.4-0.2-0.3-0.3C4.7,4.5,4.6,5.4,4.7,6.2c0,0.3,0.1,0.7-0.1,0.9C4.3,7.3,4,7.1,3.7,6.9c-0.3-0.2-0.6-0.2-0.8,0
					C2.8,7.2,3,7.5,3.3,7.7C3.5,7.9,3.9,8,3.8,8.3C3.8,8.8,3.8,9.3,4,9.6c0.2,0.3,0.6,0.6,0.5,0.9c-0.1,0.3-0.4,0.4-0.7,0.3
					c-0.3-0.1-0.4-0.4-0.5-0.7C3.3,9.9,3.2,9.7,3.1,9.5C3,9.3,2.7,9.2,2.5,9.3C2.3,9.4,2.3,9.7,2.3,10c0,0.4,0,0.8,0,1.2
					c0,0.2,0,0.4-0.1,0.6C2.2,12,2,12.2,1.8,12.1c-0.2-0.1-0.3-0.2-0.3-0.4C1,10.8,0.6,9.9,0.2,9C0.1,8.7-0.1,8.4,0,8.1
					c0.1-0.3,0.4-0.4,0.7-0.6c2.5-1.2,4.4-3.9,4.7-6.9c0-0.1,0-0.3,0.1-0.4c0.1-0.2,0.4-0.3,0.6-0.2c0.2,0,0.4,0.2,0.6,0.3
					C6.9,0.5,7,0.6,7.2,0.7C7.3,0.9,7.3,1.1,7.2,1.3z"/>
			</g>
			<g>
				<path fill="#F3F3F3" d="M16.7,9.3c-0.6,1.8-0.6,4.8-2.5,5.1c-0.3,0.1,0.2-0.7-0.1-1c-0.2-0.1-0.4,0-0.5,0.2
					c-0.1,0.2-0.1,0.5-0.2,0.8c-0.1,0.2-0.4,0.5-0.6,0.3c-0.2-0.1-0.2-0.4-0.2-0.6c0.1-0.8,0.3-1.7,0.6-2.5c0.1-0.3,0.2-0.7,0.2-1
					c-0.1-0.3-0.5-0.6-0.8-0.4c-0.1,0.1-0.2,0.2-0.3,0.3c-0.1,0.1-0.2,0.2-0.4,0.1c-0.1,0-0.1-0.1-0.2-0.3c-0.4-1.2,0.2-2.7,1.4-3.2
					c0.3-0.1,0.7-0.2,0.8-0.5c0.1-0.3-0.1-0.7-0.5-0.9c-0.3-0.1-0.7-0.1-1.1-0.1s-0.8-0.1-1-0.4c-0.2-0.2-0.2-0.5-0.1-0.8
					c0-0.3,0.1-0.6,0-0.9C11.2,3.2,10.9,3,10.6,3c-0.3,0.1-0.5,0.5-0.5,0.9C10,4.2,9.8,4.7,9.4,4.6C9.2,4.6,9.1,4.4,9,4.2
					C8.9,4,9,3.8,9,3.6c0.1-0.4,0.1-0.9,0.2-1.3c0-0.3,0.1-0.5,0-0.8C9.2,1.1,8.9,0.8,8.5,0.7C8.2,0.6,7.6,1,7.4,0.7
					C7.2,0.2,8.3,0.1,8.8,0.1c0.7,0.1,1.4,0.2,2.1,0.3c0.3,0,0.6,0.1,0.8,0.4c0.1,0.2,0.1,0.4,0,0.6c-0.1,1.3,0.6,2.6,1.5,3.6
					c0.9,1,2,1.7,3,2.6c0.2,0.2,0.4,0.4,0.5,0.6C16.9,8.6,16.8,9,16.7,9.3z"/>
			</g>
		</g>
	</g>
</g>
</svg>
