<?xml version="1.0" encoding="utf-8"?>
<!-- Generator: Adobe Illustrator 18.0.0, SVG Export Plug-In . SVG Version: 6.00 Build 0)  -->
<!DOCTYPE svg PUBLIC "-//W3C//DTD SVG 1.1//EN" "http://www.w3.org/Graphics/SVG/1.1/DTD/svg11.dtd">
<svg version="1.1" id="Layer_1" xmlns="http://www.w3.org/2000/svg" xmlns:xlink="http://www.w3.org/1999/xlink" x="0px" y="0px"
	 viewBox="0 0 48 48" enable-background="new 0 0 48 48" xml:space="preserve">
<g>
	<g>
		<g>
			<g>
				<g>
					<g>
						<path fill="#F3705A" d="M46.9,41.5C38,32.9,29,24.5,19.8,16.1l-3.7,3.7c8.3,9.2,16.8,18.2,25.4,27c1.5,1.5,3.9,1.5,5.3,0l0,0
							C48.4,45.4,48.4,43,46.9,41.5z"/>
					</g>
					<path fill="#FFD15C" d="M14.9,3.4c-3.5,6.2-5.4,8-11.5,11.5l11.3,11.3c3.5-6.2,5.4-8,11.5-11.5L14.9,3.4z"/>
					<path fill="#F7B64C" d="M24.8,15.5c0.4-0.3,0.9-0.5,1.4-0.8L14.9,3.4c-0.3,0.5-0.5,0.9-0.8,1.4L24.8,15.5z"/>
					<path fill="#F7B64C" d="M4.7,14.1c-0.4,0.3-0.9,0.5-1.4,0.8l11.3,11.3c0.3-0.5,0.5-0.9,0.8-1.4L4.7,14.1z"/>
					<path fill="#FFD15C" d="M26.1,14.7L14.8,3.4c-0.8-0.8-0.8-2.1,0-2.8c0.8-0.8,2.1-0.8,2.8,0L29,11.9c0.8,0.8,0.8,2.1,0,2.8
						C28.2,15.5,26.9,15.5,26.1,14.7z"/>
					<path fill="#FFD15C" d="M11.9,29L0.6,17.7c-0.8-0.8-0.8-2.1,0-2.8c0.8-0.8,2.1-0.8,2.8,0l11.3,11.3c0.8,0.8,0.8,2.1,0,2.8
						C13.9,29.8,12.7,29.8,11.9,29z"/>
				</g>
			</g>
		</g>
		<g>
			<g>
				<path fill="#344A5E" d="M19.4,43.5c-0.3-1.3-1.5-2.3-2.9-2.3H5.7c-1.4,0-2.6,1-2.9,2.3H19.4z"/>
			</g>
			<path fill="#415A6B" d="M20.7,43.5H1.5C0.7,43.5,0,44.1,0,45v3h22.2v-3C22.2,44.1,21.5,43.5,20.7,43.5z"/>
		</g>
	</g>
</g>
</svg>
