<?xml version="1.0" encoding="utf-8"?>
<!-- Generator: Adobe Illustrator 18.0.0, SVG Export Plug-In . SVG Version: 6.00 Build 0)  -->
<!DOCTYPE svg PUBLIC "-//W3C//DTD SVG 1.1//EN" "http://www.w3.org/Graphics/SVG/1.1/DTD/svg11.dtd">
<svg version="1.1" id="Layer_1" xmlns="http://www.w3.org/2000/svg" xmlns:xlink="http://www.w3.org/1999/xlink" x="0px" y="0px"
	 viewBox="0 0 48 48" enable-background="new 0 0 48 48" xml:space="preserve">
<g>
	<g>
		
			<ellipse transform="matrix(0.9728 -0.2317 0.2317 0.9728 -3.2138 4.8904)" fill="#FFD15C" cx="19.2" cy="16.1" rx="0.8" ry="1.4"/>
		
			<ellipse transform="matrix(-0.9728 -0.2317 0.2317 -0.9728 53.0466 38.4887)" fill="#FFD15C" cx="28.8" cy="16.1" rx="0.8" ry="1.4"/>
	</g>
	<path fill="#FF7058" d="M34.5,22.4L29.2,22L24,20.8L18.8,22l-5.3,0.4L12.9,26c0,0-0.2,2.8,1.3,4.5c0,0,1.6,4.4,2.7,5.1
		c0,0,0.6,1.5,0.4,3.6H24h6.6c-0.2-2.1,0.4-3.6,0.4-3.6c1.1-0.7,2.7-5.1,2.7-5.1c1.5-1.7,1.3-4.5,1.3-4.5L34.5,22.4z"/>
	<path fill="#FFD15C" d="M19.9,21.5c-1.3,0.2-1.8-0.7-1.8-0.7c-2.4-2.4-5.8-0.7-5.8-0.7c-3-3-6.2-0.3-6.2-0.3
		C6.5,19.5,7,17.5,7,17.5c0.7-2.4,2.1-4.5,2.1-4.5c0.4-1,1.5-0.7,1.5-0.7c0.5,0.5,1.1,0.6,1.1,0.6c1.1,0.5,1.3,0.2,1.3,0.2
		c0.1,0.7,0.5,0.5,0.5,0.5c0.9-0.3,0.4-1,0.4-1c-0.3-0.4,0.3-0.5,0.3-0.5c0.5-0.1,0.4-0.4,0.4-0.4l-0.7-2.7c-1-0.4-3.7,0.3-3.7,0.3
		C8,9.4,6.8,11.8,6.8,11.8s-7.2,6.9-6.8,9.4c0.4,2.5,3.9,3.3,3.9,3.3c1.4,1,3,1.5,3,1.5c3.1,0.7,6-0.1,6-0.1
		c-0.3,1.9,0.7,3.7,1.3,4.5C15.6,29.9,20,27.2,19.9,21.5z"/>
	<path fill="#F8B64C" d="M12.9,21.1c0,0,0.1,0,0.3,0.2c0.2,0.2,0.4,0.4,0.6,0.8c0.2,0.4,0.3,0.9,0.4,1.4c0.1,0.5,0.1,1.1,0.2,1.6
		c0.2,1,0.6,2,1.1,2.6c0.2,0.3,0.5,0.5,0.7,0.7c0.2,0.1,0.3,0.2,0.3,0.2s-0.1,0-0.4-0.1c-0.2-0.1-0.6-0.3-0.9-0.5
		c-0.3-0.3-0.6-0.7-0.9-1.1c-0.3-0.5-0.4-1-0.5-1.6c-0.1-0.6-0.1-1.1-0.1-1.6c0-0.5-0.1-0.9-0.2-1.3c-0.1-0.4-0.2-0.7-0.4-0.9
		C13,21.2,12.9,21.1,12.9,21.1z"/>
	<path fill="#F8B64C" d="M6.1,22.8c0,0,0.4,0.1,1,0.3c0.6,0.2,1.4,0.4,2.2,0.5c0.2,0,0.4,0,0.6,0c0.2,0,0.4,0,0.6,0
		c0.2,0,0.4,0,0.5-0.1c0.2,0,0.3,0,0.5-0.1c0.1-0.1,0.3-0.1,0.4-0.1c0.1,0,0.2-0.1,0.3-0.1c0.2-0.1,0.3-0.1,0.3-0.1
		s-0.1,0.1-0.2,0.2c-0.1,0.1-0.4,0.3-0.7,0.4c-0.1,0.1-0.3,0.1-0.5,0.2c-0.2,0.1-0.4,0.1-0.6,0.1c-0.4,0.1-0.9,0.1-1.3,0
		C8.8,24.1,8.4,24,8,23.9c-0.4-0.1-0.7-0.3-1-0.5C6.4,23.1,6.1,22.8,6.1,22.8z"/>
	<path fill="#F8B64C" d="M4.9,20c0,0,0-0.1-0.1-0.3c-0.1-0.2-0.1-0.4-0.2-0.7c0-0.3-0.1-0.7,0-1.1c0-0.4,0.2-0.8,0.3-1.2
		c0.2-0.4,0.4-0.8,0.6-1.1c0.2-0.3,0.5-0.6,0.7-0.8c0.5-0.4,0.9-0.5,0.9-0.5s-0.1,0.1-0.2,0.2c-0.1,0.1-0.3,0.3-0.5,0.6
		c-0.4,0.5-0.8,1.1-1.1,1.8c-0.1,0.4-0.3,0.7-0.4,1.1c-0.1,0.4-0.1,0.7-0.2,1c0,0.3,0,0.5,0,0.7C4.9,19.9,4.9,20,4.9,20z"/>
	<path opacity="0.1" fill="#231F20" d="M19.9,21.5c-1.3,0.2-1.8-0.7-1.8-0.7c-2.4-2.4-5.8-0.7-5.8-0.7c-3-3-6.2-0.3-6.2-0.3
		C6.5,19.5,7,17.5,7,17.5c0.7-2.4,2.1-4.5,2.1-4.5c0-0.1,0.1-0.2,0.2-0.3c-0.3,0.1-0.5,0.3-0.7,0.7c0,0-1.4,2.1-2.1,4.5
		c0,0-0.5,1.9-0.8,2.3c0,0,3.2-2.8,6.2,0.3c0,0,3.4-1.7,5.8,0.7c0,0,0.5,0.9,1.8,0.7c0.1,4-2.1,6.5-3.9,7.9
		C17.3,28.5,20,25.9,19.9,21.5z"/>
	<path fill="#FFD15C" d="M28.1,21.5c1.3,0.2,1.8-0.7,1.8-0.7c2.4-2.4,5.8-0.7,5.8-0.7c3-3,6.2-0.3,6.2-0.3c-0.4-0.4-0.8-2.3-0.8-2.3
		c-0.7-2.4-2.1-4.5-2.1-4.5c-0.4-1-1.5-0.7-1.5-0.7c-0.5,0.5-1.1,0.6-1.1,0.6c-1.1,0.5-1.3,0.2-1.3,0.2c-0.1,0.7-0.5,0.5-0.5,0.5
		c-0.9-0.3-0.4-1-0.4-1c0.3-0.4-0.3-0.5-0.3-0.5c-0.5-0.1-0.4-0.4-0.4-0.4l0.7-2.7c1-0.4,3.7,0.3,3.7,0.3c2.2,0.1,3.4,2.5,3.4,2.5
		s7.2,6.9,6.8,9.4c-0.4,2.5-3.9,3.3-3.9,3.3c-1.4,1-3,1.5-3,1.5c-3.1,0.7-6-0.1-6-0.1c0.3,1.9-0.7,3.7-1.3,4.5
		C32.4,29.9,28,27.2,28.1,21.5z"/>
	<path fill="#F8B64C" d="M35.1,21.1c0,0-0.1,0-0.3,0.2c-0.2,0.2-0.4,0.4-0.6,0.8c-0.2,0.4-0.3,0.9-0.4,1.4c-0.1,0.5-0.1,1.1-0.2,1.6
		c-0.2,1-0.6,2-1.1,2.6c-0.2,0.3-0.5,0.5-0.7,0.7c-0.2,0.1-0.3,0.2-0.3,0.2s0.1,0,0.4-0.1c0.2-0.1,0.6-0.3,0.9-0.5
		c0.3-0.3,0.6-0.7,0.9-1.1c0.3-0.5,0.4-1,0.5-1.6c0.1-0.6,0.1-1.1,0.1-1.6c0-0.5,0.1-0.9,0.2-1.3c0.1-0.4,0.2-0.7,0.4-0.9
		C35,21.2,35.1,21.1,35.1,21.1z"/>
	<path fill="#F8B64C" d="M41.9,22.8c0,0-0.4,0.1-1,0.3c-0.6,0.2-1.4,0.4-2.2,0.5c-0.2,0-0.4,0-0.6,0c-0.2,0-0.4,0-0.6,0
		c-0.2,0-0.4,0-0.5-0.1c-0.2,0-0.3,0-0.5-0.1c-0.1-0.1-0.3-0.1-0.4-0.1c-0.1,0-0.2-0.1-0.3-0.1c-0.2-0.1-0.3-0.1-0.3-0.1
		s0.1,0.1,0.2,0.2c0.1,0.1,0.4,0.3,0.7,0.4c0.1,0.1,0.3,0.1,0.5,0.2c0.2,0.1,0.4,0.1,0.6,0.1c0.4,0.1,0.9,0.1,1.3,0
		c0.4-0.1,0.9-0.2,1.3-0.3c0.4-0.1,0.7-0.3,1-0.5C41.6,23.1,41.9,22.8,41.9,22.8z"/>
	<path fill="#F8B64C" d="M43.1,20c0,0,0-0.1,0.1-0.3c0.1-0.2,0.1-0.4,0.2-0.7c0-0.3,0.1-0.7,0-1.1c0-0.4-0.2-0.8-0.3-1.2
		c-0.2-0.4-0.4-0.8-0.6-1.1c-0.2-0.3-0.5-0.6-0.7-0.8c-0.5-0.4-0.9-0.5-0.9-0.5s0.1,0.1,0.2,0.2c0.1,0.1,0.3,0.3,0.5,0.6
		c0.4,0.5,0.8,1.1,1.1,1.8c0.1,0.4,0.3,0.7,0.4,1.1c0.1,0.4,0.1,0.7,0.2,1c0,0.3,0,0.5,0,0.7C43.1,19.9,43.1,20,43.1,20z"/>
	<path opacity="0.1" fill="#231F20" d="M28.1,21.5c1.3,0.2,1.8-0.7,1.8-0.7c2.4-2.4,5.8-0.7,5.8-0.7c3-3,6.2-0.3,6.2-0.3
		c-0.4-0.4-0.8-2.3-0.8-2.3c-0.7-2.4-2.1-4.5-2.1-4.5c0-0.1-0.1-0.2-0.2-0.3c0.3,0.1,0.5,0.3,0.7,0.7c0,0,1.4,2.1,2.1,4.5
		c0,0,0.5,1.9,0.8,2.3c0,0-3.2-2.8-6.2,0.3c0,0-3.4-1.7-5.8,0.7c0,0-0.5,0.9-1.8,0.7c-0.1,4,2.1,6.5,3.9,7.9
		C30.7,28.5,28,25.9,28.1,21.5z"/>
	<path fill="#F8B64C" d="M21,20.1c-0.7,0.6-1.2,1.2-1.6,1.9c3.3,2,5.7,2,9,0c-0.3-0.7-0.9-1.3-1.6-1.9C25,20.4,23,20.4,21,20.1z"/>
	<path fill="#F2F2F2" d="M28.1,21.9c-2.4,1.8-5.8,1.8-8.1,0c-0.1-0.1-0.2-0.2-0.2-0.3l0,0l0,0c-0.2,0-0.3,0-0.5,0h0V22l0.2,0.2
		c1.3,1.1,2.9,1.6,4.6,1.6c1.7,0,3.3-0.6,4.6-1.6l0.2-0.2v-0.5l0,0c-0.2,0-0.3,0-0.5,0l0,0v0C28.2,21.7,28.2,21.8,28.1,21.9z"/>
	<path fill="#FFD15C" d="M28.9,14.9c0,2.7-2.2,7.4-4.9,7.4s-4.9-4.7-4.9-7.4s2.2-4.9,4.9-4.9S28.9,12.1,28.9,14.9z"/>
	<path fill="#40596B" d="M25.3,9c-4.2-1-4.4,1.3-4.4,1.3s-3.7,1-1.4,7.1c0,0,0-1.7,0.4-2.2c0,0,0.6-1.1,0.3-2c0-0.1,0-0.3,0.1-0.5
		c0.4-0.8,1.2-1.3,2.1-1.4c0,0,0,0,0.1,0c0.5-0.1,1.3,0,1.7,0.8c0.4,0.7,1.1,1.2,1.7,1.5c1.1,0.5,2,1.4,2.4,2.6
		c0.1,0.5,0.2,0.7,0.3,1.1c0.6-0.4,1.3-3.1,0.7-4.5C28.6,10.9,27.2,9.4,25.3,9z"/>
</g>
</svg>
