<?xml version="1.0" encoding="utf-8"?>
<!-- Generator: Adobe Illustrator 18.0.0, SVG Export Plug-In . SVG Version: 6.00 Build 0)  -->
<!DOCTYPE svg PUBLIC "-//W3C//DTD SVG 1.1//EN" "http://www.w3.org/Graphics/SVG/1.1/DTD/svg11.dtd">
<svg version="1.1" id="Layer_1" xmlns="http://www.w3.org/2000/svg" xmlns:xlink="http://www.w3.org/1999/xlink" x="0px" y="0px"
	 viewBox="0 0 48 48" enable-background="new 0 0 48 48" xml:space="preserve">
<g>
	<polygon fill="#F2F2F2" points="0,33 11.6,23.4 19.7,33.1 1.8,47.9 	"/>
	<polygon fill="#E4EAEF" points="15.1,36.9 19.7,33.1 11.6,23.4 1.9,31.4 	"/>
	<path fill="#FF7058" d="M45.2,13.9L18,36.4L1.7,29.6L35.2,1.9c3.3-2.7,8.2-2.3,11,1l0,0C49,6.2,48.5,11.1,45.2,13.9z"/>
	<path fill="#40596B" d="M34.5,10.4L14.6,26.9c-0.7,0.6-0.8,1.6-0.2,2.3l0,0c0.6,0.7,1.6,0.8,2.3,0.2L36.7,13
		c0.7-0.6,0.8-1.6,0.2-2.3v0C36.3,9.9,35.2,9.8,34.5,10.4z"/>
	<path fill="#FFD15C" d="M28.9,21.3l-6,4.9c-1.3,1.1-3.3,0.9-4.4-0.4l-0.1-0.1c-1.1-1.3-0.9-3.3,0.4-4.4l6-4.9
		c1.3-1.1,3.3-0.9,4.4,0.4l0.1,0.1C30.4,18.3,30.2,20.3,28.9,21.3z"/>
	<g>
		
			<rect x="20.1" y="22.2" transform="matrix(0.7698 -0.6383 0.6383 0.7698 -10.7248 18.6548)" fill="#F8B64C" width="0.9" height="4.1"/>
		
			<rect x="22.3" y="20.3" transform="matrix(0.7698 -0.6383 0.6383 0.7698 -9.0045 19.6683)" fill="#F8B64C" width="0.9" height="4.1"/>
		
			<rect x="24.6" y="18.4" transform="matrix(0.7698 -0.6383 0.6383 0.7698 -7.2842 20.6819)" fill="#F8B64C" width="0.9" height="4.1"/>
		
			<rect x="26.9" y="16.5" transform="matrix(0.7698 -0.6383 0.6383 0.7698 -5.5639 21.6954)" fill="#F8B64C" width="0.9" height="4.1"/>
	</g>
	<circle fill="#FFFFFF" cx="40.8" cy="7.4" r="2.2"/>
</g>
</svg>
