<?xml version="1.0" encoding="utf-8"?>
<!-- Generator: Adobe Illustrator 18.0.0, SVG Export Plug-In . SVG Version: 6.00 Build 0)  -->
<!DOCTYPE svg PUBLIC "-//W3C//DTD SVG 1.1//EN" "http://www.w3.org/Graphics/SVG/1.1/DTD/svg11.dtd">
<svg version="1.1" id="Layer_1" xmlns="http://www.w3.org/2000/svg" xmlns:xlink="http://www.w3.org/1999/xlink" x="0px" y="0px"
	 viewBox="0 0 48 48" enable-background="new 0 0 48 48" xml:space="preserve">
<g>
	<g>
		<g>
			<g>
				<g>
					<path fill="#FFD15C" d="M26.8,46.1L36,24.3c0-7.1-24-7.1-24,0l9.2,21.8c0.5,1.1,1.6,1.9,2.8,1.9l0,0
						C25.2,48,26.3,47.3,26.8,46.1z"/>
				</g>
				<path fill="#F7B64C" d="M26.8,46.1l0.1-0.2l-0.3,0.3L24.4,44l2.2-2.2l1.4,1.4l0.3-0.6l-1.2-1.2l2.2-2.2l0.3,0.3l0.3-0.6
					l-0.2-0.2l0.4-0.4l0.6-1.5l-1.5,1.5l-2.2-2.2l2.2-2.2l1.9,1.9l0.3-0.6l-1.7-1.7l2.2-2.2l0.8,0.8l0.3-0.6l-0.7-0.7l1.6-1.6
					l0.6-1.5L25.8,19c-0.3,0-0.6,0-0.9,0l1.4,1.4L24,22.5l-2.2-2.2l1.4-1.4c-0.3,0-0.6,0-0.9,0l-8.8,8.8l0.6,1.5l1.6,1.6L15,31.5
					l0.3,0.6l0.8-0.8l2.2,2.2l-1.7,1.7l0.3,0.6l1.9-1.9l2.2,2.2l-2.2,2.2l-1.5-1.5l0.6,1.5l0.4,0.4l-0.2,0.2l0.3,0.6l0.3-0.3
					l2.2,2.2l-1.2,1.2l0.3,0.6l1.4-1.4l2.2,2.2l-2.2,2.2l-0.3-0.3l0.1,0.2c0.3,0.8,1,1.4,1.8,1.7l-1.2-1.2l2.2-2.2l2.2,2.2L25,47.8
					C25.8,47.6,26.5,46.9,26.8,46.1z M28.8,38.7l-2.2,2.2l-2.2-2.2l2.2-2.2L28.8,38.7z M24,28.6l2.2,2.2L24,33l-2.2-2.2L24,28.6z
					 M21.4,30.4l-2.2-2.2l2.2-2.2l2.2,2.2L21.4,30.4z M24.4,28.2l2.2-2.2l2.2,2.2l-2.2,2.2L24.4,28.2z M26.2,36.1L24,38.3l-2.2-2.2
					l2.2-2.2L26.2,36.1z M26.6,35.7l-2.2-2.2l2.2-2.2l2.2,2.2L26.6,35.7z M29.3,33l-2.2-2.2l2.2-2.2l2.2,2.2L29.3,33z M34.1,28.2
					l-2.2,2.2l-2.2-2.2l2.2-2.2L34.1,28.2z M31.5,25.6l-2.2,2.2l-2.2-2.2l2.2-2.2L31.5,25.6z M26.6,20.7l2.2,2.2l-2.2,2.2l-2.2-2.2
					L26.6,20.7z M26.2,25.6L24,27.8l-2.2-2.2l2.2-2.2L26.2,25.6z M21.4,20.7l2.2,2.2l-2.2,2.2l-2.2-2.2L21.4,20.7z M18.7,23.4
					l2.2,2.2l-2.2,2.2l-2.2-2.2L18.7,23.4z M13.9,28.2l2.2-2.2l2.2,2.2l-2.2,2.2L13.9,28.2z M16.5,30.8l2.2-2.2l2.2,2.2L18.7,33
					L16.5,30.8z M19.2,33.5l2.2-2.2l2.2,2.2l-2.2,2.2L19.2,33.5z M19.2,38.7l2.2-2.2l2.2,2.2l-2.2,2.2L19.2,38.7z M21.8,41.4
					l2.2-2.2l2.2,2.2L24,43.6L21.8,41.4z"/>
				<g>
					<circle fill="#8AD7F8" cx="24" cy="8.3" r="8.3"/>
				</g>
				<g>
					<g>
						<circle fill="#F3F3F3" cx="30.9" cy="18.9" r="8.3"/>
					</g>
					<g>
						<circle fill="#415A6B" cx="17.1" cy="18.9" r="8.3"/>
					</g>
				</g>
			</g>
		</g>
		<g>
			<g>
				<path fill="#F3705A" d="M30.9,11.4c0,5.2-6.9,8.1-6.9,8.1s-6.9-2.9-6.9-8.1c0-2,1.6-3.5,3.5-3.5c1.5,0,2.9,1,3.3,2.4
					c0.5-1.4,1.8-2.4,3.3-2.4C29.3,7.8,30.9,9.4,30.9,11.4z"/>
			</g>
			<g>
				
					<ellipse transform="matrix(0.836 -0.5487 0.5487 0.836 -1.1375 17.4352)" fill="#FFFFFF" cx="28.6" cy="10.6" rx="0.8" ry="1.4"/>
			</g>
		</g>
	</g>
</g>
</svg>
