<?xml version="1.0" encoding="utf-8"?>
<!-- Generator: Adobe Illustrator 18.0.0, SVG Export Plug-In . SVG Version: 6.00 Build 0)  -->
<!DOCTYPE svg PUBLIC "-//W3C//DTD SVG 1.1//EN" "http://www.w3.org/Graphics/SVG/1.1/DTD/svg11.dtd">
<svg version="1.1" id="Layer_1" xmlns="http://www.w3.org/2000/svg" xmlns:xlink="http://www.w3.org/1999/xlink" x="0px" y="0px"
	 viewBox="0 0 48 48" enable-background="new 0 0 48 48" xml:space="preserve">
<g>
	<rect x="4.2" y="23.9" fill="#F2F2F2" width="39.6" height="4.3"/>
	<path fill="#40596B" d="M45.9,21.4c-1.2,0-2.1,0.9-2.1,2.1v4.8H4.2V11.6c0-1.2-0.9-2.1-2.1-2.1C0.9,9.5,0,10.5,0,11.6v26.9h4.2
		v-5.9h39.6v5.9H48v-15C48,22.3,47.1,21.4,45.9,21.4z"/>
	<rect x="13.5" y="23.9" fill="#84DBFF" width="29" height="11.5"/>
	<rect x="17" y="23.9" fill="#F2F2F2" width="3.3" height="11.5"/>
	<path fill="#FF7058" d="M6.3,19.9H4.2v4h6.1C10.3,21.7,8.5,19.9,6.3,19.9z"/>
</g>
</svg>
