<?xml version="1.0" encoding="utf-8"?>
<!-- Generator: Adobe Illustrator 16.0.0, SVG Export Plug-In . SVG Version: 6.00 Build 0)  -->
<!DOCTYPE svg PUBLIC "-//W3C//DTD SVG 1.1//EN" "http://www.w3.org/Graphics/SVG/1.1/DTD/svg11.dtd">
<svg version="1.1" id="Layer_1" xmlns="http://www.w3.org/2000/svg" xmlns:xlink="http://www.w3.org/1999/xlink" x="0px" y="0px"
	 width="48px" height="48px" viewBox="0 0 48 48" enable-background="new 0 0 48 48" xml:space="preserve">
<g>
	<path fill="#F2F2F2" d="M0,14.485v29.51c0,2.21,1.789,4,4,4h40c2.209,0,4-1.79,4-4v-29.51H0z"/>
	<polygon fill="#40596B" points="11.445,22.618 18.508,22.618 18.508,40.063 14.766,40.063 14.766,25.938 11.445,25.938 	"/>
	<path fill="#40596B" d="M29.34,40.263c-2.412,0-4.217-0.819-5.416-2.458c-1.197-1.639-1.797-3.827-1.797-6.564
		c0-2.735,0.6-4.926,1.797-6.564c1.199-1.637,3.004-2.458,5.416-2.458s4.219,0.821,5.416,2.458c1.199,1.639,1.797,3.829,1.797,6.564
		c0,2.737-0.598,4.926-1.797,6.564C33.559,39.443,31.752,40.263,29.34,40.263 M26.77,27.035c-0.549,1.064-0.824,2.471-0.824,4.218
		c0,1.745,0.275,3.153,0.824,4.218s1.406,1.598,2.57,1.598s2.021-0.533,2.572-1.598c0.549-1.064,0.822-2.473,0.822-4.218
		c0-1.747-0.273-3.153-0.822-4.218c-0.551-1.063-1.408-1.599-2.572-1.599S27.318,25.972,26.77,27.035"/>
	<path fill="#FF7058" d="M44,2.852H4c-2.209,0-4,1.791-4,4v7.639h48V6.852C48,4.643,46.209,2.852,44,2.852"/>
	<path fill="#FFFFFF" d="M41.645,8.67c0,1.563-1.266,2.83-2.83,2.83c-1.563,0-2.828-1.267-2.828-2.83c0-1.563,1.266-2.83,2.828-2.83
		C40.379,5.84,41.645,7.107,41.645,8.67"/>
	<path fill="#FFFFFF" d="M12.016,8.67c0,1.563-1.268,2.83-2.83,2.83s-2.828-1.267-2.828-2.83c0-1.563,1.266-2.83,2.828-2.83
		S12.016,7.107,12.016,8.67"/>
	<path fill="#40596B" d="M38.844,0.006c-1.039,0-1.883,0.842-1.883,1.883l-0.029,6.104c0,1.04,0.844,1.883,1.885,1.883
		c1.039,0,1.883-0.843,1.883-1.883l0.029-6.104C40.729,0.848,39.885,0.006,38.844,0.006"/>
	<path fill="#40596B" d="M9.215,0.006L9.215,0.006c-1.039,0-1.883,0.842-1.883,1.883L7.303,7.992c0,1.04,0.844,1.883,1.883,1.883
		c1.041,0,1.883-0.843,1.883-1.883l0.029-6.104C11.098,0.848,10.256,0.006,9.215,0.006"/>
</g>
</svg>
