<?xml version="1.0" encoding="utf-8"?>
<!-- Generator: Adobe Illustrator 18.0.0, SVG Export Plug-In . SVG Version: 6.00 Build 0)  -->
<!DOCTYPE svg PUBLIC "-//W3C//DTD SVG 1.1//EN" "http://www.w3.org/Graphics/SVG/1.1/DTD/svg11.dtd">
<svg version="1.1" id="Layer_1" xmlns="http://www.w3.org/2000/svg" xmlns:xlink="http://www.w3.org/1999/xlink" x="0px" y="0px"
	 viewBox="0 0 48 48" enable-background="new 0 0 48 48" xml:space="preserve">
<g>
	<path fill="#F2F2F2" d="M5.8,35.5c-0.2,1.1-0.4,2.1-0.1,3c0.3,1,1.1,1.7,1.9,2.4C7.7,42,7.9,43,8.5,43.8c0.6,0.8,1.5,1.3,2.5,1.7
		c0.4,0.9,0.9,1.8,1.6,2.4h22.8c0.7-0.6,1.2-1.5,1.6-2.4c1-0.4,1.9-0.9,2.5-1.7c0.6-0.8,0.8-1.8,0.9-2.9c0.8-0.7,1.5-1.5,1.9-2.4
		c0.3-0.9,0.1-2-0.1-3c0.5-0.9,1-1.9,1-2.9c0-1-0.5-2-1-2.9c0.2-1.1,0.4-2.1,0.1-3c-0.3-1-1.1-1.7-1.9-2.4c-0.1-1.1-0.3-2.1-0.9-2.9
		C38.9,20.5,38,20,37,19.5c-0.4-1-0.9-1.9-1.7-2.5c-0.8-0.6-1.8-0.8-2.9-0.9c-0.7-0.8-1.5-1.5-2.4-1.9c-0.9-0.3-2-0.1-3,0.1
		c-0.9-0.5-1.9-1-2.9-1c-1,0-2,0.5-2.9,1c-1.1-0.2-2.1-0.4-3-0.1c-1,0.3-1.7,1.1-2.4,1.9c-1.1,0.1-2.1,0.3-2.9,0.9
		c-0.8,0.6-1.3,1.5-1.7,2.5c-1,0.4-1.9,0.9-2.5,1.7c-0.6,0.8-0.8,1.8-0.9,2.9c-0.8,0.7-1.5,1.5-1.9,2.4c-0.3,0.9-0.1,2,0.1,3
		c-0.5,0.9-1,1.9-1,2.9S5.3,34.5,5.8,35.5z"/>
	<path fill="#FF7058" d="M45.5,12.1l2.4,1.5L46.4,16c-3,4.9-9.4,6.4-14.2,3.4l-2.4-1.5l1.5-2.4C34.3,10.6,40.6,9.1,45.5,12.1z"/>
	<path fill="#ACB3BA" d="M33.3,17.5c3.8,2.4,8.9,1.2,11.3-2.7l0.4-0.6l-0.6-0.4c-3.8-2.4-8.9-1.2-11.3,2.7l-0.4,0.6L33.3,17.5z"/>
	<path fill="#40596B" d="M45,14.3l-0.4,0.6c-1.5,2.4-4,3.8-6.6,3.9c-1.6,0.1-3.2-0.3-4.7-1.2l-0.6-0.4l0.4-0.6
		c1.7-2.7,4.6-4.1,7.6-3.9c1.3,0.1,2.5,0.5,3.7,1.2L45,14.3z"/>
	<path fill="#FF7058" d="M2.5,12.1l-2.4,1.5L1.6,16c3,4.9,9.4,6.4,14.2,3.4l2.4-1.5l-1.5-2.4C13.7,10.6,7.4,9.1,2.5,12.1z"/>
	<path fill="#ACB3BA" d="M14.7,17.5c-3.8,2.4-8.9,1.2-11.3-2.7L3,14.3l0.6-0.4c3.8-2.4,8.9-1.2,11.3,2.7l0.4,0.6L14.7,17.5z"/>
	<path fill="#40596B" d="M3,14.3l0.4,0.6c1.5,2.4,4,3.8,6.6,3.9c1.6,0.1,3.2-0.3,4.7-1.2l0.6-0.4l-0.4-0.6c-1.7-2.7-4.6-4.1-7.6-3.9
		c-1.3,0.1-2.5,0.5-3.7,1.2L3,14.3z"/>
	<path fill="#FF7058" d="M36.1,12c-4.4-6.1-19.8-6.1-24.2,0c-0.9,1.3-0.9,3-0.4,6c1,6.5,2,10.6,6,15.8c2.1,2.7,4.5,5,6.5,5
		s4.4-2.3,6.5-5c4-5.2,5-9.3,6-15.8C37,15,37,13.3,36.1,12z"/>
	<g>
		<g>
			<circle fill="#FFD15C" cx="17.5" cy="19.6" r="2.6"/>
			<circle fill="#40596B" cx="17.5" cy="19.6" r="1.3"/>
			<circle fill="#FFFFFF" cx="16.7" cy="18.8" r="0.5"/>
		</g>
		<g>
			<circle fill="#FFD15C" cx="30.5" cy="19.6" r="2.6"/>
			<circle fill="#40596B" cx="30.5" cy="19.6" r="1.3"/>
			<circle fill="#FFFFFF" cx="29.7" cy="18.8" r="0.5"/>
		</g>
	</g>
	<path fill="#40596B" d="M26.3,32.9c-0.2,0-0.3,0.1-0.3,0.2c-0.2,0.8-0.9,1.4-1.7,1.5v-1.9c0,0,0,0,0,0c0.1,0,0.2-0.1,0.3-0.1
		c0.9-0.6,1.4-1.5,1.6-2.4c0.1-0.4-0.4-0.5-0.7-0.3c-0.9,0.6-2.1,0.6-3,0c-0.3-0.2-0.8-0.1-0.7,0.3c0.2,0.8,0.7,1.7,1.6,2.4
		c0.1,0.1,0.2,0.1,0.3,0.1c0,0,0,0,0,0v1.9c-0.8-0.1-1.5-0.7-1.7-1.5c0-0.2-0.2-0.3-0.3-0.2c-0.2,0-0.2,0.2-0.2,0.3
		c0.3,1.2,1.3,2,2.5,2s2.3-0.8,2.5-2C26.6,33.1,26.5,33,26.3,32.9z"/>
	<path fill="#F2F2F2" d="M33.6,6c0-1.8-1.4-3.2-3.2-3.2c-1.2,0-2.2,0.6-2.7,1.6c-0.2-1.6-1.5-2.8-3.1-2.8c-0.5,0-1,0.1-1.5,0.4
		c-0.5-1.1-1.6-1.9-2.9-1.9c-1.8,0-3.2,1.4-3.2,3.2c0,0,0,0,0,0.1c-0.2,0-0.4-0.1-0.7-0.1c-1.7,0-3,1.3-3.2,3c-1.2,0.5-2,1.6-2,3
		c0,1.8,1.4,3.2,3.2,3.2c0.1,0,0.3,0,0.4,0c0.6,0.6,1.4,1,2.3,1c0.5,0,1-0.1,1.5-0.4c0.5,1.1,1.6,1.8,2.9,1.8c1.3,0,2.4-0.8,2.9-1.9
		c0.5,0.3,1,0.4,1.6,0.4c0.4,0,0.8-0.1,1.1-0.2c0.5,1,1.6,1.7,2.8,1.7c1.5,0,2.8-1.1,3.1-2.5c0.2,0.1,0.5,0.1,0.7,0.1
		c1.8,0,3.2-1.4,3.2-3.2C36.8,7.4,35.4,6,33.6,6z"/>
</g>
</svg>
