<?xml version="1.0" encoding="utf-8"?>
<!-- Generator: Adobe Illustrator 18.0.0, SVG Export Plug-In . SVG Version: 6.00 Build 0)  -->
<!DOCTYPE svg PUBLIC "-//W3C//DTD SVG 1.1//EN" "http://www.w3.org/Graphics/SVG/1.1/DTD/svg11.dtd">
<svg version="1.1" id="Layer_1" xmlns="http://www.w3.org/2000/svg" xmlns:xlink="http://www.w3.org/1999/xlink" x="0px" y="0px"
	 viewBox="0 0 48 48" enable-background="new 0 0 48 48" xml:space="preserve">
<g>
	<g>
		<g>
			<g>
				<g>
					<g>
						<g>
							<g>
								<path fill="#415A6B" d="M21.7,37.6c-0.3,0-0.6-0.2-0.7-0.6c-0.7-4.9-2.8-9.4-6.1-13.1L0.2,7.4c-0.2-0.3-0.2-0.7,0-1l4.5-4.2
									C5,2,5.4,2,5.7,2.3c0.3,0.3,0.3,0.7,0,1L1.7,7l14.3,16c3.5,3.9,5.7,8.6,6.4,13.8C22.4,37.2,22.1,37.6,21.7,37.6
									C21.7,37.6,21.7,37.6,21.7,37.6z"/>
							</g>
						</g>
						<g>
							<g>
								<path fill="#E8EAE9" d="M19.2,42.2H16C6.9,42.2-0.3,34,1.4,25c0.1-0.4,0.2-0.8,0.3-1.3l20.9,11.3L19.2,42.2z"/>
							</g>
						</g>
						<g>
							<path fill="#CED6E0" d="M19.2,42.2l2.8-5.8c-1-0.8-2.3-1.3-3.7-1.3c-3.4,0-6.1,2.8-6.1,6.1c0,0.2,0,0.3,0,0.5
								c1.2,0.3,2.5,0.5,3.8,0.5H19.2z"/>
						</g>
						<g>
							<g>
								<circle fill="#415A6B" cx="18.3" cy="41.2" r="3.2"/>
							</g>
							<g>
								<g>
									<g>
										<path fill="#F3705A" d="M44.8,40.4v2.9H18.9L16.7,40l2.5-6.9c0.3-0.7,1.1-1.1,1.8-0.7c0,0,0.4-0.8,0.9-1.6
											c0.5-0.8,1.2-1.7,1.6-2.1C28,24.8,38.2,27.1,44.8,40.4z"/>
									</g>
								</g>
								<g>
									<path fill="#F05540" d="M44.8,40.4c-0.4-0.8-0.8-1.6-1.2-2.3c-2,0.4-3.5,2.2-3.5,4.3c0,0.3,0,0.6,0.1,0.9h4.7V40.4z"/>
								</g>
								<path fill="#F05540" d="M18.5,35.1l-1.2,3.3L16.7,40l2.2,3.3H24c0.2-0.7,0.4-1.4,0.4-2.1C24.4,37.9,21.8,35.2,18.5,35.1z"/>
								<g>
									<circle fill="#415A6B" cx="18.3" cy="41.2" r="4.8"/>
								</g>
							</g>
							<g>
								<g>
									<circle fill="#F3F3F3" cx="18.3" cy="41.2" r="3.2"/>
								</g>
							</g>
							<g>
								<g>
									<circle fill="#415A6B" cx="18.3" cy="41.2" r="1"/>
								</g>
							</g>
						</g>
					</g>
				</g>
			</g>
			<g>
				<g>
					<path fill="#F05540" d="M44.3,39.4c-7.6-1.7-23.2-7-23.2-7s1.8-2.9,2.6-3.7C28.3,24.4,37.7,27.2,44.3,39.4z"/>
				</g>
			</g>
		</g>
	</g>
	<g>
		<g>
			<circle fill="#415A6B" cx="44.5" cy="42.4" r="2.4"/>
		</g>
		<circle fill="#415A6B" cx="44.5" cy="42.4" r="3.5"/>
		<g>
			<g>
				<circle fill="#F3F3F3" cx="44.5" cy="42.4" r="2.4"/>
			</g>
		</g>
		<g>
			<g>
				<circle fill="#415A6B" cx="44.5" cy="42.4" r="0.7"/>
			</g>
		</g>
	</g>
</g>
</svg>
