<?xml version="1.0" encoding="utf-8"?>
<!-- Generator: Adobe Illustrator 18.0.0, SVG Export Plug-In . SVG Version: 6.00 Build 0)  -->
<!DOCTYPE svg PUBLIC "-//W3C//DTD SVG 1.1//EN" "http://www.w3.org/Graphics/SVG/1.1/DTD/svg11.dtd">
<svg version="1.1" id="Layer_1" xmlns="http://www.w3.org/2000/svg" xmlns:xlink="http://www.w3.org/1999/xlink" x="0px" y="0px"
	 viewBox="0 0 48 48" enable-background="new 0 0 48 48" xml:space="preserve">
<g>
	<path fill="#F3F3F3" d="M40.7,0H7.3c-2.2,0-4,1.8-4,4v40c0,2.2,1.8,4,4,4h33.5c2.2,0,4-1.8,4-4V4C44.7,1.8,43,0,40.7,0z"/>
	<rect x="7.3" y="4" fill="#8AD7F8" width="33.5" height="9.9"/>
	<rect x="19.8" y="28.1" fill="#415A6B" width="8.5" height="6"/>
	<rect x="19.8" y="17.9" fill="#415A6B" width="8.5" height="6"/>
	<rect x="32.2" y="17.9" fill="#66C6B9" width="8.5" height="6"/>
	<rect x="7.3" y="17.9" fill="#F3705A" width="8.5" height="6"/>
	<rect x="7.3" y="38.1" fill="#415A6B" width="8.5" height="6"/>
	<rect x="7.3" y="28.1" fill="#415A6B" width="8.5" height="6"/>
	<rect x="32.3" y="27.9" fill="#F3705A" width="8.5" height="16"/>
	<g>
		<g>
			<polygon fill="#FFFFFF" points="39.2,35.2 39.2,36.8 37.3,36.8 37.3,38.7 35.7,38.7 35.7,36.8 33.8,36.8 33.8,35.2 35.7,35.2 
				35.7,33.3 37.3,33.3 37.3,35.2 			"/>
		</g>
	</g>
	<rect x="19.8" y="38" fill="#415A6B" width="8.5" height="6"/>
</g>
</svg>
