<?xml version="1.0" encoding="utf-8"?>
<!-- Generator: Adobe Illustrator 18.0.0, SVG Export Plug-In . SVG Version: 6.00 Build 0)  -->
<!DOCTYPE svg PUBLIC "-//W3C//DTD SVG 1.1//EN" "http://www.w3.org/Graphics/SVG/1.1/DTD/svg11.dtd">
<svg version="1.1" id="Layer_1" xmlns="http://www.w3.org/2000/svg" xmlns:xlink="http://www.w3.org/1999/xlink" x="0px" y="0px"
	 viewBox="0 0 48 48" enable-background="new 0 0 48 48" xml:space="preserve">
<g>
	<g>
		<g>
			<g>
				<path fill="#F15741" d="M20.7,27.5c7.6,0.2,15.3,6.9,22.9,1.9c0-5.3,0-13.5,0-18.8C36,15.7,28.3,9,20.7,8.7
					C20.7,14,20.7,22.2,20.7,27.5z"/>
			</g>
			<path fill="#F3705B" d="M28.1,24.4c-4.7-1.5-9.4-2.9-14.1,0.2c0-5.7,0-14.2,0-19.9c4.7-3.1,9.4-1.8,14.1-0.2
				C28.1,10.2,28.1,18.8,28.1,24.4z"/>
			<g>
				<path fill="#435B6C" d="M28.1,24.4c-2.5,0.8-5,1.6-7.4,3.1c0-1.6,0-3.2,0-4.7C23.2,22.9,25.7,23.6,28.1,24.4z"/>
			</g>
		</g>
		<path fill="#FFD15D" d="M12.6,0c-1.1,0-2,0.9-2,2v41.9h4V2C14.6,0.9,13.7,0,12.6,0z"/>
		<path fill="#435B6C" d="M16.2,43.3H9.1c-2.6,0-4.7,2.1-4.7,4.7h16.5C20.9,45.4,18.8,43.3,16.2,43.3z"/>
	</g>
</g>
</svg>
