<?xml version="1.0" encoding="utf-8"?>
<!-- Generator: Adobe Illustrator 18.0.0, SVG Export Plug-In . SVG Version: 6.00 Build 0)  -->
<!DOCTYPE svg PUBLIC "-//W3C//DTD SVG 1.1//EN" "http://www.w3.org/Graphics/SVG/1.1/DTD/svg11.dtd">
<svg version="1.1" id="Layer_1" xmlns="http://www.w3.org/2000/svg" xmlns:xlink="http://www.w3.org/1999/xlink" x="0px" y="0px"
	 viewBox="0 0 48 48" enable-background="new 0 0 48 48" xml:space="preserve">
<g>
	<circle fill="#54C0EB" cx="24" cy="24" r="24"/>
	<path fill="#84DBFF" d="M47.9,25.5c0-0.5,0.1-1,0.1-1.5v0c0-0.5,0-1-0.1-1.5h-8c-0.1-3-0.6-5.9-1.4-8.5h7.3c-0.5-1-1-2-1.6-3h-6.7
		C34.6,4.4,29.6,0,24,0c-5.6,0-10.6,4.4-13.5,11H3.8c-0.6,1-1.2,2-1.6,3h7.3c-0.8,2.6-1.3,5.5-1.4,8.5h-8C0,23,0,23.5,0,24
		c0,0.5,0,1,0.1,1.5h8c0.1,3,0.6,5.9,1.4,8.5H2.2c0.5,1,1,2,1.6,3h6.7c2.9,6.6,7.8,11,13.5,11c5.6,0,10.6-4.4,13.5-11h6.7
		c0.6-1,1.2-2,1.6-3h-7.3c0.8-2.6,1.3-5.5,1.4-8.5H47.9z M22.5,44.8c-3.5-0.7-6.6-3.6-8.7-7.8h8.7V44.8z M22.5,34h-9.9
		c-0.9-2.6-1.4-5.4-1.5-8.5h11.5V34z M22.5,22.5H11c0.1-3.1,0.7-5.9,1.5-8.5h9.9V22.5z M22.5,11h-8.7c2.1-4.3,5.2-7.2,8.7-7.8V11z
		 M25.5,3.2c3.5,0.7,6.6,3.6,8.7,7.8h-8.7V3.2z M25.5,44.8V37h8.7C32.1,41.3,29,44.2,25.5,44.8z M35.4,34h-9.9v-8.5H37
		C36.8,28.6,36.3,31.4,35.4,34z M25.5,22.5V14h9.9c0.9,2.6,1.4,5.4,1.5,8.5H25.5z"/>
</g>
</svg>
