<?xml version="1.0" encoding="utf-8"?>
<!-- Generator: Adobe Illustrator 18.0.0, SVG Export Plug-In . SVG Version: 6.00 Build 0)  -->
<!DOCTYPE svg PUBLIC "-//W3C//DTD SVG 1.1//EN" "http://www.w3.org/Graphics/SVG/1.1/DTD/svg11.dtd">
<svg version="1.1" id="Layer_1" xmlns="http://www.w3.org/2000/svg" xmlns:xlink="http://www.w3.org/1999/xlink" x="0px" y="0px"
	 viewBox="0 0 48 48" enable-background="new 0 0 48 48" xml:space="preserve">
<g>
	<path fill="#FFD15C" d="M48,24c0,5-3.5,9.1-8.2,10.1c-0.7,0.1-1.4,0.2-2.2,0.2V13.6c0.8,0,1.5,0.1,2.2,0.2C44.5,14.8,48,19,48,24z"
		/>
	<path fill="#F8B64C" d="M39.8,13.8v20.3c-0.7,0.1-1.4,0.2-2.2,0.2V13.6C38.4,13.6,39.1,13.7,39.8,13.8z"/>
	<path fill="#CDD6E0" d="M12.5,33.2H2c-1.1,0-2-0.9-2-2V16.8c0-1.1,0.9-2,2-2h10.5V33.2z"/>
	<path fill="#F2F2F2" d="M35.4,47.6l-23-14.5V14.8l23-14.5c1.3-0.6,2.9,0.3,2.9,1.8v43.7C38.3,47.3,36.8,48.3,35.4,47.6z"/>
	<rect x="0" y="18.9" fill="#ACB3BA" width="7.7" height="1.5"/>
	<rect x="0" y="23.3" fill="#ACB3BA" width="7.7" height="1.5"/>
	<rect x="0" y="27.6" fill="#ACB3BA" width="7.7" height="1.5"/>
</g>
</svg>
