<?xml version="1.0" encoding="utf-8"?>
<!-- Generator: Adobe Illustrator 18.0.0, SVG Export Plug-In . SVG Version: 6.00 Build 0)  -->
<!DOCTYPE svg PUBLIC "-//W3C//DTD SVG 1.1//EN" "http://www.w3.org/Graphics/SVG/1.1/DTD/svg11.dtd">
<svg version="1.1" id="Layer_1" xmlns="http://www.w3.org/2000/svg" xmlns:xlink="http://www.w3.org/1999/xlink" x="0px" y="0px"
	 viewBox="0 0 48 48" enable-background="new 0 0 48 48" xml:space="preserve">
<g>
	<g>
		<g>
			<g>
				<path fill="#66C6B9" d="M22.1,16.6c-7.5-1-11.9-7.7-9.7-15.1C19.9,2.5,24.3,9.3,22.1,16.6z"/>
				<polygon fill="#415A6B" points="23.8,18.3 18.9,11.1 18.6,6.4 18.5,10.5 14.7,4.9 16.9,8.7 13.7,7.4 17.2,9.2 19.3,12.7 
					15.4,11 19.7,13.3 23,18.8 				"/>
			</g>
			<g>
				<path fill="#66C6B9" d="M27.1,11c3.9,1.3,12.4,0.1,14.4-2.7C35.6,2.2,30.1,3.6,27.1,11z"/>
				<path fill="#415A6B" d="M37.4,9.2c-1-0.5-1.9-0.9-2.9-1.3c1.2-0.2,2.4-0.3,3.6-0.3c-1.9-0.2-3.8,0-5.7,0.5
					c0.8-0.9,1.6-1.6,2.3-2.3c-0.9,0.7-1.9,1.5-2.9,2.5c-2.3,0.7-4.5,2-6.4,3.8c0,0.3,0,0.5,0.1,0.8c1.4-1.4,3-2.6,4.7-3.4
					c1.2,0.1,2.5,0.3,3.9,0.6c-1.2-0.4-2.2-0.7-3.3-0.9C31.9,8.6,32.9,8.2,34,8C35.1,8.3,36.3,8.7,37.4,9.2z"/>
			</g>
			<g>
				<path fill="#415A6B" d="M25.1,24.6C24.6,8.8,30.3,0,30.3,0c-5.7,7.6-7.8,15.1-8,24.6H25.1z"/>
			</g>
		</g>
		<g>
			<g>
				<path fill="#8AD7F8" stroke="#415A6B" stroke-linecap="round" stroke-linejoin="round" stroke-miterlimit="10" d="M43.7,28.3
					C43.7,39.2,34.9,48,24,48S4.3,39.2,4.3,28.3H43.7z"/>
			</g>
			<g>
				<path fill="#FFFFFF" stroke="#415A6B" stroke-linecap="round" stroke-linejoin="round" stroke-miterlimit="10" d="M35.3,28.3
					c0,10.9-5,19.7-11.3,19.7s-11.3-8.8-11.3-19.7H35.3z"/>
			</g>
			<g>
				<g>
					<path fill="none" stroke="#415A6B" stroke-linecap="round" stroke-linejoin="round" stroke-miterlimit="10" d="M9.2,41.3
						c3.6-2.4,8.9-3.8,14.8-3.8c5.9,0,11.2,1.5,14.8,3.8"/>
				</g>
			</g>
			
				<line fill="#8AD7F8" stroke="#415A6B" stroke-linecap="round" stroke-linejoin="round" stroke-miterlimit="10" x1="24" y1="48" x2="24" y2="28.3"/>
		</g>
		<g>
			<circle fill="#F3705A" cx="31.8" cy="27" r="0.6"/>
			<circle fill="#F3705A" cx="15.6" cy="30.1" r="0.7"/>
			<circle fill="#F3705A" cx="18.6" cy="32.7" r="0.3"/>
			<circle fill="#F3705A" cx="19.7" cy="33.2" r="0.1"/>
			<circle fill="#F3705A" cx="30.4" cy="31.1" r="0.5"/>
			<circle fill="#F3705A" cx="32.7" cy="28.9" r="0.4"/>
			<path fill="#F3705A" d="M31.4,28.6c0-0.6-0.3-1-0.8-1.3c0.3-0.1,0.5-0.4,0.5-0.7c0-0.4-0.3-0.7-0.7-0.6c-0.4,0-0.6,0.3-0.6,0.7
				c-1.3-2-3.5-3.3-6.1-3.3c-2.9,0-5.4,1.7-6.5,4.1c-0.2-0.1-0.5-0.1-0.8,0c-0.6,0.2-0.9,0.9-0.7,1.5c0.2,0.5,0.6,0.7,1,0.8
				c-0.1,0.7,0.2,1.5,0.9,1.9c0.7,0.5,1.6,0.4,2.3,0c0.6,1,1.7,1.7,2.9,1.7c1,0,1.8-0.4,2.4-1c0.3,0.3,0.8,0.4,1.2,0.3
				c0.5-0.1,0.9-0.5,1-0.9c0.4,0.2,0.8,0.1,1.1-0.3c0.2-0.3,0.2-0.7,0-0.9c0.1-0.1,0.2-0.2,0.3-0.4c0.2,0.1,0.5,0.2,0.7,0.2
				c0.5,0,0.9-0.1,1.2-0.4c0.1,0.1,0.2,0.1,0.4,0.1c0.4,0,0.7-0.4,0.6-0.8C31.8,28.9,31.7,28.6,31.4,28.6z"/>
		</g>
	</g>
</g>
</svg>
