<?xml version="1.0" encoding="utf-8"?>
<!-- Generator: Adobe Illustrator 18.0.0, SVG Export Plug-In . SVG Version: 6.00 Build 0)  -->
<!DOCTYPE svg PUBLIC "-//W3C//DTD SVG 1.1//EN" "http://www.w3.org/Graphics/SVG/1.1/DTD/svg11.dtd">
<svg version="1.1" id="Layer_1" xmlns="http://www.w3.org/2000/svg" xmlns:xlink="http://www.w3.org/1999/xlink" x="0px" y="0px"
	 viewBox="0 0 48 48" enable-background="new 0 0 48 48" xml:space="preserve">
<g>
	<g>
		<g>
			<path fill="#4EC0AA" d="M0.2,26.4l0-0.6c0.2-0.5,7.5-0.8,12-0.9c0,0-1.1-10.8,6-13.6c0,0,5.7-2.7,12-0.8S37,21.7,37,21.7l1.2,1
				c0,0,8.7,4.2,9.2,4.8l-9.6,1.8L27,31.6c0,0-11.9,3.3-12.2,3.2c-0.2,0-8.9-1.2-9.2-1.6C5.4,32.8,0.2,26.4,0.2,26.4z"/>
		</g>
		<g>
			<path fill="#344A5E" d="M43.2,33L43.2,33c-1.1-0.4-2.3-0.3-3.2,0.4C28.7,40.7,14.3,38,6.5,35.7C-1.9,33.3,0,26.1,0,26.1
				c0.2-1.5,3.6,2.8,7.8,5.5c3.2,1.6,5.5-0.3,6.7-1.8c1.6-2,3.8-3.5,6.3-4.1c3.8-0.9,7.2-0.1,7.2-0.1l11.5,0.9c0,0,6.9-0.3,7.8,1
				c0.8,0.5,0.8,1.7,0.5,2.9C47.5,32.6,45.2,33.7,43.2,33z"/>
			<path fill="#415A6B" d="M41.5,32.3"/>
		</g>
		<g>
			<path fill="#344A5E" d="M12.8,24.9c0,0,12.8-3.6,17.5-3.6c4.6,0.2,7.9,1.4,7.9,1.4s-0.6-2-1.3-2.2c-1.7-0.4-7.1-0.8-10.4-0.3
				c-4.6,0.7-12.3,3-12.3,3L12.8,24.9z"/>
		</g>
		<g>
			
				<ellipse transform="matrix(0.8217 0.5699 -0.5699 0.8217 15.8642 -3.6008)" fill="#FFFFFF" cx="13.7" cy="23.6" rx="0.9" ry="1.8"/>
		</g>
	</g>
</g>
</svg>
