<?xml version="1.0" encoding="utf-8"?>
<!-- Generator: Adobe Illustrator 18.0.0, SVG Export Plug-In . SVG Version: 6.00 Build 0)  -->
<!DOCTYPE svg PUBLIC "-//W3C//DTD SVG 1.1//EN" "http://www.w3.org/Graphics/SVG/1.1/DTD/svg11.dtd">
<svg version="1.1" id="Layer_1" xmlns="http://www.w3.org/2000/svg" xmlns:xlink="http://www.w3.org/1999/xlink" x="0px" y="0px"
	 viewBox="0 0 512 512" enable-background="new 0 0 512 512" xml:space="preserve">
<g>
	<path fill="#CDD5DF" d="M488.8,2H23.2C11.5,2,2,11.5,2,23.2V153h508V23.2C510,11.5,500.5,2,488.8,2z"/>
	<path fill="#F2F2F2" d="M2,153v335.8c0,11.7,9.5,21.2,21.2,21.2h465.7c11.7,0,21.2-9.5,21.2-21.2V153H2z"/>
	<rect x="43.1" y="38.4" fill="#55BFE9" width="425.7" height="78.1"/>
	<rect x="43.1" y="194.1" fill="#ABB2B9" width="72.3" height="72.3"/>
	<rect x="160.9" y="194.1" fill="#ABB2B9" width="72.3" height="72.3"/>
	<rect x="278.7" y="194.1" fill="#CDD5DF" width="72.3" height="72.3"/>
	<rect x="396.5" y="194.1" fill="#CDD5DF" width="72.3" height="72.3"/>
	<rect x="43.1" y="295.7" fill="#CDD5DF" width="72.3" height="72.3"/>
	<rect x="160.9" y="295.7" fill="#CDD5DF" width="72.3" height="72.3"/>
	<rect x="278.7" y="295.7" fill="#CDD5DF" width="72.3" height="72.3"/>
	<rect x="396.5" y="295.7" fill="#CDD5DF" width="72.3" height="72.3"/>
	<rect x="43.1" y="397.2" fill="#CDD5DF" width="72.3" height="72.3"/>
	<rect x="160.9" y="397.2" fill="#CDD5DF" width="72.3" height="72.3"/>
	<rect x="278.7" y="397.2" fill="#CDD5DF" width="72.3" height="72.3"/>
	<rect x="396.5" y="397.2" fill="#F2705B" width="72.3" height="72.3"/>
</g>
</svg>
