<?xml version="1.0" encoding="utf-8"?>
<!-- Generator: Adobe Illustrator 19.0.1, SVG Export Plug-In . SVG Version: 6.00 Build 0)  -->
<svg version="1.1" id="Layer_1" xmlns="http://www.w3.org/2000/svg" xmlns:xlink="http://www.w3.org/1999/xlink" x="0px" y="0px"
	 viewBox="0 0 48 48" style="enable-background:new 0 0 48 48;" xml:space="preserve">
<style type="text/css">
	.st0{fill:#415A6B;}
	.st1{fill:#ADB3BA;}
	.st2{fill:#E8EAE9;}
	.st3{fill:#55C0EB;}
	.st4{fill:#F3705A;}
	.st5{fill:#FFFFFF;}
	.st6{fill:#FFD15C;}
	.st7{fill:#344A5E;}
	.st8{fill:#CED6E0;}
	.st9{fill:#F05540;}
	.st10{fill:#F7B64C;}
	.st11{fill:#F3F3F3;}
	.st12{fill:#66C6B9;}
	.st13{fill:#4ABAA5;}
	.st14{fill:#8AD7F8;}
	.st15{fill:none;}
	.st16{fill:#E53D35;}
</style>
<g>
	<g>
		<g>
			<g>
				<polygon class="st8" points="23.5,32.7 23.8,27.9 21.8,21.8 18.4,23.3 14.8,21.6 13.2,23.7 13,32.7 				"/>
			</g>
			<g>
				<path class="st3" d="M13.8,22.2L15,32.7h-4.1c-2.8,0-5.5-2.7-3.8-6.7c0.3-0.8,1-1.4,1.8-1.8L13.8,22.2z"/>
				<path class="st3" d="M25.9,32.7h-4.1L23,22.2l4.9,2C31.4,25.6,31.2,32.7,25.9,32.7z"/>
			</g>
			<g>
				<g>
					<polygon class="st7" points="19.8,32.7 19.2,25.5 17.7,25.5 17,32.7 					"/>
				</g>
				<g>
					<polygon class="st0" points="19.2,25.5 19.9,24.8 18.4,23.3 17,24.8 17.7,25.5 					"/>
				</g>
			</g>
			<g>
				<g>
					<g>
						
							<ellipse transform="matrix(-0.9869 0.1616 -0.1616 -0.9869 30.9746 28.2101)" class="st6" cx="14.3" cy="15.4" rx="0.7" ry="1.3"/>
					</g>
					<g>
						
							<ellipse transform="matrix(0.9869 0.1616 -0.1616 0.9869 2.7792 -3.436)" class="st6" cx="22.5" cy="15.4" rx="0.7" ry="1.3"/>
					</g>
				</g>
				<g>
					<g>
						<g>
							<path class="st2" d="M15.8,20c0,0,0.9,2.5,2.6,3.2l-2,2c0,0-1.5-2.7-1.6-3.6C14.8,21.7,15.3,20.6,15.8,20z"/>
						</g>
						<g>
							<g>
								<path class="st14" d="M13.9,32.7h1.7c-0.3-3.3-0.6-6.9-0.7-7.8c-0.2-1.8,0.5-4.2,0.5-4.2c-1.8,1.6-2.1,1.6-3,3.1l0.7,0.6
									L11.8,25C11.8,25,13,29.6,13.9,32.7z"/>
							</g>
						</g>
					</g>
					<g>
						<g>
							<path class="st2" d="M21,20c0,0-0.9,2.5-2.6,3.2l2,2c0,0,1.5-2.7,1.6-3.6C22,21.7,21.6,20.6,21,20z"/>
						</g>
						<g>
							<g>
								<path class="st14" d="M22,24.8c-0.1,1-0.5,4.6-0.7,7.8H23C23.8,29.6,25,25,25,25l-1.3-0.7l0.7-0.6c-0.9-1.4-1.2-1.4-3-3.1
									C21.5,20.7,22.2,23.1,22,24.8z"/>
							</g>
						</g>
					</g>
				</g>
				<g>
					<path class="st10" d="M15.8,17.6V20c0,0,0.9,2.5,2.6,3.2C20.1,22.5,21,20,21,20v-2.5H15.8z"/>
				</g>
				<path class="st6" d="M21.9,12.2c0.3-0.9-0.2-2-1.4-2c-0.1,0-0.2,0-0.3,0c-0.5-0.3-1.1-0.5-1.8-0.5c-2.3,0-4.1,2.5-4.1,5.6
					c0,3.1,1.8,5.6,4.1,5.6c2.3,0,4.1-2.5,4.1-5.6C22.6,14.1,22.3,13.1,21.9,12.2z"/>
				<g>
					<path class="st7" d="M14.7,15.2c0-0.6,0.1-1.9,0.4-2.2c0.4-0.3,0.1-0.7,0.5-1.3c0.4-0.6,1.2-0.9,2.5-1c1.4-0.1,2.7-0.3,3.3,0.5
						c0.6,0.7,0.9,3.4,0.9,4.1h0.1c0.1-0.6,1.2-5-0.6-5c0,0,0.1-2-2.8-2.2c-2.9-0.3-3.8,1.4-4.1,1.9c-0.4,0.5-0.6,2.5-0.6,3
						c0,0.5,0.2,1.6,0.2,2.3H14.7z"/>
				</g>
			</g>
		</g>
		
			<rect x="29.3" y="29.5" transform="matrix(0.7071 -0.7071 0.7071 0.7071 -13.3174 32.1475)" class="st7" width="5.7" height="5.3"/>
		<g>
			<path class="st4" d="M38,29.9l9.6,9.6c0.6,0.6,0.5,1.5-0.1,2.2l-5.7,5.7c-0.6,0.6-1.6,0.7-2.2,0.1L29.9,38
				c-0.6-0.6-0.5-1.5,0.1-2.2l5.7-5.7C36.4,29.4,37.4,29.4,38,29.9z"/>
		</g>
		
			<rect x="35.1" y="31.4" transform="matrix(-0.7071 -0.7071 0.7071 -0.7071 37.1177 89.6109)" class="st6" width="4.1" height="11.4"/>
		<path class="st0" d="M5.4,5.4c-7.2,7.2-7.2,18.9,0,26c7.2,7.2,18.9,7.2,26.1,0s7.2-18.8,0-26C24.2-1.8,12.6-1.8,5.4,5.4z
			 M28.1,28.1c-5.3,5.3-14,5.3-19.3,0c-5.3-5.3-5.3-14,0-19.3s14-5.3,19.3,0C33.4,14.1,33.4,22.7,28.1,28.1z"/>
	</g>
</g>
</svg>
