<?xml version="1.0" encoding="utf-8"?>
<!-- Generator: Adobe Illustrator 18.0.0, SVG Export Plug-In . SVG Version: 6.00 Build 0)  -->
<!DOCTYPE svg PUBLIC "-//W3C//DTD SVG 1.1//EN" "http://www.w3.org/Graphics/SVG/1.1/DTD/svg11.dtd">
<svg version="1.1" id="Layer_1" xmlns="http://www.w3.org/2000/svg" xmlns:xlink="http://www.w3.org/1999/xlink" x="0px" y="0px"
	 viewBox="0 0 48 48" enable-background="new 0 0 48 48" xml:space="preserve">
<g>
	<path fill="#F8B64C" d="M43.1,39.9H5c-0.7,0-1.2-0.5-1.2-1.2v-0.2c0-0.7,0.5-1.2,1.2-1.2h38.1c0.7,0,1.2,0.5,1.2,1.2v0.2
		C44.3,39.3,43.8,39.9,43.1,39.9z"/>
	<path fill="#FFD15C" d="M46.6,16.2l-0.3,1.2c0,0-3.2,5.4-4.3,13.5H6c-1.1-8.1-4.3-13.5-4.3-13.5l-0.3-1.2c0.6,1.1,3.9,5.5,3.9,5.5
		c2.4,3.5,4.2,1.8,4.2,1.8c2.5-1.7,2-7.9,2-7.9l0.3-0.8h0.6c1.6,4.4,4.2,6.3,4.2,6.3c3.6,3.3,5.4-3.9,5.4-3.9l2-7l2,7
		c0,0,1.7,7.2,5.4,3.9c0,0,2.5-2,4.2-6.3h0.6l0.3,0.8c0,0-0.5,6.2,2,7.9c0,0,1.9,1.7,4.2-1.8C42.7,21.7,46,17.3,46.6,16.2z"/>
	<path fill="#FFD15C" d="M46.6,16.2l-0.3,1.2c0,0-0.2,0.3-0.5,0.9c-0.9,1.8-3,6.4-3.8,12.6H6c-0.9-6.2-2.9-10.8-3.8-12.6
		c-0.3-0.6-0.5-0.9-0.5-0.9l-0.3-1.2c0.2,0.3,0.7,1,1.2,1.8c1.2,1.6,2.7,3.7,2.7,3.7c2.4,3.5,4.2,1.8,4.2,1.8
		c1.8-1.2,2.1-4.7,2.1-6.6c0-0.8,0-1.3,0-1.3l0.3-0.8h0.6c0.2,0.6,0.5,1.1,0.7,1.7c1.6,3.2,3.5,4.7,3.5,4.7c3.6,3.3,5.4-3.9,5.4-3.9
		l1.1-4l0.8-3l0.8,3l1.1,4c0,0,1.7,7.2,5.4,3.9c0,0,1.9-1.5,3.5-4.7c0.3-0.5,0.5-1.1,0.7-1.7h0.6l0.3,0.8c0,0-0.1,0.5-0.1,1.3
		c0,1.9,0.2,5.4,2.1,6.6c0,0,1.9,1.7,4.2-1.8c0,0,1.5-2,2.7-3.7C45.9,17.2,46.4,16.5,46.6,16.2z"/>
	<path fill="#FFD15C" d="M42,32.5L42,32.5l-36,0v0C6,34,5.6,35,4.6,36.2c-0.5,0.6-0.9,1.5-0.9,2.4h40.7c0-0.9-0.3-1.7-0.9-2.4
		C42.5,35,42,34,42,32.5z"/>
	<path opacity="0.1" fill="#231F20" d="M6,34.9h36.1c0.2,0,0.3,0,0.5-0.1c-0.4-0.7-0.6-1.4-0.6-2.4H6c0,0.9-0.2,1.7-0.6,2.4
		C5.6,34.9,5.8,34.9,6,34.9z"/>
	<polygon fill="#54C0EB" points="24,21.6 20.7,23.5 20.7,27.3 24,29.3 27.3,27.3 27.3,23.5 	"/>
	<g>
		<polygon fill="#84DBFF" points="24,25 25.7,24 24,23.1 22.3,24 		"/>
		<polygon fill="#84DBFF" points="24,25.9 22.3,26.8 24,27.8 25.7,26.8 		"/>
	</g>
	<path fill="#FF7058" d="M42.1,30.4H6c-1,0-1.8,0.8-1.8,1.8c0,1,0.8,1.8,1.8,1.8h36.1c1,0,1.8-0.8,1.8-1.8
		C43.8,31.2,43.1,30.4,42.1,30.4z"/>
	<g opacity="0.1">
		<path fill="#231F20" d="M24.8,13.2c-0.3,0.1-0.5,0.1-0.8,0.1s-0.6,0-0.8-0.1l0.8-3L24.8,13.2z"/>
		<path fill="#231F20" d="M36.5,15.6c0,0-0.1,0.5-0.1,1.3c-0.1,0-0.1,0-0.2,0c-0.5,0-1-0.1-1.4-0.4c0.3-0.5,0.5-1.1,0.7-1.7h0.6
			L36.5,15.6z"/>
		<path fill="#231F20" d="M13.2,16.5c-0.4,0.2-0.9,0.4-1.4,0.4c0,0-0.1,0-0.2,0c0-0.8,0-1.3,0-1.3l0.3-0.8h0.6
			C12.7,15.4,13,16,13.2,16.5z"/>
	</g>
	<circle fill="#FF7058" cx="24" cy="10.2" r="2.1"/>
	<circle fill="#FF7058" cx="36.2" cy="13.9" r="1.9"/>
	<circle fill="#FF7058" cx="11.8" cy="13.9" r="1.9"/>
	<circle fill="#FF7058" cx="46.7" cy="16.2" r="1.3"/>
	<circle fill="#FF7058" cx="1.3" cy="16.2" r="1.3"/>
</g>
</svg>
