<?xml version="1.0" encoding="utf-8"?>
<!-- Generator: Adobe Illustrator 16.0.0, SVG Export Plug-In . SVG Version: 6.00 Build 0)  -->
<!DOCTYPE svg PUBLIC "-//W3C//DTD SVG 1.1//EN" "http://www.w3.org/Graphics/SVG/1.1/DTD/svg11.dtd">
<svg version="1.1" id="Layer_1" xmlns="http://www.w3.org/2000/svg" xmlns:xlink="http://www.w3.org/1999/xlink" x="0px" y="0px"
	 width="48px" height="48px" viewBox="0 0 48 48" enable-background="new 0 0 48 48" xml:space="preserve">
<g>
	<path fill="#40596B" d="M35.516,16.921l-2.924,19.301H15.447l-2.924-19.301c-0.121-0.804-0.186-1.613-0.18-2.407
		C12.305,7.164,17.129,0.596,24.018,0.596c3.857,0,7.178,2.172,9.293,5.461c0.85,1.331,1.494,2.825,1.893,4.413
		c0.25,0.977,0.406,1.984,0.469,3.007C35.742,14.613,35.691,15.765,35.516,16.921"/>
	<path fill="#F8B64C" d="M32.545,32.127l-2.09,7.891l-0.51,7.778h-12.66c0,0-1.73-15.448-1.83-15.669
		c1.1-0.51,1.809-1.62,1.809-2.84v-0.92c0.861,0.67,1.842,1.22,2.891,1.55c0.16,0.061,0.311,0.101,0.461,0.141
		c0.459,0.14,0.92,0.239,1.398,0.29c0.361,0.05,0.73,0.069,1.102,0.069h1.75c2.189,0,4.209-0.81,5.859-2.08v0.95
		c0,1.21,0.699,2.32,1.801,2.83L32.545,32.127z"/>
	<rect x="23.99" y="35.55" fill="#FFD15C" width="0.004" height="0.005"/>
	<g opacity="0.1">
		<g>
			<defs>
				<rect id="SVGID_19_" x="20.324" y="28.334" width="12.221" height="12.62"/>
			</defs>
			<clipPath id="SVGID_2_">
				<use xlink:href="#SVGID_19_"  overflow="visible"/>
			</clipPath>
			<path clip-path="url(#SVGID_2_)" fill="#40596B" d="M32.545,32.127l-2.09,7.891l-0.73,0.939l-9.4-9.41l1.689-1.199
				c0.361,0.05,0.73,0.069,1.102,0.069h1.75c2.189,0,4.209-0.81,5.859-2.08v0.95c0,1.21,0.699,2.32,1.801,2.83L32.545,32.127z"/>
		</g>
	</g>
	<path fill="#54C0EB" d="M40.586,35.535l-5.549-3.132l1.051,7.379l-3.594,1.069l1.941,2.768l-1.504,4.179h13.643
		C47.707,42.811,45.215,37.708,40.586,35.535"/>
	<path fill="#37A3C4" d="M31.898,31.725l0.283-1.188l-1.463-1.249C30.719,30.251,31.166,31.14,31.898,31.725"/>
	<path fill="#54C0EB" d="M7.412,35.535l5.551-3.132l-1.053,7.379l3.596,1.069l-1.943,2.768l1.506,4.179H1.426
		C0.293,42.811,2.783,37.708,7.412,35.535"/>
	<path fill="#37A3C4" d="M16.1,31.725l-0.283-1.188l1.463-1.249C17.279,30.251,16.832,31.14,16.1,31.725"/>
	<path fill="#F8B64C" d="M15.459,18.658c0.396,1.701,0.188,3.205-0.469,3.358c-0.654,0.151-1.508-1.104-1.904-2.805
		c-0.396-1.702-0.188-3.205,0.467-3.357C14.209,15.701,15.063,16.957,15.459,18.658"/>
	<path fill="#F8B64C" d="M32.514,18.658c-0.398,1.701-0.188,3.205,0.467,3.358c0.656,0.151,1.393-1.135,1.906-2.805
		c0.305-0.997,0.166-3.034-0.469-3.357C33.818,15.547,32.91,16.957,32.514,18.658"/>
	<path fill="#FFD15C" d="M33.375,23.608c-2.75,8.74-9.35,9.399-9.35,9.399s-6.611-0.659-9.361-9.399c0,0-1.27-3.9-0.469-7.51h0.01
		c0,0,4.639-2.23,6.02-6.561c0,0,2.35,5.04,13.59,6.42C34.357,16.235,34.408,19.929,33.375,23.608"/>
	<polygon fill="#F2F2F2" points="28.074,47.797 19.926,47.797 18.682,42.72 29.297,42.72 	"/>
	<polygon fill="#84DBFF" points="32.182,30.537 35.035,32.403 36.088,39.782 32.494,40.85 34.438,43.62 32.932,47.796 
		28.072,47.796 	"/>
	<polygon fill="#84DBFF" points="15.816,30.537 12.963,32.403 11.91,39.782 15.506,40.85 13.563,43.62 15.068,47.796 19.926,47.796 
			"/>
	<path fill="#84DBFF" d="M28.473,2.802c0,1.449-1.992,2.624-4.451,2.624c-2.457,0-4.449-1.175-4.449-2.624
		c0-1.448,1.992-2.624,4.449-2.624C26.48,0.178,28.473,1.354,28.473,2.802"/>
	<path fill="#54C0EB" d="M28.02,0.352c-0.021-0.009-0.043-0.017-0.066-0.025c-1.047-0.389-2.221,0.022-2.863,0.854
		c-0.004,0.004-0.006,0.008-0.01,0.012c-0.268,0.344-0.656,0.537-1.057,0.537c-0.402,0-0.791-0.193-1.059-0.537
		c-0.004-0.004-0.008-0.008-0.01-0.012c-0.643-0.831-1.814-1.242-2.863-0.854c-0.023,0.009-0.045,0.017-0.066,0.025
		c-1.838,0.722-5.039,5.291-5.039,5.291s0.275,0.638,1.256,1.429c1.555,1.257,3.432,2.204,5.496,2.57
		c3.342,0.592,6.838-0.137,9.404-2.056c1.34-1.002,1.916-1.912,1.916-1.912S29.857,1.074,28.02,0.352"/>
</g>
</svg>
