<?xml version="1.0" encoding="utf-8"?>
<!-- Generator: Adobe Illustrator 18.0.0, SVG Export Plug-In . SVG Version: 6.00 Build 0)  -->
<!DOCTYPE svg PUBLIC "-//W3C//DTD SVG 1.1//EN" "http://www.w3.org/Graphics/SVG/1.1/DTD/svg11.dtd">
<svg version="1.1" id="Layer_1" xmlns="http://www.w3.org/2000/svg" xmlns:xlink="http://www.w3.org/1999/xlink" x="0px" y="0px"
	 viewBox="0 0 48 48" enable-background="new 0 0 48 48" xml:space="preserve">
<g>
	<g>
		<g>
			<g>
				<g>
					<circle fill="#415A6B" cx="35.3" cy="35.3" r="4.8"/>
				</g>
			</g>
			<g>
				<g>
					<path fill="#FFD15C" d="M45,20.7L20.7,45l0,0c-1-6.7-4-12.9-8.8-17.7l0,0c-4.3-4.3-4.2-11.1,0-15.4h0c4.3-4.3,11.1-4.3,15.4,0
						l0,0C32.1,16.6,38.3,19.7,45,20.7L45,20.7z"/>
				</g>
			</g>
			<g>
				<g>
					<path fill="#F7B64C" d="M47.4,23.1L23.1,47.4c-0.8,0.8-2.1,0.8-2.9,0c-0.8-0.8-0.8-2.1,0-2.9l24.3-24.3c0.8-0.8,2.1-0.8,2.9,0
						C48.2,21.1,48.2,22.3,47.4,23.1z"/>
				</g>
			</g>
		</g>
		<g>
			<g>
				<g>
					<g>
						<path fill="#F3705A" d="M12.2,12.5c0,0-3.6,8.7-7,7.8C4,20,4.8,17.5,3.9,16.6C3,15.7,0.4,15.7,0,14.5
							C-0.8,11.2,10.7,11,10.7,11L12.2,12.5z"/>
					</g>
					<g>
						<path fill="#F05540" d="M12.2,12.5c0,0-3.6,8.7-6.9,7.8c-0.4-0.1-0.6-0.4-0.7-0.9c-0.3-1.2,0.4-2.3,1.4-2.9L12.2,12.5z"/>
					</g>
				</g>
				<g>
					<g>
						<path fill="#F3705A" d="M12.5,12.2c0,0,8.7-3.6,7.8-7C20,4,17.5,4.8,16.6,3.9C15.7,3,15.7,0.4,14.5,0
							C11.2-0.8,11,10.7,11,10.7L12.5,12.2z"/>
					</g>
					<g>
						<path fill="#F05540" d="M12.5,12.2c0,0,8.7-3.6,7.8-6.9c-0.1-0.4-0.4-0.6-0.9-0.7c-1.2-0.3-2.3,0.4-2.9,1.4L12.5,12.2z"/>
					</g>
				</g>
			</g>
			<g>
				<path fill="#F05540" d="M13.8,11.5c-0.3,1.2-1.1,2-2.3,2.3l-2.7-2.7c0.3-1.2,1.1-2,2.3-2.3L13.8,11.5z"/>
			</g>
		</g>
	</g>
</g>
</svg>
