<?xml version="1.0" encoding="utf-8"?>
<!-- Generator: Adobe Illustrator 18.0.0, SVG Export Plug-In . SVG Version: 6.00 Build 0)  -->
<!DOCTYPE svg PUBLIC "-//W3C//DTD SVG 1.1//EN" "http://www.w3.org/Graphics/SVG/1.1/DTD/svg11.dtd">
<svg version="1.1" id="Layer_1" xmlns="http://www.w3.org/2000/svg" xmlns:xlink="http://www.w3.org/1999/xlink" x="0px" y="0px"
	 viewBox="0 0 48 48" enable-background="new 0 0 48 48" xml:space="preserve">
<g>
	<path fill="#F8B64C" d="M28,8.3h-9.3C18.3,8.3,18,8,18,7.5V7c0-0.4,0.3-0.8,0.8-0.8H28c0.4,0,0.8,0.3,0.8,0.8v0.6
		C28.8,8,28.4,8.3,28,8.3z"/>
	<g>
		<path fill="#CDD6E0" d="M31,10.1h-1.2c-0.5,0-0.9-0.4-0.9-0.9s0.4-0.9,0.9-0.9H31c1.3,0,2.4-1.1,2.4-2.4S32.3,3.5,31,3.5h-6.6
			c-0.5,0-0.9-0.4-0.9-0.9s0.4-0.9,0.9-0.9H31c2.3,0,4.2,1.9,4.2,4.2S33.3,10.1,31,10.1z"/>
	</g>
	<rect x="21.7" y="2.7" fill="#FFD15C" width="3.3" height="3.5"/>
	<circle fill="#40596B" cx="23.4" cy="2.5" r="2.4"/>
	<path fill="#40596B" d="M30.8,10.9H16V8.3c0-0.6,0.4-1,1-1h12.8c0.6,0,1,0.4,1,1V10.9z"/>
	<path fill="#84DBFF" d="M34,18.9L34,18.9c0-0.4-0.1-0.7-0.3-1c-0.2-0.4-0.4-0.9-0.4-1.4v-3.7c0-1.1-0.9-2-2-2H15.5
		c-1.1,0-2,0.9-2,2v3.7c0,0.5-0.2,0.9-0.4,1.4c-0.2,0.3-0.3,0.6-0.3,1v0c0,0.4,0.1,0.7,0.3,1c0.2,0.4,0.4,0.9,0.4,1.4v0.9
		c0,0.5-0.2,0.9-0.4,1.4c-0.2,0.3-0.3,0.6-0.3,1c0,0.4,0.1,0.7,0.3,1c0.2,0.4,0.4,0.9,0.4,1.4v0.9c0,0.5-0.2,0.9-0.4,1.4
		c-0.2,0.3-0.3,0.6-0.3,1c0,0.4,0.1,0.7,0.3,1c0.2,0.4,0.4,0.9,0.4,1.4v13.4c0,1.1,0.9,2,2,2h15.8c1.1,0,2-0.9,2-2V32.5
		c0-0.5,0.2-0.9,0.4-1.4c0.2-0.3,0.3-0.6,0.3-1s-0.1-0.7-0.3-1c-0.2-0.4-0.4-0.9-0.4-1.4v-0.9c0-0.5,0.2-0.9,0.4-1.4
		c0.2-0.3,0.3-0.6,0.3-1s-0.1-0.7-0.3-1c-0.2-0.4-0.4-0.9-0.4-1.4v-0.9c0-0.5,0.2-0.9,0.4-1.4C33.9,19.6,34,19.3,34,18.9z"/>
	<g>
		<rect x="17.1" y="7.7" fill="#334A5E" width="0.5" height="2.8"/>
		<rect x="19.5" y="7.7" fill="#334A5E" width="0.5" height="2.8"/>
		<rect x="21.9" y="7.7" fill="#334A5E" width="0.5" height="2.8"/>
		<rect x="24.3" y="7.7" fill="#334A5E" width="0.5" height="2.8"/>
		<rect x="26.7" y="7.7" fill="#334A5E" width="0.5" height="2.8"/>
		<rect x="29.1" y="7.7" fill="#334A5E" width="0.5" height="2.8"/>
	</g>
	<path fill="#54C0EB" d="M28.5,37.7H18.3c-1.1,0-2-0.9-2-2V23.1c0-1.1,0.9-2,2-2h10.2c1.1,0,2,0.9,2,2v12.5
		C30.5,36.8,29.6,37.7,28.5,37.7z"/>
	<g>
		<path fill="#FFFFFF" d="M27.7,31.5c0,2.4-1.9,4.3-4.3,4.3S19,33.9,19,31.5s4.3-8.6,4.3-8.6S27.7,29.1,27.7,31.5z"/>
		<path opacity="0.1" fill="#231F20" d="M24.4,34.8c-2.4,0-4.3-1.9-4.3-4.3c0-1.7,2.2-5.4,3.5-7.3c-0.1-0.2-0.2-0.2-0.2-0.2
			S19,29.1,19,31.5c0,2.4,1.9,4.3,4.3,4.3c1.4,0,2.7-0.7,3.5-1.8C26.2,34.5,25.3,34.8,24.4,34.8z"/>
	</g>
</g>
</svg>
