<?xml version="1.0" encoding="utf-8"?>
<!-- Generator: Adobe Illustrator 20.1.0, SVG Export Plug-In . SVG Version: 6.00 Build 0)  -->
<!DOCTYPE svg PUBLIC "-//W3C//DTD SVG 1.1//EN" "http://www.w3.org/Graphics/SVG/1.1/DTD/svg11.dtd">
<svg version="1.1" id="Layer_1" xmlns="http://www.w3.org/2000/svg" xmlns:xlink="http://www.w3.org/1999/xlink" x="0px" y="0px"
	 viewBox="0 0 49 49" enable-background="new 0 0 49 49" xml:space="preserve">
<g>
	<rect x="12.2" y="17.4" fill="#F2F2F2" width="24.6" height="30.8"/>
	<path fill="#E2E2E2" d="M36.8,17.4v30.8h9.5c1.1,0,2-0.9,2-2V17.9c0-0.2-0.2-0.4-0.4-0.4H36.8z"/>
	<path fill="#E2E2E2" d="M12.2,17.4H1.1c-0.2,0-0.4,0.2-0.4,0.4v28.3c0,1.1,0.9,2,2,2h9.5V17.4z"/>
	<polygon fill="#FF7058" points="25.6,22 25.6,19.6 23.4,19.6 23.4,22 20.6,22 20.6,24.2 23.4,24.2 23.4,29.1 25.6,29.1 25.6,24.2 
		28.3,24.2 28.3,22 	"/>
	<polygon fill="#E2E2E2" points="33.4,13.1 33.4,17.4 15.6,17.4 15.6,13.1 24.5,4.3 	"/>
	<path fill="#CDD6E0" d="M33.4,13.1v1.3c-0.1-0.1-0.2-0.2-0.3-0.3l-8.5-8.5L16,14.1c-0.1,0.1-0.2,0.2-0.4,0.3v-1.3l8.9-8.8
		L33.4,13.1z"/>
	<path fill="#40596B" d="M34.8,13.9c-0.4,0-0.8-0.2-1.1-0.5l-9.2-9.1l-9.2,9.1c-0.6,0.6-1.6,0.6-2.2,0c-0.6-0.6-0.6-1.6,0-2.2
		L23.4,1C24,0.3,25,0.3,25.6,1l10.3,10.2c0.6,0.6,0.6,1.6,0,2.2C35.6,13.7,35.2,13.9,34.8,13.9z"/>
	<g>
		<path fill="#40596B" d="M31,39v9.5H18V39c0-3.6,2.9-6.5,6.5-6.5l0,0C28.1,32.6,31,35.5,31,39z"/>
	</g>
	<rect x="40" y="25.1" fill="#FFFFFF" width="5.1" height="5.1"/>
	<rect x="21.9" y="10.5" fill="#ACB3BA" width="5.1" height="5.1"/>
	<rect x="40" y="35.4" fill="#FFFFFF" width="5.1" height="5.1"/>
	<g>
		<rect x="3.9" y="25.1" fill="#FFFFFF" width="5.1" height="5.1"/>
		<rect x="3.9" y="35.4" fill="#FFFFFF" width="5.1" height="5.1"/>
	</g>
</g>
</svg>
