<?xml version="1.0" encoding="utf-8"?>
<!-- Generator: Adobe Illustrator 16.0.0, SVG Export Plug-In . SVG Version: 6.00 Build 0)  -->
<!DOCTYPE svg PUBLIC "-//W3C//DTD SVG 1.1//EN" "http://www.w3.org/Graphics/SVG/1.1/DTD/svg11.dtd">
<svg version="1.1" id="Layer_1" xmlns="http://www.w3.org/2000/svg" xmlns:xlink="http://www.w3.org/1999/xlink" x="0px" y="0px"
	 width="48px" height="48px" viewBox="0 0 48 48" enable-background="new 0 0 48 48" xml:space="preserve">
<g>
	<path fill="#F2F2F2" d="M43.084,2.91H4.916c-1.105,0-2,0.896-2,2V46c0,1.104,0.895,2,2,2h38.168c1.104,0,2-0.896,2-2V4.91
		C45.084,3.806,44.188,2.91,43.084,2.91"/>
	<path fill="#FFFFFF" d="M40.424,6.99c0,1.127-0.912,2.04-2.039,2.04s-2.041-0.913-2.041-2.04c0-1.126,0.914-2.04,2.041-2.04
		S40.424,5.864,40.424,6.99"/>
	<path fill="#334A5E" d="M38.416,0h-0.064c-0.621,0-1.125,0.504-1.125,1.125V6.52c0,0.621,0.504,1.125,1.125,1.125h0.064
		c0.621,0,1.125-0.504,1.125-1.125V1.125C39.541,0.504,39.037,0,38.416,0"/>
	<path fill="#FFFFFF" d="M30.834,6.99c0,1.127-0.912,2.04-2.039,2.04s-2.041-0.913-2.041-2.04c0-1.126,0.914-2.04,2.041-2.04
		S30.834,5.864,30.834,6.99"/>
	<path fill="#334A5E" d="M28.826,0h-0.064c-0.621,0-1.125,0.504-1.125,1.125V6.52c0,0.621,0.504,1.125,1.125,1.125h0.064
		c0.621,0,1.125-0.504,1.125-1.125V1.125C29.951,0.504,29.447,0,28.826,0"/>
	<path fill="#FFFFFF" d="M21.244,6.99c0,1.127-0.912,2.04-2.039,2.04s-2.041-0.913-2.041-2.04c0-1.126,0.914-2.04,2.041-2.04
		S21.244,5.864,21.244,6.99"/>
	<path fill="#334A5E" d="M19.236,0h-0.064c-0.621,0-1.125,0.504-1.125,1.125V6.52c0,0.621,0.504,1.125,1.125,1.125h0.064
		c0.621,0,1.125-0.504,1.125-1.125V1.125C20.361,0.504,19.857,0,19.236,0"/>
	<path fill="#FFFFFF" d="M11.654,6.99c0,1.127-0.912,2.04-2.039,2.04S7.574,8.117,7.574,6.99c0-1.126,0.914-2.04,2.041-2.04
		S11.654,5.864,11.654,6.99"/>
	<path fill="#334A5E" d="M9.646,0H9.582C8.961,0,8.457,0.504,8.457,1.125V6.52c0,0.621,0.504,1.125,1.125,1.125h0.064
		c0.621,0,1.125-0.504,1.125-1.125V1.125C10.771,0.504,10.268,0,9.646,0"/>
	<path fill="#CDD6E0" d="M45.084,40.755v5.192c0,1.134-0.92,2.053-2.053,2.053h-5.096L45.084,40.755z"/>
	<path fill="#E8EAEA" d="M45.084,40.756h-5.09c-1.135,0-2.055,0.919-2.055,2.053V48L45.084,40.756z"/>
	<path fill="#CDD6E0" d="M15.17,22.598H9.043V16.47h6.127V22.598z M17.213,14.428H7v10.213h10.213V14.428z"/>
	<polygon fill="#FF7058" points="13.248,22.013 9.531,18.296 10.613,17.213 13.248,19.847 19.572,13.521 20.656,14.604 	"/>
	<rect x="20.648" y="16.829" fill="#4CDBC4" width="20.35" height="1.852"/>
	<rect x="20.648" y="20.388" fill="#4CDBC4" width="8.549" height="1.852"/>
	<path fill="#CDD6E0" d="M15.17,35.735H9.043v-6.128h6.127V35.735z M17.213,27.564H7v10.213h10.213V27.564z"/>
	<polygon fill="#FF7058" points="13.248,35.151 9.531,31.434 10.613,30.351 13.248,32.985 19.572,26.659 20.656,27.742 	"/>
	<rect x="20.648" y="29.965" fill="#FFD15C" width="20.35" height="1.852"/>
	<rect x="20.648" y="33.524" fill="#FFD15C" width="8.549" height="1.852"/>
</g>
</svg>
