<?xml version="1.0" encoding="utf-8"?>
<!-- Generator: Adobe Illustrator 18.0.0, SVG Export Plug-In . SVG Version: 6.00 Build 0)  -->
<!DOCTYPE svg PUBLIC "-//W3C//DTD SVG 1.1//EN" "http://www.w3.org/Graphics/SVG/1.1/DTD/svg11.dtd">
<svg version="1.1" id="Layer_1" xmlns="http://www.w3.org/2000/svg" xmlns:xlink="http://www.w3.org/1999/xlink" x="0px" y="0px"
	 viewBox="0 0 512 512" enable-background="new 0 0 512 512" xml:space="preserve">
<g>
	<path fill="#40596B" d="M123.2,152.2H23.1c-11.7,0-21.1,9.5-21.1,21.1v314.9c0,11.7,9.5,21.1,21.1,21.1h100.1
		c11.7,0,21.1-9.5,21.1-21.1V173.3C144.3,161.6,134.8,152.2,123.2,152.2z"/>
	<path fill="#FFD15C" d="M510,211v-3.5c0-21.4-17.3-38.7-38.7-38.7H311.7c23.4-32,37.2-71.4,37.2-114V43.1
		c0-22.3-18.1-40.4-40.4-40.4c-22.3,0-40.4,18.1-40.4,40.4v11.7c-12,109.4-123.8,118.5-123.8,118.5s0.3,314.7,0,316.2l297.7,3.2
		c21.4,0,38.7-17.3,38.7-38.7v-3.5c0-21.4-17.3-38.7-38.7-38.7h10.4c21.4,0,38.7-17.3,38.7-38.7v-3.5c0-21.4-17.3-38.7-38.7-38.7
		h10.1c21.4,0,38.7-17.3,38.7-38.7v-3.5c0-21.4-17.3-38.7-38.7-38.7h8.8C492.7,249.8,510,232.4,510,211z"/>
	<circle fill="#F2F2F2" cx="73.1" cy="441.3" r="26.5"/>
</g>
</svg>
