<?xml version="1.0" encoding="utf-8"?>
<!-- Generator: Adobe Illustrator 18.0.0, SVG Export Plug-In . SVG Version: 6.00 Build 0)  -->
<!DOCTYPE svg PUBLIC "-//W3C//DTD SVG 1.1//EN" "http://www.w3.org/Graphics/SVG/1.1/DTD/svg11.dtd">
<svg version="1.1" id="Layer_1" xmlns="http://www.w3.org/2000/svg" xmlns:xlink="http://www.w3.org/1999/xlink" x="0px" y="0px"
	 viewBox="0 0 512 512" enable-background="new 0 0 512 512" xml:space="preserve">
<g>
	<g>
		<path fill="#4CDBC4" d="M510,23.2C510,11.5,500.5,2,488.8,2H23.2C11.5,2,2,11.5,2,23.2l0,81h0.1c0.5-11.2,9.7-20.1,21.1-20.1
			h465.6c11.4,0,20.6,9,21.1,20.1h0.1L510,23.2z"/>
		<path fill="#FFFFFF" d="M476.1,84.1V63.7c-2.2,0-4.3-0.2-6.5-0.7c-12.5-2.9-21.8-14.1-21.8-27.3H64c0,13.2-9.3,24.4-21.7,27.3
			c-2,0.5-4.2,0.7-6.5,0.7v20.5H476.1z"/>
		<path fill="#4CDBC4" d="M251.9,51.5c-11.2,0-21.7,4.1-30.7,11.5h61.4C273.6,55.6,263.1,51.5,251.9,51.5z"/>
		<path fill="#3DC9AE" d="M23.2,84.1h12.7V63.7c2.2,0,4.4-0.2,6.5-0.7H23.2C15.5,62.9,8.3,65,2,68.6v36.2
			C2.2,93.4,11.6,84.1,23.2,84.1z"/>
		<path fill="#3DC9AE" d="M488.8,62.9h-19.2c2.1,0.5,4.2,0.7,6.5,0.7v20.5h12.7c10,0,18.4,7,20.6,16.3l0.6,0.3v-32
			C503.8,65,496.6,62.9,488.8,62.9z"/>
		<path fill="#F2F2F2" d="M300.2,84.1h175.9V63.7c-2.2,0-4.3-0.2-6.5-0.7H282.6C289.4,68.3,295.4,75.6,300.2,84.1z"/>
		<path fill="#F2F2F2" d="M203.6,84.1c4.8-8.6,10.7-15.9,17.6-21.2H42.4c-2,0.5-4.2,0.7-6.5,0.7v20.5H203.6z"/>
		<path fill="#3DC9AE" d="M300.2,84.1c-4.9-8.6-10.8-15.9-17.7-21.2h-61.4c-6.9,5.4-12.8,12.7-17.6,21.2H300.2z"/>
	</g>
	<g>
		<path fill="#4CDBC4" d="M510,104.7c0-11.7-9.5-21.2-21.2-21.2H23.2C11.5,83.4,2,92.9,2,104.7l0,81h0.1
			c0.5-11.2,9.7-20.1,21.1-20.1h465.6c11.4,0,20.6,9,21.1,20.1h0.1L510,104.7z"/>
		<path fill="#FFFFFF" d="M476.1,165.6v-20.5c-2.2,0-4.3-0.2-6.5-0.7c-12.5-2.9-21.8-14.1-21.8-27.3H64c0,13.2-9.3,24.4-21.7,27.3
			c-2,0.5-4.2,0.7-6.5,0.7v20.5H476.1z"/>
		<path fill="#4CDBC4" d="M251.9,132.9c-11.2,0-21.7,4.1-30.7,11.5h61.4C273.6,137,263.1,132.9,251.9,132.9z"/>
		<path fill="#3DC9AE" d="M23.2,165.6h12.7v-20.5c2.2,0,4.4-0.2,6.5-0.7H23.2c-7.7,0-14.9,2.1-21.2,5.7v36.2
			C2.2,174.8,11.6,165.6,23.2,165.6z"/>
		<path fill="#3DC9AE" d="M488.8,144.3h-19.2c2.1,0.5,4.2,0.7,6.5,0.7v20.5h12.7c10,0,18.4,7,20.6,16.3l0.6,0.3v-32
			C503.8,146.5,496.6,144.3,488.8,144.3z"/>
		<path fill="#F2F2F2" d="M300.2,165.6h175.9v-20.5c-2.2,0-4.3-0.2-6.5-0.7H282.6C289.4,149.7,295.4,157,300.2,165.6z"/>
		<path fill="#F2F2F2" d="M203.6,165.6c4.8-8.6,10.7-15.9,17.6-21.2H42.4c-2,0.5-4.2,0.7-6.5,0.7v20.5H203.6z"/>
		<path fill="#3DC9AE" d="M300.2,165.6c-4.9-8.6-10.8-15.9-17.7-21.2h-61.4c-6.9,5.4-12.8,12.7-17.6,21.2H300.2z"/>
	</g>
	<path fill="#4CDBC4" d="M488.8,247H23.2C11.5,247,2,256.4,2,268v221c0,11.6,9.5,21,21.2,21h465.6c11.7,0,21.2-9.4,21.2-21V268
		C510,256.4,500.5,247,488.8,247z"/>
	<path fill="#FFFFFF" d="M35.9,448.4V308.5c15.6,0,28.2-12.5,28.2-28h383.8c0,15.5,12.6,28,28.2,28v139.9c-15.6,0-28.2,12.5-28.2,28
		H64.1C64.1,461,51.5,448.4,35.9,448.4z"/>
	<ellipse fill="#4CDBC4" cx="138.3" cy="378.5" rx="18.9" ry="18.7"/>
	<ellipse fill="#4CDBC4" cx="365.5" cy="378.5" rx="18.9" ry="18.7"/>
	<ellipse fill="#4CDBC4" cx="251.9" cy="378.5" rx="60.6" ry="82.1"/>
	<path fill="#FFFFFF" d="M275.3,379.1c-3.4-4-9.7-7.2-19-9.7v-22.5c3.8,1.6,6.1,4.7,7,9.2l14.7-1.9c-1-5.8-3.4-10.4-7-13.8
		c-3.7-3.5-8.6-5.5-14.7-6.3v-5.7h-8.4v5.7c-6.7,0.7-12,3.1-16,7.4c-4.1,4.3-6,9.6-6,15.9s1.7,11.5,5.3,15.9
		c3.6,4.4,9.1,7.7,16.8,9.8v24.2c-2.1-1-4-2.6-5.7-4.9c-1.7-2.2-2.9-4.9-3.5-7.9l-15.2,1.6c1.1,7.6,3.8,13.4,8,17.6
		c4.2,4.2,9.7,6.7,16.4,7.4v7.6h8.4v-7.8c7.6-1.1,13.5-4,17.7-8.7c4.2-4.8,6.4-10.6,6.4-17.6C280.4,388.2,278.7,383.1,275.3,379.1z
		 M247.9,366.6c-2.5-1.1-4.4-2.5-5.6-4.2c-1.2-1.8-1.9-3.6-1.9-5.7c0-2.2,0.7-4.3,2-6.1c1.4-1.8,3.2-3.2,5.5-3.9V366.6z M263.4,404
		c-1.8,2.1-4.2,3.5-7.1,4v-22.5c3.5,1,6,2.5,7.6,4.3c1.5,1.9,2.3,4.1,2.3,6.7C266.1,399.4,265.2,401.9,263.4,404z"/>
	<g>
		<path fill="#4CDBC4" d="M510,186.1c0-11.7-9.5-21.2-21.2-21.2H23.2c-11.7,0-21.2,9.5-21.2,21.2l0,81h0.1
			C2.5,256,11.8,247,23.2,247h465.6c11.4,0,20.6,9,21.1,20.1h0.1L510,186.1z"/>
		<path fill="#FFFFFF" d="M476.1,247v-20.5c-2.2,0-4.3-0.2-6.5-0.7c-12.5-2.9-21.8-14.1-21.8-27.3H64c0,13.2-9.3,24.4-21.7,27.3
			c-2,0.5-4.2,0.7-6.5,0.7V247H476.1z"/>
		<path fill="#4CDBC4" d="M251.9,214.3c-11.2,0-21.7,4.1-30.7,11.5h61.4C273.6,218.5,263.1,214.3,251.9,214.3z"/>
		<g>
			<path fill="#3DC9AE" d="M2,231.5v36.2c0.2-11.4,9.6-20.7,21.1-20.7h12.7v-20.5c2.2,0,4.4-0.2,6.5-0.7H23.2
				C15.5,225.8,8.3,227.9,2,231.5z"/>
			<path fill="#3DC9AE" d="M488.8,225.8h-19.2c2.1,0.5,4.2,0.7,6.5,0.7V247h12.7c10,0,18.4,7,20.6,16.3l0.6,0.3v-32
				C503.8,227.9,496.6,225.8,488.8,225.8z"/>
		</g>
		<path fill="#F2F2F2" d="M300.2,247h175.9v-20.5c-2.2,0-4.3-0.2-6.5-0.7H282.6C289.4,231.1,295.4,238.4,300.2,247z"/>
		<path fill="#F2F2F2" d="M203.6,247c4.8-8.6,10.7-15.9,17.6-21.2H42.4c-2,0.5-4.2,0.7-6.5,0.7V247H203.6z"/>
		<path fill="#3DC9AE" d="M300.2,247c-4.9-8.6-10.8-15.9-17.7-21.2h-61.4c-6.9,5.4-12.8,12.7-17.6,21.2H300.2z"/>
	</g>
</g>
</svg>
