<?xml version="1.0" encoding="utf-8"?>
<!-- Generator: Adobe Illustrator 18.0.0, SVG Export Plug-In . SVG Version: 6.00 Build 0)  -->
<!DOCTYPE svg PUBLIC "-//W3C//DTD SVG 1.1//EN" "http://www.w3.org/Graphics/SVG/1.1/DTD/svg11.dtd">
<svg version="1.1" id="Layer_1" xmlns="http://www.w3.org/2000/svg" xmlns:xlink="http://www.w3.org/1999/xlink" x="0px" y="0px"
	 viewBox="0 0 48 48" enable-background="new 0 0 48 48" xml:space="preserve">
<g>
	<g>
		<g>
			<path fill="#FFD15C" d="M24.2,9.9c-7.8,0-14.1,6.3-14.1,14.1s6.3,14.1,14.1,14.1c7.8,0,14.1-6.3,14.1-14.1S32,9.9,24.2,9.9z"/>
		</g>
		<g>
			<path fill="#F7B64C" d="M24.2,13.5c-5.8,0-10.5,4.7-10.5,10.5s4.7,10.5,10.5,10.5c5.8,0,10.5-4.7,10.5-10.5S30,13.5,24.2,13.5z"
				/>
		</g>
		<g>
			<path fill="#FFD15C" d="M23.5,30.9v-1.2c-1.4-0.2-2.7-0.9-3.9-1.9l1.6-1.9c0.9,0.8,1.7,1.2,2.4,1.5v-2.5c-1.2-0.3-2-0.7-2.6-1.2
				c-0.5-0.5-0.8-1.2-0.8-2.2c0-1,0.3-1.7,0.9-2.4c0.6-0.6,1.4-1,2.5-1.1v-0.8h1.8V18c1.1,0.2,2.2,0.6,3.3,1.4l-1.4,2
				c-0.7-0.5-1.4-0.8-2-1v2.4c1.2,0.3,2.1,0.7,2.7,1.3c0.6,0.5,0.9,1.3,0.9,2.2c0,1-0.3,1.8-1,2.4c-0.6,0.6-1.5,1-2.6,1.1v1.2H23.5z
				 M23.5,20.3c-0.5,0.2-0.7,0.5-0.7,0.9c0,0.4,0.2,0.8,0.7,1V20.3z M26.1,26.4c0-0.2-0.1-0.4-0.2-0.6s-0.3-0.3-0.7-0.4v2.1
				C25.8,27.2,26.1,26.9,26.1,26.4z"/>
		</g>
		<g>
			<path fill="#F3705A" d="M22.5,40.6C14.1,39.8,7.4,32.7,7.4,24c0-9.2,7.4-16.6,16.6-16.6c4,0,7.7,1.4,10.6,3.8L39.9,6
				C35.6,2.3,30.1,0,24,0C10.8,0,0,10.8,0,24c0,12.7,10,23.2,22.5,24V40.6z"/>
			<path fill="#415A6B" d="M42.2,8.4L37,13.6c2,2.4,3.3,5.4,3.6,8.7H48C47.6,17,45.5,12.2,42.2,8.4z"/>
			<path fill="#8AD7F8" d="M40.6,25.7c-0.8,7.8-6.9,13.9-14.7,14.8V48C37.7,47.1,47.2,37.6,48,25.7H40.6z"/>
		</g>
	</g>
</g>
</svg>
