<?xml version="1.0" encoding="utf-8"?>
<!-- Generator: Adobe Illustrator 18.0.0, SVG Export Plug-In . SVG Version: 6.00 Build 0)  -->
<!DOCTYPE svg PUBLIC "-//W3C//DTD SVG 1.1//EN" "http://www.w3.org/Graphics/SVG/1.1/DTD/svg11.dtd">
<svg version="1.1" id="Layer_1" xmlns="http://www.w3.org/2000/svg" xmlns:xlink="http://www.w3.org/1999/xlink" x="0px" y="0px"
	 viewBox="0 0 48 48" enable-background="new 0 0 48 48" xml:space="preserve">
<g>
	<g>
		<path fill="#E8EAE9" d="M36.1,2.4l-20,6.9c1.5-3.4,4.5-6.3,8.5-7.6C28.7,0.2,32.8,0.6,36.1,2.4z"/>
		<g>
			<g>
				<path fill="#ADB3BA" d="M37.1,6.5l0.9,2.7c3.1,0.9,5.9,3.3,7,6.3c0.7,1.8,0.6,3.5-0.3,4.7c-0.5,0.8-1.4,1.4-2.4,1.8l0.8,2.3
					c0,0,0,0,0.1,0c1.5-0.5,2.7-1.5,3.6-2.7c1.3-1.9,1.4-4.4,0.5-6.9C45.8,10.4,41.6,7.1,37.1,6.5z"/>
			</g>
		</g>
		<g>
			<g>
				<path fill="#E8EAE9" d="M9.2,12.9l-5.3,8c2.1,0.6,4.3-0.2,5.6-2.1S10.5,14.6,9.2,12.9z"/>
			</g>
			<g>
				<polygon fill="#E8EAE9" points="20.6,24.1 9.2,17.5 8.1,19.2 22.7,30.1 				"/>
			</g>
		</g>
		<g>
			<path fill="#E8EAE9" d="M45.4,28.7l-20.5,7c-1.4,0.5-2.9-0.4-3.2-1.8l-4.9-23l19.7-6.8l10.3,21.1C47.5,26.6,46.8,28.2,45.4,28.7z
				"/>
		</g>
		<path fill="#ADB3BA" d="M37.1,4.9l-20.3,7c-0.7,0.2-1.5-0.1-1.7-0.8c-0.2-0.7,0.1-1.5,0.8-1.7l20.3-7c0.7-0.2,1.5,0.1,1.7,0.8
			C38.2,3.9,37.8,4.7,37.1,4.9z"/>
		<path fill="#E8EAE9" d="M26.8,1.3l-4.1,1.4c-0.3-1.1,0.3-2.2,1.4-2.5C25.2-0.2,26.3,0.3,26.8,1.3z"/>
	</g>
	<g>
		<g>
			<path fill="#8AD7F8" d="M7.8,31.1C7.8,33.3,6,35,3.9,35S0,33.3,0,31.1S3.9,24,3.9,24S7.8,29,7.8,31.1z"/>
		</g>
		<g>
			<path fill="#8AD7F8" d="M6.9,45c0,1.7-1.4,3-3,3s-3-1.4-3-3c0-1.7,3-5.6,3-5.6S6.9,43.3,6.9,45z"/>
		</g>
	</g>
</g>
</svg>
