<?xml version="1.0" encoding="utf-8"?>
<!-- Generator: Adobe Illustrator 18.0.0, SVG Export Plug-In . SVG Version: 6.00 Build 0)  -->
<!DOCTYPE svg PUBLIC "-//W3C//DTD SVG 1.1//EN" "http://www.w3.org/Graphics/SVG/1.1/DTD/svg11.dtd">
<svg version="1.1" id="Layer_1" xmlns="http://www.w3.org/2000/svg" xmlns:xlink="http://www.w3.org/1999/xlink" x="0px" y="0px"
	 viewBox="0 0 48 48" enable-background="new 0 0 48 48" xml:space="preserve">
<g>
	<g>
		<path fill="#F3F3F3" d="M15.4,48l-9.8-9.8V3c0-1.7,1.3-3,3-3l30.8,0c1.7,0,3,1.3,3,3v42c0,1.7-1.3,3-3,3H15.4z"/>
		<g>
			<polygon fill="#ADB3BA" points="15.4,48 5.6,38.2 15.4,38.2 			"/>
		</g>
		<g>
			<g>
				<g>
					<g>
						<polygon fill="#415A6B" points="13.6,16.9 20.3,10.2 20.3,8.1 12.8,15.6 12.8,16.9 						"/>
						<polygon fill="#415A6B" points="26.2,12.6 21.8,8.2 21.8,10.3 26.2,14.8 						"/>
						<polygon fill="#415A6B" points="27.9,12.7 27.9,14.8 35.2,7.5 35.2,5.4 						"/>
					</g>
				</g>
				<g>
					<circle fill="#FFD15C" cx="12" cy="17.4" r="2.3"/>
				</g>
				<g>
					<circle fill="#66C6B9" cx="20.9" cy="8.5" r="2.3"/>
				</g>
				<g>
					<circle fill="#F3705A" cx="27.2" cy="14.6" r="2.3"/>
				</g>
				<g>
					<circle fill="#8AD7F8" cx="36" cy="5.7" r="2.3"/>
				</g>
			</g>
			<g>
				<rect x="12" y="23.6" fill="#8AD7F8" width="2.9" height="5.7"/>
			</g>
			<g>
				<rect x="17.6" y="17.7" fill="#F3705A" width="2.9" height="11.6"/>
			</g>
			<g>
				<rect x="23.3" y="20.8" fill="#66C6B9" width="2.9" height="8.5"/>
			</g>
			<g>
				<rect x="28.9" y="19.5" fill="#FFD15C" width="2.9" height="9.9"/>
			</g>
			<g>
				<rect x="34.6" y="14.6" fill="#415A6B" width="2.9" height="14.8"/>
			</g>
			<g>
				<g>
					<rect x="10.2" y="33.4" fill="#CED6E0" width="27.6" height="2.4"/>
				</g>
				<g>
					<rect x="19.6" y="40.6" fill="#CED6E0" width="18.2" height="2.2"/>
				</g>
			</g>
		</g>
	</g>
</g>
</svg>
