<?xml version="1.0" encoding="utf-8"?>
<!-- Generator: Adobe Illustrator 18.0.0, SVG Export Plug-In . SVG Version: 6.00 Build 0)  -->
<!DOCTYPE svg PUBLIC "-//W3C//DTD SVG 1.1//EN" "http://www.w3.org/Graphics/SVG/1.1/DTD/svg11.dtd">
<svg version="1.1" id="Layer_1" xmlns="http://www.w3.org/2000/svg" xmlns:xlink="http://www.w3.org/1999/xlink" x="0px" y="0px"
	 viewBox="0 0 48 48" enable-background="new 0 0 48 48" xml:space="preserve">
<g>
	<g>
		<polygon fill="#CDD6E0" points="41.8,37.5 41.8,39 34.4,39 34.4,30.2 35.9,30.2 35.9,37.5 		"/>
	</g>
	<g>
		<rect x="28.6" y="30.2" fill="#CDD6E0" width="1.5" height="14.1"/>
	</g>
	<g>
		<polygon fill="#CDD6E0" points="17.6,30.2 17.6,37 10.1,37 10.1,35.5 16.1,35.5 16.1,30.2 		"/>
	</g>
	<g>
		<polygon fill="#CDD6E0" points="23.5,30.2 23.5,46.4 12.9,46.4 12.9,44.9 22,44.9 22,30.2 		"/>
	</g>
	<path fill="#54C0EB" d="M39.7,13c-0.2-4.2-3.6-7.5-7.8-7.5c-1.3,0-2.4,0.3-3.5,0.8C26.5,2.6,22.7,0,18.2,0C11.9,0,6.8,5.1,6.8,11.3
		c0,0.6,0.1,1.3,0.2,1.9c-4,0.7-7,4.2-7,8.4c0,4.7,3.8,8.6,8.6,8.6h30.8c4.7,0,8.6-3.8,8.6-8.6C48,17,44.3,13.2,39.7,13z"/>
	<path fill="#84DBFF" d="M9.6,12.7c-0.4,0-0.8-0.3-0.8-0.8c0-5.5,4.5-10,10-10c0.4,0,0.8,0.3,0.8,0.8s-0.3,0.8-0.8,0.8
		c-4.7,0-8.5,3.8-8.5,8.5C10.3,12.4,10,12.7,9.6,12.7z"/>
	<circle fill="#FF7058" cx="9.7" cy="36.2" r="2.3"/>
	<circle fill="#FF7058" cx="11.3" cy="45.7" r="2.3"/>
	<circle fill="#FF7058" cx="29.3" cy="45.7" r="2.3"/>
	<circle fill="#FF7058" cx="43.3" cy="38.2" r="2.3"/>
</g>
</svg>
