<?xml version="1.0" encoding="utf-8"?>
<!-- Generator: Adobe Illustrator 18.0.0, SVG Export Plug-In . SVG Version: 6.00 Build 0)  -->
<!DOCTYPE svg PUBLIC "-//W3C//DTD SVG 1.1//EN" "http://www.w3.org/Graphics/SVG/1.1/DTD/svg11.dtd">
<svg version="1.1" id="Layer_1" xmlns="http://www.w3.org/2000/svg" xmlns:xlink="http://www.w3.org/1999/xlink" x="0px" y="0px"
	 viewBox="0 0 48 48" enable-background="new 0 0 48 48" xml:space="preserve">
<g>
	<path fill="#F8B64C" d="M43,5H19.1V2c0-1.1-0.9-2-2-2H5C3.9,0,3,0.9,3,2v13.1h42V7C45,5.9,44.1,5,43,5z"/>
	<path fill="#FFD15C" d="M43.1,48H4.9c-1.1,0-1.9-0.8-2-1.9L0,17.3c-0.1-1.2,0.8-2.2,2-2.2h44c1.2,0,2.1,1,2,2.2l-2.9,28.8
		C45.1,47.2,44.2,48,43.1,48z"/>
	<rect x="5.5" y="8" fill="#F2F2F2" width="37" height="7.1"/>
	<rect x="8" y="10.3" fill="#CDD6E0" width="32" height="2.5"/>
	<circle fill="#FF7058" cx="24" cy="31.6" r="8.7"/>
	<polygon fill="#FFFFFF" points="30,30.6 25,30.6 25,25.6 23,25.6 23,30.6 18,30.6 18,32.5 23,32.5 23,37.6 25,37.6 25,32.5 
		30,32.5 	"/>
	<path fill="#F1543F" d="M16.3,32.6c0-4.8,3.9-8.7,8.7-8.7c2.1,0,4.1,0.8,5.6,2.1c-1.6-1.9-4-3.1-6.6-3.1c-4.8,0-8.7,3.9-8.7,8.7
		c0,2.7,1.2,5,3.1,6.6C17.1,36.7,16.3,34.7,16.3,32.6z"/>
</g>
</svg>
