<?xml version="1.0" encoding="utf-8"?>
<!-- Generator: Adobe Illustrator 18.0.0, SVG Export Plug-In . SVG Version: 6.00 Build 0)  -->
<!DOCTYPE svg PUBLIC "-//W3C//DTD SVG 1.1//EN" "http://www.w3.org/Graphics/SVG/1.1/DTD/svg11.dtd">
<svg version="1.1" id="Layer_1" xmlns="http://www.w3.org/2000/svg" xmlns:xlink="http://www.w3.org/1999/xlink" x="0px" y="0px"
	 viewBox="0 0 48 48" enable-background="new 0 0 48 48" xml:space="preserve">
<g>
	<g>
		<g>
			<rect x="1" y="7.6" fill="#FFD15C" width="2.7" height="40.4"/>
		</g>
		<g>
			<path fill="#F3705A" d="M48,5.8c-13.2-11-24-2.9-24-2.9S13.2-5.2,0,5.8c0,0-0.5,23.5,20.3,16.7c2.5-1.2,4.9-1.2,7.4,0
				C48.5,29.3,48,5.8,48,5.8z M20.7,14.9C19.5,15.5,12,19,7.3,9.9C17.1,3.6,21,12.3,20.7,14.9z M27.3,14.9
				C27,12.3,30.9,3.6,40.7,9.9C36,19,28.5,15.5,27.3,14.9z"/>
		</g>
	</g>
</g>
</svg>
