<?xml version="1.0" encoding="utf-8"?>
<!-- Generator: Adobe Illustrator 18.0.0, SVG Export Plug-In . SVG Version: 6.00 Build 0)  -->
<!DOCTYPE svg PUBLIC "-//W3C//DTD SVG 1.1//EN" "http://www.w3.org/Graphics/SVG/1.1/DTD/svg11.dtd">
<svg version="1.1" id="Layer_1" xmlns="http://www.w3.org/2000/svg" xmlns:xlink="http://www.w3.org/1999/xlink" x="0px" y="0px"
	 viewBox="0 0 48 48" enable-background="new 0 0 48 48" xml:space="preserve">
<g>
	<g>
		<g>
			<g>
				<path fill="#4ABAA5" d="M13.2,34.6c1-3.6,4.8-5,7.7-3.3C18.8,33.7,15.7,35.4,13.2,34.6z"/>
			</g>
			<g>
				<path fill="#4ABAA5" d="M13.2,34.6c2.4-0.1,3,2.5,2.8,5.9C13.9,41,12.3,38.3,13.2,34.6z"/>
			</g>
		</g>
		<g>
			<path fill="#4ABAA5" d="M10.9,40.8c-2.3,0.4-3.8-2.8-3.2-7.5C10.2,33.3,11.2,36.6,10.9,40.8z"/>
		</g>
		<g>
			<path fill="#66C6B9" d="M21,25.1c-0.7,0.8-1.7,1.4-2.6,1.7c-1.2,1.6-2.6,2.8-3.3,2.6c-0.7-0.2-0.6-2,0.4-3.9
				c-0.2-0.8-0.1-2,0.5-3c1-1.8,3.2-2.4,4.7-1.5C22.2,21.8,22.3,23.7,21,25.1z"/>
			<g>
				<g>
					<path fill="#F05540" d="M36,18.2c-2.1,1.9-4.4,3.5-6.6,5.2c-3.6,2.4-9.1,3.7-12.2,2.3c-3.1-1.3-4.4-6.9-1-11.9
						c2.3-3.1,5.3-5.8,8.9-7.9C28.8,10,32.4,14.1,36,18.2z"/>
				</g>
				<g>
					<g>
						<path fill="#F3705A" d="M33.9,18.8c-2.3,1.8-8.7,1.2-14-0.1c-5.2-1.3-7.9-4.8-5.3-8.5C17.2,6.5,25.1,6.7,30,9.8
							C34.7,12.7,36,16.9,33.9,18.8z"/>
					</g>
					<g>
						<path fill="#F05540" d="M30.4,16.8c-1.8,1.4-6.3,1.4-9.9,0.3c-3.6-1.1-5.2-3.7-3.3-6.1c2-2.4,7.2-2.5,10.6-0.5
							C31.3,12.5,32.2,15.4,30.4,16.8z"/>
					</g>
				</g>
				<g>
					<g>
						<path fill="#F3705A" d="M36.7,23.2c-2.2,0.6-8-1.9-12.3-5.7c-4.4-3.8-5.6-8.9-2-10.4c3.6-1.4,9,1.7,12.1,6.3
							C37.4,17.9,38.9,22.5,36.7,23.2z"/>
					</g>
					<g>
						<path fill="#F05540" d="M34.3,20.7c-1.7,0.5-5.8-1.2-8.8-4.1c-3-2.9-3.7-6.4-1.3-7.4c2.4-1,6.3,1.1,8.6,4.4
							C35.2,17,36,20.2,34.3,20.7z"/>
					</g>
				</g>
				<g>
					<g>
						<path fill="#F3705A" d="M24.7,0.8c-5,2.4-4.9,9.4-1.9,13.4c2.9,3.9,7.2,5.3,9.7,3.7c2.7-1.8,3.4-8.1,3.2-12.4
							C35.7,1.5,30.4-1.5,24.7,0.8z"/>
					</g>
					<g>
						<path fill="#F05540" d="M24.9,3.1c-3.2,1.9-3.4,6.7-1.1,9.8c2.2,3.1,5.5,4.2,7.4,2.9c2.1-1.5,2.7-5.9,1.9-9.3
							C32.3,3.1,28.5,1.2,24.9,3.1z"/>
					</g>
				</g>
				<g>
					<g>
						<path fill="#F3705A" d="M39.4,17.4c-1.7,1.2-6.6-0.9-10.8-3.8c-4.1-2.8-6.1-6.5-3.7-8.1c2.7-1.8,9.1,0.2,12.4,3.4
							C40.7,11.8,41.2,15.8,39.4,17.4z"/>
					</g>
					<g>
						<path fill="#F05540" d="M36.9,15.1c-1.4,0.9-4.8-0.3-7.7-2.4c-2.8-2-3.9-4.6-2.2-5.7c1.9-1.2,6.1,0,8.5,2.2
							C38,11.4,38.4,14.1,36.9,15.1z"/>
					</g>
				</g>
				<path fill="#66C6B9" d="M18,26.3c0.8-0.2,3.3-0.8,4.5-1.2c0-0.1-3.2,1.4-4.2,1.6C18.2,26.5,18.1,26.4,18,26.3z"/>
				<path fill="#66C6B9" d="M18.6,26.2c0,0,1.5,0.7,1.5,2.4c0,0-0.7-2-1.6-1.9"/>
				<path fill="#66C6B9" d="M16.2,25.3c-0.4-1.4-0.6-3.2-0.5-5.2c0,0-0.4,3.8,0,5.4C15.8,25.4,16,25.3,16.2,25.3z"/>
				<path fill="#66C6B9" d="M17,25.9c-0.1-1.2-0.2-2.4,0.6-3.8c0,0-1.4,2.1-1.2,3.8"/>
				<path fill="#66C6B9" d="M15.8,25.5c0,0-1-0.1-1.9,0.7c0,0,0.5-0.9,2-1.1"/>
			</g>
			<g>
				<path fill="#66C6B9" d="M11.7,48c-0.3-7.4,2.1-16,5.9-21.1c-0.6-0.3-1.2-0.5-1.7-0.8c-4.3,5.6-6.1,13.9-6.2,21.4L11.7,48z"/>
			</g>
		</g>
	</g>
</g>
</svg>
