<?xml version="1.0" encoding="utf-8"?>
<!-- Generator: Adobe Illustrator 20.1.0, SVG Export Plug-In . SVG Version: 6.00 Build 0)  -->
<!DOCTYPE svg PUBLIC "-//W3C//DTD SVG 1.1//EN" "http://www.w3.org/Graphics/SVG/1.1/DTD/svg11.dtd">
<svg version="1.1" id="Layer_1" xmlns="http://www.w3.org/2000/svg" xmlns:xlink="http://www.w3.org/1999/xlink" x="0px" y="0px"
	 viewBox="0 0 49 49" enable-background="new 0 0 49 49" xml:space="preserve">
<g>
	<rect x="0.5" y="45.3" fill="#E2E2E2" width="48" height="3.2"/>
	<rect x="2.9" y="22.2" fill="#F2F2F2" width="43.1" height="26.3"/>
	<rect x="2.9" y="5.6" fill="#F2F2F2" width="43.1" height="14.9"/>
	<rect x="2.9" y="5.6" fill="#E2E2E2" width="43.1" height="1.5"/>
	<rect x="2.9" y="24" fill="#E2E2E2" width="43.1" height="1.5"/>
	<path fill="#CDD6E0" d="M45.9,5.6H3.1c-1.4,0-2.5-1.1-2.5-2.5l0,0c0-1.4,1.1-2.6,2.5-2.6h42.9c1.4,0,2.6,1.1,2.6,2.6l0,0
		C48.5,4.5,47.4,5.6,45.9,5.6z"/>
	<path fill="#CDD6E0" d="M46.8,24H2.2c-1,0-1.7-0.8-1.7-1.7l0,0c0-1,0.8-1.7,1.7-1.7h44.6c1,0,1.7,0.8,1.7,1.7l0,0
		C48.5,23.2,47.7,24,46.8,24z"/>
	<g>
		<rect x="34.5" y="37.5" fill="#54C0EB" width="5.1" height="5.1"/>
		<rect x="9.3" y="37.5" fill="#54C0EB" width="5.1" height="5.1"/>
	</g>
	<g>
		<rect x="34.5" y="10.5" fill="#54C0EB" width="5.1" height="5.1"/>
		<rect x="9.3" y="10.5" fill="#54C0EB" width="5.1" height="5.1"/>
	</g>
	<path fill="#40596B" d="M17.8,48.5V36.8c0-3.7,3-6.7,6.7-6.7l0,0c3.7,0,6.7,3,6.7,6.7v11.7H17.8z"/>
</g>
</svg>
