<?xml version="1.0" encoding="utf-8"?>
<!-- Generator: Adobe Illustrator 18.0.0, SVG Export Plug-In . SVG Version: 6.00 Build 0)  -->
<!DOCTYPE svg PUBLIC "-//W3C//DTD SVG 1.1//EN" "http://www.w3.org/Graphics/SVG/1.1/DTD/svg11.dtd">
<svg version="1.1" id="Layer_1" xmlns="http://www.w3.org/2000/svg" xmlns:xlink="http://www.w3.org/1999/xlink" x="0px" y="0px"
	 viewBox="0 0 48 48" enable-background="new 0 0 48 48" xml:space="preserve">
<g>
	<path fill="#84DBFF" d="M44,2.5c-4.5-3.7-11.1-3.2-15.2,0.9l0,0c-1.1,1.1-1.1,2.8,0,3.9L29,7.6c1.2,1.2,2.9,1.1,4.1-0.1
		c1.2-1.3,3.1-2,5.1-1.5c2,0.5,3.4,2,3.9,4c0.7,3.4-1.9,6.4-5.1,6.4l-17.1,0c-2.4,0-4.8,1-6.5,2.7L0.9,31.4c-1.2,1.2-1.2,3.1,0,4.3
		l11.4,11.4c1.2,1.2,3.1,1.2,4.3,0l28.2-28.2C49.3,14.3,49.1,6.8,44,2.5z"/>
	<g>
		<polygon fill="#F2F2F2" points="16.5,21.7 4.7,33.5 14.4,43.3 26.2,31.5 		"/>
	</g>
	<g>
		<g>
			<polygon fill="#CDD6E0" points="23.1,32 16,24.9 14.4,26.4 21.6,33.5 			"/>
		</g>
		<g>
			<polygon fill="#CDD6E0" points="19.8,35.3 12.7,28.2 11.1,29.7 18.3,36.8 			"/>
		</g>
		<g>
			<polygon fill="#CDD6E0" points="16.5,38.6 9.4,31.5 7.9,33 15,40.1 			"/>
		</g>
	</g>
</g>
</svg>
