<?xml version="1.0" encoding="utf-8"?>
<!-- Generator: Adobe Illustrator 18.0.0, SVG Export Plug-In . SVG Version: 6.00 Build 0)  -->
<!DOCTYPE svg PUBLIC "-//W3C//DTD SVG 1.1//EN" "http://www.w3.org/Graphics/SVG/1.1/DTD/svg11.dtd">
<svg version="1.1" id="Layer_1" xmlns="http://www.w3.org/2000/svg" xmlns:xlink="http://www.w3.org/1999/xlink" x="0px" y="0px"
	 viewBox="0 0 48 48" enable-background="new 0 0 48 48" xml:space="preserve">
<g>
	<path fill="#FF7058" d="M41.9,17.3C32,7.7,16,7.7,6.1,17.3l-5.5,5.3c-0.8,0.8-0.8,2,0,2.8l5.5,5.3c9.9,9.5,25.9,9.5,35.8,0l5.5-5.3
		c0.8-0.8,0.8-2,0-2.8L41.9,17.3z"/>
	<path fill="#FFFFFF" d="M46.8,24.5l-6.3,4c-3.2,2-7.1,3.3-11.2,3.9c-3.5,0.5-7.1,0.5-10.6,0c-4.1-0.6-8-1.9-11.2-3.9l-6.3-4
		c-0.4-0.2-0.4-0.8,0-1l6.3-4c3.2-2,7.1-3.3,11.1-3.9c3.5-0.5,7.1-0.5,10.6,0c4.1,0.6,8,1.9,11.1,3.9l6.3,4
		C47.2,23.7,47.2,24.3,46.8,24.5z"/>
	<path fill="#54C0EB" d="M34,24c0,3.5-1.8,6.6-4.6,8.4c-3.6,0.5-7.3,0.5-10.8,0C15.8,30.6,14,27.5,14,24c0-3.5,1.8-6.6,4.5-8.4
		c3.6-0.5,7.3-0.5,10.9,0C32.2,17.4,34,20.5,34,24z"/>
	<circle fill="#334A5E" cx="24" cy="24" r="5.8"/>
	<circle fill="#FFFFFF" cx="20.3" cy="20.3" r="2.4"/>
</g>
</svg>
