<?xml version="1.0" encoding="utf-8"?>
<!-- Generator: Adobe Illustrator 16.0.0, SVG Export Plug-In . SVG Version: 6.00 Build 0)  -->
<!DOCTYPE svg PUBLIC "-//W3C//DTD SVG 1.1//EN" "http://www.w3.org/Graphics/SVG/1.1/DTD/svg11.dtd">
<svg version="1.1" id="Layer_1" xmlns="http://www.w3.org/2000/svg" xmlns:xlink="http://www.w3.org/1999/xlink" x="0px" y="0px"
	 width="48px" height="48px" viewBox="0 0 48 48" enable-background="new 0 0 48 48" xml:space="preserve">
<g>
	<rect x="19.23" y="3.211" fill="#40596B" width="3.666" height="5.604"/>
	<path fill="#334A5E" d="M23.6,0h-5.07c-1.012,0-1.832,0.82-1.832,1.834c0,1.012,0.82,1.832,1.832,1.832h5.07
		c1.012,0,1.834-0.82,1.834-1.832C25.434,0.82,24.611,0,23.6,0"/>
	
		<rect x="34.543" y="10.389" transform="matrix(0.7071 0.7071 -0.7071 0.7071 19.1308 -21.6977)" fill="#40596B" width="2.428" height="3.711"/>
	<path fill="#334A5E" d="M39.758,10.615l-2.373-2.371c-0.475-0.475-1.242-0.475-1.717,0c-0.475,0.473-0.475,1.24,0,1.715
		l2.373,2.373c0.475,0.475,1.242,0.475,1.717,0C40.23,11.857,40.23,11.09,39.758,10.615"/>
	<path fill="#84DBFF" d="M42.129,26.936c0-11.633-9.432-21.064-21.064-21.064S0.002,15.303,0.002,26.936s9.43,21.063,21.063,21.063
		S42.129,38.568,42.129,26.936"/>
	<path fill="#FFFFFF" d="M38.021,26.936c0-9.365-7.592-16.955-16.955-16.955c-9.365,0-16.957,7.59-16.957,16.955
		c0,9.363,7.592,16.955,16.957,16.955C30.43,43.891,38.021,36.299,38.021,26.936"/>
	<rect x="20.582" y="10.836" fill="#ACB3BA" width="0.967" height="1.588"/>
	
		<rect x="9.76" y="15.318" transform="matrix(0.7071 -0.7071 0.7071 0.7071 -8.393 11.9622)" fill="#ACB3BA" width="0.967" height="1.588"/>
	<rect x="4.967" y="26.451" fill="#ACB3BA" width="1.588" height="0.967"/>
	
		<rect x="9.759" y="36.963" transform="matrix(-0.7061 -0.7081 0.7081 -0.7061 -9.2603 71.6702)" fill="#ACB3BA" width="0.968" height="1.587"/>
	<rect x="20.582" y="41.445" fill="#ACB3BA" width="0.967" height="1.588"/>
	
		<rect x="31.404" y="36.963" transform="matrix(-0.7071 0.7071 -0.7071 -0.7071 81.1338 41.9069)" fill="#ACB3BA" width="0.967" height="1.588"/>
	<rect x="35.576" y="26.451" fill="#ACB3BA" width="1.588" height="0.969"/>
	
		<rect x="31.404" y="15.32" transform="matrix(0.7071 0.7071 -0.7071 0.7071 20.7335 -17.8285)" fill="#ACB3BA" width="0.967" height="1.587"/>
	<path fill="#FFD15C" d="M21.07,19.01c-6.131,0-11.24,4.41-12.32,10.221c-0.141-0.74-0.211-1.51-0.211-2.299
		c0-6.91,5.611-12.521,12.531-12.521V19.01z"/>
	<path fill="#FF7058" d="M21.064,14.414L21.064,14.414c-0.832,0-1.506,0.674-1.506,1.506v10.727c0,0.83,0.674,1.504,1.506,1.504
		s1.506-0.674,1.506-1.504V15.92C22.57,15.088,21.896,14.414,21.064,14.414"/>
	<path fill="#40596B" d="M24.775,26.936c0-2.049-1.662-3.709-3.709-3.709c-2.051,0-3.711,1.66-3.711,3.709s1.66,3.709,3.711,3.709
		C23.113,30.645,24.775,28.984,24.775,26.936"/>
	<path fill="#334A5E" d="M22.57,26.936c0-0.832-0.674-1.506-1.504-1.506c-0.832,0-1.506,0.674-1.506,1.506
		c0,0.83,0.674,1.506,1.506,1.506C21.896,28.441,22.57,27.766,22.57,26.936"/>
	<path fill="#4CDBC4" d="M21.07,5.871C9.43,5.871,0,15.301,0,26.93C0,38.57,9.43,48,21.07,48c11.629,0,21.059-9.43,21.059-21.07
		C42.129,15.301,32.699,5.871,21.07,5.871 M21.07,43.891c-9.371,0-16.961-7.59-16.961-16.961c0-9.359,7.59-16.949,16.961-16.949
		c9.359,0,16.949,7.59,16.949,16.949C38.02,36.301,30.43,43.891,21.07,43.891"/>
	<path fill="#F1543F" d="M25.434,36.715c0-6.232,5.051-11.283,11.283-11.283S48,30.482,48,36.715S42.949,48,36.717,48
		S25.434,42.947,25.434,36.715"/>
	<path fill="#FF7058" d="M28.561,36.715c0-4.504,3.652-8.156,8.156-8.156s8.156,3.652,8.156,8.156c0,4.506-3.652,8.156-8.156,8.156
		S28.561,41.221,28.561,36.715"/>
	<path fill="#FFFFFF" d="M34.176,36.006c0.184-0.258,0.273-0.506,0.273-0.746c0-0.238-0.078-0.439-0.236-0.602
		c-0.158-0.16-0.361-0.24-0.607-0.24c-0.451,0-0.881,0.322-1.285,0.965l-1.285-0.76c0.336-0.521,0.705-0.916,1.105-1.184
		s0.912-0.4,1.531-0.4c0.621,0,1.166,0.197,1.635,0.592c0.471,0.395,0.705,0.932,0.705,1.609c0,0.369-0.094,0.725-0.281,1.064
		c-0.189,0.34-0.537,0.771-1.045,1.301l-1.297,1.348h2.84v1.439h-5.07v-1.193l2.107-2.16C33.691,36.607,33.994,36.262,34.176,36.006
		"/>
	<polygon fill="#FFFFFF" points="40.043,37.285 40.043,36.031 41.586,36.031 41.586,37.285 42.398,37.285 42.398,38.674 
		41.586,38.674 41.586,40.393 40.043,40.393 40.043,38.674 37.152,38.674 37.152,37.451 39.715,33.203 41.463,33.203 39.025,37.285 
			"/>
</g>
</svg>
