<?xml version="1.0" encoding="utf-8"?>
<!-- Generator: Adobe Illustrator 18.0.0, SVG Export Plug-In . SVG Version: 6.00 Build 0)  -->
<!DOCTYPE svg PUBLIC "-//W3C//DTD SVG 1.1//EN" "http://www.w3.org/Graphics/SVG/1.1/DTD/svg11.dtd">
<svg version="1.1" id="Layer_1" xmlns="http://www.w3.org/2000/svg" xmlns:xlink="http://www.w3.org/1999/xlink" x="0px" y="0px"
	 viewBox="0 0 48 48" enable-background="new 0 0 48 48" xml:space="preserve">
<g>
	<path fill="#415A6B" d="M22.4,40.7h2.8c0-9.1,2.5-18.2,7.5-27.4C26.1,22.2,23.3,31.4,22.4,40.7z"/>
	<path fill="#66C6B9" d="M21.4,22.3c-5-6-19-3.3-18.3-2.4c1-0.5,9.1,7.3,10.5,10.3c2.5,2.6,5.1,2.9,7.9,1.5
		C24.1,30.5,25.9,27.1,21.4,22.3z"/>
	<path fill="#415A6B" d="M13,22.8c4.5,3,8.9,9.9,10.1,15.1c0.7-0.2,1.3-0.4,2-0.6C23.1,31.8,17.8,25.2,13,22.8z"/>
	<path fill="#66C6B9" d="M28.4,30.4c-3.2,2-2.7,4.1-1.4,5.2c1.4,1.2,2.8,1.4,4.6,0.3c1.2-1.5,6.8-4.5,7.3-4.1
		C39.3,31.4,32,27.8,28.4,30.4z"/>
	<path fill="#415A6B" d="M24.1,38.1c0.3,0.2,0.7,0.4,1,0.6c1.4-2.7,4.9-5.8,7.8-6.8C29.9,32.5,26.1,35.4,24.1,38.1z"/>
	<path fill="#F3705A" d="M42.7,13.7c-0.8-0.4-2.5-0.6-4.2-0.6c1.7-0.2,3.4-0.4,4.2-0.9c2-1.3,2.6-3.9,1.4-5.9
		c-1.3-2-3.9-2.6-5.9-1.4c-0.8,0.5-1.7,1.8-2.7,3.3c0.7-1.6,1.3-3.1,1.3-4.1c-0.1-2.4-2.1-4.2-4.5-4.2c-2.4,0.1-4.2,2.1-4.2,4.5
		c0,0.9,0.7,2.4,1.6,4c-1-1.4-2.1-2.7-2.9-3.1C24.7,4.1,22.1,4.9,21,7c-1.1,2.1-0.3,4.7,1.8,5.8c0.8,0.4,2.5,0.6,4.2,0.6
		c-1.7,0.2-3.4,0.4-4.2,0.9c-2,1.3-2.6,3.9-1.4,5.9c1.3,2,3.9,2.6,5.9,1.4c0.8-0.5,1.7-1.8,2.7-3.3c-0.7,1.6-1.3,3.1-1.3,4.1
		c0.1,2.4,2.1,4.2,4.5,4.2c2.4-0.1,4.2-2.1,4.2-4.5c0-0.9-0.7-2.4-1.6-4c1,1.4,2.1,2.7,2.9,3.1c2.1,1.1,4.7,0.3,5.8-1.8
		C45.6,17.5,44.8,14.9,42.7,13.7z"/>
	<circle fill="#415A6B" cx="32.7" cy="13.3" r="4.2"/>
	<circle fill="#FFD15C" cx="32.7" cy="13.3" r="2.3"/>
	<path fill="#FFD15C" d="M33.7,43.9c-0.7,0-1.4,0.2-1.9,0.5c-0.5-3.1-3.1-5.4-6.3-5.4c-2.2,0-4.1,1.1-5.3,2.8
		c-0.4-0.1-0.9-0.2-1.4-0.2c-2.3,0-4.2,1.6-4.7,3.7c-0.1,0-0.1,0-0.2,0c-1.9,0-3.6,1.2-4.3,2.8h28.5C38,45.7,36.1,43.9,33.7,43.9z"
		/>
</g>
</svg>
