<?xml version="1.0" encoding="utf-8"?>
<!-- Generator: Adobe Illustrator 18.0.0, SVG Export Plug-In . SVG Version: 6.00 Build 0)  -->
<!DOCTYPE svg PUBLIC "-//W3C//DTD SVG 1.1//EN" "http://www.w3.org/Graphics/SVG/1.1/DTD/svg11.dtd">
<svg version="1.1" id="Layer_1" xmlns="http://www.w3.org/2000/svg" xmlns:xlink="http://www.w3.org/1999/xlink" x="0px" y="0px"
	 viewBox="0 0 512 512" enable-background="new 0 0 512 512" xml:space="preserve">
<g>
	<g>
		<path fill="#40596B" d="M491.9,87.6H20.1c-10,0-18.1,8.1-18.1,18.1v307.8c0,10,8.1,18.1,18.1,18.1h471.8c10,0,18.1-8.1,18.1-18.1
			V105.7C510,95.7,501.9,87.6,491.9,87.6z"/>
		<rect x="31" y="116.6" fill="#FFFFFF" width="450.1" height="257.2"/>
		<rect x="183.8" y="431.7" fill="#ACB3BA" width="144.5" height="42.8"/>
		<path fill="#CDD6E0" d="M120.8,474.5h270.5c1.1,0,2,0.9,2,2v33.3H118.8v-33.3C118.8,475.4,119.7,474.5,120.8,474.5z"/>
		<circle fill="#CDD6E0" cx="256" cy="402.7" r="12.8"/>
		<rect x="183.8" y="431.7" fill="#9BA2A5" width="144.5" height="12.1"/>
	</g>
	<g>
		<path fill="#84DBFF" d="M399.4,145.6c0,54.2-30.1,101.4-74.5,125.8C304.5,282.6,281,289,256,289c-8.9,0-17.6-0.8-26.1-2.3h0
			c-66.7-12.3-117.3-70.8-117.3-141.1c0-45.8,21.5-86.7,55-113c0,0,0,0,0,0C192,13.5,222.6,2.2,256,2.2c29.4,0,56.8,8.9,79.6,24.1
			C374.1,52,399.4,95.8,399.4,145.6z"/>
		<path fill="#54C0EB" d="M331.2,256c-2.3,2.1-5.4,3.7-6.5,6.6c-0.6,1.6-0.1,5.7,0.2,8.8C304.5,282.6,281,289,256,289
			c-8.9,0-17.6-0.8-26.1-2.3h0c-1.4-1.9-2.8-3.9-4.2-5.8c-2.4-3.3-4.9-7.3-3.8-11.2c3.7,0,8.1-0.4,9.9-3.6c1.8-3.2-0.4-7.4-3.4-9.4
			c-3.1-2-6.9-2.4-10.4-3.4c-3.5-1-7.2-2.8-8.6-6.2c-0.8-1.8-0.8-3.8-1.7-5.5c-1.2-2.2-3.6-3.4-5.8-4.4c-8.1-3.8-16.1-7.5-24.2-11.3
			c-7.4-3.4-15.8-8.1-16.9-16.2c-0.5-4,0.2-9.3-3.6-10.8c-1.3-0.5-2.7-0.3-3.9-0.8c-1.7-0.7-2.6-2.6-3.4-4.3
			c-5.9-13.6-11.9-28.6-7.9-42.8c1.9-6.6,5.8-12.5,8.4-18.9c5.1-12.4,5.3-26.2,5.4-39.6c0-1.9,0-3.8-0.8-5.5
			c-1.8-3.8-6.6-4.8-10.5-6.2c-3.9-1.4-8.2-5.1-6.8-9l1.3,0.9c-0.7,3.2,3.6,6,6.2,4.2c-0.2-4.1,3.8-7,7.3-9.1
			c7.4-4.4,15.8-9,24.1-6.6c-3.2,6,1.9,13,6.8,17.6c4.7,4.3,9.8,8.3,15,12c1.1-2.1-0.9-5-3.2-4.9c-0.3-3.1-1.4-6.1-3.2-8.6
			c2.1-1.6,5.1-0.6,7.2,0.9c5.2,3.5,8.7,9.4,9.4,15.6c0.9-3,2.4-6.5,5.5-6.8c0.4,2.3,0.8,4.6,1.2,6.9c2.2-0.2,4.5-0.4,6.5,0.5
			c2,0.9,3.6,3.2,2.8,5.3c-7.9,0.2-12.1,9.3-14.3,17c-0.3,1.2-0.7,2.4-0.4,3.6c0.4,2.3,2.6,3.8,4.5,5.3c4.3,3.2,7.7,7.6,9.8,12.5
			c6.1-6.4,0.4-17.3,3.5-25.6c2.6-0.4,5,0.8,7.3,2c3.5,1.8,7,3.7,10.4,5.5c7.4,3.9,15.8,9.4,15.9,17.7c-6.3,1.1-12,4.7-15.7,9.8
			c2.2-3.3,8.3-2.2,9.2,1.7c1-1.7,3.3-2.4,5-1.5c1.7,0.9,2.6,3.2,1.8,4.9c-1.5,3.2-6.6,3.4-8,6.6c-0.9-1.2-1.8-2.3-2.6-3.5
			c-6.3,5.5-10.9,12.8-13.2,20.9c-0.8,2.8-1.4,5.8-3.1,8.1c-1.8,2.4-4.5,3.8-6.6,6c-4.3,4.5-4.7,11.2-4.5,17.6
			c-0.7-3.5-3.7-6.5-7.2-7.8c-4.2-1.7-8.8-1.6-13.2-1.9c-4.9-0.4-9.9-1.2-14.6,0.2c-4.7,1.4-9,5.8-8.1,10.7c2.7,0,5.4-1,7.5-2.6
			c-2.8,2.6-3.5,7.2-1.5,10.5c2.2,3.6,7.2,5,10.9,3c1.1-0.5,2-1.3,3.2-1.6c2.7-0.6,5.3,2,5.8,4.8c0.4,2.8-0.6,5.5-1.7,8.1
			c7.7-1.4,16,5,16.5,12.8c0.1,1.4,0,3,0.7,4.2c1.7,2.9,6.1,1.9,9.3,0.8c9.7-3.6,20-5.6,30.3-5.9c2.9-0.1,5.8,0,8.6,0.1
			c10.8,0.6,21.5,2.6,31.8,5.9c7.3,2.4,15.6,5.4,22.3,1.6c2.7-1.5,5.4-4,8.3-2.9C334.9,249.7,333.5,253.8,331.2,256z"/>
		<path fill="#54C0EB" d="M275.8,105c-0.5,1.5-2.8,0.2-3.5-1.3c-3-6.3-3.2-13.9-0.8-20.4c0.8-2,1.8-4.1,1.2-6.2
			c-0.6-1.9-2.3-3.1-4-4.2c-5-3.2-9.9-6.5-14.9-9.7c-2.6-1.7-5.3-3.4-8.3-4.2c-3-0.8-6.5-0.5-8.8,1.6c-1.1,1-2,2.3-3.4,2.6
			c-1.1,0.2-2.2-0.2-3.2-0.6c-3.4-1.2-7.1-1.4-10.7-0.7c-1.7,1.8,4.2,4.1,2.6,6c-0.2,0.3-0.6,0.5-0.9,0.6c-2.4,1.3-3.3,4.6-2.1,7
			c1.3,2.4,4.6,3.4,6.9,2.1c0.8-1.6,1.5-3.3,2.3-4.9c0.7,3.5,3.8,6,7,7.7c3.2,1.6,6.7,2.8,9.5,5c5.8,4.8,6.9,13.5,12.3,18.8
			c4.7,4.7,12.5,5.9,18.4,2.8L275.8,105z"/>
		<path fill="#54C0EB" d="M286.8,75.7c-2.1-0.3-4.2-0.4-6.3-0.1c-0.4,0-0.8,0.1-1.1,0.4c-0.5,0.5-0.2,1.4-0.4,2.1
			c-0.2,0.7-0.8,1.2-1.3,1.7c-1.4,1.6-1.3,4.1-0.3,6s2.5,3.3,4.1,4.7c0.8,0.7,1.9,1.4,2.7,0.8c0.4-0.3,0.5-0.7,0.7-1.2
			c1.4-4.2,2.6-8.5,3.6-12.8L286.8,75.7z"/>
		<path fill="#54C0EB" d="M341.4,78.2c2.2,0.9,3.2,4.6,1.1,6.2c-2.3,3.7-7.2,5.5-11.3,4.1c-2.9-1-5.1-3.3-7-5.7
			c-2.7-3.4-5-7.1-6.8-11c-2-4.3-3.4-8.9-5.8-12.9c-2.4-4-6.2-7.7-10.8-8.5c-2.7,1.7-0.4,6,2.3,7.6c2.8,1.6,6.5,2.9,6.8,6.1
			c0.3,2.7-2.4,4.9-5.1,5.3c-2.7,0.3-5.3-0.8-7.8-1.9c-5.2-2.3-10.5-4.6-14.8-8.3c-4.3-3.7-7.5-9.1-7.2-14.7c2.8,0,5.6,0,8.5,0
			c2-2.6-1.6-6-4.8-6.5c-3.2-0.6-7.1-0.5-8.7-3.3c-0.6-1.2-0.7-2.6-1.1-3.8c-1.1-3.4-4.5-5.7-8.1-6.4c-3.6-0.7-7.2-0.2-10.8,0.2
			c-9,1.1-18,1.7-27.1,1.8c-3.2,0-7.5-1.1-7.4-4.3c-5.1,3.2-12.1,2-17.2,5.2c-1.1,0.7-2.1,1.7-3.4,2c-2.6,0.8-5.3-0.9-7.9-1.1
			c-4.5-0.4-8.3,2.8-12.5,4.4c-2.1,0.8-4.9,0.8-7-0.1C192,13.5,222.6,2.2,256,2.2c29.4,0,56.8,8.9,79.6,24.1
			c5.1,10.9,6.7,23.7,6.1,35.8c-0.1,2.4-0.3,5,1,7c0.8,1.2,2,2,2.6,3.2C346.5,74.8,344,78.2,341.4,78.2z"/>
	</g>
</g>
</svg>
