<?xml version="1.0" encoding="utf-8"?>
<!-- Generator: Adobe Illustrator 18.0.0, SVG Export Plug-In . SVG Version: 6.00 Build 0)  -->
<!DOCTYPE svg PUBLIC "-//W3C//DTD SVG 1.1//EN" "http://www.w3.org/Graphics/SVG/1.1/DTD/svg11.dtd">
<svg version="1.1" id="Layer_1" xmlns="http://www.w3.org/2000/svg" xmlns:xlink="http://www.w3.org/1999/xlink" x="0px" y="0px"
	 viewBox="0 0 48 48" enable-background="new 0 0 48 48" xml:space="preserve">
<g>
	<g>
		<g>
			<g>
				<path fill="#FFD15D" d="M45,48H3c-1.7,0-3-1.3-3-3V3c0-1.7,1.3-3,3-3h42c1.7,0,3,1.3,3,3v42C48,46.7,46.7,48,45,48z"/>
			</g>
			<g>
				<path fill="#435B6C" d="M48,8.4l-7.8,7.4L20.1,7.9l4-7.9h-2.2L11.7,20.2C7.6,15.3,3.5,12,0,9.6v6.2c3.9,3.1,8.5,7.6,12.6,14
					L0,36.8v2.3l13.8-7.6c3.3,4.9,7.5,7.9,12,9.6L25,48h2l0.7-6.2c3.6,1.1,7.2,1.5,10.6,1.5c3.7,0,7.1-0.5,9.7-1v-5.1
					c-5.5,1.2-16.3,2.5-24.4-2.8l8.2-7.8L48,33.6v-2.2l-14.6-6.4l7.3-7L48,21v-2.1l-5.7-2.2l5.7-5.5V8.4z M22,33.2
					c-1.7-1.3-3.2-3-4.5-5.1c-1.4-2.3-2.9-4.4-4.4-6.3l6.2-12.2l19.4,7.6L22,33.2z"/>
			</g>
			<g>
				<path fill="#FFD15D" d="M3,0C1.3,0,0,1.3,0,3v6.6c3.5,2.3,7.6,5.7,11.7,10.5L21.9,0H3z"/>
				<path fill="#67C6B9" d="M13.8,31.5L0,39.1V45c0,1.6,1.3,3,3,3h22l0.8-6.9C21.3,39.4,17,36.4,13.8,31.5z"/>
				<path fill="#67C6B9" d="M17.5,28.2c-1.5-2.3-3-4.4-4.5-6.3l6.2-12.2l19.4,7.6L22,33.2C20.3,31.9,18.8,30.2,17.5,28.2z"/>
				<path fill="#E8EAE9" d="M12.6,29.8L0,36.8v-21C3.9,18.9,8.5,23.4,12.6,29.8z"/>
				<path fill="#67C6B9" d="M45,0H24.1l-4,7.9l20.1,7.9L48,8.4V3C48,1.3,46.7,0,45,0z"/>
				<polygon fill="#FFD15D" points="40.7,18.1 48,21 48,31.4 33.4,25.1 				"/>
				<path fill="#E8EAE9" d="M31.8,26.6L48,33.6v3.6c-5.5,1.2-16.3,2.5-24.4-2.8L31.8,26.6z"/>
				<path fill="#E8EAE9" d="M38.2,43.3c-3.4,0-7-0.4-10.6-1.5L27,48h18c1.7,0,3-1.4,3-3v-2.7C45.4,42.8,42,43.3,38.2,43.3z"/>
				<polygon fill="#FFD15D" points="42.3,16.6 48,11.1 48,18.8 				"/>
			</g>
		</g>
		<g>
			<g>
				<path fill="#F3705B" d="M34.3,13.8c0,6.3-11.5,23.6-11.5,23.6S11.3,20.2,11.3,13.8c0-6.3,5.1-11.5,11.5-11.5
					C29.2,2.3,34.3,7.5,34.3,13.8z"/>
			</g>
			<g>
				<circle fill="#FFFFFF" cx="22.8" cy="13.8" r="6.7"/>
			</g>
		</g>
	</g>
</g>
</svg>
