<?xml version="1.0" encoding="utf-8"?>
<!-- Generator: Adobe Illustrator 18.0.0, SVG Export Plug-In . SVG Version: 6.00 Build 0)  -->
<!DOCTYPE svg PUBLIC "-//W3C//DTD SVG 1.1//EN" "http://www.w3.org/Graphics/SVG/1.1/DTD/svg11.dtd">
<svg version="1.1" id="Layer_1" xmlns="http://www.w3.org/2000/svg" xmlns:xlink="http://www.w3.org/1999/xlink" x="0px" y="0px"
	 viewBox="0 0 48 48" enable-background="new 0 0 48 48" xml:space="preserve">
<g>
	<path fill="#CDD6E0" d="M21.5,0C28,2,8.6,14.5,25.7,13.1C22.7,10.1,35.3-0.3,21.5,0z"/>
	<path fill="#40596B" d="M46.2,48H1.8C2,41.3,5.2,35.4,10,31.5c0,0,0,0,0,0c2.5-2,5.4-3.5,8.6-4.2c1.7-0.4,3.5-0.6,5.3-0.6
		c1.8,0,3.6,0.2,5.3,0.6c3.2,0.8,6.1,2.3,8.6,4.3c0,0,0,0,0,0C42.8,35.4,46,41.3,46.2,48z"/>
	<path fill="#54C0EB" d="M41.3,48H6.7c0.2-5.1,1.2-9.8,2.9-13.7c0.2-0.3,0.3-0.7,0.5-1c0.2-0.3,0.3-0.7,0.5-1
		c-0.2-0.2-0.3-0.5-0.5-0.7c-1.8-2.7-2.8-5.8-2.8-9.2c0-3.5,1.1-6.7,2.9-9.4c0,0,0,0,0,0c3.7-5.5,9.2-6.7,9.3-6.7
		C19.7,6,19.9,6,20.1,5.9c1.2-0.3,2.6-0.5,3.9-0.5c6.1,0,10.2,3.5,10.6,3.8c0,0,0,0,0,0c3.7,3.1,6.1,7.7,6.1,12.9
		c0,3.4-1,6.6-2.8,9.2c-0.2,0.2-0.3,0.5-0.5,0.7c0.2,0.3,0.3,0.7,0.5,1c0.2,0.3,0.3,0.7,0.5,1C40.1,38.2,41.2,42.9,41.3,48z"/>
	<g>
		<path fill="#FFD15C" d="M29.6,28c0,3.1-5.6,10.5-5.6,10.5s-5.6-7.4-5.6-10.5s2.5-5.6,5.6-5.6S29.6,24.9,29.6,28z"/>
		<circle fill="#F8B64C" cx="26.7" cy="30.4" r="1.2"/>
		<circle fill="#F8B64C" cx="21.3" cy="30.4" r="1.2"/>
	</g>
	<g>
		<g>
			<circle fill="#84DBFF" cx="32.9" cy="18.4" r="3.7"/>
			<circle fill="#FFFFFF" cx="32.9" cy="18.4" r="2.9"/>
			<circle fill="#40596B" cx="32.9" cy="18.4" r="1.8"/>
			<circle fill="#FFFFFF" cx="33.9" cy="17.4" r="0.8"/>
		</g>
		<g>
			<circle fill="#84DBFF" cx="15.1" cy="18.4" r="3.7"/>
			<circle fill="#FFFFFF" cx="15.1" cy="18.4" r="2.9"/>
			<circle fill="#40596B" cx="15.1" cy="18.4" r="1.8"/>
			<circle fill="#FFFFFF" cx="16.2" cy="17.4" r="0.8"/>
		</g>
	</g>
	<path opacity="0.1" fill="#231F20" d="M24,41c5.8,0,11-2.6,14.4-6.7c-0.3-0.7-0.6-1.4-1-2.1c2.1-2.8,3.3-6.2,3.3-10
		C40.8,13,33.3,5.5,24,5.5c9.2,0,16.7,7.5,16.7,16.7S33.2,38.9,24,38.9S7.3,31.4,7.3,22.2S14.8,5.5,24,5.5C14.7,5.5,7.2,13,7.2,22.2
		c0,3.7,1.2,7.2,3.3,10c-0.3,0.7-0.7,1.3-1,2.1C13,38.4,18.2,41,24,41z"/>
	<path fill="#84DBFF" d="M32.2,48H15.8c1.4-3.1,4.6-5.2,8.2-5.2C27.6,42.8,30.8,44.9,32.2,48z"/>
	<path fill="#FF7058" d="M14.9,10.3c2.2,0,4,1.6,4.3,3.8l0.4,3.1C20,19.3,21.8,21,24,21s4-1.6,4.3-3.8l0.4-3.1
		c0.3-2.2,2.1-3.8,4.3-3.8h2.7c-0.4-0.3-0.7-0.7-1.1-1c0,0,0,0,0,0C34.2,8.9,30.1,5.5,24,5.5c-1.3,0-2.6,0.2-3.9,0.5
		c-0.2,0-0.4,0.1-0.6,0.2c-0.1,0-3.9,0.9-7.2,4.2H14.9z"/>
</g>
</svg>
