<?xml version="1.0" encoding="utf-8"?>
<!-- Generator: Adobe Illustrator 20.1.0, SVG Export Plug-In . SVG Version: 6.00 Build 0)  -->
<!DOCTYPE svg PUBLIC "-//W3C//DTD SVG 1.1//EN" "http://www.w3.org/Graphics/SVG/1.1/DTD/svg11.dtd">
<svg version="1.1" id="Layer_1" xmlns="http://www.w3.org/2000/svg" xmlns:xlink="http://www.w3.org/1999/xlink" x="0px" y="0px"
	 viewBox="0 0 49 49" enable-background="new 0 0 49 49" xml:space="preserve">
<g>
	<path fill="#F2F2F2" d="M43.7,14.9c-0.2-5.3-4.5-9.6-9.9-9.6c-1.3,0-2.6,0.3-3.7,0.7c-2.5-3.3-6.5-5.5-11-5.5
		c-7.6,0-13.8,6.2-13.8,13.8c0,0.2,0,0.3,0,0.5c-2.8,1.1-4.8,3.8-4.8,7c0,4.2,3.4,7.5,7.5,7.5H41c4.2,0,7.5-3.4,7.5-7.5
		C48.5,18.7,46.5,16,43.7,14.9z"/>
	<rect x="21.4" y="39" fill="#F05540" width="6.2" height="3.6"/>
	<path fill="#41596B" d="M34.8,35.8c5.7-5.7,5.7-14.9,0-20.6c-5.7-5.7-14.9-5.7-20.6,0s-5.7,14.9,0,20.6
		C19.9,41.5,29.1,41.5,34.8,35.8z"/>
	<path fill="#FFD05C" d="M30.2,48.5H18.8v-4.3c0-1.1,0.9-2,2-2h7.3c1.1,0,2,0.9,2,2V48.5z"/>
	
		<ellipse transform="matrix(0.7071 -0.7071 0.7071 0.7071 -10.8855 24.8058)" fill="#84DBFF" cx="24.5" cy="25.5" rx="10.3" ry="10.3"/>
	<g>
		<path fill="#FFFFFF" d="M17.2,27c-0.5,0-1-0.4-1-0.9c-0.1-2.2,0.6-4.3,2-6c1.5-1.7,3.5-2.7,5.7-2.8c0.5,0,1,0.4,1.1,0.9
			c0,0.6-0.4,1-0.9,1.1c-1.7,0.1-3.2,0.9-4.3,2.1c-1.1,1.3-1.7,2.9-1.5,4.6C18.3,26.5,17.8,27,17.2,27C17.3,27,17.2,27,17.2,27z"/>
	</g>
</g>
</svg>
