<?xml version="1.0" encoding="utf-8"?>
<!-- Generator: Adobe Illustrator 19.0.1, SVG Export Plug-In . SVG Version: 6.00 Build 0)  -->
<svg version="1.1" id="Layer_1" xmlns="http://www.w3.org/2000/svg" xmlns:xlink="http://www.w3.org/1999/xlink" x="0px" y="0px"
	 viewBox="0 0 48 48" style="enable-background:new 0 0 48 48;" xml:space="preserve">
<style type="text/css">
	.st0{fill:#415A6B;}
	.st1{fill:#ADB3BA;}
	.st2{fill:#E8EAE9;}
	.st3{fill:#55C0EB;}
	.st4{fill:#F3705A;}
	.st5{fill:#FFFFFF;}
	.st6{fill:#FFD15C;}
	.st7{fill:#344A5E;}
	.st8{fill:#CED6E0;}
	.st9{fill:#F05540;}
	.st10{fill:#F7B64C;}
	.st11{fill:#F3F3F3;}
	.st12{fill:#66C6B9;}
	.st13{fill:#4ABAA5;}
	.st14{fill:#8AD7F8;}
	.st15{fill:none;}
	.st16{fill:#E53D35;}
</style>
<g>
	<g>
		<g>
			<g>
				<polygon class="st0" points="48,5 47,13.3 45,11.3 27,29.3 20.1,22.5 3.3,39.3 0,36 20.1,15.9 27,22.8 41.7,8 39.7,6 				"/>
			</g>
			<g>
				<polygon class="st4" points="41,20.4 41,48 48,48 48,19.3 45,16.3 				"/>
				<g>
					<polygon class="st12" points="29,48 36,48 36,25.4 29,32.4 					"/>
				</g>
				<polygon class="st14" points="17,30.7 17,48 24,48 24,31.5 20.1,27.6 				"/>
				<polygon class="st6" points="5,48 12,48 12,35.7 5,42.7 				"/>
			</g>
		</g>
		<g>
			<g>
				<g>
					<path class="st4" d="M28.1,6.1l1.4-1.1l-0.7-1.7L27,3.4c-0.2-0.3-0.5-0.6-0.9-0.9l0.2-1.8L24.7,0l-1.2,1.4
						c-0.4-0.1-0.8-0.1-1.2,0L21.2,0l-1.7,0.7l0.2,1.8c-0.3,0.2-0.6,0.5-0.9,0.9l-1.8-0.2l-0.7,1.7L17.7,6c-0.1,0.4-0.1,0.8,0,1.2
						l-1.4,1.1l0.7,1.7l1.8-0.2c0.2,0.3,0.5,0.6,0.9,0.9l-0.2,1.8l1.7,0.7l1.2-1.4c0.4,0.1,0.8,0.1,1.2,0l1.1,1.4l1.7-0.7l-0.2-1.8
						c0.3-0.2,0.6-0.5,0.9-0.9l1.8,0.2l0.7-1.7l-1.4-1.2C28.1,6.9,28.2,6.5,28.1,6.1z M22.1,8.5c-1-0.4-1.5-1.5-1-2.5
						c0.4-1,1.5-1.5,2.5-1c1,0.4,1.5,1.5,1,2.5C24.2,8.4,23.1,8.9,22.1,8.5z"/>
				</g>
				<g>
					<path class="st14" d="M14.7,8.9l1.1-2.1l-1.7-1.6L12,6.4c-0.5-0.2-1-0.4-1.5-0.6L9.9,3.5l-2.4,0L6.9,5.9C6.3,6,5.9,6.2,5.4,6.5
						L3.3,5.4L1.7,7.1l1.2,2.1c-0.2,0.5-0.4,1-0.6,1.5L0,11.3l0,2.4l2.3,0.6c0.2,0.5,0.4,1,0.6,1.4l-1.1,2.1l1.7,1.6l2.1-1.2
						c0.5,0.2,1,0.4,1.5,0.6l0.7,2.3l2.4,0l0.6-2.3c0.5-0.2,1-0.4,1.4-0.6l2.1,1.1l1.6-1.7l-1.2-2.1c0.2-0.5,0.4-1,0.6-1.5l2.3-0.7
						l0-2.4l-2.3-0.6C15.2,9.9,14.9,9.4,14.7,8.9z M8.9,15c-1.4,0-2.6-1.1-2.6-2.6c0-1.4,1.1-2.6,2.6-2.6c1.4,0,2.6,1.1,2.6,2.6
						C11.4,13.7,10.3,14.9,8.9,15z"/>
				</g>
			</g>
			<g>
				<path class="st9" d="M24.3,3.4c-1.8-0.8-3.9,0.1-4.7,1.9c-0.8,1.8,0.1,3.9,1.9,4.7c1.8,0.8,3.9-0.1,4.7-1.9
					C26.9,6.2,26.1,4.1,24.3,3.4z M24.7,7.4c-0.4,1-1.5,1.5-2.5,1s-1.5-1.5-1-2.5c0.4-1,1.5-1.5,2.5-1C24.6,5.3,25.1,6.4,24.7,7.4z"
					/>
			</g>
		</g>
		<path class="st3" d="M8.7,7.9C6.3,8,4.3,10,4.4,12.4c0,2.4,2.1,4.4,4.5,4.3c2.4,0,4.4-2.1,4.3-4.5C13.2,9.8,11.2,7.9,8.7,7.9z
			 M8.9,15c-1.4,0-2.6-1.1-2.6-2.6s1.1-2.6,2.6-2.6c1.4,0,2.6,1.1,2.6,2.6S10.3,14.9,8.9,15z"/>
	</g>
</g>
</svg>
