<?xml version="1.0" encoding="utf-8"?>
<!-- Generator: Adobe Illustrator 20.1.0, SVG Export Plug-In . SVG Version: 6.00 Build 0)  -->
<!DOCTYPE svg PUBLIC "-//W3C//DTD SVG 1.1//EN" "http://www.w3.org/Graphics/SVG/1.1/DTD/svg11.dtd">
<svg version="1.1" id="Layer_1" xmlns="http://www.w3.org/2000/svg" xmlns:xlink="http://www.w3.org/1999/xlink" x="0px" y="0px"
	 viewBox="0 0 49 49" enable-background="new 0 0 49 49" xml:space="preserve">
<g>
	<path fill="#FFD15C" d="M21,2.2c-0.6,0-1.1,0.5-1.1,1.1v6.6c0,0.6,0.5,1.1,1.1,1.1s1.1-0.5,1.1-1.1V3.3C22.2,2.7,21.7,2.2,21,2.2z"
		/>
	<path fill="#FFD15C" d="M11.9,2.2c-0.6,0-1.1,0.5-1.1,1.1v6.6c0,0.6,0.5,1.1,1.1,1.1c0.6,0,1.1-0.5,1.1-1.1V3.3
		C13,2.7,12.5,2.2,11.9,2.2z"/>
	<path fill="#F8B64C" d="M18.7,1c-0.6,0-1.1,0.5-1.1,1.1v9c0,0.6,0.5,1.1,1.1,1.1c0.6,0,1.1-0.5,1.1-1.1v-9C19.9,1.5,19.4,1,18.7,1z
		"/>
	<path fill="#FFD15C" d="M16.4,0.5c-0.6,0-1.1,0.5-1.1,1.1v9.9c0,0.6,0.5,1.1,1.1,1.1c0.6,0,1.1-0.5,1.1-1.1V1.6
		C17.6,1,17.1,0.5,16.4,0.5z"/>
	<path fill="#F8B64C" d="M14.2,1C13.5,1,13,1.5,13,2.1v9c0,0.6,0.5,1.1,1.1,1.1c0.6,0,1.1-0.5,1.1-1.1v-9C15.3,1.5,14.8,1,14.2,1z"
		/>
	<rect x="22.2" y="5.6" fill="#F8B64C" width="3.6" height="2"/>
	<path fill="#40596B" d="M47.8,5.1c-3.9-4.4-22,0-22,0v3c0,0,18.1,4.4,22,0C48.7,7.1,48.7,6.1,47.8,5.1z"/>
	<path fill="#F2F2F2" d="M34.2,30c0-4-1.2-7.7-3.1-10.7H3.6c-2,3-3.1,6.7-3.1,10.7c0,2.2,0.4,4.4,1,6.4c1.1,3.1,1.7,6.4,1.7,9.7v0.7
		c0,1,0.8,1.8,1.8,1.8h24.7c1,0,1.8-0.8,1.8-1.8V46c0-3.3,0.7-6.5,1.7-9.7C33.9,34.4,34.2,32.3,34.2,30z"/>
	<path fill="#F2F2F2" d="M31.1,14.6H3.7c-1,0-1.9,0.8-1.9,1.9s0.8,1.9,1.9,1.9h27.4c1,0,1.9-0.8,1.9-1.9S32.1,14.6,31.1,14.6z"/>
	<rect x="3.7" y="18.4" fill="#E2E2E2" width="27.4" height="0.9"/>
	<polygon fill="#84DBFF" points="17.7,32.3 20.7,30.5 23.7,32.3 23.7,35.7 20.7,37.5 17.7,35.7 	"/>
	<polygon fill="#84DBFF" points="14.4,38.1 17.4,36.4 20.4,38.1 20.4,41.6 17.4,43.3 14.4,41.6 	"/>
	<polygon fill="#84DBFF" points="11,32.3 14,30.5 17,32.3 17,35.7 14,37.5 11,35.7 	"/>
</g>
</svg>
