<?xml version="1.0" encoding="utf-8"?>
<!-- Generator: Adobe Illustrator 18.0.0, SVG Export Plug-In . SVG Version: 6.00 Build 0)  -->
<!DOCTYPE svg PUBLIC "-//W3C//DTD SVG 1.1//EN" "http://www.w3.org/Graphics/SVG/1.1/DTD/svg11.dtd">
<svg version="1.1" id="Layer_1" xmlns="http://www.w3.org/2000/svg" xmlns:xlink="http://www.w3.org/1999/xlink" x="0px" y="0px"
	 viewBox="0 0 48 48" enable-background="new 0 0 48 48" xml:space="preserve">
<g>
	<g>
		<path fill="#ACB3BA" d="M5.3,26.4c-0.3,0-0.5,0.2-0.5,0.5v3.5C4.8,30.8,5,31,5.3,31c0.3,0,0.5-0.2,0.5-0.5V27
			C5.9,26.7,5.6,26.4,5.3,26.4z"/>
		<path fill="#ACB3BA" d="M10.5,28.6c-0.2-0.2-0.5-0.2-0.7,0l-2.5,2.5c-0.2,0.2-0.2,0.5,0,0.7C7.4,31.9,7.5,32,7.6,32
			s0.3-0.1,0.4-0.2l2.5-2.5C10.7,29.1,10.7,28.8,10.5,28.6z"/>
		<path fill="#ACB3BA" d="M0.9,28.6c-0.2-0.2-0.5-0.2-0.7,0c-0.2,0.2-0.2,0.5,0,0.7l2.5,2.5C2.7,31.9,2.9,32,3,32s0.3-0.1,0.4-0.2
			c0.2-0.2,0.2-0.5,0-0.7L0.9,28.6z"/>
	</g>
	<g>
		<path fill="#CDD6E0" d="M4.6,37.1c-1.3-1.3-1.3-3.5,0-4.8C5,32,5.5,32,5.8,32.3c0.3,0.3,0.3,0.9,0,1.2c-0.7,0.7-0.7,1.8,0,2.4
			c0.7,0.7,1.8,0.7,2.4,0l9.6-9.6c0.3-0.3,0.9-0.3,1.2,0c0.3,0.3,0.3,0.9,0,1.2l-9.6,9.6C8.1,38.5,6,38.5,4.6,37.1z"/>
	</g>
	
		<rect x="17.2" y="31.9" transform="matrix(0.7071 0.7071 -0.7071 0.7071 34.2773 -1.2239)" fill="#40596B" width="2.8" height="17.6"/>
	<path fill="#FFD15C" d="M21.9,36.7L11.3,26.1c-0.8-0.8-0.8-2,0-2.8L31.4,3.2l13.4,13.4L24.7,36.7C23.9,37.5,22.6,37.5,21.9,36.7z"
		/>
	<polygon fill="#F8B64C" points="31.3,30.1 27.8,33.5 18.7,33.5 15.3,30.1 	"/>
	<path fill="#F8B64C" d="M11.6,23c-0.8,0.8-0.9,2.1-0.3,3.1l23.9,0l3.4-3.4l-26.7,0L11.6,23z"/>
	<polygon fill="#F8B64C" points="44.8,16.6 42.7,18.7 16,18.7 19.4,15.2 43.4,15.2 	"/>
	<polygon fill="#F8B64C" points="39.4,11.2 23.4,11.2 26.8,7.8 36,7.8 	"/>
	<polygon opacity="0.1" fill="#231F20" points="30.6,4.1 42.6,18.7 44.8,16.6 31.4,3.2 	"/>
	<path fill="#FF7058" d="M46.8,0L29.4,0c-1.1,0-1.6,1.3-0.9,2.1l17.3,17.3c0.8,0.8,2.1,0.2,2.1-0.9V1.2C48,0.5,47.5,0,46.8,0z"/>
</g>
</svg>
