<?xml version="1.0" encoding="utf-8"?>
<!-- Generator: Adobe Illustrator 18.0.0, SVG Export Plug-In . SVG Version: 6.00 Build 0)  -->
<!DOCTYPE svg PUBLIC "-//W3C//DTD SVG 1.1//EN" "http://www.w3.org/Graphics/SVG/1.1/DTD/svg11.dtd">
<svg version="1.1" id="Layer_1" xmlns="http://www.w3.org/2000/svg" xmlns:xlink="http://www.w3.org/1999/xlink" x="0px" y="0px"
	 viewBox="0 0 48 48" enable-background="new 0 0 48 48" xml:space="preserve">
<g>
	<path fill="#ACB3BA" d="M40.8,4.6H7.2c-1.1,0-2,0.9-2,2V46c0,1.1,0.9,2,2,2h33.7c1.1,0,2-0.9,2-2V6.6C42.8,5.5,42,4.6,40.8,4.6z"/>
	<path fill="#F2F2F2" d="M39.8,9.1c0-0.8-0.7-1.5-1.5-1.5H9.7c-0.8,0-1.5,0.7-1.5,1.5v34.4c0,0.8,0.7,1.5,1.5,1.5h24.3l5.9-5.9V9.1z
		"/>
	<path fill="#CDD6E0" d="M39.8,39.1h-4.4c-0.8,0-1.5,0.7-1.5,1.5V45L39.8,39.1z"/>
	<path fill="#40596B" d="M31.8,2.7h-4.2C27.2,1.2,25.7,0,24,0c-1.7,0-3.2,1.2-3.6,2.7h-4.2c-1.1,0-2,0.9-2,2v4.5h19.6V4.7
		C33.8,3.6,32.9,2.7,31.8,2.7z"/>
	<rect x="18.4" y="17.1" fill="#CDD6E0" width="10.6" height="2"/>
	<rect x="18.4" y="23.2" fill="#ACB3BA" width="19.3" height="2"/>
	<rect x="18.4" y="27.4" fill="#CDD6E0" width="10.6" height="2"/>
	<rect x="18.4" y="13" fill="#ACB3BA" width="19.3" height="2"/>
	<rect x="18.4" y="33.5" fill="#ACB3BA" width="19.3" height="2"/>
	<rect x="18.4" y="37.6" fill="#CDD6E0" width="10.6" height="2"/>
	<rect x="10.2" y="13" fill="#FF7058" width="6.1" height="6.1"/>
	<rect x="10.2" y="23.3" fill="#FF7058" width="6.1" height="6.1"/>
	<rect x="10.2" y="33.5" fill="#FF7058" width="6.1" height="6.1"/>
	<g>
		<polygon fill="#FFFFFF" points="12.6,18.1 10.8,16.3 11.7,15.4 12.6,16.2 14.8,14 15.7,14.9 		"/>
	</g>
	<g>
		<polygon fill="#FFFFFF" points="12.6,28.3 10.8,26.6 11.7,25.6 12.6,26.5 14.8,24.2 15.7,25.2 		"/>
	</g>
	<g>
		<polygon fill="#FFFFFF" points="12.6,38.6 10.8,36.8 11.7,35.9 12.6,36.7 14.8,34.5 15.7,35.4 		"/>
	</g>
</g>
</svg>
