<?xml version="1.0" encoding="utf-8"?>
<!-- Generator: Adobe Illustrator 18.0.0, SVG Export Plug-In . SVG Version: 6.00 Build 0)  -->
<!DOCTYPE svg PUBLIC "-//W3C//DTD SVG 1.1//EN" "http://www.w3.org/Graphics/SVG/1.1/DTD/svg11.dtd">
<svg version="1.1" id="Layer_1" xmlns="http://www.w3.org/2000/svg" xmlns:xlink="http://www.w3.org/1999/xlink" x="0px" y="0px"
	 viewBox="0 0 512 512" enable-background="new 0 0 512 512" xml:space="preserve">
<g>
	<path fill="#F2705B" d="M256,2C116.2,2,2.9,95.8,2.9,211.5c0,78.2,51.7,146.3,128.3,182.3c-17,31.3-46.9,54.6-82.7,62.5
		c20,11.1,43.1,17.4,67.6,17.4c34.4,0,65.9-12.5,90.3-33.2c7.4-6.3,14.1-13.3,20-20.9c9.7,1,19.6,1.5,29.6,1.5
		c118.5,0,218-67.4,245.5-158.4c4.9-16.4,7.6-33.5,7.6-51.1C509.1,95.8,395.8,2,256,2z"/>
	<path fill="#FFD05C" d="M421.3,455.3c52.4-24.6,87.8-71.2,87.8-124.7c0-79.1-77.5-143.3-173.1-143.3s-173.1,64.2-173.1,143.3
		c0,79.1,77.5,143.3,173.1,143.3c6.9,0,13.6-0.4,20.3-1c17.4,22.5,44.7,37.1,75.4,37.1c16.8,0,32.5-4.3,46.2-11.9
		C453.4,492.6,433,476.7,421.3,455.3z"/>
	<path fill="#F6B44B" d="M244.7,290.3h182.6c7.3,0,13.2-5.9,13.2-13.2c0-7.3-5.9-13.2-13.2-13.2H244.7c-7.3,0-13.2,5.9-13.2,13.2
		C231.5,284.4,237.4,290.3,244.7,290.3z"/>
	<path fill="#F6B44B" d="M222.1,343.8h227.8c7.3,0,13.2-5.9,13.2-13.2c0-7.3-5.9-13.2-13.2-13.2H222.1c-7.3,0-13.2,5.9-13.2,13.2
		C208.9,337.9,214.8,343.8,222.1,343.8z"/>
	<path fill="#F6B44B" d="M244.7,397.4h182.6c7.3,0,13.2-5.9,13.2-13.2s-5.9-13.2-13.2-13.2H244.7c-7.3,0-13.2,5.9-13.2,13.2
		S237.4,397.4,244.7,397.4z"/>
</g>
</svg>
