<?xml version="1.0" encoding="utf-8"?>
<!-- Generator: Adobe Illustrator 16.0.0, SVG Export Plug-In . SVG Version: 6.00 Build 0)  -->
<!DOCTYPE svg PUBLIC "-//W3C//DTD SVG 1.1//EN" "http://www.w3.org/Graphics/SVG/1.1/DTD/svg11.dtd">
<svg version="1.1" id="Layer_1" xmlns="http://www.w3.org/2000/svg" xmlns:xlink="http://www.w3.org/1999/xlink" x="0px" y="0px"
	 width="48px" height="48px" viewBox="0 0 48 48" enable-background="new 0 0 48 48" xml:space="preserve">
<g>
	<path fill="#40596B" d="M41.139,30.127c0,0-7.098,5.371-17.097,2.885c-9.999,2.486-17.094-2.885-17.094-2.885
		c2.962-1.471,4.258-4.865,4.297-4.971c-1.72,1.389-3.329,0.893-3.329,0.893c3.979-1.99,3.979-13.127,3.979-13.127
		C11.784,0.783,24.042-0.016,24.042-0.016s12.259,0.799,12.151,12.938c0,0,0,11.137,3.979,13.127c0,0-1.613,0.496-3.332-0.893
		C36.879,25.262,38.176,28.656,41.139,30.127"/>
	<path fill="#F2F2F2" d="M46.455,48.016H1.545l1.11-7.604c0.66-3.82,2.91-7.01,6-8.951c0.899-0.568,1.87-1.029,2.89-1.359
		c0.93-0.311,1.9-0.51,2.91-0.6c0.4-0.041,0.801-0.061,1.21-0.061h16.66c1.431,0,2.819,0.23,4.12,0.66
		c1.02,0.33,1.99,0.791,2.891,1.359c3.09,1.941,5.34,5.131,6,8.951L46.455,48.016z"/>
	<rect x="23.986" y="33.667" fill="#FFD15C" width="0.004" height="0.006"/>
	<path fill="#FF7058" d="M32.325,29.441h-16.66c-0.409,0-0.81,0.02-1.21,0.061c-0.979,0.086-1.919,0.283-2.822,0.576l6.396,17.938
		h11.944l6.395-17.936C35.09,29.666,33.727,29.441,32.325,29.441"/>
	<path fill="#FFD15C" d="M23.971,31.162c0.319,0,0.629-0.031,0.93-0.08c-0.15,0.029-0.311,0.049-0.46,0.07
		c-0.15,0.01-0.31,0.02-0.46,0.02h-0.02c-0.171,0-0.351-0.01-0.521-0.031l-0.011-0.01c0.031,0,0.07,0.01,0.101,0.01
		c0.069,0.012,0.13,0.021,0.2,0.012C23.811,31.162,23.891,31.162,23.971,31.162"/>
	<path fill="#FFD15C" d="M24.9,31.082c0.311-0.061,0.6-0.141,0.9-0.24c-0.181,0.061-0.36,0.119-0.541,0.17
		C25.141,31.041,25.02,31.072,24.9,31.082"/>
	<path fill="#FFD15C" d="M26.279,30.641c0.293-0.127,0.578-0.283,0.851-0.459C26.855,30.365,26.568,30.512,26.279,30.641"/>
	<path fill="#FFD15C" d="M25.82,30.832c0.154-0.053,0.307-0.123,0.46-0.191c-0.007,0.004-0.013,0.008-0.021,0.012
		C26.11,30.721,25.971,30.781,25.82,30.832"/>
	<path fill="#FFD15C" d="M29.224,28.359c0.003-0.004,0.006-0.006,0.008-0.01l-0.001,0.002c-0.15,0.18-0.3,0.34-0.46,0.51
		c-0.521,0.531-1.069,0.971-1.64,1.32c0.279-0.17,0.56-0.369,0.83-0.6c0.27-0.221,0.539-0.461,0.8-0.721
		C28.918,28.703,29.076,28.535,29.224,28.359"/>
	<path fill="#FFD15C" d="M30.59,26.602c-0.416,0.645-0.877,1.217-1.357,1.748c0.158-0.17,0.309-0.359,0.458-0.549
		c0.13-0.148,0.25-0.309,0.37-0.479c0.17-0.23,0.34-0.471,0.5-0.721c0.01-0.01,0.02-0.01,0.029-0.02V26.602z"/>
	<path fill="#F8B64C" d="M15.642,17.17c0.39,1.672,0.185,3.15-0.46,3.301s-1.482-1.084-1.873-2.756
		c-0.39-1.672-0.184-3.15,0.46-3.301S15.252,15.498,15.642,17.17"/>
	<path fill="#F8B64C" d="M32.403,17.17c-0.39,1.672-0.185,3.15,0.46,3.301s1.369-1.115,1.873-2.756
		c0.301-0.98,0.162-2.982-0.46-3.301C33.688,14.115,32.793,15.498,32.403,17.17"/>
	<path fill="#F2F2F2" d="M24.004,32.832v0.789c-0.721,1-1.88,1.65-3.2,1.65c-2.18,0-3.93-1.75-3.93-3.93
		c0-0.711,0.19-1.371,0.51-1.932v0.021C18.863,31.48,21.273,32.832,24.004,32.832"/>
	<path fill="#F2F2F2" d="M31.124,31.342c0,2.18-1.75,3.93-3.931,3.93c-1.319,0-2.479-0.65-3.189-1.65v-0.789
		c2.73,0,5.141-1.352,6.62-3.41C30.934,29.98,31.124,30.641,31.124,31.342"/>
	<path fill="#F1543F" d="M24.91,36.879c0,0.502-0.408,0.91-0.91,0.91c-0.503,0-0.91-0.408-0.91-0.91c0-0.504,0.407-0.91,0.91-0.91
		C24.502,35.969,24.91,36.375,24.91,36.879"/>
	<path fill="#F1543F" d="M24.91,39.934c0,0.504-0.408,0.91-0.91,0.91c-0.503,0-0.91-0.406-0.91-0.91c0-0.502,0.407-0.91,0.91-0.91
		C24.502,39.023,24.91,39.432,24.91,39.934"/>
	<path fill="#F1543F" d="M24.91,42.988c0,0.504-0.408,0.91-0.91,0.91c-0.503,0-0.91-0.406-0.91-0.91c0-0.502,0.407-0.908,0.91-0.908
		C24.502,42.08,24.91,42.486,24.91,42.988"/>
	<path fill="#F1543F" d="M24.91,46.045c0,0.502-0.408,0.91-0.91,0.91c-0.503,0-0.91-0.408-0.91-0.91c0-0.504,0.407-0.91,0.91-0.91
		C24.502,45.135,24.91,45.541,24.91,46.045"/>
	<path fill="#FFD15C" d="M34.154,15.021c-0.021,0.219-0.03,0.43-0.021,0.609c-0.33,7.18-4.71,14.621-10.09,14.641
		c-5.38-0.02-9.771-7.461-10.09-14.641c0.01-0.18,0-0.391-0.021-0.609c0.08-0.75,0.26-1.541,0.66-1.91c0,0,8.4-4.01,9.45-5.451
		c1.05,1.441,9.45,5.451,9.45,5.451C33.895,13.48,34.074,14.271,34.154,15.021"/>
	<path fill="#F8B64C" d="M24.044,30.271c-2.567-0.01-4.901-1.719-6.683-4.271c0.002,0.947,0.011,3.082,0.019,3.426
		c1.481,2.059,3.892,3.402,6.62,3.402s5.139-1.344,6.621-3.402c0.007-0.33,0.015-2.313,0.018-3.309
		C28.869,28.605,26.57,30.262,24.044,30.271"/>
	<path fill="#40596B" d="M29.466,13.85h-2.317c-1.143,0-2.104,0.736-2.461,1.758c-0.232-0.041-0.469-0.07-0.709-0.07
		c-0.197,0-0.391,0.027-0.582,0.057c-0.361-1.014-1.319-1.744-2.457-1.744h-2.318c-1.446,0-2.618,1.172-2.618,2.617
		c0,1.447,1.172,2.621,2.619,2.621h2.317c1.445,0,2.617-1.174,2.617-2.619v-0.002c0-0.061-0.014-0.117-0.018-0.18
		c0.336-0.047,0.675-0.045,1.008,0.012c-0.003,0.057-0.018,0.111-0.018,0.168c0,1.447,1.174,2.621,2.621,2.621h2.315
		c1.446,0,2.619-1.174,2.619-2.619v-0.002C32.085,15.021,30.912,13.85,29.466,13.85 M20.938,18.338h-2.315
		c-1.03,0-1.869-0.84-1.869-1.869s0.838-1.869,1.868-1.869h2.316c1.031,0,1.869,0.84,1.869,1.869S21.969,18.338,20.938,18.338
		 M29.466,18.338H27.15c-1.031,0-1.871-0.84-1.871-1.869s0.838-1.869,1.869-1.869h2.317c1.03,0,1.868,0.84,1.868,1.869
		S30.496,18.338,29.466,18.338"/>
	<g opacity="0.1">
		<g>
			<defs>
				<rect id="SVGID_141_" x="19.426" y="26.117" width="11.213" height="6.711"/>
			</defs>
			<clipPath id="SVGID_2_">
				<use xlink:href="#SVGID_141_"  overflow="visible"/>
			</clipPath>
			<path clip-path="url(#SVGID_2_)" fill="#40596B" d="M24.044,30.271c-1.664-0.006-3.228-0.734-4.608-1.936l-0.01,0.014
				l4.473,4.473c0.035,0,0.067,0.006,0.102,0.006c2.729,0,5.139-1.344,6.621-3.402c0.007-0.33,0.015-2.313,0.018-3.309
				C28.869,28.605,26.57,30.262,24.044,30.271"/>
		</g>
	</g>
	<path fill="#F8B64C" d="M24.044,30.271c-2.567-0.01-4.901-1.719-6.683-4.271c0.002,0.947,0.011,3.082,0.019,3.426
		c1.481,2.059,3.892,3.402,6.62,3.402s5.139-1.344,6.621-3.402c0.007-0.33,0.015-2.313,0.018-3.309
		C28.869,28.605,26.57,30.262,24.044,30.271"/>
</g>
</svg>
