<?xml version="1.0" encoding="utf-8"?>
<!-- Generator: Adobe Illustrator 18.0.0, SVG Export Plug-In . SVG Version: 6.00 Build 0)  -->
<!DOCTYPE svg PUBLIC "-//W3C//DTD SVG 1.1//EN" "http://www.w3.org/Graphics/SVG/1.1/DTD/svg11.dtd">
<svg version="1.1" id="Layer_1" xmlns="http://www.w3.org/2000/svg" xmlns:xlink="http://www.w3.org/1999/xlink" x="0px" y="0px"
	 viewBox="0 0 48 48" enable-background="new 0 0 48 48" xml:space="preserve">
<g>
	<path fill="#CDD6E0" d="M31.5,12.9L31.5,12.9c-0.6,0-1,0.4-1,1v7.9c0,0.7-0.6,1.2-1.2,1.2S28,22.5,28,21.8v-7.9c0-0.5-0.4-1-1-1
		c-0.5,0-1,0.4-1,1v7.9c0,0.7-0.6,1.2-1.2,1.2c-0.7,0-1.2-0.6-1.2-1.2v-7.9c0-0.5-0.4-1-1-1c-0.5,0-1,0.4-1,1v7.9
		c0,0.7-0.6,1.2-1.2,1.2h0c-0.7,0-1.2-0.6-1.2-1.2v-7.9c0-0.5-0.4-1-1-1h-0.1c-0.5,0-1,0.4-1,1v8.8c0,3.2,2,6,4.8,7.1v15.3
		c0,1.6,1.3,2.9,2.9,2.9h0c1.6,0,2.9-1.3,2.9-2.9V29.8c2.8-1.1,4.8-3.9,4.8-7.1v-8.8C32.5,13.3,32.1,12.9,31.5,12.9z"/>
	<g>
		<path fill="#FF7058" d="M26.6,2L2.1,6.9C0.9,7.1,0,8,0,9.1c0,1.1,0.9,2.1,2.1,2.2l24.5,4.9c4.8,0.7,9.1-2.7,9.1-7.1
			C35.7,4.7,31.4,1.3,26.6,2z"/>
		<path fill="#4CDBC4" d="M41.6,11.8c2.3,0,4.6-0.9,6.4-2.7c-1.8-1.8-4.1-2.7-6.4-2.7c1.6-1.6,2.7-3.9,2.7-6.4c-5,0-9.1,4.1-9.1,9.1
			s4.1,9.1,9.1,9.1C44.2,15.7,43.2,13.4,41.6,11.8z"/>
	</g>
</g>
</svg>
