<?xml version="1.0" encoding="utf-8"?>
<!-- Generator: Adobe Illustrator 18.0.0, SVG Export Plug-In . SVG Version: 6.00 Build 0)  -->
<!DOCTYPE svg PUBLIC "-//W3C//DTD SVG 1.1//EN" "http://www.w3.org/Graphics/SVG/1.1/DTD/svg11.dtd">
<svg version="1.1" id="Layer_1" xmlns="http://www.w3.org/2000/svg" xmlns:xlink="http://www.w3.org/1999/xlink" x="0px" y="0px"
	 viewBox="0 0 48 48" enable-background="new 0 0 48 48" xml:space="preserve">
<g>
	<path fill="#F2F2F2" d="M45.9,22.2c0-5.3-4.2-9.6-9.5-9.8c0-3.3-1.3-6.7-4-9.2c-4.2-3.9-10.8-4.3-15.5-1.1
		c-3.5,2.5-5.3,6.3-5.3,10.2c-5.3,0.2-9.5,4.5-9.5,9.8c0,4.5,3,8.2,7,9.4V46c0,1.1,0.9,2,2,2h25.7c1.1,0,2-0.9,2-2V31.6
		C42.9,30.4,45.9,26.7,45.9,22.2z"/>
	<g>
		<rect x="13.7" y="34.3" fill="#CDD6E0" width="3.4" height="10.3"/>
	</g>
	<g>
		<rect x="22.3" y="34.3" fill="#CDD6E0" width="3.4" height="10.3"/>
	</g>
	<g>
		<rect x="30.9" y="34.3" fill="#CDD6E0" width="3.4" height="10.3"/>
	</g>
</g>
</svg>
