<?xml version="1.0" encoding="utf-8"?>
<!-- Generator: Adobe Illustrator 18.0.0, SVG Export Plug-In . SVG Version: 6.00 Build 0)  -->
<!DOCTYPE svg PUBLIC "-//W3C//DTD SVG 1.1//EN" "http://www.w3.org/Graphics/SVG/1.1/DTD/svg11.dtd">
<svg version="1.1" id="Layer_1" xmlns="http://www.w3.org/2000/svg" xmlns:xlink="http://www.w3.org/1999/xlink" x="0px" y="0px"
	 viewBox="0 0 48 48" enable-background="new 0 0 48 48" xml:space="preserve">
<g>
	<g>
		<path fill="#40596B" d="M47,19.6c1.3,5.2-2.2,10.9-7.9,11.1c-5.7-0.2-9.2-6-7.9-11.1c1.4-5.4,4.2-7.3,7.9-7.3
			C42.8,12.3,45.6,14.2,47,19.6z"/>
		<polygon fill="#F8B64C" points="43.3,29.4 43.3,32.9 42.6,34.7 40.6,40 37.7,40 35.6,34.6 35,32.9 35,29.4 36.1,29.1 36.1,28 
			42.2,28 42.2,29.1 		"/>
		<path fill="#FFD15C" d="M45.2,22.6c-1.8,6.6-6.1,7.1-6.1,7.1s-4.3-0.5-6.1-7.1c0,0-1-0.8-0.2-3.6c0,0,0.5-5.8,6.2-5.8
			s6.2,5.8,6.2,5.8C46.2,21.8,45.2,22.6,45.2,22.6z"/>
		<path fill="#40596B" d="M39.4,18.4c1.2,0.8,6.4,0.4,6.4,0.4l-0.2-1c-0.4-2.1-2.4-3.8-4.2-4.9l0,0h-3.9l-1.6,1l0.4,1
			C36.9,16.4,38,17.5,39.4,18.4z"/>
		<path fill="#40596B" d="M36.1,19c-1.5,1.2-4,0.6-4,0.6l0.8-2.2l0.3-1.9l3.2-1.6l1.7-0.1l0,0.8C37.9,15.8,37.1,18.1,36.1,19z"/>
		<path fill="#84DBFF" d="M44.7,33.1V40h-11v-6.9c0.1,0.1,0.2,0.2,0.3,0.3c0.5,0.5,1.1,0.9,1.7,1.3c0,0,0.1,0,0.1,0
			c0.3,0.2,0.6,0.3,0.9,0.4c1.6,0.6,3.4,0.6,5,0c0.3-0.1,0.6-0.2,0.9-0.4c0,0,0.1,0,0.1,0c0.6-0.3,1.2-0.7,1.7-1.3
			C44.5,33.3,44.6,33.2,44.7,33.1z"/>
		<polygon fill="#CDD6E0" points="48,31 48,40 40.5,40 42.6,34.7 43.3,32.8 43.8,31.3 44.5,29.7 		"/>
		<path fill="#CDD6E0" d="M35.7,34.7l2,5.3H25.3l0-3.2c0-2.4,1.5-4.6,3.8-5.4l4.7-1.7l0.7,1.6l0.5,1.4L35.7,34.7z"/>
		<polygon fill="#F2F2F2" points="45.7,34.7 44.7,36.2 42.1,40 40.2,40 41.6,35.1 43.3,29.4 43.3,29.4 43.3,29.4 43.3,29.4 
			43.4,29.4 44.6,29.7 45.4,32 44,33 44.4,33.4 44.7,33.7 		"/>
		<polygon fill="#F2F2F2" points="36.7,35.1 38.1,40 36.1,40 33.6,36.2 32.6,34.7 33.6,33.7 33.9,33.4 34.3,33 32.9,32 33.7,29.7 
			34.9,29.4 35,29.4 35,29.4 35,29.4 		"/>
	</g>
	<path fill="#FFFFFF" d="M8.6,39.9l3.7-10.7C11.4,30.4,10,31,8.6,31c-1.4,0-2.8-0.6-3.7-1.9l0,0L8.6,39.9z"/>
	<path fill="#F8B64C" d="M4.9,29.2C5,29.2,5,29.2,4.9,29.2L4.9,29.2z"/>
	<path fill="#F8B64C" d="M10.1,30.8"/>
	<path fill="#F8B64C" d="M12.3,29.2C12.3,29.2,12.3,29.2,12.3,29.2L12.3,29.2z"/>
	<g>
		
			<ellipse transform="matrix(0.9962 -8.715753e-002 8.715753e-002 0.9962 -1.9143 0.4092)" fill="#F8B64C" cx="3.7" cy="22.1" rx="1.2" ry="1.7"/>
		
			<ellipse transform="matrix(0.9962 8.715753e-002 -8.715753e-002 0.9962 1.9798 -1.0915)" fill="#F8B64C" cx="13.5" cy="22.1" rx="1.2" ry="1.7"/>
	</g>
	<path fill="#FFD15C" d="M8.6,14.1c-3,0-5.5,2.5-5.5,5.5v1.6c0,0.4,0,0.8,0.1,1.3v0c0.3,2.1,1.2,4.1,2.6,5.7l0.5,0.6
		c0.5,0.5,1.2,0.8,1.9,0.8H9c0.7,0,1.4-0.3,1.9-0.8l0.5-0.6c1.4-1.6,2.4-3.6,2.6-5.7c0.1-0.4,0.1-0.8,0.1-1.3v-1.6
		C14.1,16.5,11.6,14.1,8.6,14.1L8.6,14.1z"/>
	<path fill="#CDD6E0" d="M12.3,29.2"/>
	<polygon fill="#FF7058" points="9.8,36.5 10.1,40.1 7.1,40.1 7.4,36.5 7.4,36.5 7.6,33.8 6.7,32.2 8.6,31.1 10.5,32.2 9.6,33.8 
		9.8,36.5 	"/>
	<polygon fill="#54C0EB" points="12.7,33 14,33.5 10.8,40.1 8.5,40.1 8.6,39.9 9.8,36.5 12.3,29.2 13.8,29.7 14.4,32.2 	"/>
	<polygon fill="#54C0EB" points="8.7,40.1 6.5,40.1 3.2,33.5 4.5,33 2.8,32.2 3.4,29.7 4.8,29.2 4.9,29.2 7.4,36.5 8.6,39.9 	"/>
	<path fill="#84DBFF" d="M22.1,36.3v3.8H10.8l3.3-6.6L12.7,33l1.7-0.8l-0.6-2.5l5,1.8C20.8,32.2,22.1,34.1,22.1,36.3z"/>
	<polygon fill="#84DBFF" points="6.4,40.1 0,40.1 0,30.9 3.4,29.7 2.8,32.2 4.6,33 3.2,33.5 	"/>
	<path fill="#40596B" d="M2.7,21.1l0.5,1.5c0,0-0.2-4.7,1.5-4.8c0,0,2.6,1.1,3.9,1.4c0,0,2.7,0.3,4.1-1.3c0,0,1.1,0.6,0.7,1.9
		c0,0,0.6,2.2,0.6,2.9l0.5-1.4c0.2-0.7,1.2-4.1-1.5-4.9c0,0-0.2-3.1-4.6-3.5c0,0-3.2-0.2-5.8,3.5l0.6-0.3C3.2,16.1,2,16.8,2.7,21.1z
		"/>
	<polygon fill="#F1543F" points="6.7,32.2 7.2,33 8.6,31.8 10,33 10.5,32.2 8.6,31.1 	"/>
	<polygon fill="#F2F2F2" points="12.3,29.2 11,33 8.6,31.1 6.2,33 4.9,29.2 8.6,30.8 	"/>
	<path fill="#F8B64C" d="M11.4,28.2l-0.5,0.6c-0.5,0.5-1.2,0.8-1.9,0.8H8.2c-0.7,0-1.4-0.3-1.9-0.8l-0.5-0.6
		c-0.3-0.4-0.6-0.8-0.9-1.2v2.1l3.7,1.6l3.7-1.6V27C12,27.4,11.7,27.8,11.4,28.2z"/>
	<g>
		<rect x="18.4" y="25.7" fill="#F8B64C" width="8.9" height="7.8"/>
		<polygon opacity="0.1" fill="#40596B" points="27.3,25.7 27.3,28.5 24.1,31.1 20.5,28.3 22.5,25.7 		"/>
		
			<ellipse transform="matrix(0.9962 -8.714881e-002 8.714881e-002 0.9962 -1.6469 1.4986)" fill="#F8B64C" cx="16.3" cy="19.6" rx="1.5" ry="2.2"/>
		
			<ellipse transform="matrix(0.9962 8.714881e-002 -8.714881e-002 0.9962 1.8211 -2.4919)" fill="#F8B64C" cx="29.4" cy="19.6" rx="1.5" ry="2.2"/>
		<path fill="#FFD15C" d="M29.9,16.3v2.3c0,0.5,0,1-0.1,1.4c-0.1,0.8-0.3,1.6-0.5,2.3c-0.6,1.8-1.5,3.5-2.8,4.9L25.8,28
			c-0.6,0.7-1.5,1-2.4,1h-1c-0.9,0-1.8-0.4-2.4-1l-0.7-0.7c-0.9-1-1.7-2.1-2.2-3.4c-0.6-1.2-0.9-2.5-1.1-3.9c-0.1-0.5-0.1-1-0.1-1.4
			c0-0.1,0-0.1,0-0.2v-2.1c0-0.7,0.1-1.3,0.3-1.9c0.8-2.9,3.5-5,6.7-5c3.2,0,5.9,2.1,6.7,5C29.8,15,29.9,15.7,29.9,16.3z"/>
		<rect x="16.4" y="32.7" fill="#F2F2F2" width="13.1" height="7.3"/>
		<polygon fill="#FF7058" points="21.3,40 24.5,40 24,35 24.9,34.1 22.9,32.1 20.9,34.1 21.8,35 		"/>
		<path fill="#40596B" d="M39,40v-3.1c0-2.5-1.6-4.8-4-5.7l-7.6-2.7l0,0l-1,11.5H39z"/>
		<path fill="#40596B" d="M19.4,40l-1-11.5l-7.6,2.7c-2.4,0.9-4,3.1-4,5.7V40H19.4z"/>
		<path fill="#334A5E" d="M33.1,40c0,0,0-1.4,0-1.4l-3.6-3.6c-0.1-0.1,0-0.1,0-0.2l3.5-1.6c0.1,0,0.1-0.1,0-0.2l-5.6-4.7l-1,11.5
			H33.1z"/>
		<path fill="#334A5E" d="M12.7,38.6c0,0,0,1.3,0,1.4h6.7l-1-11.5l-5.6,4.7c-0.1,0,0,0.1,0,0.2l3.5,1.6c0.1,0,0.1,0.1,0,0.2
			L12.7,38.6z"/>
		<polygon fill="#CDD6E0" points="22.9,32.1 27.3,28.5 26.6,35.8 		"/>
		<polygon fill="#CDD6E0" points="22.9,32.1 18.4,28.5 19.2,35.9 		"/>
		<path fill="#334A5E" d="M15.8,18.5H16c0.1-0.7,0.3-1.5,0.5-2.1c0.4-0.8,0.6-1.8,0.6-2.7c0-0.3,0-0.6-0.1-0.9c0,0,0.1,0,0.2,0.1
			c3.8,1,7.7,1,11.5,0c0.1,0,0.2-0.1,0.2-0.1c-0.1,0.3-0.1,0.6-0.1,1c0,0.9,0.2,1.7,0.6,2.5c0.2,0.6,0.4,1.4,0.5,2.1H30
			c0-1.2,0.1-2.6,0.5-3.9c0.3-1,0.3-1.4,0.1-2.4c-0.3-1.3-0.4-2.7-2.4-3.5c-1.2-0.5-2.3-0.9-5.2-0.9c-2.9,0-4,0.4-5.2,0.9
			c-2,0.8-2.1,2.3-2.4,3.5c-0.3,1-0.2,1.4,0.1,2.4C15.7,15.9,15.8,17.4,15.8,18.5z"/>
	</g>
	<path fill="#40596B" d="M28.3,18.2c-0.4-0.9-1.3-1.5-2.3-1.5c-1.1,0-2,0.7-2.4,1.7c-0.5-0.2-1.1-0.2-1.6,0c-0.4-1-1.3-1.7-2.4-1.7
		c-1,0-1.9,0.6-2.3,1.5c-0.1,0.3-0.2,0.7-0.2,1c0,0.4,0.1,0.8,0.3,1.1c0.4,0.9,1.3,1.4,2.3,1.4c1.4,0,2.5-1.1,2.5-2.5c0,0,0,0,0,0
		c0.4-0.3,0.9-0.3,1.2,0c0,0,0,0,0,0c0,1.4,1.1,2.5,2.5,2.5c1,0,1.9-0.6,2.3-1.4c0.2-0.3,0.3-0.7,0.3-1.1
		C28.6,18.9,28.5,18.5,28.3,18.2z M19.8,21c-1,0-1.7-0.8-1.7-1.7c0-1,0.8-1.7,1.7-1.7c0.9,0,1.7,0.8,1.7,1.7
		C21.5,20.2,20.7,21,19.8,21z M26,21c-1,0-1.7-0.8-1.7-1.7c0-1,0.8-1.7,1.7-1.7c0.9,0,1.7,0.8,1.7,1.7C27.8,20.2,27,21,26,21z"/>
</g>
</svg>
