<?xml version="1.0" encoding="utf-8"?>
<!-- Generator: Adobe Illustrator 18.0.0, SVG Export Plug-In . SVG Version: 6.00 Build 0)  -->
<!DOCTYPE svg PUBLIC "-//W3C//DTD SVG 1.1//EN" "http://www.w3.org/Graphics/SVG/1.1/DTD/svg11.dtd">
<svg version="1.1" id="Layer_1" xmlns="http://www.w3.org/2000/svg" xmlns:xlink="http://www.w3.org/1999/xlink" x="0px" y="0px"
	 viewBox="0 0 48 48" enable-background="new 0 0 48 48" xml:space="preserve">
<g>
	<g>
		<polygon fill="#CDD6E0" points="25.8,10 29.4,2.1 28,1.5 24.1,10 		"/>
		<circle fill="#FF7058" cx="28.7" cy="1.8" r="1.8"/>
	</g>
	<g>
		<polygon fill="#CDD6E0" points="21,10 17.4,2.1 18.8,1.5 22.7,10 		"/>
		<circle fill="#FF7058" cx="18.1" cy="1.8" r="1.8"/>
	</g>
	<path fill="#ACB3BA" d="M27.5,10c-0.2-1-1.1-1.8-2.1-1.8H21c-1.1,0-1.9,0.8-2.1,1.8H27.5z"/>
	<path fill="#334A5E" d="M42.9,48H5.1c-0.6,0-1-0.4-1-1v-1.1h39.9V47C43.9,47.6,43.5,48,42.9,48z"/>
	<path fill="#40596B" d="M0,43.9V12c0-1.1,0.9-2,2-2h44c1.1,0,2,0.9,2,2v31.9c0,1.1-0.9,2-2,2H2C0.9,45.9,0,45,0,43.9z"/>
	<path fill="#54C0EB" d="M37.8,15.5v24.9c0,1.1-0.9,2-2,2H5.5c-0.5,0-1-0.2-1.4-0.6c-0.4-0.4-0.6-0.9-0.6-1.4V15.5
		c0-0.6,0.2-1.1,0.6-1.4c0.2-0.2,0.5-0.4,0.8-0.5c0.2-0.1,0.4-0.1,0.6-0.1h30.3c0.5,0,1,0.2,1.4,0.6C37.5,14.4,37.8,14.9,37.8,15.5z
		"/>
	<g>
		<rect x="39.2" y="25" fill="#334A5E" width="7.3" height="2.3"/>
		<rect x="39.2" y="20.5" fill="#334A5E" width="7.3" height="2.3"/>
		<rect x="39.2" y="16.1" fill="#334A5E" width="7.3" height="2.3"/>
	</g>
	<circle fill="#ACB3BA" cx="42.9" cy="38.5" r="1.9"/>
	<circle fill="#ACB3BA" cx="42.9" cy="31.9" r="1.9"/>
	<g>
		<polygon fill="#84DBFF" points="27.7,13.5 11.7,42.4 19.7,42.4 35.7,13.5 		"/>
		<polygon fill="#84DBFF" points="21.6,13.5 5.5,42.4 8.1,42.4 24.2,13.5 		"/>
	</g>
</g>
</svg>
