<?xml version="1.0" encoding="utf-8"?>
<!-- Generator: Adobe Illustrator 18.0.0, SVG Export Plug-In . SVG Version: 6.00 Build 0)  -->
<!DOCTYPE svg PUBLIC "-//W3C//DTD SVG 1.1//EN" "http://www.w3.org/Graphics/SVG/1.1/DTD/svg11.dtd">
<svg version="1.1" id="Layer_1" xmlns="http://www.w3.org/2000/svg" xmlns:xlink="http://www.w3.org/1999/xlink" x="0px" y="0px"
	 viewBox="0 0 48 48" enable-background="new 0 0 48 48" xml:space="preserve">
<g>
	<g>
		<g>
			<g>
				<g>
					<g>
						<g>
							<path fill="#66C6B9" d="M21.8,37.1C25.6,26,11.1,26.9,7.2,24.8C10.9,30.2,10.3,41,21.8,37.1z"/>
						</g>
						<path fill="#415A6B" d="M18.8,34.2c-0.4-1.9-0.9-3.5-1.9-4.8c0.7,1.2,1.1,2.7,1.2,4.3c-0.4-0.4-0.9-0.7-1.3-1c0,0,0,0,0-0.1
							c0,0-0.1,0-0.1,0c-0.8-0.6-1.5-1.1-2.1-1.6c-0.5-1.2-1.3-2.3-2.1-3.3c0.6,0.9,1.2,1.9,1.6,3c-1-0.7-1.6-1-1.6-1s1.4,1,3.4,2.9
							c-1.6-0.1-3-0.3-4.1-0.8c1.3,0.7,2.8,1.2,4.7,1.4c2.2,2.1,5,5.1,7.6,8.9v-2.7C22.4,37.3,20.5,35.6,18.8,34.2z"/>
					</g>
				</g>
			</g>
		</g>
	</g>
	<g>
		<g>
			<path fill="#66C6B9" d="M26.3,44.3C38,49.4,38.2,33.5,40.8,29.6C34.7,33.1,23,31.6,26.3,44.3z"/>
		</g>
		<path fill="#415A6B" d="M37.3,35.1c-1,0.5-1.9,1-3,1.4c1.7-1.9,3.2-3.5,4.1-4.4c-1.3,1.3-3.8,3.6-6.6,6.1c0.2-1.6,0.6-3,1.2-4.2
			c-0.8,1.3-1.4,2.8-1.8,4.7c-2.5,2.3-5,4.6-6.8,6.2v2.6c1.3-1.5,3.3-3.8,5.5-6.2c2-0.2,3.8-0.7,5.2-1.7c-1.3,0.6-2.9,0.9-4.6,1
			c1.1-1.2,2.2-2.5,3.3-3.7C35.1,36.5,36.2,35.8,37.3,35.1z"/>
	</g>
	<g>
		<g>
			<rect x="23" y="25.9" fill="#415A6B" width="2" height="22.1"/>
		</g>
	</g>
	<g>
		<g>
			<path fill="#F05540" d="M24,0L24,0L24,0c-8.3,7.2-8.3,18.8,0,26l0,0C32.3,18.8,32.3,7.2,24,0z"/>
		</g>
		<g>
			<g>
				<path fill="#F3705A" d="M24,21.6v6.2h0c6.9,0,12.4-5.6,12.4-12.4V9.2C29.5,9.2,24,14.8,24,21.6z"/>
			</g>
			<g>
				<path fill="#F3705A" d="M11.6,9.2v6.2c0,6.9,5.6,12.4,12.4,12.4v-6.2C24,14.8,18.4,9.2,11.6,9.2z"/>
			</g>
		</g>
	</g>
</g>
</svg>
