<?xml version="1.0" encoding="utf-8"?>
<!-- Generator: Adobe Illustrator 19.0.1, SVG Export Plug-In . SVG Version: 6.00 Build 0)  -->
<svg version="1.1" id="Layer_1" xmlns="http://www.w3.org/2000/svg" xmlns:xlink="http://www.w3.org/1999/xlink" x="0px" y="0px"
	 viewBox="0 0 48 48" style="enable-background:new 0 0 48 48;" xml:space="preserve">
<style type="text/css">
	.st0{fill:#415A6B;}
	.st1{fill:#ADB3BA;}
	.st2{fill:#E8EAE9;}
	.st3{fill:#55C0EB;}
	.st4{fill:#F3705A;}
	.st5{fill:#FFFFFF;}
	.st6{fill:#FFD15C;}
	.st7{fill:#344A5E;}
	.st8{fill:#CED6E0;}
	.st9{fill:#F05540;}
	.st10{fill:#F7B64C;}
	.st11{fill:#F3F3F3;}
	.st12{fill:#66C6B9;}
	.st13{fill:#4ABAA5;}
	.st14{fill:#8AD7F8;}
	.st15{fill:none;}
	.st16{fill:#E53D35;}
</style>
<g>
	<g>
		<g>
			<g>
				<path class="st4" d="M19.7,25.6c0,0,1.1-1.7,1.7-2.8c0.6-1.1,1.3-5.4,1.3-5.4l-1.5,0.2C21.2,17.5,19.5,24,19.7,25.6z"/>
			</g>
			<g>
				<path class="st4" d="M11.3,22.8l1.7,1.1l0.9-4l-4-5C9.9,14.9,7.2,20,11.3,22.8z"/>
			</g>
			<g>
				<path class="st6" d="M20.3,36.5c1.1-4.5,1.5-8.8,0-11.9l0-2c1.7-2.5,1.9-6.1,1.9-6.1L21,9.8c0,0-0.7-2.7-3.2-2.5
					c-2.4,0.2-5,1.8-5,1.8l-2.5,6.9c0,0-0.2,2.8,2.1,6.4l0,2.3c-1.3,4-1.2,8,0,11.8H20.3z"/>
			</g>
			<g>
				<path class="st2" d="M20.8,44.2l-0.5-12.1c0.1,3.9-8.3,3.9-8.2,0l-0.5,12.1H20.8z"/>
			</g>
			<g>
				<g>
					<path class="st7" d="M14.1,44.2L9.5,27l-4.7,1.5c-1.3,0.4-2.3,1.6-2.6,2.9L0,44.2H14.1z"/>
				</g>
				<path class="st7" d="M32.8,44.2l-2.3-12.8c-0.2-1.4-1.2-2.5-2.6-2.9L23.2,27l-4.6,17.2H32.8z"/>
			</g>
			<path class="st10" d="M12.4,22.3L12.4,22.3l0,5.4c7.3-2.1,7.9-5.2,7.9-5.2C17.7,24.7,15.1,24.6,12.4,22.3z"/>
			<g>
				<g>
					<path class="st0" d="M20.5,30.7c-0.8,3.7-2.3,10.9-2.7,13.6h2.7c2.2-4,4-8.2,5.2-12.7l-2.5-1.6l1.6-0.4c0,0-1-2-1.6-2.5
						c-0.6-0.6-2.4-2.3-2.9-2.5C20.3,24.6,21.4,26.6,20.5,30.7z"/>
				</g>
			</g>
			<g>
				<g>
					<path class="st0" d="M12.3,44.2H15c-0.4-2.6-1.9-9.9-2.7-13.6c-0.8-4.1,0.2-6.1,0.2-6.1c-0.5,0.1-2.3,1.9-2.9,2.5
						C8.9,27.6,8,29.5,8,29.5l1.6,0.4l-2.5,1.6C8.3,36,10.1,40.2,12.3,44.2z"/>
				</g>
			</g>
			<g>
				<path class="st4" d="M18.5,8.3c0,0-1.8,2.6-4.3,4.9s-3.8,2.7-4.1,3.4c-0.3,0.6,0,4.4,1.9,6.5c0.8,1,1.4,2.2,1.4,3.5
					c0,0.1,0,0.2,0,0.3c0,0-3-1.5-4.3-5.8S7.4,12.6,8.8,8.8s6.9-6,9.7-4.6s4.8,4.7,5.3,7.3c0.4,2.6,0.4,4.8,0.2,6.5
					c-0.2,1.5-0.4,3.2-2.3,6.7c-1,1.3-1.3,4.3-1.3,4.3s-0.8-1.8-0.5-3.4c0.6-2.6,1.6-4.1,1.9-6.6c0.3-2.6-0.9-8.3-1.8-9.5
					S18.5,8.3,18.5,8.3z"/>
			</g>
		</g>
		<g>
			<g>
				<path class="st12" d="M40,23c-1.6,4.5-3.7,8.8-6.2,12.9c-0.5,0.9-1.7,1.2-2.6,0.7l0,0c-0.9-0.5-1.3-1.6-0.9-2.5
					c1.9-4.4,4.1-8.6,6.8-12.6L40,23z"/>
			</g>
			<g>
				<path class="st13" d="M37.3,20.3l3.5,1.8c0.3,0.1,0.4,0.5,0.3,0.8c-0.1,0.3-0.5,0.4-0.8,0.3l-3.5-1.8c-0.3-0.1-0.4-0.5-0.3-0.8
					C36.7,20.3,37,20.1,37.3,20.3z"/>
			</g>
			<g>
				<g>
					<polygon class="st13" points="38,12.6 34.7,19 43.3,23.4 46.6,17 					"/>
				</g>
				<g>
					
						<rect x="37.1" y="14.8" transform="matrix(0.4548 -0.8906 0.8906 0.4548 6.1627 46.0256)" class="st12" width="7.2" height="6.3"/>
				</g>
				<g>
					<g>
						<path class="st12" d="M38.3,11.3L38.3,11.3c-0.5-0.3-1.1-0.1-1.4,0.5l-3.5,6.8c-0.3,0.5-0.1,1.1,0.5,1.4v0
							c0.5,0.3,1.1,0.1,1.4-0.5l3.5-6.8C39.1,12.2,38.9,11.6,38.3,11.3z"/>
					</g>
					<g>
						<path class="st12" d="M47.4,16L47.4,16c-0.5-0.3-1.1-0.1-1.4,0.5l-3.5,6.8c-0.3,0.5-0.1,1.1,0.5,1.4l0,0
							c0.5,0.3,1.1,0.1,1.4-0.5l3.5-6.8C48.1,16.9,47.9,16.2,47.4,16z"/>
					</g>
				</g>
			</g>
		</g>
		<g>
			<g>
				<path class="st4" d="M44.8,38.8H32.9c-0.8,0-1.4,0.6-1.4,1.4v0c0,0.8,0.6,1.4,1.4,1.4h11.9c0.8,0,1.4-0.6,1.4-1.4v0
					C46.2,39.4,45.6,38.8,44.8,38.8z"/>
			</g>
			<g>
				<path class="st9" d="M48,44.2H29.7v0c0-1.5,1.2-2.7,2.7-2.7h12.9C46.8,41.5,48,42.7,48,44.2L48,44.2z"/>
			</g>
		</g>
	</g>
</g>
</svg>
