<?xml version="1.0" encoding="utf-8"?>
<!-- Generator: Adobe Illustrator 18.0.0, SVG Export Plug-In . SVG Version: 6.00 Build 0)  -->
<!DOCTYPE svg PUBLIC "-//W3C//DTD SVG 1.1//EN" "http://www.w3.org/Graphics/SVG/1.1/DTD/svg11.dtd">
<svg version="1.1" id="Layer_1" xmlns="http://www.w3.org/2000/svg" xmlns:xlink="http://www.w3.org/1999/xlink" x="0px" y="0px"
	 viewBox="0 0 48 48" enable-background="new 0 0 48 48" xml:space="preserve">
<g>
	<path fill="#ACB3BA" d="M42.6,13.5l-20.9-10c-1-0.5-2.2-0.1-2.7,0.9L4.4,35.1c-0.5,1-0.1,2.2,0.9,2.7l20.9,10
		c1,0.5,2.2,0.1,2.7-0.9l14.7-30.7C44.1,15.2,43.6,14,42.6,13.5z"/>
	<path fill="#CDD6E0" d="M36.8,6L14.2,0.9c-1.1-0.2-2.1,0.4-2.4,1.5L4.3,35.6C4,36.6,4.7,37.7,5.8,38l22.6,5.1
		c1.1,0.2,2.1-0.4,2.4-1.5l7.5-33.1C38.5,7.3,37.8,6.3,36.8,6z"/>
	<path fill="#F2F2F2" d="M29.3,0H6.2c-1.1,0-2,0.9-2,2v34c0,1.1,0.9,2,2,2h23.1c1.1,0,2-0.9,2-2V2C31.3,0.9,30.5,0,29.3,0z"/>
	<g>
		<path fill="#40596B" d="M21.5,21.4c-0.8,0.8-2,1-3,0.5L19,24h-2.5l0.6-2.1c-1,0.5-2.2,0.3-3-0.5c-1-1-1-2.7,0-3.7l3.7-3.7l3.7,3.7
			C22.5,18.8,22.5,20.4,21.5,21.4z"/>
	</g>
	<g>
		<path fill="#40596B" d="M11,6.4c-0.4,0.4-1.1,0.5-1.6,0.3l0.3,1.1H8.3l0.3-1.1C8.1,6.9,7.4,6.8,7,6.4c-0.5-0.5-0.5-1.4,0-2l2-2
			l2,2C11.5,4.9,11.5,5.8,11,6.4z"/>
	</g>
	<g>
		<path fill="#40596B" d="M28.6,34.2c-0.4,0.4-1.1,0.5-1.6,0.3l0.3,1.1h-1.4l0.3-1.1c-0.5,0.3-1.2,0.2-1.6-0.3c-0.5-0.5-0.5-1.4,0-2
			l2-2l2,2C29.1,32.8,29.1,33.7,28.6,34.2z"/>
	</g>
</g>
</svg>
