<?xml version="1.0" encoding="utf-8"?>
<!-- Generator: Adobe Illustrator 18.0.0, SVG Export Plug-In . SVG Version: 6.00 Build 0)  -->
<!DOCTYPE svg PUBLIC "-//W3C//DTD SVG 1.1//EN" "http://www.w3.org/Graphics/SVG/1.1/DTD/svg11.dtd">
<svg version="1.1" id="Layer_1" xmlns="http://www.w3.org/2000/svg" xmlns:xlink="http://www.w3.org/1999/xlink" x="0px" y="0px"
	 viewBox="0 0 48 48" enable-background="new 0 0 48 48" xml:space="preserve">
<g>
	<g>
		<path fill="#CDD6E0" d="M9.2,33.8l6.1,5.1l6.4-7.6c6.9-8.2,11.5-18,13.6-28.5l0,0L9.2,33.8z"/>
		<g>
			<path fill="#F2F2F2" d="M17.4,42.5c0-0.5,0.2-1,0.6-1.4h-3.1v2.8H18C17.6,43.5,17.4,43,17.4,42.5z"/>
			<path fill="#CDD6E0" d="M17.8,42.5L17.8,42.5c0,0.8,0.7,1.4,1.6,1.4h3.3V41h-3.3C18.6,41,17.8,41.7,17.8,42.5z"/>
		</g>
		<path fill="#F2F2F2" d="M28.6,33.8l-6.1,5.1l-6.4-7.6C9.3,23.1,4.6,13.3,2.6,2.8l0,0L28.6,33.8z"/>
		<g>
			<path fill="#FF7058" d="M34.8,35.5c-2.7-3.2-7.5-3.6-10.7-0.9c-1.6,1.3-2.5,3.1-2.7,5.1c-0.2,2,0.4,4,1.7,5.5
				c1.3,1.6,3.1,2.5,5.1,2.7c0.2,0,0.4,0,0.7,0c1.8,0,3.5-0.6,4.9-1.8C37.1,43.5,37.5,38.7,34.8,35.5z M31.5,43.5
				c-0.8,0.7-1.8,1-2.9,0.9c-1.1-0.1-2-0.6-2.7-1.4c-0.7-0.8-1-1.8-0.9-2.9c0.1-1.1,0.6-2,1.4-2.7c0.7-0.6,1.6-0.9,2.5-0.9
				c1.1,0,2.3,0.5,3,1.4C33.4,39.5,33.2,42,31.5,43.5z"/>
			<path fill="#FF7058" d="M13.6,34.6c-3.2-2.7-8-2.3-10.7,0.9c-2.7,3.2-2.3,8,0.9,10.7C5.3,47.4,7,48,8.8,48c0.2,0,0.4,0,0.7,0
				c2-0.2,3.8-1.1,5.1-2.7c1.3-1.5,1.9-3.5,1.7-5.5C16.1,37.7,15.2,35.9,13.6,34.6z M11.3,43.5c-0.8,0.7-1.8,1-2.9,0.9
				c-1.1-0.1-2-0.6-2.7-1.4c-0.7-0.8-1-1.8-0.9-2.9c0.1-1.1,0.6-2,1.4-2.7c0.7-0.6,1.6-0.9,2.5-0.9c1.1,0,2.3,0.5,3,1.4
				C13.2,39.5,13,42.1,11.3,43.5z"/>
		</g>
		<circle fill="#CDD6E0" cx="18.9" cy="28" r="2.1"/>
		<circle fill="#F2F2F2" cx="18.9" cy="28" r="1"/>
	</g>
	<rect x="42.5" y="17.7" fill="#CDD6E0" width="3.5" height="11.2"/>
	<path fill="#F2F2F2" d="M41.8,8.4v9.7c0,1.4,1.1,2.5,2.5,2.5c1.4,0,2.5-1.1,2.5-2.5V0C43.7,1.7,41.8,4.9,41.8,8.4z"/>
	<path fill="#F2F2F2" d="M41.8,28.5V45c0,1.7,1.1,3,2.5,3c1.4,0,2.5-1.4,2.5-3V28.5H41.8z"/>
</g>
</svg>
