<?xml version="1.0" encoding="utf-8"?>
<!-- Generator: Adobe Illustrator 20.1.0, SVG Export Plug-In . SVG Version: 6.00 Build 0)  -->
<!DOCTYPE svg PUBLIC "-//W3C//DTD SVG 1.1//EN" "http://www.w3.org/Graphics/SVG/1.1/DTD/svg11.dtd">
<svg version="1.1" id="Layer_1" xmlns="http://www.w3.org/2000/svg" xmlns:xlink="http://www.w3.org/1999/xlink" x="0px" y="0px"
	 viewBox="0 0 49 49" enable-background="new 0 0 49 49" xml:space="preserve">
<g>
	<rect x="14.3" y="0.5" fill="#F1543F" width="21.3" height="35.4"/>
	<polygon fill="#F98478" points="15.3,7.3 15.3,1.5 21,1.5 	"/>
	<polygon fill="#E83E36" points="21,7.3 15.3,7.3 21,1.5 	"/>
	
		<rect x="16.3" y="2.5" transform="matrix(-1.836970e-16 1 -1 -1.836970e-16 22.5113 -13.7597)" fill="#FF7058" width="3.8" height="3.8"/>
	<polygon fill="#F98478" points="22,7.3 22,1.5 27.8,1.5 	"/>
	<polygon fill="#E83E36" points="27.8,7.3 22,7.3 27.8,1.5 	"/>
	
		<rect x="23" y="2.5" transform="matrix(-1.836970e-16 1 -1 -1.836970e-16 29.2633 -20.5117)" fill="#FF7058" width="3.8" height="3.8"/>
	<polygon fill="#F98478" points="28.8,7.3 28.8,1.5 34.5,1.5 	"/>
	<polygon fill="#E83E36" points="34.5,7.3 28.8,7.3 34.5,1.5 	"/>
	
		<rect x="29.8" y="2.5" transform="matrix(-1.836970e-16 1 -1 -1.836970e-16 36.0153 -27.2636)" fill="#FF7058" width="3.8" height="3.8"/>
	<polygon fill="#F98478" points="15.3,14 15.3,8.3 21,8.3 	"/>
	<polygon fill="#E83E36" points="21,14 15.3,14 21,8.3 	"/>
	
		<rect x="16.3" y="9.3" transform="matrix(-1.836970e-16 1 -1 -1.836970e-16 29.2633 -7.0077)" fill="#FF7058" width="3.8" height="3.8"/>
	<polygon fill="#F98478" points="22,14 22,8.3 27.8,8.3 	"/>
	<polygon fill="#E83E36" points="27.8,14 22,14 27.8,8.3 	"/>
	
		<rect x="23" y="9.3" transform="matrix(-1.836970e-16 1 -1 -1.836970e-16 36.0153 -13.7597)" fill="#FF7058" width="3.8" height="3.8"/>
	<polygon fill="#F98478" points="28.8,14 28.8,8.3 34.5,8.3 	"/>
	<polygon fill="#E83E36" points="34.5,14 28.8,14 34.5,8.3 	"/>
	
		<rect x="29.8" y="9.3" transform="matrix(-1.836970e-16 1 -1 -1.836970e-16 42.7673 -20.5117)" fill="#FF7058" width="3.8" height="3.8"/>
	<polygon fill="#F98478" points="15.3,20.8 15.3,15 21,15 	"/>
	<polygon fill="#E83E36" points="21,20.8 15.3,20.8 21,15 	"/>
	
		<rect x="16.3" y="16" transform="matrix(-1.836970e-16 1 -1 -1.836970e-16 36.0153 -0.2558)" fill="#FF7058" width="3.8" height="3.8"/>
	<polygon fill="#F98478" points="22,20.8 22,15 27.8,15 	"/>
	<polygon fill="#E83E36" points="27.8,20.8 22,20.8 27.8,15 	"/>
	
		<rect x="23" y="16" transform="matrix(-1.836970e-16 1 -1 -1.836970e-16 42.7673 -7.0078)" fill="#FF7058" width="3.8" height="3.8"/>
	<polygon fill="#F98478" points="28.8,20.8 28.8,15 34.5,15 	"/>
	<polygon fill="#E83E36" points="34.5,20.8 28.8,20.8 34.5,15 	"/>
	
		<rect x="29.8" y="16" transform="matrix(-1.836970e-16 1 -1 -1.836970e-16 49.5192 -13.7597)" fill="#FF7058" width="3.8" height="3.8"/>
	<polygon fill="#F98478" points="15.3,27.5 15.3,21.8 21,21.8 	"/>
	<polygon fill="#E83E36" points="21,27.5 15.3,27.5 21,21.8 	"/>
	
		<rect x="16.3" y="22.8" transform="matrix(-1.836970e-16 1 -1 -1.836970e-16 42.7672 6.4962)" fill="#FF7058" width="3.8" height="3.8"/>
	<polygon fill="#F98478" points="22,27.5 22,21.8 27.8,21.8 	"/>
	<polygon fill="#E83E36" points="27.8,27.5 22,27.5 27.8,21.8 	"/>
	
		<rect x="23" y="22.8" transform="matrix(-1.836970e-16 1 -1 -1.836970e-16 49.5192 -0.2558)" fill="#FF7058" width="3.8" height="3.8"/>
	<polygon fill="#F98478" points="28.8,27.5 28.8,21.8 34.5,21.8 	"/>
	<polygon fill="#E83E36" points="34.5,27.5 28.8,27.5 34.5,21.8 	"/>
	
		<rect x="29.8" y="22.8" transform="matrix(-1.836970e-16 1 -1 -1.836970e-16 56.2711 -7.0078)" fill="#FF7058" width="3.8" height="3.8"/>
	<path fill="#F2F2F2" d="M13.7,25.1v21.4c0,1.1,0.9,2,2,2h18.4c1.1,0,2-0.9,2-2V25.1H13.7z"/>
	<polygon fill="#ACB3BA" points="13.7,25.1 13.1,25.1 10.7,28.3 13.7,33.1 	"/>
	<polygon fill="#ACB3BA" points="36.1,25.1 36.7,25.1 38.3,26.1 36.1,33.1 	"/>
	<polygon fill="#CDD6E0" points="13.1,25.1 31.3,39.2 36.7,25.1 	"/>
</g>
</svg>
