<?xml version="1.0" encoding="utf-8"?>
<!-- Generator: Adobe Illustrator 18.0.0, SVG Export Plug-In . SVG Version: 6.00 Build 0)  -->
<!DOCTYPE svg PUBLIC "-//W3C//DTD SVG 1.1//EN" "http://www.w3.org/Graphics/SVG/1.1/DTD/svg11.dtd">
<svg version="1.1" id="Layer_1" xmlns="http://www.w3.org/2000/svg" xmlns:xlink="http://www.w3.org/1999/xlink" x="0px" y="0px"
	 viewBox="0 0 512 512" enable-background="new 0 0 512 512" xml:space="preserve">
<g>
	<path fill="#65C5B8" d="M488.8,510H23.2C11.5,510,2,500.5,2,488.8V23.2C2,11.5,11.5,2,23.2,2h381c49.6,49.6,56.2,56.2,105.8,105.8
		v381C510,500.5,500.5,510,488.8,510z"/>
	<path fill="#F2F2F2" d="M427.9,510H84.1V307c0-2.1,1.7-3.8,3.8-3.8h336.3c2.1,0,3.8,1.7,3.8,3.8V510z"/>
	<path fill="#F2F2F2" d="M396.9,146.9H115.1c-2.1,0-3.8-1.7-3.8-3.8V2h289.4v141.1C400.7,145.2,399,146.9,396.9,146.9z"/>
	<rect x="301.4" y="27.3" fill="#41596B" width="62.2" height="94.3"/>
	<g>
		<g>
			<g>
				<rect x="134.8" y="343.1" fill="#CDD5DF" width="242.5" height="24.1"/>
				<rect x="134.8" y="401.1" fill="#CDD5DF" width="242.5" height="24.1"/>
			</g>
			<rect x="134.8" y="459.2" fill="#CDD5DF" width="242.5" height="24.1"/>
		</g>
	</g>
</g>
</svg>
