<?xml version="1.0" encoding="utf-8"?>
<!-- Generator: Adobe Illustrator 18.0.0, SVG Export Plug-In . SVG Version: 6.00 Build 0)  -->
<!DOCTYPE svg PUBLIC "-//W3C//DTD SVG 1.1//EN" "http://www.w3.org/Graphics/SVG/1.1/DTD/svg11.dtd">
<svg version="1.1" id="Layer_1" xmlns="http://www.w3.org/2000/svg" xmlns:xlink="http://www.w3.org/1999/xlink" x="0px" y="0px"
	 viewBox="0 0 48 48" enable-background="new 0 0 48 48" xml:space="preserve">
<g>
	<g>
		<circle fill="#FFD15C" cx="24" cy="14.3" r="14.3"/>
		<circle fill="#F8B64C" cx="24" cy="14.3" r="11.7"/>
		<g>
			<path fill="#FFD15C" d="M23.3,19.3v-4.5c-1.4-0.4-2.4-1-3.1-1.8c-0.7-0.8-1-1.8-1-2.9c0-1.2,0.4-2.1,1.1-2.9s1.7-1.3,2.9-1.4V4.7
				h1.5v1.1c1.1,0.1,2,0.5,2.7,1.2c0.7,0.6,1.1,1.5,1.3,2.6l-2.7,0.4c-0.2-0.8-0.6-1.4-1.3-1.7v4.2c1.7,0.5,2.9,1.1,3.5,1.8
				c0.6,0.7,0.9,1.7,0.9,2.8c0,1.3-0.4,2.4-1.2,3.3c-0.8,0.9-1.9,1.4-3.3,1.6v2h-1.5v-1.9c-1.2-0.1-2.2-0.6-3-1.4
				c-0.8-0.8-1.3-1.9-1.5-3.3l2.8-0.3c0.1,0.6,0.3,1.1,0.6,1.5C22.5,18.8,22.9,19.1,23.3,19.3z M23.3,8.1c-0.4,0.1-0.8,0.4-1,0.7
				C22,9.2,21.9,9.6,21.9,10c0,0.4,0.1,0.7,0.3,1.1c0.2,0.3,0.6,0.6,1,0.8V8.1z M24.8,19.5c0.5-0.1,1-0.3,1.3-0.7
				c0.3-0.4,0.5-0.9,0.5-1.4c0-0.5-0.1-0.9-0.4-1.2c-0.3-0.3-0.7-0.6-1.4-0.8V19.5z"/>
		</g>
	</g>
	<path fill="#ACB3BA" d="M47.9,29.7c-1.1-2.3-5.5-0.4-5.5-0.4l-6.4,2c0.2,0.4,0.5,0.9,0.5,1.6c0,0.4-0.1,0.8-0.3,1.1
		c-0.2,0.3-0.5,0.6-0.8,0.8c-0.3,0.2-0.5,0.3-0.8,0.5c-0.1,0.1-0.3,0.2-0.4,0.2c-0.2,0.1-0.3,0.1-0.5,0.2c-0.6,0.3-1.3,0.5-2,0.6
		c-0.7,0.2-1.4,0.2-2.1,0.3c-0.7,0.1-1.4,0.1-2.1,0.1c-0.7,0-1.3,0-2,0c-1.3,0-2.5,0-3.5-0.1c-2-0.1-3.4-0.1-3.4-0.1
		s1.4-0.1,3.4-0.1c1,0,2.2-0.1,3.5-0.2c0.6,0,1.3-0.1,2-0.2c0.7-0.1,1.3-0.1,2-0.3c0.7-0.1,1.3-0.2,1.9-0.4c1.3-0.4,2.1-0.8,2.6-1.2
		c0.7-0.5,0.9-1.5,0.5-2.3c0,0,0,0,0,0c-0.7-0.9-1.8-1-2.9-1.1c-4.4-0.5-10.7,0.1-10.7,0.1l-3.5-1.4c-4.9-2-10.9,2.5-10.9,2.5
		c-2.2,1.9-4.5,3.4-6.7,4.8V48c5.1-3.5,7.8-4.4,7.8-4.4c2.2-1.8,12.8-0.1,12.8-0.1c6.1,0.4,7-0.9,7-0.9l8.2-5.2
		c6.5-4.5,10.5-5.7,10.5-5.7C48.6,31.3,47.9,29.7,47.9,29.7z"/>
</g>
</svg>
