<?xml version="1.0" encoding="utf-8"?>
<!-- Generator: Adobe Illustrator 18.0.0, SVG Export Plug-In . SVG Version: 6.00 Build 0)  -->
<!DOCTYPE svg PUBLIC "-//W3C//DTD SVG 1.1//EN" "http://www.w3.org/Graphics/SVG/1.1/DTD/svg11.dtd">
<svg version="1.1" id="Layer_1" xmlns="http://www.w3.org/2000/svg" xmlns:xlink="http://www.w3.org/1999/xlink" x="0px" y="0px"
	 viewBox="0 0 48 48" enable-background="new 0 0 48 48" xml:space="preserve">
<g>
	<g>
		<path fill="#F3F3F3" d="M37,48H3c-1.7,0-3-1.3-3-3V3c0-1.7,1.3-3,3-3h34c1.7,0,3,1.3,3,3v42C40,46.7,38.6,48,37,48z"/>
		<g>
			<g>
				<rect x="5" y="5" fill="#66C6B9" width="30" height="2.2"/>
			</g>
			<rect x="5" y="12.2" fill="#CED6E0" width="30" height="2.2"/>
			<rect x="5" y="19.3" fill="#CED6E0" width="30" height="2.2"/>
			<rect x="5" y="26.5" fill="#CED6E0" width="30" height="2.2"/>
			<rect x="5" y="33.7" fill="#CED6E0" width="30" height="2.2"/>
			<rect x="5" y="40.8" fill="#CED6E0" width="15.4" height="2.2"/>
		</g>
		<g>
			<g>
				<g>
					<g>
						<path fill="#F3705A" d="M46.7,40.6L39.1,33L33,39.1l7.6,7.6c1.7,1.7,4.4,1.7,6.1,0l0,0C48.4,45,48.4,42.3,46.7,40.6z"/>
					</g>
				</g>
				<g>
					<path fill="#F05540" d="M33,39.1l1.6,1.6c1.3-0.7,2.5-1.5,3.5-2.6c1.1-1.1,1.9-2.3,2.6-3.5L39.1,33L33,39.1z"/>
				</g>
				<circle fill="#8AD7F8" cx="28" cy="28" r="11.5"/>
				<g>
					<path fill="#415A6B" d="M37.2,37.2c-5.1,5.1-13.4,5.1-18.5,0s-5.1-13.4,0-18.5s13.4-5.1,18.5,0S42.3,32.1,37.2,37.2z M21,21
						c-3.8,3.8-3.8,10.1,0,13.9s10.1,3.8,13.9,0s3.8-10.1,0-13.9S24.9,17.2,21,21z"/>
				</g>
			</g>
			<ellipse fill="#FFFFFF" cx="28" cy="22.8" rx="3.2" ry="1.9"/>
		</g>
	</g>
</g>
</svg>
