<?xml version="1.0" encoding="utf-8"?>
<!-- Generator: Adobe Illustrator 18.0.0, SVG Export Plug-In . SVG Version: 6.00 Build 0)  -->
<!DOCTYPE svg PUBLIC "-//W3C//DTD SVG 1.1//EN" "http://www.w3.org/Graphics/SVG/1.1/DTD/svg11.dtd">
<svg version="1.1" id="Layer_1" xmlns="http://www.w3.org/2000/svg" xmlns:xlink="http://www.w3.org/1999/xlink" x="0px" y="0px"
	 viewBox="0 0 48 48" enable-background="new 0 0 48 48" xml:space="preserve">
<g>
	<path fill="#F2F2F2" d="M19.7,19.4H5.4c-1.1,0-2,0.9-2,2V48h18.3V21.4C21.7,20.3,20.8,19.4,19.7,19.4z"/>
	<path fill="#F2F2F2" d="M42.6,28.7H28.3c-1.1,0-2,0.9-2,2V46c0,1.1,0.9,2,2,2h14.3c1.1,0,2-0.9,2-2V30.7
		C44.6,29.6,43.7,28.7,42.6,28.7z"/>
	<rect x="11.8" y="7.3" fill="#F2F2F2" width="1.3" height="12.9"/>
	<path fill="#FF7058" d="M13,22.5c3.4-0.8,5.5-1.9,6.7-3.1c0,0-0.1,0-0.1,0h-11c-4.7,2.3-5.2,5.4-5.2,5.7v4.6
		C3.4,29.3,4.3,24.5,13,22.5z"/>
	<path fill="#FF7058" d="M13,27.1c-8.8,2-9.6,6.8-9.7,7.2v4.6c0-0.3,0.9-5.2,9.7-7.2c7.9-1.8,8.6-5.7,8.6-6.7v-3.6
		c0-0.2,0-0.3-0.1-0.5C21.3,22.4,19.9,25.5,13,27.1z"/>
	<path fill="#FF7058" d="M13,36.3c-8.8,2-9.6,6.8-9.7,7.2V46c0,0.4,0.1,0.7,0.3,1c0.7-1.6,2.8-4.7,9.4-6.2c7.9-1.8,8.6-5.7,8.6-6.7
		v-4.6C21.6,30.6,20.9,34.5,13,36.3z"/>
	<path fill="#FF7058" d="M13,45.4C10.2,46.1,8.2,47,6.8,48h11.6c2.9-1.8,3.3-3.9,3.3-4.6v-4.6C21.6,39.8,20.9,43.7,13,45.4z"/>
	<rect x="34.7" y="16.6" fill="#F2F2F2" width="1.3" height="12.9"/>
	<path fill="#3DC9AE" d="M26.3,34.3v4.6c0-0.3,0.9-5.2,9.7-7.2c3.3-0.7,5.3-1.8,6.5-2.9c-0.3-0.1-0.6-0.2-0.9-0.2h-10
		C26.9,30.9,26.4,34.1,26.3,34.3z"/>
	<path fill="#3DC9AE" d="M36,36.4c-8.8,2-9.6,6.8-9.7,7.2V46c0,0.4,0.1,0.8,0.3,1.1c0.7-1.6,2.8-4.7,9.3-6.1
		c7.9-1.8,8.6-5.7,8.6-6.7v-2.6c0-0.4-0.1-0.7-0.2-1C44,32.3,42.2,35,36,36.4z"/>
	<path fill="#3DC9AE" d="M41.5,48c2.8-1.8,3.1-3.9,3.2-4.5v-4.6c0,1-0.7,4.9-8.6,6.7c-2.7,0.6-4.7,1.5-6.1,2.5H41.5z"/>
	<path fill="#FFD15C" d="M7,10.7c0,3.7,2.5,6.7,5.5,6.7s5.5-3,5.5-6.7S12.4,0,12.4,0S7,7,7,10.7z"/>
	<path fill="#FFD15C" d="M35.4,9.3c0,0-5.5,7-5.5,10.7s2.5,6.7,5.5,6.7c3,0,5.5-3,5.5-6.7S35.4,9.3,35.4,9.3z"/>
	<path fill="#F8B64C" d="M9.2,13.5c0,2.2,1.4,3.9,3.2,3.9c1.8,0,3.2-1.8,3.2-3.9c0-2.2-3.2-6.3-3.2-6.3S9.2,11.3,9.2,13.5z"/>
	<path fill="#F8B64C" d="M35.4,16.5c0,0-3.2,4.1-3.2,6.3s1.4,3.9,3.2,3.9c1.8,0,3.2-1.8,3.2-3.9S35.4,16.5,35.4,16.5z"/>
</g>
</svg>
