<?xml version="1.0" encoding="utf-8"?>
<!-- Generator: Adobe Illustrator 20.1.0, SVG Export Plug-In . SVG Version: 6.00 Build 0)  -->
<!DOCTYPE svg PUBLIC "-//W3C//DTD SVG 1.1//EN" "http://www.w3.org/Graphics/SVG/1.1/DTD/svg11.dtd">
<svg version="1.1" id="Layer_1" xmlns="http://www.w3.org/2000/svg" xmlns:xlink="http://www.w3.org/1999/xlink" x="0px" y="0px"
	 viewBox="0 0 49 49" enable-background="new 0 0 49 49" xml:space="preserve">
<g>
	<polygon fill="#F8B64C" points="15.6,11.1 9.5,15.6 9.5,5.6 15.6,5.6 	"/>
	
		<rect x="10.7" y="-0.9" transform="matrix(-1.836970e-16 1 -1 -1.836970e-16 16.3521 -8.7635)" fill="#FFD15C" width="3.7" height="9.5"/>
	<path fill="#40596B" d="M46.5,26.5c-0.5,0-1-0.2-1.4-0.6L24.5,5.3L3.9,25.9c-0.8,0.8-2,0.8-2.8,0c-0.8-0.8-0.8-2,0-2.8l22-22
		c0.8-0.8,2-0.8,2.8,0l22,22c0.8,0.8,0.8,2,0,2.8C47.5,26.3,47,26.5,46.5,26.5z"/>
	<polygon fill="#FFD15C" points="41.8,22.6 41.8,44.4 7.1,44.4 7.1,22.6 24.5,5.3 	"/>
	<rect x="0.5" y="44.4" fill="#ACB3BA" width="48" height="4.1"/>
	<polygon fill="#F8B64C" points="41.8,22.6 41.8,24.8 24.5,7.4 7.1,24.8 7.1,22.6 24.5,5.3 	"/>
	<g>
		<g>
			<rect x="21.2" y="12.3" fill="#FFFFFF" width="3" height="3"/>
			<rect x="24.9" y="12.3" fill="#FFFFFF" width="3" height="3"/>
			<rect x="21.2" y="16" fill="#FFFFFF" width="3" height="3"/>
			<rect x="24.9" y="16" fill="#FFFFFF" width="3" height="3"/>
		</g>
	</g>
	<path fill="#40596B" d="M17.8,44.4V32.6c0-3.7,3-6.7,6.7-6.7l0,0c3.7,0,6.7,3,6.7,6.7v11.7H17.8z"/>
</g>
</svg>
