<?xml version="1.0" encoding="utf-8"?>
<!-- Generator: Adobe Illustrator 16.0.0, SVG Export Plug-In . SVG Version: 6.00 Build 0)  -->
<!DOCTYPE svg PUBLIC "-//W3C//DTD SVG 1.1//EN" "http://www.w3.org/Graphics/SVG/1.1/DTD/svg11.dtd">
<svg version="1.1" id="Layer_1" xmlns="http://www.w3.org/2000/svg" xmlns:xlink="http://www.w3.org/1999/xlink" x="0px" y="0px"
	 width="48px" height="48px" viewBox="0 0 48 48" enable-background="new 0 0 48 48" xml:space="preserve">
<g>
	<path fill="#F26F5A" d="M17.095,14.804v19.58H1.637C0.732,34.384,0,33.651,0,32.747V21.655c0-0.332,0.131-0.648,0.365-0.883
		l6.852-6.852c0.234-0.234,0.551-0.365,0.883-0.365h7.746C16.535,13.556,17.095,14.114,17.095,14.804"/>
	<polygon fill="#FFFFFF" points="11.833,24.786 11.833,16.188 7.798,16.188 2.222,21.765 2.222,24.786 	"/>
	<rect x="17.096" y="27.06" fill="#334A5E" width="24.502" height="7.324"/>
	<path fill="#40596B" d="M14.872,34.384c0,3.494-2.832,6.326-6.325,6.326c-3.492,0-6.324-2.832-6.324-6.326
		c0-3.492,2.832-6.324,6.324-6.324C12.04,28.06,14.872,30.892,14.872,34.384"/>
	<path fill="#CDD5DF" d="M11.609,34.384c0,1.691-1.371,3.063-3.063,3.063c-1.69,0-3.062-1.371-3.062-3.063
		c0-1.689,1.371-3.061,3.062-3.061C10.238,31.323,11.609,32.694,11.609,34.384"/>
	<path fill="#FFD15C" d="M24.261,12.39l-1.798-4.156c-0.141-0.555-0.639-0.943-1.211-0.943H15.63c-0.688,0-1.248,0.559-1.248,1.25
		v3.096h4.792v19.756h20.761l7.949-17.229c0.381-0.828-0.224-1.773-1.134-1.773H24.261z"/>
	<rect x="22.741" y="16.958" fill="#F6B44B" width="3.192" height="9.867"/>
	<rect x="29.988" y="16.958" fill="#F6B44B" width="3.193" height="9.867"/>
	<polygon fill="#F6B44B" points="40.43,16.96 40.43,21.64 38.039,26.819 37.229,26.819 37.229,16.96 	"/>
	<path fill="#40596B" d="M42.273,34.384c0,3.494-2.832,6.326-6.326,6.326c-3.492,0-6.324-2.832-6.324-6.326
		c0-3.492,2.832-6.324,6.324-6.324C39.441,28.06,42.273,30.892,42.273,34.384"/>
	<path fill="#CDD5DF" d="M39.01,34.384c0,1.691-1.371,3.063-3.062,3.063s-3.062-1.371-3.062-3.063c0-1.689,1.371-3.061,3.062-3.061
		S39.01,32.694,39.01,34.384"/>
</g>
</svg>
