<?xml version="1.0" encoding="utf-8"?>
<!-- Generator: Adobe Illustrator 18.0.0, SVG Export Plug-In . SVG Version: 6.00 Build 0)  -->
<!DOCTYPE svg PUBLIC "-//W3C//DTD SVG 1.1//EN" "http://www.w3.org/Graphics/SVG/1.1/DTD/svg11.dtd">
<svg version="1.1" id="Layer_1" xmlns="http://www.w3.org/2000/svg" xmlns:xlink="http://www.w3.org/1999/xlink" x="0px" y="0px"
	 viewBox="0 0 48 48" enable-background="new 0 0 48 48" xml:space="preserve">
<g>
	<path fill="#FF7058" d="M28.9,12.9l-5.4,9.4L1.6,8.3C0,7.2-0.5,5.1,0.5,3.5l0,0c0.9-1.7,3-2.3,4.7-1.5L28.9,12.9z"/>
	<path fill="#40596B" d="M41.2,32.7H8.1c-3.8,0-6.8,3.1-6.8,6.8v0c0,3.8,3.1,6.8,6.8,6.8h33.1c3.8,0,6.8-3.1,6.8-6.8v0
		C48,35.7,44.9,32.7,41.2,32.7z"/>
	<path fill="#334A5E" d="M8.1,42.8c-1.8,0-3.3-1.5-3.3-3.3s1.5-3.3,3.3-3.3h33.1c1.8,0,3.3,1.5,3.3,3.3s-1.5,3.3-3.3,3.3H8.1z"/>
	<rect x="21.3" y="30.8" fill="#CDD6E0" width="18" height="1.8"/>
	<circle fill="#CDD6E0" cx="8.2" cy="39.5" r="2.7"/>
	<circle fill="#CDD6E0" cx="19.2" cy="39.5" r="2.7"/>
	<circle fill="#CDD6E0" cx="30.2" cy="39.5" r="2.7"/>
	<circle fill="#CDD6E0" cx="41.2" cy="39.5" r="2.7"/>
	<path fill="#BACCDB" d="M8.2,37.5c1.4,0,2.5,1,2.7,2.4c0-0.1,0-0.2,0-0.4c0-1.5-1.2-2.7-2.7-2.7c-1.5,0-2.7,1.2-2.7,2.7
		c0,0.1,0,0.2,0,0.4C5.7,38.5,6.8,37.5,8.2,37.5z"/>
	<path fill="#BACCDB" d="M19.2,37.5c1.4,0,2.5,1,2.7,2.4c0-0.1,0-0.2,0-0.4c0-1.5-1.2-2.7-2.7-2.7c-1.5,0-2.7,1.2-2.7,2.7
		c0,0.1,0,0.2,0,0.4C16.7,38.5,17.8,37.5,19.2,37.5z"/>
	<path fill="#BACCDB" d="M30.2,37.5c1.4,0,2.5,1,2.7,2.4c0-0.1,0-0.2,0-0.4c0-1.5-1.2-2.7-2.7-2.7c-1.5,0-2.7,1.2-2.7,2.7
		c0,0.1,0,0.2,0,0.4C27.7,38.5,28.8,37.5,30.2,37.5z"/>
	<path fill="#BACCDB" d="M41.2,37.5c1.4,0,2.5,1,2.7,2.4c0-0.1,0-0.2,0-0.4c0-1.5-1.2-2.7-2.7-2.7c-1.5,0-2.7,1.2-2.7,2.7
		c0,0.1,0,0.2,0,0.4C38.6,38.5,39.8,37.5,41.2,37.5z"/>
	<path fill="#FFD15C" d="M3.6,2.5L3.6,2.5c-1.7,0-3,1.5-2.8,3.2l1.6,14.6h2.4L6.5,5.7C6.6,4,5.3,2.5,3.6,2.5z"/>
	<circle fill="#FF7058" cx="3.6" cy="5.3" r="1.2"/>
	<path fill="#FCC956" d="M2.1,18l0.3,2.3h2.4L5.4,15l-0.8,0.5C3.6,16.1,2.8,17,2.1,18z"/>
	<path fill="#FF7058" d="M3.2,25.9c2,3.2,6.3,4.1,9.4,2.1L5.2,16.5C2.1,18.5,1.1,22.7,3.2,25.9z"/>
	<polygon fill="#FC6551" points="19,19.4 23.5,22.3 28.9,12.9 26.5,11.8 	"/>
	<polygon fill="#FFD15C" points="41.5,30.8 19.1,30.8 19.1,21 28.7,11.3 41.5,11.3 	"/>
	<polygon fill="#54C0EB" points="22.7,27.2 22.7,22.4 30.2,14.9 37.9,14.9 37.9,27.2 	"/>
	<g>
		<polygon fill="#84DBFF" points="34.2,14.9 23.9,27.2 22.7,27.2 22.7,26.7 32.6,14.9 		"/>
		<polygon fill="#84DBFF" points="37.5,14.9 27.1,27.2 24.8,27.2 35.1,14.9 		"/>
	</g>
</g>
</svg>
