<?xml version="1.0" encoding="utf-8"?>
<!-- Generator: Adobe Illustrator 18.0.0, SVG Export Plug-In . SVG Version: 6.00 Build 0)  -->
<!DOCTYPE svg PUBLIC "-//W3C//DTD SVG 1.1//EN" "http://www.w3.org/Graphics/SVG/1.1/DTD/svg11.dtd">
<svg version="1.1" id="Layer_1" xmlns="http://www.w3.org/2000/svg" xmlns:xlink="http://www.w3.org/1999/xlink" x="0px" y="0px"
	 viewBox="0 0 48 48" enable-background="new 0 0 48 48" xml:space="preserve">
<g>
	<path fill="#84DBFF" d="M31.5,24.7c0.7-0.7,1.1-1.6,1.1-2.6v-5.1c0-2.5-1.1-4.8-2.8-6.4c-0.6-0.5-1.1-1.2-1.5-1.8h-8.8
		c-0.4,0.7-0.9,1.3-1.5,1.8c-1.7,1.6-2.8,3.8-2.8,6.4v5.7c0,0.8,0.5,1.4,1.1,1.9c0,0,0,0,0,0c0.4,0.4,0.4,1.8,0,2.2c0,0,0,0,0,0
		c-0.6,0.5-1.1,1.1-1.1,1.9v16.3c0,0.6,0.3,1.1,0.7,1.5c0.6,0.8,1.5,1.3,2.6,1.3c0.8,0,1.6-0.3,2.1-0.8h1.1c0.6,0.5,1.3,0.8,2.1,0.8
		s1.6-0.3,2.1-0.8h1.1c0.6,0.5,1.3,0.8,2.1,0.8c1.1,0,2-0.5,2.6-1.3c0.4-0.4,0.7-0.9,0.7-1.5V28.9c0-0.5-0.3-1.1-0.6-1.5L31.5,27
		C30.9,26.4,30.9,25.3,31.5,24.7L31.5,24.7z"/>
	<path fill="#F2F2F2" d="M20.4,5.1L20.4,5.1l0.1,0.6c0,1.6-0.6,3.1-1.7,4.4h10.4c-1-1.2-1.7-2.7-1.7-4.4V5.1h0.1
		c0.2,0,0.4-0.2,0.4-0.4c0-0.2-0.2-0.4-0.4-0.4h-0.1V3.2h-7.1v0.9h-0.1c-0.2,0-0.4,0.2-0.4,0.4C19.9,4.9,20.1,5.1,20.4,5.1z"/>
	<path fill="#40596B" d="M26.8,0h-5.6c-0.5,0-1,0.4-1,1v2.3h7.6V1C27.8,0.4,27.3,0,26.8,0z"/>
	<rect x="15.3" y="30.5" fill="#54C0EB" width="17.3" height="10.4"/>
	<rect x="15.3" y="30.5" fill="#54C0EB" width="17.3" height="10.4"/>
	<g>
		<path fill="#FFFFFF" d="M26.6,37c0,1.4-1.2,2.6-2.6,2.6c-1.4,0-2.6-1.2-2.6-2.6s2.6-5.1,2.6-5.1S26.6,35.5,26.6,37z"/>
		<path opacity="0.1" fill="#231F20" d="M24.6,38.9c-1.4,0-2.6-1.2-2.6-2.6c0-1,1.3-3.2,2.1-4.4C24,31.9,24,31.8,24,31.8
			s-2.6,3.7-2.6,5.1c0,1.4,1.2,2.6,2.6,2.6c0.9,0,1.6-0.4,2.1-1.1C25.7,38.8,25.2,38.9,24.6,38.9z"/>
	</g>
</g>
</svg>
