<?xml version="1.0" encoding="utf-8"?>
<!-- Generator: Adobe Illustrator 18.0.0, SVG Export Plug-In . SVG Version: 6.00 Build 0)  -->
<!DOCTYPE svg PUBLIC "-//W3C//DTD SVG 1.1//EN" "http://www.w3.org/Graphics/SVG/1.1/DTD/svg11.dtd">
<svg version="1.1" id="Layer_1" xmlns="http://www.w3.org/2000/svg" xmlns:xlink="http://www.w3.org/1999/xlink" x="0px" y="0px"
	 viewBox="0 0 512 512" enable-background="new 0 0 512 512" xml:space="preserve">
<g>
	<path fill="#ACB3BA" d="M363.8,416.3V226.9h28.6v-29.7H119.6v29.7h28.6v189.4h-28.6V446h272.8v-29.7H363.8z M282.6,416.3h-53.1
		V226.9h53.1V416.3z"/>
	<rect x="2" y="478" fill="#ACB3BA" width="508" height="32"/>
	<rect x="33.8" y="446" fill="#CDD6E0" width="444.5" height="32"/>
	<rect x="33.8" y="152.8" fill="#CDD6E0" width="444.5" height="44.4"/>
	<rect x="229.4" y="226.9" fill="#CDD6E0" width="53.1" height="189.4"/>
	<rect x="211.2" y="197.2" fill="#F2F2F2" width="89.7" height="29.7"/>
	<rect x="363.8" y="226.9" fill="#CDD6E0" width="53.1" height="189.4"/>
	<rect x="345.5" y="197.2" fill="#F2F2F2" width="89.7" height="29.7"/>
	<rect x="95.1" y="226.9" fill="#CDD6E0" width="53.1" height="189.4"/>
	<rect x="76.8" y="197.2" fill="#F2F2F2" width="89.7" height="29.7"/>
	<rect x="211.2" y="416.3" fill="#F2F2F2" width="89.7" height="29.7"/>
	<rect x="345.5" y="416.3" fill="#F2F2F2" width="89.7" height="29.7"/>
	<rect x="76.8" y="416.3" fill="#F2F2F2" width="89.7" height="29.7"/>
	<polygon fill="#F2F2F2" points="256,2 76.8,152.8 435.2,152.8 	"/>
	<circle fill="#FFFFFF" cx="256" cy="91.6" r="34.3"/>
</g>
</svg>
