<?xml version="1.0" encoding="utf-8"?>
<!-- Generator: Adobe Illustrator 16.0.0, SVG Export Plug-In . SVG Version: 6.00 Build 0)  -->
<!DOCTYPE svg PUBLIC "-//W3C//DTD SVG 1.1//EN" "http://www.w3.org/Graphics/SVG/1.1/DTD/svg11.dtd">
<svg version="1.1" id="Layer_1" xmlns="http://www.w3.org/2000/svg" xmlns:xlink="http://www.w3.org/1999/xlink" x="0px" y="0px"
	 width="48px" height="48px" viewBox="0 0 48 48" enable-background="new 0 0 48 48" xml:space="preserve">
<g>
	<path fill="#FF7058" d="M47.521,38.607L26.465,6.191c-1.159-1.784-3.771-1.784-4.93,0L0.479,38.607
		c-1.271,1.955,0.133,4.539,2.465,4.539h42.111C47.388,43.146,48.791,40.563,47.521,38.607"/>
	<polygon fill="#F2F2F2" points="4.749,39.229 24,9.592 43.252,39.229 	"/>
	<rect x="22.438" y="24.48" fill="#40596B" width="3.125" height="11.203"/>
	<path fill="#40596B" d="M25.832,21.059c0,1.014-0.82,1.832-1.832,1.832c-1.011,0-1.832-0.818-1.832-1.832
		c0-1.012,0.821-1.832,1.832-1.832C25.012,19.227,25.832,20.047,25.832,21.059"/>
</g>
</svg>
