<?xml version="1.0" encoding="utf-8"?>
<!-- Generator: Adobe Illustrator 18.0.0, SVG Export Plug-In . SVG Version: 6.00 Build 0)  -->
<!DOCTYPE svg PUBLIC "-//W3C//DTD SVG 1.1//EN" "http://www.w3.org/Graphics/SVG/1.1/DTD/svg11.dtd">
<svg version="1.1" id="Layer_1" xmlns="http://www.w3.org/2000/svg" xmlns:xlink="http://www.w3.org/1999/xlink" x="0px" y="0px"
	 viewBox="0 0 48 48" enable-background="new 0 0 48 48" xml:space="preserve">
<g>
	<g>
		<path fill="#84DBFF" d="M29.7,37.1C36.1,29.5,41,27,41,16.5C41,6.2,33.4,0,24,0C14.6,0,7,6.2,7,16.5c0,10.5,4.9,13,11.3,20.6H29.7
			z"/>
		<path fill="#F2F2F2" d="M28.1,37.1c4.7-7.6,8.3-10.1,8.3-20.6C36.5,6.2,30.9,0,24,0S11.5,6.2,11.5,16.5c0,10.5,3.6,13,8.3,20.6
			H28.1z"/>
		<path fill="#84DBFF" d="M26.6,37.1c2.9-7.6,5.2-10.1,5.2-20.6C31.7,6.2,28.3,0,24,0s-7.7,6.2-7.7,16.5c0,10.5,2.2,13,5.2,20.6
			H26.6z"/>
		<path fill="#F2F2F2" d="M24.8,37.1c0.9-7.6,1.6-10.1,1.6-20.6C26.4,6.2,25.3,0,24,0c-1.3,0-2.4,6.2-2.4,16.5
			c0,10.5,0.7,13,1.6,20.6H24.8z"/>
	</g>
	<polygon fill="#54C0EB" points="28.6,38 19.4,38 18.3,37.1 29.7,37.1 	"/>
	<polygon fill="#FFD15C" points="18.8,40.9 19.4,38 20.4,38 19.8,40.9 	"/>
	<polygon fill="#FFD15C" points="29.2,40.9 28.6,38 27.6,38 28.2,40.9 	"/>
	<path fill="#FF7058" d="M29.3,48H18.7c-0.6,0-1-0.4-1-1v-6.1h12.5V47C30.3,47.6,29.8,48,29.3,48z"/>
</g>
</svg>
