<?xml version="1.0" encoding="utf-8"?>
<!-- Generator: Adobe Illustrator 18.0.0, SVG Export Plug-In . SVG Version: 6.00 Build 0)  -->
<!DOCTYPE svg PUBLIC "-//W3C//DTD SVG 1.1//EN" "http://www.w3.org/Graphics/SVG/1.1/DTD/svg11.dtd">
<svg version="1.1" id="Layer_1" xmlns="http://www.w3.org/2000/svg" xmlns:xlink="http://www.w3.org/1999/xlink" x="0px" y="0px"
	 viewBox="0 0 48 48" enable-background="new 0 0 48 48" xml:space="preserve">
<g>
	<path fill="#F2F2F2" d="M33.6,48H14.4c-1.1,0-2-0.9-2-2V2c0-1.1,0.9-2,2-2h19.2c1.1,0,2,0.9,2,2v44C35.6,47.1,34.7,48,33.6,48z"/>
	<path fill="#F8B64C" d="M19.4,30.9c-1.2,1.2-1.9,2.8-1.9,4.6c0,1.8,0.7,3.5,1.9,4.6l4.6-4.6L19.4,30.9z"/>
	<path fill="#FFD15C" d="M28.6,30.9C27.5,29.7,25.8,29,24,29s-3.5,0.7-4.6,1.9l4.6,4.6L28.6,30.9z"/>
	<path fill="#FFD15C" d="M19.4,40.2c1.2,1.2,2.8,1.9,4.6,1.9s3.5-0.7,4.6-1.9L24,35.5L19.4,40.2z"/>
	<path fill="#F8B64C" d="M28.6,30.9L24,35.5l4.6,4.6c1.2-1.2,1.9-2.8,1.9-4.6C30.6,33.7,29.8,32.1,28.6,30.9z"/>
	<circle fill="#CDD6E0" cx="16.7" cy="3.5" r="1.7"/>
	<circle fill="#CDD6E0" cx="31.3" cy="3.5" r="1.7"/>
	<circle fill="#CDD6E0" cx="16.7" cy="15" r="1.7"/>
	<circle fill="#CDD6E0" cx="31.3" cy="15" r="1.7"/>
	<circle fill="#CDD6E0" cx="16.7" cy="9.3" r="1.7"/>
	<circle fill="#CDD6E0" cx="31.3" cy="9.3" r="1.7"/>
	<circle fill="#CDD6E0" cx="16.7" cy="20.9" r="1.7"/>
	<circle fill="#CDD6E0" cx="31.3" cy="20.9" r="1.7"/>
	<circle fill="#4CDBC4" cx="16.7" cy="26.7" r="1.7"/>
	<circle fill="#4CDBC4" cx="31.3" cy="26.7" r="1.7"/>
	<circle fill="#4CDBC4" cx="16.7" cy="44.3" r="1.7"/>
	<circle fill="#4CDBC4" cx="31.3" cy="44.3" r="1.7"/>
	<circle fill="#CDD6E0" cx="24" cy="9.3" r="1.7"/>
	<circle fill="#CDD6E0" cx="24" cy="15.1" r="1.7"/>
	<circle fill="#CDD6E0" cx="24" cy="20.9" r="1.7"/>
	<path fill="#FFFFFF" d="M24,39.6c-2.2,0-4.1-1.8-4.1-4.1c0-2.2,1.8-4.1,4.1-4.1s4.1,1.8,4.1,4.1C28.1,37.8,26.2,39.6,24,39.6z"/>
</g>
</svg>
