<?xml version="1.0" encoding="utf-8"?>
<!-- Generator: Adobe Illustrator 18.0.0, SVG Export Plug-In . SVG Version: 6.00 Build 0)  -->
<!DOCTYPE svg PUBLIC "-//W3C//DTD SVG 1.1//EN" "http://www.w3.org/Graphics/SVG/1.1/DTD/svg11.dtd">
<svg version="1.1" id="Layer_1" xmlns="http://www.w3.org/2000/svg" xmlns:xlink="http://www.w3.org/1999/xlink" x="0px" y="0px"
	 viewBox="0 0 48 48" enable-background="new 0 0 48 48" xml:space="preserve">
<g>
	<g>
		<g>
			<path fill="#8AD7F8" d="M18.6,38.7c0,5.1-4.2,9.3-9.3,9.3S0,43.8,0,38.7s9.3-16.2,9.3-16.2S18.6,33.6,18.6,38.7z"/>
		</g>
		<g>
			<path fill="#8AD7F8" d="M20.3,9.9c0,3.2-2.6,5.7-5.7,5.7s-5.7-2.6-5.7-5.7S14.6,0,14.6,0S20.3,6.8,20.3,9.9z"/>
		</g>
		<g>
			<path fill="#8AD7F8" d="M48,24.4c0,7.7-6.3,14-14,14s-14-6.3-14-14S34,0,34,0S48,16.7,48,24.4z"/>
		</g>
		<g>
			<polygon fill="#FFFFFF" points="31.2,31 34,24.1 29.2,24.1 36.8,13.9 34,20.9 38.8,20.9 			"/>
		</g>
	</g>
</g>
</svg>
