<?xml version="1.0" encoding="utf-8"?>
<!-- Generator: Adobe Illustrator 20.1.0, SVG Export Plug-In . SVG Version: 6.00 Build 0)  -->
<!DOCTYPE svg PUBLIC "-//W3C//DTD SVG 1.1//EN" "http://www.w3.org/Graphics/SVG/1.1/DTD/svg11.dtd">
<svg version="1.1" id="Layer_1" xmlns="http://www.w3.org/2000/svg" xmlns:xlink="http://www.w3.org/1999/xlink" x="0px" y="0px"
	 viewBox="0 0 49 49" enable-background="new 0 0 49 49" xml:space="preserve">
<g>
	<path fill="#FFD15C" d="M27,14.2c-0.9-0.9-2.4-0.9-3.3,0l-9.5,9.5c-0.9,0.9-0.9,2.4,0,3.3c0.9,0.9,2.4,0.9,3.3,0l9.5-9.5
		C27.9,16.6,27.9,15.1,27,14.2z"/>
	<path fill="#FFD15C" d="M14,1.2c-0.9-0.9-2.4-0.9-3.3,0l-9.5,9.5c-0.9,0.9-0.9,2.4,0,3.3c0.9,0.9,2.4,0.9,3.3,0L14,4.4
		C14.9,3.5,14.9,2.1,14,1.2z"/>
	<path fill="#F8B64C" d="M26,8.7L26,8.7c-0.9-0.9-2.4-0.9-3.3,0L8.7,22.8c-0.9,0.9-0.9,2.4,0,3.3c0.9,0.9,2.4,0.9,3.3,0L26,11.9
		C26.9,11,26.9,9.6,26,8.7z"/>
	<path fill="#FFD15C" d="M24.4,3.8c-0.9-0.9-2.4-0.9-3.3,0L3.8,21.2c-0.9,0.9-0.9,2.4,0,3.3c0.9,0.9,2.4,0.9,3.3,0L24.4,7
		C25.3,6.1,25.3,4.7,24.4,3.8z"/>
	<path fill="#F8B64C" d="M19.5,2.1c-0.9-0.9-2.4-0.9-3.3,0L2.1,16.3c-0.9,0.9-0.9,2.4,0,3.3c0.9,0.9,2.4,0.9,3.3,0L19.5,5.4
		C20.4,4.5,20.4,3,19.5,2.1z"/>
	
		<rect x="22" y="21.5" transform="matrix(0.7071 -0.7071 0.7071 0.7071 -9.9929 24.1252)" fill="#F8B64C" width="4.2" height="5.3"/>
	<path fill="#E2E2E2" d="M28.4,23.7l-4.7,4.7c0,0,13,20.1,20.1,20.1c1.7,0,4.7-3,4.7-4.7C48.5,36.7,28.4,23.7,28.4,23.7z"/>
	<path fill="#40596B" d="M31.8,26c-2-1.4-3.4-2.3-3.4-2.3l-4.7,4.7c0,0,0.9,1.4,2.3,3.4L31.8,26z"/>
	<path fill="#40596B" d="M40,47.1c1.3,0.8,2.6,1.4,3.7,1.4c1.7,0,4.7-3,4.7-4.7c0-1.1-0.5-2.4-1.4-3.7L40,47.1z"/>
	<path fill="#FFD15C" d="M11.7,37.5c0,2.3-1.9,4.1-4.1,4.1s-4.1-1.9-4.1-4.1c0-2.3,4.1-8.3,4.1-8.3S11.7,35.2,11.7,37.5z"/>
	<ellipse transform="matrix(0.7033 -0.7109 0.7109 0.7033 -26.0157 15.8262)" fill="#FFFFFF" cx="6" cy="39.1" rx="0.7" ry="1.4"/>
	<path fill="#FFD15C" d="M20,44.4c0,2.3-1.9,4.1-4.1,4.1s-4.1-1.9-4.1-4.1c0-2.3,4.1-8.3,4.1-8.3S20,42.1,20,44.4z"/>
	
		<ellipse transform="matrix(0.7033 -0.7109 0.7109 0.7033 -28.4389 23.7475)" fill="#FFFFFF" cx="14.2" cy="45.9" rx="0.7" ry="1.4"/>
</g>
</svg>
