<?xml version="1.0" encoding="utf-8"?>
<!-- Generator: Adobe Illustrator 19.0.1, SVG Export Plug-In . SVG Version: 6.00 Build 0)  -->
<svg version="1.1" id="Layer_1" xmlns="http://www.w3.org/2000/svg" xmlns:xlink="http://www.w3.org/1999/xlink" x="0px" y="0px"
	 viewBox="0 0 48 48" style="enable-background:new 0 0 48 48;" xml:space="preserve">
<style type="text/css">
	.st0{fill:#415A6B;}
	.st1{fill:#ADB3BA;}
	.st2{fill:#E8EAE9;}
	.st3{fill:#55C0EB;}
	.st4{fill:#F3705A;}
	.st5{fill:#FFFFFF;}
	.st6{fill:#FFD15C;}
	.st7{fill:#344A5E;}
	.st8{fill:#CED6E0;}
	.st9{fill:#F05540;}
	.st10{fill:#F7B64C;}
	.st11{fill:#F3F3F3;}
	.st12{fill:#66C6B9;}
	.st13{fill:#4ABAA5;}
	.st14{fill:#8AD7F8;}
	.st15{fill:none;}
	.st16{fill:#E53D35;}
</style>
<g>
	<g>
		<g>
			<g>
				<g>
					<g>
						<g>
							<path class="st1" d="M40.6,3V41c0,1.7-1.3,3-3,3H8.5c-1.7,0-3-1.3-3-3V3c0-1.7,1.3-3,3-3h29.1C39.3,0,40.6,1.3,40.6,3z"/>
						</g>
					</g>
					<g>
						<g>
							<path class="st2" d="M36.7,7V45c0,1.7-1.3,3-3,3H4.6c-1.7,0-3-1.3-3-3V15.8L13.4,4h20.3C35.3,4,36.7,5.3,36.7,7z"/>
							<g>
								<g>
									<rect x="5.5" y="33.3" class="st1" width="27.1" height="2.9"/>
								</g>
								<g>
									<rect x="5.5" y="26.4" class="st1" width="27.1" height="2.9"/>
								</g>
								<g>
									<rect x="5.5" y="19.4" class="st1" width="27.1" height="2.9"/>
								</g>
								<g>
									<rect x="17.2" y="12.4" class="st1" width="15.5" height="2.9"/>
								</g>
							</g>
						</g>
						<g>
							<path class="st8" d="M13.4,4v8.8c0,1.6-1.3,3-3,3H1.6L13.4,4z"/>
						</g>
					</g>
				</g>
			</g>
			<g>
				<g>
					<polygon class="st4" points="41.6,29.4 41.6,44.8 36.9,40.1 32.2,44.8 32.2,29.4 					"/>
				</g>
				<g>
					<g>
						<circle class="st6" cx="36.7" cy="23.6" r="9.8"/>
					</g>
					<g>
						<circle class="st10" cx="36.7" cy="23.6" r="6.1"/>
					</g>
				</g>
			</g>
		</g>
		<g>
			<g>
				<path class="st3" d="M18.9,44.3c-0.1,0-0.3,0-0.4-0.1c-0.6-0.2-1.1-0.6-1.2-1.2c-0.2-1,0-2,0.6-2.6c-0.3,0-0.7,0-1,0.1
					c-0.6,0.2-1.1,0.8-1.6,1.5L15,42.2c-0.9,1.1-1.7,1.6-2.6,1.6c0,0,0,0,0,0c-1,0-1.9-0.7-2.4-1.8c-0.4-0.9-0.4-1.8-0.5-2.7
					c0-0.3,0.2-0.5,0.5-0.5c0.3,0,0.5,0.2,0.5,0.5c0,0.8,0.1,1.6,0.4,2.3c0.3,0.6,0.8,1.2,1.5,1.2c0.6,0,1.2-0.4,1.9-1.2l0.2-0.3
					c0.5-0.7,1.1-1.4,2-1.8c0.9-0.3,1.8-0.3,2.5,0.2c1.6-0.2,5,0.3,6.7,1.6c0.2,0.2,0.3,0.5,0.1,0.7c-0.2,0.2-0.5,0.3-0.7,0.1
					c-1.3-1-3.8-1.4-5.2-1.4c0.5,0.9,0.9,2.2,0.3,3C19.8,44.1,19.3,44.3,18.9,44.3z M18.7,40.9c-0.3,0.3-0.8,0.8-0.6,1.9
					c0,0.1,0.2,0.3,0.5,0.4c0.3,0.1,0.5,0,0.7-0.2C19.7,42.7,19.3,41.6,18.7,40.9z"/>
			</g>
		</g>
	</g>
</g>
</svg>
