<?xml version="1.0" encoding="utf-8"?>
<!-- Generator: Adobe Illustrator 18.0.0, SVG Export Plug-In . SVG Version: 6.00 Build 0)  -->
<!DOCTYPE svg PUBLIC "-//W3C//DTD SVG 1.1//EN" "http://www.w3.org/Graphics/SVG/1.1/DTD/svg11.dtd">
<svg version="1.1" id="Layer_1" xmlns="http://www.w3.org/2000/svg" xmlns:xlink="http://www.w3.org/1999/xlink" x="0px" y="0px"
	 viewBox="0 0 48 48" enable-background="new 0 0 48 48" xml:space="preserve">
<g>
	<g>
		<g>
			<g>
				<path fill="#FFD15C" d="M27.3,32.3L42,47c1.4,1.4,3.6,1.4,5,0c1.4-1.4,1.4-3.6,0-5L32.3,27.3L27.3,32.3z"/>
			</g>
		</g>
		<g>
			<circle fill="#F3F3F3" cx="19.5" cy="19.5" r="19.5"/>
			<g>
				<path fill="#66C6B9" d="M19.5,19.5c6.1-6.1,17.1,1.2,17.1,7.2c0,0.8,0,1.5,0,2.1c0.7-1.3,1.2-2.6,1.6-4
					c2.1-7.3-4.2-14.8-11.6-12.9C23.3,12.7,20.6,15.1,19.5,19.5z"/>
				<path fill="#66C6B9" d="M19.5,19.5c-6.1-6.1,1.2-17.1,7.2-17.1c0.8,0,1.5,0,2.1,0c-1.3-0.7-2.6-1.2-4-1.6
					C17.5-1.3,10.1,5,11.9,12.4C12.7,15.6,15.1,18.4,19.5,19.5z"/>
				<path fill="#66C6B9" d="M12.4,27c3.2-0.8,6-3.2,7.1-7.5c-6.1,6.1-17.1-1.2-17.1-7.2c0-0.8,0-1.5,0-2.1c-0.7,1.3-1.2,2.6-1.6,4
					C-1.3,21.5,5,28.9,12.4,27z"/>
				<path fill="#66C6B9" d="M19.5,19.5c6.1,6.1-1.2,17.1-7.2,17.1c-0.8,0-1.5,0-2.1,0c1.3,0.7,2.6,1.2,4,1.6
					C21.5,40.3,28.9,34,27,26.6C26.2,23.3,23.9,20.6,19.5,19.5z"/>
			</g>
		</g>
	</g>
</g>
</svg>
