<?xml version="1.0" encoding="utf-8"?>
<!-- Generator: Adobe Illustrator 18.0.0, SVG Export Plug-In . SVG Version: 6.00 Build 0)  -->
<!DOCTYPE svg PUBLIC "-//W3C//DTD SVG 1.1//EN" "http://www.w3.org/Graphics/SVG/1.1/DTD/svg11.dtd">
<svg version="1.1" id="Layer_1" xmlns="http://www.w3.org/2000/svg" xmlns:xlink="http://www.w3.org/1999/xlink" x="0px" y="0px"
	 viewBox="0 0 48 48" enable-background="new 0 0 48 48" xml:space="preserve">
<g>
	<path fill="#CED6E0" d="M37.5,12L36,10.5c-0.4-0.4-0.9-0.4-1.3,0l-1.3,1.3l2.8,2.8l1.3-1.3C37.8,12.9,37.8,12.4,37.5,12z"/>
	<g>
		<g>
			<g>
				<g>
					<path fill="#CED6E0" d="M8.7,26.4l-3.4-6.1C4.5,19,4.3,17.4,4.8,16l0,0l7.2,7.2L8.7,26.4z"/>
				</g>
				<g>
					<path fill="#CED6E0" d="M26.4,8.7l-6.1-3.4C19,4.5,17.4,4.3,16,4.8l0,0l7.2,7.2L26.4,8.7z"/>
				</g>
			</g>
			<g>
				<g>
					
						<rect x="4.2" y="1" transform="matrix(-0.7071 -0.7071 0.7071 -0.7071 8.8742 21.4239)" fill="#415A6B" width="9.3" height="15.8"/>
				</g>
			</g>
		</g>
		<g>
			<g>
				<g>
					<path fill="#CED6E0" d="M39.3,21.6l3.4,6.1c0.7,1.3,0.9,2.9,0.4,4.4l0,0L36,24.9L39.3,21.6z"/>
				</g>
				<g>
					<path fill="#CED6E0" d="M21.6,39.3l6.1,3.4c1.3,0.7,2.9,0.9,4.4,0.4h0L24.9,36L21.6,39.3z"/>
				</g>
			</g>
			<g>
				
					<rect x="34.5" y="31.2" transform="matrix(0.7071 0.7071 -0.7071 0.7071 39.1262 -16.2065)" fill="#415A6B" width="9.3" height="15.8"/>
			</g>
		</g>
	</g>
	<g>
		<circle fill="#E8EAE9" cx="24" cy="24" r="15.9"/>
	</g>
	<g>
		<circle fill="#FFFFFF" cx="24" cy="24" r="12.6"/>
	</g>
	<g>
		
			<rect x="16.5" y="16" transform="matrix(0.7071 -0.7071 0.7071 0.7071 -6.994 16.8851)" fill="#344A5E" width="0.7" height="1.7"/>
	</g>
	<g>
		
			<rect x="13.9" y="20.5" transform="matrix(0.2588 -0.9659 0.9659 0.2588 -10.082 29.6524)" fill="#344A5E" width="0.7" height="1.7"/>
	</g>
	<g>
		
			<rect x="13.9" y="25.8" transform="matrix(-0.2588 -0.9659 0.9659 -0.2588 -7.7205 47.2842)" fill="#344A5E" width="0.7" height="1.7"/>
	</g>
	<g>
		
			<rect x="16.5" y="30.3" transform="matrix(-0.7071 -0.7071 0.7071 -0.7071 6.8235 65.0559)" fill="#344A5E" width="0.7" height="1.7"/>
	</g>
	<g>
		
			<rect x="21" y="32.9" transform="matrix(-0.9659 -0.2588 0.2588 -0.9659 33.3356 71.8265)" fill="#344A5E" width="0.7" height="1.7"/>
	</g>
	<g>
		
			<rect x="26.2" y="32.9" transform="matrix(-0.9659 0.2588 -0.2588 -0.9659 61.0291 59.4032)" fill="#344A5E" width="0.7" height="1.7"/>
	</g>
	<g>
		
			<rect x="30.8" y="30.3" transform="matrix(-0.7071 0.7071 -0.7071 -0.7071 75.1179 31.1147)" fill="#344A5E" width="0.7" height="1.7"/>
	</g>
	<g>
		
			<rect x="33.4" y="25.8" transform="matrix(-0.2588 0.9659 -0.9659 -0.2588 68.1439 0.9197)" fill="#344A5E" width="0.7" height="1.7"/>
	</g>
	<g>
		
			<rect x="33.4" y="20.5" transform="matrix(0.2588 0.9659 -0.9659 0.2588 45.6585 -16.7121)" fill="#344A5E" width="0.7" height="1.7"/>
	</g>
	<g>
		
			<rect x="30.8" y="16" transform="matrix(0.7071 0.7071 -0.7071 0.7071 21.0527 -17.056)" fill="#344A5E" width="0.7" height="1.7"/>
	</g>
	<g>
		
			<rect x="26.2" y="13.4" transform="matrix(0.9659 0.2588 -0.2588 0.9659 4.6026 -6.399)" fill="#344A5E" width="0.7" height="1.7"/>
	</g>
	<g>
		
			<rect x="21" y="13.4" transform="matrix(0.9659 -0.2588 0.2588 0.9659 -2.9671 6.0243)" fill="#344A5E" width="0.7" height="1.7"/>
	</g>
	<g>
		<g>
			<g>
				<path fill="#FFD15C" d="M26.4,26.4c-0.2,0.2-0.6,0.2-0.8,0l-6.8-6.8c-0.2-0.2-0.2-0.6,0-0.8c0.2-0.2,0.6-0.2,0.8,0l6.8,6.8
					C26.6,25.8,26.6,26.1,26.4,26.4z"/>
			</g>
		</g>
		<path fill="#F3705A" d="M26.3,22.9l-7.2,1.5c-0.3,0.1-0.5,0.4-0.5,0.7s0.4,0.5,0.7,0.5l7.2-1.5c0.3-0.1,0.5-0.4,0.5-0.7l0,0
			C26.9,23.1,26.6,22.8,26.3,22.9z"/>
	</g>
	<g>
		<circle fill="#415A6B" cx="24" cy="24" r="1.3"/>
	</g>
	<g>
		<circle fill="#344A5E" cx="24" cy="24" r="0.6"/>
	</g>
</g>
</svg>
