<?xml version="1.0" encoding="utf-8"?>
<!-- Generator: Adobe Illustrator 18.0.0, SVG Export Plug-In . SVG Version: 6.00 Build 0)  -->
<!DOCTYPE svg PUBLIC "-//W3C//DTD SVG 1.1//EN" "http://www.w3.org/Graphics/SVG/1.1/DTD/svg11.dtd">
<svg version="1.1" id="Layer_1" xmlns="http://www.w3.org/2000/svg" xmlns:xlink="http://www.w3.org/1999/xlink" x="0px" y="0px"
	 viewBox="0 0 48 48" enable-background="new 0 0 48 48" xml:space="preserve">
<g>
	<rect y="43.1" fill="#ACB3BA" width="48" height="4.9"/>
	<rect x="2.8" y="9.7" fill="#F2F2F2" width="42.5" height="38.3"/>
	<rect x="2.8" y="9.7" fill="#F2F2F2" width="42.5" height="38.3"/>
	<rect x="11.5" y="21.1" fill="#FFFFFF" width="25.1" height="18.2"/>
	<rect x="13.5" y="23.1" fill="#54C0EB" width="21.1" height="14.2"/>
	<path fill="#E4EAEF" d="M45.2,10.5v6.4c-0.6,0.3-1.4,0.5-2.1,0.5c-2.7,0-4.8-2.1-4.8-4.8c0,2.7-2.2,4.8-4.8,4.8
		c-2.6,0-4.8-2.1-4.8-4.8c0,1.3-0.5,2.5-1.4,3.4c-0.9,0.9-2.1,1.4-3.4,1.4c-2.6,0-4.8-2.1-4.8-4.8c0,2.7-2.1,4.8-4.8,4.8
		c-2.6,0-4.8-2.1-4.8-4.8c0,2.7-2.1,4.8-4.8,4.8c-0.7,0-1.4-0.2-2-0.4v-6.5H45.2z"/>
	<g>
		<path fill="#FFD15C" d="M4.8,16.2L4.8,16.2C2.1,16.2,0,14,0,11.4V0h9.6v11.4C9.6,14,7.4,16.2,4.8,16.2z"/>
		<path fill="#FF7058" d="M14.4,16.2L14.4,16.2c-2.6,0-4.8-2.1-4.8-4.8V0h9.6v11.4C19.2,14,17,16.2,14.4,16.2z"/>
		<path fill="#FFD15C" d="M23.9,16.2L23.9,16.2c-2.6,0-4.8-2.1-4.8-4.8V0h9.6v11.4C28.7,14,26.6,16.2,23.9,16.2z"/>
		<path fill="#FF7058" d="M33.5,16.2L33.5,16.2c-2.6,0-4.8-2.1-4.8-4.8V0h9.6v11.4C38.3,14,36.2,16.2,33.5,16.2z"/>
		<path fill="#FFD15C" d="M43.1,16.2L43.1,16.2c-2.6,0-4.8-2.1-4.8-4.8V0h9.6v11.4C47.9,14,45.8,16.2,43.1,16.2z"/>
	</g>
	<g>
		<polygon fill="#84DBFF" points="27.6,23.1 15.7,37.3 13.9,37.3 25.7,23.1 		"/>
		<polygon fill="#84DBFF" points="31.9,23.1 20.1,37.3 17,37.3 28.9,23.1 		"/>
	</g>
</g>
</svg>
