<?xml version="1.0" encoding="utf-8"?>
<!-- Generator: Adobe Illustrator 16.0.0, SVG Export Plug-In . SVG Version: 6.00 Build 0)  -->
<!DOCTYPE svg PUBLIC "-//W3C//DTD SVG 1.1//EN" "http://www.w3.org/Graphics/SVG/1.1/DTD/svg11.dtd">
<svg version="1.1" id="Layer_1" xmlns="http://www.w3.org/2000/svg" xmlns:xlink="http://www.w3.org/1999/xlink" x="0px" y="0px"
	 width="48px" height="48px" viewBox="0 0 48 48" enable-background="new 0 0 48 48" xml:space="preserve">
<g>
	<path fill="#F2F2F2" d="M47.998,24c0,13.254-10.746,24-24,24S0,37.254,0,24S10.744,0.002,23.998,0.002S47.998,10.746,47.998,24"/>
	<path fill="#FF7058" d="M20.357,47.719c-9.374-1.42-16.969-8.275-19.474-17.256C6.059,16.438,27.779,9.49,27.779,9.49
		C29.381,20.307,24.729,36.033,20.357,47.719"/>
	<path fill="#FFD15C" d="M48,24.004c0,3.352-0.689,6.545-1.932,9.439C44.791,26.76,40.865,15.949,28.855,9.49l0.008-0.008
		c0.273-0.115,6.963-2.943,14.285,0.043C46.191,13.545,48,18.563,48,24.004"/>
	<path fill="#54C0EB" d="M28.863,9.482L28.856,9.49c-6.31-5.125-14.162-5.377-18.985-4.889C13.832,1.709,18.713,0,23.996,0
		c1.516,0,3.002,0.143,4.437,0.41C29.969,4.35,28.914,9.23,28.863,9.482"/>
	<path fill="#4CDBC4" d="M32.992,12.648c-1.375,1.803-4.344,1.848-6.627,0.104c-2.285-1.746-3.021-4.621-1.646-6.422
		c1.376-1.803,4.344-1.848,6.628-0.104C33.633,7.973,34.369,10.848,32.992,12.648"/>
</g>
</svg>
