<?xml version="1.0" encoding="utf-8"?>
<!-- Generator: Adobe Illustrator 18.0.0, SVG Export Plug-In . SVG Version: 6.00 Build 0)  -->
<!DOCTYPE svg PUBLIC "-//W3C//DTD SVG 1.1//EN" "http://www.w3.org/Graphics/SVG/1.1/DTD/svg11.dtd">
<svg version="1.1" id="Layer_1" xmlns="http://www.w3.org/2000/svg" xmlns:xlink="http://www.w3.org/1999/xlink" x="0px" y="0px"
	 viewBox="0 0 48 48" enable-background="new 0 0 48 48" xml:space="preserve">
<g>
	<g>
		<path fill="#40596B" d="M33.6,19.4c-5.8,7.6-12.2,8.6-19.3,0l0,0c1.4-2.8,2.2-6,2.2-9.2V7.5C16.5,3.4,19.9,0,24,0h0
			c4.1,0,7.5,3.4,7.5,7.5v2.8c0,3.1,0.7,6.2,2.1,9L33.6,19.4z"/>
	</g>
	<path fill="#3DC9AE" d="M34.6,19.7c-6.9-3-13.9-3.1-21.2,0c-1.2,0.5-2,1.7-2,3.1v10.7h25.2V22.8C36.6,21.4,35.8,20.2,34.6,19.7z"/>
	<g>
		<path fill="#F8B64C" d="M27.9,17.9v-4.4h-7.7v4.4c0,2.1,3.9,3.9,3.9,3.9l0,0C24,21.7,27.9,20,27.9,17.9z"/>
	</g>
	<g>
		<path fill="#FFD15C" d="M28.9,6.9c-1.8,0-3.4-0.4-4.7-1.2c-1.4,1.7-3.4,2.9-6.1,3.1c0,0.4-0.1,0.8-0.1,1.3c0,4.4,2.7,7.9,6,7.9
			c3.3,0,6-3.6,6-7.9c0-1.1-0.2-2.2-0.5-3.2C29.3,6.9,29.1,6.9,28.9,6.9z"/>
	</g>
	<g>
		<g>
			<path fill="#FFFFFF" d="M27.9,17.7c0,0-1.4,2.9-3.9,4l2.8,2.3l1.7-4.9L27.9,17.7z"/>
		</g>
		<g>
			<path fill="#FFFFFF" d="M20.1,17.7c0,0,1.4,2.9,3.9,4L21.2,24l-1.7-4.9L20.1,17.7z"/>
		</g>
	</g>
	<path fill="#CDD6E0" d="M46.2,29.9H1.8c-1,0-1.8,0.8-1.8,1.8s0.8,1.8,1.8,1.8h44.4c1,0,1.8-0.8,1.8-1.8S47.2,29.9,46.2,29.9z"/>
	<rect x="3.4" y="33.5" fill="#F2F2F2" width="41.3" height="14.5"/>
</g>
</svg>
