<?xml version="1.0" encoding="utf-8"?>
<!-- Generator: Adobe Illustrator 18.0.0, SVG Export Plug-In . SVG Version: 6.00 Build 0)  -->
<!DOCTYPE svg PUBLIC "-//W3C//DTD SVG 1.1//EN" "http://www.w3.org/Graphics/SVG/1.1/DTD/svg11.dtd">
<svg version="1.1" id="Layer_1" xmlns="http://www.w3.org/2000/svg" xmlns:xlink="http://www.w3.org/1999/xlink" x="0px" y="0px"
	 viewBox="0 0 48 48" enable-background="new 0 0 48 48" xml:space="preserve">
<g>
	<g>
		<g>
			<path fill="#F3F3F3" d="M39.6,0H17.3L5.4,11.8V45c0,1.7,1.3,3,3,3h31.1c1.7,0,3-1.3,3-3V3C42.6,1.3,41.2,0,39.6,0z"/>
		</g>
		<g>
			<polygon fill="#ADB3BA" points="17.3,0 5.4,11.8 17.3,11.8 			"/>
		</g>
		<g>
			<g>
				<path fill="#F3705A" d="M26.2,23h2.3l-6.7,14.7h-2.3L26.2,23z"/>
			</g>
			<g>
				<path fill="#F3705A" d="M10.1,30.7v-2.2l7.8-3.7v2.4l-5.1,2.4l5.1,2.4v2.4L10.1,30.7z"/>
				<path fill="#F3705A" d="M37.9,28.5v2.2l-7.8,3.7V32l5.1-2.4l-5.1-2.4v-2.4L37.9,28.5z"/>
			</g>
		</g>
	</g>
</g>
</svg>
