<?xml version="1.0" encoding="utf-8"?>
<!-- Generator: Adobe Illustrator 16.0.0, SVG Export Plug-In . SVG Version: 6.00 Build 0)  -->
<!DOCTYPE svg PUBLIC "-//W3C//DTD SVG 1.1//EN" "http://www.w3.org/Graphics/SVG/1.1/DTD/svg11.dtd">
<svg version="1.1" id="Layer_1" xmlns="http://www.w3.org/2000/svg" xmlns:xlink="http://www.w3.org/1999/xlink" x="0px" y="0px"
	 width="48px" height="48px" viewBox="0 0 48 48" enable-background="new 0 0 48 48" xml:space="preserve">
<g>
	<path fill="#F2F2F2" d="M33.284,0.022H3.928c-2.209,0-4,1.791-4,4v40c0,2.209,1.791,4,4,4h22.9l10.455-10.455V4.022
		C37.284,1.813,35.493,0.022,33.284,0.022"/>
	<rect x="3.928" y="4.821" fill="#CDD6E0" width="29.355" height="2.509"/>
	<rect x="3.928" y="12.196" fill="#CDD6E0" width="29.355" height="2.509"/>
	<rect x="3.928" y="19.57" fill="#CDD6E0" width="29.355" height="2.509"/>
	<rect x="3.928" y="26.946" fill="#CDD6E0" width="29.355" height="2.508"/>
	<rect x="3.928" y="34.321" fill="#CDD6E0" width="18.145" height="2.508"/>
	<path fill="#CDD6E0" d="M37.284,37.567L26.829,48.022v-6.455c0-2.209,1.791-4,4-4H37.284z"/>
	<path fill="#FFD15C" d="M24.729,24.862c-0.39,0.432-0.776,0.898-1.148,1.467l-0.01,0.016l0.211,8.008l7.42-3.018l0.01-0.014
		c0.372-0.57,0.645-1.111,0.883-1.641L24.729,24.862z"/>
	<path fill="#F1543F" d="M42.258,10.339L30.324,28.587c-0.498,0.762-0.103,1.971,0.884,2.732l12.921-19.756L42.258,10.339z"/>
	<path fill="#F1543F" d="M36.502,6.573L23.581,26.329c1.092,0.6,2.36,0.479,2.858-0.283L38.373,7.798L36.502,6.573z"/>
	<path fill="#FF7058" d="M38.373,7.798L26.439,26.044c-0.511,0.781-0.128,2.094,0.946,2.795c1.072,0.701,2.429,0.527,2.938-0.252
		L42.258,10.34L38.373,7.798z"/>
	<path fill="#F1543F" d="M42.258,10.339L30.324,28.587c-0.498,0.762-0.103,1.971,0.884,2.732l12.921-19.756L42.258,10.339z"/>
	<path fill="#F1543F" d="M36.502,6.573L23.581,26.329c1.092,0.6,2.36,0.479,2.858-0.283L38.373,7.798L36.502,6.573z"/>
	<path fill="#FF7058" d="M38.373,7.798L26.439,26.044c-0.511,0.781-0.128,2.094,0.946,2.795c1.072,0.701,2.429,0.527,2.938-0.252
		L42.258,10.34L38.373,7.798z"/>
	
		<rect x="39.339" y="2.849" transform="matrix(-0.5474 0.8369 -0.8369 -0.5474 70.2651 -23.1866)" fill="#E8EAEA" width="4.128" height="9.119"/>
	<path fill="#84DBFF" d="M46.794,2.342l-2.911-1.903c-1.303-0.854-3.051-0.488-3.902,0.815L38.18,4.008l7.631,4.991l1.801-2.754
		C48.463,4.942,48.098,3.194,46.794,2.342"/>
	<path fill="#40596B" d="M23.704,31.394l0.078,2.959l2.742-1.115C26.061,32.097,24.934,31.36,23.704,31.394"/>
</g>
</svg>
