<?xml version="1.0" encoding="utf-8"?>
<!-- Generator: Adobe Illustrator 18.0.0, SVG Export Plug-In . SVG Version: 6.00 Build 0)  -->
<!DOCTYPE svg PUBLIC "-//W3C//DTD SVG 1.1//EN" "http://www.w3.org/Graphics/SVG/1.1/DTD/svg11.dtd">
<svg version="1.1" id="Layer_1" xmlns="http://www.w3.org/2000/svg" xmlns:xlink="http://www.w3.org/1999/xlink" x="0px" y="0px"
	 viewBox="0 0 512 512" enable-background="new 0 0 512 512" xml:space="preserve">
<g>
	<path fill="#FFD15C" d="M488.8,2H23.2C11.5,2,2,11.5,2,23.2v465.7c0,11.7,9.5,21.2,21.2,21.2h465.7c11.7,0,21.2-9.5,21.2-21.2V23.2
		C510,11.5,500.5,2,488.8,2z"/>
	<rect x="178.3" y="2" fill="#F2F2F2" width="155.4" height="142.4"/>
	<polygon fill="#FF7058" points="66.3,389 32.6,422.7 51.8,422.7 51.8,476.1 80.8,476.1 80.8,422.7 100,422.7 	"/>
	<polygon fill="#FF7058" points="150.5,389 116.9,422.7 136,422.7 136,476.1 165,476.1 165,422.7 184.2,422.7 	"/>
</g>
</svg>
