<?xml version="1.0" encoding="utf-8"?>
<!-- Generator: Adobe Illustrator 18.0.0, SVG Export Plug-In . SVG Version: 6.00 Build 0)  -->
<!DOCTYPE svg PUBLIC "-//W3C//DTD SVG 1.1//EN" "http://www.w3.org/Graphics/SVG/1.1/DTD/svg11.dtd">
<svg version="1.1" id="Layer_1" xmlns="http://www.w3.org/2000/svg" xmlns:xlink="http://www.w3.org/1999/xlink" x="0px" y="0px"
	 viewBox="0 0 48 48" enable-background="new 0 0 48 48" xml:space="preserve">
<g>
	<g>
		<g>
			<g>
				<rect x="12.2" y="38.8" fill="#344A5E" width="23.6" height="3.9"/>
				<g>
					<path fill="#415A6B" d="M9.9,34.8l-2.8,9c-0.5,1.7,0.4,3.6,2.1,4.1l0,0c1.7,0.5,3.6-0.4,4.1-2.1l3.4-10.9H9.9z"/>
					<path fill="#415A6B" d="M38.1,34.8h-6.9l3.4,10.9c0.5,1.7,2.4,2.7,4.1,2.1l0,0c1.7-0.5,2.7-2.4,2.1-4.1L38.1,34.8z"/>
				</g>
			</g>
			<rect x="3.3" y="5.1" fill="#F3F3F3" width="41.4" height="25.1"/>
			<g>
				<g>
					<rect x="10" y="17.7" fill="#FFD15C" width="10.7" height="7.8"/>
					<polygon fill="#F3705A" points="23.3,17.7 15.3,9.7 7.3,17.7 					"/>
				</g>
			</g>
		</g>
		<g>
			<path fill="#8AD7F8" d="M45.5,30.2h-43c-1.4,0-2.6,1.1-2.6,2.6c0,1.4,1.1,2.6,2.6,2.6h43c1.4,0,2.6-1.1,2.6-2.6
				C48.1,31.3,46.9,30.2,45.5,30.2z"/>
			<path fill="#8AD7F8" d="M2.5,5.1h43c1.4,0,2.6-1.1,2.6-2.6c0-1.4-1.1-2.6-2.6-2.6h-43c-1.4,0-2.6,1.1-2.6,2.6
				C-0.1,3.9,1.1,5.1,2.5,5.1z"/>
		</g>
	</g>
	<g>
		<rect x="37" y="19.3" fill="#F3705A" width="2.8" height="7"/>
		<rect x="27.2" y="16.8" fill="#4EC0AA" width="2.8" height="9.5"/>
		<rect x="32.1" y="12" fill="#415A6B" width="2.8" height="14.4"/>
	</g>
</g>
</svg>
