<?xml version="1.0" encoding="utf-8"?>
<!-- Generator: Adobe Illustrator 20.1.0, SVG Export Plug-In . SVG Version: 6.00 Build 0)  -->
<!DOCTYPE svg PUBLIC "-//W3C//DTD SVG 1.1//EN" "http://www.w3.org/Graphics/SVG/1.1/DTD/svg11.dtd">
<svg version="1.1" id="Layer_1" xmlns="http://www.w3.org/2000/svg" xmlns:xlink="http://www.w3.org/1999/xlink" x="0px" y="0px"
	 viewBox="0 0 49 49" enable-background="new 0 0 49 49" xml:space="preserve">
<g>
	<circle fill="#F8B64C" cx="24.5" cy="9.1" r="8.6"/>
	<circle fill="#FFD15C" cx="24.5" cy="9.1" r="6.4"/>
	<path fill="#F8B64C" d="M25.1,8.1C24,7.6,24,7.4,24,7.2c0-0.3,0.3-0.5,0.8-0.5c0.7,0,1.1,0.2,1.2,0.3l0.5,0.3l0.6-1.7l-0.4-0.2
		c-0.4-0.2-0.8-0.4-1.3-0.4V3.7h-1.7V5C22.6,5.4,22,6.2,22,7.3c0,1.4,1.1,2.1,2.3,2.5c0.9,0.4,1,0.7,1,0.9c0,0.5-0.5,0.7-0.9,0.7
		c-0.5,0-1-0.2-1.4-0.4l-0.5-0.3l-0.6,1.7l0.3,0.2c0.4,0.3,1,0.5,1.6,0.6v1.2h1.7v-1.3c1.1-0.3,1.9-1.3,1.9-2.4
		C27.2,9.1,26.1,8.5,25.1,8.1z"/>
	<path fill="#CDD6E0" d="M46.5,18.9h-44c-1.1,0-2,0.9-2,2v5.7c0,1.1,0.9,2,2,2h44c1.1,0,2-0.9,2-2v-5.7
		C48.5,19.8,47.6,18.9,46.5,18.9z"/>
	
		<ellipse transform="matrix(0.7071 -0.7071 0.7071 0.7071 -6.3809 28.8226)" fill="#334A5E" cx="31.6" cy="22.1" rx="1.8" ry="1.8"/>
	<g>
		<path fill="#40596B" d="M45.3,8.4c-1.4-1.4-3.7-1.4-5.1,0L29,19.7c-1.4,1.4-1.4,3.7,0,5.1c1.4,1.4,3.7,1.4,5.1,0l11.2-11.2
			C46.7,12.1,46.7,9.8,45.3,8.4z"/>
		<path fill="#40596B" d="M8.8,8.4C7.4,7,5.1,7,3.7,8.4s-1.4,3.7,0,5.1l11.2,11.2c1.4,1.4,3.7,1.4,5.1,0c1.4-1.4,1.4-3.7,0-5.1
			L8.8,8.4z"/>
	</g>
	
		<ellipse transform="matrix(0.7071 -0.7071 0.7071 0.7071 -10.5419 18.7788)" fill="#334A5E" cx="17.4" cy="22.1" rx="1.8" ry="1.8"/>
	<path fill="#F2F2F2" d="M2.9,28.7l0.3,1.5l3.7,18.3h35.1l3.7-18.3l0.3-1.5H2.9z M16.1,43.3c0,1.4-1.1,2.5-2.5,2.5
		c-1.4,0-2.5-1.1-2.5-2.5v-9.4c0-1.4,1.1-2.5,2.5-2.5c1.4,0,2.5,1.1,2.5,2.5V43.3z M27,43.3c0,1.4-1.1,2.5-2.5,2.5
		c-1.4,0-2.5-1.1-2.5-2.5v-9.4c0-1.4,1.1-2.5,2.5-2.5c1.4,0,2.5,1.1,2.5,2.5V43.3z M37.9,43.3c0,1.4-1.1,2.5-2.5,2.5
		s-2.5-1.1-2.5-2.5v-9.4c0-1.4,1.1-2.5,2.5-2.5s2.5,1.1,2.5,2.5V43.3z"/>
	<polygon fill="#E4EAEF" points="46.1,28.7 45.8,30.2 3.2,30.2 2.9,28.7 	"/>
</g>
</svg>
