<?xml version="1.0" encoding="utf-8"?>
<!-- Generator: Adobe Illustrator 18.0.0, SVG Export Plug-In . SVG Version: 6.00 Build 0)  -->
<!DOCTYPE svg PUBLIC "-//W3C//DTD SVG 1.1//EN" "http://www.w3.org/Graphics/SVG/1.1/DTD/svg11.dtd">
<svg version="1.1" id="Layer_1" xmlns="http://www.w3.org/2000/svg" xmlns:xlink="http://www.w3.org/1999/xlink" x="0px" y="0px"
	 viewBox="0 0 48 48" enable-background="new 0 0 48 48" xml:space="preserve">
<g>
	<path fill="#ACB3BA" d="M48,8.3v31.4c0,1.1-0.9,2-2,2H32.2c-1.1,0-2-0.9-2-2V8.3c0-1.1,0.9-2,2-2H46C47.1,6.3,48,7.2,48,8.3z"/>
	<rect x="32" y="8.9" fill="#CDD6E0" width="14.2" height="3.3"/>
	<rect x="32" y="14.4" fill="#CDD6E0" width="14.2" height="3.3"/>
	<rect x="32" y="19.9" fill="#CDD6E0" width="14.2" height="3.3"/>
	<circle fill="#40596B" cx="39.1" cy="34.6" r="1.9"/>
	<path fill="#A0ABB5" d="M30.2,14.4v23.2h3c1.9,0,3.5-1.6,3.5-3.5V14.4H30.2z"/>
	<rect x="32" y="14.4" fill="#C3D0DB" width="4.7" height="3.3"/>
	<rect x="32" y="19.9" fill="#C3D0DB" width="4.7" height="3.3"/>
	<g>
		<rect x="10.7" y="33.6" fill="#CDD6E0" width="13.8" height="5.8"/>
		<rect x="7.9" y="39.3" fill="#F2F2F2" width="19.5" height="2.4"/>
		<rect x="10.7" y="33.6" fill="#C3D0DB" width="13.8" height="4"/>
		<path fill="#F2F2F2" d="M33.2,36H2c-1.1,0-2-0.9-2-2v-21c0-1.1,0.9-2,2-2h31.2c1.1,0,2,0.9,2,2v21C35.2,35.1,34.3,36,33.2,36z"/>
		<rect x="2.5" y="13.6" fill="#84DBFF" width="30.2" height="20"/>
	</g>
</g>
</svg>
