<?xml version="1.0" encoding="utf-8"?>
<!-- Generator: Adobe Illustrator 18.0.0, SVG Export Plug-In . SVG Version: 6.00 Build 0)  -->
<!DOCTYPE svg PUBLIC "-//W3C//DTD SVG 1.1//EN" "http://www.w3.org/Graphics/SVG/1.1/DTD/svg11.dtd">
<svg version="1.1" id="Layer_1" xmlns="http://www.w3.org/2000/svg" xmlns:xlink="http://www.w3.org/1999/xlink" x="0px" y="0px"
	 viewBox="0 0 48 48" enable-background="new 0 0 48 48" xml:space="preserve">
<g>
	<g>
		<g>
			<path fill="#415A6B" d="M40.5,37L39,27.7c-0.4-2.3-2.1-4.1-4.3-4.5c-7-1.4-14.3-1.4-21.3,0c-2.2,0.4-4,2.3-4.3,4.5L7.5,37H40.5z"
				/>
		</g>
		<polygon fill="#CED6E0" points="24.7,37 28,21.4 20,21.4 23.3,37 		"/>
		<g>
			<g>
				<polygon fill="#F05540" points="25.1,27.8 26.5,26.5 24,24 21.5,26.5 22.9,27.8 				"/>
			</g>
			<g>
				<polygon fill="#F3705A" points="25.5,37 26.8,34.3 25.1,27.8 22.9,27.8 21.2,34.3 22.5,37 				"/>
			</g>
		</g>
		<g>
			<polygon fill="#F7B64C" points="24,24 24,24 27.7,20.7 27.7,17.2 20.3,17.2 20.3,20.7 			"/>
		</g>
		<g>
			<g>
				<g>
					<path fill="#FFD15C" d="M32.2,13.5c-0.3,1.2-1.2,2.1-2,1.8c-0.8-0.2-1.3-1.4-0.9-2.6c0.3-1.2,1.2-1.9,2-1.7
						C32,11.2,32.4,12.3,32.2,13.5z"/>
				</g>
				<g>
					<path fill="#FFD15C" d="M15.8,13.5c0.3,1.2,1.2,2.1,2,1.8c0.8-0.2,1.3-1.4,0.9-2.6c-0.3-1.2-1.2-1.9-2-1.7
						C16,11.2,15.6,12.3,15.8,13.5z"/>
				</g>
			</g>
			<g>
				<ellipse fill="#FFD15C" cx="24" cy="12.1" rx="7" ry="8.5"/>
			</g>
			<g>
				<path fill="#344A5E" d="M27.3,5.5c-0.9,1.9-5.4,0.1-7.5,3.1C18.9,7.7,18.9,7,18.9,7c-1.8,2.3-1.6,7.2-1.5,7.8
					c-0.9-2.1-1-4.3-0.9-6C16.5,3.4,19.8,0,24.2,0c4.4,0,7.6,3.2,7.5,8.6c0,2-0.1,3.9-1.1,6.1C31.5,7.3,27.3,5.5,27.3,5.5z"/>
			</g>
		</g>
		<g>
			<g>
				<polygon fill="#F3F3F3" points="28.6,22.4 26.7,27.2 24,24 27.7,20.7 				"/>
			</g>
			<g>
				<polygon fill="#F3F3F3" points="19.4,22.4 21.3,27.2 24,24 20.4,20.7 				"/>
			</g>
		</g>
		<g>
			<g>
				<polygon fill="#344A5E" points="25.7,37 31,27.2 29.1,26 31.3,24.7 28,21.4 24.7,37 				"/>
			</g>
			<g>
				<polygon fill="#344A5E" points="17,27.2 22.3,37 23.3,37 20,21.4 16.7,24.7 18.9,26 				"/>
			</g>
		</g>
	</g>
	<path fill="#F3F3F3" d="M38.1,48H9.9c-1.1,0-2.1-0.8-2.3-2L5.1,28.5c-0.2-1.4,0.9-2.6,2.3-2.6h33.3c1.4,0,2.5,1.2,2.3,2.6L40.4,46
		C40.3,47.2,39.3,48,38.1,48z"/>
	<ellipse fill="#CED6E0" cx="24" cy="36.9" rx="4.8" ry="3"/>
</g>
</svg>
