<?xml version="1.0" encoding="utf-8"?>
<!-- Generator: Adobe Illustrator 18.0.0, SVG Export Plug-In . SVG Version: 6.00 Build 0)  -->
<!DOCTYPE svg PUBLIC "-//W3C//DTD SVG 1.1//EN" "http://www.w3.org/Graphics/SVG/1.1/DTD/svg11.dtd">
<svg version="1.1" id="Layer_1" xmlns="http://www.w3.org/2000/svg" xmlns:xlink="http://www.w3.org/1999/xlink" x="0px" y="0px"
	 viewBox="0 0 48 48" enable-background="new 0 0 48 48" xml:space="preserve">
<g>
	<g>
		<g>
			<g>
				<path fill="#415A6B" d="M29.7,7.3l-9.1-2.8l7.1,14.4l-8.1,27.4c0.8,1.6,2.8,2.2,4.4,1.4l18.1-9.6c1.6-0.8,2.2-2.8,1.4-4.4
					L29.7,7.3z"/>
			</g>
			<g>
				<path fill="#FFD15C" d="M17.6,0L4.1,13.5v29.8c0,1.8,1.5,3.3,3.3,3.3l20.5,0c1.8,0,3.3-1.5,3.3-3.3V13.5L17.6,0z M17.7,16.6
					c-1.7,0-3.1-1.4-3.1-3.1s1.4-3.1,3.1-3.1c1.7,0,3.1,1.4,3.1,3.1S19.4,16.6,17.7,16.6z"/>
				<g>
					<g>
						<g>
							<g>
								<path fill="#FFFFFF" d="M24.8,29.2L24,31.7l-2.4-0.6l1.7,2.8l-4,0v-1.4l-3.1,3.3l3.1,3.2v-1.4l4.2,0c0.5,0,0.9-0.3,1.2-0.7
									l1.9-3.2c0.3-0.4,0.3-1,0-1.4L24.8,29.2z"/>
								<path fill="#FFFFFF" d="M13.9,35.8l1.8-1.9l-3.6,0l2.4-4l1.2,0.7l-1.2-4.3l-4.4,1.1l1.3,0.7l-2.5,4.2c-0.3,0.4-0.3,1,0,1.4
									l1.9,3.2c0.2,0.4,0.7,0.7,1.2,0.7l3.7,0L13.9,35.8z"/>
								<path fill="#FFFFFF" d="M22.9,26.1l-2.1-3.5c-0.2-0.4-0.7-0.7-1.2-0.7l-3.8,0c-0.5,0-0.9,0.3-1.2,0.7l-1.4,2.3l2.4-0.6
									l0.7,2.5l1.4-2.2l2,3.3l-1.3,0.7l4.4,1l1.2-4.3L22.9,26.1z"/>
							</g>
						</g>
					</g>
				</g>
			</g>
		</g>
		<g>
			<g>
				<path fill="#F3705A" d="M36.3,19.2l-18.1-3.9c-0.9-0.2-1.5-1.1-1.3-2l0,0c0.2-0.9,1.1-1.5,2-1.3L37,16c0.9,0.2,1.5,1.1,1.3,2v0
					C38.1,18.9,37.2,19.4,36.3,19.2z"/>
			</g>
		</g>
	</g>
</g>
</svg>
