<?xml version="1.0" encoding="utf-8"?>
<!-- Generator: Adobe Illustrator 20.1.0, SVG Export Plug-In . SVG Version: 6.00 Build 0)  -->
<!DOCTYPE svg PUBLIC "-//W3C//DTD SVG 1.1//EN" "http://www.w3.org/Graphics/SVG/1.1/DTD/svg11.dtd">
<svg version="1.1" id="Layer_1" xmlns="http://www.w3.org/2000/svg" xmlns:xlink="http://www.w3.org/1999/xlink" x="0px" y="0px"
	 viewBox="0 0 49 49" enable-background="new 0 0 49 49" xml:space="preserve">
<g>
	<path fill="#FFD15C" d="M29.3,40.9v2.9c0,2.6-2.1,4.8-4.8,4.8l0,0c-2.6,0-4.8-2.1-4.8-4.8v-2.9H29.3z"/>
	<path fill="#FF7058" d="M39,15v23.9c0,1.1-0.9,2-2,2H12c-1.1,0-2-0.9-2-2V15c0-3.2,1-6.1,2.7-8.5c2.1-2.9,5.3-5,9-5.8
		c0.9-0.2,1.8-0.3,2.8-0.3c0.2,0,0.4,0,0.7,0c0.1,1.2-0.2,2.7,0.7,3.3c0.4,0.3,0.9,0.3,1.4,0.4c1.3,0.2,2.6,0.9,3.2,2
		c0.4,0.8,0.6,1.7,1,2.4c0.5,0.8,1.4,1.3,2.2,1.8c1.6,0.9,3.3,1.4,4.8,1.3C38.9,12.9,39,13.9,39,15z"/>
	<rect x="19.7" y="40.9" fill="#F8B64C" width="9.5" height="2"/>
	<path fill="#F1543F" d="M21.7,0.8v9.8c0,0.6-0.3,1.2-0.7,1.6c-0.4,0.4-1,0.6-1.6,0.6c-1.2,0-2.2-1-2.2-2.2v3.3c0,1.2-1,2.2-2.2,2.2
		s-2.2-1-2.2-2.2V6.5C14.9,3.6,18,1.5,21.7,0.8z"/>
</g>
</svg>
