<?xml version="1.0" encoding="utf-8"?>
<!-- Generator: Adobe Illustrator 18.0.0, SVG Export Plug-In . SVG Version: 6.00 Build 0)  -->
<!DOCTYPE svg PUBLIC "-//W3C//DTD SVG 1.1//EN" "http://www.w3.org/Graphics/SVG/1.1/DTD/svg11.dtd">
<svg version="1.1" id="Layer_1" xmlns="http://www.w3.org/2000/svg" xmlns:xlink="http://www.w3.org/1999/xlink" x="0px" y="0px"
	 viewBox="0 0 48 48" enable-background="new 0 0 48 48" xml:space="preserve">
<g>
	<g>
		<g>
			<path fill="#344A5E" d="M18.1,43.7c0.7,2.5,3,4.3,5.7,4.3c2.7,0,5-1.8,5.7-4.3H18.1z"/>
		</g>
		<g>
			<path fill="#E8EAE9" d="M16.2,37.9h15.2v-1.8c0.7-3,2.1-5.8,4.3-8c3.2-3.3,5-8.1,4.4-13.2C39.3,7.4,33.2,1.3,25.7,0.4
				C15.8-0.7,7.4,7.1,7.4,16.7c0,4.3,1.7,8.3,4.4,11.2c2.2,2.3,3.7,5.1,4.4,8.2V37.9z"/>
		</g>
		<g>
			<path fill="#F3705A" d="M23.8,29.1c-6.8,0-12.4-5.6-12.4-12.4c0-6.8,5.6-12.4,12.4-12.4c6.8,0,12.4,5.6,12.4,12.4
				C36.2,23.6,30.7,29.1,23.8,29.1z"/>
			<path fill="#FFFFFF" d="M23.8,25.8c-5,0-9.1-4.1-9.1-9.1c0-5,4.1-9.1,9.1-9.1c5,0,9.1,4.1,9.1,9.1C32.9,21.7,28.9,25.8,23.8,25.8
				z"/>
			<g>
				<path fill="#F3705A" d="M23.8,22.5c-3.2,0-5.8-2.6-5.8-5.8c0-3.2,2.6-5.8,5.8-5.8c3.2,0,5.8,2.6,5.8,5.8
					C29.6,19.9,27,22.5,23.8,22.5z"/>
			</g>
			<circle fill="#FFFFFF" cx="23.8" cy="16.7" r="2.5"/>
		</g>
		<g>
			<g>
				<rect x="16.2" y="37.6" fill="#344A5E" width="15.2" height="6.6"/>
			</g>
			<g>
				<g>
					<path fill="#415A6B" d="M31.6,39.1H16c-0.8,0-1.5-0.7-1.5-1.5v0c0-0.8,0.7-1.5,1.5-1.5h15.6c0.8,0,1.5,0.7,1.5,1.5v0
						C33.1,38.4,32.5,39.1,31.6,39.1z"/>
				</g>
				<g>
					<path fill="#415A6B" d="M31.6,44.2H16c-0.8,0-1.5-0.7-1.5-1.5v0c0-0.8,0.7-1.5,1.5-1.5h15.6c0.8,0,1.5,0.7,1.5,1.5v0
						C33.1,43.6,32.5,44.2,31.6,44.2z"/>
				</g>
			</g>
		</g>
		<path fill="#415A6B" d="M39,1.6c-0.3-0.3-0.8-0.3-1.1,0L23.6,15.9c-0.3,0.3-0.3,0.8,0,1.1c0.3,0.3,0.8,0.3,1.1,0L39,2.6
			C39.3,2.3,39.3,1.9,39,1.6z"/>
		<g>
			<polygon fill="#415A6B" points="32.9,3.6 33.5,7.1 37,7.6 40.6,4 37.1,3.5 36.5,0 			"/>
		</g>
	</g>
</g>
</svg>
