<?xml version="1.0" encoding="utf-8"?>
<!-- Generator: Adobe Illustrator 18.0.0, SVG Export Plug-In . SVG Version: 6.00 Build 0)  -->
<!DOCTYPE svg PUBLIC "-//W3C//DTD SVG 1.1//EN" "http://www.w3.org/Graphics/SVG/1.1/DTD/svg11.dtd">
<svg version="1.1" id="Layer_1" xmlns="http://www.w3.org/2000/svg" xmlns:xlink="http://www.w3.org/1999/xlink" x="0px" y="0px"
	 viewBox="0 0 48 48" enable-background="new 0 0 48 48" xml:space="preserve">
<g>
	<path fill="#FF7058" d="M32,40H0V24C0,15.2,7.2,8,16,8h16c8.8,0,16,7.2,16,16v0C48,32.8,40.8,40,32,40z"/>
	<g>
		<path fill="#FFFFFF" d="M2.9,28.4c0-0.7,0.6-1.4,1.4-1.4s1.4,0.6,1.4,1.4c0,0.7-0.6,1.4-1.4,1.4S2.9,29.1,2.9,28.4z"/>
		<path fill="#FFFFFF" d="M7.2,28.4c0-0.7,0.6-1.4,1.4-1.4s1.4,0.6,1.4,1.4c0,0.7-0.6,1.4-1.4,1.4S7.2,29.1,7.2,28.4z"/>
		<path fill="#FFFFFF" d="M11.5,29.6V28l3.7-4.7h-3.7v-1.9h6.7v1.5l-3.8,4.8h3.8v1.9H11.5z"/>
		<path fill="#FFFFFF" d="M19.7,29.6v-2l5.4-7.3h-5.4v-2.1h8.5v1.9l-5.4,7.3h5.5v2.1H19.7z"/>
		<path fill="#FFFFFF" d="M29.8,29.6V28l3.7-4.7h-3.7v-1.9h6.7v1.5l-3.8,4.8h3.8v1.9H29.8z"/>
		<path fill="#FFFFFF" d="M38,28.4c0-0.7,0.6-1.4,1.4-1.4c0.7,0,1.4,0.6,1.4,1.4c0,0.7-0.6,1.4-1.4,1.4C38.6,29.8,38,29.1,38,28.4z"
			/>
		<path fill="#FFFFFF" d="M42.4,28.4c0-0.7,0.6-1.4,1.4-1.4s1.4,0.6,1.4,1.4c0,0.7-0.6,1.4-1.4,1.4S42.4,29.1,42.4,28.4z"/>
	</g>
	<path opacity="0.1" fill="#231F20" d="M14,11h16c8.8,0,16,7.2,16,16c0,2.6-0.6,5.1-1.8,7.3C46.6,31.5,48,27.9,48,24
		c0-8.8-7.2-16-16-16H16C9.8,8,4.4,11.5,1.8,16.7C4.7,13.2,9.1,11,14,11z"/>
</g>
</svg>
