<?xml version="1.0" encoding="utf-8"?>
<!-- Generator: Adobe Illustrator 18.0.0, SVG Export Plug-In . SVG Version: 6.00 Build 0)  -->
<!DOCTYPE svg PUBLIC "-//W3C//DTD SVG 1.1//EN" "http://www.w3.org/Graphics/SVG/1.1/DTD/svg11.dtd">
<svg version="1.1" id="Layer_1" xmlns="http://www.w3.org/2000/svg" xmlns:xlink="http://www.w3.org/1999/xlink" x="0px" y="0px"
	 viewBox="0 0 48 48" enable-background="new 0 0 48 48" xml:space="preserve">
<g>
	<rect x="21.9" y="44.3" fill="#40596B" width="4.1" height="3.7"/>
	<path fill="#334A5E" d="M26.1,45.4h-4.2c-0.6,0-1-0.4-1-1v-2.7h6.2v2.7C27.1,44.9,26.7,45.4,26.1,45.4z"/>
	<path fill="#FF7058" d="M40.6,16.4H7.4v3.8l0,0c2.9,1.7,4.7,4.8,4.7,8.1v3.6c0,6.6,5.3,11.9,11.9,11.9h0c6.6,0,11.9-5.3,11.9-11.9
		v-3.6c0-3.4,1.8-6.5,4.7-8.1l0,0V16.4z"/>
	<g>
		<path fill="#F2F2F2" d="M19.5,14.4h-6.2V3.1c0-1.7,1.4-3.1,3.1-3.1h0c1.7,0,3.1,1.4,3.1,3.1V14.4z"/>
		<path fill="#F2F2F2" d="M34.7,14.4h-6.2V3.1c0-1.7,1.4-3.1,3.1-3.1h0c1.7,0,3.1,1.4,3.1,3.1V14.4z"/>
	</g>
	<circle fill="#FFFFFF" cx="24" cy="33.8" r="2.5"/>
	<circle fill="#ACB3BA" cx="24" cy="33.8" r="1.5"/>
	<path fill="#F1543F" d="M7.4,20.2c0.8,0.5,1.5,1,2.1,1.7h28.9c0.6-0.7,1.3-1.2,2.1-1.7h0v-3.8H7.4V20.2z"/>
	<path fill="#FFD15C" d="M40.6,14.4H7.4c-1.6,0-2.8,1.3-2.8,2.8v0.1c0,1.6,1.3,2.8,2.8,2.8h33.3c1.6,0,2.8-1.3,2.8-2.8v-0.1
		C43.4,15.7,42.2,14.4,40.6,14.4z"/>
</g>
</svg>
