<?xml version="1.0" encoding="utf-8"?>
<!-- Generator: Adobe Illustrator 16.0.0, SVG Export Plug-In . SVG Version: 6.00 Build 0)  -->
<!DOCTYPE svg PUBLIC "-//W3C//DTD SVG 1.1//EN" "http://www.w3.org/Graphics/SVG/1.1/DTD/svg11.dtd">
<svg version="1.1" id="Layer_1" xmlns="http://www.w3.org/2000/svg" xmlns:xlink="http://www.w3.org/1999/xlink" x="0px" y="0px"
	 width="48px" height="48px" viewBox="0 0 48 48" enable-background="new 0 0 48 48" xml:space="preserve">
<g>
	<path fill="#40596B" d="M40.311,3.847v16.33h7.692V3.847c0-2.125-1.723-3.846-3.847-3.846S40.311,1.722,40.311,3.847"/>
	<path fill="#65C5B8" d="M44.157,0.001H3.844c-2.124,0-3.847,1.721-3.847,3.846v40.307c0,2.125,1.723,3.846,3.847,3.846h32.618
		c2.123,0,3.846-1.721,3.846-3.846V3.847c0-0.012,0.006-0.025,0.007-0.037C40.335,1.702,42.046,0.001,44.157,0.001"/>
	<path fill="#FFFFFF" d="M23.331,4.501H4.499v11.004v12.533v15.463h31.312V28.563V17.032v-1V4.501H23.331z M5.499,16.505h10.479
		v10.531H5.499V16.505z M34.811,42.501H21.524v-5.77h2.602v-1h-6.203v1h2.602v5.77H5.499V28.038h11.479V15.505H5.499V5.501h10.479
		v4.285h1V5.501h6.354v10.531v1v11.531h11.479V42.501z M34.811,27.563H24.331V17.032h10.479V27.563z M24.331,5.501h10.479v10.531
		H24.331V5.501z"/>
</g>
</svg>
