<?xml version="1.0" encoding="utf-8"?>
<!-- Generator: Adobe Illustrator 18.0.0, SVG Export Plug-In . SVG Version: 6.00 Build 0)  -->
<!DOCTYPE svg PUBLIC "-//W3C//DTD SVG 1.1//EN" "http://www.w3.org/Graphics/SVG/1.1/DTD/svg11.dtd">
<svg version="1.1" id="Layer_1" xmlns="http://www.w3.org/2000/svg" xmlns:xlink="http://www.w3.org/1999/xlink" x="0px" y="0px"
	 viewBox="0 0 48 48" enable-background="new 0 0 48 48" xml:space="preserve">
<g>
	<g>
		<g>
			<path fill="#F3705A" d="M48,21.7C48,32.4,37.3,41,24,41c-1.1,0-2.2-0.1-3.3-0.2c-6.7,6.5-16,4.4-16,4.4c3.1-1.6,5-4.6,6.1-7.4
				C4.3,34.4,0,28.4,0,21.7C0,11.1,10.7,2.4,24,2.4C37.3,2.4,48,11.1,48,21.7z"/>
		</g>
		<g>
			<path fill="#F05540" d="M48,21.7c0,0.6,0,1.2-0.1,1.8C46.8,13.7,36.5,6,24,6C11.5,6,1.2,13.7,0.1,23.5C0,22.9,0,22.3,0,21.7
				C0,11.1,10.8,2.4,24,2.4C37.3,2.4,48,11.1,48,21.7z"/>
		</g>
		<g>
			<g>
				<path fill="#FFFFFF" d="M11.7,25.8c0,0-4.6-2.6-4.6-5.8c0-1.3,1.1-2.4,2.4-2.4c1,0,1.8,0.6,2.2,1.5c0.4-0.9,1.2-1.5,2.2-1.5
					c1.3,0,2.4,1.1,2.4,2.4C16.2,23.2,11.7,25.8,11.7,25.8z"/>
			</g>
			<g>
				<path fill="#FFFFFF" d="M24,25.8c0,0-4.6-2.6-4.6-5.8c0-1.3,1.1-2.4,2.4-2.4c1,0,1.8,0.6,2.2,1.5c0.4-0.9,1.2-1.5,2.2-1.5
					c1.3,0,2.4,1.1,2.4,2.4C28.6,23.2,24,25.8,24,25.8z"/>
			</g>
			<g>
				<path fill="#FFFFFF" d="M36.3,25.8c0,0-4.6-2.6-4.6-5.8c0-1.3,1.1-2.4,2.4-2.4c1,0,1.8,0.6,2.2,1.5c0.4-0.9,1.2-1.5,2.2-1.5
					c1.3,0,2.4,1.1,2.4,2.4C40.9,23.2,36.3,25.8,36.3,25.8z"/>
			</g>
		</g>
	</g>
</g>
</svg>
