<?xml version="1.0" encoding="utf-8"?>
<!-- Generator: Adobe Illustrator 20.1.0, SVG Export Plug-In . SVG Version: 6.00 Build 0)  -->
<!DOCTYPE svg PUBLIC "-//W3C//DTD SVG 1.1//EN" "http://www.w3.org/Graphics/SVG/1.1/DTD/svg11.dtd">
<svg version="1.1" id="Layer_1" xmlns="http://www.w3.org/2000/svg" xmlns:xlink="http://www.w3.org/1999/xlink" x="0px" y="0px"
	 viewBox="0 0 49 49" enable-background="new 0 0 49 49" xml:space="preserve">
<g>
	<path fill="#40596B" d="M46.5,20.3h-44c-1.3,0-2.3-1.3-1.9-2.6L4,1.9c0.2-0.9,1-1.4,1.9-1.4H43c0.9,0,1.7,0.6,1.9,1.4l3.5,15.8
		C48.8,19.1,47.8,20.3,46.5,20.3z"/>
	<path fill="#F2F2F2" d="M45.4,20.3v26.2c0,1.1-0.9,2-2,2H5.6c-1.1,0-2-0.9-2-2V20.3H45.4z"/>
	<rect x="3.6" y="20.3" fill="#E2E2E2" width="41.8" height="1.5"/>
	<rect x="36.4" y="38.6" fill="#54C0EB" width="5.1" height="5.1"/>
	<rect x="7.5" y="38.6" fill="#54C0EB" width="5.1" height="5.1"/>
	<path fill="#ACB3BA" d="M17.8,48.5V31.3c0-0.6,0.5-1.1,1.1-1.1h11c0.6,0,1.1,0.5,1.1,1.1v17.2H17.8z"/>
</g>
</svg>
