<?xml version="1.0" encoding="utf-8"?>
<!-- Generator: Adobe Illustrator 18.0.0, SVG Export Plug-In . SVG Version: 6.00 Build 0)  -->
<!DOCTYPE svg PUBLIC "-//W3C//DTD SVG 1.1//EN" "http://www.w3.org/Graphics/SVG/1.1/DTD/svg11.dtd">
<svg version="1.1" id="Layer_1" xmlns="http://www.w3.org/2000/svg" xmlns:xlink="http://www.w3.org/1999/xlink" x="0px" y="0px"
	 viewBox="0 0 48 48" enable-background="new 0 0 48 48" xml:space="preserve">
<g>
	<g>
		<g>
			<polygon fill="#CED6E0" points="41.2,11.6 36.4,6.8 44.5,3.5 44.5,3.5 			"/>
		</g>
		<g>
			
				<rect x="28.4" y="28.4" transform="matrix(0.7071 0.7071 -0.7071 0.7071 29.7306 -13.3563)" fill="#CED6E0" width="5.1" height="1.7"/>
		</g>
		<g>
			
				<rect x="22.3" y="34.5" transform="matrix(0.7071 0.7071 -0.7071 0.7071 32.256 -7.2596)" fill="#CED6E0" width="5.1" height="1.7"/>
		</g>
		<g>
			<path fill="#E8EAE9" d="M43.1,35.4l-6.8-6.8c-0.8-0.8-2.1-0.8-2.8,0l-9.2,9.2c-0.8,0.8-0.8,2.1,0,2.8l6.8,6.8
				c0.8,0.8,2.1,0.8,2.8,0l9.2-9.2C43.9,37.5,43.9,36.2,43.1,35.4z"/>
		</g>
		<g>
			<g>
				
					<rect x="26.5" y="37.5" transform="matrix(0.7071 -0.7071 0.7071 0.7071 -19.7188 31.4267)" fill="#8AD7F8" width="3.2" height="4"/>
			</g>
			<g>
				
					<rect x="30.6" y="41.7" transform="matrix(-0.7071 0.7071 -0.7071 -0.7071 85.8774 51.7499)" fill="#8AD7F8" width="3.2" height="4"/>
			</g>
			<g>
				
					<rect x="37.8" y="34.5" transform="matrix(-0.7071 0.7071 -0.7071 -0.7071 92.998 34.559)" fill="#8AD7F8" width="3.2" height="4"/>
			</g>
			<g>
				
					<rect x="33.6" y="30.4" transform="matrix(0.7071 -0.7071 0.7071 0.7071 -12.598 34.3762)" fill="#8AD7F8" width="3.2" height="4"/>
			</g>
			<g>
				
					<rect x="34.2" y="38.1" transform="matrix(-0.7071 0.7071 -0.7071 -0.7071 89.4377 43.1545)" fill="#8AD7F8" width="3.2" height="4"/>
			</g>
			<g>
				
					<rect x="30" y="34" transform="matrix(0.7071 -0.7071 0.7071 0.7071 -16.1584 32.9015)" fill="#8AD7F8" width="3.2" height="4"/>
			</g>
		</g>
		<g>
			
				<rect x="16.2" y="16.2" transform="matrix(0.7071 0.7071 -0.7071 0.7071 17.5327 -8.3036)" fill="#CED6E0" width="5.1" height="1.7"/>
		</g>
		<g>
			
				<rect x="10.1" y="22.3" transform="matrix(0.7071 0.7071 -0.7071 0.7071 20.0581 -2.2069)" fill="#CED6E0" width="5.1" height="1.7"/>
		</g>
		<g>
			<path fill="#E8EAE9" d="M12.6,4.9l6.8,6.8c0.8,0.8,0.8,2.1,0,2.8l-9.2,9.2c-0.8,0.8-2.1,0.8-2.8,0l-6.8-6.8
				c-0.8-0.8-0.8-2.1,0-2.8l9.2-9.2C10.5,4.1,11.8,4.1,12.6,4.9z"/>
		</g>
		<g>
			<g>
				
					<rect x="6.9" y="17.9" transform="matrix(0.7071 -0.7071 0.7071 0.7071 -11.6038 11.835)" fill="#8AD7F8" width="3.2" height="4"/>
			</g>
			<g>
				
					<rect x="2.8" y="13.8" transform="matrix(-0.7071 0.7071 -0.7071 -0.7071 18.5653 23.869)" fill="#8AD7F8" width="3.2" height="4"/>
			</g>
			<g>
				
					<rect x="9.9" y="6.7" transform="matrix(-0.7071 0.7071 -0.7071 -0.7071 25.6859 6.6781)" fill="#8AD7F8" width="3.2" height="4"/>
			</g>
			<g>
				
					<rect x="14" y="10.8" transform="matrix(0.7071 -0.7071 0.7071 0.7071 -4.4831 14.7845)" fill="#8AD7F8" width="3.2" height="4"/>
			</g>
			<g>
				
					<rect x="6.3" y="10.2" transform="matrix(-0.7071 0.7071 -0.7071 -0.7071 22.1256 15.2736)" fill="#8AD7F8" width="3.2" height="4"/>
			</g>
			<g>
				
					<rect x="10.5" y="14.4" transform="matrix(0.7071 -0.7071 0.7071 0.7071 -8.0434 13.3098)" fill="#8AD7F8" width="3.2" height="4"/>
			</g>
		</g>
		
			<rect x="28.7" y="15.6" transform="matrix(-0.7071 0.7071 -0.7071 -0.7071 64.1974 8.8976)" fill="#CED6E0" width="3.2" height="4.2"/>
		<path fill="#E8EAE9" d="M23.8,12.6L7.4,28.9c-3.2,3.2-3.2,8.4,0,11.6c3.2,3.2,8.4,3.2,11.6,0l16.4-16.4L23.8,12.6z"/>
		<path fill="#E8EAE9" d="M48,17.3c-4.8,4.8-12.5,4.8-17.2,0C26,12.5,26,4.8,30.7,0L48,17.3z"/>
		<g>
			<circle fill="#E8EAE9" cx="44.9" cy="3.1" r="3.1"/>
		</g>
		<circle fill="#415A6B" cx="20.2" cy="27.8" r="5"/>
		<circle fill="#8AD7F8" cx="20.2" cy="27.8" r="3.8"/>
	</g>
</g>
</svg>
