<?xml version="1.0" encoding="utf-8"?>
<!-- Generator: Adobe Illustrator 16.0.0, SVG Export Plug-In . SVG Version: 6.00 Build 0)  -->
<!DOCTYPE svg PUBLIC "-//W3C//DTD SVG 1.1//EN" "http://www.w3.org/Graphics/SVG/1.1/DTD/svg11.dtd">
<svg version="1.1" id="Layer_1" xmlns="http://www.w3.org/2000/svg" xmlns:xlink="http://www.w3.org/1999/xlink" x="0px" y="0px"
	 width="48px" height="48px" viewBox="0 0 48 48" enable-background="new 0 0 48 48" xml:space="preserve">
<g>
	<path fill="#ACB3BA" d="M24.021,30.168C24.009,30.18,24,30.18,24,30.18v-0.023C24.009,30.156,24.021,30.168,24.021,30.168"/>
	<path fill="#ACB3BA" d="M24.021,30.157v0.021c0,0-0.012,0-0.021-0.01C24,30.168,24.009,30.157,24.021,30.157"/>
	<path fill="#F8B64C" d="M17.5,26.588c0.08,0.109,0.069,0.109-0.011,0H17.5z"/>
	<path fill="#F8B64C" d="M17.488,14.014c0.148,1.674-0.666,3.115-1.815,3.215c-1.149,0.101-2.2-1.176-2.346-2.852
		c-0.147-1.675,0.666-3.115,1.815-3.215C16.292,11.061,17.341,12.338,17.488,14.014"/>
	<path fill="#F8B64C" d="M34.694,14.377c-0.147,1.676-1.196,2.953-2.347,2.852c-1.148-0.1-1.963-1.54-1.814-3.215
		c0.146-1.676,1.196-2.952,2.346-2.852C34.028,11.262,34.841,12.703,34.694,14.377"/>
	<path fill="#ACB3BA" d="M41.884,30.68l-11.355-4.092l0,0l-0.001,0.002c0,0-0.073,0.09-0.073,0.08
		c-1.6,2.168-4.018,3.238-6.447,3.239h-0.002c-0.002,0-0.002,0-0.002,0c-2.421-0.001-4.84-1.071-6.449-3.239l-0.062-0.078
		l-0.004-0.002L6.115,30.68c-3.55,1.27-5.93,4.649-5.93,8.43v8.863h47.63v-8.863C47.815,35.329,45.435,31.949,41.884,30.68"/>
	<path fill="#FFD15C" d="M24.01,0.027c-5.337,0-9.664,4.326-9.664,9.664v2.9c0,0.741,0.046,1.48,0.138,2.214v0.003
		c0.458,3.754,2.075,7.271,4.627,10.063l0.916,1.005c0.842,0.923,2.032,1.448,3.281,1.448h1.4c1.248,0,2.438-0.524,3.281-1.446
		l0.92-1.007c2.551-2.791,4.168-6.313,4.631-10.065c0.092-0.737,0.134-1.473,0.134-2.214v-2.9
		C33.674,4.354,29.347,0.027,24.01,0.027"/>
	<path fill="#F8B64C" d="M32.425,27.272c-0.031,0.101-0.07,0.2-0.121,0.29c-0.029,0.07-0.069,0.13-0.109,0.189
		c-0.11,0.181-2.79,4.24-8.2,4.24c-5.37,0-8.08-4.06-8.19-4.229c-0.1-0.16-0.18-0.32-0.22-0.49l1.9-0.681v-3.779h0.01
		c0.49,0.721,1.021,1.41,1.62,2.061l0.91,1c0.84,0.93,2.029,1.449,3.279,1.449h1.4c1.25,0,2.439-0.52,3.28-1.439l0.92-1.01
		c0.601-0.65,1.13-1.34,1.62-2.061v3.779L32.425,27.272z"/>
	<path fill="#F2F2F2" d="M35.804,28.492c-0.1,0.2-0.199,0.36-0.289,0.49c-0.65,0.971-4.34,6.01-11.521,6.01
		c-7.42,0-11.149-5.439-11.55-6.06c-0.09-0.149-0.18-0.3-0.25-0.44l3.391-1.22c0.039,0.17,0.119,0.33,0.219,0.49
		c0.11,0.17,2.82,4.229,8.19,4.229c5.41,0,8.091-4.06,8.2-4.24c0.04-0.06,0.08-0.119,0.109-0.189c0.051-0.09,0.09-0.189,0.121-0.29
		L35.804,28.492z"/>
	<g opacity="0.1">
		<g>
			<defs>
				<rect id="SVGID_153_" x="20.227" y="22.814" width="12.198" height="8.873"/>
			</defs>
			<clipPath id="SVGID_2_">
				<use xlink:href="#SVGID_153_"  overflow="visible"/>
			</clipPath>
			<path clip-path="url(#SVGID_2_)" fill="#40596B" d="M30.525,22.814c-0.488,0.719-1.024,1.409-1.616,2.057l-0.919,1.007
				c-0.844,0.922-2.033,1.446-3.282,1.446h-1.399c-1.158,0-2.254-0.469-3.08-1.271h-0.002l6.228,5.634
				c3.763-0.941,5.649-3.785,5.741-3.935c0.04-0.06,0.08-0.12,0.109-0.19c0.051-0.09,0.09-0.189,0.121-0.289l-1.9-0.681V22.814z"/>
		</g>
	</g>
	<polygon fill="#97A1AA" points="10.042,47.973 7.782,47.973 10.042,39.83 	"/>
	<polygon fill="#97A1AA" points="37.958,47.973 40.218,47.973 37.958,39.83 	"/>
	<path fill="#40596B" d="M33.636,14.14l-1.585,5.965l-2.185,2.378c-0.246-0.671-0.809-1.24-1.494-1.715
		c-2.6-1.802-6.133-1.803-8.73,0.002c-0.682,0.475-1.242,1.043-1.488,1.713L16,20.173l-1.615-6.033l0.348,3.632
		c0.579,3.441,2.691,9.521,5.84,11.027c1.037,0.497,2.194,0.831,3.435,0.831c1.248,0,2.405-0.334,3.442-0.831
		c3.147-1.506,5.26-7.586,5.84-11.027L33.636,14.14z M27.662,25.063c0,0-0.787,1.404-2.19,0c0,0-0.731-0.842-1.461-0.897
		c-0.729,0.056-1.461,0.897-1.461,0.897c-1.404,1.404-2.19,0-2.19,0c-0.324-0.665-0.369-1.19-0.273-1.599
		c0.178-0.762,0.914-1.244,1.691-1.176c1.422,0.127,2.233-0.819,2.233-0.819s0.812,0.946,2.233,0.819
		c0.777-0.068,1.514,0.414,1.69,1.176C28.031,23.873,27.986,24.398,27.662,25.063"/>
	<path fill="#40596B" d="M29.433,11.521h-2.318c-1.143,0-2.104,0.736-2.461,1.757c-0.232-0.041-0.469-0.07-0.709-0.07
		c-0.197,0-0.391,0.028-0.582,0.058c-0.361-1.015-1.319-1.744-2.457-1.744h-2.318c-1.445,0-2.618,1.172-2.618,2.617
		c0,1.447,1.173,2.621,2.619,2.621h2.317c1.445,0,2.617-1.174,2.617-2.619v-0.002c0-0.061-0.014-0.119-0.018-0.18
		c0.336-0.047,0.676-0.046,1.008,0.012c-0.003,0.057-0.017,0.11-0.017,0.168c0,1.447,1.173,2.621,2.62,2.621h2.316
		c1.445,0,2.618-1.174,2.618-2.619v-0.002C32.051,12.693,30.878,11.521,29.433,11.521 M20.904,16.01h-2.315
		c-1.03,0-1.869-0.84-1.869-1.869c0-1.03,0.839-1.869,1.868-1.869h2.316c1.031,0,1.869,0.839,1.869,1.869
		C22.773,15.17,21.935,16.01,20.904,16.01 M29.433,16.01h-2.316c-1.031,0-1.87-0.84-1.87-1.869c0-1.03,0.838-1.869,1.868-1.869
		h2.318c1.029,0,1.867,0.839,1.867,1.869C31.3,15.17,30.462,16.01,29.433,16.01"/>
</g>
</svg>
