<?xml version="1.0" encoding="utf-8"?>
<!-- Generator: Adobe Illustrator 18.0.0, SVG Export Plug-In . SVG Version: 6.00 Build 0)  -->
<!DOCTYPE svg PUBLIC "-//W3C//DTD SVG 1.1//EN" "http://www.w3.org/Graphics/SVG/1.1/DTD/svg11.dtd">
<svg version="1.1" id="Layer_1" xmlns="http://www.w3.org/2000/svg" xmlns:xlink="http://www.w3.org/1999/xlink" x="0px" y="0px"
	 viewBox="0 0 512 512" enable-background="new 0 0 512 512" xml:space="preserve">
<g>
	<path fill="#F2F2F2" d="M418.4,77.5v102.9H93.6V23.2c0-11.7,9.5-21.2,21.2-21.2h228.1L418.4,77.5z"/>
	<path fill="#CDD5DF" d="M364.1,77.5h54.3L342.9,2v54.3C342.9,68,352.4,77.5,364.1,77.5z"/>
	<rect x="122.3" y="22.5" fill="#89D6F7" width="85.6" height="99.3"/>
	<rect x="122.3" y="142.6" fill="#CDD5DF" width="267.4" height="17.1"/>
	<path fill="#FFD15C" d="M509.4,201.6v287.3c0,6.1-2.5,11.6-6.7,15.5c-3.8,3.6-8.9,5.7-14.5,5.7H23.7c-5.7,0-10.8-2.1-14.5-5.7
		c-4.1-3.8-6.7-9.3-6.7-15.5V201.6c0-5.9,2.4-11.4,6.5-15.1c0.1-0.1,0.1-0.2,0.2-0.2c3.3-3.2,7.5-5.2,12.3-5.7
		c0.7-0.1,1.5-0.1,2.2-0.1h464.5c0.7,0,1.5,0,2.1,0.1c4.8,0.5,9,2.5,12.4,5.7c0.1,0,0.1,0.1,0.2,0.2
		C507,190.1,509.4,195.6,509.4,201.6z"/>
	<path fill="#F8B64C" d="M502.8,504.3c-3.8,3.6-8.9,5.7-14.5,5.7H23.7c-5.7,0-10.8-2.1-14.5-5.7l246.9-211.5L502.8,504.3z"/>
	<path fill="#F8B64C" d="M502.8,186.2L269.7,385.8c-7.9,6.9-19.6,6.9-27.5,0L9.2,186.2c3.3-3.2,7.5-5.2,12.3-5.7h468.9
		C495.2,181,499.4,183.1,502.8,186.2z"/>
	<path fill="#FFD15C" d="M503,186.4L270.4,399.7c-8.2,7.7-20.9,7.7-29.1,0L9,186.4c0.1-0.1,0.1-0.2,0.2-0.2l233,199.6
		c7.9,6.9,19.6,6.9,27.5,0l233.1-199.6C502.9,186.2,502.9,186.3,503,186.4z"/>
</g>
</svg>
