<?xml version="1.0" encoding="utf-8"?>
<!-- Generator: Adobe Illustrator 18.0.0, SVG Export Plug-In . SVG Version: 6.00 Build 0)  -->
<!DOCTYPE svg PUBLIC "-//W3C//DTD SVG 1.1//EN" "http://www.w3.org/Graphics/SVG/1.1/DTD/svg11.dtd">
<svg version="1.1" id="Layer_1" xmlns="http://www.w3.org/2000/svg" xmlns:xlink="http://www.w3.org/1999/xlink" x="0px" y="0px"
	 viewBox="0 0 48 48" enable-background="new 0 0 48 48" xml:space="preserve">
<g>
	<g>
		<rect x="3.2" y="13.7" fill="#E8EAE9" width="20.9" height="13.4"/>
		<g>
			<rect x="3.2" y="13.7" fill="#CED6E0" width="20.9" height="1.9"/>
		</g>
		<rect x="10.5" y="18.6" fill="#415A6B" width="6.4" height="8.5"/>
		<polygon fill="#66C6B9" points="27.4,13.7 13.7,-0.1 -0.1,13.7 		"/>
	</g>
	<g>
		<g>
			<polygon fill="#E8EAE9" points="34.6,24.6 24,35.1 24,48.1 45.1,48.1 45.1,35.1 			"/>
			<g>
				<path fill="#CED6E0" d="M24,35.1v2.5c4.1-4.1,6.4-6.4,10.5-10.5l10.5,10.5v-2.5L34.6,24.6L24,35.1z"/>
			</g>
			<path fill="#415A6B" d="M31.2,42.3v5.7H38v-5.7c0-1.9-1.5-3.4-3.4-3.4h0C32.7,38.9,31.2,40.5,31.2,42.3z"/>
		</g>
		<g>
			<path fill="#F3705A" d="M45.3,35.4L34.6,24.6L23.8,35.4c-0.6,0.6-1.6,0.6-2.3,0h0c-0.6-0.6-0.6-1.6,0-2.3l11.9-11.9
				c0.6-0.6,1.6-0.6,2.3,0l11.9,11.9c0.6,0.6,0.6,1.6,0,2.3h0C47,36,45.9,36,45.3,35.4z"/>
		</g>
	</g>
	<g>
		<path fill="#F3705A" d="M22,43.2c-3.2,2.3-7.5,2.9-11.3,1.2c-2.8-1.3-4.8-3.6-5.7-6.2l-2.7,1l3.6-7.9l7.8,3.7l-2.7,1
			C12.6,40.6,17.2,43.5,22,43.2z"/>
		<path fill="#415A6B" d="M45.8,8.9l-3.6,7.9l-7.8-3.7l2.7-1C35.4,7.3,30.8,4.5,26,4.8c3.2-2.4,7.5-2.9,11.3-1.2
			c2.8,1.3,4.8,3.6,5.7,6.3L45.8,8.9z"/>
	</g>
</g>
</svg>
