<?xml version="1.0" encoding="utf-8"?>
<!-- Generator: Adobe Illustrator 18.0.0, SVG Export Plug-In . SVG Version: 6.00 Build 0)  -->
<!DOCTYPE svg PUBLIC "-//W3C//DTD SVG 1.1//EN" "http://www.w3.org/Graphics/SVG/1.1/DTD/svg11.dtd">
<svg version="1.1" id="Layer_1" xmlns="http://www.w3.org/2000/svg" xmlns:xlink="http://www.w3.org/1999/xlink" x="0px" y="0px"
	 viewBox="0 0 48 48" enable-background="new 0 0 48 48" xml:space="preserve">
<g>
	<g>
		<g>
			<path fill="#ACB3BA" d="M3.9,27.6H1c-0.6,0-1-0.4-1-1v-5.5c0-0.6,0.4-1,1-1h2.9c0.6,0,1,0.4,1,1v5.5C4.9,27.1,4.4,27.6,3.9,27.6z
				"/>
			<path fill="#CDD6E0" d="M3.2,20.1H1.7v-1c0-1.2,1-2.2,2.2-2.2h3.6v1.5H3.9c-0.4,0-0.7,0.3-0.7,0.7V20.1z"/>
		</g>
		<g>
			<path fill="#ACB3BA" d="M44.1,27.6H47c0.6,0,1-0.4,1-1v-5.5c0-0.6-0.4-1-1-1h-2.9c-0.6,0-1,0.4-1,1v5.5
				C43.1,27.1,43.6,27.6,44.1,27.6z"/>
			<path fill="#CDD6E0" d="M44.8,20.1h1.5v-1c0-1.2-1-2.2-2.2-2.2h-3.6v1.5h3.6c0.4,0,0.7,0.3,0.7,0.7V20.1z"/>
		</g>
	</g>
	<g>
		<path fill="#40596B" d="M13.6,48h-3.1c-1.1,0-2-0.9-2-2v-2.4h7.1V46C15.6,47.1,14.7,48,13.6,48z"/>
		<path fill="#40596B" d="M37.5,48h-3.1c-1.1,0-2-0.9-2-2v-2.4h7.1V46C39.5,47.1,38.6,48,37.5,48z"/>
		<path fill="#40596B" d="M13.6,48h-3.1c-1.1,0-2-0.9-2-2v-2.4h7.1V46C15.6,47.1,14.7,48,13.6,48z"/>
		<path fill="#40596B" d="M37.5,48h-3.1c-1.1,0-2-0.9-2-2v-2.4h7.1V46C39.5,47.1,38.6,48,37.5,48z"/>
		<rect x="8.5" y="43.6" fill="#334A5E" width="7.1" height="1.5"/>
		<rect x="32.4" y="43.6" fill="#334A5E" width="7.1" height="1.5"/>
	</g>
	<path fill="#FFD15C" d="M5.5,6v37.6h36.9V6c0-3.3-2.7-6-6-6H11.5C8.2,0,5.5,2.7,5.5,6z"/>
	<path fill="#FF7058" d="M39.5,10.6V6c0-1.7-1.3-3-3-3H11.5c-1.7,0-3,1.3-3,3v4.6c0,1.7,1.3,3,3,3h24.9
		C38.1,13.6,39.5,12.2,39.5,10.6z"/>
	<g>
		<g>
			<g>
				<path fill="#FFFFFF" d="M14.6,33.8L11,33.2c-1.4-0.1-2.7,1-2.7,2.4v0.6c0,1.3,1.1,2.4,2.4,2.4h3.6c1.3,0,2.4-1.1,2.4-2.4
					C16.8,34.9,15.8,33.9,14.6,33.8z"/>
				<path fill="#FFFFFF" d="M33.3,33.8l3.6-0.6c1.4-0.1,2.7,1,2.7,2.4v0.6c0,1.3-1.1,2.4-2.4,2.4h-3.6c-1.3,0-2.4-1.1-2.4-2.4
					C31.1,34.9,32,33.9,33.3,33.8z"/>
			</g>
			<path fill="#F2F2F2" d="M11,34l3.6,0.6c1.1,0.1,1.9,0.9,2.1,2c0-0.1,0-0.2,0-0.4c0-1.2-0.9-2.3-2.2-2.4L11,33.2
				c-1.4-0.1-2.7,1-2.7,2.4v0.6c0,0,0,0.1,0,0.1C8.4,34.9,9.6,33.8,11,34z"/>
		</g>
		<path fill="#F2F2F2" d="M36.9,33.2l-3.6,0.6c-1.2,0.1-2.2,1.2-2.2,2.4c0,0.1,0,0.3,0,0.4c0.2-1,1-1.9,2.1-2l3.6-0.6
			c1.4-0.1,2.6,0.9,2.7,2.3c0,0,0-0.1,0-0.1v-0.6C39.5,34.2,38.3,33.1,36.9,33.2z"/>
	</g>
	<g>
		<rect x="8.3" y="18.3" fill="#54C0EB" width="14.4" height="10.9"/>
		<rect x="25.2" y="18.3" fill="#54C0EB" width="14.4" height="10.9"/>
		<g>
			<polygon fill="#84DBFF" points="35.6,18.3 26.7,29.3 25.2,29.3 25.2,28.9 33.7,18.3 			"/>
			<polygon fill="#84DBFF" points="39.5,18.3 39.5,18.6 31,29.3 28,29.3 36.8,18.3 			"/>
		</g>
		<g>
			<polygon fill="#84DBFF" points="18.7,18.3 9.9,29.3 8.3,29.3 8.3,28.9 16.9,18.3 			"/>
			<polygon fill="#84DBFF" points="22.7,18.3 22.7,18.6 14.1,29.3 11.1,29.3 20,18.3 			"/>
		</g>
	</g>
	<path fill="#FF7058" d="M42.4,40.8H5.6c-0.8,0-1.4,0.6-1.4,1.4v0c0,0.8,0.6,1.4,1.4,1.4h36.8c0.8,0,1.4-0.6,1.4-1.4v0
		C43.8,41.4,43.2,40.8,42.4,40.8z"/>
	<rect x="18.5" y="33.3" fill="#F8B64C" width="10.8" height="5.2"/>
</g>
</svg>
