<?xml version="1.0" encoding="utf-8"?>
<!-- Generator: Adobe Illustrator 18.0.0, SVG Export Plug-In . SVG Version: 6.00 Build 0)  -->
<!DOCTYPE svg PUBLIC "-//W3C//DTD SVG 1.1//EN" "http://www.w3.org/Graphics/SVG/1.1/DTD/svg11.dtd">
<svg version="1.1" id="Layer_1" xmlns="http://www.w3.org/2000/svg" xmlns:xlink="http://www.w3.org/1999/xlink" x="0px" y="0px"
	 viewBox="0 0 48 48" enable-background="new 0 0 48 48" xml:space="preserve">
<g>
	<path fill="#40596B" d="M38.4,48H9.6c-1.1,0-2-0.9-2-2V2c0-1.1,0.9-2,2-2h28.7c1.1,0,2,0.9,2,2v44C40.4,47.1,39.5,48,38.4,48z"/>
	<rect x="11" y="6.8" fill="#FFFFFF" width="26.1" height="31.2"/>
	<circle fill="#ACB3BA" cx="24" cy="43" r="2.8"/>
	<path fill="#ACB3BA" d="M28.7,4.2h-8.1c-0.4,0-0.8-0.3-0.8-0.8l0,0c0-0.4,0.3-0.8,0.8-0.8h8.1c0.4,0,0.8,0.3,0.8,0.8l0,0
		C29.4,3.8,29.1,4.2,28.7,4.2z"/>
	<circle fill="#FF7058" cx="24" cy="22.4" r="9"/>
	<path fill="#FFFFFF" d="M28.9,21.6L22,17.3c-0.6-0.4-1.3,0-1.3,0.7v8.8c0,0.7,0.8,1.1,1.3,0.7l6.9-4.4C29.4,22.8,29.4,22,28.9,21.6
		z"/>
</g>
</svg>
