<?xml version="1.0" encoding="utf-8"?>
<!-- Generator: Adobe Illustrator 18.0.0, SVG Export Plug-In . SVG Version: 6.00 Build 0)  -->
<!DOCTYPE svg PUBLIC "-//W3C//DTD SVG 1.1//EN" "http://www.w3.org/Graphics/SVG/1.1/DTD/svg11.dtd">
<svg version="1.1" id="Layer_1" xmlns="http://www.w3.org/2000/svg" xmlns:xlink="http://www.w3.org/1999/xlink" x="0px" y="0px"
	 viewBox="0 0 48 48" enable-background="new 0 0 48 48" xml:space="preserve">
<g>
	<g>
		<g>
			<polygon fill="#F05540" points="48,0 28.7,0 19.7,14.7 28.3,14.7 			"/>
		</g>
		<g>
			<path fill="#FFD15C" d="M29.1,19.5H18.9c-1.2,0-2.1-0.9-2.1-2.1v-2.5c0-1.2,0.9-2.1,2.1-2.1h10.1c1.2,0,2.1,0.9,2.1,2.1v2.5
				C31.2,18.5,30.2,19.5,29.1,19.5z M18.9,14.5c-0.2,0-0.3,0.1-0.3,0.3v2.5c0,0.2,0.1,0.3,0.3,0.3h10.1c0.2,0,0.3-0.1,0.3-0.3v-2.5
				c0-0.2-0.1-0.3-0.3-0.3H18.9z"/>
		</g>
		<g>
			<polygon fill="#F3705A" points="0,0 19.3,0 28.3,14.7 19.7,14.7 			"/>
		</g>
		<g>
			<g>
				<g>
					<circle fill="#FFD15C" cx="24" cy="32.4" r="15.6"/>
				</g>
			</g>
			<g>
				<g>
					<circle fill="#F7B64C" cx="24" cy="32.4" r="11.1"/>
				</g>
			</g>
			<g>
				<g>
					<polygon fill="#FFD15C" points="24,25.6 26.1,29.7 30.7,30.4 27.3,33.7 28.1,38.3 24,36.1 19.9,38.3 20.7,33.7 17.3,30.4 
						21.9,29.7 					"/>
				</g>
			</g>
		</g>
	</g>
</g>
</svg>
