<?xml version="1.0" encoding="utf-8"?>
<!-- Generator: Adobe Illustrator 18.0.0, SVG Export Plug-In . SVG Version: 6.00 Build 0)  -->
<!DOCTYPE svg PUBLIC "-//W3C//DTD SVG 1.1//EN" "http://www.w3.org/Graphics/SVG/1.1/DTD/svg11.dtd">
<svg version="1.1" id="Layer_1" xmlns="http://www.w3.org/2000/svg" xmlns:xlink="http://www.w3.org/1999/xlink" x="0px" y="0px"
	 viewBox="0 0 48 48" enable-background="new 0 0 48 48" xml:space="preserve">
<g>
	<g>
		<g>
			<g>
				<polygon fill="#E8EAE9" points="14.5,35.8 10.8,12.6 5,12.6 1.3,35.8 				"/>
			</g>
			<g>
				<polygon fill="#F3705A" points="3.8,20.1 12,20.1 11.3,16 4.5,16 				"/>
				<polygon fill="#F3705A" points="3,25.2 2,31.6 13.8,31.6 12.8,25.2 				"/>
			</g>
		</g>
		<g>
			<polygon fill="#F3F3F3" points="48,26.6 48,48 0,48 0,33.1 24,26.6 24,33.1 			"/>
			<g>
				<g>
					<rect x="4" y="38.2" fill="#8AD7F8" width="10.5" height="5.8"/>
				</g>
			</g>
			<g>
				<g>
					<rect x="18.8" y="38.2" fill="#8AD7F8" width="10.5" height="5.8"/>
				</g>
			</g>
			<g>
				<g>
					<rect x="33.5" y="38.2" fill="#8AD7F8" width="10.5" height="5.8"/>
				</g>
			</g>
		</g>
		<g>
			<path fill="#F3F3F3" d="M24.1,7.7c-1,1-2.4,1.3-3.6,1c0,1.2-0.8,2.2-2,2.6c-1.3,0.3-2.6-0.3-3.1-1.5c-0.6,0.5-1.5,0.7-2.3,0.5
				c-0.3-0.1-0.7-0.3-0.9-0.5c-0.5,0.2-1,0.3-1.5,0.1c-0.3,0.6-1,0.9-1.7,0.7c-0.8-0.2-1.3-1-1.1-1.8c0.1-0.6,0.6-1,1.1-1.1
				c0-0.7,0.3-1.5,1-1.9c0.4-0.3,0.9-0.4,1.4-0.4c-0.5-0.9-0.2-2,0.6-2.6c0.7-0.5,1.7-0.4,2.3,0.1c0.1-1,0.7-1.9,1.6-2.5
				c1.4-0.8,3.1-0.6,4.2,0.6c1.4-0.5,3.1-0.2,4.2,1C25.7,3.6,25.7,6.2,24.1,7.7z"/>
		</g>
	</g>
</g>
</svg>
