<?xml version="1.0" encoding="utf-8"?>
<!-- Generator: Adobe Illustrator 18.0.0, SVG Export Plug-In . SVG Version: 6.00 Build 0)  -->
<!DOCTYPE svg PUBLIC "-//W3C//DTD SVG 1.1//EN" "http://www.w3.org/Graphics/SVG/1.1/DTD/svg11.dtd">
<svg version="1.1" id="Layer_1" xmlns="http://www.w3.org/2000/svg" xmlns:xlink="http://www.w3.org/1999/xlink" x="0px" y="0px"
	 viewBox="0 0 48 48" enable-background="new 0 0 48 48" xml:space="preserve">
<g>
	<g>
		<g>
			<g>
				<path fill="#415A6B" d="M16.6,15.2L11,11.5l0.7-1.1l5.7,3.7c1.9,1.3,4.5,0.7,5.8-1.2c1.3-1.9,0.7-4.5-1.2-5.8l-8.1-5.3
					C12.6,1,11,1.3,10.3,2.5C9.5,3.7,9.8,5.3,11,6.1l7.5,4.9c0.4,0.3,1,0.2,1.3-0.3c0.3-0.4,0.2-1-0.3-1.3l-5.2-3.4L15,4.8l5.2,3.4
					c1.1,0.7,1.4,2.1,0.7,3.2c-0.7,1.1-2.1,1.4-3.2,0.7l-7.5-4.9C8.5,6,8,3.6,9.1,1.8s3.6-2.3,5.4-1.1l8.1,5.3
					c2.6,1.7,3.3,5.1,1.6,7.6S19.2,16.8,16.6,15.2z"/>
			</g>
		</g>
		<path fill="#F3705A" d="M41.1,48H6.9c-1.7,0-3-1.3-3-3V5.2c0-1.7,1.3-3,3-3h34.2c1.7,0,3,1.3,3,3V45C44.1,46.7,42.7,48,41.1,48z"
			/>
		<g>
			<polygon fill="#FFFFFF" points="8.2,5.4 8.2,44.8 31.4,44.8 39.8,36.4 39.8,5.4 			"/>
			<g>
				<polygon fill="#CED6E0" points="31.4,44.8 39.8,36.4 31.4,36.4 				"/>
			</g>
		</g>
		<g>
			<g>
				<path fill="#415A6B" d="M17.8,12.1l-7.5-4.9C8.5,6,8,3.6,9.1,1.8s3.6-2.3,5.4-1.1l-0.7,1.1C12.6,1,11,1.3,10.3,2.5
					C9.5,3.7,9.8,5.3,11,6.1l7.5,4.9c0.4,0.3,1,0.2,1.3-0.3c0.3-0.4,0.2-1-0.3-1.3l-5.2-3.4c-0.8-0.5-0.1-1.7,0.7-1.1l5.2,3.4
					c1.1,0.7,1.4,2.1,0.7,3.2C20.3,12.4,18.8,12.7,17.8,12.1z"/>
			</g>
		</g>
		<g>
			<g>
				<g>
					<g>
						<g>
							<rect x="22.9" y="15.3" fill="#E8EAE9" width="13.7" height="2.1"/>
						</g>
					</g>
					<g>
						<g>
							<rect x="22.9" y="20.2" fill="#E8EAE9" width="10.1" height="2.1"/>
						</g>
					</g>
				</g>
				<g>
					<g>
						<path fill="#CED6E0" d="M17.7,22.7H13c-0.9,0-1.6-0.7-1.6-1.6v-4.7c0-0.9,0.7-1.6,1.6-1.6h4.7c0.9,0,1.6,0.7,1.6,1.6v4.7
							C19.3,22,18.5,22.7,17.7,22.7z M13,15.9c-0.3,0-0.5,0.2-0.5,0.5v4.7c0,0.3,0.2,0.5,0.5,0.5h4.7c0.3,0,0.5-0.2,0.5-0.5v-4.7
							c0-0.3-0.2-0.5-0.5-0.5H13z"/>
					</g>
				</g>
			</g>
			<g>
				<g>
					<polygon fill="#66C6B9" points="16,21 13.3,18.3 14.1,17.6 16,19.5 20.4,15.2 21.2,15.9 					"/>
				</g>
			</g>
		</g>
		<g>
			<g>
				<g>
					<g>
						<g>
							<rect x="22.9" y="27.7" fill="#E8EAE9" width="13.7" height="2.1"/>
						</g>
					</g>
					<g>
						<g>
							<rect x="22.9" y="32.6" fill="#E8EAE9" width="10.1" height="2.1"/>
						</g>
					</g>
				</g>
				<g>
					<g>
						<path fill="#CED6E0" d="M17.7,35.1H13c-0.9,0-1.6-0.7-1.6-1.6v-4.7c0-0.9,0.7-1.6,1.6-1.6h4.7c0.9,0,1.6,0.7,1.6,1.6v4.7
							C19.3,34.4,18.5,35.1,17.7,35.1z M13,28.3c-0.3,0-0.5,0.2-0.5,0.5v4.7c0,0.3,0.2,0.5,0.5,0.5h4.7c0.3,0,0.5-0.2,0.5-0.5v-4.7
							c0-0.3-0.2-0.5-0.5-0.5H13z"/>
					</g>
				</g>
			</g>
			<g>
				<g>
					<polygon fill="#66C6B9" points="16,33.5 13.3,30.8 14.1,30 16,32 20.4,27.6 21.2,28.4 					"/>
				</g>
			</g>
		</g>
	</g>
</g>
</svg>
