<?xml version="1.0" encoding="utf-8"?>
<!-- Generator: Adobe Illustrator 18.0.0, SVG Export Plug-In . SVG Version: 6.00 Build 0)  -->
<!DOCTYPE svg PUBLIC "-//W3C//DTD SVG 1.1//EN" "http://www.w3.org/Graphics/SVG/1.1/DTD/svg11.dtd">
<svg version="1.1" id="Layer_1" xmlns="http://www.w3.org/2000/svg" xmlns:xlink="http://www.w3.org/1999/xlink" x="0px" y="0px"
	 viewBox="0 0 48 48" enable-background="new 0 0 48 48" xml:space="preserve">
<g>
	<g>
		<g>
			<g>
				<g>
					<g>
						<path fill="#E8EAE9" d="M24,35.7c-8.4,0-16-5-19.3-12.8C2.4,17.5,3.5,11.5,7.5,7.6c4.8-4.7,10.8-4.8,14.7-4.8
							c0.6,0,1.2,0,1.7,0l0,0l0,0c0.5,0,1.1,0,1.7,0c4.3,0,10.8,0.1,15.7,5.8c3.1,3.5,4,8.5,2.4,13C40.8,30,32.9,35.7,24,35.7z
							 M24,4.1c-0.5,0-1.1,0-1.7,0c-4,0-9.4,0.1-13.8,4.4c-3.6,3.5-4.6,8.9-2.6,13.8c3.1,7.3,10.2,12,18,12
							c8.3,0,15.8-5.3,18.5-13.2c1.4-4,0.6-8.5-2.2-11.7c-4.5-5.2-10.3-5.3-14.6-5.3C25.1,4.2,24.5,4.2,24,4.1z"/>
					</g>
				</g>
			</g>
			<g>
				<g>
					<g>
						<path fill="#E8EAE9" d="M24,48c-2.8,0-5.1-2.3-5.1-5.1c0-1.4,2.8-8.7,5.1-8.7c2.5,0,5.1,7,5.1,8.7C29,45.7,26.8,48,24,48z"/>
					</g>
					<g>
						<path fill="#415A6B" d="M24,45.6c-1.3,0-2.3-1-2.3-2.3c0-0.9,1.3-4.2,2.3-4.2c1.1,0,2.3,3.1,2.3,4.2
							C26.3,44.6,25.2,45.6,24,45.6z"/>
					</g>
					<g>
						<path fill="#FFD15C" d="M25.8,43.3c0,1-0.8,1.8-1.8,1.8c-1,0-1.8-0.8-1.8-1.8c0-1,1.3-3.7,1.8-3.7
							C24.6,39.6,25.8,42.3,25.8,43.3z"/>
					</g>
					<g>
						
							<ellipse transform="matrix(0.8171 0.5766 -0.5766 0.8171 29.7984 -6.2308)" fill="#FFFFFF" cx="24.7" cy="43.8" rx="0.3" ry="0.6"/>
					</g>
				</g>
				<g>
					<g>
						<circle fill="#E8EAE9" cx="24" cy="34.9" r="4"/>
					</g>
					<g>
						<circle fill="#415A6B" cx="24" cy="34.9" r="3.2"/>
					</g>
					<g>
						<circle fill="#F3705A" cx="24" cy="34.9" r="2.5"/>
					</g>
					<g>
						
							<ellipse transform="matrix(0.8234 -0.5675 0.5675 0.8234 -14.8752 20.2981)" fill="#FFFFFF" cx="25.2" cy="34" rx="0.4" ry="0.8"/>
					</g>
				</g>
				<g>
					<g>
						<circle fill="#E8EAE9" cx="31.1" cy="33.6" r="3"/>
					</g>
					<g>
						<circle fill="#415A6B" cx="31.1" cy="33.6" r="2.4"/>
					</g>
					<g>
						<circle fill="#FFD15C" cx="31.1" cy="33.6" r="1.9"/>
					</g>
					<g>
						
							<ellipse transform="matrix(0.568 -0.823 0.823 0.568 -13.1817 40.2478)" fill="#FFFFFF" cx="31.7" cy="32.7" rx="0.3" ry="0.6"/>
					</g>
				</g>
				<g>
					<g>
						<circle fill="#E8EAE9" cx="36.7" cy="30.4" r="3"/>
					</g>
					<g>
						<circle fill="#415A6B" cx="36.7" cy="30.4" r="2.4"/>
					</g>
					<g>
						<circle fill="#FFD15C" cx="36.7" cy="30.4" r="1.9"/>
					</g>
					<g>
						
							<ellipse transform="matrix(0.2806 -0.9598 0.9598 0.2806 -1.521 56.6136)" fill="#FFFFFF" cx="37" cy="29.3" rx="0.3" ry="0.6"/>
					</g>
				</g>
				<g>
					<g>
						<circle fill="#E8EAE9" cx="41" cy="25.6" r="3"/>
					</g>
					<g>
						<circle fill="#415A6B" cx="41" cy="25.6" r="2.4"/>
					</g>
					<g>
						<circle fill="#FFD15C" cx="41" cy="25.6" r="1.9"/>
					</g>
					<g>
						
							<ellipse transform="matrix(-3.522482e-002 -0.9994 0.9994 -3.522482e-002 17.9198 66.2594)" fill="#FFFFFF" cx="40.9" cy="24.5" rx="0.3" ry="0.6"/>
					</g>
				</g>
				<g>
					<g>
						<g>
							<circle fill="#E8EAE9" cx="16.8" cy="33.6" r="3"/>
						</g>
						<g>
							<circle fill="#415A6B" cx="16.8" cy="33.6" r="2.4"/>
						</g>
						<g>
							<circle fill="#FFD15C" cx="16.8" cy="33.6" r="1.9"/>
						</g>
						<g>
							
								<ellipse transform="matrix(-0.568 -0.823 0.823 -0.568 -1.5485 64.5491)" fill="#FFFFFF" cx="16.2" cy="32.7" rx="0.3" ry="0.6"/>
						</g>
					</g>
					<g>
						<g>
							<circle fill="#E8EAE9" cx="11.2" cy="30.4" r="3"/>
						</g>
						<g>
							<circle fill="#415A6B" cx="11.2" cy="30.4" r="2.4"/>
						</g>
						<g>
							<circle fill="#FFD15C" cx="11.2" cy="30.4" r="1.9"/>
						</g>
						<g>
							
								<ellipse transform="matrix(-0.2806 -0.9598 0.9598 -0.2806 -14.1739 48.0196)" fill="#FFFFFF" cx="10.9" cy="29.3" rx="0.3" ry="0.6"/>
						</g>
					</g>
					<g>
						<g>
							<circle fill="#E8EAE9" cx="6.9" cy="25.6" r="3"/>
						</g>
						<g>
							<circle fill="#415A6B" cx="6.9" cy="25.6" r="2.4"/>
						</g>
						<g>
							<circle fill="#FFD15C" cx="6.9" cy="25.6" r="1.9"/>
						</g>
						<g>
							
								<ellipse transform="matrix(3.522474e-002 -0.9994 0.9994 3.522474e-002 -17.7375 30.5864)" fill="#FFFFFF" cx="7" cy="24.5" rx="0.3" ry="0.6"/>
						</g>
					</g>
				</g>
			</g>
		</g>
		<g>
			<g>
				<path fill="#E8EAE9" d="M24,10.7c-1.7,0-3-1.4-3-3c0-1.5,2.1-4.1,2.5-4.7c0.3-0.3,0.8-0.3,1.1,0C24.9,3.5,27,6.2,27,7.7
					C27,9.3,25.6,10.7,24,10.7z M24,4.6c-0.8,1.1-1.6,2.5-1.6,3.1c0,0.9,0.7,1.7,1.6,1.7c0.9,0,1.7-0.7,1.7-1.7
					C25.6,7.1,24.8,5.7,24,4.6z"/>
			</g>
		</g>
		<g>
			<g>
				<path fill="#E8EAE9" d="M24,4.1c-0.2,0-0.4-0.1-0.6-0.3c0,0-1.3-1.8-3.5-2c-0.4,0-0.7-0.4-0.6-0.7c0-0.4,0.3-0.7,0.7-0.6
					c1.9,0.1,3.2,1.1,4,1.9c0.8-1,2.7-2.4,6.4-2.3c0.4,0,0.7,0.3,0.7,0.7c0,0.4-0.3,0.7-0.7,0.7c-4.4-0.1-5.6,2.2-5.6,2.3
					C24.5,4,24.3,4.1,24,4.1C24,4.1,24,4.1,24,4.1z"/>
			</g>
		</g>
	</g>
</g>
</svg>
