<?xml version="1.0" encoding="utf-8"?>
<!-- Generator: Adobe Illustrator 18.0.0, SVG Export Plug-In . SVG Version: 6.00 Build 0)  -->
<!DOCTYPE svg PUBLIC "-//W3C//DTD SVG 1.1//EN" "http://www.w3.org/Graphics/SVG/1.1/DTD/svg11.dtd">
<svg version="1.1" id="Layer_1" xmlns="http://www.w3.org/2000/svg" xmlns:xlink="http://www.w3.org/1999/xlink" x="0px" y="0px"
	 viewBox="0 0 48 48" enable-background="new 0 0 48 48" xml:space="preserve">
<g>
	<g>
		<g>
			<path fill="#F3705A" d="M32.8,19.4C36,16.8,48,17.3,48,17.3c0.4-6.2-5.3-2.8-5.4-4.8c-0.3-4.1-3-6.4-7.2-6.8
				c-1.9-0.2,1.3-5.8-4.6-5.6c0,0,0.5,12-2.1,15.2C30,16.6,31.4,18,32.8,19.4z"/>
		</g>
		<g>
			<path fill="#F3705A" d="M15.2,28.6C12,31.2,0,30.7,0,30.7c-0.4,6.2,5.3,2.8,5.4,4.8c0.3,4.1,3,6.4,7.2,6.8
				c1.9,0.2-1.3,5.8,4.6,5.6c0,0-0.5-12,2.1-15.2C18,31.4,16.6,30,15.2,28.6z"/>
		</g>
		<path fill="#F3705A" d="M34.4,13.6c4.6,4.6,3.7,13-2.1,18.7S18.2,39,13.6,34.4s-3.7-13,2.1-18.7S29.8,9,34.4,13.6z"/>
		<g>
			<path fill="#E8EAE9" d="M30.1,33.8c-0.9,0-1.6-0.7-1.6-1.6c0-1.3-1.1-2.4-2.4-2.4c-0.9,0-1.6-0.7-1.6-1.6c0-1.3-1.1-2.4-2.4-2.4
				c-0.9,0-1.6-0.7-1.6-1.6c0-1.3-1.1-2.4-2.4-2.4c-0.9,0-1.6-0.7-1.6-1.6c0-1.3-1.1-2.4-2.4-2.4c-0.2,0-0.4,0-0.5-0.1
				c-0.2,0.2-0.3,0.5-0.5,0.7c0.3,0.1,0.6,0.2,1,0.2c0.9,0,1.6,0.7,1.6,1.6c0,1.3,1.1,2.4,2.4,2.4c0.9,0,1.6,0.7,1.6,1.6
				c0,1.3,1.1,2.4,2.4,2.4c0.9,0,1.6,0.7,1.6,1.6c0,1.3,1.1,2.4,2.4,2.4c0.9,0,1.6,0.7,1.6,1.6c0,1.1,0.8,2.1,1.8,2.3
				c0.3-0.2,0.7-0.5,1-0.7C30.4,33.8,30.2,33.8,30.1,33.8z"/>
			<path fill="#E8EAE9" d="M24.7,10.9c-0.3,0.1-0.6,0.1-0.9,0.2c0.2,0.3,0.4,0.6,0.4,1c0,1.3,1.1,2.4,2.4,2.4c0.9,0,1.6,0.7,1.6,1.6
				c0,1.3,1.1,2.4,2.4,2.4c0.9,0,1.6,0.7,1.6,1.6c0,1.3,1.1,2.4,2.4,2.4c0.9,0,1.6,0.7,1.6,1.6c0,0.6,0.2,1.1,0.6,1.5
				c0.1-0.4,0.2-0.8,0.3-1.1c0-0.1-0.1-0.2-0.1-0.4c0-1.3-1.1-2.4-2.4-2.4c-0.9,0-1.6-0.7-1.6-1.6c0-1.3-1.1-2.4-2.4-2.4
				c-0.9,0-1.6-0.7-1.6-1.6c0-1.3-1.1-2.4-2.4-2.4c-0.9,0-1.6-0.7-1.6-1.6C25,11.6,24.9,11.2,24.7,10.9z"/>
			<path fill="#E8EAE9" d="M18.5,14.7c0.9,0,1.6,0.7,1.6,1.6c0,1.3,1.1,2.4,2.4,2.4c0.9,0,1.6,0.7,1.6,1.6c0,1.3,1.1,2.4,2.4,2.4
				c0.9,0,1.6,0.7,1.6,1.6c0,1.3,1.1,2.4,2.4,2.4c0.9,0,1.6,0.7,1.6,1.6c0,1.2,0.9,2.2,2.1,2.4c0.2-0.3,0.4-0.5,0.6-0.8
				c-0.1,0-0.2,0-0.3,0c-0.9,0-1.6-0.7-1.6-1.6c0-1.3-1.1-2.4-2.4-2.4c-0.9,0-1.6-0.7-1.6-1.6c0-1.3-1.1-2.4-2.4-2.4
				c-0.9,0-1.6-0.7-1.6-1.6c0-1.3-1.1-2.4-2.4-2.4c-0.9,0-1.6-0.7-1.6-1.6c0-1.3-1.1-2.4-2.4-2.4c-0.2,0-0.4,0-0.5-0.1
				c-0.2,0.2-0.5,0.4-0.7,0.6C17.6,14.6,18,14.7,18.5,14.7z"/>
			<path fill="#E8EAE9" d="M23.6,37.1c0.3-0.1,0.5-0.1,0.8-0.2c0-0.1-0.1-0.3-0.1-0.4c0-1.3-1.1-2.4-2.4-2.4c-0.9,0-1.6-0.7-1.6-1.6
				c0-1.3-1.1-2.4-2.4-2.4c-0.9,0-1.6-0.7-1.6-1.6c0-1.3-1.1-2.4-2.4-2.4c-0.9,0-1.6-0.7-1.6-1.6c0-0.8-0.4-1.6-1.1-2
				c-0.1,0.3-0.2,0.6-0.2,0.9c0.3,0.3,0.5,0.7,0.5,1.1c0,1.3,1.1,2.4,2.4,2.4c0.9,0,1.6,0.7,1.6,1.6c0,1.3,1.1,2.4,2.4,2.4
				c0.9,0,1.6,0.7,1.6,1.6c0,1.3,1.1,2.4,2.4,2.4c0.9,0,1.6,0.7,1.6,1.6C23.5,36.7,23.5,36.9,23.6,37.1z"/>
		</g>
	</g>
</g>
</svg>
