<?xml version="1.0" encoding="utf-8"?>
<!-- Generator: Adobe Illustrator 19.0.1, SVG Export Plug-In . SVG Version: 6.00 Build 0)  -->
<svg version="1.1" id="Layer_1" xmlns="http://www.w3.org/2000/svg" xmlns:xlink="http://www.w3.org/1999/xlink" x="0px" y="0px"
	 viewBox="0 0 48 48" style="enable-background:new 0 0 48 48;" xml:space="preserve">
<style type="text/css">
	.st0{fill:#415A6B;}
	.st1{fill:#ADB3BA;}
	.st2{fill:#E8EAE9;}
	.st3{fill:#55C0EB;}
	.st4{fill:#F3705A;}
	.st5{fill:#FFFFFF;}
	.st6{fill:#FFD15C;}
	.st7{fill:#344A5E;}
	.st8{fill:#CED6E0;}
	.st9{fill:#F05540;}
	.st10{fill:#F7B64C;}
	.st11{fill:#F3F3F3;}
	.st12{fill:#66C6B9;}
	.st13{fill:#4ABAA5;}
	.st14{fill:#8AD7F8;}
	.st15{fill:none;}
	.st16{fill:#E53D35;}
</style>
<g>
	<g>
		<g>
			<g>
				<path class="st7" d="M43.9,48c-0.4-1.7-1.4-3.4-1.9-4.7c-0.7-1.7-2.5-6.7-2.5-8.1c-0.1-1.4-1.6-4.3-1.6-4.3l-7.5,9l3.3,8H43.9z"
					/>
			</g>
			<g>
				<g>
					<path class="st6" d="M28.3,12.2c-0.3,1.4-0.9,2.4-1.3,2.2c-0.4-0.1-0.5-1.3-0.2-2.7c0.3-1.4,0.9-2.4,1.3-2.2
						C28.6,9.6,28.7,10.8,28.3,12.2z"/>
				</g>
				<g>
					<path class="st6" d="M14.5,13.8c-0.5,0.1-1.1-0.9-1.4-2.3c-0.3-1.4-0.1-2.6,0.4-2.7c0.5-0.1,1.4,0.8,1.6,2.2
						C15.5,12.4,15,13.7,14.5,13.8z"/>
				</g>
			</g>
			<g>
				<path class="st6" d="M27.5,10.6c0,0-1.1,6.3-2.1,8.1c0,0-0.6,2.8-0.4,5.1c0.3,2.3,0.3,2.3,0.3,2.3l-6,1.6l-4.2-5.5
					c0,0,0.2-3.6,0-4.6c0,0-0.8-3.1-0.7-5.6s1.6-7.7,1.6-7.7S17.7,2,17.8,2S23,1.8,23,1.8l4.1,1.4C27.1,3.2,27.7,8,27.5,10.6z"/>
				<path class="st10" d="M25.1,23.8c-0.2-2,0.2-4.4,0.3-5c-1.3,1.1-2.6,1.9-3.8,1.8c-4.3-0.1-6.5-3.2-6.5-3.2
					c1.6,3.9,6.6,6.1,10.1,7.1C25.1,24.3,25.1,24.1,25.1,23.8z"/>
				<g>
					<path class="st0" d="M9.6,38.4c0,0-1.3-0.2-3.2,5.7C6,45.2,5.8,46.5,5.6,48h29c-0.4-2.7-0.7-5-0.7-6.2C34,38.3,37.9,31,37.9,31
						c0-1-2.5-3.1-5.2-4.3c-2.7-1.2-7.3-3.7-7.3-3.7l-1.3,2.1l-2.3,0.1h-0.6L16,26.2l-2.6-3.7c0,0-5.4,1.9-8.2,3.1
						c-2.7,1.3-4.2,4.1-4.2,4.1C6.9,27.3,9.6,38.4,9.6,38.4z"/>
				</g>
				<g>
					<path class="st2" d="M21.9,48H28c-0.1-3-0.4-6.8-1.1-8.6c-1.2-3.2-3.1-6.8-3.6-7.6c-0.4-0.9-0.5-2.9-0.5-2.9l-0.5-0.9
						c0,0-1.5,0.5-1.5,1.3c0,0-0.1,3.3,0,6.9C20.9,39.1,21.5,44.9,21.9,48z"/>
				</g>
				<g>
					<path class="st2" d="M19.6,26.3c0,0,1.2,2,1.2,3.1c0,0,1.6-0.6,2-0.4c0,0,0.6-1.9,0.7-2.4c0.1-0.5,0,0,0,0l-1.8-1.1h-0.6
						L19.6,26.3z"/>
				</g>
			</g>
			<g>
				<path class="st0" d="M14.7,11.4l0.4,0c0,0,0-3.1,0.7-3.6c0.7-0.5,0.9-1.8,1-2.4c0.1-0.6,0.3-1.4,1.8-1.4c1.5,0,5.8,0.4,6.9,0.2
					C26.5,3.8,27,4.6,27,5.4s-0.1,2.3,0.3,3s-0.1,3.6-0.1,3.6h0.3c0,0,0.2-2.1,0.8-2.4c0,0,0.3-3.3-0.3-5.3S25.1,1,24.2,0.4
					c-0.9-0.6-5.3-0.8-7,0.5s-2.4,2.7-2.6,3.5c-0.2,0.8-0.7,4.4-0.7,4.4S15,9.4,14.7,11.4z"/>
			</g>
			<g>
				<g>
					<path class="st7" d="M25,21.2c0,0-0.3,1.3-0.8,2s-2.5,2.1-2.5,2.1s1.4,0.8,3.6,5.3c0,0,0.5-2.8,0.4-3.8c0-1-0.2-2.2-0.3-3.1
						C25.4,22.8,25.4,21.8,25,21.2"/>
				</g>
				<g>
					<path class="st7" d="M15.1,19.6c0,0-0.1,1.2,1.6,2.5c1.7,1.4,4.4,3.2,4.4,3.2L16.6,30c0,0-1.1-2.2-1.6-2.9
						c-0.5-0.7-2-2.5-1.9-4.2c0,0,0.5-1.1,0.8-1.6S14.6,19.9,15.1,19.6"/>
				</g>
			</g>
			<g>
				<path class="st7" d="M10.9,48c-0.2-2.4-1.8-4.2-1.3-9.6c0,0-2.7-11-8.6-8.7c0,0-0.8,2.6-0.8,4.4c0,1.8,0,4.8-0.2,6.6
					c-0.2,1.4,0,4.6,0.6,7.3H10.9z"/>
			</g>
		</g>
		<g>
			<g>
				<path class="st2" d="M48,26.1V46c0,1.1-0.9,2-2,2H31.8c-1.1,0-2-0.9-2-2V26.1c0-1.1,0.9-2,2-2H46C47.1,24.1,48,25,48,26.1z"/>
			</g>
			<g>
				<g>
					<path class="st12" d="M45.9,40l-0.8-0.8l-4.2,4.2c-0.3,0.3-0.8,0.3-1.2,0l-2.1-2.1l-4.4,4.4c-0.3,0.3-0.7,0.3-0.9,0v0
						c-0.3-0.3-0.3-0.7,0-0.9l4.7-4.7c0.3-0.3,0.8-0.3,1.2,0l2.1,2.1l3.8-3.8l-0.8-0.8l2.8-0.3L45.9,40z"/>
				</g>
			</g>
			<g>
				<g>
					<path class="st12" d="M38.9,30.1l-2.4-2.4c0.7-0.4,1.5-0.7,2.4-0.7V30.1z"/>
				</g>
				<g>
					<path class="st4" d="M43.7,31.8c0,2.6-2.1,4.8-4.8,4.8c-2.6,0-4.8-2.1-4.8-4.8c0-1.3,0.5-2.5,1.4-3.4l3.4,3.4H43.7z"/>
				</g>
				<g>
					<path class="st6" d="M39.8,26.1v4.8h4.8C44.6,28.3,42.5,26.1,39.8,26.1z"/>
				</g>
			</g>
		</g>
	</g>
</g>
</svg>
