<?xml version="1.0" encoding="utf-8"?>
<!-- Generator: Adobe Illustrator 18.0.0, SVG Export Plug-In . SVG Version: 6.00 Build 0)  -->
<!DOCTYPE svg PUBLIC "-//W3C//DTD SVG 1.1//EN" "http://www.w3.org/Graphics/SVG/1.1/DTD/svg11.dtd">
<svg version="1.1" id="Layer_1" xmlns="http://www.w3.org/2000/svg" xmlns:xlink="http://www.w3.org/1999/xlink" x="0px" y="0px"
	 viewBox="0 0 48 48" enable-background="new 0 0 48 48" xml:space="preserve">
<g>
	<g>
		<polygon fill="#40596B" points="43.9,35.6 43.9,35.6 45.8,35 44.7,33.4 46.5,32.8 45.4,31.2 47.3,30.6 46.2,29 48,28.4 46.9,26.8 
			46.9,26.8 4.1,12.4 4.1,12.4 2.2,13 3.3,14.6 1.5,15.2 2.6,16.8 0.7,17.4 1.8,19 0,19.6 1.1,21.2 1.1,21.2 		"/>
		<g>
			<polygon fill="#FFD15C" points="6,22.9 1.7,21.4 11.7,14.9 16,16.4 			"/>
			<polygon fill="#FFD15C" points="16.1,26.3 11.8,24.8 21.8,18.3 26,19.8 			"/>
			<polygon fill="#FFD15C" points="26.2,29.6 21.9,28.2 31.8,21.7 36.1,23.1 			"/>
			<polygon fill="#FFD15C" points="36.2,33 31.9,31.6 41.9,25.1 46.2,26.5 			"/>
		</g>
	</g>
	<g>
		<polygon fill="#40596B" points="4.1,35.6 4.1,35.6 2.2,35 3.3,33.4 1.5,32.8 2.6,31.2 0.7,30.6 1.8,29 0,28.4 1.1,26.8 1.1,26.8 
			43.9,12.4 43.9,12.4 45.8,13 44.7,14.6 46.5,15.2 45.4,16.8 47.3,17.4 46.2,19 48,19.6 46.9,21.2 46.9,21.2 		"/>
		<g>
			<polygon fill="#FFD15C" points="42,22.9 46.3,21.4 36.3,14.9 32,16.4 			"/>
			<polygon fill="#FFD15C" points="31.9,26.3 36.2,24.8 26.2,18.3 22,19.8 			"/>
			<polygon fill="#FFD15C" points="21.8,29.6 26.1,28.2 16.2,21.7 11.9,23.1 			"/>
			<polygon fill="#FFD15C" points="11.8,33 16.1,31.6 6.1,25.1 1.8,26.5 			"/>
		</g>
	</g>
</g>
</svg>
