<?xml version="1.0" encoding="utf-8"?>
<!-- Generator: Adobe Illustrator 18.0.0, SVG Export Plug-In . SVG Version: 6.00 Build 0)  -->
<!DOCTYPE svg PUBLIC "-//W3C//DTD SVG 1.1//EN" "http://www.w3.org/Graphics/SVG/1.1/DTD/svg11.dtd">
<svg version="1.1" id="Layer_1" xmlns="http://www.w3.org/2000/svg" xmlns:xlink="http://www.w3.org/1999/xlink" x="0px" y="0px"
	 viewBox="0 0 48 48" enable-background="new 0 0 48 48" xml:space="preserve">
<g>
	<path fill="#40596B" d="M44.1,18.5c-0.5-1.7-1.1-3.3-2-4.7l1.7-3.8l-5.7-5.7l-3.8,1.7c-1.5-0.8-3.1-1.5-4.7-2L28,0h-8l-1.5,3.9
		c-1.7,0.5-3.3,1.1-4.7,2L9.9,4.2L4.2,9.9l1.7,3.8c-0.8,1.5-1.5,3.1-2,4.7L0,20v8l3.9,1.5c0.5,1.7,1.1,3.3,2,4.7l-1.7,3.8l5.7,5.7
		l3.8-1.7c1.5,0.8,3.1,1.5,4.7,2L20,48h8l1.5-3.9c1.7-0.5,3.3-1.1,4.7-2l3.8,1.7l5.7-5.7l-1.7-3.8c0.8-1.5,1.5-3.1,2-4.7L48,28v-8
		L44.1,18.5z"/>
	<circle fill="#334A5E" cx="24" cy="24" r="15.4"/>
	<path fill="#F2F2F2" d="M37.1,24c0,7.2-5.9,13-13.1,13c-7.2,0-13.1-5.9-13.1-13c0-0.1,0-0.3,0-0.4v0c0.2-7,6-12.6,13.1-12.6
		c7.1,0,12.9,5.6,13.1,12.6v0C37.1,23.7,37.1,23.9,37.1,24z"/>
	<rect x="23.8" y="11.6" fill="#CDD6E0" width="0.4" height="1.6"/>
	<path fill="#FF7058" d="M24.5,24h-0.9v-3.4c0-2.1,0.2-4.1,0.5-6.2l0,0l0,0c0.3,2,0.5,4.1,0.5,6.2V24z"/>
	<path fill="#FF7058" d="M24.8,23.5v0.9h-2.1c-2.1,0-4.1-0.2-6.2-0.5l0,0l0,0c2-0.3,4.1-0.5,6.2-0.5H24.8z"/>
	<rect x="23.8" y="34.8" fill="#CDD6E0" width="0.4" height="1.6"/>
	<g>
		
			<rect x="18" y="13.2" transform="matrix(0.8661 -0.4998 0.4998 0.8661 -4.5468 10.9735)" fill="#CDD6E0" width="0.4" height="1.6"/>
		
			<rect x="29.6" y="33.2" transform="matrix(0.8661 -0.4999 0.4999 0.8661 -13.0207 19.4494)" fill="#CDD6E0" width="0.4" height="1.6"/>
	</g>
	<g>
		
			<rect x="13.8" y="17.4" transform="matrix(0.5001 -0.8659 0.8659 0.5001 -8.7851 21.2047)" fill="#CDD6E0" width="0.4" height="1.6"/>
		
			<rect x="33.8" y="29" transform="matrix(0.4999 -0.8661 0.8661 0.4999 -8.7835 44.3639)" fill="#CDD6E0" width="0.4" height="1.6"/>
	</g>
	<g>
		<rect x="11.6" y="23.8" fill="#CDD6E0" width="1.6" height="0.4"/>
		<rect x="34.8" y="23.8" fill="#CDD6E0" width="1.6" height="0.4"/>
	</g>
	<g>
		
			<rect x="13.8" y="29" transform="matrix(-0.5001 -0.8659 0.8659 -0.5001 -4.831 56.7874)" fill="#CDD6E0" width="0.4" height="1.6"/>
		
			<rect x="33.8" y="17.4" transform="matrix(-0.4999 -0.8661 0.8661 -0.4999 35.2632 56.7846)" fill="#CDD6E0" width="0.4" height="1.6"/>
	</g>
	<g>
		
			<rect x="18" y="33.2" transform="matrix(-0.8661 -0.4998 0.4998 -0.8661 16.979 72.5982)" fill="#CDD6E0" width="0.4" height="1.6"/>
		
			<rect x="29.6" y="13.2" transform="matrix(-0.8661 -0.4999 0.4999 -0.8661 48.6 40.9698)" fill="#CDD6E0" width="0.4" height="1.6"/>
	</g>
	<ellipse fill="#FFD15C" cx="24" cy="24" rx="1.7" ry="1.7"/>
	<circle fill="#F2F2F2" cx="24" cy="24" r="1"/>
</g>
</svg>
