<?xml version="1.0" encoding="utf-8"?>
<!-- Generator: Adobe Illustrator 16.0.0, SVG Export Plug-In . SVG Version: 6.00 Build 0)  -->
<!DOCTYPE svg PUBLIC "-//W3C//DTD SVG 1.1//EN" "http://www.w3.org/Graphics/SVG/1.1/DTD/svg11.dtd">
<svg version="1.1" id="Layer_1" xmlns="http://www.w3.org/2000/svg" xmlns:xlink="http://www.w3.org/1999/xlink" x="0px" y="0px"
	 width="48px" height="48px" viewBox="0 0 48 48" enable-background="new 0 0 48 48" xml:space="preserve">
<g>
	<path fill="#40596B" d="M26.518,38.734c-0.752-0.477-1.219-1.412-1.219-2.439v-2.768h-2.6l0.001,2.768
		c0,1.91,0.929,3.684,2.425,4.635c0.768,0.486,1.131,1.387,0.924,2.295c-0.172,0.748-0.789,1.363-1.537,1.535
		c-0.664,0.152-1.311,0.01-1.823-0.398c-0.507-0.404-0.796-1.006-0.796-1.65c0-0.719-0.582-1.301-1.299-1.301
		c-0.719,0-1.301,0.582-1.301,1.301c0,1.439,0.647,2.781,1.774,3.682c0.842,0.67,1.872,1.023,2.937,1.023
		c0.36,0,0.725-0.039,1.088-0.123c1.727-0.395,3.097-1.766,3.489-3.49C29.037,41.809,28.227,39.818,26.518,38.734"/>
	<rect x="29.87" y="0.584" fill="#40596B" width="2.599" height="7.385"/>
	<rect x="15.53" y="0.584" fill="#40596B" width="2.599" height="7.385"/>
	<path fill="#FFD15C" d="M8.352,24.555v0.404c0,1.438,1.166,2.604,2.604,2.604h26.09c1.438,0,2.604-1.166,2.604-2.604v-0.404H8.352z
		"/>
	<path fill="#F8B64C" d="M12.488,27.563l8.166,6.309c1.963,1.535,4.725,1.535,6.699,0l8.155-6.309H12.488z"/>
	<path fill="#F2F2F2" d="M40.859,6.848H7.141c-1.105,0-2,0.896-2,2v13.99c0,1.105,0.895,2,2,2h33.719c1.105,0,2-0.895,2-2V8.848
		C42.859,7.744,41.965,6.848,40.859,6.848"/>
	<rect x="8.605" y="10.313" fill="#84DBFF" width="30.789" height="11.061"/>
	<path fill="#FFFFFF" d="M13.442,18.809c-0.793,0-1.386-0.27-1.78-0.809c-0.394-0.537-0.59-1.258-0.59-2.156
		c0-0.9,0.196-1.619,0.59-2.158c0.395-0.539,0.987-0.807,1.78-0.807s1.386,0.268,1.78,0.807c0.393,0.539,0.59,1.258,0.59,2.158
		c0,0.898-0.197,1.619-0.59,2.156C14.828,18.539,14.235,18.809,13.442,18.809 M12.598,14.461c-0.18,0.35-0.271,0.813-0.271,1.387
		s0.092,1.037,0.271,1.387c0.182,0.35,0.462,0.523,0.845,0.523c0.384,0,0.664-0.174,0.845-0.523s0.271-0.813,0.271-1.387
		s-0.09-1.037-0.271-1.387s-0.461-0.525-0.845-0.525C13.06,13.936,12.779,14.111,12.598,14.461"/>
	<path fill="#FFFFFF" d="M19.102,18.809c-0.793,0-1.386-0.27-1.779-0.809c-0.395-0.537-0.592-1.258-0.592-2.156
		c0-0.9,0.197-1.619,0.592-2.158c0.394-0.539,0.986-0.807,1.779-0.807s1.387,0.268,1.78,0.807s0.591,1.258,0.591,2.158
		c0,0.898-0.197,1.619-0.591,2.156C20.488,18.539,19.895,18.809,19.102,18.809 M18.257,14.461c-0.18,0.35-0.271,0.813-0.271,1.387
		s0.091,1.037,0.271,1.387c0.181,0.35,0.462,0.523,0.845,0.523s0.664-0.174,0.846-0.523c0.18-0.35,0.27-0.813,0.27-1.387
		s-0.09-1.037-0.27-1.387c-0.182-0.35-0.463-0.525-0.846-0.525S18.438,14.111,18.257,14.461"/>
	<path fill="#FFFFFF" d="M28.898,18.809c-0.793,0-1.387-0.27-1.781-0.809c-0.394-0.537-0.59-1.258-0.59-2.156
		c0-0.9,0.196-1.619,0.59-2.158c0.395-0.539,0.988-0.807,1.781-0.807s1.385,0.268,1.779,0.807c0.393,0.539,0.59,1.258,0.59,2.158
		c0,0.898-0.197,1.619-0.59,2.156C30.283,18.539,29.691,18.809,28.898,18.809 M28.053,14.461c-0.18,0.35-0.271,0.813-0.271,1.387
		s0.092,1.037,0.271,1.387c0.182,0.35,0.462,0.523,0.846,0.523c0.383,0,0.664-0.174,0.844-0.523c0.181-0.35,0.271-0.813,0.271-1.387
		s-0.09-1.037-0.271-1.387c-0.18-0.35-0.461-0.525-0.844-0.525C28.515,13.936,28.234,14.111,28.053,14.461"/>
	<path fill="#FFFFFF" d="M34.557,18.809c-0.793,0-1.385-0.27-1.779-0.809c-0.395-0.537-0.591-1.258-0.591-2.156
		c0-0.9,0.196-1.619,0.591-2.158s0.986-0.807,1.779-0.807s1.387,0.268,1.781,0.807c0.393,0.539,0.59,1.258,0.59,2.158
		c0,0.898-0.197,1.619-0.59,2.156C35.943,18.539,35.35,18.809,34.557,18.809 M33.713,14.461c-0.181,0.35-0.271,0.813-0.271,1.387
		s0.091,1.037,0.271,1.387c0.18,0.35,0.461,0.523,0.844,0.523c0.384,0,0.664-0.174,0.846-0.523c0.18-0.35,0.27-0.813,0.27-1.387
		s-0.09-1.037-0.27-1.387c-0.182-0.35-0.462-0.525-0.846-0.525C34.174,13.936,33.893,14.111,33.713,14.461"/>
	<path fill="#FFFFFF" d="M24.756,17.408c0,0.418-0.339,0.756-0.756,0.756s-0.756-0.338-0.756-0.756c0-0.416,0.339-0.754,0.756-0.754
		S24.756,16.992,24.756,17.408"/>
	<path fill="#FFFFFF" d="M24.756,14.277c0,0.416-0.339,0.754-0.756,0.754s-0.756-0.338-0.756-0.754c0-0.418,0.339-0.756,0.756-0.756
		S24.756,13.859,24.756,14.277"/>
</g>
</svg>
