<?xml version="1.0" encoding="utf-8"?>
<!-- Generator: Adobe Illustrator 18.0.0, SVG Export Plug-In . SVG Version: 6.00 Build 0)  -->
<!DOCTYPE svg PUBLIC "-//W3C//DTD SVG 1.1//EN" "http://www.w3.org/Graphics/SVG/1.1/DTD/svg11.dtd">
<svg version="1.1" id="Layer_1" xmlns="http://www.w3.org/2000/svg" xmlns:xlink="http://www.w3.org/1999/xlink" x="0px" y="0px"
	 viewBox="0 0 48 48" enable-background="new 0 0 48 48" xml:space="preserve">
<g>
	<path fill="#FFD15C" d="M33.2,35H14.8c3.1-6.6,3.1-9.9,0-16.5h18.4C30.1,25.1,30.1,28.4,33.2,35z"/>
	<circle fill="#FF7058" cx="24" cy="11.5" r="11.5"/>
	<path fill="#40596B" d="M40.8,35H7.2c-2.2,0-4,1.8-4,4v5.9h41.7V39C44.8,36.8,43,35,40.8,35z"/>
	<rect x="4.8" y="44.9" fill="#CDD6E0" width="38.5" height="3.1"/>
	<path fill="#F8B64C" d="M31.4,23c0.4-1.5,1-3,1.8-4.6H14.8c0.7,1.5,1.4,3,1.8,4.6H31.4z"/>
	<path fill="#F8B64C" d="M33.2,18.5H14.8c2.1,2.8,5.4,4.6,9.2,4.6S31.1,21.3,33.2,18.5z"/>
</g>
</svg>
