<?xml version="1.0" encoding="utf-8"?>
<!-- Generator: Adobe Illustrator 18.0.0, SVG Export Plug-In . SVG Version: 6.00 Build 0)  -->
<!DOCTYPE svg PUBLIC "-//W3C//DTD SVG 1.1//EN" "http://www.w3.org/Graphics/SVG/1.1/DTD/svg11.dtd">
<svg version="1.1" id="Layer_1" xmlns="http://www.w3.org/2000/svg" xmlns:xlink="http://www.w3.org/1999/xlink" x="0px" y="0px"
	 viewBox="0 0 48 48" enable-background="new 0 0 48 48" xml:space="preserve">
<g>
	<g>
		<path fill="#415A6B" d="M18,36.1l-2.5,0.6l-0.8-3l2.5-0.6c0.3-0.1,0.6,0.1,0.6,0.4l0.5,2C18.4,35.7,18.3,36,18,36.1z"/>
		<path fill="#8AD7F8" d="M18.1,40.3l-2.7-11.8H6.9l3.2,13.6c0.4,1.9,2.1,3.2,4,3.2h0C16.7,45.4,18.7,42.9,18.1,40.3z"/>
		<path fill="#415A6B" d="M41.6,15.6c3.6,0,6.5,2.9,6.5,6.5s-2.9,6.5-6.5,6.5"/>
		<path fill="#E8EAE9" d="M39.1,4.2v35.7l0,0c-5.2-6.2-12.9-9.8-21-9.8h-6.6V14h6.6C26.2,14,33.9,10.4,39.1,4.2L39.1,4.2z"/>
		<g>
			<path fill="#8AD7F8" d="M41.9,4.4v35.3c0,1-0.8,1.8-1.8,1.8h0c-1,0-1.8-0.8-1.8-1.8V4.4c0-1,0.8-1.8,1.8-1.8h0
				C41.1,2.6,41.9,3.4,41.9,4.4z"/>
		</g>
		<path fill="#415A6B" d="M-0.1,22.1L-0.1,22.1c0,5.2,4.2,9.5,9.5,9.5h9.9c0.8,0,1.4-0.6,1.4-1.4V14c0-0.8-0.6-1.4-1.4-1.4H9.4
			C4.2,12.6-0.1,16.8-0.1,22.1z"/>
		<g>
			<path fill="#344A5E" d="M6.9,18.7L6.9,18.7c0,0.9,0.7,1.7,1.7,1.7h7.3c0.9,0,1.7-0.7,1.7-1.7v0c0-0.9-0.7-1.7-1.7-1.7H8.5
				C7.6,17.1,6.9,17.8,6.9,18.7z"/>
		</g>
		<g>
			<path fill="#344A5E" d="M6.9,25.4L6.9,25.4c0,0.9,0.7,1.7,1.7,1.7h7.3c0.9,0,1.7-0.7,1.7-1.7v0c0-0.9-0.7-1.7-1.7-1.7H8.5
				C7.6,23.7,6.9,24.5,6.9,25.4z"/>
		</g>
	</g>
</g>
</svg>
