<?xml version="1.0" encoding="utf-8"?>
<!-- Generator: Adobe Illustrator 18.0.0, SVG Export Plug-In . SVG Version: 6.00 Build 0)  -->
<!DOCTYPE svg PUBLIC "-//W3C//DTD SVG 1.1//EN" "http://www.w3.org/Graphics/SVG/1.1/DTD/svg11.dtd">
<svg version="1.1" id="Layer_1" xmlns="http://www.w3.org/2000/svg" xmlns:xlink="http://www.w3.org/1999/xlink" x="0px" y="0px"
	 viewBox="0 0 48 48" enable-background="new 0 0 48 48" xml:space="preserve">
<g>
	<rect x="0" y="35.4" fill="#F7B64C" width="14.5" height="2"/>
	<rect x="2" y="32.4" fill="#FFD15C" width="3.1" height="10.9"/>
	<rect x="9" y="32.4" fill="#FFD15C" width="3.1" height="10.9"/>
	<g>
		<g>
			<g>
				<path fill="#4EC0AA" d="M48,35.4C23.1,35.4,3.1,41,3.1,47.8c0,0.1,0,0.1,0,0.2H48V35.4z"/>
			</g>
			<g>
				<g>
					<g>
						<path fill="#4EC0AA" d="M14.7,16.3c9.2-0.6,4.2-10.8,4.5-14.2C16.5,6.3,8.6,9.2,14.7,16.3z"/>
						<g>
							<g>
								<g>
									<path fill="#415A6B" d="M15.6,12.9c1.4-0.7,2.6-1.5,3.3-2.5c-0.7,1.1-1.7,2-3,2.9C15.8,13.1,15.7,13,15.6,12.9z"/>
								</g>
								<g>
									<path fill="#415A6B" d="M16.6,11.3c-0.6-1.4-0.9-2.7-0.9-3.8c-0.1,1.2,0,2.5,0.4,3.9C16.3,11.4,16.4,11.3,16.6,11.3z"/>
								</g>
								<g>
									<path fill="#415A6B" d="M17,8.9c-0.1,0.2-0.1,0.4-0.2,0.5c0.8-0.8,1.4-1.7,1.9-2.7C18.3,7.5,17.8,8.2,17,8.9z"/>
								</g>
							</g>
						</g>
					</g>
					<g>
						<path fill="#415A6B" d="M14.8,18.3c0.7-2.9,2.8-11,3.7-13.8c-1,2.9-4.2,11.1-5,13.4L14.8,18.3z"/>
					</g>
				</g>
				<g>
					<g>
						<g>
							<g>
								<g>
									<g>
										<path fill="#66C6B9" d="M11.6,13.6C16.1,3.1,3.2,2.5,0,0C2.7,5.6,1.2,16.1,11.6,13.6z"/>
										<g>
											<g>
												<g>
													<path fill="#415A6B" d="M8.7,10.6C8.8,8.7,8.6,6.9,8,5.4c0.7,1.4,1.1,3.1,1.2,5C9.1,10.5,8.9,10.6,8.7,10.6z"/>
												</g>
												<g>
													<path fill="#415A6B" d="M7.7,8.6C5.9,8.4,4.5,7.9,3.4,7.2c1.1,0.8,2.4,1.5,4.1,1.9C7.6,8.9,7.6,8.7,7.7,8.6z"/>
												</g>
												<g>
													<path fill="#415A6B" d="M5.5,6.6C5.7,6.8,5.8,6.9,6,7.1C5.6,5.7,5,4.5,4.4,3.3C4.9,4.4,5.3,5.4,5.5,6.6z"/>
												</g>
											</g>
										</g>
									</g>
									<g>
										<path fill="#415A6B" d="M16,20.7C11.8,11.5,4.2,5.3,4.2,5.3s6,6,9.9,15.4H16z"/>
									</g>
								</g>
							</g>
						</g>
					</g>
				</g>
			</g>
			<g>
				<g>
					<path fill="#F3705A" d="M47.1,23.4L30.8,7.1c-1.3-1.3-3.3-1.3-4.5,0L9.9,23.4c-1.3,1.3-1.3,3.3,0,4.5c1.3,1.3,3.3,1.3,4.5,0
						l14-14l14,14c1.3,1.3,3.3,1.3,4.6,0l0,0C48.3,26.7,48.3,24.6,47.1,23.4z"/>
					<g>
						<polygon fill="#E8EAE9" points="42.5,44.7 42.5,27.9 28.5,13.9 14.5,27.9 14.5,44.7 						"/>
					</g>
				</g>
				<rect x="23.6" y="32.4" fill="#415A6B" width="9.8" height="12.3"/>
			</g>
			<g>
				<g>
					<path fill="#66C6B9" d="M48,45.5c-7.8-1.6-18.3-3.8-29.9-3.8C11.6,41.7,5.5,42,0,42.6V48h48V45.5z"/>
				</g>
			</g>
		</g>
	</g>
</g>
</svg>
