<?xml version="1.0" encoding="utf-8"?>
<!-- Generator: Adobe Illustrator 18.0.0, SVG Export Plug-In . SVG Version: 6.00 Build 0)  -->
<!DOCTYPE svg PUBLIC "-//W3C//DTD SVG 1.1//EN" "http://www.w3.org/Graphics/SVG/1.1/DTD/svg11.dtd">
<svg version="1.1" id="Layer_1" xmlns="http://www.w3.org/2000/svg" xmlns:xlink="http://www.w3.org/1999/xlink" x="0px" y="0px"
	 viewBox="0 0 48 48" enable-background="new 0 0 48 48" xml:space="preserve">
<g>
	<g>
		<g>
			<g>
				<g>
					<path fill="#FFD15C" d="M40.7,21.2l1.3,0.7c0,0,1.7,1.6,1.7,2.2c0,0-0.2,0.5,0.2,0.9c0.4,0.4,1.4,1,1.4,1s0.2,0.4-0.1,0.6
						c-0.3,0.2-0.6,0.4-0.5,0.6c0,0.2,0.1,0.5-0.2,0.6c0,0,0.4,0,0.4,0.3c0,0-0.1,0.6,0.1,1c0.2,0.4,0,1.1-0.5,1.1
						c-0.5,0-2.5-0.4-2.9,0.1c-0.4,0.5-2.7,2.8-3.7,3.4v-4.4l1.6-3.2c0,0,0.3-3.2,0.3-3.2C39.6,22.8,40.7,21.2,40.7,21.2z"/>
				</g>
			</g>
		</g>
		<g>
			<g>
				<g>
					<path fill="#F5B54C" d="M11.2,11.9c0-2.3,0.9-5.2,2.1-8.2l0.3-1l0.3-0.4l-0.1-0.6c0,0,0.5-0.2,0.6,0.1c0,0,0.4,0,0.4,0.2
						c0,0,0.1,0.1,0.2,0.3c0,0,0.2,0.2,0,0.5c0,0,0,0.3-0.1,0.5c0,0,0.4,0,0.3,1.1c-0.1,1.1,0,3,0.5,3.7c0.5,0.7,1.2,2.3,0.8,2.9
						c-0.4,0.6-1,0.6-1,0.6s-1.4,0.3-2.2,1.6c-0.8,1.3-0.8,1.4-0.8,1.4L11.2,11.9z"/>
				</g>
			</g>
		</g>
		<g>
			<g>
				<g>
					<path fill="#F5B54C" d="M33.7,26.4c-0.5-0.2-0.9-0.3-0.9-0.3l-7.3-3.4c0,0-1.1-0.4-1.6-0.9c-0.5-0.6-7.7-5.5-7.7-5.5
						s-0.6-0.6-1.1-0.8c-0.5-0.3-0.7-0.4-0.9-0.8c-0.2-0.4-1.2-0.9-1.2-0.9l-0.9-0.2c0,0-0.6-0.1-0.5,0.6c0,0-0.4,0.2-0.4,0.4
						c0,0-0.3,0.1-0.4,0.4c0,0.3-0.3,0.3-0.3,0.3s-0.2,0.3-0.1,0.5c0,0.2,0.1,0.3,0.1,0.3l-0.7,0.8c0,0-0.1,0.2,0.1,0.4
						c0.2,0.3,0.9,0.5,0.9,0.5s1.5,0.1,2.2-0.2c0,0,0.6-0.1,0.9,0.2c0.4,0.3,2.5,1.7,3.3,2.5c0.8,0.8,2.5,2.5,3.5,3.1
						c0,0,0.2,0.1,0.3,0.3c0,0.1,0.7,1.2,3.5,2.7c2.9,1.5,4.2,2.6,4.2,2.6l1.9,1.4c0,0,0.4,0.3,0.3,0.5c0,0-0.3,0.8,0.1,1.8
						c0.4,1,0.7,2.5,2.7,3.6V26.4z"/>
				</g>
			</g>
		</g>
		<g>
			<g>
				<g>
					<path fill="#FFD15C" d="M11.3,10.2c0,0,0.3-1.7,0.4-2.2C11.9,7.5,12,6.8,12,6.8s0.5-1.6,1-2.4C13.5,3.6,14.1,2,14.1,2l0.3-1
						l0.3-0.4l-0.1-0.6c0,0,0.5-0.2,0.6,0.1c0,0,0.4,0,0.4,0.2c0,0,0.1,0.1,0.2,0.3c0,0,0.2,0.2,0,0.5c0,0,0,0.3-0.1,0.5
						c0,0,0.4,0,0.3,1.1c-0.1,1.1,0,3,0.5,3.7c0.5,0.7,1.2,2.3,0.8,2.9c-0.4,0.6-1,0.6-1,0.6s-1.4,0.3-2.2,1.6
						C13.3,13,13.3,13,13.3,13L11.3,10.2z"/>
				</g>
			</g>
		</g>
		<g>
			<g>
				<g>
					<path fill="#F3F3F3" d="M11.2,9.7c0,0,0.8,0,1.1,0.5c0.3,0.5,1.5,1.9,2,1.6c0,0-0.6,1-0.8,2s-0.7,4.1-0.7,4.1s-0.4,5.3-3.6,8.5
						c0,0-0.2,0.8,0.3,1.5c0.5,0.8,6,6.2,6.8,7.7c0,0,2.8-0.8,4.9,0.9c2.1,1.8,2.2,2.1,2.2,2.1L18,47.5c0,0-5.2-3.1-8.1-6.4
						S3.5,30,3.5,30s-1.6-2.9-0.2-4.5s3.1-5,3.5-6.1c0.4-1.1,4.1-7.9,4.1-7.9L11.2,9.7z"/>
				</g>
			</g>
		</g>
		<g>
			<g>
				<g>
					<path fill="#425A6B" d="M42,21.9c0,0-0.7,0.1-1,0.1c0.3,0.4,0.5,1,0.6,1.5c0.1,0.5-0.1,1.1-0.5,1.5c-0.4,0.4-1,0.5-1.5,0.3
						c0.2,0.8,0.2,1.7-0.1,2.6c0-0.8,0-1.5-0.2-2.2c0.2,0.6-0.2,1.3-0.2,1.9c0,0.4,0.3,0.8,0.5,1.1c0.3,0.3,0.6,0.6,0.8,1
						c0.2,0.4,0.3,0.8,0.1,1.2c0-0.8-0.5-1.5-1.2-1.8c0.4,0.2,0.7,0.7,0.5,1.1c-0.1-0.2-0.4-0.1-0.6,0c-0.2,0.1-0.3,0.3-0.5,0.4
						c-0.4,0.2-0.9,0-1.2-0.3c-0.3-0.3-0.6-0.7-0.8-1c-0.5-0.7-1.3-1.2-2.1-1.5c-0.5-0.2-1.2-0.3-1.4-0.8c-0.2-0.4-0.1-0.9,0.1-1.3
						c0,0,0.6-4.3,4.3-5C41.2,19.9,42.2,21.6,42,21.9z"/>
				</g>
			</g>
		</g>
		<g>
			<g>
				<g>
					
						<ellipse transform="matrix(0.9712 -0.2381 0.2381 0.9712 -5.228 10.2314)" fill="#FFD15C" cx="39.7" cy="26.8" rx="0.7" ry="1.5"/>
				</g>
			</g>
		</g>
	</g>
	<g>
		<g>
			<g>
				<path fill="#56BFEB" d="M18,47.5c0,0,0.8-2.6,1.7-4.3s2-4.4,3.7-5c0,0,0.1,0.4,0.2,0.8c0.1,0.4,0.2,1.1,1.3,1.1
					c1.1-0.1,1.9-1.6,1.9-1.6s1.5-2,2-3.7c0.5-1.7,1.7-4.6,1.7-4.6l0.7-0.3c0,0,0.3,0.3,0.3,0.5c0,0-0.3,0.7,0.1,1.8
					c0.4,1,0.8,2.6,2.9,3.6c0,0,1.7,0.7,2.6-0.2c0.9-1,0.9-3.8,0.9-3.8s0.4-1,0.4-1.3c0,0,0,1.7,0,2.6c0,0.9-0.2,4.7-0.1,5.3
					c0.1,0.6,0.1,4.4-2.8,5.8c0,0-1.3,0.5-2.5,2.2C31.2,49.2,18,47.5,18,47.5z"/>
			</g>
		</g>
	</g>
	<g>
		<g>
			<g>
				<path fill="#FFD15C" d="M31.2,29.9c0,0,0.3,0.3,0.3,0.5c0,0-0.3,0.7,0.1,1.8c0.4,1,0.8,2.6,2.9,3.6c0,0,1.7,0.7,2.6-0.2
					c0.9-1,0.9-3.8,0.9-3.8s0.4-1,0.4-1.3c0,0,0.2-2.1-1.7-3.1s-3.5-1.6-3.5-1.6L26,22c0,0-1.2-0.4-1.7-1.1
					c-0.5-0.6-8.6-6.5-8.6-6.5s-0.7-0.7-1.3-1c-0.6-0.3-0.8-0.6-1.1-1c-0.3-0.4-1.4-1.1-1.4-1.1l-1.1-0.3c0,0-0.7-0.1-0.6,0.6
					c0,0-0.5,0.3-0.4,0.4c0,0-0.4,0.1-0.4,0.5c0,0.4-0.3,0.4-0.3,0.4S9,13.1,9.1,13.4c0.1,0.2,0.2,0.4,0.2,0.4l-0.7,0.8
					c0,0-0.1,0.2,0.2,0.5c0.3,0.3,1.1,0.6,1.1,0.6s1.7,0.2,2.5,0c0,0,0.6-0.1,1.1,0.3c0.4,0.3,2.9,2,3.8,3c0.9,1,2.8,2.8,3.9,3.5
					c0,0,0.2,0.2,0.3,0.3c0,0.1,0.8,1.3,3.7,2.9c2.9,1.7,4.2,2.7,4.2,2.7L31.2,29.9z"/>
			</g>
		</g>
	</g>
</g>
</svg>
