<?xml version="1.0" encoding="utf-8"?>
<!-- Generator: Adobe Illustrator 18.0.0, SVG Export Plug-In . SVG Version: 6.00 Build 0)  -->
<!DOCTYPE svg PUBLIC "-//W3C//DTD SVG 1.1//EN" "http://www.w3.org/Graphics/SVG/1.1/DTD/svg11.dtd">
<svg version="1.1" id="Layer_1" xmlns="http://www.w3.org/2000/svg" xmlns:xlink="http://www.w3.org/1999/xlink" x="0px" y="0px"
	 viewBox="0 0 512 512" enable-background="new 0 0 512 512" xml:space="preserve">
<g>
	<path fill="#F2F2F2" d="M488.8,2H23.2C11.5,2,2,11.5,2,23.2v465.7c0,11.7,9.5,21.2,21.2,21.2h465.7c11.7,0,21.2-9.5,21.2-21.2V23.2
		C510,11.5,500.5,2,488.8,2z"/>
	<g>
		<path fill="#CDD5DF" d="M256.7,38.2c-85.4,0-154.6,69.1-154.6,154.5c0,25.8,6.3,50.2,17.6,71.6c3.9,7.4,8.4,14.5,13.4,21.1
			c1,1.5,2.1,2.9,3.3,4.3c28.3,35.1,71.7,57.6,120.4,57.6c3.8,0,7.7-0.1,11.5-0.4c6.2-0.4,12.3-1.2,18.3-2.5
			c0.4-0.1,0.7-0.1,0.9-0.1c18.6-3.7,36-10.8,51.5-20.6c43.5-27.3,72.4-75.7,72.4-130.9C411.2,107.3,342,38.2,256.7,38.2z"/>
		<polygon fill="#FFCF5C" points="174.5,326.6 174.5,232.1 223,170.3 256.7,127.2 290.4,170.3 338.8,232.1 338.8,326.6 		"/>
		<path fill="#F2705B" d="M174.5,444.7v42.1c0,12.4,10,22.4,22.4,22.4h119.5c12.4,0,22.4-10,22.4-22.4v-42.1H174.5z"/>
		<rect x="174.6" y="396.4" fill="#FFFFFF" width="164.2" height="48.3"/>
		<polygon fill="#425A6D" points="223,170.3 256.7,127.2 290.4,170.3 		"/>
		<path fill="#55BFE9" d="M338.8,232.1v164.2h-43.1V281c0-7.9,1.5-15.3,4.1-21.9c6.4-16.2,19.7-27.3,35.1-27.3
			C336.3,231.8,337.5,231.9,338.8,232.1z"/>
		<path fill="#55BFE9" d="M217.4,281v115.3h-42.9V232.1c1.2-0.2,2.5-0.3,3.7-0.3c15.4,0,28.6,11.2,35,27.4
			C216,265.8,217.4,273.2,217.4,281z"/>
		<path fill="#89D6F7" d="M217.4,396.3V281c0-7.8-1.4-15.2-4.1-21.8c9.9-16.5,25.6-27.3,43.3-27.3c17.7,0,33.4,10.7,43.3,27.2
			c-2.6,6.6-4.1,14-4.1,21.9v115.3H217.4z"/>
		<path fill="#65C5B8" d="M154.3,353.1l-0.3-0.2c-6.7-4.3-13.3-9.1-19.3-14.1l-0.2-0.2l14.5-17.2l0.5,0l-0.1,0.2
			c5.4,4.5,11,8.6,16.9,12.3l0.2,0.2L154.3,353.1z"/>
		<path fill="#65C5B8" d="M358.6,352.4l-0.1-0.2l-0.2,0.2l0,0l-12.1-18.8l0.2-0.2c5.8-3.8,11.5-8,17-12.5l0.2-0.2l14.5,17.3
			l-0.2,0.2C371.8,343.3,365.3,348.1,358.6,352.4z"/>
		<path fill="#65C5B8" d="M109.7,313.4l-0.3-0.1c-2.5-3.1-5-6.3-7.2-9.2c-1.5-2-2.7-3.8-3.8-5.6c-1.1-1.6-2-3-2.8-4.3l-0.2,0.2
			l0-0.8l0.1-0.1l18.8-11.9l0.2,0.2c0.8,1.2,1.6,2.5,2.7,4.1l0.2,0.4c0.8,1.3,1.8,2.7,3.1,4.5c2,2.7,4,5.4,6.3,8.2l0.2,0.2
			L109.7,313.4z"/>
		<path fill="#65C5B8" d="M403,312.8l-0.2-0.2l-17.2-14.1l0.2-0.2c4.5-5.4,8.6-11.3,12.3-17.2l0.1-0.2l19.8,12.4l-0.9,0
			c-4.2,6.7-8.8,13.2-13.9,19.3L403,312.8z"/>
		<path fill="#65C5B8" d="M79.1,262.1l0-0.4c-2.9-7.3-5.3-15-7.3-22.8l-0.1-0.3l21.9-5.4l0,0.2c1.7,6.8,3.8,13.5,6.4,20l1.1,0.1
			L79.1,262.1z"/>
		<path fill="#65C5B8" d="M433.1,261.2l-21.1-8.2l0.1-0.2c2.5-6.6,4.7-13.4,6.3-20.2l0.1-0.3l21.9,5.4l-0.1,0.3
			c-1.9,7.7-4.3,15.4-7.2,22.9L433.1,261.2z"/>
		<path fill="#65C5B8" d="M66.4,203.6l0-0.2c-0.4-6.7-0.4-13.6-0.1-20.5c0.1-1.2,0.2-2.3,0.2-3.5l0-0.3l22.5,1.8
			c-0.1,1.1-0.2,2-0.2,3.1c-0.3,6-0.3,12.1,0,18.1l-0.2,0l0,0.3L66.4,203.6z"/>
		<path fill="#65C5B8" d="M445.6,202.7l-22.6-1.4c0.3-5,0.3-10.1,0.2-15.1l0-0.3l0.3,0l22.3-0.8l0,0.2c0.2,5.6,0.2,11.4-0.1,17.2
			L445.6,202.7z"/>
		<path fill="#65C5B8" d="M94.2,150l-21.9-5.8l0.1-0.3c2-7.8,4.6-15.4,7.6-22.8l0.1-0.3l20.9,8.5l-0.1,0.3
			c-2.6,6.5-4.9,13.3-6.6,20.1L94.2,150z"/>
		<path fill="#65C5B8" d="M419.3,155l-0.3-0.2c-1.6-6.8-3.6-13.6-6.1-20.3l-0.1-0.2l21.2-7.8l0.1,0.2c2.7,7.4,5,15,6.8,22.8l0,0.5
			l-0.2,0.1L419.3,155z"/>
		<path fill="#65C5B8" d="M115.6,101.9L96.6,89.5l0.1-0.6l0.2,0.1c4.2-6.5,9-12.9,14.2-19l0.3-0.1l0.1,0.1l17,14.4l-0.2,0.2
			c-4.5,5.4-8.8,11-12.6,16.9L115.6,101.9z"/>
		<path fill="#65C5B8" d="M399.3,106.3l-0.1-0.2c-3.6-6-7.6-11.7-11.9-17.1l-0.3,0.2l0-0.8l0.1-0.1l17.4-13.8l0.2,0.2
			c5,6.3,9.6,12.9,13.7,19.7l0.2,0.2L399.3,106.3z"/>
		<path fill="#65C5B8" d="M150.7,62.7l-14.2-17.6l0.1,0l0-0.6l0.3,0.4c6.1-4.9,12.6-9.5,19.4-13.7l0.2-0.2l11.9,19.2l-0.2,0.2
			c-6.1,3.8-11.9,7.9-17.3,12.2L150.7,62.7z"/>
		<path fill="#65C5B8" d="M365.4,66l-0.2-0.2c-5.3-4.6-11-8.9-16.9-12.7l-0.2-0.2l12.6-18.7l0.1,0c6.7,4.5,13.1,9.3,19.1,14.5
			l0.1,0.3l-0.1,0.1L365.4,66z"/>
		<path fill="#65C5B8" d="M196.3,36.4l-8.1-21.1l0.3-0.1c7.5-2.8,15.2-5.3,22.9-7.1l0.2,0l5.3,21.7l-0.3,0l0,0.2
			c-6.9,1.6-13.6,3.8-20.2,6.2L196.3,36.4z"/>
		<path fill="#65C5B8" d="M320.7,38.2l-0.3,0c-6.5-2.8-13.2-5-20-6.9l-0.3-0.1l6-21.8l0.3,0.1c7.7,2.1,15.4,4.7,22.7,7.8l0.2,0.1
			L320.7,38.2z"/>
		<path fill="#65C5B8" d="M247.8,25.6l-1-22.6l0.3,0c6.1-0.3,12.4-0.3,18.8,0.1c2.1,0.1,3.7,0.2,5.1,0.3l0.3,0l0,0.3l-1.8,22.2
			l-0.3,0c-7.1-0.5-14.3-0.7-21.1-0.4L247.8,25.6z"/>
	</g>
</g>
</svg>
