<?xml version="1.0" encoding="utf-8"?>
<!-- Generator: Adobe Illustrator 18.0.0, SVG Export Plug-In . SVG Version: 6.00 Build 0)  -->
<!DOCTYPE svg PUBLIC "-//W3C//DTD SVG 1.1//EN" "http://www.w3.org/Graphics/SVG/1.1/DTD/svg11.dtd">
<svg version="1.1" id="Layer_1" xmlns="http://www.w3.org/2000/svg" xmlns:xlink="http://www.w3.org/1999/xlink" x="0px" y="0px"
	 viewBox="0 0 48 48" enable-background="new 0 0 48 48" xml:space="preserve">
<g>
	<path fill="#334A5E" d="M46,42.1H2c-1.1,0-2-0.9-2-2V7.9c0-1.1,0.9-2,2-2h44c1.1,0,2,0.9,2,2v32.2C48,41.2,47.1,42.1,46,42.1z"/>
	<rect x="2" y="7.9" fill="#40596B" width="44" height="32.2"/>
	<g>
		<g>
			<circle fill="#CDD6E0" cx="17.2" cy="22.9" r="12"/>
			<circle fill="#FF7058" cx="17.2" cy="22.9" r="4.5"/>
			<circle fill="#334A5E" cx="17.2" cy="22.9" r="2.4"/>
			<circle fill="#FFFFFF" cx="17.2" cy="22.9" r="1.4"/>
			<g>
				<g>
					<path fill="#F2F2F2" d="M17.2,33.4c0.2,0,0.4-0.2,0.4-0.4s-0.2-0.4-0.4-0.4c-5.4,0-9.8-4.4-9.8-9.8c0-0.2-0.2-0.4-0.4-0.4
						s-0.4,0.2-0.4,0.4C6.7,28.7,11.4,33.4,17.2,33.4z"/>
				</g>
				<g>
					<path fill="#F2F2F2" d="M27.4,23.2c0.2,0,0.4-0.2,0.4-0.4c0-5.8-4.7-10.5-10.5-10.5c-0.2,0-0.4,0.2-0.4,0.4s0.2,0.4,0.4,0.4
						c5.4,0,9.8,4.4,9.8,9.8C27,23.1,27.2,23.2,27.4,23.2z"/>
				</g>
				<g>
					<path fill="#F2F2F2" d="M17.2,31.6c0.2,0,0.4-0.2,0.4-0.4c0-0.2-0.2-0.4-0.4-0.4c-4.4,0-8-3.6-8-8c0-0.2-0.2-0.4-0.4-0.4
						c-0.2,0-0.4,0.2-0.4,0.4C8.5,27.7,12.4,31.6,17.2,31.6z"/>
				</g>
				<g>
					<path fill="#F2F2F2" d="M25.6,23.2c0.2,0,0.4-0.2,0.4-0.4c0-4.8-3.9-8.7-8.7-8.7c-0.2,0-0.4,0.2-0.4,0.4c0,0.2,0.2,0.4,0.4,0.4
						c4.4,0,8,3.6,8,8C25.2,23.1,25.4,23.2,25.6,23.2z"/>
				</g>
				<g>
					<path fill="#F2F2F2" d="M17.2,29.8c0.2,0,0.4-0.2,0.4-0.4s-0.2-0.4-0.4-0.4c-3.4,0-6.2-2.8-6.2-6.2c0-0.2-0.2-0.4-0.4-0.4
						c-0.2,0-0.4,0.2-0.4,0.4C10.3,26.7,13.4,29.8,17.2,29.8z"/>
				</g>
				<g>
					<path fill="#F2F2F2" d="M23.8,23.2c0.2,0,0.4-0.2,0.4-0.4c0-3.8-3.1-6.9-6.9-6.9c-0.2,0-0.4,0.2-0.4,0.4s0.2,0.4,0.4,0.4
						c3.4,0,6.2,2.8,6.2,6.2C23.4,23.1,23.6,23.2,23.8,23.2z"/>
				</g>
			</g>
		</g>
		<g>
			<path fill="#F2F2F2" d="M3.2,35.8c-0.4,0-0.7-0.3-0.7-0.7V21.5c0-0.3,0.1-0.5,0.4-0.6l8.1-4.1c0.3-0.2,0.7,0,0.9,0.3
				c0.2,0.3,0,0.7-0.3,0.9l-7.7,3.9v13.3C3.9,35.5,3.6,35.8,3.2,35.8z"/>
		</g>
		<path fill="#ACB3BA" d="M14.6,15.7c-0.5-1-1.8-1.3-2.7-0.6l-1.7,1.5C9.8,17,9.7,17.5,9.9,18c0.2,0.5,0.8,0.7,1.3,0.6l2.2-0.5
			C14.5,18,15.1,16.7,14.6,15.7z"/>
	</g>
	<g>
		<path fill="#FFD15C" d="M24.8,26L24.8,26c0.8-0.6,2-0.4,2.6,0.4l2.3,3.2c0,0,0.8,0.3,0.8-1.2l0.2-2.8l-0.9-6.8
			c-0.1-1,0.6-1.9,1.6-2.1h0c1-0.1,1.9,0.6,2.1,1.6l0.9,6.4l0.1,0l0,0c0.5-0.6,1.2-0.8,2-0.6h0c0.4,0.1,0.8,0.4,1,0.8
			c0.5-0.2,1-0.2,1.5,0h0c0.4,0.2,0.7,0.5,0.8,0.9l2.1-4.3c0.4-0.9,1.6-1.3,2.5-0.8h0c0.9,0.4,1.3,1.6,0.8,2.5l-3,6.2
			c0,0-0.5,2.2-0.5,4.2c0,0,0,2.7-1.4,4.3l-0.7,1.3c0,0.6-0.4,1-1,1h-7.2c-0.6,0-1-0.4-1-1v-0.2v-2.1l-1.7-2.7l-4.1-5.6
			C23.8,27.8,23.9,26.6,24.8,26z"/>
		<path fill="#F2F2F2" d="M32.9,18.3c-0.1-0.7-0.7-1.2-1.4-1.2c-0.1,0-0.1,0-0.2,0c-0.4,0.1-0.7,0.2-0.9,0.5c-0.2,0.3-0.3,0.7-0.3,1
			L32.9,18.3z"/>
		<path fill="#F2F2F2" d="M44.6,22.8c0.2-0.3,0.2-0.7,0.1-1.1c-0.1-0.3-0.4-0.6-0.7-0.8c-0.2-0.1-0.4-0.1-0.6-0.1
			c-0.5,0-1,0.3-1.2,0.8L44.6,22.8z"/>
		<path fill="#F2F2F2" d="M24.5,27c0.1-0.2,0.2-0.3,0.3-0.5c0.3-0.3,0.6-0.4,1-0.4c0.4,0,0.9,0.2,1.1,0.6l0.5,0.7
			c0.2,0.3,0.2,0.7-0.1,0.9l-1.2,0.9c-0.3,0.2-0.7,0.2-0.9-0.1l-0.6-0.7C24.5,27.9,24.4,27.5,24.5,27z"/>
	</g>
</g>
</svg>
