<?xml version="1.0" encoding="utf-8"?>
<!-- Generator: Adobe Illustrator 18.0.0, SVG Export Plug-In . SVG Version: 6.00 Build 0)  -->
<!DOCTYPE svg PUBLIC "-//W3C//DTD SVG 1.1//EN" "http://www.w3.org/Graphics/SVG/1.1/DTD/svg11.dtd">
<svg version="1.1" id="Layer_1" xmlns="http://www.w3.org/2000/svg" xmlns:xlink="http://www.w3.org/1999/xlink" x="0px" y="0px"
	 viewBox="0 0 48 48" enable-background="new 0 0 48 48" xml:space="preserve">
<g>
	<g>
		<g>
			<g>
				<path fill="#415A6B" d="M42.4,45.2H5.6c-1.7,0-3-1.3-3-3V15.6c0-1.7,1.3-3,3-3h36.8c1.7,0,3,1.3,3,3v26.5
					C45.4,43.8,44,45.2,42.4,45.2z"/>
				<rect x="5.6" y="15.6" fill="#8AD7F8" width="36.8" height="23.8"/>
			</g>
			<g>
				<path fill="#344A5E" d="M0,42.3C0,45.5,2.5,48,5.7,48h36.6c3.1,0,5.7-2.5,5.7-5.7H0z"/>
			</g>
		</g>
		<g>
			<g>
				<path fill="#F3F3F3" d="M37.1,0H10.9c-1.7,0-3,1.3-3,3v36.5h32.3V3C40.1,1.3,38.8,0,37.1,0z"/>
				<g>
					<rect x="11.4" y="17.7" fill="#CED6E0" width="25.2" height="1.6"/>
				</g>
				<g>
					<rect x="11.4" y="13" fill="#CED6E0" width="25.2" height="1.6"/>
				</g>
				<g>
					<rect x="11.4" y="22.4" fill="#CED6E0" width="9.4" height="1.6"/>
				</g>
				<g>
					<rect x="11.4" y="8.4" fill="#CED6E0" width="25.2" height="1.6"/>
				</g>
				<g>
					<rect x="11.4" y="3.7" fill="#FFD15C" width="15.8" height="1.6"/>
				</g>
			</g>
			<g>
				<polygon fill="#F3705A" points="37.5,32.2 28.8,26.7 30,36.9 31.8,34.5 33.3,36.9 36,35.2 34.5,32.8 				"/>
				<g>
					<path fill="#FFD15C" d="M29.7,22.6L29.7,22.6c-0.2,0-0.4,0.1-0.5,0.3l-0.3,1.3c0,0.2,0.1,0.4,0.3,0.5l0,0
						c0.2,0,0.4-0.1,0.5-0.3l0.3-1.3C30,22.9,29.9,22.7,29.7,22.6z"/>
					<path fill="#FFD15C" d="M27.1,23.3c-0.1-0.2-0.4-0.2-0.6-0.1l0,0c-0.2,0.1-0.2,0.4-0.1,0.6l0.7,1.1c0.1,0.2,0.4,0.2,0.6,0.1
						l0,0c0.2-0.1,0.2-0.4,0.1-0.6L27.1,23.3z"/>
					<path fill="#FFD15C" d="M26.8,26.3L26.8,26.3c0-0.2-0.1-0.4-0.3-0.5l-1.3-0.3c-0.2,0-0.4,0.1-0.5,0.3l0,0
						c0,0.2,0.1,0.4,0.3,0.5l1.3,0.3C26.5,26.6,26.7,26.5,26.8,26.3z"/>
					<path fill="#FFD15C" d="M27,27.8c-0.1-0.2-0.4-0.2-0.6-0.1l-1.1,0.7c-0.2,0.1-0.2,0.4-0.1,0.6l0,0c0.1,0.2,0.4,0.2,0.6,0.1
						l1.1-0.7C27.1,28.2,27.1,28,27,27.8L27,27.8z"/>
					<path fill="#FFD15C" d="M28.3,28.7L28.3,28.7c-0.2,0-0.4,0.1-0.5,0.3l-0.3,1.3c0,0.2,0.1,0.4,0.3,0.5l0,0
						c0.2,0,0.4-0.1,0.5-0.3l0.3-1.3C28.7,29,28.5,28.8,28.3,28.7z"/>
					<path fill="#FFD15C" d="M32.5,27.1l-1.3-0.3c-0.2,0-0.4,0.1-0.5,0.3l0,0c0,0.2,0.1,0.4,0.3,0.5l1.3,0.3c0.2,0,0.4-0.1,0.5-0.3
						l0,0C32.9,27.4,32.7,27.2,32.5,27.1z"/>
					<path fill="#FFD15C" d="M32.3,24.5L32.3,24.5c-0.1-0.2-0.4-0.2-0.6-0.1l-1.1,0.7c-0.2,0.1-0.2,0.4-0.1,0.6l0,0
						c0.1,0.2,0.4,0.2,0.6,0.1l1.1-0.7C32.3,24.9,32.4,24.7,32.3,24.5z"/>
				</g>
			</g>
		</g>
	</g>
</g>
</svg>
