<?xml version="1.0" encoding="utf-8"?>
<!-- Generator: Adobe Illustrator 16.0.0, SVG Export Plug-In . SVG Version: 6.00 Build 0)  -->
<!DOCTYPE svg PUBLIC "-//W3C//DTD SVG 1.1//EN" "http://www.w3.org/Graphics/SVG/1.1/DTD/svg11.dtd">
<svg version="1.1" id="Layer_1" xmlns="http://www.w3.org/2000/svg" xmlns:xlink="http://www.w3.org/1999/xlink" x="0px" y="0px"
	 width="48px" height="48px" viewBox="0 0 48 48" enable-background="new 0 0 48 48" xml:space="preserve">
<g>
	<path fill="#F2F2F2" d="M46,4.305H2c-1.104,0-2,0.895-2,2V46c0,1.104,0.896,2,2,2h44c1.105,0,2-0.896,2-2V6.305
		C48,5.199,47.105,4.305,46,4.305"/>
	<rect y="14.805" fill="#334A5E" width="48" height="22.693"/>
	<path fill="#FF7058" d="M29.164,0H18.836c-0.839,0-1.588,0.523-1.877,1.311l-1.1,2.994h16.281l-1.1-2.994
		C30.752,0.523,30.003,0,29.164,0"/>
	<path fill="#FFFFFF" d="M24,43.406c-9.514,0-17.254-7.74-17.254-17.254S14.486,8.898,24,8.898s17.254,7.74,17.254,17.254
		S33.514,43.406,24,43.406"/>
	<path fill="#54C0EB" d="M24,40.92c-8.143,0-14.768-6.625-14.768-14.768c0-8.145,6.625-14.768,14.768-14.768
		s14.768,6.623,14.768,14.768C38.768,34.295,32.143,40.92,24,40.92"/>
	<path fill="#40596B" d="M32.366,26.15c0,4.621-3.746,8.367-8.366,8.367s-8.366-3.746-8.366-8.367c0-4.619,3.746-8.365,8.366-8.365
		S32.366,21.531,32.366,26.15"/>
	<path fill="#FFFFFF" d="M20.948,20.91c0,1.469-1.189,2.658-2.656,2.658c-1.469,0-2.657-1.189-2.657-2.658
		c0-1.467,1.188-2.656,2.657-2.656C19.759,18.254,20.948,19.443,20.948,20.91"/>
	<path fill="#FF7058" d="M5.191,17.785c0,0.725-0.587,1.313-1.312,1.313c-0.724,0-1.313-0.588-1.313-1.313s0.589-1.313,1.313-1.313
		C4.604,16.473,5.191,17.061,5.191,17.785"/>
	<path fill="#FFFFFF" d="M44.279,10.619h-4.484c-0.95,0-1.721-0.771-1.721-1.721c0-0.951,0.771-1.721,1.721-1.721h4.484
		C45.23,7.178,46,7.947,46,8.898C46,9.848,45.23,10.619,44.279,10.619"/>
</g>
</svg>
