<?xml version="1.0" encoding="utf-8"?>
<!-- Generator: Adobe Illustrator 16.0.0, SVG Export Plug-In . SVG Version: 6.00 Build 0)  -->
<!DOCTYPE svg PUBLIC "-//W3C//DTD SVG 1.1//EN" "http://www.w3.org/Graphics/SVG/1.1/DTD/svg11.dtd">
<svg version="1.1" id="Layer_1" xmlns="http://www.w3.org/2000/svg" xmlns:xlink="http://www.w3.org/1999/xlink" x="0px" y="0px"
	 width="48px" height="48px" viewBox="0 0 48 48" enable-background="new 0 0 48 48" xml:space="preserve">
<g>
	<path fill="#F05540" d="M48,47.999H0c0-4.563,3.699-8.26,8.262-8.26H39.74C44.303,39.739,48,43.437,48,47.999"/>
	<path fill="#FFD15C" d="M48,47.999H0c0-4.563,3.699-8.26,8.262-8.26H39.74C44.303,39.739,48,43.437,48,47.999"/>
	<polygon fill="#F6B44B" points="27.898,0.001 20.102,0.001 7.02,39.739 40.98,39.739 	"/>
	<polygon fill="#F2F2F2" points="30.516,7.948 17.486,7.948 14.869,15.896 33.131,15.896 	"/>
	<polygon fill="#F2F2F2" points="35.748,23.843 12.254,23.843 9.637,31.792 38.365,31.792 	"/>
</g>
</svg>
