<?xml version="1.0" encoding="utf-8"?>
<!-- Generator: Adobe Illustrator 18.0.0, SVG Export Plug-In . SVG Version: 6.00 Build 0)  -->
<!DOCTYPE svg PUBLIC "-//W3C//DTD SVG 1.1//EN" "http://www.w3.org/Graphics/SVG/1.1/DTD/svg11.dtd">
<svg version="1.1" id="Layer_1" xmlns="http://www.w3.org/2000/svg" xmlns:xlink="http://www.w3.org/1999/xlink" x="0px" y="0px"
	 viewBox="0 0 48 48" enable-background="new 0 0 48 48" xml:space="preserve">
<g>
	<path fill="#CDD6E0" d="M39.2,48H8.8c-0.8,0-1.4-0.6-1.4-1.4V22.1v-7.3h33.2v31.8C40.6,47.4,40,48,39.2,48z"/>
	<polygon fill="#41596B" points="36.9,18 40.6,21.3 7.4,21.3 11.1,18 7.4,14.8 40.6,14.8 	"/>
	<circle fill="#41596B" cx="13.5" cy="25.8" r="1.7"/>
	<circle fill="#41596B" cx="34.5" cy="25.8" r="1.7"/>
	<polygon fill="#334A5E" points="36.9,18 36.9,21.3 40.6,21.3 	"/>
	<polygon fill="#334A5E" points="11.1,18 11.1,21.3 7.4,21.3 	"/>
	<path fill="#F2F2F2" d="M24,37.5c-6.2,0-11.2-5-11.2-11.2v-0.5h1.5v0.5c0,5.4,4.4,9.8,9.8,9.8c5.4,0,9.8-4.4,9.8-9.8v-0.5h1.5v0.5
		C35.2,32.5,30.2,37.5,24,37.5z"/>
	<path fill="#ACB3BA" d="M24,37.5c-6,0-11-4.8-11.2-10.8h0v0.5c0,6.2,5,11.2,11.2,11.2c6.2,0,11.2-5,11.2-11.2v-0.5h0
		C35,32.7,30,37.5,24,37.5z"/>
	<g>
		<path fill="#FFD15C" d="M30.1,17.9c0,1.3-0.4,2.4-1,3.4H19c-0.7-1-1-2.1-1-3.4c0-1.1,0.3-2.2,0.9-3.1c1.1-1.8,3-3,5.2-3
			s4.1,1.2,5.2,3C29.8,15.7,30.1,16.8,30.1,17.9z"/>
		<path fill="#F8B64C" d="M29,17.9c0,1.3-0.5,2.5-1.3,3.4h-7.3c-0.8-0.9-1.3-2.1-1.3-3.4c0-1.2,0.4-2.3,1.1-3.1
			c0.9-1.1,2.3-1.9,3.9-1.9s3,0.7,3.9,1.9C28.6,15.7,29,16.7,29,17.9z"/>
		<path fill="#FFD15C" d="M24.4,17.4v-1c0.4,0.1,0.7,0.2,1,0.5L26,16c-0.4-0.4-0.9-0.6-1.6-0.7v-0.7h-0.7v0.7
			c-1,0.1-1.6,0.8-1.6,1.5c0,1,0.9,1.3,1.6,1.5v1.2c-0.5-0.1-0.9-0.4-1.2-0.6l-0.6,0.8c0.4,0.4,1,0.7,1.8,0.8v0.7h0.7v-0.7
			c1.1-0.1,1.7-0.8,1.7-1.6C26.1,17.9,25.2,17.6,24.4,17.4z M23.7,17.2c-0.3-0.1-0.5-0.2-0.5-0.4c0-0.3,0.2-0.4,0.5-0.5V17.2z
			 M24.4,19.6v-1c0.3,0.1,0.6,0.2,0.6,0.5C25,19.3,24.8,19.5,24.4,19.6z"/>
	</g>
	<g>
		<circle fill="#FFD15C" cx="15" cy="6.1" r="6.1"/>
		<circle fill="#F8B64C" cx="15" cy="6.1" r="5"/>
		<path fill="#FFD15C" d="M14.7,8.7c-0.8-0.1-1.4-0.4-1.8-0.8l0.6-0.8c0.3,0.3,0.7,0.6,1.2,0.7V6.6C13.9,6.4,13,6.1,13,5
			c0-0.8,0.6-1.4,1.6-1.5V2.8h0.7v0.7C16,3.6,16.5,3.8,17,4.2L16.4,5c-0.3-0.3-0.6-0.4-1-0.5v1.1c0.8,0.2,1.7,0.5,1.7,1.5
			c0,0.8-0.6,1.5-1.7,1.6v0.7h-0.7V8.7z M14.7,5.4V4.5c-0.3,0-0.5,0.2-0.5,0.5C14.2,5.2,14.4,5.3,14.7,5.4z M15.4,6.7v1
			C15.8,7.7,16,7.5,16,7.2C16,7,15.7,6.8,15.4,6.7z"/>
	</g>
	<g>
		<circle fill="#FFD15C" cx="30.9" cy="6.1" r="6.1"/>
		<circle fill="#F8B64C" cx="30.9" cy="6.1" r="5"/>
		<path fill="#FFD15C" d="M30.6,8.7c-0.8-0.1-1.4-0.4-1.8-0.8l0.6-0.8c0.3,0.3,0.7,0.6,1.2,0.7V6.6C29.8,6.4,29,6.1,29,5
			c0-0.8,0.6-1.4,1.6-1.5V2.8h0.7v0.7c0.6,0.1,1.1,0.3,1.6,0.7L32.3,5c-0.3-0.3-0.6-0.4-1-0.5v1.1C32.1,5.8,33,6.1,33,7.1
			c0,0.8-0.6,1.5-1.7,1.6v0.7h-0.7V8.7z M30.6,5.4V4.5c-0.3,0-0.5,0.2-0.5,0.5C30.1,5.2,30.3,5.3,30.6,5.4z M31.3,6.7v1
			c0.4-0.1,0.6-0.3,0.6-0.5C31.9,7,31.7,6.8,31.3,6.7z"/>
	</g>
</g>
</svg>
