<?xml version="1.0" encoding="utf-8"?>
<!-- Generator: Adobe Illustrator 18.0.0, SVG Export Plug-In . SVG Version: 6.00 Build 0)  -->
<!DOCTYPE svg PUBLIC "-//W3C//DTD SVG 1.1//EN" "http://www.w3.org/Graphics/SVG/1.1/DTD/svg11.dtd">
<svg version="1.1" id="Layer_1" xmlns="http://www.w3.org/2000/svg" xmlns:xlink="http://www.w3.org/1999/xlink" x="0px" y="0px"
	 viewBox="0 0 48 48" enable-background="new 0 0 48 48" xml:space="preserve">
<g>
	<g>
		<path fill="#2E4556" d="M38.3,24.3l8.8,6c0.5,0.3,0.7,0.8,0.7,1.3v8.8c0,0.5-0.3,1-0.7,1.3l-8.8,6c-0.4,0.3-0.9,0.4-1.4,0.4V23.9
			C37.4,23.9,37.9,24.1,38.3,24.3z"/>
		<path fill="#334A5E" d="M26.8,30.3l8.8-6c0.4-0.3,0.9-0.4,1.4-0.4V48h0c-0.5,0-1-0.1-1.4-0.4l-8.8-6c-0.5-0.3-0.7-0.8-0.7-1.3
			v-8.8C26,31.1,26.3,30.6,26.8,30.3z"/>
		<g>
			<path fill="#40596B" d="M26.1,31.6c0,0.5,0.3,1,0.7,1.3l8.8,6c0.4,0.3,0.9,0.4,1.4,0.4c0.5,0,1-0.1,1.4-0.4l8.8-6
				c0.5-0.3,0.7-0.8,0.7-1.3c0-0.5-0.3-0.9-0.7-1.3l-8.8-6c-0.8-0.5-1.9-0.5-2.7,0l-8.8,6C26.3,30.6,26.1,31.1,26.1,31.6z"/>
		</g>
		<g>
			<path fill="#40596B" d="M26.1,31.6c0,0.5,0.3,1,0.7,1.3l8.8,6c0.4,0.3,0.9,0.4,1.4,0.4c0.5,0,1-0.1,1.4-0.4l8.8-6
				c0.5-0.3,0.7-0.8,0.7-1.3c0-0.5-0.3-0.9-0.7-1.3l-8.8-6c-0.8-0.5-1.9-0.5-2.7,0l-8.8,6C26.3,30.6,26.1,31.1,26.1,31.6z"/>
		</g>
		<polygon fill="#FFFFFF" points="45.4,31.6 36.9,25.8 28.4,31.6 36.9,37.4 		"/>
		<polygon fill="#FF7058" points="41.5,31.6 36.9,28.4 32.3,31.6 36.9,34.7 		"/>
		<polygon fill="#F2F2F2" points="39,31.6 36.9,30.2 34.8,31.6 36.9,33 		"/>
	</g>
	<g>
		<path fill="#2E4556" d="M12.2,24.3l8.8,6c0.5,0.3,0.7,0.8,0.7,1.3v8.8c0,0.5-0.3,1-0.7,1.3l-8.8,6c-0.4,0.3-0.9,0.4-1.4,0.4V23.9
			C11.3,23.9,11.8,24.1,12.2,24.3z"/>
		<path fill="#334A5E" d="M0.7,30.3l8.8-6c0.4-0.3,0.9-0.4,1.4-0.4V48h0c-0.5,0-1-0.1-1.4-0.4l-8.8-6C0.3,41.3,0,40.8,0,40.4v-8.8
			C0,31.1,0.3,30.6,0.7,30.3z"/>
		<g>
			<path fill="#40596B" d="M0,31.6c0,0.5,0.3,1,0.7,1.3l8.8,6c0.4,0.3,0.9,0.4,1.4,0.4c0.5,0,1-0.1,1.4-0.4l8.8-6
				c0.5-0.3,0.7-0.8,0.7-1.3c0-0.5-0.3-0.9-0.7-1.3l-8.8-6c-0.8-0.5-1.9-0.5-2.7,0l-8.8,6C0.3,30.6,0,31.1,0,31.6z"/>
		</g>
		<g>
			<path fill="#40596B" d="M0,31.6c0,0.5,0.3,1,0.7,1.3l8.8,6c0.4,0.3,0.9,0.4,1.4,0.4c0.5,0,1-0.1,1.4-0.4l8.8-6
				c0.5-0.3,0.7-0.8,0.7-1.3c0-0.5-0.3-0.9-0.7-1.3l-8.8-6c-0.8-0.5-1.9-0.5-2.7,0l-8.8,6C0.3,30.6,0,31.1,0,31.6z"/>
		</g>
		<polygon fill="#FFFFFF" points="19.3,31.6 10.8,25.8 2.4,31.6 10.8,37.4 		"/>
		<polygon fill="#FF7058" points="15.5,31.6 10.8,28.4 6.2,31.6 10.8,34.7 		"/>
		<polygon fill="#F2F2F2" points="12.9,31.6 10.8,30.2 8.8,31.6 10.8,33 		"/>
	</g>
	<g>
		<path fill="#4CDBC4" d="M4.6,26.6L4.6,26.6c0.2,0.5,0.7,0.7,1.1,0.5l40.7-14.9c1.3-0.5,1.9-1.9,1.4-3.2l0,0
			c-0.5-1.3-2-1.9-3.2-1.3L5,25.4C4.6,25.6,4.4,26.1,4.6,26.6z"/>
		<path fill="#FFD15C" d="M10.6,35.1L10.6,35.1c-0.4-0.3-0.4-0.9-0.1-1.3l28.1-33c0.9-1,2.5-1.1,3.5-0.2l0,0c1,0.9,1.1,2.5,0.1,3.5
			l-30.3,31C11.5,35.4,10.9,35.5,10.6,35.1z"/>
	</g>
</g>
</svg>
