<?xml version="1.0" encoding="utf-8"?>
<!-- Generator: Adobe Illustrator 20.1.0, SVG Export Plug-In . SVG Version: 6.00 Build 0)  -->
<!DOCTYPE svg PUBLIC "-//W3C//DTD SVG 1.1//EN" "http://www.w3.org/Graphics/SVG/1.1/DTD/svg11.dtd">
<svg version="1.1" id="Layer_1" xmlns="http://www.w3.org/2000/svg" xmlns:xlink="http://www.w3.org/1999/xlink" x="0px" y="0px"
	 viewBox="0 0 49 49" enable-background="new 0 0 49 49" xml:space="preserve">
<g>
	<rect x="32.8" y="4" fill="#CDD6E0" width="4.9" height="8"/>
	<rect x="32" y="1.6" fill="#ACB3BA" width="6.3" height="2.3"/>
	<path fill="#F2F2F2" d="M44.8,22.4v24.1c0,1.1-0.9,2-2,2H6.2c-1.1,0-2-0.9-2-2V22.4H44.8z"/>
	<path fill="#FF7058" d="M23.1,1.1L1.1,19.1c-1.2,1.2-0.4,3.3,1.4,3.3h44.2c1.7,0,2.6-2.1,1.4-3.3L25.9,1.1
		C25.1,0.3,23.9,0.3,23.1,1.1z"/>
	<rect x="4.2" y="22.4" fill="#E4EAEF" width="40.7" height="1.5"/>
	<rect x="26.7" y="34.6" fill="#54C0EB" width="6.4" height="9.3"/>
	<rect x="34.2" y="34.6" fill="#54C0EB" width="6.4" height="9.3"/>
	<path fill="#CDD6E0" d="M44.8,45.8v0.7c0,1.1-0.9,2-2,2H6.2c-1.1,0-2-0.9-2-2v-0.7H44.8z"/>
	
		<rect x="5.9" y="32.6" transform="matrix(-1.836970e-16 1 -1 -1.836970e-16 54.3746 24.2393)" fill="#40596B" width="18.4" height="13.3"/>
</g>
</svg>
