<?xml version="1.0" encoding="utf-8"?>
<!-- Generator: Adobe Illustrator 18.0.0, SVG Export Plug-In . SVG Version: 6.00 Build 0)  -->
<!DOCTYPE svg PUBLIC "-//W3C//DTD SVG 1.1//EN" "http://www.w3.org/Graphics/SVG/1.1/DTD/svg11.dtd">
<svg version="1.1" id="Layer_1" xmlns="http://www.w3.org/2000/svg" xmlns:xlink="http://www.w3.org/1999/xlink" x="0px" y="0px"
	 viewBox="0 0 48 48" enable-background="new 0 0 48 48" xml:space="preserve">
<g>
	<g>
		<g>
			<path fill="#435B6C" d="M41.9,26.7c-0.4,0-0.9-0.1-1.7-0.1c-0.7-0.1-1.5-0.2-2.5-0.3c-1-0.1-2-0.4-3-0.7c-2.1-0.6-4.4-1.6-6-3
				c-1.6-1.3-2.4-3.1-2-4.8c0.1-0.4,0.3-0.8,0.5-1.3c0,0,0.3-0.4,0.4-0.6c0-0.1,0.1-0.2,0.1-0.2c0.1-0.1,0.4-0.3,0.5-0.4
				c0.4-0.3,0.8-0.6,1.2-0.9c0.4-0.3,0.8-0.6,1.2-1c0.7-0.6,1.4-1.3,2.1-1.9c1.2-1.3,2.1-2.5,2.6-3.7c0.5-1.2,0.5-2.3,0.2-3.3
				c-0.3-0.9-1-1.7-1.8-2.3c-0.7-0.6-1.5-1-2.2-1.4c-0.7-0.3-1.2-0.6-1.6-0.7C29.6,0.1,29.4,0,29.4,0l-3.1,1c0,0,0.1,0.1,0.3,0.3
				c0.2,0.2,0.4,0.5,0.7,0.8c0.5,0.7,1,1.8,0.2,3c-0.7,1.2-2.6,2.6-5.5,4.1c-0.7,0.4-1.6,0.7-2.4,1.1c-0.4,0.2-0.9,0.4-1.3,0.5
				c-0.5,0.2-1,0.4-1.5,0.6c-0.3,0.1-0.5,0.2-0.8,0.3l-1.1,0.6c-0.4,0.2-0.7,0.4-1.1,0.5l-1,0.5c-1.3,0.7-2.5,1.5-3.5,2.3
				c-4.4,3.4-6.7,7.4-7.1,11.2C1.7,31,3.5,35,6.4,38.1c1.5,1.7,3.2,3.1,5,4.3c1.8,1.3,3.6,2.3,5.1,3.1c1.6,0.8,2.9,1.4,3.9,1.8
				c1,0.4,1.5,0.6,1.5,0.6l20.6-21.3C42.4,26.7,42.2,26.7,41.9,26.7z"/>
			<g>
				<path fill="#FFFFFF" d="M32.2,4.3c-0.1-0.5-0.5-1.2-1.1-1.8c-0.6-0.6-1.3-1.1-2-1.5c-0.6-0.4-1.1-0.6-1.1-0.6l-0.6,0.2
					c0,0,0.4,0.2,0.9,0.6C29,1.6,29.6,2.1,30,2.7c0.5,0.6,0.7,1.2,0.7,1.7c0,0.2,0,0.5,0,0.6c0,0.1,0,0.2,0,0.2l1.6-0.1
					c0,0,0-0.1,0-0.3C32.3,4.8,32.2,4.6,32.2,4.3z"/>
				<path fill="#FFFFFF" d="M23.7,13.6c0.2-0.1,0.5-0.3,0.8-0.5c0.3-0.2,0.5-0.3,0.8-0.5c0.5-0.3,1.1-0.7,1.6-1.1
					c1.1-0.7,2-1.5,2.6-2.1c0.3-0.3,0.6-0.5,0.7-0.7c0.2-0.2,0.2-0.3,0.2-0.3l-1.9-0.3c0,0-0.1,0.1-0.3,0.2
					c-0.2,0.1-0.4,0.4-0.8,0.6c-0.7,0.5-1.6,1.2-2.7,1.9c-0.5,0.3-1.1,0.7-1.7,1c-0.3,0.2-0.6,0.3-0.8,0.4c-0.3,0.1-0.5,0.3-0.7,0.4
					c-1.1,0.5-1.7,0.9-1.7,0.9l2.5,0.7C22.4,14.4,22.9,14.1,23.7,13.6z"/>
				<path fill="#FFFFFF" d="M17.8,23.5c-0.2-0.6-0.3-1.5-0.2-2.4c0.1-0.9,0.4-1.7,0.7-2.3c0.2-0.3,0.3-0.5,0.4-0.7
					c0.1-0.2,0.2-0.3,0.2-0.3l-3.6-0.3c0,0-0.1,0.1-0.2,0.3c-0.1,0.2-0.4,0.5-0.6,0.9c-0.5,0.7-1,1.7-1.3,2.7c-0.3,1-0.4,2-0.3,2.8
					c0,0.8,0.2,1.3,0.2,1.3l5.1-0.9C18.1,24.6,18,24.1,17.8,23.5z"/>
				<path fill="#FFFFFF" d="M24.9,31.1c-1.2-0.7-2.3-1.4-3.1-2c-0.4-0.3-0.6-0.5-0.8-0.7c-0.2-0.2-0.3-0.3-0.3-0.3l-5.5,1.8
					c0,0,0.1,0.1,0.3,0.3c0.2,0.2,0.5,0.6,0.8,0.9c0.7,0.7,1.9,1.7,3.2,2.6c1.4,0.9,2.9,1.7,4.2,2.3c1.3,0.6,2.2,1,2.2,1l4.6-3.5
					c0,0-0.8-0.2-1.9-0.7C27.6,32.4,26.2,31.8,24.9,31.1z"/>
			</g>
		</g>
		<g>
			<rect x="37.9" y="17.5" fill="#FFD15D" width="2.1" height="8.7"/>
			<g>
				<polygon fill="#4ABAA5" points="39,9 32.8,16.9 45.1,16.9 				"/>
				<polygon fill="#4ABAA5" points="39,12.9 31.7,22.2 46.3,22.2 				"/>
				<polygon fill="#4ABAA5" points="39,5.3 33.7,12 44.3,12 				"/>
			</g>
		</g>
		<g>
			<rect x="10.1" y="9" fill="#FFD15D" width="1.5" height="6.4"/>
			<g>
				<polygon fill="#4ABAA5" points="10.8,2.7 6.3,8.5 15.4,8.5 				"/>
				<polygon fill="#4ABAA5" points="10.8,5.6 5.5,12.4 16.2,12.4 				"/>
				<polygon fill="#4ABAA5" points="10.8,0 6.9,5 14.7,5 				"/>
			</g>
		</g>
		<g>
			<rect x="8.1" y="31" fill="#FFD15D" width="2.1" height="8.9"/>
			<g>
				<polygon fill="#4ABAA5" points="9.2,22.3 2.9,30.4 15.5,30.4 				"/>
				<polygon fill="#4ABAA5" points="9.2,26.4 1.7,35.8 16.6,35.8 				"/>
				<polygon fill="#4ABAA5" points="9.2,18.5 3.8,25.4 14.6,25.4 				"/>
			</g>
		</g>
	</g>
</g>
</svg>
