<?xml version="1.0" encoding="utf-8"?>
<!-- Generator: Adobe Illustrator 18.0.0, SVG Export Plug-In . SVG Version: 6.00 Build 0)  -->
<!DOCTYPE svg PUBLIC "-//W3C//DTD SVG 1.1//EN" "http://www.w3.org/Graphics/SVG/1.1/DTD/svg11.dtd">
<svg version="1.1" id="Layer_1" xmlns="http://www.w3.org/2000/svg" xmlns:xlink="http://www.w3.org/1999/xlink" x="0px" y="0px"
	 viewBox="0 0 48 48" enable-background="new 0 0 48 48" xml:space="preserve">
<g>
	<path fill="#CDD6E0" d="M33.4,3H6.8C5.9,3,5.2,3.7,5.2,4.6v41.7c0,0.9,0.7,1.6,1.6,1.6h31.4c0.9,0,1.6-0.7,1.6-1.6V9.4L33.4,3z"/>
	<path fill="#F2F2F2" d="M9.8,45h31.4c0.9,0,1.6-0.7,1.6-1.6V11.5L31.3,0H9.8C8.9,0,8.2,0.7,8.2,1.6v41.7C8.2,44.3,8.9,45,9.8,45z"
		/>
	<path fill="#CDD6E0" d="M31.3,9.9c0,0.9,0.7,1.6,1.6,1.6h9.9L31.3,0V9.9z"/>
	<rect x="12" y="23.2" fill="#CDD6E0" width="27.1" height="2"/>
	<rect x="27.1" y="16" fill="#FF7058" width="11.9" height="2"/>
	<rect x="12" y="30.4" fill="#CDD6E0" width="27.1" height="2"/>
	<rect x="12" y="37.5" fill="#FFD15C" width="13.5" height="2"/>
	<rect x="12" y="3.8" fill="#84DBFF" width="11.4" height="14.3"/>
</g>
</svg>
