<?xml version="1.0" encoding="utf-8"?>
<!-- Generator: Adobe Illustrator 18.0.0, SVG Export Plug-In . SVG Version: 6.00 Build 0)  -->
<!DOCTYPE svg PUBLIC "-//W3C//DTD SVG 1.1//EN" "http://www.w3.org/Graphics/SVG/1.1/DTD/svg11.dtd">
<svg version="1.1" id="Layer_1" xmlns="http://www.w3.org/2000/svg" xmlns:xlink="http://www.w3.org/1999/xlink" x="0px" y="0px"
	 viewBox="0 0 48 48" enable-background="new 0 0 48 48" xml:space="preserve">
<g>
	<g>
		<g>
			<g>
				<path fill="#47BAA4" d="M24.9,32.8c-0.3-4.6,0.5-7.9,0.5-7.9c2.8-8.5,0.5-15.7,0.5-15.7L25,9.4c1.9,6.7-1.3,14.4-1.3,14.4
					c-0.9,3-1.1,6.3-1.1,9H24.9z"/>
			</g>
			<g>
				<g>
					<g>
						<path fill="#66C6B9" d="M22.1,32.8H24c0.3-12-2.6-26.2-19.8-18.6C4.2,14.2,18.8,15.5,22.1,32.8z"/>
					</g>
					<g>
						<g>
							<path fill="#47BAA4" d="M26,32.8c6.2-13.2,17.8-10.7,17.8-10.7c-11.4-10-16.7,1.6-18.9,10.7H26z"/>
						</g>
						<g>
							<g>
								<path fill="#66C6B9" d="M27.6,32.8c1.9-15.6,9.5-21.7,10-22c-0.7,0.2-10.8,4.3-14.5,22H27.6z"/>
							</g>
						</g>
					</g>
					<g>
						<path fill="#47BAA4" d="M19.6,32.8h4.1C17.1,19.1,5.5,22.5,5.5,22.5S13.9,21.8,19.6,32.8z"/>
					</g>
				</g>
				<g>
					<g>
						<g>
							<g>
								<path fill="#F3705A" d="M18.8,16.9c-0.6-0.2-1.4-0.4-2-0.1c-1.1,1.2-0.6,0.1-0.5-1.3c0.1-1.2,0.8-2.2,1.8-2.7
									c0.1,0,0.1,0,0.2-0.1c1.3-0.6,2.1-0.7,2.1-0.7s-7.4-0.6-9.9-3.6c0,0,1.8-3.4,7.2-1.7l5.9,2.3c0,0-5.1-1.4-6.7-4
									c-0.5-0.8-0.3-2,0.5-2.6c0.7-0.5,1.6-0.9,2.6-0.6c0,0,0.7-0.1,0.9-0.6c0.2-0.4,2.1-0.7,2.1-0.7s3.6-2.1,4.5,1.4
									c0,0,0.5,1.7,0,3.6c0,0,1.2-3.2,2-3.8c0.7-0.7,3-2.4,5.4-1.1c2.4,1.3,2.8,1.5,2.8,1.5s0.6,0.9,1.3,0.7c0,0-1.5,1.4-1.7,2.7
									c-0.2,1.3-2,2-2,2s2.3,0.9,2.9,0.4c0,0-1.1,1.1-1,2c0.1,0.9-0.5,4-3.9,3.9c0,0-3.4,3.5-5.1,1.2c0,0-2.4,1.8-5.4,2.3
									C21.4,17.6,20.1,17.4,18.8,16.9z"/>
							</g>
						</g>
						<g>
							<path fill="#F05540" d="M26.7,9.5c0,0,0-0.3,0-0.7c0-0.2,0-0.4,0.1-0.7c0-0.3,0.1-0.5,0.1-0.8C27,7.1,27,6.8,27.1,6.6
								c0.1-0.2,0.1-0.5,0.2-0.7c0.1-0.4,0.2-0.7,0.2-0.7s0,0.3-0.1,0.7c0,0.2-0.1,0.4-0.1,0.7c-0.1,0.2-0.1,0.5-0.1,0.8
								c0,0.3-0.1,0.5-0.1,0.8c0,0.2-0.1,0.5-0.1,0.7C26.8,9.3,26.7,9.5,26.7,9.5z"/>
						</g>
						<g>
							<g>
								<path fill="#F05540" d="M24,9.1c-0.9,0-1.7,0-2.6-0.2c0.2,0.1,0.4,0.2,0.7,0.2c-0.4,0-0.8,0-1.2,0.1
									c0.3,0.1,0.6,0.2,0.9,0.3c-0.2,0-0.3,0.1-0.5,0.1c0.5,0.2,0.9,0.5,1.4,0.7c0,0,0.1,0,0.1,0.1c0,0,0,0.1-0.1,0.1
									c0.2,0,0.5-0.1,0.7-0.1c-0.2,0.3-0.3,0.6-0.5,0.9c0.2-0.1,0.3-0.2,0.4-0.4c0,0.2,0,0.4,0,0.6c0.1-0.1,0.2-0.2,0.2-0.4
									c0,0.1,0.1,0.2,0.1,0.3c0-0.1,0-0.2,0.1-0.2c0.1-0.1,0.1-0.1,0.2,0c0,0,0.1,0.1,0.1,0.2c0,0.2,0.1,0.4,0.1,0.7
									c0.3-0.4,0.6-0.8,1-1.2c0.1,0.3,0.2,0.5,0.3,0.8c0-0.1,0.1-0.2,0.2-0.2c0.1,0.2,0.1,0.4,0.2,0.7c0-0.2,0.1-0.4,0.2-0.6
									c0.3,0.2,0.6,0.5,0.7,0.8c0-0.3-0.1-0.7-0.1-1c0.1,0.1,0.2,0.1,0.2,0.1c0-0.1-0.1-0.3-0.1-0.4c0.2,0.2,0.5,0.3,0.7,0.4
									c-0.2-0.2-0.4-0.4-0.7-0.6c0.3,0,0.7,0,1,0c-0.3,0-0.5-0.1-0.8-0.1c0.3-0.1,0.7-0.2,1-0.4c-0.1-0.1-0.1-0.1-0.2-0.2
									c0.3-0.1,0.6-0.2,0.8-0.3c0.1,0,0.1-0.2,0.2-0.3c-0.4,0.1-0.9,0.2-1.3,0.2c0.5-0.2,1.1-0.5,1.5-0.9C29.1,9,29,9,28.8,9.1
									c0-0.1,0.1-0.1,0.1-0.1c0-0.1,0.1-0.2,0.1-0.3c-0.5,0.4-1,0.7-1.6,0.9c0.8-0.6,1.5-1.2,2.3-1.8c-0.7,0.3-1.3,0.6-2,0.8
									c0.4-0.6,1.2-1,1.5-1.7c-0.3,0.4-0.7,0.7-1.2,0.9c0.1-0.3,0.1-0.7,0.2-1c-0.1,0.2-0.2,0.3-0.3,0.4c0-0.1,0-0.3,0-0.4
									c-0.1,0.1-0.3,0.2-0.4,0.2c0-0.1-0.1-0.2-0.1-0.4c-0.3,0.7-0.6,1.4-1,2.1c-0.1-0.7-0.1-1.3-0.2-2c0,0.4-0.1,0.8-0.1,1.2
									c-0.1-0.1-0.1-0.2-0.1-0.2c0,0.1,0,0.3-0.1,0.4c-0.1-0.6-0.3-1.2-0.4-1.8c0,0.9-0.2,1.2-0.2,2.1c-0.3-1-0.8-1.2-1.5-1.9
									c0.2,0.4,0.4,0.8,0.5,1.2c-0.3-0.2-0.6-0.5-0.8-0.8c0.1,0.3,0.2,0.6,0.4,0.9c-0.1,0-0.2-0.1-0.2-0.1C23.8,7.9,23.9,8,24,8.2
									c-0.4-0.3-0.7-0.5-1.1-0.7c0.3,0.4,0.7,0.8,1,1.1c-0.2-0.1-0.5-0.2-0.7-0.3C23.4,8.5,23.7,8.8,24,9.1"/>
							</g>
							<g>
								<g>
									<path fill="#F7B64C" d="M26.7,8.7c0.1-0.3,0.3-0.5,0.5-0.6c0,0.4-0.2,0.9-0.4,1.3c0.1-0.1,0.3-0.1,0.4-0.2
										c-0.1,0.2-0.3,0.4-0.6,0.5c0.2,0.1,0.5,0.2,0.8,0.2c-0.1,0-0.3,0-0.4,0c0.1,0.2,0.3,0.3,0.4,0.3c-0.4,0-0.8,0-1.2,0
										c0.1,0.2,0.2,0.4,0.3,0.6c-0.2-0.1-0.4-0.2-0.6-0.3c0,0.2,0,0.5,0,0.7c-0.2-0.1-0.3-0.3-0.4-0.5c0,0.2,0,0.4-0.1,0.6
										c0,0.1,0,0.2-0.1,0.2c0,0-0.1-0.1-0.1-0.1c-0.1-0.2-0.2-0.5-0.3-0.7c-0.2,0.2-0.4,0.3-0.6,0.4c0.1-0.2,0.2-0.5,0.3-0.7
										c-0.2,0.1-0.4,0.1-0.7,0.1c0.1-0.2,0.2-0.4,0.4-0.6c-0.1,0-0.1,0-0.2,0c-0.1,0-0.1-0.1-0.2-0.1c0-0.1,0-0.1,0.1-0.2
										c0.1,0,0.1,0,0.2-0.1c-0.3-0.1-0.5-0.2-0.8-0.3c0.1,0,0.2,0,0.4,0c0-0.2,0-0.3,0-0.5C24.2,9,24.2,9,24.3,9.1
										c0-0.2-0.1-0.5-0.1-0.7c0.2,0.3,0.4,0.1,0.7,0.3c0-0.2-0.1-0.3-0.1-0.5c0.2,0.2,0.5,0.5,0.7,0.7c0.1-0.3,0.2-0.6,0.3-0.9
										c0.1,0.2,0.1,0.4,0.2,0.6c0.1-0.1,0.2-0.8,0.2-0.9c0,0.1,0,1.1,0.1,1.2c0-0.1,0.1-0.2,0.1-0.3c0,0.1,0,0.3,0,0.4
										c0-0.2,0.2-0.4,0.5-0.5"/>
								</g>
								<g>
									<path fill="#FFD15C" d="M26.9,10c-0.2,0-0.4,0-0.6,0c0,0.2,0,0.4,0,0.6c-0.1-0.1-0.3-0.2-0.4-0.3c0,0.2,0,0.3,0,0.5
										c-0.1-0.1-0.2-0.3-0.3-0.4c0,0.2-0.1,0.5-0.1,0.7c-0.2-0.2-0.3-0.5-0.3-0.7c-0.1,0.1-0.1,0.3-0.2,0.4c0-0.2,0-0.4,0-0.5
										c-0.1,0.1-0.3,0-0.4,0c0.2-0.1,0.3-0.2,0.4-0.4l0,0c-0.1,0.1-0.3,0-0.4-0.1c0.1,0,0.2,0,0.3-0.1c-0.1,0-0.2,0-0.3,0
										c-0.1,0-0.1-0.1-0.1-0.2c0-0.1,0.1-0.2,0.2-0.1c-0.1-0.2-0.2-0.4-0.3-0.6c0.2,0.2,0.9,0.5,1.1,0.5c0,0,0.3-0.4,0.4-0.6
										c0,0.4,0.1,0.7,0.3,1.1c0.1-0.3,0.2-0.5,0.3-0.8c0,0.2,0,0.4,0,0.6c0.1-0.2,0.1-0.4,0.2-0.6c0,0.2,0,0.4,0,0.6
										c0.2-0.3,0.3-0.6,0.5-0.9c0,0.2,0,0.4-0.1,0.5c-0.1,0.1-0.2,0.3-0.2,0.5C26.6,9.8,26.8,10,26.9,10z"/>
								</g>
							</g>
						</g>
						<g>
							<g>
								<path fill="#F05540" d="M29,6.5c0,0,0.2-0.4,0.5-1c0.3-0.6,0.9-1.3,1.5-2c0.3-0.3,0.7-0.6,1-0.9c0.2-0.1,0.4-0.2,0.5-0.3
									c0.2-0.1,0.4-0.1,0.5-0.2c0.2,0,0.3-0.1,0.5-0.1c0.1,0,0.3,0,0.4,0c0.2,0,0.3,0,0.3,0S34.2,2,34,2c-0.1,0-0.2,0-0.4,0.1
									c-0.1,0-0.3,0.1-0.4,0.1c-0.2,0.1-0.3,0.1-0.5,0.2c-0.2,0.1-0.3,0.2-0.5,0.3c-0.3,0.2-0.7,0.5-1,0.9c-0.3,0.3-0.6,0.7-0.9,1
									c-0.3,0.3-0.5,0.7-0.7,0.9C29.2,6.1,29,6.5,29,6.5z"/>
							</g>
							<g>
								<path fill="#F05540" d="M30.6,5.2c0,0,0.2-0.3,0.6-0.7c0.2-0.2,0.4-0.4,0.7-0.6c0.3-0.2,0.6-0.4,0.9-0.6
									c0.3-0.2,0.7-0.4,1-0.5c0.2-0.1,0.3-0.1,0.5-0.2c0.2,0,0.3-0.1,0.4-0.1c0.3,0,0.5-0.1,0.7-0.1c0.2,0,0.3,0,0.3,0
									s-0.1,0-0.3,0c-0.2,0-0.4,0.1-0.7,0.1c-0.1,0-0.3,0.1-0.4,0.1c-0.2,0-0.3,0.1-0.5,0.2c-0.3,0.1-0.6,0.3-1,0.5
									C31.6,4.1,30.6,5.2,30.6,5.2z"/>
							</g>
							<g>
								<path fill="#F05540" d="M30.8,6.7c0,0,0.3-0.3,0.8-0.7c0.5-0.4,1.2-0.9,2-1.3c0.4-0.2,0.8-0.4,1.1-0.6
									c0.4-0.2,0.7-0.3,1-0.4c0.3-0.1,0.6-0.2,0.8-0.2c0.2,0,0.3,0,0.3,0s-0.1,0-0.3,0.1c-0.2,0-0.4,0.1-0.7,0.2
									c-0.3,0.1-0.6,0.3-1,0.4c-0.4,0.2-0.7,0.4-1.1,0.6c-0.7,0.4-1.5,0.9-2,1.3C31.1,6.4,30.8,6.7,30.8,6.7z"/>
							</g>
							<g>
								<path fill="#F05540" d="M29.4,10.3c0,0,0.4-0.1,1.1-0.1c0.6-0.1,1.5-0.1,2.3,0c0.4,0.1,0.8,0.1,1.2,0.3
									c0.2,0,0.4,0.1,0.5,0.2c0.2,0.1,0.3,0.2,0.5,0.2c0.1,0.1,0.2,0.2,0.4,0.3c0.1,0.1,0.2,0.2,0.2,0.2c0.1,0.1,0.2,0.2,0.2,0.2
									s-0.1-0.1-0.2-0.2c-0.1-0.1-0.1-0.1-0.3-0.2c-0.1-0.1-0.2-0.2-0.4-0.2c-0.1-0.1-0.3-0.2-0.5-0.2c-0.2-0.1-0.3-0.1-0.5-0.2
									c-0.4-0.1-0.8-0.2-1.2-0.2c-0.4-0.1-0.8-0.1-1.2-0.1c-0.4,0-0.8,0-1.1,0C29.8,10.2,29.4,10.3,29.4,10.3z"/>
							</g>
							<g>
								<path fill="#F05540" d="M29.4,8.9c0,0,0.3-0.1,0.9-0.3c0.5-0.2,1.2-0.4,2-0.5c0.7-0.2,1.4-0.3,2-0.4
									c0.6-0.1,0.9-0.1,0.9-0.1s-0.4,0.1-0.9,0.2c-0.5,0.1-1.3,0.3-2,0.4C30.8,8.6,29.4,8.9,29.4,8.9z"/>
							</g>
							<g>
								<path fill="#F05540" d="M23,12.4c0,0-1.5,0.7-2.8,1.6c-0.7,0.4-1.3,0.9-1.8,1.3c-0.2,0.2-0.4,0.4-0.5,0.5
									c-0.1,0.1-0.2,0.2-0.2,0.2s0.1-0.1,0.2-0.2c0.1-0.1,0.3-0.3,0.5-0.5c0.4-0.4,1.1-0.9,1.8-1.4c0.7-0.4,1.4-0.8,2-1.1
									C22.6,12.5,23,12.4,23,12.4z"/>
							</g>
							<g>
								<path fill="#F05540" d="M30.2,10.8c0,0,0.3,0,0.8,0.1c0.5,0.1,1.2,0.2,1.8,0.4c0.3,0.1,0.6,0.2,0.9,0.4
									c0.1,0.1,0.3,0.2,0.4,0.2c0.1,0.1,0.2,0.2,0.3,0.2c0.1,0.1,0.2,0.2,0.2,0.2c0.1,0.1,0.1,0.1,0.2,0.2
									c0.1,0.1,0.1,0.2,0.1,0.2s-0.1-0.1-0.1-0.2c0-0.1-0.1-0.1-0.2-0.2c-0.1-0.1-0.1-0.2-0.3-0.2c-0.1-0.1-0.2-0.2-0.3-0.2
									c-0.1-0.1-0.3-0.1-0.4-0.2c-0.3-0.1-0.6-0.3-0.9-0.4c-0.6-0.2-1.3-0.3-1.8-0.4C30.5,10.9,30.2,10.8,30.2,10.8z"/>
							</g>
							<g>
								<path fill="#F05540" d="M20.5,9.4c0,0-0.5-0.1-1.3-0.2c-0.8-0.1-1.9-0.3-3-0.5c-1.1-0.2-2.2-0.3-3-0.3c-0.8-0.1-1.4,0-1.4,0
									s0.1,0,0.4,0c0.1,0,0.3,0,0.4,0c0.2,0,0.4,0,0.6,0c0.8,0,1.9,0.1,3,0.3c1.1,0.2,2.2,0.4,3,0.5C20,9.2,20.5,9.4,20.5,9.4z"/>
							</g>
							<g>
								<path fill="#F05540" d="M20.9,8.6c0,0-0.4-0.1-1-0.3c-0.6-0.2-1.4-0.4-2.3-0.6c-0.8-0.2-1.7-0.4-2.3-0.5
									C15,7.1,14.7,7.1,14.5,7c-0.2,0-0.3,0-0.3,0s0.1,0,0.3,0c0.1,0,0.2,0,0.3,0c0.1,0,0.3,0,0.4,0c0.6,0.1,1.5,0.2,2.3,0.4
									c0.8,0.2,1.6,0.5,2.3,0.7C20.5,8.4,20.9,8.6,20.9,8.6z"/>
							</g>
							<g>
								<path fill="#F05540" d="M26.5,7.1c0,0,0-0.4,0-1c0-0.6-0.1-1.4-0.2-2.2c0-0.4-0.1-0.8-0.1-1.2c-0.1-0.4-0.1-0.7-0.2-1
									c-0.1-0.3-0.1-0.5-0.2-0.7c-0.1-0.2-0.1-0.3-0.1-0.3s0,0.1,0.1,0.2c0.1,0.2,0.2,0.4,0.3,0.7c0.1,0.3,0.2,0.6,0.2,1
									c0.1,0.4,0.1,0.8,0.2,1.2c0.1,0.8,0.1,1.6,0.1,2.2C26.6,6.7,26.5,7.1,26.5,7.1z"/>
							</g>
							<g>
								<path fill="#F05540" d="M24.7,0.8c0,0,0.2,0.3,0.5,0.9c0.2,0.6,0.5,1.3,0.6,2.1c0.1,0.4,0.1,0.8,0.2,1.2c0,0.4,0,0.7,0,1
									c0,0.3,0,0.6,0,0.7c0,0.2,0,0.3,0,0.3s0-0.4,0-1c0-0.3,0-0.7-0.1-1c0-0.4-0.1-0.8-0.2-1.2c-0.1-0.8-0.4-1.6-0.6-2.1
									C24.8,1.2,24.7,0.8,24.7,0.8z"/>
							</g>
							<g>
								<path fill="#F05540" d="M22.8,1.3c0,0,0.2,0.4,0.5,1c0.3,0.6,0.6,1.4,0.9,2.2c0.3,0.8,0.6,1.6,0.8,2.2
									c0.2,0.6,0.2,1.1,0.2,1.1s0-0.1-0.1-0.3c0-0.2-0.1-0.4-0.2-0.7c-0.2-0.6-0.5-1.4-0.8-2.2C23.4,2.9,22.8,1.3,22.8,1.3z"/>
							</g>
							<g>
								<path fill="#F05540" d="M18.5,5.1c0,0,0.3,0.1,0.8,0.4C19.8,5.7,20.4,6,21,6.3c0.6,0.4,1.2,0.7,1.6,1.1
									C23.1,7.7,23.3,8,23.3,8s-0.1-0.1-0.2-0.2c-0.1-0.1-0.3-0.2-0.5-0.4c-0.4-0.3-1-0.7-1.6-1C19.7,5.8,18.5,5.1,18.5,5.1z"/>
							</g>
							<g>
								<path fill="#F05540" d="M19.5,2.8c0,0,0.2,0.2,0.5,0.4c0.3,0.2,0.7,0.6,1.1,0.9c0.4,0.3,0.7,0.7,1,0.9
									c0.3,0.3,0.4,0.4,0.4,0.4S22.3,5.3,22,5.1c-0.3-0.2-0.7-0.6-1.1-0.9c-0.4-0.3-0.7-0.7-1-0.9C19.7,3,19.5,2.8,19.5,2.8z"/>
							</g>
							<g>
								<path fill="#F05540" d="M20.7,16.9c0,0,0.1-0.2,0.2-0.5c0.1-0.3,0.3-0.6,0.5-1c0.2-0.3,0.5-0.6,0.7-0.8
									c0.1-0.1,0.2-0.2,0.3-0.2c0.1,0,0.1-0.1,0.1-0.1s-0.2,0.1-0.4,0.3c-0.2,0.2-0.5,0.5-0.7,0.9C21,16.2,20.7,16.9,20.7,16.9z"
									/>
							</g>
							<g>
								<path fill="#F05540" d="M22.9,15.6c0,0,0-0.2,0.1-0.5c0.1-0.3,0.3-0.7,0.5-1.1c0.2-0.4,0.5-0.7,0.7-0.9
									c0.1-0.1,0.2-0.2,0.3-0.3c0.1-0.1,0.1-0.1,0.1-0.1s-0.1,0.2-0.3,0.4c-0.2,0.3-0.4,0.6-0.6,1C23.3,14.8,22.9,15.6,22.9,15.6z
									"/>
							</g>
						</g>
						<g>
							<path fill="#F05540" d="M27.1,12.3c0,0,0.2,0.1,0.4,0.3c0.2,0.2,0.4,0.6,0.6,1c0.1,0.4,0.2,0.8,0.1,1.1c0,0.2,0,0.3,0,0.4
								c0,0.1,0,0.1,0,0.1s0-0.2,0-0.5c0-0.2,0-0.3-0.1-0.5c0-0.2-0.1-0.4-0.1-0.6c-0.1-0.4-0.3-0.7-0.5-1
								C27.3,12.4,27.1,12.3,27.1,12.3z"/>
						</g>
						<g>
							<path fill="#F05540" d="M25.7,13c0,0,0,0.2-0.1,0.5c-0.1,0.3-0.2,0.7-0.4,1.1c-0.2,0.4-0.4,0.7-0.6,1
								c-0.1,0.1-0.2,0.2-0.2,0.3C24.3,16,24.3,16,24.3,16s0.4-0.7,0.8-1.5C25.4,13.8,25.7,13,25.7,13z"/>
						</g>
					</g>
					<g>
						<path fill="#F05540" d="M15,9.7c0,0,0.4,0,1.1,0.1c0.7,0.1,1.6,0.2,2.4,0.4c0.9,0.2,1.8,0.4,2.4,0.6c0.7,0.2,1.1,0.3,1.1,0.3
							s-0.4-0.1-1.1-0.2c-0.7-0.1-1.5-0.3-2.4-0.5C16.8,10,15,9.7,15,9.7z"/>
					</g>
				</g>
			</g>
		</g>
		<g>
			<path fill="#FFD15C" d="M13.7,34.2c-0.5,5.5,1.2,10.7,4.4,13.8h11.8c3.2-3.1,4.9-8.4,4.4-13.8H13.7z"/>
			<g>
				<path fill="#F7B64C" d="M34.4,35.8c0-0.5,0-1.1-0.1-1.6H13.7c0,0.5-0.1,1.1-0.1,1.6H34.4z"/>
			</g>
			<g>
				<path fill="#FFD15C" d="M34.3,34.6H13.7c-0.9,0-1.6-0.7-1.6-1.6c0-0.9,0.7-1.6,1.6-1.6h20.6c0.9,0,1.6,0.7,1.6,1.6
					C35.9,33.8,35.2,34.6,34.3,34.6z"/>
			</g>
		</g>
	</g>
</g>
</svg>
