<?xml version="1.0" encoding="utf-8"?>
<!-- Generator: Adobe Illustrator 18.0.0, SVG Export Plug-In . SVG Version: 6.00 Build 0)  -->
<!DOCTYPE svg PUBLIC "-//W3C//DTD SVG 1.1//EN" "http://www.w3.org/Graphics/SVG/1.1/DTD/svg11.dtd">
<svg version="1.1" id="Layer_1" xmlns="http://www.w3.org/2000/svg" xmlns:xlink="http://www.w3.org/1999/xlink" x="0px" y="0px"
	 viewBox="0 0 512 512" enable-background="new 0 0 512 512" xml:space="preserve">
<g>
	<g>
		<path fill="#CDD6E0" d="M407.1,435.8v53c0,11.6-9.5,21.2-21.2,21.2h-34.6c-11.7,0-21.2-9.5-21.2-21.2v-15.2
			C359.2,465.3,385.3,452.3,407.1,435.8z"/>
		<path fill="#CDD6E0" d="M180.2,473.6v15.2c0,11.6-9.5,21.2-21.2,21.2h-34.7c-11.6,0-21.2-9.5-21.2-21.2v-53
			C125.1,452.3,151.2,465.3,180.2,473.6z"/>
	</g>
	<path fill="#F2F2F2" d="M180.2,382.4v91.2c-29-8.3-55.1-21.3-77-37.8v-53.4H180.2z"/>
	<path fill="#F2F2F2" d="M407.1,382.4v53.4c-21.8,16.5-47.9,29.5-76.9,37.8v-91.2H407.1z"/>
	<path fill="#F2F2F2" d="M471,344.7c-9.2,35.6-32,67.1-63.9,91.1v-53.4h-76.9v91.2c-23.4,6.7-48.7,10.4-75,10.4
		c-26.2,0-51.5-3.6-74.9-10.4v-91.2h-77v53.4c-21.9-16.5-39.5-36.5-51.3-58.9L2,367V251.9l49.8-9.8c7.1-13.5,16.4-26.1,27.3-37.7
		c-6.3-23.5-18.6-43.2-33.8-56.3c23.1-2.6,54.5,6.3,76,22.8c18.2-11.1,38.6-19.9,60.6-25.9c5.6-1.7,11.4-3.1,17.4-4.3
		c6.1-1.2,12.3-2.2,18.6-3.2c12.1-1.6,24.4-2.4,37.1-2.4c15.9,0,31.4,1.4,46.4,3.9c5.9,1,11.6,2.1,17.4,3.6
		c5.9,1.3,11.6,2.9,17.4,4.8c70.5,22,123.1,72.1,136.1,132.8c15.1-6.9,27.8-16.2,37.3-27.1C512.9,282.7,497.1,326.4,471,344.7z"/>
	<path fill="#40596B" d="M255.5,167.2c-39.7,0-77.2,10.4-108.4,30l12,19.1c27.7-17.4,61-26.6,96.5-26.6c35.4,0,68.8,9.2,96.5,26.6
		l12-19.1C332.7,177.6,295.2,167.2,255.5,167.2z"/>
	<path fill="#4CDBC4" d="M270,149.7c-1.6,0-2.9,0.4-4.1,1.4c-1.1,1-2,2.4-2.6,4.6h13.7c-0.3-1.8-1.2-3.2-2.5-4.3
		C273.3,150.2,271.8,149.7,270,149.7z"/>
	<path fill="#4CDBC4" d="M242.1,164.1c1.1,0.8,2.4,1.2,3.7,1.2c1.2,0,2.4-0.4,3.5-1.1c1-0.8,1.9-1.9,2.5-3.4h-12.2
		C240.1,162.1,241,163.2,242.1,164.1z"/>
	<path fill="#4CDBC4" d="M336.2,23.2v168.4c-5.6-2.4-11.4-4.5-17.4-6.3V44.9c-11,0-19.9-8.9-19.9-19.9h-79.7
		c0,11-8.9,19.9-19.9,19.9v138.3c-5.9,1.6-11.7,3.5-17.4,5.6V23.2C182,11.5,191.5,2,203.2,2H315C326.7,2,336.2,11.5,336.2,23.2z"/>
	<path fill="#F2F2F2" d="M212.3,171.5c-2.1-4.1-3.3-8.5-3.3-13.2c0-20.3,22.4-36.7,50.1-36.7c27.6,0,50,16.4,50,36.7
		c0,5.2-1.5,10.1-4.1,14.6c-1.5,2.6-3.5,5.1-5.8,7.3c6.7,1.4,13.2,3.2,19.6,5.2V44.9c-11,0-19.9-8.9-19.9-19.9h-79.7
		c0,11-8.9,19.9-19.9,19.9v138.3c6.1-1.6,12.3-2.9,18.6-4C215.7,176.8,213.8,174.2,212.3,171.5z M259.1,78c6.3,0,11.4,5.1,11.4,11.5
		s-5.1,11.5-11.4,11.5c-6.3,0-11.4-5.1-11.4-11.5S252.8,78,259.1,78z"/>
	<ellipse fill="#4CDBC4" cx="259.1" cy="89.5" rx="11.4" ry="11.5"/>
	<path fill="#4CDBC4" d="M305,172.9c2.6-4.5,4.1-9.4,4.1-14.6c0-20.3-22.4-36.7-50-36.7c-27.7,0-50.1,16.4-50.1,36.7
		c0,4.7,1.2,9.1,3.3,13.2c1.4,2.7,3.4,5.3,5.6,7.6c12.2-2.1,24.8-3.3,37.6-3.3c14.9,0,29.6,1.5,43.6,4.4
		C301.5,177.9,303.5,175.5,305,172.9z M289.6,160.7H285c-0.3,3.1-1.4,5.8-3,8.1c-0.4,0.7-1,1.3-1.5,1.9c-2.5,2.5-6.1,4.2-10.7,4.9
		l-0.8-7.8l-0.2-1.4c1.9-0.4,3.5-1.1,4.8-2.1c1.4-1,2.4-2.1,3-3.4h-14.8c-0.7,2.5-1.6,4.7-2.8,6.5c-0.9,1.5-2,2.7-3.2,3.6
		c-2.6,2.1-5.9,3.2-9.7,3.2c-3.8,0-7-1.2-9.7-3.7c-0.7-0.7-1.4-1.4-1.9-2.3c-1.5-2-2.3-4.5-2.6-7.5h-3.5v-5.1h3.5
		c0.5-3.7,1.7-6.7,3.8-8.9c2.1-2.2,4.9-3.6,8.4-4.2l1.2,8.9c-2.8,0.6-4.6,1.9-5.6,4.2h13.7c1.5-5.6,3.5-9.5,6-11.5
		c2.4-2,5.5-3.1,9.3-3.1c4.3,0,7.8,1.3,10.8,3.9c2.9,2.5,4.7,6.2,5.3,10.7h4.8V160.7z"/>
	<path fill="#F2F2F2" d="M279.5,144.9c-2.9-2.6-6.5-3.9-10.8-3.9c-3.8,0-6.9,1.1-9.3,3.1c-2.5,2-4.5,5.9-6,11.5h-13.7
		c1-2.3,2.9-3.7,5.6-4.2l-1.2-8.9c-3.5,0.6-6.3,2-8.4,4.2c-2.1,2.2-3.4,5.2-3.8,8.9h-3.5v5.1h3.5c0.3,2.9,1.1,5.4,2.6,7.5
		c0.6,0.8,1.2,1.6,1.9,2.3c2.6,2.5,5.9,3.7,9.7,3.7c3.8,0,7-1.1,9.7-3.2c1.2-1,2.3-2.1,3.2-3.6c1.2-1.8,2.1-4,2.8-6.5h14.8
		c-0.6,1.3-1.6,2.4-3,3.4c-1.4,1.1-3,1.8-4.8,2.1l0.2,1.4l0.8,7.8c4.6-0.7,8.2-2.3,10.7-4.9c0.6-0.6,1.1-1.2,1.5-1.9
		c1.6-2.3,2.6-5,3-8.1h4.6v-5.1h-4.8C284.2,151.1,282.4,147.5,279.5,144.9z M249.3,164.2c-1.1,0.7-2.3,1.1-3.5,1.1
		c-1.4,0-2.6-0.4-3.7-1.2c-1.1-0.8-2-1.9-2.4-3.3h12.2C251.1,162.3,250.3,163.4,249.3,164.2z M263.4,155.7c0.6-2.1,1.5-3.6,2.6-4.6
		c1.2-1,2.5-1.4,4.1-1.4c1.8,0,3.3,0.5,4.6,1.6c1.3,1.1,2.1,2.5,2.5,4.3H263.4z"/>
	<ellipse fill="#ACB3BA" cx="103.2" cy="266.4" rx="16.9" ry="16.9"/>
</g>
</svg>
