<?xml version="1.0" encoding="utf-8"?>
<!-- Generator: Adobe Illustrator 20.1.0, SVG Export Plug-In . SVG Version: 6.00 Build 0)  -->
<!DOCTYPE svg PUBLIC "-//W3C//DTD SVG 1.1//EN" "http://www.w3.org/Graphics/SVG/1.1/DTD/svg11.dtd">
<svg version="1.1" id="Layer_1" xmlns="http://www.w3.org/2000/svg" xmlns:xlink="http://www.w3.org/1999/xlink" x="0px" y="0px"
	 viewBox="0 0 49 49" enable-background="new 0 0 49 49" xml:space="preserve">
<g>
	<rect x="18.1" y="37.4" fill="#FFD15C" width="12.7" height="11.1"/>
	
		<rect x="23.7" y="31.8" transform="matrix(-1.836970e-16 1 -1 -1.836970e-16 62.6676 13.6676)" fill="#F8B64C" width="1.5" height="12.7"/>
	<rect x="1.6" y="5.3" fill="#F2F2F2" width="45.7" height="32.1"/>
	<rect x="0.5" y="0.5" fill="#CDD6E0" width="48" height="4.8"/>
	<g>
		<rect x="7.5" y="0.5" fill="#ACB3BA" width="1.7" height="6.2"/>
		
			<rect x="6.9" y="4.6" transform="matrix(-1.836970e-16 1 -1 -1.836970e-16 16.4587 -0.2961)" fill="#FF7058" width="2.9" height="7"/>
		<rect x="23.7" y="0.5" fill="#ACB3BA" width="1.7" height="6.2"/>
		
			<rect x="23.1" y="4.6" transform="matrix(-1.836970e-16 1 -1 -1.836970e-16 32.5813 -16.4186)" fill="#FF7058" width="2.9" height="7"/>
		<rect x="39.8" y="0.5" fill="#ACB3BA" width="1.7" height="6.2"/>
		
			<rect x="39.2" y="4.6" transform="matrix(-1.836970e-16 1 -1 -1.836970e-16 48.7038 -32.541)" fill="#FF7058" width="2.9" height="7"/>
	</g>
</g>
</svg>
