<?xml version="1.0" encoding="utf-8"?>
<!-- Generator: Adobe Illustrator 18.0.0, SVG Export Plug-In . SVG Version: 6.00 Build 0)  -->
<!DOCTYPE svg PUBLIC "-//W3C//DTD SVG 1.1//EN" "http://www.w3.org/Graphics/SVG/1.1/DTD/svg11.dtd">
<svg version="1.1" id="Layer_1" xmlns="http://www.w3.org/2000/svg" xmlns:xlink="http://www.w3.org/1999/xlink" x="0px" y="0px"
	 viewBox="0 0 48 48" enable-background="new 0 0 48 48" xml:space="preserve">
<g>
	<g>
		<g>
			<g>
				<path fill="#F3F3F3" d="M41.7,0H6.3c-1.1,0-2,0.9-2,2v44c0,1.1,0.9,2,2,2h26.6l10.9-10.9V2C43.7,0.9,42.8,0,41.7,0z"/>
			</g>
			<g>
				<polygon fill="#CED6E0" points="32.8,48 43.7,37.1 32.8,37.1 				"/>
			</g>
		</g>
		<g>
			<g>
				<g>
					<g>
						<rect x="20.6" y="7.7" fill="#CED6E0" width="19.1" height="2.6"/>
					</g>
				</g>
				<g>
					<g>
						<g>
							<path fill="#CED6E0" d="M15.8,13.2H8.9c-0.4,0-0.8-0.3-0.8-0.8V5.5c0-0.4,0.3-0.8,0.8-0.8h6.9c0.4,0,0.8,0.3,0.8,0.8v6.9
								C16.5,12.9,16.2,13.2,15.8,13.2z M9.6,11.7H15V6.3H9.6V11.7z"/>
						</g>
					</g>
				</g>
			</g>
			<g>
				<g>
					<path fill="#66C6B9" d="M11.7,12.7c-0.2,0-0.5-0.1-0.6-0.3L8.6,9.9c-0.3-0.3-0.3-0.9,0-1.2c0.3-0.3,0.9-0.3,1.2,0l1.6,1.6
						c1-1.7,2.7-3.2,5.3-4.9c0.4-0.3,0.9-0.1,1.2,0.3c0.3,0.4,0.1,0.9-0.3,1.2c-2.9,1.8-4.5,3.5-5.2,5.3c-0.1,0.3-0.3,0.5-0.6,0.5
						C11.8,12.7,11.8,12.7,11.7,12.7z"/>
				</g>
			</g>
		</g>
		<g>
			<g>
				<g>
					<g>
						<rect x="20.6" y="19.5" fill="#CED6E0" width="19.1" height="2.6"/>
					</g>
				</g>
				<g>
					<g>
						<g>
							<path fill="#CED6E0" d="M15.8,25H8.9c-0.4,0-0.8-0.3-0.8-0.8v-6.9c0-0.4,0.3-0.8,0.8-0.8h6.9c0.4,0,0.8,0.3,0.8,0.8v6.9
								C16.5,24.6,16.2,25,15.8,25z M9.6,23.5H15V18H9.6V23.5z"/>
						</g>
					</g>
				</g>
			</g>
			<g>
				<g>
					<path fill="#66C6B9" d="M11.7,24.5c-0.2,0-0.5-0.1-0.6-0.3l-2.5-2.5c-0.3-0.3-0.3-0.9,0-1.2c0.3-0.3,0.9-0.3,1.2,0l1.6,1.6
						c1-1.7,2.7-3.2,5.3-4.9c0.4-0.3,0.9-0.1,1.2,0.3c0.3,0.4,0.1,0.9-0.3,1.2c-2.9,1.8-4.5,3.5-5.2,5.3c-0.1,0.3-0.3,0.5-0.6,0.5
						C11.8,24.5,11.8,24.5,11.7,24.5z"/>
				</g>
			</g>
		</g>
		<g>
			<g>
				<g>
					<g>
						<rect x="20.6" y="31.2" fill="#CED6E0" width="19.1" height="2.6"/>
					</g>
				</g>
				<g>
					<g>
						<g>
							<path fill="#CED6E0" d="M15.8,36.7H8.9c-0.4,0-0.8-0.3-0.8-0.8v-6.9c0-0.4,0.3-0.8,0.8-0.8h6.9c0.4,0,0.8,0.3,0.8,0.8V36
								C16.5,36.4,16.2,36.7,15.8,36.7z M9.6,35.2H15v-5.4H9.6V35.2z"/>
						</g>
					</g>
				</g>
			</g>
		</g>
	</g>
</g>
</svg>
