<?xml version="1.0" encoding="utf-8"?>
<!-- Generator: Adobe Illustrator 18.0.0, SVG Export Plug-In . SVG Version: 6.00 Build 0)  -->
<!DOCTYPE svg PUBLIC "-//W3C//DTD SVG 1.1//EN" "http://www.w3.org/Graphics/SVG/1.1/DTD/svg11.dtd">
<svg version="1.1" id="Layer_1" xmlns="http://www.w3.org/2000/svg" xmlns:xlink="http://www.w3.org/1999/xlink" x="0px" y="0px"
	 viewBox="0 0 48 48" enable-background="new 0 0 48 48" xml:space="preserve">
<g>
	<path fill="#3DC9AE" d="M2.8,48H48V29.9C21.4,29.9,0,36,0,43.5C0,45.1,1,46.6,2.8,48z"/>
	<ellipse fill="#4CDBC4" cx="22.4" cy="39.3" rx="15.4" ry="5.1"/>
	<ellipse fill="#334A5E" cx="14.6" cy="39.3" rx="5.6" ry="2.7"/>
	<ellipse fill="#334A5E" cx="14.6" cy="39.3" rx="5.6" ry="2.7"/>
	<circle fill="#F2F2F2" cx="32.7" cy="36.7" r="2.2"/>
	<path fill="#FF7058" d="M45.2,12.8C35,10.7,24.8,26.2,14.6,24.1c0-7.5,0-15.1,0-22.6C24.8,11.1,35,3.1,45.2,12.8L45.2,12.8z"/>
	<path fill="#FFD15C" d="M14.6,0c-0.6,0-1,0.4-1,1v40.9c0.3,0,0.7,0,1,0c0.3,0,0.7,0,1,0V1C15.6,0.4,15.1,0,14.6,0z"/>
</g>
</svg>
