<?xml version="1.0" encoding="utf-8"?>
<!-- Generator: Adobe Illustrator 19.0.1, SVG Export Plug-In . SVG Version: 6.00 Build 0)  -->
<svg version="1.1" id="Layer_1" xmlns="http://www.w3.org/2000/svg" xmlns:xlink="http://www.w3.org/1999/xlink" x="0px" y="0px"
	 viewBox="0 0 48 48" style="enable-background:new 0 0 48 48;" xml:space="preserve">
<style type="text/css">
	.st0{fill:#415A6B;}
	.st1{fill:#ADB3BA;}
	.st2{fill:#E8EAE9;}
	.st3{fill:#55C0EB;}
	.st4{fill:#F3705A;}
	.st5{fill:#FFFFFF;}
	.st6{fill:#FFD15C;}
	.st7{fill:#344A5E;}
	.st8{fill:#CED6E0;}
	.st9{fill:#F05540;}
	.st10{fill:#F7B64C;}
	.st11{fill:#F3F3F3;}
	.st12{fill:#66C6B9;}
	.st13{fill:#4ABAA5;}
	.st14{fill:#8AD7F8;}
	.st15{fill:none;}
	.st16{fill:#E53D35;}
</style>
<g>
	<g>
		<g>
			<g>
				<path class="st7" d="M39.4,48V35.9C39.4,27,0,27,0,35.9V48H39.4z"/>
			</g>
			<g>
				<path class="st10" d="M25.7,29.5c0,3.2-6,5.5-6,5.5s-6-2.2-6-5.5l0-12h12L25.7,29.5z"/>
			</g>
			<g>
				<polygon class="st8" points="15.3,48 22.9,48 27.2,35.3 26.1,34.1 19.7,35 12.5,34.1 15,47.3 				"/>
			</g>
			<g>
				<g>
					<polygon class="st9" points="21.2,39 22.4,37.7 19.7,35 17,37.7 18.2,39 					"/>
				</g>
				<g>
					<polygon class="st9" points="22.7,48 21.2,39 18.2,39 16.7,48 					"/>
				</g>
			</g>
			<g>
				<ellipse class="st6" cx="19.7" cy="16.6" rx="9.8" ry="12.9"/>
			</g>
			<path class="st6" d="M8.1,17.5c0.1,1.7,1.1,2.9,2.2,2.8c1.1-0.1,1.8-1.5,1.7-3.2c-0.1-1.7-1.1-2.9-2.2-2.8
				C8.7,14.4,7.9,15.8,8.1,17.5z"/>
			<path class="st6" d="M31.3,17.5c-0.1,1.7-1.1,2.9-2.2,2.8c-1.1-0.1-1.8-1.5-1.7-3.2c0.1-1.7,1.1-2.9,2.2-2.8
				C30.7,14.4,31.5,15.8,31.3,17.5z"/>
			<g>
				<path class="st0" d="M25.5,11.8c0,0,2.7,1.5,2.9,4v1.5h0.6c0,0,1.4-2.7,0-5.5c-1.4-2.7-3.2,0-3.2,0"/>
				<g>
					<path class="st0" d="M13.9,11.8c0,0-2.7,1.5-2.9,4v1.5h-0.6c0,0-1.4-2.7,0-5.5s3.2,0,3.2,0"/>
				</g>
			</g>
			<g>
				<path class="st6" d="M30.5,12.1c0-0.2,0-0.4,0-0.6c0-6-4.9-10.9-10.9-10.9S8.8,5.6,8.8,11.6c0,0.2,0,0.4,0,0.6H30.5z"/>
			</g>
			<g>
				<path class="st9" d="M30.5,12.1c0-0.2,0-0.4,0-0.6c0-6-4.9-10.9-10.9-10.9S8.8,5.6,8.8,11.6c0,0.2,0,0.4,0,0.6H30.5z"/>
			</g>
			<g>
				<g>
					<path class="st4" d="M30.5,13.8H8.9c-0.9,0-1.6-0.7-1.6-1.6s0.7-1.6,1.6-1.6h21.7c0.9,0,1.6,0.7,1.6,1.6S31.4,13.8,30.5,13.8z"
						/>
				</g>
			</g>
			<g>
				<path class="st4" d="M23.4,1.2L22.3,8c0,0.3-0.3,0.5-0.6,0.5h-3.9c-0.3,0-0.5-0.2-0.6-0.5L16,1.2c0-0.3,0.1-0.6,0.4-0.7
					c1-0.3,2.1-0.5,3.3-0.5C20.8,0,22,0.2,23,0.5C23.3,0.6,23.4,0.9,23.4,1.2z"/>
			</g>
			<g>
				<g>
					<g>
						<polygon class="st11" points="25.7,28.4 19.7,35 23.4,38.7 27.4,30.5 						"/>
					</g>
					<g>
						<path class="st0" d="M26.4,48c2.1-3.5,3.8-7.2,4.9-11.1L28.5,34l2.8-1.2l-5-3.5c-0.9,5.6-2.3,12-4.1,18.8H26.4z"/>
					</g>
				</g>
				<g>
					<g>
						<polygon class="st11" points="13.7,28.4 19.7,35 16,38.7 12,30.5 						"/>
					</g>
					<g>
						<path class="st0" d="M12.9,48h4.2c-1.8-6.8-3.2-13.2-4.1-18.8l-5,3.5l2.8,1.2L8,36.9C9.1,40.8,10.8,44.5,12.9,48z"/>
					</g>
				</g>
			</g>
		</g>
		<g>
			<g>
				<g>
					
						<rect x="29.9" y="34.1" transform="matrix(-0.7071 0.7071 -0.7071 -0.7071 87.7495 36.3471)" class="st8" width="12.9" height="4.5"/>
				</g>
				<g>
					<path class="st12" d="M34.4,37l2.6-2.6c0.4-0.4,1-0.4,1.4,0h0c0.4,0.4,0.4,1,0,1.4l-2.6,2.6c-0.4,0.4-1,0.4-1.4,0v0
						C34,37.9,34,37.3,34.4,37z"/>
				</g>
			</g>
			<g>
				<g>
					<path class="st2" d="M27.6,41.9L25,44.5c-0.6-1.8-0.2-3.8,1.2-5.2c1.9-1.9,5-2,7-0.2c2.2,2,2.3,5.3,0.2,7.4
						c-1.4,1.4-3.4,1.8-5.2,1.2l2.7-2.7c0-1.3,0-2,0-3.2h0C29.6,41.9,28.9,41.9,27.6,41.9z"/>
				</g>
				<g>
					<path class="st2" d="M45.1,30.8l2.7-2.7c0.6,1.8,0.2,3.8-1.2,5.2c-1.9,1.9-5,2-7,0.2c-2.2-2-2.3-5.3-0.2-7.4
						c1.4-1.4,3.4-1.8,5.2-1.2l-2.7,2.7c0,1.3,0,2,0,3.2l0,0C43.1,30.8,43.8,30.8,45.1,30.8z"/>
				</g>
			</g>
		</g>
	</g>
</g>
</svg>
