<?xml version="1.0" encoding="utf-8"?>
<!-- Generator: Adobe Illustrator 18.0.0, SVG Export Plug-In . SVG Version: 6.00 Build 0)  -->
<!DOCTYPE svg PUBLIC "-//W3C//DTD SVG 1.1//EN" "http://www.w3.org/Graphics/SVG/1.1/DTD/svg11.dtd">
<svg version="1.1" id="Layer_1" xmlns="http://www.w3.org/2000/svg" xmlns:xlink="http://www.w3.org/1999/xlink" x="0px" y="0px"
	 viewBox="0 0 48 48" enable-background="new 0 0 48 48" xml:space="preserve">
<g>
	<g>
		<g>
			<path fill="#FFD15C" d="M21.7,42.8l-3-0.4h-2.9V22.1l1.9,0l4.5-2.5c5.6-3.1,10.2-7.8,13.1-13.5c0,0,0-0.1,0.1-0.1
				c0.4-0.7,0.6-1.5,0.8-2.4l0.7-3.2c0,0,2.3-1.5,3.6,1.5c0,0,1.8,4.9-0.6,9c-0.3,1.8-2.9,3.9-2.7,5.5c0,0,1.7,1.2,3.3,0.7
				c1.6-0.6,6,0.5,7,2.5c0.8,1.5,1.3,3.8-1.6,5.1c0,0,2.1,1.2,1.8,3.3s-2.2,2.9-2.2,2.9s1.6,1.5,0.7,3.5c-0.9,1.9-2,2.3-2,2.3
				s1.7,2.4,0.6,4l0,0c-0.9,1.2-2.1,2-3.5,2.4C36,44.3,29,43.7,21.7,42.8z"/>
		</g>
		<path fill="#F3F3F3" d="M36.9,0.6l-0.6,3c-0.1,0.4-0.2,0.7-0.3,1c1.7,0.1,2.2-1.3,2.3-2.6C38.3,1,36.9,0.6,36.9,0.6z"/>
		<g>
			<g>
				<rect x="10.7" y="21.2" fill="#E8EAE9" width="7.6" height="23.2"/>
				<rect y="20.2" fill="#415A6B" width="14.4" height="27.8"/>
			</g>
			<circle fill="#344A5E" cx="8.3" cy="42.2" r="2.7"/>
		</g>
	</g>
</g>
</svg>
