<?xml version="1.0" encoding="utf-8"?>
<!-- Generator: Adobe Illustrator 18.0.0, SVG Export Plug-In . SVG Version: 6.00 Build 0)  -->
<!DOCTYPE svg PUBLIC "-//W3C//DTD SVG 1.1//EN" "http://www.w3.org/Graphics/SVG/1.1/DTD/svg11.dtd">
<svg version="1.1" id="Layer_1" xmlns="http://www.w3.org/2000/svg" xmlns:xlink="http://www.w3.org/1999/xlink" x="0px" y="0px"
	 viewBox="0 0 48 48" enable-background="new 0 0 48 48" xml:space="preserve">
<g>
	<g>
		<path fill="#F2F2F2" d="M3.8,35L3.8,35L3.8,35c0.8-6.1,2-10,7-13.6l14.7-10.5l8.2,11.5L18.9,32.8C13.9,36.4,9.8,36.2,3.8,35z"/>
		<path fill="#84DBFF" d="M19.8,16.5l-8.3,5.9c-4.1,3-5.4,6.2-6.3,11.5c5.3,1,8.8,0.8,12.9-2.2l8.3-5.9L19.8,16.5z"/>
		<path fill="#334A5E" d="M38.4,18.8L30.3,7.5c-0.9-1.3-2.8-1.6-4.1-0.7l-0.1,0.1c-1.3,0.9-1.6,2.8-0.7,4.1l8.1,11.4
			c0.9,1.3,2.8,1.6,4.1,0.7l0.1-0.1C39.1,22,39.4,20.1,38.4,18.8z"/>
		<path fill="#40596B" d="M46.7,4.5l-0.2-0.2c-2.2-3.1-6.5-3.8-9.6-1.6l-6.7,4.8l8.2,11.5l6.7-4.8C48.2,11.9,49,7.6,46.7,4.5z"/>
		<path fill="#E4EAEF" d="M24.4,11.7C24.4,11.7,24.4,11.7,24.4,11.7L32.5,23c0,0,0,0.1,0.1,0.1l1.1-0.8l-8.2-11.5L24.4,11.7z"/>
	</g>
	<path fill="#84DBFF" d="M7.6,42.8c0,2.1-1.7,3.8-3.8,3.8c-2.1,0-3.8-1.7-3.8-3.8c0-2.1,3.8-6.6,3.8-6.6S7.6,40.7,7.6,42.8z"/>
</g>
</svg>
