<?xml version="1.0" encoding="utf-8"?>
<!-- Generator: Adobe Illustrator 18.0.0, SVG Export Plug-In . SVG Version: 6.00 Build 0)  -->
<!DOCTYPE svg PUBLIC "-//W3C//DTD SVG 1.1//EN" "http://www.w3.org/Graphics/SVG/1.1/DTD/svg11.dtd">
<svg version="1.1" id="Layer_1" xmlns="http://www.w3.org/2000/svg" xmlns:xlink="http://www.w3.org/1999/xlink" x="0px" y="0px"
	 viewBox="0 0 512 512" enable-background="new 0 0 512 512" xml:space="preserve">
<g>
	<path fill="#89D6F7" d="M276,8.1c-3.9-3.9-9.2-6.1-14.7-6.1L85.2,2c-25.4,0-46,20.6-45.9,45.9l0,176.1c0,5.5,2.2,10.8,6.1,14.7
		l265.2,265.2c8.1,8.1,21.2,8.1,29.3,0l132.2-132.2l0.3-167.2L276,8.1z M149.9,112.6c-15.2,15.2-39.8,15.2-54.9,0.1
		C79.8,97.5,79.9,72.9,95,57.7c15.2-15.2,39.7-15.2,54.8,0C165,72.9,165,97.4,149.9,112.6z"/>
	
		<rect x="222.2" y="152.3" transform="matrix(0.7071 0.7071 -0.7071 0.7071 208.7937 -173.5766)" fill="#55BFE9" width="183.4" height="25.8"/>
	
		<rect x="166.5" y="208" transform="matrix(0.7071 0.7071 -0.7071 0.7071 231.8657 -117.8757)" fill="#55BFE9" width="183.4" height="25.8"/>
	
		<rect x="110.8" y="263.7" transform="matrix(0.7071 0.7071 -0.7071 0.7071 254.9379 -62.1747)" fill="#55BFE9" width="183.4" height="25.8"/>
	<path fill="#F2F2F2" d="M472,204.5l-68.5,69.1c-8.1,8.1-8,21.3,0.1,29.3l69.1,68.5L472,204.5z"/>
</g>
</svg>
