<?xml version="1.0" encoding="utf-8"?>
<!-- Generator: Adobe Illustrator 16.0.0, SVG Export Plug-In . SVG Version: 6.00 Build 0)  -->
<!DOCTYPE svg PUBLIC "-//W3C//DTD SVG 1.1//EN" "http://www.w3.org/Graphics/SVG/1.1/DTD/svg11.dtd">
<svg version="1.1" id="Layer_1" xmlns="http://www.w3.org/2000/svg" xmlns:xlink="http://www.w3.org/1999/xlink" x="0px" y="0px"
	 width="48px" height="48px" viewBox="0 0 48 48" enable-background="new 0 0 48 48" xml:space="preserve">
<g>
	<path fill="#40596B" d="M41.885,30.652l-11.35-4.09h-0.01l-0.01,0.01h-13.02l-0.012-0.01h-0.01l-11.359,4.09
		c-3.551,1.27-5.93,4.65-5.93,8.43V48h47.629v-8.918C47.814,35.303,45.436,31.922,41.885,30.652"/>
	<path fill="#ACB3BA" d="M24.021,30.141C24.01,30.152,24,30.152,24,30.152v-0.023C24.01,30.129,24.021,30.141,24.021,30.141"/>
	<path fill="#ACB3BA" d="M24.021,30.131v0.02c0,0-0.012,0-0.021-0.01C24,30.141,24.01,30.131,24.021,30.131"/>
	<path fill="#CDD6E0" d="M30.516,26.572l-6.51,16.744l-6.51-16.744h0.01c0.029,0.041,0.049,0.059,0.049,0.059s12.961-0.059,12.9,0
		C30.455,26.639,30.475,26.613,30.516,26.572"/>
	<path fill="#CDD6E0" d="M30.516,26.57l-2.98,7.67l-3.529,9.08l-3.531-9.1l-2.979-7.65h0.01c0.029,0.041,0.049,0.061,0.049,0.061
		h1.49c2.5-0.02,7.49-0.029,9.951-0.02c0.889,0,1.459,0.01,1.459,0.02C30.465,26.631,30.484,26.602,30.516,26.57"/>
	<path fill="#F8B64C" d="M17.5,26.561c0.08,0.109,0.07,0.109-0.01,0H17.5z"/>
	<path fill="#F8B64C" d="M30.529,26.561c-0.08,0.109-0.09,0.109-0.01,0H30.529z"/>
	<path fill="#F8B64C" d="M17.488,13.986c0.148,1.674-0.666,3.115-1.814,3.215c-1.15,0.102-2.201-1.176-2.348-2.852
		c-0.146-1.674,0.666-3.115,1.816-3.215C16.291,11.033,17.342,12.311,17.488,13.986"/>
	<path fill="#F8B64C" d="M34.695,14.35c-0.148,1.676-1.197,2.953-2.348,2.852c-1.148-0.1-1.963-1.541-1.814-3.215
		c0.145-1.676,1.195-2.953,2.346-2.852C34.029,11.234,34.842,12.676,34.695,14.35"/>
	<path fill="#FFD15C" d="M24.01,0c-5.336,0-9.664,4.326-9.664,9.664v2.902c0,0.738,0.047,1.479,0.139,2.213v0.002
		c0.459,3.754,2.074,7.271,4.627,10.063l0.916,1.004c0.842,0.924,2.031,1.449,3.281,1.449h1.4c1.248,0,2.439-0.525,3.281-1.447
		l0.92-1.006c2.551-2.791,4.168-6.313,4.631-10.064c0.092-0.738,0.133-1.475,0.133-2.213V9.664C33.674,4.326,29.348,0,24.01,0z"/>
	<path fill="#F8B64C" d="M28.91,24.84l-0.92,1.012c-0.842,0.924-2.033,1.449-3.283,1.449h-1.396c-1.248,0-2.439-0.525-3.281-1.449
		l-0.92-1.012c-0.59-0.648-1.131-1.34-1.619-2.059v3.779c3.541,3.727,9.479,3.73,13.027,0.014l0.012-0.014v-3.779
		C30.039,23.5,29.5,24.201,28.91,24.84"/>
	<g opacity="0.1">
		<g>
			<defs>
				<rect id="SVGID_149_" x="20.207" y="22.781" width="10.322" height="6.58"/>
			</defs>
			<clipPath id="SVGID_2_">
				<use xlink:href="#SVGID_149_"  overflow="visible"/>
			</clipPath>
			<path clip-path="url(#SVGID_2_)" fill="#40596B" d="M28.91,24.84l-0.92,1.012c-0.84,0.92-2.031,1.449-3.281,1.449h-1.4
				c-1.16,0-2.258-0.473-3.082-1.275l-0.02,0.008l3.789,3.326c0,0,3.73,0.227,6.533-2.799v-3.779
				C30.039,23.5,29.5,24.201,28.91,24.84"/>
		</g>
	</g>
	<path fill="#CDD6E0" d="M47.814,39.08V48h-6.369c0.91-2.549-0.811-7.619-0.811-7.619c-2.4-5.609-1.84-8.871-1.061-10.561
		l2.311,0.83C45.436,31.92,47.814,35.301,47.814,39.08"/>
	<path fill="#CDD6E0" d="M7.365,40.381c0,0-1.721,5.07-0.811,7.619H0.186v-8.92c0-3.779,2.379-7.16,5.93-8.43l2.311-0.83
		C9.205,31.51,9.766,34.771,7.365,40.381"/>
	<path fill="#CDD6E0" d="M14.34,12.117c0,0-0.123-3.758,2.268-5.66c0,0,1.617-1.475,0.939-3.977c0,0-1.721-0.609-3.418,2.68
		c-0.43,0.832-0.57,1.781-0.527,2.717C13.676,9.4,12.865,11.707,14.34,12.117"/>
	<path fill="#CDD6E0" d="M33.678,12.117c0,0,0.123-3.758-2.268-5.66c0,0-1.617-1.475-0.939-3.977c0,0,1.721-0.609,3.418,2.68
		c0.43,0.832,0.57,1.781,0.527,2.717C34.342,9.4,35.152,11.707,33.678,12.117"/>
	<path fill="#FF7058" d="M29.553,9.66h-2.607c-1.051,0-1.924,0.723-2.172,1.695c-0.5-0.131-1.027-0.131-1.525,0
		C23,10.383,22.125,9.66,21.076,9.66h-2.607c-1.963,0-3.555,1.59-3.555,3.553c0,1.961,1.592,3.553,3.555,3.553
		c2.563,0,4.639-1.99,4.82-4.508c0.461-0.172,0.982-0.172,1.443,0c0.182,2.518,2.258,4.508,4.82,4.508
		c1.963,0,3.553-1.592,3.553-3.553C33.105,11.25,31.516,9.66,29.553,9.66 M18.467,16.031c-1.553,0-2.818-1.266-2.818-2.818
		c0-1.555,1.266-2.82,2.818-2.82h2.609c0.834,0,1.514,0.682,1.514,1.516C22.59,14.182,20.74,16.031,18.467,16.031 M29.553,16.031
		c-2.273,0-4.121-1.85-4.121-4.123c0-0.834,0.678-1.516,1.514-1.516h2.607c1.555,0,2.818,1.266,2.818,2.82
		C32.371,14.766,31.107,16.031,29.553,16.031"/>
	<path fill="#40596B" d="M27.875,20.732h-7.73c0-0.23,0.131-0.43,0.33-0.52l2.541-1.611c0.311-0.139,0.65-0.219,0.99-0.219
		c0.35,0,0.689,0.08,1,0.219l2.539,1.611C27.746,20.303,27.875,20.502,27.875,20.732"/>
	<path fill="#F2F2F2" d="M23.996,29.359l-5.871,5.773l-2.02-8.08l1.379-0.49c1.75,1.83,4.08,2.77,6.41,2.801L23.996,29.359z"/>
	<path fill="#F2F2F2" d="M31.904,27.053l-2.029,8.08l-5.877-5.773l0.117,0.004c2.33-0.031,4.66-0.961,6.4-2.791l0.01-0.01
		L31.904,27.053z"/>
	<polygon fill="#C3D1DD" points="23.996,29.359 20.08,33.209 20.475,34.221 23.994,30.76 27.535,34.24 27.932,33.223 	"/>
</g>
</svg>
