<?xml version="1.0" encoding="utf-8"?>
<!-- Generator: Adobe Illustrator 18.0.0, SVG Export Plug-In . SVG Version: 6.00 Build 0)  -->
<!DOCTYPE svg PUBLIC "-//W3C//DTD SVG 1.1//EN" "http://www.w3.org/Graphics/SVG/1.1/DTD/svg11.dtd">
<svg version="1.1" id="Layer_1" xmlns="http://www.w3.org/2000/svg" xmlns:xlink="http://www.w3.org/1999/xlink" x="0px" y="0px"
	 viewBox="0 0 48 48" enable-background="new 0 0 48 48" xml:space="preserve">
<g>
	<g>
		<g>
			<path fill="#F05540" d="M37.7,21.8l-0.8-10.9c-0.1-1-0.8-1.8-1.8-2.1c-7.4-1.7-14.8-1.7-22.2,0c-1,0.2-1.7,1.1-1.8,2.1l-0.8,10.9
				l-1.6-0.5v14.1h30v-14L37.7,21.8z"/>
		</g>
		<g>
			<g>
				<path fill="#344A5E" d="M35.7,19.6L35,11c0-0.2-0.2-0.4-0.3-0.4C31.2,9.8,27.6,9.4,24,9.4c-3.6,0-7.1,0.4-10.7,1.2
					c-0.2,0-0.3,0.2-0.3,0.4l-0.6,8.6C20.1,18.2,27.9,18.2,35.7,19.6z"/>
			</g>
		</g>
		<g>
			<g>
				<path fill="#F3705A" d="M13.6,35.4c0.3-1.5,0.4-3.2,0.4-4.9c0-10.7-2.7-13.5-6-13.5s-6,2.8-6,13.5c0,1.7,0.2,3.4,0.4,4.9H13.6z"
					/>
			</g>
			<g>
				<path fill="#F3705A" d="M45.6,35.4c0.3-1.5,0.4-3.2,0.4-4.9c0-10.7-2.7-13.5-6-13.5c-3.3,0-6,2.8-6,13.5c0,1.7,0.2,3.4,0.4,4.9
					H45.6z"/>
			</g>
		</g>
		<g>
			<g>
				<g>
					<g>
						<g>
							<path fill="#FFD15C" d="M8,25.8c-1.5,0-2.8-1.2-2.8-2.8s1.2-2.8,2.8-2.8c1.5,0,2.8,1.2,2.8,2.8S9.5,25.8,8,25.8z"/>
							<path fill="#415A6B" d="M8,20.8c1.2,0,2.3,1,2.3,2.3c0,1.2-1,2.3-2.3,2.3c-1.2,0-2.3-1-2.3-2.3C5.7,21.8,6.7,20.8,8,20.8
								 M8,19.8c-1.8,0-3.3,1.5-3.3,3.3c0,1.8,1.5,3.3,3.3,3.3c1.8,0,3.3-1.5,3.3-3.3C11.2,21.3,9.8,19.8,8,19.8L8,19.8z"/>
						</g>
						<g>
							<path fill="#FFD15C" d="M40,25.8c-1.5,0-2.7-1.2-2.7-2.8s1.2-2.8,2.7-2.8c1.5,0,2.8,1.2,2.8,2.8S41.5,25.8,40,25.8z"/>
							<path fill="#415A6B" d="M40,20.8c1.2,0,2.3,1,2.3,2.3c0,1.2-1,2.3-2.3,2.3c-1.2,0-2.2-1-2.2-2.3C37.8,21.8,38.8,20.8,40,20.8
								 M40,19.8c-1.8,0-3.2,1.5-3.2,3.3c0,1.8,1.5,3.3,3.2,3.3c1.8,0,3.3-1.5,3.3-3.3C43.3,21.3,41.8,19.8,40,19.8L40,19.8z"/>
						</g>
					</g>
				</g>
			</g>
		</g>
		<g>
			<g>
				<path fill="#415A6B" d="M9.3,40.5H4.5c-0.7,0-1.3-0.6-1.3-1.3v-3.8h7.3v3.8C10.6,39.9,10,40.5,9.3,40.5z"/>
			</g>
			<g>
				<path fill="#415A6B" d="M43.5,40.5h-4.8c-0.7,0-1.3-0.6-1.3-1.3v-3.8h7.3v3.8C44.8,39.9,44.2,40.5,43.5,40.5z"/>
			</g>
		</g>
		<g>
			<path fill="#E8EAE9" d="M46.8,36.9H1.2c-0.7,0-1.2-0.5-1.2-1.2v-2c0-0.7,0.5-1.2,1.2-1.2h45.6c0.7,0,1.2,0.5,1.2,1.2v2
				C48,36.3,47.5,36.9,46.8,36.9z"/>
		</g>
		<g>
			<g>
				<path fill="#F3705A" d="M29.2,26h-8.8c-0.6,0-1.1-0.5-1.1-1.1l0,0c0-0.6,0.5-1.1,1.1-1.1h8.8c0.6,0,1.1,0.5,1.1,1.1l0,0
					C30.3,25.5,29.8,26,29.2,26z"/>
			</g>
			<g>
				<path fill="#F3705A" d="M29.2,30h-8.8c-0.6,0-1.1-0.5-1.1-1.1l0,0c0-0.6,0.5-1.1,1.1-1.1h8.8c0.6,0,1.1,0.5,1.1,1.1l0,0
					C30.3,29.5,29.8,30,29.2,30z"/>
			</g>
		</g>
	</g>
</g>
</svg>
