<?xml version="1.0" encoding="utf-8"?>
<!-- Generator: Adobe Illustrator 18.0.0, SVG Export Plug-In . SVG Version: 6.00 Build 0)  -->
<!DOCTYPE svg PUBLIC "-//W3C//DTD SVG 1.1//EN" "http://www.w3.org/Graphics/SVG/1.1/DTD/svg11.dtd">
<svg version="1.1" id="Layer_1" xmlns="http://www.w3.org/2000/svg" xmlns:xlink="http://www.w3.org/1999/xlink" x="0px" y="0px"
	 viewBox="0 0 48 48" enable-background="new 0 0 48 48" xml:space="preserve">
<g>
	<path fill="#40596B" d="M39,8H9c-1.1,0-2,0.9-2,2v36c0,1.1,0.9,2,2,2H39c1.1,0,2-0.9,2-2V10C41,8.9,40.1,8,39,8z"/>
	<rect x="10.8" y="15.9" fill="#F2F2F2" width="26.3" height="28.5"/>
	<rect x="17.6" y="17.9" fill="#FF7058" width="12.8" height="15.1"/>
	<path fill="#FFFFFF" d="M28.6,11.1h-9.2c-0.4,0-0.8,0.3-0.8,0.8l0,0c0,0.4,0.3,0.8,0.8,0.8h9.2c0.4,0,0.8-0.3,0.8-0.8l0,0
		C29.4,11.5,29,11.1,28.6,11.1z"/>
	<path fill="#CDD6E0" d="M24,0L24,0c-2.5,0-4.4,2-4.4,4.4v7.5h8.9V4.4C28.4,2,26.5,0,24,0z"/>
	<circle fill="#FFFFFF" cx="24" cy="3.6" r="1.6"/>
	<g>
		<rect x="12.9" y="35.1" fill="#CDD6E0" width="22.2" height="2.5"/>
		<rect x="12.9" y="39.7" fill="#CDD6E0" width="13.8" height="2.5"/>
	</g>
	<path fill="#FFD15C" d="M28.1,27.8l-2.8-1l0,0v-0.4c0.3-0.4,0.5-0.9,0.7-1.4c0-0.1,0-0.1,0.1-0.2c0.3,0,0.5-0.3,0.6-0.7
		c0-0.4-0.1-0.7-0.3-0.8c0-0.3,0.3-1.5,0.2-1.9c-0.1-0.5-0.2-1-0.9-1.3c-0.4-0.2-2.9-0.2-3.3,0c-0.7,0.3-0.8,0.8-0.9,1.3
		c-0.1,0.4,0.2,1.6,0.2,1.9c-0.2,0.1-0.4,0.4-0.3,0.8c0,0.4,0.3,0.7,0.6,0.7c0.1,0.3,0.2,0.5,0.3,0.8c0.1,0.3,0.3,0.6,0.5,0.8v0.4
		l-2.8,1c-0.9,0.3-1.4,1.1-1.4,2.1V31h11.2v-1.1C29.6,28.9,29,28.1,28.1,27.8z"/>
</g>
</svg>
