<?xml version="1.0" encoding="utf-8"?>
<!-- Generator: Adobe Illustrator 18.0.0, SVG Export Plug-In . SVG Version: 6.00 Build 0)  -->
<!DOCTYPE svg PUBLIC "-//W3C//DTD SVG 1.1//EN" "http://www.w3.org/Graphics/SVG/1.1/DTD/svg11.dtd">
<svg version="1.1" id="Layer_1" xmlns="http://www.w3.org/2000/svg" xmlns:xlink="http://www.w3.org/1999/xlink" x="0px" y="0px"
	 viewBox="0 0 512 512" enable-background="new 0 0 512 512" xml:space="preserve">
<g>
	<ellipse fill="#40596B" cx="223.1" cy="289.6" rx="221.1" ry="220.4"/>
	<path fill="#CDD6E0" d="M83.2,119c-11.4,9.3-21.9,19.8-31.3,31.2l-14.7-14.7c-4.3-4.3-6.5-10-6.5-15.6c0-5.6,2.2-11.3,6.5-15.6
		c8.6-8.6,22.7-8.6,31.3,0L83.2,119z"/>
	<path fill="#CDD6E0" d="M157.6,42.2V4c0-1.1,0.9-2,2-2l127.2,0c1.1,0,2,0.9,2,2v38.2c0,1.1-0.9,2-2,2H159.6
		C158.5,44.2,157.6,43.3,157.6,42.2z"/>
	<path fill="#ACB3BA" d="M201,44.2v26.2c7.3-0.7,14.7-1.1,22.2-1.1c7.5,0,14.9,0.4,22.2,1.1V44.2H201z"/>
	<path fill="#F2F2F2" d="M399,289.6c0,96.6-78.9,175.2-175.8,175.2c-96.9,0-175.8-78.6-175.8-175.2c0-1.9,0.1-3.7,0.1-5.6v-0.3
		c3.1-93.9,80.8-169.3,175.7-169.3c95,0,172.6,75.4,175.7,169.3v0.3C398.9,285.9,399,287.8,399,289.6z"/>
	<path fill="#CDD6E0" d="M398.8,283.7v0.3c-0.1,1.9-0.2,3.7-0.3,5.6c-5.8-91.3-82.3-163.9-175.4-163.9
		c-93.1,0-169.5,72.5-175.4,163.9c-0.2-1.9-0.3-3.7-0.3-5.6v-0.3c3.1-93.9,80.8-169.3,175.7-169.3
		C318.1,114.5,395.7,189.9,398.8,283.7z"/>
	<ellipse fill="#FFD15C" cx="404" cy="404.4" rx="106" ry="105.6"/>
	<path fill="#4CDBC4" d="M236.8,277.3l0-109.5c0-7.5-6.1-13.6-13.7-13.6h0c-7.6,0-13.7,6.1-13.7,13.6v109.5H236.8z"/>
	<path fill="#4CDBC4" d="M130.5,303.3l83.9,0V276h-83.9c-7.6,0-13.7,6.1-13.7,13.6v0C116.9,297.2,123,303.3,130.5,303.3z"/>
	<ellipse fill="#FF7058" cx="223.1" cy="289.6" rx="29.8" ry="29.7"/>
	<ellipse fill="#FFFFFF" cx="223.1" cy="289.6" rx="17.5" ry="17.4"/>
	<path fill="#CDD6E0" d="M393.9,149.7l15.2-15.1c4.4-4.3,6.5-10,6.5-15.6c0-5.6-2.2-11.3-6.5-15.6c-8.7-8.6-22.7-8.6-31.3,0
		l-15.3,15.3C374,127.9,384.5,138.3,393.9,149.7z"/>
	<g>
		<path fill="#FFFFFF" d="M362.6,422.9v10.2h-38c0.4-3.9,1.6-7.5,3.7-11c2.1-3.5,6.1-8,12.2-13.8c4.9-4.6,7.9-7.8,9-9.4
			c1.5-2.3,2.2-4.5,2.2-6.7c0-2.5-0.6-4.3-1.9-5.7c-1.3-1.3-3.1-2-5.4-2c-2.3,0-4.1,0.7-5.4,2.1s-2.1,3.7-2.3,6.9l-10.8-1.1
			c0.6-6.1,2.7-10.4,6.1-13s7.6-4,12.7-4c5.6,0,10,1.5,13.1,4.6c3.2,3.1,4.8,6.9,4.8,11.4c0,2.6-0.5,5-1.4,7.4
			c-0.9,2.3-2.4,4.8-4.3,7.3c-1.3,1.7-3.7,4.1-7.1,7.3c-3.4,3.2-5.6,5.3-6.5,6.3s-1.7,2.1-2.2,3.1H362.6z"/>
		<path fill="#FFFFFF" d="M391.2,433.1v-11.6h-23.1v-9.6l24.5-36.5h9.1v36.4h7v9.7h-7v11.6H391.2z M391.2,411.9v-19.6l-13,19.6
			H391.2z"/>
		<path fill="#FFFFFF" d="M410.4,434.1l14-59.4h8.1l-14.2,59.4H410.4z"/>
		<path fill="#FFFFFF" d="M438.2,433.1v-57.4h11.4v22.6H472v-22.6h11.4v57.4H472V408h-22.4v25.1H438.2z"/>
	</g>
</g>
</svg>
