<?xml version="1.0" encoding="utf-8"?>
<!-- Generator: Adobe Illustrator 18.0.0, SVG Export Plug-In . SVG Version: 6.00 Build 0)  -->
<!DOCTYPE svg PUBLIC "-//W3C//DTD SVG 1.1//EN" "http://www.w3.org/Graphics/SVG/1.1/DTD/svg11.dtd">
<svg version="1.1" id="Layer_1" xmlns="http://www.w3.org/2000/svg" xmlns:xlink="http://www.w3.org/1999/xlink" x="0px" y="0px"
	 viewBox="0 0 48 48" enable-background="new 0 0 48 48" xml:space="preserve">
<g>
	<g>
		<g>
			<path fill="#F3F3F3" d="M40.3,0H7.7c-1.7,0-3,1.3-3,3v42c0,1.7,1.3,3,3,3h22.2l13.4-8.8V3C43.3,1.3,41.9,0,40.3,0z"/>
			<g>
				<path fill="#8AD7F8" d="M43.3,39.2L29.9,48l6.7-11.4C38,39.2,40.5,40.6,43.3,39.2z"/>
			</g>
		</g>
		<g>
			<rect x="8.7" y="15.1" fill="#CED6E0" width="30.5" height="2"/>
		</g>
		<g>
			<rect x="8.7" y="21.5" fill="#CED6E0" width="30.5" height="2"/>
		</g>
		<g>
			<rect x="8.7" y="27.8" fill="#CED6E0" width="30.5" height="2"/>
		</g>
		<g>
			<rect x="8.7" y="34.2" fill="#CED6E0" width="30.5" height="2"/>
		</g>
		<g>
			<path fill="#F3705A" d="M11.5,10.5V4.1H13v5.1h2.7v1.3H11.5z"/>
			<path fill="#F3705A" d="M21.9,9.6c-0.6,0.6-1.4,0.9-2.4,0.9c-0.9,0-1.7-0.3-2.4-0.9c-0.6-0.6-1-1.4-1-2.3s0.3-1.7,1-2.3
				C17.8,4.3,18.6,4,19.5,4c0.9,0,1.7,0.3,2.4,0.9s1,1.4,1,2.3S22.5,9,21.9,9.6z M21.4,7.3c0-0.6-0.2-1-0.5-1.4
				c-0.4-0.4-0.8-0.6-1.3-0.6c-0.5,0-1,0.2-1.3,0.6c-0.4,0.4-0.5,0.9-0.5,1.4c0,0.6,0.2,1,0.5,1.4c0.4,0.4,0.8,0.6,1.3,0.6
				c0.5,0,1-0.2,1.3-0.6C21.2,8.3,21.4,7.8,21.4,7.3z"/>
			<path fill="#F3705A" d="M28.4,10.5l-0.6-1.4h-2.7l-0.6,1.4H23l2.7-6.3h1.4l2.7,6.3H28.4z M26.4,6l-0.8,1.8h1.6L26.4,6z"/>
			<path fill="#F3705A" d="M35,4.1h1.4v6.3H35l-3-4v4h-1.4V4.1h1.3L35,8.2V4.1z"/>
		</g>
		<g>
			<g>
				<path fill="#415A6B" d="M20,44.2C20,44.2,19.9,44.2,20,44.2c-0.8,0-1.4-0.2-2-0.6c-0.5-0.3-0.8-0.6-0.9-1
					c-0.2-0.5-0.1-1.1,0.3-1.6c-0.7,0.2-1.4,0.5-2.1,0.9c-0.1,0.1-0.2,0.1-0.2,0.2c-0.1,0.1-0.2,0.2-0.3,0.3
					c-0.4,0.3-0.8,0.4-1.1,0.2c-0.4-0.2-0.7-0.6-0.8-0.9c-0.2-0.3-0.3-0.4-0.3-0.4h0c-0.1,0-0.2,0.2-0.3,0.3
					c-0.2,0.2-0.3,0.4-0.6,0.6c-0.4,0.3-0.9,0.4-1.3,0.2c-0.4-0.2-0.6-0.6-0.6-1.1c0-0.5,0-1,0.1-1.5c0-0.2,0.3-0.4,0.5-0.4
					c0.2,0,0.4,0.3,0.4,0.5c-0.1,0.4-0.1,0.9-0.1,1.3c0,0.2,0.1,0.3,0.1,0.3c0,0,0.2,0,0.4-0.1c0.2-0.1,0.3-0.2,0.4-0.3
					c0.2-0.3,0.5-0.6,1-0.6c0.3,0,0.7,0.1,1.1,0.8c0.1,0.2,0.2,0.4,0.3,0.5c0.1,0,0.2,0,0.3-0.1c0.1-0.1,0.2-0.1,0.3-0.2
					c0.1-0.1,0.2-0.2,0.3-0.3c1.5-1,3-1.4,4.3-1.2c0,0,0.1,0,0.1,0c1.2-0.3,2.4-0.4,3.7-0.3c0.6,0.1,1.4,0.2,1.9,0.7
					c0.2,0.2,0.2,0.4,0.1,0.6c-0.2,0.2-0.4,0.2-0.6,0.1c-0.4-0.3-1-0.4-1.5-0.5c-0.7-0.1-1.5-0.1-2.2,0c0.7,0.5,1.1,1.4,1.1,2.4
					c0,0,0,0.1,0,0.1C21.5,43.9,20.7,44.2,20,44.2z M19.1,41c-0.3,0.1-0.6,0.2-0.9,0.5c-0.3,0.3-0.4,0.6-0.3,0.9
					c0.1,0.2,0.2,0.4,0.5,0.6c0.5,0.3,1,0.4,1.5,0.5c0.3,0,0.7-0.1,0.8-0.3c-0.1-0.9-0.4-1.5-1.1-1.8C19.5,41.1,19.3,41,19.1,41z"/>
			</g>
		</g>
	</g>
</g>
</svg>
