<?xml version="1.0" encoding="utf-8"?>
<!-- Generator: Adobe Illustrator 18.0.0, SVG Export Plug-In . SVG Version: 6.00 Build 0)  -->
<!DOCTYPE svg PUBLIC "-//W3C//DTD SVG 1.1//EN" "http://www.w3.org/Graphics/SVG/1.1/DTD/svg11.dtd">
<svg version="1.1" id="Layer_1" xmlns="http://www.w3.org/2000/svg" xmlns:xlink="http://www.w3.org/1999/xlink" x="0px" y="0px"
	 viewBox="0 0 48 48" enable-background="new 0 0 48 48" xml:space="preserve">
<g>
	<path fill="#F2F2F2" d="M47.8,11.8c-1-6-5.4-10.6-11.2-11.6c-3.3-0.6-6.4,0.1-9,1.6c-2.3,1.3-5,1.3-7.3,0c-2.6-1.5-5.7-2.2-9-1.6
		C5.6,1.2,1.1,5.8,0.2,11.8c-0.8,5.1,1.1,9.9,4.4,12.9c1.8,1.7,2.9,4.1,2.9,6.7v0c0,5.1,1.1,9.7,3,13.6c2.4,4.8,9.5,3.3,9.9-2.2
		l0.3-5c0.1-2,0.4-3.9,0.8-5.9c0.2-0.9,0.8-1.7,1.6-1.9c1.5-0.5,2.9,0.4,3.2,1.8c0.4,2,0.7,3.9,0.9,6l0.3,5.1c0.4,5.4,7.4,7,9.9,2.2
		c2-3.8,3.1-8.6,3.1-13.7v0c0-2.6,1.1-5,2.9-6.7C46.8,21.6,48.6,16.9,47.8,11.8z"/>
	<g>
		<path fill="#FFFFFF" d="M4.1,13.4c-0.1,0-0.1,0-0.2,0c-0.5-0.1-0.9-0.6-0.8-1.1c0.8-4.7,4.2-8.3,8.7-9.1c1.7-0.3,3.4-0.2,5.1,0.4
			c0.5,0.2,0.8,0.7,0.6,1.3c-0.2,0.5-0.7,0.8-1.3,0.6c-1.4-0.5-2.7-0.6-4.1-0.3c-3.7,0.6-6.5,3.5-7.1,7.4C5.1,13,4.6,13.4,4.1,13.4z
			"/>
	</g>
</g>
</svg>
