<?xml version="1.0" encoding="utf-8"?>
<!-- Generator: Adobe Illustrator 20.1.0, SVG Export Plug-In . SVG Version: 6.00 Build 0)  -->
<!DOCTYPE svg PUBLIC "-//W3C//DTD SVG 1.1//EN" "http://www.w3.org/Graphics/SVG/1.1/DTD/svg11.dtd">
<svg version="1.1" id="Layer_1" xmlns="http://www.w3.org/2000/svg" xmlns:xlink="http://www.w3.org/1999/xlink" x="0px" y="0px"
	 viewBox="0 0 49 49" enable-background="new 0 0 49 49" xml:space="preserve">
<g>
	<path fill="#E2E2E2" d="M48.3,48.2H0.7c-0.1-0.8-0.2-1.5-0.2-2.2c0-4.3,2-7,5-9.1c2.3-1.7,5.2-3.1,8.1-4.6c0.3-0.1,0.6-0.3,0.8-0.4
		c0.2-0.1,0.4-0.2,0.6-0.3c0.4-0.2,0.7-0.4,1.1-0.6c0.4-0.2,0.7-0.4,1.1-0.7l7.3,7.8l7.3-7.8c0.4,0.2,0.7,0.4,1.1,0.7
		c0.4,0.2,0.7,0.4,1.1,0.6c0.2,0.1,0.4,0.2,0.6,0.3c0.3,0.2,0.6,0.3,0.8,0.4c2.9,1.6,5.8,2.9,8.1,4.7C47,39.5,49.1,42.7,48.3,48.2z"
		/>
	<polygon fill="#F8B64C" points="31.8,32.5 31.8,32.5 31.8,32.5 	"/>
	<path fill="#F8B64C" d="M30.9,28.2c-1.5,2-3.4,3.4-5.5,3.7C25.1,32,24.8,32,24.5,32l0,0l0,0c0,0,0,0,0,0c-0.3,0-0.6,0-0.9-0.1
		c-2.1-0.3-3.9-1.7-5.5-3.7c-0.6,2-0.9,2-0.9,2l7.3,7.8l7.3-7.8C31.8,30.2,31.4,30.2,30.9,28.2z"/>
	<g>
		<ellipse transform="matrix(0.9895 -0.1448 0.1448 0.9895 -2.4542 2.2509)" fill="#F8B64C" cx="14.2" cy="18" rx="2" ry="3.7"/>
		<ellipse transform="matrix(0.1448 -0.9895 0.9895 0.1448 11.9363 49.7813)" fill="#F8B64C" cx="34.8" cy="18" rx="3.7" ry="2"/>
		<path fill="#FFD15C" d="M35.4,15c0,7.6-4.9,17-10.9,17s-10.9-9.4-10.9-17S18.5,1.2,24.5,1.2S35.4,7.4,35.4,15z"/>
		<path fill="#334A5E" d="M34.9,6.8c-2.4-6.5-10.3-6-10.3-6s-8-0.5-10.3,6c0,0-1.5,5-0.6,9.4h1.4c0,0-0.6-7.4,1.9-10
			c0,0,1.5,2.4,7.7,2.6c6.3-0.2,7.7-2.6,7.7-2.6c2.4,2.6,1.9,10,1.9,10h1.4C36.4,11.8,34.9,6.8,34.9,6.8z"/>
	</g>
	<path fill="#314A5E" d="M43.5,36.9c-1.7,2.7-3.7,6.6-4,11.3h-30c-0.3-4.7-2.3-8.6-4-11.3c2.3-1.7,5.2-3.1,8.1-4.6
		c0.3-0.1,0.6-0.3,0.8-0.4c0.2-0.1,0.4-0.2,0.6-0.3l9.5,12l9.5-12c0.2,0.1,0.4,0.2,0.6,0.3c0.3,0.2,0.6,0.3,0.8,0.4
		C38.3,33.8,41.2,35.2,43.5,36.9z"/>
	<g>
		<g>
			<path fill="#FF7058" d="M23.8,38.6c0,0-3.6,1.7-4.5,1c-0.7-0.6-0.7-3.2,0-3.7c0.9-0.7,4.5,1,4.5,1V38.6z"/>
			<path fill="#FF7058" d="M25.2,38.6c0,0,3.6,1.7,4.5,1c0.7-0.6,0.7-3.2,0-3.7c-0.9-0.7-4.5,1-4.5,1V38.6z"/>
		</g>
		<circle fill="#84DBFF" cx="24.5" cy="37.7" r="1.4"/>
	</g>
</g>
</svg>
