<?xml version="1.0" encoding="utf-8"?>
<!-- Generator: Adobe Illustrator 18.0.0, SVG Export Plug-In . SVG Version: 6.00 Build 0)  -->
<!DOCTYPE svg PUBLIC "-//W3C//DTD SVG 1.1//EN" "http://www.w3.org/Graphics/SVG/1.1/DTD/svg11.dtd">
<svg version="1.1" id="Layer_1" xmlns="http://www.w3.org/2000/svg" xmlns:xlink="http://www.w3.org/1999/xlink" x="0px" y="0px"
	 viewBox="0 0 48 48" enable-background="new 0 0 48 48" xml:space="preserve">
<g>
	<path fill="#FFD15C" d="M1.5,38.8c0,0-3.4-4.6,0.2-9.9c0,0,2.6-3.5,8.2-4.3c0,0,4.2,0,5.2-4.3c0,0,2-5.6,8-4.1c0,0,6,1.7,4.7,7.1
		c0,0-1.1,1.8,1.5,3.7c0,0,4.9,3.3-1.9,6.2c0,0-3.9,1.1-3.8,4.9c0,0-0.5,7.8-7.8,9.8C15.7,47.8,8.9,49.9,1.5,38.8z"/>
	<path fill="#F8B64C" d="M24.2,29.9c-1.7,1.7-4.4,1.7-6.1,0c-1.7-1.7-1.7-4.4,0-6.1c1.7-1.7,4.4-1.7,6.1,0
		C25.9,25.4,25.9,28.2,24.2,29.9z"/>
	<circle fill="#F2F2F2" cx="21.2" cy="26.8" r="3.2"/>
	<circle fill="#40596B" cx="21.2" cy="26.8" r="2.6"/>
	<path fill="#FF7058" d="M7.6,31.3c-0.4,0.4-0.4,1.1,0,1.5l7.6,7.6c0.4,0.4,1.1,0.4,1.5,0c0.4-0.4,0.4-1.1,0-1.5l-7.6-7.6
		C8.7,30.9,8,30.9,7.6,31.3z"/>
	<path fill="#CDD6E0" d="M20.2,23.7c1.1-0.4,2.4-0.1,3.3,0.8c0.9,0.9,1.1,2.1,0.8,3.3l15.5-16.7l-2.9-2.9L20.2,23.7z"/>
	<g>
		<g>
			<path fill="#CDD6E0" d="M38.5,3.1c-0.2-0.2-0.6-0.2-0.8,0c-0.2,0.2-0.2,0.6,0,0.8C37.9,4,38.1,4,38.3,4c0.1,0,0.4,0.4,0.4,0.4
				L39.1,4c0,0-0.4-0.3-0.4-0.4C38.6,3.4,38.7,3.2,38.5,3.1z"/>
			<path fill="#CDD6E0" d="M41.4,1c-0.2-0.2-0.6-0.2-0.8,0c-0.2,0.2-0.2,0.6,0,0.8c0.1,0.2,0.4,0.1,0.6,0.1c0.1,0,0.4,0.4,0.4,0.4
				L42,1.9c0,0-0.4-0.3-0.4-0.4C41.5,1.3,41.6,1.1,41.4,1z"/>
		</g>
		<g>
			<path fill="#CDD6E0" d="M44.9,9.4c0.2,0.2,0.2,0.6,0,0.8c-0.2,0.2-0.6,0.2-0.8,0c-0.2-0.2-0.1-0.4-0.1-0.6c0-0.1-0.4-0.4-0.4-0.4
				l0.4-0.4c0,0,0.3,0.4,0.4,0.4C44.5,9.3,44.7,9.3,44.9,9.4z"/>
			<path fill="#CDD6E0" d="M47,6.5c0.2,0.2,0.2,0.6,0,0.8c-0.2,0.2-0.6,0.2-0.8,0C46,7.2,46.1,7,46,6.8c0-0.1-0.4-0.4-0.4-0.4L46,6
				c0,0,0.3,0.4,0.4,0.4C46.6,6.5,46.8,6.4,47,6.5z"/>
		</g>
	</g>
	<polygon fill="#FF7058" points="36.8,5.5 36.8,8.2 39.7,11.1 42.4,11.1 48,3.7 47.7,0.3 44.3,0 	"/>
	<g>
		<polygon fill="#40596B" points="46,1.4 44.6,1.2 38.1,6.1 38.1,7.8 38.8,8.5 		"/>
		<polygon fill="#40596B" points="39.4,9.1 40.2,9.9 41.8,9.9 46.7,3.3 46.6,1.9 		"/>
	</g>
	<g>
		<polygon fill="#F2F2F2" points="22.8,21.2 26.7,25.1 26.3,25.6 22.3,21.7 		"/>
		<polygon fill="#F2F2F2" points="25.2,19 28.9,22.7 28.5,23.2 24.7,19.5 		"/>
		<polygon fill="#F2F2F2" points="27.6,16.8 31.1,20.4 30.7,20.9 27.1,17.3 		"/>
		<polygon fill="#F2F2F2" points="29.9,14.6 33.3,18 32.9,18.5 29.5,15.1 		"/>
		<polygon fill="#F2F2F2" points="32.3,12.4 35.5,15.6 35.1,16.1 31.8,12.9 		"/>
		<polygon fill="#F2F2F2" points="34.7,10.2 37.7,13.3 37.3,13.8 34.2,10.7 		"/>
	</g>
</g>
</svg>
