<?xml version="1.0" encoding="utf-8"?>
<!-- Generator: Adobe Illustrator 18.0.0, SVG Export Plug-In . SVG Version: 6.00 Build 0)  -->
<!DOCTYPE svg PUBLIC "-//W3C//DTD SVG 1.1//EN" "http://www.w3.org/Graphics/SVG/1.1/DTD/svg11.dtd">
<svg version="1.1" id="Layer_1" xmlns="http://www.w3.org/2000/svg" xmlns:xlink="http://www.w3.org/1999/xlink" x="0px" y="0px"
	 viewBox="0 0 48 48" enable-background="new 0 0 48 48" xml:space="preserve">
<g>
	<path fill="#40596B" d="M27.1,8.1v3.5c0,1.8-1.5,3.3-3.3,3.3l0,0c-1.8,0-3.3-1.5-3.3-3.3V8.1h-5.1v9.4h16.7V8.1H27.1z"/>
	<path fill="#FF7058" d="M31,16.7H16.5c-3,0-5.9,1.6-7.5,4.1L1.8,32.3c-0.9,1.4-1.3,3-1.3,4.7v0.2c0,4.9,3.9,8.8,8.8,8.8h29.9
		c4.9,0,8.8-3.9,8.8-8.8l0,0c0-1.8-0.6-3.6-1.6-5l-8.2-11.7C36.6,18.1,33.9,16.7,31,16.7z"/>
	<path fill="#F1543F" d="M1.8,41.9c1.6,2.5,4.3,4.2,7.5,4.2h29.9c3.2,0,5.9-1.7,7.5-4.2H1.8z"/>
	<path fill="#FF7058" d="M47.5,14.6c-0.3,2.4-2.2,4.4-4.6,4.6c-2.7,0.3-5.4-0.6-5.4-0.6c-2.5-1.1-2.7-4.3-2.6-5.8
		c0-0.5,0.1-0.8,0.1-0.8c-0.3-3.2-11.2-3-11.2-3s-10.9-0.2-11.2,3c0,0,0,0.3,0.1,0.8c0.1,1.5-0.1,4.7-2.6,5.8c0,0-2.7,0.9-5.4,0.6
		c-2.4-0.2-4.3-2.2-4.6-4.6C0,14,0,13.2,0,12.3c0-0.5,0.1-1,0.1-1.5c0,0,0.1-3.2,8.1-6.4c0,0,5.6-2.5,15.5-2.5
		C33.7,2,39.3,4.4,39.3,4.4c8.1,3.2,8.1,6.4,8.1,6.4c0.1,0.6,0.1,1.1,0.1,1.5C47.6,13.2,47.5,14,47.5,14.6z"/>
	<g>
		<circle fill="#FFD15C" cx="24.3" cy="29.3" r="9.5"/>
		<circle fill="#FFFFFF" cx="24.3" cy="23.6" r="1.8"/>
		<circle fill="#FFFFFF" cx="24.3" cy="35" r="1.8"/>
		<circle fill="#FFFFFF" cx="28.4" cy="25.3" r="1.8"/>
		<circle fill="#FFFFFF" cx="20.3" cy="33.4" r="1.8"/>
		<circle fill="#FFFFFF" cx="30.1" cy="29.3" r="1.8"/>
		<circle fill="#FFFFFF" cx="18.6" cy="29.3" r="1.8"/>
		<circle fill="#FFFFFF" cx="20.3" cy="25.3" r="1.8"/>
		<polygon fill="#40596B" points="27.9,32.6 30.5,37 32.2,35.2 		"/>
	</g>
</g>
</svg>
