<?xml version="1.0" encoding="utf-8"?>
<!-- Generator: Adobe Illustrator 16.0.0, SVG Export Plug-In . SVG Version: 6.00 Build 0)  -->
<!DOCTYPE svg PUBLIC "-//W3C//DTD SVG 1.1//EN" "http://www.w3.org/Graphics/SVG/1.1/DTD/svg11.dtd">
<svg version="1.1" id="Layer_1" xmlns="http://www.w3.org/2000/svg" xmlns:xlink="http://www.w3.org/1999/xlink" x="0px" y="0px"
	 width="48px" height="48px" viewBox="0 0 48 48" enable-background="new 0 0 48 48" xml:space="preserve">
<g>
	<path fill="#E7E9E8" d="M6.208,30.829c1.801,1.588,3.779,2.76,5.787,3.545h7.779l8.137-9.234c-0.178-4.059-2.33-8.5-6.193-11.906
		C17.587,9.595,12.53,8.04,8.304,8.679l-8.301,9.418C-0.097,22.368,2.079,27.19,6.208,30.829"/>
	<path fill="#CDD5DF" d="M4.606,32.478l-0.248-0.219c-0.998-0.879-1.094-2.402-0.215-3.4l15.357-17.426
		c0.881-0.998,2.402-1.094,3.4-0.215l0.25,0.221c0.998,0.879,1.094,2.4,0.215,3.4L8.009,32.263
		C7.128,33.263,5.604,33.358,4.606,32.478"/>
	<path fill="#F26F5A" d="M48.001,31.856V26.31c0-0.51-0.068-1.018-0.203-1.51l-2.49-9.135c-0.303-1.105-1.307-1.875-2.455-1.875
		H31.567c-1.404,0-2.543,1.139-2.543,2.545v15.521H48.001z"/>
	<path fill="#54BFEB" d="M34.788,24.833h11.035l-2.361-8.664c-0.074-0.273-0.324-0.465-0.609-0.465h-8.064V24.833z"/>
	<path fill="#89D6F7" d="M34.788,22.169l8.674-6c-0.074-0.273-0.324-0.465-0.609-0.465h-8.064V22.169z"/>
	<rect x="0.522" y="31.817" fill="#40596B" width="47.477" height="3.73"/>
	<path fill="#334A5E" d="M43.606,33.938c0,3.051-2.473,5.523-5.523,5.523s-5.525-2.473-5.525-5.523s2.475-5.525,5.525-5.525
		S43.606,30.888,43.606,33.938"/>
	<path fill="#CDD5DF" d="M40.368,33.938c0,1.262-1.023,2.285-2.285,2.285s-2.287-1.023-2.287-2.285c0-1.264,1.025-2.285,2.287-2.285
		S40.368,32.675,40.368,33.938"/>
	<path fill="#334A5E" d="M17.415,33.938c0,3.051-2.475,5.523-5.525,5.523s-5.523-2.473-5.523-5.523s2.473-5.525,5.523-5.525
		S17.415,30.888,17.415,33.938"/>
	<path fill="#CDD5DF" d="M14.175,33.938c0,1.262-1.021,2.285-2.283,2.285c-1.264,0-2.287-1.023-2.287-2.285
		c0-1.264,1.023-2.285,2.287-2.285C13.153,31.653,14.175,32.675,14.175,33.938"/>
</g>
</svg>
