<?xml version="1.0" encoding="utf-8"?>
<!-- Generator: Adobe Illustrator 18.0.0, SVG Export Plug-In . SVG Version: 6.00 Build 0)  -->
<!DOCTYPE svg PUBLIC "-//W3C//DTD SVG 1.1//EN" "http://www.w3.org/Graphics/SVG/1.1/DTD/svg11.dtd">
<svg version="1.1" id="Layer_1" xmlns="http://www.w3.org/2000/svg" xmlns:xlink="http://www.w3.org/1999/xlink" x="0px" y="0px"
	 viewBox="0 0 48 48" enable-background="new 0 0 48 48" xml:space="preserve">
<g>
	<g>
		<g>
			<path fill="#344A5E" d="M38.1,7.5H9.9c-1.3,0-2.4,1.1-2.4,2.4v28.2c0,1.3,1.1,2.4,2.4,2.4h28.2c1.3,0,2.4-1.1,2.4-2.4V9.9
				C40.5,8.6,39.4,7.5,38.1,7.5z"/>
			<path fill="#415A6B" d="M12.3,35.7V12.3h16.1c2.8,2.8,4.4,4.4,7.3,7.3v16.1H12.3z"/>
		</g>
		<g>
			<g>
				<rect x="11.7" y="5.5" fill="#E8EAE9" width="3.9" height="2"/>
				<rect x="12.5" y="0" fill="#FFD15C" width="2.2" height="5.5"/>
			</g>
			<g>
				<rect x="18.6" y="5.5" fill="#E8EAE9" width="3.9" height="2"/>
				<rect x="19.4" y="0" fill="#FFD15C" width="2.2" height="5.5"/>
			</g>
			<g>
				<rect x="25.5" y="5.5" fill="#E8EAE9" width="3.9" height="2"/>
				<rect x="26.3" y="0" fill="#FFD15C" width="2.2" height="5.5"/>
			</g>
			<g>
				<rect x="32.4" y="5.5" fill="#E8EAE9" width="3.9" height="2"/>
				<rect x="33.3" y="0" fill="#FFD15C" width="2.2" height="5.5"/>
			</g>
		</g>
		<g>
			<g>
				<rect x="5.5" y="32.4" fill="#E8EAE9" width="2" height="3.9"/>
				<rect x="0" y="33.3" fill="#FFD15C" width="5.5" height="2.2"/>
			</g>
			<g>
				<rect x="5.5" y="25.5" fill="#E8EAE9" width="2" height="3.9"/>
				<rect x="0" y="26.3" fill="#FFD15C" width="5.5" height="2.2"/>
			</g>
			<g>
				<rect x="5.5" y="18.6" fill="#E8EAE9" width="2" height="3.9"/>
				<rect x="0" y="19.4" fill="#FFD15C" width="5.5" height="2.2"/>
			</g>
			<g>
				<rect x="5.5" y="11.7" fill="#E8EAE9" width="2" height="3.9"/>
				<rect x="0" y="12.5" fill="#FFD15C" width="5.5" height="2.2"/>
			</g>
		</g>
		<g>
			<g>
				<rect x="32.4" y="40.5" fill="#E8EAE9" width="3.9" height="2"/>
				<rect x="33.3" y="42.5" fill="#FFD15C" width="2.2" height="5.5"/>
			</g>
			<g>
				<rect x="25.5" y="40.5" fill="#E8EAE9" width="3.9" height="2"/>
				<rect x="26.3" y="42.5" fill="#FFD15C" width="2.2" height="5.5"/>
			</g>
			<g>
				<rect x="18.6" y="40.5" fill="#E8EAE9" width="3.9" height="2"/>
				<rect x="19.4" y="42.5" fill="#FFD15C" width="2.2" height="5.5"/>
			</g>
			<g>
				<rect x="11.7" y="40.5" fill="#E8EAE9" width="3.9" height="2"/>
				<rect x="12.5" y="42.5" fill="#FFD15C" width="2.2" height="5.5"/>
			</g>
		</g>
		<g>
			<g>
				<rect x="40.5" y="11.7" fill="#E8EAE9" width="2" height="3.9"/>
				<rect x="42.5" y="12.5" fill="#FFD15C" width="5.5" height="2.2"/>
			</g>
			<g>
				<rect x="40.5" y="18.6" fill="#E8EAE9" width="2" height="3.9"/>
				<rect x="42.5" y="19.4" fill="#FFD15C" width="5.5" height="2.2"/>
			</g>
			<g>
				<rect x="40.5" y="25.5" fill="#E8EAE9" width="2" height="3.9"/>
				<rect x="42.5" y="26.3" fill="#FFD15C" width="5.5" height="2.2"/>
			</g>
			<g>
				<rect x="40.5" y="32.4" fill="#E8EAE9" width="2" height="3.9"/>
				<rect x="42.5" y="33.3" fill="#FFD15C" width="5.5" height="2.2"/>
			</g>
		</g>
	</g>
</g>
</svg>
