<?xml version="1.0" encoding="utf-8"?>
<!-- Generator: Adobe Illustrator 16.0.0, SVG Export Plug-In . SVG Version: 6.00 Build 0)  -->
<!DOCTYPE svg PUBLIC "-//W3C//DTD SVG 1.1//EN" "http://www.w3.org/Graphics/SVG/1.1/DTD/svg11.dtd">
<svg version="1.1" id="Layer_1" xmlns="http://www.w3.org/2000/svg" xmlns:xlink="http://www.w3.org/1999/xlink" x="0px" y="0px"
	 width="48px" height="48px" viewBox="0 0 48 48" enable-background="new 0 0 48 48" xml:space="preserve">
<g>
	<path fill="#FFD15C" d="M40.412,0.037H3c-1.656,0-3,1.344-3,3v37.412c0,1.658,1.344,3,3,3h37.412c1.656,0,3-1.342,3-3V3.037
		C43.412,1.381,42.068,0.037,40.412,0.037"/>
	<polygon fill="#F8B64C" points="27.072,9.921 27.072,0.038 16.34,0.038 16.34,9.921 21.705,6.207 	"/>
	<path fill="#F2F2F2" d="M33.252,47.885c0.361,0.104,0.75,0.104,1.111,0C42.506,45.537,48,39.145,48,31.939v-6.904
		c0-0.85-0.533-1.607-1.338-1.883c-4.834-1.655-9.604-4.741-11.719-6.207c-0.686-0.475-1.584-0.475-2.271,0
		c-2.115,1.466-6.885,4.552-11.719,6.207c-0.803,0.275-1.338,1.033-1.338,1.883v6.904C19.615,39.145,25.109,45.537,33.252,47.885"/>
	<path fill="#FFFFFF" d="M33.809,20.045h-0.002c-2.426,1.602-6.389,3.986-10.586,5.559v6.336c0,0.047,0.006,0.092,0.006,0.139
		h10.582V20.045z"/>
	<path fill="#FFFFFF" d="M44.389,32.078h-10.58v12.781C40.135,42.801,44.322,37.789,44.389,32.078"/>
	<path fill="#84DBFF" d="M33.809,32.086h10.58c0-0.049,0.006-0.098,0.006-0.146v-6.334c-4.195-1.572-8.16-3.959-10.586-5.561V32.086
		z"/>
	<path fill="#84DBFF" d="M33.807,44.859h0.002V32.086H23.227C23.299,37.795,27.484,42.805,33.807,44.859"/>
</g>
</svg>
