<?xml version="1.0" encoding="utf-8"?>
<!-- Generator: Adobe Illustrator 18.0.0, SVG Export Plug-In . SVG Version: 6.00 Build 0)  -->
<!DOCTYPE svg PUBLIC "-//W3C//DTD SVG 1.1//EN" "http://www.w3.org/Graphics/SVG/1.1/DTD/svg11.dtd">
<svg version="1.1" id="Layer_1" xmlns="http://www.w3.org/2000/svg" xmlns:xlink="http://www.w3.org/1999/xlink" x="0px" y="0px"
	 viewBox="0 0 512 512" enable-background="new 0 0 512 512" xml:space="preserve">
<g>
	<path fill="#CDD6E0" d="M347.9,114.2c6.8-0.1,12.2-5.6,12.2-12.4c0-6.9-5.6-12.4-12.4-12.4H164.3c-6.9,0-12.4,5.6-12.4,12.4
		c0,6.8,5.4,12.3,12.2,12.4c-6.8,0.1-12.2,5.6-12.2,12.4c0,6.9,5.6,12.4,12.4,12.4h183.4c6.9,0,12.4-5.6,12.4-12.4
		C360.1,119.8,354.7,114.3,347.9,114.2z"/>
	<g>
		<path fill="#FF7058" d="M367.3,29.7c0-15.4-12.5-27.8-27.9-27.7c-15.4,0-27.8,12.5-27.7,27.9c0-15.4-12.5-27.8-27.9-27.7
			S255.9,14.7,256,30.1c0-15.4-12.5-27.8-27.9-27.7c-15.4,0-27.8,12.5-27.7,27.9c0-15.4-12.5-27.8-27.9-27.7
			c-15.4,0-27.8,12.5-27.7,27.9l0.1,7.5l21.5,51.4h179.6l21.5-52.1L367.3,29.7z"/>
		<path fill="#FF7058" d="M348.1,138.9c-0.1,0-0.3,0.1-0.4,0.1H164.3c-0.1,0-0.3-0.1-0.4-0.1C97,176.3,51.1,250.6,51.1,323.5
			c0,103,91.7,186.5,204.9,186.5c113.2,0,204.9-83.5,204.9-186.5C460.9,250.6,415,176.3,348.1,138.9z"/>
	</g>
	<circle fill="#FFFFFF" cx="256" cy="312.1" r="108.7"/>
	<g>
		<path fill="#84DBFF" d="M293.8,313c-5.5-6.5-15.7-11.7-30.7-15.8v-36.7c6.1,2.6,9.8,7.6,11.2,15l23.8-3.2
			c-1.7-9.4-5.4-16.8-11.3-22.4c-5.9-5.6-13.8-9-23.7-10.2v-9.3h-13.6v9.3c-10.8,1.1-19.4,5.1-25.9,12c-6.5,7-9.7,15.6-9.7,25.9
			c0,10.1,2.9,18.8,8.6,25.8c5.7,7.1,14.7,12.4,27,15.9v39.3c-3.4-1.7-6.5-4.3-9.2-7.9c-2.7-3.7-4.6-8-5.6-12.9l-24.5,2.6
			c1.9,12.4,6.2,21.9,12.9,28.6c2.3,2.3,4.8,4.3,7.6,6c5.3,3.2,11.6,5.2,18.8,6.1v12.3h13.6v-12.8c6.7-1,12.7-2.8,17.8-5.7
			c4.1-2.2,7.7-5.1,10.8-8.5c6.9-7.7,10.3-17.3,10.3-28.5C301.9,327.9,299.2,319.5,293.8,313z M263.1,323.5c5.6,1.6,9.6,3.9,12.1,7
			c2.5,3,3.7,6.6,3.7,10.8c0,4.7-1.5,8.8-4.4,12.3c-3,3.5-6.8,5.6-11.5,6.5V323.5z M240.3,285.9c-2-2.9-3-6-3-9.3
			c0-3.7,1.1-6.9,3.3-10c2.2-3,5.1-5.1,8.8-6.4v32.5C245.4,291,242.3,288.7,240.3,285.9z"/>
	</g>
</g>
</svg>
