<?xml version="1.0" encoding="utf-8"?>
<!-- Generator: Adobe Illustrator 18.0.0, SVG Export Plug-In . SVG Version: 6.00 Build 0)  -->
<!DOCTYPE svg PUBLIC "-//W3C//DTD SVG 1.1//EN" "http://www.w3.org/Graphics/SVG/1.1/DTD/svg11.dtd">
<svg version="1.1" id="Layer_1" xmlns="http://www.w3.org/2000/svg" xmlns:xlink="http://www.w3.org/1999/xlink" x="0px" y="0px"
	 viewBox="0 0 48 48" enable-background="new 0 0 48 48" xml:space="preserve">
<g>
	<g>
		<path fill="#FF7058" d="M9.3,1.2c-4.9,4-5.7,8.7-5.7,8.7C2,24.1,10,39.8,22.4,46.9c0,0,4.3,2.2,10.4,0.6c0.7-0.2,1.2-0.3,1.8-0.7
			L23.9,34.5c-1.7,0.8-3.7,0.4-4.9-1c-2-2.3-5.9-10.1-6.6-13c-0.4-1.8,0.5-3.7,2.1-4.5L11,0.1C10.3,0.4,9.8,0.7,9.3,1.2z"/>
		<path fill="#40596B" d="M37.1,40.2l-7-7.8c-0.6-0.7-1.6-0.9-2.4-0.5c-1,0.5-2.3,1.3-3.8,2.6c0,0,0,0,0,0l10.8,12.2
			c0.8-0.6,1.6-1.7,2.8-4.2C37.8,41.8,37.7,40.9,37.1,40.2z"/>
		<path fill="#40596B" d="M19.9,12.2L17.7,2c-0.2-0.8-0.8-1.5-1.7-1.6c-2.7-0.5-4.1-0.5-5-0.2L14.5,16c0,0,0,0,0,0
			c2-0.4,3.4-1,4.4-1.5C19.7,14.1,20.1,13.1,19.9,12.2z"/>
	</g>
	<g>
		<g>
			<path fill="#CDD6E0" d="M43.7,28.4c-0.3,0.2-0.7,0.3-1.2,0.3c-0.8-0.1-1.4-0.9-1.3-1.8c0.8-4.7-0.3-9.4-3-13.2
				c-2.7-3.9-6.8-6.4-11.5-7.2c-0.8-0.1-1.4-0.9-1.3-1.8c0.1-0.8,0.9-1.4,1.8-1.3c5.5,0.9,10.3,3.9,13.5,8.5
				c3.2,4.5,4.5,10,3.6,15.5C44.2,27.8,44,28.2,43.7,28.4z"/>
		</g>
		<g>
			<path fill="#CDD6E0" d="M36.5,27.2c-0.3,0.2-0.7,0.3-1.2,0.3c-0.8-0.1-1.4-0.9-1.3-1.8c1-5.7-2.9-11.1-8.6-12
				c-0.8-0.1-1.4-0.9-1.3-1.8c0.1-0.8,0.9-1.4,1.8-1.3c7.4,1.2,12.4,8.3,11.1,15.6C37.1,26.6,36.8,27,36.5,27.2z"/>
		</g>
		<g>
			<path fill="#CDD6E0" d="M29.4,26c-0.3,0.2-0.7,0.3-1.2,0.3c-0.8-0.1-1.4-0.9-1.3-1.8c0.3-1.7-0.9-3.4-2.6-3.7
				c-0.8-0.1-1.4-0.9-1.3-1.8c0.1-0.8,0.9-1.4,1.8-1.3c3.4,0.6,5.7,3.8,5.2,7.3C29.9,25.4,29.7,25.7,29.4,26z"/>
		</g>
	</g>
</g>
</svg>
