<?xml version="1.0" encoding="utf-8"?>
<!-- Generator: Adobe Illustrator 18.0.0, SVG Export Plug-In . SVG Version: 6.00 Build 0)  -->
<!DOCTYPE svg PUBLIC "-//W3C//DTD SVG 1.1//EN" "http://www.w3.org/Graphics/SVG/1.1/DTD/svg11.dtd">
<svg version="1.1" id="Layer_1" xmlns="http://www.w3.org/2000/svg" xmlns:xlink="http://www.w3.org/1999/xlink" x="0px" y="0px"
	 viewBox="0 0 512 512" enable-background="new 0 0 512 512" xml:space="preserve">
<g>
	<rect x="234.3" y="32" fill="#65C5B8" width="43.4" height="70.4"/>
	<path fill="#65C5B8" d="M326.3,2H185.7c-12,0-21.7,9.7-21.7,21.7c0,12,9.7,21.7,21.7,21.7h140.6c12,0,21.7-9.7,21.7-21.7
		C348,11.7,338.3,2,326.3,2z"/>
	<circle fill="#334A5E" cx="256" cy="288.6" r="221.4"/>
	<path fill="#F2F2F2" d="M256,124.8c-90.3,0-163.7,73.5-163.7,163.7c0,2.6,0.1,5.2,0.2,7.8v0.6c0,0.2,0,0.4,0.1,0.6
		c4.7,86.2,76.2,154.8,163.5,154.8c87.5,0,159.2-68.9,163.6-155.3c0-0.1,0-0.1,0-0.1v-0.6c0.2-2.6,0.2-5.2,0.2-7.8
		C419.8,198.3,346.3,124.8,256,124.8z"/>
	<path fill="#CDD5DF" d="M256,124.8c-90.3,0-163.7,73.5-163.7,163.7c0,2.6,0.1,5.2,0.2,7.8v0.6c0,0.2,0,0.4,0.1,0.6
		c4.1-86.6,75.9-155.8,163.5-155.8c87.4,0,159.1,68.9,163.6,155.2v-0.6c0.2-2.6,0.2-5.2,0.2-7.8C419.8,198.3,346.3,124.8,256,124.8z
		"/>
	<g>
		<path fill="#F2705B" d="M344.6,200L251.9,255c1.9-0.4,3.9-0.6,5.9-0.6c17.8,0,32.4,14.5,32.4,32.4c0,2-0.2,4-0.6,5.9L344.6,200z"
			/>
		<path fill="#FFD05C" d="M257.8,319.1c-17.8,0-32.3-14.5-32.3-32.3c0-2,0.2-4,0.6-5.9L171,373.6l92.7-55.1
			C261.7,318.9,259.8,319.1,257.8,319.1z"/>
		<path fill="#334A5E" d="M257.8,323.7c-20.3,0-36.9-16.5-36.9-36.9c0-20.3,16.5-36.9,36.9-36.9c20.3,0,36.9,16.5,36.9,36.9
			C294.7,307.1,278.1,323.7,257.8,323.7z"/>
		<path fill="#F6F7F7" d="M257.8,307.9c-11.6,0-21.1-9.5-21.1-21.1c0-11.6,9.5-21.1,21.1-21.1c11.6,0,21.1,9.5,21.1,21.1
			C278.9,298.4,269.4,307.9,257.8,307.9z"/>
	</g>
	<rect x="234.3" y="45.4" fill="#4FBFA8" width="43.4" height="11.5"/>
</g>
</svg>
