<?xml version="1.0" encoding="utf-8"?>
<!-- Generator: Adobe Illustrator 20.1.0, SVG Export Plug-In . SVG Version: 6.00 Build 0)  -->
<!DOCTYPE svg PUBLIC "-//W3C//DTD SVG 1.1//EN" "http://www.w3.org/Graphics/SVG/1.1/DTD/svg11.dtd">
<svg version="1.1" id="Layer_1" xmlns="http://www.w3.org/2000/svg" xmlns:xlink="http://www.w3.org/1999/xlink" x="0px" y="0px"
	 viewBox="0 0 49 49" enable-background="new 0 0 49 49" xml:space="preserve">
<g>
	<path fill="#FFD15C" d="M16.2,7.6V2.1c-1.5,0.1-2.8,0.7-3.9,1.6L16.2,7.6z"/>
	<path fill="#FFD15C" d="M16.2,14.3V8.8l-3.9,3.9C13.4,13.6,14.8,14.2,16.2,14.3z"/>
	<path fill="#FFD15C" d="M22.6,7.9c-0.1-1.5-0.7-2.8-1.6-3.9l-3.9,3.9H22.6z"/>
	<path fill="#FFD15C" d="M12,4.1c-0.9,1-1.5,2.4-1.6,3.9h5.4L12,4.1z"/>
	<path fill="#FFD15C" d="M10.4,8.5c0.1,1.5,0.7,2.8,1.6,3.9l3.9-3.9H10.4z"/>
	<path fill="#FFD15C" d="M16.8,2.1v5.4l3.9-3.9C19.6,2.8,18.2,2.2,16.8,2.1z"/>
	<path fill="#FFD15C" d="M16.5,0.5c-4.3,0-7.7,3.5-7.7,7.7c0,4.3,3.5,7.7,7.7,7.7s7.7-3.5,7.7-7.7C24.2,4,20.8,0.5,16.5,0.5z
		 M16.5,15.1c-3.8,0-6.9-3.1-6.9-6.9c0-3.8,3.1-6.9,6.9-6.9s6.9,3.1,6.9,6.9C23.4,12,20.3,15.1,16.5,15.1z"/>
	<path fill="#FFD15C" d="M21,12.3c0.9-1,1.5-2.4,1.6-3.9h-5.4L21,12.3z"/>
	<path fill="#FFD15C" d="M16.8,14.3c1.5-0.1,2.8-0.7,3.9-1.6l-3.9-3.9V14.3z"/>
	<g>
		<path fill="#F2F2F2" d="M40.1,16.7c0.3-3.1,0.2-6.2-0.3-9.1H15.9c-0.4,3-0.5,6-0.3,9.1c0.2,2.7,0.7,5.2,1.4,7.5
			c2.1,6.9,3.1,13.3,2.6,19l-0.2,2.8c-0.1,1.3,1.3,2.4,3.1,2.4h10.7c1.7,0,3.2-1.1,3.1-2.4L36,43.2c-0.5-5.7,0.4-12.1,2.6-19
			C39.3,21.9,39.8,19.4,40.1,16.7z"/>
		<path fill="#84DBFF" d="M18.3,23.8c2.2,7.3,3.1,13.8,2.6,19.5l-0.2,2.8c0,0.2,0.1,0.3,0.2,0.4c0.3,0.4,0.9,0.6,1.6,0.6h10.7
			c0.6,0,1.2-0.2,1.6-0.6c0.1-0.1,0.2-0.3,0.2-0.4l-0.2-2.8c-0.5-5.7,0.4-12.3,2.7-19.5c0.3-1.1,0.6-2.2,0.8-3.3c-0.4,0-0.8,0-1.2,0
			c-3.3,0-6.6-0.5-9.1-1.5c-2.9-1.2-7-1.6-10.8-1.4C17.3,19.8,17.7,21.9,18.3,23.8z"/>
		<g>
			<path fill="#FFFFFF" d="M26.5,31.1l-2-2c-0.2-0.2-0.5-0.2-0.7,0l-2,2c-0.2,0.2-0.2,0.5,0,0.7l2,2c0.2,0.2,0.5,0.2,0.7,0l2-2
				C26.7,31.6,26.7,31.3,26.5,31.1z"/>
			<path fill="#FFFFFF" d="M33.9,29.4l-2-2c-0.2-0.2-0.5-0.2-0.7,0l-2,2c-0.2,0.2-0.2,0.5,0,0.7l2,2c0.2,0.2,0.5,0.2,0.7,0l2-2
				C34.1,29.9,34.1,29.6,33.9,29.4z"/>
			<path fill="#FFFFFF" d="M30.3,39.2l-2-2c-0.2-0.2-0.5-0.2-0.7,0l-2,2c-0.2,0.2-0.2,0.5,0,0.7l2,2c0.2,0.2,0.5,0.2,0.7,0l2-2
				C30.5,39.7,30.5,39.4,30.3,39.2z"/>
		</g>
	</g>
</g>
</svg>
