<?xml version="1.0" encoding="utf-8"?>
<!-- Generator: Adobe Illustrator 18.0.0, SVG Export Plug-In . SVG Version: 6.00 Build 0)  -->
<!DOCTYPE svg PUBLIC "-//W3C//DTD SVG 1.1//EN" "http://www.w3.org/Graphics/SVG/1.1/DTD/svg11.dtd">
<svg version="1.1" id="Layer_1" xmlns="http://www.w3.org/2000/svg" xmlns:xlink="http://www.w3.org/1999/xlink" x="0px" y="0px"
	 viewBox="0 0 48 48" enable-background="new 0 0 48 48" xml:space="preserve">
<g>
	<polygon fill="#54C0EB" points="24.9,33.5 4.9,33.5 2,21.2 27.9,21.2 	"/>
	<g>
		<polygon fill="#84DBFF" points="10.5,33.5 7.4,33.5 5.2,21.2 9.2,21.2 		"/>
		<polygon fill="#84DBFF" points="16.4,33.5 13.4,33.5 12.9,21.2 16.9,21.2 		"/>
		<polygon fill="#84DBFF" points="22.4,33.5 19.4,33.5 20.7,21.2 24.7,21.2 		"/>
	</g>
	<path fill="#FF7058" d="M34.7,28.2c-2.5,0-4.9,1-6.6,2.8c-0.7,0.7-1.7,1.2-2.8,1.2H3.9c-1.5,0-2.7,1.2-2.7,2.7
		c0,1.5,1.2,2.7,2.7,2.7h21.3c2.5,0,4.9-1,6.6-2.8c0.7-0.7,1.7-1.2,2.8-1.2H48v-5.5H34.7z"/>
	<path fill="#F2F2F2" d="M29.8,10.7c-4.5,3.1-9.1,1.9-13.6,0.4C9.4,8.8,2.1,12.5,0,19.4l0,0.1c4.6-3.1,9.1-2,13.7-0.4
		C20.4,21.3,27.7,17.6,29.8,10.7C29.8,10.7,29.8,10.7,29.8,10.7z"/>
	<path fill="#FFFFFF" d="M4.5,16.1c-0.1,0-0.3,0-0.3-0.1c-0.2-0.2-0.2-0.5,0-0.7c2.1-2.1,4.9-3.3,8-3.3c1.2,0,2.4,0.2,3.6,0.6
		c0.3,0.1,0.4,0.4,0.3,0.6c-0.1,0.3-0.4,0.4-0.6,0.3c-1.1-0.4-2.2-0.5-3.3-0.5c-2.8,0-5.3,1.1-7.2,3C4.8,16.1,4.7,16.1,4.5,16.1z"/>
</g>
</svg>
