<?xml version="1.0" encoding="utf-8"?>
<!-- Generator: Adobe Illustrator 18.0.0, SVG Export Plug-In . SVG Version: 6.00 Build 0)  -->
<!DOCTYPE svg PUBLIC "-//W3C//DTD SVG 1.1//EN" "http://www.w3.org/Graphics/SVG/1.1/DTD/svg11.dtd">
<svg version="1.1" id="Layer_1" xmlns="http://www.w3.org/2000/svg" xmlns:xlink="http://www.w3.org/1999/xlink" x="0px" y="0px"
	 viewBox="0 0 48 48" enable-background="new 0 0 48 48" xml:space="preserve">
<g>
	<g>
		<path fill="#415A6B" d="M45,35.9H3c-1.7,0-3-1.3-3-3V3c0-1.7,1.3-3,3-3h42c1.7,0,3,1.3,3,3v29.9C48,34.6,46.7,35.9,45,35.9z"/>
		<g>
			<rect x="4" y="4" fill="#FFFFFF" width="35.6" height="27.9"/>
		</g>
		<g>
			<g>
				<path fill="#415A6B" d="M17.8,21.4c-2.9,0-5.3-2.4-5.3-5.3c0-2.9,2.4-5.3,5.3-5.3c2.9,0,5.3,2.4,5.3,5.3
					C23.1,19.1,20.7,21.4,17.8,21.4z M17.8,12.4c-2.1,0-3.8,1.7-3.8,3.8c0,2.1,1.7,3.8,3.8,3.8c2.1,0,3.8-1.7,3.8-3.8
					C21.6,14.1,19.9,12.4,17.8,12.4z"/>
			</g>
			<g>
				<path fill="#415A6B" d="M17.8,24.6c-4.7,0-8.4-3.8-8.4-8.4c0-4.7,3.8-8.4,8.4-8.4c4.7,0,8.4,3.8,8.4,8.4
					C26.3,20.8,22.5,24.6,17.8,24.6z M17.8,9.2c-3.8,0-6.9,3.1-6.9,6.9c0,3.8,3.1,6.9,6.9,6.9c3.8,0,6.9-3.1,6.9-6.9
					C24.8,12.3,21.7,9.2,17.8,9.2z"/>
			</g>
		</g>
		<g>
			<g>
				<path fill="#415A6B" d="M17.8,21.4c-2.9,0-5.3-2.4-5.3-5.3c0-2.9,2.4-5.3,5.3-5.3c2.9,0,5.3,2.4,5.3,5.3
					C23.1,19.1,20.7,21.4,17.8,21.4z M17.8,12.4c-2.1,0-3.8,1.7-3.8,3.8c0,2.1,1.7,3.8,3.8,3.8c2.1,0,3.8-1.7,3.8-3.8
					C21.6,14.1,19.9,12.4,17.8,12.4z"/>
			</g>
			<g>
				<path fill="#415A6B" d="M17.8,24.6c-4.7,0-8.4-3.8-8.4-8.4c0-4.7,3.8-8.4,8.4-8.4c4.7,0,8.4,3.8,8.4,8.4
					C26.3,20.8,22.5,24.6,17.8,24.6z M17.8,9.2c-3.8,0-6.9,3.1-6.9,6.9c0,3.8,3.1,6.9,6.9,6.9c3.8,0,6.9-3.1,6.9-6.9
					C24.8,12.3,21.7,9.2,17.8,9.2z"/>
			</g>
		</g>
		<g>
			<path fill="#FFD15C" d="M35.8,48c0.6-2.2,1-4.4,1-6.7v-9.5c0-1.3-0.9-2.6-2.2-2.8c-1.7-0.3-3.2,1-3.2,2.7v-0.8
				c0-1.3-0.9-2.6-2.2-2.8c-1.7-0.3-3.2,1-3.2,2.7v-0.8c0-1.3-0.9-2.6-2.2-2.8c-1.7-0.3-3.2,1-3.2,2.7V17.6c0-1.3-0.9-2.6-2.2-2.8
				c-1.7-0.3-3.2,1-3.2,2.7v17.7l-3-4.3c-0.9-1.2-2.5-1.5-3.8-0.7c-1.2,0.9-1.5,2.5-0.6,3.8l6.5,9.2c1,1.4,1.7,3,1.9,4.7H35.8z"/>
		</g>
		<circle fill="#344A5E" cx="43.8" cy="17.9" r="2"/>
	</g>
</g>
</svg>
