<?xml version="1.0" encoding="utf-8"?>
<!-- Generator: Adobe Illustrator 18.0.0, SVG Export Plug-In . SVG Version: 6.00 Build 0)  -->
<!DOCTYPE svg PUBLIC "-//W3C//DTD SVG 1.1//EN" "http://www.w3.org/Graphics/SVG/1.1/DTD/svg11.dtd">
<svg version="1.1" id="Layer_1" xmlns="http://www.w3.org/2000/svg" xmlns:xlink="http://www.w3.org/1999/xlink" x="0px" y="0px"
	 viewBox="0 0 48 48" enable-background="new 0 0 48 48" xml:space="preserve">
<g>
	<g>
		<g>
			<g>
				<polygon fill="#425A6B" points="17.9,47.7 17.6,47.1 18,46.8 19.4,47.2 				"/>
			</g>
		</g>
	</g>
	<g>
		<g>
			<g>
				<path fill="#FFD15C" d="M23.3,27.6c0,0-0.5,2.3-0.4,2.8c0,0.5-0.1,1.9-0.4,2.7c-0.3,0.8-0.3,1.8-0.3,1.8S22,37.3,21.4,39
					c0,0-0.3,2.3-0.1,2.8l0.1,1.1c0,0-1,1.7-1.1,2.5c0,0-0.6,1.9-1.8,2.1c0,0-0.6,0.2-0.6-0.3c0,0-0.3-0.1-0.2-0.2
					c0,0-0.1-0.2,0-0.4c0,0,0.6-1.2,0.6-1.3c0-0.1,0.7-1.3,0.8-1.8s0.2-0.5,0.2-0.5s0.1-1.3,0-3.1c-0.2-1.8-0.1-4.9,0-5.7
					c0.1-0.8,0.4-2.3,0.2-3.7c-0.2-1.4-0.1-3.9-0.1-3.9L23.3,27.6z"/>
			</g>
		</g>
	</g>
	<g>
		<g>
			<g>
				<path fill="#FFD15C" d="M24.6,27.7c0,0,0.6,2.4,0.5,3.1c-0.1,0.8,0.5,1.6,0.6,1.9c0.1,0.3,0.4,1.4,0.4,2.2
					c0,0.8,0.6,3.3,0.7,3.7c0.2,0.4,0.4,2.4,0.3,2.8c-0.1,0.4-0.1,0.6-0.1,1c0,0.4,0.1,1,0.1,1.4c0,0.4,0.3,2.7,0.4,2.7
					c0,0,0.5,0.7,1,0.7c0.4,0,0.3-0.3,0.3-0.3s0.3,0.1,0.4-0.1c0,0,0.2,0,0.3-0.2c0,0,0.1-1.1-0.1-2c-0.3-0.9-0.6-1.7-0.6-2
					c0-0.3,0.1-0.6-0.1-0.8c0,0,0-1.7,0.2-3.4c0.2-1.7,0.2-4.9-0.3-6.2c0,0-0.4-4.1,0-5.6L24.6,27.7z"/>
			</g>
		</g>
	</g>
	<g>
		<g>
			<g>
				<g>
					<polygon fill="#F5B54C" points="22.6,5.7 22.6,10 25.7,10 25.7,4 					"/>
				</g>
			</g>
		</g>
		<g>
			<g>
				<g>
					<g>
						<path fill="#48B9A5" d="M24.8,7.1c0,0-0.2,0.4-0.5,0.9c-0.2,0.5-0.4,1.4-0.4,1.4s-0.6-2.1-1-2.2l-1.1,1.2l2.3,6.5l1.3-5.8
							C25.4,9.2,25.8,7.2,24.8,7.1z"/>
					</g>
				</g>
			</g>
			<g>
				<g>
					<g>
						<path fill="#48B9A5" d="M22.9,7.3l0.2,0.1c0.1,0,0.1,0.1,0.1,0.1l0.1,0.2c0,0.1,0,0.2-0.1,0.2l-0.2,0L22.9,7.3z"/>
					</g>
				</g>
			</g>
			<g>
				<g>
					<g>
						<path fill="#48B9A5" d="M24.8,7.1l-0.3,0.1c0,0-0.1,0-0.1,0.1l-0.1,0.2c0,0.1,0,0.2,0.1,0.2h0.2L24.8,7.1z"/>
					</g>
				</g>
			</g>
		</g>
		<g>
			<g>
				<g>
					<path fill="#67C5B8" d="M24.8,7.1c0,0,0.5,0.7,0.5,1.9l0.5-2.6l-0.4-0.2C25.4,6.2,25.5,6.7,24.8,7.1z"/>
				</g>
			</g>
		</g>
		<g>
			<g>
				<g>
					<path fill="#67C5B8" d="M22.7,8.5c0,0-0.1-0.9,0.2-1.2c0,0-0.4-0.7-0.4-1.1C22.5,6.2,22,7.3,22.7,8.5z"/>
				</g>
			</g>
		</g>
		<g>
			<g>
				<g>
					<polygon fill="#425A6B" points="19.3,21.9 18.2,26.6 19.9,28.1 20,27.8 22.8,28.2 22.8,27.8 25.2,28.3 25.2,28.1 27.8,28.3 
						27.7,27.9 29.8,27.6 28.4,20.8 26.6,16.3 20.9,17.9 					"/>
				</g>
			</g>
		</g>
		<g>
			<g>
				<g>
					<polygon fill="#344A5E" points="21.1,21.9 20.3,27.8 20,27.8 					"/>
				</g>
			</g>
		</g>
		<g>
			<g>
				<g>
					<path fill="#ACB2BA" d="M18.5,21.9c0,0,2.6,0.4,3.2,0.3c0.6-0.1,0.9-0.5,1-1.2c0.2-0.7,1.2-4,1.2-4v-2.9l-2.4-7.2
						c0,0-0.4,0.9-2.1,1c0,0,0.1,5.2,0.1,5.3c0,0.1,0,4,0,4S18.5,21.1,18.5,21.9z"/>
				</g>
			</g>
		</g>
		<g>
			<g>
				<g>
					<path fill="#CED6E0" d="M20.7,7.7c0,0,0.2,4.7,3.3,6.9l0-0.9c-0.7-2-1.2-4.6-1.7-7.5L20.7,7.7z"/>
				</g>
			</g>
		</g>
		<g>
			<g>
				<g>
					<path fill="#ACB2BA" d="M29.7,21.5c-1.1,0.2-2.1,0.3-2.8,0.3c-0.7,0-1.3-0.4-1.6-0.9c-1.7-3-0.9-6.4-0.9-6.4l1.9-6
						c-0.4-0.6-0.5-1.2-0.1-1.7c0,0,3.2,0.7,3.4,1.7l-1.2,1.6v3.3L29.7,21.5z"/>
				</g>
			</g>
		</g>
		<g>
			<g>
				<g>
					<path fill="#CED6E0" d="M25.7,6.2L24,13.9c0,0,0,1.3,0.2,2.2c0,0,0.3-2.1,1.3-3.2c1-1.1,2.2-5.3,2.2-5.3L25.7,6.2z"/>
				</g>
			</g>
		</g>
		<g>
			<g>
				<g>
					<g>
						<path fill="#344A5E" d="M22.6,3.5c0.1,0.6,0.2,1.2,0.1,1.8c0,0.6-0.2,1.2-0.5,1.7c-0.3,0.5-0.9,0.9-1.4,0.9l0.7-1.3
							C21,5.1,21.1,3.4,21.8,2c0.1-0.1,0.1-0.2,0.3-0.2c0.1,0,0.2,0.1,0.2,0.1c0,0.1,0.1,0.2,0.1,0.2C22.4,2.6,22.5,3.1,22.6,3.5z"
							/>
					</g>
				</g>
				<g>
					<g>
						<path fill="#344A5E" d="M27.1,6.5c0,0.2,0,0.5-0.1,0.7c-0.1,0.2-0.2,0.4-0.5,0.5c-0.3,0.1-0.6,0-0.8,0.2
							c-0.2,0.1-0.2,0.4-0.2,0.6c0,0.2,0.1,0.4,0.2,0.5c-0.3-0.3-0.4-0.8-0.4-1.2c0-0.4,0.1-0.9,0-1.3c0-0.2-0.2-0.5-0.1-0.7
							c0-0.2,0.1-0.4,0.1-0.5c0.1-0.5,0.1-0.9,0.1-1.4c0-0.5-0.6-1.7-0.4-2.1l0.7,0.6c0.7,0.4,1.1,1.1,1.2,1.8
							C27.2,4.9,27.2,5.7,27.1,6.5z"/>
					</g>
				</g>
			</g>
			<g>
				<g>
					<g>
						<g>
							<g>
								<path fill="#FFD15C" d="M24.3,6.5c-0.4,0.2-0.8,0.2-1.1,0c-0.6-0.3-1.5-1-1.4-2.5c0.2-3.7,1.4-3.1,2-3.5
									c0.7,0.5,1.8-0.3,2,3.5C25.8,5.4,24.9,6.1,24.3,6.5z"/>
							</g>
						</g>
					</g>
				</g>
			</g>
			<g>
				<g>
					<g>
						<g>
							
								<ellipse transform="matrix(0.9975 7.130984e-002 -7.130984e-002 0.9975 0.3644 -1.807)" fill="#FFD15C" cx="25.5" cy="4.2" rx="0.4" ry="0.8"/>
						</g>
					</g>
				</g>
				<g>
					<g>
						<g>
							
								<ellipse transform="matrix(-0.9975 7.130994e-002 -7.130994e-002 -0.9975 44.1401 6.8237)" fill="#FFD15C" cx="21.9" cy="4.2" rx="0.4" ry="0.8"/>
						</g>
					</g>
				</g>
			</g>
		</g>
		<g>
			<g>
				<g>
					<path fill="#425A6B" d="M23.5,1.5c0,0,1.7,0,2.1,1.1c0.4,1.2,0.5,2.1,1.1,2.7c0.6,0.6,0.5,2,0.1,2.2c-0.4,0.2-1,1.3-0.4,2
						c0,0-0.4-0.9,0.2-1.6c0,0-0.1,0.8,0.5,1.2c0.5,0.3,0.3-0.7,1.1-0.9C29,8,29.5,8.4,29.7,8.7c0,0-0.6-0.9-1.4-0.9
						c0,0,0.4-0.2,0.8-0.1c0,0-0.2-0.2-0.9-0.3S28,6.8,27.7,6c-0.2-0.8-1-2.4-1.2-3.1c-0.2-0.7-1-3-2.9-2.9
						c-1.9,0.2-1.7,1.3-2.3,2.3c-0.5,1-0.9,2.1-0.9,3.1c0,0,0.1,0.3-0.2,0.6c0,0,0.3,0,0.4-0.6c0,0,0.3,0.9-0.8,1.6c0,0,0.9-0.2,1-1
						c0,0,0.8,0.8,0,1.2c-0.8,0.4-1.2,0.4-1.3,1.1c0,0,0.1-0.6,0.9-0.7c0,0-0.4,0.2-0.5,0.7c0,0,0.4-0.5,0.5-0.5
						c0,0,0.2,0.2-0.4,0.8c0,0,2.3-0.6,1.8-2.1c-0.4-1.5-0.4-2.8,0-3.6C22.2,1.9,22.7,1.4,23.5,1.5z"/>
				</g>
			</g>
		</g>
		<g>
			<g>
				<g>
					<path fill="#E8EAE8" d="M19.4,7.9c0,0,0.9,0.6,0.8,1.9c0,1,0.4,4.6,0.4,4.6l4.9,1.4l-0.5,2.4c0,0-1.6-0.6-2.2-0.7
						c-0.6-0.1-3.5-0.4-3.5-0.4s-0.5,0.1-0.7-0.7c-0.2-0.7-0.6-3.2-0.3-4.5C18.6,10.7,18.7,7.7,19.4,7.9z"/>
				</g>
			</g>
		</g>
		<g>
			<g>
				<g>
					<path fill="#FFD15C" d="M18.5,14.7c-0.2,0-0.3-0.1-0.1-0.3l1-0.3h0.5l-0.7-0.2c0,0-0.9,0.4-1,0l0.3-0.2l0.8-0.3l0.7,0.1
						l-0.5-0.5c0,0-0.5,0.1-0.6,0c0,0-0.6,0.2-0.7-0.1l0.5-0.3h1l0.6,0.3l-0.2-0.5c0,0-0.8-0.5-0.7-1c0,0,0.1-0.1,0.5,0.1
						c0.3,0.3,0.8,0.7,0.8,0.7s0.3,0.9,0.8,1.1c0.5,0.2,1.3,0.7,2.6,0.7l-0.1,1.4c0,0-0.8-0.1-1-0.2c-0.2-0.1-0.6-0.1-0.9-0.1
						s-1.5-0.4-1.8-0.5s-0.8-0.1-0.8-0.1L18.5,14.7z"/>
				</g>
			</g>
		</g>
		<g>
			<g>
				<g>
					<path fill="#E8EAE8" d="M28,10.5c-0.2,1.3,0.3,3,0.3,3s-2,0.4-2.5,0.3c-0.5-0.1-2.4,0.2-2.4,0.2c0.5,2.5,0.9,2.6,0.9,2.6
						s4.8-0.4,5.5-0.6c0.7-0.3,0.7-1.8,0.7-3c0-0.8-0.6-2.8-0.9-4.1c0-0.3-0.1-0.5-0.2-0.7C28.4,8.6,28,9.4,28,10.5z"/>
				</g>
			</g>
		</g>
		<g>
			<g>
				<g>
					<path fill="#FFD15C" d="M29.3,12.6c0.2-0.1,0.3,0.2,0.2,0.3l-0.6,0.3l-0.6,0.3c0,0-0.6,0.1-1.2,0.2c0.3-0.3,0.5-1,0.5-1.3
						c0-0.1,0.1-0.2,0.1-0.3l0.5-1c0.1-0.2,0.3-0.1,0.3,0.1c0,0.1-0.3,0.5-0.3,0.5l0.7-0.4c0.2-0.1,0.4,0.1,0.2,0.2l-0.7,0.5
						l-0.4,0.5l1.1-0.7c0.2-0.1,0.5,0.1,0.3,0.3L29,12.5l-0.7,0.5L29.3,12.6z"/>
				</g>
			</g>
		</g>
		<g>
			<g>
				<g>
					<polygon fill="#344A5E" points="23.3,27.9 22.9,27.8 23.1,22.2 					"/>
				</g>
			</g>
		</g>
		<g>
			<g>
				<g>
					<polygon fill="#344A5E" points="25.6,28.1 25.2,28.1 25.1,22.2 					"/>
				</g>
			</g>
		</g>
		<g>
			<g>
				<g>
					<polygon fill="#344A5E" points="28.2,27.8 27.7,27.9 27.1,22.1 					"/>
				</g>
			</g>
		</g>
	</g>
	<g>
		<g>
			<g>
				<path fill="#425A6B" d="M21.2,41.7c0,0,0.1,0.4,0,0.8c-0.1,0.3-0.4,1.3-0.5,1.5c-0.1,0.2-0.6,1.7-0.8,1.9
					c-0.2,0.2-0.4,0.2-0.7,0.1c-0.3-0.1-0.9-0.7-0.9-0.7s-0.6,0.9-0.7,1.3c0,0,0.8-0.4,1.2,0.2c0.4,0.5,0.1,0.6,0.1,0.6
					s-0.9,0.6-1.3-0.3c0,0-0.1,0.7,0.5,0.9c0.6,0.2,1.7-0.5,1.8-0.7c0.1-0.2,0.2-1,0.2-1.2c0-0.2,0.6-1.3,0.6-1.3l0,1.3l0.3,0
					c0,0,0.2-1.8,0.3-2.1c0-0.1,0.1-0.2,0.2-0.3c0.3-0.4,0.3-0.8,0.3-1.2C21.6,42,21.5,41.8,21.2,41.7z"/>
			</g>
		</g>
	</g>
	<g>
		<g>
			<g>
				<path fill="#425A6B" d="M29.6,45.2c-0.2-0.1-1.3,0.4-1.3,0.4s-0.6,0.3-0.8,0.1c-0.2-0.1-0.3-0.8-0.3-0.8c0-0.1,0-0.2,0-0.3
					c-0.1-0.4-0.1-0.7-0.2-0.8c-0.1-0.4-0.1-1-0.1-1.4c0-0.2,0-0.4,0-0.5c-0.2,0.2-0.2,0.8-0.2,1c0.1,0.3,0.2,1.4,0.3,1.6
					c0,0.3,0,1.8,0.3,2.4c0.3,0.6,1.3,0.8,1.5,0.6c0.1-0.2,0.5-0.5,0.6-0.8C29.7,46.3,29.6,45.2,29.6,45.2z M29.5,46.6
					c0,0.2-0.3,0.2-0.3,0.2c-0.1,0.2-0.3,0.1-0.4,0.1c0,0,0.1,0.2-0.3,0.3c-0.2,0-0.5-0.2-0.7-0.4c0-0.2,0.1-0.4,0.2-0.5
					c0.3-0.2,1.1-0.2,1.5,0.1C29.5,46.5,29.5,46.6,29.5,46.6z M29.4,44.5c0-0.1-0.3-1.4-0.5-1.9c0-0.1-0.1-0.1-0.1-0.2
					c0,0.1,0,0.1,0,0.2c0,0.2,0.1,0.7,0.4,1.3c0.1,0.3,0.2,0.5,0.2,0.8C29.4,45.3,29.7,46.3,29.4,44.5z"/>
			</g>
		</g>
	</g>
</g>
</svg>
