<?xml version="1.0" encoding="utf-8"?>
<!-- Generator: Adobe Illustrator 16.0.0, SVG Export Plug-In . SVG Version: 6.00 Build 0)  -->
<!DOCTYPE svg PUBLIC "-//W3C//DTD SVG 1.1//EN" "http://www.w3.org/Graphics/SVG/1.1/DTD/svg11.dtd">
<svg version="1.1" id="Layer_1" xmlns="http://www.w3.org/2000/svg" xmlns:xlink="http://www.w3.org/1999/xlink" x="0px" y="0px"
	 width="48px" height="48px" viewBox="0 0 48 48" enable-background="new 0 0 48 48" xml:space="preserve">
<g>
	<path fill="#FFD15C" d="M16.242,12.528c0,4.473-3.627,8.098-8.1,8.098s-8.098-3.625-8.098-8.098c0-4.475,3.625-8.1,8.098-8.1
		S16.242,8.054,16.242,12.528"/>
	<path fill="#F8B64C" d="M15.02,12.528c0,3.797-3.078,6.877-6.877,6.877c-3.797,0-6.877-3.08-6.877-6.877
		c0-3.799,3.08-6.877,6.877-6.877C11.941,5.651,15.02,8.729,15.02,12.528"/>
	<path fill="#FFD15C" d="M2.361,12.138h4.334c0.188,0,0.281-0.227,0.148-0.357L3.777,8.714c-0.09-0.09-0.244-0.086-0.324,0.012
		C2.734,9.612,2.268,10.7,2.143,11.897C2.129,12.022,2.234,12.138,2.361,12.138"/>
	<path fill="#FFD15C" d="M8.891,11.229l3.066-3.068c0.09-0.09,0.086-0.242-0.014-0.322c-0.885-0.719-1.973-1.188-3.17-1.313
		c-0.125-0.014-0.24,0.092-0.24,0.219v4.336C8.533,11.269,8.758,11.36,8.891,11.229"/>
	<path fill="#FFD15C" d="M7.514,6.526C6.316,6.651,5.229,7.12,4.342,7.839c-0.098,0.08-0.104,0.234-0.014,0.322l3.068,3.068
		c0.131,0.133,0.357,0.039,0.357-0.148V6.745C7.754,6.618,7.639,6.515,7.514,6.526"/>
	<path fill="#FFD15C" d="M6.695,12.917H2.361c-0.127,0-0.232,0.115-0.219,0.242c0.125,1.195,0.592,2.283,1.311,3.17
		c0.08,0.098,0.234,0.104,0.324,0.014l3.066-3.068C6.977,13.144,6.883,12.917,6.695,12.917"/>
	<path fill="#FFD15C" d="M9.59,12.138h4.336c0.127,0,0.23-0.115,0.219-0.24c-0.125-1.197-0.594-2.285-1.313-3.172
		c-0.08-0.098-0.234-0.102-0.322-0.012L9.441,11.78C9.311,11.911,9.402,12.138,9.59,12.138"/>
	<path fill="#FFD15C" d="M13.926,12.917H9.59c-0.188,0-0.281,0.227-0.148,0.357l3.068,3.068c0.088,0.09,0.242,0.084,0.322-0.014
		c0.719-0.887,1.188-1.975,1.313-3.17C14.156,13.032,14.053,12.917,13.926,12.917"/>
	<path fill="#FFD15C" d="M7.395,13.827l-3.066,3.066c-0.09,0.09-0.084,0.242,0.014,0.322c0.885,0.719,1.975,1.188,3.17,1.313
		c0.127,0.014,0.242-0.092,0.242-0.219v-4.336C7.754,13.788,7.527,13.694,7.395,13.827"/>
	<path fill="#FFD15C" d="M8.891,13.827c-0.133-0.133-0.357-0.039-0.357,0.146v4.336c0,0.127,0.115,0.232,0.24,0.219
		c1.197-0.125,2.285-0.594,3.17-1.313c0.1-0.08,0.104-0.232,0.014-0.322L8.891,13.827z"/>
	<path fill="#F2F2F2" d="M47.955,12.528H8.143c3.23,8.432,10.262,14.438,18.568,15.025v12.824c0,0-0.072,5.838-5.768,5.695h-1.709
		c-1.021,0-1.85,0.828-1.85,1.85h21.33c0-1.021-0.83-1.85-1.852-1.85h-1.709c-5.695,0.143-5.766-5.695-5.766-5.695V27.554
		C37.693,26.966,44.725,20.96,47.955,12.528"/>
	<path fill="#84DBFF" d="M47.592,0.159c-0.338-0.18-0.754-0.053-0.934,0.283L32.783,18.392c-0.18,0.334-0.053,0.752,0.283,0.932
		c0.336,0.178,0.752,0.053,0.932-0.283L47.873,1.091C48.053,0.755,47.928,0.337,47.592,0.159"/>
	<path fill="#84DBFF" d="M13.455,17.978c3.697,4.775,8.969,7.635,14.594,7.635s10.896-2.859,14.594-7.635H13.455z"/>
</g>
</svg>
