<?xml version="1.0" encoding="utf-8"?>
<!-- Generator: Adobe Illustrator 18.0.0, SVG Export Plug-In . SVG Version: 6.00 Build 0)  -->
<!DOCTYPE svg PUBLIC "-//W3C//DTD SVG 1.1//EN" "http://www.w3.org/Graphics/SVG/1.1/DTD/svg11.dtd">
<svg version="1.1" id="Layer_1" xmlns="http://www.w3.org/2000/svg" xmlns:xlink="http://www.w3.org/1999/xlink" x="0px" y="0px"
	 viewBox="0 0 48 48" enable-background="new 0 0 48 48" xml:space="preserve">
<g>
	<g>
		<g>
			<g>
				<path fill="#E8EAE9" d="M24,48C13.3,48,4.6,39.3,4.6,28.6S13.3,9.2,24,9.2c10.7,0,19.4,8.7,19.4,19.4S34.7,48,24,48z M24,13.2
					c-8.5,0-15.4,6.9-15.4,15.4S15.5,44,24,44c8.5,0,15.4-6.9,15.4-15.4S32.5,13.2,24,13.2z"/>
			</g>
		</g>
		<g>
			<g>
				<path fill="#F05540" d="M24,16.9c0,0,10.2-5,10.2-11.7c0-2.9-2.3-5.2-5.2-5.2c-2.3,0-4.2,1.5-4.9,3.5c-0.7-2-2.7-3.5-4.9-3.5
					c-2.9,0-5.2,2.3-5.2,5.2C13.8,12.1,24,16.9,24,16.9z"/>
			</g>
			<g>
				<ellipse transform="matrix(0.7567 0.6537 -0.6537 0.7567 9.5205 -19.1748)" fill="#FFFFFF" cx="30.5" cy="3.2" rx="2" ry="1"/>
			</g>
		</g>
	</g>
</g>
</svg>
