<?xml version="1.0" encoding="utf-8"?>
<!-- Generator: Adobe Illustrator 18.0.0, SVG Export Plug-In . SVG Version: 6.00 Build 0)  -->
<!DOCTYPE svg PUBLIC "-//W3C//DTD SVG 1.1//EN" "http://www.w3.org/Graphics/SVG/1.1/DTD/svg11.dtd">
<svg version="1.1" id="Layer_1" xmlns="http://www.w3.org/2000/svg" xmlns:xlink="http://www.w3.org/1999/xlink" x="0px" y="0px"
	 viewBox="0 0 48 48" enable-background="new 0 0 48 48" xml:space="preserve">
<g>
	<g>
		<path fill="#415A6B" d="M45.8,36.6H2.2v-27c0-1.7,1.3-3,3-3h37.7c1.7,0,3,1.3,3,3V36.6z"/>
		<path fill="#CED6E0" d="M48,36.6L48,36.6l-48,0v0c0,2.6,2.1,4.7,4.7,4.7h38.5C45.9,41.4,48,39.3,48,36.6z"/>
		<polygon fill="#E8EAE9" points="29.6,38.8 30.8,36.6 17.2,36.6 18.4,38.8 		"/>
		<rect x="5.2" y="9.6" fill="#55C0EB" width="37.7" height="24"/>
		<g>
			<g>
				<g>
					<path fill="#FFFFFF" d="M18.9,30.3c-1-0.6-1.3-2-0.9-4.2c0.4-2,1.3-4.3,2.6-6.6c1.3-2.3,2.9-4.3,4.4-5.6
						c1.7-1.4,3.1-1.9,4.1-1.3l-0.5,0.9c-0.6-0.3-1.7,0.1-2.9,1.2c-1.4,1.2-2.9,3.1-4.2,5.3c-1.3,2.2-2.2,4.5-2.5,6.3
						c-0.3,1.6-0.2,2.8,0.4,3.1L18.9,30.3z"/>
				</g>
				<g>
					<path fill="#FFD15C" d="M34.3,21.4h-1c0-1.4-4-2.9-9.3-2.9s-9.3,1.5-9.3,2.9h-1c0-2.5,5.3-3.9,10.3-3.9S34.3,18.9,34.3,21.4z"
						/>
				</g>
			</g>
			<g>
				<g>
					<path fill="#F3705A" d="M29.1,30.3l-0.5-0.9c0.6-0.3,0.7-1.5,0.4-3.1c-0.4-1.9-1.3-4.1-2.5-6.3c-1.3-2.2-2.8-4.1-4.2-5.3
						c-1.3-1.1-2.4-1.6-2.9-1.2l-0.5-0.9c1-0.6,2.4-0.1,4.1,1.3c1.5,1.3,3.1,3.3,4.4,5.6c1.3,2.3,2.3,4.7,2.6,6.6
						C30.4,28.2,30.1,29.7,29.1,30.3z"/>
				</g>
				<g>
					<path fill="#FFFFFF" d="M19.8,30.5c-0.3,0-0.6-0.1-0.9-0.2l0.5-0.9c0.6,0.3,1.7-0.1,2.9-1.2c1.4-1.2,2.9-3.1,4.2-5.4
						c1.3-2.2,2.2-4.5,2.5-6.3c0.3-1.6,0.2-2.8-0.4-3.1l0.5-0.9c1,0.6,1.3,2,0.9,4.2c-0.4,2-1.3,4.3-2.6,6.6
						c-1.3,2.3-2.9,4.3-4.4,5.6C21.7,30,20.7,30.5,19.8,30.5z"/>
				</g>
				<g>
					<g>
						<path fill="#FFD15C" d="M24,25.3c-5,0-10.3-1.4-10.3-3.9h1c0,1.4,4,2.9,9.3,2.9s9.3-1.5,9.3-2.9h1C34.3,23.9,29,25.3,24,25.3z
							"/>
					</g>
				</g>
				<g>
					<path fill="#F3705A" d="M28.2,30.5c-0.9,0-1.9-0.5-3.1-1.6c-1.5-1.3-3.1-3.3-4.4-5.6c-1.3-2.3-2.3-4.7-2.6-6.6
						c-0.4-2.2-0.1-3.6,0.9-4.2l0.5,0.9c-0.6,0.3-0.7,1.5-0.4,3.1c0.4,1.9,1.3,4.1,2.5,6.3s2.8,4.1,4.2,5.4c1.3,1.1,2.4,1.6,2.9,1.2
						l0.5,0.9C28.8,30.4,28.5,30.5,28.2,30.5z"/>
				</g>
			</g>
		</g>
		<g>
			<g>
				<circle fill="#415A6B" cx="19.1" cy="18.5" r="1.3"/>
			</g>
			<g>
				<g>
					
						<ellipse transform="matrix(0.7071 -0.7071 0.7071 0.7071 -7.2912 18.4323)" fill="#FFFFFF" cx="18.6" cy="18" rx="0.5" ry="0.2"/>
				</g>
			</g>
		</g>
		<g>
			<g>
				<circle fill="#415A6B" cx="19.1" cy="29.7" r="1.3"/>
			</g>
			<g>
				<g>
					
						<ellipse transform="matrix(0.7071 -0.7071 0.7071 0.7071 -15.1574 21.6904)" fill="#FFFFFF" cx="18.6" cy="29.1" rx="0.5" ry="0.2"/>
				</g>
			</g>
		</g>
		<g>
			<g>
				<circle fill="#415A6B" cx="32.4" cy="19.7" r="1.3"/>
			</g>
			<g>
				
					<ellipse transform="matrix(0.7071 -0.7071 0.7071 0.7071 -4.2099 28.1844)" fill="#FFFFFF" cx="31.9" cy="19.2" rx="0.5" ry="0.2"/>
			</g>
		</g>
		<g>
			<g>
				<circle fill="#415A6B" cx="24" cy="21.4" r="1.6"/>
			</g>
			<g>
				<g>
					
						<ellipse transform="matrix(0.7071 -0.7071 0.7071 0.7071 -7.8246 22.5931)" fill="#FFFFFF" cx="23.4" cy="20.7" rx="0.6" ry="0.3"/>
				</g>
			</g>
		</g>
	</g>
</g>
</svg>
