<?xml version="1.0" encoding="utf-8"?>
<!-- Generator: Adobe Illustrator 16.0.0, SVG Export Plug-In . SVG Version: 6.00 Build 0)  -->
<!DOCTYPE svg PUBLIC "-//W3C//DTD SVG 1.1//EN" "http://www.w3.org/Graphics/SVG/1.1/DTD/svg11.dtd">
<svg version="1.1" id="Layer_1" xmlns="http://www.w3.org/2000/svg" xmlns:xlink="http://www.w3.org/1999/xlink" x="0px" y="0px"
	 width="48px" height="48px" viewBox="0 0 48 48" enable-background="new 0 0 48 48" xml:space="preserve">
<g>
	<polygon fill="#F8B64C" points="30.577,25.766 30.577,29.957 23.956,33.656 17.444,29.956 17.337,25.766 	"/>
	<g opacity="0.1">
		<g>
			<defs>
				<rect id="SVGID_143_" x="20.327" y="25.765" width="10.248" height="8.384"/>
			</defs>
			<clipPath id="SVGID_2_">
				<use xlink:href="#SVGID_143_"  overflow="visible"/>
			</clipPath>
			<polygon clip-path="url(#SVGID_2_)" fill="#40596B" points="30.575,25.766 30.573,29.6 24.931,34.148 20.327,29.316 
				23.306,25.766 			"/>
		</g>
	</g>
	<path fill="#F8B64C" d="M17.435,17.107c0.148,1.676-0.666,3.115-1.814,3.217c-1.15,0.1-2.201-1.177-2.348-2.853
		c-0.146-1.675,0.666-3.115,1.816-3.215C16.239,14.156,17.288,15.433,17.435,17.107"/>
	<path fill="#F8B64C" d="M34.642,17.472c-0.148,1.675-1.197,2.952-2.348,2.853c-1.148-0.102-1.963-1.541-1.814-3.217
		c0.145-1.674,1.197-2.951,2.346-2.852C33.976,14.357,34.788,15.797,34.642,17.472"/>
	<path fill="#FFD15C" d="M23.958,3.121c-5.338,0-9.664,4.327-9.664,9.664v2.9c0,0.742,0.045,1.481,0.137,2.215v0.003
		c0.459,3.754,2.076,7.271,4.627,10.063l0.916,1.004c0.842,0.922,2.033,1.448,3.281,1.448h1.4c1.248,0,2.439-0.524,3.281-1.446
		l0.92-1.006c2.551-2.793,4.168-6.313,4.631-10.066c0.092-0.737,0.133-1.473,0.133-2.215v-2.9
		C33.62,7.448,29.294,3.121,23.958,3.121"/>
	<path fill="#40596B" d="M33.575,17.003c0.592-0.854,1.053-5.531,1.053-5.531c1.674-4.784-4.564-8.647-4.564-8.647
		C18.63-4.004,16.565,3.697,16.565,3.697c-5.795,1.826-3.254,8.256-3.254,8.256c0.078,2.541,0.99,4.32,0.99,4.32
		s0.258-2.149,0.498-2.945c0.219-0.723,0.414-1.457,0.514-2.207c0.24-1.852,1.086-4.797,4.031-3.852c0,0,3.916,4.793,13.432,6.657
		C33.485,14.066,33.575,17.003,33.575,17.003"/>
	<polygon fill="#F2F2F2" points="33.005,35.061 33.167,33.656 14.71,33.656 14.892,35.081 23.937,44.129 	"/>
	<polygon fill="#4CDBC4" points="23.938,46.361 15.22,37.643 16.544,48 31.507,48 32.712,37.587 	"/>
	<polygon fill="#231F20" points="13.468,33.656 11.233,33.656 15.22,37.643 14.892,35.08 	"/>
	<polygon fill="#231F20" points="36.642,33.656 34.409,33.656 33.005,35.062 32.712,37.587 	"/>
	<polygon fill="#4CDBC4" points="32.712,37.587 33.005,35.061 23.937,44.128 14.892,35.081 15.22,37.643 23.937,46.362 	"/>
	<path fill="#334A5E" d="M47.86,42.09V48H28.911l1.66-18.381l0.01-0.029l1.709,0.609l9.641,3.461
		C45.481,34.939,47.86,38.311,47.86,42.09"/>
	<path fill="#334A5E" d="M19.081,48H0.14v-5.79c0-3.78,2.381-7.16,5.932-8.431l9.639-3.459l0.01-0.01l1.701-0.611l0.01,0.011
		L19.081,48z"/>
	<polygon fill="#CDD6E0" points="23.958,33.656 30.575,29.587 29.819,37.936 	"/>
	<polygon fill="#CDD6E0" points="23.95,33.656 17.425,29.672 18.173,37.936 	"/>
	<polygon fill="#FF7058" points="21.497,41.688 23.937,44.129 26.376,41.69 25.454,38.65 26.974,35.872 23.933,33.656 
		20.903,35.872 22.413,38.65 	"/>
</g>
</svg>
