<?xml version="1.0" encoding="utf-8"?>
<!-- Generator: Adobe Illustrator 18.0.0, SVG Export Plug-In . SVG Version: 6.00 Build 0)  -->
<!DOCTYPE svg PUBLIC "-//W3C//DTD SVG 1.1//EN" "http://www.w3.org/Graphics/SVG/1.1/DTD/svg11.dtd">
<svg version="1.1" id="Layer_1" xmlns="http://www.w3.org/2000/svg" xmlns:xlink="http://www.w3.org/1999/xlink" x="0px" y="0px"
	 viewBox="0 0 512 512" enable-background="new 0 0 512 512" xml:space="preserve">
<g>
	<rect x="2" y="33.8" fill="#CDD6E0" width="508" height="55.9"/>
	<path fill="#F2F2F2" d="M29.1,89.7V365c0,11.7,9.5,21.2,21.2,21.2h411.4c11.7,0,21.2-9.5,21.2-21.2V89.7H29.1z"/>
	<rect x="234.8" y="2" fill="#40596B" width="42.3" height="31.8"/>
	<g>
		<circle fill="#4CDBC4" cx="118.1" cy="300.3" r="28"/>
		<circle fill="#4CDBC4" cx="214.1" cy="204.3" r="28"/>
		<circle fill="#4CDBC4" cx="289.6" cy="279.9" r="28"/>
		<circle fill="#4CDBC4" cx="393.9" cy="175.6" r="28"/>
	</g>
	<g>
		<path fill="#3DC9AE" d="M188.3,215.2L129,274.5c6.7,2.8,12.1,8.2,15,15l59.3-59.3C196.5,227.3,191.1,221.9,188.3,215.2z"/>
		<path fill="#3DC9AE" d="M278.7,254.1l-38.9-38.9c-2.9,6.7-8.3,12.1-15,14.9l39,39C266.6,262.4,272,257,278.7,254.1z"/>
		<path fill="#3DC9AE" d="M367.9,186L300,253.9c6.8,2.7,12.3,8,15.2,14.7l67.4-67.4C375.9,198.3,370.7,192.8,367.9,186z"/>
	</g>
	<rect x="29.1" y="89.7" fill="#E0E1E2" width="453.8" height="12.1"/>
	<path fill="#40596B" d="M370.8,506.7c-3.6,2.2-7.5,3.3-11.4,3.3c-7,0-13.8-3.4-17.9-9.7l-65.2-101.9l-7.7-12.1h50.3l7.7,12.1
		l50.6,79.2C383.5,487.3,380.6,500.3,370.8,506.7z"/>
	<path fill="#40596B" d="M243.4,386.2l-7.7,12.1l-65.2,101.9c-6.4,9.8-19.5,12.7-29.3,6.5c-9.7-6.4-12.7-19.4-6.3-29.2l50.6-79.2
		l7.7-12.1H243.4z"/>
	<polygon fill="#334A5E" points="243.4,386.2 235.7,398.3 185.4,398.3 193.2,386.2 	"/>
	<polygon fill="#334A5E" points="326.5,398.3 276.3,398.3 268.5,386.2 318.8,386.2 	"/>
</g>
</svg>
