<?xml version="1.0" encoding="utf-8"?>
<!-- Generator: Adobe Illustrator 16.0.0, SVG Export Plug-In . SVG Version: 6.00 Build 0)  -->
<!DOCTYPE svg PUBLIC "-//W3C//DTD SVG 1.1//EN" "http://www.w3.org/Graphics/SVG/1.1/DTD/svg11.dtd">
<svg version="1.1" id="Layer_1" xmlns="http://www.w3.org/2000/svg" xmlns:xlink="http://www.w3.org/1999/xlink" x="0px" y="0px"
	 width="48px" height="48px" viewBox="0 0 48 48" enable-background="new 0 0 48 48" xml:space="preserve">
<g>
	<path fill="#F2F2F2" d="M43.207,19.631l-5.085-0.92l-8.171-7.205c-0.749-0.658-1.712-1.023-2.71-1.023H3.017
		c-0.851,0-1.541,0.689-1.541,1.541v19.264h45.1v-7.625C46.575,21.682,45.157,19.982,43.207,19.631"/>
	<rect x="3.896" y="12.906" fill="#A1E4FF" width="15.229" height="5.799"/>
	<path fill="#A1E4FF" d="M34.452,18.705H21.546v-5.799h5.692c0.407,0,0.805,0.145,1.114,0.416L34.452,18.705z"/>
	<path fill="#CDD6E0" d="M46.523,30.719H1.476C0.661,30.719,0,31.381,0,32.195s0.661,1.477,1.476,1.477h45.048
		c0.815,0,1.477-0.662,1.477-1.477S47.339,30.719,46.523,30.719"/>
	<path fill="#40596B" d="M43.777,32.83c0-2.59-2.099-4.688-4.688-4.688s-4.688,2.098-4.688,4.688s2.1,4.688,4.688,4.688
		S43.777,35.42,43.777,32.83"/>
	<path fill="#ACB3BA" d="M41.556,32.83c0-1.361-1.104-2.467-2.466-2.467c-1.362,0-2.466,1.105-2.466,2.467s1.104,2.467,2.466,2.467
		C40.451,35.297,41.556,34.191,41.556,32.83"/>
	<path fill="#40596B" d="M13.318,32.83c0-2.59-2.099-4.688-4.688-4.688c-2.589,0-4.688,2.098-4.688,4.688s2.099,4.688,4.688,4.688
		C11.22,37.518,13.318,35.42,13.318,32.83"/>
	<path fill="#ACB3BA" d="M11.097,32.83c0-1.361-1.104-2.467-2.467-2.467c-1.361,0-2.466,1.105-2.466,2.467s1.104,2.467,2.466,2.467
		C9.992,35.297,11.097,34.191,11.097,32.83"/>
	<rect x="44.836" y="24.252" fill="#FFD15C" width="2.426" height="4.297"/>
	<rect x="0.789" y="24.252" fill="#FF7058" width="2.426" height="4.297"/>
	<path fill="#40596B" d="M24.027,21.25h-1.341c-0.63,0-1.141-0.512-1.141-1.141h3.623C25.169,20.738,24.657,21.25,24.027,21.25"/>
</g>
</svg>
