<?xml version="1.0" encoding="utf-8"?>
<!-- Generator: Adobe Illustrator 18.0.0, SVG Export Plug-In . SVG Version: 6.00 Build 0)  -->
<!DOCTYPE svg PUBLIC "-//W3C//DTD SVG 1.1//EN" "http://www.w3.org/Graphics/SVG/1.1/DTD/svg11.dtd">
<svg version="1.1" id="Layer_1" xmlns="http://www.w3.org/2000/svg" xmlns:xlink="http://www.w3.org/1999/xlink" x="0px" y="0px"
	 viewBox="0 0 48 48" enable-background="new 0 0 48 48" xml:space="preserve">
<g>
	<g>
		<g>
			<rect x="35.9" y="6.9" fill="#F05540" width="5.5" height="9.6"/>
		</g>
		<rect x="33.8" y="2" fill="#F3705A" width="9.7" height="5.2"/>
	</g>
	<g>
		<path fill="#FFD15C" d="M4.2,25.9V48h39.2l0-22.1c-7.7-7.7-12-12-19.6-19.6h0C16.2,14,11.9,18.3,4.2,25.9z"/>
	</g>
	<g>
		<path fill="#F7B64C" d="M43.5,25.9c-7.7-7.7-12-12-19.6-19.6C20,10.1,17,13.1,14,16.1c-3,3-6,6-9.8,9.8v4.5
			c7.7-7.7,12-12,19.6-19.6c7.7,7.7,12,12,19.6,19.6V31c0,0,0,0,0,0V25.9z"/>
	</g>
	<g>
		<g>
			<path fill="#415A6B" d="M20.3,48H8.5V36.4c0-3.3,2.7-5.9,5.9-5.9h0c3.3,0,5.9,2.7,5.9,5.9V48z"/>
		</g>
		<g>
			<rect x="23.8" y="30.5" fill="#344A5E" width="15.4" height="13.5"/>
			<rect x="25.4" y="32.1" fill="#8AD7F8" width="5.3" height="10.3"/>
			<rect x="32.3" y="32.1" fill="#8AD7F8" width="5.3" height="10.3"/>
		</g>
	</g>
	<g>
		<path fill="#F3705A" d="M47.1,21.8L26.2,0.9c-1.2-1.2-3.3-1.2-4.5,0L0.9,21.8c-1.2,1.2-1.2,3.3,0,4.5c1.2,1.2,3.3,1.2,4.5,0
			L24,7.7l18.6,18.6c1.2,1.2,3.3,1.2,4.5,0C48.3,25,48.3,23,47.1,21.8z"/>
	</g>
</g>
</svg>
