<?xml version="1.0" encoding="utf-8"?>
<!-- Generator: Adobe Illustrator 18.0.0, SVG Export Plug-In . SVG Version: 6.00 Build 0)  -->
<!DOCTYPE svg PUBLIC "-//W3C//DTD SVG 1.1//EN" "http://www.w3.org/Graphics/SVG/1.1/DTD/svg11.dtd">
<svg version="1.1" id="Layer_1" xmlns="http://www.w3.org/2000/svg" xmlns:xlink="http://www.w3.org/1999/xlink" x="0px" y="0px"
	 viewBox="0 0 48 48" enable-background="new 0 0 48 48" xml:space="preserve">
<g>
	<g>
		<g>
			<path fill="#354B5E" d="M35.2,44.2c-0.7-2.8-3.9-9.2-3.9-9.2s-9.2-2.7-13.5,1.3c-2.1,2-4,7.4-5.4,11.7h25.1
				C36.1,45.7,35.2,44.2,35.2,44.2z"/>
			<g>
				<g>
					<path fill="#435B6C" d="M35,30.2c0,0-2-5.3-11-5.3c-9.1-0.1-11,5.3-11,5.3s-0.4,1.2,1.4,8.1C16.2,45.2,22,44,22,44
						c0.8,1.4,2,0.9,2,0.9s1.3,0.5,2-0.9c0,0,5.8,1.2,7.6-5.7C35.5,31.4,35,30.2,35,30.2z"/>
					<path fill="#435B6C" d="M27.6,26.8l0.2-0.1c-0.1,0-0.1,0-0.2-0.1V26.8z"/>
				</g>
				<g>
					<g>
						<path fill="#435B6C" d="M36.9,21.3c-1.1-1.1-5.6,2.6-5.6,2.6l-3.5,2.8c6.9,2,6.3,7,6.3,7c1.4-1.3,2.3-5.9,2.3-5.9
							S38,22.4,36.9,21.3z"/>
						<path fill="#435B6C" d="M11.1,21.3c-1.1,1.1,0.5,6.6,0.5,6.6s0.8,4.6,2.3,5.9c0,0-0.6-5.1,6.3-7l-3.5-2.8
							C16.7,23.9,12.2,20.2,11.1,21.3z"/>
					</g>
					<path fill="#435B6C" d="M20.3,26.6c-0.1,0-0.1,0-0.2,0.1l0.2,0.1V26.6z"/>
				</g>
				<g>
					<g>
						<g>
							<g>
								<path fill="#FFD15D" d="M26.5,34.8c0-0.7,0.4-1.3,1-1.6c0.6-0.3,1.3-0.3,2-0.1c0.2,0.1,0.5,0.2,0.6,0.5
									c0.2,0.2,0.2,0.6,0.1,0.9c-0.1,0.4-0.2,0.8-0.5,1.1c-0.3,0.3-0.6,0.5-1,0.6c-0.5,0.1-1.5-0.1-2-0.8c0-0.1-0.1-0.1-0.1-0.2
									C26.5,35,26.5,34.9,26.5,34.8z"/>
							</g>
							<g>
								<path fill="#435B6C" d="M28.9,34.5c0,0.6-0.3,1-0.6,1c-0.3,0-0.6-0.5-0.6-1s0.3-1,0.6-1C28.6,33.4,28.9,33.9,28.9,34.5z"/>
							</g>
							<g>
								<ellipse fill="#FFFFFF" cx="28.5" cy="34" rx="0.5" ry="0.2"/>
							</g>
						</g>
						<g>
							<g>
								<path fill="#FFD15D" d="M21.5,35.1c0,0.1-0.1,0.1-0.1,0.2c-0.5,0.7-1.5,0.9-2,0.8c-0.4-0.1-0.7-0.3-1-0.6
									c-0.3-0.3-0.4-0.7-0.5-1.1c0-0.3,0-0.6,0.1-0.9c0.1-0.2,0.4-0.4,0.6-0.5c0.6-0.3,1.4-0.3,2,0.1c0.6,0.3,0.9,0.9,1,1.6
									C21.5,34.9,21.5,35,21.5,35.1z"/>
							</g>
							<g>
								<path fill="#435B6C" d="M19.1,34.5c0,0.6,0.3,1,0.6,1c0.3,0,0.6-0.5,0.6-1s-0.3-1-0.6-1C19.4,33.4,19.1,33.9,19.1,34.5z"/>
							</g>
							<g>
								<ellipse fill="#FFFFFF" cx="19.5" cy="34" rx="0.5" ry="0.2"/>
							</g>
						</g>
					</g>
					<g>
						<g>
							<g>
								<path fill="#354B5E" d="M26.8,42.9c-0.1,0-0.2,0.1-0.4,0.1c-0.1,0-0.3,0-0.4,0c-0.3,0-0.5,0-0.8-0.1
									c-0.3-0.1-0.5-0.2-0.7-0.3c-0.2-0.1-0.5-0.3-0.7-0.5h0.2c-0.2,0.2-0.4,0.3-0.7,0.5c-0.2,0.1-0.5,0.2-0.7,0.3
									C22.4,43,22.2,43,21.9,43c-0.1,0-0.3,0-0.4,0c-0.1,0-0.3,0-0.4-0.1c0.1,0,0.3,0,0.4,0c0.1,0,0.3,0,0.4,0s0.2,0,0.4-0.1
									c0.1,0,0.2-0.1,0.4-0.1c0.2-0.1,0.5-0.2,0.7-0.3c0.1-0.1,0.2-0.1,0.3-0.2c0.1-0.1,0.2-0.2,0.3-0.2l0.1-0.1l0.1,0.1
									c0.1,0.1,0.2,0.2,0.3,0.2c0.1,0.1,0.2,0.1,0.3,0.2c0.2,0.1,0.4,0.2,0.7,0.3c0.1,0,0.2,0.1,0.4,0.1c0.1,0,0.2,0.1,0.4,0.1
									c0.1,0,0.2,0,0.4,0C26.6,42.9,26.7,42.9,26.8,42.9z"/>
							</g>
						</g>
					</g>
					<g>
						<g>
							<path fill="#435B6C" d="M22.5,39.4c0.2,0.1,0.4,0.2,0.6,0.2c0.2,0,0.3,0,0.4,0.1c0,0.1,0.1,0.1,0.1,0.2c0,0.1,0,0.2-0.1,0.2
								c0,0.1-0.1,0.1-0.1,0.1c-0.1,0-0.1,0-0.1-0.1C23,40.1,22.7,39.8,22.5,39.4C22.5,39.5,22.5,39.5,22.5,39.4
								c-0.1-0.1-0.1-0.1-0.1-0.2C22.5,39.4,22.6,39.5,22.5,39.4"/>
						</g>
						<g>
							<path fill="#354B5E" d="M25.5,39.1c0.1,0.1,0,0.3-0.1,0.4c-0.1,0.1-0.3,0.1-0.4,0.2c-0.1,0-0.3,0-0.4,0.1
								c-0.1,0.1-0.2,0.3-0.1,0.4c0,0,0.1,0.1,0.1,0.1c0,0.1,0,0.1,0,0.2c0,0.1-0.1,0.1-0.2,0.1c-0.3,0.3-0.6,0.2-0.9,0
								c-0.1,0-0.1-0.1-0.2-0.1c0-0.1-0.1-0.1,0-0.2c0-0.1,0.1-0.1,0.1-0.1c0.1-0.1,0-0.3-0.1-0.4c-0.1-0.1-0.2-0.1-0.4-0.1
								c-0.1,0-0.3-0.1-0.5-0.2c-0.1-0.1-0.2-0.3-0.1-0.4C23.5,38.8,24.5,38.8,25.5,39.1z"/>
						</g>
						<g>
							<path fill="#435B6C" d="M25.5,39.4c-0.2,0.1-0.4,0.2-0.6,0.2c-0.2,0-0.3,0-0.4,0.1c0,0.1-0.1,0.1-0.1,0.2
								c0,0.1,0,0.2,0.1,0.2c0,0.1,0.1,0.1,0.1,0.1c0.1,0,0.1,0,0.1-0.1C25,40.1,25.3,39.8,25.5,39.4C25.5,39.5,25.5,39.5,25.5,39.4
								c0.1-0.1,0.1-0.1,0.1-0.2C25.5,39.4,25.4,39.5,25.5,39.4"/>
						</g>
					</g>
				</g>
			</g>
		</g>
		<g>
			<path fill="#67C6B9" d="M24,21.2c-11.7,0-18.5,8.1-16.7,9.7c1.5,1.8,8.5-1.4,16.7-1.2c8.2-0.2,15.2,3,16.7,1.2
				C42.5,29.2,35.7,21.2,24,21.2z"/>
			<path fill="#67C6B9" d="M32.9,1.1C32.9,1.1,32.8,1.1,32.9,1.1c0.4-0.6,0.7-1.9-2-0.5c-4.5,2.3-12.7,8-16.5,22.2
				c6.2,1.6,12.3,1.6,18.3,0c-0.9-1.5-2.2-4.1-3-7.6c-1-3.9-0.6-9.8,2.4-13.3C32.5,1.3,32.8,1.1,32.9,1.1z"/>
			<g>
				<rect x="23.2" y="21.3" fill="#FFFFFF" width="0.6" height="3.8"/>
			</g>
			<path fill="#F3705B" d="M33.3,22.3L33,20.9c-0.1-0.3-0.4-0.5-0.7-0.5c-6,1.5-11.7,1.6-17.4,0.3c-0.3-0.1-0.7,0.1-0.8,0.5
				l-0.3,1.3c-0.1,0.3,0.1,0.7,0.5,0.7c2.8,0.7,5.7,1,8.6,1c3.3,0,6.6-0.4,10-1.3C33.2,22.9,33.4,22.6,33.3,22.3z"/>
			<path fill="#FFFFFF" d="M25.5,21h-3.8c-0.2,0-0.3,0.1-0.3,0.3v3.8c0,0.2,0.1,0.3,0.3,0.3h3.8c0.2,0,0.3-0.1,0.3-0.3v-3.8
				C25.8,21.1,25.6,21,25.5,21z M25.1,24.8H22v-3.2h3.1V24.8z"/>
		</g>
	</g>
</g>
</svg>
