<?xml version="1.0" encoding="utf-8"?>
<!-- Generator: Adobe Illustrator 18.0.0, SVG Export Plug-In . SVG Version: 6.00 Build 0)  -->
<!DOCTYPE svg PUBLIC "-//W3C//DTD SVG 1.1//EN" "http://www.w3.org/Graphics/SVG/1.1/DTD/svg11.dtd">
<svg version="1.1" id="Layer_1" xmlns="http://www.w3.org/2000/svg" xmlns:xlink="http://www.w3.org/1999/xlink" x="0px" y="0px"
	 viewBox="0 0 48 48" enable-background="new 0 0 48 48" xml:space="preserve">
<g>
	<path fill="#ACB3BA" d="M40.8,26.5h-1.7v-5.2h1.7c0.6,0,1.1,0.5,1.1,1.1v3.1C41.9,26.1,41.4,26.5,40.8,26.5z"/>
	<polygon fill="#40596B" points="34.4,15.3 12,15.3 13.2,8.4 14.8,0 31.6,0 33.1,8.4 	"/>
	<polygon fill="#40596B" points="34.4,32.7 33.1,39.6 31.6,48 14.8,48 13.2,39.6 12,32.7 	"/>
	<path fill="#334A5E" d="M12,32.7h22.4l-1.3,6.9c-2.9,1.8-6.3,2.9-9.9,2.9c-3.7,0-7.1-1.1-10-2.9L12,32.7z"/>
	<path fill="#334A5E" d="M34.4,15.3H12l1.3-6.9c2.9-1.9,6.3-2.9,10-2.9c3.6,0,7.1,1.1,9.9,2.9L34.4,15.3z"/>
	<circle fill="#CDD6E0" cx="23.2" cy="24" r="17"/>
	<path fill="#F2F2F2" d="M23.2,37.2C15.9,37.2,10,31.3,10,24c0-7.3,5.9-13.2,13.2-13.2c7.3,0,13.2,5.9,13.2,13.2
		C36.4,31.3,30.5,37.2,23.2,37.2z"/>
	<circle fill="#54C0EB" cx="23.2" cy="13.6" r="1.4"/>
	<circle fill="#54C0EB" cx="23.2" cy="34.4" r="1.4"/>
	<g>
		<circle fill="#54C0EB" cx="33.6" cy="24" r="1.4"/>
		<circle fill="#54C0EB" cx="12.8" cy="24" r="1.4"/>
	</g>
	<path fill="#FF7058" d="M23.2,15.9c-0.8,0-1.4,0.6-1.4,1.4v5.3h-4.4c-0.8,0-1.4,0.6-1.4,1.4c0,0.8,0.6,1.4,1.4,1.4h5.8
		c0.8,0,1.4-0.6,1.4-1.4v-6.7C24.6,16.5,23.9,15.9,23.2,15.9z"/>
</g>
</svg>
