<?xml version="1.0" encoding="utf-8"?>
<!-- Generator: Adobe Illustrator 18.0.0, SVG Export Plug-In . SVG Version: 6.00 Build 0)  -->
<!DOCTYPE svg PUBLIC "-//W3C//DTD SVG 1.1//EN" "http://www.w3.org/Graphics/SVG/1.1/DTD/svg11.dtd">
<svg version="1.1" id="Layer_1" xmlns="http://www.w3.org/2000/svg" xmlns:xlink="http://www.w3.org/1999/xlink" x="0px" y="0px"
	 viewBox="0 0 48 48" enable-background="new 0 0 48 48" xml:space="preserve">
<g>
	<g>
		<g>
			<g>
				<ellipse transform="matrix(0.9947 0.1029 -0.1029 0.9947 1.3203 -4.0598)" fill="#FFD15C" cx="40" cy="10.8" rx="1.2" ry="2"/>
				
					<ellipse transform="matrix(-0.9947 0.1029 -0.1029 -0.9947 58.3716 18.5226)" fill="#FFD15C" cx="28.7" cy="10.8" rx="1.2" ry="2"/>
				<path fill="#344A5E" d="M40.3,9.6H28.4C26.9,3.1,29.8,0,34.4,0C38.9,0,41.8,3.1,40.3,9.6z"/>
				<path fill="#344A5E" d="M48,26.7l-0.7-3.3c-0.3-1.5-1.5-2.6-3.1-2.9c-1.7-0.4-3.3-1.1-5-2.1h-9.7c-1.8,1-3.6,1.7-5.3,2.1
					c-1.4,0.3-2.5,1.5-2.8,2.9l-0.7,3.3H48z"/>
				<g>
					<path fill="#F7B64C" d="M37.4,15.3l0,1.4c-0.9,2.1-1.8,3.2-3,4.4c-1.1-1.2-2.1-2.3-3-4.4l0-1.4c0.8-2.2,2-3.7,3-4.9
						C35.4,11.6,36.5,13,37.4,15.3z"/>
				</g>
				<polygon fill="#FFFFFF" points="36.8,26.7 36.9,20.3 31.7,20.3 31.8,26.7 				"/>
				<g>
					<g>
						<polygon fill="#F3705A" points="35.3,22.8 36.2,22.1 34.4,20.3 32.6,22.1 33.4,22.8 						"/>
					</g>
					<g>
						<polygon fill="#F3705A" points="36.2,26.8 35.3,22.8 33.4,22.8 32.5,26.8 						"/>
					</g>
				</g>
				<g>
					<polygon fill="#F3F3F3" points="37.4,16.2 34.4,20.3 36.7,22.7 38.4,18.1 					"/>
				</g>
				<g>
					<polygon fill="#F3F3F3" points="31.4,16.2 34.4,20.3 32,22.7 30.3,18.1 					"/>
				</g>
				<polygon fill="#415A6B" points="37.4,26.7 40.7,21.9 39,21.1 41.2,19.9 37.9,17.2 35.5,26.7 				"/>
				<polygon fill="#415A6B" points="27.9,21.9 31.2,26.7 33.2,26.7 30.7,17.2 27.4,19.9 29.7,21.1 				"/>
				<path fill="#FFD15C" d="M34,6.6c-1.7,0-3.1-0.5-4.1-1.4c-0.7,1.2-1.1,2.8-1.1,4.4c0,4.1,2.5,7.4,5.6,7.4c3.1,0,5.6-3.3,5.6-7.4
					c0-1.9-0.5-3.5-1.4-4.8C37.5,5.9,36,6.6,34,6.6z"/>
			</g>
			<g>
				<ellipse transform="matrix(0.9947 0.1029 -0.1029 0.9947 3.3968 -1.8212)" fill="#FFD15C" cx="19.3" cy="32" rx="1.2" ry="2"/>
				<ellipse transform="matrix(-0.9947 0.1029 -0.1029 -0.9947 19.3471 63.0245)" fill="#FFD15C" cx="8" cy="32" rx="1.2" ry="2"/>
				<path fill="#344A5E" d="M19.6,30.9H7.8c-1.5-6.5,1.4-9.6,5.9-9.6C18.3,21.2,21.1,24.4,19.6,30.9z"/>
				<path fill="#344A5E" d="M27.3,48l-0.7-3.3c-0.3-1.5-1.5-2.6-3.1-2.9c-1.7-0.4-3.3-1.1-5-2.1H8.8c-1.8,1-3.6,1.7-5.3,2.1
					c-1.4,0.3-2.5,1.5-2.8,2.9L0,48H27.3z"/>
				<g>
					<path fill="#F7B64C" d="M16.7,36.5l0,1.4c-0.9,2.1-1.8,3.2-3,4.4c-1.1-1.2-2.1-2.3-3-4.4l0-1.4c0.8-2.2,2-3.7,3-4.9
						C14.7,32.8,15.9,34.3,16.7,36.5z"/>
				</g>
				<polygon fill="#FFFFFF" points="16.1,48 16.3,41.5 11,41.5 11.2,48 				"/>
				<g>
					<g>
						<polygon fill="#F3705A" points="14.7,44.1 15.5,43.3 13.7,41.5 11.9,43.3 12.7,44.1 						"/>
					</g>
					<g>
						<polygon fill="#F3705A" points="15.5,48 14.7,44.1 12.7,44.1 11.9,48 						"/>
					</g>
				</g>
				<g>
					<polygon fill="#F3F3F3" points="16.7,37.5 13.7,41.5 16,43.9 17.8,39.4 					"/>
				</g>
				<g>
					<polygon fill="#F3F3F3" points="10.7,37.5 13.7,41.5 11.4,43.9 9.6,39.4 					"/>
				</g>
				<polygon fill="#415A6B" points="16.8,48 20.1,43.2 18.3,42.3 20.6,41.1 17.3,38.4 14.8,48 				"/>
				<polygon fill="#415A6B" points="7.3,43.2 10.6,48 12.5,48 10.1,38.4 6.8,41.1 9,42.3 				"/>
				<path fill="#FFD15C" d="M13.3,27.9c-1.7,0-3.1-0.5-4.1-1.4c-0.7,1.2-1.1,2.8-1.1,4.4c0,4.1,2.5,7.4,5.6,7.4
					c3.1,0,5.6-3.3,5.6-7.4c0-1.9-0.5-3.5-1.4-4.8C16.8,27.2,15.3,27.9,13.3,27.9z"/>
			</g>
		</g>
		<g>
			<path fill="#F3705A" d="M14.7,13.6v-2.8C8,10.9,2.3,15.3,0.6,21.5c-0.4-1.3-0.6-2.6-0.6-4C0,9.3,6.6,2.8,14.7,2.8V0l7.8,6.8
				L14.7,13.6z"/>
		</g>
		<g>
			<path fill="#8AD7F8" d="M33.3,34.4v2.8c6.7,0,12.3-4.5,14.1-10.6c0.4,1.3,0.6,2.6,0.6,4c0,8.1-6.6,14.7-14.7,14.7V48l-7.8-6.8
				L33.3,34.4z"/>
		</g>
	</g>
</g>
</svg>
