<?xml version="1.0" encoding="utf-8"?>
<!-- Generator: Adobe Illustrator 18.0.0, SVG Export Plug-In . SVG Version: 6.00 Build 0)  -->
<!DOCTYPE svg PUBLIC "-//W3C//DTD SVG 1.1//EN" "http://www.w3.org/Graphics/SVG/1.1/DTD/svg11.dtd">
<svg version="1.1" id="Layer_1" xmlns="http://www.w3.org/2000/svg" xmlns:xlink="http://www.w3.org/1999/xlink" x="0px" y="0px"
	 viewBox="0 0 512 512" enable-background="new 0 0 512 512" xml:space="preserve">
<g>
	<path fill="#F2705B" d="M488.8,2H23.2C11.5,2,2,11.5,2,23.2v465.7c0,11.7,9.5,21.2,21.2,21.2h465.7c11.7,0,21.2-9.5,21.2-21.2V23.2
		C510,11.5,500.5,2,488.8,2z M130.9,88c-1.4,2.4-3.5,4.5-5.9,5.9c-23.5,13.9-47.9-10.5-34-34c1.4-2.4,3.5-4.5,5.9-5.9
		C120.4,40.1,144.7,64.5,130.9,88z M421.1,88c-1.4,2.4-3.5,4.5-5.9,5.9c-23.5,13.9-47.9-10.5-34-34c1.4-2.4,3.5-4.5,5.9-5.9
		C410.6,40.1,434.9,64.5,421.1,88z"/>
	<polygon fill="#FFFFFF" points="476.1,132.6 35.9,132.6 35.9,466.3 374.9,466.3 476.1,365.1 	"/>
	<polygon fill="#F2F2F2" points="374.9,466.3 476.1,365.1 374.9,365.1 	"/>
	<path fill="#41596B" d="M222.2,362.9h-24.8v-93.4c-9.1,8.5-19.7,14.7-32,18.8v-22.5c6.5-2.1,13.5-6.1,21.1-12
		c7.6-5.9,12.8-12.8,15.6-20.7h20.1V362.9z"/>
	<path fill="#41596B" d="M259.6,329.7l24.7-2.6c0.7,5.6,2.8,10,6.3,13.3c3.5,3.3,7.5,4.9,12,4.9c5.2,0,9.6-2.1,13.1-6.3
		c3.6-4.2,5.4-10.5,5.4-19c0-7.9-1.8-13.9-5.3-17.9c-3.6-4-8.2-6-13.9-6c-7.1,0-13.5,3.1-19.1,9.4l-20.1-2.9l12.7-67.3h65.5v23.2
		h-46.7l-3.9,22c5.5-2.8,11.2-4.1,16.9-4.1c11,0,20.3,4,27.9,12c7.6,8,11.5,18.4,11.5,31.1c0,10.6-3.1,20.1-9.3,28.5
		c-8.4,11.4-20.1,17.1-35,17.1c-11.9,0-21.7-3.2-29.2-9.6C265.6,349.1,261.1,340.5,259.6,329.7z"/>
	<path fill="#F05540" d="M134.3,68.8c0.4,1.7,0.6,3.4,0.6,5.2c0,6.1-2.3,11.5-6,15.8h254.2c-3.7-4.2-6-9.7-6-15.8
		c0-1.8,0.2-3.5,0.6-5.2H134.3z"/>
	<path fill="#FFD05C" d="M395.1,63.5H112.7c-5.8,0-10.5,4.7-10.5,10.5c0,5.8,4.7,10.5,10.5,10.5h282.4c5.8,0,10.5-4.7,10.5-10.5
		C405.6,68.2,400.9,63.5,395.1,63.5z"/>
</g>
</svg>
