<?xml version="1.0" encoding="utf-8"?>
<!-- Generator: Adobe Illustrator 20.1.0, SVG Export Plug-In . SVG Version: 6.00 Build 0)  -->
<!DOCTYPE svg PUBLIC "-//W3C//DTD SVG 1.1//EN" "http://www.w3.org/Graphics/SVG/1.1/DTD/svg11.dtd">
<svg version="1.1" id="Layer_1" xmlns="http://www.w3.org/2000/svg" xmlns:xlink="http://www.w3.org/1999/xlink" x="0px" y="0px"
	 viewBox="0 0 49 49" enable-background="new 0 0 49 49" xml:space="preserve">
<g>
	<path fill="#E2E2E2" d="M45,18.7h-9.4v21.8H45c1.2,0,2.1-1,2.1-2.1V20.8C47.1,19.7,46.2,18.7,45,18.7z M43.9,37.3h-5.1V21.9h5.1
		V37.3z"/>
	<path fill="#FFD15C" d="M38.7,11.5v34.9c0,1.1-0.9,2.1-2.1,2.1H6.5c-1.1,0-2.1-0.9-2.1-2.1V11.5H38.7z"/>
	<path fill="#F8B64C" d="M31.3,18.7c-1.3,0-2.4,1.1-2.4,2.4v20c0,1.3,1.1,2.4,2.4,2.4c1.3,0,2.4-1.1,2.4-2.4v-20
		C33.7,19.8,32.6,18.7,31.3,18.7z"/>
	<path fill="#F8B64C" d="M21.6,18.7c-1.3,0-2.4,1.1-2.4,2.4v20c0,1.3,1.1,2.4,2.4,2.4c1.3,0,2.4-1.1,2.4-2.4v-20
		C23.9,19.8,22.9,18.7,21.6,18.7z"/>
	<path fill="#F8B64C" d="M11.8,18.7c-1.3,0-2.4,1.1-2.4,2.4v20c0,1.3,1.1,2.4,2.4,2.4c1.3,0,2.4-1.1,2.4-2.4v-20
		C14.2,19.8,13.1,18.7,11.8,18.7z"/>
	<path fill="#F2F2F2" d="M38.9,13.6c0,0,7.6-4.8-1.4-10.3c0,0-4.9-2.2-9.2,0.6c0,0-7.7-8-16,0.6c0,0-5.9-2.8-8.6,0.8
		C3,6.4,2.7,7.9,3,9.3c0.3,1.8,0.7,5.3-0.3,9.8c-1,4.7-0.9,8.4-0.7,10.2c0.1,1.1,1.4,4,4.5,3.2c1.8-0.4,2.8-2.3,2.9-4.1
		c0.2-2.6,0.6-7.4,0.7-13.1c0,0,0.1-1.8,2.4-1.8L38.9,13.6z"/>
</g>
</svg>
