<?xml version="1.0" encoding="utf-8"?>
<!-- Generator: Adobe Illustrator 19.0.1, SVG Export Plug-In . SVG Version: 6.00 Build 0)  -->
<svg version="1.1" id="Layer_1" xmlns="http://www.w3.org/2000/svg" xmlns:xlink="http://www.w3.org/1999/xlink" x="0px" y="0px"
	 viewBox="0 0 48 48" style="enable-background:new 0 0 48 48;" xml:space="preserve">
<style type="text/css">
	.st0{fill:#415A6B;}
	.st1{fill:#ADB3BA;}
	.st2{fill:#E8EAE9;}
	.st3{fill:#55C0EB;}
	.st4{fill:#F3705A;}
	.st5{fill:#FFFFFF;}
	.st6{fill:#FFD15C;}
	.st7{fill:#344A5E;}
	.st8{fill:#CED6E0;}
	.st9{fill:#F05540;}
	.st10{fill:#F7B64C;}
	.st11{fill:#F3F3F3;}
	.st12{fill:#66C6B9;}
	.st13{fill:#4ABAA5;}
	.st14{fill:#8AD7F8;}
	.st15{fill:none;}
	.st16{fill:#E53D35;}
</style>
<g>
	<g>
		<g>
			<g>
				<g>
					<polygon class="st12" points="29.1,36.8 27.2,38.7 24,35.4 20.7,38.7 18.8,36.8 22.6,33 22.6,28.6 25.3,28.6 25.3,33 					"/>
				</g>
			</g>
		</g>
		<g>
			<g>
				<g>
					<g>
						<path class="st6" d="M35,33.5c0.1,0.6-0.1,1.2-0.4,1.3c-0.4,0.1-0.8-0.4-0.9-1c-0.1-0.6,0.1-1.2,0.4-1.3S34.9,32.9,35,33.5z"
							/>
						<path class="st6" d="M41.9,33.8c-0.1,0.6-0.5,1.1-0.9,1c-0.4-0.1-0.6-0.7-0.4-1.3s0.5-1.1,0.9-1C41.8,32.6,42,33.1,41.9,33.8z
							"/>
					</g>
				</g>
				<g>
					<path class="st0" d="M41.5,31.9c0,2.7-1.7,4.9-3.7,4.9S34,34.6,34,31.9c0-4.2,1.7-4.9,3.7-4.9S41.5,27.7,41.5,31.9z"/>
				</g>
				<g>
					<g>
						<g>
							<polygon class="st8" points="39.5,48 42.2,39.1 37.8,39.1 33.7,39.4 37.1,48 							"/>
						</g>
						<g>
							<g>
								<polygon class="st4" points="39.2,48 38.5,41.2 37,41.2 36.4,48 								"/>
							</g>
							<g>
								<polygon class="st9" points="38.5,41.2 39.2,40.6 37.8,39.1 36.3,40.6 37,41.2 								"/>
							</g>
						</g>
						<g>
							<g>
								<g>
									<path class="st11" d="M35.4,36.7c0,0-0.1,1,1.1,1.6c1.2,0.7,1.2,0.8,1.2,0.8l-1.4,2l-1.5-2.3C34.9,38.8,34.8,38,35.4,36.7z
										"/>
								</g>
							</g>
							<g>
								<g>
									<path class="st11" d="M40.1,36.7c0,0,0.1,1-1.1,1.6c-1.2,0.7-1.2,0.8-1.2,0.8l1.4,2l1.5-2.3C40.7,38.8,40.7,38,40.1,36.7z"
										/>
								</g>
							</g>
						</g>
						<g>
							<g>
								<path class="st0" d="M31.7,45.4c0,0,0.2,1.6,0.3,2.6h-4.4c0.2-1.2,0.5-2.6,0.7-3.5c0.5-1.9,0.6-4.5,1.7-4.8
									c1.1-0.4,3.4,2.8,3.4,2.8L31.7,45.4z"/>
							</g>
							<g>
								<path class="st7" d="M31.7,48c0-1.5,0-2.6,0-2.6c-0.1-1.8-1.7-5.7-1.7-5.7c0.4-0.1,3.9-1.3,4.1-1.3
									c-0.2,0.2,1.3,6.1,1.3,6.1s0.9,1.7,1.7,3.6H31.7z"/>
							</g>
							<g>
								<path class="st0" d="M37.5,48h-0.9c-0.2-0.4-0.4-0.8-0.6-1.1c-0.6-1.2-2.6-5.6-2.6-6l0.9-0.8l-0.9-0.4l0.7-1.4
									c0,0,0.6-0.3,1-1c0,0,0.3,3.1,0.5,3.8c0.2,0.7,1.2,4.8,1.4,5.5C37.2,46.9,37.3,47.4,37.5,48z"/>
							</g>
							<g>
								<path class="st0" d="M43.5,48c0.1-1.1,0.3-2.6,0.3-2.6l-1.7-2.9c0,0,2.3-3.2,3.4-2.8c1.1,0.4,1.2,3,1.7,4.8
									c0.3,0.9,0.5,2.3,0.7,3.5H43.5z"/>
							</g>
							<g>
								<path class="st7" d="M43.8,48h-5.5c0.8-1.9,1.7-3.6,1.7-3.6s1.5-5.9,1.3-6.1c0.2,0.1,3.8,1.2,4.1,1.3c0,0-1.6,3.9-1.7,5.7
									C43.8,45.4,43.8,46.5,43.8,48z"/>
							</g>
							<g>
								<path class="st0" d="M42.1,40.9c0,0.4-2,4.8-2.6,6c-0.1,0.3-0.3,0.7-0.6,1.1H38c0.2-0.6,0.4-1.1,0.4-1.4
									c0.2-0.7,1.2-4.8,1.4-5.5c0.2-0.7,0.5-3.8,0.5-3.8c0.4,0.7,1,1,1,1l0.7,1.4l-0.9,0.4L42.1,40.9z"/>
							</g>
						</g>
					</g>
				</g>
				<g>
					<g>
						<path class="st10" d="M35.4,35v1.7c0,0-0.1,1,1.1,1.6c1.2,0.7,1.2,0.8,1.2,0.8s0-0.1,1.2-0.8c1.2-0.7,1.1-1.6,1.1-1.6V35H35.4
							z"/>
					</g>
				</g>
				<g>
					<path class="st6" d="M41.2,33.1c0,2.5-1.5,4.5-3.4,4.5c-1.9,0-3.5-2-3.5-4.5c0-0.9,0.2-1.8,0.6-2.5c0.2-0.4,0.7-0.6,1.1-0.4
						c0.6,0.2,1.2,0.3,1.8,0.3c0.6,0,1.2-0.1,1.8-0.3c0.4-0.2,0.9,0,1.1,0.4C41,31.3,41.2,32.2,41.2,33.1z"/>
				</g>
			</g>
			<g>
				<g>
					<path class="st7" d="M29.1,10.3c0.1,1.2,0.2,2.4,0.3,3.6c0.1,1.2,0.2,2.4,0.7,3.5s1.3,2.1,2.4,2.5c-1.3-0.2-2.5-0.9-3.3-1.8
						c-1-1.1-1.5-2.7-1.6-4.2s0.1-3,0.4-4.5"/>
				</g>
				<g>
					<g>
						<path class="st7" d="M28.9,9.2c0,0,0.8,5.1-1.5,7.2c-2,1.8-3.1,0.1-3.1,0.1L28.9,9.2z"/>
					</g>
					<g>
						<path class="st7" d="M19.3,3.7c-0.6,0.8-0.6,4.5-0.7,5.6s-0.1,2.1-0.2,3.1c-0.3,3.2-2,6.3-4.6,8.2c1.2,0.5,2.5,0.7,3.8,0.4
							c1.3-0.3,2.4-1,3.1-2.1c0.6-1.1,0.7-2.5,0.5-3.8c-0.2-2-0.8-3.9-1-5.9s-0.1-4.1,1-5.8"/>
					</g>
					<g>
						<path class="st7" d="M29.4,8.5c-0.2,1.2-0.4,1.3-0.4,1.3s-1.5,0-1.6-0.3c0-0.2,0-3.5,0-5.4c0.5,0.4,0.9,0.8,1,1.3
							c0.2,1.4,0.2,3.4,0.2,3.4l0.2,0c0,0,0.2-4.6,0.1-5.2C29.4,5.8,29.6,7.4,29.4,8.5z"/>
					</g>
					<g>
						<path class="st6" d="M28.9,8.8c-0.1-1.1-0.1-2.1-0.1-3.2c-0.5-1.3-1.3-2.6-1.6-2.7C26.8,2.7,23.4,2,23,2
							c-0.4,0.1-1.3,0.7-2.6,2.1c-1.3,1.4-0.7,4.2-0.7,4.2s0,0,0.1,2c0.1,2,1.2,3.6,1.2,3.6l0,1.6l-0.4,4.3l4.5,5.4l2.6-1.3l0.3-6.6
							l-0.5-2.9c0,0,0.3-0.1,0.6-0.8c0.3-0.7,0.6-3.3,0.6-3.3s0.2-0.6,0.3-1.3C28.9,8.9,28.9,8.9,28.9,8.8z"/>
					</g>
					<g>
						<path class="st10" d="M25.3,18.5c-3.2-0.6,0.7-0.8,2.1-4C24.3,17.8,21,14,21,14l0,0l0,0l0,1.6l-0.4,4.3l1.3,1.6
							C23.7,20.4,25.8,18.6,25.3,18.5z"/>
					</g>
					<g>
						<g>
							<path class="st9" d="M36.2,25.5c-0.2-1.2-0.4-2.3-0.5-3.1c-0.4-2.2-2.1-3.5-3.5-4.2c-0.9-0.4-1.8-0.9-2.6-1.4l-0.1,0
								l-5.1,2.8l-4.4-2.8c0,0-1.1,0.6-2.4,1.1c-1.4,0.4-4,1.8-4.5,4.6c-0.1,0.8-0.3,1.9-0.5,3.1H36.2z"/>
						</g>
					</g>
					<g>
						<g>
							<path class="st6" d="M20.1,9.3c0.3,1,0.2,2-0.2,2.1c-0.4,0.1-0.9-0.6-1.2-1.6c-0.3-1-0.2-2,0.2-2.1
								C19.2,7.6,19.8,8.3,20.1,9.3z"/>
						</g>
						<g>
							<path class="st6" d="M29.7,9.4c0.3-1,0.2-2-0.2-2.1c-0.4-0.1-0.9,0.6-1.2,1.6c-0.3,1-0.2,2,0.2,2.1
								C28.9,11.2,29.4,10.4,29.7,9.4z"/>
						</g>
					</g>
					<g>
						<path class="st7" d="M28.9,9l-0.2,0c0,0,0-2-0.2-3.4c-0.1-0.5-0.5-1-1-1.3c-0.9-0.6-2.1-1-2.4-1c-0.5,0-1.8,0.1-2.6,0.6
							c-0.8,0.5-1.7,1.7-2.2,2.8c-0.5,1.1-0.5,3.3-0.5,3.3h-0.1C19.7,8.6,19,7.6,19,7.6s-0.2-1.5-0.1-2.3c0-0.8,0.9-3.2,1.7-4
							c0.9-0.8,2.9-1.5,4.9-1.1c2.1,0.4,2.7,1.7,3.3,2.8c0,0,0,0,0,0C29,3.3,29,3.5,29,3.8C29.1,4.4,28.9,9,28.9,9z"/>
					</g>
					<g>
						<g>
							<g>
								<path class="st11" d="M19.6,16.7l1.8,5.1c0.5-0.8,1.6-1.5,3-2.3c-1.5-1.3-2.7-2.7-3.2-4.1L19.6,16.7z"/>
							</g>
						</g>
						<path class="st7" d="M20.5,13.1c0.3,0.7,0.7,1.3,0.9,2.1s0.3,1.5,0.1,2.2c-0.2,0.8-0.7,1.4-1.2,2c-0.5,0.6-1.1,1.2-1.5,1.8
							c-0.4,0.7-0.7,1.5-0.6,2.3c-0.6-1.7-0.1-3.8,1.2-5.1c-1.1,0.8-1.9,1.9-2.4,3.1c-0.5-0.9-0.4-2.1,0.2-2.9
							c0.6-0.9,1.6-1.3,2.3-2.1c0.8-0.9,1.1-2.1,0.8-3.2"/>
						<g>
							<path class="st11" d="M29.1,16.7l-1.8,5.1c-0.5-0.8-1.6-1.5-3-2.3c1.5-1.3,2.7-2.7,3.2-4.1L29.1,16.7z"/>
						</g>
					</g>
				</g>
				<path class="st7" d="M27.4,14.5c-0.7,1.8-1.4,3.8-1.2,5.7c0.1,1,1.2,0.8,1.1,3.1c1.2-1.3,2.3-2.9,2.6-4.6
					c0.3-1.7-0.3-3.6-0.9-5.2"/>
			</g>
			<g>
				<g>
					<g>
						<g>
							<g>
								<path class="st8" d="M22.4,47.8c-0.5-2.2-0.7-4.9-1.9-5.3c0,0,0,0-0.1,0c-0.7-0.2-4.9-1.6-4.9-1.6s-0.7-0.4-1.2-1.2
									c0,0-0.1,1.1-0.3,2.2h-2.8L8.4,42c-0.1-1.2-0.3-2.4-0.3-2.4c-0.5,0.8-1.2,1.2-1.2,1.2S2.7,42.2,2,42.5c0,0,0,0-0.1,0
									c-1.2,0.4-1.4,3.1-1.9,5.3H22.4z"/>
							</g>
						</g>
						<g>
							<g>
								<polygon class="st4" points="12.9,47.8 12.1,44.4 10.3,44.4 9.5,47.8 								"/>
							</g>
						</g>
						<g>
							<g>
								<polygon class="st9" points="12.1,44.4 12.9,43.5 11.2,41.8 9.5,43.5 10.3,44.4 								"/>
							</g>
						</g>
						<g>
							<path class="st10" d="M8.4,39c0,0-0.1,1.1,1.4,1.9s1.4,0.9,1.4,0.9s0-0.1,1.4-0.9S14,39,14,39l0-4.1c0,0,0.1-1.1-1.4-1.9
								c-1.4-0.8-1.4-0.9-1.4-0.9s0,0.1-1.4,0.9c-1.4,0.8-1.4,1.9-1.4,1.9L8.4,39z"/>
						</g>
						<g>
							<path class="st6" d="M14.7,35.6c-0.1,1.5-0.5,2.3-1.8,3.5c-0.6,0.5-1.2,0.7-1.7,0.8c-0.5,0-1.1-0.2-1.7-0.8
								c-1.3-1.2-1.7-1.9-1.8-3.5c-0.8-4.3-0.2-6.2,0.4-6.9c0.4-0.5,2.3-0.4,3.1-0.4c0.8-0.1,2.7-0.1,3.1,0.4
								C14.9,29.3,14.8,34,14.7,35.6z"/>
						</g>
						<g>
							<path class="st7" d="M14.6,34.2c0,0-0.4-1.5-0.4-2.5c0-1,0-2.1-0.7-2.2c-0.7-0.1-3.3,0.6-4.8,0.4S7.4,31,7.5,31.3
								c0.1,0.3,0.1,3.1,0.1,3.1H7.4c0,0,0-0.8-0.4-1.5c-0.3-0.7-0.6-2.6-0.2-3.8C7.2,28,8,27.3,9.2,27s3.6-0.2,4.4,0.3
								c0.8,0.5,1.7,1.8,1.8,2.9c0.1,2-0.6,2.4-0.7,3.4c0,0.6,0,0.6,0,0.6"/>
						</g>
						<g>
							<g>
								<g>
									<path class="st11" d="M8.4,39c0,0-0.1,1.1,1.4,1.9s1.4,0.9,1.4,0.9l-1.7,2.3l-1.8-2.7C7.8,41.5,7.7,40.5,8.4,39z"/>
								</g>
							</g>
							<g>
								<g>
									<path class="st11" d="M14,39c0,0,0.1,1.1-1.4,1.9s-1.4,0.9-1.4,0.9l1.7,2.3l1.8-2.7C14.7,41.5,14.7,40.5,14,39z"/>
								</g>
							</g>
						</g>
					</g>
				</g>
				<g>
					<path class="st6" d="M13.6,34.2c0.1,0.8,0.5,1.4,0.9,1.3c0.3,0,0.5-0.7,0.4-1.5c-0.1-0.8-0.5-1.4-0.9-1.3
						C13.6,32.8,13.5,33.4,13.6,34.2z"/>
				</g>
				<g>
					<path class="st6" d="M6.7,34.2c0.1,0.8,0.5,1.4,0.9,1.3c0.3,0,0.5-0.7,0.4-1.5c-0.1-0.8-0.5-1.4-0.9-1.3
						C6.8,32.8,6.6,33.4,6.7,34.2z"/>
				</g>
				<g>
					<path class="st7" d="M7.5,32l0.2,2.1H7.6c0,0,0-1.2-0.3-1.6S7,32.1,7,32.1L7.5,32"/>
				</g>
				<g>
					<ellipse transform="matrix(0.9946 0.1041 -0.1041 0.9946 3.6319 -1.352)" class="st6" cx="14.8" cy="34.1" rx="0.6" ry="1.4"/>
				</g>
				<g>
					<path class="st7" d="M14.2,31.2v2.9l0.2,0c0-0.7,0-1.3,0.3-1.8L14.2,31.2z"/>
				</g>
			</g>
		</g>
	</g>
</g>
</svg>
