<?xml version="1.0" encoding="utf-8"?>
<!-- Generator: Adobe Illustrator 18.0.0, SVG Export Plug-In . SVG Version: 6.00 Build 0)  -->
<!DOCTYPE svg PUBLIC "-//W3C//DTD SVG 1.1//EN" "http://www.w3.org/Graphics/SVG/1.1/DTD/svg11.dtd">
<svg version="1.1" id="Layer_1" xmlns="http://www.w3.org/2000/svg" xmlns:xlink="http://www.w3.org/1999/xlink" x="0px" y="0px"
	 viewBox="0 0 48 48" enable-background="new 0 0 48 48" xml:space="preserve">
<g>
	<path fill="#F8B64C" d="M24,8.1c4.8,0,9.2,2,12.4,5.1L41,8.6c-4.3-4.3-10.3-7-17-7c-6.6,0-12.6,2.7-17,7l4.6,4.6
		C14.8,10,19.2,8.1,24,8.1z"/>
	<path fill="#54C0EB" d="M11.6,13.2L7,8.6C2.7,13,0,19,0,25.6c0,6.6,2.7,12.6,7,17l4.6-4.6c-3.2-3.2-5.1-7.6-5.1-12.4
		C6.5,20.8,8.4,16.4,11.6,13.2z"/>
	<path fill="#F1543F" d="M41,8.6l-4.6,4.6c3.2,3.2,5.1,7.6,5.1,12.4c0,4.8-2,9.2-5.1,12.4l4.6,4.6c4.3-4.3,7-10.3,7-17
		C48,19,45.3,13,41,8.6z"/>
	<path fill="#FFD15C" d="M36.4,13.2L32,17.6c-2.1-2-4.9-3.3-8-3.3s-6,1.3-8,3.3h0l-4.4-4.4C14.8,10,19.2,8.1,24,8.1
		C28.8,8.1,33.2,10,36.4,13.2z"/>
	<path fill="#84DBFF" d="M16,33.6L11.6,38c-3.2-3.2-5.1-7.6-5.1-12.4c0-4.8,2-9.2,5.1-12.4l4.4,4.4c-2,2-3.3,4.9-3.3,8
		C12.6,28.7,13.9,31.6,16,33.6z"/>
	<path fill="#FF7058" d="M41.5,25.6c0,4.8-2,9.2-5.1,12.4L32,33.6c2-2.1,3.3-4.9,3.3-8c0-3.1-1.3-6-3.3-8l4.4-4.4
		C39.6,16.4,41.5,20.8,41.5,25.6z"/>
	<path fill="#40596B" d="M39.4,16.1l-13,9.9c-0.2,1.2-1.2,2-2.4,2c-1.4,0-2.5-1.1-2.5-2.5c0-1.4,1.1-2.5,2.5-2.5
		c0.3,0,0.5,0,0.8,0.1L39.4,16.1z"/>
	<path fill="#CDD6E0" d="M32.6,46.4H15.4c-2.1,0-3.8-1.7-3.8-3.8v0c0-2.1,1.7-3.8,3.8-3.8h17.1c2.1,0,3.8,1.7,3.8,3.8v0
		C36.4,44.7,34.7,46.4,32.6,46.4z"/>
	<circle fill="#FFFFFF" cx="24" cy="25.6" r="1"/>
</g>
</svg>
