<?xml version="1.0" encoding="utf-8"?>
<!-- Generator: Adobe Illustrator 18.0.0, SVG Export Plug-In . SVG Version: 6.00 Build 0)  -->
<!DOCTYPE svg PUBLIC "-//W3C//DTD SVG 1.1//EN" "http://www.w3.org/Graphics/SVG/1.1/DTD/svg11.dtd">
<svg version="1.1" id="Layer_1" xmlns="http://www.w3.org/2000/svg" xmlns:xlink="http://www.w3.org/1999/xlink" x="0px" y="0px"
	 viewBox="0 0 48 48" enable-background="new 0 0 48 48" xml:space="preserve">
<g>
	<g>
		<g>
			<path fill="#F3F3F3" d="M45,48H3c-1.7,0-3-1.3-3-3V3c0-1.7,1.3-3,3-3h42c1.7,0,3,1.3,3,3v42C48,46.7,46.7,48,45,48z"/>
		</g>
		<rect x="4" y="41.9" fill="#CED6E0" width="40" height="2.1"/>
		<rect x="4" y="36" fill="#CED6E0" width="40" height="2.1"/>
		<g>
			<rect x="4" y="30.1" fill="#CED6E0" width="17.7" height="2.1"/>
			<rect x="4" y="24.1" fill="#CED6E0" width="17.7" height="2.1"/>
			<rect x="4" y="18.2" fill="#415A6B" width="17.7" height="2.1"/>
		</g>
		<g>
			<path fill="#F3705A" d="M10.6,4.2h2.1v9.4h-2.1L6.1,7.7v5.9H4V4.2h2l4.6,6V4.2z"/>
			<path fill="#F3705A" d="M21.7,4.2v1.9h-4.7V8h4.2v1.8h-4.2v1.9h4.8v1.9H15V4.2H21.7z"/>
			<path fill="#F3705A" d="M26.7,9.6l1.7-5.4h2.2l1.7,5.4l1.9-5.4h2.3L33,13.6h-1.6l-2.1-6.5l-2,6.5h-1.6l-3.3-9.4h2.3L26.7,9.6z"/>
			<path fill="#F3705A" d="M39.6,6.1c-0.2,0.2-0.3,0.4-0.3,0.7s0.1,0.5,0.4,0.7c0.2,0.2,0.8,0.4,1.7,0.6c0.9,0.2,1.6,0.5,2.1,1
				c0.5,0.4,0.7,1.1,0.7,1.9c0,0.8-0.3,1.5-0.9,2c-0.6,0.5-1.5,0.8-2.5,0.8c-1.5,0-2.8-0.6-4-1.7l1.2-1.5c1,0.9,1.9,1.3,2.8,1.3
				c0.4,0,0.7-0.1,0.9-0.2c0.2-0.2,0.3-0.4,0.3-0.7c0-0.3-0.1-0.5-0.3-0.7c-0.2-0.2-0.7-0.3-1.4-0.5c-1.1-0.3-1.9-0.6-2.4-1
				c-0.5-0.4-0.8-1.1-0.8-2s0.3-1.6,1-2.1C38.7,4.2,39.5,4,40.5,4c0.6,0,1.3,0.1,1.9,0.3C43,4.5,43.5,4.8,44,5.2l-1.1,1.5
				c-0.8-0.6-1.7-0.9-2.5-0.9C40,5.8,39.8,5.9,39.6,6.1z"/>
		</g>
		<g>
			<rect x="25.8" y="18.2" fill="#8AD7F8" width="18.2" height="13.9"/>
		</g>
	</g>
</g>
</svg>
