<?xml version="1.0" encoding="utf-8"?>
<!-- Generator: Adobe Illustrator 16.0.0, SVG Export Plug-In . SVG Version: 6.00 Build 0)  -->
<!DOCTYPE svg PUBLIC "-//W3C//DTD SVG 1.1//EN" "http://www.w3.org/Graphics/SVG/1.1/DTD/svg11.dtd">
<svg version="1.1" id="Layer_1" xmlns="http://www.w3.org/2000/svg" xmlns:xlink="http://www.w3.org/1999/xlink" x="0px" y="0px"
	 width="48px" height="48px" viewBox="0 0 48 48" enable-background="new 0 0 48 48" xml:space="preserve">
<g>
	<path fill="#F8B64C" d="M31.078,31.365c0.051,1.92,0.451,3.83,1.191,5.74c-5.512,1.2-11.021,1.2-16.531,0
		c1.59-4.14,1.59-8.29,0-12.43c5.51-1.2,11.02-1.2,16.531,0c-0.111,0.28-0.211,0.55-0.291,0.83h-0.01
		c-0.65,1.94-0.949,3.89-0.891,5.84V31.365z"/>
	<path fill="#CDD6E0" d="M48,47.895H0c0-5.17,2.74-9.87,7.07-12.45c0.68-0.41,1.391-0.77,2.141-1.06l7.66-3.01l0.053,0.009
		L24,37.105l7.09-5.72v-0.03l0.051,0.02l7.65,3.01c0.75,0.3,1.469,0.65,2.148,1.06c1.83,1.09,3.371,2.561,4.541,4.271
		C47.09,42.075,48,44.905,48,47.895"/>
	<path fill="#F2F2F2" d="M35.875,47.895H48c0-2.99-0.91-5.82-2.52-8.18c-1.17-1.71-2.711-3.18-4.541-4.271
		c-0.68-0.41-1.398-0.76-2.148-1.06l-2.916-1.147V47.895z"/>
	<path fill="#F2F2F2" d="M12.127,47.895H0c0-2.99,0.91-5.82,2.52-8.18c1.17-1.71,2.711-3.18,4.541-4.271
		c0.68-0.41,1.4-0.76,2.15-1.06l2.916-1.147V47.895z"/>
	<g opacity="0.1">
		<g>
			<defs>
				<rect id="SVGID_13_" x="20.248" y="25.501" width="11.721" height="9.94"/>
			</defs>
			<clipPath id="SVGID_2_">
				<use xlink:href="#SVGID_13_"  overflow="visible"/>
			</clipPath>
			<path clip-path="url(#SVGID_2_)" fill="#40596B" d="M31.969,25.505c-0.65,1.94-0.949,3.89-0.891,5.84l0.016,0.036l-5.016,4.062
				l-5.83-4.318l3.121-3.85L31.969,25.505z"/>
		</g>
	</g>
	<path fill="#F8B64C" d="M16.479,17.98c0.156,1.795-0.715,3.338-1.945,3.445c-1.232,0.108-2.357-1.26-2.516-3.055
		c-0.156-1.795,0.715-3.337,1.947-3.445C15.195,14.817,16.32,16.185,16.479,17.98"/>
	<path fill="#F8B64C" d="M35.984,18.371c-0.156,1.795-1.283,3.163-2.514,3.055c-1.232-0.107-2.104-1.65-1.945-3.445
		c0.156-1.795,1.281-3.163,2.514-3.055C35.27,15.033,36.141,16.576,35.984,18.371"/>
	<path fill="#FFD15C" d="M34.359,13.284v3.4c-0.01,0.72-0.049,1.44-0.139,2.15c-0.15,1.18-0.4,2.34-0.75,3.46
		c-0.852,2.71-2.281,5.21-4.211,7.32l-0.99,1.08c-0.9,0.99-2.18,1.55-3.52,1.55h-1.5c-1.33,0-2.609-0.57-3.51-1.55l-0.98-1.08
		c-1.369-1.49-2.49-3.19-3.32-5c-0.84-1.82-1.4-3.77-1.641-5.78c-0.09-0.71-0.139-1.43-0.139-2.15c-0.01-0.08-0.01-0.15-0.01-0.23
		v-3.11c0-0.98,0.139-1.94,0.398-2.84c1.23-4.33,5.221-7.51,9.961-7.51c4.73,0,8.721,3.18,9.949,7.51
		C34.221,11.384,34.359,12.324,34.359,13.284"/>
	<path fill="#ACB3BA" d="M33.236,30.334c-0.01,0.011-0.021,0.011-0.021,0.011v-0.022C33.227,30.323,33.236,30.334,33.236,30.334"/>
	<path fill="#ACB3BA" d="M33.281,30.323v0.022c0,0-0.012,0-0.021-0.011C33.26,30.334,33.27,30.323,33.281,30.323"/>
	<path fill="#40596B" d="M40.939,35.445c-0.549,0.94-3.709,6.65-3.709,12.45h-9.16c0.869-3.54,2.98-12.48,3.07-16.52l7.65,3.01
		C39.541,34.685,40.26,35.035,40.939,35.445"/>
	<path fill="#40596B" d="M19.939,47.895h-9.16c-0.01-5.8-3.158-11.51-3.709-12.45c0.68-0.41,1.391-0.77,2.141-1.06l7.66-3.01
		C16.961,35.415,19.07,44.355,19.939,47.895"/>
	<path fill="#F2F2F2" d="M24,37.105l-7.076-5.721l-0.053-0.009c0.053,2.361,0.795,6.394,1.576,10.047L24,37.105z"/>
	<path fill="#F2F2F2" d="M24.012,37.105l7.129-5.73c-0.053,2.361-0.795,6.394-1.576,10.047L24.012,37.105z"/>
	<path fill="#40596B" d="M27.959,36.608l-2.441,1.221v-0.333c0-0.218-0.178-0.395-0.395-0.395h-2.244
		c-0.219,0-0.396,0.177-0.396,0.395v0.333l-2.441-1.221c-0.262-0.131-0.57,0.06-0.57,0.353v3.845c0,0.293,0.309,0.484,0.57,0.353
		l2.441-1.222v0.334c0,0.218,0.178,0.394,0.396,0.394h2.244c0.217,0,0.395-0.176,0.395-0.394v-0.334l2.441,1.222
		c0.262,0.131,0.57-0.06,0.57-0.353v-3.845C28.529,36.668,28.221,36.477,27.959,36.608"/>
	<path fill="#40596B" d="M34.361,18.175c0.357-2.573,0.994-2.423,0.994-2.423c4.076-7.863-1.936-9.014-1.936-9.014
		c0.643-4.217-1.715-5.218-1.715-5.218c-7.291-4.003-14.227,0.643-14.227,0.643c-3.145,3.002-4.502,0-4.502,0
		c-2.574,5.79,0,7.148,0,7.148c-0.859,2.645-0.105,6.262-0.105,6.262l0.947,2.602l0.43-1.112l0.943-4.289
		c0,0,1.359-3.606,2.574-4.035c1.184-0.417,1.961,1.352,12.441,0.379c0.484-0.046,0.941,0.244,1.096,0.706
		c0.279,0.828,1.381,1.966,1.957,2.419c0.229,0.179,0.4,0.419,0.408,0.709l0.086,4.199L34.361,18.175z"/>
</g>
</svg>
