<?xml version="1.0" encoding="utf-8"?>
<!-- Generator: Adobe Illustrator 18.0.0, SVG Export Plug-In . SVG Version: 6.00 Build 0)  -->
<!DOCTYPE svg PUBLIC "-//W3C//DTD SVG 1.1//EN" "http://www.w3.org/Graphics/SVG/1.1/DTD/svg11.dtd">
<svg version="1.1" id="Layer_1" xmlns="http://www.w3.org/2000/svg" xmlns:xlink="http://www.w3.org/1999/xlink" x="0px" y="0px"
	 viewBox="0 0 48 48" enable-background="new 0 0 48 48" xml:space="preserve">
<g>
	<g>
		<g>
			<g>
				<polygon fill="#E8EAE9" points="33.1,9.5 30.3,9.5 23.7,21.9 12.2,10.5 10.1,10.5 10.1,11.8 22.3,24.1 11.4,37.2 14.7,37.2 
					24.2,25.6 37.3,34.4 39.6,34.4 39.6,32.9 25.6,23.6 				"/>
			</g>
		</g>
		<circle fill="#4EC0AA" cx="42.3" cy="36.2" r="5.7"/>
		<circle fill="#415A6B" cx="24" cy="24" r="9.8"/>
		<g>
			<circle fill="#8AD7F8" cx="33.4" cy="6.4" r="4.7"/>
			<g>
				
					<ellipse transform="matrix(0.7071 -0.7071 0.7071 0.7071 6.0032 23.5981)" fill="#FFFFFF" cx="31.5" cy="4.6" rx="1.4" ry="0.7"/>
			</g>
		</g>
		<g>
			<circle fill="#F3705A" cx="7.3" cy="7.3" r="7.3"/>
			<g>
				<g>
					<ellipse transform="matrix(0.7071 -0.7071 0.7071 0.7071 -1.8307 4.4199)" fill="#FFFFFF" cx="4.4" cy="4.4" rx="2.2" ry="1"/>
				</g>
			</g>
		</g>
		<g>
			<g>
				
					<ellipse transform="matrix(0.7071 -0.7071 0.7071 0.7071 -12.282 38.2232)" fill="#FFFFFF" cx="40" cy="33.9" rx="1.7" ry="0.8"/>
			</g>
		</g>
		<g>
			<g>
				
					<ellipse transform="matrix(0.7071 -0.7071 0.7071 0.7071 -8.3302 20.1115)" fill="#FFFFFF" cx="20.1" cy="20.1" rx="3" ry="1.4"/>
			</g>
		</g>
		<g>
			<g>
				<circle fill="#FFD15C" cx="10" cy="40.9" r="7.1"/>
			</g>
			<g>
				<g>
					
						<ellipse transform="matrix(0.7071 -0.7071 0.7071 0.7071 -24.8295 16.2109)" fill="#FFFFFF" cx="7.2" cy="38.1" rx="2.2" ry="1"/>
				</g>
			</g>
		</g>
	</g>
</g>
</svg>
