<?xml version="1.0" encoding="utf-8"?>
<!-- Generator: Adobe Illustrator 18.0.0, SVG Export Plug-In . SVG Version: 6.00 Build 0)  -->
<!DOCTYPE svg PUBLIC "-//W3C//DTD SVG 1.1//EN" "http://www.w3.org/Graphics/SVG/1.1/DTD/svg11.dtd">
<svg version="1.1" id="Layer_1" xmlns="http://www.w3.org/2000/svg" xmlns:xlink="http://www.w3.org/1999/xlink" x="0px" y="0px"
	 viewBox="0 0 48 48" enable-background="new 0 0 48 48" xml:space="preserve">
<g>
	<g>
		<g>
			<path fill="#F3705A" d="M48,12.9v28.3c0,1.7-1.3,3-3,3H3c-1.7,0-3-1.3-3-3V12.9c0-1.6,1.3-3,3-3h42C46.7,9.9,48,11.2,48,12.9z"/>
		</g>
		<g>
			<path fill="#344A5E" d="M48,20.3v-7.4c0-1.6-1.3-3-3-3H3c-1.7,0-3,1.4-3,3v7.4H48z"/>
		</g>
		<g>
			<g>
				<circle fill="#415A6B" cx="27.1" cy="27" r="13.6"/>
			</g>
			<g>
				<circle fill="#CED6E0" cx="27.1" cy="27" r="10"/>
			</g>
			<g>
				<circle fill="#55C0EB" cx="27.1" cy="27" r="5.9"/>
			</g>
			<g>
				<circle fill="#FFFFFF" cx="31.2" cy="24.5" r="2.5"/>
			</g>
		</g>
		<g>
			<path fill="#FFD15C" d="M11.1,17.1H4.6c-0.5,0-0.9-0.4-0.9-0.9v-1.8c0-0.5,0.4-0.9,0.9-0.9h6.5c0.5,0,0.9,0.4,0.9,0.9v1.8
				C12,16.7,11.6,17.1,11.1,17.1z"/>
		</g>
		<g>
			<path fill="#415A6B" d="M10,7.1H6.4c-0.5,0-0.9,0.4-0.9,0.9v1.8h5.4V8.1C10.9,7.5,10.5,7.1,10,7.1z"/>
		</g>
		<g>
			<path fill="#344A5E" d="M32.6,3.9h-11c-1,0-1.8,0.6-2.1,1.5l-1.5,4.5h18.4l-1.5-4.5C34.5,4.5,33.6,3.9,32.6,3.9z"/>
		</g>
	</g>
</g>
</svg>
