<?xml version="1.0" encoding="utf-8"?>
<!-- Generator: Adobe Illustrator 18.0.0, SVG Export Plug-In . SVG Version: 6.00 Build 0)  -->
<!DOCTYPE svg PUBLIC "-//W3C//DTD SVG 1.1//EN" "http://www.w3.org/Graphics/SVG/1.1/DTD/svg11.dtd">
<svg version="1.1" id="Layer_1" xmlns="http://www.w3.org/2000/svg" xmlns:xlink="http://www.w3.org/1999/xlink" x="0px" y="0px"
	 viewBox="0 0 48 48" enable-background="new 0 0 48 48" xml:space="preserve">
<g>
	<polygon fill="#F8B64C" points="48,24 42.6,27.3 46.6,32.2 40.3,33.4 42.4,39.4 36.1,38.4 36,44.8 30.5,41.7 28.2,47.6 24,42.9 
		19.8,47.6 17.5,41.7 12,44.8 11.9,38.4 5.6,39.4 7.7,33.4 1.4,32.2 5.4,27.3 0,24 5.4,20.7 1.4,15.8 7.7,14.6 5.6,8.6 11.9,9.6 
		12,3.2 17.5,6.3 19.8,0.4 24,5.1 28.2,0.4 30.5,6.3 36,3.2 36.1,9.6 42.4,8.6 40.3,14.6 46.6,15.8 42.6,20.7 	"/>
	<path fill="#FFD15C" d="M24,40.6c-9.1,0-16.6-7.4-16.6-16.6S14.9,7.4,24,7.4c9.1,0,16.6,7.4,16.6,16.6S33.1,40.6,24,40.6z"/>
	<g>
		<path fill="#FFFFFF" d="M12.5,23.5c-0.6,0-1.1-0.5-1.1-1.1c0-6.1,4.9-11,11-11c0.6,0,1.1,0.5,1.1,1.1s-0.5,1.1-1.1,1.1
			c-4.9,0-8.9,4-8.9,8.9C13.5,23,13,23.5,12.5,23.5z"/>
	</g>
</g>
</svg>
