<?xml version="1.0" encoding="utf-8"?>
<!-- Generator: Adobe Illustrator 18.0.0, SVG Export Plug-In . SVG Version: 6.00 Build 0)  -->
<!DOCTYPE svg PUBLIC "-//W3C//DTD SVG 1.1//EN" "http://www.w3.org/Graphics/SVG/1.1/DTD/svg11.dtd">
<svg version="1.1" id="Layer_1" xmlns="http://www.w3.org/2000/svg" xmlns:xlink="http://www.w3.org/1999/xlink" x="0px" y="0px"
	 viewBox="0 0 48 48" enable-background="new 0 0 48 48" xml:space="preserve">
<g>
	<path fill="#F2F2F2" d="M44.9,12.2C44.9,12.2,44.9,12.2,44.9,12.2c0-1.2-1-2.2-2.2-2.2c-0.3,0-0.5,0.1-0.8,0.2
		c-0.5-0.4-1.1-0.6-1.7-0.5c-0.4,0.1-0.8,0.3-1.1,0.5c-0.6,0.5-1.4,0.6-2.1,0.5c-0.2,0-0.4,0-0.7,0c-0.7,0.1-1.2,0.6-1.6,1.2
		c-0.2,0.4-0.3,0.8-0.3,1.1c0,0,0,0,0,0c-0.7,0.1-1.1,0.7-1,1.4c-0.1,0.1-0.3,0.2-0.4,0.3c-0.7,0.7-1.5,1.2-2.4,1.7c0,0,0,0,0,0
		c-0.7,0.4-1.1,1.1-1.2,1.8c-0.1,1.5,1.2,2.6,2.6,2.4c1.1-0.2,1.9-1.1,1.9-2.2c0.3,0.1,0.7,0.2,1.1,0.1c0.1,0,0.2-0.1,0.3-0.1
		c0.4,1.2,1.6,1.9,2.9,1.5c0.7-0.2,1.3-0.9,1.5-1.6c0.2-0.7,0-1.2-0.2-1.7c0.4-0.2,0.7-0.4,0.9-0.8c0.6,0.4,1.4,0.6,2.1,0.3
		c0.4-0.1,0.7-0.4,1-0.7c0.3,0.2,0.7,0.4,1.1,0.4c1,0,1.8-0.8,1.8-1.8C46.4,13.1,45.7,12.4,44.9,12.2z"/>
	<path fill="#F2F2F2" d="M28.6,5.6c-0.4-0.8-0.6-1.6-0.8-2.5c-0.1-0.5-0.4-1-0.9-1.6c-0.6-0.7-1.4-1.1-2.3-1.1
		c-0.6,0-1.2,0.2-1.7,0.5c-0.9,0.6-2,0.5-3.1,0.2C19.4,1.1,19.1,1,18.8,1c-1,0-1.9,0.6-2.5,1.3c-0.4,0.5-0.6,1-0.7,1.5c0,0,0,0,0,0
		c-1,0-1.7,0.7-1.8,1.7c-0.2,0.1-0.4,0.2-0.6,0.4C12,6.7,10.7,7.2,9.4,7.7c0,0,0,0-0.1,0C8.3,8.1,7.5,9,7.3,10c-0.5,2.1,1.1,4,3.2,4
		c1.6,0,2.9-1.2,3.2-2.7c0.5,0.2,1,0.4,1.5,0.4c0.2,0,0.3,0,0.5-0.1c0.2,1.7,1.8,3,3.7,2.7c1.1-0.2,2-0.9,2.4-1.9
		c0.4-0.9,0.3-1.7,0.1-2.4c0.6-0.2,1.1-0.5,1.4-0.9c0.7,0.7,1.8,1.2,2.9,0.9c1.3-0.2,2.4-1.4,2.6-2.7C28.9,6.7,28.8,6.1,28.6,5.6z"
		/>
	<path fill="#FFD15C" d="M42,17.2H28.5l-1.3,6.6c-1.9,9.5-2.8,14-2.8,23.8v0h21.8v0c0-9.7-0.9-14.2-2.8-23.8L42,17.2z"/>
	<path fill="#F8B64C" d="M42.3,17.9H28.2c-0.4,0-0.7-0.3-0.7-0.7v-0.1c0-0.4,0.3-0.7,0.7-0.7h14.1c0.4,0,0.7,0.3,0.7,0.7v0.1
		C42.9,17.6,42.6,17.9,42.3,17.9z"/>
	<path fill="#CDD6E0" d="M22.6,11.6H7l-1.5,7.6c-2.2,11-3.3,17-3.3,28.3v0h25.2v0c0-11.3-1.1-17.2-3.3-28.3L22.6,11.6z"/>
	<rect x="0" y="42.4" fill="#40596B" width="48" height="5.1"/>
	<path fill="#ACB3BA" d="M22.9,12.5H6.7c-0.4,0-0.8-0.4-0.8-0.8v-0.1c0-0.4,0.4-0.8,0.8-0.8h16.3c0.4,0,0.8,0.4,0.8,0.8v0.1
		C23.7,12.1,23.4,12.5,22.9,12.5z"/>
</g>
</svg>
