<?xml version="1.0" encoding="utf-8"?>
<!-- Generator: Adobe Illustrator 18.0.0, SVG Export Plug-In . SVG Version: 6.00 Build 0)  -->
<!DOCTYPE svg PUBLIC "-//W3C//DTD SVG 1.1//EN" "http://www.w3.org/Graphics/SVG/1.1/DTD/svg11.dtd">
<svg version="1.1" id="Layer_1" xmlns="http://www.w3.org/2000/svg" xmlns:xlink="http://www.w3.org/1999/xlink" x="0px" y="0px"
	 viewBox="0 0 512 512" enable-background="new 0 0 512 512" xml:space="preserve">
<g>
	<path fill="#F2F2F2" d="M395.7,2H23.2C11.5,2,2,11.5,2,23.2v259.3c0,11.7,9.5,21.2,21.2,21.2h20.7l-0.1,67.4l69.8-67.4H383
		c18.7,0,33.9-15.2,33.9-33.9V23.2C416.9,11.5,407.4,2,395.7,2z"/>
	<path fill="#84DBFF" d="M488.8,140.9H116.3c-11.7,0-21.2,9.5-21.2,21.2v259.3c0,11.7,9.5,21.2,21.2,21.2h282.2l69.8,67.4l-0.1-67.4
		h20.7c11.7,0,21.2-9.5,21.2-21.2V162.1C510,150.4,500.5,140.9,488.8,140.9z"/>
	<g>
		<ellipse fill="#FFFFFF" cx="208.7" cy="291.7" rx="27.8" ry="27.9"/>
		<ellipse fill="#FFFFFF" cx="302.6" cy="291.7" rx="27.8" ry="27.9"/>
		<ellipse fill="#FFFFFF" cx="396.4" cy="291.7" rx="27.8" ry="27.9"/>
	</g>
</g>
</svg>
