<?xml version="1.0" encoding="utf-8"?>
<!-- Generator: Adobe Illustrator 18.0.0, SVG Export Plug-In . SVG Version: 6.00 Build 0)  -->
<!DOCTYPE svg PUBLIC "-//W3C//DTD SVG 1.1//EN" "http://www.w3.org/Graphics/SVG/1.1/DTD/svg11.dtd">
<svg version="1.1" id="Layer_1" xmlns="http://www.w3.org/2000/svg" xmlns:xlink="http://www.w3.org/1999/xlink" x="0px" y="0px"
	 viewBox="0 0 48 48" enable-background="new 0 0 48 48" xml:space="preserve">
<g>
	<g>
		<g>
			<path fill="#E8EAE9" d="M45,12.9H3c-1.7,0-3,1.4-3,3v29c0,1.7,1.4,3,3,3h42c1.7,0,3-1.4,3-3V16C48,14.3,46.6,12.9,45,12.9z"/>
			<path fill="#8BD7F8" d="M44.4,5.8h-1.9v35.1h1.9c2,0,3.6,1.6,3.6,3.6V9.4C48,7.4,46.4,5.8,44.4,5.8z"/>
		</g>
		<path fill="#435B6C" d="M38.5,12.9h-3.3L24,36.8L12.5,25.3l1.6-1c-0.1-0.1-1.4-2.5-1.4-2.6L0,29.6v3.5L9.9,27l5,5V48h3V34.9L31,48
			h4.2l-9-9L38.5,12.9z"/>
		<g>
			<path fill="#F3705B" d="M20.6,0C14.2,0,9.1,5.1,9.1,11.5c0,6.3,11.5,23.6,11.5,23.6S32,17.8,32,11.5C32,5.1,26.9,0,20.6,0z"/>
			<circle fill="#FFFFFF" cx="20.6" cy="11.5" r="6.7"/>
		</g>
	</g>
</g>
</svg>
