<?xml version="1.0" encoding="utf-8"?>
<!-- Generator: Adobe Illustrator 18.0.0, SVG Export Plug-In . SVG Version: 6.00 Build 0)  -->
<!DOCTYPE svg PUBLIC "-//W3C//DTD SVG 1.1//EN" "http://www.w3.org/Graphics/SVG/1.1/DTD/svg11.dtd">
<svg version="1.1" id="Layer_1" xmlns="http://www.w3.org/2000/svg" xmlns:xlink="http://www.w3.org/1999/xlink" x="0px" y="0px"
	 viewBox="0 0 512 512" enable-background="new 0 0 512 512" xml:space="preserve">
<g>
	<g>
		<circle fill="#40596B" cx="222.7" cy="467.9" r="42.1"/>
		<circle fill="#40596B" cx="383.2" cy="467.9" r="42.1"/>
	</g>
	<g>
		<g>
			<path fill="#FFD15C" d="M325.6,2c-48,0-86.9,38.9-86.9,86.9c0,16.7,4.8,32.3,13,45.5h147.8c8.2-13.3,13-28.8,13-45.5
				C412.5,40.9,373.6,2,325.6,2z"/>
			<path fill="#F8B64C" d="M325.6,25.1c-35.2,0-63.8,28.6-63.8,63.8c0,17.9,7.4,34,19.2,45.5h89.2c11.8-11.6,19.2-27.7,19.2-45.5
				C389.4,53.7,360.8,25.1,325.6,25.1z"/>
			<path fill="#FFD15C" d="M316.6,109.9c-1.6-2.1-2.7-4.6-3.2-7.5l-14.1,1.5c1.1,7.1,3.6,12.6,7.5,16.5c3.9,3.9,8.9,6.2,15.2,7v7.1
				h7.8v-7.3c7-1,12.5-3.7,16.4-8.2c3.9-4.5,5.9-10,5.9-16.5c0-5.8-1.6-10.6-4.7-14.3c-3.1-3.7-9-6.8-17.7-9.1V57.9
				c3.5,1.5,5.7,4.4,6.5,8.6l13.7-1.8c-0.9-5.4-3.1-9.7-6.5-12.9c-3.4-3.2-7.9-5.2-13.7-5.9v-5.3h-7.8V46
				c-6.2,0.6-11.2,2.9-14.9,6.9c-3.7,4-5.6,9-5.6,14.9c0,5.8,1.6,10.8,4.9,14.9c3.3,4.1,8.5,7.1,15.5,9.2v22.6
				C319.9,113.5,318.1,112,316.6,109.9z M329.7,94.1c3.2,0.9,5.6,2.3,7,4c1.4,1.7,2.1,3.8,2.1,6.2c0,2.7-0.8,5-2.5,7
				c-1.7,2-3.9,3.2-6.6,3.8V94.1z M316.6,72.4c-1.2-1.6-1.7-3.4-1.7-5.3c0-2.1,0.6-4,1.9-5.7c1.3-1.7,3-3,5.1-3.7v18.7
				C319.5,75.4,317.8,74.1,316.6,72.4z"/>
		</g>
		<g>
			<path fill="#F2F2F2" d="M496,135H150.7l-16-76c-2.4-11.4-12.5-19.6-24.2-19.6H28.3C14.7,39.3,3.6,50.4,3.6,64
				c0,13.7,11.1,24.7,24.7,24.7h62.1l66.9,318.6c2.4,11.4,12.5,19.6,24.2,19.6h244.4c13.7,0,24.7-11.1,24.7-24.7
				c0-13.7-11.1-24.7-24.7-24.7H201.6l-7.6-36H458c5.9,0,10.9-4.1,12.1-9.8l38-181.9C509.7,142.2,503.9,135,496,135z M237.8,283.3
				c0,12.4-10.1,22.5-22.5,22.5s-22.5-10.1-22.5-22.5v-90.2c0-12.4,10.1-22.5,22.5-22.5s22.5,10.1,22.5,22.5V283.3z M325.5,283.3
				c0,12.4-10.1,22.5-22.5,22.5c-12.4,0-22.5-10.1-22.5-22.5v-90.2c0-12.4,10.1-22.5,22.5-22.5c12.4,0,22.5,10.1,22.5,22.5V283.3z
				 M413.1,283.3c0,12.4-10.1,22.5-22.5,22.5s-22.5-10.1-22.5-22.5v-90.2c0-12.4,10.1-22.5,22.5-22.5s22.5,10.1,22.5,22.5V283.3z"/>
		</g>
	</g>
</g>
</svg>
