<?xml version="1.0" encoding="utf-8"?>
<!-- Generator: Adobe Illustrator 18.0.0, SVG Export Plug-In . SVG Version: 6.00 Build 0)  -->
<!DOCTYPE svg PUBLIC "-//W3C//DTD SVG 1.1//EN" "http://www.w3.org/Graphics/SVG/1.1/DTD/svg11.dtd">
<svg version="1.1" id="Layer_1" xmlns="http://www.w3.org/2000/svg" xmlns:xlink="http://www.w3.org/1999/xlink" x="0px" y="0px"
	 viewBox="0 0 48 48" enable-background="new 0 0 48 48" xml:space="preserve">
<g>
	<g>
		<path fill="#F7B64C" d="M23.5,22.7c0,0,6.4-0.2,6.8-0.8c0,0,5.9,1.3,8.3-3l-6.5-4.2l-7,0.6l-2.5,2.3L22,21.1L23.5,22.7z"/>
	</g>
	<path fill="#CED6E0" d="M33.1,17.3l-0.1,8l1.1,0.8v5.4l-1.5,3.6l1.6,2.1l-1.6,2.7l1.6,2.7l-1.6,2.1c1.3,1.3,2.1,2.1,3.4,3.4
		c1.5-1.5,2.4-2.4,3.9-3.9V17.3H33.1z"/>
	<path fill="#ADB3BA" d="M37.1,47c0.5-0.5,1-1,1.5-1.5V25.3h-1.5V47z"/>
	<path fill="#CED6E0" d="M36.9,22.3c6.2,0,11.1-5,11.1-11.1S43,0,36.9,0c-6.2,0-11.1,5-11.1,11.1S30.7,22.3,36.9,22.3z M36.9,4.6
		c2.5,0,4.5,1.4,4.5,3.1c0,1.7-2,3.1-4.5,3.1c-2.5,0-4.5-1.4-4.5-3.1C32.3,6,34.3,4.6,36.9,4.6z"/>
	<g>
		<path fill="#ADB3BA" d="M30.6,18.5c0,0,7.5,3.4,10,0s-3.9-6.5-7.7-7c-2.1-0.3-4.3-0.9-7.1-1.4c0,0.3-0.1,0.7-0.1,1.1
			c0,2.9,1.1,5.5,2.9,7.5C29.5,18.6,30.2,18.6,30.6,18.5z"/>
	</g>
	<g>
		<g>
			<g>
				<path fill="#FFD15C" d="M3,40.5c-0.3,2.3,0.4,4.6,2.1,6.1c1.3,1.2,3.2,1.9,5.5,0.3c5-3.4,7.9-4.3,7.9-4.3s9-4.1,3.3-9.2
					c0,0,6.8-1.7,1.9-7.9c0,0,6.7-4.6,1.6-8c0,0,4.2,0.3,5.3,0c0,0,7.5,3.4,10,0c2.5-3.4-3.9-6.5-7.7-7c-3.8-0.6-8-2-15.6-2.2
					C9.6,8.2,5.5,7,1,10.9c0,0-2.2,3.1,0.2,6.2c0,0-2.5,6.9-0.4,10.3c0,0-1,9.9,2.5,11.2L3,40.5z"/>
			</g>
			<g>
				<path fill="#F7B64C" d="M21.2,33.3c-1.1,0-2.4,0.2-3.8,0.5c-1.4,0.3-2.7,0.8-3.6,1.2c-1,0.4-1.6,0.8-1.6,0.8s0.7-0.1,1.7-0.3
					c1-0.2,2.4-0.5,3.7-0.9c0.7-0.2,1.3-0.3,2-0.5c0.6-0.1,1.2-0.3,1.7-0.4c0.2-0.1,0.5-0.1,0.7-0.1c-0.1-0.1-0.1-0.1-0.2-0.2
					c0,0,0.2,0,0.5-0.1C22,33.3,21.6,33.2,21.2,33.3z"/>
				<path fill="#F7B64C" d="M20.5,25.2c-1,0.1-2.1,0.1-3,0.2c-1,0.1-1.9,0.2-2.6,0.3c-0.8,0.1-1.4,0.3-1.9,0.3
					c-0.4,0.1-0.7,0.2-0.7,0.2s0.3,0,0.7,0c0.5,0,1.1,0,1.9,0c1.6,0,3.6-0.1,5.7-0.2c1,0,2.1-0.1,3-0.1c0.1,0,0.3,0,0.4,0
					c-0.1-0.1-0.2-0.2-0.3-0.3c0,0,0.2-0.1,0.4-0.3c-0.2,0-0.4,0-0.6,0C22.6,25.1,21.5,25.1,20.5,25.2z"/>
				<path fill="#F7B64C" d="M19.2,16.6c-2.3,0.1-4.6,0.2-6.3,0.3c-0.9,0-1.6,0.1-2.1,0.1C10.3,17,10,17,10,17s0.3,0,0.8,0.1
					c0.5,0,1.2,0.1,2.1,0.2c0.9,0.1,1.9,0.1,2.9,0.1c0.5,0,1.1,0,1.7,0c0.6,0,1.1,0,1.7-0.1c1.1,0,2.2,0.1,3.3,0.1
					c1.1,0.1,2.1,0.2,2.9,0.3c0.1,0,0.3,0,0.4,0c-0.2-0.1-0.3-0.2-0.5-0.4c0,0,0.4,0,1,0.1c-0.3-0.1-0.5-0.1-0.8-0.2
					C23.8,17,21.5,16.6,19.2,16.6z"/>
			</g>
		</g>
		<g>
			<path fill="#FFFFFF" d="M36.7,13c-0.4,0.8-1.2,2.6-0.5,4.2c0.1,0.1,0.1,0.3,0.3,0.3c0.3,0.2,1.1,0.5,2.8,0.6c1,0.1,1.9-0.6,2-1.5
				c0.3-1.4-0.2-3.2-3.9-4C37.2,12.5,36.8,12.7,36.7,13z"/>
		</g>
	</g>
</g>
</svg>
