<?xml version="1.0" encoding="utf-8"?>
<!-- Generator: Adobe Illustrator 18.0.0, SVG Export Plug-In . SVG Version: 6.00 Build 0)  -->
<!DOCTYPE svg PUBLIC "-//W3C//DTD SVG 1.1//EN" "http://www.w3.org/Graphics/SVG/1.1/DTD/svg11.dtd">
<svg version="1.1" id="Layer_1" xmlns="http://www.w3.org/2000/svg" xmlns:xlink="http://www.w3.org/1999/xlink" x="0px" y="0px"
	 viewBox="0 0 48 48" enable-background="new 0 0 48 48" xml:space="preserve">
<g>
	<g>
		<polygon fill="#435B6C" points="38.6,19.8 38.6,14.4 34.9,14.4 34.9,19.8 29.5,19.8 29.5,23.5 34.9,23.5 34.9,42.6 38.6,42.6 
			38.6,23.5 44,23.5 44,19.8 		"/>
		<g>
			<path fill="#FFD15D" d="M23.1,36.9C14.6,36.9,7.2,41.3,3,48h40.3C39,41.3,31.6,36.9,23.1,36.9z"/>
			<g>
				<path fill="#F3F3F3" d="M19.5,35.8l-1.3-7c-0.1-0.6-0.7-1.1-1.4-1L5.2,30c-0.6,0.1-1.1,0.7-1,1.4l1.3,7c0.7,3.9,8.3,5.7,8.3,5.7
					S20.2,39.7,19.5,35.8z"/>
				<path fill="#E8EAE9" d="M12.7,28.4l-0.5-2.7l-3.4,0.6L9.3,29c0.5,2.7,1.6,5.3,3.1,7.6C13.1,33.8,13.2,31.1,12.7,28.4z"/>
				<rect x="7.1" y="7.1" transform="matrix(0.9838 -0.179 0.179 0.9838 -2.8253 1.8408)" fill="#435B6C" width="3.4" height="19"/>
				<path fill="#67C6B9" d="M12.4,1.3c0-0.4-0.3-0.8-0.6-1C11.5,0,11.1,0,10.7,0L1.2,1.7C0.8,1.8,0.5,2,0.2,2.4C0,2.7,0,3.1,0,3.5
					c0.7,3.2,3,5.5,5.5,6l0.5,2.9l3.7-0.7L9.3,8.8C11.5,7.5,12.8,4.5,12.4,1.3z M7,6.7C5.6,6.9,4.2,5.9,3.4,4.3l6.1-1.1
					C9.3,5,8.3,6.4,7,6.7z"/>
			</g>
			<circle fill="#FFD15D" cx="13.7" cy="42.1" r="3.6"/>
			<g>
				<circle fill="#FFD15D" cx="17.6" cy="41.2" r="2.1"/>
			</g>
			<g>
				<circle fill="#FFD15D" cx="20.4" cy="39.2" r="2.1"/>
			</g>
			<path fill="#FFD15D" d="M5.6,42.6c-3,0-5.5,2.4-5.6,5.4h11.2C11.1,45,8.6,42.6,5.6,42.6z"/>
			<circle fill="#FFD15D" cx="6.9" cy="42.3" r="0.5"/>
			<circle fill="#FFD15D" cx="8.4" cy="41.8" r="0.5"/>
			<circle fill="#FFD15D" cx="4.1" cy="42.7" r="0.6"/>
			<circle fill="#FFD15D" cx="10.2" cy="41.4" r="0.9"/>
			<circle fill="#FFD15D" cx="20.3" cy="36.5" r="0.4"/>
			<circle fill="#FFD15D" cx="18.4" cy="37.4" r="0.6"/>
			<circle fill="#FFD15D" cx="15.7" cy="38.2" r="0.2"/>
		</g>
		<path fill="#FFD15D" d="M36.6,37.3c-6.1,0-11,4.7-11.4,10.7H48C47.6,42,42.7,37.3,36.6,37.3z"/>
	</g>
</g>
</svg>
