<?xml version="1.0" encoding="utf-8"?>
<!-- Generator: Adobe Illustrator 18.0.0, SVG Export Plug-In . SVG Version: 6.00 Build 0)  -->
<!DOCTYPE svg PUBLIC "-//W3C//DTD SVG 1.1//EN" "http://www.w3.org/Graphics/SVG/1.1/DTD/svg11.dtd">
<svg version="1.1" id="Layer_1" xmlns="http://www.w3.org/2000/svg" xmlns:xlink="http://www.w3.org/1999/xlink" x="0px" y="0px"
	 viewBox="0 0 48 48" enable-background="new 0 0 48 48" xml:space="preserve">
<g>
	<g>
		<path fill="#E8EAE9" d="M43.6,7.6L15.1,0.1c-1-0.3-2,0.3-2.3,1.3L3.1,38.1c-0.3,1,0.3,2,1.3,2.3l28.5,7.6c1,0.3,2-0.3,2.3-1.3
			l9.7-36.7C45.2,8.9,44.6,7.9,43.6,7.6z"/>
		<g>
			<path fill="#F3F3F3" d="M38.8,3.1H18.9L7.4,14.7V43c0,1,0.8,1.9,1.9,1.9h29.5c1,0,1.9-0.8,1.9-1.9V5C40.6,4,39.8,3.1,38.8,3.1z"
				/>
			<g>
				<rect x="12" y="37.6" fill="#CED6E0" width="23.9" height="2.6"/>
				<rect x="12" y="30.8" fill="#CED6E0" width="23.9" height="2.6"/>
				<rect x="12" y="24" fill="#CED6E0" width="23.9" height="2.6"/>
				<rect x="12" y="17.3" fill="#CED6E0" width="23.9" height="2.6"/>
				<rect x="22.4" y="10.5" fill="#CED6E0" width="13.5" height="2.6"/>
			</g>
			<polygon fill="#FFD15C" points="18.9,3.1 7.4,14.7 18.9,14.7 			"/>
		</g>
	</g>
</g>
</svg>
