<?xml version="1.0" encoding="utf-8"?>
<!-- Generator: Adobe Illustrator 18.0.0, SVG Export Plug-In . SVG Version: 6.00 Build 0)  -->
<!DOCTYPE svg PUBLIC "-//W3C//DTD SVG 1.1//EN" "http://www.w3.org/Graphics/SVG/1.1/DTD/svg11.dtd">
<svg version="1.1" id="Layer_1" xmlns="http://www.w3.org/2000/svg" xmlns:xlink="http://www.w3.org/1999/xlink" x="0px" y="0px"
	 viewBox="0 0 48 48" enable-background="new 0 0 48 48" xml:space="preserve">
<g>
	<path fill="#FF7058" d="M45.4,27.5c-11.8,5.1-23.6-5.1-35.3,0c0-7.7,0-15.5,0-23.2c11.8-5.1,23.6,5.1,35.3,0
		C45.4,12.1,45.4,19.8,45.4,27.5z"/>
	<path fill="#FF7058" d="M45.4,4.3v23.2c-10.2,4.4-20.5-2.7-30.7-1.3c-1.5,0.2-3.1,0.6-4.6,1.3V4.3c1.6-0.7,3.1-1.1,4.6-1.3
		C24.9,1.6,35.2,8.8,45.4,4.3z"/>
	<path fill="#ACB3BA" d="M17.4,48H2.6v-2.4c0-1.3,1.1-2.4,2.4-2.4H15c1.3,0,2.4,1.1,2.4,2.4V48z"/>
	<path fill="#F1543F" d="M14.7,3v23.2c-1.5,0.2-3.1,0.6-4.6,1.3V4.3C11.6,3.7,13.1,3.2,14.7,3z"/>
	<path fill="#FFD15C" d="M13.2,43.2H6.9v-40C6.9,1.4,8.3,0,10,0h0c1.7,0,3.1,1.4,3.1,3.1L13.2,43.2z"/>
</g>
</svg>
