<?xml version="1.0" encoding="utf-8"?>
<!-- Generator: Adobe Illustrator 18.0.0, SVG Export Plug-In . SVG Version: 6.00 Build 0)  -->
<!DOCTYPE svg PUBLIC "-//W3C//DTD SVG 1.1//EN" "http://www.w3.org/Graphics/SVG/1.1/DTD/svg11.dtd">
<svg version="1.1" id="Layer_1" xmlns="http://www.w3.org/2000/svg" xmlns:xlink="http://www.w3.org/1999/xlink" x="0px" y="0px"
	 viewBox="0 0 48 48" enable-background="new 0 0 48 48" xml:space="preserve">
<g>
	<g>
		<g>
			<g>
				<g>
					<path fill="#415A6B" d="M15.4,22.9V26H8.4v-3.1c0-0.5,0.4-0.9,0.9-0.9h5.3C15,22,15.4,22.4,15.4,22.9z"/>
				</g>
			</g>
			<g>
				<g>
					<circle fill="#FFD15C" cx="11.9" cy="36.1" r="11.9"/>
				</g>
			</g>
			<g>
				<g>
					<circle fill="#FFD15C" cx="11.9" cy="36.1" r="11.9"/>
				</g>
			</g>
			<g>
				<g>
					<circle fill="#FFD15C" cx="11.9" cy="36.1" r="11.9"/>
				</g>
			</g>
			<g>
				<g>
					<path fill="#F7B64C" d="M23.8,36.1c0,6.6-5.3,11.9-11.9,11.9c-1.7,0-3.4-0.4-4.9-1c0.6,0.1,1.2,0.1,1.8,0.1c7.2,0,13-5.8,13-13
						c0-2.4-0.7-4.7-1.8-6.7C22.3,29.6,23.8,32.7,23.8,36.1z"/>
				</g>
			</g>
			<g>
				<path fill="#415A6B" d="M12.1,24.3c-2.7,0-3.6-11.1-3.6-15.2c0-6,1.2-9.1,3.6-9.1c2.4,0,3.6,3.1,3.6,9.1
					C15.7,13.1,14.9,24.3,12.1,24.3z M12.1,1.2c-1.5,0-2.4,2.9-2.4,7.8c0,7.1,1.5,13.6,2.4,14c0.9-0.4,2.3-6.9,2.3-14
					C14.5,4.1,13.7,1.2,12.1,1.2z"/>
			</g>
		</g>
		<g>
			<g>
				<g>
					<g>
						<path fill="#415A6B" d="M39.7,14.8v3.2h-7.1v-3.2c0-0.5,0.4-0.9,0.9-0.9h5.4C39.3,13.9,39.7,14.3,39.7,14.8z"/>
					</g>
				</g>
			</g>
			<g>
				<g>
					<g>
						<g>
							<circle fill="#FFD15C" cx="36.1" cy="28" r="11.9"/>
						</g>
					</g>
				</g>
				<g>
					<g>
						<g>
							<circle fill="#FFD15C" cx="36.1" cy="28" r="11.9"/>
						</g>
					</g>
				</g>
				<g>
					<g>
						<g>
							<circle fill="#F3705A" cx="36.1" cy="28" r="11.9"/>
						</g>
					</g>
				</g>
				<g>
					<g>
						<g>
							<path fill="#F05540" d="M48,28c0,6.6-5.3,11.9-11.9,11.9c-1.7,0-3.4-0.4-4.9-1c0.6,0.1,1.2,0.1,1.8,0.1c7.2,0,13-5.8,13-13
								c0-2.4-0.7-4.7-1.8-6.7C46.5,21.5,48,24.6,48,28z"/>
						</g>
					</g>
				</g>
			</g>
			<g>
				<g>
					<path fill="#415A6B" d="M36.4,16.2c-2.5,0-3.6-6.7-3.6-10.1c0-5,2-6.1,3.6-6.1S40,1.1,40,6.1C40,9.5,38.9,16.2,36.4,16.2z
						 M36.4,1.3c-2,0-2.4,2.6-2.4,4.9c0,4.6,1.5,8.8,2.4,8.8s2.4-4.3,2.4-8.8C38.8,3.9,38.4,1.3,36.4,1.3z"/>
				</g>
			</g>
		</g>
	</g>
</g>
</svg>
