<?xml version="1.0" encoding="utf-8"?>
<!-- Generator: Adobe Illustrator 18.0.0, SVG Export Plug-In . SVG Version: 6.00 Build 0)  -->
<!DOCTYPE svg PUBLIC "-//W3C//DTD SVG 1.1//EN" "http://www.w3.org/Graphics/SVG/1.1/DTD/svg11.dtd">
<svg version="1.1" id="Layer_1" xmlns="http://www.w3.org/2000/svg" xmlns:xlink="http://www.w3.org/1999/xlink" x="0px" y="0px"
	 viewBox="0 0 48 48" enable-background="new 0 0 48 48" xml:space="preserve">
<g>
	<g>
		<g>
			<g>
				<g>
					<g>
						<g>
							<g>
								<g>
									<path fill="#F05540" d="M47.3,34.5l-3.9,1.4c-0.3,0.1-0.6,0-0.7-0.3c-1.8-5.3-3.1-10.2-6.1-15c-2.3-7.2,2.6-11.4,2.6-11.4
										c4,6,6.8,16.8,8.5,24.7C47.8,34.1,47.6,34.4,47.3,34.5z"/>
								</g>
								<g>
									<polygon fill="#415A6B" points="48,36.3 44.1,37.7 43.4,35.9 47.3,34.5 									"/>
								</g>
							</g>
						</g>
						<g>
							<g>
								<path fill="#F3705A" d="M11.3,20.6c0,0,2.8,11.9-1.3,23.7H38c-4.2-11.8-1.3-23.7-1.3-23.7c-2.3-7.2,2.6-11.5,2.6-11.5
									L28.9,6.5h-9.7L8.7,9.1C8.7,9.1,13.7,13.4,11.3,20.6z"/>
							</g>
							<g>
								<g>
									<path fill="#F05540" d="M0.7,34.5l3.9,1.4c0.3,0.1,0.6,0,0.7-0.3c1.8-5.3,3.1-10.2,6.1-15c2.3-7.2-2.6-11.4-2.6-11.4
										c-4,6-6.8,16.8-8.5,24.7C0.2,34.1,0.4,34.4,0.7,34.5z"/>
								</g>
								<g>
									<polygon fill="#415A6B" points="0,36.3 3.9,37.7 4.6,35.9 0.7,34.5 									"/>
								</g>
							</g>
						</g>
					</g>
				</g>
				<g>
					<g>
						<path fill="#415A6B" d="M19.5,6.4l0,0.7C20,8.1,21.8,11,24,11c2.3-0.1,4.1-3.6,4.5-4.6H19.5z"/>
					</g>
					<g>
						<g>
							<path fill="#CED6E0" d="M17.6,7.2l1.7-3c3.1-0.7,6.2-0.7,9.3,0l1.7,3C26.1,6.6,21.9,6.6,17.6,7.2z"/>
						</g>
						<g>
							<g>
								<path fill="#E8EAE9" d="M28.6,4.2c0,0-0.8,5-4.6,6.7l3.5,4.9l3-9L28.6,4.2z"/>
							</g>
							<g>
								<path fill="#E8EAE9" d="M19.4,4.2c0,0,0.8,5,4.6,6.7l-3.5,4.9l-3-9L19.4,4.2z"/>
							</g>
						</g>
					</g>
				</g>
				<g>
					<circle fill="#415A6B" cx="24" cy="15.9" r="0.8"/>
				</g>
				<g>
					<circle fill="#415A6B" cx="24" cy="20" r="0.8"/>
				</g>
			</g>
		</g>
	</g>
	<g>
		<g>
			<path fill="#F05540" d="M47.7,33.8c0,0.3-0.1,0.6-0.4,0.7l-3.9,1.4c-0.3,0.1-0.6,0-0.7-0.3c-1.8-5.3-3.1-10.2-6.1-15
				C36.6,21,33.9,32.7,38,44.3H10c4.1-11.6,1.4-23.3,1.3-23.7c-3,4.8-4.3,9.7-6.1,15c-0.1,0.3-0.4,0.4-0.7,0.3l-3.9-1.4
				c-0.3-0.1-0.4-0.4-0.4-0.7C2,26,4.7,15.1,8.7,9.1v0c0,0,0,0,0,0l10.4-2.6h9.7l10.4,2.6c0,0,0,0,0,0v0C43.3,15.1,46,26,47.7,33.8z
				"/>
		</g>
		<g>
			<path fill="#F05540" d="M47.7,33.8c0,0.3-0.1,0.6-0.4,0.7l-3.9,1.4c-0.3,0.1-0.6,0-0.7-0.3c-1.8-5.3-3.1-10.2-6.1-15
				C36.6,21,33.9,32.7,38,44.3H10c4.1-11.6,1.4-23.3,1.3-23.7c-3,4.8-4.3,9.7-6.1,15c-0.1,0.3-0.4,0.4-0.7,0.3l-3.9-1.4
				c-0.3-0.1-0.4-0.4-0.4-0.7C2,26,4.7,15.1,8.7,9.1v0c0,0,0,0,0,0l10.4-2.6h9.7l10.4,2.6c0,0,0,0,0,0v0C43.3,15.1,46,26,47.7,33.8z
				"/>
		</g>
		<g>
			<g>
				<g>
					<g>
						<g>
							<g>
								<path fill="#F05540" d="M47.3,34.5l-3.9,1.4c-0.3,0.1-0.6,0-0.7-0.3c-1.8-5.3-3.1-10.2-6.1-15c-2.3-7.2,2.6-11.4,2.6-11.4
									c4,6,6.8,16.8,8.5,24.7C47.8,34.1,47.6,34.4,47.3,34.5z"/>
							</g>
							<g>
								<polygon fill="#415A6B" points="48,36.3 44.1,37.7 43.4,35.9 47.3,34.5 								"/>
							</g>
						</g>
					</g>
					<g>
						<g>
							<path fill="#F3705A" d="M11.3,20.6c0,0,2.8,11.9-1.3,23.7H38c-4.2-11.8-1.3-23.7-1.3-23.7c-2.3-7.2,2.6-11.5,2.6-11.5
								L28.9,6.5h-9.7L8.7,9.1C8.7,9.1,13.7,13.4,11.3,20.6z"/>
						</g>
						<g>
							<g>
								<path fill="#F05540" d="M0.7,34.5l3.9,1.4c0.3,0.1,0.6,0,0.7-0.3c1.8-5.3,3.1-10.2,6.1-15c2.3-7.2-2.6-11.4-2.6-11.4
									c-4,6-6.8,16.8-8.5,24.7C0.2,34.1,0.4,34.4,0.7,34.5z"/>
							</g>
							<g>
								<polygon fill="#415A6B" points="0,36.3 3.9,37.7 4.6,35.9 0.7,34.5 								"/>
							</g>
						</g>
					</g>
				</g>
			</g>
			<g>
				<g>
					<path fill="#415A6B" d="M19.5,6.4l0,0.7C20,8.1,21.8,11,24,11c2.3-0.1,4.1-3.6,4.5-4.6H19.5z"/>
				</g>
				<g>
					<g>
						<path fill="#CED6E0" d="M17.6,7.2l1.7-3c3.1-0.7,6.2-0.7,9.3,0l1.7,3C26.1,6.6,21.9,6.6,17.6,7.2z"/>
					</g>
					<g>
						<g>
							<path fill="#E8EAE9" d="M28.6,4.2c0,0-0.8,5-4.6,6.7l3.5,4.9l3-9L28.6,4.2z"/>
						</g>
						<g>
							<path fill="#E8EAE9" d="M19.4,4.2c0,0,0.8,5,4.6,6.7l-3.5,4.9l-3-9L19.4,4.2z"/>
						</g>
					</g>
				</g>
			</g>
			<g>
				<circle fill="#415A6B" cx="24" cy="15.9" r="0.8"/>
			</g>
			<g>
				<circle fill="#415A6B" cx="24" cy="20" r="0.8"/>
			</g>
		</g>
	</g>
</g>
</svg>
