<?xml version="1.0" encoding="utf-8"?>
<!-- Generator: Adobe Illustrator 18.0.0, SVG Export Plug-In . SVG Version: 6.00 Build 0)  -->
<!DOCTYPE svg PUBLIC "-//W3C//DTD SVG 1.1//EN" "http://www.w3.org/Graphics/SVG/1.1/DTD/svg11.dtd">
<svg version="1.1" id="Layer_1" xmlns="http://www.w3.org/2000/svg" xmlns:xlink="http://www.w3.org/1999/xlink" x="0px" y="0px"
	 viewBox="0 0 48 48" enable-background="new 0 0 48 48" xml:space="preserve">
<g>
	<rect x="9.3" y="15.7" fill="#F8B64C" width="29.4" height="5.7"/>
	<path fill="#FFD15C" d="M24,10.8c-1.6,0-2.8,1.3-2.8,2.8v27h5.7v-27C26.8,12.1,25.6,10.8,24,10.8z"/>
	<path fill="#40596B" d="M11.1,48v-1.8c0-3.1,2.5-5.6,5.6-5.6h14.6c3.1,0,5.6,2.5,5.6,5.6V48H11.1z"/>
	<path fill="#F2F2F2" d="M17.8,4.2v23.9c0,4.3-3.5,7.8-7.8,7.8c-4.3,0-7.8-3.5-7.8-7.8V4.2H17.8z"/>
	<path fill="#CDD6E0" d="M17.9,0H2.1C0.9,0,0,0.9,0,2.1s0.9,2.1,2.1,2.1h15.8c1.2,0,2.1-0.9,2.1-2.1S19.1,0,17.9,0z"/>
	<path fill="#F2F2F2" d="M45.8,4.2v23.9c0,4.3-3.5,7.8-7.8,7.8c-4.3,0-7.8-3.5-7.8-7.8V4.2H45.8z"/>
	<path fill="#84DBFF" d="M2.2,9.4v18.7c0,4.3,3.5,7.8,7.8,7.8c4.3,0,7.8-3.5,7.8-7.8V9.4H2.2z"/>
	<path fill="#FF7058" d="M30.2,15v13.1c0,4.3,3.5,7.8,7.8,7.8c4.3,0,7.8-3.5,7.8-7.8V15H30.2z"/>
	<path fill="#CDD6E0" d="M45.9,0H30.1C28.9,0,28,0.9,28,2.1s0.9,2.1,2.1,2.1h15.8c1.2,0,2.1-0.9,2.1-2.1S47.1,0,45.9,0z"/>
	<rect x="2.2" y="4.2" fill="#E4EAEF" width="15.6" height="1.5"/>
	<rect x="30.2" y="4.2" fill="#E4EAEF" width="15.6" height="1.5"/>
	<circle fill="#FF7058" cx="24" cy="18.6" r="2.2"/>
	<circle fill="#FFFFFF" cx="24" cy="18.6" r="1.2"/>
	<g>
		<rect x="3.2" y="7.1" fill="#FFFFFF" width="3.1" height="0.5"/>
		<rect x="3.2" y="10.4" fill="#FFFFFF" width="2" height="0.5"/>
		<rect x="3.2" y="13.8" fill="#FFFFFF" width="3.1" height="0.5"/>
		<rect x="3.2" y="17.2" fill="#FFFFFF" width="2" height="0.5"/>
		<rect x="3.2" y="20.5" fill="#FFFFFF" width="3.1" height="0.5"/>
		<rect x="3.2" y="23.9" fill="#FFFFFF" width="2" height="0.5"/>
		<rect x="3.2" y="27.3" fill="#FFFFFF" width="3.1" height="0.5"/>
	</g>
	<g>
		<rect x="31.2" y="7.1" fill="#FFFFFF" width="3.1" height="0.5"/>
		<rect x="31.2" y="10.4" fill="#FFFFFF" width="2" height="0.5"/>
		<rect x="31.2" y="13.8" fill="#FFFFFF" width="3.1" height="0.5"/>
		<rect x="31.2" y="17.2" fill="#FFFFFF" width="2" height="0.5"/>
		<rect x="31.2" y="20.5" fill="#FFFFFF" width="3.1" height="0.5"/>
		<rect x="31.2" y="23.9" fill="#FFFFFF" width="2" height="0.5"/>
		<rect x="31.2" y="27.3" fill="#FFFFFF" width="3.1" height="0.5"/>
	</g>
</g>
</svg>
