<?xml version="1.0" encoding="utf-8"?>
<!-- Generator: Adobe Illustrator 18.0.0, SVG Export Plug-In . SVG Version: 6.00 Build 0)  -->
<!DOCTYPE svg PUBLIC "-//W3C//DTD SVG 1.1//EN" "http://www.w3.org/Graphics/SVG/1.1/DTD/svg11.dtd">
<svg version="1.1" id="Layer_1" xmlns="http://www.w3.org/2000/svg" xmlns:xlink="http://www.w3.org/1999/xlink" x="0px" y="0px"
	 viewBox="0 0 48 48" enable-background="new 0 0 48 48" xml:space="preserve">
<g>
	<rect x="21.2" y="15.2" fill="#E8EAEA" width="5.7" height="5"/>
	<path fill="#F2F2F2" d="M39.4,27c0,2.5-1.7,5-4,7.3c-3.2,3.1-8.6,0.9-8.6-3.6V11.4h-5.6v19.4c0,4.5-5.4,6.8-8.6,3.6
		c-0.1-0.1-0.1-0.1-0.2-0.2c0,0,0,0,0,0v0c-2.2-2.2-3.7-4.7-3.7-7.1H3.3c0,11.4,17.6,19.6,19.6,20.5L24,48l1.1-0.5
		c2-0.9,19.6-9.1,19.6-20.5H39.4z"/>
	<path fill="#E8EAEA" d="M44.7,27h-5.3c0,0.8-0.2,1.7-0.5,2.5h5.5C44.6,28.7,44.7,27.9,44.7,27z"/>
	<path fill="#E8EAEA" d="M8.6,27H3.3c0,0.9,0.1,1.7,0.3,2.5h5.5C8.8,28.7,8.6,27.9,8.6,27z"/>
	<polygon fill="#F2F2F2" points="42.1,20.1 42.1,20.1 36.1,27 48,27 	"/>
	<polygon fill="#F2F2F2" points="5.9,20.1 5.9,20.1 0,27 11.9,27 	"/>
	<path fill="#E8EAEA" d="M24,14.4c-4,0-7.2-3.2-7.2-7.2C16.8,3.2,20,0,24,0s7.2,3.2,7.2,7.2C31.2,11.2,28,14.4,24,14.4z M24,4.6
		c-1.5,0-2.6,1.2-2.6,2.6s1.2,2.6,2.6,2.6s2.6-1.2,2.6-2.6S25.5,4.6,24,4.6z"/>
	<rect x="17.5" y="13.2" fill="#F2F2F2" width="12.9" height="5"/>
</g>
</svg>
