<?xml version="1.0" encoding="utf-8"?>
<!-- Generator: Adobe Illustrator 18.0.0, SVG Export Plug-In . SVG Version: 6.00 Build 0)  -->
<!DOCTYPE svg PUBLIC "-//W3C//DTD SVG 1.1//EN" "http://www.w3.org/Graphics/SVG/1.1/DTD/svg11.dtd">
<svg version="1.1" id="Layer_1" xmlns="http://www.w3.org/2000/svg" xmlns:xlink="http://www.w3.org/1999/xlink" x="0px" y="0px"
	 viewBox="0 0 48 48" enable-background="new 0 0 48 48" xml:space="preserve">
<g>
	<g>
		<g>
			<path fill="#FFD15C" d="M31,12.9c0.6,5.2-1.4,9.9-5,13c-3.2,2.8-5.2,6.7-5.2,11V37h-8.9v-0.1c0-4.1-1.7-8.1-4.9-10.7
				c-3.3-2.7-5.4-6.8-5.4-11.5C1.6,6,9.2-0.9,18.1,0.1C24.8,0.9,30.2,6.2,31,12.9z"/>
		</g>
		<g>
			<g>
				<path fill="#F3705A" d="M11.5,16.3c0.6,0.5,1.4,0.7,2.3,0.8c0.2,4.4,0.1,11.2-0.5,15.3h1.3c0.6-4.4,0.7-11.1,0.5-15.3h2.6
					c-0.2,4.2-0.1,11,0.5,15.3h1.3c-0.6-4.1-0.7-11-0.5-15.3c0.9,0,1.7-0.3,2.3-0.8c0.8-0.6,1.3-1.6,1.1-2.6
					c-0.2-1.1-1.2-1.9-2.2-1.9c-0.7,0.1-1.4,0.6-1.8,1.3c-0.3,0.6-0.4,1.3-0.5,1.9c0,0.2,0,0.4,0,0.7H15c0-0.2,0-0.5,0-0.7
					c-0.1-0.6-0.1-1.3-0.5-1.9c-0.4-0.8-1.1-1.3-1.8-1.3c-1-0.1-2.1,0.8-2.2,1.9C10.3,14.6,10.7,15.6,11.5,16.3z M19,15.2
					c0-0.5,0.1-1,0.3-1.5c0.2-0.4,0.5-0.6,0.8-0.7c0,0,0,0,0,0c0.4,0,0.8,0.4,0.8,0.8c0.1,0.5-0.2,1-0.6,1.4c-0.4,0.3-1,0.5-1.4,0.5
					C19,15.6,19,15.4,19,15.2z M12.5,13.1C12.5,13.1,12.5,13.1,12.5,13.1c0.4,0,0.7,0.3,0.9,0.7c0.2,0.4,0.3,1,0.3,1.5
					c0,0.2,0,0.4,0,0.6c-0.5,0-1-0.2-1.4-0.5c-0.5-0.3-0.7-0.9-0.6-1.4C11.7,13.5,12.1,13.1,12.5,13.1z"/>
			</g>
		</g>
		<g>
			<g>
				<rect x="10.5" y="34.6" fill="#415A6B" width="12" height="6.6"/>
			</g>
		</g>
		<g>
			<g>
				<path fill="#344A5E" d="M48,48L48,48c0-3.7-3-6.7-6.7-6.7H6.7C3,41.3,0,44.3,0,48v0H48z"/>
			</g>
		</g>
		<g>
			<g>
				<path fill="#344A5E" d="M22.5,31.6H10.2c-1.3,0-2.4,1.1-2.4,2.4c0,1.3,1.1,2.4,2.4,2.4h12.3c1.3,0,2.4-1.1,2.4-2.4
					C24.9,32.7,23.8,31.6,22.5,31.6z"/>
			</g>
		</g>
		<g>
			<g>
				<rect x="30.6" y="38" fill="#F3705A" width="6.3" height="3.3"/>
			</g>
		</g>
	</g>
</g>
</svg>
