<?xml version="1.0" encoding="utf-8"?>
<!-- Generator: Adobe Illustrator 16.0.0, SVG Export Plug-In . SVG Version: 6.00 Build 0)  -->
<!DOCTYPE svg PUBLIC "-//W3C//DTD SVG 1.1//EN" "http://www.w3.org/Graphics/SVG/1.1/DTD/svg11.dtd">
<svg version="1.1" id="Layer_1" xmlns="http://www.w3.org/2000/svg" xmlns:xlink="http://www.w3.org/1999/xlink" x="0px" y="0px"
	 width="48px" height="48px" viewBox="0 0 48 48" enable-background="new 0 0 48 48" xml:space="preserve">
<g>
	<path fill="#FFD15C" d="M12.326,15.683c0,2.045-1.656,3.703-3.701,3.703s-3.703-1.658-3.703-3.703s1.658-3.701,3.703-3.701
		S12.326,13.638,12.326,15.683"/>
	<path fill="#FFD15C" d="M19.707,12.542c0,2.6-2.107,4.707-4.707,4.707s-4.707-2.107-4.707-4.707c0-2.598,2.107-4.707,4.707-4.707
		S19.707,9.944,19.707,12.542"/>
	<path fill="#FFD15C" d="M28.119,10.261c0,3.859-3.129,6.988-6.988,6.988s-6.988-3.129-6.988-6.988s3.129-6.988,6.988-6.988
		S28.119,6.401,28.119,10.261"/>
	<path fill="#FFD15C" d="M33.439,12.542c0,2.6-2.107,4.707-4.707,4.707s-4.707-2.107-4.707-4.707c0-2.598,2.107-4.707,4.707-4.707
		S33.439,9.944,33.439,12.542"/>
	<path fill="#FFD15C" d="M43.078,14.499c0,3.42-2.773,6.191-6.193,6.191c-3.418,0-6.191-2.771-6.191-6.191s2.773-6.191,6.191-6.191
		C40.305,8.308,43.078,11.079,43.078,14.499"/>
	<polygon fill="#55C0EB" points="45.736,15.683 2.264,15.683 6.246,37.495 41.754,37.495 	"/>
	<path fill="#8AD7F8" d="M45.736,17.946H2.264C1.014,17.946,0,16.933,0,15.683s1.014-2.264,2.264-2.264h43.473
		c1.25,0,2.264,1.014,2.264,2.264S46.986,17.946,45.736,17.946"/>
	<path fill="#8AD7F8" d="M42.277,39.761H5.723c-1.252,0-2.266-1.014-2.266-2.264c0-1.252,1.014-2.264,2.266-2.264h36.555
		c1.25,0,2.264,1.012,2.264,2.264C44.541,38.747,43.527,39.761,42.277,39.761"/>
	<path fill="#40596B" d="M19.055,38.722c0,3.316-2.689,6.006-6.006,6.006c-3.318,0-6.008-2.689-6.008-6.006s2.689-6.006,6.008-6.006
		C16.365,32.716,19.055,35.405,19.055,38.722"/>
	<path fill="#FFFFFF" d="M15.863,38.722c0,1.555-1.26,2.816-2.816,2.816c-1.555,0-2.814-1.262-2.814-2.816s1.26-2.816,2.814-2.816
		C14.604,35.905,15.863,37.167,15.863,38.722"/>
	<path fill="#40596B" d="M40.957,38.722c0,3.316-2.688,6.006-6.006,6.006c-3.316,0-6.006-2.689-6.006-6.006s2.689-6.006,6.006-6.006
		C38.27,32.716,40.957,35.405,40.957,38.722"/>
	<path fill="#FFFFFF" d="M37.768,38.722c0,1.555-1.262,2.816-2.816,2.816s-2.814-1.262-2.814-2.816s1.26-2.816,2.814-2.816
		S37.768,37.167,37.768,38.722"/>
</g>
</svg>
