<?xml version="1.0" encoding="utf-8"?>
<!-- Generator: Adobe Illustrator 18.0.0, SVG Export Plug-In . SVG Version: 6.00 Build 0)  -->
<!DOCTYPE svg PUBLIC "-//W3C//DTD SVG 1.1//EN" "http://www.w3.org/Graphics/SVG/1.1/DTD/svg11.dtd">
<svg version="1.1" id="Layer_1" xmlns="http://www.w3.org/2000/svg" xmlns:xlink="http://www.w3.org/1999/xlink" x="0px" y="0px"
	 viewBox="0 0 48 48" enable-background="new 0 0 48 48" xml:space="preserve">
<g>
	<g>
		<polygon fill="#ACB3BA" points="22,10.9 34,25 34,39.6 36,39.6 36,24.3 24.6,10.9 		"/>
		<polygon fill="#ACB3BA" points="26.7,7.3 26.7,10.3 37.3,22.5 37.3,39.6 39.2,39.6 39.2,21.8 		"/>
		<g>
			<path fill="#FF7058" d="M23.9,16.7L13,5.9l3.6-3.6c3-3,7.8-3,10.8,0l0,0c3,3,3,7.8,0,10.8L23.9,16.7z"/>
			<path fill="#FF7058" d="M22.3,7.4c-5.9-5.9-15.4-5.9-21.2,0l21.2,21.2C28.2,22.8,28.2,13.3,22.3,7.4z"/>
			<path fill="#FFD15C" d="M5.6,24.1c4.5,4.5,11.7,4.5,16.1,0L5.6,8C1.2,12.4,1.2,19.6,5.6,24.1z"/>
			<path fill="#40596B" d="M3.3,5.6C2.5,6.1,1.8,6.7,1.1,7.4l21.2,21.2c0.7-0.7,1.3-1.4,1.8-2.2L3.3,5.6z"/>
			<path opacity="0.1" fill="#231F20" d="M18.3,26.5c0.4-0.2,0.8-0.4,1.2-0.6L3.9,10.2c-0.2,0.4-0.5,0.8-0.6,1.2L18.3,26.5z"/>
		</g>
		<rect x="20.2" y="45" fill="#FF7058" width="26.7" height="2.9"/>
		<path fill="#CDD6E0" d="M41.5,39.6H25.7c-3,0-5.5,2.4-5.5,5.5h26.7C46.9,42,44.5,39.6,41.5,39.6z"/>
		<g>
			<path opacity="0.1" fill="#231F20" d="M36,26.5h-2v2.9c0.6,0.3,1.3,0.5,2,0.5V26.5z"/>
			<path opacity="0.1" fill="#231F20" d="M37.3,26.5V30c0.7-0.1,1.3-0.3,2-0.5v-2.9H37.3z"/>
		</g>
		<circle fill="#40596B" cx="36.6" cy="23.6" r="5.1"/>
		<circle fill="#FFD15C" cx="36.6" cy="23.6" r="2.3"/>
	</g>
	<path fill="#F2F2F2" d="M30.5,39.6h-3.8V39c0-0.5,0.4-0.9,0.9-0.9h2c0.5,0,0.9,0.4,0.9,0.9V39.6z"/>
</g>
</svg>
