<?xml version="1.0" encoding="utf-8"?>
<!-- Generator: Adobe Illustrator 18.0.0, SVG Export Plug-In . SVG Version: 6.00 Build 0)  -->
<!DOCTYPE svg PUBLIC "-//W3C//DTD SVG 1.1//EN" "http://www.w3.org/Graphics/SVG/1.1/DTD/svg11.dtd">
<svg version="1.1" id="Layer_1" xmlns="http://www.w3.org/2000/svg" xmlns:xlink="http://www.w3.org/1999/xlink" x="0px" y="0px"
	 viewBox="0 0 48 48" enable-background="new 0 0 48 48" xml:space="preserve">
<g>
	<g>
		<path fill="#E8EAE9" d="M44.8,0H3.2C1.5,0,0,1.5,0,3.2v41.6C0,46.6,1.5,48,3.2,48h41.6c1.8,0,3.2-1.4,3.2-3.2V3.2
			C48,1.5,46.6,0,44.8,0z"/>
		<g>
			<g>
				<rect x="4.3" y="4.3" fill="#67C6B9" width="39.4" height="39.4"/>
			</g>
		</g>
		<path fill="#FFFFFF" d="M43.7,12.5c-2.2,0.7-4.1,1.6-5.7,2.7c-4.4-2.2-9.1-3.6-13.6-4.4l1.3-6.4h-2.2l-1.2,6.1
			C15,9.2,8.4,9.5,4.3,9.9v1.1c4.1-0.4,10.6-0.6,17.8,0.5l-3.8,18.8l2.7,9L8.2,33.1c4.9-3,8.2-7.5,9.4-12.8c0.2-1.1,0.3-1.8,0.3-1.8
			l-2.1-0.3c0,0-0.1,0.7-0.3,1.7c-1.1,5.1-4.6,9.5-9.7,12.1l-1.5-0.7v1.2l0.3,0.1c-0.1,0.1-0.2,0.1-0.3,0.2v2.5
			c0.5-0.4,1.1-0.8,1.8-1.1c0.3-0.2,0.6-0.3,1-0.5l14.5,6.9l0.9,3.1h2.2l-0.6-1.9l3.9,1.9h2.5l-6.8-3.2l-3.1-10.4l3.7-18.3
			c4.2,0.8,8.6,2.1,12.7,4.1c-5.9,4.3-7.5,9.8-7.6,10.1l2.1,0.5c0-0.1,1.5-5.5,7.7-9.5c1.5,0.9,3.1,1.8,4.5,2.9v-1.3
			c-1.1-0.8-2.3-1.6-3.4-2.3c1-0.6,2.2-1.1,3.4-1.6V12.5z"/>
		<g>
			<path fill="#FFFFFF" d="M22.3,6.8l-0.5,2.7c-1.1-0.1-2.2-0.3-3.5-0.4c0,0,0,0.1-0.1,0.1c-0.4,0.7-0.8,1.5-1,2.4
				c1.4,0.1,2.8,0.3,4.1,0.4l-1.1,5.3c-1.3-0.9-2.2-2-2.8-3.4c-0.2-0.4-0.3-0.9-0.4-1.5c-0.3,1.2-0.4,2.5-0.5,3.5c0,0,0,0.1,0,0.1
				c0.1,0.3,0.2,0.6,0.2,1c0.1,0.9,0.3,1.6,0.6,2.3c0.2,0.3,0.3,0.5,0.5,0.8c2.3,3,7.6,3.5,11.7,1.8c-1.8-1.2-3.8-2.2-5.8-2.9
				c0,0-0.1,0-0.1,0l1.3-6.4c3.5,0.7,6.8,1.7,9.9,3c0.1-0.8,0-1.6-0.2-2.5c0-0.1,0-0.3-0.1-0.4c-2.9-1.1-5.9-2-9.1-2.7l0.9-4.3
				C24.5,5.9,23.2,6.3,22.3,6.8z"/>
		</g>
		<g>
			<path fill="#FFFFFF" d="M9.2,4.3c-0.8,3.3-1.4,8.2,0.5,12.8c1.9,4.5,5.6,7.8,11.2,9.7c8.3,2.9,12,10.7,13.6,16.8h7.8
				c-1.7-8-6.3-19.5-18.8-23.9c-3.5-1.2-5.6-3-6.7-5.5c-1.6-3.8-0.3-8.3,0.3-10H9.2z"/>
			<g>
				<path fill="#435B6C" d="M14,18.3l0.9-0.6c-0.8-1.1-1.4-2.3-1.7-3.7l-1,0.3C12.5,15.7,13.2,17.1,14,18.3z"/>
				<path fill="#435B6C" d="M12,6.5c-0.2,1.3-0.4,2.5-0.4,3.7c0,0.2,0,0.5,0,0.7l1.1,0c0-0.2,0-0.5,0-0.7c0-1.1,0.1-2.3,0.3-3.5
					L12,6.5z"/>
				<path fill="#435B6C" d="M32.9,30.6c-0.9-1.2-1.9-2.3-3-3.2l-0.7,0.8c1,0.9,2,1.9,2.9,3.1L32.9,30.6z"/>
				<path fill="#435B6C" d="M37.9,40.2l-1,0.3c0.3,1,0.6,2.1,0.9,3.1h1.1C38.6,42.5,38.3,41.3,37.9,40.2z"/>
				<path fill="#435B6C" d="M34.8,33.3l-0.9,0.6c0.7,1.2,1.3,2.4,1.9,3.8l1-0.4C36.2,35.8,35.5,34.5,34.8,33.3z"/>
			</g>
		</g>
		<g>
			<g>
				<g>
					
						<rect x="30.5" y="21.4" transform="matrix(0.8108 -0.5854 0.5854 0.8108 -7.9021 23.6177)" fill="#354B5E" width="4.1" height="5.4"/>
					<path fill="#435B6C" d="M34.5,8.1C31,3.3,24.2,2.2,19.3,5.7c-4.8,3.5-5.9,10.3-2.4,15.1c3.5,4.9,10.3,5.9,15.1,2.4
						C36.9,19.8,38,13,34.5,8.1z M30,20.5c-3.3,2.4-8,1.7-10.4-1.7c-2.4-3.3-1.7-8,1.7-10.4c3.3-2.4,8-1.7,10.4,1.7
						C34.1,13.5,33.4,18.1,30,20.5z"/>
				</g>
				<path fill="#F15741" d="M40.1,28.9l-3.5-4.9c-0.3-0.4-0.8-0.5-1.2-0.2l-3.7,2.7c-0.4,0.3-0.5,0.8-0.2,1.2l3.5,4.9
					c1,1.4,3,1.8,4.5,0.7C40.8,32.4,41.1,30.4,40.1,28.9z"/>
				<path fill="#F3705B" d="M37.3,23.4c-0.4-0.5-1-0.6-1.5-0.3l-5.1,3.7c-0.5,0.3-0.5,1-0.2,1.5c0.4,0.5,1,0.6,1.5,0.3l5.1-3.7
					C37.6,24.6,37.7,23.9,37.3,23.4z"/>
			</g>
		</g>
	</g>
</g>
</svg>
