<?xml version="1.0" encoding="utf-8"?>
<!-- Generator: Adobe Illustrator 16.0.0, SVG Export Plug-In . SVG Version: 6.00 Build 0)  -->
<!DOCTYPE svg PUBLIC "-//W3C//DTD SVG 1.1//EN" "http://www.w3.org/Graphics/SVG/1.1/DTD/svg11.dtd">
<svg version="1.1" id="Layer_1" xmlns="http://www.w3.org/2000/svg" xmlns:xlink="http://www.w3.org/1999/xlink" x="0px" y="0px"
	 width="48px" height="48px" viewBox="0 0 48 48" enable-background="new 0 0 48 48" xml:space="preserve">
<g>
	<path fill="#F96450" d="M47.006,19.268c0.77-1.365-0.217-3.053-1.783-3.053H20.129c-1.129,0-2.047,0.916-2.047,2.047v23.477
		c0,1.131,0.918,2.047,2.047,2.047h24.662c1.656,0,2.627-1.865,1.676-3.223l-5.617-8.006c-0.453-0.645-0.494-1.494-0.107-2.18
		L47.006,19.268z"/>
	<path fill="#F1543F" d="M24.713,36.387l-0.17-2.525h-6.461v7.877c0,0.561,0.227,1.066,0.59,1.436L24.713,36.387z"/>
	<path fill="#FF7058" d="M23.248,9.436H6.773c-1.131,0-2.047,0.916-2.047,2.047v23.477c0,1.131,0.916,2.047,2.047,2.047h16.475
		c1.129,0,2.047-0.916,2.047-2.047V11.482C25.295,10.352,24.377,9.436,23.248,9.436"/>
	<rect x="2.447" y="6.211" fill="#F2F2F2" width="4.561" height="41.789"/>
	<path fill="#FFD15C" d="M8.727,4c0,2.209-1.791,4-4,4s-4-1.791-4-4s1.791-4,4-4S8.727,1.791,8.727,4"/>
</g>
</svg>
