<?xml version="1.0" encoding="utf-8"?>
<!-- Generator: Adobe Illustrator 18.0.0, SVG Export Plug-In . SVG Version: 6.00 Build 0)  -->
<!DOCTYPE svg PUBLIC "-//W3C//DTD SVG 1.1//EN" "http://www.w3.org/Graphics/SVG/1.1/DTD/svg11.dtd">
<svg version="1.1" id="Layer_1" xmlns="http://www.w3.org/2000/svg" xmlns:xlink="http://www.w3.org/1999/xlink" x="0px" y="0px"
	 viewBox="0 0 48 48" enable-background="new 0 0 48 48" xml:space="preserve">
<g>
	<g>
		<g>
			<path fill="#E8EAE9" d="M48,33.1v10.4c0,2.5-2,4.5-4.5,4.5h-39C2,48,0,46,0,43.5V2c0-1.1,0.9-2,2-2h35c1.1,0,2,0.9,2,2v31.1H48z"
				/>
		</g>
	</g>
	<g>
		<g>
			<path fill="#CED6E0" d="M39,33.1v10.4c0,2.5,2,4.5,4.5,4.5l0,0c2.5,0,4.5-2,4.5-4.5V33.1H39z"/>
		</g>
	</g>
	<path fill="#415A6B" d="M35,3.3H4C3.6,3.3,3.2,3.6,3.2,4v40c0,0.4,0.3,0.8,0.8,0.8h31c0.4,0,0.8-0.3,0.8-0.8V4
		C35.7,3.6,35.4,3.3,35,3.3z M4.7,4.8h7V15h-7V4.8z M34.2,29.6H22.7v1.5h11.6v12.1h-7.5v-5.3h2.5v-1.5h-6.5v1.5h2.5v5.3h-7.8v-5.8
		l3.6-3.6l-1.1-1.1l-4,4v6.4H4.7v-9.4h5.5l3.7-5.4l-1.2-0.9l-3.3,4.7H4.7v-7.6h12.6V19h-1.5v4.2H4.7v-6.8h8.5v-3.2h3.3v-1.5h-3.3v-7
		h9.4v15h3.5v5h1.5v-5h2.8v-1.5h-6.3V4.8h10.1V29.6z"/>
</g>
</svg>
