<?xml version="1.0" encoding="utf-8"?>
<!-- Generator: Adobe Illustrator 18.0.0, SVG Export Plug-In . SVG Version: 6.00 Build 0)  -->
<!DOCTYPE svg PUBLIC "-//W3C//DTD SVG 1.1//EN" "http://www.w3.org/Graphics/SVG/1.1/DTD/svg11.dtd">
<svg version="1.1" id="Layer_1" xmlns="http://www.w3.org/2000/svg" xmlns:xlink="http://www.w3.org/1999/xlink" x="0px" y="0px"
	 viewBox="0 0 48 48" enable-background="new 0 0 48 48" xml:space="preserve">
<g>
	<g>
		<g>
			<g>
				<path fill="#F3705A" d="M1.2,21.2c0.2-0.7,0.7-1.4,2-1.3c0.4,0,0.7,0.2,1,0.3c1.7,1,8.2,4.9,9.6,5.1c0,0-0.6-0.6-1.9-1.4
					c-1.3-0.8-10.1-6.6-11.6-8.3C-1,14,1,11.6,2.3,12c0,0,13.6,7.8,14.4,7.8c0,0-5.7-5.1-7.3-7.3c0,0-1.9-1.8-3.5-3.2
					C5,8.6,4.4,7.5,4.5,6.3c0.1-1,0.6-2,2.3-2c1,0,1.9,0.4,2.7,1.1c1.6,1.6,5.1,5,6.2,5.9c1.4,1.2,5.1,3.7,5.1,3.7L14.3,4.9
					c-0.7-1.2-0.9-2.7-0.2-3.9c0.5-1,1.5-1.6,3.3-0.2C17.7,1,18,1.3,18.3,1.6c1.7,2.3,9.5,12.9,9.9,13.7c0.5,1,2.3,2.5,2.3,2.5
					s-0.4-3.4-0.8-4.9c-0.4-1.5-1.9-8.3,2.2-8.8c0,0,2.7-0.6,3.1,6.6c0,0,0.7,4.2,1.9,6.4c1.2,2.2,2.2,6.8,1.7,9.8
					c0,0,3.4,1.7,4.3,2.8c1.8,2.4,4.7,4.4,4.7,4.4c-4.7,3.9-8.7,8.4-12.2,13.5c0,0-3.9-1.7-6.9-6.6c0,0-10-4.3-13.2-8.9
					c0,0-4.3-1.8-6-3.3c-0.8-0.7-2.1-1.6-3.3-2.4c-1.3-0.8-2.6-1.7-3.7-2.7C1.3,23.1,1,22.1,1.2,21.2z"/>
				<path fill="#E8EAE9" d="M32.7,46c1.5,1.1,2.9,2,2.9,2c5.2-3.6,9.5-8.2,12.4-13.8c0,0-1.6-0.9-2.8-2C42.2,37.1,37.9,41.7,32.7,46
					z"/>
			</g>
			<g>
				<g>
					<path fill="#F3F3F3" d="M37.4,37c-0.2,0.2-0.4,0.5-0.5,0.7c-1.2-0.9-2.3-1.7-3.5-2.6c0.2-0.2,0.3-0.4,0.5-0.6
						C35,35.3,36.2,36.1,37.4,37z"/>
				</g>
				<path fill="#415A6B" d="M38.6,26.9C38.6,26.7,38.5,27,38.6,26.9c-1.8,5.8-5.4,10.5-10.3,14.1c0.1,0,0.1,0.1,0.1,0.1
					c0.5,0.9,1.1,1.7,1.7,2.3c5.2-3.8,9.1-9,11.2-15C40,27.5,38.6,26.9,38.6,26.9z"/>
				<g>
					<path fill="#F3F3F3" d="M38.8,35.7C37.9,37,37,38.2,36,39.3c-0.4,0.4-1,0.5-1.4,0.2c-0.8-0.8-1.7-1.5-2.5-2.3
						c-0.4-0.3-0.4-0.9,0-1.2c0.9-1,1.7-2,2.4-3.1c0.3-0.4,0.8-0.6,1.2-0.3c1,0.6,1.9,1.1,2.9,1.7C39,34.6,39.1,35.2,38.8,35.7z
						 M32.7,36.5c0,0.1,0,0.1,0,0.2c0.9,0.7,1.7,1.5,2.6,2.2c0.1,0,0.1,0,0.2,0c1-1.1,1.9-2.3,2.7-3.6c0-0.1,0-0.2,0-0.2
						c-1-0.6-1.9-1.2-2.9-1.8c-0.1,0-0.1,0-0.2,0C34.3,34.5,33.5,35.5,32.7,36.5z"/>
				</g>
			</g>
		</g>
		<g>
			<path fill="#F05540" d="M30.4,17.8c0,0-1.8-1.5-2.3-2.5c-0.1-0.3-1-1.6-2.2-3.2c0,0,3.3,5.7,6.3,9.8c0,0-1.7-4.8-2.4-8
				C30.2,15.5,30.4,17.8,30.4,17.8z"/>
			<polygon fill="#F7B64C" points="29.7,13.1 29.7,13.1 29.7,13.1 			"/>
		</g>
		<polygon fill="#F05540" points="29,17.1 30.7,20.5 29.7,17.8 		"/>
	</g>
</g>
</svg>
