<?xml version="1.0" encoding="utf-8"?>
<!-- Generator: Adobe Illustrator 18.0.0, SVG Export Plug-In . SVG Version: 6.00 Build 0)  -->
<!DOCTYPE svg PUBLIC "-//W3C//DTD SVG 1.1//EN" "http://www.w3.org/Graphics/SVG/1.1/DTD/svg11.dtd">
<svg version="1.1" id="Layer_1" xmlns="http://www.w3.org/2000/svg" xmlns:xlink="http://www.w3.org/1999/xlink" x="0px" y="0px"
	 viewBox="0 0 48 48" enable-background="new 0 0 48 48" xml:space="preserve">
<g>
	<path fill="#F8B64C" d="M37.2,38.6l-4.7-18.8h-17l-4.7,18.8c-0.5,1.9-1.6,3.5-3,4.8c-1.2,1.1-2,2.8-2,4.6h36.4c0-1.8-0.8-3.4-2-4.6
		C38.8,42.1,37.6,40.5,37.2,38.6z"/>
	<g>
		<g>
			<g>
				<path fill="#FFD15C" d="M45.7,5.4c0.5-4.5-5-7.2-8.2-3.9L25.1,13.8l13.5,9.1l6.2-6.1C47.9,13.7,48.3,8.9,45.7,5.4z"/>
				<path fill="#FF7058" d="M30.1,13.3l9.6-9.6c0.3-0.3,0.7-0.5,1.1-0.5c0.5,0,1,0.2,1.3,0.6c0.3,0.3,0.4,0.8,0.4,1.3l-0.1,1.2
					l0.7,1c1.6,2.3,1.4,5.3-0.6,7.3l-4.3,4.3L30.1,13.3z"/>
			</g>
			<g>
				<path fill="#FFD15C" d="M2.3,5.4c-0.5-4.5,5-7.2,8.2-3.9l12.4,12.4L9.4,22.8l-6.2-6.1C0.1,13.7-0.3,8.9,2.3,5.4z"/>
				<path fill="#FF7058" d="M17.9,13.3L8.3,3.7C7.9,3.3,7.6,3.2,7.1,3.2c-0.5,0-1,0.2-1.3,0.6C5.5,4.1,5.4,4.5,5.4,5l0.1,1.2l-0.7,1
					c-1.6,2.3-1.4,5.3,0.6,7.3l4.3,4.3L17.9,13.3z"/>
			</g>
		</g>
		<path fill="#FFD15C" d="M40.7,26.8C39,24,38,20.7,38.6,17.3c0.1-0.4,0.1-0.8,0.1-1.2c0-5.3-6.6-9.6-14.7-9.6
			c-8.1,0-14.7,4.3-14.7,9.6c0,0.4,0,0.8,0.1,1.2C10,20.7,9,24,7.3,26.8C6.5,28.2,6,29.7,6,31.2C6,37.7,14.1,43,24,43
			s18-5.3,18-11.7C42,29.7,41.5,28.2,40.7,26.8z"/>
		<g>
			<g>
				<circle fill="#FF7058" cx="32.7" cy="19.8" r="2.7"/>
				<circle fill="#40596B" cx="32.7" cy="19.8" r="1.8"/>
				<circle fill="#FFFFFF" cx="33.9" cy="18.7" r="0.7"/>
			</g>
			<g>
				<circle fill="#FF7058" cx="15.3" cy="19.8" r="2.7"/>
				<circle fill="#40596B" cx="15.3" cy="19.8" r="1.8"/>
				<circle fill="#FFFFFF" cx="16.4" cy="18.7" r="0.7"/>
			</g>
		</g>
		<ellipse fill="#ACB3BA" cx="24" cy="37.3" rx="9.9" ry="5.6"/>
		<path fill="#F2F2F2" d="M34,39.1c0.1-0.1,0.2-0.1,0.3-0.2c0.1-0.7,0.2-1.4,0.2-2.1c0-2.3-0.7-4.5-2-6.2c-2.5-3.4-3.6-7.7-3.6-11.9
			V7.1c-1.5-0.4-3.2-0.6-4.9-0.6c-1.7,0-3.4,0.2-4.9,0.6v11.6c0,4.4-1.5,8.6-3.9,12.3c-1.4,2.1-2,4.7-1.6,7.5l0.1,0.4
			c0.1,0.1,0.2,0.1,0.3,0.2c2.8,1.4,6.3,2.2,10,2.2C27.8,41.3,31.2,40.4,34,39.1z"/>
		<g>
			<path fill="#40596B" d="M27.7,30.3h-7.4c-2,0-3.1,2.3-1.8,3.8l3.7,4.4c0.9,1.1,2.7,1.1,3.6,0l3.7-4.4
				C30.8,32.6,29.7,30.3,27.7,30.3z"/>
			<circle fill="#40596B" cx="26.5" cy="33.8" r="1.6"/>
			<circle fill="#40596B" cx="21.5" cy="33.8" r="1.6"/>
			<path opacity="0.1" fill="#231F20" d="M25.4,34.4c0-0.9,0.7-1.6,1.6-1.6c0.3,0,0.6,0.1,0.8,0.2c-0.3-0.5-0.8-0.8-1.4-0.8
				c-0.9,0-1.6,0.7-1.6,1.6c0,0.6,0.3,1.1,0.8,1.4C25.5,35,25.4,34.7,25.4,34.4z"/>
			<path opacity="0.1" fill="#231F20" d="M21.5,32.2c-0.6,0-1.1,0.3-1.4,0.8c0.2-0.1,0.5-0.2,0.8-0.2c0.9,0,1.6,0.7,1.6,1.6
				c0,0.3-0.1,0.6-0.2,0.8c0.5-0.3,0.8-0.8,0.8-1.4C23.1,32.9,22.4,32.2,21.5,32.2z"/>
		</g>
	</g>
</g>
</svg>
