<?xml version="1.0" encoding="utf-8"?>
<!-- Generator: Adobe Illustrator 18.0.0, SVG Export Plug-In . SVG Version: 6.00 Build 0)  -->
<!DOCTYPE svg PUBLIC "-//W3C//DTD SVG 1.1//EN" "http://www.w3.org/Graphics/SVG/1.1/DTD/svg11.dtd">
<svg version="1.1" id="Layer_1" xmlns="http://www.w3.org/2000/svg" xmlns:xlink="http://www.w3.org/1999/xlink" x="0px" y="0px"
	 viewBox="0 0 48 48" enable-background="new 0 0 48 48" xml:space="preserve">
<g>
	<g>
		<g>
			<path fill="#F3F3F3" d="M32,0H6.4c-1.1,0-2,0.9-2,2v44c0,1.1,0.9,2,2,2h35.2c1.1,0,2-0.9,2-2V11.6L32,0z"/>
		</g>
		<g>
			<g>
				<polygon fill="#CED6E0" points="32,0 32,11.6 43.6,11.6 				"/>
			</g>
		</g>
		<g>
			<g>
				<g>
					<path fill="#415A6B" d="M38.6,44H9.4c-0.6,0-1-0.4-1-1V13.6c0-0.6,0.4-1,1-1c0.6,0,1,0.4,1,1V42h28.3c0.6,0,1,0.4,1,1
						C39.6,43.6,39.2,44,38.6,44z"/>
				</g>
			</g>
		</g>
		<g>
			<g>
				<g>
					<path fill="#415A6B" d="M21.1,28.7L15,34.8c0.5,0.2,0.8,0.7,0.9,1.2l6.5-6.5C21.8,29.4,21.3,29.1,21.1,28.7z"/>
					<path fill="#415A6B" d="M35.9,23.1l-8.7,8.7l-3.2-3.2c-0.2,0.5-0.6,0.8-1.2,0.9l3.9,3.9c0.1,0.1,0.3,0.2,0.5,0.2
						s0.4-0.1,0.5-0.2l9.4-9.4C36.5,23.9,36.1,23.6,35.9,23.1z"/>
				</g>
			</g>
			<g>
				<g>
					<path fill="#415A6B" d="M37,28.1c-0.4,0-0.8-0.3-0.8-0.8v-3.6h-3.6c-0.4,0-0.7-0.3-0.7-0.8c0-0.4,0.3-0.8,0.7-0.8H37
						c0.4,0,0.8,0.3,0.8,0.8v4.3C37.7,27.8,37.4,28.1,37,28.1z"/>
				</g>
			</g>
		</g>
		<g>
			<g>
				<g>
					<circle fill="#66C6B9" cx="15" cy="35.9" r="2.2"/>
				</g>
			</g>
			<g>
				<g>
					<circle fill="#4ABAA5" cx="15" cy="35.9" r="1.1"/>
				</g>
			</g>
		</g>
		<g>
			<g>
				<g>
					<circle fill="#FFD15C" cx="22.6" cy="28.3" r="2.2"/>
				</g>
			</g>
			<g>
				<g>
					<circle fill="#F7B64C" cx="22.6" cy="28.3" r="1.1"/>
				</g>
			</g>
		</g>
		<g>
			<g>
				<g>
					<circle fill="#F3705A" cx="27.1" cy="32.9" r="2.2"/>
				</g>
			</g>
			<g>
				<g>
					<circle fill="#F05540" cx="27.1" cy="32.9" r="1.1"/>
				</g>
			</g>
		</g>
	</g>
</g>
</svg>
