<?xml version="1.0" encoding="utf-8"?>
<!-- Generator: Adobe Illustrator 20.1.0, SVG Export Plug-In . SVG Version: 6.00 Build 0)  -->
<!DOCTYPE svg PUBLIC "-//W3C//DTD SVG 1.1//EN" "http://www.w3.org/Graphics/SVG/1.1/DTD/svg11.dtd">
<svg version="1.1" id="Layer_1" xmlns="http://www.w3.org/2000/svg" xmlns:xlink="http://www.w3.org/1999/xlink" x="0px" y="0px"
	 viewBox="0 0 49 49" enable-background="new 0 0 49 49" xml:space="preserve">
<g>
	<path fill="#F2F2F2" d="M32.7,46.1c0.2,1.3-0.7,2.4-2,2.4H18.3c-1.3,0-2.3-1.2-2-2.4l0.5-4c0.2-1.6,0.2-3.2-0.1-4.8
		c-0.6-3.7-0.9-7.5-0.9-11.2c0-3.6,0.3-7.2,0.9-10.8c0.1-0.5,0.2-1.1,0.3-1.6l3.8-10h7.3l3.8,10c0.1,0.5,0.2,1.1,0.3,1.6
		c0.6,3.6,0.9,7.2,0.9,10.8c0,3.7-0.3,7.5-0.9,11.2c-0.2,1.5-0.2,3.1,0,4.7L32.7,46.1z"/>
	<path fill="#40596B" d="M18.3,47c-0.2,0-0.3-0.1-0.4-0.2c-0.1-0.1-0.1-0.2-0.1-0.4l0.5-4.1c0.2-1.8,0.2-3.6-0.1-5.3
		c-1.3-7.6-1.2-15.3,0.3-23l3.4-8.9H27l3.3,8.9c1.5,7.6,1.6,15.4,0.3,23c-0.3,1.7-0.3,3.4-0.1,5.3l0.5,4c0,0.3,0,0.4-0.1,0.5
		c0.1,0,0,0.2-0.2,0.2H18.3z"/>
	<path fill="#FF7058" d="M33.1,26H15.9c0-3.6,0.3-7.2,0.9-10.8h15.4C32.8,18.8,33.1,22.4,33.1,26z"/>
	<ellipse fill="#F2F2F2" cx="24.5" cy="20.6" rx="4.6" ry="3.1"/>
	<path fill="#FFD15C" d="M28.8,1.2c-0.1-0.4-0.5-0.7-0.9-0.7h-7c-0.4,0-0.8,0.3-0.9,0.7l-0.8,2.4h10.2L28.8,1.2z"/>
</g>
</svg>
