<?xml version="1.0" encoding="utf-8"?>
<!-- Generator: Adobe Illustrator 18.0.0, SVG Export Plug-In . SVG Version: 6.00 Build 0)  -->
<!DOCTYPE svg PUBLIC "-//W3C//DTD SVG 1.1//EN" "http://www.w3.org/Graphics/SVG/1.1/DTD/svg11.dtd">
<svg version="1.1" id="Layer_1" xmlns="http://www.w3.org/2000/svg" xmlns:xlink="http://www.w3.org/1999/xlink" x="0px" y="0px"
	 viewBox="0 0 48 48" enable-background="new 0 0 48 48" xml:space="preserve">
<g>
	<path fill="#F2F2F2" d="M31.2,23.6V7.2C31.2,3.2,28,0,24,0h0c-4,0-7.2,3.2-7.2,7.2v16.5c-3.7,2.4-6.1,6.5-6.1,11.1
		C10.8,42.1,16.7,48,24,48c7.3,0,13.2-5.9,13.2-13.2C37.2,30.1,34.8,26,31.2,23.6z"/>
	<path fill="#E4EAEF" d="M24,45.5c-5.9,0-10.7-4.8-10.7-10.7c0-3.7,1.8-7,4.9-9l1.1-0.7V7.2c0-2.6,2.1-4.7,4.7-4.7s4.7,2.1,4.7,4.7
		V25l1.1,0.7c3.1,2,4.9,5.4,4.9,9C34.7,40.7,29.9,45.5,24,45.5z"/>
	<path fill="#FF7058" d="M29.8,25.7L28.7,25v-9.9h-9.3V25l-1.1,0.7c-3.1,2-4.9,5.4-4.9,9c0,5.9,4.8,10.7,10.7,10.7
		s10.7-4.8,10.7-10.7C34.7,31.1,32.9,27.7,29.8,25.7z"/>
	<circle fill="#F1543F" cx="24" cy="34.7" r="5.9"/>
	<g>
		<rect x="32.5" y="5.7" fill="#ACB3BA" width="4" height="1"/>
		<rect x="32.5" y="8.6" fill="#ACB3BA" width="2.9" height="1"/>
		<rect x="32.5" y="11.5" fill="#ACB3BA" width="4" height="1"/>
		<rect x="32.5" y="14.5" fill="#ACB3BA" width="2.9" height="1"/>
		<rect x="32.5" y="17.4" fill="#ACB3BA" width="2.9" height="1"/>
		<rect x="32.5" y="20.4" fill="#ACB3BA" width="4" height="1"/>
	</g>
</g>
</svg>
