<?xml version="1.0" encoding="utf-8"?>
<!-- Generator: Adobe Illustrator 18.0.0, SVG Export Plug-In . SVG Version: 6.00 Build 0)  -->
<!DOCTYPE svg PUBLIC "-//W3C//DTD SVG 1.1//EN" "http://www.w3.org/Graphics/SVG/1.1/DTD/svg11.dtd">
<svg version="1.1" id="Layer_1" xmlns="http://www.w3.org/2000/svg" xmlns:xlink="http://www.w3.org/1999/xlink" x="0px" y="0px"
	 viewBox="0 0 48 48" enable-background="new 0 0 48 48" xml:space="preserve">
<g>
	<g>
		<g>
			<g>
				<g>
					<circle fill="#E8EAE9" cx="24" cy="24" r="13.1"/>
				</g>
				<g>
					<path fill="#344A5E" d="M31.4,29.9l-3.7-1L24,30.1L20.3,29l-3.7,1c-1.3,0.3-2.2,1.3-2.6,2.6c2.4,2.8,6,4.6,9.9,4.6
						s7.5-1.8,9.9-4.6C33.6,31.3,32.6,30.3,31.4,29.9z"/>
				</g>
				<g>
					<rect x="21.7" y="26.8" fill="#F7B64C" width="4.7" height="3.3"/>
				</g>
				<g>
					<ellipse fill="#FFD15C" cx="24" cy="21.8" rx="4.4" ry="6.2"/>
				</g>
				<g>
					<path fill="#415A6B" d="M19.8,23c0-0.9,0.2-4.2,2.8-4.5c0,0-1.1,0.5-1.4,1.1c0.5-0.5,3.3-1.7,5.5-0.6c1.6,0.8,1.3,3.6,1.2,4
						h0.4c0.1-0.4,1.8-6.5-3.3-8.1c-5.2-1.6-7.2,5-5.4,8.1H19.8z"/>
				</g>
				<g>
					
						<ellipse transform="matrix(-0.9831 0.1833 -0.1833 -0.9831 43.6579 41.9296)" fill="#FFD15C" cx="19.9" cy="23" rx="0.9" ry="1.4"/>
				</g>
				<g>
					
						<ellipse transform="matrix(0.9831 0.1833 -0.1833 0.9831 4.6889 -4.7763)" fill="#FFD15C" cx="28.2" cy="23" rx="0.9" ry="1.4"/>
				</g>
				<g>
					<polygon fill="#55C0EB" points="26.3,29.4 24,30.1 21.8,29.4 21.9,35.7 26.2,35.7 					"/>
				</g>
				<g>
					<g>
						<path fill="#F05540" d="M25.5,31.6c0,0-0.8-1.5-1.5-1.5c-0.7,0-1.5,1.5-1.5,1.5l0.7,1h1.5L25.5,31.6z"/>
					</g>
					<g>
						<path fill="#F3705A" d="M23.3,32.6l-1.1,3.3l0.5,1.1c0.4,0,0.9,0.1,1.3,0.1c0.5,0,0.9,0,1.4-0.1l0.5-1.1l-1.1-3.3H23.3z"/>
					</g>
				</g>
				<g>
					<path fill="#8AD7F8" d="M24,30.1c0,0-2.2-1.4-2.4-2.7l-0.8,1.4l1.7,3.5C22.8,31.5,23.3,30.6,24,30.1z"/>
				</g>
				<g>
					<path fill="#8AD7F8" d="M24,30.1c0,0,2.2-1.4,2.4-2.7l0.8,1.4l-1.7,3.5C25.3,31.5,24.7,30.6,24,30.1z"/>
				</g>
				<g>
					<path fill="#415A6B" d="M21.2,28.2L19,30.3l1.3,0.6l-1.3,0.6l3.2,5.5c0.4,0,0.7,0.1,1.1,0.1L21.2,28.2z"/>
				</g>
				<g>
					<path fill="#415A6B" d="M26.9,28.2l-2.1,8.9c0.4,0,0.7-0.1,1.1-0.1l3.1-5.5l-1.3-0.6l1.3-0.6L26.9,28.2z"/>
				</g>
			</g>
		</g>
		<path fill="#415A6B" d="M24,0C10.7,0,0,10.7,0,24s10.7,24,24,24s24-10.7,24-24S37.3,0,24,0z M26,43.9v-2.6c0-1.1-0.9-2-2-2
			s-2,0.9-2,2v2.6C12.6,43,5,35.4,4.1,26h2.6c1.1,0,2-0.9,2-2c0-1.1-0.9-2-2-2H4.1C5,12.6,12.6,5,22,4.1v2.6c0,1.1,0.9,2,2,2
			s2-0.9,2-2V4.1C35.4,5,43,12.6,43.9,22h-2.8c-1.1,0-2,0.9-2,2c0,1.1,0.9,2,2,2h2.8C43,35.4,35.4,43,26,43.9z"/>
	</g>
</g>
</svg>
