<?xml version="1.0" encoding="utf-8"?>
<!-- Generator: Adobe Illustrator 18.0.0, SVG Export Plug-In . SVG Version: 6.00 Build 0)  -->
<!DOCTYPE svg PUBLIC "-//W3C//DTD SVG 1.1//EN" "http://www.w3.org/Graphics/SVG/1.1/DTD/svg11.dtd">
<svg version="1.1" id="Layer_1" xmlns="http://www.w3.org/2000/svg" xmlns:xlink="http://www.w3.org/1999/xlink" x="0px" y="0px"
	 viewBox="0 0 48 48" enable-background="new 0 0 48 48" xml:space="preserve">
<g>
	<path fill="#84DBFF" d="M39.7,13c-0.2-4.2-3.6-7.5-7.8-7.5c-1.3,0-2.4,0.3-3.5,0.8C26.5,2.6,22.7,0,18.2,0C11.9,0,6.8,5,6.8,11.3
		c0,0.6,0.1,1.3,0.2,1.9c-4,0.7-7,4.2-7,8.4c0,4.7,3.8,8.6,8.6,8.6h30.8c4.7,0,8.6-3.8,8.6-8.6C48,17,44.3,13.2,39.7,13z"/>
	<path fill="#F2F2F2" d="M9.6,12.7c-0.4,0-0.8-0.3-0.8-0.8c0-5.5,4.5-10,10-10c0.4,0,0.8,0.3,0.8,0.8s-0.3,0.8-0.8,0.8
		c-4.7,0-8.5,3.8-8.5,8.5C10.3,12.4,10,12.7,9.6,12.7z"/>
	<path fill="#FF7058" d="M35.6,48H12.4c-1.1,0-2-0.9-2-2V30.3c0-1.1,0.9-2,2-2h23.2c1.1,0,2,0.9,2,2V46C37.6,47.1,36.7,48,35.6,48z"
		/>
	<path fill="#40596B" d="M17.5,28.3v-3c0-3.6,2.9-6.5,6.5-6.5s6.5,2.9,6.5,6.5v3h3.6v-3c0-5.6-4.5-10.1-10.1-10.1
		s-10.1,4.5-10.1,10.1v3H17.5z"/>
	<path fill="#40596B" d="M27.3,36c0-1.8-1.5-3.3-3.3-3.3c-1.8,0-3.3,1.5-3.3,3.3c0,1.3,0.8,2.5,1.9,3v3.2c0,0.8,0.6,1.4,1.4,1.4
		c0.8,0,1.4-0.6,1.4-1.4V39C26.5,38.5,27.3,37.3,27.3,36z"/>
</g>
</svg>
