<?xml version="1.0" encoding="utf-8"?>
<!-- Generator: Adobe Illustrator 18.0.0, SVG Export Plug-In . SVG Version: 6.00 Build 0)  -->
<!DOCTYPE svg PUBLIC "-//W3C//DTD SVG 1.1//EN" "http://www.w3.org/Graphics/SVG/1.1/DTD/svg11.dtd">
<svg version="1.1" id="Layer_1" xmlns="http://www.w3.org/2000/svg" xmlns:xlink="http://www.w3.org/1999/xlink" x="0px" y="0px"
	 viewBox="0 0 48 48" enable-background="new 0 0 48 48" xml:space="preserve">
<g>
	<g>
		<g>
			<g>
				<path fill="#344A5E" d="M9.1,34.5c0,0-0.7,0.3-0.9,0.3c-0.2,0-1.4,0-1.9-1.3c-0.5-1.3,0-2.5,0.4-2.5c0.4,0,1.8,0.7,1.8,0.7
					L9.1,34.5z"/>
			</g>
		</g>
	</g>
	<g>
		<g>
			<g>
				<path fill="#344A5E" d="M41.9,34.6c1.3,0.1,1.7-4.5,0.4-4.6L40,31.9C40,31.9,40.2,34.6,41.9,34.6z"/>
			</g>
		</g>
	</g>
	<g>
		<g>
			<g>
				<g>
					<path fill="#FFD15C" d="M42.5,30l0,3.8l-0.3-0.2c0,0-1.4-0.9-1.8-1.2l0.8-2.2l1.1-0.1H42.5z"/>
				</g>
			</g>
		</g>
		<g>
			<g>
				<g>
					<path fill="#FFD15C" d="M6.5,34.2c0.1,0,0.4-0.1,0.4-0.1s1-0.2,1.5-0.6S7.3,31,7.3,31l-1.8,0.2L6.5,34.2z"/>
				</g>
			</g>
		</g>
		<g>
			<g>
				<g>
					<path fill="#425A6B" d="M43.4,34.5c0,0,0.2,0.8,0.8,0.7c0.7-0.1,1.2-0.5,1.3-0.7c0.1-0.2,0.8-1.7,0.8-1.7l1.2-2.8
						c0,0,0.7-0.9,0.5-2.1c-0.2-1.2-1-2.4-1-2.4s-1-0.2-1.3,0s-0.7,2.3-0.7,2.3s-0.4,3.3-0.8,3.9C43.7,32.4,43.4,34.5,43.4,34.5z"/>
				</g>
			</g>
		</g>
		<g>
			<g>
				<g>
					<path fill="#E8EAE8" d="M42.7,34.2l0.2,0.5c0,0,0.6,0.9,1.3,0.6c0,0-0.6-0.1-0.6-0.4c0-0.3,0.2-1.1,0.2-1.1l0.8-2
						c0,0,0.5-1.4,0.5-2.6s0-3.2,1-3.6c1-0.5,1.6,1.8,1.6,1.8s0.2,1.1,0,1.8s-0.9,2.2-0.9,2.2L46.2,33l1.3-2.9c0,0,0.7-1,0.4-2.4
						c-0.3-1.3-1-2.2-1-2.2l-1.9-0.1l-0.2,0.7l-0.2,0.4l-1.1,4.1L42.7,34.2z"/>
				</g>
			</g>
		</g>
		<g>
			<g>
				<g>
					<path fill="#F05640" d="M42.3,30c0,0-0.1,1.1,0.1,1.4c0.1,0.3-0.1,2-0.2,2.2c0.2,0.4,0.4,0.7,0.7,1c0,0,0.2-1.3,0.5-1.8
						c0.3-0.5,0.8-1.6,0.9-2.3c0.1-0.7,0.3-3.7,0.4-4.1c0.2-0.4,0.2-0.4,0.2-0.4s-0.5,1.5-0.7,1.7C43.9,28.3,42.9,29.8,42.3,30z"/>
				</g>
			</g>
		</g>
		<g>
			<g>
				<g>
					<path fill="#425A6B" d="M31,24.6c0,0,0.4,0.7,0.6,0.9c0.2,0.2,2.8,1.7,2.8,1.7l5,2.2l0.8,0.4l2.1,0.2c0,0-0.7,0.7-1,2.1
						c-0.3,1.5,0,2.3,0.6,2.5c0,0-0.5,0.1-1.1-0.1s-2.3-0.8-2.3-0.8s-3.4-1.1-4.4-1.9c0,0-1.4-0.3-2.4-0.9c-1-0.6-2-0.7-2-0.7
						l-2.8-1c0,0-0.3,0.1-0.8-0.1c0,0-5.3,1.2-5.6,1.2c-0.3-0.1-1.4,0.5-1.6,0.7c-0.2,0.2-3,1.6-5.1,2.3c-2.1,0.7-4.7,1.4-4.7,1.4
						s-0.5,0.3-1,0.2c0,0,0.8-0.1,0.6-0.6c-0.3-0.5-0.5-0.6-0.5-0.6s-0.5-0.7-0.8-1.3c-0.3-0.6-0.7-1.1-0.9-1.2c0,0,0.9-0.4,1.8-0.6
						s2.1-0.4,2.7-0.8c0.7-0.4,2.2-0.9,2.2-0.9s0.7-0.7,2.2-1.2c0,0,0.4-0.5,1.8-0.8c0,0,4.5-1.6,5.5-3.2l5.4-0.1L31,24.6z"/>
				</g>
			</g>
		</g>
		<g>
			<g>
				<g>
					<path fill="#F5B54C" d="M36,18.5c0,0,2.2,1.2,2.6,2.7c0,0,0.8,0,3.7,1.8c0,0,0.5,0.3,0.7,0.3c0.2,0,0.4,0.1,0.8,0.3
						c0.4,0.2,0.5,0.5,1.2,0.5c0.4,0,0.7,0,0.9,0c0.1,0,0.1,0,0.2,0l0.9,0.4c0,0,0.2,0.1,0.2,0.3l0.3,0.3c0,0-0.2,0.2-0.4,0.2
						c0.1,0.2-0.3,0.4-0.5,0.1l-0.3-0.3c0.1,0.2-0.4,0.3-0.6,0.1L45.5,25c0,0-1.4,0.2-2,0c0,0-0.4,0.2-0.9,0.2c0,0-0.1,0.2,0.1,0.5
						c0.2,0.3,0.2,0.6,0.1,0.7c-0.1,0.2-0.2,0.2-0.2,0.2l-0.4-0.4c0,0-0.3-0.2-0.3-0.4l-0.2-0.5c0-0.1-0.1-0.2,0-0.3
						c0-0.1,0.1-0.3,0.3-0.5c0,0-2.5,0.2-4.3-1.3c-1.8-1.5-2.1-1.9-2.9-1.8c-0.8,0.1-1.7,2.1-1.7,2.1l-2.4,1.4l-2.8-1.9l-1.2-3.8
						c0,0,1.4-2.7,3.4-2.9c2-0.2,1.8-0.3,1.8-0.3l1.6,0.1L36,18.5z"/>
				</g>
			</g>
		</g>
		<g>
			<g>
				<g>
					<path fill="#EAA54B" d="M31.1,21.9c0,0-0.2,1.3-0.8,1.8l1.9,0.6C32.2,24.3,31.2,24.1,31.1,21.9z"/>
				</g>
			</g>
		</g>
		<g>
			<g>
				<g>
					<path fill="#FFD15C" d="M32.5,17.4c0,0-0.4,0.7-0.7,0.8c0,0,0.9,1.2,1.3,1.8c0.3,0.6,2.1,1.4,2.1,1.4s1.9,0.4,3.3,1.4
						c1.4,1,3.5,1.8,3.5,1.8l3.1,0.2h1.1l0.9,0.6c0.2,0.2-0.3,0.6-0.5,0.4l-0.3-0.2c0,0-0.3,0.1-0.7,0.2c-0.4,0-0.6,0.1-0.6,0.1
						s-0.5,0.6-1,0.7s-1.7,0.1-2.7-0.6c0,0-0.5-0.2-0.8-0.2s-3-0.7-3.2-0.8c-0.2-0.1-2.1-0.7-2.9-1.3l-3.8-2.1L27,19.2
						c0,0,1.1-2.6,2.9-3c1.8-0.4,3,0,3,0L32.5,17.4z"/>
				</g>
			</g>
		</g>
		<g>
			<g>
				<g>
					<path fill="#F5B54C" d="M31.9,17.6c0,0.1,0,0.3,0,0.4c0.3-0.2,0.6-0.7,0.6-0.7l0.4-1.3c0,0-0.6-0.2-1.7-0.2
						c0.4,0.4,0.6,1,0.7,1.6C31.9,17.6,31.9,17.6,31.9,17.6z"/>
				</g>
			</g>
		</g>
		<g>
			<g>
				<g>
					<path fill="#FFD15C" d="M29.4,20.7l1.1,1l0,0L27,19.2c0,0,0.5-1.1,1.3-2c-0.4,0.5-0.6,1-0.6,1s-0.1,1.1,0.6,1.5
						C29,20.1,29.4,20.7,29.4,20.7z"/>
				</g>
			</g>
			<g>
				<g>
					<path fill="#FFD15C" d="M31.8,18.3c0,0.1,0.1,0.2,0.2,0.3v0l-0.2-0.2C31.8,18.4,31.8,18.3,31.8,18.3z"/>
				</g>
			</g>
		</g>
		<g>
			<g>
				<g>
					<path fill="#E8EAE8" d="M32.8,22.9l0.5,0.2c-0.1,0.3-0.4,1.5-1.1,1.6c-0.8,0.2-1.4,0.1-1.4,0.1s-0.6,0.1-1.2,0.3
						c-0.6,0.2-2.9,0.1-3.5-0.1c-0.6-0.2-2.8-1.1-3.1-1.2l-0.1-0.1c0,0,0.9-1.1,1.4-1.6c0.5-0.5,1.4-2.1,1.4-2.1s1-1.5,1.7-2.2
						c0.7-0.7,1.8-1.7,3.1-1.7c0,0,0,0,0.1,0c1.3-0.1,1.4,0.4,1.4,0.4s0,1,0,1.7c0,0.3,0,0.5,0,0.5v0l-0.2-0.2c0,0,0,0,0-0.1
						c0,0,0,0,0-0.1c0-0.3-0.2-1.1-0.6-1.8c-0.1-0.1-0.3-0.2-0.4-0.2c-0.4,0-1.3,0.1-1.9,0.5c0,0,0,0,0,0c-0.2,0.1-0.4,0.3-0.6,0.5
						c0,0,0,0,0,0c-0.1,0.2-0.2,0.3-0.3,0.5c-0.3,0.5-0.3,1-0.1,1.5c0.1,0.2,0.2,0.4,0.5,0.6c0.7,0.4,1.1,0.9,1.1,0.9l1.1,1
						c0,0-0.4,1.4,0.1,1.8S32.6,23.3,32.8,22.9L32.8,22.9z"/>
				</g>
			</g>
			<g>
				<g>
					<path fill="#E8EAE8" d="M34.3,18.7l-0.1,2.3c-0.2-0.1-0.5-0.3-0.7-0.4l0.1-1.9L34.3,18.7z"/>
				</g>
			</g>
		</g>
		<g>
			<g>
				<g>
					<path fill="#CED6E0" d="M27,22.5c0,0,0.6,0.7,0.8,1c0.2,0.3,0.9,1,1.5,0.9c0.6,0,1,0.2,1,0.2l0.5,0.2c0,0-1.4,0.2-1.8,0.4
						c0,0-0.3-0.5-0.7-0.9c-0.4-0.4-0.7-0.9-0.7-0.9S27.3,22.9,27,22.5z"/>
				</g>
			</g>
		</g>
		<g>
			<g>
				<g>
					<path fill="#FFD15C" d="M32.2,17.3c0,0,0.2,2.1,1.5,3c1.3,0.9,2-0.3,2-0.3s1.2-2,1.1-2.5c0,0-3.8-2.1-4.2-1.6
						C32.2,16.3,32.2,17.3,32.2,17.3z"/>
				</g>
			</g>
		</g>
		<g>
			<g>
				<g>
					<g>
						<g>
							<path fill="#425A6B" d="M37.3,17.2c0,0-0.2-0.1-0.3-0.1c0.1,0.2,0,0.4-0.2,0.5c-0.2,0.1-1.2,0-1.5-0.1
								c-0.3-0.1-0.5-0.4-0.6-0.7c0,0.3,0.3,0.6,0.6,0.8c-0.6,0.1-1.2-0.1-1.6-0.5c0.1,0.1,0.2,0.3,0.3,0.4c-0.5-0.1-0.9-0.5-1-1
								c-0.2,0.2-0.3,0.6-0.3,0.9c-0.2-0.5-0.4-1-0.8-1.2c-0.3-0.2-0.7-0.1-1-0.1c-0.3,0-0.6,0-1,0.1c0.2-0.1,0.4-0.2,0.7-0.2
								c0.3,0,0.5,0,0.8,0c0.2-0.1,0.5-0.2,0.6-0.4c0,0,0.3-2.1,1.6-2.5c1.3-0.5,2.2-0.1,2.2-0.1s0.9,0.3,1.4,1.3
								C37.5,15.1,37.9,16.2,37.3,17.2z"/>
						</g>
					</g>
				</g>
			</g>
			<g>
				<g>
					<g>
						<path fill="#425A6B" d="M33.1,16.3C33.1,16.3,33.1,16.3,33.1,16.3C33,16.4,33,16.4,33,16.5c-0.1,0.1-0.2,0.3-0.2,0.5
							c0,0.1,0,0.2,0.1,0.3c0,0.1,0.1,0.2,0.1,0.2c0,0.1,0,0.1,0,0.2c0,0,0,0,0,0c0,0,0,0,0,0s0,0,0,0c0,0,0,0,0,0c0,0,0-0.1,0-0.2
							c0-0.1-0.1-0.1-0.1-0.2c0-0.1-0.1-0.2-0.1-0.3c0-0.1,0-0.2,0.1-0.3c0-0.1,0.1-0.2,0.1-0.2c0-0.1,0.1-0.1,0.1-0.1
							C33,16.3,33,16.3,33.1,16.3L33.1,16.3z"/>
					</g>
				</g>
			</g>
		</g>
		<g>
			<g>
				<g>
					
						<ellipse transform="matrix(0.9817 -0.1904 0.1904 0.9817 -2.6097 6.4135)" fill="#FFD15C" cx="32.1" cy="16.8" rx="0.4" ry="1"/>
				</g>
			</g>
		</g>
		<g>
			<g>
				<g>
					<path fill="#F5B54C" d="M47.1,24.8c0-0.2-0.2-0.3-0.2-0.3L46,24.1c-0.1,0-0.1,0-0.2,0c-0.1,0-0.4,0-0.9,0
						c-0.7,0-0.8-0.3-1.2-0.5c-0.4-0.2-0.6-0.3-0.8-0.3c-0.2,0-0.7-0.3-0.7-0.3c-0.4-0.2-0.7-0.4-1-0.6v1.9c0.4,0,0.6,0,0.6,0
						c-0.2,0.2-0.2,0.4-0.3,0.5c0,0.1,0,0.2,0,0.3l0.2,0.5c0,0.2,0.3,0.4,0.3,0.4l0.4,0.4c0,0,0.1-0.1,0.2-0.2
						c0.1-0.2,0.1-0.5-0.1-0.7c-0.2-0.3-0.1-0.5-0.1-0.5c0.5,0,0.9-0.2,0.9-0.2c0.6,0.2,2,0,2,0l0.3,0.2c0.2,0.2,0.7,0,0.6-0.1
						l0.3,0.3c0.2,0.3,0.6,0.1,0.5-0.1c0.2,0.1,0.4-0.2,0.4-0.2L47.1,24.8z"/>
				</g>
			</g>
		</g>
		<g>
			<g>
				<g>
					<path fill="#E8EAE8" d="M0,29c0,0-0.4-1.6,1.5-2.2l0.2,0.9L0,29z"/>
				</g>
			</g>
		</g>
		<g>
			<g>
				<g>
					<g>
						<path fill="#F26F5A" d="M3.3,28.3c0,0,0.9,1.6,1.7,1.8c0.7,0.3,1.5,0.3,1.7,0.8c0,0-0.4,0.5-0.1,0.9c0.3,0.4,0.7,1.8,0.8,2
							c0.1,0.1-0.2,0.7-0.5,0.8l-0.2-1.3c0,0-0.9-1.1-1.4-1.6c-0.5-0.5-2-2.9-2-2.9L3.3,28.3"/>
					</g>
				</g>
			</g>
			<g>
				<g>
					<g>
						<path fill="#E8EAE8" d="M6.9,34.1c-0.1,0.2-0.2,0.4-0.4,0.6c0-0.1,0.1-0.1,0.1-0.2c0.2-0.4,0.1-0.9-0.2-1.3
							c-0.3-0.3-0.7-0.8-1.5-1.4c-1.4-1.1-1.7-2.5-1.8-2.8c-0.1-0.3-0.5-0.8-0.8-1.3c-0.4-0.5-0.9-0.5-1-0.5c-0.1,0-0.2,0-0.4,0.2
							c0.4-0.5,0.7-0.6,0.8-0.6c0.1,0,0.6,0,1,0.5c0.4,0.5,0.7,0.9,0.8,1.3c0.1,0.3,0.4,1.7,1.8,2.8c0.8,0.6,1.2,1.1,1.5,1.4
							C6.9,33.2,7,33.7,6.9,34.1z"/>
					</g>
				</g>
			</g>
			<g>
				<g>
					<g>
						<path fill="#E8EAE8" d="M6.8,33.1c0,0,0.5,0.8,0.1,1.4c-0.4,0.7-1.4,1.1-2,0.5c-0.7-0.5,0.4-1.7,0.4-1.7L6.8,33.1z"/>
					</g>
				</g>
			</g>
			<g>
				<g>
					<g>
						<path fill="#425A6B" d="M6.5,34.4C6.5,34.7,6.3,34.9,6,35C5.3,35.4,4.7,35,4.7,35s-1-0.8-1.2-1.2c-0.1-0.2-0.5-0.6-0.8-0.8
							c-0.2-0.2-0.4-0.3-0.6-0.4c-0.5-0.3-1.6-1.2-1.9-2.1c0,0-0.4-1.7,0.1-2.4c0.5-0.7,0.9-0.8,1-0.8c0.1,0,0.6,0,1,0.5
							c0.4,0.5,0.7,0.9,0.8,1.3c0.1,0.3,0.4,1.7,1.8,2.8c0.8,0.6,1.2,1.1,1.5,1.4C6.6,33.5,6.7,34,6.5,34.4z"/>
					</g>
				</g>
			</g>
		</g>
	</g>
</g>
</svg>
