<?xml version="1.0" encoding="utf-8"?>
<!-- Generator: Adobe Illustrator 19.0.1, SVG Export Plug-In . SVG Version: 6.00 Build 0)  -->
<svg version="1.1" id="Layer_1" xmlns="http://www.w3.org/2000/svg" xmlns:xlink="http://www.w3.org/1999/xlink" x="0px" y="0px"
	 viewBox="0 0 48 48" style="enable-background:new 0 0 48 48;" xml:space="preserve">
<style type="text/css">
	.st0{fill:#415A6B;}
	.st1{fill:#ADB3BA;}
	.st2{fill:#E8EAE9;}
	.st3{fill:#55C0EB;}
	.st4{fill:#F3705A;}
	.st5{fill:#FFFFFF;}
	.st6{fill:#FFD15C;}
	.st7{fill:#344A5E;}
	.st8{fill:#CED6E0;}
	.st9{fill:#F05540;}
	.st10{fill:#F7B64C;}
	.st11{fill:#F3F3F3;}
	.st12{fill:#66C6B9;}
	.st13{fill:#4ABAA5;}
	.st14{fill:#8AD7F8;}
	.st15{fill:none;}
	.st16{fill:#E53D35;}
</style>
<g>
	<g>
		<g>
			<g>
				<g>
					<path class="st0" d="M19.9,12.1c0,6-2.4,10.9-5.4,10.9c-3,0-5.4-4.9-5.4-10.9c0-6,2.4-10.9,5.4-10.9C17.4,1.2,19.9,6,19.9,12.1
						z"/>
				</g>
				<g>
					<path class="st0" d="M29.9,11.7c0,6.5-4.4,11.7-9.8,11.7s-9.8-5.2-9.8-11.7S14.7,0,20.1,0S29.9,5.2,29.9,11.7z"/>
				</g>
			</g>
			<g>
				<path class="st7" d="M38.8,48V34.8C38.8,26,0,26,0,34.8L0,48H38.8z"/>
			</g>
			<g>
				<path class="st10" d="M25.4,28.5c0,3.2-5.9,5.4-5.9,5.4s-5.9-2.2-5.9-5.4l0-11.9h11.9L25.4,28.5z"/>
			</g>
			<g>
				<polygon class="st8" points="15.7,48 22.1,48 26.9,34.2 25.8,33 19.4,33.9 12.4,33 14.8,46.1 				"/>
			</g>
			<g>
				<g>
					<polygon class="st9" points="20.9,37.8 22.1,36.6 19.4,33.9 16.7,36.6 18,37.8 					"/>
				</g>
				<g>
					<polygon class="st9" points="22.6,48 20.9,37.8 18,37.8 16.2,48 					"/>
				</g>
			</g>
			<g>
				<path class="st6" d="M28.7,12.1c-5.3-0.2-8.9-2.8-11-6.4c-1.6,2.4-4,4.3-7.2,5.2c-0.5,1.5-0.7,3.1-0.7,4.8
					c0,7,4.3,12.7,9.7,12.7s9.7-5.7,9.7-12.7C29.1,14.5,29,13.3,28.7,12.1z"/>
			</g>
			<path class="st6" d="M7.9,16.6c0.1,1.6,1.1,2.9,2.2,2.8c1.1-0.1,1.8-1.5,1.7-3.2c-0.1-1.6-1.1-2.9-2.2-2.8
				C8.6,13.6,7.8,15,7.9,16.6z"/>
			<path class="st6" d="M30.9,16.6c-0.1,1.6-1.1,2.9-2.2,2.8c-1.1-0.1-1.8-1.5-1.7-3.2c0.1-1.6,1.1-2.9,2.2-2.8
				C30.3,13.6,31,15,30.9,16.6z"/>
			<g>
				<g>
					<g>
						<polygon class="st11" points="25.3,27.4 19.4,33.9 23.1,37.6 27.1,29.5 						"/>
					</g>
					<g>
						<path class="st0" d="M25.3,48c2.5-3.9,4.4-7.9,5.6-12.2l-2.8-2.9l2.8-1.2L26,28.2c-0.9,5.9-2.5,12.6-4.4,19.8H25.3z"/>
					</g>
				</g>
				<g>
					<g>
						<polygon class="st11" points="13.5,27.4 19.4,33.9 15.8,37.6 11.8,29.5 						"/>
					</g>
					<g>
						<path class="st0" d="M13.6,48h3.7c-1.9-7.2-3.5-13.9-4.4-19.8l-4.9,3.5l2.8,1.2l-2.8,2.9C9.1,40.1,11.1,44.1,13.6,48z"/>
					</g>
				</g>
			</g>
		</g>
		<g>
			<g>
				<circle class="st12" cx="37.5" cy="37.5" r="10.5"/>
			</g>
			<g>
				<g>
					<path class="st5" d="M35.7,42.7c-0.4,0-0.9-0.2-1.2-0.5l-3.4-3.4c-0.7-0.7-0.7-1.8,0-2.4c0.7-0.7,1.8-0.7,2.4,0l2.2,2.2
						l4.9-4.9c0.7-0.7,1.8-0.7,2.4,0c0.7,0.7,0.7,1.8,0,2.4L37,42.2C36.6,42.5,36.2,42.7,35.7,42.7z"/>
				</g>
			</g>
		</g>
	</g>
</g>
</svg>
