<?xml version="1.0" encoding="utf-8"?>
<!-- Generator: Adobe Illustrator 18.0.0, SVG Export Plug-In . SVG Version: 6.00 Build 0)  -->
<!DOCTYPE svg PUBLIC "-//W3C//DTD SVG 1.1//EN" "http://www.w3.org/Graphics/SVG/1.1/DTD/svg11.dtd">
<svg version="1.1" id="Layer_1" xmlns="http://www.w3.org/2000/svg" xmlns:xlink="http://www.w3.org/1999/xlink" x="0px" y="0px"
	 viewBox="0 0 48 48" enable-background="new 0 0 48 48" xml:space="preserve">
<g>
	<path fill="#40596B" d="M38,48H10c-1.1,0-2-0.9-2-2V2c0-1.1,0.9-2,2-2h28c1.1,0,2,0.9,2,2v44C40,47.1,39.1,48,38,48z"/>
	<rect x="12" y="6.9" fill="#F2F2F2" width="24" height="30.9"/>
	<circle fill="#334A5E" cx="24" cy="42.9" r="3.2"/>
	<path fill="#334A5E" d="M28.2,2.7h-8.4c-0.4,0-0.8,0.3-0.8,0.8v0c0,0.4,0.3,0.8,0.8,0.8h8.4c0.4,0,0.8-0.3,0.8-0.8v0
		C28.9,3,28.6,2.7,28.2,2.7z"/>
	<circle fill="#FF7058" cx="24" cy="22.4" r="7.1"/>
	<polygon fill="#FFD15C" points="28.1,24.5 25.4,23.1 29.8,14.4 19.9,20.3 22.6,21.7 18.2,30.3 	"/>
</g>
</svg>
