<?xml version="1.0" encoding="utf-8"?>
<!-- Generator: Adobe Illustrator 16.0.0, SVG Export Plug-In . SVG Version: 6.00 Build 0)  -->
<!DOCTYPE svg PUBLIC "-//W3C//DTD SVG 1.1//EN" "http://www.w3.org/Graphics/SVG/1.1/DTD/svg11.dtd">
<svg version="1.1" id="Layer_1" xmlns="http://www.w3.org/2000/svg" xmlns:xlink="http://www.w3.org/1999/xlink" x="0px" y="0px"
	 width="48px" height="48px" viewBox="0 0 48 48" enable-background="new 0 0 48 48" xml:space="preserve">
<g>
	
		<rect x="14.794" y="-0.735" transform="matrix(-0.7072 -0.7071 0.7071 -0.7072 24.0022 57.942)" fill="#E7E9E8" width="18.411" height="49.471"/>
	
		<rect x="14.868" y="37.237" transform="matrix(-0.707 -0.7072 0.7072 -0.707 3.6444 78.3936)" fill="#CDD5DF" width="6.385" height="2.41"/>
	
		<rect x="12.906" y="42.19" transform="matrix(-0.7072 -0.707 0.707 -0.7072 -5.3091 84.5905)" fill="#CDD5DF" width="3.908" height="2.409"/>
	
		<rect x="23.02" y="29.085" transform="matrix(-0.7071 -0.7071 0.7071 -0.7071 23.3311 70.2432)" fill="#CDD5DF" width="6.386" height="2.41"/>
	
		<rect x="21.059" y="34.038" transform="matrix(-0.7072 -0.707 0.707 -0.7072 14.3724 76.4361)" fill="#CDD5DF" width="3.908" height="2.409"/>
	
		<rect x="31.173" y="20.932" transform="matrix(-0.707 -0.7072 0.7072 -0.707 43.0083 62.0917)" fill="#CDD5DF" width="6.385" height="2.411"/>
	
		<rect x="29.211" y="25.885" transform="matrix(-0.7072 -0.707 0.707 -0.7072 34.0539 68.2818)" fill="#CDD5DF" width="3.908" height="2.409"/>
	
		<rect x="39.325" y="12.78" transform="matrix(-0.7071 -0.7071 0.7071 -0.7071 62.6933 53.9381)" fill="#CDD5DF" width="6.386" height="2.409"/>
	
		<rect x="37.364" y="17.733" transform="matrix(-0.7072 -0.707 0.707 -0.7072 53.7354 60.1274)" fill="#CDD5DF" width="3.908" height="2.409"/>
	<path fill="#E7E9E8" d="M43.801,30.785l4.09,17.105l-17.105-4.089c0.27-0.867,0.758-1.705,1.472-2.42
		c0.86-0.859,1.896-1.399,2.959-1.604c0.204-1.063,0.751-2.105,1.603-2.959c0.854-0.852,1.896-1.398,2.959-1.603
		c0.205-1.064,0.744-2.1,1.604-2.959C42.096,31.543,42.934,31.056,43.801,30.785"/>
	<path fill="#F6B44B" d="M21.213,8.197l22.588,22.588c-0.867,0.271-1.705,0.758-2.419,1.472c-0.86,0.86-1.399,1.896-1.604,2.959
		c-1.063,0.204-2.105,0.751-2.959,1.604c-0.852,0.853-1.398,1.895-1.603,2.959c-1.063,0.204-2.099,0.744-2.959,1.604
		c-0.714,0.715-1.202,1.553-1.472,2.419L8.197,21.213L21.213,8.197z"/>
	
		<rect x="11.732" y="4.27" transform="matrix(-0.7071 -0.7071 0.7071 -0.7071 13.4733 32.5291)" fill="#F2F2F2" width="3.483" height="18.408"/>
	<path fill="#65C5B8" d="M18.752,5.733l-4.355-4.354c-1.695-1.695-4.443-1.695-6.138,0L1.378,8.26c-1.695,1.694-1.695,4.442,0,6.137
		l4.356,4.355L18.752,5.733z"/>
	<path fill="#FFD15C" d="M12.424,16.986l22.792,22.792c0.204-1.064,0.751-2.106,1.604-2.959c0.852-0.852,1.894-1.399,2.957-1.604
		L16.986,12.425L12.424,16.986z"/>
	<path fill="#40596B" d="M41.451,46.353l6.441,1.541l-1.539-6.441C43.931,42.03,42.029,43.932,41.451,46.353"/>
</g>
</svg>
