<?xml version="1.0" encoding="utf-8"?>
<!-- Generator: Adobe Illustrator 16.0.0, SVG Export Plug-In . SVG Version: 6.00 Build 0)  -->
<!DOCTYPE svg PUBLIC "-//W3C//DTD SVG 1.1//EN" "http://www.w3.org/Graphics/SVG/1.1/DTD/svg11.dtd">
<svg version="1.1" id="Layer_1" xmlns="http://www.w3.org/2000/svg" xmlns:xlink="http://www.w3.org/1999/xlink" x="0px" y="0px"
	 width="48px" height="48px" viewBox="0 0 48 48" enable-background="new 0 0 48 48" xml:space="preserve">
<g>
	<path fill="#F8B64C" d="M29.224,28.074l-0.98,1.08c-0.9,0.979-2.18,1.549-3.51,1.549h-1.461c-1.319,0-2.609-0.57-3.51-1.549
		l-0.979-1.08c-0.681-0.74-1.3-1.533-1.851-2.365L16.9,29.76l7.104,4.449l7.12-4.445v-4.133
		C30.558,26.492,29.924,27.311,29.224,28.074"/>
	<path fill="#F8B64C" d="M17.49,27.93c0.08,0.111,0.069,0.111-0.011,0H17.49z"/>
	<path fill="#F8B64C" d="M30.519,27.93c-0.08,0.111-0.09,0.111-0.01,0H30.519z"/>
	<g opacity="0.1">
		<g>
			<defs>
				<rect id="SVGID_257_" x="21.414" y="25.631" width="9.71" height="7.674"/>
			</defs>
			<clipPath id="SVGID_2_">
				<use xlink:href="#SVGID_257_"  overflow="visible"/>
			</clipPath>
			<path clip-path="url(#SVGID_2_)" fill="#40596B" d="M28.312,29.086c-0.9,0.99-2.188,1.617-3.528,1.617h-1.5
				c-0.649,0-1.28-0.141-1.87-0.4l4.039,3.002l5.672-3.543v-4.129c-0.551,0.83-0.925,1.361-1.604,2.111L28.312,29.086z"/>
		</g>
	</g>
	<path fill="#F8B64C" d="M16.714,14.637c0.146,1.674-0.666,3.115-1.816,3.215c-1.149,0.102-2.2-1.176-2.346-2.852
		c-0.147-1.674,0.666-3.115,1.814-3.215C15.517,11.684,16.567,12.961,16.714,14.637"/>
	<path fill="#F8B64C" d="M35.457,15c-0.148,1.676-1.197,2.953-2.348,2.852c-1.148-0.1-1.962-1.541-1.814-3.215
		c0.146-1.676,1.196-2.953,2.346-2.852C34.791,11.885,35.603,13.326,35.457,15"/>
	<path fill="#FFD15C" d="M34.054,18.184c-0.301,1.689-0.791,3.34-1.511,4.891c-0.829,1.811-1.95,3.51-3.319,5l-0.98,1.08
		c-0.9,0.98-2.18,1.549-3.51,1.549h-1.461c-1.319,0-2.609-0.568-3.51-1.549l-0.979-1.08c-1.37-1.49-2.49-3.189-3.319-5
		c-0.711-1.551-1.211-3.201-1.511-4.891c-0.28-1.629-0.63-6.561,0.12-9.219c1.22-4.301,5.04-7.391,9.93-7.512
		c4.891,0.121,8.711,3.211,9.93,7.512C34.683,11.623,34.333,16.555,34.054,18.184"/>
	<path fill="#CDD6E0" d="M48.001,39.574v8.271h-48v-8.271c0-1.91,1.17-3.629,2.949-4.318l13.95-5.49l7.101,4.443l7.123-4.447
		l13.937,5.494C46.832,35.955,48.001,37.664,48.001,39.574"/>
	<path fill="#40596B" d="M33.842,11.922c-0.644-0.934-1.554-2.02-1.558-2.041c-0.369-1.75-2.203-2.797-3.905-2.246
		c-0.827,0.268-2.177,0.484-4.374,0.484s-3.547-0.221-4.374-0.49c-1.7-0.553-3.536,0.498-3.905,2.248
		c-0.004,0.02-0.969,1.17-1.615,2.131c-0.328,0.486-0.466,4.529-0.466,4.529c-2.216-5.85,0.448-15.252,6.632-16.191
		c1.596-0.242,3.729-0.186,3.729-0.186s2.13-0.055,3.723,0.186c6.186,0.938,8.85,10.344,6.631,16.195
		C34.359,16.541,34.195,12.432,33.842,11.922"/>
	<polygon fill="#F2F2F2" points="16.901,29.766 23.996,34.209 19.464,39.949 14.226,30.816 	"/>
	<polygon fill="#F2F2F2" points="31.124,29.762 23.995,34.209 28.525,39.949 33.763,30.818 	"/>
	<polygon fill="#FF7058" points="26.449,37.314 23.999,40.416 21.548,37.314 23.999,34.205 	"/>
	<polygon fill="#FF7058" points="27.707,47.846 20.318,47.846 22.57,37.943 25.454,37.943 	"/>
	<path fill="#40596B" d="M45.048,35.256c1.78,0.689,2.95,2.41,2.95,4.32v8.27H24.002l9.769-17.027L45.048,35.256z"/>
	<path fill="#40596B" d="M2.949,35.256c-1.78,0.689-2.95,2.41-2.95,4.32v8.27h23.996l-9.769-17.027L2.949,35.256z"/>
	<rect x="21.277" y="13.65" fill="#40596B" width="5.309" height="1.512"/>
	<path fill="#40596B" d="M19.105,18.508h-0.92c-2.355,0-4.266-1.91-4.266-4.266V13.65h9.451v0.592
		C23.371,16.598,21.46,18.508,19.105,18.508"/>
	<path fill="#40596B" d="M29.822,18.508h-0.92c-2.355,0-4.266-1.91-4.266-4.266V13.65h9.451v0.592
		C34.087,16.598,32.177,18.508,29.822,18.508"/>
</g>
</svg>
