<?xml version="1.0" encoding="utf-8"?>
<!-- Generator: Adobe Illustrator 18.0.0, SVG Export Plug-In . SVG Version: 6.00 Build 0)  -->
<!DOCTYPE svg PUBLIC "-//W3C//DTD SVG 1.1//EN" "http://www.w3.org/Graphics/SVG/1.1/DTD/svg11.dtd">
<svg version="1.1" id="Layer_1" xmlns="http://www.w3.org/2000/svg" xmlns:xlink="http://www.w3.org/1999/xlink" x="0px" y="0px"
	 viewBox="0 0 48 48" enable-background="new 0 0 48 48" xml:space="preserve">
<g>
	<g>
		<g>
			<path fill="#67C6B9" d="M37.1,5.4C33.6,1.9,28.9,0,24,0C19,0,14.4,1.9,10.9,5.4c-0.6,0.6-0.6,1.7,0,2.3c0.3,0.3,0.7,0.5,1.2,0.5
				c0.4,0,0.8-0.2,1.2-0.5c2.9-2.9,6.7-4.5,10.8-4.5c4.1,0,7.9,1.6,10.8,4.5c0.6,0.6,1.7,0.6,2.3,0C37.7,7.1,37.7,6.1,37.1,5.4z"/>
			<path fill="#67C6B9" d="M15.5,10c-0.6,0.6-0.6,1.7,0,2.3c0.6,0.6,1.7,0.6,2.3,0c3.4-3.4,9-3.4,12.4,0c0.3,0.3,0.7,0.5,1.2,0.5
				c0.4,0,0.8-0.2,1.2-0.5c0.6-0.6,0.6-1.7,0-2.3C27.8,5.3,20.2,5.3,15.5,10z"/>
			<path fill="#67C6B9" d="M20,14.5c-0.6,0.6-0.6,1.7,0,2.3c0.6,0.6,1.7,0.6,2.3,0c0.9-0.9,2.4-0.9,3.3,0c0.3,0.3,0.7,0.5,1.2,0.5
				c0.4,0,0.8-0.2,1.2-0.5c0.6-0.6,0.6-1.7,0-2.3C25.8,12.4,22.2,12.3,20,14.5z"/>
		</g>
		<g>
			<g>
				<g>
					<g>
						<g>
							<path fill="#F3705B" d="M47.9,38.9c-0.2-2.4-1.7-4.5-3.9-5.6c-1.5-0.8-3.6-1.6-6.5-2.7c-0.1-0.1-0.3-0.2-0.4-0.4
								c-6.3-5.1-8.2-8-16.3-8.3h-15c-0.8,0-1.5,0.7-1.9,1.4c-3.5,6.1-3.6,12.1-3.9,18c-0.1,1,0.8,1.9,1.8,1.9h44.4
								c1,0,1.8-0.8,1.8-1.7C48,40.8,48,39.8,47.9,38.9z"/>
							<g>
								<path fill="#435B6C" d="M16.6,23.8H7.9c-0.1,0-0.3,0.2-0.4,0.5c-1.5,2.7-2.8,5.3-3.7,7.8h12.8V23.8z"/>
								<path fill="#435B6C" d="M36.4,32c-0.1-0.1-0.3-0.2-0.4-0.4c-1.1-0.9-2-1.7-2.9-2.4c-4.3-3.6-6.2-5.3-12.4-5.5h-2.2v8.3
									L36.4,32L36.4,32z"/>
							</g>
						</g>
					</g>
				</g>
			</g>
			<g>
				<g>
					<path fill="#354B5E" d="M9.6,37.2c-3.3,0-6,2.7-6,6h12C15.6,39.9,12.9,37.2,9.6,37.2z"/>
					<g>
						<g>
							<g>
								<circle fill="#435B6C" cx="9.6" cy="43.2" r="4.8"/>
								<g>
									<circle fill="#FFFFFF" cx="9.6" cy="43.2" r="2.1"/>
								</g>
							</g>
						</g>
					</g>
				</g>
				<g>
					<path fill="#354B5E" d="M37.5,37.2c-3.3,0-6,2.7-6,6h12C43.5,39.9,40.8,37.2,37.5,37.2z"/>
					<g>
						<g>
							<g>
								<circle fill="#435B6C" cx="37.5" cy="43.2" r="4.8"/>
								<g>
									<circle fill="#FFFFFF" cx="37.5" cy="43.2" r="2.1"/>
								</g>
							</g>
						</g>
					</g>
				</g>
			</g>
		</g>
	</g>
</g>
</svg>
