<?xml version="1.0" encoding="utf-8"?>
<!-- Generator: Adobe Illustrator 16.0.0, SVG Export Plug-In . SVG Version: 6.00 Build 0)  -->
<!DOCTYPE svg PUBLIC "-//W3C//DTD SVG 1.1//EN" "http://www.w3.org/Graphics/SVG/1.1/DTD/svg11.dtd">
<svg version="1.1" id="Layer_1" xmlns="http://www.w3.org/2000/svg" xmlns:xlink="http://www.w3.org/1999/xlink" x="0px" y="0px"
	 width="48px" height="48px" viewBox="0 0 48 48" enable-background="new 0 0 48 48" xml:space="preserve">
<g>
	<path fill="#E8EAEA" d="M35.067,29.324c-2.487-0.006-5.569,5.658-5.569,5.658c-2.433,2.414-8.063,0.705-12.576-3.814
		c-4.513-4.521-6.198-10.143-3.767-12.555c0,0,5.563-3.18,5.57-5.66C18.735,8.385,10.376,0.012,5.793,0
		C4.765-0.002,2.876,2.895,2.876,2.895c-6.283,6.232-1.928,20.75,9.727,32.424c11.655,11.674,26.197,16.086,32.48,9.854
		c0,0,2.915-1.869,2.917-2.895C48.011,37.709,39.651,29.334,35.067,29.324"/>
	<path fill="#ACB3BA" d="M16.312,16.418c1.32-1.205,2.412-2.49,2.414-3.465C18.735,8.385,10.376,0.012,5.793,0
		C4.765-0.002,2.875,2.895,2.875,2.895C2.864,2.906,2.854,2.918,2.844,2.928L16.312,16.418z"/>
	<path fill="#ACB3BA" d="M31.581,31.713l13.468,13.49c0.011-0.012,0.022-0.021,0.034-0.031c0,0,2.915-1.869,2.917-2.895
		c0.011-4.568-8.349-12.943-12.933-12.953C34.092,29.322,32.796,30.402,31.581,31.713"/>
	<path fill="#4CDBC4" d="M47.999,9.861c0,5.449-5.78,9.871-12.92,9.871c-0.211,0-0.41,0-0.61-0.012l-7.31,3.861v-5.93
		c-3.041-1.801-4.99-4.621-4.99-7.791c0-5.439,5.779-9.859,12.91-9.859C42.219,0.002,47.999,4.422,47.999,9.861"/>
	<path fill="#FFFFFF" d="M30.687,9.863c0,1.184-0.959,2.143-2.143,2.143s-2.143-0.959-2.143-2.143c0-1.182,0.959-2.141,2.143-2.141
		S30.687,8.682,30.687,9.863"/>
	<path fill="#FFFFFF" d="M37.226,9.863c0,1.184-0.959,2.143-2.143,2.143s-2.143-0.959-2.143-2.143c0-1.182,0.959-2.141,2.143-2.141
		S37.226,8.682,37.226,9.863"/>
	<path fill="#FFFFFF" d="M43.764,9.863c0,1.184-0.959,2.143-2.142,2.143c-1.184,0-2.143-0.959-2.143-2.143
		c0-1.182,0.959-2.141,2.143-2.141C42.805,7.723,43.764,8.682,43.764,9.863"/>
</g>
</svg>
