<?xml version="1.0" encoding="utf-8"?>
<!-- Generator: Adobe Illustrator 18.0.0, SVG Export Plug-In . SVG Version: 6.00 Build 0)  -->
<!DOCTYPE svg PUBLIC "-//W3C//DTD SVG 1.1//EN" "http://www.w3.org/Graphics/SVG/1.1/DTD/svg11.dtd">
<svg version="1.1" id="Layer_1" xmlns="http://www.w3.org/2000/svg" xmlns:xlink="http://www.w3.org/1999/xlink" x="0px" y="0px"
	 viewBox="0 0 48 48" enable-background="new 0 0 48 48" xml:space="preserve">
<g>
	<g>
		<g>
			<path fill="#F3F3F3" d="M43.2,12.8L30.4,0L6.8,0c-1.1,0-2,0.9-2,2v44c0,1.1,0.9,2,2,2h34.4c1.1,0,2-0.9,2-2L43.2,12.8z"/>
			<polygon fill="#E8EAE9" points="30.4,0 43.2,12.8 30.4,12.8 			"/>
		</g>
		<g>
			<g>
				<path fill="#415A6B" d="M15.5,27.9h1.9l0.4-1.7c0.5-0.1,1-0.3,1.5-0.5l1.6,1l1.3-1.3l-0.9-1.5c0.3-0.4,0.5-0.9,0.7-1.4l1.8-0.4
					v-1.9L22,19.8c-0.1-0.5-0.3-1-0.5-1.5l1-1.6l-1.3-1.3l-1.4,0.9c-0.4-0.3-0.9-0.5-1.4-0.7l-0.4-1.8H16l-0.4,1.7
					c-0.5,0.1-1,0.3-1.5,0.5l-1.6-1l-1.3,1.3l0.9,1.4c-0.3,0.4-0.5,0.9-0.7,1.4l-1.8,0.4v1.9l1.7,0.4c0.1,0.5,0.3,1,0.5,1.5l-1,1.6
					l1.3,1.3l1.5-0.9c0.4,0.3,0.9,0.5,1.4,0.7L15.5,27.9z M14.1,20.9c0-1.4,1.2-2.6,2.6-2.6c1.4,0,2.6,1.2,2.6,2.6
					c0,1.4-1.2,2.6-2.6,2.6C15.2,23.5,14.1,22.4,14.1,20.9z"/>
			</g>
			<g>
				<path fill="#F05540" d="M24,41.7l2.5,0.8l1.2-2.1c0.7,0.1,1.5,0.1,2.2-0.1l1.7,2l2.4-1.2l-0.6-2.3c0.6-0.5,1.1-1,1.5-1.6
					l2.6,0.2l0.8-2.5l-2.1-1.2c0.1-0.8,0.1-1.5-0.1-2.2l2-1.7L37,27.5l-2.3,0.6c-0.5-0.6-1-1.1-1.6-1.5l0.2-2.6l-2.5-0.8l-1.2,2.1
					c-0.8-0.1-1.5-0.1-2.2,0.1l-1.7-2l-2.4,1.2l0.6,2.3c-0.6,0.5-1.1,1-1.5,1.6l-2.6-0.2L19,30.7L21,32c-0.1,0.8-0.1,1.5,0.1,2.2
					l-2,1.7l1.2,2.4l2.3-0.6c0.5,0.6,1,1.1,1.6,1.5L24,41.7z M25.2,31.7c0.6-1.9,2.7-3,4.6-2.4c1.9,0.6,3,2.7,2.4,4.6
					c-0.6,1.9-2.7,3-4.6,2.4C25.6,35.7,24.5,33.7,25.2,31.7z"/>
			</g>
		</g>
	</g>
</g>
</svg>
