<?xml version="1.0" encoding="utf-8"?>
<!-- Generator: Adobe Illustrator 18.0.0, SVG Export Plug-In . SVG Version: 6.00 Build 0)  -->
<!DOCTYPE svg PUBLIC "-//W3C//DTD SVG 1.1//EN" "http://www.w3.org/Graphics/SVG/1.1/DTD/svg11.dtd">
<svg version="1.1" id="Layer_1" xmlns="http://www.w3.org/2000/svg" xmlns:xlink="http://www.w3.org/1999/xlink" x="0px" y="0px"
	 viewBox="0 0 48 48" enable-background="new 0 0 48 48" xml:space="preserve">
<g>
	<g>
		<g>
			<g>
				<path fill="#FFD15C" d="M38.1,32.1l0.7-0.1c0,0,2.6,2,4,3.4s1.8,1.9,2.3,2.2s0.8,0.6,0.9,0.9c0.1,0.3,0.6,0.5,0.6,0.5
					s0.6,0.8,0.9,1.3s0.3,0.6,0.3,0.6s0.4,0.7-0.1,0.9c0,0-0.1,0.4-0.3,0.2c0,0,0.1,0.2-0.4,0.1c0,0-0.5,0.3-0.6,0
					c-0.1-0.3-0.1-0.3-0.1-0.3s-0.1,0.5-0.6,0.4c-0.5-0.1-0.6-0.3-0.6-0.4c0,0-0.2-0.5-0.1-0.9c0.1-0.3,0.1-0.9-0.1-1.1
					c-0.2-0.2-0.5-0.4-0.5-0.4s-0.3-0.1-0.5-0.6c-0.2-0.4-3.1-1.9-3.1-1.9s-3.3-1.4-4.2-2.7L38.1,32.1z"/>
			</g>
		</g>
	</g>
	<g>
		<g>
			<g>
				<path fill="#FFD15C" d="M8.6,29.4l0.7,0.4c0,0-0.1,2.1-0.7,3.1c-0.6,1-0.8,4.6-0.8,4.6s0,1.4,0.1,1.7C8,39.4,8,40.5,6.8,40.4
					c-1.2-0.1-1.4-0.2-1.4-0.2s-1.3-0.1-2,0.2c-0.8,0.3-1.4,0.4-1.9,0.2c0,0-1.5,0.5-1.5-0.3c0,0,0.2-0.1,0.3-0.1
					c0,0,0.1-0.1,0.2-0.1c0,0,0.2-0.1,0.2-0.1c0,0,0.5,0,0.7-0.1c0.2-0.2,1.8-1.1,1.8-1.1s0.9-0.6,1.1-0.7c0.2-0.1,0.5-0.4,0.6-0.7
					c0.1-0.4,0.7-1.8,0.6-3.7c-0.1-1.9-0.3-3.7,0.2-5L8.6,29.4z"/>
			</g>
		</g>
	</g>
	<g>
		<g>
			<g>
				<path fill="#E8EAE8" d="M22.8,20.6c0,0,0.3-0.8,0.3-1.2c0,0,1.7,0.6,2.7,1.9c0.3,0.3,3.4,2.4,7,6.1c0,0,2.9,2.4,4.3,3.2
					c1.4,0.8,1.8,1.2,1.8,1.2s-0.7,2.2-2.1,2.7c0,0-0.9-1-1.3-1.1c-0.3-0.1-0.8-0.1-0.8-0.1s-4.1-1.6-6.6-3
					c-2.5-1.4-4.9-2.5-5.2-2.5c-0.3,0-0.1,0-0.1,0s-2.2,1.6-5.7,1.4c-3.5-0.2-6.9-0.2-7.8-0.3c0,0,0.1,0.8,0.1,0.9
					c0,0-0.9,0.9-2.6,0c0,0-1.1-0.5-1.3-0.9c0,0,0.2-0.7,0.2-1.4c0-0.6,0.2-2.9,1.5-3.1c1.3-0.2,3.7-0.7,3.7-0.7s5.1-0.7,6.1-0.4
					L22.8,20.6z"/>
			</g>
		</g>
	</g>
	<g>
		<g>
			<g>
				<g>
					<path fill="#FFD15C" d="M20.2,29.4c-0.2,0.2-0.3,0.2-0.5,0.2c-0.1,0-0.2,0.2-0.2,0.2s-0.2,0.3-0.5,0.4
						c-0.3,0.1-0.7,0.6-0.7,0.6S18.1,31,17.9,31c-0.2,0-0.5,0.1-0.5,0.1s-0.2,0-0.4-0.2c-0.2-0.2-2.2-1.3-3-1.7c0,0-0.1,0-0.1-0.1
						c-0.9-0.5-3.2-2-3.2-2s-0.1,0.1-0.4-0.6c-0.2-0.6-1.9-3.1-2.5-4.6c0,0-0.5-0.7-1-1.7s-0.8-2-0.6-2.8c0.3-0.8,0.6-1.4,0.6-1.4
						s0.8-1.5,0.9-2.2c0.1-0.7-0.2-1.3-0.3-1.5c-0.2-0.2-2.6-2.1-2.6-2.1l2.4-2.1l2.8,0.1c0,0-0.5,1.6,0.1,2.1
						c0.6,0.5,1.2,0.6,1.6,0.4c0.4-0.2,1.4-0.7,1.4-0.7s1.2-0.7,1.8-0.6c0.6,0.1,1.1,0.5,1.1,0.8c0.1,0.3,0.4,1.3,0.4,1.5
						c0.1,0.2,0.4,2.2,0.4,2.2l-6.7,6.2c0,0,0.2,1,0.6,1.9c0.4,0.9,1.3,2.9,1.3,2.9s0.1,0.3,0.4,0.5c0.3,0.2,1.8,1.3,2.6,2
						c0.5,0.5,1.3,1.1,1.8,1.4c0.3,0.2,0.5,0.3,0.5,0.3l0.1-0.3c0.1,0,0.3,0,0.4,0c0.1,0,0.2,0,0.3,0c0,0,0,0,0,0
						c0.7,0,1.4-0.1,1.9-0.3c0,0,0,0,0,0c0.1,0,0.1,0,0.1,0C20.3,29,20.4,29.2,20.2,29.4z"/>
				</g>
			</g>
		</g>
	</g>
	<g>
		<g>
			<g>
				<path fill="#F26F5A" d="M12.2,10.5c0,0,0.6,0.2,0.9,0.6s0.8,1,1.3,1.4c0.6,0.4,1,0.7,1.5,0.8c0.5,0.2,0.7,0.7,0.7,0.7
					s0.7,0.9,0.9,1.1c0.2,0.2,1.9,2.4,3.3,3.3c1.4,0.9,2.2,1.1,2.2,1.1s0.4,0.4,0.3,1.1c-0.2,0.8-1.1,2.6-3.1,3.7
					c-2,1.1-2.4,0.7-3,0.4c-0.6-0.4-1-0.4-1.1-0.9c0,0-0.1-0.4-1.4-1.1c-1.3-0.7-1.7-1-1.7-1s-0.7-0.1-1.4-0.7l-1.5-0.5
					c0,0,0-0.8-0.4-1.6C9.2,18,9,17.3,8.2,16.7C7.4,16,6.7,16,6.7,16l0.5-1c0,0,1.1,0.8,1.3,1c0.2,0.2,1,1,1.2,1.2
					c0.2,0.2,1.1,1,2.1,0.3c1-0.8,2.1-2.5,2.1-3c0-0.4,0.1-0.7-0.3-1.5c-0.4-0.8-1.7-2.2-2.2-2.4C11,10.5,12.2,10.5,12.2,10.5z"/>
			</g>
		</g>
	</g>
	<g>
		<g>
			<g>
				<g>
					<path fill="#FFD15C" d="M5.8,5.7c0,0,1,0,1.7,0.3c0,0,0,0.2,0.2,0.2c0.3,0,1.1,0,1.1,0S9,6.4,8.9,6.7C8.9,6.9,8.9,7,8.9,7
						s0,0.1,0.2,0.2c0.3,0.1,0.3,0.2,0.2,0.3c0,0,0.3-0.1,0.4,0.1c0,0,0.3,0.3,0.5,0.4c0.3,0.1,0.3,0.6,0,0.8C9.9,9,8.3,10.3,5.7,10
						L3.7,8.4C3.7,8.4,3.9,5.4,5.8,5.7z"/>
				</g>
			</g>
		</g>
	</g>
	<g>
		<g>
			<g>
				<g>
					<path fill="#425A6B" d="M6.2,5.7C5.7,5.9,5.1,6,4.9,6.4c0.1,0,0.2,0.1,0.4,0.2C5.4,6.8,5.5,7,5.5,7.2c0,0.1-0.1,0.2-0.1,0.4
						c0,0.2,0.1,0.3,0.2,0.4c0.3,0.3,0.6,0.7,1,1C6.3,9,6.1,8.8,6,8.6C6,8.8,5.8,8.9,5.6,9C5.5,9.1,5.3,9.2,5.2,9.3
						c-0.2,0.2-0.1,0.5,0,0.7c0.1,0.2,0.4,0.4,0.6,0.5c0.2,0.1,0.5,0.2,0.7,0.4c0.4,0.3,0.6,0.9,0.7,1.4c0,0,0,0,0,0
						c-0.5-0.4-1.2-0.7-1.8-0.6c-0.2,0-0.4,0.1-0.6,0.2c-0.1,0.2-0.2,0.5,0,0.6c-0.2,0-0.5,0-0.7,0.1c-0.5-0.5-1.1-1.1-1.4-1.8
						c-0.3-0.6-0.5-1.4-0.4-2.1C2.3,8,2.6,7.3,3,6.8C3.8,5.8,5.1,5.6,6.2,5.7z"/>
				</g>
			</g>
		</g>
		<g>
			<g>
				<g>
					<path fill="#425A6B" d="M3.9,12.1c0.2,0.5,0.2,1.1,0,1.7c-0.2,0.4-0.4,0.8-0.6,1.2c-0.2,0.5-0.1,1.1,0.1,1.6
						c0.2,0.5,0.7,0.9,1.2,1.1c-0.3-0.2-0.4-0.6-0.3-0.9c0.1-0.3,0.3-0.6,0.5-0.9c0.2-0.3,0.5-0.5,0.6-0.9c0.2-0.6,0.1-1.2-0.2-1.8
						c-0.3-0.5-0.8-1-1.2-1.4"/>
				</g>
			</g>
		</g>
	</g>
	<g>
		<g>
			<g>
				<path fill="#F26F5A" d="M4.7,12.3c0.1,0.1,0.2,0.3,0.2,0.4c-0.3,0-0.6,0-0.8,0.1c-0.1-0.1-0.2-0.3-0.2-0.4
					C4.2,12.4,4.5,12.4,4.7,12.3z"/>
			</g>
		</g>
	</g>
	<g>
		<g>
			<g>
				<ellipse fill="#FFD15C" cx="6" cy="9.8" rx="1.2" ry="0.6"/>
			</g>
		</g>
	</g>
	<g>
		<g>
			<g>
				<path fill="#FFD15C" d="M17.5,29.2c0,0,0.3-0.3,0.8,0c0.5,0.3-0.1,0.5-0.1,0.5L17.5,29.2z"/>
			</g>
		</g>
	</g>
	<g>
		<g>
			<path fill="#F5B54C" d="M9.8,9.8c-1.2,0.5-2.6,0.3-2.6,0.3c1.5-0.2,2.7-1,2.7-1C9.8,9.3,9.8,9.5,9.8,9.8z"/>
		</g>
	</g>
</g>
</svg>
