<?xml version="1.0" encoding="utf-8"?>
<!-- Generator: Adobe Illustrator 20.1.0, SVG Export Plug-In . SVG Version: 6.00 Build 0)  -->
<!DOCTYPE svg PUBLIC "-//W3C//DTD SVG 1.1//EN" "http://www.w3.org/Graphics/SVG/1.1/DTD/svg11.dtd">
<svg version="1.1" id="Layer_1" xmlns="http://www.w3.org/2000/svg" xmlns:xlink="http://www.w3.org/1999/xlink" x="0px" y="0px"
	 viewBox="0 0 49 49" enable-background="new 0 0 49 49" xml:space="preserve">
<g>
	<rect x="21" y="34.1" fill="#40596B" width="2.7" height="12.7"/>
	<path fill="#40596B" d="M27.3,45.8h-10c-0.7,0-1.4,0.6-1.4,1.4c0,0.7,0.6,1.4,1.4,1.4h10c0.7,0,1.4-0.6,1.4-1.4
		C28.7,46.4,28.1,45.8,27.3,45.8z"/>
	<path fill="#F2F2F2" d="M35.3,23.9c-0.8-5.8-1.1-11.7-0.8-17.5H10.2c0.3,5.8,0,11.7-0.8,17.5l-0.4,2.6C8,34.6,14.2,41.7,22.4,41.7
		c8.1,0,14.4-7.2,13.3-15.2L35.3,23.9z"/>
	<path fill="#84DBFF" d="M33.8,24.1c-0.4-2.7-0.6-5.4-0.8-8.2H11.7c-0.1,2.7-0.4,5.5-0.8,8.2l-0.4,2.6c-0.5,3.4,0.6,6.9,2.8,9.5
		c2.3,2.6,5.5,4.1,9,4.1c3.4,0,6.7-1.5,9-4.1c2.3-2.6,3.3-6,2.8-9.5L33.8,24.1z"/>
	<path fill="#FF7058" d="M40,1.3c-0.1-0.5-0.6-0.9-1.2-0.8l-9.4,2.8c-0.3,0.1-0.6,0.3-0.7,0.6l-5,12h2.2l4.5-10.7l8.9-2.7
		C39.8,2.4,40.1,1.8,40,1.3z"/>
</g>
</svg>
