<?xml version="1.0" encoding="utf-8"?>
<!-- Generator: Adobe Illustrator 18.0.0, SVG Export Plug-In . SVG Version: 6.00 Build 0)  -->
<!DOCTYPE svg PUBLIC "-//W3C//DTD SVG 1.1//EN" "http://www.w3.org/Graphics/SVG/1.1/DTD/svg11.dtd">
<svg version="1.1" id="Layer_1" xmlns="http://www.w3.org/2000/svg" xmlns:xlink="http://www.w3.org/1999/xlink" x="0px" y="0px"
	 viewBox="0 0 512 512" enable-background="new 0 0 512 512" xml:space="preserve">
<g>
	<rect x="32.5" y="241.8" fill="#F2F2F2" width="447.1" height="212.1"/>
	<path fill="#41596B" d="M256,278.2c-23.4,0-42.4,19-42.4,42.4c0,14.3,7.1,26.9,17.9,34.5v37.8c0,13.5,11,24.5,24.5,24.5
		c13.5,0,24.5-11,24.5-24.5v-37.8c10.8-7.7,17.9-20.3,17.9-34.5C298.4,297.2,279.4,278.2,256,278.2z"/>
	<path fill="#ABB2B9" d="M252.4,2c-74.3,0-134.7,60.4-134.7,134.6v48.9h66.9v-48.9c0-37.3,30.4-67.7,67.7-67.7
		c37.3,0,67.7,30.4,67.7,67.7v48.9H387v-48.9C387,62.4,326.6,2,252.4,2z"/>
	<path fill="#41596B" d="M458.4,185.6H53.6c-11.7,0-21.2,9.5-21.2,21.2v35h447.1v-35C479.5,195.1,470,185.6,458.4,185.6z"/>
	<rect x="117.7" y="174.1" fill="#9EA3A9" width="66.9" height="11.5"/>
	<rect x="320.1" y="174.1" fill="#9EA3A9" width="66.9" height="11.5"/>
	<path fill="#41596B" d="M32.5,453.8v35c0,11.7,9.5,21.2,21.2,21.2h404.7c11.7,0,21.2-9.5,21.2-21.2v-35H32.5z"/>
</g>
</svg>
