<?xml version="1.0" encoding="utf-8"?>
<!-- Generator: Adobe Illustrator 18.0.0, SVG Export Plug-In . SVG Version: 6.00 Build 0)  -->
<!DOCTYPE svg PUBLIC "-//W3C//DTD SVG 1.1//EN" "http://www.w3.org/Graphics/SVG/1.1/DTD/svg11.dtd">
<svg version="1.1" id="Layer_1" xmlns="http://www.w3.org/2000/svg" xmlns:xlink="http://www.w3.org/1999/xlink" x="0px" y="0px"
	 viewBox="0 0 48 48" enable-background="new 0 0 48 48" xml:space="preserve">
<g>
	<g>
		<g>
			<polygon fill="#CDD6E0" points="0,0 9.9,8.7 8.8,9.9 			"/>
		</g>
	</g>
	<g>
		<path fill="#FF7058" d="M35,46.7C32.4,44.1,28,28,28,28s16.1,4.3,18.7,6.9c0,0,0,0,0.1,0.1c2.8,2.8,0.5,7.6-3.5,7.5l-0.8,0l0,0.8
			c0.2,3.7-4.2,6.1-7.1,3.8C35.2,47,35.1,46.8,35,46.7z"/>
	</g>
	<polygon fill="#40596B" points="44.5,44.5 22,17.2 17.2,22 44.5,44.5 	"/>
	<path fill="#FF7058" d="M22.2,17.8c0.3-0.3,0.3-0.7,0-1l-7.7-7.7c-1.6-1.6-4-1.8-5.8-0.5c-1.3,1.8-1.1,4.2,0.5,5.8l7.7,7.7
		c0.3,0.3,0.7,0.3,1,0L22.2,17.8z"/>
	<g>
		<path fill="#FFD15C" d="M11.9,7.9C10.8,7.8,9.7,8,8.7,8.7c-0.7,1-0.9,2.1-0.8,3.2L11.9,7.9z"/>
	</g>
	<g>
		
			<rect x="13.7" y="16.8" transform="matrix(-0.7075 0.7067 -0.7067 -0.7075 42.072 17.416)" fill="#FFD15C" width="7.5" height="1.2"/>
		
			<rect x="11" y="14.2" transform="matrix(0.7075 -0.7067 0.7067 0.7075 -6.1227 14.7904)" fill="#FFD15C" width="7.5" height="1.2"/>
	</g>
</g>
</svg>
