<?xml version="1.0" encoding="utf-8"?>
<!-- Generator: Adobe Illustrator 18.0.0, SVG Export Plug-In . SVG Version: 6.00 Build 0)  -->
<!DOCTYPE svg PUBLIC "-//W3C//DTD SVG 1.1//EN" "http://www.w3.org/Graphics/SVG/1.1/DTD/svg11.dtd">
<svg version="1.1" id="Layer_1" xmlns="http://www.w3.org/2000/svg" xmlns:xlink="http://www.w3.org/1999/xlink" x="0px" y="0px"
	 viewBox="0 0 48 48" enable-background="new 0 0 48 48" xml:space="preserve">
<g>
	<g>
		<g>
			<path fill="#415A6B" d="M44.2,33.1H3.8V5.9c0-1.5,1.2-2.7,2.7-2.7h34.9c1.5,0,2.7,1.2,2.7,2.7V33.1z"/>
			<polygon fill="#344A5E" points="0,40.9 3.8,33.1 44.2,33.1 48,40.9 			"/>
			<polygon fill="#415A6B" points="19.3,38.7 20.9,35.3 27.1,35.3 28.7,38.7 			"/>
			<path fill="#415A6B" d="M0,40.9c0,2.2,1.8,3.9,3.9,3.9h40.1c2.2,0,3.9-1.8,3.9-3.9H0z"/>
		</g>
		<rect x="7.5" y="6.8" fill="#F3F3F3" width="33.1" height="22.7"/>
		<g>
			<g>
				<path fill="#F3705A" d="M24,26.8c0,0,10.5-5.2,10.5-12.1c0-3-2.4-5.4-5.4-5.4c-2.4,0-4.4,1.5-5.1,3.6c-0.7-2.1-2.8-3.6-5.1-3.6
					c-3,0-5.4,2.4-5.4,5.4C13.5,21.8,24,26.8,24,26.8z"/>
			</g>
			<g>
				<path fill="#FFFFFF" d="M31.6,12.1c0.7,0.7,1.1,1.5,0.7,1.9c-0.3,0.4-1.2,0.1-1.9-0.5c-0.7-0.7-1.1-1.5-0.7-1.9
					S30.8,11.4,31.6,12.1z"/>
			</g>
		</g>
	</g>
</g>
</svg>
