<?xml version="1.0" encoding="utf-8"?>
<!-- Generator: Adobe Illustrator 16.0.0, SVG Export Plug-In . SVG Version: 6.00 Build 0)  -->
<!DOCTYPE svg PUBLIC "-//W3C//DTD SVG 1.1//EN" "http://www.w3.org/Graphics/SVG/1.1/DTD/svg11.dtd">
<svg version="1.1" id="Layer_1" xmlns="http://www.w3.org/2000/svg" xmlns:xlink="http://www.w3.org/1999/xlink" x="0px" y="0px"
	 width="48px" height="48px" viewBox="0 0 48 48" enable-background="new 0 0 48 48" xml:space="preserve">
<g>
	<path fill="#FFD15C" d="M18.065,16.211c-0.091,0.09-0.181,0.16-0.28,0.209c-0.391,0.23-0.891,0.23-1.29,0
		c-0.101-0.049-0.2-0.119-0.28-0.209L9.105,9.1c-0.51-0.51-0.51-1.34,0-1.85s1.34-0.51,1.85,0l0.73,0.73l6.38,6.381
		C18.585,14.871,18.585,15.701,18.065,16.211"/>
	<path fill="#84DBFF" d="M17.245,2.42l-5.56,5.561l-1.85,1.85l-1.011,1.01l-1.729,1.73l-0.49,0.49l-2.33,2.33
		c-1.04,1.029-2.48,0.6-2.26-0.68L3.925,3.65c0.06-0.34,0.229-0.67,0.479-0.939c0.021-0.031,0.04-0.061,0.069-0.09
		C4.505,2.59,4.535,2.57,4.565,2.551c0.271-0.26,0.6-0.43,0.94-0.49l11.069-1.9C17.855-0.059,18.285,1.381,17.245,2.42"/>
	<path fill="#54C0EB" d="M6.6,13.063l8.319-8.318c-0.057-0.021-0.114-0.039-0.172-0.053L5.225,2.477
		C4.9,2.4,4.639,2.461,4.478,2.621c-0.16,0.162-0.221,0.422-0.145,0.748l2.215,9.521C6.561,12.949,6.58,13.006,6.6,13.063"/>
	<path fill="#CDD6E0" d="M45.825,6.92c-0.36,0.631-1.17,0.83-1.79,0.471l-7.84-4.619c-0.38-0.221-0.74-0.15-0.92-0.092
		c-0.18,0.061-0.5,0.221-0.66,0.631l-2.99,7.529l-2.02,5.07c-0.08,0.211-0.211,0.381-0.37,0.51c-0.229,0.201-0.54,0.311-0.851,0.311
		c-0.16,0-0.319-0.029-0.479-0.09c-0.13-0.051-0.25-0.131-0.351-0.221c-0.43-0.35-0.6-0.939-0.379-1.479l1.629-4.102l3.371-8.488
		c0.41-1.021,1.229-1.801,2.26-2.15c1.02-0.35,2.15-0.24,3.09,0.309l7.84,4.621C45.985,5.5,46.195,6.301,45.825,6.92"/>
	<path fill="#FF7058" d="M6.949,15.422c-1.34,3.396-2.1,7.131-2.1,10.914C4.849,39.348,13.77,48,24.775,48
		c11.004,0,19.926-8.652,19.926-21.664c0-3.783-0.76-7.518-2.101-10.914H6.949z"/>
	<path fill="#F1543F" d="M27.775,47C16.77,47,7.849,38.348,7.849,25.336c0-3.418,0.624-6.791,1.732-9.914H6.949
		c-1.341,3.396-2.1,7.129-2.1,10.914C4.849,39.348,13.77,48,24.775,48c2.805,0,5.469-0.568,7.889-1.621
		C31.097,46.771,29.464,47,27.775,47"/>
	<polygon fill="#F9C44E" points="16.206,12.502 14.544,10.84 10.844,10.84 12.505,12.502 	"/>
	<polygon fill="#BDCCDB" points="30.962,12.502 31.625,10.84 28.805,10.84 28.144,12.502 	"/>
	<polygon fill="#F2F2F2" points="37.529,11.842 12.021,11.842 10.222,15.422 39.328,15.422 	"/>
</g>
</svg>
