<?xml version="1.0" encoding="utf-8"?>
<!-- Generator: Adobe Illustrator 18.0.0, SVG Export Plug-In . SVG Version: 6.00 Build 0)  -->
<!DOCTYPE svg PUBLIC "-//W3C//DTD SVG 1.1//EN" "http://www.w3.org/Graphics/SVG/1.1/DTD/svg11.dtd">
<svg version="1.1" id="Layer_1" xmlns="http://www.w3.org/2000/svg" xmlns:xlink="http://www.w3.org/1999/xlink" x="0px" y="0px"
	 viewBox="0 0 48 48" enable-background="new 0 0 48 48" xml:space="preserve">
<g>
	<g>
		<circle fill="#F8B64C" cx="34.6" cy="8.4" r="8.4"/>
		<g>
			<path fill="#FFD15C" d="M34.2,6.8V2.7c0-0.1-0.1-0.3-0.3-0.2c-1.1,0.1-2.2,0.6-3.1,1.3c-0.1,0.1-0.1,0.3,0,0.4L33.8,7
				C33.9,7.2,34.2,7.1,34.2,6.8z"/>
			<path fill="#FFD15C" d="M40.6,7.7c-0.1-1.1-0.6-2.2-1.3-3.1c-0.1-0.1-0.3-0.1-0.4,0L36,7.6C35.9,7.8,36,8,36.2,8h4.1
				C40.5,8,40.6,7.9,40.6,7.7z"/>
			<path fill="#FFD15C" d="M34.2,14.2V10c0-0.2-0.3-0.3-0.4-0.2l-2.9,2.9c-0.1,0.1-0.1,0.3,0,0.4c0.9,0.7,1.9,1.1,3.1,1.3
				C34.1,14.4,34.2,14.3,34.2,14.2z"/>
			<path fill="#FFD15C" d="M28.6,9.1c0.1,1.1,0.6,2.2,1.3,3.1c0.1,0.1,0.3,0.1,0.4,0l2.9-2.9c0.2-0.2,0-0.4-0.2-0.4h-4.1
				C28.7,8.9,28.6,9,28.6,9.1z"/>
			<path fill="#FFD15C" d="M29.9,4.7c-0.7,0.9-1.1,1.9-1.3,3.1c0,0.1,0.1,0.3,0.2,0.3H33c0.2,0,0.3-0.3,0.2-0.4l-2.9-2.9
				C30.1,4.6,30,4.6,29.9,4.7z"/>
			<path fill="#FFD15C" d="M34.6,0c-4.7,0-8.4,3.8-8.4,8.4c0,4.7,3.8,8.4,8.4,8.4S43,13.1,43,8.4C43,3.8,39.3,0,34.6,0z M34.6,15.5
				c-3.9,0-7.1-3.2-7.1-7.1s3.2-7.1,7.1-7.1s7.1,3.2,7.1,7.1S38.5,15.5,34.6,15.5z"/>
			<path fill="#FFD15C" d="M39.3,12.2c0.7-0.9,1.1-1.9,1.3-3.1c0-0.1-0.1-0.3-0.2-0.3h-4.1c-0.2,0-0.3,0.3-0.2,0.4l2.9,2.9
				C39,12.3,39.2,12.3,39.3,12.2z"/>
			<path fill="#FFD15C" d="M35.3,14.4c1.1-0.1,2.2-0.6,3.1-1.3c0.1-0.1,0.1-0.3,0-0.4l-2.9-2.9C35.3,9.7,35,9.8,35,10v4.1
				C35,14.3,35.1,14.4,35.3,14.4z"/>
			<path fill="#FFD15C" d="M35,2.7v4.1c0,0.2,0.3,0.3,0.4,0.2l2.9-2.9c0.1-0.1,0.1-0.3,0-0.4c-0.9-0.7-1.9-1.1-3.1-1.3
				C35.1,2.4,35,2.6,35,2.7z"/>
		</g>
	</g>
	<path fill="#F2F2F2" d="M7.2,8.4V46c0,1.1,0.9,2,2,2h23.4c1.1,0,2-0.9,2-2V8.4H7.2z"/>
	<polygon fill="#F8B64C" points="8.6,0 5,0 15.6,27.4 18.6,25.9 	"/>
	<rect x="9.2" y="17.3" fill="#FFD15C" width="23.4" height="25.1"/>
	<g>
		<path fill="#F8B64C" d="M17.7,29.5c-0.6-0.6-1.7-0.6-2.3,0l-2.7,2.7c-0.6,0.6-0.6,1.7,0,2.3l2.7,2.7c0.6,0.6,1.7,0.6,2.3,0
			l2.7-2.7c0.6-0.6,0.6-1.7,0-2.3L17.7,29.5z"/>
		<path fill="#F8B64C" d="M29.1,25.2l-2.7-2.7c-0.6-0.6-1.7-0.6-2.3,0l-2.7,2.7c-0.6,0.6-0.6,1.7,0,2.3l2.7,2.7
			c0.6,0.6,1.7,0.6,2.3,0l2.7-2.7C29.7,26.8,29.7,25.8,29.1,25.2z"/>
	</g>
</g>
</svg>
