<?xml version="1.0" encoding="utf-8"?>
<!-- Generator: Adobe Illustrator 18.0.0, SVG Export Plug-In . SVG Version: 6.00 Build 0)  -->
<!DOCTYPE svg PUBLIC "-//W3C//DTD SVG 1.1//EN" "http://www.w3.org/Graphics/SVG/1.1/DTD/svg11.dtd">
<svg version="1.1" id="Layer_1" xmlns="http://www.w3.org/2000/svg" xmlns:xlink="http://www.w3.org/1999/xlink" x="0px" y="0px"
	 viewBox="0 0 48 48" enable-background="new 0 0 48 48" xml:space="preserve">
<g>
	<path fill="#CDD6E0" d="M38.7,48H6.2c-1.1,0-2-0.9-2-2V5.1c0-1.1,0.9-2,2-2H27c1.1,0,13.7,9,13.7,10.1V46
		C40.7,47.1,39.8,48,38.7,48z"/>
	<path fill="#F2F2F2" d="M35.7,0H9.3c-1.1,0-2,0.9-2,2v40.9c0,1.1,0.9,2,2,2h32.4c1.1,0,2-0.9,2-2V8L35.7,0z"/>
	<path fill="#CDD6E0" d="M35.7,6.3c0,1,0.8,1.8,1.8,1.8h6.3l-8-8V6.3z"/>
	<g>
		<rect x="17.2" y="35.9" fill="#84DBFF" width="24.1" height="2.3"/>
		<rect x="17.2" y="19" fill="#84DBFF" width="24.1" height="2.3"/>
		<rect x="17.2" y="27.4" fill="#84DBFF" width="24.1" height="2.3"/>
		<rect x="9.9" y="26.3" fill="#FF7058" width="4.6" height="4.6"/>
		<rect x="9.9" y="34.7" fill="#FF7058" width="4.6" height="4.6"/>
		<rect x="9.9" y="17.8" fill="#FF7058" width="4.6" height="4.6"/>
	</g>
	<g>
		<circle fill="#FFD15C" cx="15.1" cy="8.7" r="5.2"/>
		<path fill="#FFFFFF" d="M14.7,12c-1-0.1-1.7-0.5-2.2-1l0.7-1.1c0.4,0.4,0.9,0.7,1.5,0.8V9.3c-1-0.2-2-0.6-2-1.9c0-1,0.8-1.8,2-1.9
			V4.6h0.9v0.9c0.8,0.1,1.4,0.4,1.9,0.8l-0.7,1c-0.3-0.3-0.8-0.5-1.2-0.6v1.3c1,0.2,2.1,0.6,2.1,1.9c0,1.1-0.7,1.9-2.1,2v0.9h-0.9
			V12z M14.7,7.9V6.7c-0.4,0.1-0.7,0.3-0.7,0.6C14.1,7.6,14.3,7.7,14.7,7.9z M15.6,9.5v1.3c0.5-0.1,0.7-0.4,0.7-0.7
			C16.3,9.8,16,9.7,15.6,9.5z"/>
	</g>
</g>
</svg>
