<?xml version="1.0" encoding="utf-8"?>
<!-- Generator: Adobe Illustrator 18.0.0, SVG Export Plug-In . SVG Version: 6.00 Build 0)  -->
<!DOCTYPE svg PUBLIC "-//W3C//DTD SVG 1.1//EN" "http://www.w3.org/Graphics/SVG/1.1/DTD/svg11.dtd">
<svg version="1.1" id="Layer_1" xmlns="http://www.w3.org/2000/svg" xmlns:xlink="http://www.w3.org/1999/xlink" x="0px" y="0px"
	 viewBox="0 0 48 48" enable-background="new 0 0 48 48" xml:space="preserve">
<g>
	<g>
		<path fill="#415A6B" d="M11.2,35.5c0,0-0.1,0-0.1,0c-1.3-0.1-2.2-1.4-2.7-3.9c-0.5-2.2-0.6-5-0.4-8c0.4-5.6,2-11.6,4.7-11.4
			c1.3,0.1,2.2,1.4,2.7,3.9c0.5,2.2,0.6,5,0.4,8C15.5,29.6,13.9,35.5,11.2,35.5z M12.6,13.6c-0.7,0-2.7,3.4-3.1,10.2
			c-0.2,2.9-0.1,5.6,0.4,7.6c0.5,2.3,1.2,2.8,1.4,2.8c0,0,0,0,0,0c0.7,0,2.7-3.4,3.1-10.2c0.2-2.9,0.1-5.6-0.4-7.6
			C13.5,14.1,12.8,13.6,12.6,13.6C12.6,13.6,12.6,13.6,12.6,13.6z"/>
	</g>
	<g>
		<polygon fill="#E8EAE9" points="44,48 25.8,29.9 24.3,31.3 18.3,25.3 27.5,16 33.6,22.1 32.1,23.6 34.7,26.2 34.7,29.8 36.9,29.8 
			36.9,33.7 40.5,33.7 40.5,36 42.7,36 42.7,39.8 46,39.8 46,42.2 48,42.2 48,48 		"/>
		<path fill="#CED6E0" d="M31,32.9c-1.9-1.9-3.4-4.1-4.4-6.3c1.8,1.5,3.6,3.1,5.2,4.8L48,47.5V48h-1.9L31,32.9z"/>
		<path fill="#CED6E0" d="M16.5,0C8.6,0,2.2,6.4,2.2,14.2c0,7.9,6.4,14.2,14.2,14.2s14.2-6.4,14.2-14.2C30.7,6.4,24.3,0,16.5,0z
			 M15.2,13c-1.6,1.6-3.8,2-5,0.8c-1.2-1.2-0.8-3.4,0.8-5s3.8-2,5-0.8C17.2,9.1,16.8,11.4,15.2,13z"/>
	</g>
	<g>
		<path fill="#FFD15C" d="M11.2,29l-8.8,8.8V48H20V37.8C18.3,36.1,12.9,30.7,11.2,29z M11.2,38.1c-1.3,0-2.4-1.1-2.4-2.4
			c0-1.3,1.1-2.4,2.4-2.4c1.3,0,2.4,1.1,2.4,2.4C13.5,37.1,12.5,38.1,11.2,38.1z"/>
	</g>
	<g>
		<g>
			<path fill="#F3705A" d="M20.4,38.8l-9.3-9.3l-9.2,9.3c-0.4,0.4-1.2,0.4-1.6,0l0,0c-0.4-0.4-0.4-1.2,0-1.6l10.1-10.1
				c0.4-0.4,1.2-0.4,1.6,0l10.1,10.1c0.4,0.4,0.4,1.2,0,1.6h0C21.6,39.3,20.9,39.3,20.4,38.8z"/>
		</g>
	</g>
	<path fill="#415A6B" d="M11.1,35.5c-1.3-0.1-2.2-1.4-2.7-3.9c-0.5-2.2-0.6-5-0.4-8c0.4-5.6,2-11.6,4.7-11.4l-0.1,1.4c0,0,0,0,0,0
		c-0.7,0-2.7,3.4-3.1,10.2c-0.2,2.9-0.1,5.6,0.4,7.6c0.5,2.3,1.2,2.8,1.4,2.8L11.1,35.5z"/>
</g>
</svg>
