<?xml version="1.0" encoding="utf-8"?>
<!-- Generator: Adobe Illustrator 16.0.0, SVG Export Plug-In . SVG Version: 6.00 Build 0)  -->
<!DOCTYPE svg PUBLIC "-//W3C//DTD SVG 1.1//EN" "http://www.w3.org/Graphics/SVG/1.1/DTD/svg11.dtd">
<svg version="1.1" id="Layer_1" xmlns="http://www.w3.org/2000/svg" xmlns:xlink="http://www.w3.org/1999/xlink" x="0px" y="0px"
	 width="48px" height="48px" viewBox="0 0 48 48" enable-background="new 0 0 48 48" xml:space="preserve">
<g>
	<path fill="#F3705A" d="M31.971,1.898c-0.114-1.154-1.144-2.002-2.299-1.889L15.551,1.395c-1.156,0.113-2.002,1.145-1.889,2.301
		l1.184,12.064c0.115,1.156,1.144,2.002,2.301,1.889l14.119-1.385c1.156-0.113,2.003-1.143,1.889-2.299L31.971,1.898z"/>
	
		<rect x="20.477" y="0.705" transform="matrix(0.0977 0.9952 -0.9952 0.0977 23.6544 -19.9741)" fill="#415A6B" width="4.73" height="4.705"/>
	<path fill="#FFD15C" d="M41.129,18.184c-0.16-1.635-1.615-2.828-3.248-2.668l-19.945,1.955c-1.635,0.16-2.83,1.615-2.668,3.248
		l1.672,17.045c0.16,1.633,1.614,2.828,3.248,2.668l19.946-1.957c1.634-0.16,2.828-1.613,2.668-3.248L41.129,18.184z"/>
	
		<rect x="24.893" y="16.495" transform="matrix(0.0976 0.9952 -0.9952 0.0976 45.2013 -10.2154)" fill="#F8B64C" width="6.682" height="6.647"/>
	<path fill="#E8EAE9" d="M17.348,40.99L13.794,4.795C13.537,2.164,11.389-0.002,8.745,0c-3.032,0.002-5.34,2.613-5.051,5.557
		l0.191,1.955c0.077,0.789,0.782,1.367,1.573,1.291C6.25,8.725,6.828,8.02,6.75,7.23L6.572,5.406C6.459,4.27,7.174,3.15,8.292,2.922
		c1.288-0.26,2.49,0.654,2.615,1.928l3.715,37.852c0.078,0.793,0.782,1.371,1.573,1.293l26.836-2.631
		c0.791-0.078,1.37-0.781,1.292-1.572s-0.782-1.369-1.572-1.293L17.348,40.99z"/>
	<path fill="#40596B" d="M21.469,42.031c0.293,2.99-1.893,5.648-4.883,5.941c-2.99,0.295-5.652-1.891-5.945-4.879
		s1.893-5.65,4.883-5.943S21.176,39.043,21.469,42.031"/>
	<path fill="#CDD6E0" d="M18.144,42.357c0.112,1.152-0.729,2.18-1.884,2.293s-2.182-0.73-2.295-1.883
		c-0.112-1.152,0.731-2.18,1.885-2.293C17.004,40.361,18.032,41.205,18.144,42.357"/>
</g>
</svg>
