<?xml version="1.0" encoding="utf-8"?>
<!-- Generator: Adobe Illustrator 18.0.0, SVG Export Plug-In . SVG Version: 6.00 Build 0)  -->
<!DOCTYPE svg PUBLIC "-//W3C//DTD SVG 1.1//EN" "http://www.w3.org/Graphics/SVG/1.1/DTD/svg11.dtd">
<svg version="1.1" id="Layer_1" xmlns="http://www.w3.org/2000/svg" xmlns:xlink="http://www.w3.org/1999/xlink" x="0px" y="0px"
	 viewBox="0 0 48 48" enable-background="new 0 0 48 48" xml:space="preserve">
<g>
	<g>
		<g>
			<g>
				<path fill="#E8EAE9" d="M45,4H3C1.3,4,0,5.3,0,7v34c0,1.7,1.3,3,3,3h42c1.7,0,3-1.3,3-3V7C48,5.3,46.7,4,45,4z"/>
				<g>
					<rect x="3" y="7" fill="#67C6B9" width="42" height="27.4"/>
				</g>
			</g>
			<circle fill="#435B6C" cx="24" cy="39.2" r="2.5"/>
		</g>
		<path fill="#435B6C" d="M45,17.2c-2.9,0.7-5.8,1.5-8.7,2.4c-1-2.5-2.7-4.5-5.2-5.2c-3.4-1-7.8-0.2-12.4,0.7
			c-0.3,0.1-0.6,0.1-0.9,0.2c-1.4-2.7-3-5.6-4.7-8.2h-1.2c1.8,2.7,3.4,5.6,4.9,8.4c-5,0.9-10,1.4-13.7-0.5V16
			c4,1.9,9.2,1.2,14.2,0.3c1.9,3.8,3.4,7.1,4,8.6C13.1,28.1,6.6,31.3,3,33.1v1.3h1.8c4.3-2.2,12-5.8,21.2-9.2v9.2h1v-9.6
			c2.9-1,5.9-2.1,9-3c1.2,4.3,0.9,9.7,0.6,12.6h1c0.3-3,0.5-8.4-0.7-12.9c2.6-0.8,5.3-1.5,8-2.2V17.2z M22.1,24.6
			c-0.6-1.5-2-4.7-3.9-8.4c0.2,0,0.4-0.1,0.6-0.1c4.5-0.8,8.8-1.6,12-0.7c2.2,0.6,3.6,2.4,4.5,4.6C30.7,21.4,26.2,23,22.1,24.6z"/>
		<path fill="#FFFFFF" d="M32.6,16.3c-0.3-2.4-2.2-4.3-4.6-4.6V9.8h-1.3v1.9c-2.4,0.3-4.3,2.2-4.6,4.6h-1.9v1.3h1.9
			c0.3,2.4,2.2,4.3,4.6,4.6V24H28v-1.9c2.4-0.3,4.3-2.2,4.6-4.6h1.9v-1.3H32.6z M26.8,20.9c-1.7-0.3-3.1-1.6-3.3-3.3h2.1
			c0.2,0.6,0.6,1,1.2,1.2V20.9z M26.8,15.1c-0.6,0.2-1,0.6-1.2,1.2h-2.1c0.3-1.7,1.6-3.1,3.3-3.3V15.1z M28,20.9v-2.1
			c0.6-0.2,1-0.6,1.2-1.2h2.1C31.1,19.3,29.7,20.6,28,20.9z M29.2,16.3c-0.2-0.6-0.6-1-1.2-1.2V13c1.7,0.3,3.1,1.6,3.3,3.3H29.2z"/>
	</g>
</g>
</svg>
