<?xml version="1.0" encoding="utf-8"?>
<!-- Generator: Adobe Illustrator 18.0.0, SVG Export Plug-In . SVG Version: 6.00 Build 0)  -->
<!DOCTYPE svg PUBLIC "-//W3C//DTD SVG 1.1//EN" "http://www.w3.org/Graphics/SVG/1.1/DTD/svg11.dtd">
<svg version="1.1" id="Layer_1" xmlns="http://www.w3.org/2000/svg" xmlns:xlink="http://www.w3.org/1999/xlink" x="0px" y="0px"
	 viewBox="0 0 512 512" enable-background="new 0 0 512 512" xml:space="preserve">
<g>
	<path fill="#4CDBC4" d="M359.2,2H152.8c0,43.6-35.4,79-79,79v395.1c0,18.7,15.2,33.9,33.9,33.9h296.8c18.7,0,33.9-15.2,33.9-33.9
		V81C394.6,81,359.2,45.6,359.2,2z M256,117.9c-18.3,0-33.2-14.9-33.2-33.2s14.9-33.2,33.2-33.2c18.3,0,33.2,14.9,33.2,33.2
		S274.3,117.9,256,117.9z"/>
	<rect x="122.3" y="162.8" fill="#F2F2F2" width="267.4" height="302.3"/>
	<g>
		<path fill="#40596B" d="M164.3,270.5c0-14.7,3.2-25.6,9.7-32.7c6.5-7.1,15.2-10.6,26.3-10.6c11.4,0,20.4,3.5,26.8,10.6
			c6.5,7.1,9.7,18,9.7,32.8c0,14.7-3.2,25.6-9.7,32.7c-6.5,7.1-15.2,10.6-26.3,10.6c-11.4,0-20.4-3.5-26.8-10.6
			C167.6,296.2,164.3,285.3,164.3,270.5z M188.9,270.2c0,10.7,1.2,17.9,3.7,21.5c1.9,2.7,4.4,4,7.7,4c3.4,0,6-1.3,7.8-4
			c2.4-3.7,3.6-10.8,3.6-21.5c0-10.7-1.2-17.8-3.6-21.4c-1.9-2.8-4.5-4.1-7.8-4.1c-3.3,0-5.9,1.3-7.7,4
			C190.1,252.4,188.9,259.6,188.9,270.2z M224.3,400.5H201l87.5-173.4h22.6L224.3,400.5z M275.2,357.3c0-14.7,3.2-25.6,9.7-32.7
			c6.5-7.1,15.3-10.6,26.5-10.6c11.3,0,20.2,3.5,26.6,10.6c6.5,7.1,9.7,18,9.7,32.7c0,14.8-3.2,25.7-9.7,32.8
			c-6.5,7.1-15.2,10.6-26.3,10.6c-11.4,0-20.4-3.5-26.8-10.6C278.4,383.1,275.2,372.1,275.2,357.3z M299.7,357.2
			c0,10.7,1.2,17.8,3.7,21.4c1.9,2.8,4.4,4.1,7.7,4.1c3.4,0,5.9-1.3,7.7-4c2.5-3.7,3.7-10.8,3.7-21.5s-1.2-17.9-3.6-21.5
			c-1.9-2.7-4.5-4-7.8-4s-5.9,1.3-7.7,4C300.9,339.4,299.7,346.5,299.7,357.2z"/>
	</g>
</g>
</svg>
