<?xml version="1.0" encoding="utf-8"?>
<!-- Generator: Adobe Illustrator 18.0.0, SVG Export Plug-In . SVG Version: 6.00 Build 0)  -->
<!DOCTYPE svg PUBLIC "-//W3C//DTD SVG 1.1//EN" "http://www.w3.org/Graphics/SVG/1.1/DTD/svg11.dtd">
<svg version="1.1" id="Layer_1" xmlns="http://www.w3.org/2000/svg" xmlns:xlink="http://www.w3.org/1999/xlink" x="0px" y="0px"
	 viewBox="0 0 48 48" enable-background="new 0 0 48 48" xml:space="preserve">
<g>
	<g>
		<g>
			<g>
				<path fill="#F3705B" d="M45.5,20.2c-0.2-0.5-0.7-1.2-1.2-1c-0.1,2.3-1.2,4.6-3,6l0.2-0.6c-1.2,0.9-2.4,1.9-3.6,2.8
					c-0.2,0.2-0.5,0.4-0.6,0.7c-0.1,0.5,0.3,0.9,0.7,1.3c1.2,1.1,2.1,2.5,2.1,4.1c0,0.5-0.1,1,0,1.4c0.3,1.1,2,1.4,2.9,0.8
					c1-0.7,1.4-1.9,1.5-3.1c0.1-1.2,0-2.4,0.3-3.5c0.3-1.2,1-2.3,1.3-3.5C46.6,23.7,46.2,21.8,45.5,20.2z"/>
				<path fill="#F15741" d="M42.1,28.8c-0.1,0.2-0.3,0.5-0.3,0.8c0,0.3,0.1,0.6,0.3,0.7c0.3,0.2,0.8,0,0.9-0.3
					c0.2-0.3,0.2-0.7,0.2-1.1c0.1-1.6,0.4-3.4,1.5-4.6c0.4,2.4-0.9,4.7-0.9,7.1c0,0.4,0,0.8-0.1,1.2c-0.1,0.4-0.4,0.7-0.7,0.8
					c-0.3,0.1-0.6,0-0.9,0c-0.3,0-0.7,0.1-0.8,0.4c-0.1,0.4,0.5,0.7,0.9,0.8c0.3,0,0.6,0.1,0.9,0c0.5-0.2,0.6-0.8,0.7-1.4
					c0.6-3.7,1.2-7.3,1.2-11c-0.3,0.7-0.6,1.3-1,2c-0.8,1.7-1.6,3.4-2.5,5"/>
			</g>
			<g>
				<path fill="#F3705B" d="M10.1,27.3c-1.2-0.9-2.4-1.9-3.6-2.8l0.2,0.6c-1.8-1.4-3-3.7-3-6c-0.5-0.2-1,0.4-1.2,1
					c-0.7,1.7-1.1,3.6-0.7,5.3c0.3,1.2,1,2.3,1.3,3.5c0.3,1.1,0.2,2.3,0.3,3.5c0.1,1.2,0.5,2.4,1.5,3.1c1,0.7,2.6,0.4,2.9-0.8
					c0.1-0.5,0-0.9,0-1.4c0-1.6,1-3,2.1-4.1c0.4-0.3,0.8-0.8,0.7-1.3C10.6,27.7,10.4,27.5,10.1,27.3z"/>
				<path fill="#F15741" d="M6.6,33.8c-0.1-0.3-0.4-0.4-0.8-0.4c-0.3,0-0.6,0.1-0.9,0c-0.4-0.1-0.6-0.5-0.7-0.8
					c-0.1-0.4-0.1-0.8-0.1-1.2c0-2.4-1.3-4.8-0.9-7.1c1.1,1.2,1.4,2.9,1.5,4.6c0,0.4,0,0.8,0.2,1.1c0.2,0.3,0.6,0.5,0.9,0.3
					c0.2-0.1,0.4-0.5,0.3-0.7c0-0.3-0.2-0.5-0.3-0.8l0.4,0.3c-0.8-1.7-1.6-3.4-2.5-5c-0.3-0.7-0.6-1.3-1-2c0,3.7,0.6,7.4,1.2,11
					c0.1,0.5,0.2,1.1,0.7,1.4c0.3,0.1,0.6,0.1,0.9,0C6.1,34.5,6.7,34.3,6.6,33.8z"/>
			</g>
		</g>
		<g>
			<g>
				<g>
					<ellipse fill="#F3705B" cx="23.8" cy="26.6" rx="18.2" ry="21.4"/>
					<path fill="#435B6C" d="M42.4,12.7C39.5-1.8,12.5-4.8,7.6,8.3C2.8,22.9,6.1,31.3,6.1,31.3c-0.5-3,0.8-5.9,2.2-8.5
						c1.1-2,2.2-4,3.4-6c0.7-1.2,1.6-2.6,3-2.6c0.3,0,0.5,0.1,0.8,0.2c0.9,0.6,0.1,2,0.4,3.1c0.3,1,1.4,1.4,2.4,1.6
						c2.6,0.6,5.3,1.3,7.8,0.4c1.7-0.6,3-1.9,4.5-3c1.4-1.1,3.1-2.1,4.9-2c-1.5,1.1-3.1,4.6-3.1,4.6s2.9-2.5,3.3-2.9
						c0.3-0.4,1-0.5,1.5-0.3c0.5,0.2,0.9,0.6,1.2,1c1.8,2.3,2.3,5.4,2.7,8.3c0.3,2.4,0.6,4.8,0.3,7.1C42.5,29.6,43.9,21.6,42.4,12.7
						z"/>
				</g>
				<g>
					<g>
						<g>
							<path fill="#FFFFFF" d="M32.2,25.6c-2.6,0-4.6,1.3-4.6,3.5c0,2.3,2.1,4.1,4.7,4.1c2.6,0,4.7-1.8,4.7-4.1
								C37,26.8,34.8,25.6,32.2,25.6z"/>
							<path fill="#F15741" d="M32.3,25c-2,0-3.7,1.1-4.4,2.6c4.5-2,7-1.5,8.8,0C36,26.1,34.3,25,32.3,25z"/>
							<g>
								<g>
									
										<ellipse transform="matrix(0.9516 -0.3074 0.3074 0.9516 -7.3375 10.7854)" fill="#435B6C" cx="30.6" cy="28.7" rx="1.9" ry="1.7"/>
								</g>
								<g>
									
										<ellipse transform="matrix(0.9516 -0.3074 0.3074 0.9516 -6.9523 11.1443)" fill="#FFFFFF" cx="31.9" cy="27.6" rx="0.6" ry="0.5"/>
								</g>
							</g>
						</g>
					</g>
					<g>
						<g>
							<path fill="#FFFFFF" d="M21.1,27.3c-2.2-3-10.4-1.2-9.8,3.7c1,2.7,4,4.1,6.7,3.1C20.8,33,22.1,30,21.1,27.3z"/>
							<circle fill="#435B6C" cx="17" cy="31.3" r="2.2"/>
							<g>
								<circle fill="#FFFFFF" cx="18.8" cy="32.1" r="0.7"/>
							</g>
						</g>
						<path fill="#F15741" d="M14.4,24.2c-2.7,1-4.1,4-3.1,6.7c2.1-3,5.8-3.5,9.8-3.7C20.1,24.6,17.1,23.2,14.4,24.2z"/>
					</g>
				</g>
				<path fill="#435B6C" d="M29.4,39.6c-0.7,0.2-1.5,0.4-2.4,0.6c-0.5,0.1-1,0.1-1.5,0.2c-0.5,0.1-1,0.1-1.6,0.1
					c-0.5,0-1.1,0-1.6-0.1c-0.5-0.1-1-0.1-1.5-0.2c-0.9-0.2-1.7-0.4-2.4-0.6c-1.2-0.4-1.9-0.8-1.9-0.8c0,0,0,0.8,0.8,1.7
					c0.5,0.5,1.2,1.1,2.3,1.5c0.6,0.2,1.2,0.4,1.9,0.6c0.7,0.1,1.5,0.2,2.2,0.2c0.8,0,1.5-0.1,2.2-0.2c0.7-0.1,1.3-0.3,1.9-0.6
					c1.1-0.4,1.9-1,2.3-1.5c0.8-0.9,0.8-1.7,0.8-1.7C31.3,38.8,30.6,39.2,29.4,39.6z"/>
			</g>
			<g>
				<path fill="#F3F3F3" d="M20.9,40.2c-0.5-0.1-1.1-0.2-1.5-0.3c-0.4,1.2-0.3,2.7,0.3,4.5c0.6-1.3,1.4-3,2.3-4
					C21.7,40.3,21.3,40.3,20.9,40.2z"/>
				<path fill="#F3F3F3" d="M28.6,39.9c-0.5,0.1-1,0.3-1.5,0.4c-0.3,0.1-0.7,0.1-1.1,0.1c0.9,1.1,1.7,2.8,2.3,4
					C28.8,42.6,29,41.1,28.6,39.9z"/>
			</g>
		</g>
	</g>
</g>
</svg>
