<?xml version="1.0" encoding="utf-8"?>
<!-- Generator: Adobe Illustrator 18.0.0, SVG Export Plug-In . SVG Version: 6.00 Build 0)  -->
<!DOCTYPE svg PUBLIC "-//W3C//DTD SVG 1.1//EN" "http://www.w3.org/Graphics/SVG/1.1/DTD/svg11.dtd">
<svg version="1.1" id="Layer_1" xmlns="http://www.w3.org/2000/svg" xmlns:xlink="http://www.w3.org/1999/xlink" x="0px" y="0px"
	 viewBox="0 0 48 48" enable-background="new 0 0 48 48" xml:space="preserve">
<g>
	<polygon fill="#4CDBC4" points="48,41.4 35.8,41.4 32.1,31.9 34.5,31.4 37.5,39.3 48,39.3 	"/>
	<path fill="#CDD6E0" d="M15.3,32.7L15.3,32.7c0.8-0.3,1.1-1,0.9-1.7l-4.4-12.8c-0.2-0.7-1-1-1.6-0.8l-0.1,0c-0.7,0.2-1,1-0.8,1.6
		l4.4,12.8C13.9,32.6,14.6,33,15.3,32.7z"/>
	<path fill="#F2F2F2" d="M7.9,36.2l5.8-4.3L9.3,19.1L2,19.3c-1.4,0-2.4,1.4-1.9,2.7l4.5,13.2C5.1,36.6,6.7,37.1,7.9,36.2z"/>
	<path fill="#40596B" d="M46.6,23.8l-28.7,9.9c-1.1,0.4-2.3-0.2-2.6-1.3l-5-14.6c-0.4-1.1,0.2-2.3,1.3-2.6l28.7-9.9
		c1.1-0.4,2.3,0.2,2.6,1.3l5,14.6C48.3,22.2,47.7,23.4,46.6,23.8z"/>
	<path fill="#CDD6E0" d="M38.7,28.1c0,1.6-1.1,3.1-2.7,3.7l-4.9,1.7c-1.6,0.6-3.3,0-4.4-1.3c-0.3-0.3-0.5-0.8-0.7-1.2l0-0.1
		l12.4-4.3l0,0.1C38.6,27.2,38.7,27.6,38.7,28.1z"/>
	<circle fill="#FF7058" cx="37" cy="40.1" r="2.8"/>
	<circle fill="#F2F2F2" cx="37" cy="40.1" r="1.1"/>
	<path fill="#C3D0DB" d="M38.7,28.1l-11.9,4.1c-0.3-0.3-0.5-0.8-0.7-1.2l0-0.1l12.4-4.3l0,0.1C38.6,27.2,38.7,27.6,38.7,28.1z"/>
	
		<rect x="30.9" y="9.1" transform="matrix(0.9445 -0.3286 0.3286 0.9445 -1.5969 12.445)" fill="#ACB3BA" width="10.2" height="3.7"/>
</g>
</svg>
