<?xml version="1.0" encoding="utf-8"?>
<!-- Generator: Adobe Illustrator 18.0.0, SVG Export Plug-In . SVG Version: 6.00 Build 0)  -->
<!DOCTYPE svg PUBLIC "-//W3C//DTD SVG 1.1//EN" "http://www.w3.org/Graphics/SVG/1.1/DTD/svg11.dtd">
<svg version="1.1" id="Layer_1" xmlns="http://www.w3.org/2000/svg" xmlns:xlink="http://www.w3.org/1999/xlink" x="0px" y="0px"
	 viewBox="0 0 48 48" enable-background="new 0 0 48 48" xml:space="preserve">
<g>
	<g>
		<g>
			<g>
				<g>
					<g>
						
							<ellipse transform="matrix(0.9892 0.1463 -0.1463 0.9892 1.524 -4.0893)" fill="#FFD15C" cx="28.6" cy="8.3" rx="1" ry="1.7"/>
					</g>
				</g>
				<g>
					<g>
						
							<ellipse transform="matrix(-0.9892 0.1463 -0.1463 -0.9892 39.8853 13.6933)" fill="#FFD15C" cx="19.4" cy="8.3" rx="1" ry="1.7"/>
					</g>
				</g>
			</g>
			<g>
				<g>
					<path fill="#344A5E" d="M29.1,5.4c0,3-1.4,6.9-5.1,6.9c-3.8,0-5.1-3.9-5.1-6.9c0-3,2.3-5.4,5.1-5.4C26.8,0,29.1,2.4,29.1,5.4z"
						/>
				</g>
			</g>
			<g>
				<g>
					<g>
						<path fill="#415A6B" d="M36.2,22.9l-0.4-3.4c-0.2-1.5-1.2-2.7-2.6-3.2L28.8,15L24,17.1L19.2,15l-4.3,1.4
							c-1.4,0.5-2.5,1.7-2.6,3.2l-0.4,3.4H36.2z"/>
					</g>
				</g>
				<g>
					<g>
						<g>
							<g>
								<path fill="#E8EAE9" d="M21.2,22.9h5.5l0.6-5.4c0,0,0.1-1,0.1-1.9L24,17.1l-3.5-1.5c0.1,1,0.1,1.9,0.1,1.9L21.2,22.9z"/>
							</g>
						</g>
						<g>
							<g>
								<path fill="#F3705A" d="M22.1,22.9h3.8l-0.8-3l0.9-0.9c0,0-1.3-2-2-2c-0.7,0-2,2-2,2l0.9,0.9L22.1,22.9z"/>
							</g>
						</g>
						<g>
							<g>
								<g>
									<path fill="#F3F3F3" d="M20.8,12.8c0.7,1.8,1.8,3.2,3.2,4.3c-1,0.7-1.8,1.5-2.3,2.3l-1.8-5.4
										C20.2,13.6,20.7,12.9,20.8,12.8z"/>
								</g>
							</g>
							<g>
								<g>
									<path fill="#344A5E" d="M18.8,22.9h2.5l-0.6-5.4c0,0-0.2-2.9-0.2-3.6c0-0.8,0.4-1.1,0.4-1.1c-0.4-0.1-2.9,4.2-2.9,4.2
										l1.5,0.5l-1.6,0.8L18.8,22.9z"/>
								</g>
							</g>
						</g>
					</g>
					<g>
						<g>
							<path fill="#F3F3F3" d="M27.2,12.8c-0.7,1.8-1.8,3.2-3.2,4.3c1,0.7,1.8,1.5,2.3,2.3l1.8-5.4C27.8,13.6,27.3,12.9,27.2,12.8z"
								/>
						</g>
					</g>
					<g>
						<g>
							<g>
								<path fill="#344A5E" d="M27.3,17.5l-0.6,5.4h2.5l1-4.6l-1.6-0.8l1.5-0.5c0,0-2.4-4.3-2.9-4.2c0,0,0.4,0.3,0.4,1.1
									C27.6,14.7,27.3,17.5,27.3,17.5z"/>
							</g>
						</g>
					</g>
				</g>
			</g>
			<g>
				<g>
					<path fill="#F7B64C" d="M20.8,9.2l0,3.7c0.7,1.8,1.8,3.2,3.2,4.3c1.4-1.1,2.5-2.5,3.2-4.3V9.2H20.8z"/>
				</g>
			</g>
			<g>
				<g>
					<path fill="#FFD15C" d="M28.4,7.9c0.2,3.4-1.8,6.3-4.4,6.3c-2.6,0-4.6-2.9-4.4-6.3c0.1-1.1,0.3-2.1,0.7-2.9
						c0.3,0.2,1,0.3,2.3-0.8c1.9,2.3,4.3,0.9,5.7,2.8C28.4,7.3,28.4,7.6,28.4,7.9z"/>
				</g>
			</g>
		</g>
		<g>
			<g>
				<g>
					<g>
						<g>
							<path fill="#4ABAA5" d="M23.5,48L23,44.8c-0.3-1.7-1.6-3.1-3.3-3.4c-5.3-1-10.8-1-16,0c-1.7,0.3-3,1.7-3.3,3.4L0,48H23.5z"/>
						</g>
					</g>
					<g>
						<polygon fill="#CED6E0" points="13.1,48 14.8,40.1 8.7,40.1 10.4,48 						"/>
					</g>
					<g>
						<g>
							<polygon fill="#415A6B" points="13.6,48 9.9,48 10.9,44.9 12.6,44.9 							"/>
						</g>
					</g>
					<g>
						<g>
							<g>
								<polygon fill="#415A6B" points="12.6,44.9 13.6,43.9 11.8,42.1 9.9,43.9 10.9,44.9 								"/>
							</g>
						</g>
					</g>
					<g>
						<g>
							<polygon fill="#F7B64C" points="11.8,42.1 11.8,42.1 14.5,39.5 14.5,37 9,37 9,39.5 							"/>
						</g>
					</g>
					<g>
						<g>
							<g>
								<g>
									<path fill="#FFD15C" d="M17.9,34.1c-0.2,0.9-0.9,1.5-1.5,1.4c-0.6-0.2-0.9-1-0.7-1.9c0.2-0.9,0.9-1.4,1.5-1.3
										C17.8,32.4,18.1,33.3,17.9,34.1z"/>
								</g>
							</g>
							<g>
								<g>
									<path fill="#FFD15C" d="M5.6,34.1c0.2,0.9,0.9,1.5,1.5,1.4c0.6-0.2,0.9-1,0.7-1.9c-0.2-0.9-0.9-1.4-1.5-1.3
										C5.8,32.4,5.4,33.3,5.6,34.1z"/>
								</g>
							</g>
						</g>
						<g>
							<g>
								<path fill="#344A5E" d="M6.8,35.1c-0.7-1.6-0.7-3.2-0.7-4.5c0.1-4.1,2.5-6.6,5.8-6.6c3.3,0,5.7,2.4,5.6,6.5
									c0,1.5-0.1,2.9-0.9,4.5L6.8,35.1z"/>
							</g>
						</g>
					</g>
					<g>
						<g>
							<g>
								<polygon fill="#F3F3F3" points="15.2,40.9 13.8,44.5 11.8,42.1 14.5,39.5 								"/>
							</g>
						</g>
						<g>
							<g>
								<polygon fill="#F3F3F3" points="8.3,40.9 9.8,44.5 11.8,42.1 9,39.5 								"/>
							</g>
						</g>
					</g>
					<g>
						<g>
							<g>
								<polygon fill="#66C6B9" points="15.1,48 17,44.5 15.6,43.5 17.2,42.5 14.8,40.1 13.1,48 								"/>
							</g>
						</g>
						<g>
							<g>
								<polygon fill="#66C6B9" points="6.5,44.5 8.4,48 10.4,48 8.7,40.1 6.3,42.5 7.9,43.5 								"/>
							</g>
						</g>
					</g>
				</g>
			</g>
			<g>
				<g>
					<path fill="#FFD15C" d="M12.5,27.7c-1.4,1.5-3.2,2.6-5.6,3c-0.2,0.7-0.4,1.5-0.4,2.3c0,3.5,2.4,6.4,5.3,6.4
						c2.9,0,5.3-2.9,5.3-6.4c0-0.8-0.1-1.6-0.4-2.3C14.9,30.2,13.5,29.1,12.5,27.7z"/>
				</g>
			</g>
		</g>
		<g>
			<g>
				<path fill="#F05540" d="M48,48l-0.5-4.5c-0.3-1.7-1.6-3.1-3.3-3.4c-5.3-1-10.8-1-16,0c-1.7,0.3-3,1.7-3.3,3.4L24.5,48H48z"/>
			</g>
			<g>
				<polygon fill="#CED6E0" points="37.6,48 39.3,38.7 33.2,38.7 34.9,48 				"/>
			</g>
			<g>
				<polygon fill="#415A6B" points="38.1,48 34.4,48 35.4,43.6 37.1,43.6 				"/>
			</g>
			<g>
				<polygon fill="#415A6B" points="37.1,43.6 38.1,42.6 36.2,40.7 34.4,42.6 35.4,43.6 				"/>
			</g>
			<g>
				<polygon fill="#F7B64C" points="36.2,40.7 36.2,40.7 39,38.2 39,35.6 33.5,35.6 33.5,38.2 				"/>
			</g>
			<g>
				<polygon fill="#F3F3F3" points="39.7,39.5 38.2,43.1 36.2,40.7 39,38.2 				"/>
			</g>
			<g>
				<polygon fill="#F3F3F3" points="32.8,39.5 34.2,43.1 36.2,40.7 33.5,38.2 				"/>
			</g>
			<g>
				<polygon fill="#F3705A" points="39.6,48 41.5,43.1 40.1,42.2 41.7,41.2 39.3,38.7 37.6,48 				"/>
			</g>
			<g>
				<polygon fill="#F3705A" points="31,43.1 32.9,48 34.9,48 33.2,38.7 30.8,41.2 32.4,42.2 				"/>
			</g>
			<g>
				<g>
					<path fill="#FFD15C" d="M42.4,32.8c-0.2,0.9-0.9,1.5-1.5,1.4c-0.6-0.2-0.9-1-0.7-1.9c0.2-0.9,0.9-1.4,1.5-1.3
						C42.2,31.1,42.6,31.9,42.4,32.8z"/>
				</g>
				<g>
					<path fill="#FFD15C" d="M30.1,32.8c0.2,0.9,0.9,1.5,1.5,1.4c0.6-0.2,0.9-1,0.7-1.9c-0.2-0.9-0.9-1.4-1.5-1.3
						C30.2,31.1,29.9,31.9,30.1,32.8z"/>
				</g>
				<g>
					<path fill="#344A5E" d="M31.5,34.2c-0.7-1.4-0.9-2.9-0.9-4.2c0.1-3.7,2.5-6,5.8-6.1c3.3,0,5.7,2.2,5.6,5.9
						c0,1.4-0.1,2.7-0.9,4.2L31.5,34.2z"/>
				</g>
				<g>
					<path fill="#FFD15C" d="M36.3,29c-1.5,0-2.8-0.3-3.9-0.7c-0.8,1.1-1.3,2.6-1.3,4.3c0,3.6,2.3,6.5,5.1,6.5
						c2.8,0,5.1-2.9,5.1-6.5c0-1.6-0.5-3.1-1.3-4.3C39.1,28.7,37.8,29,36.3,29z"/>
				</g>
			</g>
		</g>
		<path fill="#344A5E" d="M28.2,35.4L25,32.3v-4.5c0-0.6-0.4-1-1-1h0c-0.6,0-1,0.4-1,1v4.5l-3.2,3.2c-0.4,0.4-0.4,1,0,1.4v0
			c0.4,0.4,1,0.4,1.4,0l2.7-2.7l2.7,2.7c0.4,0.4,1,0.4,1.4,0C28.5,36.5,28.5,35.8,28.2,35.4z"/>
	</g>
</g>
</svg>
