<?xml version="1.0" encoding="utf-8"?>
<!-- Generator: Adobe Illustrator 18.0.0, SVG Export Plug-In . SVG Version: 6.00 Build 0)  -->
<!DOCTYPE svg PUBLIC "-//W3C//DTD SVG 1.1//EN" "http://www.w3.org/Graphics/SVG/1.1/DTD/svg11.dtd">
<svg version="1.1" id="Layer_1" xmlns="http://www.w3.org/2000/svg" xmlns:xlink="http://www.w3.org/1999/xlink" x="0px" y="0px"
	 viewBox="0 0 48 48" enable-background="new 0 0 48 48" xml:space="preserve">
<g>
	<g>
		<g>
			<polygon fill="#FFD15C" points="30.6,15.3 26.1,18.2 28.5,22.9 23.2,23.2 22.9,28.5 18.2,26.1 15.3,30.6 12.4,26.1 7.6,28.5 
				7.3,23.2 2,22.9 4.4,18.2 0,15.3 4.4,12.4 2,7.6 7.3,7.3 7.6,2 12.4,4.4 15.3,0 18.2,4.4 22.9,2 23.2,7.3 28.5,7.6 26.1,12.4 			
				"/>
			<circle fill="#F7B64C" cx="15.3" cy="15.3" r="7.9"/>
		</g>
		<path fill="#E8EAE9" d="M41.5,34.1c0.6-0.8,0.9-1.8,0.9-2.9c0-2.8-2.3-5.2-5.2-5.2c-1.4,0-2.6,0.5-3.5,1.4
			c-1.3-5.3-6.1-9.3-11.8-9.3c-6.7,0-12.2,5.4-12.2,12.2c0,0,0,0,0,0c-0.2,0-0.4,0-0.6,0c-4.9,0-8.9,4-8.9,8.9s4,8.9,8.9,8.9
			c0.2,0,0.4,0,0.6,0l0,0H41c3.9,0,7-3.1,7-7C48,37.3,45.1,34.3,41.5,34.1z"/>
	</g>
</g>
</svg>
