<?xml version="1.0" encoding="utf-8"?>
<!-- Generator: Adobe Illustrator 19.0.1, SVG Export Plug-In . SVG Version: 6.00 Build 0)  -->
<svg version="1.1" id="Layer_1" xmlns="http://www.w3.org/2000/svg" xmlns:xlink="http://www.w3.org/1999/xlink" x="0px" y="0px"
	 viewBox="0 0 48 48" style="enable-background:new 0 0 48 48;" xml:space="preserve">
<style type="text/css">
	.st0{fill:#415A6B;}
	.st1{fill:#ADB3BA;}
	.st2{fill:#E8EAE9;}
	.st3{fill:#55C0EB;}
	.st4{fill:#F3705A;}
	.st5{fill:#FFFFFF;}
	.st6{fill:#FFD15C;}
	.st7{fill:#344A5E;}
	.st8{fill:#CED6E0;}
	.st9{fill:#F05540;}
	.st10{fill:#F7B64C;}
	.st11{fill:#F3F3F3;}
	.st12{fill:#66C6B9;}
	.st13{fill:#4ABAA5;}
	.st14{fill:#8AD7F8;}
	.st15{fill:none;}
	.st16{fill:#E53D35;}
</style>
<g>
	<g>
		<g>
			<g>
				<g>
					<path class="st13" d="M47.8,20.3c0,0,0,0.1,0,0.1c0,0.2-0.1,0.6-0.2,1c0,0.2-0.1,0.3-0.1,0.5c-0.1,0.3-0.1,0.5-0.2,0.8
						c0,0.1,0,0.2-0.1,0.3c-0.1,0.6-0.3,1.2-0.4,1.4c0,0.1-0.1,0.2-0.2,0.4H23.1c0.4-0.7,0.9-1.6,1.2-1.9c0.1-0.1,0.1-0.2,0.2-0.3
						c0.3-0.6,0.6-1.5,0.6-1.8c0-0.3,0.3-0.8,0.6-1.4c0.3-0.7,0.4-1.2,0.5-2c0.1-0.7,0.8-1.2,1-1.3c0,0,0,0,0,0s1.6-0.6,2.4-0.7
						c0.9-0.1,1-0.3,1.9-0.7c0.9-0.4,1.7-0.5,1.7-0.5s-0.6,2.8-0.8,4.3c-0.1,0.7-0.2,2.8-0.2,5.1c0.5-1.3,0.6-1.4,0.6-1.4
						s6.9-7.7,8.2-8.8c0,0,1.1,0.3,1.6,0.6c0.5,0.3,3.3,0.8,4.1,1.2c0.8,0.4,0.8,0.6,0.8,0.6C48.3,16.4,47.9,19.6,47.8,20.3z"/>
				</g>
				<g>
					<ellipse class="st1" cx="39.1" cy="11.6" rx="0.2" ry="0.6"/>
				</g>
				<g>
					<g>
						<path class="st6" d="M32,5.6l0,1.3c0,0,0,2.9,0.2,3.6c0.2,0.7,0.7,1.4,1.2,1.7c0,0,0.3,1,0.2,1.8c-0.1,0.8-1.3,2.4-1.3,2.4
							l2.3,1l5.1-4.8L39.1,12c0,0,0-1.5,0-1.6c0,0,0.2-1.4,0.1-2.6s-0.2-2.4-0.2-2.4l-0.7-2.7c0,0-5.5-0.6-5.9,0.1
							C32.1,3.6,31.9,4.7,32,5.6z"/>
					</g>
					<g>
						<path class="st0" d="M38.3,0.8C36.9-0.6,34.1,0,33,1.2c-1,1.2-1.5,1.6-1.4,3.1C31.8,5.7,32,6.6,32,6.9h0.1
							c0.1-0.2,0.3-1,0.2-1.7c-0.1-0.9-0.2-1,0.2-1.4c0.4-0.5,1-0.6,1.5-0.5c0.5,0.2,2.1,0.4,3.1,0.1c1-0.3,1.6,0.7,1.5,1.2
							c-0.1,0.4-0.2,0.7-0.1,0.8c0.2,0.1,0.8,1.1,0.7,2.5h0.2c0,0-0.2-0.9,0.3-1.5c0,0,0.1-1,0.2-2.1C39.8,3.2,39.7,2.2,38.3,0.8z"
							/>
					</g>
					<g>
						<path class="st10" d="M39.1,10.6c0,0-0.3,1.1-2.5,2c-2.2,1-3.3-0.4-3.3-0.4s0.3,1,0.2,1.8c0,0.6-0.8,1.7-1.1,2.1l0,0
							c0,0,0,0,3.3-1.9C39,12.2,39.1,10.6,39.1,10.6z"/>
					</g>
					<g>
						<path class="st8" d="M32.4,16.5L32.2,21l4-3l-0.3-3l-0.9,0c0,0-0.5,0.6-0.6,1c-0.1,0.4-0.1,0.5-0.1,0.5l-0.1-0.5L33.7,15
							L32.4,16.5z"/>
					</g>
				</g>
				<g>
					<path class="st12" d="M31.3,24.9h0.4c0.2-0.6,0.5-1.2,0.9-1.7c0.3-1.8,0.7-3.6,0.7-4.4c0.2-1.9,0-3.8-0.1-4.6
						c0,0-0.5,0.8-1,1.2c-0.5,0.4-1.5,1.5-1.5,1.5l0.6,0.8l-1.7,1C29.6,18.7,30.7,22.1,31.3,24.9z"/>
				</g>
				<g>
					<path class="st6" d="M40.4,7.6C40.3,8.4,39.9,9,39.5,9c-0.4,0-0.6-0.7-0.5-1.5c0.1-0.8,0.5-1.4,0.9-1.3S40.5,6.9,40.4,7.6z"/>
				</g>
				<g>
					<path class="st6" d="M31.4,7.6C31.6,8.4,32,9,32.4,9c0.4,0,0.6-0.7,0.5-1.5s-0.5-1.4-0.9-1.3C31.6,6.2,31.3,6.9,31.4,7.6z"/>
				</g>
				<g>
					<path class="st11" d="M39.1,11c0,0,0.2,0.3,0.1,0.6S38.8,12.4,38,13c-0.8,0.6-3,2.1-3,2.1l0.5,3.2l4.7-5.4l-0.7-1.5
						C39.5,11.3,39.4,11,39.1,11L39.1,11z"/>
				</g>
				<g>
					<path class="st12" d="M31.8,24.9c0.6-1,1.3-2,1.9-2.6c1.4-1.6,4.1-3.6,4.5-3.9L37.9,17l1.9-0.6c0,0,1-2.1,1.1-2.6
						c0.2-0.5,0.2-0.5,0-1c-0.2-0.5-0.6-1-0.8-1.3c-0.3-0.5-0.6-0.4-0.6-0.4s0.4,0.6,0.1,1.2c-0.4,0.6-3.9,3.1-5.6,5.9
						c-1,1.7-2.1,4.4-2.8,6.5H31.8z"/>
				</g>
				<g>
					<path class="st11" d="M33.5,12.9c0,0,0.5,2.5,0.8,3.2l-0.6-0.4l-0.2,1.2c0,0-0.4-1-0.3-1.9S33.3,13.1,33.5,12.9z"/>
				</g>
			</g>
			<g>
				<g>
					<path class="st14" d="M0.2,20.3c0,0,0,0.1,0,0.1c0,0.2,0.1,0.6,0.2,1c0,0.2,0.1,0.3,0.1,0.5c0.1,0.3,0.1,0.5,0.2,0.8
						c0,0.1,0,0.2,0.1,0.3c0.1,0.6,0.3,1.2,0.4,1.4c0,0.1,0.1,0.2,0.2,0.4h23.4c-0.4-0.7-0.9-1.6-1.2-1.9c-0.1-0.1-0.1-0.2-0.2-0.3
						c-0.3-0.6-0.6-1.5-0.6-1.8c0-0.3-0.3-0.8-0.6-1.4c-0.3-0.7-0.4-1.2-0.5-2c-0.1-0.7-0.8-1.2-1-1.3c0,0,0,0,0,0s-1.6-0.6-2.4-0.7
						c-0.9-0.1-1-0.3-1.9-0.7c-0.9-0.4-1.7-0.5-1.7-0.5s0.6,2.8,0.8,4.3c0.1,0.7,0.2,2.8,0.2,5.1c-0.5-1.3-0.6-1.4-0.6-1.4
						s-6.9-7.7-8.2-8.8c0,0-1.1,0.3-1.6,0.6s-3.3,0.8-4.1,1.2c-0.8,0.4-0.8,0.6-0.8,0.6C-0.3,16.4,0.1,19.6,0.2,20.3z"/>
				</g>
				<g>
					<ellipse class="st1" cx="8.9" cy="11.6" rx="0.2" ry="0.6"/>
				</g>
				<g>
					<g>
						<path class="st6" d="M16,5.6l0,1.3c0,0,0,2.9-0.2,3.6c-0.2,0.7-0.7,1.4-1.2,1.7c0,0-0.3,1-0.2,1.8c0.1,0.8,1.3,2.4,1.3,2.4
							l-2.3,1l-5.1-4.8L8.9,12c0,0,0-1.5,0-1.6c0,0-0.2-1.4-0.1-2.6s0.2-2.4,0.2-2.4l0.7-2.7c0,0,5.5-0.6,5.9,0.1S16.1,4.7,16,5.6z"
							/>
					</g>
					<g>
						<path class="st0" d="M9.7,0.8C11.1-0.6,13.9,0,15,1.2c1,1.2,1.5,1.6,1.4,3.1C16.2,5.7,16,6.5,16,6.9h-0.1
							c-0.1-0.2-0.3-1-0.2-1.7c0.1-0.9,0.2-1-0.2-1.4c-0.4-0.5-1-0.6-1.5-0.5c-0.5,0.2-2.1,0.4-3.1,0.1c-1-0.3-1.6,0.7-1.5,1.2
							C9.7,5,9.8,5.3,9.6,5.4C9.4,5.5,8.8,6.4,8.9,7.8H8.7c0,0,0.2-0.9-0.3-1.5c0,0-0.1-1-0.2-2.1C8.2,3.2,8.3,2.2,9.7,0.8z"/>
					</g>
					<g>
						<path class="st10" d="M8.9,10.6c0,0,0.3,1.1,2.5,2c2.2,1,3.3-0.4,3.3-0.4s-0.3,1-0.2,1.8c0,0.6,0.8,1.7,1.1,2.1l0,0
							c0,0,0,0-3.3-1.9C9,12.2,8.9,10.6,8.9,10.6z"/>
					</g>
					<g>
						<path class="st8" d="M15.6,16.5l0.3,4.5l-4-3l0.3-3l0.9,0c0,0,0.5,0.6,0.6,1c0.1,0.4,0.1,0.5,0.1,0.5l0.1-0.5l0.6-1.1
							L15.6,16.5z"/>
					</g>
				</g>
				<g>
					<path class="st3" d="M16.7,24.9h-0.4c-0.2-0.6-0.5-1.2-0.9-1.7c-0.3-1.8-0.7-3.6-0.7-4.4c-0.2-1.9,0-3.8,0.1-4.6
						c0,0,0.5,0.8,1,1.2c0.5,0.4,1.5,1.5,1.5,1.5l-0.6,0.8l1.7,1C18.4,18.7,17.3,22.1,16.7,24.9z"/>
				</g>
				<g>
					<path class="st6" d="M7.6,7.6C7.7,8.4,8.1,9,8.5,8.9c0.4,0,0.6-0.7,0.5-1.5S8.5,6.1,8.1,6.2C7.7,6.2,7.5,6.9,7.6,7.6z"/>
				</g>
				<g>
					<path class="st6" d="M16.6,7.6C16.4,8.4,16,9,15.6,8.9c-0.4,0-0.6-0.7-0.5-1.5s0.5-1.4,0.9-1.3C16.4,6.2,16.7,6.9,16.6,7.6z"/>
				</g>
				<g>
					<path class="st11" d="M8.9,11c0,0-0.2,0.3-0.1,0.6C8.9,12,9.2,12.4,10,13c0.8,0.6,3,2.1,3,2.1l-0.5,3.2l-4.7-5.4l0.7-1.5
						C8.5,11.3,8.6,11,8.9,11L8.9,11z"/>
				</g>
				<g>
					<path class="st3" d="M16.2,24.9c-0.6-1-1.3-2-1.9-2.6c-1.4-1.6-4.1-3.6-4.5-3.9l0.3-1.3l-1.9-0.6c0,0-1-2.1-1.1-2.6
						s-0.2-0.5,0-1c0.2-0.5,0.6-1,0.8-1.3c0.3-0.5,0.6-0.4,0.6-0.4s-0.4,0.6-0.1,1.2c0.4,0.6,3.9,3.1,5.6,5.9c1,1.7,2.1,4.4,2.8,6.5
						H16.2z"/>
				</g>
				<g>
					<path class="st11" d="M14.5,12.9c0,0-0.5,2.5-0.8,3.2l0.6-0.4l0.2,1.2c0,0,0.4-1,0.3-1.9C14.8,14.1,14.7,13.1,14.5,12.9z"/>
				</g>
			</g>
		</g>
		<g>
			<g>
				<path class="st5" d="M17.7,19.6c-4.4,4.4-4.4,11.6,0,16c4.4,4.4,11.6,4.4,16,0c4.4-4.4,4.4-11.6,0-16
					C29.3,15.2,22.2,15.2,17.7,19.6z"/>
			</g>
			<g>
				<path class="st0" d="M29.4,23.9c0.2,1.8,0.4,3.7,0.2,5.5c-0.2,1.8-0.8,3.6-1.8,5.1c-1.1,1.5-2.7,2.6-4.5,2.9
					c-0.2-1.2,0.2-2.4,0.5-3.5c1.1-3.5,2.2-7.1,3.4-10.6"/>
				<g>
					<path class="st0" d="M18.1,35.5c0.5-0.4,1.1-0.6,1.7-0.8c1.7-0.7,3.2-2.1,4.1-3.8c0.9-1.8,1.2-3.9,0.9-5.9l-2-0.4
						c-0.2,2.1-0.5,4.3-1.6,6c-0.7,1.1-1.7,1.9-2.6,3c-0.7,0.9-1.3,2.1-1.2,3.3C17.4,36.4,17.7,35.8,18.1,35.5z"/>
				</g>
				<g>
					<g>
						<g>
							<g>
								<path class="st9" d="M29.4,38.5c-0.1,0.3-0.2,0.8-0.4,1.4c2.5-0.3,4.8-1.3,6.9-3.1c-0.3-1.9-1.4-1.9-1.4-1.9
									c-1.1-0.5-5.2-1.6-5.2-1.6S29.8,36.1,29.4,38.5z"/>
								<path class="st9" d="M22.2,39.3c-0.1-0.3-0.1-0.5-0.2-0.8c-0.4-2.4,0-5.2,0-5.2s-4.4,1.2-5.2,1.6c0,0-0.8,0.1-1.2,1.3
									C17.7,37.5,19.9,38.6,22.2,39.3z"/>
							</g>
						</g>
						<g>
							<g>
								<g>
									<path class="st6" d="M23,36l2.1,3.2l3.3-4.4v-4.7c0.7-1.8,1-5.1,1-5.1l0.2-1.9c0,0-0.5-2.8-2-3.2c-1.5-0.5-4.7,0.1-5.2,1.1
										s-0.6,4.2-0.6,4.2s0.5,3.4,1.2,5V36z"/>
								</g>
								<g>
									<path class="st6" d="M23,31.6l-2.1,4.3l1.2,3.4c2.2,0.6,4.4,0.9,6.5,0.7l1.1-3.5l-1.3-4.8v-1.5c0.7-1.8,1-5.1,1-5.1
										l0.2-1.9c0,0-0.5-2.8-2-3.2c-1.5-0.5-4.7,0.1-5.2,1.1c-0.5,1-0.6,4.2-0.6,4.2s0.4,3.4,1.2,5L23,31.6L23,31.6z"/>
								</g>
								<path class="st10" d="M23.9,34.5c3.7-1.8,4.5-4.4,4.5-4.4v0c0,0-1.2,2-2.8,1.9c-1.6-0.1-2.6-1.9-2.6-1.9l0,0v1.5h0l-1.9,3.9
									C22,35.2,23.7,34.6,23.9,34.5z"/>
								<g>
									<path class="st2" d="M28.8,39.9l1-6.8h-0.5c-0.1,1.9-1.7,3.3-3.6,3.3c-1.9,0-3.4-1.5-3.6-3.3h-0.4l0.9,6.2
										C24.7,39.9,26.8,40.2,28.8,39.9z"/>
								</g>
								<g>
									<path class="st6" d="M30.2,26c-0.1,0.8-0.5,1.4-0.9,1.4s-0.6-0.6-0.5-1.4c0.1-0.8,0.5-1.4,0.9-1.4
										C30,24.6,30.3,25.2,30.2,26z"/>
								</g>
								<g>
									<path class="st6" d="M21.2,26c0.1,0.8,0.5,1.4,0.9,1.4c0.4,0,0.6-0.6,0.5-1.4c-0.1-0.8-0.5-1.4-0.9-1.4
										C21.3,24.6,21.1,25.2,21.2,26z"/>
								</g>
								<g>
									<path class="st0" d="M21.8,25.1c0,0,0.2-1.5,0.5-2.4c0.3-0.9,0.8-1.5,1.9-1.8s2.2-0.4,3.1,0c0.9,0.4,1.7,1.8,1.9,2.5
										c0.2,0.7,0.2,1.7,0.2,1.7s0.1,0.1,0.2-0.4c0,0,0.7-3.6-0.7-5.1c-1.4-1.6-5.2-1.9-6.4,0C21.3,21.3,21.2,23.2,21.8,25.1z"/>
								</g>
								<g>
									<g>
										<g>
											<path class="st4" d="M30.1,39.7c1-1.6,2.2-3,2.2-3l-1.3-1l0.8-0.4l-0.1-0.1l-3.3-3.7L27.8,40
												C28.6,40,29.4,39.9,30.1,39.7z"/>
										</g>
									</g>
									<g>
										<g>
											<path class="st4" d="M20.7,38.7c1,0.4,2,0.7,3,0.9l-0.6-8l-3.4,3.8l0.8,0.4l-1.3,1C19.1,36.7,19.8,37.6,20.7,38.7z"/>
										</g>
									</g>
								</g>
							</g>
						</g>
					</g>
				</g>
			</g>
			<g>
				<g>
					<path class="st6" d="M45.1,41.5l-5.3-5.3l-5.4,5.4l5.3,5.3c1.5,1.5,3.9,1.5,5.4,0l0,0C46.5,45.4,46.5,43,45.1,41.5z"/>
				</g>
				<path class="st7" d="M40.3,36.7l-5.4,5.4c-0.5,0.5-1.2,0.5-1.6,0l0,0c-0.5-0.5-0.5-1.2,0-1.6l5.4-5.4c0.5-0.5,1.2-0.5,1.6,0l0,0
					C40.7,35.6,40.7,36.3,40.3,36.7z"/>
			</g>
			<path class="st0" d="M36.3,38.2C30.5,44,21,44,15.1,38.2c-5.8-5.8-5.8-15.4,0-21.2c5.8-5.8,15.4-5.8,21.2,0
				C42.2,22.8,42.2,32.3,36.3,38.2z M17.7,19.6c-4.4,4.4-4.4,11.6,0,16c4.4,4.4,11.6,4.4,16,0c4.4-4.4,4.4-11.6,0-16
				C29.3,15.2,22.2,15.2,17.7,19.6z"/>
		</g>
	</g>
</g>
</svg>
