<?xml version="1.0" encoding="utf-8"?>
<!-- Generator: Adobe Illustrator 18.0.0, SVG Export Plug-In . SVG Version: 6.00 Build 0)  -->
<!DOCTYPE svg PUBLIC "-//W3C//DTD SVG 1.1//EN" "http://www.w3.org/Graphics/SVG/1.1/DTD/svg11.dtd">
<svg version="1.1" id="Layer_1" xmlns="http://www.w3.org/2000/svg" xmlns:xlink="http://www.w3.org/1999/xlink" x="0px" y="0px"
	 viewBox="0 0 48 48" enable-background="new 0 0 48 48" xml:space="preserve">
<g>
	<g>
		<g>
			<g>
				<path fill="#F7B64C" d="M13.7,47L6.9,28c-0.5-1.6-2.2-2.9-3.9-2.9c-1.6,0-2.4,1.3-1.8,2.9l8.2,17.2C10,46.3,11,47,12.2,47H13.7z
					"/>
				<path fill="#FFD15C" d="M13.7,47h3.4l-4.5-19c-0.3-1.6-1.9-2.9-3.6-2.9S6.4,26.4,6.9,28L13.7,47z"/>
				<path fill="#F7B64C" d="M17.1,47h3.4l-2.3-19c-0.2-1.6-1.6-2.9-3.3-2.9s-2.7,1.3-2.4,2.9L17.1,47z"/>
				<path fill="#FFD15C" d="M23.8,47V28c0-1.6-1.3-2.9-3-2.9S18,26.4,18.2,28l2.3,19H23.8z"/>
				<path fill="#F7B64C" d="M27.2,47l2.3-19c0.2-1.6-1-2.9-2.7-2.9l0,0c-1.6,0-3,1.3-3,2.9v19H27.2z"/>
				<path fill="#FFD15C" d="M30.6,47l4.5-19c0.3-1.6-0.7-2.9-2.4-2.9c-1.6,0-3.1,1.3-3.3,2.9l-2.3,19H30.6z"/>
				<path fill="#F7B64C" d="M34,47l6.8-19c0.5-1.6-0.4-2.9-2.1-2.9c-1.6,0-3.2,1.3-3.6,2.9l-4.5,19H34z"/>
				<path fill="#FFD15C" d="M35.5,47c1.2,0,2.2-0.7,2.7-1.7L46.4,28c0.6-1.6-0.2-2.9-1.8-2.9c-1.6,0-3.4,1.3-3.9,2.9L34,47H35.5z"/>
			</g>
			<g>
				<path fill="#F3F3F3" d="M47.4,26.6C45.9,14.9,35.9,5.9,23.8,5.9c-12.1,0-22.1,9.1-23.6,20.8H47.4z"/>
			</g>
			<g>
				<path fill="#F3F3F3" d="M0.3,26.6c-0.2,1.3-0.4,2.7-0.1,3.8s1.4,2,2.5,1.6c0.8-0.3,1.2-1.3,1.8-1.9c1.1-1.2,3-1.2,4.5-0.7
					c1.5,0.5,2.8,1.5,4.3,2.3c1.4,0.8,3.1,1.3,4.7,0.7c1.7-0.7,2.7-2.5,4.3-3.3c1.7-0.9,3.8-0.4,5.6,0.3c1.8,0.7,3.4,1.8,5.3,2.2
					c2,0.4,4.1,0,5.8-1.1c0.5-0.3,1-0.7,1.6-1s1.3-0.3,1.8,0.1c0.9,0.7,0.6,2.1,1.3,2.9c0.8,0.9,2.4,0.5,3.3-0.4
					c1.3-1.3,1.5-3.9,0.6-5.5c-0.6-1-1.7-1.4-2.8-2c-6.7-3.8-14.8-4.1-22.5-4.3c-4.5-0.1-9-0.2-13.5,0.5c-1,0.2-2,0.4-2.8,0.8
					s-1.6,1.3-1.8,2.2"/>
			</g>
			<path fill="#E8EAE9" d="M31.6,21.2c0,0.9-0.1,1.8-0.1,2.6c0,0.3,0,0.7,0.3,0.8c0.3,0.1,0.6-0.1,0.8-0.3c0.3,0.3,0.3,0.7,0.4,1.1
				c0,0.4,0,0.8,0.3,1.1s0.7,0.5,1,0.3c0.2-0.1,0.3-0.4,0.4-0.6c0.2-0.3,0.6-0.4,0.9-0.3s0.6,0.2,0.9,0.3c0.4,0.2,0.8,0.5,1.3,0.7
				s1,0.4,1.4,0.3c0.5-0.1,1-0.4,1.1-0.9c0-0.2,0-0.4,0.1-0.6s0.2-0.4,0.4-0.5c0.2,0,0.4,0.1,0.6,0.1c0.3,0,0.5-0.3,0.5-0.6
				c0-0.3-0.1-0.5-0.3-0.8c-0.3-0.5-0.5-1-1-1.2c-0.5-0.3-1.1-0.2-1.7-0.2c-2,0-4-0.8-5.5-2.1"/>
			<path fill="#E8EAE9" d="M19.1,12.6c0,0.9-0.1,1.8-0.1,2.6c0,0.3,0,0.7,0.3,0.8c0.3,0.1,0.6-0.1,0.8-0.3c0.3,0.3,0.3,0.7,0.4,1.1
				s0,0.8,0.3,1.1c0.2,0.3,0.7,0.5,1,0.3c0.2-0.1,0.3-0.4,0.4-0.6c0.2-0.3,0.6-0.4,0.9-0.3c0.3,0,0.6,0.2,0.9,0.3
				c0.4,0.2,0.8,0.5,1.3,0.7s1,0.4,1.4,0.3c0.5-0.1,1-0.4,1.1-0.9c0-0.2,0-0.4,0.1-0.6c0-0.2,0.2-0.4,0.4-0.5c0.2,0,0.4,0.1,0.6,0.1
				c0.3,0,0.5-0.3,0.5-0.6c0-0.3-0.1-0.5-0.3-0.8c-0.3-0.5-0.5-1-1-1.2c-0.5-0.3-1.1-0.2-1.7-0.2c-2,0-4-0.8-5.5-2.1"/>
			<path fill="#E8EAE9" d="M5.5,20.8c0,0.9-0.1,1.8-0.1,2.6c0,0.3,0,0.7,0.3,0.8c0.3,0.1,0.6-0.1,0.8-0.3c0.3,0.3,0.3,0.7,0.4,1.1
				c0,0.4,0,0.8,0.3,1.1s0.7,0.5,1,0.3c0.2-0.1,0.3-0.4,0.4-0.6c0.2-0.3,0.6-0.4,0.9-0.3s0.6,0.2,0.9,0.3c0.4,0.2,0.8,0.5,1.3,0.7
				c0.4,0.2,1,0.4,1.4,0.3s1-0.4,1.1-0.9c0-0.2,0-0.4,0.1-0.6c0-0.2,0.2-0.4,0.4-0.5c0.2,0,0.4,0.1,0.6,0.1c0.3,0,0.5-0.3,0.5-0.6
				c0-0.3-0.1-0.5-0.3-0.8c-0.3-0.5-0.5-1-1-1.2c-0.5-0.3-1.1-0.2-1.7-0.2c-2,0-4-0.8-5.5-2.1"/>
			<circle fill="#8AD7F8" cx="6.2" cy="22.7" r="0.8"/>
			<circle fill="#CED6E0" cx="10.4" cy="17" r="1.2"/>
			<circle fill="#CED6E0" cx="12.6" cy="23.4" r="0.7"/>
			<circle fill="#FFD15C" cx="17.3" cy="12.9" r="0.8"/>
			<circle fill="#415A6B" cx="16.5" cy="18.5" r="0.4"/>
			<circle fill="#CED6E0" cx="23.8" cy="10.2" r="1.2"/>
			<circle fill="#8AD7F8" cx="22.2" cy="20.3" r="0.8"/>
			<circle fill="#FFD15C" cx="18.5" cy="26.4" r="0.3"/>
			<circle fill="#8AD7F8" cx="33.9" cy="26.7" r="0.9"/>
			<circle fill="#415A6B" cx="25.1" cy="24.6" r="0.5"/>
			<circle fill="#FFD15C" cx="31.4" cy="20.3" r="0.9"/>
			<circle fill="#8AD7F8" cx="30.4" cy="12.4" r="0.4"/>
			<circle fill="#415A6B" cx="37.7" cy="15" r="1.3"/>
			<circle fill="#FFD15C" cx="41.4" cy="26.3" r="1.2"/>
			<circle fill="#CED6E0" cx="38.1" cy="21.3" r="0.6"/>
			<g>
				<g>
					<g>
						<g>
							<circle fill="#F3705A" cx="10.4" cy="19.8" r="5.2"/>
						</g>
						<g>
							<path fill="#415A6B" d="M10.2,16.5C10.2,16.5,10.2,16.4,10.2,16.5c0-0.1,0.1-0.2,0.1-0.3c0.1-0.2,0.1-0.5,0.2-0.8
								c0.1-0.2,0.1-0.3,0.2-0.5c0.1-0.2,0.1-0.4,0.2-0.6c0.1-0.2,0.2-0.4,0.3-0.6c0.1-0.2,0.2-0.4,0.3-0.6c0.1-0.2,0.2-0.4,0.3-0.6
								c0.1-0.2,0.2-0.4,0.3-0.6c0.1-0.2,0.2-0.4,0.3-0.5c0.1-0.2,0.2-0.3,0.3-0.5c0.1-0.1,0.2-0.3,0.3-0.4c0.1-0.1,0.2-0.2,0.2-0.3
								c0-0.1,0-0.2,0-0.3c0,0,0-0.1,0-0.1c0,0,0,0,0,0l0.9,0.8c0,0,0,0,0,0c0,0-0.1,0-0.1,0c-0.1,0-0.2,0-0.3,0
								c-0.1,0-0.2,0.1-0.3,0.2c-0.1,0.1-0.2,0.2-0.3,0.4c-0.1,0.1-0.2,0.3-0.3,0.4c-0.1,0.2-0.2,0.3-0.4,0.5
								c-0.1,0.2-0.2,0.4-0.3,0.6c-0.1,0.2-0.2,0.4-0.3,0.6c-0.1,0.2-0.2,0.4-0.3,0.6c-0.1,0.2-0.2,0.4-0.2,0.6
								c-0.1,0.2-0.1,0.4-0.2,0.6c0,0.2-0.1,0.4-0.1,0.5c-0.1,0.3-0.1,0.6-0.1,0.8c0,0.1,0,0.2,0,0.2c0,0.1,0,0.1,0,0.1L10.2,16.5z"
								/>
						</g>
					</g>
					<path fill="#F05540" d="M8.9,15.7C8.9,15.7,8.9,15.8,8.9,15.7c0,0.1,0.1,0.1,0.1,0.1C9.1,15.9,9.2,16,9.4,16
						c0.2,0.1,0.3,0.1,0.5,0.2c0.2,0.1,0.4,0.1,0.6,0.1c0.1,0,0.2,0,0.3,0c0.1,0,0.2,0,0.3-0.1c0.1,0,0.2-0.1,0.3-0.1
						c0.1,0,0.2-0.1,0.2-0.1c0.1,0,0.1-0.1,0.2-0.1c0.1,0,0.1-0.1,0.2-0.1c0.1-0.1,0.1-0.1,0.1-0.1s0,0.1-0.1,0.1
						c0,0-0.1,0.1-0.1,0.1c0,0.1-0.1,0.1-0.2,0.2c-0.1,0.1-0.1,0.1-0.2,0.2c-0.1,0.1-0.2,0.1-0.3,0.2c-0.2,0.1-0.5,0.1-0.7,0.1
						c-0.3,0-0.5-0.1-0.7-0.2c-0.2-0.1-0.4-0.2-0.5-0.3C9.1,16.1,9,16,9,15.9C8.9,15.8,8.9,15.8,8.9,15.7
						C8.9,15.7,8.9,15.7,8.9,15.7z"/>
				</g>
				
					<ellipse transform="matrix(0.3905 0.9206 -0.9206 0.3905 25.1882 -1.5634)" fill="#FFFFFF" cx="13.8" cy="18.2" rx="1.1" ry="0.6"/>
			</g>
			<g>
				<g>
					<g>
						<g>
							<circle fill="#F3705A" cx="24" cy="11.3" r="5.2"/>
						</g>
						<g>
							<path fill="#415A6B" d="M23.8,7.9C23.8,7.9,23.8,7.9,23.8,7.9c0-0.1,0.1-0.2,0.1-0.3c0.1-0.2,0.1-0.5,0.2-0.8
								c0.1-0.2,0.1-0.3,0.2-0.5c0.1-0.2,0.1-0.4,0.2-0.6c0.1-0.2,0.2-0.4,0.3-0.6c0.1-0.2,0.2-0.4,0.3-0.6c0.1-0.2,0.2-0.4,0.3-0.6
								c0.1-0.2,0.2-0.4,0.3-0.6C25.8,3,26,2.8,26.1,2.7c0.1-0.2,0.2-0.3,0.3-0.5c0.1-0.1,0.2-0.3,0.3-0.4c0.1-0.1,0.2-0.2,0.2-0.3
								c0-0.1,0-0.2,0-0.3c0,0,0-0.1,0-0.1c0,0,0,0,0,0l0.9,0.8c0,0,0,0,0,0c0,0-0.1,0-0.1,0c-0.1,0-0.2,0-0.3,0
								c-0.1,0-0.2,0.1-0.3,0.2c-0.1,0.1-0.2,0.2-0.3,0.4c-0.1,0.1-0.2,0.3-0.3,0.4C26.3,3,26.1,3.2,26,3.4
								c-0.1,0.2-0.2,0.4-0.3,0.6c-0.1,0.2-0.2,0.4-0.3,0.6c-0.1,0.2-0.2,0.4-0.3,0.6c-0.1,0.2-0.2,0.4-0.2,0.6
								c-0.1,0.2-0.1,0.4-0.2,0.6c0,0.2-0.1,0.4-0.1,0.5c-0.1,0.3-0.1,0.6-0.1,0.8c0,0.1,0,0.2,0,0.2c0,0.1,0,0.1,0,0.1L23.8,7.9z"
								/>
						</g>
					</g>
					<path fill="#F05540" d="M22.5,7.2C22.5,7.2,22.5,7.2,22.5,7.2c0,0.1,0.1,0.1,0.1,0.1c0.1,0.1,0.2,0.1,0.4,0.2
						c0.2,0.1,0.3,0.1,0.5,0.2c0.2,0.1,0.4,0.1,0.6,0.1c0.1,0,0.2,0,0.3,0c0.1,0,0.2,0,0.3-0.1c0.1,0,0.2-0.1,0.3-0.1
						c0.1,0,0.2-0.1,0.2-0.1c0.1,0,0.1-0.1,0.2-0.1c0.1,0,0.1-0.1,0.2-0.1c0.1-0.1,0.1-0.1,0.1-0.1s0,0.1-0.1,0.1
						c0,0-0.1,0.1-0.1,0.1c0,0.1-0.1,0.1-0.2,0.2c-0.1,0.1-0.1,0.1-0.2,0.2C25,7.9,24.9,8,24.8,8c-0.2,0.1-0.5,0.1-0.7,0.1
						c-0.3,0-0.5-0.1-0.7-0.2c-0.2-0.1-0.4-0.2-0.5-0.3c-0.1-0.1-0.2-0.2-0.3-0.3C22.5,7.3,22.5,7.3,22.5,7.2
						C22.5,7.2,22.5,7.2,22.5,7.2z"/>
				</g>
				
					<ellipse transform="matrix(0.3905 0.9206 -0.9206 0.3905 25.6159 -19.2506)" fill="#FFFFFF" cx="27.3" cy="9.7" rx="1.1" ry="0.6"/>
			</g>
			<g>
				<g>
					<g>
						<g>
							<circle fill="#F3705A" cx="36.4" cy="19.5" r="5.2"/>
						</g>
						<g>
							<path fill="#415A6B" d="M36.2,16.2C36.2,16.2,36.2,16.2,36.2,16.2c0-0.1,0.1-0.2,0.1-0.3c0.1-0.2,0.1-0.5,0.2-0.8
								c0.1-0.2,0.1-0.3,0.2-0.5c0.1-0.2,0.1-0.4,0.2-0.6c0.1-0.2,0.2-0.4,0.3-0.6c0.1-0.2,0.2-0.4,0.3-0.6c0.1-0.2,0.2-0.4,0.3-0.6
								c0.1-0.2,0.2-0.4,0.3-0.6c0.1-0.2,0.2-0.4,0.3-0.5c0.1-0.2,0.2-0.3,0.3-0.5c0.1-0.1,0.2-0.3,0.3-0.4c0.1-0.1,0.2-0.2,0.2-0.3
								c0-0.1,0-0.2,0-0.3c0,0,0-0.1,0-0.1c0,0,0,0,0,0l0.9,0.8c0,0,0,0,0,0c0,0-0.1,0-0.1,0c-0.1,0-0.2,0-0.3,0
								c-0.1,0-0.2,0.1-0.3,0.2c-0.1,0.1-0.2,0.2-0.3,0.4c-0.1,0.1-0.2,0.3-0.3,0.4c-0.1,0.2-0.2,0.3-0.4,0.5
								c-0.1,0.2-0.2,0.4-0.3,0.6c-0.1,0.2-0.2,0.4-0.3,0.6c-0.1,0.2-0.2,0.4-0.3,0.6c-0.1,0.2-0.2,0.4-0.2,0.6
								c-0.1,0.2-0.1,0.4-0.2,0.6c0,0.2-0.1,0.4-0.1,0.5c-0.1,0.3-0.1,0.6-0.1,0.8c0,0.1,0,0.2,0,0.2c0,0.1,0,0.1,0,0.1L36.2,16.2z"
								/>
						</g>
					</g>
					<path fill="#F05540" d="M34.9,15.5C34.9,15.5,34.9,15.5,34.9,15.5c0,0.1,0.1,0.1,0.1,0.1c0.1,0.1,0.2,0.1,0.4,0.2
						c0.2,0.1,0.3,0.1,0.5,0.2c0.2,0.1,0.4,0.1,0.6,0.1c0.1,0,0.2,0,0.3,0c0.1,0,0.2,0,0.3-0.1c0.1,0,0.2-0.1,0.3-0.1
						c0.1,0,0.2-0.1,0.2-0.1c0.1,0,0.1-0.1,0.2-0.1c0.1,0,0.1-0.1,0.2-0.1c0.1-0.1,0.1-0.1,0.1-0.1s0,0.1-0.1,0.1
						c0,0-0.1,0.1-0.1,0.1c0,0.1-0.1,0.1-0.2,0.2c-0.1,0.1-0.1,0.1-0.2,0.2c-0.1,0.1-0.2,0.1-0.3,0.2c-0.2,0.1-0.5,0.1-0.7,0.1
						c-0.3,0-0.5-0.1-0.7-0.2c-0.2-0.1-0.4-0.2-0.5-0.3c-0.1-0.1-0.2-0.2-0.3-0.3C35,15.6,34.9,15.5,34.9,15.5
						C34.9,15.5,34.9,15.5,34.9,15.5z"/>
				</g>
				
					<ellipse transform="matrix(0.3905 0.9206 -0.9206 0.3905 40.8068 -25.6769)" fill="#FFFFFF" cx="39.8" cy="18" rx="1.1" ry="0.6"/>
			</g>
		</g>
		<circle fill="#F3705A" cx="13.3" cy="27.2" r="1.2"/>
		<circle fill="#F3705A" cx="26.5" cy="20.4" r="0.9"/>
		<circle fill="#F3705A" cx="15.6" cy="9.4" r="0.7"/>
		<circle fill="#F3705A" cx="28.6" cy="28.3" r="0.6"/>
		<circle fill="#F3705A" cx="45" cy="23" r="1.1"/>
		<circle fill="#F3705A" cx="32.8" cy="10.2" r="0.5"/>
		<circle fill="#F3705A" cx="3.3" cy="26.9" r="0.5"/>
		<circle fill="#8AD7F8" cx="16.4" cy="29.2" r="0.8"/>
		<circle fill="#8AD7F8" cx="14.7" cy="13.7" r="0.9"/>
	</g>
</g>
</svg>
