<?xml version="1.0" encoding="utf-8"?>
<!-- Generator: Adobe Illustrator 18.0.0, SVG Export Plug-In . SVG Version: 6.00 Build 0)  -->
<!DOCTYPE svg PUBLIC "-//W3C//DTD SVG 1.1//EN" "http://www.w3.org/Graphics/SVG/1.1/DTD/svg11.dtd">
<svg version="1.1" id="Layer_1" xmlns="http://www.w3.org/2000/svg" xmlns:xlink="http://www.w3.org/1999/xlink" x="0px" y="0px"
	 viewBox="0 0 48 48" enable-background="new 0 0 48 48" xml:space="preserve">
<g>
	<g>
		<path fill="#415A6B" d="M19.3,20.5h9.2l-0.2,3.8c0.7-1,1.2-2.5,1.3-4.1c0.2-3.3-1.3-6.1-3.3-6.1c-0.3,0-0.6,0.1-0.9,0.2
			c-0.2-0.1-0.4-0.2-0.6-0.2c-6.1-2.1-8,5.8-5.8,9.3h0.1c0-0.4,0-1.1,0.2-2L19.3,20.5z"/>
		<g>
			<path fill="#344A5E" d="M35.7,38.4v-3.5c0-2.1-1.4-3.9-3.5-4.4l-4.4-1.1L24,30.5l-3.8-1.2l-4.4,1.1c-2,0.5-3.5,2.3-3.5,4.4v3.5
				H35.7z"/>
		</g>
		<rect x="21.3" y="27.1" fill="#F7B64C" width="5.4" height="3.8"/>
		<path fill="#FFD15C" d="M28.7,18.9c-1.2-0.2-2.2-0.6-3.2-1.1c-0.9,0.6-2,1.1-3,1.3c-1.1,0.2-2.2,0.3-3.3,0.1
			c-0.2,0.7-0.3,1.4-0.3,2.2c0,3.8,2.3,6.9,5.1,6.9c2.8,0,5.1-3.1,5.1-6.9C29.1,20.6,28.9,19.7,28.7,18.9z"/>
		<polygon fill="#CED6E0" points="26.6,30 24,30.8 21.5,30 21.6,37.2 26.5,37.2 		"/>
		<path fill="#F05540" d="M25.5,32.2c0,0-0.9-1.4-1.4-1.4c-0.5,0-1.4,1.4-1.4,1.4l0.7,1.2h1.4L25.5,32.2z"/>
		<polygon fill="#F3705A" points="25.2,38.4 25.7,37.3 24.8,33.5 23.3,33.5 22.4,37.3 22.8,38.4 		"/>
		<polygon fill="#E8EAE9" points="24,30.8 21.3,27.7 20.4,29.4 22.3,33.4 		"/>
		<polygon fill="#E8EAE9" points="24,30.8 26.8,27.7 27.7,29.4 25.7,33.4 		"/>
		<g>
			<polygon fill="#415A6B" points="25.8,38.4 29.9,34 27.9,31.9 30.1,31.3 27.2,28.6 24.7,38.4 			"/>
			<polygon fill="#415A6B" points="22.2,38.4 18.1,34 20.1,31.9 17.9,31.3 20.8,28.6 23.3,38.4 			"/>
		</g>
		
			<ellipse transform="matrix(-0.9831 0.1833 -0.1833 -0.9831 41.9103 40.6495)" fill="#FFD15C" cx="19.1" cy="22.3" rx="1" ry="1.6"/>
		<ellipse transform="matrix(0.9831 0.1833 -0.1833 0.9831 4.5693 -4.923)" fill="#FFD15C" cx="28.9" cy="22.3" rx="1" ry="1.6"/>
		<path fill="#8AD7F8" d="M48.1,27.3v-6.7l-5.7-2.2c-0.4-1.3-0.9-2.4-1.5-3.6l2.5-5.6l-4.7-4.7l-5.6,2.5c-1.1-0.6-2.3-1.1-3.6-1.5
			l-2.2-5.7h-6.7l-2.2,5.7C17.2,6,16,6.5,14.9,7.1L9.3,4.6L4.6,9.3l2.5,5.6c-0.6,1.1-1.1,2.3-1.5,3.6l-5.7,2.2l0,6.7l5.7,2.2
			c0.4,1.3,0.9,2.4,1.5,3.6l-2.5,5.6l4.7,4.7l5.6-2.5c1.1,0.6,2.3,1.1,3.6,1.5l2.2,5.7h6.7l2.2-5.7c1.3-0.4,2.5-0.9,3.6-1.5l5.6,2.5
			l4.7-4.7l-2.5-5.6c0.6-1.1,1.1-2.3,1.5-3.6L48.1,27.3z M10.7,24.3c-0.2-7.4,5.6-13.5,13-13.7c7.4-0.2,13.5,5.6,13.7,13
			c0.2,7.4-5.6,13.5-13,13.7C17,37.5,10.9,31.7,10.7,24.3z"/>
	</g>
</g>
</svg>
