<?xml version="1.0" encoding="utf-8"?>
<!-- Generator: Adobe Illustrator 20.1.0, SVG Export Plug-In . SVG Version: 6.00 Build 0)  -->
<!DOCTYPE svg PUBLIC "-//W3C//DTD SVG 1.1//EN" "http://www.w3.org/Graphics/SVG/1.1/DTD/svg11.dtd">
<svg version="1.1" id="Layer_1" xmlns="http://www.w3.org/2000/svg" xmlns:xlink="http://www.w3.org/1999/xlink" x="0px" y="0px"
	 viewBox="0 0 49 49" enable-background="new 0 0 49 49" xml:space="preserve">
<g>
	<path fill="#FFD15C" d="M45.9,26.4l-3,9.4l-5.2,11.3c-0.3,0.8-1,1.4-1.9,1.4H13.2c-0.9,0-1.7-0.6-1.9-1.4L6.1,35.8l-3-9.4H45.9z"/>
	<circle fill="#F1543F" cx="24.5" cy="4.8" r="4.3"/>
	<circle fill="#FFFFFF" cx="22.7" cy="2.7" r="0.9"/>
	<path fill="#F1543F" d="M47.3,28.2c0,4.4-5.5,7.2-12.7,8.6c-6.3,1.2-13.8,1.2-20.1,0c-7.2-1.3-12.7-4.2-12.7-8.6
		c0-6.1,2.4-11.6,6.2-15.6c4.1-4.4,10-7.1,16.5-7.1c6.5,0,12.4,2.7,16.5,7.1C44.9,16.7,47.3,22.2,47.3,28.2z"/>
	<path fill="#FF7058" d="M34.6,36.8c-6.3,1.2-13.8,1.2-20.1,0c5.8-8.1-5.3-16.1-6.5-24.2c4.1-4.4,10-7.1,16.5-7.1
		c6.5,0,12.4,2.7,16.5,7.1C39.9,20.7,28.8,28.7,34.6,36.8z"/>
	<path fill="#F8B64C" d="M5.4,33.7l0.7,2.1c4.7,2.3,11.6,3.4,18.4,3.4c6.9,0,13.7-1.1,18.4-3.4l0.7-2.1C35,39,14,39,5.4,33.7z"/>
	<g>
		<path fill="#F8B64C" d="M18.6,47.4h2c-0.7-2.3-1.4-4.6-2.1-6.9c-1.2-0.2-2.4-0.4-3.4-0.7C16.2,42.3,17.4,44.8,18.6,47.4z"/>
		<path fill="#F8B64C" d="M23.3,40.9c0.1,2.1,0.3,4.3,0.4,6.4h1.7c0.1-2.2,0.3-4.3,0.4-6.4c-0.4,0-0.9,0-1.3,0
			C24.1,40.9,23.7,40.9,23.3,40.9z"/>
		<path fill="#F8B64C" d="M28.5,47.4h2c1.2-2.5,2.4-5.1,3.6-7.6c-1.1,0.3-2.2,0.5-3.4,0.7C29.9,42.8,29.2,45.1,28.5,47.4z"/>
	</g>
</g>
</svg>
