<?xml version="1.0" encoding="utf-8"?>
<!-- Generator: Adobe Illustrator 18.0.0, SVG Export Plug-In . SVG Version: 6.00 Build 0)  -->
<!DOCTYPE svg PUBLIC "-//W3C//DTD SVG 1.1//EN" "http://www.w3.org/Graphics/SVG/1.1/DTD/svg11.dtd">
<svg version="1.1" id="Layer_1" xmlns="http://www.w3.org/2000/svg" xmlns:xlink="http://www.w3.org/1999/xlink" x="0px" y="0px"
	 viewBox="0 0 48 48" enable-background="new 0 0 48 48" xml:space="preserve">
<g>
	<path fill="#FF7058" d="M40.6,48H7.4c-2.2,0-4-1.8-4-4V23.3c0-2.2,1.8-4,4-4h33.1c2.2,0,4,1.8,4,4V44C44.6,46.2,42.8,48,40.6,48z"
		/>
	<path fill="#FFD15C" d="M44.6,23.4L44.6,23.4c0-2.2-1.8-4-4-4H7.4c-2.2,0-4,1.8-4,4v0H44.6z"/>
	<path fill="#FFD15C" d="M3.4,44L3.4,44c0,2.2,1.8,4,4,4h33.1c2.2,0,4-1.8,4-4v0H3.4z"/>
	<path fill="#ACB3BA" d="M13.7,19.3v-3C13.7,10.6,18.3,6,24,6s10.3,4.6,10.3,10.3v3h6v-3C40.3,7.3,33,0,24,0S7.7,7.3,7.7,16.3v3
		H13.7z"/>
	<rect x="7.7" y="17.8" fill="#9CAAB5" width="6" height="1.5"/>
	<rect x="34.3" y="17.8" fill="#9CAAB5" width="6" height="1.5"/>
	<path fill="#334A5E" d="M28.4,31.7c0-2.4-2-4.4-4.4-4.4s-4.4,2-4.4,4.4c0,1.6,0.9,3,2.2,3.8L21.2,40h5.7l-0.7-4.6
		C27.5,34.7,28.4,33.3,28.4,31.7z"/>
</g>
</svg>
