<?xml version="1.0" encoding="utf-8"?>
<!-- Generator: Adobe Illustrator 18.0.0, SVG Export Plug-In . SVG Version: 6.00 Build 0)  -->
<!DOCTYPE svg PUBLIC "-//W3C//DTD SVG 1.1//EN" "http://www.w3.org/Graphics/SVG/1.1/DTD/svg11.dtd">
<svg version="1.1" id="Layer_1" xmlns="http://www.w3.org/2000/svg" xmlns:xlink="http://www.w3.org/1999/xlink" x="0px" y="0px"
	 viewBox="0 0 48 48" enable-background="new 0 0 48 48" xml:space="preserve">
<g>
	<g>
		<g>
			
				<rect x="33.5" y="11.8" transform="matrix(0.7071 -0.7071 0.7071 0.7071 0.8698 28.478)" fill="#ADB3BA" width="2.7" height="2.8"/>
		</g>
		<g>
			<path fill="#E8EAE9" d="M43.6,27.1L27.1,43.6c-1.1,1.1-3,1.1-4.1,0L4.4,25c-1.1-1.1-1.1-3,0-4.1L20.9,4.4c1.1-1.1,3-1.1,4.1,0
				L43.6,23C44.7,24.1,44.7,25.9,43.6,27.1z"/>
			
				<rect x="11.6" y="13.1" transform="matrix(0.7071 0.7071 -0.7071 0.7071 23.9997 -9.941)" fill="#4EC0AA" width="24.7" height="21.8"/>
			<g>
				<path fill="#FFD15C" d="M17.6,17.6L17.6,17.6c-0.3,0.3-0.3,0.9,0,1.2l5.4,5.4l1.2-1.2l-5.4-5.4C18.5,17.3,17.9,17.3,17.6,17.6z"
					/>
			</g>
			<g>
				<path fill="#F05540" d="M27.2,19.4L24,22.5l1.2,1.2l3.2-3.2c0.3-0.3,0.3-0.9,0-1.2l0,0C28.1,19,27.5,19,27.2,19.4z"/>
			</g>
			<circle fill="#415A6B" cx="23.9" cy="23.9" r="2.5"/>
			<g>
				<circle fill="#344A5E" cx="23.9" cy="23.9" r="1.2"/>
			</g>
			<g>
				<polygon fill="#415A6B" points="11.7,0 0,11.7 5,20.4 20.4,5 				"/>
			</g>
			<g>
				<polygon fill="#415A6B" points="36.3,48 48,36.3 43,27.6 27.6,43 				"/>
			</g>
		</g>
		<g>
			<path fill="#415A6B" d="M37.8,13.4l-1,1c-0.2,0.2-0.4,0.2-0.6,0l-2.6-2.6c-0.2-0.2-0.2-0.4,0-0.6l1-1c0.2-0.2,0.4-0.2,0.6,0
				l2.6,2.6C37.9,13,37.9,13.2,37.8,13.4z"/>
		</g>
	</g>
</g>
</svg>
