<?xml version="1.0" encoding="utf-8"?>
<!-- Generator: Adobe Illustrator 18.0.0, SVG Export Plug-In . SVG Version: 6.00 Build 0)  -->
<!DOCTYPE svg PUBLIC "-//W3C//DTD SVG 1.1//EN" "http://www.w3.org/Graphics/SVG/1.1/DTD/svg11.dtd">
<svg version="1.1" id="Layer_1" xmlns="http://www.w3.org/2000/svg" xmlns:xlink="http://www.w3.org/1999/xlink" x="0px" y="0px"
	 viewBox="0 0 48 48" enable-background="new 0 0 48 48" xml:space="preserve">
<g>
	<g>
		<g>
			<g>
				<path fill="#415A6B" d="M26,20.8h-1.4c-0.9,5.3,0,10.4,0.9,15.4c0.7,3.8,1.4,7.8,1.2,11.7l1.4,0.1c0.2-4.1-0.6-8.1-1.2-12
					C26,30.8,25.1,25.9,26,20.8z"/>
			</g>
		</g>
		<g>
			<g>
				<path fill="#F3705A" d="M25.1,23c0.5,0.4-9.9-6.8-7.2-17.7c1.3-4,4.9-6.2,7.3-4.8c1.9,1.1,3,3.6,3.2,6c1.3-1.9,3.3-2.6,5.2-1.7
					c2.6,1.1,4.4,3.8,3.8,6.5C36.1,17.4,25.1,22.2,25.1,23z"/>
			</g>
		</g>
		<g>
			<g>
				<g>
					<path fill="#66C6B9" d="M33,18.5c1,1.5,1.9,3.1,2.3,4.8c0.4,1.9,0.2,3.9-0.7,5.5c-0.9,1.7-2.4,3-4.2,3.7l-0.9,0.3
						c0.4-0.2,0.6-0.5,0.7-0.9c0.1-0.5,0.1-0.9,0-1.4c-0.2-1.2-0.7-2.3-1-3.4c-0.3-1.2-0.5-2.4-0.1-3.5c0.3-1,1-1.7,1.7-2.5
						C31.5,20.2,32.3,19.3,33,18.5z"/>
				</g>
			</g>
			<g>
				<g>
					<path fill="#415A6B" d="M32.9,20.2c0,0-0.3,1.1-0.5,2.7c0,0.4,0,0.9,0,1.3c0,0.5,0,1,0,1.5c0,1.1-0.2,2.2-0.5,3.3
						c-0.2,0.5-0.3,1.1-0.6,1.6c-0.2,0.5-0.5,1-0.8,1.5c-0.6,0.9-1.2,1.7-1.8,2.3c-0.6,0.6-1.2,1-1.6,1.3c-0.4,0.3-0.7,0.4-0.7,0.4
						L26,35.5c0,0,0.2-0.1,0.6-0.4c0.4-0.3,1-0.6,1.6-1.2c0.6-0.5,1.3-1.2,1.8-2.1c0.3-0.4,0.6-0.9,0.8-1.4c0.2-0.5,0.4-1,0.6-1.5
						c0.4-1,0.6-2.1,0.6-3.2c0-0.5,0-1,0.1-1.5c0-0.5,0.1-0.9,0.1-1.4C32.5,21.3,32.9,20.2,32.9,20.2z"/>
				</g>
			</g>
		</g>
		<g>
			<g>
				<g>
					<path fill="#66C6B9" d="M10.5,31c1.6-0.7,3.3-1.5,5.1-1.7c1.9-0.2,3.8,0.4,5.4,1.5c1.5,1.1,2.7,2.8,3.1,4.7l0.1,0.9
						c-0.1-0.4-0.4-0.7-0.8-0.8c-0.4-0.2-0.9-0.2-1.4-0.2c-1.2,0.1-2.4,0.4-3.6,0.6c-1.2,0.2-2.4,0.2-3.5-0.4
						c-0.9-0.4-1.6-1.2-2.2-2C11.9,32.7,11.2,31.9,10.5,31z"/>
				</g>
			</g>
			<g>
				<g>
					<path fill="#415A6B" d="M12.2,31.4c0,0,1,0.5,2.7,0.8c0.4,0.1,0.9,0.2,1.3,0.2c0.5,0.1,1,0.1,1.5,0.2c1,0.2,2.2,0.5,3.2,0.9
						c0.5,0.2,1,0.5,1.5,0.8c0.5,0.3,0.9,0.6,1.4,0.9c0.8,0.7,1.5,1.4,2,2.1c0.5,0.7,0.9,1.3,1.1,1.8c0.2,0.5,0.3,0.7,0.3,0.7
						l-0.8,0.3c0,0-0.1-0.3-0.3-0.7c-0.2-0.4-0.5-1-0.9-1.7c-0.4-0.7-1-1.4-1.8-2.1c-0.4-0.3-0.8-0.7-1.2-1
						c-0.4-0.3-0.9-0.6-1.4-0.8c-1-0.5-2-0.8-3.1-1.1c-0.5-0.1-1-0.2-1.5-0.3c-0.5-0.1-0.9-0.2-1.3-0.3
						C13.2,31.9,12.2,31.4,12.2,31.4z"/>
				</g>
			</g>
		</g>
	</g>
</g>
</svg>
