<?xml version="1.0" encoding="utf-8"?>
<!-- Generator: Adobe Illustrator 16.0.0, SVG Export Plug-In . SVG Version: 6.00 Build 0)  -->
<!DOCTYPE svg PUBLIC "-//W3C//DTD SVG 1.1//EN" "http://www.w3.org/Graphics/SVG/1.1/DTD/svg11.dtd">
<svg version="1.1" id="Layer_1" xmlns="http://www.w3.org/2000/svg" xmlns:xlink="http://www.w3.org/1999/xlink" x="0px" y="0px"
	 width="48px" height="48px" viewBox="0 0 48 48" enable-background="new 0 0 48 48" xml:space="preserve">
<g>
	<path fill="#CDD6E0" d="M44.334,9.088C40.2,28.414-3.507,23.861,0.237,47.932h19.57c3.416-15.217,26.748-18.43,26.748-35.717
		c0-0.992-0.088-2.037-0.251-3.127H44.334z"/>
	<path fill="#54C0EB" d="M10.916,10.902c-6.022,0-10.905,4.883-10.905,10.904c0,6.023,10.905,20.828,10.905,20.828
		S21.821,27.83,21.821,21.807C21.821,15.785,16.938,10.902,10.916,10.902 M10.916,26.313c-2.487,0-4.505-2.018-4.505-4.506
		c0-2.486,2.018-4.504,4.505-4.504c2.488,0,4.505,2.018,4.505,4.504C15.42,24.295,13.404,26.313,10.916,26.313"/>
	<path fill="#FFD15C" d="M41.676,0.068c-3.486,0-6.314,2.828-6.314,6.314c0,3.488,6.314,12.061,6.314,12.061
		s6.314-8.572,6.314-12.061C47.991,2.896,45.165,0.068,41.676,0.068 M41.676,9.787c-1.88,0-3.404-1.523-3.404-3.404
		c0-1.879,1.524-3.404,3.404-3.404c1.881,0,3.404,1.525,3.404,3.404C45.081,8.264,43.557,9.787,41.676,9.787"/>
</g>
</svg>
