<?xml version="1.0" encoding="utf-8"?>
<!-- Generator: Adobe Illustrator 18.0.0, SVG Export Plug-In . SVG Version: 6.00 Build 0)  -->
<!DOCTYPE svg PUBLIC "-//W3C//DTD SVG 1.1//EN" "http://www.w3.org/Graphics/SVG/1.1/DTD/svg11.dtd">
<svg version="1.1" id="Layer_1" xmlns="http://www.w3.org/2000/svg" xmlns:xlink="http://www.w3.org/1999/xlink" x="0px" y="0px"
	 viewBox="0 0 48 48" enable-background="new 0 0 48 48" xml:space="preserve">
<g>
	<path fill="#FF7058" d="M31.6,32.7l-3.3,0c-0.6,0-1-0.5-1-1l0-3.4c0-0.6,0.5-1,1-1l3.3,0L31.6,32.7z"/>
	<path fill="#40596B" d="M42.1,37.6c-0.7-2.9-1.1-8.8-1.1-11.8v-4H29.1v16.7h12.3C41.9,38.6,42.2,38.1,42.1,37.6z"/>
	<path fill="#334A5E" d="M29.1,21.8v3.9l9.7,0.6c0.2,0,0.4,0,0.6,0c0.6,0,1.1-0.1,1.7-0.1c0-0.1,0-0.3,0-0.4v-4H29.1z"/>
	<path fill="#FFD15C" d="M38.8,7.5L15.3,9v14.3l23.5,1.5c5,0.3,9.2-3.7,9.2-8.6v0C48,11.1,43.8,7.2,38.8,7.5z"/>
	<path fill="#40596B" d="M16.2,8.9L14,9c-1.1,0.1-1.9,0.9-1.9,2v10.1c0,1.1,0.8,1.9,1.9,2l2.2,0.1V8.9z"/>
	<path fill="#CDD6E0" d="M11.7,20.5h0.4v-8.9h-0.4c-1.1,0-2,0.9-2,2v4.9C9.7,19.6,10.6,20.5,11.7,20.5z"/>
	<path fill="#F2F2F2" d="M9.7,17.8h-8c-0.5,0-0.9-0.2-1.2-0.5l0,0c-0.6-0.6-0.6-1.6,0-2.3l0,0c0.3-0.3,0.8-0.5,1.2-0.5h8V17.8z"/>
	<path fill="#BFCDDB" d="M11.2,11.8v8.7c0.2,0,0.4,0.1,0.5,0.1h0.4v-8.9h-0.4C11.6,11.7,11.4,11.7,11.2,11.8z"/>
	<path fill="#ACB3BA" d="M42.2,40.5H28.9c-0.8,0-1.5-0.7-1.5-1.5v-0.1c0-0.8,0.7-1.5,1.5-1.5h13.3c0.8,0,1.5,0.7,1.5,1.5v0.1
		C43.7,39.9,43,40.5,42.2,40.5z"/>
	<rect x="28.6" y="27.3" fill="#F1543F" width="0.5" height="5.4"/>
	<g>
		<path fill="#FF7058" d="M42.2,15.3h-6.5c-0.4,0-0.8,0.3-0.8,0.8v0c0,0.4,0.3,0.8,0.8,0.8h6.5c0.4,0,0.8-0.3,0.8-0.8v0
			C43,15.7,42.6,15.3,42.2,15.3z"/>
		<path fill="#FF7058" d="M42.2,12.7h-6.5c-0.4,0-0.8,0.3-0.8,0.8v0c0,0.4,0.3,0.8,0.8,0.8h6.5c0.4,0,0.8-0.3,0.8-0.8v0
			C43,13.1,42.6,12.7,42.2,12.7z"/>
		<path fill="#FF7058" d="M42.2,18h-6.5c-0.4,0-0.8,0.3-0.8,0.8v0c0,0.4,0.3,0.8,0.8,0.8h6.5c0.4,0,0.8-0.3,0.8-0.8v0
			C43,18.3,42.6,18,42.2,18z"/>
	</g>
	<g>
		<rect x="13.3" y="10.2" fill="#334A5E" width="2.1" height="0.7"/>
		<rect x="13.3" y="13" fill="#334A5E" width="2.1" height="0.7"/>
		<rect x="13.3" y="15.7" fill="#334A5E" width="2.1" height="0.7"/>
		<rect x="13.3" y="18.5" fill="#334A5E" width="2.1" height="0.7"/>
		<rect x="13.3" y="21.3" fill="#334A5E" width="2.1" height="0.7"/>
	</g>
</g>
</svg>
