<?xml version="1.0" encoding="utf-8"?>
<!-- Generator: Adobe Illustrator 18.0.0, SVG Export Plug-In . SVG Version: 6.00 Build 0)  -->
<!DOCTYPE svg PUBLIC "-//W3C//DTD SVG 1.1//EN" "http://www.w3.org/Graphics/SVG/1.1/DTD/svg11.dtd">
<svg version="1.1" id="Layer_1" xmlns="http://www.w3.org/2000/svg" xmlns:xlink="http://www.w3.org/1999/xlink" x="0px" y="0px"
	 viewBox="0 0 48 48" enable-background="new 0 0 48 48" xml:space="preserve">
<g>
	<g>
		<g>
			<g>
				<path fill="#415A6B" d="M48,28.1l-2.1-0.4c0.1-0.8-1.2-2.5-5.4-4.5c-4-1.9-9.6-3.5-15.6-4.5c-6-1-11.8-1.3-16.2-0.9
					c-4.6,0.5-6.4,1.6-6.5,2.5L0,19.9c0.4-2.2,3.3-3.7,8.4-4.2c4.6-0.5,10.6-0.1,16.8,0.9c6.2,1.1,11.9,2.7,16.2,4.7
					C46.1,23.5,48.3,25.8,48,28.1z"/>
			</g>
		</g>
		<g>
			<path fill="#FFD15C" d="M35.5,29.2c-5.7-3.3-12.9-3.2-18.9-0.5c-1,0.5-2,1-3.1,1.3c-1.1,0.3-2.3,0.3-3.4,0.3
				c-1.2,0-2.3-0.1-3.5-0.4c1,2.9,2.6,5.4,4.8,7.5c0.4-0.3,0.8-0.5,1.2-0.7c5.7-3.3,12.9-3.2,18.9-0.5c1,0.5,2,1,3.1,1.3
				c0.6,0.2,1.2,0.2,1.8,0.3c1.8-1.6,3.2-3.6,4.3-5.8c-0.7-0.2-1.4-0.5-2.1-0.9C37.5,30.4,36.5,29.7,35.5,29.2z"/>
			<path fill="#F7B64C" d="M31.5,36.1c-6-2.7-13.2-2.8-18.9,0.5c-0.4,0.2-0.8,0.5-1.2,0.7c3.3,3.1,7.8,5.1,12.7,5.1
				c4.7,0,9.1-1.8,12.3-4.8c-0.6,0-1.2-0.1-1.8-0.3C33.5,37.1,32.5,36.5,31.5,36.1z"/>
			<path fill="#F7B64C" d="M13.5,15.1c1.1-0.3,2.1-0.8,3.1-1.3c6-2.7,13.2-2.8,18.9,0.5c1,0.6,2,1.3,3,1.8c0.8,0.4,1.7,0.8,2.6,1
				C38.4,10.4,31.7,5.6,24,5.6c-7,0-13,3.9-16.2,9.6c0.7,0.1,1.5,0.2,2.2,0.2C11.2,15.4,12.3,15.4,13.5,15.1z"/>
			<path fill="#F7B64C" d="M34.5,22.5c-1.1-0.3-2.1-0.8-3.1-1.3c-6-2.7-13.2-2.8-18.9,0.5c-1,0.6-2,1.3-3,1.8
				c-1.2,0.6-2.5,1.1-3.8,1.3c0.1,1.7,0.4,3.4,0.9,4.9c1.1,0.2,2.3,0.4,3.5,0.4c1.2,0,2.3,0,3.4-0.3c1.1-0.3,2.1-0.8,3.1-1.3
				c6-2.7,13.2-2.8,18.9,0.5c1,0.6,2,1.3,3,1.8c0.7,0.4,1.4,0.6,2.1,0.9c1.1-2.4,1.8-5,1.8-7.9c0-0.6,0-1.2-0.1-1.8
				c-1.4,0.4-2.9,0.6-4.3,0.6C36.8,22.9,35.7,22.8,34.5,22.5z"/>
			<path fill="#FFD15C" d="M38.5,16.2c-1-0.6-2-1.2-3-1.8c-5.7-3.3-12.9-3.2-18.9-0.5c-1,0.5-2,1-3.1,1.3c-1.1,0.3-2.3,0.3-3.4,0.3
				c-0.7,0-1.5-0.1-2.2-0.2c-1.4,2.6-2.2,5.6-2.2,8.8c0,0.3,0,0.6,0,0.9c1.3-0.2,2.6-0.7,3.8-1.3c1-0.6,2-1.2,3-1.8
				c5.7-3.3,12.9-3.2,18.9-0.5c1,0.5,2,1,3.1,1.3c1.1,0.3,2.3,0.3,3.4,0.3c1.5-0.1,2.9-0.2,4.3-0.6c-0.2-1.8-0.6-3.4-1.2-5
				C40.2,16.9,39.3,16.6,38.5,16.2z"/>
		</g>
		<g>
			<g>
				<g>
					<g>
						<path fill="#415A6B" d="M35.2,32.5c-3.8,0-8.2-0.4-12.4-1.1c-6.2-1.1-11.9-2.7-16.2-4.7c-4.7-2.2-6.9-4.5-6.5-6.8l2.1,0.4
							c-0.1,0.8,1.2,2.5,5.4,4.5c4,1.9,9.6,3.5,15.6,4.5c13.3,2.3,22.4,0.6,22.8-1.6l2.1,0.4C47.4,31.2,42.1,32.5,35.2,32.5z"/>
					</g>
				</g>
			</g>
		</g>
	</g>
</g>
</svg>
