<?xml version="1.0" encoding="utf-8"?>
<!-- Generator: Adobe Illustrator 18.0.0, SVG Export Plug-In . SVG Version: 6.00 Build 0)  -->
<!DOCTYPE svg PUBLIC "-//W3C//DTD SVG 1.1//EN" "http://www.w3.org/Graphics/SVG/1.1/DTD/svg11.dtd">
<svg version="1.1" id="Layer_1" xmlns="http://www.w3.org/2000/svg" xmlns:xlink="http://www.w3.org/1999/xlink" x="0px" y="0px"
	 viewBox="0 0 48 48" enable-background="new 0 0 48 48" xml:space="preserve">
<g>
	<g>
		<g>
			<path fill="#E8EAE9" d="M43.9,12c-0.7,0-1.3,0.2-1.9,0.5c0.3-0.6,0.5-1.2,0.5-1.9c0-2.3-1.8-4.1-4.1-4.1c-2.3,0-4.1,1.8-4.1,4.1
				c0,1.5,0.8,2.8,2,3.5L14.1,36.3c-0.7-1.2-2-2-3.5-2c-2.3,0-4.1,1.8-4.1,4.1c0,2.3,1.8,4.1,4.1,4.1c0.7,0,1.3-0.2,1.9-0.5
				c-0.3,0.6-0.5,1.2-0.5,1.9c0,2.3,1.8,4.1,4.1,4.1c2.3,0,4.1-1.8,4.1-4.1c0-1.5-0.8-2.8-2-3.5l22.3-22.2c0.7,1.2,2,2,3.5,2
				c2.3,0,4.1-1.8,4.1-4.1C48,13.8,46.2,12,43.9,12z"/>
			<path fill="#E8EAE9" d="M37.4,34.3c-1.5,0-2.8,0.8-3.5,2L11.7,14.1c1.2-0.7,2-2,2-3.5c0-2.3-1.8-4.1-4.1-4.1
				c-2.2,0-4.1,1.8-4.1,4.1c0,0.7,0.2,1.3,0.5,1.9C5.4,12.2,4.8,12,4.1,12C1.8,12,0,13.8,0,16.1c0,2.3,1.8,4.1,4.1,4.1
				c1.5,0,2.8-0.8,3.5-2l22.3,22.2c-1.2,0.7-2,2-2,3.5c0,2.3,1.8,4.1,4.1,4.1c2.2,0,4.1-1.8,4.1-4.1c0-0.7-0.2-1.3-0.5-1.9
				c0.6,0.3,1.2,0.5,1.9,0.5c2.3,0,4.1-1.8,4.1-4.1C41.5,36.1,39.7,34.3,37.4,34.3z"/>
		</g>
		<g>
			<path fill="#F3F3F3" d="M31.2,1.9c0,0-3.1-2.1-7.2-1.9c-4.2-0.1-7.2,1.9-7.2,1.9c-7.2,4.9-6.2,13.7-5.2,15.8
				c1.1,2.1,0.9,2.8,0.9,2.8c-2.1,2.4,2.1,4.5,2.1,4.5s0,0.1,0.9,6.5c0.9,6.4,8.5,5.5,8.5,5.5s7.6,0.8,8.5-5.5
				c0.9-6.4,0.9-6.5,0.9-6.5s4.2-2.1,2-4.5c0,0-0.2-0.7,0.9-2.8C37.5,15.7,38.5,6.8,31.2,1.9z M17.2,30.4c-0.5-0.1-0.7-1.4-1.1-2.9
				c-0.3-1.5-0.7-2.8-0.3-3.1c0.4-0.3,1.7,0.8,2.2,2.7C18.5,29,17.7,30.6,17.2,30.4z M31.8,27.5c-0.3,1.5-0.5,2.8-1.1,2.9
				c-0.5,0.1-1.2-1.4-0.8-3.3c0.4-1.9,1.7-3,2.2-2.7C32.6,24.8,32.2,26,31.8,27.5z"/>
			<path fill="#435B6C" d="M25,21.3c-0.7-1.5-1.3-1.5-2,0c-0.7,1.5-1.4,3-0.9,3.7c0.5,0.7,3.2,0.7,3.7,0
				C26.4,24.3,25.7,22.8,25,21.3z"/>
			<g>
				<path fill="#FFFFFF" d="M28.4,31.6c-0.2,0.5-0.3,0.5-0.3,0.3c0,0.2-0.1,0.3-0.2,0.4c-0.1,0.1-0.2,0.1-0.3,0
					c0,0.3-0.1,0.5-0.3,0.5c-0.1,0-0.2-0.3-0.2-0.6c-0.1,0.2-0.2,0.7-0.5,0.6c-0.1-0.1-0.2-0.4-0.3-0.7c0,0,0,0.1,0,0.1
					c0,0.3-0.2,0.8-0.5,0.7c-0.2,0-0.3-0.5-0.3-1c0,0.3-0.1,0.5-0.1,0.8C25.3,33.2,25,33,25,33c-0.2-0.1-0.2-0.4-0.3-0.7
					c0,0.3-0.1,0.5-0.2,0.6c-0.2,0.3-0.3,0.1-0.3,0.1c-0.1-0.1-0.2-0.3-0.3-0.6c-0.1,0.2-0.1,0.4-0.3,0.6c0,0-0.1,0.2-0.3-0.1
					c-0.1-0.2-0.1-0.4-0.2-0.6c0,0.3-0.1,0.6-0.3,0.7c0,0-0.2,0.1-0.4-0.4c-0.1-0.2-0.1-0.5-0.1-0.7c-0.1,0.4-0.2,0.9-0.3,0.9
					c-0.3,0.1-0.5-0.4-0.5-0.7c0,0,0-0.1,0-0.1c0,0.4-0.1,0.7-0.3,0.8c-0.2,0.1-0.4-0.5-0.5-0.7c0,0.2-0.1,0.4-0.2,0.5
					c-0.1,0-0.2-0.2-0.2-0.4c-0.1,0.1-0.2,0.2-0.3,0.1C20,32.2,20,32,19.9,31.9c0,0.2-0.1,0.2-0.3-0.3c0,0-0.1-0.8,0.3-0.7
					c0.2-0.2,0.3-0.3,0.5-0.3c0,0,0,0,0,0c0.2,0.1,0.4,0,0.5,0.3c0.2-0.2,0.6-0.1,0.7,0.1c0.2-0.3,0.8-0.3,0.8-0.1
					c0,0.1,0.1,0.3,0.1,0.4c0,0,0,0,0,0.1c0-0.1,0-0.2,0.1-0.3c0.3-0.8,0.7-0.1,0.7-0.1c0,0,0,0.1,0,0.3c0-0.1,0-0.2,0-0.3
					c0.3-0.1,0.5-0.1,0.6,0.3c0.2-0.4,0.4-0.4,0.6-0.3c0,0.1,0,0.2,0,0.3v-0.1c0-0.2,0.1-0.4,0.2-0.5c0.1-0.1,0.3,0,0.4,0.3
					c0,0.1,0.1,0.2,0.1,0.3c0,0,0,0,0,0c0-0.2,0-0.3,0.1-0.4c0,0,0.7-0.3,0.8,0.2c0.1-0.2,0.5-0.2,0.7-0.1c0-0.2,0.2-0.4,0.5-0.3
					c0,0,0,0,0,0.1c0.2,0,0.3,0,0.5,0C28.5,31,28.4,31.6,28.4,31.6z"/>
				<path fill="#FFFFFF" d="M28.7,30.7c0,0-0.1,0.2-0.2,0c0,0.1-0.1,0.2-0.3,0.1c-0.1,0-0.1-0.1-0.2-0.1c-0.1,0.4-0.2,0.4-0.3,0.3
					c0,0-0.1-0.1-0.2-0.3c0,0.1,0,0.2-0.1,0.2c-0.1,0.2-0.2,0.2-0.3,0.1C27,31,26.8,31,26.7,30.8c0,0.2-0.1,0.3-0.1,0.4
					c-0.2,0.3-0.5-0.2-0.7-0.4c0,0.3-0.4,0.5-0.8,0.2c-0.1-0.1-0.1-0.1-0.1-0.2c0,0,0,0,0,0c-0.6,0.7-1,0.3-1,0.2
					c-0.1,0.1-0.5,0.5-1-0.2c0,0,0,0,0,0c0,0.1-0.1,0.1-0.1,0.2c-0.4,0.4-0.7,0.1-0.8-0.2c-0.1,0.2-0.5,0.7-0.6,0.4
					c-0.1-0.1-0.1-0.3-0.1-0.4C21.2,31,21,31,20.9,31.1c-0.1,0.1-0.2,0.1-0.3-0.1c0-0.1-0.1-0.1-0.1-0.2c-0.1,0.1-0.2,0.2-0.2,0.3
					c-0.1,0-0.1,0.1-0.3-0.3c0,0-0.1,0.1-0.2,0.1c-0.2,0.1-0.3,0-0.3-0.1c-0.2,0.2-0.2,0-0.2,0c0,0-0.1-1,0.2-1c0.1,0,0.2,0,0.2,0.1
					c0,0,0,0,0,0c0,0,0,0,0-0.1c0.2-0.3,0.3,0,0.3,0c0,0.1,0,0.2,0,0.2c0.1-0.1,0.1-0.2,0.2-0.3c0-0.1,0.1-0.1,0.1,0
					c0,0.1,0.2,0.2,0.2,0.2c0,0,0-0.1,0-0.1c0.1-0.5,0.3-0.2,0.4-0.1c0,0.1,0.2,0.3,0.2,0.5l0,0c0-0.1,0-0.2,0-0.2
					c0.1-0.2,0.2-0.4,0.2-0.4s0.2-0.3,0.3,0.1s0.2,0.6,0.2,0.6c0,0,0,0,0,0c0-0.4,0.1-0.8,0.2-0.9c0.1-0.1,0.2-0.1,0.3-0.1
					c0.1,0,0.2,0.2,0.2,0.3c0,0.1,0.1,0.3,0.1,0.3c0,0,0.1,0.1,0.1,0.3c0-0.1,0-0.1,0-0.2c0.1-0.4,0.2-0.7,0.2-0.9
					c0.1-0.3,0.4-0.4,0.5-0.1c0,0,0,0,0,0c0.1,0.3,0.3,0.6,0.3,1.1c0.1-0.4,0.3-0.8,0.3-1.1c0,0,0,0,0,0c0.1-0.3,0.4-0.2,0.5,0.1
					c0,0.2,0.1,0.5,0.2,0.9c0,0.1,0,0.1,0,0.2c0-0.2,0.1-0.3,0.1-0.3c0-0.1,0.1-0.2,0.1-0.3c0-0.2,0.1-0.3,0.3-0.3
					c0.1,0,0.2,0,0.2,0.1c0.1,0.2,0.2,0.6,0.2,0.9c0,0,0,0,0,0c0.1-0.1,0.1-0.3,0.2-0.6c0.1-0.3,0.3-0.1,0.3-0.1s0.1,0.2,0.2,0.4
					c0,0.1,0,0.1,0,0.2l0,0c0.1-0.1,0.2-0.4,0.3-0.5c0-0.1,0.2-0.4,0.4,0.1c0,0,0,0.1,0,0.1c0.1,0,0.2-0.1,0.2-0.2c0,0,0.1,0,0.1,0
					c0,0.1,0.1,0.2,0.2,0.3c0-0.1,0-0.2,0-0.2c0,0,0.1-0.3,0.3,0c0,0,0,0,0,0.1c0,0,0,0,0,0c0,0,0,0,0,0c0-0.1,0.1-0.1,0.2-0.1
					C28.8,29.7,28.7,30.7,28.7,30.7z"/>
			</g>
			<g>
				<path fill="#435B6C" d="M17.2,11.8c-1.6,0-3,1.5-3,3.3c0,1.8,1.3,3.3,3,3.3c1.6,0,4.9-1,4.9-2.8S18.9,11.8,17.2,11.8z"/>
				<path fill="#435B6C" d="M30.8,11.8c-1.6,0-4.9,1.9-4.9,3.7s3.2,2.8,4.9,2.8c1.6,0,3-1.5,3-3.3C33.7,13.2,32.4,11.8,30.8,11.8z"
					/>
			</g>
		</g>
	</g>
</g>
</svg>
