<?xml version="1.0" encoding="utf-8"?>
<!-- Generator: Adobe Illustrator 18.0.0, SVG Export Plug-In . SVG Version: 6.00 Build 0)  -->
<!DOCTYPE svg PUBLIC "-//W3C//DTD SVG 1.1//EN" "http://www.w3.org/Graphics/SVG/1.1/DTD/svg11.dtd">
<svg version="1.1" id="Layer_1" xmlns="http://www.w3.org/2000/svg" xmlns:xlink="http://www.w3.org/1999/xlink" x="0px" y="0px"
	 viewBox="0 0 48 48" enable-background="new 0 0 48 48" xml:space="preserve">
<g>
	<path fill="#40596B" d="M20.6,35.9h-2.3l0.7-5.2h2c0.6,0,1.1,0.5,1,1.1L21.5,35C21.5,35.5,21.1,35.9,20.6,35.9z"/>
	<polygon fill="#F8B64C" points="21.4,25 21,27.8 19.4,39.4 6.7,39.4 8.3,27.9 8.7,25 	"/>
	<path fill="#FFD15C" d="M20.2,45.2H5.8c-1.6,0-2.9-1.3-2.9-2.9l0,0c0-1.6,1.3-2.9,2.9-2.9h14.4c1.6,0,2.9,1.3,2.9,2.9l0,0
		C23.1,43.9,21.8,45.2,20.2,45.2z"/>
	<path fill="#F2F2F2" d="M36.7,18.9h-0.2c-0.7,0-1.3-0.6-1.3-1.3v-5.5c0-0.7,0.6-1.3,1.3-1.3h0.2c0.7,0,1.3,0.6,1.3,1.3v5.5
		C38.1,18.3,37.5,18.9,36.7,18.9z"/>
	<path fill="#40596B" d="M46.2,16.6h-8.2v-3.5h8.2c1,0,1.8,0.8,1.8,1.8l0,0C48,15.8,47.2,16.6,46.2,16.6z"/>
	<path fill="#FFD15C" d="M32.4,25.6l-19.6,1.3C5.9,27.3,0,21.8,0,14.9l0,0c0-7,5.9-12.5,12.8-12l19.6,1.3V25.6z"/>
	<path fill="#FF7058" d="M34.6,20.9h-2.2v-12h2.2c1.1,0,2,0.9,2,2v8C36.6,20,35.7,20.9,34.6,20.9z"/>
	<path fill="#FFFFFF" d="M6.2,13.6h11.2c0.7,0,1.3,0.6,1.3,1.3l0,0c0,0.7-0.6,1.3-1.3,1.3H6.2c-0.7,0-1.3-0.6-1.3-1.3l0,0
		C4.9,14.2,5.5,13.6,6.2,13.6z"/>
	<path fill="#FFFFFF" d="M6.2,8.6h11.2c0.7,0,1.3,0.6,1.3,1.3l0,0c0,0.7-0.6,1.3-1.3,1.3H6.2c-0.7,0-1.3-0.6-1.3-1.3l0,0
		C4.9,9.2,5.5,8.6,6.2,8.6z"/>
	<path fill="#FFFFFF" d="M6.2,18.5h11.2c0.7,0,1.3,0.6,1.3,1.3l0,0c0,0.7-0.6,1.3-1.3,1.3H6.2c-0.7,0-1.3-0.6-1.3-1.3l0,0
		C4.9,19.1,5.5,18.5,6.2,18.5z"/>
</g>
</svg>
