<?xml version="1.0" encoding="utf-8"?>
<!-- Generator: Adobe Illustrator 18.0.0, SVG Export Plug-In . SVG Version: 6.00 Build 0)  -->
<!DOCTYPE svg PUBLIC "-//W3C//DTD SVG 1.1//EN" "http://www.w3.org/Graphics/SVG/1.1/DTD/svg11.dtd">
<svg version="1.1" id="Layer_1" xmlns="http://www.w3.org/2000/svg" xmlns:xlink="http://www.w3.org/1999/xlink" x="0px" y="0px"
	 viewBox="0 0 48 48" enable-background="new 0 0 48 48" xml:space="preserve">
<g>
	<g>
		<path fill="#F7B64C" d="M40.6,16.6H25.5l-3.7-4.5c-0.2-0.3-0.6-0.5-1-0.5H5.6c-0.7,0-1.3,0.6-1.3,1.3V42c0,0.7,0.6,1.3,1.3,1.3h35
			c0.7,0,1.3-0.6,1.3-1.3v-24C41.9,17.2,41.4,16.6,40.6,16.6z"/>
		<g>
			<path fill="#F3F3F3" d="M35.9,4.7H16.2l-7.9,7.9v24.6c0,1.1,0.9,2,2,2h25.7c1.1,0,2-0.9,2-2V6.7C37.9,5.6,37.1,4.7,35.9,4.7z"/>
		</g>
		<g>
			<rect x="22.4" y="12.1" fill="#CED6E0" width="11.5" height="2.3"/>
			<rect x="12.3" y="17.6" fill="#CED6E0" width="21.7" height="2.3"/>
			<rect x="12.3" y="23.1" fill="#CED6E0" width="21.7" height="2.3"/>
		</g>
		<path fill="#FFD15C" d="M1.3,27.4h28.6l5.5-5.6c0.4-0.4,0.9-0.6,1.5-0.6h9.9c1,0,1.5,0.8,1.3,1.7l-6,19.1c0,0.7-0.6,1.3-1.3,1.3
			h-35c-0.7,0-1.3-0.6-1.3-1.3L0.1,28.9C-0.2,28.1,0.4,27.4,1.3,27.4z"/>
		<polygon fill="#8AD7F8" points="16.2,4.7 8.3,12.6 16.2,12.6 		"/>
	</g>
</g>
</svg>
