<?xml version="1.0" encoding="utf-8"?>
<!-- Generator: Adobe Illustrator 19.0.1, SVG Export Plug-In . SVG Version: 6.00 Build 0)  -->
<svg version="1.1" id="Layer_1" xmlns="http://www.w3.org/2000/svg" xmlns:xlink="http://www.w3.org/1999/xlink" x="0px" y="0px"
	 viewBox="0 0 48 48" style="enable-background:new 0 0 48 48;" xml:space="preserve">
<style type="text/css">
	.st0{fill:#415A6B;}
	.st1{fill:#ADB3BA;}
	.st2{fill:#E8EAE9;}
	.st3{fill:#55C0EB;}
	.st4{fill:#F3705A;}
	.st5{fill:#FFFFFF;}
	.st6{fill:#FFD15C;}
	.st7{fill:#344A5E;}
	.st8{fill:#CED6E0;}
	.st9{fill:#F05540;}
	.st10{fill:#F7B64C;}
	.st11{fill:#F3F3F3;}
	.st12{fill:#66C6B9;}
	.st13{fill:#4ABAA5;}
	.st14{fill:#8AD7F8;}
	.st15{fill:none;}
	.st16{fill:#E53D35;}
</style>
<g>
	<g>
		<g>
			<path class="st10" d="M41.1,17.5v28.2c0,1.3-1,2.3-2.3,2.3H2.3C1,48,0,47,0,45.7V12.6c0-1.3,1-2.3,2.3-2.3h5.8
				c0.7,0,1.3,0.3,1.8,0.9l3.2,4h25.8C40.1,15.3,41.1,16.3,41.1,17.5z"/>
			<g>
				<path class="st2" d="M27,3.8H6.8c-1,0-1.8,0.8-1.8,1.8v35.6h31.2V13L27,3.8z"/>
				<g>
					<g>
						<rect x="8.6" y="17.1" class="st8" width="23.5" height="2.8"/>
					</g>
					<g>
						<rect x="8.6" y="10.6" class="st8" width="15.9" height="2.8"/>
					</g>
				</g>
			</g>
			<g>
				<path class="st6" d="M0,26.1v19.6C0,47,1,48,2.3,48h36.6c1.3,0,2.3-1,2.3-2.3V26.1c0-1.3-1-2.3-2.3-2.3H2.3
					C1,23.8,0,24.8,0,26.1z"/>
			</g>
			<g>
				<polygon class="st8" points="36.2,13 27,3.8 27,13 				"/>
			</g>
		</g>
		<g>
			<path class="st7" d="M15.3,4.3c-5.8,5.8-5.8,15.2,0,21c5.8,5.8,15.2,5.8,21,0c5.8-5.8,5.8-15.2,0-21C30.5-1.4,21.1-1.4,15.3,4.3z
				 M33.2,22.2c-4.1,4.1-10.7,4.1-14.8,0s-4.1-10.7,0-14.8s10.7-4.1,14.8,0S37.3,18.1,33.2,22.2z"/>
			<g>
				<path class="st7" d="M39.8,24.3l-4.5,4.5c-0.3,0.3-0.8,0.3-1.1,0l-0.5-0.5c-0.3-0.3-0.3-0.8,0-1.1l4.5-4.5
					c0.3-0.3,0.8-0.3,1.1,0l0.5,0.5C40.1,23.5,40.1,24,39.8,24.3z"/>
			</g>
			<g>
				<path class="st4" d="M45.8,28.4l-6.3-3.8l-4,4l3.8,6.3c1.6,2.6,5.1,3,7.3,0.9v0C48.8,33.5,48.3,29.9,45.8,28.4z"/>
			</g>
		</g>
	</g>
</g>
</svg>
