<?xml version="1.0" encoding="utf-8"?>
<!-- Generator: Adobe Illustrator 18.0.0, SVG Export Plug-In . SVG Version: 6.00 Build 0)  -->
<!DOCTYPE svg PUBLIC "-//W3C//DTD SVG 1.1//EN" "http://www.w3.org/Graphics/SVG/1.1/DTD/svg11.dtd">
<svg version="1.1" id="Layer_1" xmlns="http://www.w3.org/2000/svg" xmlns:xlink="http://www.w3.org/1999/xlink" x="0px" y="0px"
	 viewBox="0 0 512 512" enable-background="new 0 0 512 512" xml:space="preserve">
<g>
	<path fill="#F2F2F2" d="M30.2,155.6c-0.7,0-1.5,0-2.1,0.1C13.5,156.8,2,168.9,2,183.8v99.4c0,14.8,11.5,27,26.1,28.1
		c0.7,0.1,1.4,0.1,2.1,0.1h9.1V155.6H30.2z"/>
	<path fill="#41596B" d="M60.6,116.2c-11.7,0-21.2,9.5-21.2,21.2v192.2c0,11.7,9.5,21.2,21.2,21.2h126.6V116.2H60.6z"/>
	<path fill="#F2F2F2" d="M172,350.8V510H88.4l-5.9-33.6l-2.9-16.3l-4-22.1l-2.8-16.3l-4-22.1L66,383.3l-3.8-21.6l-2.1-12
		c2.4,0.7,4.9,1.1,7.5,1.1H172z"/>
	<g>
		<path fill="#CDD5DF" d="M118.4,391.5c0-4.5-3.7-8.2-8.2-8.2H66l2.9,16.3h41.4C114.8,399.6,118.4,395.9,118.4,391.5z"/>
		<path fill="#CDD5DF" d="M129.1,429.8c0-4.5-3.6-8.1-8.1-8.1H72.8l2.8,16.3h45.3C125.4,438,129.1,434.4,129.1,429.8z"/>
		<path fill="#CDD5DF" d="M131.5,460.1H79.6l2.9,16.3h49c4.5,0,8.2-3.7,8.2-8.1C139.7,463.8,136.1,460.1,131.5,460.1z"/>
	</g>
	<path fill="#41596B" d="M408.8,4.2c-9.9,5-16.1,15.1-16.1,26.2v406.1c0,11.1,6.2,21.2,16.1,26.2c18.6,7.8,39.1-5.9,39.1-26V30.3
		C447.9,10.1,427.4-3.6,408.8,4.2z"/>
	<path fill="#F2F2F2" d="M392.7,439.8V33.7c0-1.6,0.2-3.2,0.4-4.8l-206,90.5v234.6l206,90.5C392.8,443,392.7,441.5,392.7,439.8z"/>
	<path fill="#CDD5DF" d="M447.9,146.2v174.5c36.1-12.6,62.1-46.8,62.1-87.2C510,193.1,484,158.8,447.9,146.2z"/>
</g>
</svg>
