<?xml version="1.0" encoding="utf-8"?>
<!-- Generator: Adobe Illustrator 18.0.0, SVG Export Plug-In . SVG Version: 6.00 Build 0)  -->
<!DOCTYPE svg PUBLIC "-//W3C//DTD SVG 1.1//EN" "http://www.w3.org/Graphics/SVG/1.1/DTD/svg11.dtd">
<svg version="1.1" id="Layer_1" xmlns="http://www.w3.org/2000/svg" xmlns:xlink="http://www.w3.org/1999/xlink" x="0px" y="0px"
	 viewBox="0 0 48 48" enable-background="new 0 0 48 48" xml:space="preserve">
<g>
	<g>
		<g>
			<g>
				<g>
					<path fill="#4EC0AA" d="M42.2,14.2L37.1,3.8c-0.7-1.5-2.5-2.1-4-1.4l-23,11.3c-0.2,0.1-0.4,0.3-0.6,0.4H42.2z"/>
					<path fill="#F3F3F3" d="M37.6,14.2c0.3-0.2,0.6-0.5,0.9-0.6l-2.3-4.8c-2,1-4.4,0.2-5.4-1.8L16,14.2H37.6z"/>
				</g>
				<g>
					<path fill="#4EC0AA" d="M23.1,14.2h3.7L27,13c-0.8-0.1-1.6-0.1-2.2,0.1l-0.2-0.5l-1,0.5l0.2,0.5C23.5,13.8,23.3,14,23.1,14.2z"
						/>
				</g>
				<g>
					<path fill="#4EC0AA" d="M32.4,14.2h2.1c0.5-0.5,0.6-1.2,0.3-1.8c-0.4-0.8-1.3-1.1-2.1-0.7S31.7,13,32,13.7
						C32.1,13.9,32.2,14,32.4,14.2z"/>
				</g>
			</g>
			<g>
				<g>
					<path fill="#66C6B9" d="M33.1,14.2c0.9-1.2,0.8-2.8-0.3-3.9l-9.4-9.4c-1.2-1.2-3.1-1.2-4.2,0L5.8,14.2H33.1z"/>
					<path fill="#F3F3F3" d="M27.1,14.2c-0.7-1.5-0.5-3.3,0.7-4.6l-3.8-3.8c-1.6,1.6-4.1,1.6-5.7,0l-8.3,8.3H27.1z"/>
				</g>
				<g>
					<path fill="#66C6B9" d="M17,14.2l-0.2-1.4c-0.8,0.1-1.5,0.4-2.1,0.9l-0.4-0.4l-0.8,0.8l0.1,0.1H17z"/>
				</g>
				<g>
					<circle fill="#66C6B9" cx="22.8" cy="10.8" r="1.5"/>
				</g>
			</g>
		</g>
		<g>
			<path fill="#F3705A" d="M44.3,48H3c-1.7,0-3-1.3-3-3V16.5c0-1.7,1.3-3,3-3h41.3c1.7,0,3,1.3,3,3V45C47.3,46.7,45.9,48,44.3,48z"
				/>
			<path fill="#415A6B" d="M35.3,27.6v6.4c0,1,0.8,1.7,1.7,1.7h10.3c0.4,0,0.7-0.3,0.7-0.7v-8.4c0-0.4-0.3-0.7-0.7-0.7H37
				C36.1,25.8,35.3,26.6,35.3,27.6z"/>
			<circle fill="#F3F3F3" cx="39.8" cy="30.8" r="2"/>
		</g>
	</g>
</g>
</svg>
