<?xml version="1.0" encoding="utf-8"?>
<!-- Generator: Adobe Illustrator 18.0.0, SVG Export Plug-In . SVG Version: 6.00 Build 0)  -->
<!DOCTYPE svg PUBLIC "-//W3C//DTD SVG 1.1//EN" "http://www.w3.org/Graphics/SVG/1.1/DTD/svg11.dtd">
<svg version="1.1" id="Layer_1" xmlns="http://www.w3.org/2000/svg" xmlns:xlink="http://www.w3.org/1999/xlink" x="0px" y="0px"
	 viewBox="0 0 48 48" enable-background="new 0 0 48 48" xml:space="preserve">
<g>
	<g>
		<g>
			<g>
				<g>
					<polygon fill="#415A6B" points="1.5,30 7.1,32.2 17.7,9.8 10.8,7.1 					"/>
				</g>
			</g>
			<g>
				<g>
					<polygon fill="#344A5E" points="46.5,30 40.9,32.2 30.3,9.8 37.2,7.1 					"/>
				</g>
				<g>
					<path fill="#344A5E" d="M12.5,35.8L8,48h32l-4.5-12.2C32,26.4,32.7,16,37.2,7.1l-6.4-3.3L24,6.5l-6.9-2.7l-6.4,3.3
						C15.3,16,16,26.4,12.5,35.8z"/>
				</g>
				<g>
					<path fill="#415A6B" d="M40,48l-4.5-12.2C32,26.4,32.7,16,37.2,7.1l-6.4-3.3l-4.8,1.9L25.9,6L24,16.4l-1.9,5.2V48H40z"/>
				</g>
			</g>
			<g>
				<g>
					<path fill="#F3F3F3" d="M29.1,6.4L30.8,9L24,18.7L17.2,9l1.7-2.6l-2.4-0.3c0.1-2,1.1-3.4,2.4-4.4c2.9-2.3,7.1-2.3,10.1,0
						c1.3,1,2.4,2.5,2.4,4.4L29.1,6.4z"/>
				</g>
				<g>
					<path fill="#ADB3BA" d="M28.2,4.2c0,2.3-4.2,10.9-4.2,10.9s-4.2-8.5-4.2-10.9S21.7,0,24,0S28.2,1.9,28.2,4.2z"/>
				</g>
				<g>
					<polygon fill="#F3F3F3" points="24,15.1 22.1,21.6 25.5,16.5 25.5,14.3 					"/>
				</g>
			</g>
		</g>
		<g>
			<path fill="#FFD15C" d="M33.6,28.2c0.3-1.1,0.4-1.5-0.2-2.4c-6.2,1.3-12.6,1.3-18.7,0c-0.6,0.9-0.6,1.4-0.2,2.4
				C20.8,29.5,27.2,29.5,33.6,28.2z"/>
		</g>
		<g>
			<g>
				<g>
					<path fill="#FFD15C" d="M22.6,27.8c-0.6,3.2,0.7,10.6,5.5,9.1c0.8-0.2,0.4-1.4-0.3-1.2c-3.7,1.1-4.4-5.3-4-7.6
						C23.9,27.4,22.7,27,22.6,27.8L22.6,27.8z"/>
				</g>
			</g>
			<g>
				<path fill="#FFD15C" d="M24,28c1,2,1.2,3.7-0.1,5.6c-0.9,1.3-2.1,2.1-3.5,2.7c-0.7,0.3-0.1,1.4,0.6,1.1c1.9-0.8,3.6-2.2,4.5-4.1
					c1-2.1,0.5-3.9-0.5-5.9C24.7,26.7,23.6,27.3,24,28L24,28z"/>
			</g>
		</g>
		<g>
			<circle fill="#F7B64C" cx="24" cy="28.1" r="2"/>
		</g>
	</g>
</g>
</svg>
