<?xml version="1.0" encoding="utf-8"?>
<!-- Generator: Adobe Illustrator 18.0.0, SVG Export Plug-In . SVG Version: 6.00 Build 0)  -->
<!DOCTYPE svg PUBLIC "-//W3C//DTD SVG 1.1//EN" "http://www.w3.org/Graphics/SVG/1.1/DTD/svg11.dtd">
<svg version="1.1" id="Layer_1" xmlns="http://www.w3.org/2000/svg" xmlns:xlink="http://www.w3.org/1999/xlink" x="0px" y="0px"
	 viewBox="0 0 48 48" enable-background="new 0 0 48 48" xml:space="preserve">
<g>
	<g>
		<g>
			<g>
				<ellipse fill="#E8EAE9" cx="24.8" cy="35.9" rx="12.9" ry="12.1"/>
			</g>
			<ellipse fill="#F3F3F3" cx="24.8" cy="20.7" rx="9.7" ry="9"/>
			<g>
				<path fill="#F3705A" d="M16.6,12.5c1.7-7.3-2.1-9.9-3.6-4.6l-1.4-0.6c1.9-8.6,17.6-11.8,20.8,2.8l0.6,2.4l-0.5,1.5L16.6,12.5z"
					/>
			</g>
			<g>
				<path fill="#F3705A" d="M24.9,22.8c-1-0.6-1-2.3,0-3l8.7,3L24.9,22.8z"/>
			</g>
			<g>
				<circle fill="#415A6B" cx="20.8" cy="18.6" r="1.2"/>
				<circle fill="#415A6B" cx="28.8" cy="18.6" r="1.2"/>
			</g>
			<g>
				<g>
					<path fill="#415A6B" d="M24.8,27.1c-1.4,0-2.7-0.5-3.8-1.6c-0.1-0.1-0.1-0.4,0-0.5c0.1-0.1,0.4-0.1,0.5,0
						c0.9,0.9,2,1.3,3.3,1.3s2.4-0.5,3.3-1.3c0.1-0.1,0.4-0.1,0.5,0c0.1,0.1,0.1,0.4,0,0.5C27.5,26.5,26.1,27.1,24.8,27.1z"/>
				</g>
			</g>
		</g>
		<g>
			<path fill="#E8EAE9" d="M33,12.3c-5.4-0.9-10.9-0.9-16.3,0c-1,0.2-1.7,1.2-1.5,2.2l0,0c0.2,1,1.1,1.7,2,1.6
				c5.1-0.8,10.3-0.8,15.4,0c0.9,0.1,1.8-0.5,2-1.6l0,0C34.6,13.4,34,12.4,33,12.3z"/>
		</g>
		<g>
			<circle fill="#F3F3F3" cx="12.3" cy="7.6" r="2"/>
		</g>
	</g>
</g>
</svg>
