<?xml version="1.0" encoding="utf-8"?>
<!-- Generator: Adobe Illustrator 20.1.0, SVG Export Plug-In . SVG Version: 6.00 Build 0)  -->
<!DOCTYPE svg PUBLIC "-//W3C//DTD SVG 1.1//EN" "http://www.w3.org/Graphics/SVG/1.1/DTD/svg11.dtd">
<svg version="1.1" id="Layer_1" xmlns="http://www.w3.org/2000/svg" xmlns:xlink="http://www.w3.org/1999/xlink" x="0px" y="0px"
	 viewBox="0 0 49 49" enable-background="new 0 0 49 49" xml:space="preserve">
<g>
	<rect x="20.7" y="7.9" fill="#ACB3BA" width="7.7" height="5.3"/>
	<rect x="22.5" y="5.5" fill="#E2E2E2" width="3.9" height="2.4"/>
	<path fill="#ACB3BA" d="M25.3,5.5V1.3c0-0.4-0.3-0.8-0.8-0.8s-0.8,0.3-0.8,0.8v4.2H25.3z"/>
	<rect x="0.5" y="45.2" fill="#ACB3BA" width="48" height="3.3"/>
	<rect x="0.5" y="24.2" fill="#ACB3BA" width="48" height="3.3"/>
	<rect x="1.8" y="27.5" fill="#F2F2F2" width="45.3" height="17.6"/>
	<path fill="#F2F2F2" d="M38.6,24.2H10.4v-0.5c0-7.8,6.3-14.1,14.1-14.1l0,0c7.8,0,14.1,6.3,14.1,14.1V24.2z"/>
	<g>
		<path fill="#CDD6E0" d="M6.3,42L6.3,42c-0.6,0-1.1-0.5-1.1-1.1v-9.1c0-0.6,0.5-1.1,1.1-1.1l0,0c0.6,0,1.1,0.5,1.1,1.1v9.1
			C7.4,41.5,6.9,42,6.3,42z"/>
		<path fill="#CDD6E0" d="M15.4,42L15.4,42c-0.6,0-1.1-0.5-1.1-1.1v-9.1c0-0.6,0.5-1.1,1.1-1.1l0,0c0.6,0,1.1,0.5,1.1,1.1v9.1
			C16.5,41.5,16,42,15.4,42z"/>
		<path fill="#CDD6E0" d="M24.5,42L24.5,42c-0.6,0-1.1-0.5-1.1-1.1v-9.1c0-0.6,0.5-1.1,1.1-1.1l0,0c0.6,0,1.1,0.5,1.1,1.1v9.1
			C25.6,41.5,25.1,42,24.5,42z"/>
		<path fill="#CDD6E0" d="M33.6,42L33.6,42c-0.6,0-1.1-0.5-1.1-1.1v-9.1c0-0.6,0.5-1.1,1.1-1.1l0,0c0.6,0,1.1,0.5,1.1,1.1v9.1
			C34.7,41.5,34.2,42,33.6,42z"/>
		<path fill="#CDD6E0" d="M42.7,42L42.7,42c-0.6,0-1.1-0.5-1.1-1.1v-9.1c0-0.6,0.5-1.1,1.1-1.1l0,0c0.6,0,1.1,0.5,1.1,1.1v9.1
			C43.8,41.5,43.3,42,42.7,42z"/>
	</g>
	<rect x="1.8" y="27.5" fill="#E2E2E2" width="45.3" height="1.5"/>
</g>
</svg>
