<?xml version="1.0" encoding="utf-8"?>
<!-- Generator: Adobe Illustrator 18.0.0, SVG Export Plug-In . SVG Version: 6.00 Build 0)  -->
<!DOCTYPE svg PUBLIC "-//W3C//DTD SVG 1.1//EN" "http://www.w3.org/Graphics/SVG/1.1/DTD/svg11.dtd">
<svg version="1.1" id="Layer_1" xmlns="http://www.w3.org/2000/svg" xmlns:xlink="http://www.w3.org/1999/xlink" x="0px" y="0px"
	 viewBox="0 0 48 48" enable-background="new 0 0 48 48" xml:space="preserve">
<g>
	<path fill="#FF7058" d="M46,48H2c-1.1,0-2-0.9-2-2V6.9c0-1.1,0.9-2,2-2h44c1.1,0,2,0.9,2,2V46C48,47.1,47.1,48,46,48z"/>
	<path fill="#F2F2F2" d="M44.5,16.3h-41c-0.6,0-1,0.4-1,1v27.2c0,0.6,0.4,1,1,1h34l8-8V17.3C45.5,16.8,45.1,16.3,44.5,16.3z"/>
	<path fill="#CDD6E0" d="M37.5,45.5l8-8h-7.1c-0.5,0-0.9,0.4-0.9,0.9V45.5z"/>
	<circle fill="#FFFFFF" cx="8" cy="8.7" r="2.1"/>
	<circle fill="#FFFFFF" cx="18.7" cy="8.7" r="2.1"/>
	<circle fill="#FFFFFF" cx="29.3" cy="8.7" r="2.1"/>
	<circle fill="#FFFFFF" cx="40" cy="8.7" r="2.1"/>
	<path fill="#40596B" d="M8,9.8L8,9.8c-0.7,0-1.3-0.6-1.3-1.3V1.3C6.6,0.6,7.2,0,8,0l0,0c0.7,0,1.3,0.6,1.3,1.3v7.1
		C9.3,9.2,8.7,9.8,8,9.8z"/>
	<path fill="#40596B" d="M18.7,9.8L18.7,9.8c-0.7,0-1.3-0.6-1.3-1.3V1.3c0-0.7,0.6-1.3,1.3-1.3l0,0C19.4,0,20,0.6,20,1.3v7.1
		C20,9.2,19.4,9.8,18.7,9.8z"/>
	<path fill="#40596B" d="M29.3,9.8L29.3,9.8c-0.7,0-1.3-0.6-1.3-1.3V1.3C28,0.6,28.6,0,29.3,0l0,0c0.7,0,1.3,0.6,1.3,1.3v7.1
		C30.7,9.2,30.1,9.8,29.3,9.8z"/>
	<path fill="#40596B" d="M40,9.8L40,9.8c-0.7,0-1.3-0.6-1.3-1.3V1.3C38.7,0.6,39.3,0,40,0l0,0c0.7,0,1.3,0.6,1.3,1.3v7.1
		C41.4,9.2,40.8,9.8,40,9.8z"/>
	<g>
		<rect x="15.7" y="19.3" fill="#CDD6E0" width="6.3" height="5.7"/>
		<rect x="26" y="19.3" fill="#CDD6E0" width="6.3" height="5.7"/>
		<rect x="36.2" y="19.3" fill="#CDD6E0" width="6.3" height="5.7"/>
		<rect x="5.5" y="28.1" fill="#CDD6E0" width="6.3" height="5.7"/>
		<rect x="15.7" y="28.1" fill="#FFD15C" width="6.3" height="5.7"/>
		<rect x="26" y="28.1" fill="#CDD6E0" width="6.3" height="5.7"/>
		<rect x="36.2" y="28.1" fill="#CDD6E0" width="6.3" height="5.7"/>
		<rect x="5.5" y="36.8" fill="#CDD6E0" width="6.3" height="5.7"/>
		<rect x="15.7" y="36.8" fill="#CDD6E0" width="6.3" height="5.7"/>
		<rect x="26" y="36.8" fill="#CDD6E0" width="6.3" height="5.7"/>
	</g>
</g>
</svg>
