<?xml version="1.0" encoding="utf-8"?>
<!-- Generator: Adobe Illustrator 18.0.0, SVG Export Plug-In . SVG Version: 6.00 Build 0)  -->
<!DOCTYPE svg PUBLIC "-//W3C//DTD SVG 1.1//EN" "http://www.w3.org/Graphics/SVG/1.1/DTD/svg11.dtd">
<svg version="1.1" id="Layer_1" xmlns="http://www.w3.org/2000/svg" xmlns:xlink="http://www.w3.org/1999/xlink" x="0px" y="0px"
	 viewBox="0 0 48 48" enable-background="new 0 0 48 48" xml:space="preserve">
<g>
	<rect x="0" y="15.6" fill="#E8EAEA" width="10.6" height="32.4"/>
	<rect x="37.4" y="15.6" fill="#E8EAEA" width="10.6" height="32.4"/>
	<path fill="#FF7058" d="M0,16.2L0,16.2h48l0,0c0-1.2-1-2.2-2.2-2.2H2.2C1,14,0,15,0,16.2z"/>
	<rect x="10.6" y="10.2" fill="#F2F2F2" width="26.8" height="37.8"/>
	<path fill="#FF7058" d="M38.9,8H9.1C8.5,8,8,8.5,8,9.1c0,0.6,0.5,1.1,1.1,1.1h29.8c0.6,0,1.1-0.5,1.1-1.1C40,8.5,39.5,8,38.9,8z"/>
	<rect x="3" y="18.6" fill="#54C0EB" width="4.6" height="5.1"/>
	<rect x="3" y="25.7" fill="#54C0EB" width="4.6" height="5.1"/>
	<rect x="3" y="32.8" fill="#54C0EB" width="4.6" height="5.1"/>
	<rect x="3" y="39.9" fill="#54C0EB" width="4.6" height="5.1"/>
	<rect x="40.4" y="18.6" fill="#54C0EB" width="4.6" height="5.1"/>
	<rect x="40.4" y="25.7" fill="#54C0EB" width="4.6" height="5.1"/>
	<rect x="40.4" y="32.8" fill="#54C0EB" width="4.6" height="5.1"/>
	<rect x="40.4" y="39.9" fill="#54C0EB" width="4.6" height="5.1"/>
	<rect x="13.6" y="27.5" fill="#84DBFF" width="5" height="5.1"/>
	<rect x="18.6" y="35.5" fill="#40596B" width="10.7" height="12.5"/>
	<rect y="45.9" fill="#ACB3BA" width="48" height="2.1"/>
	<rect x="13.6" y="13.3" fill="#84DBFF" width="5" height="5.1"/>
	<rect x="13.6" y="20.4" fill="#84DBFF" width="5" height="5.1"/>
	<rect x="21.5" y="13.3" fill="#84DBFF" width="5" height="5.1"/>
	<rect x="21.5" y="20.4" fill="#84DBFF" width="5" height="5.1"/>
	<rect x="21.5" y="27.5" fill="#84DBFF" width="5" height="5.1"/>
	<rect x="29.4" y="13.3" fill="#84DBFF" width="5" height="5.1"/>
	<rect x="29.4" y="20.4" fill="#84DBFF" width="5" height="5.1"/>
	<rect x="29.4" y="27.5" fill="#84DBFF" width="5" height="5.1"/>
	<path fill="#40596B" d="M13.8,0.1h1.3v5.9h-1.3V3.7h-2.4v2.3h-1.3V0.1h1.3v2.5h2.4V0.1z"/>
	<path fill="#40596B" d="M21.5,5.2c-0.6,0.6-1.3,0.9-2.2,0.9c-0.9,0-1.6-0.3-2.2-0.9c-0.6-0.6-0.9-1.3-0.9-2.2
		c0-0.9,0.3-1.6,0.9-2.2C17.7,0.3,18.4,0,19.3,0c0.9,0,1.6,0.3,2.2,0.9c0.6,0.6,0.9,1.3,0.9,2.2C22.4,3.9,22.1,4.7,21.5,5.2z
		 M21.1,3.1c0-0.5-0.2-1-0.5-1.4c-0.3-0.4-0.8-0.6-1.3-0.6c-0.5,0-0.9,0.2-1.3,0.6c-0.3,0.4-0.5,0.8-0.5,1.4s0.2,1,0.5,1.3
		C18.4,4.8,18.8,5,19.3,5c0.5,0,0.9-0.2,1.3-0.6S21.1,3.6,21.1,3.1z"/>
	<path fill="#40596B" d="M25.9,1.3v4.8h-1.3V1.3h-1.7V0.1h4.7v1.1H25.9z"/>
	<path fill="#40596B" d="M32.8,0.1v1.2h-3v1.2h2.7v1.1h-2.7v1.2h3v1.2h-4.4V0.1H32.8z"/>
	<path fill="#40596B" d="M34.1,6.1V0.1h1.3v4.7h2.5v1.2H34.1z"/>
</g>
</svg>
