<?xml version="1.0" encoding="utf-8"?>
<!-- Generator: Adobe Illustrator 16.0.0, SVG Export Plug-In . SVG Version: 6.00 Build 0)  -->
<!DOCTYPE svg PUBLIC "-//W3C//DTD SVG 1.1//EN" "http://www.w3.org/Graphics/SVG/1.1/DTD/svg11.dtd">
<svg version="1.1" id="Layer_1" xmlns="http://www.w3.org/2000/svg" xmlns:xlink="http://www.w3.org/1999/xlink" x="0px" y="0px"
	 width="48px" height="48px" viewBox="0 0 48 48" enable-background="new 0 0 48 48" xml:space="preserve">
<g>
	<path fill="#F2F2F2" d="M21.352,45.314H2c-1.104,0-2-0.895-2-2V4.684c0-1.105,0.896-2,2-2h19.353c1.104,0,2,0.895,2,2v38.631
		C23.352,44.42,22.457,45.314,21.352,45.314"/>
	<path fill="#F2F2F2" d="M46,45.314H26.648c-1.104,0-2-0.895-2-2V4.684c0-1.105,0.896-2,2-2H46c1.104,0,2,0.895,2,2v38.631
		C48,44.42,47.105,45.314,46,45.314"/>
	<rect x="3.693" y="6.377" fill="#FF7058" width="15.467" height="14.414"/>
	<rect x="28.59" y="27.209" fill="#54C0EB" width="15.468" height="14.414"/>
	<path fill="#FFFFFF" d="M22.121,7.535c0,0.348-0.282,0.631-0.631,0.631c-0.348,0-0.631-0.283-0.631-0.631s0.283-0.631,0.631-0.631
		C21.838,6.904,22.121,7.188,22.121,7.535"/>
	<path fill="#FFFFFF" d="M27.142,7.535c0,0.348-0.282,0.631-0.631,0.631S25.88,7.883,25.88,7.535s0.282-0.631,0.631-0.631
		S27.142,7.188,27.142,7.535"/>
	<path fill="#ACB3BA" d="M26.015,8.031h-4.03c-0.274,0-0.495-0.223-0.495-0.496c0-0.275,0.221-0.496,0.495-0.496h4.03
		c0.273,0,0.496,0.221,0.496,0.496C26.511,7.809,26.289,8.031,26.015,8.031"/>
	<path fill="#FFFFFF" d="M22.121,18.512c0,0.348-0.282,0.631-0.631,0.631c-0.348,0-0.631-0.283-0.631-0.631s0.283-0.631,0.631-0.631
		C21.838,17.881,22.121,18.164,22.121,18.512"/>
	<path fill="#FFFFFF" d="M27.142,18.512c0,0.348-0.282,0.631-0.631,0.631s-0.631-0.283-0.631-0.631s0.282-0.631,0.631-0.631
		S27.142,18.164,27.142,18.512"/>
	<path fill="#ACB3BA" d="M26.015,19.008h-4.03c-0.274,0-0.495-0.223-0.495-0.496c0-0.275,0.221-0.496,0.495-0.496h4.03
		c0.273,0,0.496,0.221,0.496,0.496C26.511,18.785,26.289,19.008,26.015,19.008"/>
	<path fill="#FFFFFF" d="M22.121,29.488c0,0.348-0.282,0.631-0.631,0.631c-0.348,0-0.631-0.283-0.631-0.631s0.283-0.631,0.631-0.631
		C21.838,28.857,22.121,29.141,22.121,29.488"/>
	<path fill="#FFFFFF" d="M27.142,29.488c0,0.348-0.282,0.631-0.631,0.631s-0.631-0.283-0.631-0.631s0.282-0.631,0.631-0.631
		S27.142,29.141,27.142,29.488"/>
	<path fill="#ACB3BA" d="M26.015,29.984h-4.03c-0.274,0-0.495-0.223-0.495-0.496c0-0.275,0.221-0.496,0.495-0.496h4.03
		c0.273,0,0.496,0.221,0.496,0.496C26.511,29.762,26.289,29.984,26.015,29.984"/>
	<path fill="#FFFFFF" d="M22.121,40.465c0,0.348-0.282,0.631-0.631,0.631c-0.348,0-0.631-0.283-0.631-0.631s0.283-0.631,0.631-0.631
		C21.838,39.834,22.121,40.117,22.121,40.465"/>
	<path fill="#FFFFFF" d="M27.142,40.465c0,0.348-0.282,0.631-0.631,0.631s-0.631-0.283-0.631-0.631s0.282-0.631,0.631-0.631
		S27.142,40.117,27.142,40.465"/>
	<path fill="#ACB3BA" d="M26.015,40.961h-4.03c-0.274,0-0.495-0.223-0.495-0.496c0-0.275,0.221-0.496,0.495-0.496h4.03
		c0.273,0,0.496,0.221,0.496,0.496C26.511,40.738,26.289,40.961,26.015,40.961"/>
	<path fill="#FFD15C" d="M15.035,10.609L14.74,8.031H8.113l-0.295,2.578c-0.233,2.025,1.241,3.816,3.221,4.025v3.727H9.775
		c-0.214,0-0.387,0.172-0.387,0.387c0,0.213,0.173,0.387,0.387,0.387h3.301c0.215,0,0.389-0.174,0.389-0.387
		c0-0.215-0.174-0.387-0.389-0.387h-1.262v-3.727C13.793,14.426,15.268,12.635,15.035,10.609"/>
	<path fill="#FFFFFF" d="M41.722,38.838c0.398-0.396,0.398-1.043,0-1.439c-0.377-0.377-0.971-0.385-1.371-0.047l-2.464-2.465
		c0.623-1.574-0.362-4.207-1.538-5.381c-1.363-1.363-3.572-1.363-4.935,0c-1.363,1.363-1.363,3.572,0,4.936
		c1.207,1.207,3.952,2.215,5.51,1.482l2.427,2.428c-0.338,0.4-0.33,0.994,0.047,1.371c0.397,0.398,1.043,0.398,1.44,0
		c0.17-0.17,0.251-0.387,0.276-0.607C41.336,39.09,41.552,39.008,41.722,38.838"/>
	<rect x="3.851" y="27.131" fill="#CDD6E0" width="15.15" height="2.75"/>
	<rect x="3.851" y="33.041" fill="#CDD6E0" width="15.15" height="2.75"/>
	<rect x="3.851" y="38.951" fill="#CDD6E0" width="11.049" height="2.75"/>
	<rect x="28.631" y="6.377" fill="#CDD6E0" width="15.149" height="2.75"/>
	<rect x="28.631" y="12.287" fill="#CDD6E0" width="15.149" height="2.75"/>
	<rect x="28.631" y="18.197" fill="#CDD6E0" width="11.049" height="2.75"/>
</g>
</svg>
