<?xml version="1.0" encoding="utf-8"?>
<!-- Generator: Adobe Illustrator 18.0.0, SVG Export Plug-In . SVG Version: 6.00 Build 0)  -->
<!DOCTYPE svg PUBLIC "-//W3C//DTD SVG 1.1//EN" "http://www.w3.org/Graphics/SVG/1.1/DTD/svg11.dtd">
<svg version="1.1" id="Layer_1" xmlns="http://www.w3.org/2000/svg" xmlns:xlink="http://www.w3.org/1999/xlink" x="0px" y="0px"
	 viewBox="0 0 48 48" enable-background="new 0 0 48 48" xml:space="preserve">
<g>
	<g>
		<g>
			<g>
				<g>
					<polygon fill="#F3705A" points="25.9,43.8 25.9,37 22.1,37 22.1,43.8 0,43.8 0,47.5 48,47.5 48,43.8 					"/>
				</g>
			</g>
			<g>
				<g>
					<polygon fill="#415A6B" points="18.5,48 18.5,43.3 21.7,43.3 21.7,40.1 26.4,40.1 26.4,43.3 29.5,43.3 29.5,48 					"/>
				</g>
			</g>
		</g>
		<g>
			<g>
				<g>
					<circle fill="#8AD7F8" cx="24" cy="18.7" r="17.9"/>
					<path fill="#415A6B" d="M24,37.4C13.7,37.4,5.3,29,5.3,18.7S13.7,0,24,0s18.7,8.4,18.7,18.7S34.3,37.4,24,37.4z M24,1.5
						c-9.5,0-17.2,7.7-17.2,17.2S14.5,35.9,24,35.9s17.2-7.7,17.2-17.2S33.5,1.5,24,1.5z"/>
				</g>
			</g>
			<g>
				<ellipse fill="#8AD7F8" cx="24" cy="18.7" rx="9.6" ry="17.9"/>
				<path fill="#415A6B" d="M24,37.4c-5.8,0-10.3-8.2-10.3-18.7S18.2,0,24,0s10.3,8.2,10.3,18.7S29.8,37.4,24,37.4z M24,1.5
					c-4.8,0-8.8,7.9-8.8,17.2s4,17.2,8.8,17.2s8.8-7.9,8.8-17.2S28.8,1.5,24,1.5z"/>
			</g>
			<g>
				<g>
					<line fill="#8AD7F8" x1="41.9" y1="18.7" x2="6.1" y2="18.7"/>
					<rect x="6.1" y="17.9" fill="#415A6B" width="35.9" height="1.5"/>
				</g>
			</g>
			<g>
				<g>
					<line fill="#8AD7F8" x1="24" y1="36.6" x2="24" y2="0.8"/>
					<rect x="23.3" y="0.7" fill="#415A6B" width="1.5" height="35.9"/>
				</g>
			</g>
			<g>
				<g>
					<path fill="#415A6B" d="M24,11.2c-5.4,0-10.5-1.3-14.1-3.5l0.8-1.3C14,8.5,18.9,9.7,24,9.7s10-1.2,13.3-3.3l0.8,1.3
						C34.5,10,29.4,11.2,24,11.2z"/>
				</g>
				<g>
					<path fill="#415A6B" d="M37.3,30.9c-3.3-2.1-8.1-3.3-13.3-3.3s-10,1.2-13.3,3.3l-0.8-1.3c3.5-2.2,8.7-3.5,14.1-3.5
						s10.5,1.3,14.1,3.5L37.3,30.9z"/>
				</g>
			</g>
		</g>
	</g>
</g>
</svg>
