<?xml version="1.0" encoding="utf-8"?>
<!-- Generator: Adobe Illustrator 18.0.0, SVG Export Plug-In . SVG Version: 6.00 Build 0)  -->
<!DOCTYPE svg PUBLIC "-//W3C//DTD SVG 1.1//EN" "http://www.w3.org/Graphics/SVG/1.1/DTD/svg11.dtd">
<svg version="1.1" id="Layer_1" xmlns="http://www.w3.org/2000/svg" xmlns:xlink="http://www.w3.org/1999/xlink" x="0px" y="0px"
	 viewBox="0 0 48 48" enable-background="new 0 0 48 48" xml:space="preserve">
<g>
	<path fill="#66C6B9" d="M48,3.1L48,3.1C48,1.4,46.6,0,44.9,0H3.1C1.4,0,0,1.4,0,3.1v0c0,1.7,1.4,3.1,3.1,3.1h41.9
		C46.6,6.1,48,4.7,48,3.1z"/>
	<path fill="#CED6E0" d="M25.5,40.3v-4.8h-3v4.8C21,40.9,20,42.4,20,44c0,2.2,1.8,4,4,4s4-1.8,4-4C28,42.4,27,40.9,25.5,40.3z
		 M24,45.5c-0.8,0-1.5-0.7-1.5-1.5s0.7-1.5,1.5-1.5s1.5,0.7,1.5,1.5S24.8,45.5,24,45.5z"/>
	<path fill="#F3F3F3" d="M44.8,32.3V6.1H3.1v26.2c0,2.2,1.8,4,4,4h33.7C43,36.3,44.8,34.5,44.8,32.3z"/>
	<g>
		<g>
			<g>
				<rect x="9.5" y="20.6" fill="#8AD7F8" width="15.4" height="11.2"/>
				<g>
					<polygon fill="#415A6B" points="27.2,20.6 17.2,10.6 7.3,20.6 					"/>
				</g>
			</g>
			<rect x="14.9" y="25.8" fill="#415A6B" width="4.7" height="6"/>
		</g>
		<g>
			<path fill="#FFD15C" d="M35.4,28.7v-1.3c-1.6-0.2-3.1-0.8-4.4-2l1.3-1.6c1,0.9,2,1.4,3.1,1.6v-3.5c-1.4-0.3-2.3-0.7-3-1.3
				c-0.6-0.5-0.9-1.3-0.9-2.3c0-1,0.4-1.9,1.1-2.5c0.7-0.7,1.7-1,2.8-1.1v-0.9h1.1v0.9c1.3,0.1,2.6,0.5,3.7,1.3l-1.2,1.7
				c-0.8-0.6-1.6-0.9-2.6-1V20h0.1c1.4,0.3,2.4,0.8,3,1.3c0.6,0.6,1,1.4,1,2.4c0,1-0.4,1.9-1.1,2.6c-0.7,0.7-1.7,1-2.9,1.1v1.3H35.4
				z M34.1,17.1c-0.3,0.3-0.5,0.6-0.5,1c0,0.4,0.1,0.7,0.4,1c0.2,0.2,0.7,0.5,1.4,0.7v-3.1C34.8,16.6,34.4,16.8,34.1,17.1z
				 M37.9,24.9c0.3-0.3,0.5-0.6,0.5-1c0-0.4-0.1-0.8-0.4-1c-0.3-0.2-0.8-0.5-1.5-0.7v3.2C37.1,25.4,37.6,25.2,37.9,24.9z"/>
		</g>
	</g>
</g>
</svg>
