<?xml version="1.0" encoding="utf-8"?>
<!-- Generator: Adobe Illustrator 16.0.0, SVG Export Plug-In . SVG Version: 6.00 Build 0)  -->
<!DOCTYPE svg PUBLIC "-//W3C//DTD SVG 1.1//EN" "http://www.w3.org/Graphics/SVG/1.1/DTD/svg11.dtd">
<svg version="1.1" id="Layer_1" xmlns="http://www.w3.org/2000/svg" xmlns:xlink="http://www.w3.org/1999/xlink" x="0px" y="0px"
	 width="48px" height="48px" viewBox="0 0 48 48" enable-background="new 0 0 48 48" xml:space="preserve">
<g>
	<path fill="#F2F2F2" d="M44,0H4C1.791,0,0,1.791,0,4v21.543c0,2.209,1.791,4,4,4h40c2.209,0,4-1.791,4-4V4C48,1.791,46.209,0,44,0"
		/>
	<rect x="3.59" y="3.592" fill="#334A5E" width="2.855" height="22.359"/>
	<rect x="8.211" y="3.592" fill="#334A5E" width="0.527" height="22.359"/>
	<rect x="18.582" y="3.592" fill="#334A5E" width="0.525" height="22.359"/>
	<rect x="11.023" y="3.592" fill="#334A5E" width="1.816" height="22.359"/>
	<rect x="31.764" y="3.592" fill="#334A5E" width="1.816" height="22.359"/>
	<rect x="28.387" y="3.592" fill="#334A5E" width="1.657" height="22.359"/>
	<rect x="25.421" y="3.592" fill="#334A5E" width="0.675" height="22.359"/>
	<rect x="21.251" y="3.59" fill="#334A5E" width="2.101" height="22.361"/>
	<rect x="37.943" y="3.592" fill="#334A5E" width="1.816" height="22.359"/>
	<rect x="41.677" y="3.592" fill="#334A5E" width="2.733" height="22.359"/>
	<rect x="14.908" y="3.59" fill="#334A5E" width="0.961" height="22.361"/>
	<rect x="34.982" y="3.59" fill="#334A5E" width="0.693" height="22.361"/>
	<rect x="11.578" y="25.123" fill="#F1543F" width="24.842" height="6.645"/>
	<path fill="#FF7058" d="M36.42,31.764l-3.244,7.891c-1.088,2.646-1.647,5.479-1.647,8.34V48h-15.05
		c0-2.865-0.562-5.701-1.652-8.352l-3.247-7.885H36.42z"/>
	<polygon fill="#84DBFF" points="0.06,14.201 11.58,25.297 36.42,25.297 47.943,14.201 	"/>
	<polygon fill="#54C0EB" points="6.445,20.389 6.445,14.201 3.59,14.201 3.59,17.646 	"/>
	<polygon fill="#54C0EB" points="8.738,22.592 8.738,14.201 8.211,14.201 8.211,22.084 	"/>
	<rect x="18.582" y="14.201" fill="#54C0EB" width="0.525" height="11.123"/>
	<polygon fill="#54C0EB" points="11.583,25.324 12.84,25.324 12.84,14.201 11.023,14.201 11.023,24.785 	"/>
	<rect x="31.764" y="14.201" fill="#54C0EB" width="1.816" height="11.123"/>
	<rect x="28.387" y="14.201" fill="#54C0EB" width="1.657" height="11.123"/>
	<rect x="25.422" y="14.201" fill="#54C0EB" width="0.674" height="11.123"/>
	<rect x="21.251" y="14.201" fill="#54C0EB" width="2.101" height="11.123"/>
	<polygon fill="#54C0EB" points="39.76,22.115 39.76,14.201 37.943,14.201 37.943,23.861 	"/>
	<polygon fill="#54C0EB" points="44.409,17.648 44.409,14.199 41.676,14.199 41.676,20.275 	"/>
	<rect x="14.908" y="14.201" fill="#54C0EB" width="0.961" height="11.123"/>
	<rect x="34.982" y="14" fill="#54C0EB" width="0.693" height="11.123"/>
</g>
</svg>
