<?xml version="1.0" encoding="utf-8"?>
<!-- Generator: Adobe Illustrator 18.0.0, SVG Export Plug-In . SVG Version: 6.00 Build 0)  -->
<!DOCTYPE svg PUBLIC "-//W3C//DTD SVG 1.1//EN" "http://www.w3.org/Graphics/SVG/1.1/DTD/svg11.dtd">
<svg version="1.1" id="Layer_1" xmlns="http://www.w3.org/2000/svg" xmlns:xlink="http://www.w3.org/1999/xlink" x="0px" y="0px"
	 viewBox="0 0 48 48" enable-background="new 0 0 48 48" xml:space="preserve">
<g>
	<path fill="#40596B" d="M33.7,33.9l-2.4-11.3H16.7l-2.4,11.3c-0.8,3.7-2.5,7.1-4.6,10.2C9,45.2,8.5,46.6,8.5,48h30.9
		c0-1.4-0.4-2.8-1.2-3.9C36.2,41,34.5,37.6,33.7,33.9z"/>
	<path opacity="0.1" fill="#231F20" d="M15.8,39.8c1.1,1.6,2.8,2.6,4.7,2.8c1.5,0.2,2.7,0.3,3.6,0.3c0.9,0,2.1-0.1,3.6-0.3
		c1.9-0.2,3.6-1.3,4.7-2.8c0.9-0.6,1.6-1.6,1.9-3c0.1-0.3,0.1-0.6,0.1-0.8c-0.2-0.7-0.4-1.3-0.5-2l-2.4-11.3H16.7l-2.4,11.3
		c-0.1,0.7-0.3,1.3-0.5,2c0,0.3,0.1,0.6,0.1,0.8C14.2,38.1,14.9,39.2,15.8,39.8z"/>
	<g>
		<path fill="#F2F2F2" d="M47.5,0.1c-1.8-0.6-2.1,1.8-2.1,1.8l-0.6,3.7c0,0.1-0.1,0.2-0.1,0.4c-1.2,4.9-6.5,7.7-11.2,5.9
			c-0.3-0.1-0.5-0.2-0.5-0.2v4.7c1,0.5,5.3,0.2,7,0.1c0.7-0.1,1.4-0.2,2.1-0.5c4-1.7,5.3-5.9,5.5-6.6c0-0.1,0-0.2,0.1-0.2
			c1-3.3-0.1-7.8-0.1-7.8C48.7,1,47.5,0.1,47.5,0.1z"/>
		<path fill="#F2F2F2" d="M3.3,5.9c0-0.1-0.1-0.2-0.1-0.4L2.7,1.9c0,0-0.3-2.4-2.1-1.8c0,0-1.2,0.9,0,1.2c0,0-1.1,4.5-0.1,7.8
			c0,0.1,0,0.2,0.1,0.2C0.7,9.9,2,14.2,6,15.9c0.7,0.3,1.3,0.4,2.1,0.5c1.7,0.2,6,0.5,7-0.1v-4.7c0,0-0.2,0.1-0.5,0.2
			C9.8,13.6,4.6,10.8,3.3,5.9z"/>
		<path fill="#40596B" d="M39.9,23.3c0.6-0.5,1.3-0.9,1.9-1.3c0.8-0.4,0.9-1.5,0.2-2.1c-0.7-0.6-1.4-1.1-2.1-1.5
			c-3.3-1.8-7.8,0.4-9.7,2.9C32.1,25.9,36.6,25.9,39.9,23.3z"/>
		<path fill="#334A5E" d="M37.6,23c0.9-0.8,1.8-1.5,2.7-2.2c-0.9-0.6-1.8-1.1-2.7-1.5c-2.5-1.1-5.9,0-7.3,2
			C31.6,24.7,35.1,25.3,37.6,23z"/>
		<path fill="#40596B" d="M8.1,23.3c-0.6-0.5-1.3-0.9-1.9-1.3c-0.8-0.4-0.9-1.5-0.2-2.1c0.7-0.6,1.4-1.1,2.1-1.5
			c3.3-1.8,7.8,0.4,9.7,2.9C15.9,25.9,11.4,25.9,8.1,23.3z"/>
		<path fill="#334A5E" d="M10.4,23c-0.9-0.8-1.8-1.5-2.7-2.2c0.9-0.6,1.8-1.1,2.7-1.5c2.5-1.1,5.9,0,7.3,2
			C16.4,24.7,12.9,25.3,10.4,23z"/>
		<path fill="#ACB3BA" d="M13.7,21.6c1.2,2.4,1.9,5,2.2,7.7c0.2,2.1,0.4,4.4,0.2,6.1c0,0.3,0,0.6,0,0.8H32c0-0.3,0-0.6,0-0.8
			c-0.2-1.6-0.1-3.9,0.2-6.1c0.3-2.7,1.1-5.2,2.2-7.6c1-2,0.9-4.7,0.9-4.7l0.1-1.5c0.1-2.8-1.6-5.3-4.3-6.1c-0.1,0-0.2-0.1-0.2-0.1
			c-1.2-0.8-2.7-0.8-2.7-0.8c-0.3-0.3-0.8-0.6-1.3-0.8c-1.8-0.7-3.8-0.7-5.6,0c-0.5,0.2-1,0.5-1.3,0.8c0,0-1.6-0.1-2.7,0.8
			c0,0-0.1,0-0.2,0.1c-2.7,0.8-4.4,3.3-4.3,6.1l0.1,1.5C12.8,16.9,12.7,19.5,13.7,21.6z"/>
		<path fill="#ACB3BA" d="M16.2,37.3c0.6,2,2.3,3.5,4.4,3.8c1.1,0.1,2.4,0.3,3.4,0.3c1,0,2.3-0.1,3.4-0.3c2.1-0.3,3.8-1.8,4.4-3.8
			H16.2z"/>
		<path fill="#CDD6E0" d="M35.3,15.4l-0.1,1.5c0,0,0.1,2.7-0.9,4.7c-1.2,2.4-1.9,5-2.2,7.6c-0.2,2.1-0.4,4.4-0.2,6.1
			c0.1,0.5,0,1,0,1.4c0,0,0,0,0,0c0,0.2-0.1,0.4-0.1,0.6c-0.5-1.6-1.1-3.1-2-4.5c-0.8-1.3-2-2.6-2.1-4.2c-0.1-1.6,1-3.1,1.9-4.4
			c1.7-2.3,3.2-4.8,4.5-7.3c0.4-0.7,0.7-1.5,1-2.3c0.1-0.2,0.1-0.4,0.2-0.6C35.3,14.5,35.3,15,35.3,15.4z"/>
		<path fill="#CDD6E0" d="M20.3,28.7c-0.1,1.6-1.2,2.8-2.1,4.2c-0.9,1.4-1.5,2.9-2,4.5c-0.1-0.2-0.1-0.4-0.1-0.6c0-0.1,0-0.2,0-0.2
			c-0.1-0.4-0.1-0.8,0-1.2c0.2-1.6,0.1-3.9-0.2-6.1c-0.3-2.7-1.1-5.2-2.2-7.7c-1-2-0.9-4.7-0.9-4.7l-0.1-1.5c0-0.4,0-0.9,0.1-1.3
			c0,0.2,0.1,0.4,0.2,0.6c0.2,0.8,0.6,1.5,1,2.3c1.3,2.6,2.8,5,4.5,7.3C19.3,25.7,20.4,27.1,20.3,28.7z"/>
		<ellipse transform="matrix(0.93 -0.3676 0.3676 0.93 -4.6299 13.0846)" fill="#40596B" cx="32" cy="18.7" rx="2.3" ry="1.5"/>
		<circle fill="#FF7058" cx="31.7" cy="18.9" r="1.2"/>
		<circle fill="#FFFFFF" cx="32.5" cy="18.2" r="0.4"/>
		<ellipse transform="matrix(-0.93 -0.3676 0.3676 -0.93 23.9373 41.9532)" fill="#40596B" cx="16" cy="18.7" rx="2.3" ry="1.5"/>
		<circle fill="#FF7058" cx="16.3" cy="18.9" r="1.2"/>
		<circle fill="#FFFFFF" cx="15.5" cy="18.2" r="0.4"/>
		<path fill="#FF7058" d="M31.4,38.5c-2.9,1.7-11.9,1.7-14.7,0c-2-1.2-1.8-6.2,0-7.6c2.6-2,12.1-2,14.7,0
			C33.1,32.3,33.3,37.3,31.4,38.5z"/>
		<path fill="#FF7058" d="M31.4,30.9c-2.6-2-12.1-2-14.7,0c-0.2,0.1-0.4,0.4-0.5,0.6c0.1,1.4,0.1,2.7,0,3.8c0,0.4-0.1,0.8,0,1.2
			c0,0.1,0,0.2,0,0.2c0,0.2,0.1,0.4,0.1,0.6v0c0.1,0.5,0.3,0.9,0.6,1.3c3,1.6,11.4,1.6,14.4,0c0.2-0.4,0.4-0.8,0.6-1.3
			c0.1-0.2,0.1-0.4,0.1-0.6c0,0,0,0,0,0c0.1-0.5,0.1-1,0-1.4c-0.1-1.1-0.1-2.4,0-3.8C31.7,31.3,31.6,31.1,31.4,30.9z"/>
		<path fill="#40596B" d="M30.2,35.3c0-0.5-0.4-1.2-0.8-1.9c-0.3-0.5-1.1-0.3-1.1,0.2c0,0,0,0,0,0c-0.1,0.6-0.4,1.2-0.8,1.7
			c-0.7,1,0.2,2.2,1.2,2.2C29.9,37.6,30.3,36.5,30.2,35.3z"/>
		<path fill="#40596B" d="M19.7,33.7C19.7,33.7,19.7,33.6,19.7,33.7c-0.1-0.6-0.8-0.8-1.1-0.3c-0.4,0.7-0.8,1.5-0.8,1.9
			c-0.1,1.2,0.4,2.2,1.6,2.2c1,0,1.9-1.2,1.2-2.2C20.1,34.9,19.8,34.3,19.7,33.7z"/>
		<path fill="#FFD15C" d="M33.9,8.4c-1-2-5.5-2.9-5.8-2.3c-0.6-0.6-3.5-0.6-4,0c-0.5-0.6-3.4-0.6-4,0c-0.4-0.6-4.9,0.4-5.8,2.3
			c-1.2,2.4-0.7,4.9,1.4,4.9c0.8,0,1.5-0.3,2.2-0.9c0.5-0.4,1.2-0.3,1.6,0.1c0.4,0.5,1,0.7,1.7,0.7c0.7,0,1.4-0.3,2-0.8
			c0.5-0.4,1.2-0.4,1.7,0c0.6,0.5,1.2,0.8,2,0.8c0.7,0,1.3-0.3,1.7-0.7c0.4-0.5,1.1-0.5,1.6-0.1c0.7,0.5,1.5,0.9,2.2,0.9
			C34.5,13.3,35,10.8,33.9,8.4z"/>
	</g>
</g>
</svg>
