<?xml version="1.0" encoding="utf-8"?>
<!-- Generator: Adobe Illustrator 18.0.0, SVG Export Plug-In . SVG Version: 6.00 Build 0)  -->
<!DOCTYPE svg PUBLIC "-//W3C//DTD SVG 1.1//EN" "http://www.w3.org/Graphics/SVG/1.1/DTD/svg11.dtd">
<svg version="1.1" id="Layer_1" xmlns="http://www.w3.org/2000/svg" xmlns:xlink="http://www.w3.org/1999/xlink" x="0px" y="0px"
	 viewBox="0 0 48 48" enable-background="new 0 0 48 48" xml:space="preserve">
<g>
	<g>
		<g>
			<polygon fill="#FFD15C" points="31.5,15.7 27,18.7 29.3,23.6 23.9,23.9 23.6,29.3 18.7,27 15.7,31.5 12.7,27 7.9,29.3 7.5,23.9 
				2.1,23.6 4.5,18.7 0,15.7 4.5,12.7 2.1,7.9 7.5,7.5 7.9,2.1 12.7,4.5 15.7,0 18.7,4.5 23.6,2.1 23.9,7.5 29.3,7.9 27,12.7 			"/>
		</g>
		<g>
			<circle fill="#F7B64C" cx="15.7" cy="15.7" r="8.2"/>
		</g>
	</g>
	<g>
		<g>
			<g>
				<g>
					<g>
						<rect x="25.3" y="14.9" fill="#FFFFFF" width="18.9" height="29.3"/>
					</g>
				</g>
			</g>
			<path fill="#CED6E0" d="M38.6,7h-7.8c-0.6,0-1.1,0.5-1.1,1.1v3h9.9V8C39.6,7.4,39.2,7,38.6,7z"/>
			<path fill="#E8EAE9" d="M21.4,45V14c0-1.7,1.3-3,3-3H45c1.7,0,3,1.3,3,3v31c0,1.7-1.3,3-3,3H24.4C22.7,48,21.4,46.7,21.4,45z"/>
			<g>
				<g>
					<g>
						<rect x="25.3" y="14.9" fill="#FFFFFF" width="18.9" height="29.3"/>
					</g>
				</g>
			</g>
			<g>
				<rect x="25.3" y="37.9" fill="#8AD7F8" width="18.9" height="6.2"/>
			</g>
			<g>
				<rect x="25.3" y="31.7" fill="#55C0EB" width="18.9" height="6.2"/>
			</g>
		</g>
	</g>
</g>
</svg>
