<?xml version="1.0" encoding="utf-8"?>
<!-- Generator: Adobe Illustrator 18.0.0, SVG Export Plug-In . SVG Version: 6.00 Build 0)  -->
<!DOCTYPE svg PUBLIC "-//W3C//DTD SVG 1.1//EN" "http://www.w3.org/Graphics/SVG/1.1/DTD/svg11.dtd">
<svg version="1.1" id="Layer_1" xmlns="http://www.w3.org/2000/svg" xmlns:xlink="http://www.w3.org/1999/xlink" x="0px" y="0px"
	 viewBox="0 0 48 48" enable-background="new 0 0 48 48" xml:space="preserve">
<g>
	<path fill="#40596B" d="M46.2,3.8L46.2,3.8c-2.7-3.9-8-4.9-11.9-2.3l-5.7,3.8l9.6,14.2l5.7-3.8C47.8,13,48.8,7.7,46.2,3.8z"/>
	<path fill="#F2F2F2" d="M35.3,20.2c-1,0.7-2.1,1.4-3.1,2c-5.9,3.7-12.1,6.7-18.6,9.1c-2.4,0.9-4.8,1.8-6.5,2.4
		c-0.3,0.1-0.7,0.2-1,0.2c-1,0-1.8-0.5-2.4-1.3C2.9,31.5,3,30,3.9,29.1c1.2-1.4,2.9-3.2,4.6-5.2c4.6-5.1,9.8-9.8,15.4-13.9
		c1-0.7,2-1.5,3-2.1l0.5,0.8l7.3,10.8L35.3,20.2z"/>
	<path fill="#FF7058" d="M8.5,23.9c-1.7,1.9-3.4,3.8-4.6,5.2c-0.9,1-1,2.5-0.2,3.6l0,0c0.7,1.1,2.1,1.6,3.4,1.1
		c1.7-0.6,4.1-1.5,6.5-2.4c3.1-1.1,6-2.4,9-3.8"/>
	<path fill="#FF7058" d="M9.1,43.6c0,2.4-2,4.4-4.4,4.4s-4.4-2-4.4-4.4c0-2.4,4.4-8,4.4-8S9.1,41.2,9.1,43.6z"/>
	<path fill="#E4EAEF" d="M34.7,19.4L27.4,8.6l-0.5-0.8c-1,0.7-2,1.4-3,2.1l8.3,12.2c1-0.7,2.1-1.3,3.1-2L34.7,19.4z"/>
	<path fill="#334A5E" d="M38.8,20.4L28,4.4c-0.8-1.2-2.4-1.5-3.5-0.7c-1.2,0.8-1.5,2.4-0.7,3.5l10.8,15.9c0.8,1.2,2.4,1.5,3.5,0.7
		C39.3,23.1,39.6,21.5,38.8,20.4z"/>
</g>
</svg>
