<?xml version="1.0" encoding="utf-8"?>
<!-- Generator: Adobe Illustrator 20.1.0, SVG Export Plug-In . SVG Version: 6.00 Build 0)  -->
<!DOCTYPE svg PUBLIC "-//W3C//DTD SVG 1.1//EN" "http://www.w3.org/Graphics/SVG/1.1/DTD/svg11.dtd">
<svg version="1.1" id="Layer_1" xmlns="http://www.w3.org/2000/svg" xmlns:xlink="http://www.w3.org/1999/xlink" x="0px" y="0px"
	 viewBox="0 0 49 49" enable-background="new 0 0 49 49" xml:space="preserve">
<g>
	<path fill="#F2F2F2" d="M31.1,11c-1.5-4.8-2.2-5.1-2.2-5.1l0,0c0.2,0.5,0.3,1.2,0.1,2.2c-0.7,4.2-4,6-4,6s-3.4,1.9-5.7,0.5
		l-0.6,0.6c0,0-4,2.8-1.5,5.8c0,0,2.5-0.8,5.4,0c2.8,0.8,5.8-1.7,5.8-1.7S32.6,15.8,31.1,11z"/>
	<path fill="#84DBFF" d="M31.4,14.3c0,0-0.1,0-0.1-0.1c-0.5,3-3,5-3,5s-2.9,2.5-5.8,1.7c-2.8-0.8-5.4,0-5.4,0s-4.3,4.3-0.8,6.2
		c0,0,4,0.7,7.1,0.7c0,0,8.4-0.4,10.7-5.4C34.2,22.5,36.7,18.4,31.4,14.3z"/>
	<path fill="#F2F2F2" d="M34.2,22.5c-2.3,5-10.7,5.4-10.7,5.4c-3.1,0-7.1-0.7-7.1-0.7s-5,2.1-3.6,3.9H36C36,31,38.5,26.6,34.2,22.5z
		"/>
	<path fill="#FFD15C" d="M36.7,31l-0.8,5.3c-0.3,2.2-2.2,3.8-4.5,3.8H17.6c-2.2,0-4.1-1.6-4.5-3.8L12.3,31H36.7z"/>
	<path fill="#84DBFF" d="M21.8,1.9c0,0,2.6,4.6,0.7,6.5c0,0-3.4,2.7-3.4,5.6c0,3.1,4.1,1.1,4.1,1.1s6.2-1.5,6.2-7.3
		c0,0-0.9-6.1-5.2-7.3C21.1-0.1,21.8,1.9,21.8,1.9z"/>
	<polygon fill="#FFD15C" points="31.7,40.1 31,41.6 28,48.5 21,48.5 18,41.6 17.3,40.1 	"/>
	<path fill="#F8B64C" d="M36.4,29.9H12.6c-0.6,0-1.1,0.5-1.1,1.1c0,0.6,0.5,1.1,1.1,1.1h23.8c0.6,0,1.1-0.5,1.1-1.1
		C37.5,30.4,37,29.9,36.4,29.9z"/>
	<polygon fill="#FCC556" points="31.7,40.1 29.8,44.3 18,41.6 17.3,40.1 	"/>
</g>
</svg>
