<?xml version="1.0" encoding="utf-8"?>
<!-- Generator: Adobe Illustrator 18.0.0, SVG Export Plug-In . SVG Version: 6.00 Build 0)  -->
<!DOCTYPE svg PUBLIC "-//W3C//DTD SVG 1.1//EN" "http://www.w3.org/Graphics/SVG/1.1/DTD/svg11.dtd">
<svg version="1.1" id="Layer_1" xmlns="http://www.w3.org/2000/svg" xmlns:xlink="http://www.w3.org/1999/xlink" x="0px" y="0px"
	 viewBox="0 0 48 48" enable-background="new 0 0 48 48" xml:space="preserve">
<g>
	<polygon fill="#FFD15C" points="0,24.3 0,47.9 47.7,36.9 47.7,13.6 	"/>
	<path fill="#FF7058" d="M47.7,12.5C33,3.2,18.1,4.8,15.6,5.1c-0.2,0-0.4,0.2-0.5,0.4L0,24.3l47.6-10.7
		C48.1,13.5,48.2,12.8,47.7,12.5z"/>
	<polygon fill="#F8B64C" points="0,47.9 47.7,36.9 47.7,32.4 0,43.5 	"/>
	<polygon fill="#F2F2F2" points="0,36.9 47.7,25.8 47.7,21.3 0,32.4 	"/>
	<path fill="#F2F2F2" d="M11.7,18.1c0,1.2-1,2.2-2.2,2.2s-2.2-1-2.2-2.2c0-1.2,2.2-3.1,2.2-3.1S11.7,16.9,11.7,18.1z"/>
	<path fill="#F2F2F2" d="M20.1,9c0,1.2-1,2.2-2.2,2.2s-2.2-1-2.2-2.2s2.2-3.1,2.2-3.1S20.1,7.8,20.1,9z"/>
	<path fill="#F2F2F2" d="M42.9,10.2c0,1.2-1,2.2-2.2,2.2s-2.2-1-2.2-2.2s2.2-3.1,2.2-3.1S42.9,9,42.9,10.2z"/>
	<path fill="#F2F2F2" d="M35.4,12.2c0,1.5-10.6,1.5-10.6,0s2.4-2.8,5.3-2.8S35.4,10.6,35.4,12.2z"/>
	<ellipse fill="#F1543F" cx="30.1" cy="6.8" rx="5.3" ry="5.2"/>
	<ellipse fill="#FF7058" cx="30.1" cy="3.1" rx="1.2" ry="0.6"/>
	<g>
		<path fill="#40596B" d="M30,3.1c-0.2,0-0.4-0.2-0.4-0.4c0-1.5,1.2-2.6,2.7-2.6c0.2,0,0.4,0.2,0.4,0.4s-0.2,0.4-0.4,0.4
			c-1.1,0-1.9,0.8-1.9,1.9C30.4,2.9,30.3,3.1,30,3.1z"/>
	</g>
</g>
</svg>
