<?xml version="1.0" encoding="utf-8"?>
<!-- Generator: Adobe Illustrator 18.0.0, SVG Export Plug-In . SVG Version: 6.00 Build 0)  -->
<!DOCTYPE svg PUBLIC "-//W3C//DTD SVG 1.1//EN" "http://www.w3.org/Graphics/SVG/1.1/DTD/svg11.dtd">
<svg version="1.1" id="Layer_1" xmlns="http://www.w3.org/2000/svg" xmlns:xlink="http://www.w3.org/1999/xlink" x="0px" y="0px"
	 viewBox="0 0 48 48" enable-background="new 0 0 48 48" xml:space="preserve">
<g>
	<g>
		<g>
			<g>
				<path fill="#F05540" d="M45.5,26.9l-5.4,2l-4-11.7v29.2c-8.5,2.1-16.6,2.3-24.3,0V17.2l-4,11.7l-5.4-2l5.3-18l9.1-3L24,7.3
					l7.2-1.5l9.1,3L45.5,26.9z"/>
			</g>
			<g>
				<path fill="#F3705A" d="M45.5,26.9l-5.4,2l-4-11.7v29.2c-4.6,1.1-9.1,1.7-13.4,1.7V19.8l0.7-2.3L25.6,7l5.5-1.2l9.1,3L45.5,26.9
					z"/>
			</g>
			<g>
				<g>
					<path fill="#E8EAE9" d="M29.7,8.3l1.6,1.8l-7.3,8l-7.3-8l1.6-1.8L16,6.3l3.5-3.8c-0.5,0.7-0.7,1.6-0.7,2.6
						c0,2.7,4.9,9.1,5.2,9.5c0,0,0,0,0,0s0,0,0,0c0.3-0.4,5.2-6.8,5.2-9.5c0-0.9-0.3-1.8-0.7-2.6L32,6.3L29.7,8.3z"/>
				</g>
				<g>
					<g>
						<g>
							<path fill="#415A6B" d="M29.2,5c0,2.8-5.2,11.1-5.2,11.1S18.8,7.8,18.8,5c0-2.8,2.3-5,5.2-5C26.9,0,29.2,2.2,29.2,5z"/>
						</g>
					</g>
				</g>
			</g>
			<g>
				<polygon fill="#E8EAE9" points="23.4,17.5 22.7,19.8 24,18.2 23.8,17.2 				"/>
			</g>
			<g>
				<g>
					<circle fill="#415A6B" cx="24.5" cy="23.2" r="0.7"/>
				</g>
				<g>
					<circle fill="#415A6B" cx="24.5" cy="28.8" r="0.7"/>
				</g>
				<g>
					<circle fill="#415A6B" cx="24.5" cy="34.5" r="0.7"/>
				</g>
				<g>
					<circle fill="#415A6B" cx="24.5" cy="40.2" r="0.7"/>
				</g>
			</g>
		</g>
		<g>
			<polygon fill="#E8EAE9" points="30.5,6.2 32,6.3 33.5,7.8 31.5,9.4 33.1,11.3 22.7,19.8 26.2,14.3 			"/>
		</g>
		<g>
			<polyline fill="#E8EAE9" points="17,5.3 14.4,8.1 17.2,9.3 15.7,11.3 24,18.2 			"/>
		</g>
	</g>
</g>
</svg>
