<?xml version="1.0" encoding="utf-8"?>
<!-- Generator: Adobe Illustrator 16.0.0, SVG Export Plug-In . SVG Version: 6.00 Build 0)  -->
<!DOCTYPE svg PUBLIC "-//W3C//DTD SVG 1.1//EN" "http://www.w3.org/Graphics/SVG/1.1/DTD/svg11.dtd">
<svg version="1.1" id="Layer_1" xmlns="http://www.w3.org/2000/svg" xmlns:xlink="http://www.w3.org/1999/xlink" x="0px" y="0px"
	 width="48px" height="48px" viewBox="0 0 48 48" enable-background="new 0 0 48 48" xml:space="preserve">
<g>
	<path fill="#FFD15C" d="M24,0C10.744,0,0,10.746,0,24s10.744,24,24,24c13.254,0,24-10.746,24-24S37.254,0,24,0 M24,34.051
		c-5.552,0-10.053-4.5-10.053-10.051S18.448,13.949,24,13.949c5.551,0,10.051,4.5,10.051,10.051S29.551,34.051,24,34.051"/>
	<path fill="#FF7058" d="M46.269,24c0-2.268-2.819-4.061-3.483-6.105c-0.688-2.119,0.515-5.221-0.769-6.986
		c-1.297-1.781-4.628-1.59-6.409-2.887c-1.765-1.285-2.604-4.518-4.725-5.207C28.838,2.15,26.266,4.252,24,4.252
		c-2.268,0-4.84-2.102-6.885-1.438c-2.119,0.689-2.959,3.922-4.724,5.207c-1.78,1.295-5.112,1.105-6.409,2.887
		c-1.283,1.764-0.082,4.867-0.77,6.986C4.549,19.939,1.73,21.732,1.73,24c0,2.266,2.818,4.059,3.482,6.104
		c0.688,2.119-0.514,5.223,0.77,6.986c1.297,1.783,4.627,1.592,6.409,2.889c1.765,1.283,2.604,4.518,4.724,5.205
		c2.045,0.664,4.617-1.436,6.885-1.436c2.266,0,4.838,2.1,6.883,1.436c2.119-0.688,2.96-3.922,4.725-5.205
		c1.781-1.297,5.112-1.105,6.408-2.887c1.284-1.766,0.082-4.867,0.77-6.988C43.449,28.059,46.269,26.266,46.269,24 M24,40.713
		c-9.217,0-16.713-7.498-16.713-16.713c0-9.217,7.496-16.713,16.713-16.713c9.215,0,16.713,7.496,16.713,16.713
		C40.713,33.215,33.215,40.713,24,40.713"/>
	<path fill="#FC644F" d="M24,7.287C14.784,7.287,7.287,14.785,7.287,24S14.784,40.713,24,40.713c9.215,0,16.713-7.498,16.713-16.713
		S33.215,7.287,24,7.287 M24,34.082c-5.569,0-10.084-4.514-10.084-10.082c0-5.57,4.515-10.082,10.084-10.082
		c5.567,0,10.082,4.512,10.082,10.082C34.082,29.568,29.567,34.082,24,34.082"/>
	<path fill="#54C0EB" d="M10.225,37.926c0,0.453-0.367,0.82-0.82,0.82s-0.82-0.367-0.82-0.82s0.367-0.82,0.82-0.82
		S10.225,37.473,10.225,37.926"/>
	<path fill="#54C0EB" d="M40,12.926c0,0.453-0.367,0.82-0.82,0.82s-0.82-0.367-0.82-0.82s0.367-0.82,0.82-0.82S40,12.473,40,12.926"
		/>
	<path fill="#54C0EB" d="M43.116,22.26c0,0.453-0.367,0.82-0.82,0.82c-0.452,0-0.819-0.367-0.819-0.82s0.367-0.82,0.819-0.82
		C42.749,21.439,43.116,21.807,43.116,22.26"/>
	<path fill="#54C0EB" d="M22.419,40.117c0,0.453-0.367,0.82-0.82,0.82c-0.452,0-0.819-0.367-0.819-0.82s0.367-0.82,0.819-0.82
		C22.052,39.297,22.419,39.664,22.419,40.117"/>
	<path fill="#54C0EB" d="M33.482,39.297c0,0.453-0.367,0.82-0.82,0.82s-0.82-0.367-0.82-0.82s0.367-0.82,0.82-0.82
		S33.482,38.844,33.482,39.297"/>
	<path fill="#54C0EB" d="M6.522,27.063c0,0.453-0.366,0.82-0.819,0.82s-0.82-0.367-0.82-0.82s0.367-0.82,0.82-0.82
		S6.522,26.609,6.522,27.063"/>
	<path fill="#54C0EB" d="M40,30.768c0,0.453-0.367,0.82-0.82,0.82s-0.82-0.367-0.82-0.82s0.367-0.82,0.82-0.82S40,30.314,40,30.768"
		/>
	<path fill="#54C0EB" d="M10.225,16.162c0,0.453-0.367,0.82-0.82,0.82s-0.82-0.367-0.82-0.82s0.367-0.82,0.82-0.82
		S10.225,15.709,10.225,16.162"/>
	<path fill="#54C0EB" d="M28.944,10.293c0,0.453-0.367,0.82-0.82,0.82s-0.819-0.367-0.819-0.82s0.366-0.82,0.819-0.82
		S28.944,9.84,28.944,10.293"/>
	<path fill="#54C0EB" d="M19.31,7.883c0,0.453-0.366,0.82-0.819,0.82s-0.82-0.367-0.82-0.82s0.367-0.82,0.82-0.82
		S19.31,7.43,19.31,7.883"/>
	<path fill="#54C0EB" d="M34.659,33.443c-0.097-0.098-0.255-0.098-0.354,0l-0.862,0.861c-0.097,0.1-0.097,0.256,0,0.355
		c0.049,0.049,0.112,0.072,0.177,0.072c0.063,0,0.128-0.023,0.178-0.072l0.862-0.863C34.758,33.699,34.758,33.541,34.659,33.443"/>
	<path fill="#FFD15C" d="M16.232,35.086c-0.041,0.131,0.033,0.271,0.166,0.313l1.166,0.359c0.132,0.041,0.271-0.033,0.313-0.164
		c0.02-0.066,0.012-0.135-0.018-0.191c-0.03-0.057-0.082-0.102-0.148-0.123l-1.166-0.357C16.413,34.881,16.273,34.953,16.232,35.086
		"/>
	<path fill="#FFFFFF" d="M30.312,42.813c0.058-0.125,0.001-0.273-0.125-0.332l-1.112-0.502c-0.125-0.057-0.273,0-0.33,0.125
		c-0.028,0.064-0.028,0.131-0.006,0.191s0.067,0.111,0.131,0.141l1.111,0.502C30.106,42.994,30.255,42.938,30.312,42.813"/>
	<path fill="#FFFFFF" d="M23.64,38.277c0,0.242-0.196,0.438-0.438,0.438c-0.243,0-0.439-0.195-0.439-0.438
		c0-0.244,0.196-0.439,0.439-0.439C23.443,37.838,23.64,38.033,23.64,38.277"/>
	<path fill="#FFFFFF" d="M19.023,42.02c0,0.242-0.197,0.439-0.439,0.439c-0.243,0-0.439-0.197-0.439-0.439
		c0-0.244,0.196-0.439,0.439-0.439C18.826,41.58,19.023,41.775,19.023,42.02"/>
	<path fill="#54C0EB" d="M8.212,33.193c-0.137,0.012-0.239,0.131-0.229,0.271l0.1,1.215c0.012,0.137,0.132,0.24,0.27,0.229
		c0.068-0.006,0.129-0.037,0.17-0.088c0.041-0.047,0.064-0.111,0.059-0.182l-0.098-1.215C8.471,33.285,8.35,33.184,8.212,33.193"/>
	<path fill="#FFD15C" d="M17.094,7.75c0.073,0.115,0.229,0.15,0.346,0.076l1.029-0.656c0.115-0.074,0.149-0.229,0.075-0.346
		c-0.036-0.057-0.094-0.096-0.157-0.109c-0.062-0.014-0.129-0.004-0.188,0.033L17.17,7.404C17.055,7.479,17.02,7.633,17.094,7.75"/>
	<path fill="#54C0EB" d="M19.042,12.207c-0.058-0.125-0.207-0.178-0.333-0.119l-1.104,0.523c-0.123,0.059-0.177,0.207-0.117,0.332
		c0.029,0.063,0.08,0.107,0.142,0.129c0.06,0.021,0.128,0.02,0.19-0.01l1.103-0.523C19.048,12.48,19.102,12.332,19.042,12.207"/>
	<path fill="#FFFFFF" d="M5.791,22.832c-0.059-0.123-0.207-0.178-0.334-0.119l-1.103,0.523c-0.124,0.059-0.177,0.209-0.118,0.334
		c0.029,0.061,0.082,0.105,0.143,0.127c0.06,0.021,0.128,0.02,0.191-0.008l1.102-0.523C5.797,23.107,5.85,22.957,5.791,22.832"/>
	<path fill="#FFFFFF" d="M9.006,11.729c0.184,0.158,0.207,0.434,0.051,0.619c-0.158,0.186-0.435,0.209-0.619,0.051
		c-0.186-0.156-0.209-0.434-0.051-0.619C8.543,11.596,8.82,11.572,9.006,11.729"/>
	<path fill="#FFD15C" d="M11.975,25.014c0.186,0.156,0.208,0.434,0.051,0.619c-0.156,0.184-0.434,0.207-0.619,0.051
		c-0.185-0.158-0.207-0.434-0.051-0.619C11.513,24.879,11.789,24.855,11.975,25.014"/>
	<path fill="#FFD15C" d="M39.77,31.971c0.186,0.156,0.209,0.434,0.052,0.617c-0.157,0.186-0.435,0.209-0.619,0.053
		c-0.185-0.158-0.208-0.436-0.051-0.619C39.309,31.836,39.585,31.813,39.77,31.971"/>
	<path fill="#FFFFFF" d="M30.16,6.629c0.094-0.102,0.088-0.26-0.015-0.354l-0.897-0.826c-0.102-0.094-0.26-0.088-0.353,0.014
		c-0.047,0.051-0.069,0.115-0.065,0.18c0.002,0.064,0.028,0.127,0.08,0.174l0.897,0.826C29.908,6.736,30.066,6.73,30.16,6.629"/>
	<path fill="#FFD15C" d="M40.932,17.918c-0.133-0.037-0.27,0.043-0.306,0.178l-0.311,1.18c-0.035,0.135,0.044,0.27,0.178,0.305
		c0.067,0.018,0.134,0.008,0.19-0.025c0.054-0.031,0.098-0.086,0.115-0.152l0.311-1.18C41.145,18.09,41.065,17.953,40.932,17.918"/>
	<path fill="#54C0EB" d="M42.713,25.707c0.127,0.051,0.273-0.01,0.325-0.139l0.456-1.133c0.051-0.127-0.011-0.273-0.139-0.324
		c-0.064-0.027-0.133-0.023-0.191,0.002s-0.107,0.072-0.134,0.137l-0.456,1.131C42.523,25.51,42.586,25.654,42.713,25.707"/>
	<path fill="#FFFFFF" d="M39.504,15.342c-0.242,0.01-0.446-0.178-0.457-0.42c-0.01-0.242,0.179-0.447,0.42-0.457
		c0.244-0.01,0.447,0.178,0.457,0.42C39.936,15.127,39.746,15.332,39.504,15.342"/>
	<path fill="#FFD15C" d="M29.546,13.014c-0.241,0.01-0.446-0.178-0.457-0.42c-0.01-0.242,0.179-0.447,0.42-0.457
		c0.243-0.012,0.447,0.178,0.457,0.42C29.977,12.799,29.788,13.004,29.546,13.014"/>
</g>
</svg>
