<?xml version="1.0" encoding="utf-8"?>
<!-- Generator: Adobe Illustrator 18.0.0, SVG Export Plug-In . SVG Version: 6.00 Build 0)  -->
<!DOCTYPE svg PUBLIC "-//W3C//DTD SVG 1.1//EN" "http://www.w3.org/Graphics/SVG/1.1/DTD/svg11.dtd">
<svg version="1.1" id="Layer_1" xmlns="http://www.w3.org/2000/svg" xmlns:xlink="http://www.w3.org/1999/xlink" x="0px" y="0px"
	 viewBox="0 0 48 48" enable-background="new 0 0 48 48" xml:space="preserve">
<g>
	<circle fill="#ACB3BA" cx="38.7" cy="29.3" r="9.4"/>
	<circle fill="#ACB3BA" cx="9.3" cy="29.3" r="9.4"/>
	<circle fill="#F2F2F2" cx="9.3" cy="29.3" r="7.3"/>
	<circle fill="#F2F2F2" cx="38.7" cy="29.3" r="7.3"/>
	<path fill="#CDD6E0" d="M39.4,28.9l-5.2-14.4L33.9,13h2.3v-1.5H32l0.5,2.5h-15l-1.1-2.6L15,11.9l1,2.3L8.7,28.4H8.5V30h13.9l0.4,1
		l11.2-12.3L38,29.5L39.4,28.9z M10.5,28.4l6.2-12.3l5.1,12.3H10.5z M23.3,28.2l-5.2-12.7h14.8l0.6,1.6L23.3,28.2z"/>
	<g>
		<path fill="#FF7058" d="M36.2,17L36.2,17c-0.1-0.4,0.2-0.8,0.7-0.9l0.2,0c0.8-0.1,1.4-0.8,1.3-1.6c0-0.8-0.8-1.5-1.6-1.5l-1.3,0
			v-1.5h1.3c1.7,0,3.1,1.3,3.2,3c0,1.6-1.1,2.9-2.6,3.1l-0.3,0C36.6,17.7,36.2,17.4,36.2,17z"/>
	</g>
	<circle fill="#40596B" cx="23.1" cy="29.6" r="3.5"/>
	<circle fill="#CDD6E0" cx="23.1" cy="29.6" r="2.1"/>
	<circle fill="#40596B" cx="9.2" cy="29.2" r="1.7"/>
	<circle fill="#40596B" cx="38.7" cy="29.2" r="1.7"/>
	<path fill="#40596B" d="M19.2,9.3h-5c-0.9,0-1.6,0.7-1.6,1.6s0.7,1.6,1.6,1.6H21c0.3,0,0.6-0.3,0.6-0.6
		C21.7,10.4,20.6,9.3,19.2,9.3z"/>
	<polygon opacity="0.1" fill="#231F20" points="15.2,12.4 15.6,13.4 17.3,13.4 16.9,12.4 	"/>
</g>
</svg>
