<?xml version="1.0" encoding="utf-8"?>
<!-- Generator: Adobe Illustrator 16.0.0, SVG Export Plug-In . SVG Version: 6.00 Build 0)  -->
<!DOCTYPE svg PUBLIC "-//W3C//DTD SVG 1.1//EN" "http://www.w3.org/Graphics/SVG/1.1/DTD/svg11.dtd">
<svg version="1.1" id="Layer_1" xmlns="http://www.w3.org/2000/svg" xmlns:xlink="http://www.w3.org/1999/xlink" x="0px" y="0px"
	 width="48px" height="48px" viewBox="0 0 48 48" enable-background="new 0 0 48 48" xml:space="preserve">
<g>
	<path fill="#F2F2F2" d="M47.815,41.236V48H0.185v-6.764c0-3.779,2.381-7.16,5.93-8.43l11.361-4.09h0.01l0.01,0.01h0.01
		c0.029,0.051,0.051,0.07,0.051,0.07c1.609,2.17,4.029,3.24,6.449,3.24c2.43,0,4.85-1.07,6.451-3.24c0.01,0,0.029-0.031,0.059-0.07
		l0.01-0.01h0.01l11.352,4.09C45.435,34.076,47.815,37.457,47.815,41.236"/>
	<path fill="#ACB3BA" d="M24.021,32.295c-0.012,0.01-0.021,0.01-0.021,0.01v-0.021C24.009,32.283,24.021,32.295,24.021,32.295"/>
	<path fill="#ACB3BA" d="M24.021,32.283v0.021c0,0-0.012,0-0.021-0.01C23.999,32.295,24.009,32.283,24.021,32.283"/>
	<path fill="#F8B64C" d="M30.528,28.715c-0.08,0.109-0.09,0.109-0.01,0H30.528z"/>
	<path fill="#F8B64C" d="M17.487,16.141c0.146,1.674-0.666,3.113-1.816,3.215c-1.148,0.1-2.199-1.176-2.346-2.852
		s0.666-3.115,1.814-3.215C16.29,13.188,17.341,14.465,17.487,16.141"/>
	<path fill="#F8B64C" d="M34.692,16.504c-0.146,1.676-1.195,2.951-2.346,2.852s-1.963-1.541-1.816-3.215
		c0.146-1.676,1.197-2.953,2.348-2.854C34.026,13.389,34.841,14.828,34.692,16.504"/>
	<path fill="#FFD15C" d="M24.009,2.152c-5.336,0-9.664,4.328-9.664,9.664v2.902c0,0.74,0.047,1.48,0.139,2.213v0.004
		c0.457,3.754,2.074,7.271,4.627,10.063l0.914,1.004c0.844,0.924,2.033,1.449,3.283,1.449h1.4c1.248,0,2.438-0.525,3.279-1.447
		l0.922-1.006c2.551-2.791,4.168-6.313,4.631-10.066c0.092-0.736,0.133-1.473,0.133-2.213v-2.902
		C33.673,6.48,29.347,2.152,24.009,2.152"/>
	<path fill="#334A5E" d="M13.612,14.598l0.922,2.723c0,0-0.412-8.309,2.715-8.381c0,0,4.643,1.859,6.826,2.383
		c0,0,4.717,0.596,7.176-2.311c0,0,1.861,1.043,1.266,3.277c0,0,0.975,3.859,0.971,5.031l0.906-2.539
		c0.424-1.295,2.072-7.215-2.695-8.672c0,0-0.373-5.438-8.043-6.107c0,0-5.66-0.299-10.279,6.107l1.119-0.447
		C14.495,5.662,12.347,7.002,13.612,14.598"/>
	<path fill="#F8B64C" d="M28.907,26.994l-0.922,1.012c-0.84,0.922-2.029,1.449-3.277,1.449H23.31c-1.248,0-2.441-0.527-3.281-1.451
		l-0.92-1.01c-0.59-0.65-1.131-1.34-1.621-2.061v3.781c0.004,0.004,0.006,0.006,0.01,0.01h0.008c0.029,0.051,0.049,0.07,0.049,0.07
		c1.611,2.17,4.031,3.24,6.451,3.24c2.43,0,4.85-1.07,6.449-3.24c0,0.01,0.02-0.02,0.061-0.07l-0.006,0.016
		c0.004-0.004,0.008-0.008,0.012-0.014l0.008-0.012v-3.781C30.038,25.654,29.499,26.355,28.907,26.994"/>
	<g opacity="0.1">
		<g>
			<defs>
				<rect id="SVGID_169_" x="20.206" y="24.936" width="10.322" height="7.074"/>
			</defs>
			<clipPath id="SVGID_2_">
				<use xlink:href="#SVGID_169_"  overflow="visible"/>
			</clipPath>
			<path clip-path="url(#SVGID_2_)" fill="#40596B" d="M28.907,26.994l-0.92,1.01c-0.84,0.92-2.029,1.451-3.279,1.451h-1.4
				c-1.16,0-2.258-0.473-3.082-1.275l-0.02,0.008l4.281,3.822c2.264-0.133,4.473-1.188,5.967-3.215c0,0.01,0.02-0.02,0.061-0.07
				l-0.031,0.09l0.045-0.1v-3.781C30.038,25.654,29.499,26.355,28.907,26.994"/>
		</g>
	</g>
	<path fill="#F8B64C" d="M17.497,28.715c0.08,0.109,0.07,0.109-0.01,0H17.497z"/>
	<polygon fill="#4CDBC4" points="15.335,29.49 15.335,48 11.524,48 11.524,30.861 	"/>
	<path fill="#4CDBC4" d="M25.905,31.82V48h-3.811V31.811c0.621,0.15,1.27,0.23,1.91,0.23S25.274,31.971,25.905,31.82"/>
	<polygon fill="#4CDBC4" points="36.476,30.861 36.476,48 32.665,48 32.665,29.49 	"/>
	<path fill="#40596B" d="M16.009,30.031l0.02,0.023c1.91,2.531,4.824,3.982,8.006,3.982c3.225,0,6.162-1.479,8.061-4.055
		c0.137-0.186,0.229-0.389,0.293-0.598l-1.854-0.668h-0.01l-0.01,0.01c-0.029,0.039-0.051,0.07-0.061,0.07
		c-1.6,2.17-4.02,3.24-6.449,3.24c-2.42,0-4.84-1.07-6.449-3.24c0,0-0.021-0.021-0.051-0.07h-0.01l-0.01-0.01h-0.01l-1.844,0.664
		C15.714,29.613,15.835,29.834,16.009,30.031"/>
</g>
</svg>
