<?xml version="1.0" encoding="utf-8"?>
<!-- Generator: Adobe Illustrator 18.0.0, SVG Export Plug-In . SVG Version: 6.00 Build 0)  -->
<!DOCTYPE svg PUBLIC "-//W3C//DTD SVG 1.1//EN" "http://www.w3.org/Graphics/SVG/1.1/DTD/svg11.dtd">
<svg version="1.1" id="Layer_1" xmlns="http://www.w3.org/2000/svg" xmlns:xlink="http://www.w3.org/1999/xlink" x="0px" y="0px"
	 viewBox="0 0 48 48" enable-background="new 0 0 48 48" xml:space="preserve">
<g>
	<g>
		<path fill="#F3705A" d="M48,21L48,21c-0.2-1.1-1.3-1.7-2.4-1.5L4,28.9c-1.1,0.2-1.7,1.3-1.5,2.4l0,0c0.2,1.1,1.3,1.7,2.4,1.5
			l41.6-9.4C47.5,23.1,48.2,22.1,48,21z"/>
	</g>
	<g>
		<g>
			<path fill="#415A6B" d="M36.3,40l-8.9-12.9H23L14.1,40c-0.5,0.7-0.3,1.6,0.4,2c0.7,0.5,1.6,0.3,2-0.4L25.2,29L34,41.7
				c0.5,0.7,1.4,0.8,2,0.4C36.6,41.6,36.8,40.7,36.3,40z"/>
		</g>
	</g>
	<g>
		<circle fill="#CED6E0" cx="25.2" cy="26.1" r="4.1"/>
		<circle fill="#ADB3BA" cx="25.2" cy="26.1" r="2.2"/>
	</g>
	<g>
		<g>
			<circle fill="#FFD15C" cx="38.4" cy="13.3" r="7.6"/>
			<circle fill="#F7B64C" cx="38.4" cy="13.3" r="5.6"/>
			<g>
				<path fill="#FFD15C" d="M38.9,17.2l-0.2-0.7c-0.8,0.1-1.6-0.1-2.4-0.6l0.6-1.2c0.6,0.3,1.1,0.5,1.5,0.5l-0.3-1.4
					c-0.7,0-1.2-0.1-1.6-0.3c-0.4-0.2-0.6-0.6-0.7-1.1c-0.1-0.5,0-1,0.2-1.4c0.3-0.4,0.7-0.7,1.2-0.9l-0.1-0.5l1-0.2l0.1,0.5
					c0.6-0.1,1.3,0.1,2,0.4l-0.5,1.3c-0.4-0.2-0.8-0.3-1.2-0.3l0.3,1.3c0.7,0,1.2,0.1,1.6,0.4c0.4,0.2,0.6,0.6,0.8,1.1
					c0.1,0.5,0,1-0.2,1.4c-0.3,0.4-0.7,0.7-1.3,0.9l0.1,0.6L38.9,17.2z M37.6,11.4c-0.2,0.2-0.3,0.3-0.3,0.6
					c0.1,0.2,0.2,0.4,0.5,0.5L37.6,11.4z M39.8,14.4c0-0.1-0.1-0.2-0.2-0.3c-0.1-0.1-0.2-0.1-0.4-0.2l0.3,1.1
					C39.7,14.9,39.8,14.7,39.8,14.4z"/>
			</g>
		</g>
		<g>
			<g>
				<polygon fill="#66C6B9" points="18.1,16.1 7,9.1 0,20.2 				"/>
				
					<rect x="5.4" y="16.2" transform="matrix(0.2195 0.9756 -0.9756 0.2195 30.0257 7.9276)" fill="#E8EAE9" width="9.3" height="13.1"/>
			</g>
			
				<rect x="8.4" y="22.4" transform="matrix(0.9756 -0.2195 0.2195 0.9756 -5.2047 2.9212)" fill="#415A6B" width="4.3" height="4.9"/>
		</g>
	</g>
</g>
</svg>
