<?xml version="1.0" encoding="utf-8"?>
<!-- Generator: Adobe Illustrator 18.0.0, SVG Export Plug-In . SVG Version: 6.00 Build 0)  -->
<!DOCTYPE svg PUBLIC "-//W3C//DTD SVG 1.1//EN" "http://www.w3.org/Graphics/SVG/1.1/DTD/svg11.dtd">
<svg version="1.1" id="Layer_1" xmlns="http://www.w3.org/2000/svg" xmlns:xlink="http://www.w3.org/1999/xlink" x="0px" y="0px"
	 viewBox="0 0 48 48" enable-background="new 0 0 48 48" xml:space="preserve">
<g>
	<g>
		<g>
			<path fill="#40596B" d="M35.3,21.1h-3.5v-3.3c0-1,0.8-1.7,1.7-1.7h0c1,0,1.7,0.8,1.7,1.7V21.1z"/>
			<path fill="#40596B" d="M42.2,22.9h-3.5v-3.3c0-1,0.8-1.7,1.7-1.7l0,0c1,0,1.7,0.8,1.7,1.7V22.9z"/>
		</g>
		<g>
			<path fill="#40596B" d="M12.7,21.1h3.5v-3.3c0-1-0.8-1.7-1.7-1.7h0c-1,0-1.7,0.8-1.7,1.7V21.1z"/>
			<path fill="#40596B" d="M5.8,22.9h3.5v-3.3c0-1-0.8-1.7-1.7-1.7h0c-1,0-1.7,0.8-1.7,1.7V22.9z"/>
		</g>
	</g>
	<path fill="#CDD6E0" d="M34.2,40.8L24,36.7l-10.2,4.1c-0.7,0.3-1.2,1-1.2,1.8c0,1.2,1.1,2.1,2.2,1.9l9.2-1.4l9.2,1.4
		c1.2,0.2,2.2-0.7,2.2-1.9C35.4,41.8,35,41.1,34.2,40.8z"/>
	<path fill="#E4EAEF" d="M48,27.6c0-1.6-0.8-3.1-2.2-3.9c-1.8-1.1-4.2-2-5.7-2.3l-10.3-3.1L24,16.6V26l5.8,1.6L48,32.5V27.6z"/>
	<path fill="#E4EAEF" d="M0,27.6c0-1.6,0.8-3.1,2.2-3.9c1.8-1.1,4.2-2,5.7-2.3l10.3-3.1l5.8-1.8V26l-5.8,1.6L0,32.5L0,27.6z"/>
	<path fill="#CDD6E0" d="M35.4,42.6c0,1.2-1,2.1-2.2,1.9l-4.6-0.7L24,43.1l-4.6,0.7l-4.6,0.7c-1.2,0.2-2.2-0.7-2.2-1.9
		c0-0.8,0.5-1.5,1.2-1.8l4.4-1.8l5.8-2.3l5.8,2.3l4.4,1.8C34.9,41.1,35.4,41.8,35.4,42.6z"/>
	<polygon fill="#D6E2EA" points="24.2,16.6 24.2,26.1 29.8,27.6 29.8,18.3 	"/>
	<path fill="#C0CFDD" d="M24.6,37v6.2l4,0.6c0.6-1.4,1.2-3,1.2-4.5V39L24.6,37z"/>
	<path fill="#F2F2F2" d="M25.1,0.9c-0.6-0.6-1.6-0.6-2.2,0c-2.1,2.3-3.2,5.2-3.2,8.3v30c0,1.6,0.9,3.4,1.5,4.9
		c0.1,0.1,1.4,2.5,2.8,3.3c1.4-0.8,2.7-3.2,2.8-3.3c0.6-1.6,1.5-3.4,1.5-4.9v-30C28.3,6.2,27.1,3.2,25.1,0.9z"/>
	<path fill="#84DBFF" d="M22.4,4.3C22,5,21.8,5.8,21.6,6.5l0,0C22.3,6,23.2,5.7,24,5.7V3.3C23.4,3.3,22.7,3.7,22.4,4.3z"/>
	<path fill="#54C0EB" d="M25.6,4.3c-0.3-0.7-1-1-1.6-1v2.4c0.8,0,1.7,0.3,2.4,0.8l0,0C26.2,5.8,26,5,25.6,4.3z"/>
</g>
</svg>
