<?xml version="1.0" encoding="utf-8"?>
<!-- Generator: Adobe Illustrator 20.1.0, SVG Export Plug-In . SVG Version: 6.00 Build 0)  -->
<!DOCTYPE svg PUBLIC "-//W3C//DTD SVG 1.1//EN" "http://www.w3.org/Graphics/SVG/1.1/DTD/svg11.dtd">
<svg version="1.1" id="Layer_1" xmlns="http://www.w3.org/2000/svg" xmlns:xlink="http://www.w3.org/1999/xlink" x="0px" y="0px"
	 viewBox="0 0 49 49" enable-background="new 0 0 49 49" xml:space="preserve">
<g>
	<path fill="#40596B" d="M38.5,0.5h-28c-1.1,0-2,0.9-2,2v44c0,1.1,0.9,2,2,2h28c1.1,0,2-0.9,2-2v-44C40.5,1.4,39.6,0.5,38.5,0.5z"/>
	<rect x="11.1" y="6.5" fill="#84DBFF" width="26.8" height="33.5"/>
	<circle fill="#334A5E" cx="24.5" cy="44.2" r="2.2"/>
	<path fill="#334A5E" d="M28.2,2.8h-7.4c-0.4,0-0.6,0.3-0.6,0.6c0,0.4,0.3,0.6,0.6,0.6h7.4c0.4,0,0.6-0.3,0.6-0.6
		C28.8,3.1,28.6,2.8,28.2,2.8z"/>
	<circle fill="#FF7058" cx="24.5" cy="23.2" r="12.2"/>
	<circle fill="#FFFFFF" cx="24.5" cy="23.2" r="9.6"/>
	<circle fill="#FF7058" cx="24.5" cy="23.2" r="7.1"/>
	<circle fill="#FFFFFF" cx="24.5" cy="23.2" r="4.5"/>
	<circle fill="#FF7058" cx="24.5" cy="23.2" r="1.9"/>
	<path fill="#ACB3BA" d="M35.3,12.2L24.5,22.3c-0.2,0.2-0.3,0.6,0,0.9l0,0c0.2,0.2,0.6,0.3,0.9,0l10.8-10.1c0.2-0.2,0.3-0.6,0-0.9
		l0,0C35.9,12,35.6,12,35.3,12.2z"/>
	<polygon fill="#40596B" points="34.7,13.6 34.3,11 30.8,14.3 31.3,16.9 33.8,17.5 37.3,14.3 	"/>
</g>
</svg>
