<?xml version="1.0" encoding="utf-8"?>
<!-- Generator: Adobe Illustrator 18.0.0, SVG Export Plug-In . SVG Version: 6.00 Build 0)  -->
<!DOCTYPE svg PUBLIC "-//W3C//DTD SVG 1.1//EN" "http://www.w3.org/Graphics/SVG/1.1/DTD/svg11.dtd">
<svg version="1.1" id="Layer_1" xmlns="http://www.w3.org/2000/svg" xmlns:xlink="http://www.w3.org/1999/xlink" x="0px" y="0px"
	 viewBox="0 0 48 48" enable-background="new 0 0 48 48" xml:space="preserve">
<g>
	<g>
		<g>
			<g>
				<path fill="#344A5E" d="M19.7,10.5V6.1h8.6v4.4h3.5V5.4c0-1.5-1.2-2.7-2.7-2.7H19c-1.5,0-2.7,1.2-2.7,2.7v5.1H19.7z"/>
			</g>
		</g>
		<g>
			<path fill="#344A5E" d="M45.5,10.5h-43C1.1,10.5,0,11.6,0,13v29.8c0,1.4,1.1,2.5,2.5,2.5h43c1.4,0,2.5-1.1,2.5-2.5V13
				C48,11.6,46.9,10.5,45.5,10.5z"/>
		</g>
		<g>
			<g>
				<path fill="#415A6B" d="M48,24.9V13c0-1.4-1.1-2.5-2.5-2.5h-43C1.1,10.5,0,11.6,0,13v11.9C16,34.4,32,34.4,48,24.9z"/>
			</g>
		</g>
		<path fill="#F3F3F3" d="M26.2,28.3h-4.4c-0.3,0-0.5,0.2-0.5,0.5v6.4c0,0.3,0.2,0.5,0.5,0.5h4.4c0.3,0,0.5-0.2,0.5-0.5v-6.4
			C26.7,28.5,26.5,28.3,26.2,28.3z"/>
	</g>
</g>
</svg>
