<?xml version="1.0" encoding="utf-8"?>
<!-- Generator: Adobe Illustrator 20.1.0, SVG Export Plug-In . SVG Version: 6.00 Build 0)  -->
<!DOCTYPE svg PUBLIC "-//W3C//DTD SVG 1.1//EN" "http://www.w3.org/Graphics/SVG/1.1/DTD/svg11.dtd">
<svg version="1.1" id="Layer_1" xmlns="http://www.w3.org/2000/svg" xmlns:xlink="http://www.w3.org/1999/xlink" x="0px" y="0px"
	 viewBox="0 0 49 49" enable-background="new 0 0 49 49" xml:space="preserve">
<g>
	<path fill="#F2F2F2" d="M27.9,44.3h-6.7c-2.3,0-4.2,1.9-4.2,4.2H32C32,46.2,30.2,44.3,27.9,44.3z"/>
	<path fill="#F2F2F2" d="M14.3,0.5v23.3c0,5.6,4.6,10.2,10.2,10.2c5.6,0,10.2-4.6,10.2-10.2V0.5H14.3z"/>
	<path fill="#CDD6E0" d="M24.5,34c-0.5,0-1.1-0.1-1.6-0.1v10.5h3.2V33.9C25.6,33.9,25,34,24.5,34z"/>
	<path fill="#84DBFF" d="M15.8,8.3v15.5c0,4.8,3.9,8.7,8.7,8.7c4.8,0,8.7-3.9,8.7-8.7v-16C27.4,5.4,21.6,10.6,15.8,8.3z"/>
	<circle fill="#FFFFFF" cx="22.9" cy="5.7" r="1.5"/>
	<circle fill="#FFFFFF" cx="28.6" cy="4.8" r="0.8"/>
	<circle fill="#FFFFFF" cx="26.8" cy="2.3" r="0.5"/>
	<circle fill="#FFFFFF" cx="21.2" cy="2.8" r="0.5"/>
</g>
</svg>
