<?xml version="1.0" encoding="utf-8"?>
<!-- Generator: Adobe Illustrator 18.0.0, SVG Export Plug-In . SVG Version: 6.00 Build 0)  -->
<!DOCTYPE svg PUBLIC "-//W3C//DTD SVG 1.1//EN" "http://www.w3.org/Graphics/SVG/1.1/DTD/svg11.dtd">
<svg version="1.1" id="Layer_1" xmlns="http://www.w3.org/2000/svg" xmlns:xlink="http://www.w3.org/1999/xlink" x="0px" y="0px"
	 viewBox="0 0 48 48" enable-background="new 0 0 48 48" xml:space="preserve">
<g>
	<g>
		<g>
			<g>
				<path fill="#FFD15C" d="M29.5,36.7c0.6-2,1.8-3.8,3.4-5.2c3-2.5,4.9-6.3,4.9-10.5c0-7.8-6.5-14.2-14.5-13.8
					c-7.1,0.3-12.9,6.3-13.1,13.4c-0.1,4.4,1.8,8.3,4.9,10.9c1.7,1.4,2.9,3.2,3.5,5.2H29.5z"/>
			</g>
			<g>
				<g>
					<path fill="#FFFFFF" d="M22.7,36.9h0.9L19.6,22c0.1,0,0.2,0,0.3,0c0.5,0,1-0.2,1.4-0.6c0.2-0.2,0.4-0.3,0.7-0.3
						c0.3,0,0.5,0.1,0.7,0.3c0.7,0.8,1.9,0.8,2.6,0c0.2-0.2,0.4-0.3,0.7-0.3c0.2,0,0.5,0.1,0.7,0.3c0.4,0.4,0.8,0.6,1.4,0.6
						c0.1,0,0.2,0,0.3,0l-3.9,14.9h0.9l4.1-15.6c0-0.2,0-0.4-0.2-0.5c-0.2-0.1-0.4,0-0.5,0.1c-0.2,0.2-0.4,0.3-0.6,0.3
						c-0.3,0-0.5-0.1-0.8-0.3c-0.4-0.4-0.8-0.6-1.3-0.6c-0.5,0-0.9,0.2-1.3,0.6c-0.4,0.4-1,0.4-1.4,0c-0.3-0.4-0.8-0.6-1.3-0.6
						c0,0,0,0,0,0c-0.5,0-1,0.2-1.3,0.6c-0.2,0.2-0.5,0.3-0.8,0.3c-0.2,0-0.5-0.1-0.6-0.3c-0.1-0.1-0.3-0.2-0.5-0.1
						c-0.2,0.1-0.3,0.3-0.2,0.5L22.7,36.9z"/>
				</g>
			</g>
		</g>
		<g>
			<g>
				<path fill="#344A5E" d="M20.9,45.9c0.5,1.2,1.7,2.1,3.1,2.1c1.4,0,2.6-0.9,3.1-2.1H20.9z"/>
				<g>
					<path fill="#344A5E" d="M27.7,46h-7.3c-1,0-1.8-0.8-1.8-1.8v-7.6h10.9v7.6C29.5,45.2,28.7,46,27.7,46z"/>
				</g>
			</g>
			<g>
				<path fill="#415A6B" d="M29.4,40.4H18.6c-0.6,0-1.1-0.5-1.1-1.1v0c0-0.6,0.5-1.1,1.1-1.1h10.8c0.6,0,1.1,0.5,1.1,1.1v0
					C30.5,39.9,30,40.4,29.4,40.4z"/>
				<path fill="#415A6B" d="M29.4,43.9H18.6c-0.6,0-1.1-0.5-1.1-1.1v0c0-0.6,0.5-1.1,1.1-1.1h10.8c0.6,0,1.1,0.5,1.1,1.1v0
					C30.5,43.4,30,43.9,29.4,43.9z"/>
			</g>
		</g>
		<g>
			<path fill="#FFD15C" d="M24,0c-0.5,0-1,0.4-1,1v3.4c0,0.5,0.4,1,1,1s1-0.4,1-1V1C25,0.4,24.5,0,24,0z"/>
			<path fill="#FFD15C" d="M10.6,6.1c-0.4-0.4-1-0.4-1.4,0c-0.4,0.4-0.4,1,0,1.4l2.4,2.4c0.4,0.4,1,0.4,1.4,0c0.4-0.4,0.4-1,0-1.4
				L10.6,6.1z"/>
			<path fill="#FFD15C" d="M7.5,19.9H4.1c-0.5,0-1,0.4-1,1v0c0,0.5,0.4,1,1,1h3.4c0.5,0,1-0.4,1-1v0C8.5,20.4,8,19.9,7.5,19.9z"/>
			<path fill="#FFD15C" d="M11.6,31.9l-2.4,2.4c-0.4,0.4-0.4,1,0,1.4c0.4,0.4,1,0.4,1.4,0l2.4-2.4c0.4-0.4,0.4-1,0-1.4
				C12.6,31.5,12,31.5,11.6,31.9z"/>
			<path fill="#FFD15C" d="M36.4,31.9c-0.4-0.4-1-0.4-1.4,0c-0.4,0.4-0.4,1,0,1.4l2.4,2.4c0.4,0.4,1,0.4,1.4,0c0.4-0.4,0.4-1,0-1.4
				L36.4,31.9z"/>
			<path fill="#FFD15C" d="M43.9,19.9h-3.4c-0.5,0-1,0.4-1,1v0c0,0.5,0.4,1,1,1h3.4c0.5,0,1-0.4,1-1v0
				C44.9,20.4,44.5,19.9,43.9,19.9z"/>
			<path fill="#FFD15C" d="M37.4,6.1L35,8.5c-0.4,0.4-0.4,1,0,1.4c0.4,0.4,1,0.4,1.4,0l2.4-2.4c0.4-0.4,0.4-1,0-1.4
				C38.4,5.7,37.8,5.7,37.4,6.1z"/>
		</g>
	</g>
</g>
</svg>
