<?xml version="1.0" encoding="utf-8"?>
<!-- Generator: Adobe Illustrator 19.0.1, SVG Export Plug-In . SVG Version: 6.00 Build 0)  -->
<svg version="1.1" id="Layer_1" xmlns="http://www.w3.org/2000/svg" xmlns:xlink="http://www.w3.org/1999/xlink" x="0px" y="0px"
	 viewBox="0 0 48 48" style="enable-background:new 0 0 48 48;" xml:space="preserve">
<style type="text/css">
	.st0{fill:#415A6B;}
	.st1{fill:#ADB3BA;}
	.st2{fill:#E8EAE9;}
	.st3{fill:#55C0EB;}
	.st4{fill:#F3705A;}
	.st5{fill:#FFFFFF;}
	.st6{fill:#FFD15C;}
	.st7{fill:#344A5E;}
	.st8{fill:#CED6E0;}
	.st9{fill:#F05540;}
	.st10{fill:#F7B64C;}
	.st11{fill:#F3F3F3;}
	.st12{fill:#66C6B9;}
	.st13{fill:#4ABAA5;}
	.st14{fill:#8AD7F8;}
	.st15{fill:none;}
	.st16{fill:#E53D35;}
</style>
<g>
	<g>
		<g>
			<g>
				<g>
					<path class="st0" d="M33.9,11.9c0,6.1-4.7,14.8-10.5,14.8S12.8,18,12.8,11.9C12.8,3.1,17.5,0,23.3,0C29.2,0,33.9,3.1,33.9,11.9
						z"/>
				</g>
				<g>
					<path class="st6" d="M25,6.2c-1.9,2.7-4.9,4.7-9.1,4.7c-0.4,0-0.8,0-1.2-0.1c-0.6,1.6-0.9,3.4-0.9,5.2c0,6.9,4.3,12.5,9.5,12.5
						s9.5-5.6,9.5-12.5c0-2.6-0.6-5.1-1.7-7.1C28.6,8.6,26.5,7.6,25,6.2z"/>
				</g>
				<g>
					<g>
						<path class="st6" d="M34.6,16.8c-0.3,2.1-1.4,3.6-2.5,3.3c-1.1-0.2-1.7-2.1-1.4-4.2s1.4-3.6,2.5-3.3
							C34.3,12.8,34.9,14.7,34.6,16.8z"/>
					</g>
					<g>
						<path class="st6" d="M12.1,16.8c0.3,2.1,1.4,3.6,2.5,3.3s1.7-2.1,1.4-4.2s-1.4-3.6-2.5-3.3C12.4,12.8,11.8,14.7,12.1,16.8z"/>
					</g>
				</g>
			</g>
			<g>
				<path class="st0" d="M15.4,30.3L23.3,48H0C0,37.2,6.4,32,15.4,30.3z"/>
				<path class="st0" d="M46.7,48H23.3l7.9-17.7C40.3,32,46.7,37.2,46.7,48z"/>
			</g>
			<path class="st11" d="M23.3,29.6c-2.8,0-5.5,0.2-7.9,0.7L23.3,48l7.9-17.7C28.8,29.8,26.1,29.6,23.3,29.6z"/>
			<g>
				<g>
					<polygon class="st12" points="24.7,34.7 26.4,32.8 23.3,29.6 20.3,32.8 22,34.7 					"/>
				</g>
				<polygon class="st12" points="20.5,41.6 23.3,48 26.2,41.6 24.7,34.7 22,34.7 				"/>
			</g>
		</g>
		<g>
			<g>
				<circle class="st4" cx="37.7" cy="37.7" r="10.3"/>
			</g>
			<g>
				<path class="st11" d="M44.7,37.7c0,1-0.8,1.8-1.7,1.8h-3.5v3.5c0,1-0.8,1.7-1.7,1.7c-1,0-1.7-0.8-1.7-1.7v-3.5h-3.5
					c-1,0-1.7-0.8-1.7-1.8c0-1,0.8-1.7,1.7-1.7h3.5v-3.5c0-1,0.8-1.8,1.7-1.8c1,0,1.7,0.8,1.7,1.8v3.5h3.5
					C43.9,35.9,44.7,36.7,44.7,37.7z"/>
			</g>
		</g>
	</g>
</g>
</svg>
