<?xml version="1.0" encoding="utf-8"?>
<!-- Generator: Adobe Illustrator 18.0.0, SVG Export Plug-In . SVG Version: 6.00 Build 0)  -->
<!DOCTYPE svg PUBLIC "-//W3C//DTD SVG 1.1//EN" "http://www.w3.org/Graphics/SVG/1.1/DTD/svg11.dtd">
<svg version="1.1" id="Layer_1" xmlns="http://www.w3.org/2000/svg" xmlns:xlink="http://www.w3.org/1999/xlink" x="0px" y="0px"
	 viewBox="0 0 48 48" enable-background="new 0 0 48 48" xml:space="preserve">
<g>
	<g>
		<g>
			<g>
				<g>
					<path fill="#F7B64C" d="M12.2,2.3C11,4.4,6.9,13,5.9,15C3.4,19.8,2,24.1,1.5,27L5,28.9c2.1-1.9,5-5.5,7.7-10.2
						c0.4-0.8,1.6-2.6,2.8-4.7C17.9,9.9,16.4,4.6,12.2,2.3L12.2,2.3z"/>
				</g>
				<g>
					<rect x="0.8" y="27.8" transform="matrix(0.8794 0.476 -0.476 0.8794 14.0399 2.1433)" fill="#415A6B" width="4" height="2"/>
				</g>
			</g>
			<g>
				<g>
					<path fill="#F7B64C" d="M35.8,2.3C37,4.4,41.1,13,42.1,15c2.5,4.8,3.9,9.2,4.4,12L43,28.9c-2.1-1.9-5-5.5-7.7-10.2
						c-0.4-0.8-1.6-2.6-2.8-4.7C30.1,9.9,31.6,4.6,35.8,2.3L35.8,2.3z"/>
				</g>
				<g>
					
						<rect x="43.2" y="27.8" transform="matrix(-0.8794 0.476 -0.476 -0.8794 98.6743 32.5799)" fill="#415A6B" width="4" height="2"/>
				</g>
			</g>
		</g>
		<g>
			<g>
				<g>
					<path fill="#FFD15C" d="M41.9,46.4c0,0-4.8-11.6-6.5-18.8s0.4-25.2,0.4-25.2L28.5,0c0,6.6-4.9,7.5-4.9,7.5S18.8,6.6,18.8,0
						l-6.5,2.3c0,0,2.1,18,0.4,25.2S6.1,46.4,6.1,46.4C20.5,51.6,23.1,42.2,41.9,46.4z"/>
				</g>
			</g>
		</g>
	</g>
</g>
</svg>
