<?xml version="1.0" encoding="utf-8"?>
<!-- Generator: Adobe Illustrator 18.0.0, SVG Export Plug-In . SVG Version: 6.00 Build 0)  -->
<!DOCTYPE svg PUBLIC "-//W3C//DTD SVG 1.1//EN" "http://www.w3.org/Graphics/SVG/1.1/DTD/svg11.dtd">
<svg version="1.1" id="Layer_1" xmlns="http://www.w3.org/2000/svg" xmlns:xlink="http://www.w3.org/1999/xlink" x="0px" y="0px"
	 viewBox="0 0 48 48" enable-background="new 0 0 48 48" xml:space="preserve">
<g>
	<path fill="#FF7058" d="M24,11c-9.6,0-17.3,7.8-17.3,17.3v12.4h34.7V28.4C41.3,18.8,33.6,11,24,11z"/>
	<g>
		<path fill="#F1543F" d="M12.1,29.7c-0.7,0-1.4-0.6-1.4-1.4c0-7.3,6-13.3,13.3-13.3c0.7,0,1.4,0.6,1.4,1.4s-0.6,1.4-1.4,1.4
			c-5.8,0-10.6,4.7-10.6,10.6C13.4,29.1,12.8,29.7,12.1,29.7z"/>
	</g>
	<path fill="#40596B" d="M43.1,46.1H4.9c-1.5,0-2.7-1.2-2.7-2.7v0c0-1.5,1.2-2.7,2.7-2.7h38.1c1.5,0,2.7,1.2,2.7,2.7v0
		C45.7,44.9,44.5,46.1,43.1,46.1z"/>
	<g>
		<path fill="#FFD15C" d="M0,25.9c0-0.6,0.4-1,1-1h3.5c0.6,0,1,0.4,1,1s-0.4,1-1,1H1C0.4,26.9,0,26.5,0,25.9z"/>
		<path fill="#FFD15C" d="M42.5,25.9c0-0.6,0.4-1,1-1H47c0.6,0,1,0.4,1,1s-0.4,1-1,1h-3.5C42.9,26.9,42.5,26.5,42.5,25.9z"/>
	</g>
	<path fill="#FFD15C" d="M7,8.9c0.4-0.4,1-0.4,1.4,0l2.5,2.5c0.4,0.4,0.4,1,0,1.4c-0.4,0.4-1,0.4-1.4,0L7,10.4C6.6,10,6.6,9.3,7,8.9
		z"/>
	<path fill="#FFD15C" d="M24,1.9c0.6,0,1,0.4,1,1v3.5c0,0.6-0.4,1-1,1s-1-0.4-1-1V2.9C23,2.4,23.4,1.9,24,1.9z"/>
	<path fill="#FFD15C" d="M41,8.9c0.4,0.4,0.4,1,0,1.4l-2.5,2.5c-0.4,0.4-1,0.4-1.4,0c-0.4-0.4-0.4-1,0-1.4l2.5-2.5
		C39.9,8.6,40.6,8.6,41,8.9z"/>
	<rect x="6.7" y="39.3" fill="#F1543F" width="34.7" height="1.5"/>
</g>
</svg>
