<?xml version="1.0" encoding="utf-8"?>
<!-- Generator: Adobe Illustrator 18.0.0, SVG Export Plug-In . SVG Version: 6.00 Build 0)  -->
<!DOCTYPE svg PUBLIC "-//W3C//DTD SVG 1.1//EN" "http://www.w3.org/Graphics/SVG/1.1/DTD/svg11.dtd">
<svg version="1.1" id="Layer_1" xmlns="http://www.w3.org/2000/svg" xmlns:xlink="http://www.w3.org/1999/xlink" x="0px" y="0px"
	 viewBox="0 0 48 48" enable-background="new 0 0 48 48" xml:space="preserve">
<g>
	<path fill="#FFFFFF" d="M24,0C10.7,0,0,10.7,0,24c0,13.3,10.7,24,24,24s24-10.7,24-24C48,10.7,37.3,0,24,0z M24,36
		c-6.6,0-12-5.4-12-12s5.4-12,12-12s12,5.4,12,12S30.6,36,24,36z"/>
	<g>
		<path fill="#F2F2F2" d="M24,45C12.4,45,3,35.6,3,24S12.4,3,24,3s21,9.4,21,21S35.6,45,24,45z M24,9C15.7,9,9,15.7,9,24
			s6.7,15,15,15s15-6.7,15-15S32.3,9,24,9z"/>
	</g>
	<g>
		<g>
			<path fill="#FF7058" d="M45.7,13.7l-10.1,7.3c-1.1-4.2-4.4-7.5-8.5-8.5l7.3-10.1C39.3,4.7,43.3,8.7,45.7,13.7z"/>
			<path fill="#FF7058" d="M20.9,35.6l-7.3,10.1c-5-2.4-9-6.4-11.3-11.3l10.1-7.3C13.5,31.2,16.8,34.5,20.9,35.6z"/>
		</g>
		<g>
			<path fill="#FF7058" d="M45.7,34.3c-2.4,5-6.4,9-11.3,11.3l-7.3-10.1c4.2-1.1,7.5-4.4,8.5-8.5L45.7,34.3z"/>
			<path fill="#FF7058" d="M20.9,12.4c-4.2,1.1-7.5,4.4-8.5,8.5L2.3,13.7c2.4-5,6.4-9,11.3-11.3L20.9,12.4z"/>
		</g>
	</g>
	<g opacity="0.1">
		<path fill="#231F20" d="M24,9C15.7,9,9,15.7,9,24s6.7,15,15,15s15-6.7,15-15S32.3,9,24,9z M24,36c-6.6,0-12-5.4-12-12
			s5.4-12,12-12s12,5.4,12,12S30.6,36,24,36z"/>
		<path fill="#231F20" d="M24,0C10.7,0,0,10.7,0,24c0,13.3,10.7,24,24,24s24-10.7,24-24C48,10.7,37.3,0,24,0z M24,45
			C12.4,45,3,35.6,3,24S12.4,3,24,3s21,9.4,21,21S35.6,45,24,45z"/>
	</g>
</g>
</svg>
