<?xml version="1.0" encoding="utf-8"?>
<!-- Generator: Adobe Illustrator 18.0.0, SVG Export Plug-In . SVG Version: 6.00 Build 0)  -->
<!DOCTYPE svg PUBLIC "-//W3C//DTD SVG 1.1//EN" "http://www.w3.org/Graphics/SVG/1.1/DTD/svg11.dtd">
<svg version="1.1" id="Layer_1" xmlns="http://www.w3.org/2000/svg" xmlns:xlink="http://www.w3.org/1999/xlink" x="0px" y="0px"
	 viewBox="0 0 48 48" enable-background="new 0 0 48 48" xml:space="preserve">
<g>
	<path fill="#84DBFF" d="M43,41.2H2c-1.1,0-2-0.9-2-2V14.9c0-1.1,0.9-2,2-2h41c1.1,0,2,0.9,2,2v24.2C45,40.3,44.1,41.2,43,41.2z"/>
	<rect x="0" y="18" fill="#40596B" width="45" height="5.7"/>
	<g>
		<path fill="#FFFFFF" d="M10.4,28L10.4,28c0,0.6-0.5,1.1-1.1,1.1H3.1C2.5,29.1,2,28.6,2,28l0,0c0-0.6,0.5-1.1,1.1-1.1h6.3
			C9.9,26.9,10.4,27.4,10.4,28z"/>
		<path fill="#FFFFFF" d="M19.9,28L19.9,28c0,0.6-0.5,1.1-1.1,1.1h-6.3c-0.6,0-1.1-0.5-1.1-1.1l0,0c0-0.6,0.5-1.1,1.1-1.1h6.3
			C19.4,26.9,19.9,27.4,19.9,28z"/>
		<path fill="#54C0EB" d="M19.9,32.1L19.9,32.1c0,0.6-0.5,1.1-1.1,1.1H3.1c-0.6,0-1.1-0.5-1.1-1.1l0,0C2,31.5,2.5,31,3.1,31h15.7
			C19.4,31,19.9,31.5,19.9,32.1z"/>
	</g>
	<path fill="#FFD15C" d="M37.3,33.6C23.7,27.8,27,10,27,10c6.2-0.3,10.3-3.2,10.3-3.2s4.1,2.9,10.3,3.2C47.6,10,51,27.8,37.3,33.6z"
		/>
	<path fill="#FF7058" d="M37.3,31.7c-9.6-4.6-9.2-16.1-8.8-20c4.1-0.4,7.2-1.9,8.8-2.8c1.5,0.9,4.6,2.3,8.8,2.8
		C46.5,15.6,46.9,27,37.3,31.7z"/>
	<polygon fill="#FFFFFF" points="35.6,23 32.4,19.8 33.8,18.4 35.6,20.3 40.9,14.9 42.3,16.3 	"/>
</g>
</svg>
