<?xml version="1.0" encoding="utf-8"?>
<!-- Generator: Adobe Illustrator 20.1.0, SVG Export Plug-In . SVG Version: 6.00 Build 0)  -->
<!DOCTYPE svg PUBLIC "-//W3C//DTD SVG 1.1//EN" "http://www.w3.org/Graphics/SVG/1.1/DTD/svg11.dtd">
<svg version="1.1" id="Layer_1" xmlns="http://www.w3.org/2000/svg" xmlns:xlink="http://www.w3.org/1999/xlink" x="0px" y="0px"
	 viewBox="0 0 49 49" enable-background="new 0 0 49 49" xml:space="preserve">
<g>
	<rect x="0.5" y="45.4" fill="#ACB3BA" width="48" height="3.1"/>
	<path fill="#84DBFF" d="M45.5,48.5h-42V20.8c0-1.1,0.9-2,2-2h38c1.1,0,2,0.9,2,2V48.5z"/>
	<path fill="#54C0EB" d="M40.2,10.1H8.8c-1.1,0-2,0.9-2,2v6.7h35.3v-6.7C42.2,11,41.3,10.1,40.2,10.1z"/>
	<path fill="#84DBFF" d="M37.6,10.1C36,4.6,30.8,0.5,24.7,0.5h-0.4c-6.1,0-11.2,4.1-12.9,9.6H37.6z"/>
	<g>
		<path fill="#40596B" d="M31.6,40.5v8H17.4v-8c0-3.9,3.2-7.1,7.1-7.1c2,0,3.7,0.8,5,2.1C30.8,36.8,31.6,38.5,31.6,40.5z"/>
	</g>
	<rect x="34.7" y="12" fill="#F2F2F2" width="5" height="5"/>
	<rect x="10.3" y="12" fill="#F2F2F2" width="5" height="5"/>
	<rect x="34.7" y="24.5" fill="#F2F2F2" width="5" height="5"/>
	<rect x="10.3" y="24.5" fill="#F2F2F2" width="5" height="5"/>
	<rect x="22" y="12" fill="#F2F2F2" width="5" height="5"/>
	<rect x="22" y="24.5" fill="#F2F2F2" width="5" height="5"/>
	<rect x="34.7" y="37" fill="#F2F2F2" width="5" height="5"/>
	<rect x="10.3" y="37" fill="#F2F2F2" width="5" height="5"/>
</g>
</svg>
