<?xml version="1.0" encoding="utf-8"?>
<!-- Generator: Adobe Illustrator 18.0.0, SVG Export Plug-In . SVG Version: 6.00 Build 0)  -->
<!DOCTYPE svg PUBLIC "-//W3C//DTD SVG 1.1//EN" "http://www.w3.org/Graphics/SVG/1.1/DTD/svg11.dtd">
<svg version="1.1" id="Layer_1" xmlns="http://www.w3.org/2000/svg" xmlns:xlink="http://www.w3.org/1999/xlink" x="0px" y="0px"
	 viewBox="0 0 48 48" enable-background="new 0 0 48 48" xml:space="preserve">
<g>
	<g>
		<g>
			<path fill="#4ABAA5" d="M7.8,28.8c0,0.2,0,8.3,7.4,8.5C16.1,30,8,28.8,7.8,28.8z"/>
		</g>
		<g>
			<path fill="#4ABAA5" d="M31.1,30.5c-0.1,0.2-5,8.9-13,4.6C21.6,26.7,30.9,30.3,31.1,30.5z"/>
		</g>
		<g>
			<g>
				<g>
					<g>
						<path fill="#F3705A" d="M33.9,10.6c-3.2,3-6.3,5.1-8.9,3.4c-2.6-1.7-1-5.6,3.7-8.4C32.9,2.5,38.9,3.1,39,3.5
							C39.3,3.9,37.4,7.9,33.9,10.6z"/>
					</g>
				</g>
				<g>
					<g>
						<g>
							<g>
								<path fill="#F05540" d="M28.1,10.1c-0.1-0.5,6.5-1,8.1-1.7c0,0,2.9,1.3,3.7,1.5c0,0-1.7,0.5-1.7,0.6
									C37.8,10.2,28.2,10.2,28.1,10.1z"/>
							</g>
						</g>
						<g>
							<g>
								<path fill="#F3705A" d="M21.6,19.4c1.3-1.1,1.6-2.8,2-4.4c0.4-1.6,1.1-3.2,2.6-4.1c2.1-1.4,4.7-1.4,6.8-1.3
									c2.2,0.1,4.3,0.3,6.9,0.2c0.2,0.1,0.3,0.3,0.3,0.4c-0.1,0.3-0.5,0.4-0.9,0.4c-2.6,0-4.4,1.6-5.5,3.4c-1.3,2-1.6,4.5-3.2,5.9
									c-1.1,1-3,1.3-5,1.6c-0.6,0.1-1.3,0.2-2-0.2c-0.5-0.3-0.6-0.8-0.8-1.2c-0.2-0.4-0.5-0.9-1.1-1.1"/>
							</g>
						</g>
						<g>
							<path fill="#F05540" d="M27.7,12.1c-0.7,1-1.7,1.7-2.9,2.4c0.2,0.1,0.3,0.2,0.5,0.3c1.1-0.7,2.1-1.4,2.8-2.5
								c1.1-1.6,1.4-3.4,1.7-5.2c-0.2,0.1-0.4,0.3-0.6,0.4C29,9.2,28.7,10.7,27.7,12.1z"/>
						</g>
					</g>
					<g>
						<g>
							<g>
								<path fill="#F05540" d="M28.8,10.6c0.3,0.1,1.6-5.6,3.4-6.7c0,0-0.6-2.7-0.2-3.5c0,0-1.6,1.3-1.7,1.3
									C29.7,2.1,28,10.6,28.8,10.6z"/>
							</g>
						</g>
						<g>
							<g>
								<path fill="#F3705A" d="M20.6,18.9c0.2-1.7,1.9-2.7,3.4-3.6c1.5-0.9,3-1.7,3.9-3.1c1.3-1.9,1.5-4,1.8-5.9
									c0.3-1.9,0.7-3.8,2.3-6C31.9,0.1,31.8,0,31.5,0c-0.4,0-0.8,0.3-1.1,0.7C29.1,3,26.6,4.5,24,5.8c-2.8,1.5-6.1,2.9-7.5,5.4
									c-0.9,1.7-0.6,3.7,0,5.8c0.2,0.6,0.5,1.3,1.2,1.5c0.5,0.2,1.1,0,1.6-0.1c0.5-0.1,1.1-0.1,1.5,0.3"/>
							</g>
						</g>
					</g>
				</g>
				<g>
					<g>
						<path fill="#66C6B9" d="M18.3,17.8c0,0,2.1-1.6,3.5-2.2c1.3-0.7,5.4-4.8,6.2-5.8c0.7-1.1,0.2,0.1,0.2,0.1
							c-0.1,0-1.7,2.5-2.4,3.4c-1.2,0.7-1,7.2-0.7,7.2c0,0,2.7,0,3.7-0.9c1.4-1.4,4.8-5.7,5-5.6c0,0-1.2,1.6-2,5
							c-0.4,1.7-1.3,2.9-3.2,3.4c-0.9,0.2-1.9,0.3-2.4,0c0,0-2.5,0.7-4.2,1.1c-0.6,1.4-1.2,2.9-1.8,4.3c-0.8-0.2-1.6-0.4-2.4-0.5
							c0.3-1.7,0.6-3.3,1.1-4.9c0,0-1.8-2.4-1.1-3.1c0,0-3.2-3.6-2.4-6.1c0.4-2.9,7.5-7.8,8.2-7.7c0.6-0.1,0.3-0.2,0.3-0.2
							c0,0-4.1,3.4-4.5,5.1c-0.1-0.1-1.9,3.2-1.6,4.2C17.8,15.6,18.3,17.8,18.3,17.8z"/>
					</g>
				</g>
			</g>
			<g>
				<g>
					<path fill="#66C6B9" d="M16.4,48"/>
					<path fill="#66C6B9" d="M16.4,48l-3-0.1c1.1-13.6,5.8-26.5,6-27.2l2.8,1C22.2,21.9,17.5,34.8,16.4,48z"/>
				</g>
			</g>
		</g>
	</g>
</g>
</svg>
