<?xml version="1.0" encoding="utf-8"?>
<!-- Generator: Adobe Illustrator 18.0.0, SVG Export Plug-In . SVG Version: 6.00 Build 0)  -->
<!DOCTYPE svg PUBLIC "-//W3C//DTD SVG 1.1//EN" "http://www.w3.org/Graphics/SVG/1.1/DTD/svg11.dtd">
<svg version="1.1" id="Layer_1" xmlns="http://www.w3.org/2000/svg" xmlns:xlink="http://www.w3.org/1999/xlink" x="0px" y="0px"
	 viewBox="0 0 48 48" enable-background="new 0 0 48 48" xml:space="preserve">
<g>
	<path fill="#E8EAEA" d="M33.5,48H12c0.4-1.1,1.5-2,3.1-2.8c3.5-1.6,5.8-5.1,5.8-8.9v-2.6h3.7v2.6c0,3.9,2.3,7.3,5.8,8.9
		C32,46,33.1,46.9,33.5,48z"/>
	<path fill="#CDD6E0" d="M24.6,36.3v-2.6h-3.7v2.6c0,3.6-2,6.7-5,8.5c2.2,0.7,4.5,1,6.9,1c2.4,0,4.7-0.4,6.9-1
		C26.6,43,24.6,39.9,24.6,36.3z"/>
	<circle fill="#FF7058" cx="22.8" cy="10.2" r="10.2"/>
	<circle fill="#4CDBC4" cx="13.7" cy="20.6" r="10.2"/>
	<path fill="#3DC9AE" d="M3.5,20.6c0,3.4,1.7,6.4,4.2,8.2h11.9c2.6-1.8,4.2-4.8,4.2-8.2c0-0.7-0.1-1.4-0.2-2.1H3.7
		C3.6,19.2,3.5,19.9,3.5,20.6z"/>
	<circle fill="#FFD15C" cx="31.9" cy="20.6" r="10.2"/>
	<circle fill="#FFD15C" cx="31.9" cy="20.6" r="10.2"/>
	<path fill="#F8B64C" d="M21.7,20.6c0,3.4,1.7,6.4,4.2,8.2h11.9c2.6-1.8,4.2-4.8,4.2-8.2c0-0.7-0.1-1.4-0.2-2.1H21.9
		C21.8,19.2,21.7,19.9,21.7,20.6z"/>
	<path fill="#F2F2F2" d="M1.8,22.6C1.9,34,11.3,43.3,22.8,43.3c11.5,0,20.8-9.3,20.9-20.7H1.8z"/>
	<path fill="#CDD6E0" d="M2.7,28.3h40.1c0.5-1.8,0.9-3.8,0.9-5.8H1.8C1.9,24.6,2.2,26.5,2.7,28.3z"/>
	<path fill="#E8EAEA" d="M42.9,21H2.7C1.2,21,0,22.2,0,23.7l0,0c0,1.5,1.2,2.7,2.7,2.7h40.2c1.5,0,2.7-1.2,2.7-2.7l0,0
		C45.5,22.2,44.3,21,42.9,21z"/>
	<path fill="#FF7058" d="M43.7,4.5c-1.4-0.5-2.7,0-3.4,0.4l-2.4,2.4c0.8-0.4,2-0.9,3.4-0.4c1.2,0.4,2.3,0.1,3-0.3l2.4-2.4
		C46,4.6,44.9,4.9,43.7,4.5z"/>
	<path fill="#FF7058" d="M38.9,9.3c-1.4-0.5-2.7,0-3.4,0.4L33,12.1c0.8-0.4,2-0.9,3.4-0.4c1.2,0.4,2.3,0.1,3-0.3L41.8,9
		C41.1,9.4,40.1,9.8,38.9,9.3z"/>
	<path fill="#F2F2F2" d="M41.3,6.9c-1.4-0.5-2.7,0-3.4,0.4l-2.4,2.4c0.8-0.4,2-0.9,3.4-0.4c1.2,0.4,2.3,0.1,3-0.3l2.4-2.4
		C43.6,7,42.5,7.3,41.3,6.9z"/>
	<g>
		<path fill="#FF7058" d="M37,13.9c-0.7,0.4-1.7,0.7-3,0.3c-0.9-0.3-1.7-0.3-2.4-0.1c0.2,1.3,1.2,2.2,2.5,2.4
			c0.1-0.1,0.3-0.1,0.4-0.2L37,13.9z"/>
	</g>
	<g>
		<path fill="#F2F2F2" d="M31.6,14.1c0.7-0.2,1.5-0.3,2.4,0.1c1.2,0.4,2.3,0.1,3-0.3l2.4-2.4c-0.7,0.4-1.7,0.7-3,0.3
			c-1.4-0.5-2.7,0-3.4,0.4l-1.4,1.4c0,0,0,0,0,0C31.6,13.7,31.6,13.9,31.6,14.1z"/>
	</g>
	<g>
		<path fill="#FFD15C" d="M34.4,16.9c-1.4,0-2.8-0.9-3.3-2.3c-0.4-1.1-0.3-2.2,0.4-3.2l1,0.6c-0.4,0.7-0.5,1.4-0.2,2.1
			c0.5,1.2,1.8,1.9,3.1,1.4c0.4-0.2,0.8-0.4,1-0.8l0.9,0.7c-0.4,0.5-0.9,0.9-1.6,1.2C35.3,16.8,34.8,16.9,34.4,16.9z"/>
	</g>
	<g>
		<path fill="#FF7058" d="M46.1,2c0.4,0.2,0.9,0.2,1.2,0.2L45.1,0l-2.4,2.4C43.5,2,44.7,1.5,46.1,2z"/>
		<path fill="#F2F2F2" d="M46.1,2c-1.4-0.5-2.7,0-3.4,0.4l-2.4,2.4c0.8-0.4,2-0.9,3.4-0.4c1.2,0.4,2.3,0.1,3-0.3L48,2.9l-0.6-0.6
			C47,2.3,46.6,2.2,46.1,2z"/>
	</g>
</g>
</svg>
