<?xml version="1.0" encoding="utf-8"?>
<!-- Generator: Adobe Illustrator 16.0.0, SVG Export Plug-In . SVG Version: 6.00 Build 0)  -->
<!DOCTYPE svg PUBLIC "-//W3C//DTD SVG 1.1//EN" "http://www.w3.org/Graphics/SVG/1.1/DTD/svg11.dtd">
<svg version="1.1" id="Layer_1" xmlns="http://www.w3.org/2000/svg" xmlns:xlink="http://www.w3.org/1999/xlink" x="0px" y="0px"
	 width="48px" height="48px" viewBox="0 0 48 48" enable-background="new 0 0 48 48" xml:space="preserve">
<g>
	<rect x="2.071" y="42.557" fill="#334A5E" width="5.277" height="3.213"/>
	<rect x="40.652" y="42.557" fill="#334A5E" width="5.277" height="3.213"/>
	<rect x="21.361" y="42.557" fill="#334A5E" width="5.277" height="3.213"/>
	<rect y="45.77" fill="#40596B" width="48" height="2.23"/>
	<rect y="40.324" fill="#40596B" width="48" height="2.23"/>
	<path fill="#FFD15C" d="M41.162,0H6.838c-1.656,0-3,1.344-3,3v34.324c0,1.656,1.344,3,3,3h34.324c1.657,0,3-1.344,3-3V3
		C44.162,1.344,42.819,0,41.162,0"/>
	<rect x="19.456" fill="#F8B64C" width="9.089" height="8.016"/>
	<path fill="#F2F2F2" d="M24.783,35.561v-8.445c0-0.42-0.343-0.764-0.764-0.764H8.601c-0.421,0-0.763,0.344-0.763,0.764v8.445
		c0,0.422,0.342,0.764,0.763,0.764H24.02C24.44,36.324,24.783,35.982,24.783,35.561"/>
	<rect x="8.855" y="27.371" fill="#40596B" width="0.825" height="7.936"/>
	<rect x="22.94" y="27.371" fill="#40596B" width="0.825" height="7.936"/>
	<rect x="10.56" y="27.371" fill="#40596B" width="0.233" height="7.936"/>
	<rect x="11.741" y="27.371" fill="#40596B" width="0.688" height="7.936"/>
	<rect x="15.966" y="27.371" fill="#40596B" width="0.688" height="7.936"/>
	<rect x="21.601" y="27.371" fill="#40596B" width="0.688" height="7.936"/>
	<rect x="20.364" y="27.371" fill="#40596B" width="0.344" height="7.936"/>
	<rect x="17.547" y="27.371" fill="#40596B" width="0.345" height="7.936"/>
	<rect x="14.489" y="27.371" fill="#40596B" width="0.825" height="7.936"/>
	<rect x="18.804" y="27.371" fill="#40596B" width="0.647" height="7.936"/>
	<rect x="13.081" y="27.371" fill="#40596B" width="0.825" height="7.936"/>
	<rect x="27.946" y="35.375" fill="#FF7058" width="12.216" height="0.949"/>
	<polygon fill="#FF7058" points="29.825,34.236 32.281,34.236 32.281,29.006 33.739,29.006 31.053,26.32 28.367,29.006 
		29.825,29.006 	"/>
	<polygon fill="#FF7058" points="35.827,34.236 38.283,34.236 38.283,29.006 39.741,29.006 37.055,26.32 34.369,29.006 
		35.827,29.006 	"/>
</g>
</svg>
