<?xml version="1.0" encoding="utf-8"?>
<!-- Generator: Adobe Illustrator 20.1.0, SVG Export Plug-In . SVG Version: 6.00 Build 0)  -->
<!DOCTYPE svg PUBLIC "-//W3C//DTD SVG 1.1//EN" "http://www.w3.org/Graphics/SVG/1.1/DTD/svg11.dtd">
<svg version="1.1" id="Layer_1" xmlns="http://www.w3.org/2000/svg" xmlns:xlink="http://www.w3.org/1999/xlink" x="0px" y="0px"
	 viewBox="0 0 49 49" enable-background="new 0 0 49 49" xml:space="preserve">
<g>
	<path fill="#F2F2F2" d="M46.9,33.9H2.1c-0.9,0-1.6,0.7-1.6,1.6v0.1c0,0.9,0.7,1.6,1.6,1.6h44.9c0.9,0,1.6-0.7,1.6-1.6v-0.1
		C48.5,34.6,47.8,33.9,46.9,33.9z"/>
	<path fill="#CDD6E0" d="M44.6,37.1l-2.1,1.5l-1.4,1c-0.4,0.2-0.8,0.4-1.2,0.4H9.1c-0.4,0-0.9-0.1-1.2-0.4l-1.4-1l-2.1-1.5H44.6z"/>
	<polygon fill="#B8CAD8" points="44.6,37.1 42.5,38.7 6.5,38.7 4.4,37.1 	"/>
	<path fill="#40596B" d="M44.4,4.4H4.6c-1.1,0-2,0.9-2,2v27.5h43.9V6.4C46.4,5.3,45.5,4.4,44.4,4.4z"/>
	
		<rect x="12.3" y="-0.2" transform="matrix(-1.836970e-16 1 -1 -1.836970e-16 43.6491 -5.351)" fill="#84DBFF" width="24.4" height="38.7"/>
	<path fill="#B8CAD8" d="M26,35.1h-3c-0.3,0-0.5,0.2-0.5,0.5c0,0.3,0.2,0.5,0.5,0.5h3c0.3,0,0.5-0.2,0.5-0.5
		C26.4,35.3,26.2,35.1,26,35.1z"/>
	<path fill="#334A5E" d="M46.5,13.8H30.2c-1.1,0-2,0.9-2,2v26.8c0,1.1,0.9,2,2,2h16.3c1.1,0,2-0.9,2-2V15.8
		C48.5,14.7,47.6,13.8,46.5,13.8z"/>
	
		<rect x="27.2" y="20.1" transform="matrix(-1.836970e-16 1 -1 -1.836970e-16 67.0179 -9.6892)" fill="#F2F2F2" width="22.4" height="17.1"/>
	<g>
		<path fill="#4CDBC4" d="M39.7,41.5h-3.1c-0.4,0-0.7,0.3-0.7,0.7c0,0.4,0.3,0.7,0.7,0.7h3.1c0.4,0,0.7-0.3,0.7-0.7
			C40.5,41.8,40.1,41.5,39.7,41.5z"/>
		<path fill="#4CDBC4" d="M40.9,15.4h-5.1c-0.2,0-0.3,0.1-0.3,0.3c0,0.2,0.1,0.3,0.3,0.3h5.1c0.2,0,0.3-0.1,0.3-0.3
			C41.2,15.5,41.1,15.4,40.9,15.4z"/>
	</g>
	<polygon fill="#FF7058" points="30.9,18.4 25.6,18.4 25.6,16.6 21.2,20.3 25.6,24.1 25.6,22.3 30.9,22.3 	"/>
	<polygon fill="#FFD15C" points="27.1,27.4 32.5,27.4 32.5,29.2 36.9,25.5 32.5,21.7 32.5,23.5 27.1,23.5 	"/>
</g>
</svg>
