<?xml version="1.0" encoding="utf-8"?>
<!-- Generator: Adobe Illustrator 18.0.0, SVG Export Plug-In . SVG Version: 6.00 Build 0)  -->
<!DOCTYPE svg PUBLIC "-//W3C//DTD SVG 1.1//EN" "http://www.w3.org/Graphics/SVG/1.1/DTD/svg11.dtd">
<svg version="1.1" id="Layer_1" xmlns="http://www.w3.org/2000/svg" xmlns:xlink="http://www.w3.org/1999/xlink" x="0px" y="0px"
	 viewBox="0 0 48 48" enable-background="new 0 0 48 48" xml:space="preserve">
<g>
	<path fill="#40596B" d="M36.9,22.5H11.1C5,22.5,0,27.4,0,33.6s5,11.1,11.1,11.1c4.5,0,8.3-2.7,10.1-6.5h5.6
		c1.8,3.8,5.6,6.5,10.1,6.5c6.1,0,11.1-5,11.1-11.1S43,22.5,36.9,22.5z"/>
	<path fill="#ACB3BA" d="M25.1,20.4h-2.2v-16c0-0.6,0.5-1.1,1.1-1.1l0,0c0.6,0,1.1,0.5,1.1,1.1V20.4z"/>
	<path fill="#ACB3BA" d="M27.7,22.5h-7.3l0,0c0-1.1,0.9-2.1,2.1-2.1h3.2C26.7,20.4,27.7,21.3,27.7,22.5L27.7,22.5z"/>
	<g>
		<path fill="#CDD6E0" d="M17.3,31.2H15V29c0-1.3-1.1-2.4-2.4-2.4h0c-1.3,0-2.4,1.1-2.4,2.4v2.2H8c-1.3,0-2.4,1.1-2.4,2.4l0,0
			C5.6,34.9,6.7,36,8,36h2.2v2.2c0,1.3,1.1,2.4,2.4,2.4h0c1.3,0,2.4-1.1,2.4-2.4V36h2.2c1.3,0,2.4-1.1,2.4-2.4l0,0
			C19.6,32.3,18.6,31.2,17.3,31.2z"/>
		<g>
			<path fill="#CDD6E0" d="M35.3,40.6h0.2c1.3,0,2.3-1,2.3-2.3l0,0c0-1.3-1-2.3-2.3-2.3h-0.2C34,36,33,37,33,38.3l0,0
				C33,39.5,34,40.6,35.3,40.6z"/>
			<path fill="#CDD6E0" d="M35.4,26.6h-0.2c-1.3,0-2.3,1-2.3,2.3l0,0c0,1.3,1,2.3,2.3,2.3h0.2c1.3,0,2.3-1,2.3-2.3l0,0
				C37.7,27.6,36.7,26.6,35.4,26.6z"/>
			<path fill="#CDD6E0" d="M28.4,33.5v0.2c0,1.3,1,2.3,2.3,2.3l0,0c1.3,0,2.3-1,2.3-2.3v-0.2c0-1.3-1-2.3-2.3-2.3l0,0
				C29.4,31.2,28.4,32.2,28.4,33.5z"/>
			<path fill="#CDD6E0" d="M40,31.2L40,31.2c-1.3,0-2.3,1-2.3,2.3v0.2c0,1.3,1,2.3,2.3,2.3l0,0c1.3,0,2.3-1,2.3-2.3v-0.2
				C42.4,32.2,41.3,31.2,40,31.2z"/>
		</g>
	</g>
</g>
</svg>
