<?xml version="1.0" encoding="utf-8"?>
<!-- Generator: Adobe Illustrator 18.0.0, SVG Export Plug-In . SVG Version: 6.00 Build 0)  -->
<!DOCTYPE svg PUBLIC "-//W3C//DTD SVG 1.1//EN" "http://www.w3.org/Graphics/SVG/1.1/DTD/svg11.dtd">
<svg version="1.1" id="Layer_1" xmlns="http://www.w3.org/2000/svg" xmlns:xlink="http://www.w3.org/1999/xlink" x="0px" y="0px"
	 viewBox="0 0 48 48" enable-background="new 0 0 48 48" xml:space="preserve">
<g>
	<g>
		<g>
			<g>
				
					<ellipse transform="matrix(0.9947 0.1029 -0.1029 0.9947 1.5988 -2.5378)" fill="#FFD15C" cx="25.4" cy="14.2" rx="1.6" ry="2.7"/>
			</g>
			<g>
				
					<ellipse transform="matrix(-0.9947 0.1029 -0.1029 -0.9947 22.332 27.2951)" fill="#FFD15C" cx="10.5" cy="14.2" rx="1.6" ry="2.7"/>
			</g>
			<g>
				<path fill="#344A5E" d="M25.8,12.7H10.1C8.1,4.1,11.9,0,17.9,0C24,0,27.7,4.1,25.8,12.7z"/>
			</g>
			<g>
				<path fill="#55C0EB" d="M35.8,44.4H0l0.4-13.3c0.1-2.3,1.7-4.3,4.2-5l6.1-1.8h14.5l6.1,1.8c2.5,0.7,4.1,2.7,4.2,5L35.8,44.4z"/>
			</g>
			<g>
				<g>
					<path fill="#F7B64C" d="M13.3,16.6v5.2c1.4,2.9,3,4.4,4.6,6c1.6-1.6,3.2-3.1,4.6-6v-5.2H13.3z"/>
				</g>
			</g>
			<g>
				<polygon fill="#FFFFFF" points="17.9,44.4 14.5,35.2 14,26.8 21.7,26.8 21.2,35.2 				"/>
			</g>
			<g>
				<g>
					<polygon fill="#F3705A" points="19.1,30.6 20.3,29 17.9,26.8 15.4,29 16.6,30.6 					"/>
				</g>
				<g>
					<polygon fill="#F3705A" points="16.6,30.6 15.1,39 17.9,44.4 20.6,39 19.1,30.6 					"/>
				</g>
			</g>
			<g>
				<g>
					<polygon fill="#F3F3F3" points="22.5,21.1 17.9,26.8 21.2,29.8 24,23.8 					"/>
				</g>
				<g>
					<polygon fill="#F3F3F3" points="13.3,21.1 17.9,26.8 14.6,29.8 11.8,23.8 					"/>
				</g>
			</g>
			<g>
				<g>
					<polygon fill="#8AD7F8" points="23.2,22.3 28.5,27.8 23.6,28.8 26.4,31.3 17.9,44.4 					"/>
				</g>
				<g>
					<polygon fill="#8AD7F8" points="12.7,22.3 7.3,27.8 12.2,28.8 9.4,31.3 17.9,44.4 					"/>
				</g>
			</g>
			<path fill="#FFD15C" d="M21.9,4.5c-2,2.3-5.1,3.8-9,3.8c-0.5,0-1,0-1.5-0.1c-0.5,1.3-0.8,2.9-0.8,4.5c0,5.4,3.3,9.7,7.4,9.7
				s7.4-4.4,7.4-9.7C25.3,9.3,23.9,6.3,21.9,4.5z"/>
		</g>
		<g>
			<g>
				<g>
					
						<rect x="38.1" y="37.4" transform="matrix(0.7071 0.7071 -0.7071 0.7071 39.5601 -16.3882)" fill="#344A5E" width="2.9" height="4.4"/>
				</g>
			</g>
			<circle fill="#F3F3F3" cx="31" cy="31" r="10"/>
			<path fill="#415A6B" d="M39.1,39.1c-4.4,4.4-11.7,4.4-16.1,0c-4.4-4.4-4.4-11.7,0-16.1c4.4-4.4,11.7-4.4,16.1,0
				C43.5,27.4,43.5,34.6,39.1,39.1z M24.9,24.9c-3.4,3.4-3.4,8.9,0,12.3c3.4,3.4,8.9,3.4,12.3,0c3.4-3.4,3.4-8.9,0-12.3
				C33.8,21.5,28.3,21.5,24.9,24.9z"/>
			<g>
				<g>
					<g>
						<path fill="#F3705A" d="M44.2,39.3l2.8,2.8c1.4,1.4,1.4,3.6,0,4.9c-1.4,1.4-3.6,1.4-4.9,0l-2.8-2.8L44.2,39.3z"/>
					</g>
				</g>
				<g>
					<g>
						<path fill="#FFD15C" d="M44.2,39.3l-1-1c-0.3-0.3-0.7-0.3-1,0l-4,4c-0.3,0.3-0.3,0.7,0,1l1,1L44.2,39.3z"/>
					</g>
				</g>
			</g>
		</g>
	</g>
</g>
</svg>
