<?xml version="1.0" encoding="utf-8"?>
<!-- Generator: Adobe Illustrator 18.0.0, SVG Export Plug-In . SVG Version: 6.00 Build 0)  -->
<!DOCTYPE svg PUBLIC "-//W3C//DTD SVG 1.1//EN" "http://www.w3.org/Graphics/SVG/1.1/DTD/svg11.dtd">
<svg version="1.1" id="Layer_1" xmlns="http://www.w3.org/2000/svg" xmlns:xlink="http://www.w3.org/1999/xlink" x="0px" y="0px"
	 viewBox="0 0 48 48" enable-background="new 0 0 48 48" xml:space="preserve">
<g>
	<g>
		<g>
			<g>
				<g>
					<path fill="#415A6B" d="M17.6,36.4v-1.2c-1.4-0.2-2.7-0.8-3.8-1.9l1.5-1.9c0.9,0.7,1.6,1.2,2.3,1.4v-2.4
						c-1.1-0.3-2-0.7-2.5-1.2c-0.5-0.5-0.8-1.2-0.8-2.1c0-0.9,0.3-1.7,0.9-2.3c0.6-0.6,1.4-1,2.4-1.1v-0.8h1.7v0.8
						c1.1,0.2,2.2,0.6,3.3,1.4l-1.3,1.9c-0.7-0.5-1.3-0.8-1.9-1v2.4c1.2,0.3,2.1,0.7,2.6,1.2c0.6,0.5,0.8,1.2,0.8,2.2
						c0,0.9-0.3,1.7-0.9,2.3c-0.6,0.6-1.5,1-2.5,1.1v1.1H17.6z M17.6,26c-0.5,0.2-0.7,0.5-0.7,0.9c0,0.4,0.2,0.8,0.7,1V26z M20.2,32
						c0-0.2-0.1-0.4-0.2-0.6c-0.1-0.2-0.3-0.3-0.7-0.4v2C19.9,32.8,20.2,32.5,20.2,32z"/>
				</g>
			</g>
			<path fill="#8AD7F8" d="M36.6,25.2l-1.8-4.6l-4,0.2c-0.9-1.3-2-2.4-3.1-3.3l0.4-4l-4.5-2l-2.7,3c-1.5-0.3-3-0.3-4.5-0.1l-2.6-3.1
				l-4.6,1.8l0.2,4.1c-1.3,0.9-2.3,1.9-3.3,3.1l-4-0.4l-2,4.5l3,2.7c-0.3,1.5-0.3,3-0.1,4.5L0,34.2l1.8,4.6l4-0.2
				c0.9,1.3,2,2.4,3.1,3.3l-0.4,4l4.5,2l2.7-3c1.5,0.3,3,0.3,4.5,0.1l2.6,3.1l4.6-1.8l-0.2-4c1.3-0.9,2.4-2,3.3-3.1l4,0.4l2-4.5
				l-3-2.7c0.3-1.5,0.3-3,0.1-4.5L36.6,25.2z M21.8,38.7c-5,1.9-10.6-0.5-12.5-5.5s0.5-10.5,5.5-12.5c5-1.9,10.5,0.5,12.5,5.5
				S26.8,36.7,21.8,38.7z"/>
		</g>
		<g>
			<path fill="#F3705A" d="M48,11.8l0-2.7l-2.2-0.7c-0.2-0.8-0.5-1.6-1-2.3l1-2L44,2.1l-2,1c-0.7-0.4-1.5-0.8-2.3-1L38.9,0h-2.7
				l-0.7,2.2c-0.8,0.2-1.6,0.5-2.3,1l-2-1L29.2,4l1,2c-0.4,0.7-0.8,1.5-1,2.3l-2.2,0.7v2.7l2.2,0.7c0.2,0.8,0.5,1.6,1,2.3l-1,2
				l1.9,1.9l2-1c0.7,0.4,1.5,0.8,2.3,1l0.7,2.2h2.7l0.7-2.2c0.8-0.2,1.6-0.5,2.3-1l2,1l1.9-1.9l-1-2c0.4-0.7,0.8-1.5,1-2.3L48,11.8z
				 M37.6,13.9c-1.9,0-3.5-1.6-3.5-3.5S35.6,7,37.6,7c1.9,0,3.5,1.6,3.5,3.5S39.5,13.9,37.6,13.9z"/>
		</g>
	</g>
</g>
</svg>
