<?xml version="1.0" encoding="utf-8"?>
<!-- Generator: Adobe Illustrator 19.0.1, SVG Export Plug-In . SVG Version: 6.00 Build 0)  -->
<svg version="1.1" id="Layer_1" xmlns="http://www.w3.org/2000/svg" xmlns:xlink="http://www.w3.org/1999/xlink" x="0px" y="0px"
	 viewBox="0 0 48 48" style="enable-background:new 0 0 48 48;" xml:space="preserve">
<style type="text/css">
	.st0{fill:#415A6B;}
	.st1{fill:#ADB3BA;}
	.st2{fill:#E8EAE9;}
	.st3{fill:#55C0EB;}
	.st4{fill:#F3705A;}
	.st5{fill:#FFFFFF;}
	.st6{fill:#FFD15C;}
	.st7{fill:#344A5E;}
	.st8{fill:#CED6E0;}
	.st9{fill:#F05540;}
	.st10{fill:#F7B64C;}
	.st11{fill:#F3F3F3;}
	.st12{fill:#66C6B9;}
	.st13{fill:#4ABAA5;}
	.st14{fill:#8AD7F8;}
	.st15{fill:none;}
	.st16{fill:#E53D35;}
</style>
<g>
	<g>
		<g>
			<path class="st2" d="M33,48H9.4L0,38.6V3c0-1.7,1.3-3,3-3h30c1.7,0,3,1.3,3,3v42C36,46.7,34.7,48,33,48z"/>
			<g>
				<rect x="14.4" y="41.1" class="st8" width="16.9" height="2.9"/>
			</g>
			<g>
				<rect x="4.8" y="32.8" class="st8" width="26.4" height="2.9"/>
			</g>
			<g>
				<rect x="4.8" y="24.4" class="st8" width="26.4" height="2.9"/>
			</g>
			<g>
				<g>
					<rect x="20.5" y="16" class="st8" width="10.8" height="2.9"/>
				</g>
				<g>
					<rect x="20.5" y="7.6" class="st12" width="10.8" height="2.9"/>
				</g>
			</g>
			<g>
				<path class="st1" d="M9.4,48v-6.4c0-1.7-1.3-3-3-3H0L9.4,48z"/>
			</g>
			<g>
				<circle class="st0" cx="11.2" cy="8" r="3.3"/>
			</g>
			<g>
				<path class="st0" d="M17.5,18.9H4.8c0-3.5,2.8-6.4,6.4-6.4C14.7,12.5,17.5,15.4,17.5,18.9z"/>
			</g>
		</g>
		<g>
			<g>
				<g>
					<g>
						<path class="st0" d="M35,10.3c0.3,0.2,0.7,0.1,0.9-0.2c1.5-2.1,2.9-5.5,3.6-7.4c0.1-0.2,0.3-0.3,0.4-0.4
							c0.2-0.1,0.4,0,0.6,0.1l1.7,1.1c0.3,0.2,0.7,0.1,0.9-0.2c0.2-0.3,0.1-0.7-0.2-0.9l-1.7-1.1c-0.5-0.3-1.1-0.4-1.7-0.2
							c-0.6,0.2-1,0.6-1.2,1.2c-0.7,1.8-2.1,5.2-3.5,7.1C34.6,9.7,34.7,10.1,35,10.3C35,10.3,35,10.3,35,10.3z"/>
					</g>
				</g>
				<g>
					<g>
						<path class="st4" d="M30.2,29.8c2.3-2.2,4.3-4.6,5.9-7.3l6.7-10.7L38,8.7l-6.7,10.7c-1.7,2.7-3,5.5-4,8.5L30.2,29.8z"/>
					</g>
				</g>
				<g>
					<g>
						<path class="st0" d="M27.6,26.8c-0.1,0.4-0.3,0.7-0.4,1.1l3,1.9c0.3-0.3,0.5-0.6,0.8-0.8L27.6,26.8z"/>
					</g>
				</g>
				<g>
					<g>
						<path class="st4" d="M42.6,1.4L38,8.7l4.9,3.1l4.6-7.4c0.9-1.4,0.4-3.1-0.9-4l0,0C45.3-0.4,43.5,0,42.6,1.4z"/>
					</g>
				</g>
				<g>
					<g>
						
							<rect x="39.7" y="7.4" transform="matrix(0.5328 -0.8462 0.8462 0.5328 10.2099 39.0358)" class="st0" width="1.4" height="5.8"/>
					</g>
				</g>
			</g>
			<g>
				<g>
					<polygon class="st10" points="27.5,28.1 25.7,29.7 25.2,34.5 29.3,32 29.9,29.7 					"/>
				</g>
				<g>
					<circle class="st5" cx="27.5" cy="30.8" r="0.4"/>
				</g>
			</g>
		</g>
	</g>
</g>
</svg>
