<?xml version="1.0" encoding="utf-8"?>
<!-- Generator: Adobe Illustrator 18.0.0, SVG Export Plug-In . SVG Version: 6.00 Build 0)  -->
<!DOCTYPE svg PUBLIC "-//W3C//DTD SVG 1.1//EN" "http://www.w3.org/Graphics/SVG/1.1/DTD/svg11.dtd">
<svg version="1.1" id="Layer_1" xmlns="http://www.w3.org/2000/svg" xmlns:xlink="http://www.w3.org/1999/xlink" x="0px" y="0px"
	 viewBox="0 0 48 48" enable-background="new 0 0 48 48" xml:space="preserve">
<g>
	<g>
		<path fill="#F3F3F3" d="M44.9,14.4c-0.7-1.4-2.1-2.2-3.6-2.2H6.7c-1.5,0-3,0.9-3.6,2.2C-1,23.3-1,34.7,3.1,43.6
			c0.7,1.4,2.1,2.2,3.6,2.2h34.5c1.5,0,3-0.9,3.6-2.2C49,34.7,49,23.3,44.9,14.4z"/>
		<g>
			<path fill="#4EC0AA" d="M47.2,20.8H0.8c-1.1,5-1.1,11.5,0,16.5h46.3C48.3,32.3,48.3,25.8,47.2,20.8z"/>
		</g>
		<g>
			<rect x="9.2" y="7" fill="#CED6E0" width="29.5" height="5.2"/>
		</g>
		<g>
			<path fill="#415A6B" d="M38.4,2.1H9.6c-1.7,0-3.1,1.4-3.1,3.1v5.1h35V5.2C41.5,3.5,40.1,2.1,38.4,2.1z"/>
		</g>
		<g>
			<path fill="#FFFFFF" d="M5.1,32.6v-7h1.6v5.6h3v1.4H5.1z"/>
			<path fill="#FFFFFF" d="M16.5,31.6c-0.7,0.7-1.6,1-2.6,1s-1.9-0.3-2.6-1c-0.7-0.7-1.1-1.6-1.1-2.6c0-1,0.4-1.9,1.1-2.6
				c0.7-0.7,1.6-1,2.6-1s1.9,0.3,2.6,1c0.7,0.7,1.1,1.6,1.1,2.6C17.6,30.1,17.2,30.9,16.5,31.6z M16,29c0-0.6-0.2-1.2-0.6-1.6
				c-0.4-0.4-0.9-0.7-1.5-0.7c-0.6,0-1.1,0.2-1.5,0.7c-0.4,0.4-0.6,1-0.6,1.6s0.2,1.2,0.6,1.6c0.4,0.4,0.9,0.7,1.5,0.7
				c0.6,0,1.1-0.2,1.5-0.7C15.8,30.2,16,29.7,16,29z"/>
			<path fill="#FFFFFF" d="M21.7,26.9v5.7h-1.6v-5.7h-2v-1.4h5.6v1.4H21.7z"/>
			<path fill="#FFFFFF" d="M24.8,25.6h1.6v7h-1.6V25.6z"/>
			<path fill="#FFFFFF" d="M34,31.6c-0.7,0.7-1.6,1-2.6,1c-1,0-1.9-0.3-2.6-1c-0.7-0.7-1.1-1.6-1.1-2.6c0-1,0.4-1.9,1.1-2.6
				c0.7-0.7,1.6-1,2.6-1c1,0,1.9,0.3,2.6,1s1.1,1.6,1.1,2.6C35.1,30.1,34.8,30.9,34,31.6z M33.5,29c0-0.6-0.2-1.2-0.6-1.6
				c-0.4-0.4-0.9-0.7-1.5-0.7s-1.1,0.2-1.5,0.7c-0.4,0.4-0.6,1-0.6,1.6s0.2,1.2,0.6,1.6c0.4,0.4,0.9,0.7,1.5,0.7s1.1-0.2,1.5-0.7
				C33.3,30.2,33.5,29.7,33.5,29z"/>
			<path fill="#FFFFFF" d="M41.3,25.6h1.6v7h-1.6L38,28.2v4.4h-1.6v-7h1.5l3.4,4.5V25.6z"/>
		</g>
	</g>
</g>
</svg>
