<?xml version="1.0" encoding="utf-8"?>
<!-- Generator: Adobe Illustrator 18.0.0, SVG Export Plug-In . SVG Version: 6.00 Build 0)  -->
<!DOCTYPE svg PUBLIC "-//W3C//DTD SVG 1.1//EN" "http://www.w3.org/Graphics/SVG/1.1/DTD/svg11.dtd">
<svg version="1.1" id="Layer_1" xmlns="http://www.w3.org/2000/svg" xmlns:xlink="http://www.w3.org/1999/xlink" x="0px" y="0px"
	 viewBox="0 0 48 48" enable-background="new 0 0 48 48" xml:space="preserve">
<g>
	<path fill="#F2F2F2" d="M34.8,0H6.9c-1.1,0-2,0.9-2,2v44c0,1.1,0.9,2,2,2h34.2c1.1,0,2-0.9,2-2V8.3L34.8,0z"/>
	<path fill="#4CDBC4" d="M34.8,6.4c0,1,0.8,1.8,1.8,1.8h6.4L34.8,0V6.4z"/>
	<rect x="8" y="8.2" fill="#FFD15C" width="7.1" height="7.1"/>
	<rect x="8" y="17.5" fill="#FFD15C" width="7.1" height="7.1"/>
	<rect x="8" y="26.7" fill="#FFD15C" width="7.1" height="7.1"/>
	<rect x="19.6" y="10.8" fill="#CDD6E0" width="20.4" height="1.9"/>
	<rect x="19.6" y="20" fill="#CDD6E0" width="20.4" height="1.9"/>
	<rect x="19.6" y="29.3" fill="#CDD6E0" width="20.4" height="1.9"/>
	<rect x="8" y="36" fill="#FFD15C" width="7.1" height="7.1"/>
	<rect x="19.6" y="38.6" fill="#CDD6E0" width="20.4" height="1.9"/>
	<polygon fill="#FFFFFF" points="10.7,13.8 9.1,12.1 9.8,11.4 10.7,12.3 13.4,9.7 14.1,10.4 	"/>
	<polygon fill="#FFFFFF" points="10.7,23.1 9.1,21.4 9.8,20.7 10.7,21.6 13.4,18.9 14.1,19.7 	"/>
</g>
</svg>
