<?xml version="1.0" encoding="utf-8"?>
<!-- Generator: Adobe Illustrator 20.1.0, SVG Export Plug-In . SVG Version: 6.00 Build 0)  -->
<!DOCTYPE svg PUBLIC "-//W3C//DTD SVG 1.1//EN" "http://www.w3.org/Graphics/SVG/1.1/DTD/svg11.dtd">
<svg version="1.1" id="Layer_1" xmlns="http://www.w3.org/2000/svg" xmlns:xlink="http://www.w3.org/1999/xlink" x="0px" y="0px"
	 viewBox="0 0 49 49" enable-background="new 0 0 49 49" xml:space="preserve">
<g>
	<path fill="#FFD15C" d="M43.6,48.5H5.4c-1.1,0-2-0.9-2-2V14h42.2v32.5C45.6,47.6,44.7,48.5,43.6,48.5z"/>
	<path fill="#FF7058" d="M17.8,48.5V36.8c0-3.7,3-6.7,6.7-6.7l0,0c3.7,0,6.7,3,6.7,6.7v11.7H17.8z"/>
	<rect x="3.4" y="14" fill="#F8B64C" width="42.2" height="1.5"/>
	<path fill="#CDD6E0" d="M46.2,9.5H2.8c-1.3,0-2.3,1-2.3,2.3l0,0c0,1.3,1,2.3,2.3,2.3h43.5c1.3,0,2.3-1,2.3-2.3l0,0
		C48.5,10.5,47.5,9.5,46.2,9.5z"/>
	<path fill="#40596B" d="M24.5,0.5l-21.9,9c0,0,0.1,0,0.1,0h43.5c0,0,0.1,0,0.1,0L24.5,0.5z"/>
	<g>
		<rect x="37.3" y="36.7" fill="#F2F2F2" width="5.1" height="5.1"/>
		<rect x="6.6" y="36.7" fill="#F2F2F2" width="5.1" height="5.1"/>
	</g>
	<rect x="37.3" y="19.9" fill="#F2F2F2" width="5.1" height="5.1"/>
	<rect x="21.9" y="19.9" fill="#F2F2F2" width="5.1" height="5.1"/>
	<rect x="6.6" y="19.9" fill="#F2F2F2" width="5.1" height="5.1"/>
</g>
</svg>
