<?xml version="1.0" encoding="utf-8"?>
<!-- Generator: Adobe Illustrator 18.0.0, SVG Export Plug-In . SVG Version: 6.00 Build 0)  -->
<!DOCTYPE svg PUBLIC "-//W3C//DTD SVG 1.1//EN" "http://www.w3.org/Graphics/SVG/1.1/DTD/svg11.dtd">
<svg version="1.1" id="Layer_1" xmlns="http://www.w3.org/2000/svg" xmlns:xlink="http://www.w3.org/1999/xlink" x="0px" y="0px"
	 viewBox="0 0 48 48" enable-background="new 0 0 48 48" xml:space="preserve">
<g>
	<g>
		<path fill="#FFD15D" d="M33,9l-7.6-8.4c-0.7-0.8-2-0.8-2.7,0L15,9c-1.1,1.2-0.2,3.1,1.4,3.1h15.2C33.2,12.1,34,10.2,33,9z"/>
		<path fill="#F3705B" d="M9,15l-8.4,7.6c-0.8,0.7-0.8,2,0,2.7L9,33c1.2,1.1,3.1,0.2,3.1-1.4V16.4C12.1,14.8,10.2,14,9,15z"/>
		<path fill="#FFD15D" d="M31.6,35.9H16.4c-1.6,0-2.4,1.9-1.4,3.1l7.6,8.4c0.7,0.8,2,0.8,2.7,0L33,39C34,37.8,33.2,35.9,31.6,35.9z"
			/>
		<path fill="#F3705B" d="M47.4,22.6L39,15c-1.2-1.1-3.1-0.2-3.1,1.4v15.2c0,1.6,1.9,2.4,3.1,1.4l8.4-7.6
			C48.2,24.6,48.2,23.4,47.4,22.6z"/>
		<circle fill="#435B6C" cx="24" cy="24" r="8.7"/>
	</g>
</g>
</svg>
