<?xml version="1.0" encoding="utf-8"?>
<!-- Generator: Adobe Illustrator 18.0.0, SVG Export Plug-In . SVG Version: 6.00 Build 0)  -->
<!DOCTYPE svg PUBLIC "-//W3C//DTD SVG 1.1//EN" "http://www.w3.org/Graphics/SVG/1.1/DTD/svg11.dtd">
<svg version="1.1" id="Layer_1" xmlns="http://www.w3.org/2000/svg" xmlns:xlink="http://www.w3.org/1999/xlink" x="0px" y="0px"
	 viewBox="0 0 48 48" enable-background="new 0 0 48 48" xml:space="preserve">
<g>
	<g>
		<g>
			<path fill="#4ABAA5" d="M33.6,12.5H14.4L16.9,2c0.3-1.3,1.9-2.2,3.2-2l0,0c2.5,0.4,5.2,0.4,7.7,0l0,0c1.3-0.2,2.9,0.7,3.2,2
				L33.6,12.5z"/>
		</g>
		<g>
			<path fill="#66C6B9" d="M37.1,14.2c0,3.7-5.9,6.7-13.1,6.7c-7.2,0-13.1-3-13.1-6.7c0-3.7,5.9-6.7,13.1-6.7
				C31.2,7.5,37.1,10.5,37.1,14.2z"/>
		</g>
		<g>
			<path fill="#415A6B" d="M15,11.3c0,0.2,0,0.4,0,0.7c0,7.9,4,8.1,9,8.1c5,0,9-0.2,9-8.1c0-0.2,0-0.4,0-0.7H15z"/>
		</g>
		<g>
			<g>
				<path fill="#F7B64C" d="M43.7,48V36.7c0-2.8-1.7-5.3-4.3-6.3c-2.9-1.1-6-1.9-9-2.4C29,27.8,28,26.7,28,25.3v-5.9h-8v5.9
					c0,1.4-1,2.5-2.4,2.7c-3.1,0.5-6.1,1.2-9,2.4c-2.6,1-4.3,3.5-4.3,6.3V48H43.7z"/>
			</g>
		</g>
		<g>
			<g>
				<path fill="#F3705A" d="M43.7,48V36.7c0-2.8-1.7-5.3-4.3-6.3c-2.4-0.9-4.9-1.6-7.5-2.1C30,32,24,34.7,24,34.7S18,32,16.1,28.3
					c-2.5,0.5-5,1.2-7.5,2.1c-2.6,1-4.3,3.5-4.3,6.3V48H43.7z"/>
			</g>
		</g>
		<g>
			<path fill="#FFD15C" d="M28.7,11.7c-2.2,0-3.9-0.9-5.1-2.4c-1.2,2-3.2,3.4-5.9,3.4c-0.3,0-0.5,0-0.7,0c-0.2,1-0.4,2-0.4,3.1
				C16.3,22,19.7,27.2,24,27.2c4.3,0,7.7-5.3,7.5-11.4c-0.1-1.6-0.3-3.1-0.8-4.4C30.1,11.6,29.4,11.7,28.7,11.7z"/>
		</g>
		<g>
			<path fill="#66C6B9" d="M37.1,14.2c-8-3-16.8-2.6-26.2,0c0-3.7,5.9-6.7,13.1-6.7C31.2,7.5,37.1,10.5,37.1,14.2z"/>
		</g>
		<g>
			<path fill="#66C6B9" d="M33.8,14.2c-5.5-2.5-12.9-2.1-19.7,0C12.6,11,16.8,7.5,24,7.5C31.2,7.5,35.4,11,33.8,14.2z"/>
		</g>
		<g>
			<g>
				<path fill="#415A6B" d="M10.9,48h26.1v-6.5c-0.1-3.8,0.8-7.6,2.5-11c-0.1,0-0.2-0.1-0.2-0.1c-0.6-0.2-1.2-0.5-1.9-0.7
					c-1.8,3.6-2.8,7.7-2.7,11.7H13.2c0.1-4.1-0.9-8.1-2.7-11.7c-0.6,0.2-1.3,0.4-1.9,0.7c-0.1,0-0.2,0.1-0.2,0.1
					c1.7,3.4,2.6,7.1,2.5,11V48z"/>
			</g>
		</g>
	</g>
</g>
</svg>
