<?xml version="1.0" encoding="utf-8"?>
<!-- Generator: Adobe Illustrator 18.0.0, SVG Export Plug-In . SVG Version: 6.00 Build 0)  -->
<!DOCTYPE svg PUBLIC "-//W3C//DTD SVG 1.1//EN" "http://www.w3.org/Graphics/SVG/1.1/DTD/svg11.dtd">
<svg version="1.1" id="Layer_1" xmlns="http://www.w3.org/2000/svg" xmlns:xlink="http://www.w3.org/1999/xlink" x="0px" y="0px"
	 viewBox="0 0 512 512" enable-background="new 0 0 512 512" xml:space="preserve">
<g>
	<path fill="#FF7058" d="M476.1,200.7H35.9C17.2,200.7,2,216,2,234.7V476c0,18.8,15.2,34,33.9,34h440.3c18.7,0,33.9-15.2,33.9-34
		V234.7C510,216,494.8,200.7,476.1,200.7z"/>
	<path fill="#FFD15C" d="M313.3,33.3C298.9,13.4,278,2,256,2s-42.9,11.4-57.3,31.3L66.4,200.7H106L220.5,55.8l0.4-0.5
		C229.8,43,242.6,36,256,36s26.2,7,35.1,19.3l0.8,1.1L406,200.7h39.6L313.3,33.3z"/>
	<ellipse fill="#40596B" cx="256" cy="68.9" rx="32.3" ry="32.4"/>
	<g>
		<path fill="#FFFFFF" d="M55.9,356c0-10.8,1.6-19.9,4.8-27.2c2.4-5.4,5.7-10.3,9.8-14.6c4.2-4.3,8.7-7.5,13.7-9.6
			c6.6-2.8,14.2-4.2,22.8-4.2c15.6,0,28,4.9,37.4,14.6c9.3,9.7,14,23.2,14,40.5c0,17.1-4.6,30.5-13.9,40.2
			c-9.3,9.7-21.7,14.5-37.2,14.5c-15.7,0-28.2-4.8-37.5-14.4S55.9,372.9,55.9,356z M77.9,355.3c0,12,2.8,21.1,8.3,27.3
			c5.5,6.2,12.5,9.3,21.1,9.3s15.5-3.1,20.9-9.2s8.2-15.4,8.2-27.7c0-12.2-2.7-21.2-8-27.2c-5.3-6-12.4-9-21.2-9s-15.9,3-21.3,9.1
			C80.6,334,77.9,343.1,77.9,355.3z"/>
		<path fill="#FFFFFF" d="M175.1,408.4V302.3h34.2c13,0,21.4,0.5,25.4,1.6c6.1,1.6,11.1,5.1,15.2,10.4c4.1,5.3,6.1,12.2,6.1,20.7
			c0,6.5-1.2,12-3.5,16.4c-2.4,4.4-5.3,7.9-9,10.5s-7.3,4.2-11.1,5c-5.1,1-12.5,1.5-22.1,1.5h-13.9v40H175.1z M196.4,320.3v30.1
			h11.7c8.4,0,14-0.6,16.9-1.7c2.8-1.1,5.1-2.8,6.7-5.2s2.4-5.1,2.4-8.3c0-3.9-1.1-7-3.4-9.6s-5.1-4.1-8.6-4.7
			c-2.5-0.5-7.7-0.7-15.4-0.7H196.4z"/>
		<path fill="#FFFFFF" d="M273.6,408.4V302.3h78.4v18h-57v23.5H348v17.9h-53.1v28.9H354v17.9H273.6z"/>
		<path fill="#FFFFFF" d="M372.3,408.4V302.3H393l43.3,70.9v-70.9h19.8v106.1h-21.4l-42.6-69.2v69.2H372.3z"/>
	</g>
</g>
</svg>
