<?xml version="1.0" encoding="utf-8"?>
<!-- Generator: Adobe Illustrator 18.0.0, SVG Export Plug-In . SVG Version: 6.00 Build 0)  -->
<!DOCTYPE svg PUBLIC "-//W3C//DTD SVG 1.1//EN" "http://www.w3.org/Graphics/SVG/1.1/DTD/svg11.dtd">
<svg version="1.1" id="Layer_1" xmlns="http://www.w3.org/2000/svg" xmlns:xlink="http://www.w3.org/1999/xlink" x="0px" y="0px"
	 viewBox="0 0 48 48" enable-background="new 0 0 48 48" xml:space="preserve">
<g>
	<path fill="#4CDBC4" d="M46.5,16.9c-0.5-6.8-3.2-10.9-5-13c-1.1-1.3-3.1-1.5-4.5-0.5c-4,2.9-6,9.4-6,9.4l0.9,9.7l6.9,1.7
		C46.7,23.8,46.5,16.9,46.5,16.9z"/>
	<path fill="#40596B" d="M38.8,20.7c0.5-1.7-0.3-3.6,0.4-5.3c0.4-0.9,1.2-1.7,1.8-2.5c0.9-1.2,1.3-2.8,1.3-4.3
		c0-0.4-0.1-0.9-0.4-1.2c-0.2-0.3-0.6-0.4-1-0.4C39.5,6.9,38,7.3,37,8.2c-1.4,1.2-1.9,3.1-2.1,4.9c-0.1,1.2-0.2,2.5,0.2,3.6
		c0.3,1.1,1,2.1,1.6,3.1c0.3,0.4,0.6,0.9,1,1.1s1.1-0.1,1.2-0.6"/>
	<path fill="#4CDBC4" d="M1.5,16.9C2,10.2,4.6,6.1,6.5,4C7.6,2.7,9.6,2.4,11,3.4c4,2.9,6,9.4,6,9.4l-0.9,9.7l-6.9,1.7
		C1.3,23.8,1.5,16.9,1.5,16.9z"/>
	<path fill="#40596B" d="M9.2,20.7c-0.5-1.7,0.3-3.6-0.4-5.3C8.4,14.5,7.6,13.8,7,13c-0.9-1.2-1.3-2.8-1.3-4.3
		c0-0.4,0.1-0.9,0.4-1.2c0.2-0.3,0.6-0.4,1-0.4C8.5,6.9,10,7.3,11,8.2c1.4,1.2,1.9,3.1,2.1,4.9c0.1,1.2,0.2,2.5-0.2,3.6
		c-0.3,1.1-1,2.1-1.6,3.1c-0.3,0.4-0.6,0.9-1,1.1s-1.1-0.1-1.2-0.6"/>
	<g>
		<path opacity="0.1" fill="#231F20" d="M15.1,8.6c1.2,2.3,1.9,4.3,1.9,4.3l-0.9,9.7l-6.9,1.7c-1.1,0-2.1-0.2-3-0.5
			c-0.1-2,0.1-3.4,0.1-3.4l0-0.2l0.1-0.2C8.2,15,12.6,10.7,15.1,8.6z"/>
		<path opacity="0.1" fill="#231F20" d="M41.7,23.7c-0.8,0.3-1.8,0.5-3,0.5l-6.9-1.7L31,12.8c0,0,0.7-2.2,2.1-4.6
			c0.1,0.2,0.1,0.4,0.2,0.7c2.6,2.2,6.7,6.3,8.3,11l0,0.2l0,0.2C41.7,20.3,41.8,21.7,41.7,23.7z"/>
	</g>
	<path fill="#4CDBC4" d="M40.2,20.4c-1.7-4.6-6-8.8-8.3-10.8c0,0,0-0.1,0-0.1c-0.1-1-0.7-1.8-1-2.8c-0.1-0.4-0.5-0.6-0.9-0.4
		c-0.1,0-0.1,0.1-0.2,0.1c-0.2,0-0.3,0-0.5,0c-0.7-0.1-1.4-0.2-2.2-0.3c-0.1,0-0.2,0-0.3-0.1c-0.1-0.1-0.1-0.2-0.2-0.4
		c-0.1-0.6-0.9-0.6-1.2-0.1c-0.1,0.2-0.2,0.5-0.3,0.7c-0.2-0.6-0.4-1.2-0.7-1.7c-0.1-0.1-0.1-0.2-0.3-0.3c-0.1,0-0.3,0.1-0.4,0.2
		c-0.2,0.3-0.3,0.7-0.4,1c-0.2,0.3-0.5,0.6-0.8,0.5c-0.1-0.2-0.1-0.3-0.2-0.5c-0.2-0.6-1-0.6-1.2,0c-0.1,0.3-0.2,0.6-0.4,0.9
		c-0.1,0.1-0.1,0.3-0.3,0.4c-0.3,0.3-0.8,0.1-1.2-0.2c-0.3-0.2-0.6-0.5-1-0.4C18.2,6.3,18,6.6,17.9,7c-0.3,0.7-0.6,1.3-0.9,2
		c-2,1.6-7.2,6.2-9.1,11.4c0,0-0.3,2,0,4.6c0,0,0,0,0,0c0.2,2.1,0.9,4.6,2.3,6.8l4.9,7.2c0,0,0.1,4,2.9,5.9l0,0
		c0.1,0.1,0.3,0.2,0.5,0.3h11.2c0.2-0.1,0.3-0.2,0.5-0.3c2.8-1.9,2.9-5.9,2.9-5.9l4.9-7.2c1.4-2.2,2-4.7,2.3-6.8
		C40.4,22.4,40.2,20.4,40.2,20.4z"/>
	<g>
		<path fill="#3DC9AE" d="M40.1,25c-0.2,2.1-0.9,4.6-2.3,6.8L32.9,39c0,0-0.1,4-2.9,5.9c-0.2,0.1-0.4,0.2-0.6,0.3h-2.5
			c0.1-0.3,0.2-0.7,0.2-1c0.1-0.6-0.1-1.4-0.7-1.5c2.2-0.8,4-2.5,4.9-4.6c0.9-2.1,0.9-4.6-0.1-6.7c1.2-0.1,2.3-0.3,3.5-0.6
			c0.1,0,0.3-0.1,0.3-0.2c0.1-0.1,0.1-0.3,0.1-0.4c0-1.6-0.2-3.3-0.5-4.9c-0.1-0.3-0.1-0.6-0.3-0.8c-0.2-0.2-0.5-0.3-0.7-0.3
			c-1.8-0.4-3.7-0.8-5.5-1.3c-0.4-0.1-0.8-0.2-1-0.5c-0.3-0.3-0.4-0.8-0.4-1.2c-0.1-1.2-0.3-2.4-0.4-3.6c0-0.3-0.1-0.5,0-0.8
			c0.1-0.2,0.3-0.4,0.6-0.4l0.3,0c1.1-0.7,2.6-0.5,3.5,0.4c0.4,0.4,0.7,0.9,1,1.3c0.8,0.9,1.9,1.6,3.1,2c0.6,0.2,1.3,0.4,1.9,0.8
			c1.2,0.7,2,2,2.9,3C39.7,24.4,39.9,24.7,40.1,25z"/>
		<path fill="#3DC9AE" d="M12.9,30.2c0,0.1,0,0.3,0.1,0.4c0.1,0.1,0.2,0.1,0.3,0.2c1.1,0.3,2.3,0.5,3.5,0.6c-1,2.1-1,4.6-0.1,6.7
			c0.9,2.1,2.7,3.8,4.9,4.6c-0.6,0.1-0.9,0.9-0.7,1.5c0.1,0.3,0.2,0.7,0.2,1h-2.5c-0.2-0.1-0.4-0.2-0.6-0.3l0,0
			c-2.8-1.9-2.9-5.9-2.9-5.9l-4.9-7.2c-1.4-2.2-2-4.7-2.3-6.8c0,0,0,0,0,0c0.2-0.4,0.5-0.7,0.7-1c0.9-1.1,1.7-2.3,2.9-3
			c0.6-0.4,1.2-0.6,1.9-0.8c1.2-0.4,2.3-1.1,3.1-2c0.4-0.4,0.6-0.9,1-1.3c0.9-0.9,2.4-1,3.5-0.4l0.3,0c0.3,0,0.5,0.2,0.6,0.4
			c0.1,0.2,0.1,0.5,0,0.8c-0.1,1.2-0.3,2.4-0.4,3.6c0,0.4-0.1,0.9-0.4,1.2c-0.3,0.3-0.7,0.4-1,0.5c-1.8,0.4-3.7,0.8-5.5,1.3
			c-0.3,0.1-0.6,0.1-0.8,0.3c-0.2,0.2-0.3,0.5-0.3,0.8C13.1,27,12.9,28.6,12.9,30.2z"/>
	</g>
	<path fill="#40596B" d="M35.1,21.9c-1.3-1.3-3.5-1.1-4.8,0.2l-0.6,0.6c-1,1-2.5,1.4-3.9,0.9c-0.6-0.2-1.1-0.3-1.8-0.3
		c-0.6,0-1.2,0.1-1.8,0.3c-1.4,0.4-2.9,0.1-3.9-0.9l-0.6-0.6c-1.3-1.3-3.5-1.4-4.8-0.2c-1.4,1.3-1.4,3.5-0.1,4.9l2.9,2.9
		c0.8,0.8,1.1,1.8,1.1,2.8c0,0,0,0,0,0c0,5,3.2,9.1,7.2,9.1c4,0,7.2-4.1,7.2-9.1c0,0,0,0,0,0c0-1.1,0.4-2.1,1.1-2.8l2.9-2.9
		C36.5,25.4,36.5,23.2,35.1,21.9z"/>
	<g>
		<path fill="#334A5E" d="M25.6,32h-3.1c-2,0-3.7,1.7-3.7,3.7c0,2,1.7,3.7,3.7,3.7h3.1c2,0,3.7-1.7,3.7-3.7
			C29.3,33.7,27.6,32,25.6,32z"/>
		<g>
			<path fill="#40596B" d="M28.3,36.2c-0.1-0.7-1.3-2.4-1.3-2.4s0,0.7-0.1,1.3c-0.1,0.4-0.3,0.8-0.5,1.1c-0.5,0.7,0.1,1.5,0.8,1.5
				C28,37.7,28.3,37,28.3,36.2z"/>
			<path fill="#40596B" d="M21.1,35.1C21,34.5,21,33.8,21,33.8s-1.2,1.7-1.3,2.4c-0.1,0.8,0.2,1.5,1.1,1.5c0.7,0,1.3-0.8,0.8-1.5
				C21.4,35.9,21.2,35.5,21.1,35.1z"/>
		</g>
	</g>
	<g>
		<g>
			<circle fill="#334A5E" cx="32.8" cy="24.5" r="2.1"/>
			<circle fill="#ACB3BA" cx="32.8" cy="24.5" r="1.3"/>
			<circle fill="#F2F2F2" cx="33.5" cy="23.8" r="0.6"/>
		</g>
		<g>
			<circle fill="#334A5E" cx="15.2" cy="24.5" r="2.1"/>
			<circle fill="#ACB3BA" cx="15.2" cy="24.5" r="1.3"/>
			<circle fill="#F2F2F2" cx="15.9" cy="23.8" r="0.6"/>
		</g>
	</g>
</g>
</svg>
