<?xml version="1.0" encoding="utf-8"?>
<!-- Generator: Adobe Illustrator 18.0.0, SVG Export Plug-In . SVG Version: 6.00 Build 0)  -->
<!DOCTYPE svg PUBLIC "-//W3C//DTD SVG 1.1//EN" "http://www.w3.org/Graphics/SVG/1.1/DTD/svg11.dtd">
<svg version="1.1" id="Layer_1" xmlns="http://www.w3.org/2000/svg" xmlns:xlink="http://www.w3.org/1999/xlink" x="0px" y="0px"
	 viewBox="0 0 48 48" enable-background="new 0 0 48 48" xml:space="preserve">
<g>
	<g>
		<rect x="6.7" y="7" fill="#F05540" width="5.4" height="9.9"/>
		<rect x="5.2" y="3" fill="#F3705A" width="8.4" height="4.6"/>
	</g>
	<g>
		<polygon fill="#F3F3F3" points="4,25.1 4,48 44,48 44,25.1 24,5.1 		"/>
		<path fill="#F3705A" d="M47.2,22.2L25.8,0.8c-1-1-2.6-1-3.6,0L0.8,22.2c-1,1-1,2.6,0,3.6c1,1,2.6,1,3.6,0L24,6.2l19.6,19.6
			c1,1,2.6,1,3.6,0C48.3,24.8,48.3,23.2,47.2,22.2z"/>
	</g>
	<g>
		<g>
			<g>
				<circle fill="#FFD15C" cx="17.9" cy="25.8" r="6.3"/>
				<circle fill="#F7B64C" cx="17.9" cy="25.8" r="4.6"/>
				<path fill="#FFD15C" d="M17.6,28.8v-0.5c-0.6-0.1-1.2-0.4-1.7-0.8l0.7-0.8c0.4,0.3,0.7,0.5,1,0.6v-1.1c-0.5-0.1-0.9-0.3-1.1-0.5
					c-0.2-0.2-0.4-0.5-0.4-1c0-0.4,0.1-0.8,0.4-1c0.3-0.3,0.6-0.4,1.1-0.5v-0.4h0.8v0.4c0.5,0.1,1,0.3,1.5,0.6l-0.6,0.9
					c-0.3-0.2-0.6-0.4-0.9-0.4v1.1c0.5,0.1,0.9,0.3,1.2,0.5s0.4,0.6,0.4,1c0,0.4-0.1,0.8-0.4,1c-0.3,0.3-0.7,0.4-1.1,0.5v0.5H17.6z
					 M17.6,24.1c-0.2,0.1-0.3,0.2-0.3,0.4s0.1,0.3,0.3,0.4V24.1z M18.7,26.8c0-0.1,0-0.2-0.1-0.3c-0.1-0.1-0.2-0.1-0.3-0.2v0.9
					C18.6,27.2,18.7,27,18.7,26.8z"/>
			</g>
			<g>
				<circle fill="#FFD15C" cx="29.8" cy="37.7" r="6.3"/>
				<circle fill="#F7B64C" cx="29.8" cy="37.7" r="4.6"/>
				<path fill="#FFD15C" d="M27.1,37.5v-0.6h0.7c0.1-0.6,0.4-1,0.8-1.4s0.9-0.5,1.5-0.5c0.7,0,1.4,0.3,1.9,0.9l-0.7,0.9
					c-0.4-0.4-0.8-0.7-1.3-0.7c-0.6,0-0.9,0.3-1.1,0.8h1.7v0.6h-1.9c0,0,0,0.1,0,0.2c0,0.1,0,0.2,0,0.2h1.9v0.6H29
					c0.1,0.2,0.3,0.4,0.5,0.5c0.2,0.1,0.4,0.2,0.7,0.2c0.5,0,0.9-0.2,1.2-0.6l0.7,0.8c-0.3,0.3-0.6,0.5-0.9,0.7
					c-0.3,0.2-0.7,0.2-1,0.2c-0.6,0-1-0.2-1.5-0.5s-0.7-0.8-0.9-1.3h-0.7v-0.6h0.6c0,0,0-0.1,0-0.2c0-0.1,0-0.2,0-0.2H27.1z"/>
			</g>
		</g>
		<g>
			<g>
				<path fill="#8AD7F8" d="M18.1,37.1l-1.3,0.4c0.9,2.6,3.4,4.2,6,4.2c-0.6,0.5-1.2,0.8-1.9,1c-3.3,1.1-6.9-0.6-8.1-3.9l-1.3,0.4
					l2-4.8L18.1,37.1z"/>
			</g>
			<g>
				<path fill="#415A6B" d="M29.4,26.4l1.3-0.4c-0.9-2.6-3.4-4.2-6-4.2c0.6-0.5,1.2-0.8,1.9-1c3.3-1.1,6.9,0.6,8.1,3.9l1.3-0.4
					l-2,4.8L29.4,26.4z"/>
			</g>
		</g>
	</g>
</g>
</svg>
