<?xml version="1.0" encoding="utf-8"?>
<!-- Generator: Adobe Illustrator 18.0.0, SVG Export Plug-In . SVG Version: 6.00 Build 0)  -->
<!DOCTYPE svg PUBLIC "-//W3C//DTD SVG 1.1//EN" "http://www.w3.org/Graphics/SVG/1.1/DTD/svg11.dtd">
<svg version="1.1" id="Layer_1" xmlns="http://www.w3.org/2000/svg" xmlns:xlink="http://www.w3.org/1999/xlink" x="0px" y="0px"
	 viewBox="0 0 48 48" enable-background="new 0 0 48 48" xml:space="preserve">
<g>
	<g>
		<circle fill="#54C0EB" cx="22.2" cy="25.8" r="22.2"/>
		<path fill="#54C0EB" d="M27.2,4.1c-5.5,1.4-11.5,4.8-16.7,10c-5,5-8.6,10.9-10,16.7C0.3,29.5,0.1,28.3,0,27c0-0.4,0-0.8,0-1.2
			C0,13.5,9.9,3.5,22.2,3.5c0.4,0,0.9,0,1.3,0C24.8,3.6,26,3.8,27.2,4.1z"/>
		<path fill="#84DBFF" d="M12,37.3c-0.3-0.1-0.1-0.5-0.2-0.8c-0.1-0.4-0.5-0.6-0.9-0.6c-0.4,0-0.8,0.2-1.2,0.1
			c-0.6-0.1-1-0.8-1.5-1.2c-0.6-0.5-1.5-0.7-2.1-1.3c-0.3-0.4-0.4-0.9-0.6-1.3c-0.2-0.8-0.4-1.6-0.6-2.4c-0.1-0.2-0.1-0.4-0.3-0.6
			c-0.1-0.2-0.3-0.2-0.5-0.4c-0.9-0.6-1.4-1.9-1.1-3c0.2-0.8,0.7-1.5,1.3-2.2c0.8-1,1.7-2,2.7-2.8c0.4-0.3,0.7-0.5,1-0.9
			C8.9,19,9,17.7,8.4,16.7c-0.2-0.3-0.4-0.6-0.6-0.9c-0.3-0.5-0.3-1.2-0.5-1.7c-0.2-0.6-0.8-1.1-1.3-1l-3.7,2.6
			C0.9,18.7,0,22.2,0,25.8C0,34,4.5,41.2,11.2,45c0.5-0.2,1-0.5,1.5-0.9c0.2-0.1,0.3-0.2,0.3-0.3c0.4-0.6-0.3-1.3-0.3-2
			c0-0.7,0.8-1.3,1-2c0.1-0.2,0.1-0.3,0.2-0.5C14.5,38.1,13.3,36.8,12,37.3C12,37.2,12,37.3,12,37.3z"/>
		<path fill="#84DBFF" d="M16,6c-0.5,0.3-1.2,0.4-1.8,0.5c-0.4,0.1-0.8,0.1-1.3,0.2c-0.2,0-0.3,0.1-0.4,0.1
			c-0.3,0.1-0.4,0.4-0.6,0.7c-0.2,0.4-0.5,0.9-0.7,1.3c-0.3,0.6-0.7,1.2-1.3,1.4c-0.7,0.3-1.5,0-1.9-0.6C7.9,9.4,7.8,9.2,7.7,8.9
			c2.5-2.2,5.5-3.8,8.8-4.6c0,0.1,0.1,0.1,0.1,0.2C16.9,5,16.5,5.7,16,6z"/>
		<path fill="#84DBFF" d="M41.8,29c-1.1-0.3,0.2-2.4-0.1-3.5c-0.3-1.1-0.7-2.1-1.5-2.9c-0.8-0.8-2-1.1-3-0.6
			c0.2,0.7,1.3,0.8,1.8,1.4c0.3,0.5,0.2,1.2-0.2,1.6c-0.4,0.4-0.9,0.8-1.3,1.2c-0.2,0.2-0.4,0.4-0.4,0.7c0,0.3,0.3,0.6,0.4,0.9
			c0.2,0.4,0,0.9-0.4,1.3c-0.3,0.3-0.7,0.6-1.1,0.8c-1.2,0.8-2,2.2-2.2,3.6c-0.1,0.6-0.1,1.1-0.2,1.7c-0.2,0.6-0.7,1.2-1.1,1.7
			c-0.5,0.9-0.7,1.9-1.1,2.8c-0.5,1.2-1.2,2.2-2.1,3c-0.4,0.4-0.9,0.8-1.5,0.9c-1.2,0.2-2.4-0.8-2.9-1.9c-0.5-1-0.6-2.2-0.4-3.3
			c0.2-1,0.8-2.2,0.1-3c-0.3-0.3-0.6-0.5-0.9-0.8c-1.1-1.1-0.7-2.9-0.9-4.4c0-0.2-0.1-0.5-0.3-0.7c-0.1-0.1-0.2-0.1-0.4-0.1
			c-1.2-0.2-2.5-0.1-3.7-0.2c-1.2-0.2-2.5-0.7-3.1-1.8c-0.5-0.9-0.5-2-0.5-3c0-0.8,0.1-1.6,0.5-2.3c0.5-0.9,1.5-1.3,2.4-1.7
			c1.6-0.7,3.3-1.5,5.1-1.1c1,0.2,1.9,0.7,2.9,0.8c0.6,0.1,1.2,0,1.7-0.1c1.7-0.3,3.3-0.7,4.9-1.4c0.9-0.4,2-1.1,1.8-2.1
			c-0.1-0.6-0.7-1-1.3-1.1c-0.6-0.1-1.2,0-1.8,0.3c-0.8,0.3-1.6,0.8-2.2,1.4c-0.2,0.2-0.5,0.5-0.8,0.5c-1.1,0.2-1.3-1.9-2.4-1.8
			c0.3,0.4,0.2,1-0.1,1.3c-0.4,0.3-1,0.3-1.4,0c-0.5-0.3-0.7-1-1.3-1.2c-0.6-0.2-1.2,0.2-1.7,0.5c-1,0.6-2.1,1-3.2,1.1
			c-0.7,0.1-1.5,0-1.8-0.6c-0.4-0.7,0.2-1.6,0.9-1.9c0.7-0.3,1.5-0.3,2.3-0.5c0.2-0.5,0.2-1,0.2-1.5c-0.9-0.5-2.1,0-2.9-0.6
			c-0.5-0.4-0.7-1.1-0.5-1.7c0.2-0.6,0.6-1.1,1.2-1.4c0.7-0.4,1.9-0.3,2.1,0.5c0.1,0.4-0.1,0.7-0.1,1.1c-0.1,0.4,0.1,0.8,0.4,0.9
			c0.1,0,0.3,0,0.5,0c2.1-0.5,4.3-0.9,6.4-1.4c0.4-0.1,0.8-0.2,1.1-0.4c0.3-0.3,0.4-0.8,0.2-1.1c-0.4-0.6-1.3,0-1.9,0.2
			C25,9.4,24.1,9.2,23.3,9c-0.4-0.1-1-0.3-1-0.8c0-0.3,0.2-0.5,0.4-0.7c1.6-1.5,4-2,6.1-1.4c1.1,0.3,2.1,0.9,3.2,1.1
			c0.7,0.1,1.4,0,2.1-0.2c5.9,3.7,9.9,10,10.4,17.3c-0.2,0.3-0.5,0.6-0.7,0.9C43.1,26.2,44.4,29.7,41.8,29z"/>
	</g>
	<path fill="#FF7058" d="M37.1,0c-6,0-10.9,4.9-10.9,10.9c0,6,9.3,12.5,10.9,20.9C38.7,23.4,48,16.9,48,10.9C48,4.9,43.1,0,37.1,0z"
		/>
	<circle fill="#FFFFFF" cx="37.1" cy="10.8" r="4.3"/>
</g>
</svg>
