<?xml version="1.0" encoding="utf-8"?>
<!-- Generator: Adobe Illustrator 20.1.0, SVG Export Plug-In . SVG Version: 6.00 Build 0)  -->
<!DOCTYPE svg PUBLIC "-//W3C//DTD SVG 1.1//EN" "http://www.w3.org/Graphics/SVG/1.1/DTD/svg11.dtd">
<svg version="1.1" id="Layer_1" xmlns="http://www.w3.org/2000/svg" xmlns:xlink="http://www.w3.org/1999/xlink" x="0px" y="0px"
	 viewBox="0 0 49 49" enable-background="new 0 0 49 49" xml:space="preserve">
<g>
	<path fill="#FF7058" d="M46.5,0.5h-44c-1.1,0-2,0.9-2,2v9.3h48V2.5C48.5,1.4,47.6,0.5,46.5,0.5z"/>
	<path fill="#CDD6E0" d="M0.5,11.8v34.7c0,1.1,0.9,2,2,2h44c1.1,0,2-0.9,2-2V11.8H0.5z"/>
	
		<rect x="9.7" y="9.7" transform="matrix(-1.836970e-16 1 -1 -1.836970e-16 54.6693 5.6692)" fill="#FFFFFF" width="29.7" height="41"/>
	<circle fill="#F2F2F2" cx="5.8" cy="6.2" r="2.1"/>
	<circle fill="#FFD15C" cx="12.5" cy="6.2" r="2.1"/>
	<circle fill="#F2F2F2" cx="19.2" cy="6.2" r="2.1"/>
	<path fill="#54C0EB" d="M24.5,34.1c6,0,10.9,4.9,10.9,10.9h6.3c0-0.6,0-1.3-0.1-1.9l3.4-2.4l-1.5-4.4l-4.2,0.1
		c-0.6-1.1-1.3-2-2.2-2.9l1.4-3.9l-3.8-2.7l-3.3,2.5c-1.1-0.5-2.3-0.9-3.5-1.1l-1.2-4h-4.7l-1.2,4c-1.2,0.3-2.4,0.7-3.6,1.2
		l-3.3-2.5l-3.8,2.8l1.4,3.9c-0.8,0.9-1.5,1.9-2.1,3l-4.1-0.1L4,40.9l3.4,2.3c-0.1,0.6-0.1,1.2-0.1,1.8h6.3
		C13.6,39,18.5,34.1,24.5,34.1z"/>
</g>
</svg>
