<?xml version="1.0" encoding="utf-8"?>
<!-- Generator: Adobe Illustrator 18.0.0, SVG Export Plug-In . SVG Version: 6.00 Build 0)  -->
<!DOCTYPE svg PUBLIC "-//W3C//DTD SVG 1.1//EN" "http://www.w3.org/Graphics/SVG/1.1/DTD/svg11.dtd">
<svg version="1.1" id="Layer_1" xmlns="http://www.w3.org/2000/svg" xmlns:xlink="http://www.w3.org/1999/xlink" x="0px" y="0px"
	 viewBox="0 0 48 48" enable-background="new 0 0 48 48" xml:space="preserve">
<g>
	<g>
		<path fill="#F3705A" d="M42.8,16.4c4.8,4.8,5.3,16.5,5.1,24.1c-0.1,4-3.4,7.3-7.4,7.4c-7.6,0.2-19.4-0.4-24.1-5.1
			c-7.3-7.3-7.3-19.1,0-26.4S35.5,9.1,42.8,16.4z"/>
	</g>
	<g>
		<g>
			<path fill="#415A6B" d="M31.4,22.4c0.8,0.8,0.7,2.4,0.7,2.4s-1.5,0.2-2.4-0.7c-0.8-0.8-1.2-1.9-0.7-2.4
				C29.5,21.3,30.6,21.6,31.4,22.4z"/>
			<path fill="#415A6B" d="M24.1,29.7c0.8,0.8,0.7,2.4,0.7,2.4s-1.5,0.2-2.4-0.7c-0.8-0.8-1.2-1.9-0.7-2.4
				C22.2,28.6,23.2,28.9,24.1,29.7z"/>
		</g>
		<g>
			<path fill="#415A6B" d="M39.6,18.5c0.8,0.8,0.7,2.4,0.7,2.4s-1.5,0.2-2.4-0.7c-0.8-0.8-1.2-1.9-0.7-2.4S38.8,17.7,39.6,18.5z"/>
			<path fill="#415A6B" d="M20.2,37.9c0.8,0.8,0.7,2.4,0.7,2.4s-1.5,0.2-2.4-0.7c-0.8-0.8-1.2-1.9-0.7-2.4
				C18.3,36.8,19.4,37.1,20.2,37.9z"/>
		</g>
		<path fill="#415A6B" d="M34.1,32.5c0.8,0.8,0.7,2.4,0.7,2.4s-1.5,0.2-2.4-0.7c-0.8-0.8-1.2-1.9-0.7-2.4
			C32.2,31.3,33.3,31.6,34.1,32.5z"/>
		<g>
			<path fill="#415A6B" d="M41.8,27.9c0.8,0.8,0.7,2.4,0.7,2.4s-1.5,0.2-2.4-0.7c-0.8-0.8-1.2-1.9-0.7-2.4S40.9,27.1,41.8,27.9z"/>
			<path fill="#415A6B" d="M29.6,40.1c0.8,0.8,0.7,2.4,0.7,2.4s-1.5,0.2-2.4-0.7c-0.8-0.8-1.2-1.9-0.7-2.4S28.7,39.2,29.6,40.1z"/>
		</g>
		<path fill="#415A6B" d="M44.6,37.7c0.8,0.8,0.7,2.4,0.7,2.4s-1.5,0.2-2.4-0.7c-0.8-0.8-1.2-1.9-0.7-2.4S43.8,36.8,44.6,37.7z"/>
		<path fill="#415A6B" d="M39.4,43c0.8,0.8,0.7,2.4,0.7,2.4s-1.5,0.2-2.4-0.7c-0.8-0.8-1.2-1.9-0.7-2.4C37.5,41.8,38.5,42.1,39.4,43
			z"/>
		<path fill="#66C6B9" d="M25.1,14.1c-1.2-2.9-10-9.9-10-9.9s-1.8,11.2-0.6,14.1s4.5,4.4,7.4,3.3C24.8,20.4,26.3,17,25.1,14.1z"/>
		<path fill="#4EC0AA" d="M18.9,13.2C18.7,10,23.9,0,23.9,0s6.2,9.4,6.4,12.6s-2.3,5.8-5.4,6S19,16.3,18.9,13.2z"/>
		<path fill="#66C6B9" d="M13.2,18.9C10,18.7,0,23.9,0,23.9s9.4,6.2,12.6,6.4s5.8-2.3,6-5.4C18.7,21.7,16.3,19,13.2,18.9z"/>
		<path fill="#4EC0AA" d="M18.6,15.7c-2.7-1.7-14-1.8-14-1.8s5.3,10,8,11.6c2.7,1.7,6.2,0.8,7.9-1.9C22.2,20.9,21.3,17.3,18.6,15.7z
			"/>
	</g>
</g>
</svg>
