<?xml version="1.0" encoding="utf-8"?>
<!-- Generator: Adobe Illustrator 19.0.1, SVG Export Plug-In . SVG Version: 6.00 Build 0)  -->
<svg version="1.1" id="Layer_1" xmlns="http://www.w3.org/2000/svg" xmlns:xlink="http://www.w3.org/1999/xlink" x="0px" y="0px"
	 viewBox="0 0 48 48" style="enable-background:new 0 0 48 48;" xml:space="preserve">
<style type="text/css">
	.st0{fill:#415A6B;}
	.st1{fill:#ADB3BA;}
	.st2{fill:#E8EAE9;}
	.st3{fill:#55C0EB;}
	.st4{fill:#F3705A;}
	.st5{fill:#FFFFFF;}
	.st6{fill:#FFD15C;}
	.st7{fill:#344A5E;}
	.st8{fill:#CED6E0;}
	.st9{fill:#F05540;}
	.st10{fill:#F7B64C;}
	.st11{fill:#F3F3F3;}
	.st12{fill:#66C6B9;}
	.st13{fill:#4ABAA5;}
	.st14{fill:#8AD7F8;}
	.st15{fill:none;}
	.st16{fill:#E53D35;}
</style>
<g>
	<g>
		<g>
			<g>
				<g>
					<g>
						<path class="st13" d="M48,2.2v24.1c0,1.2-1,2.2-2.2,2.2H2.2c-1.2,0-2.2-1-2.2-2.2V2.2C0,1,1,0,2.2,0h43.5C47,0,48,1,48,2.2z"
							/>
					</g>
					<g>
						<path class="st5" d="M4.5,19.9V8.8c2.4,0,4.3-1.9,4.3-4.3h30.5c0,2.4,1.9,4.3,4.3,4.3v11.1c-2.4,0-4.3,1.9-4.3,4.3H8.8
							C8.8,21.8,6.9,19.9,4.5,19.9z"/>
					</g>
				</g>
				<g>
					<g>
						<path class="st13" d="M23.4,18.4v-3.6c-1.1-0.3-2-0.8-2.5-1.5s-0.8-1.5-0.8-2.4c0-0.9,0.3-1.7,0.9-2.4s1.4-1,2.4-1.1V6.6h1.3
							v0.9c0.9,0.1,1.6,0.4,2.2,0.9c0.5,0.5,0.9,1.2,1,2.1l-2.2,0.3c-0.1-0.7-0.5-1.1-1-1.4v3.4c1.4,0.4,2.3,0.9,2.8,1.5
							c0.5,0.6,0.8,1.4,0.8,2.3c0,1-0.3,1.9-0.9,2.6c-0.6,0.7-1.5,1.2-2.6,1.3v1.6h-1.3v-1.6c-1-0.1-1.8-0.5-2.4-1.1
							c-0.6-0.6-1-1.5-1.2-2.6l2.3-0.2c0.1,0.5,0.3,0.9,0.5,1.2C22.8,18,23.1,18.3,23.4,18.4z M23.4,9.3c-0.3,0.1-0.6,0.3-0.8,0.6
							c-0.2,0.3-0.3,0.6-0.3,0.9c0,0.3,0.1,0.6,0.3,0.9c0.2,0.3,0.5,0.5,0.8,0.6V9.3z M24.7,18.5c0.4-0.1,0.8-0.3,1.1-0.6
							c0.3-0.3,0.4-0.7,0.4-1.1c0-0.4-0.1-0.7-0.3-1c-0.2-0.3-0.6-0.5-1.1-0.6V18.5z"/>
					</g>
				</g>
				<g>
					<circle class="st13" cx="12" cy="14.3" r="2.1"/>
					<circle class="st13" cx="36" cy="14.3" r="2.1"/>
				</g>
			</g>
			<g>
				<g>
					<g>
						<path class="st12" d="M48,9.5v24.1c0,1.2-1,2.2-2.2,2.2H2.2c-1.2,0-2.2-1-2.2-2.2V9.5c0-1.2,1-2.2,2.2-2.2h43.5
							C47,7.3,48,8.3,48,9.5z"/>
					</g>
					<g>
						<path class="st5" d="M4.5,27.2V16.1c2.4,0,4.3-1.9,4.3-4.3h30.5c0,2.4,1.9,4.3,4.3,4.3v11.1c-2.4,0-4.3,1.9-4.3,4.3H8.8
							C8.8,29.1,6.9,27.2,4.5,27.2z"/>
					</g>
				</g>
				<g>
					<g>
						<path class="st12" d="M23.4,25.7v-3.6c-1.1-0.3-2-0.8-2.5-1.5s-0.8-1.5-0.8-2.4c0-0.9,0.3-1.7,0.9-2.4c0.6-0.6,1.4-1,2.4-1.1
							v-0.9h1.3v0.9c0.9,0.1,1.6,0.4,2.2,0.9c0.5,0.5,0.9,1.2,1,2.1L25.7,18c-0.1-0.7-0.5-1.1-1-1.4V20c1.4,0.4,2.3,0.9,2.8,1.5
							c0.5,0.6,0.8,1.4,0.8,2.3c0,1-0.3,1.9-0.9,2.6c-0.6,0.7-1.5,1.2-2.6,1.3v1.6h-1.3v-1.6c-1-0.1-1.8-0.5-2.4-1.1
							c-0.6-0.6-1-1.5-1.2-2.6l2.3-0.2c0.1,0.5,0.3,0.9,0.5,1.2S23.1,25.6,23.4,25.7z M23.4,16.6c-0.3,0.1-0.6,0.3-0.8,0.6
							s-0.3,0.6-0.3,0.9c0,0.3,0.1,0.6,0.3,0.9c0.2,0.3,0.5,0.5,0.8,0.6V16.6z M24.7,25.8c0.4-0.1,0.8-0.3,1.1-0.6s0.4-0.7,0.4-1.1
							c0-0.4-0.1-0.7-0.3-1c-0.2-0.3-0.6-0.5-1.1-0.6V25.8z"/>
					</g>
				</g>
				<g>
					<circle class="st12" cx="12" cy="21.6" r="2.1"/>
					<circle class="st12" cx="36" cy="21.6" r="2.1"/>
				</g>
			</g>
		</g>
		<g>
			<g>
				<g>
					<g>
						<path class="st12" d="M36.1,24c-1.8-3.5-4.1-5.9-7.6-7.9c-3.4-2-6.6-1.1-10.2,0.7c-0.7,0.3-2.1,1-3.3,1.7
							c-0.4,1.1-0.9,2.1-1.4,3.1c-0.4,0.8-1,1.5-1.5,2.3c0.2,5,1.5,8.4,3.6,13.3h17c0.6-1.6,1.2-2.3,1.8-3c0.1-0.2,0.1-0.4,0.2-0.6
							c0.6-1.7,1.4-3.7,1.8-5.6C36.5,26.7,36.3,25.3,36.1,24z"/>
						<g>
							<g>
								<path class="st5" d="M36.1,24c-1.8-3.5-4.1-5.9-7.6-7.9c-3.4-2-6.6-1.1-10.2,0.7c-0.7,0.3-2.1,1-3.3,1.7
									c-0.4,1.1-0.9,2.1-1.4,3.1c-0.4,0.8-1,1.5-1.5,2.3c0.1,3.2,0.7,5.7,1.6,7.5h21.6c0.5-0.7,0.9-2.1,1.3-3.4
									C36.5,26.7,36.3,25.3,36.1,24z"/>
							</g>
						</g>
					</g>
					<g>
						<path class="st12" d="M28.5,23.8c0-1-0.3-1.8-0.8-2.5c-0.5-0.6-1.4-1.1-2.8-1.5v-2.8c0.3,0.2,0.5,0.6,0.5,1l0,0.2l2.7-0.4
							l0-0.3C28,16.8,27.6,16,27,15.5c0,0-0.1,0-0.1-0.1c-2.1-0.7-4.1-0.4-6.2,0.4c-0.6,0.7-0.9,1.5-0.9,2.4c0,1,0.3,1.8,0.8,2.5
							c0.5,0.7,1.4,1.2,2.4,1.5v3c-0.1-0.1-0.3-0.3-0.4-0.4c-0.2-0.3-0.4-0.7-0.5-1.1l0-0.2l-2.7,0.3l0,0.3c0.2,1.2,0.6,2.1,1.3,2.8
							c0.6,0.6,1.4,1,2.4,1.2v1.6h1.8V28c1.1-0.2,1.9-0.7,2.6-1.4C28.1,25.8,28.5,24.9,28.5,23.8z M23.1,19.2
							c-0.2-0.1-0.3-0.2-0.4-0.4c-0.2-0.2-0.2-0.5-0.2-0.7c0-0.3,0.1-0.5,0.3-0.8c0.1-0.1,0.2-0.3,0.4-0.3V19.2z M25.5,25.1
							c-0.2,0.2-0.4,0.3-0.6,0.4v-2.7c0.3,0.1,0.5,0.3,0.7,0.5c0.2,0.2,0.3,0.5,0.3,0.8C25.9,24.5,25.8,24.8,25.5,25.1z"/>
					</g>
				</g>
			</g>
			<g>
				<g>
					<g>
						<g>
							<g>
								<path class="st7" d="M39.2,33.7c0.6,0.6,0.6,1.6,0,2.2l-5.6,5.6c-0.6,0.6-1.6,0.6-2.2,0c-0.6-0.6-0.6-1.6,0-2.2l5.6-5.6
									C37.6,33.1,38.6,33.1,39.2,33.7z"/>
							</g>
							<g>
								<path class="st4" d="M44.6,46.8L44.6,46.8c1.5-1.5,1.5-4,0-5.6l-5.4-5.4l-5.6,5.6l5.4,5.4C40.5,48.4,43,48.4,44.6,46.8z"/>
							</g>
						</g>
						<g>
							<path class="st0" d="M13.3,15.6c-5.9,5.9-5.9,15.4,0,21.3c5.9,5.9,15.4,5.9,21.3,0c5.9-5.9,5.9-15.4,0-21.3
								C28.7,9.7,19.2,9.7,13.3,15.6z M31.4,33.7c-4.1,4.1-10.8,4.1-15,0s-4.1-10.8,0-15s10.8-4.1,15,0S35.6,29.6,31.4,33.7z"/>
						</g>
					</g>
				</g>
			</g>
		</g>
	</g>
</g>
</svg>
