<?xml version="1.0" encoding="utf-8"?>
<!-- Generator: Adobe Illustrator 18.0.0, SVG Export Plug-In . SVG Version: 6.00 Build 0)  -->
<!DOCTYPE svg PUBLIC "-//W3C//DTD SVG 1.1//EN" "http://www.w3.org/Graphics/SVG/1.1/DTD/svg11.dtd">
<svg version="1.1" id="Layer_1" xmlns="http://www.w3.org/2000/svg" xmlns:xlink="http://www.w3.org/1999/xlink" x="0px" y="0px"
	 viewBox="0 0 48 48" enable-background="new 0 0 48 48" xml:space="preserve">
<g>
	<path fill="#FF7058" d="M35.9,1.7c-1.4-2-4.3-2.3-6.6-0.7c-1.4,1-3.9,3.7-5.2,6c-1.3-2.3-3.8-5-5.2-6c-2.3-1.6-5.2-1.3-6.6,0.7
		c-1.4,2-0.7,4.9,1.6,6.5c1.8,1.2,6.5,3.1,9.2,3c0.7,0,1.3,0,2,0c2.7,0.1,7.5-1.8,9.2-3C36.5,6.6,37.2,3.7,35.9,1.7z M15.3,6
		c-1.1-0.7-1.5-2-1-2.8c0.4-0.5,1-0.6,1.3-0.6c0.6,0,1.1,0.2,1.6,0.5c1.4,1,3.6,3.6,4.6,5.3C19.6,8.1,16.5,6.9,15.3,6z M32.7,6
		c-1.2,0.9-4.4,2.1-6.5,2.5c0.9-1.7,3.1-4.3,4.6-5.3c0.5-0.4,1.1-0.5,1.6-0.5c0.3,0,0.9,0.1,1.3,0.6C34.2,4,33.8,5.3,32.7,6z"/>
	<path fill="#FFD15C" d="M46,19.3H2c-1.1,0-2-0.9-2-2v-4.6c0-1.1,0.9-2,2-2h44c1.1,0,2,0.9,2,2v4.6C48,18.4,47.1,19.3,46,19.3z"/>
	<path fill="#F8B64C" d="M43.9,48H4.1c-1.1,0-2-0.9-2-2V19.3h43.7V46C45.9,47.1,45,48,43.9,48z"/>
	<g>
		<g>
			<path fill="#FFD15C" d="M7.3,21.9c-0.5,0-0.9,0.2-1.1,0.6c-0.2-0.3-0.6-0.6-1.1-0.6c-0.7,0-1.3,0.6-1.3,1.3
				c0,1.2,2.4,2.9,2.4,2.9s2.4-1.7,2.4-2.9C8.7,22.5,8.1,21.9,7.3,21.9z"/>
			<path fill="#FFD15C" d="M19.2,21.9c-0.5,0-0.9,0.2-1.1,0.6c-0.2-0.3-0.6-0.6-1.1-0.6c-0.7,0-1.3,0.6-1.3,1.3
				c0,1.2,2.4,2.9,2.4,2.9s2.4-1.7,2.4-2.9C20.5,22.5,19.9,21.9,19.2,21.9z"/>
			<path fill="#FFD15C" d="M31,21.9c-0.5,0-0.9,0.2-1.1,0.6c-0.2-0.3-0.6-0.6-1.1-0.6c-0.7,0-1.3,0.6-1.3,1.3c0,1.2,2.4,2.9,2.4,2.9
				s2.4-1.7,2.4-2.9C32.4,22.5,31.8,21.9,31,21.9z"/>
			<path fill="#FFD15C" d="M42.9,21.9c-0.5,0-0.9,0.2-1.1,0.6c-0.2-0.3-0.6-0.6-1.1-0.6c-0.7,0-1.3,0.6-1.3,1.3
				c0,1.2,2.4,2.9,2.4,2.9s2.4-1.7,2.4-2.9C44.2,22.5,43.6,21.9,42.9,21.9z"/>
		</g>
		<g>
			<path fill="#FFD15C" d="M13.3,28.9c-0.5,0-0.9,0.2-1.1,0.6c-0.2-0.3-0.6-0.6-1.1-0.6c-0.7,0-1.3,0.6-1.3,1.3
				c0,1.2,2.4,2.9,2.4,2.9s2.4-1.7,2.4-2.9C14.6,29.5,14,28.9,13.3,28.9z"/>
			<path fill="#FFD15C" d="M25.1,28.9c-0.5,0-0.9,0.2-1.1,0.6c-0.2-0.3-0.6-0.6-1.1-0.6c-0.7,0-1.3,0.6-1.3,1.3
				c0,1.2,2.4,2.9,2.4,2.9s2.4-1.7,2.4-2.9C26.4,29.5,25.8,28.9,25.1,28.9z"/>
			<path fill="#FFD15C" d="M36.9,28.9c-0.5,0-0.9,0.2-1.1,0.6c-0.2-0.3-0.6-0.6-1.1-0.6c-0.7,0-1.3,0.6-1.3,1.3
				c0,1.2,2.4,2.9,2.4,2.9s2.4-1.7,2.4-2.9C38.3,29.5,37.7,28.9,36.9,28.9z"/>
		</g>
		<g>
			<path fill="#FFD15C" d="M7.3,35.8c-0.5,0-0.9,0.2-1.1,0.6c-0.2-0.3-0.6-0.6-1.1-0.6c-0.7,0-1.3,0.6-1.3,1.3
				c0,1.2,2.4,2.9,2.4,2.9s2.4-1.7,2.4-2.9C8.7,36.4,8.1,35.8,7.3,35.8z"/>
			<path fill="#FFD15C" d="M19.2,35.8c-0.5,0-0.9,0.2-1.1,0.6c-0.2-0.3-0.6-0.6-1.1-0.6c-0.7,0-1.3,0.6-1.3,1.3
				c0,1.2,2.4,2.9,2.4,2.9s2.4-1.7,2.4-2.9C20.5,36.4,19.9,35.8,19.2,35.8z"/>
			<path fill="#FFD15C" d="M31,35.8c-0.5,0-0.9,0.2-1.1,0.6c-0.2-0.3-0.6-0.6-1.1-0.6c-0.7,0-1.3,0.6-1.3,1.3c0,1.2,2.4,2.9,2.4,2.9
				s2.4-1.7,2.4-2.9C32.4,36.4,31.8,35.8,31,35.8z"/>
			<path fill="#FFD15C" d="M42.9,35.8c-0.5,0-0.9,0.2-1.1,0.6c-0.2-0.3-0.6-0.6-1.1-0.6c-0.7,0-1.3,0.6-1.3,1.3
				c0,1.2,2.4,2.9,2.4,2.9s2.4-1.7,2.4-2.9C44.2,36.4,43.6,35.8,42.9,35.8z"/>
		</g>
		<g>
			<path fill="#FFD15C" d="M13.3,42.8c-0.5,0-0.9,0.2-1.1,0.6c-0.2-0.3-0.6-0.6-1.1-0.6c-0.7,0-1.3,0.6-1.3,1.3
				c0,1.2,2.4,2.9,2.4,2.9s2.4-1.7,2.4-2.9C14.6,43.4,14,42.8,13.3,42.8z"/>
			<path fill="#FFD15C" d="M25.1,42.8c-0.5,0-0.9,0.2-1.1,0.6c-0.2-0.3-0.6-0.6-1.1-0.6c-0.7,0-1.3,0.6-1.3,1.3
				c0,1.2,2.4,2.9,2.4,2.9s2.4-1.7,2.4-2.9C26.4,43.4,25.8,42.8,25.1,42.8z"/>
			<path fill="#FFD15C" d="M36.9,42.8c-0.5,0-0.9,0.2-1.1,0.6c-0.2-0.3-0.6-0.6-1.1-0.6c-0.7,0-1.3,0.6-1.3,1.3
				c0,1.2,2.4,2.9,2.4,2.9s2.4-1.7,2.4-2.9C38.3,43.4,37.7,42.8,36.9,42.8z"/>
		</g>
	</g>
	<rect x="19.9" y="10.7" fill="#FF7058" width="8.1" height="37.3"/>
	<rect x="2.1" y="19.3" opacity="0.1" fill="#231F20" width="43.7" height="1.5"/>
</g>
</svg>
