<?xml version="1.0" encoding="utf-8"?>
<!-- Generator: Adobe Illustrator 20.1.0, SVG Export Plug-In . SVG Version: 6.00 Build 0)  -->
<!DOCTYPE svg PUBLIC "-//W3C//DTD SVG 1.1//EN" "http://www.w3.org/Graphics/SVG/1.1/DTD/svg11.dtd">
<svg version="1.1" id="Layer_1" xmlns="http://www.w3.org/2000/svg" xmlns:xlink="http://www.w3.org/1999/xlink" x="0px" y="0px"
	 viewBox="0 0 49 49" enable-background="new 0 0 49 49" xml:space="preserve">
<g>
	<path fill="#F2F2F2" d="M39.5,0.5h-30c-1.2,0-2.1,1-2,2.2l3.6,44c0.1,1,1,1.8,2,1.8H36c1,0,1.9-0.8,2-1.8l3.6-44
		C41.6,1.5,40.7,0.5,39.5,0.5z"/>
	<path fill="#84DBFF" d="M10.1,13.8l2.5,32.7c0,0.3,0.2,0.4,0.5,0.4H36c0.3,0,0.5-0.2,0.5-0.4L39,13.8C39,13.8,10.1,13.8,10.1,13.8z
		"/>
	<path fill="#FFFFFF" d="M21.5,34.8h-6.1c-0.4,0-0.6,0.3-0.6,0.6v6.1c0,0.4,0.3,0.6,0.6,0.6h6.1c0.4,0,0.6-0.3,0.6-0.6v-6.1
		C22.1,35.1,21.8,34.8,21.5,34.8z"/>
	<path fill="#FFFFFF" d="M34.7,36.8l-4.3-4.3c-0.2-0.2-0.7-0.2-0.9,0l-4.3,4.3c-0.2,0.2-0.2,0.7,0,0.9l4.3,4.3
		c0.2,0.2,0.7,0.2,0.9,0l4.3-4.3C34.9,37.5,34.9,37.1,34.7,36.8z"/>
	<path fill="#FFFFFF" d="M25.9,26.9l-4.3-4.3c-0.2-0.2-0.7-0.2-0.9,0l-4.3,4.3c-0.2,0.2-0.2,0.7,0,0.9l4.3,4.3
		c0.2,0.2,0.7,0.2,0.9,0l4.3-4.3C26.2,27.5,26.2,27.1,25.9,26.9z"/>
</g>
</svg>
