<?xml version="1.0" encoding="utf-8"?>
<!-- Generator: Adobe Illustrator 16.0.0, SVG Export Plug-In . SVG Version: 6.00 Build 0)  -->
<!DOCTYPE svg PUBLIC "-//W3C//DTD SVG 1.1//EN" "http://www.w3.org/Graphics/SVG/1.1/DTD/svg11.dtd">
<svg version="1.1" id="Layer_1" xmlns="http://www.w3.org/2000/svg" xmlns:xlink="http://www.w3.org/1999/xlink" x="0px" y="0px"
	 width="48px" height="48px" viewBox="0 0 48 48" enable-background="new 0 0 48 48" xml:space="preserve">
<g>
	<path fill="#CDD5DF" d="M45.25,10.559V1.571h-2.057v9.873c0,0.569,0.461,1.029,1.027,1.029c0.949,0,1.721,0.771,1.721,1.72
		c0,0.949-0.771,1.72-1.721,1.72c-0.947,0-1.721-0.771-1.721-1.72c0-0.569-0.459-1.029-1.027-1.029s-1.029,0.46-1.029,1.029
		c0,2.083,1.695,3.778,3.777,3.778c2.084,0,3.779-1.695,3.779-3.778C48,12.468,46.836,11.008,45.25,10.559"/>
	<path fill="#E7E9E8" d="M46.797,0.959c-0.607-0.961-1.879-1.246-2.84-0.642L11.818,20.618v4.867L46.156,3.798
		C47.117,3.19,47.404,1.92,46.797,0.959"/>
	<rect x="2.432" y="32.735" fill="#F7B64C" width="16.629" height="4.827"/>
	<path fill="#F26F5A" d="M48,35.889v4.243c0,1.255-1.018,2.271-2.273,2.271H27.852V22.051c0-1.313,1.064-2.377,2.377-2.377h9.834
		c0.973,0,1.844,0.59,2.207,1.491l5.559,13.838C47.941,35.285,48,35.585,48,35.889"/>
	<polygon fill="#F2F2F2" points="44.305,31.477 40.402,21.761 32.559,21.761 32.559,31.477 	"/>
	<polygon fill="#E7E9E8" points="35.893,21.76 32.559,25.093 32.559,26.773 37.572,21.76 	"/>
	<polygon fill="#E7E9E8" points="40.402,21.76 39.08,21.76 32.559,28.281 32.559,30.802 40.746,22.615 	"/>
	<rect y="36.601" fill="#334A5E" width="27.854" height="5.803"/>
	<path fill="#40596B" d="M44.273,41.653c0,3.505-2.844,6.347-6.348,6.347c-3.506,0-6.348-2.842-6.348-6.347s2.842-6.347,6.348-6.347
		C41.43,35.307,44.273,38.148,44.273,41.653"/>
	<path fill="#ABB2B9" d="M40.373,41.653c0,1.352-1.096,2.448-2.447,2.448s-2.447-1.097-2.447-2.448c0-1.353,1.096-2.448,2.447-2.448
		S40.373,40.301,40.373,41.653"/>
	<path fill="#40596B" d="M17.094,41.653c0,3.505-2.842,6.347-6.348,6.347s-6.348-2.842-6.348-6.347s2.842-6.347,6.348-6.347
		S17.094,38.148,17.094,41.653"/>
	<path fill="#ABB2B9" d="M13.193,41.653c0,1.352-1.096,2.448-2.447,2.448s-2.447-1.097-2.447-2.448c0-1.353,1.096-2.448,2.447-2.448
		S13.193,40.301,13.193,41.653"/>
	<path fill="#FFD15C" d="M21.492,33.338v-3.061c0-0.225-0.043-0.459-0.127-0.661l-4.16-10.379c-0.277-0.672-0.928-1.109-1.654-1.109
		H7.113c-0.98,0-1.781,0.789-1.781,1.781v8.171H1.873C0.838,28.08,0,28.919,0,29.954v3.384H21.492z"/>
	<polygon fill="#89D6F7" points="17.873,28.077 14.947,20.797 8.004,20.797 8.004,28.077 	"/>
	<polygon fill="#54BFEB" points="17.873,28.077 14.947,20.797 8.004,28.077 	"/>
</g>
</svg>
