<?xml version="1.0" encoding="utf-8"?>
<!-- Generator: Adobe Illustrator 18.0.0, SVG Export Plug-In . SVG Version: 6.00 Build 0)  -->
<!DOCTYPE svg PUBLIC "-//W3C//DTD SVG 1.1//EN" "http://www.w3.org/Graphics/SVG/1.1/DTD/svg11.dtd">
<svg version="1.1" id="Layer_1" xmlns="http://www.w3.org/2000/svg" xmlns:xlink="http://www.w3.org/1999/xlink" x="0px" y="0px"
	 viewBox="0 0 48 48" enable-background="new 0 0 48 48" xml:space="preserve">
<g>
	<path fill="#40596B" d="M47,6.2v28H1v-28c0-1.1,0.9-2,2-2h42C46.1,4.2,47,5.1,47,6.2z"/>
	<path fill="#CDD6E0" d="M38.5,46.7h-1.8c-1.7,0-3-1.3-3-3v-2.4H14.3v2.4c0,1.7-1.3,3-3,3H9.5c-0.3,0-0.6,0.3-0.6,0.6v0
		c0,0.3,0.3,0.6,0.6,0.6h29c0.3,0,0.6-0.3,0.6-0.6v0C39.1,47,38.8,46.7,38.5,46.7z"/>
	<rect x="4" y="7.2" fill="#FFFFFF" width="40" height="24"/>
	<path fill="#F2F2F2" d="M1,34.2v5.2c0,1.1,0.9,2,2,2h42c1.1,0,2-0.9,2-2v-5.2H1z"/>
	<circle fill="#CDD6E0" cx="24" cy="37.8" r="1.6"/>
	<rect x="14.3" y="41.4" fill="#C3D0DB" width="19.4" height="1.5"/>
	<polygon fill="#334A5E" points="40.7,4.2 40.5,7.2 7.5,7.2 7.3,4.2 	"/>
	<polygon fill="#F2F2F2" points="40.5,7.2 39.5,31.2 8.5,31.2 7.5,7.2 	"/>
	<rect x="8.5" y="4.2" fill="#CDD6E0" width="31" height="27"/>
	<path fill="#FF7058" d="M39.5,4.2h-31V2c0-1.1,0.9-2,2-2h27c1.1,0,2,0.9,2,2V4.2z"/>
	<g>
		<circle fill="#FFD15C" cx="11.7" cy="2.1" r="0.9"/>
		<circle fill="#FFD15C" cx="14.7" cy="2.1" r="0.9"/>
		<circle fill="#FFD15C" cx="17.7" cy="2.1" r="0.9"/>
	</g>
	<rect x="10.9" y="6.3" fill="#F2F2F2" width="26.2" height="12.9"/>
	<g>
		<rect x="31.7" y="7.7" fill="#4CDBC4" width="2.3" height="10.6"/>
		<rect x="27.3" y="9.3" fill="#84DBFF" width="2.3" height="8.9"/>
		<rect x="22.8" y="11" fill="#FFD05C" width="2.3" height="7.2"/>
		<rect x="18.4" y="7.3" fill="#F2705B" width="2.3" height="10.9"/>
		<rect x="13.9" y="12.8" fill="#84DBFF" width="2.3" height="5.4"/>
	</g>
	<g>
		<rect x="10.9" y="26.2" fill="#F2F2F2" width="14.6" height="2.3"/>
		<rect x="10.9" y="21.8" fill="#F2F2F2" width="26.2" height="2.3"/>
	</g>
</g>
</svg>
