<?xml version="1.0" encoding="utf-8"?>
<!-- Generator: Adobe Illustrator 16.0.0, SVG Export Plug-In . SVG Version: 6.00 Build 0)  -->
<!DOCTYPE svg PUBLIC "-//W3C//DTD SVG 1.1//EN" "http://www.w3.org/Graphics/SVG/1.1/DTD/svg11.dtd">
<svg version="1.1" id="Layer_1" xmlns="http://www.w3.org/2000/svg" xmlns:xlink="http://www.w3.org/1999/xlink" x="0px" y="0px"
	 width="48px" height="48px" viewBox="0 0 48 48" enable-background="new 0 0 48 48" xml:space="preserve">
<g>
	<path fill="#F2F2F2" d="M24,0C10.75,0,0,10.74,0,24c0,13.25,10.75,24,24,24c13.26,0,24-10.75,24-24C48,10.74,37.26,0,24,0
		 M24,35.537c-6.369,0-11.538-5.168-11.538-11.537S17.631,12.463,24,12.463c6.368,0,11.537,5.168,11.537,11.537
		S30.368,35.537,24,35.537"/>
	<path fill="#FF7058" d="M24,12.463c2.142,0,4.141,0.594,5.859,1.613l6.343-10.742C32.627,1.219,28.458,0,24,0
		c-4.456,0-8.626,1.219-12.202,3.336l6.342,10.74C19.858,13.057,21.857,12.463,24,12.463"/>
	<path fill="#FF7058" d="M12.462,24c0-0.037,0.005-0.074,0.006-0.113L0.006,23.766C0.005,23.844,0,23.922,0,24
		c0,8.963,4.922,16.775,12.205,20.896l6.127-10.854C14.831,32.061,12.462,28.309,12.462,24"/>
	<path fill="#FF7058" d="M48,24c0-0.078-0.006-0.156-0.007-0.234l-12.462,0.121c0,0.039,0.006,0.076,0.006,0.113
		c0,4.309-2.368,8.061-5.87,10.043l6.128,10.855C43.081,40.779,48,32.965,48,24"/>
</g>
</svg>
