<?xml version="1.0" encoding="utf-8"?>
<!-- Generator: Adobe Illustrator 18.0.0, SVG Export Plug-In . SVG Version: 6.00 Build 0)  -->
<!DOCTYPE svg PUBLIC "-//W3C//DTD SVG 1.1//EN" "http://www.w3.org/Graphics/SVG/1.1/DTD/svg11.dtd">
<svg version="1.1" id="Layer_1" xmlns="http://www.w3.org/2000/svg" xmlns:xlink="http://www.w3.org/1999/xlink" x="0px" y="0px"
	 viewBox="0 0 48 48" enable-background="new 0 0 48 48" xml:space="preserve">
<g>
	<path fill="#CDD6E0" d="M27.7,18.8H14.9v-3.2c0-1.1,0.9-2,2-2h8.8c1.1,0,2,0.9,2,2V18.8z"/>
	<polygon fill="#334A5E" points="37.3,28.9 46,28.9 48,38.9 43.8,38.9 	"/>
	<polygon fill="#40596B" points="37.3,28.9 46,28.9 48,18.8 43.8,18.8 	"/>
	<path fill="#F2F2F2" d="M38.1,21.4c-9.2-6.3-24.3-6.3-33.6,0h0c-6,4.1-6,10.8,0,14.9l0,0c9.2,6.3,24.3,6.3,33.6,0v0
		C44.1,32.2,44.1,25.5,38.1,21.4z"/>
	<path fill="#CDD6E0" d="M38.1,24.9c-9.2-3.3-24.3-3.3-33.6,0h0c-6,2.2-6,5.7,0,7.9l0,0c9.2,3.3,24.3,3.3,33.6,0v0
		C44.1,30.7,44.1,27.1,38.1,24.9z"/>
	<path fill="#FF7058" d="M4.5,21.4c-6,4.1-6,10.8,0,14.9l0,0c0,0,0,0,0.1,0c2-1.9,3.3-4.5,3.3-7.5C7.9,25.9,6.7,23.2,4.5,21.4
		C4.6,21.4,4.6,21.4,4.5,21.4L4.5,21.4z"/>
	<g>
		<circle fill="#FFFFFF" cx="14.5" cy="28.9" r="2.7"/>
		<circle fill="#FFFFFF" cx="22.3" cy="28.9" r="2.7"/>
		<circle fill="#FFFFFF" cx="30.1" cy="28.9" r="2.7"/>
		<path fill="#F2F2F2" d="M30.1,26.7c1.4,0,2.6,1.1,2.7,2.5c0-0.1,0-0.2,0-0.3c0-1.5-1.2-2.7-2.7-2.7c-1.5,0-2.7,1.2-2.7,2.7
			c0,0.1,0,0.2,0,0.3C27.6,27.8,28.7,26.7,30.1,26.7z"/>
		<path fill="#F2F2F2" d="M22.3,26.7c1.4,0,2.6,1.1,2.7,2.5c0-0.1,0-0.2,0-0.3c0-1.5-1.2-2.7-2.7-2.7c-1.5,0-2.7,1.2-2.7,2.7
			c0,0.1,0,0.2,0,0.3C19.8,27.8,20.9,26.7,22.3,26.7z"/>
		<path fill="#F2F2F2" d="M14.5,26.7c1.4,0,2.6,1.1,2.7,2.5c0-0.1,0-0.2,0-0.3c0-1.5-1.2-2.7-2.7-2.7c-1.5,0-2.7,1.2-2.7,2.7
			c0,0.1,0,0.2,0,0.3C12,27.8,13.1,26.7,14.5,26.7z"/>
	</g>
	<path fill="#ACB3BA" d="M22.8,13.6h-3V10h-2.2V7H20c1.5,0,2.8,1.3,2.8,2.8V13.6z"/>
</g>
</svg>
