<?xml version="1.0" encoding="utf-8"?>
<!-- Generator: Adobe Illustrator 18.0.0, SVG Export Plug-In . SVG Version: 6.00 Build 0)  -->
<!DOCTYPE svg PUBLIC "-//W3C//DTD SVG 1.1//EN" "http://www.w3.org/Graphics/SVG/1.1/DTD/svg11.dtd">
<svg version="1.1" id="Layer_1" xmlns="http://www.w3.org/2000/svg" xmlns:xlink="http://www.w3.org/1999/xlink" x="0px" y="0px"
	 viewBox="0 0 48 48" enable-background="new 0 0 48 48" xml:space="preserve">
<g>
	<g>
		<g>
			<polygon fill="#E8EAE9" points="48,41.9 48,45.5 0,45.5 0,41.9 9.9,41.9 9.9,23.9 13.5,23.9 13.5,41.9 34.5,41.9 34.5,23.9 
				38.1,23.9 38.1,41.9 			"/>
		</g>
		<g>
			<g>
				<path fill="#344A5E" d="M16.3,12.6c0.7-1.8,1.1-3.7,1.1-4.9c0-3.8-2.6-5.7-5.7-5.7C8.6,2,6,3.9,6,7.7c0,1.3,0.4,3.1,1.1,4.9
					H16.3z"/>
			</g>
			<g>
				<path fill="#415A6B" d="M23.4,24.8l-0.9-4.3c-0.2-0.9-0.8-1.6-1.6-1.9c-6.2-2.4-12.3-2.4-18.5,0c-0.8,0.3-1.4,1-1.6,1.9L0,24.8
					H23.4z"/>
				<g>
					<polygon fill="#CED6E0" points="13.6,24.8 15.1,19.7 8.3,19.7 9.9,24.8 					"/>
				</g>
				<g>
					<polygon fill="#F3705A" points="12.5,22 13.3,21.2 11.7,19.7 10.2,21.2 10.9,22 					"/>
					<polygon fill="#F3705A" points="13.2,24.8 12.5,22 10.9,22 10.3,24.8 					"/>
				</g>
				<g>
					<g>
						<g>
							<polygon fill="#F3F3F3" points="11.7,19.7 15.1,15.3 15.9,16.9 13.8,22 							"/>
						</g>
						<g>
							<polygon fill="#F3F3F3" points="11.7,19.7 8.3,15.3 7.5,16.9 9.7,22 							"/>
						</g>
					</g>
					<polygon fill="#F7B64C" points="8.3,14 11.7,9.7 15.1,14 15.1,15.3 11.7,19.7 8.3,15.3 					"/>
				</g>
				<g>
					<g>
						<polygon fill="#344A5E" points="15.3,24.8 17.6,20.9 16.2,19.7 18,18.8 15.4,15.9 13.2,24.8 						"/>
					</g>
					<g>
						<polygon fill="#344A5E" points="5.8,20.9 8.1,24.8 10.2,24.8 8.1,15.9 5.5,18.8 7.3,19.7 						"/>
					</g>
				</g>
			</g>
			<g>
				<path fill="#FFD15C" d="M16.3,6.9c0.4,0.9,0.6,1.9,0.6,3c0,3.6-2.3,6.6-5.1,6.6c-2.8,0-5.1-2.9-5.1-6.6C6.6,9,6.7,8.2,7,7.4
					C9.2,5.3,10.5,9.3,16.3,6.9z"/>
			</g>
			<g>
				
					<ellipse transform="matrix(0.9931 0.1176 -0.1176 0.9931 1.4143 -1.8836)" fill="#FFD15C" cx="16.7" cy="11" rx="0.9" ry="1.4"/>
				<g>
					
						<ellipse transform="matrix(-0.9931 0.1175 -0.1175 -0.9931 14.7988 21.2223)" fill="#FFD15C" cx="6.8" cy="11" rx="0.9" ry="1.4"/>
				</g>
			</g>
		</g>
		<g>
			<g>
				<path fill="#344A5E" d="M40.9,12.6C41.6,10.8,42,9,42,7.7C42,3.9,39.4,2,36.3,2c-3.2,0-5.7,1.9-5.7,5.7c0,1.3,0.4,3.1,1.1,4.9
					H40.9z"/>
			</g>
			<g>
				<g>
					<polygon fill="#55C0EB" points="36.3,15.9 46.9,18.3 48,24.8 24.6,24.8 25.7,18.3 25.7,18.3 					"/>
				</g>
				<g>
					<polygon fill="#CED6E0" points="38.1,24.8 39.7,19.7 32.9,19.7 34.4,24.8 					"/>
				</g>
				<g>
					<polygon fill="#415A6B" points="37.1,22 37.8,21.2 36.3,19.7 34.7,21.2 35.5,22 					"/>
					<polygon fill="#415A6B" points="37.7,24.8 37.1,22 35.5,22 34.8,24.8 					"/>
				</g>
				<g>
					<g>
						<g>
							<polygon fill="#F3F3F3" points="36.3,19.7 39.7,15.3 40.5,16.9 38.3,22 							"/>
						</g>
						<g>
							<polygon fill="#F3F3F3" points="36.3,19.7 32.9,15.3 32.1,16.9 34.2,22 							"/>
						</g>
					</g>
					<polygon fill="#F7B64C" points="32.9,14 36.3,9.7 39.7,14 39.7,15.3 36.3,19.7 32.9,15.3 					"/>
				</g>
				<g>
					<g>
						<polygon fill="#8AD7F8" points="39.9,24.8 42.2,20.9 40.7,19.7 42.5,18.8 39.9,15.9 37.8,24.8 						"/>
					</g>
					<g>
						<polygon fill="#8AD7F8" points="30.4,20.9 32.7,24.8 34.8,24.8 32.6,15.9 30,18.8 31.8,19.7 						"/>
					</g>
				</g>
			</g>
			<g>
				<path fill="#FFD15C" d="M40.8,6.9c0.4,0.9,0.6,1.9,0.6,3c0,3.6-2.3,6.6-5.1,6.6s-5.1-2.9-5.1-6.6c0-0.9,0.1-1.7,0.4-2.5
					C33.4,9.3,37.8,9,40.8,6.9z"/>
			</g>
			<g>
				<ellipse transform="matrix(0.9931 0.1176 -0.1176 0.9931 1.5846 -4.77)" fill="#FFD15C" cx="41.2" cy="11" rx="0.9" ry="1.4"/>
				<g>
					
						<ellipse transform="matrix(-0.9931 0.1176 -0.1176 -0.9931 63.7358 18.3358)" fill="#FFD15C" cx="31.3" cy="11" rx="0.9" ry="1.4"/>
				</g>
			</g>
		</g>
		<g>
			<polygon fill="#F3705A" points="38.6,41.4 38.6,39.4 34,39.4 34,41.4 31.5,41.4 31.5,46 41.1,46 41.1,41.4 			"/>
			<polygon fill="#F3705A" points="16,41.4 14,41.4 14,39.4 9.4,39.4 9.4,41.4 6.9,41.4 6.9,46 16,46 			"/>
		</g>
	</g>
</g>
</svg>
