<?xml version="1.0" encoding="utf-8"?>
<!-- Generator: Adobe Illustrator 18.0.0, SVG Export Plug-In . SVG Version: 6.00 Build 0)  -->
<!DOCTYPE svg PUBLIC "-//W3C//DTD SVG 1.1//EN" "http://www.w3.org/Graphics/SVG/1.1/DTD/svg11.dtd">
<svg version="1.1" id="Layer_1" xmlns="http://www.w3.org/2000/svg" xmlns:xlink="http://www.w3.org/1999/xlink" x="0px" y="0px"
	 viewBox="0 0 48 48" enable-background="new 0 0 48 48" xml:space="preserve">
<g>
	<g>
		<path fill="#F3F3F3" d="M42.4,14.8c-0.8-3.1-3-5.7-6.2-6.9c-1.8-0.7-3.7-0.8-5.5-0.4c-2.3-5.7-8.6-8.8-14.6-7
			c-5.4,1.7-8.7,6.8-8.4,12.2c0,0,0,0,0,0c-4.3,0-7.7,3.4-7.7,7.7S3.4,28,7.7,28h33.6c3.7,0,6.7-3,6.7-6.7
			C48,18,45.6,15.3,42.4,14.8z"/>
	</g>
	<g>
		<g>
			<g>
				<path fill="#8AD7F8" d="M9.2,38.6c-0.3,1.2-1.6,1.8-2.7,1.5S4.6,38.6,5,37.4c0.3-1.2,3.4-3.6,3.4-3.6S9.6,37.5,9.2,38.6z"/>
			</g>
			<g>
				<path fill="#8AD7F8" d="M20.3,38.6c-0.3,1.2-1.6,1.8-2.7,1.5c-1.2-0.3-1.8-1.6-1.5-2.7c0.3-1.2,3.4-3.6,3.4-3.6
					S20.7,37.5,20.3,38.6z"/>
			</g>
			<g>
				<path fill="#8AD7F8" d="M31.4,38.6c-0.3,1.2-1.6,1.8-2.7,1.5s-1.8-1.6-1.5-2.7c0.3-1.2,3.4-3.6,3.4-3.6S31.8,37.5,31.4,38.6z"/>
			</g>
			<g>
				<path fill="#8AD7F8" d="M42.5,38.6c-0.3,1.2-1.6,1.8-2.7,1.5c-1.2-0.3-1.8-1.6-1.5-2.7c0.3-1.2,3.4-3.6,3.4-3.6
					S42.9,37.5,42.5,38.6z"/>
			</g>
		</g>
		<g>
			<g>
				<path fill="#8AD7F8" d="M14.8,46.5c-0.3,1.2-1.6,1.8-2.7,1.5c-1.2-0.3-1.8-1.6-1.5-2.7c0.3-1.2,3.4-3.6,3.4-3.6
					S15.1,45.3,14.8,46.5z"/>
			</g>
			<g>
				<path fill="#8AD7F8" d="M25.9,46.5c-0.3,1.2-1.6,1.8-2.7,1.5c-1.2-0.3-1.8-1.6-1.5-2.7c0.3-1.2,3.4-3.6,3.4-3.6
					S26.2,45.3,25.9,46.5z"/>
			</g>
			<g>
				<path fill="#8AD7F8" d="M37,46.5c-0.3,1.2-1.6,1.8-2.7,1.5c-1.2-0.3-1.8-1.6-1.5-2.7c0.3-1.2,3.4-3.6,3.4-3.6S37.3,45.3,37,46.5
					z"/>
			</g>
		</g>
	</g>
</g>
</svg>
