<?xml version="1.0" encoding="utf-8"?>
<!-- Generator: Adobe Illustrator 18.0.0, SVG Export Plug-In . SVG Version: 6.00 Build 0)  -->
<!DOCTYPE svg PUBLIC "-//W3C//DTD SVG 1.1//EN" "http://www.w3.org/Graphics/SVG/1.1/DTD/svg11.dtd">
<svg version="1.1" id="Layer_1" xmlns="http://www.w3.org/2000/svg" xmlns:xlink="http://www.w3.org/1999/xlink" x="0px" y="0px"
	 viewBox="0 0 48 48" enable-background="new 0 0 48 48" xml:space="preserve">
<g>
	<g>
		<g>
			<g>
				<g>
					<g>
						<g>
							<path fill="#FFD15C" d="M15.8,7.6c-0.7-1.5,0.8-6.2,0.8-6.2c-2.4-0.8-1.7,1.8-2.5,1.6c-1.6-0.3-2.8,0.5-3.5,2.1
								C10.3,5.9,8.5,4,7.9,6.4c0,0,4.7,1.1,5.7,2.5C14.4,8.4,15.1,8,15.8,7.6z"/>
						</g>
						<g>
							<path fill="#FFD15C" d="M17.4,15.5c0.7,1.5-0.8,6.2-0.8,6.2c2.4,0.8,1.7-1.8,2.5-1.6c1.6,0.3,2.8-0.5,3.5-2.1
								c0.3-0.7,2.1,1.1,2.7-1.2c0,0-4.7-1.1-5.7-2.5C18.9,14.7,18.2,15.1,17.4,15.5z"/>
						</g>
					</g>
				</g>
				<g>
					<path fill="#FFD15C" d="M15.1,17l-3.8-6.7c-0.5-0.9-0.2-2,0.7-2.5l4-2.3c0.9-0.5,2-0.2,2.5,0.7l3.8,6.7c0.5,0.9,0.2,2-0.7,2.5
						l-4,2.3C16.7,18.1,15.6,17.8,15.1,17z"/>
				</g>
			</g>
			<g>
				<g>
					<g>
						<g>
							<path fill="#FFD15C" d="M34.1,23.7c-1.1-0.3-1.7-1.4-1.4-2.4l3-11.1c0.8-3.1,4.1-5,7.2-4.2c3.1,0.8,5,4.1,4.2,7.2l-0.4,1.5
								c-0.3,1.1-1.4,1.7-2.4,1.4c-1.1-0.3-1.7-1.4-1.4-2.4l0.4-1.5c0.3-1-0.3-2.1-1.4-2.4c-1-0.3-2.1,0.3-2.4,1.4l-3,11.1
								C36.2,23.3,35.2,24,34.1,23.7z"/>
						</g>
					</g>
					<g>
						<path fill="#F3705A" d="M32.7,21.3c-0.1,0.3-0.1,0.6,0,0.8l4.1-0.8l0.6-2.2l-4.3,0.8L32.7,21.3z"/>
						<path fill="#F3705A" d="M43.5,15.9l2.8-0.5c0.1-0.2,0.2-0.4,0.3-0.6l0.4-1.5c0,0,0-0.1,0-0.1l-4.3,0.8
							C42.6,14.7,42.9,15.4,43.5,15.9z"/>
						<polygon fill="#F3705A" points="34.3,15.5 33.7,17.7 38,16.9 38.5,14.7 						"/>
						<path fill="#F3705A" d="M41.8,9.9c0.9,0.2,1.4,1,1.4,1.8l3.9-0.7c-0.1-0.7-0.3-1.4-0.6-2L41.8,9.9C41.8,9.9,41.8,9.9,41.8,9.9
							z"/>
						<path fill="#F3705A" d="M39.5,11.2c0.1-0.5,0.4-0.8,0.8-1.1l-4.8,0.9l-0.6,2.2l4.3-0.8L39.5,11.2z"/>
						<path fill="#F3705A" d="M42.8,6.1c-2.6-0.7-5.3,0.5-6.6,2.7L45,7.2C44.4,6.7,43.7,6.3,42.8,6.1z"/>
					</g>
				</g>
			</g>
			<g>
				<g>
					<g>
						<g>
							<path fill="#4EC0AA" d="M33.5,18.1c1.1-0.2,1.7-1.3,1.5-2.4L32.5,4.6c-0.7-3.2-3.9-5.2-7-4.4S20.3,4,21,7.1l0.3,1.5
								c0.2,1.1,1.3,1.7,2.4,1.5s1.7-1.3,1.5-2.4l-0.3-1.5c-0.2-1,0.4-2.1,1.5-2.3c1-0.2,2.1,0.4,2.3,1.5l2.5,11.2
								C31.4,17.7,32.5,18.4,33.5,18.1z"/>
						</g>
					</g>
					<g>
						<path fill="#CED6E0" d="M35,15.8c0.1,0.3,0.1,0.6,0,0.8L31,15.7l-0.5-2.2l4.3,1L35,15.8z"/>
						<path fill="#CED6E0" d="M24.4,9.9l-2.8-0.6c-0.1-0.2-0.2-0.4-0.2-0.6L21,7.1c0,0,0-0.1,0-0.1l4.2,1C25.4,8.8,25,9.5,24.4,9.9z
							"/>
						<polygon fill="#CED6E0" points="33.7,9.9 34.2,12.2 29.9,11.2 29.4,8.9 						"/>
						<path fill="#CED6E0" d="M26.3,4c-0.9,0.2-1.4,0.9-1.5,1.8L21,4.9c0.1-0.7,0.4-1.4,0.7-2L26.3,4C26.4,4,26.4,4,26.3,4z"/>
						<path fill="#CED6E0" d="M28.7,5.4c-0.1-0.5-0.4-0.8-0.7-1.1l4.8,1.1l0.5,2.2l-4.3-1L28.7,5.4z"/>
						<path fill="#CED6E0" d="M25.5,0.1c2.6-0.6,5.3,0.7,6.5,3l-8.7-2C23.9,0.7,24.7,0.3,25.5,0.1z"/>
					</g>
				</g>
			</g>
			<g>
				<g>
					<g>
						<g>
							<g>
								<path fill="#66C6B9" d="M11.9,20.4v8.3l-2.3,0.2c-5.4,0.5-9.4,5.3-8.7,10.7C1.5,44.7,6,48.4,11.2,48l20-1.7
									c5-0.4,8.8-4.6,8.8-9.5V20.4H11.9z"/>
							</g>
							<g>
								<path fill="#F3F3F3" d="M11.8,10.8H40c1.2,0,2.2,1,2.2,2.2v6.7c0,1.2-1,2.2-2.2,2.2H11.8c-1.2,0-2.2-1-2.2-2.2V13
									C9.6,11.8,10.6,10.8,11.8,10.8z"/>
							</g>
						</g>
					</g>
					<g>
						<path fill="#FFFFFF" d="M11.9,25.2c0.9-0.6,2-0.9,3-0.9c2.2-0.1,4.4,0.7,6.5,1.6l0.5,0.2c2,0.8,4.1,1.7,6.3,1.9
							c0.3,0,0.5,0,0.8,0c3.6,0,6.8-1.7,10.1-3.4c0.3-0.1,0.6-0.3,0.8-0.4V23c-0.5,0.2-0.9,0.5-1.4,0.7c-3.3,1.7-6.7,3.5-10.3,3.2
							c-2.1-0.1-4.1-1-6-1.8l-0.5-0.2c-2.2-0.9-4.5-1.8-6.9-1.7c-1,0-2,0.3-3,0.8V25.2z"/>
						<path fill="#FFFFFF" d="M39.9,26.7v-1.2c-0.5,0.2-0.9,0.4-1.4,0.7c-3.3,1.7-6.7,3.5-10.3,3.2c-2.1-0.1-4.1-1-6-1.8l-0.5-0.2
							c-2.2-0.9-4.5-1.8-6.9-1.7c-1,0-2,0.3-3,0.8v1.2c0.9-0.6,2-0.9,3-0.9c2.2-0.1,4.4,0.7,6.5,1.6l0.5,0.2c2,0.8,4.1,1.7,6.3,1.9
							c0.3,0,0.5,0,0.8,0c3.6,0,6.8-1.7,10.1-3.4C39.4,26.9,39.6,26.8,39.9,26.7z"/>
					</g>
				</g>
				<g>
					<path fill="#F3F3F3" d="M39.9,30.4v6.4c0,5-3.8,9.1-8.8,9.5l-4.5,0.4c-1-2.7-1-5.7,0-8.5C28.7,32.7,34.3,29.5,39.9,30.4z"/>
				</g>
			</g>
		</g>
		<g>
			<g>
				<g>
					<g>
						<g>
							<g>
								<circle fill="#415A6B" cx="29.9" cy="29.3" r="1.1"/>
							</g>
						</g>
						<g>
							<g>
								<path fill="#415A6B" d="M31,32.2l-2.3,0h0c0.4-0.6,0.6-1.4,0.7-2.1l0-0.8l1,0l0,0.9C30.4,30.8,30.6,31.5,31,32.2L31,32.2z"
									/>
							</g>
						</g>
					</g>
				</g>
				<g>
					<g>
						<g>
							<circle fill="#415A6B" cx="24.2" cy="27.8" r="1.1"/>
						</g>
					</g>
					<g>
						<g>
							<path fill="#415A6B" d="M25.2,30.7l-2.3,0l0,0c0.4-0.6,0.6-1.4,0.7-2.1l0-0.8l1,0l0,0.9C24.7,29.3,24.8,30,25.2,30.7
								L25.2,30.7z"/>
						</g>
					</g>
				</g>
			</g>
			<g>
				<g>
					<g>
						<path fill="#415A6B" d="M28.9,24.1c-1.5,0-3.3-1.5-3.4-1.6l-0.4-0.4l0.4-0.4c0.1-0.1,1.8-1.6,3.4-1.6c1.8,0,2.4,1,2.4,2
							C31.4,23,30.7,24.1,28.9,24.1z M26.7,22.1c0.6,0.4,1.5,1,2.2,1c0.9,0,1.4-0.3,1.4-1s-0.5-1-1.4-1
							C28.2,21.1,27.3,21.7,26.7,22.1z"/>
					</g>
				</g>
				<g>
					<g>
						<path fill="#415A6B" d="M22.8,24.1c-1.8,0-2.4-1-2.4-2s0.6-2,2.4-2c1.5,0,3.3,1.5,3.4,1.6l0.4,0.4l-0.4,0.4
							C26.2,22.5,24.4,24.1,22.8,24.1z M22.8,21.1c-0.9,0-1.4,0.3-1.4,1s0.5,1,1.4,1c0.7,0,1.6-0.5,2.2-1
							C24.5,21.7,23.6,21.1,22.8,21.1z"/>
					</g>
				</g>
			</g>
			<g>
				<g>
					<path fill="#415A6B" d="M29.4,29.2c-0.1-1.3-0.7-2.3-1.8-2.8c-2.6-1.2-2.5-3.4-2.2-4.5l0.9,0.4l-0.5-0.2l0.5,0.2
						c-0.1,0.2-0.7,2.1,1.6,3.2c1.5,0.7,2.3,2,2.4,3.7L29.4,29.2z"/>
				</g>
			</g>
			<g>
				<g>
					<path fill="#415A6B" d="M23.6,28.2c0-4,1.7-5.9,1.8-6l0.7,0.7c0,0-1.6,1.7-1.5,5.3L23.6,28.2z"/>
				</g>
			</g>
		</g>
	</g>
</g>
</svg>
