<?xml version="1.0" encoding="utf-8"?>
<!-- Generator: Adobe Illustrator 20.1.0, SVG Export Plug-In . SVG Version: 6.00 Build 0)  -->
<!DOCTYPE svg PUBLIC "-//W3C//DTD SVG 1.1//EN" "http://www.w3.org/Graphics/SVG/1.1/DTD/svg11.dtd">
<svg version="1.1" id="Layer_1" xmlns="http://www.w3.org/2000/svg" xmlns:xlink="http://www.w3.org/1999/xlink" x="0px" y="0px"
	 viewBox="0 0 49 49" enable-background="new 0 0 49 49" xml:space="preserve">
<g>
	<path fill="#F2F2F2" d="M41.9,17.9v19.8c0,1.1-0.9,2-2,2H9.1c-1.1,0-2-0.9-2-2V17.9c0,0,0,0,0,0c0-2.9,0.7-5.6,1.9-8
		c2.9-5.6,8.7-9.4,15.5-9.4c4.8,0,9.2,1.9,12.3,5.1c1.8,1.8,3.2,4,4.1,6.4C41.6,13.8,41.9,15.8,41.9,17.9z"/>
	<path fill="#FFD15C" d="M29.2,39.8v4.1c0,2.6-2.1,4.7-4.7,4.7c-2.6,0-4.7-2.1-4.7-4.7v-4.1H29.2z"/>
	<path fill="#FF7058" d="M40.9,12C29.6,10,18.3,20.7,7.1,18v-0.1c0-9.6,7.8-17.4,17.4-17.4c4.8,0,9.2,1.9,12.3,5.1
		C38.6,7.4,40,9.6,40.9,12z"/>
	<rect x="19.8" y="39.8" fill="#F8B64C" width="9.4" height="1.5"/>
	<path fill="#FF7058" d="M29.9,9.9l-3.7,11.3c-0.5,1.4-1.4,2.2-2.3,2.2c-0.9,0-1.8-0.7-2.3-2.2c-1-2.9-3.6-2.9-4.5,0l-2.3,6.9
		c-1,2.9-3.6,2.9-4.5,0l-3.1-9.3c0-0.1-0.1-0.3-0.2-0.4v-0.6c0,0,0,0,0,0c0-2.9,0.7-5.6,1.9-8H29.9z"/>
</g>
</svg>
