<?xml version="1.0" encoding="utf-8"?>
<!-- Generator: Adobe Illustrator 18.0.0, SVG Export Plug-In . SVG Version: 6.00 Build 0)  -->
<!DOCTYPE svg PUBLIC "-//W3C//DTD SVG 1.1//EN" "http://www.w3.org/Graphics/SVG/1.1/DTD/svg11.dtd">
<svg version="1.1" id="Layer_1" xmlns="http://www.w3.org/2000/svg" xmlns:xlink="http://www.w3.org/1999/xlink" x="0px" y="0px"
	 viewBox="0 0 48 48" enable-background="new 0 0 48 48" xml:space="preserve">
<g>
	<path fill="#40596B" d="M46.3,17.8V46c0,1.1-0.9,2-2,2H3.7c-1.1,0-2-0.9-2-2V17.8H46.3z"/>
	<path fill="#84DBFF" d="M6.9,14.2H0V10c0-1.1,0.9-2,2-2h4.9V14.2z"/>
	<rect x="6.9" y="8" fill="#F2F2F2" width="6.9" height="6.2"/>
	<rect x="13.7" y="8" fill="#84DBFF" width="6.9" height="6.2"/>
	<rect x="20.6" y="8" fill="#F2F2F2" width="6.9" height="6.2"/>
	<rect x="27.4" y="8" fill="#84DBFF" width="6.9" height="6.2"/>
	<rect x="34.3" y="8" fill="#F2F2F2" width="6.9" height="6.2"/>
	<path fill="#84DBFF" d="M48,14.2h-6.9V8H46c1.1,0,2,0.9,2,2V14.2z"/>
	<path fill="#334A5E" d="M46.3,17.8v4.1c-0.5,0.3-1.1,0.5-1.7,0.5c-1.9,0-3.4-1.5-3.4-3.4c0,1.9-1.5,3.4-3.4,3.4
		c-1.9,0-3.4-1.5-3.4-3.4c0,1.9-1.5,3.4-3.4,3.4c-1.9,0-3.4-1.5-3.4-3.4c0,1.9-1.5,3.4-3.4,3.4s-3.4-1.5-3.4-3.4
		c0,1.9-1.5,3.4-3.4,3.4c-1.9,0-3.4-1.5-3.4-3.4c0,1.9-1.5,3.4-3.4,3.4c-1.9,0-3.4-1.5-3.4-3.4c0,1.9-1.5,3.4-3.4,3.4
		c-0.6,0-1.2-0.2-1.7-0.5v-4.1H46.3z"/>
	<path fill="#54C0EB" d="M3.4,21.4L3.4,21.4C1.5,21.4,0,19.8,0,18v-3.8h6.9V18C6.9,19.8,5.3,21.4,3.4,21.4z"/>
	<path fill="#E2E2E2" d="M10.3,21.4L10.3,21.4c-1.9,0-3.4-1.5-3.4-3.4v-3.8h6.9V18C13.7,19.8,12.2,21.4,10.3,21.4z"/>
	<path fill="#54C0EB" d="M17.1,21.4L17.1,21.4c-1.9,0-3.4-1.5-3.4-3.4v-3.8h6.9V18C20.6,19.8,19,21.4,17.1,21.4z"/>
	<path fill="#E2E2E2" d="M24,21.4L24,21.4c-1.9,0-3.4-1.5-3.4-3.4v-3.8h6.9V18C27.4,19.8,25.9,21.4,24,21.4z"/>
	<path fill="#54C0EB" d="M30.9,21.4L30.9,21.4c-1.9,0-3.4-1.5-3.4-3.4v-3.8h6.9V18C34.3,19.8,32.8,21.4,30.9,21.4z"/>
	<path fill="#E2E2E2" d="M37.7,21.4L37.7,21.4c-1.9,0-3.4-1.5-3.4-3.4v-3.8h6.9V18C41.1,19.8,39.6,21.4,37.7,21.4z"/>
	<path fill="#54C0EB" d="M44.6,21.4L44.6,21.4c-1.9,0-3.4-1.5-3.4-3.4v-3.8H48V18C48,19.8,46.5,21.4,44.6,21.4z"/>
	<path fill="#ACB3BA" d="M6.1,48V34.6c0-4.2,3.4-7.6,7.6-7.6l0,0c4.2,0,7.6,3.4,7.6,7.6V48H6.1z"/>
	<g>
		<rect x="28" y="33" fill="#FF7058" width="5.3" height="5.3"/>
		<rect x="28" y="39.3" fill="#FF7058" width="5.3" height="5.3"/>
		<rect x="34.3" y="33" fill="#FF7058" width="5.3" height="5.3"/>
		<rect x="34.3" y="39.3" fill="#FF7058" width="5.3" height="5.3"/>
	</g>
	<path fill="#FFD15C" d="M39.7,10.7H8.3V2c0-1.1,0.9-2,2-2h27.3c1.1,0,2,0.9,2,2V10.7z"/>
	<g>
		<path fill="#FF7058" d="M16.3,5.3c0.4-0.1,0.8-0.5,0.8-1.1c0-0.6-0.5-1.2-1.4-1.2h-2.5v4.7h2.5c0.9,0,1.4-0.6,1.4-1.3
			C17.2,5.8,16.8,5.3,16.3,5.3z M14.3,3.9h1.3c0.3,0,0.5,0.2,0.5,0.5c0,0.3-0.2,0.5-0.5,0.5h-1.3V3.9z M15.6,6.8h-1.3V5.7h1.3
			c0.4,0,0.6,0.2,0.6,0.5C16.2,6.6,16,6.8,15.6,6.8z"/>
		<path fill="#FF7058" d="M20.2,3l-1.8,4.7h1.1l0.3-0.8h2l0.3,0.8h1.1L21.5,3H20.2z M20.1,6l0.7-2l0.7,2H20.1z"/>
		<polygon fill="#FF7058" points="27.8,5.9 25.6,3 24.6,3 24.6,7.7 25.6,7.7 25.6,4.6 27.9,7.7 28.8,7.7 28.8,3 27.8,3 		"/>
		<polygon fill="#FF7058" points="32.7,5.2 34.6,3 33.3,3 31.7,5.1 31.7,3 30.7,3 30.7,7.7 31.7,7.7 31.7,6.2 32,5.8 33.5,7.7 
			34.7,7.7 		"/>
	</g>
</g>
</svg>
