<?xml version="1.0" encoding="utf-8"?>
<!-- Generator: Adobe Illustrator 18.0.0, SVG Export Plug-In . SVG Version: 6.00 Build 0)  -->
<!DOCTYPE svg PUBLIC "-//W3C//DTD SVG 1.1//EN" "http://www.w3.org/Graphics/SVG/1.1/DTD/svg11.dtd">
<svg version="1.1" id="Layer_1" xmlns="http://www.w3.org/2000/svg" xmlns:xlink="http://www.w3.org/1999/xlink" x="0px" y="0px"
	 viewBox="0 0 48 48" enable-background="new 0 0 48 48" xml:space="preserve">
<g>
	<polygon fill="#40596B" points="7,16.6 7,42 13,48 35,48 41,42 41,16.6 	"/>
	<path fill="#ACB3BA" d="M39.3,8.1h-3.2V6c0-3.3-2.7-6-6-6H17.9c-3.3,0-6,2.7-6,6v2.1H8.7c-2.8,0-5,2.2-5,5v3.5h40.6v-3.5
		C44.3,10.3,42.1,8.1,39.3,8.1z M15.9,6c0-1.1,0.9-2,2-2h12.1c1.1,0,2,0.9,2,2v2.1H15.9V6z"/>
	<rect x="7" y="16.6" fill="#334A5E" width="34" height="1.5"/>
	<g>
		<path fill="#334A5E" d="M14.1,41.2L14.1,41.2c-1.6,0-2.9-1.3-2.9-2.9V22.6c0-1.6,1.3-2.9,2.9-2.9h0c1.6,0,2.9,1.3,2.9,2.9v15.7
			C17,39.9,15.7,41.2,14.1,41.2z"/>
		<path fill="#334A5E" d="M24,41.2L24,41.2c-1.6,0-2.9-1.3-2.9-2.9V22.6c0-1.6,1.3-2.9,2.9-2.9h0c1.6,0,2.9,1.3,2.9,2.9v15.7
			C26.9,39.9,25.6,41.2,24,41.2z"/>
		<path fill="#334A5E" d="M33.9,41.2L33.9,41.2c-1.6,0-2.9-1.3-2.9-2.9V22.6c0-1.6,1.3-2.9,2.9-2.9h0c1.6,0,2.9,1.3,2.9,2.9v15.7
			C36.8,39.9,35.5,41.2,33.9,41.2z"/>
	</g>
</g>
</svg>
