<?xml version="1.0" encoding="utf-8"?>
<!-- Generator: Adobe Illustrator 18.0.0, SVG Export Plug-In . SVG Version: 6.00 Build 0)  -->
<!DOCTYPE svg PUBLIC "-//W3C//DTD SVG 1.1//EN" "http://www.w3.org/Graphics/SVG/1.1/DTD/svg11.dtd">
<svg version="1.1" id="Layer_1" xmlns="http://www.w3.org/2000/svg" xmlns:xlink="http://www.w3.org/1999/xlink" x="0px" y="0px"
	 viewBox="0 0 48 48" enable-background="new 0 0 48 48" xml:space="preserve">
<g>
	<g>
		<g>
			<g>
				<path fill="#F3705A" d="M22.6,41C31,29.4,45.2,26.5,45.2,11.6C45.2,5.2,40,0,33.6,0c-5.1,0-9.4,3.2-11,7.7C21,3.2,16.7,0,11.6,0
					C5.2,0,0,5.2,0,11.6C0,26.8,14.3,29.5,22.6,41z"/>
			</g>
			<g>
				<path fill="#FFFFFF" d="M38.9,5.8c1.6,1.4,2.3,3.2,1.6,4c-0.7,0.8-2.6,0.3-4.2-1.1c-1.6-1.4-2.3-3.2-1.6-4
					C35.4,3.9,37.3,4.4,38.9,5.8z"/>
			</g>
		</g>
		<g>
			<g>
				<path fill="#FFD15C" d="M47,48l0-1.5c0.8-5.1,0.8-10.4,0.8-10.4s0.2-4,0.2-4.7c0-0.7,0-2.6-1.7-3.8c-1.7-1.2-3.3-0.8-3.3-0.8
					s-1.1-1.8-2.5-2.3c-1.4-0.5-2.6,0.6-2.6,0.6c0.1-1.6-0.7-2.6-2.7-2.9c-2-0.3-2.5,2.3-2.5,2.3s-0.1,0.3-0.7,0.2
					c-0.6-0.2-0.7-2.8-0.7-2.8s-0.1-3.5-0.3-4.1c-0.2-0.6-0.2-3.2-0.1-3.4c0.1-0.2,0.2-3.2-0.1-4.3c-0.3-1.1-1.6-1.3-2.5-0.9
					c-0.9,0.4-1.7,3.5-1.7,4.2c0,0.7-0.2,3.6-0.2,3.6c-0.3,1.5,0.2,3.6,0.2,3.6l0.1,4c-2.5-3.2-4.4-1.6-4.8-1l1.5,2.8
					c-0.1,0.1,0.2,1.2,0.2,1.2c-0.1,0.9,0.4,3.4,0.4,3.4c0.3,1.4,0.3,2.8,0.3,3.9c-0.1,1.2,0.2,2.4,0.8,3.5l2.2,3.6
					c0.5,2,3.5,5.2,4.3,6H47z"/>
			</g>
			<g>
				<g>
					<path fill="#FFFFFF" d="M23.6,26.4L22,23.7c0,0,0,0,0,0c0.1,0,0.9-0.5,1.8,0.1C23.8,23.8,24.5,25.7,23.6,26.4z"/>
				</g>
			</g>
			<g>
				<g>
					<path fill="#F7B64C" d="M27.1,17.9c0,0,0.1-0.1,0.4-0.1c0.1,0,0.2-0.1,0.4-0.1c0.1,0,0.3-0.1,0.5-0.1c0.2,0,0.3,0,0.5,0
						c0.1,0,0.3,0,0.4,0c0.1,0,0.2,0,0.3,0.1c0.1,0,0.1,0,0.1,0s0,0-0.1,0c-0.1,0-0.2,0-0.3,0c-0.2,0-0.5,0-0.8,0
						c-0.3,0-0.6,0.1-0.8,0.1C27.3,17.9,27.1,17.9,27.1,17.9z"/>
				</g>
				<g>
					<path fill="#F7B64C" d="M27,18.9c0,0,0.1-0.1,0.3-0.2c0.2-0.1,0.4-0.3,0.7-0.3c0.1,0,0.1,0,0.2-0.1c0.1,0,0.1,0,0.2,0
						c0.1,0,0.1,0,0.2,0c0.1,0,0.1,0,0.2,0c0.1,0,0.2,0,0.3,0c0.1,0,0.1,0,0.1,0s0,0-0.1,0c-0.1,0-0.1,0-0.3,0c-0.1,0-0.1,0-0.2,0
						c-0.1,0-0.1,0-0.2,0c-0.1,0-0.3,0.1-0.4,0.1c-0.1,0-0.3,0.1-0.4,0.1c-0.1,0-0.2,0.1-0.3,0.1C27.1,18.8,27,18.9,27,18.9z"/>
				</g>
				<g>
					<path fill="#F7B64C" d="M27,19.4c0,0,0.2,0.1,0.4,0.1c0.1,0,0.3,0,0.5,0.1c0.1,0,0.2,0,0.3,0c0.1,0,0.2,0,0.3,0
						c0.1,0,0.2,0,0.3,0c0.1,0,0.2,0,0.3,0c0.1,0,0.2,0,0.2-0.1c0.1,0,0.1,0,0.2-0.1c0.1,0,0.1,0,0.2-0.1c0.1,0,0.1,0,0.1-0.1
						c0.1,0,0.1-0.1,0.1-0.1s0,0-0.1,0.1c-0.1,0-0.2,0.1-0.3,0.2c-0.1,0-0.1,0.1-0.2,0.1c-0.1,0-0.2,0.1-0.2,0.1
						c-0.1,0-0.2,0-0.3,0.1c-0.1,0-0.2,0-0.3,0c-0.1,0-0.2,0-0.3,0c-0.1,0-0.2,0-0.3,0c-0.2,0-0.3-0.1-0.5-0.1
						C27.1,19.5,27,19.4,27,19.4z"/>
				</g>
				<g>
					<path fill="#F7B64C" d="M28.1,18.8c0,0,0.1,0,0.4,0c0.2,0,0.5,0,0.8,0c0.1,0,0.3,0,0.4-0.1c0.1,0,0.2-0.1,0.3-0.1
						c0.1,0,0.2-0.1,0.2-0.1c0.1,0,0.1,0,0.1,0s0,0-0.1,0.1c0,0-0.1,0.1-0.2,0.1c-0.1,0-0.2,0.1-0.3,0.1c-0.1,0-0.1,0-0.2,0
						c-0.1,0-0.1,0-0.2,0c-0.3,0-0.6,0-0.8,0C28.2,18.8,28.1,18.8,28.1,18.8z"/>
				</g>
			</g>
			<g>
				<path fill="#F3F3F3" d="M30.4,10.9c0,0.2-0.1,0.4-0.5,0.6c-0.4,0.2-1.3,0.2-1.8,0c-0.2-0.1-0.3-0.4-0.4-0.7c0-0.3,0-0.6,0.2-0.9
					c0.4-0.7,1.1-0.8,1.1-0.8c0.9-0.1,1.2,0.7,1.3,1C30.4,10.5,30.4,10.7,30.4,10.9z"/>
			</g>
			<path fill="#F7B64C" d="M26.9,28.8l0-0.1c0-0.2,0-0.3,0-0.5c0-0.7,0-1.4,0-2.1c0-0.3,0-0.6,0-1c0-0.1,0-0.2,0-0.2
				c0-0.1,0-0.2,0-0.2c0-0.1-0.1-0.3-0.1-0.4c0,0,0,0,0,0l0,0.4c0,0,0-0.1-0.1-0.1c0,0.1,0,0.1,0,0.2c0,0.1,0,0.1,0,0.2
				c0,0.1,0,0.1,0,0.2c0,0.3,0,0.6-0.1,1c0,0.7-0.1,1.4,0,2.1c0,0.2,0,0.4,0,0.5l0,0.1l0,0.1c0,0.1,0,0.2,0,0.2c0,0.3,0,0.7-0.1,1
				c-0.1,0.7-0.2,1.3-0.2,1.8c0,0.3-0.1,0.5-0.1,0.7c0,0.2,0,0.4,0,0.6c0,0.2,0,0.3,0,0.4c0,0.1,0,0.1,0,0.1s0,0,0-0.1
				c0-0.1,0-0.2,0-0.4c0-0.3,0.1-0.7,0.2-1.3c0.1-0.5,0.2-1.1,0.3-1.8c0-0.3,0.1-0.7,0.1-1c0-0.1,0-0.2,0-0.3L26.9,28.8z"/>
			<path fill="#F7B64C" d="M25.8,27.7c0-0.1,0-0.3,0-0.4c0-0.1,0-0.2,0-0.3c0-0.1,0-0.2-0.1-0.3c0-0.1,0-0.1-0.1-0.2
				c0,0,0-0.1,0-0.1s0,0,0,0.1c0,0,0,0.1,0,0.2c0,0.1,0,0.2,0,0.3c0,0.1,0,0.2,0,0.3C25.8,27.4,25.8,27.6,25.8,27.7
				c-0.1,0.1-0.1,0.3-0.2,0.4c-0.1,0.1-0.1,0.3-0.2,0.4c-0.1,0.1-0.2,0.3-0.3,0.4c-0.1,0.1-0.3,0.2-0.4,0.3
				c-0.1,0.1-0.2,0.3-0.3,0.4c-0.2,0.3-0.3,0.5-0.3,0.8c0,0,0,0.1,0,0.1c0,0,0,0.1,0,0.1c0-0.1,0.1-0.1,0.1-0.2
				c0.1-0.2,0.2-0.5,0.4-0.8c0.1-0.1,0.2-0.3,0.3-0.4c0.1-0.1,0.2-0.2,0.4-0.3c0.3-0.2,0.4-0.5,0.5-0.8C25.8,28,25.8,27.9,25.8,27.7
				z"/>
			<path fill="#F7B64C" d="M25.5,26.9c0-0.1,0-0.1,0-0.1s-0.1,0.2-0.3,0.4c-0.2,0.2-0.5,0.4-0.8,0.6c-0.3,0.2-0.5,0.3-0.7,0.4
				c0,0,0,0.1,0,0.1c0.2-0.1,0.5-0.3,0.8-0.4c0.2-0.1,0.3-0.2,0.4-0.3c0.1-0.1,0.3-0.2,0.3-0.3C25.4,27.1,25.5,26.9,25.5,26.9z"/>
			<path fill="#F7B64C" d="M24.8,28.3c-0.1,0.1-0.2,0.2-0.3,0.4c0,0,0,0.1-0.1,0.1c0,0.1,0,0.1,0,0.2l0,0l0,0c0,0,0,0,0,0.1l0,0.1
				l0,0.1c-0.1,0.1-0.2,0.2-0.3,0.3c0,0,0,0.1,0,0.1c0.1-0.1,0.3-0.2,0.4-0.3c0,0,0.1-0.1,0.1-0.1c0,0,0-0.1,0-0.2
				c0-0.1,0-0.1,0-0.1c0,0,0-0.1,0.1-0.1C24.6,28.6,24.7,28.4,24.8,28.3c0.2-0.2,0.4-0.3,0.4-0.3S25,28.1,24.8,28.3z"/>
		</g>
	</g>
</g>
</svg>
