<?xml version="1.0" encoding="utf-8"?>
<!-- Generator: Adobe Illustrator 16.0.0, SVG Export Plug-In . SVG Version: 6.00 Build 0)  -->
<!DOCTYPE svg PUBLIC "-//W3C//DTD SVG 1.1//EN" "http://www.w3.org/Graphics/SVG/1.1/DTD/svg11.dtd">
<svg version="1.1" id="Layer_1" xmlns="http://www.w3.org/2000/svg" xmlns:xlink="http://www.w3.org/1999/xlink" x="0px" y="0px"
	 width="48px" height="48px" viewBox="0 0 48 48" enable-background="new 0 0 48 48" xml:space="preserve">
<g>
	<path fill="#FF7058" d="M44.01,38.971c0,0-13.299-10.168-20.01-29.943v29.943H44.01z"/>
	<path fill="#ACB3BA" d="M24.168,9.498c0.271,0.803,0.564,1.596,0.871,2.365l22.293,26.74L48,38.084L24.168,9.498z"/>
	<path fill="#F2F2F2" d="M34.316,38.971l2.41-4.215c0,0-4.344,1.219-12.727-12.65v16.865H34.316z"/>
	<path fill="#334A5E" d="M24,22.105v16.867h10.316C34.316,38.973,25.219,28.965,24,22.105"/>
	<rect x="44.908" y="33.367" fill="#3DC9AE" width="1.883" height="5.604"/>
	<path fill="#FF7058" d="M3.99,38.971c0,0,13.299-10.168,20.01-29.943v29.943H3.99z"/>
	<path fill="#ACB3BA" d="M23.832,9.498c-0.271,0.803-0.566,1.596-0.871,2.365L0.668,38.604L0,38.084L23.832,9.498z"/>
	<path fill="#F2F2F2" d="M13.684,38.971l-2.41-4.215c0,0,4.344,1.219,12.727-12.65v16.865H13.684z"/>
	<path fill="#334A5E" d="M24,22.105v16.867H13.684C13.684,38.973,22.781,28.965,24,22.105"/>
	<rect x="1.209" y="33.367" fill="#3DC9AE" width="1.883" height="5.604"/>
</g>
</svg>
