<?xml version="1.0" encoding="utf-8"?>
<!-- Generator: Adobe Illustrator 18.0.0, SVG Export Plug-In . SVG Version: 6.00 Build 0)  -->
<!DOCTYPE svg PUBLIC "-//W3C//DTD SVG 1.1//EN" "http://www.w3.org/Graphics/SVG/1.1/DTD/svg11.dtd">
<svg version="1.1" id="Layer_1" xmlns="http://www.w3.org/2000/svg" xmlns:xlink="http://www.w3.org/1999/xlink" x="0px" y="0px"
	 viewBox="0 0 48 48" enable-background="new 0 0 48 48" xml:space="preserve">
<g>
	<path fill="#FFD15C" d="M37.5,28.9c-0.6-0.5-1.5-1.6-1.5-1.6c-2-2.8-5.6-4.5-5.6-4.5v-1.6c0-0.2,0.1-0.3,0.3-0.3v0
		c0.2,0,0.3-0.2,0.3-0.3l0-1.5c0.7-2.2,3.2-3.3,3.2-3.3s0.6-0.3,1.7-0.3c1.1,0,1.7-0.6,1.7-0.6c0.5-0.4,0.3-1,0.3-1
		c-0.2-0.1-0.2-0.3-0.2-0.3c0.3-0.2,0.2-0.5,0.2-0.5c-0.2,0-0.2-0.3-0.2-0.3c0.3-0.3,0.1-0.5,0.1-0.5c-0.2-0.5-0.9-0.4-0.9-0.4
		c0.1-0.7-0.5-0.6-0.5-0.6c-0.3,0-0.7,0.8-0.7,0.8c-0.4,0.2-0.9,1.2-0.9,1.2c0.1,0.3-0.1,0.7-0.1,0.7s0,0-0.5,0.2
		c-0.5,0.2-1,0.1-1,0.1c0.5-2,0.3-2.7,0.3-2.7c-0.4-1.8-1-3.2-1-3.2c0-0.6-0.4-1-0.4-1c0.1-0.4,0.4-0.7,0.4-0.7c0.2,0.1,1.3,0,1.3,0
		c0.6,0,0.6-0.3,0.6-0.3C34,6,34.2,5.6,34.2,5.6c0.2-0.2,0.2-0.5,0.2-0.5c-0.1-0.1,0-0.3,0-0.3c0.2-0.2,0.1-0.4,0.1-0.4l0-0.2
		c0.6,0,0.5-0.3,0.5-0.3l-0.8-1.1c-0.1-2.1-1.9-2.9-1.9-2.9c-2-0.5-3.6,0.7-3.6,0.7c-1,1-0.5,2.1-0.5,2.1C28.9,4.3,29.1,5,29.1,5
		v0.5c-1.3,0.4-1.6,1.1-1.6,1.1c-2.1,0-2.8,1.1-2.8,1.1c-3,0.5-4,1-5.6,1.5c-1.6,0.6-0.5,1.7-0.5,1.7s1.5,2.1,2.2,2.5
		c0.6,0.4,3.8,3.2,3.8,3.2l0,0.5c-0.1,0.4,0.4,1.3,0.4,1.3c0,0.5-0.7,0.9-0.7,0.9c-1.5,1.5-1.6,3.1-1.6,3.1l0,1.7
		c-0.8,0.6-0.7,1-0.7,1l0.5,0.9c-0.6,1.1-1.8,4.3-1.8,4.3s-1.1,1.8-2.4,2.4c-1.3,0.6-2.4,3.7-2.4,3.7c-0.3,1.1-1.7,2.7-1.7,2.7
		l-2,2.2c-1.1-0.1-1.5,0.1-1.5,0.1c-1.3-0.2-0.5,1.5-0.5,1.5c0.9,1.6,0.8,2.4,0.8,2.4c0.6,2,2,2.6,2,2.6c1.8,0.8,2.3,0.3,2.3,0.3
		c0.4-0.6-0.4-1-0.4-1c-1.1-0.8-0.6-3.4-0.6-3.4c0.9-0.7,0.1-1.2,0.1-1.2c-0.4-0.5,0.2-0.9,0.2-0.9c0.1-0.3,4.1-4.4,4.1-4.4
		c0.3-0.5,2.5-2.7,2.5-2.7c1.5-1.3,3.4-3.9,3.4-3.9c1.6-1.7,2.2-3.1,2.2-3.1c0-0.3,0.9-0.2,0.9-0.2c0.3,0.2,1.2,0.1,1.2,0.1l4.4,2.2
		c0.8,0.3,0.3,0.7,0.3,0.7c-1.4,1.4-1.8,2.3-1.8,2.3c-1.1,1.6-4.5,4.4-4.5,4.4c-0.5,0.1-3,1.5-3,1.5c-1.4,0.3-0.2,1.8-0.2,1.8
		s1.2,1.3,1.5,1.8c0.3,0.5,1.3,1.6,1.3,1.6c1.7,1.5,2.6,1.5,3.5,1.3c1-0.3-0.2-0.9-0.2-0.9c-0.7-0.7-0.8-1.7-1.2-2.2
		c-0.4-0.7,0.1-1.6,0.1-1.6c0.4-0.3,0.1-0.5-0.1-0.6c-1.1-0.4-0.3-1.1-0.3-1.1c0.9-0.9,4.3-3.3,4.3-3.3c2-1.2,3.6-3.1,3.6-3.1
		c0.9-0.5,1.2-1.1,1.2-1.1C38.6,30,37.5,28.9,37.5,28.9z M25.2,12.5c-0.5,0.6-0.2,2.3-0.2,2.3s-2.5-1.8-3.4-3.6v-0.6
		c0,0,2.3,0,3.6-0.2l0.2,1.3C25.4,11.6,25.7,12,25.2,12.5z"/>
	<path fill="#40596B" d="M30.3,22.8v-1.6c0-0.2,0.1-0.3,0.3-0.3v0c0.2,0,0.3-0.2,0.3-0.3l0-1.5c0.1-0.4-6-0.7-6-0.7
		c0,0.5-0.7,0.9-0.7,0.9c-1.5,1.5-1.6,3.1-1.6,3.1l0,1.7c-0.8,0.6-0.7,1-0.7,1l0.5,0.9c-0.4,0.8-1.2,2.7-1.5,3.7h4.5
		c1-1.2,1.4-2.1,1.4-2.1c0-0.3,0.9-0.2,0.9-0.2c0.3,0.2,1.2,0.1,1.2,0.1l4.4,2.2c0.7,0.2,2.8-2.3,2.8-2.3
		C34,24.4,30.3,22.8,30.3,22.8z"/>
	<path fill="#FF7058" d="M14.5,41.7l-2-0.9l-0.4,0.5c-1.1-0.1-1.5,0.1-1.5,0.1c-1.3-0.2-0.5,1.5-0.5,1.5c0.9,1.6,0.8,2.4,0.8,2.4
		c0.6,2,2,2.6,2,2.6c1.8,0.8,2.3,0.3,2.3,0.3c0.4-0.6-0.4-1-0.4-1c-1.1-0.8-0.6-3.4-0.6-3.4c0.9-0.7,0.1-1.2,0.1-1.2
		C13.9,42.1,14.5,41.7,14.5,41.7z"/>
	<path fill="#FF7058" d="M30.1,44.2c-0.7-0.7-0.8-1.7-1.2-2.2c-0.4-0.7,0.1-1.6,0.1-1.6c0.4-0.3,0.1-0.5-0.1-0.6
		c-1.1-0.4-0.3-1.1-0.3-1.1L27.1,37c-0.5,0.1-3,1.5-3,1.5c-1.4,0.3-0.2,1.8-0.2,1.8s1.2,1.3,1.5,1.8c0.3,0.5,1.3,1.6,1.3,1.6
		c1.7,1.5,2.6,1.5,3.5,1.3C31.3,44.8,30.1,44.2,30.1,44.2z"/>
</g>
</svg>
