<?xml version="1.0" encoding="utf-8"?>
<!-- Generator: Adobe Illustrator 18.0.0, SVG Export Plug-In . SVG Version: 6.00 Build 0)  -->
<!DOCTYPE svg PUBLIC "-//W3C//DTD SVG 1.1//EN" "http://www.w3.org/Graphics/SVG/1.1/DTD/svg11.dtd">
<svg version="1.1" id="Layer_1" xmlns="http://www.w3.org/2000/svg" xmlns:xlink="http://www.w3.org/1999/xlink" x="0px" y="0px"
	 viewBox="0 0 48 48" enable-background="new 0 0 48 48" xml:space="preserve">
<g>
	<g>
		<g>
			<g>
				<path fill="#415A6B" d="M4,48H0V15.7C0,7,7,0,15.7,0c5.7,0,10.8,3.4,12.9,8.8l-3.7,1.5C23.4,6.5,19.8,4,15.7,4
					C9.2,4,4,9.2,4,15.7V48z"/>
			</g>
		</g>
		<g>
			<path fill="#CED6E0" d="M47.2,17.1c-0.4-1-1.6-1.5-2.6-1.1L18.2,26.5c-1,0.4-1.5,1.6-1.1,2.6s1.6,1.5,2.6,1.1l26.4-10.5
				C47.1,19.3,47.7,18.1,47.2,17.1z"/>
			<g>
				<g>
					<path fill="#E8EAE9" d="M44.4,16l-26,10.4c-2.9-7.2,0.6-15.3,7.8-18.2C33.4,5.3,41.6,8.8,44.4,16z"/>
				</g>
			</g>
			<g>
				<g>
					<g>
						<g>
							<path fill="#8AD7F8" d="M29.8,35.8c-0.6-1.4-4.5-3.7-4.5-3.7s-1.3,4.4-0.7,5.8c0.6,1.4,2.2,2.1,3.6,1.6S30.4,37.2,29.8,35.8z
								"/>
						</g>
						<g>
							<g>
								<g>
									<path fill="#FFFFFF" d="M27.9,38.6c-1,0.4-2.1-0.1-2.5-1.1c0-0.1,0-0.2,0.1-0.3c0.1,0,0.2,0,0.3,0.1
										c0.3,0.8,1.2,1.1,1.9,0.8c0.1,0,0.2,0,0.3,0.1C28.1,38.4,28,38.6,27.9,38.6z"/>
								</g>
							</g>
						</g>
					</g>
					<g>
						<g>
							<path fill="#8AD7F8" d="M38.8,32.2c-0.6-1.4-4.5-3.7-4.5-3.7s-1.3,4.4-0.7,5.8s2.2,2.1,3.6,1.6S39.4,33.6,38.8,32.2z"/>
						</g>
						<g>
							<g>
								<g>
									<path fill="#FFFFFF" d="M36.9,35c-1,0.4-2.1-0.1-2.5-1.1c0-0.1,0-0.2,0.1-0.3c0.1,0,0.2,0,0.3,0.1c0.3,0.8,1.2,1.1,1.9,0.8
										c0.1,0,0.2,0,0.3,0.1S37,35,36.9,35z"/>
								</g>
							</g>
						</g>
					</g>
					<g>
						<g>
							<path fill="#8AD7F8" d="M47.8,28.6c-0.6-1.4-4.5-3.7-4.5-3.7s-1.3,4.4-0.7,5.8s2.2,2.1,3.6,1.6C47.7,31.7,48.4,30,47.8,28.6z
								"/>
						</g>
						<g>
							<g>
								<g>
									<path fill="#FFFFFF" d="M45.9,31.4c-1,0.4-2.1-0.1-2.5-1.1c0-0.1,0-0.2,0.1-0.3c0.1,0,0.2,0,0.3,0.1
										c0.3,0.8,1.2,1.1,1.9,0.8c0.1,0,0.2,0,0.3,0.1C46.1,31.3,46,31.4,45.9,31.4z"/>
								</g>
							</g>
						</g>
					</g>
				</g>
				<g>
					<g>
						<g>
							<path fill="#8AD7F8" d="M37.7,42.5c-0.6-1.4-4.5-3.7-4.5-3.7s-1.3,4.4-0.7,5.8s2.2,2.1,3.6,1.6S38.3,44,37.7,42.5z"/>
						</g>
						<g>
							<g>
								<g>
									<path fill="#FFFFFF" d="M35.8,45.4c-1,0.4-2.1-0.1-2.5-1.1c0-0.1,0-0.2,0.1-0.3c0.1,0,0.2,0,0.3,0.1
										c0.3,0.8,1.2,1.1,1.9,0.8c0.1,0,0.2,0,0.3,0.1C36,45.2,35.9,45.3,35.8,45.4z"/>
								</g>
							</g>
						</g>
					</g>
					<g>
						<g>
							<path fill="#8AD7F8" d="M46.7,39c-0.6-1.4-4.5-3.7-4.5-3.7s-1.3,4.4-0.7,5.8s2.2,2.1,3.6,1.6C46.6,42,47.3,40.4,46.7,39z"/>
						</g>
						<g>
							<g>
								<g>
									<path fill="#FFFFFF" d="M44.8,41.8c-1,0.4-2.1-0.1-2.5-1.1c0-0.1,0-0.2,0.1-0.3s0.2,0,0.3,0.1c0.3,0.8,1.2,1.1,1.9,0.8
										c0.1,0,0.2,0,0.3,0.1C45,41.6,44.9,41.7,44.8,41.8z"/>
								</g>
							</g>
						</g>
					</g>
				</g>
			</g>
		</g>
	</g>
</g>
</svg>
