<?xml version="1.0" encoding="utf-8"?>
<!-- Generator: Adobe Illustrator 18.0.0, SVG Export Plug-In . SVG Version: 6.00 Build 0)  -->
<!DOCTYPE svg PUBLIC "-//W3C//DTD SVG 1.1//EN" "http://www.w3.org/Graphics/SVG/1.1/DTD/svg11.dtd">
<svg version="1.1" id="Layer_1" xmlns="http://www.w3.org/2000/svg" xmlns:xlink="http://www.w3.org/1999/xlink" x="0px" y="0px"
	 viewBox="0 0 48 48" enable-background="new 0 0 48 48" xml:space="preserve">
<g>
	<path fill="#40596B" d="M37,16.2L10.7,42.6c-0.4,0.4-1,0.4-1.4,0l-7.6-7.6c-0.4-0.4-0.4-1,0-1.4L28,7.2L37,16.2z"/>
	<polygon fill="#CDD6E0" points="28.4,22.5 2.9,48 0.2,37.3 21.7,15.7 	"/>
	<polygon fill="#F2F2F2" points="2.4,46 2.9,48 28.4,22.5 27.2,21.2 	"/>
	<path fill="#FF7058" d="M31.3,2.8L20.1,14.1l10.1,10.1c2.8-2.5,6.1-4.3,9.7-4.9c2.3-0.4,4.5-1.7,6.1-3.8c2.6-3.4,2.5-8.4-0.2-11.8
		C42.1-0.9,35.4-1.2,31.3,2.8z"/>
	<g>
		<path fill="#40596B" d="M2.1,35.4L3,36.3c0.5,0.5,1.3,0.5,1.8,0c0.5-0.5,0.5-1.3,0-1.8c0.5,0.5,1.3,0.5,1.8,0s0.5-1.3,0-1.8
			c0.5,0.5,1.3,0.5,1.8,0c0.5-0.5,0.5-1.3,0-1.8c0.5,0.5,1.3,0.5,1.8,0c0.5-0.5,0.5-1.3,0-1.8c0.5,0.5,1.3,0.5,1.8,0
			c0.5-0.5,0.5-1.3,0-1.8c0.5,0.5,1.3,0.5,1.8,0c0.5-0.5,0.5-1.3,0-1.8c0.5,0.5,1.3,0.5,1.8,0c0.5-0.5,0.5-1.3,0-1.8
			c0.5,0.5,1.3,0.5,1.8,0c0.5-0.5,0.5-1.3,0-1.8c0.5,0.5,1.3,0.5,1.8,0c0.5-0.5,0.5-1.3,0-1.8c0.5,0.5,1.3,0.5,1.8,0
			c0.5-0.5,0.5-1.3,0-1.8c0.5,0.5,1.3,0.5,1.8,0c0.5-0.5,0.5-1.3,0-1.8l-0.9-0.9L2.1,35.4z"/>
		<path fill="#40596B" d="M28.4,22.5l-0.9-0.9c-0.5-0.5-1.3-0.5-1.8,0c-0.5,0.5-0.5,1.3,0,1.8c-0.5-0.5-1.3-0.5-1.8,0
			c-0.5,0.5-0.5,1.3,0,1.8c-0.5-0.5-1.3-0.5-1.8,0c-0.5,0.5-0.5,1.3,0,1.8c-0.5-0.5-1.3-0.5-1.8,0c-0.5,0.5-0.5,1.3,0,1.8
			c-0.5-0.5-1.3-0.5-1.8,0s-0.5,1.3,0,1.8c-0.5-0.5-1.3-0.5-1.8,0s-0.5,1.3,0,1.8c-0.5-0.5-1.3-0.5-1.8,0c-0.5,0.5-0.5,1.3,0,1.8
			c-0.5-0.5-1.3-0.5-1.8,0c-0.5,0.5-0.5,1.3,0,1.8c-0.5-0.5-1.3-0.5-1.8,0c-0.5,0.5-0.5,1.3,0,1.8c-0.5-0.5-1.3-0.5-1.8,0
			c-0.5,0.5-0.5,1.3,0,1.8c-0.5-0.5-1.3-0.5-1.8,0c-0.5,0.5-0.5,1.3,0,1.8l0.9,0.9L28.4,22.5z"/>
	</g>
	<circle fill="#FFD15C" cx="41.2" cy="11.9" r="2.4"/>
</g>
</svg>
