<?xml version="1.0" encoding="utf-8"?>
<!-- Generator: Adobe Illustrator 18.0.0, SVG Export Plug-In . SVG Version: 6.00 Build 0)  -->
<!DOCTYPE svg PUBLIC "-//W3C//DTD SVG 1.1//EN" "http://www.w3.org/Graphics/SVG/1.1/DTD/svg11.dtd">
<svg version="1.1" id="Layer_1" xmlns="http://www.w3.org/2000/svg" xmlns:xlink="http://www.w3.org/1999/xlink" x="0px" y="0px"
	 viewBox="0 0 48 48" enable-background="new 0 0 48 48" xml:space="preserve">
<g>
	<g>
		
			<rect x="4.8" y="5.5" transform="matrix(0.7071 -0.7071 0.7071 0.7071 -1.7313 8.1239)" fill="#334A5E" width="8.3" height="1.2"/>
		<path fill="#40596B" d="M13.3,2.6l-7.8,7.8c-0.4,0.4-0.6,0.9-0.6,1.4V46c0,1.1,0.9,2,2,2h36.3c1.1,0,2-0.9,2-2V8c0-3.3-2.7-6-6-6
			H14.7C14.2,2,13.7,2.2,13.3,2.6z"/>
		<path fill="#FF7058" d="M11.9,2.8L5.6,9.1c-0.2,0.2-0.5,0.2-0.7,0l-2-2C2.7,7,2.7,6.6,2.9,6.5l6.3-6.3C9.4,0,9.8,0,9.9,0.1l2,2
			C12.1,2.3,12.1,2.6,11.9,2.8z"/>
		<path fill="#FFFFFF" d="M40.2,10c0-1.7-1.3-3-3-3H26.5c-1,0-1.5,1.2-0.8,1.9l12.6,12.6c0.7,0.7,1.9,0.2,1.9-0.8V10z"/>
		<path fill="#84DBFF" d="M32.6,30.7c0,4.1-3.4,7.5-7.5,7.5s-7.5-3.4-7.5-7.5s7.5-11.9,7.5-11.9S32.6,26.6,32.6,30.7z"/>
		<g>
			<path fill="#F2F2F2" d="M25.1,35.7c-2.8,0-5-2.2-5-5c0-0.3,0.2-0.5,0.5-0.5c0.3,0,0.5,0.2,0.5,0.5c0,2.2,1.8,4,4,4
				c0.3,0,0.5,0.2,0.5,0.5S25.3,35.7,25.1,35.7z"/>
		</g>
	</g>
	<path fill="#ACB3BA" d="M8.9,41.9L8.9,41.9c-0.8,0-1.5-0.6-1.5-1.5V18.7c0-0.8,0.6-1.5,1.5-1.5h0c0.8,0,1.5,0.6,1.5,1.5v21.7
		C10.3,41.2,9.7,41.9,8.9,41.9z"/>
</g>
</svg>
