<?xml version="1.0" encoding="utf-8"?>
<!-- Generator: Adobe Illustrator 20.1.0, SVG Export Plug-In . SVG Version: 6.00 Build 0)  -->
<!DOCTYPE svg PUBLIC "-//W3C//DTD SVG 1.1//EN" "http://www.w3.org/Graphics/SVG/1.1/DTD/svg11.dtd">
<svg version="1.1" id="Layer_1" xmlns="http://www.w3.org/2000/svg" xmlns:xlink="http://www.w3.org/1999/xlink" x="0px" y="0px"
	 viewBox="0 0 49 49" enable-background="new 0 0 49 49" xml:space="preserve">
<g>
	<path fill="#F2F2F2" d="M24.5,46.3c-12,0-21.8-9.8-21.8-21.8c0-12,9.8-21.8,21.8-21.8c12,0,21.8,9.8,21.8,21.8
		C46.3,36.5,36.5,46.3,24.5,46.3z M24.5,4.9c-10.8,0-19.6,8.8-19.6,19.6c0,10.8,8.8,19.6,19.6,19.6s19.6-8.8,19.6-19.6
		C44.1,13.7,35.3,4.9,24.5,4.9z"/>
	<circle fill="#54C0EB" cx="24.5" cy="3.8" r="3.3"/>
	<circle fill="#54C0EB" cx="24.5" cy="45.2" r="3.3"/>
	<circle fill="#54C0EB" cx="45.2" cy="24.5" r="3.3"/>
	<circle fill="#54C0EB" cx="3.8" cy="24.5" r="3.3"/>
	<path fill="#FF7058" d="M34.6,21.3H14.4c-1.1,0-2,0.9-2,2v12.6c0,1.1,0.9,2,2,2h20.3c1.1,0,2-0.9,2-2V23.3
		C36.6,22.2,35.7,21.3,34.6,21.3z"/>
	<path fill="#CDD6E0" d="M18.3,21.3v-2.1c0-3.4,2.8-6.2,6.2-6.2c3.4,0,6.2,2.8,6.2,6.2v2.1h3.5v-2.1c0-5.3-4.3-9.7-9.7-9.7
		s-9.7,4.3-9.7,9.7v2.1H18.3z"/>
	<rect x="14.8" y="27.2" fill="#40596B" width="19.4" height="4.7"/>
	<circle fill="#F2F2F2" cx="30.3" cy="29.5" r="1"/>
	<circle fill="#F2F2F2" cx="26.4" cy="29.5" r="1"/>
	<circle fill="#F2F2F2" cx="22.6" cy="29.5" r="1"/>
	<circle fill="#F2F2F2" cx="18.7" cy="29.5" r="1"/>
</g>
</svg>
