<?xml version="1.0" encoding="utf-8"?>
<!-- Generator: Adobe Illustrator 18.0.0, SVG Export Plug-In . SVG Version: 6.00 Build 0)  -->
<!DOCTYPE svg PUBLIC "-//W3C//DTD SVG 1.1//EN" "http://www.w3.org/Graphics/SVG/1.1/DTD/svg11.dtd">
<svg version="1.1" id="Layer_1" xmlns="http://www.w3.org/2000/svg" xmlns:xlink="http://www.w3.org/1999/xlink" x="0px" y="0px"
	 viewBox="0 0 48 48" enable-background="new 0 0 48 48" xml:space="preserve">
<g>
	<g>
		<g>
			<path fill="#F3F3F3" d="M41.7,0H6.3c-1.1,0-2,0.9-2,2v44c0,1.1,0.9,2,2,2h26.6l10.9-10.9V2C43.7,0.9,42.8,0,41.7,0z"/>
		</g>
		<g>
			<rect x="4.3" y="0" fill="#F3F3F3" width="0" height="10.5"/>
			<g>
				<g>
					<rect x="19" y="20.8" fill="#CED6E0" width="11.1" height="2"/>
				</g>
				<g>
					<rect x="19" y="16.5" fill="#CED6E0" width="20.7" height="2"/>
				</g>
			</g>
			<g>
				<g>
					<g>
						<g>
							<rect x="19" y="10.1" fill="#CED6E0" width="11.1" height="2"/>
						</g>
						<g>
							<rect x="19" y="5.7" fill="#CED6E0" width="20.7" height="2"/>
						</g>
					</g>
				</g>
				<path fill="#415A6B" d="M15,10.6l-1.8-1.8L15,7.1c0.3-0.3,0.3-0.8,0-1.2c-0.3-0.3-0.8-0.3-1.2,0l-1.8,1.8l-1.8-1.8
					c-0.3-0.3-0.8-0.3-1.2,0c-0.3,0.3-0.3,0.8,0,1.2L11,8.9l-1.8,1.8c-0.3,0.3-0.3,0.8,0,1.2c0.3,0.3,0.8,0.3,1.2,0l1.8-1.8l1.8,1.8
					c0.3,0.3,0.8,0.3,1.2,0C15.4,11.5,15.4,10.9,15,10.6z"/>
			</g>
			<path fill="#F3705A" d="M16.2,16.8c-0.3-0.3-0.8-0.3-1.2,0l-4,4L9.3,19c-0.3-0.3-0.8-0.3-1.2,0c-0.3,0.3-0.3,0.8,0,1.2l2.3,2.3
				c0.3,0.3,0.9,0.3,1.2,0l4.6-4.6C16.6,17.6,16.6,17.1,16.2,16.8z"/>
			<g>
				<g>
					<g>
						<g>
							<rect x="19" y="31.6" fill="#CED6E0" width="11.1" height="2"/>
						</g>
						<g>
							<rect x="19" y="27.3" fill="#CED6E0" width="20.7" height="2"/>
						</g>
					</g>
				</g>
				<path fill="#415A6B" d="M15,32.2l-1.8-1.8l1.8-1.8c0.3-0.3,0.3-0.8,0-1.2c-0.3-0.3-0.8-0.3-1.2,0l-1.8,1.8l-1.8-1.8
					c-0.3-0.3-0.8-0.3-1.2,0c-0.3,0.3-0.3,0.8,0,1.2l1.8,1.8l-1.8,1.8c-0.3,0.3-0.3,0.8,0,1.2c0.3,0.3,0.8,0.3,1.2,0l1.8-1.8
					l1.8,1.8c0.3,0.3,0.8,0.3,1.2,0C15.4,33,15.4,32.5,15,32.2z"/>
			</g>
		</g>
		<g>
			<polygon fill="#CED6E0" points="32.8,48 43.7,37.1 32.8,37.1 			"/>
		</g>
	</g>
</g>
</svg>
