<?xml version="1.0" encoding="utf-8"?>
<!-- Generator: Adobe Illustrator 18.0.0, SVG Export Plug-In . SVG Version: 6.00 Build 0)  -->
<!DOCTYPE svg PUBLIC "-//W3C//DTD SVG 1.1//EN" "http://www.w3.org/Graphics/SVG/1.1/DTD/svg11.dtd">
<svg version="1.1" id="Layer_1" xmlns="http://www.w3.org/2000/svg" xmlns:xlink="http://www.w3.org/1999/xlink" x="0px" y="0px"
	 viewBox="0 0 48 48" enable-background="new 0 0 48 48" xml:space="preserve">
<g>
	<g>
		<g>
			<g>
				<g>
					<g>
						<g>
							<g>
								<g>
									<g>
										<g>
											<g>
												<g>
													<g>
														<g>
															<rect y="43.1" fill="#E8EAE9" width="48" height="4.1"/>
														</g>
													</g>
												</g>
											</g>
										</g>
									</g>
								</g>
							</g>
						</g>
					</g>
				</g>
			</g>
		</g>
		<g>
			<rect x="9.3" y="26.3" fill="#E8EAE9" width="4.1" height="16.8"/>
			<g>
				<polygon fill="#55C0EB" points="16.9,42.4 16.9,48 6,48 6,42.4 8.6,42.4 8.6,39.1 14.2,39.1 14.2,42.4 				"/>
			</g>
		</g>
		<g>
			<rect x="34.5" y="26.3" fill="#E8EAE9" width="4.1" height="16.8"/>
			<g>
				<polygon fill="#55C0EB" points="42,42.4 42,48 31.1,48 31.1,42.4 33.8,42.4 33.8,39.1 39.4,39.1 39.4,42.4 				"/>
			</g>
		</g>
		<g>
			<path fill="#415A6B" d="M8.7,11.8c0,5.8,2.3,10.5,5.1,10.5s5.1-4.7,5.1-10.5S16.4,0.6,13.5,0.6S8.7,6,8.7,11.8z"/>
		</g>
		<g>
			<g>
				<g>
					<path fill="#F3705A" d="M22.8,27.3v-5.7c0-1.4-0.8-2.6-2.1-3.1c-6-2.6-12.7-2.6-18.7,0C0.8,19,0,20.2,0,21.6v5.7H22.8z"/>
				</g>
			</g>
			<g>
				<path fill="#FFD15C" d="M17.8,9.6c-0.2,1.1-0.9,1.9-1.6,1.7c-0.7-0.1-1.1-1.1-1-2.2s0.9-1.9,1.6-1.7C17.5,7.5,17.9,8.5,17.8,9.6
					z"/>
			</g>
			<g>
				<path fill="#FFD15C" d="M4.8,9.6c0.2,1.1,0.9,1.9,1.6,1.7c0.7-0.1,1.1-1.1,1-2.2C7.2,8,6.5,7.2,5.8,7.4C5.1,7.5,4.7,8.5,4.8,9.6
					z"/>
			</g>
			<g>
				<g>
					<g>
						<ellipse fill="#415A6B" cx="12.6" cy="5.9" rx="4.8" ry="5.9"/>
					</g>
				</g>
				<g>
					<ellipse fill="#415A6B" cx="9.5" cy="6.2" rx="4.3" ry="5.1"/>
				</g>
			</g>
			<path fill="#CED6E0" d="M13.3,27.3l2.1-8.9c-0.6-0.7-0.8-1-1.4-1.8c-0.9,0-1.7,0-2.6,0c-0.8,0-1.7,0-2.6,0
				c-0.6,0.7-0.8,1.1-1.4,1.8l2.3,8.9H13.3z"/>
			<g>
				<polygon fill="#415A6B" points="12.6,22.4 13.4,21.6 11.4,19.6 9.4,21.6 10.2,22.4 				"/>
			</g>
			<g>
				<polygon fill="#415A6B" points="13.1,27.3 12.6,22.4 10.2,22.4 9.7,27.3 				"/>
			</g>
			<path fill="#F7B64C" d="M11.4,19.6L11.4,19.6c-1.7-0.4-3-2-3-3.7v-2.5h6v2.5C14.4,17.6,13.1,19.2,11.4,19.6L11.4,19.6z"/>
			<polygon fill="#F3F3F3" points="14.4,15.5 11.4,19.6 14.5,23 15.7,16.9 			"/>
			<polygon fill="#F3F3F3" points="8.4,15.5 11.4,19.6 8.3,23 7.1,16.9 			"/>
			<polygon fill="#F05540" points="15,27.3 18.5,22.5 16.3,20.5 18.9,20.1 15.7,16.9 12.8,27.3 			"/>
			<polygon fill="#F05540" points="7.8,27.3 4.4,22.5 6.5,20.5 3.9,20.1 7.1,16.9 10.1,27.3 			"/>
			<path fill="#FFD15C" d="M16.7,8.2c0-2.1-2.2-3.6-4.2-2.8c-1.1,0.4-2.3,0.7-3.1,0.7c-1.2,0-2.2-0.4-2.9-0.9
				c-0.3,0.9-0.5,2-0.5,3.1c0,4,2.4,7.2,5.4,7.2S16.7,12.3,16.7,8.2C16.7,8.3,16.7,8.3,16.7,8.2z"/>
		</g>
		<g>
			<g>
				<g>
					<path fill="#415A6B" d="M25.2,27.3v-5.7c0-1.4,0.8-2.6,2.1-3.1c6-2.6,12.7-2.6,18.7,0c1.2,0.6,2.1,1.8,2.1,3.1v5.7H25.2z"/>
				</g>
			</g>
			<g>
				<g>
					<path fill="#FFD15C" d="M30.7,9.6c0.2,1.1,0.9,1.9,1.6,1.7c0.7-0.1,1.1-1.1,1-2.2c-0.2-1.1-0.9-1.9-1.6-1.7
						C31,7.5,30.6,8.5,30.7,9.6z"/>
				</g>
				<g>
					<path fill="#FFD15C" d="M42.7,9.6c-0.2,1.1-0.9,1.9-1.6,1.7c-0.7-0.1-1.1-1.1-1-2.2C40.3,8,41,7.2,41.7,7.4
						C42.4,7.5,42.8,8.5,42.7,9.6z"/>
				</g>
			</g>
			<g>
				<g>
					<g>
						<ellipse fill="#415A6B" cx="35.4" cy="5.9" rx="4.8" ry="5.9"/>
					</g>
				</g>
				<g>
					<ellipse fill="#415A6B" cx="38.5" cy="6.2" rx="4.3" ry="5.1"/>
				</g>
			</g>
			<path fill="#CED6E0" d="M34.7,27.3l-2.1-8.9c0.6-0.7,0.8-1,1.4-1.8c0.9,0,1.7,0,2.6,0c0.8,0,1.7,0,2.6,0c0.6,0.7,0.8,1.1,1.4,1.8
				l-2.3,8.9H34.7z"/>
			<g>
				<polygon fill="#F05540" points="35.4,22.4 34.6,21.6 36.6,19.6 38.6,21.6 37.8,22.4 				"/>
			</g>
			<g>
				<polygon fill="#F3705A" points="34.9,27.3 35.4,22.4 37.8,22.4 38.3,27.3 				"/>
			</g>
			<path fill="#F7B64C" d="M36.6,19.6L36.6,19.6c1.7-0.4,3-2,3-3.7v-2.5h-6v2.5C33.6,17.6,34.9,19.2,36.6,19.6L36.6,19.6z"/>
			<polygon fill="#F3F3F3" points="33.6,15.5 36.6,19.6 33.5,23 32.3,16.9 			"/>
			<polygon fill="#F3F3F3" points="39.6,15.5 36.6,19.6 39.7,23 40.9,16.9 			"/>
			<polygon fill="#344A5E" points="33,27.3 29.5,22.5 31.7,20.5 29.1,20.1 32.3,16.9 35.2,27.3 			"/>
			<polygon fill="#344A5E" points="40.2,27.3 43.6,22.5 41.5,20.5 44.1,20.1 40.9,16.9 37.9,27.3 			"/>
		</g>
		<path fill="#FFD15C" d="M36.8,6.5c-1.7,0-3.2-0.5-4.3-1.3C32,6.3,31.7,7.6,31.7,9c0,4,2.3,7.2,5,7.2c2.8,0,5-3.2,5-7.2
			c0-1.4-0.3-2.7-0.7-3.8C39.8,6,38.4,6.5,36.8,6.5z"/>
	</g>
</g>
</svg>
