<?xml version="1.0" encoding="utf-8"?>
<!-- Generator: Adobe Illustrator 18.0.0, SVG Export Plug-In . SVG Version: 6.00 Build 0)  -->
<!DOCTYPE svg PUBLIC "-//W3C//DTD SVG 1.1//EN" "http://www.w3.org/Graphics/SVG/1.1/DTD/svg11.dtd">
<svg version="1.1" id="Layer_1" xmlns="http://www.w3.org/2000/svg" xmlns:xlink="http://www.w3.org/1999/xlink" x="0px" y="0px"
	 viewBox="0 0 48 48" enable-background="new 0 0 48 48" xml:space="preserve">
<g>
	<g>
		<g>
			<g>
				<g>
					<path fill="#415A6B" d="M22.9,46.1c0.3-4.3,1.8-15.3,7.9-27.4h-2.3c-6,12.3-7.4,23.1-7.7,27.4H22.9z"/>
				</g>
			</g>
			<g>
				<g>
					<path fill="#FFD15C" d="M40.9,14.9c1.1,2.2,1.4,4.1,0.4,5c-0.9,0.9-2.8,0.7-5-0.4c-0.8,2.4-1.9,3.8-3.2,3.8s-2.4-1.5-3.2-3.8
						c-2.2,1.1-4.1,1.3-5,0.4c-0.9-0.9-0.7-2.8,0.4-5c-2.4-0.8-3.9-1.9-3.9-3.2c0-1.3,1.5-2.4,3.8-3.2c-1.1-2.2-1.3-4.1-0.4-5
						c0.9-0.9,2.8-0.7,5,0.4c0.8-2.4,2-3.8,3.2-3.8s2.4,1.5,3.2,3.9c2.2-1.1,4.1-1.4,5-0.4s0.7,2.8-0.4,5c2.4,0.8,3.8,2,3.8,3.2
						C44.8,12.9,43.3,14.1,40.9,14.9z"/>
				</g>
				<g>
					<circle fill="#F7B64C" cx="33.1" cy="11.6" r="4.6"/>
				</g>
				<g>
					<circle fill="#F3705A" cx="33.1" cy="11.6" r="2.4"/>
				</g>
			</g>
		</g>
		<g>
			<g>
				<g>
					<path fill="#415A6B" d="M22.6,46.1c-0.3-3.6-1.4-11.9-5.9-21.2h-2.2c4.6,9.2,5.8,17.6,6.1,21.2H22.6z"/>
				</g>
			</g>
			<g>
				<g>
					<path fill="#FFD15C" d="M6.3,21.3c-0.9,1.8-1.1,3.3-0.4,4c0.7,0.7,2.2,0.5,4-0.4c0.6,1.9,1.6,3.1,2.6,3.1s2-1.2,2.6-3.1
						c1.8,0.9,3.3,1.1,4,0.4c0.7-0.7,0.5-2.2-0.4-4c1.9-0.6,3.1-1.6,3.1-2.6c0-1-1.2-2-3.1-2.6c0.9-1.8,1.1-3.3,0.3-4
						c-0.7-0.7-2.2-0.5-4,0.3c-0.7-1.9-1.6-3.1-2.6-3.1s-2,1.2-2.6,3.1c-1.8-0.9-3.3-1.1-4-0.4s-0.5,2.2,0.4,4
						c-1.9,0.6-3.1,1.6-3.1,2.6C3.2,19.7,4.4,20.6,6.3,21.3z"/>
				</g>
				<g>
					<circle fill="#F7B64C" cx="12.6" cy="18.7" r="3.7"/>
				</g>
				<g>
					<circle fill="#F3705A" cx="12.6" cy="18.7" r="1.9"/>
				</g>
			</g>
		</g>
		<g>
			<path fill="#66C6B9" d="M21.4,43.1c-1.8-3.8-2.1-8.1-0.4-12c-2.2,3.8-2.6,8.1-1.7,12H21.4z"/>
		</g>
		<g>
			<path fill="#66C6B9" d="M15.6,48c0.4-4.2-0.9-8.3-3.8-11.4c3.4,2.8,5.3,6.7,5.8,10.6L15.6,48z"/>
		</g>
		<g>
			<g>
				<path fill="#4EC0AA" d="M15.3,48H21c-0.9-6.1-4-12.3-9.2-17.9C15.3,35.7,16.5,41.8,15.3,48z"/>
			</g>
		</g>
		<g>
			<path fill="#4EC0AA" d="M23.4,48c-2.1-7.2,0.2-14.7,6-18.8c-7.1,4-10.6,11.7-9.3,18.8H23.4z"/>
		</g>
		<g>
			<path fill="#66C6B9" d="M25.7,48c-0.5-7.3,3.2-14,9.5-16.9c-7.8,2.6-12.8,9.6-12.8,16.9H25.7z"/>
		</g>
		<g>
			<g>
				<path fill="#4EC0AA" d="M27.5,48c-0.5-5.8,1.1-11.2,7.3-13.4c-7.7,2-12.6,7.6-12.6,13.4H27.5z"/>
			</g>
		</g>
	</g>
</g>
</svg>
