<?xml version="1.0" encoding="utf-8"?>
<!-- Generator: Adobe Illustrator 19.0.1, SVG Export Plug-In . SVG Version: 6.00 Build 0)  -->
<svg version="1.1" id="Layer_1" xmlns="http://www.w3.org/2000/svg" xmlns:xlink="http://www.w3.org/1999/xlink" x="0px" y="0px"
	 viewBox="0 0 48 48" style="enable-background:new 0 0 48 48;" xml:space="preserve">
<style type="text/css">
	.st0{fill:#415A6B;}
	.st1{fill:#E8EAE9;}
	.st2{fill:#FFD15C;}
	.st3{fill:#55C0EB;}
	.st4{fill:#F3705A;}
	.st5{fill:#F7B64C;}
	.st6{fill:#F3F3F3;}
	.st7{fill:#344A5E;}
</style>
<g>
	<g>
		<g>
			<g>
				<g>
					<path class="st0" d="M38.3,41.4c0,0.6-0.5,1-1,1h-8.1c-0.6,0-1-0.4-1-1V25.2h-4.7v-2h4.7V6.6c0-0.5,0.5-1,1-1h8.1
						c0.6,0,1,0.5,1,1c0,0.6-0.5,1-1,1h-7.1v15.6h7.1v2h-7.1v15.2h7.1C37.8,40.4,38.3,40.9,38.3,41.4z"/>
				</g>
			</g>
		</g>
		<g>
			<g>
				<g>
					<ellipse class="st1" cx="41.4" cy="41.4" rx="6.6" ry="6.6"/>
				</g>
			</g>
			<g>
				<g>
					<ellipse class="st2" cx="41.4" cy="41.4" rx="4.2" ry="4.1"/>
				</g>
			</g>
		</g>
		<g>
			<g>
				<g>
					<ellipse class="st1" cx="41.4" cy="24" rx="6.6" ry="6.6"/>
				</g>
			</g>
			<g>
				<g>
					<ellipse class="st3" cx="41.4" cy="24" rx="4.2" ry="4.1"/>
				</g>
			</g>
		</g>
		<g>
			<g>
				<g>
					<ellipse class="st1" cx="41.4" cy="6.6" rx="6.6" ry="6.6"/>
				</g>
			</g>
			<g>
				<g>
					<ellipse class="st4" cx="41.4" cy="6.6" rx="4.2" ry="4.1"/>
				</g>
			</g>
		</g>
		<g>
			<g>
				<path class="st4" d="M9.1,21.3c0.4,1.2,1,2.5,0.8,3.7c-0.1,0.9-0.7,1.7-1.3,2.3c-0.6,0.7-1.3,1.3-1.8,2C6.3,30.1,5.9,31,6,31.9
					c-0.6-1.5-0.6-3.1,0-4.5c0.4-1,1.1-1.9,1.4-2.9c1.1-2.8-0.2-6.2,1.1-8.9l0.7-0.3C8.6,17.2,8.5,19.4,9.1,21.3z"/>
			</g>
			<g>
				<g>
					<path class="st4" d="M17.7,16.7c0,0,0.1,5.9,1.6,9c1.6,3.3,2.9,4.1,3,4.1s-4.7-1.1-4.7-1.1l-3.4-4.6L14,20l2.7-3.5"/>
				</g>
			</g>
			<g>
				<path class="st4" d="M8,16.7c0,0-0.1,5.9-1.6,9c-1.6,3.3-2.9,4.1-3,4.1s4.7-1.1,4.7-1.1l3.4-4.6l0.2-4.1L9,16.5"/>
			</g>
			<g>
				<path class="st5" d="M10,20.5h5.8v4.2c0.6,2.8,1.1,5.6,0,7.3c0,4.2-5.8,4.2-5.8,0c-1.3-2.6-1.6-5.1,0-7.3V20.5z"/>
			</g>
			<g>
				<g>
					<path class="st6" d="M16.9,35.9L16,27.1c-0.6,1.1-2.1,2.6-3.2,2.6c-1,0-2.6-1.5-3.2-2.6l-0.9,8.8H16.9z"/>
				</g>
			</g>
			<g>
				<path class="st7" d="M10.9,35.9l-2-9.7l-0.6-0.4l-4.9,1.8c0,0-0.9-0.2-1.6,1.9c-0.4,1.2-1.1,3.9-1.8,6.4H10.9z"/>
			</g>
			<g>
				<path class="st7" d="M25.7,35.9c-0.7-2.4-1.4-5.2-1.7-6.4c-0.6-2.1-1.6-1.9-1.6-1.9l-4.9-1.8l-0.6,0.4l-2,9.7H25.7z"/>
			</g>
			<g>
				<path class="st4" d="M17.7,16.8c0,2.9-2.2,6.8-4.9,6.8s-4.9-3.9-4.9-6.8s2.2-5.3,4.9-5.3C15.5,11.5,17.7,13.9,17.7,16.8z"/>
			</g>
			<g>
				<path class="st2" d="M17.1,19.4c0,3.4-1.9,6.2-4.3,6.2s-4.3-2.8-4.3-6.2c0-1,0.2-1.9,0.4-2.7c0.2-0.6,0.9-1,1.5-0.8
					c0.7,0.2,1.5,0.3,2.3,0.3s1.6-0.1,2.3-0.3c0.7-0.1,1.3,0.2,1.5,0.8C16.9,17.5,17.1,18.4,17.1,19.4z"/>
			</g>
			<g>
				<g>
					<g>
						<path class="st0" d="M9.2,35.9h2.7c-0.5-2-1-3.9-1.4-4.9c-0.8-2.7-0.5-6.3-0.5-6.3c-0.1,0.1-0.2,0.2-0.4,0.3
							c-1.2,0.8-2.3,1.6-3.3,2.6l-0.1,0.1l1.6,0.9l-1.6,0.9C7.1,31.8,8.1,33.9,9.2,35.9z"/>
					</g>
				</g>
			</g>
			<g>
				<g>
					<g>
						<path class="st0" d="M13.8,35.9h2.7c1.1-2,2.1-4.1,3-6.4l-1.6-0.9l1.6-0.9l-0.1-0.1c-1-1-2.1-1.9-3.3-2.6
							c-0.2-0.1-0.3-0.2-0.4-0.3c0,0,0.3,3.7-0.5,6.3C14.9,32,14.4,33.9,13.8,35.9z"/>
					</g>
				</g>
			</g>
			<g>
				<g>
					<path class="st2" d="M8,20.5c0.2,0.8,0.7,1.3,1.1,1c0.4-0.2,0.4-1,0.2-1.7s-0.7-1.1-1-1C8,19,7.8,19.8,8,20.5z"/>
				</g>
				<g>
					<path class="st2" d="M17.6,20.5c-0.2,0.8-0.7,1.3-1.1,1c-0.4-0.2-0.4-1-0.2-1.7c0.2-0.7,0.7-1.1,1-1
						C17.7,19,17.8,19.8,17.6,20.5z"/>
				</g>
			</g>
		</g>
	</g>
</g>
</svg>
