<?xml version="1.0" encoding="utf-8"?>
<!-- Generator: Adobe Illustrator 18.0.0, SVG Export Plug-In . SVG Version: 6.00 Build 0)  -->
<!DOCTYPE svg PUBLIC "-//W3C//DTD SVG 1.1//EN" "http://www.w3.org/Graphics/SVG/1.1/DTD/svg11.dtd">
<svg version="1.1" id="Layer_1" xmlns="http://www.w3.org/2000/svg" xmlns:xlink="http://www.w3.org/1999/xlink" x="0px" y="0px"
	 viewBox="0 0 48 48" enable-background="new 0 0 48 48" xml:space="preserve">
<g>
	<g>
		<g>
			<g>
				<g>
					<g>
						<path fill="#FFD15C" d="M30.6,5.4c0,0-0.8,1.3-0.9,2.3c-0.1,1-3-0.8-3-0.8l-0.2-1.3c0,0,0.1-4,0.2-4C26.8,1.5,28,1.3,28,1.3
							L30.6,5.4L30.6,5.4z"/>
					</g>
				</g>
			</g>
			<g>
				<g>
					<g>
						<path fill="#F5B54C" d="M30.3,6c-0.1,0.2-0.2,0.3-0.3,0.5l-1.7-2.7L30.3,6z"/>
					</g>
				</g>
			</g>
			<g>
				<g>
					<g>
						<g>
							<path fill="#FFD15C" d="M28,2.5c0,0,1.4,3.4,3.2,3.7c0.1,0,0.2,0,0.3-0.1c0.1-0.1,0.2-0.3,0-0.6c0,0,0-0.4,0-0.4
								c0,0,0-0.2-0.1-0.2c0,0,0.1,0,0.1-0.2c0-0.1,0-0.4,0-0.4s0.5,0,0.4-0.3c-0.1-0.3-0.7-0.8-0.7-0.8s-0.1-0.1,0-0.3
								c0.1-0.3-0.1-0.6-0.1-0.6l-1-1.5l-1.6-0.6C28.5,0.3,26.9,1.8,28,2.5z"/>
						</g>
					</g>
				</g>
			</g>
			<g>
				<g>
					<g>
						<path fill="#FFD15C" d="M27.7,2.9c0,0,2,4,3.7,3.2l-3.2-4.2L27.7,2.9z"/>
					</g>
				</g>
			</g>
			<g>
				<g>
					<g>
						<path fill="#425A6B" d="M29.7,3.2l0,0.6l-0.4,0c0-0.1-0.1-0.7-0.3-0.9c-0.3-0.2-0.9-0.4-1.1,0.1c-0.2,0.5-0.1,2.1-0.1,2.1
							s-1,0.2-1.2,0.6c0,0-1.1-2.4-0.9-3.5C25.8,1,27,0.3,27,0.3s1-0.4,2-0.3c0.6,0.1,1.1,0.5,1.3,1c0,0.1,0,0.2,0,0.2
							c0,0-1.1-0.4-0.7,0.1c0,0.1,0.1,0.1,0.1,0.2c0.1,0.2,0.1,0.4,0.1,0.5C29.7,2.5,29.6,2.8,29.7,3.2z"/>
					</g>
				</g>
			</g>
			<g>
				<g>
					<g>
						<path fill="#FFD15C" d="M29.3,4c0,0,0,0.4-0.4,0.2c-0.4-0.2-1.2-0.9-0.8-1.7c0,0,0.4-0.6,0.8,0.2C29.3,3.5,29.3,4,29.3,4z"/>
					</g>
				</g>
			</g>
		</g>
		<g>
			<g>
				<g>
					<path fill="#FFD15C" d="M23.2,31.8l0.2,1.1c0,0-0.8,1.1-1.3,1.4c-0.5,0.3-1.5,1.5-1.5,1.5S19,38,17.7,39
						c-1.2,1.1-1.8,3.5-1.8,3.5s-2.3-0.3-2.4-1.5l0.6-0.6c0,0,1.6-1.9,1.9-3c0.3-1.1,2.3-4.7,3.5-5.2C20.8,31.8,23.2,31.8,23.2,31.8
						z"/>
				</g>
			</g>
		</g>
		<g>
			<g>
				<g>
					<path fill="#FFD15C" d="M28.7,30.2l0.4,1.3l0.6,0.6c0,0,0.1,0.2,0,0.4c-0.1,0.2-0.4,2.6-0.1,4.8c0.3,2.1,0.1,5.3,0.1,5.3
						s2.3,1.2,2.5,0c0,0-0.4-2.2-0.2-3.5s0.6-2.6,0.5-4.5c0,0,0.2-1.6,0.5-2c0.3-0.4,0.4-1.5,0-2.1c-0.4-0.5-2-0.8-2-0.8L28.7,30.2z
						"/>
				</g>
			</g>
		</g>
		<g>
			<g>
				<g>
					<g>
						<path fill="#425A6B" d="M36.4,45.7c0-0.1-0.1-0.2-0.2-0.2c-0.9-0.2-1.5-0.6-2.3-1.2c-0.9-0.7-1.6-2.3-1.6-2.3
							c-0.7,0.6-2.8,0.3-2.8,0.3l-0.6,1.3l0.1,0.2l1.1,1.1l5.6,1.4c0.1,0,0.4-0.1,0.7-0.3C36.4,45.9,36.4,45.7,36.4,45.7z"/>
					</g>
				</g>
			</g>
			<g>
				<g>
					<g>
						<path fill="#E8EAE8" d="M36.4,45.7c0,0-1.7,0.3-2.7-0.3c-0.2-0.1-0.4-0.2-0.6-0.2c-0.9-0.1-3.1-0.7-3.8-1.3
							c0,0-0.5-0.4-0.6-0.2c0,0-0.5,0.4-0.3,0.9c0.2,0.5,1.8,0.9,1.8,0.9s0.9,0.4,2,0.7c0.9,0.2,2.7,0.5,3.6,0.3
							C36.2,46.3,36.5,46,36.4,45.7L36.4,45.7z"/>
					</g>
				</g>
			</g>
		</g>
		<g>
			<g>
				<g>
					<g>
						<path fill="#425A6B" d="M16.5,47.8c0.1-0.1,0.1-0.2,0-0.3c-0.5-0.8-0.7-1.4-0.8-2.5c-0.2-1.1,0.4-2.7,0.4-2.7
							c-0.9,0-2.2-1.7-2.2-1.7L12.6,41l-0.1,0.2l0,1.5l3,4.9c0.1,0.1,0.4,0.2,0.7,0.3C16.3,47.9,16.5,47.8,16.5,47.8z"/>
					</g>
				</g>
			</g>
			<g>
				<g>
					<g>
						<path fill="#E8EAE8" d="M16.5,47.8c0,0-1.4-0.9-1.7-2.1c0-0.2-0.1-0.4-0.3-0.5c-0.5-0.7-1.7-2.6-1.8-3.5c0,0,0-0.6-0.3-0.6
							c0,0-0.6,0-0.9,0.4c-0.2,0.5,0.7,1.9,0.7,1.9s0.4,0.9,1,1.9c0.4,0.8,1.6,2.2,2.4,2.7C15.9,48.1,16.3,48,16.5,47.8L16.5,47.8z"
							/>
					</g>
				</g>
			</g>
		</g>
		<g>
			<g>
				<g>
					<g>
						<path fill="#425A6B" d="M22.4,21.7l-0.9,0.8c0,0-0.2,0.7,0.2,1.5c0.3,0.9-0.2,1.9-0.2,1.9s-0.9,2.7-0.9,3.9c0,1.1-1,2.4-1,2.4
							c1.4,0.7,2.7,0.9,3.9,0.6l3-3.8l2.6,2.4c0,0,1.2-1.5,3.9-1.1c0,0-1.3-3.7-2-4.7c-0.7-1-1-2.1-1.8-2.8
							C28.4,22.2,22.4,21.7,22.4,21.7z"/>
					</g>
				</g>
			</g>
			<g>
				<g>
					<g>
						<path fill="#F5B54C" d="M24.3,10.9l0.8,5.4c0,0-1.9-0.8-2.7-1.5c-0.4-0.3-0.7-0.5-0.9-0.6c-0.4-0.2-0.6-0.6-0.5-0.9
							c0-0.1,0-0.2,0.1-0.4c0.2-0.6,0.7-2,1.1-2.6C22.8,9.8,24.3,10.9,24.3,10.9z"/>
					</g>
				</g>
			</g>
			<g>
				<g>
					<g>
						<path fill="#425A6B" d="M24.4,7.9l-2.1,2.4c0,0,0.6,1.2,2.1,1.8l1.9-3.9L24.4,7.9z"/>
					</g>
				</g>
			</g>
			<g>
				<g>
					<g>
						<path fill="#F26F5A" d="M24.5,7.7c0,0-0.9,2.9-0.8,4.5s0.3,3.5,0.1,4.3c-0.2,0.9-0.8,3.2-0.9,3.4c0,0-1.4,1.1-1.4,2.6
							c0,0,0.5,0.1,1.7,0.5c1.2,0.4,2.6,0.4,2.6,0.4s2.1,0.4,2.5,0.6c0.4,0.1,1.1-0.4,1.1-0.4s-0.5-1.6-0.4-2.3
							c0.1-0.7,1.2-4.2,1.2-5.2v-0.9c0,0,1-1.9,1.1-3.5s-0.3-3.3-1.5-4.3c-1.1-0.9-1.6-1.2-1.6-1.2l-0.2,0c0,0-1.1,0-1.6,0.1
							c-0.1,0-0.1,0-0.2,0c-0.3,0-0.6,0.5-0.6,0.5s-0.1,0.4-0.6,0.5C24.6,7.4,24.5,7.7,24.5,7.7z"/>
					</g>
				</g>
			</g>
			<g>
				<g>
					<g>
						<path fill="#FFD15C" d="M30.2,12.6l-0.1,0.6c0,0-0.2,0.3-0.1,0.6c0,0,0.6,0.7,0.8,1.1c0.2,0.4,0.9,0.2,0.9,0.2l0.5-0.7
							c0,0,0.5-0.2,0.6-0.4c0,0,0.2,0,0.3,0c0.1,0.1,0.2,0.2,0.3,0.2c0.1,0,0.1,0.4-0.3,0.3v0.1l0.6,0c0,0,0.1,0.4,0.1,0.6
							c0,0,0.2,0,0.2,0.3c0,0.2-0.2,0.3-0.2,0.3s0.1,0.1,0.1,0.3c0,0.2-0.1,0.2-0.1,0.2s0.1,0.1,0.1,0.3c0,0.2-0.2,0.3-0.2,0.3
							s-0.7,0.1-0.9,0.2c-0.2,0.1-0.9-0.2-0.9-0.2s-1.1,0-1.5,0.1c-0.5,0.1-1.5,0-2.2-0.5c0,0-0.6-0.1-0.7-0.6c0,0-0.8-1-0.7-3.2
							c0,0,0,0,0-0.1c0.1-1.5,2.1-2,2.9-0.8L30.2,12.6z"/>
					</g>
				</g>
			</g>
			<g>
				<g>
					<g>
						<path fill="#425A6B" d="M31.3,9.6c0,0.3-0.1,0.6-0.3,0.8c-0.6,0.6-0.7,1.2-0.7,1.2s0,1.1-0.3,1.6c-0.5-1-2.3-1.3-3.3-0.6
							c0,0-0.4-1.7,0.2-2.9C27.4,9,27.5,7.7,27.6,7c0-0.3,0.1-0.8,0.5-0.9c0.1,0,0.3,0,0.3,0s0.5,0.2,1.6,1.2
							C30.6,7.9,31.1,8.7,31.3,9.6z"/>
					</g>
				</g>
			</g>
			<g>
				<g>
					<g>
						<polygon fill="#344A5E" points="28.6,25.7 27.9,30.3 26.5,29 						"/>
					</g>
				</g>
			</g>
		</g>
	</g>
</g>
</svg>
