<?xml version="1.0" encoding="utf-8"?>
<!-- Generator: Adobe Illustrator 16.0.0, SVG Export Plug-In . SVG Version: 6.00 Build 0)  -->
<!DOCTYPE svg PUBLIC "-//W3C//DTD SVG 1.1//EN" "http://www.w3.org/Graphics/SVG/1.1/DTD/svg11.dtd">
<svg version="1.1" id="Layer_1" xmlns="http://www.w3.org/2000/svg" xmlns:xlink="http://www.w3.org/1999/xlink" x="0px" y="0px"
	 width="48px" height="48px" viewBox="0 0 48 48" enable-background="new 0 0 48 48" xml:space="preserve">
<g>
	<path fill="#FFD15C" d="M15.24,6.319c0,3.474-2.816,6.29-6.29,6.29s-6.29-2.816-6.29-6.29s2.816-6.29,6.29-6.29
		S15.24,2.845,15.24,6.319"/>
	<path fill="#F8B64C" d="M14.291,6.319c0,2.95-2.392,5.341-5.341,5.341S3.608,9.27,3.608,6.319c0-2.95,2.393-5.341,5.342-5.341
		S14.291,3.37,14.291,6.319"/>
	<path fill="#FFD15C" d="M4.459,6.017h3.367c0.146,0,0.218-0.176,0.115-0.278L5.56,3.357c-0.07-0.07-0.189-0.066-0.251,0.01
		C4.75,4.055,4.387,4.9,4.289,5.83C4.279,5.928,4.361,6.017,4.459,6.017"/>
	<path fill="#FFD15C" d="M9.531,5.311l2.382-2.382c0.069-0.07,0.065-0.189-0.011-0.251c-0.688-0.559-1.532-0.922-2.463-1.02
		c-0.098-0.01-0.187,0.071-0.187,0.17v3.367C9.253,5.341,9.428,5.414,9.531,5.311"/>
	<path fill="#FFD15C" d="M8.461,1.659C7.53,1.756,6.686,2.12,5.997,2.678C5.922,2.74,5.917,2.86,5.987,2.929l2.382,2.382
		c0.104,0.103,0.278,0.03,0.278-0.115V1.829C8.647,1.731,8.559,1.649,8.461,1.659"/>
	<path fill="#FFD15C" d="M7.826,6.622H4.459c-0.098,0-0.18,0.089-0.17,0.187c0.097,0.93,0.461,1.775,1.02,2.463
		C5.37,9.348,5.49,9.352,5.56,9.282L7.941,6.9C8.044,6.797,7.971,6.622,7.826,6.622"/>
	<path fill="#FFD15C" d="M10.074,6.017h3.366c0.099,0,0.181-0.089,0.171-0.187c-0.098-0.93-0.462-1.775-1.02-2.463
		c-0.062-0.076-0.182-0.08-0.251-0.01L9.959,5.739C9.855,5.841,9.929,6.017,10.074,6.017"/>
	<path fill="#FFD15C" d="M13.44,6.622h-3.366c-0.146,0-0.219,0.175-0.115,0.278l2.382,2.382c0.07,0.07,0.188,0.066,0.251-0.01
		c0.558-0.688,0.922-1.533,1.019-2.463C13.621,6.711,13.539,6.622,13.44,6.622"/>
	<path fill="#FFD15C" d="M8.369,7.328L5.987,9.71c-0.07,0.07-0.066,0.188,0.01,0.251C6.686,10.52,7.53,10.883,8.46,10.98
		c0.099,0.01,0.188-0.071,0.188-0.17V7.443C8.647,7.298,8.473,7.225,8.369,7.328"/>
	<path fill="#FFD15C" d="M9.531,7.328c-0.104-0.103-0.278-0.03-0.278,0.115v3.367c0,0.099,0.089,0.18,0.187,0.17
		c0.931-0.097,1.774-0.46,2.463-1.019c0.076-0.063,0.08-0.181,0.011-0.251L9.531,7.328z"/>
	<path fill="#F2F2F2" d="M35.249,46.282h-1.613c-5.378,0.134-5.445-5.378-5.445-5.378v-7.238c0-5.243,1.544-7.113,1.544-7.113
		L45.339,6.32H26.926H8.513l15.605,20.233c0,0,1.544,1.87,1.544,7.113v7.238c0,0-0.067,5.512-5.445,5.378h-1.613
		c-0.966,0-1.748,0.782-1.748,1.748h10.07h10.071C36.997,47.063,36.214,46.282,35.249,46.282"/>
	<path fill="#CDD6E0" d="M44.975,0.051c-0.336-0.179-0.753-0.053-0.932,0.283L30.167,18.284c-0.18,0.335-0.054,0.753,0.283,0.932
		c0.335,0.179,0.753,0.053,0.932-0.283L45.258,0.983C45.437,0.648,45.311,0.23,44.975,0.051"/>
	<path fill="#FFD15C" d="M26.927,26.479c-0.25,0-0.481-0.112-0.635-0.308l-9.376-11.92c3.538-0.186,6.979-1.307,10.317-2.395
		c3.506-1.144,7.131-2.325,10.615-2.325c0.917,0,1.779,0.077,2.616,0.236L27.563,26.169C27.408,26.368,27.177,26.479,26.927,26.479"
		/>
</g>
</svg>
