<?xml version="1.0" encoding="utf-8"?>
<!-- Generator: Adobe Illustrator 18.0.0, SVG Export Plug-In . SVG Version: 6.00 Build 0)  -->
<!DOCTYPE svg PUBLIC "-//W3C//DTD SVG 1.1//EN" "http://www.w3.org/Graphics/SVG/1.1/DTD/svg11.dtd">
<svg version="1.1" id="Layer_1" xmlns="http://www.w3.org/2000/svg" xmlns:xlink="http://www.w3.org/1999/xlink" x="0px" y="0px"
	 viewBox="0 0 48 48" enable-background="new 0 0 48 48" xml:space="preserve">
<g>
	<path fill="#F8B64C" d="M34.2,31.4c0,0.2,0.1,0.3,0.1,0.5c0,1.4-1.4,2.6-2.8,2.2l-0.8-0.2c0,0.1,0,0.1,0,0.2c0,1.3-1.4,2.3-2.7,1.8
		l-0.8-0.3c0,0.1,0,0.2,0,0.3c0,1.1-1.1,2-2.2,1.8l-0.6-0.1l-12.6-6.8c0,0-0.7-1.9-2.4-2.4l-2.5-1l-1.4-0.5l4.8-12.4l1.4,0.6
		l1.6,0.7c0,0,1.1,0.4,3.8-0.9c1.6-0.8,3.2-1.5,4.9-2.1l0.4-0.1c0,0,1.1-0.3,2.1,0.7l12.1,14.9l0,0C37.4,29.9,36,31.9,34.2,31.4z"/>
	
		<rect x="2.5" y="12.4" transform="matrix(0.9337 0.3582 -0.3582 0.9337 7.4548 -0.5518)" fill="#CDD6E0" width="5.5" height="14.9"/>
	
		<rect x="40.6" y="10.4" transform="matrix(-0.9608 0.2771 -0.2771 -0.9608 89.876 23.0215)" fill="#40596B" width="5.5" height="14.9"/>
	<path fill="#FFD15C" d="M42.4,24.8L41,25l-1.2,0.2l-3.3,3.2c-1.6-1.9-2.9-3.8-4.7-5.5c-2.3-2.2-5-4.1-5-4.1c-2.4,1-4.3,0.3-4.3,0.3
		c-0.9,2-2.8,3.4-2.8,3.4c0,0-0.1,0-0.1,0.1c-1.9,1-4-1.1-3-3l1.6-2.9c0.2-0.4,0.6-0.8,1.1-1l5.5-2.3c0.4-0.2,0.8-0.2,1.3-0.1
		l6.6,1.2l5-1l1.5-0.3L42.4,24.8z"/>
	<path fill="#FFD15C" d="M23.7,34.3C23,33.8,22,34.1,21.2,35c0.6-1.1,0.5-2.2-0.2-2.8c-0.8-0.6-2.2-0.2-3.2,0.9
		c0.5-1.1,0.4-2.1-0.2-2.6c-0.8-0.7-2.4,0-3.5,1.3c0.6-1.1,0.5-2.2-0.2-2.8c-0.8-0.7-2.3-0.2-3.3,1.1c-1,1.2-1.1,2.8-0.2,3.4
		c0.8,0.6,2.2,0.2,3.2-1c-0.7,1.2-0.7,2.5,0,3c0.8,0.7,2.4,0,3.5-1.3c-0.4,1-0.3,1.9,0.4,2.4c0.8,0.6,2.3,0.2,3.2-1
		c-0.4,0.8-0.3,1.7,0.2,2.1c0.7,0.5,1.8,0.2,2.6-0.8C24.3,36,24.4,34.8,23.7,34.3z"/>
	<polygon fill="#F7AD43" points="11.6,15.1 6.9,27.4 5.5,26.8 10.2,14.4 	"/>
	<polygon fill="#FFCA55" points="42.4,24.8 41,25 37.6,13.3 39.1,13 	"/>
	<circle fill="#ACB3BA" cx="3.3" cy="25" r="0.9"/>
</g>
</svg>
