<?xml version="1.0" encoding="utf-8"?>
<!-- Generator: Adobe Illustrator 16.0.0, SVG Export Plug-In . SVG Version: 6.00 Build 0)  -->
<!DOCTYPE svg PUBLIC "-//W3C//DTD SVG 1.1//EN" "http://www.w3.org/Graphics/SVG/1.1/DTD/svg11.dtd">
<svg version="1.1" id="Layer_1" xmlns="http://www.w3.org/2000/svg" xmlns:xlink="http://www.w3.org/1999/xlink" x="0px" y="0px"
	 width="48px" height="48px" viewBox="0 0 48 48" enable-background="new 0 0 48 48" xml:space="preserve">
<g>
	<path fill="#F2F2F2" d="M45.583,21.422v24.291c0,1.263-1.023,2.286-2.286,2.286H4.701c-1.262,0-2.285-1.023-2.285-2.286V21.422
		H45.583z"/>
	<rect x="2.416" y="21.423" fill="#E8EAEA" width="43.167" height="3.354"/>
	<path fill="#F2F2F2" d="M48,21.421V12.88c0-1.263-1.023-2.286-2.286-2.286H2.285C1.022,10.594,0,11.618,0,12.88v8.541H48z"/>
	<path fill="#FF7058" d="M36.673,25.132l2.239-2.054c-0.013,0.006-1.229,0.567-2.557-0.053c-1.189-0.556-2.837-2.224-3.916-7.042
		c-0.739-2.998-3.522-4.782-6.515-5.846l0.895,4.764c0.897,0.551,1.537,1.21,1.73,1.991c1.146,5.113,3.201,8.388,6.112,9.754
		c3.024,1.413,5.697,0.177,6.06-0.006l0.019-0.009L36.673,25.132z"/>
	<rect x="20.636" y="9.994" fill="#FF7058" width="6.727" height="38.006"/>
	<path fill="#FF7058" d="M23.66,14.106c-3.609,2.229-9.555,6.981-10.146,10.24l-1.247-2.707l-2.687,1.999
		c1.091-6.074,10.867-12.251,11.978-12.933L23.66,14.106z"/>
	<path fill="#FF7058" d="M24,9.9c0,0-9.148,2.124-11.55,0.348c-2.312-1.71-2.312-8.322,0-10.032C14.852-1.56,24,8.205,24,8.205V9.9z
		"/>
	<path fill="#F1543F" d="M12.451,6.801c-0.068,0.05-0.134,0.105-0.197,0.166c-0.88,0.835-0.88,2.28,0,3.115
		c0.063,0.06,0.129,0.115,0.197,0.165C14.851,12.023,24,9.899,24,9.899S14.851,5.027,12.451,6.801"/>
	<path fill="#FF7058" d="M24,9.9c0,0,9.147,2.124,11.549,0.348c2.312-1.71,2.312-8.322,0-10.032C33.147-1.56,24,8.205,24,8.205V9.9z
		"/>
	<path fill="#F1543F" d="M35.548,6.801c0.068,0.05,0.134,0.105,0.197,0.166c0.88,0.835,0.88,2.28,0,3.115
		c-0.063,0.06-0.129,0.115-0.197,0.165c-2.399,1.776-11.549-0.348-11.549-0.348S33.148,5.027,35.548,6.801"/>
	<path fill="#EA4939" d="M21.876,5.97l-0.264,4.357c-0.006,0.127,0.1,0.234,0.233,0.234h4.309c0.133,0,0.238-0.107,0.232-0.234
		L26.123,5.97c-0.006-0.12-0.109-0.214-0.234-0.214H22.11C21.985,5.756,21.882,5.85,21.876,5.97"/>
</g>
</svg>
