<?xml version="1.0" encoding="utf-8"?>
<!-- Generator: Adobe Illustrator 18.0.0, SVG Export Plug-In . SVG Version: 6.00 Build 0)  -->
<!DOCTYPE svg PUBLIC "-//W3C//DTD SVG 1.1//EN" "http://www.w3.org/Graphics/SVG/1.1/DTD/svg11.dtd">
<svg version="1.1" id="Layer_1" xmlns="http://www.w3.org/2000/svg" xmlns:xlink="http://www.w3.org/1999/xlink" x="0px" y="0px"
	 viewBox="0 0 48 48" enable-background="new 0 0 48 48" xml:space="preserve">
<g>
	<g>
		<g>
			<g>
				<g>
					<rect x="11.4" fill="#FFD15C" width="3.4" height="6.7"/>
					<rect x="18.7" fill="#FFD15C" width="3.4" height="6.7"/>
					<rect x="25.9" fill="#FFD15C" width="3.4" height="6.7"/>
					<rect x="33.2" fill="#FFD15C" width="3.4" height="6.7"/>
				</g>
				<g>
					<rect x="11.4" y="41.3" fill="#FFD15C" width="3.4" height="6.7"/>
					<rect x="18.7" y="41.3" fill="#FFD15C" width="3.4" height="6.7"/>
					<rect x="25.9" y="41.3" fill="#FFD15C" width="3.4" height="6.7"/>
					<rect x="33.2" y="41.3" fill="#FFD15C" width="3.4" height="6.7"/>
				</g>
			</g>
			<g>
				<g>
					<rect x="41.3" y="11.4" fill="#FFD15C" width="6.7" height="3.4"/>
					<rect x="41.3" y="18.7" fill="#FFD15C" width="6.7" height="3.4"/>
					<rect x="41.3" y="25.9" fill="#FFD15C" width="6.7" height="3.4"/>
					<rect x="41.3" y="33.2" fill="#FFD15C" width="6.7" height="3.4"/>
				</g>
				<g>
					<rect x="0" y="11.4" fill="#FFD15C" width="6.7" height="3.4"/>
					<rect x="0" y="18.7" fill="#FFD15C" width="6.7" height="3.4"/>
					<rect x="0" y="25.9" fill="#FFD15C" width="6.7" height="3.4"/>
					<rect x="0" y="33.2" fill="#FFD15C" width="6.7" height="3.4"/>
				</g>
			</g>
		</g>
		<g>
			<path fill="#E8EAE9" d="M38.9,6.7H9.1c-1.3,0-2.3,1-2.3,2.3v29.9c0,1.3,1,2.3,2.3,2.3h29.9c1.3,0,2.3-1,2.3-2.3V9.1
				C41.3,7.8,40.2,6.7,38.9,6.7z"/>
			<g>
				<rect x="11.7" y="11.7" fill="#415A6B" width="24.5" height="24.5"/>
			</g>
		</g>
	</g>
</g>
</svg>
