<?xml version="1.0" encoding="utf-8"?>
<!-- Generator: Adobe Illustrator 18.0.0, SVG Export Plug-In . SVG Version: 6.00 Build 0)  -->
<!DOCTYPE svg PUBLIC "-//W3C//DTD SVG 1.1//EN" "http://www.w3.org/Graphics/SVG/1.1/DTD/svg11.dtd">
<svg version="1.1" id="Layer_1" xmlns="http://www.w3.org/2000/svg" xmlns:xlink="http://www.w3.org/1999/xlink" x="0px" y="0px"
	 viewBox="0 0 512 512" enable-background="new 0 0 512 512" xml:space="preserve">
<g>
	<path fill="#CDD6E0" d="M444.7,142.4l1,204.9c38-18.4,64.3-57.2,64.3-102.2C510,199.7,483.3,160.6,444.7,142.4z"/>
	<path fill="#40596B" d="M23.1,136.7c-11.7,0-21.1,9.5-21.1,21.1v174.5c0,11.7,9.5,21.1,21.1,21.1h134.5V136.7H23.1z"/>
	<path fill="#40596B" d="M414.2,2.3c-17.2,0-31.1,13.9-31.1,31.1v423.3c0,17.2,13.9,31.1,31.1,31.1s31.1-13.9,31.1-31.1V33.4
		C445.3,16.3,431.4,2.3,414.2,2.3z"/>
	<path fill="#F2F2F2" d="M383.1,33.4c0-4.9,1.2-9.5,3.2-13.6L157.7,136.7v216.8l228.6,116.8c-2-4.1-3.2-8.7-3.2-13.6V33.4z"/>
	<path fill="#ACB3BA" d="M138.9,353.5H35.8c-0.6,0-1.3-0.1-1.9-0.1l53.4,156.3h104.9L138.9,353.5z"/>
	<g>
		<path fill="#334A5E" d="M72.5,185.4c0,6.4-5.1,11.5-11.5,11.5H2v-23.1h59c3.2,0,6,1.3,8.1,3.4C71.2,179.3,72.5,182.3,72.5,185.4z"
			/>
		<path fill="#334A5E" d="M72.5,245.1c0,6.3-5.1,11.5-11.5,11.5H2v-23.1h59c3.2,0,6,1.3,8.1,3.4S72.5,241.9,72.5,245.1z"/>
		<path fill="#334A5E" d="M72.5,304.8c0,6.3-5.1,11.5-11.5,11.5H2v-23.1h59c3.2,0,6,1.3,8.1,3.4C71.2,298.7,72.5,301.7,72.5,304.8z"
			/>
	</g>
</g>
</svg>
