<?xml version="1.0" encoding="utf-8"?>
<!-- Generator: Adobe Illustrator 18.0.0, SVG Export Plug-In . SVG Version: 6.00 Build 0)  -->
<!DOCTYPE svg PUBLIC "-//W3C//DTD SVG 1.1//EN" "http://www.w3.org/Graphics/SVG/1.1/DTD/svg11.dtd">
<svg version="1.1" id="Layer_1" xmlns="http://www.w3.org/2000/svg" xmlns:xlink="http://www.w3.org/1999/xlink" x="0px" y="0px"
	 viewBox="0 0 48 48" enable-background="new 0 0 48 48" xml:space="preserve">
<g>
	<g>
		<path fill="#F3F3F3" d="M24,4.4L24,4.4C16.5,11.8,12.3,16,4.9,23.5V48h38.3V23.5C35.7,16,31.5,11.8,24,4.4z"/>
	</g>
	<g>
		<path fill="#415A6B" d="M26.3,33.6l2,6.1h-8.7l2-6.1c-1.2-0.8-2-2.1-2-3.7c0-2.4,2-4.4,4.4-4.4c2.4,0,4.4,2,4.4,4.4
			C28.4,31.5,27.6,32.8,26.3,33.6z"/>
	</g>
	<g>
		<path fill="#E8EAE9" d="M43.1,22.5v7.3C35.7,22.3,31.5,18.1,24,10.6c-7.5,7.5-11.7,11.7-19.1,19.2v-7.3C12.3,15,16.5,10.8,24,3.4
			C31.5,10.8,35.7,15,43.1,22.5z"/>
	</g>
	<g>
		<g>
			<path fill="#66C6B9" d="M4.9,26L24,7L43.1,26c1.1,1.1,3,1.1,4.1,0l0,0c1.1-1.1,1.1-3,0-4.1L26,0.8c-1.1-1.1-3-1.1-4.1,0L0.8,22
				c-1.1,1.1-1.1,3,0,4.1l0,0C2,27.2,3.8,27.2,4.9,26z"/>
		</g>
	</g>
</g>
</svg>
