<?xml version="1.0" encoding="utf-8"?>
<!-- Generator: Adobe Illustrator 18.0.0, SVG Export Plug-In . SVG Version: 6.00 Build 0)  -->
<!DOCTYPE svg PUBLIC "-//W3C//DTD SVG 1.1//EN" "http://www.w3.org/Graphics/SVG/1.1/DTD/svg11.dtd">
<svg version="1.1" id="Layer_1" xmlns="http://www.w3.org/2000/svg" xmlns:xlink="http://www.w3.org/1999/xlink" x="0px" y="0px"
	 viewBox="0 0 48 48" enable-background="new 0 0 48 48" xml:space="preserve">
<g>
	<g>
		<g>
			<path fill="#F3F3F3" d="M48,8.1"/>
			<path fill="#E8EAE9" d="M33.8,0.3c-1.4-0.8-2.2,0.4-2.2,0.4C26.9,12,15.2,26.4,15.2,26.4l4.6,4.7c0.8-0.2,1.6,0,2.1,0.5l6.8,6.5
				c9.9-8.1,16.6-17.9,19.3-30C43.7,5.7,34.9,0.9,33.8,0.3z M33.3,6.8c-0.7-0.5-0.8-1.5-0.2-2.2c0.5-0.7,1.5-0.8,2.2-0.2
				c0.7,0.5,0.8,1.5,0.2,2.2C35,7.2,34,7.3,33.3,6.8z"/>
			<g>
				<path fill="#F3F3F3" d="M48,8.1c-2.7,12.1-9.4,22-19.3,30l-2.1-2c9.7-7.9,16.3-17.6,19-29.4C46.5,7.3,47.3,7.7,48,8.1z"/>
			</g>
		</g>
		<path fill="#F3705B" d="M15.2,26.4c0,0-12.5,12.2-14.9,15.1c-0.3,0.3-0.3,0.7-0.2,1.1c0.6,1.3,2.1,4.6,4.1,5.4
			c0.5,0.2,1,0,1.2-0.4C6.5,46,8.7,42.9,10,41c0.5-0.7,9.8-9.9,9.8-9.9L15.2,26.4z"/>
	</g>
</g>
</svg>
