<?xml version="1.0" encoding="utf-8"?>
<!-- Generator: Adobe Illustrator 18.0.0, SVG Export Plug-In . SVG Version: 6.00 Build 0)  -->
<!DOCTYPE svg PUBLIC "-//W3C//DTD SVG 1.1//EN" "http://www.w3.org/Graphics/SVG/1.1/DTD/svg11.dtd">
<svg version="1.1" id="Layer_1" xmlns="http://www.w3.org/2000/svg" xmlns:xlink="http://www.w3.org/1999/xlink" x="0px" y="0px"
	 viewBox="0 0 48 48" enable-background="new 0 0 48 48" xml:space="preserve">
<g>
	<g>
		<g>
			<path fill="#CED6E0" d="M47.8,27.3h-8.3v16.6c0,2.3,1.8,4.1,4.1,4.1l0,0c2.3,0,4.1-1.8,4.1-4.1V27.3z"/>
			<g>
				<path fill="#F3F3F3" d="M39.5,43.9V27.3V4.1c0-2.3-1.8-4.1-4.1-4.1H4.3C2.1,0,0.2,1.8,0.2,4.1v39.7c0,2.3,1.8,4.1,4.1,4.1h39.3
					C41.4,48,39.5,46.2,39.5,43.9z"/>
			</g>
		</g>
		<rect x="4.2" y="41.8" fill="#CED6E0" width="31.3" height="2.2"/>
		<rect x="4.2" y="35.9" fill="#CED6E0" width="31.3" height="2.2"/>
		<rect x="4.2" y="29.9" fill="#CED6E0" width="31.3" height="2.2"/>
		<g>
			<g>
				<g>
					<path fill="#F3705A" d="M27.8,21.4H11.9l0,0c1.5-2.3,2.3-5,2.3-7.7V9.6c0-3.1,2.5-5.6,5.6-5.6h0c3.1,0,5.6,2.5,5.6,5.6v4.1
						C25.5,16.4,26.3,19.1,27.8,21.4L27.8,21.4z"/>
				</g>
			</g>
			<g>
				<polygon fill="#CED6E0" points="21.4,24.8 23.4,18.6 19.9,18.6 14.3,22 16.3,24.8 				"/>
			</g>
			<g>
				<g>
					<polygon fill="#F3F3F3" points="22.6,16.4 19.9,18.6 22.2,21.3 23.4,18.1 					"/>
					<polygon fill="#F3F3F3" points="17.1,16.4 16.3,18.1 17.6,21.3 19.9,18.6 					"/>
				</g>
			</g>
			<g>
				<g>
					<path fill="#344A5E" d="M30,24.8L30,24.8c-0.2-2.8-2.1-5.3-4.8-6.1l-0.7-0.2l-2.6,6.4H30z"/>
					<g>
						<polygon fill="#415A6B" points="23.2,24.8 25.9,20.9 24.5,19.9 25.7,19.7 22.8,16.8 21,24.8 						"/>
					</g>
				</g>
				<g>
					<path fill="#344A5E" d="M17.8,24.8l-2.6-6.4l-0.7,0.2c-2.7,0.8-4.6,3.3-4.8,6.1v0H17.8z"/>
					<g>
						<polygon fill="#415A6B" points="16.5,24.8 18.7,24.8 16.9,16.8 14,19.7 15.2,19.9 13.8,20.9 						"/>
					</g>
				</g>
			</g>
			<polygon fill="#F7B64C" points="22.6,14.1 19.9,11.9 17.1,14.1 17.1,16.4 19.9,18.6 22.6,16.4 			"/>
			<g>
				<g>
					<path fill="#FFD15C" d="M24.6,12.2c-0.2,0.9-0.7,1.5-1.2,1.4s-0.7-0.9-0.5-1.7c0.2-0.9,0.7-1.5,1.2-1.4
						C24.6,10.5,24.8,11.3,24.6,12.2z"/>
				</g>
			</g>
			<g>
				<g>
					<path fill="#FFD15C" d="M15.1,12.2c0.2,0.9,0.7,1.5,1.2,1.4c0.5-0.1,0.7-0.9,0.5-1.7c-0.2-0.9-0.7-1.5-1.2-1.4
						C15.1,10.5,14.9,11.3,15.1,12.2z"/>
				</g>
			</g>
			<path fill="#FFD15C" d="M24,10.5c0,3.6-1.9,6.6-4.2,6.6s-4.2-2.9-4.2-6.6c0-0.1,0-0.9,0-1v0c0.2,0,3.9-0.4,5-2.2
				c1,0.8,1.7,1.3,3.2,1.5c0,0.2,0,1.1,0.1,1.3C24,10.2,24,10.4,24,10.5z"/>
		</g>
	</g>
</g>
</svg>
