<?xml version="1.0" encoding="utf-8"?>
<!-- Generator: Adobe Illustrator 18.0.0, SVG Export Plug-In . SVG Version: 6.00 Build 0)  -->
<!DOCTYPE svg PUBLIC "-//W3C//DTD SVG 1.1//EN" "http://www.w3.org/Graphics/SVG/1.1/DTD/svg11.dtd">
<svg version="1.1" id="Layer_1" xmlns="http://www.w3.org/2000/svg" xmlns:xlink="http://www.w3.org/1999/xlink" x="0px" y="0px"
	 viewBox="0 0 48 48" enable-background="new 0 0 48 48" xml:space="preserve">
<g>
	<path fill="#CDD6E0" d="M0,14.5V46c0,1.1,0.9,2,2,2h44c1.1,0,2-0.9,2-2V14.5H0z"/>
	<rect x="4" y="18.5" fill="#F2F2F2" width="40" height="25.5"/>
	<path fill="#FF7058" d="M46,5H2C0.9,5,0,5.9,0,7v7.5h48V7C48,5.9,47.1,5,46,5z"/>
	<circle fill="#FFFFFF" cx="6.2" cy="8.7" r="2.1"/>
	<path fill="#40596B" d="M6.2,9.7L6.2,9.7c-0.8,0-1.4-0.6-1.4-1.4V1.4C4.8,0.6,5.4,0,6.2,0l0,0C7,0,7.6,0.6,7.6,1.4v6.9
		C7.6,9.1,7,9.7,6.2,9.7z"/>
	<circle fill="#FFFFFF" cx="18.1" cy="8.7" r="2.1"/>
	<path fill="#40596B" d="M18.1,9.7L18.1,9.7c-0.8,0-1.4-0.6-1.4-1.4V1.4c0-0.8,0.6-1.4,1.4-1.4l0,0c0.8,0,1.4,0.6,1.4,1.4v6.9
		C19.5,9.1,18.9,9.7,18.1,9.7z"/>
	<circle fill="#FFFFFF" cx="29.9" cy="8.7" r="2.1"/>
	<path fill="#40596B" d="M29.9,9.7L29.9,9.7c-0.8,0-1.4-0.6-1.4-1.4V1.4c0-0.8,0.6-1.4,1.4-1.4l0,0c0.8,0,1.4,0.6,1.4,1.4v6.9
		C31.4,9.1,30.7,9.7,29.9,9.7z"/>
	<circle fill="#FFFFFF" cx="41.8" cy="8.7" r="2.1"/>
	<path fill="#40596B" d="M41.8,9.7L41.8,9.7c-0.8,0-1.4-0.6-1.4-1.4V1.4C40.4,0.6,41,0,41.8,0l0,0c0.8,0,1.4,0.6,1.4,1.4v6.9
		C43.2,9.1,42.6,9.7,41.8,9.7z"/>
	<g>
		<circle fill="#FF7058" cx="24" cy="32.2" r="8.7"/>
		<polygon fill="#FFFFFF" points="30,31.3 25,31.3 25,26.2 23,26.2 23,31.3 18,31.3 18,33.2 23,33.2 23,38.2 25,38.2 25,33.2 
			30,33.2 		"/>
		<path fill="#F1543F" d="M16.3,33.2c0-4.8,3.9-8.7,8.7-8.7c2.1,0,4.1,0.8,5.6,2.1c-1.6-1.9-4-3.1-6.6-3.1c-4.8,0-8.7,3.9-8.7,8.7
			c0,2.7,1.2,5,3.1,6.6C17.1,37.3,16.3,35.4,16.3,33.2z"/>
	</g>
</g>
</svg>
