<?xml version="1.0" encoding="utf-8"?>
<!-- Generator: Adobe Illustrator 20.1.0, SVG Export Plug-In . SVG Version: 6.00 Build 0)  -->
<!DOCTYPE svg PUBLIC "-//W3C//DTD SVG 1.1//EN" "http://www.w3.org/Graphics/SVG/1.1/DTD/svg11.dtd">
<svg version="1.1" id="Layer_1" xmlns="http://www.w3.org/2000/svg" xmlns:xlink="http://www.w3.org/1999/xlink" x="0px" y="0px"
	 viewBox="0 0 49 49" enable-background="new 0 0 49 49" xml:space="preserve">
<g>
	<path fill="#F2F2F2" d="M21.1,23.3c-0.1-2.7-0.4-5.4-0.9-8.1c-0.1-0.5-0.2-1.1-0.3-1.6l-3.8-10H9l-3.8,10c-0.1,0.5-0.2,1.1-0.3,1.6
		c-0.5,2.7-0.7,5.4-0.9,8.1H21.1z"/>
	<path fill="#40596B" d="M19.6,23.3c-0.1-3.1-0.5-6.2-1.1-9.3l-3.3-8.9H10L6.7,14c-0.6,3.1-1,6.2-1.1,9.3H19.6z"/>
	<path fill="#FF7058" d="M21.1,23.3c-0.1-2.7-0.4-5.4-0.9-8.1H4.9c-0.5,2.7-0.7,5.4-0.9,8.1H21.1z"/>
	<path fill="#F2F2F2" d="M10.3,23.3h4.6c1.4-0.5,2.3-1.5,2.3-2.7c0-1.7-2-3.1-4.6-3.1c-2.5,0-4.6,1.4-4.6,3.1
		C8,21.8,8.9,22.7,10.3,23.3z"/>
	<path fill="#FFD15C" d="M16.9,1.2c-0.1-0.4-0.5-0.7-0.9-0.7H9c-0.4,0-0.8,0.3-0.9,0.7L7.4,3.5h10.2L16.9,1.2z"/>
	<path fill="#F2F2F2" d="M45,23.3c-0.1-2.7-0.4-5.4-0.9-8.1c-0.1-0.5-0.2-1.1-0.3-1.6l-3.8-10h-7.3l-3.8,10
		c-0.1,0.5-0.2,1.1-0.3,1.6c-0.5,2.7-0.7,5.4-0.9,8.1H45z"/>
	<path fill="#40596B" d="M43.4,23.3c-0.1-3.1-0.5-6.2-1.1-9.3L39,5.1h-5.1L30.5,14c-0.6,3.1-1,6.2-1.1,9.3H43.4z"/>
	<path fill="#FF7058" d="M45,23.3c-0.1-2.7-0.4-5.4-0.9-8.1H28.7c-0.5,2.7-0.7,5.4-0.9,8.1H45z"/>
	<path fill="#F2F2F2" d="M34.1,23.3h4.6c1.4-0.5,2.3-1.5,2.3-2.7c0-1.7-2-3.1-4.6-3.1c-2.5,0-4.6,1.4-4.6,3.1
		C31.9,21.8,32.8,22.7,34.1,23.3z"/>
	<path fill="#FFD15C" d="M40.7,1.2c-0.1-0.4-0.5-0.7-0.9-0.7h-7c-0.4,0-0.8,0.3-0.9,0.7l-0.8,2.4h10.2L40.7,1.2z"/>
	<path fill="#84DBFF" d="M46.5,23h-44c-1.1,0-2,0.9-2,2v21.5c0,1.1,0.9,2,2,2h44c1.1,0,2-0.9,2-2V25C48.5,23.9,47.6,23,46.5,23z"/>
	<rect x="17" y="26.8" fill="#FFFFFF" width="14.9" height="4.4"/>
</g>
</svg>
