<?xml version="1.0" encoding="utf-8"?>
<!-- Generator: Adobe Illustrator 18.0.0, SVG Export Plug-In . SVG Version: 6.00 Build 0)  -->
<!DOCTYPE svg PUBLIC "-//W3C//DTD SVG 1.1//EN" "http://www.w3.org/Graphics/SVG/1.1/DTD/svg11.dtd">
<svg version="1.1" id="Layer_1" xmlns="http://www.w3.org/2000/svg" xmlns:xlink="http://www.w3.org/1999/xlink" x="0px" y="0px"
	 viewBox="0 0 48 48" enable-background="new 0 0 48 48" xml:space="preserve">
<g>
	<path fill="#40596B" d="M29.9,48H2.1c-1.1,0-2-0.9-2-2V2c0-1.1,0.9-2,2-2h27.9c1.1,0,2,0.9,2,2v44C31.9,47.1,31,48,29.9,48z"/>
	<rect x="4.1" y="4" fill="#FFFFFF" width="23.9" height="34"/>
	<circle fill="#334A5E" cx="16" cy="43" r="2.5"/>
	<path fill="#334A5E" d="M18.8,2.5h-5.6c-0.3,0-0.5-0.2-0.5-0.5v0c0-0.3,0.2-0.5,0.5-0.5h5.6c0.3,0,0.5,0.2,0.5,0.5v0
		C19.3,2.3,19.1,2.5,18.8,2.5z"/>
	<g>
		<path fill="#FF7058" d="M9.2,12L9.2,12c-1.7,0-3-1.4-3-3v0c0-1.7,1.4-3,3-3h0c1.7,0,3,1.4,3,3v0C12.2,10.6,10.9,12,9.2,12z"/>
		<path fill="#54C0EB" d="M16,12L16,12c-1.7,0-3-1.4-3-3v0c0-1.7,1.4-3,3-3h0c1.7,0,3,1.4,3,3v0C19,10.6,17.7,12,16,12z"/>
		<path fill="#ACB3BA" d="M9.2,21L9.2,21c-1.7,0-3-1.4-3-3v0c0-1.7,1.4-3,3-3h0c1.7,0,3,1.4,3,3v0C12.2,19.6,10.9,21,9.2,21z"/>
		<path fill="#CDD6E0" d="M16,21L16,21c-1.7,0-3-1.4-3-3v0c0-1.7,1.4-3,3-3h0c1.7,0,3,1.4,3,3v0C19,19.6,17.7,21,16,21z"/>
		<path fill="#4CDBC4" d="M9.2,30L9.2,30c-1.7,0-3-1.4-3-3v0c0-1.7,1.4-3,3-3h0c1.7,0,3,1.4,3,3v0C12.2,28.7,10.9,30,9.2,30z"/>
		<path fill="#FFD15C" d="M16,30L16,30c-1.7,0-3-1.4-3-3v0c0-1.7,1.4-3,3-3h0c1.7,0,3,1.4,3,3v0C19,28.7,17.7,30,16,30z"/>
		<path fill="#54C0EB" d="M22.8,12L22.8,12c-1.7,0-3-1.4-3-3v0c0-1.7,1.4-3,3-3h0c1.7,0,3,1.4,3,3v0C25.8,10.6,24.5,12,22.8,12z"/>
		<path fill="#CDD6E0" d="M22.8,21L22.8,21c-1.7,0-3-1.4-3-3v0c0-1.7,1.4-3,3-3h0c1.7,0,3,1.4,3,3v0C25.8,19.6,24.5,21,22.8,21z"/>
		<path fill="#FFD15C" d="M22.8,30L22.8,30c-1.7,0-3-1.4-3-3v0c0-1.7,1.4-3,3-3h0c1.7,0,3,1.4,3,3v0C25.8,28.7,24.5,30,22.8,30z"/>
	</g>
	<path fill="#ACB3BA" d="M44.3,34.9V13.1c2.2-1.3,3.6-3.6,3.6-6.3c0-2.7-1.5-5-3.6-6.3v6.5l-3.7,1.7l-3.7-1.7V0.5
		c-2.2,1.3-3.6,3.6-3.6,6.3c0,2.7,1.5,5,3.6,6.3v21.8c-2.2,1.3-3.6,3.6-3.6,6.3c0,2.7,1.5,5,3.6,6.3v-6.5l3.7-1.7l3.7,1.7v6.5
		c2.2-1.3,3.6-3.6,3.6-6.3C47.9,38.5,46.5,36.2,44.3,34.9z"/>
</g>
</svg>
