<?xml version="1.0" encoding="utf-8"?>
<!-- Generator: Adobe Illustrator 18.0.0, SVG Export Plug-In . SVG Version: 6.00 Build 0)  -->
<!DOCTYPE svg PUBLIC "-//W3C//DTD SVG 1.1//EN" "http://www.w3.org/Graphics/SVG/1.1/DTD/svg11.dtd">
<svg version="1.1" id="Layer_1" xmlns="http://www.w3.org/2000/svg" xmlns:xlink="http://www.w3.org/1999/xlink" x="0px" y="0px"
	 viewBox="0 0 48 48" enable-background="new 0 0 48 48" xml:space="preserve">
<g>
	<g>
		<g>
			<path fill="#415A6B" d="M29.6,23.6h-4.8c0-4.7-3.8-8.4-8.4-8.4c-4.6,0-8.4,3.8-8.4,8.4H3.1c0-7.3,5.9-13.2,13.2-13.2
				C23.7,10.4,29.6,16.3,29.6,23.6z"/>
		</g>
		<g>
			<g>
				<g>
					<g>
						<g>
							<g>
								<path fill="#8AD7F8" d="M32.7,0v4.8h4l-4.3,4.4c-2.1-1.5-4.7-2.3-7.5-2.3c-7.3,0-13.2,5.9-13.2,13.2
									c0,7.3,5.9,13.2,13.2,13.2s13.2-5.9,13.2-13.2c0-2.8-0.9-5.4-2.3-7.5l4.3-4.3v4h4.8V0H32.7z M24.8,28.5
									c-4.6,0-8.4-3.8-8.4-8.4c0-4.6,3.8-8.4,8.4-8.4c4.7,0,8.4,3.8,8.4,8.4C33.3,24.7,29.5,28.5,24.8,28.5z"/>
							</g>
						</g>
					</g>
				</g>
			</g>
		</g>
		<g>
			<g>
				<path fill="#415A6B" d="M18.8,36.7v3.6h3.1V45h-3.1v3H14v-3h-3v-4.8h3v-3.6c-6.2-1.1-10.8-6.5-10.8-13h4.8
					c0,4.6,3.8,8.4,8.4,8.4c4.7,0,8.4-3.8,8.4-8.4h4.8C29.6,30.1,24.9,35.5,18.8,36.7z"/>
			</g>
		</g>
	</g>
</g>
</svg>
