<?xml version="1.0" encoding="utf-8"?>
<!-- Generator: Adobe Illustrator 18.0.0, SVG Export Plug-In . SVG Version: 6.00 Build 0)  -->
<!DOCTYPE svg PUBLIC "-//W3C//DTD SVG 1.1//EN" "http://www.w3.org/Graphics/SVG/1.1/DTD/svg11.dtd">
<svg version="1.1" id="Layer_1" xmlns="http://www.w3.org/2000/svg" xmlns:xlink="http://www.w3.org/1999/xlink" x="0px" y="0px"
	 viewBox="0 0 48 48" enable-background="new 0 0 48 48" xml:space="preserve">
<g>
	<rect x="2" y="16.3" fill="#F2F2F2" width="44" height="24"/>
	<rect x="7" y="21.3" fill="#CDD6E0" width="34" height="14"/>
	<rect y="11.7" fill="#FFD15C" width="48" height="4.7"/>
	<rect x="2" y="7.7" fill="#40596B" width="2.6" height="4"/>
	<rect x="43.5" y="7.7" fill="#40596B" width="2.6" height="4"/>
	<g>
		<path fill="#FF7058" d="M13.1,11.7h-2.6v-1.1c0-0.7,0.6-1.3,1.3-1.3h0c0.7,0,1.3,0.6,1.3,1.3V11.7z"/>
		<path fill="#FF7058" d="M21.2,11.7h-2.6v-1.1c0-0.7,0.6-1.3,1.3-1.3h0c0.7,0,1.3,0.6,1.3,1.3V11.7z"/>
		<path fill="#FF7058" d="M29.3,11.7h-2.6v-1.1c0-0.7,0.6-1.3,1.3-1.3h0c0.7,0,1.3,0.6,1.3,1.3V11.7z"/>
		<path fill="#FF7058" d="M37.5,11.7h-2.6v-1.1c0-0.7,0.6-1.3,1.3-1.3h0c0.7,0,1.3,0.6,1.3,1.3V11.7z"/>
	</g>
	<rect x="2" y="16.3" fill="#E4EAEF" width="44" height="1.5"/>
	<polygon fill="#FF7058" points="27.2,27.6 25.1,27.6 25.1,23.1 20.8,29 22.9,29 22.9,33.5 	"/>
</g>
</svg>
