<?xml version="1.0" encoding="utf-8"?>
<!-- Generator: Adobe Illustrator 18.0.0, SVG Export Plug-In . SVG Version: 6.00 Build 0)  -->
<!DOCTYPE svg PUBLIC "-//W3C//DTD SVG 1.1//EN" "http://www.w3.org/Graphics/SVG/1.1/DTD/svg11.dtd">
<svg version="1.1" id="Layer_1" xmlns="http://www.w3.org/2000/svg" xmlns:xlink="http://www.w3.org/1999/xlink" x="0px" y="0px"
	 viewBox="0 0 48 48" enable-background="new 0 0 48 48" xml:space="preserve">
<g>
	<g>
		<g>
			<g>
				<g>
					<path fill="#F3705A" d="M42.1,19.1H31.3l1.2,8.5c0.7,5.1-3.3,9.7-8.4,9.7h0c-5.2,0-9.1-4.6-8.4-9.7l1.2-8.5H5.9l-1,7
						C3.4,37.7,12.3,48,24,48h0c11.7,0,20.6-10.3,19.1-21.8L42.1,19.1z"/>
				</g>
			</g>
			<g>
				<g>
					<polygon fill="#E8EAE9" points="42.2,19.5 41.1,11.8 30.3,11.8 31.3,19.5 					"/>
					<polygon fill="#E8EAE9" points="16.7,19.5 17.7,11.8 6.9,11.8 5.8,19.5 					"/>
				</g>
			</g>
		</g>
		<g>
			<g>
				<polygon fill="#FFD15C" points="21.8,16.5 23.3,9.5 20.1,9.5 26.2,0 24.7,7 27.9,7 				"/>
			</g>
		</g>
	</g>
</g>
</svg>
