<?xml version="1.0" encoding="utf-8"?>
<!-- Generator: Adobe Illustrator 18.0.0, SVG Export Plug-In . SVG Version: 6.00 Build 0)  -->
<!DOCTYPE svg PUBLIC "-//W3C//DTD SVG 1.1//EN" "http://www.w3.org/Graphics/SVG/1.1/DTD/svg11.dtd">
<svg version="1.1" id="Layer_1" xmlns="http://www.w3.org/2000/svg" xmlns:xlink="http://www.w3.org/1999/xlink" x="0px" y="0px"
	 viewBox="0 0 512 512" enable-background="new 0 0 512 512" xml:space="preserve">
<g>
	<rect x="2" y="473.5" fill="#40596B" width="64.9" height="36.2"/>
	<rect x="445.1" y="473.5" fill="#40596B" width="64.9" height="36.2"/>
	<polygon fill="#40596B" points="68.1,256 256,68.1 443.9,256 510,256 256,2 2,256 	"/>
	<polygon fill="#FF7058" points="164,94 164,54.5 98.3,54.5 98.3,159.7 	"/>
	<polygon fill="#F2F2F2" points="445.1,256 445.1,510 66.9,510 66.9,256 68.1,256 256,68.1 443.9,256 	"/>
	<rect x="283.6" y="312" fill="#4CDBC4" width="132.7" height="197.9"/>
	<rect x="107.3" y="364.7" fill="#FFFFFF" width="135.8" height="92.6"/>
	<rect x="118.6" y="376" fill="#84DBFF" width="113.2" height="70.1"/>
	<polygon fill="#E1E4E5" points="445.1,256 445.1,267.3 443.9,267.3 256,79.4 68.1,267.3 66.9,267.3 66.9,256 68.1,256 256,68.1 
		443.9,256 	"/>
</g>
</svg>
