<?xml version="1.0" encoding="utf-8"?>
<!-- Generator: Adobe Illustrator 18.0.0, SVG Export Plug-In . SVG Version: 6.00 Build 0)  -->
<!DOCTYPE svg PUBLIC "-//W3C//DTD SVG 1.1//EN" "http://www.w3.org/Graphics/SVG/1.1/DTD/svg11.dtd">
<svg version="1.1" id="Layer_1" xmlns="http://www.w3.org/2000/svg" xmlns:xlink="http://www.w3.org/1999/xlink" x="0px" y="0px"
	 viewBox="0 0 512 512" enable-background="new 0 0 512 512" xml:space="preserve">
<g>
	<path fill="#84DBFF" d="M123.8,510l14.9-58.4c0,0,16.2-39.5,0-62.4c0,0-57.4-94.3-45.2-148.1c0,0,9.6-94.3,145.1-106.4
		c0,0,87.1-8.1,130.3,64.8c0,0,18.2,31.1,17.6,73.6c0,0-3.4,21.6,9,34c4.2,4.2,8.3,8.5,11.7,13.4c7.4,10.5,16.7,26.3,11.5,34.8
		c-1,1.6-1.9,3.1-2.9,4.7c-1.9,2.9-7.1,7.7-22,10.4c0,0,11.3,19.8-3.4,24.3c0,0,7.2,14.7-4.7,20.3c0,0,13.5,70.2-70.2,59.4
		c0,0-8.1,15.5-3.4,35.8H123.8z"/>
	<g>
		<path fill="#F1543F" d="M283,323.2H229c-1.3,0-2.3-1-2.3-2.3v-24.2h58.7v24.2C285.4,322.2,284.3,323.2,283,323.2z"/>
		<path fill="#FFD15C" d="M256,59.5c-45.7,0-82.8,37-82.8,82.8c0,27.7,13.6,61.9,34.5,84.5c5.1,5.5,8.2,12.6,8.2,20.1v1.4h80.1v-1.4
			c0-7.5,3.1-14.6,8.2-20.1c20.9-22.6,34.5-56.8,34.5-84.5C338.8,96.6,301.7,59.5,256,59.5z"/>
		<rect x="216" y="248.3" fill="#F1543F" width="80.1" height="48.4"/>
		<path fill="#FF7058" d="M303.2,302.9h-94.4c-0.3,0-0.5-0.2-0.5-0.5V291c0-0.3,0.2-0.5,0.5-0.5h94.4c0.3,0,0.5,0.2,0.5,0.5v11.4
			C303.7,302.7,303.5,302.9,303.2,302.9z"/>
		<path fill="#FF7058" d="M303.2,278.8h-94.4c-0.3,0-0.5-0.2-0.5-0.5v-11.4c0-0.3,0.2-0.5,0.5-0.5h94.4c0.3,0,0.5,0.2,0.5,0.5v11.4
			C303.7,278.5,303.5,278.8,303.2,278.8z"/>
		<path fill="#FFFFFF" d="M285.5,170.3c-2.3-2.3-6-2.3-8.3,0L256,191.5l-21.2-21.2c-2.3-2.3-6-2.3-8.3,0c-2.3,2.3-2.3,6,0,8.3
			l23.7,23.7v46c0,3.2,2.6,5.9,5.9,5.9c3.2,0,5.9-2.6,5.9-5.9v-46l23.7-23.7C287.8,176.3,287.8,172.6,285.5,170.3z"/>
		<path fill="#FF7058" d="M303.2,254.6h-94.4c-0.3,0-0.5-0.2-0.5-0.5v-11.4c0-0.3,0.2-0.5,0.5-0.5h94.4c0.3,0,0.5,0.2,0.5,0.5V254
			C303.7,254.3,303.5,254.6,303.2,254.6z"/>
	</g>
	<rect x="253.4" y="2" fill="#40596B" width="5.3" height="29.4"/>
	<polygon fill="#40596B" points="203.3,13 214.6,40.1 219.5,38.1 208.2,11 	"/>
	
		<rect x="158.9" y="48.2" transform="matrix(-0.7071 -0.7071 0.7071 -0.7071 260.447 209.4998)" fill="#40596B" width="29.4" height="5.3"/>
	<polygon fill="#40596B" points="133.8,85.4 160.9,96.7 162.9,91.8 135.8,80.5 	"/>
	<polygon fill="#40596B" points="292.5,38.1 297.4,40.1 308.7,13 303.8,11 	"/>
	
		<rect x="323.7" y="48.2" transform="matrix(0.7071 -0.7071 0.7071 0.7071 63.1837 254.158)" fill="#40596B" width="29.4" height="5.3"/>
	<polygon fill="#40596B" points="351.1,96.7 378.2,85.4 376.2,80.5 349.1,91.8 	"/>
	<rect x="357.8" y="130.5" fill="#40596B" width="29.4" height="5.3"/>
	<rect x="124.8" y="130.5" fill="#40596B" width="29.4" height="5.3"/>
</g>
</svg>
