<?xml version="1.0" encoding="utf-8"?>
<!-- Generator: Adobe Illustrator 18.0.0, SVG Export Plug-In . SVG Version: 6.00 Build 0)  -->
<!DOCTYPE svg PUBLIC "-//W3C//DTD SVG 1.1//EN" "http://www.w3.org/Graphics/SVG/1.1/DTD/svg11.dtd">
<svg version="1.1" id="Layer_1" xmlns="http://www.w3.org/2000/svg" xmlns:xlink="http://www.w3.org/1999/xlink" x="0px" y="0px"
	 viewBox="0 0 48 48" enable-background="new 0 0 48 48" xml:space="preserve">
<g>
	<g>
		<path fill="#F3F3F3" d="M44.9,0H3.1C1.4,0,0,1.4,0,3.1v41.7C0,46.6,1.4,48,3.1,48h41.7c1.7,0,3.1-1.4,3.1-3.1V3.1
			C48,1.4,46.6,0,44.9,0z"/>
		<g>
			<path fill="#ADB3BA" d="M4,4v40h40V4H4z M8.9,43.6H4.4v-4.6h4.6V43.6z M8.9,38.7H4.4v-4.6h4.6V38.7z M8.9,33.7H4.4v-4.6h4.6V33.7
				z M8.9,28.8H4.4v-4.6h4.6V28.8z M8.9,23.8H4.4v-4.6h4.6V23.8z M8.9,18.9H4.4v-4.6h4.6V18.9z M8.9,13.9H4.4V9.3h4.6V13.9z
				 M8.9,8.9H4.4V4.4h4.6V8.9z M13.9,43.6H9.3v-4.6h4.6V43.6z M13.9,38.7H9.3v-4.6h4.6V38.7z M13.9,33.7H9.3v-4.6h4.6V33.7z
				 M13.9,28.8H9.3v-4.6h4.6V28.8z M13.9,23.8H9.3v-4.6h4.6V23.8z M13.9,18.9H9.3v-4.6h4.6V18.9z M13.9,13.9H9.3V9.3h4.6V13.9z
				 M13.9,8.9H9.3V4.4h4.6V8.9z M18.9,43.6h-4.6v-4.6h4.6V43.6z M18.9,38.7h-4.6v-4.6h4.6V38.7z M18.9,33.7h-4.6v-4.6h4.6V33.7z
				 M18.9,28.8h-4.6v-4.6h4.6V28.8z M18.9,23.8h-4.6v-4.6h4.6V23.8z M18.9,18.9h-4.6v-4.6h4.6V18.9z M18.9,13.9h-4.6V9.3h4.6V13.9z
				 M18.9,8.9h-4.6V4.4h4.6V8.9z M23.8,43.6h-4.6v-4.6h4.6V43.6z M23.8,38.7h-4.6v-4.6h4.6V38.7z M23.8,33.7h-4.6v-4.6h4.6V33.7z
				 M23.8,28.8h-4.6v-4.6h4.6V28.8z M23.8,23.8h-4.6v-4.6h4.6V23.8z M23.8,18.9h-4.6v-4.6h4.6V18.9z M23.8,13.9h-4.6V9.3h4.6V13.9z
				 M23.8,8.9h-4.6V4.4h4.6V8.9z M28.8,43.6h-4.6v-4.6h4.6V43.6z M28.8,38.7h-4.6v-4.6h4.6V38.7z M28.8,33.7h-4.6v-4.6h4.6V33.7z
				 M28.8,28.8h-4.6v-4.6h4.6V28.8z M28.8,23.8h-4.6v-4.6h4.6V23.8z M28.8,18.9h-4.6v-4.6h4.6V18.9z M28.8,13.9h-4.6V9.3h4.6V13.9z
				 M28.8,8.9h-4.6V4.4h4.6V8.9z M33.7,43.6h-4.6v-4.6h4.6V43.6z M33.7,38.7h-4.6v-4.6h4.6V38.7z M33.7,33.7h-4.6v-4.6h4.6V33.7z
				 M33.7,28.8h-4.6v-4.6h4.6V28.8z M33.7,23.8h-4.6v-4.6h4.6V23.8z M33.7,18.9h-4.6v-4.6h4.6V18.9z M33.7,13.9h-4.6V9.3h4.6V13.9z
				 M33.7,8.9h-4.6V4.4h4.6V8.9z M38.7,43.6h-4.6v-4.6h4.6V43.6z M38.7,38.7h-4.6v-4.6h4.6V38.7z M38.7,33.7h-4.6v-4.6h4.6V33.7z
				 M38.7,28.8h-4.6v-4.6h4.6V28.8z M38.7,23.8h-4.6v-4.6h4.6V23.8z M38.7,18.9h-4.6v-4.6h4.6V18.9z M38.7,13.9h-4.6V9.3h4.6V13.9z
				 M38.7,8.9h-4.6V4.4h4.6V8.9z M43.6,43.6h-4.6v-4.6h4.6V43.6z M43.6,38.7h-4.6v-4.6h4.6V38.7z M43.6,33.7h-4.6v-4.6h4.6V33.7z
				 M43.6,28.8h-4.6v-4.6h4.6V28.8z M43.6,23.8h-4.6v-4.6h4.6V23.8z M43.6,18.9h-4.6v-4.6h4.6V18.9z M43.6,13.9h-4.6V9.3h4.6V13.9z
				 M43.6,8.9h-4.6V4.4h4.6V8.9z"/>
			<g>
				<g>
					<polygon fill="#F3705A" points="38.9,19 38.9,29 35.4,25.5 24,36.9 19,31.9 9,41.9 6.2,41.9 6.2,38.9 19,26 24,31 32.4,22.5 
						29,19 					"/>
				</g>
			</g>
			<g>
				<g>
					<g>
						<polygon fill="#415A6B" points="44,44 4,44 4,4 6.6,4 6.6,41.4 44,41.4 						"/>
					</g>
				</g>
			</g>
		</g>
	</g>
</g>
</svg>
