<?xml version="1.0" encoding="utf-8"?>
<!-- Generator: Adobe Illustrator 18.0.0, SVG Export Plug-In . SVG Version: 6.00 Build 0)  -->
<!DOCTYPE svg PUBLIC "-//W3C//DTD SVG 1.1//EN" "http://www.w3.org/Graphics/SVG/1.1/DTD/svg11.dtd">
<svg version="1.1" id="Layer_1" xmlns="http://www.w3.org/2000/svg" xmlns:xlink="http://www.w3.org/1999/xlink" x="0px" y="0px"
	 viewBox="0 0 48 48" enable-background="new 0 0 48 48" xml:space="preserve">
<g>
	<path fill="#40596B" d="M33.4,13.9c0.1,0,0.3-0.2,0.3-0.3c0-0.1-0.1-0.1-0.2-0.2c-0.3-0.2-0.7-0.2-1-0.5c0,0,0,0-0.1-0.1
		c0-0.1,0.1-0.2,0.2-0.2s0.2,0,0.2-0.2c-0.3-0.2,0-0.3-0.2-0.7c0,0-0.1-0.1,0-0.1c0-0.1,0.1-0.1,0.1-0.2c0.5-0.2,0.5-0.5,1.1-0.5
		c0.4,0,0.8,0,1.2,0.2c0.4,0.2,0.7,0.5,0.9,1c0,0.1,0.1,0.3,0.1,0.4c0,0.4-0.2,0.7-0.4,0.9C34.9,14,34.1,14,33.4,13.9"/>
	<path fill="#FFD15C" d="M33.5,11.4l1-8.2c-11.4-7.4-27,0.5-27,0.5C-1,8.5,0.1,15.3,0.1,15.3s0.7,0.6,1-1.1
		C1.1,14.2,12.2,6.1,33.5,11.4z"/>
	<path fill="#40596B" d="M47.9,18.9c-1.3-2-2-4.5-2-4.5c-2.1-7.6-7.5-10.2-7.5-10.2c-1.7-1.6-3.6-0.8-3.6-0.8l-0.3-0.2
		c0,0-0.6,2.7-0.7,3.9c-0.2,1.4-0.3,4.3-0.3,4.3l1,0.2l-0.7,0.6c-3.4,0.9-3.7,4.1-3.7,4.1l-2,1.2V18c2,1,1.5,5.5,1.5,5.5
		c-0.3,5.9,1.8,7,1.8,7c1.5,7.7,7,14.1,14.5,16.7l2.1,0.7V18.9z"/>
	<path fill="#40596B" d="M11,6.2c-1.4-1-3.1-1.5-4.9-1.6c-7,4.7-6,10.7-6,10.7s0.7,0.6,1-1.1c0,0,3.6-2.6,10.7-3.9
		C12.9,7.8,11,6.2,11,6.2z"/>
	<path fill="#F8B64C" d="M33.8,12.2c0,0-14.9-2.1-26.2,4.9c-1.9,1.2-3.6,2.8-4.9,4.6c-0.9,1.2-1.5,2.4-0.4,2.1
		c0.9-0.3,2.7-3.1,12.1-4.8c9.4-1.7,13.6-1.1,13.6-1.1l2.9-1.8L33.8,12.2z"/>
	<path fill="#F2F2F2" d="M41.1,19.9c1.7-1.5,1.7-3.6,1.7-3.6c0.4-3.2-2.9-6.7-2.9-6.7c-0.5,0.7-2.2,1.6-2.2,1.6
		c-2.2-0.5-3.2,0.5-3.2,0.5l-0.7,0.6l-0.2,1.7c-0.1,0.9-0.5,1.8-1.3,2.3c-1.5,1-3.3,1.6-4.2,1.8v0c2,1,1.5,5.5,1.5,5.5
		c-0.3,5.9,1.8,7,1.8,7l0,0c1.4-1.9,2.9-2.8,2.9-2.8c0.6-1.2,3.4-3.6,3.4-3.6C38.2,22.9,41.1,19.9,41.1,19.9z"/>
	<path fill="#FF7058" d="M34.5,11.7c0-0.1,0.2-0.9,0.2-1c0.1-1.4,0.4-2.9,0.8-4.2c0.1-0.4,0.3-0.9,0.2-1.3c0-0.1-0.1-0.3,0-0.4
		c0.1-0.1,0.3,0,0.4,0c1,0.5,1.9,1.1,2.6,1.9c0.2,0.2,0.4,0.4,0.5,0.6c0.2,0.3,0.3,0.7,0.4,1c0.2,0.5,0.4,1,0.5,1.5
		c-0.1,0.1-0.6,0.3-0.7,0.5c0,0.1-0.1,0.2-0.2,0.2c-0.3,0.4-0.8,0.7-1.3,0.7c-0.3,0-0.6,0-1,0c-0.5,0-1-0.4-1.4-0.2"/>
	<g>
		<ellipse transform="matrix(0.9794 0.2021 -0.2021 0.9794 2.5565 -7.3149)" fill="#54C0EB" cx="37.1" cy="8.9" rx="1.4" ry="2"/>
		<circle fill="#40596B" cx="37.1" cy="8.9" r="1"/>
		<circle fill="#FFFFFF" cx="37.8" cy="8.4" r="0.4"/>
	</g>
</g>
</svg>
