<?xml version="1.0" encoding="utf-8"?>
<!-- Generator: Adobe Illustrator 18.0.0, SVG Export Plug-In . SVG Version: 6.00 Build 0)  -->
<!DOCTYPE svg PUBLIC "-//W3C//DTD SVG 1.1//EN" "http://www.w3.org/Graphics/SVG/1.1/DTD/svg11.dtd">
<svg version="1.1" id="Layer_1" xmlns="http://www.w3.org/2000/svg" xmlns:xlink="http://www.w3.org/1999/xlink" x="0px" y="0px"
	 viewBox="0 0 48 48" enable-background="new 0 0 48 48" xml:space="preserve">
<g>
	<g>
		<g>
			<g>
				<g>
					<rect x="13.2" y="15.6" fill="#E8EAE9" width="6.1" height="20.7"/>
					<g>
						<circle fill="#F3705B" cx="16.2" cy="9.8" r="9.8"/>
						<path fill="#F15741" d="M18.4,17.3c-5.4,0-9.8-4.4-9.8-9.8c0-2.1,0.7-4.1,1.9-5.7c-2.5,1.8-4,4.7-4,7.9c0,5.4,4.4,9.8,9.8,9.8
							c3.3,0,6.1-1.6,7.9-4C22.5,16.7,20.6,17.3,18.4,17.3z"/>
						
							<ellipse transform="matrix(0.7071 -0.7071 0.7071 0.7071 2.1917 16.1422)" fill="#FFFFFF" cx="20.6" cy="5.4" rx="1.5" ry="2.6"/>
					</g>
				</g>
			</g>
			<path fill="#354B5E" d="M20.2,36.3h-7.9c-1.6,0-2.9,1.3-2.9,2.9V44h13.7v-4.8C23.1,37.6,21.8,36.3,20.2,36.3z"/>
			<g>
				<path fill="#F3705B" d="M40.5,37.5h-3c-0.5,0-1,0.4-1,1v4.6h5v-4.6C41.5,38,41.1,37.5,40.5,37.5z"/>
				<path fill="#FFD15D" d="M33.3,37.5h-3c-0.5,0-1,0.4-1,1v4.6h5v-4.6C34.3,38,33.8,37.5,33.3,37.5z"/>
			</g>
		</g>
		<path fill="#435B6C" d="M24,39.5c-12.3,0-22.5,3.7-24,8.5h48C46.5,43.2,36.3,39.5,24,39.5z"/>
	</g>
</g>
</svg>
