<?xml version="1.0" encoding="utf-8"?>
<!-- Generator: Adobe Illustrator 18.0.0, SVG Export Plug-In . SVG Version: 6.00 Build 0)  -->
<!DOCTYPE svg PUBLIC "-//W3C//DTD SVG 1.1//EN" "http://www.w3.org/Graphics/SVG/1.1/DTD/svg11.dtd">
<svg version="1.1" id="Layer_1" xmlns="http://www.w3.org/2000/svg" xmlns:xlink="http://www.w3.org/1999/xlink" x="0px" y="0px"
	 viewBox="0 0 48 48" enable-background="new 0 0 48 48" xml:space="preserve">
<g>
	<path fill="#FF7058" d="M47.9,9.7C47.9,4.4,42,0,34.8,0c-7.3,0-13.2,4.3-13.2,9.6s5.9,9.6,13.2,9.6c0.3,0,0.5,0,0.8,0V22
		c2.4,0,4.3-1.5,5-3.7C45,16.8,47.9,13.5,47.9,9.7z"/>
	<g>
		<rect x="29.9" y="4.5" fill="#CDD6E0" width="10.3" height="2"/>
		<rect x="26.6" y="8.7" fill="#CDD6E0" width="16.8" height="2"/>
		<rect x="29.9" y="12.8" fill="#CDD6E0" width="10.3" height="2"/>
	</g>
	<g>
		<rect x="13.8" y="31" fill="#F8B64C" width="10.5" height="9.3"/>
		<polygon opacity="0.1" fill="#40596B" points="24.4,31 24.4,34.3 20.5,37.4 16.3,34.1 18.6,31 		"/>
		
			<ellipse transform="matrix(0.9962 -8.714642e-002 8.714642e-002 0.9962 -2.0279 1.0775)" fill="#F8B64C" cx="11.3" cy="23.8" rx="1.8" ry="2.6"/>
		
			<ellipse transform="matrix(0.9962 8.714399e-002 -8.714399e-002 0.9962 2.1732 -2.2504)" fill="#F8B64C" cx="26.9" cy="23.8" rx="1.8" ry="2.6"/>
		<path fill="#FFD15C" d="M27.3,19.9v2.7c0,0.6,0,1.1-0.1,1.7c-0.1,0.9-0.3,1.9-0.6,2.8c-0.7,2.2-1.8,4.1-3.4,5.8l-0.8,0.9
			c-0.7,0.8-1.7,1.2-2.8,1.2h-1.2c-1.1,0-2.1-0.5-2.8-1.2l-0.8-0.9c-1.1-1.2-2-2.5-2.6-4c-0.7-1.4-1.1-3-1.3-4.6
			c-0.1-0.6-0.1-1.1-0.1-1.7c0-0.1,0-0.1,0-0.2v-2.5c0-0.8,0.1-1.5,0.3-2.3c1-3.4,4.2-6,7.9-6c3.8,0,6.9,2.5,7.9,6
			C27.2,18.4,27.3,19.1,27.3,19.9z"/>
		<rect x="11.3" y="39.3" fill="#F2F2F2" width="15.5" height="8.7"/>
		<polygon fill="#FF7058" points="17.2,48 21,48 20.4,42 21.5,40.9 19.1,38.5 16.7,40.9 17.8,42 		"/>
		<path fill="#40596B" d="M38.1,48v-3.7c0-3-1.9-5.7-4.7-6.7l-9-3.2l0,0L23.2,48H38.1z"/>
		<path fill="#40596B" d="M15,48l-1.2-13.7l-9,3.2c-2.8,1-4.7,3.7-4.7,6.7V48H15z"/>
		<path fill="#334A5E" d="M31.1,48c0,0,0-1.6,0-1.6l-4.3-4.2c-0.1-0.1,0-0.2,0-0.2L31,40c0.1,0,0.1-0.1,0-0.2l-6.7-5.5L23.2,48H31.1
			z"/>
		<path fill="#334A5E" d="M7.1,46.3c0,0,0,1.6,0,1.6h8l-1.2-13.7l-6.7,5.5c-0.1,0.1-0.1,0.2,0,0.2l4.2,1.9c0.1,0,0.1,0.1,0,0.2
			L7.1,46.3z"/>
		<polygon fill="#CDD6E0" points="19.1,38.5 24.4,34.3 23.5,43 		"/>
		<polygon fill="#CDD6E0" points="19.1,38.5 13.8,34.3 14.7,43 		"/>
		<path fill="#334A5E" d="M10.7,22.5h0.2c0.1-0.9,0.3-1.8,0.6-2.5c0.4-1,0.7-2.1,0.7-3.2c0-0.4,0-0.8-0.1-1c0,0,0.1,0,0.2,0.1
			c4.5,1.2,9.1,1.2,13.6,0c0.2,0,0.2-0.1,0.2-0.1C26,16.1,26,16.5,26,17c0,1,0.3,2,0.7,3c0.3,0.7,0.5,1.6,0.6,2.5h0.2
			c0-1.4,0.2-3.1,0.6-4.6c0.3-1.2,0.4-1.6,0.1-2.8c-0.4-1.5-0.5-3.2-2.8-4.2c-1.5-0.6-2.7-1-6.2-1c-3.5,0-4.7,0.4-6.2,1
			c-2.3,0.9-2.5,2.7-2.8,4.2c-0.3,1.2-0.2,1.6,0.1,2.8C10.5,19.4,10.7,21.1,10.7,22.5z"/>
	</g>
</g>
</svg>
