<?xml version="1.0" encoding="utf-8"?>
<!-- Generator: Adobe Illustrator 18.0.0, SVG Export Plug-In . SVG Version: 6.00 Build 0)  -->
<!DOCTYPE svg PUBLIC "-//W3C//DTD SVG 1.1//EN" "http://www.w3.org/Graphics/SVG/1.1/DTD/svg11.dtd">
<svg version="1.1" id="Layer_1" xmlns="http://www.w3.org/2000/svg" xmlns:xlink="http://www.w3.org/1999/xlink" x="0px" y="0px"
	 viewBox="0 0 48 48" enable-background="new 0 0 48 48" xml:space="preserve">
<g>
	<g>
		<polygon fill="#FF7058" points="43.5,41.7 36.4,41.8 32.8,48 28.1,40 24.8,34.4 35.6,28.1 38.9,33.8 		"/>
		<polygon fill="#FF7058" points="23.2,34.4 19.9,40 15.2,48 11.6,41.8 4.5,41.7 9.1,33.8 12.4,28.1 		"/>
	</g>
	<path opacity="0.1" fill="#231F20" d="M12.4,28.1l10.8,6.3L19.9,40c-0.4-0.3-0.7-0.6-1-0.7c-0.1,0-0.2,0-0.3,0
		c-0.4,0-1,0.1-1.5,0.2c-0.7,0.2-1.4,0.3-2.1,0.3s-1.3-0.1-1.9-0.5c-1.3-0.8-1.8-2.2-2.2-3.4c-0.2-0.7-0.5-1.4-0.7-1.7
		c-0.2-0.2-0.6-0.4-1-0.5L12.4,28.1z"/>
	<path opacity="0.1" fill="#231F20" d="M38.9,33.8c-0.4,0.2-0.8,0.3-1,0.5c-0.3,0.3-0.5,1-0.7,1.7c-0.4,1.3-0.9,2.7-2.2,3.4
		c-0.5,0.3-1.1,0.5-1.9,0.5c-0.7,0-1.4-0.1-2.1-0.3c-0.6-0.1-1.1-0.2-1.5-0.2c-0.1,0-0.2,0-0.3,0c-0.3,0.1-0.6,0.3-1,0.7l-3.3-5.6
		l10.8-6.3L38.9,33.8z"/>
	<path fill="#FFD15C" d="M44.4,20.4c0,1.7-2.5,3.1-2.9,4.7c-0.4,1.6,1,4.1,0.2,5.5c-0.8,1.5-3.7,1.4-4.9,2.6c-1.2,1.2-1.1,4-2.6,4.9
		c-1.4,0.8-3.9-0.6-5.5-0.2c-1.6,0.4-3,2.9-4.7,2.9c-1.7,0-3.1-2.5-4.7-2.9c-1.6-0.4-4.1,1-5.5,0.2c-1.5-0.8-1.4-3.7-2.6-4.9
		c-1.2-1.2-4-1.1-4.9-2.6c-0.8-1.4,0.6-3.9,0.2-5.5c-0.4-1.6-2.9-3-2.9-4.7c0-1.7,2.5-3.1,2.9-4.7c0.4-1.6-1-4.1-0.2-5.5
		c0.8-1.5,3.7-1.4,4.9-2.6c1.2-1.2,1.1-4,2.6-4.9c1.4-0.8,3.9,0.6,5.5,0.2C20.9,2.5,22.3,0,24,0c1.7,0,3.1,2.5,4.7,2.9
		c1.6,0.4,4.1-1,5.5-0.2c1.5,0.8,1.4,3.7,2.6,4.9c1.2,1.2,4,1.1,4.9,2.6c0.8,1.4-0.6,3.9-0.2,5.5C41.9,17.3,44.4,18.7,44.4,20.4z"/>
	<polygon fill="#FFFFFF" points="24,12 26,18.1 32.5,18.1 27.2,21.9 29.2,28.1 24,24.3 18.8,28.1 20.8,21.9 15.5,18.1 22,18.1 	"/>
	<g>
		<path fill="#FF7058" d="M24,34.7c-7.9,0-14.3-6.4-14.3-14.3c0-7.9,6.4-14.3,14.3-14.3s14.3,6.4,14.3,14.3
			C38.3,28.3,31.9,34.7,24,34.7z M24,9.1c-6.2,0-11.3,5.1-11.3,11.3c0,6.2,5.1,11.3,11.3,11.3s11.3-5.1,11.3-11.3
			C35.3,14.2,30.2,9.1,24,9.1z"/>
	</g>
	<path opacity="0.1" fill="#231F20" d="M24,34.7c-7.7,0-14-6.2-14.3-13.8c0,0.2,0,0.3,0,0.5c0,7.9,6.4,14.3,14.3,14.3
		s14.3-6.4,14.3-14.3c0-0.2,0-0.3,0-0.5C38,28.6,31.7,34.7,24,34.7z"/>
</g>
</svg>
