<?xml version="1.0" encoding="utf-8"?>
<!-- Generator: Adobe Illustrator 18.0.0, SVG Export Plug-In . SVG Version: 6.00 Build 0)  -->
<!DOCTYPE svg PUBLIC "-//W3C//DTD SVG 1.1//EN" "http://www.w3.org/Graphics/SVG/1.1/DTD/svg11.dtd">
<svg version="1.1" id="Layer_1" xmlns="http://www.w3.org/2000/svg" xmlns:xlink="http://www.w3.org/1999/xlink" x="0px" y="0px"
	 viewBox="0 0 48 48" enable-background="new 0 0 48 48" xml:space="preserve">
<g>
	<g>
		<path fill="#ACB3BA" d="M47.2,27.1c-0.1-0.4-2.5-11.8-5.7-17.4c-1.1-2-3.4-3.1-5.7-2.8c-2.3,0.3-4.1,1.8-4.7,4.2
			c-0.2,1,0.4,1.9,1.4,2.2c1,0.3,2-0.4,2.3-1.4c0.3-1.1,1.3-1.3,1.6-1.3c0.6-0.1,1.5,0.1,2,1c2.2,3.8,4,10.9,4.9,14.4h3.4V29
			C47.1,28.6,47.4,27.9,47.2,27.1z"/>
	</g>
	<g>
		<path fill="#ACB3BA" d="M16.9,11.1c-0.7-2.4-2.5-3.9-4.7-4.2C9.9,6.6,7.7,7.7,6.5,9.7c-3.2,5.6-5.6,17-5.7,17.4
			c-0.2,1,0.4,2,1.4,2.2c0.1,0,0.2,0,0.3,0v-3.8h2.5C5.8,22,7.6,15.2,9.7,11.5c0.5-0.8,1.3-1,2-1c0.3,0,1.3,0.2,1.6,1.3
			c0.3,1,1.3,1.6,2.3,1.4C16.5,13,17.2,12.1,16.9,11.1z"/>
	</g>
	<path fill="#CDD6E0" d="M39.9,22.1h-5.5c-3,0-5.6,1.6-7,4.1c-2.1-0.9-4.5-0.9-6.5,0c-1.4-2.4-4-4.1-7-4.1H8.1
		c-4.5,0-8.1,3.6-8.1,8.1c0,6,4.9,10.9,10.9,10.9c6,0,10.9-4.9,10.9-10.9c0-0.2,0-0.3,0-0.5c1.3-0.8,3-0.8,4.4,0c0,0.2,0,0.3,0,0.5
		c0,6,4.9,10.9,10.9,10.9c6,0,10.9-4.9,10.9-10.9C48,25.7,44.4,22.1,39.9,22.1z M10.9,38.1c-4.4,0-7.9-3.6-7.9-7.9
		c0-2.8,2.3-5.1,5.1-5.1h5.5c2.8,0,5.1,2.3,5.1,5.1C18.8,34.6,15.3,38.1,10.9,38.1z M37.1,38.1c-4.4,0-7.9-3.6-7.9-7.9
		c0-2.8,2.3-5.1,5.1-5.1h5.5c2.8,0,5.1,2.3,5.1,5.1C45,34.6,41.4,38.1,37.1,38.1z"/>
</g>
</svg>
