<?xml version="1.0" encoding="utf-8"?>
<!-- Generator: Adobe Illustrator 18.0.0, SVG Export Plug-In . SVG Version: 6.00 Build 0)  -->
<!DOCTYPE svg PUBLIC "-//W3C//DTD SVG 1.1//EN" "http://www.w3.org/Graphics/SVG/1.1/DTD/svg11.dtd">
<svg version="1.1" id="Layer_1" xmlns="http://www.w3.org/2000/svg" xmlns:xlink="http://www.w3.org/1999/xlink" x="0px" y="0px"
	 viewBox="0 0 48 48" enable-background="new 0 0 48 48" xml:space="preserve">
<g>
	<g>
		<path fill="#344A5E" d="M9.4,9.4C9.1,9.5,9,9.6,8.9,9.6C9,9.5,9.2,9.5,9.4,9.4z"/>
		<path fill="#ADB3BA" d="M8.6,15.8L8.6,15.8c1.1-0.1,2.1,0.4,2.7,1.2c7.9,9.3,21.2,10.8,28.6,11c8,0.2,7.8-5.3,7.8-5.3
			c0.2-1.3-3.4,0.1-7.9,1.4c-3.2,0.5-4.7-1.7-5.4-3.3c-0.9-2.2-2.4-4-4.4-5.2c-3.1-1.8-6.3-2-6.3-2l-10.3-2.3c0,0-6-2.1-7.1-1.3
			c-0.9,0.2-1.2,1.3-1.3,2.4C4.9,14.3,6.6,15.9,8.6,15.8z"/>
		<g>
			<g>
				<path fill="#F7B64C" d="M19.1,24.9l-2.7,7.8l-3.6,0.6c0,0-4.5,0.4-7.3,1.7s-3.5,2.4-3.9,4.7C1.1,41.9,1,42.5,1,42.5L0.2,48h47.5
					c0,0-0.7-10.3-6.4-12.3c-5.7-2.1-9.5-6.5-9.5-6.5l-10.6-5.3L19.1,24.9z"/>
			</g>
			<g>
				<path fill="#4EC0AA" d="M40.3,35.2c-0.2-0.1-1.5-0.5-2.4,1.7C37,39.1,36.6,45,37.2,48H4.5c0.4-2.8,1.6-11.7,2.6-13.6
					c0.1-0.1,0.2-0.2,0.3-0.2c0.5-0.1,2.1-0.5,2.3-0.4c-0.2,0.2,0.1,5.6,1.2,9.4c4.2,2.6,10.9,2.6,19.7,0c1.7-3.2,5.3-9.6,6.9-9.3
					L40.3,35.2z"/>
			</g>
			<g>
				<path fill="#F05540" d="M31,28.4c-0.7,1.1-1.4,2.3-1.7,3.5c-0.3,1.3-0.1,2.7,0.8,3.7c1.1,1.2,3,1.4,3.9,2.7
					c0.4,0.6,0.6,1.5,0.4,2.2s-0.5,1.5-1,2.1c0.5,0,0.8-0.4,1.1-0.8c0.2-0.4,0.3-0.9,0.3-1.3c0.2-1.3,0.3-2.7-0.3-3.9
					c-0.3-0.6-0.7-1.1-1-1.6c-0.3-0.5-0.6-1.2-0.5-1.8c0.1,0.9,0.8,1.6,1.5,2.2c0.6,0.6,1.3,1.4,1.1,2.3c0.3-0.9,0.3-1.9,0-2.8
					c-0.3-0.9-0.7-1.8-1.1-2.7c0.4,0.8,1.3,1.1,2.2,1.5c0.8,0.4,1.7,1,1.7,1.8c0,0,0.2-1.4-1.7-2.3c-1.9-0.9-2.1-2.1-2.1-2.1
					s-2.3-2.8-0.3-6.2l-5.2,3.8L31,28.4z"/>
			</g>
			<path fill="#F3705A" d="M40.3,35.2L40.3,35.2C40.3,35.3,40.3,35.3,40.3,35.2z"/>
			<g>
				<path fill="#FFD15C" d="M17.8,24.3c0,0,4.2,7.8,7.3,8.4s4,0.2,4.8-0.7c0.8-0.9,6.2-6.7,6.9-11.4l1-2.2l-12.7-6.3l-6.9,0.6
					l-5,8.4l1.6,3.5L17.8,24.3z"/>
			</g>
		</g>
		<g>
			<g>
				<path fill="#F05540" d="M26.8,10.9c0,0-5.7,4.4-5.9,6.5c-0.2,2.1,1.5,5.2-1.2,10c-1.5,2.8-1.3,4.4-0.8,5.3
					c0.8,1.3,0.5,3.3-0.7,4.7c-0.8,0.9-1.9,1.8-3.6,2.5c0,0,2-1.3,2.5-2.2c0,0-2.9,0.7-4,3c0,0,0-1.5,1.1-3s-0.7-1.7-0.7-1.7
					S10.9,36,12,32.3c0,0-1.5,2.8,0.5,4.7c0,0-3-2.1-1.1-5c0,0-2,2.7-1.8,6.7c0,0-1.6-2.6,1.7-7.9s1.8-6.8,2-8.4
					c-1.3-5,0.7-8.7,2.9-10.6s6.5-2.2,7.3-1.9C24.4,10.2,26.8,10.9,26.8,10.9z"/>
			</g>
			<g>
				<g>
					<path fill="#F05540" d="M18.1,28.6c0,0,0.2,2.8,1.7,4.1c1.4,1.5-0.5,4.7-1.7,6.2c0,0,2.6-3.9,1.4-5.6
						C18.2,31.6,17.8,30.2,18.1,28.6z"/>
				</g>
				<g>
					<g>
						<path fill="#F05540" d="M21.3,22.8c0,0-0.1,0.1-0.2,0.2c-0.1,0.1-0.3,0.3-0.5,0.5c-0.2,0.2-0.5,0.5-0.7,0.9
							c-0.3,0.4-0.5,0.8-0.8,1.3c-0.1,0.2-0.2,0.5-0.3,0.8c-0.1,0.3-0.1,0.6-0.2,0.9c0,0.3,0,0.6,0.1,0.9c0,0.1,0.1,0.3,0.1,0.4
							c0.1,0.1,0.1,0.3,0.2,0.4c0,0.1,0.1,0.1,0.1,0.2c0,0.1,0.1,0.1,0.1,0.2c0.1,0.1,0.2,0.2,0.2,0.4c0.2,0.2,0.3,0.5,0.5,0.7
							c0.3,0.5,0.7,1,1,1.5c0.2,0.3,0.3,0.5,0.5,0.8c0.1,0.3,0.3,0.6,0.4,0.9c0.1,0.3,0.2,0.6,0.2,1c0,0.3-0.1,0.7-0.2,1
							c-0.1,0.3-0.4,0.6-0.6,0.9c-0.1,0.1-0.1,0.1-0.2,0.2c-0.1,0.1-0.1,0.1-0.2,0.2c-0.1,0.1-0.2,0.2-0.3,0.3
							c-0.4,0.4-0.8,0.9-1.1,1.3c-0.2,0.2-0.3,0.4-0.4,0.7c0,0,0,0.1,0,0.1c0,0,0,0.1,0,0.1c0,0.1,0,0.1-0.1,0.2l0,0l0,0
							c0,0,0,0.1,0,0.1c0,0.1,0,0.1-0.1,0.2c0,0.1,0,0.2-0.1,0.3c0,0.1,0,0.2,0,0.3c0,0.1,0,0.2,0,0.3c0,0.1,0,0.2,0,0.2
							c0,0.3,0.1,0.5,0.1,0.6c0,0.1,0.1,0.2,0.1,0.2l0,0c0,0,0-0.1-0.1-0.2c-0.1-0.1-0.1-0.4-0.2-0.6c0-0.3-0.1-0.7,0.1-1.1
							c0.1-0.4,0.3-0.9,0.6-1.4c0.3-0.5,0.7-0.9,1.1-1.4c0.1-0.1,0.2-0.2,0.3-0.3c0.1-0.1,0.1-0.1,0.2-0.2c0.1-0.1,0.1-0.1,0.2-0.2
							c0.2-0.2,0.4-0.5,0.5-0.8c0.1-0.3,0.2-0.6,0.2-0.9c0-0.3-0.1-0.6-0.1-0.9c-0.1-0.3-0.2-0.6-0.4-0.8c-0.1-0.3-0.3-0.5-0.5-0.8
							c-0.3-0.5-0.7-1-1-1.5c-0.2-0.2-0.3-0.5-0.5-0.7c-0.1-0.1-0.2-0.2-0.2-0.4c0-0.1-0.1-0.1-0.1-0.2c0-0.1-0.1-0.1-0.1-0.2
							c-0.1-0.1-0.1-0.3-0.2-0.4c0-0.1-0.1-0.3-0.1-0.4c-0.1-0.3-0.1-0.6,0-0.9c0-0.3,0.1-0.6,0.2-0.9c0.1-0.3,0.2-0.5,0.3-0.8
							c0.2-0.5,0.5-0.9,0.8-1.3c0.3-0.4,0.5-0.6,0.7-0.9c0.2-0.2,0.4-0.4,0.5-0.5C21.2,22.8,21.2,22.8,21.3,22.8L21.3,22.8z"/>
					</g>
					<g>
						<path fill="#F05540" d="M15.6,34c0-0.2,0-0.4,0-0.5c0-0.2,0-0.4,0-0.5c0-0.1,0-0.2,0-0.3c0-0.1,0-0.2-0.1-0.3
							c0-0.2-0.1-0.3-0.1-0.5c-0.1-0.4-0.2-0.7-0.3-1.1c-0.2-0.7-0.4-1.4-0.6-2.1c0-0.1,0-0.1,0-0.2l-0.2-0.1c0,0.1,0.1,0.3,0.1,0.4
							c0.2,0.7,0.4,1.4,0.6,2.1c0.1,0.4,0.2,0.7,0.3,1c0,0.2,0.1,0.3,0.1,0.5c0,0.1,0,0.2,0.1,0.3c0,0.1,0,0.2,0,0.3
							c0,0.2,0,0.3,0.1,0.5c0,0.2,0,0.4,0,0.5c0,0.4-0.1,0.7-0.3,1c-0.1,0.3-0.3,0.6-0.5,0.9c-0.2,0.3-0.4,0.5-0.7,0.8
							c-0.5,0.5-1,0.8-1.4,1.1c-0.4,0.3-0.8,0.5-1.2,0.7c-0.3,0.2-0.6,0.3-0.8,0.4c-0.2,0.1-0.3,0.1-0.3,0.1l0,0c0,0,0.1,0,0.3-0.1
							c0.2-0.1,0.5-0.2,0.8-0.4c0.3-0.2,0.7-0.4,1.2-0.7c0.5-0.3,0.9-0.7,1.4-1.1c0.2-0.2,0.5-0.5,0.7-0.8c0.2-0.3,0.4-0.6,0.6-0.9
							C15.4,34.8,15.5,34.4,15.6,34z"/>
					</g>
					<g>
						<path fill="#F05540" d="M18,20.3c-0.2,0.9-0.7,1.8-1.5,2.6c-0.4,0.4-0.9,0.8-1.4,1.1l-0.2,0.1l-0.2,0.1
							c-0.1,0.1-0.2,0.2-0.4,0.3c-0.2,0.2-0.4,0.4-0.7,0.6c-0.4,0.4-0.8,0.8-1.1,1.2c-0.3,0.4-0.6,0.9-0.9,1.3
							c-0.5,0.9-0.9,1.7-1.2,2.6c-0.3,0.8-0.4,1.6-0.4,2.3c0,0.7,0.1,1.3,0.4,1.8c0.2,0.5,0.5,0.8,0.8,1.1c0.3,0.3,0.5,0.4,0.7,0.5
							c0.2,0.1,0.3,0.1,0.3,0.1s-0.1,0-0.3-0.1c-0.2-0.1-0.4-0.3-0.7-0.5c-0.3-0.3-0.6-0.6-0.8-1.1c-0.2-0.5-0.4-1.1-0.4-1.8
							c0-0.7,0.1-1.5,0.4-2.3c0.3-0.8,0.6-1.7,1.2-2.5c0.3-0.4,0.6-0.9,0.9-1.3c0.3-0.4,0.7-0.8,1.1-1.2c0.2-0.2,0.4-0.4,0.7-0.5
							c0.1-0.1,0.2-0.2,0.3-0.3l0.2-0.1l0.2-0.1c0.5-0.3,1-0.7,1.4-1.1c0.2-0.2,0.4-0.4,0.6-0.6c0.2-0.2,0.3-0.4,0.5-0.7
							c0.1-0.2,0.3-0.5,0.3-0.7c0.1-0.2,0.1-0.4,0.2-0.6H18z"/>
					</g>
					<g>
						<path fill="#F05540" d="M13.5,22.8C13.5,22.8,13.6,22.8,13.5,22.8c0,0,0,0.1,0.1,0.1c0,0.1,0.1,0.2,0.1,0.3
							c0.1,0.1,0.1,0.3,0.2,0.5c0.1,0.2,0.1,0.4,0.2,0.7c0,0.3,0.1,0.6,0,0.9c0,0.2,0,0.3-0.1,0.5c0,0.2-0.1,0.4-0.2,0.5
							c-0.1,0.2-0.2,0.3-0.3,0.5c-0.1,0.1-0.3,0.3-0.4,0.4c-0.3,0.2-0.6,0.5-0.9,0.7c-0.6,0.5-1.2,1-1.6,1.6
							c-0.2,0.3-0.5,0.6-0.6,0.9c-0.2,0.3-0.3,0.6-0.4,0.9c-0.1,0.3-0.2,0.5-0.2,0.8c0,0.1,0,0.1,0,0.2c0,0.1,0,0.1,0,0.2
							c0,0.1,0,0.2,0,0.3c0,0.2,0,0.3,0,0.4c0,0.1,0,0.1,0,0.1s0,0,0-0.1c0-0.1,0-0.2,0-0.4c0-0.1,0-0.2,0-0.3c0,0,0-0.1,0-0.2
							c0-0.1,0-0.1,0-0.2c0-0.2,0.1-0.5,0.2-0.8c0.1-0.3,0.2-0.6,0.4-0.9c0.2-0.3,0.4-0.6,0.6-0.9c0.5-0.6,1-1.1,1.6-1.7
							c0.3-0.3,0.6-0.5,0.9-0.7c0.2-0.1,0.3-0.2,0.4-0.4c0.1-0.1,0.2-0.3,0.3-0.4c0.1-0.2,0.1-0.3,0.2-0.5c0-0.2,0.1-0.3,0.1-0.5
							c0-0.3,0-0.6-0.1-0.9c0-0.3-0.1-0.5-0.2-0.7c-0.1-0.2-0.1-0.4-0.2-0.5c-0.1-0.1-0.1-0.2-0.1-0.3c0,0,0-0.1,0-0.1c0,0,0,0,0,0
							L13.5,22.8z"/>
					</g>
					<g>
						<path fill="#F05540" d="M19.3,24.7C19.3,24.7,19.3,24.7,19.3,24.7c0,0,0.1,0,0.1,0.1c0.1,0,0.2,0.1,0.3,0.2
							c0.1,0.1,0.3,0.2,0.4,0.4c0.2,0.2,0.3,0.3,0.5,0.6c0.2,0.2,0.3,0.5,0.5,0.8c0.1,0.1,0.1,0.3,0.2,0.5c0,0.2,0.1,0.4,0.1,0.6
							c0,0.2,0,0.4-0.1,0.6c0,0.2-0.1,0.4-0.2,0.5c-0.2,0.3-0.3,0.7-0.4,1.1c-0.3,0.7-0.5,1.5-0.7,2.2c-0.1,0.4-0.1,0.7-0.1,1.1
							c0,0.3,0,0.7,0,1c0,0.3,0.1,0.5,0.2,0.8c0,0.1,0,0.1,0.1,0.2c0,0,0,0.1,0.1,0.1c0,0.1,0.1,0.2,0.1,0.2
							c0.1,0.1,0.2,0.2,0.2,0.3c0.1,0.1,0.1,0.1,0.1,0.1s0,0-0.1-0.1c-0.1-0.1-0.1-0.2-0.2-0.3c0-0.1-0.1-0.1-0.1-0.2
							c0,0,0-0.1-0.1-0.1c0-0.1,0-0.1-0.1-0.2c-0.1-0.2-0.1-0.5-0.2-0.8c0-0.3-0.1-0.6,0-1c0-0.3,0.1-0.7,0.1-1.1
							c0.1-0.7,0.4-1.5,0.6-2.2c0.1-0.4,0.3-0.7,0.4-1.1c0.1-0.2,0.1-0.3,0.2-0.5c0-0.2,0.1-0.4,0.1-0.5c0-0.2,0-0.3-0.1-0.5
							c0-0.2-0.1-0.3-0.2-0.5c-0.1-0.3-0.3-0.5-0.5-0.7c-0.2-0.2-0.3-0.4-0.5-0.5c-0.2-0.1-0.3-0.3-0.4-0.4
							c-0.1-0.1-0.2-0.2-0.3-0.2c0,0-0.1,0-0.1-0.1c0,0,0,0,0,0L19.3,24.7z"/>
					</g>
					<g>
						<path fill="#F05540" d="M15.9,29.6c0,0-0.1,0.1-0.2,0.2c-0.1,0.1-0.4,0.4-0.6,0.6c-0.1,0.1-0.2,0.3-0.4,0.4
							c-0.1,0.2-0.3,0.3-0.4,0.5c-0.1,0.1-0.1,0.2-0.2,0.3c-0.1,0.1-0.1,0.2-0.2,0.3c-0.1,0.2-0.3,0.4-0.4,0.6
							c-0.1,0.2-0.3,0.4-0.4,0.6c-0.1,0.1-0.1,0.2-0.2,0.3c-0.1,0.1-0.1,0.2-0.2,0.3c-0.1,0.1-0.1,0.2-0.2,0.3
							c-0.1,0.1-0.1,0.2-0.1,0.3c-0.1,0.2-0.2,0.3-0.3,0.5c0,0.1-0.1,0.2-0.1,0.2c0,0.1-0.1,0.1-0.1,0.2c-0.1,0.1-0.1,0.2-0.1,0.3
							c-0.1,0.2-0.1,0.3-0.1,0.3s0-0.1,0.1-0.3c0-0.1,0.1-0.2,0.1-0.3c0.1-0.1,0.1-0.3,0.2-0.4c0.1-0.2,0.1-0.3,0.2-0.5
							c0-0.1,0.1-0.2,0.1-0.3c0.1-0.1,0.1-0.2,0.2-0.3c0.1-0.1,0.1-0.2,0.2-0.3c0.1-0.1,0.1-0.2,0.2-0.3c0.1-0.2,0.3-0.4,0.4-0.6
							c0.1-0.2,0.3-0.4,0.4-0.6c0.1-0.2,0.3-0.4,0.4-0.5c0.1-0.2,0.3-0.3,0.4-0.5c0.1-0.1,0.3-0.3,0.4-0.4c0.3-0.2,0.5-0.4,0.6-0.6
							C15.8,29.7,15.9,29.6,15.9,29.6z"/>
					</g>
				</g>
			</g>
		</g>
		<g>
			<g>
				<g>
					<path fill="#415A6B" d="M47.7,22.4c-0.5-0.6-3.8,0.5-7.9,1.6c-3.2,0.5-4.7-1.7-5.4-3.3c-0.9-2.2-2.4-4-4.4-5.2
						c-3.1-1.8-6.3-2-6.3-2l-10.3-2.3c0,0-4.7-1.6-6.5-1.4c2.1-0.5,8.8-1.5,8.8-1.5L17,7.7c0,0,2.9-7.8,9-7.7
						c6.1,0,10.3,3.9,10.3,3.9c5.5,4.3,1.5,13.3,1.5,13.3C41.8,18.5,47.6,21.9,47.7,22.4z"/>
				</g>
				<g>
					<path fill="#415A6B" d="M10.3,15.7"/>
				</g>
				<g>
					<path fill="#344A5E" d="M37.3,17c0,0-10.2-6.5-14.4-7.7c-4.1-1.1-7.2-0.9-7.2-0.9s1.1-1.6,1.7-1.5C19,6.9,23.9,8,26.7,9.3
						c3.8,1.9,10,5.8,10,5.8L37.3,17z"/>
				</g>
				<g>
					<path fill="#FFFFFF" d="M36.2,15.8c0.3,0.8,0.8,1.4,1.3,1.3c0.4-0.1,0.6-0.9,0.3-1.8c-0.3-0.8-0.8-1.4-1.3-1.3
						S35.9,15,36.2,15.8z"/>
				</g>
			</g>
		</g>
	</g>
</g>
</svg>
