<?xml version="1.0" encoding="utf-8"?>
<!-- Generator: Adobe Illustrator 18.0.0, SVG Export Plug-In . SVG Version: 6.00 Build 0)  -->
<!DOCTYPE svg PUBLIC "-//W3C//DTD SVG 1.1//EN" "http://www.w3.org/Graphics/SVG/1.1/DTD/svg11.dtd">
<svg version="1.1" id="Layer_1" xmlns="http://www.w3.org/2000/svg" xmlns:xlink="http://www.w3.org/1999/xlink" x="0px" y="0px"
	 viewBox="0 0 48 48" enable-background="new 0 0 48 48" xml:space="preserve">
<g>
	<path fill="#F2F2F2" d="M13.9,6.9c-0.1,0-0.3,0-0.4,0.1c-0.1-0.7-0.7-1.2-1.4-1.2c-0.7,0-1.3,0.5-1.4,1.2c-0.3-0.2-0.7-0.4-1.1-0.4
		c-1,0-1.8,0.8-1.8,1.8c0,0,0,0,0,0c-0.1,0-0.1,0-0.2,0c-1.2,0-2.2,1-2.2,2.2s1,2.2,2.2,2.2c1.2,0,2.2-1,2.2-2.2c0,0,0,0,0,0
		c0.3,0.2,0.7,0.3,1.1,0.3c0.9,0,1.7-0.6,1.9-1.5c0.3,0.2,0.6,0.4,1,0.4c0.8,0,1.5-0.7,1.5-1.5S14.8,6.9,13.9,6.9z"/>
	<polygon fill="#40596B" points="45.6,25 43.7,28 18.2,28 15.6,25 0,25 0,27.4 5.6,42.2 42.3,42.2 48,27.4 48,25 	"/>
	<polygon fill="#FF7058" points="4,38 5.6,42.2 42.3,42.2 44,38 	"/>
	<g>
		<circle fill="#F2F2F2" cx="3.6" cy="27.5" r="1.5"/>
		<circle fill="#F2F2F2" cx="7.8" cy="27.5" r="1.5"/>
		<circle fill="#F2F2F2" cx="12" cy="27.5" r="1.5"/>
		<path fill="#E4EAEF" d="M12,26.3c0.8,0,1.4,0.6,1.5,1.4c0-0.1,0-0.1,0-0.2c0-0.8-0.7-1.5-1.5-1.5s-1.5,0.7-1.5,1.5
			c0,0.1,0,0.1,0,0.2C10.5,26.9,11.2,26.3,12,26.3z"/>
		<path fill="#E4EAEF" d="M7.8,26.3c0.8,0,1.4,0.6,1.5,1.4c0-0.1,0-0.1,0-0.2c0-0.8-0.7-1.5-1.5-1.5s-1.5,0.7-1.5,1.5
			c0,0.1,0,0.1,0,0.2C6.4,26.9,7,26.3,7.8,26.3z"/>
		<path fill="#E4EAEF" d="M3.6,26.3c0.8,0,1.4,0.6,1.5,1.4c0-0.1,0-0.1,0-0.2c0-0.8-0.7-1.5-1.5-1.5s-1.5,0.7-1.5,1.5
			c0,0.1,0,0.1,0,0.2C2.2,26.9,2.8,26.3,3.6,26.3z"/>
	</g>
	<rect x="18.2" y="21" fill="#FFD15C" width="12.7" height="7"/>
	<rect x="30.9" y="21" fill="#FF7058" width="12.7" height="7"/>
	<rect x="24.6" y="13.9" fill="#84DBFF" width="12.7" height="7"/>
	<path fill="#ACB3BA" d="M12.5,25H3.1v-6.5c0-0.6,0.4-1,1-1h7.4c0.6,0,1,0.4,1,1V25z"/>
	<rect x="5.1" y="12.4" fill="#F2F2F2" width="5.3" height="5.1"/>
	<path fill="#CDD6E0" d="M10.4,13.2H5.1c-0.4,0-0.7-0.3-0.7-0.7v0c0-0.4,0.3-0.7,0.7-0.7h5.3c0.4,0,0.7,0.3,0.7,0.7v0
		C11.1,12.8,10.8,13.2,10.4,13.2z"/>
</g>
</svg>
