<?xml version="1.0" encoding="utf-8"?>
<!-- Generator: Adobe Illustrator 18.0.0, SVG Export Plug-In . SVG Version: 6.00 Build 0)  -->
<!DOCTYPE svg PUBLIC "-//W3C//DTD SVG 1.1//EN" "http://www.w3.org/Graphics/SVG/1.1/DTD/svg11.dtd">
<svg version="1.1" id="Layer_1" xmlns="http://www.w3.org/2000/svg" xmlns:xlink="http://www.w3.org/1999/xlink" x="0px" y="0px"
	 viewBox="0 0 48 48" enable-background="new 0 0 48 48" xml:space="preserve">
<g>
	<polygon fill="#FF7058" points="28.8,0 28.8,3.6 32.6,3.6 28,8.2 23.4,3.6 9.1,17.9 11.6,20.4 23.4,8.7 28,13.3 35.2,6.2 
		35.2,10.1 38.8,10.1 38.8,0 	"/>
	<path fill="#4CDBC4" d="M45.9,21.5H2c-1.1,0-2,0.9-2,2v20.6c0,1.1,0.9,2,2,2h43.9c1.1,0,2-0.9,2-2V23.5
		C47.9,22.4,47,21.5,45.9,21.5z"/>
	<path fill="#4CDBC4" d="M47.9,19.9v20.6c0,1.1-0.9,2-2,2H2c-1.1,0-2-0.9-2-2V19.9c0-1.1,0.9-2,2-2h43.9
		C47,17.9,47.9,18.8,47.9,19.9z"/>
	<path fill="#4CDBC4" d="M45.9,14.4H2c-1.1,0-2,0.9-2,2V37c0,1.1,0.9,2,2,2h43.9c1.1,0,2-0.9,2-2V16.4C47.9,15.3,47,14.4,45.9,14.4z
		"/>
	<path fill="#3DC9AE" d="M47.9,20.4V37c0,1.1-0.9,2-2,2H2c-1.1,0-2-0.9-2-2V20.5c0,0,0,0,0,0V39c0,1.1,0.9,2,2,2h0h43.9c0,0,0,0,0,0
		c1.1,0,2-1,2-2.1L47.9,20.4C47.9,20.5,47.9,20.5,47.9,20.4z"/>
	<path fill="#3DC9AE" d="M47.9,24.1v16.5c0,1.1-0.9,2-2,2H2c-1.1,0-2-0.9-2-2V24.1c0,0,0,0,0,0v18.5c0,1.1,0.9,2,2,2l0,0h43.9
		c0,0,0,0,0,0c1.1,0,2-1,2-2.1L47.9,24.1C47.9,24.1,47.9,24.1,47.9,24.1z"/>
	<path fill="#3DC9AE" d="M48,27.5V44c0,1.1-0.9,2-2,2H2.1c-1.1,0-2-0.9-2-2V27.5c0,0,0,0,0,0V46c0,1.1,0.9,2,2,2h0H46c0,0,0,0,0,0
		c1.1,0,2-1,2-2.1L48,27.5C48,27.5,48,27.5,48,27.5z"/>
	<path fill="#FFFFFF" d="M43.9,22.5v8.4c-2.2,0-4.1,1.8-4.1,4H8.1c0-2.2-1.8-4-4.1-4v-8.4c2.2,0,4.1-1.8,4.1-4h31.7
		C39.8,20.7,41.6,22.5,43.9,22.5z"/>
	<g>
		<circle fill="#4CDBC4" cx="13.4" cy="25.5" r="1.3"/>
		<circle fill="#4CDBC4" cx="34.5" cy="25.5" r="1.3"/>
	</g>
	<path fill="#4CDBC4" d="M31.4,26.7c0,3.4-1.2,6.4-3.1,8.3h-8.6c-1.9-1.8-3.1-4.8-3.1-8.3c0-3.4,1.2-6.4,3.1-8.3h8.6
		C30.2,20.3,31.4,23.3,31.4,26.7z"/>
	<g>
		<path fill="#FFFFFF" d="M26.6,26.7c-0.4-0.5-1.1-0.8-2.1-1.1v-2.5c0.4,0.2,0.7,0.5,0.8,1l1.6-0.2c-0.1-0.6-0.4-1.2-0.8-1.6
			c-0.4-0.4-1-0.6-1.6-0.7V21h-0.9v0.6c-0.8,0.1-1.3,0.4-1.8,0.8c-0.5,0.5-0.7,1.1-0.7,1.8c0,0.7,0.2,1.3,0.6,1.8
			c0.4,0.5,1,0.9,1.9,1.1v2.7c-0.2-0.1-0.4-0.3-0.6-0.5c-0.2-0.2-0.3-0.5-0.4-0.9l-1.7,0.2c0.1,0.8,0.4,1.5,0.9,2
			c0.5,0.5,1.1,0.7,1.8,0.8v0.8h0.9v-0.9c0.8-0.1,1.5-0.4,2-1c0.5-0.5,0.7-1.2,0.7-2C27.2,27.8,27,27.2,26.6,26.7z M23.5,25.3
			c-0.3-0.1-0.5-0.3-0.6-0.5c-0.1-0.2-0.2-0.4-0.2-0.6c0-0.3,0.1-0.5,0.2-0.7c0.2-0.2,0.4-0.4,0.6-0.4V25.3z M25.3,29.5
			c-0.2,0.2-0.5,0.4-0.8,0.5v-2.5c0.4,0.1,0.7,0.3,0.8,0.5c0.2,0.2,0.3,0.5,0.3,0.7C25.6,29,25.5,29.3,25.3,29.5z"/>
	</g>
</g>
</svg>
