<?xml version="1.0" encoding="utf-8"?>
<!-- Generator: Adobe Illustrator 18.0.0, SVG Export Plug-In . SVG Version: 6.00 Build 0)  -->
<!DOCTYPE svg PUBLIC "-//W3C//DTD SVG 1.1//EN" "http://www.w3.org/Graphics/SVG/1.1/DTD/svg11.dtd">
<svg version="1.1" id="Layer_1" xmlns="http://www.w3.org/2000/svg" xmlns:xlink="http://www.w3.org/1999/xlink" x="0px" y="0px"
	 viewBox="0 0 48 48" enable-background="new 0 0 48 48" xml:space="preserve">
<g>
	<g>
		<g>
			<path fill="#415A6B" d="M32,42.9H6c-0.5,0-0.9-0.4-0.9-0.9V16c0-0.5,0.4-0.9,0.9-0.9h26c0.5,0,0.9,0.4,0.9,0.9v26
				C32.9,42.5,32.5,42.9,32,42.9z M7,41h24.1V16.9H7V41z"/>
		</g>
		<g>
			<path fill="#415A6B" d="M42,32.9H16c-0.5,0-0.9-0.4-0.9-0.9V6c0-0.5,0.4-0.9,0.9-0.9h26c0.5,0,0.9,0.4,0.9,0.9v26
				C42.9,32.5,42.5,32.9,42,32.9z M16.9,31.1H41V7H16.9V31.1z"/>
		</g>
		<g>
			<path fill="none" stroke="#415A6B" stroke-width="2" stroke-linecap="round" stroke-linejoin="round" stroke-miterlimit="10" d="
				M16,6"/>
		</g>
		<g>
			<path fill="none" stroke="#415A6B" stroke-width="2" stroke-linecap="round" stroke-linejoin="round" stroke-miterlimit="10" d="
				M6,16"/>
		</g>
		<g>
			<g>
				<circle fill="#F3705A" cx="42" cy="32" r="6"/>
			</g>
			<g>
				<g>
					
						<ellipse transform="matrix(0.7071 -0.7071 0.7071 0.7071 -9.2416 36.4331)" fill="#FFFFFF" cx="39.4" cy="29.4" rx="1.6" ry="0.9"/>
				</g>
			</g>
		</g>
		<g>
			<g>
				<circle fill="#F3705A" cx="42" cy="6" r="6"/>
			</g>
			<g>
				<g>
					
						<ellipse transform="matrix(0.7071 -0.7071 0.7071 0.7071 9.1395 28.8195)" fill="#FFFFFF" cx="39.4" cy="3.4" rx="1.6" ry="0.9"/>
				</g>
			</g>
		</g>
		<g>
			<g>
				<circle fill="#4EC0AA" cx="16" cy="32" r="6"/>
			</g>
			<g>
				
					<ellipse transform="matrix(0.7071 -0.7071 0.7071 0.7071 -16.8552 18.0519)" fill="#FFFFFF" cx="13.4" cy="29.4" rx="1.6" ry="0.9"/>
			</g>
		</g>
		<g>
			<g>
				<circle fill="#4EC0AA" cx="16" cy="6" r="6"/>
			</g>
			<g>
				
					<ellipse transform="matrix(0.7071 -0.7071 0.7071 0.7071 1.5258 10.4383)" fill="#FFFFFF" cx="13.4" cy="3.4" rx="1.6" ry="0.9"/>
			</g>
		</g>
		<g>
			<path fill="#415A6B" d="M6,16.9c-0.2,0-0.5-0.1-0.7-0.3c-0.4-0.4-0.4-1,0-1.3l10-10c0.4-0.4,1-0.4,1.3,0c0.4,0.4,0.4,1,0,1.3
				l-10,10C6.5,16.8,6.3,16.9,6,16.9z"/>
		</g>
		<g>
			<path fill="#415A6B" d="M32,16.9c-0.2,0-0.5-0.1-0.7-0.3c-0.4-0.4-0.4-1,0-1.3l10-10c0.4-0.4,1-0.4,1.3,0s0.4,1,0,1.3l-10,10
				C32.5,16.8,32.2,16.9,32,16.9z"/>
		</g>
		<g>
			<circle fill="#FFD15C" cx="32" cy="16" r="6"/>
		</g>
		<g>
			<circle fill="#F3705A" cx="6" cy="16" r="6"/>
		</g>
		<g>
			<path fill="#415A6B" d="M32,42.9c-0.2,0-0.5-0.1-0.7-0.3c-0.4-0.4-0.4-1,0-1.3l10-10c0.4-0.4,1-0.4,1.3,0c0.4,0.4,0.4,1,0,1.3
				l-10,10C32.5,42.8,32.2,42.9,32,42.9z"/>
		</g>
		<g>
			<path fill="#415A6B" d="M6,42.9c-0.2,0-0.5-0.1-0.7-0.3c-0.4-0.4-0.4-1,0-1.3l10-10c0.4-0.4,1-0.4,1.3,0c0.4,0.4,0.4,1,0,1.3
				l-10,10C6.5,42.8,6.3,42.9,6,42.9z"/>
		</g>
		<g>
			<circle fill="#FFD15C" cx="6" cy="42" r="6"/>
		</g>
		<g>
			<g>
				
					<ellipse transform="matrix(0.7071 -0.7071 0.7071 0.7071 -8.4597 6.3021)" fill="#FFFFFF" cx="3.4" cy="13.4" rx="1.6" ry="0.9"/>
			</g>
		</g>
		<g>
			<g>
				
					<ellipse transform="matrix(0.7071 -0.7071 0.7071 0.7071 -0.8461 24.6832)" fill="#FFFFFF" cx="29.4" cy="13.4" rx="1.6" ry="0.9"/>
			</g>
		</g>
		<g>
			<g>
				<circle fill="#8AD7F8" cx="32" cy="42" r="6"/>
			</g>
			<g>
				<g>
					
						<ellipse transform="matrix(0.7071 -0.7071 0.7071 0.7071 -19.2272 32.2969)" fill="#FFFFFF" cx="29.4" cy="39.4" rx="1.6" ry="0.9"/>
				</g>
			</g>
		</g>
		<g>
			<g>
				
					<ellipse transform="matrix(0.7071 -0.7071 0.7071 0.7071 -26.8409 13.9157)" fill="#FFFFFF" cx="3.4" cy="39.4" rx="1.6" ry="0.9"/>
			</g>
		</g>
	</g>
</g>
</svg>
