<?xml version="1.0" encoding="utf-8"?>
<!-- Generator: Adobe Illustrator 16.0.0, SVG Export Plug-In . SVG Version: 6.00 Build 0)  -->
<!DOCTYPE svg PUBLIC "-//W3C//DTD SVG 1.1//EN" "http://www.w3.org/Graphics/SVG/1.1/DTD/svg11.dtd">
<svg version="1.1" id="Layer_1" xmlns="http://www.w3.org/2000/svg" xmlns:xlink="http://www.w3.org/1999/xlink" x="0px" y="0px"
	 width="48px" height="48px" viewBox="0 0 48 48" enable-background="new 0 0 48 48" xml:space="preserve">
<g>
	<path fill="#F2F2F2" d="M37.285-0.115L34.179,2.99L31.07-0.115L27.964,2.99l-3.106-3.105L21.75,2.99l-3.107-3.105L15.535,2.99
		l-3.107-3.105L9.32,2.99L6.213-0.115L3.105,2.99L0-0.115v46.219c0,1.111,0.9,2.012,2.011,2.012h26.503l8.771-8.771V-0.115z"/>
	<path fill="#CDD6E0" d="M28.514,48.115l8.771-8.771h-6.761c-1.11,0-2.011,0.9-2.011,2.012V48.115z"/>
	<rect x="2.68" y="9.471" fill="#FFFFFF" width="7.085" height="7.084"/>
	<rect x="2.68" y="19.752" fill="#FFFFFF" width="7.085" height="7.084"/>
	<rect x="2.68" y="30.033" fill="#FFFFFF" width="7.085" height="7.084"/>
	<rect x="14.252" y="12.047" fill="#CDD6E0" width="20.354" height="1.932"/>
	<rect x="14.252" y="22.328" fill="#CDD6E0" width="20.354" height="1.932"/>
	<rect x="14.252" y="32.609" fill="#CDD6E0" width="20.354" height="1.932"/>
	<polygon fill="#FFD15C" points="5.353,15.072 3.695,13.414 4.416,12.693 5.353,13.629 8.027,10.953 8.748,11.676 	"/>
	<polygon fill="#FF7058" points="5.353,25.354 3.695,23.695 4.416,22.975 5.353,23.908 8.027,21.234 8.748,21.957 	"/>
	<path fill="#84DBFF" d="M25.077,25.451c-2.188,2.625-3.97,5.152-5.298,7.318l3.93,3.93c2.146-1.346,4.645-3.158,7.249-5.365
		L25.077,25.451z"/>
	<path fill="#40596B" d="M17.109,39.281c0,0,2.313-0.121,4.908-1.576l-3.23-3.23C17.348,37.084,17.109,39.281,17.109,39.281"/>
	<path fill="#40596B" d="M32.4,30.08L26.32,24c-0.43,0.486-0.842,0.971-1.243,1.453l5.881,5.881
		C31.436,30.928,31.917,30.512,32.4,30.08"/>
	<path fill="#40596B" d="M18.787,34.475l3.23,3.23c0.535-0.301,1.097-0.631,1.691-1.004l-3.93-3.932
		C19.411,33.371,19.084,33.936,18.787,34.475"/>
	<path fill="#334A5E" d="M30.598,17.133c-0.002-0.002-0.006-0.004-0.008-0.008c-0.276-0.283-0.27-0.74,0.016-1.018
		c6.623-6.428,13.473-9.605,13.761-9.738c0.363-0.166,0.785-0.008,0.954,0.354c0.165,0.361,0.008,0.787-0.355,0.953
		c-0.067,0.033-6.92,3.217-13.358,9.465C31.324,17.416,30.875,17.41,30.598,17.133"/>
	<path fill="#40596B" d="M35.526,27.129c8.442-8.441,13.883-16.688,12.153-18.418c-1.73-1.729-9.977,3.711-18.418,12.154
		c-1.041,1.039-2.021,2.09-2.941,3.135l6.081,6.08C33.439,29.154,34.485,28.17,35.526,27.129"/>
	<path fill="#84DBFF" d="M42.719,8.861c-0.742,0.418-1.633,0.949-2.631,1.592l0.675,0.676c0.946-0.633,1.829-1.172,2.629-1.596
		L42.719,8.861z"/>
</g>
</svg>
