<?xml version="1.0" encoding="utf-8"?>
<!-- Generator: Adobe Illustrator 18.0.0, SVG Export Plug-In . SVG Version: 6.00 Build 0)  -->
<!DOCTYPE svg PUBLIC "-//W3C//DTD SVG 1.1//EN" "http://www.w3.org/Graphics/SVG/1.1/DTD/svg11.dtd">
<svg version="1.1" id="Layer_1" xmlns="http://www.w3.org/2000/svg" xmlns:xlink="http://www.w3.org/1999/xlink" x="0px" y="0px"
	 viewBox="0 0 48 48" enable-background="new 0 0 48 48" xml:space="preserve">
<g>
	<path fill="#54C0EB" d="M7.7,19.1c0,0,13.3-5.5,26.8-1.8l-10.5,16L7.7,21.3V19.1z"/>
	<path fill="#ACB3BA" d="M5.2,23.6c0,0,9.1,8.8,6.9,13.8c0,0,4.9-2.7,7.9-1.9C19.9,35.5,17.7,26.1,5.2,23.6z"/>
	<path fill="#FFD15C" d="M5.2,23.6c0,0,10,2,14.8,11.9h5.8C25.7,35.5,19.1,23.3,5.2,23.6z"/>
	<path fill="#40596B" d="M48,38.3c-3.6-3.1-6-4.8-6-4.8c-0.2-12.1-7.4-16.2-7.4-16.2L12.1,37.4C9.6,40.6,8.5,44.2,8.3,48H48V38.3z"
		/>
	<path fill="#FF7058" d="M43.1,5.1l-2-0.6c-0.7-0.2-0.8-1.2-0.1-1.5l1-0.5c0.7-0.3,0.6-1.3-0.1-1.5c-3.2-1.2-6.7-1.1-9.8,0.3
		C21.5,6.1,7.7,19.1,7.7,19.1c15.4-5.3,26.8-1.8,26.8-1.8h4.9c0.9-0.2,0.9-2.2,0.1-2.5c-0.7-0.2-0.9-1.2-0.2-1.5l3.3-1.9
		c0.6-0.4,0.5-1.3-0.1-1.5L41,9.3c-0.7-0.3-0.7-1.2-0.1-1.5l2.3-1.1C43.9,6.3,43.8,5.3,43.1,5.1z"/>
	<path fill="#334A5E" d="M7.7,19.1c0,0-7,2.3-7.7,4.2c0,0,12.9,0.8,16,2.9C16,26.2,10.7,21.3,7.7,19.1z"/>
	<g>
		<ellipse fill="#CDD6E0" cx="18" cy="21.7" rx="2.8" ry="2.8"/>
		<ellipse fill="#40596B" cx="18" cy="21.7" rx="1.6" ry="1.6"/>
		<circle fill="#F2F2F2" cx="19" cy="20.7" r="0.6"/>
	</g>
</g>
</svg>
