<?xml version="1.0" encoding="utf-8"?>
<!-- Generator: Adobe Illustrator 18.0.0, SVG Export Plug-In . SVG Version: 6.00 Build 0)  -->
<!DOCTYPE svg PUBLIC "-//W3C//DTD SVG 1.1//EN" "http://www.w3.org/Graphics/SVG/1.1/DTD/svg11.dtd">
<svg version="1.1" id="Layer_1" xmlns="http://www.w3.org/2000/svg" xmlns:xlink="http://www.w3.org/1999/xlink" x="0px" y="0px"
	 viewBox="0 0 48 48" enable-background="new 0 0 48 48" xml:space="preserve">
<g>
	<g>
		<g>
			<g>
				<path fill="#415A6B" d="M36.9,11.1c-3.3,6.8-4.8,14.2-4.9,22.2l-3,0C30,25.3,32.4,17.8,36.9,11.1z"/>
			</g>
			<g>
				<path fill="#415A6B" d="M22.4,7.5C19,15.3,16.3,25,16.9,33.3l-3.9,0C14.1,25.6,17.7,15.1,22.4,7.5z"/>
			</g>
			<g>
				<path fill="#415A6B" d="M7.5,16.6c2.5,6,3.7,11.6,3.3,16.7l3,0C13.1,27.5,11,22,7.5,16.6z"/>
			</g>
		</g>
		<g>
			<g>
				<g>
					<g>
						<g>
							<g>
								<path fill="#FFD15C" d="M7.5,16c0,0,0.4-2,0.1-3c-0.3-1.1-0.7-1.2-0.7-1.2S6.6,11.7,6.5,12c-0.2,0.3-0.3,2.2,0.9,4.1L7.5,16
									z"/>
							</g>
						</g>
						<g>
							<g>
								<path fill="#F7B64C" d="M7.2,15.4c0,0,0,0,0-0.1c0,0,0-0.1-0.1-0.2c0-0.1,0-0.1-0.1-0.2c0-0.1,0-0.2-0.1-0.2
									c0-0.1,0-0.2-0.1-0.3c0-0.2-0.1-0.4-0.1-0.6c0-0.1,0-0.2-0.1-0.3c0-0.1,0-0.2,0-0.3c0-0.2-0.1-0.4-0.1-0.5
									c0-0.2,0-0.3,0-0.4c0-0.1,0-0.1,0-0.1s0,0.2,0,0.5c0,0.2,0,0.3,0,0.5c0,0.2,0.1,0.4,0.1,0.6c0,0.1,0,0.2,0.1,0.3
									c0,0.1,0.1,0.2,0.1,0.3c0.1,0.2,0.1,0.4,0.2,0.5c0.1,0.1,0.1,0.3,0.1,0.3C7.2,15.4,7.2,15.4,7.2,15.4z"/>
								<path fill="#F7B64C" d="M7,12.1c0,0,0,0,0,0.1c0,0.1,0.1,0.2,0.1,0.4c0,0.1,0.1,0.3,0.1,0.5c0,0.1,0,0.2,0.1,0.3
									c0,0.1,0,0.2,0,0.3c0,0.2,0,0.4,0.1,0.6c0,0.2,0,0.4,0,0.5c0,0.3,0,0.5,0,0.5s0-0.1,0-0.1c0-0.1,0-0.2,0-0.4
									c0-0.2,0-0.3,0-0.5c0-0.2,0-0.4,0-0.6c0-0.1,0-0.2,0-0.3c0-0.1,0-0.2-0.1-0.3c-0.1-0.2-0.1-0.4-0.2-0.5
									C7.1,12.3,7,12.1,7,12.1z"/>
							</g>
							<g>
								<path fill="#F7B64C" d="M7.1,14.8c0,0,0,0,0-0.1c0-0.1,0-0.2,0-0.3c0-0.2-0.1-0.5-0.1-0.8c-0.1-0.3-0.1-0.6-0.1-0.8
									c0-0.2-0.1-0.4-0.1-0.4s0,0.1,0,0.4c0,0.1,0,0.2,0,0.4c0,0.1,0,0.3,0.1,0.4c0,0.1,0.1,0.3,0.1,0.4C7,14.2,7,14.3,7,14.5
									C7.1,14.7,7.1,14.8,7.1,14.8z"/>
								<path fill="#F7B64C" d="M6.9,12.4c0,0,0,0.1,0.1,0.4C7,12.9,7,13,7,13.2c0,0.1,0,0.1,0,0.2c0,0.1,0,0.1,0,0.2
									c0,0.1,0,0.3,0.1,0.4c0,0.1,0,0.3,0.1,0.4c0,0.2,0.1,0.4,0.1,0.4s0-0.1,0-0.4c0-0.1,0-0.2,0-0.4c0-0.1,0-0.3-0.1-0.4
									c0-0.1,0-0.1,0-0.2c0-0.1,0-0.1-0.1-0.2C7.1,13,7,12.9,7,12.8C6.9,12.6,6.9,12.4,6.9,12.4z"/>
							</g>
						</g>
					</g>
					<g>
						<g>
							<g>
								<path fill="#FFD15C" d="M7.9,16.2c0,0,1.7-1.1,2.2-2.1c0.5-1,0.4-1.4,0.4-1.4s-0.1-0.3-0.4-0.2c-0.3,0.1-1.8,1.3-2.3,3.5
									L7.9,16.2z"/>
							</g>
						</g>
						<g>
							<g>
								<path fill="#F7B64C" d="M8.2,15.5c0,0,0,0,0.1-0.1c0,0,0-0.1,0.1-0.1c0-0.1,0.1-0.1,0.1-0.2c0-0.1,0.1-0.1,0.1-0.2
									c0-0.1,0.1-0.2,0.1-0.2c0.1-0.2,0.2-0.3,0.3-0.5C9,14,9.1,14,9.1,13.9c0.1-0.1,0.1-0.2,0.2-0.2c0.1-0.2,0.2-0.3,0.3-0.4
									c0.1-0.1,0.2-0.2,0.2-0.3c0.1-0.1,0.1-0.1,0.1-0.1S9.8,13,9.6,13.2c-0.1,0.1-0.2,0.2-0.3,0.4c-0.1,0.2-0.2,0.3-0.4,0.5
									c-0.1,0.1-0.1,0.2-0.2,0.3c-0.1,0.1-0.1,0.2-0.2,0.3c-0.1,0.2-0.2,0.3-0.2,0.5c-0.1,0.1-0.1,0.3-0.1,0.3
									C8.2,15.5,8.2,15.5,8.2,15.5z"/>
								<path fill="#F7B64C" d="M10.3,13c0,0,0,0-0.1,0.1c0,0.1-0.1,0.2-0.2,0.3c-0.1,0.1-0.2,0.3-0.3,0.5c-0.1,0.1-0.1,0.2-0.2,0.3
									c-0.1,0.1-0.1,0.2-0.2,0.2c-0.1,0.2-0.3,0.3-0.4,0.5C9,15,8.8,15.2,8.7,15.3c-0.2,0.2-0.4,0.4-0.4,0.4s0,0,0.1-0.1
									c0.1-0.1,0.2-0.1,0.3-0.2C8.9,15.2,9,15.1,9.2,15c0.1-0.1,0.3-0.3,0.4-0.5c0.1-0.1,0.1-0.2,0.2-0.3c0.1-0.1,0.1-0.2,0.2-0.3
									c0.1-0.2,0.2-0.3,0.2-0.5C10.3,13.2,10.3,13,10.3,13z"/>
							</g>
							<g>
								<path fill="#F7B64C" d="M8.5,15.1C8.5,15.1,8.6,15.1,8.5,15.1c0.1-0.1,0.2-0.2,0.2-0.3c0.1-0.2,0.3-0.4,0.5-0.7
									c0.2-0.2,0.3-0.5,0.5-0.7c0.1-0.2,0.2-0.3,0.2-0.3s-0.1,0.1-0.2,0.3c-0.1,0.1-0.2,0.2-0.2,0.3c-0.1,0.1-0.2,0.2-0.3,0.4
									c-0.1,0.1-0.2,0.2-0.2,0.4c-0.1,0.1-0.1,0.2-0.2,0.3C8.6,14.9,8.5,15.1,8.5,15.1z"/>
								<path fill="#F7B64C" d="M10,13.2c0,0-0.1,0.1-0.2,0.3c-0.1,0.1-0.1,0.2-0.2,0.3c0,0.1-0.1,0.1-0.1,0.2
									c0,0.1-0.1,0.1-0.1,0.2c-0.1,0.1-0.2,0.2-0.3,0.4C9,14.7,9,14.8,8.9,14.9c-0.1,0.2-0.2,0.3-0.2,0.3s0.1-0.1,0.2-0.3
									c0.1-0.1,0.2-0.2,0.2-0.3c0.1-0.1,0.2-0.2,0.3-0.3c0-0.1,0.1-0.1,0.1-0.2c0-0.1,0.1-0.1,0.1-0.2c0.1-0.1,0.1-0.2,0.2-0.3
									C10,13.3,10,13.2,10,13.2z"/>
							</g>
						</g>
					</g>
					<g>
						<g>
							<g>
								<path fill="#FFD15C" d="M8.1,16.6c0,0,2,0.4,3,0.1c1.1-0.3,1.2-0.7,1.2-0.7s0.1-0.2-0.2-0.4c-0.3-0.2-2.2-0.3-4.1,0.9
									L8.1,16.6z"/>
							</g>
						</g>
						<g>
							<g>
								<path fill="#F7B64C" d="M8.7,16.3c0,0,0,0,0.1,0c0,0,0.1,0,0.2-0.1c0.1,0,0.1,0,0.2-0.1c0.1,0,0.2,0,0.2-0.1
									c0.1,0,0.2,0,0.3-0.1c0.2,0,0.4-0.1,0.6-0.1c0.1,0,0.2,0,0.3-0.1c0.1,0,0.2,0,0.3,0c0.2,0,0.4-0.1,0.5-0.1
									c0.2,0,0.3,0,0.4,0c0.1,0,0.1,0,0.1,0s-0.2,0-0.5,0c-0.2,0-0.3,0-0.5,0c-0.2,0-0.4,0.1-0.6,0.1c-0.1,0-0.2,0-0.3,0.1
									c-0.1,0-0.2,0.1-0.3,0.1C9.5,16,9.4,16,9.2,16.1c-0.1,0.1-0.3,0.1-0.3,0.1C8.8,16.3,8.7,16.3,8.7,16.3z"/>
								<path fill="#F7B64C" d="M12,16.1c0,0,0,0-0.1,0c-0.1,0-0.2,0.1-0.4,0.1c-0.1,0-0.3,0.1-0.5,0.1c-0.1,0-0.2,0-0.3,0.1
									c-0.1,0-0.2,0-0.3,0c-0.2,0-0.4,0-0.6,0.1c-0.2,0-0.4,0-0.5,0c-0.3,0-0.5,0-0.5,0s0.1,0,0.1,0c0.1,0,0.2,0,0.4,0
									c0.2,0,0.3,0,0.5,0c0.2,0,0.4,0,0.6,0c0.1,0,0.2,0,0.3,0c0.1,0,0.2,0,0.3-0.1c0.2-0.1,0.4-0.1,0.5-0.2
									C11.9,16.2,12,16.1,12,16.1z"/>
							</g>
							<g>
								<path fill="#F7B64C" d="M9.3,16.3c0,0,0,0,0.1,0c0.1,0,0.2,0,0.3,0c0.2,0,0.5-0.1,0.8-0.1c0.3-0.1,0.6-0.1,0.8-0.1
									c0.2,0,0.4-0.1,0.4-0.1s-0.1,0-0.4,0c-0.1,0-0.2,0-0.4,0c-0.1,0-0.3,0-0.4,0.1c-0.1,0-0.3,0.1-0.4,0.1
									c-0.1,0-0.3,0.1-0.4,0.1C9.5,16.2,9.3,16.3,9.3,16.3z"/>
								<path fill="#F7B64C" d="M11.7,16c0,0-0.1,0-0.4,0.1c-0.1,0-0.2,0-0.4,0.1c-0.1,0-0.1,0-0.2,0c-0.1,0-0.1,0-0.2,0
									c-0.1,0-0.3,0-0.4,0.1c-0.1,0-0.3,0-0.4,0.1c-0.2,0-0.4,0.1-0.4,0.1s0.1,0,0.4,0c0.1,0,0.2,0,0.4,0c0.1,0,0.3,0,0.4-0.1
									c0.1,0,0.1,0,0.2,0c0.1,0,0.1,0,0.2-0.1c0.1,0,0.3-0.1,0.4-0.1C11.6,16,11.7,16,11.7,16z"/>
							</g>
						</g>
					</g>
					<g>
						<g>
							<g>
								<path fill="#FFD15C" d="M8,17.1c0,0,1.1,1.7,2.1,2.2c1,0.5,1.4,0.4,1.4,0.4s0.3-0.1,0.2-0.4c-0.1-0.3-1.3-1.8-3.5-2.3
									L8,17.1z"/>
							</g>
						</g>
						<g>
							<g>
								<path fill="#F7B64C" d="M8.6,17.3c0,0,0,0,0.1,0.1c0,0,0.1,0,0.1,0.1c0.1,0,0.1,0.1,0.2,0.1c0.1,0,0.1,0.1,0.2,0.1
									c0.1,0,0.2,0.1,0.2,0.1c0.2,0.1,0.3,0.2,0.5,0.3c0.1,0.1,0.2,0.1,0.3,0.2c0.1,0.1,0.2,0.1,0.2,0.2c0.2,0.1,0.3,0.2,0.4,0.3
									c0.1,0.1,0.2,0.2,0.3,0.2c0.1,0.1,0.1,0.1,0.1,0.1s-0.1-0.2-0.4-0.4c-0.1-0.1-0.2-0.2-0.4-0.3c-0.2-0.1-0.3-0.2-0.5-0.4
									c-0.1-0.1-0.2-0.1-0.3-0.2c-0.1-0.1-0.2-0.1-0.3-0.2c-0.2-0.1-0.3-0.2-0.5-0.2c-0.1-0.1-0.3-0.1-0.3-0.1
									C8.7,17.3,8.6,17.3,8.6,17.3z"/>
								<path fill="#F7B64C" d="M11.1,19.4c0,0,0,0-0.1-0.1c-0.1,0-0.2-0.1-0.3-0.2c-0.1-0.1-0.3-0.2-0.5-0.3
									c-0.1-0.1-0.2-0.1-0.3-0.2c-0.1-0.1-0.2-0.1-0.2-0.2c-0.2-0.1-0.3-0.3-0.5-0.4C9.1,18.1,9,18,8.9,17.8
									c-0.2-0.2-0.4-0.4-0.4-0.4s0,0,0.1,0.1c0.1,0.1,0.1,0.2,0.2,0.3s0.2,0.2,0.4,0.4c0.1,0.1,0.3,0.3,0.5,0.4
									c0.1,0.1,0.2,0.1,0.3,0.2c0.1,0.1,0.2,0.1,0.3,0.2c0.2,0.1,0.3,0.2,0.5,0.2C10.9,19.4,11.1,19.4,11.1,19.4z"/>
							</g>
							<g>
								<path fill="#F7B64C" d="M9.1,17.7C9.1,17.7,9.1,17.7,9.1,17.7c0.1,0.1,0.2,0.2,0.3,0.2c0.2,0.1,0.4,0.3,0.7,0.5
									c0.2,0.2,0.5,0.3,0.7,0.5C10.9,18.9,11,19,11,19s-0.1-0.1-0.3-0.2c-0.1-0.1-0.2-0.2-0.3-0.2c-0.1-0.1-0.2-0.2-0.4-0.3
									C10,18.2,9.8,18.1,9.7,18c-0.1-0.1-0.2-0.1-0.3-0.2C9.2,17.7,9.1,17.7,9.1,17.7z"/>
								<path fill="#F7B64C" d="M10.9,19.1c0,0-0.1-0.1-0.3-0.2c-0.1-0.1-0.2-0.1-0.3-0.2c-0.1,0-0.1-0.1-0.2-0.1
									c-0.1,0-0.1-0.1-0.2-0.1c-0.1-0.1-0.2-0.2-0.4-0.3c-0.1-0.1-0.2-0.2-0.3-0.2C9.1,17.9,9,17.8,9,17.8s0.1,0.1,0.3,0.2
									c0.1,0.1,0.2,0.2,0.3,0.2c0.1,0.1,0.2,0.2,0.3,0.3c0.1,0,0.1,0.1,0.2,0.1c0.1,0,0.1,0.1,0.2,0.1c0.1,0.1,0.2,0.1,0.3,0.2
									C10.8,19.1,10.9,19.1,10.9,19.1z"/>
							</g>
						</g>
					</g>
					<g>
						<g>
							<g>
								<path fill="#FFD15C" d="M7.6,17.3c0,0-0.4,2-0.1,3c0.3,1.1,0.7,1.2,0.7,1.2s0.2,0.1,0.4-0.2c0.2-0.3,0.3-2.2-0.9-4.1
									L7.6,17.3z"/>
							</g>
						</g>
						<g>
							<g>
								<path fill="#F7B64C" d="M7.9,17.9c0,0,0,0,0,0.1c0,0,0,0.1,0.1,0.2c0,0.1,0,0.1,0.1,0.2c0,0.1,0,0.2,0.1,0.2
									c0,0.1,0,0.2,0.1,0.3c0,0.2,0.1,0.4,0.1,0.6c0,0.1,0,0.2,0.1,0.3c0,0.1,0,0.2,0,0.3c0,0.2,0.1,0.4,0.1,0.5
									c0,0.2,0,0.3,0,0.4c0,0.1,0,0.1,0,0.1s0-0.2,0-0.5c0-0.2,0-0.3,0-0.5c0-0.2-0.1-0.4-0.1-0.6c0-0.1,0-0.2-0.1-0.3
									c0-0.1-0.1-0.2-0.1-0.3c-0.1-0.2-0.1-0.4-0.2-0.5C8,18.2,8,18.1,7.9,18C7.9,17.9,7.9,17.9,7.9,17.9z"/>
								<path fill="#F7B64C" d="M8.1,21.2c0,0,0,0,0-0.1c0-0.1-0.1-0.2-0.1-0.4c0-0.1-0.1-0.3-0.1-0.5c0-0.1,0-0.2-0.1-0.3
									c0-0.1,0-0.2,0-0.3c0-0.2,0-0.4-0.1-0.6c0-0.2,0-0.4,0-0.5c0-0.3,0-0.5,0-0.5s0,0.1,0,0.1c0,0.1,0,0.2,0,0.4
									c0,0.2,0,0.3,0,0.5c0,0.2,0,0.4,0,0.6c0,0.1,0,0.2,0,0.3c0,0.1,0,0.2,0.1,0.3c0.1,0.2,0.1,0.4,0.2,0.5
									C8,21,8.1,21.2,8.1,21.2z"/>
							</g>
							<g>
								<path fill="#F7B64C" d="M7.9,18.5c0,0,0,0,0,0.1c0,0.1,0,0.2,0,0.3c0,0.2,0.1,0.5,0.1,0.8c0.1,0.3,0.1,0.6,0.1,0.8
									c0,0.2,0.1,0.4,0.1,0.4s0-0.1,0-0.4c0-0.1,0-0.2,0-0.4c0-0.1,0-0.3-0.1-0.4c0-0.1-0.1-0.3-0.1-0.4C8.1,19,8,18.9,8,18.8
									C7.9,18.6,7.9,18.5,7.9,18.5z"/>
								<path fill="#F7B64C" d="M8.2,20.8c0,0,0-0.1-0.1-0.4c0-0.1,0-0.2-0.1-0.4C8,20,8,20,8,19.9c0-0.1,0-0.1,0-0.2
									c0-0.1,0-0.3-0.1-0.4c0-0.1,0-0.3-0.1-0.4c0-0.2-0.1-0.4-0.1-0.4s0,0.1,0,0.4c0,0.1,0,0.2,0,0.4c0,0.1,0,0.3,0.1,0.4
									c0,0.1,0,0.1,0,0.2c0,0.1,0,0.1,0.1,0.2c0,0.1,0.1,0.3,0.1,0.4C8.1,20.7,8.2,20.8,8.2,20.8z"/>
							</g>
						</g>
					</g>
					<g>
						<g>
							<g>
								<path fill="#FFD15C" d="M7.1,17.1c0,0-1.7,1.1-2.2,2.1c-0.5,1-0.4,1.4-0.4,1.4s0.1,0.3,0.4,0.2c0.3-0.1,1.8-1.3,2.3-3.5
									L7.1,17.1z"/>
							</g>
						</g>
						<g>
							<g>
								<path fill="#F7B64C" d="M6.9,17.7c0,0,0,0-0.1,0.1c0,0,0,0.1-0.1,0.1c0,0.1-0.1,0.1-0.1,0.2c0,0.1-0.1,0.1-0.1,0.2
									c0,0.1-0.1,0.2-0.1,0.2c-0.1,0.2-0.2,0.3-0.3,0.5C6,19.2,6,19.3,5.9,19.4c-0.1,0.1-0.1,0.2-0.2,0.2
									c-0.1,0.2-0.2,0.3-0.3,0.4c-0.1,0.1-0.2,0.2-0.2,0.3c-0.1,0.1-0.1,0.1-0.1,0.1s0.2-0.1,0.4-0.4c0.1-0.1,0.2-0.2,0.3-0.4
									c0.1-0.2,0.2-0.3,0.4-0.5c0.1-0.1,0.1-0.2,0.2-0.3c0.1-0.1,0.1-0.2,0.2-0.3c0.1-0.2,0.2-0.3,0.2-0.5
									c0.1-0.1,0.1-0.3,0.1-0.3C6.9,17.8,6.9,17.7,6.9,17.7z"/>
								<path fill="#F7B64C" d="M4.7,20.2c0,0,0,0,0.1-0.1c0-0.1,0.1-0.2,0.2-0.3c0.1-0.1,0.2-0.3,0.3-0.5c0.1-0.1,0.1-0.2,0.2-0.3
									c0.1-0.1,0.1-0.2,0.2-0.2c0.1-0.2,0.3-0.3,0.4-0.5c0.1-0.1,0.3-0.3,0.4-0.4c0.2-0.2,0.4-0.4,0.4-0.4s0,0-0.1,0.1
									c-0.1,0.1-0.2,0.1-0.3,0.2C6.2,18,6,18.2,5.9,18.3c-0.1,0.1-0.3,0.3-0.4,0.5c-0.1,0.1-0.1,0.2-0.2,0.3
									c-0.1,0.1-0.1,0.2-0.2,0.3c-0.1,0.2-0.2,0.3-0.2,0.5C4.8,20,4.7,20.2,4.7,20.2z"/>
							</g>
							<g>
								<path fill="#F7B64C" d="M6.5,18.2C6.5,18.2,6.5,18.2,6.5,18.2c-0.1,0.1-0.2,0.2-0.2,0.3c-0.1,0.2-0.3,0.4-0.5,0.7
									c-0.2,0.2-0.3,0.5-0.5,0.7c-0.1,0.2-0.2,0.3-0.2,0.3s0.1-0.1,0.2-0.3c0.1-0.1,0.2-0.2,0.2-0.3c0.1-0.1,0.2-0.2,0.3-0.4
									C6,19.1,6,19,6.1,18.8c0.1-0.1,0.1-0.2,0.2-0.3C6.4,18.3,6.5,18.2,6.5,18.2z"/>
								<path fill="#F7B64C" d="M5,20.1c0,0,0.1-0.1,0.2-0.3c0.1-0.1,0.1-0.2,0.2-0.3c0-0.1,0.1-0.1,0.1-0.2c0-0.1,0.1-0.1,0.1-0.2
									c0.1-0.1,0.2-0.2,0.3-0.4c0.1-0.1,0.2-0.2,0.2-0.3c0.1-0.2,0.2-0.3,0.2-0.3s-0.1,0.1-0.2,0.3C6,18.5,6,18.6,5.9,18.7
									c-0.1,0.1-0.2,0.2-0.3,0.3c0,0.1-0.1,0.1-0.1,0.2c0,0.1-0.1,0.1-0.1,0.2c-0.1,0.1-0.1,0.2-0.2,0.3C5.1,19.9,5,20.1,5,20.1z"
									/>
							</g>
						</g>
					</g>
					<g>
						<g>
							<g>
								<path fill="#FFD15C" d="M6.9,16.7c0,0-2-0.4-3-0.1c-1.1,0.3-1.2,0.7-1.2,0.7s-0.1,0.2,0.2,0.4c0.3,0.2,2.2,0.3,4.1-0.9
									L6.9,16.7z"/>
							</g>
						</g>
						<g>
							<g>
								<path fill="#F7B64C" d="M6.3,17c0,0,0,0-0.1,0c0,0-0.1,0-0.2,0.1c-0.1,0-0.1,0-0.2,0.1c-0.1,0-0.2,0-0.2,0.1
									c-0.1,0-0.2,0-0.3,0.1c-0.2,0-0.4,0.1-0.6,0.1c-0.1,0-0.2,0-0.3,0.1c-0.1,0-0.2,0-0.3,0c-0.2,0-0.4,0.1-0.5,0.1
									c-0.2,0-0.3,0-0.4,0c-0.1,0-0.1,0-0.1,0s0.2,0,0.5,0c0.2,0,0.3,0,0.5,0c0.2,0,0.4-0.1,0.6-0.1c0.1,0,0.2,0,0.3-0.1
									c0.1,0,0.2-0.1,0.3-0.1c0.2-0.1,0.4-0.1,0.5-0.2C6,17.1,6.1,17.1,6.2,17C6.3,17,6.3,17,6.3,17z"/>
								<path fill="#F7B64C" d="M3,17.2c0,0,0,0,0.1,0c0.1,0,0.2-0.1,0.4-0.1C3.6,17,3.8,17,4,16.9c0.1,0,0.2,0,0.3-0.1
									c0.1,0,0.2,0,0.3,0c0.2,0,0.4,0,0.6-0.1c0.2,0,0.4,0,0.5,0c0.3,0,0.5,0,0.5,0s-0.1,0-0.1,0c-0.1,0-0.2,0-0.4,0
									c-0.2,0-0.3,0-0.5,0c-0.2,0-0.4,0-0.6,0c-0.1,0-0.2,0-0.3,0c-0.1,0-0.2,0-0.3,0.1c-0.2,0.1-0.4,0.1-0.5,0.2
									C3.2,17.1,3,17.2,3,17.2z"/>
							</g>
							<g>
								<path fill="#F7B64C" d="M5.7,17c0,0,0,0-0.1,0c-0.1,0-0.2,0-0.3,0c-0.2,0-0.5,0.1-0.8,0.1c-0.3,0.1-0.6,0.1-0.8,0.1
									c-0.2,0-0.4,0.1-0.4,0.1s0.1,0,0.4,0c0.1,0,0.2,0,0.4,0c0.1,0,0.3,0,0.4-0.1c0.1,0,0.3-0.1,0.4-0.1c0.1,0,0.3-0.1,0.4-0.1
									C5.6,17.1,5.7,17,5.7,17z"/>
								<path fill="#F7B64C" d="M3.3,17.3c0,0,0.1,0,0.4-0.1c0.1,0,0.2,0,0.4-0.1c0.1,0,0.1,0,0.2,0c0.1,0,0.1,0,0.2,0
									c0.1,0,0.3,0,0.4-0.1c0.1,0,0.3,0,0.4-0.1c0.2,0,0.4-0.1,0.4-0.1s-0.1,0-0.4,0c-0.1,0-0.2,0-0.4,0c-0.1,0-0.3,0-0.4,0.1
									c-0.1,0-0.1,0-0.2,0c-0.1,0-0.1,0-0.2,0.1c-0.1,0-0.3,0.1-0.4,0.1C3.5,17.2,3.3,17.3,3.3,17.3z"/>
							</g>
						</g>
					</g>
					<g>
						<g>
							<g>
								<path fill="#FFD15C" d="M7.1,16.2c0,0-1.1-1.7-2.1-2.2c-1-0.5-1.4-0.4-1.4-0.4s-0.3,0.1-0.2,0.4c0.1,0.3,1.3,1.8,3.5,2.3
									L7.1,16.2z"/>
							</g>
						</g>
						<g>
							<g>
								<path fill="#F7B64C" d="M6.4,16c0,0,0,0-0.1-0.1c0,0-0.1,0-0.1-0.1c-0.1,0-0.1-0.1-0.2-0.1c-0.1,0-0.1-0.1-0.2-0.1
									c-0.1,0-0.2-0.1-0.2-0.1c-0.2-0.1-0.3-0.2-0.5-0.3c-0.1-0.1-0.2-0.1-0.3-0.2c-0.1-0.1-0.2-0.1-0.2-0.2
									c-0.2-0.1-0.3-0.2-0.4-0.3c-0.1-0.1-0.2-0.2-0.3-0.2c-0.1-0.1-0.1-0.1-0.1-0.1s0.1,0.2,0.4,0.4c0.1,0.1,0.2,0.2,0.4,0.3
									C4.6,15,4.8,15.2,5,15.3c0.1,0.1,0.2,0.1,0.3,0.2c0.1,0.1,0.2,0.1,0.3,0.2c0.2,0.1,0.3,0.2,0.5,0.2c0.1,0.1,0.3,0.1,0.3,0.1
									C6.4,16,6.4,16,6.4,16z"/>
								<path fill="#F7B64C" d="M3.9,13.8c0,0,0,0,0.1,0.1c0.1,0,0.2,0.1,0.3,0.2c0.1,0.1,0.3,0.2,0.5,0.3c0.1,0.1,0.2,0.1,0.3,0.2
									c0.1,0.1,0.2,0.1,0.2,0.2c0.2,0.1,0.3,0.3,0.5,0.4c0.1,0.1,0.3,0.3,0.4,0.4c0.2,0.2,0.4,0.4,0.4,0.4s0,0-0.1-0.1
									c-0.1-0.1-0.1-0.2-0.2-0.3C6.1,15.3,6,15.1,5.8,15c-0.1-0.1-0.3-0.3-0.5-0.4c-0.1-0.1-0.2-0.1-0.3-0.2
									c-0.1-0.1-0.2-0.1-0.3-0.2c-0.2-0.1-0.3-0.2-0.5-0.2C4.1,13.9,3.9,13.8,3.9,13.8z"/>
							</g>
							<g>
								<path fill="#F7B64C" d="M6,15.6C6,15.6,5.9,15.6,6,15.6c-0.1-0.1-0.2-0.2-0.3-0.2c-0.2-0.1-0.4-0.3-0.7-0.5
									c-0.2-0.2-0.5-0.3-0.7-0.5C4.1,14.3,4,14.2,4,14.2s0.1,0.1,0.3,0.2c0.1,0.1,0.2,0.2,0.3,0.2C4.7,14.8,4.8,14.9,5,15
									c0.1,0.1,0.2,0.2,0.4,0.2c0.1,0.1,0.2,0.1,0.3,0.2C5.8,15.5,6,15.6,6,15.6z"/>
								<path fill="#F7B64C" d="M4.1,14.1c0,0,0.1,0.1,0.3,0.2c0.1,0.1,0.2,0.1,0.3,0.2c0.1,0,0.1,0.1,0.2,0.1
									c0.1,0,0.1,0.1,0.2,0.1C5.2,14.9,5.3,15,5.4,15c0.1,0.1,0.2,0.2,0.3,0.2C5.9,15.4,6,15.5,6,15.5s-0.1-0.1-0.3-0.2
									c-0.1-0.1-0.2-0.2-0.3-0.2c-0.1-0.1-0.2-0.2-0.3-0.3c-0.1,0-0.1-0.1-0.2-0.1c-0.1,0-0.1-0.1-0.2-0.1
									c-0.1-0.1-0.2-0.1-0.3-0.2C4.2,14.2,4.1,14.1,4.1,14.1z"/>
							</g>
						</g>
					</g>
				</g>
				<g>
					<g>
						<g>
							<g>
								<g>
									<path fill="#F7B64C" d="M7.7,16c0,0,1.1-1.8,1-2.8c0-1.1-0.3-1.4-0.3-1.4s-0.2-0.2-0.4,0c-0.2,0.2-1,2-0.5,4.1L7.7,16z"/>
								</g>
							</g>
						</g>
						<g>
							<g>
								<g>
									<path fill="#F7B64C" d="M8.1,16.3c0,0,2-0.5,2.7-1.2c0.8-0.8,0.8-1.2,0.8-1.2s0-0.3-0.3-0.3c-0.3,0-2.1,0.7-3.3,2.6
										L8.1,16.3z"/>
								</g>
							</g>
						</g>
						<g>
							<g>
								<g>
									<path fill="#F7B64C" d="M8.1,16.8c0,0,1.8,1.1,2.8,1c1.1,0,1.4-0.3,1.4-0.3s0.2-0.2,0-0.4c-0.2-0.2-2-1-4.1-0.5L8.1,16.8z"
										/>
								</g>
							</g>
						</g>
						<g>
							<g>
								<g>
									<path fill="#F7B64C" d="M7.8,17.2c0,0,0.5,2,1.2,2.7c0.8,0.8,1.2,0.8,1.2,0.8s0.3,0,0.3-0.3c0-0.3-0.7-2.1-2.6-3.3
										L7.8,17.2z"/>
								</g>
							</g>
						</g>
						<g>
							<g>
								<g>
									<path fill="#F7B64C" d="M7.3,17.2c0,0-1.1,1.8-1,2.8c0,1.1,0.3,1.4,0.3,1.4s0.2,0.2,0.4,0c0.2-0.2,1-2,0.5-4.1L7.3,17.2z"
										/>
								</g>
							</g>
						</g>
						<g>
							<g>
								<g>
									<path fill="#F7B64C" d="M7,16.9c0,0-2,0.5-2.7,1.2c-0.8,0.8-0.8,1.2-0.8,1.2s0,0.3,0.3,0.3c0.3,0,2.1-0.7,3.3-2.6L7,16.9z"
										/>
								</g>
							</g>
						</g>
						<g>
							<g>
								<g>
									<path fill="#F7B64C" d="M6.9,16.5c0,0-1.8-1.1-2.8-1c-1.1,0-1.4,0.3-1.4,0.3s-0.2,0.2,0,0.4c0.2,0.2,2,1,4.1,0.5L6.9,16.5z
										"/>
								</g>
							</g>
						</g>
						<g>
							<g>
								<g>
									<path fill="#F7B64C" d="M7.2,16.1c0,0-0.5-2-1.2-2.7c-0.8-0.8-1.2-0.8-1.2-0.8s-0.3,0-0.3,0.3c0,0.3,0.7,2.1,2.6,3.3
										L7.2,16.1z"/>
								</g>
							</g>
						</g>
					</g>
					<g>
						<g>
							<g>
								<g>
									<path fill="#FFD15C" d="M7.6,15.4c0,0,0-0.1,0-0.1c0,0,0-0.1,0-0.2c0-0.1,0-0.1,0-0.2c0-0.1,0-0.2,0-0.2c0-0.1,0-0.2,0-0.3
										c0-0.2,0-0.4,0.1-0.6c0-0.1,0-0.2,0-0.3c0-0.1,0-0.2,0.1-0.3c0-0.2,0.1-0.4,0.1-0.5C8,12.5,8,12.4,8,12.3
										c0-0.1,0-0.1,0-0.1S8,12.3,7.9,12.6c0,0.1-0.1,0.3-0.1,0.5c0,0.2-0.1,0.4-0.1,0.6c0,0.1,0,0.2,0,0.3c0,0.1,0,0.2,0,0.3
										c0,0.2,0,0.4,0,0.5c0,0.2,0,0.3,0,0.4C7.6,15.3,7.6,15.4,7.6,15.4z"/>
								</g>
								<path fill="#FFD15C" d="M8.5,12.2c0,0,0,0.1,0,0.1c0,0.1,0,0.2,0,0.4c0,0.2,0,0.3,0,0.5c0,0.1,0,0.2,0,0.3
									c0,0.1,0,0.2-0.1,0.3c0,0.2-0.1,0.4-0.1,0.6c-0.1,0.2-0.1,0.4-0.2,0.5c-0.1,0.3-0.2,0.5-0.2,0.5s0,0,0.1-0.1
									c0-0.1,0.1-0.2,0.1-0.3c0.1-0.1,0.1-0.3,0.2-0.5c0.1-0.2,0.1-0.4,0.2-0.6c0-0.1,0-0.2,0.1-0.3c0-0.1,0-0.2,0-0.3
									c0-0.2,0-0.4,0-0.5C8.5,12.4,8.5,12.2,8.5,12.2z"/>
							</g>
							<g>
								<path fill="#FFD15C" d="M7.8,14.8c0,0,0,0,0-0.1c0-0.1,0-0.2,0-0.3c0-0.2,0.1-0.5,0.1-0.8C8,13.3,8,13,8.1,12.8
									c0-0.2,0.1-0.4,0.1-0.4s0,0.1-0.1,0.4C8,12.9,8,13,7.9,13.2c0,0.1-0.1,0.3-0.1,0.4c0,0.1,0,0.3-0.1,0.4c0,0.1,0,0.3,0,0.4
									C7.8,14.6,7.8,14.8,7.8,14.8z"/>
								<path fill="#FFD15C" d="M8.3,12.5c0,0,0,0.1-0.1,0.4c0,0.1,0,0.2,0,0.4c0,0.1,0,0.1,0,0.2c0,0.1,0,0.1,0,0.2
									c0,0.1-0.1,0.3-0.1,0.4c0,0.1,0,0.3-0.1,0.4c0,0.2-0.1,0.4-0.1,0.4s0-0.1,0.1-0.4c0-0.1,0.1-0.2,0.1-0.4
									c0-0.1,0.1-0.3,0.1-0.4c0-0.1,0-0.1,0-0.2c0-0.1,0-0.1,0-0.2c0-0.1,0-0.3,0-0.4C8.3,12.6,8.3,12.5,8.3,12.5z"/>
							</g>
						</g>
						<g>
							<g>
								<path fill="#FFD15C" d="M8.5,15.8c0,0,0,0,0.1-0.1c0,0,0.1-0.1,0.1-0.1c0,0,0.1-0.1,0.2-0.1C8.9,15.4,9,15.3,9,15.3
									c0.1-0.1,0.1-0.1,0.2-0.2c0.1-0.1,0.3-0.3,0.5-0.4c0.1-0.1,0.2-0.1,0.2-0.2c0.1-0.1,0.2-0.1,0.2-0.2
									c0.2-0.1,0.3-0.2,0.4-0.3c0.1-0.1,0.2-0.1,0.3-0.2c0.1,0,0.1-0.1,0.1-0.1s-0.2,0.1-0.5,0.2c-0.1,0.1-0.3,0.2-0.5,0.3
									c-0.2,0.1-0.3,0.2-0.5,0.3c-0.1,0.1-0.2,0.1-0.2,0.2C9.3,14.9,9.3,15,9.2,15c-0.1,0.1-0.3,0.3-0.4,0.4
									c-0.1,0.1-0.2,0.2-0.2,0.3C8.5,15.8,8.5,15.8,8.5,15.8z"/>
								<path fill="#FFD15C" d="M11.3,14.1c0,0,0,0-0.1,0.1c-0.1,0.1-0.2,0.2-0.3,0.3c-0.1,0.1-0.3,0.2-0.4,0.3
									c-0.1,0.1-0.2,0.1-0.2,0.2c-0.1,0.1-0.2,0.1-0.3,0.2c-0.2,0.1-0.3,0.2-0.5,0.3c-0.2,0.1-0.3,0.2-0.5,0.3
									C8.8,15.9,8.6,16,8.6,16s0,0,0.1,0c0.1,0,0.2-0.1,0.3-0.1c0.1-0.1,0.3-0.1,0.5-0.2c0.2-0.1,0.4-0.2,0.5-0.3
									c0.1-0.1,0.2-0.1,0.3-0.2c0.1-0.1,0.2-0.1,0.2-0.2c0.1-0.1,0.3-0.3,0.4-0.4C11.2,14.3,11.3,14.1,11.3,14.1z"/>
							</g>
							<g>
								<path fill="#FFD15C" d="M9,15.5C9,15.5,9,15.5,9,15.5c0.1-0.1,0.2-0.2,0.3-0.2c0.2-0.1,0.4-0.3,0.7-0.5
									c0.2-0.2,0.5-0.3,0.7-0.5c0.2-0.1,0.3-0.2,0.3-0.2s-0.1,0.1-0.3,0.2c-0.1,0.1-0.2,0.1-0.3,0.2c-0.1,0.1-0.2,0.2-0.4,0.3
									c-0.1,0.1-0.2,0.2-0.3,0.3c-0.1,0.1-0.2,0.2-0.3,0.2C9.1,15.4,9,15.5,9,15.5z"/>
								<path fill="#FFD15C" d="M11,14.2c0,0-0.1,0.1-0.3,0.2c-0.1,0.1-0.2,0.1-0.3,0.2c-0.1,0-0.1,0.1-0.2,0.1
									c-0.1,0-0.1,0.1-0.2,0.1c-0.1,0.1-0.2,0.2-0.4,0.3c-0.1,0.1-0.2,0.2-0.3,0.2c-0.2,0.1-0.3,0.2-0.3,0.2s0.1-0.1,0.3-0.2
									c0.1-0.1,0.2-0.1,0.3-0.2c0.1-0.1,0.2-0.2,0.4-0.2c0.1,0,0.1-0.1,0.2-0.1c0.1,0,0.1-0.1,0.2-0.1c0.1-0.1,0.2-0.2,0.3-0.3
									C10.9,14.3,11,14.2,11,14.2z"/>
							</g>
						</g>
						<g>
							<g>
								<path fill="#FFD15C" d="M8.8,16.7c0,0,0.1,0,0.1,0c0,0,0.1,0,0.2,0c0.1,0,0.1,0,0.2,0c0.1,0,0.2,0,0.2,0c0.1,0,0.2,0,0.3,0
									c0.2,0,0.4,0,0.6,0.1c0.1,0,0.2,0,0.3,0c0.1,0,0.2,0,0.3,0.1c0.2,0,0.4,0.1,0.5,0.1c0.1,0,0.3,0.1,0.4,0.1
									c0.1,0,0.1,0,0.1,0s-0.2-0.1-0.5-0.2c-0.1,0-0.3-0.1-0.5-0.1c-0.2,0-0.4-0.1-0.6-0.1c-0.1,0-0.2,0-0.3,0c-0.1,0-0.2,0-0.3,0
									c-0.2,0-0.4,0-0.5,0c-0.2,0-0.3,0-0.4,0C8.8,16.7,8.8,16.7,8.8,16.7z"/>
								<path fill="#FFD15C" d="M12,17.6c0,0-0.1,0-0.1,0c-0.1,0-0.2,0-0.4,0c-0.2,0-0.3,0-0.5,0c-0.1,0-0.2,0-0.3,0
									c-0.1,0-0.2,0-0.3-0.1c-0.2,0-0.4-0.1-0.6-0.1c-0.2-0.1-0.4-0.1-0.5-0.2C9,17,8.8,17,8.8,17s0,0,0.1,0.1
									c0.1,0,0.2,0.1,0.3,0.1c0.1,0.1,0.3,0.1,0.5,0.2c0.2,0.1,0.4,0.1,0.6,0.2c0.1,0,0.2,0,0.3,0.1c0.1,0,0.2,0,0.3,0
									c0.2,0,0.4,0,0.5,0C11.8,17.6,12,17.6,12,17.6z"/>
							</g>
							<g>
								<path fill="#FFD15C" d="M9.4,16.9c0,0,0,0,0.1,0c0.1,0,0.2,0,0.3,0c0.2,0,0.5,0.1,0.8,0.1c0.3,0,0.6,0.1,0.8,0.1
									c0.2,0,0.4,0.1,0.4,0.1s-0.1,0-0.4-0.1c-0.1,0-0.2-0.1-0.4-0.1c-0.1,0-0.3-0.1-0.4-0.1c-0.1,0-0.3,0-0.4-0.1
									c-0.1,0-0.3,0-0.4,0C9.5,16.9,9.4,16.9,9.4,16.9z"/>
								<path fill="#FFD15C" d="M11.7,17.4c0,0-0.1,0-0.4-0.1c-0.1,0-0.2,0-0.4,0c-0.1,0-0.1,0-0.2,0c-0.1,0-0.1,0-0.2,0
									c-0.1,0-0.3-0.1-0.4-0.1c-0.1,0-0.3,0-0.4-0.1C9.5,17,9.4,17,9.4,17s0.1,0,0.4,0.1c0.1,0,0.2,0.1,0.4,0.1
									c0.1,0,0.3,0.1,0.4,0.1c0.1,0,0.1,0,0.2,0c0.1,0,0.1,0,0.2,0c0.1,0,0.3,0,0.4,0C11.6,17.4,11.7,17.4,11.7,17.4z"/>
							</g>
						</g>
						<g>
							<g>
								<path fill="#FFD15C" d="M8.4,17.6c0,0,0,0,0.1,0.1c0,0,0.1,0.1,0.1,0.1c0,0,0.1,0.1,0.1,0.2c0.1,0.1,0.1,0.1,0.2,0.2
									c0.1,0.1,0.1,0.1,0.2,0.2c0.1,0.1,0.3,0.3,0.4,0.5c0.1,0.1,0.1,0.2,0.2,0.2c0.1,0.1,0.1,0.2,0.2,0.2
									c0.1,0.2,0.2,0.3,0.3,0.4c0.1,0.1,0.1,0.2,0.2,0.3c0,0.1,0.1,0.1,0.1,0.1s-0.1-0.2-0.2-0.5c-0.1-0.1-0.2-0.3-0.3-0.5
									c-0.1-0.2-0.2-0.3-0.3-0.5c-0.1-0.1-0.1-0.2-0.2-0.2c-0.1-0.1-0.1-0.2-0.2-0.2C9,18.2,8.9,18,8.8,17.9
									c-0.1-0.1-0.2-0.2-0.3-0.2C8.4,17.6,8.4,17.6,8.4,17.6z"/>
								<path fill="#FFD15C" d="M10,20.5c0,0,0,0-0.1-0.1c-0.1-0.1-0.2-0.2-0.3-0.3c-0.1-0.1-0.2-0.3-0.3-0.4
									c-0.1-0.1-0.1-0.2-0.2-0.2C9.1,19.4,9,19.3,9,19.2c-0.1-0.2-0.2-0.3-0.3-0.5c-0.1-0.2-0.2-0.3-0.3-0.5
									c-0.1-0.3-0.2-0.5-0.2-0.5s0,0,0,0.1c0,0.1,0.1,0.2,0.1,0.3c0.1,0.1,0.1,0.3,0.2,0.5c0.1,0.2,0.2,0.4,0.3,0.5
									c0.1,0.1,0.1,0.2,0.2,0.3c0.1,0.1,0.1,0.2,0.2,0.2c0.1,0.1,0.3,0.3,0.4,0.4C9.8,20.3,10,20.5,10,20.5z"/>
							</g>
							<g>
								<path fill="#FFD15C" d="M8.7,18.1C8.7,18.1,8.7,18.1,8.7,18.1c0.1,0.1,0.2,0.2,0.2,0.3c0.1,0.2,0.3,0.4,0.5,0.7
									c0.2,0.2,0.3,0.5,0.5,0.7c0.1,0.2,0.2,0.3,0.2,0.3s-0.1-0.1-0.2-0.3c-0.1-0.1-0.1-0.2-0.2-0.3c-0.1-0.1-0.2-0.2-0.3-0.4
									c-0.1-0.1-0.2-0.2-0.3-0.3c-0.1-0.1-0.2-0.2-0.2-0.3C8.8,18.2,8.7,18.1,8.7,18.1z"/>
								<path fill="#FFD15C" d="M9.9,20.1c0,0-0.1-0.1-0.2-0.3c-0.1-0.1-0.1-0.2-0.2-0.3c0-0.1-0.1-0.1-0.1-0.2
									c0-0.1-0.1-0.1-0.1-0.2c-0.1-0.1-0.2-0.2-0.3-0.4c-0.1-0.1-0.2-0.2-0.2-0.3c-0.1-0.2-0.2-0.3-0.2-0.3s0.1,0.1,0.2,0.3
									c0.1,0.1,0.1,0.2,0.2,0.3C9,19,9.1,19.1,9.2,19.2c0,0.1,0.1,0.1,0.1,0.2c0,0.1,0.1,0.1,0.1,0.2c0.1,0.1,0.2,0.2,0.3,0.3
									C9.8,20,9.9,20.1,9.9,20.1z"/>
							</g>
						</g>
						<g>
							<g>
								<path fill="#FFD15C" d="M7.4,17.9c0,0,0,0.1,0,0.1c0,0,0,0.1,0,0.2c0,0.1,0,0.1,0,0.2c0,0.1,0,0.2,0,0.2c0,0.1,0,0.2,0,0.3
									c0,0.2,0,0.4-0.1,0.6c0,0.1,0,0.2,0,0.3c0,0.1,0,0.2-0.1,0.3c0,0.2-0.1,0.4-0.1,0.5c0,0.1-0.1,0.3-0.1,0.4
									c0,0.1,0,0.1,0,0.1s0.1-0.2,0.2-0.5c0-0.1,0.1-0.3,0.1-0.5c0-0.2,0.1-0.4,0.1-0.6c0-0.1,0-0.2,0-0.3c0-0.1,0-0.2,0-0.3
									c0-0.2,0-0.4,0-0.5c0-0.2,0-0.3,0-0.4C7.4,18,7.4,17.9,7.4,17.9z"/>
								<path fill="#FFD15C" d="M6.6,21.1c0,0,0-0.1,0-0.1c0-0.1,0-0.2,0-0.4c0-0.2,0-0.3,0-0.5c0-0.1,0-0.2,0-0.3
									c0-0.1,0-0.2,0.1-0.3c0-0.2,0.1-0.4,0.1-0.6C6.9,18.7,7,18.5,7,18.4c0.1-0.3,0.2-0.5,0.2-0.5s0,0-0.1,0.1
									c0,0.1-0.1,0.2-0.1,0.3c-0.1,0.1-0.1,0.3-0.2,0.5c-0.1,0.2-0.1,0.4-0.2,0.6c0,0.1,0,0.2-0.1,0.3c0,0.1,0,0.2,0,0.3
									c0,0.2,0,0.4,0,0.5C6.5,20.9,6.6,21.1,6.6,21.1z"/>
							</g>
							<g>
								<path fill="#FFD15C" d="M7.3,18.5c0,0,0,0,0,0.1c0,0.1,0,0.2,0,0.3c0,0.2-0.1,0.5-0.1,0.8c0,0.3-0.1,0.6-0.1,0.8
									c0,0.2-0.1,0.4-0.1,0.4s0-0.1,0.1-0.4c0-0.1,0.1-0.2,0.1-0.4c0-0.1,0.1-0.3,0.1-0.4c0-0.1,0-0.3,0.1-0.4c0-0.1,0-0.3,0-0.4
									C7.3,18.6,7.3,18.5,7.3,18.5z"/>
								<path fill="#FFD15C" d="M6.8,20.8c0,0,0-0.1,0.1-0.4c0-0.1,0-0.2,0-0.4c0-0.1,0-0.1,0-0.2c0-0.1,0-0.1,0-0.2
									C7,19.5,7,19.3,7,19.2c0-0.1,0-0.3,0.1-0.4c0-0.2,0.1-0.4,0.1-0.4s0,0.1-0.1,0.4c0,0.1-0.1,0.2-0.1,0.4
									c0,0.1-0.1,0.3-0.1,0.4c0,0.1,0,0.1,0,0.2c0,0.1,0,0.1,0,0.2c0,0.1,0,0.3,0,0.4C6.8,20.7,6.8,20.8,6.8,20.8z"/>
							</g>
						</g>
						<g>
							<g>
								<path fill="#FFD15C" d="M6.6,17.5c0,0,0,0-0.1,0.1c0,0-0.1,0.1-0.1,0.1c0,0-0.1,0.1-0.2,0.1C6.1,17.9,6.1,17.9,6,18
									c-0.1,0.1-0.1,0.1-0.2,0.2c-0.1,0.1-0.3,0.3-0.5,0.4c-0.1,0.1-0.2,0.1-0.2,0.2c-0.1,0.1-0.2,0.1-0.2,0.2
									c-0.2,0.1-0.3,0.2-0.4,0.3c-0.1,0.1-0.2,0.1-0.3,0.2C4,19.4,4,19.4,4,19.4s0.2-0.1,0.5-0.2c0.1-0.1,0.3-0.2,0.5-0.3
									c0.2-0.1,0.3-0.2,0.5-0.3c0.1-0.1,0.2-0.1,0.2-0.2c0.1-0.1,0.2-0.1,0.2-0.2C6,18.1,6.1,18,6.2,17.9c0.1-0.1,0.2-0.2,0.2-0.3
									C6.5,17.5,6.6,17.5,6.6,17.5z"/>
								<path fill="#FFD15C" d="M3.7,19.1c0,0,0,0,0.1-0.1C3.9,19,4,18.9,4.1,18.8c0.1-0.1,0.3-0.2,0.4-0.3c0.1-0.1,0.2-0.1,0.2-0.2
									c0.1-0.1,0.2-0.1,0.3-0.2c0.2-0.1,0.3-0.2,0.5-0.3c0.2-0.1,0.3-0.2,0.5-0.3c0.3-0.1,0.5-0.2,0.5-0.2s0,0-0.1,0
									c-0.1,0-0.2,0.1-0.3,0.1c-0.1,0.1-0.3,0.1-0.5,0.2c-0.2,0.1-0.4,0.2-0.5,0.3c-0.1,0.1-0.2,0.1-0.3,0.2
									c-0.1,0.1-0.2,0.1-0.2,0.2c-0.1,0.1-0.3,0.3-0.4,0.4C3.8,19,3.7,19.1,3.7,19.1z"/>
							</g>
							<g>
								<path fill="#FFD15C" d="M6.1,17.8C6.1,17.8,6,17.8,6.1,17.8c-0.1,0.1-0.2,0.2-0.3,0.2c-0.2,0.1-0.4,0.3-0.7,0.5
									c-0.2,0.2-0.5,0.3-0.7,0.5c-0.2,0.1-0.3,0.2-0.3,0.2s0.1-0.1,0.3-0.2c0.1-0.1,0.2-0.1,0.3-0.2c0.1-0.1,0.2-0.2,0.4-0.3
									c0.1-0.1,0.2-0.2,0.3-0.3c0.1-0.1,0.2-0.2,0.3-0.2C5.9,17.9,6.1,17.8,6.1,17.8z"/>
								<path fill="#FFD15C" d="M4,19.1c0,0,0.1-0.1,0.3-0.2c0.1-0.1,0.2-0.1,0.3-0.2c0.1,0,0.1-0.1,0.2-0.1c0.1,0,0.1-0.1,0.2-0.1
									c0.1-0.1,0.2-0.2,0.4-0.3c0.1-0.1,0.2-0.2,0.3-0.2C5.8,17.7,6,17.7,6,17.7s-0.1,0.1-0.3,0.2C5.5,17.9,5.4,18,5.3,18
									c-0.1,0.1-0.2,0.2-0.4,0.2c-0.1,0-0.1,0.1-0.2,0.1c-0.1,0-0.1,0.1-0.2,0.1c-0.1,0.1-0.2,0.2-0.3,0.3C4.1,18.9,4,19.1,4,19.1
									z"/>
							</g>
						</g>
						<g>
							<g>
								<path fill="#FFD15C" d="M6.3,16.6c0,0-0.1,0-0.1,0c0,0-0.1,0-0.2,0c-0.1,0-0.1,0-0.2,0c-0.1,0-0.2,0-0.2,0
									c-0.1,0-0.2,0-0.3,0c-0.2,0-0.4,0-0.6-0.1c-0.1,0-0.2,0-0.3,0c-0.1,0-0.2,0-0.3-0.1c-0.2,0-0.4-0.1-0.5-0.1
									c-0.1,0-0.3-0.1-0.4-0.1c-0.1,0-0.1,0-0.1,0s0.2,0.1,0.5,0.2c0.1,0,0.3,0.1,0.5,0.1c0.2,0,0.4,0.1,0.6,0.1
									c0.1,0,0.2,0,0.3,0c0.1,0,0.2,0,0.3,0c0.2,0,0.4,0,0.5,0c0.2,0,0.3,0,0.4,0C6.2,16.6,6.3,16.6,6.3,16.6z"/>
								<path fill="#FFD15C" d="M3.1,15.7c0,0,0.1,0,0.1,0c0.1,0,0.2,0,0.4,0c0.2,0,0.3,0,0.5,0c0.1,0,0.2,0,0.3,0
									c0.1,0,0.2,0,0.3,0.1c0.2,0,0.4,0.1,0.6,0.1c0.2,0.1,0.4,0.1,0.5,0.2c0.3,0.1,0.5,0.2,0.5,0.2s0,0-0.1-0.1
									c-0.1,0-0.2-0.1-0.3-0.1C5.7,16,5.5,16,5.3,15.9c-0.2-0.1-0.4-0.1-0.6-0.2c-0.1,0-0.2,0-0.3-0.1c-0.1,0-0.2,0-0.3,0
									c-0.2,0-0.4,0-0.5,0C3.3,15.7,3.1,15.7,3.1,15.7z"/>
							</g>
							<g>
								<path fill="#FFD15C" d="M5.7,16.4c0,0,0,0-0.1,0c-0.1,0-0.2,0-0.3,0c-0.2,0-0.5-0.1-0.8-0.1c-0.3,0-0.6-0.1-0.8-0.1
									C3.5,16,3.3,16,3.3,16s0.1,0,0.4,0.1c0.1,0,0.2,0.1,0.4,0.1c0.1,0,0.3,0.1,0.4,0.1c0.1,0,0.3,0,0.4,0.1c0.1,0,0.3,0,0.4,0
									C5.5,16.4,5.7,16.4,5.7,16.4z"/>
								<path fill="#FFD15C" d="M3.3,15.9c0,0,0.1,0,0.4,0.1c0.1,0,0.2,0,0.4,0c0.1,0,0.1,0,0.2,0c0.1,0,0.1,0,0.2,0
									c0.1,0,0.3,0.1,0.4,0.1c0.1,0,0.3,0,0.4,0.1c0.2,0,0.4,0.1,0.4,0.1s-0.1,0-0.4-0.1c-0.1,0-0.2-0.1-0.4-0.1
									C4.8,16,4.7,16,4.5,16c-0.1,0-0.1,0-0.2,0c-0.1,0-0.1,0-0.2,0c-0.1,0-0.3,0-0.4,0C3.5,15.9,3.3,15.9,3.3,15.9z"/>
							</g>
						</g>
						<g>
							<g>
								<path fill="#FFD15C" d="M6.7,15.7c0,0,0,0-0.1-0.1c0,0-0.1-0.1-0.1-0.1c0,0-0.1-0.1-0.1-0.2c-0.1-0.1-0.1-0.1-0.2-0.2
									C6.1,15.1,6,15,6,14.9c-0.1-0.1-0.3-0.3-0.4-0.5c-0.1-0.1-0.1-0.2-0.2-0.2C5.4,14.1,5.3,14,5.3,14c-0.1-0.2-0.2-0.3-0.3-0.4
									c-0.1-0.1-0.1-0.2-0.2-0.3c0-0.1-0.1-0.1-0.1-0.1s0.1,0.2,0.2,0.5C5,13.7,5.1,13.8,5.2,14c0.1,0.2,0.2,0.3,0.3,0.5
									c0.1,0.1,0.1,0.2,0.2,0.2c0.1,0.1,0.1,0.2,0.2,0.2c0.1,0.1,0.3,0.3,0.4,0.4c0.1,0.1,0.2,0.2,0.3,0.2
									C6.6,15.6,6.7,15.7,6.7,15.7z"/>
								<path fill="#FFD15C" d="M5,12.8c0,0,0,0,0.1,0.1c0.1,0.1,0.2,0.2,0.3,0.3c0.1,0.1,0.2,0.3,0.3,0.4c0.1,0.1,0.1,0.2,0.2,0.2
									C6,13.9,6,14,6.1,14.1c0.1,0.2,0.2,0.3,0.3,0.5c0.1,0.2,0.2,0.3,0.3,0.5c0.1,0.3,0.2,0.5,0.2,0.5s0,0,0-0.1
									c0-0.1-0.1-0.2-0.1-0.3c-0.1-0.1-0.1-0.3-0.2-0.5c-0.1-0.2-0.2-0.4-0.3-0.5c-0.1-0.1-0.1-0.2-0.2-0.3
									c-0.1-0.1-0.1-0.2-0.2-0.2c-0.1-0.1-0.3-0.3-0.4-0.4C5.2,12.9,5,12.8,5,12.8z"/>
							</g>
							<g>
								<path fill="#FFD15C" d="M6.4,15.2C6.4,15.2,6.4,15.1,6.4,15.2C6.3,15,6.2,15,6.2,14.9c-0.1-0.2-0.3-0.4-0.5-0.7
									c-0.2-0.2-0.3-0.5-0.5-0.7C5.1,13.4,5,13.2,5,13.2s0.1,0.1,0.2,0.3c0.1,0.1,0.1,0.2,0.2,0.3c0.1,0.1,0.2,0.2,0.3,0.4
									c0.1,0.1,0.2,0.2,0.3,0.3c0.1,0.1,0.2,0.2,0.2,0.3C6.3,15.1,6.4,15.2,6.4,15.2z"/>
								<path fill="#FFD15C" d="M5.1,13.1c0,0,0.1,0.1,0.2,0.3c0.1,0.1,0.1,0.2,0.2,0.3c0,0.1,0.1,0.1,0.1,0.2
									c0,0.1,0.1,0.1,0.1,0.2c0.1,0.1,0.2,0.2,0.3,0.4c0.1,0.1,0.2,0.2,0.2,0.3c0.1,0.2,0.2,0.3,0.2,0.3s-0.1-0.1-0.2-0.3
									c-0.1-0.1-0.1-0.2-0.2-0.3C6,14.3,6,14.2,5.9,14.1c0-0.1-0.1-0.1-0.1-0.2c0-0.1-0.1-0.1-0.1-0.2c-0.1-0.1-0.2-0.2-0.3-0.3
									C5.2,13.3,5.1,13.1,5.1,13.1z"/>
							</g>
						</g>
					</g>
				</g>
				<g>
					<circle fill="#FFFFFF" cx="7.5" cy="16.6" r="1.2"/>
				</g>
				<g>
					<circle fill="#F05540" cx="7.5" cy="16.6" r="0.7"/>
				</g>
			</g>
		</g>
		<g>
			<g>
				<g>
					<g>
						<g>
							<g>
								<path fill="#FFD15C" d="M37,10.2c0,0-0.6-2.7-0.1-4c0.4-1.5,0.9-1.6,0.9-1.6s0.3-0.2,0.5,0.2c0.2,0.4,0.4,2.9-1.2,5.4
									L37,10.2z"/>
							</g>
						</g>
						<g>
							<g>
								<path fill="#F7B64C" d="M37.4,9.4c0,0,0-0.1,0.1-0.2c0-0.1,0-0.1,0.1-0.2c0-0.1,0.1-0.2,0.1-0.3c0-0.1,0.1-0.2,0.1-0.3
									c0-0.1,0.1-0.2,0.1-0.4c0.1-0.2,0.1-0.5,0.2-0.8C38,7.2,38,7.1,38,6.9c0-0.1,0-0.3,0.1-0.4c0-0.3,0.1-0.5,0.1-0.7
									c0-0.2,0-0.4,0-0.5c0-0.1,0-0.2,0-0.2s0,0.3,0,0.7c0,0.2,0,0.4,0,0.7c0,0.3-0.1,0.5-0.1,0.8C38,7.5,38,7.6,38,7.8
									c0,0.1-0.1,0.3-0.1,0.4c-0.1,0.2-0.2,0.5-0.2,0.7c-0.1,0.2-0.1,0.3-0.2,0.5C37.4,9.4,37.4,9.4,37.4,9.4z"/>
								<path fill="#F7B64C" d="M37.7,5c0,0,0,0.1-0.1,0.2c0,0.1-0.1,0.3-0.1,0.5c-0.1,0.2-0.1,0.4-0.2,0.7c0,0.1-0.1,0.3-0.1,0.4
									c0,0.1,0,0.3-0.1,0.4c0,0.3-0.1,0.5-0.1,0.8c0,0.3,0,0.5,0,0.7c0,0.4,0,0.7,0,0.7s0-0.1,0-0.2c0-0.1,0-0.3,0-0.5
									c0-0.2,0-0.4,0-0.7c0-0.3,0-0.5,0.1-0.8c0-0.1,0-0.3,0.1-0.4c0-0.1,0.1-0.3,0.1-0.4c0.1-0.3,0.1-0.5,0.2-0.7
									C37.5,5.3,37.7,5,37.7,5z"/>
							</g>
							<g>
								<path fill="#F7B64C" d="M37.4,8.6c0,0,0,0,0-0.1c0-0.1,0-0.2,0.1-0.4c0.1-0.3,0.1-0.7,0.2-1.1c0.1-0.4,0.1-0.8,0.2-1.1
									c0-0.3,0.1-0.5,0.1-0.5s0,0.2,0,0.5c0,0.1,0,0.3-0.1,0.5c0,0.2-0.1,0.4-0.1,0.6c0,0.2-0.1,0.4-0.1,0.6
									c0,0.2-0.1,0.4-0.1,0.5C37.5,8.5,37.4,8.6,37.4,8.6z"/>
								<path fill="#F7B64C" d="M37.8,5.5c0,0,0,0.2-0.1,0.5c0,0.1-0.1,0.3-0.1,0.5c0,0.1,0,0.2-0.1,0.3c0,0.1,0,0.2-0.1,0.3
									c0,0.2-0.1,0.4-0.1,0.6c0,0.2-0.1,0.4-0.1,0.5c0,0.3-0.1,0.5-0.1,0.5s0-0.2,0-0.5c0-0.1,0-0.3,0-0.5c0-0.2,0-0.4,0.1-0.6
									c0-0.1,0-0.2,0.1-0.3c0-0.1,0-0.2,0.1-0.3c0-0.2,0.1-0.3,0.1-0.5C37.7,5.7,37.8,5.5,37.8,5.5z"/>
							</g>
						</g>
					</g>
					<g>
						<g>
							<g>
								<path fill="#FFD15C" d="M36.4,10.5c0,0-2.3-1.5-2.9-2.7C32.8,6.4,33,5.9,33,5.9s0.1-0.4,0.5-0.2c0.4,0.1,2.4,1.8,3,4.7
									L36.4,10.5z"/>
							</g>
						</g>
						<g>
							<g>
								<path fill="#F7B64C" d="M36.1,9.6c0,0,0-0.1-0.1-0.2c0-0.1-0.1-0.1-0.1-0.2c0-0.1-0.1-0.2-0.1-0.2c0-0.1-0.1-0.2-0.2-0.3
									c-0.1-0.1-0.1-0.2-0.2-0.3c-0.1-0.2-0.3-0.4-0.4-0.7c-0.1-0.1-0.2-0.2-0.2-0.3c-0.1-0.1-0.2-0.2-0.2-0.3
									c-0.2-0.2-0.3-0.4-0.4-0.6c-0.1-0.2-0.2-0.3-0.3-0.4C33.7,6,33.7,6,33.7,6s0.2,0.2,0.5,0.5c0.1,0.2,0.3,0.3,0.5,0.5
									c0.2,0.2,0.3,0.4,0.5,0.7c0.1,0.1,0.1,0.2,0.2,0.3c0.1,0.1,0.1,0.2,0.2,0.3c0.1,0.2,0.2,0.4,0.3,0.6C35.9,9.2,36,9.3,36,9.4
									C36.1,9.5,36.1,9.6,36.1,9.6z"/>
								<path fill="#F7B64C" d="M33.2,6.3c0,0,0,0.1,0.1,0.2c0.1,0.1,0.1,0.3,0.2,0.4c0.1,0.2,0.2,0.4,0.4,0.6
									c0.1,0.1,0.1,0.2,0.2,0.3c0.1,0.1,0.2,0.2,0.2,0.3c0.2,0.2,0.3,0.4,0.5,0.6C35,9,35.2,9.1,35.3,9.3c0.3,0.3,0.5,0.5,0.5,0.5
									s-0.1,0-0.1-0.1c-0.1-0.1-0.2-0.2-0.4-0.3c-0.2-0.1-0.3-0.3-0.5-0.5c-0.2-0.2-0.4-0.4-0.5-0.6C34.1,8.1,34,8,34,7.9
									c-0.1-0.1-0.1-0.2-0.2-0.3c-0.1-0.2-0.2-0.4-0.3-0.6C33.3,6.5,33.2,6.3,33.2,6.3z"/>
							</g>
							<g>
								<path fill="#F7B64C" d="M35.6,9c0,0,0,0-0.1-0.1c0-0.1-0.1-0.2-0.2-0.3c-0.2-0.2-0.4-0.6-0.6-0.9C34.4,7.4,34.2,7,34,6.8
									c-0.2-0.2-0.3-0.4-0.3-0.4s0.1,0.1,0.3,0.4c0.1,0.1,0.2,0.2,0.3,0.4c0.1,0.1,0.2,0.3,0.3,0.5C34.8,7.8,35,8,35.1,8.1
									c0.1,0.2,0.2,0.3,0.3,0.4C35.5,8.8,35.6,9,35.6,9z"/>
								<path fill="#F7B64C" d="M33.6,6.5c0,0,0.1,0.2,0.3,0.4C33.9,7,34,7.2,34.1,7.3c0,0.1,0.1,0.2,0.2,0.2
									c0.1,0.1,0.1,0.2,0.2,0.2c0.1,0.2,0.2,0.3,0.3,0.5c0.1,0.2,0.2,0.3,0.3,0.4c0.2,0.2,0.3,0.4,0.3,0.4S35.2,9,35,8.7
									c-0.1-0.1-0.2-0.2-0.3-0.4c-0.1-0.1-0.2-0.3-0.4-0.5c-0.1-0.1-0.1-0.2-0.2-0.2c-0.1-0.1-0.1-0.2-0.2-0.2
									c-0.1-0.2-0.2-0.3-0.3-0.4C33.7,6.7,33.6,6.5,33.6,6.5z"/>
							</g>
						</g>
					</g>
					<g>
						<g>
							<g>
								<path fill="#FFD15C" d="M36.1,11c0,0-2.7,0.6-4,0.1c-1.5-0.4-1.6-0.9-1.6-0.9s-0.2-0.3,0.2-0.5c0.4-0.2,2.9-0.4,5.4,1.2
									L36.1,11z"/>
							</g>
						</g>
						<g>
							<g>
								<path fill="#F7B64C" d="M35.3,10.6c0,0-0.1,0-0.2-0.1c-0.1,0-0.1,0-0.2-0.1c-0.1,0-0.2-0.1-0.3-0.1c-0.1,0-0.2-0.1-0.3-0.1
									c-0.1,0-0.2-0.1-0.4-0.1c-0.2-0.1-0.5-0.1-0.8-0.2C33,10,32.9,10,32.8,10c-0.1,0-0.3,0-0.4-0.1c-0.3,0-0.5-0.1-0.7-0.1
									c-0.2,0-0.4,0-0.5,0c-0.1,0-0.2,0-0.2,0s0.3,0,0.7,0c0.2,0,0.4,0,0.7,0c0.3,0,0.5,0.1,0.8,0.1c0.1,0,0.3,0.1,0.4,0.1
									c0.1,0,0.3,0.1,0.4,0.1c0.2,0.1,0.5,0.2,0.7,0.2c0.2,0.1,0.3,0.1,0.5,0.2C35.2,10.6,35.3,10.6,35.3,10.6z"/>
								<path fill="#F7B64C" d="M30.9,10.3c0,0,0.1,0,0.2,0.1c0.1,0,0.3,0.1,0.5,0.1c0.2,0.1,0.4,0.1,0.7,0.2c0.1,0,0.3,0.1,0.4,0.1
									c0.1,0,0.3,0,0.4,0.1c0.3,0,0.5,0.1,0.8,0.1c0.3,0,0.5,0,0.7,0c0.4,0,0.7,0,0.7,0s-0.1,0-0.2,0c-0.1,0-0.3,0-0.5,0
									c-0.2,0-0.4,0-0.7,0c-0.3,0-0.5,0-0.8-0.1c-0.1,0-0.3,0-0.4-0.1c-0.1,0-0.3-0.1-0.4-0.1c-0.3-0.1-0.5-0.1-0.7-0.2
									C31.1,10.5,30.9,10.3,30.9,10.3z"/>
							</g>
							<g>
								<path fill="#F7B64C" d="M34.5,10.6c0,0,0,0-0.1,0c-0.1,0-0.2,0-0.4-0.1c-0.3-0.1-0.7-0.1-1.1-0.2c-0.4-0.1-0.8-0.1-1.1-0.2
									c-0.3,0-0.5-0.1-0.5-0.1s0.2,0,0.5,0c0.1,0,0.3,0,0.5,0.1c0.2,0,0.4,0.1,0.6,0.1c0.2,0,0.4,0.1,0.6,0.1
									c0.2,0,0.4,0.1,0.5,0.1C34.3,10.5,34.5,10.6,34.5,10.6z"/>
								<path fill="#F7B64C" d="M31.3,10.2c0,0,0.2,0,0.5,0.1c0.1,0,0.3,0.1,0.5,0.1c0.1,0,0.2,0,0.3,0.1c0.1,0,0.2,0,0.3,0.1
									c0.2,0,0.4,0.1,0.6,0.1c0.2,0,0.4,0.1,0.5,0.1c0.3,0,0.5,0.1,0.5,0.1s-0.2,0-0.5,0c-0.1,0-0.3,0-0.5,0c-0.2,0-0.4,0-0.6-0.1
									c-0.1,0-0.2,0-0.3-0.1c-0.1,0-0.2,0-0.3-0.1c-0.2,0-0.3-0.1-0.5-0.1C31.5,10.3,31.3,10.2,31.3,10.2z"/>
							</g>
						</g>
					</g>
					<g>
						<g>
							<g>
								<path fill="#FFD15C" d="M36.3,11.6c0,0-1.5,2.3-2.7,2.9c-1.3,0.7-1.8,0.5-1.8,0.5s-0.4-0.1-0.2-0.5c0.1-0.4,1.8-2.4,4.7-3
									L36.3,11.6z"/>
							</g>
						</g>
						<g>
							<g>
								<path fill="#F7B64C" d="M35.4,11.9c0,0-0.1,0-0.2,0.1c-0.1,0-0.1,0.1-0.2,0.1c-0.1,0-0.2,0.1-0.2,0.1
									c-0.1,0-0.2,0.1-0.3,0.2c-0.1,0.1-0.2,0.1-0.3,0.2c-0.2,0.1-0.4,0.3-0.7,0.4c-0.1,0.1-0.2,0.2-0.3,0.2
									c-0.1,0.1-0.2,0.2-0.3,0.2c-0.2,0.2-0.4,0.3-0.6,0.4c-0.2,0.1-0.3,0.2-0.4,0.3c-0.1,0.1-0.1,0.1-0.1,0.1s0.2-0.2,0.5-0.5
									c0.2-0.1,0.3-0.3,0.5-0.5c0.2-0.2,0.4-0.3,0.7-0.5c0.1-0.1,0.2-0.1,0.3-0.2c0.1-0.1,0.2-0.1,0.3-0.2
									c0.2-0.1,0.4-0.2,0.6-0.3c0.2-0.1,0.3-0.1,0.5-0.2C35.4,11.9,35.4,11.9,35.4,11.9z"/>
								<path fill="#F7B64C" d="M32.1,14.8c0,0,0.1,0,0.2-0.1c0.1-0.1,0.3-0.1,0.4-0.2c0.2-0.1,0.4-0.2,0.6-0.4
									c0.1-0.1,0.2-0.1,0.3-0.2c0.1-0.1,0.2-0.2,0.3-0.2c0.2-0.2,0.4-0.3,0.6-0.5c0.2-0.2,0.4-0.3,0.5-0.5
									c0.3-0.3,0.5-0.5,0.5-0.5s0,0.1-0.1,0.1c-0.1,0.1-0.2,0.2-0.3,0.4c-0.1,0.2-0.3,0.3-0.5,0.5c-0.2,0.2-0.4,0.4-0.6,0.5
									c-0.1,0.1-0.2,0.2-0.3,0.2c-0.1,0.1-0.2,0.1-0.3,0.2c-0.2,0.1-0.4,0.2-0.6,0.3C32.4,14.7,32.1,14.8,32.1,14.8z"/>
							</g>
							<g>
								<path fill="#F7B64C" d="M34.8,12.4c0,0,0,0-0.1,0.1c-0.1,0-0.2,0.1-0.3,0.2c-0.2,0.2-0.6,0.4-0.9,0.6
									c-0.3,0.2-0.6,0.5-0.9,0.6c-0.2,0.2-0.4,0.3-0.4,0.3s0.1-0.1,0.4-0.3c0.1-0.1,0.2-0.2,0.4-0.3c0.1-0.1,0.3-0.2,0.5-0.3
									c0.2-0.1,0.3-0.2,0.5-0.3c0.2-0.1,0.3-0.2,0.4-0.3C34.7,12.5,34.8,12.4,34.8,12.4z"/>
								<path fill="#F7B64C" d="M32.4,14.4c0,0,0.2-0.1,0.4-0.3c0.1-0.1,0.3-0.2,0.4-0.3c0.1,0,0.2-0.1,0.2-0.2
									c0.1-0.1,0.2-0.1,0.2-0.2c0.2-0.1,0.3-0.2,0.5-0.3c0.2-0.1,0.3-0.2,0.4-0.3c0.2-0.2,0.4-0.3,0.4-0.3s-0.1,0.1-0.4,0.3
									c-0.1,0.1-0.2,0.2-0.4,0.3c-0.1,0.1-0.3,0.2-0.5,0.4c-0.1,0.1-0.2,0.1-0.2,0.2c-0.1,0.1-0.2,0.1-0.2,0.2
									c-0.2,0.1-0.3,0.2-0.4,0.3C32.5,14.3,32.4,14.4,32.4,14.4z"/>
							</g>
						</g>
					</g>
					<g>
						<g>
							<g>
								<path fill="#FFD15C" d="M36.9,11.9c0,0,0.6,2.7,0.1,4c-0.4,1.5-0.9,1.6-0.9,1.6s-0.3,0.2-0.5-0.2c-0.2-0.4-0.4-2.9,1.2-5.4
									L36.9,11.9z"/>
							</g>
						</g>
						<g>
							<g>
								<path fill="#F7B64C" d="M36.5,12.7c0,0,0,0.1-0.1,0.2c0,0.1,0,0.1-0.1,0.2c0,0.1-0.1,0.2-0.1,0.3c0,0.1-0.1,0.2-0.1,0.3
									c0,0.1-0.1,0.2-0.1,0.4c-0.1,0.2-0.1,0.5-0.2,0.8c0,0.1-0.1,0.3-0.1,0.4c0,0.1,0,0.3-0.1,0.4c0,0.3-0.1,0.5-0.1,0.7
									c0,0.2,0,0.4,0,0.5c0,0.1,0,0.2,0,0.2s0-0.3,0-0.7c0-0.2,0-0.4,0-0.7c0-0.3,0.1-0.5,0.1-0.8c0-0.1,0.1-0.3,0.1-0.4
									c0-0.1,0.1-0.3,0.1-0.4c0.1-0.2,0.2-0.5,0.2-0.7c0.1-0.2,0.1-0.3,0.2-0.5C36.4,12.8,36.5,12.7,36.5,12.7z"/>
								<path fill="#F7B64C" d="M36.2,17.1c0,0,0-0.1,0.1-0.2c0-0.1,0.1-0.3,0.1-0.5c0.1-0.2,0.1-0.4,0.2-0.7c0-0.1,0.1-0.3,0.1-0.4
									c0-0.1,0-0.3,0.1-0.4c0-0.3,0.1-0.5,0.1-0.8c0-0.3,0-0.5,0-0.7c0-0.4,0-0.7,0-0.7s0,0.1,0,0.2c0,0.1,0,0.3,0,0.5
									c0,0.2,0,0.4,0,0.7c0,0.3,0,0.5-0.1,0.8c0,0.1,0,0.3-0.1,0.4c0,0.1-0.1,0.3-0.1,0.4c-0.1,0.3-0.1,0.5-0.2,0.7
									C36.3,16.9,36.2,17.1,36.2,17.1z"/>
							</g>
							<g>
								<path fill="#F7B64C" d="M36.4,13.5c0,0,0,0,0,0.1c0,0.1,0,0.2-0.1,0.4c-0.1,0.3-0.1,0.7-0.2,1.1c-0.1,0.4-0.1,0.8-0.2,1.1
									c0,0.3-0.1,0.5-0.1,0.5s0-0.2,0-0.5c0-0.1,0-0.3,0.1-0.5c0-0.2,0.1-0.4,0.1-0.6c0-0.2,0.1-0.4,0.1-0.6
									c0-0.2,0.1-0.4,0.1-0.5C36.4,13.7,36.4,13.5,36.4,13.5z"/>
								<path fill="#F7B64C" d="M36.1,16.7c0,0,0-0.2,0.1-0.5c0-0.1,0.1-0.3,0.1-0.5c0-0.1,0-0.2,0.1-0.3c0-0.1,0-0.2,0.1-0.3
									c0-0.2,0.1-0.4,0.1-0.6c0-0.2,0.1-0.4,0.1-0.5c0-0.3,0.1-0.5,0.1-0.5s0,0.2,0,0.5c0,0.1,0,0.3,0,0.5c0,0.2,0,0.4-0.1,0.6
									c0,0.1,0,0.2-0.1,0.3c0,0.1,0,0.2-0.1,0.3c0,0.2-0.1,0.3-0.1,0.5C36.1,16.5,36.1,16.7,36.1,16.7z"/>
							</g>
						</g>
					</g>
					<g>
						<g>
							<g>
								<path fill="#FFD15C" d="M37.5,11.7c0,0,2.3,1.5,2.9,2.7c0.7,1.3,0.5,1.8,0.5,1.8s-0.1,0.4-0.5,0.2c-0.4-0.1-2.4-1.8-3-4.7
									L37.5,11.7z"/>
							</g>
						</g>
						<g>
							<g>
								<path fill="#F7B64C" d="M37.8,12.5c0,0,0,0.1,0.1,0.2c0,0.1,0.1,0.1,0.1,0.2c0,0.1,0.1,0.2,0.1,0.2c0,0.1,0.1,0.2,0.2,0.3
									c0.1,0.1,0.1,0.2,0.2,0.3c0.1,0.2,0.3,0.4,0.4,0.7c0.1,0.1,0.2,0.2,0.2,0.3c0.1,0.1,0.2,0.2,0.2,0.3
									c0.2,0.2,0.3,0.4,0.4,0.6c0.1,0.2,0.2,0.3,0.3,0.4c0.1,0.1,0.1,0.1,0.1,0.1S40,16,39.7,15.7c-0.1-0.2-0.3-0.3-0.5-0.5
									c-0.2-0.2-0.3-0.4-0.5-0.7c-0.1-0.1-0.1-0.2-0.2-0.3c-0.1-0.1-0.1-0.2-0.2-0.3c-0.1-0.2-0.2-0.4-0.3-0.6
									c-0.1-0.2-0.1-0.3-0.2-0.5C37.8,12.6,37.8,12.5,37.8,12.5z"/>
								<path fill="#F7B64C" d="M40.7,15.9c0,0,0-0.1-0.1-0.2c-0.1-0.1-0.1-0.3-0.2-0.4c-0.1-0.2-0.2-0.4-0.4-0.6
									c-0.1-0.1-0.1-0.2-0.2-0.3c-0.1-0.1-0.2-0.2-0.2-0.3c-0.2-0.2-0.3-0.4-0.5-0.6c-0.2-0.2-0.3-0.4-0.5-0.5
									c-0.3-0.3-0.5-0.5-0.5-0.5s0.1,0,0.1,0.1c0.1,0.1,0.2,0.2,0.4,0.3c0.2,0.1,0.3,0.3,0.5,0.5c0.2,0.2,0.4,0.4,0.5,0.6
									c0.1,0.1,0.2,0.2,0.2,0.3c0.1,0.1,0.1,0.2,0.2,0.3c0.1,0.2,0.2,0.4,0.3,0.6C40.6,15.6,40.7,15.9,40.7,15.9z"/>
							</g>
							<g>
								<path fill="#F7B64C" d="M38.3,13.1c0,0,0,0,0.1,0.1c0,0.1,0.1,0.2,0.2,0.3c0.2,0.2,0.4,0.6,0.6,0.9c0.2,0.3,0.5,0.6,0.6,0.9
									c0.2,0.2,0.3,0.4,0.3,0.4s-0.1-0.1-0.3-0.4c-0.1-0.1-0.2-0.2-0.3-0.4c-0.1-0.1-0.2-0.3-0.3-0.5c-0.1-0.2-0.2-0.3-0.3-0.5
									c-0.1-0.2-0.2-0.3-0.3-0.4C38.4,13.3,38.3,13.1,38.3,13.1z"/>
								<path fill="#F7B64C" d="M40.3,15.6c0,0-0.1-0.2-0.3-0.4c-0.1-0.1-0.2-0.3-0.3-0.4c0-0.1-0.1-0.2-0.2-0.2
									c-0.1-0.1-0.1-0.2-0.2-0.2c-0.1-0.2-0.2-0.3-0.3-0.5c-0.1-0.2-0.2-0.3-0.3-0.4c-0.2-0.2-0.3-0.4-0.3-0.4s0.1,0.1,0.3,0.4
									c0.1,0.1,0.2,0.2,0.3,0.4c0.1,0.1,0.2,0.3,0.4,0.5c0.1,0.1,0.1,0.2,0.2,0.2c0.1,0.1,0.1,0.2,0.2,0.2
									c0.1,0.2,0.2,0.3,0.3,0.4C40.2,15.5,40.3,15.6,40.3,15.6z"/>
							</g>
						</g>
					</g>
					<g>
						<g>
							<g>
								<path fill="#FFD15C" d="M37.7,11.1c0,0,2.7-0.6,4-0.1c1.5,0.4,1.6,0.9,1.6,0.9s0.2,0.3-0.2,0.5c-0.4,0.2-2.9,0.4-5.4-1.2
									L37.7,11.1z"/>
							</g>
						</g>
						<g>
							<g>
								<path fill="#F7B64C" d="M38.6,11.5c0,0,0.1,0,0.2,0.1c0.1,0,0.1,0,0.2,0.1c0.1,0,0.2,0.1,0.3,0.1c0.1,0,0.2,0.1,0.3,0.1
									c0.1,0,0.2,0.1,0.4,0.1c0.2,0.1,0.5,0.1,0.8,0.2c0.1,0,0.3,0.1,0.4,0.1c0.1,0,0.3,0,0.4,0.1c0.3,0,0.5,0.1,0.7,0.1
									c0.2,0,0.4,0,0.5,0c0.1,0,0.2,0,0.2,0s-0.3,0-0.7,0c-0.2,0-0.4,0-0.7,0c-0.3,0-0.5-0.1-0.8-0.1c-0.1,0-0.3-0.1-0.4-0.1
									c-0.1,0-0.3-0.1-0.4-0.1c-0.2-0.1-0.5-0.2-0.7-0.2c-0.2-0.1-0.3-0.1-0.5-0.2C38.6,11.5,38.6,11.5,38.6,11.5z"/>
								<path fill="#F7B64C" d="M43,11.8c0,0-0.1,0-0.2-0.1c-0.1,0-0.3-0.1-0.5-0.1c-0.2-0.1-0.4-0.1-0.7-0.2
									c-0.1,0-0.3-0.1-0.4-0.1c-0.1,0-0.3,0-0.4-0.1c-0.3,0-0.5-0.1-0.8-0.1c-0.3,0-0.5,0-0.7,0c-0.4,0-0.7,0-0.7,0s0.1,0,0.2,0
									c0.1,0,0.3,0,0.5,0c0.2,0,0.4,0,0.7,0c0.3,0,0.5,0,0.8,0.1c0.1,0,0.3,0,0.4,0.1c0.1,0,0.3,0.1,0.4,0.1
									c0.3,0.1,0.5,0.1,0.7,0.2C42.7,11.7,43,11.8,43,11.8z"/>
							</g>
							<g>
								<path fill="#F7B64C" d="M39.3,11.6c0,0,0,0,0.1,0c0.1,0,0.2,0,0.4,0.1c0.3,0.1,0.7,0.1,1.1,0.2c0.4,0.1,0.8,0.1,1.1,0.2
									c0.3,0,0.5,0.1,0.5,0.1s-0.2,0-0.5,0c-0.1,0-0.3,0-0.5-0.1c-0.2,0-0.4-0.1-0.6-0.1c-0.2,0-0.4-0.1-0.6-0.1
									c-0.2,0-0.4-0.1-0.5-0.1C39.5,11.6,39.3,11.6,39.3,11.6z"/>
								<path fill="#F7B64C" d="M42.5,11.9c0,0-0.2,0-0.5-0.1c-0.1,0-0.3-0.1-0.5-0.1c-0.1,0-0.2,0-0.3-0.1c-0.1,0-0.2,0-0.3-0.1
									c-0.2,0-0.4-0.1-0.6-0.1c-0.2,0-0.4-0.1-0.5-0.1c-0.3,0-0.5-0.1-0.5-0.1s0.2,0,0.5,0c0.1,0,0.3,0,0.5,0c0.2,0,0.4,0,0.6,0.1
									c0.1,0,0.2,0,0.3,0.1c0.1,0,0.2,0,0.3,0.1c0.2,0,0.3,0.1,0.5,0.1C42.3,11.9,42.5,11.9,42.5,11.9z"/>
							</g>
						</g>
					</g>
					<g>
						<g>
							<g>
								<path fill="#FFD15C" d="M37.5,10.5c0,0,1.5-2.3,2.7-2.9c1.3-0.7,1.8-0.5,1.8-0.5s0.4,0.1,0.2,0.5c-0.1,0.4-1.8,2.4-4.7,3
									L37.5,10.5z"/>
							</g>
						</g>
						<g>
							<g>
								<path fill="#F7B64C" d="M38.4,10.2c0,0,0.1,0,0.2-0.1c0.1,0,0.1-0.1,0.2-0.1c0.1,0,0.2-0.1,0.2-0.1c0.1,0,0.2-0.1,0.3-0.2
									c0.1-0.1,0.2-0.1,0.3-0.2c0.2-0.1,0.4-0.3,0.7-0.4c0.1-0.1,0.2-0.2,0.3-0.2c0.1-0.1,0.2-0.2,0.3-0.2
									c0.2-0.2,0.4-0.3,0.6-0.4c0.2-0.1,0.3-0.2,0.4-0.3C42,7.9,42,7.8,42,7.8S41.8,8,41.5,8.3c-0.2,0.1-0.3,0.3-0.5,0.5
									c-0.2,0.2-0.4,0.3-0.7,0.5c-0.1,0.1-0.2,0.1-0.3,0.2c-0.1,0.1-0.2,0.1-0.3,0.2C39.4,9.8,39.2,9.9,39,10
									c-0.2,0.1-0.3,0.1-0.5,0.2C38.5,10.2,38.4,10.2,38.4,10.2z"/>
								<path fill="#F7B64C" d="M41.7,7.3c0,0-0.1,0-0.2,0.1c-0.1,0.1-0.3,0.1-0.4,0.2c-0.2,0.1-0.4,0.2-0.6,0.4
									c-0.1,0.1-0.2,0.1-0.3,0.2c-0.1,0.1-0.2,0.2-0.3,0.2c-0.2,0.2-0.4,0.3-0.6,0.5c-0.2,0.2-0.4,0.3-0.5,0.5
									c-0.3,0.3-0.5,0.5-0.5,0.5s0-0.1,0.1-0.1c0.1-0.1,0.2-0.2,0.3-0.4c0.1-0.2,0.3-0.3,0.5-0.5c0.2-0.2,0.4-0.4,0.6-0.5
									c0.1-0.1,0.2-0.2,0.3-0.2C40.2,8,40.3,8,40.4,7.9c0.2-0.1,0.4-0.2,0.6-0.3C41.5,7.4,41.7,7.3,41.7,7.3z"/>
							</g>
							<g>
								<path fill="#F7B64C" d="M39,9.7c0,0,0,0,0.1-0.1c0.1,0,0.2-0.1,0.3-0.2C39.6,9.3,40,9,40.3,8.8c0.3-0.2,0.6-0.5,0.9-0.6
									c0.2-0.2,0.4-0.3,0.4-0.3S41.4,8,41.2,8.2c-0.1,0.1-0.2,0.2-0.4,0.3c-0.1,0.1-0.3,0.2-0.5,0.3C40.2,9,40,9.1,39.9,9.2
									c-0.2,0.1-0.3,0.2-0.4,0.3C39.2,9.6,39,9.7,39,9.7z"/>
								<path fill="#F7B64C" d="M41.5,7.7c0,0-0.2,0.1-0.4,0.3c-0.1,0.1-0.3,0.2-0.4,0.3c-0.1,0-0.2,0.1-0.2,0.2
									c-0.1,0.1-0.2,0.1-0.2,0.2c-0.2,0.1-0.3,0.2-0.5,0.3c-0.2,0.1-0.3,0.2-0.4,0.3c-0.2,0.2-0.4,0.3-0.4,0.3s0.1-0.1,0.4-0.3
									c0.1-0.1,0.2-0.2,0.4-0.3c0.1-0.1,0.3-0.2,0.5-0.4c0.1-0.1,0.2-0.1,0.2-0.2c0.1-0.1,0.2-0.1,0.2-0.2C40.8,8.1,40.9,8,41,8
									C41.3,7.8,41.5,7.7,41.5,7.7z"/>
							</g>
						</g>
					</g>
				</g>
				<g>
					<g>
						<g>
							<g>
								<g>
									<path fill="#F7B64C" d="M36.7,10.3c0,0-1.4-2.4-1.4-3.7c-0.1-1.5,0.3-1.8,0.3-1.8s0.3-0.3,0.6,0c0.3,0.3,1.4,2.6,0.7,5.5
										L36.7,10.3z"/>
								</g>
							</g>
						</g>
						<g>
							<g>
								<g>
									<path fill="#F7B64C" d="M36.2,10.7c0,0-2.7-0.7-3.6-1.7c-1.1-1-1.1-1.5-1.1-1.5s0-0.4,0.4-0.4c0.5,0,2.8,0.9,4.4,3.4
										L36.2,10.7z"/>
								</g>
							</g>
						</g>
						<g>
							<g>
								<g>
									<path fill="#F7B64C" d="M36.1,11.3c0,0-2.4,1.4-3.7,1.4c-1.5,0.1-1.8-0.3-1.8-0.3s-0.3-0.3,0-0.6c0.3-0.3,2.6-1.4,5.5-0.7
										L36.1,11.3z"/>
								</g>
							</g>
						</g>
						<g>
							<g>
								<g>
									<path fill="#F7B64C" d="M36.5,11.8c0,0-0.7,2.7-1.7,3.6c-1,1.1-1.5,1.1-1.5,1.1s-0.4,0-0.4-0.4c0-0.5,0.9-2.8,3.4-4.4
										L36.5,11.8z"/>
								</g>
							</g>
						</g>
						<g>
							<g>
								<g>
									<path fill="#F7B64C" d="M37.2,11.9c0,0,1.4,2.4,1.4,3.7c0.1,1.5-0.3,1.8-0.3,1.8s-0.3,0.3-0.6,0c-0.3-0.3-1.4-2.6-0.7-5.5
										L37.2,11.9z"/>
								</g>
							</g>
						</g>
						<g>
							<g>
								<g>
									<path fill="#F7B64C" d="M37.6,11.5c0,0,2.7,0.7,3.6,1.7c1.1,1,1.1,1.5,1.1,1.5s0,0.4-0.4,0.4c-0.5,0-2.8-0.9-4.4-3.4
										L37.6,11.5z"/>
								</g>
							</g>
						</g>
						<g>
							<g>
								<g>
									<path fill="#F7B64C" d="M37.7,10.8c0,0,2.4-1.4,3.7-1.4c1.5-0.1,1.8,0.3,1.8,0.3s0.3,0.3,0,0.6c-0.3,0.3-2.6,1.4-5.5,0.7
										L37.7,10.8z"/>
								</g>
							</g>
						</g>
						<g>
							<g>
								<g>
									<path fill="#F7B64C" d="M37.3,10.3c0,0,0.7-2.7,1.7-3.6c1-1.1,1.5-1.1,1.5-1.1s0.4,0,0.4,0.4c0,0.5-0.9,2.8-3.4,4.4
										L37.3,10.3z"/>
								</g>
							</g>
						</g>
					</g>
					<g>
						<g>
							<g>
								<g>
									<path fill="#FFD15C" d="M36.8,9.4c0,0,0-0.1,0-0.2c0-0.1,0-0.1,0-0.2c0-0.1,0-0.2,0-0.3c0-0.1,0-0.2,0-0.3
										c0-0.1,0-0.2,0-0.4c0-0.3-0.1-0.5-0.1-0.8c0-0.1,0-0.3-0.1-0.4c0-0.1,0-0.3-0.1-0.4c0-0.3-0.1-0.5-0.1-0.7
										c0-0.2-0.1-0.4-0.1-0.5c0-0.1,0-0.2,0-0.2s0.1,0.3,0.2,0.6c0.1,0.2,0.1,0.4,0.2,0.7c0.1,0.3,0.1,0.5,0.1,0.8
										c0,0.1,0,0.3,0,0.4c0,0.1,0,0.3,0,0.4c0,0.3,0,0.5,0,0.7c0,0.2,0,0.4,0,0.5C36.8,9.3,36.8,9.4,36.8,9.4z"/>
								</g>
								<path fill="#FFD15C" d="M35.7,5.1c0,0,0,0.1,0,0.2c0,0.1,0,0.3,0,0.5c0,0.2,0,0.4,0.1,0.7c0,0.1,0,0.3,0,0.4
									c0,0.1,0,0.3,0.1,0.4c0.1,0.3,0.1,0.5,0.2,0.8c0.1,0.2,0.1,0.5,0.2,0.7c0.1,0.4,0.2,0.7,0.2,0.7s0-0.1-0.1-0.2
									c0-0.1-0.1-0.3-0.2-0.5c-0.1-0.2-0.2-0.4-0.2-0.7c-0.1-0.2-0.2-0.5-0.2-0.8c0-0.1-0.1-0.3-0.1-0.4c0-0.1,0-0.3,0-0.4
									c0-0.3,0-0.5,0-0.7C35.6,5.4,35.7,5.1,35.7,5.1z"/>
							</g>
							<g>
								<path fill="#FFD15C" d="M36.6,8.6c0,0,0,0,0-0.1c0-0.1,0-0.2-0.1-0.4c0-0.3-0.1-0.7-0.2-1.1c-0.1-0.4-0.1-0.8-0.2-1.1
									c0-0.3-0.1-0.5-0.1-0.5s0.1,0.2,0.1,0.5c0,0.1,0.1,0.3,0.1,0.5c0,0.2,0.1,0.4,0.1,0.6c0,0.2,0.1,0.4,0.1,0.6
									c0,0.2,0,0.4,0,0.5C36.6,8.4,36.6,8.6,36.6,8.6z"/>
								<path fill="#FFD15C" d="M35.9,5.5c0,0,0,0.2,0.1,0.5c0,0.1,0,0.3,0.1,0.5c0,0.1,0,0.2,0,0.3c0,0.1,0,0.2,0,0.3
									c0,0.2,0.1,0.4,0.1,0.6c0,0.2,0.1,0.4,0.1,0.5c0.1,0.3,0.1,0.5,0.1,0.5s-0.1-0.2-0.1-0.5c0-0.1-0.1-0.3-0.1-0.5
									c0-0.2-0.1-0.4-0.1-0.6c0-0.1,0-0.2,0-0.3c0-0.1,0-0.2,0-0.3c0-0.2,0-0.4,0-0.5C35.9,5.7,35.9,5.5,35.9,5.5z"/>
							</g>
						</g>
						<g>
							<g>
								<path fill="#FFD15C" d="M35.6,10c0,0,0,0-0.1-0.1c0,0-0.1-0.1-0.2-0.2c-0.1-0.1-0.1-0.1-0.2-0.2c-0.1-0.1-0.2-0.1-0.2-0.2
									c-0.1-0.1-0.2-0.2-0.3-0.2c-0.2-0.2-0.4-0.3-0.6-0.5c-0.1-0.1-0.2-0.2-0.3-0.2c-0.1-0.1-0.2-0.2-0.3-0.2
									c-0.2-0.1-0.4-0.3-0.6-0.4c-0.2-0.1-0.3-0.2-0.4-0.3c-0.1-0.1-0.2-0.1-0.2-0.1s0.3,0.1,0.6,0.3C33,7.7,33.2,7.8,33.4,8
									c0.2,0.1,0.4,0.3,0.7,0.5c0.1,0.1,0.2,0.2,0.3,0.3c0.1,0.1,0.2,0.2,0.3,0.3c0.2,0.2,0.4,0.3,0.5,0.5
									c0.1,0.2,0.3,0.3,0.3,0.4C35.6,9.9,35.6,10,35.6,10z"/>
								<path fill="#FFD15C" d="M31.8,7.7c0,0,0,0,0.1,0.1C32,8,32.2,8.1,32.3,8.2c0.2,0.1,0.3,0.3,0.5,0.5c0.1,0.1,0.2,0.2,0.3,0.2
									c0.1,0.1,0.2,0.2,0.3,0.2c0.2,0.1,0.5,0.3,0.7,0.4c0.2,0.1,0.4,0.2,0.6,0.3c0.4,0.2,0.6,0.3,0.6,0.3s-0.1,0-0.2-0.1
									c-0.1,0-0.3-0.1-0.5-0.2c-0.2-0.1-0.4-0.2-0.6-0.3c-0.2-0.1-0.5-0.3-0.7-0.4c-0.1-0.1-0.2-0.2-0.3-0.2
									c-0.1-0.1-0.2-0.2-0.3-0.3c-0.2-0.2-0.4-0.3-0.5-0.5C32,8,31.8,7.7,31.8,7.7z"/>
							</g>
							<g>
								<path fill="#FFD15C" d="M35,9.6c0,0,0,0-0.1-0.1c-0.1-0.1-0.2-0.1-0.3-0.2c-0.2-0.2-0.6-0.4-0.9-0.6C33.4,8.4,33,8.2,32.8,8
									c-0.2-0.2-0.4-0.3-0.4-0.3s0.2,0.1,0.4,0.2c0.1,0.1,0.3,0.2,0.4,0.3c0.2,0.1,0.3,0.2,0.5,0.3c0.2,0.1,0.3,0.2,0.5,0.4
									c0.1,0.1,0.3,0.2,0.4,0.3C34.8,9.4,35,9.6,35,9.6z"/>
								<path fill="#FFD15C" d="M32.3,7.8c0,0,0.2,0.1,0.4,0.3c0.1,0.1,0.3,0.2,0.4,0.3c0.1,0.1,0.1,0.1,0.2,0.2
									c0.1,0.1,0.2,0.1,0.2,0.2C33.7,8.9,33.9,9,34,9.1c0.2,0.1,0.3,0.2,0.4,0.3c0.2,0.2,0.4,0.3,0.4,0.3s-0.2-0.1-0.4-0.2
									c-0.1-0.1-0.3-0.2-0.4-0.3c-0.2-0.1-0.3-0.2-0.5-0.3c-0.1-0.1-0.2-0.1-0.2-0.2c-0.1-0.1-0.2-0.1-0.2-0.2
									c-0.1-0.1-0.3-0.2-0.4-0.3C32.4,8,32.3,7.8,32.3,7.8z"/>
							</g>
						</g>
						<g>
							<g>
								<path fill="#FFD15C" d="M35.2,11.2c0,0-0.1,0-0.2,0c-0.1,0-0.1,0-0.2,0c-0.1,0-0.2,0-0.3,0c-0.1,0-0.2,0-0.3,0
									c-0.1,0-0.2,0-0.4,0c-0.3,0-0.5,0.1-0.8,0.1c-0.1,0-0.3,0-0.4,0.1c-0.1,0-0.3,0-0.4,0.1c-0.3,0-0.5,0.1-0.7,0.1
									c-0.2,0-0.4,0.1-0.5,0.1c-0.1,0-0.2,0-0.2,0s0.3-0.1,0.6-0.2c0.2-0.1,0.4-0.1,0.7-0.2c0.3-0.1,0.5-0.1,0.8-0.1
									c0.1,0,0.3,0,0.4,0c0.1,0,0.3,0,0.4,0c0.3,0,0.5,0,0.7,0c0.2,0,0.4,0,0.5,0C35.2,11.2,35.2,11.2,35.2,11.2z"/>
								<path fill="#FFD15C" d="M31,12.3c0,0,0.1,0,0.2,0c0.1,0,0.3,0,0.5,0c0.2,0,0.4,0,0.7-0.1c0.1,0,0.3,0,0.4,0
									c0.1,0,0.3,0,0.4-0.1c0.3-0.1,0.5-0.1,0.8-0.2c0.2-0.1,0.5-0.1,0.7-0.2c0.4-0.1,0.7-0.2,0.7-0.2s-0.1,0-0.2,0.1
									c-0.1,0-0.3,0.1-0.5,0.2C34.4,11.9,34.2,12,34,12c-0.2,0.1-0.5,0.2-0.8,0.2c-0.1,0-0.3,0.1-0.4,0.1c-0.1,0-0.3,0-0.4,0
									c-0.3,0-0.5,0-0.7,0C31.2,12.4,31,12.3,31,12.3z"/>
							</g>
							<g>
								<path fill="#FFD15C" d="M34.5,11.4c0,0,0,0-0.1,0c-0.1,0-0.2,0-0.4,0.1c-0.3,0-0.7,0.1-1.1,0.2c-0.4,0.1-0.8,0.1-1.1,0.2
									c-0.3,0-0.5,0.1-0.5,0.1s0.2-0.1,0.5-0.1c0.1,0,0.3-0.1,0.5-0.1c0.2,0,0.4-0.1,0.6-0.1c0.2,0,0.4-0.1,0.6-0.1
									c0.2,0,0.4,0,0.5,0C34.3,11.4,34.5,11.4,34.5,11.4z"/>
								<path fill="#FFD15C" d="M31.3,12.1c0,0,0.2,0,0.5-0.1c0.1,0,0.3,0,0.5-0.1c0.1,0,0.2,0,0.3,0c0.1,0,0.2,0,0.3,0
									c0.2,0,0.4-0.1,0.6-0.1c0.2,0,0.4-0.1,0.5-0.1c0.3-0.1,0.5-0.1,0.5-0.1s-0.2,0.1-0.5,0.1c-0.1,0-0.3,0.1-0.5,0.1
									c-0.2,0-0.4,0.1-0.6,0.1c-0.1,0-0.2,0-0.3,0c-0.1,0-0.2,0-0.3,0c-0.2,0-0.4,0-0.5,0C31.5,12.1,31.3,12.1,31.3,12.1z"/>
							</g>
						</g>
						<g>
							<g>
								<path fill="#FFD15C" d="M35.8,12.3c0,0,0,0-0.1,0.1c0,0-0.1,0.1-0.2,0.2c-0.1,0.1-0.1,0.1-0.2,0.2c-0.1,0.1-0.1,0.2-0.2,0.2
									c-0.1,0.1-0.2,0.2-0.2,0.3c-0.2,0.2-0.3,0.4-0.5,0.6c-0.1,0.1-0.2,0.2-0.2,0.3c-0.1,0.1-0.2,0.2-0.2,0.3
									c-0.1,0.2-0.3,0.4-0.4,0.6c-0.1,0.2-0.2,0.3-0.3,0.4c-0.1,0.1-0.1,0.2-0.1,0.2s0.1-0.3,0.3-0.6c0.1-0.2,0.2-0.4,0.4-0.6
									c0.1-0.2,0.3-0.4,0.5-0.7c0.1-0.1,0.2-0.2,0.3-0.3c0.1-0.1,0.2-0.2,0.3-0.3c0.2-0.2,0.3-0.4,0.5-0.5
									c0.2-0.1,0.3-0.3,0.4-0.3C35.7,12.4,35.8,12.3,35.8,12.3z"/>
								<path fill="#FFD15C" d="M33.6,16.2c0,0,0,0,0.1-0.1c0.1-0.1,0.2-0.2,0.3-0.4c0.1-0.2,0.3-0.3,0.5-0.5
									c0.1-0.1,0.2-0.2,0.2-0.3c0.1-0.1,0.2-0.2,0.2-0.3c0.1-0.2,0.3-0.5,0.4-0.7c0.1-0.2,0.2-0.4,0.3-0.6
									c0.2-0.4,0.3-0.6,0.3-0.6s0,0.1-0.1,0.2c0,0.1-0.1,0.3-0.2,0.5c-0.1,0.2-0.2,0.4-0.3,0.6c-0.1,0.2-0.3,0.5-0.4,0.7
									c-0.1,0.1-0.2,0.2-0.2,0.3c-0.1,0.1-0.2,0.2-0.3,0.3c-0.2,0.2-0.3,0.4-0.5,0.5C33.8,16,33.6,16.2,33.6,16.2z"/>
							</g>
							<g>
								<path fill="#FFD15C" d="M35.4,13c0,0,0,0-0.1,0.1c-0.1,0.1-0.1,0.2-0.2,0.3c-0.2,0.2-0.4,0.6-0.6,0.9
									c-0.2,0.3-0.5,0.6-0.6,0.9c-0.2,0.2-0.3,0.4-0.3,0.4s0.1-0.2,0.2-0.4c0.1-0.1,0.2-0.3,0.3-0.4c0.1-0.2,0.2-0.3,0.3-0.5
									c0.1-0.2,0.2-0.3,0.4-0.5c0.1-0.1,0.2-0.3,0.3-0.4C35.3,13.2,35.4,13,35.4,13z"/>
								<path fill="#FFD15C" d="M33.7,15.7c0,0,0.1-0.2,0.3-0.4c0.1-0.1,0.2-0.3,0.3-0.4c0.1-0.1,0.1-0.1,0.2-0.2
									c0.1-0.1,0.1-0.2,0.2-0.2c0.1-0.2,0.2-0.3,0.3-0.5c0.1-0.2,0.2-0.3,0.3-0.4c0.2-0.2,0.3-0.4,0.3-0.4s-0.1,0.2-0.2,0.4
									c-0.1,0.1-0.2,0.3-0.3,0.4c-0.1,0.2-0.2,0.3-0.3,0.5c-0.1,0.1-0.1,0.2-0.2,0.2c-0.1,0.1-0.1,0.2-0.2,0.2
									c-0.1,0.1-0.2,0.3-0.3,0.4C33.8,15.6,33.7,15.7,33.7,15.7z"/>
							</g>
						</g>
						<g>
							<g>
								<path fill="#FFD15C" d="M37,12.8c0,0,0,0.1,0,0.2c0,0.1,0,0.1,0,0.2c0,0.1,0,0.2,0,0.3c0,0.1,0,0.2,0,0.3c0,0.1,0,0.2,0,0.4
									c0,0.3,0.1,0.5,0.1,0.8c0,0.1,0,0.3,0.1,0.4c0,0.1,0,0.3,0.1,0.4c0,0.3,0.1,0.5,0.1,0.7c0,0.2,0.1,0.4,0.1,0.5
									c0,0.1,0,0.2,0,0.2s-0.1-0.3-0.2-0.6c-0.1-0.2-0.1-0.4-0.2-0.7c-0.1-0.3-0.1-0.5-0.1-0.8c0-0.1,0-0.3,0-0.4
									c0-0.1,0-0.3,0-0.4c0-0.3,0-0.5,0-0.7c0-0.2,0-0.4,0-0.5C37,12.8,37,12.8,37,12.8z"/>
								<path fill="#FFD15C" d="M38.2,17c0,0,0-0.1,0-0.2c0-0.1,0-0.3,0-0.5c0-0.2,0-0.4-0.1-0.7c0-0.1,0-0.3,0-0.4
									c0-0.1,0-0.3-0.1-0.4c-0.1-0.3-0.1-0.5-0.2-0.8c-0.1-0.2-0.1-0.5-0.2-0.7c-0.1-0.4-0.2-0.7-0.2-0.7s0,0.1,0.1,0.2
									c0,0.1,0.1,0.3,0.2,0.5c0.1,0.2,0.2,0.4,0.2,0.7c0.1,0.2,0.2,0.5,0.2,0.8c0,0.1,0.1,0.3,0.1,0.4c0,0.1,0,0.3,0,0.4
									c0,0.3,0,0.5,0,0.7C38.2,16.8,38.2,17,38.2,17z"/>
							</g>
							<g>
								<path fill="#FFD15C" d="M37.2,13.5c0,0,0,0,0,0.1c0,0.1,0,0.2,0.1,0.4c0,0.3,0.1,0.7,0.2,1.1c0.1,0.4,0.1,0.8,0.2,1.1
									c0,0.3,0.1,0.5,0.1,0.5s-0.1-0.2-0.1-0.5c0-0.1-0.1-0.3-0.1-0.5c0-0.2-0.1-0.4-0.1-0.6c0-0.2-0.1-0.4-0.1-0.6
									c0-0.2,0-0.4,0-0.5C37.2,13.7,37.2,13.5,37.2,13.5z"/>
								<path fill="#FFD15C" d="M37.9,16.6c0,0,0-0.2-0.1-0.5c0-0.1,0-0.3-0.1-0.5c0-0.1,0-0.2,0-0.3c0-0.1,0-0.2,0-0.3
									c0-0.2-0.1-0.4-0.1-0.6c0-0.2-0.1-0.4-0.1-0.5c-0.1-0.3-0.1-0.5-0.1-0.5s0.1,0.2,0.1,0.5c0,0.1,0.1,0.3,0.1,0.5
									c0,0.2,0.1,0.4,0.1,0.6c0,0.1,0,0.2,0,0.3c0,0.1,0,0.2,0,0.3c0,0.2,0,0.4,0,0.5C37.9,16.4,37.9,16.6,37.9,16.6z"/>
							</g>
						</g>
						<g>
							<g>
								<path fill="#FFD15C" d="M38.2,12.2c0,0,0,0,0.1,0.1c0,0,0.1,0.1,0.2,0.2c0.1,0.1,0.1,0.1,0.2,0.2c0.1,0.1,0.2,0.1,0.2,0.2
									c0.1,0.1,0.2,0.2,0.3,0.2c0.2,0.2,0.4,0.3,0.6,0.5c0.1,0.1,0.2,0.2,0.3,0.2c0.1,0.1,0.2,0.2,0.3,0.2
									c0.2,0.1,0.4,0.3,0.6,0.4c0.2,0.1,0.3,0.2,0.4,0.3c0.1,0.1,0.2,0.1,0.2,0.1s-0.3-0.1-0.6-0.3c-0.2-0.1-0.4-0.2-0.6-0.4
									c-0.2-0.1-0.4-0.3-0.7-0.5c-0.1-0.1-0.2-0.2-0.3-0.3c-0.1-0.1-0.2-0.2-0.3-0.3c-0.2-0.2-0.4-0.3-0.5-0.5
									c-0.1-0.2-0.3-0.3-0.3-0.4C38.2,12.2,38.2,12.2,38.2,12.2z"/>
								<path fill="#FFD15C" d="M42,14.4c0,0,0,0-0.1-0.1c-0.1-0.1-0.2-0.2-0.4-0.3c-0.2-0.1-0.3-0.3-0.5-0.5
									c-0.1-0.1-0.2-0.2-0.3-0.2c-0.1-0.1-0.2-0.2-0.3-0.2c-0.2-0.1-0.5-0.3-0.7-0.4c-0.2-0.1-0.4-0.2-0.6-0.3
									c-0.4-0.2-0.6-0.3-0.6-0.3s0.1,0,0.2,0.1c0.1,0,0.3,0.1,0.5,0.2c0.2,0.1,0.4,0.2,0.6,0.3c0.2,0.1,0.5,0.3,0.7,0.4
									c0.1,0.1,0.2,0.2,0.3,0.2c0.1,0.1,0.2,0.2,0.3,0.3c0.2,0.2,0.4,0.3,0.5,0.5C41.9,14.2,42,14.4,42,14.4z"/>
							</g>
							<g>
								<path fill="#FFD15C" d="M38.9,12.6c0,0,0,0,0.1,0.1c0.1,0.1,0.2,0.1,0.3,0.2c0.2,0.2,0.6,0.4,0.9,0.6
									c0.3,0.2,0.6,0.5,0.9,0.6c0.2,0.2,0.4,0.3,0.4,0.3s-0.2-0.1-0.4-0.2c-0.1-0.1-0.3-0.2-0.4-0.3c-0.2-0.1-0.3-0.2-0.5-0.3
									c-0.2-0.1-0.3-0.2-0.5-0.4c-0.1-0.1-0.3-0.2-0.4-0.3C39,12.7,38.9,12.6,38.9,12.6z"/>
								<path fill="#FFD15C" d="M41.6,14.3c0,0-0.2-0.1-0.4-0.3c-0.1-0.1-0.3-0.2-0.4-0.3c-0.1-0.1-0.1-0.1-0.2-0.2
									c-0.1-0.1-0.2-0.1-0.2-0.2c-0.2-0.1-0.3-0.2-0.5-0.3c-0.2-0.1-0.3-0.2-0.4-0.3c-0.2-0.2-0.4-0.3-0.4-0.3s0.2,0.1,0.4,0.2
									c0.1,0.1,0.3,0.2,0.4,0.3c0.2,0.1,0.3,0.2,0.5,0.3c0.1,0.1,0.2,0.1,0.2,0.2c0.1,0.1,0.2,0.1,0.2,0.2
									c0.1,0.1,0.3,0.2,0.4,0.3C41.4,14.2,41.6,14.3,41.6,14.3z"/>
							</g>
						</g>
						<g>
							<g>
								<path fill="#FFD15C" d="M38.6,11c0,0,0.1,0,0.2,0c0.1,0,0.1,0,0.2,0c0.1,0,0.2,0,0.3,0c0.1,0,0.2,0,0.3,0c0.1,0,0.2,0,0.4,0
									c0.3,0,0.5-0.1,0.8-0.1c0.1,0,0.3,0,0.4-0.1c0.1,0,0.3,0,0.4-0.1c0.3,0,0.5-0.1,0.7-0.1c0.2,0,0.4-0.1,0.5-0.1
									c0.1,0,0.2,0,0.2,0s-0.3,0.1-0.6,0.2c-0.2,0.1-0.4,0.1-0.7,0.2c-0.3,0.1-0.5,0.1-0.8,0.1c-0.1,0-0.3,0-0.4,0
									c-0.1,0-0.3,0-0.4,0c-0.3,0-0.5,0-0.7,0c-0.2,0-0.4,0-0.5,0C38.7,11,38.6,11,38.6,11z"/>
								<path fill="#FFD15C" d="M42.9,9.8c0,0-0.1,0-0.2,0c-0.1,0-0.3,0-0.5,0c-0.2,0-0.4,0-0.7,0.1c-0.1,0-0.3,0-0.4,0
									c-0.1,0-0.3,0-0.4,0.1c-0.3,0.1-0.5,0.1-0.8,0.2c-0.2,0.1-0.5,0.1-0.7,0.2c-0.4,0.1-0.7,0.2-0.7,0.2s0.1,0,0.2-0.1
									c0.1,0,0.3-0.1,0.5-0.2c0.2-0.1,0.4-0.2,0.7-0.2c0.2-0.1,0.5-0.2,0.8-0.2c0.1,0,0.3-0.1,0.4-0.1c0.1,0,0.3,0,0.4,0
									c0.3,0,0.5,0,0.7,0C42.6,9.8,42.9,9.8,42.9,9.8z"/>
							</g>
							<g>
								<path fill="#FFD15C" d="M39.4,10.8c0,0,0,0,0.1,0c0.1,0,0.2,0,0.4-0.1c0.3,0,0.7-0.1,1.1-0.2c0.4-0.1,0.8-0.1,1.1-0.2
									c0.3,0,0.5-0.1,0.5-0.1s-0.2,0.1-0.5,0.1c-0.1,0-0.3,0.1-0.5,0.1c-0.2,0-0.4,0.1-0.6,0.1c-0.2,0-0.4,0.1-0.6,0.1
									c-0.2,0-0.4,0-0.5,0C39.6,10.8,39.4,10.8,39.4,10.8z"/>
								<path fill="#FFD15C" d="M42.5,10.1c0,0-0.2,0-0.5,0.1c-0.1,0-0.3,0-0.5,0.1c-0.1,0-0.2,0-0.3,0c-0.1,0-0.2,0-0.3,0
									c-0.2,0-0.4,0.1-0.6,0.1c-0.2,0-0.4,0.1-0.5,0.1c-0.3,0.1-0.5,0.1-0.5,0.1s0.2-0.1,0.5-0.1c0.1,0,0.3-0.1,0.5-0.1
									c0.2,0,0.4-0.1,0.6-0.1c0.1,0,0.2,0,0.3,0c0.1,0,0.2,0,0.3,0c0.2,0,0.4,0,0.5,0C42.3,10.1,42.5,10.1,42.5,10.1z"/>
							</g>
						</g>
						<g>
							<g>
								<path fill="#FFD15C" d="M38,9.8c0,0,0,0,0.1-0.1c0,0,0.1-0.1,0.2-0.2c0.1-0.1,0.1-0.1,0.2-0.2c0.1-0.1,0.1-0.2,0.2-0.2
									C38.8,9,38.9,8.9,39,8.8c0.2-0.2,0.3-0.4,0.5-0.6c0.1-0.1,0.2-0.2,0.2-0.3c0.1-0.1,0.2-0.2,0.2-0.3c0.1-0.2,0.3-0.4,0.4-0.6
									c0.1-0.2,0.2-0.3,0.3-0.4c0.1-0.1,0.1-0.2,0.1-0.2S40.6,6.6,40.4,7c-0.1,0.2-0.2,0.4-0.4,0.6c-0.1,0.2-0.3,0.4-0.5,0.7
									c-0.1,0.1-0.2,0.2-0.3,0.3c-0.1,0.1-0.2,0.2-0.3,0.3c-0.2,0.2-0.3,0.4-0.5,0.5c-0.2,0.1-0.3,0.3-0.4,0.3
									C38.1,9.8,38,9.8,38,9.8z"/>
								<path fill="#FFD15C" d="M40.2,6c0,0,0,0-0.1,0.1c-0.1,0.1-0.2,0.2-0.3,0.4c-0.1,0.2-0.3,0.3-0.5,0.5
									c-0.1,0.1-0.2,0.2-0.2,0.3c-0.1,0.1-0.2,0.2-0.2,0.3c-0.1,0.2-0.3,0.5-0.4,0.7c-0.1,0.2-0.2,0.4-0.3,0.6
									c-0.2,0.4-0.3,0.6-0.3,0.6s0-0.1,0.1-0.2c0-0.1,0.1-0.3,0.2-0.5c0.1-0.2,0.2-0.4,0.3-0.6c0.1-0.2,0.3-0.5,0.4-0.7
									c0.1-0.1,0.2-0.2,0.2-0.3C39,7.1,39.1,7,39.2,6.9c0.2-0.2,0.3-0.4,0.5-0.5C40,6.1,40.2,6,40.2,6z"/>
							</g>
							<g>
								<path fill="#FFD15C" d="M38.4,9.1c0,0,0,0,0.1-0.1c0.1-0.1,0.1-0.2,0.2-0.3c0.2-0.2,0.4-0.6,0.6-0.9
									c0.2-0.3,0.5-0.6,0.6-0.9c0.2-0.2,0.3-0.4,0.3-0.4S40.2,6.7,40.1,7c-0.1,0.1-0.2,0.3-0.3,0.4c-0.1,0.2-0.2,0.3-0.3,0.5
									c-0.1,0.2-0.2,0.3-0.4,0.5c-0.1,0.1-0.2,0.3-0.3,0.4C38.6,9,38.4,9.1,38.4,9.1z"/>
								<path fill="#FFD15C" d="M40.1,6.4c0,0-0.1,0.2-0.3,0.4c-0.1,0.1-0.2,0.3-0.3,0.4c-0.1,0.1-0.1,0.1-0.2,0.2
									c-0.1,0.1-0.1,0.2-0.2,0.2C39.1,7.8,39,8,38.9,8.2c-0.1,0.2-0.2,0.3-0.3,0.4C38.4,8.8,38.3,9,38.3,9s0.1-0.2,0.2-0.4
									c0.1-0.1,0.2-0.3,0.3-0.4c0.1-0.2,0.2-0.3,0.3-0.5c0.1-0.1,0.1-0.2,0.2-0.2c0.1-0.1,0.1-0.2,0.2-0.2
									c0.1-0.1,0.2-0.3,0.3-0.4C40,6.6,40.1,6.4,40.1,6.4z"/>
							</g>
						</g>
					</g>
				</g>
				<g>
					<circle fill="#FFFFFF" cx="36.9" cy="11.1" r="1.6"/>
				</g>
				<g>
					<circle fill="#F05540" cx="36.9" cy="11.1" r="1"/>
				</g>
			</g>
		</g>
		<g>
			<g>
				<g>
					<g>
						<g>
							<g>
								<path fill="#F3705A" d="M22.4,6.6c0,0-0.7-3.1-0.1-4.6c0.5-1.7,1.1-1.9,1.1-1.9s0.4-0.2,0.6,0.3c0.2,0.5,0.5,3.4-1.4,6.3
									L22.4,6.6z"/>
							</g>
						</g>
						<g>
							<g>
								<path fill="#F05540" d="M22.9,5.6c0,0,0-0.1,0.1-0.2C23,5.4,23,5.3,23,5.2c0-0.1,0.1-0.2,0.1-0.3c0-0.1,0.1-0.2,0.1-0.4
									c0-0.1,0.1-0.3,0.1-0.4c0.1-0.3,0.1-0.6,0.2-0.9c0-0.2,0.1-0.3,0.1-0.5c0-0.2,0.1-0.3,0.1-0.5c0-0.3,0.1-0.6,0.1-0.8
									c0-0.2,0-0.4,0.1-0.6c0-0.1,0-0.2,0-0.2s0,0.3,0,0.8c0,0.2,0,0.5-0.1,0.8c0,0.3-0.1,0.6-0.1,0.9c0,0.2-0.1,0.3-0.1,0.5
									c0,0.2-0.1,0.3-0.1,0.4c-0.1,0.3-0.2,0.5-0.3,0.8C23.1,5.1,23,5.3,23,5.4C22.9,5.6,22.9,5.6,22.9,5.6z"/>
								<path fill="#F05540" d="M23.2,0.5c0,0,0,0.1-0.1,0.2c0,0.1-0.1,0.3-0.2,0.6c-0.1,0.2-0.1,0.5-0.2,0.8c0,0.1-0.1,0.3-0.1,0.4
									c0,0.2-0.1,0.3-0.1,0.5c0,0.3-0.1,0.6-0.1,0.9c0,0.3,0,0.6,0,0.8c0,0.5,0,0.8,0,0.8s0-0.1,0-0.2c0-0.1,0-0.3,0-0.6
									c0-0.2,0-0.5,0-0.8c0-0.3,0-0.6,0.1-0.9c0-0.2,0-0.3,0.1-0.5c0-0.2,0.1-0.3,0.1-0.5c0.1-0.3,0.2-0.6,0.3-0.8
									C23.1,0.8,23.2,0.5,23.2,0.5z"/>
							</g>
							<g>
								<path fill="#F05540" d="M22.9,4.7c0,0,0-0.1,0-0.2c0-0.1,0-0.2,0.1-0.4c0.1-0.3,0.1-0.8,0.2-1.2c0.1-0.5,0.2-0.9,0.2-1.2
									c0.1-0.3,0.1-0.6,0.1-0.6s0,0.2,0,0.6c0,0.2,0,0.4-0.1,0.6c0,0.2-0.1,0.4-0.1,0.7c0,0.2-0.1,0.5-0.1,0.7
									c0,0.2-0.1,0.4-0.1,0.6C23,4.5,22.9,4.7,22.9,4.7z"/>
								<path fill="#F05540" d="M23.4,1c0,0,0,0.2-0.1,0.6c0,0.2-0.1,0.4-0.1,0.6c0,0.1,0,0.2-0.1,0.3c0,0.1,0,0.2-0.1,0.3
									c0,0.2-0.1,0.5-0.1,0.7c0,0.2-0.1,0.4-0.1,0.6c-0.1,0.3-0.1,0.6-0.1,0.6s0-0.2,0-0.6c0-0.2,0-0.4,0.1-0.6
									c0-0.2,0.1-0.4,0.1-0.7c0-0.1,0-0.2,0.1-0.3C23,2.4,23,2.3,23,2.1c0.1-0.2,0.1-0.4,0.2-0.6C23.3,1.2,23.4,1,23.4,1z"/>
							</g>
						</g>
					</g>
					<g>
						<g>
							<g>
								<path fill="#F3705A" d="M21.7,6.8c0,0-2.7-1.7-3.3-3.2c-0.8-1.6-0.6-2.1-0.6-2.1s0.1-0.4,0.6-0.3c0.5,0.2,2.8,2,3.5,5.4
									L21.7,6.8z"/>
							</g>
						</g>
						<g>
							<g>
								<path fill="#F05540" d="M21.4,5.8c0,0,0-0.1-0.1-0.2c0-0.1-0.1-0.1-0.1-0.2c0-0.1-0.1-0.2-0.2-0.3C21,5,20.9,4.9,20.8,4.8
									c-0.1-0.1-0.1-0.2-0.2-0.4c-0.2-0.3-0.3-0.5-0.5-0.8c-0.1-0.1-0.2-0.3-0.3-0.4c-0.1-0.1-0.2-0.3-0.3-0.4
									c-0.2-0.2-0.3-0.5-0.5-0.6c-0.2-0.2-0.3-0.3-0.4-0.4c-0.1-0.1-0.1-0.2-0.1-0.2s0.2,0.2,0.6,0.6c0.2,0.2,0.4,0.4,0.5,0.6
									c0.2,0.2,0.4,0.5,0.6,0.8c0.1,0.1,0.2,0.3,0.3,0.4c0.1,0.1,0.2,0.3,0.2,0.4c0.1,0.3,0.3,0.5,0.4,0.7
									c0.1,0.2,0.2,0.4,0.2,0.5C21.4,5.7,21.4,5.8,21.4,5.8z"/>
								<path fill="#F05540" d="M18,2c0,0,0,0.1,0.1,0.2c0.1,0.1,0.2,0.3,0.3,0.5c0.1,0.2,0.3,0.4,0.4,0.7c0.1,0.1,0.2,0.3,0.2,0.4
									c0.1,0.1,0.2,0.3,0.3,0.4c0.2,0.3,0.4,0.5,0.6,0.7c0.2,0.2,0.4,0.4,0.6,0.6C20.8,5.8,21,6,21,6S21,6,20.9,5.9
									c-0.1-0.1-0.3-0.2-0.4-0.4c-0.2-0.2-0.4-0.4-0.6-0.6c-0.2-0.2-0.4-0.5-0.6-0.7C19.1,4.1,19,4,18.9,3.8
									c-0.1-0.1-0.2-0.3-0.2-0.4c-0.1-0.3-0.3-0.5-0.4-0.7C18.1,2.3,18,2,18,2z"/>
							</g>
							<g>
								<path fill="#F05540" d="M20.8,5.1c0,0,0,0-0.1-0.1c-0.1-0.1-0.1-0.2-0.2-0.3c-0.2-0.3-0.5-0.7-0.7-1c-0.3-0.4-0.5-0.8-0.7-1
									c-0.2-0.3-0.3-0.5-0.3-0.5s0.2,0.2,0.4,0.4c0.1,0.1,0.2,0.3,0.4,0.5c0.1,0.2,0.3,0.4,0.4,0.5c0.1,0.2,0.3,0.4,0.4,0.6
									c0.1,0.2,0.2,0.4,0.3,0.5C20.7,4.9,20.8,5.1,20.8,5.1z"/>
								<path fill="#F05540" d="M18.5,2.2c0,0,0.1,0.2,0.3,0.5C18.9,2.8,19,3,19.1,3.2c0.1,0.1,0.1,0.2,0.2,0.3
									c0.1,0.1,0.1,0.2,0.2,0.3c0.1,0.2,0.3,0.4,0.4,0.5c0.1,0.2,0.2,0.3,0.3,0.5c0.2,0.3,0.3,0.5,0.3,0.5s-0.2-0.2-0.4-0.4
									c-0.1-0.1-0.2-0.3-0.4-0.5c-0.1-0.2-0.3-0.4-0.4-0.5c-0.1-0.1-0.1-0.2-0.2-0.3c-0.1-0.1-0.1-0.2-0.2-0.3
									c-0.1-0.2-0.2-0.4-0.3-0.5C18.6,2.4,18.5,2.2,18.5,2.2z"/>
							</g>
						</g>
					</g>
					<g>
						<g>
							<g>
								<path fill="#F3705A" d="M21.4,7.5c0,0-3.1,0.7-4.6,0.1c-1.7-0.5-1.9-1.1-1.9-1.1s-0.2-0.4,0.3-0.6c0.5-0.2,3.4-0.5,6.3,1.4
									L21.4,7.5z"/>
							</g>
						</g>
						<g>
							<g>
								<path fill="#F05540" d="M20.5,7c0,0-0.1,0-0.2-0.1c-0.1,0-0.1-0.1-0.2-0.1c-0.1,0-0.2-0.1-0.3-0.1c-0.1,0-0.2-0.1-0.4-0.1
									c-0.1,0-0.3-0.1-0.4-0.1c-0.3-0.1-0.6-0.1-0.9-0.2c-0.2,0-0.3-0.1-0.5-0.1c-0.2,0-0.3-0.1-0.5-0.1c-0.3,0-0.6-0.1-0.8-0.1
									c-0.2,0-0.4,0-0.6-0.1c-0.1,0-0.2,0-0.2,0s0.3,0,0.8,0c0.2,0,0.5,0,0.8,0.1c0.3,0,0.6,0.1,0.9,0.1c0.2,0,0.3,0.1,0.5,0.1
									c0.2,0,0.3,0.1,0.4,0.1c0.3,0.1,0.6,0.2,0.8,0.3c0.2,0.1,0.4,0.2,0.5,0.2C20.4,7,20.5,7,20.5,7z"/>
								<path fill="#F05540" d="M15.4,6.6c0,0,0.1,0,0.2,0.1c0.1,0,0.3,0.1,0.6,0.2C16.4,7,16.6,7,16.9,7.1c0.1,0,0.3,0.1,0.4,0.1
									c0.2,0,0.3,0.1,0.5,0.1c0.3,0,0.6,0.1,0.9,0.1c0.3,0,0.6,0,0.8,0c0.5,0,0.8,0,0.8,0s-0.1,0-0.2,0c-0.1,0-0.3,0-0.6,0
									c-0.2,0-0.5,0-0.8,0c-0.3,0-0.6,0-0.9-0.1c-0.2,0-0.3,0-0.5-0.1c-0.2,0-0.3-0.1-0.5-0.1c-0.3-0.1-0.6-0.2-0.8-0.3
									C15.6,6.8,15.4,6.6,15.4,6.6z"/>
							</g>
							<g>
								<path fill="#F05540" d="M19.5,6.9c0,0-0.1,0-0.2,0c-0.1,0-0.2,0-0.4-0.1c-0.3-0.1-0.8-0.1-1.2-0.2c-0.5-0.1-0.9-0.2-1.2-0.2
									c-0.3-0.1-0.6-0.1-0.6-0.1s0.2,0,0.6,0c0.2,0,0.4,0,0.6,0.1c0.2,0,0.4,0.1,0.7,0.1c0.2,0,0.5,0.1,0.7,0.1
									c0.2,0,0.4,0.1,0.6,0.1C19.3,6.9,19.5,6.9,19.5,6.9z"/>
								<path fill="#F05540" d="M15.9,6.5c0,0,0.2,0,0.6,0.1c0.2,0,0.4,0.1,0.6,0.1c0.1,0,0.2,0,0.3,0.1c0.1,0,0.2,0,0.3,0.1
									c0.2,0,0.5,0.1,0.7,0.1c0.2,0,0.4,0.1,0.6,0.1c0.3,0.1,0.6,0.1,0.6,0.1s-0.2,0-0.6,0c-0.2,0-0.4,0-0.6-0.1
									c-0.2,0-0.4-0.1-0.7-0.1c-0.1,0-0.2,0-0.3-0.1c-0.1,0-0.2-0.1-0.3-0.1c-0.2-0.1-0.4-0.1-0.6-0.2C16.1,6.6,15.9,6.5,15.9,6.5
									z"/>
							</g>
						</g>
					</g>
					<g>
						<g>
							<g>
								<path fill="#F3705A" d="M21.7,8.2c0,0-1.7,2.7-3.2,3.3c-1.6,0.8-2.1,0.6-2.1,0.6S16,12,16.1,11.5c0.2-0.5,2-2.8,5.4-3.5
									L21.7,8.2z"/>
							</g>
						</g>
						<g>
							<g>
								<path fill="#F05540" d="M20.7,8.5c0,0-0.1,0-0.2,0.1c-0.1,0-0.1,0.1-0.2,0.1c-0.1,0-0.2,0.1-0.3,0.2C19.9,8.9,19.7,9,19.6,9
									c-0.1,0.1-0.2,0.1-0.4,0.2c-0.3,0.2-0.5,0.3-0.8,0.5c-0.1,0.1-0.3,0.2-0.4,0.3c-0.1,0.1-0.3,0.2-0.4,0.3
									c-0.2,0.2-0.5,0.3-0.6,0.5c-0.2,0.2-0.3,0.3-0.4,0.4c-0.1,0.1-0.2,0.1-0.2,0.1s0.2-0.2,0.6-0.6c0.2-0.2,0.4-0.4,0.6-0.5
									c0.2-0.2,0.5-0.4,0.8-0.6c0.1-0.1,0.3-0.2,0.4-0.3c0.1-0.1,0.3-0.2,0.4-0.2c0.3-0.1,0.5-0.3,0.7-0.4
									c0.2-0.1,0.4-0.2,0.5-0.2C20.6,8.5,20.7,8.5,20.7,8.5z"/>
								<path fill="#F05540" d="M16.8,11.9c0,0,0.1,0,0.2-0.1c0.1-0.1,0.3-0.2,0.5-0.3c0.2-0.1,0.4-0.3,0.7-0.4
									c0.1-0.1,0.3-0.2,0.4-0.2c0.1-0.1,0.3-0.2,0.4-0.3c0.3-0.2,0.5-0.4,0.7-0.6c0.2-0.2,0.4-0.4,0.6-0.6
									c0.3-0.3,0.6-0.6,0.6-0.6s0,0.1-0.1,0.2c-0.1,0.1-0.2,0.3-0.4,0.4C20.2,9.6,20,9.8,19.8,10c-0.2,0.2-0.5,0.4-0.7,0.6
									c-0.1,0.1-0.3,0.2-0.4,0.3c-0.1,0.1-0.3,0.2-0.4,0.2c-0.3,0.1-0.5,0.3-0.7,0.4C17.1,11.8,16.8,11.9,16.8,11.9z"/>
							</g>
							<g>
								<path fill="#F05540" d="M20,9.1c0,0,0,0-0.1,0.1c-0.1,0.1-0.2,0.1-0.3,0.2c-0.3,0.2-0.7,0.5-1,0.7c-0.4,0.3-0.8,0.5-1,0.7
									c-0.3,0.2-0.5,0.3-0.5,0.3s0.2-0.2,0.4-0.4c0.1-0.1,0.3-0.2,0.5-0.4c0.2-0.1,0.4-0.3,0.5-0.4c0.2-0.1,0.4-0.3,0.6-0.4
									c0.2-0.1,0.4-0.2,0.5-0.3C19.8,9.2,20,9.1,20,9.1z"/>
								<path fill="#F05540" d="M17.1,11.4c0,0,0.2-0.1,0.5-0.3c0.1-0.1,0.3-0.2,0.5-0.3c0.1-0.1,0.2-0.1,0.3-0.2
									c0.1-0.1,0.2-0.1,0.3-0.2c0.2-0.1,0.4-0.3,0.5-0.4c0.2-0.1,0.3-0.2,0.5-0.3c0.3-0.2,0.5-0.3,0.5-0.3s-0.2,0.2-0.4,0.4
									c-0.1,0.1-0.3,0.2-0.5,0.4c-0.2,0.1-0.4,0.3-0.5,0.4c-0.1,0.1-0.2,0.1-0.3,0.2c-0.1,0.1-0.2,0.1-0.3,0.2
									c-0.2,0.1-0.4,0.2-0.5,0.3C17.3,11.3,17.1,11.4,17.1,11.4z"/>
							</g>
						</g>
					</g>
					<g>
						<g>
							<g>
								<path fill="#F3705A" d="M22.3,8.5c0,0,0.7,3.1,0.1,4.6c-0.5,1.7-1.1,1.9-1.1,1.9s-0.4,0.2-0.6-0.3c-0.2-0.5-0.5-3.4,1.4-6.3
									L22.3,8.5z"/>
							</g>
						</g>
						<g>
							<g>
								<path fill="#F05540" d="M21.9,9.4c0,0,0,0.1-0.1,0.2c0,0.1-0.1,0.1-0.1,0.2c0,0.1-0.1,0.2-0.1,0.3c0,0.1-0.1,0.2-0.1,0.4
									c0,0.1-0.1,0.3-0.1,0.4c-0.1,0.3-0.1,0.6-0.2,0.9c0,0.2-0.1,0.3-0.1,0.5c0,0.2-0.1,0.3-0.1,0.5c0,0.3-0.1,0.6-0.1,0.8
									c0,0.2,0,0.4-0.1,0.6c0,0.1,0,0.2,0,0.2s0-0.3,0-0.8c0-0.2,0-0.5,0.1-0.8c0-0.3,0.1-0.6,0.1-0.9c0-0.2,0.1-0.3,0.1-0.5
									c0-0.2,0.1-0.3,0.1-0.4c0.1-0.3,0.2-0.6,0.3-0.8c0.1-0.2,0.2-0.4,0.2-0.5C21.8,9.5,21.9,9.4,21.9,9.4z"/>
								<path fill="#F05540" d="M21.5,14.5c0,0,0-0.1,0.1-0.2c0-0.1,0.1-0.3,0.2-0.6c0.1-0.2,0.1-0.5,0.2-0.8c0-0.1,0.1-0.3,0.1-0.4
									c0-0.2,0.1-0.3,0.1-0.5c0-0.3,0.1-0.6,0.1-0.9c0-0.3,0-0.6,0-0.8c0-0.5,0-0.8,0-0.8s0,0.1,0,0.2c0,0.1,0,0.3,0,0.6
									c0,0.2,0,0.5,0,0.8c0,0.3,0,0.6-0.1,0.9c0,0.2,0,0.3-0.1,0.5c0,0.2-0.1,0.3-0.1,0.5c-0.1,0.3-0.2,0.6-0.3,0.8
									C21.6,14.2,21.5,14.5,21.5,14.5z"/>
							</g>
							<g>
								<path fill="#F05540" d="M21.8,10.3c0,0,0,0.1,0,0.2c0,0.1,0,0.2-0.1,0.4c-0.1,0.3-0.1,0.8-0.2,1.2c-0.1,0.5-0.2,0.9-0.2,1.2
									c-0.1,0.3-0.1,0.6-0.1,0.6s0-0.2,0-0.6c0-0.2,0-0.4,0.1-0.6c0-0.2,0.1-0.4,0.1-0.7c0-0.2,0.1-0.5,0.1-0.7
									c0-0.2,0.1-0.4,0.1-0.6C21.7,10.6,21.8,10.3,21.8,10.3z"/>
								<path fill="#F05540" d="M21.4,14c0,0,0-0.2,0.1-0.6c0-0.2,0.1-0.4,0.1-0.6c0-0.1,0-0.2,0.1-0.3c0-0.1,0-0.2,0.1-0.3
									c0-0.2,0.1-0.5,0.1-0.7c0-0.2,0.1-0.4,0.1-0.6c0.1-0.3,0.1-0.6,0.1-0.6s0,0.2,0,0.6c0,0.2,0,0.4-0.1,0.6
									c0,0.2-0.1,0.4-0.1,0.7c0,0.1,0,0.2-0.1,0.3c0,0.1-0.1,0.2-0.1,0.3c-0.1,0.2-0.1,0.4-0.2,0.6C21.4,13.8,21.4,14,21.4,14z"/>
							</g>
						</g>
					</g>
					<g>
						<g>
							<g>
								<path fill="#F3705A" d="M23,8.2c0,0,2.7,1.7,3.3,3.2c0.8,1.6,0.6,2.1,0.6,2.1s-0.1,0.4-0.6,0.3c-0.5-0.2-2.8-2-3.5-5.4
									L23,8.2z"/>
							</g>
						</g>
						<g>
							<g>
								<path fill="#F05540" d="M23.3,9.2c0,0,0,0.1,0.1,0.2c0,0.1,0.1,0.1,0.1,0.2c0,0.1,0.1,0.2,0.2,0.3c0.1,0.1,0.1,0.2,0.2,0.3
									c0.1,0.1,0.1,0.2,0.2,0.4c0.2,0.3,0.3,0.5,0.5,0.8c0.1,0.1,0.2,0.3,0.3,0.4c0.1,0.1,0.2,0.3,0.3,0.4
									c0.2,0.2,0.3,0.5,0.5,0.6c0.2,0.2,0.3,0.3,0.4,0.4c0.1,0.1,0.1,0.2,0.1,0.2s-0.2-0.2-0.6-0.6c-0.2-0.2-0.4-0.4-0.5-0.6
									c-0.2-0.2-0.4-0.5-0.6-0.8c-0.1-0.1-0.2-0.3-0.3-0.4c-0.1-0.1-0.2-0.3-0.2-0.4c-0.1-0.3-0.3-0.5-0.4-0.7
									c-0.1-0.2-0.2-0.4-0.2-0.5C23.4,9.3,23.3,9.2,23.3,9.2z"/>
								<path fill="#F05540" d="M26.7,13.1c0,0,0-0.1-0.1-0.2c-0.1-0.1-0.2-0.3-0.3-0.5c-0.1-0.2-0.3-0.4-0.4-0.7
									c-0.1-0.1-0.2-0.3-0.2-0.4c-0.1-0.1-0.2-0.3-0.3-0.4c-0.2-0.3-0.4-0.5-0.6-0.7c-0.2-0.2-0.4-0.4-0.6-0.6
									C23.9,9.3,23.7,9,23.7,9s0.1,0,0.2,0.1c0.1,0.1,0.3,0.2,0.4,0.4c0.2,0.2,0.4,0.4,0.6,0.6c0.2,0.2,0.4,0.5,0.6,0.7
									c0.1,0.1,0.2,0.3,0.3,0.4c0.1,0.1,0.2,0.3,0.2,0.4c0.1,0.3,0.3,0.5,0.4,0.7C26.6,12.8,26.7,13.1,26.7,13.1z"/>
							</g>
							<g>
								<path fill="#F05540" d="M23.9,9.9c0,0,0,0,0.1,0.1c0.1,0.1,0.1,0.2,0.2,0.3c0.2,0.3,0.5,0.7,0.7,1c0.3,0.4,0.5,0.8,0.7,1
									c0.2,0.3,0.3,0.5,0.3,0.5s-0.2-0.2-0.4-0.4c-0.1-0.1-0.2-0.3-0.4-0.5c-0.1-0.2-0.3-0.4-0.4-0.5c-0.1-0.2-0.3-0.4-0.4-0.6
									c-0.1-0.2-0.2-0.4-0.3-0.5C24,10.1,23.9,9.9,23.9,9.9z"/>
								<path fill="#F05540" d="M26.3,12.8c0,0-0.1-0.2-0.3-0.5c-0.1-0.1-0.2-0.3-0.3-0.5c-0.1-0.1-0.1-0.2-0.2-0.3
									c-0.1-0.1-0.1-0.2-0.2-0.3c-0.1-0.2-0.3-0.4-0.4-0.5c-0.1-0.2-0.2-0.3-0.3-0.5c-0.2-0.3-0.3-0.5-0.3-0.5s0.2,0.2,0.4,0.4
									c0.1,0.1,0.2,0.3,0.4,0.5c0.1,0.2,0.3,0.4,0.4,0.5c0.1,0.1,0.1,0.2,0.2,0.3c0.1,0.1,0.1,0.2,0.2,0.3
									c0.1,0.2,0.2,0.4,0.3,0.5C26.1,12.6,26.3,12.8,26.3,12.8z"/>
							</g>
						</g>
					</g>
					<g>
						<g>
							<g>
								<path fill="#F3705A" d="M23.3,7.6c0,0,3.1-0.7,4.6-0.1c1.7,0.5,1.9,1.1,1.9,1.1s0.2,0.4-0.3,0.6c-0.5,0.2-3.4,0.5-6.3-1.4
									L23.3,7.6z"/>
							</g>
						</g>
						<g>
							<g>
								<path fill="#F05540" d="M24.3,8c0,0,0.1,0,0.2,0.1c0.1,0,0.1,0.1,0.2,0.1c0.1,0,0.2,0.1,0.3,0.1c0.1,0,0.2,0.1,0.4,0.1
									c0.1,0,0.3,0.1,0.4,0.1c0.3,0.1,0.6,0.1,0.9,0.2c0.2,0,0.3,0.1,0.5,0.1c0.2,0,0.3,0.1,0.5,0.1c0.3,0,0.6,0.1,0.8,0.1
									C28.7,9,28.9,9,29,9c0.1,0,0.2,0,0.2,0s-0.3,0-0.8,0c-0.2,0-0.5,0-0.8-0.1c-0.3,0-0.6-0.1-0.9-0.1c-0.2,0-0.3-0.1-0.5-0.1
									c-0.2,0-0.3-0.1-0.4-0.1c-0.3-0.1-0.5-0.2-0.8-0.3c-0.2-0.1-0.4-0.2-0.5-0.2C24.3,8.1,24.3,8,24.3,8z"/>
								<path fill="#F05540" d="M29.4,8.4c0,0-0.1,0-0.2-0.1c-0.1,0-0.3-0.1-0.6-0.2C28.4,8.1,28.1,8,27.8,8c-0.1,0-0.3-0.1-0.4-0.1
									c-0.2,0-0.3-0.1-0.5-0.1c-0.3,0-0.6-0.1-0.9-0.1c-0.3,0-0.6,0-0.8,0c-0.5,0-0.8,0-0.8,0s0.1,0,0.2,0c0.1,0,0.3,0,0.6,0
									c0.2,0,0.5,0,0.8,0c0.3,0,0.6,0,0.9,0.1c0.2,0,0.3,0,0.5,0.1c0.2,0,0.3,0.1,0.5,0.1c0.3,0.1,0.6,0.2,0.8,0.3
									C29.1,8.2,29.4,8.4,29.4,8.4z"/>
							</g>
							<g>
								<path fill="#F05540" d="M25.2,8.1c0,0,0.1,0,0.2,0c0.1,0,0.2,0,0.4,0.1c0.3,0.1,0.8,0.1,1.2,0.2c0.5,0.1,0.9,0.2,1.2,0.2
									c0.3,0.1,0.6,0.1,0.6,0.1s-0.2,0-0.6,0c-0.2,0-0.4,0-0.6-0.1c-0.2,0-0.4-0.1-0.7-0.1c-0.2,0-0.5-0.1-0.7-0.1
									c-0.2,0-0.4-0.1-0.6-0.1C25.4,8.2,25.2,8.1,25.2,8.1z"/>
								<path fill="#F05540" d="M28.9,8.5c0,0-0.2,0-0.6-0.1c-0.2,0-0.4-0.1-0.6-0.1c-0.1,0-0.2,0-0.3-0.1c-0.1,0-0.2,0-0.3-0.1
									c-0.2,0-0.5-0.1-0.7-0.1C26.2,8,26,8,25.8,8c-0.3-0.1-0.6-0.1-0.6-0.1s0.2,0,0.6,0c0.2,0,0.4,0,0.6,0.1
									c0.2,0,0.4,0.1,0.7,0.1c0.1,0,0.2,0,0.3,0.1c0.1,0,0.2,0.1,0.3,0.1c0.2,0.1,0.4,0.1,0.6,0.2C28.6,8.4,28.9,8.5,28.9,8.5z"/>
							</g>
						</g>
					</g>
					<g>
						<g>
							<g>
								<path fill="#F3705A" d="M23.1,6.9c0,0,1.7-2.7,3.2-3.3c1.6-0.8,2.1-0.6,2.1-0.6s0.4,0.1,0.3,0.6c-0.2,0.5-2,2.8-5.4,3.5
									L23.1,6.9z"/>
							</g>
						</g>
						<g>
							<g>
								<path fill="#F05540" d="M24.1,6.5c0,0,0.1,0,0.2-0.1c0.1,0,0.1-0.1,0.2-0.1c0.1,0,0.2-0.1,0.3-0.2C24.9,6.1,25,6.1,25.1,6
									c0.1-0.1,0.2-0.1,0.4-0.2c0.3-0.2,0.5-0.3,0.8-0.5c0.1-0.1,0.3-0.2,0.4-0.3c0.1-0.1,0.3-0.2,0.4-0.3
									c0.2-0.2,0.5-0.3,0.6-0.5C27.8,4.1,28,4,28.1,3.9c0.1-0.1,0.2-0.1,0.2-0.1S28.1,4,27.7,4.3c-0.2,0.2-0.4,0.4-0.6,0.5
									c-0.2,0.2-0.5,0.4-0.8,0.6c-0.1,0.1-0.3,0.2-0.4,0.3c-0.1,0.1-0.3,0.2-0.4,0.2C25.3,6,25,6.2,24.8,6.3
									c-0.2,0.1-0.4,0.2-0.5,0.2C24.1,6.5,24.1,6.5,24.1,6.5z"/>
								<path fill="#F05540" d="M27.9,3.2c0,0-0.1,0-0.2,0.1c-0.1,0.1-0.3,0.2-0.5,0.3C27,3.7,26.8,3.8,26.5,4
									c-0.1,0.1-0.3,0.2-0.4,0.2c-0.1,0.1-0.3,0.2-0.4,0.3c-0.3,0.2-0.5,0.4-0.7,0.6c-0.2,0.2-0.4,0.4-0.6,0.6
									c-0.3,0.3-0.6,0.6-0.6,0.6s0-0.1,0.1-0.2c0.1-0.1,0.2-0.3,0.4-0.4C24.5,5.4,24.7,5.2,25,5c0.2-0.2,0.5-0.4,0.7-0.6
									c0.1-0.1,0.3-0.2,0.4-0.3c0.1-0.1,0.3-0.2,0.4-0.2c0.3-0.1,0.5-0.3,0.7-0.4C27.6,3.3,27.9,3.2,27.9,3.2z"/>
							</g>
							<g>
								<path fill="#F05540" d="M24.8,5.9c0,0,0,0,0.1-0.1c0.1-0.1,0.2-0.1,0.3-0.2c0.3-0.2,0.7-0.5,1-0.7c0.4-0.3,0.8-0.5,1-0.7
									c0.3-0.2,0.5-0.3,0.5-0.3S27.6,4,27.3,4.2c-0.1,0.1-0.3,0.2-0.5,0.4c-0.2,0.1-0.4,0.3-0.5,0.4c-0.2,0.1-0.4,0.3-0.6,0.4
									c-0.2,0.1-0.4,0.2-0.5,0.3C25,5.8,24.8,5.9,24.8,5.9z"/>
								<path fill="#F05540" d="M27.7,3.6c0,0-0.2,0.1-0.5,0.3c-0.1,0.1-0.3,0.2-0.5,0.3c-0.1,0.1-0.2,0.1-0.3,0.2
									c-0.1,0.1-0.2,0.1-0.3,0.2c-0.2,0.1-0.4,0.3-0.5,0.4c-0.2,0.1-0.3,0.2-0.5,0.3c-0.3,0.2-0.5,0.3-0.5,0.3s0.2-0.2,0.4-0.4
									c0.1-0.1,0.3-0.2,0.5-0.4c0.2-0.1,0.4-0.3,0.5-0.4c0.1-0.1,0.2-0.1,0.3-0.2c0.1-0.1,0.2-0.1,0.3-0.2C26.8,4.1,27,4,27.2,3.9
									C27.5,3.7,27.7,3.6,27.7,3.6z"/>
							</g>
						</g>
					</g>
				</g>
				<g>
					<g>
						<g>
							<g>
								<g>
									<path fill="#F05540" d="M22.1,6.6c0,0-1.7-2.7-1.6-4.3c-0.1-1.8,0.4-2.1,0.4-2.1s0.3-0.3,0.7,0c0.4,0.4,1.6,3,0.8,6.4
										L22.1,6.6z"/>
								</g>
							</g>
						</g>
						<g>
							<g>
								<g>
									<path fill="#F05540" d="M21.5,7.1c0,0-3.1-0.8-4.2-1.9c-1.3-1.2-1.2-1.8-1.2-1.8s0-0.4,0.5-0.4c0.5,0,3.3,1,5.1,4L21.5,7.1
										z"/>
								</g>
							</g>
						</g>
						<g>
							<g>
								<g>
									<path fill="#F05540" d="M21.4,7.8c0,0-2.7,1.7-4.3,1.6C15.4,9.5,15,9,15,9s-0.3-0.3,0-0.7c0.4-0.4,3-1.6,6.4-0.8L21.4,7.8z
										"/>
								</g>
							</g>
						</g>
						<g>
							<g>
								<g>
									<path fill="#F05540" d="M21.9,8.4c0,0-0.8,3.1-1.9,4.2c-1.2,1.3-1.8,1.2-1.8,1.2s-0.4,0-0.4-0.5c0-0.5,1-3.3,4-5.1
										L21.9,8.4z"/>
								</g>
							</g>
						</g>
						<g>
							<g>
								<g>
									<path fill="#F05540" d="M22.6,8.4c0,0,1.7,2.7,1.6,4.3c0.1,1.8-0.4,2.1-0.4,2.1s-0.3,0.3-0.7,0c-0.4-0.4-1.6-3-0.8-6.4
										L22.6,8.4z"/>
								</g>
							</g>
						</g>
						<g>
							<g>
								<g>
									<path fill="#F05540" d="M23.2,8c0,0,3.1,0.8,4.2,1.9c1.3,1.2,1.2,1.8,1.2,1.8s0,0.4-0.5,0.4c-0.5,0-3.3-1-5.1-4L23.2,8z"/>
								</g>
							</g>
						</g>
						<g>
							<g>
								<g>
									<path fill="#F05540" d="M23.3,7.3c0,0,2.7-1.7,4.3-1.6C29.4,5.6,29.8,6,29.8,6s0.3,0.3,0,0.7c-0.4,0.4-3,1.6-6.4,0.8
										L23.3,7.3z"/>
								</g>
							</g>
						</g>
						<g>
							<g>
								<g>
									<path fill="#F05540" d="M22.8,6.7c0,0,0.8-3.1,1.9-4.2c1.2-1.3,1.8-1.2,1.8-1.2s0.4,0,0.4,0.5c0,0.5-1,3.3-4,5.1L22.8,6.7z
										"/>
								</g>
							</g>
						</g>
					</g>
					<g>
						<g>
							<g>
								<g>
									<path fill="#F3705A" d="M22.2,5.6c0,0,0-0.1,0-0.2c0-0.1,0-0.2,0-0.3c0-0.1,0-0.2,0-0.3c0-0.1,0-0.2,0-0.4
										c0-0.1,0-0.3,0-0.4c0-0.3-0.1-0.6-0.1-0.9c0-0.2,0-0.3-0.1-0.5c0-0.2,0-0.3-0.1-0.4c-0.1-0.3-0.1-0.6-0.2-0.8
										c-0.1-0.2-0.1-0.4-0.1-0.6c0-0.1-0.1-0.2-0.1-0.2s0.1,0.3,0.3,0.7C21.9,1.5,22,1.8,22,2.1c0.1,0.3,0.1,0.6,0.2,0.9
										c0,0.2,0,0.3,0.1,0.5c0,0.2,0,0.3,0,0.5c0,0.3,0,0.6,0,0.8c0,0.2,0,0.4,0,0.6C22.2,5.5,22.2,5.6,22.2,5.6z"/>
								</g>
								<path fill="#F3705A" d="M20.9,0.6c0,0,0,0.1,0,0.2c0,0.1,0,0.3,0,0.6c0,0.2,0,0.5,0.1,0.8c0,0.2,0,0.3,0,0.5
									c0,0.2,0.1,0.3,0.1,0.5c0.1,0.3,0.1,0.6,0.2,0.9c0.1,0.3,0.2,0.6,0.2,0.8c0.1,0.5,0.2,0.8,0.2,0.8s0-0.1-0.1-0.2
									c-0.1-0.1-0.1-0.3-0.2-0.5c-0.1-0.2-0.2-0.5-0.3-0.8c-0.1-0.3-0.2-0.6-0.2-0.9c0-0.2-0.1-0.3-0.1-0.5c0-0.2,0-0.3,0-0.5
									c0-0.3,0-0.6,0-0.8C20.9,0.9,20.9,0.6,20.9,0.6z"/>
							</g>
							<g>
								<path fill="#F3705A" d="M22,4.7c0,0,0-0.1,0-0.2c0-0.1,0-0.2-0.1-0.4c-0.1-0.3-0.1-0.8-0.2-1.2c-0.1-0.5-0.1-0.9-0.2-1.2
									C21.5,1.3,21.4,1,21.4,1s0.1,0.2,0.2,0.6c0,0.2,0.1,0.4,0.1,0.6c0,0.2,0.1,0.4,0.1,0.7c0,0.2,0.1,0.5,0.1,0.7
									c0,0.2,0,0.4,0.1,0.6C22,4.4,22,4.7,22,4.7z"/>
								<path fill="#F3705A" d="M21.2,1.1c0,0,0,0.2,0.1,0.6c0,0.2,0,0.4,0.1,0.6c0,0.1,0,0.2,0,0.3c0,0.1,0,0.2,0.1,0.3
									c0,0.2,0.1,0.5,0.1,0.7c0,0.2,0.1,0.4,0.1,0.6c0.1,0.3,0.1,0.6,0.1,0.6s-0.1-0.2-0.2-0.6c0-0.2-0.1-0.4-0.1-0.6
									c0-0.2-0.1-0.4-0.1-0.7c0-0.1,0-0.2,0-0.3c0-0.1,0-0.2,0-0.3c0-0.2,0-0.4,0-0.6C21.2,1.3,21.2,1.1,21.2,1.1z"/>
							</g>
						</g>
						<g>
							<g>
								<path fill="#F3705A" d="M20.9,6.2c0,0-0.1-0.1-0.2-0.2c-0.1,0-0.1-0.1-0.2-0.2c-0.1-0.1-0.2-0.1-0.2-0.2
									c-0.1-0.1-0.2-0.2-0.3-0.3c-0.1-0.1-0.2-0.2-0.3-0.3C19.5,5,19.2,4.8,19,4.6c-0.1-0.1-0.3-0.2-0.4-0.3
									c-0.1-0.1-0.3-0.2-0.4-0.3c-0.2-0.2-0.5-0.3-0.7-0.4c-0.2-0.1-0.4-0.2-0.5-0.3c-0.1-0.1-0.2-0.1-0.2-0.1s0.3,0.1,0.7,0.3
									c0.2,0.1,0.5,0.2,0.7,0.4c0.3,0.2,0.5,0.3,0.8,0.5c0.1,0.1,0.3,0.2,0.4,0.3C19.6,4.8,19.7,5,19.8,5c0.2,0.2,0.4,0.4,0.6,0.6
									c0.2,0.2,0.3,0.3,0.4,0.4C20.8,6.2,20.9,6.2,20.9,6.2z"/>
								<path fill="#F3705A" d="M16.5,3.7c0,0,0.1,0.1,0.2,0.2c0.1,0.1,0.2,0.2,0.4,0.4c0.2,0.2,0.4,0.3,0.6,0.5
									C17.8,4.8,17.9,4.9,18,5c0.1,0.1,0.3,0.2,0.4,0.3c0.3,0.2,0.5,0.3,0.8,0.5c0.3,0.1,0.5,0.3,0.7,0.4c0.4,0.2,0.7,0.4,0.7,0.4
									s-0.1,0-0.2-0.1c-0.1-0.1-0.3-0.1-0.5-0.2c-0.2-0.1-0.5-0.2-0.7-0.3c-0.3-0.1-0.5-0.3-0.8-0.5c-0.1-0.1-0.3-0.2-0.4-0.3
									c-0.1-0.1-0.2-0.2-0.4-0.3c-0.2-0.2-0.4-0.4-0.6-0.6C16.6,3.9,16.5,3.7,16.5,3.7z"/>
							</g>
							<g>
								<path fill="#F3705A" d="M20.1,5.8c0,0,0,0-0.1-0.1c-0.1-0.1-0.2-0.1-0.3-0.2c-0.3-0.2-0.6-0.5-1-0.7c-0.4-0.3-0.7-0.5-1-0.7
									c-0.3-0.2-0.5-0.3-0.5-0.3s0.2,0.1,0.5,0.3c0.1,0.1,0.3,0.2,0.5,0.3c0.2,0.1,0.4,0.3,0.6,0.4C18.9,4.7,19,4.9,19.2,5
									c0.2,0.1,0.3,0.3,0.5,0.4C19.9,5.6,20.1,5.8,20.1,5.8z"/>
								<path fill="#F3705A" d="M17,3.8c0,0,0.2,0.1,0.5,0.3c0.1,0.1,0.3,0.2,0.5,0.4c0.1,0.1,0.2,0.1,0.3,0.2
									c0.1,0.1,0.2,0.1,0.3,0.2C18.6,5,18.8,5.2,19,5.3c0.2,0.1,0.3,0.2,0.5,0.3c0.3,0.2,0.5,0.3,0.5,0.3s-0.2-0.1-0.5-0.3
									c-0.1-0.1-0.3-0.2-0.5-0.3c-0.2-0.1-0.4-0.2-0.6-0.4c-0.1-0.1-0.2-0.1-0.3-0.2c-0.1-0.1-0.2-0.1-0.3-0.2
									c-0.2-0.1-0.3-0.3-0.4-0.4C17.1,3.9,17,3.8,17,3.8z"/>
							</g>
						</g>
						<g>
							<g>
								<path fill="#F3705A" d="M20.4,7.7c0,0-0.1,0-0.2,0c-0.1,0-0.2,0-0.3,0c-0.1,0-0.2,0-0.3,0c-0.1,0-0.2,0-0.4,0
									c-0.1,0-0.3,0-0.4,0c-0.3,0-0.6,0.1-0.9,0.1c-0.2,0-0.3,0-0.5,0.1c-0.2,0-0.3,0-0.4,0.1c-0.3,0.1-0.6,0.1-0.8,0.2
									c-0.2,0.1-0.4,0.1-0.6,0.1c-0.1,0-0.2,0.1-0.2,0.1s0.3-0.1,0.7-0.3c0.2-0.1,0.5-0.1,0.8-0.2c0.3-0.1,0.6-0.1,0.9-0.2
									c0.2,0,0.3,0,0.5-0.1c0.2,0,0.3,0,0.5,0c0.3,0,0.6,0,0.8,0c0.2,0,0.4,0,0.6,0C20.3,7.6,20.4,7.7,20.4,7.7z"/>
								<path fill="#F3705A" d="M15.5,9c0,0,0.1,0,0.2,0c0.1,0,0.3,0,0.6,0c0.2,0,0.5,0,0.8-0.1c0.2,0,0.3,0,0.5,0
									c0.2,0,0.3-0.1,0.5-0.1c0.3-0.1,0.6-0.1,0.9-0.2c0.3-0.1,0.6-0.2,0.8-0.2C20.1,8.1,20.4,8,20.4,8s-0.1,0-0.2,0.1
									c-0.1,0.1-0.3,0.1-0.5,0.2c-0.2,0.1-0.5,0.2-0.8,0.3c-0.3,0.1-0.6,0.2-0.9,0.2c-0.2,0-0.3,0.1-0.5,0.1c-0.2,0-0.3,0-0.5,0
									c-0.3,0-0.6,0-0.8,0C15.8,9,15.5,9,15.5,9z"/>
							</g>
							<g>
								<path fill="#F3705A" d="M19.5,7.9c0,0-0.1,0-0.2,0c-0.1,0-0.2,0-0.4,0.1c-0.3,0.1-0.8,0.1-1.2,0.2c-0.5,0.1-0.9,0.1-1.2,0.2
									c-0.3,0.1-0.6,0.1-0.6,0.1s0.2-0.1,0.6-0.2c0.2,0,0.4-0.1,0.6-0.1c0.2,0,0.4-0.1,0.7-0.1C17.9,8,18.1,8,18.3,8
									c0.2,0,0.4,0,0.6-0.1C19.3,7.9,19.5,7.9,19.5,7.9z"/>
								<path fill="#F3705A" d="M15.9,8.7c0,0,0.2,0,0.6-0.1c0.2,0,0.4,0,0.6-0.1c0.1,0,0.2,0,0.3,0c0.1,0,0.2,0,0.3-0.1
									c0.2,0,0.5-0.1,0.7-0.1c0.2,0,0.4-0.1,0.6-0.1c0.3-0.1,0.6-0.1,0.6-0.1S19.3,8.2,19,8.3c-0.2,0-0.4,0.1-0.6,0.1
									c-0.2,0-0.4,0.1-0.7,0.1c-0.1,0-0.2,0-0.3,0c-0.1,0-0.2,0-0.3,0c-0.2,0-0.4,0-0.6,0C16.1,8.7,15.9,8.7,15.9,8.7z"/>
							</g>
						</g>
						<g>
							<g>
								<path fill="#F3705A" d="M21.1,9c0,0-0.1,0.1-0.2,0.2c0,0.1-0.1,0.1-0.2,0.2c-0.1,0.1-0.1,0.2-0.2,0.2
									c-0.1,0.1-0.2,0.2-0.3,0.3c-0.1,0.1-0.2,0.2-0.3,0.3c-0.2,0.2-0.4,0.5-0.6,0.7c-0.1,0.1-0.2,0.3-0.3,0.4
									c-0.1,0.1-0.2,0.3-0.3,0.4c-0.2,0.2-0.3,0.5-0.4,0.7c-0.1,0.2-0.2,0.4-0.3,0.5C18.1,12.9,18,13,18,13s0.1-0.3,0.3-0.7
									c0.1-0.2,0.2-0.5,0.4-0.7c0.2-0.3,0.3-0.5,0.5-0.8c0.1-0.1,0.2-0.3,0.3-0.4c0.1-0.1,0.2-0.2,0.3-0.3
									c0.2-0.2,0.4-0.4,0.6-0.6c0.2-0.2,0.3-0.3,0.4-0.4C21,9,21.1,9,21.1,9z"/>
								<path fill="#F3705A" d="M18.5,13.4c0,0,0.1-0.1,0.2-0.2c0.1-0.1,0.2-0.2,0.4-0.4c0.2-0.2,0.3-0.4,0.5-0.6
									c0.1-0.1,0.2-0.2,0.3-0.4c0.1-0.1,0.2-0.3,0.3-0.4c0.2-0.3,0.3-0.5,0.5-0.8c0.1-0.3,0.3-0.5,0.4-0.7
									c0.2-0.4,0.4-0.7,0.4-0.7s0,0.1-0.1,0.2c-0.1,0.1-0.1,0.3-0.2,0.5c-0.1,0.2-0.2,0.5-0.3,0.7c-0.1,0.3-0.3,0.5-0.5,0.8
									c-0.1,0.1-0.2,0.3-0.3,0.4c-0.1,0.1-0.2,0.2-0.3,0.4c-0.2,0.2-0.4,0.4-0.6,0.6C18.8,13.3,18.5,13.4,18.5,13.4z"/>
							</g>
							<g>
								<path fill="#F3705A" d="M20.6,9.8c0,0,0,0-0.1,0.1c-0.1,0.1-0.1,0.2-0.2,0.3c-0.2,0.3-0.5,0.6-0.7,1c-0.3,0.4-0.5,0.7-0.7,1
									c-0.2,0.3-0.3,0.5-0.3,0.5s0.1-0.2,0.3-0.5c0.1-0.1,0.2-0.3,0.3-0.5c0.1-0.2,0.3-0.4,0.4-0.6c0.1-0.2,0.3-0.4,0.4-0.5
									c0.1-0.2,0.3-0.3,0.4-0.5C20.4,10,20.6,9.8,20.6,9.8z"/>
								<path fill="#F3705A" d="M18.6,12.9c0,0,0.1-0.2,0.3-0.5c0.1-0.1,0.2-0.3,0.4-0.5c0.1-0.1,0.1-0.2,0.2-0.3
									c0.1-0.1,0.1-0.2,0.2-0.3c0.1-0.2,0.3-0.4,0.4-0.6c0.1-0.2,0.2-0.3,0.3-0.5c0.2-0.3,0.3-0.5,0.3-0.5s-0.1,0.2-0.3,0.5
									c-0.1,0.1-0.2,0.3-0.3,0.5c-0.1,0.2-0.2,0.4-0.4,0.6c-0.1,0.1-0.1,0.2-0.2,0.3c-0.1,0.1-0.1,0.2-0.2,0.3
									c-0.1,0.2-0.3,0.3-0.4,0.4C18.8,12.8,18.6,12.9,18.6,12.9z"/>
							</g>
						</g>
						<g>
							<g>
								<path fill="#F3705A" d="M22.5,9.5c0,0,0,0.1,0,0.2c0,0.1,0,0.2,0,0.3c0,0.1,0,0.2,0,0.3c0,0.1,0,0.2,0,0.4
									c0,0.1,0,0.3,0,0.4c0,0.3,0.1,0.6,0.1,0.9c0,0.2,0,0.3,0.1,0.5c0,0.2,0,0.3,0.1,0.4c0.1,0.3,0.1,0.6,0.2,0.8
									c0.1,0.2,0.1,0.4,0.1,0.6c0,0.1,0.1,0.2,0.1,0.2s-0.1-0.3-0.3-0.7c-0.1-0.2-0.1-0.5-0.2-0.8c-0.1-0.3-0.1-0.6-0.2-0.9
									c0-0.2,0-0.3-0.1-0.5c0-0.2,0-0.3,0-0.5c0-0.3,0-0.6,0-0.8c0-0.2,0-0.4,0-0.6C22.5,9.6,22.5,9.5,22.5,9.5z"/>
								<path fill="#F3705A" d="M23.8,14.4c0,0,0-0.1,0-0.2c0-0.1,0-0.3,0-0.6c0-0.2,0-0.5-0.1-0.8c0-0.2,0-0.3,0-0.5
									c0-0.2-0.1-0.3-0.1-0.5c-0.1-0.3-0.1-0.6-0.2-0.9c-0.1-0.3-0.2-0.6-0.2-0.8c-0.1-0.5-0.2-0.8-0.2-0.8s0,0.1,0.1,0.2
									c0.1,0.1,0.1,0.3,0.2,0.5c0.1,0.2,0.2,0.5,0.3,0.8c0.1,0.3,0.2,0.6,0.2,0.9c0,0.2,0.1,0.3,0.1,0.5c0,0.2,0,0.3,0,0.5
									c0,0.3,0,0.6,0,0.8C23.9,14.1,23.8,14.4,23.8,14.4z"/>
							</g>
							<g>
								<path fill="#F3705A" d="M22.7,10.4c0,0,0,0.1,0,0.2c0,0.1,0,0.2,0.1,0.4c0.1,0.3,0.1,0.8,0.2,1.2c0.1,0.5,0.1,0.9,0.2,1.2
									c0.1,0.3,0.1,0.6,0.1,0.6s-0.1-0.2-0.2-0.6c0-0.2-0.1-0.4-0.1-0.6c0-0.2-0.1-0.4-0.1-0.7c0-0.2-0.1-0.5-0.1-0.7
									c0-0.2,0-0.4-0.1-0.6C22.7,10.6,22.7,10.4,22.7,10.4z"/>
								<path fill="#F3705A" d="M23.5,14c0,0,0-0.2-0.1-0.6c0-0.2,0-0.4-0.1-0.6c0-0.1,0-0.2,0-0.3c0-0.1,0-0.2-0.1-0.3
									c0-0.2-0.1-0.5-0.1-0.7c0-0.2-0.1-0.4-0.1-0.6C23,10.6,23,10.4,23,10.4s0.1,0.2,0.2,0.6c0,0.2,0.1,0.4,0.1,0.6
									c0,0.2,0.1,0.4,0.1,0.7c0,0.1,0,0.2,0,0.3c0,0.1,0,0.2,0,0.3c0,0.2,0,0.4,0,0.6C23.5,13.8,23.5,14,23.5,14z"/>
							</g>
						</g>
						<g>
							<g>
								<path fill="#F3705A" d="M23.8,8.8c0,0,0.1,0.1,0.2,0.2c0,0,0.1,0.1,0.2,0.2c0.1,0.1,0.2,0.1,0.2,0.2
									c0.1,0.1,0.2,0.2,0.3,0.3c0.1,0.1,0.2,0.2,0.3,0.3c0.2,0.2,0.5,0.4,0.7,0.6c0.1,0.1,0.3,0.2,0.4,0.3
									c0.1,0.1,0.3,0.2,0.4,0.3c0.2,0.2,0.5,0.3,0.7,0.4c0.2,0.1,0.4,0.2,0.5,0.3c0.1,0.1,0.2,0.1,0.2,0.1s-0.3-0.1-0.7-0.3
									c-0.2-0.1-0.5-0.2-0.7-0.4c-0.3-0.2-0.5-0.3-0.8-0.5c-0.1-0.1-0.3-0.2-0.4-0.3c-0.1-0.1-0.2-0.2-0.3-0.3
									c-0.2-0.2-0.4-0.4-0.6-0.6C24.2,9.2,24.1,9.1,24,9C23.9,8.9,23.8,8.8,23.8,8.8z"/>
								<path fill="#F3705A" d="M28.3,11.4c0,0-0.1-0.1-0.2-0.2c-0.1-0.1-0.2-0.2-0.4-0.4c-0.2-0.2-0.4-0.3-0.6-0.5
									c-0.1-0.1-0.2-0.2-0.4-0.3c-0.1-0.1-0.3-0.2-0.4-0.3c-0.3-0.2-0.5-0.3-0.8-0.5C25.3,9.1,25,9,24.8,8.9
									c-0.4-0.2-0.7-0.4-0.7-0.4s0.1,0,0.2,0.1c0.1,0.1,0.3,0.1,0.5,0.2c0.2,0.1,0.5,0.2,0.7,0.3c0.3,0.1,0.5,0.3,0.8,0.5
									c0.1,0.1,0.3,0.2,0.4,0.3c0.1,0.1,0.2,0.2,0.4,0.3c0.2,0.2,0.4,0.4,0.6,0.6C28.1,11.1,28.3,11.4,28.3,11.4z"/>
							</g>
							<g>
								<path fill="#F3705A" d="M24.6,9.3c0,0,0,0,0.1,0.1c0.1,0.1,0.2,0.1,0.3,0.2c0.3,0.2,0.6,0.5,1,0.7c0.4,0.3,0.7,0.5,1,0.7
									c0.3,0.2,0.5,0.3,0.5,0.3s-0.2-0.1-0.5-0.3c-0.1-0.1-0.3-0.2-0.5-0.3c-0.2-0.1-0.4-0.3-0.6-0.4c-0.2-0.1-0.4-0.3-0.5-0.4
									c-0.2-0.1-0.3-0.3-0.5-0.4C24.8,9.4,24.6,9.3,24.6,9.3z"/>
								<path fill="#F3705A" d="M27.8,11.3c0,0-0.2-0.1-0.5-0.3c-0.1-0.1-0.3-0.2-0.5-0.4c-0.1-0.1-0.2-0.1-0.3-0.2
									c-0.1-0.1-0.2-0.1-0.3-0.2c-0.2-0.1-0.4-0.3-0.6-0.4c-0.2-0.1-0.3-0.2-0.5-0.3c-0.3-0.2-0.5-0.3-0.5-0.3s0.2,0.1,0.5,0.3
									c0.1,0.1,0.3,0.2,0.5,0.3c0.2,0.1,0.4,0.2,0.6,0.4c0.1,0.1,0.2,0.1,0.3,0.2c0.1,0.1,0.2,0.1,0.3,0.2
									c0.2,0.1,0.3,0.3,0.4,0.4C27.6,11.1,27.8,11.3,27.8,11.3z"/>
							</g>
						</g>
						<g>
							<g>
								<path fill="#F3705A" d="M24.3,7.4c0,0,0.1,0,0.2,0c0.1,0,0.2,0,0.3,0c0.1,0,0.2,0,0.3,0c0.1,0,0.2,0,0.4,0
									c0.1,0,0.3,0,0.4,0c0.3,0,0.6-0.1,0.9-0.1c0.2,0,0.3,0,0.5-0.1c0.2,0,0.3,0,0.4-0.1C28.1,7,28.3,7,28.6,6.9
									c0.2-0.1,0.4-0.1,0.6-0.1c0.1,0,0.2-0.1,0.2-0.1S29,6.8,28.6,7c-0.2,0.1-0.5,0.1-0.8,0.2c-0.3,0.1-0.6,0.1-0.9,0.2
									c-0.2,0-0.3,0-0.5,0.1c-0.2,0-0.3,0-0.5,0c-0.3,0-0.6,0-0.8,0c-0.2,0-0.4,0-0.6,0C24.4,7.4,24.3,7.4,24.3,7.4z"/>
								<path fill="#F3705A" d="M29.3,6.1c0,0-0.1,0-0.2,0c-0.1,0-0.3,0-0.6,0c-0.2,0-0.5,0-0.8,0.1c-0.2,0-0.3,0-0.5,0
									c-0.2,0-0.3,0.1-0.5,0.1c-0.3,0.1-0.6,0.1-0.9,0.2c-0.3,0.1-0.6,0.2-0.8,0.2C24.6,6.9,24.3,7,24.3,7s0.1,0,0.2-0.1
									c0.1-0.1,0.3-0.1,0.5-0.2c0.2-0.1,0.5-0.2,0.8-0.3c0.3-0.1,0.6-0.2,0.9-0.2c0.2,0,0.3-0.1,0.5-0.1c0.2,0,0.3,0,0.5,0
									c0.3,0,0.6,0,0.8,0C29,6,29.3,6.1,29.3,6.1z"/>
							</g>
							<g>
								<path fill="#F3705A" d="M25.2,7.2c0,0,0.1,0,0.2,0c0.1,0,0.2,0,0.4-0.1C26.1,7,26.6,6.9,27,6.9c0.5-0.1,0.9-0.1,1.2-0.2
									c0.3-0.1,0.6-0.1,0.6-0.1s-0.2,0.1-0.6,0.2c-0.2,0-0.4,0.1-0.6,0.1c-0.2,0-0.4,0.1-0.7,0.1c-0.2,0-0.5,0.1-0.7,0.1
									c-0.2,0-0.4,0-0.6,0.1C25.4,7.2,25.2,7.2,25.2,7.2z"/>
								<path fill="#F3705A" d="M28.8,6.3c0,0-0.2,0-0.6,0.1c-0.2,0-0.4,0-0.6,0.1c-0.1,0-0.2,0-0.3,0c-0.1,0-0.2,0-0.3,0.1
									c-0.2,0-0.5,0.1-0.7,0.1c-0.2,0-0.4,0.1-0.6,0.1c-0.3,0.1-0.6,0.1-0.6,0.1s0.2-0.1,0.6-0.2c0.2,0,0.4-0.1,0.6-0.1
									c0.2,0,0.4-0.1,0.7-0.1c0.1,0,0.2,0,0.3,0c0.1,0,0.2,0,0.3,0c0.2,0,0.4,0,0.6,0C28.6,6.4,28.8,6.3,28.8,6.3z"/>
							</g>
						</g>
						<g>
							<g>
								<path fill="#F3705A" d="M23.7,6c0,0,0.1-0.1,0.2-0.2c0-0.1,0.1-0.1,0.2-0.2c0.1-0.1,0.1-0.2,0.2-0.2
									c0.1-0.1,0.2-0.2,0.3-0.3c0.1-0.1,0.2-0.2,0.3-0.3c0.2-0.2,0.4-0.5,0.6-0.7c0.1-0.1,0.2-0.3,0.3-0.4
									c0.1-0.1,0.2-0.3,0.3-0.4c0.2-0.2,0.3-0.5,0.4-0.7c0.1-0.2,0.2-0.4,0.3-0.5C26.7,2.1,26.7,2,26.7,2s-0.1,0.3-0.3,0.7
									C26.3,3,26.1,3.2,26,3.5c-0.2,0.3-0.3,0.5-0.5,0.8c-0.1,0.1-0.2,0.3-0.3,0.4C25,4.7,24.9,4.8,24.8,5
									c-0.2,0.2-0.4,0.4-0.6,0.6c-0.2,0.2-0.3,0.3-0.4,0.4C23.7,6,23.7,6,23.7,6z"/>
								<path fill="#F3705A" d="M26.2,1.6c0,0-0.1,0.1-0.2,0.2C26,1.9,25.8,2,25.7,2.2c-0.2,0.2-0.3,0.4-0.5,0.6
									C25,2.9,24.9,3,24.9,3.2c-0.1,0.1-0.2,0.3-0.3,0.4c-0.2,0.3-0.3,0.5-0.5,0.8c-0.1,0.3-0.3,0.5-0.4,0.7
									c-0.2,0.4-0.4,0.7-0.4,0.7s0-0.1,0.1-0.2c0.1-0.1,0.1-0.3,0.2-0.5c0.1-0.2,0.2-0.5,0.3-0.7c0.1-0.3,0.3-0.5,0.5-0.8
									c0.1-0.1,0.2-0.3,0.3-0.4c0.1-0.1,0.2-0.2,0.3-0.4c0.2-0.2,0.4-0.4,0.6-0.6C26,1.8,26.2,1.6,26.2,1.6z"/>
							</g>
							<g>
								<path fill="#F3705A" d="M24.1,5.2c0,0,0,0,0.1-0.1c0.1-0.1,0.1-0.2,0.2-0.3c0.2-0.3,0.5-0.6,0.7-1c0.3-0.4,0.5-0.7,0.7-1
									c0.2-0.3,0.3-0.5,0.3-0.5S26.2,2.5,26,2.8c-0.1,0.1-0.2,0.3-0.3,0.5c-0.1,0.2-0.3,0.4-0.4,0.6C25.2,4,25,4.2,24.9,4.4
									c-0.1,0.2-0.3,0.3-0.4,0.5C24.3,5.1,24.1,5.2,24.1,5.2z"/>
								<path fill="#F3705A" d="M26.1,2.1c0,0-0.1,0.2-0.3,0.5c-0.1,0.1-0.2,0.3-0.4,0.5c-0.1,0.1-0.1,0.2-0.2,0.3
									c-0.1,0.1-0.1,0.2-0.2,0.3c-0.1,0.2-0.3,0.4-0.4,0.6c-0.1,0.2-0.2,0.3-0.3,0.5c-0.2,0.3-0.3,0.5-0.3,0.5s0.1-0.2,0.3-0.5
									c0.1-0.1,0.2-0.3,0.3-0.5c0.1-0.2,0.2-0.4,0.4-0.6C25,3.4,25,3.3,25.1,3.2c0.1-0.1,0.1-0.2,0.2-0.3c0.1-0.2,0.3-0.3,0.4-0.4
									C25.9,2.3,26.1,2.1,26.1,2.1z"/>
							</g>
						</g>
					</g>
				</g>
				<g>
					<circle fill="#FFD15C" cx="22.4" cy="7.5" r="1.8"/>
				</g>
				<g>
					<circle fill="#415A6B" cx="22.4" cy="7.5" r="1.2"/>
				</g>
			</g>
		</g>
		<g>
			<g>
				<path fill="#47BAA4" d="M7,33.3h2.2c2-7.5-0.4-16.1-8.6-15.2C0.6,18.1,8.2,22.9,7,33.3z"/>
				<path fill="#66C6B9" d="M10.6,33.3c-0.7-10.4,6.3-14.5,6.3-14.5c-7.6,0.9-9.1,7.9-7.6,14.5H10.6z"/>
				<g>
					<path fill="#47BAA4" d="M13.7,33.3c0.5-10.4,7.1-15,7.5-15.2c-0.5,0.2-8.7,0-10.8,15.2H13.7z"/>
				</g>
				<path fill="#47BAA4" d="M16.8,33.3c1.9-7.9,8.9-9.2,8.9-9.2c-9-3.1-10.7,3-10.5,9.2H16.8z"/>
				<path fill="#47BAA4" d="M5.3,33.3h1.8c-0.1-8.9-6.6-10.7-6.6-10.7S5.5,25.3,5.3,33.3z"/>
				<path fill="#66C6B9" d="M18.6,33.3h2.2c2-7.5-0.4-16.1-8.6-15.2C12.2,18.1,19.8,22.9,18.6,33.3z"/>
				<path fill="#47BAA4" d="M35.2,33.3c-1.1-9.6,3.1-15.4,3.1-15.4c-7.4,2.7-7.7,9.1-5.7,15.4H35.2z"/>
				<g>
					<path fill="#47BAA4" d="M25.3,33.3c0.5-10.4,7.1-15,7.5-15.2c-0.5,0.2-8.7,0-10.8,15.2H25.3z"/>
				</g>
				<path fill="#66C6B9" d="M8,33.3h1.8c-0.1-8.9-6.6-10.7-6.6-10.7S8.1,25.3,8,33.3z"/>
				<g>
					<path fill="#66C6B9" d="M25.4,33.3h2.2c2-7.5-0.4-16.1-8.6-15.2C18.9,18.1,26.6,22.9,25.4,33.3z"/>
				</g>
				<g>
					<path fill="#47BAA4" d="M40.8,33.3c1-8.6,6.6-12.7,6.6-12.7c-7.8-1.1-9.9,5.5-9.1,12.7H40.8z"/>
				</g>
				<g>
					<path fill="#66C6B9" d="M30.9,33.3h1.4c1.4-6.6,0-13.6-7.6-14.5C24.6,18.8,31.6,22.9,30.9,33.3z"/>
				</g>
				<g>
					<g>
						<path fill="#66C6B9" d="M39.1,33.3c-1.6-10.2,3.8-15.9,4.1-16.2c-0.4,0.3-8.1,1.8-7.4,16.2H39.1z"/>
					</g>
				</g>
				<path fill="#47BAA4" d="M28.8,33.3h1.8c-0.1-8.9-6.6-10.7-6.6-10.7S28.9,25.3,28.8,33.3z"/>
			</g>
			<g>
				<path fill="#FFD15C" d="M48,34.3L48,34.3c0-1.2-1-2.2-2.2-2.2H2.2c-1.2,0-2.2,1-2.2,2.2l0,0c0,1.2,1,2.2,2.2,2.2h43.6
					C47,36.5,48,35.5,48,34.3z"/>
			</g>
			<g>
				<path fill="#FFD15C" d="M44.2,46.3l1.6-9.8H2.2l1.6,9.8c0.2,1,1,1.7,2,1.7h36.5C43.2,48,44.1,47.3,44.2,46.3z"/>
			</g>
			<g>
				<polygon fill="#F7B64C" points="45.5,38.5 45.8,36.5 2.2,36.5 2.5,38.5 				"/>
			</g>
		</g>
	</g>
</g>
</svg>
