<?xml version="1.0" encoding="utf-8"?>
<!-- Generator: Adobe Illustrator 18.0.0, SVG Export Plug-In . SVG Version: 6.00 Build 0)  -->
<!DOCTYPE svg PUBLIC "-//W3C//DTD SVG 1.1//EN" "http://www.w3.org/Graphics/SVG/1.1/DTD/svg11.dtd">
<svg version="1.1" id="Layer_1" xmlns="http://www.w3.org/2000/svg" xmlns:xlink="http://www.w3.org/1999/xlink" x="0px" y="0px"
	 viewBox="0 0 48 48" enable-background="new 0 0 48 48" xml:space="preserve">
<g>
	<circle fill="#F2F2F2" cx="24" cy="24" r="24"/>
	<circle fill="#40596B" cx="24" cy="24" r="2.3"/>
	<circle fill="#FFFFFF" cx="24" cy="24" r="1.1"/>
	<polygon fill="#FF7058" points="24,24 24,24 24,24 	"/>
	<polygon fill="#FF7058" points="24,24 24,24 24,24 	"/>
	<rect x="24" y="24" fill="#FF7058" width="0" height="0"/>
	<rect x="24" y="24" fill="#FF7058" width="0" height="0"/>
	<polygon fill="#FF7058" points="24,24 24,24 24,24 	"/>
	<polygon fill="#FF7058" points="24,24 24,24 24,24 	"/>
	<polygon fill="#FF7058" points="24,24 24,24 24,24 	"/>
	<polygon fill="#FF7058" points="24,24 24,24 24,24 	"/>
	<polygon fill="#FF7058" points="24,24 24,24 24,24 	"/>
	<polygon fill="#FF7058" points="24,24 24,24 24,24 	"/>
	<path fill="#40596B" d="M44,24c0,2.7-0.6,5.3-1.5,7.6l-10-4.1c0.5-1.1,0.7-2.3,0.7-3.5H44z"/>
	<polygon fill="#FF7058" points="24,24 24,24 24,24 	"/>
	<polygon fill="#FF7058" points="24,24 24,24 24,24 	"/>
	<rect x="24" y="24" fill="#FF7058" width="0" height="0"/>
	<polygon fill="#FF7058" points="24,24 24,24 24,24 	"/>
	<rect x="24" y="24" fill="#FF7058" width="0" height="0"/>
	<path fill="#CDD6E0" d="M20.5,32.5l-4.1,9.9c-2.5-1-4.7-2.5-6.5-4.3l7.6-7.6C18.3,31.4,19.3,32.1,20.5,32.5z"/>
	<path fill="#ACB3BA" d="M17.5,30.5l-7.6,7.6c-1.8-1.8-3.3-4-4.3-6.5l10-4.1C15.9,28.7,16.6,29.7,17.5,30.5z"/>
	<path fill="#84DBFF" d="M15.5,27.5l-10,4.1C4.5,29.3,4,26.7,4,24h10.8C14.8,25.3,15,26.4,15.5,27.5z"/>
	<path fill="#54C0EB" d="M15.5,20.5c-0.5,1.1-0.7,2.3-0.7,3.5H4c0-2.7,0.5-5.3,1.5-7.6L15.5,20.5z"/>
	<path fill="#334A5E" d="M42.5,31.7c-1,2.4-2.5,4.6-4.3,6.5l-7.6-7.6v0c0.9-0.8,1.5-1.9,2-3L42.5,31.7z"/>
	<path fill="#284154" d="M38.1,38.1c-1.8,1.8-4,3.3-6.5,4.3l-4.1-9.9c1.1-0.5,2.1-1.2,3-2L38.1,38.1z"/>
	<path fill="#E23C2B" d="M44,24H33.2c0-1.3-0.3-2.4-0.7-3.5l10-4.1C43.5,18.7,44,21.3,44,24z"/>
	<path fill="#FF7058" d="M38.1,9.9l-7.6,7.6c-0.8-0.8-1.9-1.5-3-2l4.1-9.9C34.1,6.5,36.3,8,38.1,9.9z"/>
	<path fill="#F1543F" d="M42.5,16.4l-10,4.1c-0.5-1.1-1.1-2.1-2-3l7.6-7.6C40,11.7,41.5,13.9,42.5,16.4z"/>
	<polygon fill="#FF7058" points="24,24 24,24 24,24 	"/>
	<path fill="#EFA53A" d="M31.7,5.5l-4.1,9.9c-1.1-0.5-2.3-0.7-3.5-0.7V4C26.7,4,29.3,4.6,31.7,5.5z"/>
	<path fill="#FFD15C" d="M20.5,15.5c-1.1,0.5-2.2,1.2-3,2L9.9,9.9c1.8-1.8,4-3.3,6.5-4.3L20.5,15.5z"/>
	<path fill="#F8B64C" d="M24,4v10.8c-1.3,0-2.5,0.3-3.5,0.7l-4.1-9.9C18.7,4.6,21.3,4,24,4z"/>
	<path fill="#20ADCE" d="M17.5,17.5c-0.9,0.9-1.5,1.9-2,3l-10-4.1c1-2.4,2.5-4.6,4.3-6.5L17.5,17.5z"/>
</g>
</svg>
