<?xml version="1.0" encoding="utf-8"?>
<!-- Generator: Adobe Illustrator 18.0.0, SVG Export Plug-In . SVG Version: 6.00 Build 0)  -->
<!DOCTYPE svg PUBLIC "-//W3C//DTD SVG 1.1//EN" "http://www.w3.org/Graphics/SVG/1.1/DTD/svg11.dtd">
<svg version="1.1" id="Layer_1" xmlns="http://www.w3.org/2000/svg" xmlns:xlink="http://www.w3.org/1999/xlink" x="0px" y="0px"
	 viewBox="0 0 48 48" enable-background="new 0 0 48 48" xml:space="preserve">
<g>
	<g>
		<g>
			<path fill="#F3F3F3" d="M47.8,44.3l-7.1-26.7c-0.2-0.8-0.9-1.4-1.8-1.6L29,14c-0.3-0.1-0.6-0.1-0.9,0l-8.7,1.8
				c-0.3,0.1-0.6,0.1-0.9,0L10.2,14c-1-0.2-2.3,0.5-2.6,1.5L0.2,39.9c-0.4,1.5,0,2.8,1.1,3.2L15,47.9c0.4,0.2,0.9,0.2,1.4,0
				l13.5-4.4c0.4-0.1,0.9-0.1,1.3,0l14.1,4.4C47.2,48.5,48.5,46.7,47.8,44.3z"/>
			<g>
				<g>
					<polygon fill="#67C6B9" points="16.1,44.3 2.8,39.9 9.4,15.5 18.8,17.7 					"/>
				</g>
				<g>
					<polygon fill="#FFD15D" points="30.3,39.9 16.1,44.3 18.8,17.7 28.7,15.5 					"/>
				</g>
				<g>
					<polygon fill="#4ABAA5" points="45.1,44.3 30.3,39.9 28.7,15.5 38.9,17.7 					"/>
				</g>
			</g>
		</g>
		<g>
			<path fill="#435B6C" d="M13.3,0C8.8,0,5.2,3.6,5.2,8.1c0,5.2,8.1,14.1,8.1,14.1s8.1-8.6,8.1-14.1C21.3,3.6,17.7,0,13.3,0z"/>
			<g>
				<circle fill="#FFFFFF" cx="13.3" cy="8.1" r="4.5"/>
			</g>
		</g>
		<g>
			<path fill="#F3705B" d="M38.4,12.9c-4.5,0-8.1,3.6-8.1,8.1c0,5.2,8.1,14.1,8.1,14.1s8.1-8.6,8.1-14.1
				C46.4,16.5,42.8,12.9,38.4,12.9z"/>
			<g>
				<circle fill="#FFFFFF" cx="38.4" cy="21" r="4.5"/>
			</g>
		</g>
	</g>
</g>
</svg>
