<?xml version="1.0" encoding="utf-8"?>
<!-- Generator: Adobe Illustrator 18.0.0, SVG Export Plug-In . SVG Version: 6.00 Build 0)  -->
<!DOCTYPE svg PUBLIC "-//W3C//DTD SVG 1.1//EN" "http://www.w3.org/Graphics/SVG/1.1/DTD/svg11.dtd">
<svg version="1.1" id="Layer_1" xmlns="http://www.w3.org/2000/svg" xmlns:xlink="http://www.w3.org/1999/xlink" x="0px" y="0px"
	 viewBox="0 0 48 48" enable-background="new 0 0 48 48" xml:space="preserve">
<g>
	<g>
		<g>
			<g>
				<g>
					<path fill="#F7B64C" d="M25.2,48L25,38.3c-0.2-2-1.6-3.8-3.5-4.3l-3.9-1.1c-1.1-0.3-1.8-1.3-1.8-2.4v-2.4H9.5v2.4
						c0,1.1-0.7,2.1-1.8,2.4L3.8,34c-2,0.6-3.4,2.3-3.5,4.3L0,48H25.2z"/>
				</g>
				<g>
					<path fill="#8AD7F8" d="M25.2,48L25,38.3c-0.2-2-1.6-3.8-3.5-4.3l-4-1.1c-0.2,2.5-2.3,4.4-4.9,4.4c-2.5,0-4.6-1.9-4.9-4.4
						l-4,1.1c-2,0.6-3.4,2.3-3.5,4.3L0,48H25.2z"/>
				</g>
			</g>
			<g>
				<path fill="#F3705A" d="M10.7,25.7c0,0-2.1,4.2-0.9,7.3C11.3,37.7,9,39,9,39s0.7-1.5,0.3-3c0,0-0.1,4.4-3.3,3.7c0,0,0,0,0,0
					c1.2-0.1,1.7-1.6,0.8-2.4C4.2,34.8,4,27.7,10.7,25.7"/>
			</g>
			<g>
				<g>
					<path fill="#FFD15C" d="M19.1,24.5c-0.2,1.1-0.9,2-1.5,1.9c-0.7-0.1-1-1.1-0.8-2.3s0.9-2,1.5-1.9S19.3,23.3,19.1,24.5z"/>
				</g>
				<g>
					<path fill="#FFD15C" d="M6.2,24.5c0.2,1.1,0.9,2,1.5,1.9s1-1.1,0.8-2.3c-0.2-1.1-0.9-2-1.5-1.9S6,23.3,6.2,24.5z"/>
				</g>
				<ellipse fill="#F3705A" cx="12.2" cy="20.8" rx="5.5" ry="6.2"/>
				<ellipse fill="#F3705A" cx="16.6" cy="20.6" rx="2.1" ry="4.5"/>
				<path fill="#FFD15C" d="M15.4,19.6c-1.1,1.4-5.2,2.3-5.2,2.3c1.3-0.9,2.3-1.7,2.3-1.7c-2.8,0.9-4.5,2.4-5,3.5c0,0.2,0,0.5,0,0.7
					c0,4.4,2.3,7.5,5,7.5c2.8,0,5-3.1,5-7.5c0-0.7-0.1-1.3-0.2-2C16.2,21.4,15.4,19.6,15.4,19.6z"/>
			</g>
		</g>
		<g>
			<g>
				<path fill="#F7B64C" d="M31.2,10.2l0,4c0,0,0.9,1.3,3.4,2.2c2.4-0.8,3.4-2.2,3.4-2.2l0-4H31.2z"/>
			</g>
			<g>
				<g>
					<g>
						<path fill="#E8EAE9" d="M48,28.5H21.2l1-6.9c0.2-1.5,1.2-2.7,2.6-3.3l6.4-2.5l3.4,0.5l3.4-0.5l6.4,2.5
							c1.4,0.5,2.4,1.8,2.6,3.3L48,28.5z"/>
						<polyline fill="none" points="21.2,28.5 32.5,28.5 36.7,28.5 48,28.5 						"/>
					</g>
					<g>
						<g>
							<polygon fill="#55C0EB" points="35.8,19.4 36.8,18.5 34.6,16.4 32.4,18.5 33.4,19.4 							"/>
						</g>
						<g>
							<polygon fill="#8AD7F8" points="36.7,28.5 32.5,28.5 33.4,19.4 35.8,19.4 							"/>
						</g>
					</g>
					<g>
						<path fill="#F3F3F3" d="M31.2,14.2c0,0,0.9,1.3,3.4,2.2l-2.9,3.8l-1.4-4L31.2,14.2z"/>
					</g>
				</g>
				<g>
					<g>
						<path fill="#F3F3F3" d="M38,14.2c0,0-0.9,1.3-3.4,2.2l2.9,3.8l1.4-4L38,14.2z"/>
					</g>
				</g>
			</g>
			<g>
				<g>
					<g>
						<path fill="#FFD15C" d="M38.2,8.7c-0.2,1,0.2,1.9,0.8,2c0.6,0.1,1.3-0.6,1.5-1.5s-0.2-1.9-0.8-2S38.3,7.7,38.2,8.7z"/>
					</g>
					<g>
						<path fill="#FFD15C" d="M31,8.7c0.2,1-0.2,1.9-0.8,2c-0.6,0.1-1.3-0.6-1.5-1.5s0.2-1.9,0.8-2C30.2,7,30.8,7.7,31,8.7z"/>
					</g>
				</g>
				<g>
					<ellipse fill="#FFD15C" cx="34.6" cy="8" rx="5.2" ry="6.7"/>
				</g>
				<g>
					<path fill="#415A6B" d="M29.7,8.2c-0.1-1,0-2.4,0.6-3.5C31,3.6,32.6,3,34,3.4c0.4,0.1,0.6,0.3,0.6,0.3s0.2-0.2,0.6-0.3
						c1.4-0.4,3,0.2,3.7,1.3c0.6,1.1,0.7,2.6,0.6,3.5h0.5C40.8,4.3,40.6,0,34.6,0c-6,0-6.2,4.3-5.3,8.2H29.7z"/>
				</g>
			</g>
		</g>
		<g>
			<path fill="#F3705A" d="M36.7,36.2v2.6c5.1,0,9.4-3.4,10.9-8.1c0.3,1,0.5,2.1,0.5,3.3c0,6.3-5.1,11.3-11.3,11.3V48l-7.2-5.9
				L36.7,36.2z"/>
		</g>
		<g>
			<path fill="#415A6B" d="M11.3,11.8l0-2.6c-5.1,0-9.4,3.4-10.9,8.1C0.2,16.2,0,15.1,0,14C0,7.7,5.1,2.6,11.3,2.6l0-2.6l7.2,5.9
				L11.3,11.8z"/>
		</g>
	</g>
</g>
</svg>
