<?xml version="1.0" encoding="utf-8"?>
<!-- Generator: Adobe Illustrator 16.0.0, SVG Export Plug-In . SVG Version: 6.00 Build 0)  -->
<!DOCTYPE svg PUBLIC "-//W3C//DTD SVG 1.1//EN" "http://www.w3.org/Graphics/SVG/1.1/DTD/svg11.dtd">
<svg version="1.1" id="Layer_1" xmlns="http://www.w3.org/2000/svg" xmlns:xlink="http://www.w3.org/1999/xlink" x="0px" y="0px"
	 width="48px" height="48px" viewBox="0 0 48 48" enable-background="new 0 0 48 48" xml:space="preserve">
<g>
	<polyline fill="none" stroke="#ACB3BA" stroke-width="1.5" stroke-miterlimit="10" points="41.187,19.476 24.001,8.556 
		6.813,19.476 	"/>
	<path fill="#40596B" d="M14.47,6.026L14.47,6.026c0,1.396,1.133,2.529,2.531,2.529h13.998c1.398,0,2.531-1.133,2.531-2.529
		c-0.988-0.988-1.543-1.543-2.531-2.531H17.001C16.013,4.483,15.458,5.038,14.47,6.026"/>
	<path fill="#40596B" d="M43.974,6.901H30.433c-0.484,0-0.875-0.393-0.875-0.877c0-0.482,0.391-0.875,0.875-0.875h13.541
		c0.484,0,0.877,0.393,0.877,0.875C44.851,6.509,44.458,6.901,43.974,6.901"/>
	<path fill="#F2F2F2" d="M40.157,0.933c0,0-3.438,0.932-4.896,0.932s-2.64-0.418-2.64-0.932c0-0.516,1.182-0.932,2.64-0.932
		S40.157,0.933,40.157,0.933"/>
	<path fill="#F2F2F2" d="M40.464,0.933c0,0,3.438,0.932,4.896,0.932c1.457,0,2.639-0.418,2.639-0.932
		c0-0.516-1.182-0.932-2.639-0.932C43.901,0.001,40.464,0.933,40.464,0.933"/>
	<path fill="#40596B" d="M17.568,6.901H4.026c-0.484,0-0.877-0.393-0.877-0.877c0-0.482,0.393-0.875,0.877-0.875h13.542
		c0.483,0,0.876,0.393,0.876,0.875C18.444,6.509,18.052,6.901,17.568,6.901"/>
	<path fill="#F2F2F2" d="M7.843,0.933c0,0,3.438,0.932,4.896,0.932s2.64-0.418,2.64-0.932c0-0.516-1.182-0.932-2.64-0.932
		S7.843,0.933,7.843,0.933"/>
	<path fill="#F2F2F2" d="M7.536,0.933c0,0-3.438,0.932-4.896,0.932s-2.64-0.418-2.64-0.932c0-0.516,1.182-0.932,2.64-0.932
		S7.536,0.933,7.536,0.933"/>
	<path fill="#CDD6E0" d="M5.872,5.183c0,1.287,0.814,2.529,1.822,2.529c0.997,0,1.812-1.242,1.812-2.529
		c0-0.877-0.675-2.234-1.218-3.572V0.69c0-0.332-0.271-0.605-0.604-0.605C7.36,0.085,7.09,0.358,7.09,0.69v0.936
		C6.547,2.958,5.872,4.306,5.872,5.183"/>
	<path fill="#CDD6E0" d="M42.128,5.183c0,1.287-0.814,2.529-1.821,2.529c-0.998,0-1.812-1.242-1.812-2.529
		c0-0.877,0.674-2.234,1.217-3.572V0.69c0-0.332,0.271-0.605,0.604-0.605c0.324,0,0.596,0.273,0.596,0.605v0.936
		C41.454,2.958,42.128,4.306,42.128,5.183"/>
	<path fill="#CDD6E0" d="M5.872,5.183c0,1.287,0.814,2.529,1.822,2.529c0.997,0,1.812-1.242,1.812-2.529
		c0-0.877-0.675-2.234-1.218-3.572V0.69c0-0.332-0.271-0.605-0.604-0.605C7.36,0.085,7.09,0.358,7.09,0.69v0.936
		C6.547,2.958,5.872,4.306,5.872,5.183"/>
	<path fill="#ACB3BA" d="M40.972,1.767H39.64c0.026-0.053,0.053-0.105,0.07-0.158V0.69c0-0.334,0.271-0.605,0.604-0.605
		c0.324,0,0.597,0.271,0.597,0.605v0.936C40.927,1.671,40.944,1.722,40.972,1.767"/>
	<path fill="#ACB3BA" d="M8.357,1.767H7.026c0.026-0.045,0.045-0.096,0.061-0.141V0.69c0-0.334,0.273-0.605,0.597-0.605
		c0.333,0,0.604,0.271,0.604,0.605v0.918C8.305,1.661,8.331,1.714,8.357,1.767"/>
	<path fill="#FFD15C" d="M40.786,17.241H7.214c-1.104,0-2,0.896-2,2v26.758c0,1.105,0.896,2,2,2h33.572c1.105,0,2-0.895,2-2V19.241
		C42.786,18.138,41.892,17.241,40.786,17.241"/>
	<rect x="19.804" y="17.241" fill="#F8B64C" width="8.394" height="6.654"/>
	<path fill="#40596B" d="M29.212,8.556c0,1.41-2.334,2.553-5.211,2.553c-2.879,0-5.213-1.143-5.213-2.553
		c0-1.408,2.334-2.551,5.213-2.551C26.878,6.005,29.212,7.147,29.212,8.556"/>
	<rect x="9.883" y="37.692" fill="#F8B64C" width="9.765" height="6.332"/>
</g>
</svg>
