<?xml version="1.0" encoding="utf-8"?>
<!-- Generator: Adobe Illustrator 20.1.0, SVG Export Plug-In . SVG Version: 6.00 Build 0)  -->
<!DOCTYPE svg PUBLIC "-//W3C//DTD SVG 1.1//EN" "http://www.w3.org/Graphics/SVG/1.1/DTD/svg11.dtd">
<svg version="1.1" id="Layer_1" xmlns="http://www.w3.org/2000/svg" xmlns:xlink="http://www.w3.org/1999/xlink" x="0px" y="0px"
	 viewBox="0 0 49 49" enable-background="new 0 0 49 49" xml:space="preserve">
<g>
	<path fill="#F2F2F2" d="M44.3,15.4c0.2-0.8,0.2-1.6,0.2-2.4c0-6.9-5.6-12.5-12.5-12.5c-3.9,0-7.3,1.8-9.6,4.5
		C20.8,4.1,19,3.6,17,3.6C12,3.6,7.7,7,6.4,11.7c-3.4,0.7-5.9,3.8-5.9,7.4v3.1c0,4.2,3.4,7.5,7.5,7.5H41c4.2,0,7.5-3.4,7.5-7.5
		C48.5,19.2,46.8,16.6,44.3,15.4z"/>
	<g>
		<polygon fill="#40596B" points="16.1,11.2 4.2,23.1 9.5,23.1 9.5,34.5 22.6,34.5 22.6,23.1 27.9,23.1 		"/>
		<polygon fill="#FF7058" points="32.9,48.5 44.8,36.7 39.5,36.7 39.5,25.2 26.4,25.2 26.4,36.7 21.1,36.7 		"/>
	</g>
</g>
</svg>
