<?xml version="1.0" encoding="utf-8"?>
<!-- Generator: Adobe Illustrator 18.0.0, SVG Export Plug-In . SVG Version: 6.00 Build 0)  -->
<!DOCTYPE svg PUBLIC "-//W3C//DTD SVG 1.1//EN" "http://www.w3.org/Graphics/SVG/1.1/DTD/svg11.dtd">
<svg version="1.1" id="Layer_1" xmlns="http://www.w3.org/2000/svg" xmlns:xlink="http://www.w3.org/1999/xlink" x="0px" y="0px"
	 viewBox="0 0 48 48" enable-background="new 0 0 48 48" xml:space="preserve">
<g>
	<g>
		<g>
			<path fill="#F3F3F3" d="M48,10.7V45c0,1.7-1.3,3-3,3H3c-1.7,0-3-1.3-3-3V10.7H48z"/>
			<path fill="#55C0EB" d="M48,10.7V3c0-1.7-1.3-3-3-3H3C1.3,0,0,1.3,0,3v7.7H48z"/>
			<g>
				<g>
					<circle fill="#FFFFFF" cx="6" cy="5.3" r="2.2"/>
				</g>
				<g>
					<circle fill="#FFFFFF" cx="12.5" cy="5.3" r="2.2"/>
				</g>
				<g>
					<circle fill="#FFFFFF" cx="18.9" cy="5.3" r="2.2"/>
				</g>
			</g>
		</g>
		<g>
			<g>
				<path fill="#CED6E0" d="M11,15.5H5.3c-0.3,0-0.5,0.2-0.5,0.5v5.8c0,0.3,0.2,0.5,0.5,0.5H11c0.3,0,0.5-0.2,0.5-0.5v-5.8
					C11.5,15.7,11.3,15.5,11,15.5z M10.6,21.2H5.8v-4.8h4.8V21.2z"/>
			</g>
			<g>
				<g>
					<path fill="#F3705A" d="M8.1,22.2c-0.2,0-0.4-0.1-0.5-0.2L5,19.4c-0.3-0.3-0.3-0.8,0-1.1c0.3-0.3,0.8-0.3,1.1,0l1.8,1.8
						c0.6-1.1,2-3,4.5-4.8c0.3-0.2,0.8-0.2,1,0.2c0.2,0.3,0.2,0.8-0.2,1c-3.5,2.5-4.5,5.1-4.5,5.1c-0.1,0.2-0.3,0.4-0.5,0.5
						C8.2,22.2,8.2,22.2,8.1,22.2z"/>
				</g>
			</g>
			<g>
				<g>
					<rect x="14.9" y="16" fill="#CED6E0" width="29" height="1.8"/>
				</g>
				<g>
					<rect x="14.9" y="19.9" fill="#CED6E0" width="15.5" height="1.8"/>
				</g>
			</g>
		</g>
		<g>
			<g>
				<path fill="#CED6E0" d="M11,25.2H5.3c-0.3,0-0.5,0.2-0.5,0.5v5.8c0,0.3,0.2,0.5,0.5,0.5H11c0.3,0,0.5-0.2,0.5-0.5v-5.8
					C11.5,25.4,11.3,25.2,11,25.2z M10.6,31H5.8v-4.8h4.8V31z"/>
			</g>
			<g>
				<g>
					<path fill="#F3705A" d="M8.1,31.9c-0.2,0-0.4-0.1-0.5-0.2L5,29.1c-0.3-0.3-0.3-0.8,0-1.1c0.3-0.3,0.8-0.3,1.1,0l1.8,1.8
						c0.6-1.1,2-3,4.5-4.8c0.3-0.2,0.8-0.2,1,0.2c0.2,0.3,0.2,0.8-0.2,1c-3.5,2.5-4.5,5.1-4.5,5.1c-0.1,0.2-0.3,0.4-0.5,0.5
						C8.2,31.9,8.2,31.9,8.1,31.9z"/>
				</g>
			</g>
			<g>
				<g>
					<rect x="14.9" y="25.7" fill="#CED6E0" width="29" height="1.8"/>
				</g>
				<g>
					<rect x="14.9" y="29.6" fill="#CED6E0" width="15.5" height="1.8"/>
				</g>
			</g>
		</g>
		<g>
			<g>
				<path fill="#CED6E0" d="M11,34.9H5.3c-0.3,0-0.5,0.2-0.5,0.5v5.8c0,0.3,0.2,0.5,0.5,0.5H11c0.3,0,0.5-0.2,0.5-0.5v-5.8
					C11.5,35.1,11.3,34.9,11,34.9z M10.6,40.7H5.8v-4.8h4.8V40.7z"/>
			</g>
			<g>
				<g>
					<rect x="14.9" y="35.4" fill="#CED6E0" width="29" height="1.8"/>
				</g>
				<g>
					<rect x="14.9" y="39.3" fill="#CED6E0" width="15.5" height="1.8"/>
				</g>
			</g>
		</g>
	</g>
</g>
</svg>
