<?xml version="1.0" encoding="utf-8"?>
<!-- Generator: Adobe Illustrator 18.0.0, SVG Export Plug-In . SVG Version: 6.00 Build 0)  -->
<!DOCTYPE svg PUBLIC "-//W3C//DTD SVG 1.1//EN" "http://www.w3.org/Graphics/SVG/1.1/DTD/svg11.dtd">
<svg version="1.1" id="Layer_1" xmlns="http://www.w3.org/2000/svg" xmlns:xlink="http://www.w3.org/1999/xlink" x="0px" y="0px"
	 viewBox="0 0 48 48" enable-background="new 0 0 48 48" xml:space="preserve">
<g>
	<path fill="#4EC0AA" d="M35,32.1c-0.1-1.4-0.7-2.6-1.5-3.5c0-1.8-0.9-3.6-2.7-4.7C29.3,23,27.6,22.7,26,23c-0.7-1.1-2-1.7-3.3-1.3
		c-0.8,0.2-1.5,0.8-1.9,1.5c0,0,0,0,0,0c-3.3-1-6.6,1.1-7.6,4.7c-0.8,3.2,0.5,6.4,2.9,7.9c-0.1,2.1,1.2,3.9,3.1,4.2
		c0.9,0.2,1.8-0.1,2.6-0.6c0.6,0.5,1.2,1,1.9,1.3c3.1,1.4,6.5,0.3,7.8-2.5C33.7,37.3,35.2,34.8,35,32.1z"/>
	<g>
		<path fill="#415A6B" d="M28,35.3c0.2-0.1,0.3-0.2,0.5-0.3C28.4,35.1,28.2,35.1,28,35.3z"/>
		<path fill="#415A6B" d="M23.7,40.1c-0.2-3-0.1-6.1,0.4-9c-0.5,1.5-1,2.9-1.3,4.4c-0.3-0.6-0.7-1.2-1.2-1.8c-0.6-0.8-1.4-1.5-2-1.9
			c-0.6-0.5-1-0.7-1-0.7s0.4,0.3,0.9,0.8c0.5,0.5,1.2,1.3,1.7,2.1c0.5,0.8,0.9,1.7,1.1,2.4c0.1,0.3,0.1,0.5,0.2,0.6
			c-0.7,3.6-0.9,7.3-0.5,10.9H25c-0.5-1.7-0.8-3.4-1-5.1c0.4-4.7,2.9-6.9,3.9-7.6C25.8,36.6,24.5,38.4,23.7,40.1z"/>
	</g>
</g>
<g>
	<path fill="#66C6B9" d="M44,19c-0.2-2.5-1.2-4.7-2.7-6.4c0.1-3.3-1.6-6.5-4.9-8.5c-2.6-1.6-5.8-2-8.6-1.5c-1.4-2-3.7-3.1-6-2.4
		c-1.5,0.4-2.7,1.4-3.4,2.7c0,0,0,0-0.1,0C12.3,1,6.1,4.9,4.4,11.5C3,17.3,5.3,23.2,9.8,25.9c-0.1,3.8,2.2,7.1,5.6,7.7
		c1.7,0.3,3.3-0.2,4.7-1.2c1,0.9,2.2,1.7,3.5,2.3c5.7,2.5,11.7,0.5,14.1-4.5C41.7,28.6,44.4,24.1,44,19z"/>
	<g>
		<path fill="#415A6B" d="M31.2,24.9c0.3-0.2,0.5-0.3,0.8-0.5C32.1,24.4,31.7,24.6,31.2,24.9z"/>
		<path fill="#415A6B" d="M23.5,33.7c-0.4-5.5-0.2-11.1,0.6-16.5c-1,2.6-1.8,5.3-2.4,8c-0.6-1.1-1.3-2.2-2.1-3.2
			c-1.2-1.5-2.6-2.7-3.7-3.5c-1.1-0.8-1.9-1.3-1.9-1.3s0.7,0.5,1.7,1.5c1,0.9,2.2,2.3,3.1,3.8c0.9,1.5,1.6,3.1,2,4.4
			c0.1,0.5,0.2,0.8,0.3,1.2c-1.3,6.6-1.6,13.3-1,19.8h5.8c-0.8-3.1-1.4-6.2-1.9-9.3c0.7-8.6,5.3-12.5,7.2-13.8
			C27.3,27.2,24.9,30.5,23.5,33.7z"/>
	</g>
</g>
</svg>
