<?xml version="1.0" encoding="utf-8"?>
<!-- Generator: Adobe Illustrator 18.0.0, SVG Export Plug-In . SVG Version: 6.00 Build 0)  -->
<!DOCTYPE svg PUBLIC "-//W3C//DTD SVG 1.1//EN" "http://www.w3.org/Graphics/SVG/1.1/DTD/svg11.dtd">
<svg version="1.1" id="Layer_1" xmlns="http://www.w3.org/2000/svg" xmlns:xlink="http://www.w3.org/1999/xlink" x="0px" y="0px"
	 viewBox="0 0 48 48" enable-background="new 0 0 48 48" xml:space="preserve">
<g>
	<ellipse transform="matrix(0.9769 -0.2138 0.2138 0.9769 -3.316 4.5737)" fill="#F8B64C" cx="19.5" cy="17.6" rx="0.8" ry="1.5"/>
	
		<ellipse transform="matrix(-0.9769 -0.2138 0.2138 -0.9769 52.6522 40.9237)" fill="#F8B64C" cx="28.5" cy="17.6" rx="0.8" ry="1.5"/>
	<path fill="#ACB3BA" d="M12.3,16H0.5c-0.4,0-0.8-0.3-0.8-0.8v0c0-0.4,0.3-0.8,0.8-0.8h11.8c0.4,0,0.8,0.3,0.8,0.8v0
		C13.1,15.7,12.8,16,12.3,16z"/>
	<path fill="#ACB3BA" d="M47.5,16H35.7c-0.4,0-0.8-0.3-0.8-0.8v0c0-0.4,0.3-0.8,0.8-0.8h11.8c0.4,0,0.8,0.3,0.8,0.8v0
		C48.2,15.7,47.9,16,47.5,16z"/>
	<rect x="21.1" y="21.7" fill="#F8B64C" width="5.8" height="7.7"/>
	<path fill="#FFD15C" d="M19.7,23.6c0,0-3.2,0-4.3,2.6c0,0-3.6-0.4-6,1.9c0,0-0.3-3.8-1.2-7.4l-0.4-2.1l-2.2,0.1
		c0,0,0.1,2.6-0.2,6.7c0,0-0.3,4.9,1.4,6.7c0,0,6.3,0.8,10.6-1.7l3.7-7.1C21.1,23.3,20.1,23.4,19.7,23.6z"/>
	<path fill="#F8B64C" d="M5.6,18.8c0,0-1.5-0.7-1.4-2.7h4.7l-1.1,2.6L5.6,18.8z"/>
	<path fill="#FFD15C" d="M8.2,13.6c-0.3,0-0.6,0.3-0.6,0.6c0-0.3-0.3-0.6-0.6-0.6s-0.6,0.3-0.6,0.6c0-0.3-0.3-0.6-0.6-0.6
		c-0.3,0-0.6,0.3-0.6,0.6c0-0.3-0.3-0.6-0.6-0.6s-0.6,0.3-0.6,0.6v1.9c0,0.3,0.3,0.6,0.6,0.6s0.6-0.3,0.6-0.6c0,0.3,0.3,0.6,0.6,0.6
		c0.3,0,0.6-0.3,0.6-0.6c0,0.3,0.3,0.6,0.6,0.6s0.6-0.3,0.6-0.6c0,0.3,0.3,0.6,0.6,0.6c0.3,0,0.6-0.3,0.6-0.6v-1.9
		C8.7,13.8,8.5,13.6,8.2,13.6z"/>
	<path fill="#F4AE4A" d="M7.4,17.1l0.8-0.4c0,0-1.3-0.9-1.1-1.4c0.1-0.3,0.2-0.3,1.3,0c0,0,0,0,0,0c0.9,0.2,1.3,1.1,0.8,1.9
		c-0.4,0.6-0.9,1.3-1.4,1.5c0,0-1.1,0.1-0.9-0.7C6.9,17.5,7.1,17.3,7.4,17.1z"/>
	<g>
		<path fill="#334A5E" d="M2.6,18.9L2.6,18.9c-0.4,0-0.8-0.4-0.8-0.8v-5.7c0-0.4,0.4-0.8,0.8-0.8h0c0.4,0,0.8,0.4,0.8,0.8v5.7
			C3.4,18.5,3.1,18.9,2.6,18.9z"/>
		<path fill="#40596B" d="M1,18L1,18c-0.4,0-0.8-0.4-0.8-0.8v-3.9c0-0.4,0.4-0.8,0.8-0.8h0c0.4,0,0.8,0.4,0.8,0.8v3.9
			C1.8,17.6,1.5,18,1,18z"/>
	</g>
	<g>
		<path fill="#334A5E" d="M10.3,18.9L10.3,18.9c0.4,0,0.8-0.4,0.8-0.8v-5.7c0-0.4-0.4-0.8-0.8-0.8h0c-0.4,0-0.8,0.4-0.8,0.8v5.7
			C9.5,18.5,9.9,18.9,10.3,18.9z"/>
		<path fill="#40596B" d="M11.9,18L11.9,18c0.4,0,0.8-0.4,0.8-0.8v-3.9c0-0.4-0.4-0.8-0.8-0.8h0c-0.4,0-0.8,0.4-0.8,0.8v3.9
			C11.1,17.6,11.5,18,11.9,18z"/>
	</g>
	<path fill="#FFD15C" d="M28.4,23.6c0,0,3.2,0,4.3,2.6c0,0,3.6-0.4,6,1.9c0,0,0.3-3.8,1.2-7.4l0.4-2.1l2.2,0.1c0,0-0.1,2.6,0.2,6.7
		c0,0,0.3,4.9-1.4,6.7c0,0-6.3,0.8-10.6-1.7l-3.7-7.1C26.9,23.3,27.9,23.4,28.4,23.6z"/>
	<path fill="#F8B64C" d="M42.5,18.8c0,0,1.5-0.7,1.4-2.7h-4.7l1.1,2.6L42.5,18.8z"/>
	<path fill="#FFD15C" d="M39.8,13.6c0.3,0,0.6,0.3,0.6,0.6c0-0.3,0.3-0.6,0.6-0.6c0.3,0,0.6,0.3,0.6,0.6c0-0.3,0.3-0.6,0.6-0.6
		s0.6,0.3,0.6,0.6c0-0.3,0.3-0.6,0.6-0.6s0.6,0.3,0.6,0.6v1.9c0,0.3-0.3,0.6-0.6,0.6s-0.6-0.3-0.6-0.6c0,0.3-0.3,0.6-0.6,0.6
		s-0.6-0.3-0.6-0.6c0,0.3-0.3,0.6-0.6,0.6c-0.3,0-0.6-0.3-0.6-0.6c0,0.3-0.3,0.6-0.6,0.6s-0.6-0.3-0.6-0.6v-1.9
		C39.3,13.8,39.5,13.6,39.8,13.6z"/>
	<path fill="#F4AE4A" d="M40.7,17.1l-0.8-0.4c0,0,1.3-0.9,1.1-1.4c-0.1-0.3-0.2-0.3-1.3,0c0,0,0,0,0,0c-0.9,0.2-1.3,1.1-0.8,1.9
		c0.4,0.6,0.9,1.3,1.4,1.5c0,0,1.1,0.1,0.9-0.7C41.1,17.5,40.9,17.3,40.7,17.1z"/>
	<path fill="#334A5E" d="M45.4,18.9L45.4,18.9c0.4,0,0.8-0.4,0.8-0.8v-5.7c0-0.4-0.4-0.8-0.8-0.8l0,0c-0.4,0-0.8,0.4-0.8,0.8v5.7
		C44.6,18.5,45,18.9,45.4,18.9z"/>
	<path fill="#40596B" d="M47,18L47,18c0.4,0,0.8-0.4,0.8-0.8v-3.9c0-0.4-0.4-0.8-0.8-0.8h0c-0.4,0-0.8,0.4-0.8,0.8v3.9
		C46.2,17.6,46.5,18,47,18z"/>
	<path fill="#334A5E" d="M37.7,18.9L37.7,18.9c-0.4,0-0.8-0.4-0.8-0.8v-5.7c0-0.4,0.4-0.8,0.8-0.8l0,0c0.4,0,0.8,0.4,0.8,0.8v5.7
		C38.5,18.5,38.1,18.9,37.7,18.9z"/>
	<path fill="#40596B" d="M36.1,18L36.1,18c-0.4,0-0.8-0.4-0.8-0.8v-3.9c0-0.4,0.4-0.8,0.8-0.8h0c0.4,0,0.8,0.4,0.8,0.8v3.9
		C36.9,17.6,36.6,18,36.1,18z"/>
	<path fill="#FFD15C" d="M28.9,16.3c0,2.7-2.2,7.7-4.9,7.7s-4.9-5-4.9-7.7c0-2.7,2.2-4.9,4.9-4.9S28.9,13.6,28.9,16.3z"/>
	<path fill="#40596B" d="M19.5,18.6l0.7-2c0,0-0.9-3.5,0.5-2.8c0,0,3.2,1.1,6.7-0.1c0,0,0.9-0.2,0.4,3.1l0.8,1.9
		c0,0,0.1-1.7,0.6-2.5c0,0,1.9-4.6-2-7.6c0,0-0.1,1.1-1.5,1c0,0-3.4-0.1-4.3,0.5c0,0-2.6,0.5-2.9,3.7c0,0-0.1,1.9,0.7,3.4
		C19.2,17.1,19.5,18.3,19.5,18.6z"/>
	<path fill="#FF7058" d="M30.7,30.3l-1.2,9.1h-11l-1.2-9.1c2.1-5.6,2.3-6.7,2.3-6.7s0.4-0.2,1.4-0.4c0,0,0.2,1.6,0.7,3.3
		c0.7,2.1,3.7,2.1,4.4,0c0.6-1.7,0.7-3.3,0.7-3.3c1.1,0.2,1.4,0.4,1.4,0.4S28.5,24.7,30.7,30.3z"/>
	<g>
		<g>
			<circle fill="#F2F2F2" cx="22" cy="17.7" r="0.9"/>
			<circle fill="#40596B" cx="22" cy="17.7" r="0.6"/>
			<circle fill="#FFFFFF" cx="22.3" cy="17.3" r="0.2"/>
		</g>
		<g>
			<circle fill="#F2F2F2" cx="26.1" cy="17.7" r="0.9"/>
			<circle fill="#40596B" cx="26.1" cy="17.7" r="0.6"/>
			<circle fill="#FFFFFF" cx="26.4" cy="17.3" r="0.2"/>
		</g>
	</g>
	<path fill="#FFFFFF" d="M25.6,20.9c0,0,0,0.1-0.1,0.1c-0.1,0.1-0.1,0.2-0.3,0.3c-0.1,0.1-0.3,0.2-0.5,0.3c-0.2,0.1-0.5,0.1-0.7,0.1
		c-0.5,0-1-0.2-1.2-0.4c-0.1-0.1-0.2-0.2-0.3-0.3c-0.1-0.1-0.1-0.1-0.1-0.1s0.2,0.1,0.5,0.2c0.3,0.1,0.7,0.2,1.1,0.2
		c0.2,0,0.4,0,0.6-0.1c0.2,0,0.4-0.1,0.5-0.1c0.1-0.1,0.3-0.1,0.4-0.1C25.5,20.9,25.6,20.9,25.6,20.9z"/>
</g>
</svg>
