<?xml version="1.0" encoding="utf-8"?>
<!-- Generator: Adobe Illustrator 18.0.0, SVG Export Plug-In . SVG Version: 6.00 Build 0)  -->
<!DOCTYPE svg PUBLIC "-//W3C//DTD SVG 1.1//EN" "http://www.w3.org/Graphics/SVG/1.1/DTD/svg11.dtd">
<svg version="1.1" id="Layer_1" xmlns="http://www.w3.org/2000/svg" xmlns:xlink="http://www.w3.org/1999/xlink" x="0px" y="0px"
	 viewBox="0 0 48 48" enable-background="new 0 0 48 48" xml:space="preserve">
<g>
	<g>
		<polygon fill="#F8B64C" points="43.6,16 24,21.7 24,48 43.6,40.8 		"/>
		<polygon fill="#FFD15C" points="4.4,16 24,21.7 24,48 4.4,41.1 		"/>
		<polygon fill="#CDD6E0" points="28,33.2 48,25.8 43.7,16 24,21.7 		"/>
		<polygon fill="#CDD6E0" points="20,33.2 0,25.8 4.3,16 24,21.7 		"/>
		<polygon fill="#334A5E" points="24,9.6 24,21.7 43.6,16 		"/>
		<polygon fill="#40596B" points="4.4,16 24,21.7 24,9.6 		"/>
	</g>
	<polygon fill="#FF7058" points="27.7,13.1 27.7,0 20.3,0 20.3,13.1 16.5,13.1 24,20.7 31.5,13.1 	"/>
</g>
</svg>
