<?xml version="1.0" encoding="utf-8"?>
<!-- Generator: Adobe Illustrator 18.0.0, SVG Export Plug-In . SVG Version: 6.00 Build 0)  -->
<!DOCTYPE svg PUBLIC "-//W3C//DTD SVG 1.1//EN" "http://www.w3.org/Graphics/SVG/1.1/DTD/svg11.dtd">
<svg version="1.1" id="Layer_1" xmlns="http://www.w3.org/2000/svg" xmlns:xlink="http://www.w3.org/1999/xlink" x="0px" y="0px"
	 viewBox="0 0 48 48" enable-background="new 0 0 48 48" xml:space="preserve">
<g>
	<g>
		<g>
			<g>
				<path fill="#E8EAE9" d="M47.1,32.8l-9-4.4c-0.7-0.3-1.5-0.1-1.9,0.6l-3.9,8c-0.3,0.7-0.1,1.5,0.6,1.9l9,4.4
					c0.7,0.3,1.5,0.1,1.9-0.6l3.9-8C48,34,47.8,33.1,47.1,32.8z"/>
				<path fill="#E8EAE9" d="M11.8,29c-0.3-0.7-1.2-1-1.9-0.6l-9,4.4c-0.7,0.3-1,1.2-0.6,1.9l3.9,8c0.3,0.7,1.2,1,1.9,0.6l9-4.4
					c0.7-0.3,1-1.2,0.6-1.9L11.8,29z"/>
			</g>
			<g>
				<path fill="#CED6E0" d="M46.8,31.5l-5.3-2.6c-0.5-0.2-1,0-1.2,0.4L35,40.1c-0.2,0.5,0,1,0.4,1.2l5.3,2.6c0.5,0.2,1,0,1.2-0.4
					l5.3-10.8C47.5,32.2,47.3,31.7,46.8,31.5z"/>
				<path fill="#CED6E0" d="M7.7,29.3c-0.2-0.5-0.8-0.7-1.2-0.4l-5.3,2.6c-0.5,0.2-0.7,0.8-0.4,1.2L6,43.5c0.2,0.5,0.8,0.7,1.2,0.4
					l5.3-2.6c0.5-0.2,0.7-0.8,0.4-1.2L7.7,29.3z"/>
			</g>
		</g>
		<g>
			<g>
				<path fill="#E8EAE9" d="M39.6,21.5C38.6,36,31.8,43.6,24,43.6S9.4,36,8.4,21.5C7.8,12.2,14.7,4,24,4S40.2,12.2,39.6,21.5z"/>
			</g>
			<g>
				<g>
					<path fill="#FFFFFF" d="M36.4,19.4c0,2.5-2,4.5-4.5,4.5s-6.2-4.3-6.2-6.7s3.8-2.2,6.2-2.2S36.4,16.9,36.4,19.4z"/>
					<path fill="#344A5E" d="M31.9,24.5c-3,0-6.9-4.6-6.9-7.4c0-0.7,0.2-1.3,0.7-1.7c1.2-1.2,3.5-1.1,5.5-1.1c0.2,0,0.4,0,0.7,0
						c2.8,0,5.1,2.3,5.1,5.1S34.7,24.5,31.9,24.5z M30.6,15.6c-1.5,0-3.2,0.1-3.9,0.8c-0.2,0.2-0.3,0.5-0.3,0.8
						c0,2.2,3.5,6.1,5.6,6.1c2.1,0,3.8-1.7,3.8-3.8s-1.7-3.8-3.8-3.8c-0.2,0-0.4,0-0.7,0C31,15.6,30.8,15.6,30.6,15.6z"/>
				</g>
				<g>
					<path fill="#FFFFFF" d="M11.6,19.4c0,2.5,2,4.5,4.5,4.5s6.2-4.3,6.2-6.7s-3.8-2.2-6.2-2.2S11.6,16.9,11.6,19.4z"/>
					<path fill="#344A5E" d="M16.1,24.5c-2.8,0-5.1-2.3-5.1-5.1s2.3-5.1,5.1-5.1c0.2,0,0.4,0,0.7,0c2,0,4.4,0,5.5,1.1
						c0.5,0.5,0.7,1,0.7,1.7C23,19.9,19.1,24.5,16.1,24.5z M17.4,15.6c-0.2,0-0.5,0-0.7,0c-0.2,0-0.4,0-0.7,0
						c-2.1,0-3.8,1.7-3.8,3.8s1.7,3.8,3.8,3.8c2,0,5.6-3.9,5.6-6.1c0-0.3-0.1-0.6-0.3-0.8C20.7,15.7,18.9,15.6,17.4,15.6z"/>
				</g>
			</g>
			<g>
				<circle fill="#344A5E" cx="24" cy="34" r="6"/>
			</g>
			<g>
				<path fill="#415A6B" d="M22.4,34.2c0-0.1,0-0.1,0-0.2c0-0.6,0.4-1.2,1-1.5v-3c-2.2,0.3-3.9,2.2-3.9,4.5c0,0.6,0.1,1.2,0.3,1.7
					L22.4,34.2z"/>
			</g>
			<g>
				<path fill="#415A6B" d="M24.6,32.6c0.6,0.2,1,0.8,1,1.5c0,0.1,0,0.1,0,0.2l2.6,1.5c0.2-0.5,0.3-1.1,0.3-1.7
					c0-2.3-1.7-4.2-3.9-4.5V32.6z"/>
			</g>
			<g>
				<path fill="#415A6B" d="M25,35.3c-0.6,0.4-1.4,0.4-1.9,0l-2.6,1.5c0.8,1.1,2.1,1.8,3.6,1.8c1.5,0,2.8-0.7,3.6-1.8L25,35.3z"/>
			</g>
		</g>
	</g>
</g>
</svg>
