<?xml version="1.0" encoding="utf-8"?>
<!-- Generator: Adobe Illustrator 18.0.0, SVG Export Plug-In . SVG Version: 6.00 Build 0)  -->
<!DOCTYPE svg PUBLIC "-//W3C//DTD SVG 1.1//EN" "http://www.w3.org/Graphics/SVG/1.1/DTD/svg11.dtd">
<svg version="1.1" id="Layer_1" xmlns="http://www.w3.org/2000/svg" xmlns:xlink="http://www.w3.org/1999/xlink" x="0px" y="0px"
	 viewBox="0 0 48 48" enable-background="new 0 0 48 48" xml:space="preserve">
<g>
	<path fill="#ACB3BA" d="M15.2,19.5"/>
	<circle fill="#40596B" cx="28.5" cy="13.5" r="13.1"/>
	<polygon fill="#334A5E" points="39.1,7.8 39.1,15.8 47.6,11.8 	"/>
	<polygon fill="#40596B" points="41.6,14.6 42.7,20.5 36.2,23.7 27.4,17.8 27.4,13.1 	"/>
	<path fill="#FF7058" d="M47.3,47.5c2.9-13.6-4.8-27.6-4.8-27.6c-1.1,1.1-2.3,0.9-3.3,0.5c-0.7-0.3-1.5-0.3-2.3-0.1
		c-1.7,0.3-5.2-2.9-6.4-4.1c-0.3-0.3-0.6-0.5-1-0.7C17.7,10.7,10,27.5,10,27.5L0,47.5H47.3z"/>
	<path fill="#54C0EB" d="M23.2,47.5c0-0.1,0.1-0.1,0.1-0.2c0.3-0.5,0.5-1.1,0.7-1.7c0.4-1.8,0-3.8,0.9-5.4c0.9-1.7,3-2.3,4.8-2.9
		c1-0.3,2-0.6,3-0.9c1-0.3,2.3-1,1.9-2c-0.2-0.5-0.6-0.7-1-1c-1.3-0.7-2.7-1.5-4-2.2c-1.8-1-3.6-2-5.6-2.6c-2-0.6-4.2-0.7-6.1,0
		c-0.8,0.3-1.6,0.7-2.4,0.9c-0.8,0.1-1.6,0.1-2.4-0.1c-1.2-0.3-2.4-0.8-3.4-1.5L0,47.5H23.2z"/>
	<path fill="#40596B" d="M25.6,47.5c-0.1,0-0.2,0-0.3,0c-0.7-0.1-1.3-0.1-2-0.1c-2.2-0.1-4.5,0-6.7,0.2H25.6z"/>
	<path fill="#F2F2F2" d="M21.8,47.5c0.2-0.1,0.5-0.1,0.7-0.1c0.5,0,1.1,0,1.6,0.1H27c-1.9-1.4-4.1-2.5-6.5-3.1
		c-1.1-0.3-2.3-0.5-3.3,0.1c-1,0.5-1.5,1.6-2.5,2c-0.5,0.2-1,0.3-1.6,0.4c-0.9,0.2-1.8,0.4-2.7,0.7H21.8z"/>
	<g>
		<circle fill="#334A5E" cx="32.3" cy="11.8" r="2.6"/>
		<circle fill="#54C0EB" cx="32.3" cy="11.8" r="1.7"/>
		<circle fill="#FFFFFF" cx="31.2" cy="10.7" r="0.7"/>
	</g>
</g>
</svg>
