<?xml version="1.0" encoding="utf-8"?>
<!-- Generator: Adobe Illustrator 18.0.0, SVG Export Plug-In . SVG Version: 6.00 Build 0)  -->
<!DOCTYPE svg PUBLIC "-//W3C//DTD SVG 1.1//EN" "http://www.w3.org/Graphics/SVG/1.1/DTD/svg11.dtd">
<svg version="1.1" id="Layer_1" xmlns="http://www.w3.org/2000/svg" xmlns:xlink="http://www.w3.org/1999/xlink" x="0px" y="0px"
	 viewBox="0 0 48 48" enable-background="new 0 0 48 48" xml:space="preserve">
<g>
	<g>
		<g>
			<g>
				<g>
					<path fill="#8AD7F8" d="M38.1,48H9.9c-1.6,0-2.9-1.2-3-2.8L3.5,4h40.9l-3.4,41.2C40.9,46.8,39.6,48,38.1,48z"/>
				</g>
			</g>
		</g>
		<g>
			<g>
				<g>
					<path fill="#8AD7F8" d="M44.5,4.5H3.5c-1.3,0-2.3-1-2.3-2.3C1.3,1,2.3,0,3.5,0h40.9c1.3,0,2.3,1,2.3,2.3
						C46.7,3.5,45.7,4.5,44.5,4.5z"/>
				</g>
			</g>
		</g>
		<g>
			<g>
				<path fill="#E8EAE9" d="M24,33.1C10.8,33.1,0,21.9,0,8.2c0-0.5,0.4-1,1-1h46c0.5,0,1,0.4,1,1C48,21.9,37.2,33.1,24,33.1z M2,9.2
					c0.5,12.1,10.2,21.9,22,21.9s21.5-9.7,22-21.9H2z"/>
			</g>
		</g>
		<g>
			<g>
				<g>
					<g>
						<path fill="#55C0EB" d="M45.5,9.7V6.8c0-0.5-0.4-0.9-0.9-0.9h-1c-0.5,0-0.9,0.4-0.9,0.9v2.8c0,0.5,0.4,0.9,0.9,0.9h1
							C45.1,10.5,45.5,10.1,45.5,9.7z"/>
					</g>
				</g>
				<g>
					<g>
						<path fill="#55C0EB" d="M5.3,9.7V6.8c0-0.5-0.4-0.9-0.9-0.9h-1c-0.5,0-0.9,0.4-0.9,0.9v2.8c0,0.5,0.4,0.9,0.9,0.9h1
							C4.9,10.5,5.3,10.1,5.3,9.7z"/>
					</g>
				</g>
			</g>
		</g>
		<g>
			<g>
				<polygon fill="#8AD7F8" points="43.8,11.5 44.5,4 3.5,4 4.2,11.5 				"/>
			</g>
		</g>
	</g>
</g>
</svg>
