<?xml version="1.0" encoding="utf-8"?>
<!-- Generator: Adobe Illustrator 16.0.0, SVG Export Plug-In . SVG Version: 6.00 Build 0)  -->
<!DOCTYPE svg PUBLIC "-//W3C//DTD SVG 1.1//EN" "http://www.w3.org/Graphics/SVG/1.1/DTD/svg11.dtd">
<svg version="1.1" id="Layer_1" xmlns="http://www.w3.org/2000/svg" xmlns:xlink="http://www.w3.org/1999/xlink" x="0px" y="0px"
	 width="48px" height="48px" viewBox="0 0 48 48" enable-background="new 0 0 48 48" xml:space="preserve">
<g>
	<path fill="#40596B" d="M41.96,27.434c-6.868,5.119-17.909,5.119-17.909,5.119s-11.038,0-17.905-5.119c0,0,3.801-1.643,4.293-4.443
		c0,0-0.492,0.58-2.945,0.58c0,0,3.066-0.482,3.434-8.404c0,0-1.234-15.166,13.124-15.166c14.362,0,13.125,15.166,13.125,15.166
		c0.369,7.922,3.435,8.404,3.435,8.404c-2.453,0-2.943-0.58-2.943-0.58C38.158,25.791,41.96,27.434,41.96,27.434"/>
	<path fill="#40596B" d="M46.285,48H1.715l0.95-6.34c0.76-4.461,3.71-8.07,7.64-9.811c1.64-0.74,3.46-1.15,5.36-1.15h16.67
		c1.93,0,3.77,0.422,5.43,1.182c3.891,1.75,6.811,5.35,7.57,9.779L46.285,48z"/>
	<rect x="23.538" y="30.154" fill="#FFD15C" width="0.002" height="0.004"/>
	<rect x="24.03" y="18.293" fill="#FFD15C" width="0.002" height="0.003"/>
	<path fill="#F8B64C" d="M15.496,17.709c0.397,1.701,0.188,3.205-0.468,3.357s-1.508-1.102-1.905-2.803
		c-0.396-1.703-0.188-3.205,0.469-3.359C14.246,14.752,15.099,16.008,15.496,17.709"/>
	<path fill="#F8B64C" d="M32.55,17.709c-0.396,1.701-0.188,3.205,0.468,3.357s1.394-1.133,1.905-2.803
		c0.306-0.998,0.166-3.035-0.469-3.359C33.857,14.6,32.947,16.008,32.55,17.709"/>
	<path fill="#FFD15C" d="M33.415,22.654c-2.755,8.742-9.356,9.406-9.356,9.406s-6.603-0.664-9.357-9.406
		c0,0-1.475-4.561-0.238-8.359c0,0,0.758-6.484,9.596-6.484s9.595,6.484,9.595,6.484C34.888,18.094,33.415,22.654,33.415,22.654"/>
	<path fill="#F8B64C" d="M24.058,32.061c0,0-3.73-0.377-6.754-4.277v2.914l6.726,13.361l6.733-13.361v-2.854
		C27.75,31.686,24.058,32.061,24.058,32.061"/>
	<path fill="#CDD6E0" d="M32.936,34.971l4.147-1.861c-2.658-3.291-5.539-3.959-5.539-3.959l-7.512,14.898l-7.51-14.898
		c0,0-2.881,0.668-5.539,3.959l4.146,1.861l-0.719,3.832l9.617,5.256h0.01l9.616-5.256L32.936,34.971z"/>
	<g opacity="0.1">
		<g>
			<defs>
				<rect id="SVGID_173_" x="20.957" y="27.844" width="9.808" height="9.557"/>
			</defs>
			<clipPath id="SVGID_2_">
				<use xlink:href="#SVGID_173_"  overflow="visible"/>
			</clipPath>
			<path clip-path="url(#SVGID_2_)" fill="#40596B" d="M24.058,32.061c0,0-1.344-0.143-3.068-1.09l-0.034,0.01l6.419,6.42
				l3.389-6.699v-2.857C27.75,31.686,24.058,32.061,24.058,32.061"/>
		</g>
	</g>
	<polygon fill="#ACB3BA" points="16.523,29.15 17.304,28.896 17.304,30.697 	"/>
	<polygon fill="#ACB3BA" points="31.545,29.15 30.764,28.896 30.764,30.697 	"/>
	<path fill="#40596B" d="M28.507,5.615h-8.775c-2.641,0-4.956,1.77-5.648,4.318l-0.717,3.865l-0.572,2.361l1.175,1.352
		c0,0,3.764-1.709,5.481-3.355c0,0,0.215,1.074-1.359,2.076c0,0,2.576-0.287,4.725-2.076c0,0-0.215,1.146-2.219,2.148
		c0,0,5.869,0.643,9.734-3.508c0,0,0.565,3.766,3.787,4.625l1.868-1.477l-1.718-5.654L34.111,9.77
		C33.362,7.303,31.087,5.615,28.507,5.615"/>
</g>
</svg>
