<?xml version="1.0" encoding="utf-8"?>
<!-- Generator: Adobe Illustrator 18.0.0, SVG Export Plug-In . SVG Version: 6.00 Build 0)  -->
<!DOCTYPE svg PUBLIC "-//W3C//DTD SVG 1.1//EN" "http://www.w3.org/Graphics/SVG/1.1/DTD/svg11.dtd">
<svg version="1.1" id="Layer_1" xmlns="http://www.w3.org/2000/svg" xmlns:xlink="http://www.w3.org/1999/xlink" x="0px" y="0px"
	 viewBox="0 0 48 48" enable-background="new 0 0 48 48" xml:space="preserve">
<g>
	<path fill="#F2F2F2" d="M46,18.8H2c-1.1,0-2-0.9-2-2V2c0-1.1,0.9-2,2-2h44c1.1,0,2,0.9,2,2v14.8C48,17.9,47.1,18.8,46,18.8z"/>
	<path fill="#CDD6E0" d="M0,14v2.8c0,1.1,0.9,2,2,2h44c1.1,0,2-0.9,2-2V14H0z"/>
	<rect x="12.3" y="8.3" fill="#CDD6E0" width="23.4" height="2.3"/>
	<rect x="12.3" y="3.4" fill="#CDD6E0" width="23.4" height="2.3"/>
	<path fill="#ACB3BA" d="M41,18.8H7v-2.1c0-0.6,0.4-1,1-1h32c0.6,0,1,0.4,1,1V18.8z"/>
	<circle fill="#F8B64C" cx="43.4" cy="3.8" r="1"/>
	<circle fill="#F8B64C" cx="43.4" cy="7" r="1"/>
	<circle fill="#F8B64C" cx="43.4" cy="10.2" r="1"/>
	<path fill="#FFD15C" d="M24,48L24,48c-4.9,0-8.9-4-8.9-8.9V26.9c0-1.1,0.9-2,2-2h13.7c1.1,0,2,0.9,2,2v12.3C32.9,44,28.9,48,24,48z
		"/>
	<rect x="16.6" y="26.4" fill="#FF7058" width="14.7" height="7.1"/>
	<path fill="#FFFFFF" d="M20.4,31.8h-2.6c0-0.2,0.1-0.4,0.2-0.7c0.2-0.2,0.4-0.5,0.9-0.8c0.3-0.2,0.5-0.4,0.7-0.6
		c0.2-0.2,0.3-0.5,0.3-0.7c0-0.2-0.1-0.4-0.2-0.5c-0.1-0.1-0.3-0.2-0.5-0.2c-0.2,0-0.4,0.1-0.5,0.2c-0.1,0.1-0.2,0.3-0.2,0.6
		L17.9,29c0-0.4,0.2-0.6,0.4-0.8c0.2-0.2,0.5-0.3,0.9-0.3c0.4,0,0.7,0.1,0.9,0.3c0.2,0.2,0.3,0.5,0.3,0.8c0,0.3-0.1,0.5-0.3,0.8
		c-0.2,0.3-0.5,0.6-1.1,1c-0.3,0.2-0.5,0.4-0.6,0.6h1.9V31.8z"/>
	<path fill="#FFFFFF" d="M21.7,29.8c0.2-0.3,0.5-0.5,0.9-0.5c0.3,0,0.6,0.1,0.8,0.4c0.2,0.2,0.3,0.5,0.3,0.9c0,0.4-0.1,0.7-0.3,0.9
		c-0.2,0.3-0.5,0.4-0.9,0.4c-0.4,0-0.7-0.1-1-0.4c-0.3-0.3-0.4-0.8-0.4-1.5c0-0.7,0.1-1.2,0.4-1.6c0.2-0.4,0.6-0.5,1-0.5
		c0.3,0,0.5,0.1,0.7,0.2c0.2,0.2,0.3,0.4,0.4,0.7l-0.5,0c-0.1-0.4-0.3-0.6-0.7-0.6c-0.2,0-0.5,0.1-0.6,0.4
		C21.7,28.9,21.7,29.3,21.7,29.8L21.7,29.8z M22.5,31.5c0.2,0,0.4-0.1,0.5-0.3c0.1-0.2,0.2-0.4,0.2-0.6c0-0.3-0.1-0.5-0.2-0.6
		c-0.1-0.2-0.3-0.2-0.6-0.2c-0.2,0-0.4,0.1-0.5,0.2c-0.2,0.2-0.2,0.4-0.2,0.6c0,0.3,0.1,0.5,0.2,0.7C22.1,31.4,22.3,31.5,22.5,31.5z
		"/>
	<path fill="#FFFFFF" d="M18.3,39.8L18.3,39.8c-0.9,0-1.7-0.8-1.7-1.7l0,0c0-0.9,0.8-1.7,1.7-1.7l0,0c0.9,0,1.7,0.8,1.7,1.7l0,0
		C20,39.1,19.3,39.8,18.3,39.8z"/>
	<path fill="#FFFFFF" d="M24,39.8L24,39.8c-0.9,0-1.7-0.8-1.7-1.7l0,0c0-0.9,0.8-1.7,1.7-1.7l0,0c0.9,0,1.7,0.8,1.7,1.7l0,0
		C25.7,39.1,24.9,39.8,24,39.8z"/>
	<path fill="#FFFFFF" d="M24,45.6L24,45.6c-0.9,0-1.7-0.8-1.7-1.7l0,0c0-0.9,0.8-1.7,1.7-1.7l0,0c0.9,0,1.7,0.8,1.7,1.7l0,0
		C25.7,44.8,24.9,45.6,24,45.6z"/>
	<path fill="#FFFFFF" d="M29.7,39.8L29.7,39.8c-0.9,0-1.7-0.8-1.7-1.7l0,0c0-0.9,0.8-1.7,1.7-1.7l0,0c0.9,0,1.7,0.8,1.7,1.7l0,0
		C31.4,39.1,30.6,39.8,29.7,39.8z"/>
</g>
</svg>
