<?xml version="1.0" encoding="utf-8"?>
<!-- Generator: Adobe Illustrator 18.0.0, SVG Export Plug-In . SVG Version: 6.00 Build 0)  -->
<!DOCTYPE svg PUBLIC "-//W3C//DTD SVG 1.1//EN" "http://www.w3.org/Graphics/SVG/1.1/DTD/svg11.dtd">
<svg version="1.1" id="Layer_1" xmlns="http://www.w3.org/2000/svg" xmlns:xlink="http://www.w3.org/1999/xlink" x="0px" y="0px"
	 viewBox="0 0 48 48" enable-background="new 0 0 48 48" xml:space="preserve">
<g>
	<g>
		<g>
			<g>
				<g>
					<path fill="#66C6B9" d="M9.2,20.2c-0.6,8.3,5.8,14.6,14.1,14.1C23.8,25.9,17.5,19.6,9.2,20.2z"/>
				</g>
			</g>
			<g>
				<g>
					<path fill="#66C6B9" d="M38.8,20.2c0.6,8.3-5.8,14.6-14.1,14.1C24.2,25.9,30.5,19.6,38.8,20.2z"/>
				</g>
			</g>
		</g>
		<g>
			<g>
				<rect x="23" y="21" fill="#415A6B" width="2" height="21.2"/>
			</g>
		</g>
		<g>
			<g>
				<g>
					<circle fill="#FFD15C" cx="24" cy="11.2" r="11.2"/>
				</g>
			</g>
			<g>
				<g>
					<circle fill="#F7B64C" cx="24" cy="11.2" r="8.3"/>
				</g>
			</g>
			<g>
				<g>
					<path fill="#FFD15C" d="M23.4,17.1v-1c-1.2-0.2-2.3-0.7-3.2-1.6l1.3-1.6c0.7,0.6,1.4,1,2,1.2V12c-1-0.2-1.7-0.6-2.1-1
						c-0.5-0.4-0.7-1-0.7-1.8c0-0.8,0.3-1.4,0.8-2c0.5-0.5,1.2-0.8,2-0.9V5.3h1.5v1.1c0.9,0.1,1.8,0.5,2.8,1.1l-1.1,1.6
						c-0.6-0.4-1.1-0.7-1.6-0.8v2c1,0.3,1.7,0.6,2.2,1c0.5,0.4,0.7,1,0.7,1.8c0,0.8-0.3,1.4-0.8,2c-0.5,0.5-1.2,0.8-2.1,0.9v1H23.4z
						 M23.4,8.3C23,8.4,22.8,8.7,22.8,9s0.2,0.6,0.6,0.8V8.3z M25.6,13.3c0-0.2-0.1-0.4-0.2-0.5c-0.1-0.1-0.3-0.2-0.6-0.4v1.7
						C25.4,14,25.6,13.7,25.6,13.3z"/>
				</g>
			</g>
		</g>
		<g>
			<g>
				<path fill="#F3705A" d="M37.7,48c-1.6-4.3-7.1-7.5-13.7-7.5c-6.6,0-12.1,3.2-13.7,7.5H37.7z"/>
			</g>
		</g>
	</g>
</g>
</svg>
