<?xml version="1.0" encoding="utf-8"?>
<!-- Generator: Adobe Illustrator 18.0.0, SVG Export Plug-In . SVG Version: 6.00 Build 0)  -->
<!DOCTYPE svg PUBLIC "-//W3C//DTD SVG 1.1//EN" "http://www.w3.org/Graphics/SVG/1.1/DTD/svg11.dtd">
<svg version="1.1" id="Layer_1" xmlns="http://www.w3.org/2000/svg" xmlns:xlink="http://www.w3.org/1999/xlink" x="0px" y="0px"
	 viewBox="0 0 48 48" enable-background="new 0 0 48 48" xml:space="preserve">
<g>
	<g>
		<path fill="#E8EAE9" d="M47.3,12.6L35.4,0.7c-1-1-2.6-1-3.6,0L0.7,31.8c-1,1-1,2.6,0,3.6l11.9,11.9c1,1,2.6,1,3.6,0l31.1-31.1
			C48.2,15.2,48.2,13.6,47.3,12.6z"/>
		<g>
			<g>
				<circle fill="#F3705A" cx="33.6" cy="5.9" r="1.9"/>
			</g>
			<g>
				<circle fill="#FFD15C" cx="42.1" cy="14.4" r="1.9"/>
			</g>
			<g>
				<g>
					<circle fill="#ADB3BA" cx="29.3" cy="10.2" r="1.9"/>
				</g>
				<g>
					<circle fill="#ADB3BA" cx="25" cy="14.4" r="1.9"/>
				</g>
				<g>
					<circle fill="#ADB3BA" cx="20.7" cy="18.7" r="1.9"/>
				</g>
				<g>
					<circle fill="#ADB3BA" cx="33.6" cy="14.4" r="1.9"/>
				</g>
				<g>
					<circle fill="#ADB3BA" cx="29.3" cy="18.7" r="1.9"/>
				</g>
				<g>
					<circle fill="#ADB3BA" cx="25" cy="23" r="1.9"/>
				</g>
				<g>
					<circle fill="#ADB3BA" cx="37.8" cy="18.7" r="1.9"/>
				</g>
				<g>
					<circle fill="#ADB3BA" cx="33.6" cy="23" r="1.9"/>
				</g>
				<g>
					<circle fill="#ADB3BA" cx="29.3" cy="27.3" r="1.9"/>
				</g>
			</g>
		</g>
		<g>
			<g>
				<path fill="#ADB3BA" d="M21.5,34.1l-3,0c-0.1,0.8-0.5,1.5-1.1,2.1c-0.6,0.6-1.3,1-2.1,1.1l0,3c1.5-0.2,3-0.8,4.2-2
					C20.7,37.1,21.3,35.6,21.5,34.1z"/>
				<path fill="#ADB3BA" d="M13.9,37.3c-0.8-0.1-1.5-0.5-2.1-1.1c-0.6-0.6-1-1.3-1.1-2.1l-3,0c0.2,1.5,0.8,3,2,4.2s2.6,1.8,4.2,2
					L13.9,37.3z"/>
				<path fill="#ADB3BA" d="M10.7,32.6c0.1-0.8,0.5-1.5,1.1-2.1c0.6-0.6,1.3-1,2.1-1.1l0-3c-1.5,0.2-3,0.8-4.2,2
					c-1.2,1.2-1.8,2.6-2,4.2L10.7,32.6z"/>
				<path fill="#ADB3BA" d="M15.4,29.5c0.8,0.1,1.5,0.5,2.1,1.1c0.6,0.6,1,1.3,1.1,2.1l3,0c-0.2-1.5-0.8-3-2-4.2s-2.6-1.8-4.2-2
					L15.4,29.5z"/>
			</g>
			<g>
				<circle fill="#ADB3BA" cx="14.6" cy="33.4" r="2.5"/>
			</g>
		</g>
	</g>
</g>
</svg>
