<?xml version="1.0" encoding="utf-8"?>
<!-- Generator: Adobe Illustrator 18.0.0, SVG Export Plug-In . SVG Version: 6.00 Build 0)  -->
<!DOCTYPE svg PUBLIC "-//W3C//DTD SVG 1.1//EN" "http://www.w3.org/Graphics/SVG/1.1/DTD/svg11.dtd">
<svg version="1.1" id="Layer_1" xmlns="http://www.w3.org/2000/svg" xmlns:xlink="http://www.w3.org/1999/xlink" x="0px" y="0px"
	 viewBox="0 0 48 48" enable-background="new 0 0 48 48" xml:space="preserve">
<g>
	<g>
		<path fill="#F3705A" d="M24,0C10.7,0,0,10.7,0,24s10.7,24,24,24s24-10.7,24-24S37.3,0,24,0z M24,36.4c-6.8,0-12.4-5.5-12.4-12.4
			c0-6.8,5.5-12.4,12.4-12.4S36.4,17.2,36.4,24C36.4,30.8,30.8,36.4,24,36.4z"/>
		<g>
			<path fill="#E8EAE9" d="M24,11.6c1.7,0,3.3,0.3,4.7,0.9L32,1.4C29.5,0.5,26.8,0,24,0c-2.8,0-5.5,0.5-8,1.4l3.3,11.2
				C20.7,12,22.3,11.6,24,11.6z"/>
			<path fill="#E8EAE9" d="M24,36.4c-1.7,0-3.3-0.3-4.7-0.9L16,46.6c2.5,0.9,5.2,1.4,8,1.4c2.8,0,5.5-0.5,8-1.4l-3.3-11.2
				C27.3,36,25.7,36.4,24,36.4z"/>
			<path fill="#E8EAE9" d="M46.6,16l-11.2,3.3c0.6,1.5,0.9,3.1,0.9,4.7c0,1.7-0.3,3.3-0.9,4.7L46.6,32c0.9-2.5,1.4-5.2,1.4-8
				C48,21.2,47.5,18.5,46.6,16z"/>
			<path fill="#E8EAE9" d="M11.6,24c0-1.7,0.3-3.3,0.9-4.7L1.4,16C0.5,18.5,0,21.2,0,24c0,2.8,0.5,5.5,1.4,8l11.2-3.3
				C12,27.3,11.6,25.7,11.6,24z"/>
		</g>
	</g>
</g>
</svg>
