<?xml version="1.0" encoding="utf-8"?>
<!-- Generator: Adobe Illustrator 18.0.0, SVG Export Plug-In . SVG Version: 6.00 Build 0)  -->
<!DOCTYPE svg PUBLIC "-//W3C//DTD SVG 1.1//EN" "http://www.w3.org/Graphics/SVG/1.1/DTD/svg11.dtd">
<svg version="1.1" id="Layer_1" xmlns="http://www.w3.org/2000/svg" xmlns:xlink="http://www.w3.org/1999/xlink" x="0px" y="0px"
	 viewBox="0 0 48 48" enable-background="new 0 0 48 48" xml:space="preserve">
<g>
	<g>
		<path fill="#FF7058" d="M41.3,1.2c-0.9-1.3-2.9-1.5-4.4-0.4c-0.9,0.7-2.6,2.4-3.5,4c-0.9-1.6-2.6-3.3-3.5-4
			c-1.5-1.1-3.5-0.9-4.4,0.4c-0.9,1.3-0.4,3.2,1.1,4.3c1.2,0.8,4.4,2.1,6.2,2c0.4,0,0.9,0,1.3,0c1.8,0.1,5-1.2,6.2-2
			C41.8,4.5,42.2,2.5,41.3,1.2z M27.6,4.1c-0.7-0.5-1-1.4-0.7-1.9c0.2-0.3,0.7-0.4,0.9-0.4c0.4,0,0.8,0.1,1.1,0.4
			c1,0.7,2.4,2.4,3,3.5C30.5,5.5,28.4,4.7,27.6,4.1z M39.2,4.1c-0.8,0.6-2.9,1.4-4.4,1.6c0.6-1.1,2.1-2.9,3-3.5
			C38.2,2,38.6,1.8,39,1.8c0.2,0,0.6,0,0.9,0.4C40.2,2.7,39.9,3.6,39.2,4.1z"/>
		<path fill="#FFD15C" d="M45.4,13h-24c-1.1,0-2-0.9-2-2V9.2c0-1.1,0.9-2,2-2h24c1.1,0,2,0.9,2,2V11C47.4,12.1,46.5,13,45.4,13z"/>
		<path fill="#F8B64C" d="M44,28.2H22.8c-1.1,0-2-0.9-2-2V13H46v13.2C46,27.3,45.1,28.2,44,28.2z"/>
		<rect x="30.7" y="7.2" fill="#FF7058" width="5.4" height="20.9"/>
		<rect x="20.8" y="13" opacity="0.1" fill="#231F20" width="25.1" height="1"/>
		<path fill="#FF7058" d="M33.4,0.1"/>
	</g>
	<g>
		<g>
			<path fill="#CDD6E0" d="M45.7,32.9c0,0-4.8,3.8-7.5,5c0,0-5.9,3.2-11.5,3.4H18c0,0-1.6-0.3-3.7,1.1c-0.3,0.2-0.5,0.3-0.8,0.6
				c-0.4,0.3-0.9,0.7-1.3,1.2L5.2,34c0,0,0.6-0.4,1.4-1.1c0.2-0.2,0.5-0.4,0.7-0.7c0.6-0.5,1.2-1.2,1.8-1.9c0,0,3.7-4.8,12-1.9
				c5.8,2,6.5,2.1,6.5,2.1s3.5,0.4,6.9,0.4c0,0,2.8,0,2.7,2.1c0,0.7-0.4,1.3-0.9,1.8c-0.7,0.6-2,1.3-4.4,1.5c-1,0.1-2.1,0.1-3.1,0
				c-2.6-0.2-5.7-0.7-6.3-0.3c0,0-0.8,0.6,2.3,1c0,0,2.3,0.3,6.4,0.4c0,0,7.4-0.3,7.1-5.5c0,0,2.6-1.6,4.1-2.2c0,0,4.2-2.5,5.2-0.9
				C47.7,28.9,48.9,30.5,45.7,32.9z"/>
			<path fill="#FFFFFF" d="M36.1,32.4c-0.3-0.3-1.1-0.5-1.5-0.5l-0.5,0c-0.4,0-0.7,0-1.1,0v3.3c1.4-0.3,2.2-0.8,2.7-1.1
				c0.3-0.3,0.5-0.7,0.6-1.1C36.2,32.6,36.1,32.5,36.1,32.4z"/>
		</g>
		<path fill="#ACB3BA" d="M14.3,42.4c-0.3,0.2-0.5,0.3-0.8,0.6c-0.4,0.3-0.9,0.7-1.3,1.2L5.2,34c0,0,0.6-0.4,1.4-1.1
			c0.2-0.2,0.5-0.4,0.7-0.7L14.3,42.4z"/>
		
			<rect x="4.1" y="31.3" transform="matrix(0.8238 -0.5668 0.5668 0.8238 -21.0709 11.0661)" fill="#40596B" width="6.3" height="16.3"/>
		<circle fill="#FF7058" cx="10.5" cy="43.9" r="1.4"/>
	</g>
</g>
</svg>
