<?xml version="1.0" encoding="utf-8"?>
<!-- Generator: Adobe Illustrator 18.0.0, SVG Export Plug-In . SVG Version: 6.00 Build 0)  -->
<!DOCTYPE svg PUBLIC "-//W3C//DTD SVG 1.1//EN" "http://www.w3.org/Graphics/SVG/1.1/DTD/svg11.dtd">
<svg version="1.1" id="Layer_1" xmlns="http://www.w3.org/2000/svg" xmlns:xlink="http://www.w3.org/1999/xlink" x="0px" y="0px"
	 viewBox="0 0 48 48" enable-background="new 0 0 48 48" xml:space="preserve">
<g>
	<g>
		<circle fill="#FFD15C" cx="30.5" cy="13" r="11.4"/>
		<circle fill="#F8B64C" cx="30.5" cy="13" r="9.4"/>
		<path fill="#FFD15C" d="M30,17.9c-1.5-0.1-2.6-0.7-3.4-1.5l1.1-1.6c0.5,0.6,1.3,1.1,2.3,1.2v-2.2c-1.5-0.4-3.1-0.9-3.1-2.9
			c0-1.5,1.1-2.7,3.1-2.9V6.7h1.4v1.4c1.2,0.1,2.2,0.6,2.9,1.3l-1.1,1.5c-0.5-0.5-1.2-0.8-1.8-0.9v2c1.5,0.4,3.2,0.9,3.2,2.9
			c0,1.6-1,2.8-3.2,3v1.3H30V17.9z M30,11.6V9.9c-0.6,0.1-1,0.4-1,0.9C29,11.2,29.4,11.5,30,11.6z M31.3,14.2v1.9
			c0.7-0.1,1.1-0.6,1.1-1C32.4,14.6,32,14.4,31.3,14.2z"/>
	</g>
	<g>
		<g>
			<path fill="#FFD15C" d="M45.7,31.4c0,0-4.8,3.8-7.5,5c0,0-5.9,3.2-11.5,3.4H18c0,0-1.6-0.3-3.7,1.1c-0.3,0.2-0.5,0.4-0.8,0.6
				c-0.4,0.3-0.9,0.7-1.3,1.2l-7-10.2c0,0,0.6-0.4,1.4-1.1c0.2-0.2,0.5-0.4,0.7-0.7c0.6-0.5,1.2-1.2,1.8-1.9c0,0,3.7-4.8,12-1.9
				c5.8,2,6.5,2.1,6.5,2.1s3.5,0.4,6.9,0.4c0,0,2.8,0,2.7,2.1c0,0.7-0.4,1.3-0.9,1.8c-0.7,0.6-2,1.3-4.4,1.5c-1,0.1-2.1,0.1-3.1,0
				c-2.6-0.2-5.7-0.7-6.3-0.3c0,0-0.8,0.6,2.3,1c0,0,2.3,0.3,6.4,0.4c0,0,7.4-0.3,7.1-5.5c0,0,2.6-1.6,4.1-2.2c0,0,4.2-2.5,5.2-0.9
				C47.7,27.4,48.9,29.1,45.7,31.4z"/>
			<path fill="#FFFFFF" d="M36.1,30.9c-0.3-0.3-1.1-0.5-1.5-0.5l-0.5,0c-0.4,0-0.7,0-1.1,0v3.3c1.4-0.3,2.2-0.8,2.7-1.1
				c0.3-0.3,0.5-0.7,0.6-1.1C36.2,31.2,36.1,31,36.1,30.9z"/>
		</g>
		<path fill="#F8B64C" d="M14.3,40.9c-0.3,0.2-0.5,0.4-0.8,0.6c-0.4,0.3-0.9,0.7-1.3,1.2l-7-10.2c0,0,0.6-0.4,1.4-1.1
			c0.2-0.2,0.5-0.4,0.7-0.7L14.3,40.9z"/>
		
			<rect x="4.1" y="29.8" transform="matrix(0.8238 -0.5668 0.5668 0.8238 -20.2367 10.8068)" fill="#40596B" width="6.3" height="16.3"/>
		<circle fill="#FF7058" cx="10.5" cy="42.4" r="1.4"/>
	</g>
</g>
</svg>
