<?xml version="1.0" encoding="utf-8"?>
<!-- Generator: Adobe Illustrator 16.0.0, SVG Export Plug-In . SVG Version: 6.00 Build 0)  -->
<!DOCTYPE svg PUBLIC "-//W3C//DTD SVG 1.1//EN" "http://www.w3.org/Graphics/SVG/1.1/DTD/svg11.dtd">
<svg version="1.1" id="Layer_1" xmlns="http://www.w3.org/2000/svg" xmlns:xlink="http://www.w3.org/1999/xlink" x="0px" y="0px"
	 width="48px" height="48px" viewBox="0 0 48 48" enable-background="new 0 0 48 48" xml:space="preserve">
<g>
	<rect y="44.942" fill="#CDD6E0" width="48" height="3.031"/>
	<path fill="#F2F2F2" d="M41.294,19.485v28.488H6.703V19.485c0.16-0.08,0.32-0.17,0.461-0.291l16.84-14.529l16.84,14.529
		C40.984,19.315,41.134,19.405,41.294,19.485"/>
	<rect x="25.74" y="34.915" fill="#54C0EB" width="12.865" height="7.727"/>
	<rect x="25.109" y="42.642" fill="#CDD6E0" width="14.127" height="0.902"/>
	<rect x="9.188" y="4.948" fill="#CDD6E0" width="5.436" height="7.578"/>
	<rect x="8.002" y="2.817" fill="#E2E2E2" width="7.809" height="2.131"/>
	<path fill="#FF7058" d="M9.73,47.974V36.245c0-3.678,2.982-6.66,6.66-6.66c3.679,0,6.66,2.982,6.66,6.66v11.729H9.73z"/>
	<path fill="#F1543F" d="M10.73,36.745c0-3.678,2.982-6.66,6.66-6.66c0.867,0,1.691,0.17,2.451,0.471
		c-1.008-0.611-2.187-0.971-3.451-0.971c-3.678,0-6.66,2.982-6.66,6.66v11.729h1V36.745z"/>
	<rect x="6.703" y="21.835" fill="#CDD6E0" width="34.591" height="2"/>
	<path fill="#40596B" d="M43.329,20.964c-0.493,0-0.987-0.17-1.391-0.518L24,4.97L6.062,20.446
		c-0.892,0.768-2.236,0.668-3.005-0.223s-0.67-2.236,0.222-3.004l19.33-16.676c0.8-0.689,1.983-0.689,2.782,0L44.723,17.22
		c0.89,0.768,0.99,2.113,0.221,3.004C44.522,20.712,43.928,20.964,43.329,20.964"/>
	<path fill="#40596B" d="M22.013,40.159c0,0.434-0.351,0.785-0.784,0.785s-0.785-0.352-0.785-0.785s0.352-0.785,0.785-0.785
		S22.013,39.726,22.013,40.159"/>
	<path fill="#FFD15C" d="M27.704,14.563c0,2.045-1.659,3.705-3.705,3.705s-3.705-1.66-3.705-3.705c0-2.047,1.659-3.705,3.705-3.705
		S27.704,12.517,27.704,14.563"/>
	<path fill="#F8B64C" d="M21.256,15.044c0-1.781,1.443-3.225,3.225-3.225c1.697,0,3.074,1.318,3.199,2.984
		c0.006-0.082,0.024-0.158,0.024-0.24c0-2.047-1.659-3.705-3.705-3.705s-3.705,1.658-3.705,3.705c0,2.045,1.659,3.705,3.705,3.705
		c0.082,0,0.159-0.02,0.239-0.023C22.572,18.12,21.256,16.743,21.256,15.044"/>
</g>
</svg>
