<?xml version="1.0" encoding="utf-8"?>
<!-- Generator: Adobe Illustrator 18.0.0, SVG Export Plug-In . SVG Version: 6.00 Build 0)  -->
<!DOCTYPE svg PUBLIC "-//W3C//DTD SVG 1.1//EN" "http://www.w3.org/Graphics/SVG/1.1/DTD/svg11.dtd">
<svg version="1.1" id="Layer_1" xmlns="http://www.w3.org/2000/svg" xmlns:xlink="http://www.w3.org/1999/xlink" x="0px" y="0px"
	 viewBox="0 0 48 48" enable-background="new 0 0 48 48" xml:space="preserve">
<g>
	<g>
		<path fill="#F2F2F2" d="M33.2,36.4H2c-1.1,0-2-0.9-2-2V5.2c0-1.1,0.9-2,2-2h31.2c1.1,0,2,0.9,2,2v29.2
			C35.2,35.5,34.3,36.4,33.2,36.4z"/>
		<path fill="#CDD6E0" d="M33.7,3.2H1.4C0.6,3.2,0,3.9,0,4.7v6.4h35.2V4.7C35.2,3.9,34.5,3.2,33.7,3.2z"/>
		<g>
			<g>
				<circle fill="#FFFFFF" cx="8.9" cy="7.2" r="1.8"/>
				<path fill="#40596B" d="M8.9,7.8L8.9,7.8c-0.7,0-1.3-0.6-1.3-1.2V1.2C7.6,0.6,8.2,0,8.8,0h0.1c0.7,0,1.2,0.6,1.2,1.2v5.3
					C10.2,7.3,9.6,7.8,8.9,7.8z"/>
			</g>
			<g>
				<circle fill="#FFFFFF" cx="26.3" cy="7.2" r="1.8"/>
				<path fill="#40596B" d="M26.3,7.8L26.3,7.8c-0.7,0-1.3-0.6-1.3-1.2V1.2C25,0.6,25.6,0,26.3,0h0.1c0.7,0,1.2,0.6,1.2,1.2v5.3
					C27.6,7.3,27,7.8,26.3,7.8z"/>
			</g>
		</g>
		<g>
			<rect x="10.6" y="13.7" fill="#CDD6E0" width="5.9" height="5.3"/>
			<rect x="18.6" y="13.7" fill="#CDD6E0" width="5.9" height="5.3"/>
			<rect x="26.6" y="13.7" fill="#CDD6E0" width="5.9" height="5.3"/>
			<rect x="2.6" y="21.1" fill="#CDD6E0" width="5.9" height="5.3"/>
			<rect x="10.6" y="21.1" fill="#CDD6E0" width="5.9" height="5.3"/>
			<rect x="18.6" y="21.1" fill="#CDD6E0" width="5.9" height="5.3"/>
			<rect x="26.6" y="21.1" fill="#CDD6E0" width="5.9" height="5.3"/>
			<rect x="2.6" y="28.5" fill="#CDD6E0" width="5.9" height="5.3"/>
			<rect x="10.6" y="28.5" fill="#CDD6E0" width="5.9" height="5.3"/>
			<rect x="18.6" y="28.5" fill="#CDD6E0" width="5.9" height="5.3"/>
		</g>
	</g>
	<circle fill="#FF7058" cx="32.6" cy="32.6" r="15.4"/>
	<path fill="#FFD15C" d="M32.6,44.1C26.2,44.1,21,39,21,32.6C21,26.2,26.2,21,32.6,21s11.6,5.2,11.6,11.6C44.2,39,39,44.1,32.6,44.1
		z"/>
	<path opacity="0.1" fill="#231F20" d="M32.6,22.3c6.2,0,11.2,4.8,11.5,10.9c0-0.2,0-0.4,0-0.6C44.2,26.2,39,21,32.6,21
		S21,26.2,21,32.6c0,0.2,0,0.4,0,0.6C21.4,27.1,26.4,22.3,32.6,22.3z"/>
	<path fill="#FFFFFF" d="M31.8,31.5v-7.4c0-0.4,0.3-0.8,0.8-0.8s0.8,0.3,0.8,0.8v7.4c0,0.4-0.3,0.8-0.8,0.8S31.8,31.9,31.8,31.5z"/>
	<path fill="#FFFFFF" d="M32.6,31.8H40c0.4,0,0.8,0.3,0.8,0.8s-0.3,0.8-0.8,0.8h-7.4c-0.4,0-0.8-0.3-0.8-0.8S32.2,31.8,32.6,31.8z"
		/>
	<circle fill="#FF7058" cx="32.6" cy="32.6" r="2"/>
	<circle fill="#FFFFFF" cx="32.6" cy="32.6" r="1.1"/>
</g>
</svg>
