<?xml version="1.0" encoding="utf-8"?>
<!-- Generator: Adobe Illustrator 18.0.0, SVG Export Plug-In . SVG Version: 6.00 Build 0)  -->
<!DOCTYPE svg PUBLIC "-//W3C//DTD SVG 1.1//EN" "http://www.w3.org/Graphics/SVG/1.1/DTD/svg11.dtd">
<svg version="1.1" id="Layer_1" xmlns="http://www.w3.org/2000/svg" xmlns:xlink="http://www.w3.org/1999/xlink" x="0px" y="0px"
	 viewBox="0 0 48 48" enable-background="new 0 0 48 48" xml:space="preserve">
<g>
	<g>
		<g>
			<g>
				<g>
					<polygon fill="#FFD15C" points="34,31.6 34.9,12.7 24,2 13.1,12.7 14,31.6 					"/>
				</g>
				<path fill="#F3705A" d="M38.3,13.5L25.4,0.6c-0.8-0.8-2-0.8-2.8,0L9.7,13.5c-0.8,0.8-0.8,2,0,2.8c0.8,0.8,2,0.8,2.8,0L24,4.8
					l11.5,11.5c0.8,0.8,2,0.8,2.8,0C39.1,15.5,39.1,14.2,38.3,13.5z"/>
				<g>
					<path fill="#415A6B" d="M28.1,31.6v-6.1c0-2.3-1.8-4.1-4.1-4.1s-4.1,1.8-4.1,4.1v6.1H28.1z"/>
				</g>
				<g>
					<circle fill="#415A6B" cx="24" cy="14.9" r="3.8"/>
				</g>
			</g>
			<g>
				<path fill="#F7B64C" d="M11.6,33.2L11.6,33.2c0,1.2,1,2.1,2.1,2.1h20.6c1.2,0,2.1-1,2.1-2.1l0,0c0-1.2-1-2.1-2.1-2.1H13.7
					C12.5,31.1,11.6,32.1,11.6,33.2z"/>
			</g>
			<g>
				<rect x="21.2" y="33.8" fill="#F7B64C" width="5.6" height="14.2"/>
			</g>
		</g>
	</g>
</g>
</svg>
