<?xml version="1.0" encoding="utf-8"?>
<!-- Generator: Adobe Illustrator 18.0.0, SVG Export Plug-In . SVG Version: 6.00 Build 0)  -->
<!DOCTYPE svg PUBLIC "-//W3C//DTD SVG 1.1//EN" "http://www.w3.org/Graphics/SVG/1.1/DTD/svg11.dtd">
<svg version="1.1" id="Layer_1" xmlns="http://www.w3.org/2000/svg" xmlns:xlink="http://www.w3.org/1999/xlink" x="0px" y="0px"
	 viewBox="0 0 512 512" enable-background="new 0 0 512 512" xml:space="preserve">
<g>
	<path fill="#FF7058" d="M421.1,2H23.2C11.5,2,2,11.5,2,23.2v269.9c0,11.7,9.5,21.2,21.2,21.2h397.9c11.7,0,21.2-9.5,21.2-21.2V23.2
		C442.2,11.5,432.8,2,421.1,2z"/>
	<rect x="2" y="61.2" fill="#40596B" width="440.2" height="59.7"/>
	<path fill="#FFFFFF" d="M90.1,151.5h-57c-6.8,0-12.3,5.5-12.3,12.3c0,6.8,5.5,12.3,12.3,12.3h57c6.8,0,12.3-5.5,12.3-12.3
		C102.4,157,96.9,151.5,90.1,151.5z"/>
	<path fill="#FFFFFF" d="M197.1,151.5h-57c-6.8,0-12.3,5.5-12.3,12.3c0,6.8,5.5,12.3,12.3,12.3h57c6.8,0,12.3-5.5,12.3-12.3
		C209.4,157,203.9,151.5,197.1,151.5z"/>
	<path fill="#40596B" d="M488.8,432.5h-173c-11.7,0-21.2,9.5-21.2,21.2v35.2c0,11.7,9.5,21.2,21.2,21.2h173
		c11.7,0,21.2-9.5,21.2-21.2v-35.2C510,442,500.5,432.5,488.8,432.5z"/>
	<path fill="#FFD15C" d="M475.6,230.3c-13.5,0-24.4,10.9-24.4,24.4c0-13.5-10.9-24.4-24.4-24.4h0c-13.5,0-24.4,10.9-24.4,24.4
		c0-13.5-10.9-24.4-24.4-24.4c-13.5,0-24.4,10.9-24.4,24.4v-88.9c0-13.5-10.9-24.4-24.4-24.4c-13.5,0-24.4,10.9-24.4,24.4v166.6
		c-19.3-14.1-43.1-22.4-68.7-22.4h-7.1c-13.5,0-24.4,10.9-24.4,24.4c0,13.5,10.9,24.4,24.4,24.4h7.1c37.6,0,68.2,30.6,68.2,68.2
		c0,1.8,0.2,3.5,0.6,5.2v0.5h0.1c0.2,0.8,0.5,1.8,0.8,2.7c3-1.7,6.5-2.7,10.2-2.7h173c4.1,0,7.9,1.2,11.1,3.2v-181
		C500,241.2,489,230.3,475.6,230.3z"/>
	<circle fill="#FFFFFF" cx="472.1" cy="471.3" r="15.5"/>
</g>
</svg>
