<?xml version="1.0" encoding="utf-8"?>
<!-- Generator: Adobe Illustrator 18.0.0, SVG Export Plug-In . SVG Version: 6.00 Build 0)  -->
<!DOCTYPE svg PUBLIC "-//W3C//DTD SVG 1.1//EN" "http://www.w3.org/Graphics/SVG/1.1/DTD/svg11.dtd">
<svg version="1.1" id="Layer_1" xmlns="http://www.w3.org/2000/svg" xmlns:xlink="http://www.w3.org/1999/xlink" x="0px" y="0px"
	 viewBox="0 0 48 48" enable-background="new 0 0 48 48" xml:space="preserve">
<g>
	<g>
		<g>
			<path fill="#F3705B" d="M47.5,21.4l-4.4-10c-0.4-0.9-1.3-1.4-2.2-1.4H30.2c-1.1,0-2,0.9-2,2v20.8h18.4c0.8,0,1.4-0.6,1.4-1.4V24
				C48,23.1,47.8,22.2,47.5,21.4z"/>
			<path fill="#435B6C" d="M44.7,21.7L40.9,13c-0.1-0.3-0.4-0.4-0.7-0.4h-8.7c-0.4,0-0.7,0.3-0.7,0.7v6.8c0,0.4,0.3,0.7,0.7,0.7H35
				c0.4,0,0.7,0.3,0.7,0.7V22c0,0.4,0.3,0.7,0.7,0.7H44C44.6,22.7,44.9,22.2,44.7,21.7z"/>
		</g>
		<path fill="#F15741" d="M1.3,22C0.6,22,0,22.6,0,23.3v8.2c0,0.7,0.6,1.3,1.3,1.3h26.9V22H1.3z"/>
		<g>
			<path fill="#354B5E" d="M11.2,25.3c-4.1,0-7.5,3.4-7.5,7.5h15C18.7,28.6,15.3,25.3,11.2,25.3z"/>
			<circle fill="#435B6C" cx="11.2" cy="32.8" r="5.3"/>
			<g>
				<circle fill="#F3F3F3" cx="11.2" cy="32.8" r="2.2"/>
			</g>
		</g>
		<g>
			<path fill="#354B5E" d="M38.3,25.3c-4.1,0-7.5,3.4-7.5,7.5h15C45.8,28.6,42.4,25.3,38.3,25.3z"/>
			<circle fill="#435B6C" cx="38.3" cy="32.8" r="5.3"/>
			<g>
				<circle fill="#F3F3F3" cx="38.3" cy="32.8" r="2.2"/>
			</g>
		</g>
	</g>
</g>
</svg>
