<?xml version="1.0" encoding="utf-8"?>
<!-- Generator: Adobe Illustrator 18.0.0, SVG Export Plug-In . SVG Version: 6.00 Build 0)  -->
<!DOCTYPE svg PUBLIC "-//W3C//DTD SVG 1.1//EN" "http://www.w3.org/Graphics/SVG/1.1/DTD/svg11.dtd">
<svg version="1.1" id="Layer_1" xmlns="http://www.w3.org/2000/svg" xmlns:xlink="http://www.w3.org/1999/xlink" x="0px" y="0px"
	 viewBox="0 0 512 512" enable-background="new 0 0 512 512" xml:space="preserve">
<g>
	<path fill="#84DBFF" d="M504,239.6h-41.5c-8.3-102.5-89.9-184.1-192.4-192.3V5.7h-34.2v41.5C133.4,55.5,51.8,137.1,43.5,239.6H2
		v34.2h41.5c8.3,102.5,89.9,184.2,192.4,192.5v41.4h34.2v-41.4c102.5-8.3,184.2-89.9,192.4-192.5H504V239.6z"/>
	<path fill="#FFFFFF" d="M253,401.2c-79.7,0-144.4-64.7-144.4-144.4S173.3,112.3,253,112.3S397.4,177,397.4,256.7
		S332.7,401.2,253,401.2z"/>
	<path fill="#FF7058" d="M253,335.2c-43.3,0-78.5-35.2-78.5-78.5s35.2-78.5,78.5-78.5s78.5,35.2,78.5,78.5S296.3,335.2,253,335.2z"
		/>
	<path fill="#40596B" d="M510,70.4l-48.9-16.7L445.5,4.3l-58.3,57l11.2,35.4L252,239.6c-5.1,5-5.2,13.3-0.2,18.4
		c5,5.1,13.3,5.2,18.4,0.2l146.3-142.9l35.1,12L510,70.4z"/>
</g>
</svg>
