<?xml version="1.0" encoding="utf-8"?>
<!-- Generator: Adobe Illustrator 18.0.0, SVG Export Plug-In . SVG Version: 6.00 Build 0)  -->
<!DOCTYPE svg PUBLIC "-//W3C//DTD SVG 1.1//EN" "http://www.w3.org/Graphics/SVG/1.1/DTD/svg11.dtd">
<svg version="1.1" id="Layer_1" xmlns="http://www.w3.org/2000/svg" xmlns:xlink="http://www.w3.org/1999/xlink" x="0px" y="0px"
	 viewBox="0 0 48 48" enable-background="new 0 0 48 48" xml:space="preserve">
<g>
	<g>
		<g>
			<rect x="12.6" y="38.8" fill="#344A5E" width="22.7" height="2.8"/>
			<path fill="#415A6B" d="M12.9,33.5L7.4,44.4C6.5,46,7.7,48,9.6,48c0.9,0,1.8-0.5,2.2-1.4l6.7-13.1H12.9z"/>
			<path fill="#415A6B" d="M35.1,33.5h-5.5l6.7,13.1c0.4,0.8,1.3,1.4,2.2,1.4c1.8,0,3-1.9,2.2-3.6L35.1,33.5z"/>
			<path fill="#8AD7F8" d="M44,0H4C1.8,0,0,1.8,0,4v28c0,2.2,1.8,4,4,4h40c2.2,0,4-1.8,4-4V4C48,1.8,46.2,0,44,0z"/>
			<rect x="4" y="4" fill="#F3F3F3" width="40" height="28"/>
			<g>
				<g>
					<rect x="28.6" y="13.3" fill="#CED6E0" width="11.9" height="2.2"/>
				</g>
				<g>
					<rect x="28.6" y="19.3" fill="#CED6E0" width="11.9" height="2.2"/>
				</g>
				<g>
					<rect x="28.6" y="25.3" fill="#CED6E0" width="11.9" height="2.2"/>
				</g>
				<polygon fill="#F3705A" points="26,17.8 16.8,8.6 7.5,17.8 				"/>
				<rect x="10.4" y="17.8" fill="#FFD15C" width="12.7" height="9.7"/>
				<rect x="14.8" y="21.9" fill="#415A6B" width="3.9" height="5.5"/>
			</g>
		</g>
	</g>
</g>
</svg>
