<?xml version="1.0" encoding="utf-8"?>
<!-- Generator: Adobe Illustrator 16.0.0, SVG Export Plug-In . SVG Version: 6.00 Build 0)  -->
<!DOCTYPE svg PUBLIC "-//W3C//DTD SVG 1.1//EN" "http://www.w3.org/Graphics/SVG/1.1/DTD/svg11.dtd">
<svg version="1.1" id="Layer_1" xmlns="http://www.w3.org/2000/svg" xmlns:xlink="http://www.w3.org/1999/xlink" x="0px" y="0px"
	 width="48px" height="48px" viewBox="0 0 48 48" enable-background="new 0 0 48 48" xml:space="preserve">
<g>
	<path fill="#F2F2F2" d="M35.443-0.001H4c-2.211,0-4,1.791-4,4v30.342c0,2.209,1.789,4,4,4h31.442c2.209,0,4-1.791,4-4V3.999
		C39.443,1.79,37.652-0.001,35.443-0.001"/>
	<rect x="15.75" y="0.001" fill="#FFD15C" width="7.94" height="7.414"/>
	<rect x="15.292" y="18.185" fill="#ACB3BA" width="1.402" height="8.822"/>
	<rect x="28.506" y="18.185" fill="#ACB3BA" width="1.402" height="8.822"/>
	<rect x="22.282" y="18.185" fill="#ACB3BA" width="0.959" height="7.178"/>
	<rect x="18.229" y="18.185" fill="#ACB3BA" width="0.705" height="7.178"/>
	<rect x="24.245" y="18.185" fill="#ACB3BA" width="0.705" height="7.178"/>
	<rect x="20.186" y="18.185" fill="#ACB3BA" width="1.061" height="7.178"/>
	<rect x="26.004" y="18.185" fill="#ACB3BA" width="1.019" height="7.178"/>
	
		<rect x="30.393" y="30.667" transform="matrix(0.7071 -0.7071 0.7071 0.7071 -13.799 33.3131)" fill="#334A5E" width="5.839" height="5.292"/>
	<path fill="#40596B" d="M12.562,12.556c-5.549,5.547-5.541,14.537,0,20.078s14.522,5.541,20.071-0.008
		c5.541-5.541,5.541-14.521,0-20.063S18.103,7.015,12.562,12.556 M29.985,29.978c-4.076,4.074-10.69,4.074-14.766,0
		c-4.076-4.076-4.076-10.691,0-14.766c4.075-4.076,10.682-4.068,14.757,0.008C34.052,19.294,34.059,25.901,29.985,29.978"/>
	<path fill="#FF7058" d="M47.694,41.796c-2.939-3.68-6.35-6.889-10.242-9.617c-0.302-0.213-0.719-0.174-0.979,0.088l-4.205,4.205
		c-0.263,0.262-0.3,0.678-0.089,0.98c2.728,3.893,5.938,7.303,9.617,10.242c0.565,0.453,1.388,0.395,1.898-0.117l3.883-3.883
		C48.088,43.183,48.146,42.362,47.694,41.796"/>
</g>
</svg>
