<?xml version="1.0" encoding="utf-8"?>
<!-- Generator: Adobe Illustrator 18.0.0, SVG Export Plug-In . SVG Version: 6.00 Build 0)  -->
<!DOCTYPE svg PUBLIC "-//W3C//DTD SVG 1.1//EN" "http://www.w3.org/Graphics/SVG/1.1/DTD/svg11.dtd">
<svg version="1.1" id="Layer_1" xmlns="http://www.w3.org/2000/svg" xmlns:xlink="http://www.w3.org/1999/xlink" x="0px" y="0px"
	 viewBox="0 0 48 48" enable-background="new 0 0 48 48" xml:space="preserve">
<g>
	<g>
		<g>
			<g>
				<path fill="#415A6B" d="M31.7,7.4V23h4.5v2h-4.5v15.6h4.5v2h-5.5c-0.5,0-1-0.4-1-1V25h-5c-0.6,0-1-0.4-1-1c0-0.5,0.4-1,1-1h5
					V6.4c0-0.5,0.5-1,1-1h5.5v2H31.7z"/>
			</g>
		</g>
		<g>
			<g>
				<g>
					<g>
						<path fill="#415A6B" d="M7.2,25.3l5.4,2.3l5.4-2.3l4.2,1.8c1,0.4,1.7,1.3,1.9,2.4l1.1,6.1H0l1.1-6.1C1.3,28.5,2,27.6,3,27.2
							L7.2,25.3z"/>
					</g>
				</g>
				<g>
					<g>
						<g>
							<g>
								<path fill="#E8EAE9" d="M10.2,35.6h5l1.2-7.5c0,0,0.1-1.1,0.2-2.1l-3.9,1.7L8.8,26C8.9,27.1,9,28.1,9,28.1L10.2,35.6z"/>
							</g>
						</g>
						<g>
							<g>
								<path fill="#8AD7F8" d="M10.8,35.6h3.8l-0.7-4.8l1-1c0,0-1.4-2.2-2.2-2.2c-0.8,0-2.2,2.2-2.2,2.2l1,1L10.8,35.6z"/>
							</g>
						</g>
						<g>
							<g>
								<g>
									<path fill="#F3F3F3" d="M9.1,22.9c0.7,2,2,3.5,3.6,4.8c-1.1,0.8-2,1.7-2.6,2.6l-2-6C8.5,23.7,8.9,23,9.1,22.9z"/>
								</g>
							</g>
							<g>
								<g>
									<path fill="#344A5E" d="M8.1,35.6h2L9,28.1c0,0-0.3-3.2-0.3-4.1c0-0.8,0.4-1.2,0.4-1.2c-0.5-0.1-3.2,4.7-3.2,4.7l1.6,0.5
										L5.7,29L8.1,35.6z"/>
								</g>
							</g>
						</g>
					</g>
					<g>
						<g>
							<path fill="#F3F3F3" d="M16.2,22.9c-0.7,2-2,3.5-3.6,4.8c1.1,0.8,2,1.7,2.6,2.6l2-6C16.9,23.7,16.4,23,16.2,22.9z"/>
						</g>
					</g>
					<g>
						<g>
							<g>
								<path fill="#344A5E" d="M16.6,24.1c0,0.8-0.3,4.1-0.3,4.1l-1.2,7.5h2l2.4-6.6l-1.8-0.9l1.6-0.5c0,0-2.7-4.8-3.2-4.7
									C16.2,22.9,16.6,23.2,16.6,24.1z"/>
							</g>
						</g>
					</g>
				</g>
			</g>
			<g>
				<g>
					<path fill="#F7B64C" d="M9.1,18.9v4c0.7,2,2,3.5,3.6,4.8c1.6-1.2,2.8-2.8,3.6-4.8v-4H9.1z"/>
				</g>
			</g>
			<g>
				<g>
					<g>
						<g>
							<g>
								<path fill="#FFD15C" d="M18.8,18.7c-0.2,1-0.9,1.7-1.5,1.5c-0.6-0.2-0.9-1.1-0.7-2.1c0.2-1,0.9-1.6,1.5-1.4
									C18.6,16.8,19,17.7,18.8,18.7z"/>
							</g>
						</g>
						<g>
							<g>
								<path fill="#FFD15C" d="M6.6,18.7c0.2,1,0.9,1.7,1.5,1.5C8.7,20,9,19.1,8.8,18.1c-0.2-1-0.9-1.6-1.5-1.4
									C6.7,16.8,6.4,17.7,6.6,18.7z"/>
							</g>
						</g>
					</g>
					<g>
						<g>
							<path fill="#344A5E" d="M18.4,14.6c0,1.6-0.1,3.2-0.8,5l-9.8,0.1C7.1,18,7,16.2,7,14.8c0.1-4.5,2.4-5.9,5.7-5.9
								C16.1,8.9,18.5,10.1,18.4,14.6z"/>
						</g>
					</g>
				</g>
				<g>
					<g>
						<path fill="#FFD15C" d="M13.9,13.1c-1.3,1.2-3.1,2-5.4,2c-0.2,0-0.5,0-0.7,0c-0.2,0.8-0.3,1.6-0.3,2.5c0,3.9,2.3,7.1,5.2,7.1
							s5.2-3.2,5.2-7.1c0-1-0.2-1.9-0.4-2.8C16,14.5,14.8,13.9,13.9,13.1z"/>
					</g>
				</g>
			</g>
		</g>
		<g>
			<g>
				<path fill="#F3705A" d="M47,12.7H36.3c-0.6,0-1-0.4-1-1V1c0-0.6,0.4-1,1-1H47c0.6,0,1,0.4,1,1v10.7C48,12.3,47.6,12.7,47,12.7z"
					/>
			</g>
			<g>
				<rect x="37.3" y="2" fill="#F05540" width="8.7" height="8.7"/>
			</g>
		</g>
		<g>
			<g>
				<path fill="#FFD15C" d="M47,48H36.3c-0.6,0-1-0.4-1-1V36.3c0-0.6,0.4-1,1-1H47c0.6,0,1,0.4,1,1V47C48,47.6,47.6,48,47,48z"/>
			</g>
			<g>
				<rect x="37.3" y="37.3" fill="#F7B64C" width="8.7" height="8.7"/>
			</g>
		</g>
		<g>
			<g>
				<path fill="#8AD7F8" d="M47,30.4H36.3c-0.6,0-1-0.4-1-1V18.6c0-0.6,0.4-1,1-1H47c0.6,0,1,0.4,1,1v10.7
					C48,29.9,47.6,30.4,47,30.4z"/>
			</g>
			<g>
				<rect x="37.3" y="19.6" fill="#55C0EB" width="8.7" height="8.7"/>
			</g>
		</g>
	</g>
</g>
</svg>
