<?xml version="1.0" encoding="utf-8"?>
<!-- Generator: Adobe Illustrator 18.0.0, SVG Export Plug-In . SVG Version: 6.00 Build 0)  -->
<!DOCTYPE svg PUBLIC "-//W3C//DTD SVG 1.1//EN" "http://www.w3.org/Graphics/SVG/1.1/DTD/svg11.dtd">
<svg version="1.1" id="Layer_1" xmlns="http://www.w3.org/2000/svg" xmlns:xlink="http://www.w3.org/1999/xlink" x="0px" y="0px"
	 viewBox="0 0 48 48" enable-background="new 0 0 48 48" xml:space="preserve">
<g>
	<g>
		<path fill="#E8EAE9" d="M11.1,22.2L3,30.3C-1,34.3-1,40.9,3,45C7.1,49,13.7,49,17.7,45l8.1-8.1L11.1,22.2z"/>
		<polygon fill="#CED6E0" points="32.6,12.2 16.8,27.9 11.3,36.7 20.1,31.2 35.8,15.4 		"/>
		
			<rect x="30.9" y="12.6" transform="matrix(-0.7071 0.7071 -0.7071 -0.7071 66.7561 2.7197)" fill="#8AD7F8" width="3.9" height="5.2"/>
		<path fill="#8AD7F8" d="M37.5,0.4l-3.7,3.7c-2.6,2.6-3.1,6.9-0.7,9.8c2.7,3.3,7.6,3.5,10.6,0.5l4-4c0.6-0.6,0.6-1.6,0-2.2
			l-7.9-7.9C39-0.1,38.1-0.1,37.5,0.4z M40.6,11.5c-1.1,1.1-3,1.1-4.1,0c-1.1-1.1-1.1-3,0-4.1l2.1-2.1l4.1,4.1L40.6,11.5z"/>
	</g>
</g>
</svg>
