<?xml version="1.0" encoding="utf-8"?>
<!-- Generator: Adobe Illustrator 20.1.0, SVG Export Plug-In . SVG Version: 6.00 Build 0)  -->
<!DOCTYPE svg PUBLIC "-//W3C//DTD SVG 1.1//EN" "http://www.w3.org/Graphics/SVG/1.1/DTD/svg11.dtd">
<svg version="1.1" id="Layer_1" xmlns="http://www.w3.org/2000/svg" xmlns:xlink="http://www.w3.org/1999/xlink" x="0px" y="0px"
	 viewBox="0 0 49 49" enable-background="new 0 0 49 49" xml:space="preserve">
<g>
	<rect x="9.9" y="10" fill="#FF7058" width="29.2" height="33.5"/>
	<path fill="#F2F2F2" d="M36.4,0.5H12.6c-0.6,0-1.1,0.5-1.1,1.1c0,0.6,0.5,1.1,1.1,1.1h23.8c0.6,0,1.1-0.5,1.1-1.1
		C37.5,1,37,0.5,36.4,0.5z"/>
	<polygon fill="#E2E2E2" points="36.4,4.3 35.7,2.8 13.3,2.8 12.6,4.3 9.9,10 39.1,10 	"/>
	<path fill="#CDD6E0" d="M36.4,4.3C36.4,4.3,36.4,4.3,36.4,4.3H12.6c0,0,0,0,0,0l0.7-1.5h22.4L36.4,4.3z"/>
	<path fill="#FFFFFF" d="M39.1,11.7v2.5c-10.5,4.1-19,14.2-29.2,19.3v-2.6C20,25.5,28.5,15.5,39.1,11.7z"/>
	<path fill="#FFFFFF" d="M39.1,15.8v2.6C28.8,23.1,20.3,33.2,9.9,37.7v-2.6C20.2,30.4,28.7,20.3,39.1,15.8z"/>
	<path fill="#FFFFFF" d="M39.1,20.1v2.6C29,28,20.5,38,9.9,41.9v-2.5C20.4,35.2,28.9,25.1,39.1,20.1z"/>
	<polygon fill="#E2E2E2" points="9.9,43.5 11.9,48.5 37.1,48.5 39.1,43.5 	"/>
</g>
</svg>
