<?xml version="1.0" encoding="utf-8"?>
<!-- Generator: Adobe Illustrator 18.0.0, SVG Export Plug-In . SVG Version: 6.00 Build 0)  -->
<!DOCTYPE svg PUBLIC "-//W3C//DTD SVG 1.1//EN" "http://www.w3.org/Graphics/SVG/1.1/DTD/svg11.dtd">
<svg version="1.1" id="Layer_1" xmlns="http://www.w3.org/2000/svg" xmlns:xlink="http://www.w3.org/1999/xlink" x="0px" y="0px"
	 viewBox="0 0 48 48" enable-background="new 0 0 48 48" xml:space="preserve">
<g>
	<g>
		<path fill="#415A6B" d="M45,12.9H3c-1.7,0-3,1.3-3,3V45c0,1.7,1.3,3,3,3h42c1.7,0,3-1.3,3-3V15.9C48,14.3,46.7,12.9,45,12.9z
			 M28.7,18.4h-9.5c-0.8,0-1.4-0.6-1.4-1.4c0-0.8,0.6-1.4,1.4-1.4h9.5c0.8,0,1.4,0.6,1.4,1.4C30.2,17.8,29.5,18.4,28.7,18.4z"/>
		<rect x="3" y="21" fill="#FFFFFF" width="42" height="24"/>
		<g>
			<g>
				<rect x="27.2" y="28.2" fill="#E8EAE9" width="13.8" height="2.6"/>
				<rect x="27.2" y="33.6" fill="#E8EAE9" width="13.8" height="2.6"/>
				<rect x="27.2" y="39.1" fill="#E8EAE9" width="8.9" height="2.6"/>
			</g>
			<g>
				<g>
					<rect x="6" y="24.4" fill="#8AD7F8" width="16.6" height="17.3"/>
				</g>
				<g>
					<g>
						<path fill="#FFFFFF" d="M20.8,40.1v-2.6c0-0.9-0.6-1.7-1.4-2c-3.3-1-6.8-1-10.1,0c-0.9,0.3-1.4,1.1-1.4,2v2.6H20.8z"/>
					</g>
					<circle fill="#FFFFFF" cx="14.3" cy="30.3" r="3.1"/>
				</g>
			</g>
		</g>
		<g>
			<rect x="19.4" y="0" fill="#F3705A" width="9.2" height="17"/>
		</g>
	</g>
</g>
</svg>
