<?xml version="1.0" encoding="utf-8"?>
<!-- Generator: Adobe Illustrator 18.0.0, SVG Export Plug-In . SVG Version: 6.00 Build 0)  -->
<!DOCTYPE svg PUBLIC "-//W3C//DTD SVG 1.1//EN" "http://www.w3.org/Graphics/SVG/1.1/DTD/svg11.dtd">
<svg version="1.1" id="Layer_1" xmlns="http://www.w3.org/2000/svg" xmlns:xlink="http://www.w3.org/1999/xlink" x="0px" y="0px"
	 viewBox="0 0 512 512" enable-background="new 0 0 512 512" xml:space="preserve">
<g>
	<path fill="#F2F2F2" d="M110.9,2H31.1C15.5,2,2.9,14.6,2.9,30.1v451.8c0,15.5,12.6,28.1,28.1,28.1h79.9c15.5,0,28.1-12.6,28.1-28.1
		V30.1C139,14.6,126.4,2,110.9,2z"/>
	<rect x="2.9" y="30.5" fill="#ABB2B9" width="136.1" height="87.4"/>
	<rect x="2.9" y="133.9" fill="#C2CCD4" width="136.1" height="87.4"/>
	<rect x="2.9" y="237.4" fill="#CFD7DC" width="136.1" height="87.3"/>
	<rect x="2.9" y="340.9" fill="#DBDFE1" width="136.1" height="87.4"/>
	<path fill="#F2F2F2" d="M366.7,65.6l-67.7-42.4c-13.2-8.2-30.5-4.3-38.8,8.9L20.5,415c-8.2,13.2-4.3,30.5,8.9,38.8l67.7,42.4
		c13.2,8.2,30.5,4.3,38.8-8.9l239.8-382.9C383.9,91.2,379.9,73.9,366.7,65.6z"/>
	
		<rect x="250.9" y="37.5" transform="matrix(0.5308 -0.8475 0.8475 0.5308 48.7412 299.197)" fill="#55BFE9" width="87.4" height="136.1"/>
	
		<rect x="196" y="125.2" transform="matrix(0.5308 -0.8475 0.8475 0.5308 -51.3379 293.7915)" fill="#75D0F4" width="87.4" height="136.1"/>
	
		<rect x="141.1" y="212.9" transform="matrix(0.5308 -0.8475 0.8475 0.5308 -151.4445 288.3817)" fill="#94D8F6" width="87.3" height="136.1"/>
	
		<rect x="86.1" y="300.6" transform="matrix(0.5308 -0.8475 0.8475 0.5308 -251.5515 282.9693)" fill="#B1E2F9" width="87.4" height="136.1"/>
	<path fill="#F2F2F2" d="M506.2,266l-34.8-71.9c-6.8-14-23.6-19.8-37.6-13L27.2,378c-14,6.8-19.8,23.6-13,37.6L49,487.4
		c6.8,14,23.6,19.8,37.6,13l406.6-196.9C507.1,296.8,512.9,280,506.2,266z"/>
	
		<rect x="380.2" y="193.5" transform="matrix(0.9 -0.4359 0.4359 0.9 -71.6018 210.8942)" fill="#F05540" width="87.4" height="136.1"/>
	<polygon fill="#F06C53" points="345.2,375.2 399.7,348.8 340.4,226.3 261.7,264.4 315.4,375.2 	"/>
	<polygon fill="#F48367" points="297.5,375.2 247.2,271.4 168.6,309.5 200.4,375.2 	"/>
	<polygon fill="#F6977C" points="182.5,375.2 154.1,316.5 75.4,354.6 85.4,375.2 	"/>
	<path fill="#F2F2F2" d="M481.9,373.9H30.1C14.6,373.9,2,386.5,2,402v79.8C2,497.4,14.6,510,30.1,510h451.8
		c15.5,0,28.1-12.6,28.1-28.1V402C510,386.5,497.4,373.9,481.9,373.9z"/>
	<rect x="394.2" y="373.9" fill="#F6B44B" width="87.4" height="136.1"/>
	<rect x="290.7" y="373.9" fill="#FFD05C" width="87.4" height="136.1"/>
	<rect x="187.2" y="373.9" fill="#FFE377" width="87.3" height="136.1"/>
	<rect x="83.7" y="373.9" fill="#FDF391" width="87.4" height="136.1"/>
	<circle fill="#FFFFFF" cx="42" cy="443.5" r="20.3"/>
	<circle fill="#41596B" cx="42" cy="443.5" r="12.1"/>
</g>
</svg>
