<?xml version="1.0" encoding="utf-8"?>
<!-- Generator: Adobe Illustrator 18.0.0, SVG Export Plug-In . SVG Version: 6.00 Build 0)  -->
<!DOCTYPE svg PUBLIC "-//W3C//DTD SVG 1.1//EN" "http://www.w3.org/Graphics/SVG/1.1/DTD/svg11.dtd">
<svg version="1.1" id="Layer_1" xmlns="http://www.w3.org/2000/svg" xmlns:xlink="http://www.w3.org/1999/xlink" x="0px" y="0px"
	 viewBox="0 0 48 48" enable-background="new 0 0 48 48" xml:space="preserve">
<g>
	<path fill="#40596B" d="M25,33.4h-2V1.6c0-0.6,0.5-1,1-1h0c0.6,0,1,0.5,1,1V33.4z"/>
	<path fill="#FFD15C" d="M46.2,21.5L46.2,21.5c-2.9,0-5.2,2.4-5,5.3v0c0.2,3.6-2.6,6.6-6.3,6.6H12.4c-3.3,0-5.8-2.7-5.6-5.9l0-0.7
		c0.2-2.9-2.1-5.3-5-5.3h0c-1,0-1.8,0.8-1.8,1.8l0,1.8h1.1c1,0,1.7,0.9,1.5,1.8L0.1,38.2C-0.7,43,3,47.4,7.9,47.4h32.2
		c4.9,0,8.6-4.4,7.8-9.2l-2.5-11.3c-0.2-0.9,0.5-1.8,1.5-1.8H48v-1.8C48,22.3,47.2,21.5,46.2,21.5z"/>
	<circle fill="#F8B64C" cx="11.8" cy="40.2" r="3"/>
	<circle fill="#F8B64C" cx="19.9" cy="40.2" r="3"/>
	<circle fill="#F8B64C" cx="28.1" cy="40.2" r="3"/>
	<circle fill="#F8B64C" cx="36.2" cy="40.2" r="3"/>
	<g opacity="0.15">
		<path fill="#231F20" d="M36.2,38c1.5,0,2.8,1.1,3,2.6c0-0.1,0-0.3,0-0.4c0-1.7-1.4-3-3-3s-3,1.4-3,3c0,0.1,0,0.3,0,0.4
			C33.4,39.1,34.7,38,36.2,38z"/>
		<path fill="#231F20" d="M28.1,38c1.5,0,2.8,1.1,3,2.6c0-0.1,0-0.3,0-0.4c0-1.7-1.4-3-3-3s-3,1.4-3,3c0,0.1,0,0.3,0,0.4
			C25.3,39.1,26.5,38,28.1,38z"/>
		<path fill="#231F20" d="M19.9,38c1.5,0,2.8,1.1,3,2.6c0-0.1,0-0.3,0-0.4c0-1.7-1.4-3-3-3s-3,1.4-3,3c0,0.1,0,0.3,0,0.4
			C17.1,39.1,18.4,38,19.9,38z"/>
		<path fill="#231F20" d="M11.8,38c1.5,0,2.8,1.1,3,2.6c0-0.1,0-0.3,0-0.4c0-1.7-1.4-3-3-3s-3,1.4-3,3c0,0.1,0,0.3,0,0.4
			C9,39.1,10.3,38,11.8,38z"/>
	</g>
	<path fill="#CDD6E0" d="M16.6,28c-2.5,0-5,0-7.5,0c-2.8-5.5-2.8-12.1,0-17.6c2.5,0,5,0,7.5,0C13.8,15.9,13.8,22.4,16.6,28z"/>
	<path fill="#F2F2F2" d="M24.1,28c-2.5,0-5,0-7.5,0c-2.8-5.5-2.8-12.1,0-17.6c2.5,0,5,0,7.5,0C21.2,15.9,21.2,22.4,24.1,28z"/>
	<path fill="#CDD6E0" d="M31.6,28c-2.5,0-5,0-7.5,0c-2.8-5.5-2.8-12.1,0-17.6c2.5,0,5,0,7.5,0C28.7,15.9,28.7,22.4,31.6,28z"/>
	<path fill="#F2F2F2" d="M39.1,28c-2.5,0-5,0-7.5,0c-2.8-5.5-2.8-12.1,0-17.6c2.5,0,5,0,7.5,0C36.2,15.9,36.2,22.4,39.1,28z"/>
	<polygon fill="#FF7058" points="23,8.8 12.1,8.8 14.1,5.3 12.1,1.8 23,1.8 	"/>
</g>
</svg>
