<?xml version="1.0" encoding="utf-8"?>
<!-- Generator: Adobe Illustrator 19.0.1, SVG Export Plug-In . SVG Version: 6.00 Build 0)  -->
<svg version="1.1" id="Layer_1" xmlns="http://www.w3.org/2000/svg" xmlns:xlink="http://www.w3.org/1999/xlink" x="0px" y="0px"
	 viewBox="0 0 48 48" style="enable-background:new 0 0 48 48;" xml:space="preserve">
<style type="text/css">
	.st0{fill:#415A6B;}
	.st1{fill:#ADB3BA;}
	.st2{fill:#E8EAE9;}
	.st3{fill:#55C0EB;}
	.st4{fill:#F3705A;}
	.st5{fill:#FFFFFF;}
	.st6{fill:#FFD15C;}
	.st7{fill:#344A5E;}
	.st8{fill:#CED6E0;}
	.st9{fill:#F05540;}
	.st10{fill:#F7B64C;}
	.st11{fill:#F3F3F3;}
	.st12{fill:#66C6B9;}
	.st13{fill:#4ABAA5;}
	.st14{fill:#8AD7F8;}
	.st15{fill:none;}
	.st16{fill:#E53D35;}
</style>
<g>
	<g>
		<g>
			<g>
				<g>
					<path class="st6" d="M24.1,17.2c0,0-0.6,2.5-1.3,3.5c-0.6,1-0.9,1-0.9,1S21.2,24.3,21,25s-0.6,3.1-0.6,3.1l-4.6-0.2l-1.4-5.8
						c0,0,0.5-2.5,0.5-2.8c0-0.3-0.2-1.4-0.2-1.4s-0.3-3,0-4.6c0.3-1.6,1.3-4.8,3.7-5.1c2.4-0.4,4.7,1.1,5.3,1.6
						c0.6,0.6,0.8,2.3,0.8,2.3L24.1,17.2z"/>
				</g>
				<g>
					<path class="st12" d="M7.1,30.8c-0.9-1.3,2.1,1.2,2.3,1.2c1.2,0.6,2.6,0.9,3.9,1.3c3.3,1,7,2.1,10.5,1.4c1.9-0.4,3.9-1.7,5.7-3
						c-0.7-2.1-2.1-4.2-2.7-4.8c-0.8-0.6-1.8-0.6-2.6-0.9c-0.8-0.3-2.3-0.8-2.3-0.8l-0.2,0.2L20.5,26l-0.5,0.5c0,0,0-0.4-0.2-0.7
						c-0.2-0.2-0.5-0.6-0.5-0.6L15.9,25L14.4,22l-1.1,0.7c0,0-4.1,1.6-5.2,2.8C7,26.7,6.5,27.4,6.4,28c0,0.3,0,1.1-0.1,1.9
						C6.6,30.2,6.9,30.5,7.1,30.8z"/>
				</g>
				<g>
					<path class="st6" d="M14.9,16.2c0.1,1.2-0.3,2.2-0.7,2.2s-0.9-1-1-2.2C13.2,15,13.5,14,14,14S14.9,15,14.9,16.2z"/>
				</g>
				<g>
					<path class="st6" d="M22.9,16.9c-0.1,1.2,0.3,2.2,0.7,2.2s0.9-1,1-2.2c0.1-1.2-0.3-2.2-0.7-2.2S22.9,15.7,22.9,16.9z"/>
				</g>
				<g>
					<path class="st0" d="M14.6,16.9l0.2-0.1c0,0-0.3-2.7,0.3-3.4c0.5-0.7,1.2-1.9,1.2-2.2c0-0.3-0.5-1.3,0.6-2
						c1.1-0.6,4.6-0.4,5.9,0.3c0.4,0.2,0.7,0.5,0.8,0.7c0.3,0.5,0.4,1,0.2,1.6c-0.1,0.2-0.1,0.6,0.1,0.9c0.4,0.6,0.2,3.4,0.2,3.7
						s0,0.7,0,0.7h0.1c0,0,0.1-2,0.2-2.7c0.1-0.7,0.4-2.1,0.1-3.2c-0.4-2-2-3.5-4.4-4s-4.4,1-5.2,2.3s-0.9,2.7-1,3.4s0,1.3,0,1.3
						S14.5,14.8,14.6,16.9z"/>
				</g>
			</g>
			<path class="st10" d="M14.9,19.3c0,0.3-0.5,2.8-0.5,2.8l0.2,0.9c0.5,0.1,1.4,0.2,2.8,0.4c2.8,0.4,4.5-1.7,4.5-1.7
				C18.9,24.3,14.9,19.3,14.9,19.3z"/>
			<g>
				<g>
					<path class="st2" d="M21.5,23.3c0,0-0.5,2.3-1.6,3.2c0,0,0.9-0.3,1.3-0.5c0,0,0.5,0.2,0.7,0.5c0.2,0.3,0.6,1.2,1,1.4
						s0.5,0.4,0.5,0.4s-0.3-0.5-0.5-0.9c-0.2-0.4-0.7-1.5-0.8-1.9C22,25.2,21.7,23.7,21.5,23.3z"/>
				</g>
				<g>
					<path class="st2" d="M14.8,20.5c0,0,0.3,0.9,0.9,1.4c0.5,0.5,3.6,3.3,3.6,3.3s-1.1,1-1.4,1.6s-0.6,1.3-0.6,1.3s-2.6-3.1-3.1-4
						c-0.3-0.5-0.5-0.9-0.7-1.1c-0.1-0.2-0.1-0.4,0-0.6c0.2-0.3,0.4-0.8,0.5-1.1C14.1,20.9,14.5,20.5,14.8,20.5z"/>
				</g>
			</g>
		</g>
		<g>
			<path class="st7" d="M5.6,5.6c-7.5,7.5-7.5,19.7,0,27.3c7.5,7.5,19.7,7.5,27.3,0c7.5-7.5,7.5-19.7,0-27.3
				C25.4-1.9,13.2-1.9,5.6,5.6z M28.9,28.9c-5.3,5.3-13.9,5.3-19.2,0S4.4,15,9.7,9.7s13.9-5.3,19.2,0S34.2,23.6,28.9,28.9z"/>
			<g>
				<path class="st0" d="M37.5,30.8c0,0.4-0.1,0.8-0.4,1l-5.2,5.2c-0.6,0.6-1.5,0.6-2.1,0c-0.3-0.3-0.4-0.7-0.4-1s0.1-0.7,0.4-1
					l5.2-5.2c0.6-0.6,1.5-0.6,2.1,0C37.4,30.1,37.5,30.5,37.5,30.8z"/>
			</g>
			<g>
				<path class="st4" d="M38.5,45.5c-1.3-3.8-6.8-4.2-6.6-8.4l5.2-5.2c4.3-0.2,4.6,5.3,8.4,6.6c1.8,0.6,2.9,2.4,2.3,4.4
					c-0.7,2.2-2.8,4.3-5,5C40.8,48.5,39.1,47.3,38.5,45.5z"/>
			</g>
		</g>
	</g>
</g>
<g>
	<path class="st7" d="M5.6,5.6c-7.5,7.5-7.5,19.7,0,27.3c7.5,7.5,19.7,7.5,27.3,0c7.5-7.5,7.5-19.7,0-27.3
		C25.4-1.9,13.2-1.9,5.6,5.6z M28.9,28.9c-5.3,5.3-13.9,5.3-19.2,0S4.4,15,9.7,9.7s13.9-5.3,19.2,0S34.2,23.6,28.9,28.9z"/>
	<g>
		<path class="st0" d="M37.5,30.8c0,0.4-0.1,0.8-0.4,1l-5.2,5.2c-0.6,0.6-1.5,0.6-2.1,0c-0.3-0.3-0.4-0.7-0.4-1s0.1-0.7,0.4-1
			l5.2-5.2c0.6-0.6,1.5-0.6,2.1,0C37.4,30.1,37.5,30.5,37.5,30.8z"/>
	</g>
	<g>
		<path class="st4" d="M38.5,45.5c-1.3-3.8-6.8-4.2-6.6-8.4l5.2-5.2c4.3-0.2,4.6,5.3,8.4,6.6c1.8,0.6,2.9,2.4,2.3,4.4
			c-0.7,2.2-2.8,4.3-5,5C40.8,48.5,39.1,47.3,38.5,45.5z"/>
	</g>
</g>
</svg>
