<?xml version="1.0" encoding="utf-8"?>
<!-- Generator: Adobe Illustrator 18.0.0, SVG Export Plug-In . SVG Version: 6.00 Build 0)  -->
<!DOCTYPE svg PUBLIC "-//W3C//DTD SVG 1.1//EN" "http://www.w3.org/Graphics/SVG/1.1/DTD/svg11.dtd">
<svg version="1.1" id="Layer_1" xmlns="http://www.w3.org/2000/svg" xmlns:xlink="http://www.w3.org/1999/xlink" x="0px" y="0px"
	 viewBox="0 0 48 48" enable-background="new 0 0 48 48" xml:space="preserve">
<g>
	<g>
		<rect x="4.3" y="34.7" transform="matrix(0.7071 0.7071 -0.7071 0.7071 31.3045 7.6935)" fill="#FF7058" width="4" height="14"/>
		<g>
			<path fill="#CDD6E0" d="M48,0c-4.8,2.7-9.3,6-13.2,10L10.6,34.2l3.2,3.2L38,13.2C42,9.3,45.3,4.8,48,0z"/>
		</g>
		<g>
			<path fill="#40596B" d="M14,42.2c1.9-2.3,1.8-5.7-0.3-7.9S8.1,32.1,5.8,34L14,42.2z"/>
		</g>
	</g>
	<g>
		
			<rect x="39.6" y="34.7" transform="matrix(-0.7071 0.7071 -0.7071 -0.7071 100.5149 41.6346)" fill="#FF7058" width="4" height="14"/>
		<g>
			<path fill="#F2F2F2" d="M0,0c4.8,2.7,9.3,6,13.2,10l24.3,24.3l-3.2,3.2L10,13.2C6,9.3,2.7,4.8,0,0z"/>
		</g>
		<g>
			<path fill="#40596B" d="M34,42.2c-1.9-2.3-1.8-5.7,0.3-7.9s5.6-2.3,7.9-0.3L34,42.2z"/>
		</g>
	</g>
</g>
</svg>
