<?xml version="1.0" encoding="utf-8"?>
<!-- Generator: Adobe Illustrator 16.0.0, SVG Export Plug-In . SVG Version: 6.00 Build 0)  -->
<!DOCTYPE svg PUBLIC "-//W3C//DTD SVG 1.1//EN" "http://www.w3.org/Graphics/SVG/1.1/DTD/svg11.dtd">
<svg version="1.1" id="Layer_1" xmlns="http://www.w3.org/2000/svg" xmlns:xlink="http://www.w3.org/1999/xlink" x="0px" y="0px"
	 width="48px" height="48px" viewBox="0 0 48 48" enable-background="new 0 0 48 48" xml:space="preserve">
<g>
	<path fill="#E8EAE9" d="M36,3.215H12L0,23.995l12,20.79h24l12-20.79L36,3.215z M24,34.695c-5.91,0-10.701-4.79-10.701-10.7
		c0-5.899,4.791-10.689,10.701-10.689s10.699,4.79,10.699,10.689C34.699,29.905,29.91,34.695,24,34.695"/>
	<path fill="#CED6E0" d="M23.996,36.698c-7.002,0-12.697-5.696-12.697-12.697c0-7.002,5.695-12.699,12.697-12.699
		S36.695,16.999,36.695,24C36.695,31.001,30.998,36.698,23.996,36.698 M23.996,15.938c-4.445,0-8.061,3.617-8.061,8.063
		c0,4.443,3.615,8.061,8.061,8.061s8.063-3.617,8.063-8.061C32.059,19.555,28.441,15.938,23.996,15.938"/>
</g>
</svg>
