<?xml version="1.0" encoding="utf-8"?>
<!-- Generator: Adobe Illustrator 18.0.0, SVG Export Plug-In . SVG Version: 6.00 Build 0)  -->
<!DOCTYPE svg PUBLIC "-//W3C//DTD SVG 1.1//EN" "http://www.w3.org/Graphics/SVG/1.1/DTD/svg11.dtd">
<svg version="1.1" id="Layer_1" xmlns="http://www.w3.org/2000/svg" xmlns:xlink="http://www.w3.org/1999/xlink" x="0px" y="0px"
	 viewBox="0 0 48 48" enable-background="new 0 0 48 48" xml:space="preserve">
<g>
	<path fill="#F3F3F3" d="M36.7,48H11.3c-1.7,0-3-1.3-3-3V3c0-1.7,1.3-3,3-3h25.4c1.7,0,3,1.3,3,3v42C39.7,46.7,38.4,48,36.7,48z"/>
	<rect x="8.3" y="5.8" fill="#66C6B9" width="31.4" height="33.5"/>
	<g>
		<circle fill="#CED6E0" cx="24" cy="43.7" r="2.4"/>
		<path fill="#CED6E0" d="M34.8,42.6h-3.1c-0.6,0-1.1,0.5-1.1,1.1v0c0,0.6,0.5,1.1,1.1,1.1h3.1c0.6,0,1.1-0.5,1.1-1.1v0
			C35.9,43.1,35.4,42.6,34.8,42.6z"/>
		<path fill="#CED6E0" d="M16.3,42.6h-3.1c-0.6,0-1.1,0.5-1.1,1.1v0c0,0.6,0.5,1.1,1.1,1.1h3.1c0.6,0,1.1-0.5,1.1-1.1v0
			C17.3,43.1,16.9,42.6,16.3,42.6z"/>
		<path fill="#CED6E0" d="M27.4,2.1h-6.9c-0.5,0-0.9,0.4-0.9,0.9s0.4,0.9,0.9,0.9h6.9c0.5,0,0.9-0.4,0.9-0.9S27.9,2.1,27.4,2.1z"/>
	</g>
</g>
</svg>
