<?xml version="1.0" encoding="utf-8"?>
<!-- Generator: Adobe Illustrator 18.0.0, SVG Export Plug-In . SVG Version: 6.00 Build 0)  -->
<!DOCTYPE svg PUBLIC "-//W3C//DTD SVG 1.1//EN" "http://www.w3.org/Graphics/SVG/1.1/DTD/svg11.dtd">
<svg version="1.1" id="Layer_1" xmlns="http://www.w3.org/2000/svg" xmlns:xlink="http://www.w3.org/1999/xlink" x="0px" y="0px"
	 viewBox="0 0 512 512" enable-background="new 0 0 512 512" xml:space="preserve">
<g>
	<path fill="#F2F2F2" d="M508,510H4c-1.1,0-2-0.9-2-2V133h508v375C510,509.1,509.1,510,508,510z"/>
	<path fill="#4CDBC4" d="M508,26H4c-1.1,0-2,0.9-2,2v105h508V28C510,26.9,509.1,26,508,26z"/>
	<circle fill="#FFFFFF" cx="60.4" cy="74.2" r="16.4"/>
	<circle fill="#FFFFFF" cx="138.6" cy="74.2" r="16.4"/>
	<circle fill="#FFFFFF" cx="216.9" cy="74.2" r="16.4"/>
	<circle fill="#FFFFFF" cx="295.1" cy="74.2" r="16.4"/>
	<circle fill="#FFFFFF" cx="373.4" cy="74.2" r="16.4"/>
	<circle fill="#FFFFFF" cx="451.6" cy="74.2" r="16.4"/>
	<path fill="#40596B" d="M68.5,74.2H52.4c-0.5,0-0.8-0.4-0.8-0.8V2.8c0-0.5,0.4-0.8,0.8-0.8h16.1c0.5,0,0.8,0.4,0.8,0.8v70.5
		C69.3,73.8,68.9,74.2,68.5,74.2z"/>
	<path fill="#40596B" d="M138.6,74.2L138.6,74.2c-4.9,0-8.9-4-8.9-8.9V10.9c0-4.9,4-8.9,8.9-8.9l0,0c4.9,0,8.9,4,8.9,8.9v54.5
		C147.5,70.2,143.6,74.2,138.6,74.2z"/>
	<path fill="#40596B" d="M216.9,74.2L216.9,74.2c-4.9,0-8.9-4-8.9-8.9V10.9c0-4.9,4-8.9,8.9-8.9l0,0c4.9,0,8.9,4,8.9,8.9v54.5
		C225.8,70.2,221.8,74.2,216.9,74.2z"/>
	<path fill="#40596B" d="M295.1,74.2L295.1,74.2c-4.9,0-8.9-4-8.9-8.9V10.9c0-4.9,4-8.9,8.9-8.9l0,0c4.9,0,8.9,4,8.9,8.9v54.5
		C304,70.2,300,74.2,295.1,74.2z"/>
	<path fill="#40596B" d="M373.4,74.2L373.4,74.2c-4.9,0-8.9-4-8.9-8.9V10.9c0-4.9,4-8.9,8.9-8.9l0,0c4.9,0,8.9,4,8.9,8.9v54.5
		C382.2,70.2,378.3,74.2,373.4,74.2z"/>
	<path fill="#40596B" d="M451.6,74.2L451.6,74.2c-4.9,0-8.9-4-8.9-8.9V10.9c0-4.9,4-8.9,8.9-8.9l0,0c4.9,0,8.9,4,8.9,8.9v54.5
		C460.5,70.2,456.5,74.2,451.6,74.2z"/>
	<rect x="192.5" y="175.4" fill="#CDD6E0" width="52.9" height="31.1"/>
	<rect x="266.6" y="175.4" fill="#CDD6E0" width="52.9" height="31.1"/>
	<rect x="340.7" y="175.4" fill="#CDD6E0" width="52.9" height="31.1"/>
	<rect x="414.8" y="175.4" fill="#CDD6E0" width="52.9" height="31.1"/>
	<rect x="44.3" y="227.6" fill="#CDD6E0" width="52.9" height="31.1"/>
	<rect x="118.4" y="227.6" fill="#CDD6E0" width="52.9" height="31.1"/>
	<rect x="192.5" y="227.6" fill="#CDD6E0" width="52.9" height="31.1"/>
	<rect x="266.6" y="227.6" fill="#FF7058" width="52.9" height="31.1"/>
	<rect x="340.7" y="227.6" fill="#CDD6E0" width="52.9" height="31.1"/>
	<rect x="414.8" y="227.6" fill="#CDD6E0" width="52.9" height="31.1"/>
	<rect x="44.3" y="279.8" fill="#CDD6E0" width="52.9" height="31.1"/>
	<rect x="118.4" y="279.8" fill="#CDD6E0" width="52.9" height="31.1"/>
	<rect x="192.5" y="279.8" fill="#CDD6E0" width="52.9" height="31.1"/>
	<rect x="266.6" y="279.8" fill="#CDD6E0" width="52.9" height="31.1"/>
	<rect x="340.7" y="279.8" fill="#CDD6E0" width="52.9" height="31.1"/>
	<rect x="414.8" y="279.8" fill="#CDD6E0" width="52.9" height="31.1"/>
	<rect x="44.3" y="332.1" fill="#FF7058" width="52.9" height="31.1"/>
	<rect x="118.4" y="332.1" fill="#CDD6E0" width="52.9" height="31.1"/>
	<rect x="192.5" y="332.1" fill="#CDD6E0" width="52.9" height="31.1"/>
	<rect x="266.6" y="332.1" fill="#CDD6E0" width="52.9" height="31.1"/>
	<rect x="340.7" y="332.1" fill="#CDD6E0" width="52.9" height="31.1"/>
	<rect x="414.8" y="332.1" fill="#CDD6E0" width="52.9" height="31.1"/>
	<rect x="44.3" y="384.3" fill="#CDD6E0" width="52.9" height="31.1"/>
	<rect x="118.4" y="384.3" fill="#CDD6E0" width="52.9" height="31.1"/>
	<rect x="192.5" y="384.3" fill="#F1543F" width="52.9" height="31.1"/>
	<rect x="266.6" y="384.3" fill="#CDD6E0" width="52.9" height="31.1"/>
	<rect x="340.7" y="384.3" fill="#CDD6E0" width="52.9" height="31.1"/>
	<rect x="414.8" y="384.3" fill="#CDD6E0" width="52.9" height="31.1"/>
	<rect x="44.3" y="436.6" fill="#CDD6E0" width="52.9" height="31.1"/>
	<rect x="118.4" y="436.6" fill="#CDD6E0" width="52.9" height="31.1"/>
	<rect x="192.5" y="436.6" fill="#CDD6E0" width="52.9" height="31.1"/>
</g>
</svg>
