<?xml version="1.0" encoding="utf-8"?>
<!-- Generator: Adobe Illustrator 18.0.0, SVG Export Plug-In . SVG Version: 6.00 Build 0)  -->
<!DOCTYPE svg PUBLIC "-//W3C//DTD SVG 1.1//EN" "http://www.w3.org/Graphics/SVG/1.1/DTD/svg11.dtd">
<svg version="1.1" id="Layer_1" xmlns="http://www.w3.org/2000/svg" xmlns:xlink="http://www.w3.org/1999/xlink" x="0px" y="0px"
	 viewBox="0 0 48 48" enable-background="new 0 0 48 48" xml:space="preserve">
<g>
	<g>
		<path fill="#66C6B9" d="M43.9,19.9c0,5.5-2.2,10.4-5.8,14.1L24,48L9.9,33.9c-3.6-3.6-5.8-8.6-5.8-14.1C4.1,8.9,13,0,24,0
			C35,0,43.9,8.9,43.9,19.9z"/>
		<g>
			<circle fill="#FFFFFF" cx="24" cy="19.9" r="12.9"/>
		</g>
		<g>
			<g>
				<path fill="#F3705A" d="M24,29.2c0,0-9-5.1-9-11.4c0-2.6,2.1-4.7,4.7-4.7c2,0,3.6,1.2,4.3,2.9c0.7-1.7,2.4-2.9,4.3-2.9
					c2.6,0,4.7,2.1,4.7,4.7C33,24.1,24,29.2,24,29.2z"/>
			</g>
			<g>
				
					<ellipse transform="matrix(0.6841 -0.7294 0.7294 0.6841 -2.5321 26.7891)" fill="#FFFFFF" cx="29.7" cy="16.3" rx="0.9" ry="1.8"/>
			</g>
		</g>
	</g>
</g>
</svg>
