<?xml version="1.0" encoding="utf-8"?>
<!-- Generator: Adobe Illustrator 18.0.0, SVG Export Plug-In . SVG Version: 6.00 Build 0)  -->
<!DOCTYPE svg PUBLIC "-//W3C//DTD SVG 1.1//EN" "http://www.w3.org/Graphics/SVG/1.1/DTD/svg11.dtd">
<svg version="1.1" id="Layer_1" xmlns="http://www.w3.org/2000/svg" xmlns:xlink="http://www.w3.org/1999/xlink" x="0px" y="0px"
	 viewBox="0 0 48 48" enable-background="new 0 0 48 48" xml:space="preserve">
<g>
	<g>
		<path fill="#FF7058" d="M3.2,8.7c0,0-1.3-0.7-0.4-3.1C3,5,3.7,4.7,4.3,4.8c1.2,0.3,2.9,1,3.3,2.7c0,0,0,1-0.7,1.9L3.2,8.7z"/>
		<path fill="#F8B64C" d="M17.6,33.9C2.7,29.4,4.8,13.1,5.5,9.1L3.2,8.7c0.6,2-0.1,3.8-1,5.1c-2.5,4-3.1,9.1-1,13.3
			c3,6.1,9.2,9.8,9.2,9.8c13.5,7.9,27.1,3.7,27.1,3.7C48.2,36.9,48.2,33.7,48,33C30.3,40.9,17.6,33.9,17.6,33.9z"/>
		<path fill="#FFD15C" d="M17.6,33.9c0,0,12.7,7,30.3-1c0-0.1,0-0.2,0-0.2c-1.4-3.6-9.6-2.5-9.6-2.5c-16,1.6-21.5-4.1-21.5-4.1
			C5.9,18.2,6.9,9.3,6.9,9.3L5.5,9.1C4.8,13.1,2.7,29.4,17.6,33.9z"/>
		<path fill="#40596B" d="M47,35.5c1.1-1.3,1.1-2.2,1-2.5c0-0.1,0-0.2,0-0.2c-0.4-1-1.3-1.6-2.4-2C44.9,30.6,46.7,35.8,47,35.5z"/>
		<ellipse transform="matrix(0.9606 0.2778 -0.2778 0.9606 1.8493 -1.126)" fill="#F2F2F2" cx="4.9" cy="6" rx="1.5" ry="0.7"/>
	</g>
	<path fill="#4CDBC4" d="M30.7,18.2c-4.3-3.9-9.4-5.1-12.3-5.5C20.4,17.5,25.8,20,30.7,18.2z"/>
	<path fill="#3DC9AE" d="M30.7,18.2C30.8,18.1,30.8,18.1,30.7,18.2c-1.8-5-7.4-7.5-12.4-5.6c0,0,0,0.1,0.1,0.1
		C21.4,13.1,26.4,14.3,30.7,18.2z"/>
	<path fill="#40596B" d="M30.3,21.7c-0.4-0.1-0.7-0.2-1.1-0.2c-0.2-1.9,0.4-3.8,1.6-5.5c0.2-0.3,0.7-0.5,1.1-0.5l0,0
		c0.9-0.1,1.1,0.7,0.6,1.3C31.2,18.2,30.4,20,30.3,21.7z"/>
	<path fill="#FF7058" d="M36.9,19.1c-2.4-0.6-4.9,0-7.1,1.6c-2.1-1.5-4.7-2.2-7.1-1.6c-5.1,1.3-8,7.7-6.3,14.3
		C18,40,23.5,44.3,28.7,43c0,0,0,0,0,0c0.7-0.2,1.5-0.2,2.2,0c0,0,0,0,0,0c5.1,1.3,10.7-3,12.3-9.6C44.8,26.8,42,20.4,36.9,19.1z"/>
	<g>
		<path fill="#FFFFFF" d="M20.2,33.2c-0.3,0-0.6-0.2-0.7-0.6c-0.6-2.3-0.5-4.6,0.2-6.5c0.7-2,2.1-3.4,3.7-3.8c0.3-0.1,0.7-0.1,1-0.1
			c0.4,0,0.8,0.3,0.8,0.8s-0.3,0.8-0.8,0.8c-0.2,0-0.5,0-0.7,0.1c-1.2,0.3-2.1,1.3-2.7,2.9c-0.6,1.6-0.7,3.7-0.2,5.6
			c0.1,0.4-0.1,0.8-0.5,0.9C20.4,33.1,20.3,33.2,20.2,33.2z"/>
	</g>
</g>
</svg>
