<?xml version="1.0" encoding="utf-8"?>
<!-- Generator: Adobe Illustrator 18.0.0, SVG Export Plug-In . SVG Version: 6.00 Build 0)  -->
<!DOCTYPE svg PUBLIC "-//W3C//DTD SVG 1.1//EN" "http://www.w3.org/Graphics/SVG/1.1/DTD/svg11.dtd">
<svg version="1.1" id="Layer_1" xmlns="http://www.w3.org/2000/svg" xmlns:xlink="http://www.w3.org/1999/xlink" x="0px" y="0px"
	 viewBox="0 0 48 48" enable-background="new 0 0 48 48" xml:space="preserve">
<g>
	<g>
		<g>
			<g>
				<polygon fill="#F3F3F3" points="0,7.4 3.1,8.1 2.6,11 5.5,11.4 5.1,14.3 8,14.8 7.5,17.7 10.4,18.1 10,21 12.9,21.5 12.4,24.4 
					15.3,24.8 14.9,27.7 17.8,28.2 17.3,31.1 20.2,31.5 19.8,34.4 22.7,34.9 22.2,37.8 25.1,38.2 26.2,39.6 35.5,21.4 10.1,0 				
					"/>
			</g>
		</g>
		<g>
			<g>
				<path fill="#F3705A" d="M24.8,37.4c0.1,0.5,0.4,1,0.7,1.5c1.4,1.9,5.7,7.3,11.2,9.1c0.5,0.2,1-0.2,1-0.7c0-0.3,0-0.7,0-1.1
					c-0.2-1.2,3.9-7.5,5.6-10c0.6-0.9,1.4-1.6,2.4-2.1c0.6-0.3,1.2-0.4,1.8-0.4c0.2,0,0.3-0.1,0.4-0.2c0.1-0.2,0.1-0.4,0-0.6
					c-0.7-1.2-4-6.1-13.2-13.2c-0.5-0.4-1.1-0.4-1.6-0.1C26.7,23.6,22.8,29.9,24.8,37.4z M35.9,27.3c0,0,0.9-1.5,2.9,0.3
					c2,1.8,0.6,3.9,0.6,3.9c-2.2,1.8-4,6.6-4.6,8.8c-0.7,2.1-1.9,1.5-1.9,1.5s-0.1,0.1-1.4-0.8c-0.8-0.6-0.9-1.2-0.9-1.8
					c0-0.9,0.2-1.8,0.6-2.6C32.5,32.6,34.1,29.2,35.9,27.3z"/>
			</g>
		</g>
		<g>
			<g>
				<circle fill="#415A6B" cx="28.3" cy="28.4" r="1.1"/>
			</g>
			<g>
				<g>
					<circle fill="#415A6B" cx="33.4" cy="22.9" r="1.1"/>
				</g>
				<g>
					<circle fill="#415A6B" cx="27.4" cy="35.7" r="1.1"/>
				</g>
			</g>
		</g>
	</g>
</g>
</svg>
