<?xml version="1.0" encoding="utf-8"?>
<!-- Generator: Adobe Illustrator 16.0.0, SVG Export Plug-In . SVG Version: 6.00 Build 0)  -->
<!DOCTYPE svg PUBLIC "-//W3C//DTD SVG 1.1//EN" "http://www.w3.org/Graphics/SVG/1.1/DTD/svg11.dtd">
<svg version="1.1" id="Layer_1" xmlns="http://www.w3.org/2000/svg" xmlns:xlink="http://www.w3.org/1999/xlink" x="0px" y="0px"
	 width="48px" height="48px" viewBox="0 0 48 48" enable-background="new 0 0 48 48" xml:space="preserve">
<g>
	<path fill="#F2F2F2" d="M45.472,25.442c0,11.779-9.549,21.328-21.329,21.328S2.813,37.222,2.813,25.442
		c0-11.781,9.549-21.33,21.329-21.33S45.472,13.661,45.472,25.442"/>
	<path fill="#40596B" d="M19.569,23.093c0.327-0.463,0.491-0.91,0.491-1.344c0-0.43-0.142-0.791-0.427-1.082
		c-0.282-0.289-0.647-0.434-1.092-0.434c-0.813,0-1.586,0.58-2.314,1.74l-2.314-1.371c0.605-0.938,1.269-1.648,1.99-2.129
		c0.723-0.482,1.643-0.723,2.76-0.723c1.115,0,2.098,0.355,2.943,1.066c0.846,0.709,1.27,1.674,1.27,2.896
		c0,0.666-0.17,1.305-0.51,1.916c-0.341,0.611-0.966,1.393-1.881,2.344l-2.332,2.426h5.111v2.59h-9.129v-2.146l3.796-3.889
		C18.697,24.175,19.242,23.556,19.569,23.093"/>
	<polygon fill="#40596B" points="30.132,25.397 30.132,23.14 32.909,23.14 32.909,25.397 34.372,25.397 34.372,27.897 
		32.909,27.897 32.909,30.989 30.132,30.989 30.132,27.897 24.929,27.897 24.929,25.694 29.54,18.048 32.688,18.048 28.3,25.397 	
		"/>
	<path fill="#FF7058" d="M23.224,12.833l1.597-2.824C18.89,6.646,11.611,7.897,7.111,12.62c0.319-1.143,0.774-2.271,1.385-3.352
		c3.97-7.02,12.856-9.498,19.865-5.523l1.597-2.824l2.811,9.459L23.224,12.833z"/>
	<path fill="#FFD15C" d="M13.683,32.542l-3.243,0.029c0.052,6.816,4.774,12.494,11.114,14.031c-1.149,0.293-2.354,0.463-3.594,0.475
		C9.896,47.149,3.306,40.694,3.243,32.636L0,32.665l6.786-7.162L13.683,32.542z"/>
	<path fill="#84DBFF" d="M35.521,30.95l1.647,2.795c5.877-3.455,8.433-10.383,6.594-16.641c0.83,0.848,1.578,1.805,2.209,2.873
		c4.095,6.947,1.798,15.883-5.148,19.967l1.646,2.793l-9.596-2.295L35.521,30.95z"/>
	<path fill="#40596B" d="M36.463,20.487v2.533h-1.31v-6.479h1.31v2.305c0.396-0.402,0.839-0.604,1.331-0.604
		s0.906,0.176,1.244,0.525c0.338,0.348,0.506,0.814,0.506,1.396v2.855h-1.309v-2.568c0-0.721-0.266-1.082-0.795-1.082
		c-0.262,0-0.49,0.096-0.685,0.285S36.463,20.12,36.463,20.487"/>
</g>
</svg>
