<?xml version="1.0" encoding="utf-8"?>
<!-- Generator: Adobe Illustrator 20.1.0, SVG Export Plug-In . SVG Version: 6.00 Build 0)  -->
<!DOCTYPE svg PUBLIC "-//W3C//DTD SVG 1.1//EN" "http://www.w3.org/Graphics/SVG/1.1/DTD/svg11.dtd">
<svg version="1.1" id="Layer_1" xmlns="http://www.w3.org/2000/svg" xmlns:xlink="http://www.w3.org/1999/xlink" x="0px" y="0px"
	 viewBox="0 0 49 49" enable-background="new 0 0 49 49" xml:space="preserve">
<g>
	<path fill="#FFD15C" d="M10.2,39.7L38,11.9l6.2,6.2L16.3,45.9c-0.1,0.1-0.2,0.2-0.3,0.2c-0.1,0.1-0.2,0.1-0.3,0.1l-0.3,0.1
		l-4.6,1.3l-3.2,0.9l0.9-3.2l1.3-4.6l0.1-0.3c0-0.1,0.1-0.2,0.1-0.3C10,39.9,10.1,39.8,10.2,39.7z"/>
	<path fill="#84DBFF" d="M13.8,44.8l28.6-28.6l1.8,1.8L16.3,45.9c-0.1,0.1-0.2,0.2-0.3,0.2c-0.1,0.1-0.2,0.1-0.3,0.1l-0.3,0.1
		L13.8,44.8z"/>
	<path fill="#84DBFF" d="M10.2,39.7L38,11.9l1.8,1.8L11.3,42.3l-1.6-1.6l0.1-0.3c0-0.1,0.1-0.2,0.1-0.3C10,39.9,10.1,39.8,10.2,39.7
		z"/>
	<polygon fill="#334A5E" points="8.4,45.3 10.7,47.6 7.6,48.5 	"/>
	
		<rect x="6.6" y="27.5" transform="matrix(0.7071 -0.7071 0.7071 0.7071 -12.8197 27.5312)" fill="#54C0EB" width="40.4" height="3.6"/>
	
		<rect x="37.2" y="13.8" transform="matrix(0.7071 0.7071 -0.7071 0.7071 22.4297 -25.135)" fill="#F2F2F2" width="8.7" height="1.3"/>
	<path fill="#FFD15C" d="M38.8,39.7L11,11.9L4.8,18l27.9,27.9c0.1,0.1,0.2,0.2,0.3,0.2c0.1,0.1,0.2,0.1,0.3,0.1l0.3,0.1l4.6,1.3
		l3.2,0.9l-0.9-3.2l-1.3-4.6l-0.1-0.3c0-0.1-0.1-0.2-0.1-0.3C39,39.9,38.9,39.8,38.8,39.7z"/>
	<path fill="#84DBFF" d="M35.2,44.8L6.6,16.2L4.8,18l27.9,27.9c0.1,0.1,0.2,0.2,0.3,0.2c0.1,0.1,0.2,0.1,0.3,0.1l0.3,0.1L35.2,44.8z
		"/>
	<path fill="#84DBFF" d="M38.8,39.7L11,11.9l-1.8,1.8l28.6,28.6l1.6-1.6l-0.1-0.3c0-0.1-0.1-0.2-0.1-0.3
		C39,39.9,38.9,39.8,38.8,39.7z"/>
	<polygon fill="#334A5E" points="40.6,45.3 38.3,47.6 41.4,48.5 	"/>
	<g>
		<path fill="#40596B" d="M47.2,12.2l-3.4-3.4c-0.8-0.8-2-0.8-2.8,0l-2.1,2.1l6.2,6.2l2.1-2.1C48,14.3,48,13,47.2,12.2z"/>
		<path fill="#40596B" d="M5.2,8.9l-3.4,3.4c-0.8,0.8-0.8,2,0,2.8l2.1,2.1l6.2-6.2L8,8.9C7.2,8.1,5.9,8.1,5.2,8.9z"/>
	</g>
	
		<rect x="20.4" y="9" transform="matrix(0.7071 -0.7071 0.7071 0.7071 -14.1806 24.2457)" fill="#54C0EB" width="3.6" height="40.4"/>
	
		<rect x="3.1" y="13.8" transform="matrix(-0.7071 0.7071 -0.7071 -0.7071 22.9667 19.5026)" fill="#F2F2F2" width="8.7" height="1.3"/>
	<circle fill="#FFD15C" cx="24.5" cy="9.5" r="9"/>
	<circle fill="#F8B64C" cx="24.5" cy="9.5" r="7.4"/>
	<path fill="#FFD15C" d="M24,12.7V9.9c-0.9-0.3-1.5-0.6-1.9-1.1c-0.4-0.5-0.6-1.1-0.6-1.9c0-0.7,0.2-1.4,0.7-1.9
		c0.5-0.5,1.1-0.8,1.9-0.9V3.5h1v0.7c0.7,0.1,1.3,0.3,1.7,0.7s0.7,0.9,0.8,1.6l-1.7,0.2c-0.1-0.5-0.4-0.9-0.8-1.1v2.6
		c1.1,0.3,1.8,0.7,2.2,1.1c0.4,0.5,0.6,1.1,0.6,1.8c0,0.8-0.2,1.5-0.7,2.1c-0.5,0.6-1.2,0.9-2.1,1v1.3h-1v-1.2
		c-0.8-0.1-1.4-0.4-1.9-0.9c-0.5-0.5-0.8-1.2-0.9-2.1l1.8-0.2c0.1,0.4,0.2,0.7,0.4,0.9C23.6,12.4,23.8,12.6,24,12.7z M24,5.6
		c-0.3,0.1-0.5,0.2-0.6,0.5c-0.2,0.2-0.2,0.5-0.2,0.7c0,0.2,0.1,0.5,0.2,0.7C23.5,7.7,23.7,7.8,24,8V5.6z M25,12.8
		c0.3-0.1,0.6-0.2,0.8-0.5c0.2-0.3,0.3-0.5,0.3-0.9c0-0.3-0.1-0.6-0.3-0.8c-0.2-0.2-0.5-0.4-0.9-0.5V12.8z"/>
</g>
</svg>
