<?xml version="1.0" encoding="utf-8"?>
<!-- Generator: Adobe Illustrator 18.0.0, SVG Export Plug-In . SVG Version: 6.00 Build 0)  -->
<!DOCTYPE svg PUBLIC "-//W3C//DTD SVG 1.1//EN" "http://www.w3.org/Graphics/SVG/1.1/DTD/svg11.dtd">
<svg version="1.1" id="Layer_1" xmlns="http://www.w3.org/2000/svg" xmlns:xlink="http://www.w3.org/1999/xlink" x="0px" y="0px"
	 viewBox="0 0 48 48" enable-background="new 0 0 48 48" xml:space="preserve">
<g>
	<rect x="22.2" y="34" fill="#4CDBC4" width="3.5" height="10.2"/>
	<path fill="#3DC9AE" d="M33.4,48H14.6l0,0c0-2.4,2-4.4,4.4-4.4h10C31.4,43.6,33.4,45.6,33.4,48L33.4,48z"/>
	<circle fill="#ACB3BA" cx="24" cy="17.5" r="17.5"/>
	<g>
		<path fill="#F2F2F2" d="M21.2,13.8c0,0-1.3-1-2.3-2.7C15.6,6,21-0.6,26.6,2c0.2,0.1,0.3,0.2,0.5,0.2c0,0,4.5,2.3,2.7,4.7
			c0,0-2.9,3.5-3,6.9l-1.8,1.7L21.2,13.8z"/>
		<path fill="#F2F2F2" d="M26.8,21.2c0,0,1.3,1,2.3,2.7c3.3,5.2-2.1,11.7-7.7,9.2c-0.2-0.1-0.3-0.2-0.5-0.2c0,0-4.5-2.3-2.7-4.7
			c0,0,2.9-3.5,3-6.9l1.8-1.7L26.8,21.2z"/>
	</g>
	<g>
		<path fill="#F2F2F2" d="M27.7,14.7c0,0,1-1.3,2.7-2.3c5.2-3.3,11.7,2.1,9.2,7.7c-0.1,0.2-0.2,0.3-0.2,0.5c0,0-2.3,4.5-4.7,2.7
			c0,0-3.5-2.9-6.9-3l-1.7-1.8L27.7,14.7z"/>
		<path fill="#F2F2F2" d="M20.3,20.3c0,0-1,1.3-2.7,2.3c-5.2,3.3-11.7-2.1-9.2-7.7c0.1-0.2,0.2-0.3,0.2-0.5c0,0,2.3-4.5,4.7-2.7
			c0,0,3.5,2.9,6.9,3l1.7,1.8L20.3,20.3z"/>
	</g>
	<circle fill="#ACB3BA" cx="24" cy="17.5" r="5"/>
	<path fill="#F2F2F2" d="M24,21.6c-2.2,0-4.1-1.8-4.1-4.1c0-2.2,1.8-4.1,4.1-4.1c2.2,0,4.1,1.8,4.1,4.1C28.1,19.8,26.2,21.6,24,21.6
		z"/>
	<circle fill="#CDD6E0" cx="24" cy="17.5" r="1.9"/>
</g>
</svg>
