<?xml version="1.0" encoding="utf-8"?>
<!-- Generator: Adobe Illustrator 18.0.0, SVG Export Plug-In . SVG Version: 6.00 Build 0)  -->
<!DOCTYPE svg PUBLIC "-//W3C//DTD SVG 1.1//EN" "http://www.w3.org/Graphics/SVG/1.1/DTD/svg11.dtd">
<svg version="1.1" id="Layer_1" xmlns="http://www.w3.org/2000/svg" xmlns:xlink="http://www.w3.org/1999/xlink" x="0px" y="0px"
	 viewBox="0 0 48 48" enable-background="new 0 0 48 48" xml:space="preserve">
<g>
	<g>
		<g>
			<g>
				<g>
					<path fill="#F3705A" d="M15.1,37.3L14,32.9l2.2-0.6c0.4-0.1,0.9,0.2,1,0.6l0.7,2.8c0.1,0.4-0.2,0.9-0.6,1L15.1,37.3z"/>
				</g>
			</g>
			<path fill="#415A6B" d="M17.1,41l-3.4-13.2H5.2L9.2,43c0.6,2.2,2.8,3.5,4.9,2.9C16.3,45.4,17.6,43.1,17.1,41z"/>
		</g>
		<g>
			<path fill="#E8EAE9" d="M12.9,14.4V28C22.1,28.1,31,32,38,39V3.4C31,10.5,22.1,14.4,12.9,14.4z"/>
			<g>
				<path fill="#F3705A" d="M15.7,29.5H1.5C0.7,29.5,0,28.8,0,28V14.5C0,13.7,0.7,13,1.5,13h14.2c0.8,0,1.5,0.7,1.5,1.5V28
					C17.2,28.8,16.5,29.5,15.7,29.5z"/>
				<g>
					<path fill="#F05540" d="M14.4,18.1L14.4,18.1c0-0.8-0.6-1.4-1.4-1.4H4.3c-0.8,0-1.4,0.6-1.4,1.4v0c0,0.8,0.6,1.4,1.4,1.4h8.7
						C13.7,19.5,14.4,18.9,14.4,18.1z"/>
					<path fill="#F05540" d="M14.4,24.4L14.4,24.4c0-0.8-0.6-1.4-1.4-1.4H4.3c-0.8,0-1.4,0.6-1.4,1.4v0c0,0.8,0.6,1.4,1.4,1.4h8.7
						C13.7,25.8,14.4,25.2,14.4,24.4z"/>
				</g>
			</g>
			<g>
				<g>
					<path fill="#F3705A" d="M40.1,1.9L40.1,1.9c-1.2,0-2.1,1-2.1,2.1v34.3c0,1.2,1,2.1,2.1,2.1h0c1.2,0,2.1-1,2.1-2.1V4.1
						C42.2,2.9,41.2,1.9,40.1,1.9z"/>
				</g>
			</g>
		</g>
		<g>
			<path fill="#415A6B" d="M48,21.2c0,3.2-2.6,5.8-5.8,5.8V15.4C45.4,15.4,48,18,48,21.2z"/>
		</g>
	</g>
</g>
</svg>
