<?xml version="1.0" encoding="utf-8"?>
<!-- Generator: Adobe Illustrator 19.0.1, SVG Export Plug-In . SVG Version: 6.00 Build 0)  -->
<svg version="1.1" id="Layer_1" xmlns="http://www.w3.org/2000/svg" xmlns:xlink="http://www.w3.org/1999/xlink" x="0px" y="0px"
	 viewBox="0 0 48 48" style="enable-background:new 0 0 48 48;" xml:space="preserve">
<style type="text/css">
	.st0{fill:#415A6B;}
	.st1{fill:#ADB3BA;}
	.st2{fill:#E8EAE9;}
	.st3{fill:#55C0EB;}
	.st4{fill:#F3705A;}
	.st5{fill:#FFFFFF;}
	.st6{fill:#FFD15C;}
	.st7{fill:#344A5E;}
	.st8{fill:#CED6E0;}
	.st9{fill:#F05540;}
	.st10{fill:#F7B64C;}
	.st11{fill:#F3F3F3;}
	.st12{fill:#66C6B9;}
	.st13{fill:#4ABAA5;}
	.st14{fill:#8AD7F8;}
	.st15{fill:none;}
	.st16{fill:#E53D35;}
</style>
<g>
	<g>
		<g>
			<g>
				<polygon class="st6" points="24.9,29.8 25.9,38.8 14.4,38.8 14.4,30 				"/>
			</g>
			<g>
				<polygon class="st8" points="25.8,48 25,33.7 24.9,33.7 19.7,33.9 14.5,33.7 14.4,33.7 13.6,48 				"/>
			</g>
			<g>
				<g>
					<polygon class="st4" points="21.1,38.4 22.6,36.8 19.7,33.9 16.8,36.8 18.3,38.4 					"/>
				</g>
				<g>
					<polygon class="st4" points="23.2,48 21.1,38.4 18.3,38.4 16.2,48 					"/>
				</g>
			</g>
			<g>
				<g>
					<path class="st6" d="M15,32.7v-7.1c-0.6-1.3-1-4.5-1-4.5v-8.1l6-2.9l5,3l1.5,3.6L25.5,23c0,0-0.4,2.4-1.1,3.5v6.8L15,32.7z"/>
				</g>
				<g>
					<g>
						<g>
							
								<ellipse transform="matrix(-0.9708 0.24 -0.24 -0.9708 31.3554 37.2427)" class="st6" cx="13.4" cy="20.5" rx="1.1" ry="2.4"/>
						</g>
						<g>
							<ellipse transform="matrix(0.9708 0.24 -0.24 0.9708 5.8257 -5.7043)" class="st6" cx="26.3" cy="21.1" rx="1.1" ry="2.4"/>
						</g>
					</g>
					<g>
						<path class="st0" d="M26.1,20.6c-0.1,0.4-0.3,1.1-0.4,1.5h-0.2c0.1-0.4,0.2-1.1,0.2-1.6c-0.1-0.7,0.1-1.8-0.2-2.5
							c-0.4-0.7,0.1-1.7,0-2.1c-0.1-0.4,0.4-1.2-2-2.2c-2.4-1-3.8-1.6-5.5-1.4c-1.7,0.2-3.2,2.2-2.5,3.8c0,0,0.2,0.6-0.2,1.1
							c-0.3,0.5-0.5,1.2-0.6,1.9c0,0.6,0,2.3,0,3h-0.3c-0.2-0.3-0.2-1.9-0.7-3.2c-0.5-1.1-0.7-2.3-0.8-3.5c-0.4-3.3,4-8,8-7.2
							c4.1,0.8,5.9,3.5,6.2,4.9c0.3,1.4,0.2,4,0,5C26.7,19,26.2,20,26.1,20.6z"/>
					</g>
				</g>
				<path class="st10" d="M20.3,29.8c2.5,0,4.1-3.2,4.1-3.2v6.5c-0.7-0.3-2-0.6-3.1-1c-5.2-2-6.2-6.5-6.2-6.5S17,29.8,20.3,29.8z"/>
				<g>
					<g>
						<path class="st11" d="M24.3,28.6c0,0-0.2,1.4-1.1,2.7c-0.9,1.3-3.5,2.7-3.5,2.7l3.2,3.3l1.9-3.3
							C24.8,33.9,25.3,29.4,24.3,28.6z"/>
					</g>
					<g>
						<path class="st11" d="M15,28.6c0,0,0.2,1.4,1.1,2.7c0.9,1.3,3.5,2.7,3.5,2.7l-3.2,3.3l-1.9-3.3C14.5,33.9,14.1,29.4,15,28.6z"
							/>
					</g>
				</g>
			</g>
			<g>
				<g>
					<g>
						<path class="st0" d="M9,48c0.4-6.3,0.4-12.8-1.2-14.3l-4,0.5c0,0-1.2,0.3-1.5,4.5c-0.3,4-1.8,6.6-2.2,9.4H9z"/>
					</g>
					<g>
						<path class="st7" d="M7.2,48h10.2L13,31.7c0,0-6.6,1.2-9.3,2.5c0,0,3.5,5.1,3.8,9.1C7.6,44.2,7.5,46,7.2,48z"/>
					</g>
					<g>
						<path class="st0" d="M15.9,48h2.2c-0.6-5.2-1.6-11.3-2.1-12.9c-0.8-2.6-0.9-6.5-0.9-6.5c-1,0.6-3.7,3.5-3.7,3.5
							S15.1,45.7,15.9,48z"/>
					</g>
				</g>
				<g>
					<g>
						<path class="st0" d="M39.4,48c-0.4-2.8-1.9-5.4-2.2-9.4c-0.3-4.2-1.5-4.5-1.5-4.5l-4-0.5c-1.7,1.5-1.7,8-1.2,14.3H39.4z"/>
					</g>
					<g>
						<path class="st7" d="M32.1,48c-0.2-2-0.3-3.8-0.3-4.7c0.3-4,3.8-9.1,3.8-9.1c-2.7-1.3-9.3-2.5-9.3-2.5L21.9,48H32.1z"/>
					</g>
					<g>
						<path class="st0" d="M23.5,48c0.8-2.3,5-15.9,5-15.9s-3.1-2.9-4.1-3.6c0,0-0.2,3.9-0.9,6.5c-0.5,1.6-1.5,7.7-2.1,12.9H23.5z"
							/>
					</g>
				</g>
			</g>
		</g>
		<g>
			<g>
				<path class="st4" d="M48,8.8c0,4.8-4.6,8.8-10.2,8.8c-0.1,0-0.2,0-0.2,0l-6.2,4.2v-6.1c-2.3-1.6-3.7-4-3.7-6.8
					c0-4.8,4.5-8.8,10.2-8.8C43.4,0,48,3.9,48,8.8z"/>
			</g>
			<g>
				<g>
					<path class="st5" d="M38.7,11.5h-1.9c0-0.3,0-0.4,0-0.5c0-0.6,0.1-1.1,0.3-1.5c0.2-0.4,0.6-0.8,1.2-1.3c0.6-0.5,1-0.8,1.1-1
						c0.2-0.2,0.3-0.5,0.3-0.8c0-0.4-0.2-0.8-0.5-1c-0.3-0.3-0.8-0.4-1.3-0.4c-0.5,0-1,0.2-1.3,0.5c-0.4,0.3-0.6,0.8-0.7,1.4
						l-1.9-0.2c0.1-0.9,0.4-1.6,1.1-2.3c0.7-0.6,1.6-0.9,2.8-0.9c1.2,0,2.2,0.3,2.9,0.9s1.1,1.4,1.1,2.2c0,0.5-0.1,0.9-0.4,1.3
						c-0.3,0.4-0.8,1-1.7,1.7c-0.4,0.4-0.7,0.7-0.8,0.9C38.8,10.5,38.7,10.9,38.7,11.5z M36.8,14.3v-2.1h2.1v2.1H36.8z"/>
				</g>
			</g>
		</g>
	</g>
</g>
</svg>
