<?xml version="1.0" encoding="utf-8"?>
<!-- Generator: Adobe Illustrator 18.0.0, SVG Export Plug-In . SVG Version: 6.00 Build 0)  -->
<!DOCTYPE svg PUBLIC "-//W3C//DTD SVG 1.1//EN" "http://www.w3.org/Graphics/SVG/1.1/DTD/svg11.dtd">
<svg version="1.1" id="Layer_1" xmlns="http://www.w3.org/2000/svg" xmlns:xlink="http://www.w3.org/1999/xlink" x="0px" y="0px"
	 viewBox="0 0 48 48" enable-background="new 0 0 48 48" xml:space="preserve">
<g>
	<g>
		<path fill="#415A6B" d="M12.2,45.5h23.7c4,0,7.9-1.7,10.3-4.9c2.4-3.3,2.8-7.2-0.7-11.4c-5.2-6.3-0.5-10-2.7-15.6
			c-0.2-0.5-0.7-0.9-1.2-1c-12.5-3.9-23,4.9-34.3,0.9c-1-0.3-2.1,0.2-2.3,1.2c-1.3,5,2.5,8.6-2.3,14.4c-3.5,4.2-3.1,8.1-0.7,11.4
			C4.2,43.8,8.2,45.5,12.2,45.5z"/>
		<path fill="#344A5E" d="M41.1,18.2c-15.6,8.1-27.4,5.6-33.6,2.1c-2-1.1-3.1-3.4-2.5-5.6c0,0,0,0,0,0c0.2-1,1.4-1.6,2.3-1.2
			c11.2,4,21.8-4.9,34.2-1c0.5,0.2,1,0.6,1.2,1.1c0,0.1,0.1,0.2,0.1,0.3C43.4,15.6,42.6,17.4,41.1,18.2z"/>
		<g>
			<g>
				<g>
					<path fill="#F3F3F3" d="M36.5,29.8c-1.5,0.2-2.9-0.8-3.1-2.2l-2.6-15.6C30,7.5,33,3.3,37.5,2.6s8.6,2.3,9.3,6.7l0.4,2.2
						c0.2,1.5-0.8,2.9-2.2,3.1c-1.5,0.2-2.9-0.8-3.1-2.2l-0.4-2.2c-0.2-1.4-1.6-2.4-3.1-2.2c-1.4,0.2-2.4,1.6-2.2,3.1l2.6,15.6
						C39,28.2,38,29.6,36.5,29.8z"/>
				</g>
			</g>
			<g>
				<path fill="#FFD15C" d="M33.4,27.6c0.1,0.4,0.2,0.8,0.4,1.1l4.7-3.3L38,22.2l-5,3.5L33.4,27.6z"/>
				<path fill="#FFD15C" d="M43.9,14.6l3.2-2.2c0-0.3,0.1-0.6,0-0.9l-0.4-2.2c0-0.1,0-0.1,0-0.2l-4.9,3.4
					C42.1,13.6,42.9,14.4,43.9,14.6z"/>
				<polygon fill="#FFD15C" points="32,19.4 32.5,22.5 37.5,19.1 37,15.9 				"/>
				<path fill="#FFD15C" d="M38.3,8c1.2-0.2,2.3,0.5,2.8,1.5l4.5-3.1c-0.5-0.8-1.2-1.6-1.9-2.1L38.3,8C38.3,8,38.3,8,38.3,8z"/>
				<path fill="#FFD15C" d="M36.1,11c-0.1-0.6,0-1.3,0.3-1.8L31,13.1l0.5,3.1l5-3.5L36.1,11z"/>
				<path fill="#FFD15C" d="M37.5,2.6c-3.7,0.6-6.4,3.6-6.7,7.2l10.1-7.1C39.7,2.5,38.6,2.4,37.5,2.6z"/>
			</g>
		</g>
		<path fill="#415A6B" d="M9.8,14.2c3.4,0.7,6.8,0.3,10.3-0.4C16.7,14.5,13.3,14.9,9.8,14.2z"/>
		<g>
			<g>
				<g>
					<path fill="#F3F3F3" d="M23.6,11.3l-17.7,7L5,15.9c-0.3-0.7,0.1-1.5,0.8-1.8l15.1-5.9c0.7-0.3,1.5,0.1,1.8,0.8L23.6,11.3z"/>
				</g>
				<g>
					<path fill="#E8EAE9" d="M25.4,21.8l-13.6,5.4c-0.7,0.3-1.5-0.1-1.8-0.8L6.7,18l16.2-6.4l3.3,8.4C26.4,20.7,26.1,21.5,25.4,21.8
						z"/>
				</g>
				<g>
					
						<rect x="14.6" y="10.2" transform="matrix(0.9305 -0.3663 0.3663 0.9305 -5.3429 7.0361)" fill="#8AD7F8" width="2.6" height="14.7"/>
				</g>
				<g>
					<g>
						<g>
							<path fill="#55C0EB" d="M13.6,10.2c0.2,1.8-0.7,2.6-1.8,3.8c-1,1-1,2.4-0.2,3.6L10.2,17l-0.5,1.2c-0.8-1.1-0.7-2.6,0.2-3.6
								c1.2-1.2,2-2,1.8-3.8C11.7,10.7,13.6,10.3,13.6,10.2z"/>
						</g>
					</g>
					<g>
						<path fill="#55C0EB" d="M18.9,14.5l0.6,0.3c-0.7,0.3-1.4,0.4-2.3,0.3c-2.2-0.4-3.9-2.1-4.5-4.2c-0.1-0.3,1.6-1,1.5-1.3
							c0.7,2.7,3.8,5.2,6.6,4.1L18.9,14.5z"/>
					</g>
				</g>
				<g>
					
						<rect x="15.1" y="10.3" transform="matrix(0.3663 0.9305 -0.9305 0.3663 28.0369 -3.2512)" fill="#8AD7F8" width="2.6" height="17.4"/>
				</g>
				<g>
					<g>
						<g>
							<path fill="#8AD7F8" d="M13.5,9.8c0,0,0-4.1,1.5-4.3c0.6-0.1,1.1,1.4,1.6,1.6c0.5,0.2,2-0.3,2.2,0.2c0.9,1.8-3,3.3-4.8,3.9
								L13.5,9.8z"/>
							<g>
								<path fill="#55C0EB" d="M14,11.2L14,11.2c0.5-0.4,2.5-2.4,2.9-2.8c0.3-0.4,0.7-0.9,1.2-1.2c0.2-0.1,0.4-0.1,0.5,0
									c0.1,0,0.1,0.1,0.2,0.1C19.7,9,15.8,10.5,14,11.2z"/>
							</g>
							<path fill="#55C0EB" d="M13.3,10.3c0.4-0.4,0.8-1.3,1.3-2.3c-0.2,1-0.6,2-1.1,2.7"/>
							<path fill="#55C0EB" d="M13.2,10.8c0.5-0.4,0.9-0.8,1.3-1.2c-0.3,0.5-0.8,1-1.3,1.4"/>
							<path fill="#55C0EB" d="M13.5,10.7c0.8-0.3,1.5-1.1,2.2-2c-0.5,1-1.1,1.8-1.8,2.5"/>
						</g>
						<g>
							<path fill="#8AD7F8" d="M12.3,10.3c0,0-2.8-3-4-2.2c-0.5,0.3,0.1,1.8-0.1,2.3C8,10.9,6.5,11.6,6.7,12
								c0.6,1.9,4.5,0.3,6.2-0.4L12.3,10.3z"/>
							<g>
								<path fill="#55C0EB" d="M12.9,11.6L12.9,11.6c-0.7,0.1-3.4,0-4-0.1c-0.5-0.1-1.1-0.2-1.7,0c-0.2,0.1-0.3,0.2-0.4,0.3
									c0,0.1-0.1,0.2,0,0.2C7.3,13.9,11.1,12.4,12.9,11.6z"/>
							</g>
							<path fill="#55C0EB" d="M12.7,10.3c-0.5,0-1.5-0.4-2.5-0.8c0.9,0.6,1.8,1,2.6,1.2"/>
							<g>
								<path fill="#55C0EB" d="M12.9,10.7c-0.6,0.1-1.2,0.1-1.8,0c0.6,0.1,1.2,0.2,1.9,0.2"/>
							</g>
							<path fill="#55C0EB" d="M12.9,11c-0.8,0.3-2.5-0.3-3.6-0.6c1.1,0.6,2.8,1.2,3.7,1.2"/>
						</g>
					</g>
					<g>
						<path fill="#FFD15C" d="M12.2,9.8l1.1-0.4c0.1,0,0.2,0,0.3,0.1l0.6,1.6c0,0.1,0,0.2-0.1,0.3L13,11.8c-0.1,0-0.2,0-0.3-0.1
							L12.1,10C12,9.9,12.1,9.8,12.2,9.8z"/>
					</g>
				</g>
			</g>
		</g>
		<g>
			<g>
				<g>
					<path fill="#F3705A" d="M22.9,10.7c-4.8,1.8-9,8.1-6.1,17.8L30.6,21c-0.5-0.7-2.3-3.2-2.8-5.7c0,0,0,0,0,0
						c-0.2-1.1,1.4-2.7,2.1,0.9l1.6,0C31.4,11.8,26.5,9.2,22.9,10.7z"/>
				</g>
				<g>
					<path fill="#F3F3F3" d="M30.6,20.7l-14.1,7.6c-0.4,0.2-0.5,0.7-0.3,1.1l1.6,2.9c0.2,0.4,0.7,0.5,1.1,0.3L33,25
						c0.4-0.2,0.5-0.7,0.3-1.1L31.7,21C31.5,20.6,31,20.5,30.6,20.7z"/>
				</g>
				<g>
					<circle fill="#F3F3F3" cx="30.7" cy="16.2" r="1.8"/>
				</g>
			</g>
		</g>
		<path fill="#415A6B" d="M45.4,29.2c-4.7-5.6-1.4-9.2-2.2-13.9H43c-0.1,1.2-0.8,2.3-2,2.9c-15.6,8.1-27.4,5.6-33.6,2.1
			c-1.9-1.1-3-3.3-2.5-5.4c-1.2,4.9,2.5,8.5-2.3,14.3c-3.5,4.2-3.1,8.1-0.7,11.5c2.4,3.2,6.3,4.9,10.3,4.9h23.7
			c4,0,7.9-1.7,10.3-4.9C48.5,37.3,48.9,33.4,45.4,29.2z"/>
		<path fill="#FFD15C" d="M42.9,23.7c0-0.4-0.1-0.9,0-1.3c-4.4,3.3-10.8,6.4-15.5,7.6c0.1-0.2,0.1-0.4,0.1-0.7
			c0-0.9-0.6-1.8-1.5-1.9c-0.6-0.1-1.4,0.2-2,1.8c-0.7-1.7-1.5-1.9-2-1.9c-0.8,0.1-1.5,1-1.4,2c0,0.2,0,0.5,0.1,0.7
			c-4.7-1.2-11.2-4.3-15.5-7.6c0,0.4,0,0.9-0.1,1.3c5.2,3.8,13.1,7.4,18,7.9c0.1,0,0.2,0.1,0.4,0.1c0,0.5-0.2,0.9-0.4,1.3
			c-0.7,1.1-2.2,1.3-2.2,1.3c-0.3,0-0.5,0.3-0.5,0.6c0,0.3,0.3,0.5,0.5,0.5c0,0,0,0,0.1,0c0.1,0,1.8-0.3,2.9-1.6
			c0.8,2.9,2.8,5.6,2.9,5.7c0.1,0.1,0.3,0.2,0.4,0.2c0.1,0,0.2,0,0.3-0.1c0.2-0.2,0.3-0.5,0.1-0.8c0,0-3-3.8-3-7.1
			c0.1,0,0.2-0.1,0.3-0.1C29.8,31.1,37.7,27.5,42.9,23.7z M22.8,30.4c-0.2,0-0.3-0.1-0.5-0.1c-0.5-0.2-0.7-0.5-0.7-1
			c0-0.5,0.3-0.9,0.5-0.9c0,0,0,0,0,0c0.2,0,0.7,0.4,1.1,2.1C23.1,30.5,22.9,30.4,22.8,30.4z M25.8,28.5
			C25.8,28.5,25.9,28.5,25.8,28.5c0.2,0,0.5,0.4,0.5,0.8c0,0.5-0.2,0.8-0.7,1c-0.1,0.1-0.3,0.1-0.5,0.1c-0.1,0-0.3,0.1-0.5,0.1
			C25.2,28.8,25.7,28.5,25.8,28.5z"/>
	</g>
</g>
</svg>
