<?xml version="1.0" encoding="utf-8"?>
<!-- Generator: Adobe Illustrator 18.0.0, SVG Export Plug-In . SVG Version: 6.00 Build 0)  -->
<!DOCTYPE svg PUBLIC "-//W3C//DTD SVG 1.1//EN" "http://www.w3.org/Graphics/SVG/1.1/DTD/svg11.dtd">
<svg version="1.1" id="Layer_1" xmlns="http://www.w3.org/2000/svg" xmlns:xlink="http://www.w3.org/1999/xlink" x="0px" y="0px"
	 viewBox="0 0 48 48" enable-background="new 0 0 48 48" xml:space="preserve">
<g>
	<g>
		<g>
			<g>
				<path fill="#425A6B" d="M45.3,12.8c0,0,0.1-0.3-0.4-0.2c-0.5,0-6,1.6-5.7,2.1c0.2,0.5,2.1,0.7,2.1,0.7S45.5,13.6,45.3,12.8z"/>
			</g>
		</g>
	</g>
	<g>
		<g>
			<g>
				<g>
					<g>
						<path fill="#F5B54C" d="M27.1,5.3c0,0-0.3-0.6,0.5-0.6c0,0,0.4,0.1,0.6,0.3c0.2,0.2,0.6,0.4,0.8,0.6c0.2,0.1,1.2,0.9,1.7,1
							C31.1,6.7,31.4,7,31.4,7L32,8.1l-3.1-1.2L27.1,5.3z"/>
					</g>
				</g>
			</g>
		</g>
		<g>
			<g>
				<g>
					<g>
						<g>
							<path fill="#425A6B" d="M24.7,13.9c0.7,0.3,1.4,0.7,2,1.3c0.5,0.6,0.9,1.4,0.6,2.1c-0.1,0.2-0.2,0.4-0.3,0.7
								c-0.2,0.8,0.2,1.5,0.4,2.3c0,0.1,0,0.2,0,0.3c-0.1,0.2-0.3,0.3-0.5,0.4c-0.7,0.2-1.4,0.2-2.2,0.2c-0.4,0-0.8-0.1-1.1-0.3
								c-0.5-0.3-0.8-0.8-1-1.3c-0.7-1.7-0.1-3.8,1.2-5.2"/>
						</g>
					</g>
				</g>
			</g>
			<g>
				<g>
					<g>
						<g>
							<path fill="#425A6B" d="M15.4,12.7c-1.2,0.7-3.3,5.1-2.7,5.4c0.3-0.1,0.8-1.9,0.8-1.8c-0.2,0.3-0.1,0.7-0.1,1
								c0,0.7-0.2,1.4-0.5,2.1c-0.2,0.4-0.3,0.8-0.7,1.1c-0.3,0.2-0.6,0.3-0.9,0.5c0.6-0.1,1.2-0.2,1.8-0.3c0.8-0.1,1.7-0.3,2.5-0.5
								c0.8-0.3,1.6-0.8,2.1-1.5c0.4-0.5,0.6-1.2,0.8-1.8c0.1-0.3,0.2-0.6,0.2-1c0-0.3,0-0.6,0-0.9c0-0.3,0-0.6-0.1-0.8
								c-0.1-0.3-0.2-0.5-0.4-0.8c-0.3-0.6-0.7-1.2-1.4-1.4c-0.3-0.1-0.7,0-1.1-0.2"/>
						</g>
					</g>
				</g>
			</g>
			<g>
				<g>
					<g>
						<g>
							<path fill="#F05640" d="M24.6,5.5c0,0,2.4,2.9,2.7,3.8c0.3,0.9,0.1,1.8,0,2c-0.1,0.2-1,2.6-1,2.6s1.3,0,1.8-1.8
								c0.5-1.8-0.2-4.3-0.2-4.3s-0.2-0.2,0.2-0.3c0,0,1.5-0.2,1.4-1S25.6,4.4,24.6,5.5z"/>
						</g>
					</g>
				</g>
			</g>
			<g>
				<g>
					<g>
						<g>
							<path fill="#F05640" d="M24.5,5.5l1.6,5.2l0.2,2.7c0,0,0.5,0.1,0.8-0.1s0.5-0.9,0.5-1.3c0-0.4,0-0.9,0.2-1.3
								c0.2-0.4,0.2-1,0.1-1.6c-0.1-0.5-0.4-1.4-0.4-1.4s-0.7-2.3-1.3-2.5C25.8,5.1,24.5,5.5,24.5,5.5"/>
						</g>
					</g>
				</g>
			</g>
			<g>
				<g>
					<g>
						<g>
							<path fill="#FFD15C" d="M23.2,5.2c0,0,1.8-0.9,2.3,0.4c0,0,1.1,1.5,0.9,3c-0.1,0.4-0.1,1.3,0.1,1.7c0.1,0.4,0.3,1.5,0.4,1.7
								s-0.2,1-0.5,1.6c-0.3,0.7-0.9,1.9-1.1,2.7c-0.2,0.8-0.9,1.8-2.1,1.4v5h-9.7l0.8-2.5c0,0,3.2-1.1,3.6-3.3
								c0.3-1.5-0.1-1.9-0.1-1.9l-1.2-1.7L16,7L23.2,5.2"/>
						</g>
					</g>
				</g>
			</g>
			<g>
				<g>
					<g>
						<g>
							<path fill="#F5B54C" d="M23.1,17.7v2.2c-1.1-0.3-4.5-2.3-2.7-2c2,0.3-0.4-1-1.6-2.5C19,15.5,20.9,17.1,23.1,17.7z"/>
						</g>
					</g>
				</g>
			</g>
			<g>
				<g>
					<g>
						<g>
							<path fill="#425A6B" d="M16.8,13.8C16.8,13.8,16.8,13.8,16.8,13.8c0,0.1,0.1,0.1,0.1,0.2c0,0,0,0.1,0.1,0.1
								c0,0,0,0.1,0.1,0.1c0,0,0.1,0.1,0.1,0.1c0,0,0.1,0.1,0.1,0.1c0.1,0.1,0.2,0.2,0.3,0.3c0.1,0.1,0.2,0.2,0.3,0.3
								c0.1,0.1,0.2,0.2,0.3,0.4c0.1,0.1,0.1,0.3,0.2,0.5c0,0.2,0,0.3,0,0.5c0,0.2-0.1,0.3-0.2,0.4c0,0.1-0.1,0.1-0.1,0.2
								c0,0,0,0.1-0.1,0.1c0,0,0,0-0.1,0.1c-0.1,0.1-0.2,0.2-0.3,0.2c-0.1,0-0.2,0.1-0.3,0.1c-0.1,0-0.2,0-0.2,0c-0.1,0-0.1,0-0.2,0
								c0,0-0.1,0-0.1,0s0,0,0.1,0c0,0,0.1,0,0.2,0c0.1,0,0.2,0,0.2,0c0.1,0,0.2-0.1,0.3-0.1c0.1,0,0.2-0.1,0.3-0.2c0,0,0,0,0.1-0.1
								c0,0,0-0.1,0.1-0.1c0-0.1,0.1-0.1,0.1-0.2c0.1-0.1,0.1-0.3,0.1-0.4c0-0.1,0-0.3,0-0.4c0-0.1-0.1-0.3-0.2-0.4
								c-0.1-0.1-0.2-0.2-0.3-0.3c-0.1-0.1-0.2-0.2-0.3-0.3c-0.1-0.1-0.2-0.2-0.3-0.3c0,0-0.1-0.1-0.1-0.1c0,0-0.1-0.1-0.1-0.1
								c0,0-0.1-0.1-0.1-0.1c0,0,0-0.1-0.1-0.1c0-0.1-0.1-0.1-0.1-0.1c0,0,0,0,0,0L16.8,13.8z"/>
						</g>
					</g>
				</g>
			</g>
			<g>
				<g>
					<g>
						<g>
							<path fill="#425A6B" d="M17.2,13.4C17.2,13.4,17.2,13.4,17.2,13.4C17.2,13.4,17.2,13.5,17.2,13.4
								C17.2,13.5,17.2,13.5,17.2,13.4c0,0.1,0,0.2,0,0.3c0,0.1,0,0.2-0.1,0.3c0,0,0,0,0,0c0,0,0,0,0,0c0,0,0,0.1,0,0.1
								c0,0,0,0.1,0,0.1c0,0,0,0.1,0,0.1c0,0.3,0,0.6,0.1,0.9c0.1,0.2,0.1,0.3,0.2,0.5c0.1,0.2,0.2,0.3,0.4,0.5
								c0.1,0.2,0.2,0.3,0.3,0.5c0.1,0.2,0.2,0.4,0.2,0.5c0,0.2,0,0.4,0,0.5c0,0.2-0.1,0.3-0.1,0.5c-0.1,0.1-0.1,0.3-0.2,0.3
								c-0.1,0.1-0.1,0.2-0.2,0.2c-0.1,0.1-0.1,0.1-0.1,0.1c0,0-0.1,0-0.1,0s0,0,0.1,0c0,0,0.1-0.1,0.1-0.1c0.1-0.1,0.1-0.1,0.2-0.2
								c0.1-0.1,0.1-0.2,0.2-0.3c0.1-0.1,0.1-0.3,0.1-0.5c0-0.2,0-0.3,0-0.5c0-0.2-0.1-0.3-0.2-0.5c-0.1-0.2-0.2-0.3-0.3-0.5
								c-0.1-0.1-0.3-0.3-0.4-0.5c-0.1-0.2-0.2-0.3-0.3-0.5c-0.1-0.3-0.2-0.7-0.2-1c0,0,0-0.1,0-0.1c0,0,0-0.1,0-0.1
								c0,0,0-0.1,0-0.1c0,0,0,0,0,0c0,0,0,0,0,0c0-0.1,0-0.2,0.1-0.3c0-0.1,0-0.1,0-0.2c0,0,0,0,0,0c0,0,0,0,0,0c0,0,0,0,0,0
								L17.2,13.4z"/>
						</g>
					</g>
				</g>
			</g>
			<g>
				<g>
					<g>
						<g>
							<path fill="#E8EAE8" d="M14.3,47.5c4.6,0.7,9.4,0.7,14.5,0.1c0.9-0.1,1.5-0.9,1.4-1.8c0,0,0-0.1,0-0.1
								c-0.3-1.3,0.2-11.7,0.7-13.2c0.5-1.5,0.6-3.7,0.8-5.8c0.1-2.1,2.1-2.6,2.1-2.6s5.9-2,9.1-3.5c3.2-1.5,4.2-3.1,4.5-3.7
								c0.3-0.6-0.2-1.4-0.6-1.7c-0.4-0.3-1.2-1.1-1.3-1.4c-0.1-0.3,0-0.8-0.1-1c-0.1-0.3-0.6-0.1-0.6-0.1c0.3,0,0.3,0.1,0.3,0.1
								c0.1,0.5-1.7,1.4-3.5,1.9c-1.8,0.6-2.6,0.1-2.6,0.1l1,1.5c-0.6,0.5-4.6,1.3-6.6,1.4c-2,0-6,1-6,1c-1.2-0.6-3.8-0.5-3.8-0.5
								c-0.9,1-2.8,1.6-2.8,1.6c-2.9,1-4.9,0.9-6.2,0.7c-0.8,1.4-1.9,3.4-2.4,4.8c-0.8,2.4,0.8,4.8,0.8,4.8c-0.3,1-0.6,3.7-0.4,5.1
								c0.1,1.5-1.3,10.9-1.3,10.9c0.1,0.9,0.6,1.1,1.7,1.4C13.5,47.4,13.9,47.5,14.3,47.5z"/>
						</g>
					</g>
				</g>
			</g>
			<g>
				<g>
					<g>
						<g>
							<g>
								<path fill="#67C5B8" d="M25.3,30.8l-0.3-0.2L3.3,5.1C2.1,3.7-0.5,5.8,0.7,7.3L23.5,32L25.3,30.8z"/>
							</g>
						</g>
					</g>
				</g>
				<g>
					<g>
						<g>
							<g>
								<path fill="#48B9A5" d="M26.1,32.7c-0.5,0.8-1.5,1.1-2.1,0.8c-0.6-0.3-0.7-1.2-0.2-2c0.5-0.8,1.5-1.1,2.1-0.8
									C26.5,31,26.6,31.9,26.1,32.7z"/>
							</g>
						</g>
					</g>
				</g>
				<g>
					<g>
						<g>
							<g>
								<path fill="#67C5B8" d="M25.9,32.7c-0.4,0.5-1,0.8-1.4,0.5c-0.4-0.2-0.5-0.8-0.1-1.4c0.4-0.5,1-0.8,1.4-0.5
									C26.2,31.6,26.3,32.2,25.9,32.7z"/>
							</g>
						</g>
					</g>
				</g>
			</g>
			<g>
				<g>
					<g>
						<g>
							<g>
								<path fill="#F05640" d="M25.7,18.1L24.8,19c-1.1,1.2-3.1,1.8-3.4,1.9c-2,0.7-3.6,0.9-4.9,0.9c-0.8,0-1.5-0.1-2-0.2l-0.4-0.1
									c0.3-0.5,0.5-0.9,0.7-1.3c1.3,0.3,3.3,0.3,6.2-0.7c0,0,1.9-0.6,2.8-1.6C23.8,18.1,24.7,18,25.7,18.1z"/>
							</g>
						</g>
					</g>
				</g>
			</g>
			<g>
				<g>
					<g>
						<g>
							<path fill="#425A6B" d="M15.4,40.6L15.4,40.6c0.5-0.7,0.7-1.4,0.7-2.2c0-1.4-0.4-3.1-2.9-2.9c0,0-0.9,0.5-1.2,2.1
								c-0.3,1.6,1.5,4.1,1.6,4.2s0.8,0.3,1.2-0.2C15.1,41.1,15.4,40.6,15.4,40.6z"/>
						</g>
					</g>
				</g>
			</g>
			<g>
				<g>
					<g>
						<g>
							<g>
								<path fill="#FFD15C" d="M12.6,42.2c0,0,1.7-0.7,3.1-2.5c1.4-1.8,3.5-5.1,3.5-5.1s0.6-1.1,1.2-1.4c0.6-0.3,1.1-0.8,1.4-1.7
									s0.3-0.9,0.3-0.9s0.5-0.4,0.6-0.7l1-0.5l0.8,0.2c0,0,0.9-0.6-0.1-1.2l-0.3-0.1c0,0,0.2-0.4-0.2-0.8c0,0,0.2-0.6-0.2-0.7
									l-0.2,0c0.1,0,0-0.5-0.4-0.6c0.2,0,0.1-0.5-0.4-0.6c-0.2,0-3.1,0.4-3.1,0.4s-0.5,0-0.6,0.7c0,0.6-0.3,3.1-0.8,3.8
									c-0.6,0.7-0.9,1.2-0.9,1.2l-4.1,3.7C10.9,36.9,10.9,42.1,12.6,42.2z"/>
							</g>
						</g>
					</g>
				</g>
			</g>
			<g>
				<g>
					<g>
						<g>
							<path fill="#F05640" d="M47.5,16.9c-0.3,0.6-1.3,2.2-4.5,3.7c-3.2,1.5-9.1,3.5-9.1,3.5s-0.6,0.2-1.2,0.7
								c-0.3-0.6-2.3-4.9-6.2-6.6c0.5,0.1,0.9,0.2,1.3,0.3c0,0,3.9-1,6-1c2,0,6-0.9,6.6-1.4l-1-1.5c0,0,0.8,0.5,2.6-0.1
								c1.8-0.6,3.6-1.4,3.5-1.9c0,0,0-0.2-0.3-0.1c0,0,0.4-0.1,0.6,0.1c0.1,0.3,0,0.7,0.1,1c0.1,0.3,0.8,1.1,1.3,1.4
								C47.3,15.5,47.8,16.3,47.5,16.9z"/>
						</g>
					</g>
				</g>
			</g>
			<g>
				<g>
					<g>
						<g>
							<path fill="#F05640" d="M17,20.4l-4-0.5c0,0-1,1.1-1.7,1.3c-0.7,0.1-2.2,1.1-2.9,3.6c-0.8,2.5-1,8.3-1,8.3L7.1,39
								c0,0-0.1,1.8,0.8,3.3c0.3,0.4,0.5,0.8,0.8,1.1c0.7,0.7,1.8,0.8,2.6,0.2l1.5-1c0.4-0.3,0.9-0.5,1.3-0.7c0.2-0.1,0.6-0.3,1-0.9
								c0.7-1.2,0.7-1.2,0.7-1.2s-1,1.6-1.3,1.8c-0.3,0.1-0.6,0.3-0.8,0c-0.3-0.3-0.7-1.3-1.3-2.7c-0.6-1.3,0.4-3.2,0.8-3.5
								l-0.4,0.3c0,0,0.5-1.9,0.4-3.5c-0.1-1.6,0-2.9,0-2.9c-0.7-2-0.9-3.9,0.2-5.2L17,20.4z"/>
						</g>
					</g>
				</g>
				<g>
					<g>
						<g>
							<g>
								<path fill="#425A6B" d="M17.8,15.3c0.1,1.5-0.7,3-0.5,4.5c0.1,1.3,0.9,2.5,1.7,3.4c-0.4-0.2-0.8-0.4-1.2-0.7
									c-0.4-0.3-0.9-0.5-1.2-0.9c-1.1-1.1-1.2-2.9-0.6-4.3c0.3-0.6,0.8-1.3,1.4-1.5"/>
							</g>
						</g>
					</g>
				</g>
			</g>
			<g>
				<g>
					<g>
						<g>
							<path fill="#F26F5A" d="M29.5,6.5c0,0-0.6-0.5-2-0.8c-1.5-0.3-4,0.3-5.3,0.8s-5.5,1.8-6,2.1c-0.5,0.3,0.8,2.1,1,2.5
								c0.2,0.4,1,3.7-0.8,3.9c-1.9,0.2-1.9-0.9-1.9-0.9c-0.7-1.6-0.9-3.4-0.8-5.4c0,0-1.8-6,3-7.8c4.8-1.8,9.2-1,10.1,4.3
								C27,5.2,27,5.2,27,5.2C29.4,5.5,29.5,6.5,29.5,6.5z"/>
						</g>
					</g>
				</g>
			</g>
			<g>
				<g>
					<g>
						<g>
							<path fill="#F05640" d="M12.8,35.8c0,0-1.3,0.6-2,1.8c-0.7,1.2-0.9,1-0.3,0.1C11.1,36.8,12.1,36,12.8,35.8z"/>
						</g>
					</g>
				</g>
			</g>
			<g>
				<g>
					<g>
						<g>
							<path fill="#F05640" d="M12.8,35.8c0,0-0.9,0.6-1.5,1.4c-0.6,0.8-0.7,1.4-0.1,0.6C11.7,36.9,12.3,36.1,12.8,35.8z"/>
						</g>
					</g>
				</g>
			</g>
			<g>
				<g>
					<g>
						<g>
							<path fill="#435B6B" d="M33.3,22.3c-0.5-0.2-1,0.2-1.5,0.4c-0.5,0.1-1,0.1-1.5-0.1c-0.1,0-0.2-0.1-0.3-0.1
								c-0.1,0-0.2,0.1-0.4,0.1c-0.6,0.2-1.3-0.3-1.3-0.9c-0.1,0.6,0.4,1.2,0.7,1.7c0.4,0.8,0.4,1.9-0.1,2.7c-0.3,0.5-0.7,0.9-1,1.4
								c0-0.5-0.3-0.9-0.7-1.2c-0.4-0.3-0.8-0.6-0.9-1c-0.8,1.3,1.5,1.7,0.3,4.2c-0.1-0.4,0-0.8,0-1.1c-0.1-0.6-0.7-1-1.1-1.3
								c-1-0.9-1.7-2.3-1.2-3.5c0.1-0.2,0.1-0.3,0.2-0.5c0.1-0.6-0.3-1.2-0.5-1.8c-0.5-1-0.8-2-0.5-3.1c1.2,0.3,2-0.7,2.2-1.5
								c0.1-0.4,0.3-1,0.6-1.5c0.7,0.2,1.2,0.8,1.3,1.5c0.1,0.5,0.7,1.4,1.2,1.4c0.3,0,0.6,0,0.8,0.2c0.3,0.4,0,1,0.2,1.4
								c0,0.1,0.1,0.1,0.1,0.2c0.4,0.6-0.1,1.6,0.3,2.2c0.3,0.4,0.8,0.6,1.3,0.6c0.5,0,1-0.2,1.5-0.3C33,22.1,33.2,22.2,33.3,22.3z"
								/>
						</g>
					</g>
				</g>
			</g>
			<g>
				<g>
					<g>
						<g>
							<g>
								<path fill="#435B6B" d="M27.8,21.7C27.8,21.7,27.8,21.8,27.8,21.7c0,0.1,0,0.1,0,0.1c0,0,0,0,0,0.1c0,0.1,0.1,0.3,0.2,0.4
									c0.1,0.1,0.1,0.2,0.2,0.2c0.1,0.1,0.2,0.1,0.3,0.2c0.1,0.1,0.2,0.1,0.4,0.2c0,0,0.1,0,0.1,0.1l0.1,0.1c0,0,0,0,0,0l0,0
									l0.1,0.1c0.1,0.1,0.2,0.2,0.3,0.3c0.1,0.1,0.2,0.2,0.3,0.4c0.1,0.1,0.1,0.3,0.2,0.4c0,0,0,0.1,0,0.1c0,0,0,0.1,0,0.1
									c0,0,0,0.1,0,0.1c0,0,0,0.1,0,0.1c0,0,0,0.1,0,0.1c0,0,0,0.1,0,0.1c0,0.1,0,0.1,0,0.1c0,0,0,0.1,0,0.1s0,0.1,0,0.1
									c0,0.1,0,0.1,0,0.2c0,0,0,0.1,0,0.1s0,0,0-0.1c0,0,0-0.1,0-0.2c0,0,0-0.1,0-0.1c0,0,0-0.1,0-0.1c0,0,0-0.1,0-0.1
									c0,0,0-0.1,0-0.1c0,0,0-0.1,0-0.1c0,0,0-0.1,0-0.1c0,0,0-0.1,0-0.1c0,0,0-0.1,0-0.1c0,0,0-0.1,0-0.1
									C30,24.2,30,24.1,29.9,24c-0.1-0.1-0.2-0.2-0.3-0.3c-0.1-0.1-0.2-0.2-0.3-0.3l-0.1-0.1l0,0c0,0,0,0,0,0L29,23.3
									c0,0-0.1,0-0.1,0c-0.1-0.1-0.3-0.1-0.4-0.2c-0.1-0.1-0.3-0.1-0.4-0.2c-0.1-0.1-0.2-0.2-0.3-0.3c-0.2-0.2-0.3-0.4-0.3-0.5
									c0-0.1-0.1-0.1-0.1-0.2c0,0,0-0.1,0-0.1L27.8,21.7z"/>
							</g>
						</g>
					</g>
				</g>
				<g>
					<g>
						<g>
							<g>
								<path fill="#435B6B" d="M24.7,22.7C24.7,22.7,24.7,22.7,24.7,22.7C24.7,22.8,24.7,22.8,24.7,22.7
									C24.7,22.8,24.7,22.8,24.7,22.7c0,0.2,0,0.3-0.1,0.4c0,0.1-0.1,0.2-0.2,0.3l0,0l0,0l0,0c0,0,0,0,0,0l0,0l0,0c0,0,0,0,0,0
									c0,0,0,0.1,0,0.1c0,0,0,0.1,0,0.1c0,0,0,0.1,0,0.1c-0.1,0.3-0.2,0.6-0.2,1c0,0.2,0,0.4,0.1,0.6l0,0.1l0,0.1l0,0.1l0,0.1
									c0,0.1,0.1,0.2,0.1,0.3c0.2,0.4,0.4,0.7,0.6,1.1c0.1,0.2,0.1,0.4,0.1,0.5c0,0.2,0,0.3,0,0.5c0,0.2,0,0.3,0,0.4
									c0,0.1,0,0.2-0.1,0.3c0,0.1,0,0.2-0.1,0.2c0,0,0,0.1,0,0.1s0,0,0-0.1c0,0,0-0.1,0.1-0.2c0-0.1,0-0.2,0.1-0.3
									c0-0.1,0-0.3,0-0.4c0-0.2,0-0.3-0.1-0.5c0-0.2-0.1-0.3-0.2-0.5c-0.1-0.2-0.2-0.3-0.3-0.5c-0.1-0.2-0.2-0.3-0.3-0.5
									c-0.1-0.1-0.1-0.2-0.2-0.3l0-0.1l0-0.1l0-0.1l0-0.1c-0.1-0.2-0.1-0.4-0.1-0.6c0-0.4,0-0.8,0.2-1.1c0,0,0-0.1,0-0.1
									c0,0,0-0.1,0-0.1c0,0,0-0.1,0-0.1c0,0,0,0,0,0l0,0l0,0c0.1-0.1,0.1-0.2,0.1-0.3c0-0.1,0-0.1,0-0.1c0,0,0,0,0,0c0,0,0,0,0,0
									c0,0,0,0,0,0L24.7,22.7z"/>
							</g>
						</g>
					</g>
				</g>
			</g>
		</g>
		<g>
			<g>
				<g>
					<g>
						<g>
							<path fill="#FFD15C" d="M28.4,7.1c0,0,0.6-0.7,1.6-0.3c0.6,0.2,1.3,0.6,1.3,0.6l3.1-2.7c0,0,0.6,0.4,0.7,0.9
								c0.2,0.5,0.5,0.8,0.5,0.8s0.4,1.3,0.9,1.6c0.5,0.3,8.9,5.7,8.9,5.7l-4.4,1.9l-1.7-0.9c0,0-3.4-3.6-5.2-4.2
								c-1.8-0.7-2.4-1-2.9-1.5c-0.5-0.5-1.6-1.2-1.6-1.2L28.4,7.1z"/>
						</g>
					</g>
				</g>
			</g>
			<g>
				<g>
					<g>
						<g>
							<path fill="#F5B54C" d="M34.5,4.8c0,0.1,0,0.1,0,0.2l0.1,0.7c0.1,0.5,0.1,0.9,0.2,1.4l0,0l0,0l0,0.1c0,0,0,0,0,0.1
								c0,0,0,0,0,0.1c0,0,0,0,0,0.1c0,0,0,0,0,0.1l0,0.1l0,0l0,0l0,0c0,0,0,0,0,0c0,0,0,0,0,0c0,0,0,0,0,0c0,0,0,0,0,0
								c0,0,0,0-0.1,0c0,0,0,0-0.1,0c0,0,0,0-0.1,0l0,0c0,0,0,0,0.1,0c0,0,0,0,0.1,0c0,0,0,0,0.1,0c0,0,0,0,0.1,0c0,0,0,0,0.1,0
								c0,0,0,0,0.1,0c0,0,0,0,0,0c0,0,0,0,0,0c0,0,0,0,0-0.1l0-0.1l0-0.1c0,0,0,0,0-0.1c0,0,0,0,0-0.1c0,0,0,0,0-0.1c0,0,0,0,0-0.1
								l0-0.1l0,0c0-0.1,0-0.2,0-0.4c0-0.1,0-0.2,0-0.4c0-0.1,0-0.2,0-0.3l0-0.3l-0.1-0.3L34.6,5L34.5,4.8
								C34.6,4.9,34.6,4.9,34.5,4.8C34.5,4.8,34.5,4.8,34.5,4.8C34.5,4.8,34.5,4.8,34.5,4.8z"/>
						</g>
					</g>
				</g>
				<g>
					<g>
						<g>
							<path fill="#F5B54C" d="M34.1,8.2C34.1,8.2,34.1,8.2,34.1,8.2c0.1-0.1,0.1-0.1,0.2-0.1c0,0,0-0.1,0.1-0.1c0,0,0-0.1,0-0.1
								c0,0,0-0.1,0-0.1c0,0,0-0.1,0-0.1l0,0l0,0c0,0,0,0,0,0l0,0c0,0,0.1,0,0.1,0l0,0l0,0l0,0v0l0,0c0,0-0.1,0-0.1-0.1
								c0,0,0,0,0-0.1l0,0c0,0,0,0,0,0l0,0l0,0l0,0c0,0,0,0,0,0c0,0,0,0,0,0c0,0,0,0.1,0,0.1c0,0,0,0.1,0,0.1c0,0,0,0.1,0,0.1
								c0,0,0,0.1,0,0.1c0,0,0,0.1-0.1,0.1c0,0,0,0-0.1,0.1C34.1,8.1,34.1,8.1,34.1,8.2C34,8.2,34,8.2,34.1,8.2l-0.1,0
								c0,0-0.1,0-0.1,0c0,0-0.1,0-0.1,0c0,0-0.1,0-0.1,0c0,0-0.1,0-0.1,0l0,0c0,0,0,0,0,0c0,0,0,0-0.1-0.1L33.4,8l0,0l0,0l-0.1-0.1
								c0,0,0,0,0,0c0-0.1,0-0.1-0.1-0.2l-0.1,0.1l0,0l-0.1-0.1l0.1,0.1c0,0,0,0,0,0l-0.1,0.1c0,0,0.1,0.1,0.1,0.1c0,0,0,0,0,0
								c0,0,0,0,0,0.1c0,0,0,0,0,0.1c0,0,0,0,0,0.1c0,0,0,0-0.1,0.1c0,0,0,0-0.1,0c0,0,0,0-0.1,0c0,0,0,0-0.1,0c0,0,0,0-0.1,0
								c0,0,0,0-0.1,0c0,0,0,0-0.1,0l0,0l0,0c0,0,0,0-0.1,0c0,0,0,0,0-0.1l0,0l-1-0.9l-0.1,0.1c0,0,0,0,0.1,0.1l0.3,0.3L32.1,8
								c0.1,0.1,0.2,0.2,0.3,0.3c0,0,0,0,0.1,0.1c0,0,0.1,0,0.1,0.1l0,0l0,0c0,0,0.1,0,0.1,0c0,0,0.1,0,0.1,0c0,0,0.1,0,0.1,0
								c0,0,0.1,0,0.1,0c0,0,0.1,0,0.1,0c0,0,0,0,0.1-0.1c0,0,0,0,0.1-0.1c0,0,0,0,0.1-0.1c0,0,0-0.1,0-0.1c0,0,0,0,0,0l0,0
								c0,0,0,0,0,0l0.1,0.1c0,0,0.1,0,0.1,0.1c0,0,0,0,0,0l0,0c0,0,0.1,0,0.1,0c0,0,0.1,0,0.1,0c0,0,0.1,0,0.1,0
								C33.9,8.3,33.9,8.3,34.1,8.2L34.1,8.2C34,8.2,34,8.2,34.1,8.2z"/>
						</g>
					</g>
				</g>
			</g>
			<g>
				<g>
					<g>
						<g>
							<path fill="#FFD15C" d="M34.4,7.6L34.4,7.6c-0.1,0-0.1-0.1-0.2-0.1c0,0,0,0.1,0,0.1c0.1,0.5-0.5,0.9-0.9,0.3l-0.2-0.2
								l-0.1-0.1c0,0.1,0.1,0.1,0.1,0.2c0,0.3-0.5,0.6-0.7,0.3l-1.8-1.6c-0.3-0.3-0.4-0.7-0.1-1c0,0,0,0,0,0
								c0.3-0.3,0.9-0.2,1.1-0.1C31.9,5.5,32,5.4,32,5.4s0.1-0.3,0.4-0.5c0.3-0.1,0.8,0,0.8,0s0-0.2,0.4-0.4
								c0.2-0.1,0.3-0.1,0.5-0.1c0.2,0,0.4,0.2,0.4,0.4l0.3,2.2C34.9,7.5,34.6,7.7,34.4,7.6z"/>
						</g>
					</g>
				</g>
			</g>
			<g>
				<g>
					<g>
						<g>
							<g>
								<path fill="#F5B54C" d="M34.3,7.7c0-0.1-0.4-0.9-0.4-1l-0.1-0.3c-0.1-0.2-0.1-0.4-0.2-0.5c-0.1-0.2-0.1-0.4-0.2-0.5
									c0.1,0.2,0.2,0.3,0.2,0.5c0.1,0.2,0.1,0.3,0.2,0.5c0,0.1,0.1,0.2,0.1,0.3C34,6.7,34,6.8,34,6.9C34.1,7,34.3,7.6,34.3,7.7
									L34.3,7.7C34.3,7.6,34.3,7.7,34.3,7.7z"/>
							</g>
						</g>
					</g>
				</g>
				<g>
					<g>
						<g>
							<g>
								<path fill="#F5B54C" d="M33.4,8c0,0.1-0.2-0.1-0.2,0c0,0-0.1-0.1-0.1-0.1c0-0.1-0.1-0.1-0.1-0.2c0-0.1-0.1-0.1-0.1-0.2
									c0-0.1-0.1-0.2-0.1-0.2c0-0.1-0.1-0.1-0.1-0.2c0,0,0-0.1-0.1-0.1c0,0,0-0.1-0.1-0.1c-0.1-0.1-0.2-0.3-0.3-0.4
									C32.1,6.1,32,6,32,6c0,0,0.1,0.1,0.3,0.3c0.1,0.1,0.2,0.2,0.3,0.3c0,0,0.1,0.1,0.1,0.1c0,0,0.1,0.1,0.1,0.1
									c0,0.1,0.1,0.1,0.1,0.2c0,0.1,0.1,0.2,0.1,0.2c0,0.1,0.1,0.2,0.1,0.2C33.1,7.6,33.4,8,33.4,8z"/>
							</g>
						</g>
					</g>
				</g>
			</g>
			<g>
				<g>
					<g>
						<g>
							<path fill="#FFFFFF" d="M28.4,7.1c0,0,1-0.2,1,0.6L28.4,7.1z"/>
						</g>
					</g>
				</g>
			</g>
		</g>
		<g>
			<g>
				<g>
					<g>
						<path fill="#F05640" d="M47.4,15.7c-0.1-0.2-0.3-0.5-0.5-0.6c-0.4-0.3-1.2-1.1-1.3-1.4c-0.1-0.3,0-0.8-0.1-1
							c-0.1-0.3-0.6-0.1-0.6-0.1c0.3,0,0.3,0.1,0.3,0.1c0.1,0.5-1.7,1.4-3.5,1.9c-1.8,0.6-2.6,0.1-2.6,0.1l0.7,1.1H47.4z"/>
					</g>
				</g>
			</g>
		</g>
		<g>
			<g>
				<g>
					<g>
						<path fill="#67C5B8" d="M17.1,23.8h2.2L3.3,5.1C2.1,3.7-0.5,5.8,0.7,7.3l16.4,17.8V23.8z"/>
					</g>
				</g>
			</g>
		</g>
	</g>
</g>
</svg>
