<?xml version="1.0" encoding="utf-8"?>
<!-- Generator: Adobe Illustrator 20.1.0, SVG Export Plug-In . SVG Version: 6.00 Build 0)  -->
<!DOCTYPE svg PUBLIC "-//W3C//DTD SVG 1.1//EN" "http://www.w3.org/Graphics/SVG/1.1/DTD/svg11.dtd">
<svg version="1.1" id="Layer_1" xmlns="http://www.w3.org/2000/svg" xmlns:xlink="http://www.w3.org/1999/xlink" x="0px" y="0px"
	 viewBox="0 0 49 49" enable-background="new 0 0 49 49" xml:space="preserve">
<g>
	<g>
		<rect x="19.7" y="39.2" fill="#ACB3BA" width="2.6" height="8.1"/>
		<path fill="#CDD6E0" d="M25.5,45.9h-9c-1.1,0-2,0.9-2,2v0.6h13v-0.6C27.5,46.8,26.6,45.9,25.5,45.9z"/>
		<path fill="#F2F2F2" d="M31.9,7.5L31.9,7.5H10.1l0,0c1,6.8,0.7,13.8-0.6,20.6c-0.2,1.2-0.4,2.4-0.4,3.3c0,6.5,5.3,11.8,11.8,11.8
			c6.5,0,11.8-5.3,11.8-11.8c0-1-0.1-2.1-0.4-3.3C31.1,21.3,30.8,14.4,31.9,7.5z"/>
		<path fill="#84DBFF" d="M29.9,20.5H12c-0.2,2.6-0.5,5.2-1,7.9c-0.2,1.1-0.3,2.2-0.3,3.1c0,5.7,4.6,10.3,10.3,10.3
			c5.7,0,10.3-4.6,10.3-10.3c0-0.9-0.1-1.9-0.3-3.1C30.4,25.7,30.1,23.1,29.9,20.5z"/>
	</g>
	<polygon fill="#CED4DF" points="27,0.5 15.6,20.5 18.3,20.5 28.3,2.8 39.8,2.8 39.8,0.5 	"/>
</g>
</svg>
