<?xml version="1.0" encoding="utf-8"?>
<!-- Generator: Adobe Illustrator 18.0.0, SVG Export Plug-In . SVG Version: 6.00 Build 0)  -->
<!DOCTYPE svg PUBLIC "-//W3C//DTD SVG 1.1//EN" "http://www.w3.org/Graphics/SVG/1.1/DTD/svg11.dtd">
<svg version="1.1" id="Layer_1" xmlns="http://www.w3.org/2000/svg" xmlns:xlink="http://www.w3.org/1999/xlink" x="0px" y="0px"
	 viewBox="0 0 48 48" enable-background="new 0 0 48 48" xml:space="preserve">
<g>
	<path fill="#40596B" d="M48,48c-15,0-29.9,0-44.9,0C-14,32,46.1,16,22.8,0c1.9,0,3.7,0,5.6,0C58.5,16,11.6,32,48,48z"/>
	<path fill="#ACB3BA" d="M10.1,48c-1.3,0-2.7,0-4,0c-18.4-16,40.8-32,17-48c0.2,0,0.3,0,0.5,0C48,16-10,32,10.1,48z"/>
	<path fill="#ACB3BA" d="M45,48c-1.3,0-2.7,0-4,0C7.6,32,56.6,16,27.5,0c0.2,0,0.3,0,0.5,0C57.7,16,9.9,32,45,48z"/>
	<g>
		<path fill="#ACB3BA" d="M33.1,6.2c-0.6,0-1.1,0-1.7,0c-0.8-1.7-2.4-3.4-4.8-5.2c0.4,0,0.8,0,1.2,0C30.4,2.8,32.1,4.5,33.1,6.2z"/>
		<path fill="#ACB3BA" d="M31.8,18c-1.1,0-2.1,0-3.2,0c2.2-2.9,3.7-5.8,3.6-8.7c0.7,0,1.4,0,2.1,0C34.7,12.3,33.6,15.2,31.8,18z"/>
		<path fill="#ACB3BA" d="M22.4,41.5c-2.5,0-5,0-7.5,0c-2.3-5.9,3.4-11.8,8.8-17.7c1.4,0,2.7,0,4.1,0C23.4,29.7,18.9,35.6,22.4,41.5
			z"/>
	</g>
</g>
</svg>
