<?xml version="1.0" encoding="utf-8"?>
<!-- Generator: Adobe Illustrator 18.0.0, SVG Export Plug-In . SVG Version: 6.00 Build 0)  -->
<!DOCTYPE svg PUBLIC "-//W3C//DTD SVG 1.1//EN" "http://www.w3.org/Graphics/SVG/1.1/DTD/svg11.dtd">
<svg version="1.1" id="Layer_1" xmlns="http://www.w3.org/2000/svg" xmlns:xlink="http://www.w3.org/1999/xlink" x="0px" y="0px"
	 viewBox="0 0 48 48" enable-background="new 0 0 48 48" xml:space="preserve">
<g>
	<g>
		<g>
			<polygon fill="#E8EAE9" points="26.4,4.7 21.6,4.7 11.1,18.3 13.4,18.3 24,4.7 34.6,18.3 36.9,18.3 			"/>
		</g>
		<path fill="#F3705A" d="M24,48c-9.9,0-18-8.1-18-18s8.1-18,18-18s18,8.1,18,18S33.9,48,24,48z"/>
		<path fill="#FFD15C" d="M24,43.2c-7.3,0-13.2-5.9-13.2-13.2S16.7,16.9,24,16.9S37.2,22.8,37.2,30S31.3,43.2,24,43.2z"/>
		<path fill="#F3705A" d="M24,38.4c-4.6,0-8.4-3.7-8.4-8.4s3.7-8.4,8.4-8.4s8.4,3.7,8.4,8.4S28.6,38.4,24,38.4z"/>
		<circle fill="#FFD15C" cx="24" cy="30" r="3.6"/>
		<circle fill="#415A6B" cx="24" cy="3.1" r="3.1"/>
		<circle fill="#344A5E" cx="24" cy="3.1" r="1.5"/>
	</g>
</g>
</svg>
