<?xml version="1.0" encoding="utf-8"?>
<!-- Generator: Adobe Illustrator 18.0.0, SVG Export Plug-In . SVG Version: 6.00 Build 0)  -->
<!DOCTYPE svg PUBLIC "-//W3C//DTD SVG 1.1//EN" "http://www.w3.org/Graphics/SVG/1.1/DTD/svg11.dtd">
<svg version="1.1" id="Layer_1" xmlns="http://www.w3.org/2000/svg" xmlns:xlink="http://www.w3.org/1999/xlink" x="0px" y="0px"
	 viewBox="0 0 48 48" enable-background="new 0 0 48 48" xml:space="preserve">
<g>
	<g>
		<g>
			<g>
				<path fill="#CED6E0" d="M10.7,12.2v9.9c0,0.9-0.7,1.6-1.6,1.6S7.5,23,7.5,22.1v-9.9c0-0.9,0.7-1.6,1.6-1.6S10.7,11.3,10.7,12.2z
					"/>
				<path fill="#CED6E0" d="M38.9,10.6c-0.9,0-1.6,0.7-1.6,1.6v9.9c0,0.9,0.7,1.6,1.6,1.6s1.6-0.7,1.6-1.6v-9.9
					C40.5,11.3,39.8,10.6,38.9,10.6z"/>
			</g>
		</g>
		<g>
			<path fill="#E8EAE9" d="M44.3,20.1L44.3,20.1c0-1.1-0.9-1.9-1.9-1.9H5.6c-1.1,0-1.9,0.9-1.9,1.9v0c0,1.1,0.9,1.9,1.9,1.9h36.8
				C43.4,22,44.3,21.1,44.3,20.1z"/>
		</g>
		<g>
			<g>
				<g>
					<path fill="#415A6B" d="M18.1,14c0,0-4,1.8-9,1.8s-9-1.8-9-1.8s4-1.8,9-1.8S18.1,14,18.1,14z"/>
				</g>
			</g>
			<g>
				<g>
					<path fill="#415A6B" d="M47.9,14c0,0-4,1.8-9,1.8s-9-1.8-9-1.8s4-1.8,9-1.8S47.9,14,47.9,14z"/>
				</g>
			</g>
		</g>
		<g>
			<path fill="#415A6B" d="M35.9,28.6L31.5,23c0-0.1,0.1-0.3,0.1-0.4v-4.6c0-0.8-0.7-1.5-1.5-1.5H17.9c-0.8,0-1.5,0.7-1.5,1.5v4.6
				c0,0.2,0,0.3,0.1,0.4l-4.4,5.7c-0.1,0.2-0.2,0.4-0.2,0.6v7.2c0,0.6,0.4,1,1,1s1-0.4,1-1v-6.8l4.4-5.6h11.5l4.4,5.6v6.8
				c0,0.6,0.4,1,1,1s1-0.4,1-1v-7.2C36.1,29,36.1,28.8,35.9,28.6z"/>
		</g>
		<g>
			<path fill="#415A6B" d="M24,35.4L24,35.4c-3.2,0-5.9-2.6-5.9-5.9V24h11.7v5.5C29.9,32.8,27.2,35.4,24,35.4z"/>
			<g>
				<circle fill="#344A5E" cx="24" cy="29.5" r="4.9"/>
				<circle fill="#F3F3F3" cx="24" cy="29.5" r="3.7"/>
				<path fill="#8AD7F8" d="M25.1,29.4c-0.9,0-1.3-0.9-1.1-1.6c0,0,0,0,0,0c-1,0-1.7,0.8-1.7,1.7s0.8,1.7,1.7,1.7
					c1,0,1.7-0.8,1.7-1.7c0-0.1,0-0.2,0-0.3C25.5,29.3,25.4,29.4,25.1,29.4z"/>
			</g>
		</g>
	</g>
</g>
</svg>
