<?xml version="1.0" encoding="utf-8"?>
<!-- Generator: Adobe Illustrator 18.0.0, SVG Export Plug-In . SVG Version: 6.00 Build 0)  -->
<!DOCTYPE svg PUBLIC "-//W3C//DTD SVG 1.1//EN" "http://www.w3.org/Graphics/SVG/1.1/DTD/svg11.dtd">
<svg version="1.1" id="Layer_1" xmlns="http://www.w3.org/2000/svg" xmlns:xlink="http://www.w3.org/1999/xlink" x="0px" y="0px"
	 viewBox="0 0 48 48" enable-background="new 0 0 48 48" xml:space="preserve">
<g>
	<g>
		<g>
			<path fill="#FFD15C" d="M45.7,33.2c0,0-4.8,3.8-7.5,5c0,0-6,3.2-11.7,3.4h-8.8c0,0-1.6-0.3-3.7,1.1c-0.3,0.2-0.5,0.4-0.8,0.6
				c-0.4,0.3-0.9,0.7-1.3,1.2l-7-10.3c0,0,0.6-0.4,1.4-1.2C6.5,33,6.7,32.8,7,32.5c0.6-0.5,1.2-1.2,1.8-1.9c0,0,3.7-4.8,12.2-1.9
				c5.9,2,6.6,2.1,6.6,2.1s3.5,0.4,7,0.4c0,0,2.8,0,2.7,2.1c0,0.7-0.4,1.4-0.9,1.8c-0.7,0.6-2,1.3-4.4,1.6c-1,0.1-2.1,0.1-3.1,0
				c-2.6-0.2-5.8-0.7-6.3-0.3c0,0-0.8,0.6,2.4,1c0,0,2.3,0.3,6.5,0.4c0,0,7.5-0.3,7.2-5.5c0,0,2.7-1.6,4.2-2.2c0,0,4.2-2.5,5.2-0.9
				C47.7,29.2,49,30.8,45.7,33.2z"/>
			<path fill="#FFFFFF" d="M36,32.7c-0.3-0.4-1.1-0.5-1.5-0.5l-0.5,0c-0.4,0-0.7,0-1.1,0v3.3c1.4-0.3,2.2-0.8,2.7-1.1
				c0.3-0.3,0.5-0.7,0.6-1.1C36.2,33,36.1,32.8,36,32.7z"/>
		</g>
		<path fill="#F8B64C" d="M14,42.8c-0.3,0.2-0.5,0.4-0.8,0.6c-0.4,0.3-0.9,0.7-1.3,1.2l-7-10.3c0,0,0.6-0.4,1.4-1.2
			C6.5,33,6.7,32.8,7,32.5L14,42.8z"/>
		<path fill="#40596B" d="M13.4,45.4l-3.6,2.4c-0.5,0.3-1.1,0.2-1.4-0.3L0.2,35.6c-0.3-0.5-0.2-1.1,0.3-1.4L4,31.8
			c0.5-0.3,1.1-0.2,1.4,0.3L13.6,44C13.9,44.4,13.8,45.1,13.4,45.4z"/>
		<circle fill="#F2F2F2" cx="10.2" cy="44.3" r="1.4"/>
	</g>
	<path fill="#4CDBC4" d="M45.1,11.5c-0.3-1.1-0.7-2.1-1.3-3L45,5.6l-2.8-2.8L39.5,4c-0.9-0.5-1.9-1-3-1.3L35.3,0h-3.9l-1.1,2.8
		c-1.1,0.3-2.1,0.7-3,1.3l-2.8-1.2l-2.8,2.8l1.2,2.8c-0.5,0.9-1,1.9-1.3,3l-2.8,1.1v3.9l2.8,1.1c0.3,1.1,0.7,2.1,1.3,3l-1.2,2.8
		l2.8,2.8l2.8-1.2c0.9,0.5,1.9,1,3,1.3l1.1,2.8h3.9l1.1-2.8c1.1-0.3,2.1-0.7,3-1.3l2.8,1.2l2.8-2.8l-1.2-2.8c0.5-0.9,1-1.9,1.3-3
		l2.8-1.1v-3.9L45.1,11.5z M33.3,21.5c-3.9,0-7-3.1-7-7c0-3.9,3.1-7,7-7s7,3.1,7,7C40.3,18.4,37.2,21.5,33.3,21.5z"/>
</g>
</svg>
