<?xml version="1.0" encoding="utf-8"?>
<!-- Generator: Adobe Illustrator 18.0.0, SVG Export Plug-In . SVG Version: 6.00 Build 0)  -->
<!DOCTYPE svg PUBLIC "-//W3C//DTD SVG 1.1//EN" "http://www.w3.org/Graphics/SVG/1.1/DTD/svg11.dtd">
<svg version="1.1" id="Layer_1" xmlns="http://www.w3.org/2000/svg" xmlns:xlink="http://www.w3.org/1999/xlink" x="0px" y="0px"
	 viewBox="0 0 48 48" enable-background="new 0 0 48 48" xml:space="preserve">
<g>
	<g>
		<g>
			<g>
				<path fill="#F3F3F3" d="M11.9,0L0,11.9v33.2C0,46.7,1.3,48,2.9,48h34.5c1.6,0,2.9-1.3,2.9-2.9V2.9c0-1.6-1.3-2.9-2.9-2.9H11.9z"
					/>
			</g>
			<polygon fill="#CED6E0" points="11.9,0 0,11.9 11.9,11.9 			"/>
			<rect x="4.9" y="40.9" fill="#F3705A" width="12.5" height="2.2"/>
			<rect x="4.9" y="33.7" fill="#CED6E0" width="30.6" height="2.2"/>
			<rect x="4.9" y="26.5" fill="#CED6E0" width="30.6" height="2.2"/>
			<rect x="4.9" y="19.3" fill="#CED6E0" width="30.6" height="2.2"/>
			<rect x="17.3" y="12.1" fill="#CED6E0" width="18.2" height="2.2"/>
			<rect x="17.3" y="4.9" fill="#8AD7F8" width="18.2" height="2.2"/>
		</g>
		<g>
			<g>
				<g>
					<path fill="#FFD15C" d="M42.7,45c0.3,0.3,0.3,0.7,0,1l-1.8,1.8c-0.3,0.3-0.7,0.3-1,0L33.1,41c-0.3-0.3-0.3-0.7,0-1
						c0.3-0.3,0.7-0.3,1,0l6.3,6.3l1.3-1.3C42,44.7,42.4,44.7,42.7,45z"/>
				</g>
			</g>
			<path fill="#415A6B" d="M47.2,42.8c-6.1-6.6-17.8-17.5-22.8-21.3l-2.8,2.8c3.9,5,14.8,16.7,21.3,22.8c1.2,1.1,3,1.1,4.2-0.1
				S48.3,44,47.2,42.8z"/>
			<g>
				<path fill="#FFD15C" d="M35.9,40.1c0.4,0.4,0.7,0.7,1.1,1.1l4.4-4.4c-0.4-0.4-0.7-0.7-1.1-1.1L35.9,40.1z"/>
			</g>
			<g>
				<path fill="#FFD15C" d="M19.1,22.4l3.1,1.3l1.7-1.7l-1.3-3.1l-4.7-1.2L19.1,22.4z M21.3,20.4c0.2,0.2,0.2,0.6,0,0.8
					c-0.2,0.2-0.6,0.2-0.8,0c-0.2-0.2-0.2-0.6,0-0.8C20.7,20.2,21.1,20.2,21.3,20.4z"/>
			</g>
			<g>
				<g>
					<path fill="#344A5E" d="M21,24.1L21,24.1l3.2-3.2c0.2-0.2,0.6-0.2,0.8,0c0.2,0.2,0.2,0.6,0,0.8l0,0l-3.2,3.2
						c-0.2,0.2-0.6,0.2-0.8,0S20.8,24.3,21,24.1z"/>
				</g>
			</g>
		</g>
	</g>
</g>
</svg>
