<?xml version="1.0" encoding="utf-8"?>
<!-- Generator: Adobe Illustrator 18.0.0, SVG Export Plug-In . SVG Version: 6.00 Build 0)  -->
<!DOCTYPE svg PUBLIC "-//W3C//DTD SVG 1.1//EN" "http://www.w3.org/Graphics/SVG/1.1/DTD/svg11.dtd">
<svg version="1.1" id="Layer_1" xmlns="http://www.w3.org/2000/svg" xmlns:xlink="http://www.w3.org/1999/xlink" x="0px" y="0px"
	 viewBox="0 0 48 48" enable-background="new 0 0 48 48" xml:space="preserve">
<g>
	<g>
		<g>
			<g>
				<circle fill="#8BD7F8" cx="24" cy="24" r="24"/>
				<path fill="#FFFFFF" d="M26.3,6.7c0,0,0-0.1,0-0.1c-0.1,0-0.2-0.1-0.3-0.1c-0.4-0.1-0.9,0.2-1.3-0.3C23.9,6.1,23,6,22.1,5.9
					c-0.2,0-0.4,0.2-0.6,0.2c-0.6,0-1.2,0-1.8,0c-0.1-0.1-0.1-0.2-0.2-0.2c-0.6-0.1-1.2-0.4-1.7-0.4c-0.7,0-1.5-0.1-2.2,0.2
					c0,0-0.1,0-0.1,0c-0.4-0.2-0.7,0.1-1.1,0.3c0.1,0.1,0.2,0.2,0.4,0.4l-1-0.1c-0.1-0.5-0.5-0.5-1-0.2c0.2,0.1,0.4,0.2,0.6,0.2
					c0.1,0.1,0.3,0.2,0.3,0.3C13.7,7,14,7,14.2,7.1c-0.3,0.2-0.6,0.3-0.8,0.5c-0.1,0.1-0.1,0.2-0.2,0.3C13.3,8,13.3,8,13.4,8.1
					c0.1,0,0.1,0,0.3,0.1C13.2,8.6,13,8,12.6,8.1c0.3-0.4,0.6-0.9,1.1-1c-0.3,0-0.6,0-0.8,0.1c-0.3,0.1-0.6,0.4-0.9,0.5
					c-0.2,0.1-0.5,0.1-0.6,0.2c-0.4,0.4-0.8,0.2-1.2,0c0.2,0,0.3,0,0.5,0c0.1,0,0.3-0.1,0.4-0.3c0.2-0.2,0.3-0.5,0.4-0.8
					c-0.2-0.2-0.4,0-0.7,0.1c-0.4,0.1-0.7,0-1-0.2C9.6,6.5,9.3,6.4,9,6.5C8.6,6.6,8.2,6.7,7.8,6.9C8.1,7.4,8,7.3,8.6,7.3
					c0.1,0,0.3,0,0.4,0c0,0,0,0.1,0,0.1c-0.1,0-0.2,0.1-0.4,0.1c0.2,0.4,0.6,0.4,0.9,0.6c-0.1,0-0.2,0.1-0.2,0
					C8.7,7.7,8.1,7.4,7.4,7.4c0,0,0,0-0.1,0c-0.2,0-0.4-0.1-0.5-0.1C4,10.1,2,13.6,0.9,17.5c0.1,0.3,0.2,0.7,0,1.1
					c0,0.1,0,0.2,0,0.3c0.1,0.4,0.2,0.7,0.4,1.1c0.1,0.2,0.2,0.3,0.4,0.2c-0.1-0.4-0.1-0.8-0.2-1.2c-0.1-0.4-0.2-0.7,0-1.2
					c0.1,0.2,0.2,0.4,0.1,0.6c0,0.5,0.1,0.9,0.3,1.4c0.2,0.3,0.3,0.7,0.3,1.1c0,0.1,0,0.3,0.1,0.4c0.5,0.7,1,1.2,1.8,1.3
					c0.2,0,0.4,0.1,0.5,0.2c0.4,0.3,0.8,0.7,1.2,1.1C6,24,6.1,24,6.2,24.1c-0.3,0.2-0.3,0.3-0.1,0.5c0.2,0.1,0.4,0.3,0.5,0.5
					c0.3,0.3,0.5,0.3,0.7,0c0.4,0.7,0.3,1.4-0.3,2c-0.2,0.2-0.4,0.5-0.4,0.7c-0.1,0.8-0.2,1.6,0.3,2.3C7,30.4,7,30.5,7.1,30.7
					c0.2,0.9,0.6,1.5,1.2,2.2c0.2,0.3,0.5,0.7,0.5,1c0,0.9,0,1.7-0.1,2.6c-0.1,0.7-0.2,1.5-0.2,2.2c0,0.1,0,0.1,0,0.2
					c0,0.3,0,0.7,0,1c0,0.2,0,0.3,0,0.5c0.1,0.3,0.2,0.3,0.4,0c0,0.3,0,0.4-0.1,0.6c-0.2,0.6-0.1,1.1,0.2,1.6
					c0.1,0.1,0.1,0.2,0.2,0.3c0.6,0.5,1.3,0.9,1.9,1.4c0.2,0,0.3-0.1,0.5-0.2c-0.2-0.1-0.4-0.2-0.5-0.3c-0.6-0.4-0.7-0.9-0.4-1.7
					c0-0.1,0-0.3-0.1-0.4c-0.3-0.2-0.3-0.3-0.1-0.6c0.2-0.2,0.2-0.5,0.1-0.8c0-0.1-0.1-0.2-0.1-0.2c0.2-0.1,0.5-0.2,0.7-0.4
					c0.1-0.2,0.2-0.3,0.3-0.3c0.1-0.1,0.3-0.1,0.4-0.2c0.2-0.2,0.3-0.4,0-0.6c-0.1-0.1-0.1-0.2-0.2-0.3c0,0,0-0.1,0-0.1
					c0.7,0.3,1-0.2,1.4-0.7c0-0.1,0.1-0.1,0.2-0.2c0.1-0.3,0.3-0.6,0.4-1c0.1-0.7,0.5-1.1,1.1-1.3c0.2-0.1,0.5-0.2,0.6-0.4
					c0.3-0.4,0.5-0.8,0.4-1.3c-0.1-0.5,0.1-0.9,0.4-1.3c0.1-0.1,0.2-0.2,0.3-0.4c0.2-0.4,0.4-0.7,0.5-1.1c0.1-0.2,0-0.4-0.3-0.5
					c-0.2-0.1-0.4-0.2-0.5-0.4c-0.2-0.4-0.6-0.6-1-0.6c-0.1,0-0.2,0-0.2-0.1c-0.2-0.5-0.6-0.5-1-0.5c-0.2-0.3-0.3-0.7-0.5-1
					c-0.2-0.3-0.3-0.8-0.6-0.9c-0.6-0.4-0.9-0.9-1.3-1.4c-0.1-0.2-0.3-0.3-0.5-0.3c-0.2,0-0.4,0.1-0.6-0.1c-0.3-0.2-0.7-0.2-1-0.2
					C9.6,24,9.4,23.9,9.2,24c-0.4,0.2-1,0.2-1.2,0.9c0,0,0,0-0.1,0c-0.2-0.3-0.4-0.3-0.6-0.2c-0.2,0-0.4-0.1-0.5-0.2
					c-0.1-0.2-0.1-0.5,0-0.7c0.2-0.5,0.1-0.9-0.4-1.1c-0.2-0.1-0.4-0.1-0.6-0.1c0.3-0.4,0.5-0.8,0.8-1.2c0.1-0.2,0.1-0.3-0.1-0.4
					c-0.4-0.1-0.7,0-1,0.4c-0.2,0.3-0.5,0.4-0.8,0.3c-0.4-0.2-0.6-0.6-0.4-1.2c0.1-0.3,0.3-0.7,0.4-1c0.2-0.6,0.9-0.9,1.4-0.7
					c0.2,0.1,0.5,0.2,0.7-0.1c0-0.1,0.1-0.1,0.2-0.1c0.6,0.1,0.7,0.2,0.8,0.9c0,0.1,0,0.2,0,0.3c0,0.2,0,0.5,0.2,0.5
					c0.1,0,0.3-0.3,0.4-0.5c0.1-0.3,0.1-0.6,0.1-0.9c0-0.4,0.2-0.7,0.5-0.9c0.3-0.1,0.5-0.2,0.7-0.4c0.2-0.1,0.4-0.3,0.4-0.6
					c0.1-0.5,0.5-0.8,0.9-1.1c0.3-0.1,0.5-0.3,0.7-0.5c0.4-0.3,0.9-0.6,1.3-0.8c0,0,0.1,0,0.2,0c-0.2,0.1-0.3,0.2-0.4,0.3
					c0,0.1,0,0.1,0,0.2c0.6-0.2,1.1-0.4,1.7-0.5c0-0.1,0-0.1,0-0.2c-0.2,0-0.4,0-0.6,0c-0.3,0-0.4-0.1-0.2-0.4
					c0.1-0.3,0.1-0.4-0.2-0.4c-0.1,0-0.2,0-0.4,0.1c0.1-0.1,0.3-0.3,0.5-0.2c0.5,0.1,1.1,0,1.6-0.1c0,0,0,0,0.1,0.1
					c-0.2,0.2-0.4,0.4-0.6,0.6c0,0,0.1,0.2,0.1,0.2c0.3-0.1,0.4,0.2,0.6,0.3c0.2,0.1,0.4,0,0.6-0.1c0.1,0,0.1-0.4,0-0.5
					c-0.4-0.3-0.1-0.6,0-0.9c0.2-0.4,0.1-0.6-0.2-0.8c-0.2-0.1-0.3-0.3-0.2-0.6c0-0.3-0.1-0.5-0.1-0.8c-0.2,0-0.4,0.1-0.5,0.1
					c-0.1,0-0.2-0.1-0.4-0.1c0.2-0.4-0.2-0.4-0.2-0.7c-0.1-0.2-0.8-0.3-1-0.1c-0.2,0.2-0.4,0.5-0.7,0.7c-0.1,0.1-0.2,0.2-0.2,0.4
					c0,0.4-0.2,0.6-0.5,0.6c-0.3,0.1-0.4,0.2-0.6,0.5c-0.1,0.2-0.2,0.3-0.3,0.4c0-0.2,0-0.4,0.1-0.5c0.1-0.3,0.1-0.4-0.1-0.5
					c-0.4-0.2-0.8-0.4-1.2-0.7c0.1-0.3,0.2-0.6,0.3-0.7c0.7-0.4,1.4-0.7,2.1-1.1c0,0,0,0,0,0.1c-0.1,0.1-0.2,0.2-0.3,0.4
					c0.2,0.1,0.3,0.1,0.4,0.1c0.2,0,0.3,0,0.5-0.1c0.1,0,0.2-0.1,0.3-0.2c-0.1-0.1-0.1-0.2-0.2-0.3c0,0-0.1-0.1-0.1-0.1
					C13.4,9,13.7,9,13.9,8.8C14,8.7,14.3,8.4,14.1,8c0.4,0.1,0.7,0.2,1,0.4c0.2,0.2,0.2,0.4-0.1,0.5C14.9,9,14.7,9,14.5,9.1
					c-0.2,0.1-0.4,0.2-0.6,0.3c0,0,0,0.1,0,0.1c0.1,0,0.2,0,0.3,0.1c0.2,0.1,0.3,0.1,0.4,0.3c0.5,0.6,0.4,0.6,1.1,0.4
					c0.5-0.2,0.5-0.2,0.4-0.7c0.4,0.2,0.7,0.1,1-0.4C17.2,9.1,17.1,9,17,9c-0.3-0.1-0.5-0.3-0.4-0.7c0-0.1-0.1-0.3-0.2-0.4
					c-0.3-0.2-0.6-0.4-0.9-0.7c0.1-0.1,0.2-0.1,0.3-0.2c0,0,0-0.1,0-0.1c-0.3-0.1-0.5-0.2-0.8-0.2c0.8,0.2,1.6,0,2.5-0.3
					c-0.1,0.5,0,0.6,0.3,0.7c0.2,0.1,0.4,0.1,0.6,0.1c0.6,0,0.7,0.3,0.4,0.9c0,0,0,0,0,0.1c0.1,0.1,0.2,0.2,0.4,0.3
					c-0.2,0.1-0.4,0.1-0.6,0.1c0,0,0,0.1,0,0.1c0.1,0,0.2,0.1,0.2,0.1c0,0,0,0.1,0,0.1c-0.3,0.2-0.6,0.4-0.6,0.8
					c0,0.4,0.1,0.7,0.2,1.1c0,0,0.1,0.1,0.1,0.1c0.2,0.1,0.5,0.2,0.7,0.2c0.2,0,0.3-0.2,0.5-0.3c0.1-0.1,0.2-0.3,0.3-0.3
					c0.4-0.2,0.8-0.4,1.3-0.6c0.2-0.1,0.4-0.1,0.6-0.2c0.5-0.3,1.1-0.4,1.6-0.4c0.2,0,0.4-0.1,0.6-0.2c0,0,0-0.1,0-0.1
					C23.9,9,23.9,9,23.8,8.9c0.4-0.2,0.4-0.2,0.4-0.6C25,8,25,8,24.9,7.5c0.3,0,0.3-0.2,0.3-0.4C25.6,7,26,6.9,26.3,6.7z"/>
				<path fill="#FFFFFF" d="M44.8,12c-0.4-0.1-0.8-0.1-1.1-0.1c-0.2,0-0.4,0-0.5,0.1c-0.5,0.5-1.1,0.8-1.2,1.6
					c-0.1,0.5-0.3,0.7-0.8,0.8c-0.2,0-0.3,0.1-0.5,0.1c-0.5,0.3-0.5,0.3-0.9-0.1c-0.5-0.6-1.3-0.8-2-1.1c-0.6-0.3-1.1-0.6-1.4-1.3
					c-0.1-0.5-0.5-0.8-0.9-0.9c-0.5-0.2-1-0.4-1.5-0.7c-0.5-0.3-1-0.5-1.5-0.8c-0.5-0.2-0.9-0.1-1.2,0.2c-0.6,0.7-0.9,1.5-0.6,2.4
					c0.2,0.5,0.2,1.1,0.3,1.6c0,0.2,0.1,0.4,0.3,0.5c0.4,0.3,0.5,0.6,0.5,1c-0.1,0.9,0.3,1.4,1,1.9c0.2,0.2,0.4,0.3,0.6,0.5
					c0.7,0.7,0.8,1.6,0.7,2.5c-0.1,0.6,0,1.2,0.2,1.7c0.1,0.4,0.3,0.8,0.7,1c0.3-0.4,0.5-0.7,0.7-1.1c0.1-0.2,0.2-0.3,0.5-0.2
					c0.4,0.1,0.8,0.1,1.2,0.1c0.4,0.1,0.8,0.1,1.1,0.2c0.6,0.2,1.2,0.5,1.8,0.7c0.1,0,0.1,0.1,0.1,0.1c-0.4,0-0.7,0-1.1-0.1
					c-0.9-0.3-1.8-0.6-2.8-0.9c-0.3-0.1-0.4-0.1-0.5,0.2c-0.6,1-0.7,2.2-0.7,3.4c0,0.5,0.4,0.8,0.9,0.6c0,0,0.1,0,0.1,0
					c0.5,0.1,0.7-0.1,0.7-0.6c0-0.1,0.1-0.2,0.3-0.2c0.2,0.1,0.3,0.1,0.5,0.1c0.3,0,0.6,0,0.8,0.3c-0.3,0-0.6,0-0.9,0
					c-0.2,0-0.5,0-0.6,0.3c-0.1,0.3-0.2,0.4-0.5,0.4c-0.5,0.1-0.8,0.4-1.1,0.8c-0.2,0.4-0.8,0.5-1.2,0.4c-0.7-0.2-0.7-0.2-1,0.3
					c-0.1-0.1-0.3-0.1-0.4-0.2c-0.5-0.3-1.1-0.7-1.6-0.9c-0.3-0.1-0.6-0.2-0.8-0.3c-0.3-0.1-0.4,0.1-0.4,0.3c0.1,0.5,0.2,1,0.6,1.3
					c0.1,0.1,0.2,0.3,0.3,0.5c0.1,0.6,0.1,1.2,0.1,1.8c0,0.3-0.2,0.5-0.4,0.7c0,0-0.1,0-0.1,0c-0.5-0.1-1-0.1-1.4-0.4
					c-0.3-0.2-0.4-0.2-0.5,0.2c0,0.1,0,0.1-0.1,0.3c-0.5-0.2-1-0.4-1.3-0.9c-0.1-0.2-0.3-0.4-0.4-0.4c-0.6-0.2-1.2-0.3-1.9-0.5
					c0.2,0,0.5-0.1,0.8,0c0.5,0.1,0.8-0.1,1.2-0.5c-0.1,0-0.2-0.1-0.2-0.1c-0.6,0-1.1,0-1.7-0.2c-0.2-0.1-0.4-0.1-0.7-0.1
					c-0.2,0-0.4-0.1-0.7-0.1c-0.2,0-0.4,0.1-0.5,0.1c0,0,0,0-0.1,0c0-0.1,0-0.1-0.1-0.3c-1.3,0.7-2.3,1.6-3.3,2.5
					c0-0.1-0.1-0.2-0.1-0.4c-0.2,0.5-0.4,0.9-0.5,1.3c0,0,0.1,0.1,0.1,0.1c0.1-0.1,0.2-0.2,0.4-0.4c0.1-0.1,0.1-0.2,0.1-0.2
					c0.5-0.4,1-0.9,1.5-1.3c0.1-0.1,0.3-0.1,0.4-0.2c0.1,0,0.2,0,0.3-0.1c0.4-0.3,0.7-0.6,1.1-0.9c0.2,0.3,0.3,0.5,0.4,0.7
					c0.1,0.1,0.2,0.1,0.3,0.1c0.1,0,0.3,0,0.4,0c0.2,0,0.4,0.1,0.6,0.2c0,0.1,0,0.2,0.1,0.3c0.3,0.3,0.7,0.6,1.1,0.5
					c0.6-0.1,1,0.1,1.3,0.5c0.1,0.2,0.2,0.3-0.1,0.3c-0.3,0-0.7,0-1,0c-0.1,0-0.2-0.1-0.4-0.1c-0.1,0.3-0.1,0.6-0.1,0.9
					c0,0.3,0.1,0.5,0.4,0.7c0.4,0.2,0.8,0.2,1.3,0.2c0.4,0,0.7,0.2,0.5,0.6c0,0.2-0.1,0.3-0.3,0.5c-0.3,0.4-0.6,0.8-0.7,1.4
					c-0.1,1.1,0.6,2.1,1.7,2c0.2,0,0.5-0.1,0.6,0c0.1,0.1,0.1,0.4,0.1,0.6c0.1-0.1,0.3-0.1,0.4-0.2c0.2-0.2,0.4-0.2,0.7-0.2
					c0,0.4,0,0.5-0.5,0.3c-0.1,0.3-0.4,0.3-0.7,0.3c-0.3,0.1-0.5,0.1-0.8-0.1c-0.1-0.1-0.4-0.1-0.5,0c-0.1,0.1-0.2,0.3-0.2,0.4
					c0,0.1,0.2,0.3,0.4,0.3c0.3,0.1,0.6,0.1,0.9,0.1c0.3,0,0.5,0.6,0.4,0.8c-0.3,0.5-0.2,0.7,0.1,1.1c0.5,0.5,1.2,0.6,1.8,0.8
					c0.1,0,0.4-0.1,0.4-0.2c0.1-0.3,0.3-0.3,0.6-0.3c0.1,0.2,0.3,0.4,0.3,0.6c0,0.1,0,0.2-0.1,0.3c-0.3,0.3-0.6,0.6-0.9,0.9
					c-0.2,0.1-0.2,0.3-0.1,0.5c0.1,0.2,0,0.3-0.1,0.5c-0.1,0.1-0.2,0.3-0.4,0.5c-0.2-0.2-0.4-0.3-0.6-0.6c-0.2-0.2-0.5-0.4-0.8-0.3
					c-0.5,0-1,0.1-1.4,0.1c0,0,0,0,0,0.1c0.3,0.7,0.8,1,1.5,1c0,0,0.1,0,0.1,0c0.2,0,0.4,0.2,0.2,0.4c-0.3,0.3-0.5,0.8-0.6,1.2
					c0,0.1-0.1,0.2-0.2,0.3c0.4,0,0.7-0.3,1,0.1c-0.2,0.1-0.4,0.2-0.6,0.3c-0.2,0.1-0.4,0.3-0.6,0.4c0.1,0.1,0.2,0.2,0.2,0.2
					c0.3-0.1,0.6-0.1,0.9-0.2c0.1-0.1,0.3-0.2,0.5-0.3c0.6-0.3,1.2-0.7,1.8-1c0.4-0.2,0.7-0.5,0.8-1c-0.1,0-0.1,0-0.2-0.1
					c0.1-0.1,0.1-0.1,0.1-0.1c0.6-0.4,1.3-0.7,1.8-1.1c0.7-0.6,1.5-1,2.1-1.6c0.2-0.2,0.5-0.5,0.4-0.6c-0.1-0.3,0.1-0.4,0.3-0.6
					c0.6-0.5,1.5-0.7,1.9-1.5c0.4-0.1,0.6-0.5,0.8-0.8c0.1-0.2,0.3-0.3,0.5-0.5c0,0.2,0,0.3,0,0.4c0.3,0.1,0.6,0,0.7-0.2
					c0.5-0.5,1.2-0.9,1.4-1.6c0.1-0.2,0.3-0.3,0.4-0.5c0.2-0.4,0.4-0.9,0.6-1.3c0,0,0,0,0-0.1c0-0.3,0.2-0.7,0.5-0.8
					c0.3-0.1,0.5-0.4,0.5-0.7c0-0.3-0.3-0.3-0.4-0.3c0.3-0.2,0.6-0.4,0.9-0.6c0.1-0.1,0.1-0.2,0.1-0.2c-0.3-0.3,0-0.4,0.1-0.5
					c0.5-0.5,1-1,1-1.7c0-0.2,0.1-0.3,0.2-0.5c0.4-1.7,0.6-3.4,0.6-5.2C48,19.6,46.8,15.6,44.8,12z"/>
				<path fill="#FFFFFF" d="M30.6,18.8c-0.1-0.1-0.2-0.2-0.2-0.3c0.1-0.3-0.1-0.4-0.3-0.4c-0.4-0.1-0.6-0.3-0.8-0.7
					c-0.1-0.2-0.1-0.3-0.2-0.5c-0.1-0.1-0.3-0.3-0.4-0.3c-0.1,0-0.3,0.2-0.4,0.3c-0.1,0.2-0.2,0.4-0.3,0.6c-0.1,0.3-0.3,0.6-0.4,0.9
					c-0.2,0.3-0.3,0.7-0.5,1c-0.3,0.3-0.6,0.4-1,0.1c-0.1-0.1-0.2,0-0.4-0.1c0,0.1,0,0.2,0,0.3c0,0.1,0,0.2,0,0.3c0,0,0,0-0.1,0
					c-0.1-0.1-0.1-0.2-0.2-0.3c-0.3,0.2-0.4,0-0.5-0.2c-0.2,0-0.5,0-0.6,0.1c-0.5,0.4-1,1.1-0.8,1.8c0.1,0.2,0.1,0.5,0,0.7
					c-0.2,0.8,0,1.5,0.4,2.1c0.2,0.3,1.5,1,1.9,1c0.3,0,0.6,0.1,0.8,0.3c0.1,0.1,0.2,0.1,0.3,0.1c0.2,0.1,0.4,0.2,0.6,0.2
					c0.1,0,0.3,0.1,0.4,0.1c0-0.1,0.1-0.3,0-0.4c0-0.1-0.1-0.2-0.2-0.3c-0.1-0.1-0.3-0.3-0.4-0.4c-0.2-0.2-0.1-0.5,0.1-0.6
					c0.4-0.2,0.8-0.1,1,0.4c0,0.1,0.2,0.2,0.3,0.2c0.3-0.1,0.6-0.3,0.8-0.5c0.1,0,0.1-0.2,0.1-0.3c-0.3,0-0.1-0.2-0.1-0.3
					c0-0.1,0-0.3,0-0.4c-0.1-0.3,0-0.4,0.3-0.4c0.4,0,0.5-0.2,0.4-0.6c-0.1-0.2-0.1-0.3-0.1-0.5c0-0.2,0.1-0.3,0.1-0.5
					c-0.1-0.7,0.2-1.2,0.4-1.7C30.9,19.2,30.9,19.1,30.6,18.8z"/>
			</g>
		</g>
	</g>
</g>
</svg>
