<?xml version="1.0" encoding="utf-8"?>
<!-- Generator: Adobe Illustrator 18.0.0, SVG Export Plug-In . SVG Version: 6.00 Build 0)  -->
<!DOCTYPE svg PUBLIC "-//W3C//DTD SVG 1.1//EN" "http://www.w3.org/Graphics/SVG/1.1/DTD/svg11.dtd">
<svg version="1.1" id="Layer_1" xmlns="http://www.w3.org/2000/svg" xmlns:xlink="http://www.w3.org/1999/xlink" x="0px" y="0px"
	 viewBox="0 0 512 512" enable-background="new 0 0 512 512" xml:space="preserve">
<g>
	<path fill="#40596B" d="M487.2,2H24.8C12.3,2,2.1,12.2,2.1,24.7v313.9h507.8V24.7C509.9,12.2,499.7,2,487.2,2z"/>
	<path fill="#F2F2F2" d="M2.1,338.6v49.4c0,12.5,10.2,22.7,22.7,22.7H493c9.3,0,16.9-7.6,16.9-16.9v-55.1H2.1z"/>
	<circle fill="#CDD6E0" cx="256" cy="374.6" r="15.2"/>
	<polygon fill="#CDD6E0" points="365.5,467.3 146.5,467.3 167.6,426.5 175.7,410.7 336.3,410.7 344.4,426.5 	"/>
	<path fill="#F2F2F2" d="M423.5,510H88.5v-40.7c0-1.1,0.9-2,2-2h330.9c1.1,0,2,0.9,2,2V510z"/>
	<rect x="35.9" y="33.9" fill="#FFFFFF" width="440.3" height="280.3"/>
	<polygon fill="#ACB3BA" points="344.4,426.5 167.6,426.5 175.7,410.7 336.3,410.7 	"/>
	<path fill="#FF7058" d="M317.5,52.3l-56.2,49.5h26.6c-11.4,64.2-74,113.3-149.6,113.3c18,6.9,37.9,10.7,58.7,10.7
		c78.6,0,143.1-54.4,150.7-124h26.1L317.5,52.3z"/>
	<path fill="#F2F2F2" d="M171.8,232.1v63.6h-29.3v-70.6C152.1,228.4,161.8,230.7,171.8,232.1z"/>
	<path fill="#CDD6E0" d="M217,232.8v63h-29.2v-62.1c3.1,0.2,6.1,0.2,9.2,0.2C203.7,233.9,210.4,233.6,217,232.8z"/>
	<path fill="#FFD15C" d="M262.1,221.3v74.5h-29.2v-65.5C243.1,228.1,252.8,225.1,262.1,221.3z"/>
	<path fill="#84DBFF" d="M307.3,193.7v102h-29.2v-81.9C288.7,208.2,298.5,201.4,307.3,193.7z"/>
	<path fill="#4CDBC4" d="M352.5,120.8v175h-29.3V177.5C337.1,161.2,347.3,141.9,352.5,120.8z"/>
	<polygon fill="#3F2979" points="262.1,101.8 262.1,101 261.2,101.8 	"/>
</g>
</svg>
