<?xml version="1.0" encoding="utf-8"?>
<!-- Generator: Adobe Illustrator 18.0.0, SVG Export Plug-In . SVG Version: 6.00 Build 0)  -->
<!DOCTYPE svg PUBLIC "-//W3C//DTD SVG 1.1//EN" "http://www.w3.org/Graphics/SVG/1.1/DTD/svg11.dtd">
<svg version="1.1" id="Layer_1" xmlns="http://www.w3.org/2000/svg" xmlns:xlink="http://www.w3.org/1999/xlink" x="0px" y="0px"
	 viewBox="0 0 48 48" enable-background="new 0 0 48 48" xml:space="preserve">
<g>
	<path fill="#F2F2F2" d="M32.7,0H7C5.9,0,5,0.9,5,2v44c0,1.1,0.9,2,2,2h34c1.1,0,2-0.9,2-2V10.3L32.7,0z"/>
	<path fill="#CDD6E0" d="M32.7,8.7c0,0.9,0.7,1.6,1.6,1.6H43L32.7,0V8.7z"/>
	<g>
		<rect x="22.6" y="31.1" fill="#4CDBC4" width="2.9" height="8.7"/>
		<rect x="17.1" y="28.8" fill="#FF7058" width="2.9" height="11"/>
		<rect x="11.6" y="32" fill="#84DBFF" width="2.9" height="7.8"/>
		<rect x="28" y="27.1" fill="#FFD15C" width="2.9" height="12.7"/>
		<rect x="33.5" y="22.5" fill="#CDD6E0" width="2.9" height="17.3"/>
		<polygon fill="#40596B" points="36.4,15 36.4,20.9 34.3,18.8 24.3,28.8 18.7,23.3 11.6,30.4 11.6,27 18.7,19.9 24.3,25.4 
			32.6,17.1 30.5,15 		"/>
	</g>
</g>
</svg>
