<?xml version="1.0" encoding="utf-8"?>
<!-- Generator: Adobe Illustrator 16.0.0, SVG Export Plug-In . SVG Version: 6.00 Build 0)  -->
<!DOCTYPE svg PUBLIC "-//W3C//DTD SVG 1.1//EN" "http://www.w3.org/Graphics/SVG/1.1/DTD/svg11.dtd">
<svg version="1.1" id="Layer_1" xmlns="http://www.w3.org/2000/svg" xmlns:xlink="http://www.w3.org/1999/xlink" x="0px" y="0px"
	 width="48px" height="48px" viewBox="0 0 48 48" enable-background="new 0 0 48 48" xml:space="preserve">
<g>
	<path fill="#54C0EB" d="M46.455,48H1.545l1.109-12.195c0.66-3.82,2.91-7.01,6-8.949c0.9-0.57,3.551-2.121,7.66-2.021l2.219,5.191
		c1.58,1.02,3.441,1.619,5.451,1.619h0.02h0.02c2,0,3.871-0.6,5.441-1.619l2.219-5.191c4.111-0.1,6.76,1.451,7.66,2.021
		c3.09,1.939,5.34,5.129,6,8.949L46.455,48z"/>
	<rect x="23.989" y="29.068" fill="#FFD15C" width="0.002" height="0.003"/>
	<path fill="#F8B64C" d="M33.557,24.9c-1.4,3.9-5.15,6.74-9.531,6.74h-0.02h-0.02c-4.381,0-8.131-2.84-9.529-6.74
		c0.398-0.041,0.799-0.061,1.209-0.061h1.631v-2.559c2.199,2.85,4.779,3.818,6.02,4.139c0.459,0.111,0.73,0.141,0.73,0.141
		s3.699-0.371,6.709-4.23v2.51h1.59C32.756,24.84,33.156,24.859,33.557,24.9"/>
	<path fill="#F2F2F2" d="M32.328,24.84c0.373,0,0.744,0.018,1.111,0.049C33.072,24.859,32.701,24.84,32.328,24.84"/>
	<path fill="#F2F2F2" d="M33.461,24.893c0.361,0.031,0.719,0.078,1.072,0.137C34.18,24.971,33.822,24.924,33.461,24.893"/>
	<path fill="#F2F2F2" d="M13.955,24.957c-0.16,0.031-0.33,0.061-0.49,0.092l0.01-0.021C13.635,24.998,13.795,24.979,13.955,24.957"
		/>
	<path fill="#F8B64C" d="M15.484,12.209c0.396,1.701,0.186,3.205-0.469,3.357s-1.508-1.102-1.904-2.803
		c-0.398-1.703-0.188-3.205,0.467-3.357C14.234,9.252,15.086,10.508,15.484,12.209"/>
	<path fill="#F8B64C" d="M32.539,12.209c-0.398,1.701-0.188,3.205,0.467,3.357c0.656,0.152,1.393-1.133,1.906-2.803
		c0.305-0.998,0.164-3.035-0.469-3.357C33.844,9.1,32.936,10.508,32.539,12.209"/>
	<path fill="#FFD15C" d="M33.402,17.154c-2.756,8.742-9.357,9.406-9.357,9.406s-6.602-0.664-9.357-9.406
		c0,0-1.473-4.561-0.236-8.359c0,0,0.756-6.484,9.594-6.484s9.596,6.484,9.596,6.484C34.877,12.594,33.402,17.154,33.402,17.154"/>
	<path fill="#84DBFF" d="M13.955,24.957c-0.16,0.031-0.33,0.061-0.49,0.092l0.01-0.021C13.635,24.998,13.795,24.979,13.955,24.957"
		/>
	<path fill="#F2F2F2" d="M19.844,30.736c-2.494-1.137-4.459-3.25-5.389-5.836l-3.842,5.141l6.76,4.715l-2.242,5.014L21.795,48h2.25
		L19.85,30.742L19.844,30.736z"/>
	<path fill="#F2F2F2" d="M28.248,30.736c2.494-1.137,4.459-3.25,5.387-5.836l3.844,5.141l-6.762,4.715l2.242,5.014L26.297,48h-2.252
		l4.197-17.258L28.248,30.736z"/>
	<path fill="#FF7058" d="M24.025,31.641h-0.02h-0.02c-1.475,0-2.877-0.328-4.143-0.906L24.045,48l4.201-17.266h-0.078
		C26.902,31.313,25.502,31.641,24.025,31.641"/>
	<g opacity="0.1">
		<g>
			<defs>
				<rect id="SVGID_175_" x="21.125" y="22.33" width="12.432" height="8.908"/>
			</defs>
			<clipPath id="SVGID_2_">
				<use xlink:href="#SVGID_175_"  overflow="visible"/>
			</clipPath>
			<path clip-path="url(#SVGID_2_)" fill="#40596B" d="M30.756,24.84v-2.51c-3.01,3.859-6.709,4.23-6.709,4.23
				s-0.271-0.029-0.73-0.141c-0.527-0.135-1.307-0.404-2.188-0.871l-0.004,0.008l5.682,5.682c3.135-0.908,5.658-3.297,6.75-6.338
				c-0.4-0.041-0.801-0.061-1.211-0.061H30.756z"/>
		</g>
	</g>
	<path fill="#40596B" d="M39.492,31.605c-1.164-0.275-1.379,0.734-1.379,0.734c1.697,1.654-1.611,0.369-1.611,0.369
		c-1.611-0.277-0.186,1.285-0.186,1.285c0.85,3.031-1.482,2.846-1.482,2.846c0.953-0.734-1.205-2.201-1.205-2.201
		c-2.156-1.473-0.699-3.309-0.699-3.309c1.27-0.641,0.426-1.285,0.426-1.285c-1.482-0.828-2.434,1.285-2.434,1.285
		c-1.164-0.828,0.107-2.205,0.107-2.205c0.738-0.549-0.635-1.469-0.635-1.469c-1.391-0.744-0.631-3.213,0.135-4.959
		c0.682-1.559,1.039-3.246,1.131-4.945c0.396-7.396-0.533-6.818-0.533-6.818c-2.842-1.66-3.773-4.77-3.773-4.77
		s-3.83,4.619-9.072,5.932c0,0-1.066,0.789-1.49,4.311c-0.279,2.322,0.135,4.66,1,6.834c0.668,1.68,1.158,3.744-0.092,4.416
		c0,0-1.373,0.92-0.635,1.469c0,0,1.27,1.377,0.105,2.205c0,0-0.951-2.113-2.432-1.285c0,0-0.846,0.645,0.42,1.285
		c0,0,1.457,1.836-0.697,3.309c0,0-2.156,1.467-1.205,2.201c0,0-2.33,0.186-1.484-2.846c0,0,1.43-1.563-0.182-1.285
		c0,0-3.307,1.285-1.615-0.369c0,0-0.211-1.01-1.373-0.734c0,0-3.914-0.182,0.736-5.418c0,0-1.797-1.998,0.852-3.803
		c0,0-1.271-2.352,0.209-4.375c0,0,0.318-5.322,1.906-9c0,0,1.158-10.563,11.74-8.814C34.629-1.553,35.787,9.01,35.787,9.01
		c1.588,3.678,1.906,9,1.906,9c1.48,2.023,0.211,4.375,0.211,4.375c2.646,1.805,0.844,3.803,0.844,3.803
		C43.406,31.424,39.492,31.605,39.492,31.605"/>
</g>
</svg>
