<?xml version="1.0" encoding="utf-8"?>
<!-- Generator: Adobe Illustrator 16.0.0, SVG Export Plug-In . SVG Version: 6.00 Build 0)  -->
<!DOCTYPE svg PUBLIC "-//W3C//DTD SVG 1.1//EN" "http://www.w3.org/Graphics/SVG/1.1/DTD/svg11.dtd">
<svg version="1.1" id="Layer_1" xmlns="http://www.w3.org/2000/svg" xmlns:xlink="http://www.w3.org/1999/xlink" x="0px" y="0px"
	 width="48px" height="48px" viewBox="0 0 48 48" enable-background="new 0 0 48 48" xml:space="preserve">
<g>
	<path fill="#F2F2F2" d="M41.774-0.001H6.227c-1.104,0-2,0.896-2,2v33.213h39.547V1.999C43.774,0.896,42.879-0.001,41.774-0.001"/>
	<path fill="#F1543F" d="M45.379,34.562v5.494H2.622v-5.494c0-2.223,1.824-3.854,3.842-3.854c0.528,0,1.068,0.109,1.586,0.348
		v-6.238L24,34.601l15.951-9.783v6.238C42.499,29.911,45.379,31.767,45.379,34.562"/>
	<path fill="#F1543F" d="M39.952,24.821V8.923c0-1.66-1.186-3.09-2.817-3.398c-7.317-1.381-18.952-1.381-26.269,0
		C9.233,5.833,8.049,7.261,8.049,8.921c0,4.234,0,10.213,0,15.9L24,34.601L39.952,24.821z"/>
	<path fill="#FF7058" d="M8.049,11.083c0,5.115,0,9.961,0,13.734l0,0l6.69,4.748L24,34.601l9.208-4.998l6.742-4.785V11.083H8.049z"
		/>
	<rect x="10.481" y="13.688" fill="#84DBFF" width="27.039" height="10.021"/>
	<polygon fill="#54C0EB" points="10.481,13.688 10.481,23.71 37.52,13.688 	"/>
	<path fill="#334A5E" d="M5.638,41.997v5.23c0,0.428,0.346,0.773,0.772,0.773h5.457c0.426,0,0.771-0.346,0.771-0.773v-5.23H5.638z"
		/>
	<path fill="#334A5E" d="M35.362,41.997v5.23c0,0.428,0.346,0.773,0.771,0.773h5.457c0.427,0,0.771-0.346,0.771-0.773v-5.23H35.362z
		"/>
	<path fill="#FFD15C" d="M8.629,35.21c0,1.105-0.895,2-2,2s-2-0.895-2-2s0.895-2,2-2S8.629,34.104,8.629,35.21"/>
	<path fill="#FFD15C" d="M43.372,35.21c0,1.105-0.895,2-2,2s-2-0.895-2-2s0.895-2,2-2S43.372,34.104,43.372,35.21"/>
	<path fill="#40596B" d="M33.335,30.161l-1.021,8.99H15.686l-1.021-8.99c-0.04-0.369,0.25-0.699,0.62-0.699h17.43
		C33.085,29.462,33.375,29.792,33.335,30.161"/>
	<path fill="#CDD6E0" d="M2.618,39.155v4.361c0,0.73,0.593,1.322,1.324,1.322h40.117c0.731,0,1.323-0.592,1.323-1.322v-4.361H2.618z
		"/>
	<polygon fill="#334A5E" points="30.532,37.13 30.739,35.313 17.263,35.313 17.469,37.13 	"/>
	<polygon fill="#334A5E" points="30.967,33.296 31.173,31.479 16.829,31.479 17.034,33.296 	"/>
</g>
</svg>
