<?xml version="1.0" encoding="utf-8"?>
<!-- Generator: Adobe Illustrator 18.0.0, SVG Export Plug-In . SVG Version: 6.00 Build 0)  -->
<!DOCTYPE svg PUBLIC "-//W3C//DTD SVG 1.1//EN" "http://www.w3.org/Graphics/SVG/1.1/DTD/svg11.dtd">
<svg version="1.1" id="Layer_1" xmlns="http://www.w3.org/2000/svg" xmlns:xlink="http://www.w3.org/1999/xlink" x="0px" y="0px"
	 viewBox="0 0 48 48" enable-background="new 0 0 48 48" xml:space="preserve">
<g>
	<path fill="#40596B" d="M17.2,38.6h-3.4c-0.8-0.8-1.2-1.2-2-2v-2.4h7.4v2.4C18.4,37.4,17.9,37.8,17.2,38.6z"/>
	<rect x="4.2" y="0" fill="#F2F2F2" width="22.6" height="10.5"/>
	<path fill="#40596B" d="M15.9,35.2h-0.8c-8,0-14.4-6.5-14.4-14.4V10.6h29.7v10.3C30.3,28.8,23.9,35.2,15.9,35.2z"/>
	<g>
		<rect x="20.6" y="2.8" fill="#CDD6E0" width="2" height="4.9"/>
		<rect x="8.4" y="2.8" fill="#CDD6E0" width="2" height="4.9"/>
	</g>
	<path fill="#ACB3BA" d="M31.7,48h-8.5c-5.2,0-9.4-4.2-9.4-9.4H17c0,3.5,2.8,6.3,6.3,6.3h8.5c3.5,0,6.3-2.8,6.3-6.3V34
		c0-5.2,4.2-9.4,9.4-9.4v3.1c-3.5,0-6.3,2.8-6.3,6.3v4.6C41.1,43.8,36.9,48,31.7,48z"/>
</g>
</svg>
