<?xml version="1.0" encoding="utf-8"?>
<!-- Generator: Adobe Illustrator 18.0.0, SVG Export Plug-In . SVG Version: 6.00 Build 0)  -->
<!DOCTYPE svg PUBLIC "-//W3C//DTD SVG 1.1//EN" "http://www.w3.org/Graphics/SVG/1.1/DTD/svg11.dtd">
<svg version="1.1" id="Layer_1" xmlns="http://www.w3.org/2000/svg" xmlns:xlink="http://www.w3.org/1999/xlink" x="0px" y="0px"
	 viewBox="0 0 48 48" enable-background="new 0 0 48 48" xml:space="preserve">
<g>
	<g>
		<g>
			<g>
				<g>
					<g>
						<g>
							<polygon fill="#CED6E0" points="32.3,28.2 23.9,36.6 28.1,40.8 32.3,36.6 							"/>
						</g>
						<g>
							<g>
								<path fill="#F3705A" d="M40.3,29.9c-2.8-0.5-5.7,0.4-7.7,2.5L22.2,42.7l5.3,5.3l10.3-10.3C39.8,35.6,40.8,32.8,40.3,29.9
									L40.3,29.9z"/>
							</g>
							<g>
								
									<rect x="24.5" y="40.8" transform="matrix(0.7071 -0.7071 0.7071 0.7071 -23.9292 31.2292)" fill="#415A6B" width="2.5" height="7.4"/>
							</g>
						</g>
					</g>
					<g>
						<g>
							<polygon fill="#CED6E0" points="19.5,15.7 11.4,15.7 7.2,19.9 11.2,24 							"/>
						</g>
						<g>
							<g>
								<path fill="#F3705A" d="M18.1,7.7c0.5,2.8-0.4,5.7-2.5,7.7L5.3,25.8L0,20.5l10.3-10.3C12.4,8.2,15.2,7.2,18.1,7.7L18.1,7.7z
									"/>
							</g>
							<g>
								
									<rect x="2.3" y="18.6" transform="matrix(0.7071 -0.7071 0.7071 0.7071 -14.7204 8.9973)" fill="#415A6B" width="2.5" height="7.4"/>
							</g>
						</g>
					</g>
				</g>
				<path fill="#F3F3F3" d="M47.9,0.1c-8.5-0.6-16.9,2.5-23,8.6L9.3,24.3l14.4,14.4l15.7-15.7C45.4,17,48.5,8.6,47.9,0.1z"/>
				<path fill="#F3705A" d="M44.8,15.6c2.4-4.7,3.5-10.1,3.1-15.5c-5.4-0.4-10.8,0.7-15.5,3.1L44.8,15.6z"/>
				<g>
					<circle fill="#415A6B" cx="29.1" cy="19.3" r="6.1"/>
				</g>
				<g>
					<circle fill="#8AD7F8" cx="29.1" cy="19.3" r="4.5"/>
				</g>
			</g>
		</g>
	</g>
	<g>
		<path fill="#FFD15C" d="M16.4,41.4c0.6-1,0.9-2.2,1.3-3.3c0.4-1.1,1-2.3,2-3c0.1-0.1,0.1-0.1,0.2-0.2L13,28.1
			c-0.1,0.1-0.1,0.1-0.2,0.2c-0.7,1-1.9,1.6-3,2c-1.1,0.4-2.2,0.7-3.3,1.3c-1,0.6-1.9,1.8-1.9,2.8c0.6-1,1.7-1.8,2.8-2
			c-2.3,2-0.5,3.2-3.2,5.7c1.2-0.2,2.2-1.1,3.1-2c0.9-0.9,1.9-1.9,3.1-2.2c-5,5-6.8,10.5-6.8,10.5s6.3-2.7,10.5-6.8
			c-0.3,1.2-1.3,2.1-2.2,3.1c-0.9,0.9-1.9,2-2,3.1c2.5-2.7,3.7-0.9,5.7-3.2c-0.2,1.1-1,2.2-2,2.8C14.7,43.4,15.8,42.5,16.4,41.4z"/>
	</g>
	<g>
		<path fill="#F3705A" d="M14.8,29.9c-0.6,0.2-1.2,0.5-1.5,0.6c-1.1,0.5-2.3,1-3.2,1.9c0.6-0.6,1.4-0.6,2.1-0.5
			c0.7,0.1,1.5,0.2,2.2-0.2c-2.3,1.9-4.1,4.5-5,7.2c0.7-1.2,2-2,3.2-2.7c1.2-0.7,2.5-1.2,3.6-2.2c-0.2,1.3-0.5,2.6-0.7,3.9
			c1.3-1.2,2.4-2.7,3.2-4.2L14.8,29.9z"/>
	</g>
</g>
</svg>
