<?xml version="1.0" encoding="utf-8"?>
<!-- Generator: Adobe Illustrator 18.0.0, SVG Export Plug-In . SVG Version: 6.00 Build 0)  -->
<!DOCTYPE svg PUBLIC "-//W3C//DTD SVG 1.1//EN" "http://www.w3.org/Graphics/SVG/1.1/DTD/svg11.dtd">
<svg version="1.1" id="Layer_1" xmlns="http://www.w3.org/2000/svg" xmlns:xlink="http://www.w3.org/1999/xlink" x="0px" y="0px"
	 viewBox="0 0 48 48" enable-background="new 0 0 48 48" xml:space="preserve">
<g>
	<g>
		<circle fill="#66C6B9" cx="22.8" cy="7.7" r="2.4"/>
		<g>
			<path fill="#CED6E0" d="M30,12H18c-1.2,0-2.1-1-2.1-2.1s1-2.1,2.1-2.1H30c1.2,0,2.1,1,2.1,2.1S31.2,12,30,12z"/>
		</g>
		<path fill="#E8EAE9" d="M46.2,40L30,21.3V12H18v9.3L1.8,40c-2.7,3.1-0.5,8,3.7,8c10.5,0,26.5,0,37,0C46.7,48,48.9,43.1,46.2,40z"
			/>
		<g>
			<path fill="#66C6B9" d="M30.9,27.1H17.1L4.2,42c-0.7,0.8-0.4,1.5-0.3,1.8c0.1,0.3,0.6,1,1.6,1h37c1,0,1.4-0.7,1.6-1
				c0.1-0.3,0.4-1.1-0.3-1.8L30.9,27.1z"/>
		</g>
		<circle fill="#E8EAE9" cx="15.9" cy="35.7" r="1.9"/>
		<circle fill="#E8EAE9" cx="27.6" cy="39.5" r="3.6"/>
		<circle fill="#E8EAE9" cx="24" cy="31.8" r="1.2"/>
		<circle fill="#66C6B9" cx="26.3" cy="19" r="1.3"/>
		<circle fill="#66C6B9" cx="28.5" cy="1.8" r="1.8"/>
	</g>
</g>
</svg>
