<?xml version="1.0" encoding="utf-8"?>
<!-- Generator: Adobe Illustrator 19.0.1, SVG Export Plug-In . SVG Version: 6.00 Build 0)  -->
<svg version="1.1" id="Layer_1" xmlns="http://www.w3.org/2000/svg" xmlns:xlink="http://www.w3.org/1999/xlink" x="0px" y="0px"
	 viewBox="0 0 48 48" style="enable-background:new 0 0 48 48;" xml:space="preserve">
<style type="text/css">
	.st0{fill:#66C6B9;}
	.st1{fill:#FFFFFF;}
	.st2{fill:#CED6E0;}
	.st3{fill:#344A5E;}
	.st4{fill:#F3705A;}
	.st5{fill:#F05540;}
	.st6{fill:#FFD15C;}
	.st7{fill:#F7B64C;}
	.st8{fill:#415A6B;}
</style>
<g>
	<g>
		<g>
			<g>
				<path class="st0" d="M36.7,1.2H2c-1.1,0-2,0.9-2,2V46c0,1.1,0.9,2,2,2h34.7c1.1,0,2-0.9,2-2V3.2C38.7,2.1,37.8,1.2,36.7,1.2z"/>
				<rect x="4.1" y="5.3" class="st1" width="30.6" height="38.6"/>
			</g>
			<rect x="18.3" y="29.6" class="st2" width="12.3" height="3"/>
			<rect x="18.3" y="36.8" class="st2" width="12.3" height="3"/>
			<g>
				<path class="st3" d="M26.7,0.8v7c0,0.5-0.4,0.8-0.8,0.8h-13c-0.4,0-0.8-0.4-0.8-0.8v-7c0-0.5,0.4-0.8,0.8-0.8h13
					C26.3,0,26.7,0.4,26.7,0.8z"/>
			</g>
			<g>
				<g>
					<path class="st2" d="M11,34.2c-0.3,0-0.5-0.1-0.7-0.3l-1.8-1.8c-0.4-0.4-0.4-1,0-1.4s1-0.4,1.4,0l1.1,1.1l3.6-3.6
						c0.4-0.4,1-0.4,1.4,0s0.4,1,0,1.4l-4.3,4.3C11.5,34.1,11.3,34.2,11,34.2z"/>
				</g>
			</g>
			<g>
				<g>
					<path class="st2" d="M11,41.4c-0.3,0-0.5-0.1-0.7-0.3l-1.8-1.8c-0.4-0.4-0.4-1,0-1.4s1-0.4,1.4,0L11,39l3.6-3.6
						c0.4-0.4,1-0.4,1.4,0s0.4,1,0,1.4l-4.3,4.3C11.5,41.3,11.3,41.4,11,41.4z"/>
				</g>
			</g>
			<g>
				<g>
					<g>
						<path class="st4" d="M16.9,18.5v-1.4l-1.3-0.3c-0.1-0.2-0.2-0.4-0.3-0.6l0.7-1.1l-1-1l-1,0.7c-0.2-0.1-0.4-0.2-0.6-0.3
							l-0.3-1.3h-1.4l-0.3,1.3c-0.2,0.1-0.4,0.2-0.6,0.3l-1.1-0.7l-1,1l0.7,1.1c-0.1,0.2-0.2,0.4-0.3,0.6l-1.3,0.3v1.4l1.3,0.3
							c0.1,0.2,0.2,0.4,0.3,0.6l-0.7,1.1l1,1l1.1-0.7c0.2,0.1,0.4,0.2,0.6,0.3l0.3,1.3h1.4l0.3-1.3c0.2-0.1,0.4-0.2,0.6-0.3l1.1,0.7
							l1-1l-0.7-1.1c0.1-0.2,0.2-0.4,0.3-0.6L16.9,18.5z M12.4,18.7c-0.5,0-0.9-0.4-0.9-0.9s0.4-0.9,0.9-0.9s0.9,0.4,0.9,0.9
							C13.3,18.3,12.9,18.7,12.4,18.7z"/>
					</g>
					<g>
						<path class="st5" d="M12.4,15.6c-1.2,0-2.1,1-2.1,2.1s1,2.1,2.1,2.1s2.1-1,2.1-2.1S13.5,15.6,12.4,15.6z M12.4,18.7
							c-0.5,0-0.9-0.4-0.9-0.9s0.4-0.9,0.9-0.9s0.9,0.4,0.9,0.9C13.3,18.3,12.9,18.7,12.4,18.7z"/>
					</g>
				</g>
				<g>
					<g>
						<path class="st6" d="M30.1,21.6l0.9-2.1l-1.8-1.2c0-0.4,0-0.7,0-1.1L31,16l-0.9-2.1L28,14.4c-0.2-0.3-0.5-0.5-0.8-0.8l0.4-2.1
							l-2.1-0.9l-1.2,1.8c-0.4,0-0.7,0-1.1,0L22,10.6l-2,0.9l0.4,2.1c-0.3,0.2-0.5,0.5-0.8,0.8L17.5,14l-0.9,2.1l1.8,1.2
							c0,0.4,0,0.7,0,1.1l-1.8,1.2l0.9,2.1l2.1-0.4c0.2,0.3,0.5,0.5,0.8,0.8l-0.4,2l2.1,0.9l1.2-1.8c0.4,0,0.7,0,1.1,0l1.2,1.8
							l2.1-0.9L27.2,22c0.3-0.2,0.5-0.5,0.8-0.8L30.1,21.6z M23.3,19.1c-0.7-0.3-1.1-1.1-0.8-1.9s1.1-1.1,1.9-0.8
							c0.7,0.3,1.1,1.1,0.8,1.9S24,19.4,23.3,19.1z"/>
					</g>
					<g>
						<path class="st7" d="M25.1,14.6c-1.8-0.7-3.8,0.1-4.5,1.9s0.1,3.8,1.9,4.5s3.8-0.1,4.5-1.9C27.7,17.3,26.9,15.3,25.1,14.6z
							 M23.3,19.1c-0.7-0.3-1.1-1.1-0.8-1.9c0.3-0.7,1.1-1.1,1.9-0.8c0.7,0.3,1.1,1.1,0.8,1.9C24.8,19.1,24,19.4,23.3,19.1z"/>
					</g>
				</g>
			</g>
		</g>
		<g>
			<path class="st3" d="M20,20c-5,5-5,13,0,18s13,5,18,0s5-13,0-18C33.1,15.1,25,15.1,20,20z M35.4,35.4c-3.5,3.5-9.2,3.5-12.7,0
				s-3.5-9.2,0-12.7s9.2-3.5,12.7,0S38.9,31.9,35.4,35.4z"/>
			<g>
				<path class="st8" d="M41.1,36.7c0,0.2-0.1,0.5-0.3,0.7l-3.4,3.4c-0.4,0.4-1,0.4-1.4,0c-0.2-0.2-0.3-0.4-0.3-0.7
					c0-0.2,0.1-0.5,0.3-0.7l3.4-3.4c0.4-0.4,1-0.4,1.4,0C41,36.2,41.1,36.4,41.1,36.7z"/>
			</g>
			<g>
				<path class="st4" d="M41.7,46.4c-0.8-2.5-4.5-2.8-4.3-5.6l3.4-3.4c2.8-0.2,3,3.5,5.6,4.3c1.2,0.4,1.9,1.6,1.5,2.9
					c-0.5,1.4-1.8,2.8-3.3,3.3C43.3,48.3,42.1,47.6,41.7,46.4z"/>
			</g>
		</g>
	</g>
</g>
</svg>
