<?xml version="1.0" encoding="utf-8"?>
<!-- Generator: Adobe Illustrator 18.0.0, SVG Export Plug-In . SVG Version: 6.00 Build 0)  -->
<!DOCTYPE svg PUBLIC "-//W3C//DTD SVG 1.1//EN" "http://www.w3.org/Graphics/SVG/1.1/DTD/svg11.dtd">
<svg version="1.1" id="Layer_1" xmlns="http://www.w3.org/2000/svg" xmlns:xlink="http://www.w3.org/1999/xlink" x="0px" y="0px"
	 viewBox="0 0 48 48" enable-background="new 0 0 48 48" xml:space="preserve">
<g>
	<path fill="#40596B" d="M44,48H4c-2.2,0-4-1.8-4-4V4c0-2.2,1.8-4,4-4h40c2.2,0,4,1.8,4,4v40C48,46.2,46.2,48,44,48z"/>
	<path fill="#F2F2F2" d="M41.1,12.3H6.9c-1,0-1.9-0.8-1.9-1.9v0c0-1,0.8-1.9,1.9-1.9h34.3c1,0,1.9,0.8,1.9,1.9v0
		C43,11.5,42.2,12.3,41.1,12.3z"/>
	<path fill="#F2F2F2" d="M41.1,25.9H6.9C5.8,25.9,5,25,5,24v0c0-1,0.8-1.9,1.9-1.9h34.3c1,0,1.9,0.8,1.9,1.9v0
		C43,25,42.2,25.9,41.1,25.9z"/>
	<path fill="#F2F2F2" d="M41.1,39.5H6.9c-1,0-1.9-0.8-1.9-1.9v0c0-1,0.8-1.9,1.9-1.9h34.3c1,0,1.9,0.8,1.9,1.9v0
		C43,38.6,42.2,39.5,41.1,39.5z"/>
	<path fill="#F2F2F2" d="M43,10.4c0,1-0.8,1.9-1.9,1.9H6.9c-1,0-1.9-0.8-1.9-1.9c0-1.1,0.9-1.9,1.9-1.9h34.3
		C42.2,8.5,43,9.4,43,10.4z"/>
	<path fill="#F2F2F2" d="M43,24c0,1-0.8,1.9-1.9,1.9H6.9C5.8,25.9,5,25,5,24c0-1,0.9-1.9,1.9-1.9h34.3C42.2,22.1,43,23,43,24z"/>
	<path fill="#F2F2F2" d="M43,37.6c0,1-0.8,1.9-1.9,1.9H6.9c-1,0-1.9-0.8-1.9-1.9s0.9-1.9,1.9-1.9h34.3C42.2,35.7,43,36.5,43,37.6z"
		/>
	<circle fill="#FFD15C" cx="16.2" cy="10.4" r="5"/>
	<circle fill="#F8B64C" cx="14.2" cy="8.4" r="1.5"/>
	<circle fill="#FFD15C" cx="33.4" cy="24" r="5"/>
	<circle fill="#FFD15C" cx="25.8" cy="37.6" r="5"/>
	<path fill="#E4EAEF" d="M31.8,38.6c0,0.3,0,0.6-0.1,0.9h-1.3c0.2-0.6,0.4-1.2,0.4-1.9s-0.1-1.3-0.4-1.9h0.4
		C31.5,36.5,31.8,37.5,31.8,38.6z"/>
	<path fill="#E4EAEF" d="M39.5,25c0,0.3,0,0.6-0.1,0.9h-1.3c0.2-0.6,0.4-1.2,0.4-1.9c0-0.7-0.1-1.3-0.4-1.9h0.5
		C39.1,22.9,39.5,23.9,39.5,25z"/>
	<path fill="#E4EAEF" d="M22.2,11.4c0,0.3,0,0.6-0.1,0.9h-1.3c0.2-0.6,0.4-1.2,0.4-1.9c0-0.7-0.1-1.3-0.4-1.9h0.4
		C21.8,9.4,22.2,10.4,22.2,11.4z"/>
	<circle fill="#F8B64C" cx="31.4" cy="22" r="1.5"/>
	<circle fill="#F8B64C" cx="23.8" cy="35.6" r="1.5"/>
</g>
</svg>
