<?xml version="1.0" encoding="utf-8"?>
<!-- Generator: Adobe Illustrator 18.0.0, SVG Export Plug-In . SVG Version: 6.00 Build 0)  -->
<!DOCTYPE svg PUBLIC "-//W3C//DTD SVG 1.1//EN" "http://www.w3.org/Graphics/SVG/1.1/DTD/svg11.dtd">
<svg version="1.1" id="Layer_1" xmlns="http://www.w3.org/2000/svg" xmlns:xlink="http://www.w3.org/1999/xlink" x="0px" y="0px"
	 viewBox="0 0 48 48" enable-background="new 0 0 48 48" xml:space="preserve">
<g>
	<path fill="#FF7058" d="M43.6,40.9c-0.9-2.1-1.3-4.5-1.4-6.8c0-1.5-0.1-3.1-0.3-4.9c-0.8-9.3-8.6-16.5-18-16.5h0
		c-9.4,0-17.2,7.1-18,16.5c-0.1,1.8-0.2,3.4-0.3,4.9c0,2.3-0.5,4.7-1.4,6.8c-0.6,1.4-0.9,3-0.9,4.6c0,1.4,1.1,2.5,2.5,2.5h0
		c0.8,0,35.3,0,36.2,0h0c1.4,0,2.5-1.1,2.5-2.5C44.5,43.9,44.2,42.4,43.6,40.9z"/>
	<path fill="#FF7058" d="M34,0c-4.5,0-8.4,2.7-10,6.6C22.3,2.7,18.5,0,14,0h0c-1.2,0-2.2,1-2.2,2.2v0c0,6,4.9,10.9,10.9,10.9h0.5
		h1.8h0.5c6,0,10.9-4.9,10.9-10.9v0C36.3,1,35.3,0,34,0L34,0z"/>
	<path fill="#FFD15C" d="M32.1,12.6H15.9c-0.7,0-1.2-0.5-1.2-1.2v0c0-0.7,0.5-1.2,1.2-1.2h16.3c0.7,0,1.2,0.5,1.2,1.2v0
		C33.4,12,32.8,12.6,32.1,12.6z"/>
	<path fill="#F8B64C" d="M32.1,15H15.9c-0.7,0-1.2-0.5-1.2-1.2v0c0-0.7,0.5-1.2,1.2-1.2h16.3c0.7,0,1.2,0.5,1.2,1.2v0
		C33.4,14.5,32.8,15,32.1,15z"/>
	<path fill="#F8B64C" d="M30.9,18.4l-3.7-3.7c-0.5-0.5-0.5-1.2,0-1.7l0,0c0.5-0.5,1.2-0.5,1.7,0l3.7,3.7c0.5,0.5,0.5,1.2,0,1.7l0,0
		C32.2,18.9,31.4,18.9,30.9,18.4z"/>
	<path fill="#F8B64C" d="M23.9,19.9l5.2-5.2c0.5-0.5,0.5-1.2,0-1.7l0,0c-0.5-0.5-1.2-0.5-1.7,0l-5.2,5.2c-0.5,0.5-0.5,1.2,0,1.7l0,0
		C22.7,20.4,23.5,20.4,23.9,19.9z"/>
	<path fill="#FFFFFF" d="M34.1,35.9c-0.1-0.4-0.5-0.6-0.8-0.5l-2.9,0.8l-1.7-1v-3.8l1.7-1l2.9,0.8c0.1,0,0.1,0,0.2,0
		c0.3,0,0.6-0.2,0.7-0.5c0.1-0.4-0.1-0.8-0.5-0.8L32,29.5l1.5-0.9c0.3-0.2,0.4-0.6,0.3-0.9c-0.2-0.3-0.6-0.4-0.9-0.3l-1.5,0.9
		l0.4-1.6c0.1-0.4-0.1-0.8-0.5-0.8c-0.4-0.1-0.8,0.1-0.8,0.5l-0.8,2.9l-1.7,1l-3.3-1.9v-1.9l2.1-2.1c0.3-0.3,0.3-0.7,0-1
		c-0.3-0.3-0.7-0.3-1,0l-1.2,1.2v-1.8c0-0.4-0.3-0.7-0.7-0.7s-0.7,0.3-0.7,0.7v1.8l-1.2-1.2c-0.3-0.3-0.7-0.3-1,0
		c-0.3,0.3-0.3,0.7,0,1l2.1,2.1v1.9L20,30.3l-1.7-1l-0.8-2.9c-0.1-0.4-0.5-0.6-0.8-0.5c-0.4,0.1-0.6,0.5-0.5,0.8l0.4,1.6l-1.5-0.9
		c-0.3-0.2-0.8-0.1-0.9,0.3c-0.2,0.3-0.1,0.8,0.3,0.9l1.5,0.9l-1.6,0.4c-0.4,0.1-0.6,0.5-0.5,0.8c0.1,0.3,0.4,0.5,0.7,0.5
		c0.1,0,0.1,0,0.2,0l2.9-0.8l1.7,1v3.8l-1.7,1l-2.9-0.8c-0.4-0.1-0.8,0.1-0.8,0.5c-0.1,0.4,0.1,0.8,0.5,0.8l1.6,0.4l-1.5,0.9
		c-0.3,0.2-0.4,0.6-0.3,0.9c0.1,0.2,0.4,0.3,0.6,0.3c0.1,0,0.2,0,0.3-0.1l1.5-0.9L16.2,40c-0.1,0.4,0.1,0.8,0.5,0.8
		c0.1,0,0.1,0,0.2,0c0.3,0,0.6-0.2,0.7-0.5l0.8-2.9l1.7-1l3.3,1.9v1.9l-2.1,2.1c-0.3,0.3-0.3,0.7,0,1c0.3,0.3,0.7,0.3,1,0l1.2-1.2
		V44c0,0.4,0.3,0.7,0.7,0.7s0.7-0.3,0.7-0.7v-1.8l1.2,1.2c0.1,0.1,0.3,0.2,0.5,0.2s0.4-0.1,0.5-0.2c0.3-0.3,0.3-0.7,0-1l-2.1-2.1
		v-1.9l3.3-1.9l1.7,1l0.8,2.9c0.1,0.3,0.4,0.5,0.7,0.5c0.1,0,0.1,0,0.2,0c0.4-0.1,0.6-0.5,0.5-0.8l-0.4-1.6l1.5,0.9
		c0.1,0.1,0.2,0.1,0.3,0.1c0.2,0,0.5-0.1,0.6-0.3c0.2-0.3,0.1-0.8-0.3-0.9L32,37.2l1.6-0.4C34,36.7,34.2,36.3,34.1,35.9z M24.7,36.8
		L24.7,36.8L24,37.2l-2.6-1.5l0,0l-0.7-0.4v-0.8v-2.2v-0.8l0.7-0.4l0,0l2.6-1.5l0.7,0.4l0,0l2.6,1.5v0.8v2.2v0.8l-0.7,0.4h0
		L24.7,36.8z"/>
</g>
</svg>
