<?xml version="1.0" encoding="utf-8"?>
<!-- Generator: Adobe Illustrator 18.0.0, SVG Export Plug-In . SVG Version: 6.00 Build 0)  -->
<!DOCTYPE svg PUBLIC "-//W3C//DTD SVG 1.1//EN" "http://www.w3.org/Graphics/SVG/1.1/DTD/svg11.dtd">
<svg version="1.1" id="Layer_1" xmlns="http://www.w3.org/2000/svg" xmlns:xlink="http://www.w3.org/1999/xlink" x="0px" y="0px"
	 viewBox="0 0 512 512" enable-background="new 0 0 512 512" xml:space="preserve">
<g>
	<path fill="#41596B" d="M335.8,2.3H176.2c-28,0-50.8,22.8-50.8,50.8v45.2h33.9V53.1c0-9.3,7.6-16.9,16.9-16.9h159.6
		c9.3,0,16.9,7.6,16.9,16.9v45.2h33.9V53.1C386.6,25.1,363.8,2.3,335.8,2.3z"/>
	<path fill="#F05540" d="M266.7,336.1c-94.5,0-184.2-7.3-264.7-20.4v172.8c0,11.7,9.5,21.2,21.2,21.2h465.7
		c11.7,0,21.2-9.5,21.2-21.2V319.1C435.1,330,353,336.1,266.7,336.1z"/>
	<path fill="#F2705B" d="M488.8,98.3H23.2C11.5,98.3,2,107.7,2,119.4v196.3c80.5,13.1,170.2,20.4,264.7,20.4
		c86.2,0,168.4-6.1,243.3-17V119.4C510,107.7,500.5,98.3,488.8,98.3z"/>
	<path fill="#E44C3B" d="M510,324.7V336c-74.9,11-157,17-243.3,17c-94.5,0-184.2-7.3-264.7-20.4v-11.3
		c80.5,13.1,170.2,20.4,264.7,20.4C353,341.8,435.1,335.7,510,324.7z"/>
	<rect x="125.4" y="90.1" fill="#334A5E" width="33.9" height="8.1"/>
	<rect x="352.7" y="90.1" fill="#334A5E" width="33.9" height="8.1"/>
	<path fill="#F2F2F2" d="M510,319.1v11.3c-74.9,10.9-157,17-243.3,17c-94.5,0-184.2-7.3-264.7-20.4v-11.3
		c80.5,13.1,170.2,20.4,264.7,20.4C353,336.1,435.1,330,510,319.1z"/>
	<path fill="#DB4736" d="M262.3,298.4h-12.6c-13.6,0-24.7,11-24.7,24.7v37.4c0,13.6,11,24.7,24.7,24.7h12.6
		c13.6,0,24.7-11,24.7-24.7v-37.4C287,309.5,275.9,298.4,262.3,298.4z"/>
	<path fill="#FFD05C" d="M260.5,292.8h-8.9c-14.6,0-26.5,11.9-26.5,26.5V353c0,14.6,11.9,26.5,26.5,26.5h8.9
		c14.6,0,26.5-11.9,26.5-26.5v-33.7C287,304.6,275.1,292.8,260.5,292.8z"/>
</g>
</svg>
