<?xml version="1.0" encoding="utf-8"?>
<!-- Generator: Adobe Illustrator 20.1.0, SVG Export Plug-In . SVG Version: 6.00 Build 0)  -->
<!DOCTYPE svg PUBLIC "-//W3C//DTD SVG 1.1//EN" "http://www.w3.org/Graphics/SVG/1.1/DTD/svg11.dtd">
<svg version="1.1" id="Layer_1" xmlns="http://www.w3.org/2000/svg" xmlns:xlink="http://www.w3.org/1999/xlink" x="0px" y="0px"
	 viewBox="0 0 49 49" enable-background="new 0 0 49 49" xml:space="preserve">
<g>
	<path fill="#CDD6E0" d="M31.3,46.2L31.3,46.2c-2,0-3.8-1.4-4.3-3.3c-1.6-6.1-1.1-13.7-1.1-13.7h-1.4h-1.4c0,0,0.5,7.6-1.1,13.7
		c-0.5,2-2.3,3.3-4.3,3.3h0c-1.3,0-2.3,1-2.3,2.3h18.2C33.6,47.2,32.6,46.2,31.3,46.2z"/>
	<path fill="#F2F2F2" d="M12,0.5C9.7,5.2,8.4,10.8,8.4,15.9c0,11.9,7.2,16.9,16.1,16.9c8.9,0,16.1-5.1,16.1-16.9
		c0-5.2-1.4-10.7-3.6-15.4H12z"/>
	<path fill="#84DBFF" d="M10.4,10.8c-0.3,1.7-0.4,3.4-0.4,5.1c0,9.8,5.3,15.4,14.6,15.4c9.3,0,14.6-5.6,14.6-15.4
		c0-1.6-0.2-3.4-0.4-5.1H10.4z"/>
	<path fill="#54C0EB" d="M24.5,28.3c0,0-0.3,0-0.8,0.1c-0.3,0-5,0.4-8.3-3.1c0,0-1.3-1.5-1.8-3.2c-0.9-2.7-0.6-6.2-0.6-6.2
		s0.4,3.1,1.4,5.9c0.7,1.8,1.8,2.9,1.8,2.9C19.9,28.5,24.5,28.3,24.5,28.3z"/>
</g>
</svg>
