<?xml version="1.0" encoding="utf-8"?>
<!-- Generator: Adobe Illustrator 18.0.0, SVG Export Plug-In . SVG Version: 6.00 Build 0)  -->
<!DOCTYPE svg PUBLIC "-//W3C//DTD SVG 1.1//EN" "http://www.w3.org/Graphics/SVG/1.1/DTD/svg11.dtd">
<svg version="1.1" id="Layer_1" xmlns="http://www.w3.org/2000/svg" xmlns:xlink="http://www.w3.org/1999/xlink" x="0px" y="0px"
	 viewBox="0 0 48 48" enable-background="new 0 0 48 48" xml:space="preserve">
<g>
	<g>
		<path fill="#F3705A" d="M37.2,24.2V31h-2v-5.8H12.8V31h-2v-6.8c0-0.6,0.4-1,1-1H23v-6.4h2v6.4h11.2C36.8,23.2,37.2,23.6,37.2,24.2
			z"/>
		<path fill="#415A6B" d="M32.4,0H15.6c-1.1,0-2,0.9-2,2v12.8c0,1.1,0.9,2,2,2h16.8c1.1,0,2-0.9,2-2V2C34.4,0.9,33.5,0,32.4,0z"/>
		<rect x="15.6" y="2" fill="#8AD7F8" width="16.8" height="11.1"/>
		<path fill="#CED6E0" d="M12.2,14.8c0,1.6,1.3,2.9,2.9,2.9h17.8c1.6,0,2.9-1.3,2.9-2.9H12.2z"/>
		<path fill="#415A6B" d="M20.2,30.3H3.4c-1.1,0-2,0.9-2,2v12.8c0,1.1,0.9,2,2,2h16.8c1.1,0,2-0.9,2-2V32.3
			C22.2,31.2,21.3,30.3,20.2,30.3z"/>
		<rect x="3.4" y="32.3" fill="#8AD7F8" width="16.8" height="11.1"/>
		<path fill="#CED6E0" d="M0,45.1C0,46.7,1.3,48,2.9,48h17.8c1.6,0,2.9-1.3,2.9-2.9H0z"/>
		<path fill="#415A6B" d="M44.6,30.3H27.8c-1.1,0-2,0.9-2,2v12.8c0,1.1,0.9,2,2,2h16.8c1.1,0,2-0.9,2-2V32.3
			C46.6,31.2,45.7,30.3,44.6,30.3z"/>
		<rect x="27.8" y="32.3" fill="#8AD7F8" width="16.8" height="11.1"/>
		<path fill="#CED6E0" d="M24.4,45.1c0,1.6,1.3,2.9,2.9,2.9h17.8c1.6,0,2.9-1.3,2.9-2.9H24.4z"/>
		<polygon fill="#ADB3BA" points="14.3,46.3 9.3,46.3 8.7,45.1 14.9,45.1 		"/>
		<polygon fill="#ADB3BA" points="26.5,16 21.5,16 20.9,14.8 27.1,14.8 		"/>
		<polygon fill="#ADB3BA" points="38.7,46.3 33.7,46.3 33.1,45.1 39.3,45.1 		"/>
	</g>
</g>
</svg>
