<?xml version="1.0" encoding="utf-8"?>
<!-- Generator: Adobe Illustrator 18.0.0, SVG Export Plug-In . SVG Version: 6.00 Build 0)  -->
<!DOCTYPE svg PUBLIC "-//W3C//DTD SVG 1.1//EN" "http://www.w3.org/Graphics/SVG/1.1/DTD/svg11.dtd">
<svg version="1.1" id="Layer_1" xmlns="http://www.w3.org/2000/svg" xmlns:xlink="http://www.w3.org/1999/xlink" x="0px" y="0px"
	 viewBox="0 0 48 48" enable-background="new 0 0 48 48" xml:space="preserve">
<g>
	<g>
		<g>
			<g>
				<g>
					<g>
						<path fill="#F05540" d="M34.2,29C39.3,21.9,48,21.6,48,12.6c0-3.9-3.2-7.1-7.1-7.1c-3.1,0-5.7,2-6.7,4.7
							c-1-2.8-3.6-4.7-6.7-4.7c-3.9,0-7.1,3.2-7.1,7.1C20.4,21.8,29.1,22,34.2,29z"/>
					</g>
				</g>
			</g>
		</g>
		<g>
			<g>
				<g>
					<g>
						<path fill="#F3705A" d="M15.8,42.5c5.9-8.1,15.8-8.5,15.8-18.8c0-4.5-3.6-8.1-8.1-8.1c-3.5,0-6.5,2.3-7.7,5.4
							c-1.1-3.1-4.1-5.4-7.7-5.4c-4.5,0-8.1,3.6-8.1,8.1C0,34.3,10,34.5,15.8,42.5z"/>
					</g>
					<g>
						<path fill="#FFFFFF" d="M27.1,19.6c1.1,1,1.6,2.2,1.1,2.8c-0.5,0.6-1.8,0.2-2.9-0.8c-1.1-1-1.6-2.2-1.1-2.8
							C24.7,18.3,26,18.6,27.1,19.6z"/>
					</g>
				</g>
			</g>
		</g>
	</g>
</g>
</svg>
