<?xml version="1.0" encoding="utf-8"?>
<!-- Generator: Adobe Illustrator 18.0.0, SVG Export Plug-In . SVG Version: 6.00 Build 0)  -->
<!DOCTYPE svg PUBLIC "-//W3C//DTD SVG 1.1//EN" "http://www.w3.org/Graphics/SVG/1.1/DTD/svg11.dtd">
<svg version="1.1" id="Layer_1" xmlns="http://www.w3.org/2000/svg" xmlns:xlink="http://www.w3.org/1999/xlink" x="0px" y="0px"
	 viewBox="0 0 48 48" enable-background="new 0 0 48 48" xml:space="preserve">
<g>
	<g>
		<g>
			<path fill="#F3F3F3" d="M28.2,8.5L12.1,24.6C6,30.7,1.8,38.5,0,47c-0.1,0.6,0.4,1.2,1,1c8.5-1.8,16.2-5.9,22.4-12.1l16.1-16.1
				L28.2,8.5z"/>
			<g>
				<path fill="#66C6B9" d="M32.2,23.7L21.7,34.2C16.5,39.4,10.1,43.1,3,45c1.9-7.1,5.6-13.5,10.8-18.7l2.6-2.6L32.2,23.7z"/>
			</g>
		</g>
		<g>
			<circle fill="#F3705A" cx="39.6" cy="8.4" r="8.4"/>
		</g>
		<path fill="#415A6B" d="M42.8,18.1L29.9,5.2c-1.3-1.3-3.4-1.3-4.7,0c-1.3,1.3-1.3,3.4,0,4.7l12.8,12.8c1.3,1.3,3.4,1.3,4.7,0
			C44.1,21.4,44.1,19.4,42.8,18.1z"/>
	</g>
</g>
</svg>
