<?xml version="1.0" encoding="utf-8"?>
<!-- Generator: Adobe Illustrator 20.1.0, SVG Export Plug-In . SVG Version: 6.00 Build 0)  -->
<!DOCTYPE svg PUBLIC "-//W3C//DTD SVG 1.1//EN" "http://www.w3.org/Graphics/SVG/1.1/DTD/svg11.dtd">
<svg version="1.1" id="Layer_1" xmlns="http://www.w3.org/2000/svg" xmlns:xlink="http://www.w3.org/1999/xlink" x="0px" y="0px"
	 viewBox="0 0 49 49" enable-background="new 0 0 49 49" xml:space="preserve">
<g>
	<rect x="3.2" y="21.8" fill="#F2F2F2" width="42.7" height="26.7"/>
	<path fill="#FF7058" d="M46.5,15.6h-44c-1.1,0-2,0.9-2,2v4.2h48v-4.2C48.5,16.5,47.6,15.6,46.5,15.6z"/>
	<polygon fill="#F2F2F2" points="24.5,2 13.1,10.6 13.1,21.8 35.9,21.8 35.9,10.6 	"/>
	<g>
		<path fill="#FF7058" d="M37.4,13.3c-0.3,0-0.6-0.1-0.9-0.3l-12-9.1l-12,9.1c-0.7,0.5-1.6,0.4-2.1-0.3c-0.5-0.7-0.4-1.6,0.3-2.1
			l12.9-9.8c0.5-0.4,1.3-0.4,1.8,0l12.9,9.8c0.7,0.5,0.8,1.4,0.3,2.1C38.3,13.1,37.8,13.3,37.4,13.3z"/>
	</g>
	<rect x="14.1" y="23.5" fill="#40596B" width="20.8" height="23.3"/>
	<g>
		<g>
			<rect x="32.9" y="26.3" fill="#CDD6E0" width="3.4" height="17.7"/>
			<rect x="31.7" y="23.5" fill="#ACB3BA" width="5.9" height="2.8"/>
			<rect x="31.7" y="44" fill="#ACB3BA" width="5.9" height="2.8"/>
		</g>
		<g>
			<rect x="22.8" y="26.3" fill="#CDD6E0" width="3.4" height="17.7"/>
			<rect x="21.6" y="23.5" fill="#ACB3BA" width="5.9" height="2.8"/>
			<rect x="21.6" y="44" fill="#ACB3BA" width="5.9" height="2.8"/>
		</g>
		<g>
			<rect x="12.7" y="26.3" fill="#CDD6E0" width="3.4" height="17.7"/>
			<rect x="11.5" y="23.5" fill="#ACB3BA" width="5.9" height="2.8"/>
			<rect x="11.5" y="44" fill="#ACB3BA" width="5.9" height="2.8"/>
		</g>
	</g>
	<g>
		<rect x="16.7" y="13.1" fill="#54C0EB" width="5.1" height="5.1"/>
		<rect x="27.2" y="13.1" fill="#54C0EB" width="5.1" height="5.1"/>
	</g>
	<g>
		<rect x="39.3" y="27.7" fill="#54C0EB" width="5.1" height="5.1"/>
		<rect x="39.3" y="37.5" fill="#54C0EB" width="5.1" height="5.1"/>
	</g>
	<g>
		<rect x="4.6" y="27.7" fill="#54C0EB" width="5.1" height="5.1"/>
		<rect x="4.6" y="37.5" fill="#54C0EB" width="5.1" height="5.1"/>
	</g>
</g>
</svg>
