<?xml version="1.0" encoding="utf-8"?>
<!-- Generator: Adobe Illustrator 18.0.0, SVG Export Plug-In . SVG Version: 6.00 Build 0)  -->
<!DOCTYPE svg PUBLIC "-//W3C//DTD SVG 1.1//EN" "http://www.w3.org/Graphics/SVG/1.1/DTD/svg11.dtd">
<svg version="1.1" id="Layer_1" xmlns="http://www.w3.org/2000/svg" xmlns:xlink="http://www.w3.org/1999/xlink" x="0px" y="0px"
	 viewBox="0 0 48 48" enable-background="new 0 0 48 48" xml:space="preserve">
<g>
	
		<rect x="30.8" y="32.1" transform="matrix(0.7071 -0.7071 0.7071 0.7071 -13.9674 33.7203)" fill="#ACB3BA" width="5.9" height="3.3"/>
	<path fill="#FFD15C" d="M46.6,46.6L46.6,46.6c-2,2-5.4,1.9-7.2-0.3l-7.2-8.7l5.4-5.4l8.7,7.2C48.4,41.2,48.6,44.5,46.6,46.6z"/>
	<path fill="#F8B64C" d="M39,33.2L33.2,39c-0.6,0.6-1.5,0.6-2,0L31,38.8c-0.6-0.6-0.6-1.5,0-2l5.8-5.8c0.6-0.6,1.5-0.6,2,0l0.2,0.2
		C39.6,31.7,39.6,32.7,39,33.2z"/>
	<circle fill="#40596B" cx="19.4" cy="19.4" r="19.4"/>
	<circle fill="#84DBFF" cx="19.4" cy="19.4" r="14.4"/>
	<g>
		<path fill="#FFFFFF" d="M8.9,20.9c-0.8,0-1.5-0.7-1.5-1.5c0-6.6,5.3-11.9,11.9-11.9c0.8,0,1.5,0.7,1.5,1.5s-0.7,1.5-1.5,1.5
			c-4.9,0-8.9,4-8.9,8.9C10.4,20.2,9.8,20.9,8.9,20.9z"/>
	</g>
</g>
</svg>
