<?xml version="1.0" encoding="utf-8"?>
<!-- Generator: Adobe Illustrator 18.0.0, SVG Export Plug-In . SVG Version: 6.00 Build 0)  -->
<!DOCTYPE svg PUBLIC "-//W3C//DTD SVG 1.1//EN" "http://www.w3.org/Graphics/SVG/1.1/DTD/svg11.dtd">
<svg version="1.1" id="Layer_1" xmlns="http://www.w3.org/2000/svg" xmlns:xlink="http://www.w3.org/1999/xlink" x="0px" y="0px"
	 viewBox="0 0 48 48" enable-background="new 0 0 48 48" xml:space="preserve">
<g>
	<g>
		<path fill="#FFD15C" d="M30.3,6H2.1c-1.1,0-2,0.9-2,2V46c0,1.1,0.9,2,2,2h28.2c1.1,0,2-0.9,2-2V8.1C32.3,7,31.4,6,30.3,6z"/>
		<rect x="2.6" y="8.6" fill="#FFFFFF" width="27.2" height="36.9"/>
		<path fill="#FF7058" d="M20.9,4.7h-0.2c-0.7,0-1.3-0.6-1.3-1.3c0-1.6-1.1-3.1-2.7-3.4c-2.1-0.4-3.9,1.2-3.9,3.2
			c0,0.8-0.6,1.4-1.4,1.4c-1.7,0-3,1.3-3,3v2.5h15.4V7.7C23.9,6,22.6,4.7,20.9,4.7z M16.4,4.7H16c-0.6-0.1-1.1-0.6-1.1-1.2
			c0-0.7,0.6-1.3,1.3-1.3c0.7,0,1.3,0.6,1.3,1.3C17.5,4.1,17,4.6,16.4,4.7z"/>
		<g>
			<g>
				<g>
					<g>
						<path fill="#40596B" d="M27.3,43.4H5.1V13h22.2V43.4z M6.1,42.4h20.2V14H6.1V42.4z"/>
					</g>
				</g>
				<g>
					<g>
						<rect x="5.6" y="27.7" fill="#40596B" width="21.2" height="1"/>
					</g>
				</g>
			</g>
			<g>
				<path fill="#40596B" d="M16.2,31.7c-2,0-3.6-1.6-3.6-3.6s1.6-3.6,3.6-3.6c2,0,3.6,1.6,3.6,3.6S18.1,31.7,16.2,31.7z M16.2,25.6
					c-1.4,0-2.6,1.1-2.6,2.6s1.1,2.6,2.6,2.6c1.4,0,2.6-1.1,2.6-2.6S17.6,25.6,16.2,25.6z"/>
			</g>
		</g>
		<g>
			<path fill="#40596B" d="M21.9,43.4H10.5v-5.7h11.4V43.4z M11.5,42.4h9.4v-3.7h-9.4V42.4z"/>
		</g>
		<g>
			<path fill="#40596B" d="M21.9,18.7H10.5V13h11.4V18.7z M11.5,17.7h9.4V14h-9.4V17.7z"/>
		</g>
	</g>
	<g>
		<g>
			<polygon fill="#CDD6E0" points="26.3,31.7 22.4,27.8 20.5,33.6 			"/>
		</g>
		<g>
			
				<rect x="19.5" y="18.2" transform="matrix(0.7071 -0.7071 0.7071 0.7071 -4.288 28.7648)" fill="#84DBFF" width="26.1" height="2.8"/>
			
				<rect x="33.2" y="8.5" transform="matrix(0.7071 0.7071 -0.7071 0.7071 25.3311 -18.1193)" fill="#54C0EB" width="2.8" height="26.1"/>
			<path fill="#40596B" d="M47.6,8.6l-2.1-2.1C45,6,44.2,6,43.6,6.5l-3.1,3.1l3.9,3.9l3.1-3.1C48.1,9.9,48.1,9.1,47.6,8.6z"/>
			<g>
				
					<rect x="42.3" y="8.4" transform="matrix(0.7071 -0.7071 0.7071 0.7071 4.6834 33.6321)" fill="#F2F2F2" width="1.3" height="5.5"/>
			</g>
		</g>
	</g>
</g>
</svg>
