<?xml version="1.0" encoding="utf-8"?>
<!-- Generator: Adobe Illustrator 18.0.0, SVG Export Plug-In . SVG Version: 6.00 Build 0)  -->
<!DOCTYPE svg PUBLIC "-//W3C//DTD SVG 1.1//EN" "http://www.w3.org/Graphics/SVG/1.1/DTD/svg11.dtd">
<svg version="1.1" id="Layer_1" xmlns="http://www.w3.org/2000/svg" xmlns:xlink="http://www.w3.org/1999/xlink" x="0px" y="0px"
	 viewBox="0 0 512 512" enable-background="new 0 0 512 512" xml:space="preserve">
<g>
	<path fill="#334A5E" d="M395.3,2H116.7c-13.4,0-24.3,10.9-24.3,24.3v459.4c0,13.4,10.9,24.3,24.3,24.3h278.6
		c13.4,0,24.3-10.9,24.3-24.3V26.3C419.6,12.9,408.7,2,395.3,2z"/>
	<rect x="118.4" y="49.6" fill="#84DBFF" width="275.2" height="388.2"/>
	<circle fill="#ABB2B9" cx="256" cy="473.9" r="20.5"/>
	<path fill="#ABB2B9" d="M295.7,32h-79.4c-0.2,0-0.3-0.1-0.3-0.3V19.9c0-0.2,0.1-0.3,0.3-0.3h79.4c0.2,0,0.3,0.1,0.3,0.3v11.8
		C296,31.9,295.9,32,295.7,32z"/>
	<rect x="266.3" y="208" fill="#FFD15C" width="41.1" height="145"/>
	<rect x="204.6" y="172.7" fill="#F2F2F2" width="41.1" height="180.3"/>
	<rect x="328.1" y="128.3" fill="#FF7058" width="41.1" height="224.8"/>
	<rect x="142.9" y="243.7" fill="#FFFFFF" width="41.1" height="109.3"/>
</g>
</svg>
