<?xml version="1.0" encoding="utf-8"?>
<!-- Generator: Adobe Illustrator 18.0.0, SVG Export Plug-In . SVG Version: 6.00 Build 0)  -->
<!DOCTYPE svg PUBLIC "-//W3C//DTD SVG 1.1//EN" "http://www.w3.org/Graphics/SVG/1.1/DTD/svg11.dtd">
<svg version="1.1" id="Layer_1" xmlns="http://www.w3.org/2000/svg" xmlns:xlink="http://www.w3.org/1999/xlink" x="0px" y="0px"
	 viewBox="0 0 48 48" enable-background="new 0 0 48 48" xml:space="preserve">
<g>
	<g>
		<path fill="#FFD15C" d="M42.3,48V22.9C35.1,15.8,31.1,11.8,24,4.6c-7.1,7.1-11.1,11.1-18.3,18.3V48H42.3z"/>
		<path fill="#F3705A" d="M47,21.7L26.3,1C25-0.3,23-0.3,21.7,1L1,21.7C-0.3,23-0.3,25,1,26.3s3.4,1.3,4.7,0L24,8l18.4,18.4
			c1.3,1.3,3.4,1.3,4.7,0h0C48.3,25,48.3,23,47,21.7z"/>
		<g>
			<rect x="18.3" y="34.4" fill="#415A6B" width="11.3" height="13.6"/>
		</g>
		<g>
			<circle fill="#415A6B" cx="24" cy="23.2" r="7.1"/>
			<circle fill="#8AD7F8" cx="24" cy="23.2" r="5"/>
		</g>
	</g>
</g>
</svg>
