<?xml version="1.0" encoding="utf-8"?>
<!-- Generator: Adobe Illustrator 16.0.0, SVG Export Plug-In . SVG Version: 6.00 Build 0)  -->
<!DOCTYPE svg PUBLIC "-//W3C//DTD SVG 1.1//EN" "http://www.w3.org/Graphics/SVG/1.1/DTD/svg11.dtd">
<svg version="1.1" id="Layer_1" xmlns="http://www.w3.org/2000/svg" xmlns:xlink="http://www.w3.org/1999/xlink" x="0px" y="0px"
	 width="48px" height="48px" viewBox="0 0 48 48" enable-background="new 0 0 48 48" xml:space="preserve">
<g>
	<path fill="#F2F2F2" d="M47.452,19.481L34.619,1.272c-0.954-1.355-2.826-1.678-4.18-0.725L1.774,20.749v1.32h46.087
		C48.116,21.216,48.004,20.265,47.452,19.481"/>
	<path fill="#E8EAEA" d="M41.878,18.517L33.654,6.845c-1.355,0.955-3.226,0.631-4.181-0.723L6.846,22.069h33.978
		C40.326,20.81,40.724,19.331,41.878,18.517"/>
	<path fill="#F2F2F2" d="M26.738,22.069c-0.202-0.385-0.428-0.764-0.687-1.133c-2.424-3.439-6.463-4.766-9.022-2.961
		c-1.27,0.895-1.934,2.393-1.987,4.094H26.738z"/>
	<path fill="#F2F2F2" d="M35.212,14.481c0.654,0.928,0.432,2.209-0.496,2.863c-0.927,0.654-2.209,0.432-2.863-0.496
		c-0.653-0.928-0.432-2.209,0.496-2.863S34.558,13.554,35.212,14.481"/>
	<path fill="#4CDBC4" d="M45,19.724H3c-1.657,0-3,1.342-3,3v22.275c0,1.658,1.343,3,3,3h42c1.657,0,3-1.342,3-3V22.724
		C48,21.065,46.657,19.724,45,19.724"/>
	<path fill="#3DC9AE" d="M41,23.724H7c0,1.656-1.343,3-3,3v14.275c1.657,0,3,1.344,3,3h34c0-1.656,1.343-3,3-3V26.724
		C42.343,26.724,41,25.38,41,23.724"/>
	<path fill="#4CDBC4" d="M29.669,33.862c0,4.207-2.538,7.617-5.668,7.617c-3.132,0-5.669-3.41-5.669-7.617s2.537-7.619,5.669-7.619
		C27.131,26.243,29.669,29.655,29.669,33.862"/>
	<path fill="#4CDBC4" d="M11.234,33.862c0,1.135-0.92,2.055-2.055,2.055s-2.055-0.92-2.055-2.055c0-1.137,0.92-2.057,2.055-2.057
		S11.234,32.726,11.234,33.862"/>
	<path fill="#4CDBC4" d="M40.875,33.862c0,1.135-0.92,2.055-2.055,2.055c-1.134,0-2.054-0.92-2.054-2.055
		c0-1.137,0.92-2.057,2.054-2.057C39.955,31.806,40.875,32.726,40.875,33.862"/>
</g>
</svg>
