<?xml version="1.0" encoding="utf-8"?>
<!-- Generator: Adobe Illustrator 18.0.0, SVG Export Plug-In . SVG Version: 6.00 Build 0)  -->
<!DOCTYPE svg PUBLIC "-//W3C//DTD SVG 1.1//EN" "http://www.w3.org/Graphics/SVG/1.1/DTD/svg11.dtd">
<svg version="1.1" id="Layer_1" xmlns="http://www.w3.org/2000/svg" xmlns:xlink="http://www.w3.org/1999/xlink" x="0px" y="0px"
	 viewBox="0 0 48 48" enable-background="new 0 0 48 48" xml:space="preserve">
<g>
	<g>
		<g>
			<path fill="#354B5E" d="M21.3,42.9l0.4-0.7c0,0,1.4-1.3,2,0.7c0,0-0.9-0.8-1.5-0.3C22,43,21.6,43,21.3,42.9z"/>
		</g>
		<g>
			<path fill="#354B5E" d="M15.3,42.8c0.2,0.2,0.1,0.4-0.1,0.5l-0.1,0c0,0-0.4-0.1-0.6,0.3C14.5,43.5,14.5,42.6,15.3,42.8z"/>
		</g>
		<path fill="#AEB4BA" d="M20.9,36.3l-2.3,5c0,0-0.5,1-1.2,1.2c-0.7,0.2-1,0.4-1,0.4s-0.9-0.3-1.1-0.2c0,0-0.1,0.3-0.3,0.4
			c0,0,0.1,0.2,0.1,0.3c-0.1,0.2,0.2,0.1,0.3,0.1c0,0,0.3-0.1,0.3,0c0,0,0,0,0,0c0.3,0.2,0.7,0.2,1,0l0.3-0.2c0.9-0.9,2-0.9,2-0.9
			l1.9-3.6c0.3-0.7,0.5-1.2,0.5-1.2L20.9,36.3z"/>
		<g>
			<path fill="#354B5E" d="M13.1,44.6c0,0-0.8-0.1-1.1,0.3c0,0,0.2-0.9,1-0.9C13.5,44.2,13.5,44.4,13.1,44.6z"/>
		</g>
		<g>
			<path fill="#354B5E" d="M14.8,44.4c0,0-0.7-0.5-1.1-0.3c0,0,0.6-0.6,1.3-0.3C15.3,44.3,15.2,44.4,14.8,44.4z"/>
		</g>
		<path fill="#CFD7E1" d="M23.6,36.8l-0.8-0.6l-1.3,1.7l-2.4,4.7c0,0-1.1,0-2,0.9l-0.8,0.4c-0.1,0-1.1-0.2-1.3-0.1
			c0,0-0.1,0.4-0.3,0.4c0,0-0.7,0.1-1,0.1c-0.2-0.1-0.6-0.2-0.6-0.2c0,0,0.3,0.3,0.1,0.6c0,0,0,0.7,0.5,0.4c0.5-0.2,1.4-0.2,1.4-0.2
			l1.1-0.1c0,0,0.4,0.5,0.8,0.1c0,0,1,0,1.3-0.2c0,0,0.2-0.1,0.7-0.1c0.5,0,1.1,0,1.3-0.1h0.6c0,0,1.1,0.1,0.8-0.8
			c0,0-1,0.1-0.5-0.4c0,0,1.8,0.2,1.1-0.6c0,0-0.8,0-0.6-0.4c-0.6,0.2-0.9,0.3-1.2,0.1c0.1-0.1,2.2-3.7,2.6-4.2
			C23.4,37.6,23.6,36.8,23.6,36.8z"/>
		<g>
			<g>
				<path fill="#354B5E" d="M23.1,43.9c-0.5-0.5-1.2-0.6-1.5-0.3c0,0-0.7,0.1-0.6-0.2l0-0.1l0.1-0.1C21,43.2,22.5,41.9,23.1,43.9z"
					/>
			</g>
		</g>
		<path fill="#E8EAE9" d="M7,5.3L5.7,5.3L3.8,5.1c0,0-3,0.4-3.8,2.1c0,0,4.7-1.3,7.6-0.5l0.6,0L7,5.3z"/>
		<g>
			<path fill="#E8EAE9" d="M7.7,5.7L7.2,5.6L8,6.8L7.4,6.6c-2.6-0.5-6.5,1-7.3,1.3c0,0,0,0,0,0s1.4,0.4,3.4,0.1l2.3,0.1l1.9,0.1
				L8.2,7L7.7,5.7z"/>
			<path fill="#354B5E" d="M47.7,39.4c-0.9-0.9-0.9-0.9-0.9-0.9l-3.1-2.4c0,0-0.3-0.2,0.2,0c0.5,0.2,2,1.4,2,1.4s0.6,0.6,0.2-0.1
				c-0.3-0.5-0.4-0.6-0.4-0.7c0.1,0,0.7,0.3,0.4-0.2c-0.3-0.5-1-1.2-1-1.2l-2.4-1.6c0,0-0.4-0.4-0.6-0.4c0,0-0.7-0.6-0.9-0.6
				c0,0-0.5-0.4-0.8-0.4c0,0-0.3-0.4-0.6-0.6c0,0-1.2-0.7-1.8-1.7c-0.6-0.9-0.5-1.5-0.5-1.5l-0.6-1c0,0-4.2-3.8-8.3-6.6l-5.6-4.2
				c0,0-1.1-1-2.2-2.1c-1.4-1.3-2.4-2.9-3-4.7c-0.8-2.2-2.3-5.3-5.2-6.5c0,0-2.9-1.3-6.1,1C5.9,4.6,5.4,4.8,4.8,4.9
				C4.5,5,4.2,5,3.8,5.1C3.9,5.2,4,5.2,4,5.2L3.6,5.4l0.5,0.1C4,5.5,3.8,5.5,3.7,5.6l1.4,0.1L4.8,5.7C4.5,5.8,4.2,5.8,3.9,5.9
				C3.9,5.9,4,6,4,6C4.1,6,4.1,6,4.2,6c0.5,0.1,1,0.1,1.4,0.2C5.4,6.3,5,6.3,4.7,6.4c0.7,0,1.3,0.2,2.1,0.2C6.6,6.6,6,6.8,5.7,6.9
				c0.2,0,1.1,0.1,1.3,0.1C6.9,7,6.2,7.1,6,7.2c0.5,0,0.7,0.1,0.7,0.1L5.6,7.6c0,0,0.8,0.2,0.9,0.2C6.4,7.8,6.2,7.8,6,7.9
				c0.1,0,0.3,0,0.4,0.1l-0.2,0c-0.2,0-0.5,0-0.7,0C4.9,8,4.1,8,3.5,8.1c0.6,0.1,1,0.1,1.4,0.2c0.5,0.1,0.9,0.1,1.3,0.3
				C6.7,8.7,7,9,7.1,9.5c0,0,1.1,3.6,1.2,4.5c0.1,0.9,0.3,2.3,0.3,3.1c0,0.8,0.2,6.5,2.2,9.1c2,2.6,9.1,7.3,9.1,7.3s0.5,2.5,1,2.9
				l0.6,1.6c0,0,0.7-0.8,0,0.8c0,0,1.5-1.7,1.9-1.8c0,0,1,0,0.7-0.7C24,35.6,23.6,34,23.6,34s0.7-0.2,1.6-0.5c2.4-0.8,5.1-0.8,7.5,0
				c1.5,0.5,3.2,1,4.6,1.4c0,0,4.6,3.3,6,3.9c0,0,0.7,0.6-0.3-0.6c-1-1.2,3.3,2,3.3,2s1.7,1.1-0.1-0.5l-0.7-0.5c0,0-0.2-0.1-0.2-0.2
				c0,0,0.1,0,0.2,0.1c0.6,0.3,1.8,1.1,1.8,1.1s1.2,0.6-0.4-0.6c0,0-1-0.8-0.2-0.4c0.7,0.3,1,0.5,1.1,0.6l-0.8-0.7
				C47,39.3,48.6,40.3,47.7,39.4z"/>
		</g>
		<path fill="#435B6C" d="M42.3,34.3c-1.1-1-4.9-4.1-4.9-4.1s9.7,4.1-2.9-5.4c-12.7-9.4-18.9-11.3-20.3-8.1
			c-0.2,0.5-0.3,0.9-0.5,1.2c-0.4,1.2-0.4,2.5,0.2,3.6c0.5,1,1.4,2.3,2.9,3.7c3.2,3,5.1,3.2,5.1,3.2V28c0,0,5.7,3.5,6.2,2.4
			c0.5-1.1,0.2,0.2,0.2,0.2s13.9,5.2,11.6,3.4c-1.8-1.4-2.9-2-3.4-2.3C37.6,32.3,43.3,35.2,42.3,34.3z"/>
		<g>
			<circle fill="#FFFFFF" cx="8.6" cy="5.5" r="0.9"/>
		</g>
		<g>
			<circle fill="#F3705B" cx="8.6" cy="5.5" r="0.7"/>
		</g>
		<g>
			<circle fill="#354B5E" cx="8.6" cy="5.5" r="0.3"/>
		</g>
		<g>
			<circle fill="#FFFFFF" cx="8.7" cy="5.3" r="0.1"/>
		</g>
	</g>
</g>
</svg>
