<?xml version="1.0" encoding="utf-8"?>
<!-- Generator: Adobe Illustrator 18.0.0, SVG Export Plug-In . SVG Version: 6.00 Build 0)  -->
<!DOCTYPE svg PUBLIC "-//W3C//DTD SVG 1.1//EN" "http://www.w3.org/Graphics/SVG/1.1/DTD/svg11.dtd">
<svg version="1.1" id="Layer_1" xmlns="http://www.w3.org/2000/svg" xmlns:xlink="http://www.w3.org/1999/xlink" x="0px" y="0px"
	 viewBox="0 0 48 48" enable-background="new 0 0 48 48" xml:space="preserve">
<g>
	<g>
		<g>
			<path fill="#F3705A" d="M13.2,43.7c-2.2-2.5-4.4-5.1-5.8-8.2C6,32.2,5.6,28.4,6.3,24.8s2.3-7,4.6-9.9c-0.2,2.5,0.7,5.1,2.4,7
				c-1-4.8,0.6-10,3.8-13.8s7.6-6.3,12.2-8c-2.3,2.4-2.6,6.2-1.7,9.4s2.8,6,4.5,8.9c1.7,2.9,3.3,5.9,3.4,9.2
				c0.9-1.7,1.9-3.4,2.5-5.3s0.9-3.9,0.4-5.8c1.8,2.2,2.8,4.4,3.3,7.2s0.4,5.7,0.1,8.5c-0.4,3.1-1.2,6.3-2.9,8.9
				c-2,3.1-5.2,5.3-8.7,6.5C24,48.7,17.9,47.8,13.2,43.7z"/>
		</g>
		<g>
			<path fill="#FFD15C" d="M20.8,47.4c8.2,3.2,16.3-6.5,11.8-14c0-0.1-0.1-0.1-0.1-0.2c0.4,4.1-0.6,7.1-2.5,8.8
				c1-2.4,0.3-5.2-0.9-7.6c-1.2-2.3-2.9-4.4-4.2-6.6c-1.3-2.3-2.3-4.9-1.7-7.5c-2.4,1.8-4.1,4.5-4.8,7.4c-0.7,2.9-0.3,6.1,1,8.8
				c-1.5-1.1-2.6-2.9-2.7-4.8c-1.6,1.9-2.6,4.4-2.5,6.9C14.2,42.5,17.3,46,20.8,47.4z"/>
		</g>
	</g>
</g>
</svg>
