<?xml version="1.0" encoding="utf-8"?>
<!-- Generator: Adobe Illustrator 18.0.0, SVG Export Plug-In . SVG Version: 6.00 Build 0)  -->
<!DOCTYPE svg PUBLIC "-//W3C//DTD SVG 1.1//EN" "http://www.w3.org/Graphics/SVG/1.1/DTD/svg11.dtd">
<svg version="1.1" id="Layer_1" xmlns="http://www.w3.org/2000/svg" xmlns:xlink="http://www.w3.org/1999/xlink" x="0px" y="0px"
	 viewBox="0 0 512 512" enable-background="new 0 0 512 512" xml:space="preserve">
<g>
	<path fill="#89D6F7" d="M256,2C115.7,2,2,115.7,2,256c0,75.7,33.1,143.7,85.7,190.3C132.6,485.9,191.5,510,256,510
		c64.6,0,123.5-24.1,168.3-63.8C476.9,399.7,510,331.7,510,256C510,115.7,396.3,2,256,2z"/>
	<path fill="#41596B" d="M404.4,425.6c-13-9.7-36.6-25.8-62.3-37.7c-25.7-11.8-40.8-39.5-36.7-67.4c0-0.4,0.1-0.8,0.2-1.3
		c0,0,58.5-39.6,50.4-78.2c0,0,1.8,0.1,4.5-0.1c25.8-2.4,27.4-40.8,1.9-44.9c-0.2,0-0.5-0.1-0.7-0.1l-0.8-4.2
		c7.8-27.3,26.8-110-30.7-102c0,0-41.3-68.3-128.6-35.4C114.2,87.1,137,165.4,137,165.4l10.8,31.2c-23.5,5.8-21.3,42.1,3.7,44.4
		c2.7,0.2,4.6,0.1,4.6,0.1c-8.2,38.6,50.3,78.2,50.3,78.2c0.1,0.5,0.1,0.9,0.2,1.3c4,27.9-11.1,55.6-36.7,67.4
		c-25.8,11.9-49.3,28.1-62.3,37.7c-7.8,5.7-14.7,12.6-20,20.7C132.6,485.9,191.5,510,256,510c64.6,0,123.5-24.1,168.3-63.8
		C419.1,438.2,412.2,431.3,404.4,425.6z"/>
</g>
</svg>
