<?xml version="1.0" encoding="utf-8"?>
<!-- Generator: Adobe Illustrator 18.0.0, SVG Export Plug-In . SVG Version: 6.00 Build 0)  -->
<!DOCTYPE svg PUBLIC "-//W3C//DTD SVG 1.1//EN" "http://www.w3.org/Graphics/SVG/1.1/DTD/svg11.dtd">
<svg version="1.1" id="Layer_1" xmlns="http://www.w3.org/2000/svg" xmlns:xlink="http://www.w3.org/1999/xlink" x="0px" y="0px"
	 viewBox="0 0 48 48" enable-background="new 0 0 48 48" xml:space="preserve">
<g>
	<path fill="#FFD15C" d="M24.6-0.1C11.9-0.1,1.5,10.3,1.5,23c0,4.6,1.4,9,3.7,12.6l-5,12.5l10.9-6.3c3.8,2.7,8.4,4.3,13.4,4.3
		c12.7,0,23.1-10.3,23.1-23.1C47.7,10.3,37.4-0.1,24.6-0.1z"/>
	<path fill="#F8B64C" d="M24.6,42.1C14.1,42.1,5.5,33.5,5.5,23c0-10.5,8.6-19.1,19.1-19.1c10.5,0,19.1,8.6,19.1,19.1
		C43.7,33.5,35.1,42.1,24.6,42.1z"/>
	<path fill="#FFFFFF" d="M29.3,27.7l5.4-7.7h-4.1l-3.6,5.4L23.4,20c1.7-0.4,3.5-1.9,3.5-4.7c0-3-2.1-5.1-5.4-5.1h-7.4v15.9h3.4v-5.7
		h2.2l5.1,7.4L19,35.9h4l4-5.8l4,5.8h4.1L29.3,27.7z M17.5,13.1h3.6c1.3,0,2.4,0.8,2.4,2.1c0,1.4-1,2.2-2.4,2.2h-3.6V13.1z"/>
</g>
</svg>
