<?xml version="1.0" encoding="utf-8"?>
<!-- Generator: Adobe Illustrator 19.0.1, SVG Export Plug-In . SVG Version: 6.00 Build 0)  -->
<svg version="1.1" id="Layer_1" xmlns="http://www.w3.org/2000/svg" xmlns:xlink="http://www.w3.org/1999/xlink" x="0px" y="0px"
	 viewBox="0 0 48 48" style="enable-background:new 0 0 48 48;" xml:space="preserve">
<style type="text/css">
	.st0{fill:#415A6B;}
	.st1{fill:#ADB3BA;}
	.st2{fill:#E8EAE9;}
	.st3{fill:#55C0EB;}
	.st4{fill:#F3705A;}
	.st5{fill:#FFFFFF;}
	.st6{fill:#FFD15C;}
	.st7{fill:#344A5E;}
	.st8{fill:#CED6E0;}
	.st9{fill:#F05540;}
	.st10{fill:#F7B64C;}
	.st11{fill:#F3F3F3;}
	.st12{fill:#66C6B9;}
	.st13{fill:#4ABAA5;}
	.st14{fill:#8AD7F8;}
	.st15{fill:none;}
	.st16{fill:#E53D35;}
</style>
<g>
	<g>
		<g>
			<g>
				<path class="st1" d="M29.4,3c-0.3-1.4-1.1-2.6-2.4-3c0,0-2,0.8-2,2.8c0,0,0.1,1.4,0.5,1.9c0,0-0.9,0.9-0.4,2.7
					c0.5,1.8,0.3,3.9-0.5,5.1c-0.7,1.2-3.5,3.9-2,6.1c0,0,0.8,0.1,0.8-1.1c-0.1-1.2-0.1-2,0.8-3.1c0.9-1.1,3.8-3.7,4.6-6.3
					C29.7,5.6,29.7,4.4,29.4,3z M26.9,8.2c-0.5,0-0.9-0.8-0.9-1.7c0-0.9,0.5-1.7,1-1.6S28,5.7,28,6.6C27.9,7.5,27.5,8.3,26.9,8.2z
					 M27.8,4c-0.2,0.2-0.3,0.2-0.4,0c-0.2-0.2-0.7,0-0.7,0c-0.4-0.3-0.5-0.7-0.6-1c-0.2-0.8,0.3-1.7,1.1-2c0.1,0,0.1,0,0.1,0
					c0.9,0.7,1.3,1.7,1.3,3C28.5,3.9,28,3.9,27.8,4z"/>
			</g>
			<g>
				<circle class="st1" cx="24.7" cy="5.9" r="0.9"/>
			</g>
		</g>
		<g>
			<g>
				<path class="st1" d="M0.7,8.2c0.8,2.6,3.7,5.3,4.6,6.3c0.9,1.1,0.9,1.9,0.8,3.1c-0.1,1.2,0.8,1.1,0.8,1.1c1.5-2.2-1.3-4.9-2-6.1
					c-0.7-1.2-1-3.4-0.5-5.1C4.9,5.7,4,4.8,4,4.8c0.4-0.5,0.5-1.9,0.5-1.9c0-2.1-2-2.8-2-2.8c-1.3,0.4-2,1.7-2.4,3
					C-0.1,4.4-0.1,5.6,0.7,8.2z M1.6,6.6c0-0.9,0.4-1.7,0.9-1.7s1,0.7,1,1.6c0,0.9-0.4,1.7-0.9,1.7S1.7,7.5,1.6,6.6z M1,3.9
					c0-1.3,0.4-2.3,1.3-3c0,0,0.1,0,0.1,0c0.8,0.3,1.2,1.2,1.1,2C3.5,3.3,3.3,3.7,2.9,4c0,0-0.5-0.2-0.7,0C2.1,4.2,2,4.2,1.8,4
					C1.6,3.9,1,3.9,1,3.9z"/>
			</g>
			<g>
				<circle class="st1" cx="4.9" cy="5.9" r="0.9"/>
			</g>
		</g>
		<path class="st8" d="M24.2,5.9c0-2.1-0.2-4-0.5-5.9H5.8C5.5,1.8,5.3,3.8,5.3,5.9c0,6.1,1.5,11.5,3.8,14.9c1.6,2.3,2.1,5.2,1.5,8
			c-1,4.4-1.6,8.8-1.6,9.5c0,1.4,2.5,2.6,5.6,2.6c3.1,0,5.6-1.2,5.6-2.6c0-0.7-0.6-5.1-1.6-9.5c-0.6-2.8-0.1-5.7,1.5-8
			C22.7,17.4,24.2,12,24.2,5.9z"/>
		<path class="st1" d="M24.1,2.6C24,1.7,23.9,0.8,23.8,0H5.8C5.7,0.8,5.6,1.7,5.5,2.6H24.1z"/>
		<g>
			<path class="st7" d="M24.9,39l-1.2-0.2c0,0-2.7-6.2,0.3-10.3l1.8,1.4C25.8,29.9,27.6,37.4,24.9,39z"/>
		</g>
		<g>
			<g>
				<path class="st6" d="M26.6,29.4c-1.8-0.3-3.9-0.4-3.9-0.4s-1-3.3-1.6-4.1c-0.6-0.8-1.8-1.3-2.2-1.1c-0.3,0.2-1.8,0.4-2.3,0.5
					s-1.2-0.1-1.5,0.2c-0.3,0.3-1.2,0.9-1.2,0.9s-2.9-1.1-3.2-1.4c-0.3-0.3-0.3-0.7-0.3-0.7c-1.1-0.3-2,0.4-2.3,0.9
					c-0.3,0.6-0.4,1-0.2,1.7c0.2,0.6,1.5,1,1.5,1s-0.2,0-0.7,0.6c-0.5,0.6,0.3,1.5,0.6,1.8c0.3,0.3,0.3,0.4,0.2,0.6
					c-0.1,0.1-0.3,0-0.6,0.6c-0.2,0.6,0.3,1.4,0.5,1.5c0.1,0.1,0.3,0.3,0,0.6c-0.3,0.3-0.7,1.1-0.6,1.8c0.1,0.7,1.2,1.1,1.2,1.1
					s0.3,0,1.8-0.2c1.6-0.2,2-1.4,2-1.4s0.7-0.1,1.5-0.1s2-0.4,2-0.4s0.2,0.5,1.1,1.5c0.9,1,1.9,2.6,1.9,2.6l1.6-0.6
					c0,0,1.2-0.1,2.3,0.3c0.5,0.2,1.5,0.4,2.4,0.7V29.4z"/>
			</g>
			<g>
				<g>
					<g>
						<path class="st11" d="M12.8,26.7c0,0,0.3-0.4,0.9-0.4s1.2,1,1.2,1s0.1,0.2-0.1,0.6c-0.2,0.3-0.7,0.9-1,1
							c-0.3,0.1-1.9,0.1-1.7-1.3L12.8,26.7z"/>
					</g>
					<g>
						<path class="st11" d="M18.4,28.9c-0.1-0.2-0.3-0.4-0.5-0.4c0,0,0,0-0.1,0c-0.4,0.1-0.6,0.4-0.6,0.4s0.1,1.1,0,1.3
							c0,0,0.2,0,0.5-0.1C18.3,30,18.6,29.4,18.4,28.9C18.4,28.9,18.4,28.9,18.4,28.9z"/>
					</g>
					<g>
						<path class="st11" d="M18,32.2c0,0.1,0,0.1,0,0.2c-0.3,0.4-0.9,0.6-1.2,0.6c-0.4,0-0.4-0.3-0.4-0.3c0.1-0.2,0-0.7,0-1
							c0-0.3,0.3-0.4,0.3-0.4l0.7-0.1c0.1,0,0.1,0,0.2,0C17.8,31.4,18.1,31.7,18,32.2z"/>
					</g>
				</g>
				<g>
					<path class="st11" d="M12.3,32.9c0,0-0.2-0.1-0.4,0.2s-0.1,0.8-0.1,0.8s0.1,0.3,0.4,0.3s1.1,0,1.1,0s0.4-0.3,0.4-0.8
						s-0.4-0.6-0.4-0.6H12.3z"/>
				</g>
			</g>
			<g>
				<g>
					<path class="st10" d="M14,25.2c-0.2,0.2-0.5,0.4-0.7,0.6c-0.2,0.2-0.4,0.4-0.6,0.6c-0.1,0.1-0.2,0.2-0.3,0.4
						c-0.1,0.1-0.2,0.3-0.2,0.4c-0.1,0.3-0.3,0.5-0.3,0.8c0,0.1,0,0.3,0.1,0.4c0.1,0.1,0.2,0.2,0.3,0.3c0.1,0.1,0.2,0.2,0.4,0.2
						c0.1,0.1,0.3,0.1,0.4,0.1c0.3,0.1,0.6,0.1,0.9,0c0.3,0,0.6-0.1,0.8-0.3c0.5-0.2,1.1-0.5,1.6-0.8c0.1-0.1,0.3-0.2,0.4-0.2
						c0.1,0,0.1,0,0.1-0.1c0,0,0,0,0.1,0l0.1,0c0.1,0,0.2,0,0.3,0c0.2,0,0.3,0.1,0.5,0.1c0.1,0.1,0.3,0.1,0.4,0.3
						c0.2,0.2,0.4,0.5,0.5,0.8c0.1,0.3,0,0.6-0.1,0.9c-0.1,0.3-0.4,0.5-0.6,0.7c-0.2,0.2-0.5,0.3-0.8,0.5l0-0.1
						c0.1,0,0.1,0.1,0.2,0.1c0.1,0,0.1,0.1,0.2,0.1c0.1,0,0.1,0.1,0.2,0.1l0.1,0.1c0,0,0.1,0.1,0.1,0.1c0,0,0,0.1,0.1,0.1
						c0,0,0,0.1,0.1,0.1c0,0.1,0.1,0.1,0.1,0.2c0,0.1,0,0.1,0.1,0.2c0,0.1,0,0.2,0,0.2c0,0.1,0,0.1,0,0.2c0,0.1,0,0.1-0.1,0.2
						c0,0.1-0.1,0.1-0.1,0.2c0,0.1-0.1,0.1-0.1,0.2c0,0.1-0.1,0.1-0.1,0.2l-0.1,0.1l-0.1,0.1c-0.1,0-0.1,0.1-0.2,0.1
						c-0.1,0-0.1,0.1-0.2,0.1c0.1,0,0.1,0,0.2-0.1c0.1,0,0.1-0.1,0.2-0.1c0.1,0,0.1-0.1,0.2-0.1c0-0.1,0.1-0.1,0.1-0.2
						c0-0.1,0.1-0.1,0.1-0.2c0-0.1,0.1-0.1,0.1-0.2c0-0.1,0-0.1,0.1-0.2c0-0.1,0-0.1,0-0.2c0-0.1,0-0.1,0-0.2c0-0.1,0-0.1-0.1-0.2
						c0-0.1-0.1-0.1-0.1-0.2c0,0,0-0.1-0.1-0.1c0,0,0-0.1-0.1-0.1l-0.1-0.1l-0.1-0.1c-0.1,0-0.1-0.1-0.2-0.1c-0.1,0-0.1-0.1-0.2-0.1
						C17.1,31,17,31,17,31l-0.2-0.1l0.1-0.1c0.3-0.1,0.5-0.3,0.7-0.5c0.2-0.2,0.4-0.4,0.6-0.6c0.1-0.3,0.1-0.5,0.1-0.8
						c-0.1-0.3-0.2-0.5-0.4-0.7c-0.2-0.2-0.5-0.3-0.8-0.3c-0.1,0-0.1,0-0.2,0l0,0l0,0c0,0-0.1,0-0.1,0c-0.1,0.1-0.3,0.2-0.4,0.2
						c-0.5,0.3-1.1,0.6-1.6,0.8c-0.3,0.1-0.6,0.2-0.9,0.3c-0.3,0-0.6,0-0.9,0c-0.2,0-0.3-0.1-0.4-0.1c-0.1-0.1-0.3-0.1-0.4-0.3
						c-0.1-0.1-0.2-0.2-0.3-0.4c-0.1-0.1-0.1-0.3-0.1-0.5c0-0.2,0.1-0.3,0.1-0.5c0.1-0.1,0.1-0.3,0.2-0.4c0.1-0.1,0.1-0.3,0.2-0.4
						c0.1-0.1,0.2-0.2,0.3-0.4c0.2-0.2,0.4-0.4,0.6-0.6C13.5,25.6,13.7,25.4,14,25.2z"/>
				</g>
				<g>
					<path class="st10" d="M9.2,26.7c0,0,0.2,0,0.5,0c0.1,0,0.3,0.1,0.5,0.1c0.1,0,0.2,0.1,0.2,0.1c0.1,0,0.2,0.1,0.2,0.1
						c0.1,0,0.2,0.1,0.2,0.1c0.1,0,0.2,0.1,0.2,0.1c0.2,0.1,0.3,0.1,0.4,0.2c0.2,0.1,0.4,0.2,0.4,0.2s-0.2,0-0.4-0.1
						c-0.1,0-0.3-0.1-0.4-0.1c-0.1,0-0.2-0.1-0.2-0.1c-0.1,0-0.2-0.1-0.3-0.1c-0.1,0-0.2-0.1-0.2-0.1c-0.1,0-0.1-0.1-0.2-0.1
						C10,27,9.9,27,9.9,27c-0.1,0-0.1-0.1-0.2-0.1C9.4,26.8,9.2,26.7,9.2,26.7z"/>
				</g>
				<g>
					<path class="st10" d="M9.4,29.2c0,0,0.1,0.1,0.3,0.2c0.2,0.1,0.4,0.3,0.7,0.6c0.1,0.1,0.1,0.1,0.2,0.2l0.1,0.1c0,0,0,0,0.1,0.1
						c0,0,0.1,0.1,0.1,0.1c0.2,0.1,0.4,0.2,0.6,0.2c0.2,0.1,0.5,0.1,0.7,0.1c0.2,0,0.5,0,0.8,0c0.5,0,1,0.1,1.5,0.1
						c0.2,0,0.5,0,0.7,0c0.2,0,0.4,0,0.6,0c0.2,0,0.4,0,0.5,0c0,0,0.1,0,0.1,0c0,0,0.1,0,0.1,0c0.1,0,0.1,0,0.2,0c0.2,0,0.4,0,0.4,0
						s-0.1,0-0.3,0.1c-0.1,0-0.1,0-0.2,0c0,0-0.1,0-0.1,0c0,0-0.1,0-0.1,0c-0.2,0-0.3,0-0.5,0c-0.2,0-0.4,0-0.6,0
						c-0.2,0-0.5,0-0.7,0c-0.2,0-0.5,0-0.7,0c-0.3,0-0.5,0-0.8,0c-0.3,0-0.5,0-0.8-0.1c-0.1,0-0.1,0-0.2,0c-0.1,0-0.1,0-0.2,0
						c-0.1,0-0.2,0-0.4-0.1c-0.2-0.1-0.5-0.2-0.7-0.3c0,0-0.1-0.1-0.1-0.1c0,0,0,0-0.1-0.1l-0.1-0.1c-0.1-0.1-0.1-0.1-0.2-0.2
						c-0.3-0.3-0.5-0.5-0.7-0.6C9.5,29.3,9.4,29.2,9.4,29.2z"/>
				</g>
				<g>
					<path class="st10" d="M9.2,32.6c0,0,0.2,0,0.4,0c0.1,0,0.3,0,0.5,0c0.1,0,0.2,0,0.3,0c0.1,0,0.2,0,0.3,0c0.2,0,0.5,0,0.7,0
						c0.3,0,0.5,0,0.8,0c0.3,0,0.6,0,0.9,0.1c0,0,0.1,0,0.1,0c0,0,0,0,0.1,0l0.1,0l0.1,0l0.1,0l0.1,0l0,0c0.1,0.1,0.2,0.3,0.3,0.4
						c0,0.2,0,0.3,0,0.5c0,0.1,0,0.2,0,0.2l0,0.1l0,0l0,0l0,0l0,0c0,0,0,0.1,0,0.1c0,0,0,0.1-0.1,0.1l-0.1,0.1c0,0-0.1,0.1-0.1,0.1
						c0,0-0.1,0.1-0.1,0.1c-0.1,0.1-0.2,0.2-0.4,0.2c-0.3,0.1-0.5,0.2-0.8,0.3c-0.3,0.1-0.5,0.1-0.7,0.1c-0.2,0-0.4,0-0.6,0
						c-0.2,0-0.3,0-0.5,0c-0.1,0-0.2,0-0.3,0c-0.1,0-0.1,0-0.1,0s0.1,0,0.4-0.1c0.1,0,0.3,0,0.5-0.1c0.2,0,0.4,0,0.6-0.1
						c0.2,0,0.5-0.1,0.7-0.2c0.2-0.1,0.5-0.2,0.7-0.3c0.1-0.1,0.2-0.1,0.3-0.2c0,0,0.1,0,0.1-0.1c0,0,0.1,0,0.1-0.1l0.1-0.1
						c0,0,0,0,0-0.1c0,0,0-0.1,0-0.1l0-0.1c0-0.1,0-0.1,0-0.2c0-0.1,0-0.3,0-0.4c0-0.1-0.1-0.2-0.2-0.3l0,0l0,0l0,0l-0.1,0l-0.1,0
						c0,0,0,0,0,0c0,0-0.1,0-0.1,0c-0.3-0.1-0.6-0.1-0.8-0.1c-0.6,0-1.1,0-1.5,0c-0.1,0-0.2,0-0.3,0c-0.1,0-0.2,0-0.3,0
						c-0.2,0-0.3,0-0.5,0c-0.1,0-0.2,0-0.3,0C9.3,32.6,9.2,32.6,9.2,32.6z"/>
				</g>
			</g>
		</g>
		<g>
			<path class="st0" d="M48,48V33.4c-19.7-4.2-24-5-24-5s1.4,1.3,1.4,3.5c0,2.2-1.1,6.3-1.7,6.9L48,48z"/>
		</g>
		<g>
			<path class="st0" d="M22.9,39.2V47c0,0.6-0.4,1-1,1H7.7c-0.6,0-1-0.4-1-1v-7.8c0-0.6,0.4-1,1-1h14.3
				C22.5,38.2,22.9,38.6,22.9,39.2z"/>
		</g>
		<g>
			<rect x="8.4" y="40.2" class="st2" width="12.8" height="5.8"/>
		</g>
		<g>
			<g>
				<rect x="9.9" y="41.4" class="st1" width="9.9" height="1"/>
			</g>
			<g>
				<rect x="9.9" y="43.8" class="st1" width="9.9" height="1"/>
			</g>
		</g>
	</g>
</g>
</svg>
