<?xml version="1.0" encoding="utf-8"?>
<!-- Generator: Adobe Illustrator 16.0.0, SVG Export Plug-In . SVG Version: 6.00 Build 0)  -->
<!DOCTYPE svg PUBLIC "-//W3C//DTD SVG 1.1//EN" "http://www.w3.org/Graphics/SVG/1.1/DTD/svg11.dtd">
<svg version="1.1" id="Layer_1" xmlns="http://www.w3.org/2000/svg" xmlns:xlink="http://www.w3.org/1999/xlink" x="0px" y="0px"
	 width="48px" height="48px" viewBox="0 0 48 48" enable-background="new 0 0 48 48" xml:space="preserve">
<g>
	<path fill="#F26F5A" d="M36.102,8.382L36.102,8.382c1.344,0,2.432,1.089,2.432,2.433v15.446H33.67V10.814
		C33.67,9.471,34.76,8.382,36.102,8.382"/>
	<path fill="#F26F5A" d="M30.395,4.231L30.395,4.231c1.344,0,2.432,1.09,2.432,2.433V22.11h-4.863V6.664
		C27.963,5.321,29.053,4.231,30.395,4.231"/>
	<path fill="#F26F5A" d="M24.688,0L24.688,0c1.344,0,2.432,1.09,2.432,2.433v19.659h-4.863V2.433C22.256,1.09,23.346,0,24.688,0"/>
	<path fill="#F26F5A" d="M18.98,4.231L18.98,4.231c1.344,0,2.432,1.09,2.432,2.433V22.11h-4.863V6.664
		C16.549,5.321,17.639,4.231,18.98,4.231"/>
	<path fill="#F26F5A" d="M10.287,15.405L10.287,15.405c1.178-0.646,2.656-0.214,3.301,0.967l7.957,14.559l-4.266,2.339L9.322,18.711
		C8.678,17.531,9.109,16.052,10.287,15.405"/>
	<rect x="16.549" y="19.846" fill="#F26F5A" width="21.986" height="16.419"/>
	<polygon fill="#40596B" points="16.549,36.265 38.535,36.265 38.977,48 16.105,48 	"/>
</g>
</svg>
