<?xml version="1.0" encoding="utf-8"?>
<!-- Generator: Adobe Illustrator 16.0.0, SVG Export Plug-In . SVG Version: 6.00 Build 0)  -->
<!DOCTYPE svg PUBLIC "-//W3C//DTD SVG 1.1//EN" "http://www.w3.org/Graphics/SVG/1.1/DTD/svg11.dtd">
<svg version="1.1" id="Layer_1" xmlns="http://www.w3.org/2000/svg" xmlns:xlink="http://www.w3.org/1999/xlink" x="0px" y="0px"
	 width="48px" height="48px" viewBox="0 0 48 48" enable-background="new 0 0 48 48" xml:space="preserve">
<g>
	<path fill="#40596B" d="M48,17.766l-4.705,2.963l-2.314,1.455L24,32.883L7.025,22.189l-2.314-1.461l-4.709-2.963L22.814,0.387
		c0.705-0.516,1.666-0.516,2.371,0L48,17.766z"/>
	<path fill="#F2F2F2" d="M41.295,3.189H6.711c-1.105,0-2,0.896-2,2v15.539l2.314,1.461L24,32.883l16.98-10.697l2.314-1.457V5.189
		C43.295,4.086,42.4,3.189,41.295,3.189"/>
	<rect x="7.418" y="24.529" fill="#FFD15C" width="33.17" height="7.986"/>
	<rect x="7.418" y="5.539" fill="#84DBFF" width="33.17" height="26.977"/>
	<path fill="#54C0EB" d="M7.418,26.639v6.934h33.17v-6.139C27.107,23.752,16.291,29.879,7.418,26.639"/>
	<path fill="#40596B" d="M17.703,30l-0.65-0.115c0.371-2.117-0.338-8.271-0.348-8.334l0.658-0.074
		C17.395,21.732,18.092,27.785,17.703,30"/>
	<path fill="#F1543F" d="M16.369,15.59c0,0,4.49-1.604,7.23,2.77c0,0-0.932,1.139-0.67,2.188
		C22.93,20.547,21.938,14.947,16.369,15.59"/>
	<path fill="#CDD6E0" d="M16.367,15.59c3.588,2.828,4.113,6.387,4.113,6.387c0.875-1.254,2.449-1.43,2.449-1.43
		c-0.006-0.037-0.018-0.072-0.023-0.109C22.74,19.688,21.496,14.998,16.367,15.59"/>
	<path fill="#F1543F" d="M16.367,15.59l0.668,6.48c1.166-0.262,3.445-0.094,3.445-0.094S19.955,18.418,16.367,15.59"/>
	<path fill="#FF7058" d="M16.441,15.59c0,0-4.816-0.113-6.672,5.061c0,0,1.164,0.813,1.113,1.926
		C10.883,22.576,10.74,16.77,16.441,15.59"/>
	<path fill="#F2F2F2" d="M16.441,15.59c-3.014,3.934-2.818,7.59-2.818,7.59c-1.129-0.945-2.74-0.604-2.74-0.604
		c0-0.039,0.002-0.076,0.002-0.115C10.898,21.674,11.191,16.676,16.441,15.59"/>
	<path fill="#FF7058" d="M16.441,15.59l0.594,6.48c-1.221,0.121-3.412,1.109-3.412,1.109S13.428,19.523,16.441,15.59"/>
	<path fill="#FFFFFF" d="M37.625,11.727c0,1.805-1.463,3.268-3.268,3.268c-1.807,0-3.27-1.463-3.27-3.268
		c0-1.807,1.463-3.27,3.27-3.27C36.162,8.457,37.625,9.92,37.625,11.727"/>
	<path fill="#FFFFFF" d="M34.355,6.633c-0.137,0-0.25,0.111-0.25,0.25v0.943c0,0.139,0.113,0.25,0.25,0.25
		c0.139,0,0.25-0.111,0.25-0.25V6.883C34.605,6.744,34.494,6.633,34.355,6.633"/>
	<path fill="#FFFFFF" d="M34.355,15.375c-0.137,0-0.25,0.111-0.25,0.25v0.943c0,0.139,0.113,0.25,0.25,0.25
		c0.139,0,0.25-0.111,0.25-0.25v-0.943C34.605,15.486,34.494,15.375,34.355,15.375"/>
	<path fill="#FFFFFF" d="M37.957,8.125c-0.098-0.098-0.256-0.098-0.354,0l-0.668,0.666c-0.098,0.098-0.098,0.256,0,0.355
		c0.1,0.096,0.256,0.096,0.355,0l0.666-0.668C38.055,8.381,38.055,8.223,37.957,8.125"/>
	<path fill="#FFFFFF" d="M31.775,14.307c-0.098-0.098-0.256-0.098-0.354,0l-0.668,0.668c-0.096,0.096-0.096,0.254,0,0.354
		c0.1,0.098,0.256,0.098,0.355,0l0.666-0.67C31.873,14.563,31.873,14.404,31.775,14.307"/>
	<path fill="#FFFFFF" d="M39.449,11.727c0-0.139-0.113-0.25-0.25-0.25h-0.945c-0.137,0-0.25,0.111-0.25,0.25
		c0,0.137,0.113,0.25,0.25,0.25h0.945C39.336,11.977,39.449,11.863,39.449,11.727"/>
	<path fill="#FFFFFF" d="M30.707,11.727c0-0.139-0.111-0.25-0.25-0.25h-0.943c-0.139,0-0.25,0.111-0.25,0.25
		c0,0.137,0.111,0.25,0.25,0.25h0.943C30.596,11.977,30.707,11.863,30.707,11.727"/>
	<path fill="#FFFFFF" d="M37.957,15.326c0.098-0.098,0.098-0.256,0-0.352l-0.666-0.668c-0.1-0.098-0.256-0.098-0.355,0
		c-0.098,0.098-0.098,0.256,0,0.354l0.668,0.666C37.701,15.426,37.859,15.426,37.957,15.326"/>
	<path fill="#FFFFFF" d="M31.775,9.146c0.098-0.1,0.098-0.258,0-0.354l-0.666-0.668c-0.1-0.098-0.256-0.098-0.355,0
		c-0.096,0.098-0.096,0.256,0,0.352l0.668,0.67C31.52,9.244,31.678,9.244,31.775,9.146"/>
	<path fill="#3DC9AE" d="M24,32.883l22.842,14.383C47.551,46.682,48,45.801,48,44.813V17.766L24,32.883z"/>
	<path fill="#4CDBC4" d="M46.842,47.268C46.287,47.723,45.578,48,44.799,48H3.201c-0.773,0-1.482-0.277-2.037-0.732
		C0.455,46.684,0,45.801,0,44.813V17.766L46.842,47.268z"/>
</g>
</svg>
