<?xml version="1.0" encoding="utf-8"?>
<!-- Generator: Adobe Illustrator 18.0.0, SVG Export Plug-In . SVG Version: 6.00 Build 0)  -->
<!DOCTYPE svg PUBLIC "-//W3C//DTD SVG 1.1//EN" "http://www.w3.org/Graphics/SVG/1.1/DTD/svg11.dtd">
<svg version="1.1" id="Layer_1" xmlns="http://www.w3.org/2000/svg" xmlns:xlink="http://www.w3.org/1999/xlink" x="0px" y="0px"
	 viewBox="0 0 48 48" enable-background="new 0 0 48 48" xml:space="preserve">
<g>
	<g>
		<path fill="#F2F2F2" d="M37.1,16.9c-1.4-0.1-2.6,1-2.6,2.3l0-2.8c0-1.2-0.9-2.4-2.1-2.5c-1.4-0.1-2.6,1-2.6,2.3l0-2.8
			c0-1.2-0.9-2.4-2.1-2.5c-1.4-0.1-2.6,1-2.6,2.3l0-2.3c0-1.2-0.9-2.4-2.1-2.5c-1.4-0.1-2.6,1-2.6,2.3v14.9l-3.2-4.4
			c-0.7-1-2.1-1.4-3.2-0.8c-1.2,0.7-1.6,2.3-0.8,3.4l5.2,7.2c2.5,3.6,3.9,7.8,3.9,12.2v0h14.6v-7.1l0,0c1.6-3.9,2.4-8.1,2.4-12.3
			v-4.7C39.2,18.1,38.3,17,37.1,16.9z"/>
	</g>
	<rect x="20.2" y="41.2" fill="#40596B" width="18" height="6.8"/>
	<rect x="8.8" y="0" fill="#FF7058" width="18.4" height="25"/>
	<g>
		<path fill="#F2F2F2" d="M17.1,21.4c-0.7-1-2.1-1.4-3.2-0.8c-1.2,0.7-1.6,2.3-0.8,3.4l0.9,1.3h5.8L17.1,21.4z"/>
	</g>
</g>
</svg>
