<?xml version="1.0" encoding="utf-8"?>
<!-- Generator: Adobe Illustrator 18.0.0, SVG Export Plug-In . SVG Version: 6.00 Build 0)  -->
<!DOCTYPE svg PUBLIC "-//W3C//DTD SVG 1.1//EN" "http://www.w3.org/Graphics/SVG/1.1/DTD/svg11.dtd">
<svg version="1.1" id="Layer_1" xmlns="http://www.w3.org/2000/svg" xmlns:xlink="http://www.w3.org/1999/xlink" x="0px" y="0px"
	 viewBox="0 0 48 48" enable-background="new 0 0 48 48" xml:space="preserve">
<g>
	<g>
		<g>
			<rect y="35.2" fill="#FFD15C" width="48" height="12.8"/>
			<rect y="40.5" fill="#F7B64C" width="48" height="3.5"/>
			<path fill="#F3F3F3" d="M48,36.6c0,0.1-0.1,0.2-0.2,0.1c-1.5-1.3-3.7-1.2-5.1,0.2c-1.5,1.5-3.9,1.5-5.3,0c-1.5-1.5-3.9-1.5-5.3,0
				c-1.5,1.5-3.9,1.5-5.3,0c-1.5-1.5-3.9-1.5-5.3,0c-1.5,1.5-3.9,1.5-5.3,0c-1.5-1.5-3.9-1.5-5.3,0c-1.5,1.5-3.9,1.5-5.3,0
				c-1.4-1.4-3.6-1.5-5.1-0.2c-0.1,0.1-0.2,0-0.2-0.1v-1.7c0-2.9,2.3-5.2,5.2-5.2h37.6c2.9,0,5.2,2.3,5.2,5.2V36.6z"/>
			<rect x="5.3" y="18" fill="#FFD15C" width="37.3" height="11.6"/>
			<path fill="#F3F3F3" d="M42.7,19.4c-1.5-1.5-3.9-1.5-5.3,0c-1.5,1.5-3.9,1.5-5.3,0c-1.5-1.5-3.9-1.5-5.3,0
				c-1.5,1.5-3.9,1.5-5.3,0c-1.5-1.5-3.9-1.5-5.3,0c-1.5,1.5-3.9,1.5-5.3,0c-1.5-1.5-3.9-1.5-5.3,0l0-2.3c0-1.6,1.3-3,3-3h31.4
				c1.6,0,3,1.3,3,3V19.4z"/>
			<path fill="#F3705A" d="M24,13.5c0,0-7.6-4.3-7.6-9.6c0-2.2,1.8-3.9,3.9-3.9C22,0,23.4,1,24,2.5C24.6,1,26,0,27.6,0
				c2.2,0,3.9,1.8,3.9,3.9C31.6,9.2,24,13.5,24,13.5z"/>
			<g>
				<rect x="5.3" y="22.6" fill="#F7B64C" width="37.3" height="3.5"/>
			</g>
		</g>
	</g>
</g>
</svg>
