<?xml version="1.0" encoding="utf-8"?>
<!-- Generator: Adobe Illustrator 18.0.0, SVG Export Plug-In . SVG Version: 6.00 Build 0)  -->
<!DOCTYPE svg PUBLIC "-//W3C//DTD SVG 1.1//EN" "http://www.w3.org/Graphics/SVG/1.1/DTD/svg11.dtd">
<svg version="1.1" id="Layer_1" xmlns="http://www.w3.org/2000/svg" xmlns:xlink="http://www.w3.org/1999/xlink" x="0px" y="0px"
	 viewBox="0 0 48 48" enable-background="new 0 0 48 48" xml:space="preserve">
<g>
	<g>
		<g>
			<path fill="#E8EAE9" d="M45.1,0.1L31.8,4.8c-0.5,0.2-1,0.2-1.4,0L17.6,0.3c-0.5-0.2-1-0.2-1.4,0L1.5,5.5C0.6,5.8,0,6.6,0,7.6
				v32.4c0,1.5,1.5,2.5,2.9,2l13.3-4.7c0.5-0.2,1-0.2,1.4,0l12.7,4.4c0.5,0.2,1,0.2,1.4,0l14.8-5.2c0.9-0.3,1.5-1.1,1.5-2V2.2
				C48,0.7,46.5-0.4,45.1,0.1z"/>
			<g>
				<g>
					<polygon fill="#67C6B9" points="16.9,34.1 2.8,39.1 2.8,8 16.9,3 					"/>
				</g>
				<g>
					<polygon fill="#4ABAA5" points="31.1,39.1 16.9,34.1 16.9,3 31.1,8 					"/>
				</g>
				<g>
					<polygon fill="#67C6B9" points="45.2,34.1 31.1,39.1 31.1,8 45.2,3 					"/>
				</g>
			</g>
		</g>
		<g>
			
				<rect x="33.8" y="34.2" transform="matrix(0.7071 -0.7071 0.7071 0.7071 -15.0566 36.3568)" fill="#354B5E" width="5.2" height="4.3"/>
			<path fill="#435B6C" d="M36.4,19.6c-4.6-4.6-12.1-4.6-16.8,0c-4.6,4.6-4.6,12.1,0,16.8c4.6,4.6,12.2,4.6,16.8,0
				C41,31.7,41,24.2,36.4,19.6z M33.9,33.9c-3.3,3.3-8.6,3.3-11.9,0c-3.3-3.3-3.3-8.6,0-11.9c3.3-3.3,8.6-3.3,11.9,0
				C37.2,25.3,37.2,30.6,33.9,33.9z"/>
			<path fill="#F3705B" d="M47.5,41.6L41.9,36c-0.6-0.7-1.7-0.7-2.4,0L36,39.6c-0.7,0.6-0.7,1.7,0,2.4l5.6,5.6
				c0.7,0.7,1.7,0.7,2.4,0l3.5-3.5C48.2,43.3,48.2,42.3,47.5,41.6z"/>
		</g>
	</g>
</g>
</svg>
