<?xml version="1.0" encoding="utf-8"?>
<!-- Generator: Adobe Illustrator 18.0.0, SVG Export Plug-In . SVG Version: 6.00 Build 0)  -->
<!DOCTYPE svg PUBLIC "-//W3C//DTD SVG 1.1//EN" "http://www.w3.org/Graphics/SVG/1.1/DTD/svg11.dtd">
<svg version="1.1" id="Layer_1" xmlns="http://www.w3.org/2000/svg" xmlns:xlink="http://www.w3.org/1999/xlink" x="0px" y="0px"
	 viewBox="0 0 512 512" enable-background="new 0 0 512 512" xml:space="preserve">
<g>
	<path fill="#40596B" d="M222.7,411.7L124.4,510l-23-99.5L2,387.6l87.4-87.4c-1.9,24.8,3.8,45.9,18.2,60.2
		c18.1,18.2,47.1,22.5,80.7,15.2C198.4,391.5,210.1,403.8,222.7,411.7z"/>
	<path fill="#40596B" d="M510,387.6l-99.5,23l-23,99.5l-98.3-98.3c12.7-7.9,24.3-20.3,34.5-36.2c33.6,7.4,62.5,3,80.7-15.1
		c14.4-14.3,20.1-35.4,18.2-60.2L510,387.6z"/>
	<path fill="#FFD15C" d="M466,212c0-25.7-17.4-49.2-46.4-67.8c7.4-33.6,3-62.6-15.1-80.7c-18.1-18.1-47.1-22.5-80.7-15.1
		C305.2,19.4,281.7,2,256,2c-25.7,0-49.2,17.4-67.8,46.4c-33.6-7.4-62.6-3-80.7,15.1C89.4,81.6,85,110.6,92.4,144.2
		C63.4,162.7,46,186.3,46,212c0,25.7,17.4,49.2,46.4,67.8c-7.4,33.6-3,62.6,15.1,80.7c18.1,18.1,47.1,22.5,80.7,15.1
		c18.5,29,42.1,46.4,67.8,46.4c25.7,0,49.2-17.4,67.8-46.4c33.6,7.4,62.6,3,80.7-15.1c18.1-18.1,22.5-47.1,15.1-80.7
		C448.6,261.2,466,237.6,466,212z"/>
	<circle fill="#F8B64C" cx="256" cy="212" r="146.6"/>
	<g>
		<polygon fill="#FFFFFF" points="224.5,280 174.6,230.1 197.7,207 224.5,233.8 314.3,144 337.4,167 		"/>
	</g>
</g>
</svg>
