<?xml version="1.0" encoding="utf-8"?>
<!-- Generator: Adobe Illustrator 18.0.0, SVG Export Plug-In . SVG Version: 6.00 Build 0)  -->
<!DOCTYPE svg PUBLIC "-//W3C//DTD SVG 1.1//EN" "http://www.w3.org/Graphics/SVG/1.1/DTD/svg11.dtd">
<svg version="1.1" id="Layer_1" xmlns="http://www.w3.org/2000/svg" xmlns:xlink="http://www.w3.org/1999/xlink" x="0px" y="0px"
	 viewBox="0 0 48 48" enable-background="new 0 0 48 48" xml:space="preserve">
<g>
	<g>
		<g>
			<g>
				<g>
					<path fill="#66C6B9" d="M19.9,30.9c-3.5-2.4-9.2-2.4-12.7,0C10.7,33.3,16.4,33.3,19.9,30.9z"/>
				</g>
			</g>
			<g>
				<g>
					<path fill="#66C6B9" d="M19.9,30.4c-0.4-4.2-4.1-8.6-8.2-9.8C12.1,24.8,15.8,29.2,19.9,30.4z"/>
				</g>
			</g>
		</g>
		<g>
			<g>
				<g>
					<path fill="#66C6B9" d="M29,30.5c2.7,3.3,8.2,4.8,12.3,3.4C38.5,30.6,33,29.1,29,30.5z"/>
				</g>
			</g>
			<g>
				<g>
					<path fill="#66C6B9" d="M28.8,31c-0.7,4.2,1.6,9.4,5.3,11.6C34.8,38.4,32.5,33.2,28.8,31z"/>
				</g>
			</g>
		</g>
		<g>
			<g>
				<g>
					<path fill="#66C6B9" d="M29.5,11.4c4.2,0.7,9.4-1.8,11.5-5.5C36.8,5.3,31.6,7.7,29.5,11.4z"/>
				</g>
			</g>
			<g>
				<g>
					<path fill="#66C6B9" d="M29.7,11.9c2.2,3.7,7.4,6,11.6,5.3C39.1,13.5,33.9,11.1,29.7,11.9z"/>
				</g>
			</g>
		</g>
		<g>
			<g>
				<g>
					<path fill="#66C6B9" d="M18.7,11.7c-4.1-1-9.5,1-11.9,4.5C10.9,17.2,16.2,15.2,18.7,11.7z"/>
				</g>
			</g>
			<g>
				<g>
					<path fill="#66C6B9" d="M18.5,11.2c-1.9-3.8-6.9-6.6-11.1-6.3C9.3,8.7,14.3,11.5,18.5,11.2z"/>
				</g>
			</g>
		</g>
		<g>
			<g>
				<g>
					<path fill="#4ABAA5" d="M21,35.3L21,48h6.9l0-12.7c0-1.4,0.4-2.7,1.1-3.9h-9l0,0C20.6,32.6,21,34,21,35.3z"/>
				</g>
				<g>
					<path fill="#66C6B9" d="M19.8,29.6H29c0.5,0,0.9,0.4,0.9,0.9l0,0c0,0.5-0.4,0.9-0.9,0.9l-9.1,0c-0.5,0-0.9-0.4-0.9-0.9l0,0
						C18.9,30,19.3,29.6,19.8,29.6z"/>
				</g>
			</g>
			<g>
				<g>
					<path fill="#4ABAA5" d="M21,25.7c0,1.4-0.4,2.7-1.1,3.9h9h0c-0.7-1.2-1.1-2.5-1.1-3.9l0-9.3c0-1.4,0.4-2.7,1.1-3.9h-9h0
						c0.7,1.2,1.1,2.5,1.1,3.9L21,25.7z"/>
				</g>
				<g>
					<path fill="#4ABAA5" d="M27.8,6.8l0-6.8H21v6.7c0,1.4-0.4,2.7-1.1,3.9h9l0,0C28.2,9.5,27.8,8.1,27.8,6.8z"/>
				</g>
				<g>
					<path fill="#66C6B9" d="M19.8,10.6H29c0.5,0,0.9,0.4,0.9,0.9l0,0c0,0.5-0.4,0.9-0.9,0.9h-9.2c-0.5,0-0.9-0.4-0.9-0.9l0,0
						C18.9,11.1,19.3,10.6,19.8,10.6z"/>
				</g>
			</g>
		</g>
	</g>
</g>
</svg>
