<?xml version="1.0" encoding="utf-8"?>
<!-- Generator: Adobe Illustrator 18.0.0, SVG Export Plug-In . SVG Version: 6.00 Build 0)  -->
<!DOCTYPE svg PUBLIC "-//W3C//DTD SVG 1.1//EN" "http://www.w3.org/Graphics/SVG/1.1/DTD/svg11.dtd">
<svg version="1.1" id="Layer_1" xmlns="http://www.w3.org/2000/svg" xmlns:xlink="http://www.w3.org/1999/xlink" x="0px" y="0px"
	 viewBox="0 0 48 48" enable-background="new 0 0 48 48" xml:space="preserve">
<g>
	<g>
		<g>
			<g>
				<rect x="1" y="17" fill="#FFD15C" width="13.7" height="27.2"/>
			</g>
			<g>
				<rect x="1" y="17" fill="#F7B64C" width="13.7" height="1.3"/>
			</g>
			<g>
				<rect x="0" y="13.8" fill="#FFD15C" width="15.7" height="3.3"/>
			</g>
		</g>
		<g>
			<g>
				<rect x="33.3" y="23" fill="#F3705A" width="13.7" height="21.2"/>
			</g>
			<g>
				<rect x="33.3" y="23" fill="#F05540" width="13.7" height="1.3"/>
			</g>
			<g>
				<rect x="32.3" y="19.8" fill="#F3705A" width="15.7" height="3.3"/>
			</g>
		</g>
		<path fill="#FFFFFF" d="M8.7,26.7c0.3-0.4,0.4-0.7,0.4-1.1c0-0.4-0.1-0.6-0.3-0.9c-0.2-0.2-0.5-0.4-0.9-0.4
			c-0.7,0-1.3,0.5-1.9,1.4L4,24.7c0.5-0.8,1-1.3,1.6-1.7c0.6-0.4,1.3-0.6,2.3-0.6c0.9,0,1.7,0.3,2.4,0.9c0.7,0.6,1,1.4,1,2.4
			c0,0.5-0.1,1.1-0.4,1.6c-0.3,0.5-0.8,1.1-1.5,1.9l-1.9,2h4.2v2.1H4.2v-1.8l3.1-3.2C7.9,27.6,8.4,27.1,8.7,26.7z"/>
		<path fill="#FFFFFF" d="M37,30.3v-2h6.5V30l-2.2,2.5c0.8,0.1,1.5,0.5,2,1.1c0.5,0.6,0.7,1.2,0.7,2c0,1.1-0.4,2-1.1,2.6
			c-0.8,0.6-1.7,0.9-2.9,0.9c-1.2,0-2.4-0.4-3.6-1.2l1-1.9c1,0.7,1.9,1.1,2.7,1.1c0.5,0,0.9-0.1,1.2-0.3c0.3-0.2,0.5-0.6,0.5-1
			c0-0.4-0.2-0.8-0.5-1c-0.4-0.3-0.8-0.4-1.5-0.4c-0.3,0-0.8,0.1-1.4,0.3v-1.7l2-2.4H37z"/>
		<g>
			<rect x="17.2" y="7" fill="#66C6B9" width="13.7" height="37.2"/>
		</g>
		<g>
			<rect x="17.2" y="7" fill="#4ABAA5" width="13.7" height="1.3"/>
		</g>
		<g>
			<rect x="16.1" y="3.8" fill="#66C6B9" width="15.7" height="3.3"/>
		</g>
		<path fill="#FFFFFF" d="M21.9,12.3h4.3v10.6h-2.3v-8.6h-2V12.3z"/>
	</g>
</g>
</svg>
