<?xml version="1.0" encoding="utf-8"?>
<!-- Generator: Adobe Illustrator 18.0.0, SVG Export Plug-In . SVG Version: 6.00 Build 0)  -->
<!DOCTYPE svg PUBLIC "-//W3C//DTD SVG 1.1//EN" "http://www.w3.org/Graphics/SVG/1.1/DTD/svg11.dtd">
<svg version="1.1" id="Layer_1" xmlns="http://www.w3.org/2000/svg" xmlns:xlink="http://www.w3.org/1999/xlink" x="0px" y="0px"
	 viewBox="0 0 48 48" enable-background="new 0 0 48 48" xml:space="preserve">
<g>
	<g>
		<g>
			<path fill="#354B5E" d="M39,22.9c-0.9,1.2-7.2,1-15,1.1c-7.8-0.1-14.1,0-15-1.1C18.5,17.7,28.5,17.7,39,22.9z"/>
		</g>
		<g>
			<g>
				<path fill="#F15741" d="M35,34.5c-2.1-1.4-5.2-0.1-7.9,3.5c-2.3,3.1-4.3,7.7-2.8,8.9c1.5,1.3,6.1-1.2,9-4.1
					C36.8,39.4,37.2,36,35,34.5z"/>
				<g>
					<path fill="#F15741" d="M32.4,43.1c-1.5,0-2.7,1.1-2.7,2.6h5.8C35.2,44.3,33.9,43.1,32.4,43.1z"/>
					<path fill="#F15741" d="M15.6,43.1c-1.5,0-2.9,1.1-3.1,2.6h5.8C18.3,44.3,17.1,43.1,15.6,43.1z"/>
				</g>
				<path fill="#F15741" d="M20.9,38.1c-2.7-3.7-5.8-5-7.9-3.5c-2.2,1.5-1.7,4.9,1.7,8.3c2.9,2.9,7.6,5.4,9,4.1
					C25.1,45.7,23.2,41.2,20.9,38.1z"/>
			</g>
		</g>
		<g>
			<g>
				<path fill="#F3705B" d="M32.5,36.8c0.5,5.5-3.2,10.5-8.5,10.5s-9.1-5-8.5-10.5c0.5-4.9,4.3-8.5,8.5-8.5
					C28.2,28.4,32,31.9,32.5,36.8z"/>
			</g>
			<path fill="#F15741" d="M24,18.6c-5.4,0-9.7,6.2-9.7,9.8c0,3.7,4.3,6.6,9.7,6.6c5.4,0,9.7-3,9.7-6.6C33.7,24.8,29.4,18.6,24,18.6
				z"/>
			<g>
				<g>
					<ellipse fill="#354B5E" cx="23" cy="27.4" rx="0.6" ry="0.4"/>
				</g>
				<g>
					<ellipse fill="#354B5E" cx="25" cy="27.4" rx="0.6" ry="0.4"/>
				</g>
			</g>
			<g>
				<g>
					<g>
						<circle fill="#F15741" cx="18.9" cy="22.8" r="4.2"/>
					</g>
					<g>
						<circle fill="#FFFFFF" cx="18.9" cy="22.8" r="3.5"/>
					</g>
					<g>
						<circle fill="#354B5E" cx="18.9" cy="22.8" r="2.1"/>
					</g>
					<g>
						<circle fill="#FFFFFF" cx="19.9" cy="21.9" r="0.5"/>
					</g>
				</g>
				<g>
					<g>
						<circle fill="#F15741" cx="29.1" cy="22.8" r="4.2"/>
					</g>
					<g>
						<circle fill="#FFFFFF" cx="29.1" cy="22.8" r="3.5"/>
					</g>
					<g>
						<circle fill="#354B5E" cx="29.1" cy="22.8" r="2.1"/>
					</g>
					<g>
						<circle fill="#FFFFFF" cx="30" cy="21.9" r="0.5"/>
					</g>
				</g>
			</g>
			<g>
				<path fill="#354B5E" d="M28.1,29.6c0.4,0.1-0.4,2.2-4.1,2.2c-3.8,0-4.5-2.2-4.1-2.2c0.3-0.1,1.6,1.1,4.1,1.1
					C26.5,30.7,27.8,29.5,28.1,29.6z"/>
			</g>
		</g>
		<g>
			<path fill="#F15741" d="M27.4,45.3c-1.5,0-2.8,1.2-2.9,2.7h5.9C30.3,46.5,29,45.3,27.4,45.3z"/>
			<path fill="#F15741" d="M20.6,45.3c-1.5,0-2.9,1.2-3.1,2.7h5.9C23.3,46.5,22.1,45.3,20.6,45.3z"/>
		</g>
		<g>
			<path fill="#354B5E" d="M35,0c-9.4-0.6-17.3,9-22.9,20c7.7-2.5,15.5-2.3,23.8,0C29.8,11.9,27.7,4.6,35,0z"/>
			<g>
				<line fill="none" stroke="#FFFFFF" stroke-width="0.5" stroke-miterlimit="10" x1="20.4" y1="12.5" x2="20.8" y2="16"/>
			</g>
			<path fill="#4ABAA5" d="M32.9,19.8"/>
		</g>
		<path fill="#FFD15D" d="M32.4,14.5c-2.4-0.9-5.2-1.6-8.3-1.6c0,0-0.1,0-0.1,0c-3.4,0-6.4,0.7-8.9,1.8c-1,1.7-2,3.5-2.9,5.3
			c1-0.3,2-0.6,3-0.8c2.2-1.2,5.2-2.3,8.9-2.3c0,0,0.1,0,0.1,0c3.8,0,6.8,1.1,9,2.4c0.9,0.2,1.9,0.4,2.8,0.7
			C34.5,18.1,33.3,16.2,32.4,14.5z"/>
		<path fill="#435B6C" d="M24,14.9c-10,0-16.1,7-15,8c0.9,1.2,7.2-2.9,15-2.8c7.8-0.1,14.1,3.9,15,2.8C40.1,21.9,34,14.9,24,14.9z"
			/>
		<path fill="#FFFFFF" d="M20.5,16L21,16l-0.1-0.8c-0.2,0-0.3,0-0.5,0.1L20.5,16z"/>
		<g>
			<g>
				<path fill="none" stroke="#FFFFFF" stroke-width="0.5" stroke-miterlimit="10" d="M21.8,15.9l-2,0.2c-0.3,0-0.5-0.2-0.6-0.4
					l-0.3-2.5c0-0.3,0.2-0.5,0.4-0.6l2-0.2c0.3,0,0.5,0.2,0.6,0.4l0.3,2.5C22.3,15.6,22.1,15.9,21.8,15.9z"/>
			</g>
		</g>
	</g>
</g>
</svg>
