<?xml version="1.0" encoding="utf-8"?>
<!-- Generator: Adobe Illustrator 18.0.0, SVG Export Plug-In . SVG Version: 6.00 Build 0)  -->
<!DOCTYPE svg PUBLIC "-//W3C//DTD SVG 1.1//EN" "http://www.w3.org/Graphics/SVG/1.1/DTD/svg11.dtd">
<svg version="1.1" id="Layer_1" xmlns="http://www.w3.org/2000/svg" xmlns:xlink="http://www.w3.org/1999/xlink" x="0px" y="0px"
	 viewBox="0 0 48 48" enable-background="new 0 0 48 48" xml:space="preserve">
<g>
	<path fill="#415A6B" d="M44,31.2H4V6.6c0-1.1,0.9-2,2-2h36c1.1,0,2,0.9,2,2V31.2z"/>
	<g>
		<rect x="6.7" y="7.3" fill="#FFFFFF" width="34.6" height="21.4"/>
	</g>
	<polygon fill="#CED6E0" points="48,39.1 0,39.1 4,31.2 44,31.2 	"/>
	<polygon fill="#ADB3BA" points="19.1,37.8 20.9,34.1 27.1,34.1 28.9,37.8 	"/>
	<path fill="#ADB3BA" d="M4.3,43.4h39.4c2.4,0,4.3-1.9,4.3-4.3v0H0v0C0,41.5,1.9,43.4,4.3,43.4z"/>
	<path fill="#4EC0AA" d="M38,9.6c-3.1,0.6-5.2,4.7-6.1,7.2c-1.3,3.3-0.9,4.5-6.5,7.9c-0.5-0.3-1-0.6-1.4-0.9c-2.9-2.5-2.2-6.6,0-9.4
		c0,0,0,0,0,0c0.7-0.9,1.5-1.7,2.4-2.3C30.2,9.2,35,9.7,38,9.6z"/>
	<g>
		<path fill="#415A6B" d="M26.3,26.9c-0.7-7,2-13.6,7.8-16.2c-5.4,2.4-10.3,8.5-8.9,16.2H26.3z"/>
		<g>
			<g>
				<path fill="#415A6B" d="M26,19.3c1.9-1.3,3.4-2,4.5-3c-1,1.1-2.4,2-4.1,3.4C26.3,19.6,26.2,19.5,26,19.3z"/>
			</g>
			<g>
				<path fill="#415A6B" d="M27.7,17.1c-0.2-2,0.7-3.9,1.9-5.3c-1.4,1.4-2.5,3.3-2.5,5.3C27.3,17.1,27.5,17.1,27.7,17.1z"/>
			</g>
			<g>
				<path fill="#415A6B" d="M29.6,14c-0.2,0.2-0.4,0.4-0.6,0.6c1.4-0.8,2.6-1.6,4-2.2C31.8,12.9,30.8,13.5,29.6,14z"/>
			</g>
		</g>
	</g>
	<path opacity="0.4" fill="#415A6B" d="M24.2,23.7c-2.9-2.5-2.2-6.6,0-9.4c-0.2,1.3,0.4,2.2,0.6,2.8C25.3,18.8,25.5,20.7,24.2,23.7z
		"/>
	<g>
		<g>
			<g>
				<g>
					<g>
						<g>
							<path fill="#66C6B9" d="M23.6,23.4C28.8,12.3,13.7,11.6,9.9,9C13.1,15,11.3,26,23.6,23.4z"/>
							<g>
								<g>
									<g>
										<path fill="#415A6B" d="M20.2,20.2c0.1-2-0.1-3.9-0.8-5.5c0.9,1.5,1.3,3.3,1.4,5.3C20.6,20.1,20.4,20.2,20.2,20.2z"/>
									</g>
									<g>
										<path fill="#415A6B" d="M19,18.1c-2.1-0.2-3.7-0.7-5.1-1.4c1.3,0.9,2.9,1.6,4.8,2C18.8,18.4,18.9,18.2,19,18.1z"/>
									</g>
									<g>
										<path fill="#415A6B" d="M16.4,16c0.2,0.2,0.4,0.4,0.5,0.5c-0.4-1.5-1.1-2.7-1.9-4C15.6,13.6,16.1,14.7,16.4,16z"/>
									</g>
								</g>
							</g>
						</g>
						<g>
							<path fill="#415A6B" d="M26.4,26.9c-5-7.5-11.6-12.4-11.6-12.4s5.2,4.7,9.6,12.4H26.4z"/>
						</g>
					</g>
				</g>
			</g>
		</g>
	</g>
</g>
</svg>
