<?xml version="1.0" encoding="utf-8"?>
<!-- Generator: Adobe Illustrator 18.0.0, SVG Export Plug-In . SVG Version: 6.00 Build 0)  -->
<!DOCTYPE svg PUBLIC "-//W3C//DTD SVG 1.1//EN" "http://www.w3.org/Graphics/SVG/1.1/DTD/svg11.dtd">
<svg version="1.1" id="Layer_1" xmlns="http://www.w3.org/2000/svg" xmlns:xlink="http://www.w3.org/1999/xlink" x="0px" y="0px"
	 viewBox="0 0 512 512" enable-background="new 0 0 512 512" xml:space="preserve">
<g>
	<path fill="#89D6F7" d="M419.2,263.1c-0.4-2.1-0.8-4.3-1.2-6.4c-17.2-84.6-85.3-150.6-171-164.9c-6.3-1.1-12.6-1.8-19-2.3
		c-5.2-0.4-10.4-0.6-15.8-0.6c-13.2,0-26.1,1.2-38.6,3.6c-0.6,0.1-1.2,0.2-1.9,0.3c-52.2,10.2-97.5,39.6-128,80.6
		c-2.4,3.1-4.5,6.2-6.7,9.4C14.9,216.2,2,256.1,2,299.1c0,116.1,94.1,210.2,210.1,210.2c116.1,0,210.2-94.1,210.2-210.2
		C422.3,286.8,421.3,274.8,419.2,263.1z"/>
	<g>
		<path fill="#55BFE9" d="M200.9,128.7c-0.3,6.7-9.8,7.2-16.1,9.5c-4.5,1.8-8,5.4-11.5,8.7c-8,7.5-16.9,14-26.6,19.3
			c-10,5.4-23.9,8.8-31.3,0.2c23.8-9.8,41.9-31.2,50.1-55.6c-11.5,6.3-20.2,16.4-30.2,24.8c-11.3,9.5-24.3,16.8-35.2,26.7
			c-10.8,10-19.8,23.6-19.2,38.3c-0.1-8.4-5.3-16.3-12.3-21c-7.1-4.7-15.8-6.4-24.2-6.3c-0.2,0-0.5,0-0.7,0.1
			c30.5-41.1,75.8-70.5,128-80.6c0.6-0.1,1.2-0.2,1.9-0.3c2.5,10.7,9.4,20.4,18.7,26.3C196.2,121.2,201.1,124,200.9,128.7z"/>
		<path fill="#55BFE9" d="M247,91.8c5.1,2.9,10.2,6.1,13.7,10.6c1,1.2,1.9,2.8,1.6,4.2c-0.7,3.8-6.4,3-9.9,4.6
			c-5.9,2.7-4,12.1,1.3,15.9c5.3,3.8,12.2,4.2,18,7.2c2.3,1.1,4.5,3.2,4.1,5.7c-0.2,1.4-1.1,2.4-2,3.4c-6.9,7.7-13.8,15.5-20.7,23.3
			c-1.8,1.9-3.6,4-6,5.1c-3.1,1.6-6.8,1.5-10.3,1.4c-13.4-0.4-30.2,2.5-33.8,15.5c-0.8,3.2-0.8,6.9-3.1,9.3c-2,2.3-5.5,2.9-7.2,5.5
			c-2.6,4,1,9,1.7,13.8c1,7.5-7.8,14.5-14.8,11.6c-0.3-8.1-0.5-16.3-0.7-24.5c-0.1-1.4-0.1-2.8-0.8-3.8c-0.8-1.3-2.5-1.9-4-2.3
			c-7.7-2.4-17.4-4-22.8,2c-5.4,6-2.7,15.6,1.6,22.5c4.3,6.8,10.1,13.5,10.3,21.5c0.1,4-1.9,8.5-5.7,9.3c-5.7,1.2-9.4-6.1-9.7-12
			c-7.3,15.2-9.9,32.7-6.9,49.4c-11.8,3-23.6,6-35.4,8.9c-4.3,1.1-8.9,2.4-11.7,5.9c-2.7,3.3-2.9,7.9-2.9,12.1
			c0.2,14.5,3.9,28.9,10.6,41.7c2.4,4.3,5.1,8.7,9.1,11.6c11,8.3,26.8,4,40.2,7.7c11.4,3.2,20.4,12.2,26.1,22.5
			c5.7,10.3,8.6,22,11.2,33.5c1.2,5.3,2.6,11,6.4,14.9c4.5,4.5,11.1,5.8,17.3,6.7c10.6,1.8,22.2,3.3,31.5-2
			c8-4.5,13.2-13.4,21.7-16.7c5.8-2.2,12.3-1.4,18.4-2.8c6-1.4,12.3-6.6,11-12.7c-1.2-5.8-9-9.9-7.2-15.6c1.2-3.9,6-5,9.8-6.3
			c17.3-5.9,26.6-28.7,18.1-45c-1.3-2.5-3-5.1-3.3-8c-0.6-8.9,11.7-11.9,17.7-18.4c5.5-5.9,5.6-14.9,6.4-22.9
			c0.8-8,4-17.2,11.7-19.5c7.6-2.3,15.1,3.6,19.8,9.9c4.5,6.4,8.1,14,14.7,18.2c0.2-13.9,0.3-27.9,0.6-41.8c0.1-5,0.3-10.4,3.4-14.2
			c5.4-6.4,15.5-4.8,23.7-3c2.7,0.6,5.6,1.1,8.2,0.8C400.8,172.1,332.7,106.1,247,91.8z M288.3,228.3l0.8-0.3
			c2.4,0.1,4.6,0.1,6.9,0.2c-1.2,5,0.2,10.5,3.6,14.4c1.5,1.7,3.3,3,4.9,4.8c3.7,4.2,4.8,10.4,2.8,15.6c-4.5,0.3-9.1,0.6-13.6-0.5
			c-4.3-1.1-8.6-3.8-10.4-8c-1.1-2.6-1.2-5.4-1.3-8.2C281.8,239.8,282.4,231.7,288.3,228.3z M226.3,300.4
			c-6.9-1.2-12.8-5.5-18.9-8.8c-8.9-4.7-19-7.3-29-7.3c-3.6-0.1-7.2,0.2-10.6-0.6c-3.4-0.9-6.8-3.2-7.8-6.6
			c-1.2-4.3,1.8-8.8,5.5-11.4c3.7-2.5,8-4,11.7-6.5l0.7-6.7c8.1,8.2,18,14.6,28.7,18.6c5.1,2,10.6,3.3,16,3.9
			c5.8,0.6,11.5,0.1,17.2-0.3c1.9-0.2,3.8-0.3,5.6-0.5c3.9-0.3,7.7-0.6,11.6-0.9c4.6-0.3,9.5-0.8,13.3-3.6
			c1.5,5.8-1.2,11.8-5.4,15.9c-4.1,4.1-9.6,6.7-15,9.1C242.6,298.2,234.5,301.7,226.3,300.4z M307.4,341.6c-0.3,1.3-1,2.6-2.1,3.3
			c-0.8,0.5-1.8,0.7-2.8,0.7c-8.9,1.2-18.9,2.1-25.9-3.5c-3.3-2.6-5.4-6.3-7.5-9.8c-2.8-4.7-5.4-9.4-8.1-14
			c-2.8-4.7-5.6-10-4.3-15.4c4.2-0.5,8.6-0.2,12.7,0.7l1.2,1.3c-1.4,3.4,0.1,7.4,2.7,9.9c2.5,2.5,6.1,4,9.4,5.3
			c2.8,1.2,5.8,2.3,8.6,3.4c4.1,1.6,8.2,3.3,11.5,6.3C306.2,332.8,308.4,337.3,307.4,341.6z M322.8,297.4c-0.8,0.8-1.8,1.3-2.9,1.6
			c-8.4,2.8-18.5-3.9-19.3-12.7l1.3-1.1c6.2,0,12.3-0.1,18.5-0.1c1.1-0.1,2.3,0,3.2,0.7c0.8,0.8,1,2,1.1,3.2
			C324.9,292,325,295.3,322.8,297.4z"/>
	</g>
	
		<rect x="373" y="243.4" transform="matrix(0.7071 -0.7071 0.7071 0.7071 -70.7528 352.8397)" fill="#F05540" width="35" height="36.9"/>
	<path fill="#41596B" d="M385.4,46.2c-58-58-152.4-58-210.4,0c-58,58-58,152.4,0,210.4c58,58,152.4,58,210.4,0
		C443.4,198.7,443.4,104.3,385.4,46.2z"/>
	<path fill="#FFD05C" d="M498.7,315.5l-46.9-46.9c-15-15-39.4-15-54.5,0c-15,15-15,39.4,0,54.5l46.9,46.9c15,15,39.4,15,54.5,0
		C513.8,355,513.8,330.6,498.7,315.5z"/>
	<path fill="#F2F2F2" d="M354.6,225.9c-41,41-107.8,41-148.9,0c-41-41-41-107.8,0-148.9c41-41,107.8-41,148.9,0
		C395.6,118.1,395.6,184.8,354.6,225.9z"/>
</g>
</svg>
