<?xml version="1.0" encoding="utf-8"?>
<!-- Generator: Adobe Illustrator 18.0.0, SVG Export Plug-In . SVG Version: 6.00 Build 0)  -->
<!DOCTYPE svg PUBLIC "-//W3C//DTD SVG 1.1//EN" "http://www.w3.org/Graphics/SVG/1.1/DTD/svg11.dtd">
<svg version="1.1" id="Layer_1" xmlns="http://www.w3.org/2000/svg" xmlns:xlink="http://www.w3.org/1999/xlink" x="0px" y="0px"
	 viewBox="0 0 48 48" enable-background="new 0 0 48 48" xml:space="preserve">
<g>
	<g>
		<g>
			<g>
				<path fill="#F3F3F3" d="M41.5,6.3C37.7,2.4,32.3,0,26.4,0C14.7,0,5.1,9.5,5.1,21.3L0.3,32.8c-0.3,0.6,0.2,1.3,0.9,1.3h4v4.4
					c0,2.3,1.8,4.1,4.1,4.1h3.9V48h25.6v-0.2c0-5,1.8-9.7,4.8-13.7c2.7-3.6,4.2-8,4.2-12.8C47.8,15.4,45.4,10.1,41.5,6.3z"/>
			</g>
		</g>
		<g>
			<g>
				<g>
					<path fill="#344A5E" d="M23.5,35.2c0.4,1,1.4,1.7,2.6,1.7s2.2-0.7,2.6-1.7H23.5z"/>
				</g>
			</g>
			<g>
				<g>
					<g>
						<g>
							<path fill="#FFD15C" d="M21.7,30h8.6c0.4-1,1-1.9,1.8-2.7c1.8-1.8,2.7-4.4,2.4-7.2c-0.5-3.8-3.7-6.9-7.5-7.3
								c-5.1-0.6-9.5,3.5-9.5,8.5c0,2.3,0.9,4.3,2.3,5.9C20.7,28,21.3,29,21.7,30z"/>
						</g>
					</g>
				</g>
				<g>
					<g>
						<g>
							<g>
								<g>
									<path fill="#F7B64C" d="M31,20.4c-0.5,0.5-1.2,0.8-1.9,0.8c-0.1,0-0.2,0-0.4,0L27.4,30h-1.1l1.4-9.3
										c-0.2-0.1-0.3-0.2-0.5-0.4c-0.6-0.6-1.6-0.6-2.2,0c-0.1,0.1-0.3,0.3-0.5,0.4l1.4,9.3h-1.1l-1.3-8.9
										c-0.8,0.1-1.7-0.2-2.3-0.8c-0.2-0.2-0.2-0.6,0-0.8c0.2-0.2,0.6-0.2,0.8,0c0.6,0.6,1.6,0.6,2.3,0c1.1-1.1,2.8-1.1,3.8,0
										c0.6,0.6,1.6,0.6,2.2,0c0.2-0.2,0.6-0.2,0.8,0C31.2,19.8,31.2,20.2,31,20.4z"/>
								</g>
							</g>
						</g>
					</g>
				</g>
				<g>
					<g>
						<path fill="#344A5E" d="M21.7,30.8v3.7c0,0.6,0.5,1.1,1.1,1.1h6.4c0.6,0,1.1-0.5,1.1-1.1v-3.7H21.7z"/>
					</g>
				</g>
			</g>
			<g>
				<g>
					<g>
						<path fill="#415A6B" d="M30.3,31.4h-8.6c-0.4,0-0.7-0.3-0.7-0.7s0.3-0.7,0.7-0.7h8.6c0.4,0,0.7,0.3,0.7,0.7
							S30.7,31.4,30.3,31.4z"/>
					</g>
				</g>
				<g>
					<g>
						<path fill="#415A6B" d="M30.3,34.4h-8.6c-0.4,0-0.7-0.3-0.7-0.7c0-0.4,0.3-0.7,0.7-0.7h8.6c0.4,0,0.7,0.3,0.7,0.7
							C31.1,34,30.7,34.4,30.3,34.4z"/>
					</g>
				</g>
			</g>
			<g>
				<g>
					<path fill="#FFD15C" d="M26.1,12H26c-0.3,0-0.5-0.2-0.5-0.5v-1.3c0-0.3,0.2-0.5,0.5-0.5h0.1c0.3,0,0.5,0.2,0.5,0.5v1.3
						C26.6,11.7,26.4,12,26.1,12z"/>
				</g>
			</g>
			<g>
				<g>
					<path fill="#FFD15C" d="M21.4,13.2l-0.1,0.1c-0.2,0.1-0.5,0.1-0.7-0.2L20,11.9c-0.1-0.2-0.1-0.5,0.2-0.7l0.1-0.1
						c0.2-0.1,0.5-0.1,0.7,0.2l0.7,1.2C21.8,12.7,21.7,13,21.4,13.2z"/>
				</g>
			</g>
			<g>
				<g>
					<path fill="#FFD15C" d="M18,16.6l-0.1,0.1c-0.1,0.2-0.4,0.3-0.7,0.2l-1.2-0.7c-0.2-0.1-0.3-0.4-0.2-0.7l0.1-0.1
						c0.1-0.2,0.4-0.3,0.7-0.2l1.2,0.7C18,16,18.1,16.3,18,16.6z"/>
				</g>
			</g>
			<g>
				<g>
					<path fill="#FFD15C" d="M16.7,21.2l0,0.1c0,0.3-0.2,0.5-0.5,0.5h-1.3c-0.3,0-0.5-0.2-0.5-0.5v-0.1c0-0.3,0.2-0.5,0.5-0.5h1.3
						C16.5,20.8,16.7,21,16.7,21.2z"/>
				</g>
			</g>
			<g>
				<g>
					<path fill="#FFD15C" d="M17.9,25.9L18,26c0.1,0.2,0.1,0.5-0.2,0.7l-1.2,0.7c-0.2,0.1-0.5,0.1-0.7-0.2l-0.1-0.1
						c-0.1-0.2-0.1-0.5,0.2-0.7l1.2-0.7C17.5,25.6,17.8,25.7,17.9,25.9z"/>
				</g>
			</g>
			<g>
				<g>
					<path fill="#FFD15C" d="M34.1,26l0.1-0.1c0.1-0.2,0.4-0.3,0.7-0.2l1.2,0.7c0.2,0.1,0.3,0.4,0.2,0.7l-0.1,0.1
						c-0.1,0.2-0.4,0.3-0.7,0.2l-1.2-0.7C34.1,26.6,34,26.3,34.1,26z"/>
				</g>
			</g>
			<g>
				<g>
					<path fill="#FFD15C" d="M35.4,21.4v-0.1c0-0.3,0.2-0.5,0.5-0.5h1.3c0.3,0,0.5,0.2,0.5,0.5v0.1c0,0.3-0.2,0.5-0.5,0.5h-1.3
						C35.6,21.9,35.4,21.6,35.4,21.4z"/>
				</g>
			</g>
			<g>
				<g>
					<path fill="#FFD15C" d="M34.2,16.7l-0.1-0.1c-0.1-0.2-0.1-0.5,0.2-0.7l1.2-0.7c0.2-0.1,0.5-0.1,0.7,0.2l0.1,0.1
						c0.1,0.2,0.1,0.5-0.2,0.7l-1.2,0.7C34.6,17,34.3,16.9,34.2,16.7z"/>
				</g>
			</g>
			<g>
				<g>
					<path fill="#FFD15C" d="M30.8,13.2l-0.1-0.1c-0.2-0.1-0.3-0.4-0.2-0.7l0.7-1.2c0.1-0.2,0.4-0.3,0.7-0.2l0.1,0.1
						c0.2,0.1,0.3,0.4,0.2,0.7l-0.7,1.2C31.3,13.3,31,13.4,30.8,13.2z"/>
				</g>
			</g>
		</g>
	</g>
</g>
</svg>
