<?xml version="1.0" encoding="utf-8"?>
<!-- Generator: Adobe Illustrator 18.0.0, SVG Export Plug-In . SVG Version: 6.00 Build 0)  -->
<!DOCTYPE svg PUBLIC "-//W3C//DTD SVG 1.1//EN" "http://www.w3.org/Graphics/SVG/1.1/DTD/svg11.dtd">
<svg version="1.1" id="Layer_1" xmlns="http://www.w3.org/2000/svg" xmlns:xlink="http://www.w3.org/1999/xlink" x="0px" y="0px"
	 viewBox="0 0 48 48" enable-background="new 0 0 48 48" xml:space="preserve">
<g>
	<path fill="#F2F2F2" d="M38.2,26.2V46c0,1.1-0.9,2-2,2H11.8c-1.1,0-2-0.9-2-2V26.2c0-1.8,0.4-3.6,1-5.2c0.7-1.7,1.7-3.2,3-4.4
		c2.3-2.3,3.6-5.3,3.9-8.4c0-0.4,0.1-0.8,0.1-1.2V6.4h12.4v0.4c0,0.4,0,0.8,0.1,1.2c0.1,1.4,0.5,2.7,1,4c0.7,1.6,1.7,3.1,3,4.4
		C36.8,19.1,38.2,22.5,38.2,26.2z"/>
	<path fill="#84DBFF" d="M11.8,47c-0.6,0-1-0.4-1-1V26.2c0-3.2,1.2-6.2,3.3-8.5h19.8c2.1,2.3,3.3,5.3,3.3,8.5V46c0,0.6-0.4,1-1,1
		H11.8z"/>
	<path fill="#E4EAEF" d="M30.3,8.1H17.7c0-0.4,0.1-0.8,0.1-1.2V6.4h12.4v0.4C30.2,7.3,30.2,7.7,30.3,8.1z"/>
	<path fill="#ACB3BA" d="M30.3,0H17.7c-0.6,0-1,0.4-1,1v4.6c0,0.6,0.4,1,1,1h12.7c0.6,0,1-0.4,1-1V1C31.3,0.4,30.9,0,30.3,0z"/>
	<g>
		<rect x="17.8" y="1.2" fill="#99A8B5" width="1.6" height="4.1"/>
		<rect x="21.4" y="1.2" fill="#99A8B5" width="1.6" height="4.1"/>
		<rect x="25" y="1.2" fill="#99A8B5" width="1.6" height="4.1"/>
		<rect x="28.5" y="1.2" fill="#99A8B5" width="1.6" height="4.1"/>
	</g>
	<rect x="16.3" y="23.9" fill="#FF7058" width="15.4" height="16.9"/>
	<g>
		<path fill="#FFFFFF" d="M24.3,25.4c-2,0.1-3.7,1.7-3.6,3.6c0,0.3,0,0.7,0,1c1.2,0.4,2.2,1.6,2.2,3c0.9,0.2,1.9,0.2,2.8,0
			c0-1.4,1-2.6,2.2-3c0-0.3,0-0.7,0-1C27.9,27.1,26.3,25.4,24.3,25.4z M22.9,30.1c-0.4,0-0.8-0.4-0.8-0.8c0-0.4,0.4-0.8,0.8-0.8
			s0.8,0.4,0.8,0.8C23.7,29.7,23.3,30.1,22.9,30.1z M23.6,31.9l0.7-1.8l0.7,1.8H23.6z M25.7,30.1c-0.4,0-0.8-0.4-0.8-0.8
			c0-0.4,0.4-0.8,0.8-0.8s0.8,0.4,0.8,0.8C26.4,29.7,26.1,30.1,25.7,30.1z"/>
		<g>
			<path fill="#FFFFFF" d="M28,36.1c-1,0.2-2,0-3-0.5l-1.6-0.8c-0.9-0.4-1.8-1.1-2.3-2c-0.2-0.3-0.4-0.5-0.8-0.6
				c-0.5-0.1-1,0.2-1.2,0.7l-0.4,0.8c-0.2,0.5-0.1,1,0.3,1.4c0.3,0.2,0.6,0.3,0.9,0.3c1-0.2,2,0,3,0.5l1.6,0.8
				c0.9,0.4,1.8,1.1,2.3,2c0.2,0.3,0.4,0.5,0.8,0.6c0.5,0.1,1-0.2,1.2-0.7l0.4-0.8c0.2-0.5,0.1-1-0.3-1.4C28.7,36.1,28.4,36,28,36.1
				z"/>
			<path fill="#FFFFFF" d="M28.9,33c-0.2-0.5-0.7-0.8-1.2-0.7c-0.4,0.1-0.7,0.3-0.8,0.6c-0.5,0.9-1.3,1.5-2.3,2L24.4,35l0.8,0.4
				c0.3,0.1,0.5,0.2,0.8,0.3c0.7-0.2,1.4-0.3,2-0.1c0.3,0.1,0.7,0,0.9-0.3c0.4-0.3,0.5-0.9,0.3-1.4L28.9,33z"/>
			<path fill="#FFFFFF" d="M22,36c-0.7,0.2-1.4,0.3-2,0.1c-0.3-0.1-0.7,0-0.9,0.3c-0.4,0.3-0.5,0.9-0.3,1.4l0.4,0.8
				c0.2,0.5,0.7,0.8,1.2,0.7c0.4-0.1,0.7-0.3,0.8-0.6c0.5-0.9,1.3-1.5,2.3-2l0.1-0.1l-0.8-0.4C22.5,36.2,22.3,36.1,22,36z"/>
		</g>
	</g>
</g>
</svg>
