<?xml version="1.0" encoding="utf-8"?>
<!-- Generator: Adobe Illustrator 18.0.0, SVG Export Plug-In . SVG Version: 6.00 Build 0)  -->
<!DOCTYPE svg PUBLIC "-//W3C//DTD SVG 1.1//EN" "http://www.w3.org/Graphics/SVG/1.1/DTD/svg11.dtd">
<svg version="1.1" id="Layer_1" xmlns="http://www.w3.org/2000/svg" xmlns:xlink="http://www.w3.org/1999/xlink" x="0px" y="0px"
	 viewBox="0 0 48 48" enable-background="new 0 0 48 48" xml:space="preserve">
<g>
	<g>
		<path fill="#CDD6E0" d="M20.2,0H6.5c-1.1,0-2,0.9-2,2v44c0,1.1,0.9,2,2,2h13.7c1.1,0,2-0.9,2-2V2C22.2,0.9,21.3,0,20.2,0z
			 M13.4,5.5c-1.1,0-2.1-0.9-2.1-2.1s0.9-2.1,2.1-2.1s2.1,0.9,2.1,2.1S14.5,5.5,13.4,5.5z"/>
		<path fill="#B9CBDB" d="M10.5,0h-4c-1.1,0-2,0.9-2,2v44c0,1.1,0.9,2,2,2h4V0z"/>
		<rect x="4.5" y="6.7" fill="#F2F2F2" width="3.4" height="0.6"/>
		<rect x="4.5" y="12.8" fill="#F2F2F2" width="2.1" height="0.6"/>
		<rect x="4.5" y="18.8" fill="#F2F2F2" width="3.4" height="0.6"/>
		<rect x="4.5" y="24.8" fill="#F2F2F2" width="2.1" height="0.6"/>
		<rect x="4.5" y="30.9" fill="#F2F2F2" width="3.4" height="0.6"/>
		<rect x="4.5" y="36.9" fill="#F2F2F2" width="2.1" height="0.6"/>
		<rect x="4.5" y="43" fill="#F2F2F2" width="3.4" height="0.6"/>
	</g>
	<g>
		<polygon fill="#FFD15C" points="34.7,0 43.5,16.1 25.8,16.1 		"/>
		<g>
			<polygon fill="#84DBFF" points="37.6,16.1 40.5,10.8 43.5,16.1 43.5,33.5 37.6,33.5 			"/>
			<polygon fill="#54C0EB" points="31.7,16.1 34.7,10.8 37.6,16.1 37.6,33.5 31.7,33.5 			"/>
			<polygon fill="#84DBFF" points="25.8,16.1 28.8,10.8 31.7,16.1 31.7,33.5 25.8,33.5 			"/>
		</g>
		<polygon fill="#40596B" points="37.1,4.5 34.7,0 32.2,4.5 		"/>
		<rect x="25.8" y="33.5" fill="#FFD15C" width="17.7" height="5"/>
		<path fill="#FF7058" d="M27.8,48h13.7c1.1,0,2-0.9,2-2v-7.5H25.8V46C25.8,47.1,26.7,48,27.8,48z"/>
	</g>
</g>
</svg>
