<?xml version="1.0" encoding="utf-8"?>
<!-- Generator: Adobe Illustrator 18.0.0, SVG Export Plug-In . SVG Version: 6.00 Build 0)  -->
<!DOCTYPE svg PUBLIC "-//W3C//DTD SVG 1.1//EN" "http://www.w3.org/Graphics/SVG/1.1/DTD/svg11.dtd">
<svg version="1.1" id="Layer_1" xmlns="http://www.w3.org/2000/svg" xmlns:xlink="http://www.w3.org/1999/xlink" x="0px" y="0px"
	 viewBox="0 0 512 512" enable-background="new 0 0 512 512" xml:space="preserve">
<g>
	
		<ellipse transform="matrix(0.9757 -0.2189 0.2189 0.9757 -39.5501 37.3329)" fill="#F8B64C" cx="148.7" cy="197.1" rx="25.5" ry="44"/>
	
		<ellipse transform="matrix(-0.9757 -0.2189 0.2189 -0.9757 659.8939 467.399)" fill="#F8B64C" cx="355.8" cy="197.1" rx="25.5" ry="44"/>
	<polygon fill="#F8B64C" points="180.1,310.9 330.2,310.9 255.1,387.9 	"/>
	<path fill="#FFD15C" d="M371.5,174.6c0,3.6-0.1,7.1-0.4,10.7c-4.2,78-54.5,164.3-116,164.3c-61.5,0-111.9-86.4-116.1-164.4
		c-0.3-3.6-0.4-7.1-0.4-10.6c0-80.6,52.1-136.4,116.5-136.4C319.4,38.1,371.5,94,371.5,174.6z"/>
	<polygon fill="#F2F2F2" points="130.7,360.3 180.1,310.9 255.1,387.9 206.7,440.3 	"/>
	<g>
		<polygon fill="#F2F2F2" points="379.6,360.3 330.2,310.9 255.1,387.9 303.5,440.3 		"/>
	</g>
	<path fill="#40596B" d="M379.3,360l0.3,0.3l-76.1,80l-48.4-52.4l-48.4,52.4l-75.9-79.8C63.6,375.4,13.2,435.3,13.2,507v3h485.6v-3
		C498.8,434.6,447.5,374.2,379.3,360z"/>
	<path fill="#334A5E" d="M255.1,84.8l-111-33.9c0,13.5,0,54.5,0,81.4c72.5,30.7,149.5,30.7,222,0c0-27,0-68,0-81.4L255.1,84.8z"/>
	<polygon fill="#F8B64C" points="468.5,253.3 427.9,253.3 437.5,194.1 458.9,194.1 	"/>
	<polygon fill="#40596B" points="256,2 16.3,51.2 256,100.4 495.7,51.2 	"/>
	<g>
		<path fill="#F8B64C" d="M448.2,173.5c-2.4,0-4.4-2-4.4-4.4V55.5H256c-2.4,0-4.4-2-4.4-4.4c0-2.4,2-4.4,4.4-4.4h192.2
			c2.4,0,4.4,2,4.4,4.4v118C452.6,171.6,450.6,173.5,448.2,173.5z"/>
	</g>
	<path fill="#FFD15C" d="M448.2,204c-11.2,0-20.3-9.1-20.3-20.3c0-11.2,9.1-20.3,20.3-20.3s20.3,9.1,20.3,20.3
		C468.5,194.8,459.4,204,448.2,204z M448.2,175c-4.8,0-8.7,3.9-8.7,8.7c0,4.8,3.9,8.7,8.7,8.7s8.7-3.9,8.7-8.7
		C456.9,178.9,453,175,448.2,175z"/>
	<path fill="#40596B" d="M285,165.7c-4.5,0.8-8.9,2.1-13.2,3.5c-4.4,1.5-11.5,3.6-15.1,3.5c-1,0-2,0-3,0c-3.6,0.1-10.7-2-15.2-3.5
		c-4.3-1.4-8.7-2.7-13.2-3.5c-34.4-6.4-71.4,2.1-71.4,2.1v12.9c0,0,5.2-0.5,7.9,15.7c0,0,3,24.2,12.7,29.6c0,0,9.7,7.1,33.8,4.1
		c0.9-0.1,1.8-0.2,2.6-0.3c4-0.4,20.6-3.1,30.1-24c0,0,1.8-4.6,6.7-18.9c0,0,2.3-4.4,7.4-4.2c5.1-0.2,7.4,4.2,7.4,4.2
		c4.9,14.3,6.7,18.9,6.7,18.9c9.5,20.8,26.1,23.6,30.1,24c0.9,0.1,1.8,0.2,2.6,0.3c24.1,2.9,33.8-4.1,33.8-4.1
		c9.7-5.3,12.7-29.6,12.7-29.6c2.8-16.2,7.9-15.7,7.9-15.7v-12.9C356.4,167.9,319.4,159.3,285,165.7z M236.1,199.1
		c0,0-5.5,20.5-19.4,24.4c0,0-24.5,7.2-38.4-2.1c0,0-9.3-5.8-9.1-35.7c0,0-0.8-14.2,17.7-15.1c0,0,31.2-5.2,47.9,5.4
		C234.9,176,243.1,179.5,236.1,199.1z M341,185.7c0.2,29.9-9.1,35.7-9.1,35.7c-13.9,9.3-38.4,2.1-38.4,2.1
		c-13.9-3.9-19.4-24.4-19.4-24.4c-7-19.6,1.3-23.1,1.3-23.1c16.7-10.5,47.9-5.4,47.9-5.4C341.9,171.4,341,185.7,341,185.7z"/>
</g>
</svg>
