<?xml version="1.0" encoding="utf-8"?>
<!-- Generator: Adobe Illustrator 18.0.0, SVG Export Plug-In . SVG Version: 6.00 Build 0)  -->
<!DOCTYPE svg PUBLIC "-//W3C//DTD SVG 1.1//EN" "http://www.w3.org/Graphics/SVG/1.1/DTD/svg11.dtd">
<svg version="1.1" id="Layer_1" xmlns="http://www.w3.org/2000/svg" xmlns:xlink="http://www.w3.org/1999/xlink" x="0px" y="0px"
	 viewBox="0 0 48 48" enable-background="new 0 0 48 48" xml:space="preserve">
<g>
	<g>
		<g>
			<rect x="8.8" fill="#F3F3F3" width="30.3" height="15"/>
		</g>
		<g>
			<path fill="#8AD7F8" d="M48,17.7v20.1c0,1.5-1.2,2.8-2.7,3c-14.2,1.5-28.4,1.5-42.6,0c-1.5-0.2-2.7-1.5-2.7-3V17.7
				c0-1.5,1.2-2.8,2.7-3c14.2-1.4,28.4-1.4,42.6,0C46.8,14.9,48,16.2,48,17.7z"/>
			<g>
				<path fill="#415A6B" d="M42,33.6v7.6c-12,1-24,1-36,0v-7.6H42z"/>
			</g>
			<g>
				<rect x="8.8" y="36" fill="#F3F3F3" width="30.3" height="12"/>
			</g>
			<g>
				<rect x="12.7" y="40.3" fill="#CED6E0" width="22.5" height="3.3"/>
			</g>
			<circle fill="#F3705A" cx="41.6" cy="20.7" r="2"/>
			<circle fill="#415A6B" cx="41.6" cy="26.9" r="2"/>
		</g>
	</g>
</g>
</svg>
