<?xml version="1.0" encoding="utf-8"?>
<!-- Generator: Adobe Illustrator 18.0.0, SVG Export Plug-In . SVG Version: 6.00 Build 0)  -->
<!DOCTYPE svg PUBLIC "-//W3C//DTD SVG 1.1//EN" "http://www.w3.org/Graphics/SVG/1.1/DTD/svg11.dtd">
<svg version="1.1" id="Layer_1" xmlns="http://www.w3.org/2000/svg" xmlns:xlink="http://www.w3.org/1999/xlink" x="0px" y="0px"
	 viewBox="0 0 48 48" enable-background="new 0 0 48 48" xml:space="preserve">
<g>
	<g>
		<g>
			<g>
				<g>
					<g>
						<polygon fill="#F3F3F3" points="43.9,48 43.9,25.7 24,5.9 4.1,25.7 4.1,48 						"/>
						<path fill="#415A6B" d="M47.3,22.3L25.7,0.7c-0.9-0.9-2.5-0.9-3.4,0L0.7,22.3c-0.9,0.9-0.9,2.5,0,3.4c0.9,0.9,2.5,0.9,3.4,0
							L24,5.9l19.9,19.8c0.9,0.9,2.5,0.9,3.4,0S48.2,23.2,47.3,22.3z"/>
					</g>
				</g>
			</g>
		</g>
		<g>
			<g>
				<g>
					<polygon fill="#F05540" points="34.6,42.7 29.9,42 27.9,46.3 20.6,33.2 27.4,29.5 					"/>
				</g>
				<g>
					<polygon fill="#F3705A" points="13.4,42.7 18.1,42 20.1,46.3 27.4,33.2 20.6,29.5 					"/>
				</g>
			</g>
			<g>
				<path fill="#FFD15C" d="M34.9,27.5c0,1.1-1.2,2-1.6,3c-0.3,1,0.1,2.5-0.5,3.4c-0.6,0.9-2.2,0.9-3.1,1.5
					c-0.9,0.6-1.3,2.1-2.4,2.4c-1,0.3-2.3-0.6-3.4-0.6c-1.1,0-2.4,0.9-3.4,0.6c-1-0.3-1.5-1.8-2.4-2.4c-0.9-0.6-2.4-0.6-3.1-1.5
					c-0.6-0.9-0.2-2.3-0.5-3.4c-0.3-1-1.6-1.9-1.6-3c0-1.1,1.2-2,1.6-3c0.3-1-0.1-2.5,0.5-3.4c0.6-0.9,2.2-0.9,3.1-1.5
					c0.9-0.6,1.3-2.1,2.4-2.4c1-0.3,2.3,0.6,3.4,0.6c1.1,0,2.4-0.9,3.4-0.6c1,0.3,1.5,1.8,2.4,2.4c0.9,0.6,2.4,0.6,3.1,1.5
					c0.6,0.9,0.2,2.3,0.5,3.4C33.7,25.4,34.9,26.4,34.9,27.5z"/>
				<circle fill="#F7B64C" cx="24" cy="27.3" r="6.1"/>
			</g>
		</g>
	</g>
</g>
</svg>
