<?xml version="1.0" encoding="utf-8"?>
<!-- Generator: Adobe Illustrator 18.0.0, SVG Export Plug-In . SVG Version: 6.00 Build 0)  -->
<!DOCTYPE svg PUBLIC "-//W3C//DTD SVG 1.1//EN" "http://www.w3.org/Graphics/SVG/1.1/DTD/svg11.dtd">
<svg version="1.1" id="Layer_1" xmlns="http://www.w3.org/2000/svg" xmlns:xlink="http://www.w3.org/1999/xlink" x="0px" y="0px"
	 viewBox="0 0 512 512" enable-background="new 0 0 512 512" xml:space="preserve">
<g>
	<path fill="#F2F2F2" d="M332.9,2H71.7C60,2,50.5,11.5,50.5,23.2v465.7c0,11.7,9.5,21.2,21.2,21.2h368.7c11.7,0,21.2-9.5,21.2-21.2
		V130.7L332.9,2z"/>
	<path fill="#CDD6E0" d="M332.9,109.5c0,11.7,9.5,21.2,21.2,21.2h107.5L332.9,2L332.9,109.5z"/>
	<g>
		<path fill="#FFD15C" d="M279.5,90.8l-92.9,47.4l73.8,73.8C292.9,179.4,300.4,131.9,279.5,90.8z"/>
		<path fill="#84DBFF" d="M202.9,35.1l-16.3,103.1l92.9-47.4C263.8,60,237,40.6,202.9,35.1z"/>
		<path fill="#FF7058" d="M186.6,138.2l16.3-103.1c-34.1-5.4-65.6,4.8-90.1,29.3c-40.7,40.8-40.7,106.8,0,147.6
			c40.7,40.8,106.8,40.8,147.5,0L186.6,138.2z"/>
	</g>
	<rect x="82.2" y="285.2" fill="#CDD6E0" width="347.5" height="23.1"/>
	<rect x="82.2" y="363" fill="#CDD6E0" width="347.5" height="23.1"/>
	<rect x="82.2" y="440.9" fill="#CDD6E0" width="347.5" height="23.1"/>
</g>
</svg>
