<?xml version="1.0" encoding="utf-8"?>
<!-- Generator: Adobe Illustrator 18.0.0, SVG Export Plug-In . SVG Version: 6.00 Build 0)  -->
<!DOCTYPE svg PUBLIC "-//W3C//DTD SVG 1.1//EN" "http://www.w3.org/Graphics/SVG/1.1/DTD/svg11.dtd">
<svg version="1.1" id="Layer_1" xmlns="http://www.w3.org/2000/svg" xmlns:xlink="http://www.w3.org/1999/xlink" x="0px" y="0px"
	 viewBox="0 0 512 512" enable-background="new 0 0 512 512" xml:space="preserve">
<g>
	<path fill="#40596B" d="M402.5,2h-293c-12.2,0-22.1,9.9-22.1,22.1v463.7c0,12.2,9.9,22.1,22.1,22.1h293c12.2,0,22.1-9.9,22.1-22.1
		V24.1C424.7,11.9,414.7,2,402.5,2z"/>
	<rect x="132.5" y="58.2" fill="#FFFFFF" width="247" height="346.2"/>
	<path fill="#ACB3BA" d="M299,37.6h-86c-0.4,0-0.7-0.3-0.7-0.7V23.2c0-0.4,0.3-0.7,0.7-0.7l86,0c0.4,0,0.7,0.3,0.7,0.7V37
		C299.7,37.3,299.4,37.6,299,37.6z"/>
	<circle fill="#ACB3BA" cx="256" cy="457.2" r="26.5"/>
	<path fill="#FFD15C" d="M334.8,168.1H177.2c-6.7,0-12.1,5.4-12.1,12.1v31.1h181.8v-31.1C346.9,173.5,341.5,168.1,334.8,168.1z"/>
	<path fill="#FFD15C" d="M176.6,211.3v103.8c0,6.7,5.4,12.1,12.1,12.1h134.5c6.7,0,12.1-5.4,12.1-12.1V211.3H176.6z"/>
	<rect x="238" y="211.3" fill="#F1543F" width="35.9" height="5.1"/>
	<rect x="274" y="211.3" fill="#F8B64C" width="61.4" height="5.1"/>
	<rect x="176.6" y="211.3" fill="#F8B64C" width="61.4" height="5.1"/>
	<path fill="#FF7058" d="M287.9,113.6c-16.6,0-30.1,13.5-30.1,30.1v24.4h-3.6v-24.4c0-16.6-13.5-30.1-30.1-30.1h-24.4V138
		c0,16.6,13.5,30.1,30.1,30.1h8.2v159.1H274V168.1h8.2c16.6,0,30.1-13.5,30.1-30.1v-24.4H287.9z M232.7,160.7
		c-9.6,0-17.3-7.8-17.3-17.3v-14h14c9.6,0,17.3,7.8,17.3,17.3v14H232.7z M296.9,144c0,9.6-7.8,17.3-17.3,17.3h-14v-14
		c0-9.6,7.8-17.3,17.3-17.3h14V144z"/>
	<path fill="#F1543F" d="M216.1,164.8c4.1,2.1,8.7,3.4,13.7,3.4h24.4v-3.4H216.1z"/>
	<path fill="#F1543F" d="M257.8,164.8v3.4h24.4c4.9,0,9.6-1.2,13.7-3.4H257.8z"/>
</g>
</svg>
