<?xml version="1.0" encoding="utf-8"?>
<!-- Generator: Adobe Illustrator 18.0.0, SVG Export Plug-In . SVG Version: 6.00 Build 0)  -->
<!DOCTYPE svg PUBLIC "-//W3C//DTD SVG 1.1//EN" "http://www.w3.org/Graphics/SVG/1.1/DTD/svg11.dtd">
<svg version="1.1" id="Layer_1" xmlns="http://www.w3.org/2000/svg" xmlns:xlink="http://www.w3.org/1999/xlink" x="0px" y="0px"
	 viewBox="0 0 48 48" enable-background="new 0 0 48 48" xml:space="preserve">
<g>
	<g>
		<path fill="#F3705B" d="M38.1,5.8c-7.8-7.8-20.4-7.8-28.1,0c-7.8,7.8-7.8,20.3,0,28.1L24,48l14-14C45.8,26.2,45.8,13.6,38.1,5.8z"
			/>
		<g>
			<path fill="#FFFFFF" d="M24,33.7c-7.6,0-13.8-6.2-13.8-13.8c0-7.6,6.2-13.8,13.8-13.8c7.6,0,13.8,6.2,13.8,13.8
				C37.8,27.5,31.6,33.7,24,33.7z"/>
			<g>
				<path fill="#435B6C" d="M24,9.6c-2.9,0-5.3,2.4-5.3,5.3v3.6h2.2v-3.6c0-1.7,1.4-3.1,3.1-3.1c1.7,0,3.1,1.4,3.1,3.1v3.6h2.2v-3.6
					C29.3,12,26.9,9.6,24,9.6z"/>
				<path fill="#67C6B9" d="M30.1,17.3H17.9c-0.5,0-0.9,0.4-0.9,0.9v9.6c0,0.5,0.4,0.9,0.9,0.9h12.2c0.5,0,0.9-0.4,0.9-0.9v-9.6
					C31,17.7,30.6,17.3,30.1,17.3z"/>
				<path fill="#FFFFFF" d="M25.6,22.2c0-0.9-0.7-1.6-1.6-1.6c-0.9,0-1.6,0.7-1.6,1.6c0,0.5,0.3,1,0.7,1.3l-0.7,2.1h3.2l-0.7-2.1
					C25.3,23.2,25.6,22.7,25.6,22.2z"/>
			</g>
		</g>
	</g>
</g>
</svg>
