<?xml version="1.0" encoding="utf-8"?>
<!-- Generator: Adobe Illustrator 18.0.0, SVG Export Plug-In . SVG Version: 6.00 Build 0)  -->
<!DOCTYPE svg PUBLIC "-//W3C//DTD SVG 1.1//EN" "http://www.w3.org/Graphics/SVG/1.1/DTD/svg11.dtd">
<svg version="1.1" id="Layer_1" xmlns="http://www.w3.org/2000/svg" xmlns:xlink="http://www.w3.org/1999/xlink" x="0px" y="0px"
	 viewBox="0 0 48 48" enable-background="new 0 0 48 48" xml:space="preserve">
<g>
	<g>
		<path fill="#CDD6E0" d="M13,39.8H9V16.7C9,7.5,16.4,0.1,25.6,0.1c9.2,0,16.6,7.5,16.6,16.6v2.5h-4v-2.5c0-7-5.7-12.6-12.6-12.6
			S13,9.8,13,16.7V39.8z"/>
	</g>
	<g>
		<rect x="9" y="19.6" fill="#F2F2F2" width="4" height="20.2"/>
	</g>
	<circle fill="#40596B" cx="39.7" cy="41.8" r="6.1"/>
	<circle fill="#FFFFFF" cx="39.7" cy="41.8" r="3.3"/>
	<path fill="#FF7058" d="M31.4,41.8c0-4.6,3.7-8.3,8.3-8.3c3.2,0,5.9,1.8,7.3,4.4v-22c0-1.2-1-2.2-2.2-2.2h-1.7
		c-12.8,0-23.1,10.3-23.1,23.1c0,4.8,3.9,8.7,8.7,8.7h3.5C31.7,44.4,31.4,43.1,31.4,41.8z"/>
	<polygon fill="#CDD6E0" points="14.4,42.7 7.5,42.7 9,39.8 13,39.8 	"/>
	<path fill="#40596B" d="M20.9,47.9H1l0,0c0-2.9,2.4-5.3,5.3-5.3h9.4C18.6,42.7,20.9,45,20.9,47.9L20.9,47.9z"/>
	<path fill="#FFD15C" d="M38.1,23.2c0,0.6-0.2,1.1-0.6,1.4c-0.4,0.4-0.9,0.6-1.4,0.6H23.2c0.8-1.4,1.8-2.8,2.9-4h10
		C37.2,21.2,38.1,22.1,38.1,23.2z"/>
</g>
</svg>
