<?xml version="1.0" encoding="utf-8"?>
<!-- Generator: Adobe Illustrator 18.0.0, SVG Export Plug-In . SVG Version: 6.00 Build 0)  -->
<!DOCTYPE svg PUBLIC "-//W3C//DTD SVG 1.1//EN" "http://www.w3.org/Graphics/SVG/1.1/DTD/svg11.dtd">
<svg version="1.1" id="Layer_1" xmlns="http://www.w3.org/2000/svg" xmlns:xlink="http://www.w3.org/1999/xlink" x="0px" y="0px"
	 viewBox="0 0 48 48" enable-background="new 0 0 48 48" xml:space="preserve">
<g>
	<g>
		<path fill="#334A5E" d="M12.7,12.7c-1.4,1.4-4.1,1.4-7,0.1l29.5,29.5c-1.3-3-1.3-5.6,0.1-7c1.4-1.4,4.1-1.4,7-0.1L12.8,5.7
			C14.1,8.6,14.2,11.3,12.7,12.7z"/>
		<path fill="#40596B" d="M6.9,0.6l5.8,5.8l-1.6,4.7l-4.7,1.6L0.6,6.9c-1,3.2-0.2,6.8,2.4,9.3c3.7,3.7,9.6,3.7,13.3,0
			c3.7-3.7,3.7-9.6,0-13.3C13.7,0.4,10.1-0.4,6.9,0.6z"/>
		<path fill="#40596B" d="M41.1,47.4l-5.8-5.8l1.6-4.7l4.7-1.6l5.8,5.8c1-3.2,0.2-6.8-2.4-9.3c-3.7-3.7-9.6-3.7-13.3,0
			c-3.7,3.7-3.7,9.6,0,13.3C34.3,47.6,37.9,48.4,41.1,47.4z"/>
	</g>
	<g>
		<polygon fill="#FF7058" points="3.8,33.7 7.3,37.2 32.9,11.6 29.4,8 29.1,8.3 		"/>
		
			<rect x="7.2" y="27.2" transform="matrix(-0.7071 0.7071 -0.7071 -0.7071 64.2885 32.6775)" fill="#FF7058" width="36.3" height="5"/>
		
			<rect x="3.7" y="23.6" transform="matrix(-0.7071 0.7071 -0.7071 -0.7071 55.8235 29.1712)" fill="#F1543F" width="36.3" height="5"/>
		<path fill="#F8B64C" d="M42.3,16.1L31.8,5.6l5-5c0.9-0.9,2.3-0.9,3.1,0L47.4,8c0.9,0.9,0.9,2.2,0,3.1L42.3,16.1z"/>
		<polygon fill="#F2F2F2" points="39.7,18.8 29.1,8.3 31.8,5.6 42.3,16.1 		"/>
		<polygon fill="#FFD05C" points="3.8,33.7 0,48 14.3,44.2 		"/>
		<path fill="#41596B" d="M1.4,42.8c0.7,0.5,1.4,1,2.1,1.7c0.7,0.7,1.3,1.4,1.7,2.2L0,48L1.4,42.8z"/>
	</g>
</g>
</svg>
