<?xml version="1.0" encoding="utf-8"?>
<!-- Generator: Adobe Illustrator 18.0.0, SVG Export Plug-In . SVG Version: 6.00 Build 0)  -->
<!DOCTYPE svg PUBLIC "-//W3C//DTD SVG 1.1//EN" "http://www.w3.org/Graphics/SVG/1.1/DTD/svg11.dtd">
<svg version="1.1" id="Layer_1" xmlns="http://www.w3.org/2000/svg" xmlns:xlink="http://www.w3.org/1999/xlink" x="0px" y="0px"
	 viewBox="0 0 48 48" enable-background="new 0 0 48 48" xml:space="preserve">
<g>
	<path fill="#40596B" d="M43.7,48H4.3c-1.1,0-2-0.9-2-2V20.2h43.5V46C45.7,47.1,44.8,48,43.7,48z"/>
	<g>
		<g>
			<circle fill="#334A5E" cx="8.3" cy="25.1" r="2.9"/>
			<circle fill="#334A5E" cx="18.8" cy="25.1" r="2.9"/>
			<circle fill="#334A5E" cx="29.2" cy="25.1" r="2.9"/>
			<circle fill="#334A5E" cx="39.7" cy="25.1" r="2.9"/>
		</g>
		<g>
			<circle fill="#334A5E" cx="13.6" cy="34.1" r="2.9"/>
			<circle fill="#334A5E" cx="24" cy="34.1" r="2.9"/>
			<circle fill="#334A5E" cx="34.4" cy="34.1" r="2.9"/>
		</g>
		<g>
			<circle fill="#334A5E" cx="8.3" cy="43.2" r="2.9"/>
			<circle fill="#334A5E" cx="18.8" cy="43.2" r="2.9"/>
			<circle fill="#334A5E" cx="29.2" cy="43.2" r="2.9"/>
			<circle fill="#334A5E" cx="39.7" cy="43.2" r="2.9"/>
		</g>
	</g>
	<path fill="#CDD6E0" d="M46,20.2H2c-1.1,0-2-0.9-2-2V8.1c0-1.1,0.9-2,2-2h44c1.1,0,2,0.9,2,2v10.1C48,19.3,47.1,20.2,46,20.2z"/>
	<rect x="19.7" y="6.1" fill="#FF7058" width="8.7" height="41.9"/>
	<rect x="2.3" y="20.2" opacity="0.1" fill="#231F20" width="43.5" height="1.6"/>
	<path opacity="0.1" fill="#231F20" d="M9.8,6.1c0.2,1.2,0.6,2.7,1.6,3.5c0.6,0.5,1.4,0.7,2.5,0.7c2.2,0,5.2-1.1,7.5-2
		c0.9,0.2,1.8,0.4,2.6,0.4c0.9,0,1.8-0.1,2.6-0.4c2.3,1,5.3,2,7.5,2h0c1,0,1.9-0.2,2.5-0.7c1-0.8,1.4-2.3,1.6-3.5H9.8z"/>
	<g>
		<g>
			<path fill="#FFD15C" d="M35.7,0.4c-2.1-1.6-10.3,2.3-10.3,2.3v3.4c0,0,8.2,4,10.3,2.3C37.2,7.2,37.2,1.7,35.7,0.4z"/>
			<path fill="#FFD15C" d="M12.3,0.4c-1.6,1.3-1.6,6.8,0,8c2.1,1.6,10.3-2.3,10.3-2.3V2.7C22.6,2.7,14.4-1.2,12.3,0.4z"/>
		</g>
		<path fill="#F8B64C" d="M26.7,6.7c-1.8,0.6-3.7,0.6-5.5,0c-0.7-1.5-0.7-3.1,0-4.6c1.8-0.6,3.7-0.6,5.5,0
			C27.5,3.6,27.5,5.2,26.7,6.7z"/>
	</g>
</g>
</svg>
