<?xml version="1.0" encoding="utf-8"?>
<!-- Generator: Adobe Illustrator 18.0.0, SVG Export Plug-In . SVG Version: 6.00 Build 0)  -->
<!DOCTYPE svg PUBLIC "-//W3C//DTD SVG 1.1//EN" "http://www.w3.org/Graphics/SVG/1.1/DTD/svg11.dtd">
<svg version="1.1" id="Layer_1" xmlns="http://www.w3.org/2000/svg" xmlns:xlink="http://www.w3.org/1999/xlink" x="0px" y="0px"
	 viewBox="0 0 48 48" enable-background="new 0 0 48 48" xml:space="preserve">
<g>
	<g>
		<g>
			<path fill="#8AD7F8" d="M19.7,48H4.4c-1.7,0-3-1.3-3-3V3c0-1.7,1.3-3,3-3h15.3c1.7,0,3,1.3,3,3v42C22.7,46.7,21.3,48,19.7,48z"/>
			<rect x="5.4" y="4" fill="#FFFFFF" width="13.3" height="17.1"/>
			<g>
				<rect x="7.5" y="7.1" fill="#E8EAE9" width="9.1" height="1.4"/>
				<rect x="7.5" y="11" fill="#E8EAE9" width="9.1" height="1.4"/>
				<rect x="7.5" y="14.8" fill="#E8EAE9" width="9.1" height="1.4"/>
			</g>
			<circle fill="#FFFFFF" cx="12" cy="36.9" r="4.7"/>
		</g>
		<g>
			<path fill="#F3705A" d="M43.6,48H28.3c-1.7,0-3-1.3-3-3V3c0-1.7,1.3-3,3-3h15.3c1.7,0,3,1.3,3,3v42C46.6,46.7,45.3,48,43.6,48z"
				/>
			<rect x="29.3" y="4" fill="#FFFFFF" width="13.3" height="17.1"/>
			<g>
				<rect x="31.4" y="7.1" fill="#E8EAE9" width="9.1" height="1.4"/>
				<rect x="31.4" y="11" fill="#E8EAE9" width="9.1" height="1.4"/>
				<rect x="31.4" y="14.8" fill="#E8EAE9" width="9.1" height="1.4"/>
			</g>
			<circle fill="#FFFFFF" cx="36" cy="36.9" r="4.7"/>
		</g>
	</g>
</g>
</svg>
