<?xml version="1.0" encoding="utf-8"?>
<!-- Generator: Adobe Illustrator 18.0.0, SVG Export Plug-In . SVG Version: 6.00 Build 0)  -->
<!DOCTYPE svg PUBLIC "-//W3C//DTD SVG 1.1//EN" "http://www.w3.org/Graphics/SVG/1.1/DTD/svg11.dtd">
<svg version="1.1" id="Layer_1" xmlns="http://www.w3.org/2000/svg" xmlns:xlink="http://www.w3.org/1999/xlink" x="0px" y="0px"
	 viewBox="0 0 48 48" enable-background="new 0 0 48 48" xml:space="preserve">
<g>
	<path fill="#CDD6E0" d="M2.3,19.3c0,0,0-0.2,0-0.2c0.4-0.9,1.8-3.4,6.4-4c0.1,0,0.3-0.1,0.4-0.2c0.3-0.3,1.1-1.2,0.8-2.1
		c0-0.1-0.1-0.2-0.3-0.2c-0.9,0.2-4.7,1.2-7.2,3.1C1.5,17.2,2.2,18.9,2.3,19.3z"/>
	<path fill="#84DBFF" d="M2.4,21.9v4.6L2.5,29c0,0.5,0.2,0.9,0.6,1.1c1.8,1.3,7.4,5,12.7,5.2c1.8,0.1,3.5-1,4.2-2.7l1.7-7L2.4,21.9z
		"/>
	<path fill="#84DBFF" d="M2.4,21.9v4.6L2.5,29c0,0.5,0.2,0.9,0.6,1.1c1.8,1.3,7.4,5,12.7,5.2c1.8,0.1,3.5-1,4.2-2.7l1.7-7L2.4,21.9z
		"/>
	<g opacity="0.3">
		<path fill="#FFFFFF" d="M12.6,23.9L5,31.4c0.3,0.2,0.7,0.4,1.1,0.7l7.9-7.9L12.6,23.9z"/>
		<path fill="#FFFFFF" d="M10.1,23.4l-6.8,6.8c0.2,0.1,0.4,0.3,0.6,0.4l7.1-7.1L10.1,23.4z"/>
	</g>
	<path fill="#CDD6E0" d="M45.7,19.3c0,0,0-0.2,0-0.2c-0.4-0.9-1.8-3.4-6.4-4c-0.1,0-0.3-0.1-0.4-0.2c-0.3-0.3-1.1-1.2-0.8-2.1
		c0-0.1,0.1-0.2,0.3-0.2c0.9,0.2,4.7,1.2,7.2,3.1C46.5,17.2,45.8,18.9,45.7,19.3z"/>
	<path fill="#84DBFF" d="M45.6,21.9v4.6L45.5,29c0,0.5-0.2,0.9-0.6,1.1c-1.8,1.3-7.4,5-12.7,5.2c-1.8,0.1-3.5-1-4.2-2.7l-1.7-7
		L45.6,21.9z"/>
	<g opacity="0.3">
		<path fill="#FFFFFF" d="M37.7,23.4l-9.5,9.5c0.2,0.4,0.4,0.7,0.7,1.1l11-11L37.7,23.4z"/>
		<polygon fill="#FFFFFF" points="34,24.2 27.6,30.6 27.8,31.4 35.3,23.9 		"/>
	</g>
	<path fill="#334A5E" d="M21.2,25.2C18.7,24.3,7.4,21.4,5,20.8c-3.8-1.4-2.5-5-2.5-5c-0.8,0.6-1.4,1.3-1.8,2c-0.6,1.1-1,2.8-0.2,5.2
		c0,0,1,2.1,1.6,3.2c0.1,0.1,0.2,0.2,0.3,0.1c0.1,0,0.1-0.1,0.1-0.2c0-1.2,0.1-3.3,0.9-3.4c1.1-0.1,9.8,1.2,15.3,3.6
		c0,0,2.3,1,1.6,3.5c-0.6,2.1-1,3.4-1.2,3.7c0,0.1,0,0.1,0.1,0.1c0.5,0,1.1-0.4,1.3-0.8l1.3-2.9c0,0,0.6-1.3,2.1-1.3
		c1.5,0,2.1,1.3,2.1,1.3l1.3,2.9c0.2,0.5,0.8,0.8,1.3,0.8c0.1,0,0.1-0.1,0.1-0.1c-0.1-0.4-0.6-1.6-1.2-3.7c-0.7-2.5,1.6-3.5,1.6-3.5
		c5.5-2.4,14.2-3.7,15.3-3.6c0.7,0.1,0.9,2.2,0.9,3.4c0,0.1,0.1,0.1,0.1,0.2c0.1,0,0.3,0,0.3-0.1c0.6-1.1,1.6-3.2,1.6-3.2
		c0.8-2.3,0.4-4-0.2-5.2c-0.4-0.8-1-1.4-1.8-2c0,0,1.3,3.6-2.5,5c-2.5,0.6-13.7,3.5-16.2,4.3C24.9,25.6,23.1,25.6,21.2,25.2z"/>
</g>
</svg>
