<?xml version="1.0" encoding="utf-8"?>
<!-- Generator: Adobe Illustrator 16.0.0, SVG Export Plug-In . SVG Version: 6.00 Build 0)  -->
<!DOCTYPE svg PUBLIC "-//W3C//DTD SVG 1.1//EN" "http://www.w3.org/Graphics/SVG/1.1/DTD/svg11.dtd">
<svg version="1.1" id="Layer_1" xmlns="http://www.w3.org/2000/svg" xmlns:xlink="http://www.w3.org/1999/xlink" x="0px" y="0px"
	 width="48px" height="48px" viewBox="0 0 48 48" enable-background="new 0 0 48 48" xml:space="preserve">
<g>
	<path fill="#40596B" d="M36.023,14.42c-0.464,0-0.931-0.16-1.309-0.488L23.996,4.645l-10.719,9.287
		c-0.835,0.723-2.099,0.633-2.82-0.201c-0.725-0.836-0.634-2.098,0.201-2.822L22.687,0.486c0.752-0.65,1.867-0.65,2.619,0
		l12.029,10.422c0.835,0.725,0.925,1.986,0.201,2.822C37.141,14.186,36.585,14.42,36.023,14.42"/>
	<path fill="#CDD6E0" d="M48,18.82V46c0,1.1-0.9,2-2,2H2c-1.11,0-2-0.9-2-2V18.82c0-1.1,0.89-2,2-2h9.96v-2.41
		c0.47,0,0.94-0.15,1.32-0.48L24,4.65l10.71,9.279c0.38,0.33,0.84,0.49,1.3,0.49l0.011,1.5v0.9H46C47.1,16.82,48,17.721,48,18.82"/>
	<path fill="#BDCCDB" d="M36.021,15.92c-0.841,0-1.65-0.299-2.29-0.85L24,6.631l-9.74,8.439c-0.64,0.551-1.449,0.85-2.29,0.85h-0.01
		v-1.51c0.47,0,0.94-0.15,1.32-0.48L24,4.65l10.71,9.279c0.38,0.33,0.84,0.49,1.3,0.49L36.021,15.92z"/>
	<rect x="36.953" y="22.363" fill="#F2F2F2" width="5.137" height="5.137"/>
	<rect x="5.902" y="22.363" fill="#F2F2F2" width="5.138" height="5.137"/>
	<rect x="36.953" y="37.318" fill="#F2F2F2" width="5.137" height="5.137"/>
	<rect x="5.902" y="37.318" fill="#F2F2F2" width="5.138" height="5.137"/>
	<path fill="#40596B" d="M30.495,38.475V48h-12.99v-9.525c0-3.586,2.908-6.494,6.495-6.494S30.495,34.889,30.495,38.475"/>
	<path fill="#ACB3BA" d="M27.651,14.379H25v-1.828c0-0.553-0.447-1-1-1s-1,0.447-1,1v1.828h-2.651c-0.552,0-1,0.447-1,1s0.448,1,1,1
		H23v6.568c0,0.553,0.447,1,1,1s1-0.447,1-1v-6.568h2.651c0.553,0,1-0.447,1-1S28.204,14.379,27.651,14.379"/>
</g>
</svg>
