<?xml version="1.0" encoding="utf-8"?>
<!-- Generator: Adobe Illustrator 16.0.0, SVG Export Plug-In . SVG Version: 6.00 Build 0)  -->
<!DOCTYPE svg PUBLIC "-//W3C//DTD SVG 1.1//EN" "http://www.w3.org/Graphics/SVG/1.1/DTD/svg11.dtd">
<svg version="1.1" id="Layer_1" xmlns="http://www.w3.org/2000/svg" xmlns:xlink="http://www.w3.org/1999/xlink" x="0px" y="0px"
	 width="48px" height="48px" viewBox="0 0 48 48" enable-background="new 0 0 48 48" xml:space="preserve">
<g>
	<rect x="4.751" y="2.125" fill="#8AD7F8" width="38.498" height="41.021"/>
	<rect x="4.241" y="20.884" fill="#415A6B" width="39.518" height="2"/>
	<path fill="#415A6B" d="M44.249,44.146H3.751V1.125h40.498V44.146z M5.751,42.146h36.498V3.125H5.751V42.146z"/>
	<path fill="#F3705A" d="M34.399,3.381c-0.43,2.55-1.012,20.14,6.344,27.867c0,0-3.979,7.01-3.406,11.174l6.912,0.079V3.381H34.399z
		"/>
	<path fill="#F3705A" d="M13.601,3.381c0.43,2.55,1.012,20.14-6.344,27.867c0,0,3.979,7.01,3.406,11.174l-6.912,0.079V3.381H13.601z
		"/>
	<rect x="22.999" y="2.125" fill="#415A6B" width="2" height="41.021"/>
	<path fill="#E8EAE9" d="M0.157,2.745L0.157,2.745c0,1.517,1.23,2.745,2.746,2.745h42.203c1.516,0,2.744-1.229,2.744-2.745
		C47.851,1.229,46.622,0,45.106,0H2.903C1.388,0,0.157,1.229,0.157,2.745"/>
	<path fill="#E8EAE9" d="M0.022,40.47c0.117,2.517,1.676,4.516,3.598,4.516h40.76c1.922,0,3.48-1.999,3.598-4.516H0.022z"/>
	<path fill="#CED6E0" d="M5.358,44.997C5.896,46.753,7.171,48,8.685,48h30.631c1.514,0,2.789-1.247,3.324-3.003H5.358z"/>
</g>
</svg>
