<?xml version="1.0" encoding="utf-8"?>
<!-- Generator: Adobe Illustrator 18.0.0, SVG Export Plug-In . SVG Version: 6.00 Build 0)  -->
<!DOCTYPE svg PUBLIC "-//W3C//DTD SVG 1.1//EN" "http://www.w3.org/Graphics/SVG/1.1/DTD/svg11.dtd">
<svg version="1.1" id="Layer_1" xmlns="http://www.w3.org/2000/svg" xmlns:xlink="http://www.w3.org/1999/xlink" x="0px" y="0px"
	 viewBox="0 0 48 48" enable-background="new 0 0 48 48" xml:space="preserve">
<g>
	<path fill="#F2F2F2" d="M38.8,44.4c-0.5-9.7-2.6-19.4-2.9-29.1H12.1C11.7,25,9.7,34.7,9.2,44.4c-0.1,2,1.4,3.6,3.4,3.6h22.9
		C37.4,48,38.9,46.4,38.8,44.4z"/>
	<path fill="#FF7058" d="M33.8,25.5H14.2c-0.2,1.8-0.4,3.7-0.7,5.5c-0.6,4.5-1.2,9.1-1.4,13.6c0,0.2,0.1,0.3,0.1,0.4
		c0.1,0.1,0.2,0.1,0.3,0.1h22.9c0.2,0,0.3-0.1,0.3-0.1c0.1-0.1,0.1-0.2,0.1-0.4c-0.2-4.5-0.8-9.1-1.4-13.6
		C34.3,29.1,34,27.3,33.8,25.5z"/>
	<path fill="#54C0EB" d="M37.6,13.6H10.4C10.4,6.1,16.5,0,24,0C31.5,0,37.6,6.1,37.6,13.6z"/>
	<path fill="#84DBFF" d="M37.9,16.5H10.1c-0.9,0-1.7-0.8-1.7-1.7c0-1,0.8-1.7,1.7-1.7h27.7c0.9,0,1.7,0.8,1.7,1.7
		C39.6,15.7,38.8,16.5,37.9,16.5z"/>
	<circle fill="#F2F2F2" cx="14.8" cy="10.5" r="1.1"/>
	<circle fill="#F2F2F2" cx="20.9" cy="10.5" r="1.1"/>
	<circle fill="#F2F2F2" cx="27.1" cy="10.5" r="1.1"/>
	<circle fill="#F2F2F2" cx="33.2" cy="10.5" r="1.1"/>
	<circle fill="#F2F2F2" cx="17" cy="6.4" r="1.1"/>
	<circle fill="#F2F2F2" cx="24" cy="6.4" r="1.1"/>
	<circle fill="#F2F2F2" cx="31" cy="6.4" r="1.1"/>
	<circle fill="#F2F2F2" cx="20.9" cy="3.1" r="1.1"/>
	<circle fill="#F2F2F2" cx="27.1" cy="3.1" r="1.1"/>
</g>
</svg>
