<?xml version="1.0" encoding="utf-8"?>
<!-- Generator: Adobe Illustrator 18.0.0, SVG Export Plug-In . SVG Version: 6.00 Build 0)  -->
<!DOCTYPE svg PUBLIC "-//W3C//DTD SVG 1.1//EN" "http://www.w3.org/Graphics/SVG/1.1/DTD/svg11.dtd">
<svg version="1.1" id="Layer_1" xmlns="http://www.w3.org/2000/svg" xmlns:xlink="http://www.w3.org/1999/xlink" x="0px" y="0px"
	 viewBox="0 0 48 48" enable-background="new 0 0 48 48" xml:space="preserve">
<g>
	<g>
		<g>
			<g>
				<g>
					<path fill="#4ABAA5" d="M27.2,28.3L24.3,1.5c-3.4,6.6-5.8,15.4-7.5,26.7H27.2z"/>
				</g>
				<g>
					<g>
						<path fill="#4ABAA5" d="M30.4,28.3c0.7-4.9,3.3-11.9,10.8-20.1c0.2-0.2,0.3-0.4,0.5-0.6c0.2-0.2,0.3-0.3,0.4-0.4
							c-0.1,0.1-0.2,0.1-0.3,0.2c-0.5,0.3-1,0.7-1.4,1c-3,2.4-13.2,11.1-14.2,19.8H30.4z"/>
					</g>
				</g>
				<g>
					<path fill="#4ABAA5" d="M22.8,28.3C19.1,20.2,12.2,10.7,5.9,2.4c1.5,8.6,3.7,18.4,7.7,25.9H22.8z"/>
				</g>
			</g>
			<g>
				<g>
					<path fill="#66C6B9" d="M29.6,28.3c0.4-6.2,1.8-21.6,5.8-27.4c0.2-0.2,0.3-0.5,0.5-0.7c0.1-0.2,0.1-0.2-0.1,0
						c-0.2,0.2-0.4,0.4-0.5,0.5c-6.1,6.7-10.8,15.5-13.5,27.6H29.6z"/>
				</g>
				<g>
					<path fill="#66C6B9" d="M23.8,28.3c-3.1-7.9-7-16.1-10.6-23.4c1.7,7.5,3.7,15.8,6.3,23.4H23.8z"/>
				</g>
				<g>
					<path fill="#4ABAA5" d="M23.5,28.3c0-0.4,0.1-0.8,0.1-1.3c0.4-2.9,1.1-2.7,1.1-2.7s-0.3-0.6-1.3-0.2c-1,0.4-1.7,1.5-2,2.9
						c-0.1,0.4-0.1,0.9-0.2,1.3H23.5z"/>
				</g>
				<g>
					<path fill="#4ABAA5" d="M21.7,28.3c-0.6-4.3-3-9.7-3-9.7c0.6,3.2,1.2,7,1.5,9.7H21.7z"/>
				</g>
			</g>
		</g>
		<g>
			<g>
				<path fill="#FFD15C" d="M9.3,31.8l2,14.4c0.1,1,1,1.7,2,1.7h15.9c1,0,1.8-0.7,2-1.7l2-14.4H9.3z"/>
			</g>
			<g>
				<rect x="7.9" y="27.6" fill="#FFD15C" width="26.8" height="4.6"/>
			</g>
		</g>
	</g>
</g>
</svg>
