<?xml version="1.0" encoding="utf-8"?>
<!-- Generator: Adobe Illustrator 18.0.0, SVG Export Plug-In . SVG Version: 6.00 Build 0)  -->
<!DOCTYPE svg PUBLIC "-//W3C//DTD SVG 1.1//EN" "http://www.w3.org/Graphics/SVG/1.1/DTD/svg11.dtd">
<svg version="1.1" id="Layer_1" xmlns="http://www.w3.org/2000/svg" xmlns:xlink="http://www.w3.org/1999/xlink" x="0px" y="0px"
	 viewBox="0 0 48 48" enable-background="new 0 0 48 48" xml:space="preserve">
<g>
	<g>
		<polygon fill="#F3705A" points="48,12.8 43.9,3.4 4.1,3.4 0,12.8 		"/>
		<path fill="#FFD15C" d="M45.4,12.8V48H2.6V12.8h11.9c3.5-3.5,5.7-5.7,9.5-9.5l9.5,9.5H45.4z"/>
		<g>
			<rect x="6.6" y="16.8" fill="#415A6B" width="5.9" height="5.4"/>
		</g>
		<g>
			<rect x="16.2" y="16.8" fill="#415A6B" width="5.9" height="5.4"/>
		</g>
		<g>
			<rect x="25.9" y="16.8" fill="#415A6B" width="5.9" height="5.4"/>
		</g>
		<g>
			<rect x="35.6" y="16.8" fill="#415A6B" width="5.9" height="5.4"/>
		</g>
		<g>
			<rect x="6.6" y="26.2" fill="#415A6B" width="5.9" height="5.4"/>
		</g>
		<g>
			<rect x="16.2" y="26.2" fill="#415A6B" width="5.9" height="5.4"/>
		</g>
		<g>
			<rect x="25.9" y="26.2" fill="#415A6B" width="5.9" height="5.4"/>
		</g>
		<g>
			<rect x="35.6" y="26.2" fill="#415A6B" width="5.9" height="5.4"/>
		</g>
		<g>
			<rect x="6.6" y="35.6" fill="#415A6B" width="5.9" height="5.4"/>
		</g>
		<g>
			<rect x="35.6" y="35.6" fill="#415A6B" width="5.9" height="5.4"/>
		</g>
		<path fill="#F05540" d="M36.3,11.5l-11-11c-0.7-0.7-1.9-0.7-2.6,0l-11,11c-0.7,0.7-0.7,1.9,0,2.6c0.7,0.7,1.9,0.7,2.6,0L24,4.5
			l9.7,9.7c0.7,0.7,1.9,0.7,2.6,0l0,0C37,13.4,37,12.3,36.3,11.5z"/>
		<g>
			<rect x="19.4" y="34.6" fill="#415A6B" width="9.2" height="10.3"/>
		</g>
		<g>
			<rect x="0" y="44.9" fill="#F7B64C" width="48" height="3.1"/>
		</g>
	</g>
</g>
</svg>
