<?xml version="1.0" encoding="utf-8"?>
<!-- Generator: Adobe Illustrator 18.0.0, SVG Export Plug-In . SVG Version: 6.00 Build 0)  -->
<!DOCTYPE svg PUBLIC "-//W3C//DTD SVG 1.1//EN" "http://www.w3.org/Graphics/SVG/1.1/DTD/svg11.dtd">
<svg version="1.1" id="Layer_1" xmlns="http://www.w3.org/2000/svg" xmlns:xlink="http://www.w3.org/1999/xlink" x="0px" y="0px"
	 viewBox="0 0 48 48" enable-background="new 0 0 48 48" xml:space="preserve">
<g>
	<rect x="26.4" y="39.9" fill="#F8B64C" width="5.9" height="7.5"/>
	<rect x="15.7" y="39.9" fill="#F8B64C" width="5.9" height="7.5"/>
	<ellipse fill="#F8B64C" cx="24" cy="32" rx="13.8" ry="12.2"/>
	<path fill="#40596B" d="M30.9,44.2h-3c-1.7,0-3.1,1.7-3.1,3.8h9.3C34.1,45.9,32.7,44.2,30.9,44.2z"/>
	<path fill="#40596B" d="M20.2,44.2h-3c-1.7,0-3.1,1.7-3.1,3.8h9.3C23.3,45.9,21.9,44.2,20.2,44.2z"/>
	<g>
		<g>
			<path fill="#CDD6E0" d="M37.9,0L37.9,0c-6.3,2.5-9.4,9.7-6.9,16l0,0C37.4,13.5,40.4,6.3,37.9,0z"/>
			<path fill="#CDD6E0" d="M10.1,0L10.1,0c6.3,2.5,9.4,9.7,6.9,16l0,0C10.6,13.5,7.6,6.3,10.1,0z"/>
		</g>
		<path fill="#FFD15C" d="M24,7.3c-6.1,0-11.6,2.6-11.6,9.3C12.4,33.2,18.2,41,24,44c5.8-3,11.6-10.7,11.6-27.3
			C35.6,9.9,30.1,7.3,24,7.3z"/>
		<path fill="#CDD6E0" d="M27.7,44c-2.4,0.5-4.8,0.5-7.2,0c-0.7-0.1-1.5-0.9-1.7-1.6c-0.5-2-0.5-3.9,0-5.9c0.2-0.7,1-1.4,1.7-1.6
			c2.4-0.5,4.8-0.5,7.2,0c0.7,0.1,1.5,0.9,1.7,1.6c0.5,2,0.5,3.9,0,5.9C29.2,43.1,28.4,43.8,27.7,44z"/>
		<path fill="#F2F2F2" d="M28.9,40.1c3.8-4.3,6.8-11.6,6.8-23.5c0-2.9-1.1-5.1-2.8-6.6C35.9,20.1,22.6,21.2,28.9,40.1z"/>
		<path fill="#F2F2F2" d="M19.1,40.1c-3.8-4.3-6.8-11.6-6.8-23.5c0-2.9,1.1-5.1,2.8-6.6C12.1,20.1,25.4,21.2,19.1,40.1z"/>
		<path fill="#ACB3BA" d="M25.1,45.5h-1.9c-1.7,0-3-1.3-3-3v-0.2h7.9v0.2C28.1,44.2,26.7,45.5,25.1,45.5z"/>
		<path fill="#CDD6E0" d="M29.4,42.3c0,0,0,0.1,0,0.1c-0.2,0.7-1,1.4-1.7,1.6c-2.4,0.5-4.8,0.5-7.2,0c-0.7-0.1-1.5-0.9-1.7-1.6
			c0,0,0-0.1,0-0.1c-0.4-1.9-0.4-3.7,0-5.6c0,0,0-0.1,0-0.1c0.2-0.7,1-1.4,1.7-1.6c2.4-0.5,4.8-0.5,7.2,0c0.7,0.1,1.5,0.9,1.7,1.6
			c0,0,0,0.1,0,0.1C29.9,38.5,29.9,40.4,29.4,42.3z"/>
		<g>
			
				<ellipse transform="matrix(0.8843 -0.4669 0.4669 0.8843 -15.7657 17.4733)" fill="#ACB3BA" cx="27.4" cy="40.5" rx="1.2" ry="2"/>
			
				<ellipse transform="matrix(-0.8843 -0.4669 0.4669 -0.8843 20.3997 86.1534)" fill="#ACB3BA" cx="20.9" cy="40.5" rx="1.2" ry="2"/>
		</g>
		<g>
			<path fill="#FFFFFF" d="M33.8,20.3c0,1.4-1.1,2.5-2.4,2.5c-0.7,0-1.4-0.3-1.9-0.9c0.1-0.2,0.3-0.5,0.4-0.7c0.5-0.9,1-1.7,1.5-2.5
				c0.1-0.2,0.3-0.5,0.4-0.7C33,18.1,33.8,19.1,33.8,20.3z"/>
			<path fill="#40596B" d="M33.1,20.3c0,0.9-0.7,1.7-1.7,1.7c-0.6,0-1.1-0.3-1.4-0.8c0.5-0.9,1-1.7,1.5-2.5c0.2,0,0.4,0.1,0.6,0.1
				c0.4,0.2,0.7,0.5,0.8,0.8C33,19.9,33.1,20.1,33.1,20.3z"/>
			<circle fill="#FFFFFF" cx="32.5" cy="19.3" r="0.6"/>
		</g>
		<g>
			<path fill="#FFFFFF" d="M18.5,21.9c-0.4,0.5-1.1,0.9-1.9,0.9c-1.3,0-2.4-1.1-2.4-2.5c0-1.2,0.8-2.2,2-2.4
				c0.1,0.2,0.3,0.5,0.4,0.7c0.5,0.8,1,1.6,1.5,2.5C18.2,21.4,18.3,21.7,18.5,21.9z"/>
			<path fill="#40596B" d="M18,21.2c-0.3,0.5-0.8,0.8-1.4,0.8c-0.9,0-1.7-0.7-1.7-1.7c0-0.9,0.7-1.6,1.6-1.7
				C17,19.5,17.5,20.3,18,21.2z"/>
		</g>
		<path opacity="0.2" fill="#231F20" d="M18.5,21.9c-0.2,0.3-0.5,0.5-0.8,0.6c-0.4-0.7-0.8-1.4-1.2-2.1c-0.4-0.7-0.8-1.4-1.2-2.1
			c0.3-0.2,0.6-0.3,1-0.4c0.1,0.2,0.3,0.5,0.4,0.7c0.5,0.8,1,1.6,1.5,2.5C18.2,21.4,18.3,21.7,18.5,21.9z"/>
		<path opacity="0.2" fill="#231F20" d="M32.8,18.4c-0.4,0.7-0.8,1.4-1.2,2.1c-0.4,0.7-0.8,1.4-1.2,2.1c-0.3-0.1-0.6-0.4-0.8-0.6
			c0.1-0.2,0.3-0.5,0.4-0.7c0.5-0.9,1-1.7,1.5-2.5c0.1-0.2,0.3-0.5,0.4-0.7C32.2,18,32.5,18.1,32.8,18.4z"/>
		<path fill="#40596B" d="M19.5,5.5c2.3-1.2,7-2.8,10,2.5l0,0c0,0,1.5,4.4-6.4,8c0,0,1.7-1.9,1.2-5.1c0,0-3,5-6.4,7.3s-7,5-7,5
			S8.9,10.9,19.5,5.5z"/>
	</g>
</g>
</svg>
