<?xml version="1.0" encoding="utf-8"?>
<!-- Generator: Adobe Illustrator 18.0.0, SVG Export Plug-In . SVG Version: 6.00 Build 0)  -->
<!DOCTYPE svg PUBLIC "-//W3C//DTD SVG 1.1//EN" "http://www.w3.org/Graphics/SVG/1.1/DTD/svg11.dtd">
<svg version="1.1" id="Layer_1" xmlns="http://www.w3.org/2000/svg" xmlns:xlink="http://www.w3.org/1999/xlink" x="0px" y="0px"
	 viewBox="0 0 48 48" enable-background="new 0 0 48 48" xml:space="preserve">
<g>
	<g>
		<g>
			<path fill="#F3F3F3" d="M48,30.7c0,4.8-3.9,8.7-8.7,8.7h-29C4.6,39.4,0,34.8,0,29.1c0-5.7,4.6-10.3,10.3-10.3
				c1.4,0,2.8,0.3,4,0.8c0.5-3.4,2.3-6.6,5.3-8.7c5.8-4.1,13.8-2.8,17.9,3c1.7,2.4,2.5,5.2,2.4,7.9C44.4,22.2,48,26,48,30.7z"/>
		</g>
		<g>
			<path fill="#344A5E" d="M25.6,28.3l0.9,3.2h-5l0.9-3.2c-1-0.5-1.6-1.6-1.6-2.8c0-1.8,1.4-3.2,3.2-3.2c1.8,0,3.2,1.4,3.2,3.2
				C27.2,26.7,26.5,27.7,25.6,28.3z"/>
		</g>
	</g>
</g>
</svg>
