<?xml version="1.0" encoding="utf-8"?>
<!-- Generator: Adobe Illustrator 18.0.0, SVG Export Plug-In . SVG Version: 6.00 Build 0)  -->
<!DOCTYPE svg PUBLIC "-//W3C//DTD SVG 1.1//EN" "http://www.w3.org/Graphics/SVG/1.1/DTD/svg11.dtd">
<svg version="1.1" id="Layer_1" xmlns="http://www.w3.org/2000/svg" xmlns:xlink="http://www.w3.org/1999/xlink" x="0px" y="0px"
	 viewBox="0 0 48 48" enable-background="new 0 0 48 48" xml:space="preserve">
<g>
	<path fill="#F2F2F2" d="M46,2.1c1.1,0,2,0.9,2,2v40.3c0,1.1-0.9,2-2,2H2c-1.1,0-2-0.9-2-2V4.1c0-1.1,0.9-2,2-2H46z"/>
	<rect x="2" y="4.1" fill="#40596B" width="44" height="10.6"/>
	<rect x="5" y="21" fill="#ACB3BA" width="38" height="19.2"/>
	<g>
		<rect x="5" y="0" fill="#CDD6E0" width="9.5" height="2.1"/>
		<rect x="33.5" y="0" fill="#CDD6E0" width="9.5" height="2.1"/>
	</g>
	<g>
		<rect x="38.8" y="46.5" fill="#ACB3BA" width="6.7" height="1.5"/>
		<rect x="2.5" y="46.5" fill="#ACB3BA" width="6.7" height="1.5"/>
	</g>
	<g>
		<circle fill="#CDD6E0" cx="22.7" cy="9.4" r="2.1"/>
		<circle fill="#CDD6E0" cx="30.7" cy="9.4" r="2.1"/>
		<circle fill="#CDD6E0" cx="38.7" cy="9.4" r="2.1"/>
	</g>
</g>
</svg>
