<?xml version="1.0" encoding="utf-8"?>
<!-- Generator: Adobe Illustrator 18.0.0, SVG Export Plug-In . SVG Version: 6.00 Build 0)  -->
<!DOCTYPE svg PUBLIC "-//W3C//DTD SVG 1.1//EN" "http://www.w3.org/Graphics/SVG/1.1/DTD/svg11.dtd">
<svg version="1.1" id="Layer_1" xmlns="http://www.w3.org/2000/svg" xmlns:xlink="http://www.w3.org/1999/xlink" x="0px" y="0px"
	 viewBox="0 0 48 48" enable-background="new 0 0 48 48" xml:space="preserve">
<g>
	<g>
		<path fill="#CED6E0" d="M17.8,29.3c-1.3,3.6-4.1,12.7-1.9,16c2.3,3.6,12.6,3.6,14.9,0c2.2-3.4-0.7-12.5-1.9-16H17.8z"/>
		<path fill="#F3705A" d="M25,0C12.7-0.6,2.4,9.3,2.4,21.6c0,1.9,0.2,3.7,0.7,5.4c0.8,3.2,4,5.1,7.2,4.4c9.1-2.1,18.3-2.1,27.4,0
			c3.1,0.7,6.3-1.1,7.1-4.3c0.5-1.9,0.8-3.8,0.7-5.9C45.4,10,36.3,0.6,25,0z"/>
		<path fill="#415A6B" d="M5.6,10.3c2.1,3.2,5.6,5.3,9.7,5.3c6.4,0,11.6-5.2,11.6-11.6c0-1.4-0.2-2.6-0.7-3.9C25.8,0.1,25.4,0,25,0
			C16.8-0.4,9.6,3.9,5.6,10.3z"/>
		<path fill="#415A6B" d="M13.3,26.4c0-3.3-2.7-6-6-6c-2,0-3.7,0.9-4.8,2.4c0.1,1.4,0.3,2.8,0.7,4.2c0.8,3.2,4,5.1,7.2,4.4
			c0.2,0,0.4-0.1,0.6-0.1C12.3,30.1,13.3,28.4,13.3,26.4z"/>
		<g>
			<circle fill="#415A6B" cx="31" cy="15.6" r="5.2"/>
		</g>
		<path fill="#415A6B" d="M44.7,27.4c-0.6-1.7-2.3-2.9-4.2-2.9c-2.5,0-4.5,2-4.5,4.5c0,0.8,0.2,1.5,0.6,2.1c0.4,0.1,0.7,0.1,1.1,0.2
			C40.7,32,43.8,30.3,44.7,27.4z"/>
	</g>
</g>
</svg>
