<?xml version="1.0" encoding="utf-8"?>
<!-- Generator: Adobe Illustrator 18.0.0, SVG Export Plug-In . SVG Version: 6.00 Build 0)  -->
<!DOCTYPE svg PUBLIC "-//W3C//DTD SVG 1.1//EN" "http://www.w3.org/Graphics/SVG/1.1/DTD/svg11.dtd">
<svg version="1.1" id="Layer_1" xmlns="http://www.w3.org/2000/svg" xmlns:xlink="http://www.w3.org/1999/xlink" x="0px" y="0px"
	 viewBox="0 0 48 48" enable-background="new 0 0 48 48" xml:space="preserve">
<g>
	<circle fill="#40596B" cx="26.5" cy="8.3" r="8.3"/>
	<g>
		<g>
			<circle fill="#334A5E" cx="26.5" cy="3.8" r="2"/>
			<circle fill="#334A5E" cx="26.5" cy="12.8" r="2"/>
		</g>
		<g>
			<circle fill="#334A5E" cx="30.9" cy="8.3" r="2"/>
			<circle fill="#334A5E" cx="22" cy="8.3" r="2"/>
		</g>
	</g>
	<circle fill="#40596B" cx="10.6" cy="9.6" r="7"/>
	<circle fill="#334A5E" cx="10.6" cy="9.6" r="4.3"/>
	<path fill="#40596B" d="M33.3,18.4H5.1c-1.2,0-2.1,1-2.1,2.1v16.3C3,38,3.9,39,5.1,39h28.1c1.2,0,2.1-1,2.1-2.1V20.6
		C35.4,19.4,34.4,18.4,33.3,18.4z"/>
	<path fill="#40596B" d="M43.2,38.1l-5.9-4.6V24l6-4.1c0.7-0.6,1.8-0.1,1.8,0.8v16.7C45,38.3,43.8,38.8,43.2,38.1z"/>
	<path fill="#334A5E" d="M43.2,38.1l0.1-18.2c0.7-0.6,1.8-0.1,1.8,0.8v16.7C45,38.3,43.8,38.8,43.2,38.1z"/>
	<path fill="#334A5E" d="M37.2,33.5c-0.6,0.2-1.2,0.2-1.8,0c0-2.5,0-7,0-9.5c0.6-0.2,1.2-0.2,1.8,0C37.2,26.5,37.2,31,37.2,33.5z"/>
	<path fill="#FF7058" d="M12.6,39v2.5c0,0.6,0.5,1.1,1.1,1.1h10.9c0.6,0,1.1-0.5,1.1-1.1V39H12.6z"/>
	<polygon fill="#F8B64C" points="28.6,48 23.3,42.6 15.1,42.6 9.8,48 13.6,48 17.8,43.7 17.8,48 20.6,48 20.6,43.7 24.8,48 	"/>
	<rect x="8.6" y="17.2" fill="#CDD6E0" width="21.3" height="1.2"/>
	<path fill="#ACB3BA" d="M31.1,17.2H7.3c-0.3,0-0.6-0.3-0.6-0.6v0c0-0.3,0.3-0.6,0.6-0.6h23.9c0.3,0,0.6,0.3,0.6,0.6v0
		C31.7,17,31.5,17.2,31.1,17.2z"/>
	<path fill="#FF7058" d="M6.1,22.6L6.1,22.6c-0.6,0-1-0.5-1-1v0c0-0.6,0.5-1,1-1h0c0.6,0,1,0.5,1,1v0C7.1,22.2,6.7,22.6,6.1,22.6z"
		/>
	<path fill="#FFD15C" d="M9.6,22.6L9.6,22.6c-0.6,0-1-0.5-1-1v0c0-0.6,0.5-1,1-1h0c0.6,0,1,0.5,1,1v0C10.6,22.2,10.1,22.6,9.6,22.6z
		"/>
	<rect x="12.6" y="39" opacity="0.1" fill="#231F20" width="13.2" height="1.5"/>
	<path fill="#ACB3BA" d="M32.4,32.6h-7.1c-0.6,0-1,0.4-1,1V36c0,0.6,0.4,1,1,1h7.1c0.6,0,1-0.4,1-1v-2.4
		C33.4,33,32.9,32.6,32.4,32.6z"/>
</g>
</svg>
