<?xml version="1.0" encoding="utf-8"?>
<!-- Generator: Adobe Illustrator 18.0.0, SVG Export Plug-In . SVG Version: 6.00 Build 0)  -->
<!DOCTYPE svg PUBLIC "-//W3C//DTD SVG 1.1//EN" "http://www.w3.org/Graphics/SVG/1.1/DTD/svg11.dtd">
<svg version="1.1" id="Layer_1" xmlns="http://www.w3.org/2000/svg" xmlns:xlink="http://www.w3.org/1999/xlink" x="0px" y="0px"
	 viewBox="0 0 48 48" enable-background="new 0 0 48 48" xml:space="preserve">
<g>
	<g>
		<g>
			<g>
				<g>
					<g>
						<path fill="#FFD15C" d="M23.9,30.3c0,0,0.4,2,0,3.7c-0.3,1.2-0.7,2.1-0.3,3.8l-1.8,0.2c0,0-0.4-1-0.7-1.5
							c-0.4-0.5-1.2-2.4-0.2-3.3l-0.3-1L23.9,30.3z"/>
					</g>
				</g>
			</g>
			<g>
				<g>
					<g>
						<path fill="#E8EAE8" d="M21.4,36.9c0.1,0.1,0.3,0.3,0.5,0.4c0.3,0.2,0.6,0.1,1-0.1c0.3-0.1,0.5-0.8,0.7-1.2
							c0,0,0.9,1.5,0.7,2.7s-0.7,1.9-0.7,1.9l-1.8-0.6C21.8,40.1,22.1,37.7,21.4,36.9z"/>
					</g>
				</g>
			</g>
			<g>
				<g>
					<g>
						<path fill="#FFD15C" d="M24.7,29.8c0,0-0.4,1.4,0.5,2c0,0,0,0.4-0.1,0.7c-0.1,0.3,0.5,2,0.5,2s-0.7,2.1,0.2,6.3l1.9,0.2
							c0,0,1.7-3.7,1.2-5.5c-0.5-1.9-1.1-2.8-0.6-5C28.8,28.4,24.7,29.8,24.7,29.8z"/>
					</g>
				</g>
			</g>
			<g>
				<g>
					<g>
						<path fill="#FFD15C" d="M19.5,12.4c0,0,0.4,1.8-1.4,3.3c0,0,1.2,0.3,1.7,0.7c0,0,1.3,0.2,1.5,0c0.2-0.2,0.3-0.6,0.5-0.9
							c0.2-0.3,0.5-0.5,0.5-0.5s0.6-0.5,0.6-0.9c0,0,0.7,0.1,0.4,0.8l-0.4,0.5l0.9-0.4c0,0,0.4-0.2,0.5,0.1c0.1,0.2-0.2,0.4-0.2,0.4
							l-0.7,0.4c0,0,1.1-0.4,1.2-0.2c0.1,0.3-0.1,0.4-0.4,0.5c-0.4,0.1-0.9,0.3-0.9,0.3s1.1-0.4,1.3-0.2c0.2,0.2-0.5,0.5-0.7,0.5
							S23,17.4,23,17.4s0.8-0.1,1,0c0.2,0.1,0.4,0.3,0.1,0.4C23.8,18,23,18,23,18s-0.8,0.6-1.6,0.2c0,0-1.1-0.1-1.5,0.1
							c-0.5,0.2-2.8,0.1-3.6-0.5c-0.8-0.6-0.3-2-0.3-2s0.5-2.1,0.5-2.4c0-0.3,0.2-2.4,1.2-3.1L19.5,12.4z"/>
					</g>
				</g>
			</g>
			<g>
				<g>
					<g>
						<path fill="#425A6B" d="M28.1,20c0,0,1.1,1.7,1.2,2.2c0.1,0.5,0.1,1.2-0.1,1.6c-0.2,0.4,0.1,0.9,0.1,0.9s0.1,0.5-0.2,0.9
							c-0.3,0.5,0,1.9,0,1.9s-0.3,2.4-0.8,3.5c-0.7-1.4-2.7-0.7-3.4,0.4l-0.7-2.5l0,1.4c-0.1,1.1-0.7,1.7-1.5,2.1
							c-0.2,0.1-0.5,0.2-0.8,0.2c-0.5,0-0.8-0.2-1.1-0.6c0,0-0.6-2.2-0.8-3c-0.2-0.8-0.2-1.3-0.2-1.3s-0.4-0.9-0.4-1.2
							c0-0.2-0.3-1.2-0.5-1.8c-0.3-0.5,0-2.7,0-2.7L28.1,20z"/>
					</g>
				</g>
			</g>
			<g>
				<g>
					<g>
						<path fill="#FFD15C" d="M31,10.4c0,0,0.5,1.6,0.6,2c0.1,0.4,0.4,0.8,0.4,1.4s0.1,2.5-0.1,3.8c-0.2,1.3,0.1,2.1,0.1,2.1
							s0,0.3-0.3,0.4c0,0,0.4,1.2,0.4,1.8c0,0.6,0,1.5-0.2,2.2c0,0-0.3,0.1-0.3-0.1c0,0-0.4,0.1-0.4-0.2l0.3-0.7L31.4,23
							c0,0,0,0.4-0.2,0.3c0,0-0.4,0-0.2-0.4c0.1-0.4,0.2-1.1,0.1-1.2c-0.1-0.1-0.3-0.9-0.6-1c0,0-0.5,0.4-0.8-0.1
							c0,0,0.2-0.3,0.2-0.5c0-0.2,0.1-0.6,0.5-0.6c0,0,0-1-0.2-2c-0.3-0.9-0.7-2.8-0.6-4.1c0,0-0.8-1.8-0.7-2.8
							C29,9.7,31,10.4,31,10.4z"/>
					</g>
				</g>
			</g>
			<g>
				<g>
					<g>
						<polygon fill="#56BFEB" points="19.5,12.4 20.2,11.2 19.5,12.8 						"/>
					</g>
				</g>
			</g>
			<g>
				<g>
					<g>
						<polygon fill="#56BFEB" points="29.1,12 28.9,12 28.4,10.6 						"/>
					</g>
				</g>
			</g>
			<g>
				<g>
					<g>
						<polygon fill="#F5B54C" points="25.7,5.1 25.9,5.4 25.9,6.3 26.9,6.8 26.9,9.8 21.8,9.8 22.1,6.5 22.5,6.3 22.4,4.3 						"/>
					</g>
				</g>
			</g>
			<g>
				<g>
					<g>
						<path fill="#F5B54C" d="M25.9,6.2c0,0,0.2,0.2,0.3,0.2c0.1,0.1-0.1,0.1-0.1,0.1s-0.3-0.2-0.3-0.2C25.7,6.3,25.9,6.2,25.9,6.2z
							"/>
					</g>
				</g>
			</g>
			<g>
				<g>
					<g>
						<path fill="#F5B54C" d="M22.5,5.7c0,0,0,0.3-0.2,0.5c-0.2,0.1-0.1,0.5-0.1,0.5h0.6C22.9,6.7,22.6,5.8,22.5,5.7z"/>
					</g>
				</g>
			</g>
			<g>
				<g>
					<g>
						<path fill="#67C5B8" d="M28.9,12c0,0-0.4,1.7-0.3,2.3c0,0.6-0.1,2.8-0.1,3c0,0,0.7,1,0.5,2.1c0,0,0.5,1.6,0.3,2.4
							c0,0-1.6-0.2-2.2,0.3c-0.6,0.5-2.4,0.7-2.4,0.7s-0.8-0.1-1.4,0.2c-0.5,0.3-4-0.1-4.6-0.8l0.8-4c0,0,0.4-2.6-0.2-4.2
							c0.1-0.4,0.2-0.7,0.2-1c0-0.1,0-0.3,0-0.5c0,0,0,0,0,0c-1.1,0.2-2.1-0.2-3-1.1l1.3-2.5c0,0,0.9-1.1,1.7-1.3
							c0.6-0.1,2.2-1,2.8-1.4c0,0.5,0.1,0.9,0.5,1.3c0.7,0.8,1.8,1.2,2.5,1.1c1-0.2,1.5-1.5,0.6-2.3h0c0,0,1.5,0.4,3,1
							c1.4,0.6,1.7,0.7,1.9,1.7c0.2,0.9,0.3,1.5,0.3,1.5c-0.4,1-1,1.6-1.9,1.6H28.9z"/>
					</g>
				</g>
			</g>
			<g>
				<g>
					<g>
						<g>
							<path fill="#FFD15C" d="M25.6,6.1c-0.6,0.7-0.5,0.6-0.8,0.7c-0.5,0.2-0.9,0.2-1.4,0c-0.2-0.1-0.1,0-0.8-0.7
								c-0.6-0.7-0.5-3.2-0.5-3.2V1.3h3.9v1.6C26.1,2.9,26.2,5.4,25.6,6.1z"/>
						</g>
					</g>
				</g>
				<g>
					<g>
						<g>
							<path fill="#425A6B" d="M26.4,3.1c0,0,0,0.1,0,0.1c0,0.2-0.1,0.4-0.2,0.6c0,0.1,0,0.1-0.1,0.2c0,0,0.1-2.3-0.6-2.5
								c-0.7-0.1-0.9,0.1-0.9,0.1c-0.3,0.2-0.6,0.2-0.9,0c0,0-0.2-0.2-0.9-0.1c-0.7,0.1-0.6,2.5-0.6,2.5c0-0.1,0-0.1-0.1-0.2
								C22,3.6,22,3.4,21.9,3.2c0,0,0-0.1,0-0.1c0,0,0-0.1,0-0.1c-0.2-0.8,0-1.6,0.6-2.2C23,0.2,23.6,0,24.2,0
								c0.5,0,1.2,0.2,1.7,0.7c0.6,0.6,0.8,1.4,0.6,2.2C26.4,3,26.4,3,26.4,3.1z"/>
						</g>
					</g>
				</g>
				<g>
					<g>
						<g>
							<g>
								
									<ellipse transform="matrix(0.9969 7.811747e-002 -7.811747e-002 0.9969 0.4199 -2.0302)" fill="#FFD15C" cx="26.2" cy="4.4" rx="0.3" ry="0.8"/>
							</g>
						</g>
					</g>
					<g>
						<g>
							<g>
								
									<ellipse transform="matrix(-0.9969 7.811416e-002 -7.811416e-002 -0.9969 44.5622 6.9617)" fill="#FFD15C" cx="22.1" cy="4.4" rx="0.3" ry="0.8"/>
							</g>
						</g>
					</g>
				</g>
			</g>
			<g>
				<g>
					<g>
						<path fill="#FFD15C" d="M24.5,15.7c-0.1-0.3-1.2,0.2-1.2,0.2l0.7-0.4c0,0,0.4-0.2,0.2-0.4c-0.1-0.2-0.5-0.1-0.5-0.1l-0.9,0.4
							l0.4-0.5c0.4-0.8-0.4-0.8-0.4-0.8c0,0.4-0.6,0.9-0.6,0.9s-0.3,0.1-0.5,0.5c-0.2,0.3-0.3,0.7-0.5,0.9c-0.2,0.2-1.5,0-1.5,0
							c-0.3-0.2-0.8-0.4-1.2-0.5v2.5c0.6,0,1.1,0,1.3-0.1c0.5-0.2,1.5-0.1,1.5-0.1C22.2,18.6,23,18,23,18s0.8,0,1.1-0.1
							c0.3-0.1,0.1-0.4-0.1-0.4c-0.2-0.1-1,0-1,0s0.6-0.5,0.8-0.5c0.2-0.1,0.9-0.3,0.7-0.5c-0.2-0.2-1,0.1-1.2,0.1
							c0.2-0.1,0.6-0.2,0.9-0.3C24.5,16.1,24.7,16,24.5,15.7z"/>
					</g>
				</g>
			</g>
		</g>
		<g>
			<g>
				<g>
					<path fill="#425A6B" d="M23.5,36c0,0,0.5,1.1,0.3,2.9l-0.1,0.7c0,0-0.4,0-0.7-0.2c-0.3-0.2-0.9-0.2-0.9-0.2l-0.3-1.3
						c0,0,0.1,1.3,0,1.8c-0.1,0.4-0.4,1.4-0.2,2.4c0.2,1,0.7,1.7,1.2,1.9c0.5,0.2,1.3,0.1,1.5-0.6c0.2-0.7,0.4-1.7,0-2.7
						c0,0-0.3-1,0.1-2.4C24.8,37,24,36,23.5,36z"/>
				</g>
			</g>
		</g>
		<g>
			<g>
				<g>
					<g>
						<path fill="#344A5E" d="M23.5,39.6v1.9c0,0.9-1,0.9-1,0l-0.1-2.3c0.2,0,0.4,0.1,0.5,0.2C23.1,39.6,23.3,39.6,23.5,39.6z"/>
					</g>
				</g>
			</g>
		</g>
		<g>
			<g>
				<g>
					<path fill="#344A5E" d="M24.1,47c0,0,0.7,0.5,1.1,0.5c0,0,1.6,1.1,2.1,0.2c0,0-1.3-1.4-2.3-1.1C24.1,46.6,24.1,47,24.1,47z"/>
				</g>
			</g>
		</g>
		<g>
			<g>
				<g>
					<path fill="#CED6E0" d="M24.6,45.9l-0.2,0.6L24.1,47c0,0,0.8-0.4,1.3-0.1c0.5,0.2,1.6,0.8,1.8,0.8l0.1-0.6L24.6,45.9z"/>
				</g>
			</g>
		</g>
		<g>
			<g>
				<g>
					<path fill="#E8EAE8" d="M25.7,40.4c0.8-0.1,1.6,0,2.3,0.3c0,0-0.8,3.2-0.5,4.1l-0.2,0.4c-0.9,0.1-1.8,0.1-2.1-0.8
						c0,0,0-1.3,0.6-1.6C25.7,42.8,25.5,40.9,25.7,40.4z"/>
				</g>
			</g>
		</g>
		<g>
			<g>
				<g>
					<path fill="#425A6B" d="M25.2,43.7c0,0-0.1,0.9,0.3,0.7c0,0,0-1,0.6-0.9c0.6,0.1,0.8,0.3,0.9,0.7c0.1,0.4,0.1,0.6,0.2,0.6
						c0.1-0.1,0.2-0.6,0.2-0.6s0.2,0.8-0.1,2.1c-0.1,0.4,0,0.5,0,0.6c0.1,0.1-0.1,0.2-0.1,0.2s-1.1-0.4-1.2-0.6
						c-0.2-0.2-1.2-0.3-1.6,0c0,0,0-0.6,0.3-0.9c0.1-0.2,0.2-0.5,0.3-0.8C24.9,44.5,25.1,44.1,25.2,43.7L25.2,43.7z"/>
				</g>
			</g>
		</g>
	</g>
</g>
</svg>
