<?xml version="1.0" encoding="utf-8"?>
<!-- Generator: Adobe Illustrator 18.0.0, SVG Export Plug-In . SVG Version: 6.00 Build 0)  -->
<!DOCTYPE svg PUBLIC "-//W3C//DTD SVG 1.1//EN" "http://www.w3.org/Graphics/SVG/1.1/DTD/svg11.dtd">
<svg version="1.1" id="Layer_1" xmlns="http://www.w3.org/2000/svg" xmlns:xlink="http://www.w3.org/1999/xlink" x="0px" y="0px"
	 viewBox="0 0 48 48" enable-background="new 0 0 48 48" xml:space="preserve">
<g>
	<g>
		<g>
			<g>
				<path fill="#F3705A" d="M24,8.8L24,8.8C14.2-1-2.4,9.6,2.9,22.5C5.9,30,13,37.2,24,43c11-5.9,18.1-13,21.1-20.6
					C50.4,9.6,33.8-1,24,8.8z"/>
			</g>
		</g>
		<g>
			<path fill="#E8EAE9" d="M47.1,21.6H27.8c-0.3,0-0.5,0.1-0.7,0.3l-2.5,3L23,19.4c-0.1-0.4-0.4-0.6-0.8-0.7c-0.4,0-0.7,0.2-0.9,0.5
				l-4.3,8.6l-1.3-13.9c0-0.4-0.3-0.7-0.7-0.8c-0.4-0.1-0.8,0.1-1,0.4l-4.7,8H0.9C0.4,21.6,0,22,0,22.5c0,0.5,0.4,0.9,0.9,0.9h8.8
				c0.3,0,0.6-0.2,0.8-0.5l3.5-6l1.3,14.3c0,0.4,0.3,0.7,0.7,0.8c0.1,0,0.1,0,0.2,0c0.3,0,0.7-0.2,0.8-0.5l4.7-9.4l1.5,4.9
				c0.1,0.3,0.4,0.6,0.7,0.6c0.3,0.1,0.7-0.1,0.9-0.3l3.3-4h18.9c0.5,0,0.9-0.4,0.9-0.9C48,22,47.6,21.6,47.1,21.6z"/>
		</g>
	</g>
</g>
</svg>
