<?xml version="1.0" encoding="utf-8"?>
<!-- Generator: Adobe Illustrator 16.0.0, SVG Export Plug-In . SVG Version: 6.00 Build 0)  -->
<!DOCTYPE svg PUBLIC "-//W3C//DTD SVG 1.1//EN" "http://www.w3.org/Graphics/SVG/1.1/DTD/svg11.dtd">
<svg version="1.1" id="Layer_1" xmlns="http://www.w3.org/2000/svg" xmlns:xlink="http://www.w3.org/1999/xlink" x="0px" y="0px"
	 width="48px" height="48px" viewBox="0 0 48 48" enable-background="new 0 0 48 48" xml:space="preserve">
<g>
	<path fill="#40596B" d="M12.594,39.738H9.291c-1.105,0-2-0.895-2-2v-2.951h7.303v2.951C14.594,38.843,13.699,39.738,12.594,39.738"
		/>
	<path fill="#40596B" d="M39.308,39.738h-3.303c-1.105,0-2-0.895-2-2v-2.951h7.303v2.951C41.308,38.843,40.412,39.738,39.308,39.738
		"/>
	<path fill="#40596B" d="M6.688,21.134H2.142C0.958,21.134,0,20.176,0,18.993c0-1.182,0.958-2.141,2.142-2.141h2.406
		c1.183,0,2.141,0.959,2.141,2.141V21.134z"/>
	<path fill="#40596B" d="M41.312,21.134h4.547c1.184,0,2.142-0.958,2.142-2.141c0-1.182-0.958-2.141-2.142-2.141h-2.405
		c-1.183,0-2.142,0.959-2.142,2.141V21.134z"/>
	<path fill="#FF7058" d="M33.412,8.262H14.589c-2.467,0-4.665,1.556-5.486,3.882l-2.655,7.529h35.105l-2.655-7.529
		C38.077,9.818,35.879,8.262,33.412,8.262"/>
	<path fill="#F2F2F2" d="M9.709,19.419l1.885-5.905c0.586-1.836,2.163-3.069,3.924-3.069h16.965c1.761,0,3.338,1.233,3.924,3.069
		l1.884,5.905H9.709z"/>
	<path fill="#FF7058" d="M38.935,35.34H9.066c-3.166,0-5.733-2.567-5.733-5.732v-2.053c0-3.166,1.366-8.135,4.532-8.135h32.27
		c3.166,0,4.532,4.969,4.532,8.135v2.053C44.667,32.773,42.101,35.34,38.935,35.34"/>
	<path fill="#FFFFFF" d="M40.584,27.38c0,1.969-1.596,3.565-3.564,3.565s-3.564-1.596-3.564-3.565c0-1.969,1.596-3.565,3.564-3.565
		S40.584,25.411,40.584,27.38"/>
	<path fill="#FFFFFF" d="M14.545,27.38c0,1.969-1.596,3.565-3.564,3.565s-3.564-1.596-3.564-3.565c0-1.969,1.596-3.565,3.564-3.565
		S14.545,25.411,14.545,27.38"/>
</g>
</svg>
