<?xml version="1.0" encoding="utf-8"?>
<!-- Generator: Adobe Illustrator 18.0.0, SVG Export Plug-In . SVG Version: 6.00 Build 0)  -->
<!DOCTYPE svg PUBLIC "-//W3C//DTD SVG 1.1//EN" "http://www.w3.org/Graphics/SVG/1.1/DTD/svg11.dtd">
<svg version="1.1" id="Layer_1" xmlns="http://www.w3.org/2000/svg" xmlns:xlink="http://www.w3.org/1999/xlink" x="0px" y="0px"
	 viewBox="0 0 48 48" enable-background="new 0 0 48 48" xml:space="preserve">
<g>
	<path fill="#40596B" d="M40.4,31.7c-11,0-21.9,0-32.9,0c-3.3,0-6.7-2.6-7.2-6c-0.5-4.3-0.5-8.6,0-12.9c0.4-3.3,3.9-6,7.2-6
		c11,0,21.9,0,32.9,0c3.3,0,6.7,2.6,7.2,6c0.5,4.3,0.5,8.6,0,12.9C47.2,29,43.7,31.7,40.4,31.7z"/>
	<path fill="#FF7058" d="M45,39H3c-1.7,0-3-1.3-3-3v0c0-1.7,1.3-3,3-3h42c1.7,0,3,1.3,3,3v0C48,37.6,46.7,39,45,39z"/>
	<rect x="7.7" y="31.7" fill="#334A5E" width="32.7" height="1.3"/>
	<circle fill="#40596B" cx="9.3" cy="39" r="5.3"/>
	<circle fill="#40596B" cx="38.7" cy="39" r="5.3"/>
	<circle fill="#CDD6E0" cx="38.7" cy="39" r="2.6"/>
	<path fill="#ACB3BA" d="M38.7,37c1.3,0,2.4,1,2.6,2.3c0-0.1,0-0.2,0-0.3c0-1.5-1.2-2.6-2.6-2.6c-1.5,0-2.6,1.2-2.6,2.6
		c0,0.1,0,0.2,0,0.3C36.3,38,37.4,37,38.7,37z"/>
	<rect x="11.7" y="5.9" fill="#ACB3BA" width="5.7" height="1"/>
	<rect x="10.9" y="3.7" fill="#40596B" width="7.3" height="2.2"/>
	<path fill="#ACB3BA" d="M24.8,6.9c2.6,0,4.7,2.1,4.7,4.7V33h1.9v-3.9h5.7V33h1.9V11.5C38.9,7.9,36,5,32.4,5c-0.5,0-0.9,0.4-0.9,0.9
		s0.4,0.9,0.9,0.9c2.3,0,4.2,1.6,4.6,3.7h-5.7C30.8,7.4,28.1,5,24.8,5c-0.5,0-0.9,0.4-0.9,0.9S24.3,6.9,24.8,6.9z M31.3,12.5h5.7
		v3.6h-5.7V12.5z M31.3,18h5.7v3.6h-5.7V18z M31.3,23.5h5.7v3.6h-5.7V23.5z"/>
	<circle fill="#CDD6E0" cx="9.3" cy="39" r="2.6"/>
	<path fill="#ACB3BA" d="M9.3,37c1.3,0,2.4,1,2.6,2.3c0-0.1,0-0.2,0-0.3c0-1.5-1.2-2.6-2.6-2.6c-1.5,0-2.6,1.2-2.6,2.6
		c0,0.1,0,0.2,0,0.3C6.8,38,7.9,37,9.3,37z"/>
	<circle fill="#FF7058" cx="14.5" cy="19.3" r="5.3"/>
	<g>
		<path fill="#F2F2F2" d="M17.1,20.2c0,1.4-1.2,2.6-2.6,2.6S12,21.6,12,20.2s2.6-4.5,2.6-4.5S17.1,18.8,17.1,20.2z"/>
		<g>
			<path fill="#FFFFFF" d="M14.7,22.3c-1.2,0-2.1-0.9-2.1-2.1c0-0.1,0.1-0.2,0.2-0.2c0.1,0,0.2,0.1,0.2,0.2c0,0.9,0.8,1.7,1.7,1.7
				c0.1,0,0.2,0.1,0.2,0.2C14.9,22.2,14.8,22.3,14.7,22.3z"/>
		</g>
	</g>
	<path fill="#F1543F" d="M9.7,20.3c0-3,2.4-5.3,5.3-5.3c1.9,0,3.5,1,4.5,2.4c-0.8-2-2.7-3.4-5-3.4c-3,0-5.3,2.4-5.3,5.3
		c0,1.1,0.3,2.1,0.9,2.9C9.8,21.6,9.7,20.9,9.7,20.3z"/>
</g>
</svg>
