<?xml version="1.0" encoding="utf-8"?>
<!-- Generator: Adobe Illustrator 18.0.0, SVG Export Plug-In . SVG Version: 6.00 Build 0)  -->
<!DOCTYPE svg PUBLIC "-//W3C//DTD SVG 1.1//EN" "http://www.w3.org/Graphics/SVG/1.1/DTD/svg11.dtd">
<svg version="1.1" id="Layer_1" xmlns="http://www.w3.org/2000/svg" xmlns:xlink="http://www.w3.org/1999/xlink" x="0px" y="0px"
	 viewBox="0 0 48 48" enable-background="new 0 0 48 48" xml:space="preserve">
<g>
	<g>
		<path fill="#F2F2F2" d="M37.6,23.2L37.6,23.2V15c0-1.9,1.5-3.4,3.4-3.4v1.8c-0.9,0-1.7,0.8-1.7,1.7v6.5
			C39.4,22.4,38.6,23.2,37.6,23.2z"/>
	</g>
	<path fill="#CDD6E0" d="M41.7,13.8L41.7,13.8c-0.4,0-0.6-0.3-0.6-0.6v-1.5c0-0.4,0.3-0.6,0.6-0.6l0,0c0.4,0,0.6,0.3,0.6,0.6v1.5
		C42.3,13.5,42,13.8,41.7,13.8z"/>
	<path fill="#F2F2F2" d="M24.9,0h-23c-1.1,0-2,0.9-2,2v44c0,1.1,0.9,2,2,2H34c1.1,0,2-0.9,2-2V11L24.9,0z"/>
	<path fill="#CDD6E0" d="M24.9,9c0,1.1,0.9,2,2,2h9l-11-11V9z"/>
	<g>
		<rect x="4.1" y="22.8" fill="#CDD6E0" width="27.7" height="2.5"/>
		<rect x="4.1" y="30.3" fill="#CDD6E0" width="27.7" height="2.5"/>
		<rect x="20.8" y="37.9" fill="#CDD6E0" width="10.9" height="2.5"/>
		<rect x="4.1" y="7.6" fill="#CDD6E0" width="14.8" height="2.5"/>
		<rect x="4.1" y="15.2" fill="#CDD6E0" width="27.7" height="2.5"/>
	</g>
	<path fill="#FF7058" d="M41.7,8.2v32.5l2,4.6l1.2,2.7l1.2-2.7l2-4.6V8.2c0-1.8-1.4-3.2-3.2-3.2l0,0C43.1,5,41.7,6.4,41.7,8.2z"/>
	<rect x="41.7" y="10.2" fill="#40596B" width="6.5" height="8.9"/>
	<rect x="41.7" y="34.9" fill="#40596B" width="6.5" height="5.7"/>
	<polygon fill="#40596B" points="46.1,45.3 44.9,48 43.7,45.3 	"/>
</g>
</svg>
