<?xml version="1.0" encoding="utf-8"?>
<!-- Generator: Adobe Illustrator 18.0.0, SVG Export Plug-In . SVG Version: 6.00 Build 0)  -->
<!DOCTYPE svg PUBLIC "-//W3C//DTD SVG 1.1//EN" "http://www.w3.org/Graphics/SVG/1.1/DTD/svg11.dtd">
<svg version="1.1" id="Layer_1" xmlns="http://www.w3.org/2000/svg" xmlns:xlink="http://www.w3.org/1999/xlink" x="0px" y="0px"
	 viewBox="0 0 512 512" enable-background="new 0 0 512 512" xml:space="preserve">
<g>
	<path fill="#40596B" d="M488.8,2H23.2C11.5,2,2,11.5,2,23.2v465.7c0,11.7,9.5,21.2,21.2,21.2h465.7c11.7,0,21.2-9.5,21.2-21.2V23.2
		C510,11.5,500.5,2,488.8,2z"/>
	<rect x="47.2" y="47.2" fill="#84DBFF" width="417.7" height="122.7"/>
	<rect x="47.2" y="216.6" fill="#FFFFFF" width="185.5" height="100"/>
	<rect x="279.3" y="216.6" fill="#FFFFFF" width="185.5" height="100"/>
	<rect x="47.2" y="363.3" fill="#FFFFFF" width="185.5" height="101.6"/>
	<rect x="279.3" y="363.3" fill="#FFFFFF" width="185.5" height="101.6"/>
	<polygon fill="#FF7058" points="172.6,259.6 146.9,259.6 146.9,233.9 132.9,233.9 132.9,259.6 107.2,259.6 107.2,273.6 
		132.9,273.6 132.9,299.3 146.9,299.3 146.9,273.6 172.6,273.6 	"/>
	<rect x="339.4" y="259.6" fill="#FFD15C" width="65.4" height="14"/>
	<rect x="339.4" y="390.2" fill="#84DBFF" width="65.4" height="14"/>
	<rect x="339.4" y="423.9" fill="#84DBFF" width="65.4" height="14"/>
	<polygon fill="#4CDBC4" points="168,432.2 149.8,414.1 168,395.9 158.1,386 139.9,404.2 121.7,386 111.9,395.9 130,414.1 
		111.9,432.2 121.7,442.1 139.9,423.9 158.1,442.1 	"/>
</g>
</svg>
