<?xml version="1.0" encoding="utf-8"?>
<!-- Generator: Adobe Illustrator 18.0.0, SVG Export Plug-In . SVG Version: 6.00 Build 0)  -->
<!DOCTYPE svg PUBLIC "-//W3C//DTD SVG 1.1//EN" "http://www.w3.org/Graphics/SVG/1.1/DTD/svg11.dtd">
<svg version="1.1" id="Layer_1" xmlns="http://www.w3.org/2000/svg" xmlns:xlink="http://www.w3.org/1999/xlink" x="0px" y="0px"
	 viewBox="0 0 48 48" enable-background="new 0 0 48 48" xml:space="preserve">
<g>
	<g>
		<g>
			<g>
				<path fill="#415A6B" d="M24,21.2c-1.2,0-2.1,0.9-2.1,2.1v1.3c0,4.8-6.3,8.9-11.5,8.9c-4.9,0-8.9-4-8.9-8.9v-0.1
					c0-0.8-0.4-1.6-1-2.1c-0.2-0.1-0.3-0.2-0.5-0.3v-3.5c1.3-0.1,2.5-0.6,3.5-1.5c3.1-2.6,8.4-4.5,15.1,0c1.5,1,3.2,1.5,5,1.5h1
					c1.8,0,3.5-0.5,5-1.5c6.6-4.5,12-2.5,15.1,0c1,0.8,2.2,1.3,3.5,1.5v3.5c-0.1,0.1-0.3,0.2-0.4,0.3c-0.7,0.5-1.1,1.3-1.1,2.1v0.1
					c0,4.9-4,8.9-8.9,8.9c-5.2,0-11.5-4.1-11.5-8.9v-1.3C26.1,22.1,25.2,21.2,24,21.2L24,21.2z"/>
			</g>
		</g>
		<g>
			<path fill="#8AD7F8" d="M10.4,32.1c-4.1,0-7.5-3.4-7.5-7.5s3.4-7.5,7.5-7.5c4.4,0,10,3.5,10,7.5C20.5,28.6,14.9,32.1,10.4,32.1z"
				/>
		</g>
		<g>
			<path fill="#55C0EB" d="M5.6,26.1L5.6,26.1c-0.2-0.3-0.2-0.7,0-0.9l5.9-5.6c0.3-0.2,0.7-0.2,0.9,0l0,0c0.2,0.3,0.2,0.7,0,0.9
				l-5.9,5.6C6.2,26.3,5.8,26.3,5.6,26.1z"/>
			<path fill="#55C0EB" d="M8.9,26L8.9,26c-0.2-0.3-0.2-0.7,0-0.9l2.5-2.4c0.3-0.2,0.7-0.2,0.9,0l0,0c0.2,0.3,0.2,0.7,0,0.9
				l-2.5,2.4C9.5,26.3,9.1,26.3,8.9,26z"/>
		</g>
		<g>
			<g>
				<path fill="#8AD7F8" d="M37.6,32.1c4.1,0,7.5-3.4,7.5-7.5s-3.4-7.5-7.5-7.5c-4.4,0-10,3.5-10,7.5C27.5,28.6,33.1,32.1,37.6,32.1
					z"/>
			</g>
			<g>
				<path fill="#55C0EB" d="M42.4,26.1L42.4,26.1c0.2-0.3,0.2-0.7,0-0.9l-5.9-5.6c-0.3-0.2-0.7-0.2-0.9,0l0,0
					c-0.2,0.3-0.2,0.7,0,0.9l5.9,5.6C41.8,26.3,42.2,26.3,42.4,26.1z"/>
				<path fill="#55C0EB" d="M39.1,26L39.1,26c0.2-0.3,0.2-0.7,0-0.9l-2.5-2.4c-0.3-0.2-0.7-0.2-0.9,0l0,0c-0.2,0.3-0.2,0.7,0,0.9
					l2.5,2.4C38.5,26.3,38.9,26.3,39.1,26z"/>
			</g>
		</g>
	</g>
</g>
</svg>
