<?xml version="1.0" encoding="utf-8"?>
<!-- Generator: Adobe Illustrator 18.0.0, SVG Export Plug-In . SVG Version: 6.00 Build 0)  -->
<!DOCTYPE svg PUBLIC "-//W3C//DTD SVG 1.1//EN" "http://www.w3.org/Graphics/SVG/1.1/DTD/svg11.dtd">
<svg version="1.1" id="Layer_1" xmlns="http://www.w3.org/2000/svg" xmlns:xlink="http://www.w3.org/1999/xlink" x="0px" y="0px"
	 viewBox="0 0 48 48" enable-background="new 0 0 48 48" xml:space="preserve">
<g>
	<g>
		<g>
			<g>
				<circle fill="#4EC0AA" cx="37" cy="24.3" r="7.7"/>
				<circle fill="#4EC0AA" cx="41.7" cy="33.3" r="6.3"/>
			</g>
			<circle fill="#4EC0AA" cx="31" cy="33.3" r="7.3"/>
			<path fill="#344A5E" d="M40.9,29.7c0,0-2,2.5-3.4,6.4l-1.3-11.3l-0.9,7.6l-3.2-4l2.9,6.6L33.9,48h4.7L38,40.6
				C38.2,38,38.8,33.2,40.9,29.7z"/>
		</g>
		<g>
			<path fill="#4EC0AA" d="M48,48v-3.4c-3.1-0.8-6.9-1.2-11-1.2c-8.4,0-15.6,2-18.2,4.7H48z"/>
		</g>
		<g>
			<g>
				<path fill="#66C6B9" d="M32.3,23.8c0,5.6-4.6,10.2-10.2,10.2c-2.3,0-4.5-0.8-6.2-2.1c-1.4,1.1-3.3,1.9-5.3,2.1
					C5.3,34.6,0.6,31.3,0,26.7c-0.4-3.3,1.4-6.3,4.4-8.1c-0.6-2.2-0.7-4.7-0.2-7.2C5.7,4,12-1.1,18.4,0.2c6.1,1.2,10,7.8,8.9,14.9
					C30.3,16.9,32.3,20.1,32.3,23.8z"/>
			</g>
			<path fill="#415A6B" d="M22.1,17.5c-2,2.8-3.7,6.1-4.9,9.4c-0.1-5.8,0.1-11.5,0.8-16.8c-1.8,5.8-2.9,12.1-3.4,18.6
				c-1.8-2.4-3.4-5.2-4.5-7.8c0.7,3.7,2.4,7.4,4.3,10.4C14,36.9,14,42.5,14.4,48h4.7c-0.4-2.3-0.7-4.7-1-7.1
				c-0.8-6.8,0.1-13.7,2.6-20.1C21.2,19.7,21.6,18.5,22.1,17.5z"/>
		</g>
		<g>
			<path fill="#66C6B9" d="M10.3,48c-0.1-2.8-2.3-5.1-5.2-5.1S0.1,45.2,0,48H10.3z"/>
			<path fill="#66C6B9" d="M18,48c0.3-0.7,0.5-1.5,0.5-2.4c0-3.4-2.8-6.2-6.2-6.2s-6.2,2.8-6.2,6.2c0,0.8,0.2,1.6,0.5,2.4H18z"/>
			<path fill="#66C6B9" d="M27.2,48c-1.3-2.3-3.8-3.8-6.6-3.8c-2.8,0-5.2,1.5-6.6,3.8H27.2z"/>
		</g>
	</g>
</g>
</svg>
