<?xml version="1.0" encoding="utf-8"?>
<!-- Generator: Adobe Illustrator 18.0.0, SVG Export Plug-In . SVG Version: 6.00 Build 0)  -->
<!DOCTYPE svg PUBLIC "-//W3C//DTD SVG 1.1//EN" "http://www.w3.org/Graphics/SVG/1.1/DTD/svg11.dtd">
<svg version="1.1" id="Layer_1" xmlns="http://www.w3.org/2000/svg" xmlns:xlink="http://www.w3.org/1999/xlink" x="0px" y="0px"
	 viewBox="0 0 48 48" enable-background="new 0 0 48 48" xml:space="preserve">
<g>
	<path fill="#F2F2F2" d="M46,48H2c-1.1,0-2-0.9-2-2V16.8h48V46C48,47.1,47.1,48,46,48z"/>
	<path fill="#FF7058" d="M48,15.4H0V5.8c0-1.1,0.9-2,2-2h44c1.1,0,2,0.9,2,2V15.4z"/>
	<rect y="15.4" fill="#F1543F" width="48" height="1.4"/>
	<circle fill="#FFFFFF" cx="12.1" cy="9.6" r="1.8"/>
	<path fill="#40596B" d="M12.1,10.3L12.1,10.3c-0.8,0-1.4-0.6-1.4-1.4V1.4c0-0.8,0.6-1.4,1.4-1.4h0c0.8,0,1.4,0.6,1.4,1.4v7.4
		C13.6,9.7,12.9,10.3,12.1,10.3z"/>
	<circle fill="#FFFFFF" cx="35.9" cy="9.6" r="1.8"/>
	<path fill="#40596B" d="M35.9,10.3L35.9,10.3c-0.8,0-1.4-0.6-1.4-1.4V1.4c0-0.8,0.6-1.4,1.4-1.4l0,0c0.8,0,1.4,0.6,1.4,1.4v7.4
		C37.3,9.7,36.7,10.3,35.9,10.3z"/>
	<rect x="14.5" y="20.3" fill="#CDD6E0" width="8" height="6.1"/>
	<rect x="25.5" y="20.3" fill="#CDD6E0" width="8" height="6.1"/>
	<rect x="36.5" y="20.3" fill="#CDD6E0" width="8" height="6.1"/>
	<rect x="3.5" y="29.3" fill="#CDD6E0" width="8" height="6.1"/>
	<rect x="14.5" y="29.3" fill="#FFD15C" width="8" height="6.1"/>
	<rect x="25.5" y="29.3" fill="#CDD6E0" width="8" height="6.1"/>
	<rect x="36.5" y="29.3" fill="#CDD6E0" width="8" height="6.1"/>
	<rect x="3.5" y="38.4" fill="#CDD6E0" width="8" height="6.1"/>
	<rect x="14.5" y="38.4" fill="#CDD6E0" width="8" height="6.1"/>
	<rect x="25.5" y="38.4" fill="#CDD6E0" width="8" height="6.1"/>
</g>
</svg>
