<?xml version="1.0" encoding="utf-8"?>
<!-- Generator: Adobe Illustrator 18.0.0, SVG Export Plug-In . SVG Version: 6.00 Build 0)  -->
<!DOCTYPE svg PUBLIC "-//W3C//DTD SVG 1.1//EN" "http://www.w3.org/Graphics/SVG/1.1/DTD/svg11.dtd">
<svg version="1.1" id="Layer_1" xmlns="http://www.w3.org/2000/svg" xmlns:xlink="http://www.w3.org/1999/xlink" x="0px" y="0px"
	 viewBox="0 0 48 48" enable-background="new 0 0 48 48" xml:space="preserve">
<g>
	<g>
		<g>
			<g>
				<path fill="#F7B64C" d="M41.9,28.7c3.8-3.7,7-11.2,5.9-17.4c-0.7-3.9-3-6.8-6.6-8.5c-0.3-0.1-0.7-0.2-1-0.1
					c-0.1,0-0.1,0-0.2,0.1v3.1c0.1,0,0.3-0.1,0.4-0.2c2.5,1.3,4,3.3,4.4,6c0.7,4-0.9,8.9-3.1,12.3c-0.7-1.8-2.1-3.2-3.9-4.1
					c-1.1-0.5-2.2-0.7-3.3-0.7c-0.1,0-0.3,0-0.4,0v3c0.9-0.1,1.8,0.1,2.5,0.4c1.5,0.7,3,2.3,2.8,4.7c0,0.6,0.3,1.2,0.9,1.5
					C40.8,29.3,41.5,29,41.9,28.7z"/>
			</g>
		</g>
		<g>
			<g>
				<path fill="#F7B64C" d="M7.8,28.9c0.6-0.3,0.9-0.8,0.9-1.5c-0.2-2.5,1.3-4.1,2.8-4.7c0.7-0.3,1.5-0.5,2.3-0.4v-3
					c-1.2,0-2.4,0.2-3.6,0.7c-1.8,0.9-3.2,2.3-3.9,4.1C4,20.7,2.5,15.8,3.2,11.8c0.5-2.7,2-4.8,4.4-6C7.9,5.8,8.1,5.9,8.3,6V2.8
					C8.2,2.8,8,2.7,7.8,2.7c-0.3-0.1-0.7-0.1-1,0.1c-3.7,1.7-6,4.6-6.6,8.5C-0.9,17.5,2.4,25,6.1,28.7C6.6,29.1,7.2,29.3,7.8,28.9z"
					/>
			</g>
		</g>
		<g>
			<g>
				<path fill="#FFD15C" d="M6.9,0C8.1,17.2,15.6,29.6,24,29.6S39.9,17.2,41.1,0H6.9z"/>
			</g>
		</g>
		<g>
			<path fill="#415A6B" d="M33.5,39h-19c-1.7,0-3,1.3-3,3v6h25v-6C36.5,40.3,35.1,39,33.5,39z"/>
		</g>
		<g>
			<g>
				<path fill="#FFD15C" d="M27.7,32.5h-7.3c-1,2.9-3.1,5.3-5.8,6.5h19C30.8,37.8,28.7,35.4,27.7,32.5z"/>
			</g>
		</g>
		<g>
			<g>
				<path fill="#F7B64C" d="M23.2,20.7v-1.4c-1.7-0.3-3.2-1-4.6-2.3l1.8-2.2c1,0.9,1.9,1.5,2.8,1.7v-2.9c-1.4-0.4-2.4-0.8-3-1.4
					c-0.6-0.6-1-1.5-1-2.6c0-1.1,0.4-2,1.1-2.8C21,6.1,22,5.7,23.2,5.5v-1h2.1v1c1.3,0.2,2.6,0.7,3.9,1.6l-1.6,2.3
					c-0.8-0.6-1.6-1-2.3-1.2v2.8c1.4,0.4,2.4,0.9,3.1,1.5c0.7,0.6,1,1.5,1,2.6S29,17.3,28.3,18c-0.7,0.7-1.7,1.2-3,1.3v1.4H23.2z
					 M23.2,8.3c-0.6,0.2-0.8,0.6-0.8,1.1s0.3,0.9,0.8,1.2V8.3z M26.3,15.4c0-0.3-0.1-0.5-0.2-0.7c-0.1-0.2-0.4-0.4-0.8-0.5v2.4
					C25.9,16.4,26.3,16,26.3,15.4z"/>
			</g>
		</g>
		<g>
			<path fill="#F7B64C" d="M27.3,32.6h-6.7c-1,0-1.9-0.8-1.9-1.9v0c0-1,0.8-1.9,1.9-1.9h6.7c1,0,1.9,0.8,1.9,1.9v0
				C29.2,31.8,28.4,32.6,27.3,32.6z"/>
		</g>
	</g>
</g>
</svg>
