<?xml version="1.0" encoding="utf-8"?>
<!-- Generator: Adobe Illustrator 18.0.0, SVG Export Plug-In . SVG Version: 6.00 Build 0)  -->
<!DOCTYPE svg PUBLIC "-//W3C//DTD SVG 1.1//EN" "http://www.w3.org/Graphics/SVG/1.1/DTD/svg11.dtd">
<svg version="1.1" id="Layer_1" xmlns="http://www.w3.org/2000/svg" xmlns:xlink="http://www.w3.org/1999/xlink" x="0px" y="0px"
	 viewBox="0 0 512 512" enable-background="new 0 0 512 512" xml:space="preserve">
<g>
	<path fill="#F2F2F2" d="M431.8,2H80.2c-11.7,0-21.2,9.5-21.2,21.2v465.7c0,11.7,9.5,21.2,21.2,21.2h351.5
		c11.7,0,21.2-9.5,21.2-21.2V23.2C452.9,11.5,443.4,2,431.8,2z"/>
	<rect x="103.6" y="46.4" fill="#89D6F7" width="304.9" height="94.9"/>
	<circle fill="#65C5B8" cx="139.4" cy="429.7" r="35.9"/>
	<circle fill="#65C5B8" cx="256" cy="429.7" r="35.9"/>
	<circle fill="#F2705B" cx="372.2" cy="429.7" r="35.9"/>
	<circle fill="#65C5B8" cx="139.4" cy="324.7" r="35.9"/>
	<circle fill="#65C5B8" cx="256" cy="324.7" r="35.9"/>
	<circle fill="#FFCF5C" cx="372.2" cy="324.7" r="35.9"/>
	<circle fill="#65C5B8" cx="139.4" cy="219.8" r="35.9"/>
	<circle fill="#65C5B8" cx="256" cy="219.8" r="35.9"/>
	<circle fill="#65C5B8" cx="372.2" cy="219.8" r="35.9"/>
</g>
</svg>
