<?xml version="1.0" encoding="utf-8"?>
<!-- Generator: Adobe Illustrator 16.0.0, SVG Export Plug-In . SVG Version: 6.00 Build 0)  -->
<!DOCTYPE svg PUBLIC "-//W3C//DTD SVG 1.1//EN" "http://www.w3.org/Graphics/SVG/1.1/DTD/svg11.dtd">
<svg version="1.1" id="Layer_1" xmlns="http://www.w3.org/2000/svg" xmlns:xlink="http://www.w3.org/1999/xlink" x="0px" y="0px"
	 width="48px" height="48px" viewBox="0 0 48 48" enable-background="new 0 0 48 48" xml:space="preserve">
<g>
	<path fill="#84DBFF" d="M39.342,28.627c-2.652,5.693-7.816,9.441-13.555,10.537c-3.748,0.732-7.756,0.309-11.48-1.426
		c-1.332-0.625-2.57-1.379-3.678-2.262c-1.805-1.404-3.301-3.113-4.443-5.01c-2.734-4.49-3.549-10.055-1.922-15.299
		c0.248-0.826,0.555-1.65,0.932-2.453C8.283,6.104,14.73,2.119,21.555,1.85c2.5-0.096,5.068,0.305,7.533,1.271
		c0.389,0.143,0.766,0.307,1.143,0.484c2.098,0.977,3.924,2.285,5.457,3.842c1.461,1.484,2.652,3.182,3.535,5.033
		C41.604,17.395,41.828,23.299,39.342,28.627"/>
	<path fill="#54C0EB" d="M35.688,7.447c-0.436,0.295-0.754,0.803-0.955,1.297c-0.07,0.164-0.129,0.33-0.248,0.447
		c-0.27,0.295-0.73,0.236-1.119,0.225c-1.107-0.023-2.17,0.436-3.158,0.932c-1.025,0.529-2.146,1.107-3.277,0.871
		c-0.129-1.238,0.637-2.357,1.273-3.418c0.684-1.119,1.271-2.311,1.756-3.525l0.082-0.293C29.9,3.877,29.758,3.77,29.617,3.676
		c-0.201-0.143-0.412-0.342-0.529-0.555c0.387,0.143,0.766,0.307,1.143,0.484C32.328,4.584,34.154,5.891,35.688,7.447"/>
	<path fill="#54C0EB" d="M39.342,28.627c-2.652,5.693-7.816,9.441-13.555,10.537c0.354-1.648,0.695-3.299,1.049-4.938
		c0.201-0.943,0.389-1.945,0.023-2.828c-0.508-1.191-1.828-1.758-2.889-2.488s-2.004-2.156-1.295-3.24
		c0.283-0.438,0.777-0.695,1.236-0.955c1.756-1.025,3.23-2.512,4.242-4.268c0.119-0.189,0.225-0.389,0.426-0.494
		c0.377-0.213,0.873,0.07,1.283-0.072c0.309-0.105,0.484-0.41,0.697-0.646c1.402-1.65,4.584-0.861,5.74-2.699l0.141,0.188
		c0.059-0.813-1.545-1.248-1.166-1.98c0.082-0.164,0.271-0.27,0.436-0.365c1.168-0.625,2.346-1.26,3.512-1.896
		C41.604,17.395,41.828,23.299,39.342,28.627"/>
	<path fill="#54C0EB" d="M24.172,7.176c-0.248,0.742-1.402,0.529-1.898-0.059c-0.494-0.602-0.73-1.426-1.379-1.85
		c-0.648-0.414-1.496-0.283-2.227-0.025c-1.25,0.438-2.369,1.203-3.242,2.193l-0.035-0.012c-0.613,0.494-0.283,1.592,0.412,1.969
		c0.695,0.365,1.557,0.246,2.322,0.082c0.777-0.166,1.604-0.354,2.346-0.082c1.096,0.4,1.615,1.637,1.852,2.77
		c0.176,0.896,0.199,1.955-0.508,2.533c-0.4,0.33-0.943,0.412-1.461,0.438c-1.393,0.07-2.807-0.166-4.104-0.695
		c-0.412-0.166-0.848-0.379-1.295-0.307c-0.283,0.035-0.543,0.188-0.791,0.342c-1.684,1.084-2.98,2.77-3.594,4.678
		c-0.449-1.213-0.189-2.77-1.145-3.641c-0.953-0.873-2.805-0.201-2.969,1.084c1.555,0.932,1.719,3.17,2.992,4.455
		c0.732,0.73,1.758,1.072,2.689,1.51c0.93,0.447,1.873,1.096,2.156,2.086c0.129,0.436,0.117,0.906,0.236,1.344
		c0.506,1.932,3.311,2.699,3.5,4.691c0.129,1.438-1.262,2.568-2.629,3.027c-1.379,0.449-2.9,0.531-4.113,1.309
		c-0.225,0.143-0.449,0.307-0.66,0.461c-1.803-1.404-3.301-3.113-4.443-5.01c0.012-0.166,0.035-0.318,0.059-0.473
		c0.412-2.98,1.244-5.838,0.518-8.752c-0.557-2.23-1.461-3.953-2.475-6.016c-0.012-0.023-0.023-0.035-0.023-0.061
		c0.248-0.824,0.555-1.648,0.932-2.449C8.283,6.104,14.73,2.119,21.555,1.848c0.543,0.389,1.025,0.873,1.484,1.416
		c0.756,0.895,0.955,2.121,1.133,3.275C24.207,6.752,24.242,6.977,24.172,7.176"/>
	<rect x="21.182" y="42.229" fill="#ACB3BA" width="2.176" height="3.221"/>
	<path fill="#CDD6E0" d="M12.846,40.883l-0.988-0.461l1.473-3.154l1.973,0.922l-0.539,1.154c9.84,3.963,21.209-0.441,25.744-10.168
		s0.6-21.266-8.758-26.258l-0.539,1.156l-1.973-0.92L30.709,0l0.986,0.459C42.84,5.656,47.678,18.951,42.48,30.096
		C37.285,41.24,23.99,46.08,12.846,40.883"/>
	<rect x="14.656" y="45.449" fill="#CDD6E0" width="14.904" height="2.551"/>
	<g>
		<defs>
			<rect id="SVGID_3_" x="3.441" y="1.844" width="37.66" height="37.654"/>
		</defs>
		<clipPath id="SVGID_2_">
			<use xlink:href="#SVGID_3_"  overflow="visible"/>
		</clipPath>
		<path clip-path="url(#SVGID_2_)" fill="#40596B" d="M24.051,35.936c-9.414,0-17.045-7.631-17.045-17.045
			c0-9.115,7.158-16.535,16.154-17.002c-0.297-0.014-0.588-0.045-0.891-0.045c-10.396,0-18.826,8.43-18.826,18.828
			c0,10.396,8.43,18.826,18.826,18.826c10.398,0,18.828-8.43,18.828-18.826c0-0.303-0.031-0.594-0.045-0.893
			C40.586,28.777,33.166,35.936,24.051,35.936"/>
	</g>
</g>
</svg>
