<?xml version="1.0" encoding="utf-8"?>
<!-- Generator: Adobe Illustrator 18.0.0, SVG Export Plug-In . SVG Version: 6.00 Build 0)  -->
<!DOCTYPE svg PUBLIC "-//W3C//DTD SVG 1.1//EN" "http://www.w3.org/Graphics/SVG/1.1/DTD/svg11.dtd">
<svg version="1.1" id="Layer_1" xmlns="http://www.w3.org/2000/svg" xmlns:xlink="http://www.w3.org/1999/xlink" x="0px" y="0px"
	 viewBox="0 0 48 48" enable-background="new 0 0 48 48" xml:space="preserve">
<g>
	<path fill="#4CDBC4" d="M8.3,41.1l-3,3.4C5,44.9,4.6,45,4.2,44.8c-0.4-0.1-0.7-0.5-0.7-0.9l-0.4-5.6H0l0.4,5.8
		c0.1,1.1,0.6,2.1,1.4,2.8c0.4,0.4,0.9,0.7,1.5,0.9C3.7,48,4.3,48,4.8,48c1.1-0.1,2.1-0.6,2.8-1.4l3-3.4L8.3,41.1z"/>
	<polygon fill="#40596B" points="12.8,42.9 8.3,39 25.2,12.7 36.7,22.8 	"/>
	<path fill="#334A5E" d="M25.8,23.7L25.8,23.7c-0.9-0.8-2.3-0.7-3.1,0.2l-3.9,4.3c-0.8,0.9-0.7,2.3,0.2,3.1c0.9,0.8,2.3,0.7,3.1-0.2
		l3.9-4.3C26.8,25.9,26.7,24.5,25.8,23.7z"/>
	<polygon fill="#F2F2F2" points="10,46 12.8,42.9 8.3,39 5.6,42.1 	"/>
	<path fill="#F2F2F2" d="M45.1,19.2c-4.2,4.8-11.5,5.3-16.4,1.1C24,16,23.5,8.7,27.7,3.9c4.2-4.8,11.5-5.3,16.4-1.1
		C48.9,7.1,49.3,14.4,45.1,19.2z"/>
	<path fill="#54C0EB" d="M27.3,26.9c-1.1,1.2-3,1.4-4.2,0.3c-1.2-1.1-1.4-3-0.3-4.2c1.1-1.2,3-1.4,4.2-0.3
		C28.2,23.7,28.4,25.6,27.3,26.9z"/>
	<path fill="#E8EAEA" d="M46.4,16.5l-16-14.4c-1.2-1.1-3.1-1-4.2,0.2c-1.1,1.2-1,3.1,0.2,4.2l16,14.4c1.2,1.1,3.1,1,4.2-0.2
		C47.7,19.5,47.6,17.6,46.4,16.5z"/>
</g>
</svg>
