<?xml version="1.0" encoding="utf-8"?>
<!-- Generator: Adobe Illustrator 18.0.0, SVG Export Plug-In . SVG Version: 6.00 Build 0)  -->
<!DOCTYPE svg PUBLIC "-//W3C//DTD SVG 1.1//EN" "http://www.w3.org/Graphics/SVG/1.1/DTD/svg11.dtd">
<svg version="1.1" id="Layer_1" xmlns="http://www.w3.org/2000/svg" xmlns:xlink="http://www.w3.org/1999/xlink" x="0px" y="0px"
	 viewBox="0 0 48 48" enable-background="new 0 0 48 48" xml:space="preserve">
<path fill="#ACB3BA" d="M24.5,26.4h-2.1v-4.8h2.1c0.6,0,1,0.4,1,1v2.8C25.5,25.9,25.1,26.4,24.5,26.4z"/>
<polygon fill="#40596B" points="35.8,31.1 12.2,31.1 16.1,16.9 31.9,16.9 "/>
<g>
	<polygon fill="#40596B" points="12.2,30.1 35.8,30.1 31.9,44.2 16.1,44.2 	"/>
	<path fill="#334A5E" d="M24,36.7c-9.1,0-16.5-7.4-16.5-16.5S14.9,3.8,24,3.8s16.5,7.4,16.5,16.5S33.1,36.7,24,36.7z"/>
</g>
<circle fill="#FF7058" cx="24" cy="24" r="12.5"/>
<path opacity="0.1" fill="#231F20" d="M24,19.3c6.6,0,11.9,5.1,12.4,11.5c0-0.3,0.1-0.7,0.1-1c0-6.9-5.6-12.5-12.5-12.5
	s-12.5,5.6-12.5,12.5c0,0.3,0,0.7,0.1,1C12.1,24.3,17.4,19.3,24,19.3z"/>
<path fill="#FFFFFF" d="M27.8,16.4c-1.6,0-3,0.8-3.8,2c-0.8-1.2-2.2-2-3.8-2c-2.6,0-4.6,2.1-4.6,4.6c0,3.6,5,4.4,8.4,10.6
	c3.4-6.1,8.4-7,8.4-10.6C32.4,18.5,30.3,16.4,27.8,16.4z"/>
</svg>
