<?xml version="1.0" encoding="utf-8"?>
<!-- Generator: Adobe Illustrator 18.0.0, SVG Export Plug-In . SVG Version: 6.00 Build 0)  -->
<!DOCTYPE svg PUBLIC "-//W3C//DTD SVG 1.1//EN" "http://www.w3.org/Graphics/SVG/1.1/DTD/svg11.dtd">
<svg version="1.1" id="Layer_1" xmlns="http://www.w3.org/2000/svg" xmlns:xlink="http://www.w3.org/1999/xlink" x="0px" y="0px"
	 viewBox="0 0 48 48" enable-background="new 0 0 48 48" xml:space="preserve">
<g>
	<g>
		<path fill="#344A5E" d="M43.5,5.2H4.5c-1.1,0-2,0.9-2,2v29.4h42.9V7.2C45.5,6.1,44.6,5.2,43.5,5.2z"/>
		<rect x="5.5" y="8.2" fill="#8AD7F8" width="36.9" height="25.4"/>
		<path fill="#E8EAE9" d="M0,36.6c0,3.4,2.8,6.2,6.2,6.2h35.6c3.4,0,6.2-2.8,6.2-6.2H0z"/>
		<polygon fill="#ADB3BA" points="29.3,39.2 18.7,39.2 17.7,36.6 30.3,36.6 		"/>
		<g>
			<g>
				<path fill="#FFFFFF" d="M42.5,22v0.8h-4.8c-0.1,0-0.2,0-0.3-0.1L36.1,21l-1.6,5.3c0,0.2-0.2,0.3-0.4,0.3c0,0,0,0,0,0
					c-0.2,0-0.3-0.1-0.4-0.3l-1.5-8.8L31,22.5c0,0.2-0.2,0.3-0.4,0.3h-4.2c-0.1,0-0.2,0-0.3-0.1L24.8,21l-1.6,5.3
					c-0.1,0.2-0.2,0.3-0.4,0.3c-0.2,0-0.3-0.1-0.4-0.3L21,17.4l-1.3,5.1c0,0.2-0.2,0.3-0.4,0.3h-3.2c-0.1,0-0.2,0-0.3-0.1L14.5,21
					L13,26.3c0,0.2-0.2,0.3-0.4,0.3c-0.2,0-0.3-0.1-0.3-0.3l-1.5-8.8l-1.3,5.1c0,0.2-0.2,0.3-0.4,0.3H5.5V22h3.3l1.7-6.5
					c0.1-0.2,0.2-0.3,0.4-0.3c0.2,0,0.3,0.1,0.4,0.3l1.5,8.9l1.3-4.4c0-0.1,0.2-0.2,0.3-0.3c0.2,0,0.3,0,0.4,0.1l1.6,2.1H19l1.7-6.5
					c0-0.2,0.2-0.3,0.4-0.3c0.2,0,0.3,0.1,0.4,0.3l1.5,8.9l1.3-4.4c0-0.1,0.1-0.2,0.3-0.3c0.1,0,0.3,0,0.4,0.1l1.7,2.1h3.8l1.7-6.5
					c0.1-0.2,0.2-0.3,0.4-0.3c0.2,0,0.3,0.1,0.3,0.3l1.5,8.9l1.3-4.4c0-0.1,0.2-0.2,0.3-0.3c0.1,0,0.3,0,0.4,0.1l1.6,2.1H42.5z"/>
			</g>
		</g>
	</g>
</g>
</svg>
