<?xml version="1.0" encoding="utf-8"?>
<!-- Generator: Adobe Illustrator 16.0.0, SVG Export Plug-In . SVG Version: 6.00 Build 0)  -->
<!DOCTYPE svg PUBLIC "-//W3C//DTD SVG 1.1//EN" "http://www.w3.org/Graphics/SVG/1.1/DTD/svg11.dtd">
<svg version="1.1" id="Layer_1" xmlns="http://www.w3.org/2000/svg" xmlns:xlink="http://www.w3.org/1999/xlink" x="0px" y="0px"
	 width="48px" height="48px" viewBox="0 0 48 48" enable-background="new 0 0 48 48" xml:space="preserve">
<g>
	<path fill="#F2F2F2" d="M36.83,0.021H11.17c-1.656,0-3,1.344-3,3v41.957c0,1.658,1.344,3,3,3h25.66c1.656,0,3-1.342,3-3V3.021
		C39.83,1.365,38.486,0.021,36.83,0.021"/>
	<rect x="12.17" y="5.498" fill="#54C0EB" width="23.66" height="33.205"/>
	<path fill="#ACB3BA" d="M26.156,43.506c0,1.467-1.189,2.656-2.656,2.656s-2.656-1.189-2.656-2.656s1.189-2.656,2.656-2.656
		S26.156,42.039,26.156,43.506"/>
	<path fill="#ACB3BA" d="M26.473,3.41h-5.943c-0.359,0-0.65-0.291-0.65-0.648c0-0.361,0.291-0.652,0.65-0.652h5.943
		c0.357,0,0.648,0.291,0.648,0.652C27.121,3.119,26.83,3.41,26.473,3.41"/>
	<path fill="#ACB3BA" d="M29.48,2.76c0,0.359-0.291,0.65-0.65,0.65s-0.65-0.291-0.65-0.65c0-0.357,0.291-0.648,0.65-0.648
		S29.48,2.402,29.48,2.76"/>
	<path fill="#F2F2F2" d="M32.768,26.793v-9.387c0-0.436-0.354-0.789-0.789-0.789H16.021c-0.436,0-0.789,0.354-0.789,0.789v9.387
		c0,0.438,0.354,0.789,0.789,0.789h15.957C32.414,27.582,32.768,27.23,32.768,26.793"/>
	<rect x="16.285" y="17.67" fill="#40596B" width="0.854" height="8.861"/>
	<rect x="30.861" y="17.67" fill="#40596B" width="0.854" height="8.861"/>
	<rect x="18.193" y="17.67" fill="#40596B" width="0.689" height="7.479"/>
	<rect x="20" y="17.67" fill="#40596B" width="0.713" height="7.477"/>
	<rect x="27.287" y="17.67" fill="#40596B" width="0.713" height="7.477"/>
	<rect x="29.109" y="17.67" fill="#40596B" width="0.713" height="7.477"/>
	<rect x="21.752" y="17.67" fill="#40596B" width="0.854" height="7.477"/>
	<rect x="23.666" y="17.67" fill="#40596B" width="0.668" height="7.477"/>
	<rect x="25.395" y="17.67" fill="#40596B" width="0.855" height="8.861"/>
</g>
</svg>
