<?xml version="1.0" encoding="utf-8"?>
<!-- Generator: Adobe Illustrator 20.1.0, SVG Export Plug-In . SVG Version: 6.00 Build 0)  -->
<!DOCTYPE svg PUBLIC "-//W3C//DTD SVG 1.1//EN" "http://www.w3.org/Graphics/SVG/1.1/DTD/svg11.dtd">
<svg version="1.1" id="Layer_1" xmlns="http://www.w3.org/2000/svg" xmlns:xlink="http://www.w3.org/1999/xlink" x="0px" y="0px"
	 viewBox="0 0 49 49" enable-background="new 0 0 49 49" xml:space="preserve">
<g>
	<path fill="#40596B" d="M44,20c0,10.8-19.5,28.5-19.5,28.5S5,30.8,5,20S13.7,0.5,24.5,0.5C35.3,0.5,44,9.2,44,20z"/>
	<g>
		<path fill="#89D6F7" d="M36.5,20c0,6.6-5.4,12-12,12c-6.6,0-12-5.4-12-12c0-2.5,0.7-4.7,2-6.6c0.1-0.2,0.2-0.4,0.4-0.5
			c1.7-2.3,4.3-4,7.3-4.6c0,0,0.1,0,0.1,0C23,8.1,23.7,8,24.5,8c0.3,0,0.6,0,0.9,0c0.4,0,0.7,0.1,1.1,0.1c4.9,0.8,8.8,4.6,9.8,9.4
			c0,0.1,0,0.2,0.1,0.4C36.4,18.6,36.5,19.3,36.5,20z"/>
		<g>
			<path fill="#55BFE9" d="M23.9,10.3c0,0.4-0.6,0.4-0.9,0.5c-0.3,0.1-0.5,0.3-0.7,0.5c-0.5,0.4-1,0.8-1.5,1.1
				c-0.6,0.3-1.4,0.5-1.8,0c1.4-0.6,2.4-1.8,2.9-3.2c-0.7,0.4-1.2,0.9-1.7,1.4c-0.6,0.5-1.4,1-2,1.5c-0.6,0.6-1.1,1.3-1.1,2.2
				c0-0.5-0.3-0.9-0.7-1.2c-0.4-0.3-0.9-0.4-1.4-0.4c0,0,0,0,0,0c1.7-2.3,4.3-4,7.3-4.6c0,0,0.1,0,0.1,0c0.1,0.6,0.5,1.2,1.1,1.5
				C23.6,9.9,23.9,10,23.9,10.3z"/>
			<path fill="#55BFE9" d="M26.5,8.2c0.3,0.2,0.6,0.3,0.8,0.6C27.3,8.9,27.4,9,27.4,9c0,0.2-0.4,0.2-0.6,0.3
				c-0.3,0.2-0.2,0.7,0.1,0.9c0.3,0.2,0.7,0.2,1,0.4c0.1,0.1,0.3,0.2,0.2,0.3c0,0.1-0.1,0.1-0.1,0.2c-0.4,0.4-0.8,0.9-1.2,1.3
				c-0.1,0.1-0.2,0.2-0.3,0.3c-0.2,0.1-0.4,0.1-0.6,0.1c-0.8,0-1.7,0.1-1.9,0.9c0,0.2,0,0.4-0.2,0.5c-0.1,0.1-0.3,0.2-0.4,0.3
				c-0.1,0.2,0.1,0.5,0.1,0.8c0.1,0.4-0.4,0.8-0.8,0.7c0-0.5,0-0.9,0-1.4c0-0.1,0-0.2,0-0.2c0-0.1-0.1-0.1-0.2-0.1
				c-0.4-0.1-1-0.2-1.3,0.1c-0.3,0.3-0.2,0.9,0.1,1.3c0.2,0.4,0.6,0.8,0.6,1.2c0,0.2-0.1,0.5-0.3,0.5c-0.3,0.1-0.5-0.3-0.6-0.7
				c-0.4,0.9-0.6,1.9-0.4,2.8c-0.7,0.2-1.3,0.3-2,0.5c-0.2,0.1-0.5,0.1-0.7,0.3c-0.2,0.2-0.2,0.5-0.2,0.7c0,0.8,0.2,1.6,0.6,2.4
				c0.1,0.2,0.3,0.5,0.5,0.7c0.6,0.5,1.5,0.2,2.3,0.4c0.6,0.2,1.2,0.7,1.5,1.3c0.3,0.6,0.5,1.3,0.6,1.9c0.1,0.3,0.1,0.6,0.4,0.8
				c0.3,0.3,0.6,0.3,1,0.4c0.6,0.1,1.3,0.2,1.8-0.1c0.5-0.3,0.8-0.8,1.2-1c0.3-0.1,0.7-0.1,1.1-0.2c0.3-0.1,0.7-0.4,0.6-0.7
				c-0.1-0.3-0.5-0.6-0.4-0.9c0.1-0.2,0.3-0.3,0.6-0.4c1-0.3,1.5-1.6,1-2.6c-0.1-0.1-0.2-0.3-0.2-0.5c0-0.5,0.7-0.7,1-1.1
				c0.3-0.3,0.3-0.8,0.4-1.3c0-0.5,0.2-1,0.7-1.1c0.4-0.1,0.9,0.2,1.1,0.6c0.3,0.4,0.5,0.8,0.8,1c0-0.8,0-1.6,0-2.4
				c0-0.3,0-0.6,0.2-0.8c0.3-0.4,0.9-0.3,1.4-0.2c0.2,0,0.3,0.1,0.5,0C35.3,12.8,31.4,9,26.5,8.2z M28.8,16L28.8,16
				c0.2,0,0.3,0,0.4,0c-0.1,0.3,0,0.6,0.2,0.8c0.1,0.1,0.2,0.2,0.3,0.3c0.2,0.2,0.3,0.6,0.2,0.9c-0.3,0-0.5,0-0.8,0
				c-0.2-0.1-0.5-0.2-0.6-0.5c-0.1-0.1-0.1-0.3-0.1-0.5C28.5,16.6,28.5,16.2,28.8,16z M25.3,20.1c-0.4-0.1-0.7-0.3-1.1-0.5
				c-0.5-0.3-1.1-0.4-1.7-0.4c-0.2,0-0.4,0-0.6,0c-0.2-0.1-0.4-0.2-0.4-0.4c-0.1-0.2,0.1-0.5,0.3-0.7c0.2-0.1,0.5-0.2,0.7-0.4l0-0.4
				c0.5,0.5,1,0.8,1.6,1.1c0.3,0.1,0.6,0.2,0.9,0.2c0.3,0,0.7,0,1,0c0.1,0,0.2,0,0.3,0c0.2,0,0.4,0,0.7-0.1c0.3,0,0.5,0,0.8-0.2
				c0.1,0.3-0.1,0.7-0.3,0.9c-0.2,0.2-0.5,0.4-0.9,0.5C26.2,20,25.8,20.2,25.3,20.1z M29.9,22.5c0,0.1-0.1,0.1-0.1,0.2
				c0,0-0.1,0-0.2,0c-0.5,0.1-1.1,0.1-1.5-0.2c-0.2-0.1-0.3-0.4-0.4-0.6c-0.2-0.3-0.3-0.5-0.5-0.8c-0.2-0.3-0.3-0.6-0.2-0.9
				c0.2,0,0.5,0,0.7,0l0.1,0.1c-0.1,0.2,0,0.4,0.2,0.6c0.1,0.1,0.3,0.2,0.5,0.3c0.2,0.1,0.3,0.1,0.5,0.2c0.2,0.1,0.5,0.2,0.7,0.4
				C29.9,22,30,22.2,29.9,22.5z M30.8,19.9c0,0-0.1,0.1-0.2,0.1c-0.5,0.2-1.1-0.2-1.1-0.7l0.1-0.1c0.4,0,0.7,0,1.1,0
				c0.1,0,0.1,0,0.2,0c0,0,0.1,0.1,0.1,0.2C30.9,19.6,30.9,19.8,30.8,19.9z"/>
		</g>
	</g>
</g>
</svg>
