<?xml version="1.0" encoding="utf-8"?>
<!-- Generator: Adobe Illustrator 18.0.0, SVG Export Plug-In . SVG Version: 6.00 Build 0)  -->
<!DOCTYPE svg PUBLIC "-//W3C//DTD SVG 1.1//EN" "http://www.w3.org/Graphics/SVG/1.1/DTD/svg11.dtd">
<svg version="1.1" id="Layer_1" xmlns="http://www.w3.org/2000/svg" xmlns:xlink="http://www.w3.org/1999/xlink" x="0px" y="0px"
	 viewBox="0 0 48 48" enable-background="new 0 0 48 48" xml:space="preserve">
<g>
	<g>
		<g>
			<path fill="#344A5E" d="M19.7,45.3c0.8,1.6,2.4,2.7,4.3,2.7c1.9,0,3.5-1.1,4.3-2.7H19.7z"/>
		</g>
		<g>
			<path fill="#F3F3F3" d="M41,15.4C40.2,7.4,33.9,1,26,0.1C15.7-1,6.9,7,6.9,17.1c0,5.4,2.5,10.3,6.5,13.4c1.9,1.5,3.1,3.6,3.6,5.9
				H31c0.5-2.3,1.7-4.4,3.6-6C39,27,41.6,21.5,41,15.4z"/>
			<path fill="#344A5E" d="M16.6,36.4V43c0,1.6,1.3,2.8,2.8,2.8h9.1c1.6,0,2.8-1.3,2.8-2.8v-6.7H16.6z"/>
		</g>
		<g>
			<g>
				<g>
					<g>
						<path fill="#8AD7F8" d="M36.5,16.3C34.9,8,27.9,6.4,21.9,5.8c-4.9-0.5-8.1,2.4-9.4,4.3c-0.9,1.3-1.3,2.9-1,4.4
							c0.6,3.3,3.7,3.7,3.7,3.7l2.3,0.3c0.4,2.2,1.3,3.1,2.2,3.4c2.7,0.8,5,2.6,6.2,5.1c0.5,1.2,0.9,2,0.9,2l1.4-0.3v-2
							c1,0,0.8-0.6,0.8-0.6c3.6,1.1,4.1-2.3,4.1-2.3C37.2,22,36.5,16.3,36.5,16.3z"/>
						<g>
							<g>
								<g>
									<path fill="#55C0EB" d="M17.8,15.8C17.8,15.8,17.8,15.8,17.8,15.8c-1.3-0.4-2.3-0.9-2.9-1.6c-0.1-0.1-0.2-0.2-0.3-0.3
										c-0.3-0.4-0.6-0.7-1-0.9c-0.1,0-0.2,0-0.3-0.1c-0.1,0-0.2,0-0.3-0.1c-0.3-0.1-0.5-0.3-0.5-0.6c0-0.1,0.1-0.2,0.2-0.2
										c0.1,0,0.2,0.1,0.2,0.2c0,0.1,0.2,0.2,0.3,0.3c0.1,0,0.2,0,0.3,0.1c0.1,0,0.2,0,0.3,0.1c0.5,0.2,0.9,0.6,1.2,1
										c0.1,0.1,0.2,0.2,0.3,0.3c0.6,0.7,1.5,1.2,2.7,1.5c0.1,0,0.2,0.1,0.1,0.2C17.9,15.7,17.9,15.8,17.8,15.8z"/>
								</g>
							</g>
							<g>
								<g>
									<path fill="#55C0EB" d="M14.8,13.9c-0.1,0-0.1,0-0.2-0.1c-0.2-0.3-0.1-0.6,0.1-0.8c0.2-0.2,0.5-0.2,0.7-0.2l0.1,0
										c0.2,0,0.4,0,0.5-0.1c0.1-0.1,0.2-0.2,0.3-0.3c0.1-0.1,0.1-0.2,0.2-0.3c0.3-0.3,0.7-0.4,1-0.5c0.5-0.2,1.1-0.3,1.7-0.3
										c0,0,0,0,0,0c0.1,0,0.2,0,0.2,0c0.1,0,0.3,0,0.4,0c0.1,0,0.3,0,0.4-0.2c0.1-0.1,0.1-0.4,0.1-0.6c0-0.1,0-0.2,0-0.3
										c0.1-0.5,0.4-1,0.9-1.2c0.1-0.1,0.2-0.1,0.3-0.1c0.3-0.1,0.5-0.2,0.6-0.3c0.1-0.1,0.1-0.2,0.1-0.4c0-0.1,0-0.2,0-0.2
										c0.1-0.5,0.5-1,1-1.1c0.1,0,0.2,0,0.2,0.1c0,0.1,0,0.2-0.1,0.2c-0.4,0.1-0.6,0.4-0.7,0.8c0,0.1,0,0.1,0,0.2
										c0,0.2,0,0.4-0.1,0.5c-0.2,0.3-0.5,0.4-0.8,0.5c-0.1,0-0.2,0.1-0.3,0.1c-0.4,0.2-0.6,0.5-0.7,0.9c0,0.1,0,0.2,0,0.3
										c0,0.3,0,0.6-0.2,0.8c-0.2,0.2-0.4,0.3-0.7,0.3c-0.2,0-0.3,0-0.4,0c-0.1,0-0.1,0-0.2,0c-0.5,0-1.1,0.2-1.6,0.3
										c-0.3,0.1-0.6,0.2-0.8,0.4c-0.1,0.1-0.1,0.1-0.2,0.2c-0.1,0.2-0.3,0.3-0.4,0.4c-0.2,0.1-0.4,0.1-0.6,0.1l0,0
										c-0.2,0-0.4,0-0.5,0.1c-0.1,0.1-0.1,0.2-0.1,0.3c0.1,0.1,0.1,0.2,0,0.3C14.9,13.9,14.8,13.9,14.8,13.9z"/>
								</g>
							</g>
							<g>
								<path fill="#55C0EB" d="M20.5,13C20.5,13,20.5,13,20.5,13c-0.1,0-0.2-0.1-0.2-0.2c0.1-0.5,0.1-1,0-1.5c0-0.1,0-0.2,0.2-0.2
									c0.1,0,0.2,0,0.2,0.2c0.1,0.6,0.1,1.1,0,1.7C20.7,13,20.6,13,20.5,13z"/>
							</g>
							<g>
								<g>
									<path fill="#55C0EB" d="M19,15C18.9,15,18.9,15,19,15c-0.1,0-0.2-0.1-0.2-0.2c0.3-1.2,0.6-2.3,1-3.3c0-0.1,0.2-0.1,0.3-0.1
										c0.1,0,0.1,0.2,0.1,0.3c-0.4,1-0.8,2-1,3.2C19.1,14.9,19,15,19,15z"/>
								</g>
							</g>
							<g>
								<path fill="#55C0EB" d="M17.5,13.8c0,0-0.1,0-0.1,0c-0.1-0.1-0.1-0.2,0-0.3c0.1-0.2,0.2-0.4,0.1-0.7c0-0.1,0-0.1,0-0.2
									c0-0.2-0.1-0.5,0-0.8c0-0.1,0.1-0.2,0.2-0.2c0.1,0,0.2,0.1,0.2,0.2c0,0.2,0,0.4,0,0.6c0,0.1,0,0.2,0,0.2c0,0.5,0,0.8-0.2,1
									C17.6,13.8,17.6,13.8,17.5,13.8z"/>
							</g>
							<g>
								<path fill="#55C0EB" d="M16.4,14.1c-0.1,0-0.1,0-0.2-0.1c-0.2-0.4-0.3-0.8-0.2-1.2c0-0.1,0.1-0.2,0.2-0.2
									c0.1,0,0.2,0.1,0.2,0.2c-0.1,0.3,0,0.7,0.2,1c0.1,0.1,0,0.2-0.1,0.3C16.5,14.1,16.4,14.1,16.4,14.1z"/>
							</g>
							<g>
								<path fill="#55C0EB" d="M15.2,13.2c-0.1,0-0.2-0.1-0.2-0.2c-0.1-0.5-0.4-0.9-0.7-1.2c-0.1-0.1-0.1-0.2,0-0.3
									c0.1-0.1,0.2-0.1,0.3,0c0.4,0.3,0.8,0.8,0.9,1.4C15.4,13.1,15.4,13.2,15.2,13.2C15.2,13.2,15.2,13.2,15.2,13.2z"/>
							</g>
							<g>
								<path fill="#55C0EB" d="M13.6,12.8c-0.1,0-0.2-0.1-0.2-0.1c-0.1-0.3-0.1-0.5-0.2-0.8c0-0.3,0.1-0.7,0.3-0.9
									c0.3-0.4,0.9-0.5,1.3-0.5c0.1,0,0.2,0.1,0.2,0.2c0,0.1-0.1,0.2-0.2,0.2c-0.3,0-0.7,0-1,0.3c-0.1,0.2-0.2,0.4-0.2,0.6
									c0,0.2,0.1,0.5,0.1,0.7C13.9,12.7,13.8,12.8,13.6,12.8C13.7,12.8,13.7,12.8,13.6,12.8z"/>
							</g>
							<g>
								<path fill="#55C0EB" d="M16.1,10.9c-0.1,0-0.1,0-0.2-0.1c-0.2-0.3,0-0.5,0.1-0.7c0-0.1,0.1-0.1,0.1-0.2c0,0,0,0,0,0
									c0,0-0.1-0.1-0.3-0.1c-0.2,0-0.5,0-0.7,0c-0.1,0-0.2-0.1-0.2-0.2c0-0.1,0.1-0.2,0.2-0.2c0.3,0,0.6-0.1,0.8,0
									c0.2,0,0.5,0.1,0.6,0.3c0.1,0.1,0.1,0.2,0,0.3c0,0.1-0.1,0.2-0.1,0.3c-0.1,0.2-0.1,0.2-0.1,0.3c0.1,0.1,0,0.2-0.1,0.3
									C16.2,10.9,16.1,10.9,16.1,10.9z"/>
							</g>
							<g>
								<path fill="#55C0EB" d="M16.3,10.2c0,0-0.1,0-0.1,0c-0.1-0.1-0.1-0.2-0.1-0.3c0.2-0.4,0.8-0.5,1.3-0.5
									c0.4,0,0.8,0.2,1.1,0.4c0.1,0,0.1,0.2,0.1,0.3c0,0.1-0.2,0.1-0.3,0.1c-0.4-0.2-0.6-0.3-1-0.3c-0.3,0-0.8,0.1-0.9,0.3
									C16.4,10.2,16.3,10.2,16.3,10.2z"/>
							</g>
							<g>
								<path fill="#55C0EB" d="M16.6,9.9C16.6,9.9,16.5,9.9,16.6,9.9c-0.2,0-0.2-0.2-0.2-0.3l0-0.1c0.1-0.1,0.1-0.3,0.1-0.4
									c0-0.1-0.1-0.2-0.1-0.3c0-0.1-0.1-0.2-0.1-0.3c-0.1-0.2,0-0.3,0-0.4C16.4,8.1,16.6,8,16.6,8c0.4-0.2,0.9-0.1,1.2-0.1
									c0.1,0,0.2,0.1,0.2,0.2c0,0.1-0.1,0.2-0.2,0.2c-0.3,0-0.7,0-1.1,0.1c-0.1,0-0.1,0.1-0.1,0.1c0,0,0,0,0,0.1
									c0,0.1,0.1,0.1,0.1,0.2c0,0.1,0.1,0.2,0.1,0.3c0.1,0.2,0,0.4-0.1,0.6l0,0.1C16.7,9.9,16.7,9.9,16.6,9.9z"/>
							</g>
							<g>
								<path fill="#55C0EB" d="M17.7,16.9c-0.1,0-0.2-0.1-0.2-0.2c-0.1-0.9,0.1-1.5,0.5-1.8c0.2-0.2,0.5-0.3,0.8-0.3
									c0.7-0.2,1.5-0.3,2.3-0.2c0.2,0,0.5,0,0.7,0.1c0.6,0.1,1.3,0.1,1.8,0c0.3-0.1,0.6-0.2,0.8-0.4c0.2-0.1,0.4-0.2,0.6-0.3
									c0.5-0.2,1.1-0.3,1.6-0.2l0.1,0c0.2,0,0.4,0,0.5,0c0.1-0.1,0.1-0.2,0.2-0.3l0.7-1.5c0-0.1,0.2-0.1,0.3-0.1
									c0.1,0,0.1,0.2,0.1,0.3l-0.7,1.5c-0.1,0.1-0.2,0.3-0.3,0.5c-0.2,0.2-0.5,0.1-0.7,0.1l-0.1,0c-0.5,0-1,0-1.4,0.2
									c-0.2,0.1-0.4,0.2-0.6,0.3c-0.3,0.2-0.6,0.3-0.9,0.4c-0.7,0.2-1.3,0.1-2,0c-0.2,0-0.5-0.1-0.7-0.1c-0.7,0-1.4,0-2.1,0.2
									c-0.2,0.1-0.5,0.1-0.6,0.3c-0.1,0.1-0.5,0.4-0.4,1.5C17.9,16.8,17.9,16.9,17.7,16.9C17.7,16.9,17.7,16.9,17.7,16.9z"/>
							</g>
							<g>
								<g>
									<path fill="#55C0EB" d="M27.9,13C27.9,13,27.9,13,27.9,13c-0.1,0-0.2-0.1-0.2-0.2c0-0.2-0.1-0.8-0.5-1.1
										c-0.1-0.1-0.1-0.2,0-0.3c0.1-0.1,0.2-0.1,0.3,0c0.5,0.5,0.6,1.2,0.6,1.5C28.1,12.9,28,13,27.9,13z"/>
								</g>
							</g>
							<g>
								<g>
									<path fill="#55C0EB" d="M25.7,14c0,0-0.1,0-0.1,0c-0.4-0.3-0.6-0.7-0.7-1.2c-0.1-0.5,0-0.9,0.3-1.3
										c0.2-0.3,0.5-0.6,0.8-0.8c0.1-0.1,0.2-0.1,0.3-0.2c0.1-0.1,0.2-0.2,0.3-0.3c0.2-0.2,0.4-0.4,0.7-0.5
										c0.5-0.3,1.1-0.5,1.7-0.5c0.6,0,1.2,0.2,1.7,0.6c0.1,0.1,0.1,0.2,0,0.3c-0.1,0.1-0.2,0.1-0.3,0c-0.4-0.3-0.9-0.5-1.5-0.5
										c-0.5,0-1.1,0.1-1.5,0.4c-0.2,0.1-0.4,0.3-0.6,0.5c-0.1,0.1-0.2,0.2-0.3,0.3c-0.1,0.1-0.2,0.1-0.3,0.2
										c-0.3,0.2-0.6,0.4-0.7,0.7c-0.2,0.3-0.3,0.7-0.2,1.1c0.1,0.4,0.3,0.7,0.5,0.9c0.1,0.1,0.1,0.2,0,0.3
										C25.8,14,25.7,14,25.7,14z"/>
								</g>
							</g>
							<g>
								<path fill="#55C0EB" d="M26.2,12.5c-0.1,0-0.1,0-0.2-0.1c-0.3-0.5-0.4-1.1-0.3-1.6c0-0.1,0.1-0.2,0.2-0.1
									c0.1,0,0.2,0.1,0.1,0.2c-0.1,0.4,0,0.9,0.2,1.3c0.1,0.1,0,0.2-0.1,0.3C26.3,12.5,26.3,12.5,26.2,12.5z"/>
							</g>
							<g>
								<g>
									<path fill="#55C0EB" d="M28.1,9.6c-0.1,0-0.1,0-0.1-0.1c-0.1-0.1-0.1-0.2,0-0.3c0.2-0.1,0.3-0.3,0.3-0.5
										c0.1-0.2,0-0.4-0.1-0.5c-0.1-0.1-0.1-0.2,0-0.3C28.3,8,28.5,8,28.5,8c0.2,0.2,0.3,0.5,0.2,0.9c-0.1,0.3-0.2,0.5-0.5,0.7
										C28.2,9.6,28.2,9.6,28.1,9.6z"/>
								</g>
							</g>
							<g>
								<g>
									<path fill="#55C0EB" d="M21.9,14.8c-0.1,0-0.1,0-0.2-0.1c-0.2-0.2-0.1-0.5,0-0.7c0-0.1,0.1-0.2,0.2-0.3
										c0-0.1,0.1-0.1,0.1-0.2c0.1-0.3,0.2-0.6,0.2-0.9c0-0.1,0-0.2,0-0.3c0.1-0.5,0.2-1,0.5-1.4c0.3-0.5,0.6-0.8,1-1.1
										c0.1,0,0.2-0.1,0.2-0.1c0.1-0.1,0.3-0.1,0.4-0.2c0.1-0.1,0.3-0.2,0.4-0.4l0.7-0.9c0.1-0.1,0.2-0.1,0.3,0
										c0.1,0.1,0.1,0.2,0,0.3L25,9.5c-0.1,0.2-0.3,0.3-0.4,0.5c-0.1,0.1-0.3,0.2-0.4,0.2c-0.1,0-0.1,0.1-0.2,0.1
										c-0.4,0.2-0.7,0.5-0.9,0.9c-0.2,0.3-0.3,0.8-0.4,1.3c0,0.1,0,0.2,0,0.2c-0.1,0.3-0.1,0.7-0.3,1c0,0.1-0.1,0.1-0.1,0.2
										c-0.1,0.1-0.1,0.2-0.1,0.3c-0.1,0.2-0.1,0.3,0,0.3c0.1,0.1,0,0.2-0.1,0.3C22,14.8,21.9,14.8,21.9,14.8z"/>
								</g>
							</g>
							<g>
								<g>
									<path fill="#55C0EB" d="M20.2,20.6c-0.1,0-0.2-0.1-0.2-0.1l-0.5-1.7c-0.1-0.3-0.2-0.7,0-1.1c0.2-0.5,0.8-0.6,1.3-0.7
										c0.7-0.1,1.3-0.3,2-0.2c0.1,0,0.2,0,0.4,0c0.2,0,0.4,0,0.6,0c0.3,0,0.7-0.1,1-0.2c0.4-0.1,0.9-0.2,1.3-0.4
										c0.1-0.1,0.3-0.1,0.4-0.2c0.3-0.1,0.6-0.3,0.9-0.3c0.3-0.1,0.6-0.1,0.9-0.2c0.2,0,0.4-0.1,0.6-0.1c0.3-0.1,1.6-0.4,1.6-2.7
										c0-0.1,0.1-0.2,0.2-0.2s0.2,0.1,0.2,0.2c0,2.6-1.7,3.1-1.9,3.1c-0.2,0-0.4,0.1-0.6,0.1c-0.3,0-0.6,0.1-0.8,0.2
										c-0.3,0.1-0.5,0.2-0.8,0.3c-0.1,0.1-0.3,0.1-0.4,0.2c-0.4,0.2-0.9,0.3-1.3,0.4c-0.3,0.1-0.7,0.2-1.1,0.2
										c-0.2,0-0.4,0-0.6,0c-0.1,0-0.2,0-0.3,0c-0.6,0-1.3,0.1-1.9,0.2c-0.4,0.1-0.9,0.2-1,0.5c-0.1,0.2,0,0.6,0.1,0.9l0.5,1.7
										C20.4,20.4,20.3,20.5,20.2,20.6C20.2,20.6,20.2,20.6,20.2,20.6z"/>
								</g>
							</g>
							<g>
								<g>
									<path fill="#55C0EB" d="M21.1,19.7c-0.1,0-0.1,0-0.1-0.1c-0.1-0.1-0.1-0.2,0-0.3c0.3-0.3,0.8-0.5,1.5-0.5
										c0.1,0,0.2,0,0.4,0c0.4,0,0.7,0,1.1-0.1c0.2,0,0.3-0.1,0.5-0.2c0.2-0.1,0.4-0.2,0.6-0.2c0.6-0.1,1.1,0,1.5,0.1
										c0.1,0,0.3,0.1,0.4,0.1c0.3,0.1,0.6,0.2,1,0.2c0.5,0.1,1,0,1.3-0.2c0.1-0.1,0.2,0,0.3,0c0.1,0.1,0,0.2,0,0.3
										c-0.5,0.4-1.1,0.4-1.5,0.3c-0.4,0-0.7-0.1-1-0.2c-0.1,0-0.3-0.1-0.4-0.1c-0.4-0.1-0.9-0.2-1.3-0.1c-0.2,0-0.4,0.1-0.6,0.2
										c-0.2,0.1-0.4,0.2-0.6,0.2c-0.4,0.1-0.8,0.1-1.2,0.1c-0.1,0-0.2,0-0.4,0c-0.6,0-1,0.2-1.3,0.4
										C21.2,19.7,21.2,19.7,21.1,19.7z"/>
								</g>
							</g>
							<g>
								<path fill="#55C0EB" d="M34.8,20.8c-0.2,0-0.4-0.1-0.6-0.3c0-0.1-0.1-0.1-0.1-0.2C34.1,20.2,34,20.1,34,20
									c-0.2-0.1-0.4-0.2-0.7-0.2l-0.1,0c-0.4,0-0.9-0.1-1.4-0.5c-0.2-0.2-0.4-0.4-0.5-0.6c-0.1-0.2-0.3-0.3-0.4-0.5
									c-0.3-0.2-0.6-0.3-0.9-0.4c-0.5-0.1-0.9-0.2-1.3-0.2c-0.4,0-0.9,0.1-1.2,0.3c-0.1,0.1-0.2,0-0.3-0.1c-0.1-0.1,0-0.2,0.1-0.3
									c0.4-0.2,0.9-0.3,1.4-0.3c0.4,0,0.8,0.1,1.4,0.2c0.3,0.1,0.7,0.2,1.1,0.5c0.2,0.2,0.3,0.3,0.5,0.5c0.2,0.2,0.3,0.4,0.5,0.5
									c0.3,0.3,0.8,0.3,1.2,0.4l0.1,0c0.3,0,0.6,0.1,0.9,0.3c0.1,0.1,0.2,0.2,0.3,0.3c0,0,0.1,0.1,0.1,0.1
									c0.1,0.1,0.2,0.2,0.3,0.2c0.1,0,0.2,0.1,0.2,0.2C35.1,20.7,35,20.7,34.8,20.8C34.9,20.8,34.8,20.8,34.8,20.8z"/>
							</g>
							<g>
								<path fill="#55C0EB" d="M31,18.3c-0.1,0-0.1,0-0.2-0.1c0-0.1,0-0.2,0.1-0.3c0.4-0.2,0.6-0.5,0.7-0.9c0-0.1,0.1-0.2,0.2-0.1
									c0.1,0,0.2,0.1,0.1,0.2C31.9,17.6,31.6,18.1,31,18.3C31.1,18.3,31,18.3,31,18.3z"/>
							</g>
							<g>
								<path fill="#55C0EB" d="M30.8,17.4c-0.1,0-0.2-0.1-0.2-0.2c0-0.4,0.1-0.8,0.3-1c0,0,0,0,0.1-0.1c0-0.1,0.1-0.1,0.1-0.2
									c0-0.1,0-0.2,0-0.3c0,0,0-0.1,0-0.1c0-0.3,0.1-0.6,0.3-0.9c0.1-0.1,0.2-0.1,0.3,0c0.1,0.1,0.1,0.2,0,0.3
									c-0.1,0.2-0.2,0.4-0.2,0.6c0,0,0,0.1,0,0.1c0,0.1,0,0.3-0.1,0.5c0,0.1-0.1,0.2-0.2,0.3c0,0,0,0-0.1,0.1
									c-0.2,0.2-0.2,0.5-0.2,0.8C31,17.3,31,17.4,30.8,17.4C30.8,17.4,30.8,17.4,30.8,17.4z"/>
							</g>
							<g>
								<g>
									<path fill="#55C0EB" d="M34.7,17.6c-0.1,0-0.1,0-0.1-0.1c-0.2-0.2-0.3-0.5-0.3-0.9c0-0.2,0-0.3,0.1-0.5
										c0-0.1,0-0.2,0.1-0.4c0-0.4,0-0.9-0.1-1.3c0-0.2-0.1-0.5-0.3-0.6c-0.1,0-0.3,0-0.4,0.1c0,0-0.1,0.1-0.1,0.1
										c-0.1,0.1-0.2,0.2-0.4,0.2c-0.3,0.1-0.7,0.1-1-0.2c-0.3-0.3-0.4-0.7-0.3-1c0-0.1,0.1-0.2,0.2-0.1c0.1,0,0.2,0.1,0.1,0.2
										c-0.1,0.2,0,0.5,0.2,0.6c0.2,0.1,0.4,0.2,0.6,0.1c0.1,0,0.2-0.1,0.3-0.2c0.1,0,0.1-0.1,0.2-0.1c0.3-0.2,0.5-0.2,0.7-0.2
										c0.4,0.1,0.5,0.6,0.6,0.8c0.1,0.5,0.2,0.9,0.1,1.4c0,0.1,0,0.3-0.1,0.4c0,0.1-0.1,0.3-0.1,0.4c0,0.2,0,0.4,0.2,0.6
										c0.1,0.1,0.1,0.2,0,0.3C34.8,17.6,34.8,17.6,34.7,17.6z"/>
								</g>
							</g>
							<g>
								<g>
									<path fill="#55C0EB" d="M34.8,18.8c-0.2,0-0.4-0.1-0.7-0.2c-0.1-0.1-0.2-0.1-0.3-0.2c-0.1-0.1-0.2-0.2-0.3-0.2
										c0,0,0,0-0.1,0c-0.4-0.2-0.7-0.6-0.7-1.1c0-0.5-0.1-0.9-0.3-1.4c0-0.1,0-0.2,0.1-0.3c0.1,0,0.2,0,0.3,0.1
										c0.2,0.5,0.3,1,0.4,1.5c0,0.3,0.2,0.6,0.5,0.7c0,0,0.1,0,0.1,0c0.1,0.1,0.3,0.2,0.4,0.3c0.1,0.1,0.2,0.1,0.2,0.2
										c0.1,0.1,0.3,0.2,0.5,0.2c0.3-0.1,0.4-0.4,0.4-0.5c0.2-0.7,0.2-1.3,0-1.9c-0.2-0.5-0.4-1.5-0.2-2.4c0-0.1,0.1-0.2,0.2-0.2
										c0.1,0,0.2,0.1,0.2,0.2c-0.1,0.8,0.1,1.7,0.2,2.2c0.2,0.7,0.2,1.3,0,2.1c-0.1,0.4-0.4,0.7-0.7,0.8
										C34.9,18.8,34.8,18.8,34.8,18.8z"/>
								</g>
							</g>
							<g>
								<path fill="#55C0EB" d="M32.9,16.8C32.9,16.8,32.8,16.8,32.9,16.8c-0.2-0.1-0.2-0.2-0.2-0.3c0.2-0.4,0.5-0.7,0.9-0.8
									c0.1,0,0.2,0,0.2,0.1c0,0.1,0,0.2-0.1,0.2c-0.3,0.1-0.6,0.3-0.7,0.6C33,16.7,33,16.8,32.9,16.8z"/>
							</g>
							<g>
								<path fill="#55C0EB" d="M34.6,15.4c0,0-0.1,0-0.1-0.1c-0.2-0.2-0.5-0.4-0.9-0.4c-0.1,0-0.2-0.1-0.2-0.2
									c0-0.1,0.1-0.2,0.2-0.2c0,0,0,0,0,0c0.4,0,0.8,0.2,1.1,0.5c0.1,0.1,0.1,0.2,0,0.3C34.7,15.4,34.7,15.4,34.6,15.4z"/>
							</g>
							<g>
								<path fill="#55C0EB" d="M30.3,16C30.3,16,30.3,16,30.3,16c-0.5,0-1.1-0.1-1.4-0.4c-0.1-0.1-0.1-0.2,0-0.3
									c0.1-0.1,0.2-0.1,0.3,0c0.3,0.2,0.7,0.3,1.2,0.3c0.1,0,0.2,0.1,0.2,0.2C30.5,15.9,30.4,16,30.3,16z"/>
							</g>
							<g>
								<path fill="#55C0EB" d="M27.7,15.9C27.7,15.9,27.6,15.9,27.7,15.9c-0.6-0.3-0.9-0.7-1.1-1.2c0-0.1,0-0.2,0.1-0.2
									c0.1,0,0.2,0,0.2,0.1c0.1,0.4,0.4,0.8,0.8,1c0.1,0,0.1,0.2,0.1,0.3C27.8,15.8,27.8,15.9,27.7,15.9z"/>
							</g>
							<g>
								<g>
									<path fill="#55C0EB" d="M22.3,18c-0.1,0-0.1,0-0.2-0.1c-0.1-0.1,0-0.2,0.1-0.3c0.3-0.2,0.7-0.2,1-0.2c0.3,0,0.6,0,0.8-0.2
										c0.1-0.1,0.2-0.2,0.4-0.4c0,0,0.1-0.1,0.1-0.1c0.2-0.2,0.8-0.5,1-0.5c0.1,0,0.2,0,0.2,0.1c0,0.1,0,0.2-0.1,0.2
										c-0.2,0-0.7,0.3-0.8,0.4c0,0-0.1,0.1-0.1,0.1c-0.1,0.2-0.3,0.3-0.4,0.5c-0.3,0.2-0.7,0.2-1.1,0.2
										C22.9,17.9,22.6,17.9,22.3,18C22.3,18,22.3,18,22.3,18z"/>
								</g>
							</g>
							<g>
								<path fill="#55C0EB" d="M19.9,16.2c0,0-0.1,0-0.1,0c-0.1-0.1-0.1-0.2,0-0.3c0.1-0.1,0.1-0.2,0.1-0.3c0-0.2,0-0.4,0.2-0.6
									c0.1-0.1,0.2-0.2,0.3-0.2c0,0,0.1,0,0.1-0.1c0.1-0.1,0.2-0.2,0.2-0.3c0-0.1,0.2-0.1,0.3-0.1c0.1,0,0.1,0.2,0.1,0.3
									c-0.1,0.2-0.2,0.4-0.4,0.5c0,0-0.1,0-0.1,0.1c-0.1,0-0.1,0.1-0.2,0.1c-0.1,0.1-0.1,0.2-0.1,0.3c0,0.2,0,0.4-0.2,0.6
									C20,16.2,19.9,16.2,19.9,16.2z"/>
							</g>
							<g>
								<path fill="#55C0EB" d="M25.9,15.8c0,0-0.1,0-0.1,0c-0.3-0.2-0.7-0.3-1.1-0.2c0,0-0.1,0-0.1,0c-0.1,0-0.2,0.1-0.3,0.1
									c-0.2,0-0.4,0-0.5-0.1c-0.2-0.1-0.2-0.3-0.3-0.5l0,0c0-0.2-0.1-0.2-0.1-0.3c-0.1,0-0.2-0.1-0.1-0.2c0-0.1,0.1-0.2,0.2-0.1
									c0.3,0.1,0.4,0.4,0.4,0.5l0,0c0,0.1,0.1,0.2,0.1,0.3c0,0,0.1,0,0.2,0c0.1,0,0.1,0,0.2-0.1c0,0,0.1,0,0.1,0
									c0.5-0.1,1-0.1,1.4,0.3c0.1,0.1,0.1,0.2,0,0.3C26,15.8,26,15.8,25.9,15.8z"/>
							</g>
							<g>
								<path fill="#55C0EB" d="M22.4,12.5c-0.1,0-0.2-0.1-0.2-0.2c0-0.4-0.3-0.8-0.6-0.9c-0.1-0.1-0.1-0.2-0.1-0.3
									c0.1-0.1,0.2-0.1,0.3-0.1c0.5,0.2,0.8,0.7,0.8,1.2C22.6,12.3,22.6,12.4,22.4,12.5C22.5,12.4,22.4,12.5,22.4,12.5z"/>
							</g>
							<g>
								<path fill="#55C0EB" d="M24.4,11.5C24.3,11.5,24.3,11.5,24.4,11.5c-0.2-0.1-0.4-0.2-0.4-0.5l0-0.1c0-0.1,0-0.2-0.1-0.2
									c-0.1-0.1-0.3-0.1-0.4,0c-0.1,0-0.2-0.1-0.2-0.2c0-0.1,0.1-0.2,0.2-0.2c0.2,0,0.5-0.1,0.8,0.2c0.1,0.1,0.1,0.3,0.2,0.4
									l0,0.1c0,0.1,0.1,0.2,0.1,0.2c0.1,0,0.2,0.1,0.1,0.2C24.5,11.5,24.4,11.5,24.4,11.5z"/>
							</g>
							<g>
								<path fill="#55C0EB" d="M24.7,9.7C24.7,9.7,24.6,9.7,24.7,9.7c-0.3-0.1-0.5-0.4-0.6-0.6c-0.1-0.3-0.1-0.6,0-0.8
									c0-0.1,0.2-0.1,0.3-0.1c0.1,0,0.1,0.2,0.1,0.3c-0.1,0.2-0.1,0.4,0,0.5c0.1,0.2,0.2,0.3,0.4,0.4c0.1,0,0.1,0.2,0.1,0.3
									C24.8,9.6,24.8,9.7,24.7,9.7z"/>
							</g>
							<g>
								<g>
									<path fill="#55C0EB" d="M21.1,9.7C21.1,9.7,21,9.7,21.1,9.7c-0.5-0.1-0.9-0.5-1.1-0.9c-0.2-0.4-0.1-0.9,0.1-1.4
										c0.1-0.1,0.2-0.1,0.3-0.1c0.1,0.1,0.1,0.2,0.1,0.3c-0.2,0.3-0.2,0.7-0.1,1c0.1,0.3,0.4,0.6,0.8,0.7c0.1,0,0.2,0.1,0.1,0.2
										C21.2,9.7,21.2,9.7,21.1,9.7z"/>
								</g>
							</g>
						</g>
					</g>
					<g>
						<g>
							<path fill="#55C0EB" d="M33.8,12c-0.1,0-0.2-0.1-0.2-0.1c-0.1-0.4-0.6-0.7-1.1-0.6c-0.1,0-0.3,0.1-0.4,0.2
								c-0.1,0-0.2,0.1-0.3,0.1c-0.9,0.4-2,0.1-2.6-0.7c-0.1-0.1,0-0.2,0-0.3c0.1-0.1,0.2,0,0.3,0c0.5,0.7,1.4,0.9,2.1,0.6
								c0.1,0,0.2-0.1,0.2-0.1c0.2-0.1,0.3-0.2,0.5-0.2c0.6-0.2,1.3,0.2,1.5,0.8C34.1,11.8,34,11.9,33.8,12C33.9,12,33.9,12,33.8,12
								z"/>
						</g>
					</g>
					<g>
						<g>
							<path fill="#55C0EB" d="M32,11.5L32,11.5c-0.1,0-0.2-0.1-0.2-0.2c0-0.4-0.2-0.9-0.5-1.2c-0.1-0.1-0.1-0.2,0-0.3
								c0.1-0.1,0.2-0.1,0.3,0c0.4,0.4,0.6,0.9,0.6,1.5C32.2,11.4,32.2,11.5,32,11.5z"/>
						</g>
					</g>
				</g>
				<g>
					<path fill="#55C0EB" d="M30.5,22.4c-0.8,0-1.5-0.3-2.1-0.8c-0.1-0.1-0.2-0.2-0.4-0.4c-0.3-0.3-0.5-0.6-0.9-0.7
						c-0.3-0.1-0.6,0-1,0.2c-0.1,0.1-0.2,0.1-0.4,0.2c-0.2,0.1-0.5,0.2-0.7,0.3c-0.5,0.2-1.2,0.1-1.8,0c-0.6-0.2-1.1-0.5-1.6-0.7
						c-0.1-0.1-0.1-0.2-0.1-0.3c0-0.1,0.2-0.1,0.3-0.1c0.5,0.2,1,0.5,1.5,0.7c0.6,0.2,1.1,0.2,1.6,0.1c0.2-0.1,0.4-0.2,0.7-0.3
						c0.1-0.1,0.2-0.1,0.4-0.2c0.5-0.2,0.9-0.3,1.3-0.2c0.5,0.1,0.8,0.5,1.1,0.8c0.1,0.1,0.2,0.2,0.3,0.3c0.8,0.7,2,0.9,3,0.4
						c0.1,0,0.2,0,0.3,0.1c0,0.1,0,0.2-0.1,0.3C31.4,22.3,30.9,22.4,30.5,22.4z"/>
				</g>
				<g>
					<path fill="#55C0EB" d="M26.1,22.5c-0.1,0-0.1,0-0.2-0.1c-0.1-0.2-0.1-0.5-0.1-0.7c0-0.3,0.1-0.5,0.3-0.7
						c0.2-0.2,0.4-0.2,0.6-0.3c0,0,0.1,0,0.1,0c0.1,0,0.4-0.1,0.4-0.3c0-0.1,0.1-0.2,0.2-0.1c0.1,0,0.2,0.1,0.1,0.2
						c-0.1,0.3-0.3,0.5-0.7,0.6c0,0-0.1,0-0.1,0c-0.2,0-0.3,0.1-0.4,0.2c-0.1,0.1-0.2,0.2-0.2,0.4c0,0.2,0,0.3,0.1,0.5
						C26.3,22.3,26.3,22.4,26.1,22.5C26.1,22.5,26.1,22.5,26.1,22.5z"/>
				</g>
				<g>
					<g>
						<path fill="#55C0EB" d="M25.2,21.1C25.2,21.1,25.1,21.1,25.2,21.1C25,21,25,20.9,25,20.8c0.1-0.1,0.2-0.3,0.2-0.4
							c0.1-0.1,0.2-0.2,0.2-0.3c0.1-0.2,0.2-0.4,0.4-0.5c0.4-0.4,1-0.4,1.4-0.4c0.1,0,0.2,0.1,0.2,0.2c0,0.1-0.1,0.2-0.2,0.2
							c0,0,0,0,0,0c-0.5,0-0.9,0-1.2,0.3c-0.1,0.1-0.2,0.3-0.3,0.4c-0.1,0.1-0.2,0.3-0.2,0.4c-0.1,0.1-0.2,0.2-0.2,0.3
							C25.3,21.1,25.3,21.1,25.2,21.1z"/>
					</g>
				</g>
				<g>
					<path fill="#55C0EB" d="M29.8,22.3c-0.1,0-0.1,0-0.1-0.1c-0.1-0.1-0.1-0.2,0-0.3c0.3-0.3,0.4-0.7,0.4-1.1
						c0-0.1,0.1-0.2,0.2-0.2c0.1,0,0.2,0.1,0.2,0.2c0,0.6-0.1,1.1-0.5,1.4C29.9,22.3,29.8,22.3,29.8,22.3z"/>
				</g>
				<g>
					<path fill="#55C0EB" d="M23.5,22.3c0,0-0.1,0-0.1,0c-0.3-0.3-0.6-0.6-0.6-0.9c0-0.2,0.1-0.4,0.2-0.5c0.1-0.1,0.2-0.1,0.3,0
						c0.1,0.1,0.1,0.2,0,0.3c-0.1,0.1-0.1,0.1-0.1,0.2c0,0.2,0.2,0.4,0.4,0.7c0.1,0.1,0.1,0.2,0,0.3C23.7,22.3,23.6,22.3,23.5,22.3z
						"/>
				</g>
			</g>
			<g>
				<path fill="#55C0EB" d="M15.8,16.7C15.8,16.7,15.8,16.7,15.8,16.7c-0.1,0-0.2-0.1-0.2-0.2c0-0.2,0-0.4-0.1-0.6
					c-0.1-0.2-0.2-0.4-0.3-0.5l-0.1-0.1c-0.1-0.2-0.3-0.4-0.4-0.6c-0.1-0.3-0.1-0.6,0.1-0.8c0.1-0.1,0.2-0.1,0.3,0
					c0.1,0.1,0.1,0.2,0,0.3c-0.1,0.1-0.1,0.2,0,0.4c0.1,0.2,0.2,0.3,0.3,0.5l0.1,0.1c0.1,0.2,0.3,0.4,0.4,0.6
					c0.1,0.3,0.1,0.5,0.1,0.8C16,16.7,15.9,16.7,15.8,16.7z"/>
			</g>
		</g>
		<g>
			<path fill="#415A6B" d="M31.5,34.9h-15c-0.9,0-1.6,0.7-1.6,1.6c0,0.9,0.7,1.6,1.6,1.6h15c0.9,0,1.6-0.7,1.6-1.6
				C33.1,35.6,32.4,34.9,31.5,34.9z"/>
			<path fill="#415A6B" d="M31.5,40.4h-15c-0.9,0-1.6,0.7-1.6,1.6s0.7,1.6,1.6,1.6h15c0.9,0,1.6-0.7,1.6-1.6S32.4,40.4,31.5,40.4z"
				/>
		</g>
	</g>
</g>
</svg>
