<?xml version="1.0" encoding="utf-8"?>
<!-- Generator: Adobe Illustrator 18.0.0, SVG Export Plug-In . SVG Version: 6.00 Build 0)  -->
<!DOCTYPE svg PUBLIC "-//W3C//DTD SVG 1.1//EN" "http://www.w3.org/Graphics/SVG/1.1/DTD/svg11.dtd">
<svg version="1.1" id="Layer_1" xmlns="http://www.w3.org/2000/svg" xmlns:xlink="http://www.w3.org/1999/xlink" x="0px" y="0px"
	 viewBox="0 0 48 48" enable-background="new 0 0 48 48" xml:space="preserve">
<g>
	<g>
		<path fill="#66C6B9" d="M23.3,20.5C34,8,15.6,3,8.1,0C11.1,7.8,8.9,20,23.3,20.5z"/>
		<g>
			<path fill="#66C6B9" d="M29,22.6c-6.7-9,6-11.5,11.3-13.2C37.8,14.6,38.7,23,29,22.6z"/>
			<path fill="#415A6B" d="M37.1,12c0,0-1.3,1.2-3,3.1c0.1-0.9,0.4-1.8,0.8-2.6c-0.6,1-1,2-1.3,3.1c-0.8,0.9-1.7,2-2.6,3.3
				c-0.3-1.5-0.4-2.9,0-4.1c-0.5,1.4-0.6,3.1-0.4,4.8c-1.6,2.3-3.2,5-4.2,7.8c-1.2-4.1-3.2-8.1-5.3-11.6c0.4-2.5,0.5-5-0.1-7.1
				c0.3,1.8,0.1,3.9-0.5,6.1c-1.2-1.9-2.4-3.6-3.5-5.1C16.8,8,16.2,6.5,15.5,5c0.5,1.3,0.8,2.5,1,3.9c-2.3-3-4.1-4.9-4.1-4.9
				s2.4,3.2,5.2,8c-1.8-0.6-3.4-1.4-4.8-2.2c1.5,1.1,3.2,2.1,5.2,3c3.1,5.5,6.4,12.8,7.1,19.8h2.4c-0.1-1.8,0-3.6,0.5-5.3
				c1.2-3.5,3.1-6.9,4.8-9.6c1.4-0.5,2.7-1.1,3.7-1.8c-0.9,0.5-2.1,0.9-3.4,1.3C35.3,14.1,37.1,12,37.1,12z"/>
		</g>
		<g>
			<path fill="#F3705A" d="M38.5,38.7c-0.4-5.2-5.7-9.3-12.2-9.3c-6.5,0-11.8,4.1-12.2,9.3H38.5z"/>
			<path fill="#FFD15C" d="M46.2,32.5c-2-0.3-4.5,1.7-4.5,1.7c-3.1,0.3-5.8,2.9-5.8,2.9s-1.2,0.3-2,0.9c0,0-0.3-1.2-1.8-1.7
				c0,0-5.1-0.7-6.3-0.2c-1.2,0.5-3-0.4-4.3-1.4s-3-2.4-8.3-2.9C9.4,31.3,3.3,36.4,0,39.4l6.4,7.8c3.4-2.9,7.8-1.7,7.8-1.7
				s6.9,1.5,9.9,2.3c3,0.8,4.6-1.4,4.6-1.4c1.4-0.6,19.5-11.6,19.2-11.9C48.2,34.4,48.2,32.7,46.2,32.5z"/>
			<path fill="#F7B64C" d="M33.9,37.9C33.9,38,33.9,38,33.9,37.9c0,0.3,0,0.6-0.1,1c-0.1,0.3-0.3,0.7-0.6,1
				c-0.3,0.3-0.7,0.6-1.2,0.7c-0.5,0.2-1.1,0.2-1.6,0.3c-1.2,0.1-2.4,0.1-3.7,0c-0.6-0.1-1.2-0.1-1.9-0.3c-0.6-0.1-1.2-0.3-1.8-0.3
				c-0.6,0-1.2,0-1.7,0c-0.6,0-1.1,0.1-1.5,0.1c-0.9,0-1.7,0-2.3-0.1c-0.6,0-0.9-0.1-0.9-0.1s0.3,0.1,0.9,0.2
				c0.5,0.1,1.3,0.2,2.3,0.2c0.5,0,1-0.1,1.5-0.1c0.5,0,1.1,0,1.7,0.1c0.6,0.1,1.2,0.2,1.8,0.3c0.6,0.1,1.3,0.2,1.9,0.3
				c1.3,0.1,2.6,0.1,3.8,0c0.6-0.1,1.2-0.1,1.7-0.3c0.5-0.2,1-0.5,1.4-0.9c0.3-0.4,0.6-0.8,0.7-1.2c0.1-0.4,0.1-0.8,0-1.1
				c0-0.1,0-0.1,0-0.1C34,37.8,34,37.9,33.9,37.9L33.9,37.9z"/>
		</g>
	</g>
</g>
</svg>
