<?xml version="1.0" encoding="utf-8"?>
<!-- Generator: Adobe Illustrator 18.0.0, SVG Export Plug-In . SVG Version: 6.00 Build 0)  -->
<!DOCTYPE svg PUBLIC "-//W3C//DTD SVG 1.1//EN" "http://www.w3.org/Graphics/SVG/1.1/DTD/svg11.dtd">
<svg version="1.1" id="Layer_1" xmlns="http://www.w3.org/2000/svg" xmlns:xlink="http://www.w3.org/1999/xlink" x="0px" y="0px"
	 viewBox="0 0 512 512" enable-background="new 0 0 512 512" xml:space="preserve">
<g>
	<rect x="233.4" y="419" fill="#334A5E" width="45.2" height="11.3"/>
	<path fill="#65C5B8" d="M256,2c-58.5,0-106,47.5-106,106v158.2c0,58.5,47.5,106,106,106s106-47.5,106-106V108
		C362,49.5,314.5,2,256,2z"/>
	<g>
		<path fill="#F2705B" d="M256,434.3c-92.7,0-168.1-75.4-168.1-168.1v-45.3h33.9v45.3c0,74,60.2,134.2,134.2,134.2
			c74,0,134.2-60.2,134.2-134.2v-45.3h33.9v45.3C424.1,358.9,348.7,434.3,256,434.3z"/>
	</g>
	<path fill="#41596B" d="M333.8,458h-55.2v-25.3c-7.4,1-14.9,1.6-22.6,1.6c-7.7,0-15.2-0.6-22.6-1.6V458h-55.1
		c-15.6,0-28.2,12.6-28.2,28.2V510H362v-23.8C362,470.7,349.4,458,333.8,458z"/>
	<g>
		<g>
			<circle fill="#F2F2F2" cx="197" cy="166.3" r="11.4"/>
			<circle fill="#F2F2F2" cx="236.4" cy="166.3" r="11.4"/>
			<circle fill="#F2F2F2" cx="275.7" cy="166.3" r="11.4"/>
			<circle fill="#F2F2F2" cx="315" cy="166.3" r="11.4"/>
		</g>
		<g>
			<circle fill="#F2F2F2" cx="216.7" cy="124.6" r="11.4"/>
			<circle fill="#F2F2F2" cx="256" cy="124.6" r="11.4"/>
			<circle fill="#F2F2F2" cx="295.3" cy="124.6" r="11.4"/>
		</g>
		<circle fill="#F2F2F2" cx="197" cy="82.9" r="11.4"/>
		<circle fill="#F2F2F2" cx="236.4" cy="82.9" r="11.4"/>
		<circle fill="#F2F2F2" cx="275.7" cy="82.9" r="11.4"/>
		<circle fill="#F2F2F2" cx="315" cy="82.9" r="11.4"/>
		<g>
			<circle fill="#F2F2F2" cx="216.7" cy="41.2" r="11.4"/>
			<circle fill="#F2F2F2" cx="256" cy="41.2" r="11.4"/>
			<circle fill="#F2F2F2" cx="295.3" cy="41.2" r="11.4"/>
		</g>
	</g>
</g>
</svg>
