<?xml version="1.0" encoding="utf-8"?>
<!-- Generator: Adobe Illustrator 18.0.0, SVG Export Plug-In . SVG Version: 6.00 Build 0)  -->
<!DOCTYPE svg PUBLIC "-//W3C//DTD SVG 1.1//EN" "http://www.w3.org/Graphics/SVG/1.1/DTD/svg11.dtd">
<svg version="1.1" id="Layer_1" xmlns="http://www.w3.org/2000/svg" xmlns:xlink="http://www.w3.org/1999/xlink" x="0px" y="0px"
	 viewBox="0 0 48 48" enable-background="new 0 0 48 48" xml:space="preserve">
<g>
	<g>
		<g>
			<g>
				<path fill="#FFD15C" d="M14.3,19.3c0,0-0.5,3.3-0.9,4.2c-0.5,0.9-0.4,2.2-0.1,2.8c0.3,0.6,1.8,5.5,2.6,6.6c0.8,1.1,0.7,1.1,1,1
					c0.3,0,1.6,0.1,1.6,0.1l1.2,1.7l-0.2,0.6l0,0.8c0,0-0.6,0.2-0.6-0.6c0,0-0.3,0.3-0.5,0.2c0,0,0.2,0.3-0.1,0.6
					c-0.3,0.3-0.4,0.1-0.4,0.1s0,0.4-0.2,0.5c-0.2,0.1-0.2,0.1-0.2,0.1s0.2-0.1,0.2,0.1l-0.6,0.6c0,0-1.2,0-2-0.6l-0.4-0.7l-0.4-1.6
					c0,0-0.1-0.3-0.4-0.8c-0.2-0.6-2.2-3.9-2.2-3.9S10.5,28.8,10,27c0,0-0.2-0.3-0.2-1.1c0-0.8,0.6-6.9,1.1-8.5L14.3,19.3z"/>
			</g>
		</g>
	</g>
	<g>
		<g>
			<g>
				<path fill="#FFD15C" d="M20.4,40.9c0,0-0.1,2.5-1.9,5c0,0-0.9,1.5-1.1,2.1H11c0,0,0.8-4.3,1-5.4c0.1-1.1,0.5-3.3,0.5-3.3
					L20.4,40.9z"/>
			</g>
		</g>
	</g>
	<g>
		<g>
			<g>
				<path fill="#FFD15C" d="M22.4,42c0,0,1,3.7,1.1,6h4.9c0,0,0.9-4.1,1.1-4.8c0.2-0.6,0.9-3.3,0.9-3.3L22.4,42z"/>
			</g>
		</g>
	</g>
	<g>
		<g>
			<g>
				<g>
					<path fill="#F26F5A" d="M31.6,21.4c-0.6-0.2-3.2-0.2-4.2-0.1c0-0.2-0.1-0.3-0.1-0.3s0.3-1.7,0.7-2.5c0.4-0.8,1.4-4.4,1.3-5.1
						L29,13l1.3,0.6c0.6,0.3,1,0.9,1,1.6l0,1.5L31.6,21.4z"/>
				</g>
			</g>
		</g>
		<g>
			<g>
				<g>
					<path fill="#344A5E" d="M20.9,8.4c0,0-2.4,1.7-3.5,1.8c-1.1,0.1,1.4,1.2,1.4,1.2S25,7,25.1,5.3C25.3,3.7,23.5,4,23.5,4
						S20.5,6.5,20.9,8.4z"/>
				</g>
			</g>
		</g>
		<g>
			<g>
				<path fill="#344A5E" d="M31.2,5.2c0,1.4,0,2.8,0,4.1c-0.1,1-0.2,2.1-0.6,3.1c-0.1,0.3-0.3,0.6-0.5,0.8c-0.3,0.3-0.6,0.5-1,0.7
					c-1.2,0.5-2.8,0.4-3.8-0.5c-0.2-0.2-0.4-0.4-0.5-0.7c-0.1-0.3-0.2-0.6-0.2-0.8c-0.1-0.5-0.1-0.9,0-1.4c0.1-0.5,0.3-0.9,0.5-1.4
					c0.2-0.4,0.4-0.9,0.8-1.3c0.7-0.8,1.7-1.2,2.6-1.7c0.6-0.3,1.2-0.6,1.7-1c0.3-0.2,0.6-0.4,0.9-0.4"/>
			</g>
		</g>
		<g>
			<g>
				<g>
					<path fill="#FFD15C" d="M22.7,6.5l-0.8,1.8c0,0-0.6,1-1.5,1.4s-3,0.3-3,0.3l-0.8,6.5l4.8,4.4l4.5-2.8l1.3-5.9
						c0,0-1-0.2-1.3-0.7c0,0,0.6-0.5,0.9-0.5c0.3-0.1,0.6-0.4,0.6-0.4s1.1-0.2,1.5-1.1c0.3-0.7,0.5-1,0.7-1.1C29.9,8.3,30,8.2,30,8
						c0.1-0.3,0.2-0.7,0.4-0.9c0.3-0.4,0.8-1.1,0.4-2.3c-0.3-1.2-2.9-2.6-2.9-2.6l-2,0.9C25.9,3.1,23.3,2.2,22.7,6.5z"/>
				</g>
			</g>
		</g>
		<g>
			<g>
				<g>
					<path fill="#E8EAE8" d="M26.4,11.8c0,0-0.5,2.3-1.3,3.5c-0.8,1.3-2.9,3.1-3.8,3.4c0,0-2-1.6-2.9-3.3c-0.8-1.7-0.4-5.5-0.4-5.5
						l-4,0.2c0,0-1.1,0.8-2.5,3s-2.2,3.4-2.2,3.4s1.2,0.8,2.3,1.6c1.1,0.8,2.6,1.5,2.6,1.5l0.3-1.5c0,0-0.3,2.8-0.1,3.7
						c0.2,0.9,0.5,4.1,0.4,5.2c-0.2,1.1-1,7.5-1,7.5l6.6,0.8l6.4-1.1l2.8-1.4c0,0,0-1.2-0.3-2c-0.3-0.7-2-9.9-2-9.9s0.3-1.7,0.7-2.5
						c0.4-0.8,1.4-4.4,1.3-5.1L26.4,11.8z"/>
				</g>
			</g>
		</g>
		<g>
			<g>
				<g>
					<path fill="#425A6B" d="M29.8,4.1c0.3,0.4,0.7,0.8,0.9,1.3c0.1,0.2,0.1,0.5,0.1,0.7c0.1,0.6,0.1,1.2,0.1,1.7c0,0.3,0,0.7-0.1,1
						c-0.1,0.4-0.3,0.8-0.5,1.1c-0.2,0.3-0.4,0.6-0.7,0.8c-0.3,0.2-0.6,0.3-1,0.3c0.3,0.1,0.6,0.1,1,0c-0.3,0.4-0.5,0.9-0.8,1.3
						c-0.3,0.4-0.9,0.7-1.3,0.5c0.5,0.2,1.2,0,1.5-0.4c-0.1,0.4-0.1,0.8-0.1,1.2c0,0.4-0.2,0.8-0.4,1.1c-0.3,0.3-0.8,0.4-1.1,0.2
						c0.2,0.3,0.6,0.5,1,0.5c0.4,0,0.8-0.3,1.1-0.5c-0.4,0.8-1.5,1.2-2.3,0.9c0.3,0.2,0.6,0.3,1,0.4c0.6,0.1,1.2-0.4,1.8-0.5
						c-0.2,0.9-0.4,1.8-0.9,2.6c0.1-0.2,0.3-0.3,0.5-0.4c0.6-0.3,1.1-0.6,1.7-1c0.5-0.4,0.9-0.9,1.2-1.5c0.2-0.6,0.2-1.3,0.1-2
						c-0.1-0.7-0.3-1.3-0.4-2c-0.1-0.4-0.1-0.8-0.1-1.2c0-1.3-0.1-2.6-0.1-3.9c0,0,0.2-2.9-1.9-4.8C28-0.5,26.3,0,25.3,0.3
						c-1,0.4-3.6,3.3-4.3,5c-0.7,1.7-1.6,4.4-3.8,4.9c0,0,4.5-0.8,5.5-3.9c0.6-2,1.4-2,1.6-1.4c0,0-2.4,4.2-2.1,6.3
						c0.3,2.2,1,2.6,2.2,2.7c0,0-0.2-0.1-0.9-1c-0.6-0.9-0.8-1.9-0.6-3c0,0-0.3,2,1.5,3c0,0-1.4-0.8-1.4-3.2c0,0,0.3-2.3,1.1-2.9
						c0.8-0.5,2.3-2.1,2.7-2.9C27.4,3.2,29.1,3.3,29.8,4.1z"/>
				</g>
			</g>
		</g>
		<g>
			<g>
				<g>
					
						<ellipse transform="matrix(0.9937 0.1124 -0.1124 0.9937 0.7571 -2.5707)" fill="#FFD15C" cx="23.2" cy="5.4" rx="0.8" ry="1.2"/>
				</g>
			</g>
		</g>
		<g>
			<g>
				<path fill="#344A5E" d="M26.1,11.5c-0.2,0.1-0.3,0.2-0.3,0.4c0,0.2,0,0.4,0,0.6c0,0.2,0.1,0.3,0.2,0.4c0.2,0.2,0.5,0.4,0.7,0.6
					c0.2,0.2,0.2,0.5,0.2,0.7c0.1-0.2,0.1-0.4,0.1-0.6c-0.1-0.3-0.3-0.4-0.5-0.6c-0.2-0.2-0.4-0.4-0.4-0.7c0.1,0.2,0.2,0.3,0.4,0.5
					c0.1,0.1,0.2,0.2,0.3,0.2c0.1,0,0.3-0.1,0.3-0.2c-0.1,0-0.2,0.1-0.3,0c-0.2,0-0.4-0.1-0.5-0.3c-0.1-0.2-0.1-0.4,0.1-0.6
					c0.1-0.2,0.4-0.2,0.6-0.2"/>
			</g>
		</g>
		<g>
			<g>
				<g>
					<path fill="#F26F5A" d="M14.6,17.1l0,1.1l-0.3,1.5c0,0-1.5-0.6-2.6-1.5c-1.1-0.8-2.3-1.6-2.3-1.6s0.9-1.2,2.2-3.4
						c1.4-2.2,2.5-3,2.5-3l0,0C14.8,12.2,14.6,17.1,14.6,17.1z"/>
				</g>
			</g>
		</g>
		<g>
			<g>
				<g>
					<path fill="#F26F5A" d="M32.8,38.2l0.2,0.4c0,0-0.6,0.9-1.1,1l0.2,0.4l-2.3,1.3v0.4c0,0-2.5,1-3.8,0.7c0,0-1.9-0.2-2.8,0
						c0,0-0.5,0-0.4-0.2l-0.7,0l0,0.3c0,0-0.6,0.1-1.1-0.2C20.4,42,20,41.9,20,41.9s-2.8,0.3-5.3-0.3L13,41l-0.3-0.2
						c0,0-0.8-0.2-1-0.6l0.2-0.8c0,0-0.5,0-0.5-0.5c0,0,2.1-4.1,2.6-5.9c1.1,0.3,4.3,1.3,6,1.6c2.1,0.3,8.9-1,9.6-2.9l0.2,1.7
						c0,0,2.5,3.3,3.3,4.6C33.1,37.8,32.9,38.2,32.8,38.2z"/>
				</g>
			</g>
		</g>
		<g>
			<g>
				<g>
					<path fill="#425A6B" d="M29.8,33.2C28.4,34.9,22,36.1,20,36c-1.9-0.1-4.8-1.2-6.4-1.9c0.2-0.5,0.3-0.9,0.4-1.3
						c1.1,0.3,4.3,1.3,6,1.6c2.1,0.3,8.9-1,9.6-2.9L29.8,33.2z"/>
				</g>
			</g>
		</g>
		<g>
			<g>
				<g>
					<g>
						<path fill="#F05640" d="M32.5,39.3c-0.2,0.2-0.4,0.3-0.6,0.4l-1.9-5L32.5,39.3z"/>
					</g>
				</g>
			</g>
			<g>
				<g>
					<g>
						<path fill="#F05640" d="M30.2,41.1l-0.5,0.3c0,0-0.7-3.9-0.9-4.8C28.8,36.7,29.7,39.4,30.2,41.1z"/>
					</g>
				</g>
			</g>
			<g>
				<g>
					<g>
						<polygon fill="#F05640" points="23.5,36.2 22.7,42.2 22,42.1 						"/>
					</g>
				</g>
			</g>
			<g>
				<g>
					<g>
						<path fill="#F05640" d="M20.9,42.2C20.4,42,20,41.9,20,41.9l-0.4-5.5L20.9,42.2z"/>
					</g>
				</g>
			</g>
			<g>
				<g>
					<g>
						<path fill="#F05640" d="M15,35.5c0,0-1,2.1-1.5,5.7L13,41l-0.3-0.2C12.7,40.8,13.8,36.7,15,35.5z"/>
					</g>
				</g>
			</g>
		</g>
	</g>
	<g>
		<g>
			<g>
				<path fill="#FFD15C" d="M27.4,20.8c0,0-1.1,3.2-1,6.4c0,0,0.3,1.7,0.4,2c0,0,0.3,0.8,0.9,1.1c0.6,0.4,1.4,0.4,1.9-0.2
					c0.5-0.6,1.6-2.3,1.9-2.7c0.3-0.4,1-2.4,1.5-4.7c0.6-2.3,1.2-3.9,1.2-3.9s0.9-0.8,1.1-1.5c0.2-0.8,1-3.2,1-3.2s0.2-0.5,0.2-0.9
					c0,0,0.3-0.8,0.3-1.2c0-0.4,0-0.7,0-0.7s-0.6,0.1-0.6,1.1c0,0-0.5,0.7-0.5,1.3l-1.4-1.4L33,12c0,0-0.2,0.6,0.7,0.9
					c0,0,0.6,0.7,0.8,0.8c0,0-0.1,0.2-0.1,0.4L34,13.8l-1.6-0.4l-0.9,0.1c0,0-0.2,0.7,0.8,0.6l1,0.5c0,0,0,0.4,0.2,0.6l-0.6-0.4
					l-1-0.1L31,14.6c0,0,0,0.6,0.8,0.6c0,0,0.3,0.4,0.8,0.6c0,0,0.1,0.2,0.4,0.3c0,0-0.9,1.1-1,2.1c-0.1,1-0.8,2.3-0.9,2.5
					c-0.1,0.2-0.5,0.9-0.5,0.9l0-2.8L27.4,20.8z"/>
			</g>
		</g>
	</g>
	<g>
		<g>
			<g>
				<path fill="#F5B54C" d="M30.8,20.9l0,0.5c-0.3,0.7-0.8,1.8-0.9,2.1c-0.3,0.4-1.5,1.5-2.2,3.2c0,0,0.4-1.2,1.2-2.2
					c0.8-1,1.1-1.4,1.3-1.9C30.3,22.2,30.6,21.4,30.8,20.9z"/>
			</g>
		</g>
	</g>
	<g>
		<g>
			<g>
				<path fill="#F26F5A" d="M31.5,19.9c-0.2,0.4-0.4,0.7-0.4,0.9c-0.1,0.1-0.2,0.3-0.3,0.5c-0.6,0-1.4,0-2.1,0v-2.4h2.7L31.5,19.9z"
					/>
			</g>
		</g>
	</g>
	<g>
		<g>
			<g>
				<path fill="#67C5B8" d="M36.1,7.5c0.8-1,3.1,0.9,2.4,1.9c0,0-8.5,11.8-12.3,16.1c-3.4,4.3-6.7,8.9-9.9,13.6
					c-0.7,1-1.2,2-1.7,3.1l0,0c0,0,0.3,0.8-0.5,0.8c-0.7-0.1-1.7-0.8-1.7-1.5c0-0.6,0.5-0.5,0.5-0.5l0.3-0.3
					c0.7-0.6,1.3-1.3,1.9-2.1c3.6-4.7,6.8-9.3,9.7-13.9C28.5,18.6,32.3,12.8,36.1,7.5z"/>
			</g>
		</g>
	</g>
	<g>
		<g>
			<g>
				<path fill="#FFD15C" d="M36.7,12c0-0.4,0-0.7,0-0.7s-0.6,0.1-0.6,1.1c0,0-0.5,0.7-0.5,1.3l-1.4-1.4L33,12c0,0-0.2,0.6,0.7,0.9
					c0,0,0.6,0.7,0.8,0.8c0,0-0.1,0.2-0.1,0.4L34,13.8l-1.6-0.4l-0.9,0.1c0,0-0.2,0.7,0.8,0.6l1,0.5c0,0,0,0.4,0.2,0.6l-0.6-0.4
					l-1-0.1L31,14.6c0,0,0,0.6,0.8,0.6c0,0,0.3,0.4,0.8,0.6c0,0,0.1,0.2,0.4,0.3c0,0-0.9,1.1-1,2.1c0,0.2-0.1,0.4-0.1,0.7h2.3
					c0-0.1,0-0.1,0-0.1s0.9-0.8,1.1-1.5c0.2-0.8,1-3.2,1-3.2s0.2-0.5,0.2-0.9C36.5,13.2,36.7,12.4,36.7,12z"/>
			</g>
		</g>
	</g>
	<g>
		<g>
			<g>
				<path fill="#FFD15C" d="M16.9,34c-0.3,0-0.2,0.1-1-1c-0.5-0.8-1.4-3.3-2-5h-3.5c0.6,1.6,1.5,3.1,1.5,3.1s2,3.4,2.2,3.9
					c0.2,0.6,0.4,0.8,0.4,0.8l0.4,1.6l0.4,0.7c0.6,0.4,1.3,0.6,1.7,0.6c0.2,0,0.3,0,0.4-0.2l0.4-0.4c0-0.2-0.2-0.1-0.2-0.1
					s0,0,0.2-0.1c0.2-0.1,0.2-0.5,0.2-0.5s0.2,0.2,0.4-0.1c0.3-0.3,0.1-0.6,0.1-0.6c0.2,0.1,0.5-0.2,0.5-0.2c0,0.8,0.6,0.6,0.6,0.6
					l0-0.8l0.2-0.6l-1.2-1.7C18.5,34.1,17.2,34,16.9,34z"/>
			</g>
		</g>
	</g>
</g>
</svg>
