<?xml version="1.0" encoding="utf-8"?>
<!-- Generator: Adobe Illustrator 18.0.0, SVG Export Plug-In . SVG Version: 6.00 Build 0)  -->
<!DOCTYPE svg PUBLIC "-//W3C//DTD SVG 1.1//EN" "http://www.w3.org/Graphics/SVG/1.1/DTD/svg11.dtd">
<svg version="1.1" id="Layer_1" xmlns="http://www.w3.org/2000/svg" xmlns:xlink="http://www.w3.org/1999/xlink" x="0px" y="0px"
	 viewBox="0 0 48 48" enable-background="new 0 0 48 48" xml:space="preserve">
<g>
	<g>
		<g>
			<path fill="#E8EAE9" d="M1.2,18.7l2.4,26C3.9,46.6,5.4,48,7.3,48h33.4c1.9,0,3.4-1.4,3.6-3.3l2.4-26H1.2z"/>
		</g>
		<g>
			<path fill="#F3F3F3" d="M47.5,19.9l0.5-5.1c0.2-2.2-1.5-4.1-3.8-4.1H3.8c-2.2,0-4,1.9-3.8,4.1l0.5,5.1H47.5z"/>
		</g>
		<polygon fill="#F05540" points="45.3,34 45.8,28.7 2.2,28.7 2.7,34 		"/>
		<g>
			<rect x="21.3" y="10.7" fill="#F05540" width="5.4" height="37.3"/>
			<g>
				<g>
					<g>
						<path fill="#F3705A" d="M9.2,5.1c0,0,0.9-3.2,4-4.7c2.4-1.2,5.4,0,6.5,2.4c1.2,2.5,3,5.8,5,7.2l-9.2-0.6L9.2,5.1z"/>
					</g>
					<g>
						<path fill="#F05540" d="M14.8,11c-1.6-0.1-3.1-0.7-4.2-1.7c-0.4-0.4-0.8-0.8-1-1.3C9,6.8,8.9,5.3,9.6,4.1
							C10.3,3,11.7,2.3,13,2.6c1,0.2,1.9,1,2.5,1.9c0.6,0.9,0.9,2,1.7,2.7c2,1.7,5.7,2.6,7.5,3C22.6,10.8,17.2,11.1,14.8,11z"/>
					</g>
				</g>
				<g>
					<g>
						<path fill="#F3705A" d="M38.8,5.1c0,0-0.9-3.2-4-4.7c-2.4-1.2-5.4,0-6.5,2.4c-1.2,2.5-3,5.8-5,7.2l9.2-0.6L38.8,5.1z"/>
					</g>
					<g>
						<path fill="#F05540" d="M33.2,11c1.6-0.1,3.1-0.7,4.2-1.7c0.4-0.4,0.8-0.8,1-1.3c0.6-1.2,0.6-2.7-0.1-3.8
							C37.7,3,36.3,2.3,35,2.6c-1,0.2-1.9,1-2.5,1.9c-0.6,0.9-0.9,2-1.7,2.7c-2,1.7-5.7,2.6-7.5,3C25.4,10.8,30.8,11.1,33.2,11z"/>
					</g>
				</g>
			</g>
			<g>
				<path fill="#FFD15C" d="M26.2,10.7c-1.3,0.9-3.1,0.9-4.4,0c0-1.4,0-2.7,0-4.1c1.3-0.9,3.1-0.9,4.4,0
					C26.2,7.9,26.2,9.3,26.2,10.7z"/>
			</g>
		</g>
	</g>
</g>
</svg>
