<?xml version="1.0" encoding="utf-8"?>
<!-- Generator: Adobe Illustrator 18.0.0, SVG Export Plug-In . SVG Version: 6.00 Build 0)  -->
<!DOCTYPE svg PUBLIC "-//W3C//DTD SVG 1.1//EN" "http://www.w3.org/Graphics/SVG/1.1/DTD/svg11.dtd">
<svg version="1.1" id="Layer_1" xmlns="http://www.w3.org/2000/svg" xmlns:xlink="http://www.w3.org/1999/xlink" x="0px" y="0px"
	 viewBox="0 0 48 48" enable-background="new 0 0 48 48" xml:space="preserve">
<g>
	<g>
		<g>
			<path fill="#415A6B" d="M6.7,26.4c0,0-6.4-1.8-6.7-1s4.7,12.4,19.8,7.9c0,0,1.8-4.3,0.9-4.4C19.6,28.9,6.7,26.4,6.7,26.4z"/>
		</g>
		<g>
			<path fill="#344A5E" d="M0,25.4c0,0,0.2-0.4,0.7,0s6.7,5,17.1,7.4c10.4,2.4,20.9,7,27.6-0.7c0,0,3.9-4.9,2.3-4.7
				c-5.5,0.6-9-0.2-9-0.2l-1.7-10.4c-0.2-1.5-1.2-2.7-2.5-3.3c-6.9-2.9-14.8-2.3-20.7,1.3c-1,0.6-1.7,1.7-2,2.8L10,25.3
				c-1.9,0.2-3.8,0.2-5.8,0.1c-1.2-0.1-2.4-0.3-3.5-0.5C0.3,24.8,0,24.9,0,25.4z"/>
		</g>
	</g>
</g>
</svg>
