<?xml version="1.0" encoding="utf-8"?>
<!-- Generator: Adobe Illustrator 18.0.0, SVG Export Plug-In . SVG Version: 6.00 Build 0)  -->
<!DOCTYPE svg PUBLIC "-//W3C//DTD SVG 1.1//EN" "http://www.w3.org/Graphics/SVG/1.1/DTD/svg11.dtd">
<svg version="1.1" id="Layer_1" xmlns="http://www.w3.org/2000/svg" xmlns:xlink="http://www.w3.org/1999/xlink" x="0px" y="0px"
	 viewBox="0 0 48 48" enable-background="new 0 0 48 48" xml:space="preserve">
<g>
	<path fill="#CDD6E0" d="M46,0H2C0.9,0,0,0.9,0,2v44c0,1.1,0.9,2,2,2h44c1.1,0,2-0.9,2-2V2C48,0.9,47.1,0,46,0z"/>
	<path fill="#F1543F" d="M46,0H2C0.9,0,0,0.9,0,2v11.5h48V2C48,0.9,47.1,0,46,0z"/>
	<g>
		<g>
			<circle fill="#FFFFFF" cx="13.1" cy="6.7" r="2"/>
			<circle fill="#FFFFFF" cx="34.9" cy="6.7" r="2"/>
		</g>
		<path fill="#F8B64C" d="M13.3,8.2h21.3c0.8,0,1.4-0.6,1.4-1.4H11.9C11.9,7.5,12.6,8.2,13.3,8.2z"/>
		<path fill="#FFD15C" d="M34.7,5.3H13.3c-0.8,0-1.4,0.6-1.4,1.4h24.2C36.1,5.9,35.4,5.3,34.7,5.3z"/>
	</g>
	<rect x="5" y="18.5" fill="#F2F2F2" width="38" height="24.5"/>
	<g>
		<rect x="16.5" y="20.5" fill="#84DBFF" width="5.5" height="5.5"/>
		<rect x="26" y="20.5" fill="#84DBFF" width="5.5" height="5.5"/>
		<rect x="35.5" y="20.5" fill="#84DBFF" width="5.5" height="5.5"/>
		<rect x="7" y="28" fill="#84DBFF" width="5.5" height="5.5"/>
		<rect x="16.5" y="28" fill="#84DBFF" width="5.5" height="5.5"/>
		<rect x="26" y="28" fill="#84DBFF" width="5.5" height="5.5"/>
		<rect x="35.5" y="28" fill="#84DBFF" width="5.5" height="5.5"/>
		<rect x="7" y="35.5" fill="#84DBFF" width="5.5" height="5.5"/>
		<rect x="16.5" y="35.5" fill="#84DBFF" width="5.5" height="5.5"/>
		<rect x="26" y="35.5" fill="#84DBFF" width="5.5" height="5.5"/>
	</g>
</g>
</svg>
