<?xml version="1.0" encoding="utf-8"?>
<!-- Generator: Adobe Illustrator 18.0.0, SVG Export Plug-In . SVG Version: 6.00 Build 0)  -->
<!DOCTYPE svg PUBLIC "-//W3C//DTD SVG 1.1//EN" "http://www.w3.org/Graphics/SVG/1.1/DTD/svg11.dtd">
<svg version="1.1" id="Layer_1" xmlns="http://www.w3.org/2000/svg" xmlns:xlink="http://www.w3.org/1999/xlink" x="0px" y="0px"
	 viewBox="0 0 48 48" enable-background="new 0 0 48 48" xml:space="preserve">
<g>
	<path fill="#F2F2F2" d="M35.9,38.2c0,7.9-5.3,9.8-11.9,9.8s-11.9-1.9-11.9-9.8S17.4,19.5,24,19.5S35.9,30.3,35.9,38.2z"/>
	<g>
		<ellipse fill="#CDD6E0" cx="19.9" cy="39.2" rx="2" ry="2.5"/>
		<ellipse fill="#CDD6E0" cx="28.1" cy="39.2" rx="2" ry="2.5"/>
	</g>
	<path opacity="0.1" fill="#231F20" d="M24,19.5c-5.6,0-10.2,7.8-11.6,14.9c1.6,1.9,4.2,3.2,7.2,3.2h8.8c2.9,0,5.5-1.3,7.2-3.2
		C34.2,27.3,29.6,19.5,24,19.5z"/>
	<g>
		<path fill="#CDD6E0" d="M21.3,48h-7.9v-1.1c0-2,1.6-3.6,3.6-3.6h0.6c2,0,3.6,1.6,3.6,3.6V48z"/>
		<path fill="#CDD6E0" d="M34.6,48h-7.9v-1.1c0-2,1.6-3.6,3.6-3.6H31c2,0,3.6,1.6,3.6,3.6V48z"/>
	</g>
	<g>
		<path fill="#F2F2F2" d="M26.4,13.4c0,0,5-15.1,14-13.2c0,0,1.3,14-10.2,19.1S26.4,13.4,26.4,13.4z"/>
		<path fill="#ACB3BA" d="M39.2,2.4c0,0-9.1,0.5-10.9,15.6c0,0-0.7,2.1,0.9,1.3C29.2,19.3,37.5,15.3,39.2,2.4z"/>
		<path fill="#F2F2F2" d="M21.6,13.4c0,0-5-15.1-14-13.2c0,0-1.3,14,10.2,19.1S21.6,13.4,21.6,13.4z"/>
		<path fill="#ACB3BA" d="M8.8,2.4c0,0,9.1,0.5,10.9,15.6c0,0,0.7,2.1-0.9,1.3C18.8,19.3,10.5,15.3,8.8,2.4z"/>
		<path fill="#F2F2F2" d="M30.2,17.9v-0.4c0-2.3-1.9-4.2-4.2-4.2H22c-2.3,0-4.2,1.9-4.2,4.2v0.4c0,2.7-1.3,5.1-3.4,6.8
			c-1.5,1.2-2.4,2.9-2.4,4.8c0,3.7,3.4,6.6,7.5,6.6h8.8c4.2,0,7.5-3,7.5-6.6c0-1.9-0.9-3.6-2.4-4.8C31.5,23,30.2,20.5,30.2,17.9z"/>
		<g>
			<polygon fill="#40596B" points="24,29 20.5,27 24,30.6 27.5,27 			"/>
			<path fill="#40596B" d="M26.2,33.1l-1.8-1.2v-1.8c0-0.2-0.2-0.3-0.3-0.3s-0.3,0.2-0.3,0.3v1.8l-1.8,1.2c-0.2,0.1-0.2,0.3-0.1,0.5
				c0.1,0.1,0.2,0.2,0.3,0.2c0.1,0,0.1,0,0.2-0.1l1.8-1.2l1.8,1.2c0.2,0.1,0.4,0.1,0.5-0.1C26.4,33.4,26.3,33.2,26.2,33.1z"/>
		</g>
		<g>
			<g>
				<ellipse fill="#40596B" cx="28.2" cy="21.4" rx="1.5" ry="1.9"/>
				<ellipse fill="#334A5E" cx="28.2" cy="21.4" rx="0.9" ry="1.2"/>
				<ellipse fill="#FFFFFF" cx="28.7" cy="20.8" rx="0.5" ry="0.6"/>
			</g>
			<g>
				<ellipse fill="#40596B" cx="19.8" cy="21.4" rx="1.5" ry="1.9"/>
				<ellipse fill="#334A5E" cx="19.8" cy="21.4" rx="0.9" ry="1.2"/>
				<ellipse fill="#FFFFFF" cx="20.2" cy="20.8" rx="0.5" ry="0.6"/>
			</g>
		</g>
		<g>
			<g>
				<path fill="#CDD6E0" d="M26.1,30.7h4.7c0.1,0,0.2-0.1,0.2-0.2s-0.1-0.2-0.2-0.2h-4.7c-0.1,0-0.2,0.1-0.2,0.2S26,30.7,26.1,30.7z
					"/>
				<path fill="#CDD6E0" d="M26.2,29.8l4.6-0.8c0.1,0,0.2-0.1,0.1-0.2c0-0.1-0.1-0.2-0.2-0.1l-4.6,0.8c-0.1,0-0.2,0.1-0.1,0.2
					C26,29.8,26.1,29.8,26.2,29.8z"/>
				<path fill="#CDD6E0" d="M30.8,32.1l-4.6-0.8c-0.1,0-0.2,0-0.2,0.1c0,0.1,0,0.2,0.1,0.2l4.6,0.8c0.1,0,0.2,0,0.2-0.1
					C30.9,32.2,30.8,32.1,30.8,32.1z"/>
			</g>
			<g>
				<path fill="#CDD6E0" d="M21.9,30.7h-4.7c-0.1,0-0.2-0.1-0.2-0.2s0.1-0.2,0.2-0.2h4.7c0.1,0,0.2,0.1,0.2,0.2S22,30.7,21.9,30.7z"
					/>
				<path fill="#CDD6E0" d="M21.8,29.8L17.2,29c-0.1,0-0.2-0.1-0.1-0.2c0-0.1,0.1-0.2,0.2-0.1l4.6,0.8c0.1,0,0.2,0.1,0.1,0.2
					C22,29.8,21.9,29.8,21.8,29.8z"/>
				<path fill="#CDD6E0" d="M17.2,32.1l4.6-0.8c0.1,0,0.2,0,0.2,0.1c0,0.1,0,0.2-0.1,0.2l-4.6,0.8c-0.1,0-0.2,0-0.2-0.1
					C17.1,32.2,17.2,32.1,17.2,32.1z"/>
			</g>
		</g>
	</g>
</g>
</svg>
