<?xml version="1.0" encoding="utf-8"?>
<!-- Generator: Adobe Illustrator 18.0.0, SVG Export Plug-In . SVG Version: 6.00 Build 0)  -->
<!DOCTYPE svg PUBLIC "-//W3C//DTD SVG 1.1//EN" "http://www.w3.org/Graphics/SVG/1.1/DTD/svg11.dtd">
<svg version="1.1" id="Layer_1" xmlns="http://www.w3.org/2000/svg" xmlns:xlink="http://www.w3.org/1999/xlink" x="0px" y="0px"
	 viewBox="0 0 48 48" enable-background="new 0 0 48 48" xml:space="preserve">
<g>
	<path fill="#84DBFF" d="M46,48H2c-1.1,0-2-0.9-2-2V11.1c0-1.1,0.9-2,2-2h44c1.1,0,2,0.9,2,2V46C48,47.1,47.1,48,46,48z"/>
	<rect x="20" y="13.1" fill="#54C0EB" width="24" height="7.2"/>
	<path fill="#40596B" d="M4,38V19c0-3.3,2.7-6,6-6l0,0c3.3,0,6,2.7,6,6v19c0,3.3-2.7,6-6,6l0,0C6.7,44,4,41.3,4,38z"/>
	<g>
		<rect x="20" y="24.4" fill="#F2F2F2" width="5" height="4.5"/>
		<rect x="39" y="24.4" fill="#F2F2F2" width="5" height="4.5"/>
		<rect x="20" y="31.9" fill="#F2F2F2" width="5" height="4.5"/>
		<rect x="39" y="31.9" fill="#F2F2F2" width="5" height="4.5"/>
		<rect x="20" y="39.5" fill="#F2F2F2" width="5" height="4.5"/>
		<rect x="39" y="39.5" fill="#F2F2F2" width="5" height="4.5"/>
		<rect x="29.5" y="24.4" fill="#F2F2F2" width="5" height="4.5"/>
		<rect x="29.5" y="31.9" fill="#F2F2F2" width="5" height="4.5"/>
		<rect x="29.5" y="39.5" fill="#F2F2F2" width="5" height="4.5"/>
	</g>
	<path fill="#F2F2F2" d="M44,9.1H20.1V2c0-1.1,0.9-2,2-2H42c1.1,0,2,0.9,2,2V9.1z"/>
	<g>
		<rect x="23.9" y="1.4" fill="#CDD6E0" width="16.2" height="2.3"/>
		<rect x="23.9" y="5.4" fill="#CDD6E0" width="16.2" height="2.3"/>
	</g>
	<g>
		<polygon fill="#FFFFFF" points="26.1,13.1 20,19.1 20,17.3 24.3,13.1 		"/>
		<polygon fill="#FFFFFF" points="32.8,13.1 25.6,20.2 21.7,20.2 28.9,13.1 		"/>
	</g>
</g>
</svg>
