<?xml version="1.0" encoding="utf-8"?>
<!-- Generator: Adobe Illustrator 18.0.0, SVG Export Plug-In . SVG Version: 6.00 Build 0)  -->
<!DOCTYPE svg PUBLIC "-//W3C//DTD SVG 1.1//EN" "http://www.w3.org/Graphics/SVG/1.1/DTD/svg11.dtd">
<svg version="1.1" id="Layer_1" xmlns="http://www.w3.org/2000/svg" xmlns:xlink="http://www.w3.org/1999/xlink" x="0px" y="0px"
	 viewBox="0 0 48 48" enable-background="new 0 0 48 48" xml:space="preserve">
<g>
	<g>
		<g>
			<g>
				<g>
					
						<rect x="23.1" y="4.2" transform="matrix(0.8671 0.498 -0.498 0.8671 15.1503 -8.7968)" fill="#415A6B" width="2" height="39.6"/>
				</g>
			</g>
			<g>
				<g>
					
						<rect x="4.3" y="23" transform="matrix(0.4976 0.8674 -0.8674 0.4976 32.9095 -8.8156)" fill="#415A6B" width="39.6" height="2"/>
				</g>
			</g>
			<g>
				<rect x="4.2" y="23" fill="#415A6B" width="39.7" height="2"/>
			</g>
		</g>
		<g>
			<g>
				<g>
					<path fill="#415A6B" d="M34.5,42.2h-21L3,24L13.5,5.8h21L45,24L34.5,42.2z M14.7,40.2h18.7L42.7,24L33.3,7.8H14.7L5.3,24
						L14.7,40.2z"/>
				</g>
			</g>
			<g>
				<g>
					<circle fill="#F3705A" cx="33.9" cy="6.8" r="4.2"/>
				</g>
				<g>
					<g>
						<circle fill="#F05540" cx="33.9" cy="6.8" r="2.7"/>
					</g>
				</g>
			</g>
			<g>
				<g>
					<circle fill="#FFD15C" cx="33.9" cy="41.2" r="4.2"/>
				</g>
				<g>
					<g>
						<circle fill="#F7B64C" cx="33.9" cy="41.2" r="2.7"/>
					</g>
				</g>
			</g>
			<g>
				<g>
					<circle fill="#8AD7F8" cx="43.8" cy="24" r="4.2"/>
				</g>
				<g>
					<g>
						<circle fill="#55C0EB" cx="43.8" cy="24" r="2.7"/>
					</g>
				</g>
			</g>
			<g>
				<g>
					<circle fill="#FFD15C" cx="4.2" cy="24" r="4.2"/>
				</g>
				<g>
					<g>
						<circle fill="#F7B64C" cx="4.2" cy="24" r="2.7"/>
					</g>
				</g>
			</g>
			<g>
				<g>
					<circle fill="#F3705A" cx="14.2" cy="41.2" r="4.2"/>
				</g>
				<g>
					<g>
						<circle fill="#F05540" cx="14.2" cy="41.2" r="2.7"/>
					</g>
				</g>
			</g>
			<g>
				<g>
					<circle fill="#8AD7F8" cx="14.2" cy="6.8" r="4.2"/>
				</g>
				<g>
					<g>
						<circle fill="#55C0EB" cx="14.2" cy="6.8" r="2.7"/>
					</g>
				</g>
			</g>
		</g>
		<g>
			<g>
				<g>
					<circle fill="#F3F3F3" cx="24" cy="24" r="11.5"/>
				</g>
			</g>
			<g>
				<g>
					<circle fill="#8AD7F8" cx="24" cy="24" r="9.1"/>
				</g>
			</g>
			<g>
				<g>
					<g>
						<path fill="#415A6B" d="M31,28.5c-0.2-0.9-0.8-1.7-1.7-2c-3.6-1.3-7.1-1.3-10.7,0c-0.9,0.3-1.5,1.1-1.7,2l-0.2,1
							c1.7,2.2,4.3,3.6,7.2,3.6c2.9,0,5.6-1.4,7.2-3.6L31,28.5z"/>
					</g>
					<g>
						<path fill="#CED6E0" d="M23.5,33.1c0.1,0,0.3,0,0.5,0c0.2,0,0.3,0,0.4,0l1.7-5.7h-4.3L23.5,33.1z"/>
					</g>
					<g>
						<g>
							<polygon fill="#F3705A" points="24.5,28.9 25,28.4 24,27.4 23,28.4 23.5,28.9 							"/>
						</g>
						<g>
							<path fill="#F3705A" d="M23.5,28.9l-0.8,3.3l0.5,0.9c0.3,0,0.5,0,0.8,0s0.6,0,0.8,0l0.5-0.9l-0.8-3.3H23.5z"/>
						</g>
					</g>
					<g>
						<g>
							<g>
								<g>
									<polygon fill="#F3F3F3" points="24,27.4 26.1,24.7 26.7,25.7 25.3,28.9 									"/>
								</g>
							</g>
							<g>
								<g>
									<polygon fill="#F3F3F3" points="24,27.4 21.9,24.7 21.3,25.7 22.7,28.9 									"/>
								</g>
							</g>
						</g>
						<g>
							<polygon fill="#F7B64C" points="21.9,23.8 24,21.1 26.1,23.8 26.1,24.7 24,27.4 21.9,24.7 							"/>
						</g>
					</g>
					<g>
						<g>
							<path fill="#344A5E" d="M26.3,25l-2,8.1c0.2,0,0.4,0,0.5,0l2.9-4.8l-0.9-0.8l1.1-0.6L26.3,25z"/>
						</g>
						<g>
							<path fill="#344A5E" d="M21.7,25L20,26.9l1.1,0.6l-0.9,0.8l2.9,4.8c0.2,0,0.4,0,0.5,0L21.7,25z"/>
						</g>
					</g>
				</g>
				<g>
					<g>
						<g>
							<g>
								<path fill="#FFD15C" d="M27.7,21.8c-0.1,0.6-0.5,1-0.8,1c-0.4-0.1-0.6-0.6-0.5-1.2s0.5-1,0.8-1
									C27.6,20.7,27.8,21.2,27.7,21.8z"/>
							</g>
						</g>
						<g>
							<g>
								<path fill="#FFD15C" d="M20.3,21.8c0.1,0.6,0.5,1,0.8,1c0.4-0.1,0.6-0.6,0.5-1.2s-0.5-1-0.8-1
									C20.4,20.7,20.2,21.2,20.3,21.8z"/>
							</g>
						</g>
					</g>
					<g>
						<g>
							<g>
								<path fill="#344A5E" d="M26.5,19.8c0,1.9-0.8,4.4-3,4.4s-3-2.5-3-4.4s1.3-3.5,3-3.5C25.2,16.3,26.5,17.9,26.5,19.8z"/>
							</g>
						</g>
						<g>
							<g>
								<path fill="#344A5E" d="M27.4,19.8c0,1.6-0.5,3.6-1.9,3.6c-1.4,0-1.9-2-1.9-3.6c0-1.6,0.8-2.8,1.9-2.8
									C26.6,16.9,27.4,18.2,27.4,19.8z"/>
							</g>
						</g>
					</g>
					<g>
						<g>
							<path fill="#FFD15C" d="M21.1,21.4c-0.1,2.2,1.2,4.1,2.9,4.1c1.7,0,3-1.9,2.9-4.1c0-0.7-0.2-1.3-0.5-1.9
								c-0.8,0-1.5-0.3-1.9-0.9c-0.8,1-1.9,1.7-3.4,2.2C21.1,20.9,21.1,21.2,21.1,21.4z"/>
						</g>
					</g>
				</g>
			</g>
		</g>
	</g>
</g>
</svg>
