<?xml version="1.0" encoding="utf-8"?>
<!-- Generator: Adobe Illustrator 18.0.0, SVG Export Plug-In . SVG Version: 6.00 Build 0)  -->
<!DOCTYPE svg PUBLIC "-//W3C//DTD SVG 1.1//EN" "http://www.w3.org/Graphics/SVG/1.1/DTD/svg11.dtd">
<svg version="1.1" id="Layer_1" xmlns="http://www.w3.org/2000/svg" xmlns:xlink="http://www.w3.org/1999/xlink" x="0px" y="0px"
	 viewBox="0 0 48 48" enable-background="new 0 0 48 48" xml:space="preserve">
<g>
	<polygon fill="#415A6B" points="20.4,15 27.6,15 27.6,25.4 31.6,25.4 24,33 16.4,25.4 20.4,25.4 	"/>
</g>
<g>
	<g>
		<g>
			<path fill="#E8EAE9" d="M25.5,22.8V7c0-3.9-3.1-7-7-7c-3.9,0-7,3.1-7,7v15.8c-3.9,2.4-6.6,6.7-6.6,11.6C4.9,41.9,11,48,18.5,48
				s13.6-6.1,13.6-13.6C32.1,29.5,29.4,25.2,25.5,22.8z"/>
			<g>
				<path fill="#F3705A" d="M21.3,25.5V13.5c0-1.6-1.3-2.8-2.8-2.8c-1.6,0-2.8,1.3-2.8,2.8v11.9c-3.8,1.2-6.6,4.8-6.6,9
					c0,5.2,4.2,9.4,9.4,9.4s9.4-4.2,9.4-9.4C27.9,30.2,25.1,26.7,21.3,25.5z"/>
			</g>
		</g>
		<g>
			<g>
				<polygon fill="#415A6B" points="39.1,18.1 31.9,18.1 31.9,7.6 27.9,7.6 35.5,0 43.1,7.6 39.1,7.6 				"/>
			</g>
		</g>
	</g>
</g>
</svg>
