<?xml version="1.0" encoding="utf-8"?>
<!-- Generator: Adobe Illustrator 18.0.0, SVG Export Plug-In . SVG Version: 6.00 Build 0)  -->
<!DOCTYPE svg PUBLIC "-//W3C//DTD SVG 1.1//EN" "http://www.w3.org/Graphics/SVG/1.1/DTD/svg11.dtd">
<svg version="1.1" id="Layer_1" xmlns="http://www.w3.org/2000/svg" xmlns:xlink="http://www.w3.org/1999/xlink" x="0px" y="0px"
	 viewBox="0 0 512 512" enable-background="new 0 0 512 512" xml:space="preserve">
<g>
	<path fill="#4FBFA8" d="M165.6,145.1l-54.3-68.8c-7.7-9.8-21.9-11.4-31.6-3.7c-9.8,7.7-11.4,21.9-3.7,31.6l32.3,40.9H165.6z"/>
	<path fill="#4FBFA8" d="M396.8,154l39.3-49.8c7.7-9.8,6-23.9-3.7-31.6c-9.8-7.7-23.9-6-31.6,3.7L339.4,154H396.8z"/>
	<g>
		<path fill="#4FBFA8" d="M424.9,473.5L391.3,431h-57.4l55.6,70.5c4.4,5.6,11,8.6,17.7,8.6c4.9,0,9.8-1.6,13.9-4.8
			C430.9,497.4,432.6,483.3,424.9,473.5z"/>
		<path fill="#4FBFA8" d="M87.1,473.5c-7.7,9.8-6,23.9,3.7,31.6c4.1,3.3,9.1,4.8,13.9,4.8c6.7,0,13.2-2.9,17.7-8.6l60-76h-57.4
			L87.1,473.5z"/>
	</g>
	<g>
		<path fill="#334A5E" d="M43.1,22.9L43.1,22.9C0.4,56.3-7.1,118.1,26.3,160.8L181,39.7C147.6-3,85.8-10.5,43.1,22.9z"/>
		<path fill="#334A5E" d="M468.9,22.9L468.9,22.9C426.2-10.5,364.4-3,331,39.7l154.7,121.1C519.1,118.1,511.6,56.3,468.9,22.9z"/>
	</g>
	<circle fill="#41596B" cx="256" cy="279.6" r="219.6"/>
	<path fill="#F2F2F2" d="M256,435.2c-85.8,0-155.6-69.8-155.6-155.6S170.2,124,256,124c85.8,0,155.6,69.8,155.6,155.6
		S341.8,435.2,256,435.2z"/>
	<g>
		<path fill="#F2705B" d="M256,133.5c-2.3,0-4.2,1.9-4.2,4.2v11.4c0,2.3,1.9,4.2,4.2,4.2s4.2-1.9,4.2-4.2v-11.4
			C260.2,135.4,258.3,133.5,256,133.5z"/>
		<path fill="#F2705B" d="M256,405.9c-2.3,0-4.2,1.9-4.2,4.2v11.4c0,2.3,1.9,4.2,4.2,4.2s4.2-1.9,4.2-4.2v-11.4
			C260.2,407.8,258.3,405.9,256,405.9z"/>
		<path fill="#F2705B" d="M188.7,154.6c-1.2-2-3.8-2.7-5.8-1.5c-2,1.2-2.7,3.8-1.5,5.8l5.7,9.8c0.8,1.4,2.2,2.1,3.7,2.1
			c0.7,0,1.4-0.2,2.1-0.6c2-1.2,2.7-3.8,1.5-5.8L188.7,154.6z"/>
		<path fill="#F2705B" d="M324.9,390.5c-1.2-2-3.7-2.7-5.8-1.5c-2,1.2-2.7,3.8-1.5,5.8l5.7,9.8c0.8,1.4,2.2,2.1,3.7,2.1
			c0.7,0,1.4-0.2,2.1-0.6c2-1.2,2.7-3.8,1.5-5.8L324.9,390.5z"/>
		<path fill="#F2705B" d="M145.1,210.7l-9.8-5.7c-2-1.2-4.6-0.5-5.8,1.5c-1.2,2-0.5,4.6,1.5,5.8l9.8,5.7c0.7,0.4,1.4,0.6,2.1,0.6
			c1.5,0,2.9-0.8,3.7-2.1C147.8,214.4,147.1,211.8,145.1,210.7z"/>
		<path fill="#F2705B" d="M381,346.9l-9.8-5.7c-2-1.2-4.6-0.5-5.8,1.5c-1.2,2-0.5,4.6,1.5,5.8l9.8,5.7c0.7,0.4,1.4,0.6,2.1,0.6
			c1.5,0,2.9-0.8,3.7-2.1C383.7,350.7,383,348.1,381,346.9z"/>
		<path fill="#F2705B" d="M125.5,275.4h-11.4c-2.3,0-4.2,1.9-4.2,4.2c0,2.3,1.9,4.2,4.2,4.2h11.4c2.3,0,4.2-1.9,4.2-4.2
			C129.7,277.3,127.8,275.4,125.5,275.4z"/>
		<path fill="#F2705B" d="M397.9,275.4h-11.4c-2.3,0-4.2,1.9-4.2,4.2c0,2.3,1.9,4.2,4.2,4.2h11.4c2.3,0,4.2-1.9,4.2-4.2
			C402.1,277.3,400.2,275.4,397.9,275.4z"/>
		<path fill="#F2705B" d="M140.8,341.2l-9.8,5.7c-2,1.2-2.7,3.8-1.5,5.8c0.8,1.4,2.2,2.1,3.7,2.1c0.7,0,1.4-0.2,2.1-0.6l9.8-5.7
			c2-1.2,2.7-3.8,1.5-5.8C145.4,340.7,142.8,340,140.8,341.2z"/>
		<path fill="#F2705B" d="M369.1,218.6c0.7,0,1.4-0.2,2.1-0.6l9.8-5.7c2-1.2,2.7-3.8,1.5-5.8c-1.2-2-3.7-2.7-5.8-1.5l-9.8,5.7
			c-2,1.2-2.7,3.8-1.5,5.8C366.2,217.8,367.6,218.6,369.1,218.6z"/>
		<path fill="#F2705B" d="M192.8,389c-2-1.2-4.6-0.5-5.8,1.5l-5.7,9.8c-1.2,2-0.5,4.6,1.5,5.8c0.7,0.4,1.4,0.6,2.1,0.6
			c1.5,0,2.9-0.8,3.7-2.1l5.7-9.8C195.5,392.8,194.9,390.2,192.8,389z"/>
		<path fill="#F2705B" d="M329.1,153c-2-1.2-4.6-0.5-5.8,1.5l-5.7,9.8c-1.2,2-0.5,4.6,1.5,5.8c0.7,0.4,1.4,0.6,2.1,0.6
			c1.5,0,2.9-0.8,3.7-2.1l5.7-9.8C331.8,156.8,331.1,154.2,329.1,153z"/>
	</g>
	<path opacity="0.5" fill="#CDD5DF" d="M111.7,290.9c0-85.8,69.8-155.6,155.6-155.6c40,0,76.6,15.2,104.2,40.1
		C343,143.9,301.8,124,256,124c-85.8,0-155.6,69.8-155.6,155.6c0,45.8,19.9,87,51.4,115.4C126.9,367.4,111.7,330.9,111.7,290.9z"/>
	<g>
		<path fill="#FFD05C" d="M256,174.2c-4.7,0-8.4,3.8-8.4,8.4v70.5c0,4.7,3.8,8.4,8.4,8.4c4.7,0,8.4-3.8,8.4-8.4v-70.5
			C264.4,177.9,260.7,174.2,256,174.2z"/>
		<path fill="#FFD05C" d="M230.2,271.2h-52.7c-4.7,0-8.4,3.8-8.4,8.4c0,4.7,3.8,8.4,8.4,8.4h52.7c4.7,0,8.4-3.8,8.4-8.4
			C238.7,274.9,234.9,271.2,230.2,271.2z"/>
	</g>
	<path fill="#F6B44B" d="M256,248.6c-17.1,0-31,13.9-31,31c0,17.1,13.9,31,31,31c17.1,0,31-13.9,31-31
		C287,262.5,273.1,248.6,256,248.6z M256,295.2c-8.6,0-15.6-7-15.6-15.6c0-8.6,7-15.6,15.6-15.6c8.6,0,15.6,7,15.6,15.6
		C271.6,288.2,264.6,295.2,256,295.2z"/>
</g>
</svg>
