<?xml version="1.0" encoding="utf-8"?>
<!-- Generator: Adobe Illustrator 18.0.0, SVG Export Plug-In . SVG Version: 6.00 Build 0)  -->
<!DOCTYPE svg PUBLIC "-//W3C//DTD SVG 1.1//EN" "http://www.w3.org/Graphics/SVG/1.1/DTD/svg11.dtd">
<svg version="1.1" id="Layer_1" xmlns="http://www.w3.org/2000/svg" xmlns:xlink="http://www.w3.org/1999/xlink" x="0px" y="0px"
	 viewBox="0 0 48 48" enable-background="new 0 0 48 48" xml:space="preserve">
<g>
	<g>
		<g>
			<path fill="#F3F3F3" d="M12.4,48L0,35.6V3c0-1.7,1.3-3,3-3h34c1.7,0,3,1.3,3,3v42c0,1.7-1.3,3-3,3H12.4z"/>
			<polygon fill="#8AD7F8" points="12.4,48 0,35.6 12.4,35.6 			"/>
		</g>
		<g>
			<rect x="5" y="19" fill="#CED6E0" width="11.9" height="2.5"/>
			<rect x="5" y="12.2" fill="#CED6E0" width="30" height="2.5"/>
			<rect x="5" y="5.4" fill="#CED6E0" width="30" height="2.5"/>
		</g>
		<g>
			<g>
				<g>
					<path fill="#415A6B" d="M27.3,31.8c1.5,1.9,3.4,4.1,5.6,6.2c6.8,6.8,13.4,11.1,14.8,9.7c1.4-1.4-2.9-8-9.7-14.8
						c-2.1-2.1-4.2-4-6.2-5.6L27.3,31.8z"/>
				</g>
			</g>
			<g>
				<g>
					<path fill="#F3705A" d="M31.9,27.4c-1.4-1.1-2.8-2.1-3.9-2.8L24.6,28c0.7,1.2,1.7,2.5,2.8,3.9L31.9,27.4z"/>
				</g>
			</g>
			<g>
				<g>
					<g>
						<polygon fill="#FFD15C" points="27.2,24.7 25.8,21.7 20,20 21.8,25.8 24.8,27.2 						"/>
					</g>
				</g>
				<g>
					<g>
						<circle fill="#F7B64C" cx="23.7" cy="23.7" r="0.5"/>
					</g>
				</g>
			</g>
			<g>
				<g>
					<path fill="#F05540" d="M24.3,27.5l3.2-3.2c0.2-0.2,0.6-0.2,0.8,0c0.2,0.2,0.2,0.6,0,0.8l-3.2,3.2c-0.2,0.2-0.6,0.2-0.8,0
						C24.1,28.1,24.1,27.7,24.3,27.5z"/>
				</g>
			</g>
		</g>
	</g>
</g>
</svg>
