<?xml version="1.0" encoding="utf-8"?>
<!-- Generator: Adobe Illustrator 18.0.0, SVG Export Plug-In . SVG Version: 6.00 Build 0)  -->
<!DOCTYPE svg PUBLIC "-//W3C//DTD SVG 1.1//EN" "http://www.w3.org/Graphics/SVG/1.1/DTD/svg11.dtd">
<svg version="1.1" id="Layer_1" xmlns="http://www.w3.org/2000/svg" xmlns:xlink="http://www.w3.org/1999/xlink" x="0px" y="0px"
	 viewBox="0 0 48 48" enable-background="new 0 0 48 48" xml:space="preserve">
<g>
	<path fill="#CDD6E0" d="M48,8H0V2c0-1.1,0.9-2,2-2h44c1.1,0,2,0.9,2,2V8z"/>
	<path fill="#F2F2F2" d="M46,48H2c-1.1,0-2-0.9-2-2V8h48v38C48,47.1,47.1,48,46,48z"/>
	<rect x="4" y="12" fill="#FFFFFF" width="40" height="32"/>
	<g>
		<circle fill="#F2F2F2" cx="5.6" cy="4" r="1.6"/>
		<circle fill="#F2F2F2" cx="10.8" cy="4" r="1.6"/>
		<circle fill="#F2F2F2" cx="16" cy="4" r="1.6"/>
	</g>
	<g>
		<polygon fill="#FF7058" points="36.4,38.5 32.2,39.1 29.9,42.6 22.6,31.1 29.1,27 		"/>
		<polygon fill="#FF7058" points="11.6,38.5 15.8,39.1 18.1,42.6 25.4,31.1 18.9,27 		"/>
	</g>
	<path fill="#FFD15C" d="M36.2,25.3c0,0.9-1,1.7-1.2,2.5c-0.2,0.9,0.4,2,0,2.8c-0.4,0.8-1.6,1-2.2,1.7c-0.5,0.7-0.5,2-1.2,2.5
		c-0.7,0.5-1.9,0.2-2.7,0.6c-0.8,0.4-1.3,1.6-2.2,1.8c-0.8,0.2-1.8-0.6-2.7-0.6c-0.9,0-1.9,0.8-2.7,0.6c-0.9-0.2-1.4-1.4-2.2-1.8
		c-0.8-0.4-2-0.1-2.7-0.6c-0.7-0.5-0.7-1.8-1.2-2.5c-0.5-0.7-1.8-0.9-2.2-1.7c-0.4-0.8,0.2-1.9,0-2.8c-0.2-0.8-1.2-1.6-1.2-2.5
		c0-0.9,1-1.7,1.2-2.5c0.2-0.9-0.4-2,0-2.8c0.4-0.8,1.6-1,2.2-1.7c0.5-0.7,0.5-2,1.2-2.5c0.7-0.5,1.9-0.2,2.7-0.6
		c0.8-0.4,1.3-1.6,2.2-1.8c0.8-0.2,1.8,0.6,2.7,0.6c0.9,0,1.9-0.8,2.7-0.6c0.9,0.2,1.4,1.4,2.2,1.8c0.8,0.4,2,0.1,2.7,0.6
		c0.7,0.5,0.7,1.8,1.2,2.5c0.5,0.7,1.8,0.9,2.2,1.7c0.4,0.8-0.2,1.9,0,2.8C35.2,23.7,36.2,24.4,36.2,25.3z"/>
	<polygon fill="#F8B64C" points="24,18.3 25.7,23.7 31.4,23.7 26.8,27 28.6,32.4 24,29 19.4,32.4 21.2,27 16.6,23.7 22.3,23.7 	"/>
</g>
</svg>
