<?xml version="1.0" encoding="utf-8"?>
<!-- Generator: Adobe Illustrator 18.0.0, SVG Export Plug-In . SVG Version: 6.00 Build 0)  -->
<!DOCTYPE svg PUBLIC "-//W3C//DTD SVG 1.1//EN" "http://www.w3.org/Graphics/SVG/1.1/DTD/svg11.dtd">
<svg version="1.1" id="Layer_1" xmlns="http://www.w3.org/2000/svg" xmlns:xlink="http://www.w3.org/1999/xlink" x="0px" y="0px"
	 viewBox="0 0 48 48" enable-background="new 0 0 48 48" xml:space="preserve">
<g>
	<g>
		<g>
			<path fill="#F7B64C" d="M42.8,42.8l-3.2-3.2c5.1-5.1,5.1-13.5,0-18.6c-5.1-5.1-13.5-5.1-18.6,0l-3.2-3.2c6.9-6.9,18.1-6.9,25,0
				C49.7,24.7,49.7,35.9,42.8,42.8z"/>
		</g>
		<g>
			<g>
				<path fill="#FFD15C" d="M17.7,42.4C7.9,42.4,0,34.5,0,24.7C0,15,7.9,7,17.7,7c9.8,0,17.7,7.9,17.7,17.7
					C35.4,34.5,27.5,42.4,17.7,42.4z M17.7,11.6c-7.3,0-13.2,5.9-13.2,13.2c0,7.3,5.9,13.2,13.2,13.2c7.3,0,13.2-5.9,13.2-13.2
					C30.9,17.5,25,11.6,17.7,11.6z"/>
				<g>
					<polygon fill="#F3705A" points="26.8,3.7 17.7,12.2 8.6,3.7 					"/>
					<polygon fill="#F05540" points="26.8,3.7 8.6,3.7 11.9,0 23.5,0 					"/>
				</g>
			</g>
		</g>
		<g>
			<g>
				<path fill="#F7B64C" d="M42.8,42.8c-6.9,6.9-18.1,6.9-25,0c-6.9-6.9-6.9-18.1,0-25L21,21c-5.1,5.1-5.1,13.5,0,18.6
					c5.1,5.1,13.5,5.1,18.6,0L42.8,42.8z"/>
			</g>
		</g>
	</g>
</g>
</svg>
