<?xml version="1.0" encoding="utf-8"?>
<!-- Generator: Adobe Illustrator 18.0.0, SVG Export Plug-In . SVG Version: 6.00 Build 0)  -->
<!DOCTYPE svg PUBLIC "-//W3C//DTD SVG 1.1//EN" "http://www.w3.org/Graphics/SVG/1.1/DTD/svg11.dtd">
<svg version="1.1" id="Layer_1" xmlns="http://www.w3.org/2000/svg" xmlns:xlink="http://www.w3.org/1999/xlink" x="0px" y="0px"
	 viewBox="0 0 48 48" enable-background="new 0 0 48 48" xml:space="preserve">
<g>
	<g>
		<path fill="#FF7058" d="M32.5,47.1c-8.1,0-14.8-6.6-14.8-14.8v-2.6h4.9v2.6c0,5.4,4.4,9.8,9.8,9.8c5.4,0,9.8-4.4,9.8-9.8V5h4.9
			v27.3C47.2,40.5,40.6,47.1,32.5,47.1z"/>
	</g>
	<g>
		<path fill="#84DBFF" d="M29.6,7c-4.1,0-14.8,0-18.9,0C4.8,7,0,11.8,0,17.7s4.8,10.7,10.7,10.7c4.1,0,7.7-2.3,9.5-5.7
			c1.8,3.4,5.4,5.7,9.5,5.7c5.9,0,10.7-4.8,10.7-10.7S35.5,7,29.6,7z"/>
		<path fill="#54C0EB" d="M29.6,26.3c-3.2,0-6.1-1.7-7.6-4.5l-1.9-3.5l-1.9,3.5c-1.5,2.8-4.4,4.5-7.6,4.5c-4.7,0-8.6-3.9-8.6-8.6
			S6,9.1,10.7,9.1h18.9c4.7,0,8.6,3.9,8.6,8.6S34.4,26.3,29.6,26.3z"/>
		<g>
			<path fill="#84DBFF" d="M5.3,18.5c-0.4,0-0.8-0.4-0.8-0.8c0-3.4,2.8-6.2,6.2-6.2c0.4,0,0.8,0.4,0.8,0.8c0,0.4-0.4,0.8-0.8,0.8
				c-2.5,0-4.6,2.1-4.6,4.6C6.1,18.1,5.8,18.5,5.3,18.5z"/>
		</g>
	</g>
	<path fill="#FFD15C" d="M24.3,28.1c-2.7-0.7-5.6-0.7-8.3,0c-0.5,0.1-0.9,0.6-0.9,1.1v3.8c0,0.5,0.3,1,0.9,1.1
		c2.7,0.7,5.6,0.7,8.3,0c0.5-0.1,0.9-0.6,0.9-1.1v-3.8C25.2,28.7,24.8,28.2,24.3,28.1z"/>
	<rect x="41.5" y="0.9" fill="#40596B" width="6.5" height="4.2"/>
</g>
</svg>
