<?xml version="1.0" encoding="utf-8"?>
<!-- Generator: Adobe Illustrator 16.0.0, SVG Export Plug-In . SVG Version: 6.00 Build 0)  -->
<!DOCTYPE svg PUBLIC "-//W3C//DTD SVG 1.1//EN" "http://www.w3.org/Graphics/SVG/1.1/DTD/svg11.dtd">
<svg version="1.1" id="Layer_1" xmlns="http://www.w3.org/2000/svg" xmlns:xlink="http://www.w3.org/1999/xlink" x="0px" y="0px"
	 width="48px" height="48px" viewBox="0 0 48 48" enable-background="new 0 0 48 48" xml:space="preserve">
<g>
	<rect x="20.526" y="38.521" fill="#415A6B" width="6.947" height="9.479"/>
	<path fill="#F3705A" d="M45.228,21.228c0,11.724-9.504,21.228-21.227,21.228c-11.725,0-21.229-9.504-21.229-21.228
		C2.772,9.503,12.276,0,24.001,0C35.724,0,45.228,9.503,45.228,21.228"/>
	<path fill="#FFFFFF" d="M24.001,37.332c-8.881,0-16.104-7.224-16.104-16.104c0-8.879,7.224-16.103,16.104-16.103
		c8.88,0,16.104,7.224,16.104,16.103C40.104,30.108,32.881,37.332,24.001,37.332"/>
	
		<rect x="11.446" y="19.897" transform="matrix(0.8184 0.5747 -0.5747 0.8184 15.4906 -8.3235)" fill="#415A6B" width="18.935" height="0.896"/>
	<path fill="#415A6B" d="M28.124,21.686l-3.445,4.908l2.873,1.938c1.313,0.854,3.967-0.768,3.967-0.768s0.621-3.045-0.627-3.988
		L28.124,21.686z"/>
	<path fill="#FFD15C" d="M20.88,16.262l-3.596,6.459l0.176-1.354l-0.311,5.311l-0.02,0.286c-0.004,0.036-0.01,0.073-0.021,0.105
		l-1.406,4.288c-0.16,0.488-0.685,0.754-1.172,0.594c-0.488-0.159-0.752-0.682-0.597-1.169l1.384-4.295l-0.041,0.392l-1.4-4.602
		c-0.168-0.372-0.139-0.782,0.043-1.114l0.134-0.241l3.596-6.459c0.497-0.892,1.623-1.213,2.515-0.716
		C21.056,14.244,21.376,15.37,20.88,16.262"/>
	<path fill="#FFD15C" d="M16.913,20.289l5.64,5.139l0.026,0.025c0.207,0.188,0.312,0.448,0.313,0.706l-0.01,4.813
		c-0.002,0.523-0.428,0.947-0.951,0.946s-0.948-0.423-0.947-0.946l-0.01-4.813l0.339,0.731l-5.994-4.72
		c-0.534-0.423-0.627-1.197-0.206-1.732c0.422-0.535,1.197-0.628,1.732-0.206C16.868,20.25,16.892,20.27,16.913,20.289"/>
	<path fill="#FFD15C" d="M15.911,23.67c-0.349,0-0.701-0.085-1.029-0.264c-1.047-0.57-1.433-1.88-0.862-2.926l3.351-6.151
		c0.569-1.046,1.881-1.432,2.926-0.86c1.047,0.569,1.433,1.879,0.862,2.926l-3.351,6.15C17.417,23.264,16.675,23.67,15.911,23.67"/>
	<path fill="#FFD15C" d="M23.95,10.341c0.181,1.29-0.719,2.481-2.008,2.662c-1.291,0.18-2.482-0.719-2.662-2.008
		c-0.182-1.29,0.717-2.482,2.008-2.662C22.577,8.152,23.769,9.051,23.95,10.341"/>
	<path fill="#FFD15C" d="M22.951,23.248c-0.326,0-0.628-0.208-0.733-0.535l-2.412-7.509c-0.129-0.405,0.094-0.84,0.498-0.97
		c0.404-0.128,0.84,0.094,0.969,0.498l2.412,7.509c0.131,0.405-0.092,0.84-0.498,0.97C23.109,23.235,23.029,23.248,22.951,23.248"/>
	<path fill="#FFD15C" d="M12.681,15.738c-0.221,0-0.442-0.096-0.594-0.279c-0.271-0.329-0.225-0.814,0.104-1.085l2.356-1.942
		c0.184-0.151,0.426-0.209,0.658-0.157l4.332,0.972c0.415,0.093,0.676,0.505,0.584,0.92c-0.094,0.415-0.504,0.676-0.921,0.584
		l-3.964-0.89l-2.066,1.702C13.027,15.68,12.854,15.738,12.681,15.738"/>
	<path fill="#ADB3BA" d="M36.126,26.832c-0.932-0.629-2.035-0.827-3.063-0.629c-0.18-0.475-0.485-0.922-0.885-1.293
		c-1.465-1.359-3.766-1.283-5.125,0.182c-1.027,1.111-1.238,2.682-0.647,3.975c-1.511,0-2.737,1.219-2.755,2.735h12.466
		c0.653-0.748,1.235-1.555,1.743-2.414C37.638,28.382,37.046,27.452,36.126,26.832"/>
</g>
</svg>
