<?xml version="1.0" encoding="utf-8"?>
<!-- Generator: Adobe Illustrator 18.0.0, SVG Export Plug-In . SVG Version: 6.00 Build 0)  -->
<!DOCTYPE svg PUBLIC "-//W3C//DTD SVG 1.1//EN" "http://www.w3.org/Graphics/SVG/1.1/DTD/svg11.dtd">
<svg version="1.1" id="Layer_1" xmlns="http://www.w3.org/2000/svg" xmlns:xlink="http://www.w3.org/1999/xlink" x="0px" y="0px"
	 viewBox="0 0 48 48" enable-background="new 0 0 48 48" xml:space="preserve">
<g>
	<path fill="#FFD15C" d="M14.6,5.4L4.9,16.9c-1.4,1.7-0.2,4.2,2,4.2h19.3c2.2,0,3.4-2.6,2-4.2L18.5,5.4C17.5,4.2,15.6,4.2,14.6,5.4z
		"/>
	<path fill="#40596B" d="M35.8,9.4c-1.9,0-3.6,1.4-3.9,3.3l-0.7,3.7H2c-1.4,0-2.4,1.4-1.9,2.8l7,17.3c0.3,0.8,1,1.2,1.9,1.2h20.5
		c1,0,1.8-0.7,2-1.7l3.3-17.3c0,0,0,0,0,0l0.8-4.4c0.1-0.5,0.5-0.8,1-0.8H38v-4H35.8z"/>
	<path fill="#334A5E" d="M10.8,28c-2.3,0-4.5,0.9-6,2.5l2.4,6c0.3,0.8,1,1.2,1.9,1.2h10.2c0.1-0.4,0.1-0.8,0.1-1.2
		C19.3,31.8,15.5,28,10.8,28z"/>
	<rect x="38" y="8.9" fill="#FF7058" width="10" height="4.9"/>
	<circle fill="#CDD6E0" cx="10.8" cy="36.5" r="7"/>
	<circle fill="#FFFFFF" cx="10.8" cy="36.5" r="3.1"/>
	<circle fill="#FFFFFF" cx="10.8" cy="36.5" r="3.1"/>
	<path fill="#F2F2F2" d="M10.8,34c1.6,0,2.9,1.2,3.1,2.8c0-0.1,0-0.2,0-0.3c0-1.7-1.4-3.1-3.1-3.1c-1.7,0-3.1,1.4-3.1,3.1
		c0,0.1,0,0.2,0,0.3C7.8,35.2,9.1,34,10.8,34z"/>
</g>
</svg>
