<?xml version="1.0" encoding="utf-8"?>
<!-- Generator: Adobe Illustrator 18.0.0, SVG Export Plug-In . SVG Version: 6.00 Build 0)  -->
<!DOCTYPE svg PUBLIC "-//W3C//DTD SVG 1.1//EN" "http://www.w3.org/Graphics/SVG/1.1/DTD/svg11.dtd">
<svg version="1.1" id="Layer_1" xmlns="http://www.w3.org/2000/svg" xmlns:xlink="http://www.w3.org/1999/xlink" x="0px" y="0px"
	 viewBox="0 0 512 512" enable-background="new 0 0 512 512" xml:space="preserve">
<g>
	<path fill="#CDD6E0" d="M508,477H4c-1.1,0-2-0.9-2-2V4c0-1.1,0.9-2,2-2h504c1.1,0,2,0.9,2,2v471C510,476.1,509.1,477,508,477z"/>
	<rect x="44.3" y="44.3" fill="#F2F2F2" width="423.3" height="390.3"/>
	<path fill="#40596B" d="M55.1,195.1H33.5c-0.6,0-1.1-0.5-1.1-1.1v-76.1c0-0.6,0.5-1.1,1.1-1.1h21.6c0.6,0,1.1,0.5,1.1,1.1V194
		C56.3,194.6,55.7,195.1,55.1,195.1z"/>
	<path fill="#40596B" d="M55.1,362.3H33.5c-0.6,0-1.1-0.5-1.1-1.1v-76.1c0-0.6,0.5-1.1,1.1-1.1h21.6c0.6,0,1.1,0.5,1.1,1.1v76.1
		C56.3,361.8,55.7,362.3,55.1,362.3z"/>
	<path fill="#334A5E" d="M349.2,239.6c0,50.2-39.8,91.2-89.7,93c-1.2,0.1-2.3,0.1-3.5,0.1c-1.2,0-2.4,0-3.5-0.1
		c-50-1.8-89.8-42.8-89.8-93c0-51.5,41.7-93.2,93.2-93.2C307.4,146.3,349.2,188.1,349.2,239.6z"/>
	<rect x="33.7" y="477" fill="#ACB3BA" width="87.3" height="33"/>
	<rect x="390.9" y="477" fill="#ACB3BA" width="87.3" height="33"/>
	<path fill="#40596B" d="M338.7,239.5c0,44.6-35.3,81-79.6,82.6c-1.1,0.1-2,0.1-3.1,0.1c-1.1,0-2.1,0-3.1-0.1
		c-44.3-1.6-79.7-38-79.7-82.6c0-45.7,37-82.8,82.8-82.8C301.7,156.8,338.7,193.8,338.7,239.5z"/>
	<g>
		<path fill="#F2F2F2" d="M259.1,308.3v13.8c-1.1,0.1-2,0.1-3.1,0.1c-1.1,0-2.1,0-3.1-0.1v-13.8H259.1z"/>
		<path fill="#F2F2F2" d="M253,170.7v-13.8c1.1-0.1,2-0.1,3.1-0.1c1.1,0,2.1,0,3.1,0.1v13.8H253z"/>
		<path fill="#F2F2F2" d="M285.2,301.9l5.3,12.7c-0.9,0.5-1.8,0.9-2.8,1.3c-1,0.4-2,0.8-2.9,1.1l-5.3-12.7L285.2,301.9z"/>
		<path fill="#F2F2F2" d="M226.9,177.1l-5.3-12.7c0.9-0.5,1.8-0.9,2.8-1.3c1-0.4,2-0.8,2.9-1.1l5.3,12.7L226.9,177.1z"/>
		<path fill="#F2F2F2" d="M306.9,286l9.7,9.7c-0.7,0.8-1.3,1.5-2.1,2.2c-0.7,0.7-1.5,1.5-2.2,2.1l-9.7-9.7L306.9,286z"/>
		<path fill="#F2F2F2" d="M205.2,193l-9.7-9.7c0.7-0.8,1.3-1.5,2.1-2.2c0.7-0.7,1.5-1.5,2.2-2.1l9.7,9.7L205.2,193z"/>
		<path fill="#F2F2F2" d="M320.8,263l12.7,5.3c-0.3,1-0.7,1.9-1.1,2.9c-0.4,1-0.8,2-1.3,2.8l-12.7-5.3L320.8,263z"/>
		<path fill="#F2F2F2" d="M191.3,216l-12.7-5.3c0.3-1,0.7-1.9,1.1-2.9c0.4-1,0.8-2,1.3-2.8l12.7,5.3L191.3,216z"/>
		<path fill="#F2F2F2" d="M324.9,236.4h13.8c0.1,1.1,0.1,2,0.1,3.1c0,1.1,0,2.1-0.1,3.1h-13.8V236.4z"/>
		<path fill="#F2F2F2" d="M187.2,242.6h-13.8c-0.1-1.1-0.1-2-0.1-3.1c0-1.1,0-2.1,0.1-3.1h13.8V242.6z"/>
		<path fill="#F2F2F2" d="M318.5,210.3l12.7-5.3c0.5,0.9,0.9,1.8,1.3,2.8c0.4,1,0.8,2,1.1,2.9l-12.7,5.3L318.5,210.3z"/>
		<path fill="#F2F2F2" d="M193.6,268.7l-12.7,5.3c-0.5-0.9-0.9-1.8-1.3-2.8c-0.4-1-0.8-2-1.1-2.9l12.7-5.3L193.6,268.7z"/>
		<path fill="#F2F2F2" d="M302.6,188.6l9.7-9.7c0.8,0.7,1.5,1.3,2.2,2.1c0.7,0.7,1.5,1.5,2.1,2.2l-9.7,9.7L302.6,188.6z"/>
		<path fill="#F2F2F2" d="M209.5,290.3l-9.7,9.7c-0.8-0.7-1.5-1.3-2.2-2.1c-0.7-0.7-1.5-1.5-2.1-2.2l9.7-9.7L209.5,290.3z"/>
		<path fill="#F2F2F2" d="M279.6,174.7l5.3-12.7c1,0.3,1.9,0.7,2.9,1.1c1,0.4,2,0.8,2.8,1.3l-5.3,12.7L279.6,174.7z"/>
		<path fill="#F2F2F2" d="M232.5,304.3l-5.3,12.7c-1-0.3-1.9-0.7-2.9-1.1c-1-0.4-2-0.8-2.8-1.3l5.3-12.7L232.5,304.3z"/>
	</g>
	<circle fill="#334A5E" cx="256" cy="239.5" r="60.2"/>
	<circle fill="#F2F2F2" cx="256" cy="239.5" r="26.8"/>
</g>
</svg>
