<?xml version="1.0" encoding="utf-8"?>
<!-- Generator: Adobe Illustrator 18.0.0, SVG Export Plug-In . SVG Version: 6.00 Build 0)  -->
<!DOCTYPE svg PUBLIC "-//W3C//DTD SVG 1.1//EN" "http://www.w3.org/Graphics/SVG/1.1/DTD/svg11.dtd">
<svg version="1.1" id="Layer_1" xmlns="http://www.w3.org/2000/svg" xmlns:xlink="http://www.w3.org/1999/xlink" x="0px" y="0px"
	 viewBox="0 0 48 48" enable-background="new 0 0 48 48" xml:space="preserve">
<g>
	<g>
		<g>
			<path fill="#FFD15C" d="M48,21v23c0,2.2-1.8,4-4,4H4c-2.2,0-4-1.8-4-4V21c0-1.2,0.5-2.3,1.4-3.1l20-17c1.5-1.3,3.7-1.3,5.2,0
				l20,17C47.5,18.7,48,19.8,48,21z"/>
			<path fill="#F7B64C" d="M1.3,46.9C2,47.6,2.9,48,4,48h40c1.1,0,2-0.4,2.7-1.1L24,27.7L1.3,46.9z"/>
			<path fill="#415A6B" d="M21.4,1c1.5-1.3,3.7-1.3,5.2,0l20,17c0.5,0.4,0.8,0.9,1.1,1.5L25.9,37.8c-1.1,0.9-2.8,0.9-3.9,0L0.3,19.4
				c0.2-0.6,0.6-1.1,1.1-1.5L21.4,1z"/>
			<path fill="#F3F3F3" d="M41.5,0H6.5v24.6l15.5,13.2c1.1,1,2.8,1,3.9,0l15.5-13.2V0z"/>
		</g>
		<g>
			<g>
				<g>
					<path fill="#F3705A" d="M22.7,15l-1.6-1.8c-3.7,3.3-4.6,8.6-2.5,12.8c-0.8-0.5-1.6-1.1-2.2-1.9c-4-4.4-3.6-11.3,0.9-15.2
						l-1.6-1.8l8-0.1L22.7,15z"/>
				</g>
			</g>
			<g>
				<g>
					<path fill="#415A6B" d="M25.3,19.2l1.6,1.8c3.7-3.3,4.6-8.6,2.5-12.8c0.8,0.5,1.6,1.1,2.2,1.9c4,4.4,3.6,11.3-0.9,15.2l1.6,1.8
						l-8,0.1L25.3,19.2z"/>
				</g>
			</g>
		</g>
	</g>
</g>
</svg>
