<?xml version="1.0" encoding="utf-8"?>
<!-- Generator: Adobe Illustrator 18.0.0, SVG Export Plug-In . SVG Version: 6.00 Build 0)  -->
<!DOCTYPE svg PUBLIC "-//W3C//DTD SVG 1.1//EN" "http://www.w3.org/Graphics/SVG/1.1/DTD/svg11.dtd">
<svg version="1.1" id="Layer_1" xmlns="http://www.w3.org/2000/svg" xmlns:xlink="http://www.w3.org/1999/xlink" x="0px" y="0px"
	 viewBox="0 0 512 512" enable-background="new 0 0 512 512" xml:space="preserve">
<g>
	<path fill="#40596B" d="M476.1,2H23.2C11.5,2,2,11.5,2,23.2V209h508V35.9C510,17.2,494.8,2,476.1,2z"/>
	<path fill="#F2F2F2" d="M2,209v279.8c0,11.7,9.5,21.2,21.2,21.2h465.6c11.7,0,21.2-9.5,21.2-21.2V209H2z"/>
	<rect x="42" y="43.8" fill="#84DBFF" width="428.1" height="114.8"/>
	<circle fill="#4CDBC4" cx="243.4" cy="295.5" r="48.8"/>
	<circle fill="#4CDBC4" cx="243.4" cy="424.5" r="48.8"/>
	<circle fill="#4CDBC4" cx="90.7" cy="295.5" r="48.8"/>
	<circle fill="#4CDBC4" cx="90.7" cy="424.5" r="48.8"/>
	<path fill="#FF7058" d="M459.4,487H352.8c-3.1,0-5.6-2.5-5.6-5.6v-235c0-3.1,2.5-5.6,5.6-5.6h106.6c3.1,0,5.6,2.5,5.6,5.6v235
		C465,484.5,462.5,487,459.4,487z"/>
	<g>
		<rect x="58.6" y="289.2" fill="#FFFFFF" width="64.3" height="12.7"/>
		<rect x="84.4" y="263.4" fill="#FFFFFF" width="12.7" height="64.3"/>
	</g>
	<rect x="211.2" y="418.1" fill="#FFFFFF" width="64.3" height="12.7"/>
	<g>
		<rect x="374" y="371.2" fill="#FFFFFF" width="64.3" height="12.7"/>
		<rect x="374" y="343.9" fill="#FFFFFF" width="64.3" height="12.7"/>
	</g>
	<g>
		
			<rect x="58.6" y="418.1" transform="matrix(0.7071 0.7071 -0.7071 0.7071 326.7409 60.1833)" fill="#FFFFFF" width="64.3" height="12.7"/>
		
			<rect x="58.6" y="418.1" transform="matrix(-0.7071 0.7071 -0.7071 -0.7071 455.0423 660.5209)" fill="#FFFFFF" width="64.3" height="12.7"/>
	</g>
	<g>
		<rect x="211.2" y="289.2" fill="#FFFFFF" width="64.3" height="12.7"/>
		<g>
			<circle fill="#FFFFFF" cx="243.4" cy="273.8" r="7.6"/>
			<circle fill="#FFFFFF" cx="243.4" cy="317.3" r="7.6"/>
		</g>
	</g>
</g>
</svg>
