<?xml version="1.0" encoding="utf-8"?>
<!-- Generator: Adobe Illustrator 16.0.0, SVG Export Plug-In . SVG Version: 6.00 Build 0)  -->
<!DOCTYPE svg PUBLIC "-//W3C//DTD SVG 1.1//EN" "http://www.w3.org/Graphics/SVG/1.1/DTD/svg11.dtd">
<svg version="1.1" id="Layer_1" xmlns="http://www.w3.org/2000/svg" xmlns:xlink="http://www.w3.org/1999/xlink" x="0px" y="0px"
	 width="48px" height="48px" viewBox="0 0 48 48" enable-background="new 0 0 48 48" xml:space="preserve">
<g>
	<path fill="#40596B" d="M39.447,31.543c-1.163-0.277-3.176,2.387-3.176,2.387c0.85,3.033-1.481,2.846-1.481,2.846
		c0.953-0.732-1.205-2.199-1.205-2.199c-2.157-1.473-0.7-3.311-0.7-3.311c1.27-0.639-2.535-3.672-2.535-3.672
		c-1.391-0.746-0.631-3.213,0.135-4.961c0.683-1.557,1.039-3.246,1.131-4.943c0.396-7.396-0.533-6.818-0.533-6.818
		C28.24,9.211,27.308,6.1,27.308,6.1s-3.83,4.619-9.072,5.932c0,0-1.065,0.789-1.489,4.313c-0.279,2.322,0.134,4.66,0.999,6.832
		c0.668,1.68,1.158,3.746-0.092,4.418c0,0,0.635,2.846-0.528,3.672c0,0-0.556,1.838-2.709,3.311c0,0-2.157,1.467-1.205,2.199
		c0,0-2.33,0.188-1.485-2.846c0,0-3.488,0-1.797-1.654c0,0-0.211-1.01-1.373-0.732c0,0-3.914-0.184,0.737-5.418
		c0,0-1.798-1.998,0.851-3.803c0,0-1.271-2.352,0.209-4.375c0,0,0.318-5.322,1.906-9.002c0,0,1.158-10.561,11.741-8.813
		c10.584-1.748,11.742,8.813,11.742,8.813c1.588,3.68,1.905,9.002,1.905,9.002c1.48,2.023,0.211,4.375,0.211,4.375
		c2.647,1.805,0.845,3.803,0.845,3.803C43.361,31.359,39.447,31.543,39.447,31.543"/>
	<path fill="#CDD6E0" d="M46.285,47.938H1.715l0.95-8.998c0.76-4.461,3.71-8.07,7.64-9.811c1.64-0.74,3.46-1.15,5.36-1.15h16.67
		c1.93,0,3.77,0.42,5.43,1.18c3.891,1.75,6.811,5.35,7.57,9.781L46.285,47.938z"/>
	<rect x="23.538" y="27.433" fill="#FFD15C" width="0.002" height="0.004"/>
	<rect x="24.03" y="15.57" fill="#FFD15C" width="0.002" height="0.004"/>
	<path fill="#F8B64C" d="M15.496,14.988c0.397,1.701,0.188,3.205-0.468,3.357s-1.508-1.104-1.905-2.803
		c-0.396-1.703-0.188-3.205,0.469-3.359C14.246,12.031,15.099,13.287,15.496,14.988"/>
	<path fill="#F8B64C" d="M32.55,14.988c-0.396,1.701-0.188,3.205,0.468,3.357s1.394-1.133,1.905-2.803
		c0.306-0.998,0.166-3.035-0.469-3.359C33.857,11.879,32.947,13.287,32.55,14.988"/>
	<path fill="#FFD15C" d="M33.415,19.934c-2.755,8.742-9.356,9.406-9.356,9.406s-6.603-0.664-9.357-9.406
		c0,0-1.475-4.561-0.238-8.359c0,0,0.758-6.484,9.596-6.484s9.595,6.484,9.595,6.484C34.888,15.373,33.415,19.934,33.415,19.934"/>
	<path fill="#F8B64C" d="M33.72,28.059c-0.01,0.42-0.1,0.85-0.3,1.26c-1.81,3.59-5.42,5.809-9.42,5.809
		c-4-0.01-7.61-2.229-9.41-5.799c-0.2-0.41-0.3-0.84-0.31-1.27c0.459-0.051,0.92-0.08,1.39-0.08h1.64v-2.92
		c3.021,3.898,6.75,4.279,6.75,4.279s3.69-0.369,6.711-4.221v2.861h1.569C32.81,27.979,33.271,28.008,33.72,28.059"/>
	<g opacity="0.1">
		<g>
			<defs>
				<rect id="SVGID_193_" x="20.957" y="25.117" width="12.76" height="9.471"/>
			</defs>
			<clipPath id="SVGID_2_">
				<use xlink:href="#SVGID_193_"  overflow="visible"/>
			</clipPath>
			<path clip-path="url(#SVGID_2_)" fill="#40596B" d="M33.716,28.059c-0.449-0.051-0.91-0.08-1.38-0.08h-1.569v-2.861
				c-3.021,3.852-6.711,4.221-6.711,4.221s-1.326-0.141-3.035-1.074c-0.01-0.006-0.021-0.008-0.031-0.014l-0.033,0.012l6.326,6.326
				c2.619-0.855,4.84-2.703,6.134-5.27C33.617,28.908,33.707,28.479,33.716,28.059"/>
		</g>
	</g>
	<path fill="#40596B" d="M28.175,1.389h-8.776c-2.641,0-4.956,1.768-5.649,4.316L13.035,9.57l-0.574,2.363l1.509,1.35
		c0,0,3.431-1.707,5.149-3.354c0,0,0.215,1.074-1.36,2.076c0,0,2.577-0.287,4.725-2.076c0,0-0.215,1.145-2.219,2.146
		c0,0,5.869,0.645,9.735-3.508c0,0,0.797,3.736,4.019,4.596l1.636-1.445l-1.718-5.654l-0.157-0.521
		C33.029,3.074,30.753,1.389,28.175,1.389"/>
	<path fill="#FF7058" d="M24.007,35.123h-0.011c-1.83,0-3.58-0.471-5.11-1.33l2.84,14.27h1.069h1.201h0.011h0.707h1.563l2.84-14.27
		C27.586,34.652,25.836,35.123,24.007,35.123"/>
	<path fill="#F2F2F2" d="M37.747,33.424l-4.03-5.371c-0.01,0.42-0.1,0.85-0.3,1.26c-0.979,1.939-2.489,3.49-4.3,4.48l-5.113,12.494
		L18.89,33.793c-1.81-0.99-3.319-2.541-4.299-4.48c-0.201-0.41-0.291-0.84-0.301-1.26l-4.029,5.371l6.92,4.889l-2.301,5.201
		l4.141,4.549h9.966l4.14-4.549l-2.3-5.201L37.747,33.424z"/>
</g>
</svg>
