<?xml version="1.0" encoding="utf-8"?>
<!-- Generator: Adobe Illustrator 18.0.0, SVG Export Plug-In . SVG Version: 6.00 Build 0)  -->
<!DOCTYPE svg PUBLIC "-//W3C//DTD SVG 1.1//EN" "http://www.w3.org/Graphics/SVG/1.1/DTD/svg11.dtd">
<svg version="1.1" id="Layer_1" xmlns="http://www.w3.org/2000/svg" xmlns:xlink="http://www.w3.org/1999/xlink" x="0px" y="0px"
	 viewBox="0 0 48 48" enable-background="new 0 0 48 48" xml:space="preserve">
<g>
	<g>
		<g>
			<g>
				<g>
					<path fill="#66C6B9" d="M26.4,12c-2.3,0.1-4.2-1.7-4.3-3.9C24.4,8,26.3,9.8,26.4,12z"/>
				</g>
				<g>
					<path fill="#66C6B9" d="M26.4,12c-1.1,2-3.5,2.8-5.6,1.8C21.9,11.8,24.4,11,26.4,12z"/>
				</g>
				<g>
					<path fill="#66C6B9" d="M26.4,12c1.2,1.9,0.7,4.5-1.3,5.7C23.9,15.8,24.5,13.3,26.4,12z"/>
				</g>
				<g>
					<path fill="#66C6B9" d="M26.4,12c2.3-0.1,4.2,1.7,4.3,3.9C28.4,16.1,26.5,14.3,26.4,12z"/>
				</g>
				<g>
					<path fill="#66C6B9" d="M26.4,12c1.1-2,3.5-2.8,5.6-1.8C30.9,12.3,28.4,13.1,26.4,12z"/>
				</g>
				<g>
					<path fill="#66C6B9" d="M26.4,12c-1.2-1.9-0.7-4.5,1.3-5.7C28.9,8.3,28.3,10.8,26.4,12z"/>
				</g>
			</g>
			<g>
				<g>
					<path fill="#66C6B9" d="M26.4,12c-2-1-2.8-3.3-1.9-5.3C26.5,7.7,27.4,10,26.4,12z"/>
				</g>
				<g>
					<path fill="#66C6B9" d="M26.4,12c-1.8,1.2-4.3,0.8-5.6-1C22.7,9.8,25.1,10.2,26.4,12z"/>
				</g>
				<g>
					<path fill="#66C6B9" d="M26.4,12c0.2,2.2-1.5,4.1-3.7,4.3C22.5,14.1,24.2,12.2,26.4,12z"/>
				</g>
				<g>
					<path fill="#66C6B9" d="M26.4,12c2,1,2.8,3.3,1.9,5.3C26.3,16.4,25.4,14,26.4,12z"/>
				</g>
				<g>
					<path fill="#66C6B9" d="M26.4,12c1.8-1.2,4.3-0.8,5.6,1C30.1,14.3,27.6,13.9,26.4,12z"/>
				</g>
				<g>
					<path fill="#66C6B9" d="M26.4,12c-0.2-2.2,1.5-4.1,3.7-4.3C30.2,9.9,28.6,11.9,26.4,12z"/>
				</g>
			</g>
			<g>
				<circle fill="#4ABAA5" cx="26.4" cy="12" r="1.3"/>
			</g>
			<g>
				<circle fill="#415A6B" cx="26.4" cy="12" r="0.8"/>
			</g>
		</g>
		<g>
			<g>
				<path fill="#4ABAA5" d="M19,24.5c-5.3-4.3-8.9-7.3-14.3-12.3C11.8,7.3,22.4,17.5,19,24.5z"/>
			</g>
			<g>
				<path fill="#415A6B" d="M18.7,26.7h1.5c-1-6.4-5.5-11.7-11.5-13.6C14.4,15.5,18.1,20.9,18.7,26.7z"/>
			</g>
		</g>
		<g>
			<g>
				<path fill="#4ABAA5" d="M29,20.3c6.4-2.5,10.7-4.2,17.4-7.3C41.2,6.2,27.9,12.6,29,20.3z"/>
			</g>
			<g>
				<path fill="#415A6B" d="M42.3,12.7c-8.4,0.7-14.9,7.6-15,15.9c-0.6,0-1.2-0.1-1.9-0.1C26.2,19.2,34,12.6,42.3,12.7L42.3,12.7z"
					/>
			</g>
		</g>
		<g>
			<g>
				<path fill="#415A6B" d="M11.7,26.7C12,13.1,17.6,1.9,24.2,1.9c6.6,0,12.2,11.3,12.5,24.9h1.9C38.2,11.7,32,0,24.2,0
					C16.3,0,10.1,11.7,9.8,26.7H11.7z"/>
			</g>
		</g>
		<g>
			<g>
				<path fill="#66C6B9" d="M8.9,22.5c0.3,0.3,0.6,0.8,0.8,1.2c0.3,0.4,0.4,0.9,0.6,1.3c0.1,0.5,0.3,0.9,0.4,1.3
					c0,0.1,0,0.3,0.1,0.4h1.7c-0.1-0.3-0.2-0.6-0.3-0.9c-0.2-0.5-0.4-0.9-0.7-1.4c-0.3-0.4-0.5-0.9-0.9-1.3
					c-0.3-0.4-0.7-0.8-1.1-1.2c-0.4-0.4-0.8-0.7-1.2-0.9c-0.4-0.3-0.8-0.5-1.3-0.7c-0.2-0.1-0.3-0.2-0.5-0.2v0.5
					c0.1,0.1,0.2,0.1,0.3,0.2c0.4,0.2,0.7,0.5,1.1,0.8C8.3,21.8,8.6,22.2,8.9,22.5z"/>
			</g>
			<g>
				<g>
					<g>
						<path fill="#FFD15C" d="M5.9,20.2C7.6,20.1,9,18.7,9,17C7.3,17,5.8,18.4,5.9,20.2z"/>
					</g>
					<g>
						<path fill="#FFD15C" d="M5.9,20.2c0.9,1.5,2.8,2,4.3,1.1C9.3,19.8,7.4,19.3,5.9,20.2z"/>
					</g>
					<g>
						<path fill="#FFD15C" d="M5.9,20.2C5,21.7,5.5,23.6,7,24.5C7.9,22.9,7.4,21,5.9,20.2z"/>
					</g>
					<g>
						<path fill="#FFD15C" d="M5.9,20.2c-1.7,0-3.2,1.4-3.2,3.2C4.4,23.3,5.9,21.9,5.9,20.2z"/>
					</g>
					<g>
						<path fill="#FFD15C" d="M5.9,20.2C5,18.6,3,18.1,1.5,19C2.4,20.5,4.3,21,5.9,20.2z"/>
					</g>
					<g>
						<path fill="#FFD15C" d="M5.9,20.2c0.9-1.5,0.3-3.4-1.2-4.3C3.8,17.4,4.3,19.3,5.9,20.2z"/>
					</g>
				</g>
				<g>
					<g>
						<path fill="#FFD15C" d="M5.9,20.2c1.5-0.8,2.1-2.7,1.3-4.1C5.6,16.8,5.1,18.7,5.9,20.2z"/>
					</g>
					<g>
						<path fill="#FFD15C" d="M5.9,20.2c1.4,0.9,3.3,0.4,4.2-1C8.6,18.3,6.7,18.7,5.9,20.2z"/>
					</g>
					<g>
						<path fill="#FFD15C" d="M5.9,20.2c-0.1,1.7,1.3,3.1,3,3.2C8.9,21.6,7.5,20.2,5.9,20.2z"/>
					</g>
					<g>
						<path fill="#FFD15C" d="M5.9,20.2c-1.5,0.8-2.1,2.7-1.3,4.1C6.1,23.5,6.6,21.6,5.9,20.2z"/>
					</g>
					<g>
						<path fill="#FFD15C" d="M5.9,20.2c-1.4-0.9-3.3-0.4-4.2,1C3.1,22,5,21.6,5.9,20.2z"/>
					</g>
					<g>
						<path fill="#FFD15C" d="M5.9,20.2c0.1-1.7-1.3-3.1-3-3.2C2.8,18.7,4.2,20.1,5.9,20.2z"/>
					</g>
				</g>
				<g>
					<circle fill="#415A6B" cx="5.9" cy="20.2" r="1"/>
				</g>
				<g>
					<circle fill="#F3705A" cx="5.9" cy="20.2" r="0.6"/>
				</g>
			</g>
		</g>
		<g>
			<g>
				<path fill="#66C6B9" d="M41.2,19.5c-0.1,0-0.2,0.1-0.4,0.1c-0.3,0.1-0.7,0.2-1,0.4c-0.4,0.2-0.7,0.3-1.1,0.5
					c-0.4,0.2-0.8,0.5-1.1,0.7c-0.3,0.3-0.7,0.6-1.1,0.9c-0.3,0.3-0.7,0.7-0.9,1.1c-0.3,0.4-0.5,0.8-0.8,1.2c-0.4,0.8-0.8,1.6-1,2.3
					c-0.2,0.7-0.3,1.3-0.4,1.7c0,0.2-0.1,0.4-0.1,0.5c0,0.1,0,0.2,0,0.2l2.3,0c0,0,0,0,0-0.1c0-0.1,0-0.2,0-0.4c0-0.3,0-0.9,0.1-1.5
					c0.1-0.6,0.2-1.3,0.5-2.1c0.2-0.4,0.3-0.7,0.5-1.1c0.2-0.4,0.4-0.7,0.6-1.1c0.2-0.4,0.5-0.7,0.8-1c0.3-0.3,0.6-0.6,0.9-0.8
					c0.3-0.3,0.7-0.5,1-0.7c0.3-0.2,0.6-0.3,0.9-0.5c0.1-0.1,0.2-0.1,0.3-0.1V19.5z"/>
			</g>
			<g>
				<g>
					<g>
						<path fill="#F3705A" d="M40.4,19.8c-2.1,0.1-3.8-1.5-3.9-3.6C38.6,16.2,40.3,17.8,40.4,19.8z"/>
					</g>
					<g>
						<path fill="#F3705A" d="M40.4,19.8c-1,1.8-3.2,2.6-5.1,1.6C36.3,19.6,38.6,18.9,40.4,19.8z"/>
					</g>
					<g>
						<path fill="#F3705A" d="M40.4,19.8c1.1,1.7,0.6,4.1-1.1,5.2C38.2,23.3,38.7,20.9,40.4,19.8z"/>
					</g>
					<g>
						<path fill="#F3705A" d="M40.4,19.8c2.1-0.1,3.8,1.5,3.9,3.6C42.3,23.5,40.5,21.9,40.4,19.8z"/>
					</g>
					<g>
						<path fill="#F3705A" d="M40.4,19.8c1-1.8,3.2-2.6,5.1-1.6C44.5,20.1,42.3,20.8,40.4,19.8z"/>
					</g>
					<g>
						<path fill="#F3705A" d="M40.4,19.8c-1.1-1.7-0.6-4.1,1.1-5.2C42.7,16.4,42.2,18.7,40.4,19.8z"/>
					</g>
				</g>
				<g>
					<g>
						<path fill="#F3705A" d="M40.4,19.8c-1.8-0.9-2.6-3-1.7-4.9C40.5,15.8,41.3,18,40.4,19.8z"/>
					</g>
					<g>
						<path fill="#F3705A" d="M40.4,19.8c-1.7,1.1-3.9,0.7-5.1-0.9C37,17.7,39.3,18.2,40.4,19.8z"/>
					</g>
					<g>
						<path fill="#F3705A" d="M40.4,19.8c0.2,2-1.3,3.8-3.3,3.9C36.9,21.7,38.4,20,40.4,19.8z"/>
					</g>
					<g>
						<path fill="#F3705A" d="M40.4,19.8c1.8,0.9,2.6,3,1.7,4.9C40.3,23.8,39.6,21.6,40.4,19.8z"/>
					</g>
					<g>
						<path fill="#F3705A" d="M40.4,19.8c1.7-1.1,3.9-0.7,5.1,0.9C43.8,21.9,41.6,21.5,40.4,19.8z"/>
					</g>
					<g>
						<path fill="#F3705A" d="M40.4,19.8c-0.2-2,1.3-3.8,3.3-3.9C43.9,17.9,42.4,19.7,40.4,19.8z"/>
					</g>
				</g>
				<g>
					<circle fill="#E8EAE9" cx="40.4" cy="19.8" r="1.2"/>
				</g>
				<g>
					<circle fill="#415A6B" cx="40.4" cy="19.8" r="0.7"/>
				</g>
			</g>
		</g>
		<g>
			<g>
				<path fill="#4ABAA5" d="M20.8,17.1c0.3-4.1,0.5-6.8,0.5-11.2C16.3,7,16.4,15.8,20.8,17.1z"/>
			</g>
			<g>
				<path fill="#415A6B" d="M20,8c-1.7,4.7,0.3,9.9,4.8,12.1c-0.2,0.3-0.3,0.7-0.5,1C19.4,18.3,17.9,12.5,20,8L20,8z"/>
			</g>
		</g>
		<g>
			<g>
				<g>
					<path fill="#FFD15C" d="M21.8,16.1c-2.3,0.1-4.2-1.7-4.3-3.9C19.8,12,21.7,13.8,21.8,16.1z"/>
				</g>
				<g>
					<path fill="#FFD15C" d="M21.8,16.1c-1.1,2-3.5,2.8-5.6,1.8C17.3,15.8,19.8,15,21.8,16.1z"/>
				</g>
				<g>
					<path fill="#FFD15C" d="M21.8,16.1c1.2,1.9,0.7,4.5-1.3,5.7C19.3,19.8,19.9,17.3,21.8,16.1z"/>
				</g>
				<g>
					<path fill="#FFD15C" d="M21.8,16.1c2.3-0.1,4.2,1.7,4.3,3.9C23.8,20.1,21.9,18.3,21.8,16.1z"/>
				</g>
				<g>
					<path fill="#FFD15C" d="M21.8,16.1c1.1-2,3.5-2.8,5.6-1.8C26.3,16.3,23.8,17.1,21.8,16.1z"/>
				</g>
				<g>
					<path fill="#FFD15C" d="M21.8,16.1c-1.2-1.9-0.7-4.5,1.3-5.7C24.3,12.3,23.7,14.8,21.8,16.1z"/>
				</g>
			</g>
			<g>
				<g>
					<path fill="#FFD15C" d="M21.8,16.1c-2-1-2.8-3.3-1.9-5.3C21.9,11.7,22.7,14.1,21.8,16.1z"/>
				</g>
				<g>
					<path fill="#FFD15C" d="M21.8,16.1c-1.8,1.2-4.3,0.8-5.6-1C18,13.8,20.5,14.2,21.8,16.1z"/>
				</g>
				<g>
					<path fill="#FFD15C" d="M21.8,16.1c0.2,2.2-1.5,4.1-3.7,4.3C17.9,18.2,19.6,16.2,21.8,16.1z"/>
				</g>
				<g>
					<path fill="#FFD15C" d="M21.8,16.1c2,1,2.8,3.3,1.9,5.3C21.7,20.4,20.8,18.1,21.8,16.1z"/>
				</g>
				<g>
					<path fill="#FFD15C" d="M21.8,16.1c1.8-1.2,4.3-0.8,5.6,1C25.5,18.3,23,17.9,21.8,16.1z"/>
				</g>
				<g>
					<path fill="#FFD15C" d="M21.8,16.1c-0.2-2.2,1.5-4.1,3.7-4.3C25.6,14,24,15.9,21.8,16.1z"/>
				</g>
			</g>
			<g>
				<circle fill="#E8EAE9" cx="21.8" cy="16.1" r="1.3"/>
			</g>
			<g>
				<circle fill="#415A6B" cx="21.8" cy="16.1" r="0.8"/>
			</g>
		</g>
		<path fill="#FFD15C" d="M5.7,24.9L10,45.1c0.4,1.7,1.9,2.9,3.6,2.9h21c1.8,0,3.3-1.2,3.6-2.9l4.3-20.2H5.7z"/>
		<g>
			<g>
				<g>
					<path fill="#F3705A" d="M13.5,20.1c-1.9,0.1-3.6-1.4-3.7-3.4C11.8,16.6,13.4,18.1,13.5,20.1z"/>
				</g>
				<g>
					<path fill="#F3705A" d="M13.5,20.1c-0.9,1.7-3,2.4-4.7,1.5C9.7,19.8,11.8,19.2,13.5,20.1z"/>
				</g>
				<g>
					<path fill="#F3705A" d="M13.5,20.1c1,1.6,0.6,3.8-1.1,4.9C11.4,23.3,11.9,21.1,13.5,20.1z"/>
				</g>
				<g>
					<path fill="#F3705A" d="M13.5,20.1c1.9-0.1,3.6,1.4,3.7,3.4C15.2,23.5,13.6,22,13.5,20.1z"/>
				</g>
				<g>
					<path fill="#F3705A" d="M13.5,20.1c0.9-1.7,3-2.4,4.7-1.5C17.4,20.3,15.2,21,13.5,20.1z"/>
				</g>
				<g>
					<path fill="#F3705A" d="M13.5,20.1c-1-1.6-0.6-3.8,1.1-4.9C15.6,16.8,15.1,19,13.5,20.1z"/>
				</g>
			</g>
			<g>
				<g>
					<path fill="#F3705A" d="M13.5,20.1c-1.7-0.8-2.4-2.9-1.6-4.6C13.6,16.3,14.3,18.4,13.5,20.1z"/>
				</g>
				<g>
					<path fill="#F3705A" d="M13.5,20.1c-1.6,1.1-3.7,0.7-4.7-0.9C10.3,18.1,12.4,18.5,13.5,20.1z"/>
				</g>
				<g>
					<path fill="#F3705A" d="M13.5,20.1c0.1,1.9-1.3,3.5-3.1,3.7C10.2,21.9,11.6,20.2,13.5,20.1z"/>
				</g>
				<g>
					<path fill="#F3705A" d="M13.5,20.1c1.7,0.8,2.4,2.9,1.6,4.6C13.4,23.8,12.7,21.8,13.5,20.1z"/>
				</g>
				<g>
					<path fill="#F3705A" d="M13.5,20.1c1.6-1.1,3.7-0.7,4.7,0.9C16.7,22,14.6,21.6,13.5,20.1z"/>
				</g>
				<g>
					<path fill="#F3705A" d="M13.5,20.1c-0.1-1.9,1.3-3.5,3.1-3.7C16.8,18.3,15.4,19.9,13.5,20.1z"/>
				</g>
			</g>
			<g>
				<circle fill="#E8EAE9" cx="13.5" cy="20.1" r="1.1"/>
			</g>
			<g>
				<circle fill="#415A6B" cx="13.5" cy="20.1" r="0.7"/>
			</g>
		</g>
		<g>
			<g>
				<g>
					<path fill="#F3705A" d="M26.5,17.2c-1.5,0.1-2.8-1.1-2.9-2.6C25.2,14.5,26.5,15.7,26.5,17.2z"/>
				</g>
				<g>
					<path fill="#F3705A" d="M26.5,17.2c-0.7,1.3-2.4,1.9-3.7,1.2C23.5,17,25.2,16.5,26.5,17.2z"/>
				</g>
				<g>
					<path fill="#F3705A" d="M26.5,17.2c0.8,1.3,0.4,3-0.8,3.8C24.9,19.7,25.2,18,26.5,17.2z"/>
				</g>
				<g>
					<path fill="#F3705A" d="M26.5,17.2c1.5-0.1,2.8,1.1,2.9,2.6C27.9,19.9,26.6,18.7,26.5,17.2z"/>
				</g>
				<g>
					<path fill="#F3705A" d="M26.5,17.2c0.7-1.3,2.4-1.9,3.7-1.2C29.5,17.4,27.9,17.9,26.5,17.2z"/>
				</g>
				<g>
					<path fill="#F3705A" d="M26.5,17.2c-0.8-1.3-0.4-3,0.8-3.8C28.2,14.7,27.8,16.4,26.5,17.2z"/>
				</g>
			</g>
			<g>
				<g>
					<path fill="#F3705A" d="M26.5,17.2c-1.3-0.6-1.9-2.2-1.3-3.5C26.6,14.3,27.2,15.9,26.5,17.2z"/>
				</g>
				<g>
					<path fill="#F3705A" d="M26.5,17.2c-1.2,0.8-2.9,0.5-3.7-0.7C24,15.7,25.7,16,26.5,17.2z"/>
				</g>
				<g>
					<path fill="#F3705A" d="M26.5,17.2c0.1,1.5-1,2.7-2.4,2.9C24,18.6,25.1,17.3,26.5,17.2z"/>
				</g>
				<g>
					<path fill="#F3705A" d="M26.5,17.2c1.3,0.6,1.9,2.2,1.3,3.5C26.5,20.1,25.9,18.5,26.5,17.2z"/>
				</g>
				<g>
					<path fill="#F3705A" d="M26.5,17.2c1.2-0.8,2.9-0.5,3.7,0.7C29,18.7,27.4,18.4,26.5,17.2z"/>
				</g>
				<g>
					<path fill="#F3705A" d="M26.5,17.2c-0.1-1.5,1-2.7,2.4-2.9C29.1,15.8,28,17.1,26.5,17.2z"/>
				</g>
			</g>
			<g>
				<circle fill="#E8EAE9" cx="26.5" cy="17.2" r="0.9"/>
			</g>
			<g>
				<circle fill="#415A6B" cx="26.5" cy="17.2" r="0.5"/>
			</g>
		</g>
		<g>
			<g>
				<g>
					<path fill="#F3F3F3" d="M19.1,22.4c-2,0.1-3.7-1.5-3.8-3.5C17.3,18.9,19,20.4,19.1,22.4z"/>
				</g>
				<g>
					<path fill="#F3F3F3" d="M19.1,22.4c-0.9,1.8-3.1,2.5-4.9,1.5C15.1,22.2,17.3,21.5,19.1,22.4z"/>
				</g>
				<g>
					<path fill="#F3F3F3" d="M19.1,22.4c1.1,1.7,0.6,3.9-1.1,5C16.9,25.7,17.4,23.5,19.1,22.4z"/>
				</g>
				<g>
					<path fill="#F3F3F3" d="M19.1,22.4c2-0.1,3.7,1.5,3.8,3.5C20.9,26,19.2,24.4,19.1,22.4z"/>
				</g>
				<g>
					<path fill="#F3F3F3" d="M19.1,22.4c0.9-1.8,3.1-2.5,4.9-1.5C23,22.7,20.9,23.4,19.1,22.4z"/>
				</g>
				<g>
					<path fill="#F3F3F3" d="M19.1,22.4c-1.1-1.7-0.6-3.9,1.1-5C21.3,19.1,20.8,21.4,19.1,22.4z"/>
				</g>
			</g>
			<g>
				<g>
					<path fill="#F3F3F3" d="M19.1,22.4c-1.8-0.8-2.5-2.9-1.7-4.7C19.2,18.6,19.9,20.7,19.1,22.4z"/>
				</g>
				<g>
					<path fill="#F3F3F3" d="M19.1,22.4c-1.6,1.1-3.8,0.7-4.9-0.9C15.8,20.4,18,20.8,19.1,22.4z"/>
				</g>
				<g>
					<path fill="#F3F3F3" d="M19.1,22.4c0.2,1.9-1.3,3.6-3.2,3.8C15.7,24.3,17.1,22.6,19.1,22.4z"/>
				</g>
				<g>
					<path fill="#F3F3F3" d="M19.1,22.4c1.8,0.8,2.5,2.9,1.7,4.7C19,26.3,18.2,24.2,19.1,22.4z"/>
				</g>
				<g>
					<path fill="#F3F3F3" d="M19.1,22.4c1.6-1.1,3.8-0.7,4.9,0.9C22.4,24.4,20.2,24,19.1,22.4z"/>
				</g>
				<g>
					<path fill="#F3F3F3" d="M19.1,22.4c-0.2-1.9,1.3-3.6,3.2-3.8C22.5,20.6,21,22.3,19.1,22.4z"/>
				</g>
			</g>
			<g>
				<circle fill="#E8EAE9" cx="19.1" cy="22.4" r="1.2"/>
			</g>
			<g>
				<circle fill="#415A6B" cx="19.1" cy="22.4" r="0.7"/>
			</g>
		</g>
		<g>
			<g>
				<g>
					<path fill="#66C6B9" d="M26.8,23c-1.5,0.1-2.8-1.1-2.9-2.7C25.4,20.3,26.7,21.5,26.8,23z"/>
				</g>
				<g>
					<path fill="#66C6B9" d="M26.8,23c-0.7,1.4-2.4,1.9-3.8,1.2C23.7,22.9,25.4,22.3,26.8,23z"/>
				</g>
				<g>
					<path fill="#66C6B9" d="M26.8,23c0.8,1.3,0.4,3-0.9,3.8C25.1,25.6,25.5,23.9,26.8,23z"/>
				</g>
				<g>
					<path fill="#66C6B9" d="M26.8,23c1.5-0.1,2.8,1.1,2.9,2.7C28.2,25.8,26.9,24.6,26.8,23z"/>
				</g>
				<g>
					<path fill="#66C6B9" d="M26.8,23c0.7-1.4,2.4-1.9,3.8-1.2C29.8,23.2,28.2,23.8,26.8,23z"/>
				</g>
				<g>
					<path fill="#66C6B9" d="M26.8,23c-0.8-1.3-0.4-3,0.9-3.8C28.5,20.5,28.1,22.2,26.8,23z"/>
				</g>
			</g>
			<g>
				<g>
					<path fill="#66C6B9" d="M26.8,23c-1.3-0.6-1.9-2.3-1.3-3.6C26.9,20.1,27.4,21.7,26.8,23z"/>
				</g>
				<g>
					<path fill="#66C6B9" d="M26.8,23c-1.2,0.8-2.9,0.5-3.8-0.7C24.3,21.5,25.9,21.8,26.8,23z"/>
				</g>
				<g>
					<path fill="#66C6B9" d="M26.8,23c0.1,1.5-1,2.8-2.5,2.9C24.2,24.5,25.3,23.2,26.8,23z"/>
				</g>
				<g>
					<path fill="#66C6B9" d="M26.8,23c1.3,0.6,1.9,2.3,1.3,3.6C26.7,26,26.1,24.4,26.8,23z"/>
				</g>
				<g>
					<path fill="#66C6B9" d="M26.8,23c1.2-0.8,2.9-0.5,3.8,0.7C29.3,24.6,27.6,24.3,26.8,23z"/>
				</g>
				<g>
					<path fill="#66C6B9" d="M26.8,23c-0.1-1.5,1-2.8,2.5-2.9C29.4,21.6,28.3,22.9,26.8,23z"/>
				</g>
			</g>
			<g>
				<circle fill="#4ABAA5" cx="26.8" cy="23" r="0.9"/>
			</g>
			<g>
				<circle fill="#415A6B" cx="26.8" cy="23" r="0.6"/>
			</g>
		</g>
		<g>
			<g>
				<g>
					<path fill="#F3F3F3" d="M31.9,18.8c-1.9,0.1-3.4-1.4-3.5-3.2C30.3,15.5,31.8,17,31.9,18.8z"/>
				</g>
				<g>
					<path fill="#F3F3F3" d="M31.9,18.8c-0.9,1.6-2.9,2.3-4.5,1.4C28.2,18.6,30.3,18,31.9,18.8z"/>
				</g>
				<g>
					<path fill="#F3F3F3" d="M31.9,18.8c1,1.6,0.5,3.6-1,4.6C29.9,21.9,30.3,19.8,31.9,18.8z"/>
				</g>
				<g>
					<path fill="#F3F3F3" d="M31.9,18.8c1.9-0.1,3.4,1.4,3.5,3.2C33.6,22.1,32,20.7,31.9,18.8z"/>
				</g>
				<g>
					<path fill="#F3F3F3" d="M31.9,18.8c0.9-1.6,2.9-2.3,4.5-1.4C35.6,19.1,33.6,19.7,31.9,18.8z"/>
				</g>
				<g>
					<path fill="#F3F3F3" d="M31.9,18.8c-1-1.6-0.5-3.6,1-4.6C33.9,15.8,33.5,17.8,31.9,18.8z"/>
				</g>
			</g>
			<g>
				<g>
					<path fill="#F3F3F3" d="M31.9,18.8c-1.6-0.8-2.3-2.7-1.5-4.4C32,15.3,32.7,17.2,31.9,18.8z"/>
				</g>
				<g>
					<path fill="#F3F3F3" d="M31.9,18.8c-1.5,1-3.5,0.6-4.5-0.8C28.9,17,30.9,17.4,31.9,18.8z"/>
				</g>
				<g>
					<path fill="#F3F3F3" d="M31.9,18.8c0.1,1.8-1.2,3.4-3,3.5C28.8,20.5,30.1,19,31.9,18.8z"/>
				</g>
				<g>
					<path fill="#F3F3F3" d="M31.9,18.8c1.6,0.8,2.3,2.7,1.5,4.4C31.8,22.4,31.1,20.5,31.9,18.8z"/>
				</g>
				<g>
					<path fill="#F3F3F3" d="M31.9,18.8c1.5-1,3.5-0.6,4.5,0.8C35,20.7,32.9,20.3,31.9,18.8z"/>
				</g>
				<g>
					<path fill="#F3F3F3" d="M31.9,18.8c-0.1-1.8,1.2-3.4,3-3.5C35.1,17.1,33.7,18.7,31.9,18.8z"/>
				</g>
			</g>
			<g>
				<circle fill="#E8EAE9" cx="31.9" cy="18.8" r="1.1"/>
			</g>
			<g>
				<circle fill="#415A6B" cx="31.9" cy="18.8" r="0.7"/>
			</g>
		</g>
	</g>
</g>
</svg>
