<?xml version="1.0" encoding="utf-8"?>
<!-- Generator: Adobe Illustrator 20.1.0, SVG Export Plug-In . SVG Version: 6.00 Build 0)  -->
<!DOCTYPE svg PUBLIC "-//W3C//DTD SVG 1.1//EN" "http://www.w3.org/Graphics/SVG/1.1/DTD/svg11.dtd">
<svg version="1.1" id="Layer_1" xmlns="http://www.w3.org/2000/svg" xmlns:xlink="http://www.w3.org/1999/xlink" x="0px" y="0px"
	 viewBox="0 0 49 49" enable-background="new 0 0 49 49" xml:space="preserve">
<path fill="#CDD6E0" d="M48.5,42L28.9,22.4c2.9-5.7,2-12.8-2.8-17.5C20.3-1,10.8-1,4.9,4.9C-1,10.8-1,20.3,4.9,26.2
	c4.7,4.7,11.8,5.6,17.5,2.8l6.4,6.4l4.9,0l0,4.9l4.9,0l0,4.9l3.3,3.3h4.4l2.1-2.1V42z M9.5,17.8c-2.3-2.3-2.3-6.1,0-8.4
	c2.3-2.3,6.1-2.3,8.4,0c2.3,2.3,2.3,6.1,0,8.4C15.5,20.2,11.8,20.2,9.5,17.8z"/>
</svg>
