<?xml version="1.0" encoding="utf-8"?>
<!-- Generator: Adobe Illustrator 18.0.0, SVG Export Plug-In . SVG Version: 6.00 Build 0)  -->
<!DOCTYPE svg PUBLIC "-//W3C//DTD SVG 1.1//EN" "http://www.w3.org/Graphics/SVG/1.1/DTD/svg11.dtd">
<svg version="1.1" id="Layer_1" xmlns="http://www.w3.org/2000/svg" xmlns:xlink="http://www.w3.org/1999/xlink" x="0px" y="0px"
	 viewBox="0 0 48 48" enable-background="new 0 0 48 48" xml:space="preserve">
<g>
	<g>
		<g>
			<g>
				<g>
					<polygon fill="#344A5E" points="48,48 48,34.9 40.1,22.4 23.9,48 					"/>
				</g>
				<polygon fill="#E8EAE9" points="48,34.9 40.1,22.4 26.1,44.5 34.3,34.5 34,36.4 39.3,29 43.5,35.6 43.6,32.7 48,37 				"/>
			</g>
			<g>
				<g>
					<polygon fill="#FFD15C" points="48,8.8 46.1,10.4 47.1,12.7 44.7,13.3 44.6,15.9 42.1,15.4 41,17.6 39,16.1 37,17.6 35.8,15.4 
						33.3,15.9 33.3,13.3 30.8,12.7 31.9,10.4 30,8.8 31.9,7.2 30.8,4.9 33.3,4.3 33.4,1.7 35.8,2.2 37,0 39,1.5 41,0 42.1,2.2 
						44.6,1.7 44.7,4.3 47.1,4.9 46.1,7.2 					"/>
				</g>
				<circle fill="#F7B64C" cx="39" cy="8.8" r="4.7"/>
			</g>
		</g>
	</g>
	<g>
		<g>
			<polygon fill="#415A6B" points="0,48 39,48 15.7,4.8 0,33.8 			"/>
		</g>
		<polygon fill="#E8EAE9" points="31.3,33.8 31.3,33.8 15.7,4.8 0,33.8 0,35.4 5.5,28.5 4.7,34.7 12.1,22.1 13.3,25.6 16.5,18.8 
			23.7,28.7 23.2,23.4 		"/>
	</g>
</g>
</svg>
