<?xml version="1.0" encoding="utf-8"?>
<!-- Generator: Adobe Illustrator 18.0.0, SVG Export Plug-In . SVG Version: 6.00 Build 0)  -->
<!DOCTYPE svg PUBLIC "-//W3C//DTD SVG 1.1//EN" "http://www.w3.org/Graphics/SVG/1.1/DTD/svg11.dtd">
<svg version="1.1" id="Layer_1" xmlns="http://www.w3.org/2000/svg" xmlns:xlink="http://www.w3.org/1999/xlink" x="0px" y="0px"
	 viewBox="0 0 48 48" enable-background="new 0 0 48 48" xml:space="preserve">
<g>
	<rect x="21.3" y="2.6" fill="#334A5E" width="5.5" height="6.2"/>
	<path fill="#40596B" d="M38.6,16l-3.9-3.9l3.9-3.9c0.4-0.4,1-0.4,1.4,0l2.5,2.5c0.4,0.4,0.4,1,0,1.4L38.6,16z"/>
	<path fill="#40596B" d="M28.3,4.2h-8.5c-0.6,0-1-0.4-1-1V1c0-0.6,0.4-1,1-1l8.5,0c0.6,0,1,0.4,1,1v2.2C29.3,3.7,28.8,4.2,28.3,4.2z
		"/>
	<circle fill="#CDD6E0" cx="24" cy="26.8" r="21.2"/>
	<path fill="#F2F2F2" d="M24,42.7c-8.8,0-15.9-7.2-15.9-15.9S15.2,10.9,24,10.9S39.9,18,39.9,26.8S32.8,42.7,24,42.7z"/>
	<path fill="#E4EAEF" d="M24,12.5c8.5,0,15.5,6.7,15.9,15.1c0-0.3,0-0.5,0-0.8c0-8.8-7.2-15.9-15.9-15.9S8.1,18,8.1,26.8
		c0,0.3,0,0.5,0,0.8C8.5,19.2,15.5,12.5,24,12.5z"/>
	<g>
		<g>
			<path fill="#ACB3BA" d="M24,14.6c-0.3,0-0.5-0.2-0.5-0.5v-1.7c0-0.3,0.2-0.5,0.5-0.5c0.3,0,0.5,0.2,0.5,0.5v1.7
				C24.5,14.3,24.3,14.6,24,14.6z"/>
			<path fill="#ACB3BA" d="M24,41.8c-0.3,0-0.5-0.2-0.5-0.5v-1.7c0-0.3,0.2-0.5,0.5-0.5c0.3,0,0.5,0.2,0.5,0.5v1.7
				C24.5,41.5,24.3,41.8,24,41.8z"/>
		</g>
		<g>
			<path fill="#ACB3BA" d="M17.9,16.2c-0.3,0.1-0.6,0.1-0.7-0.2l-0.8-1.5c-0.1-0.3-0.1-0.6,0.2-0.7c0.3-0.1,0.6-0.1,0.7,0.2l0.8,1.5
				C18.2,15.8,18.1,16.1,17.9,16.2z"/>
			<path fill="#ACB3BA" d="M31.5,39.8c-0.3,0.1-0.6,0.1-0.7-0.2l-0.8-1.5c-0.1-0.3-0.1-0.6,0.2-0.7s0.6-0.1,0.7,0.2l0.8,1.5
				C31.8,39.3,31.7,39.6,31.5,39.8z"/>
		</g>
		<g>
			<path fill="#ACB3BA" d="M13.4,20.7c-0.1,0.3-0.5,0.3-0.7,0.2L11.2,20c-0.3-0.1-0.3-0.5-0.2-0.7c0.1-0.3,0.5-0.3,0.7-0.2l1.5,0.8
				C13.5,20.1,13.6,20.4,13.4,20.7z"/>
			<path fill="#ACB3BA" d="M37,34.3c-0.1,0.3-0.5,0.3-0.7,0.2l-1.5-0.8c-0.3-0.1-0.3-0.5-0.2-0.7c0.1-0.3,0.5-0.3,0.7-0.2l1.5,0.8
				C37,33.7,37.1,34,37,34.3z"/>
		</g>
		<g>
			<path fill="#ACB3BA" d="M11.8,26.8c0,0.3-0.2,0.5-0.5,0.5H9.6c-0.3,0-0.5-0.2-0.5-0.5c0-0.3,0.2-0.5,0.5-0.5h1.7
				C11.6,26.3,11.8,26.5,11.8,26.8z"/>
			<path fill="#ACB3BA" d="M39,26.8c0,0.3-0.2,0.5-0.5,0.5h-1.7c-0.3,0-0.5-0.2-0.5-0.5c0-0.3,0.2-0.5,0.5-0.5h1.7
				C38.7,26.3,39,26.5,39,26.8z"/>
		</g>
		<g>
			<path fill="#ACB3BA" d="M13.4,32.9c0.1,0.3,0.1,0.6-0.2,0.7l-1.5,0.8c-0.3,0.1-0.6,0.1-0.7-0.2c-0.1-0.3-0.1-0.6,0.2-0.7l1.5-0.8
				C13,32.6,13.3,32.6,13.4,32.9z"/>
			<path fill="#ACB3BA" d="M37,19.3c0.1,0.3,0.1,0.6-0.2,0.7l-1.5,0.8c-0.3,0.1-0.6,0.1-0.7-0.2c-0.1-0.3-0.1-0.6,0.2-0.7l1.5-0.8
				C36.5,19,36.8,19.1,37,19.3z"/>
		</g>
		<g>
			<path fill="#ACB3BA" d="M17.9,37.4c0.3,0.1,0.3,0.5,0.2,0.7l-0.8,1.5c-0.1,0.3-0.5,0.3-0.7,0.2c-0.3-0.1-0.3-0.5-0.2-0.7l0.8-1.5
				C17.3,37.3,17.6,37.2,17.9,37.4z"/>
			<path fill="#ACB3BA" d="M31.5,13.8c0.3,0.1,0.3,0.5,0.2,0.7L30.8,16c-0.1,0.3-0.5,0.3-0.7,0.2c-0.3-0.1-0.3-0.5-0.2-0.7l0.8-1.5
				C30.9,13.8,31.2,13.7,31.5,13.8z"/>
		</g>
	</g>
	<path fill="#FF7058" d="M24,27.3c-0.5,0-0.8-0.4-0.8-0.8v-8.8c0-0.5,0.4-0.8,0.8-0.8c0.5,0,0.8,0.4,0.8,0.8v8.8
		C24.8,27,24.5,27.3,24,27.3z"/>
	<path fill="#FF7058" d="M23.5,26.8c0-0.5,0.4-0.8,0.8-0.8h6.5c0.5,0,0.8,0.4,0.8,0.8s-0.4,0.8-0.8,0.8h-6.5
		C23.8,27.6,23.5,27.2,23.5,26.8z"/>
	<circle fill="#FFD15C" cx="24" cy="26.8" r="2.4"/>
</g>
</svg>
