<?xml version="1.0" encoding="utf-8"?>
<!-- Generator: Adobe Illustrator 18.0.0, SVG Export Plug-In . SVG Version: 6.00 Build 0)  -->
<!DOCTYPE svg PUBLIC "-//W3C//DTD SVG 1.1//EN" "http://www.w3.org/Graphics/SVG/1.1/DTD/svg11.dtd">
<svg version="1.1" id="Layer_1" xmlns="http://www.w3.org/2000/svg" xmlns:xlink="http://www.w3.org/1999/xlink" x="0px" y="0px"
	 viewBox="0 0 48 48" enable-background="new 0 0 48 48" xml:space="preserve">
<g>
	<g>
		<g>
			<g>
				<rect x="22.6" y="27.5" fill="#344A5E" width="2.8" height="17.3"/>
			</g>
			<g>
				<path fill="#344A5E" d="M39.8,32.3v7.2c0,0.8-0.6,1.4-1.4,1.4H9.6c-0.8,0-1.4-0.6-1.4-1.4v-7.2c0-0.8,0.6-1.4,1.4-1.4h0
					c0.8,0,1.4,0.6,1.4,1.4v5.8h26v-5.8c0-0.8,0.6-1.4,1.4-1.4h0C39.2,30.9,39.8,31.6,39.8,32.3z"/>
			</g>
		</g>
		<g>
			<g>
				<g>
					<rect x="4.9" y="16" fill="#F3F3F3" width="9.3" height="12.1"/>
				</g>
				<g>
					<g>
						<path fill="#F3705A" d="M13,11.5c0-1.9-3.4-6.1-3.4-6.1s-3.4,4.2-3.4,6.1s1.5,3.4,3.4,3.4S13,13.4,13,11.5z"/>
					</g>
					<g>
						<path fill="#FFD15C" d="M11.5,13c0-1-1.9-3.3-1.9-3.3S7.7,12,7.7,13s0.8,1.9,1.9,1.9S11.5,14.1,11.5,13z"/>
					</g>
				</g>
				<g>
					<g>
						<g>
							<g>
								<path fill="#415A6B" d="M3.8,30.2c0.1,0.7,0.4,1.5,1,2.1c2.4,2.9,7.1,2.9,9.5,0c0.5-0.6,0.9-1.4,1-2.1H3.8z"/>
							</g>
						</g>
						<g>
							<g>
								<path fill="#344A5E" d="M15.1,31c0.1-0.3,0.2-0.5,0.2-0.8H3.8c0,0.3,0.1,0.6,0.2,0.8H15.1z"/>
							</g>
						</g>
						<g>
							<g>
								<path fill="#415A6B" d="M15,30.3H4.2c-0.6,0-1.2-0.5-1.2-1.2S3.5,28,4.2,28H15c0.6,0,1.2,0.5,1.2,1.2S15.7,30.3,15,30.3z"/>
							</g>
						</g>
					</g>
				</g>
			</g>
			<g>
				<g>
					<rect x="33.8" y="16" fill="#F3F3F3" width="9.3" height="12.1"/>
				</g>
				<g>
					<g>
						<path fill="#F3705A" d="M41.8,11.5c0-1.9-3.4-6.1-3.4-6.1S35,9.6,35,11.5s1.5,3.4,3.4,3.4S41.8,13.4,41.8,11.5z"/>
					</g>
					<g>
						<path fill="#FFD15C" d="M40.3,13c0-1-1.9-3.3-1.9-3.3S36.5,12,36.5,13s0.8,1.9,1.9,1.9S40.3,14.1,40.3,13z"/>
					</g>
				</g>
				<g>
					<g>
						<g>
							<g>
								<path fill="#415A6B" d="M32.7,30.2c0.1,0.7,0.4,1.5,1,2.1c2.4,2.9,7.1,2.9,9.5,0c0.5-0.6,0.9-1.4,1-2.1H32.7z"/>
							</g>
						</g>
						<g>
							<g>
								<path fill="#344A5E" d="M43.9,31c0.1-0.3,0.2-0.5,0.2-0.8H32.7c0,0.3,0.1,0.6,0.2,0.8H43.9z"/>
							</g>
						</g>
						<g>
							<g>
								<path fill="#415A6B" d="M43.8,30.3H33c-0.6,0-1.2-0.5-1.2-1.2S32.3,28,33,28h10.9c0.6,0,1.2,0.5,1.2,1.2
									S44.5,30.3,43.8,30.3z"/>
							</g>
						</g>
					</g>
				</g>
			</g>
			<g>
				<g>
					<rect x="19.3" y="10.5" fill="#F3F3F3" width="9.3" height="12.1"/>
				</g>
				<g>
					<g>
						<path fill="#F3705A" d="M27.4,6.1C27.4,4.2,24,0,24,0s-3.4,4.2-3.4,6.1s1.5,3.4,3.4,3.4S27.4,7.9,27.4,6.1z"/>
					</g>
					<g>
						<path fill="#FFD15C" d="M25.9,7.6c0-1-1.9-3.3-1.9-3.3s-1.9,2.3-1.9,3.3S23,9.5,24,9.5C25,9.5,25.9,8.6,25.9,7.6z"/>
					</g>
				</g>
				<g>
					<g>
						<g>
							<g>
								<path fill="#415A6B" d="M18.3,24.8c0.1,0.7,0.4,1.5,1,2.1c2.4,2.9,7.1,2.9,9.5,0c0.5-0.6,0.9-1.4,1-2.1H18.3z"/>
							</g>
						</g>
						<g>
							<g>
								<path fill="#344A5E" d="M29.5,25.6c0.1-0.3,0.2-0.5,0.2-0.8H18.3c0,0.3,0.1,0.6,0.2,0.8H29.5z"/>
							</g>
						</g>
						<g>
							<g>
								<path fill="#415A6B" d="M29.4,24.9H18.6c-0.6,0-1.2-0.5-1.2-1.2c0-0.6,0.5-1.2,1.2-1.2h10.9c0.6,0,1.2,0.5,1.2,1.2
									C30.6,24.3,30.1,24.9,29.4,24.9z"/>
							</g>
						</g>
					</g>
				</g>
			</g>
		</g>
		<g>
			<path fill="#415A6B" d="M34.3,48c-0.4-2.4-4.9-4.4-10.3-4.4c-5.4,0-9.8,1.9-10.3,4.4H34.3z"/>
		</g>
	</g>
</g>
</svg>
