<?xml version="1.0" encoding="utf-8"?>
<!-- Generator: Adobe Illustrator 18.0.0, SVG Export Plug-In . SVG Version: 6.00 Build 0)  -->
<!DOCTYPE svg PUBLIC "-//W3C//DTD SVG 1.1//EN" "http://www.w3.org/Graphics/SVG/1.1/DTD/svg11.dtd">
<svg version="1.1" id="Layer_1" xmlns="http://www.w3.org/2000/svg" xmlns:xlink="http://www.w3.org/1999/xlink" x="0px" y="0px"
	 viewBox="0 0 48 48" enable-background="new 0 0 48 48" xml:space="preserve">
<g>
	<g>
		<g>
			<path fill="#F3F3F3" d="M45.7,20.8H14c-1.3,0-2.3,1-2.3,2.3v22.7c0,1.3,1,2.3,2.3,2.3h31.8c1.3,0,2.3-1,2.3-2.3V23.1
				C48,21.8,47,20.8,45.7,20.8z"/>
			<rect x="11.7" y="26.7" fill="#F3705A" width="36.3" height="15.2"/>
			<g>
				<circle fill="#344A5E" cx="34.4" cy="34.4" r="10.6"/>
				<circle fill="#E8EAE9" cx="34.4" cy="34.4" r="8.3"/>
				<circle fill="#55C0EB" cx="34.4" cy="34.4" r="6.2"/>
				
					<ellipse transform="matrix(0.7763 -0.6303 0.6303 0.7763 -11.9441 30.4822)" fill="#FFFFFF" cx="37" cy="32.1" rx="1.3" ry="2.1"/>
			</g>
			<polygon fill="#E8EAE9" points="28.6,16.3 26.1,20.8 42.6,20.8 40.1,16.3 			"/>
			<g>
				<rect x="15.4" y="18.5" fill="#415A6B" width="4.6" height="2.2"/>
			</g>
		</g>
		<g>
			<path fill="#66C6B9" d="M8.4,30.5L0.1,8.6C-0.2,7.8,0.2,7,1,6.7l17.4-6.6C19.1-0.2,20,0.2,20.3,1l8.3,21.9
				c0.3,0.8-0.1,1.6-0.9,1.9l-17.4,6.6C9.5,31.7,8.7,31.3,8.4,30.5z"/>
			
				<rect x="5.1" y="6.5" transform="matrix(0.3534 0.9355 -0.9355 0.3534 22.2401 -3.6613)" fill="#FFFFFF" width="17.3" height="15.6"/>
			<g>
				<path fill="#415A6B" d="M20.1,16.2l-9.9,3.7l0,0c0.3-1.7,0.1-3.5-0.5-5.1l-0.6-1.5c-0.8-2,0.3-4.3,2.3-5.1l0,0
					c2-0.8,4.3,0.3,5.1,2.3l0.6,1.5C17.7,13.7,18.8,15.1,20.1,16.2L20.1,16.2z"/>
				<g>
					<path fill="#F7B64C" d="M22.9,20l-0.6-1.6C22,17.4,21,16.9,20,17c-0.7,0.1-1.5,0.3-2.2,0.4c-0.6,0.1-1.2-0.2-1.4-0.7l-0.6-1.6
						l-3,1.1l0.6,1.6c0.2,0.6,0,1.2-0.6,1.5c-0.7,0.3-1.3,0.7-2,1.1c-0.8,0.5-1.2,1.6-0.8,2.6l0.6,1.6L22.9,20z"/>
				</g>
				<g>
					<path fill="#F3705A" d="M22.9,20l-0.6-1.6C22,17.4,21,16.9,20,17c-0.7,0.1-1.3,0.2-2,0.4c0.2,1.7-1.6,3.8-1.6,3.8
						s-2.8-0.3-3.7-1.7c-0.6,0.3-1.2,0.7-1.8,1c-0.8,0.5-1.2,1.6-0.8,2.5l0.6,1.6L22.9,20z"/>
				</g>
				<g>
					<path fill="#FFD15C" d="M13.6,11.1c-0.5,0.9-1.3,1.7-2.5,2.1c-0.2,0.1-0.5,0.2-0.7,0.2c0,0.5,0.2,1.1,0.4,1.7
						c0.8,2.2,2.8,3.6,4.4,3c1.6-0.6,2.2-2.9,1.4-5.2c-0.3-0.7-0.6-1.2-1-1.7C14.8,11.3,14.2,11.2,13.6,11.1z"/>
				</g>
			</g>
		</g>
	</g>
</g>
</svg>
