<?xml version="1.0" encoding="utf-8"?>
<!-- Generator: Adobe Illustrator 18.0.0, SVG Export Plug-In . SVG Version: 6.00 Build 0)  -->
<!DOCTYPE svg PUBLIC "-//W3C//DTD SVG 1.1//EN" "http://www.w3.org/Graphics/SVG/1.1/DTD/svg11.dtd">
<svg version="1.1" id="Layer_1" xmlns="http://www.w3.org/2000/svg" xmlns:xlink="http://www.w3.org/1999/xlink" x="0px" y="0px"
	 viewBox="0 0 48 48" enable-background="new 0 0 48 48" xml:space="preserve">
<g>
	<g>
		<g>
			<g>
				<g>
					<ellipse fill="#415A6B" cx="37.1" cy="31.3" rx="4.6" ry="6.6"/>
				</g>
				<g>
					<ellipse fill="#415A6B" cx="40.7" cy="31.6" rx="3.6" ry="6.6"/>
				</g>
			</g>
			<g>
				<g>
					<path fill="#415A6B" d="M41.3,25.3c-2-0.1-3.7,4.2-3.9,9.6c-0.1,2,0.1,3.9,0.4,5.5h5.9c0.4-1.5,0.7-3.3,0.8-5.2
						C44.7,29.9,43.2,25.4,41.3,25.3z"/>
				</g>
			</g>
			<g>
				<path fill="#F7B64C" d="M48,48v-5.2c0-1.4-0.9-2.5-2.3-2.9c-1.2-0.3-2.4-0.5-3.7-0.7c-0.8-0.1-1.3-0.7-1.3-1.5v-2.5h-4.8v2.5
					c0,0.8-0.6,1.4-1.3,1.5c-1.2,0.2-2.5,0.4-3.7,0.7c-1.3,0.3-2.2,1.5-2.2,2.9V48H48z"/>
			</g>
			<g>
				<path fill="#F3705A" d="M48,48v-5.2c0-1.4-0.9-2.5-2.3-2.9c-1.2-0.3-2.4-0.5-3.7-0.7c-0.1,0-0.2,0-0.3-0.1
					c-0.1,1.8-1.6,3.2-3.5,3.2c-1.8,0-3.3-1.4-3.5-3.2c-0.1,0-0.2,0-0.3,0.1c-1.2,0.2-2.5,0.4-3.7,0.7c-1.3,0.3-2.2,1.5-2.2,2.9V48
					H48z"/>
			</g>
			<g>
				<path fill="#FFD15C" d="M42.4,29.6c-0.9,0-1.9-0.5-2.7-1.1c-1.1,0.7-2.5,1-3.6,1.1c-0.7,0.1-1.3,0.1-2,0.1
					c-0.2,0.6-0.3,1.3-0.3,2c0,3.4,2,6.1,4.5,6.1s4.5-2.7,4.5-6.1c0-0.7-0.1-1.5-0.3-2.1C42.5,29.6,42.4,29.6,42.4,29.6z"/>
			</g>
			<g>
				<path fill="#415A6B" d="M32.8,29l0.6,2.4c-0.1,0.9,0.2,1.8,0.5,2.6c0.4,0.8,0.9,1.6,1.3,2.3c0.2,0.4,0.5,0.8,0.6,1.2
					C36,38,36,38.5,36,39c0,0.8-0.1,1.6-0.3,2.3s-0.6,1.5-1.3,1.9c0.2-0.4,0.3-0.8,0.2-1.3c-0.2,0.7-0.7,1.3-1.3,1.5s-2,0.2-2.6-0.1
					c0.8-0.3,1.5-0.9,1.9-1.6s0.8-1.6,0.6-2.4C32,34.9,32.3,30.6,32.8,29z"/>
			</g>
		</g>
		<g>
			<g>
				<polygon fill="#F7B64C" points="11,26.9 11,31.1 14.2,33.5 17.5,31.1 17.5,26.9 				"/>
			</g>
			<g>
				<g>
					<path fill="#415A6B" d="M11.6,14.1c0,1.1-0.8,1.9-1.6,2.3c-1.4,0.6-2.3,2.2-2.3,3.9c0,0,0,0,0,0c0,5.2,3,9,6.6,9
						c2.9,0,5.4-2.4,6.3-6c0.4-1.6,0.4-3.3-0.1-4.9C19.7,16,17.9,13.6,11.6,14.1z"/>
				</g>
				<g>
					<path fill="#FFD15C" d="M13.2,18.4C12,19.4,10.5,20,9,20.2c-0.3,1-0.5,2-0.5,3.2c0,4.5,2.6,8.2,5.7,8.2s5.7-3.7,5.7-8.2
						c0-0.4,0-0.7-0.1-1.1C17.4,21.8,15,20.5,13.2,18.4z"/>
				</g>
				<g>
					<g>
						
							<ellipse transform="matrix(0.9615 0.2747 -0.2747 0.9615 7.6598 -4.4572)" fill="#FFD15C" cx="19.7" cy="25.1" rx="1.2" ry="1.9"/>
					</g>
					<g>
						
							<ellipse transform="matrix(-0.9615 0.2747 -0.2747 -0.9615 24.0483 46.8758)" fill="#FFD15C" cx="8.7" cy="25.1" rx="1.2" ry="1.9"/>
					</g>
				</g>
			</g>
			<g>
				<g>
					<path fill="#CED6E0" d="M28.5,48H0l1-8.2c0.2-1.2,0.9-2.3,2-3L9.9,33l4.4,0.5l4.4-0.5l6.8,3.8c1.1,0.6,1.8,1.7,2,3L28.5,48z"/>
				</g>
				<g>
					<g>
						<g>
							<polygon fill="#F05540" points="15.3,36.4 16.2,35.5 14.2,33.5 12.3,35.5 13.2,36.4 							"/>
						</g>
					</g>
					<g>
						<g>
							<polygon fill="#F3705A" points="13.2,36.4 12.3,44.5 14.2,46.5 16.2,44.5 15.3,36.4 							"/>
						</g>
					</g>
				</g>
				<path fill="#344A5E" d="M24.4,36.2l-5-2.8c-0.7,3.3-5.1,9.2-5.1,9.2s-4.3-5.9-5.1-9.2l-5,2.8C4.9,38,5.3,40,5.3,41.9V48h18v-6.1
					C23.2,40,23.6,38,24.4,36.2z"/>
				<g>
					<g>
						<polygon fill="#F3F3F3" points="17.5,31.1 14.2,33.5 16.1,36.1 18.6,33 						"/>
					</g>
					<g>
						<polygon fill="#F3F3F3" points="11,31.1 14.2,33.5 12.4,36.1 9.9,33 						"/>
					</g>
				</g>
			</g>
		</g>
		<g>
			<g>
				<path fill="#8AD7F8" d="M48,3v13.1c0,1.7-1.3,3-3,3h-9.9L26.1,25v-5.9h-0.4c-1.7,0-3-1.3-3-3V3c0-1.7,1.3-3,3-3H45
					C46.7,0,48,1.3,48,3z"/>
			</g>
			<g>
				<g>
					<circle fill="#FFFFFF" cx="28.7" cy="9.6" r="2.1"/>
				</g>
				<g>
					<circle fill="#FFFFFF" cx="35.3" cy="9.6" r="2.1"/>
				</g>
				<g>
					<circle fill="#FFFFFF" cx="41.9" cy="9.6" r="2.1"/>
				</g>
			</g>
		</g>
	</g>
</g>
</svg>
