<?xml version="1.0" encoding="utf-8"?>
<!-- Generator: Adobe Illustrator 18.0.0, SVG Export Plug-In . SVG Version: 6.00 Build 0)  -->
<!DOCTYPE svg PUBLIC "-//W3C//DTD SVG 1.1//EN" "http://www.w3.org/Graphics/SVG/1.1/DTD/svg11.dtd">
<svg version="1.1" id="Layer_1" xmlns="http://www.w3.org/2000/svg" xmlns:xlink="http://www.w3.org/1999/xlink" x="0px" y="0px"
	 viewBox="0 0 48 48" enable-background="new 0 0 48 48" xml:space="preserve">
<g>
	<path fill="#CDD6E0" d="M46,48H2c-1.1,0-2-0.9-2-2V2c0-1.1,0.9-2,2-2h44c1.1,0,2,0.9,2,2v44C48,47.1,47.1,48,46,48z"/>
	<g>
		<rect x="4" y="4" fill="#F1543F" width="19.2" height="9.3"/>
		<rect x="24.8" y="24.4" fill="#F1543F" width="19.2" height="9.3"/>
		<rect x="14" y="14.2" fill="#F1543F" width="20.1" height="9.3"/>
		<rect x="34.9" y="4" fill="#F1543F" width="9.1" height="19.5"/>
		<rect x="14" y="24.4" fill="#F1543F" width="9.9" height="19.6"/>
		<rect x="4" y="14.2" fill="#F1543F" width="9.1" height="19.6"/>
		<rect x="24.1" y="4" fill="#F1543F" width="9.9" height="9.3"/>
		<rect x="24.8" y="34.6" fill="#F1543F" width="9.9" height="9.4"/>
		<rect x="35.6" y="34.6" fill="#F1543F" width="8.2" height="9.4"/>
		<rect x="4" y="34.6" fill="#F1543F" width="9.1" height="9.4"/>
	</g>
</g>
</svg>
