<?xml version="1.0" encoding="utf-8"?>
<!-- Generator: Adobe Illustrator 18.0.0, SVG Export Plug-In . SVG Version: 6.00 Build 0)  -->
<!DOCTYPE svg PUBLIC "-//W3C//DTD SVG 1.1//EN" "http://www.w3.org/Graphics/SVG/1.1/DTD/svg11.dtd">
<svg version="1.1" id="Layer_1" xmlns="http://www.w3.org/2000/svg" xmlns:xlink="http://www.w3.org/1999/xlink" x="0px" y="0px"
	 viewBox="0 0 48 48" enable-background="new 0 0 48 48" xml:space="preserve">
<g>
	<g>
		<path fill="#CDD6E0" d="M41.6,11.3l-5.2,11.1l0,0.1c-0.4,1.2-1.8,1.6-2.8,0.9c-2.3-1.7-5.7-2.7-5.7-2.7C12,15.5,6.3,15.3,6.3,15.3
			c-4.7-1.2-5.8,7.4-6,10.4c0,0.1,0,0.2,0,0.3c-0.3,5.5,3.9,10.3,9.5,10.6c1.6,0.1,3,0.1,3.8,0c0.4,0,0.9,0,1.4,0
			c3.9,0,8.7-0.9,12.6-1.7c4.9-1.1,9.3-4,12.2-8.2l0,0l6.5-12.9L41.6,11.3z"/>
		<path fill="#ACB3BA" d="M25.9,20c-12.5-3.9-18-4.6-19.3-4.7l2.5,21.2c1.9,0.2,3.6,0.1,4.4,0.1c0.4,0,0.9,0,1.3,0
			c3.9,0,8.9-0.9,12.8-1.8L25.9,20z"/>
		<g>
			<path fill="#40596B" d="M16.1,18.9l-7.8,0.9c-0.1,0-0.2,0.1-0.2,0.2c0,0.1,0.1,0.2,0.2,0.2l7.8-0.9c0.1,0,0.2-0.1,0.2-0.2
				C16.4,18.9,16.3,18.9,16.1,18.9z"/>
			<path fill="#40596B" d="M17.5,21l-8.9,1.1c-0.1,0-0.2,0.1-0.2,0.2c0,0.1,0.1,0.2,0.2,0.2l8.9-1.1c0.1,0,0.2-0.1,0.2-0.2
				S17.6,21,17.5,21z"/>
			<path fill="#40596B" d="M18.8,23.2l-9.9,1.2c-0.1,0-0.2,0.1-0.2,0.2c0,0.1,0.1,0.2,0.2,0.2l9.9-1.2c0.1,0,0.2-0.1,0.2-0.2
				S18.9,23.2,18.8,23.2z"/>
			<path fill="#40596B" d="M20.1,25.4l-11,1.3C9,26.7,9,26.8,9,26.9s0.1,0.2,0.2,0.2l11-1.3c0.1,0,0.2-0.1,0.2-0.2
				C20.3,25.4,20.2,25.4,20.1,25.4z"/>
			<path fill="#40596B" d="M21.4,27.5L9.4,29c-0.1,0-0.2,0.1-0.2,0.2s0.1,0.2,0.2,0.2l12-1.4c0.1,0,0.2-0.1,0.2-0.2
				C21.7,27.6,21.6,27.5,21.4,27.5z"/>
			<path fill="#40596B" d="M22.8,29.7L9.7,31.3c-0.1,0-0.2,0.1-0.2,0.2s0.1,0.2,0.2,0.2l13.1-1.5c0.1,0,0.2-0.1,0.2-0.2
				C23,29.8,22.9,29.7,22.8,29.7z"/>
			<path fill="#40596B" d="M24.1,31.9L10,33.6c-0.1,0-0.2,0.1-0.2,0.2c0,0.1,0.1,0.2,0.2,0.2l14.1-1.7c0.1,0,0.2-0.1,0.2-0.2
				C24.3,32,24.2,31.9,24.1,31.9z"/>
		</g>
		<polygon fill="#40596B" points="48,0 41.6,11.3 46.2,13.6 48,9.3 		"/>
		<path opacity="0.1" fill="#231F20" d="M29.2,32.8c-3.8,0.9-8.7,1.7-12.6,1.7c-0.5,0-0.9,0-1.4,0c-0.8,0-2.2,0.1-3.8,0
			C5.9,34.2,1.7,29.4,2,23.9c0-0.1,0-0.2,0-0.3c0.1-1.8,0.6-5.7,2-8.2c-3,1.3-3.8,7.8-4,10.2c0,0.1,0,0.2,0,0.3
			c-0.3,5.5,3.9,10.3,9.5,10.6c1.6,0.1,3,0.1,3.8,0c0.4,0,0.9,0,1.4,0c3.9,0,8.7-0.9,12.6-1.7c4.3-1,8.1-3.3,10.9-6.5
			C35.5,30.5,32.5,32,29.2,32.8z"/>
	</g>
	<g>
		<circle fill="#F2F2F2" cx="20.5" cy="30.4" r="8.9"/>
		<g>
			<path fill="#F2F2F2" d="M20.5,38.5c-4.5,0-8.1-3.7-8.1-8.1s3.7-8.1,8.1-8.1s8.1,3.7,8.1,8.1S25,38.5,20.5,38.5z"/>
			<path fill="#CDD6E0" d="M20.1,22.2c0,0.3-0.3,0.7-0.8,0.7c-0.5,0.1-0.9-0.2-0.9-0.5C19,22.3,19.5,22.3,20.1,22.2z"/>
			<path fill="#CDD6E0" d="M15.1,25.4c0,0.4-0.3,0.9-0.7,1c-0.4,0.1-0.7-0.1-0.8-0.5c0.3-0.4,0.6-0.8,0.9-1.2
				C14.9,24.8,15.1,25,15.1,25.4z"/>
			<path fill="#CDD6E0" d="M18.6,24.7c0,0.4-0.3,0.9-0.8,1c-0.5,0.1-0.9-0.2-0.9-0.7c0-0.4,0.3-0.9,0.8-0.9
				C18.1,24,18.5,24.3,18.6,24.7z"/>
			<path fill="#CDD6E0" d="M22.2,24.2c0.1,0.4-0.3,0.9-0.8,0.9c-0.5,0.1-1-0.3-1-0.7c-0.1-0.4,0.3-0.8,0.8-0.9
				C21.7,23.5,22.1,23.7,22.2,24.2z"/>
			<path fill="#CDD6E0" d="M25.7,24.2c-0.1,0.3-0.3,0.5-0.7,0.6c-0.5,0-0.9-0.3-1-0.7c-0.1-0.3,0.1-0.6,0.3-0.8
				C24.9,23.5,25.3,23.8,25.7,24.2z"/>
			<path fill="#CDD6E0" d="M13.9,28.3c0.1,0.5-0.2,0.9-0.6,1c-0.3,0.1-0.6-0.2-0.7-0.7c-0.1-0.4,0.1-0.9,0.5-1
				C13.5,27.5,13.8,27.8,13.9,28.3z"/>
			<path fill="#CDD6E0" d="M17.1,27.7c0.1,0.5-0.3,1-0.7,1c-0.5,0.1-0.9-0.3-0.9-0.7c-0.1-0.5,0.3-0.9,0.7-1
				C16.6,26.9,17.1,27.2,17.1,27.7z"/>
			<path fill="#CDD6E0" d="M20.8,27.1c0.1,0.5-0.3,1-0.8,1.1c-0.5,0.1-1-0.3-1-0.8c-0.1-0.5,0.3-1,0.8-1
				C20.3,26.2,20.7,26.6,20.8,27.1z"/>
			<path fill="#CDD6E0" d="M24.5,26.6c0.1,0.5-0.2,0.9-0.7,1c-0.5,0.1-1-0.3-1.1-0.8c-0.1-0.5,0.3-0.9,0.8-1
				C24,25.8,24.4,26.1,24.5,26.6z"/>
			<path fill="#CDD6E0" d="M27.8,26.8c-0.1,0.2-0.3,0.4-0.6,0.5c-0.4,0-0.8-0.3-0.9-0.8c-0.1-0.5,0.2-0.9,0.6-0.9c0,0,0.1,0,0.1,0
				C27.3,25.9,27.5,26.3,27.8,26.8z"/>
			<path fill="#CDD6E0" d="M15.7,30.7c0.1,0.5-0.2,0.9-0.6,1c-0.4,0-0.8-0.3-0.9-0.8c-0.1-0.5,0.2-0.9,0.6-1
				C15.2,29.9,15.7,30.2,15.7,30.7z"/>
			<path fill="#CDD6E0" d="M19.3,30.2c0.1,0.5-0.3,1-0.8,1.1c-0.5,0.1-1-0.3-1-0.8c-0.1-0.5,0.3-1,0.8-1.1
				C18.7,29.3,19.2,29.7,19.3,30.2z"/>
			<circle fill="#CDD6E0" cx="22.2" cy="29.8" r="0.9"/>
			<path fill="#CDD6E0" d="M26.7,29.2c0.1,0.5-0.2,1-0.7,1c-0.5,0.1-0.9-0.3-1-0.8c-0.1-0.5,0.3-1,0.7-1
				C26.2,28.3,26.6,28.7,26.7,29.2z"/>
			<path fill="#CDD6E0" d="M28.6,29.6c-0.2-0.1-0.3-0.4-0.4-0.6c0-0.2,0-0.5,0.1-0.7C28.4,28.7,28.5,29.1,28.6,29.6z"/>
			<path fill="#CDD6E0" d="M14.6,33.6c0.1,0.5-0.2,0.9-0.5,0.9c-0.4,0-0.7-0.4-0.8-0.8c-0.1-0.4,0.1-0.8,0.5-0.9
				C14.2,32.7,14.6,33.1,14.6,33.6z"/>
			<path fill="#CDD6E0" d="M17.9,33.3c0.1,0.5-0.2,0.9-0.7,1c-0.5,0-0.9-0.3-1-0.8c-0.1-0.5,0.2-0.9,0.7-1
				C17.4,32.4,17.8,32.8,17.9,33.3z"/>
			<path fill="#CDD6E0" d="M21.6,32.8c0.1,0.5-0.3,1-0.8,1c-0.5,0.1-1-0.3-1.1-0.8c-0.1-0.5,0.3-1,0.8-1
				C21.1,32,21.6,32.3,21.6,32.8z"/>
			<path fill="#CDD6E0" d="M25.3,32.2c0.1,0.5-0.3,1-0.8,1c-0.5,0.1-0.9-0.2-1-0.7c-0.1-0.5,0.3-1,0.8-1.1
				C24.8,31.4,25.3,31.7,25.3,32.2z"/>
			<path fill="#CDD6E0" d="M28.5,31.5c-0.1-0.4-0.4-0.7-0.8-0.6c-0.4,0.1-0.7,0.5-0.7,1c0.1,0.5,0.4,0.8,0.9,0.7
				c0.2,0,0.4-0.2,0.5-0.3L28.5,31.5z"/>
			<path fill="#CDD6E0" d="M16.7,36c0.1,0.4-0.2,0.8-0.6,0.8c-0.4,0-0.9-0.3-0.9-0.8c-0.1-0.4,0.2-0.8,0.6-0.8
				C16.1,35.2,16.6,35.6,16.7,36z"/>
			<path fill="#CDD6E0" d="M20.2,35.7c0.1,0.4-0.2,0.8-0.7,0.9c-0.5,0.1-0.9-0.2-1-0.7c-0.1-0.4,0.2-0.9,0.7-0.9
				C19.6,34.9,20.1,35.3,20.2,35.7z"/>
			<path fill="#CDD6E0" d="M23.8,35.2c0,0.4-0.3,0.8-0.8,0.9c-0.5,0.1-0.9-0.2-1-0.6c-0.1-0.4,0.3-0.9,0.8-1
				C23.3,34.4,23.7,34.7,23.8,35.2z"/>
			<path fill="#CDD6E0" d="M27.2,34.5c0,0.4-0.3,0.9-0.8,1c-0.5,0.1-0.9-0.2-0.9-0.6c0-0.4,0.3-0.9,0.8-1
				C26.8,33.8,27.2,34.1,27.2,34.5z"/>
			<path fill="#CDD6E0" d="M18.9,38.4c-0.6-0.1-1.1-0.3-1.6-0.5c0.1-0.2,0.3-0.3,0.6-0.4c0.5,0,0.9,0.2,1,0.6
				C19,38.2,19,38.3,18.9,38.4z"/>
			<path fill="#CDD6E0" d="M22.3,37.7c0,0.3-0.3,0.6-0.7,0.7c-0.4,0.1-0.9-0.1-0.9-0.5c-0.1-0.3,0.2-0.7,0.7-0.8
				C21.9,37.1,22.3,37.3,22.3,37.7z"/>
			<path fill="#CDD6E0" d="M25.5,36.8c-0.4,0.3-0.9,0.6-1.4,0.9c0-0.1-0.1-0.1-0.1-0.2c0-0.4,0.3-0.7,0.8-0.8
				C25.1,36.6,25.4,36.6,25.5,36.8z"/>
		</g>
		<path opacity="0.1" fill="#231F20" d="M22.7,37c-4.9,0-8.9-4-8.9-8.9c0-1.9,0.6-3.6,1.6-5.1c-2.3,1.6-3.8,4.3-3.8,7.3
			c0,4.9,4,8.9,8.9,8.9c3,0,5.7-1.5,7.3-3.8C26.3,36.5,24.6,37,22.7,37z"/>
		<rect x="18" y="39" fill="#ACB3BA" width="4.9" height="1"/>
		<path fill="#F2F2F2" d="M19.2,48h2.5v-3.7c0-2.6,1.2-4.3,1.2-4.3H18c0,0,1.2,1.7,1.2,4.3V48z"/>
	</g>
</g>
</svg>
