<?xml version="1.0" encoding="utf-8"?>
<!-- Generator: Adobe Illustrator 18.0.0, SVG Export Plug-In . SVG Version: 6.00 Build 0)  -->
<!DOCTYPE svg PUBLIC "-//W3C//DTD SVG 1.1//EN" "http://www.w3.org/Graphics/SVG/1.1/DTD/svg11.dtd">
<svg version="1.1" id="Layer_1" xmlns="http://www.w3.org/2000/svg" xmlns:xlink="http://www.w3.org/1999/xlink" x="0px" y="0px"
	 viewBox="0 0 48 48" enable-background="new 0 0 48 48" xml:space="preserve">
<g>
	<g>
		<g>
			<path fill="#FFD15C" d="M8.7,19.6h3.4L10.6,7.4c-0.3-2.1,1.4-4,3.6-4h19.6c2.2,0,3.8,1.9,3.6,4l-1.4,12.2h3.4l1.4-12
				C41.2,3.6,38.1,0,34,0H14C9.9,0,6.8,3.6,7.2,7.6L8.7,19.6z"/>
			<path fill="#40596B" d="M7.6,11h3.4l-0.4-3.6c-0.3-2.1,1.4-4,3.6-4h19.6c2.2,0,3.8,1.9,3.6,4L36.9,11h3.4l0.4-3.5
				C41.2,3.6,38.1,0,34,0H14C9.9,0,6.8,3.6,7.2,7.6L7.6,11z"/>
		</g>
		<path fill="#FFD15C" d="M34.3,48C41.7,48,48,42.2,48,34.8c0,0,0-0.1,0-0.1c0-13.3-10.7-24.2-24-24.2c-13.3,0-24,10.9-24,24.2
			c0,0,0,0.1,0,0.1C0,42.2,6.3,48,13.7,48H34.3z"/>
	</g>
	<g>
		<g>
			<g>
				<path fill="#FFFFFF" d="M30.3,37.5H29v-6.1h1.2v3.1l1.4-1.5h1.5l-1.7,1.8l1.7,2.6h-1.5l-1.1-1.7l-0.4,0.4V37.5z"/>
				<g>
					<g>
						<path fill="#FFFFFF" d="M34.2,38.6c0,0,1.1,0.9,2.6,0.5c0,0,1.6-0.4,1.6-1.9v-4.1h-1.2l0.2,3.7c0,0,0.1,1.2-1.2,1.4
							c0,0-0.6,0.2-1.5-0.4L34.2,38.6z"/>
					</g>
					<path fill="#FFFFFF" d="M35.9,33c-1.1,0-2,1-2,2.2c0,1.2,0.9,2.2,2,2.2s2-1,2-2.2C37.9,34,37,33,35.9,33z M36.2,36.4
						c-0.6,0-1-0.5-1-1.1c0-0.6,0.5-1.1,1-1.1c0.6,0,1,0.5,1,1.1C37.2,35.9,36.8,36.4,36.2,36.4z"/>
				</g>
			</g>
		</g>
		<g>
			<path fill="#FFFFFF" d="M22.1,25c-2.8,0-5,1.8-5,6.3v0c0,4.5,2.3,6.3,5,6.3c2.8,0,5-1.8,5-6.3v0C27.1,26.8,24.9,25,22.1,25z
				 M22.1,35.3c-0.6,0-2.4,0-2.4-4c0-4,1.7-4,2.4-4c0.6,0,2.4,0,2.4,4C24.4,35.3,22.7,35.3,22.1,35.3z"/>
			<g>
				<path fill="#FFFFFF" d="M9.6,25.3h4.9v12.2h-2.6v-9.9H9.6V25.3z"/>
			</g>
		</g>
	</g>
</g>
</svg>
