<?xml version="1.0" encoding="utf-8"?>
<!-- Generator: Adobe Illustrator 18.0.0, SVG Export Plug-In . SVG Version: 6.00 Build 0)  -->
<!DOCTYPE svg PUBLIC "-//W3C//DTD SVG 1.1//EN" "http://www.w3.org/Graphics/SVG/1.1/DTD/svg11.dtd">
<svg version="1.1" id="Layer_1" xmlns="http://www.w3.org/2000/svg" xmlns:xlink="http://www.w3.org/1999/xlink" x="0px" y="0px"
	 viewBox="0 0 48 48" enable-background="new 0 0 48 48" xml:space="preserve">
<g>
	<path fill="#40596B" d="M7.2,40.5l-4.1,4.1c-0.8,0.8-0.8,2,0,2.8h0c0.8,0.8,2,0.8,2.8,0l4.1-4.1c0.8-0.8,0.8-2,0-2.8
		C9.2,39.8,7.9,39.8,7.2,40.5z"/>
	<path fill="#40596B" d="M44.9,44.6l-4.1-4.1c-0.8-0.8-2-0.8-2.8,0c-0.8,0.8-0.8,2,0,2.8l4.1,4.1c0.8,0.8,2,0.8,2.8,0
		C45.7,46.6,45.7,45.4,44.9,44.6z"/>
	<path fill="#E8EAEA" d="M9.5,1.1c-4.6,0-8.4,3.8-8.4,8.4v14.4h3.2V9.5c0-2.9,2.3-5.2,5.2-5.2h5.8V1.1H9.5z"/>
	<path fill="#CDD6E0" d="M22.5,4.3c-1-3.1-4.3-4.9-7.5-4.1c-3.2,0.9-5.1,4.1-4.4,7.3L22.5,4.3z"/>
	<path fill="#40596B" d="M23.8,4.7C23.7,4.1,23,3.8,22.5,4L10.6,7.2c-0.6,0.2-0.9,0.8-0.8,1.4c0.2,0.6,0.8,0.9,1.4,0.8L23,6.1
		C23.6,5.9,24,5.3,23.8,4.7z"/>
	<g>
		<path fill="#F2F2F2" d="M22,13.5c0,0-0.8,1.6-0.7,2.1c0.1,0.6,0.7,0.9,1.2,0.8c0.6-0.1,0.9-0.7,0.8-1.2C23.3,14.6,22,13.5,22,13.5
			z"/>
		<path fill="#F2F2F2" d="M18.5,14.1c0,0-0.8,1.6-0.7,2.1c0.1,0.6,0.7,0.9,1.2,0.8s0.9-0.7,0.8-1.2C19.8,15.3,18.5,14.1,18.5,14.1z"
			/>
		<path fill="#F2F2F2" d="M15,14.8c0,0-0.8,1.6-0.7,2.1c0.1,0.6,0.7,0.9,1.2,0.8c0.6-0.1,0.9-0.7,0.8-1.2C16.3,15.9,15,14.8,15,14.8
			z"/>
		<path fill="#F2F2F2" d="M22.6,10.7c-0.1-0.6-1.4-1.7-1.4-1.7s-0.8,1.6-0.7,2.1c0.1,0.6,0.7,0.9,1.2,0.8
			C22.3,11.8,22.7,11.2,22.6,10.7z"/>
		<path fill="#F2F2F2" d="M19.1,11.3c-0.1-0.6-1.4-1.7-1.4-1.7s-0.8,1.6-0.7,2.1c0.1,0.6,0.7,0.9,1.2,0.8
			C18.8,12.4,19.2,11.9,19.1,11.3z"/>
		<path fill="#F2F2F2" d="M15.6,12c-0.1-0.6-1.4-1.7-1.4-1.7s-0.8,1.6-0.7,2.1c0.1,0.6,0.7,0.9,1.2,0.8S15.7,12.5,15.6,12z"/>
	</g>
	<path fill="#F2F2F2" d="M42.4,40.4c0.7-4.8,2.1-9.4,4.1-13.6h-45c2,4.2,3.4,8.8,4.1,13.6c0.3,2,2,3.5,4,3.5h28.8
		C40.4,43.9,42.1,42.4,42.4,40.4z"/>
	<path fill="#4CDBC4" d="M45,21.5H3c-1.7,0-3,1.4-3,3l0,0c0,1.7,1.4,3,3,3H45c1.7,0,3-1.4,3-3l0,0C48,22.8,46.6,21.5,45,21.5z"/>
</g>
</svg>
