<?xml version="1.0" encoding="utf-8"?>
<!-- Generator: Adobe Illustrator 18.0.0, SVG Export Plug-In . SVG Version: 6.00 Build 0)  -->
<!DOCTYPE svg PUBLIC "-//W3C//DTD SVG 1.1//EN" "http://www.w3.org/Graphics/SVG/1.1/DTD/svg11.dtd">
<svg version="1.1" id="Layer_1" xmlns="http://www.w3.org/2000/svg" xmlns:xlink="http://www.w3.org/1999/xlink" x="0px" y="0px"
	 viewBox="0 0 48 48" enable-background="new 0 0 48 48" xml:space="preserve">
<g>
	<g>
		<g>
			<g>
				<g>
					<path fill="#F3705A" d="M24,45.1c0,0,24-14,24-29.8c0-6.8-5.5-12.3-12.3-12.3c-5.4,0-9.9,3.4-11.6,8.2
						c-1.7-4.8-6.3-8.2-11.6-8.2C5.5,2.9,0,8.5,0,15.3C0,31.4,24,45.1,24,45.1z"/>
				</g>
				<g>
					<path fill="#FFFFFF" d="M41.3,9.1c1.7,1.5,2.4,3.4,1.7,4.2c-0.8,0.8-2.7,0.3-4.4-1.2c-1.7-1.5-2.4-3.4-1.7-4.2
						C37.7,7.1,39.6,7.6,41.3,9.1z"/>
				</g>
			</g>
		</g>
	</g>
	<path fill="#415A6B" d="M8.8,3.5l2.7,7l3.6,2.1l-4.9,7.6l3.9,3.9l-1.2,3.8l3.8,3.9L14,27.7l2-4l-3.2-3.8l5.4-8l-4.3-3.3l-1.3-5.7
		c-0.1,0-0.1,0-0.2,0C11.1,2.9,9.9,3.1,8.8,3.5z"/>
</g>
</svg>
