<?xml version="1.0" encoding="utf-8"?>
<!-- Generator: Adobe Illustrator 18.0.0, SVG Export Plug-In . SVG Version: 6.00 Build 0)  -->
<!DOCTYPE svg PUBLIC "-//W3C//DTD SVG 1.1//EN" "http://www.w3.org/Graphics/SVG/1.1/DTD/svg11.dtd">
<svg version="1.1" id="Layer_1" xmlns="http://www.w3.org/2000/svg" xmlns:xlink="http://www.w3.org/1999/xlink" x="0px" y="0px"
	 viewBox="0 0 48 48" enable-background="new 0 0 48 48" xml:space="preserve">
<g>
	<path fill="#CDD6E0" d="M42.5,2v36.3H3.3V2c0-1.1,0.9-2,2-2h35.2C41.6,0,42.5,0.9,42.5,2z"/>
	<path fill="#CDD6E0" d="M42.5,48H8.1c-2.6,0-4.7-2.1-4.7-4.7v-4.9h39.2C41.3,41.4,41.3,44.9,42.5,48z"/>
	<path fill="#ACB3BA" d="M13.3,0v48h-6c-2.2,0-4-1.8-4-4V2.5c0-1.4,0.9-2.5,2-2.5H13.3z"/>
	<path fill="#F2F2F2" d="M4.3,43.2L4.3,43.2c0-2.1,1.7-3.8,3.8-3.8c11.1,0,22.2,0,33.3,0c-1,2.5-1,5.2,0,7.7c-11.1,0-22.2,0-33.3,0
		C6,47,4.3,45.3,4.3,43.2z"/>
	<path fill="#FF7058" d="M43.7,10.8h-1.1V4.4h1.1c0.6,0,1,0.4,1,1v4.4C44.7,10.3,44.2,10.8,43.7,10.8z"/>
	<path fill="#FFD15C" d="M43.7,18.5h-1.1v-6.4h1.1c0.6,0,1,0.4,1,1v4.4C44.7,18,44.2,18.5,43.7,18.5z"/>
	<path fill="#54C0EB" d="M43.7,26.2h-1.1v-6.4h1.1c0.6,0,1,0.4,1,1v4.4C44.7,25.7,44.2,26.2,43.7,26.2z"/>
	<path fill="#FF7058" d="M34.3,15.9c0,1.3-0.4,2.5-1,3.5c-0.9,1.4-2.4,2.4-4.1,2.8c-0.2,0-0.4,0.1-0.6,0.1c-0.2,0-0.3,0-0.5,0h-0.2
		c-0.2,0-0.3,0-0.5,0c-0.2,0-0.4,0-0.6-0.1c-1.7-0.3-3.2-1.4-4.1-2.8c-0.7-1-1-2.2-1-3.5c0-3.5,2.8-6.3,6.4-6.3
		C31.4,9.6,34.3,12.4,34.3,15.9z"/>
	<g>
		<path fill="#FFFFFF" d="M29.6,17.9L29,19.6l-0.5,1.5v0l-0.4,1.2h-0.2l-0.4-1.2l-0.5-1.5l-0.6-1.7c0,0,0,0,0,0
			c0.4,0.5,1,0.8,1.6,0.8C28.6,18.7,29.2,18.4,29.6,17.9C29.6,17.9,29.6,17.9,29.6,17.9z"/>
		<path fill="#F8B64C" d="M26.3,17.9C26.3,17.9,26.3,17.9,26.3,17.9L26.3,17.9z"/>
		<path fill="#F8B64C" d="M28.6,18.6"/>
		<path fill="#F8B64C" d="M29.6,17.9C29.6,17.9,29.6,17.9,29.6,17.9L29.6,17.9z"/>
		<g>
			
				<ellipse transform="matrix(0.9962 -8.715399e-002 8.715399e-002 0.9962 -1.1868 2.3027)" fill="#F8B64C" cx="25.8" cy="14.7" rx="0.5" ry="0.8"/>
			
				<ellipse transform="matrix(0.9962 8.715399e-002 -8.715399e-002 0.9962 1.3995 -2.5685)" fill="#F8B64C" cx="30.1" cy="14.7" rx="0.5" ry="0.8"/>
		</g>
		<path fill="#FFD15C" d="M27.9,11.2c-1.3,0-2.4,1.1-2.4,2.4v0.7c0,0.2,0,0.4,0,0.6v0c0.1,0.9,0.5,1.8,1.2,2.5l0.2,0.3
			c0.2,0.2,0.5,0.4,0.8,0.4h0.4c0.3,0,0.6-0.1,0.8-0.4l0.2-0.3c0.6-0.7,1.1-1.6,1.2-2.5c0-0.2,0-0.4,0-0.6v-0.7
			C30.4,12.3,29.3,11.2,27.9,11.2L27.9,11.2z"/>
		<path fill="#CDD6E0" d="M29.6,17.9"/>
		<polygon fill="#FF7058" points="27.9,22.6 28,22.7 27.9,22.7 		"/>
		<path fill="#FF7058" d="M28.8,19.2l-0.1,0.1l-0.1,0.2l-0.2,0.4l0.1,1.2v0l0.1,1.1c-0.2,0-0.3,0-0.5,0h-0.2c-0.2,0-0.3,0-0.5,0
			l0.1-1.1l0,0l0.1-1.2l-0.2-0.4l-0.1-0.2l-0.1-0.1l0.8-0.5L28.8,19.2z"/>
		<polygon fill="#54C0EB" points="27.9,22.6 28,22.7 27.9,22.7 		"/>
		<path fill="#40596B" d="M29.8,19.6l0.6,0.3l-1.2,2.4c-0.2,0-0.4,0.1-0.6,0.1c-0.2,0-0.3,0-0.5,0l0.4-1.2v0l0.5-1.5l0.6-1.7l0,0
			l0.6,0.2l0.3,1.1L29.8,19.6z"/>
		<path fill="#40596B" d="M27.4,21.1l0.4,1.2c-0.2,0-0.3,0-0.5,0c-0.2,0-0.4,0-0.6-0.1l-1.2-2.4l0.6-0.3l-0.8-0.4l0.3-1.1l0.6-0.2
			l0.1,0l0.6,1.7L27.4,21.1z"/>
		<polygon fill="#54C0EB" points="28,22.7 27.9,22.7 27.9,22.6 		"/>
		<path fill="#ACB3BA" d="M33.3,19.4c-0.9,1.4-2.4,2.4-4.1,2.8l1.2-2.4l-0.6-0.3l0.8-0.4l-0.3-1.1l2.2,0.8
			C32.8,19,33,19.2,33.3,19.4z"/>
		<path fill="#ACB3BA" d="M26.7,22.2c-1.7-0.3-3.2-1.4-4.1-2.8c0.2-0.2,0.5-0.4,0.8-0.5l2.2-0.8l-0.3,1.1l0.8,0.4l-0.6,0.3
			L26.7,22.2z"/>
		<path fill="#40596B" d="M25.3,14.3l0.2,0.7c0,0-0.1-2.1,0.7-2.1c0,0,1.2,0.5,1.7,0.6c0,0,1.2,0.2,1.8-0.6c0,0,0.5,0.3,0.3,0.8
			c0,0,0.2,1,0.2,1.3l0.2-0.6c0.1-0.3,0.5-1.8-0.7-2.2c0,0-0.1-1.4-2-1.5c0,0-1.4-0.1-2.6,1.5l0.3-0.1C25.5,12.1,25,12.4,25.3,14.3z
			"/>
		<polygon fill="#F1543F" points="27.1,19.2 27.3,19.6 27.9,19 28.6,19.6 28.8,19.2 27.9,18.7 		"/>
		<polygon fill="#F2F2F2" points="29.6,17.9 29,19.6 27.9,18.7 26.9,19.6 26.3,17.9 27.9,18.6 		"/>
		<path fill="#F8B64C" d="M29.2,17.4l-0.2,0.3c-0.2,0.2-0.5,0.4-0.8,0.4h-0.4c-0.3,0-0.6-0.1-0.8-0.4l-0.2-0.3
			c-0.1-0.2-0.3-0.3-0.4-0.5v1l1.6,0.7l1.6-0.7v-1C29.5,17.1,29.3,17.3,29.2,17.4z"/>
		<path opacity="0.1" fill="#40596B" d="M29.2,17.4l-0.2,0.3c-0.2,0.2-0.5,0.4-0.8,0.4h-0.4c-0.3,0-0.6-0.1-0.8-0.3l0,0l1,0.9
			l1.6-0.7v-1C29.5,17.1,29.3,17.3,29.2,17.4z"/>
	</g>
	<rect x="19.3" y="27.2" fill="#FFFFFF" width="17.2" height="7.4"/>
</g>
</svg>
