<?xml version="1.0" encoding="utf-8"?>
<!-- Generator: Adobe Illustrator 18.0.0, SVG Export Plug-In . SVG Version: 6.00 Build 0)  -->
<!DOCTYPE svg PUBLIC "-//W3C//DTD SVG 1.1//EN" "http://www.w3.org/Graphics/SVG/1.1/DTD/svg11.dtd">
<svg version="1.1" id="Layer_1" xmlns="http://www.w3.org/2000/svg" xmlns:xlink="http://www.w3.org/1999/xlink" x="0px" y="0px"
	 viewBox="0 0 48 48" enable-background="new 0 0 48 48" xml:space="preserve">
<g>
	<g>
		<g>
			<path fill="#F3705B" d="M15,12.4c-2.7,0-5.5-0.3-8.2-1c0-2.4,0-4.8,0-7.2c2.7,0.7,5.5,1,8.2,1C15,7.6,15,10,15,12.4z"/>
			<path fill="#F3F3F3" d="M23.3,11.9c-2.7,0.3-5.5,0.5-8.2,0.5c0-2.4,0-4.8,0-7.2c2.7,0,5.5-0.2,8.2-0.5
				C23.3,7.1,23.3,9.5,23.3,11.9z"/>
			<path fill="#F3F3F3" d="M39.8,10.4c-2.7,0-5.5,0.2-8.2,0.5c0-2.4,0-4.8,0-7.2c2.7-0.3,5.5-0.5,8.2-0.5C39.8,5.6,39.8,8,39.8,10.4
				z"/>
			<path fill="#F3705B" d="M48,11.4c-2.7-0.7-5.5-1-8.2-1c0-2.4,0-4.8,0-7.2c2.7,0,5.5,0.3,8.2,1C48,6.6,48,9,48,11.4z"/>
			<path fill="#F3F3F3" d="M15,19.6c-2.7,0-5.5-0.3-8.2-1c0-2.4,0-4.8,0-7.2c2.7,0.7,5.5,1,8.2,1C15,14.8,15,17.2,15,19.6z"/>
			<path fill="#F3705B" d="M23.3,19.1c-2.7,0.3-5.5,0.5-8.2,0.5c0-2.4,0-4.8,0-7.2c2.7,0,5.5-0.2,8.2-0.5
				C23.3,14.3,23.3,16.7,23.3,19.1z"/>
			<path fill="#F3705B" d="M39.8,17.6c-2.7,0-5.5,0.2-8.2,0.5c0-2.4,0-4.8,0-7.2c2.7-0.3,5.5-0.5,8.2-0.5
				C39.8,12.8,39.8,15.2,39.8,17.6z"/>
			<g>
				<path fill="#F3F3F3" d="M48,18.6c-2.7-0.7-5.5-1-8.2-1c0-2.4,0-4.8,0-7.2c2.7,0,5.5,0.3,8.2,1C48,13.8,48,16.2,48,18.6z"/>
			</g>
			<path fill="#F3705B" d="M15,26.8c-2.7,0-5.5-0.3-8.2-1c0-2.4,0-4.8,0-7.2c2.7,0.7,5.5,1,8.2,1C15,22,15,24.4,15,26.8z"/>
			<path fill="#F3F3F3" d="M23.3,26.3c-2.7,0.3-5.5,0.5-8.2,0.5c0-2.4,0-4.8,0-7.2c2.7,0,5.5-0.2,8.2-0.5
				C23.3,21.5,23.3,23.9,23.3,26.3z"/>
			<path fill="#F3F3F3" d="M39.8,24.8c-2.7,0-5.5,0.2-8.2,0.5c0-2.4,0-4.8,0-7.2c2.7-0.3,5.5-0.5,8.2-0.5
				C39.8,20,39.8,22.4,39.8,24.8z"/>
			<path fill="#F3705B" d="M48,25.8c-2.7-0.7-5.5-1-8.2-1c0-2.4,0-4.8,0-7.2c2.7,0,5.5,0.3,8.2,1C48,21,48,23.4,48,25.8z"/>
			<g>
				<path fill="#F3705B" d="M31.5,10.9c-2.7,0.3-5.5,0.7-8.2,1c0-2.4,0-4.8,0-7.2c2.7-0.3,5.5-0.7,8.2-1
					C31.5,6.1,31.5,8.5,31.5,10.9z"/>
				<path fill="#F3F3F3" d="M31.5,18.1c-2.7,0.3-5.5,0.7-8.2,1c0-2.4,0-4.8,0-7.2c2.7-0.3,5.5-0.7,8.2-1
					C31.5,13.3,31.5,15.7,31.5,18.1z"/>
				<path fill="#F3705B" d="M31.5,25.3c-2.7,0.3-5.5,0.7-8.2,1c0-2.4,0-4.8,0-7.2c2.7-0.3,5.5-0.7,8.2-1
					C31.5,20.5,31.5,22.9,31.5,25.3z"/>
				<g>
					<path fill="#F3F3F3" d="M15,34c-2.7,0-5.5-0.3-8.2-1c0-2.4,0-4.8,0-7.2c2.7,0.7,5.5,1,8.2,1C15,29.2,15,31.6,15,34z"/>
					<path fill="#F3705B" d="M23.3,33.5C20.5,33.8,17.8,34,15,34c0-2.4,0-4.8,0-7.2c2.7,0,5.5-0.2,8.2-0.5
						C23.3,28.7,23.3,31.1,23.3,33.5z"/>
					<path fill="#F3F3F3" d="M31.5,32.5c-2.7,0.3-5.5,0.7-8.2,1c0-2.4,0-4.8,0-7.2c2.7-0.3,5.5-0.7,8.2-1
						C31.5,27.7,31.5,30.1,31.5,32.5z"/>
					<path fill="#F3705B" d="M39.8,32c-2.7,0-5.5,0.2-8.2,0.5c0-2.4,0-4.8,0-7.2c2.7-0.3,5.5-0.5,8.2-0.5
						C39.8,27.2,39.8,29.6,39.8,32z"/>
					<path fill="#F3F3F3" d="M48,33c-2.7-0.7-5.5-1-8.2-1c0-2.4,0-4.8,0-7.2c2.7,0,5.5,0.3,8.2,1C48,28.2,48,30.6,48,33z"/>
				</g>
			</g>
		</g>
		<path fill="#FFD15D" d="M3.4,0C1.5,0,0,1.5,0,3.4V48h6.8V3.4C6.8,1.5,5.3,0,3.4,0z"/>
	</g>
</g>
</svg>
