<?xml version="1.0" encoding="utf-8"?>
<!-- Generator: Adobe Illustrator 18.0.0, SVG Export Plug-In . SVG Version: 6.00 Build 0)  -->
<!DOCTYPE svg PUBLIC "-//W3C//DTD SVG 1.1//EN" "http://www.w3.org/Graphics/SVG/1.1/DTD/svg11.dtd">
<svg version="1.1" id="Layer_1" xmlns="http://www.w3.org/2000/svg" xmlns:xlink="http://www.w3.org/1999/xlink" x="0px" y="0px"
	 viewBox="0 0 48 48" enable-background="new 0 0 48 48" xml:space="preserve">
<g>
	<g>
		<rect x="7.8" y="4.1" fill="#F05540" width="5.5" height="10.4"/>
		<g>
			<rect x="4.5" y="20.2" fill="#FFD15C" width="39.1" height="27.8"/>
		</g>
		<g>
			<rect x="4.5" y="20.2" fill="#F7B64C" width="39.1" height="3.1"/>
		</g>
		<g>
			<g>
				<g>
					<g>
						<polygon fill="#55C0EB" points="17.2,26 30.8,26 30.8,39.7 17.2,39.7 						"/>
						<path fill="#E8EAE9" d="M31.2,40.1H16.8V25.6h14.4L31.2,40.1z M17.6,39.3h12.7l0-12.9H17.6V39.3z"/>
					</g>
				</g>
				<g>
					<g>
						<g>
							<line fill="#55C0EB" x1="17.2" y1="32.9" x2="30.8" y2="32.9"/>
							<rect x="17.2" y="32.4" fill="#E8EAE9" width="13.6" height="0.8"/>
						</g>
					</g>
					<g>
						<g>
							<line fill="#55C0EB" x1="24" y1="26" x2="24" y2="39.7"/>
							<rect x="23.6" y="26" fill="#E8EAE9" width="0.8" height="13.7"/>
						</g>
					</g>
				</g>
			</g>
			<g>
				<rect x="16.1" y="39.3" fill="#415A6B" width="15.7" height="1.7"/>
			</g>
			<g>
				<rect x="18.1" y="41" fill="#344A5E" width="11.8" height="1.7"/>
			</g>
		</g>
		<g>
			<polygon fill="#F3705A" points="48,20.2 0,20.2 24,0 			"/>
		</g>
		<rect x="6.3" y="0.9" fill="#F3705A" width="8.5" height="4.6"/>
	</g>
</g>
</svg>
