<?xml version="1.0" encoding="utf-8"?>
<!-- Generator: Adobe Illustrator 16.0.0, SVG Export Plug-In . SVG Version: 6.00 Build 0)  -->
<!DOCTYPE svg PUBLIC "-//W3C//DTD SVG 1.1//EN" "http://www.w3.org/Graphics/SVG/1.1/DTD/svg11.dtd">
<svg version="1.1" id="Layer_1" xmlns="http://www.w3.org/2000/svg" xmlns:xlink="http://www.w3.org/1999/xlink" x="0px" y="0px"
	 width="48px" height="48px" viewBox="0 0 48 48" enable-background="new 0 0 48 48" xml:space="preserve">
<g>
	<path fill="#40596B" d="M43.354,13.385h-8.678v-5.43h-2v9.627h-22V7.844h-2v10.738c0,0.553,0.448,1,1,1h7.867v12.563H8.077v2
		h10.467c0.553,0,1-0.447,1-1V19.582h3.071v18.477h2V26.369h8.062v16.986c0,0.551,0.448,1,1,1h6.398v-2h-5.398V25.369
		c0-0.553-0.447-1-1-1h-9.062v-4.787h9.062c0.553,0,1-0.447,1-1v-3.197h7.678v10.299h2V14.385
		C44.354,13.83,43.906,13.385,43.354,13.385"/>
	<path fill="#F2F2F2" d="M14.323,4.646c0,2.566-2.08,4.646-4.646,4.646s-4.646-2.08-4.646-4.646S7.11,0,9.677,0
		S14.323,2.08,14.323,4.646"/>
	<path fill="#FFD15C" d="M12.121,4.646c0,1.35-1.094,2.443-2.444,2.443c-1.35,0-2.443-1.094-2.443-2.443s1.094-2.443,2.443-2.443
		C11.027,2.203,12.121,3.297,12.121,4.646"/>
	<path fill="#F2F2F2" d="M38.323,4.646c0,2.566-2.08,4.646-4.646,4.646s-4.646-2.08-4.646-4.646S31.11,0,33.677,0
		S38.323,2.08,38.323,4.646"/>
	<path fill="#FF7058" d="M36.121,4.646c0,1.35-1.094,2.443-2.444,2.443c-1.35,0-2.443-1.094-2.443-2.443s1.094-2.443,2.443-2.443
		C35.027,2.203,36.121,3.297,36.121,4.646"/>
	<path fill="#F2F2F2" d="M48,43.354C48,45.92,45.92,48,43.354,48c-2.566,0-4.646-2.08-4.646-4.646c0-2.564,2.08-4.645,4.646-4.645
		C45.92,38.709,48,40.789,48,43.354"/>
	<path fill="#FF7058" d="M45.798,43.354c0,1.352-1.094,2.445-2.443,2.445s-2.444-1.094-2.444-2.445c0-1.35,1.095-2.443,2.444-2.443
		S45.798,42.004,45.798,43.354"/>
	<path fill="#F2F2F2" d="M48,29.123c0,2.564-2.08,4.645-4.646,4.645c-2.566,0-4.646-2.08-4.646-4.645
		c0-2.566,2.08-4.646,4.646-4.646C45.92,24.477,48,26.557,48,29.123"/>
	<path fill="#84DBFF" d="M45.798,29.123c0,1.35-1.094,2.443-2.443,2.443s-2.444-1.094-2.444-2.443s1.095-2.445,2.444-2.445
		S45.798,27.773,45.798,29.123"/>
	<path fill="#F2F2F2" d="M28.261,41.059c0,2.566-2.08,4.646-4.646,4.646s-4.646-2.08-4.646-4.646s2.08-4.646,4.646-4.646
		S28.261,38.492,28.261,41.059"/>
	<path fill="#FFD15C" d="M26.06,41.059c0,1.35-1.094,2.443-2.444,2.443s-2.444-1.094-2.444-2.443s1.094-2.443,2.444-2.443
		S26.06,39.709,26.06,41.059"/>
	<path fill="#F2F2F2" d="M9.292,33.145c0,2.566-2.08,4.646-4.646,4.646C2.08,37.791,0,35.711,0,33.145s2.08-4.646,4.646-4.646
		C7.212,28.498,9.292,30.578,9.292,33.145"/>
	<path fill="#3DC9AE" d="M7.091,33.145c0,1.35-1.095,2.443-2.445,2.443c-1.35,0-2.443-1.094-2.443-2.443s1.094-2.445,2.443-2.445
		C5.996,30.699,7.091,31.795,7.091,33.145"/>
</g>
</svg>
