<?xml version="1.0" encoding="utf-8"?>
<!-- Generator: Adobe Illustrator 20.1.0, SVG Export Plug-In . SVG Version: 6.00 Build 0)  -->
<!DOCTYPE svg PUBLIC "-//W3C//DTD SVG 1.1//EN" "http://www.w3.org/Graphics/SVG/1.1/DTD/svg11.dtd">
<svg version="1.1" id="Layer_1" xmlns="http://www.w3.org/2000/svg" xmlns:xlink="http://www.w3.org/1999/xlink" x="0px" y="0px"
	 viewBox="0 0 49 49" enable-background="new 0 0 49 49" xml:space="preserve">
<g>
	<path fill="#FF7058" d="M46.5,0.5h-44c-1.1,0-2,0.9-2,2v44c0,1.1,0.9,2,2,2h44c1.1,0,2-0.9,2-2v-44C48.5,1.4,47.6,0.5,46.5,0.5z"/>
	<rect x="9" y="9" transform="matrix(-1.836970e-16 1 -1 -1.836970e-16 54.0002 4.9994)" fill="#FFFFFF" width="31" height="41"/>
	<circle fill="#84DBFF" cx="42.3" cy="7.2" r="2.2"/>
	<circle fill="#FFD15C" cx="34.8" cy="7.2" r="2.2"/>
	<circle fill="#F2F2F2" cx="27.4" cy="7.2" r="2.2"/>
	<path fill="#84DBFF" d="M14.5,32.7c0,2.1,0.6,4.1,1.8,5.7l-3.8,2.6c-1.6-2.4-2.6-5.2-2.6-8.3c0-3.1,1-5.9,2.6-8.3l3.8,2.6
		C15.2,28.6,14.5,30.5,14.5,32.7z"/>
	<path fill="#F2F2F2" d="M36.5,24.4L32.7,27c-1.8-2.6-4.8-4.3-8.2-4.3c-3.4,0-6.4,1.7-8.2,4.3l-3.8-2.6c2.6-3.8,7-6.3,12-6.3
		C29.5,18,33.9,20.5,36.5,24.4z"/>
	<path fill="#FFD15C" d="M39.1,32.7c0,3.1-1,5.9-2.6,8.3l-3.8-2.6c1.1-1.6,1.8-3.6,1.8-5.7c0-2.1-0.7-4.1-1.8-5.7l3.8-2.6
		C38.1,26.7,39.1,29.6,39.1,32.7z"/>
	<rect x="23.8" y="19.3" fill="#FF7058" width="1.4" height="2.2"/>
	
		<rect x="19.2" y="20.3" transform="matrix(0.9239 -0.3827 0.3827 0.9239 -6.6551 9.2434)" fill="#FF7058" width="1.4" height="2.2"/>
	
		<rect x="15.3" y="22.9" transform="matrix(0.7071 -0.7071 0.7071 0.7071 -12.2468 18.3387)" fill="#FF7058" width="1.4" height="2.2"/>
	
		<rect x="12.7" y="26.8" transform="matrix(0.3827 -0.9239 0.9239 0.3827 -17.4479 29.5809)" fill="#FF7058" width="1.4" height="2.2"/>
	
		<rect x="34.9" y="35.9" transform="matrix(0.3827 -0.9239 0.9239 0.3827 -12.2441 55.7421)" fill="#FF7058" width="1.4" height="2.2"/>
	<rect x="11.4" y="31.7" fill="#FF7058" width="2.2" height="1.4"/>
	<rect x="35.4" y="31.7" fill="#FF7058" width="2.2" height="1.4"/>
	
		<rect x="12.3" y="36.3" transform="matrix(0.9239 -0.3827 0.3827 0.9239 -13.1511 7.9512)" fill="#FF7058" width="2.2" height="1.4"/>
	
		<rect x="34.5" y="27.1" transform="matrix(0.9239 -0.3827 0.3827 0.9239 -7.9472 15.7394)" fill="#FF7058" width="2.2" height="1.4"/>
	
		<rect x="31.9" y="23.2" transform="matrix(0.7071 -0.7071 0.7071 0.7071 -7.2749 30.3419)" fill="#FF7058" width="2.2" height="1.4"/>
	
		<rect x="28" y="20.6" transform="matrix(0.3827 -0.9239 0.9239 0.3827 -1.7648 40.0599)" fill="#FF7058" width="2.2" height="1.4"/>
	<path fill="#ACB3BA" d="M23.7,32.2c-0.6,0.2-1.1,0.7-1.4,1.3c-0.3,0.6-0.3,1.3,0,1.9c0.1,0.3,0.3,0.6,0.5,0.8
		c0.2,0.2,0.5,0.4,0.8,0.5c0.6,0.3,1.3,0.3,1.9,0c0.6-0.2,1.1-0.7,1.4-1.3c0.3-0.6,0.3-1.3,0-1.9c-0.3-0.7-0.9-1.2-1.6-1.5l0-0.9
		c0-1.4-0.2-2.7-0.7-4L24.6,27l0,0c-0.5,1.5-0.8,3-0.8,4.6l0,0.6C23.8,32.2,23.8,32.2,23.7,32.2L23.7,32.2z M24.3,33.6
		c0.4-0.2,0.8,0,1.1,0.2c0.1,0.1,0.2,0.2,0.2,0.3c0.1,0.2,0.1,0.5,0,0.8c-0.1,0.2-0.3,0.4-0.5,0.5c-0.2,0.1-0.5,0.1-0.8,0
		c-0.2-0.1-0.4-0.3-0.5-0.5c-0.1-0.2-0.1-0.5,0-0.8C23.8,33.9,24,33.7,24.3,33.6z"/>
</g>
</svg>
