<?xml version="1.0" encoding="utf-8"?>
<!-- Generator: Adobe Illustrator 18.0.0, SVG Export Plug-In . SVG Version: 6.00 Build 0)  -->
<!DOCTYPE svg PUBLIC "-//W3C//DTD SVG 1.1//EN" "http://www.w3.org/Graphics/SVG/1.1/DTD/svg11.dtd">
<svg version="1.1" id="Layer_1" xmlns="http://www.w3.org/2000/svg" xmlns:xlink="http://www.w3.org/1999/xlink" x="0px" y="0px"
	 viewBox="0 0 48 48" enable-background="new 0 0 48 48" xml:space="preserve">
<g>
	<g>
		<g>
			<g>
				<path fill="#FFD15C" d="M38,35.2C38,35.2,38,35.2,38,35.2c-1,0.1-2-0.2-2.6-0.9c-1-1.1-2.5-1.8-4.1-1.8L28,32.4
					c-1.2,0-2.4,0.2-3.5,0.8L19.2,36c-2.1-0.2-6.1,1-6.1,1c-0.9-0.1-1.7-0.8-2.6-0.9c-1-0.6-3.6-2.4-3.6-2.4c0,0-0.4-0.4-2.5-2.2
					C1.9,29.2,0,31.7,0,31.6c0.6,0.5,1.2,1.1,1.8,1.6c2.7,2,6.3,5.4,8.3,7c0.8,0.6,1.7,1.2,2.5,1.7c1,0.7,1.9,1.4,2.4,1.9
					c3,3.1,3.3,3.1,7,2.4c0.5-0.2,2.9-0.5,3.4-0.6c0,0,0,0,0,0c3.2-0.2,8.8-1.1,8.8-1.1c0.5,0,2-0.3,3.7-0.6V35.2z"/>
			</g>
			<g>
				<path fill="#F7B64C" d="M24.3,40.2c-0.4,0-0.8-0.1-1.2-0.1c-0.4,0-0.8,0-1.2,0c-0.4,0.1-0.8,0.1-1.2,0.2
					c-0.4,0.1-0.8,0.1-1.2,0.2c-0.8,0.1-1.6,0.2-2.4,0.3c-0.4,0-0.8,0.1-1.2,0.1c-0.4,0-0.8,0-1.2,0c-0.4,0-0.8,0-1.2-0.1
					c-0.1,0-0.2,0-0.3-0.1c-0.1,0-0.2-0.1-0.3-0.1c-0.2-0.1-0.4-0.1-0.6-0.3c0,0-0.1-0.1-0.1-0.1c0,0-0.1-0.1-0.1-0.1
					c-0.1-0.1-0.1-0.2-0.2-0.3c-0.1-0.1-0.1-0.2-0.2-0.3c-0.1-0.1-0.1-0.2-0.1-0.3c-0.2-0.4-0.2-0.8-0.1-1.1
					c0.1-0.3,0.4-0.6,0.7-0.9c0.3-0.2,0.7-0.4,1.1-0.5c0,0,0,0,0,0c0,0,0,0,0,0c0,0,0.1-0.1,0.1-0.1c-0.1,0-0.2,0-0.2,0
					c0,0-0.1,0-0.1,0c-0.4,0.1-0.7,0.3-1,0.5c-0.3,0.2-0.6,0.5-0.7,0.9c-0.1,0.4-0.1,0.8,0.1,1.2c0.1,0.1,0.1,0.2,0.2,0.3
					c0.1,0.1,0.1,0.2,0.2,0.3c0.1,0.1,0.1,0.2,0.2,0.3c0,0.1,0.1,0.1,0.1,0.1c0,0,0.1,0.1,0.1,0.1c0.2,0.1,0.4,0.2,0.6,0.3
					c0.1,0,0.2,0.1,0.3,0.1c0.1,0,0.2,0.1,0.3,0.1c0.4,0.1,0.8,0.1,1.3,0.1c0.8,0,1.6,0,2.4-0.1c0.8-0.1,1.6-0.2,2.4-0.3
					c0.4-0.1,0.8-0.1,1.2-0.2c0.4-0.1,0.8-0.2,1.2-0.2c0.4-0.1,0.8-0.1,1.2-0.1c0.4,0,0.8,0,1.2,0c0.8,0,1.6,0.1,2.4,0.2
					C26,40.4,25.2,40.3,24.3,40.2z"/>
			</g>
			<g>
				<path fill="#F3F3F3" d="M13.3,37.8c0,0,0.8-0.4,1.3,0.3c0.4,0.7,0.6,1.3,0.6,1.3c0,0,0.3,0.7-0.5,0.8c-0.8,0.1-2.2,0.3-2.2,0.3
					c0,0-0.9,0.1-1.2-0.5c-0.3-0.6-0.8-1.6,0.3-1.9C12.6,37.9,13.3,37.8,13.3,37.8z"/>
			</g>
		</g>
		<g>
			<g>
				<rect x="36.5" y="33.5" fill="#F3F3F3" width="2.8" height="12.3"/>
			</g>
			<g>
				<rect x="39.4" y="31.4" fill="#415A6B" width="8.6" height="16.6"/>
			</g>
		</g>
		<g>
			<circle fill="#344A5E" cx="42.6" cy="44.7" r="1.4"/>
		</g>
	</g>
	<g>
		<g>
			<g>
				<circle fill="#8AD7F8" cx="16.4" cy="16.4" r="15.7"/>
				<path fill="#415A6B" d="M16.4,32.9C7.4,32.9,0,25.5,0,16.4C0,7.4,7.4,0,16.4,0c9.1,0,16.4,7.4,16.4,16.4
					C32.9,25.5,25.5,32.9,16.4,32.9z M16.4,1.5C8.2,1.5,1.5,8.2,1.5,16.4c0,8.2,6.7,14.9,14.9,14.9c8.2,0,14.9-6.7,14.9-14.9
					C31.4,8.2,24.7,1.5,16.4,1.5z"/>
			</g>
		</g>
		<g>
			<g>
				<ellipse fill="#8AD7F8" cx="16.4" cy="16.4" rx="8.4" ry="15.7"/>
				<path fill="#415A6B" d="M16.4,32.9c-5.1,0-9.1-7.2-9.1-16.4c0-9.2,4-16.4,9.1-16.4c5.1,0,9.1,7.2,9.1,16.4
					C25.6,25.6,21.5,32.9,16.4,32.9z M16.4,1.5c-4.1,0-7.6,6.8-7.6,14.9c0,8.1,3.5,14.9,7.6,14.9c4.1,0,7.6-6.8,7.6-14.9
					C24.1,8.3,20.6,1.5,16.4,1.5z"/>
			</g>
		</g>
		<g>
			<g>
				<line fill="#8AD7F8" x1="32.1" y1="16.4" x2="0.8" y2="16.4"/>
				<rect x="0.8" y="15.7" fill="#415A6B" width="31.4" height="1.5"/>
			</g>
		</g>
		<g>
			<g>
				<line fill="#8AD7F8" x1="16.4" y1="32.1" x2="16.4" y2="0.7"/>
				<rect x="15.7" y="0.7" fill="#415A6B" width="1.5" height="31.4"/>
			</g>
		</g>
		<g>
			<g>
				<g>
					<line fill="#8AD7F8" x1="3.3" y1="24.9" x2="29.6" y2="24.9"/>
					<rect x="3.3" y="24.2" fill="#415A6B" width="26.3" height="1.5"/>
				</g>
			</g>
			<g>
				<g>
					<line fill="#8AD7F8" x1="3.3" y1="8" x2="29.6" y2="8"/>
					<rect x="3.3" y="7.2" fill="#415A6B" width="26.3" height="1.5"/>
				</g>
			</g>
		</g>
	</g>
</g>
</svg>
