<?xml version="1.0" encoding="utf-8"?>
<!-- Generator: Adobe Illustrator 18.0.0, SVG Export Plug-In . SVG Version: 6.00 Build 0)  -->
<!DOCTYPE svg PUBLIC "-//W3C//DTD SVG 1.1//EN" "http://www.w3.org/Graphics/SVG/1.1/DTD/svg11.dtd">
<svg version="1.1" id="Layer_1" xmlns="http://www.w3.org/2000/svg" xmlns:xlink="http://www.w3.org/1999/xlink" x="0px" y="0px"
	 viewBox="0 0 48 48" enable-background="new 0 0 48 48" xml:space="preserve">
<g>
	<polygon fill="#FFD15C" points="16.2,4 15.9,2.2 15.7,4.1 13.8,4.3 15.6,4.6 15.9,6.6 16.2,4.6 18.1,4.3 	"/>
	<polygon fill="#FFD15C" points="32.9,8.7 32.6,6.8 32.4,8.7 30.5,8.9 32.3,9.2 32.6,11.2 32.9,9.2 34.8,8.9 	"/>
	<path fill="#F2F2F2" d="M16.3,9c-2-0.3-3.5-1.9-3.8-3.8l0-0.1l0,0.1c-0.3,2-1.9,3.5-3.8,3.8l0,0c2,0.3,3.5,1.9,3.8,3.8l0,0.1l0-0.1
		C12.8,10.9,14.4,9.4,16.3,9l0.2,0L16.3,9z"/>
	<path fill="#FF7058" d="M32.5,3.4c-1.7-0.3-3-1.6-3.3-3.3l0-0.1l0,0.1c-0.3,1.7-1.6,3-3.3,3.3l0,0c1.7,0.3,3,1.6,3.3,3.3l0,0.1
		l0-0.1C29.4,5,30.8,3.7,32.5,3.4l0.2,0L32.5,3.4z"/>
	<path fill="#CDD6E0" d="M10.6,4.2c-1-0.2-1.8-0.9-1.9-1.9l0-0.1l0,0.1c-0.2,1-0.9,1.8-1.9,1.9l0,0c1,0.2,1.8,0.9,1.9,1.9l0,0.1l0,0
		C8.8,5.2,9.6,4.4,10.6,4.2l0.1,0L10.6,4.2z"/>
	<g>
		<path fill="#334A5E" d="M33.5,42.2c-5.6,7.7-22.2,7.7-27.8,0c-2.5-3.5,0-11.5,0-17.2c9.3,0,18.5,0,27.8,0
			C33.5,30.8,36,38.8,33.5,42.2z"/>
		<path fill="#FF7058" d="M5.1,31.4c4.5,1.4,9.8,1.9,14.7,1.9c4.8,0,9.9-0.5,14.3-1.8c-0.3-2.3-0.6-4.5-0.6-6.5
			c-9.3,0-18.5,0-27.8,0C5.7,27,5.4,29.2,5.1,31.4z"/>
		<path fill="#334A5E" d="M39.4,20.4H0.2H0v1c0,3.8,8.9,7,19.8,7c10.9,0,19.8-3.1,19.8-7v-1H39.4z"/>
		<ellipse fill="#40596B" cx="19.8" cy="20.4" rx="19.8" ry="7"/>
		<ellipse fill="#334A5E" cx="19.8" cy="20.4" rx="11.6" ry="3.6"/>
	</g>
	<g>
		<path fill="#FFD15C" d="M47.5,30.2L47.5,30.2c-0.6,0.6-1.7,0.6-2.3,0L17.8,2.8c-0.6-0.6-0.6-1.7,0-2.3l0,0c0.6-0.6,1.7-0.6,2.3,0
			l27.4,27.4C48.2,28.5,48.2,29.6,47.5,30.2z"/>
		<path fill="#40596B" d="M27.4,7.8l-2.3,2.3l-7.3-7.3c-0.6-0.6-0.6-1.7,0-2.3l0,0c0.6-0.6,1.7-0.6,2.3,0L27.4,7.8z"/>
		
			<rect x="24.9" y="8.8" transform="matrix(0.7071 -0.7071 0.7071 0.7071 1.2297 21.501)" fill="#F2F2F2" width="3.3" height="0.9"/>
	</g>
</g>
</svg>
