<?xml version="1.0" encoding="utf-8"?>
<!-- Generator: Adobe Illustrator 18.0.0, SVG Export Plug-In . SVG Version: 6.00 Build 0)  -->
<!DOCTYPE svg PUBLIC "-//W3C//DTD SVG 1.1//EN" "http://www.w3.org/Graphics/SVG/1.1/DTD/svg11.dtd">
<svg version="1.1" id="Layer_1" xmlns="http://www.w3.org/2000/svg" xmlns:xlink="http://www.w3.org/1999/xlink" x="0px" y="0px"
	 viewBox="0 0 48 48" enable-background="new 0 0 48 48" xml:space="preserve">
<g>
	<g>
		<g>
			<g>
				<g>
					<g>
						<path fill="#FFD15C" d="M23.9,45.8l0.2-0.1c0,0,0.3-0.2,0.7-0.7c0.4-0.5,0.6-0.6,0.6-0.6l1.2,1.3l0,0.7c0,0-0.4,0.8-1,0.7
							C25,47,23.8,46.3,23.9,45.8z"/>
					</g>
				</g>
			</g>
			<g>
				<g>
					<g>
						<path fill="#F05640" d="M22.7,46.4c0,0,0.4-0.4,1-0.5l0.3,0.2c0,0-0.7,1-1,0.8C22.7,46.6,22.7,46.4,22.7,46.4z"/>
					</g>
				</g>
			</g>
			<g>
				<g>
					<g>
						<g>
							<path fill="#FFD15C" d="M23.6,45.9c0,0-0.2,0-0.2,0.1l-0.4,0c0,0-0.1,0.3,0.1,0.4c0,0-0.2,0.3,0.1,0.4l0.6-0.2L24,46
								C24,46,23.7,45.8,23.6,45.9"/>
						</g>
					</g>
				</g>
				<g>
					<g>
						<g>
							<path fill="#FFFFFF" d="M23.3,45.9c0,0.1,0,0.1,0,0.2c0,0,0,0,0,0c0,0,0,0,0,0c0,0-0.1,0-0.1,0c0,0,0,0-0.1,0c0,0,0,0,0-0.1
								c0,0,0-0.1,0-0.1L23.3,45.9C23.3,45.9,23.3,45.9,23.3,45.9C23.3,45.9,23.3,45.9,23.3,45.9z"/>
						</g>
					</g>
				</g>
				<g>
					<g>
						<g>
							<path fill="#FFFFFF" d="M23.1,46.4c0,0,0,0.1,0,0.1c0,0,0,0,0,0c0,0,0,0,0,0c0,0,0.1,0,0.1,0c0,0,0,0,0,0c0,0,0,0,0,0
								c0,0,0,0,0,0c0,0,0,0,0,0C23.2,46.4,23.1,46.4,23.1,46.4"/>
						</g>
					</g>
				</g>
			</g>
			<g>
				<g>
					<g>
						<path fill="#E8EAE8" d="M28.6,45.7c-0.2,0.3-0.7,1.9-0.7,1.9l-0.4,0.1l0.2-1.8l-0.9,0.6c0,0-0.5,0.7-0.6,1
							C25.9,47.6,25.7,48,25,48c-0.8,0-1.9-0.6-2.1-0.9c-0.2-0.3-0.2-0.7-0.2-0.7c0,0,0,0.2,0.3,0.4c0.1,0.1,0.2,0,0.4-0.1l0.4,0.2
							l1.6-0.1c0.5,0.3,1.2,0,1.6-0.8l2-1.3C29,45,28.8,45.3,28.6,45.7z"/>
					</g>
				</g>
			</g>
			<g>
				<g>
					<g>
						<path fill="#F26F5A" d="M23.3,45.9c0,0,0.4,0.1,0.5,0.2c0,0-0.5,0.4-0.7,0.7c0,0-0.3,0-0.5-0.3c0,0,0,0.5,0.7,0.8
							c0.7,0.3,1.6,0.5,2.2,0.2c0.3-0.1,0.6-0.4,0.9-0.7c0.2-0.3,0.5-0.5,0.9-0.7c0.5-0.3,1.1-0.6,1.3-0.7c0.3-0.1,0.7-0.7,0.2-0.9
							c-0.6-0.2-2.1,1.8-2.2,1.8c0,0.1-0.2,0.6-1,0.5c-0.7-0.1-1.2-0.5-1.3-0.7c-0.1-0.2-0.1-0.5-0.1-0.5L23.3,45.9z"/>
					</g>
				</g>
			</g>
			<g>
				<g>
					<g>
						<path fill="#FFD15C" d="M17,43.8l0.5-0.3l0.5-0.9l2.1-0.2l-1.3,2.1C18.9,44.5,16.6,44.9,17,43.8z"/>
					</g>
				</g>
			</g>
			<g>
				<g>
					<g>
						<path fill="#F26F5A" d="M17.5,43.5c0,0-0.2,0.3-0.3,0.4c0,0,0.4,0.3,0.9,0.3c0.5,0,0.7-0.1,0.8-0.4c0,0,0,0,0,0
							c0.2-0.5,0.6-0.8,1-1.1l1.4-1c0,0,0.3,0.1,0.3,0.3c0,0.2-0.2,0.7-0.2,0.7c0,0.1-0.5,1.4-0.6,2c0,0-0.1,0.1-0.4,0v-2
							c0,0-0.7,0.5-0.9,0.8c-0.2,0.3-0.2,0.3-0.3,0.5c-0.1,0.2-0.2,0.8-0.6,1.1c-0.4,0.3-1.4,0.7-2.6,0.1c0,0-0.3-0.3-0.3-0.6
							c0,0,0.6-0.6,0.8-0.7C16.8,43.8,17.4,43.5,17.5,43.5z"/>
					</g>
				</g>
			</g>
			<g>
				<g>
					<g>
						<g>
							<path fill="#344A5E" d="M17,44.2c0,0-0.5,0.5-0.6,0.9c0,0-0.4-0.1-0.6-0.3c0.1-0.1,0.4-0.4,0.6-0.6
								C16.6,44.1,16.8,44.1,17,44.2z"/>
						</g>
					</g>
				</g>
				<g>
					<g>
						<g>
							<path fill="#344A5E" d="M21.7,42c-0.2,0.3-1.1,0.7-1.1,0.7c-0.2,0-0.3,0-0.4-0.1l1.1-0.8C21.4,41.8,21.7,41.8,21.7,42z"/>
						</g>
					</g>
				</g>
			</g>
			<g>
				<g>
					<g>
						<path fill="#425A6B" d="M22.6,24.3l0.1-0.6l-3.1,4.4l-2,2.8c0,0-1,1.3-0.6,2.6c0.4,1.3,1.2,6.5,1.2,7.1c0,0.5-0.3,2.1-0.5,2.3
							c-0.1,0.2,0.9,0.8,1.9,0.6c0.9-0.3,1.9-1.3,1.9-1.7c0,0-0.3-1-0.4-2c-0.1-0.9-0.2-3-0.2-3.7c0-0.8-0.7-2.6-0.7-2.6
							s2.2-2.2,2.9-2.8c0.6-0.5,2.5-2.2,2.9-2.9L22.6,24.3z"/>
					</g>
				</g>
			</g>
			<g>
				<g>
					<g>
						<path fill="#FFD15C" d="M21.5,21.3c0,0,0.6,1.3,0.6,1.6c0,0.1,0,0.3,0.1,0.4c0.3,0.2,0.4,0.2,0.6,0.4l6.8-2.1c0,0-0.3-0.5-1-1
							c-0.7-0.5-1-1-1-1L21.5,21.3z"/>
					</g>
				</g>
			</g>
			<g>
				<g>
					<g>
						<path fill="#425A6B" d="M26.2,7.5c0,0-1.4-0.9-0.7-2.9s1.7-2.1,1.7-2.1S27.4,6.7,26.2,7.5z"/>
					</g>
				</g>
			</g>
			<g>
				<g>
					<g>
						<path fill="#425A6B" d="M30,3.3c0,0,1.6,2.2,0.1,3.7c-1.4,1.5-2.5,1-2.5,1C29.3,6.6,30.2,5.1,30,3.3z"/>
					</g>
				</g>
			</g>
			<g>
				<g>
					<g>
						<g>
							<path fill="#FFD15C" d="M28.9,8.7c0,0,1.2,0.8,1.6,1.2c0.4,0.4,1.1,1.3,1,2.4c-0.1,1.1,0.1,3.2,0.1,3.2s0.1,0.7-0.1,1.4
								c-0.2,0.7-1.1,3.5-1.1,4c-0.1,0.5-0.1,0.7-0.1,0.7l-1.3-0.8c0,0,0.1-0.9,0.2-1.9c0.2-1,0.6-3.2,0.3-3.9
								c-0.2-0.7-0.7-1.7-0.7-1.7l-0.5,0.5c-1,0.1-1.6-0.4-1.9-1.3c-0.2-0.8,0-1.7,0.5-2.4C27.4,9.6,27.7,8.7,28.9,8.7z"/>
						</g>
					</g>
				</g>
				<g>
					<g>
						<path fill="#FFD15C" d="M30.3,3.4c0,0,0.3,0.7,0.1,1.4c0,0-0.3,0.3-0.3,0.6c-0.1,0.3-0.2,0.6-0.5,1c-0.3,0.4-0.7,0.8-0.8,1
							c-0.1,0.1-0.4,0.4-0.5,0.5C28.2,8,28.2,8,28.2,8l0.6,0.8c0,0-1.1,0.6-1.7,1.4c-0.6,0.8-1,1.2-1.2,1.2
							c-0.1,0.1-3.3,0.2-3.3,0.2s-1.6-0.9-1-2.2c0.7-1.3,1-1.6,1-1.6l2.3-0.7c0,0,1.2-0.1,1.2-0.8c0-0.7,0.1-2.5,1.8-3.6
							S30.3,3.4,30.3,3.4z"/>
					</g>
				</g>
				<g>
					<g>
						<g>
							<path fill="#FFD15C" d="M27.4,3C27.4,3,27.4,3,27.4,3c0.1,0,0.5,0.1,0.6,0.5c0,0-0.3,0.1-0.4,0.2c-0.2,0.1-0.6,0.4-0.8,0.6
								c-0.1,0.2-0.6,0.6-1.1,0.8c-0.5,0.1-0.9,0.2-1.1,0.3c-0.2,0.1-1.7,1.1-1.9,1.3c-0.2,0.2-1,0.8-1,0.8l1.8-0.4l-1,0.7l-1.4,2.6
								l-0.4,0.3c0.1-0.3,0.1-0.6,0-0.8c-0.1-0.1-0.4-0.1-0.7-0.1c0,0-1.8,0.2-2.4-0.8c0,0-0.4-0.4-0.3-0.9c0.1-0.5,0.3-0.9,0.7-1.2
								c0.4-0.3,1.8-1.1,2.8-1.5s2.2-0.7,2.4-0.9c0.2-0.2,0.5-0.3,0.7-0.3c0.1,0,0.4-0.2,0.5-0.3c0.1-0.1,1-1.6,1-1.6S25.6,2,25.8,2
								l0.6-0.5c0,0,0.1-0.1,0.2,0c0,0,0.1-0.2,0.3-0.1c0.2,0.1,0.6,0.7,0.6,0.7s0.6,0.5,0.7,0.6C28.3,3,28,3,27.8,2.9
								c-0.2-0.1-0.2-0.1-0.2-0.1C27.5,2.8,27.5,2.9,27.4,3z"/>
						</g>
					</g>
				</g>
				<g>
					<g>
						<g>
							<path fill="#E8EAE8" d="M26.8,10.5c-0.9,1.6,1.4,3.3,1.4,3.3s-1.3,1.6-1.4,2.5c-0.2,0.9,0.5,3,1.6,4.1c0,0-0.2,0.1-1.9,0.5
								c-1.6,0.3-2,0.8-3.5,0.8c-1.5,0-2,0.2-2,0.2s-0.4-2.5-0.6-3.6c-0.2-1.1-0.1-3.1-0.1-3.1s0-0.7-0.5-1.7
								c-0.5-0.9,0.1-1.9,0.6-2.5c0.2-0.2,0.3-0.3,0.4-0.5c0.2-0.3,0.4-0.7,0.4-0.7c0,0,1.6-2.5,1.6-2.5l0.4-0.1
								c0,0-1.4,1.8-1.6,2.4c-0.2,0.6-0.1,1,0.2,1.3c0.3,0.3,1.2,0.6,2.6,0.4c1.4-0.2,2-1,2-1s1.2-1.3,2.5-1.4
								c0.2,0.1,0.3,0.2,0.4,0.3C29,9.2,27.6,9.2,26.8,10.5z"/>
						</g>
					</g>
				</g>
			</g>
			<g>
				<g>
					<g>
						<path fill="#F5B54C" d="M28.9,8.8L28.9,8.8L28,9.2c-1.1-0.6-1.7-1.5-2-2.7c0-0.1,0.1-0.1,0.1-0.2c0.3,0.5,1.3,1.8,2.1,1.6
							L28.9,8.8z"/>
					</g>
				</g>
			</g>
			<g>
				<g>
					<g>
						<path fill="#425A6B" d="M27.4,3.3c-0.6,0.3-1.1,0.9-1.3,1.5c-0.2,0.5,0,1.1,0,1.7c0,0.6-0.3,1.2-0.6,1.7
							c-0.2,0.3-0.5,0.5-0.8,0.7C24.5,8.9,24.3,9,24.2,9c-0.2,0.1-0.3,0.3-0.4,0.5c0-0.3,0.2-0.6,0.5-0.7c0,0-1,0.2-1.6,1.1
							c0,0-1.1-0.9,0.1-2.4C23.9,5.9,25,5,25.5,3.8C26,2.5,27.4,3.3,27.4,3.3z"/>
					</g>
				</g>
			</g>
			<g>
				<g>
					<g>
						<path fill="#425A6B" d="M30.3,4c0,0.8-0.1,1.6-0.4,2.4c-0.1,0.3-0.3,0.7-0.6,0.9c-0.4,0.3-1,0.3-1.4,0.5
							c-0.4,0.2-0.7,0.5-0.9,0.9c0.2-0.2,0.4-0.4,0.6-0.5c-0.2,0.2-0.4,0.5-0.4,0.8c-0.1,0.3-0.1,0.6,0,0.9c0,0.3,0.1,0.7,0.3,1
							c-0.1-0.3,0-0.6,0.2-0.8c0.2-0.2,0.4-0.4,0.6-0.6C28.5,9.2,28.8,9,29,8.7c0.4-0.3,0.7-0.7,1.1-1c0.1-0.1,0.3-0.3,0.4-0.4
							C31,6.8,31.2,6,31.2,5.3c0-0.1,0-0.3-0.1-0.4c-0.2-0.6-0.8-0.9-1.4-0.9"/>
					</g>
				</g>
			</g>
			<g>
				<g>
					<g>
						<path fill="#48B9A5" d="M25.5,3c0,0,0.2-1,0.5-1.4c0.3-0.4,0.3-1.5,1.3-1.6c0.9-0.1,2.8,0.3,3.1,0.7c0.3,0.4,0.5,2.9,0.5,3.3
							C30.9,4,26.5,2.9,25.5,3z"/>
					</g>
				</g>
			</g>
			<g>
				<g>
					<g>
						<path fill="#67C5B8" d="M24.1,2.9c0,0,1.3-0.3,1.9-0.3c0.6,0.1,1.7,0.3,3.2,0.6c1.5,0.4,2.5,0.5,2.7,0.6
							C32.1,4,32.3,4.2,32,4.5c-0.3,0.3-1,0.3-1,0.3s0.2-0.3-1-0.8c-1.2-0.4-2.3-0.7-3.5-0.4C25.4,4,24.4,3.6,24.1,2.9z"/>
					</g>
				</g>
			</g>
			<g>
				<g>
					<g>
						<path fill="#FFD15C" d="M27.1,7.6c0,0,0.6,0.5,1.1,0.5c0.1,0,0.2,0,0.2-0.1c0,0,0.1-0.1,0.1-0.1c0.1-0.2,0.2-0.4,0.4-0.5
							c0.1-0.1,0.2-0.2,0.2-0.3c0.1-0.2-0.3-0.5-0.3-0.5L27.1,7.6z"/>
					</g>
				</g>
			</g>
			<g>
				<g>
					<g>
						<path fill="#F5B54C" d="M22.1,7.2c-0.2,0.1-0.3,0.2-0.3,0.2l0,0c0,0-1.3,0.5-1.9,1C19.9,8.4,20.7,7.6,22.1,7.2z"/>
					</g>
				</g>
			</g>
			<g>
				<g>
					<g>
						<path fill="#425A6B" d="M22.2,23.3c0,0,0.9,0.2,1.9-0.1c1-0.3,5-1.9,5.1-2c0,0,2.2,1.9,1.1,5.9c0,0-0.6,2.3-0.6,3.2
							c0,0.9-0.5,2.5-0.5,2.5s-0.1,2,0.1,2.6c0.2,0.6-0.7,9.8-0.7,9.8s-0.9,1.5-1.8,1.3c-0.9-0.2-2.1-0.8-2-1.4c0,0,0.4-0.8,0.7-1.4
							c0.3-0.6,0.1-2.1,0.3-2.6c0.1-0.5,0.5-4.4,0.3-5.1c-0.2-0.7-0.6-1.6-0.6-2.2c0-0.4-0.3-2.4-0.5-3.9c-0.2-1.3-0.6-2.5-1.4-3.6
							l0,0C23.6,26.1,22.2,24.2,22.2,23.3z"/>
					</g>
				</g>
			</g>
			<g>
				<g>
					<g>
						<path fill="#344A5E" d="M24.9,29.1c0,0,0-0.1-0.1-0.2c0-0.1-0.1-0.2-0.1-0.3c0-0.1,0-0.1-0.1-0.2c0-0.1,0-0.1-0.1-0.2
							c0-0.1-0.1-0.3-0.2-0.4c0-0.1-0.1-0.1-0.1-0.2c0,0,0-0.1,0-0.1c0,0,0-0.1,0-0.1c-0.1-0.1-0.1-0.3-0.2-0.5
							c-0.1-0.2-0.2-0.3-0.2-0.5c-0.1-0.2-0.2-0.3-0.3-0.4c0,0,0-0.1-0.1-0.1c0,0,0-0.1-0.1-0.1c0-0.1-0.1-0.1-0.1-0.2
							c-0.1-0.1-0.2-0.3-0.2-0.4c-0.1-0.1-0.1-0.3-0.2-0.4c-0.1-0.1-0.1-0.2-0.2-0.3c0,0,0-0.1-0.1-0.1c0,0,0-0.1,0-0.1
							c0-0.1,0-0.1-0.1-0.2c0,0,0-0.1,0-0.1s0,0,0,0.1c0,0,0.1,0.1,0.1,0.2c0,0.1,0.1,0.1,0.1,0.2c0,0,0.1,0.1,0.1,0.1
							c0,0.1,0.1,0.1,0.1,0.2c0,0.1,0.1,0.1,0.1,0.2c0,0.1,0.1,0.1,0.1,0.2c0.1,0.1,0.2,0.3,0.3,0.4c0,0.1,0.1,0.1,0.1,0.2
							c0.1,0.1,0.1,0.1,0.2,0.2c0.1,0.1,0.2,0.3,0.3,0.5c0.1,0.2,0.2,0.3,0.2,0.5c0.1,0.2,0.1,0.3,0.2,0.5c0.1,0.2,0.1,0.3,0.2,0.4
							c0,0.1,0,0.1,0.1,0.2c0,0.1,0,0.1,0.1,0.2c0,0.1,0.1,0.2,0.1,0.4c0,0.1,0,0.2,0,0.3C24.8,29,24.8,29,24.9,29.1
							C24.8,29.1,24.9,29.1,24.9,29.1z"/>
					</g>
				</g>
			</g>
			<g>
				<g>
					<g>
						<path fill="#FFD15C" d="M17,44.2c0,0-0.5,0.5-0.6,0.8c-0.4-0.1-0.2-0.6-0.2-0.6c0-0.1,0.1-0.2,0.1-0.2
							c0.2-0.1,0.4-0.2,0.6-0.1C17,44.1,17,44.1,17,44.2z"/>
					</g>
				</g>
			</g>
			<g>
				<g>
					<g>
						<path fill="#FFFFFF" d="M16.5,44.2C16.4,44.2,16.4,44.2,16.5,44.2c-0.1,0-0.1,0-0.1,0c0,0,0,0,0,0.1
							C16.4,44.3,16.4,44.3,16.5,44.2C16.4,44.3,16.5,44.3,16.5,44.2C16.5,44.3,16.5,44.3,16.5,44.2C16.5,44.3,16.5,44.3,16.5,44.2z
							"/>
					</g>
				</g>
			</g>
			<g>
				<g>
					<g>
						<path fill="#FFFFFF" d="M16.3,44.4c0,0,0,0.1,0,0.1s0,0.1,0,0.1c0,0,0.1,0,0.1,0c0.1,0,0.2,0,0.2-0.1c0,0,0,0,0,0c0,0,0,0,0,0
							c0,0,0-0.1-0.1-0.1c0,0-0.1,0-0.1-0.1C16.4,44.4,16.4,44.4,16.3,44.4C16.3,44.4,16.3,44.4,16.3,44.4"/>
					</g>
				</g>
			</g>
		</g>
		<g>
			<g>
				<g>
					<g>
						<path fill="#344A5E" d="M29.7,21.7L29.7,21.7c-0.3,0.2-1.9,0.8-2.4,1c-0.7,0.3-2.3,0.9-2.9,1.1c-0.5,0.2-1,0.2-1.4,0.2
							c-0.2,0-0.4,0-0.5,0c-0.1-0.3-0.2-0.6-0.2-0.8v0c0,0,0.9,0.2,1.9-0.1c1-0.3,5-1.9,5.1-2C29.2,21.1,29.4,21.3,29.7,21.7z"/>
					</g>
				</g>
			</g>
		</g>
	</g>
	<g>
		<g>
			<g>
				<path fill="#F5B54C" d="M28.7,20.7c0.1,0.1,0.2,0.2,0.3,0.2c0,0,0.2,0.1,0.2,0.2c0,0,0.1-0.1,0.1-0.3c-0.1-0.2-0.3-0.3-0.3-0.3
					l-0.4,0l0,0C28.6,20.6,28.6,20.7,28.7,20.7z"/>
			</g>
		</g>
	</g>
	<g>
		<g>
			<g>
				<path fill="#F5B54C" d="M29.5,21.4c0,0-0.1,0.2,0,0.3c0.1,0.1,0.4,0,0.4,0s0.3-0.2,0.2-0.4c-0.1-0.2-0.2-0.3-0.4-0.2
					C29.6,21.2,29.5,21.4,29.5,21.4z"/>
			</g>
		</g>
	</g>
	<g>
		<g>
			<g>
				<ellipse fill="#FFD15C" cx="26.2" cy="4.8" rx="0.5" ry="0.9"/>
			</g>
		</g>
	</g>
</g>
</svg>
