<?xml version="1.0" encoding="utf-8"?>
<!-- Generator: Adobe Illustrator 19.0.1, SVG Export Plug-In . SVG Version: 6.00 Build 0)  -->
<svg version="1.1" id="Layer_1" xmlns="http://www.w3.org/2000/svg" xmlns:xlink="http://www.w3.org/1999/xlink" x="0px" y="0px"
	 viewBox="0 0 48 48" style="enable-background:new 0 0 48 48;" xml:space="preserve">
<style type="text/css">
	.st0{fill:#415A6B;}
	.st1{fill:#ADB3BA;}
	.st2{fill:#E8EAE9;}
	.st3{fill:#55C0EB;}
	.st4{fill:#F3705A;}
	.st5{fill:#FFFFFF;}
	.st6{fill:#FFD15C;}
	.st7{fill:#344A5E;}
	.st8{fill:#CED6E0;}
	.st9{fill:#F05540;}
	.st10{fill:#F7B64C;}
	.st11{fill:#F3F3F3;}
	.st12{fill:#66C6B9;}
	.st13{fill:#4ABAA5;}
	.st14{fill:#8AD7F8;}
	.st15{fill:none;}
	.st16{fill:#E53D35;}
</style>
<g>
	<g>
		<g>
			<g>
				<path class="st12" d="M35.2,7.1v39.1c0,1-0.8,1.8-1.8,1.8H1.8c-1,0-1.8-0.8-1.8-1.8V7.1c0-1,0.8-1.8,1.8-1.8h31.5
					C34.4,5.2,35.2,6.1,35.2,7.1z"/>
				<g>
					<rect x="4" y="9.2" class="st5" width="27.2" height="34.8"/>
				</g>
			</g>
			<g>
				<path class="st4" d="M24.5,3.7h-3.2v0c0-2-1.7-3.7-3.7-3.7c-2,0-3.7,1.7-3.7,3.7v0h-3.2c-1,0-1.8,0.8-1.8,1.8v5.7h17.3V5.5
					C26.2,4.5,25.5,3.7,24.5,3.7z M17.6,5c-0.7,0-1.3-0.6-1.3-1.4c0-0.7,0.6-1.3,1.3-1.3c0.7,0,1.4,0.6,1.4,1.3
					C18.9,4.4,18.3,5,17.6,5z"/>
			</g>
			<g>
				<rect x="7.1" y="37.6" class="st8" width="21" height="2.8"/>
				<rect x="7.1" y="30.7" class="st8" width="21" height="2.8"/>
				<rect x="7.1" y="23.8" class="st8" width="21" height="2.8"/>
				<rect x="7.1" y="16.9" class="st8" width="21" height="2.8"/>
			</g>
		</g>
		<g>
			<g>
				<g>
					<g>
						<path class="st0" d="M48,37.7l-1-2.3l-2.3,0.3c-0.3-0.3-0.5-0.6-0.8-0.8l0.3-2.3l-2.3-1l-1.5,1.9c-0.4,0-0.8,0-1.2,0l-1.5-1.8
							l-2.3,1l0.3,2.3c-0.3,0.3-0.6,0.5-0.8,0.8l-2.3-0.3l-1,2.3l1.9,1.5c0,0.4,0,0.8,0,1.2l-1.8,1.5l1,2.3l2.3-0.3
							c0.3,0.3,0.5,0.6,0.8,0.8L35.4,47l2.3,1l1.5-1.9c0.4,0,0.8,0,1.2,0l1.5,1.8l2.3-1l-0.3-2.3c0.3-0.3,0.6-0.5,0.8-0.8l2.3,0.3
							l0.9-2.3l-1.9-1.5c0-0.4,0-0.8,0-1.2L48,37.7z M40.6,41.7c-1.1,0.5-2.3-0.1-2.8-1.1s0-2.3,1.1-2.8c1.1-0.5,2.3,0.1,2.8,1.1
							S41.7,41.3,40.6,41.7z"/>
					</g>
				</g>
				<g>
					<path class="st7" d="M41.3,43.4c2-0.9,3-3.2,2.1-5.2s-3.2-3-5.2-2.1c-2,0.9-3,3.2-2.1,5.2C36.9,43.4,39.3,44.3,41.3,43.4z
						 M37.8,40.6c-0.5-1.1,0-2.3,1.1-2.8c1.1-0.5,2.3,0.1,2.8,1.1c0.5,1.1-0.1,2.3-1.1,2.8C39.5,42.2,38.3,41.6,37.8,40.6z"/>
				</g>
			</g>
			<g>
				<g>
					<g>
						<path class="st6" d="M36,30.3v-2l-1.8-0.5c-0.1-0.3-0.2-0.6-0.4-0.8l0.9-1.6l-1.4-1.4l-1.6,0.9c-0.3-0.1-0.6-0.3-0.8-0.4
							l-0.5-1.8h-2l-0.5,1.8c-0.3,0.1-0.6,0.2-0.8,0.4l-1.6-0.9l-1.4,1.4l0.9,1.6c-0.1,0.3-0.3,0.6-0.4,0.8l-1.8,0.5v2l1.8,0.5
							c0.1,0.3,0.2,0.6,0.4,0.8l-0.9,1.6l1.4,1.4l1.6-0.9c0.3,0.1,0.6,0.3,0.8,0.4l0.5,1.8h2l0.5-1.8c0.3-0.1,0.6-0.2,0.8-0.4
							l1.6,0.9l1.4-1.4l-0.9-1.6c0.1-0.3,0.3-0.6,0.4-0.8L36,30.3z M29.3,30.8c-0.8,0-1.5-0.7-1.5-1.5s0.7-1.5,1.5-1.5
							s1.5,0.7,1.5,1.5S30.1,30.8,29.3,30.8z"/>
					</g>
				</g>
				<g>
					<path class="st10" d="M29.3,26.1c-1.8,0-3.2,1.4-3.2,3.2c0,1.8,1.4,3.2,3.2,3.2c1.8,0,3.2-1.4,3.2-3.2
						C32.5,27.5,31.1,26.1,29.3,26.1z M29.3,30.8c-0.8,0-1.5-0.7-1.5-1.5s0.7-1.5,1.5-1.5c0.8,0,1.5,0.7,1.5,1.5
						S30.1,30.8,29.3,30.8z"/>
				</g>
			</g>
		</g>
	</g>
</g>
</svg>
