<?xml version="1.0" encoding="utf-8"?>
<!-- Generator: Adobe Illustrator 18.0.0, SVG Export Plug-In . SVG Version: 6.00 Build 0)  -->
<!DOCTYPE svg PUBLIC "-//W3C//DTD SVG 1.1//EN" "http://www.w3.org/Graphics/SVG/1.1/DTD/svg11.dtd">
<svg version="1.1" id="Layer_1" xmlns="http://www.w3.org/2000/svg" xmlns:xlink="http://www.w3.org/1999/xlink" x="0px" y="0px"
	 viewBox="0 0 48 48" enable-background="new 0 0 48 48" xml:space="preserve">
<g>
	<path fill="#FF7058" d="M36,27H12V2c0-1.1,0.9-2,2-2H34c1.1,0,2,0.9,2,2V27z"/>
	<rect x="21.3" y="34.3" fill="#CDD6E0" width="5.5" height="4.8"/>
	<rect x="18.8" y="31.5" fill="#40596B" width="10.4" height="2.8"/>
	<rect x="22.9" y="39.1" fill="#CDD6E0" width="2.2" height="5.4"/>
	<path fill="#CDD6E0" d="M34.4,43.9c-5.7-4.1-15-4.1-20.7,0l-1.2-1.7c6.4-4.6,16.8-4.6,23.1,0L34.4,43.9z"/>
	<circle fill="#40596B" cx="24" cy="45.5" r="2.5"/>
	<path fill="#F1543F" d="M45,17.1c0,1-0.8,1.8-1.8,1.8h-2.7v10.8c0,1-0.8,1.8-1.8,1.8H9.3c-1,0-1.8-0.8-1.8-1.8V18.9H4.8
		c-1,0-1.8-0.8-1.8-1.8s0.8-1.8,1.8-1.8H12v11.2c7.9-1.6,16-1.6,23.9,0V15.3h7.2C44.2,15.3,45,16.1,45,17.1z"/>
	<g>
		<circle fill="#F1543F" cx="31.3" cy="7.7" r="1.4"/>
		<circle fill="#F1543F" cx="24" cy="7.7" r="1.4"/>
		<circle fill="#F1543F" cx="16.7" cy="7.7" r="1.4"/>
		<g>
			<circle fill="#F1543F" cx="27.6" cy="13.5" r="1.4"/>
			<circle fill="#F1543F" cx="20.4" cy="13.5" r="1.4"/>
		</g>
		<circle fill="#F1543F" cx="31.3" cy="19.3" r="1.4"/>
		<circle fill="#F1543F" cx="24" cy="19.3" r="1.4"/>
		<circle fill="#F1543F" cx="16.7" cy="19.3" r="1.4"/>
	</g>
	<circle fill="#40596B" cx="34.3" cy="44.3" r="2.5"/>
	<circle fill="#40596B" cx="13.7" cy="44.3" r="2.5"/>
</g>
</svg>
