<?xml version="1.0" encoding="utf-8"?>
<!-- Generator: Adobe Illustrator 18.0.0, SVG Export Plug-In . SVG Version: 6.00 Build 0)  -->
<!DOCTYPE svg PUBLIC "-//W3C//DTD SVG 1.1//EN" "http://www.w3.org/Graphics/SVG/1.1/DTD/svg11.dtd">
<svg version="1.1" id="Layer_1" xmlns="http://www.w3.org/2000/svg" xmlns:xlink="http://www.w3.org/1999/xlink" x="0px" y="0px"
	 viewBox="0 0 48 48" enable-background="new 0 0 48 48" xml:space="preserve">
<g>
	<path fill="#40596B" d="M46.7,1.3L46.7,1.3c-1.8-1.8-4.7-1.8-7,0.8L17,27.6l3.6,3.6L45.9,8.3C48.5,6,48.6,3.1,46.7,1.3z"/>
	<path fill="#F8B64C" d="M23.4,35.2L12.4,46.3c-0.6,0.6-0.2,1.7,0.7,1.7h20.7c0.9,0,1.3-1.1,0.7-1.7L23.4,35.2z"/>
	<path fill="#F4AA40" d="M32.6,44.4c-2.7,1-5.6,1.5-8.6,1.5c-3.3,0-6.5-0.6-9.4-1.8l8.9-8.9L32.6,44.4z"/>
	<polygon fill="#334A5E" points="24.7,18.9 21.9,22 27.5,24.9 34.2,18.9 	"/>
	<path fill="#FFD15C" d="M0,20.4c0,13.3,10.7,24,24,24c13.3,0,24-10.7,24-24H0z"/>
	<path fill="#FF7058" d="M0,20.4c0,1.9,0.2,3.8,0.7,5.6h46.7c0.4-1.8,0.7-3.7,0.7-5.6H0z"/>
	<g>
		<path fill="#4CDBC4" d="M13.8,15.1c0.7-1.4,1.6-2.7,2.9-3.7c0-2.5-1-5-2.9-6.9c-1.9,1.9-2.9,4.4-2.9,6.9
			C12.1,12.4,13.1,13.7,13.8,15.1z"/>
		<path fill="#4CDBC4" d="M17.4,11.9c-0.3,0.2-0.6,0.5-0.9,0.7c-1.1,1-1.9,2.3-2.4,3.7c-0.2,0.7-0.4,1.4-0.4,2.1c0,0,0,0,0,0
			c0.3,0,0.6,0,0.8,0c0.1,0,0.2,0,0.3,0c4.4-0.2,8-3.7,8.3-8.1C21.1,10.1,19.1,10.7,17.4,11.9z"/>
		<path fill="#4CDBC4" d="M10.9,12.6c-0.3-0.3-0.6-0.5-0.9-0.7c-1.6-1.1-3.6-1.8-5.7-1.6c0.3,4.5,3.9,7.9,8.3,8.1c0.1,0,0.2,0,0.3,0
			c0.3,0,0.5,0,0.8,0h0c0-0.7-0.2-1.4-0.4-2.1C12.8,14.9,12,13.6,10.9,12.6z"/>
	</g>
</g>
</svg>
