<?xml version="1.0" encoding="utf-8"?>
<!-- Generator: Adobe Illustrator 18.0.0, SVG Export Plug-In . SVG Version: 6.00 Build 0)  -->
<!DOCTYPE svg PUBLIC "-//W3C//DTD SVG 1.1//EN" "http://www.w3.org/Graphics/SVG/1.1/DTD/svg11.dtd">
<svg version="1.1" id="Layer_1" xmlns="http://www.w3.org/2000/svg" xmlns:xlink="http://www.w3.org/1999/xlink" x="0px" y="0px"
	 viewBox="0 0 48 48" enable-background="new 0 0 48 48" xml:space="preserve">
<g>
	<g>
		<g>
			<path fill="#E8EAE9" d="M38.4,46.7L3.7,40.6c-1.6-0.3-2.7-1.8-2.4-3.5L7.4,2.5C7.7,0.8,9.3-0.2,10.9,0l34.6,6.1
				C47.2,6.4,48.2,8,48,9.6l-6.1,34.6C41.6,45.9,40,47,38.4,46.7z"/>
		</g>
		<g>
			<path fill="#F3F3F3" d="M38.2,48H3c-1.7,0-3-1.3-3-3V9.8c0-1.7,1.3-3,3-3h35.2c1.7,0,3,1.3,3,3V45C41.2,46.7,39.8,48,38.2,48z"/>
			<g>
				<rect x="4" y="42.2" fill="#CED6E0" width="33.1" height="1.8"/>
			</g>
			<g>
				<rect x="4" y="37.5" fill="#CED6E0" width="33.1" height="1.8"/>
			</g>
			<g>
				<g>
					<rect x="4" y="32.7" fill="#CED6E0" width="18.4" height="1.8"/>
				</g>
				<g>
					<rect x="4" y="28" fill="#CED6E0" width="18.4" height="1.8"/>
				</g>
				<g>
					<rect x="4" y="23.3" fill="#CED6E0" width="18.4" height="1.8"/>
				</g>
			</g>
			<g>
				<rect x="4" y="18.5" fill="#415A6B" width="33.1" height="1.8"/>
			</g>
			<g>
				<path fill="#F3705A" d="M5.6,12c-0.1,0.1-0.2,0.2-0.2,0.4s0.1,0.3,0.2,0.4c0.1,0.1,0.4,0.2,0.9,0.3c0.5,0.1,0.9,0.3,1.1,0.5
					c0.3,0.2,0.4,0.6,0.4,1.1c0,0.5-0.2,0.8-0.5,1.1c-0.3,0.3-0.8,0.4-1.4,0.4c-0.8,0-1.6-0.3-2.2-0.9l0.7-0.8
					c0.6,0.5,1.1,0.7,1.5,0.7c0.2,0,0.4,0,0.5-0.1C6.9,15,7,14.9,7,14.7c0-0.2-0.1-0.3-0.2-0.4c-0.1-0.1-0.4-0.2-0.8-0.3
					c-0.6-0.1-1-0.3-1.3-0.6c-0.3-0.2-0.4-0.6-0.4-1.1c0-0.5,0.2-0.9,0.5-1.1c0.4-0.3,0.8-0.4,1.3-0.4c0.3,0,0.7,0.1,1,0.2
					c0.3,0.1,0.6,0.3,0.9,0.5l-0.6,0.8c-0.4-0.3-0.9-0.5-1.4-0.5C5.9,11.9,5.7,12,5.6,12z"/>
				<path fill="#F3705A" d="M11.5,15.2c0.6,0,1-0.2,1.4-0.7l0.7,0.8c-0.6,0.7-1.3,1-2.1,1s-1.5-0.3-2-0.8c-0.5-0.5-0.8-1.1-0.8-1.9
					c0-0.8,0.3-1.4,0.8-1.9c0.5-0.5,1.2-0.8,1.9-0.8c0.8,0,1.6,0.3,2.1,1L13,12.7c-0.4-0.5-0.8-0.7-1.4-0.7c-0.4,0-0.8,0.1-1.1,0.4
					S10,13.1,10,13.6c0,0.5,0.1,0.9,0.4,1.2C10.8,15,11.1,15.2,11.5,15.2z"/>
				<path fill="#F3705A" d="M14.6,11h1.2v5.2h-1.2V11z"/>
				<path fill="#F3705A" d="M20.7,11v1h-2.6v1.1h2.3v1h-2.3v1.1h2.7v1H17V11H20.7z"/>
				<path fill="#F3705A" d="M25.4,11h1.2v5.2h-1.2L23,12.9v3.2h-1.2V11h1.1l2.5,3.3V11z"/>
				<path fill="#F3705A" d="M30.3,15.2c0.6,0,1-0.2,1.4-0.7l0.7,0.8c-0.6,0.7-1.3,1-2.1,1s-1.5-0.3-2-0.8c-0.5-0.5-0.8-1.1-0.8-1.9
					c0-0.8,0.3-1.4,0.8-1.9c0.5-0.5,1.2-0.8,1.9-0.8c0.8,0,1.6,0.3,2.1,1l-0.7,0.8c-0.4-0.5-0.8-0.7-1.4-0.7c-0.4,0-0.8,0.1-1.1,0.4
					c-0.3,0.3-0.5,0.7-0.5,1.1c0,0.5,0.1,0.9,0.4,1.2C29.5,15,29.8,15.2,30.3,15.2z"/>
				<path fill="#F3705A" d="M37,11v1h-2.6v1.1h2.3v1h-2.3v1.1h2.7v1h-3.8V11H37z"/>
			</g>
			<g>
				<rect x="25.9" y="23.3" fill="#4EC0AA" width="11.2" height="11.2"/>
			</g>
		</g>
	</g>
</g>
</svg>
