<?xml version="1.0" encoding="utf-8"?>
<!-- Generator: Adobe Illustrator 18.0.0, SVG Export Plug-In . SVG Version: 6.00 Build 0)  -->
<!DOCTYPE svg PUBLIC "-//W3C//DTD SVG 1.1//EN" "http://www.w3.org/Graphics/SVG/1.1/DTD/svg11.dtd">
<svg version="1.1" id="Layer_1" xmlns="http://www.w3.org/2000/svg" xmlns:xlink="http://www.w3.org/1999/xlink" x="0px" y="0px"
	 viewBox="0 0 48 48" enable-background="new 0 0 48 48" xml:space="preserve">
<g>
	<g>
		<g>
			<g>
				<g>
					<g>
						<g>
							<path fill="#F2F2F2" d="M4.4,17.8L4.4,17.8c-0.2-0.2-0.2-0.5-0.1-0.8c0.9-1.3,0.8-3.1-0.3-4.2c-1.6-1.6-1.7-4.1-0.5-5.8
								c0.2-0.3,0.7-0.3,0.9-0.1l0,0c0.2,0.2,0.2,0.5,0.1,0.8c-0.9,1.3-0.8,3.1,0.3,4.3c1.6,1.6,1.7,4.1,0.5,5.8
								C5.1,18,4.7,18,4.4,17.8z"/>
						</g>
					</g>
				</g>
				<g>
					<g>
						<g>
							<path fill="#F2F2F2" d="M10,11.1L10,11.1c-0.2-0.2-0.2-0.5-0.1-0.8c0.9-1.3,0.8-3.1-0.3-4.2C8,4.5,7.8,2,9.1,0.2
								C9.3-0.1,9.8-0.1,10,0.2l0,0c0.2,0.2,0.2,0.5,0.1,0.8c-0.9,1.3-0.8,3.1,0.3,4.3c1.6,1.6,1.7,4.1,0.5,5.8
								C10.7,11.3,10.2,11.4,10,11.1z"/>
						</g>
					</g>
				</g>
				<g>
					<g>
						<g>
							<path fill="#F2F2F2" d="M18.2,15L18.2,15c-0.2-0.2-0.2-0.5-0.1-0.8c0.9-1.3,0.8-3.1-0.3-4.2c-1.6-1.6-1.7-4.1-0.5-5.8
								c0.2-0.3,0.7-0.3,0.9-0.1l0,0c0.2,0.2,0.2,0.5,0.1,0.8c-0.9,1.3-0.8,3.1,0.3,4.3c1.6,1.6,1.7,4.1,0.5,5.8
								C18.9,15.2,18.5,15.3,18.2,15z"/>
						</g>
					</g>
				</g>
				<g>
					<g>
						<g>
							<path fill="#F2F2F2" d="M24.2,11.1L24.2,11.1c-0.2-0.2-0.2-0.5-0.1-0.8C25.1,9,25,7.2,23.8,6.1c-1.6-1.6-1.7-4.1-0.5-5.8
								c0.2-0.3,0.7-0.3,0.9-0.1l0,0c0.2,0.2,0.2,0.5,0.1,0.8c-0.9,1.3-0.8,3.1,0.3,4.3c1.6,1.6,1.7,4.1,0.5,5.8
								C24.9,11.3,24.5,11.4,24.2,11.1z"/>
						</g>
					</g>
				</g>
			</g>
		</g>
	</g>
	<g>
		<path fill="#40596B" d="M0,41.4c0.2,0.3,0.5,0.6,0.8,0.9C4.2,46,9,48,14,48H34c5,0,9.9-2,13.3-5.7c0.3-0.3,0.5-0.6,0.8-0.9H0z"/>
	</g>
	<path fill="#F2F2F2" d="M48,32.1c0.3-1.6-0.8-3.2-2.5-3.4c-1.6-0.3-3.2,0.8-3.5,2.5l-21.5-3.5L19.8,32l21.5,3.6
		c-0.3,1.6,0.8,3.2,2.5,3.4c1.6,0.3,3.2-0.8,3.5-2.5c0.1-0.9-0.1-1.7-0.6-2.4C47.3,33.7,47.8,33,48,32.1z"/>
	<path fill="#E8EAEA" d="M35.8,32.4c0.1-0.7,0.1-1.5-0.2-2.3l-15.1-2.5L19.8,32l15.1,2.5C35.3,33.8,35.7,33.1,35.8,32.4z"/>
	<path fill="#FFD15C" d="M12.6,17.5c-5.9-1-11.5,3-12.5,9c-1,5.9,3,11.5,9,12.5c5.9,1,24.2-0.9,25.2-6.9
		C35.3,26.2,18.6,18.5,12.6,17.5z"/>
</g>
</svg>
