<?xml version="1.0" encoding="utf-8"?>
<!-- Generator: Adobe Illustrator 18.0.0, SVG Export Plug-In . SVG Version: 6.00 Build 0)  -->
<!DOCTYPE svg PUBLIC "-//W3C//DTD SVG 1.1//EN" "http://www.w3.org/Graphics/SVG/1.1/DTD/svg11.dtd">
<svg version="1.1" id="Layer_1" xmlns="http://www.w3.org/2000/svg" xmlns:xlink="http://www.w3.org/1999/xlink" x="0px" y="0px"
	 viewBox="0 0 48 48" enable-background="new 0 0 48 48" xml:space="preserve">
<g>
	<circle fill="#4CDBC4" cx="24" cy="24" r="24"/>
	<circle fill="#4CDBC4" cx="24" cy="24" r="24"/>
	<g>
		<path fill="#FFFFFF" d="M18,0.8c0.7-0.2,1.5-0.3,2.2-0.5c3.4,14.1-4.5,28.6-18.2,33.4c-0.3-0.7-0.6-1.4-0.8-2.1
			C13.9,27.2,21.2,13.8,18,0.8z"/>
		<path fill="#FFFFFF" d="M45.9,14.3c0.3,0.7,0.6,1.4,0.8,2.1C34.1,20.8,26.8,34.2,30,47.2c-0.7,0.2-1.5,0.3-2.2,0.5
			C24.4,33.6,32.3,19.1,45.9,14.3z"/>
	</g>
</g>
</svg>
