<?xml version="1.0" encoding="utf-8"?>
<!-- Generator: Adobe Illustrator 18.0.0, SVG Export Plug-In . SVG Version: 6.00 Build 0)  -->
<!DOCTYPE svg PUBLIC "-//W3C//DTD SVG 1.1//EN" "http://www.w3.org/Graphics/SVG/1.1/DTD/svg11.dtd">
<svg version="1.1" id="Layer_1" xmlns="http://www.w3.org/2000/svg" xmlns:xlink="http://www.w3.org/1999/xlink" x="0px" y="0px"
	 viewBox="0 0 48 48" enable-background="new 0 0 48 48" xml:space="preserve">
<g>
	<path fill="#FFD15C" d="M41.7,19.4c0-8.3-9.3-15.1-20.9-15.1S0,11.1,0,19.4c0,7.3,7.1,13.3,16.5,14.8v4.7
		C30.6,38.9,41.7,30.3,41.7,19.4L41.7,19.4L41.7,19.4z"/>
	<g>
		<circle fill="#FF7058" cx="9.3" cy="20" r="3.5"/>
		<circle fill="#FF7058" cx="21.4" cy="20" r="3.5"/>
		<circle fill="#FF7058" cx="33.4" cy="20" r="3.5"/>
	</g>
	<path fill="#54C0EB" d="M43.1,22.2c-1.4,8.5-9,15.3-19.2,17.5c3.2,2.5,7.6,4,12.6,4v-3.3C43,39.4,48,35.1,48,30.1
		C48,26.9,46.1,24.1,43.1,22.2z"/>
</g>
</svg>
