<?xml version="1.0" encoding="utf-8"?>
<!-- Generator: Adobe Illustrator 16.0.0, SVG Export Plug-In . SVG Version: 6.00 Build 0)  -->
<!DOCTYPE svg PUBLIC "-//W3C//DTD SVG 1.1//EN" "http://www.w3.org/Graphics/SVG/1.1/DTD/svg11.dtd">
<svg version="1.1" id="Layer_1" xmlns="http://www.w3.org/2000/svg" xmlns:xlink="http://www.w3.org/1999/xlink" x="0px" y="0px"
	 width="48px" height="48px" viewBox="0 0 48 48" enable-background="new 0 0 48 48" xml:space="preserve">
<g>
	<path fill="#F8B64C" d="M31.129,24.107v4.201c-1.41,2-3.48,3.189-5.66,3.549c-0.48,0.08-0.98,0.193-1.461,0.193
		c-2.67,0-5.373-1.314-7.103-3.744l0.033-4.199H31.129z"/>
	<g opacity="0.1">
		<g>
			<defs>
				<rect id="SVGID_197_" x="21.418" y="24.229" width="9.711" height="7.629"/>
			</defs>
			<clipPath id="SVGID_2_">
				<use xlink:href="#SVGID_197_"  overflow="visible"/>
			</clipPath>
			<path clip-path="url(#SVGID_2_)" fill="#40596B" d="M31.129,24.229v4.08c-1.41,2-3.48,3.189-5.66,3.549l-4.051-3.01
				c0.59,0.26,1.221,0.4,1.87,0.4h1.5c1.341,0,2.62-0.561,3.521-1.551l0.99-1.08C29.979,25.867,30.578,25.059,31.129,24.229"/>
		</g>
	</g>
	<path fill="#F8B64C" d="M16.719,13.182c0.146,1.676-0.666,3.115-1.816,3.217c-1.148,0.1-2.199-1.176-2.346-2.852
		c-0.147-1.676,0.666-3.115,1.814-3.217C15.521,10.23,16.571,11.508,16.719,13.182"/>
	<path fill="#F8B64C" d="M35.461,13.547c-0.147,1.674-1.197,2.951-2.348,2.85c-1.148-0.1-1.962-1.539-1.814-3.215
		c0.146-1.676,1.197-2.951,2.346-2.852C34.795,10.432,35.607,11.871,35.461,13.547"/>
	<path fill="#FFD15C" d="M34.059,16.73c-0.301,1.689-0.791,3.34-1.51,4.889c-0.83,1.811-1.951,3.51-3.32,5l-0.98,1.08
		c-0.9,0.98-2.18,1.551-3.51,1.551h-1.46c-1.319,0-2.61-0.57-3.511-1.551l-0.979-1.08c-1.37-1.49-2.489-3.189-3.319-5
		c-0.711-1.549-1.211-3.199-1.51-4.889c-0.281-1.631-0.631-6.561,0.119-9.221c1.221-4.301,5.04-7.391,9.93-7.51
		c4.891,0.119,8.711,3.209,9.931,7.51C34.688,10.17,34.338,15.1,34.059,16.73"/>
	<path fill="#CDD6E0" d="M48,38.117V48H0v-9.883c0-1.91,1.17-3.631,2.95-4.32l13.955-5.49c1.729,2.439,4.425,3.67,7.095,3.67
		c2.68,0,5.381-1.23,7.1-3.67l13.961,5.49C46.83,34.496,48,36.207,48,38.117"/>
	<path fill="#ACB3BA" d="M15.273,29.463c2.004,2.826,5.268,4.514,8.727,4.514c3.476,0,6.742-1.689,8.734-4.518
		c0.094-0.135,0.164-0.275,0.221-0.422l-1.854-0.73c-1.72,2.439-4.42,3.67-7.101,3.67c-2.67,0-5.364-1.23-7.094-3.67l-1.856,0.73
		C15.107,29.184,15.178,29.328,15.273,29.463"/>
	<path fill="#334A5E" d="M13.309,8.496c-0.299,2.053-0.609,5.973,1.109,7.264c0,0,0.308-2.736,0.617-3.457
		c0.42-0.979,0.612-2.037,0.823-3.082c0.05-0.238,0.11-0.482,0.179-0.725H13.309z"/>
	<path fill="#334A5E" d="M31.982,7.887c0.07,0.248,0.133,0.496,0.182,0.738c0.208,1.033,0.385,2.084,0.811,3.047
		c0.321,0.729,0.623,3.477,0.623,3.477c1.721-1.289,1.409-5.209,1.11-7.262H31.982z"/>
	<path fill="#40596B" d="M34.942,5.883H13.074V3.75c0-2.072,1.68-3.75,3.75-3.75h14.368c2.071,0,3.75,1.678,3.75,3.75V5.883z"/>
	<rect x="13.074" y="5.881" fill="#334A5E" width="21.868" height="5.025"/>
	<path fill="#40596B" d="M37.205,12.178c-4.7,0.76-13.193,0.563-13.193,0.563s-8.492,0.197-13.199-0.563
		c-1.877-0.305-1.886-1.83-0.58-3.205c0.799-0.838,1.396-1.408,2.842-0.885c0,0,5.597,2.131,10.938,2.131
		c5.342,0,10.93-2.131,10.93-2.131c1.439-0.523,2.053,0.047,2.842,0.885C39.09,10.348,39.082,11.873,37.205,12.178"/>
	<path fill="#F2F2F2" d="M42.065,48H26.725v-7.744c0-1.322,0.707-2.555,1.871-3.182c1.908-1.025,4.705-3.234,5.529-7.576l5.17,2.029
		c-0.4,1.07-0.83,3.521,0.391,8.541C39.686,40.068,41.615,45.5,42.065,48"/>
	<path fill="#F2F2F2" d="M21.275,40.256V48H5.936c0.449-2.5,2.379-7.932,2.379-7.932c1.211-5,0.791-7.459,0.391-8.529l5.17-2.041
		c0.825,4.342,3.621,6.549,5.529,7.576C20.569,37.701,21.275,38.934,21.275,40.256"/>
	<rect x="10.336" y="40.055" fill="#ACB3BA" width="7.539" height="7.943"/>
	<polygon fill="#CDD6E0" points="17.874,40.834 14.105,42.99 10.336,40.834 10.336,40.055 17.874,40.055 	"/>
	<rect x="30.127" y="40.055" fill="#ACB3BA" width="7.537" height="7.943"/>
	<polygon fill="#CDD6E0" points="37.664,40.834 33.895,42.99 30.126,40.834 30.126,40.055 37.664,40.055 	"/>
</g>
</svg>
