<?xml version="1.0" encoding="utf-8"?>
<!-- Generator: Adobe Illustrator 16.0.0, SVG Export Plug-In . SVG Version: 6.00 Build 0)  -->
<!DOCTYPE svg PUBLIC "-//W3C//DTD SVG 1.1//EN" "http://www.w3.org/Graphics/SVG/1.1/DTD/svg11.dtd">
<svg version="1.1" id="Layer_1" xmlns="http://www.w3.org/2000/svg" xmlns:xlink="http://www.w3.org/1999/xlink" x="0px" y="0px"
	 width="48px" height="48px" viewBox="0 0 48 48" enable-background="new 0 0 48 48" xml:space="preserve">
<g>
	<polygon fill="#FFD15C" points="40.319,40.32 7.706,40.32 7.706,7.68 40.269,7.68 	"/>
	<path fill="#F7B64C" d="M44.16,0H3.84C1.719,0,0,1.72,0,3.84v40.32C0,46.28,1.719,48,3.84,48h40.32c2.122,0,3.84-1.72,3.84-3.84
		V3.84C48,1.72,46.282,0,44.16,0 M7.706,7.68H35.04L7.706,35.04V7.68z M40.319,40.32h-27.06l27.06-27.059V40.32z"/>
	<path fill="#415A6B" d="M45.359,4.704c0,0.927-0.751,1.681-1.68,1.681c-0.927,0-1.68-0.754-1.68-1.681
		c0-0.928,0.753-1.68,1.68-1.68C44.607,3.024,45.359,3.776,45.359,4.704"/>
	<path fill="#415A6B" d="M5.903,4.704c0,0.927-0.752,1.681-1.68,1.681c-0.927,0-1.68-0.754-1.68-1.681c0-0.928,0.753-1.68,1.68-1.68
		C5.151,3.024,5.903,3.776,5.903,4.704"/>
	<path fill="#415A6B" d="M45.359,43.775c0,0.929-0.751,1.681-1.68,1.681c-0.927,0-1.68-0.752-1.68-1.681
		c0-0.928,0.753-1.68,1.68-1.68C44.607,42.096,45.359,42.848,45.359,43.775"/>
	<path fill="#415A6B" d="M5.903,43.775c0,0.929-0.752,1.681-1.68,1.681c-0.927,0-1.68-0.752-1.68-1.681
		c0-0.928,0.753-1.68,1.68-1.68C5.151,42.096,5.903,42.848,5.903,43.775"/>
</g>
</svg>
