<?xml version="1.0" encoding="utf-8"?>
<!-- Generator: Adobe Illustrator 18.0.0, SVG Export Plug-In . SVG Version: 6.00 Build 0)  -->
<!DOCTYPE svg PUBLIC "-//W3C//DTD SVG 1.1//EN" "http://www.w3.org/Graphics/SVG/1.1/DTD/svg11.dtd">
<svg version="1.1" id="Layer_1" xmlns="http://www.w3.org/2000/svg" xmlns:xlink="http://www.w3.org/1999/xlink" x="0px" y="0px"
	 viewBox="0 0 48 48" enable-background="new 0 0 48 48" xml:space="preserve">
<g>
	<path fill="#84DBFF" d="M24,0C10.8,0,0,10.7,0,24c0,13.3,10.7,24,24,24c13.3,0,24-10.7,24-24C48,10.7,37.3,0,24,0z M24,28.5
		c-2.5,0-4.5-2-4.5-4.5s2-4.5,4.5-4.5s4.5,2,4.5,4.5S26.5,28.5,24,28.5z"/>
	<path fill="#40596B" d="M24,14.2c-5.4,0-9.8,4.4-9.8,9.8c0,5.4,4.4,9.8,9.8,9.8c5.4,0,9.8-4.4,9.8-9.8C33.8,18.6,29.4,14.2,24,14.2
		z M24,28.5c-2.5,0-4.5-2-4.5-4.5s2-4.5,4.5-4.5s4.5,2,4.5,4.5S26.5,28.5,24,28.5z"/>
	<path fill="#FF7058" d="M24,17.8c-3.4,0-6.2,2.8-6.2,6.2c0,3.4,2.8,6.2,6.2,6.2s6.2-2.8,6.2-6.2C30.2,20.6,27.4,17.8,24,17.8z
		 M24,28.5c-2.5,0-4.5-2-4.5-4.5s2-4.5,4.5-4.5s4.5,2,4.5,4.5S26.5,28.5,24,28.5z"/>
	<path fill="#FFFFFF" d="M18,14.5c-1.4,0.9-2.6,2.1-3.5,3.5l-9.1-6.5C7,9,9,6.9,11.5,5.3L18,14.5z"/>
	<path fill="#FFFFFF" d="M42.7,36.5C41,39,39,41,36.5,42.7L30,33.5c1.4-0.9,2.6-2.1,3.5-3.5L42.7,36.5z"/>
</g>
</svg>
