<?xml version="1.0" encoding="utf-8"?>
<!-- Generator: Adobe Illustrator 18.0.0, SVG Export Plug-In . SVG Version: 6.00 Build 0)  -->
<!DOCTYPE svg PUBLIC "-//W3C//DTD SVG 1.1//EN" "http://www.w3.org/Graphics/SVG/1.1/DTD/svg11.dtd">
<svg version="1.1" id="Layer_1" xmlns="http://www.w3.org/2000/svg" xmlns:xlink="http://www.w3.org/1999/xlink" x="0px" y="0px"
	 viewBox="0 0 48 48" enable-background="new 0 0 48 48" xml:space="preserve">
<g>
	<g>
		<g>
			<g>
				<g>
					<path fill="#FFD15C" d="M37,15.1c0,8.3-8.3,15.1-18.5,15.1c-1.3,0-2.6-0.1-3.8-0.3l-8.4,5.6v-9C2.4,23.7,0,19.6,0,15.1
						C0,6.7,8.3,0,18.5,0S37,6.7,37,15.1z"/>
				</g>
			</g>
			<g>
				<g>
					<circle fill="#FFFFFF" cx="9.2" cy="15.1" r="3"/>
				</g>
				<g>
					<circle fill="#FFFFFF" cx="18.5" cy="15.1" r="3"/>
				</g>
				<g>
					<circle fill="#FFFFFF" cx="27.8" cy="15.1" r="3"/>
				</g>
			</g>
		</g>
		<g>
			<g>
				<g>
					<path fill="#F3705A" d="M20.7,33c0,6.1,6.1,11.1,13.7,11.1c1,0,1.9-0.1,2.8-0.2l6.2,4.1v-6.7c2.9-2,4.7-5,4.7-8.4
						c0-6.1-6.1-11.1-13.7-11.1S20.7,26.8,20.7,33z"/>
				</g>
			</g>
			<g>
				<g>
					<circle fill="#FFFFFF" cx="41.2" cy="33" r="2.2"/>
				</g>
				<g>
					<circle fill="#FFFFFF" cx="34.3" cy="33" r="2.2"/>
				</g>
				<g>
					<circle fill="#FFFFFF" cx="27.5" cy="33" r="2.2"/>
				</g>
			</g>
		</g>
	</g>
</g>
</svg>
