<?xml version="1.0" encoding="utf-8"?>
<!-- Generator: Adobe Illustrator 18.0.0, SVG Export Plug-In . SVG Version: 6.00 Build 0)  -->
<!DOCTYPE svg PUBLIC "-//W3C//DTD SVG 1.1//EN" "http://www.w3.org/Graphics/SVG/1.1/DTD/svg11.dtd">
<svg version="1.1" id="Layer_1" xmlns="http://www.w3.org/2000/svg" xmlns:xlink="http://www.w3.org/1999/xlink" x="0px" y="0px"
	 viewBox="0 0 48 48" enable-background="new 0 0 48 48" xml:space="preserve">
<g>
	<g>
		<path fill="#FF7058" d="M37.3,0H10.8C6.6,0,3.2,3.4,3.2,8.8v24.6h41.6V8.8C44.8,3.4,41.4,0,37.3,0z"/>
		<path fill="#F2F2F2" d="M37.3,2.5H10.8c-3,0-5,2.5-5,6.3v24.6h36.6V8.8C42.3,5.1,40.3,2.5,37.3,2.5z"/>
		<path fill="#FFFFFF" d="M37.6,33.8H10.4V10.7c0-1.1,0.9-2,2-2h23.2c1.1,0,2,0.9,2,2V33.8z"/>
		<path fill="#FF7058" d="M0.3,35.5v6.9c0,2.8,2.3,5,5,5h37.3c2.8,0,5-2.3,5-5v-6.9H0.3z"/>
		<rect x="3.2" y="33.4" fill="#F2F2F2" width="41.6" height="2.1"/>
		<g>
			<g>
				<polygon fill="#54C0EB" points="20.4,10.4 17.9,13.6 24,21.3 30.2,13.6 27.6,10.4 				"/>
				<polygon fill="#CDD6E0" points="20.8,13.6 24,21.3 27.2,13.6 				"/>
				<polygon fill="#84DBFF" points="20.4,10.4 17.9,13.6 30.2,13.6 27.6,10.4 				"/>
				<polygon fill="#54C0EB" points="20.4,10.4 24,13.6 27.6,10.4 				"/>
			</g>
			<polygon fill="#F8B64C" points="26,22.1 22,22.1 20.1,17 27.9,17 			"/>
			<path fill="#FFD15C" d="M17.3,28.8c0-3.7,3-6.7,6.7-6.7c3.7,0,6.7,3,6.7,6.7H34c0-5.5-4.5-10-10-10c-5.5,0-10,4.5-10,10H17.3z"/>
			<path fill="#F8B64C" d="M17.3,28.8c0-3.7,3-6.7,6.7-6.7c3.7,0,6.7,3,6.7,6.7h1.1c0-4.3-3.5-7.8-7.8-7.8c-4.3,0-7.8,3.5-7.8,7.8
				H17.3z"/>
		</g>
		<path fill="#40596B" d="M3.3,33.4h41.5C32.8,23.2,15.2,23.2,3.3,33.4z"/>
	</g>
	<g>
		<path fill="#FF7058" d="M37.2,0.6H10.7C6.6,0.6,3.2,4,3.2,9.4V34h41.6V9.4C44.8,4,41.4,0.6,37.2,0.6z"/>
		<path fill="#F2F2F2" d="M37.2,3.1H10.7c-3,0-5,2.5-5,6.3V34h36.6V9.4C42.3,5.6,40.2,3.1,37.2,3.1z"/>
		<path fill="#FFFFFF" d="M37.6,34.4H10.4V11.2c0-1.1,0.9-2,2-2h23.2c1.1,0,2,0.9,2,2V34.4z"/>
		<path fill="#FF7058" d="M0.3,36.1V43c0,2.8,2.3,5,5,5h37.3c2.8,0,5-2.3,5-5v-6.9H0.3z"/>
		<rect x="3.2" y="34" fill="#F2F2F2" width="41.6" height="2.1"/>
		<g>
			<g>
				<polygon fill="#54C0EB" points="20.4,11 17.8,14.1 24,21.9 30.1,14.1 27.6,11 				"/>
				<polygon fill="#CDD6E0" points="20.8,14.1 24,21.9 27.2,14.1 				"/>
				<polygon fill="#84DBFF" points="20.4,11 17.8,14.1 30.1,14.1 27.6,11 				"/>
				<polygon fill="#54C0EB" points="20.4,11 24,14.1 27.6,11 				"/>
			</g>
			<polygon fill="#F8B64C" points="26,22.7 22,22.7 20.1,17.5 27.9,17.5 			"/>
			<path fill="#FFD15C" d="M17.3,29.4c0-3.7,3-6.7,6.7-6.7c3.7,0,6.7,3,6.7,6.7H34c0-5.5-4.5-10-10-10c-5.5,0-10,4.5-10,10H17.3z"/>
			<path fill="#F8B64C" d="M17.3,29.4c0-3.7,3-6.7,6.7-6.7c3.7,0,6.7,3,6.7,6.7h1.1c0-4.3-3.5-7.8-7.8-7.8c-4.3,0-7.8,3.5-7.8,7.8
				H17.3z"/>
		</g>
		<path fill="#40596B" d="M3.2,34h41.5C32.8,23.8,15.2,23.8,3.2,34z"/>
	</g>
</g>
</svg>
