<?xml version="1.0" encoding="utf-8"?>
<!-- Generator: Adobe Illustrator 18.0.0, SVG Export Plug-In . SVG Version: 6.00 Build 0)  -->
<!DOCTYPE svg PUBLIC "-//W3C//DTD SVG 1.1//EN" "http://www.w3.org/Graphics/SVG/1.1/DTD/svg11.dtd">
<svg version="1.1" id="Layer_1" xmlns="http://www.w3.org/2000/svg" xmlns:xlink="http://www.w3.org/1999/xlink" x="0px" y="0px"
	 viewBox="0 0 48 48" enable-background="new 0 0 48 48" xml:space="preserve">
<g>
	<path fill="#F2F2F2" d="M0,28.2v7.5H48V25c0-0.9-0.2-1.8-0.7-2.6l-2.7-4.9c-1.4-2.5-4.1-4.1-7-4.1h-3v14.8H0z"/>
	<path fill="#54C0EB" d="M45.8,22.7l-2.5-4.5c-1.1-2.1-3.3-3.4-5.7-3.4H36v7.9H45.8z"/>
	<path fill="#FF7058" d="M2,7.7h30.5c1.1,0,2,0.9,2,2v18.5H0V9.7C0,8.6,0.9,7.7,2,7.7z"/>
	<path fill="#FFD15C" d="M46.9,28.9h1V26h-1c-0.6,0-1,0.4-1,1v0.9C45.9,28.5,46.4,28.9,46.9,28.9z"/>
	<g>
		<path fill="#E4EAEF" d="M33.2,35.6h11.1c0-3.1-2.5-5.6-5.5-5.6S33.2,32.5,33.2,35.6z"/>
		<circle fill="#40596B" cx="38.8" cy="35.6" r="4.7"/>
		<circle fill="#F2F2F2" cx="38.8" cy="35.6" r="2"/>
		<path fill="#CDD6E0" d="M40.3,34.7c-0.8-0.8-2-0.8-2.8,0c-0.4,0.4-0.6,1-0.6,1.5c-0.2-0.7,0-1.4,0.5-2c0.8-0.8,2-0.8,2.8,0
			c0.4,0.4,0.5,0.8,0.6,1.3C40.7,35.2,40.5,34.9,40.3,34.7z"/>
	</g>
	<g>
		<path fill="#84DBFF" d="M40.9,15.7L36,21.6v-1.4l4-4.9C40.3,15.4,40.6,15.6,40.9,15.7z"/>
	</g>
	<g>
		<path fill="#84DBFF" d="M42.9,17.5l-4.3,5.2h-1.9l5.2-6.3C42.2,16.7,42.6,17.1,42.9,17.5z"/>
	</g>
	<g>
		<path fill="#E4EAEF" d="M3.3,35.6h11.1c0-3.1-2.5-5.6-5.5-5.6S3.3,32.5,3.3,35.6z"/>
		<circle fill="#40596B" cx="8.8" cy="35.6" r="4.7"/>
		<circle fill="#F2F2F2" cx="8.8" cy="35.6" r="2"/>
		<path fill="#CDD6E0" d="M10.3,34.7c-0.8-0.8-2-0.8-2.8,0c-0.4,0.4-0.6,1-0.6,1.5c-0.2-0.7,0-1.4,0.5-2c0.8-0.8,2-0.8,2.8,0
			c0.4,0.4,0.5,0.8,0.6,1.3C10.7,35.2,10.5,34.9,10.3,34.7z"/>
	</g>
	<path fill="#ACB3BA" d="M38.8,25.2h-2.3c-0.2,0-0.3-0.2-0.3-0.3l0,0c0-0.2,0.2-0.3,0.3-0.3h2.3c0.2,0,0.3,0.2,0.3,0.3l0,0
		C39.1,25.1,39,25.2,38.8,25.2z"/>
	<polygon fill="#FFD15C" points="23.6,18 17.8,12.1 17.8,15.3 0,15.3 0,20.7 17.8,20.7 17.8,23.8 	"/>
</g>
</svg>
