<?xml version="1.0" encoding="utf-8"?>
<!-- Generator: Adobe Illustrator 18.0.0, SVG Export Plug-In . SVG Version: 6.00 Build 0)  -->
<!DOCTYPE svg PUBLIC "-//W3C//DTD SVG 1.1//EN" "http://www.w3.org/Graphics/SVG/1.1/DTD/svg11.dtd">
<svg version="1.1" id="Layer_1" xmlns="http://www.w3.org/2000/svg" xmlns:xlink="http://www.w3.org/1999/xlink" x="0px" y="0px"
	 viewBox="0 0 48 48" enable-background="new 0 0 48 48" xml:space="preserve">
<g>
	<g>
		<g>
			<g>
				<path fill="#344A5E" d="M24.3,20c-0.3,0-0.3,0.5,0,0.5C24.6,20.6,24.6,20,24.3,20z"/>
			</g>
		</g>
	</g>
	<g>
		<g>
			<g>
				<path fill="#F5B54C" d="M24.6,13.3c0,0,0.2,2.1,0,3.2s0.2,2.6-0.3,3.8c0,0-1.4,0.8-1.6,0.6c-0.2-0.1-4-2-4-2l1.1-7.4L24.6,13.3z
					"/>
			</g>
		</g>
	</g>
	<g>
		<g>
			<g>
				<g>
					<path fill="#425A6B" d="M14.6,44.8c0,0,0.3,0.4,0.4,0.9c0.1,0.4,0.1,1.5,0.1,1.5h0.4L15.4,46c0,0,0.2,0.6,0.3,1
						c0.1,0.4,0.1,0.7,0.8,0.9s3.1,0.3,3.8-0.2l-0.9-0.1l-4-2.2L14.6,44.8z"/>
				</g>
			</g>
		</g>
		<g>
			<g>
				<g>
					<path fill="#F26F5A" d="M17.6,39.7c0,0-0.1,2.3-0.1,3.1c0,0.8,0.4,2.7,0.8,3.4c0.4,0.7,1.6,1.1,1.9,1.2c0,0,0.1,0.1,0.1,0.2
						c0,0-1.7,0.4-3.2,0.2c-0.8-0.1-1-0.1-1.2-0.6c-0.2-0.5-0.4-1.5-0.8-1.9c-0.4-0.5-0.8-0.8-0.7-1.3c0.1-0.6,0.5-1.1,0.5-1.1
						s0.2-0.5,0.1-1.3c-0.1-0.8-0.3-3-0.3-3S15.1,39.7,17.6,39.7z"/>
				</g>
			</g>
		</g>
	</g>
	<g>
		<g>
			<g>
				<g>
					<g>
						<path fill="#F05640" d="M25.2,3.6c0,0.2,0.1,0.3,0.1,0.5c0.2,0.4,0.1,0.8,0,1.2c-0.1,0.4-0.3,0.7-0.6,1.1
							c-0.2,0.2-0.4,0.5-0.7,0.6C24,7,23.8,7.1,23.6,7.1c-0.1,0-0.2-0.1-0.2-0.1c-0.1,0-0.1-0.2-0.1-0.3C23.2,6,23.5,5.2,24,4.6
							c0.1-0.1,0.2-0.2,0.3-0.3C24.5,4.1,24.9,4,25.2,3.6"/>
					</g>
				</g>
			</g>
			<g>
				<g>
					<g>
						<g>
							<path fill="#FFD15C" d="M25.2,4.4c0,0-0.2,0.3-0.3,0.8c0,0.5-0.4,0.8-0.6,1.1c-0.3,0.3-0.4,0.3-0.6,0.6
								c-0.2,0.3-0.5,0.5-0.5,0.5c0,0.3,0.3,1.2,0.6,1.8c-0.2,0.1-0.3,0.2-0.3,0.2l-1.6-1.2l-2.5-1.3c0.3-0.3,1.2-0.9,1.1-1.4
								c-0.1-0.6,0.2-2.8,0.6-2.7c1.1-0.8,4.2,0.4,4.2,0.6C25.3,3.7,25.2,4.4,25.2,4.4z"/>
						</g>
					</g>
				</g>
				<g>
					<g>
						<g>
							<path fill="#F5B54C" d="M23.5,8.3c-1.7-1-2.7-2.3-2.9-2.7c0-0.1-0.1-0.1-0.1-0.1c0,0,0,0.1,0.1,0.1c1.1,1.6,2.7,1.9,2.7,1.9
								C23.3,7.6,23.4,7.9,23.5,8.3z"/>
						</g>
					</g>
				</g>
				<g>
					<g>
						<g>
							<g>
								<path fill="#F26F5A" d="M25.3,4c-0.9,0-1.8-0.3-2.7-0.6c-0.2,0-0.3-0.1-0.5-0.1c-0.4,0-0.7,0.2-0.9,0.5c0,0-0.1,0.1-0.1,0.1
									C21,4,21,3.9,21,3.8c-0.1-0.1-0.8,0.4-0.7,0.7c0.1,0.2,0.2,0.3,0.3,0.5c0.3,0.6,0.4,1.3,0.4,1.9c0,0.1-0.2,0.3-0.3,0.3
									c-0.1,0.1-0.3,0.1-0.4,0.2c-0.2,0.1-0.3,0.3-0.4,0.5c0-0.2,0.1-0.5,0.2-0.7c-0.2,0.2-0.4,0.3-0.7,0.4
									c-0.2,0.1-0.3,0.1-0.5,0.2C18.4,8,18,8.3,17.6,8.4c0.1-0.3,0.2-0.6,0.4-0.9c0.1-0.2,0.3-0.4,0.4-0.5
									c0.1-0.2,0.2-0.4,0.3-0.7c0.3-0.7,0.6-1.4,0.9-2.2c0.1-0.4,0.4-0.7,0.6-1.1c0.1-0.2,0.2-0.4,0.4-0.5
									c0.1-0.1,0.3-0.1,0.5-0.2c0.7-0.1,1.4,0.1,2,0.4c0.6,0.2,1.2,0.4,1.8,0.6c0.1,0,0.3,0.1,0.4,0.2L25.3,4z"/>
							</g>
						</g>
					</g>
					<g>
						<g>
							<g>
								<path fill="#F26F5A" d="M25,3.7c0.2,0.2,0.2,0.4,0.2,0.7c0,0.2-0.1,0.5-0.2,0.7c-0.1,0.2-0.2,0.5-0.3,0.7
									c-0.1,0.2-0.2,0.5-0.3,0.7c-0.1,0.1-0.2,0.2-0.4,0.3c-0.2,0.1-0.3,0.2-0.5,0.3c0.1,0,0.3,0,0.4,0c0,0.1-0.1,0.2-0.2,0.3
									c-0.2,0.2-0.2,0.6-0.1,0.8c0-0.1,0-0.3,0-0.4c0-0.1,0.1-0.2,0.2-0.3c0.1,0,0.1-0.1,0.2-0.1c0.2-0.1,0.4-0.1,0.6-0.2
									C24.8,7.1,25,7,25.1,6.8c0,0.4-0.1,0.8-0.3,1c0.3-0.1,0.4-0.3,0.6-0.5c0.1-0.2,0.2-0.5,0.2-0.8c0.1-0.4,0.1-0.8,0.2-1.2
									c0-0.2,0.1-0.5,0.1-0.7c0-0.3-0.1-0.7-0.3-0.9c-0.2-0.3-0.6-0.4-0.9-0.4"/>
							</g>
						</g>
					</g>
				</g>
			</g>
			<g>
				<g>
					<g>
						
							<ellipse transform="matrix(0.9941 -0.1083 0.1083 0.9941 -0.333 2.2556)" fill="#FFD15C" cx="20.6" cy="4.2" rx="0.5" ry="0.9"/>
					</g>
				</g>
			</g>
			<g>
				<g>
					<g>
						<g>
							<path fill="#425A6B" d="M20.3,2.5c0,0-0.5-0.1-0.8-0.2c-0.3-0.2-0.6-0.1-0.5,0c0,0.2,0.4,0.5,0.9,0.6
								c0.4,0.1,2.1,0.3,2.6,0.5c0.5,0.2,2.5,0.8,3.4,0.7c0.9-0.1,1.3-0.2,1.3-0.4c0-0.2-1-0.1-1.3-0.2l-1.6-0.2l-2.5-0.7L20.3,2.5z
								"/>
						</g>
					</g>
				</g>
				<g>
					<g>
						<g>
							<path fill="#344A5E" d="M20.6,2.6c-0.4,0-0.9-0.1-1.3-0.2c-0.1,0-0.1,0.1-0.1,0.1c0,0,0,0,0,0c0,0,0.1,0,0.1,0.1
								c0.2,0.1,0.5,0.2,0.7,0.2c0.2,0,0.4,0,0.7,0c0.3,0,0.7,0.1,1,0.2c0.6,0.1,1.1,0.3,1.7,0.4c0,0,1.6,0.5,2.4,0.5
								c0.8,0,0.8-0.1,0.9-0.1c0.1-0.1,0.1-0.1-0.1-0.1c-0.3,0-1.2-0.1-1.2-0.1l-3.5-0.7L20.6,2.6z"/>
						</g>
					</g>
				</g>
				<g>
					<g>
						<g>
							<path fill="#344A5E" d="M25.8,3.6c0,0.1,0,0.2,0,0.3c-0.8,0-2.4-0.5-2.4-0.5c-0.6-0.1-1.1-0.3-1.7-0.4
								c-0.3-0.1-0.7-0.2-1-0.2c-0.2,0-0.4,0-0.7,0c0,0,0,0-0.1,0l0.1-0.2l0.8-2.1c0,0,0-0.4,0.5-0.5C21.9,0,22.6,0,23,0.1
								c0.4,0.1,1.2,0.2,1.7,0.3c0.4,0,0.9,0.2,0.9,0.5C25.6,1.1,25.7,2.7,25.8,3.6z"/>
						</g>
					</g>
				</g>
				<g>
					<g>
						<path fill="#344A5E" d="M20,2.7c0.3,0.1,0.5,0.2,0.8,0.2c0.8,0.1,1.7,0.3,2.5,0.5c0.9,0.3,1.9,0.5,2.8,0.5
							c0.1,0,0.1,0,0.1-0.1c-0.5-0.2-1.1-0.3-1.6-0.5C24,3.1,23.5,3,22.9,2.8c-0.4-0.1-0.9-0.2-1.3-0.3c-0.3,0-0.7-0.1-1-0.1
							c-0.2,0-0.3,0-0.5,0.1"/>
					</g>
				</g>
			</g>
			<g>
				<g>
					<g>
						<path fill="#425A6B" d="M23.3,7.4c0,0,0.1,1.4,0.3,1.6c0.2,0.2,0,0.1,0,0.1S22,8.3,20.9,7c0,0-2.3-0.1-2.9,1.9
							c-0.6,2.1-0.4,6.8-0.1,7.4c0.3,0.7,2.6,0.7,3.6,0.4s2.8-1.7,3.2-2.8c0.3-0.8,0.5-1.7,0.1-3c-0.2-0.5-0.3-1.1-0.6-1.6
							C23.5,8.4,23.3,7.4,23.3,7.4z"/>
					</g>
				</g>
			</g>
		</g>
	</g>
	<g>
		<g>
			<g>
				<g>
					<g>
						<path fill="#425A6B" d="M26.2,44c0,0,0.4,0.6,0.5,1.2c0.1,0.6,0.1,1.5,0.1,1.5H27v-1.9c0,0,0.4,0.2,0.7,0.5
							c0.2,0.3,0.8,1,1,1.3c0.2,0.3,0.8,0.6,1.7,0.6c1-0.1,3.2-0.4,3.2-0.6l-1-0.2c0,0-5.5-1.3-5.8-2.1C26.4,43.4,26.2,44,26.2,44z"
							/>
					</g>
				</g>
			</g>
			<g>
				<g>
					<g>
						<path fill="#F26F5A" d="M26.1,38.1l0.8,3.8c0,0-0.6,0.8-0.8,1.8c0,0.2,0,0.4,0.2,0.5c0.2,0.2,0.6,0.5,0.9,0.6
							c0.7,0.3,1.4,1.5,1.7,1.9c0.3,0.3,1.2,0.5,1.8,0.4c0.6-0.1,2.9-0.5,2.9-0.5s0.1-0.3-0.4-0.3s-2.2-0.2-2.6-0.7s-0.8-1.9-0.9-3
							c-0.1-1.1-0.2-5.2-0.2-5.2L26.1,38.1z"/>
					</g>
				</g>
			</g>
		</g>
		<g>
			<g>
				<g>
					<path fill="#344A5E" d="M23.6,21.9c0,0,2.7,4.7,3.1,5.7c0.4,1,1.3,2.7,1.7,3.3s0.5,2,0.5,2l0.8,4.8c0,0-1.1,0.6-2.7,0.7
						c-1.6,0.1-2.6,0.5-2.6,0.5s-0.4-2.2-0.8-3.1c-0.4-0.9-0.8-3.1-0.8-3.1L21,28.9C21,28.9,21.6,21.1,23.6,21.9z"/>
				</g>
			</g>
		</g>
	</g>
	<g>
		<g>
			<g>
				<path fill="#425A6B" d="M24.3,20.1c0,0,0.6,0.7-0.5,0.1c-1.1-0.5-2.4-1.1-2.9-1.2c-0.4-0.1-2.4-0.2-2.6-0.5c0,0-3,2.6-2,6.7
					c1.1,4.1-1.5,9.9-1.5,9.9s-0.6,3.2-0.5,3.7c0,0,2,1.2,2.6,1.2c0.5,0.1,1.7,0.3,2,0.1c0,0,1.4-5,1.7-6.1c0.2-1,0.6-4.2,0.8-4.7
					c0.2-0.5,2.7-6.7,2.7-7.6c0-0.6,0.1-0.8,0.2-0.8c0.1-0.1,0.2-0.1,0.3-0.3C24.6,20.5,24.7,20.2,24.3,20.1"/>
			</g>
		</g>
	</g>
	<g>
		<g>
			<g>
				<g>
					<path fill="#FFD15C" d="M21,8.8c-0.1-0.1-0.2-0.2-0.4-0.3c-1-0.3-2,0.3-2.2,1.3l-0.1,0.3c-0.2,0.9-0.3,2.7-0.3,2.7
						s0.1,3.7,0,4.1c-0.1,0.4,0,0.3,0,0.7s0.4,2.5,0.4,2.5l1.1,3.7c0,0,0,0.4,0.1,0.6c0,0.2,0.1,0.5,0.1,0.7c0,0.2,0,1.6,0,1.6
						l0.1,1l0.4,0.6l0.2-0.1l-0.2-0.4l0-0.8l0.1,0.8l0.4,0.9l0.3-0.1l0-0.2l0.1,0.4h0.4l-0.2-1.8l0.3,1.6l0.4,0c0.1-0.3,0-1.7,0-1.7
						c0.2,1,0.7,0.5,0.7,0.5l-0.1-0.4c0,0-0.1-0.5-0.2-0.7c-0.1-0.2-0.1-0.7-0.1-0.7l-1-1.4c0-0.3-0.3-1-0.5-1.6
						c-0.2-0.6-0.5-3.3-0.7-4.1c-0.2-0.8,0.1-2.1,0.1-2.1s0.9-4.5,0.9-4.9C21.2,10.3,21.2,9.4,21,8.8z"/>
				</g>
			</g>
		</g>
	</g>
	<g>
		<g>
			<path fill="#F26F5A" d="M20.5,5.1c0.2,0.7,0.4,1.4,0.7,2c0.1,0.3,0.3,0.5,0.4,0.8c0.1,0.4,0.1,0.9,0.1,1.3c0-0.3-0.2-0.5-0.4-0.7
				c-0.2-0.2-0.4-0.4-0.5-0.6c-0.1-0.2-0.1-0.4-0.1-0.6c-0.1,0.3-0.2,0.7,0,1c0.1,0.1,0.1,0.3,0.2,0.4c0.1,0.2,0.2,0.3,0.3,0.5
				c0.1,0.1,0.2,0.3,0.2,0.5c0.1,0.2,0,0.5,0,0.7c0,0.2-0.1,0.5-0.2,0.7c-0.1,0.2-0.3,0.4-0.6,0.4c0.1-0.1,0.1-0.2,0.1-0.3
				c0-0.3-0.2-0.5-0.3-0.7c-0.3-0.4-0.7-0.8-0.9-1.2c-0.3-0.6-0.3-1.2-0.2-1.9c0.1-0.6,0.4-1.2,0.7-1.7"/>
		</g>
	</g>
</g>
</svg>
