<?xml version="1.0" encoding="utf-8"?>
<!-- Generator: Adobe Illustrator 18.0.0, SVG Export Plug-In . SVG Version: 6.00 Build 0)  -->
<!DOCTYPE svg PUBLIC "-//W3C//DTD SVG 1.1//EN" "http://www.w3.org/Graphics/SVG/1.1/DTD/svg11.dtd">
<svg version="1.1" id="Layer_1" xmlns="http://www.w3.org/2000/svg" xmlns:xlink="http://www.w3.org/1999/xlink" x="0px" y="0px"
	 viewBox="0 0 48 48" enable-background="new 0 0 48 48" xml:space="preserve">
<g>
	<rect x="3.1" y="18" fill="#CDD6E0" width="41.8" height="5.5"/>
	<rect x="3.1" y="40.6" fill="#CDD6E0" width="41.8" height="3.3"/>
	<rect x="0" y="15.3" fill="#ACB3BA" width="3.1" height="32.7"/>
	<rect x="44.9" y="15.3" fill="#ACB3BA" width="3.1" height="32.7"/>
	<path fill="#F2F2F2" d="M12.9,37L12.9,37c-4.5,0-8.2-3.7-8.2-8.2V4.7H21v24.2C21,33.4,17.4,37,12.9,37z"/>
	<path fill="#FFD15C" d="M12.9,35c-3.4,0-6.2-2.8-6.2-6.2V12.5H19v16.4C19,32.2,16.3,35,12.9,35z"/>
	<path fill="#F2F2F2" d="M21.2,0H4.5C3.3,0,2.2,1,2.2,2.3c0,1.3,1,2.3,2.3,2.3h16.6c1.3,0,2.3-1,2.3-2.3C23.5,1,22.5,0,21.2,0z"/>
	<rect x="4.7" y="4.7" fill="#E4EAEF" width="16.3" height="1.3"/>
	<path fill="#F2F2F2" d="M35.1,37L35.1,37c-4.5,0-8.2-3.7-8.2-8.2V4.7h16.3v24.2C43.3,33.4,39.7,37,35.1,37z"/>
	<path fill="#F2F2F2" d="M43.5,0H26.8c-1.3,0-2.3,1-2.3,2.3c0,1.3,1,2.3,2.3,2.3h16.6c1.3,0,2.3-1,2.3-2.3C45.8,1,44.7,0,43.5,0z"/>
	<path fill="#84DBFF" d="M35.1,35c-3.4,0-6.2-2.8-6.2-6.2V12.5h12.3v16.4C41.3,32.2,38.5,35,35.1,35z"/>
	<rect x="27" y="4.7" fill="#E4EAEF" width="16.3" height="1.3"/>
	<g>
		<circle fill="#FFFFFF" cx="10" cy="30.4" r="1.3"/>
		<circle fill="#FFFFFF" cx="14.3" cy="26.1" r="1.3"/>
		<circle fill="#FFFFFF" cx="11.3" cy="21.5" r="1.3"/>
		<circle fill="#FFFFFF" cx="15.7" cy="17.1" r="1.3"/>
	</g>
	<g>
		<circle fill="#FFFFFF" cx="38" cy="30.4" r="1.3"/>
		<circle fill="#FFFFFF" cx="33.7" cy="26.1" r="1.3"/>
		<circle fill="#FFFFFF" cx="36.7" cy="21.5" r="1.3"/>
		<circle fill="#FFFFFF" cx="32.3" cy="17.1" r="1.3"/>
	</g>
</g>
</svg>
