<?xml version="1.0" encoding="utf-8"?>
<!-- Generator: Adobe Illustrator 19.0.1, SVG Export Plug-In . SVG Version: 6.00 Build 0)  -->
<svg version="1.1" id="Layer_1" xmlns="http://www.w3.org/2000/svg" xmlns:xlink="http://www.w3.org/1999/xlink" x="0px" y="0px"
	 viewBox="0 0 48 48" style="enable-background:new 0 0 48 48;" xml:space="preserve">
<style type="text/css">
	.st0{fill:#415A6B;}
	.st1{fill:#ADB3BA;}
	.st2{fill:#E8EAE9;}
	.st3{fill:#55C0EB;}
	.st4{fill:#F3705A;}
	.st5{fill:#FFFFFF;}
	.st6{fill:#FFD15C;}
	.st7{fill:#344A5E;}
	.st8{fill:#CED6E0;}
	.st9{fill:#F05540;}
	.st10{fill:#F7B64C;}
	.st11{fill:#F3F3F3;}
	.st12{fill:#66C6B9;}
	.st13{fill:#4ABAA5;}
	.st14{fill:#8AD7F8;}
	.st15{fill:none;}
	.st16{fill:#E53D35;}
</style>
<g>
	<g>
		<g>
			<path class="st2" d="M44,41.1V48H4c-2.2,0-4-1.8-4-4V4c0-2.2,1.8-4,4-4h31.9c2.2,0,4,1.8,4,4v37H44z"/>
			<g>
				<path class="st8" d="M39.9,11.8V44c0,2.2,1.8,4,4,4c2.2,0,4-1.8,4-4V11.8H39.9z"/>
			</g>
			<polygon class="st1" points="35.9,14.4 35.9,11.4 4,11.4 4,14.4 			"/>
			<g>
				<polygon class="st4" points="35.9,7 35.9,4 4,4 4,7 				"/>
			</g>
			<polygon class="st1" points="35.9,36.6 35.9,33.6 4,33.6 4,36.6 			"/>
			<polygon class="st1" points="35.9,44 35.9,41 4,41 4,44 			"/>
			<g>
				<path class="st9" d="M20.4,21h1.2v3.8c0,0.5,0,0.9-0.1,1.2c-0.1,0.4-0.3,0.6-0.6,0.8c-0.3,0.2-0.7,0.3-1.2,0.3
					c-0.6,0-1.1-0.2-1.4-0.5c-0.3-0.3-0.5-0.8-0.5-1.5l1.2-0.1c0,0.3,0.1,0.6,0.2,0.7c0.1,0.2,0.3,0.3,0.6,0.3
					c0.3,0,0.5-0.1,0.6-0.2s0.2-0.5,0.2-1V21z"/>
				<path class="st9" d="M22.7,24c0-0.6,0.1-1.1,0.3-1.6c0.1-0.3,0.3-0.6,0.6-0.8c0.2-0.2,0.5-0.4,0.8-0.5c0.4-0.2,0.8-0.2,1.3-0.2
					c0.9,0,1.6,0.3,2.1,0.8c0.5,0.6,0.8,1.3,0.8,2.3c0,1-0.3,1.7-0.8,2.3c-0.5,0.6-1.2,0.8-2.1,0.8c-0.9,0-1.6-0.3-2.1-0.8
					C23,25.8,22.7,25,22.7,24z M24,24c0,0.7,0.2,1.2,0.5,1.6c0.3,0.4,0.7,0.5,1.2,0.5s0.9-0.2,1.2-0.5c0.3-0.4,0.5-0.9,0.5-1.6
					c0-0.7-0.2-1.2-0.5-1.6c-0.3-0.3-0.7-0.5-1.2-0.5s-0.9,0.2-1.2,0.5S24,23.3,24,24z"/>
				<path class="st9" d="M29.5,21H32c0.5,0,0.8,0,1.1,0.1c0.2,0,0.4,0.1,0.6,0.3c0.2,0.1,0.3,0.3,0.5,0.5c0.1,0.2,0.2,0.4,0.2,0.7
					c0,0.3-0.1,0.5-0.2,0.8c-0.2,0.2-0.4,0.4-0.6,0.5c0.4,0.1,0.7,0.3,0.9,0.5c0.2,0.3,0.3,0.6,0.3,0.9c0,0.3-0.1,0.5-0.2,0.8
					c-0.1,0.3-0.3,0.5-0.5,0.6S33.4,27,33.1,27c-0.2,0-0.7,0-1.5,0h-2.1V21z M30.8,22v1.4h0.8c0.5,0,0.8,0,0.9,0
					c0.2,0,0.4-0.1,0.5-0.2s0.2-0.3,0.2-0.5c0-0.2-0.1-0.3-0.2-0.5c-0.1-0.1-0.3-0.2-0.5-0.2c-0.1,0-0.5,0-1,0H30.8z M30.8,24.4V26
					h1.1c0.4,0,0.7,0,0.8,0c0.2,0,0.3-0.1,0.4-0.2c0.1-0.1,0.2-0.3,0.2-0.5c0-0.2,0-0.3-0.1-0.5s-0.2-0.2-0.4-0.3
					c-0.2-0.1-0.5-0.1-1.1-0.1H30.8z"/>
			</g>
		</g>
		<g>
			<path class="st7" d="M16.2,13.7c-5.4,5.4-5.4,14.3,0,19.7c5.4,5.4,14.3,5.4,19.7,0c5.4-5.4,5.4-14.3,0-19.7
				C30.4,8.3,21.6,8.3,16.2,13.7z M33,30.6c-3.8,3.8-10.1,3.8-13.9,0s-3.8-10.1,0-13.9s10.1-3.8,13.9,0S36.8,26.7,33,30.6z"/>
			<g>
				<path class="st0" d="M39.2,32c0,0.3-0.1,0.5-0.3,0.7l-3.8,3.8c-0.4,0.4-1.1,0.4-1.5,0c-0.2-0.2-0.3-0.5-0.3-0.7s0.1-0.5,0.3-0.7
					l3.8-3.8c0.4-0.4,1.1-0.4,1.5,0C39.1,31.4,39.2,31.7,39.2,32z"/>
			</g>
			<g>
				<path class="st12" d="M39.9,42.6c-0.9-2.8-4.9-3-4.8-6.1l3.8-3.8c3.1-0.2,3.3,3.8,6.1,4.8c1.3,0.4,2.1,1.7,1.7,3.2
					c-0.5,1.6-2,3.1-3.6,3.6C41.6,44.7,40.3,43.9,39.9,42.6z"/>
			</g>
		</g>
	</g>
</g>
</svg>
