<?xml version="1.0" encoding="utf-8"?>
<!-- Generator: Adobe Illustrator 20.1.0, SVG Export Plug-In . SVG Version: 6.00 Build 0)  -->
<!DOCTYPE svg PUBLIC "-//W3C//DTD SVG 1.1//EN" "http://www.w3.org/Graphics/SVG/1.1/DTD/svg11.dtd">
<svg version="1.1" id="Layer_1" xmlns="http://www.w3.org/2000/svg" xmlns:xlink="http://www.w3.org/1999/xlink" x="0px" y="0px"
	 viewBox="0 0 49 49" enable-background="new 0 0 49 49" xml:space="preserve">
<g>
	<rect x="6.2" y="24" fill="#40596B" width="36.5" height="18.3"/>
	<path fill="#CDD6E0" d="M48.5,16.6L26.8,1.1c-1.4-0.8-3.1-0.8-4.5,0L0.5,16.6V19l0,0h48V16.6z"/>
	<rect x="0.5" y="46.4" fill="#CDD6E0" width="48" height="2.1"/>
	<rect x="1.7" y="44.3" fill="#E2E2E2" width="45.6" height="2.1"/>
	<rect x="2.8" y="42.2" fill="#F2F2F2" width="43.4" height="2.1"/>
	<rect x="0.5" y="19" fill="#ACB3BA" width="48" height="5"/>
	<rect x="4.4" y="26.2" fill="#F2F2F2" width="3.7" height="13.7"/>
	<rect x="2.7" y="24" fill="#CDD6E0" width="6.9" height="2.3"/>
	<rect x="2.8" y="40" fill="#CDD6E0" width="6.9" height="2.3"/>
	<rect x="40.8" y="26.3" fill="#F2F2F2" width="3.7" height="13.7"/>
	<rect x="39.2" y="24" fill="#CDD6E0" width="6.9" height="2.3"/>
	<rect x="39.2" y="39.9" fill="#CDD6E0" width="6.9" height="2.3"/>
	<rect x="16.6" y="26.3" fill="#F2F2F2" width="3.7" height="13.7"/>
	<rect x="15" y="24" fill="#CDD6E0" width="6.9" height="2.3"/>
	<rect x="15" y="40" fill="#CDD6E0" width="6.9" height="2.3"/>
	<rect x="28.7" y="26.3" fill="#F2F2F2" width="3.7" height="13.7"/>
	<rect x="27.1" y="24" fill="#CDD6E0" width="6.9" height="2.3"/>
	<rect x="27.1" y="40" fill="#CDD6E0" width="6.9" height="2.3"/>
	<rect x="2.8" y="24" fill="#C1CFDB" width="6.9" height="1.2"/>
	<rect x="15" y="24" fill="#C1CFDB" width="6.9" height="1.2"/>
	<rect x="27.1" y="24" fill="#C1CFDB" width="6.9" height="1.2"/>
	<rect x="39.3" y="24" fill="#C1CFDB" width="6.9" height="1.2"/>
	<path fill="#40596B" d="M24.5,7.1L24.5,7.1c-2,0-3.7,1.6-3.7,3.6s1.6,3.6,3.6,3.6l0,0c2,0,3.6-1.6,3.6-3.6
		C28.2,8.7,26.5,7.1,24.5,7.1z"/>
</g>
</svg>
