<?xml version="1.0" encoding="utf-8"?>
<!-- Generator: Adobe Illustrator 18.0.0, SVG Export Plug-In . SVG Version: 6.00 Build 0)  -->
<!DOCTYPE svg PUBLIC "-//W3C//DTD SVG 1.1//EN" "http://www.w3.org/Graphics/SVG/1.1/DTD/svg11.dtd">
<svg version="1.1" id="Layer_1" xmlns="http://www.w3.org/2000/svg" xmlns:xlink="http://www.w3.org/1999/xlink" x="0px" y="0px"
	 viewBox="0 0 48 48" enable-background="new 0 0 48 48" xml:space="preserve">
<g>
	<circle fill="#40596B" cx="23.9" cy="24" r="23.9"/>
	<path fill="none" d="M18.5,14.5l-2.8-4.8c-1.7,0.9-3.1,2.2-4.4,3.6l4.2,3.5C16.4,15.9,17.4,15.1,18.5,14.5z"/>
	<path fill="none" d="M32.4,30.9l4.2,3.6c1.2-1.5,2.2-3.2,2.8-5l-5.2-1.9C33.8,28.8,33.2,29.9,32.4,30.9z"/>
	<path fill="none" d="M25.8,34.8l1,5.5c2-0.4,3.8-1,5.4-2l-2.8-4.8C28.4,34.1,27.1,34.6,25.8,34.8z"/>
	<path fill="none" d="M13.6,20.1l-5.2-1.9c-0.7,1.8-1,3.6-1.1,5.6l5.5,0C12.9,22.5,13.2,21.2,13.6,20.1z"/>
	<path fill="none" d="M32.1,16.8l4.2-3.6c-1.2-1.4-2.7-2.7-4.4-3.6l-2.8,4.8C30.3,15,31.3,15.8,32.1,16.8z"/>
	<path fill="none" d="M18.3,33.4l-2.8,4.8c1.7,1,3.5,1.7,5.4,2l1-5.5C20.6,34.6,19.4,34.1,18.3,33.4z"/>
	<path fill="none" d="M28,16.5l-2.6,4.5c-0.3-0.2-0.7-0.3-1-0.4l0.9-5c-0.5-0.1-0.9-0.1-1.4-0.1c-0.5,0-1,0.1-1.5,0.1l0.9,5
		c-0.4,0.1-0.7,0.2-1,0.4l-2.6-4.4c-0.9,0.5-1.6,1.1-2.3,1.9l4,3.3c-0.2,0.3-0.4,0.6-0.6,1l-5-1.8c-0.4,0.9-0.6,1.9-0.6,2.9l5.3,0
		c0,0.4,0.1,0.8,0.2,1.1l-5.1,1.9c0.3,1,0.8,1.9,1.5,2.6l4.2-3.5c0.3,0.3,0.5,0.5,0.9,0.7l-2.8,4.8c0.9,0.5,1.8,0.9,2.9,1.1l1-5.5
		c0.4,0.1,0.8,0.1,1.2,0l1,5.5c1-0.2,2-0.6,2.8-1.1l-2.8-4.8c0.3-0.2,0.6-0.4,0.9-0.7l4.2,3.5c0.6-0.8,1.1-1.7,1.5-2.7l-5.1-1.9
		c0.1-0.4,0.2-0.7,0.2-1.1l5.3,0c0-1-0.2-2-0.6-2.9l-4.9,1.8c-0.1-0.4-0.3-0.7-0.6-1l4-3.4C29.7,17.6,28.9,17,28,16.5z"/>
	<path fill="none" d="M23.9,13c0.6,0,1.2,0.1,1.8,0.2l0.9-5.5c-0.9-0.2-1.8-0.3-2.8-0.3c-1,0-1.9,0.1-2.9,0.3l1,5.4
		C22.6,13.1,23.2,13,23.9,13z"/>
	<path fill="none" d="M34.1,20c0.5,1.2,0.7,2.4,0.7,3.7l5.5,0c0-2-0.4-3.9-1.1-5.6L34.1,20z"/>
	<path fill="none" d="M13.5,27.6l-5.2,1.9c0.6,1.8,1.6,3.5,2.8,5l4.2-3.6C14.6,29.9,13.9,28.8,13.5,27.6z"/>
	<path fill="#334A5E" d="M34.8,24c0,1.2-0.2,2.4-0.6,3.5l5.2,1.9c0.6-1.7,0.9-3.5,0.9-5.4c0-0.1,0-0.2,0-0.3l-5.5,0
		C34.8,23.8,34.8,23.9,34.8,24z"/>
	<path fill="#334A5E" d="M29.5,33.4l2.8,4.8c1.7-1,3.2-2.3,4.4-3.8l-4.2-3.6C31.6,31.9,30.6,32.8,29.5,33.4z"/>
	<path fill="#334A5E" d="M23.9,35c-0.7,0-1.3-0.1-1.9-0.2l-1,5.5c0.9,0.2,1.9,0.3,2.9,0.3c1,0,2-0.1,2.9-0.3l-1-5.5
		C25.2,34.9,24.5,35,23.9,35z"/>
	<path fill="#334A5E" d="M29.2,14.4L32,9.6c-1.6-0.9-3.4-1.6-5.3-1.9l-0.9,5.5C27,13.4,28.1,13.8,29.2,14.4z"/>
	<path fill="#334A5E" d="M15.4,30.9l-4.2,3.6c1.2,1.5,2.7,2.8,4.4,3.7l2.8-4.8C17.2,32.8,16.2,31.9,15.4,30.9z"/>
	<path fill="#334A5E" d="M22,13.2l-1-5.4c-1.9,0.3-3.7,1-5.3,1.9l2.8,4.8C19.5,13.8,20.7,13.4,22,13.2z"/>
	<path fill="#334A5E" d="M34.1,20l5.2-1.9c-0.7-1.8-1.7-3.4-2.9-4.9l-4.2,3.6C33,17.7,33.6,18.8,34.1,20z"/>
	<path fill="#334A5E" d="M12.9,24c0-0.1,0-0.1,0-0.2l-5.5,0c0,0.1,0,0.1,0,0.2c0,1.9,0.3,3.8,0.9,5.5l5.2-1.9
		C13.1,26.4,12.9,25.2,12.9,24z"/>
	<path fill="#334A5E" d="M15.6,16.8l-4.2-3.5c-1.2,1.4-2.2,3.1-2.9,4.9l5.2,1.9C14.1,18.9,14.7,17.8,15.6,16.8z"/>
	<path fill="#334A5E" d="M20.6,23.8l-5.3,0c0,0.1,0,0.1,0,0.2c0,1,0.2,1.9,0.5,2.8l5.1-1.9C20.7,24.5,20.6,24.2,20.6,23.8z"/>
	<path fill="#334A5E" d="M25.5,20.9l2.6-4.5c-0.8-0.5-1.8-0.8-2.7-1l-0.9,5C24.8,20.6,25.1,20.8,25.5,20.9z"/>
	<path fill="#334A5E" d="M21.4,21.7l-4-3.3c-0.6,0.7-1.2,1.6-1.5,2.5l5,1.8C20.9,22.3,21.1,22,21.4,21.7z"/>
	<path fill="#334A5E" d="M23.3,20.6l-0.9-5c-1,0.2-1.9,0.5-2.7,1l2.6,4.4C22.6,20.8,22.9,20.6,23.3,20.6z"/>
	<path fill="#334A5E" d="M26.9,24.9l5.1,1.9c0.3-0.9,0.5-1.8,0.5-2.7c0-0.1,0-0.2,0-0.2l-5.3,0C27.1,24.2,27.1,24.5,26.9,24.9z"/>
	<path fill="#334A5E" d="M26.9,22.6l4.9-1.8c-0.4-0.9-0.9-1.8-1.5-2.5l-4,3.4C26.6,22,26.8,22.3,26.9,22.6z"/>
	<path fill="#334A5E" d="M25.5,26.6l2.8,4.8c0.9-0.5,1.7-1.2,2.3-2l-4.2-3.5C26.1,26.1,25.8,26.4,25.5,26.6z"/>
	<path fill="#334A5E" d="M23.3,27l-1,5.5c0.5,0.1,1,0.1,1.5,0.1c0.5,0,1-0.1,1.5-0.1l-1-5.5C24.1,27,23.7,27,23.3,27z"/>
	<path fill="#334A5E" d="M21.4,25.9l-4.2,3.5c0.6,0.8,1.4,1.5,2.3,2l2.8-4.8C21.9,26.4,21.6,26.2,21.4,25.9z"/>
	<g>
		<g>
			<path fill="#ACB3BA" d="M23.9,40.5c-1,0-1.9-0.1-2.9-0.3l-0.4,2.3c1.1,0.2,2.2,0.3,3.3,0.3c1.1,0,2.2-0.1,3.3-0.3l-0.4-2.3
				C25.8,40.4,24.9,40.5,23.9,40.5z"/>
			<path fill="#ACB3BA" d="M39.3,18.1l2.2-0.8c-0.8-2.1-1.9-3.9-3.3-5.6l-1.8,1.5C37.6,14.7,38.6,16.3,39.3,18.1z"/>
			<path fill="#ACB3BA" d="M42.7,23.7l-2.4,0c0,0.1,0,0.2,0,0.3c0,1.9-0.3,3.7-0.9,5.4l2.2,0.8c0.7-2,1.1-4.1,1.1-6.2
				C42.8,23.9,42.7,23.8,42.7,23.7z"/>
			<path fill="#ACB3BA" d="M11.3,13.3l-1.8-1.5c-1.4,1.6-2.5,3.5-3.3,5.6l2.2,0.8C9.1,16.4,10.1,14.7,11.3,13.3z"/>
			<path fill="#ACB3BA" d="M32.2,38.2l1.2,2.1c1.9-1.1,3.6-2.6,5-4.3l-1.8-1.5C35.4,36,33.9,37.2,32.2,38.2z"/>
			<path fill="#ACB3BA" d="M21,7.8l-0.4-2.3c-2.2,0.4-4.2,1.1-6.1,2.2l1.2,2C17.3,8.7,19.1,8.1,21,7.8z"/>
			<path fill="#ACB3BA" d="M7.4,24c0-0.1,0-0.1,0-0.2l-2.4,0c0,0.1,0,0.1,0,0.2c0,2.2,0.4,4.3,1.1,6.3l2.2-0.8
				C7.7,27.8,7.4,25.9,7.4,24z"/>
			<path fill="#ACB3BA" d="M11.1,34.5L9.3,36c1.4,1.7,3.1,3.1,5,4.3l1.2-2.1C13.9,37.3,12.4,36,11.1,34.5z"/>
			<path fill="#ACB3BA" d="M32,9.6l1.2-2.1c-1.9-1.1-3.9-1.8-6.1-2.2l-0.4,2.3C28.6,8.1,30.3,8.7,32,9.6z"/>
		</g>
		<g>
			<path fill="#ACB3BA" d="M8.3,29.5l-2.2,0.8c0.7,2.1,1.8,4.1,3.2,5.7l1.8-1.5C9.9,33,9,31.3,8.3,29.5z"/>
			<path fill="#ACB3BA" d="M8.4,18.2l-2.2-0.8c-0.8,2-1.2,4.2-1.2,6.4l2.4,0C7.4,21.8,7.8,19.9,8.4,18.2z"/>
			<path fill="#ACB3BA" d="M15.7,9.7l-1.2-2c-1.9,1.1-3.6,2.5-5,4.1l1.8,1.5C12.6,11.8,14,10.6,15.7,9.7z"/>
			<path fill="#ACB3BA" d="M15.5,38.2l-1.2,2.1c1.9,1.1,4,1.9,6.2,2.3l0.4-2.3C19,39.9,17.2,39.2,15.5,38.2z"/>
			<path fill="#ACB3BA" d="M36.6,34.5l1.8,1.5c1.4-1.7,2.5-3.6,3.2-5.7l-2.2-0.8C38.8,31.3,37.9,33,36.6,34.5z"/>
			<path fill="#ACB3BA" d="M26.8,40.2l0.4,2.3c2.2-0.4,4.3-1.2,6.2-2.3l-1.2-2.1C30.6,39.2,28.7,39.9,26.8,40.2z"/>
			<path fill="#ACB3BA" d="M23.9,7.5c0.9,0,1.9,0.1,2.8,0.3L27,5.4c-1-0.2-2.1-0.3-3.2-0.3c-1.1,0-2.2,0.1-3.3,0.3L21,7.8
				C21.9,7.6,22.9,7.5,23.9,7.5z"/>
			<path fill="#ACB3BA" d="M40.4,23.7l2.4,0c0-2.3-0.5-4.4-1.2-6.5l-2.2,0.8C40,19.9,40.3,21.7,40.4,23.7z"/>
			<path fill="#ACB3BA" d="M36.4,13.2l1.8-1.5c-1.4-1.6-3.1-3-5-4.1L32,9.6C33.6,10.6,35.1,11.8,36.4,13.2z"/>
		</g>
	</g>
	<path fill="#FF7058" d="M23.9,13c-6.1,0-11,4.9-11,11s4.9,11,11,11s11-4.9,11-11S29.9,13,23.9,13z M23.9,32.6
		c-4.8,0-8.6-3.9-8.6-8.6s3.9-8.6,8.6-8.6s8.6,3.9,8.6,8.6S28.6,32.6,23.9,32.6z"/>
	<circle fill="#FFD15C" cx="23.9" cy="24" r="3.5"/>
	<g>
		<polygon fill="#FFFFFF" points="26,20.4 24.1,24 27.8,22.1 		"/>
		<path fill="#F2F2F2" d="M26.3,21.9L26.3,21.9c-1-1-0.9-2.7,0.2-3.7L40.6,6.5l1.1,1.1L30,21.7C29,22.8,27.3,22.9,26.3,21.9z"/>
		<path fill="#F1543F" d="M44.3,0.9c-0.9-0.9-2.4-0.9-3.3,0s-0.7,7-0.7,7l4.5-4.5C45.2,2.5,45,1.5,44.3,0.9z"/>
		<path fill="#FF7058" d="M47.3,3.8c-0.7-0.7-1.6-0.8-2.5-0.5l-4.5,4.5c0,0,6.1,0.2,7-0.7S48.2,4.8,47.3,3.8z"/>
	</g>
</g>
</svg>
