<?xml version="1.0" encoding="utf-8"?>
<!-- Generator: Adobe Illustrator 18.0.0, SVG Export Plug-In . SVG Version: 6.00 Build 0)  -->
<!DOCTYPE svg PUBLIC "-//W3C//DTD SVG 1.1//EN" "http://www.w3.org/Graphics/SVG/1.1/DTD/svg11.dtd">
<svg version="1.1" id="Layer_1" xmlns="http://www.w3.org/2000/svg" xmlns:xlink="http://www.w3.org/1999/xlink" x="0px" y="0px"
	 viewBox="0 0 48 48" enable-background="new 0 0 48 48" xml:space="preserve">
<g>
	<path fill="#F2F2F2" d="M38.5,0H9.5c-1.7,0-3,1.3-3,3v42c0,1.7,1.3,3,3,3h28.9c1.7,0,3-1.3,3-3V3C41.5,1.3,40.1,0,38.5,0z"/>
	<g>
		<g>
			<g>
				<path fill="#FF7058" d="M29.7,8.9c0-2.4,1.9-4.1,4.1-5.4C36,4.7,38,6.5,38,8.9c0,1.3-1.1,2.4-2.4,2.4c-0.7,0-1.3-0.3-1.8-0.8
					c-0.4,0.5-1.1,0.8-1.8,0.8C30.7,11.2,29.7,10.2,29.7,8.9z"/>
			</g>
		</g>
	</g>
	<g>
		<g>
			<g>
				<path fill="#FF7058" d="M38,39.1c0,2.4-1.9,4.1-4.1,5.4c-2.2-1.2-4.1-3-4.1-5.4c0-1.3,1.1-2.4,2.4-2.4c0.7,0,1.3,0.3,1.8,0.8
					c0.4-0.5,1.1-0.8,1.8-0.8C36.9,36.8,38,37.8,38,39.1z"/>
			</g>
		</g>
	</g>
	<g>
		<g>
			<g>
				<path fill="#FF7058" d="M10,8.9c0-2.4,1.9-4.1,4.1-5.4c2.2,1.2,4.1,3,4.1,5.4c0,1.3-1.1,2.4-2.4,2.4c-0.7,0-1.3-0.3-1.8-0.8
					c-0.4,0.5-1.1,0.8-1.8,0.8C11.1,11.2,10,10.2,10,8.9z"/>
			</g>
		</g>
	</g>
	<g>
		<g>
			<g>
				<path fill="#FF7058" d="M30.4,21.7c0,3.7-3,6.4-6.4,8.3c-3.4-1.9-6.4-4.6-6.4-8.3c0-2,1.6-3.7,3.7-3.7c1.1,0,2.1,0.5,2.7,1.2
					c0.7-0.8,1.6-1.2,2.7-1.2C28.7,18,30.4,19.7,30.4,21.7z"/>
			</g>
		</g>
	</g>
	<g>
		<g>
			<g>
				<path fill="#FF7058" d="M18.3,39.1c0,2.4-1.9,4.1-4.1,5.4c-2.2-1.2-4.1-3-4.1-5.4c0-1.3,1.1-2.4,2.4-2.4c0.7,0,1.3,0.3,1.8,0.8
					c0.4-0.5,1.1-0.8,1.8-0.8C17.3,36.8,18.3,37.8,18.3,39.1z"/>
			</g>
		</g>
	</g>
</g>
</svg>
