<?xml version="1.0" encoding="utf-8"?>
<!-- Generator: Adobe Illustrator 18.0.0, SVG Export Plug-In . SVG Version: 6.00 Build 0)  -->
<!DOCTYPE svg PUBLIC "-//W3C//DTD SVG 1.1//EN" "http://www.w3.org/Graphics/SVG/1.1/DTD/svg11.dtd">
<svg version="1.1" id="Layer_1" xmlns="http://www.w3.org/2000/svg" xmlns:xlink="http://www.w3.org/1999/xlink" x="0px" y="0px"
	 viewBox="0 0 48 48" enable-background="new 0 0 48 48" xml:space="preserve">
<g>
	<g>
		<g>
			<g>
				<rect x="4.4" y="3.6" fill="#415A6B" width="39.3" height="40.1"/>
				<rect x="6.9" y="6.1" fill="#8AD7F8" width="15.9" height="35.2"/>
				<rect x="25.2" y="6.1" fill="#8AD7F8" width="15.9" height="35.2"/>
			</g>
		</g>
		<g>
			<path fill="#FFD15C" d="M46.2,3.6H1.8C0.8,3.6,0,2.8,0,1.8l0-0.1C0,0.8,0.8,0,1.8,0l44.4,0c1,0,1.8,0.8,1.8,1.8v0.1
				C48,2.8,47.2,3.6,46.2,3.6z"/>
		</g>
		<g>
			<path fill="#F3705A" d="M33.9,3.6c0.3,4.7,1.7,24.5,6.9,27.5c-3.1,2.7-4.8,11.2-4.8,16.9H46V3.6"/>
			<g>
				<path fill="#F05540" d="M46,31.9h-5.9c-0.4,0-0.8-0.4-0.8-0.8v0c0-0.4,0.4-0.8,0.8-0.8H46V31.9z"/>
			</g>
		</g>
		<g>
			<path fill="#F3705A" d="M15.1,3.6c-0.3,4.7-2.7,24.5-7.9,27.5c3.1,2.7,4.8,11.2,4.8,16.9H2V3.6"/>
			<g>
				<path fill="#F05540" d="M2,31.9h5.9c0.4,0,0.8-0.4,0.8-0.8v0c0-0.4-0.4-0.8-0.8-0.8H2V31.9z"/>
			</g>
		</g>
	</g>
</g>
</svg>
