<?xml version="1.0" encoding="utf-8"?>
<!-- Generator: Adobe Illustrator 18.0.0, SVG Export Plug-In . SVG Version: 6.00 Build 0)  -->
<!DOCTYPE svg PUBLIC "-//W3C//DTD SVG 1.1//EN" "http://www.w3.org/Graphics/SVG/1.1/DTD/svg11.dtd">
<svg version="1.1" id="Layer_1" xmlns="http://www.w3.org/2000/svg" xmlns:xlink="http://www.w3.org/1999/xlink" x="0px" y="0px"
	 viewBox="0 0 48 48" enable-background="new 0 0 48 48" xml:space="preserve">
<g>
	<g>
		<path fill="#415A6B" d="M43,6H5C3.8,6,2.9,6.9,2.9,8.1v29.4c0,1.2,0.9,2.1,2.1,2.1h38c1.2,0,2.1-0.9,2.1-2.1V8.1
			C45.1,6.9,44.2,6,43,6z"/>
		<g>
			<rect x="6.1" y="9.1" fill="#FFD15C" width="35.9" height="24.1"/>
		</g>
		<g>
			<path fill="#CED6E0" d="M6,42h36c3.3,0,6-2.7,6-6v0H29.5l-1.1,2h-8.8l-1.1-2H0v0C0,39.4,2.7,42,6,42z"/>
		</g>
		<g>
			<g>
				<circle fill="#8AD7F8" stroke="#FFFFFF" stroke-width="0.75" stroke-miterlimit="10" cx="24" cy="21.2" r="9.4"/>
			</g>
			<g>
				<ellipse fill="#55C0EB" stroke="#FFFFFF" stroke-width="0.75" stroke-miterlimit="10" cx="24" cy="21.2" rx="5.2" ry="9.4"/>
			</g>
			<line fill="#FFFFFF" stroke="#FFFFFF" stroke-width="0.75" stroke-miterlimit="10" x1="24" y1="30.6" x2="24" y2="11.8"/>
			<g>
				<line fill="#FFFFFF" stroke="#FFFFFF" stroke-width="0.75" stroke-miterlimit="10" x1="33.4" y1="21.2" x2="14.6" y2="21.2"/>
				<line fill="#FFFFFF" stroke="#FFFFFF" stroke-width="0.75" stroke-miterlimit="10" x1="15.8" y1="25.9" x2="32.2" y2="25.9"/>
				<line fill="#FFFFFF" stroke="#FFFFFF" stroke-width="0.75" stroke-miterlimit="10" x1="15.8" y1="16.5" x2="32.2" y2="16.5"/>
			</g>
		</g>
	</g>
</g>
</svg>
