<?xml version="1.0" encoding="utf-8"?>
<!-- Generator: Adobe Illustrator 16.0.0, SVG Export Plug-In . SVG Version: 6.00 Build 0)  -->
<!DOCTYPE svg PUBLIC "-//W3C//DTD SVG 1.1//EN" "http://www.w3.org/Graphics/SVG/1.1/DTD/svg11.dtd">
<svg version="1.1" id="Layer_1" xmlns="http://www.w3.org/2000/svg" xmlns:xlink="http://www.w3.org/1999/xlink" x="0px" y="0px"
	 width="48px" height="48px" viewBox="0 0 48 48" enable-background="new 0 0 48 48" xml:space="preserve">
<g>
	<path fill="#40596B" d="M43.994,6.43H4.006c-1.105,0-2,0.896-2,2v28.293c0,1.104,0.895,2,2,2h39.988c1.104,0,2-0.896,2-2V8.43
		C45.994,7.326,45.099,6.43,43.994,6.43"/>
	<rect x="4.756" y="9.18" fill="#FFFFFF" width="38.489" height="23.959"/>
	<path fill="#84DBFF" d="M19.457,28.061c-0.244,0.301-0.832,0.15-0.899-0.232c-0.058,0.131-0.255,0.045-0.355-0.057
		c-0.288-0.289-0.592-0.604-0.655-1.006c-0.028-0.182-0.016-0.389-0.146-0.518c-0.053-0.053-0.126-0.084-0.173-0.145
		c-0.087-0.107-0.059-0.266-0.067-0.406c-0.026-0.416-0.405-0.707-0.739-0.955c-0.178-0.131-0.364-0.291-0.388-0.51
		c-0.014-0.129,0.034-0.256,0.034-0.387c-0.001-0.41-0.436-0.656-0.701-0.967c-0.326-0.387-0.425-0.949-0.822-1.264
		c-0.076-0.063-0.168-0.111-0.266-0.121c-0.236-0.023-0.424,0.182-0.58,0.359c-0.342,0.385-0.734,0.729-1.162,1.014
		c-0.197,0.133-0.451,0.254-0.66,0.145c-0.158-0.082-0.277-0.285-0.451-0.25c-0.12,0.025-0.182,0.156-0.26,0.252
		c-0.277,0.342-0.804,0.271-1.24,0.34c-0.613,0.098-1.188,0.656-1.098,1.271c0.045,0.299,0.23,0.555,0.41,0.799
		c0.264,0.354,0.525,0.709,0.788,1.063c0.185,0.252,0.45,0.533,0.752,0.453c0.077-0.02,0.149-0.063,0.228-0.057
		c0.088,0.008,0.158,0.072,0.222,0.131c0.194,0.176,0.431,0.332,0.692,0.334c0.317,0.002,0.588-0.213,0.875-0.348
		c0.424-0.201,0.907-0.227,1.377-0.248c0.52-0.023,1.053-0.045,1.547,0.115c0.561,0.182,1.02,0.58,1.472,0.957
		s0.937,0.754,1.512,0.879c0.576,0.123,1.267-0.086,1.513-0.619"/>
	<path fill="#84DBFF" d="M13.325,24.641c-0.552-0.006-0.978-0.674-0.754-1.178c-0.222-0.105-0.529,0.09-0.714-0.072
		c-0.149-0.131-0.075-0.379,0.035-0.545c0.109-0.166,0.252-0.35,0.203-0.543c-0.082-0.152-0.326-0.061-0.42,0.084
		c-0.093,0.145-0.147,0.338-0.308,0.402c-0.146,0.059-0.317-0.027-0.399-0.16c-0.084-0.135-0.092-0.301-0.076-0.455
		c0.074-0.738,0.687-1.389,1.418-1.504c0.033,0.129,0.063,0.258,0.095,0.387c0.088-0.113,0.19-0.236,0.333-0.252
		c0.279-0.035,0.419,0.33,0.431,0.611c0.013,0.283,0.052,0.645,0.324,0.719c-0.125,0.014-0.249,0.027-0.374,0.043
		c0.441,0.504,1.029,0.879,1.675,1.066c0.099,0.029,0.202,0.055,0.282,0.119c0.077,0.063,0.125,0.156,0.197,0.225
		c0.072,0.066,0.195,0.105,0.269,0.037c-0.002-0.297-0.276-0.521-0.553-0.633c-0.275-0.111-0.582-0.162-0.822-0.34
		c-0.366-0.268-0.481-0.756-0.571-1.201c-0.054-0.258-0.098-0.553,0.063-0.762c0.078-0.104,0.195-0.168,0.29-0.258
		c0.19-0.18,0.268-0.443,0.379-0.68c0.312-0.67,0.944-1.178,1.664-1.34c0.021,0.08,0.041,0.16,0.062,0.24
		c0.314-0.059,0.475-0.504,0.271-0.75c-0.063,0.002-0.126,0.004-0.188,0.008c-0.053-0.074,0.016-0.186,0.104-0.215
		c0.087-0.029,0.182-0.008,0.273-0.004c0.243,0.014,0.49-0.098,0.641-0.291c0.021,0.223,0.043,0.447,0.063,0.67
		c0.117,0.121,0.362-0.068,0.272-0.211c-0.03-0.047-0.079-0.078-0.114-0.121c-0.054-0.068-0.062-0.164-0.067-0.252
		c-0.033-0.453-0.064-0.906-0.097-1.359c-0.078,0.086-0.16,0.174-0.269,0.211s-0.25,0.006-0.297-0.1
		c-0.039-0.09,0-0.193-0.021-0.289c-0.044-0.191-0.321-0.236-0.487-0.129c-0.164,0.107-0.246,0.301-0.334,0.479
		c-0.22,0.441-0.533,0.836-0.914,1.15c0.006-0.186,0.041-0.373,0.108-0.547c-0.536,0.014-0.896-0.697-0.634-1.166
		s0.947-0.586,1.408-0.313c0.166-0.369,0.416-0.699,0.724-0.961c0.063-0.055,0.135-0.109,0.219-0.119
		c0.175-0.02,0.318,0.18,0.284,0.352c-0.035,0.172-0.199,0.293-0.37,0.332c-0.081,0.018-0.182,0.033-0.205,0.113
		c-0.015,0.057,0.021,0.113,0.058,0.158c0.191,0.238,0.449,0.422,0.736,0.523c0.049-0.18,0.012-0.385-0.098-0.537
		c0.181-0.021,0.361-0.043,0.543-0.064c-0.123-0.389-0.246-0.777-0.369-1.166c-0.04-0.125-0.079-0.268-0.021-0.385
		c0.059-0.121,0.197-0.178,0.322-0.225c0.383-0.139,0.764-0.279,1.146-0.418c-0.117,0.227-0.368,0.379-0.624,0.377
		c0.027,0.328,0.574,0.234,0.807,0.467c0.143,0.145,0.129,0.385,0.045,0.568c-0.085,0.184-0.225,0.336-0.322,0.512
		c-0.154,0.287-0.183,0.648-0.043,0.941c0.141,0.295,0.457,0.506,0.781,0.49c-0.017-0.223-0.033-0.449,0.04-0.66
		c0.072-0.209,0.257-0.396,0.479-0.4c0.123-0.002,0.244,0.053,0.365,0.037c0.238-0.031,0.377-0.307,0.608-0.365
		c0.233-0.061,0.548,0.092,0.683-0.107c0.045-0.066,0.049-0.15,0.056-0.23c0.06-0.734,0.544-1.422,1.217-1.727
		c-0.731-0.201-1.502-0.26-2.255-0.174c-0.365,0.043-0.735,0.117-1.096,0.045c-0.174-0.035-0.338-0.105-0.508-0.156
		c-0.664-0.205-1.408-0.135-2.024,0.188c-0.106,0.057-0.218,0.131-0.246,0.246c-0.03,0.115,0.087,0.262,0.194,0.211
		c-0.119,0.217-0.365,0.357-0.612,0.352c0.213,0.176,0.485,0.281,0.762,0.293c-0.512,0.051-0.966,0.467-1.062,0.973
		c-0.172-0.086-0.217-0.322-0.149-0.502s0.215-0.313,0.358-0.439c-0.42-0.066-0.87,0.18-1.041,0.568
		c-0.049,0.107-0.078,0.229-0.157,0.314c-0.079,0.088-0.233,0.123-0.31,0.035c-0.192-0.318,0.179-0.705,0.543-0.777
		c0.113-0.023,0.237-0.033,0.326-0.107c0.166-0.137,0.129-0.406,0.25-0.586c0.11-0.164,0.361-0.275,0.319-0.471
		c-0.034-0.16-0.243-0.199-0.407-0.199c-0.14,0.002-0.285,0.008-0.408,0.074c-0.123,0.068-0.213,0.213-0.17,0.346
		c0.019,0.063,0.063,0.117,0.064,0.182c0.001,0.148-0.205,0.186-0.354,0.182c-0.594-0.02-1.19,0.084-1.742,0.303
		c0.298,0.154,0.566,0.365,0.789,0.615c-0.662,0.125-1.248-0.66-1.907-0.525c-0.192,0.039-0.38,0.156-0.57,0.113
		c-0.146-0.035-0.253-0.154-0.376-0.238c-0.479-0.328-1.128-0.102-1.646,0.158c-0.471,0.236-0.971,0.535-1.137,1.035
		c-0.016,0.043-0.027,0.094-0.009,0.137c0.022,0.053,0.085,0.076,0.142,0.09c0.439,0.096,0.971-0.164,1.313,0.127
		c0.205,0.174,0.24,0.475,0.237,0.742c-0.006,0.568-0.118,1.137-0.326,1.666c-0.12,0.303-0.271,0.594-0.354,0.908
		c-0.188,0.729,0.015,1.504-0.096,2.248c-0.033,0.227-0.095,0.451-0.076,0.678c0.021,0.227,0.147,0.467,0.366,0.529
		c-0.043-0.514,0.052-1.039,0.272-1.506c0.189,0.418,0.271,0.883,0.234,1.338c-0.012,0.154-0.035,0.311,0.004,0.459
		c0.08,0.293,0.381,0.459,0.633,0.635c0.789,0.553,1.287,1.479,2.143,1.924c0.225,0.117,0.488,0.197,0.732,0.127
		s0.441-0.336,0.361-0.578"/>
	<path fill="#84DBFF" d="M22.777,17.227c0.056,0.09,0.117,0.182,0.117,0.291c-0.002,0.176-0.207,0.246-0.358,0.156
		c-0.159-0.098-0.144-0.381,0.001-0.484c0.061-0.043,0.117-0.033,0.195-0.033c0.037,0.072-0.08,0.131-0.141,0.15
		c0.008,0.059,0.078,0.088,0.133,0.053c0.038-0.023,0.045-0.096,0.064-0.133c0.042-0.084,0.064-0.322,0.033-0.408
		c-0.031-0.082-0.16-0.145-0.004-0.199c0.103-0.033,0.146,0.01,0.236-0.074s0.158-0.156,0.268-0.223
		c0.109,0.195-0.203,0.334-0.211,0.51c0.051,0.014,0.102,0.014,0.152,0c0.064,0.098-0.035,0.152-0.04,0.23
		c-0.01,0.15,0.118,0.172,0.244,0.252c0.121,0.076,0.11,0.17,0.128,0.307c0.016,0.135-0.008,0.262-0.16,0.313
		c-0.08,0.027-0.177,0.01-0.264,0.039c-0.052,0.016-0.121,0.08-0.166,0.088c-0.135,0.027-0.156-0.125-0.113-0.225
		c0.021-0.049,0.069-0.076,0.084-0.137c0.019-0.074-0.029-0.154,0.037-0.219c0.043-0.039,0.088-0.002,0.114-0.055
		c0.019-0.037-0.011-0.111-0.026-0.143c-0.049-0.086-0.184-0.145-0.267-0.186"/>
	<path fill="#84DBFF" d="M24.187,16.678c0.102-0.021,0.194-0.096,0.301-0.123c0.147-0.035,0.194,0.074,0.274,0.191
		c0.043,0.063,0.19,0.26,0.09,0.338c-0.072,0.055-0.086-0.02-0.114-0.068c-0.073-0.117-0.034-0.131-0.173-0.158
		c-0.196-0.037-0.402-0.096-0.365,0.162c0.029,0.197,0.086,0.262-0.066,0.432c-0.129,0.141-0.297,0.332-0.447,0.441
		c-0.115,0.086-0.471,0.098-0.489,0.266c-0.065-0.02-0.247,0.018-0.322,0.035c0.009,0.102,0.065,0.102,0.134,0.141
		c0.082,0.047,0.082,0.01,0.149,0.102c0.065,0.09,0.175,0.285,0.094,0.395c-0.136,0.186-0.522-0.053-0.682,0.203
		c-0.099,0.162-0.065,0.426-0.062,0.605c0.006,0.242,0.024,0.42,0.293,0.443c0.24,0.02,0.563-0.1,0.699-0.305
		c0.055-0.08,0.073-0.232,0.151-0.291c0.05-0.039,0.132-0.01,0.18-0.059c0.058-0.061,0.011-0.15,0.034-0.227
		c0.033-0.102,0.092-0.133,0.189-0.17c0.257-0.096,0.375,0.123,0.539-0.145c0.101,0.018,0.164,0.127,0.234,0.195
		c0.096,0.094,0.21,0.154,0.311,0.238c0.17,0.143,0.228,0.35,0.021,0.461c-0.077,0.041-0.168,0.016-0.156,0.145
		c0.008,0.104,0.09,0.119,0.188,0.113c0.205-0.012,0.335-0.199,0.342-0.393c0.015-0.377-0.592-0.424-0.544-0.785
		c0.038-0.287,0.511,0.254,0.618,0.334c0.106,0.08,0.251,0.176,0.292,0.314c0.029,0.094-0.018,0.211,0,0.309
		c0.023,0.131,0.095,0.102,0.148,0.188c0.045,0.074-0.008,0.178,0.088,0.201c0.127-0.141-0.004-0.398,0.061-0.572
		c0.055-0.146,0.348-0.297,0.482-0.152c0.058,0.063,0.029,0.172,0.029,0.252c-0.001,0.244,0.115,0.33,0.377,0.35
		c0.174,0.014,0.414-0.051,0.577,0.029c0.163,0.078,0.122,0.475,0.104,0.656c-0.019,0.184-0.055,0.15-0.213,0.148
		c-0.209-0.002-0.305,0.117-0.492,0.162c-0.194,0.047-0.323-0.084-0.499-0.148c-0.113-0.041-0.374-0.17-0.496-0.135
		c-0.155,0.047-0.093,0.217-0.187,0.311c-0.084,0.084-0.312,0.072-0.404,0.012c-0.11-0.076-0.135-0.236-0.262-0.305
		c-0.153-0.082-0.358-0.016-0.511-0.098c-0.142-0.074-0.181-0.223-0.151-0.379c0.018-0.088,0.123-0.201,0.035-0.279
		c-0.078-0.07-0.371,0.055-0.442,0.07c-0.181,0.041-0.362,0.061-0.532,0.131c-0.18,0.074-0.289,0.129-0.487,0.131
		c-0.346,0.002-0.552,0.027-0.788,0.305c-0.082,0.098-0.095,0.174-0.123,0.289c-0.041,0.178-0.105,0.295-0.207,0.451
		c-0.179,0.273-0.363,0.533-0.555,0.799c-0.124,0.174-0.32,0.395-0.263,0.627c0.046,0.193,0.181,0.346,0.215,0.553
		c0.039,0.248,0.037,0.289-0.19,0.369c0,0.164-0.031,0.301,0.084,0.42c0.078,0.082,0.252,0.123,0.327,0.199
		c0.122,0.121,0.078,0.359,0.207,0.502c0.146,0.158,0.372,0.361,0.591,0.379c0.185,0.014,0.346-0.096,0.524-0.115
		c0.04-0.006,0.118-0.016,0.156-0.004s0.081,0.086,0.102,0.088c0.265,0.031,0.491-0.262,0.795-0.191
		c0.198,0.049,0.155,0.236,0.394,0.236c0.234,0,0.337,0.014,0.346,0.27c0.009,0.264-0.205,0.471-0.163,0.766
		c0.032,0.221,0.249,0.424,0.359,0.625c0.163,0.301,0.172,0.631,0.172,0.969c-0.001,0.334-0.033,0.672-0.017,1.006
		c0.016,0.287,0.231,0.52,0.207,0.818c-0.009,0.098,0.008,0.154,0.026,0.248c0.022,0.117,0.007,0.219,0.002,0.338
		c-0.014,0.363,0.347,0.352,0.47,0.625c0.088,0.195-0.037,0.467-0.026,0.662c0.323,0.088,0.54-0.059,0.842-0.086
		c0.144-0.012,0.252,0.02,0.351-0.096c0.123-0.143,0.189-0.369,0.276-0.537c0.11-0.215,0.276-0.461,0.437-0.639
		c0.181-0.195,0.269-0.176,0.268-0.451c-0.001-0.357,0.109-0.652,0.354-0.92c0.27-0.293,0.57-0.463,0.764-0.82
		c-0.146-0.303-0.407-0.436-0.442-0.795c-0.032-0.334,0.011-0.713,0.165-1.012c0.141-0.27,0.37-0.52,0.559-0.758
		c0.17-0.215,0.375-0.41,0.517-0.648c0.129-0.219,0.215-0.471,0.288-0.711c-0.113,0.01-0.219,0.072-0.334,0.086
		c-0.186,0.021-0.374,0.018-0.562,0.018c-0.189-0.146-0.274-0.465-0.448-0.643c-0.209-0.215-0.472-0.309-0.59-0.605
		c-0.16-0.408-0.396-0.824-0.5-1.25c-0.033-0.139-0.06-0.424,0.186-0.326c-0.043,0.416,0.492,0.641,0.703,0.922
		c0.188,0.25,0.352,0.529,0.453,0.824c0.066,0.197,0.026,0.559,0.222,0.682c0.384,0.244,0.739-0.338,1.01-0.52
		c0.351-0.234,0.659-0.529,0.642-0.996c-0.012-0.262-0.246-0.35-0.407-0.525c-0.119,0.074-0.114,0.146-0.246,0.176
		c-0.155,0.035-0.329-0.004-0.429-0.121c-0.082-0.098-0.133-0.225-0.207-0.33c-0.045-0.064-0.147-0.137-0.178-0.205
		c-0.031-0.07-0.02-0.141,0.012-0.211c0.27,0.063,0.474,0.553,0.781,0.531c0.1-0.008,0.152-0.109,0.258-0.107
		c0.176,0.004,0.168,0.242,0.324,0.32c0.196,0.1,0.555,0.035,0.769,0.035c0.323-0.002,0.403,0.037,0.571,0.301
		c0.157,0.25,0.258,0.24,0.525,0.258c0.148,0.408,0.303,0.814,0.441,1.225c0.093,0.275,0.145,0.672,0.338,0.893
		c0.251,0.283,0.326-0.191,0.326-0.381c-0.002-0.203-0.1-0.5-0.021-0.695c0.031-0.08,0.122-0.15,0.163-0.23
		c0.079-0.158,0.129-0.324,0.226-0.475c0.075-0.117,0.17-0.26,0.278-0.344c0.146-0.113,0.416-0.244,0.606-0.248
		c0.33-0.006,0.447,0.438,0.527,0.701c0.082,0.268-0.023,0.57,0.303,0.424c0.09-0.039,0.045-0.162,0.182-0.023
		c0.083,0.084,0.066,0.311,0.093,0.418c0.019,0.074,0.052,0.127,0.052,0.203c0.004,0.217-0.007,0.406,0.106,0.602
		c0.09,0.152,0.304,0.256,0.37,0.412c0.061,0.145-0.012,0.313,0.08,0.467c0.08,0.139,0.402,0.244,0.394,0.414
		c-0.188,0.014-0.399-0.047-0.518-0.191c-0.14-0.172-0.214-0.375-0.474-0.348c-0.029,0.15,0.146,0.244,0.228,0.336
		c0.083,0.094,0.17,0.201,0.249,0.303c0.216,0.283,0.122,0.711,0.375,0.975c0.076,0.078,0.175,0.088,0.258,0.148
		c0.082,0.061,0.055,0.086,0.116,0.166c0.139,0.174,0.746,0.428,0.938,0.201c-0.313-0.154-0.772-0.154-0.93-0.527
		c-0.055-0.131,0.028-0.277-0.016-0.398c-0.051-0.143-0.446-0.359-0.408-0.516c0.245,0.006,0.311-0.197,0.221-0.391
		c-0.068-0.146-0.136-0.229-0.152-0.393c-0.029-0.299-0.234-0.479-0.381-0.736c-0.095-0.166-0.299-0.555,0-0.549
		c0.256,0.004,0.275,0.318,0.396,0.486c0.323,0.455,0.659-0.162,0.764-0.461c-0.241-0.154-0.448-0.564-0.61-0.809
		c-0.151-0.229-0.332-0.805,0.022-0.953c0.103,0.074,0.123,0.301,0.119,0.42c-0.003,0.074-0.032,0.133,0.01,0.18
		c0.034,0.041,0.293,0.057,0.36,0.039c0.07-0.262-0.238-0.338,0.021-0.506c0.236-0.152,0.418-0.291,0.592-0.518
		c0.311-0.406,0.343-0.98,0.015-1.381c-0.124-0.152-0.49-0.338-0.53-0.537c-0.025-0.131,0.152-0.287,0.092-0.408
		c-0.103-0.205-0.597,0.053-0.744-0.123c-0.133-0.162,0.021-0.48,0.244-0.365c0.104,0.053,0.147,0.324,0.303,0.275
		c0.1-0.031,0.082-0.207,0.258-0.131c0.113,0.051,0.154,0.248,0.255,0.33c0.099,0.082,0.248,0.105,0.345,0.172
		c0.036,0.023,0.059,0.004,0.088,0.037c0.047,0.055-0.003,0.215,0.053,0.256c0.23,0.168,0.111-0.258,0.089-0.314
		c-0.125-0.311-0.298-0.266-0.537-0.426c-0.17-0.113-0.183-0.303-0.118-0.49c0.035-0.1,0.032-0.115,0.121-0.154
		c0.097-0.045,0.229,0.037,0.273-0.088c0.203-0.566,0.11-1.207-0.39-1.654c-0.204-0.184-0.468-0.182-0.71-0.254
		c-0.393-0.119-0.236-0.623-0.479-0.904c0.246-0.178,1.02,0.223,1.151-0.068c0.095-0.205-0.591-0.5-0.159-0.588
		c0.217-0.043,0.272,0.275,0.483,0.084c0.103,0.102,0.101,0.301,0.172,0.428c0.077,0.141,0.163,0.244,0.267,0.355
		s0.076,0.162,0.136,0.297c0.073,0.166,0.302,0.209,0.452,0.285c0.132,0.066,0.102,0.064,0.166,0.16
		c0.072,0.105,0.07,0.197,0.234,0.184c0.059-0.174-0.058-0.24-0.18-0.361c-0.116-0.115-0.242-0.215-0.331-0.352
		c-0.06-0.088-0.074-0.219-0.153-0.297c-0.119-0.111-0.799-0.414-0.404-0.631c0.108-0.061,0.306,0.014,0.39-0.121
		c0.112-0.176-0.078-0.42-0.196-0.518c-0.027-0.021-0.062-0.006-0.089-0.029c-0.042-0.039-0.073-0.115-0.114-0.158
		c-0.05-0.057-0.093-0.1-0.162-0.129c-0.094-0.043-0.236-0.047-0.342-0.066c-0.223-0.041-0.359-0.158-0.562-0.256
		c-0.269-0.129-0.545,0.041-0.829,0.082c-0.284,0.043-0.493-0.035-0.743-0.156c-0.223-0.105-0.336-0.055-0.569-0.021
		c-0.259,0.037-0.357-0.023-0.592-0.111c-0.166-0.061-0.375-0.055-0.548-0.047c-0.021,0.129,0.122,0.189,0.085,0.322
		c-0.039,0-0.085-0.006-0.124,0c-0.091,0.014-0.165-0.006-0.256,0.025c-0.048,0.02-0.095,0.072-0.142,0.086
		c-0.193,0.055-0.295-0.127-0.445-0.223c-0.163-0.105-0.357-0.107-0.547-0.109c-0.149-0.002-0.286,0.02-0.434,0.037
		c-0.265,0.033-0.399-0.072-0.619-0.207c-0.267-0.162-0.449-0.238-0.748-0.24c-0.166-0.24-0.484-0.332-0.76-0.32
		c-0.104,0.004-0.171,0.014-0.271-0.037c-0.114-0.055-0.164-0.135-0.309-0.143c-0.086-0.004-0.195-0.014-0.203,0.098
		c-0.01,0.137,0.273,0.158,0.375,0.18c0.355,0.08,0.695,0.113,1.01,0.324c-0.027,0.26-0.58,0.121-0.696,0.277
		c-0.047,0.063,0,0.15-0.06,0.209c-0.062,0.061-0.17,0.033-0.246,0.104c-0.182,0.166-0.314,0.521-0.072,0.682
		c0.162,0.107,0.186,0.057,0.174,0.277c-0.005,0.09,0.001,0.221-0.058,0.291c-0.074-0.049-0.076-0.213-0.14-0.297
		c-0.09-0.115-0.252-0.139-0.334-0.26c-0.072-0.109-0.06-0.199-0.162-0.289c-0.093-0.08-0.34-0.23-0.474-0.217
		c-0.174,0.318,0.334,0.432,0.36,0.676c0.027,0.26-0.258-0.104-0.342-0.148c-0.25-0.133-0.631,0.006-0.825-0.23
		c-0.071-0.088-0.117-0.313-0.084-0.422c0.041-0.143,0.237-0.184,0.216-0.348c-0.238-0.078-0.514,0.271-0.523,0.475
		c-0.012,0.217-0.031,0.246,0.176,0.334c0.119,0.049,0.391,0.092,0.42,0.244c0.027,0.145-0.191,0.174-0.293,0.219
		c-0.204,0.09-0.352,0.242-0.538,0.346c-0.11,0.063-0.28,0-0.366,0.09c-0.041,0.045-0.027,0.139-0.07,0.189
		c-0.13,0.16-0.367,0.131-0.477-0.004c-0.441-0.543,0.318-0.193,0.508-0.342c-0.135-0.219-0.688-0.236-0.927-0.344
		c-0.265-0.119-0.575-0.283-0.88-0.236c-0.289,0.043-0.518,0.355-0.601,0.613c-0.053,0.164-0.12,0.334-0.239,0.465
		c-0.104,0.111-0.237,0.146-0.354,0.232c-0.156,0.117-0.209,0.371-0.149,0.559c0.036,0.113,0.037,0.145,0.133,0.133"/>
	<path fill="#84DBFF" d="M22.415,17.797c0.05-0.1,0.185-0.068,0.272-0.104c0.107-0.043,0.119-0.115,0.128-0.229
		c0.008-0.135,0.053-0.326-0.111-0.332c-0.104-0.004-0.104,0.018-0.157,0.104c-0.039,0.059-0.096,0.117-0.111,0.184
		c-0.008,0.029,0.022,0.063,0.01,0.096c-0.016,0.039-0.066,0.037-0.087,0.074c-0.054,0.104-0.015,0.199,0.108,0.176"/>
	<path fill="#84DBFF" d="M24.803,13.738c-0.005-0.043,0.063-0.186,0.111-0.203c0.082-0.029,0.08,0.047,0.129,0.064
		c0.033,0.012,0.105,0.033,0.14-0.014c0.084-0.121-0.151-0.137-0.205-0.174c0.021-0.135,0.415-0.047,0.343-0.268
		c-0.123-0.006-0.246-0.02-0.369-0.029c-0.109-0.008-0.153,0.037-0.248,0.088c-0.068,0.033-0.125,0.057-0.207,0.047
		c-0.084-0.014-0.252-0.115-0.34-0.045c-0.041,0.033-0.021,0.129,0,0.16c0.049,0.07,0.144,0.059,0.215,0.084
		c0.162,0.059,0.154,0.145,0.215,0.285c0.035,0.086,0.128,0.16,0.227,0.076"/>
	<path fill="#FF7058" d="M31.633,17.49c0,2.762-5,9.402-5,9.402s-5-6.641-5-9.402s2.238-5,5-5
		C29.394,12.49,31.633,14.729,31.633,17.49"/>
	<path fill="#FFFFFF" d="M29.435,17.49c0,1.547-1.255,2.803-2.802,2.803s-2.803-1.256-2.803-2.803s1.256-2.803,2.803-2.803
		S29.435,15.943,29.435,17.49"/>
	<path fill="#ACB3BA" d="M0,36.541c0,2.777,2.252,5.029,5.029,5.029h37.941c2.777,0,5.029-2.252,5.029-5.029H0z"/>
	<polygon fill="#CDD6E0" points="16.649,36.541 17.917,38.525 30.082,38.525 31.35,36.541 	"/>
</g>
</svg>
