<?xml version="1.0" encoding="utf-8"?>
<!-- Generator: Adobe Illustrator 18.0.0, SVG Export Plug-In . SVG Version: 6.00 Build 0)  -->
<!DOCTYPE svg PUBLIC "-//W3C//DTD SVG 1.1//EN" "http://www.w3.org/Graphics/SVG/1.1/DTD/svg11.dtd">
<svg version="1.1" id="Layer_1" xmlns="http://www.w3.org/2000/svg" xmlns:xlink="http://www.w3.org/1999/xlink" x="0px" y="0px"
	 viewBox="0 0 48 48" enable-background="new 0 0 48 48" xml:space="preserve">
<g>
	<g>
		<g>
			<path fill="#E8EAE9" d="M27.4,0H3C1.3,0,0,1.3,0,3v42c0,1.7,1.3,3,3,3h24.4c1.7,0,3-1.3,3-3V3C30.4,1.3,29.1,0,27.4,0z"/>
			<rect x="0" y="5" fill="#415A6B" width="30.4" height="34.4"/>
			<g>
				<circle fill="#CED6E0" cx="15.2" cy="43.7" r="2.5"/>
			</g>
		</g>
		<g>
			<path fill="#FFD15C" d="M46,7.6H23.6c-1.1,0-2,0.9-2,2v14.7c0,1.1,0.9,2,2,2h2.8v5.2l8.1-5.2H46c1.1,0,2-0.9,2-2V9.6
				C48,8.5,47.1,7.6,46,7.6z"/>
			<g>
				<g>
					<circle fill="#FFFFFF" cx="27.6" cy="17" r="2.5"/>
				</g>
				<g>
					<circle fill="#FFFFFF" cx="34.8" cy="17" r="2.5"/>
				</g>
				<g>
					<circle fill="#FFFFFF" cx="42" cy="17" r="2.5"/>
				</g>
			</g>
		</g>
	</g>
</g>
</svg>
