<?xml version="1.0" encoding="utf-8"?>
<!-- Generator: Adobe Illustrator 18.0.0, SVG Export Plug-In . SVG Version: 6.00 Build 0)  -->
<!DOCTYPE svg PUBLIC "-//W3C//DTD SVG 1.1//EN" "http://www.w3.org/Graphics/SVG/1.1/DTD/svg11.dtd">
<svg version="1.1" id="Layer_1" xmlns="http://www.w3.org/2000/svg" xmlns:xlink="http://www.w3.org/1999/xlink" x="0px" y="0px"
	 viewBox="0 0 48 48" enable-background="new 0 0 48 48" xml:space="preserve">
<g>
	<g>
		<g>
			<path fill="#8AD7F8" d="M5,15.5c0-3.2,5.8-11.9,5.8-11.9s5.8,8.7,5.8,11.9s-2.6,5.8-5.8,5.8S5,18.7,5,15.5z"/>
			<g>
				<g>
					<path fill="#FFFFFF" d="M10.9,19.8c2.4,0,4.3-1.9,4.3-4.3c0-0.3-0.2-0.5-0.5-0.5c-0.3,0-0.5,0.2-0.5,0.5c0,1.8-1.4,3.2-3.2,3.2
						c-0.3,0-0.5,0.2-0.5,0.5S10.6,19.8,10.9,19.8z"/>
				</g>
			</g>
			<path fill="#8AD7F8" d="M16.1,7.2c0-1.9,3.5-7.2,3.5-7.2s3.5,5.2,3.5,7.2s-1.6,3.5-3.5,3.5S16.1,9.1,16.1,7.2z"/>
			<g>
				<g>
					<path fill="#FFFFFF" d="M19.6,9.7c1.4,0,2.6-1.2,2.6-2.6c0-0.2-0.1-0.3-0.3-0.3c-0.2,0-0.3,0.1-0.3,0.3c0,1.1-0.9,1.9-1.9,1.9
						c-0.2,0-0.3,0.1-0.3,0.3S19.4,9.7,19.6,9.7z"/>
				</g>
			</g>
		</g>
		<g>
			<g>
				<path fill="#FFD15C" d="M28.5,39.2l10.4-10.4l-6.6-6.6c-0.6-0.6-1.3-0.9-2.1-0.9l-13.2,0c-1.7,0-3.1,1.5-2.9,3.2
					c0.1,1.5,1.5,2.6,3.1,2.6l5.1,0c0.9,0,1.7,0.7,1.7,1.7c0,0.9-0.7,1.7-1.7,1.7l-8.9,0L5,22.2c-1.2-1.2-3.2-1.1-4.3,0.2
					c-1,1.2-0.8,2.9,0.3,4l9.1,9.1c0.6,0.6,1.3,0.9,2.1,0.9l13.5,0L28.5,39.2z"/>
				
					<rect x="33.2" y="24.6" transform="matrix(-0.7071 -0.7071 0.7071 -0.7071 34.5158 83.3349)" fill="#ADB3BA" width="2.6" height="19.8"/>
				
					<rect x="34.5" y="26.6" transform="matrix(0.7071 0.7071 -0.7071 0.7071 37.78 -15.6489)" fill="#344A5E" width="6.6" height="22.3"/>
			</g>
		</g>
	</g>
</g>
</svg>
