<?xml version="1.0" encoding="utf-8"?>
<!-- Generator: Adobe Illustrator 19.0.1, SVG Export Plug-In . SVG Version: 6.00 Build 0)  -->
<svg version="1.1" id="Layer_1" xmlns="http://www.w3.org/2000/svg" xmlns:xlink="http://www.w3.org/1999/xlink" x="0px" y="0px"
	 viewBox="0 0 48 48" style="enable-background:new 0 0 48 48;" xml:space="preserve">
<style type="text/css">
	.st0{fill:#415A6B;}
	.st1{fill:#ADB3BA;}
	.st2{fill:#E8EAE9;}
	.st3{fill:#55C0EB;}
	.st4{fill:#F3705A;}
	.st5{fill:#FFFFFF;}
	.st6{fill:#FFD15C;}
	.st7{fill:#344A5E;}
	.st8{fill:#CED6E0;}
	.st9{fill:#F05540;}
	.st10{fill:#F7B64C;}
	.st11{fill:#F3F3F3;}
	.st12{fill:#66C6B9;}
	.st13{fill:#4ABAA5;}
	.st14{fill:#8AD7F8;}
	.st15{fill:none;}
	.st16{fill:#E53D35;}
</style>
<g>
	<g>
		<g>
			<path class="st1" d="M25,40.5v-5.7h-2v5.7c-1.6,0.4-2.8,1.9-2.8,3.7c0,2.1,1.7,3.8,3.8,3.8s3.8-1.7,3.8-3.8
				C27.8,42.4,26.6,40.9,25,40.5z M24,46c-1,0-1.8-0.8-1.8-1.8s0.8-1.8,1.8-1.8c1,0,1.8,0.8,1.8,1.8S25,46,24,46z"/>
		</g>
		<path class="st2" d="M44.8,4.3v28.1c0,1.9-1.6,3.5-3.5,3.5H6.8c-1.9,0-3.5-1.6-3.5-3.5V4.3H44.8z"/>
		<path class="st12" d="M45.4,0H2.6C1.2,0,0,1.2,0,2.6s1.2,2.6,2.6,2.6h42.7c1.5,0,2.6-1.2,2.6-2.6S46.8,0,45.4,0z"/>
		<g>
			<g>
				<path class="st4" d="M24,32.5c-6.8,0-12.4-5.6-12.4-12.4S17.2,7.7,24,7.7s12.4,5.6,12.4,12.4S30.8,32.5,24,32.5z M24,9.9
					c-5.6,0-10.1,4.6-10.1,10.1c0,5.6,4.6,10.1,10.1,10.1c5.6,0,10.1-4.6,10.1-10.1C34.1,14.5,29.6,9.9,24,9.9z"/>
			</g>
			<g>
				<path class="st4" d="M24,28.1c-4.4,0-8-3.6-8-8s3.6-8,8-8s8,3.6,8,8S28.4,28.1,24,28.1z M24,14.3c-3.2,0-5.8,2.6-5.8,5.8
					c0,3.2,2.6,5.8,5.8,5.8c3.2,0,5.8-2.6,5.8-5.8C29.8,16.9,27.2,14.3,24,14.3z"/>
			</g>
			<g>
				<path class="st4" d="M24,23.7c-2,0-3.6-1.6-3.6-3.6s1.6-3.6,3.6-3.6s3.6,1.6,3.6,3.6S26,23.7,24,23.7z M24,18.7
					c-0.8,0-1.4,0.6-1.4,1.4c0,0.8,0.6,1.4,1.4,1.4s1.4-0.6,1.4-1.4C25.4,19.3,24.8,18.7,24,18.7z"/>
			</g>
		</g>
	</g>
</g>
</svg>
