<?xml version="1.0" encoding="utf-8"?>
<!-- Generator: Adobe Illustrator 18.0.0, SVG Export Plug-In . SVG Version: 6.00 Build 0)  -->
<!DOCTYPE svg PUBLIC "-//W3C//DTD SVG 1.1//EN" "http://www.w3.org/Graphics/SVG/1.1/DTD/svg11.dtd">
<svg version="1.1" id="Layer_1" xmlns="http://www.w3.org/2000/svg" xmlns:xlink="http://www.w3.org/1999/xlink" x="0px" y="0px"
	 viewBox="0 0 48 48" enable-background="new 0 0 48 48" xml:space="preserve">
<g>
	<g>
		<g>
			<g>
				<path fill="#415A6B" d="M16.7,46.3c-0.5-1.3-1-2.8-0.4-3.8c0.3-0.6,1.1-1,1.9-1.4l0.5-0.3c2.1-1.1,3.7-2.7,5-4.7l-1.6-1.3
					c-1,1.8-2.5,3.2-4.3,4.2l-0.5,0.3c-1,0.5-2.1,1-2.7,2.2c-1,1.7-0.4,3.7,0.3,5.5c0.1,0.2,0.2,0.3,0.3,0.4c0.3,0.2,0.6,0.3,1,0.2
					C16.6,47.4,16.9,46.8,16.7,46.3z"/>
			</g>
		</g>
		<g>
			<g>
				<g>
					<polygon fill="#F05540" points="47.1,18.7 48,0 29.7,4.1 					"/>
				</g>
			</g>
			<g>
				<g>
					<g>
						<polygon fill="#F05540" points="44.2,16.3 25.4,38.7 13.8,29 32.6,6.5 						"/>
					</g>
				</g>
				<g>
					<g>
						<polygon fill="#F3705A" points="21.3,19.9 38.7,22.9 42,18.9 24.7,15.9 						"/>
					</g>
					<g>
						<polygon fill="#F3705A" points="14.6,27.9 31.9,30.9 35.3,26.9 18,23.9 						"/>
					</g>
					<g>
						<polygon fill="#F3705A" points="25.4,38.7 28.6,34.9 18.9,33.3 						"/>
					</g>
				</g>
				<g>
					<g>
						<polygon fill="#F3705A" points="41.6,14.1 28,11.9 32.6,6.5 						"/>
					</g>
				</g>
			</g>
		</g>
		<g>
			<polygon fill="#FFD15C" points="3.2,48 16.9,31.6 13.8,29 0,45.4 			"/>
		</g>
	</g>
</g>
</svg>
