<?xml version="1.0" encoding="utf-8"?>
<!-- Generator: Adobe Illustrator 18.0.0, SVG Export Plug-In . SVG Version: 6.00 Build 0)  -->
<!DOCTYPE svg PUBLIC "-//W3C//DTD SVG 1.1//EN" "http://www.w3.org/Graphics/SVG/1.1/DTD/svg11.dtd">
<svg version="1.1" id="Layer_1" xmlns="http://www.w3.org/2000/svg" xmlns:xlink="http://www.w3.org/1999/xlink" x="0px" y="0px"
	 viewBox="0 0 48 48" enable-background="new 0 0 48 48" xml:space="preserve">
<g>
	<g>
		<path fill="#415A6B" d="M45,45.3H3c-1.7,0-3-1.3-3-3V3c0-1.7,1.3-3,3-3h42c1.7,0,3,1.3,3,3v39.3C48,44,46.7,45.3,45,45.3z"/>
		<path fill="#ADB3BA" d="M8.1,7v31.3c0,1.1,0.9,2,2,2H41c1.1,0,2-0.9,2-2V7c0-1.1-0.9-2-2-2H10.1C9,5,8.1,5.9,8.1,7z"/>
		<g>
			<g>
				<path fill="#344A5E" d="M9.8,15H6.5c-1.2,0-2.1-0.9-2.1-2.1v0c0-1.2,0.9-2.1,2.1-2.1h3.3c1.2,0,2.1,0.9,2.1,2.1v0
					C11.9,14.1,11,15,9.8,15z"/>
			</g>
			<g>
				<path fill="#344A5E" d="M9.8,35H6.5c-1.2,0-2.1-0.9-2.1-2.1v0c0-1.2,0.9-2.1,2.1-2.1h3.3c1.2,0,2.1,0.9,2.1,2.1v0
					C11.9,34.1,11,35,9.8,35z"/>
			</g>
		</g>
		<g>
			<g>
				<polygon fill="#344A5E" points="9.5,48 3.9,48 3.9,45.3 10.5,45.3 				"/>
			</g>
			<g>
				<polygon fill="#344A5E" points="44.1,48 38.5,48 37.5,45.3 44.1,45.3 				"/>
			</g>
		</g>
		<g>
			<g>
				<g>
					<circle fill="#415A6B" cx="23.6" cy="22.7" r="4"/>
				</g>
			</g>
			<g>
				<g>
					<g>
						<path fill="#415A6B" d="M30.2,23.7H17c-0.6,0-1-0.4-1-1s0.4-1,1-1h13.2c0.6,0,1,0.4,1,1S30.8,23.7,30.2,23.7z"/>
					</g>
				</g>
				<g>
					<g>
						<path fill="#415A6B" d="M23.6,30.3c-0.6,0-1-0.4-1-1V16.1c0-0.6,0.4-1,1-1s1,0.4,1,1v13.2C24.6,29.8,24.2,30.3,23.6,30.3z"/>
					</g>
				</g>
			</g>
			<g>
				<circle fill="#344A5E" cx="23.6" cy="22.7" r="1.8"/>
			</g>
		</g>
		<g>
			<g>
				<g>
					<g>
						<path fill="#415A6B" d="M37.9,28.8c-0.6,0-1-0.4-1-1V17.6c0-0.6,0.4-1,1-1s1,0.4,1,1v10.2C38.9,28.3,38.4,28.8,37.9,28.8z"/>
					</g>
				</g>
			</g>
		</g>
	</g>
</g>
</svg>
