<?xml version="1.0" encoding="utf-8"?>
<!-- Generator: Adobe Illustrator 18.0.0, SVG Export Plug-In . SVG Version: 6.00 Build 0)  -->
<!DOCTYPE svg PUBLIC "-//W3C//DTD SVG 1.1//EN" "http://www.w3.org/Graphics/SVG/1.1/DTD/svg11.dtd">
<svg version="1.1" id="Layer_1" xmlns="http://www.w3.org/2000/svg" xmlns:xlink="http://www.w3.org/1999/xlink" x="0px" y="0px"
	 viewBox="0 0 48 48" enable-background="new 0 0 48 48" xml:space="preserve">
<g>
	<path fill="#F2F2F2" d="M0,12.6V46c0,1.1,0.9,2,2,2h35.9L48,37.9V12.6H0z"/>
	<path fill="#4CDBC4" d="M48,12.6V2c0-1.1-0.9-2-2-2H2C0.9,0,0,0.9,0,2v10.6H48z"/>
	<rect x="0" y="11.3" fill="#3DC9AE" width="48" height="1.3"/>
	<polygon fill="#CDD6E0" points="38.3,41.1 11,41.1 11,34.2 48,34.2 48,33.7 11,33.7 11,26.9 48,26.9 48,26.4 11,26.4 11,19.5 
		48,19.5 48,19 11,19 11,12.6 10.5,12.6 10.5,19 0,19 0,19.5 10.5,19.5 10.5,26.4 0,26.4 0,26.9 10.5,26.9 10.5,33.7 0,33.7 0,34.2 
		10.5,34.2 10.5,41.1 0,41.1 0,41.6 10.5,41.6 10.5,48 11,48 11,41.6 38.3,41.6 	"/>
	<g>
		<path fill="#54C0EB" d="M45.6,23.2c0.6-0.6,0.6-1.7,0-2.3l-5-5c-0.6-0.6-1.7-0.6-2.3,0L35.2,19l7.4,7.4L45.6,23.2z"/>
		
			<rect x="19.9" y="38.7" transform="matrix(0.7071 -0.7071 0.7071 0.7071 -21.5659 25.4292)" fill="#D8AB53" width="0" height="0"/>
		<path fill="#FFD15C" d="M25.1,43.8l-5.9,1.3l-3.6,0.8l0.8-3.6l1.3-5.9l0,0c0.5,0.1,1,0.3,1.4,0.7c0.4,0.4,0.7,1,0.7,1.6
			c0.8-0.1,1.6,0.1,2.2,0.7c0.3,0.3,0.5,0.6,0.6,1c0.1,0.4,0.1,0.8,0.1,1.2c0.6,0,1.1,0.3,1.6,0.7C24.8,42.7,25,43.3,25.1,43.8z"/>
		<path fill="#FF7058" d="M34.8,23.8L19.9,38.7h0c0-0.6-0.3-1.1-0.7-1.6c-0.4-0.4-0.9-0.6-1.4-0.7l0,0l14.8-14.8L34.8,23.8
			L34.8,23.8z"/>
		<path fill="#F1543F" d="M22.8,41.6c0.1-0.8-0.1-1.6-0.7-2.2c-0.5-0.5-1.1-0.7-1.8-0.7c-0.1,0-0.3,0-0.4,0l14.9-14.9l2.9,2.9
			L22.8,41.6z"/>
		<path fill="#FF7058" d="M39.9,28.9L25.1,43.8h0c-0.1-0.5-0.3-1-0.7-1.4c-0.4-0.4-1-0.7-1.6-0.7v0l14.9-14.9L39.9,28.9z"/>
		<polygon fill="#334A5E" points="19.2,45.1 15.6,45.9 16.4,42.4 		"/>
		
			<rect x="35.7" y="18.8" transform="matrix(0.7071 -0.7071 0.7071 0.7071 -5.9307 33.5889)" fill="#84DBFF" width="3.7" height="10.4"/>
		<polygon fill="#55BFE9" points="32.6,21.6 35.2,19 32.6,21.6 		"/>
		<polygon fill="#55BFE9" points="37.5,21.2 37.5,21.2 35.2,19 		"/>
		<polygon fill="#55BFE9" points="40.3,24.1 40.3,24.1 37.5,21.2 37.5,21.2 		"/>
	</g>
	<path fill="#4CDBC4" d="M39.9,37.9c-1.1,0-2,0.9-2,2V48L48,37.9H39.9z"/>
</g>
</svg>
