<?xml version="1.0" encoding="utf-8"?>
<!-- Generator: Adobe Illustrator 18.0.0, SVG Export Plug-In . SVG Version: 6.00 Build 0)  -->
<!DOCTYPE svg PUBLIC "-//W3C//DTD SVG 1.1//EN" "http://www.w3.org/Graphics/SVG/1.1/DTD/svg11.dtd">
<svg version="1.1" id="Layer_1" xmlns="http://www.w3.org/2000/svg" xmlns:xlink="http://www.w3.org/1999/xlink" x="0px" y="0px"
	 viewBox="0 0 48 48" enable-background="new 0 0 48 48" xml:space="preserve">
<g>
	<ellipse transform="matrix(0.9769 -0.2138 0.2138 0.9769 -4.4312 4.6944)" fill="#F8B64C" cx="19.5" cy="22.8" rx="0.8" ry="1.5"/>
	
		<ellipse transform="matrix(-0.9769 -0.2138 0.2138 -0.9769 51.5371 51.2329)" fill="#F8B64C" cx="28.5" cy="22.8" rx="0.8" ry="1.5"/>
	<path fill="#ACB3BA" d="M47.2,9.6H0.8C0.3,9.6,0,9.3,0,8.9v0c0-0.4,0.3-0.8,0.8-0.8h46.5c0.4,0,0.8,0.3,0.8,0.8v0
		C48,9.3,47.7,9.6,47.2,9.6z"/>
	<rect x="21.1" y="26.9" fill="#F8B64C" width="5.8" height="7.7"/>
	<g>
		<path fill="#FFD15C" d="M16.7,36.6c0,0,2.7-2.3,3-7.7c0,0-1.1-1.6-2.3-1.7c0,0-0.5-3-4.2-5.3c0,0-1.3-6.2-3.5-9.7H7.5
			c0,0,1.2,9.6,2.3,11.1c0,0,2.3,4.4,2.8,5.6c0,0,1.2,2.2,2.3,2.6C14.9,31.4,15.6,34.7,16.7,36.6z"/>
		<path fill="#F8B64C" d="M7.6,12.6c0,0-1.5-0.7-1.4-2.7h4.7l-1.1,2.6L7.6,12.6z"/>
		<path fill="#FFD15C" d="M10.3,7.4C9.9,7.4,9.7,7.7,9.7,8c0-0.3-0.3-0.6-0.6-0.6C8.8,7.4,8.5,7.7,8.5,8c0-0.3-0.3-0.6-0.6-0.6
			C7.7,7.4,7.4,7.7,7.4,8c0-0.3-0.3-0.6-0.6-0.6S6.3,7.7,6.3,8V10c0,0.3,0.3,0.6,0.6,0.6s0.6-0.3,0.6-0.6c0,0.3,0.3,0.6,0.6,0.6
			c0.3,0,0.6-0.3,0.6-0.6c0,0.3,0.3,0.6,0.6,0.6c0.3,0,0.6-0.3,0.6-0.6c0,0.3,0.3,0.6,0.6,0.6c0.3,0,0.6-0.3,0.6-0.6V8
			C10.8,7.7,10.6,7.4,10.3,7.4z"/>
		<path fill="#F4AE4A" d="M9.4,11l0.8-0.4c0,0-1.3-0.9-1.1-1.4c0.1-0.3,0.2-0.3,1.3,0c0,0,0,0,0,0c0.9,0.2,1.3,1.1,0.8,1.9
			c-0.4,0.6-0.9,1.3-1.4,1.5c0,0-1.1,0.1-0.9-0.7C8.9,11.4,9.2,11.1,9.4,11z"/>
	</g>
	<g>
		<path fill="#FFD15C" d="M31.3,36.6c0,0-2.7-2.3-3-7.7c0,0,1.1-1.6,2.3-1.7c0,0,0.5-3,4.2-5.3c0,0,1.3-6.2,3.5-9.7h2.1
			c0,0-1.2,9.6-2.3,11.1c0,0-2.3,4.4-2.8,5.6c0,0-1.2,2.2-2.3,2.6C33.1,31.4,32.4,34.7,31.3,36.6z"/>
		<path fill="#F8B64C" d="M40.3,12.6c0,0,1.5-0.7,1.4-2.7h-4.7l1.1,2.6L40.3,12.6z"/>
		<path fill="#FFD15C" d="M37.7,7.4c0.3,0,0.6,0.3,0.6,0.6c0-0.3,0.3-0.6,0.6-0.6c0.3,0,0.6,0.3,0.6,0.6c0-0.3,0.3-0.6,0.6-0.6
			s0.6,0.3,0.6,0.6c0-0.3,0.3-0.6,0.6-0.6s0.6,0.3,0.6,0.6V10c0,0.3-0.3,0.6-0.6,0.6s-0.6-0.3-0.6-0.6c0,0.3-0.3,0.6-0.6,0.6
			s-0.6-0.3-0.6-0.6c0,0.3-0.3,0.6-0.6,0.6c-0.3,0-0.6-0.3-0.6-0.6c0,0.3-0.3,0.6-0.6,0.6s-0.6-0.3-0.6-0.6V8
			C37.2,7.7,37.4,7.4,37.7,7.4z"/>
		<path fill="#F4AE4A" d="M38.6,11l-0.8-0.4c0,0,1.3-0.9,1.1-1.4c-0.1-0.3-0.2-0.3-1.3,0c0,0,0,0,0,0c-0.9,0.2-1.3,1.1-0.8,1.9
			c0.4,0.6,0.9,1.3,1.4,1.5c0,0,1.1,0.1,0.9-0.7C39,11.4,38.8,11.1,38.6,11z"/>
	</g>
	<g>
		<g>
			<path fill="#334A5E" d="M43.3,14.4L43.3,14.4c0.7,0,1.3-0.6,1.3-1.3V4.6c0-0.7-0.6-1.3-1.3-1.3h0c-0.7,0-1.3,0.6-1.3,1.3v8.5
				C42,13.8,42.6,14.4,43.3,14.4z"/>
			<path fill="#40596B" d="M45.8,13.4L45.8,13.4c0.7,0,1.3-0.6,1.3-1.3V5.6c0-0.7-0.6-1.3-1.3-1.3h0c-0.7,0-1.3,0.6-1.3,1.3v6.6
				C44.6,12.8,45.1,13.4,45.8,13.4z"/>
		</g>
		<g>
			<path fill="#334A5E" d="M4.7,14.4L4.7,14.4c-0.7,0-1.3-0.6-1.3-1.3V4.6c0-0.7,0.6-1.3,1.3-1.3h0C5.4,3.3,6,3.9,6,4.6v8.5
				C6,13.8,5.4,14.4,4.7,14.4z"/>
			<path fill="#40596B" d="M2.2,13.4L2.2,13.4c-0.7,0-1.3-0.6-1.3-1.3V5.6c0-0.7,0.6-1.3,1.3-1.3h0c0.7,0,1.3,0.6,1.3,1.3v6.6
				C3.4,12.8,2.9,13.4,2.2,13.4z"/>
		</g>
	</g>
	<path fill="#FFD15C" d="M28.9,21.5c0,2.7-2.2,7.7-4.9,7.7s-4.9-5-4.9-7.7s2.2-4.9,4.9-4.9S28.9,18.8,28.9,21.5z"/>
	<path fill="#40596B" d="M19.5,23.9l0.7-2c0,0-0.9-3.5,0.5-2.8c0,0,3.2,1.1,6.7-0.1c0,0,0.9-0.2,0.4,3.1l0.8,1.9
		c0,0,0.1-1.7,0.6-2.5c0,0,1.9-4.6-2-7.6c0,0-0.1,1.1-1.5,1c0,0-3.4-0.1-4.3,0.5c0,0-2.6,0.5-2.9,3.7c0,0-0.1,1.9,0.7,3.4
		C19.2,22.3,19.5,23.5,19.5,23.9z"/>
	<path fill="#FF7058" d="M31.3,36.6l-1.8,8.1h-11l-1.8-8.1c2.1-5.6,3-7.7,3-7.7s0.4-0.2,1.5-0.3c0,0,0.2,1.6,0.7,3.2
		c0.7,2.1,3.7,2.1,4.4,0c0.6-1.7,0.7-3.3,0.7-3.3c1.1,0.2,1.4,0.4,1.4,0.4S29.2,31,31.3,36.6z"/>
	<g>
		<g>
			<circle fill="#F2F2F2" cx="22" cy="22.9" r="0.9"/>
			<circle fill="#40596B" cx="22" cy="22.9" r="0.6"/>
			<circle fill="#FFFFFF" cx="22.3" cy="22.5" r="0.2"/>
		</g>
		<g>
			<circle fill="#F2F2F2" cx="26.1" cy="22.9" r="0.9"/>
			<circle fill="#40596B" cx="26.1" cy="22.9" r="0.6"/>
			<circle fill="#FFFFFF" cx="26.4" cy="22.5" r="0.2"/>
		</g>
	</g>
	<path fill="#FFFFFF" d="M25.6,26.1c0,0,0,0.1-0.1,0.1c-0.1,0.1-0.1,0.2-0.3,0.3c-0.1,0.1-0.3,0.2-0.5,0.3C24.5,27,24.3,27,24,27
		c-0.5,0-1-0.2-1.2-0.4c-0.1-0.1-0.2-0.2-0.3-0.3c-0.1-0.1-0.1-0.1-0.1-0.1s0.2,0.1,0.5,0.2c0.3,0.1,0.7,0.2,1.1,0.2
		c0.2,0,0.4,0,0.6-0.1c0.2,0,0.4-0.1,0.5-0.1c0.1-0.1,0.3-0.1,0.4-0.1C25.5,26.1,25.6,26.1,25.6,26.1z"/>
</g>
</svg>
