<?xml version="1.0" encoding="utf-8"?>
<!-- Generator: Adobe Illustrator 16.0.0, SVG Export Plug-In . SVG Version: 6.00 Build 0)  -->
<!DOCTYPE svg PUBLIC "-//W3C//DTD SVG 1.1//EN" "http://www.w3.org/Graphics/SVG/1.1/DTD/svg11.dtd">
<svg version="1.1" id="Layer_1" xmlns="http://www.w3.org/2000/svg" xmlns:xlink="http://www.w3.org/1999/xlink" x="0px" y="0px"
	 width="48px" height="48px" viewBox="0 0 48 48" enable-background="new 0 0 48 48" xml:space="preserve">
<g>
	<path fill="#F2F2F2" d="M46,48H2c-1.104,0-2-0.895-2-2V2c0-1.105,0.896-2,2-2h44c1.105,0,2,0.895,2,2v44C48,47.105,47.105,48,46,48
		"/>
	<rect x="4.875" y="26.811" fill="#FFD15C" width="38.434" height="9.256"/>
	<rect x="4.875" y="4.805" fill="#84DBFF" width="38.434" height="31.261"/>
	<rect x="4.875" y="26.572" fill="#FFD15C" width="38.434" height="9.494"/>
	<path fill="#54C0EB" d="M4.875,24.264v4.992c10.281,3.754,22.814-3.348,38.434,0.92v-6.834
		C27.689,27.607,15.156,20.508,4.875,24.264"/>
	<path fill="#4CDBC4" d="M15.845,32.537l-0.755-0.131c0.429-2.457-0.394-9.586-0.402-9.658l0.763-0.088
		C15.484,22.957,16.293,29.973,15.845,32.537"/>
	<path fill="#F1543F" d="M14.296,15.84c0,0,5.204-1.859,8.38,3.211c0,0-1.08,1.316-0.776,2.533
		C21.899,21.584,20.75,15.098,14.296,15.84"/>
	<path fill="#CDD6E0" d="M14.296,15.84c4.156,3.277,4.766,7.4,4.766,7.4c1.014-1.453,2.838-1.656,2.838-1.656
		c-0.008-0.043-0.019-0.084-0.027-0.127C21.681,20.59,20.239,15.156,14.296,15.84"/>
	<path fill="#F1543F" d="M14.296,15.84l0.773,7.51c1.351-0.305,3.992-0.109,3.992-0.109S18.452,19.117,14.296,15.84"/>
	<path fill="#FF7058" d="M14.381,15.84c0,0-5.581-0.131-7.731,5.865c0,0,1.35,0.939,1.291,2.23
		C7.94,23.936,7.775,17.207,14.381,15.84"/>
	<path fill="#F2F2F2" d="M14.381,15.84c-3.493,4.561-3.266,8.795-3.266,8.795c-1.309-1.094-3.175-0.699-3.175-0.699
		c-0.001-0.047,0.002-0.088,0.001-0.135C7.958,22.891,8.299,17.1,14.381,15.84"/>
	<path fill="#FF7058" d="M14.381,15.84l0.688,7.51c-1.412,0.143-3.953,1.285-3.953,1.285S10.888,20.4,14.381,15.84"/>
	<path fill="#FFFFFF" d="M40.301,10.791c0,1.672-1.355,3.027-3.027,3.027s-3.025-1.355-3.025-3.027s1.354-3.027,3.025-3.027
		S40.301,9.119,40.301,10.791"/>
	<path fill="#FFFFFF" d="M37.273,6.074c-0.129,0-0.23,0.104-0.23,0.23V7.18c0,0.129,0.104,0.23,0.23,0.23s0.23-0.102,0.23-0.23
		V6.305C37.505,6.178,37.4,6.074,37.273,6.074"/>
	<path fill="#FFFFFF" d="M37.273,14.17c-0.129,0-0.23,0.104-0.23,0.23v0.875c0,0.129,0.104,0.232,0.23,0.232s0.23-0.104,0.23-0.232
		V14.4C37.505,14.273,37.4,14.17,37.273,14.17"/>
	<path fill="#FFFFFF" d="M40.607,7.455c-0.09-0.09-0.235-0.09-0.325,0l-0.618,0.617c-0.091,0.092-0.091,0.238,0,0.328
		c0.09,0.09,0.234,0.09,0.327,0l0.616-0.619C40.699,7.691,40.699,7.545,40.607,7.455"/>
	<path fill="#FFFFFF" d="M34.884,13.18c-0.09-0.09-0.237-0.09-0.327,0l-0.617,0.619c-0.092,0.09-0.092,0.236,0,0.326
		c0.09,0.092,0.235,0.092,0.326,0l0.618-0.617C34.975,13.418,34.975,13.27,34.884,13.18"/>
	<path fill="#FFFFFF" d="M41.99,10.791c0-0.129-0.104-0.232-0.23-0.232h-0.875c-0.129,0-0.23,0.104-0.23,0.232
		c0,0.127,0.103,0.23,0.23,0.23h0.875C41.887,11.021,41.99,10.918,41.99,10.791"/>
	<path fill="#FFFFFF" d="M33.895,10.791c0-0.129-0.104-0.232-0.23-0.232h-0.875c-0.128,0-0.23,0.104-0.23,0.232
		c0,0.127,0.104,0.23,0.23,0.23h0.875C33.79,11.021,33.895,10.918,33.895,10.791"/>
	<path fill="#FFFFFF" d="M40.607,14.125c0.092-0.09,0.092-0.236,0-0.326l-0.616-0.619c-0.093-0.09-0.237-0.09-0.327,0
		c-0.091,0.092-0.091,0.236,0,0.328l0.618,0.617C40.372,14.215,40.52,14.215,40.607,14.125"/>
	<path fill="#FFFFFF" d="M34.884,8.4c0.091-0.09,0.091-0.236,0-0.326l-0.618-0.619c-0.091-0.09-0.236-0.09-0.326,0
		c-0.092,0.09-0.092,0.236,0,0.328L34.557,8.4C34.646,8.49,34.794,8.49,34.884,8.4"/>
</g>
</svg>
