<?xml version="1.0" encoding="utf-8"?>
<!-- Generator: Adobe Illustrator 18.0.0, SVG Export Plug-In . SVG Version: 6.00 Build 0)  -->
<!DOCTYPE svg PUBLIC "-//W3C//DTD SVG 1.1//EN" "http://www.w3.org/Graphics/SVG/1.1/DTD/svg11.dtd">
<svg version="1.1" id="Layer_1" xmlns="http://www.w3.org/2000/svg" xmlns:xlink="http://www.w3.org/1999/xlink" x="0px" y="0px"
	 viewBox="0 0 48 48" enable-background="new 0 0 48 48" xml:space="preserve">
<g>
	<g>
		<g>
			<g>
				<g>
					<path fill="#415A6B" d="M37.4,25.6c-0.2-0.2-0.3-0.4-0.4-0.7c-4.1,5.7-6.8,12.9-7.9,20.8c-0.1,0.7,0.4,1.3,1.1,1.4
						c0.1,0,0.1,0,0.2,0c0.6,0,1.2-0.5,1.2-1.1c1-7.6,3.6-14.4,7.6-19.8C38.5,26.3,37.8,26.1,37.4,25.6z"/>
				</g>
			</g>
			<g>
				<g>
					<polygon fill="#FFD15C" points="37.2,12.6 41.6,17.3 48,16.3 44.9,22 47.8,27.8 41.4,26.6 36.9,31.1 36,24.7 30.3,21.8 
						36.1,19 					"/>
				</g>
			</g>
		</g>
		<g>
			<g>
				<g>
					<polygon fill="#FFD15C" points="26.9,1.5 30.1,4.9 34.8,4.2 32.5,8.3 34.6,12.5 30,11.6 26.7,14.9 26.1,10.3 22,8.1 26.2,6.1 
											"/>
				</g>
			</g>
		</g>
		<g>
			<g>
				<g>
					<path fill="#415A6B" d="M20.3,45.4c-1.5-7.3-4.6-14.2-8.9-20.1C11.4,26,11,26.6,10.4,27c-0.2,0.1-0.4,0.2-0.7,0.3
						c4,5.5,6.8,12,8.2,18.7c0.1,0.6,0.6,1,1.2,1c0.1,0,0.2,0,0.3,0C20,46.8,20.5,46.1,20.3,45.4z"/>
				</g>
			</g>
			<g>
				<g>
					<polygon fill="#FFD15C" points="6.8,12.7 11.3,17.4 17.7,16.4 14.6,22.1 17.6,27.9 11.2,26.7 6.6,31.3 5.8,24.8 0,21.9 
						5.8,19.1 					"/>
				</g>
			</g>
		</g>
		<g>
			<g>
				<path fill="#415A6B" d="M24.3,47.5C24.3,47.5,24.2,47.5,24.3,47.5c-0.8,0-1.3-0.6-1.3-1.3c0.4-7,2-12.4,4.8-16.4
					c0.4-0.6,1.2-0.7,1.7-0.3c0.6,0.4,0.7,1.2,0.3,1.7c-2.5,3.6-4,8.7-4.4,15.2C25.5,47,25,47.5,24.3,47.5z"/>
			</g>
		</g>
		<g>
			<g>
				<path fill="#415A6B" d="M17.4,8.7c-0.1,0.3-0.3,0.6-0.5,0.8c-0.4,0.4-1,0.6-1.6,0.6c9,13.3,5.5,25.2,5.4,25.4
					c-0.2,0.7,0.2,1.4,0.8,1.6c0.1,0,0.3,0.1,0.4,0.1c0.5,0,1-0.3,1.2-0.9C23.3,35.7,27.2,23,17.4,8.7z"/>
			</g>
		</g>
		<g>
			<g>
				<g>
					<polygon fill="#FFD15C" points="13.8,0.5 17,3.9 21.6,3.2 19.4,7.3 21.5,11.5 16.9,10.6 13.6,13.9 13,9.3 8.8,7.1 13,5.1 					
						"/>
				</g>
			</g>
		</g>
	</g>
</g>
</svg>
