<?xml version="1.0" encoding="utf-8"?>
<!-- Generator: Adobe Illustrator 18.0.0, SVG Export Plug-In . SVG Version: 6.00 Build 0)  -->
<!DOCTYPE svg PUBLIC "-//W3C//DTD SVG 1.1//EN" "http://www.w3.org/Graphics/SVG/1.1/DTD/svg11.dtd">
<svg version="1.1" id="Layer_1" xmlns="http://www.w3.org/2000/svg" xmlns:xlink="http://www.w3.org/1999/xlink" x="0px" y="0px"
	 viewBox="0 0 48 48" enable-background="new 0 0 48 48" xml:space="preserve">
<g>
	<g>
		<g>
			<g>
				<g>
					<g>
						<path fill="#F3F3F3" d="M47.1,41.9L29,20.7v-1.3l8.1-8.1l-3.4-3.4L29,12.5V2.1H19v18.6L0.9,41.9c-2,2.4-0.3,6.1,2.8,6.1h40.6
							C47.5,48,49.1,44.3,47.1,41.9z"/>
					</g>
					<g>
						<g>
							<polygon fill="#FFD15C" points="15.6,31.1 4.7,43.9 43.3,43.9 32.4,31.1 							"/>
						</g>
					</g>
				</g>
				<g>
					<g>
						<g>
							<rect x="19" y="2.5" fill="#E8EAE9" width="10" height="3.5"/>
						</g>
					</g>
					<g>
						<g>
							<path fill="#F3F3F3" d="M29,4.1H19c-1.1,0-2.1-0.9-2.1-2.1S17.8,0,19,0h10c1.1,0,2.1,0.9,2.1,2.1S30.2,4.1,29,4.1z"/>
						</g>
					</g>
				</g>
			</g>
			<g>
				<polygon fill="#E8EAE9" points="37.1,11.3 35.7,12.7 32.2,9.3 33.7,7.9 				"/>
			</g>
			<g>
				<path fill="#F3F3F3" d="M37.1,12.3c-0.3,0-0.5-0.1-0.7-0.3l-3.4-3.4c-0.4-0.4-0.4-1.1,0-1.5c0.4-0.4,1.1-0.4,1.5,0l3.4,3.4
					c0.4,0.4,0.4,1.1,0,1.5C37.6,12.2,37.4,12.3,37.1,12.3z"/>
			</g>
			<g>
				<g>
					<g>
						<path fill="#F3F3F3" d="M37.1,12.3c-0.3,0-0.5-0.1-0.7-0.3l-3.4-3.4c-0.4-0.4-0.4-1.1,0-1.5c0.4-0.4,1.1-0.4,1.5,0l3.4,3.4
							c0.4,0.4,0.4,1.1,0,1.5C37.6,12.2,37.4,12.3,37.1,12.3z"/>
					</g>
					<g>
						<path fill="#F3F3F3" d="M37.8,10.6l-3.4-3.4c-0.4-0.4-1.1-0.4-1.5,0c-0.4,0.4-0.4,1.1,0,1.5l3.4,3.4c0.4,0.4,1.1,0.4,1.5,0
							C38.2,11.6,38.2,11,37.8,10.6z"/>
					</g>
				</g>
			</g>
		</g>
		<g>
			<g>
				<circle fill="#F7B64C" cx="16.1" cy="39.4" r="2.6"/>
			</g>
		</g>
		<g>
			<circle fill="#F7B64C" cx="22.9" cy="34" r="1.3"/>
		</g>
		<g>
			<circle fill="#F7B64C" cx="30.4" cy="40.3" r="2"/>
		</g>
		<g>
			<circle fill="#FFD15C" cx="27.3" cy="26.4" r="1.3"/>
		</g>
		<g>
			<circle fill="#FFD15C" cx="23.4" cy="18.9" r="1.8"/>
		</g>
	</g>
</g>
</svg>
