<?xml version="1.0" encoding="utf-8"?>
<!-- Generator: Adobe Illustrator 18.0.0, SVG Export Plug-In . SVG Version: 6.00 Build 0)  -->
<!DOCTYPE svg PUBLIC "-//W3C//DTD SVG 1.1//EN" "http://www.w3.org/Graphics/SVG/1.1/DTD/svg11.dtd">
<svg version="1.1" id="Layer_1" xmlns="http://www.w3.org/2000/svg" xmlns:xlink="http://www.w3.org/1999/xlink" x="0px" y="0px"
	 viewBox="0 0 48 48" enable-background="new 0 0 48 48" xml:space="preserve">
<g>
	<path fill="#E8EAE9" d="M4,0l40,0c2.2,0,4,1.8,4,4v40c0,2.2-1.8,4-4,4H4c-2.2,0-4-1.8-4-4L0,4C0,1.8,1.8,0,4,0z"/>
	<path fill="#415A6B" d="M43,4.2H5C4.6,4.2,4.2,4.6,4.2,5v38c0,0.4,0.3,0.8,0.8,0.8h38c0.4,0,0.8-0.3,0.8-0.8V5
		C43.7,4.6,43.4,4.2,43,4.2z M27.4,42.2h-7.2v-1.1h7.2V42.2z M27.4,39.7h-7.2v-1.4h7.2V39.7z M27.4,36.8h-7.2v-1.4h7.2V36.8z
		 M42.2,23.8h-9.3l-1.4,2l1.2,0.9l1-1.4h8.5v16.9H28.9V32.2l0.8-1.2l-1.2-0.9l-1.1,1.6v2.1h-7.2v-2.1h-1.5v10.5H5.7V23.4h12.9V25
		h1.5v-6.5h-1.5v3.4H5.7V5.7h12.9v7.6h1.5V5.7h22.1V23.8z"/>
</g>
</svg>
