<?xml version="1.0" encoding="utf-8"?>
<!-- Generator: Adobe Illustrator 18.0.0, SVG Export Plug-In . SVG Version: 6.00 Build 0)  -->
<!DOCTYPE svg PUBLIC "-//W3C//DTD SVG 1.1//EN" "http://www.w3.org/Graphics/SVG/1.1/DTD/svg11.dtd">
<svg version="1.1" id="Layer_1" xmlns="http://www.w3.org/2000/svg" xmlns:xlink="http://www.w3.org/1999/xlink" x="0px" y="0px"
	 viewBox="0 0 48 48" enable-background="new 0 0 48 48" xml:space="preserve">
<g>
	<rect x="21.2" y="19.4" fill="#CDD6E0" width="5.6" height="9.3"/>
	<path fill="#ACB3BA" d="M25.6,22h-3.2c-1.8,0-3.3,1.8-3.3,4h9.8C28.9,23.8,27.4,22,25.6,22z"/>
	<rect x="21.2" y="19.4" fill="#CDD6E0" width="5.6" height="9.3"/>
	<path fill="#ACB3BA" d="M25.6,22h-3.2c-1.8,0-3.3,1.8-3.3,4h9.8C28.9,23.8,27.4,22,25.6,22z"/>
	<ellipse fill="#CDD6E0" cx="24" cy="24" rx="13.7" ry="10.5"/>
	<path opacity="0.1" fill="#231F20" d="M34.7,23.2c0-0.5,0-0.9-0.1-1.4c-0.2-1.3-0.2-2.6,0-3.9C32.1,15.5,28.3,14,24,14
		c-4.3,0-8.2,1.5-10.7,3.9c0.1,1.4,0.1,2.8,0,4.2c0,0.5-0.1,1-0.1,1.4c0.2,5.6,4.7,10.2,10.3,10.4c0.1,0,0.4,0,0.4,0
		c2.9,0,5.6-1.1,7.6-3.1C33.6,28.8,34.7,26.1,34.7,23.2z"/>
	<path fill="#40596B" d="M30.5,20.8c0-0.4,0-0.8-0.2-1.3c-0.5-1.2-1.5-1.9-2.3-1.6c-0.4,0.2-0.7,0.5-0.8,1c-1-0.4-2.1-0.6-3.2-0.5
		c-1.1-0.1-2.2,0.1-3.2,0.5c-0.1-0.5-0.4-0.8-0.8-1c-0.8-0.3-1.9,0.4-2.3,1.6c-0.2,0.4-0.2,0.9-0.2,1.3c-0.9,0.7-1.4,1.3-1.2,1.6
		c-0.1,3.7,3.5,7.4,7.8,7.8c4.3-0.3,7.9-4,7.8-7.8C31.9,22.1,31.4,21.5,30.5,20.8z"/>
	<g>
		<g>
			<g>
				
					<ellipse transform="matrix(0.9211 -0.3893 0.3893 0.9211 -4.5426 6.4148)" fill="#CDD6E0" cx="13.6" cy="14.4" rx="4.3" ry="11.5"/>
				<path fill="#ACB3BA" d="M17.3,23.2c-1.3-0.8-3.7-3.4-5.6-8S9.5,7.1,9.8,5.6c1.3,0.8,3.7,3.4,5.6,8S17.6,21.7,17.3,23.2z"/>
			</g>
			<g>
				
					<ellipse transform="matrix(-0.9211 -0.3893 0.3893 -0.9211 60.5587 41.103)" fill="#CDD6E0" cx="34.4" cy="14.4" rx="4.3" ry="11.5"/>
				<path fill="#ACB3BA" d="M30.7,23.2c1.3-0.8,3.7-3.4,5.6-8c1.9-4.6,2.1-8.1,1.8-9.6c-1.3,0.8-3.7,3.4-5.6,8S30.4,21.7,30.7,23.2z
					"/>
			</g>
		</g>
		<path fill="#CDD6E0" d="M33.5,33.5c-0.5-4,0.4-7.9,2.1-11.5c0.4-0.9,0.7-1.9,0.7-2.7c0-4.1-5.4-9.7-12.3-9.9
			c-6.9,0.2-12.3,5.8-12.3,9.9c0,0.9,0.3,1.9,0.8,3c1.8,3.6,2.4,7.6,2,11.5c0,0.4-0.1,0.8,0,1.3c0.1,5,4.2,9.2,9.2,9.4
			c5.5,0.2,10-4.2,10-9.6C33.6,34.3,33.6,33.9,33.5,33.5z"/>
		<g>
			<g>
				
					<ellipse transform="matrix(0.9327 0.3608 -0.3608 0.9327 8.7667 -5.2026)" fill="#F2F2F2" cx="18.3" cy="20.9" rx="2.4" ry="2.9"/>
				<circle fill="#40596B" cx="18.3" cy="20.9" r="1.6"/>
				<circle fill="#FFFFFF" cx="19.3" cy="19.9" r="0.7"/>
			</g>
			<g>
				
					<ellipse transform="matrix(-0.9327 0.3608 -0.3608 -0.9327 64.8975 29.6449)" fill="#F2F2F2" cx="29.7" cy="20.9" rx="2.4" ry="2.9"/>
				<circle fill="#40596B" cx="29.7" cy="20.9" r="1.6"/>
				<circle fill="#FFFFFF" cx="30.6" cy="19.9" r="0.7"/>
			</g>
		</g>
		<path fill="#40596B" d="M31.1,33c0-0.4,0-0.9-0.2-1.4c-0.5-1.3-1.6-2.1-2.5-1.7c-0.4,0.2-0.7,0.6-0.9,1.1
			c-1.1-0.4-2.3-0.6-3.5-0.5c-1.2-0.1-2.4,0.1-3.5,0.5c-0.1-0.5-0.4-0.9-0.9-1.1c-0.9-0.3-2,0.4-2.5,1.7c-0.2,0.5-0.2,0.9-0.2,1.4
			c-0.9,0.8-1.5,1.5-1.3,1.7c-0.1,4,3.8,8,8.4,8.4c4.7-0.4,8.5-4.4,8.4-8.4C32.5,34.5,32,33.8,31.1,33z"/>
		<path fill="#334A5E" d="M29.7,34.3c-0.6,0-1.4-0.7-1.7-1.5c-0.2-0.6-0.3-1.1-0.1-1.6c0.1-0.4,0.3-0.7,0.6-0.9
			c0.1,0,0.2-0.1,0.3-0.1c0.6,0,1.4,0.7,1.7,1.5c0.2,0.6,0.3,1.1,0.1,1.6c-0.1,0.4-0.3,0.7-0.6,0.9C29.9,34.3,29.8,34.3,29.7,34.3z"
			/>
		<path fill="#ACB3BA" d="M24,8c0,0,3.8-0.1,3.3,6.1c0,0-0.6-3.5-1.6-4.4c0,0,1.5,5.7,0.8,9.5c0,0-0.3-5-1.7-7.1c0,0-0.9,5.9,0,8.8
			c0,0-1.4,0.5-1.1-6.2c0,0,0.3-2.2-0.6-4c0,0-0.7,6.7-1.7,8.4c0,0-0.6,0.9,0.2-2.2c0,0,0.5-5.1,0-6.1c0,0-0.9,2.3-0.4,4.1
			C21.2,14.7,18.8,8,24,8z"/>
		<path fill="#334A5E" d="M18.3,34.3c-0.1,0-0.2,0-0.3-0.1c-0.3-0.1-0.5-0.4-0.6-0.9c-0.1-0.5-0.1-1.1,0.1-1.6
			c0.3-0.9,1.1-1.5,1.7-1.5c0.1,0,0.2,0,0.3,0.1c0.3,0.1,0.5,0.4,0.6,0.9c0.1,0.5,0.1,1.1-0.1,1.6C19.7,33.6,19,34.3,18.3,34.3z"/>
	</g>
</g>
</svg>
