<?xml version="1.0" encoding="utf-8"?>
<!-- Generator: Adobe Illustrator 18.0.0, SVG Export Plug-In . SVG Version: 6.00 Build 0)  -->
<!DOCTYPE svg PUBLIC "-//W3C//DTD SVG 1.1//EN" "http://www.w3.org/Graphics/SVG/1.1/DTD/svg11.dtd">
<svg version="1.1" id="Layer_1" xmlns="http://www.w3.org/2000/svg" xmlns:xlink="http://www.w3.org/1999/xlink" x="0px" y="0px"
	 viewBox="0 0 512 512" enable-background="new 0 0 512 512" xml:space="preserve">
<g>
	<path fill="#F2F2F2" d="M499.5,299.2L238.6,33.4c-3.7-3.8-8.8-5.9-14-5.9H51.5c-10.9,0-19.8,9-19.8,20.2V224
		c0,5.4,2.1,10.5,5.8,14.3l260.9,265.9c7.7,7.9,20.3,7.9,28,0l173.1-176.3C507.2,319.9,507.2,307.1,499.5,299.2z M119.4,116.8
		c-10.9,11.1-28.5,11.1-39.4,0c-10.9-11.1-10.9-29.1,0-40.1c10.9-11.1,28.5-11.1,39.4,0C130.3,87.8,130.3,105.8,119.4,116.8z"/>
	<g>
		<path fill="#FF7058" d="M176.4,196.9l13.4,11.2c-3.4,4.9-4.9,9.5-4.6,13.8s2.4,8.3,6.2,12.2c4,4.1,7.9,6.4,11.7,6.7
			c3.8,0.3,6.8-0.6,9.1-3c1.5-1.5,2.3-3.2,2.5-5.1s-0.4-4.4-1.8-7.4c-1-2-3.4-6.4-7.3-13c-5.1-8.6-7.7-15.5-8-20.7
			c-0.4-7.4,1.9-13.6,6.8-18.6c3.2-3.2,7-5.3,11.6-6.3c4.6-1,9.2-0.5,14.1,1.5c4.8,2,9.6,5.4,14.4,10.3c7.8,8,12,15.7,12.5,23.2
			c0.5,7.5-2,14.3-7.5,20.3l-13.1-12.2c2.7-3.8,3.8-7.3,3.4-10.5c-0.4-3.2-2.3-6.6-5.9-10.2c-3.6-3.7-7.3-5.9-10.8-6.4
			c-2.3-0.4-4.2,0.3-5.9,1.9c-1.5,1.5-2.1,3.4-1.9,5.8c0.3,3,2.7,8.3,7.4,16c4.7,7.7,7.7,13.8,9.1,18.4c1.4,4.6,1.6,9,0.6,13.4
			c-1,4.4-3.5,8.6-7.4,12.6c-3.6,3.6-7.9,6-13,7.2s-10.2,0.7-15.3-1.5c-5.1-2.1-10.4-6-15.8-11.5c-7.9-8-12.1-16-12.7-24
			C167.4,212.8,170.2,204.9,176.4,196.9z"/>
		<path fill="#FF7058" d="M217.3,279.9l62.2-63.4l46.1,47l-10.5,10.7L281.5,240L267.7,254l31.2,31.8l-10.5,10.7l-31.2-31.8
			L240.3,282l34.8,35.4l-10.5,10.7L217.3,279.9z"/>
		<path fill="#FF7058" d="M303.4,305c6.3-6.5,12.6-10.9,18.8-13.4c4.6-1.8,9.4-2.7,14.3-2.8c5-0.1,9.5,0.8,13.6,2.5
			c5.5,2.3,10.8,6,15.9,11.2c9.2,9.3,13.7,19.7,13.5,31.1c-0.2,11.4-5.3,22.3-15.5,32.6c-10,10.2-20.6,15.5-31.8,15.7
			c-11.1,0.2-21.3-4.3-30.4-13.6c-9.3-9.4-13.8-19.8-13.6-31.1C288.5,325.8,293.5,315.1,303.4,305z M316.8,317.8
			c-7,7.2-10.8,14.3-11.1,21.3c-0.4,7,1.9,13.1,6.9,18.2c5,5.1,10.9,7.5,17.7,7s13.8-4.3,21-11.6c7.1-7.3,10.9-14.3,11.3-21
			c0.4-6.8-2-12.8-7.2-18.1c-5.2-5.3-11.1-7.7-17.8-7.3S323.9,310.5,316.8,317.8z"/>
	</g>
	<path fill="#ACB3BA" d="M115.2,82.9l-29.1,29.6c0,0-0.1,0-0.1,0L6.7,31.7c0,0,0-0.1,0-0.1L35.8,2c0,0,0.1,0,0.1,0L115.2,82.9
		C115.2,82.9,115.2,82.9,115.2,82.9z"/>
</g>
</svg>
