<?xml version="1.0" encoding="utf-8"?>
<!-- Generator: Adobe Illustrator 18.0.0, SVG Export Plug-In . SVG Version: 6.00 Build 0)  -->
<!DOCTYPE svg PUBLIC "-//W3C//DTD SVG 1.1//EN" "http://www.w3.org/Graphics/SVG/1.1/DTD/svg11.dtd">
<svg version="1.1" id="Layer_1" xmlns="http://www.w3.org/2000/svg" xmlns:xlink="http://www.w3.org/1999/xlink" x="0px" y="0px"
	 viewBox="0 0 48 48" enable-background="new 0 0 48 48" xml:space="preserve">
<g>
	<path fill="#ACB3BA" d="M4.2,31.3L4.2,31.3c-3.4,0-4.2-2.8-4.2-6.2v-4.6c0-3.4,0.8-6.2,4.2-6.2l0,0V31.3z"/>
	<path fill="#FF7058" d="M17.6,33.7H6.2c-1.1,0-2-0.9-2-2V13.9c0-1.1,0.9-2,2-2h11.4V33.7z"/>
	<path fill="#40596B" d="M14.1,48c-2.1,0-3.9-1.4-4.5-3.4L7,35.2l-0.4-1.5h9.7l0.4,1.5l1.9,6.9C19.4,45.1,17.2,48,14.1,48z"/>
	<path fill="#F2F2F2" d="M45.1,45.3L17.6,33.7V11.9L45.1,0.2C46.4-0.4,48,0.5,48,2v41.6C48,45,46.4,46,45.1,45.3z"/>
	<path fill="#FF7058" d="M45.1,0.2v45.1C46.4,46,48,45,48,43.6V2C48,0.5,46.4-0.4,45.1,0.2z"/>
	<polygon fill="#334A5E" points="16.7,35.2 7,35.2 6.6,33.7 16.2,33.7 	"/>
</g>
</svg>
