<?xml version="1.0" encoding="utf-8"?>
<!-- Generator: Adobe Illustrator 18.0.0, SVG Export Plug-In . SVG Version: 6.00 Build 0)  -->
<!DOCTYPE svg PUBLIC "-//W3C//DTD SVG 1.1//EN" "http://www.w3.org/Graphics/SVG/1.1/DTD/svg11.dtd">
<svg version="1.1" id="Layer_1" xmlns="http://www.w3.org/2000/svg" xmlns:xlink="http://www.w3.org/1999/xlink" x="0px" y="0px"
	 viewBox="0 0 48 48" enable-background="new 0 0 48 48" xml:space="preserve">
<g>
	<g>
		<g>
			<g>
				<g>
					<polygon fill="#415A6B" points="39.3,29.5 31.4,18 29,18 36.9,29.5 					"/>
					<polygon fill="#415A6B" points="11.7,28.7 19,18 16.6,18 9.3,28.7 					"/>
					<rect x="23" y="18" fill="#415A6B" width="2" height="18.2"/>
				</g>
			</g>
		</g>
		<g>
			<path fill="#FFD15C" d="M31.1,0H16.9c-1.3,0-2.3,1-2.3,2.3v14.2c0,1.3,1,2.3,2.3,2.3h14.2c1.3,0,2.3-1,2.3-2.3V2.3
				C33.4,1,32.4,0,31.1,0z"/>
			<g>
				<rect x="18.1" y="3.5" fill="#F7B64C" width="11.9" height="11.9"/>
			</g>
		</g>
		<g>
			<g>
				<circle fill="#F3705A" cx="24" cy="40.6" r="7.4"/>
			</g>
			<g>
				<path fill="#F05540" d="M24,45c-2.4,0-4.4-2-4.4-4.4c0-2.4,2-4.4,4.4-4.4c2.4,0,4.4,2,4.4,4.4C28.4,43,26.4,45,24,45z"/>
			</g>
		</g>
		<g>
			<g>
				<circle fill="#8AD7F8" cx="7.4" cy="33.2" r="7.4"/>
			</g>
			<g>
				<path fill="#55C0EB" d="M7.4,37.6c-2.4,0-4.4-2-4.4-4.4c0-2.4,2-4.4,4.4-4.4c2.4,0,4.4,2,4.4,4.4C11.8,35.6,9.8,37.6,7.4,37.6z"
					/>
			</g>
		</g>
		<g>
			<g>
				<circle fill="#66C6B9" cx="40.6" cy="33.2" r="7.4"/>
			</g>
			<g>
				<path fill="#4ABAA5" d="M40.6,37.6c-2.4,0-4.4-2-4.4-4.4c0-2.4,2-4.4,4.4-4.4c2.4,0,4.4,2,4.4,4.4C45,35.6,43,37.6,40.6,37.6z"
					/>
			</g>
		</g>
	</g>
</g>
</svg>
