<?xml version="1.0" encoding="utf-8"?>
<!-- Generator: Adobe Illustrator 18.0.0, SVG Export Plug-In . SVG Version: 6.00 Build 0)  -->
<!DOCTYPE svg PUBLIC "-//W3C//DTD SVG 1.1//EN" "http://www.w3.org/Graphics/SVG/1.1/DTD/svg11.dtd">
<svg version="1.1" id="Layer_1" xmlns="http://www.w3.org/2000/svg" xmlns:xlink="http://www.w3.org/1999/xlink" x="0px" y="0px"
	 viewBox="0 0 48 48" enable-background="new 0 0 48 48" xml:space="preserve">
<g>
	<g>
		<g>
			<g>
				<g>
					<path fill="#F6B64C" d="M27.8,0h-0.7l-0.6,5.5L25.9,0h-5.7c-0.9,0-1.7,0.8-1.7,1.7v32.2h2.4l0.8-6.7l0.8,6.7h6.9V1.7
						C29.5,0.8,28.8,0,27.8,0z"/>
					<polygon fill="#F6B64C" points="27.2,21.8 26.5,27.3 25.9,21.8 18.5,21.8 18.5,48 29.5,48 29.5,21.8 					"/>
				</g>
				<g>
					<g>
						<polygon fill="#FFD15D" points="26.7,0 26.5,5.5 27.2,0 						"/>
					</g>
					<polygon fill="#FFD15D" points="20.7,0 21,6 21.3,0 					"/>
				</g>
			</g>
		</g>
		<g>
			<g>
				<g>
					<path fill="#4ABAA5" d="M37.3,31.6c-1.6,1.1-3.6,2.7-5.5,4.5c-0.5,0.5-0.9,0.9-1.4,1.4c-0.4,0.5-0.8,1-1.2,1.5
						c-0.4,0.5-0.7,1-1.1,1.5c-0.3,0.5-0.6,1-0.9,1.4c-0.2,0.5-0.4,0.9-0.6,1.3c-0.2,0.4-0.3,0.8-0.4,1c-0.1,0.3-0.2,0.4-0.2,0.6
						h3.8c0-0.2,0-0.3,0.1-0.5c0.1-0.3,0.2-0.7,0.3-1.1c0.1-0.4,0.3-0.9,0.5-1.3c0.2-0.5,0.4-0.9,0.7-1.5c0.3-0.5,0.6-1,0.8-1.5
						c0.3-0.5,0.7-1,1-1.5c1.4-2,3.1-3.9,4.4-5.3c1.3-1.3,2.3-2.2,2.3-2.2S38.9,30.6,37.3,31.6z"/>
					<g>
						<path fill="#67C6B9" d="M27.7,44.9c-0.1-0.3-0.2-0.8-0.3-1.3c-0.1-0.3,0-0.7-0.1-1c0-0.4,0-0.8,0-1.2c0-0.8,0.2-1.7,0.4-2.6
							c0.2-0.9,0.5-1.8,0.8-2.6c0.3-0.8,0.6-1.6,0.9-2.3c0.6-1.3,1.1-2.1,1.1-2.1s-0.7,0.7-1.6,1.8c-0.9,1.1-2,2.8-2.9,4.6
							c-0.4,0.9-0.8,1.9-1.1,2.8c-0.1,0.5-0.3,0.9-0.4,1.4c-0.1,0.5-0.2,0.9-0.2,1.3c0,0.5-0.1,1-0.1,1.4H27.7z"/>
					</g>
				</g>
			</g>
			<g>
				<g>
					<g>
						<path fill="#4ABAA5" d="M17.8,43.1c0.2,0.4,0.3,0.9,0.5,1.3c0,0.2,0.1,0.3,0.1,0.4H22c-0.1-0.2-0.1-0.3-0.2-0.5
							c-0.1-0.4-0.4-0.8-0.6-1.2c-0.2-0.4-0.5-0.9-0.8-1.4c-0.3-0.5-0.6-1-1.1-1.5c-0.4-0.5-0.8-1-1.3-1.4c-0.5-0.5-0.9-0.9-1.5-1.3
							c-0.5-0.4-1-0.8-1.6-1.2c-0.5-0.4-1.1-0.7-1.6-1c-1.1-0.6-2.1-1-3-1.3c-1.8-0.6-3-0.8-3-0.8s1.2,0.4,2.8,1.3
							c0.8,0.4,1.7,1.1,2.6,1.8c0.4,0.4,0.9,0.7,1.3,1.2c0.4,0.4,0.8,0.8,1.2,1.3c0.4,0.4,0.7,0.9,1.1,1.4c0.4,0.5,0.6,1,0.9,1.4
							C17.4,42.2,17.6,42.7,17.8,43.1z"/>
					</g>
					<g>
						<path fill="#67C6B9" d="M20.6,39.1c0.2,0.8,0.2,1.6,0.3,2.4c0,0.4,0,0.8,0,1.2c0,0.4,0,0.8-0.1,1.1c-0.1,0.3-0.1,0.7-0.2,1
							h2.9c0-0.3-0.1-0.7-0.1-1c0-0.4-0.2-0.9-0.3-1.3c-0.1-0.4-0.3-0.9-0.4-1.3c-0.6-1.7-1.4-3.3-2.1-4.4c-0.7-1.1-1.3-1.8-1.3-1.8
							s0.3,0.8,0.7,2C20.2,37.6,20.4,38.3,20.6,39.1z"/>
					</g>
				</g>
			</g>
		</g>
		<g>
			<path fill="#FFD15D" d="M44.3,6c0-5.9-40.7-5.9-40.7,0v4.2L17,10.8L3.7,11.4v7.8l6.7,0.9L3.7,21V29c0,1,0.8,1.9,1.9,1.9h36.9
				c1,0,1.9-0.8,1.9-1.9v-1.4l-16-1.1l16-1.1V15.2l-10.9-1l10.9-1V6z"/>
			<g>
				<g>
					<polygon fill="#F6B64C" points="3.7,19.8 10.3,20.1 3.7,19.2 					"/>
				</g>
				<g>
					<polygon fill="#F6B64C" points="44.3,13.2 44.3,13.9 33.5,14.2 					"/>
				</g>
				<polygon fill="#F6B64C" points="3.7,27.9 10.8,27.5 3.7,27.2 				"/>
				<g>
					<polygon fill="#F6B64C" points="17,10.8 3.7,10.6 3.7,10.2 					"/>
				</g>
			</g>
			<g>
				<polygon fill="#F6B64C" points="44.3,26.1 28.3,26.5 44.3,25.3 				"/>
			</g>
		</g>
		<circle fill="#354B5E" cx="24" cy="4.8" r="1.3"/>
		<g>
			<path fill="#F6B64C" d="M28.4,8.9c0,0-1.9-1.1-4.4-1c-2.5-0.1-4.4,1-4.4,1c-4.4,2.6-3.8,7.3-3.2,8.4c0.7,1.1,0.6,1.5,0.6,1.5
				c-1.3,1.3,1.3,2.4,1.3,2.4s0,0.1,0.6,3.4c0.6,3.4,5.2,2.9,5.2,2.9s4.7,0.4,5.2-2.9c0.6-3.4,0.6-3.4,0.6-3.4s2.6-1.1,1.2-2.4
				c0,0-0.1-0.4,0.6-1.5C32.2,16.2,32.9,11.5,28.4,8.9z M19.8,24c-0.3-0.1-0.4-0.8-0.6-1.5C19,21.7,18.8,21,19,20.8
				c0.3-0.2,1.1,0.4,1.3,1.4C20.6,23.3,20.2,24.1,19.8,24z M28.8,22.5c-0.2,0.8-0.3,1.5-0.7,1.5c-0.3,0.1-0.8-0.7-0.5-1.8
				c0.3-1,1.1-1.6,1.3-1.4C29.2,21,29,21.7,28.8,22.5z"/>
			<g>
				<path fill="#FFD15D" d="M24.6,19.7c-0.4-0.8-0.8-0.8-1.2,0c-0.4,0.8-0.9,1.7-0.5,2.1c0.3,0.4,1.9,0.4,2.3,0
					C25.5,21.4,25,20.6,24.6,19.7z"/>
				<g>
					<g>
						<path fill="#FFD15D" d="M22.8,16.5c0-1-2-2.1-3-2.1c-1,0-1.8,0.8-1.8,1.8c0,1,0.8,1.8,1.8,1.8C20.9,18.1,22.8,17.5,22.8,16.5z
							"/>
					</g>
					<g>
						<path fill="#FFD15D" d="M25.2,16.5c0-1,2-2.1,3-2.1c1,0,1.8,0.8,1.8,1.8c0,1-0.8,1.8-1.8,1.8C27.1,18.1,25.2,17.5,25.2,16.5z"
							/>
					</g>
				</g>
			</g>
		</g>
		<g>
			<path fill="#4ABAA5" d="M23,43.6c0.1,0.4,0.1,0.8,0.2,1.2h3.5c-0.1-0.3-0.3-0.5-0.5-0.8c-0.2-0.3-0.3-0.7-0.5-1.1
				c-0.2-0.4-0.3-0.9-0.4-1.3c-0.2-0.5-0.2-1-0.4-1.5c-0.1-0.5-0.2-1.1-0.3-1.6c-0.1-1.1-0.2-2.2-0.2-3.2c0-1,0.1-2,0.2-2.9
				c0.2-1.7,0.4-2.8,0.4-2.8s-0.5,1-1,2.7c-0.3,0.8-0.6,1.8-0.8,2.8c-0.2,1.1-0.4,2.2-0.6,3.4c0,0.6-0.1,1.2-0.1,1.8
				c0,0.6,0,1.2,0,1.7C22.9,42.6,22.9,43.1,23,43.6z"/>
		</g>
		<path fill="#435B6C" d="M24,42.5c-7.7,0-14.5,2.2-18.4,5.5h36.8C38.5,44.7,31.7,42.5,24,42.5z"/>
	</g>
</g>
</svg>
