<?xml version="1.0" encoding="utf-8"?>
<!-- Generator: Adobe Illustrator 18.0.0, SVG Export Plug-In . SVG Version: 6.00 Build 0)  -->
<!DOCTYPE svg PUBLIC "-//W3C//DTD SVG 1.1//EN" "http://www.w3.org/Graphics/SVG/1.1/DTD/svg11.dtd">
<svg version="1.1" id="Layer_1" xmlns="http://www.w3.org/2000/svg" xmlns:xlink="http://www.w3.org/1999/xlink" x="0px" y="0px"
	 viewBox="0 0 48 48" enable-background="new 0 0 48 48" xml:space="preserve">
<g>
	<g>
		<g>
			<g>
				<path fill="#E8EAE9" d="M8.8,30.1c-4.8,0-8.8-3.9-8.8-8.8c0-4.6,3.5-8.4,8-8.7c0.6-3.4,2.3-6.6,5.1-9c6.3-5.3,15.7-4.5,21.1,1.8
					c2.2,2.6,3.4,5.8,3.5,9c0.7-0.2,1.5-0.3,2.3-0.3c4.4,0,8,3.6,8,8s-3.6,8-8,8H8.8z"/>
			</g>
		</g>
		<g>
			<polygon fill="#415A6B" points="20.2,48 22.7,37.9 16.8,37.9 26.5,22.2 23.9,32.9 31.2,32.9 			"/>
		</g>
		<g>
			<g>
				<polygon fill="#415A6B" points="6.8,48 8.5,41.1 4.5,41.1 11.1,30.4 9.3,37.7 14.3,37.7 				"/>
			</g>
			<g>
				<polygon fill="#415A6B" points="36.1,48 37.7,41.1 33.7,41.1 40.4,30.4 38.6,37.7 43.5,37.7 				"/>
			</g>
		</g>
	</g>
</g>
</svg>
