<?xml version="1.0" encoding="utf-8"?>
<!-- Generator: Adobe Illustrator 18.0.0, SVG Export Plug-In . SVG Version: 6.00 Build 0)  -->
<!DOCTYPE svg PUBLIC "-//W3C//DTD SVG 1.1//EN" "http://www.w3.org/Graphics/SVG/1.1/DTD/svg11.dtd">
<svg version="1.1" id="Layer_1" xmlns="http://www.w3.org/2000/svg" xmlns:xlink="http://www.w3.org/1999/xlink" x="0px" y="0px"
	 viewBox="0 0 512 512" enable-background="new 0 0 512 512" xml:space="preserve">
<g>
	<path fill="#65C5B8" d="M256,2c-86,0-156,70-156,156v70.3h56.4V158c0-54.9,44.7-99.5,99.5-99.5c54.9,0,99.5,44.6,99.5,99.5v24.6
		H412V158C412,72,342,2,256,2z"/>
	<path fill="#41596B" d="M466.3,228.2H45.8c-11.7,0-21.2,9.5-21.2,21.2v239.4c0,11.7,9.5,21.2,21.2,21.2h420.5
		c11.7,0,21.2-9.5,21.2-21.2V249.4C487.4,237.7,478,228.2,466.3,228.2z"/>
	<rect x="24.6" y="319.8" fill="#F2705B" width="462.8" height="98.6"/>
	<g>
		<polygon fill="#F2F2F2" points="88.2,319.8 39.4,418.4 24.6,418.4 24.6,320.7 25,319.8 		"/>
	</g>
	<g>
		<polygon fill="#F2F2F2" points="151.3,418.4 88.2,418.4 136.9,319.8 200.1,319.8 		"/>
	</g>
	<g>
		<polygon fill="#F2F2F2" points="263.2,418.4 200.1,418.4 248.8,319.8 312,319.8 		"/>
	</g>
	<g>
		<polygon fill="#F2F2F2" points="375.1,418.4 312,418.4 360.8,319.8 423.9,319.8 		"/>
	</g>
	<g>
		<polygon fill="#F2F2F2" points="487.4,319.8 487.4,417.5 487,418.4 423.9,418.4 472.7,319.8 		"/>
	</g>
</g>
</svg>
