<?xml version="1.0" encoding="utf-8"?>
<!-- Generator: Adobe Illustrator 20.1.0, SVG Export Plug-In . SVG Version: 6.00 Build 0)  -->
<!DOCTYPE svg PUBLIC "-//W3C//DTD SVG 1.1//EN" "http://www.w3.org/Graphics/SVG/1.1/DTD/svg11.dtd">
<svg version="1.1" id="Layer_1" xmlns="http://www.w3.org/2000/svg" xmlns:xlink="http://www.w3.org/1999/xlink" x="0px" y="0px"
	 viewBox="0 0 49 49" enable-background="new 0 0 49 49" xml:space="preserve">
<g>
	<path fill="#F1543F" d="M43,3.8H6c-1.6,0-2.8,1.3-2.8,2.8S4.5,9.5,6,9.5h37c1.6,0,2.8-1.3,2.8-2.8S44.5,3.8,43,3.8z"/>
	<polygon fill="#FF7058" points="35,0.5 14,0.5 11,3.8 38,3.8 	"/>
	<path fill="#E2E2E2" d="M43,9.5H6c-0.1,0-0.1,0-0.2,0L6.1,11l2.2,12.6l2.1,11.5l2.1,11.8c0.2,1,1,1.6,2,1.6h20.1c1,0,1.8-0.7,2-1.6
		l2.1-11.8l2-11.5L42.9,11l0.3-1.5C43.1,9.5,43,9.5,43,9.5z"/>
	<path fill="#CDD6E0" d="M43.2,9.5L42.9,11H6.1L5.8,9.5c0.1,0,0.1,0,0.2,0h37C43,9.5,43.1,9.5,43.2,9.5z"/>
	<path fill="#FFD15C" d="M40.6,23.5h-8.2c-1.6-3.5-4.5-5.9-7.9-5.9s-6.4,2.4-7.9,5.9H8.4L10.5,35h6.2c1.6,3.5,4.5,5.9,7.9,5.9
		s6.4-2.4,7.9-5.9h6.2L40.6,23.5z"/>
	<path fill="#40596B" d="M24.7,36.2c1.4-2,1.2-4.7-0.6-6.5c-1.1-1.1-1.8-2.6-1.8-4.2c0-0.9,0.2-1.8,0.6-2.6
		c-1.9,0.9-3.2,3.5-3.2,6.5c0,3.8,2.1,6.8,4.7,6.8C24.6,36.2,24.7,36.2,24.7,36.2z"/>
	<path fill="#40596B" d="M24.5,22.5c-0.1,0-0.2,0-0.2,0c-0.6,0.8-0.9,1.9-0.9,2.9c0,1.4,0.5,2.6,1.5,3.6c1.8,1.8,2.2,4.6,1.2,6.8
		c1.9-0.9,3.2-3.5,3.2-6.5C29.2,25.6,27.1,22.5,24.5,22.5z"/>
</g>
</svg>
