<?xml version="1.0" encoding="utf-8"?>
<!-- Generator: Adobe Illustrator 18.0.0, SVG Export Plug-In . SVG Version: 6.00 Build 0)  -->
<!DOCTYPE svg PUBLIC "-//W3C//DTD SVG 1.1//EN" "http://www.w3.org/Graphics/SVG/1.1/DTD/svg11.dtd">
<svg version="1.1" id="Layer_1" xmlns="http://www.w3.org/2000/svg" xmlns:xlink="http://www.w3.org/1999/xlink" x="0px" y="0px"
	 viewBox="0 0 48 48" enable-background="new 0 0 48 48" xml:space="preserve">
<g>
	<path fill="#40596B" d="M44.1,8.9H3.5c-0.6,0-1.1-0.5-1.1-1.1v0c0-0.6,0.5-1.1,1.1-1.1h40.6c0.6,0,1.1,0.5,1.1,1.1v0
		C45.2,8.4,44.7,8.9,44.1,8.9z"/>
	<rect y="41.2" fill="#ACB3BA" width="48" height="4.2"/>
	<rect y="7.8" fill="#54C0EB" width="48" height="7"/>
	<rect x="2.2" y="14.8" fill="#F2F2F2" width="43.7" height="26.4"/>
	<path fill="#FF7058" d="M31.7,26.7h-5.9l2.1-8.1c0.1-0.3-0.2-0.4-0.4-0.3L16.1,28.8c-0.2,0.2-0.1,0.5,0.2,0.5h5.9l-2.1,8.1
		c-0.1,0.3,0.2,0.4,0.4,0.3l11.4-10.4C32.1,27,32,26.7,31.7,26.7z"/>
	<rect x="2.2" y="14.8" fill="#E4EAEF" width="43.7" height="1.5"/>
	<g>
		<g>
			<path fill="#ACB3BA" d="M10.1,6.7H5.7V4.9c0-1.2,1-2.2,2.2-2.2h0c1.2,0,2.2,1,2.2,2.2V6.7z"/>
		</g>
		<g>
			<path fill="#ACB3BA" d="M42.3,6.7h-4.5V4.9c0-1.2,1-2.2,2.2-2.2h0c1.2,0,2.2,1,2.2,2.2V6.7z"/>
		</g>
	</g>
</g>
</svg>
