<?xml version="1.0" encoding="utf-8"?>
<!-- Generator: Adobe Illustrator 19.0.1, SVG Export Plug-In . SVG Version: 6.00 Build 0)  -->
<svg version="1.1" id="Layer_1" xmlns="http://www.w3.org/2000/svg" xmlns:xlink="http://www.w3.org/1999/xlink" x="0px" y="0px"
	 viewBox="0 0 48 48" style="enable-background:new 0 0 48 48;" xml:space="preserve">
<style type="text/css">
	.st0{fill:#415A6B;}
	.st1{fill:#ADB3BA;}
	.st2{fill:#E8EAE9;}
	.st3{fill:#55C0EB;}
	.st4{fill:#F3705A;}
	.st5{fill:#FFFFFF;}
	.st6{fill:#FFD15C;}
	.st7{fill:#344A5E;}
	.st8{fill:#CED6E0;}
	.st9{fill:#F05540;}
	.st10{fill:#F7B64C;}
	.st11{fill:#F3F3F3;}
	.st12{fill:#66C6B9;}
	.st13{fill:#4ABAA5;}
	.st14{fill:#8AD7F8;}
	.st15{fill:none;}
	.st16{fill:#E53D35;}
</style>
<g>
	<g>
		<g>
			<g>
				<g>
					<g>
						<rect x="6.6" y="35.6" class="st10" width="5.8" height="8.9"/>
					</g>
				</g>
				<g>
					<g>
						<path class="st6" d="M13.2,33.9c0,0-0.7,5-3.8,5S6,34.9,6,34.5s-0.5-3.1,0.3-5c0.8-1.9,4.1-2.2,5.5-1.4
							c1.4,0.7,1.7,0.9,1.8,1.8S13.5,33.3,13.2,33.9z"/>
					</g>
					<g>
						<g>
							<g>
								<path class="st6" d="M14.3,33.5c-0.1,0.8-0.5,1.4-0.9,1.4s-0.6-0.6-0.5-1.4c0.1-0.8,0.5-1.4,0.9-1.4S14.4,32.8,14.3,33.5z"
									/>
							</g>
						</g>
						<g>
							<g>
								<path class="st6" d="M4.7,33.5c0.1,0.8,0.5,1.4,0.9,1.4s0.6-0.6,0.5-1.4c-0.1-0.8-0.5-1.4-0.9-1.4S4.6,32.8,4.7,33.5z"/>
							</g>
						</g>
					</g>
					<g>
						<g>
							<path class="st0" d="M13.8,32.7c-0.5,0.8-0.6,1.2-0.6,1.2s0.2-2.1-0.3-2.9c-0.3-0.4-0.2-0.8-0.2-1.2c0-0.5-0.4-0.8-0.9-0.7
								c-1.4,0.3-2.8,0.3-4.2,0c-0.5-0.1-0.9,0.3-0.9,0.7c0,0.4-0.2,0.8-0.5,1.2c-0.4,0.6-0.4,2.1-0.4,2.7c-0.1-0.3-0.3-0.5-0.5-0.8
								c-0.5-0.5-0.7-1.2-0.6-1.9c0,0,0,0,0,0c0.1-0.7,0.5-2.6,1.2-3.3c0.7-0.7,2.5-2.1,4.7-1.5c2.2,0.6,3.4,3.3,3.6,4.1
								C14.4,31.2,14.3,31.9,13.8,32.7z"/>
						</g>
					</g>
				</g>
			</g>
			<g>
				<polygon class="st2" points="13.8,48 13.8,40.5 6.8,40.5 6.2,48 				"/>
			</g>
			<g>
				<g>
					<polygon class="st0" points="10.3,42.9 11.1,42.1 9.5,40.5 7.8,42.1 8.6,42.9 					"/>
				</g>
				<g>
					<polygon class="st0" points="11.1,48 10.3,42.9 8.6,42.9 7.8,48 					"/>
				</g>
				<g>
					<path class="st9" d="M11,48h7.9v-5.8c0-1.2-0.8-2.3-2-2.6l-3.6-1l0.1,0.9C13.4,39.5,12.1,43.7,11,48z"/>
					<g>
						<path class="st9" d="M7.9,48c-1.1-4.3-2.4-8.5-2.4-8.5l0.1-0.9l-3.6,1c-1.2,0.3-2,1.4-2,2.6V48H7.9z"/>
					</g>
				</g>
			</g>
			<g>
				<g>
					<g>
						<g>
							<path class="st5" d="M12.5,37.4c0,0-0.1-0.3-0.1-0.3c0,0,0,1.1-0.5,1.5s-2.4,1.9-2.4,1.9l1.8,3l2-4.1L12.5,37.4"/>
						</g>
						<g>
							<path class="st4" d="M12.2,48c1.3-2.8,2.8-6.3,2.8-6.3l-1.2-0.9l1.2,0l-2.5-3.4c-0.2,2.3-1.1,6.3-2.1,10.6H12.2z"/>
						</g>
					</g>
				</g>
				<g>
					<g>
						<g>
							<path class="st5" d="M6.4,37.4l0.1-0.1c0,0,0,0.8,0.5,1.3s2.4,1.9,2.4,1.9l-1.8,3l-1.9-4.2C5.8,39.3,5.8,38,6.4,37.4"/>
						</g>
						<g>
							<path class="st4" d="M6.7,48h1.7c-1-4.4-1.9-8.3-2-10.6l-2.5,3.4l1.2,0l-1.2,0.9C3.9,41.7,5.5,45.2,6.7,48z"/>
						</g>
					</g>
				</g>
			</g>
		</g>
		<g>
			<g>
				<g>
					<g>
						<rect x="35.6" y="35.6" class="st10" width="5.8" height="8.9"/>
					</g>
				</g>
				<g>
					<g>
						<path class="st6" d="M42.3,33.9c0,0-0.7,5-3.8,5s-3.5-4-3.5-4.4s-0.5-3.1,0.3-5c0.8-1.9,4.1-2.2,5.5-1.4
							c1.4,0.7,1.7,0.9,1.8,1.8C42.7,30.9,42.6,33.3,42.3,33.9z"/>
					</g>
					<g>
						<g>
							<g>
								<path class="st6" d="M43.4,33.5c-0.1,0.8-0.5,1.4-0.9,1.4c-0.4,0-0.6-0.6-0.5-1.4c0.1-0.8,0.5-1.4,0.9-1.4
									S43.5,32.8,43.4,33.5z"/>
							</g>
						</g>
						<g>
							<g>
								<path class="st6" d="M33.8,33.5c0.1,0.8,0.5,1.4,0.9,1.4c0.4,0,0.6-0.6,0.5-1.4c-0.1-0.8-0.5-1.4-0.9-1.4
									S33.7,32.8,33.8,33.5z"/>
							</g>
						</g>
					</g>
					<g>
						<g>
							<path class="st0" d="M42.9,32.7c-0.5,0.8-0.6,1.2-0.6,1.2s0.2-2.1-0.3-2.9c-0.3-0.4-0.2-0.8-0.2-1.2c0-0.5-0.4-0.8-0.9-0.7
								c-1.4,0.3-2.8,0.3-4.2,0c-0.5-0.1-0.9,0.3-0.9,0.7c0,0.4-0.2,0.8-0.5,1.2c-0.4,0.6-0.4,2.1-0.4,2.7c-0.1-0.3-0.3-0.5-0.5-0.8
								c-0.5-0.5-0.7-1.2-0.6-1.9c0,0,0,0,0,0c0.1-0.7,0.5-2.6,1.2-3.3c0.7-0.7,2.5-2.1,4.7-1.5c2.2,0.6,3.4,3.3,3.6,4.1
								C43.5,31.2,43.4,31.9,42.9,32.7z"/>
						</g>
					</g>
				</g>
			</g>
			<g>
				<polygon class="st2" points="42.9,48 42.9,40.5 35.9,40.5 35.3,48 				"/>
			</g>
			<g>
				<g>
					<polygon class="st0" points="39.4,42.9 40.2,42.1 38.5,40.5 36.9,42.1 37.7,42.9 					"/>
				</g>
				<g>
					<polygon class="st0" points="40.2,48 39.4,42.9 37.7,42.9 36.9,48 					"/>
				</g>
				<g>
					<path class="st13" d="M40.1,48H48v-5.8c0-1.2-0.8-2.3-2-2.6l-3.6-1l0.1,0.9C42.5,39.5,41.2,43.7,40.1,48z"/>
					<g>
						<path class="st13" d="M37,48c-1.1-4.3-2.4-8.5-2.4-8.5l0.1-0.9l-3.6,1c-1.2,0.3-2,1.4-2,2.6V48H37z"/>
					</g>
				</g>
			</g>
			<g>
				<g>
					<g>
						<g>
							<path class="st5" d="M41.6,37.4c0,0-0.1-0.3-0.1-0.3c0,0,0,1.1-0.5,1.5s-2.4,1.9-2.4,1.9l1.8,3l2-4.1L41.6,37.4"/>
						</g>
						<g>
							<path class="st12" d="M41.3,48c1.3-2.8,2.8-6.3,2.8-6.3l-1.2-0.9l1.2,0l-2.5-3.4c-0.2,2.3-1.1,6.3-2.1,10.6H41.3z"/>
						</g>
					</g>
				</g>
				<g>
					<g>
						<g>
							<path class="st5" d="M35.5,37.4l0.1-0.1c0,0,0,0.8,0.5,1.3c0.5,0.4,2.4,1.9,2.4,1.9l-1.8,3l-1.9-4.2
								C34.9,39.3,34.9,38,35.5,37.4"/>
						</g>
						<g>
							<path class="st12" d="M35.8,48h1.7c-1-4.4-1.9-8.3-2-10.6L33,40.8l1.2,0L33,41.7C33,41.7,34.5,45.2,35.8,48z"/>
						</g>
					</g>
				</g>
			</g>
		</g>
		<g>
			<g>
				<g>
					<polygon class="st6" points="27.3,13.9 28,19.6 20.6,19.6 20.6,14 					"/>
				</g>
				<g>
					<polygon class="st8" points="27.8,23.9 27.4,16.3 27.3,16.3 24,16.5 20.7,16.3 20.6,16.3 20.2,23.9 					"/>
				</g>
				<g>
					<path class="st7" d="M22.1,23.9l-2.4-8.8l-2.2,0.1c-1.5,0.1-2.7,1.2-3.1,2.6l-1.4,6H22.1z"/>
					<path class="st7" d="M34.9,23.9l-1.4-6c-0.3-1.4-1.6-2.5-3.1-2.6l-2.2-0.1l-2.4,8.8H34.9z"/>
				</g>
				<g>
					<g>
						<polygon class="st4" points="24.9,19.3 25.9,18.3 24,16.5 22.1,18.3 23.1,19.3 						"/>
					</g>
					<g>
						<polygon class="st4" points="25.9,23.9 24.9,19.3 23.1,19.3 22.1,23.9 						"/>
					</g>
				</g>
				<g>
					<g>
						<path class="st6" d="M21,15.7v-4.5c-0.4-0.8-0.6-2.9-0.6-2.9V3.1l3.9-1.9l3.2,1.9l0.9,2.3l-0.7,4.1c0,0-0.2,1.5-0.7,2.3v4.3
							L21,15.7z"/>
					</g>
					<g>
						<g>
							<g>
								<ellipse transform="matrix(-0.9708 0.24 -0.24 -0.9708 41.3039 10.8415)" class="st6" cx="20" cy="7.9" rx="0.7" ry="1.6"/>
							</g>
							<g>
								<ellipse transform="matrix(0.9708 0.24 -0.24 0.9708 2.8123 -6.5368)" class="st6" cx="28.2" cy="8.3" rx="0.7" ry="1.6"/>
							</g>
						</g>
						<g>
							<path class="st0" d="M28.1,8c-0.1,0.2-0.2,0.7-0.3,1h-0.1c0.1-0.2,0.1-0.7,0.1-1c0-0.4,0.1-1.2-0.2-1.6
								c-0.2-0.4,0.1-1.1,0-1.4c-0.1-0.3,0.2-0.8-1.3-1.4c-1.5-0.6-2.4-1-3.5-0.9c-1.1,0.1-2,1.4-1.6,2.4c0,0,0.1,0.4-0.1,0.7
								c-0.2,0.3-0.3,0.8-0.4,1.2c0,0.4,0,1.5,0,1.9h-0.2c-0.1-0.2-0.1-1.2-0.5-2c-0.3-0.7-0.4-1.5-0.5-2.2
								c-0.3-2.1,2.5-5.1,5.1-4.6c2.6,0.5,3.7,2.2,3.9,3.1c0.2,0.9,0.1,2.6,0,3.2C28.5,7,28.2,7.6,28.1,8z"/>
						</g>
					</g>
					<path class="st10" d="M24.4,13.8c1.6,0,2.6-2,2.6-2V16c-0.4-0.2-1.3-0.4-2-0.6c-3.3-1.3-4-4.2-4-4.2S22.3,13.8,24.4,13.8z"/>
					<g>
						<g>
							<path class="st11" d="M26.9,13.1c0,0-0.1,0.9-0.7,1.7c-0.6,0.8-2.2,1.7-2.2,1.7l2.1,2.1l1.2-2.1
								C27.3,16.5,27.6,13.6,26.9,13.1z"/>
						</g>
						<g>
							<path class="st11" d="M21,13.1c0,0,0.1,0.9,0.7,1.7c0.6,0.8,2.2,1.7,2.2,1.7l-2.1,2.1l-1.2-2.1C20.7,16.5,20.4,13.6,21,13.1z
								"/>
						</g>
					</g>
				</g>
				<g>
					<g>
						<g>
							<path class="st0" d="M22.8,23.9c-0.6-4-1.7-10.8-1.7-10.8l-2,2.4l2.2,8.4H22.8z"/>
						</g>
					</g>
					<g>
						<g>
							<path class="st0" d="M26.9,23.9l2.4-8.4c0,0-1.7-2-2.3-2.4l-1.7,10.8H26.9z"/>
						</g>
					</g>
				</g>
			</g>
		</g>
		<g>
			<path class="st12" d="M11.2,11.9l-0.5-1.8c-3.8,1-6.3,4.3-6.5,8c-0.5-0.7-0.8-1.5-1.1-2.4C2,11,4.8,6.3,9.4,5L9,3.3l5.7,3.1
				L11.2,11.9z"/>
		</g>
		<g>
			<path class="st4" d="M38,13l1.8,0.2c0.4-3.9-1.8-7.4-5.2-8.9c0.9-0.2,1.7-0.2,2.7-0.1c4.8,0.5,8.3,4.7,7.8,9.5l1.8,0.2l-4.9,4.3
				L38,13z"/>
		</g>
		<g>
			<path class="st0" d="M23,29.6L21.8,31c3,2.5,7.1,2.7,10.3,0.8c-0.3,0.8-0.8,1.6-1.4,2.3c-3.1,3.7-8.6,4.1-12.3,0.9l-1.2,1.4
				l-0.7-6.5L23,29.6z"/>
		</g>
	</g>
</g>
</svg>
