<?xml version="1.0" encoding="utf-8"?>
<!-- Generator: Adobe Illustrator 18.0.0, SVG Export Plug-In . SVG Version: 6.00 Build 0)  -->
<!DOCTYPE svg PUBLIC "-//W3C//DTD SVG 1.1//EN" "http://www.w3.org/Graphics/SVG/1.1/DTD/svg11.dtd">
<svg version="1.1" id="Layer_1" xmlns="http://www.w3.org/2000/svg" xmlns:xlink="http://www.w3.org/1999/xlink" x="0px" y="0px"
	 viewBox="0 0 48 48" enable-background="new 0 0 48 48" xml:space="preserve">
<g>
	<g>
		<path fill="#FFD15C" d="M25.1,47.9h8.7c1-2.1,2.2-2.7,2.2-2.7c6-2.3,8.2-5.7,8.2-5.7c5.9-9.1,3.2-19.1,3.2-19.1
			c-2-2.5-2.5,2.3-2.5,2.3c-2.1-3.4-2.8,3.2-2.8,3.2c-1.8-3-3.1,5.4-3.1,5.4c3.2-3.1,4.4-1.8,4.4-1.8c2.5,2.1-1,6.1-1,6.1
			c-3.7,4.5-6.9,4.3-6.9,4.3c-1.3,0,0-0.9,1.2-1.6c1.4-0.8,2.7-1.7,3.9-2.8c2.3-2.3,2.4-3.8,2.4-3.8c-0.1-2.3-2-0.5-2-0.5
			c-2.8,3-8.5,4.1-8.5,4.1c-9,1.8-7.4,10-7.4,10C25.1,46.4,25.1,47.2,25.1,47.9z"/>
		<path fill="#FFD15C" d="M12.1,45.2c0,0,1.1,0.6,2.2,2.7h8.7c0-0.7,0-1.6,0.1-2.6c0,0,1.6-8.2-7.4-10c0,0-5.7-1.1-8.5-4.1
			c0,0-1.9-1.8-2,0.5c0,0,0.1,1.5,2.4,3.8c1.1,1.1,2.4,2.1,3.9,2.8c1.2,0.6,2.6,1.5,1.2,1.6c0,0-3.2,0.2-6.9-4.3c0,0-3.6-4-1-6.1
			c0,0,1.2-1.3,4.4,1.8c0,0-1.3-8.4-3.1-5.4c0,0-0.8-6.6-2.8-3.2c0,0-0.6-4.8-2.5-2.3c0,0-2.7,10,3.2,19.1
			C3.9,39.5,6.1,42.9,12.1,45.2z"/>
	</g>
	<g>
		<circle fill="#54C0EB" cx="24" cy="17.1" r="17.1"/>
		<path fill="#84DBFF" d="M41.1,17c-0.3,0.5-0.7,1-1,1.5c-1.3,2-1.8,4.3-2.6,6.5c-0.2,0.6-0.7,1.7-1.3,1.3c-1.7-1.2-0.1-4.5-1.2-6.4
			c-0.4-0.7-0.9-1.3-1.7-1.6c-1.4-0.6-3.1,0-4.5-0.4c-1.3-0.4-2.1-1.7-2.2-3.1c-0.1-1.3,0.6-2.7,1.7-3.5c1-0.8,2.3-1.3,3.5-0.9
			c0.5,0.1,0.9,0.4,1.3,0.5c1.2,0.3,2.4-0.2,3.5-0.7c0.5-0.2,1-0.6,0.9-1.1c-0.1-0.4-0.5-0.5-0.9-0.6c-0.7-0.1-1.5,0.1-2.2,0.2
			c-0.7,0.1-1.5,0-2.1-0.5C32,8,31.6,7.5,31.2,7.7c-0.2,0.1-0.3,0.2-0.4,0.4c-0.7,0.7-1.8,0.6-2.7,0.5c-0.1,0-0.3,0-0.4-0.1
			c-0.2-0.2,0-0.6,0.2-0.8c0.6-0.7,1.3-1.3,1.7-2.1c0,0,0,0,0,0C30.2,4.4,29.4,3,28.1,3c-0.7,0-1.3-0.2-1.8-0.7
			c-0.6-0.5-0.8-1.4-0.7-2.1C34.3,0.9,41,8.2,41.1,17z"/>
		<path fill="#84DBFF" d="M20.3,5c-0.6,1.4-2.2,2-3.2,3.1c-0.7,0.7-1.2,1.7-1.7,2.6L15.2,11c-0.6,1.1-1.8,1.5-3,1.1
			c-0.2-0.1-0.4-0.1-0.6-0.1c-0.9,0-1.9,0.7-2.1,1.6c0,0.2,0,0.4,0.1,0.6c0.2,0.4,0.6,0.6,1.1,0.6c0,0,0,0,0,0
			c0.8,0,1.5,0.4,1.7,1.2c0,0,0,0,0,0c0.3,0.9-0.8,1.7-1.6,1.1c-1-0.8-1.8-1.9-2.2-3.1C8.2,13.2,8,12.1,8,11v0
			c2-5.1,6.3-9,11.7-10.4c0.2,0.4,0.3,0.9,0.5,1.3C20.5,2.9,20.7,4.1,20.3,5z"/>
		<path fill="#84DBFF" d="M24.9,22.8c-0.3,0.4-0.7,0.7-1,1.1c-1.9,2-1.6,5.5-3.8,7.2c-0.4,0.3-0.9,0.5-1,1c0,0.2,0,0.4,0,0.6
			c0,0.3,0.1,0.6,0.1,0.9c-0.7-0.2-1.4-0.4-2-0.7c-0.4-0.7-0.9-1.4-1-2.2c-0.2-1.1,0.2-2.3-0.1-3.3c-0.5-1.9-2.7-2.9-3.4-4.7
			c-0.4-1.2-0.1-2.6,0.5-3.7c0.3-0.7,0.8-1.4,1.6-1.6c0.6-0.2,1.2-0.1,1.7,0.1c2.3,0.8,4,3.2,6.4,3.4c0.7,0.1,1.7,0,2.1,0.6
			C25.3,21.8,25.2,22.4,24.9,22.8z"/>
		<path fill="#FFFFFF" d="M34.2,7.6c0.9-0.6,1.7-1.2,2.4-1.9c-0.3-0.3-0.5-0.5-0.8-0.8c-0.7,0.6-1.4,1.2-2.1,1.7
			C31.5,2.2,28,0.1,24,0.1c-4,0-7.5,2.1-9.8,6.5c-0.8-0.5-1.5-1.1-2.1-1.7c-0.3,0.3-0.5,0.5-0.8,0.8c0.8,0.7,1.6,1.4,2.4,1.9
			c-1.1,2.6-1.8,5.7-1.9,9h-5c0,0.2,0,0.4,0,0.6c0,0.2,0,0.4,0,0.6h5c0.1,3.3,0.8,6.4,1.9,9c-0.9,0.6-1.7,1.2-2.4,1.9
			c0.3,0.3,0.5,0.5,0.8,0.8c0.7-0.6,1.4-1.2,2.1-1.7c2.2,4.4,5.8,6.5,9.8,6.5c0,0,0,0,0,0c4,0,7.5-2.1,9.7-6.5
			c0.7,0.5,1.5,1.1,2.1,1.7c0.3-0.3,0.5-0.5,0.8-0.8c-0.8-0.7-1.6-1.4-2.4-1.9c1.1-2.6,1.8-5.7,1.9-9h5c0-0.2,0-0.4,0-0.6
			c0-0.2,0-0.4,0-0.6h-5C36,13.3,35.4,10.2,34.2,7.6z M23.4,33.1c-3.4-0.3-6.3-2.1-8.2-6c2.5-1.4,5.3-2.2,8.2-2.3V33.1z M23.4,23.7
			c-3.1,0.1-6.1,0.9-8.7,2.4c-1-2.4-1.6-5.3-1.7-8.4h10.4V23.7z M23.4,16.6H13c0.1-3.1,0.7-6,1.7-8.4c2.6,1.5,5.6,2.3,8.7,2.4V16.6z
			 M23.4,9.5c-2.9-0.1-5.8-0.9-8.2-2.3c1.9-3.9,4.9-5.7,8.2-6V9.5z M24.6,1.2c3.4,0.3,6.3,2.1,8.2,6c-2.5,1.4-5.3,2.2-8.2,2.3V1.2z
			 M24.6,33.1v-8.3c2.9,0.1,5.8,0.9,8.2,2.3C30.9,31,27.9,32.8,24.6,33.1z M33.3,26.1c-2.6-1.5-5.6-2.3-8.7-2.4v-6H35
			C34.9,20.8,34.3,23.7,33.3,26.1z M24.6,16.6v-6c3.1-0.1,6.1-0.9,8.7-2.4c1,2.4,1.6,5.3,1.7,8.4H24.6z"/>
	</g>
</g>
</svg>
