<?xml version="1.0" encoding="utf-8"?>
<!-- Generator: Adobe Illustrator 18.0.0, SVG Export Plug-In . SVG Version: 6.00 Build 0)  -->
<!DOCTYPE svg PUBLIC "-//W3C//DTD SVG 1.1//EN" "http://www.w3.org/Graphics/SVG/1.1/DTD/svg11.dtd">
<svg version="1.1" id="Layer_1" xmlns="http://www.w3.org/2000/svg" xmlns:xlink="http://www.w3.org/1999/xlink" x="0px" y="0px"
	 viewBox="0 0 48 48" enable-background="new 0 0 48 48" xml:space="preserve">
<g>
	<rect x="3.5" y="39.8" fill="#334A5E" width="5.2" height="3"/>
	<rect x="39.2" y="39.8" fill="#334A5E" width="5.2" height="3"/>
	<path fill="#F2F2F2" d="M46,5.2H2c-1.1,0-2,0.9-2,2v31.2c0,1.1,0.9,2,2,2h44c1.1,0,2-0.9,2-2V7.2C48,6.1,47.1,5.2,46,5.2z"/>
	<rect x="35.7" y="19.5" fill="#FFD15C" width="8.3" height="2.6"/>
	<rect x="35.7" y="24.4" fill="#40596B" width="8.3" height="2.6"/>
	<rect x="34.1" y="9.9" fill="#ACB3BA" width="11.5" height="5.4"/>
	<circle fill="#F1543F" cx="39.9" cy="32.9" r="3.5"/>
	<rect x="4" y="9.2" fill="#84DBFF" width="27.7" height="27.2"/>
	<path fill="#FF7058" d="M39.1,30.4v4.9c0,0.5-0.6,0.9-1,0.6c-1-0.6-1.7-1.7-1.7-3c0-1.3,0.7-2.4,1.7-3
		C38.5,29.6,39.1,29.9,39.1,30.4z"/>
	<path fill="#FF7058" d="M43.4,32.9c0,1.3-0.7,2.4-1.7,3c-0.5,0.3-1,0-1-0.6v-4.9c0-0.5,0.6-0.9,1-0.6
		C42.7,30.5,43.4,31.6,43.4,32.9z"/>
	<g>
		<path fill="#FFFFFF" d="M35.6,11.5h0.9v2.3H36v-1.8h-0.4V11.5z"/>
		<path fill="#FFFFFF" d="M38,12.4c0.1-0.1,0.1-0.2,0.1-0.2c0-0.1,0-0.1-0.1-0.2c0-0.1-0.1-0.1-0.2-0.1c-0.1,0-0.3,0.1-0.4,0.3
			L37,11.9c0.1-0.2,0.2-0.3,0.4-0.4c0.1-0.1,0.3-0.1,0.5-0.1c0.2,0,0.4,0.1,0.5,0.2c0.1,0.1,0.2,0.3,0.2,0.5c0,0.1,0,0.2-0.1,0.3
			c-0.1,0.1-0.2,0.2-0.3,0.4l-0.4,0.4h0.9v0.5H37v-0.4l0.7-0.7C37.8,12.6,37.9,12.5,38,12.4z"/>
	</g>
	<g>
		<path fill="#FFFFFF" d="M39.6,11.9c0,0.2-0.1,0.3-0.3,0.3c-0.2,0-0.3-0.1-0.3-0.3c0-0.2,0.1-0.3,0.3-0.3
			C39.5,11.6,39.6,11.7,39.6,11.9z M39.6,13.3c0,0.2-0.1,0.3-0.3,0.3c-0.2,0-0.3-0.1-0.3-0.3c0-0.2,0.1-0.3,0.3-0.3
			C39.5,13.1,39.6,13.2,39.6,13.3z"/>
	</g>
	<path fill="#FFFFFF" d="M40.2,11.9v-0.5h1.5v0.4l-0.5,0.6c0.2,0,0.3,0.1,0.4,0.2c0.1,0.1,0.2,0.3,0.2,0.4c0,0.2-0.1,0.4-0.3,0.6
		c-0.2,0.1-0.4,0.2-0.6,0.2s-0.5-0.1-0.8-0.3l0.2-0.4c0.2,0.2,0.4,0.2,0.6,0.2c0.1,0,0.2,0,0.3-0.1c0.1-0.1,0.1-0.1,0.1-0.2
		c0-0.1,0-0.2-0.1-0.2c-0.1-0.1-0.2-0.1-0.3-0.1c-0.1,0-0.2,0-0.3,0.1v-0.4l0.5-0.5H40.2z"/>
	<path fill="#FFFFFF" d="M43.1,13.8c-0.3,0-0.6-0.1-0.7-0.3c-0.2-0.2-0.2-0.5-0.2-0.9c0-0.4,0.1-0.7,0.2-0.9
		c0.2-0.2,0.4-0.3,0.7-0.3c0.3,0,0.6,0.1,0.7,0.3c0.2,0.2,0.2,0.5,0.2,0.9c0,0.4-0.1,0.7-0.2,0.9C43.7,13.7,43.5,13.8,43.1,13.8z
		 M42.8,12c-0.1,0.1-0.1,0.3-0.1,0.6c0,0.2,0,0.4,0.1,0.6c0.1,0.1,0.2,0.2,0.3,0.2c0.2,0,0.3-0.1,0.3-0.2c0.1-0.1,0.1-0.3,0.1-0.6
		c0-0.2,0-0.4-0.1-0.6c-0.1-0.1-0.2-0.2-0.3-0.2C43,11.8,42.9,11.9,42.8,12z"/>
</g>
</svg>
