<?xml version="1.0" encoding="utf-8"?>
<!-- Generator: Adobe Illustrator 16.0.0, SVG Export Plug-In . SVG Version: 6.00 Build 0)  -->
<!DOCTYPE svg PUBLIC "-//W3C//DTD SVG 1.1//EN" "http://www.w3.org/Graphics/SVG/1.1/DTD/svg11.dtd">
<svg version="1.1" id="Layer_1" xmlns="http://www.w3.org/2000/svg" xmlns:xlink="http://www.w3.org/1999/xlink" x="0px" y="0px"
	 width="48px" height="48px" viewBox="0 0 48 48" enable-background="new 0 0 48 48" xml:space="preserve">
<g>
	<rect x="12.5" y="6.828" fill="#F2F2F2" width="5.264" height="6.289"/>
	<path fill="#F1543F" d="M17.764,6.828H12.5V0.371C12.5,0.166,12.666,0,12.871,0h4.521c0.205,0,0.371,0.166,0.371,0.371V6.828z"/>
	<path fill="#FF7058" d="M18.162,4.277H12.1c-0.145,0-0.264-0.119-0.264-0.266V1.42c0-0.145,0.119-0.264,0.264-0.264h6.063
		c0.146,0,0.264,0.119,0.264,0.264v2.592C18.426,4.158,18.309,4.277,18.162,4.277"/>
	<path fill="#F2F2F2" d="M22.908,48H7.354c-0.41,0-0.744-0.334-0.744-0.746V16.465c0-2.791,2.262-5.053,5.053-5.053h6.939
		c2.791,0,5.053,2.262,5.053,5.053v30.789C23.654,47.666,23.32,48,22.908,48"/>
	<rect x="8.295" y="20.055" fill="#FF7058" width="13.672" height="26.258"/>
	<path fill="#F2F2F2" d="M19.096,32.539c0,3.24-1.775,5.865-3.965,5.865s-3.963-2.625-3.963-5.865c0-3.238,1.773-5.863,3.963-5.863
		S19.096,29.301,19.096,32.539"/>
	<path fill="#F2F2F2" d="M41.289,29.93l-1.162-7.123H27.379l-1.162,7.123c-0.705,4.318,2.344,8.26,6.555,8.799v7.021h-1.168
		c-1.244,0-2.25,1.008-2.25,2.25h8.799c0-1.242-1.006-2.25-2.25-2.25h-1.168v-7.021C38.947,38.189,41.994,34.248,41.289,29.93"/>
	<path fill="#FF7058" d="M39.145,29.203H28.361l-0.172,1.049c-0.266,1.635,0.195,3.297,1.27,4.559
		c1.072,1.264,2.639,1.986,4.295,1.986s3.221-0.723,4.293-1.986c1.074-1.262,1.535-2.924,1.268-4.559L39.145,29.203z"/>
</g>
</svg>
