<?xml version="1.0" encoding="utf-8"?>
<!-- Generator: Adobe Illustrator 18.0.0, SVG Export Plug-In . SVG Version: 6.00 Build 0)  -->
<!DOCTYPE svg PUBLIC "-//W3C//DTD SVG 1.1//EN" "http://www.w3.org/Graphics/SVG/1.1/DTD/svg11.dtd">
<svg version="1.1" id="Layer_1" xmlns="http://www.w3.org/2000/svg" xmlns:xlink="http://www.w3.org/1999/xlink" x="0px" y="0px"
	 viewBox="0 0 48 48" enable-background="new 0 0 48 48" xml:space="preserve">
<g>
	<g>
		<g>
			<g>
				<path fill="#F05540" d="M12.4,2.9C5.5,2.9,0,8.4,0,15.3c0,9.8,23.3,28.7,24,29.3V10.9C22.2,6.2,17.7,2.9,12.4,2.9z"/>
			</g>
			<g>
				<path fill="#F3705A" d="M35.6,2.9c-5.4,0-9.9,3.3-11.6,8.1c0,0,0-0.1,0-0.1v33.7c0,0,0,0,0,0s24-19.3,24-29.3
					C48,8.4,42.4,2.9,35.6,2.9z"/>
			</g>
		</g>
		<g>
			<g>
				<g>
					<g>
						<path fill="#FFFFFF" d="M21.4,34.6c-0.1,0-0.2,0-0.3-0.1c-0.2-0.2-0.2-0.5-0.1-0.6l5.1-6.2c0.2-0.2,0.5-0.2,0.6-0.1
							c0.2,0.2,0.2,0.5,0.1,0.6l-5.1,6.2C21.7,34.6,21.6,34.6,21.4,34.6z"/>
					</g>
					<g>
						<g>
							<path fill="#FFFFFF" d="M26.5,34.6c-0.1,0-0.3-0.1-0.4-0.2l-5.1-6.2c-0.2-0.2-0.1-0.5,0.1-0.6c0.2-0.2,0.5-0.1,0.6,0.1
								l5.1,6.2c0.2,0.2,0.1,0.5-0.1,0.6C26.8,34.6,26.7,34.6,26.5,34.6z"/>
						</g>
					</g>
					<g>
						<path fill="#FFFFFF" d="M21.4,22.3c-0.1,0-0.2,0-0.3-0.1c-0.2-0.2-0.2-0.5-0.1-0.6l5.1-6.2c0.2-0.2,0.5-0.2,0.6-0.1
							c0.2,0.2,0.2,0.5,0.1,0.6l-5.1,6.2C21.7,22.2,21.6,22.3,21.4,22.3z"/>
					</g>
					<g>
						<g>
							<path fill="#FFFFFF" d="M26.5,22.3c-0.1,0-0.3-0.1-0.4-0.2L21.1,16c-0.2-0.2-0.1-0.5,0.1-0.6c0.2-0.2,0.5-0.1,0.6,0.1
								l5.1,6.2c0.2,0.2,0.1,0.5-0.1,0.6C26.8,22.3,26.7,22.3,26.5,22.3z"/>
						</g>
					</g>
					<g>
						<g>
							<g>
								<g>
									<g>
										<circle fill="#415A6B" cx="21.4" cy="21.8" r="1.5"/>
									</g>
									<g>
										<circle fill="#415A6B" cx="21.4" cy="15.7" r="1.5"/>
									</g>
									<g>
										<circle fill="#415A6B" cx="26.6" cy="34.2" r="1.5"/>
									</g>
									<g>
										<circle fill="#415A6B" cx="26.6" cy="28" r="1.5"/>
									</g>
									<g>
										<circle fill="#415A6B" cx="26.6" cy="21.8" r="1.5"/>
									</g>
									<g>
										<circle fill="#415A6B" cx="26.6" cy="15.7" r="1.5"/>
									</g>
									<g>
										<circle fill="#415A6B" cx="21.4" cy="34.2" r="1.5"/>
									</g>
									<g>
										<circle fill="#415A6B" cx="21.4" cy="28" r="1.5"/>
									</g>
								</g>
							</g>
						</g>
					</g>
					<g>
						<g>
							<path fill="none" stroke="#FFD15C" stroke-linecap="round" stroke-miterlimit="10" d="M26.5,15.7"/>
						</g>
						<g>
							<path fill="#FFFFFF" d="M26.5,28.5c-0.1,0-0.3-0.1-0.4-0.2l-5.1-6.2c-0.2-0.2-0.1-0.5,0.1-0.6c0.2-0.2,0.5-0.1,0.6,0.1
								l5.1,6.2c0.2,0.2,0.1,0.5-0.1,0.6C26.8,28.4,26.7,28.5,26.5,28.5z"/>
						</g>
					</g>
					<g>
						<g>
							<path fill="#FFFFFF" d="M21.4,28.5c-0.1,0-0.2,0-0.3-0.1c-0.2-0.2-0.2-0.5-0.1-0.6l5.1-6.2c0.2-0.2,0.5-0.2,0.6-0.1
								c0.2,0.2,0.2,0.5,0.1,0.6l-5.1,6.2C21.7,28.4,21.6,28.5,21.4,28.5z"/>
						</g>
					</g>
					<g>
						<path fill="#FFFFFF" d="M21.4,16.1c-0.3,0-0.5-0.2-0.5-0.5c0-0.3,0.2-0.5,0.5-0.5l5.1,0c0.3,0,0.5,0.2,0.5,0.5
							s-0.2,0.5-0.5,0.5L21.4,16.1z"/>
					</g>
				</g>
			</g>
			<g>
				<g>
					<path fill="#F3F3F3" d="M29,45.1c-0.1,0-0.2,0-0.2-0.1c-0.2-0.1-0.3-0.4-0.2-0.6c0.1-0.1,1.3-2.4-1.1-4.9
						c-2.8-3-1.4-5.5-1.4-5.6c0.1-0.2,0.4-0.3,0.6-0.2c0.2,0.1,0.3,0.4,0.2,0.6c0,0.1-1.1,2,1.2,4.5c2.8,3,1.2,6,1.2,6
						C29.3,45,29.1,45.1,29,45.1z"/>
				</g>
			</g>
			<g>
				<path fill="#F3F3F3" d="M20.6,43.5c-0.6,0-1.4-0.2-2.3-0.7c-0.2-0.1-0.3-0.4-0.2-0.6c0.1-0.2,0.4-0.3,0.6-0.2
					c1.2,0.6,2.1,0.7,2.6,0.3c1.3-1.1,0.4-5.5-0.4-8.1c-0.1-0.2,0.1-0.5,0.3-0.6c0.2-0.1,0.5,0.1,0.6,0.3c0.2,0.7,2.2,7.2,0.1,9.1
					C21.6,43.4,21.2,43.5,20.6,43.5z"/>
			</g>
		</g>
		<g>
			<g>
				<path fill="#FFFFFF" d="M10.4,11.2h5.8v14.4h-3.1V13.9h-2.7V11.2z"/>
			</g>
			<g>
				<path fill="#FFFFFF" d="M35.3,19.4v-2.5h3.1v2.5H40v2.8h-1.6v3.4h-3.1v-3.4h-5.8v-2.5l5.1-8.5h3.5l-4.9,8.2H35.3z"/>
			</g>
		</g>
	</g>
</g>
</svg>
