<?xml version="1.0" encoding="utf-8"?>
<!-- Generator: Adobe Illustrator 16.0.0, SVG Export Plug-In . SVG Version: 6.00 Build 0)  -->
<!DOCTYPE svg PUBLIC "-//W3C//DTD SVG 1.1//EN" "http://www.w3.org/Graphics/SVG/1.1/DTD/svg11.dtd">
<svg version="1.1" id="Layer_1" xmlns="http://www.w3.org/2000/svg" xmlns:xlink="http://www.w3.org/1999/xlink" x="0px" y="0px"
	 width="48px" height="48px" viewBox="0 0 48 48" enable-background="new 0 0 48 48" xml:space="preserve">
<g>
	<path fill="#40596B" d="M26.686,13.428L24,11.652l-2.686,1.775c-9.947,6.572-9.947,17.23,0,23.805L24,39.008l2.686-1.775
		C36.633,30.658,36.633,20,26.686,13.428"/>
	<path fill="#4CDBC4" d="M36.982,15.266c0,8.432-25.85,8.432-25.85,0S16.92,0,24.057,0C31.195,0,36.982,6.834,36.982,15.266"/>
	<path fill="#40596B" d="M46.285,48H1.715l0.951-9.682c0.76-4.461,3.709-8.07,7.639-9.811c1.641-0.74,3.461-1.15,5.361-1.15h16.67
		c1.93,0,3.77,0.42,5.43,1.18c3.889,1.75,6.811,5.352,7.57,9.781L46.285,48z"/>
	<path fill="#4CDBC4" d="M46.285,48H1.715l0.951-9.682c0.76-4.461,3.709-8.07,7.639-9.811c1.641-0.74,3.461-1.15,5.361-1.15h16.67
		c1.93,0,3.77,0.42,5.43,1.18c3.889,1.75,6.811,5.352,7.57,9.781L46.285,48z"/>
	<rect x="23.536" y="26.812" fill="#FFD15C" width="0.002" height="0.004"/>
	<rect x="24.027" y="14.948" fill="#FFD15C" width="0.004" height="0.006"/>
	<path fill="#F8B64C" d="M15.496,14.365c0.396,1.701,0.188,3.205-0.469,3.357c-0.654,0.154-1.508-1.102-1.904-2.803
		s-0.188-3.205,0.467-3.357C14.246,11.41,15.1,12.666,15.496,14.365"/>
	<path fill="#F8B64C" d="M32.529,14.365c-0.396,1.701-0.186,3.205,0.469,3.357c0.654,0.154,1.508-1.102,1.904-2.803
		s0.188-3.205-0.467-3.357C33.779,11.41,32.928,12.666,32.529,14.365"/>
	<path fill="#FFD15C" d="M33.414,19.311c-2.754,8.742-9.357,9.406-9.357,9.406s-6.602-0.664-9.355-9.406
		c0,0-1.475-4.559-0.238-8.359c0,0,0.756-6.484,9.594-6.484s9.596,6.484,9.596,6.484C34.889,14.752,33.414,19.311,33.414,19.311"/>
	<path fill="#FFD15C" d="M23.996,39.506l-6.689-12.15v-2.92c3.02,3.9,6.75,4.281,6.75,4.281s3.689-0.371,6.709-4.221v2.859
		L23.996,39.506z"/>
	<path fill="#F8B64C" d="M23.992,28.707c-0.273-0.037-1.475-0.248-2.973-1.066c-0.01-0.006-0.02-0.008-0.029-0.014l-0.033,0.012
		l6.205,6.205l3.604-6.488v-2.859c-3.02,3.85-6.709,4.221-6.709,4.221S24.033,28.713,24,28.709
		C23.996,28.709,23.996,28.707,23.992,28.707"/>
	<path fill="#3DC9AE" d="M32.244,27.357h-1.57l-6.768,12.148l-6.689-12.148h-1.643c-0.328,0-0.652,0.027-0.977,0.053l9.24,16.01
		l9.639-15.996C33.068,27.387,32.66,27.357,32.244,27.357"/>
	<path fill="#4CDBC4" d="M24.057,10.391c3.74,0,7.211,0.428,10.09,1.16c-0.822-4.977-5.021-8.768-10.09-8.768
		c-5.066,0-9.266,3.791-10.088,8.768C16.846,10.818,20.318,10.391,24.057,10.391"/>
	<path fill="#ACB3BA" d="M33.629,11.438l-3.906,8.139l0.449,0.219l3.959-8.248C33.971,11.506,33.791,11.477,33.629,11.438"/>
	<path fill="#ACB3BA" d="M14.428,11.438l3.906,8.139l-0.449,0.219l-3.959-8.248C14.086,11.506,14.266,11.477,14.428,11.438"/>
	<path fill="#F2F2F2" d="M30.926,22.99l-0.469-3.908l-6.4-0.762l-6.4,0.762l-0.471,3.908h-0.93c0,0,4.24,6.541,7.801,6.541
		s7.811-6.541,7.811-6.541H30.926z"/>
	<rect x="30.766" y="43.42" fill="#F2F2F2" width="8.717" height="2.004"/>
</g>
</svg>
