<?xml version="1.0" encoding="utf-8"?>
<!-- Generator: Adobe Illustrator 16.0.0, SVG Export Plug-In . SVG Version: 6.00 Build 0)  -->
<!DOCTYPE svg PUBLIC "-//W3C//DTD SVG 1.1//EN" "http://www.w3.org/Graphics/SVG/1.1/DTD/svg11.dtd">
<svg version="1.1" id="Layer_1" xmlns="http://www.w3.org/2000/svg" xmlns:xlink="http://www.w3.org/1999/xlink" x="0px" y="0px"
	 width="48px" height="48px" viewBox="0 0 48 48" enable-background="new 0 0 48 48" xml:space="preserve">
<g>
	<path fill="#4CDBC4" d="M44,12H16c-2.209,0-4,1.791-4,4v28c0,2.209,1.791,4,4,4h28c2.209,0,4-1.791,4-4V16
		C48,13.791,46.209,12,44,12"/>
	<rect x="16" y="22.09" fill="#F2F2F2" width="28" height="21.91"/>
	<path fill="#FFFFFF" d="M22.957,17.045c0,1.209-0.98,2.189-2.188,2.189c-1.209,0-2.189-0.98-2.189-2.189s0.98-2.189,2.189-2.189
		C21.977,14.855,22.957,15.836,22.957,17.045"/>
	<path fill="#FFFFFF" d="M41.42,17.045c0,1.209-0.98,2.189-2.189,2.189c-1.207,0-2.188-0.98-2.188-2.189s0.98-2.189,2.188-2.189
		C40.439,14.855,41.42,15.836,41.42,17.045"/>
	<path fill="#40596B" d="M20.768,9.613c-0.918,0-1.664,0.746-1.664,1.666v5.123c0,0.92,0.746,1.664,1.664,1.664
		c0.92,0,1.666-0.744,1.666-1.664v-5.123C22.434,10.359,21.688,9.613,20.768,9.613"/>
	<path fill="#40596B" d="M39.232,9.613c-0.92,0-1.666,0.746-1.666,1.666v5.123c0,0.92,0.746,1.664,1.666,1.664
		c0.918,0,1.664-0.744,1.664-1.664v-5.123C40.896,10.359,40.15,9.613,39.232,9.613"/>
	<polygon fill="#40596B" points="25.555,30.834 25.555,26.891 34.445,26.891 34.445,28.969 29.463,39.199 26.473,39.199 
		31.223,29.25 28.125,29.25 28.125,30.834 	"/>
	<path fill="#FF7058" d="M28.83,14.416c0,7.961-6.453,14.414-14.414,14.414S0,22.377,0,14.416S6.455,0,14.416,0
		S28.83,6.455,28.83,14.416"/>
	<path fill="#FFFFFF" d="M14.414,25.457c-6.088,0-11.041-4.953-11.041-11.041S8.326,3.375,14.414,3.375s11.043,4.953,11.043,11.041
		S20.502,25.457,14.414,25.457"/>
	<path fill="#FFD15C" d="M14.416,5.531c-0.572,0-1.037,0.465-1.037,1.037v6.813H8.766c-0.57,0-1.035,0.465-1.035,1.035
		s0.465,1.035,1.035,1.035h5.65c0.57,0,1.035-0.465,1.035-1.035V6.568C15.451,5.996,14.986,5.531,14.416,5.531"/>
	<path fill="#40596B" d="M14.416,17.164c-1.518,0-2.75-1.232-2.75-2.75c0-1.514,1.232-2.748,2.75-2.748
		c1.516,0,2.748,1.234,2.748,2.748C17.164,15.932,15.932,17.164,14.416,17.164"/>
	<path fill="#334A5E" d="M14.416,15.684c-0.701,0-1.27-0.568-1.27-1.27c0-0.697,0.568-1.268,1.27-1.268
		c0.699,0,1.268,0.57,1.268,1.268C15.684,15.115,15.115,15.684,14.416,15.684"/>
</g>
</svg>
