<?xml version="1.0" encoding="utf-8"?>
<!-- Generator: Adobe Illustrator 18.0.0, SVG Export Plug-In . SVG Version: 6.00 Build 0)  -->
<!DOCTYPE svg PUBLIC "-//W3C//DTD SVG 1.1//EN" "http://www.w3.org/Graphics/SVG/1.1/DTD/svg11.dtd">
<svg version="1.1" id="Layer_1" xmlns="http://www.w3.org/2000/svg" xmlns:xlink="http://www.w3.org/1999/xlink" x="0px" y="0px"
	 viewBox="0 0 48 48" enable-background="new 0 0 48 48" xml:space="preserve">
<g>
	<g>
		<g>
			<g>
				<path fill="#66C6B9" d="M23.5,12.3c0,3.1,2.9,5.7,6.5,6c1.1,0.9,2.4,1.4,3.8,1.4c0.6,0,1.1-0.1,1.6-0.3c-0.9-0.3-1.5-0.9-2-1.6
					c2.5-0.9,4.3-3.1,4.3-5.5c0-3.3-3.2-6-7.1-6C26.7,6.2,23.5,8.9,23.5,12.3z"/>
			</g>
			<g>
				<circle fill="#FFFFFF" cx="34.4" cy="12.3" r="1.2"/>
				<circle fill="#FFFFFF" cx="30.7" cy="12.3" r="1.2"/>
				<circle fill="#FFFFFF" cx="26.9" cy="12.3" r="1.2"/>
			</g>
		</g>
		<g>
			<g>
				
					<ellipse transform="matrix(0.9947 0.1029 -0.1029 0.9947 3.3385 -4.0333)" fill="#FFD15C" cx="40.8" cy="30.3" rx="1.1" ry="1.8"/>
			</g>
			<g>
				
					<ellipse transform="matrix(-0.9947 0.1029 -0.1029 -0.9947 64.2594 57.3842)" fill="#FFD15C" cx="30.6" cy="30.3" rx="1.1" ry="1.8"/>
			</g>
			<g>
				<g>
					<g>
						<ellipse fill="#344A5E" cx="38.1" cy="27.6" rx="3.2" ry="5.6"/>
					</g>
					<g>
						<ellipse fill="#344A5E" cx="35.4" cy="27.7" rx="5.1" ry="6.5"/>
					</g>
				</g>
				<g>
					<g>
						<g>
							<path fill="#344A5E" d="M48,46.7c-0.2-2.4-0.7-6.4-1.8-7.6c-1.9-2-7.8-2.1-10.5-2.1c-2.7,0-8.6,0.1-10.5,2.1
								c-1.1,1.2-1.6,5.2-1.8,7.6H48z"/>
						</g>
						<g>
							<g>
								<path fill="#F7B64C" d="M38.4,34.2l0,1.2c-0.8,1.9-1.7,2.9-2.7,4c-1-1.1-1.9-2.1-2.7-4l0-1.2c0.7-2,1.8-3.3,2.7-4.4
									C36.6,30.9,37.7,32.2,38.4,34.2z"/>
							</g>
						</g>
						<g>
							<polygon fill="#FFFFFF" points="34.6,46.7 36.7,46.7 37.9,44.8 38,38.7 33.3,38.7 33.5,44.8 							"/>
						</g>
						<g>
							<g>
								<path fill="#F3705A" d="M36.5,41l0.7-0.7c0,0-1-1.5-1.5-1.5c-0.5,0-1.5,1.5-1.5,1.5l0.7,0.7H36.5z"/>
							</g>
							<g>
								<polygon fill="#F3705A" points="36.7,46.7 37.2,45.9 36.5,41 34.9,41 34.1,45.9 34.6,46.7 								"/>
							</g>
						</g>
						<g>
							<g>
								<polygon fill="#F3F3F3" points="38.4,35.1 35.7,38.8 37.8,40.9 39.4,36.8 								"/>
							</g>
							<g>
								<polygon fill="#F3F3F3" points="33,35.1 35.7,38.8 33.6,40.9 32,36.8 								"/>
							</g>
						</g>
						<g>
							<g>
								<polygon fill="#415A6B" points="37.2,46.7 41.1,42.9 39.2,41.2 42.3,39.4 38.8,35.8 36.2,46.7 								"/>
							</g>
							<g>
								<polygon fill="#415A6B" points="30.3,42.9 34.2,46.7 35.3,46.7 32.6,35.8 29.2,39.4 32.2,41.2 								"/>
							</g>
						</g>
					</g>
					<g>
						<path fill="#FFD15C" d="M36.4,25.3c-1,0.9-2.3,1.5-4,1.5c-0.5,0-0.9,0-1.3-0.1c-0.3,0.8-0.5,1.7-0.5,2.7c0,3.6,2.2,6.5,5,6.5
							c2.8,0,5-2.9,5-6.5c0-1-0.2-1.9-0.5-2.7C38.7,26.6,37.5,26.1,36.4,25.3z"/>
					</g>
				</g>
			</g>
		</g>
		<g>
			<g>
				<g>
					
						<ellipse transform="matrix(0.9892 0.1463 -0.1463 0.9892 4.5985 -2.3084)" fill="#FFD15C" cx="18" cy="30.1" rx="1.1" ry="1.8"/>
				</g>
				<g>
					
						<ellipse transform="matrix(-0.9892 0.1463 -0.1463 -0.9892 20.6774 58.6807)" fill="#FFD15C" cx="8.2" cy="30.1" rx="1.1" ry="1.8"/>
				</g>
			</g>
			<g>
				<g>
					<path fill="#344A5E" d="M18.6,26.9c-0.1,2.6-0.8,6-3.1,6c0,0,0,0-0.1,0c-0.7,0.9-1.8,1.6-3.1,1.6c-3.5,0-4.8-4.2-4.8-7.4
						c0-3.2,2.2-5.8,4.8-5.8C13.4,21.2,18.8,21.2,18.6,26.9z"/>
				</g>
			</g>
			<g>
				<g>
					<path fill="#415A6B" d="M8.1,37.3l5,2.2l5-2.2l4.3,1.4c1.6,0.5,2.7,1.8,3,3.4l0.8,4.7H0L0.8,42c0.3-1.6,1.4-2.9,3-3.4L8.1,37.3
						z"/>
				</g>
				<g>
					<g>
						<g>
							<path fill="#E8EAE9" d="M10.8,46.7h4.6l1.1-6.9c0,0,0.1-1,0.1-2l-3.5,1.5l-3.5-1.5c0.1,1,0.1,2,0.1,2L10.8,46.7z"/>
						</g>
						<g>
							<path fill="#55C0EB" d="M11.3,46.7h3.5l-0.6-4.4l0.9-0.9c0,0-1.3-2-2-2s-2,2-2,2l0.9,0.9L11.3,46.7z"/>
						</g>
						<g>
							<g>
								<path fill="#F3F3F3" d="M9.8,35c0.7,1.9,1.8,3.2,3.3,4.4c-1,0.8-1.9,1.5-2.4,2.4l-1.8-5.5C9.2,35.8,9.7,35.1,9.8,35z"/>
							</g>
							<g>
								<path fill="#344A5E" d="M8.9,46.7h1.9l-1.1-6.9c0,0-0.2-3-0.2-3.7c0-0.8,0.4-1.1,0.4-1.1c-0.4-0.1-2.9,4.3-2.9,4.3l1.5,0.5
									l-1.7,0.8L8.9,46.7z"/>
							</g>
						</g>
					</g>
					<g>
						<path fill="#F3F3F3" d="M16.4,35c-0.7,1.9-1.8,3.2-3.3,4.4c1,0.8,1.9,1.5,2.4,2.4l1.8-5.5C16.9,35.8,16.5,35.1,16.4,35z"/>
					</g>
					<g>
						<g>
							<path fill="#344A5E" d="M16.7,36.1c0,0.8-0.2,3.7-0.2,3.7l-1.1,6.9h1.9l2.2-6.1l-1.7-0.8l1.5-0.5c0,0-2.5-4.4-2.9-4.3
								C16.4,35,16.7,35.4,16.7,36.1z"/>
						</g>
					</g>
				</g>
			</g>
			<g>
				<path fill="#F7B64C" d="M9.8,31.3l0,3.8c0.7,1.9,1.8,3.2,3.3,4.4c1.4-1.1,2.6-2.5,3.3-4.4v-3.8H9.8z"/>
			</g>
			<g>
				<path fill="#FFD15C" d="M17.6,26c0,0,0.2,2.1,0.2,2.9c-0.1,4-1.9,7.5-4.7,7.5c-2.8,0-4.9-3.5-4.7-7.5c0.1-1.3,0.3-2.5,0.8-3.4
					C12,26.9,14.8,27.1,17.6,26z"/>
			</g>
		</g>
		<g>
			<g>
				<path fill="#F05540" d="M23.6,8.2c0,3.6-3.3,6.6-7.5,6.9c-1.2,1-2.8,1.6-4.3,1.6c-0.7,0-1.3-0.1-1.9-0.3c1-0.4,1.7-1,2.2-1.8
					C9.2,13.5,7.2,11,7.2,8.2c0-3.8,3.7-6.9,8.2-6.9C19.9,1.3,23.6,4.4,23.6,8.2z"/>
			</g>
			<g>
				<circle fill="#FFFFFF" cx="11" cy="8.2" r="1.4"/>
				<circle fill="#FFFFFF" cx="15.4" cy="8.2" r="1.4"/>
				<circle fill="#FFFFFF" cx="19.7" cy="8.2" r="1.4"/>
			</g>
		</g>
	</g>
</g>
</svg>
