<?xml version="1.0" encoding="utf-8"?>
<!-- Generator: Adobe Illustrator 18.0.0, SVG Export Plug-In . SVG Version: 6.00 Build 0)  -->
<!DOCTYPE svg PUBLIC "-//W3C//DTD SVG 1.1//EN" "http://www.w3.org/Graphics/SVG/1.1/DTD/svg11.dtd">
<svg version="1.1" id="Layer_1" xmlns="http://www.w3.org/2000/svg" xmlns:xlink="http://www.w3.org/1999/xlink" x="0px" y="0px"
	 viewBox="0 0 48 48" enable-background="new 0 0 48 48" xml:space="preserve">
<g>
	<g>
		<polygon fill="#FFD15C" points="48.1,10.9 45,12.7 46.9,15.7 43.4,16.1 43.8,19.6 40.5,18.4 39.4,21.8 36.9,19.2 34.4,21.8 
			33.3,18.4 29.9,19.6 30.4,16.1 26.8,15.7 28.7,12.7 25.7,10.9 28.7,9 26.8,6 30.4,5.7 29.9,2.2 33.3,3.4 34.4,0 36.9,2.5 39.4,0 
			40.5,3.4 43.8,2.2 43.4,5.7 46.9,6 45,9 		"/>
		<circle fill="#F7B64C" cx="36.9" cy="10.6" r="5.3"/>
	</g>
	<rect x="5.1" y="29.2" fill="#F3705A" width="37.9" height="18.8"/>
	<g>
		<rect x="23.7" y="35.3" fill="#E8EAE9" width="13.9" height="8.1"/>
		<rect x="10.5" y="35.3" fill="#415A6B" width="9.5" height="12.7"/>
	</g>
	<g>
		<polygon fill="#F3F3F3" points="42.1,11.6 48.1,30.1 -0.1,30.1 5.9,11.6 		"/>
		<g>
			<polygon fill="#55C0EB" points="4.5,27.4 22.2,27.4 22.4,20.7 6.3,20.7 			"/>
			<polygon fill="#55C0EB" points="41.7,20.7 25.7,20.7 25.8,27.4 43.6,27.4 			"/>
			<polygon fill="#55C0EB" points="25.6,18.6 41.2,18.6 39.8,13.3 25.5,13.3 			"/>
			<polygon fill="#55C0EB" points="6.9,18.6 22.4,18.6 22.6,13.3 8.3,13.3 			"/>
		</g>
	</g>
</g>
</svg>
