<?xml version="1.0" encoding="utf-8"?>
<!-- Generator: Adobe Illustrator 18.0.0, SVG Export Plug-In . SVG Version: 6.00 Build 0)  -->
<!DOCTYPE svg PUBLIC "-//W3C//DTD SVG 1.1//EN" "http://www.w3.org/Graphics/SVG/1.1/DTD/svg11.dtd">
<svg version="1.1" id="Layer_1" xmlns="http://www.w3.org/2000/svg" xmlns:xlink="http://www.w3.org/1999/xlink" x="0px" y="0px"
	 viewBox="0 0 48 48" enable-background="new 0 0 48 48" xml:space="preserve">
<g>
	<g>
		<path fill="#F3F3F3" d="M41.5,6.3C37.7,2.4,32.3,0,26.4,0C14.7,0,5.1,9.5,5.1,21.3L0.3,32.8c-0.3,0.6,0.2,1.3,0.9,1.3h4v4.4
			c0,2.3,1.8,4.1,4.1,4.1h3.9V48h25.6v-0.2c0-5,1.8-9.7,4.8-13.7c2.7-3.6,4.2-8,4.2-12.8C47.8,15.4,45.4,10.1,41.5,6.3z"/>
		<g>
			<path fill="#8AD7F8" d="M36.1,16.6c0.2-1.2-0.3-2.6-1.3-3.4c-1.3-1.1-3.2-1.1-4.5-0.2c-1.1-3.5-4.9-5.6-8.5-4.6
				c-3.6,1-5.7,4.7-4.9,8.3c-1.8,0.4-3.2,2-3.2,4c0,2.3,1.8,4.1,4.1,4.1H36c2.3,0,4.1-1.8,4.1-4.1C40.1,18.5,38.3,16.6,36.1,16.6z"
				/>
		</g>
		<g>
			<polygon fill="#415A6B" points="24.2,34.8 26.1,28.9 21.8,28.9 29.6,20.6 27.8,26.6 32,26.6 			"/>
		</g>
	</g>
</g>
</svg>
