<?xml version="1.0" encoding="utf-8"?>
<!-- Generator: Adobe Illustrator 18.0.0, SVG Export Plug-In . SVG Version: 6.00 Build 0)  -->
<!DOCTYPE svg PUBLIC "-//W3C//DTD SVG 1.1//EN" "http://www.w3.org/Graphics/SVG/1.1/DTD/svg11.dtd">
<svg version="1.1" id="Layer_1" xmlns="http://www.w3.org/2000/svg" xmlns:xlink="http://www.w3.org/1999/xlink" x="0px" y="0px"
	 viewBox="0 0 48 48" enable-background="new 0 0 48 48" xml:space="preserve">
<g>
	<path fill="#FFD15C" d="M42.2,18.2c0-10.7-9.3-19.3-20.3-18.1C13.5,1,6.7,7.9,5.9,16.4c-0.7,7.1,2.7,13.5,8.2,17.1
		c1.6,1,2.6,2.8,2.6,4.7l0,7.1h14.7l0-7.1c0-1.9,1-3.6,2.6-4.7C38.9,30.2,42.2,24.6,42.2,18.2z"/>
	<g>
		<path fill="#F8B64C" d="M8.9,17.7C8.8,17.7,8.8,17.7,8.9,17.7c-0.6-0.1-1.1-0.5-1-1.1C8.6,9,14.6,2.9,22.1,2.1
			c0.6,0,1,0.3,1.1,0.9c0.1,0.5-0.3,1-0.9,1.1c-6.6,0.7-11.8,6.1-12.5,12.7C9.8,17.3,9.4,17.7,8.9,17.7z"/>
	</g>
	<path fill="#ACB3BA" d="M28,48h-8c-0.7,0-1.2-0.5-1.2-1.2v-1.6h10.4v1.6C29.2,47.5,28.7,48,28,48z"/>
	<rect x="16.7" y="37" fill="#ACB3BA" width="14.7" height="8.1"/>
	<path fill="#FF7058" d="M35.6,20.6v-4.3L33.7,16c-0.2-0.9-0.6-1.8-1.1-2.7l1.1-1.6l-3-3l-1.6,1.1c-0.8-0.5-1.7-0.9-2.7-1.1
		l-0.3-1.9h-4.3l-0.3,1.9c-0.9,0.2-1.8,0.6-2.7,1.1l-1.6-1.1l-3,3l1.1,1.6C15,14.1,14.6,15,14.3,16l-1.9,0.3v4.3l1.9,0.3
		c0.2,0.9,0.6,1.8,1.1,2.7l-1.1,1.6l3,3l1.6-1.1c0.8,0.5,1.7,0.9,2.7,1.1l0.3,1.9h4.3l0.3-1.9c0.9-0.2,1.8-0.6,2.7-1.1l1.6,1.1l3-3
		l-1.1-1.6c0.5-0.8,0.9-1.7,1.1-2.7L35.6,20.6z M24,23.9c-3,0-5.5-2.5-5.5-5.5s2.5-5.5,5.5-5.5s5.5,2.5,5.5,5.5S27,23.9,24,23.9z"/>
	<path fill="#CDD6E0" d="M31.8,39.2H16.2c-0.6,0-1.1-0.5-1.1-1.1v0c0-0.6,0.5-1.1,1.1-1.1h15.5c0.6,0,1.1,0.5,1.1,1.1v0
		C32.9,38.7,32.4,39.2,31.8,39.2z"/>
	<path fill="#CDD6E0" d="M31.8,42.2H16.2c-0.6,0-1.1-0.5-1.1-1.1v0c0-0.6,0.5-1.1,1.1-1.1h15.5c0.6,0,1.1,0.5,1.1,1.1v0
		C32.9,41.7,32.4,42.2,31.8,42.2z"/>
	<path fill="#CDD6E0" d="M31.8,45.2H16.2c-0.6,0-1.1-0.5-1.1-1.1v0c0-0.6,0.5-1.1,1.1-1.1h15.5c0.6,0,1.1,0.5,1.1,1.1v0
		C32.9,44.7,32.4,45.2,31.8,45.2z"/>
</g>
</svg>
