<?xml version="1.0" encoding="utf-8"?>
<!-- Generator: Adobe Illustrator 18.0.0, SVG Export Plug-In . SVG Version: 6.00 Build 0)  -->
<!DOCTYPE svg PUBLIC "-//W3C//DTD SVG 1.1//EN" "http://www.w3.org/Graphics/SVG/1.1/DTD/svg11.dtd">
<svg version="1.1" id="Layer_1" xmlns="http://www.w3.org/2000/svg" xmlns:xlink="http://www.w3.org/1999/xlink" x="0px" y="0px"
	 viewBox="0 0 48 48" enable-background="new 0 0 48 48" xml:space="preserve">
<g>
	<g>
		<g>
			<g>
				<g>
					<path fill="#344A5E" d="M24,8.4c-2.3,0-4.2-1.9-4.2-4.2S21.7,0,24,0s4.2,1.9,4.2,4.2S26.3,8.4,24,8.4z M24,2
						c-1.2,0-2.2,1-2.2,2.2s1,2.2,2.2,2.2c1.2,0,2.2-1,2.2-2.2S25.2,2,24,2z"/>
				</g>
			</g>
		</g>
		<g>
			<g>
				<g>
					<g>
						<path fill="#344A5E" d="M36.8,14.7H11.2c-1,0-1.8-0.8-1.8-1.8v-0.1c0-1,0.8-1.8,1.8-1.8h25.5c1,0,1.8,0.8,1.8,1.8v0.1
							C38.6,13.9,37.8,14.7,36.8,14.7z"/>
					</g>
				</g>
				<g>
					<g>
						<path fill="#415A6B" d="M11.3,11c0-3.5,5.7-5.4,12.7-5.4S36.7,7.4,36.7,11"/>
					</g>
				</g>
			</g>
			<g>
				<g>
					<g>
						<path fill="#344A5E" d="M11.2,38.9l25.5,0c1,0,1.8,0.8,1.8,1.8v0.1c0,1-0.8,1.8-1.8,1.8l-25.5,0c-1,0-1.8-0.8-1.8-1.8l0-0.1
							C9.4,39.7,10.2,38.9,11.2,38.9z"/>
					</g>
				</g>
				<g>
					<g>
						<path fill="#415A6B" d="M36.7,42.6C36.7,46.1,31,48,24,48s-12.7-1.9-12.7-5.4"/>
					</g>
				</g>
			</g>
		</g>
		<g>
			<g>
				<path fill="#F3F3F3" d="M12.3,14.7c-2.4,7.4-2.4,16.8,0,24.2h23.3c2.4-7.4,2.4-16.8,0-24.2H12.3z"/>
			</g>
		</g>
		<g>
			<g>
				<rect x="19.4" y="27.1" fill="#8AD7F8" width="9.2" height="11.8"/>
			</g>
			<g>
				<path fill="#55C0EB" d="M28.8,32.6c0,0.1,0,0.2,0,0.3c-0.1,0.1-0.3,0.1-0.4,0c-0.1-0.1-0.2-0.3-0.2-0.4
					c-0.2-0.6-0.3-1.2-0.5-1.8c-0.1-0.3-0.2-0.6-0.4-0.8c-0.3-0.3-0.8-0.3-1.3-0.2c-0.3,0-0.5,0.1-0.8,0.2c-0.2,0.1-0.5,0.3-0.6,0.6
					c-0.1,0.3,0,0.6-0.1,0.9c-0.2,0.3-0.7,0.3-1,0.1c-0.3-0.2-0.4-0.7-0.5-1c-0.1-0.4-0.2-0.8-0.4-1.1c-0.4-0.5-1.1-0.6-1.6-0.3
					c-0.2,0.1-0.4,0.4-0.7,0.4c-0.3,0.1-0.7-0.1-0.8-0.4c-0.2-0.3-0.2-0.6-0.2-1v-0.7c0-0.4,0.3-0.7,0.7-0.7h8.2
					c0.4,0,0.7,0.3,0.7,0.7C28.9,30.9,28.8,30.9,28.8,32.6z"/>
			</g>
		</g>
		<g>
			<g>
				<g>
					<path fill="#F3705A" d="M26.6,22.5c0,1.4-1.2,2.6-2.6,2.6c-1.4,0-2.6-1.2-2.6-2.6c0-1.4,2.6-5.1,2.6-5.1S26.6,21.1,26.6,22.5z"
						/>
				</g>
			</g>
			<g>
				<g>
					<path fill="#FFD15C" d="M25.4,23.7c0,0.8-0.6,1.4-1.4,1.4s-1.4-0.6-1.4-1.4S24,21,24,21S25.4,23,25.4,23.7z"/>
				</g>
			</g>
		</g>
		<g>
			<g>
				<g>
					<g>
						<path fill="#FFD15C" d="M40,20.1c-0.1,0-0.3,0-0.4-0.1c-0.3-0.2-0.3-0.6-0.1-0.9l2.4-2.9c0.2-0.3,0.6-0.3,0.9-0.1
							c0.3,0.2,0.3,0.6,0.1,0.9l-2.4,2.9C40.4,20,40.2,20.1,40,20.1z"/>
					</g>
				</g>
				<g>
					<g>
						<path fill="#FFD15C" d="M40.6,24.7c-0.2,0-0.5-0.1-0.6-0.4c-0.1-0.3,0-0.7,0.3-0.8l3-1.2c0.3-0.1,0.7,0,0.8,0.3
							c0.1,0.3,0,0.7-0.3,0.8l-3,1.2C40.8,24.7,40.7,24.7,40.6,24.7z"/>
					</g>
				</g>
				<g>
					<g>
						<path fill="#FFD15C" d="M43.6,31.2c-0.1,0-0.2,0-0.2,0l-3-1.2c-0.3-0.1-0.5-0.5-0.3-0.8c0.1-0.3,0.5-0.5,0.8-0.3l3,1.2
							c0.3,0.1,0.5,0.5,0.3,0.8C44.1,31.1,43.8,31.2,43.6,31.2z"/>
					</g>
				</g>
				<g>
					<g>
						<path fill="#FFD15C" d="M42.4,37.6c-0.2,0-0.4-0.1-0.5-0.2l-2.4-2.9c-0.2-0.3-0.2-0.7,0.1-0.9c0.3-0.2,0.7-0.2,0.9,0.1
							l2.4,2.9c0.2,0.3,0.2,0.7-0.1,0.9C42.7,37.5,42.6,37.6,42.4,37.6z"/>
					</g>
				</g>
			</g>
			<g>
				<g>
					<g>
						<path fill="#FFD15C" d="M8,20.1c-0.2,0-0.4-0.1-0.5-0.2L5.1,17c-0.2-0.3-0.2-0.7,0.1-0.9c0.3-0.2,0.7-0.2,0.9,0.1l2.4,2.9
							c0.2,0.3,0.2,0.7-0.1,0.9C8.3,20,8.1,20.1,8,20.1z"/>
					</g>
				</g>
				<g>
					<g>
						<path fill="#FFD15C" d="M7.4,24.7c-0.1,0-0.2,0-0.2,0l-3-1.2c-0.3-0.1-0.5-0.5-0.3-0.8c0.1-0.3,0.5-0.5,0.8-0.3l3,1.2
							C8,23.7,8.1,24,8,24.3C7.9,24.6,7.7,24.7,7.4,24.7z"/>
					</g>
				</g>
				<g>
					<g>
						<path fill="#FFD15C" d="M4.4,31.2c-0.2,0-0.5-0.1-0.6-0.4c-0.1-0.3,0-0.7,0.3-0.8l3-1.2c0.3-0.1,0.7,0,0.8,0.3
							c0.1,0.3,0,0.7-0.3,0.8l-3,1.2C4.6,31.2,4.5,31.2,4.4,31.2z"/>
					</g>
				</g>
				<g>
					<g>
						<path fill="#FFD15C" d="M5.6,37.6c-0.1,0-0.3,0-0.4-0.1c-0.3-0.2-0.3-0.6-0.1-0.9l2.4-2.9c0.2-0.3,0.6-0.3,0.9-0.1
							c0.3,0.2,0.3,0.6,0.1,0.9L6,37.4C5.9,37.5,5.7,37.6,5.6,37.6z"/>
					</g>
				</g>
			</g>
		</g>
	</g>
</g>
</svg>
