<?xml version="1.0" encoding="utf-8"?>
<!-- Generator: Adobe Illustrator 18.0.0, SVG Export Plug-In . SVG Version: 6.00 Build 0)  -->
<!DOCTYPE svg PUBLIC "-//W3C//DTD SVG 1.1//EN" "http://www.w3.org/Graphics/SVG/1.1/DTD/svg11.dtd">
<svg version="1.1" id="Layer_1" xmlns="http://www.w3.org/2000/svg" xmlns:xlink="http://www.w3.org/1999/xlink" x="0px" y="0px"
	 viewBox="0 0 48 48" enable-background="new 0 0 48 48" xml:space="preserve">
<g>
	<g>
		<path fill="#FF7058" d="M37.2,2.8c-2.2,0-4.2,1-5.6,2.5c-1.4-1.5-3.4-2.5-5.6-2.5c-4.2,0-7.5,3.4-7.5,7.5c0,6.4,13.1,16,13.1,16
			s13.1-9.6,13.1-16C44.7,6.2,41.4,2.8,37.2,2.8z"/>
	</g>
	<g>
		<path fill="#FFD15C" d="M45.7,30.2c0,0-4.8,3.8-7.5,5c0,0-5.9,3.2-11.5,3.4H18c0,0-1.6-0.3-3.7,1.1c-0.3,0.2-0.5,0.4-0.8,0.6
			c-0.4,0.3-0.9,0.7-1.3,1.2l-7-10.2c0,0,0.6-0.4,1.4-1.1c0.2-0.2,0.5-0.4,0.7-0.7c0.6-0.5,1.2-1.2,1.8-1.9c0,0,3.7-4.8,12-1.9
			c5.8,2,6.5,2.1,6.5,2.1s3.5,0.4,6.9,0.4c0,0,2.8,0,2.7,2.1c0,0.7-0.4,1.3-0.9,1.8c-0.7,0.6-2,1.3-4.4,1.6c-1,0.1-2.1,0.1-3.1,0
			c-2.6-0.2-5.7-0.7-6.3-0.3c0,0-0.8,0.6,2.3,1c0,0,2.3,0.3,6.4,0.4c0,0,7.4-0.3,7.1-5.5c0,0,2.6-1.6,4.2-2.2c0,0,4.2-2.5,5.2-0.9
			C47.7,26.1,48.9,27.8,45.7,30.2z"/>
		<path fill="#FFFFFF" d="M36.1,29.7c-0.3-0.3-1.1-0.5-1.5-0.5l-0.5,0c-0.4,0-0.7,0-1.1,0v3.3c1.4-0.3,2.2-0.8,2.7-1.1
			c0.3-0.3,0.5-0.7,0.6-1.1C36.3,29.9,36.1,29.8,36.1,29.7z"/>
		<path fill="#F8B64C" d="M14.3,39.7c-0.3,0.2-0.5,0.4-0.8,0.6c-0.4,0.3-0.9,0.7-1.3,1.2l-7-10.2c0,0,0.6-0.4,1.4-1.1
			c0.2-0.2,0.5-0.4,0.7-0.7L14.3,39.7z"/>
		
			<rect x="4.1" y="28.5" transform="matrix(0.8238 -0.5668 0.5668 0.8238 -19.5292 10.5806)" fill="#40596B" width="6.3" height="16.3"/>
		<circle fill="#CDD6E0" cx="10.5" cy="41.2" r="1.4"/>
	</g>
</g>
</svg>
