<?xml version="1.0" encoding="utf-8"?>
<!-- Generator: Adobe Illustrator 18.0.0, SVG Export Plug-In . SVG Version: 6.00 Build 0)  -->
<!DOCTYPE svg PUBLIC "-//W3C//DTD SVG 1.1//EN" "http://www.w3.org/Graphics/SVG/1.1/DTD/svg11.dtd">
<svg version="1.1" id="Layer_1" xmlns="http://www.w3.org/2000/svg" xmlns:xlink="http://www.w3.org/1999/xlink" x="0px" y="0px"
	 viewBox="0 0 48 48" enable-background="new 0 0 48 48" xml:space="preserve">
<g>
	<polygon fill="#334A5E" points="33.3,42.6 25.9,33.7 29.6,29.1 27.3,27.2 23.9,31.3 20.6,27.2 18.3,29.1 22,33.7 14.6,42.6 
		16.9,44.5 23.9,36 31,44.5 	"/>
	<rect x="44.3" y="16.8" fill="#CDD6E0" width="3.5" height="30.8"/>
	<polygon fill="#CDD6E0" points="2.2,16.2 2.2,43.6 6.1,43.6 6.1,15.8 	"/>
	
		<rect x="16.2" y="14.5" transform="matrix(0.9717 0.2363 -0.2363 0.9717 7.8989 -3.4064)" fill="#40596B" width="4" height="33.5"/>
	
		<rect x="13.1" y="29.3" transform="matrix(0.2363 0.9717 -0.9717 0.2363 53.1399 -5.1202)" fill="#40596B" width="33.5" height="4"/>
	<polygon fill="#FF7058" points="42.4,13.1 2.2,23.8 2.2,16.2 40.4,6.1 	"/>
	<polygon fill="#40596B" points="44.3,18 39.5,10.2 39.4,1 42.9,0 47.7,7.8 47.8,17 	"/>
	<circle fill="#FFD15C" cx="23.9" cy="14.7" r="4.6"/>
	<circle fill="#FFFFFF" cx="23.9" cy="14.7" r="2"/>
	<rect x="0.2" y="43.6" fill="#ACB3BA" width="7.8" height="3.9"/>
</g>
</svg>
