<?xml version="1.0" encoding="utf-8"?>
<!-- Generator: Adobe Illustrator 18.0.0, SVG Export Plug-In . SVG Version: 6.00 Build 0)  -->
<!DOCTYPE svg PUBLIC "-//W3C//DTD SVG 1.1//EN" "http://www.w3.org/Graphics/SVG/1.1/DTD/svg11.dtd">
<svg version="1.1" id="Layer_1" xmlns="http://www.w3.org/2000/svg" xmlns:xlink="http://www.w3.org/1999/xlink" x="0px" y="0px"
	 viewBox="0 0 48 48" enable-background="new 0 0 48 48" xml:space="preserve">
<g>
	<circle fill="#FFD15C" cx="24" cy="24" r="24"/>
	<g>
		<g>
			<path fill="#F2F2F2" d="M5.2,38.9C6.1,40,7,41,8,41.9c4-4.3,9.7-7,16-7s12,2.7,16,7c1-0.9,1.9-1.9,2.7-2.9c-4.7-5-11.4-8-18.8-8
				S10,34,5.2,38.9z"/>
		</g>
		<g>
			<path fill="#F2F2F2" d="M24,13.1c-6.3,0-12-2.7-16-7C7,7,6.1,8,5.2,9.1c4.7,5,11.4,8,18.8,8s14-3.1,18.8-8C42,8,41,7,40,6.2
				C36,10.4,30.3,13.1,24,13.1z"/>
		</g>
	</g>
	<path opacity="0.1" fill="#231F20" d="M26.8,45.2c-13.3,0-24-10.7-24-24C2.8,15.3,5,9.9,8.5,5.7C3.3,10.1,0,16.7,0,24
		c0,13.3,10.7,24,24,24c7.3,0,13.9-3.3,18.3-8.5C38.1,43,32.7,45.2,26.8,45.2z"/>
</g>
</svg>
