<?xml version="1.0" encoding="utf-8"?>
<!-- Generator: Adobe Illustrator 18.0.0, SVG Export Plug-In . SVG Version: 6.00 Build 0)  -->
<!DOCTYPE svg PUBLIC "-//W3C//DTD SVG 1.1//EN" "http://www.w3.org/Graphics/SVG/1.1/DTD/svg11.dtd">
<svg version="1.1" id="Layer_1" xmlns="http://www.w3.org/2000/svg" xmlns:xlink="http://www.w3.org/1999/xlink" x="0px" y="0px"
	 viewBox="0 0 48 48" enable-background="new 0 0 48 48" xml:space="preserve">
<g>
	<g>
		<g>
			<g>
				<path fill="#F7B64C" d="M18,8.5l-1.8-4.6C15.8,2.7,14.7,2,13.5,2H3C1.3,2,0,3.3,0,5v38c0,1.7,1.3,3,3,3h42c1.7,0,3-1.3,3-3V11.5
					c0-1.7-1.3-3-3-3H18z"/>
			</g>
		</g>
		<g>
			<path fill="#F3F3F3" d="M44.1,18.4v-10c0-1.1-0.9-2-2-2H5.9c-1.1,0-2,0.9-2,2v10H44.1z"/>
		</g>
		<g>
			<path fill="#FFFFFF" d="M44.1,21.4v-10c0-1.1-0.9-2-2-2H5.9c-1.1,0-2,0.9-2,2v10H44.1z"/>
		</g>
		<g>
			<g>
				<path fill="#FFD15C" d="M0,16.2V43c0,1.7,1.3,3,3,3h42c1.7,0,3-1.3,3-3V16.2c0-1.7-1.3-3-3-3H3C1.3,13.2,0,14.6,0,16.2z"/>
			</g>
		</g>
		<g>
			<g>
				<path fill="#F3705A" d="M24,40.8c4.5-6.1,12-9.5,12-16.1c0-3.4-2.8-6.2-6.2-6.2c-2.7,0-4.9,1.7-5.8,4c-0.9-2.4-3.1-4-5.8-4
					c-3.4,0-6.2,2.8-6.2,6.2C12,31.2,19.9,35.2,24,40.8z"/>
			</g>
		</g>
	</g>
</g>
</svg>
