<?xml version="1.0" encoding="utf-8"?>
<!-- Generator: Adobe Illustrator 18.0.0, SVG Export Plug-In . SVG Version: 6.00 Build 0)  -->
<!DOCTYPE svg PUBLIC "-//W3C//DTD SVG 1.1//EN" "http://www.w3.org/Graphics/SVG/1.1/DTD/svg11.dtd">
<svg version="1.1" id="Layer_1" xmlns="http://www.w3.org/2000/svg" xmlns:xlink="http://www.w3.org/1999/xlink" x="0px" y="0px"
	 viewBox="0 0 48 48" enable-background="new 0 0 48 48" xml:space="preserve">
<g>
	<g>
		<path fill="#FF7058" d="M11,37.3c-0.3,5.6-6.4,9.1-9.5,10.5c-0.1,0-0.2,0-0.2,0S5.4,46.4,5,36.6c-0.4-9.9,9.4-8.2,9.4-8.2l2.6,2.6
			C16.9,30.9,11.4,29.9,11,37.3z"/>
		<path fill="#F1543F" d="M1.5,47.8c3.1-1.4,9.2-5,9.5-10.5c0.5-7.5,5.9-6.4,5.9-6.4l0.4,0.4c0,0,1.6,5-2.2,11.5
			C11.6,48.9,2.8,48,1.5,47.8z"/>
		<path opacity="0.5" fill="#FF7058" d="M9.4,44.6c0,0,0.2,0,0.6-0.1c0.4-0.1,1-0.2,1.6-0.5c0.6-0.3,1.3-0.8,1.9-1.4
			c0.6-0.6,1.1-1.5,1.6-2.3c0.2-0.5,0.3-0.9,0.4-1.4c0.1-0.5,0.1-0.9,0.2-1.4c0-0.9-0.1-1.7-0.3-2.4c-0.2-0.7-0.5-1.2-0.7-1.5
			c-0.2-0.3-0.4-0.5-0.4-0.5s0,0.2,0,0.6c0.1,0.4,0,0.9,0,1.5c0,1.2-0.3,2.8-1,4.2c-0.6,1.4-1.6,2.7-2.4,3.6
			c-0.4,0.4-0.8,0.8-1.1,1.1C9.5,44.4,9.4,44.6,9.4,44.6z"/>
	</g>
	<path fill="#40596B" d="M46.4,0.4L46.4,0.4c-0.4-0.4-1.2-0.5-1.8-0.1c-2.5,1.6-5.2,3.2-7.7,5.2c-10.4,8.1-16.4,12.7-25.2,22.2
		l7.4,7.4c9.6-8.8,14.1-14.8,22.2-25.2c1.9-2.5,3.6-5.2,5.2-7.7C46.8,1.5,46.8,0.8,46.4,0.4z"/>
	<path fill="#FFD15C" d="M42.6,1.5c-1.3,0.8-2.7,1.7-4,2.6L42.6,8c0.9-1.3,1.8-2.7,2.6-4L42.6,1.5z"/>
	<path fill="#CDD6E0" d="M12.3,26.3l8,8c0.4,0.4,0.4,1,0,1.4l-0.6,0.6c-0.4,0.4-1,0.4-1.4,0l-8-8c-0.4-0.4-0.4-1,0-1.4l0.6-0.6
		C11.3,25.9,12,25.9,12.3,26.3z"/>
</g>
</svg>
