<?xml version="1.0" encoding="utf-8"?>
<!-- Generator: Adobe Illustrator 18.0.0, SVG Export Plug-In . SVG Version: 6.00 Build 0)  -->
<!DOCTYPE svg PUBLIC "-//W3C//DTD SVG 1.1//EN" "http://www.w3.org/Graphics/SVG/1.1/DTD/svg11.dtd">
<svg version="1.1" id="Layer_1" xmlns="http://www.w3.org/2000/svg" xmlns:xlink="http://www.w3.org/1999/xlink" x="0px" y="0px"
	 viewBox="0 0 48 48" enable-background="new 0 0 48 48" xml:space="preserve">
<g>
	<g>
		<g>
			<path fill="#F3F3F3" d="M48,20.9c0,11.6-10.8,20.9-24,20.9c-1.1,0-2.1-0.1-3.2-0.2L6.2,48V35C2.4,31.3,0,26.4,0,20.9
				C0,9.4,10.8,0,24,0S48,9.4,48,20.9z"/>
		</g>
		<g>
			<path fill="#32495B" d="M13.1,18.4c0,6.7,5.5,12.1,12.1,12.1s12.1-5.4,12.1-12.1C32.1,21.7,22.7,20.3,13.1,18.4z"/>
			<circle fill="#32495B" cx="20.2" cy="18.4" r="7.1"/>
			<g>
				<path fill="#66C6B9" d="M32.8,16.7c0,0-3.6,7.1-5.3,8.3c-1.7,1.2-4,0.8-5.1-0.9c-1.2-1.7-0.8-4,0.9-5.1
					C24.9,17.8,32.8,16.7,32.8,16.7z"/>
			</g>
			<circle fill="#FFFFFF" cx="17.7" cy="17.2" r="1"/>
			<g>
				<polygon fill="#32495B" points="13.6,17.2 10.6,19 13.6,20.8 				"/>
			</g>
		</g>
	</g>
</g>
</svg>
