<?xml version="1.0" encoding="utf-8"?>
<!-- Generator: Adobe Illustrator 18.0.0, SVG Export Plug-In . SVG Version: 6.00 Build 0)  -->
<!DOCTYPE svg PUBLIC "-//W3C//DTD SVG 1.1//EN" "http://www.w3.org/Graphics/SVG/1.1/DTD/svg11.dtd">
<svg version="1.1" id="Layer_1" xmlns="http://www.w3.org/2000/svg" xmlns:xlink="http://www.w3.org/1999/xlink" x="0px" y="0px"
	 viewBox="0 0 48 48" enable-background="new 0 0 48 48" xml:space="preserve">
<g>
	<path fill="#F3F3F3" d="M41,0H15L4,11v34c0,1.7,1.3,3,3,3h34c1.7,0,3-1.3,3-3V3C44,1.3,42.7,0,41,0z"/>
	<g>
		<rect x="10.8" y="35.6" fill="#8AD7F8" width="2.3" height="5.6"/>
		<rect x="16.8" y="28.9" fill="#415A6B" width="2.3" height="12.2"/>
		<rect x="28.9" y="28.9" fill="#66C6B9" width="2.3" height="12.2"/>
		<rect x="35" y="22.3" fill="#F3705A" width="2.3" height="18.9"/>
		<rect x="22.9" y="32.3" fill="#FFD15C" width="2.3" height="8.9"/>
		<polygon fill="#CED6E0" points="38,13.5 32,15.1 33.4,16.6 23.9,26.1 18.2,20.3 9.2,29.3 10.7,30.8 18.2,23.3 23.9,29 34.9,18 
			36.4,19.5 		"/>
	</g>
	<g>
		<polygon fill="#CED6E0" points="15,0 4,11 15,11 		"/>
	</g>
</g>
</svg>
