<?xml version="1.0" encoding="utf-8"?>
<!-- Generator: Adobe Illustrator 18.0.0, SVG Export Plug-In . SVG Version: 6.00 Build 0)  -->
<!DOCTYPE svg PUBLIC "-//W3C//DTD SVG 1.1//EN" "http://www.w3.org/Graphics/SVG/1.1/DTD/svg11.dtd">
<svg version="1.1" id="Layer_1" xmlns="http://www.w3.org/2000/svg" xmlns:xlink="http://www.w3.org/1999/xlink" x="0px" y="0px"
	 viewBox="0 0 48 48" enable-background="new 0 0 48 48" xml:space="preserve">
<g>
	<g>
		<g>
			<g>
				<g>
					<path fill="#435B6C" d="M2.3,42.5c0,0,5.9,0.1,14.8,0.3c2.2,0,4.6,0.1,7.1,0.1l0.1,0l0.1,0c0.1,0-0.1,0-0.1,0l0,0l0.2,0l0.5,0
						c0.2,0,0.3,0,0.6-0.1c0.5-0.1,0.9-0.3,1.4-0.4c0.9-0.4,1.8-1.1,2.4-1.9c1.3-1.7,1.8-4.1,0.8-5.8c-0.4-0.9-1.2-1.6-2.2-2
						c-0.5-0.2-1-0.3-1.5-0.4c-0.2,0-0.7,0-1,0l-1.1,0c-1.5,0-2.9-0.1-4.4-0.1c-0.6,0-0.7,0-1.2-0.1L18,32c-0.2-0.1-0.4-0.1-0.6-0.2
						c-0.8-0.3-1.6-0.6-2.2-1.1c-1.3-1-2.2-2.4-2.6-3.9c-0.2-0.8-0.3-1.6-0.2-2.5c0-0.2,0-0.4,0.1-0.6l0-0.3l0-0.2l0-0.1l0-0.1
						c0.1-0.4,0.1-0.6,0.3-1.1c1.1-3.4,4-5.9,7-6.9c0.7-0.2,1.5-0.4,2.2-0.4c0.8,0,1.3,0,1.9,0c1.2,0,2.3,0.1,3.4,0.1
						c4.4,0.1,8.1,0.2,10.7,0.3c2.6,0.1,4,0.1,4,0.1L42,16.4c0,0-1.5,0.1-4.1,0.1c-2.6,0.1-6.3,0.2-10.8,0.3c-1.1,0-2.3,0.1-3.5,0.1
						c-1.3,0-2.2,0-3.3,0.5c-1.1,0.4-2.1,1-2.9,1.9c-0.8,0.8-1.5,1.9-1.8,3c-0.1,0.2-0.2,0.6-0.2,0.9l0,0.4c0,0.1,0,0.3,0,0.4
						c0,0.6,0.1,1.1,0.2,1.6c0.3,1,1,1.9,1.8,2.5c0.4,0.3,0.9,0.5,1.5,0.6l0.4,0.1l0.4,0c0.2,0,0.8,0,1,0c1.5,0,3-0.1,4.5-0.1l1.1,0
						c0.4,0,0.7,0,1.2,0c0.9,0,1.8,0.2,2.6,0.5c1.7,0.6,3,1.7,3.9,3.2c1.8,2.9,1.2,7.2-1.1,10.3c-1.1,1.6-2.7,2.8-4.3,3.7
						c-0.8,0.4-1.7,0.8-2.6,1c-0.4,0.1-0.9,0.2-1.4,0.2l-0.5,0l-0.2,0l-0.4,0c-2.6,0-5,0.1-7.2,0.1C7.2,47.9,1.3,48,1.3,48L2.3,42.5
						z"/>
				</g>
				<g>
					<g>
						<polygon fill="#FFFFFF" points="1.9,44.8 5.1,44.8 4.9,45.7 1.7,45.7 						"/>
						<polygon fill="#FFFFFF" points="7.9,44.8 14.6,44.9 14.4,45.7 7.8,45.7 						"/>
						<polygon fill="#FFFFFF" points="17.4,44.9 24,44.9 23.9,45.7 17.3,45.7 						"/>
						<path fill="#FFFFFF" d="M26.8,44.4c0,0,0.4-0.2,1-0.4c0.6-0.3,1.3-0.8,1.9-1.3c0.6-0.6,1.2-1.3,1.5-1.8
							c0.3-0.5,0.5-0.9,0.5-0.9l0.6,0.2c0,0-0.2,0.4-0.6,1c-0.4,0.6-1,1.3-1.7,2c-0.7,0.6-1.5,1.2-2.1,1.5c-0.3,0.2-0.6,0.3-0.8,0.4
							c-0.2,0.1-0.3,0.1-0.3,0.1L26.8,44.4z"/>
						<path fill="#FFFFFF" d="M32.4,37.2c0,0,0-0.4,0-1c0-0.6-0.2-1.3-0.5-2c-0.3-0.7-0.7-1.3-1.1-1.7c-0.4-0.4-0.7-0.6-0.7-0.6
							l0.4-0.5c0,0,0.3,0.2,0.7,0.7c0.4,0.4,0.9,1.1,1.2,1.8c0.3,0.7,0.5,1.6,0.5,2.2c0,0.3,0,0.6,0,0.8c0,0.2,0,0.3,0,0.3
							L32.4,37.2z"/>
						<path fill="#FFFFFF" d="M27.9,30.9c0,0-0.4-0.1-1-0.1c-0.6,0-1.4,0-2.3,0c-1.7,0-3.3,0-3.3,0l0.1-0.6c0,0,1.7,0,3.3,0
							c0.8,0,1.6,0,2.3,0c0.6,0,1,0.1,1,0.1L27.9,30.9z"/>
						<path fill="#FFFFFF" d="M18.5,30.6c0,0-0.4-0.1-1-0.3c-0.6-0.2-1.3-0.6-1.9-1.1c-0.6-0.5-1-1.2-1.3-1.7
							c-0.3-0.5-0.4-0.9-0.4-0.9l0.5-0.2c0,0,0.1,0.4,0.4,0.9c0.3,0.5,0.7,1.1,1.2,1.6c0.6,0.5,1.2,0.8,1.7,1
							c0.5,0.2,0.9,0.3,0.9,0.3L18.5,30.6z"/>
						<path fill="#FFFFFF" d="M13.6,23.7c0,0,0-0.1,0-0.3c0-0.1,0-0.2,0-0.3c0-0.1,0.1-0.3,0.1-0.4c0.2-0.7,0.5-1.5,0.9-2.3
							c0.4-0.8,1-1.5,1.5-2c0.5-0.5,0.9-0.8,0.9-0.8l0.2,0.3c0,0-0.3,0.3-0.8,0.7c-0.5,0.5-1,1.2-1.4,1.9c-0.4,0.7-0.7,1.6-0.8,2.1
							c0,0.1-0.1,0.3-0.1,0.4c0,0.1,0,0.2,0,0.3c0,0.2,0,0.3,0,0.3L13.6,23.7z"/>
						<path fill="#FFFFFF" d="M19.9,16c0,0,0.4-0.2,1.1-0.3c0.6-0.2,1.5-0.2,2.4-0.2c1.7,0,3.3,0,3.3,0l-0.1,0.4c0,0-1.7,0-3.3,0
							c-0.8,0-1.6,0.1-2.3,0.2c-0.6,0.1-1,0.3-1,0.3L19.9,16z"/>
						<polygon fill="#FFFFFF" points="29.4,15.5 36.1,15.6 36,15.8 29.4,15.9 						"/>
						<polygon fill="#FFFFFF" points="38.9,15.6 42.1,15.6 42.1,15.8 38.9,15.8 						"/>
					</g>
				</g>
			</g>
			<g>
				<path fill="#FFD15D" d="M0.8,30.5c-0.5,0-0.8,0.4-0.8,0.8V48h1.6V31.3C1.6,30.8,1.3,30.5,0.8,30.5z"/>
				<path fill="#F3705B" d="M1.6,31.6v8.5c3.5,1.7,7-1.7,10.4,0v-8.5C8.6,29.9,5.1,33.3,1.6,31.6z"/>
			</g>
		</g>
		<g>
			<path fill="#F3705B" d="M46.1,1.9c-2.6-2.6-6.8-2.6-9.3,0c-2.6,2.6-2.6,6.8,0,9.3l4.7,4.7l4.7-4.7C48.6,8.7,48.6,4.5,46.1,1.9z"
				/>
			<g>
				<path fill="#FFFFFF" d="M41.4,10.5c-2.1,0-3.8-1.7-3.8-3.8c0-2.1,1.7-3.8,3.8-3.8c2.1,0,3.8,1.7,3.8,3.8
					C45.2,8.7,43.5,10.5,41.4,10.5z"/>
			</g>
		</g>
	</g>
</g>
</svg>
