<?xml version="1.0" encoding="utf-8"?>
<!-- Generator: Adobe Illustrator 16.0.0, SVG Export Plug-In . SVG Version: 6.00 Build 0)  -->
<!DOCTYPE svg PUBLIC "-//W3C//DTD SVG 1.1//EN" "http://www.w3.org/Graphics/SVG/1.1/DTD/svg11.dtd">
<svg version="1.1" id="Layer_1" xmlns="http://www.w3.org/2000/svg" xmlns:xlink="http://www.w3.org/1999/xlink" x="0px" y="0px"
	 width="48px" height="48px" viewBox="0 0 48 48" enable-background="new 0 0 48 48" xml:space="preserve">
<g>
	<path fill="#E8EAE9" d="M46,28.91H30.908c-1.104,0-2,0.895-2,2V46c0,1.105,0.896,2,2,2H46c1.104,0,2-0.895,2-2V30.91
		C48,29.805,47.104,28.91,46,28.91"/>
	<path fill="#E8EAE9" d="M17.091,28.91H2c-1.105,0-2,0.895-2,2V46c0,1.105,0.895,2,2,2h15.091c1.104,0,2-0.895,2-2V30.91
		C19.091,29.805,18.195,28.91,17.091,28.91"/>
	<rect x="36.034" y="28.91" fill="#ADB3BA" width="4.841" height="5.299"/>
	<rect x="7.125" y="28.91" fill="#ADB3BA" width="4.841" height="5.299"/>
	<path fill="#8AD7F8" d="M48,23.73c-1.466-1.672-3.615-2.713-6.013-2.713c-2.383,0-4.519,1.029-5.998,2.686
		c-1.466-1.656-3.615-2.686-5.999-2.686c-2.382,0-4.519,1.029-5.983,2.686c-1.479-1.656-3.616-2.686-5.998-2.686
		c-2.383,0-4.521,1.029-5.999,2.686c-1.479-1.656-3.615-2.686-5.998-2.686c-2.397,0-4.547,1.041-6.012,2.713
		C0.78,11.117,11.201,1.135,24.007,1.135C36.798,1.135,47.232,11.117,48,23.73"/>
	<path fill="#40596B" d="M20.663,48c2.327,0,4.213-1.885,4.213-4.213V20.484c0-0.484-0.392-0.877-0.876-0.877
		c-0.483,0-0.877,0.393-0.877,0.877v23.303c0,1.357-1.101,2.461-2.46,2.461c-1.358,0-2.46-1.104-2.46-2.461v-0.652
		c0-0.484-0.393-0.875-0.877-0.875s-0.876,0.391-0.876,0.875v0.652C16.45,46.115,18.336,48,20.663,48"/>
	<path fill="#40596B" d="M24.877,5.521V0.877C24.877,0.393,24.483,0,24,0c-0.484,0-0.876,0.393-0.876,0.877v4.645H24.877z"/>
	<path fill="#55C0EB" d="M24.004,1.135c-0.002,0-0.003,0-0.005,0c-6.39,0.004-11.591,9.969-11.988,22.566
		c1.479-1.656,3.615-2.682,5.997-2.682c2.384,0,4.52,1.027,5.998,2.684c1.467-1.656,3.603-2.684,5.985-2.684
		c2.382,0,4.531,1.025,5.997,2.682C35.598,11.104,30.389,1.135,24.004,1.135"/>
</g>
</svg>
