<?xml version="1.0" encoding="utf-8"?>
<!-- Generator: Adobe Illustrator 20.1.0, SVG Export Plug-In . SVG Version: 6.00 Build 0)  -->
<!DOCTYPE svg PUBLIC "-//W3C//DTD SVG 1.1//EN" "http://www.w3.org/Graphics/SVG/1.1/DTD/svg11.dtd">
<svg version="1.1" id="Layer_1" xmlns="http://www.w3.org/2000/svg" xmlns:xlink="http://www.w3.org/1999/xlink" x="0px" y="0px"
	 viewBox="0 0 49 49" enable-background="new 0 0 49 49" xml:space="preserve">
<g>
	<path fill="#F2F2F2" d="M46.9,36.2H2.1c-0.9,0-1.6,0.7-1.6,1.6v0.1c0,0.9,0.7,1.6,1.6,1.6h44.9c0.9,0,1.6-0.7,1.6-1.6v-0.1
		C48.5,36.9,47.8,36.2,46.9,36.2z"/>
	<path fill="#CDD6E0" d="M44.6,39.4L42.5,41l-1.4,1c-0.4,0.2-0.8,0.4-1.2,0.4H9.1c-0.4,0-0.9-0.1-1.2-0.4l-1.4-1l-2.1-1.5H44.6z"/>
	<polygon fill="#B8CAD8" points="44.6,39.4 42.5,41 6.5,41 4.4,39.4 	"/>
	<path fill="#40596B" d="M44.4,6.7H4.6c-1.1,0-2,0.9-2,2v27.5h43.9V8.7C46.4,7.6,45.5,6.7,44.4,6.7z"/>
	
		<rect x="12.3" y="2.1" transform="matrix(-1.836970e-16 1 -1 -1.836970e-16 45.928 -3.0721)" fill="#FF7058" width="24.4" height="38.7"/>
	<path fill="#B8CAD8" d="M26,37.4h-3c-0.3,0-0.5,0.2-0.5,0.5s0.2,0.5,0.5,0.5h3c0.3,0,0.5-0.2,0.5-0.5S26.2,37.4,26,37.4z"/>
	<path fill="#FFD05C" d="M24.5,14.7l-4.7,8.4c0.3-0.4,0.7-0.6,1.2-0.6h0c0.2,0,0.4,0,0.5,0.1v3h5.9v-2.9c0.2-0.1,0.4-0.2,0.7-0.2h0
		c0.5,0,0.9,0.2,1.2,0.6L24.5,14.7z"/>
	<path fill="#84DBFF" d="M29.6,33.6l0-9.5c0-0.9-0.7-1.5-1.5-1.5s-1.5,0.7-1.5,1.5v9.5H29.6z"/>
	<path fill="#84DBFF" d="M22.5,33.6v-9.5c0-0.9-0.7-1.5-1.5-1.5h0c-0.9,0-1.5,0.7-1.5,1.5l0,9.5H22.5z"/>
	<path fill="#54C0EB" d="M26.5,33.6v-9.1c0-1.1-0.9-2-2-2c-1.1,0-2,0.9-2,2v9.1H26.5z"/>
	<polygon fill="#334A5E" points="26.4,18.1 24.5,14.7 22.6,18.1 	"/>
	<path fill="#FFFFFF" d="M34,10.7c-0.5,0-0.9,0.3-1,0.8h-7.1c-0.1-0.7-0.7-1.2-1.4-1.2c-0.7,0-1.3,0.5-1.4,1.2H16
		c-0.1-0.4-0.5-0.8-1-0.8c-0.6,0-1,0.5-1,1c0,0.6,0.5,1,1,1c0.5,0,0.9-0.3,1-0.8h5.9c-2.3,0.9-3.9,2.8-4.4,5.3
		c-0.8,0-1.4,0.7-1.4,1.5c0,0.8,0.7,1.5,1.5,1.5c0.8,0,1.5-0.7,1.5-1.5c0-0.7-0.4-1.2-1.1-1.4c0.5-2.6,2.5-4.6,5.1-5.2
		c0.2,0.6,0.7,1.1,1.4,1.1c0.7,0,1.2-0.4,1.4-1.1c2.6,0.6,4.6,2.6,5.2,5.2c-0.6,0.2-1,0.7-1,1.4c0,0.8,0.7,1.5,1.5,1.5
		s1.5-0.7,1.5-1.5c0-0.8-0.6-1.4-1.4-1.5c-0.5-2.4-2.2-4.4-4.4-5.3h6c0.1,0.4,0.5,0.8,1,0.8c0.6,0,1-0.5,1-1
		C35,11.2,34.6,10.7,34,10.7z M18.5,18.7c0,0.5-0.4,1-1,1c-0.5,0-1-0.4-1-1c0-0.5,0.4-1,1-1C18,17.7,18.5,18.2,18.5,18.7z M15,12.3
		c-0.3,0-0.5-0.2-0.5-0.5c0-0.3,0.2-0.5,0.5-0.5c0.3,0,0.5,0.2,0.5,0.5C15.5,12,15.3,12.3,15,12.3z M24.5,12.7c-0.5,0-1-0.4-1-1
		c0-0.5,0.4-1,1-1c0.5,0,1,0.4,1,1C25.4,12.3,25,12.7,24.5,12.7z M32.4,18.7c0,0.5-0.4,1-1,1c-0.5,0-1-0.4-1-1c0-0.5,0.4-1,1-1
		C32,17.7,32.4,18.2,32.4,18.7z M34,12.3c-0.3,0-0.5-0.2-0.5-0.5c0-0.3,0.2-0.5,0.5-0.5c0.3,0,0.5,0.2,0.5,0.5
		C34.5,12,34.3,12.3,34,12.3z"/>
</g>
</svg>
