<?xml version="1.0" encoding="utf-8"?>
<!-- Generator: Adobe Illustrator 18.0.0, SVG Export Plug-In . SVG Version: 6.00 Build 0)  -->
<!DOCTYPE svg PUBLIC "-//W3C//DTD SVG 1.1//EN" "http://www.w3.org/Graphics/SVG/1.1/DTD/svg11.dtd">
<svg version="1.1" id="Layer_1" xmlns="http://www.w3.org/2000/svg" xmlns:xlink="http://www.w3.org/1999/xlink" x="0px" y="0px"
	 viewBox="0 0 48 48" enable-background="new 0 0 48 48" xml:space="preserve">
<g>
	<polygon fill="#FF7058" points="43,7.8 40.4,5.2 41.2,4.4 36.8,0 0,36.8 4.4,41.2 5.2,40.4 7.8,43 7,43.8 11.2,48 48,11.2 43.8,7 	
		"/>
	
		<rect x="26.7" y="2.4" transform="matrix(-0.7071 -0.7071 0.7071 -0.7071 28.4052 68.5781)" fill="#FFD15C" width="3.3" height="52.1"/>
	<g>
		
			<rect x="7.6" y="31.9" transform="matrix(0.7071 -0.7071 0.7071 0.7071 -22.9395 17.2285)" fill="#40596B" width="3.5" height="8.9"/>
		
			<rect x="12" y="27.4" transform="matrix(0.7071 -0.7071 0.7071 0.7071 -18.5091 19.0636)" fill="#40596B" width="3.5" height="8.9"/>
		
			<rect x="16.5" y="23" transform="matrix(0.7071 -0.7071 0.7071 0.7071 -14.0788 20.8988)" fill="#40596B" width="3.5" height="8.9"/>
	</g>
	<g>
		
			<rect x="34.6" y="4.9" transform="matrix(-0.7071 0.7071 -0.7071 -0.7071 68.5767 -9.7633)" fill="#40596B" width="3.5" height="8.9"/>
		
			<rect x="30.2" y="9.3" transform="matrix(-0.7071 0.7071 -0.7071 -0.7071 64.1464 0.9325)" fill="#40596B" width="3.5" height="8.9"/>
		
			<rect x="25.7" y="13.7" transform="matrix(-0.7071 0.7071 -0.7071 -0.7071 59.716 11.6283)" fill="#40596B" width="3.5" height="8.9"/>
	</g>
	<g>
		
			<rect x="12.3" y="44.1" transform="matrix(0.7071 -0.7071 0.7071 0.7071 -27.6669 22.6554)" fill="#FF7058" width="2.5" height="1.3"/>
		
			<rect x="20.1" y="36.3" transform="matrix(0.7071 -0.7071 0.7071 0.7071 -19.8643 25.8876)" fill="#FF7058" width="2.5" height="1.3"/>
		
			<rect x="27.9" y="28.5" transform="matrix(0.7071 -0.7071 0.7071 0.7071 -12.0616 29.1193)" fill="#FF7058" width="2.5" height="1.3"/>
		
			<rect x="35.7" y="20.7" transform="matrix(0.7071 -0.7071 0.7071 0.7071 -4.2589 32.3513)" fill="#FF7058" width="2.5" height="1.3"/>
		
			<rect x="43.5" y="12.8" transform="matrix(0.7071 -0.7071 0.7071 0.7071 3.5432 35.5823)" fill="#FF7058" width="2.5" height="1.3"/>
	</g>
</g>
</svg>
