<?xml version="1.0" encoding="utf-8"?>
<!-- Generator: Adobe Illustrator 18.0.0, SVG Export Plug-In . SVG Version: 6.00 Build 0)  -->
<!DOCTYPE svg PUBLIC "-//W3C//DTD SVG 1.1//EN" "http://www.w3.org/Graphics/SVG/1.1/DTD/svg11.dtd">
<svg version="1.1" id="Layer_1" xmlns="http://www.w3.org/2000/svg" xmlns:xlink="http://www.w3.org/1999/xlink" x="0px" y="0px"
	 viewBox="0 0 48 48" enable-background="new 0 0 48 48" xml:space="preserve">
<g>
	<g>
		<g>
			<g>
				<g>
					<g>
						<path fill="#F3705A" d="M27,44.1c-2.2-12.6-3.4-22.3-3.4-22.3c0-3.7-3.9-6.7-8.8-6.7c-4.9,0-8.8,3-8.8,6.7
							c0,0-1.2,9.7-3.4,22.3H27z"/>
					</g>
				</g>
				<g>
					<g>
						<path fill="#F7B64C" d="M21.5,44v-8c-0.3-0.1-0.6-0.1-0.8-0.2c-1.1-0.2-1.8-1.2-1.8-2.3v-1.7l-4.1-5.3l-4.1,5.3v1.7
							c0,1.1-0.8,2-1.8,2.3c-0.6,0.1-1.2,0.3-1.8,0.4V44H21.5z"/>
					</g>
				</g>
				<g>
					<g>
						<path fill="#415A6B" d="M10.6,35.5v4.8c1.1,1,2.6,1.6,4.2,1.6c1.4,0,2.7-0.4,3.7-1.2l1.4-5.1l0,0c4.7,0,8.6,3.5,9.1,8.1
							l0.5,4.4H0l0.5-4.4C1,39,5,35.5,9.6,35.5H10.6z"/>
					</g>
				</g>
				<g>
					<g>
						<path fill="#4ABAA5" d="M16.1,48l2.4-7.4c-1.1,0.8-2.3,1.2-3.7,1.2c-1.6,0-3.1-0.6-4.2-1.6l2.7,7.8H16.1z"/>
					</g>
				</g>
				<g>
					<g>
						<g>
							<polygon fill="#344A5E" points="17.3,48 21.9,40.1 20.2,38.6 22.4,37.6 18.9,33.5 15.7,48 							"/>
						</g>
					</g>
					<g>
						<g>
							<polygon fill="#344A5E" points="7.7,40.1 12.3,48 13.9,48 10.7,33.5 7.2,37.6 9.4,38.6 							"/>
						</g>
					</g>
				</g>
			</g>
			<g>
				<ellipse fill="#FFD15C" cx="14.8" cy="27.1" rx="6" ry="7.9"/>
			</g>
			<g>
				<path fill="#F3705A" d="M16.1,21c-2,0.4-4.1,1.1-5.4,2.7c-1,1.2-1.3,2.9-1.6,4.5c-0.8,4.9,0.6,10.4,3.5,14.5
					c-1.4-1.2-2.7-2.6-3.6-4.2c0.6,2.3,1.7,4.5,3.3,6.3C8.3,42.9,5.7,38.5,5.4,34c-0.2-4.5,0-8.3,2.2-12.2c0.8-1.4,1.8-2.7,3.1-3.7
					c1.3-1,3-1.5,4.5-1.3c1.6,0.3,3.1,1.4,3.4,3"/>
				<g>
					<path fill="#F3705A" d="M13.5,21c2,0.4,4.1,1.1,5.4,2.7c1,1.2,1.3,2.9,1.6,4.5c0.8,4.9-0.6,10.4-3.5,14.5
						c1.4-1.2,2.7-2.6,3.6-4.2c-0.6,2.3-1.7,4.5-3.3,6.3c4.1-1.8,6.7-6.3,6.9-10.7c0.2-4.5,0-8.3-2.2-12.2c-0.8-1.4-1.8-2.7-3.1-3.7
						c-1.3-1-3-1.5-4.5-1.3c-1.6,0.3-3.1,1.4-3.4,3"/>
				</g>
			</g>
		</g>
		<g>
			<g>
				<path fill="#8AD7F8" d="M26.7,27.9v-6.8c-3-2.2-4.9-5.5-4.9-9.2C21.9,5.3,27.7,0,34.9,0S48,5.3,48,11.9
					c0,6.6-5.9,11.9-13.1,11.9L26.7,27.9z"/>
			</g>
			<g>
				<g>
					<g>
						<circle fill="#FFFFFF" cx="27.9" cy="11.9" r="2.3"/>
					</g>
					<g>
						<circle fill="#FFFFFF" cx="34.9" cy="11.9" r="2.3"/>
					</g>
				</g>
				<g>
					<circle fill="#FFFFFF" cx="42" cy="11.9" r="2.3"/>
				</g>
			</g>
		</g>
	</g>
</g>
</svg>
