<?xml version="1.0" encoding="utf-8"?>
<!-- Generator: Adobe Illustrator 18.0.0, SVG Export Plug-In . SVG Version: 6.00 Build 0)  -->
<!DOCTYPE svg PUBLIC "-//W3C//DTD SVG 1.1//EN" "http://www.w3.org/Graphics/SVG/1.1/DTD/svg11.dtd">
<svg version="1.1" id="Layer_1" xmlns="http://www.w3.org/2000/svg" xmlns:xlink="http://www.w3.org/1999/xlink" x="0px" y="0px"
	 viewBox="0 0 48 48" enable-background="new 0 0 48 48" xml:space="preserve">
<g>
	<g>
		<g>
			<g>
				<path fill="#415A6B" d="M17.9,13.8l0-5.7C17.9,4.7,20.6,2,24,2c3.4,0,6.1,2.7,6.1,6.1v5.7h2V8.1C32.1,3.6,28.4,0,24,0
					c-4.5,0-8.1,3.6-8.1,8.1l0,5.7H17.9z"/>
			</g>
		</g>
		<g>
			<g>
				<path fill="#E8EAE9" d="M41.4,12.8H6.6V45c0,1.7,1.3,3,3,3h28.7c1.7,0,3-1.3,3-3V12.8z"/>
			</g>
			<g>
				<g>
					<path fill="#66C6B9" d="M21.2,32.2c6.2-7.3-5-10.9-7.3-13.6C15,23.7,11.4,31.6,21.2,32.2z"/>
					<g>
						<g>
							<g>
								<path fill="#415A6B" d="M19.3,29.1c0.5-1.5,0.7-3,0.5-4.3c0.4,1.3,0.3,2.8,0,4.3C19.6,29.1,19.5,29.1,19.3,29.1z"/>
							</g>
							<g>
								<path fill="#415A6B" d="M18.8,27.2c-1.5-0.6-2.7-1.3-3.5-2.1c0.8,0.9,1.8,1.8,3.2,2.5C18.7,27.4,18.7,27.3,18.8,27.2z"/>
							</g>
							<g>
								<path fill="#415A6B" d="M17.3,25.1c0.1,0.2,0.2,0.3,0.3,0.5c0-1.2-0.3-2.3-0.6-3.4C17.2,23.2,17.4,24.1,17.3,25.1z"/>
							</g>
						</g>
					</g>
				</g>
				<g>
					<g>
						<path fill="#66C6B9" d="M28.3,27.5c-3.7,0.6-7.9,4.6-4.8,8.6c5.1-0.6,5.2-1.6,7.2-3.5c1.4-1.5,4.2-3.7,6.6-3.2
							C35.1,28.6,31.9,26.7,28.3,27.5z"/>
					</g>
					<g>
						<path fill="#415A6B" d="M22.5,38.2l0.7,0.3C24.8,33.1,29,29,34.1,29C29.4,29,23.8,31.9,22.5,38.2z"/>
						<g>
							<g>
								<path fill="#415A6B" d="M25.6,32.6c1.7-0.3,3.1-0.4,4.1-0.7c-1.1,0.4-2.3,0.6-4,1.1C25.7,32.9,25.6,32.7,25.6,32.6z"/>
							</g>
							<g>
								<path fill="#415A6B" d="M27.5,31.5c0.5-1.5,1.7-2.6,3.1-3.1c-1.4,0.5-2.8,1.5-3.5,3C27.2,31.4,27.3,31.4,27.5,31.5z"/>
							</g>
							<g>
								<path fill="#415A6B" d="M29.8,29.9c-0.2,0.1-0.4,0.2-0.6,0.3c1.3-0.1,2.4-0.3,3.5-0.3C31.8,29.9,30.8,29.9,29.8,29.9z"/>
							</g>
						</g>
					</g>
				</g>
				<g>
					<path fill="#415A6B" d="M24,42.2c-0.6-9.8-7.6-18.5-7.6-18.5s5.3,8.2,5.9,18.5H24z"/>
				</g>
			</g>
		</g>
	</g>
</g>
</svg>
