<?xml version="1.0" encoding="utf-8"?>
<!-- Generator: Adobe Illustrator 18.0.0, SVG Export Plug-In . SVG Version: 6.00 Build 0)  -->
<!DOCTYPE svg PUBLIC "-//W3C//DTD SVG 1.1//EN" "http://www.w3.org/Graphics/SVG/1.1/DTD/svg11.dtd">
<svg version="1.1" id="Layer_1" xmlns="http://www.w3.org/2000/svg" xmlns:xlink="http://www.w3.org/1999/xlink" x="0px" y="0px"
	 viewBox="0 0 48 48" enable-background="new 0 0 48 48" xml:space="preserve">
<g>
	<path fill="#84DBFF" d="M22.3,31.8c-6.3-3.9-11.1-3.9-17.5,0l17.7-28C22.4,13.1,22.3,22.5,22.3,31.8z"/>
	<path fill="#FFD15C" d="M23,32c0.1,0.1,0.2,0.1,0.3,0.2h22.1C43.7,16.7,33.5,5.3,22.8,1.7C28.8,10.9,28.9,22.7,23,32z"/>
	<path fill="#40596B" d="M22.4,36.8L22.4,36.8c-0.7,0-1.2-0.6-1.2-1.2V1.2c0-0.7,0.6-1.2,1.2-1.2h0c0.7,0,1.2,0.6,1.2,1.2v34.3
		C23.6,36.2,23,36.8,22.4,36.8z"/>
	<polygon fill="#F2F2F2" points="43.7,48 4.3,48 0.1,37.4 47.9,37.4 	"/>
	<rect x="0.1" y="34.8" fill="#FF7058" width="47.9" height="2.6"/>
</g>
</svg>
