<?xml version="1.0" encoding="utf-8"?>
<!-- Generator: Adobe Illustrator 18.0.0, SVG Export Plug-In . SVG Version: 6.00 Build 0)  -->
<!DOCTYPE svg PUBLIC "-//W3C//DTD SVG 1.1//EN" "http://www.w3.org/Graphics/SVG/1.1/DTD/svg11.dtd">
<svg version="1.1" id="Layer_1" xmlns="http://www.w3.org/2000/svg" xmlns:xlink="http://www.w3.org/1999/xlink" x="0px" y="0px"
	 viewBox="0 0 48 48" enable-background="new 0 0 48 48" xml:space="preserve">
<g>
	<g>
		<g>
			<g>
				
					<rect x="29.5" y="29.5" transform="matrix(0.7071 -0.7071 0.7071 0.7071 -13.6991 33.0724)" fill="#344A5E" width="7.2" height="7.2"/>
			</g>
		</g>
		<g>
			<g>
				<path fill="#F3705A" d="M46.4,46.4L46.4,46.4c-2.2,2.2-5.8,2.2-8,0l-7.3-7.3c-0.5-0.5-0.5-1.4,0-1.9l6.1-6.1
					c0.5-0.5,1.4-0.5,1.9,0l7.3,7.3C48.5,40.6,48.5,44.2,46.4,46.4z"/>
			</g>
		</g>
		<circle fill="#F3F3F3" cx="18.8" cy="18.8" r="16.6"/>
		<g>
			<g>
				<g>
					<polygon fill="#F7B64C" points="15.9,19.1 15.9,23.7 18.8,26.3 21.7,23.7 21.7,19.1 					"/>
				</g>
				<path fill="#4EC0AA" d="M30.6,30.6L30.6,30.6C30.4,28.5,29,26.7,27,26l-4.3-1.5l-3.9,1l-3.9-1L10.5,26c-2,0.7-3.4,2.5-3.6,4.6
					l0,0c-0.1,1.6,1.1,2.9,2.6,2.9H28C29.6,33.5,30.8,32.1,30.6,30.6z"/>
				<polygon fill="#CED6E0" points="20.1,33.5 22.7,24.6 17.3,25.6 14.9,24.6 17.5,33.5 				"/>
				<g>
					<g>
						<polygon fill="#F05540" points="19.7,27.5 20.5,26.7 18.8,25 17,26.7 17.8,27.5 						"/>
					</g>
				</g>
				<g>
					<g>
						<polygon fill="#F3705A" points="20.4,33.5 19.7,27.5 17.8,27.5 17.1,33.5 						"/>
					</g>
				</g>
				<g>
					<g>
						<path fill="#415A6B" d="M18.8,8.6c-3.1,0-5.6,2.9-5.5,6.3c0,0.1,0-0.1,0,0c0.3,4,2.7,7,5.5,7s5.2-3.1,5.5-7c0-0.1,0,0.1,0,0
							C24.4,11.6,21.9,8.6,18.8,8.6L18.8,8.6z"/>
					</g>
					<g>
						
							<ellipse transform="matrix(0.9615 0.2747 -0.2747 0.9615 5.8088 -5.8162)" fill="#FFD15C" cx="23.7" cy="17.8" rx="1" ry="1.7"/>
					</g>
					<g>
						
							<ellipse transform="matrix(-0.9615 0.2747 -0.2747 -0.9615 32.1489 31.1639)" fill="#FFD15C" cx="13.9" cy="17.8" rx="1" ry="1.7"/>
					</g>
					<g>
						<path fill="#FFD15C" d="M23,13.5c-1.6,0.5-3.5,0.1-5-0.9c-0.9,0.9-2,1.5-3.5,1.4c0,0.1,0,0.1,0,0.2c-0.8,4.4,1,9.4,4.3,9.4
							c3.3,0,5.1-5,4.3-9.4C23.1,13.9,23,13.7,23,13.5z"/>
					</g>
				</g>
				<g>
					<g>
						<g>
							<polygon fill="#F3F3F3" points="21.7,22.9 18.8,25 20.4,27.5 22.7,24.6 							"/>
						</g>
						<g>
							<polygon fill="#66C6B9" points="21.7,33.5 24.8,29.6 22.8,28 24.9,26.6 22.2,23.7 19.6,33.5 							"/>
						</g>
					</g>
					<g>
						<g>
							<polygon fill="#F3F3F3" points="15.9,22.9 18.8,25 17.2,27.5 14.9,24.6 							"/>
						</g>
						<g>
							<polygon fill="#66C6B9" points="12.8,29.6 15.9,33.5 17.9,33.5 15.4,23.7 12.6,26.6 14.8,27.6 							"/>
						</g>
					</g>
				</g>
			</g>
		</g>
		<path fill="#415A6B" d="M32.1,32.1c-7.3,7.3-19.2,7.3-26.6,0s-7.3-19.2,0-26.6s19.2-7.3,26.6,0S39.4,24.7,32.1,32.1z M8.6,8.6
			C3,14.2,3,23.3,8.6,29c5.6,5.6,14.7,5.6,20.4,0c5.6-5.6,5.6-14.7,0-20.4C23.3,3,14.2,3,8.6,8.6z"/>
	</g>
</g>
</svg>
