<?xml version="1.0" encoding="utf-8"?>
<!-- Generator: Adobe Illustrator 20.1.0, SVG Export Plug-In . SVG Version: 6.00 Build 0)  -->
<!DOCTYPE svg PUBLIC "-//W3C//DTD SVG 1.1//EN" "http://www.w3.org/Graphics/SVG/1.1/DTD/svg11.dtd">
<svg version="1.1" id="Layer_1" xmlns="http://www.w3.org/2000/svg" xmlns:xlink="http://www.w3.org/1999/xlink" x="0px" y="0px"
	 viewBox="0 0 49 49" enable-background="new 0 0 49 49" xml:space="preserve">
<g>
	<path fill="#FF7058" d="M22.1,10.1c0,0,0.8-4.9-3.2-7.7l1.7-1.8c0,0,5,4.4,3.4,9.2C22.6,14.5,22.1,10.1,22.1,10.1z"/>
	<g>
		<ellipse fill="#F8B64C" cx="19.6" cy="27.4" rx="18.8" ry="21.1"/>
		<ellipse fill="#FFD15C" cx="25.8" cy="27.4" rx="18.8" ry="21.1"/>
	</g>
	<path fill="#3DC9AE" d="M37.9,1.7c-0.1,0-0.2-0.1-0.2-0.1S35.3,0.8,30.5,1c-4.8,0.2-6.6,4.2-6.6,4.2c0,0.2,0,0.4,0,0.6
		C39.4,3.1,48.2,13,48.2,13l-0.3-1C46.4,7.2,42.7,3.4,37.9,1.7z"/>
	<path fill="#4CDBC4" d="M23.9,5.9c0,0.7-0.1,1.4,0.1,1.9c0.9,1.7,2.8,2.8,4.7,2.7c3.6-0.1,9.8,0.7,9.8,0.7l9.7,1.9
		C48.2,13,39.4,3.1,23.9,5.9z"/>
</g>
</svg>
