<?xml version="1.0" encoding="utf-8"?>
<!-- Generator: Adobe Illustrator 18.0.0, SVG Export Plug-In . SVG Version: 6.00 Build 0)  -->
<!DOCTYPE svg PUBLIC "-//W3C//DTD SVG 1.1//EN" "http://www.w3.org/Graphics/SVG/1.1/DTD/svg11.dtd">
<svg version="1.1" id="Layer_1" xmlns="http://www.w3.org/2000/svg" xmlns:xlink="http://www.w3.org/1999/xlink" x="0px" y="0px"
	 viewBox="0 0 48 48" enable-background="new 0 0 48 48" xml:space="preserve">
<g>
	<path fill="#4CDBC4" d="M31.3,4.6H6.1c-1.1,0-2,0.9-2,2V46c0,1.1,0.9,2,2,2h31.3c1.1,0,2-0.9,2-2V12.7L31.3,4.6z"/>
	<path fill="#F2F2F2" d="M43.9,41.4V8.6L35.3,0L10.6,0c-1.1,0-2,0.9-2,2v39.4c0,1.1,0.9,2,2,2h31.3C43,43.4,43.9,42.5,43.9,41.4z"/>
	<path fill="#CDD6E0" d="M35.3,7.1c0,0.9,0.7,1.6,1.6,1.6h7L35.3,0V7.1z"/>
	<rect x="28.4" y="15" fill="#FFD15C" width="12" height="2.5"/>
	<rect x="12.1" y="20.6" fill="#CDD6E0" width="28.3" height="2.5"/>
	<rect x="12.1" y="26.2" fill="#CDD6E0" width="28.3" height="2.5"/>
	<rect x="12.1" y="31.8" fill="#ACB3BA" width="28.3" height="2.5"/>
	<rect x="12.1" y="37.4" fill="#ACB3BA" width="13" height="2.5"/>
	<rect x="12.2" y="3.6" fill="#84DBFF" width="12.9" height="13.9"/>
</g>
</svg>
