<?xml version="1.0" encoding="utf-8"?>
<!-- Generator: Adobe Illustrator 18.0.0, SVG Export Plug-In . SVG Version: 6.00 Build 0)  -->
<!DOCTYPE svg PUBLIC "-//W3C//DTD SVG 1.1//EN" "http://www.w3.org/Graphics/SVG/1.1/DTD/svg11.dtd">
<svg version="1.1" id="Layer_1" xmlns="http://www.w3.org/2000/svg" xmlns:xlink="http://www.w3.org/1999/xlink" x="0px" y="0px"
	 viewBox="0 0 48 48" enable-background="new 0 0 48 48" xml:space="preserve">
<g>
	<path fill="#F2F2F2" d="M33.6,0H6.2c-1.1,0-2,0.9-2,2v44c0,1.1,0.9,2,2,2h35.7c1.1,0,2-0.9,2-2V10.3L33.6,0z"/>
	<path fill="#CDD6E0" d="M33.6,8.3V0l10.3,10.3h-8.3C34.4,10.3,33.6,9.4,33.6,8.3z"/>
	<rect x="24.3" y="15" fill="#CDD6E0" width="14.8" height="2.5"/>
	<rect x="8.9" y="22.8" fill="#CDD6E0" width="30.3" height="2.5"/>
	<rect x="8.9" y="30.5" fill="#CDD6E0" width="30.3" height="2.5"/>
	<rect x="8.9" y="38.3" fill="#CDD6E0" width="30.3" height="2.5"/>
	<g>
		<path fill="#F8B64C" d="M12.7,12.9c0.6,0.7,1.4,1.2,2.3,1.2c0.9,0,1.8-0.4,2.3-1.2c0-0.1,0.1-0.1,0.1-0.2l-0.6-0.2h0l0,0
			c0,0,0,0,0,0c-0.4,0.6-1.1,0.9-1.8,0.9c-0.7,0-1.3-0.3-1.8-0.9c0,0,0,0,0,0h0l0,0h0l-0.6,0.2C12.6,12.8,12.6,12.9,12.7,12.9z"/>
		<polygon fill="#ACB3BA" points="15,13.5 15,13.5 15,13.5 		"/>
		<polygon fill="#ACB3BA" points="15,13.5 15,13.5 15,13.5 		"/>
		<path fill="#F8B64C" d="M13.2,12.5C13.2,12.5,13.2,12.5,13.2,12.5L13.2,12.5z"/>
		<path fill="#F8B64C" d="M15.7,13.3"/>
		<path fill="#F8B64C" d="M16.8,12.5C16.8,12.5,16.8,12.5,16.8,12.5L16.8,12.5z"/>
		
			<ellipse transform="matrix(0.9962 -8.714458e-002 8.714458e-002 0.9962 -0.7398 1.1338)" fill="#F8B64C" cx="12.6" cy="9" rx="0.6" ry="0.8"/>
		
			<ellipse transform="matrix(0.9962 8.714458e-002 -8.714458e-002 0.9962 0.8541 -1.483)" fill="#F8B64C" cx="17.4" cy="9" rx="0.6" ry="0.8"/>
		<path fill="#FFD15C" d="M12.6,6.6c-0.2,0.3-0.3,0.7-0.3,1.1v0.8c0,0.2,0,0.4,0,0.6v0c0.1,1,0.6,2,1.3,2.8l0.3,0.3
			c0.2,0.3,0.6,0.4,0.9,0.4h0.4c0.3,0,0.7-0.1,0.9-0.4l0.3-0.3c0.7-0.8,1.2-1.8,1.3-2.8c0-0.2,0-0.4,0-0.6V7.8
			c0-0.4-0.1-0.8-0.3-1.1H12.6z"/>
		<path fill="#CDD6E0" d="M16.8,12.5"/>
		<path fill="#F8B64C" d="M16.4,12l-0.3,0.3c-0.2,0.3-0.6,0.4-0.9,0.4h-0.4c-0.3,0-0.7-0.1-0.9-0.4L13.6,12
			c-0.2-0.2-0.3-0.4-0.5-0.6v1.1l1.8,2.5l1.8-2.5v-1.1C16.7,11.6,16.5,11.8,16.4,12z"/>
		<path fill="#40596B" d="M12.4,9.2l0.4,0.1c0-0.3,0-0.8,0.2-1c0,0-0.2-1.5,0.9-1.4c0,0,0.9,0.3,2.6,0c0,0,0.7,0,0.6,0.7
			c0,0,0,0.8,0.4,1l0,0.7l0.4-0.1c0.1-0.3,0-2,0-2c-0.2-1.3-1.8-2-1.8-2C16,5,16.3,5.1,16.3,5.1C14.3,3.9,13,5,13,5
			c-1.4,1.3-0.7,2.8-0.7,2.8C12.2,8.4,12.3,8.9,12.4,9.2z"/>
		<path fill="#FF7058" d="M8.9,17.5h12.3v-1.6c0-0.8-0.5-1.5-1.2-1.9l-3.1-1.4h0l0,0c0,0,0,0,0,0c-0.4,0.6-1.1,0.9-1.8,0.9
			c-0.7,0-1.3-0.3-1.8-0.9c0,0,0,0,0,0h0l0,0h0l-3.1,1.4c-0.7,0.3-1.2,1.1-1.2,1.9V17.5z"/>
	</g>
</g>
</svg>
