<?xml version="1.0" encoding="utf-8"?>
<!-- Generator: Adobe Illustrator 18.0.0, SVG Export Plug-In . SVG Version: 6.00 Build 0)  -->
<!DOCTYPE svg PUBLIC "-//W3C//DTD SVG 1.1//EN" "http://www.w3.org/Graphics/SVG/1.1/DTD/svg11.dtd">
<svg version="1.1" id="Layer_1" xmlns="http://www.w3.org/2000/svg" xmlns:xlink="http://www.w3.org/1999/xlink" x="0px" y="0px"
	 viewBox="0 0 48 48" enable-background="new 0 0 48 48" xml:space="preserve">
<g>
	<path fill="#F2F2F2" d="M23.5,47.9C-4.5,39.1,3.3,4,3.4,3.7l0.4-1.8l1.7,0.7c2.4,1,4.8,1.5,7.3,1.5C18.8,4.2,23,0.8,23,0.8L24,0
		l1,0.8c0,0,4.2,3.4,10.3,3.4c2.4,0,4.9-0.5,7.3-1.5l1.7-0.7l0.4,1.8c0.1,0.4,7.9,35.5-20.2,44.2L24,48L23.5,47.9z"/>
	<path fill="#84DBFF" d="M42.7,22.9c1.3-7.6,0.3-14.7-0.2-17.5c-2.4,0.9-4.7,1.3-7.1,1.3c-5.7,0-9.8-2.4-11.3-3.5v19.7H42.7z"/>
	<path fill="#40596B" d="M24,3.2C24,3.2,24,3.2,24,3.2c-1.5,1.1-5.6,3.5-11.3,3.5c-2.4,0-4.8-0.4-7.1-1.3c-0.5,2.7-1.4,9.9-0.1,17.5
		H24V3.2z"/>
	<path fill="#84DBFF" d="M5.5,22.9C7,31.8,11.7,41.4,24,45.4c0,0,0,0,0,0V22.9H5.5z"/>
	<path fill="#40596B" d="M42.7,22.9H24v22.5C36.4,41.4,41.1,31.8,42.7,22.9z"/>
	<g>
		<circle fill="#FFD15C" cx="24" cy="22.9" r="11.9"/>
		<circle fill="#F8B64C" cx="24" cy="22.9" r="9.8"/>
		<path fill="#FFD15C" d="M23.4,28c-1.6-0.1-2.7-0.7-3.6-1.6l1.2-1.7c0.6,0.6,1.4,1.1,2.4,1.3v-2.3c-1.5-0.4-3.2-1-3.2-3
			c0-1.5,1.2-2.8,3.2-3v-1.4h1.4v1.4c1.2,0.1,2.2,0.6,3.1,1.3l-1.2,1.6c-0.5-0.5-1.2-0.8-1.9-1v2.1c1.6,0.4,3.3,1,3.3,3
			c0,1.7-1.1,3-3.3,3.2v1.3h-1.4V28z M23.4,21.5v-1.8c-0.7,0.1-1,0.4-1,1C22.4,21.1,22.8,21.3,23.4,21.5z M24.8,24.1v2
			c0.8-0.2,1.1-0.6,1.1-1.1C26,24.6,25.5,24.3,24.8,24.1z"/>
	</g>
</g>
</svg>
