<?xml version="1.0" encoding="utf-8"?>
<!-- Generator: Adobe Illustrator 16.0.0, SVG Export Plug-In . SVG Version: 6.00 Build 0)  -->
<!DOCTYPE svg PUBLIC "-//W3C//DTD SVG 1.1//EN" "http://www.w3.org/Graphics/SVG/1.1/DTD/svg11.dtd">
<svg version="1.1" id="Layer_1" xmlns="http://www.w3.org/2000/svg" xmlns:xlink="http://www.w3.org/1999/xlink" x="0px" y="0px"
	 width="48px" height="48px" viewBox="0 0 48 48" enable-background="new 0 0 48 48" xml:space="preserve">
<g>
	<polygon fill="#E8EAE9" points="48,10.801 48,37.2 35.586,37.2 35.586,23.214 0,23.214 0,10.801 	"/>
	<rect x="3.396" y="10.8" fill="#8AD7F8" width="1.939" height="5.828"/>
	<rect x="8.73" y="10.8" fill="#8AD7F8" width="1.939" height="3.277"/>
	<rect x="14.066" y="10.8" fill="#8AD7F8" width="1.939" height="5.828"/>
	<rect x="19.402" y="10.8" fill="#8AD7F8" width="1.939" height="3.277"/>
	<rect x="24.738" y="10.8" fill="#8AD7F8" width="1.939" height="5.828"/>
	<rect x="30.072" y="10.8" fill="#8AD7F8" width="1.939" height="3.277"/>
	<rect x="35.408" y="10.8" fill="#8AD7F8" width="1.939" height="5.828"/>
	<rect x="40.744" y="10.8" fill="#8AD7F8" width="1.939" height="3.277"/>
	<rect x="42.172" y="32.124" fill="#8AD7F8" width="5.828" height="1.938"/>
	<rect x="44.723" y="26.788" fill="#8AD7F8" width="3.277" height="1.938"/>
	<rect x="42.172" y="21.452" fill="#8AD7F8" width="5.828" height="1.939"/>
	<rect x="44.723" y="16.116" fill="#8AD7F8" width="3.277" height="1.939"/>
</g>
</svg>
