<?xml version="1.0" encoding="utf-8"?>
<!-- Generator: Adobe Illustrator 18.0.0, SVG Export Plug-In . SVG Version: 6.00 Build 0)  -->
<!DOCTYPE svg PUBLIC "-//W3C//DTD SVG 1.1//EN" "http://www.w3.org/Graphics/SVG/1.1/DTD/svg11.dtd">
<svg version="1.1" id="Layer_1" xmlns="http://www.w3.org/2000/svg" xmlns:xlink="http://www.w3.org/1999/xlink" x="0px" y="0px"
	 viewBox="0 0 48 48" enable-background="new 0 0 48 48" xml:space="preserve">
<g>
	<path fill="#40596B" d="M47.4,7.4l-6.8-6.8C40.2,0.2,39.7,0,39.2,0H2C0.9,0,0,0.9,0,2v44c0,1.1,0.9,2,2,2h44c1.1,0,2-0.9,2-2V8.8
		C48,8.3,47.8,7.8,47.4,7.4z"/>
	<path fill="#ACB3BA" d="M8.3,0v14.8c0,1.1,0.9,2,2,2h27.4c1.1,0,2-0.9,2-2V0H8.3z"/>
	<path fill="#F2F2F2" d="M10.3,23.2h27.4c1.1,0,2,0.9,2,2V43c0,1.1-0.9,2-2,2H10.3c-1.1,0-2-0.9-2-2V25.2
		C8.3,24.1,9.2,23.2,10.3,23.2z"/>
	<rect x="28.5" y="3.1" fill="#40596B" width="8.1" height="10.6"/>
	<g>
		<rect x="11.4" y="33.1" fill="#4CDBC4" width="25.2" height="2"/>
		<rect x="11.4" y="39.2" fill="#4CDBC4" width="25.2" height="2"/>
		<rect x="11.4" y="26.9" fill="#4CDBC4" width="25.2" height="2"/>
	</g>
</g>
</svg>
