<?xml version="1.0" encoding="utf-8"?>
<!-- Generator: Adobe Illustrator 18.0.0, SVG Export Plug-In . SVG Version: 6.00 Build 0)  -->
<!DOCTYPE svg PUBLIC "-//W3C//DTD SVG 1.1//EN" "http://www.w3.org/Graphics/SVG/1.1/DTD/svg11.dtd">
<svg version="1.1" id="Layer_1" xmlns="http://www.w3.org/2000/svg" xmlns:xlink="http://www.w3.org/1999/xlink" x="0px" y="0px"
	 viewBox="0 0 48 48" enable-background="new 0 0 48 48" xml:space="preserve">
<g>
	<g>
		<g>
			<rect x="20" y="4.7" fill="#E8EAE9" width="4" height="8"/>
		</g>
		<g>
			<path fill="#F3705A" d="M29.8,0H14.3c-1.3,0-2.3,1-2.3,2.3l0,0c0,1.3,1,2.3,2.3,2.3h15.5c1.3,0,2.3-1,2.3-2.3l0,0
				C32.1,1,31,0,29.8,0z"/>
		</g>
		<g>
			<g>
				<path fill="#E8EAE9" d="M45.2,22.1v10.3H34.1v-4.8h-3.6c-1.6,3.1-4.8,5.3-8.6,5.3c-3.7,0-7-2.1-8.6-5.3H5.5V16.5h34.1
					C42.7,16.5,45.2,19,45.2,22.1z"/>
			</g>
		</g>
		<g>
			<rect x="16" y="12.7" fill="#E8EAE9" width="12.1" height="3.8"/>
		</g>
		<g>
			<g>
				<path fill="#E8EAE9" d="M45.2,38H34.1c-1.5,0-2.8-1.2-2.8-2.8c0-1.5,1.2-2.8,2.8-2.8h11.1c1.5,0,2.8,1.2,2.8,2.8
					C48,36.7,46.8,38,45.2,38z"/>
			</g>
		</g>
		<g>
			<g>
				<path fill="#E8EAE9" d="M0,27.6V16.5c0-1.5,1.2-2.8,2.8-2.8c1.5,0,2.8,1.2,2.8,2.8v11.1c0,1.5-1.2,2.8-2.8,2.8
					C1.2,30.4,0,29.1,0,27.6z"/>
			</g>
		</g>
		<path fill="#8AD7F8" d="M43.1,44.6c0,1.9-1.4,3.4-3.2,3.4c-1.8,0-3.2-1.5-3.2-3.4s3.2-5.6,3.2-5.6S43.1,42.7,43.1,44.6z"/>
	</g>
</g>
</svg>
