<?xml version="1.0" encoding="utf-8"?>
<!-- Generator: Adobe Illustrator 18.0.0, SVG Export Plug-In . SVG Version: 6.00 Build 0)  -->
<!DOCTYPE svg PUBLIC "-//W3C//DTD SVG 1.1//EN" "http://www.w3.org/Graphics/SVG/1.1/DTD/svg11.dtd">
<svg version="1.1" id="Layer_1" xmlns="http://www.w3.org/2000/svg" xmlns:xlink="http://www.w3.org/1999/xlink" x="0px" y="0px"
	 viewBox="0 0 48 48" enable-background="new 0 0 48 48" xml:space="preserve">
<g>
	<g>
		<g>
			<circle fill="#55C0EB" cx="24" cy="24" r="24"/>
			<g>
				<path fill="#F3F3F3" d="M3.7,33.4c1.3-0.1,1.7-1.2,2.2-2c0.3-0.6,0.6-1.1,1.2-1.1c1-0.1,1.3-0.8,1.4-1.5c0.1-0.9,0.4-1.6,1-2.2
					c0.4-0.4,0.3-0.9-0.3-1.2c-1.2-0.5-2.5-1-3.7-1.5c0.1-0.7-0.5-1.4-1.3-1.5c-0.3,0-0.6-0.2-0.9-0.4c-0.5-0.3-0.9-0.6-1.4-0.8
					C1.5,21,1.1,21,0.7,21c-0.2,0-0.3,0-0.5-0.1C0.1,21.9,0,22.9,0,24c0,3.8,0.9,7.4,2.5,10.6c0.1-0.1,0.2-0.2,0.4-0.2
					C3.4,34.3,3.9,34.1,3.7,33.4z"/>
				<path fill="#F3F3F3" d="M26.6,47c0.6-0.3,0.7-0.7,0.5-1.1c0.9-0.8,1.7-1.8,2.9-2c0,0.2,0,0.3,0,0.4c0.4-0.2,0.8-0.3,1.1-0.5
					c-0.6-0.1-1.1-0.1-0.8-1c-0.3,0-0.5-0.1-0.7-0.1c0,0,0-0.1,0-0.1c0.9-0.1,1.8-0.2,2.6-0.3c-0.2,0.3-0.3,0.6-0.5,0.9
					c1.2,0.1,1.2,0.1,1.4-0.3c-0.2-0.1-0.4-0.2-0.7-0.3c0.2-0.6,0.1-1-0.4-1.3c-0.5-0.3-0.9-0.6-1.3-1c-0.2-0.1-0.3-0.4-0.4-0.5
					c-0.8,0.7-1,0.7-1.5,0c-0.1-0.1-0.2-0.1-0.3-0.2c-0.6-0.2-1.2-0.3-1.9-0.5c0.2,0.7,0.3,1.3,0.4,1.9c-0.2,0.1-0.4,0.2-0.6,0.3
					c-0.1,0.3-0.1,0.6-0.1,0.9c-0.4-0.3-0.7-0.5-1.1-0.8c0,0,0.1,0,0.1-0.1c-1.1-0.4-2.1-0.7-3.2-1.1c0-0.1,0-0.2,0-0.3
					c1-1,2.2-1.5,3.6-1.9c0-0.3-0.1-0.5-0.1-1c0.9,0.2,1.8,0.4,2.6,0.7c0,0.1,0,0.2,0,0.3c-0.5,0.2-0.9,0.4-1.2,0.5
					c0.6,0.2,1.2,0.4,1.9,0.6c0.4,0.1,0.9,0,1.3,0c0-0.1,0-0.2,0-0.2c-0.2-0.2-0.5-0.4-0.8-0.7c1.2,0.1,1.2,0.1,1.6-0.1
					c-0.5-0.1-0.9-0.2-1.3-0.4c-0.1,0-0.3-0.1-0.3-0.2c0.1-0.6-0.3-0.4-0.6-0.5c-0.6-0.2-1.1-0.4-1.7-0.6c-0.6-0.3-2-0.1-2.4,0.3
					c0,0-0.1,0-0.2,0c0-0.2,0-0.3,0-0.7c0.6,0,1.2-0.1,1.6-0.4c-1.1,0-2.1,0-3.2,0c0.1,0.2,0.8,0.4,1.6,0.4
					c-0.4,0.3-0.7,0.5-0.9,0.6c0.4,0.2,0.8,0.5,1.1,0.7c0.1,0,0.2,0.1,0.3,0.1c-0.2,0.2-0.4,0.4-0.5,0.5c-0.9-0.5-1.5-0.9-2.2-1.3
					c0.5-0.2,0.7-0.3,1-0.5c-1.1-0.4-1.4,0.2-1.5,0.9c0.2,0.1,0.4,0.2,0.7,0.3c-0.2,0.2-0.4,0.3-0.5,0.4c-0.2-0.2-0.4-0.4-0.6-0.6
					c-0.1,0.1-0.2,0.3-0.4,0.5c-0.5,0-1.1-0.1-1.7-0.1c0,0,0-0.1,0-0.1c0.4-0.1,0.7-0.1,1-0.2c-0.4-0.4-0.8-0.7-1.2-1.1
					c-0.1,0.1-0.4,0.4-0.6,0.3c-1.1-0.1-2.2-0.3-3.2-0.6c-0.6-0.1-1.1,0-1.3,0.8c0.6,0,1.2-0.1,1.8-0.1c0.1,0.2,0.4,0.4,0.7,0.8
					c-0.3,0-0.4,0-0.5,0c-1-0.1-2-0.2-3-0.2c-0.7,0-1.4,0.2-2.1,0.2c-1.4-0.1-2.7-0.2-4.1-0.5c-0.9-0.2-1.8,0-2.7,0.3
					c0.7,1,1.5,2,2.3,2.9C6.6,40.1,6.8,40,7,39.9c0,0.1,0.1,0.2,0.1,0.4c0.6-0.5,1.3-0.6,2-0.3c0.1,0,0.3,0,0.4,0
					c1,0.3,2.2,0.2,3,1.2c0.4,0.5,0.7,1.2,1.2,1.5c0.7,0.4,0.8,1,0.7,1.7c-0.1,0.8,0.2,1.3,0.6,1.9c2.8,1.1,5.8,1.8,8.9,1.8
					c0.3-0.1,0.6-0.1,0.8,0c0.4,0,0.8,0,1.1-0.1C25.9,47.5,26.2,47.2,26.6,47z"/>
				<path fill="#F3F3F3" d="M36,3.2c-0.4-0.1-0.9-0.2-1.3-0.3c-1.4-0.3-2.9-0.4-4.3-0.5c-0.2,0-0.4,0-0.5-0.1
					c-0.4-0.4-0.4-0.4-0.8,0c-0.4,0-0.7,0-1.1,0c-0.6,0.1-1.2,0.3-1.8,0.2c-0.4,0-0.6-0.4-0.8-0.8C26.3,1.8,27.2,2,28,2.2
					c-0.1-0.2-0.2-0.6-0.5-0.7c-0.9-0.4-2.1-0.5-2.9-0.9c-0.6-0.3-1.2-0.5-1.8-0.5c-2.5,0.1-4.8,0.6-7,1.4c-0.1,0.1-0.3,0.1-0.4,0.2
					c-0.5,0.2-1,0.4-1.5,0.6c-0.3,0.3-0.1,0.5-0.1,0.7c0,0.1,0.5,0.2,0.9,0.2c0.3,0,0.6-0.2,1-0.3c0.2,0.4,0.4,0.8,0.7,1.3
					c0.8-0.5,1.6-0.9,2.4-1.3c-0.5-0.5-0.4-0.7,0.5-1c0.3-0.1,0.6-0.2,1-0.3c0.5-0.1,1-0.2,1.5-0.3c0,0.1,0,0.2,0,0.3
					c-0.5,0.1-1.1,0.3-1.7,0.5c-0.3,1.5,1.9,0.4,2.7,1.1c-0.8,0-1.4,0-2,0c0,0.2-0.1,0.4-0.1,0.6c-0.6-0.3-1.1-0.4-1.4,0.3
					c-0.1,0.1-0.5,0.3-0.7,0.3c-0.6,0-1.2,0.1-1.7,0c-0.6,0-1.2-0.1-1.8-0.2c0.2-0.3,0.3-0.6,0.4-0.8c-0.1,0-0.2-0.1-0.3-0.1
					c-0.3,0.3-0.5,0.7-0.8,1.1c-1.6,0.5-3.4,1.2-5.1,1.9c0.1,0,0.4,0,0.4,0.1C9.8,6.6,9.9,6.9,10,7.1C9.6,7.3,9.3,7.5,9,7.5
					C8.4,7.6,7.9,7.6,7.3,7.7C7.1,7.6,6.8,7.5,6.6,7.5c-1.7,1.8-3.2,3.9-4.3,6.2c0,0,0,0,0,0c0,0,0.1-0.1,0.1-0.2
					c0.3-0.8,0.8-1.5,1.8-1.4c0.2,0,0.5-0.2,0.7-0.3c0.2-0.1,0.4-0.2,0.6-0.2c0.1,0,0.2,0,0.3-0.1c-0.2,0.3-0.4,0.5-0.7,0.7
					c-1.3,0.8-2.3,1.8-2,3c0,0.2,0,0.4-0.1,0.6c-0.5,0.9-0.2,1.4,0.5,1.8c0.2,0.1,0.4,0.3,0.5,0.5c0.5,0.6,1.5,0.8,2.5,0.6
					c0.2-0.1,0.4-0.1,0.7-0.1c1.2-0.2,2.5-0.8,3.7-0.3c0.5,0.2,0.9,0.3,0.6,0.8c-0.4,0.7,0,1.1,0.3,1.6c0.5,0.7,0.9,1.6,0.2,2.6
					c-0.4,0.5-0.4,1.1,0,1.7c0.3,0.4,0.3,0.9,0.5,1.3c0.3,0.8,0.7,1.6,1,2.4c0,0.1,0.2,0.2,0.3,0.2c1.1-0.2,2.3,0,3.1-1.1
					c0.3-0.4,0.5-1.1,0.8-1.2c0.9-0.4,0.7-0.9,0.7-1.6c0.4-0.2,0.9-0.4,1.2-0.7c0.3-0.2,0.6-0.6,0.7-0.9c0.1-0.3,0-0.7,0-1.1
					c-0.1-0.7,0-1.3,0.7-1.8c0.6-0.4,1.2-0.8,1.9-1.1c1.1-0.6,1.8-1.3,2.4-2.3c-0.6,0-1.1,0-1.6,0.1c-0.6,0-1-0.1-1-0.7c0,0,0,0,0,0
					c1.8,0.1,3.5-0.4,5.1-0.9c1-0.3,1-0.6,0.4-1.4c-0.1-0.1-0.1-0.3-0.2-0.4c-1.3,0.4-2-0.1-2-1.6c0.3,0.1,0.5,0.3,0.7,0.5
					c0.3,0.3,0.5,0.6,0.9,0.8c0.2,0.1,0.7,0,0.8,0.1c0.4,0.7,1.2,0.7,2,0.9c0.9,0.2,1.2,0.7,1.5,1.3c0.1,0.2,0.4,0.4,0.7,0.6
					c0,1.1-0.1,2.4-0.1,3.7c0.9-0.2,1.3-0.6,1.6-1.2c0.1-0.2,0.3-0.4,0.6-0.5c1.2-0.3,2.4-0.5,3.7-0.8c0.1,0.9,0.1,1.6,0.2,2.3
					c0.1,0,0.4,0,0.7,0c-0.2,0.6-0.3,1.1-0.6,1.6c-0.4,0.8-0.1,1.6-0.1,2.4c0,0.2,0.2,0.3,0.3,0.5c0.2-0.5,0.3-1,0.1-1.4
					c-0.4-1-0.4-1.1,0.6-1.9c0.3,0.6,0.5,1.1,0.7,1.7c0.1,0,0.3-0.1,0.6-0.1c0.9-0.1,1.3-0.5,1-1.3c0-0.1-0.1-0.2-0.1-0.4
					c0-0.2,0.1-0.6,0.2-0.6c0.3-0.1,0.7,0,1,0c0.2,0,0.4,0.2,0.6,0.3c0.4,0.1,0.8,0.2,1.2,0.3c0.8,0.2,2.3-0.2,2.8-0.8
					C46.5,12.9,42.1,6.8,36,3.2z M18.1,10.5c-0.7-0.2-1.3-0.3-1.7,0.5c-1-0.4-2-0.7-2.8-0.9c0-0.4,0-0.7,0-1.2
					C12,9.2,10.5,9.6,9,9.9c-0.2,0-0.4,0-0.6,0c0.1-0.1,0.2-0.3,0.2-0.4C9.1,9.4,9.5,9.2,9.7,9c0.8-0.8,1.6-1.7,3-1.6
					c0.2,0,0.4-0.2,0.6-0.2c0.2,0,0.6-0.1,0.7,0c0.7,0.5,1.4,1,2,1.4c0.2-0.2,0.4-0.3,0.6-0.4c-0.5-0.4-1.1-0.8-1.7-1.2
					c0.1-0.1,0.2-0.2,0.4-0.3c1.4,0.5,2.3,1.3,2.8,2.6c0.2-0.3,0.3-0.5,0.7-1c0.5-0.2,0.9-0.2,1,0.6c0,0.3,0.4,0.6,0.8,0.7
					c0.6,0.1,1.4,0.1,2,0.1c-0.1,0.8-0.8,1.5-1.3,1.4C20.2,10.9,19.1,10.8,18.1,10.5z M22.9,16.4c-1.3-1.2-1.2-2.9-1.9-4.5
					c0.3,0,0.6,0,0.6,0c0.6,1.3,1.5,2.6,1.5,4.1C23,16.2,22.9,16.3,22.9,16.4z M25.1,8.7c-1.5-0.2-2.9-0.4-4.7-0.6
					c-0.3-0.6,0.6-0.8,1.2-1.2c0.6-0.3,0.8,0,1.1,0.3c0.2,0.3,0.4,0.3,0.7-0.1C23.5,7.1,24,7,24.7,6.9c-0.3,0.3-0.4,0.5-0.6,0.6
					c0.4,0.3,0.8,0.6,1.2,0.9C25.2,8.6,25.2,8.6,25.1,8.7z M29.4,9.6c-0.1,0-0.3,0-0.4,0c0,0.3,0,0.6,0.1,1.2
					c-0.7-0.3-1.3-0.5-1.7-0.8c-0.1,0,0.2-0.4,0.3-0.6c0.1,0,0.3,0,0.4,0c-0.3-0.3-0.6-0.6-0.8-1c-0.1-0.1,0.1-0.5,0.2-0.5
					c0.8-0.1,1.6-0.1,2.4-0.1c0.2,0,0.2,0.4,0.4,0.6c-0.3,0.1-0.6,0.1-0.9,0.2c-0.2,0-0.4-0.1-0.8-0.1C28.8,8.8,29.1,9.2,29.4,9.6z"
					/>
			</g>
		</g>
		<g>
			
				<rect x="31.3" y="31.3" transform="matrix(0.7071 -0.7071 0.7071 0.7071 -14.1822 34.2387)" fill="#344A5E" width="5.8" height="5.8"/>
			<g opacity="0.6">
				<path fill="#FFFFFF" d="M15.7,15.7c-4.4,4.4-4.4,11.5,0,15.9s11.6,4.4,15.9,0c4.4-4.4,4.4-11.6,0-15.9S20.1,11.3,15.7,15.7z"/>
			</g>
			<g>
				<g>
					<path fill="#415A6B" d="M34.3,34.3c-5.9,5.9-15.4,5.9-21.3,0s-5.9-15.4,0-21.3s15.4-5.9,21.3,0S40.2,28.5,34.3,34.3z
						 M15.7,15.7c-4.4,4.4-4.4,11.5,0,15.9s11.6,4.4,15.9,0c4.4-4.4,4.4-11.6,0-15.9S20.1,11.3,15.7,15.7z"/>
				</g>
			</g>
			<g>
				<path fill="#F05540" d="M38,33.5L33.5,38c-0.6,0.6-0.6,1.4,0,2l6.7,6.7c1.8,1.8,4.7,1.8,6.5,0l0,0c1.8-1.8,1.8-4.7,0-6.5
					L40,33.5C39.4,33,38.5,33,38,33.5z"/>
			</g>
			<path fill="#F05540" d="M46.7,40.2L40,33.5c-0.6-0.6-1.4-0.6-2,0L33.5,38c-0.6,0.6-0.6,1.4,0,2l6.7,6.7c1.8,1.8,4.7,1.8,6.5,0
				S48.4,42,46.7,40.2z"/>
			<g>
				
					<rect x="37.3" y="34.2" transform="matrix(-0.7071 -0.7071 0.7071 -0.7071 38.8063 93.6866)" fill="#FFD15C" width="3" height="9.1"/>
			</g>
		</g>
	</g>
</g>
</svg>
