<?xml version="1.0" encoding="utf-8"?>
<!-- Generator: Adobe Illustrator 16.0.0, SVG Export Plug-In . SVG Version: 6.00 Build 0)  -->
<!DOCTYPE svg PUBLIC "-//W3C//DTD SVG 1.1//EN" "http://www.w3.org/Graphics/SVG/1.1/DTD/svg11.dtd">
<svg version="1.1" id="Layer_1" xmlns="http://www.w3.org/2000/svg" xmlns:xlink="http://www.w3.org/1999/xlink" x="0px" y="0px"
	 width="48px" height="48px" viewBox="0 0 48 48" enable-background="new 0 0 48 48" xml:space="preserve">
<g>
	<path fill="#8AD7F8" d="M46.006,25.34l-4.566-10.77c-0.291-0.688-0.967-1.135-1.714-1.135h-9.313c-1.028,0-1.861,0.832-1.861,1.861
		v16.594h17.604v-5.824C46.154,25.816,46.104,25.568,46.006,25.34"/>
	<path fill="#415A6B" d="M32.749,21.961v-5.545c0-0.275,0.225-0.5,0.5-0.5h5.735c0.201,0,0.382,0.121,0.46,0.305l3.126,7.373
		c0.158,0.371-0.166,0.766-0.562,0.686l-8.86-1.828C32.916,22.402,32.749,22.197,32.749,21.961"/>
	<path fill="#E8EAE9" d="M45.996,31.891H2.003C0.897,31.891,0,32.787,0,33.895C0,35,0.897,35.898,2.003,35.898h43.993
		C47.104,35.898,48,35,48,33.895C48,32.787,47.104,31.891,45.996,31.891"/>
	<path fill="#F3705A" d="M26.689,6.443H1.86C0.833,6.443,0,7.275,0,8.305v21.725c0,1.029,0.833,1.861,1.86,1.861h26.69V8.305
		C28.551,7.275,27.718,6.443,26.689,6.443"/>
	<path fill="#F05540" d="M4.771,9.545c-0.878,0-1.591,0.713-1.591,1.592v16.063c0,0.877,0.713,1.59,1.591,1.59
		s1.591-0.713,1.591-1.59V11.137C6.362,10.258,5.649,9.545,4.771,9.545"/>
	<path fill="#F05540" d="M11.134,9.545c-0.878,0-1.591,0.713-1.591,1.592v16.063c0,0.877,0.713,1.59,1.591,1.59
		s1.591-0.713,1.591-1.59V11.137C12.725,10.258,12.012,9.545,11.134,9.545"/>
	<path fill="#F05540" d="M17.496,9.545c-0.878,0-1.591,0.713-1.591,1.592v16.063c0,0.877,0.713,1.59,1.591,1.59
		s1.591-0.713,1.591-1.59V11.137C19.087,10.258,18.374,9.545,17.496,9.545"/>
	<path fill="#F05540" d="M23.858,9.545c-0.878,0-1.591,0.713-1.591,1.592v16.063c0,0.877,0.713,1.59,1.591,1.59
		s1.591-0.713,1.591-1.59V11.137C25.449,10.258,24.736,9.545,23.858,9.545"/>
	<path fill="#415A6B" d="M15.9,35.898c0,3.125-2.534,5.658-5.659,5.658c-3.126,0-5.66-2.533-5.66-5.658
		c0-3.127,2.534-5.658,5.66-5.658C13.366,30.24,15.9,32.771,15.9,35.898"/>
	<path fill="#E8EAE9" d="M12.869,35.898c0,1.451-1.178,2.627-2.628,2.627c-1.451,0-2.629-1.176-2.629-2.627s1.178-2.629,2.629-2.629
		C11.691,33.27,12.869,34.447,12.869,35.898"/>
	<path fill="#415A6B" d="M43.547,35.898c0,3.125-2.534,5.658-5.659,5.658c-3.126,0-5.66-2.533-5.66-5.658
		c0-3.127,2.534-5.658,5.66-5.658C41.013,30.24,43.547,32.771,43.547,35.898"/>
	<path fill="#E8EAE9" d="M40.516,35.898c0,1.451-1.178,2.627-2.629,2.627c-1.45,0-2.628-1.176-2.628-2.627s1.178-2.629,2.628-2.629
		C39.338,33.27,40.516,34.447,40.516,35.898"/>
</g>
</svg>
